<svg version="1.1" id="Layer_1" xmlns="http://www.w3.org/2000/svg" xmlns:xlink="http://www.w3.org/1999/xlink" x="0px" y="0px"
	 width="100%" viewBox="0 0 280 280" enable-background="new 0 0 280 280" xml:space="preserve">
<path fill="#371D28" opacity="1.000000" stroke="none" 
	d="
M230.000000,281.000000 
	C212.312439,281.000000 194.624878,281.000000 176.296509,280.709442 
	C173.305237,278.913330 170.738113,277.660339 168.639999,275.860596 
	C156.330627,265.301758 141.159927,258.563629 129.815140,246.708160 
	C128.600525,245.438889 126.589455,244.972763 125.157829,243.863144 
	C118.381409,238.610901 111.668373,233.276581 104.956810,227.941254 
	C103.666336,226.915390 102.469963,225.768845 101.253670,224.652374 
	C94.796333,218.724838 87.722359,213.327576 82.034737,206.734863 
	C72.599937,195.798737 64.534744,183.674423 55.017410,172.817856 
	C43.637314,159.836395 34.149872,145.738342 26.217781,130.491867 
	C25.378353,128.878387 24.497206,127.193893 23.265409,125.892586 
	C16.318846,118.554031 12.628432,109.720757 9.744703,100.129311 
	C8.112511,94.700554 3.997005,90.018417 1.000000,85.000000 
	C1.000000,63.979103 1.000000,42.958210 1.295910,21.646963 
	C2.479798,22.718407 3.699080,23.969444 4.197851,25.461359 
	C6.252408,31.606907 7.875873,37.901077 10.045170,44.002899 
	C16.002159,60.758785 21.758717,77.605629 28.434061,94.076256 
	C30.930761,100.236565 36.088875,105.263321 39.425270,111.151566 
	C44.007839,119.239143 47.999149,127.661102 52.269623,135.926437 
	C54.395092,140.040207 56.645775,140.409805 60.060730,137.284821 
	C61.993156,135.516464 63.940022,133.763901 65.948128,132.464111 
	C66.030556,134.419266 66.053947,135.914505 66.058632,137.409790 
	C66.156937,168.760620 89.811371,195.537598 121.406540,199.724976 
	C123.204956,200.028015 124.598892,200.209625 125.894363,200.697113 
	C123.663887,203.052200 121.518990,205.088257 119.403671,207.154572 
	C117.513786,209.000687 117.302361,210.762833 119.512886,212.628143 
	C122.819191,215.418091 125.808380,218.626648 129.302338,221.143707 
	C141.958527,230.261368 154.351273,239.849457 167.638672,247.956680 
	C180.932236,256.067657 195.185608,262.603607 209.003723,269.857605 
	C216.018951,273.540375 223.002258,277.283936 230.000000,281.000000 
z"/>
<path fill="#311C25" opacity="1.000000" stroke="none" 
	d="
M1.000000,85.468658 
	C3.997005,90.018417 8.112511,94.700554 9.744703,100.129311 
	C12.628432,109.720757 16.318846,118.554031 23.265409,125.892586 
	C24.497206,127.193893 25.378353,128.878387 26.217781,130.491867 
	C34.149872,145.738342 43.637314,159.836395 55.017410,172.817856 
	C64.534744,183.674423 72.599937,195.798737 82.034737,206.734863 
	C87.722359,213.327576 94.796333,218.724838 101.253670,224.652374 
	C102.469963,225.768845 103.666336,226.915390 104.956810,227.941254 
	C111.668373,233.276581 118.381409,238.610901 125.157829,243.863144 
	C126.589455,244.972763 128.600525,245.438889 129.815140,246.708160 
	C141.159927,258.563629 156.330627,265.301758 168.639999,275.860596 
	C170.738113,277.660339 173.305237,278.913330 175.827850,280.709442 
	C161.979111,281.000000 147.958206,281.000000 133.349014,280.684357 
	C131.720551,279.096893 130.848984,277.624390 129.612823,276.585876 
	C121.736168,269.968597 113.931206,263.250946 105.807434,256.946808 
	C97.044533,250.146744 87.643661,244.144104 79.104195,237.087936 
	C70.961288,230.359421 63.165257,223.100800 57.485607,213.962967 
	C56.618019,212.567123 55.593651,211.253174 54.526455,209.999527 
	C48.976337,203.479660 42.786144,197.409302 37.934807,190.409027 
	C26.409781,173.778931 15.533221,156.699982 4.316967,139.854126 
	C3.538481,138.684906 2.120567,137.941437 1.000002,137.000000 
	C1.000000,119.979103 1.000000,102.958214 1.000000,85.468658 
z"/>
<path fill="#261B22" opacity="1.000000" stroke="none" 
	d="
M76.000000,281.000000 
	C51.066059,281.000000 26.132116,281.000000 1.000000,281.000000 
	C1.000000,250.979401 1.000000,220.958359 1.356999,190.530609 
	C3.785348,191.411713 7.202443,192.330826 7.675313,194.056625 
	C9.084846,199.200897 12.603726,202.463882 15.885580,206.147537 
	C18.405199,208.975601 21.064758,211.960907 22.568533,215.360062 
	C27.375158,226.225098 31.677244,236.884644 41.763893,244.747177 
	C50.557484,251.601761 57.618793,260.696899 65.338997,268.902313 
	C69.020210,272.814850 72.454094,276.960144 76.000000,281.000000 
z"/>
<path fill="#70273B" opacity="1.000000" stroke="none" 
	d="
M96.000000,1.000001 
	C101.354927,1.000000 106.709862,1.000000 112.559647,1.395489 
	C117.150345,11.753895 120.720085,21.978374 125.503456,31.599470 
	C129.550537,39.739616 135.504501,46.923325 139.664383,55.018578 
	C142.659592,60.847363 146.803207,64.595764 152.310333,67.832657 
	C169.844894,78.138870 183.707108,92.241402 194.446762,109.567284 
	C196.681549,113.172577 200.354568,115.999046 203.707123,118.770271 
	C207.890839,122.228539 212.553299,125.103561 216.784760,128.509094 
	C222.968506,133.485809 228.272736,140.045425 235.161987,143.554626 
	C250.048050,151.137207 264.588806,159.750122 281.000000,164.000000 
	C281.000000,169.354935 281.000000,174.709854 280.589050,180.519501 
	C277.907776,180.521103 275.512543,180.388977 273.387909,179.561752 
	C261.498108,174.932556 249.683487,170.110794 237.824188,165.402664 
	C225.790741,160.625412 216.628143,153.306427 213.910141,139.742294 
	C213.555115,137.970520 211.343750,136.570709 209.912048,134.573151 
	C210.411652,129.392517 208.861191,126.738747 203.539612,127.629539 
	C202.760361,127.759972 201.904495,127.432846 200.917496,126.999725 
	C197.145798,124.072258 193.540695,121.462486 189.885223,118.487846 
	C186.366760,111.213493 183.562363,103.857956 179.284302,97.492874 
	C171.745087,86.275688 160.623230,79.419876 147.864151,74.636330 
	C145.993164,72.844971 144.450531,70.988457 142.476898,69.955292 
	C138.213913,67.723686 133.801468,65.730087 129.315063,63.986828 
	C125.216942,62.394440 122.328728,59.906242 120.360847,55.891541 
	C117.658180,50.377808 113.986519,45.309269 111.579865,39.686249 
	C106.111099,26.908737 101.160942,13.909259 96.000000,1.000001 
z"/>
<path fill="#2C1B23" opacity="1.000000" stroke="none" 
	d="
M1.000002,137.468628 
	C2.120567,137.941437 3.538481,138.684906 4.316967,139.854126 
	C15.533221,156.699982 26.409781,173.778931 37.934807,190.409027 
	C42.786144,197.409302 48.976337,203.479660 54.526455,209.999527 
	C55.593651,211.253174 56.618019,212.567123 57.485607,213.962967 
	C63.165257,223.100800 70.961288,230.359421 79.104195,237.087936 
	C87.643661,244.144104 97.044533,250.146744 105.807434,256.946808 
	C113.931206,263.250946 121.736168,269.968597 129.612823,276.585876 
	C130.848984,277.624390 131.720551,279.096893 132.880356,280.684357 
	C124.312439,281.000000 115.624870,281.000000 106.348145,280.682678 
	C103.318123,278.192169 101.008026,275.846222 98.410278,273.880341 
	C92.223724,269.198639 85.359383,265.272797 79.749825,259.998322 
	C69.059593,249.946548 58.212521,240.120834 48.690403,228.724899 
	C37.425579,215.243317 28.830036,200.186752 19.263288,185.688660 
	C14.416512,178.343536 9.954329,170.744980 5.131023,163.383698 
	C4.200362,161.963333 2.399457,161.113190 1.000000,160.000000 
	C1.000000,152.645752 1.000000,145.291504 1.000002,137.468628 
z"/>
<path fill="#802C42" opacity="1.000000" stroke="none" 
	d="
M281.000000,133.000000 
	C281.000000,138.022095 281.000000,143.044189 280.611969,148.506042 
	C271.470978,145.454651 262.505066,142.406967 254.029877,138.337357 
	C246.749680,134.841568 239.904129,130.374207 233.087875,125.991936 
	C217.152954,115.747131 200.933243,105.842476 188.474182,91.117630 
	C185.147079,87.185455 181.532974,83.497246 178.086868,79.664444 
	C168.772736,69.305138 159.208740,59.153126 150.287949,48.464787 
	C145.740906,43.016811 141.631363,36.936005 138.628510,30.529804 
	C134.147476,20.970062 130.818893,10.870119 127.000000,1.000000 
	C130.692902,1.000000 134.385818,1.000000 138.594177,1.370466 
	C140.911896,6.382991 142.493790,11.125446 144.554977,15.649523 
	C152.930130,34.031818 165.372101,49.647274 178.943558,64.306358 
	C199.753342,86.783859 223.561279,105.685410 250.164078,120.889839 
	C259.781982,126.386818 269.388428,132.373642 281.000000,133.000000 
z"/>
<path fill="#78293F" opacity="1.000000" stroke="none" 
	d="
M126.535355,1.000000 
	C130.818893,10.870119 134.147476,20.970062 138.628510,30.529804 
	C141.631363,36.936005 145.740906,43.016811 150.287949,48.464787 
	C159.208740,59.153126 168.772736,69.305138 178.086868,79.664444 
	C181.532974,83.497246 185.147079,87.185455 188.474182,91.117630 
	C200.933243,105.842476 217.152954,115.747131 233.087875,125.991936 
	C239.904129,130.374207 246.749680,134.841568 254.029877,138.337357 
	C262.505066,142.406967 271.470978,145.454651 280.611969,148.972900 
	C281.000000,153.689255 281.000000,158.378510 281.000000,163.533875 
	C264.588806,159.750122 250.048050,151.137207 235.161987,143.554626 
	C228.272736,140.045425 222.968506,133.485809 216.784760,128.509094 
	C212.553299,125.103561 207.890839,122.228539 203.707123,118.770271 
	C200.354568,115.999046 196.681549,113.172577 194.446762,109.567284 
	C183.707108,92.241402 169.844894,78.138870 152.310333,67.832657 
	C146.803207,64.595764 142.659592,60.847363 139.664383,55.018578 
	C135.504501,46.923325 129.550537,39.739616 125.503456,31.599470 
	C120.720085,21.978374 117.150345,11.753895 113.027252,1.395489 
	C117.356903,1.000000 121.713799,1.000000 126.535355,1.000000 
z"/>
<path fill="#892F46" opacity="1.000000" stroke="none" 
	d="
M281.000000,132.535355 
	C269.388428,132.373642 259.781982,126.386818 250.164078,120.889839 
	C223.561279,105.685410 199.753342,86.783859 178.943558,64.306358 
	C165.372101,49.647274 152.930130,34.031818 144.554977,15.649523 
	C142.493790,11.125446 140.911896,6.382991 139.054825,1.370466 
	C143.689255,1.000000 148.378510,1.000000 153.545761,1.403066 
	C154.526764,3.888333 154.602188,6.208551 155.606049,8.011938 
	C160.194122,16.254164 164.234268,24.979681 169.973495,32.364010 
	C180.439270,45.829700 190.798843,59.762905 203.359909,71.113914 
	C217.804092,84.166626 234.110184,95.374519 250.543808,105.925468 
	C259.713959,111.813019 270.785370,114.739281 281.000000,119.000000 
	C281.000000,123.356903 281.000000,127.713806 281.000000,132.535355 
z"/>
<path fill="#411E2B" opacity="1.000000" stroke="none" 
	d="
M281.000000,265.000000 
	C281.000000,269.500000 280.665985,274.033508 281.112946,278.488678 
	C281.431183,281.660767 279.654388,280.951935 277.327026,280.704071 
	C272.592865,278.740112 268.651703,276.632935 264.448669,275.483429 
	C249.738037,271.460175 234.338516,269.815552 220.790665,261.893097 
	C215.511093,258.805725 209.799011,256.440125 204.218765,253.888229 
	C189.397232,247.110214 174.545380,240.394547 161.958252,229.722641 
	C155.879593,224.568893 149.907745,219.287796 143.779510,214.194336 
	C139.503250,210.640152 139.722015,208.614822 144.613892,205.638046 
	C146.923615,204.232559 148.879044,202.244858 151.443329,200.439148 
	C154.928207,200.250519 157.964783,200.143677 161.430954,200.129181 
	C163.905243,200.321442 165.949936,200.421371 167.910980,200.835083 
	C166.759338,202.359894 165.795929,203.687134 164.603607,204.759995 
	C161.132477,207.883331 160.963318,212.116745 165.128983,214.185333 
	C175.985962,219.576691 183.767609,229.335220 195.516556,233.732910 
	C212.041092,239.918198 227.696304,248.417267 244.197845,254.675537 
	C256.063721,259.175720 268.704742,261.631989 281.000000,265.000000 
z"/>
<path fill="#291B23" opacity="1.000000" stroke="none" 
	d="
M1.000000,160.468658 
	C2.399457,161.113190 4.200362,161.963333 5.131023,163.383698 
	C9.954329,170.744980 14.416512,178.343536 19.263288,185.688660 
	C28.830036,200.186752 37.425579,215.243317 48.690403,228.724899 
	C58.212521,240.120834 69.059593,249.946548 79.749825,259.998322 
	C85.359383,265.272797 92.223724,269.198639 98.410278,273.880341 
	C101.008026,275.846222 103.318123,278.192169 105.879486,280.682678 
	C96.312439,281.000000 86.624878,281.000000 76.468658,281.000000 
	C72.454094,276.960144 69.020210,272.814850 65.338997,268.902313 
	C57.618793,260.696899 50.557484,251.601761 41.763893,244.747177 
	C31.677244,236.884644 27.375158,226.225098 22.568533,215.360062 
	C21.064758,211.960907 18.405199,208.975601 15.885580,206.147537 
	C12.603726,202.463882 9.084846,199.200897 7.675313,194.056625 
	C7.202443,192.330826 3.785348,191.411713 1.356999,190.061951 
	C1.000000,180.312439 1.000000,170.624878 1.000000,160.468658 
z"/>
<path fill="#3C1D29" opacity="1.000000" stroke="none" 
	d="
M150.995010,200.520966 
	C148.879044,202.244858 146.923615,204.232559 144.613892,205.638046 
	C139.722015,208.614822 139.503250,210.640152 143.779510,214.194336 
	C149.907745,219.287796 155.879593,224.568893 161.958252,229.722641 
	C174.545380,240.394547 189.397232,247.110214 204.218765,253.888229 
	C209.799011,256.440125 215.511093,258.805725 220.790665,261.893097 
	C234.338516,269.815552 249.738037,271.460175 264.448669,275.483429 
	C268.651703,276.632935 272.592865,278.740112 276.827026,280.704071 
	C261.645782,281.000000 246.291550,281.000000 230.468658,281.000000 
	C223.002258,277.283936 216.018951,273.540375 209.003723,269.857605 
	C195.185608,262.603607 180.932236,256.067657 167.638672,247.956680 
	C154.351273,239.849457 141.958527,230.261368 129.302338,221.143707 
	C125.808380,218.626648 122.819191,215.418091 119.512886,212.628143 
	C117.302361,210.762833 117.513786,209.000687 119.403671,207.154572 
	C121.518990,205.088257 123.663887,203.052200 126.355438,200.644287 
	C130.943695,200.200317 134.972443,200.115067 139.453903,200.122284 
	C143.602753,200.316833 147.298889,200.418900 150.995010,200.520966 
z"/>
<path fill="#431E2C" opacity="1.000000" stroke="none" 
	d="
M12.000000,1.000000 
	C17.354929,1.000000 22.709860,1.000000 28.545382,1.418373 
	C31.132168,10.019368 33.391117,18.166248 35.315716,26.391361 
	C40.936413,50.412468 51.455742,72.366135 63.403496,93.738319 
	C65.442955,97.386520 68.341751,98.279510 72.242477,97.075340 
	C74.913460,96.250793 77.690453,95.769676 80.278320,95.457878 
	C76.861397,101.372261 73.586212,106.963799 70.017929,112.378502 
	C67.500511,112.874985 64.921707,113.049904 63.126621,114.326691 
	C59.531212,116.884018 57.400745,116.396858 55.187935,112.585800 
	C50.029945,103.702332 44.520603,95.023582 39.250755,86.203842 
	C37.979561,84.076347 36.832539,81.806770 36.058735,79.460609 
	C29.352964,59.128849 22.644814,38.796597 16.173885,18.389494 
	C14.376678,12.721707 13.369585,6.803382 12.000000,1.000000 
z"/>
<path fill="#3D1E2A" opacity="1.000000" stroke="none" 
	d="
M11.517044,1.000000 
	C13.369585,6.803382 14.376678,12.721707 16.173885,18.389494 
	C22.644814,38.796597 29.352964,59.128849 36.058735,79.460609 
	C36.832539,81.806770 37.979561,84.076347 39.250755,86.203842 
	C44.520603,95.023582 50.029945,103.702332 55.187935,112.585800 
	C57.400745,116.396858 59.531212,116.884018 63.126621,114.326691 
	C64.921707,113.049904 67.500511,112.874985 69.914055,112.728500 
	C68.695648,119.504967 67.288010,125.754601 65.880379,132.004227 
	C63.940022,133.763901 61.993156,135.516464 60.060730,137.284821 
	C56.645775,140.409805 54.395092,140.040207 52.269623,135.926437 
	C47.999149,127.661102 44.007839,119.239143 39.425270,111.151566 
	C36.088875,105.263321 30.930761,100.236565 28.434061,94.076256 
	C21.758717,77.605629 16.002159,60.758785 10.045170,44.002899 
	C7.875873,37.901077 6.252408,31.606907 4.197851,25.461359 
	C3.699080,23.969444 2.479798,22.718407 1.295910,21.178307 
	C1.000000,14.435173 1.000000,7.870345 1.000000,1.000000 
	C4.338670,1.000000 7.686379,1.000000 11.517044,1.000000 
z"/>
<path fill="#4A1F2E" opacity="1.000000" stroke="none" 
	d="
M80.420059,95.135040 
	C77.690453,95.769676 74.913460,96.250793 72.242477,97.075340 
	C68.341751,98.279510 65.442955,97.386520 63.403496,93.738319 
	C51.455742,72.366135 40.936413,50.412468 35.315716,26.391361 
	C33.391117,18.166248 31.132168,10.019368 29.012987,1.418373 
	C34.354931,1.000000 39.709858,1.000000 45.544777,1.411337 
	C47.761005,8.727403 49.198120,15.724251 51.290653,22.519258 
	C57.122665,41.457272 65.407364,59.354771 74.525902,76.923958 
	C77.031250,81.751152 80.270477,83.288864 85.250839,82.927551 
	C87.828377,82.740562 90.440926,83.036140 92.865509,83.404037 
	C88.602272,87.507919 84.511169,91.321480 80.420059,95.135040 
z"/>
<path fill="#913349" opacity="1.000000" stroke="none" 
	d="
M281.000000,118.545891 
	C270.785370,114.739281 259.713959,111.813019 250.543808,105.925468 
	C234.110184,95.374519 217.804092,84.166626 203.359909,71.113914 
	C190.798843,59.762905 180.439270,45.829700 169.973495,32.364010 
	C164.234268,24.979681 160.194122,16.254164 155.606049,8.011938 
	C154.602188,6.208551 154.526764,3.888333 154.011871,1.403066 
	C156.700012,1.000000 159.400024,1.000000 162.562622,1.394969 
	C163.644958,3.834701 164.032349,5.986881 164.920319,7.907642 
	C173.968414,27.479668 188.728333,42.741467 203.598373,57.725662 
	C213.166107,67.366837 223.705017,76.110878 234.294296,84.655106 
	C248.173691,95.854027 262.444489,106.627937 281.000000,109.000000 
	C281.000000,112.030594 281.000000,115.061188 281.000000,118.545891 
z"/>
<path fill="#461F2D" opacity="1.000000" stroke="none" 
	d="
M281.000000,264.541931 
	C268.704742,261.631989 256.063721,259.175720 244.197845,254.675537 
	C227.696304,248.417267 212.041092,239.918198 195.516556,233.732910 
	C183.767609,229.335220 175.985962,219.576691 165.128983,214.185333 
	C160.963318,212.116745 161.132477,207.883331 164.603607,204.759995 
	C165.795929,203.687134 166.759338,202.359894 168.370148,200.756836 
	C173.275604,200.255798 177.638260,200.146805 182.443649,200.126862 
	C185.589371,200.317490 188.292343,200.419067 190.889801,200.820679 
	C188.399704,202.819275 186.084442,204.627304 183.614624,206.191193 
	C179.744766,208.641571 179.375977,210.944061 182.729736,214.071335 
	C183.929901,215.190414 185.370117,216.116989 186.832260,216.879242 
	C194.051437,220.642822 201.297974,224.354996 208.566528,228.022507 
	C218.220276,232.893524 227.529419,238.792374 237.664139,242.281937 
	C251.780762,247.142502 266.524597,250.181427 281.000000,254.000000 
	C281.000000,257.361298 281.000000,260.722565 281.000000,264.541931 
z"/>
<path fill="#5D2335" opacity="1.000000" stroke="none" 
	d="
M281.000000,198.000000 
	C281.000000,204.021149 281.000000,210.042297 280.578857,216.526749 
	C274.230133,215.533890 268.045776,214.722260 262.429413,212.484818 
	C251.386337,208.085495 240.842789,202.410751 229.741898,198.184921 
	C221.076431,194.886215 216.433136,188.958054 213.863510,180.517426 
	C213.241943,178.475677 211.323776,176.828674 209.915955,174.592651 
	C210.530624,169.632309 208.385284,167.788788 203.908295,167.710571 
	C203.203888,164.921799 202.599426,162.492310 202.401642,159.984436 
	C205.206268,159.270599 207.604248,158.635147 210.270950,158.203064 
	C213.822281,163.097183 216.089584,169.437790 220.564255,172.191360 
	C239.350616,183.751831 258.823761,194.176453 281.000000,198.000000 
z"/>
<path fill="#532131" opacity="1.000000" stroke="none" 
	d="
M93.037651,83.113701 
	C90.440926,83.036140 87.828377,82.740562 85.250839,82.927551 
	C80.270477,83.288864 77.031250,81.751152 74.525902,76.923958 
	C65.407364,59.354771 57.122665,41.457272 51.290653,22.519258 
	C49.198120,15.724251 47.761005,8.727403 46.012383,1.411337 
	C50.689255,1.000000 55.378513,1.000000 60.587502,1.383341 
	C64.963577,13.635007 68.246254,25.731594 72.850273,37.302414 
	C76.829369,47.302662 82.681099,56.544292 86.977211,66.437332 
	C89.276772,71.732758 92.755135,73.610001 98.026848,74.048630 
	C100.735161,74.273972 103.368744,75.397598 105.834312,76.407860 
	C101.434242,78.838188 97.235947,80.975945 93.037651,83.113701 
z"/>
<path fill="#542132" opacity="1.000000" stroke="none" 
	d="
M210.001816,175.000153 
	C211.323776,176.828674 213.241943,178.475677 213.863510,180.517426 
	C216.433136,188.958054 221.076431,194.886215 229.741898,198.184921 
	C240.842789,202.410751 251.386337,208.085495 262.429413,212.484818 
	C268.045776,214.722260 274.230133,215.533890 280.578857,216.995026 
	C281.000000,222.354935 281.000000,227.709854 280.598022,233.504410 
	C270.560822,231.496277 260.639404,229.819611 251.372345,226.379974 
	C242.431366,223.061340 234.277512,217.680649 225.565552,213.666626 
	C219.328552,210.792938 212.941666,208.460251 210.938492,200.872650 
	C210.836105,200.484818 210.202469,200.237259 209.790359,199.461273 
	C209.680786,190.962845 209.597031,182.927536 209.633972,174.925735 
	C209.754669,174.959229 210.001816,175.000153 210.001816,175.000153 
z"/>
<path fill="#652538" opacity="1.000000" stroke="none" 
	d="
M281.000000,197.532394 
	C258.823761,194.176453 239.350616,183.751831 220.564255,172.191360 
	C216.089584,169.437790 213.822281,163.097183 210.186569,157.740875 
	C209.886383,149.716415 209.939301,142.357529 209.992218,134.998627 
	C211.343750,136.570709 213.555115,137.970520 213.910141,139.742294 
	C216.628143,153.306427 225.790741,160.625412 237.824188,165.402664 
	C249.683487,170.110794 261.498108,174.932556 273.387909,179.561752 
	C275.512543,180.388977 277.907776,180.521103 280.589050,180.987091 
	C281.000000,186.354935 281.000000,191.709854 281.000000,197.532394 
z"/>
<path fill="#A33D52" opacity="1.000000" stroke="none" 
	d="
M281.000000,74.000000 
	C281.000000,77.030594 281.000000,80.061188 280.597900,83.534058 
	C277.810364,83.321899 275.343140,82.875908 273.053101,81.978058 
	C261.240753,77.346764 250.108521,71.560791 239.959671,63.773796 
	C227.246155,54.018978 215.376923,43.440121 205.142532,31.099115 
	C202.071793,27.396303 199.033279,23.605837 196.501175,19.531612 
	C192.756454,13.506257 189.477356,7.191525 186.000000,1.000000 
	C189.361282,1.000000 192.722580,1.000000 196.568619,1.385571 
	C199.295959,5.936275 201.321777,10.239819 203.860504,14.215880 
	C205.444748,16.697060 208.542404,18.357737 209.685913,20.949219 
	C214.599777,32.085400 223.929245,39.471951 232.790314,46.615883 
	C247.238327,58.264084 262.886505,68.481636 281.000000,74.000000 
z"/>
<path fill="#652538" opacity="1.000000" stroke="none" 
	d="
M95.535347,1.000001 
	C101.160942,13.909259 106.111099,26.908737 111.579865,39.686249 
	C113.986519,45.309269 117.658180,50.377808 120.360847,55.891541 
	C122.328728,59.906242 125.216942,62.394440 129.315063,63.986828 
	C133.801468,65.730087 138.213913,67.723686 142.476898,69.955292 
	C144.450531,70.988457 145.993164,72.844971 147.468887,74.628799 
	C141.135696,73.923218 135.064835,72.917023 128.790421,71.637253 
	C124.130951,69.651741 119.598518,68.110817 115.247406,66.164551 
	C112.583458,64.972961 109.320877,63.748821 107.829132,61.529648 
	C98.046921,46.977356 90.390976,31.315598 85.193054,14.535021 
	C83.824699,10.117514 83.048256,5.516659 82.000000,1.000000 
	C86.356903,1.000000 90.713799,1.000000 95.535347,1.000001 
z"/>
<path fill="#9E3A4F" opacity="1.000000" stroke="none" 
	d="
M185.550018,1.000000 
	C189.477356,7.191525 192.756454,13.506257 196.501175,19.531612 
	C199.033279,23.605837 202.071793,27.396303 205.142532,31.099115 
	C215.376923,43.440121 227.246155,54.018978 239.959671,63.773796 
	C250.108521,71.560791 261.240753,77.346764 273.053101,81.978058 
	C275.343140,82.875908 277.810364,83.321899 280.597900,83.988159 
	C281.000000,86.700012 281.000000,89.400032 280.595215,92.537842 
	C278.094788,92.498260 275.971375,92.117668 273.908112,91.527100 
	C263.861664,88.651512 255.239609,83.101219 246.518967,77.513344 
	C219.756989,60.365208 197.629456,38.690720 180.908981,11.641268 
	C178.962311,8.492054 178.272491,4.565940 177.000000,1.000001 
	C179.700012,1.000000 182.400024,1.000000 185.550018,1.000000 
z"/>
<path fill="#4A1F2E" opacity="1.000000" stroke="none" 
	d="
M281.000000,253.550018 
	C266.524597,250.181427 251.780762,247.142502 237.664139,242.281937 
	C227.529419,238.792374 218.220276,232.893524 208.566528,228.022507 
	C201.297974,224.354996 194.051437,220.642822 186.832260,216.879242 
	C185.370117,216.116989 183.929901,215.190414 182.729736,214.071335 
	C179.375977,210.944061 179.744766,208.641571 183.614624,206.191193 
	C186.084442,204.627304 188.399704,202.819275 191.344910,200.742004 
	C195.602631,200.415955 199.299683,200.468597 202.920654,200.837982 
	C202.257584,202.137039 201.834778,203.279373 201.057785,204.076416 
	C194.700668,210.597366 195.172440,212.130096 203.835388,215.785965 
	C212.382828,219.393066 221.562790,222.269104 229.029053,227.511368 
	C244.810196,238.591675 263.598419,239.482147 281.000000,245.000000 
	C281.000000,247.700012 281.000000,250.400024 281.000000,253.550018 
z"/>
<path fill="#4D2030" opacity="1.000000" stroke="none" 
	d="
M281.000000,244.541931 
	C263.598419,239.482147 244.810196,238.591675 229.029053,227.511368 
	C221.562790,222.269104 212.382828,219.393066 203.835388,215.785965 
	C195.172440,212.130096 194.700668,210.597366 201.057785,204.076416 
	C201.834778,203.279373 202.257584,202.137039 203.343979,200.763031 
	C205.834335,200.222366 207.825241,200.073380 209.816162,199.924408 
	C210.202469,200.237259 210.836105,200.484818 210.938492,200.872650 
	C212.941666,208.460251 219.328552,210.792938 225.565552,213.666626 
	C234.277512,217.680649 242.431366,223.061340 251.372345,226.379974 
	C260.639404,229.819611 270.560822,231.496277 280.598022,233.972015 
	C281.000000,237.361282 281.000000,240.722580 281.000000,244.541931 
z"/>
<path fill="#99374D" opacity="1.000000" stroke="none" 
	d="
M176.571533,1.000001 
	C178.272491,4.565940 178.962311,8.492054 180.908981,11.641268 
	C197.629456,38.690720 219.756989,60.365208 246.518967,77.513344 
	C255.239609,83.101219 263.861664,88.651512 273.908112,91.527100 
	C275.971375,92.117668 278.094788,92.498260 280.595215,92.987816 
	C281.000000,96.030594 281.000000,99.061188 280.639099,102.453903 
	C266.749481,99.234344 255.232986,92.138771 243.737289,84.189713 
	C220.795120,68.325668 200.978119,49.487118 184.152283,27.403736 
	C178.124817,19.492884 171.918030,11.523320 171.000000,1.000000 
	C172.714355,1.000000 174.428711,1.000000 176.571533,1.000001 
z"/>
<path fill="#95354B" opacity="1.000000" stroke="none" 
	d="
M170.555832,1.000000 
	C171.918030,11.523320 178.124817,19.492884 184.152283,27.403736 
	C200.978119,49.487118 220.795120,68.325668 243.737289,84.189713 
	C255.232986,92.138771 266.749481,99.234344 280.639099,102.908005 
	C281.000000,104.714355 281.000000,106.428719 281.000000,108.571533 
	C262.444489,106.627937 248.173691,95.854027 234.294296,84.655106 
	C223.705017,76.110878 213.166107,67.366837 203.598373,57.725662 
	C188.728333,42.741467 173.968414,27.479668 164.920319,7.907642 
	C164.032349,5.986881 163.644958,3.834701 163.012604,1.394969 
	C165.370560,1.000000 167.741104,1.000000 170.555832,1.000000 
z"/>
<path fill="#A84154" opacity="1.000000" stroke="none" 
	d="
M281.000000,73.550018 
	C262.886505,68.481636 247.238327,58.264084 232.790314,46.615883 
	C223.929245,39.471951 214.599777,32.085400 209.685913,20.949219 
	C208.542404,18.357737 205.444748,16.697060 203.860504,14.215880 
	C201.321777,10.239819 199.295959,5.936275 197.026688,1.385571 
	C200.030594,1.000000 203.061188,1.000000 206.661102,1.328117 
	C223.431549,32.540276 248.890991,52.642143 281.000000,65.000000 
	C281.000000,67.700012 281.000000,70.400032 281.000000,73.550018 
z"/>
<path fill="#592234" opacity="1.000000" stroke="none" 
	d="
M106.036095,76.115295 
	C103.368744,75.397598 100.735161,74.273972 98.026848,74.048630 
	C92.755135,73.610001 89.276772,71.732758 86.977211,66.437332 
	C82.681099,56.544292 76.829369,47.302662 72.850273,37.302414 
	C68.246254,25.731594 64.963577,13.635007 61.053619,1.383341 
	C64.361290,1.000000 67.722572,1.000000 71.546860,1.423053 
	C74.744980,11.373455 76.638618,21.251928 80.430122,30.338482 
	C85.076202,41.473057 91.383064,51.908466 96.818703,62.723152 
	C98.702087,66.470314 101.421448,68.375046 105.563232,69.211502 
	C109.157974,69.937485 112.532608,71.753372 115.690002,73.276665 
	C112.262352,74.348930 109.149223,75.232117 106.036095,76.115295 
z"/>
<path fill="#B14A5A" opacity="1.000000" stroke="none" 
	d="
M226.000000,1.000002 
	C230.356903,1.000000 234.713806,1.000000 239.596985,1.350467 
	C241.508499,3.714921 242.590347,6.053232 244.333878,7.684161 
	C250.393402,13.352330 256.230347,19.437378 263.029114,24.079006 
	C268.344513,27.707899 274.961395,29.430418 281.000000,32.000000 
	C281.000000,36.356899 281.000000,40.713799 280.599548,45.523575 
	C273.788788,43.385597 267.308990,40.952751 260.983856,38.168438 
	C250.363312,33.493259 243.165848,24.510248 235.384827,16.515076 
	C231.278229,12.295486 229.066986,6.231336 226.000000,1.000002 
z"/>
<path fill="#5D2335" opacity="1.000000" stroke="none" 
	d="
M116.004517,73.087570 
	C112.532608,71.753372 109.157974,69.937485 105.563232,69.211502 
	C101.421448,68.375046 98.702087,66.470314 96.818703,62.723152 
	C91.383064,51.908466 85.076202,41.473057 80.430122,30.338482 
	C76.638618,21.251928 74.744980,11.373455 72.004929,1.423053 
	C75.030594,1.000000 78.061188,1.000000 81.545891,1.000000 
	C83.048256,5.516659 83.824699,10.117514 85.193054,14.535021 
	C90.390976,31.315598 98.046921,46.977356 107.829132,61.529648 
	C109.320877,63.748821 112.583458,64.972961 115.247406,66.164551 
	C119.598518,68.110817 124.130951,69.651741 128.358093,71.703865 
	C124.087700,72.391891 120.046104,72.739731 116.004517,73.087570 
z"/>
<path fill="#B74E5C" opacity="1.000000" stroke="none" 
	d="
M281.000000,31.531342 
	C274.961395,29.430418 268.344513,27.707899 263.029114,24.079006 
	C256.230347,19.437378 250.393402,13.352330 244.333878,7.684161 
	C242.590347,6.053232 241.508499,3.714921 240.061646,1.350467 
	C253.583084,1.000000 267.166168,1.000000 281.000000,1.000000 
	C281.000000,11.019503 281.000000,21.041094 281.000000,31.531342 
z"/>
<path fill="#AE4658" opacity="1.000000" stroke="none" 
	d="
M225.539368,1.000002 
	C229.066986,6.231336 231.278229,12.295486 235.384827,16.515076 
	C243.165848,24.510248 250.363312,33.493259 260.983856,38.168438 
	C267.308990,40.952751 273.788788,43.385597 280.599548,45.988228 
	C281.000000,49.030594 281.000000,52.061188 280.626740,55.490185 
	C271.560120,51.806557 262.474945,48.373779 254.296875,43.437969 
	C247.702133,39.457760 241.775009,34.085510 236.322281,28.569162 
	C228.999161,21.160608 222.371994,13.058190 215.573059,5.144523 
	C214.667526,4.090513 214.506042,2.397236 214.000000,1.000000 
	C217.692902,1.000000 221.385818,1.000000 225.539368,1.000002 
z"/>
<path fill="#AC4356" opacity="1.000000" stroke="none" 
	d="
M213.562500,1.000000 
	C214.506042,2.397236 214.667526,4.090513 215.573059,5.144523 
	C222.371994,13.058190 228.999161,21.160608 236.322281,28.569162 
	C241.775009,34.085510 247.702133,39.457760 254.296875,43.437969 
	C262.474945,48.373779 271.560120,51.806557 280.626740,55.944294 
	C281.000000,58.700016 281.000000,61.400028 281.000000,64.550018 
	C248.890991,52.642143 223.431549,32.540276 207.115219,1.328117 
	C209.041672,1.000000 211.083328,1.000000 213.562500,1.000000 
z"/>
<path fill="#FA356D" opacity="1.000000" stroke="none" 
	d="
M115.690002,73.276657 
	C120.046104,72.739731 124.087700,72.391891 128.561615,71.977448 
	C135.064835,72.917023 141.135696,73.923218 147.601837,74.936935 
	C160.623230,79.419876 171.745087,86.275688 179.284302,97.492874 
	C183.562363,103.857956 186.366760,111.213493 189.440170,118.526436 
	C186.360596,119.001884 183.675674,119.073868 180.525787,119.087677 
	C173.242615,119.005798 166.413284,119.190643 159.613220,118.827446 
	C157.650681,118.722641 155.640121,117.236763 153.881485,116.044838 
	C149.557404,113.114120 145.366959,109.986198 140.816437,106.690552 
	C132.948929,104.249359 125.400719,103.016960 117.551483,106.802261 
	C112.996185,110.169258 108.808723,113.481628 104.373596,117.017296 
	C96.194862,127.531204 95.718117,138.854904 100.889748,150.139389 
	C105.968124,161.220398 115.078903,167.594757 127.530510,168.227493 
	C134.675644,168.590591 141.846695,168.443161 148.972183,168.864288 
	C147.150803,171.658066 145.665436,174.423691 143.519821,176.510483 
	C136.801529,183.044586 129.791626,189.278015 123.010391,195.749161 
	C122.018318,196.695877 121.655846,198.302338 121.002045,199.603531 
	C89.811371,195.537598 66.156937,168.760620 66.058632,137.409790 
	C66.053947,135.914505 66.030556,134.419266 65.948128,132.464111 
	C67.288010,125.754601 68.695648,119.504967 70.207153,112.905334 
	C73.586212,106.963799 76.861397,101.372261 80.278328,95.457886 
	C84.511169,91.321480 88.602272,87.507919 92.865509,83.404037 
	C97.235947,80.975945 101.434242,78.838188 105.834312,76.407867 
	C109.149223,75.232117 112.262352,74.348930 115.690002,73.276657 
z"/>
<path fill="#FC3B6D" opacity="1.000000" stroke="none" 
	d="
M121.406540,199.724976 
	C121.655846,198.302338 122.018318,196.695877 123.010391,195.749161 
	C129.791626,189.278015 136.801529,183.044586 143.519821,176.510483 
	C145.665436,174.423691 147.150803,171.658066 149.419296,168.806824 
	C152.602463,168.297363 155.304596,168.184128 158.455658,168.170227 
	C162.270920,168.354782 165.637253,168.440002 168.930664,168.841644 
	C167.497772,171.001999 166.379822,173.104401 164.735229,174.644394 
	C158.196274,180.767487 151.407379,186.624542 144.897476,192.777359 
	C142.652557,194.899139 140.950974,197.595779 139.001175,200.029816 
	C134.972443,200.115067 130.943695,200.200317 126.453888,200.338409 
	C124.598892,200.209625 123.204956,200.028015 121.406540,199.724976 
z"/>
<path fill="#FA356D" opacity="1.000000" stroke="none" 
	d="
M209.912064,134.573151 
	C209.939301,142.357529 209.886383,149.716415 209.917847,157.537506 
	C207.604248,158.635147 205.206268,159.270599 201.937683,159.915161 
	C192.710724,159.969955 184.354340,160.015671 175.534241,159.988876 
	C168.514740,159.891891 161.959000,159.858551 155.403214,159.848328 
	C153.424774,159.845230 151.480942,159.877930 153.360901,156.816711 
	C158.795273,149.972397 161.686783,142.597260 160.769547,133.625275 
	C160.644363,131.623856 160.481873,130.015366 160.207825,127.302544 
	C168.694504,127.302544 176.874939,127.302544 185.508865,127.410202 
	C191.002930,127.451057 196.043503,127.384247 201.084091,127.317429 
	C201.904495,127.432846 202.760361,127.759972 203.539612,127.629539 
	C208.861191,126.738747 210.411652,129.392517 209.912064,134.573151 
z"/>
<path fill="#652538" opacity="1.000000" stroke="none" 
	d="
M200.917496,126.999725 
	C196.043503,127.384247 191.002930,127.451057 185.390900,127.066429 
	C183.543243,124.125275 182.266998,121.635559 180.990768,119.145844 
	C183.675674,119.073868 186.360596,119.001884 189.490540,118.891312 
	C193.540695,121.462486 197.145798,124.072258 200.917496,126.999725 
z"/>
<path fill="#FD436D" opacity="1.000000" stroke="none" 
	d="
M139.453903,200.122284 
	C140.950974,197.595779 142.652557,194.899139 144.897476,192.777359 
	C151.407379,186.624542 158.196274,180.767487 164.735229,174.644394 
	C166.379822,173.104401 167.497772,171.001999 169.382278,168.788330 
	C172.940826,168.306015 175.974838,168.193436 179.457855,168.178864 
	C183.271408,168.359299 186.635971,168.441696 189.965607,168.862701 
	C189.208725,170.653320 188.812820,172.447845 187.708939,173.498642 
	C182.663132,178.301880 177.265060,182.739822 172.294312,187.615616 
	C168.306046,191.527725 164.749496,195.879929 161.001358,200.036835 
	C157.964783,200.143677 154.928207,200.250519 151.443329,200.439148 
	C147.298889,200.418900 143.602753,200.316833 139.453903,200.122284 
z"/>
<path fill="#FB4A6B" opacity="1.000000" stroke="none" 
	d="
M161.430954,200.129181 
	C164.749496,195.879929 168.306046,191.527725 172.294312,187.615616 
	C177.265060,182.739822 182.663132,178.301880 187.708939,173.498642 
	C188.812820,172.447845 189.208725,170.653320 190.427536,168.809525 
	C195.285675,168.301788 199.646973,168.185822 204.008255,168.069855 
	C208.385284,167.788788 210.530624,169.632309 209.915955,174.592651 
	C210.001816,175.000153 209.754669,174.959229 209.294556,174.977509 
	C204.463196,178.405228 199.805878,181.511856 195.793976,185.301697 
	C190.912338,189.913147 186.574173,195.099930 182.000916,200.037827 
	C177.638260,200.146805 173.275604,200.255798 168.453796,200.443054 
	C165.949936,200.421371 163.905243,200.321442 161.430954,200.129181 
z"/>
<path fill="#FC526C" opacity="1.000000" stroke="none" 
	d="
M182.443649,200.126862 
	C186.574173,195.099930 190.912338,189.913147 195.793976,185.301697 
	C199.805878,181.511856 204.463196,178.405228 209.173874,174.944031 
	C209.597031,182.927536 209.680786,190.962845 209.790344,199.461273 
	C207.825241,200.073380 205.834335,200.222366 203.420074,200.446304 
	C199.299683,200.468597 195.602631,200.415955 191.450439,200.441986 
	C188.292343,200.419067 185.589371,200.317490 182.443649,200.126862 
z"/>
<path fill="#532131" opacity="1.000000" stroke="none" 
	d="
M203.908295,167.710571 
	C199.646973,168.185822 195.285675,168.301788 190.462463,168.470917 
	C186.635971,168.441696 183.271408,168.359299 179.337982,167.844269 
	C177.845383,164.961578 176.921677,162.511490 175.997971,160.061401 
	C184.354340,160.015671 192.710724,159.969955 201.531036,159.993530 
	C202.599426,162.492310 203.203888,164.921799 203.908295,167.710571 
z"/>
<path fill="#542132" opacity="1.000000" stroke="none" 
	d="
M160.732239,134.018188 
	C161.686783,142.597260 158.795273,149.972397 152.900757,156.819336 
	C144.567993,158.091476 138.785995,155.308151 133.838943,149.483841 
	C128.378296,143.054825 122.316711,137.135513 116.503212,131.007156 
	C111.430321,125.659500 110.855118,121.399780 114.205322,114.829224 
	C115.550896,112.190216 116.687569,109.444687 117.919327,106.747635 
	C125.400719,103.016960 132.948929,104.249359 140.470032,106.831787 
	C138.083572,108.056007 135.507416,108.525200 133.446198,109.816422 
	C130.570923,111.617592 126.347664,114.248619 129.216339,117.926170 
	C134.680603,124.931198 141.059128,131.269333 147.497925,137.424210 
	C148.623474,138.500122 151.999252,137.677917 154.160858,137.089676 
	C156.459686,136.464081 158.550552,135.074295 160.732239,134.018188 
z"/>
<path fill="#4C1F2F" opacity="1.000000" stroke="none" 
	d="
M117.551491,106.802261 
	C116.687569,109.444687 115.550896,112.190216 114.205322,114.829224 
	C110.855118,121.399780 111.430321,125.659500 116.503212,131.007156 
	C122.316711,137.135513 128.378296,143.054825 133.838943,149.483841 
	C138.785995,155.308151 144.567993,158.091476 152.611389,156.993927 
	C151.480942,159.877930 153.424774,159.845230 155.403214,159.848328 
	C161.959000,159.858551 168.514740,159.891891 175.534241,159.988876 
	C176.921677,162.511490 177.845383,164.961578 178.888977,167.746262 
	C175.974838,168.193436 172.940826,168.306015 169.455200,168.471893 
	C165.637253,168.440002 162.270920,168.354782 158.231766,167.888550 
	C155.418655,166.742661 153.325943,165.781540 151.129364,165.248672 
	C143.746704,163.457703 136.127625,162.411957 128.962509,160.000824 
	C113.410713,154.767456 103.837418,138.855042 105.505447,122.518661 
	C105.695236,120.659912 104.938889,118.704567 104.621254,116.794006 
	C108.808723,113.481628 112.996185,110.169258 117.551491,106.802261 
z"/>
<path fill="#5D2335" opacity="1.000000" stroke="none" 
	d="
M160.769547,133.625275 
	C158.550552,135.074295 156.459686,136.464081 154.160858,137.089676 
	C151.999252,137.677917 148.623474,138.500122 147.497925,137.424210 
	C141.059128,131.269333 134.680603,124.931198 129.216339,117.926170 
	C126.347664,114.248619 130.570923,111.617592 133.446198,109.816422 
	C135.507416,108.525200 138.083572,108.056007 140.776382,107.078827 
	C145.366959,109.986198 149.557404,113.114120 153.881485,116.044838 
	C155.640121,117.236763 157.650681,118.722641 159.613220,118.827446 
	C166.413284,119.190643 173.242615,119.005798 180.525787,119.087677 
	C182.266998,121.635559 183.543243,124.125275 184.937439,126.958771 
	C176.874939,127.302544 168.694504,127.302544 160.207825,127.302544 
	C160.481873,130.015366 160.644363,131.623856 160.769547,133.625275 
z"/>
<path fill="#461F2D" opacity="1.000000" stroke="none" 
	d="
M104.373596,117.017296 
	C104.938889,118.704567 105.695236,120.659912 105.505447,122.518661 
	C103.837418,138.855042 113.410713,154.767456 128.962509,160.000824 
	C136.127625,162.411957 143.746704,163.457703 151.129364,165.248672 
	C153.325943,165.781540 155.418655,166.742661 157.782837,167.789215 
	C155.304596,168.184128 152.602463,168.297363 149.453201,168.468079 
	C141.846695,168.443161 134.675644,168.590591 127.530510,168.227493 
	C115.078903,167.594757 105.968124,161.220398 100.889748,150.139389 
	C95.718117,138.854904 96.194862,127.531204 104.373596,117.017296 
z"/>
</svg>
