<?xml version="1.0" encoding="UTF-8"?>
<svg xmlns="http://www.w3.org/2000/svg" xmlns:xlink="http://www.w3.org/1999/xlink" width="250px" height="250px" viewBox="0 0 250 250" version="1.1">
<g id="surface1">
<path style=" stroke:none;fill-rule:nonzero;fill:rgb(8.627451%,8.627451%,8.627451%);fill-opacity:1;" d="M 152.90625 124.996094 C 152.90625 108.554688 139.582031 95.230469 123.140625 95.230469 C 106.703125 95.230469 93.375 108.554688 93.375 124.996094 C 93.375 141.433594 106.703125 154.761719 123.140625 154.761719 C 139.582031 154.761719 152.90625 141.433594 152.90625 124.996094 Z M 152.90625 124.996094 "/>
<path style=" stroke:none;fill-rule:nonzero;fill:rgb(8.627451%,8.627451%,8.627451%);fill-opacity:1;" d="M 123.140625 0 C 64.894531 0 15.960938 39.839844 2.082031 93.746094 C 1.875 98.5 4.535156 101.183594 7.828125 101.183594 L 58.234375 101.183594 C 60.566406 101.191406 62.679688 99.824219 63.632812 97.695312 C 63.632812 97.695312 63.707031 97.550781 63.738281 97.476562 C 74.132812 75.058594 96.820312 59.5 123.164062 59.5 C 159.328125 59.5 188.648438 88.808594 188.648438 124.972656 C 188.648438 161.140625 159.339844 190.449219 123.171875 190.449219 C 96.84375 190.449219 74.152344 174.886719 63.75 152.472656 C 63.71875 152.394531 63.640625 152.253906 63.640625 152.253906 C 62.683594 150.136719 60.566406 148.765625 58.246094 148.765625 L 7.839844 148.765625 C 4.546875 148.765625 1.886719 151.425781 1.886719 154.71875 C 15.972656 210.105469 64.917969 249.945312 123.152344 249.945312 C 192.191406 249.933594 248.253906 193.980469 248.253906 124.953125 C 248.253906 55.921875 192.289062 -0.0429688 123.261719 -0.0429688 Z M 123.140625 0 "/>
</g>
</svg>
