<svg width="168.4" height="35.8" viewBox="0 0 842 179" xmlns="http://www.w3.org/2000/svg" xmlns:xlink="http://www.w3.org/1999/xlink"><defs><path id="a" d="M.06.529h841.83V178.94H.06z"/></defs><g fill="none" fill-rule="evenodd"><mask id="b" fill="#fff"><use xlink:href="#a"/></mask><path fill="#D9252A" mask="url(#b)" d="M112.97 58.348H0v33.794h128.574V58.348H112.97M111.616 116.693H0v33.794h16.958v-.001h94.658v.001h16.958v-33.794h-16.958M566.017 146.261h-50.69c-8.447 0-13.465-4.492-13.465-12.677 0-8.181 5.018-12.668 13.465-12.668h50.69v25.345zM542.521 29.045h-46.878v-.001h-20.734v33.791h20.734v-.001h44.761c20.032 0 25.448 7.694 25.603 25.346H513.74c-30.887 0-47.784 15.84-47.784 45.404 0 29.31 16.897 45.414 47.784 45.414h82.11l.032-.002h6.566v-92.13c0-39.079-14.785-57.821-59.927-57.821zM732.45 145.204h-42.503c-22.97 0-31.424-11.086-31.424-41.181 0-30.094 8.454-41.185 31.424-41.185h41.973l.065-.003h6.556V29.044h-52.293c-46.724 0-64.681 23.233-64.681 74.979 0 51.742 17.957 74.973 64.681 74.973h52.796v-33.791h-6.562l-.032-.001M269.888 145.205h-39.992c-19.092 0-27.963-6.758-30.417-23.753h59.03v.022h20.732v-6.021c.014-.2.026-.401.026-.609V94.253c0-.207-.012-.409-.026-.609v-5.961h-5.827a8.685 8.685 0 0 0-.747-.033h-73.324c2.254-17.607 11.101-24.815 30.553-24.815h60.194V29.044h-18.099v.003h-45.789c-46.733 0-64.677 23.228-64.677 74.973 0 51.741 17.944 74.979 64.677 74.979h57.819c.022 0 .043-.002.065-.003h6.535v-33.791h-20.733M835.286 145.205H805.98c-7.125 0-11.358-5.012-11.358-13.99v-68.38h44.091V29.047h-44.091V.529h-36.426v133.323c0 30.894 14.521 45.147 44.616 45.147h32.474l.066-.003h6.538v-33.791h-6.604M456.904 172.136l-53.323-70.381 49.893-65.848v-.001l5.199-6.862h-42.787l-3.597 4.749-.001.001-30.095 39.725-30.1-39.725-.001-.002-3.598-4.748h-44.367l55.879 73.758-57.729 76.197 14.575-.003h28.211l3.598-4.747.002-.002 32.737-43.209 32.738 43.209v.001l3.598 4.748h44.367l-5.199-6.86"/></g></svg>