<svg version="1.1" id="Layer_1" xmlns="http://www.w3.org/2000/svg" xmlns:xlink="http://www.w3.org/1999/xlink" x="0px" y="0px"
	 width="100%" viewBox="0 0 225 225" enable-background="new 0 0 225 225" xml:space="preserve">
<path fill="#FFFEFE" opacity="1.000000" stroke="none" 
	d="
M9.000000,1.000000 
	C81.250420,1.000000 153.500839,1.000000 226.000000,1.000000 
	C226.000000,55.687309 226.000000,110.375000 225.688965,165.365265 
	C221.845108,155.928223 214.109482,150.047073 205.414886,150.646103 
	C201.980347,150.882721 198.542053,151.271667 195.147430,151.841309 
	C185.963730,153.382339 176.805344,155.073608 167.631760,156.675720 
	C153.563675,159.132614 139.490601,161.560852 125.420990,164.008926 
	C117.255272,165.429733 109.108673,166.970673 100.921906,168.256485 
	C95.736732,169.070862 92.034309,166.472809 91.130302,161.361115 
	C85.341766,128.630020 79.605721,95.889503 73.935638,63.137684 
	C72.737740,56.218330 74.896332,53.196846 81.761459,51.974842 
	C113.994339,46.237358 146.236679,40.552929 178.482239,34.887066 
	C185.639267,33.629509 188.795364,35.811169 190.041519,42.775948 
	C195.338821,72.383041 200.611908,101.994476 205.889023,131.605179 
	C206.902023,137.289291 209.482208,139.744446 213.777176,139.075043 
	C217.896286,138.433044 219.787216,134.808640 218.813553,129.279388 
	C213.538528,99.323517 208.281479,69.364418 202.947342,39.419056 
	C200.727478,26.956970 190.226913,19.575397 177.826172,21.653498 
	C169.952957,22.972883 162.074478,24.281788 154.242233,25.818903 
	C146.523514,27.333733 138.905579,29.393129 131.160324,30.733427 
	C122.438400,32.242741 113.589241,33.011101 104.858948,34.479462 
	C96.272545,35.923626 87.822227,38.241383 79.210686,39.456257 
	C66.636642,41.230148 58.584652,51.030746 60.669052,63.353458 
	C64.771378,87.605927 68.754738,111.886589 73.436005,136.029800 
	C75.959702,149.045532 75.881462,162.744690 82.391350,174.213989 
	C76.425346,173.842728 70.242371,173.457962 63.712322,173.051605 
	C63.653542,172.852158 63.344872,172.084549 63.204105,171.287277 
	C54.474609,121.846230 45.752487,72.403877 37.047668,22.958475 
	C35.491318,14.118051 30.549177,8.240561 22.003572,5.405890 
	C17.659840,3.965025 13.333954,2.470350 9.000000,1.000000 
M133.226273,69.779915 
	C127.971924,70.488472 122.704727,71.116394 117.470406,71.950607 
	C115.705971,72.231812 113.163551,72.543900 112.496246,73.710831 
	C111.329208,75.751640 110.498039,78.676102 111.044891,80.847893 
	C111.927452,84.352959 115.168076,85.316628 118.655800,84.731003 
	C123.887482,83.852562 129.111923,82.929558 134.333008,81.989876 
	C141.678055,80.667915 149.051971,79.475281 156.345367,77.909737 
	C160.476120,77.023064 162.369461,72.786064 160.842636,68.909737 
	C159.562347,65.659256 155.623383,64.300735 152.093811,65.734032 
	C151.033112,66.164764 149.765747,66.056946 148.616211,66.303680 
	C143.717514,67.355141 138.827484,68.447014 133.226273,69.779915 
z"/>
<path fill="#E63C3E" opacity="1.000000" stroke="none" 
	d="
M8.505266,1.000000 
	C13.333954,2.470350 17.659840,3.965025 22.003572,5.405890 
	C30.549177,8.240561 35.491318,14.118051 37.047668,22.958475 
	C45.752487,72.403877 54.474609,121.846230 63.204105,171.287277 
	C63.344872,172.084549 63.653542,172.852158 63.712322,173.051605 
	C70.242371,173.457962 76.425346,173.842728 82.391350,174.213989 
	C75.881462,162.744690 75.959702,149.045532 73.436005,136.029800 
	C68.754738,111.886589 64.771378,87.605927 60.669052,63.353458 
	C58.584652,51.030746 66.636642,41.230148 79.210686,39.456257 
	C87.822227,38.241383 96.272545,35.923626 104.858948,34.479462 
	C113.589241,33.011101 122.438400,32.242741 131.160324,30.733427 
	C138.905579,29.393129 146.523514,27.333733 154.242233,25.818903 
	C162.074478,24.281788 169.952957,22.972883 177.826172,21.653498 
	C190.226913,19.575397 200.727478,26.956970 202.947342,39.419056 
	C208.281479,69.364418 213.538528,99.323517 218.813553,129.279388 
	C219.787216,134.808640 217.896286,138.433044 213.777176,139.075043 
	C209.482208,139.744446 206.902023,137.289291 205.889023,131.605179 
	C200.611908,101.994476 195.338821,72.383041 190.041519,42.775948 
	C188.795364,35.811169 185.639267,33.629509 178.482239,34.887066 
	C146.236679,40.552929 113.994339,46.237358 81.761459,51.974842 
	C74.896332,53.196846 72.737740,56.218330 73.935638,63.137684 
	C79.605721,95.889503 85.341766,128.630020 91.130302,161.361115 
	C92.034309,166.472809 95.736732,169.070862 100.921906,168.256485 
	C109.108673,166.970673 117.255272,165.429733 125.420990,164.008926 
	C139.490601,161.560852 153.563675,159.132614 167.631760,156.675720 
	C176.805344,155.073608 185.963730,153.382339 195.147430,151.841309 
	C198.542053,151.271667 201.980347,150.882721 205.414886,150.646103 
	C214.109482,150.047073 221.845108,155.928223 225.688965,165.833923 
	C226.000000,169.361282 226.000000,172.722580 225.686340,176.703949 
	C222.317551,187.074722 215.151825,191.418594 205.507080,193.047699 
	C183.220169,196.812180 160.984863,200.880981 138.715057,204.748123 
	C124.486710,207.218872 110.234116,209.549942 96.000633,211.540436 
	C96.667885,208.616867 97.513245,206.127625 97.941063,203.568558 
	C98.541893,199.974655 97.311935,198.190521 93.280449,199.345764 
	C90.613739,200.109924 87.831551,200.471054 85.037758,200.607788 
	C84.364159,189.592010 78.109138,185.195663 66.038132,186.901581 
	C65.013809,182.858353 64.340279,179.053574 63.537453,174.518463 
	C60.976387,175.706207 59.019672,176.466934 57.213310,177.492493 
	C55.392757,178.526093 53.721516,179.822693 51.780655,180.675476 
	C51.256893,178.548965 50.936451,176.751175 50.617886,174.953064 
	C42.094269,126.841537 33.341297,78.768448 25.265743,30.581837 
	C23.864769,22.222254 20.504108,17.944191 12.465679,15.977218 
	C8.399707,14.982290 4.806797,12.054103 1.000000,10.000000 
	C1.000000,7.088994 1.000000,4.177988 1.000000,1.000000 
	C3.333536,1.000000 5.672035,1.000000 8.505266,1.000000 
M97.546967,196.214279 
	C97.664200,196.468567 97.781433,196.722855 98.259979,197.717804 
	C99.049713,197.828323 99.875000,198.146240 100.623772,198.017853 
	C109.802246,196.444244 118.950287,194.684174 128.146301,193.225037 
	C134.436707,192.226959 140.838089,191.894562 147.102707,190.776306 
	C154.722549,189.416092 162.205215,187.279694 169.830338,185.958847 
	C179.208694,184.334335 188.697693,183.353775 198.086990,181.784500 
	C201.576813,181.201233 205.065002,180.059631 208.290878,178.593704 
	C211.800629,176.998825 213.543121,173.821899 212.609665,169.955765 
	C211.656525,166.008041 208.959549,163.633453 204.692368,163.684219 
	C202.873322,163.705856 201.045380,164.028198 199.244293,164.344070 
	C182.708664,167.244049 166.223373,170.467590 149.634155,173.015854 
	C130.296722,175.986282 111.355614,181.652756 92.663155,181.528580 
	C94.345810,186.234543 96.097679,191.134064 97.546967,196.214279 
z"/>
<path fill="#FFFEFE" opacity="1.000000" stroke="none" 
	d="
M1.000000,10.468657 
	C4.806797,12.054103 8.399707,14.982290 12.465679,15.977218 
	C20.504108,17.944191 23.864769,22.222254 25.265743,30.581837 
	C33.341297,78.768448 42.094269,126.841537 50.617886,174.953064 
	C50.936451,176.751175 51.256893,178.548965 51.714760,180.987610 
	C51.520851,182.399139 51.188648,183.169952 50.555317,184.107086 
	C41.063034,199.400269 46.233147,217.229660 61.730949,223.744156 
	C63.775463,224.603561 65.908150,225.253204 68.000000,226.000000 
	C45.701233,226.000000 23.402464,226.000000 1.000000,226.000000 
	C1.000000,154.312469 1.000000,82.624893 1.000000,10.468657 
z"/>
<path fill="#FFFEFE" opacity="1.000000" stroke="none" 
	d="
M95.992401,211.943634 
	C110.234116,209.549942 124.486710,207.218872 138.715057,204.748123 
	C160.984863,200.880981 183.220169,196.812180 205.507080,193.047699 
	C215.151825,191.418594 222.317551,187.074722 225.686340,177.162018 
	C226.000000,193.297531 226.000000,209.595062 226.000000,226.000000 
	C175.979156,226.000000 125.958237,226.000000 75.479507,225.775452 
	C75.021690,225.550903 75.113022,225.110657 75.510468,225.070984 
	C83.385551,224.284378 89.150558,220.767975 93.405525,214.203003 
	C94.446365,213.334167 95.219383,212.638901 95.992401,211.943634 
z"/>
<path fill="#E63B3D" opacity="1.000000" stroke="none" 
	d="
M93.137703,214.376572 
	C89.150558,220.767975 83.385551,224.284378 75.097595,225.030014 
	C72.524849,225.352478 70.762421,225.676239 69.000000,226.000000 
	C69.000000,226.000000 68.500000,226.000000 68.250000,226.000000 
	C65.908150,225.253204 63.775463,224.603561 61.730949,223.744156 
	C46.233147,217.229660 41.063034,199.400269 50.848053,184.294510 
	C54.389320,187.111771 57.336723,189.907959 60.229290,193.077271 
	C57.139702,202.422501 60.647861,209.941238 68.779739,212.035782 
	C74.714455,213.564392 79.061356,210.906509 83.080246,207.194550 
	C84.518547,212.712509 89.848091,212.070343 93.137703,214.376572 
z"/>
<path fill="#EF8C8D" opacity="1.000000" stroke="none" 
	d="
M69.428467,226.000000 
	C70.762421,225.676239 72.524849,225.352478 74.700150,225.069687 
	C75.113022,225.110657 75.021690,225.550903 75.010849,225.775452 
	C73.285645,226.000000 71.571281,226.000000 69.428467,226.000000 
z"/>
<path fill="#F9B321" opacity="1.000000" stroke="none" 
	d="
M133.580292,69.652023 
	C138.827484,68.447014 143.717514,67.355141 148.616211,66.303680 
	C149.765747,66.056946 151.033112,66.164764 152.093811,65.734032 
	C155.623383,64.300735 159.562347,65.659256 160.842636,68.909737 
	C162.369461,72.786064 160.476120,77.023064 156.345367,77.909737 
	C149.051971,79.475281 141.678055,80.667915 134.333008,81.989876 
	C129.111923,82.929558 123.887482,83.852562 118.655800,84.731003 
	C115.168076,85.316628 111.927452,84.352959 111.044891,80.847893 
	C110.498039,78.676102 111.329208,75.751640 112.496246,73.710831 
	C113.163551,72.543900 115.705971,72.231812 117.470406,71.950607 
	C122.704727,71.116394 127.971924,70.488472 133.580292,69.652023 
z"/>
<path fill="#FFFCFC" opacity="1.000000" stroke="none" 
	d="
M97.849556,196.033600 
	C96.097679,191.134064 94.345810,186.234543 92.663155,181.528580 
	C111.355614,181.652756 130.296722,175.986282 149.634155,173.015854 
	C166.223373,170.467590 182.708664,167.244049 199.244293,164.344070 
	C201.045380,164.028198 202.873322,163.705856 204.692368,163.684219 
	C208.959549,163.633453 211.656525,166.008041 212.609665,169.955765 
	C213.543121,173.821899 211.800629,176.998825 208.290878,178.593704 
	C205.065002,180.059631 201.576813,181.201233 198.086990,181.784500 
	C188.697693,183.353775 179.208694,184.334335 169.830338,185.958847 
	C162.205215,187.279694 154.722549,189.416092 147.102707,190.776306 
	C140.838089,191.894562 134.436707,192.226959 128.146301,193.225037 
	C118.950287,194.684174 109.802246,196.444244 100.623772,198.017853 
	C99.875000,198.146240 99.049713,197.828323 98.118912,197.108887 
	C97.977844,196.499969 97.849556,196.033600 97.849556,196.033600 
z"/>
<path fill="#FFFCFC" opacity="1.000000" stroke="none" 
	d="
M82.934036,206.869904 
	C79.061356,210.906509 74.714455,213.564392 68.779739,212.035782 
	C60.647861,209.941238 57.139702,202.422501 60.511200,192.874939 
	C62.694939,190.579666 64.541924,188.859848 66.388916,187.140045 
	C78.109138,185.195663 84.364159,189.592010 84.944916,200.946899 
	C84.254936,203.417221 83.594482,205.143555 82.934036,206.869904 
z"/>
<path fill="#E3282A" opacity="1.000000" stroke="none" 
	d="
M83.080246,207.194550 
	C83.594482,205.143555 84.254936,203.417221 85.008224,201.351746 
	C87.831551,200.471054 90.613739,200.109924 93.280449,199.345764 
	C97.311935,198.190521 98.541893,199.974655 97.941063,203.568558 
	C97.513245,206.127625 96.667885,208.616867 96.000641,211.540451 
	C95.219383,212.638901 94.446365,213.334167 93.405525,214.203003 
	C89.848091,212.070343 84.518547,212.712509 83.080246,207.194550 
z"/>
<path fill="#E32729" opacity="1.000000" stroke="none" 
	d="
M66.038132,186.901581 
	C64.541924,188.859848 62.694939,190.579666 60.566040,192.501801 
	C57.336723,189.907959 54.389320,187.111771 51.149178,184.128174 
	C51.188648,183.169952 51.520851,182.399139 51.918957,181.316193 
	C53.721516,179.822693 55.392757,178.526093 57.213310,177.492493 
	C59.019672,176.466934 60.976387,175.706207 63.537453,174.518463 
	C64.340279,179.053574 65.013809,182.858353 66.038132,186.901581 
z"/>
<path fill="#E3282A" opacity="1.000000" stroke="none" 
	d="
M97.698257,196.123932 
	C97.849556,196.033600 97.977844,196.499969 97.938248,196.738556 
	C97.781433,196.722855 97.664200,196.468567 97.698257,196.123932 
z"/>
</svg>
