<svg xmlns="http://www.w3.org/2000/svg" width="250" height="250" fill="none"><ellipse cx="125.002" cy="97.608" fill="#394ECE" rx="79.998" ry="79.608"/><path fill="#5E6FCE" fill-rule="evenodd" d="M176.613 94.184c13.249 0 24.736-9.338 24.546-21.006C190.797 41.164 160.617 18 125 18c-44.181 0-79.997 35.642-79.997 79.608 0 38.56 27.55 70.717 64.131 78.042.254-2.296.384-4.63.384-6.994v-57.352c0-9.455 7.703-17.12 17.204-17.12h49.891Z" clip-rule="evenodd"/><path fill="#828FD0" fill-rule="evenodd" d="M109.135 175.65c-36.582-7.325-64.132-39.482-64.132-78.042C45.003 53.642 80.82 18.001 125 18h-.002C80.819 18 45.003 53.642 45 97.608L45.003 232h.86c32.78 0 59.773-24.657 63.272-56.35Z" clip-rule="evenodd"/></svg>