<svg xmlns:xlink="http://www.w3.org/1999/xlink" xmlns="http://www.w3.org/2000/svg" width="500" height="500" viewBox="0 0 67 32" fill="none">
<g id="Sift Logo/Black Text &amp; Colored Dots">
<g id="Sift_Logo_RBG_ColorBlack">
<path id="Oval" d="M8.46061 15.4533C9.86673 15.4533 11.0066 14.3251 11.0066 12.9333C11.0066 11.5415 9.86673 10.4133 8.46061 10.4133C7.05449 10.4133 5.91461 11.5415 5.91461 12.9333C5.91461 14.3251 7.05449 15.4533 8.46061 15.4533Z" fill="#EF5296"></path>
<path id="Oval_2" d="M15.4101 15.4533C16.8162 15.4533 17.9561 14.3251 17.9561 12.9333C17.9561 11.5415 16.8162 10.4133 15.4101 10.4133C14.004 10.4133 12.8641 11.5415 12.8641 12.9333C12.8641 14.3251 14.004 15.4533 15.4101 15.4533Z" fill="#F27176"></path>
<path id="Oval_3" d="M22.3487 15.4533C23.7549 15.4533 24.8947 14.3251 24.8947 12.9333C24.8947 11.5415 23.7549 10.4133 22.3487 10.4133C20.9426 10.4133 19.8027 11.5415 19.8027 12.9333C19.8027 14.3251 20.9426 15.4533 22.3487 15.4533Z" fill="#F78D2C"></path>
<path id="Oval_4" d="M15.4101 22.2745C16.8162 22.2745 17.9561 21.1463 17.9561 19.7545C17.9561 18.3627 16.8162 17.2345 15.4101 17.2345C14.004 17.2345 12.8641 18.3627 12.8641 19.7545C12.8641 21.1463 14.004 22.2745 15.4101 22.2745Z" fill="#F4A81D"></path>
<path id="Shape" d="M27.217 18.5157L29.6353 17.0943C29.6742 17.0698 29.722 17.064 29.7656 17.0786C29.8092 17.0932 29.844 17.1267 29.8605 17.1698C30.4468 18.5606 31.5496 19.4501 33.4532 19.4501C35.3568 19.4501 35.9984 18.6505 35.9984 17.7592C35.9984 16.5714 34.926 16.115 32.5666 15.4232C30.1358 14.7152 27.7711 13.6873 27.7711 10.6487C27.7711 7.61007 30.2734 5.89578 32.9992 5.89578C35.5605 5.89578 37.5338 7.19138 38.617 9.3531C38.6524 9.42637 38.626 9.51474 38.5562 9.55616L36.1843 10.9326C36.1475 10.9527 36.1041 10.957 36.064 10.9445C36.024 10.932 35.9907 10.9037 35.9716 10.8661C35.4032 9.73585 34.5417 8.95778 32.9992 8.95778C31.6801 8.95778 30.9079 9.64421 30.9079 10.5571C30.9079 11.54 31.521 12.0647 33.9304 12.796C36.4524 13.5957 39.1335 14.442 39.1335 17.7089C39.1335 20.7008 36.7491 22.5283 33.362 22.5283C30.168 22.5283 28.0499 21.0063 27.158 18.699C27.1334 18.6315 27.1578 18.5559 27.217 18.5157V18.5157Z" fill="#212121"></path>
<path id="Shape_2" fill-rule="evenodd" clip-rule="evenodd" d="M40.7959 6.51572C40.7843 6.52362 40.7735 6.53265 40.7637 6.54268C39.4357 7.98922 40.526 9.75381 41.9648 9.75022C42.9566 9.7494 43.7651 8.95021 43.7826 7.95328C43.7826 6.59658 42.2347 5.50584 40.7959 6.51572ZM43.2893 11.1231H40.6618H40.6547C40.5733 11.1279 40.5097 11.1957 40.5099 11.2776V22.0593C40.5099 22.0998 40.5259 22.1386 40.5544 22.1673C40.5829 22.1959 40.6215 22.212 40.6618 22.212H43.2893C43.3732 22.212 43.4412 22.1436 43.4412 22.0593V11.2776C43.4412 11.193 43.3735 11.1241 43.2893 11.1231Z" fill="#212121"></path>
<path id="Shape_3" d="M49.5754 10.6774V11.1231H51.831C51.9155 11.1241 51.9838 11.1927 51.9848 11.2776V13.4465C51.9838 13.5312 51.9152 13.5993 51.831 13.5993H49.7273C49.6431 13.6003 49.5753 13.6692 49.5754 13.7538V22.0611C49.5754 22.1454 49.5073 22.2138 49.4234 22.2138H46.796C46.712 22.2138 46.644 22.1454 46.644 22.0611V13.7556C46.644 13.7146 46.6278 13.6753 46.599 13.6463C46.5702 13.6174 46.5311 13.6011 46.4903 13.6011H45.1605C45.1199 13.6016 45.0808 13.5857 45.0519 13.557C45.023 13.5283 45.0068 13.4892 45.0068 13.4483V11.2776C45.0068 11.1923 45.0756 11.1231 45.1605 11.1231H46.644V10.6774C46.644 7.56693 48.3242 5.72327 51.8382 5.89398C51.9199 5.8987 51.984 5.96626 51.9848 6.04852V8.56424C51.9849 8.60669 51.9674 8.64726 51.9365 8.67624C51.9057 8.70522 51.8642 8.71997 51.8221 8.71698C50.3993 8.65768 49.5754 9.17879 49.5754 10.6774Z" fill="#212121"></path>
<path id="Shape_4" d="M58.2371 13.5993C58.1529 13.6003 58.0852 13.6692 58.0852 13.7538V18.3756C58.0852 19.5705 58.9146 19.6334 60.491 19.5508C60.5329 19.5483 60.5738 19.5633 60.6043 19.5922C60.6347 19.6211 60.652 19.6614 60.6519 19.7035V22.0755C60.6515 22.1546 60.5924 22.2209 60.5143 22.23C56.5087 22.6433 55.1521 21.425 55.1521 18.3756V13.7556C55.1511 13.6707 55.0829 13.602 54.9984 13.6011H53.3289C53.2447 13.6011 53.1762 13.533 53.1752 13.4483V11.2776C53.1762 11.1927 53.2445 11.1241 53.3289 11.1231H55.0002C55.0844 11.1231 55.1529 11.055 55.1539 10.9703V8.99371C55.1536 8.92889 55.1935 8.87077 55.254 8.84816L57.8797 7.89039C57.9265 7.87353 57.9785 7.88047 58.0193 7.90901C58.0601 7.93755 58.0846 7.98417 58.0852 8.03414V10.9703C58.0852 11.0547 58.1532 11.1231 58.2371 11.1231H60.5C60.5842 11.1241 60.6519 11.193 60.6519 11.2776V13.4465C60.6519 13.5309 60.5839 13.5993 60.5 13.5993H58.2371Z" fill="#212121"></path>
</g>
</g>
</svg>
