<svg width="119" height="32" viewBox="0 0 119 32" fill="none" xmlns="http://www.w3.org/2000/svg">
<path d="M0.422985 2.18796C-0.0232627 2.5544 -0.113434 3.17958 0.171032 3.68207C0.894173 4.95944 1.72034 6.17769 2.58803 7.36071C4.10018 9.42238 7.23428 12.8476 10.1076 14.7744C12.5426 13.2806 14.7807 12.6271 17.2397 11.9488C13.5525 9.83279 10.3662 6.92799 7.85188 3.49989C7.18035 2.58433 6.54296 1.63762 5.97325 0.654865C5.68993 0.166135 5.14258 -0.108209 4.59755 0.0403502C4.02387 0.196717 3.23401 0.462393 2.38682 0.897274C1.55036 1.32665 0.882229 1.81085 0.422985 2.18796Z" fill="url(#paint0_linear_1127_580)"/>
<path d="M18.4318 13.6528C15.5987 14.3323 12.9149 15.3611 10.4942 16.8933C7.0602 19.0669 4.36909 22.1778 2.58791 24.6063C1.6815 25.8421 0.974303 26.9517 0.490275 27.7583C0.400622 27.9077 0.284887 28.109 0.170223 28.3113C-0.108816 28.8035 -0.0468711 29.4169 0.371407 29.798C0.827341 30.2134 1.49759 30.7457 2.31136 31.1612C3.14862 31.5885 4.00605 31.8353 4.62241 31.9724C5.15738 32.0914 5.68203 31.8158 5.95626 31.3413C6.53032 30.348 7.17358 29.3917 7.85176 28.4671C9.41382 26.3374 11.5367 23.9592 13.9855 22.4092C16.4162 20.8707 19.342 20.0539 21.7897 19.6391C22.7836 19.4706 23.7895 19.3374 24.7973 19.2907C25.4215 19.2618 25.9509 18.8202 26.0419 18.2021C26.1328 17.585 26.2233 16.7724 26.2233 15.9834C26.2233 15.2125 26.1369 14.4191 26.0482 13.8076C25.9556 13.1693 25.398 12.72 24.7531 12.7207C22.6154 12.723 20.5025 13.1561 18.4318 13.6528Z" fill="#080808"/>
<path d="M90.0827 15.9899C90.0827 20.2041 93.223 23 97.0928 23C99.3352 23 101.169 22.0864 102.462 20.6972C102.515 20.641 102.543 20.5668 102.543 20.49V15.956C102.543 15.7845 102.404 15.6454 102.232 15.6454H96.4916C96.3201 15.6454 96.1811 15.7845 96.1811 15.956V17.1178C96.1811 17.2893 96.3201 17.4284 96.4916 17.4284H100.362C100.447 17.4284 100.517 17.4979 100.517 17.5836V19.7924C100.517 19.8353 100.499 19.8762 100.468 19.905C99.8051 20.5031 98.5549 21.1968 97.0928 21.1968C94.2766 21.1968 92.1695 19.0087 92.1695 15.9899C92.1695 12.9508 94.2766 10.8032 97.0928 10.8032C98.5609 10.8032 99.8367 11.4851 100.628 12.4104C100.73 12.5304 100.903 12.5669 101.04 12.4877L102.14 11.8494C102.301 11.7562 102.344 11.5434 102.227 11.3996C101.098 10.0178 99.4703 9 97.0928 9C93.223 9 90.0827 11.7757 90.0827 15.9899Z" fill="#080808"/>
<path d="M47.8529 22.4261C47.8529 22.5976 47.9919 22.7366 48.1634 22.7366H49.5684C49.7399 22.7366 49.8789 22.5976 49.8789 22.4261V9.53339C49.8789 9.36189 49.7399 9.22286 49.5684 9.22286H47.3838C47.2832 9.22286 47.1889 9.27159 47.1306 9.35361L43.1777 14.9205C43.1158 15.0077 42.9864 15.0077 42.9245 14.9205L38.9716 9.35361C38.9134 9.27159 38.819 9.22286 38.7184 9.22286H36.5339C36.3624 9.22286 36.2233 9.36189 36.2233 9.53339V22.4261C36.2233 22.5976 36.3624 22.7366 36.5339 22.7366H37.9389C38.1104 22.7366 38.2494 22.5976 38.2494 22.4261V12.324C38.2494 12.1729 38.4433 12.1108 38.531 12.2338L42.5328 17.8402C42.5911 17.9218 42.6852 17.9703 42.7855 17.9703H43.3167C43.4171 17.9703 43.5112 17.9218 43.5695 17.8402L47.5712 12.2338C47.659 12.1108 47.8529 12.1729 47.8529 12.324V22.4261Z" fill="#080808"/>
<path d="M57.466 22.4261C57.466 22.5976 57.6051 22.7366 57.7766 22.7366H66.2322C66.4037 22.7366 66.5427 22.5976 66.5427 22.4261V21.2642C66.5427 21.0927 66.4037 20.9537 66.2322 20.9537H59.6473C59.5616 20.9537 59.4921 20.8842 59.4921 20.7984V16.8948C59.4921 16.809 59.5616 16.7395 59.6473 16.7395H66.0904C66.2619 16.7395 66.4009 16.6005 66.4009 16.429V15.2671C66.4009 15.0956 66.2619 14.9566 66.0904 14.9566H59.6473C59.5616 14.9566 59.4921 14.8871 59.4921 14.8013V11.1611C59.4921 11.0753 59.5616 11.0058 59.6473 11.0058H66.2322C66.4037 11.0058 66.5427 10.8668 66.5427 10.6953V9.53339C66.5427 9.36189 66.4037 9.22286 66.2322 9.22286H57.7766C57.6051 9.22286 57.466 9.36189 57.466 9.53339V22.4261Z" fill="#080808"/>
<path fill-rule="evenodd" clip-rule="evenodd" d="M79.4775 9.22286C82.0506 9.22286 83.8132 10.8842 83.8132 13.3763C83.8132 15.4057 82.6834 16.4961 81.273 17.043C81.1799 17.0791 81.1407 17.1911 81.1941 17.2756L84.3428 22.2604C84.4734 22.4672 84.3248 22.7367 84.0802 22.7367H82.4675C82.3594 22.7367 82.2591 22.6805 82.2026 22.5883L79.141 17.5834C79.1107 17.5338 79.0552 17.5054 78.9972 17.5091C78.7746 17.5233 78.5555 17.5297 78.3429 17.5297H75.9656C75.8798 17.5297 75.8103 17.5992 75.8103 17.6849V22.4261C75.8103 22.5976 75.6713 22.7366 75.4998 22.7366H74.0948C73.9233 22.7366 73.7843 22.5976 73.7843 22.4261V9.53339C73.7843 9.36189 73.9233 9.22286 74.0948 9.22286H79.4775ZM79.2141 15.7467C80.6728 15.7467 81.7264 14.7945 81.7264 13.3763C81.7264 11.958 80.6728 11.0058 79.2141 11.0058H75.9656C75.8798 11.0058 75.8103 11.0753 75.8103 11.1611V15.5915C75.8103 15.6772 75.8798 15.7467 75.9656 15.7467H79.2141Z" fill="#080808"/>
<path d="M118.596 22.4261C118.596 22.5976 118.457 22.7366 118.286 22.7366H109.83C109.659 22.7366 109.52 22.5976 109.52 22.4261V9.53339C109.52 9.36189 109.659 9.22286 109.83 9.22286H118.286C118.457 9.22286 118.596 9.36189 118.596 9.53339V10.6953C118.596 10.8668 118.457 11.0058 118.286 11.0058H111.701C111.615 11.0058 111.546 11.0753 111.546 11.161V14.8013C111.546 14.8871 111.615 14.9566 111.701 14.9566H118.144C118.316 14.9566 118.455 15.0956 118.455 15.2671V16.429C118.455 16.6005 118.316 16.7395 118.144 16.7395H111.701C111.615 16.7395 111.546 16.809 111.546 16.8948V20.7984C111.546 20.8842 111.615 20.9537 111.701 20.9537H118.286C118.457 20.9537 118.596 21.0927 118.596 21.2642V22.4261Z" fill="#080808"/>
<defs>
<linearGradient id="paint0_linear_1127_580" x1="26.9005" y1="4.93551" x2="-0.675926" y2="28.3513" gradientUnits="userSpaceOnUse">
<stop stop-color="#080808"/>
<stop offset="1" stop-color="#080808" stop-opacity="0"/>
</linearGradient>
</defs>
</svg>
