<svg xmlns="http://www.w3.org/2000/svg" width="250" height="250" fill="none"><g clip-path="url(#a)"><g fill="#3B455A" clip-path="url(#b)"><path d="M134.981 109.927c-8.383 0-15.202 6.746-15.202 15.037S126.598 140 134.981 140s15.204-6.745 15.204-15.036-6.821-15.037-15.204-15.037Zm0 41.971c-15.015 0-27.231-12.083-27.231-26.934 0-14.852 12.216-26.934 27.231-26.934 15.016 0 27.232 12.082 27.232 26.934 0 14.851-12.216 26.934-27.232 26.934M57.639 98.019h8.258a1.98 1.98 0 0 1 1.99 1.968v28.63c0 6.553 1.708 11.279 8.44 11.279 9.828 0 14.742-5.476 14.742-18.463V99.987a1.98 1.98 0 0 1 1.99-1.968h8.182a1.98 1.98 0 0 1 1.99 1.968v49.953a1.98 1.98 0 0 1-1.99 1.969h-8.182c-1.1 0-1.99-.881-1.99-1.969v-5.028c-2.67 5.601-9.083 6.953-18.377 6.953-11.645 0-17.044-5.812-17.044-20.5V99.987a1.98 1.98 0 0 1 1.991-1.968Zm111.141.001h8.182a1.98 1.98 0 0 1 1.99 1.97v5.028s1.652-6.88 16.676-7.001c2.154-.017 2.43.975 2.282 2.138l-1.072 8.459a1.91 1.91 0 0 1-2.002 1.905c-.369-.018-.774-.03-1.203-.03-5.77 0-10.96 3.81-13.523 11.84-.854 2.642-1.175 5.601-1.175 8.77v18.844a1.98 1.98 0 0 1-1.99 1.968h-8.165a1.98 1.98 0 0 1-1.991-1.968V99.989a1.98 1.98 0 0 1 1.991-1.968m39.626 26.99c.04-8.247 6.959-14.925 15.402-14.864 8.188.058 14.906 6.847 14.862 15.019.048 8.475-7.249 14.715-15.308 14.568-8.278-.152-14.997-6.497-14.956-14.723Zm42.534-1.075c-.296-6.677-2.787-12.506-7.469-17.436-8.975-9.449-23.082-10.961-33.693-4.833-9.703 5.603-15.638 17.346-13.122 28.694 6.022 27.158 36.505 24.693 42.116 14.532.102-.045.081 4.997.081 4.997 0 1.105 1.135 2 2.252 2h7.873a2.01 2.01 0 0 0 2.021-2s-.039-25.95-.059-25.954"/><path d="M56.869 150.563a.363.363 0 0 0-.044-.037c-2.768-2.06-3.724-5.753-5.06-10.145a.77.77 0 0 0-.737-.543l-27.99.093c-.651.002-1.012-.747-.6-1.246l28.205-32.84c.3-.349.464-.791.464-1.249v-4.68c0-1.234-.994-1.907-2.776-1.907H3.07c-1.377 0-2.492 1.103-2.492 2.465v7.152c0 1.362 1.115 2.465 2.492 2.465h12.55v-.014h13.645c.647 0 1.006.739.604 1.239L4.215 141.053c-2.32 2.607-4.683 5.167-4.135 8.003a5.212 5.212 0 0 0 1.067 2.277 1.62 1.62 0 0 0 1.263.586l53.949-.02a.763.763 0 0 0 .51-1.336"/></g></g><defs><clipPath id="a"><path fill="#fff" d="M0 0h250v250H0z"/></clipPath><clipPath id="b"><path fill="#fff" d="M0 98h251v54H0z"/></clipPath></defs></svg>