<svg xmlns="http://www.w3.org/2000/svg" width="250" height="250" fill="none"><g clip-path="url(#a)"><path fill="#4B4EA0" d="M202.861 186.164a99.003 99.003 0 0 1-154.74 1.156l38.094-60.981h79.683l36.963 59.825Z"/><path fill="#EC2226" d="M165.881 126.339H86.198l40.083-64.108 39.6 64.108Z"/><path fill="#5AA0D5" d="M224 126.339a98.37 98.37 0 0 1-21.114 59.825l-36.98-59.825H224Z"/><path fill="#FDCD08" d="M224 125v1.339h-58.119l-39.6-64.108-40.082 64.108H26V125a99.092 99.092 0 0 1 79.117-97.02A101.67 101.67 0 0 1 125 26a98.96 98.96 0 0 1 99 99Z"/><path fill="#5AA0D5" d="M86.199 126.339 48.105 187.32A98.335 98.335 0 0 1 26 126.339h60.199Z"/></g><defs><clipPath id="a"><path fill="#fff" d="M26 26h198v198H26z"/></clipPath></defs></svg>