<svg xmlns="http://www.w3.org/2000/svg" width="250px" height="250px">
  <g transform="matrix(2.761104, 0, 0, 2.761104, 10.00001, 18.283321)">
    <path d="M51.9 52.8H4c-2.2 0-4-1.8-4-4s1.8-4 4-4h47.9c2.2 0 4 1.8 4 4s-1.8 4-4 4z" fill="#99cfac"></path>
    <path d="M41.7 77.3c-3.9 0-7.8-.6-11.5-1.7-2.1-.7-3.3-2.9-2.6-5s2.9-3.3 5-2.6c2.9.9 6 1.4 9.1 1.4 13.6 0 25.4-8.7 29.3-21.7.6-2.1 2.9-3.3 5-2.7s3.3 2.9 2.7 5c-5.1 16.3-19.9 27.3-37 27.3z" fill="#49b881"></path>
    <path d="M79.3 32.5H31.4c-2.2 0-4-1.8-4-4s1.8-4 4-4h47.9c2.2 0 4 1.8 4 4s-1.8 4-4 4z" fill="#99cfac"></path>
    <path d="M8.5 32.5c-.4 0-.8-.1-1.2-.2-2.1-.6-3.3-2.9-2.7-5C9.7 11 24.5 0 41.7 0c3.9 0 7.8.6 11.5 1.7 2.1.7 3.3 2.9 2.6 5s-2.9 3.3-5 2.6c-2.9-.9-6-1.4-9.1-1.4-13.6 0-25.4 8.7-29.3 21.7-.6 1.8-2.2 2.9-3.9 2.9z" fill="#49b881"></path>
    <g fill="#99cfac">
      <circle r="4" cy="13.3" cx="65.4"></circle>
      <circle r="4" cy="64.1" cx="17.9"></circle>
    </g>
  </g>
</svg>
