<svg xmlns="http://www.w3.org/2000/svg" xmlns:xlink="http://www.w3.org/1999/xlink" width="500" zoomAndPan="magnify" viewBox="0 0 375 374.999991" height="500" preserveAspectRatio="xMidYMid meet" version="1.0"><defs><g/></defs><rect x="-37.5" width="450" fill="#ffffff" y="-37.499999" height="449.999989" fill-opacity="1"/><rect x="-37.5" width="450" fill="#ffffff" y="-37.499999" height="449.999989" fill-opacity="1"/><g fill="#ff3131" fill-opacity="1"><g transform="translate(30.55945, 305.177762)"><g><path d="M 247.578125 -152.1875 C 263.898438 -144.238281 279.28125 -135.554688 293.71875 -126.140625 C 296.226562 -124.265625 297.796875 -121.753906 298.421875 -118.609375 C 299.046875 -115.890625 298.523438 -113.066406 296.859375 -110.140625 C 295.390625 -107.628906 293.085938 -106.0625 289.953125 -105.4375 C 287.023438 -104.8125 284.304688 -105.226562 281.796875 -106.6875 C 266.304688 -116.9375 251.347656 -125.515625 236.921875 -132.421875 C 234.203125 -134.097656 232.421875 -136.191406 231.578125 -138.703125 C 230.535156 -141.628906 230.847656 -144.347656 232.515625 -146.859375 C 233.984375 -149.785156 236.179688 -151.664062 239.109375 -152.5 C 242.035156 -153.550781 244.859375 -153.445312 247.578125 -152.1875 Z M 241.3125 -203.34375 C 254.488281 -213.382812 266.097656 -222.898438 276.140625 -231.890625 C 278.234375 -233.773438 281.054688 -234.71875 284.609375 -234.71875 C 287.535156 -234.71875 290.148438 -233.566406 292.453125 -231.265625 C 294.546875 -229.171875 295.59375 -226.347656 295.59375 -222.796875 C 295.59375 -219.867188 294.234375 -217.253906 291.515625 -214.953125 C 281.472656 -205.953125 269.757812 -196.328125 256.375 -186.078125 C 254.070312 -184.191406 251.25 -183.460938 247.90625 -183.890625 C 244.34375 -184.304688 241.515625 -185.5625 239.421875 -187.65625 C 237.546875 -189.738281 236.816406 -192.457031 237.234375 -195.8125 C 237.441406 -198.738281 238.800781 -201.25 241.3125 -203.34375 Z M 77.5 -131.484375 C 63.90625 -122.273438 48.632812 -113.488281 31.6875 -105.125 C 28.96875 -103.65625 26.039062 -103.445312 22.90625 -104.5 C 19.976562 -105.539062 17.882812 -107.421875 16.625 -110.140625 C 15.164062 -112.648438 14.957031 -115.472656 16 -118.609375 C 16.84375 -121.328125 18.726562 -123.316406 21.65625 -124.578125 C 37.34375 -132.316406 52.300781 -140.789062 66.53125 -150 C 68.832031 -151.664062 71.445312 -152.1875 74.375 -151.5625 C 77.09375 -150.9375 79.285156 -149.367188 80.953125 -146.859375 C 82.421875 -144.554688 82.84375 -141.835938 82.21875 -138.703125 C 81.582031 -135.347656 80.007812 -132.941406 77.5 -131.484375 Z M 58.046875 -186.703125 C 49.472656 -194.660156 37.757812 -204.179688 22.90625 -215.265625 C 20.394531 -217.359375 19.035156 -219.867188 18.828125 -222.796875 C 18.410156 -225.929688 19.25 -228.648438 21.34375 -230.953125 C 23.21875 -233.671875 25.726562 -235.132812 28.875 -235.34375 C 31.800781 -235.550781 34.625 -234.71875 37.34375 -232.84375 C 50.519531 -222.800781 62.441406 -213.070312 73.109375 -203.65625 C 75.410156 -201.351562 76.664062 -198.738281 76.875 -195.8125 C 77.289062 -192.675781 76.351562 -189.957031 74.0625 -187.65625 C 71.96875 -185.144531 69.351562 -183.890625 66.21875 -183.890625 C 62.65625 -183.890625 59.929688 -184.828125 58.046875 -186.703125 Z M 117.359375 -124.890625 L 196.4375 -124.890625 C 198.320312 -124.890625 199.265625 -125.832031 199.265625 -127.71875 L 199.265625 -157.21875 C 199.265625 -159.09375 198.320312 -160.03125 196.4375 -160.03125 L 117.359375 -160.03125 C 115.472656 -160.03125 114.53125 -159.09375 114.53125 -157.21875 L 114.53125 -127.71875 C 114.53125 -125.832031 115.472656 -124.890625 117.359375 -124.890625 Z M 114.53125 -208.671875 L 114.53125 -182 C 114.53125 -180.320312 115.472656 -179.484375 117.359375 -179.484375 L 196.4375 -179.484375 C 198.320312 -179.484375 199.265625 -180.320312 199.265625 -182 L 199.265625 -208.671875 C 199.265625 -210.347656 198.320312 -211.1875 196.4375 -211.1875 L 117.359375 -211.1875 C 115.472656 -211.1875 114.53125 -210.347656 114.53125 -208.671875 Z M 165.6875 23.53125 C 163.175781 26.039062 160.242188 27.296875 156.890625 27.296875 C 153.546875 27.296875 150.617188 26.039062 148.109375 23.53125 C 145.597656 21.019531 144.34375 18.09375 144.34375 14.75 L 144.34375 -44.875 C 144.34375 -45.289062 144.132812 -45.707031 143.71875 -46.125 C 143.300781 -46.539062 142.882812 -46.539062 142.46875 -46.125 C 115.0625 -22.28125 78.347656 -0.835938 32.328125 18.203125 C 28.972656 19.242188 26.039062 19.242188 23.53125 18.203125 C 20.601562 16.941406 18.507812 14.847656 17.25 11.921875 C 16 8.992188 15.894531 6.273438 16.9375 3.765625 C 18.40625 0.628906 20.394531 -1.359375 22.90625 -2.203125 C 68.925781 -20.191406 105.117188 -40.164062 131.484375 -62.125 C 131.691406 -62.34375 131.796875 -62.660156 131.796875 -63.078125 C 131.796875 -63.492188 131.378906 -63.703125 130.546875 -63.703125 L 32.328125 -63.703125 C 29.597656 -63.703125 27.1875 -64.75 25.09375 -66.84375 C 23.007812 -68.9375 21.96875 -71.34375 21.96875 -74.0625 C 21.96875 -76.988281 23.007812 -79.492188 25.09375 -81.578125 C 27.1875 -83.671875 29.597656 -84.71875 32.328125 -84.71875 L 141.84375 -84.71875 C 143.507812 -84.71875 144.34375 -85.554688 144.34375 -87.234375 L 144.34375 -102.296875 C 144.34375 -104.179688 143.507812 -105.125 141.84375 -105.125 L 108.265625 -105.125 C 103.453125 -105.125 99.265625 -106.898438 95.703125 -110.453125 C 92.148438 -114.015625 90.375 -118.203125 90.375 -123.015625 L 90.375 -213.375 C 90.375 -218.1875 92.148438 -222.367188 95.703125 -225.921875 C 99.265625 -229.484375 103.453125 -231.265625 108.265625 -231.265625 L 133.046875 -231.265625 C 134.929688 -231.265625 136.082031 -232.101562 136.5 -233.78125 L 140.890625 -247.578125 C 141.941406 -251.140625 143.828125 -253.96875 146.546875 -256.0625 C 149.472656 -258.363281 152.710938 -259.300781 156.265625 -258.875 C 159.828125 -258.457031 162.441406 -256.992188 164.109375 -254.484375 C 165.992188 -251.554688 166.519531 -248.628906 165.6875 -245.703125 C 165.0625 -242.984375 163.910156 -238.90625 162.234375 -233.46875 C 162.023438 -232.832031 162.128906 -232.304688 162.546875 -231.890625 C 162.960938 -231.472656 163.484375 -231.265625 164.109375 -231.265625 L 205.53125 -231.265625 C 210.34375 -231.265625 214.523438 -229.484375 218.078125 -225.921875 C 221.640625 -222.367188 223.421875 -218.1875 223.421875 -213.375 L 223.421875 -123.015625 C 223.421875 -118.203125 221.640625 -114.015625 218.078125 -110.453125 C 214.523438 -106.898438 210.34375 -105.125 205.53125 -105.125 L 172.28125 -105.125 C 170.394531 -105.125 169.453125 -104.179688 169.453125 -102.296875 L 169.453125 -87.234375 C 169.453125 -85.554688 170.394531 -84.71875 172.28125 -84.71875 L 281.46875 -84.71875 C 284.195312 -84.71875 286.601562 -83.671875 288.6875 -81.578125 C 290.78125 -79.492188 291.828125 -76.988281 291.828125 -74.0625 C 291.828125 -71.34375 290.78125 -68.9375 288.6875 -66.84375 C 286.601562 -64.75 284.195312 -63.703125 281.46875 -63.703125 L 183.25 -63.703125 C 182.625 -63.703125 182.207031 -63.597656 182 -63.390625 C 181.582031 -62.972656 181.6875 -62.550781 182.3125 -62.125 C 208.257812 -40.375 244.347656 -20.398438 290.578125 -2.203125 C 293.503906 -1.148438 295.597656 0.835938 296.859375 3.765625 C 297.898438 6.273438 297.789062 8.992188 296.53125 11.921875 C 295.28125 14.847656 293.296875 16.941406 290.578125 18.203125 C 287.648438 19.453125 284.722656 19.453125 281.796875 18.203125 C 235.347656 -1.046875 198.628906 -22.382812 171.640625 -45.8125 C 171.222656 -46.226562 170.703125 -46.332031 170.078125 -46.125 C 169.660156 -45.914062 169.453125 -45.5 169.453125 -44.875 L 169.453125 14.75 C 169.453125 18.09375 168.195312 21.019531 165.6875 23.53125 Z M 165.6875 23.53125 "/></g></g></g></svg>