<svg version="1.1" id="Layer_1" xmlns="http://www.w3.org/2000/svg" xmlns:xlink="http://www.w3.org/1999/xlink" x="0px" y="0px"
	 width="100%" viewBox="0 0 3000 3000" enable-background="new 0 0 3000 3000" xml:space="preserve">
<path fill="#FFFFFF" opacity="1.000000" stroke="none" 
	d="
M1376.000000,3002.000000 
	C917.333435,3002.000000 459.666840,3002.000000 2.000184,3002.000000 
	C2.000123,2002.000244 2.000123,1002.000549 2.000062,2.000587 
	C1001.999573,2.000391 2001.999146,2.000391 3001.999023,2.000196 
	C3001.999512,1001.999329 3001.999512,2001.998657 3001.999756,3001.999023 
	C2460.333252,3002.000000 1918.666626,3002.000000 1376.000000,3002.000000 
M2120.802979,1064.836670 
	C1987.207886,939.091858 1853.624634,813.334595 1719.997925,687.623169 
	C1708.153809,676.480469 1696.029053,665.635986 1682.261841,653.987732 
	C1678.263306,653.937866 1674.264893,653.844421 1670.266357,653.844299 
	C1466.297852,653.837219 1262.329468,653.802246 1058.360962,653.929443 
	C1046.456787,653.936890 1034.555542,655.302551 1022.648987,655.966553 
	C1003.757446,657.020142 986.043213,662.654358 969.384949,671.087036 
	C914.031982,699.107483 884.104980,742.730530 884.147522,806.457825 
	C884.456787,1269.719238 884.313843,1732.980957 884.314087,2196.242676 
	C884.314087,2199.908691 884.254211,2203.576172 884.329895,2207.240723 
	C884.736267,2226.913574 888.582214,2245.630859 897.712219,2263.372559 
	C917.847717,2302.500244 950.338440,2327.010010 990.798767,2341.135498 
	C1010.176086,2347.900635 1030.928833,2349.530029 1051.661255,2349.522705 
	C1293.623779,2349.435303 1535.586426,2349.466797 1777.548950,2349.466797 
	C1837.872925,2349.466797 1898.197510,2349.616211 1958.520752,2349.412109 
	C1996.065674,2349.285156 2031.053101,2339.874268 2061.834717,2317.807861 
	C2100.136475,2290.349854 2122.212402,2253.555420 2122.230957,2205.622070 
	C2122.377441,1829.013672 2122.315430,1452.405151 2122.271729,1075.796753 
	C2122.271484,1072.526978 2121.642578,1069.257202 2120.802979,1064.836670 
z"/>
<path fill="#FFBB00" opacity="1.000000" stroke="none" 
	d="
M2121.307129,1065.987427 
	C2121.642578,1069.257202 2122.271484,1072.526978 2122.271729,1075.796753 
	C2122.315430,1452.405151 2122.377441,1829.013672 2122.230957,2205.622070 
	C2122.212402,2253.555420 2100.136475,2290.349854 2061.834717,2317.807861 
	C2031.053101,2339.874268 1996.065674,2349.285156 1958.520752,2349.412109 
	C1898.197510,2349.616211 1837.872925,2349.466797 1777.548950,2349.466797 
	C1535.586426,2349.466797 1293.623779,2349.435303 1051.661255,2349.522705 
	C1030.928833,2349.530029 1010.176086,2347.900635 990.798767,2341.135498 
	C950.338440,2327.010010 917.847717,2302.500244 897.712219,2263.372559 
	C888.582214,2245.630859 884.736267,2226.913574 884.329895,2207.240723 
	C884.254211,2203.576172 884.314087,2199.908691 884.314087,2196.242676 
	C884.313843,1732.980957 884.456787,1269.719238 884.147522,806.457825 
	C884.104980,742.730530 914.031982,699.107483 969.384949,671.087036 
	C986.043213,662.654358 1003.757446,657.020142 1022.648987,655.966553 
	C1034.555542,655.302551 1046.456787,653.936890 1058.360962,653.929443 
	C1262.329468,653.802246 1466.297852,653.837219 1670.266357,653.844299 
	C1674.264893,653.844421 1678.263306,653.937866 1683.139160,655.211914 
	C1684.161621,792.083923 1684.306519,927.731750 1684.468018,1063.379639 
	C1684.468384,1063.677368 1684.672729,1064.002808 1684.854736,1064.264648 
	C1685.041748,1064.533691 1685.318237,1064.740479 1686.582642,1065.987427 
	C1830.800049,1065.987427 1976.053589,1065.987427 2121.307129,1065.987427 
M1125.843384,1403.337646 
	C1125.843384,1563.456177 1125.843384,1723.574585 1125.843384,1883.684082 
	C1378.364380,1883.684082 1629.435669,1883.684082 1880.865967,1883.684082 
	C1880.865967,1720.970337 1880.865967,1558.882080 1880.865967,1395.843750 
	C1877.014404,1395.843750 1873.758423,1395.843750 1870.502441,1395.843750 
	C1625.929565,1395.843872 1381.356689,1395.843750 1136.783813,1395.846313 
	C1134.451660,1395.846313 1132.119385,1395.895020 1129.787231,1395.899414 
	C1125.902344,1395.906494 1125.841553,1398.628052 1125.843384,1403.337646 
z"/>
<path fill="#F29900" opacity="1.000000" stroke="none" 
	d="
M2121.055176,1065.412109 
	C1976.053589,1065.987427 1830.800049,1065.987427 1686.582642,1065.987427 
	C1685.318237,1064.740479 1685.041748,1064.533691 1684.854736,1064.264648 
	C1684.672729,1064.002808 1684.468384,1063.677368 1684.468018,1063.379639 
	C1684.306519,927.731750 1684.161621,792.083923 1684.025513,655.544434 
	C1696.029053,665.635986 1708.153809,676.480469 1719.997925,687.623169 
	C1853.624634,813.334595 1987.207886,939.091858 2121.055176,1065.412109 
z"/>
<path fill="#FFFFFF" opacity="1.000000" stroke="none" 
	d="
M1125.848267,1402.373291 
	C1125.841553,1398.628052 1125.902344,1395.906494 1129.787231,1395.899414 
	C1132.119385,1395.895020 1134.451660,1395.846313 1136.783813,1395.846313 
	C1381.356689,1395.843750 1625.929565,1395.843872 1870.502441,1395.843750 
	C1873.758423,1395.843750 1877.014404,1395.843750 1880.865967,1395.843750 
	C1880.865967,1558.882080 1880.865967,1720.970337 1880.865967,1883.684082 
	C1629.435669,1883.684082 1378.364380,1883.684082 1125.843384,1883.684082 
	C1125.843384,1723.574585 1125.843384,1563.456177 1125.848267,1402.373291 
M1212.093018,1468.939087 
	C1206.291504,1469.656738 1208.069580,1474.221680 1208.067261,1477.473511 
	C1207.989014,1586.133545 1207.996704,1694.793457 1208.040405,1803.453491 
	C1208.041382,1805.952271 1208.601074,1808.450928 1208.878174,1810.765869 
	C1234.858765,1813.264526 1789.808838,1811.976562 1798.254883,1809.397949 
	C1798.254883,1696.300537 1798.254883,1583.120483 1798.254883,1468.854858 
	C1603.097656,1468.854858 1408.515869,1468.854858 1212.093018,1468.939087 
z"/>
<path fill="#FFBB00" opacity="1.000000" stroke="none" 
	d="
M1213.013550,1468.896973 
	C1408.515869,1468.854858 1603.097656,1468.854858 1798.254883,1468.854858 
	C1798.254883,1583.120483 1798.254883,1696.300537 1798.254883,1809.397949 
	C1789.808838,1811.976562 1234.858765,1813.264526 1208.878174,1810.765869 
	C1208.601074,1808.450928 1208.041382,1805.952271 1208.040405,1803.453491 
	C1207.996704,1694.793457 1207.989014,1586.133545 1208.067261,1477.473511 
	C1208.069580,1474.221680 1206.291504,1469.656738 1213.013550,1468.896973 
z"/>
</svg>
