<?xml version="1.0" encoding="utf-8"?>
<!-- Generator: Adobe Illustrator 25.4.1, SVG Export Plug-In . SVG Version: 6.00 Build 0)  -->
<svg version="1.1" id="SurrealDB" xmlns="http://www.w3.org/2000/svg" xmlns:xlink="http://www.w3.org/1999/xlink" x="0px" y="0px"
	 viewBox="0 0 840 979.9" style="enable-background:new 0 0 840 979.9;" xml:space="preserve">
<style type="text/css">
	.st0{fill:url(#SVGID_1_);}
</style>
<linearGradient id="SVGID_1_" gradientUnits="userSpaceOnUse" x1="203.3477" y1="498.6972" x2="636.6956" y2="1249.2778" gradientTransform="matrix(1 0 0 1 0 -384)">
	<stop  offset="0" style="stop-color:#FF00A0"/>
	<stop  offset="0.7" style="stop-color:#9600FF"/>
</linearGradient>
<path class="st0" d="M746.6,593.1L280,335.2l140-77.4L653.3,387v-51.8L420,206.3c-34.7,19.2-202.4,111.9-233.3,128.9
	c28.7,15.9,330.1,182.4,513.3,283.6v51.6c-24.9,13.8-280,154.7-280,154.7C350.2,786.6,209.7,709,140,670.4V515.7l280,154.7l0,0
	l46.7-25.8L93.3,438.4v257.9L420,876.7c32.2-17.8,302.8-167.3,326.6-180.5l0,0V593.1L746.6,593.1z M420,0L0,232.1v515.7l420,232.1
	l420-232V232.1L420,0z M793.2,722L793.2,722L420,928.3L46.7,722V257.9l0,0L420,51.6l373.3,206.3L793.2,722L793.2,722z M93.3,283.6
	v103.2l466.6,257.9l-140,77.4L186.6,592.9v51.8l233.3,128.9c34.7-19.2,202.4-111.9,233.3-128.9C624.5,628.8,323.2,462.3,140,361
	v-51.6c24.9-13.8,280-154.7,280-154.7c69.7,38.6,210.2,116.2,280,154.7v154.7L420,309.4l0,0l-46.7,25.8l373.3,206.3V283.6L420,103.1
	C387.7,121,117.2,270.5,93.3,283.6z"/>
</svg>
