<svg xmlns="http://www.w3.org/2000/svg" width="250" height="250" fill="none"><g clip-path="url(#a)"><path fill="#000" fill-rule="evenodd" d="M23.306 189.562h50.962C251.67 11.309 512.595-7.612 542.648-9.221c.949-.045 1.9-.09 2.852-.133 0 0-.976.033-2.852.133C207.753 6.816 53.553 149.47 19 182.82l4.306 6.742ZM82.649 63.708H26.324l-3.058 5.815 62.553 45.583a628.037 628.037 0 0 1 38.766-20.668l-41.936-30.73Zm50.471 85.867 54.979 40.079h57.014l2.36-5.308-82.097-60.071a644.107 644.107 0 0 0-32.256 25.3Z" clip-rule="evenodd"/></g><defs><clipPath id="a"><path fill="#fff" d="M0 0h250v250H0z"/></clipPath></defs></svg>