<svg xmlns="http://www.w3.org/2000/svg" width="250" height="250" fill="none"><path fill="#509EE3" d="M46.648 80.293c7.678 0 13.902-6.318 13.902-14.111 0-7.794-6.224-14.111-13.902-14.111-7.678 0-13.902 6.317-13.902 14.11 0 7.794 6.224 14.112 13.902 14.112Zm0 39.51c7.678 0 13.902-6.318 13.902-14.111 0-7.793-6.224-14.11-13.902-14.11-7.678 0-13.902 6.317-13.902 14.11 0 7.793 6.224 14.111 13.902 14.111Z"/><path fill="#509EE3" d="M85.574 80.293c7.678 0 13.902-6.318 13.902-14.111 0-7.794-6.224-14.111-13.902-14.111-7.678 0-13.902 6.317-13.902 14.11 0 7.794 6.224 14.112 13.902 14.112Z" opacity=".2"/><path fill="#509EE3" d="M85.574 120.187c7.678 0 13.902-6.318 13.902-14.111 0-7.793-6.224-14.11-13.902-14.11-7.678 0-13.902 6.317-13.902 14.11 0 7.793 6.224 14.111 13.902 14.111Z"/><path fill="#509EE3" d="M124.5 80.293c7.678 0 13.902-6.318 13.902-14.111 0-7.794-6.224-14.111-13.902-14.111-7.678 0-13.902 6.317-13.902 14.11 0 7.794 6.224 14.112 13.902 14.112Zm0-45.155c7.678 0 13.902-6.318 13.902-14.111 0-7.794-6.224-14.111-13.902-14.111-7.678 0-13.902 6.317-13.902 14.11 0 7.794 6.224 14.112 13.902 14.112Zm0 85.049c7.678 0 13.902-6.318 13.902-14.111 0-7.793-6.224-14.11-13.902-14.11-7.678 0-13.902 6.317-13.902 14.11 0 7.793 6.224 14.111 13.902 14.111Zm38.925-39.894c7.678 0 13.902-6.318 13.902-14.111 0-7.794-6.224-14.111-13.902-14.111-7.677 0-13.902 6.317-13.902 14.11 0 7.794 6.225 14.112 13.902 14.112Z" opacity=".2"/><path fill="#509EE3" d="M202.351 80.293c7.678 0 13.902-6.318 13.902-14.111 0-7.794-6.224-14.111-13.902-14.111-7.678 0-13.902 6.317-13.902 14.11 0 7.794 6.224 14.112 13.902 14.112Zm-38.926 39.894c7.678 0 13.902-6.318 13.902-14.111 0-7.793-6.224-14.11-13.902-14.11-7.677 0-13.902 6.317-13.902 14.11 0 7.793 6.225 14.111 13.902 14.111Zm38.926 0c7.678 0 13.902-6.318 13.902-14.111 0-7.793-6.224-14.11-13.902-14.11-7.678 0-13.902 6.317-13.902 14.11 0 7.793 6.224 14.111 13.902 14.111ZM46.648 159.314c7.678 0 13.902-6.318 13.902-14.111 0-7.793-6.224-14.111-13.902-14.111-7.678 0-13.902 6.318-13.902 14.111 0 7.793 6.224 14.111 13.902 14.111Z"/><path fill="#509EE3" d="M85.574 159.698c7.678 0 13.902-6.318 13.902-14.111 0-7.794-6.224-14.111-13.902-14.111-7.678 0-13.902 6.317-13.902 14.111 0 7.793 6.224 14.111 13.902 14.111Z" opacity=".2"/><path fill="#509EE3" d="M124.5 159.698c7.678 0 13.902-6.318 13.902-14.111 0-7.794-6.224-14.111-13.902-14.111-7.678 0-13.902 6.317-13.902 14.111 0 7.793 6.224 14.111 13.902 14.111Z"/><path fill="#509EE3" d="M163.425 159.698c7.678 0 13.902-6.318 13.902-14.111 0-7.794-6.224-14.111-13.902-14.111-7.677 0-13.902 6.317-13.902 14.111 0 7.793 6.225 14.111 13.902 14.111Z" opacity=".2"/><path fill="#509EE3" d="M202.351 159.698c7.678 0 13.902-6.318 13.902-14.111 0-7.794-6.224-14.111-13.902-14.111-7.678 0-13.902 6.317-13.902 14.111 0 7.793 6.224 14.111 13.902 14.111ZM46.648 198.824c7.678 0 13.902-6.317 13.902-14.111 0-7.793-6.224-14.11-13.902-14.11-7.678 0-13.902 6.317-13.902 14.11 0 7.794 6.224 14.111 13.902 14.111Z"/><path fill="#509EE3" d="M85.574 199.208c7.678 0 13.902-6.317 13.902-14.111 0-7.793-6.224-14.111-13.902-14.111-7.678 0-13.902 6.318-13.902 14.111 0 7.794 6.224 14.111 13.902 14.111Zm38.926 0c7.678 0 13.902-6.317 13.902-14.111 0-7.793-6.224-14.111-13.902-14.111-7.678 0-13.902 6.318-13.902 14.111 0 7.794 6.224 14.111 13.902 14.111Zm0 39.511c7.678 0 13.902-6.318 13.902-14.111 0-7.793-6.224-14.111-13.902-14.111-7.678 0-13.902 6.318-13.902 14.111 0 7.793 6.224 14.111 13.902 14.111Zm38.925-39.511c7.678 0 13.902-6.317 13.902-14.111 0-7.793-6.224-14.111-13.902-14.111-7.677 0-13.902 6.318-13.902 14.111 0 7.794 6.225 14.111 13.902 14.111Z" opacity=".2"/><path fill="#509EE3" d="M202.351 199.208c7.678 0 13.902-6.317 13.902-14.111 0-7.793-6.224-14.111-13.902-14.111-7.678 0-13.902 6.318-13.902 14.111 0 7.794 6.224 14.111 13.902 14.111Z"/></svg>