<?xml version="1.0" encoding="UTF-8"?>
<svg width="252px" height="252px" viewBox="0 0 252 211" version="1.1" xmlns="http://www.w3.org/2000/svg" xmlns:xlink="http://www.w3.org/1999/xlink">
    <title>rollbar-mark-color</title>
    <g id="Page-1" stroke="none" stroke-width="1" fill="none" fill-rule="evenodd">
        <g id="rollbar-mark-color" transform="translate(-12.000000, -21.000000)" fill="#3C72FF">
            <g transform="translate(12.000000, 21.000000)" id="Shape">
                <path d="M252,6.52012926 C251.996417,6.11490772 251.956012,5.71085041 251.879281,5.31294363 C251.879281,5.19222507 251.818922,5.08357836 251.782707,4.9628598 C251.746491,4.84214123 251.625772,4.41962626 251.529198,4.15404543 L251.34812,3.76774603 C251.235659,3.53733539 251.10655,3.31542991 250.96182,3.10379393 C250.877317,2.97100351 250.792814,2.83821309 250.69624,2.70542267 L250.527234,2.4760574 C250.430659,2.3674107 250.322012,2.2829077 250.225437,2.18633285 L249.984,1.8966083 L249.79085,1.76381788 C249.613934,1.61253415 249.428531,1.47146663 249.235545,1.34130291 L248.764743,1.0395065 C248.557218,0.93071637 248.343594,0.833981021 248.124934,0.749781953 L247.617916,0.544560396 C247.388551,0.472129259 247.147114,0.43591369 246.917749,0.387626265 L246.398659,0.278979558 C246.113248,0.260784836 245.826968,0.260784836 245.541557,0.278979558 L245.058683,0.278979558 C241.823425,0.568704109 199.076982,4.64899153 151.030994,26.0765364 C122.179257,38.9089197 99.8463234,58.6101891 85.7946826,82.5245364 L82.1731257,84.0938778 C30.7349461,107.054548 0,151.684201 0,203.484536 L0,204.35371 C0,206.787909 1.41468083,209.000336 3.62155689,210.027483 C4.4511612,210.407659 5.35272852,210.607018 6.26529341,210.607018 L177.021701,210.607018 C177.353542,210.607018 177.684867,210.580507 178.011593,210.522429 L178.44618,210.413782 C178.651401,210.353423 178.856623,210.317207 179.061844,210.244776 C179.267066,210.172345 179.363641,210.099914 179.520575,210.027483 C179.677509,209.955051 179.882731,209.88262 180.051737,209.786045 C180.370453,209.597787 180.673256,209.383806 180.957126,209.146237 L249.766707,151.128896 C251.191128,149.931835 252.005853,148.160693 251.987928,146.300153 L251.987928,6.52012926 L252,6.52012926 Z M189.781653,185.316393 L183.178347,190.881518 L183.178347,67.4467879 L239.481485,19.9923209 L239.481485,143.427051 L189.781653,185.316393 Z M77.3685269,152.58959 L170.659832,152.58959 L170.659832,198.088417 L23.3831856,198.088417 L77.3685269,152.58959 Z M156.113246,37.5206562 C178.103122,27.8384689 201.105857,20.6432813 224.693461,16.0689676 L174.365892,58.5015424 C151.135337,61.3360349 128.286864,66.7161943 106.232335,74.5450394 C118.690491,59.3345005 135.494515,46.7194107 156.113246,37.5206562 Z M94.2691257,92.5441772 C118.777265,82.45587 144.433596,75.4214621 170.659832,71.5995065 L170.659832,140.071075 L81.4729581,140.071075 C82.1160989,123.468998 86.4896762,107.224871 94.2691257,92.5441772 L94.2691257,92.5441772 Z M77.0908743,100.535746 C71.8163703,114.222416 69.0124709,128.736478 68.8095808,143.402908 L13.2790419,190.265854 C17.4800479,152.191219 40.0906347,120.345662 77.0908743,100.535746 Z"></path>
            </g>
        </g>
    </g>
</svg>
