<?xml version="1.0" encoding="UTF-8"?>
<svg version="1.1" xmlns="http://www.w3.org/2000/svg" width="250" height="250" viewBox="0 0 48 48">
<path d="M0 0 C15.84 0 31.68 0 48 0 C48 15.84 48 31.68 48 48 C32.16 48 16.32 48 0 48 C0 32.16 0 16.32 0 0 Z" fill="#E97439" transform="translate(0,0)"/>
<path d="M0 0 C0.99 0.33 1.98 0.66 3 1 C4.39044898 4.87862084 5 7.86462003 5 12 C5.66 12 6.32 12 7 12 C7.33 11.01 7.66 10.02 8 9 C11.96 9 15.92 9 20 9 C20 9.66 20 10.32 20 11 C18.84371094 11.03867187 18.84371094 11.03867187 17.6640625 11.078125 C16.66117188 11.13484375 15.65828125 11.1915625 14.625 11.25 C13.62726562 11.29640625 12.62953125 11.3428125 11.6015625 11.390625 C8.8473523 11.72160885 8.8473523 11.72160885 7.6484375 14.046875 C7.43445313 14.69140625 7.22046875 15.3359375 7 16 C4 15 4 15 2.8125 12.75 C2.00061706 10.00208853 1.83739879 7.84552111 2 5 C1.34 5 0.68 5 0 5 C-0.12375 5.845625 -0.2475 6.69125 -0.375 7.5625 C-1.02770327 11.15236798 -1.95247463 14.50824875 -3 18 C-3.99 18 -4.98 18 -6 18 C-7.485 13.05 -7.485 13.05 -9 8 C-9.66 8.66 -10.32 9.32 -11 10 C-13.8203125 10.1953125 -13.8203125 10.1953125 -17.125 10.125 C-18.22070312 10.10695313 -19.31640625 10.08890625 -20.4453125 10.0703125 C-21.28835937 10.04710937 -22.13140625 10.02390625 -23 10 C-23 9.34 -23 8.68 -23 8 C-19.37 8 -15.74 8 -12 8 C-11.34 6.02 -10.68 4.04 -10 2 C-9.34 2 -8.68 2 -8 2 C-7.01 4.97 -6.02 7.94 -5 11 C-3.15172566 7.3874638 -1.44950455 3.7910119 0 0 Z" fill="#FAE5DA" transform="translate(26,15)"/>
</svg>
