<svg width="297" height="297" viewBox="0 0 297 155" fill="none" xmlns="http://www.w3.org/2000/svg">
<g clip-path="url(#clip0_36:97)">
<path d="M19.8726 33.2378L12.8709 28.9895C12.678 28.8727 12.4614 28.8007 12.237 28.7788C12.0125 28.7569 11.786 28.7857 11.5742 28.863C11.3624 28.9403 11.1706 29.0642 11.0131 29.2255C10.8555 29.3868 10.7362 29.5815 10.6639 29.795C10.043 31.5868 9.85397 33.4999 10.1122 35.3785C10.8736 41.1495 15.8007 45.5964 22.4272 47.3454C20.9591 45.7663 19.9951 43.7855 19.658 41.656C19.3209 39.5265 19.6261 37.3448 20.5347 35.3895C20.7058 35.0119 20.733 34.5846 20.6111 34.1883C20.4891 33.792 20.2265 33.4539 19.8726 33.2378Z" fill="#6A8C40"/>
<path d="M28.4243 17.2544C21.9688 18.1316 16.5231 21.1661 13.2568 25.1881C13.1247 25.3548 13.0298 25.5477 12.9786 25.7541C12.9273 25.9604 12.9207 26.1753 12.9594 26.3844C12.9981 26.5934 13.0811 26.7918 13.2028 26.9661C13.3245 27.1404 13.4821 27.2867 13.665 27.395L21.3895 32.0626C21.6635 32.2253 21.982 32.297 22.2992 32.2672C22.6165 32.2375 22.9161 32.1079 23.1551 31.8971C25.0412 30.2059 27.4597 29.2281 29.9913 29.1334C32.5229 29.0387 35.0077 29.833 37.0149 31.3785C37.3084 31.5994 37.6734 31.7036 38.0393 31.671C38.4051 31.6384 38.7459 31.4713 38.9957 31.2019L46.1077 23.6213C46.2484 23.4685 46.3561 23.2883 46.424 23.092C46.492 22.8958 46.5188 22.6876 46.5027 22.4806C46.4867 22.2735 46.4282 22.072 46.3308 21.8885C46.2334 21.7051 46.0992 21.5437 45.9367 21.4144C41.7048 18.0323 35.288 16.3164 28.4243 17.2544Z" fill="#99CC33"/>
<path d="M34.6206 34.1426H26.2671C25.0665 34.1426 24.0933 35.1159 24.0933 36.3164V44.6695C24.0933 45.8701 25.0665 46.8433 26.2671 46.8433H34.6206C35.8212 46.8433 36.7945 45.8701 36.7945 44.6695V36.3164C36.7945 35.1159 35.8212 34.1426 34.6206 34.1426Z" fill="#9BCA3B"/>
<path d="M60.3812 49.0006C57.8265 49.041 55.3295 48.2403 53.2747 46.7219C53.004 46.5175 52.7829 46.2545 52.6281 45.9526C52.4734 45.6507 52.3888 45.3177 52.3809 44.9785C52.3802 44.772 52.4224 44.5676 52.5047 44.3782C52.587 44.1888 52.7076 44.0185 52.8589 43.8781C53.0103 43.7376 53.1891 43.63 53.3841 43.5621C53.5791 43.4941 53.7861 43.4673 53.992 43.4833C54.5999 43.4898 55.1861 43.7106 55.6472 44.1068C57.0968 45.2193 58.8684 45.8312 60.6957 45.8502C63.1123 45.8502 64.4089 44.9564 64.4089 43.5716C64.4089 42.0544 63.1565 41.4695 60.0281 40.6199C54.5106 39.1468 52.5188 37.2709 52.5188 34.0544C52.5188 30.6999 55.6031 28.5371 60.4309 28.5371C62.3384 28.5505 64.2204 28.9758 65.9483 29.784C67.1566 30.3688 68.0063 31.0806 68.0063 31.9909C68.0207 32.2025 67.9891 32.4148 67.9136 32.613C67.838 32.8112 67.7205 32.9907 67.5689 33.1391C67.4174 33.2875 67.2354 33.4013 67.0357 33.4726C66.8359 33.5439 66.6231 33.5711 66.4118 33.5523C65.7663 33.4858 65.1459 33.2664 64.6021 32.9123C63.2884 32.2207 61.8215 31.8715 60.3371 31.8971C58.1301 31.8971 56.5797 32.4764 56.5797 34.0433C56.5797 35.6102 57.9204 36.0516 61.1371 36.9895C65.9649 38.3633 68.4643 39.6599 68.4643 43.2792C68.4643 46.5895 65.7055 49.0006 60.3812 49.0006Z" fill="#729E01"/>
<path d="M103.506 48.824C103.228 48.8285 102.953 48.7772 102.696 48.6731C102.439 48.5691 102.205 48.4144 102.009 48.2183C101.813 48.0222 101.659 47.7887 101.555 47.5316C101.45 47.2746 101.399 46.9992 101.404 46.7219V37.784C101.404 34.6999 99.9304 32.333 96.6255 32.333C93.3205 32.333 91.3066 34.8819 91.3066 37.8502V46.7219C91.3183 47.0011 91.272 47.2797 91.1705 47.54C91.069 47.8003 90.9145 48.0368 90.717 48.2343C90.5194 48.4319 90.2829 48.5863 90.0226 48.6878C89.7623 48.7893 89.4837 48.8357 89.2045 48.824C88.9262 48.8324 88.649 48.7838 88.3902 48.6811C88.1314 48.5785 87.8962 48.4239 87.6993 48.227C87.5024 48.0301 87.3479 47.795 87.2452 47.5362C87.1426 47.2774 87.0939 47.0003 87.1023 46.7219V37.784C87.1023 34.6999 85.4968 32.333 82.1863 32.333C78.793 32.333 77.0054 34.8819 77.0054 37.8502V46.7219C77.0138 47.0003 76.9652 47.2774 76.8625 47.5362C76.7598 47.795 76.6053 48.0301 76.4084 48.227C76.2115 48.4239 75.9764 48.5785 75.7175 48.6811C75.4587 48.7838 75.1816 48.8324 74.9032 48.824C74.6264 48.8277 74.3516 48.7759 74.0952 48.6715C73.8388 48.5671 73.6059 48.4123 73.4104 48.2163C73.2149 48.0203 73.0607 47.787 72.957 47.5303C72.8533 47.2736 72.8021 46.9988 72.8066 46.7219V30.8599C72.7859 30.577 72.8256 30.2929 72.923 30.0265C73.0203 29.7601 73.1732 29.5174 73.3714 29.3145C73.5696 29.1116 73.8087 28.9531 74.0728 28.8495C74.3368 28.7459 74.6199 28.6996 74.9032 28.7137C75.1879 28.6951 75.4732 28.7383 75.7397 28.8402C76.0061 28.9422 76.2474 29.1004 76.447 29.3042C76.6466 29.508 76.7998 29.7525 76.8962 30.021C76.9926 30.2895 77.0298 30.5757 77.0054 30.8599V32.2888C77.6061 31.1421 78.513 30.1844 79.6254 29.5221C80.7377 28.8598 82.0119 28.5189 83.3063 28.5371C86.523 28.5371 88.9341 30.1426 90.1425 32.5095C90.9254 31.2475 92.0286 30.2151 93.3397 29.5174C94.6509 28.8197 96.1234 28.4815 97.6076 28.5371C103.015 28.5371 105.608 32.2447 105.608 37.4695V46.7219C105.616 47.0003 105.568 47.2774 105.465 47.5362C105.362 47.795 105.208 48.0301 105.011 48.227C104.814 48.4239 104.579 48.5785 104.32 48.6811C104.061 48.7838 103.784 48.8324 103.506 48.824Z" fill="#729E01"/>
<path d="M129.708 46.7219C129.708 47.2736 129.489 47.8027 129.099 48.1927C128.709 48.5828 128.18 48.8019 127.628 48.8019C127.076 48.8019 126.547 48.5828 126.157 48.1927C125.767 47.8027 125.548 47.2736 125.548 46.7219V45.7399C124.811 46.7781 123.829 47.6187 122.69 48.1874C121.55 48.7561 120.288 49.0354 119.015 49.0006C112.759 49.0006 109.139 44.4433 109.139 38.7661C109.139 33.1826 113.161 28.5371 119.462 28.5371C125.896 28.5371 129.697 32.7357 129.697 38.7661L129.708 46.7219ZM119.418 32.1123C115.843 32.1123 113.349 35.1026 113.349 38.7661C113.349 42.6282 115.451 45.4254 119.418 45.4254C123.126 45.4254 125.487 42.253 125.487 38.7661C125.493 34.6557 122.994 32.1123 119.418 32.1123Z" fill="#729E01"/>
<path d="M144.892 32.5537C141.361 32.5537 139.215 34.8819 139.215 39.395V46.7219C139.219 46.9992 139.168 47.2746 139.064 47.5316C138.96 47.7887 138.805 48.0222 138.609 48.2183C138.413 48.4144 138.179 48.5691 137.922 48.6731C137.665 48.7772 137.39 48.8285 137.113 48.824C136.833 48.8392 136.553 48.7952 136.291 48.6949C136.03 48.5945 135.792 48.4401 135.594 48.2417C135.396 48.0433 135.243 47.8054 135.143 47.5435C135.043 47.2817 135 47.0017 135.016 46.7219V30.8599C135.004 30.5749 135.052 30.2906 135.155 30.0249C135.259 29.7593 135.417 29.518 135.619 29.3163C135.82 29.1146 136.062 28.957 136.327 28.8532C136.593 28.7495 136.877 28.702 137.162 28.7137C137.442 28.7051 137.721 28.7556 137.98 28.8617C138.239 28.9678 138.473 29.1272 138.667 29.3296C138.86 29.532 139.009 29.7728 139.103 30.0365C139.198 30.3001 139.236 30.5806 139.215 30.8599V32.7799C139.554 31.5485 140.299 30.4679 141.33 29.7136C142.36 28.9594 143.616 28.5759 144.892 28.6254C145.153 28.6128 145.414 28.6549 145.659 28.7492C145.903 28.8434 146.124 28.9877 146.309 29.1726C146.494 29.3576 146.638 29.5792 146.733 29.8232C146.827 30.0672 146.869 30.3283 146.856 30.5895C146.862 30.8489 146.814 31.1067 146.718 31.3473C146.621 31.588 146.476 31.8066 146.293 31.9901C146.109 32.1735 145.891 32.318 145.65 32.4149C145.409 32.5117 145.152 32.5589 144.892 32.5537Z" fill="#729E01"/>
<path d="M156.242 48.824C155.963 48.8324 155.686 48.7838 155.427 48.6811C155.169 48.5785 154.933 48.4239 154.737 48.227C154.54 48.0301 154.385 47.795 154.282 47.5362C154.18 47.2774 154.131 47.0003 154.14 46.7219V32.5537H150.746C150.509 32.567 150.272 32.5319 150.05 32.4504C149.827 32.369 149.623 32.2429 149.451 32.08C149.278 31.917 149.141 31.7206 149.047 31.5028C148.953 31.2849 148.905 31.0502 148.905 30.813C148.905 30.5758 148.953 30.3411 149.047 30.1232C149.141 29.9053 149.278 29.7089 149.451 29.546C149.623 29.383 149.827 29.257 150.05 29.1755C150.272 29.0941 150.509 29.0589 150.746 29.0723H154.14V23.2185C154.14 22.661 154.361 22.1263 154.755 21.7321C155.15 21.3379 155.684 21.1164 156.242 21.1164C156.799 21.1164 157.334 21.3379 157.728 21.7321C158.122 22.1263 158.344 22.661 158.344 23.2185V29.0723H162.206C162.443 29.0589 162.68 29.0941 162.903 29.1755C163.126 29.257 163.329 29.383 163.502 29.546C163.674 29.7089 163.812 29.9053 163.905 30.1232C163.999 30.3411 164.048 30.5758 164.048 30.813C164.048 31.0502 163.999 31.2849 163.905 31.5028C163.812 31.7206 163.674 31.917 163.502 32.08C163.329 32.2429 163.126 32.369 162.903 32.4504C162.68 32.5319 162.443 32.567 162.206 32.5537H158.344V46.7219C158.352 47.0003 158.304 47.2774 158.201 47.5362C158.098 47.795 157.944 48.0301 157.747 48.227C157.55 48.4239 157.315 48.5785 157.056 48.6811C156.797 48.7838 156.52 48.8324 156.242 48.824Z" fill="#729E01"/>
<path d="M186.764 42.0764L190.698 30.0544C190.773 29.6641 190.986 29.3139 191.298 29.0677C191.611 28.8216 192.001 28.6959 192.398 28.7137C192.644 28.692 192.892 28.7223 193.126 28.8027C193.36 28.8831 193.575 29.0117 193.756 29.1802C193.937 29.3488 194.08 29.5534 194.177 29.781C194.274 30.0086 194.322 30.254 194.318 30.5013C194.302 30.7779 194.24 31.05 194.136 31.3068L188.618 47.6157C188.515 47.9894 188.284 48.3151 187.965 48.5359C187.647 48.7567 187.261 48.8586 186.875 48.824C186.479 48.8459 186.088 48.7343 185.764 48.5071C185.44 48.28 185.202 47.9505 185.087 47.5716L180.552 35.2075L176.055 47.5716C175.939 47.9495 175.7 48.2778 175.376 48.5047C175.052 48.7315 174.662 48.8439 174.267 48.824C173.88 48.8655 173.491 48.7662 173.171 48.5443C172.851 48.3225 172.621 47.9929 172.524 47.6157L167.006 31.3068C166.906 31.049 166.847 30.7773 166.83 30.5013C166.826 30.254 166.874 30.0086 166.971 29.781C167.067 29.5534 167.211 29.3488 167.392 29.1802C167.573 29.0117 167.788 28.8831 168.021 28.8027C168.255 28.7223 168.504 28.692 168.75 28.7137C169.147 28.6959 169.537 28.8216 169.849 29.0677C170.161 29.3139 170.374 29.6641 170.449 30.0544L174.4 42.0764L178.863 29.9385C178.974 29.5744 179.2 29.2555 179.505 29.0289C179.811 28.8024 180.182 28.6801 180.563 28.6801C180.943 28.6801 181.314 28.8024 181.62 29.0289C181.926 29.2555 182.151 29.5744 182.262 29.9385L186.764 42.0764Z" fill="#729E01"/>
<path d="M216.84 46.7219C216.855 47.0037 216.812 47.2855 216.714 47.5502C216.616 47.8149 216.465 48.0569 216.271 48.2615C216.077 48.466 215.843 48.629 215.584 48.7403C215.324 48.8516 215.045 48.909 214.763 48.909C214.481 48.909 214.201 48.8516 213.942 48.7403C213.683 48.629 213.449 48.466 213.255 48.2615C213.06 48.0569 212.91 47.8149 212.812 47.5502C212.714 47.2855 212.671 47.0037 212.685 46.7219V45.7399C211.949 46.7758 210.968 47.6149 209.831 48.1835C208.694 48.752 207.435 49.0326 206.164 49.0006C199.907 49.0006 196.288 44.4433 196.288 38.7661C196.288 33.1826 200.304 28.5371 206.611 28.5371C213.044 28.5371 216.84 32.7357 216.84 38.7661V46.7219ZM206.561 32.1123C202.991 32.1123 200.492 35.1026 200.492 38.7661C200.492 42.6281 202.594 45.4254 206.561 45.4254C210.274 45.4254 212.63 42.253 212.63 38.7661C212.641 34.6557 210.136 32.1123 206.561 32.1123Z" fill="#729E01"/>
<path d="M224.261 20.7578C224.748 20.7567 225.224 20.9001 225.63 21.1698C226.035 21.4395 226.351 21.8235 226.538 22.273C226.725 22.7225 226.775 23.2175 226.681 23.6952C226.586 24.1729 226.352 24.6118 226.008 24.9565C225.665 25.3012 225.226 25.5361 224.749 25.6315C224.271 25.7269 223.776 25.6785 223.326 25.4924C222.876 25.3063 222.491 24.9909 222.221 24.5862C221.95 24.1814 221.806 23.7054 221.806 23.2185C221.811 22.5686 222.072 21.9469 222.531 21.4868C222.99 21.0267 223.611 20.765 224.261 20.7578ZM224.261 48.824C223.983 48.8324 223.705 48.7838 223.447 48.6811C223.188 48.5785 222.953 48.4239 222.756 48.227C222.559 48.0301 222.404 47.795 222.302 47.5362C222.199 47.2774 222.15 47.0003 222.159 46.7219V30.7937C222.159 30.2362 222.38 29.7015 222.774 29.3073C223.169 28.9131 223.703 28.6916 224.261 28.6916C224.818 28.6916 225.353 28.9131 225.747 29.3073C226.142 29.7015 226.363 30.2362 226.363 30.7937V46.7219C226.372 47.0003 226.323 47.2774 226.22 47.5362C226.118 47.795 225.963 48.0301 225.766 48.227C225.569 48.4239 225.334 48.5785 225.075 48.6811C224.816 48.7838 224.539 48.8324 224.261 48.824Z" fill="#729E01"/>
<path d="M239.186 42.6557L244.775 29.8778C244.902 29.5132 245.146 29.2011 245.47 28.9904C245.793 28.7797 246.178 28.6824 246.563 28.7137C246.815 28.7056 247.066 28.7502 247.3 28.8444C247.534 28.9386 247.747 29.0805 247.923 29.2611C248.099 29.4416 248.236 29.6569 248.325 29.8932C248.414 30.1295 248.452 30.3816 248.439 30.6337C248.439 30.9118 248.379 31.1868 248.262 31.4392L240.885 47.704C240.744 48.0372 240.508 48.3213 240.206 48.5211C239.904 48.7209 239.55 48.8274 239.189 48.8274C238.827 48.8274 238.473 48.7209 238.171 48.5211C237.869 48.3213 237.633 48.0372 237.492 47.704L230.126 31.4392C230.009 31.1868 229.949 30.9118 229.95 30.6337C229.936 30.3816 229.974 30.1295 230.063 29.8932C230.152 29.6569 230.289 29.4416 230.465 29.2611C230.642 29.0805 230.854 28.9386 231.088 28.8444C231.322 28.7502 231.573 28.7056 231.825 28.7137C232.21 28.6834 232.594 28.7811 232.917 28.9916C233.241 29.2022 233.485 29.5138 233.613 29.8778L239.186 42.6557Z" fill="#729E01"/>
<path d="M269.532 38.8102C269.532 39.5275 269.129 40.2447 267.921 40.2447H254.563C254.784 43.3233 256.886 45.6516 260.594 45.6516C262.917 45.6516 264.302 44.8461 265.78 43.4447C266.137 43.0491 266.634 42.8078 267.165 42.7716C267.396 42.7647 267.626 42.8051 267.84 42.8903C268.055 42.9755 268.25 43.1037 268.413 43.2669C268.577 43.4302 268.705 43.6252 268.79 43.8398C268.875 44.0544 268.916 44.2842 268.909 44.515C268.877 44.9714 268.681 45.4007 268.357 45.7233C266.674 47.704 263.634 49.0006 260.417 49.0006C253.758 49.0006 250.227 44.355 250.227 38.7661C250.227 32.9123 254.475 28.5371 260.235 28.5371C265.869 28.5371 269.532 33.0944 269.532 38.8102ZM260.235 31.8971C258.853 31.8812 257.515 32.3813 256.483 33.2996C255.45 34.2179 254.797 35.4884 254.652 36.8626H265.642C265.289 34.1647 263.275 31.8971 260.235 31.8971Z" fill="#729E01"/>
<path d="M284.01 32.5537C280.484 32.5537 278.338 34.8819 278.338 39.395V46.7219C278.342 46.9992 278.291 47.2746 278.187 47.5316C278.083 47.7887 277.928 48.0222 277.732 48.2183C277.536 48.4144 277.302 48.5691 277.045 48.6731C276.788 48.7772 276.513 48.8285 276.236 48.824C275.956 48.8392 275.676 48.7952 275.414 48.6949C275.153 48.5945 274.915 48.4401 274.717 48.2417C274.519 48.0433 274.366 47.8054 274.266 47.5435C274.166 47.2817 274.123 47.0017 274.139 46.7219V30.8599C274.127 30.5754 274.175 30.2916 274.278 30.0263C274.382 29.761 274.539 29.52 274.74 29.3184C274.941 29.1168 275.181 28.959 275.446 28.8549C275.712 28.7509 275.995 28.7028 276.28 28.7137C276.56 28.7044 276.839 28.7542 277.099 28.86C277.359 28.9657 277.594 29.125 277.788 29.3275C277.982 29.53 278.131 29.7711 278.226 30.0351C278.321 30.2991 278.359 30.5802 278.338 30.8599V32.7799C278.675 31.5484 279.419 30.4674 280.449 29.7129C281.479 28.9585 282.734 28.5752 284.01 28.6254C284.271 28.612 284.533 28.6536 284.778 28.7474C285.022 28.8413 285.245 28.9855 285.43 29.1705C285.616 29.3556 285.761 29.5774 285.855 29.8218C285.95 30.0663 285.992 30.3278 285.979 30.5895C285.985 30.8494 285.937 31.1076 285.84 31.3487C285.743 31.5897 285.598 31.8086 285.414 31.9921C285.23 32.1756 285.011 32.32 284.769 32.4165C284.528 32.513 284.27 32.5597 284.01 32.5537Z" fill="#729E01"/>
<path d="M34.6206 34.1426H26.2671C25.0665 34.1426 24.0933 35.1159 24.0933 36.3164V44.6695C24.0933 45.8701 25.0665 46.8433 26.2671 46.8433H34.6206C35.8212 46.8433 36.7945 45.8701 36.7945 44.6695V36.3164C36.7945 35.1159 35.8212 34.1426 34.6206 34.1426Z" fill="#6A8C41"/>
</g>
<defs>
<clipPath id="clip0_36:97">
<rect width="276" height="32" fill="white" transform="translate(10 17)"/>
</clipPath>
</defs>
</svg>
