<svg xmlns="http://www.w3.org/2000/svg" width="250" height="250" fill="none"><g clip-path="url(#a)"><path fill="#25C16F" d="M125.232 29.099h71.606a23.848 23.848 0 0 1 22.275 14.814 23.833 23.833 0 0 1 1.775 9.236v71.606a95.026 95.026 0 0 1-95.004 95.004h-.54a95.04 95.04 0 0 1-67.247-27.78 94.968 94.968 0 0 1-27.863-67.212c0-52.647 42.463-95.11 95.004-95.65l-.006-.018Z"/><path fill="#fff" d="M125.233 71.562a43.654 43.654 0 0 0-43.655 43.655V144.9a14.86 14.86 0 0 0 14.519 14.518h12.351v-34.064h-16.68v-9.532c1.016-17.954 15.869-31.991 33.853-31.991 17.983 0 32.889 14.096 33.853 31.991v9.532h-16.897v34.064h11.159v.541a13.65 13.65 0 0 1-13.432 13.432h-13.332c-1.081 0-2.273.54-2.273 1.626.058 1.175 1.039 2.22 2.273 2.273h13.432a17.443 17.443 0 0 0 17.331-17.331v-1.081a14.353 14.353 0 0 0 11.159-14.084v-29.031c.605-24.597-18.894-44.201-43.661-44.201Z"/></g><defs><clipPath id="a"><path fill="#fff" d="M30 29h191v191H30z"/></clipPath></defs></svg>