<?xml version="1.0" encoding="UTF-8"?>
<svg version="1.1" xmlns="http://www.w3.org/2000/svg" width="400" height="400">
<path d="M0 0 C132 0 264 0 400 0 C400 132 400 264 400 400 C268 400 136 400 0 400 C0 268 0 136 0 0 Z " fill="#D72B6C" transform="translate(0,0)"/>
<path d="M0 0 C12.46595373 9.59321299 22.51444213 23.92547899 24.734375 39.765625 C25.82452693 53.71616304 25.03672558 65.31108336 20.015625 78.51171875 C19.71253476 81.23172624 19.71253476 81.23172624 22.23046875 83.61328125 C23.27969175 84.53892798 24.34460861 85.44698996 25.421875 86.33984375 C26.25513306 87.06482056 26.25513306 87.06482056 27.10522461 87.80444336 C28.71991416 89.20562024 30.35065084 90.58596382 31.984375 91.96484375 C33.34072967 93.14984401 34.69527768 94.33692017 36.046875 95.52734375 C36.665625 96.06359375 37.284375 96.59984375 37.921875 97.15234375 C41.44958974 100.2524567 44.90167605 103.43583681 48.36328125 106.609375 C50.52459373 108.5516573 52.72276036 110.39312033 54.984375 112.21484375 C59.25581608 115.88193226 60.82181901 119.2580059 61.359375 124.90234375 C61.12236135 129.87963046 59.84111533 134.01592482 56.33203125 137.69921875 C51.55293976 141.9428095 47.78380442 143.42317186 41.3671875 143.2890625 C33.39674241 142.20455932 27.47020932 134.93790975 21.8671875 129.66796875 C18.96344192 126.94521544 15.99483249 124.32154137 12.984375 121.71875 C10.57633568 119.60701239 8.22207883 117.43963967 5.859375 115.27734375 C5.00730469 114.5296875 4.15523438 113.78203125 3.27734375 113.01171875 C0.984375 110.96484375 0.984375 110.96484375 -0.52734375 109.29296875 C-1.9425221 107.73248756 -1.9425221 107.73248756 -5.015625 106.96484375 C-8.36877126 108.14885126 -11.43298163 109.67616185 -14.6015625 111.2890625 C-27.49900081 117.6197273 -45.28619444 118.16667199 -59.015625 113.96484375 C-68.08763876 110.33834665 -76.85274415 105.66785093 -84.015625 98.96484375 C-84.76070312 98.27261719 -85.50578125 97.58039063 -86.2734375 96.8671875 C-99.30609377 83.635728 -104.30881329 66.3660913 -104.40283203 48.1640625 C-104.09114138 30.84947186 -95.89622 17.09166869 -84.015625 4.96484375 C-83.42394531 4.33707031 -82.83226562 3.70929688 -82.22265625 3.0625 C-78.0161332 -1.03259198 -73.26557836 -3.69785061 -68.078125 -6.34765625 C-67.09380493 -6.85449951 -67.09380493 -6.85449951 -66.08959961 -7.37158203 C-44.93817834 -17.69253497 -18.84441037 -12.71753601 0 0 Z " fill="#D93170" transform="translate(279.015625,182.03515625)"/>
<path d="M0 0 C0.969375 0.35191406 1.93875 0.70382813 2.9375 1.06640625 C21.50600928 8.24275614 36.78336571 21.64714222 46.22265625 39.22265625 C47 41 47 41 47 43 C47.83144531 42.57847656 48.66289062 42.15695313 49.51953125 41.72265625 C50.60621094 41.17480469 51.69289062 40.62695312 52.8125 40.0625 C53.89144531 39.51722656 54.97039062 38.97195312 56.08203125 38.41015625 C62.66121703 35.23065683 69.63295365 34.90667652 76.73046875 36.68359375 C87.06712877 40.54581866 94.60843209 47.03353618 99.4453125 56.96875 C101.61990605 61.98895454 103.24936443 66.55990995 104 72 C105.19625 72.350625 106.3925 72.70125 107.625 73.0625 C124.68082022 78.81951187 136.19689967 87.43405436 144.3203125 103.6328125 C149.29761024 115.84981604 148.76286012 131.91609633 144.27734375 144.19140625 C141.62724119 150.01839017 138.7238629 155.59853724 134 160 C130.2047869 158.50902342 128.38957269 156.24299151 126 153 C126.38671875 152.56171875 126.7734375 152.1234375 127.171875 151.671875 C135.62576654 141.37654174 137.12841671 129.97449466 136.22753906 117.05908203 C135.02204333 106.15012172 128.54756375 97.48187461 120.33203125 90.6015625 C113.965959 86.22955308 106.55568876 83.70561606 98.9375 82.65234375 C96.09639316 81.69576141 94.83258232 80.35786992 93 78 C92.3125 75.046875 92.3125 75.046875 92 71.75 C90.90864528 63.28488338 88.58020819 57.64017845 82 52 C76.36578803 47.94336738 71.98160134 46.17447281 65 47 C58.23901087 48.75363156 54.17991882 51.53140078 49.52734375 56.6328125 C48 58 48 58 45.25 58.1875 C40.90885327 55.89633923 39.36805368 51.84161716 37.35009766 47.51757812 C29.04621431 29.80373583 16.73176417 18.16742975 -1.55078125 11 C-17.23286054 5.51786136 -33.76724086 6.97438825 -48.95703125 13.21484375 C-60.85314557 19.08631648 -69.71388879 28.46957692 -76 40 C-76.39703125 40.68707031 -76.7940625 41.37414062 -77.203125 42.08203125 C-82.44561193 51.68673678 -83.39775174 61.41723826 -83.53393555 72.18261719 C-83.5635437 73.43800293 -83.5635437 73.43800293 -83.59375 74.71875 C-83.60083984 75.47091797 -83.60792969 76.22308594 -83.61523438 76.99804688 C-84.10629041 79.55303384 -84.97983633 80.40409755 -87 82 C-89.03599131 82.83834936 -91.10359063 83.60157664 -93.1875 84.3125 C-102.95775888 87.95601497 -111.53104804 94.02004819 -116.2890625 103.59375 C-117.29097132 106.04446223 -118.20162294 108.47609834 -119 111 C-119.19464844 111.60972656 -119.38929687 112.21945313 -119.58984375 112.84765625 C-122.21048238 126.59976946 -118.9825486 139.17965791 -112 151 C-107.09168812 158.16445524 -100.6690279 162.16548605 -93 166 C-90.87651099 166.12067685 -88.74929112 166.17744375 -86.62255859 166.20532227 C-85.96877731 166.21522186 -85.31499603 166.22512146 -84.6414032 166.23532104 C-82.47711833 166.26694711 -80.3128115 166.29169772 -78.1484375 166.31640625 C-76.64913355 166.33697483 -75.14983541 166.35797128 -73.65054321 166.37937927 C-69.70174869 166.43460988 -65.75290174 166.48401476 -61.80401611 166.53222656 C-57.77554654 166.58243439 -53.74715322 166.6381242 -49.71875 166.69335938 C-41.81256444 166.80095303 -33.90631515 166.90239529 -26 167 C-26 170.3 -26 173.6 -26 177 C-34.58024734 177.06975897 -43.16037458 177.12294189 -51.74083614 177.15543652 C-55.72584547 177.17103868 -59.71065961 177.19217616 -63.69555664 177.22631836 C-67.54702718 177.25910783 -71.39831092 177.27689392 -75.24991035 177.28463173 C-76.71340433 177.29014033 -78.17688902 177.30089662 -79.64030266 177.31719017 C-94.94042922 177.48064082 -104.17745709 174.24083678 -115.48828125 163.67578125 C-127.84457469 150.77954894 -131.62411069 135.49220193 -131.27734375 118.10546875 C-130.7535341 106.93868096 -125.92027185 96.55107594 -118.5625 88.25 C-117.716875 87.5075 -116.87125 86.765 -116 86 C-115.52304688 85.53207031 -115.04609375 85.06414062 -114.5546875 84.58203125 C-109.74914693 80.06668033 -101.78988927 74 -95 74 C-95.04640625 73.319375 -95.0928125 72.63875 -95.140625 71.9375 C-95.83057054 53.40753408 -88.45725918 34.69524767 -76 21 C-75.28457031 20.18144531 -74.56914063 19.36289063 -73.83203125 18.51953125 C-64.85301926 8.83743186 -53.65051793 2.69216345 -41 -1 C-39.91138672 -1.33644531 -39.91138672 -1.33644531 -38.80078125 -1.6796875 C-26.70260071 -4.76229546 -11.62867386 -4.52428092 0 0 Z " fill="#FDF9FA" transform="translate(191,78)"/>
<path d="M0 0 C12.46595373 9.59321299 22.51444213 23.92547899 24.734375 39.765625 C25.82452693 53.71616304 25.03672558 65.31108336 20.015625 78.51171875 C19.71253476 81.23172624 19.71253476 81.23172624 22.23046875 83.61328125 C23.27969175 84.53892798 24.34460861 85.44698996 25.421875 86.33984375 C26.25513306 87.06482056 26.25513306 87.06482056 27.10522461 87.80444336 C28.71991416 89.20562024 30.35065084 90.58596382 31.984375 91.96484375 C33.34072967 93.14984401 34.69527768 94.33692017 36.046875 95.52734375 C36.665625 96.06359375 37.284375 96.59984375 37.921875 97.15234375 C41.44958974 100.2524567 44.90167605 103.43583681 48.36328125 106.609375 C50.52459373 108.5516573 52.72276036 110.39312033 54.984375 112.21484375 C59.25581608 115.88193226 60.82181901 119.2580059 61.359375 124.90234375 C61.12236135 129.87963046 59.84111533 134.01592482 56.33203125 137.69921875 C51.55293976 141.9428095 47.78380442 143.42317186 41.3671875 143.2890625 C33.39674241 142.20455932 27.47020932 134.93790975 21.8671875 129.66796875 C18.96344192 126.94521544 15.99483249 124.32154137 12.984375 121.71875 C10.57633568 119.60701239 8.22207883 117.43963967 5.859375 115.27734375 C5.00730469 114.5296875 4.15523438 113.78203125 3.27734375 113.01171875 C0.984375 110.96484375 0.984375 110.96484375 -0.52734375 109.29296875 C-1.9425221 107.73248756 -1.9425221 107.73248756 -5.015625 106.96484375 C-8.36877126 108.14885126 -11.43298163 109.67616185 -14.6015625 111.2890625 C-27.49900081 117.6197273 -45.28619444 118.16667199 -59.015625 113.96484375 C-68.08763876 110.33834665 -76.85274415 105.66785093 -84.015625 98.96484375 C-84.76070312 98.27261719 -85.50578125 97.58039063 -86.2734375 96.8671875 C-99.30609377 83.635728 -104.30881329 66.3660913 -104.40283203 48.1640625 C-104.09114138 30.84947186 -95.89622 17.09166869 -84.015625 4.96484375 C-83.42394531 4.33707031 -82.83226562 3.70929688 -82.22265625 3.0625 C-78.0161332 -1.03259198 -73.26557836 -3.69785061 -68.078125 -6.34765625 C-67.09380493 -6.85449951 -67.09380493 -6.85449951 -66.08959961 -7.37158203 C-44.93817834 -17.69253497 -18.84441037 -12.71753601 0 0 Z M-62.015625 1.96484375 C-63.15257812 2.49078125 -63.15257812 2.49078125 -64.3125 3.02734375 C-78.85580354 10.2488462 -87.71004894 23.01276576 -93.015625 37.96484375 C-94.24079703 42.23849679 -94.19951588 46.29728407 -94.203125 50.71484375 C-94.21537109 51.48828125 -94.22761719 52.26171875 -94.24023438 53.05859375 C-94.27886092 68.40620878 -87.46991873 80.90536196 -77.21484375 91.89453125 C-67.70984871 101.05352005 -54.43554387 106.37551616 -41.328125 106.27734375 C-40.53647949 106.2717041 -39.74483398 106.26606445 -38.92919922 106.26025391 C-24.07130124 105.95518221 -11.05283661 100.70268985 -0.26953125 90.38671875 C11.87640645 77.33562451 15.65293959 63.29881481 15.29296875 45.890625 C14.64832959 31.8021832 6.97546828 19.92109833 -3 10.328125 C-18.89240417 -2.12641454 -43.48178285 -7.88531012 -62.015625 1.96484375 Z " fill="#FEFAFB" transform="translate(279.015625,182.03515625)"/>
<path d="M0 0 C6.62047665 5.28088187 12.46631828 12.45739285 14 21 C14.87944377 33.12479029 13.86857775 42.81192869 5.8125 52.375 C-1.14360826 59.58280954 -9.59286116 64.15338672 -19.75976562 64.38037109 C-26.9536825 64.36154781 -32.81951508 63.9882087 -39 60 C-40.04220703 59.34644531 -40.04220703 59.34644531 -41.10546875 58.6796875 C-49.56528874 52.87050529 -54.72734114 45.0099132 -57 35 C-57.93500775 26.45135773 -57.43654972 19.43547183 -53 12 C-52.443125 10.989375 -51.88625 9.97875 -51.3125 8.9375 C-38.74349796 -7.02852962 -17.15650331 -12.15468286 0 0 Z " fill="#D82D6D" transform="translate(261,205)"/>
<path d="M0 0 C0.85142578 -0.01611328 1.70285156 -0.03222656 2.58007812 -0.04882812 C14.18525502 -0.0576668 24.92537994 4.73607642 33.49609375 12.53125 C42.95220413 22.489648 46.8160585 33.06772729 46.66040039 46.60717773 C46.13727869 60.09351043 40.30336756 71.08678837 30.66796875 80.38671875 C18.86470582 89.55051186 5.7513955 91.74279839 -8.8125 90.3125 C-20.88186132 87.51180533 -30.59103404 80.27127974 -37.8125 70.3125 C-44.29529724 59.84028908 -46.09775642 48.51581099 -44.8125 36.3125 C-42.72843952 28.28931436 -39.33670557 21.47778621 -33.8125 15.3125 C-33.30074219 14.70921875 -32.78898438 14.1059375 -32.26171875 13.484375 C-23.66959953 4.05149949 -12.48343943 -0.04661479 0 0 Z M-27.0625 22.6875 C-34.20157434 31.44113339 -35.64281827 40.20260765 -34.8125 51.3125 C-32.24816817 62.88862654 -25.60183391 70.92153589 -15.8125 77.3125 C-8.70488616 81.67926929 0.16218559 81.03989404 8.1875 80.3125 C11.81706282 79.4051093 14.91885232 78.11654208 18.1875 76.3125 C19.21875 75.755625 20.25 75.19875 21.3125 74.625 C28.88179433 68.53665456 34.23119744 61.98397076 36.1875 52.3125 C37.2511155 41.8646936 36.5790883 33.1794549 30.19921875 24.65625 C25.81390677 19.50596995 21.29290392 15.29074582 15.1875 12.3125 C14.4553125 11.94769531 13.723125 11.58289063 12.96875 11.20703125 C9.28809489 10.02322504 5.76420821 9.97057348 1.9375 10 C1.17896729 10.00563965 0.42043457 10.0112793 -0.36108398 10.01708984 C-11.66119425 10.26198012 -19.44729833 14.32795531 -27.0625 22.6875 Z " fill="#FEF9FB" transform="translate(238.8125,188.6875)"/>
<path d="M0 0 C5.53029706 3.9760365 10.57968044 8.23314744 15.5 12.9375 C16.81037286 14.17535315 18.12156228 15.41234249 19.43359375 16.6484375 C20.05089355 17.23077148 20.66819336 17.81310547 21.30419922 18.41308594 C23.35756686 20.33460763 25.44587468 22.21096263 27.5625 24.0625 C28.15289062 24.57941406 28.74328125 25.09632813 29.3515625 25.62890625 C30.46047014 26.55124412 31.6030649 27.43436613 32.7734375 28.27734375 C35.80802226 30.50697997 36.96130098 31.88593974 38.1875 35.5 C38 39 38 39 36 42 C33 44 33 44 29.74609375 44.0078125 C24.88450379 42.69989779 22.53698476 40.38823006 19.0625 36.875 C17.82754516 35.67633877 16.59187421 34.47841487 15.35546875 33.28125 C14.48027588 32.42080078 14.48027588 32.42080078 13.58740234 31.54296875 C11.74137362 29.74861293 9.83117971 28.04821032 7.875 26.375 C4.39819013 23.3536674 0.93400679 20.31990004 -2.5 17.25 C-3.04156738 16.77739746 -3.58313477 16.30479492 -4.14111328 15.81787109 C-5.48557496 14.60685905 -6.75002076 13.30831161 -8 12 C-8 8.03869629 -6.65122875 7.17085599 -4 4.3125 C-3.2575 3.50425781 -2.515 2.69601562 -1.75 1.86328125 C-1.1725 1.24839844 -0.595 0.63351562 0 0 Z " fill="#D9316F" transform="translate(292,271)"/>
</svg>
