<svg xmlns="http://www.w3.org/2000/svg" viewBox="0 0 256 157.675" width="256" height="158"><path d="M159.446 0l-3.543 11.516.08 53.15H169.2v7.087h7.087l7.087-7.087h12.4l23.03-23.03V0h-59.35zm53.15 38.1l-9.744 9.744h-15.945l-8.858 8.858v-8.858H164.76V6.2h47.834V38.1zM196.65 17.716h6.2v17.716h-6.2V17.716zm-15.945 0h6.2v17.716h-6.2V17.716zM256 100.097v41.633l-23.03 15.945h-14.173v-7.087l-10.63 7.087h-12.4v-7.087l-7.972 7.087h-23.03l-7.087-7.087-1.772 7.087-20.33-.053-8.017-7.033-.886 7.087-23.03-.053-.886-7.033-6.2 7.033-35.433.053-7.087-3.543v3.543H34.547l-21.26-13.287L0 131.1V72.637h27.46l13.287 13.287h60.235V72.637h49.606v13.287H163V93l7.087-7.087h15.06l13.287-13.287h28.346v13.287h15.06zM34.547 92.125h-12.4V78.837H6.2v49.606l9.744 10.63h18.602v-16.83h-12.4V108.07h12.4V92.125zm66.436 0H85.038v30.118h-6.2V92.125H63.78v30.118h-6.2V92.125h-16.83v46.948h49.606l10.63-10.63V92.125zm21.26 0h-15.06v46.948h15.06V92.125zm0-13.287h-15.06v7.086h15.06v-7.086zm34.547 13.287h-12.4V78.837h-15.945v49.606l9.744 10.63h18.602v-16.83h-12.4V108.07h12.4V92.125zm40.747 0h-24.803L163 101.87v26.574l10.63 10.63h23.917v-16.83H179.82V108.07h17.716V92.125zm52.263 9.744l-10.63-9.744h-18.602V78.837h-16.83v60.235h16.83V108.07h12.4v31.003h16.83V101.87z" fill="#6441a4" fill-rule="evenodd"/></svg>