<?xml version="1.0" encoding="utf-8"?>
<svg xmlns="http://www.w3.org/2000/svg" viewBox="217.6723 231.4012 34.84 19" width="250px" height="250px">
  <path class="cls-2" d="M0,0V4.42a5.06,5.06,0,0,1,5,5,5,5,0,0,1-5,5C0,15.74,0,19,0,19H26.17L9.2,0Z" style="fill: rgb(22, 192, 222); mix-blend-mode: multiply;" transform="matrix(1, 0, 0, 1, 217.67234802246094, 231.4011993408203)"/>
  <path class="cls-3" d="M34.81,4.61c0-1.34,0-4.61,0-4.61H9.2l17,19h8.64V14.59a5.06,5.06,0,0,1-5-5A5,5,0,0,1,34.81,4.61Z" style="fill: rgb(27, 146, 193);" transform="matrix(1, 0, 0, 1, 217.67234802246094, 231.4011993408203)"/>
</svg>
