<?xml version="1.0" encoding="UTF-8"?>
<svg xmlns="http://www.w3.org/2000/svg" xmlns:xlink="http://www.w3.org/1999/xlink" width="250px" height="250px" viewBox="0 0 250 250" version="1.1">
<g id="surface1">
<path style=" stroke:none;fill-rule:nonzero;fill:rgb(11.372549%,10.980392%,22.352941%);fill-opacity:1;" d="M 218.09375 250 L 32.324219 250 C 14.695312 250 0.210938 235.726562 0.210938 217.882812 L 0.210938 32.117188 C 0.210938 14.484375 14.484375 0 32.324219 0 L 218.09375 0 C 235.726562 0 250.210938 14.273438 250.210938 32.117188 L 250.210938 217.882812 C 250 235.726562 235.726562 250 218.09375 250 Z M 218.09375 250 "/>
<path style=" stroke:none;fill-rule:nonzero;fill:rgb(100%,100%,100%);fill-opacity:1;" d="M 123.425781 109.78125 C 130.351562 109.78125 134.339844 106.003906 134.339844 99.496094 C 134.339844 93.410156 130.144531 89.210938 123.636719 89.210938 L 107.890625 89.210938 L 107.890625 77.664062 C 107.890625 69.269531 101.804688 64.863281 95.929688 64.863281 C 90.050781 64.863281 83.964844 69.269531 83.964844 77.664062 L 83.964844 157.851562 C 83.964844 177.160156 91.730469 185.769531 108.941406 185.769531 C 118.179688 185.769531 123.636719 183.460938 127.625 180.941406 C 130.5625 179.261719 131.820312 175.691406 131.820312 172.964844 C 131.820312 167.714844 128.464844 162.046875 123.425781 162.046875 C 122.796875 162.046875 121.957031 162.257812 121.328125 162.46875 C 121.117188 162.679688 120.695312 162.679688 120.488281 162.886719 C 119.226562 163.519531 117.339844 164.359375 114.820312 164.359375 C 111.671875 164.359375 108.101562 163.308594 108.101562 154.703125 L 108.101562 109.78125 Z M 123.425781 109.78125 "/>
<path style=" stroke:none;fill-rule:nonzero;fill:rgb(100%,13.333333%,69.411765%);fill-opacity:1;" d="M 174.644531 143.578125 C 163.097656 143.578125 153.652344 153.023438 153.652344 164.566406 C 153.652344 176.113281 163.097656 185.558594 174.644531 185.558594 C 186.1875 185.558594 195.632812 176.113281 195.632812 164.566406 C 195.632812 152.8125 186.1875 143.578125 174.644531 143.578125 Z M 174.644531 143.578125 "/>
</g>
</svg>
