<svg version="1.1" id="Layer_1" xmlns="http://www.w3.org/2000/svg" xmlns:xlink="http://www.w3.org/1999/xlink" x="0px" y="0px"
	 width="100%" viewBox="0 0 1024 1024" enable-background="new 0 0 1024 1024" xml:space="preserve">
<path fill="#000000" opacity="1.000000" stroke="none" 
	d="
M257.999939,617.341553 
	C228.836212,617.342651 200.172424,617.387512 171.508850,617.327332 
	C152.868698,617.288208 142.700409,600.109070 151.935379,583.883972 
	C165.120331,560.719116 178.574158,537.705811 192.072495,514.721375 
	C198.551788,503.688660 211.756607,503.547150 218.462708,514.424988 
	C223.792953,523.071228 228.674149,531.993469 233.841278,540.742004 
	C234.738388,542.260986 235.206055,544.169250 237.040024,545.119934 
	C239.115692,544.303284 239.765259,542.278198 240.741043,540.628113 
	C246.592194,530.733765 252.288071,520.746948 258.198883,510.888824 
	C259.856903,508.123535 259.879608,505.848114 258.239319,503.043457 
	C242.847839,476.726440 227.589493,450.331604 212.232437,423.994385 
	C207.933868,416.622406 202.644897,416.632324 198.396042,423.956055 
	C166.389557,479.125214 134.397751,534.302856 102.423714,589.490784 
	C97.769424,597.524231 100.412178,602.312805 109.662697,602.531250 
	C116.158463,602.684692 122.660721,602.545959 129.159866,602.578918 
	C135.723999,602.612183 139.056534,605.054810 139.093399,609.786804 
	C139.128860,614.338379 135.330750,617.304565 129.300598,617.332886 
	C121.801567,617.368164 114.301826,617.384827 106.803078,617.324463 
	C88.919121,617.180481 78.881638,599.733398 87.833076,584.119080 
	C100.675499,561.717590 113.689926,539.414734 126.650398,517.080994 
	C146.299957,483.220428 165.954361,449.362640 185.632309,415.518555 
	C191.890182,404.755615 202.814819,400.654449 213.721741,404.914612 
	C219.666107,407.236389 223.180862,411.998688 226.239624,417.302582 
	C239.387833,440.101349 252.596191,462.865479 265.812653,485.624817 
	C266.706268,487.163696 267.227570,489.043579 269.969635,490.293488 
	C278.172333,476.228485 286.409180,462.104950 294.918579,447.514069 
	C291.519745,446.874176 289.176666,448.370117 286.696808,448.872101 
	C282.105835,449.801361 278.225067,447.940887 276.993530,444.070557 
	C275.611237,439.726410 277.502319,436.019043 282.497040,434.506134 
	C291.408508,431.806854 300.394257,429.336517 309.407959,426.997833 
	C313.962830,425.816040 317.754639,428.391113 319.106934,433.399658 
	C321.404388,441.908691 323.597168,450.447906 325.687622,459.010162 
	C326.867035,463.840790 324.788788,467.609192 320.549591,468.920685 
	C316.596771,470.143524 312.667816,467.679718 311.073669,462.946350 
	C310.301697,460.654205 310.410278,458.011139 308.460175,456.156952 
	C306.445587,456.706268 306.115234,458.557007 305.319183,459.919250 
	C297.084076,474.011414 288.997345,488.191162 280.657898,502.220825 
	C278.717316,505.485565 278.675629,508.022797 280.625000,511.344360 
	C294.620514,535.192261 308.150085,559.317200 322.376038,583.025085 
	C333.062958,600.835083 318.894379,618.526855 302.483124,617.527710 
	C287.872406,616.638245 273.164795,617.340820 257.999939,617.341553 
M302.009460,578.415588 
	C291.329193,560.077087 280.648895,541.738525 269.865173,523.222351 
	C266.858704,525.362549 265.884766,527.907349 264.564789,530.148682 
	C259.750763,538.323120 255.144730,546.621338 250.258545,554.751648 
	C243.935471,565.272827 230.386703,565.151611 224.173538,554.590942 
	C219.192307,546.124146 214.333984,537.584900 209.324997,529.134827 
	C208.191345,527.222351 207.548050,524.818665 205.015808,523.747375 
	C204.546555,524.286499 204.035400,524.716553 203.718933,525.260010 
	C190.822556,547.410278 177.891006,569.540466 165.102264,591.752808 
	C162.162735,596.858459 164.510101,601.207336 170.526337,602.264954 
	C172.637360,602.636047 174.838181,602.576050 176.998093,602.577759 
	C217.469437,602.610168 257.940796,602.622620 298.412140,602.637024 
	C299.910980,602.637573 301.416138,602.701599 302.907593,602.590881 
	C309.891693,602.072571 312.630341,597.296204 309.351471,591.171021 
	C307.152557,587.063293 304.707703,583.087158 302.009460,578.415588 
z"/>
<path fill="#000000" opacity="1.000000" stroke="none" 
	d="
M433.012543,524.092041 
	C441.451477,549.340515 449.758270,574.217163 458.297913,599.791077 
	C451.732025,600.619080 445.981445,600.299744 440.248810,600.120178 
	C438.154114,600.054626 437.728119,598.184143 437.208130,596.623413 
	C435.683411,592.047241 434.067108,587.492859 432.784851,582.847656 
	C431.906067,579.664185 430.384521,578.144470 426.862854,578.216614 
	C417.543427,578.407837 408.216003,578.382751 398.895172,578.231506 
	C395.725220,578.180115 394.033539,579.217102 393.194946,582.376404 
	C391.916779,587.191833 390.131073,591.870483 388.753784,596.662720 
	C387.981445,599.350037 386.470062,600.449646 383.696808,600.315552 
	C380.540863,600.163086 377.368073,600.177551 374.209778,600.301941 
	C370.230408,600.458496 369.243591,598.997925 370.586395,595.174744 
	C375.049255,582.468140 379.305115,569.688660 383.616425,556.929016 
	C388.940521,541.171936 394.406189,525.459412 399.448395,509.612396 
	C400.926605,504.966644 403.237488,503.162720 408.039154,503.626282 
	C411.997803,504.008484 416.059814,504.041595 420.009216,503.613312 
	C424.788574,503.095062 426.963776,505.194092 428.165344,509.520721 
	C429.498230,514.320190 431.289001,518.992493 433.012543,524.092041 
M416.230682,531.168091 
	C415.293030,528.443726 414.355347,525.719421 413.417694,522.995056 
	C413.037018,523.022156 412.656372,523.049255 412.275696,523.076416 
	C408.014313,536.369446 403.752930,549.662476 399.389526,563.273682 
	C408.863770,563.273682 417.370758,563.273682 426.492401,563.273682 
	C423.036774,552.422852 419.770874,542.167786 416.230682,531.168091 
z"/>
<path fill="#000000" opacity="1.000000" stroke="none" 
	d="
M607.350342,574.000122 
	C607.349426,580.999451 607.019226,587.520691 607.450378,593.991211 
	C607.800964,599.252930 605.709290,600.914978 600.838745,600.312256 
	C599.197388,600.109131 597.493896,600.133362 595.846313,600.309937 
	C591.557983,600.769592 588.977051,599.414185 589.729675,593.416565 
	C582.357666,599.763428 574.597717,601.843506 565.962280,601.340393 
	C549.827026,600.400208 540.279114,585.932800 546.830872,571.827454 
	C550.962036,562.933350 559.288025,560.367310 568.019165,558.763672 
	C573.771606,557.707031 579.609558,557.457336 585.442871,557.739807 
	C588.764709,557.900635 590.017029,556.514038 589.643127,553.306763 
	C589.081421,548.488892 588.004578,544.107117 582.607727,542.321533 
	C575.913879,540.106812 568.138672,542.091614 563.868347,547.108521 
	C562.708313,548.471375 562.471130,551.448059 559.673218,550.489868 
	C555.917725,549.203674 551.993042,548.086975 548.871460,545.529602 
	C547.703003,544.572388 548.805298,543.024658 549.433716,541.875366 
	C552.006470,537.170166 555.876465,533.764160 560.692627,531.617188 
	C570.325134,527.323120 580.305420,526.564270 590.409668,529.743469 
	C601.103455,533.108215 607.103027,541.238892 607.310791,552.502686 
	C607.439819,559.499695 607.344666,566.500793 607.350342,574.000122 
M566.131165,572.568665 
	C561.571106,577.624634 561.201233,582.684631 565.141724,586.105103 
	C569.125244,589.562927 577.604187,589.481201 583.542786,585.927612 
	C588.411133,583.014526 590.856079,577.258606 589.699036,571.762451 
	C589.376343,570.229492 588.678101,569.268250 587.130188,569.263306 
	C580.198059,569.241089 573.116516,568.233398 566.131165,572.568665 
z"/>
<path fill="#000000" opacity="1.000000" stroke="none" 
	d="
M489.450745,548.552856 
	C487.029388,552.156982 486.299103,555.823608 486.318756,559.751160 
	C486.376099,571.236755 486.193115,582.725769 486.421722,594.207153 
	C486.508759,598.579285 485.409882,600.483704 480.599762,600.346436 
	C466.442444,599.942505 468.805023,601.769897 468.700958,588.383789 
	C468.563812,570.739807 468.806763,553.092163 468.571869,535.450317 
	C468.510132,530.811768 470.046234,529.013977 474.561890,529.640015 
	C475.378448,529.753235 476.224243,529.655334 477.056549,529.655151 
	C485.513550,529.653320 485.513550,529.653381 486.904236,537.714233 
	C494.264984,529.987732 503.156342,526.633545 513.529907,528.333923 
	C526.304199,530.427734 533.496399,538.713989 534.110535,553.182556 
	C534.716980,567.472839 534.242554,581.807800 534.319458,596.122742 
	C534.335510,599.103210 533.042297,600.124146 530.127380,600.310181 
	C516.594238,601.174500 516.714050,601.241516 516.568848,587.883301 
	C516.451416,577.075867 517.186462,566.255981 516.101379,555.458923 
	C515.591614,550.387390 514.248169,545.642456 508.887115,543.963501 
	C502.816803,542.062378 496.716766,542.155762 491.387726,546.449707 
	C490.746216,546.966553 490.235962,547.646301 489.450745,548.552856 
z"/>
<path fill="#000000" opacity="1.000000" stroke="none" 
	d="
M689.229553,601.094238 
	C686.560303,607.608154 683.879089,613.708557 681.542603,619.938232 
	C680.370117,623.064575 678.582642,624.531433 675.232178,624.243652 
	C671.461182,623.919678 667.613770,624.726379 663.949951,623.685974 
	C662.936340,621.573608 664.049438,619.963074 664.711914,618.313721 
	C666.696472,613.372375 668.231506,608.164978 670.855896,603.585205 
	C675.317444,595.799255 674.195251,588.854858 670.470337,581.072083 
	C663.288635,566.067017 656.973083,550.646912 650.335449,535.382812 
	C649.689575,533.897522 648.599609,532.508728 649.002563,530.007263 
	C654.386536,529.373047 659.932739,529.447144 665.457764,529.972351 
	C667.384399,530.155518 667.680542,532.267029 668.299622,533.758728 
	C672.637146,544.210327 676.918640,554.685242 681.254456,565.137634 
	C682.136108,567.263000 683.172302,569.324219 684.623291,572.467834 
	C689.093079,561.009216 693.132996,550.510742 697.281189,540.055176 
	C702.284546,527.444153 698.838501,529.959839 712.678955,529.667175 
	C714.151489,529.636047 715.681213,529.473999 717.952148,530.874573 
	C708.453125,554.083618 698.906555,577.408875 689.229553,601.094238 
z"/>
<path fill="#000000" opacity="1.000000" stroke="none" 
	d="
M918.586670,587.729248 
	C922.541931,586.747742 925.157959,584.642212 925.275391,580.863892 
	C925.401245,576.814209 922.518982,574.673340 919.020020,573.352356 
	C911.846985,570.644165 904.018921,570.303223 896.941528,567.216858 
	C890.660583,564.477844 886.558838,559.979309 885.759583,553.051086 
	C884.839966,545.079102 886.965637,538.220520 893.783020,533.298828 
	C898.247253,530.075867 903.355896,528.408020 908.685486,528.061035 
	C919.916748,527.329712 930.289062,529.632751 937.937622,538.775330 
	C941.289917,542.782471 940.902954,543.778076 936.059265,545.966858 
	C934.694092,546.583862 933.254517,547.052063 931.935303,547.751282 
	C929.449768,549.068726 927.637451,549.156616 925.543335,546.572693 
	C921.054443,541.033936 914.699463,540.459106 908.203491,541.577454 
	C905.074646,542.116089 902.765869,544.164429 902.401794,547.624756 
	C901.999756,551.445496 904.255615,553.701782 907.523743,554.633179 
	C914.393188,556.590881 921.474915,557.844604 928.271057,560.010193 
	C941.106506,564.100220 946.189514,577.502930 939.815918,589.447388 
	C937.679199,593.451721 934.471619,596.382141 930.377258,598.016846 
	C917.465332,603.172424 904.736694,602.954224 892.430908,595.977783 
	C891.565613,595.487183 890.678955,594.957581 889.977417,594.267944 
	C887.150269,591.488831 882.830322,588.330750 884.382996,584.514526 
	C885.860840,580.882202 891.344910,580.624634 895.146851,579.076965 
	C896.760315,578.420288 897.435303,580.016724 898.218567,581.038757 
	C903.371521,587.763000 910.215759,589.463257 918.586670,587.729248 
z"/>
<path fill="#000000" opacity="1.000000" stroke="none" 
	d="
M863.194885,575.467896 
	C868.562378,573.905640 872.091736,577.540588 875.997559,579.659363 
	C877.634827,580.547485 876.248108,582.737610 875.533142,584.180725 
	C870.317139,594.708496 861.306335,599.953186 850.085938,601.104248 
	C835.026245,602.649170 821.420044,599.171326 813.698425,584.866272 
	C805.929382,570.473389 806.117981,555.514526 815.693848,541.866943 
	C829.045776,522.837830 861.873718,523.154297 873.881775,542.023621 
	C877.346924,547.468506 877.116577,548.286621 871.398621,550.809875 
	C870.028076,551.414673 868.585938,551.892273 867.293884,552.632874 
	C864.376831,554.304871 862.511108,554.142090 860.540344,550.815369 
	C856.340454,543.725586 849.515198,541.393677 841.635193,542.566650 
	C834.194763,543.674194 830.065247,548.652466 828.149780,555.638611 
	C826.489502,561.693909 826.438110,567.875854 827.836853,573.925537 
	C829.642151,581.734070 835.439636,586.850281 842.579285,587.609253 
	C851.996582,588.610352 858.046387,585.092407 863.194885,575.467896 
z"/>
<path fill="#000000" opacity="1.000000" stroke="none" 
	d="
M762.961304,600.215210 
	C758.960754,601.273132 755.317017,601.490662 751.644775,601.272949 
	C739.758484,600.568237 732.724548,593.204224 732.649170,581.276184 
	C732.579773,570.294800 732.492432,559.310547 732.682922,548.332214 
	C732.755188,544.166931 731.571960,542.023376 727.066589,542.379639 
	C721.862000,542.791199 722.905823,538.862610 722.843628,535.859863 
	C722.777832,532.677490 722.360657,529.112000 727.417908,529.668762 
	C731.417480,530.108948 733.234558,528.006042 732.514709,524.373047 
	C730.928528,516.367554 735.176758,512.855225 742.010010,510.984253 
	C744.360779,510.340607 746.399353,508.657135 749.605774,508.603027 
	C750.675293,513.622742 750.325195,518.579407 750.086243,523.426941 
	C749.856262,528.090454 751.186890,530.437927 756.162537,529.643799 
	C756.487000,529.592041 756.827087,529.637573 757.159851,529.638611 
	C765.411743,529.662903 766.720093,531.367310 765.308838,539.782471 
	C764.995789,541.648499 764.161316,542.378296 762.411194,542.432495 
	C760.417053,542.494263 758.338623,543.016235 756.446960,542.620605 
	C750.451904,541.366699 749.964600,544.591797 750.098633,549.306396 
	C750.358643,558.450684 750.148987,567.607422 750.208679,576.758545 
	C750.264709,585.348694 752.691406,587.791809 761.013977,586.451965 
	C765.333435,585.756531 766.626465,587.145935 766.128784,590.948792 
	C765.713379,594.122864 767.990234,598.183838 762.961304,600.215210 
z"/>
<path fill="#000000" opacity="1.000000" stroke="none" 
	d="
M641.315918,547.000000 
	C641.311829,562.997070 641.161438,578.496338 641.393127,593.989868 
	C641.462646,598.640137 640.240662,600.518921 635.274109,600.366821 
	C621.919495,599.958130 623.717041,601.606506 623.678040,588.974670 
	C623.596313,562.479919 623.845764,535.982239 623.505737,509.491608 
	C623.428162,503.450134 624.739258,499.656830 630.949097,498.189545 
	C634.118042,497.440735 636.718872,494.888977 641.315979,494.777283 
	C641.315979,512.110901 641.315979,529.305420 641.315918,547.000000 
z"/>
<path fill="#000000" opacity="1.000000" stroke="none" 
	d="
M411.956787,441.906097 
	C406.039856,450.698303 400.324249,459.191711 394.608643,467.685150 
	C394.823120,468.298615 395.037598,468.912079 395.252075,469.525543 
	C402.144257,469.525543 409.040253,469.661804 415.927032,469.468719 
	C419.433319,469.370422 422.141388,469.306427 422.215454,474.088348 
	C422.284180,478.527100 420.154663,479.352753 416.362091,479.305206 
	C405.040649,479.163300 393.716187,479.279114 382.393402,479.214417 
	C380.497681,479.203613 378.105621,479.880707 377.069946,477.556641 
	C376.091766,475.361755 377.186676,473.370026 378.464539,471.524506 
	C386.425140,460.027679 394.374847,448.523346 402.310333,437.009186 
	C403.423798,435.393585 404.893921,433.932373 404.937103,431.767059 
	C403.659302,429.783173 401.657471,430.417084 399.932587,430.388580 
	C394.438965,430.297913 388.942841,430.283295 383.448639,430.337097 
	C379.729645,430.373474 379.738892,427.884674 379.699677,425.245453 
	C379.660919,422.637085 380.046967,420.657166 383.392944,420.676361 
	C395.381531,420.745117 407.371735,420.613556 419.359161,420.749115 
	C423.025299,420.790588 424.146606,423.117279 422.047577,426.600952 
	C418.958374,431.727966 415.474091,436.616913 411.956787,441.906097 
z"/>
<path fill="#000000" opacity="1.000000" stroke="none" 
	d="
M477.665894,421.219116 
	C477.763184,415.417755 481.797607,417.169067 484.617157,416.980316 
	C487.798889,416.767334 488.392548,418.843231 488.354645,421.532379 
	C488.270691,427.484924 488.328552,433.439484 488.328552,440.207764 
	C493.799957,436.886627 498.715881,434.367126 504.686188,435.477814 
	C512.185120,436.872864 517.007019,441.709656 517.247925,449.330994 
	C517.521179,457.973999 517.229004,466.633453 517.359741,475.283081 
	C517.421631,479.378662 514.772583,479.217529 512.009094,479.219788 
	C509.217712,479.222076 506.586945,479.275665 506.651733,475.237213 
	C506.761139,468.417755 506.719086,461.594086 506.628174,454.773651 
	C506.535736,447.839905 503.526306,444.355316 497.872192,444.407593 
	C492.044586,444.461517 488.553436,448.222321 488.380096,454.935791 
	C488.238434,460.422791 488.394562,465.916779 488.315857,471.406219 
	C488.261780,475.177094 489.662415,479.490753 482.872192,479.385773 
	C476.451508,479.286469 477.658752,475.237976 477.649902,471.606079 
	C477.609283,454.968353 477.647644,438.330444 477.665894,421.219116 
z"/>
<path fill="#000000" opacity="1.000000" stroke="none" 
	d="
M796.277100,592.903931 
	C796.167908,600.262451 796.166931,600.342834 789.316345,600.262085 
	C776.903137,600.115845 778.760986,601.725037 778.686523,589.695862 
	C778.574097,571.542236 778.782104,553.385803 778.560608,535.234192 
	C778.506592,530.809570 779.907043,529.456177 784.266541,529.585571 
	C798.174316,529.998413 796.182983,527.822693 796.260498,541.451172 
	C796.357117,558.439087 796.280029,575.427917 796.277100,592.903931 
z"/>
<path fill="#000000" opacity="1.000000" stroke="none" 
	d="
M424.789185,454.433685 
	C427.329834,440.159943 441.409882,432.625946 454.996704,436.003052 
	C466.666382,438.903625 473.412201,449.902161 471.167969,462.109100 
	C469.194305,472.844330 457.504608,481.124329 446.191833,479.800110 
	C431.986237,478.137207 424.421967,469.346497 424.789185,454.433685 
M459.657196,459.168945 
	C459.650513,450.262299 456.857910,445.552673 450.889130,444.381866 
	C444.630737,443.154205 439.521332,446.143036 437.688293,452.103851 
	C435.328827,459.776489 438.159821,468.033020 443.937653,470.231476 
	C444.699524,470.521393 445.539001,470.650116 446.355164,470.747955 
	C453.863678,471.648254 457.609375,468.606964 459.657196,459.168945 
z"/>
<path fill="#000000" opacity="1.000000" stroke="none" 
	d="
M564.667358,471.585144 
	C554.641357,481.613525 539.845337,482.559357 530.190308,474.055756 
	C522.941528,467.671448 520.736694,458.012207 524.488281,449.075470 
	C528.138062,440.381256 538.326538,434.343140 547.907532,435.196228 
	C567.051758,436.900818 575.793945,455.474152 564.667358,471.585144 
M544.870605,470.811890 
	C552.268921,470.810730 555.814453,468.323914 557.385681,462.033875 
	C559.593018,453.197662 555.588379,445.243927 548.441345,444.269348 
	C541.802673,443.364136 536.826843,446.754333 535.490723,453.092926 
	C533.609802,462.016235 536.745544,468.473206 544.870605,470.811890 
z"/>
<path fill="#000000" opacity="1.000000" stroke="none" 
	d="
M797.281128,508.333099 
	C797.741333,513.571838 796.040710,517.284241 791.411865,519.109558 
	C787.197083,520.771545 783.190491,520.075134 779.961243,516.805176 
	C776.859985,513.664856 776.163696,509.854309 778.044678,505.829224 
	C779.922546,501.811035 783.471375,499.820892 787.685608,500.010529 
	C792.567871,500.230225 796.074097,502.842224 797.281128,508.333099 
z"/>
</svg>
