<svg version="1.1" id="Layer_1" xmlns="http://www.w3.org/2000/svg" xmlns:xlink="http://www.w3.org/1999/xlink" x="0px" y="0px"
	 width="100%" viewBox="0 0 500 500" enable-background="new 0 0 500 500" xml:space="preserve">
<path fill="#ffffff" opacity="1.000000" stroke="none" 
	d="
M242.000000,501.000000 
	C161.333359,501.000000 81.166702,501.000000 1.000043,501.000000 
	C1.000029,334.333405 1.000029,167.666779 1.000014,1.000133 
	C167.666565,1.000088 334.333130,1.000088 500.999756,1.000044 
	C500.999847,167.666519 500.999847,334.333038 500.999939,500.999786 
	C414.833344,501.000000 328.666656,501.000000 242.000000,501.000000 
M117.893173,132.478134 
	C117.602524,132.374313 117.311882,132.270477 116.090675,132.025131 
	C104.723183,132.072311 93.355698,132.119492 81.478142,132.106812 
	C81.374313,132.397461 81.270493,132.688126 81.025139,133.909317 
	C81.016922,222.615219 81.008148,311.321136 81.007370,400.027039 
	C81.007362,401.021942 81.111267,402.016876 81.106834,403.521851 
	C81.397476,403.625671 81.688118,403.729492 82.909317,403.974854 
	C94.276810,403.927673 105.644310,403.880524 117.521919,403.893158 
	C117.625725,403.602509 117.729530,403.311829 117.974869,402.090607 
	C117.983086,313.384705 117.991859,224.678833 117.992638,135.972946 
	C117.992645,134.978027 117.888733,133.983124 117.893173,132.478134 
M282.000000,353.500000 
	C282.000000,370.235046 282.000000,386.970093 282.000000,403.617859 
	C295.115112,403.617859 307.351898,403.617859 319.562744,403.617859 
	C319.562744,301.592957 319.562744,199.950867 319.562744,98.382072 
	C306.885162,98.382072 294.648560,98.382072 282.000000,98.382072 
	C282.000000,183.342300 282.000000,267.921143 282.000000,353.500000 
M384.000000,212.500000 
	C384.000000,276.218964 384.000000,339.937927 384.000000,403.597290 
	C396.715759,403.597290 408.758423,403.597290 420.575867,403.597290 
	C420.575867,324.187042 420.575867,245.180054 420.575867,166.314240 
	C408.225800,166.314240 396.301910,166.314240 384.000000,166.314240 
	C384.000000,181.583481 384.000000,196.541733 384.000000,212.500000 
M181.000000,321.500000 
	C181.000000,348.900330 181.000000,376.300690 181.000000,403.747742 
	C193.641388,403.747742 205.562134,403.747742 217.728851,403.747742 
	C217.728851,336.157623 217.728851,268.819855 217.728851,201.340439 
	C205.417099,201.340439 193.378586,201.340439 181.000000,201.340439 
	C181.000000,241.286591 181.000000,280.893311 181.000000,321.500000 
z"/>
<path fill="#5C8D38" opacity="1.000000" stroke="none" 
	d="
M282.000000,353.000000 
	C282.000000,267.921143 282.000000,183.342300 282.000000,98.382072 
	C294.648560,98.382072 306.885162,98.382072 319.562744,98.382072 
	C319.562744,199.950867 319.562744,301.592957 319.562744,403.617859 
	C307.351898,403.617859 295.115112,403.617859 282.000000,403.617859 
	C282.000000,386.970093 282.000000,370.235046 282.000000,353.000000 
z"/>
<path fill="#EF813C" opacity="1.000000" stroke="none" 
	d="
M81.166664,403.011780 
	C81.111267,402.016876 81.007362,401.021942 81.007370,400.027039 
	C81.008148,311.321136 81.016922,222.615219 81.244247,133.320557 
	C81.654404,132.558365 81.829353,132.369980 81.988205,132.166656 
	C93.355698,132.119492 104.723183,132.072311 116.679428,132.244232 
	C117.441635,132.654388 117.630020,132.829330 117.833336,132.988205 
	C117.888733,133.983124 117.992645,134.978027 117.992638,135.972946 
	C117.991859,224.678833 117.983086,313.384705 117.755753,402.679382 
	C117.345573,403.441589 117.170624,403.629974 117.011803,403.833344 
	C105.644310,403.880524 94.276810,403.927673 82.320572,403.755768 
	C81.558380,403.345642 81.369995,403.170685 81.166664,403.011780 
z"/>
<path fill="#E5222B" opacity="1.000000" stroke="none" 
	d="
M384.000000,212.000000 
	C384.000000,196.541733 384.000000,181.583481 384.000000,166.314240 
	C396.301910,166.314240 408.225800,166.314240 420.575867,166.314240 
	C420.575867,245.180054 420.575867,324.187042 420.575867,403.597290 
	C408.758423,403.597290 396.715759,403.597290 384.000000,403.597290 
	C384.000000,339.937927 384.000000,276.218964 384.000000,212.000000 
z"/>
<path fill="#167DC1" opacity="1.000000" stroke="none" 
	d="
M181.000000,321.000000 
	C181.000000,280.893311 181.000000,241.286591 181.000000,201.340439 
	C193.378586,201.340439 205.417099,201.340439 217.728851,201.340439 
	C217.728851,268.819855 217.728851,336.157623 217.728851,403.747742 
	C205.562134,403.747742 193.641388,403.747742 181.000000,403.747742 
	C181.000000,376.300690 181.000000,348.900330 181.000000,321.000000 
z"/>
<path fill="#EF813C" opacity="1.000000" stroke="none" 
	d="
M81.733170,132.136734 
	C81.829353,132.369980 81.654404,132.558365 81.315018,132.855286 
	C81.270493,132.688126 81.374313,132.397461 81.733170,132.136734 
z"/>
<path fill="#EF813C" opacity="1.000000" stroke="none" 
	d="
M117.863251,132.733170 
	C117.630020,132.829330 117.441635,132.654388 117.144707,132.315002 
	C117.311882,132.270477 117.602524,132.374313 117.863251,132.733170 
z"/>
<path fill="#EF813C" opacity="1.000000" stroke="none" 
	d="
M81.136749,403.266815 
	C81.369995,403.170685 81.558380,403.345642 81.855293,403.684998 
	C81.688118,403.729492 81.397476,403.625671 81.136749,403.266815 
z"/>
<path fill="#EF813C" opacity="1.000000" stroke="none" 
	d="
M117.266861,403.863251 
	C117.170624,403.629974 117.345573,403.441589 117.684998,403.144653 
	C117.729530,403.311829 117.625725,403.602509 117.266861,403.863251 
z"/>
</svg>
