<svg xmlns="http://www.w3.org/2000/svg" width="250" height="250" fill="none"><g clip-path="url(#a)"><path fill="#1999E3" d="M231.912 145.7c0 13.004-5.392 25.477-15.025 34.323a1.547 1.547 0 0 1-2.21 0c-3.535-3.361-7.689-6.015-12.197-7.873-2.739-1.062-7.158-1.681-7.158-5.573 0-.796.265-1.592.618-2.3.089-.089.089-.177.177-.265a43.86 43.86 0 0 0 6.982-17.958v-.089c.265-1.68.442-3.361.442-5.13v.088c-.353-9.642-8.485-17.161-18.118-16.808-9.104.354-16.439 7.697-16.793 16.808.089 1.681.177 3.362.442 5.131v.088a43.869 43.869 0 0 0 6.982 17.958c.089.088.089.177.177.265.442.708.619 1.416.619 2.3 0 3.716-4.066 4.247-6.717 5.308-.796.354-1.238 1.327-.884 2.123.088.177.177.354.265.442 1.061 1.239 2.121 2.566 3.182 3.893 3.005 3.98 5.656 8.315 7.777 12.915l.089.089c.088.088.088.176.088.265l.089.177v.354a1.62 1.62 0 0 1-1.238 1.592h-.353c-.442 0-.796-.177-1.061-.442-9.368-9.996-19.797-17.958-33.055-21.85a4.147 4.147 0 0 1-.883-.443c-.177-.088-.354-.176-.531-.353-3.093-2.124-3.623-6.016-1.944-9.2 2.386-4.6 5.303-8.758 7.247-13.623 5.038-12.474 8.131-27.866-.265-39.631-8.927-12.65-26.338-15.658-38.976-6.723-.177.088-.266.177-.442.354-2.387 1.769-4.508 3.98-6.275 6.369-8.397 11.765-5.303 27.157-.266 39.631 1.945 4.865 4.861 9.023 7.248 13.623 1.679 3.184 1.149 7.076-1.945 9.2l-.53.353c-.265.177-.619.266-.884.443-13.257 3.892-23.686 11.854-33.055 21.85-.265.265-.707.442-1.149.442h-.353a1.62 1.62 0 0 1-1.237-1.592v-.354c0-.089 0-.089.088-.177 0-.089.088-.177.088-.265l.089-.089c2.121-4.6 4.684-8.935 7.777-12.915a43.805 43.805 0 0 1 3.182-3.893c.619-.619.53-1.68-.088-2.211-.177-.089-.265-.265-.442-.265-2.652-1.062-6.717-1.593-6.717-5.308 0-.796.265-1.592.618-2.3.089-.089.089-.177.177-.266a43.865 43.865 0 0 0 6.982-17.957v-.089c.266-1.68.442-3.361.442-5.13v-.089c-.353-9.642-8.396-17.161-18.03-16.808-9.103.354-16.438 7.697-16.792 16.808.088 1.681.177 3.362.442 5.131v.088A43.862 43.862 0 0 0 55.59 164.1c.088.088.088.177.177.265.442.708.618 1.416.618 2.3 0 3.893-4.507 4.512-7.158 5.573-4.508 1.858-8.662 4.512-12.197 7.874a1.547 1.547 0 0 1-2.21 0c-18.737-17.339-20.062-46.531-3.093-65.55 7.512-8.404 17.853-13.712 29.077-14.95.62-.089 1.061-.443 1.326-.974 15.202-35.738 56.034-52.192 91.21-36.8 16.262 7.166 29.255 20.347 36.148 36.8.265.531.707.885 1.326.974 23.421 2.388 41.098 22.292 41.098 46.088Z"/></g><defs><clipPath id="a"><path fill="#fff" d="M19 56h213v138H19z"/></clipPath></defs></svg>