<svg xmlns="http://www.w3.org/2000/svg" width="250" height="250" fill="none"><g clip-path="url(#a)"><path fill="#632CA6" d="m186.448 165.725-16.207-10.72-13.52 22.648-15.725-4.611-13.845 21.192.71 6.671 75.279-13.91-4.373-47.168-12.319 25.898Zm-70.203-20.336 12.078-1.665c1.954.88 3.314 1.216 5.657 1.813 3.65.954 7.874 1.869 14.13-1.293 1.456-.724 4.489-3.505 5.715-5.09l49.485-9.003 5.048 61.27-84.776 15.322-7.337-61.354Zm91.922-22.077-4.884.933-9.384-97.23L34 45.61l19.699 160.31 18.716-2.724c-1.495-2.14-3.822-4.729-7.796-8.044-5.512-4.592-3.563-12.393-.312-17.318 4.302-8.323 26.467-18.899 25.211-32.202-.45-4.837-1.217-11.134-5.694-15.448-.168 1.791.134 3.516.134 3.516s-1.838-2.352-2.755-5.56c-.91-1.229-1.624-1.622-2.59-3.265-.69 1.901-.6 4.105-.6 4.105s-1.503-3.564-1.746-6.571c-.892 1.346-1.117 3.904-1.117 3.904s-1.955-5.617-1.509-8.642c-.891-2.633-3.535-7.857-2.787-19.732 4.88 3.429 15.623 2.614 19.809-3.573 1.39-2.048 2.34-7.643-.694-18.664-1.95-7.068-6.777-17.592-8.659-21.584l-.225.162c.992 3.216 3.037 9.96 3.822 13.23 2.375 9.917 3.012 13.368 1.897 17.94-.948 3.975-3.223 6.575-8.99 9.482-5.767 2.916-13.42-4.18-13.905-4.572-5.603-4.476-9.937-11.779-10.422-15.326-.502-3.883 2.232-6.215 3.61-9.39-1.972.565-4.172 1.569-4.172 1.569s2.626-2.724 5.863-5.08a34.616 34.616 0 0 0 3.54-2.634 78.807 78.807 0 0 0-3.706.026s3.41-1.849 6.945-3.194c-2.586-.115-5.061-.019-5.061-.019s7.61-3.413 13.62-5.918c4.134-1.7 8.172-1.197 10.44 2.092 2.978 4.31 6.106 6.65 12.735 8.102 4.07-1.81 5.308-2.74 10.422-4.137 4.502-4.964 8.037-5.607 8.037-5.607s-1.754 1.613-2.222 4.147c2.552-2.017 5.35-3.7 5.35-3.7s-1.083 1.341-2.093 3.472l.235.35c2.978-1.792 6.479-3.204 6.479-3.204s-1.001 1.269-2.175 2.911c2.245-.018 6.8.096 8.567.297 10.436.23 12.601-11.177 16.605-12.607 5.014-1.796 7.255-2.882 15.8 5.534 7.332 7.226 13.061 20.159 10.217 23.056-2.384 2.405-7.089-.937-12.303-7.455-2.755-3.452-4.839-7.531-5.815-12.717-.823-4.376-4.029-6.915-4.029-6.915s1.861 4.148 1.861 7.812c0 2 .25 9.481 3.449 13.679-.316.614-.464 3.037-.814 3.5-3.722-4.51-11.714-7.739-13.018-8.69 4.411 3.625 14.551 11.952 18.446 19.933 3.683 7.546 1.512 14.464 3.376 16.255.53.513 7.921 9.748 9.343 14.388 2.48 8.088.148 16.586-3.099 21.859l-9.065 1.416c-1.327-.369-2.221-.554-3.41-1.245.655-1.164 1.958-4.066 1.972-4.663l-.512-.902c-2.821 4.009-7.548 7.901-11.475 10.137-5.139 2.92-11.063 2.47-14.919 1.273-10.945-3.386-21.294-10.803-23.79-12.751 0 0-.077 1.556.394 1.905 2.76 3.121 9.082 8.767 15.192 12.703l-13.026 1.437 6.158 48.088c-2.73.392-3.155.584-6.145 1.01-2.634-9.333-7.673-15.427-13.18-18.976-4.858-3.131-11.558-3.835-17.97-2.562l-.413.479c4.46-.466 9.724.182 15.131 3.616 5.308 3.365 9.585 12.057 11.159 17.29 2.016 6.69 3.41 13.844-2.016 21.428-3.86 5.39-15.13 8.37-24.235 1.925 2.432 3.922 5.72 7.129 10.144 7.734 6.57.894 12.806-.249 17.099-4.668 3.665-3.778 5.608-11.678 5.096-19.999l5.799-.844 2.093 14.934L216 199.922l-7.833-76.61Zm-58.405-40.557c-.269.614-.689 1.015-.057 3.011l.039.115.1.257.264.598c1.139 2.336 2.391 4.54 4.481 5.665a14.566 14.566 0 0 1 1.682-.183c1.963-.086 3.203.226 3.99.65.07-.392.086-.967.043-1.813-.152-2.96.585-7.992-5.087-10.64-2.14-.998-5.143-.69-6.144.554.182.023.345.061.473.105 1.513.531.487 1.054.216 1.681m15.895 27.61c-.744-.411-4.22-.249-6.663.043-4.655.55-9.68 2.17-10.781 3.032-2.002 1.551-1.092 4.257.386 5.368 4.148 3.108 7.783 5.19 11.621 4.684 2.357-.31 4.434-4.052 5.906-7.447 1.008-2.338 1.008-4.861-.469-5.68m-41.209-23.946c1.313-1.25-6.538-2.893-12.63 1.273-4.493 3.073-4.637 9.662-.335 13.397.43.369.785.631 1.117.846a36.614 36.614 0 0 1 4.334-1.729c2.782-.906 5.096-1.374 6.998-1.623.91-1.02 1.968-2.815 1.704-6.066-.36-4.41-3.692-3.71-1.188-6.098Z"/></g><defs><clipPath id="a"><path fill="#fff" d="M34 27h182v196H34z"/></clipPath></defs></svg>