<?xml version="1.0" encoding="UTF-8"?>
<svg xmlns="http://www.w3.org/2000/svg" xmlns:xlink="http://www.w3.org/1999/xlink" width="250px" height="250px" viewBox="0 0 250 250" version="1.1">
<g id="surface1">
<rect x="0" y="0" width="250" height="250" style="fill:rgb(100%,100%,100%);fill-opacity:1;stroke:none;"/>
<path style=" stroke:none;fill-rule:nonzero;fill:rgb(0%,0%,0%);fill-opacity:1;" d="M 56.628906 151.707031 L 59.773438 151.707031 C 60.492188 151.707031 61.136719 151.0625 61.175781 150.34375 L 61.175781 115.339844 C 61.175781 111.894531 58.449219 109.089844 55.078125 109.089844 L 51.023438 109.089844 C 50.304688 109.089844 49.660156 108.449219 49.660156 107.726562 L 49.660156 104.546875 C 49.660156 101.097656 46.933594 98.296875 43.5625 98.296875 L 17.460938 98.296875 C 14.089844 98.296875 11.363281 101.0625 11.363281 104.546875 L 11.363281 139.734375 C 11.363281 143.144531 14.089844 145.949219 17.460938 145.988281 L 47.691406 145.988281 C 47.957031 145.988281 48.222656 146.0625 48.449219 146.214844 L 55.835938 151.515625 C 56.0625 151.628906 56.363281 151.707031 56.628906 151.707031 Z M 49.28125 140.949219 L 17.539062 140.949219 C 16.78125 140.949219 16.175781 140.34375 16.175781 139.585938 L 16.175781 104.621094 C 16.175781 103.863281 16.78125 103.257812 17.539062 103.257812 L 43.484375 103.257812 C 44.207031 103.257812 44.847656 103.902344 44.847656 104.621094 L 44.847656 107.726562 C 44.847656 108.484375 44.242188 109.089844 43.484375 109.089844 L 24.167969 109.089844 C 23.449219 109.089844 22.804688 109.734375 22.804688 110.453125 L 22.804688 133.789062 C 22.804688 134.546875 23.410156 135.152344 24.167969 135.152344 L 48.296875 135.152344 C 49.015625 135.152344 49.660156 134.507812 49.660156 133.789062 L 49.660156 115.417969 C 49.660156 114.660156 50.265625 114.054688 51.023438 114.054688 L 54.964844 114.054688 C 55.683594 114.054688 56.328125 114.699219 56.328125 115.417969 L 56.328125 144.015625 C 56.328125 144.738281 55.570312 145.113281 55.039062 144.738281 L 50.113281 141.214844 C 49.8125 141.023438 49.546875 140.949219 49.28125 140.949219 Z M 44.128906 130.152344 L 28.296875 130.152344 C 27.953125 130.152344 27.652344 129.886719 27.652344 129.46875 L 27.652344 114.660156 C 27.652344 114.320312 27.917969 113.976562 28.296875 113.976562 L 44.128906 113.976562 C 44.472656 113.976562 44.773438 114.242188 44.773438 114.660156 L 44.773438 129.46875 C 44.773438 129.847656 44.507812 130.152344 44.128906 130.152344 Z M 183.527344 105.757812 C 185.535156 105.757812 187.164062 104.089844 187.164062 102.046875 C 187.164062 100 185.535156 98.332031 183.527344 98.332031 C 181.519531 98.332031 179.890625 100 179.890625 102.046875 C 179.890625 104.089844 181.519531 105.757812 183.527344 105.757812 Z M 141.859375 111.210938 L 141.859375 109.128906 L 135.988281 109.128906 L 135.988281 134.964844 L 141.859375 134.964844 L 141.859375 117.3125 L 148.714844 114.394531 L 148.714844 108.371094 L 148.640625 108.371094 Z M 119.054688 109.089844 C 115.230469 109.089844 112.125 110.378906 109.738281 112.953125 C 108.640625 114.167969 107.804688 115.53125 107.199219 117.160156 C 106.632812 118.75 106.328125 120.457031 106.328125 122.199219 C 106.328125 125.835938 107.351562 128.828125 109.398438 131.136719 C 111.667969 133.675781 114.777344 134.925781 118.714844 134.925781 C 122.578125 134.925781 125.648438 133.636719 127.996094 131.0625 C 130.191406 128.597656 131.292969 125.53125 131.292969 121.820312 C 131.292969 118.105469 130.191406 115.078125 128.070312 112.726562 C 125.875 110.304688 122.84375 109.089844 119.054688 109.089844 Z M 123.679688 127.464844 C 122.578125 128.863281 120.988281 129.585938 119.054688 129.585938 C 116.972656 129.585938 115.230469 128.863281 113.941406 127.425781 C 113.335938 126.78125 112.84375 125.949219 112.542969 125 C 112.199219 124.054688 112.046875 123.105469 112.046875 122.085938 C 112.046875 120 112.578125 118.296875 113.714844 116.820312 C 114.925781 115.265625 116.59375 114.46875 118.714844 114.46875 C 120.800781 114.46875 122.464844 115.191406 123.640625 116.667969 C 124.738281 118.03125 125.34375 119.847656 125.34375 122.085938 C 125.308594 124.28125 124.777344 126.097656 123.679688 127.464844 Z M 180.574219 109.128906 L 186.40625 109.128906 L 186.40625 135 L 180.574219 135 Z M 91.253906 109.089844 C 87.917969 109.089844 85.152344 110.074219 83.03125 112.082031 C 81.023438 113.976562 80.039062 116.363281 80.039062 119.242188 C 80.039062 121.78125 80.910156 123.902344 82.691406 125.605469 C 81.175781 126.855469 80.417969 128.335938 80.417969 130.078125 C 80.417969 131.136719 80.570312 132.085938 80.796875 132.878906 C 81.023438 133.714844 81.515625 134.394531 82.238281 135 C 79.585938 136.476562 78.296875 138.902344 78.410156 142.199219 C 78.488281 145.078125 79.699219 147.351562 82.046875 149.054688 C 84.433594 150.796875 87.578125 151.628906 91.402344 151.628906 C 95.269531 151.628906 98.148438 150.871094 100.078125 149.359375 C 102.046875 147.84375 103.035156 145.644531 103.035156 142.804688 C 103.035156 139.964844 102.238281 137.765625 100.683594 136.214844 C 99.851562 135.378906 98.753906 134.734375 97.425781 134.128906 C 96.0625 133.5625 94.246094 133.105469 91.898438 132.726562 C 89.511719 132.347656 87.84375 131.933594 86.820312 131.402344 C 86.328125 131.214844 86.023438 130.949219 85.910156 130.722656 C 85.761719 130.492188 85.722656 130.152344 85.722656 129.699219 C 85.722656 129.242188 86.023438 128.636719 86.59375 127.84375 C 87.917969 128.296875 89.359375 128.523438 90.910156 128.523438 C 94.09375 128.523438 96.707031 127.539062 98.753906 125.605469 C 99.660156 124.699219 100.382812 123.636719 100.875 122.425781 C 101.367188 121.210938 101.632812 119.886719 101.632812 118.371094 C 101.632812 116.894531 101.289062 115.457031 100.609375 114.167969 C 100.609375 114.167969 100.609375 114.128906 100.570312 114.128906 L 103.035156 114.128906 L 103.035156 109.054688 L 91.253906 109.054688 Z M 87.160156 137.007812 L 88.375 137.199219 C 91.78125 137.730469 94.207031 138.410156 95.609375 139.320312 C 96.859375 140.113281 97.464844 141.175781 97.464844 142.5 C 97.464844 145.265625 95.53125 146.59375 91.667969 146.59375 C 89.394531 146.59375 87.578125 146.101562 86.140625 145.191406 C 85.496094 144.773438 85.003906 144.242188 84.660156 143.675781 C 84.28125 143.109375 84.132812 142.425781 84.132812 141.628906 C 84.132812 140.835938 84.359375 140 84.851562 139.128906 C 85.382812 138.296875 86.140625 137.613281 87.160156 137.007812 Z M 94.546875 122.234375 C 93.601562 123.105469 92.503906 123.5625 91.214844 123.5625 C 89.511719 123.5625 88.183594 123.070312 87.125 122.121094 C 86.632812 121.707031 86.328125 121.175781 86.023438 120.683594 C 85.796875 120.113281 85.644531 119.585938 85.644531 118.976562 C 85.644531 118.410156 85.761719 117.804688 85.988281 117.234375 C 86.746094 115.265625 88.375 114.320312 90.988281 114.320312 C 92.539062 114.320312 93.789062 114.734375 94.660156 115.570312 C 95.53125 116.402344 96.027344 117.5 96.027344 118.863281 C 96.027344 120.078125 95.53125 121.25 94.546875 122.234375 Z M 212.242188 114.734375 C 212.695312 115.910156 212.921875 117.273438 212.921875 118.789062 L 212.921875 134.925781 L 207.164062 134.925781 L 207.164062 133.714844 C 205.421875 134.507812 203.832031 134.925781 202.390625 134.925781 C 200.574219 134.925781 199.058594 134.734375 197.769531 134.394531 C 196.484375 134.054688 195.382812 133.523438 194.511719 132.878906 C 192.734375 131.515625 191.824219 129.546875 191.824219 126.96875 C 191.824219 124.699219 192.921875 122.765625 195.121094 121.25 C 197.507812 119.585938 200.800781 118.75 204.929688 118.75 L 205.878906 118.789062 C 205.992188 118.789062 206.066406 118.789062 206.179688 118.789062 C 206.292969 118.789062 206.40625 118.789062 206.519531 118.789062 C 206.636719 118.789062 206.75 118.828125 206.824219 118.828125 C 206.9375 118.828125 207.050781 118.828125 207.128906 118.863281 C 206.976562 116.328125 205.914062 114.773438 203.871094 114.394531 C 203.226562 114.242188 202.46875 114.203125 201.75 114.203125 C 200.953125 114.203125 200.234375 114.28125 199.511719 114.394531 C 198.757812 114.546875 198.074219 114.734375 197.390625 114.960938 C 195.914062 115.457031 194.777344 116.023438 194.132812 116.667969 L 194.058594 116.628906 L 193.339844 111.363281 C 196.066406 109.886719 199.136719 109.167969 202.390625 109.167969 C 207.582031 109.089844 210.839844 110.949219 212.242188 114.734375 Z M 207.164062 128.789062 L 207.164062 123.21875 C 206.710938 123.144531 206.292969 123.105469 205.839844 123.105469 L 204.890625 123.105469 C 201.445312 123.105469 199.25 123.902344 198.300781 125.457031 C 198.035156 125.910156 197.882812 126.402344 197.882812 126.894531 C 197.882812 127.425781 198 127.878906 198.148438 128.257812 C 198.339844 128.636719 198.640625 128.976562 199.058594 129.242188 C 199.855469 129.734375 201.105469 129.964844 202.695312 129.964844 C 204.285156 129.964844 205.800781 129.546875 207.164062 128.789062 Z M 234.550781 120.53125 C 235.539062 121.023438 236.332031 121.589844 236.9375 122.273438 C 238.039062 123.523438 238.644531 125.191406 238.644531 127.3125 C 238.644531 129.546875 237.773438 131.402344 235.992188 132.804688 C 234.171875 134.28125 231.597656 135 228.265625 135 C 224.285156 135 221.144531 134.320312 218.945312 132.957031 L 218.945312 126.59375 C 218.945312 126.554688 219.097656 126.707031 219.324219 126.96875 C 219.550781 127.234375 220.042969 127.539062 220.6875 127.957031 C 221.332031 128.371094 222.128906 128.714844 222.960938 129.015625 C 224.816406 129.660156 226.75 130 228.792969 130 C 231.484375 130 232.847656 129.054688 232.847656 127.234375 C 232.847656 126.667969 232.582031 126.214844 232.050781 125.910156 C 231.144531 125.417969 229.78125 125.039062 228 124.8125 C 226.21875 124.546875 224.742188 124.207031 223.605469 123.714844 C 222.46875 123.21875 221.523438 122.652344 220.800781 121.96875 C 219.476562 120.683594 218.792969 119.054688 218.792969 117.007812 C 218.792969 114.507812 219.742188 112.539062 221.597656 111.136719 C 223.453125 109.734375 226.03125 109.015625 229.324219 109.015625 C 232.582031 109.015625 235.347656 109.960938 237.660156 111.855469 C 237.546875 112.273438 237.46875 112.691406 237.316406 113.070312 C 236.9375 114.128906 236.675781 114.886719 236.523438 115.339844 L 235.992188 116.742188 C 235.953125 116.894531 235.917969 116.933594 235.917969 116.933594 C 235.878906 116.933594 235.765625 116.742188 235.539062 116.402344 C 234.550781 115.226562 233 114.46875 230.953125 114.089844 C 230.308594 113.941406 229.667969 113.902344 228.984375 113.902344 C 226.144531 113.902344 224.703125 114.773438 224.703125 116.515625 C 224.703125 117.082031 224.96875 117.578125 225.574219 117.878906 C 226.671875 118.484375 228.226562 118.941406 230.160156 119.242188 C 232.089844 119.660156 233.53125 120.039062 234.550781 120.53125 Z M 163.339844 109.089844 C 160.003906 109.089844 157.238281 110.074219 155.117188 112.082031 C 153.109375 113.976562 152.125 116.363281 152.125 119.242188 C 152.125 121.78125 152.996094 123.902344 154.777344 125.605469 C 153.261719 126.855469 152.503906 128.335938 152.503906 130.078125 C 152.503906 131.136719 152.65625 132.085938 152.882812 132.878906 C 153.109375 133.714844 153.601562 134.394531 154.324219 135 C 151.671875 136.476562 150.382812 138.902344 150.496094 142.199219 C 150.574219 145.078125 151.785156 147.351562 154.132812 149.054688 C 156.519531 150.796875 159.664062 151.628906 163.488281 151.628906 C 167.351562 151.628906 170.230469 150.871094 172.164062 149.359375 C 174.132812 147.84375 175.117188 145.644531 175.117188 142.804688 C 175.117188 139.964844 174.324219 137.765625 172.769531 136.214844 C 171.9375 135.378906 170.839844 134.734375 169.511719 134.128906 C 168.148438 133.5625 166.332031 133.105469 163.980469 132.726562 C 161.59375 132.347656 159.929688 131.933594 158.90625 131.402344 C 158.414062 131.214844 158.109375 130.949219 157.996094 130.722656 C 157.84375 130.492188 157.808594 130.152344 157.808594 129.699219 C 157.808594 129.242188 158.109375 128.636719 158.679688 127.84375 C 160.003906 128.296875 161.445312 128.523438 162.996094 128.523438 C 166.179688 128.523438 168.792969 127.539062 170.839844 125.605469 C 171.746094 124.699219 172.46875 123.636719 172.960938 122.425781 C 173.453125 121.210938 173.71875 119.886719 173.71875 118.371094 C 173.71875 116.894531 173.375 115.457031 172.695312 114.167969 C 172.695312 114.167969 172.695312 114.128906 172.65625 114.128906 L 175.117188 114.128906 L 175.117188 109.054688 L 163.339844 109.054688 Z M 159.246094 137.007812 L 160.460938 137.199219 C 163.867188 137.730469 166.292969 138.410156 167.695312 139.320312 C 168.945312 140.113281 169.550781 141.175781 169.550781 142.5 C 169.550781 145.265625 167.617188 146.59375 163.753906 146.59375 C 161.480469 146.59375 159.664062 146.101562 158.222656 145.191406 C 157.582031 144.773438 157.089844 144.242188 156.746094 143.675781 C 156.367188 143.109375 156.214844 142.425781 156.214844 141.628906 C 156.214844 140.835938 156.445312 140 156.9375 139.128906 C 157.464844 138.296875 158.222656 137.613281 159.246094 137.007812 Z M 166.632812 122.234375 C 165.6875 123.105469 164.589844 123.5625 163.300781 123.5625 C 161.59375 123.5625 160.269531 123.070312 159.210938 122.121094 C 158.753906 121.707031 158.414062 121.175781 158.109375 120.683594 C 157.882812 120.113281 157.730469 119.585938 157.730469 118.976562 C 157.730469 118.410156 157.84375 117.804688 158.074219 117.234375 C 158.832031 115.265625 160.460938 114.320312 163.074219 114.320312 C 164.625 114.320312 165.875 114.734375 166.746094 115.570312 C 167.617188 116.402344 168.109375 117.5 168.109375 118.863281 C 168.109375 120.078125 167.617188 121.25 166.632812 122.234375 Z M 166.632812 122.234375 "/>
</g>
</svg>
