<?xml version="1.0" encoding="UTF-8"?>
<svg xmlns="http://www.w3.org/2000/svg" xmlns:xlink="http://www.w3.org/1999/xlink" width="250px" height="250px" viewBox="0 0 250 250" version="1.1">
<g id="surface1">
<rect x="0" y="0" width="250" height="250" style="fill:rgb(100%,100%,100%);fill-opacity:1;stroke:none;"/>
<path style=" stroke:none;fill-rule:nonzero;fill:rgb(0%,0%,0%);fill-opacity:1;" d="M 0 125 L 0 250 L 250 250 L 250 0 L 0 0 Z M 140 48.5 C 146.0625 49.75 154.5625 52.5625 159.5 55.0625 C 170.8125 60.6875 183 71.4375 189.75 81.6875 C 203.8125 103 206.6875 129.75 197.5 153.625 C 195.625 158.5625 189.4375 169.375 186.625 172.8125 L 185.0625 174.625 L 183.3125 173.25 C 182.375 172.5 179.9375 170.8125 178 169.5625 C 176.0625 168.25 174.4375 167 174.4375 166.75 C 174.375 166.5 175.5 164.8125 176.875 163 C 180.1875 158.625 185.1875 148.375 186.8125 142.5 C 194.6875 114.125 182.375 83.8125 157.1875 69.4375 C 147.5625 63.875 135.4375 60.625 124.875 60.625 C 102.875 60.625 81.5 72.8125 69.875 91.9375 C 64 101.625 60.625 113.8125 60.6875 125.3125 C 60.6875 131.5625 62.625 142 64.9375 147.875 C 67 153.1875 72.1875 162.3125 74.5 164.8125 C 75.3125 165.6875 75.625 166.5 75.25 166.8125 C 73.9375 168.0625 65.3125 174.375 64.875 174.375 C 64.125 174.375 58.875 166.625 56 161.1875 C 50 149.875 47.375 138.875 47.3125 125 C 47.3125 114.625 48.125 109.4375 51.0625 100.3125 C 58.1875 78.375 76.5 59.5625 98.5625 51.625 C 111.5 47 126.75 45.875 140 48.5 Z M 137.125 96.4375 C 143.375 99.375 147.75 103.75 150.9375 110.1875 C 153.0625 114.5625 153.3125 115.5625 153.625 121.125 C 153.8125 126.1875 153.6875 127.8125 152.5 131.25 C 149.8125 139.25 144.75 145.0625 137.1875 148.8125 C 132.9375 150.875 132.625 150.9375 125 150.9375 C 117.375 150.9375 117.0625 150.875 112.875 148.8125 C 97.6875 141.4375 92 124.625 99.375 109.125 C 102.375 102.875 110.8125 96.1875 118 94.375 C 119.25 94.0625 123 93.875 126.375 94 C 131.75 94.1875 132.875 94.375 137.125 96.4375 Z M 134.0625 168.4375 C 141.6875 169.0625 151.75 171.9375 158.75 175.4375 C 164.875 178.5625 173.75 184.4375 173.75 185.375 C 173.75 186.3125 164.9375 192.25 159.6875 194.875 C 148.8125 200.25 138.25 202.625 125 202.625 C 111.75 202.625 101.1875 200.25 90.3125 194.875 C 84.875 192.125 76.25 186.3125 76.25 185.3125 C 76.25 184.0625 84.0625 179 91.5625 175.375 C 99.8125 171.375 108.9375 168.875 118.125 168.1875 C 123.9375 167.6875 125.3125 167.6875 134.0625 168.4375 Z M 134.0625 168.4375 "/>
</g>
</svg>
