<svg xmlns="http://www.w3.org/2000/svg" width="250" height="250" fill="none"><path fill="#131313" d="M161.849 136.485c-5.186 0-7.829-4.352-7.829-9.741 0-5.389 2.643-9.431 7.829-9.431 5.287 0 7.828 4.352 7.828 9.431 0 5.492-2.643 9.741-7.828 9.741Zm-50.736-19.172c3.05 0 4.27 1.762 4.27 3.316 0 3.835-3.762 5.389-11.692 5.7.102-4.664 2.643-9.016 7.422-9.016Zm-33.654 19.172c-4.88 0-6.914-4.041-6.914-9.741 0-5.597 2.135-9.431 6.914-9.431 4.982 0 7.32 4.042 7.32 9.431 0 5.7-2.44 9.741-7.32 9.741Zm-41.483-24.769H28.35l12.71 29.744c-2.44 5.493-3.762 6.84-5.39 6.84-1.728 0-3.456-1.451-4.676-2.695l-3.355 4.56c2.338 2.488 5.388 3.835 8.642 3.835 4.067 0 7.117-2.384 8.846-6.633l14.64-35.651h-7.523l-7.626 21.246-8.642-21.246Zm202.942 5.597c3.761 0 4.473 2.591 4.473 8.705v16.064H250v-20.313c0-7.254-4.88-10.467-9.456-10.467-4.067 0-7.727 2.591-9.76 7.254-1.119-4.56-4.881-7.254-9.253-7.254-3.762 0-7.524 2.487-9.659 7.047v-6.633h-6.609v30.262h6.609v-12.954c0-6.529 3.355-11.815 7.931-11.815 3.762 0 4.473 2.591 4.473 8.706v16.063h6.609v-12.954c.102-6.529 3.457-11.711 8.033-11.711Zm-53.074-5.597h-3.152v30.262h6.609v-11.607c0-7.358 3.151-12.333 7.93-12.333 1.22 0 2.237 0 3.355.518l1.017-7.151c-.813-.103-1.627-.207-2.338-.207-4.677 0-8.033 3.213-9.964 7.462v-7.047l-3.457.103Zm-23.995-.414c-8.744 0-14.743 6.84-14.743 15.442 0 8.912 5.999 15.649 14.743 15.649 8.845 0 14.844-6.84 14.844-15.649 0-8.706-6.101-15.442-14.844-15.442Zm-50.329 25.183c-3.457 0-5.999-1.761-7.117-5.389 8.744-.414 17.386-2.591 17.386-10.467 0-4.56-4.372-9.224-10.676-9.224-8.541 0-14.234 7.048-14.234 15.442 0 8.706 5.693 15.649 14.132 15.649 5.898 0 9.659-2.383 12.608-5.907l-3.254-4.456c-3.456 3.42-5.592 4.352-8.845 4.352Zm-32.74-25.183c-3.355 0-6.71 1.969-8.031 5.078v-4.664h-6.61v42.077h6.61v-15.028c1.423 2.177 4.575 3.628 7.523 3.628 8.846 0 13.523-6.633 13.523-15.649-.102-8.913-4.677-15.442-13.014-15.442ZM32.317 99.694H1v6.53h12.2v35.754h6.915v-35.754h12.099l.102-6.53Zm98.624 12.022h-3.966v6.011h3.966v24.148h6.608v-24.044h6.406v-6.011h-6.406v-4.767c0-3.006 1.22-4.042 3.966-4.042 1.016 0 1.931.311 3.253.725l1.525-5.7c-1.22-.725-3.66-1.036-5.185-1.036-6.304 0-10.066 3.835-10.066 10.571l-.101 4.145Z"/></svg>