<svg role="img" viewBox="0 0 250 250" xmlns="http://www.w3.org/2000/svg" id="Paddle--Streamline-Simple-Icons" height="250" width="250"><desc>Paddle Streamline Icon: https://streamlinehq.com</desc><title>Paddle</title><path d="M24.614583333333332 82.33333333333333v8.84375a41.145833333333336 41.145833333333336 0 0 1 38.02083333333333 25.260416666666664c2.0625 4.958333333333333 3.1249999999999996 10.28125 3.114583333333333 15.645833333333332h8.239583333333334c0 -10.833333333333334 4.333333333333333 -21.218749999999996 12.052083333333332 -28.874999999999996a41.270833333333336 41.270833333333336 0 0 1 29.08333333333333 -11.96875V82.39583333333333a41.23958333333333 41.23958333333333 0 0 1 -38.02083333333333 -25.260416666666664 40.55208333333333 40.55208333333333 0 0 1 -3.114583333333333 -15.645833333333332h-8.239583333333334c0 10.833333333333334 -4.333333333333333 21.218749999999996 -12.052083333333332 28.874999999999996a41.25 41.25 0 0 1 -29.08333333333333 11.96875M136.51041666666666 26.14583333333333H65.75V0h70.76041666666666c49.708333333333336 0 88.875 38.90625 88.875 86.60416666666666 0 47.70833333333333 -39.166666666666664 86.60416666666666 -88.875 86.60416666666666H95.375V250H65.75v-102.93749999999999h70.76041666666666c34.572916666666664 0 59.24999999999999 -24.499999999999996 59.24999999999999 -60.458333333333336 0 -35.947916666666664 -24.6875 -60.458333333333336 -59.24999999999999 -60.458333333333336" fill="#000000" stroke-width="10.4167"></path></svg>