<svg width="250" height="250" viewBox="0 0 250 250" fill="none" xmlns="http://www.w3.org/2000/svg">
<path d="M77.3694 85.5014C77.8118 87.714 78.033 89.853 78.033 91.9179C78.033 93.8356 77.8118 95.9006 77.3694 98.1132L49.2856 97.8919V172.235C49.2856 178.43 52.1603 181.528 57.9098 181.528H74.7159C75.748 184.035 76.2638 186.543 76.2638 189.051C76.2638 191.558 76.1165 193.107 75.8215 193.697C69.04 194.582 62.0378 195.025 54.8139 195.025C40.5139 195.025 33.3639 188.903 33.3639 176.66V97.8919L17.6634 98.1132C17.2211 95.9006 17 93.8356 17 91.9179C17 89.853 17.2211 87.714 17.6634 85.5014L33.3639 85.7227V62.4905C33.3639 58.5078 33.9536 55.7052 35.133 54.0826C36.3124 52.3125 38.5974 51.4275 41.9882 51.4275H47.9587L49.2856 52.755V85.9439L77.3694 85.5014Z" fill="#0312B7"/>
<path d="M93.1406 186.396C93.2891 183.15 94.1724 179.61 95.7941 175.775C97.5644 171.792 99.5555 168.695 101.767 166.482C113.413 172.825 123.658 175.996 132.505 175.996C137.367 175.996 141.277 175.038 144.223 173.12C147.318 171.202 148.868 168.621 148.868 165.376C148.868 160.213 144.886 156.083 136.925 152.985L124.545 148.339C105.966 141.554 96.6812 130.712 96.6812 115.814C96.6812 110.504 97.6367 105.784 99.5555 101.653C101.619 97.3757 104.421 93.7615 107.958 90.8115C111.643 87.7139 115.994 85.3537 121.004 83.7312C126.018 82.1088 131.618 81.2974 137.812 81.2974C140.61 81.2974 143.709 81.5186 147.098 81.9611C150.638 82.4037 154.175 83.0674 157.711 83.9525C161.252 84.6899 164.64 85.5749 167.884 86.6076C171.127 87.6403 173.929 88.7466 176.29 89.9265C176.29 93.6143 175.551 97.4493 174.078 101.432C172.605 105.415 170.613 108.365 168.105 110.282C156.459 105.12 146.363 102.538 137.812 102.538C133.979 102.538 130.956 103.497 128.744 105.415C126.532 107.185 125.428 109.545 125.428 112.495C125.428 117.068 129.113 120.682 136.484 123.337L149.972 128.204C159.703 131.597 166.928 136.243 171.645 142.144C176.362 148.044 178.722 154.903 178.722 162.721C178.722 173.194 174.813 181.601 167.001 187.944C159.189 194.14 147.985 197.237 133.388 197.237C119.089 197.237 105.673 193.623 93.1406 186.396V186.396Z" fill="#0312B7"/>
<path d="M214.965 225.116V22.6638C217.173 22.2213 219.682 22 222.484 22C225.43 22 228.156 22.2213 230.665 22.6638V225.116C228.156 225.559 225.43 225.78 222.484 225.78C219.682 225.78 217.173 225.559 214.965 225.116Z" fill="#DB3173"/>
</svg>
