<svg width="156" height="104" viewBox="0 0 156 104" fill="none" xmlns="http://www.w3.org/2000/svg">
<g opacity="0.3">
<path d="M1.06627 85.9845L1.06626 85.9851L1.06621 85.9882L1.0662 85.9887C1.06588 86.0096 1.06586 86.0304 1.06614 86.0513V88.6975C1.06614 88.7192 1.06746 88.7407 1.07006 88.762C1.00437 89.7904 1.66404 90.7212 2.77011 91.3585L21.8536 102.354C22.9117 102.964 24.265 103.253 25.5895 103.253C26.9139 103.253 28.2672 102.964 29.3253 102.354L48.4088 91.3585C49.514 90.7217 50.1735 89.7919 50.109 88.7644C50.1118 88.7425 50.1132 88.7201 50.1132 88.6975V85.9938C50.1132 85.9821 50.1128 85.9706 50.1121 85.9591C50.0845 85.0023 49.441 84.1558 48.4088 83.5611L29.3253 72.5655C28.2672 71.9558 26.9139 71.6662 25.5895 71.6662C24.265 71.6662 22.9117 71.9558 21.8536 72.5655L2.77011 83.5611C1.72883 84.161 1.08303 85.0173 1.06627 85.9845Z" fill="white"/>
<path d="M1.06627 85.9845L1.06626 85.9851L1.06621 85.9882L1.0662 85.9887C1.06588 86.0096 1.06586 86.0304 1.06614 86.0513V88.6975C1.06614 88.7192 1.06746 88.7407 1.07006 88.762C1.00437 89.7904 1.66404 90.7212 2.77011 91.3585L21.8536 102.354C22.9117 102.964 24.265 103.253 25.5895 103.253C26.9139 103.253 28.2672 102.964 29.3253 102.354L48.4088 91.3585C49.514 90.7217 50.1735 89.7919 50.109 88.7644C50.1118 88.7425 50.1132 88.7201 50.1132 88.6975V85.9938C50.1132 85.9821 50.1128 85.9706 50.1121 85.9591C50.0845 85.0023 49.441 84.1558 48.4088 83.5611L29.3253 72.5655C28.2672 71.9558 26.9139 71.6662 25.5895 71.6662C24.265 71.6662 22.9117 71.9558 21.8536 72.5655L2.77011 83.5611C1.72883 84.161 1.08303 85.0173 1.06627 85.9845Z" fill="url(#paint0_linear_3404_120234)"/>
<path d="M1.06627 85.9845L1.06626 85.9851L1.06621 85.9882L1.0662 85.9887C1.06588 86.0096 1.06586 86.0304 1.06614 86.0513V88.6975C1.06614 88.7192 1.06746 88.7407 1.07006 88.762C1.00437 89.7904 1.66404 90.7212 2.77011 91.3585L21.8536 102.354C22.9117 102.964 24.265 103.253 25.5895 103.253C26.9139 103.253 28.2672 102.964 29.3253 102.354L48.4088 91.3585C49.514 90.7217 50.1735 89.7919 50.109 88.7644C50.1118 88.7425 50.1132 88.7201 50.1132 88.6975V85.9938C50.1132 85.9821 50.1128 85.9706 50.1121 85.9591C50.0845 85.0023 49.441 84.1558 48.4088 83.5611L29.3253 72.5655C28.2672 71.9558 26.9139 71.6662 25.5895 71.6662C24.265 71.6662 22.9117 71.9558 21.8536 72.5655L2.77011 83.5611C1.72883 84.161 1.08303 85.0173 1.06627 85.9845Z" stroke="#1A194D" stroke-width="1.06624" stroke-linejoin="round"/>
<path d="M29.3253 72.4325C28.2672 71.8228 26.9139 71.5332 25.5895 71.5332C24.2651 71.5332 22.9117 71.8228 21.8536 72.4325L2.77011 83.4281C1.71509 84.0359 1.06594 84.9075 1.06594 85.8892C1.06594 86.8709 1.71509 87.7424 2.77011 88.3503L21.8536 99.3459C22.9117 99.9556 24.2651 100.245 25.5895 100.245C26.9139 100.245 28.2672 99.9556 29.3253 99.3459L48.4088 88.3503C49.4638 87.7424 50.113 86.8709 50.113 85.8892C50.113 84.9075 49.4638 84.0359 48.4088 83.4281L29.3253 72.4325Z" fill="white" stroke="#1A194D" stroke-width="1.06624" stroke-linejoin="round"/>
</g>
<path d="M105.066 15.1845L105.066 15.185L105.066 15.1882L105.066 15.1887C105.066 15.2095 105.066 15.2304 105.066 15.2513V27.9887C105.066 28.0103 105.068 28.0319 105.07 28.0532C105.004 29.0816 105.664 30.0124 106.77 30.6497L125.854 41.6453C126.912 42.255 128.265 42.5446 129.59 42.5446C130.914 42.5446 132.267 42.255 133.325 41.6453L152.409 30.6497C153.514 30.0129 154.174 29.083 154.109 28.0556C154.112 28.0337 154.113 28.0113 154.113 27.9887V15.1938C154.113 15.1821 154.113 15.1705 154.112 15.159C154.085 14.2022 153.441 13.3557 152.409 12.7611L133.325 1.76546C132.267 1.15576 130.914 0.866172 129.59 0.866172C128.265 0.866172 126.912 1.15576 125.854 1.76546L106.77 12.7611C105.729 13.361 105.083 14.2173 105.066 15.1845Z" fill="white"/>
<path d="M105.066 15.1845L105.066 15.185L105.066 15.1882L105.066 15.1887C105.066 15.2095 105.066 15.2304 105.066 15.2513V27.9887C105.066 28.0103 105.068 28.0319 105.07 28.0532C105.004 29.0816 105.664 30.0124 106.77 30.6497L125.854 41.6453C126.912 42.255 128.265 42.5446 129.59 42.5446C130.914 42.5446 132.267 42.255 133.325 41.6453L152.409 30.6497C153.514 30.0129 154.174 29.083 154.109 28.0556C154.112 28.0337 154.113 28.0113 154.113 27.9887V15.1938C154.113 15.1821 154.113 15.1705 154.112 15.159C154.085 14.2022 153.441 13.3557 152.409 12.7611L133.325 1.76546C132.267 1.15576 130.914 0.866172 129.59 0.866172C128.265 0.866172 126.912 1.15576 125.854 1.76546L106.77 12.7611C105.729 13.361 105.083 14.2173 105.066 15.1845Z" fill="url(#paint1_linear_3404_120234)"/>
<path d="M105.066 15.1845L105.066 15.185L105.066 15.1882L105.066 15.1887C105.066 15.2095 105.066 15.2304 105.066 15.2513V27.9887C105.066 28.0103 105.068 28.0319 105.07 28.0532C105.004 29.0816 105.664 30.0124 106.77 30.6497L125.854 41.6453C126.912 42.255 128.265 42.5446 129.59 42.5446C130.914 42.5446 132.267 42.255 133.325 41.6453L152.409 30.6497C153.514 30.0129 154.174 29.083 154.109 28.0556C154.112 28.0337 154.113 28.0113 154.113 27.9887V15.1938C154.113 15.1821 154.113 15.1705 154.112 15.159C154.085 14.2022 153.441 13.3557 152.409 12.7611L133.325 1.76546C132.267 1.15576 130.914 0.866172 129.59 0.866172C128.265 0.866172 126.912 1.15576 125.854 1.76546L106.77 12.7611C105.729 13.361 105.083 14.2173 105.066 15.1845Z" stroke="#1A194D" stroke-width="1.06624" stroke-linejoin="round"/>
<g opacity="0.2">
<path d="M125.178 14.3175L125.178 14.3177L125.178 14.3182L125.178 14.3184V14.33H125.178V18.6786C125.178 18.6823 125.178 18.6859 125.178 18.6895C125.169 18.9311 125.328 19.1219 125.524 19.2349L128.347 20.8612C128.538 20.9717 128.773 21.0193 128.993 21.0193C129.213 21.0193 129.448 20.9717 129.639 20.8612L132.462 19.2349C132.658 19.122 132.817 18.9315 132.808 18.6902C132.808 18.6864 132.808 18.6825 132.808 18.6786V14.3221H132.808L132.808 14.3175C132.804 14.0852 132.65 13.9077 132.462 13.7996L129.639 12.1733C129.448 12.0628 129.213 12.0152 128.993 12.0152C128.773 12.0152 128.538 12.0628 128.347 12.1733L125.524 13.7996C125.336 13.9078 125.182 14.0853 125.178 14.3175Z" fill="url(#paint2_linear_3404_120234)" stroke="#1A194D" stroke-width="0.53312" stroke-linejoin="round"/>
<path d="M129.639 12.1536C129.448 12.0431 129.213 11.9955 128.993 11.9955C128.773 11.9955 128.538 12.0431 128.347 12.1536L125.524 13.7799C125.334 13.8895 125.178 14.0705 125.178 14.3066C125.178 14.5427 125.334 14.7237 125.524 14.8332L128.347 16.4596C128.538 16.57 128.773 16.6176 128.993 16.6176C129.213 16.6176 129.448 16.57 129.639 16.4596L132.462 14.8332C132.652 14.7237 132.808 14.5427 132.808 14.3066C132.808 14.0705 132.652 13.8895 132.462 13.7799L129.639 12.1536Z" fill="white" stroke="#1A194D" stroke-width="0.53312" stroke-linejoin="round"/>
<path d="M119.912 17.2934L119.912 17.2937L119.912 17.2941L119.912 17.2944V17.306H119.912V21.6546C119.912 21.6582 119.912 21.6618 119.913 21.6654C119.903 21.907 120.062 22.0978 120.258 22.2108L123.081 23.8371C123.273 23.9476 123.507 23.9952 123.727 23.9952C123.947 23.9952 124.182 23.9476 124.373 23.8371L127.196 22.2108C127.392 22.0979 127.551 21.9074 127.542 21.6662C127.542 21.6623 127.542 21.6585 127.542 21.6546V17.298H127.542L127.542 17.2934C127.538 17.0611 127.384 16.8837 127.196 16.7756L124.373 15.1492C124.182 15.0388 123.947 14.9912 123.727 14.9912C123.507 14.9912 123.273 15.0388 123.081 15.1492L120.258 16.7756C120.071 16.8837 119.916 17.0612 119.912 17.2934Z" fill="url(#paint3_linear_3404_120234)" stroke="#1A194D" stroke-width="0.53312" stroke-linejoin="round"/>
<path d="M124.373 15.1296C124.182 15.0191 123.947 14.9715 123.727 14.9715C123.507 14.9715 123.273 15.0191 123.081 15.1296L120.258 16.7559C120.068 16.8655 119.912 17.0465 119.912 17.2826C119.912 17.5187 120.068 17.6997 120.258 17.8092L123.081 19.4355C123.273 19.546 123.507 19.5936 123.727 19.5936C123.947 19.5936 124.182 19.546 124.373 19.4355L127.196 17.8092C127.386 17.6997 127.542 17.5187 127.542 17.2826C127.542 17.0465 127.386 16.8655 127.196 16.7559L124.373 15.1296Z" fill="white" stroke="#1A194D" stroke-width="0.53312" stroke-linejoin="round"/>
<path d="M130.444 17.0643L130.444 17.0646L130.444 17.065L130.444 17.0653V17.0769H130.444V21.4255C130.444 21.4291 130.444 21.4327 130.444 21.4363C130.434 21.6779 130.593 21.8687 130.79 21.9817L133.612 23.608C133.804 23.7185 134.038 23.7661 134.258 23.7661C134.478 23.7661 134.713 23.7185 134.905 23.608L137.727 21.9817C137.923 21.8688 138.083 21.6783 138.073 21.4371C138.073 21.4332 138.073 21.4294 138.073 21.4255V17.0689H138.073L138.073 17.0643C138.069 16.832 137.915 16.6546 137.727 16.5465L134.905 14.9201C134.713 14.8097 134.478 14.7621 134.258 14.7621C134.038 14.7621 133.804 14.8097 133.612 14.9201L130.79 16.5465C130.602 16.6546 130.448 16.8321 130.444 17.0643Z" fill="url(#paint4_linear_3404_120234)" stroke="#1A194D" stroke-width="0.53312" stroke-linejoin="round"/>
<path d="M134.905 14.9005C134.713 14.7901 134.478 14.7425 134.258 14.7425C134.038 14.7425 133.804 14.7901 133.612 14.9005L130.79 16.5269C130.599 16.6364 130.444 16.8174 130.444 17.0535C130.444 17.2896 130.599 17.4706 130.79 17.5802L133.612 19.2065C133.804 19.317 134.038 19.3646 134.258 19.3646C134.478 19.3646 134.713 19.317 134.905 19.2065L137.727 17.5802C137.917 17.4706 138.073 17.2896 138.073 17.0535C138.073 16.8174 137.917 16.6364 137.727 16.5269L134.905 14.9005Z" fill="white" stroke="#1A194D" stroke-width="0.53312" stroke-linejoin="round"/>
<path d="M125.178 20.0406L125.178 20.0409L125.178 20.0413L125.178 20.0416V20.0532H125.178V24.4018C125.178 24.4054 125.178 24.409 125.178 24.4126C125.169 24.6542 125.328 24.845 125.524 24.958L128.347 26.5844C128.538 26.6948 128.773 26.7424 128.993 26.7424C129.213 26.7424 129.448 26.6948 129.639 26.5843L132.462 24.958C132.658 24.8451 132.817 24.6546 132.808 24.4134C132.808 24.4095 132.808 24.4057 132.808 24.4018V20.0452H132.808L132.808 20.0406C132.804 19.8083 132.65 19.6309 132.462 19.5228L129.639 17.8964C129.448 17.786 129.213 17.7384 128.993 17.7384C128.773 17.7384 128.538 17.786 128.347 17.8964L125.524 19.5228C125.336 19.6309 125.182 19.8084 125.178 20.0406Z" fill="url(#paint5_linear_3404_120234)" stroke="#1A194D" stroke-width="0.53312" stroke-linejoin="round"/>
<path d="M129.639 17.8768C129.448 17.7663 129.213 17.7187 128.993 17.7187C128.773 17.7187 128.538 17.7663 128.347 17.8768L125.524 19.5031C125.334 19.6127 125.178 19.7937 125.178 20.0298C125.178 20.2659 125.334 20.4469 125.524 20.5564L128.347 22.1827C128.538 22.2932 128.773 22.3408 128.993 22.3408C129.213 22.3408 129.448 22.2932 129.639 22.1827L132.462 20.5564C132.652 20.4469 132.808 20.2659 132.808 20.0298C132.808 19.7937 132.652 19.6127 132.462 19.5031L129.639 17.8768Z" fill="white" stroke="#1A194D" stroke-width="0.53312" stroke-linejoin="round"/>
<path d="M136.477 20.1932L136.477 20.1934L136.477 20.1939L136.477 20.1942V20.2057H136.477V24.5544C136.477 24.558 136.477 24.5616 136.477 24.5652C136.467 24.8068 136.627 24.9976 136.823 25.1106L139.646 26.7369C139.837 26.8474 140.072 26.895 140.292 26.895C140.512 26.895 140.746 26.8474 140.938 26.7369L143.761 25.1106C143.957 24.9977 144.116 24.8072 144.107 24.566C144.107 24.5621 144.107 24.5583 144.107 24.5544V20.1978H144.107L144.107 20.1932C144.103 19.9609 143.948 19.7834 143.761 19.6753L140.938 18.049C140.746 17.9386 140.512 17.8909 140.292 17.8909C140.072 17.8909 139.837 17.9386 139.646 18.049L136.823 19.6753C136.635 19.7835 136.481 19.961 136.477 20.1932Z" fill="url(#paint6_linear_3404_120234)" stroke="#1A194D" stroke-width="0.53312" stroke-linejoin="round"/>
<path d="M140.938 18.0293C140.746 17.9188 140.512 17.8712 140.292 17.8712C140.072 17.8712 139.837 17.9188 139.646 18.0293L136.823 19.6556C136.633 19.7652 136.477 19.9462 136.477 20.1823C136.477 20.4184 136.633 20.5994 136.823 20.7089L139.646 22.3353C139.837 22.4457 140.072 22.4933 140.292 22.4933C140.512 22.4933 140.746 22.4457 140.938 22.3353L143.761 20.7089C143.951 20.5994 144.107 20.4184 144.107 20.1823C144.107 19.9462 143.951 19.7652 143.761 19.6556L140.938 18.0293Z" fill="white" stroke="#1A194D" stroke-width="0.53312" stroke-linejoin="round"/>
<path d="M131.212 23.1691L131.212 23.1693L131.212 23.1698L131.212 23.17V23.1816H131.212V27.5302C131.212 27.5339 131.212 27.5375 131.212 27.5411C131.202 27.7827 131.362 27.9735 131.558 28.0865L134.381 29.7128C134.572 29.8233 134.807 29.8709 135.027 29.8709C135.247 29.8709 135.481 29.8233 135.673 29.7128L138.496 28.0865C138.692 27.9736 138.851 27.7831 138.842 27.5418C138.842 27.538 138.842 27.5341 138.842 27.5302V23.1737H138.842L138.842 23.1691C138.838 22.9368 138.683 22.7593 138.496 22.6512L135.673 21.0249C135.481 20.9144 135.247 20.8668 135.027 20.8668C134.807 20.8668 134.572 20.9144 134.381 21.0249L131.558 22.6512C131.37 22.7594 131.216 22.9369 131.212 23.1691Z" fill="url(#paint7_linear_3404_120234)" stroke="#1A194D" stroke-width="0.53312" stroke-linejoin="round"/>
<path d="M135.673 21.0052C135.482 20.8948 135.247 20.8471 135.027 20.8471C134.807 20.8471 134.572 20.8948 134.381 21.0052L131.558 22.6315C131.368 22.7411 131.212 22.9221 131.212 23.1582C131.212 23.3943 131.368 23.5753 131.558 23.6849L134.381 25.3112C134.572 25.4217 134.807 25.4693 135.027 25.4693C135.247 25.4693 135.482 25.4217 135.673 25.3112L138.496 23.6849C138.686 23.5753 138.842 23.3943 138.842 23.1582C138.842 22.9221 138.686 22.7411 138.496 22.6315L135.673 21.0052Z" fill="white" stroke="#1A194D" stroke-width="0.53312" stroke-linejoin="round"/>
<path d="M141.743 22.9403L141.743 22.9405L141.743 22.941L141.743 22.9412V22.9528H141.743V27.3015C141.743 27.3051 141.743 27.3087 141.743 27.3123C141.733 27.5539 141.893 27.7447 142.089 27.8577L144.911 29.484C145.103 29.5945 145.337 29.6421 145.557 29.6421C145.778 29.6421 146.012 29.5945 146.204 29.484L149.026 27.8577C149.222 27.7448 149.382 27.5543 149.372 27.313C149.372 27.3092 149.372 27.3053 149.372 27.3015V22.9449H149.372L149.372 22.9403C149.368 22.708 149.214 22.5305 149.026 22.4224L146.204 20.7961C146.012 20.6856 145.778 20.638 145.557 20.638C145.337 20.638 145.103 20.6856 144.911 20.7961L142.089 22.4224C141.901 22.5306 141.747 22.7081 141.743 22.9403Z" fill="url(#paint8_linear_3404_120234)" stroke="#1A194D" stroke-width="0.53312" stroke-linejoin="round"/>
<path d="M146.204 20.7765C146.012 20.666 145.777 20.6184 145.557 20.6184C145.337 20.6184 145.103 20.666 144.911 20.7765L142.089 22.4028C141.898 22.5124 141.743 22.6934 141.743 22.9294C141.743 23.1655 141.898 23.3465 142.089 23.4561L144.911 25.0824C145.103 25.1929 145.337 25.2405 145.557 25.2405C145.777 25.2405 146.012 25.1929 146.204 25.0824L149.026 23.4561C149.216 23.3465 149.372 23.1655 149.372 22.9294C149.372 22.6934 149.216 22.5124 149.026 22.4028L146.204 20.7765Z" fill="white" stroke="#1A194D" stroke-width="0.53312" stroke-linejoin="round"/>
<path d="M136.477 25.9163L136.477 25.9166L136.477 25.917L136.477 25.9173V25.9289H136.477V30.2775C136.477 30.2811 136.477 30.2847 136.477 30.2883C136.467 30.5299 136.627 30.7207 136.823 30.8338L139.646 32.4601C139.837 32.5705 140.072 32.6182 140.292 32.6182C140.512 32.6182 140.746 32.5705 140.938 32.4601L143.761 30.8338C143.957 30.7209 144.116 30.5303 144.107 30.2891C144.107 30.2853 144.107 30.2814 144.107 30.2775V25.9209H144.107L144.107 25.9163C144.103 25.6841 143.948 25.5066 143.761 25.3985L140.938 23.7722C140.746 23.6617 140.512 23.6141 140.292 23.6141C140.072 23.6141 139.837 23.6617 139.646 23.7722L136.823 25.3985C136.635 25.5066 136.481 25.6841 136.477 25.9163Z" fill="url(#paint9_linear_3404_120234)" stroke="#1A194D" stroke-width="0.53312" stroke-linejoin="round"/>
<path d="M140.938 23.7525C140.746 23.642 140.512 23.5944 140.292 23.5944C140.072 23.5944 139.837 23.642 139.646 23.7525L136.823 25.3788C136.633 25.4884 136.477 25.6694 136.477 25.9055C136.477 26.1416 136.633 26.3226 136.823 26.4321L139.646 28.0585C139.837 28.1689 140.072 28.2165 140.292 28.2165C140.512 28.2165 140.746 28.1689 140.938 28.0585L143.761 26.4321C143.951 26.3226 144.107 26.1416 144.107 25.9055C144.107 25.6694 143.951 25.4884 143.761 25.3788L140.938 23.7525Z" fill="white" stroke="#1A194D" stroke-width="0.53312" stroke-linejoin="round"/>
<path d="M114.33 20.6453L114.33 20.6456L114.33 20.646L114.33 20.6463V20.6579H114.33V25.0065C114.33 25.0101 114.33 25.0137 114.33 25.0173C114.321 25.2589 114.48 25.4497 114.676 25.5627L117.499 27.189C117.691 27.2995 117.925 27.3471 118.145 27.3471C118.365 27.3471 118.6 27.2995 118.791 27.189L121.614 25.5627C121.81 25.4498 121.969 25.2593 121.96 25.0181C121.96 25.0142 121.96 25.0104 121.96 25.0065V20.6499H121.96L121.96 20.6453C121.956 20.413 121.802 20.2356 121.614 20.1275L118.791 18.5011C118.6 18.3907 118.365 18.3431 118.145 18.3431C117.925 18.3431 117.691 18.3907 117.499 18.5011L114.676 20.1275C114.489 20.2356 114.334 20.4131 114.33 20.6453Z" fill="url(#paint10_linear_3404_120234)" stroke="#1A194D" stroke-width="0.53312" stroke-linejoin="round"/>
<path d="M118.791 18.4815C118.6 18.371 118.365 18.3234 118.145 18.3234C117.925 18.3234 117.691 18.371 117.499 18.4815L114.676 20.1078C114.486 20.2174 114.33 20.3984 114.33 20.6345C114.33 20.8705 114.486 21.0516 114.676 21.1611L117.499 22.7874C117.691 22.8979 117.925 22.9455 118.145 22.9455C118.365 22.9455 118.6 22.8979 118.791 22.7874L121.614 21.1611C121.804 21.0516 121.96 20.8705 121.96 20.6345C121.96 20.3984 121.804 20.2174 121.614 20.1078L118.791 18.4815Z" fill="white" stroke="#1A194D" stroke-width="0.53312" stroke-linejoin="round"/>
<path d="M109.065 23.6211L109.065 23.6214L109.065 23.6219L109.065 23.6221V23.6337H109.065V27.9823C109.065 27.9859 109.065 27.9896 109.065 27.9931C109.055 28.2347 109.215 28.4256 109.411 28.5386L112.233 30.1649C112.425 30.2754 112.659 30.323 112.88 30.323C113.1 30.323 113.334 30.2754 113.526 30.1649L116.348 28.5386C116.544 28.4257 116.704 28.2351 116.694 27.9939C116.694 27.9901 116.694 27.9862 116.694 27.9823V23.6258H116.694L116.694 23.6211C116.69 23.3889 116.536 23.2114 116.348 23.1033L113.526 21.477C113.334 21.3665 113.1 21.3189 112.88 21.3189C112.659 21.3189 112.425 21.3665 112.233 21.477L109.411 23.1033C109.223 23.2115 109.069 23.3889 109.065 23.6211Z" fill="url(#paint11_linear_3404_120234)" stroke="#1A194D" stroke-width="0.53312" stroke-linejoin="round"/>
<path d="M113.526 21.4573C113.334 21.3468 113.1 21.2992 112.88 21.2992C112.659 21.2992 112.425 21.3468 112.233 21.4573L109.411 23.0836C109.221 23.1932 109.065 23.3742 109.065 23.6103C109.065 23.8464 109.221 24.0274 109.411 24.137L112.233 25.7633C112.425 25.8738 112.659 25.9214 112.88 25.9214C113.1 25.9214 113.334 25.8738 113.526 25.7633L116.348 24.137C116.539 24.0274 116.694 23.8464 116.694 23.6103C116.694 23.3742 116.539 23.1932 116.348 23.0836L113.526 21.4573Z" fill="white" stroke="#1A194D" stroke-width="0.53312" stroke-linejoin="round"/>
<path d="M119.595 23.3922L119.595 23.3924L119.595 23.3929L119.595 23.3931V23.4047H119.595V27.7534C119.595 27.757 119.595 27.7606 119.595 27.7642C119.585 28.0058 119.745 28.1966 119.941 28.3096L122.764 29.9359C122.955 30.0464 123.19 30.094 123.41 30.094C123.63 30.094 123.865 30.0464 124.056 29.9359L126.879 28.3096C127.075 28.1967 127.234 28.0062 127.225 27.7649C127.225 27.7611 127.225 27.7572 127.225 27.7534V23.3968H127.225L127.225 23.3922C127.221 23.1599 127.066 22.9824 126.879 22.8743L124.056 21.248C123.865 21.1375 123.63 21.0899 123.41 21.0899C123.19 21.0899 122.955 21.1375 122.764 21.248L119.941 22.8743C119.753 22.9825 119.599 23.16 119.595 23.3922Z" fill="url(#paint12_linear_3404_120234)" stroke="#1A194D" stroke-width="0.53312" stroke-linejoin="round"/>
<path d="M124.056 21.2283C123.865 21.1179 123.63 21.0703 123.41 21.0703C123.19 21.0703 122.955 21.1179 122.764 21.2283L119.941 22.8547C119.751 22.9642 119.595 23.1452 119.595 23.3813C119.595 23.6174 119.751 23.7984 119.941 23.908L122.764 25.5343C122.955 25.6448 123.19 25.6924 123.41 25.6924C123.63 25.6924 123.865 25.6448 124.056 25.5343L126.879 23.908C127.069 23.7984 127.225 23.6174 127.225 23.3813C127.225 23.1452 127.069 22.9642 126.879 22.8547L124.056 21.2283Z" fill="white" stroke="#1A194D" stroke-width="0.53312" stroke-linejoin="round"/>
<path d="M114.33 26.3684L114.33 26.3686L114.33 26.3691L114.33 26.3693V26.3809H114.33V30.7295C114.33 30.7332 114.33 30.7368 114.33 30.7404C114.321 30.982 114.48 31.1728 114.676 31.2858L117.499 32.9121C117.691 33.0226 117.925 33.0702 118.145 33.0702C118.365 33.0702 118.6 33.0226 118.791 32.9121L121.614 31.2858C121.81 31.1729 121.969 30.9824 121.96 30.7411C121.96 30.7373 121.96 30.7334 121.96 30.7295V26.373H121.96L121.96 26.3684C121.956 26.1361 121.802 25.9586 121.614 25.8505L118.791 24.2242C118.6 24.1137 118.365 24.0661 118.145 24.0661C117.925 24.0661 117.691 24.1137 117.499 24.2242L114.676 25.8505C114.489 25.9587 114.334 26.1362 114.33 26.3684Z" fill="url(#paint13_linear_3404_120234)" stroke="#1A194D" stroke-width="0.53312" stroke-linejoin="round"/>
<path d="M118.791 24.2045C118.6 24.094 118.365 24.0464 118.145 24.0464C117.925 24.0464 117.691 24.094 117.499 24.2045L114.676 25.8308C114.486 25.9404 114.33 26.1214 114.33 26.3575C114.33 26.5936 114.486 26.7746 114.676 26.8842L117.499 28.5105C117.691 28.6209 117.925 28.6686 118.145 28.6686C118.365 28.6686 118.6 28.6209 118.791 28.5105L121.614 26.8842C121.804 26.7746 121.96 26.5936 121.96 26.3575C121.96 26.1214 121.804 25.9404 121.614 25.8308L118.791 24.2045Z" fill="white" stroke="#1A194D" stroke-width="0.53312" stroke-linejoin="round"/>
<path d="M125.629 26.521L125.629 26.5212L125.629 26.5217L125.629 26.5219V26.5335H125.629V30.8822C125.629 30.8858 125.629 30.8894 125.63 30.893C125.62 31.1346 125.779 31.3254 125.975 31.4384L128.798 33.0647C128.99 33.1752 129.224 33.2228 129.444 33.2228C129.664 33.2228 129.899 33.1752 130.09 33.0647L132.913 31.4384C133.109 31.3255 133.268 31.135 133.259 30.8937C133.259 30.8899 133.259 30.886 133.259 30.8822V26.5256H133.259L133.259 26.521C133.255 26.2887 133.101 26.1112 132.913 26.0031L130.09 24.3768C129.899 24.2663 129.664 24.2187 129.444 24.2187C129.224 24.2187 128.99 24.2663 128.798 24.3768L125.975 26.0031C125.788 26.1113 125.633 26.2888 125.629 26.521Z" fill="url(#paint14_linear_3404_120234)" stroke="#1A194D" stroke-width="0.53312" stroke-linejoin="round"/>
<path d="M130.09 24.3571C129.899 24.2466 129.664 24.199 129.444 24.199C129.224 24.199 128.99 24.2466 128.798 24.3571L125.975 25.9834C125.785 26.093 125.629 26.274 125.629 26.5101C125.629 26.7462 125.785 26.9272 125.975 27.0367L128.798 28.6631C128.99 28.7735 129.224 28.8211 129.444 28.8211C129.664 28.8211 129.899 28.7735 130.09 28.6631L132.913 27.0367C133.103 26.9272 133.259 26.7462 133.259 26.5101C133.259 26.274 133.103 26.093 132.913 25.9834L130.09 24.3571Z" fill="white" stroke="#1A194D" stroke-width="0.53312" stroke-linejoin="round"/>
<path d="M120.364 29.4969L120.364 29.4972L120.364 29.4976L120.364 29.4979V29.5095H120.364V33.8581C120.364 33.8617 120.364 33.8653 120.365 33.8689C120.355 34.1105 120.514 34.3013 120.71 34.4143L123.533 36.0406C123.725 36.1511 123.959 36.1987 124.179 36.1987C124.399 36.1987 124.634 36.1511 124.825 36.0406L127.648 34.4143C127.844 34.3014 128.003 34.1109 127.994 33.8697C127.994 33.8658 127.994 33.862 127.994 33.8581V29.5015H127.994L127.994 29.4969C127.99 29.2646 127.836 29.0872 127.648 28.9791L124.825 27.3527C124.634 27.2423 124.399 27.1947 124.179 27.1947C123.959 27.1947 123.725 27.2423 123.533 27.3527L120.71 28.9791C120.523 29.0872 120.368 29.2647 120.364 29.4969Z" fill="url(#paint15_linear_3404_120234)" stroke="#1A194D" stroke-width="0.53312" stroke-linejoin="round"/>
<path d="M124.826 27.3331C124.634 27.2226 124.399 27.175 124.179 27.175C123.959 27.175 123.725 27.2226 123.533 27.3331L120.71 28.9594C120.52 29.069 120.364 29.25 120.364 29.4861C120.364 29.7222 120.52 29.9032 120.71 30.0127L123.533 31.6391C123.725 31.7495 123.959 31.7971 124.179 31.7971C124.399 31.7971 124.634 31.7495 124.826 31.6391L127.648 30.0127C127.838 29.9032 127.994 29.7222 127.994 29.4861C127.994 29.25 127.838 29.069 127.648 28.9594L124.826 27.3331Z" fill="white" stroke="#1A194D" stroke-width="0.53312" stroke-linejoin="round"/>
<path d="M130.895 29.268L130.895 29.2683L130.895 29.2688L130.895 29.269V29.2806H130.895V33.6292C130.895 33.6329 130.895 33.6365 130.895 33.6401C130.885 33.8817 131.045 34.0725 131.241 34.1855L134.063 35.8118C134.255 35.9223 134.49 35.9699 134.71 35.9699C134.93 35.9699 135.164 35.9223 135.356 35.8118L138.178 34.1855C138.374 34.0726 138.534 33.8821 138.524 33.6408C138.524 33.637 138.525 33.6331 138.525 33.6292V29.2727H138.525L138.524 29.268C138.52 29.0358 138.366 28.8583 138.178 28.7502L135.356 27.1239C135.164 27.0134 134.93 26.9658 134.71 26.9658C134.49 26.9658 134.255 27.0134 134.063 27.1239L131.241 28.7502C131.053 28.8584 130.899 29.0358 130.895 29.268Z" fill="url(#paint16_linear_3404_120234)" stroke="#1A194D" stroke-width="0.53312" stroke-linejoin="round"/>
<path d="M135.356 27.1041C135.164 26.9937 134.93 26.9461 134.71 26.9461C134.49 26.9461 134.255 26.9937 134.063 27.1041L131.241 28.7305C131.051 28.84 130.895 29.021 130.895 29.2571C130.895 29.4932 131.051 29.6742 131.241 29.7838L134.063 31.4101C134.255 31.5206 134.49 31.5682 134.71 31.5682C134.93 31.5682 135.164 31.5206 135.356 31.4101L138.178 29.7838C138.369 29.6742 138.524 29.4932 138.524 29.2571C138.524 29.021 138.369 28.84 138.178 28.7305L135.356 27.1041Z" fill="white" stroke="#1A194D" stroke-width="0.53312" stroke-linejoin="round"/>
<path d="M125.629 32.244L125.629 32.2443L125.629 32.2447L125.629 32.245V32.2566H125.629V36.6052C125.629 36.6088 125.629 36.6124 125.63 36.616C125.62 36.8576 125.779 37.0484 125.975 37.1614L128.798 38.7878C128.99 38.8982 129.224 38.9458 129.444 38.9458C129.664 38.9458 129.899 38.8982 130.09 38.7877L132.913 37.1614C133.109 37.0485 133.268 36.858 133.259 36.6168C133.259 36.6129 133.259 36.6091 133.259 36.6052V32.2486H133.259L133.259 32.244C133.255 32.0117 133.101 31.8343 132.913 31.7262L130.09 30.0998C129.899 29.9894 129.664 29.9418 129.444 29.9418C129.224 29.9418 128.99 29.9894 128.798 30.0998L125.975 31.7262C125.788 31.8343 125.633 32.0118 125.629 32.244Z" fill="url(#paint17_linear_3404_120234)" stroke="#1A194D" stroke-width="0.53312" stroke-linejoin="round"/>
<path d="M130.09 30.0801C129.899 29.9697 129.664 29.9221 129.444 29.9221C129.224 29.9221 128.99 29.9697 128.798 30.0801L125.975 31.7065C125.785 31.816 125.629 31.997 125.629 32.2331C125.629 32.4692 125.785 32.6502 125.975 32.7598L128.798 34.3861C128.99 34.4966 129.224 34.5442 129.444 34.5442C129.664 34.5442 129.899 34.4966 130.09 34.3861L132.913 32.7598C133.103 32.6502 133.259 32.4692 133.259 32.2331C133.259 31.997 133.103 31.816 132.913 31.7065L130.09 30.0801Z" fill="white" stroke="#1A194D" stroke-width="0.53312" stroke-linejoin="round"/>
</g>
<path d="M133.325 1.63243C132.267 1.02273 130.914 0.733138 129.59 0.733138C128.265 0.733138 126.912 1.02273 125.854 1.63243L106.77 12.628C105.715 13.2359 105.066 14.1074 105.066 15.0892C105.066 16.0709 105.715 16.9424 106.77 17.5503L125.854 28.5459C126.912 29.1556 128.265 29.4452 129.59 29.4452C130.914 29.4452 132.267 29.1556 133.325 28.5459L152.409 17.5503C153.464 16.9424 154.113 16.0709 154.113 15.0892C154.113 14.1074 153.464 13.2359 152.409 12.628L133.325 1.63243Z" fill="white" stroke="#1A194D" stroke-width="1.06624" stroke-linejoin="round"/>
<g clip-path="url(#clip0_3404_120234)">
<g clip-path="url(#clip1_3404_120234)">
<path d="M130.524 9.27728C131.889 9.3206 133.223 9.52653 134.443 9.88211C134.377 10.2236 134.445 10.5692 134.642 10.8935C134.839 11.2177 135.16 11.5121 135.581 11.7549C136.001 11.998 136.511 12.1833 137.073 12.297C137.634 12.4107 138.233 12.4499 138.825 12.4115C139.44 13.1161 139.797 13.8866 139.872 14.6746C139.327 14.8122 138.843 15.0189 138.456 15.2793C138.068 15.5398 137.787 15.8473 137.634 16.179C137.479 16.5108 137.456 16.8585 137.567 17.1962C137.677 17.5339 137.917 17.8529 138.271 18.1295C137.522 18.7891 136.545 19.3527 135.403 19.7853C134.465 19.3877 133.236 19.2306 132.024 19.4177C131.45 19.5063 130.917 19.6685 130.466 19.8923C130.014 20.1161 129.656 20.3957 129.418 20.7103C128.053 20.6668 126.719 20.4607 125.499 20.1051C125.565 19.7637 125.497 19.418 125.3 19.0939C125.103 18.7697 124.782 18.4754 124.361 18.2327C123.94 17.9896 123.43 17.8042 122.869 17.6906C122.307 17.5769 121.709 17.5377 121.117 17.5761C120.501 16.8717 120.144 16.1013 120.069 15.3134C120.614 15.1758 121.098 14.9691 121.486 14.7085C121.873 14.448 122.154 14.1404 122.308 13.8086C122.462 13.4768 122.485 13.1292 122.375 12.7916C122.264 12.454 122.024 12.135 121.67 11.8585C122.42 11.1987 123.396 10.6349 124.539 10.2023C125.018 10.4063 125.571 10.5452 126.156 10.6089C126.74 10.6725 127.343 10.6592 127.917 10.5699C128.492 10.4813 129.024 10.3191 129.476 10.0954C129.927 9.87172 130.285 9.59222 130.523 9.27769L130.524 9.27728ZM129.201 16.6526C129.58 16.7127 129.975 16.729 130.364 16.7005C130.753 16.6721 131.129 16.5995 131.469 16.4868C131.81 16.3742 132.108 16.2239 132.347 16.0444C132.587 15.8649 132.762 15.6599 132.864 15.4411C132.965 15.2223 132.991 14.994 132.939 14.7695C132.887 14.545 132.759 14.3286 132.562 14.1328C132.364 13.937 132.102 13.7657 131.79 13.6287C131.477 13.4917 131.121 13.3917 130.741 13.3346C129.981 13.2201 129.173 13.2839 128.494 13.5119C127.815 13.74 127.32 14.1139 127.117 14.552C126.913 14.9901 127.018 15.4569 127.409 15.8504C127.8 16.244 128.444 16.5323 129.201 16.6526Z" fill="#1A194D"/>
</g>
</g>
<path d="M103.583 33.6491L98.2979 36.7007L109.893 37.6969L111.699 44.7031L116.984 41.6515L115.178 34.6453L103.583 33.6491Z" fill="url(#paint18_linear_3404_120234)"/>
<path d="M95.516 38.3067L90.2306 41.3583L101.826 42.3545L103.632 49.3607L108.917 46.3091L107.111 39.3029L95.516 38.3067Z" fill="url(#paint19_linear_3404_120234)"/>
<g opacity="0.6">
<path d="M53.4664 51.5845L53.4664 51.585L53.4664 51.5882L53.4663 51.5887C53.466 51.6096 53.466 51.6304 53.4663 51.6513V58.1055C53.4663 58.1271 53.4676 58.1487 53.4702 58.17C53.4045 59.1984 54.0642 60.1292 55.1703 60.7665L74.2537 71.7621C75.3119 72.3718 76.6652 72.6614 77.9896 72.6614C79.314 72.6614 80.6673 72.3718 81.7255 71.7621L100.809 60.7665C101.914 60.1297 102.574 59.1998 102.509 58.1724C102.512 58.1505 102.513 58.1281 102.513 58.1055V51.5938C102.513 51.5821 102.513 51.5706 102.512 51.5591C102.485 50.6023 101.841 49.7558 100.809 49.1611L81.7255 38.1655C80.6673 37.5558 79.314 37.2662 77.9896 37.2662C76.6652 37.2662 75.3119 37.5558 74.2537 38.1655L55.1703 49.1611C54.129 49.761 53.4832 50.6173 53.4664 51.5845Z" fill="white"/>
<path d="M53.4664 51.5845L53.4664 51.585L53.4664 51.5882L53.4663 51.5887C53.466 51.6096 53.466 51.6304 53.4663 51.6513V58.1055C53.4663 58.1271 53.4676 58.1487 53.4702 58.17C53.4045 59.1984 54.0642 60.1292 55.1703 60.7665L74.2537 71.7621C75.3119 72.3718 76.6652 72.6614 77.9896 72.6614C79.314 72.6614 80.6673 72.3718 81.7255 71.7621L100.809 60.7665C101.914 60.1297 102.574 59.1998 102.509 58.1724C102.512 58.1505 102.513 58.1281 102.513 58.1055V51.5938C102.513 51.5821 102.513 51.5706 102.512 51.5591C102.485 50.6023 101.841 49.7558 100.809 49.1611L81.7255 38.1655C80.6673 37.5558 79.314 37.2662 77.9896 37.2662C76.6652 37.2662 75.3119 37.5558 74.2537 38.1655L55.1703 49.1611C54.129 49.761 53.4832 50.6173 53.4664 51.5845Z" fill="url(#paint20_linear_3404_120234)"/>
<path d="M53.4664 51.5845L53.4664 51.585L53.4664 51.5882L53.4663 51.5887C53.466 51.6096 53.466 51.6304 53.4663 51.6513V58.1055C53.4663 58.1271 53.4676 58.1487 53.4702 58.17C53.4045 59.1984 54.0642 60.1292 55.1703 60.7665L74.2537 71.7621C75.3119 72.3718 76.6652 72.6614 77.9896 72.6614C79.314 72.6614 80.6673 72.3718 81.7255 71.7621L100.809 60.7665C101.914 60.1297 102.574 59.1998 102.509 58.1724C102.512 58.1505 102.513 58.1281 102.513 58.1055V51.5938C102.513 51.5821 102.513 51.5706 102.512 51.5591C102.485 50.6023 101.841 49.7558 100.809 49.1611L81.7255 38.1655C80.6673 37.5558 79.314 37.2662 77.9896 37.2662C76.6652 37.2662 75.3119 37.5558 74.2537 38.1655L55.1703 49.1611C54.129 49.761 53.4832 50.6173 53.4664 51.5845Z" stroke="#1A194D" stroke-width="1.06624" stroke-linejoin="round"/>
<path d="M81.7255 38.0324C80.6673 37.4227 79.314 37.1331 77.9896 37.1331C76.6652 37.1331 75.3119 37.4227 74.2537 38.0324L55.1703 49.028C54.1152 49.6359 53.4661 50.5075 53.4661 51.4892C53.4661 52.4709 54.1152 53.3424 55.1703 53.9503L74.2537 64.9459C75.3119 65.5556 76.6652 65.8452 77.9896 65.8452C79.314 65.8452 80.6673 65.5556 81.7255 64.9459L100.809 53.9503C101.864 53.3424 102.513 52.4709 102.513 51.4892C102.513 50.5075 101.864 49.6359 100.809 49.028L81.7255 38.0324Z" fill="white" stroke="#1A194D" stroke-width="1.06624" stroke-linejoin="round"/>
<g opacity="0.2">
<path d="M73.5399 44.1485L73.5399 44.1488L73.5399 44.1492L73.5399 44.1495V44.1611H73.5399V48.5097C73.5399 48.5133 73.5399 48.5169 73.5401 48.5205C73.5302 48.7621 73.6898 48.9529 73.8859 49.0659L76.7085 50.6923C76.9002 50.8027 77.1347 50.8503 77.3547 50.8503C77.5748 50.8503 77.8093 50.8027 78.001 50.6923L80.8236 49.0659C81.0195 48.953 81.1789 48.7625 81.1694 48.5213C81.1696 48.5174 81.1697 48.5136 81.1697 48.5097V44.1531H81.1697L81.1696 44.1485C81.1656 43.9162 81.0112 43.7388 80.8236 43.6307L78.001 42.0044C77.8093 41.8939 77.5748 41.8463 77.3547 41.8463C77.1347 41.8463 76.9002 41.8939 76.7085 42.0044L73.8859 43.6307C73.6982 43.7388 73.5439 43.9163 73.5399 44.1485Z" fill="url(#paint21_linear_3404_120234)" stroke="#1A194D" stroke-width="0.53312" stroke-linejoin="round"/>
<path d="M78.0009 41.9845C77.8092 41.8741 77.5747 41.8265 77.3546 41.8265C77.1346 41.8265 76.9001 41.8741 76.7083 41.9845L73.8858 43.6109C73.6956 43.7204 73.5397 43.9014 73.5397 44.1375C73.5397 44.3736 73.6956 44.5546 73.8858 44.6642L76.7083 46.2905C76.9001 46.401 77.1346 46.4486 77.3546 46.4486C77.5747 46.4486 77.8092 46.401 78.0009 46.2905L80.8235 44.6642C81.0136 44.5546 81.1695 44.3736 81.1695 44.1375C81.1695 43.9014 81.0136 43.7204 80.8235 43.6109L78.0009 41.9845Z" fill="white" stroke="#1A194D" stroke-width="0.53312" stroke-linejoin="round"/>
<path d="M78.8052 46.8955L78.8052 46.8957L78.8052 46.8962L78.8052 46.8964V46.908H78.8052V51.2567C78.8052 51.2603 78.8053 51.2639 78.8054 51.2675C78.7955 51.5091 78.9551 51.6999 79.1512 51.8129L81.9738 53.4392C82.1655 53.5497 82.4 53.5973 82.6201 53.5973C82.8401 53.5973 83.0746 53.5497 83.2663 53.4392L86.0889 51.8129C86.2848 51.7 86.4442 51.5095 86.4347 51.2682C86.4349 51.2644 86.435 51.2606 86.435 51.2567V46.9001H86.435L86.4349 46.8955C86.4309 46.6632 86.2765 46.4857 86.0889 46.3776L83.2663 44.7513C83.0746 44.6408 82.8401 44.5932 82.6201 44.5932C82.4 44.5932 82.1655 44.6408 81.9738 44.7513L79.1512 46.3776C78.9635 46.4858 78.8093 46.6633 78.8052 46.8955Z" fill="url(#paint22_linear_3404_120234)" stroke="#1A194D" stroke-width="0.53312" stroke-linejoin="round"/>
<path d="M83.2663 44.7316C83.0746 44.6211 82.8401 44.5735 82.6201 44.5735C82.4 44.5735 82.1655 44.6211 81.9738 44.7316L79.1512 46.3579C78.9611 46.4675 78.8052 46.6485 78.8052 46.8846C78.8052 47.1207 78.9611 47.3017 79.1512 47.4112L81.9738 49.0376C82.1655 49.148 82.4 49.1956 82.6201 49.1956C82.8401 49.1956 83.0746 49.148 83.2663 49.0376L86.0889 47.4112C86.2791 47.3017 86.435 47.1207 86.435 46.8846C86.435 46.6485 86.2791 46.4675 86.0889 46.3579L83.2663 44.7316Z" fill="white" stroke="#1A194D" stroke-width="0.53312" stroke-linejoin="round"/>
<path d="M84.8394 50.0242L84.8393 50.0245L84.8393 50.0249L84.8393 50.0252V50.0368H84.8393V54.3854C84.8393 54.389 84.8394 54.3926 84.8395 54.3962C84.8297 54.6378 84.9892 54.8286 85.1853 54.9416L88.0079 56.5679C88.1996 56.6784 88.4341 56.726 88.6542 56.726C88.8742 56.726 89.1087 56.6784 89.3004 56.5679L92.123 54.9416C92.3189 54.8287 92.4784 54.6382 92.4689 54.397C92.469 54.3931 92.4691 54.3893 92.4691 54.3854V50.0288H92.4691L92.4691 50.0242C92.465 49.7919 92.3106 49.6145 92.123 49.5064L89.3004 47.88C89.1087 47.7696 88.8742 47.722 88.6542 47.722C88.4341 47.722 88.1996 47.7696 88.0079 47.88L85.1853 49.5064C84.9976 49.6145 84.8434 49.792 84.8394 50.0242Z" fill="url(#paint23_linear_3404_120234)" stroke="#1A194D" stroke-width="0.53312" stroke-linejoin="round"/>
<path d="M89.3005 47.8604C89.1088 47.7499 88.8743 47.7023 88.6542 47.7023C88.4342 47.7023 88.1997 47.7499 88.008 47.8604L85.1854 49.4867C84.9952 49.5963 84.8393 49.7773 84.8393 50.0134C84.8393 50.2495 84.9952 50.4305 85.1854 50.54L88.008 52.1664C88.1997 52.2768 88.4342 52.3244 88.6542 52.3244C88.8743 52.3244 89.1088 52.2768 89.3005 52.1664L92.1231 50.54C92.3132 50.4305 92.4691 50.2495 92.4691 50.0134C92.4691 49.7773 92.3132 49.5963 92.1231 49.4867L89.3005 47.8604Z" fill="white" stroke="#1A194D" stroke-width="0.53312" stroke-linejoin="round"/>
<path d="M79.5734 53.0002L79.5734 53.0005L79.5733 53.0009L79.5733 53.0012V53.0128H79.5733V57.3614C79.5733 57.365 79.5734 57.3686 79.5735 57.3722C79.5637 57.6138 79.7232 57.8046 79.9193 57.9176L82.7419 59.5439C82.9336 59.6544 83.1681 59.702 83.3882 59.702C83.6082 59.702 83.8427 59.6544 84.0345 59.5439L86.857 57.9176C87.053 57.8047 87.2124 57.6142 87.2029 57.373C87.203 57.3691 87.2031 57.3653 87.2031 57.3614V53.0048H87.2032L87.2031 53.0002C87.199 52.7679 87.0446 52.5905 86.857 52.4824L84.0345 50.856C83.8427 50.7456 83.6082 50.698 83.3882 50.698C83.1681 50.698 82.9336 50.7456 82.7419 50.856L79.9193 52.4824C79.7316 52.5905 79.5774 52.768 79.5734 53.0002Z" fill="url(#paint24_linear_3404_120234)" stroke="#1A194D" stroke-width="0.53312" stroke-linejoin="round"/>
<path d="M84.0345 50.8363C83.8427 50.7259 83.6082 50.6783 83.3882 50.6783C83.1681 50.6783 82.9336 50.7259 82.7419 50.8363L79.9193 52.4627C79.7292 52.5722 79.5733 52.7532 79.5733 52.9893C79.5733 53.2254 79.7292 53.4064 79.9193 53.516L82.7419 55.1423C82.9336 55.2528 83.1681 55.3004 83.3882 55.3004C83.6082 55.3004 83.8427 55.2528 84.0345 55.1423L86.857 53.516C87.0472 53.4064 87.2031 53.2254 87.2031 52.9893C87.2031 52.7532 87.0472 52.5722 86.857 52.4627L84.0345 50.8363Z" fill="white" stroke="#1A194D" stroke-width="0.53312" stroke-linejoin="round"/>
<path d="M57.4266 53.4524L57.4266 53.4526L57.4266 53.4531L57.4266 53.4534V53.465H57.4266V57.8136C57.4266 57.8172 57.4267 57.8208 57.4268 57.8244C57.4169 58.066 57.5765 58.2568 57.7726 58.3698L60.5952 59.9961C60.7869 60.1066 61.0214 60.1542 61.2415 60.1542C61.4615 60.1542 61.696 60.1066 61.8877 59.9961L64.7103 58.3698C64.9062 58.2569 65.0656 58.0664 65.0561 57.8252C65.0563 57.8213 65.0564 57.8175 65.0564 57.8136V53.457H65.0564L65.0563 53.4524C65.0523 53.2201 64.8979 53.0427 64.7103 52.9345L61.8877 51.3082C61.696 51.1978 61.4615 51.1501 61.2415 51.1501C61.0214 51.1501 60.7869 51.1978 60.5952 51.3082L57.7726 52.9345C57.5849 53.0427 57.4307 53.2202 57.4266 53.4524Z" fill="url(#paint25_linear_3404_120234)" stroke="#1A194D" stroke-width="0.53312" stroke-linejoin="round"/>
<path d="M61.8876 51.2885C61.6959 51.178 61.4614 51.1304 61.2413 51.1304C61.0213 51.1304 60.7868 51.178 60.5951 51.2885L57.7725 52.9148C57.5823 53.0244 57.4264 53.2054 57.4264 53.4415C57.4264 53.6776 57.5823 53.8586 57.7725 53.9682L60.5951 55.5945C60.7868 55.7049 61.0213 55.7526 61.2413 55.7526C61.4614 55.7526 61.6959 55.7049 61.8876 55.5945L64.7102 53.9682C64.9003 53.8586 65.0562 53.6776 65.0562 53.4415C65.0562 53.2054 64.9003 53.0244 64.7102 52.9148L61.8876 51.2885Z" fill="white" stroke="#1A194D" stroke-width="0.53312" stroke-linejoin="round"/>
<path d="M67.9568 53.2233L67.9568 53.2236L67.9568 53.224L67.9568 53.2243V53.2359H67.9567V57.5845C67.9567 57.5881 67.9568 57.5917 67.957 57.5953C67.9471 57.8369 68.1066 58.0277 68.3028 58.1407L71.1253 59.7671C71.3171 59.8775 71.5516 59.9251 71.7716 59.9251C71.9917 59.9251 72.2262 59.8775 72.4179 59.7671L75.2405 58.1407C75.4364 58.0278 75.5958 57.8373 75.5863 57.5961C75.5865 57.5922 75.5865 57.5884 75.5865 57.5845V53.2279H75.5866L75.5865 53.2233C75.5825 52.991 75.4281 52.8136 75.2405 52.7055L72.4179 51.0791C72.2262 50.9687 71.9917 50.9211 71.7716 50.9211C71.5516 50.9211 71.3171 50.9687 71.1253 51.0791L68.3028 52.7055C68.1151 52.8136 67.9608 52.9911 67.9568 53.2233Z" fill="url(#paint26_linear_3404_120234)" stroke="#1A194D" stroke-width="0.53312" stroke-linejoin="round"/>
<path d="M72.4179 51.0595C72.2262 50.949 71.9917 50.9014 71.7716 50.9014C71.5516 50.9014 71.3171 50.949 71.1253 51.0595L68.3028 52.6858C68.1126 52.7954 67.9567 52.9764 67.9567 53.2125C67.9567 53.4485 68.1126 53.6295 68.3028 53.7391L71.1253 55.3654C71.3171 55.4759 71.5516 55.5235 71.7716 55.5235C71.9917 55.5235 72.2262 55.4759 72.4179 55.3654L75.2405 53.7391C75.4306 53.6295 75.5865 53.4485 75.5865 53.2125C75.5865 52.9764 75.4306 52.7954 75.2405 52.6858L72.4179 51.0595Z" fill="white" stroke="#1A194D" stroke-width="0.53312" stroke-linejoin="round"/>
<path d="M73.9913 56.3521L73.9913 56.3524L73.9913 56.3529L73.9913 56.3531V56.3647H73.9913V60.7133C73.9913 60.7169 73.9914 60.7206 73.9915 60.7242C73.9816 60.9658 74.1412 61.1566 74.3373 61.2696L77.1599 62.8959C77.3516 63.0064 77.5861 63.054 77.8062 63.054C78.0262 63.054 78.2607 63.0064 78.4524 62.8959L81.275 61.2696C81.4709 61.1567 81.6303 60.9662 81.6208 60.7249C81.621 60.7211 81.6211 60.7172 81.6211 60.7133V56.3568H81.6211L81.621 56.3521C81.617 56.1199 81.4626 55.9424 81.275 55.8343L78.4524 54.208C78.2607 54.0975 78.0262 54.0499 77.8062 54.0499C77.5861 54.0499 77.3516 54.0975 77.1599 54.208L74.3373 55.8343C74.1496 55.9425 73.9954 56.1199 73.9913 56.3521Z" fill="url(#paint27_linear_3404_120234)" stroke="#1A194D" stroke-width="0.53312" stroke-linejoin="round"/>
<path d="M78.4524 54.1883C78.2607 54.0778 78.0262 54.0302 77.8062 54.0302C77.5861 54.0302 77.3516 54.0778 77.1599 54.1883L74.3373 55.8146C74.1471 55.9242 73.9913 56.1052 73.9913 56.3413C73.9913 56.5774 74.1471 56.7584 74.3373 56.8679L77.1599 58.4943C77.3516 58.6047 77.5861 58.6523 77.8062 58.6523C78.0262 58.6523 78.2607 58.6047 78.4524 58.4943L81.275 56.8679C81.4652 56.7584 81.6211 56.5774 81.6211 56.3413C81.6211 56.1052 81.4652 55.9242 81.275 55.8146L78.4524 54.1883Z" fill="white" stroke="#1A194D" stroke-width="0.53312" stroke-linejoin="round"/>
<path d="M68.7261 59.3281L68.7261 59.3283L68.7261 59.3288L68.7261 59.329V59.3406H68.726V63.6893C68.726 63.6929 68.7261 63.6965 68.7262 63.7001C68.7164 63.9417 68.8759 64.1325 69.072 64.2455L71.8946 65.8718C72.0864 65.9823 72.3208 66.0299 72.5409 66.0299C72.7609 66.0299 72.9954 65.9823 73.1872 65.8718L76.0097 64.2455C76.2057 64.1326 76.3651 63.9421 76.3556 63.7008C76.3557 63.697 76.3558 63.6931 76.3558 63.6893V59.3327H76.3559L76.3558 59.3281C76.3518 59.0958 76.1974 58.9183 76.0097 58.8102L73.1872 57.1839C72.9954 57.0734 72.7609 57.0258 72.5409 57.0258C72.3208 57.0258 72.0864 57.0734 71.8946 57.1839L69.072 58.8102C68.8843 58.9184 68.7301 59.0959 68.7261 59.3281Z" fill="url(#paint28_linear_3404_120234)" stroke="#1A194D" stroke-width="0.53312" stroke-linejoin="round"/>
<path d="M73.1872 57.1641C72.9955 57.0537 72.761 57.0061 72.541 57.0061C72.3209 57.0061 72.0864 57.0537 71.8947 57.1641L69.0721 58.7905C68.882 58.9 68.7261 59.081 68.7261 59.3171C68.7261 59.5532 68.882 59.7342 69.0721 59.8438L71.8947 61.4701C72.0864 61.5806 72.3209 61.6282 72.541 61.6282C72.761 61.6282 72.9955 61.5806 73.1872 61.4701L76.0098 59.8438C76.2 59.7342 76.3559 59.5532 76.3559 59.3171C76.3559 59.081 76.2 58.9 76.0098 58.7905L73.1872 57.1641Z" fill="white" stroke="#1A194D" stroke-width="0.53312" stroke-linejoin="round"/>
<path d="M79.2567 59.099L79.2567 59.0992L79.2567 59.0997L79.2567 59.1V59.1116H79.2567V63.4602C79.2567 63.4638 79.2567 63.4674 79.2569 63.471C79.247 63.7126 79.4066 63.9034 79.6027 64.0164L82.4253 65.6427C82.617 65.7532 82.8515 65.8008 83.0715 65.8008C83.2916 65.8008 83.5261 65.7532 83.7178 65.6427L86.5404 64.0164C86.7363 63.9035 86.8957 63.713 86.8862 63.4718C86.8864 63.4679 86.8865 63.4641 86.8865 63.4602V59.1036H86.8865L86.8864 59.099C86.8824 58.8667 86.728 58.6893 86.5404 58.5812L83.7178 56.9548C83.5261 56.8444 83.2916 56.7968 83.0715 56.7968C82.8515 56.7968 82.617 56.8444 82.4253 56.9548L79.6027 58.5812C79.415 58.6893 79.2607 58.8668 79.2567 59.099Z" fill="url(#paint29_linear_3404_120234)" stroke="#1A194D" stroke-width="0.53312" stroke-linejoin="round"/>
<path d="M83.7177 56.9352C83.526 56.8248 83.2915 56.7772 83.0714 56.7772C82.8514 56.7772 82.6169 56.8248 82.4251 56.9352L79.6026 58.5616C79.4124 58.6711 79.2565 58.8521 79.2565 59.0882C79.2565 59.3243 79.4124 59.5053 79.6026 59.6149L82.4251 61.2412C82.6169 61.3517 82.8514 61.3993 83.0714 61.3993C83.2915 61.3993 83.526 61.3517 83.7177 61.2412L86.5403 59.6149C86.7304 59.5053 86.8863 59.3243 86.8863 59.0882C86.8863 58.8521 86.7304 58.6711 86.5403 58.5616L83.7177 56.9352Z" fill="white" stroke="#1A194D" stroke-width="0.53312" stroke-linejoin="round"/>
<path d="M73.9913 62.0753L73.9913 62.0755L73.9913 62.076L73.9913 62.0762V62.0878H73.9913V66.4365C73.9913 66.4401 73.9914 66.4437 73.9915 66.4473C73.9816 66.6889 74.1412 66.8797 74.3373 66.9927L77.1599 68.619C77.3516 68.7295 77.5861 68.7771 77.8062 68.7771C78.0262 68.7771 78.2607 68.7295 78.4524 68.619L81.275 66.9927C81.4709 66.8798 81.6303 66.6893 81.6208 66.448C81.621 66.4442 81.6211 66.4403 81.6211 66.4365V62.0799H81.6211L81.621 62.0753C81.617 61.843 81.4626 61.6655 81.275 61.5574L78.4524 59.9311C78.2607 59.8206 78.0262 59.773 77.8062 59.773C77.5861 59.773 77.3516 59.8206 77.1599 59.9311L74.3373 61.5574C74.1496 61.6656 73.9954 61.8431 73.9913 62.0753Z" fill="url(#paint30_linear_3404_120234)" stroke="#1A194D" stroke-width="0.53312" stroke-linejoin="round"/>
<path d="M78.4524 59.9114C78.2607 59.8009 78.0262 59.7533 77.8062 59.7533C77.5861 59.7533 77.3516 59.8009 77.1599 59.9114L74.3373 61.5377C74.1471 61.6473 73.9913 61.8283 73.9913 62.0644C73.9913 62.3005 74.1471 62.4815 74.3373 62.5911L77.1599 64.2174C77.3516 64.3279 77.5861 64.3755 77.8062 64.3755C78.0262 64.3755 78.2607 64.3279 78.4524 64.2174L81.275 62.5911C81.4652 62.4815 81.6211 62.3005 81.6211 62.0644C81.6211 61.8283 81.4652 61.6473 81.275 61.5377L78.4524 59.9114Z" fill="white" stroke="#1A194D" stroke-width="0.53312" stroke-linejoin="round"/>
</g>
</g>
<path d="M51.1829 68.8491L45.8975 71.9007L57.4926 72.8969L59.2984 79.9031L64.5839 76.8515L62.778 69.8453L51.1829 68.8491Z" fill="url(#paint31_linear_3404_120234)"/>
<path d="M43.1157 73.5067L37.8302 76.5583L49.4254 77.5545L51.2312 84.5607L56.5166 81.5091L54.7108 74.5029L43.1157 73.5067Z" fill="url(#paint32_linear_3404_120234)"/>
<defs>
<linearGradient id="paint0_linear_3404_120234" x1="1.59906" y1="95.8565" x2="49.5799" y2="92.6578" gradientUnits="userSpaceOnUse">
<stop stop-color="#C0C3D9"/>
<stop offset="0.624631" stop-color="#C0C3D9" stop-opacity="0"/>
</linearGradient>
<linearGradient id="paint1_linear_3404_120234" x1="105.599" y1="25.0565" x2="153.58" y2="21.8578" gradientUnits="userSpaceOnUse">
<stop stop-color="#C0C3D9"/>
<stop offset="0.624631" stop-color="#C0C3D9" stop-opacity="0"/>
</linearGradient>
<linearGradient id="paint2_linear_3404_120234" x1="125.445" y1="15.7808" x2="132.541" y2="15.3077" gradientUnits="userSpaceOnUse">
<stop stop-color="#C0C3D9"/>
<stop offset="0.624631" stop-color="#C0C3D9" stop-opacity="0"/>
</linearGradient>
<linearGradient id="paint3_linear_3404_120234" x1="120.179" y1="18.7568" x2="127.276" y2="18.2837" gradientUnits="userSpaceOnUse">
<stop stop-color="#C0C3D9"/>
<stop offset="0.624631" stop-color="#C0C3D9" stop-opacity="0"/>
</linearGradient>
<linearGradient id="paint4_linear_3404_120234" x1="130.71" y1="18.5277" x2="137.807" y2="18.0546" gradientUnits="userSpaceOnUse">
<stop stop-color="#C0C3D9"/>
<stop offset="0.624631" stop-color="#C0C3D9" stop-opacity="0"/>
</linearGradient>
<linearGradient id="paint5_linear_3404_120234" x1="125.445" y1="21.504" x2="132.541" y2="21.0309" gradientUnits="userSpaceOnUse">
<stop stop-color="#C0C3D9"/>
<stop offset="0.624631" stop-color="#C0C3D9" stop-opacity="0"/>
</linearGradient>
<linearGradient id="paint6_linear_3404_120234" x1="136.744" y1="21.6566" x2="143.84" y2="21.1834" gradientUnits="userSpaceOnUse">
<stop stop-color="#C0C3D9"/>
<stop offset="0.624631" stop-color="#C0C3D9" stop-opacity="0"/>
</linearGradient>
<linearGradient id="paint7_linear_3404_120234" x1="131.479" y1="24.6324" x2="138.575" y2="24.1593" gradientUnits="userSpaceOnUse">
<stop stop-color="#C0C3D9"/>
<stop offset="0.624631" stop-color="#C0C3D9" stop-opacity="0"/>
</linearGradient>
<linearGradient id="paint8_linear_3404_120234" x1="142.009" y1="24.4036" x2="149.106" y2="23.9305" gradientUnits="userSpaceOnUse">
<stop stop-color="#C0C3D9"/>
<stop offset="0.624631" stop-color="#C0C3D9" stop-opacity="0"/>
</linearGradient>
<linearGradient id="paint9_linear_3404_120234" x1="136.744" y1="27.3797" x2="143.84" y2="26.9066" gradientUnits="userSpaceOnUse">
<stop stop-color="#C0C3D9"/>
<stop offset="0.624631" stop-color="#C0C3D9" stop-opacity="0"/>
</linearGradient>
<linearGradient id="paint10_linear_3404_120234" x1="114.597" y1="22.1087" x2="121.693" y2="21.6356" gradientUnits="userSpaceOnUse">
<stop stop-color="#C0C3D9"/>
<stop offset="0.624631" stop-color="#C0C3D9" stop-opacity="0"/>
</linearGradient>
<linearGradient id="paint11_linear_3404_120234" x1="109.331" y1="25.0845" x2="116.428" y2="24.6114" gradientUnits="userSpaceOnUse">
<stop stop-color="#C0C3D9"/>
<stop offset="0.624631" stop-color="#C0C3D9" stop-opacity="0"/>
</linearGradient>
<linearGradient id="paint12_linear_3404_120234" x1="119.862" y1="24.8555" x2="126.958" y2="24.3824" gradientUnits="userSpaceOnUse">
<stop stop-color="#C0C3D9"/>
<stop offset="0.624631" stop-color="#C0C3D9" stop-opacity="0"/>
</linearGradient>
<linearGradient id="paint13_linear_3404_120234" x1="114.597" y1="27.8317" x2="121.693" y2="27.3586" gradientUnits="userSpaceOnUse">
<stop stop-color="#C0C3D9"/>
<stop offset="0.624631" stop-color="#C0C3D9" stop-opacity="0"/>
</linearGradient>
<linearGradient id="paint14_linear_3404_120234" x1="125.896" y1="27.9843" x2="132.993" y2="27.5112" gradientUnits="userSpaceOnUse">
<stop stop-color="#C0C3D9"/>
<stop offset="0.624631" stop-color="#C0C3D9" stop-opacity="0"/>
</linearGradient>
<linearGradient id="paint15_linear_3404_120234" x1="120.631" y1="30.9603" x2="127.728" y2="30.4872" gradientUnits="userSpaceOnUse">
<stop stop-color="#C0C3D9"/>
<stop offset="0.624631" stop-color="#C0C3D9" stop-opacity="0"/>
</linearGradient>
<linearGradient id="paint16_linear_3404_120234" x1="131.161" y1="30.7314" x2="138.258" y2="30.2583" gradientUnits="userSpaceOnUse">
<stop stop-color="#C0C3D9"/>
<stop offset="0.624631" stop-color="#C0C3D9" stop-opacity="0"/>
</linearGradient>
<linearGradient id="paint17_linear_3404_120234" x1="125.896" y1="33.7074" x2="132.993" y2="33.2343" gradientUnits="userSpaceOnUse">
<stop stop-color="#C0C3D9"/>
<stop offset="0.624631" stop-color="#C0C3D9" stop-opacity="0"/>
</linearGradient>
<linearGradient id="paint18_linear_3404_120234" x1="115.334" y1="34.7349" x2="98.0077" y2="64.7441" gradientUnits="userSpaceOnUse">
<stop stop-color="#7F7EFF"/>
<stop offset="1" stop-color="#67DAE1"/>
</linearGradient>
<linearGradient id="paint19_linear_3404_120234" x1="115.334" y1="34.7349" x2="98.0077" y2="64.7441" gradientUnits="userSpaceOnUse">
<stop stop-color="#7F7EFF"/>
<stop offset="1" stop-color="#67DAE1"/>
</linearGradient>
<linearGradient id="paint20_linear_3404_120234" x1="53.9992" y1="61.4565" x2="101.98" y2="58.2578" gradientUnits="userSpaceOnUse">
<stop stop-color="#C0C3D9"/>
<stop offset="0.624631" stop-color="#C0C3D9" stop-opacity="0"/>
</linearGradient>
<linearGradient id="paint21_linear_3404_120234" x1="73.8064" y1="45.6119" x2="80.9031" y2="45.1388" gradientUnits="userSpaceOnUse">
<stop stop-color="#C0C3D9"/>
<stop offset="0.624631" stop-color="#C0C3D9" stop-opacity="0"/>
</linearGradient>
<linearGradient id="paint22_linear_3404_120234" x1="79.0717" y1="48.3589" x2="86.1684" y2="47.8857" gradientUnits="userSpaceOnUse">
<stop stop-color="#C0C3D9"/>
<stop offset="0.624631" stop-color="#C0C3D9" stop-opacity="0"/>
</linearGradient>
<linearGradient id="paint23_linear_3404_120234" x1="85.1058" y1="51.4876" x2="92.2025" y2="51.0145" gradientUnits="userSpaceOnUse">
<stop stop-color="#C0C3D9"/>
<stop offset="0.624631" stop-color="#C0C3D9" stop-opacity="0"/>
</linearGradient>
<linearGradient id="paint24_linear_3404_120234" x1="79.8398" y1="54.4636" x2="86.9365" y2="53.9905" gradientUnits="userSpaceOnUse">
<stop stop-color="#C0C3D9"/>
<stop offset="0.624631" stop-color="#C0C3D9" stop-opacity="0"/>
</linearGradient>
<linearGradient id="paint25_linear_3404_120234" x1="57.6931" y1="54.9158" x2="64.7898" y2="54.4426" gradientUnits="userSpaceOnUse">
<stop stop-color="#C0C3D9"/>
<stop offset="0.624631" stop-color="#C0C3D9" stop-opacity="0"/>
</linearGradient>
<linearGradient id="paint26_linear_3404_120234" x1="68.2233" y1="54.6867" x2="75.3199" y2="54.2136" gradientUnits="userSpaceOnUse">
<stop stop-color="#C0C3D9"/>
<stop offset="0.624631" stop-color="#C0C3D9" stop-opacity="0"/>
</linearGradient>
<linearGradient id="paint27_linear_3404_120234" x1="74.2578" y1="57.8155" x2="81.3545" y2="57.3424" gradientUnits="userSpaceOnUse">
<stop stop-color="#C0C3D9"/>
<stop offset="0.624631" stop-color="#C0C3D9" stop-opacity="0"/>
</linearGradient>
<linearGradient id="paint28_linear_3404_120234" x1="68.9926" y1="60.7914" x2="76.0892" y2="60.3183" gradientUnits="userSpaceOnUse">
<stop stop-color="#C0C3D9"/>
<stop offset="0.624631" stop-color="#C0C3D9" stop-opacity="0"/>
</linearGradient>
<linearGradient id="paint29_linear_3404_120234" x1="79.5232" y1="60.5624" x2="86.6199" y2="60.0893" gradientUnits="userSpaceOnUse">
<stop stop-color="#C0C3D9"/>
<stop offset="0.624631" stop-color="#C0C3D9" stop-opacity="0"/>
</linearGradient>
<linearGradient id="paint30_linear_3404_120234" x1="74.2578" y1="63.5386" x2="81.3545" y2="63.0655" gradientUnits="userSpaceOnUse">
<stop stop-color="#C0C3D9"/>
<stop offset="0.624631" stop-color="#C0C3D9" stop-opacity="0"/>
</linearGradient>
<linearGradient id="paint31_linear_3404_120234" x1="62.9332" y1="69.9349" x2="45.6073" y2="99.9441" gradientUnits="userSpaceOnUse">
<stop stop-color="#7F7EFF"/>
<stop offset="1" stop-color="#67DAE1"/>
</linearGradient>
<linearGradient id="paint32_linear_3404_120234" x1="62.9332" y1="69.9349" x2="45.6073" y2="99.9441" gradientUnits="userSpaceOnUse">
<stop stop-color="#7F7EFF"/>
<stop offset="1" stop-color="#67DAE1"/>
</linearGradient>
<clipPath id="clip0_3404_120234">
<rect width="29.988" height="29.988" rx="3.9984" transform="matrix(0.866025 0.5 -0.866025 0.5 129.971 0)" fill="white"/>
</clipPath>
<clipPath id="clip1_3404_120234">
<rect width="19.4322" height="19.4322" fill="white" transform="matrix(0.866025 0.5 -0.866025 0.5 129.971 5.27789)"/>
</clipPath>
</defs>
</svg>
