<svg version="1.1" id="Layer_1" xmlns="http://www.w3.org/2000/svg" xmlns:xlink="http://www.w3.org/1999/xlink" x="0px" y="0px"
	 width="100%" viewBox="0 0 1024 672" enable-background="new 0 0 1024 672" xml:space="preserve">
<path fill="#000000" opacity="1.000000" stroke="none" 
	d="
M699.328064,414.157104 
	C681.148682,448.917023 628.620605,452.234222 604.619995,424.263123 
	C594.717896,412.722809 590.399597,399.117157 590.887817,384.117828 
	C591.471191,366.194580 597.401367,350.532806 612.153442,339.254211 
	C636.774963,320.430054 680.768066,323.621460 698.249451,354.941864 
	C708.950562,374.114288 709.040649,393.984283 699.328064,414.157104 
M631.527039,416.036682 
	C650.343079,426.781860 671.389282,419.045898 677.997498,398.974762 
	C680.016785,392.841736 680.063660,386.518860 679.601990,380.216461 
	C678.370178,363.400848 666.724243,351.205353 651.070618,350.079987 
	C634.431763,348.883850 620.832947,359.713959 618.181396,376.223907 
	C615.721436,391.541412 617.610718,405.433044 631.527039,416.036682 
z"/>
<path fill="#000000" opacity="1.000000" stroke="none" 
	d="
M804.332947,330.115753 
	C808.670227,331.101715 808.768616,334.780884 809.804504,337.578308 
	C818.589478,361.302460 827.231750,385.079437 835.950439,408.828186 
	C836.439087,410.159302 836.546021,411.753845 838.429993,412.949799 
	C840.644287,406.911926 842.824280,401.047974 844.947510,395.163574 
	C852.180054,375.118896 859.475342,355.096069 866.535461,334.990662 
	C867.787720,331.424438 869.636658,329.854706 873.376953,329.969025 
	C878.703552,330.131775 884.041138,329.914185 889.369873,330.037384 
	C894.351440,330.152557 894.997314,331.107025 893.177673,335.796387 
	C886.612732,352.714722 879.940552,369.591431 873.351135,386.500336 
	C861.140564,417.833710 848.918518,449.162781 836.827515,480.542328 
	C835.562073,483.826599 833.848022,485.361969 830.247070,485.203674 
	C825.091736,484.977020 819.918274,485.069275 814.754639,485.152222 
	C810.719238,485.217010 809.742249,483.591583 811.226013,479.884735 
	C815.124268,470.145874 818.713013,460.279816 822.772949,450.610565 
	C824.450073,446.616272 824.403198,443.123810 822.796997,439.154236 
	C809.307007,405.816132 795.945129,372.426178 782.572083,339.040894 
	C781.599670,336.613281 780.209961,334.284088 780.128540,330.622894 
	C788.108826,329.411499 796.033630,330.178741 804.332947,330.115753 
z"/>
<path fill="#000000" opacity="1.000000" stroke="none" 
	d="
M287.710876,420.778778 
	C292.557556,421.134308 293.844086,418.991333 293.821869,414.776581 
	C293.684845,388.793335 293.875305,362.807892 293.643433,336.825958 
	C293.598633,331.807922 295.223480,329.829010 300.137665,330.016907 
	C304.960846,330.201324 309.796417,330.089172 314.626251,330.061218 
	C317.890564,330.042358 319.392548,331.386261 319.384338,334.868958 
	C319.306366,367.848450 319.311127,400.828217 319.374420,433.807739 
	C319.380249,436.853058 318.223480,438.385223 315.245911,438.944183 
	C295.846222,442.586243 276.357086,444.669220 256.719299,441.291718 
	C235.756561,437.686310 224.494843,424.845825 224.102783,403.494415 
	C223.690018,381.015656 224.054413,358.523529 223.894836,336.038544 
	C223.862106,331.428040 225.733078,329.786499 230.138428,329.996307 
	C234.292603,330.194122 238.464554,329.993958 242.628403,330.018250 
	C249.760864,330.059845 250.019409,330.293427 250.020676,337.250488 
	C250.024216,356.738403 249.991943,376.226318 249.982559,395.714233 
	C249.981522,397.879181 249.958206,400.048492 250.079269,402.208313 
	C250.682419,412.969330 256.765778,419.104645 267.368347,420.887970 
	C274.092926,422.019012 280.636261,420.973724 287.710876,420.778778 
z"/>
<path fill="#000000" opacity="1.000000" stroke="none" 
	d="
M149.748688,352.227844 
	C136.839386,352.051971 137.706223,353.736633 137.837982,340.611237 
	C137.941025,330.348602 135.346588,330.584991 147.987244,330.124603 
	C154.840363,329.875000 154.822449,329.979309 154.886063,323.069489 
	C154.983978,312.433411 154.479614,301.772583 158.366653,291.499908 
	C162.250839,281.234772 169.332809,274.556793 179.736130,271.449097 
	C190.260773,268.305176 200.731262,268.456696 211.087448,272.465942 
	C214.617493,273.832550 216.452957,275.891998 216.268295,279.919830 
	C216.011017,285.530884 216.203522,291.162567 216.203522,296.468140 
	C213.588959,297.898529 212.049500,296.560730 210.549377,295.679352 
	C207.301788,293.771362 203.708405,292.981323 200.100220,292.471039 
	C188.043411,290.765961 181.298706,296.654266 181.166794,308.851746 
	C181.107330,314.350433 181.297745,319.854156 181.135742,325.348541 
	C181.032730,328.842560 182.501114,330.062653 185.883438,330.006653 
	C193.547089,329.879761 201.217453,330.109100 208.879166,329.934357 
	C212.951218,329.841492 214.648468,331.331757 214.357803,335.495026 
	C214.091507,339.309357 214.127472,343.167175 214.350357,346.987122 
	C214.584076,350.992554 212.766739,352.268250 209.004913,352.187073 
	C201.675644,352.028900 194.328415,352.378815 187.012939,352.021057 
	C182.302811,351.790680 181.029968,353.577942 181.062241,358.051117 
	C181.237839,382.380829 181.167236,406.712311 181.189392,431.043182 
	C181.198425,440.977295 181.207596,440.975555 171.502197,440.955780 
	C168.169220,440.948975 164.835495,440.997955 161.503403,440.942871 
	C155.567688,440.844788 154.895676,440.187927 154.893494,434.297272 
	C154.884064,408.799896 154.869247,383.302368 154.950729,357.805237 
	C154.961700,354.373352 154.602036,351.707520 149.748688,352.227844 
z"/>
<path fill="#000000" opacity="1.000000" stroke="none" 
	d="
M494.774597,436.952454 
	C474.926666,446.054382 455.664673,444.573792 436.610870,435.629822 
	C435.095062,434.918304 433.458832,433.940155 433.319336,432.127380 
	C432.776428,425.073181 432.575012,418.010406 433.610260,409.649506 
	C439.167419,413.287292 443.934692,416.195587 449.179840,418.103516 
	C458.075714,421.339355 467.102997,423.243317 476.530518,420.762878 
	C480.811890,419.636414 484.138123,417.440063 484.818268,412.562195 
	C485.561981,407.228394 483.937256,403.054779 479.128021,400.322571 
	C474.436310,397.657227 469.242798,396.427429 464.102051,395.051270 
	C458.791046,393.629517 453.459229,392.252533 448.527893,389.745697 
	C435.873138,383.312653 430.938873,372.594269 431.818634,358.887848 
	C432.624512,346.333038 438.622711,336.857513 450.284454,332.019470 
	C467.237701,324.986176 484.108307,326.184296 500.497955,334.385529 
	C501.844879,335.059509 503.542297,335.676727 503.687775,337.297852 
	C504.317993,344.320496 504.664978,351.358185 503.407654,358.146759 
	C500.825439,358.747467 499.728058,357.211945 498.347870,356.405212 
	C489.207214,351.062469 479.481293,348.095764 468.785309,349.099915 
	C462.670837,349.673920 458.158203,353.133850 457.308258,357.787720 
	C456.103088,364.386292 458.185242,367.948883 465.063324,371.028564 
	C471.181824,373.768097 477.819427,374.802277 484.152161,376.828461 
	C495.509979,380.462402 505.446991,385.912262 508.893646,398.503326 
	C512.643982,412.203796 509.393829,429.050293 494.774597,436.952454 
z"/>
<path fill="#000000" opacity="1.000000" stroke="none" 
	d="
M553.107422,327.505798 
	C554.201965,330.408600 556.409607,329.952393 558.334839,329.971924 
	C565.328186,330.042877 572.322693,330.079529 579.316101,330.036224 
	C582.861450,330.014282 584.467529,331.495972 584.286865,335.167511 
	C584.090759,339.154480 584.117126,343.163330 584.276062,347.153503 
	C584.419922,350.766449 582.950623,352.292145 579.297485,352.221619 
	C572.139526,352.083374 564.977173,352.189758 557.816895,352.152100 
	C555.302307,352.138885 553.017883,352.314636 553.022583,355.672852 
	C553.046448,372.809998 552.724121,389.957550 553.238525,407.079987 
	C553.503479,415.900635 558.531067,419.785065 567.315308,419.721130 
	C572.359314,419.684418 577.236206,418.799622 581.825195,416.571198 
	C583.429626,415.792114 584.945068,414.659821 587.521423,414.770508 
	C588.698608,421.663696 588.221497,428.542725 587.807373,435.398865 
	C587.704712,437.098541 586.003967,437.703094 584.633423,438.272003 
	C573.566467,442.865570 562.052612,444.248688 550.408997,441.569641 
	C535.691833,438.183380 527.195862,426.695587 526.963196,410.245056 
	C526.715942,392.763397 526.743042,375.274506 526.944641,357.792145 
	C526.995483,353.378876 525.587708,351.967010 521.225708,352.071747 
	C508.511322,352.377106 510.109253,352.337128 510.071198,340.627869 
	C510.037262,330.171844 510.072571,329.933411 520.797180,330.098541 
	C525.742249,330.174683 527.211548,328.358032 526.902039,323.686554 
	C526.583496,318.879761 526.981262,314.029999 526.845581,309.205231 
	C526.735229,305.280914 528.063599,303.366425 532.334167,303.601074 
	C537.314392,303.874725 542.330078,303.823547 547.315125,303.589355 
	C551.400330,303.397430 553.077454,305.005798 552.982239,309.087952 
	C552.842468,315.077515 552.988892,321.073700 553.107422,327.505798 
z"/>
<path fill="#000000" opacity="1.000000" stroke="none" 
	d="
M368.077576,346.000000 
	C368.108368,375.666077 368.148376,404.832153 368.163940,433.998230 
	C368.167358,440.417206 368.018585,440.486481 361.796326,440.409454 
	C356.797394,440.347595 351.785461,440.190857 346.801147,440.468414 
	C342.979767,440.681213 341.730988,439.057678 341.816772,435.514587 
	C341.933716,430.684204 341.844849,425.848816 341.844879,421.015594 
	C341.845306,373.516388 341.846558,326.017181 341.845551,278.517975 
	C341.845398,272.081268 342.082275,271.834534 348.633545,271.807434 
	C352.466766,271.791565 356.300079,271.801208 360.133362,271.803253 
	C368.015442,271.807434 368.092072,271.866730 368.093842,280.001099 
	C368.098602,301.834076 368.084564,323.667023 368.077576,346.000000 
z"/>
<path fill="#000000" opacity="1.000000" stroke="none" 
	d="
M389.993286,319.000000 
	C389.992035,305.173584 389.951508,291.846985 390.005798,278.520782 
	C390.031677,272.167603 390.467957,271.817902 396.910553,271.807922 
	C401.574799,271.800690 406.242676,271.926697 410.902069,271.778107 
	C414.500885,271.663330 416.122986,273.148163 416.044525,276.766541 
	C415.943420,281.428589 416.005066,286.094299 416.006683,290.758453 
	C416.023376,338.400269 416.046692,386.042084 416.055115,433.683899 
	C416.056305,440.412201 416.023956,440.396240 409.517456,440.356964 
	C404.853394,440.328796 400.176636,440.139557 395.528534,440.412872 
	C391.372162,440.657288 389.891510,439.017883 389.943665,434.939636 
	C390.101318,422.614532 390.040833,410.286438 390.038086,397.959503 
	C390.032196,371.806335 390.009003,345.653168 389.993286,319.000000 
z"/>
<path fill="#000000" opacity="1.000000" stroke="none" 
	d="
M719.872192,349.092194 
	C718.676941,341.701050 721.850342,338.110809 728.226135,335.570190 
	C739.690552,331.001801 751.456482,328.687286 763.711304,328.390625 
	C765.325989,328.351532 766.836487,328.663727 767.522705,330.203156 
	C770.753479,337.450928 773.578979,344.849060 775.806091,352.682617 
	C772.319641,353.985931 769.182495,352.996948 766.104248,353.092224 
	C764.775146,353.133362 763.441528,352.994934 762.110352,353.004181 
	C747.160095,353.108215 746.235779,354.038971 746.250610,368.895142 
	C746.272522,390.875031 746.178101,412.856140 746.405273,434.833893 
	C746.454346,439.582855 744.887085,440.968506 740.286316,440.548523 
	C735.496887,440.111298 730.606750,440.095612 725.817566,440.526917 
	C720.949585,440.965302 719.828186,438.869019 719.844116,434.499878 
	C719.947388,406.192657 719.882202,377.884796 719.872192,349.092194 
z"/>
</svg>