<svg xmlns="http://www.w3.org/2000/svg" width="250" height="250" fill="none"><path fill="#242C34" fill-rule="evenodd" d="M116.615 19.56c-1.943.05-3.533.214-3.533.367 0 .152-.952.36-2.118.463-4.159.367-4.493.411-4.691.609-.11.111-.812.201-1.56.201-.749 0-1.361.128-1.361.284 0 .155-.847.382-1.884.503-1.036.12-1.954.332-2.04.47-.085.14-1.004.352-2.04.473-1.035.12-1.883.33-1.883.466s-.656.346-1.46.467c-.802.12-1.685.339-1.961.484-.603.318-1.638.722-2.073.81-.894.18-1.726.545-1.726.755 0 .13-.565.328-1.256.439-.69.11-1.255.322-1.255.47 0 .15-.566.362-1.256.473-.69.11-1.256.325-1.256.476 0 .152-.494.369-1.098.482-.605.114-1.099.326-1.099.472 0 .145-.495.358-1.099.471-.604.113-1.098.31-1.098.437 0 .125-.635.508-1.41.85-.775.341-1.41.715-1.412.832-.003.115-.428.303-.945.417-.518.114-.942.337-.942.496 0 .16-.202.29-.448.29-.247 0-.642.193-.878.43-.236.236-.776.54-1.2.673-.424.134-1.007.516-1.296.849-.288.332-.57.585-.627.563-.274-.11-1.387.472-1.609.84-.139.23-.457.416-.706.416-.251 0-.456.132-.456.295 0 .16-.307.39-.682.51-.718.227-1.108.498-2.31 1.598-.406.371-.816.595-.913.498-.097-.096-.176-.011-.176.191s-.16.366-.356.366c-.196 0-.684.354-1.084.787-.4.432-.864.785-1.031.785-.168 0-.729.425-1.248.943-.517.518-1.062.943-1.208.943-.147 0-.866.637-1.596 1.415-.732.778-1.47 1.415-1.642 1.415-.368 0-7.844 7.558-7.844 7.93 0 .139-.636.863-1.413 1.608-.777.746-1.413 1.6-1.413 1.9 0 .298-.105.48-.235.4-.129-.077-.417.056-.639.297-.223.24-.335.438-.25.438.086 0-.202.389-.638.865-.436.475-.994 1.088-1.24 1.362-.248.273-.45.742-.45 1.04 0 .298-.13.462-.291.363-.16-.1-.382.103-.492.452-.11.349-.333.633-.494.633-.16 0-.292.198-.292.438 0 .241-.212.52-.471.62-.259.098-.47.397-.47.662 0 .264-.133.48-.294.48-.16 0-.391.313-.512.693-.121.382-.413.887-.649 1.123-.236.237-.43.618-.43.846 0 .228-.212.496-.47.596-.26.099-.471.398-.471.662 0 .265-.126.482-.28.482-.154 0-.368.354-.477.786-.108.431-.336.785-.505.785-.17 0-.308.212-.308.472 0 .259-.156.47-.347.47-.191 0-.267.213-.167.473s.044.472-.123.472c-.168 0-.305.212-.305.47 0 .26-.135.473-.3.473-.164 0-.391.494-.505 1.097-.113.604-.315 1.029-.45.946-.375-.233-.682 1.906-.45 3.143.114.606.332 1.1.485 1.1.154 0 .279.272.279.603 0 .416.293.669.941.811.518.115.942.327.942.472 0 .146.424.358.943.471.517.115.941.32.941.458 0 .136.565.339 1.256.45.69.11 1.255.325 1.255.477 0 .152.387.374.86.492.473.12.932.311 1.02.427.296.39 2.135 1.311 2.616 1.311.26 0 .533.177.605.394.104.309.295.313.89.019.417-.206 1.21-.464 1.764-.572.64-.126 1.082-.438 1.216-.859.114-.365.48-.953.81-1.309.33-.355.683-.967.78-1.36.099-.392.295-.713.435-.713s.347-.425.462-.943c.113-.518.333-.943.49-.943.155 0 .37-.353.48-.786.108-.432.322-.786.477-.786.153 0 .278-.217.278-.482 0-.264.212-.562.472-.662.26-.099.47-.452.47-.785s.212-.687.471-.786c.26-.1.472-.378.472-.62 0-.24.106-.439.235-.439s.588-.531 1.02-1.179c.43-.648.96-1.363 1.177-1.592.215-.229.392-.542.392-.697 0-.154.46-.765 1.02-1.358 2.789-2.94 3.98-4.348 4.16-4.918.11-.346.32-.627.468-.627.25 0 .685-.42 2.926-2.825.485-.52 1.021-.948 1.19-.948.17 0 1.067-.778 1.994-1.728.927-.951 1.78-1.73 1.894-1.73.115 0 .632-.424 1.15-.942.519-.519 1.091-.943 1.274-.943.182 0 .66-.354 1.06-.785.4-.434.875-.787 1.055-.787.182 0 .33-.132.33-.293 0-.16.317-.393.706-.513.388-.122.777-.309.863-.415.338-.416 2.19-1.608 2.5-1.608.178 0 .326-.139.326-.308 0-.17.353-.398.784-.506.431-.109.785-.324.785-.477 0-.155.212-.28.47-.28.26 0 .472-.14.472-.31 0-.169.353-.396.785-.504.43-.109.784-.313.784-.453 0-.141.424-.349.941-.463.52-.114.943-.326.943-.471 0-.145.424-.357.942-.472.517-.113.941-.326.941-.47 0-.147.424-.36.942-.473.517-.113.941-.325.941-.472 0-.145.423-.356.94-.47.514-.114 1.017-.337 1.116-.497.099-.158.453-.289.788-.289s.609-.14.609-.311c0-.17.565-.401 1.256-.512.69-.11 1.255-.306 1.255-.434 0-.13.566-.325 1.256-.436.69-.11 1.256-.337 1.256-.501 0-.165.71-.394 1.577-.509.867-.116 1.649-.328 1.739-.473.089-.145.864-.357 1.719-.47.856-.114 1.557-.331 1.557-.481 0-.152.494-.275 1.099-.275.604 0 1.099-.127 1.099-.282 0-.156 1.024-.384 2.275-.51 1.252-.124 2.352-.346 2.444-.49.093-.147 2.106-.364 4.474-.483 2.367-.12 4.304-.336 4.304-.483 0-.146 2.402-.267 5.337-.267 2.934 0 5.336.121 5.336.269 0 .146 1.867.366 4.149.486 2.284.121 4.225.337 4.317.48.091.145 1.331.364 2.756.49 1.424.125 2.589.354 2.589.508 0 .155.424.282.942.282.519 0 .943.132.943.292 0 .16.777.389 1.725.508.95.119 1.727.332 1.727.475 0 .142.636.355 1.412.47.777.118 1.413.325 1.413.463 0 .136.706.346 1.57.465.863.119 1.498.331 1.411.473-.087.141.407.352 1.099.47.691.116 1.257.318 1.257.448s.777.5 1.726.823c.95.324 1.727.688 1.727.811 0 .125.424.319.941.432.518.114.942.338.942.497 0 .16.176.294.392.3.216.006.957.284 1.648.618.69.334 1.418.612 1.615.618.197.005.44.222.539.482.099.26.397.472.662.472.264 0 .481.142.481.314 0 .173.267.314.593.314.328 0 .676.212.776.472.098.259.397.471.661.471s.48.127.48.28c0 .154.353.37.786.477.431.109.784.337.784.507 0 .17.217.308.481.308s.562.212.661.471c.099.26.348.472.55.472.372 0 1.515.82 2.954 2.122.43.39.898.708 1.039.708.142 0 .691.424 1.221.942.53.519 1.17.943 1.423.943.254 0 .461.14.461.311 0 .172.649.915 1.443 1.65 1.671 1.55 3.681 3.532 4.899 4.834a60.43 60.43 0 0 0 1.726 1.759c1.152 1.118 1.662 1.74 1.662 2.024 0 .127.537.733 1.195 1.35.656.614 1.287 1.365 1.402 1.668.115.302.346.55.511.55.167 0 .403.318.525.707.122.39.539 1.004.926 1.365.387.362.801.963.919 1.337.119.372.346.677.508.677.161 0 .293.212.293.472s.138.472.308.472c.169 0 .396.353.504.785.108.432.323.785.477.785.154 0 .281.218.281.482 0 .265.202.56.45.655.249.095.543.587.653 1.09.111.504.329.918.485.918.156 0 .371.353.48.785.108.432.311.786.451.786.141 0 .349.424.462.944.113.518.32.943.459.943s.322.263.406.585c.101.386.567.663 1.37.815.67.124 1.406.383 1.635.572.302.25.475.249.63-.004.119-.19.603-.445 1.078-.565.475-.118.941-.342 1.036-.496.095-.154.447-.28.781-.28.335 0 .609-.13.609-.288 0-.16.424-.383.942-.497.519-.115.943-.322.943-.462s.494-.347 1.098-.46c.604-.113 1.099-.33 1.099-.482 0-.15.424-.368.941-.483.518-.113.942-.336.942-.496 0-.159.206-.29.456-.29 1.256 0 2.031-.724 2.235-2.087.112-.754.33-1.37.484-1.37.152 0 .278-.283.278-.628 0-.346-.142-.63-.315-.63a.323.323 0 0 1-.313-.331c0-.612-1.268-3.126-1.577-3.126-.169 0-.307-.212-.307-.472 0-.259-.129-.47-.288-.47-.159 0-.38-.415-.491-.922-.111-.507-.406-1.09-.653-1.296-.249-.206-.451-.57-.451-.808 0-.237-.141-.433-.314-.433-.173 0-.314-.202-.314-.448 0-.248-.177-.643-.392-.879-.471-.513-1.103-1.481-1.391-2.13-.115-.26-.397-.586-.626-.724-.228-.137-.416-.456-.416-.707 0-.25-.131-.456-.292-.456-.162 0-.393-.318-.515-.706-.122-.39-.556-1.02-.962-1.4-.408-.38-.742-.831-.742-1 0-.168-.353-.584-.784-.924-.433-.34-.786-.764-.786-.944 0-.178-.494-.85-1.099-1.491-.604-.642-1.098-1.253-1.098-1.36 0-.346-2.744-3.152-2.916-2.981-.091.091-.258-.127-.373-.487-.113-.358-.342-.651-.509-.651-.167 0-.396-.248-.509-.55-.206-.549-2.784-3.223-3.107-3.223-.094 0-1.002-.813-2.019-1.807-2.203-2.154-2.711-2.593-3.001-2.593-.121 0-.726-.548-1.347-1.216-.621-.668-1.434-1.311-1.806-1.427-.373-.116-.757-.417-.854-.67-.096-.253-.358-.46-.582-.46-.223 0-.672-.353-.996-.786-.323-.432-.781-.785-1.016-.785-.234 0-.427-.132-.427-.293 0-.161-.312-.393-.692-.514-.38-.12-.885-.413-1.121-.65-.235-.236-.615-.43-.844-.43-.228 0-.496-.211-.596-.471-.099-.26-.331-.47-.518-.47-.185 0-.634-.279-.998-.62-.364-.34-.782-.543-.928-.452-.148.09-.267.015-.267-.168s-.212-.333-.471-.333-.471-.14-.471-.309c0-.17-.353-.397-.785-.505-.431-.108-.784-.312-.784-.453 0-.14-.424-.348-.942-.463-.518-.113-.941-.334-.941-.49 0-.156-.354-.372-.786-.48-.431-.109-.786-.288-.787-.4-.002-.11-.638-.48-1.413-.821-.775-.342-1.41-.73-1.41-.861 0-.132-.564-.33-1.254-.442-.691-.11-1.256-.312-1.256-.45 0-.136-.424-.343-.943-.456-.517-.113-.941-.335-.941-.493 0-.157-.565-.375-1.256-.486-.691-.111-1.256-.319-1.256-.461 0-.143-.494-.353-1.098-.466-.604-.114-1.099-.333-1.099-.487 0-.154-.353-.28-.784-.28-.431 0-.785-.121-.785-.27 0-.149-.353-.232-.785-.184-.431.046-.785-.044-.785-.201 0-.158-.282-.287-.628-.287-.345 0-.627-.128-.627-.284 0-.158-.707-.383-1.57-.502-.863-.12-1.569-.33-1.569-.47 0-.14-.848-.353-1.884-.472-1.035-.121-1.883-.338-1.883-.485 0-.145-.989-.36-2.197-.48-1.21-.12-2.197-.34-2.197-.49 0-.152-.566-.275-1.256-.275-.691 0-1.256-.128-1.256-.284 0-.156-.547-.211-1.215-.12-.726.096-1.302.021-1.431-.188-.122-.198-1.083-.35-2.212-.35-1.098 0-2.044-.145-2.102-.321-.108-.324-12.398-.559-19.643-.377Zm41.121 77.605c-.215.088-.392.36-.392.604 0 .245-.177.445-.392.445-.307 0-.372 1.787-.296 8.146.095 7.87.077 8.152-.52 8.342-.34.108-.697.403-.794.657-.148.386-1.451.458-8.206.458h-8.028l-.77.832c-1.206 1.304-1.206 13.694 0 14.997l.77.832 7.784.005 7.783.004 1.037.915 1.035.915-.094 7.795-.095 7.796.853.872.854.873h13.404l.685-.788c.665-.766.684-1.019.684-8.756v-7.968l.77-.831.77-.832h8.016c10.327 0 9.279.908 9.279-8.04 0-6.949-.001-6.957-.77-7.789l-.77-.832-7.941-.005-7.941-.004-.706-.747c-.694-.733-.707-.884-.707-8.655v-7.907l-.83-.77c-.797-.74-12.872-1.21-14.472-.564Zm-99.68 19.374c-.31.382-.697.905-.858 1.165-.162.259-.296 3.233-.3 6.609l-.004 6.139.924 1.013.925 1.013h51.564l.917-.919.917-.919v-12.985l-.917-.918-.917-.92-25.844.015-25.842.015-.566.692Zm-15.601 45.487c0 .173-.296.315-.658.315-.661 0-2.553.911-2.737 1.318-.054.12-.302.141-.549.045-.248-.096-.45-.017-.45.175 0 .191-.212.348-.472.348s-.471.13-.471.289c0 .159-.424.383-.942.496-.517.115-.941.32-.941.457s-.565.339-1.256.45c-.69.11-1.256.341-1.256.511 0 .171-.212.311-.47.311a.46.46 0 0 0-.471.446c0 .245-.137.492-.303.55-.584.201-.763 3.55-.22 4.094.27.271.585.864.698 1.316.114.454.333.825.486.825.155 0 .28.212.28.47 0 .26.157.472.348.472.19 0 .266.213.166.472-.098.259-.044.471.125.471.166 0 .303.212.303.472 0 .259.139.471.308.471.17 0 .397.354.505.787.109.431.307.785.443.785.135 0 .334.354.443.785.108.433.335.787.504.787.17 0 .308.216.308.481 0 .266.212.563.472.662.258.1.47.368.47.596 0 .23.176.609.393.846.47.513 1.101 1.48 1.391 2.13.115.259.396.585.625.722.229.139.416.405.416.593 0 .188.354.67.785 1.07.432.401.785.872.785 1.047 0 .175.424.753.942 1.284.517.53.941 1.041.941 1.134 0 .094.425.619.944 1.168.52.549 1.155 1.222 1.413 1.496.257.274.469.597.469.718 0 .31 8.71 9 9.021 9 .142 0 .475.247.744.55.808.911 2.453 2.279 2.74 2.279.15 0 .595.425.992.943s.992.943 1.322.943c.329 0 .517.132.419.291-.099.161.104.383.452.493.348.111.633.333.633.494 0 .162.215.294.48.294.264 0 .558.199.65.443.094.244.513.529.933.635.42.105.761.33.761.499 0 .17.212.309.472.309.258 0 .47.139.47.308 0 .17.343.395.762.5.42.105.84.391.932.634a.75.75 0 0 0 .65.444c.265 0 .481.138.481.308 0 .169.354.397.785.506.432.108.785.309.785.444s.354.334.785.443c.43.108.784.336.784.506 0 .169.212.307.471.307.26 0 .472.131.472.29 0 .159.422.382.941.497.518.113.942.325.942.471 0 .146.424.358.941.472.518.113.942.325.942.472 0 .145.424.357.942.47.518.115.942.332.942.483 0 .152.494.367 1.098.481.605.113 1.099.333 1.099.487 0 .153.212.279.47.279.26 0 .472.134.472.3 0 .165.494.393 1.098.506.604.113 1.099.32 1.099.459 0 .137.565.346 1.255.463.691.117 1.256.34 1.256.495 0 .156.565.375 1.256.484.69.111 1.255.309 1.255.441 0 .13.636.334 1.413.45.777.117 1.412.345 1.412.507 0 .162.346.295.767.295.422 0 .846.128.942.286.096.156.881.382 1.745.5.862.119 1.569.33 1.569.471 0 .139.847.352 1.884.472 1.035.12 1.883.33 1.883.466 0 .135 1.095.348 2.432.474 1.339.124 2.505.343 2.593.483.089.141 1.572.359 3.297.483 1.725.126 3.236.384 3.359.576.329.511 24.04.489 24.356-.024.135-.219 1.499-.451 3.356-.57 1.72-.111 3.272-.321 3.448-.467.177-.147 1.345-.368 2.597-.492 1.251-.123 2.275-.333 2.275-.467 0-.133.848-.342 1.884-.462 1.037-.12 1.957-.338 2.048-.485.09-.145.797-.359 1.573-.476.775-.116 1.486-.337 1.581-.49.094-.152.516-.278.938-.278.421 0 .766-.125.766-.278 0-.153.636-.374 1.412-.491.777-.117 1.412-.332 1.412-.48 0-.147.565-.363 1.256-.48.691-.116 1.256-.339 1.256-.495 0-.155.565-.373 1.255-.484.691-.11 1.256-.296 1.256-.41 0-.115.777-.473 1.727-.797.949-.323 1.726-.695 1.726-.825 0-.132.424-.332.942-.447.518-.113.941-.325.941-.471 0-.145.424-.357.943-.472.517-.113.941-.325.941-.47 0-.147.424-.359.942-.472.517-.114.941-.309.941-.433 0-.125.504-.409 1.119-.632.617-.223 1.193-.597 1.283-.83.089-.234.574-.515 1.078-.626.503-.11.914-.329.914-.485 0-.156.354-.372.786-.48.431-.109.784-.309.784-.444s.354-.334.785-.443c.432-.108.785-.336.785-.506 0-.17.216-.309.48-.309.266 0 .563-.212.663-.47.098-.26.343-.472.542-.472.2 0 .713-.326 1.143-.724.43-.397 1.03-.817 1.332-.933.302-.116.549-.356.549-.534 0-.178.201-.324.447-.324.245 0 .87-.425 1.388-.943.518-.518 1.034-.943 1.146-.943.114 0 .63-.424 1.148-.943.517-.518 1.078-.942 1.245-.942.166 0 1.062-.779 1.988-1.73.929-.951 1.78-1.728 1.896-1.728.263 0 5.809-5.504 5.809-5.765 0-.108.777-.973 1.726-1.924.95-.95 1.733-1.909 1.74-2.128.008-.22.432-.747.942-1.171.51-.424.928-.89.928-1.036 0-.146.353-.618.786-1.051.431-.432.784-.927.784-1.1 0-.174.353-.643.784-1.044.433-.4.786-.893.786-1.095 0-.202.198-.443.442-.537.244-.094.529-.513.633-.933.106-.419.33-.763.5-.763.169 0 .308-.213.308-.471 0-.26.139-.472.308-.472.169 0 .396-.354.504-.786.109-.433.327-.786.485-.786.158 0 .425-.317.593-.707.353-.818 1.005-1.894 1.285-2.122.106-.086.3-.5.431-.918.131-.42.508-1.054.839-1.409.33-.356.682-.968.781-1.36.097-.392.294-.713.434-.713s.347-.425.461-.944c.114-.519.336-.943.496-.943.158 0 .289-.354.289-.786 0-.431-.123-.785-.274-.785-.15 0-.363-.563-.474-1.253-.159-.991-.362-1.292-.982-1.449-.43-.107-.782-.311-.782-.451s-.424-.349-.941-.462c-.518-.115-.942-.332-.942-.483 0-.151-.494-.367-1.098-.482-.604-.113-1.099-.332-1.099-.485 0-.154-.212-.279-.471-.279-.258 0-.47-.15-.47-.333 0-.183-.122-.258-.271-.166-.313.194-1.922-.494-1.925-.824-.002-.12-.496-.313-1.101-.426-.605-.114-1.099-.333-1.099-.487 0-.154-.706-.279-1.569-.279s-1.57.141-1.57.314c0 .173-.19.315-.422.315-.673 0-1.714 1.061-1.945 1.983-.116.465-.323.845-.458.845s-.334.354-.442.787c-.109.432-.324.785-.48.785-.156 0-.377.425-.49.943-.114.519-.321.943-.461.943-.142 0-.345.354-.454.787-.107.431-.334.785-.504.785-.169 0-.308.217-.308.482s-.212.562-.47.662c-.259.099-.471.378-.471.619s-.132.437-.293.437c-.162 0-.393.319-.515.708-.122.389-.555 1.018-.962 1.4-.408.381-.742.82-.742.976 0 .155-.355.667-.789 1.136-.435.47-.696 1.02-.579 1.225.117.204.106.274-.025.156-.257-.23-2.06 1.464-2.06 1.937 0 .157-1.059 1.34-2.354 2.628-1.295 1.288-2.354 2.499-2.354 2.69a.34.34 0 0 1-.329.347c-.18 0-1.453 1.132-2.829 2.515-1.375 1.383-2.63 2.515-2.788 2.515-.157 0-.58.372-.937.828-.358.455-.652.716-.652.581 0-.137-.263.056-.585.429-.322.372-.715.677-.872.677-.158 0-.528.282-.824.628-.294.345-.75.628-1.011.628-.26 0-.473.145-.473.323 0 .177-.357.458-.793.624-.436.165-.875.516-.975.777-.101.261-.287.408-.415.329-.129-.079-.503.105-.831.411-.328.305-.844.649-1.146.765-.302.115-.549.356-.549.534 0 .178-.264.324-.586.324-.321 0-.945.283-1.383.628-.439.347-.953.63-1.142.63-.188 0-.342.141-.342.314 0 .172-.212.314-.471.314-.26 0-.472.147-.472.328 0 .18-.176.307-.392.28-.589-.072-1.805.374-1.805.661 0 .14-.424.346-.941.46-.518.114-.942.326-.942.471 0 .146-.424.359-.941.472-.519.113-.942.326-.942.472 0 .145-.433.36-.963.476-.53.117-1.342.41-1.805.651-.463.243-.993.442-1.175.443-.184.001-1.066.355-1.961.788-.894.431-1.91.785-2.256.785-.346 0-.63.126-.63.278 0 .153-.777.376-1.725.494-.95.12-1.727.332-1.727.472 0 .14-.813.356-1.805.481-.993.124-1.883.351-1.98.506-.096.155-1.261.373-2.59.486-1.328.113-2.414.325-2.414.473 0 .147-.777.268-1.727.268-1.062 0-1.727.135-1.727.351 0 .244-.61.286-2.009.135-1.31-.14-2.08-.098-2.215.121-.28.454-12.611.464-12.89.011-.129-.208-1.037-.25-2.529-.114-1.657.15-2.33.108-2.33-.147 0-.213-.565-.357-1.413-.357-.776 0-1.412-.121-1.412-.27 0-.147-1.014-.363-2.253-.478-1.239-.116-2.404-.33-2.589-.478-.185-.147-1.15-.367-2.143-.487-.992-.12-1.805-.331-1.805-.469 0-.139-.739-.35-1.641-.47-.904-.12-1.717-.316-1.806-.434-.219-.289-3.255-1.315-3.893-1.315-.28 0-.507-.135-.507-.3 0-.166-.494-.392-1.099-.507-.604-.114-1.098-.326-1.098-.471 0-.146-.495-.358-1.099-.472-.604-.113-1.098-.326-1.098-.471 0-.146-.495-.358-1.099-.472-.605-.113-1.1-.32-1.1-.461 0-.139-.458-.355-1.02-.478-.56-.123-1.206-.491-1.434-.816-.226-.325-.544-.511-.705-.411-.162.099-.294.031-.294-.152s-.212-.333-.47-.333c-.26 0-.471-.134-.471-.3 0-.165-.493-.393-1.096-.506-.602-.113-1.02-.327-.928-.476.091-.149-.193-.361-.631-.472-.439-.11-.798-.311-.798-.446 0-.136-.353-.335-.784-.443-.433-.109-.785-.337-.785-.506 0-.17-.212-.309-.471-.309-.26 0-.471-.132-.471-.293 0-.161-.305-.39-.676-.508-.373-.119-.973-.527-1.335-.909s-.904-.785-1.206-.896c-.302-.111-.55-.349-.55-.527 0-.178-.21-.325-.468-.325-.257 0-.873-.424-1.368-.942-.494-.519-.996-.943-1.113-.943-.117 0-.876-.637-1.687-1.415s-1.572-1.415-1.693-1.415c-.306 0-6.54-6.216-6.54-6.521 0-.137-.636-.913-1.413-1.724-.777-.812-1.413-1.563-1.413-1.669 0-.106-.424-.618-.941-1.136-.52-.518-.942-1.08-.942-1.248 0-.168-.318-.618-.706-1-.804-.79-1.428-1.705-1.688-2.476-.099-.29-.378-.605-.62-.697a.75.75 0 0 1-.44-.65c0-.265-.138-.482-.307-.482-.17 0-.397-.354-.505-.786-.109-.431-.323-.785-.477-.785-.154 0-.28-.202-.28-.45 0-.246-.176-.635-.392-.864-.217-.229-.72-1.087-1.12-1.908-.401-.821-.86-1.493-1.021-1.493-.16 0-.292-.292-.292-.648 0-.356-.13-.566-.291-.467-.161.1-.338-.14-.393-.532-.073-.511-.344-.739-.964-.811-.475-.055-.864-.231-.864-.392s-.636-.294-1.411-.294c-.777 0-1.413.141-1.413.314Z" clip-rule="evenodd"/><path fill="#242C3C" fill-rule="evenodd" d="M122.25 19.548c1.159.06 3.135.06 4.395 0 1.259-.06.311-.109-2.105-.11-2.418 0-3.448.049-2.29.11Zm34.287 87.311c0 4.322.044 6.134.098 4.026.054-2.108.055-5.645 0-7.858-.053-2.215-.098-.49-.098 3.832Zm0 34.734c0 4.236.044 5.969.098 3.852a179.78 179.78 0 0 0 0-7.702c-.054-2.117-.098-.384-.098 3.85Zm-41.806 69.058c.302.08.796.08 1.098 0 .302-.078.055-.142-.549-.142-.605 0-.851.064-.549.142Zm18.834 0c.302.08.795.08 1.099 0 .302-.078.054-.142-.55-.142-.605 0-.852.064-.549.142Z" clip-rule="evenodd"/></svg>