<?xml version="1.0" encoding="UTF-8"?>
<svg version="1.1" xmlns="http://www.w3.org/2000/svg" width="826" height="826">
<path d="M0 0 C3.86868199 1.79710703 6.53500637 4.26526585 9.50292969 7.27587891 C10.03996017 7.81261734 10.57699066 8.34935577 11.1302948 8.90235901 C12.89893859 10.67239283 14.66039824 12.44939857 16.421875 14.2265625 C17.64883466 15.45725344 18.87623749 16.6875027 20.10406494 17.91732788 C23.33067488 21.15156516 26.55123291 24.39176408 29.77056885 27.63323975 C33.05825672 30.94140534 36.35163068 34.24389946 39.64453125 37.546875 C46.10193298 44.02571079 52.55295568 50.51085869 59 57 C53.93499762 63.1241816 48.4217079 68.70715861 42.7890625 74.30859375 C41.81092733 75.28485986 40.83301565 76.26134994 39.85531616 77.23805237 C37.30285601 79.78672577 34.74740552 82.33237958 32.19128418 84.87738037 C29.57490086 87.48346618 26.96140697 90.09244621 24.34765625 92.70117188 C19.23456754 97.80359118 14.11831088 102.90281857 9 108 C10.61776117 111.42482707 12.42343244 113.65690522 15.1328125 116.328125 C15.93847656 117.12734375 16.74414062 117.9265625 17.57421875 118.75 C18.41597656 119.575 19.25773438 120.4 20.125 121.25 C20.97449219 122.09046875 21.82398438 122.9309375 22.69921875 123.796875 C24.79504923 125.86915683 26.89540713 127.93662393 29 130 C31.81936623 128.69347384 34.08095899 127.24970813 36.44140625 125.234375 C37.0967334 124.68168945 37.75206055 124.12900391 38.42724609 123.55957031 C39.13187988 122.96241211 39.83651367 122.36525391 40.5625 121.75 C64.53729725 101.78214698 90.79673969 84.25582106 118 69 C119.05735352 68.40622559 120.11470703 67.81245117 121.20410156 67.20068359 C200.259985 23.13167286 290.09034915 -0.46096009 384.4375 -0.3125 C385.74772125 -0.31067719 387.0579425 -0.30885437 388.40786743 -0.30697632 C409.09408389 -0.26710624 429.47583501 0.35679493 450 3 C451.00604279 3.12728485 451.00604279 3.12728485 452.03240967 3.25714111 C519.68454696 11.85413032 582.85249156 33.03403996 643.375 64.3125 C644.28338623 64.77970459 645.19177246 65.24690918 646.12768555 65.72827148 C647.82798015 66.61834912 649.51760263 67.52929006 651.19279003 68.46576595 C653.05475778 69.48339354 654.94972309 70.44295331 656.8727541 71.33985996 C664.39016294 75.25858094 664.39016294 75.25858094 665.9942379 79.83909416 C666.35759345 83.42408231 666.3613661 86.86072893 666.2487793 90.46264648 C666.24567284 91.82326504 666.24742533 93.18390201 666.25364685 94.54450989 C666.25679301 98.22329635 666.19231347 101.89810732 666.11533332 105.57597232 C666.04638591 109.42479491 666.04009347 113.27371728 666.02705383 117.12306213 C665.99291579 124.40522762 665.90272563 131.68556821 665.79220945 138.9669314 C665.66909108 147.25930128 665.60873675 155.55176016 665.55355966 163.84481704 C665.43869907 180.89759886 665.24532577 197.94860626 665 215 C663.7446166 214.06360523 662.48995872 213.12623775 661.2355957 212.18847656 C660.53682816 211.66658752 659.83806061 211.14469849 659.11811829 210.60699463 C657.1283226 209.09735704 655.17367213 207.5533226 653.23046875 205.984375 C634.45540441 190.90307254 614.15714399 177.50049862 593 166 C592.13020508 165.52401367 591.26041016 165.04802734 590.36425781 164.55761719 C540.79494649 137.5914913 486.99880993 121.44405178 431 115 C429.50146484 114.82210937 429.50146484 114.82210937 427.97265625 114.640625 C331.62025224 103.65880419 231.22162251 129.29550527 117.0625 205.875 C103.16245588 217.10623565 89.96525001 228.95957363 77.27731323 241.54745483 C75.8555947 242.95726623 74.42993212 244.36309679 73.00415039 245.76879883 C66.8963683 251.86894687 61.38695154 258.26174766 56 265 C55.07654531 266.08976335 54.1469381 267.17439421 53.20703125 268.25 C-15.81185123 347.51475248 -48.05206201 453.76823399 -45.53540039 572.42089844 C-41.41024832 631.71826506 -25.23143657 689.22023109 1.99951172 742.05224609 C3.00224982 744.00437995 3.98751707 745.96471887 4.97265625 747.92578125 C16.97137567 771.50081036 31.89290336 793.60880535 48.86376953 813.87695312 C49.37665527 814.49248047 49.88954102 815.10800781 50.41796875 815.7421875 C51.09508911 816.54438721 51.09508911 816.54438721 51.78588867 817.36279297 C53 819 53 819 55 823 C9.46 823 -36.08 823 -83 823 C-123.88433022 749.4082056 -151.11510552 672.30521714 -158 588 C-158.0942627 586.88149658 -158.18852539 585.76299316 -158.28564453 584.6105957 C-159.26597863 571.31996609 -159.24261663 558.00828554 -159.25 544.6875 C-159.25100708 543.4249942 -159.25201416 542.1624884 -159.25305176 540.86172485 C-159.24204645 520.40916095 -158.49330448 500.29840018 -156 480 C-155.86078125 478.81486816 -155.7215625 477.62973633 -155.578125 476.40869141 C-144.76028064 386.29755039 -110.28135743 300.36271719 -34 196 C-33.44828125 195.33484375 -32.8965625 194.6696875 -32.328125 193.984375 C-31.22150962 192.65394977 -30.11136122 191.3264634 -29 190 C-30.48653506 186.53370165 -32.45722351 184.30977964 -35.1328125 181.671875 C-35.93847656 180.87265625 -36.74414062 180.0734375 -37.57421875 179.25 C-38.41597656 178.425 -39.25773437 177.6 -40.125 176.75 C-40.97449219 175.90953125 -41.82398437 175.0690625 -42.69921875 174.203125 C-44.79504923 172.13084317 -46.89540713 170.06337607 -49 168 C-52.70044944 169.549832 -55.04581087 171.80394671 -57.86035156 174.63330078 C-58.32910706 175.10176422 -58.79786255 175.57022766 -59.28082275 176.05288696 C-60.82221432 177.59566695 -62.35640873 179.14539964 -63.890625 180.6953125 C-64.96064255 181.76906192 -66.03110381 182.84236933 -67.10198975 183.91525269 C-69.91431879 186.73520452 -72.72058889 189.56111154 -75.52563477 192.38830566 C-78.39105523 195.2742137 -81.26217168 198.15444257 -84.1328125 201.03515625 C-89.76079512 206.68456489 -95.38238884 212.34027825 -101 218 C-107.69529866 212.50280742 -113.73696491 206.39046848 -119.83984375 200.2578125 C-120.97305199 199.12273594 -122.10648362 197.98788237 -123.24012756 196.85324097 C-126.20308335 193.88649256 -129.16302193 190.91675198 -132.12231445 187.9463501 C-135.15066856 184.9077114 -138.18190499 181.87195091 -141.21289062 178.8359375 C-147.14473089 172.8934174 -153.07338261 166.947729 -159 161 C-157.33639169 156.66089603 -154.03135603 153.75972622 -150.79916382 150.55865479 C-150.15633725 149.91411937 -149.51351068 149.26958395 -148.85120451 148.60551715 C-146.69247682 146.44349093 -144.52667045 144.28869811 -142.36083984 142.13378906 C-140.81333698 140.58685023 -139.26627416 139.03947109 -137.71961975 137.49168396 C-133.51566176 133.28715115 -129.30555716 129.08882178 -125.09434462 124.89155674 C-120.69585554 120.50555353 -116.30301363 116.11390192 -111.90957642 111.72283936 C-104.53342691 104.35220371 -97.15379399 96.98507098 -89.77148438 89.62060547 C-82.16790394 82.03538488 -74.56642827 74.44806521 -66.96777344 66.85791016 C-66.49934058 66.39000274 -66.03090772 65.92209533 -65.54827993 65.44000891 C-63.19828762 63.09262669 -60.84833888 60.74520085 -58.49840617 58.39775896 C-39.0052466 38.9255156 -19.50496269 19.46041988 0 0 Z " fill="#FE6707" transform="translate(161,3)"/>
<path d="M0 0 C139.59 0 279.18 0 423 0 C423 38.28 423 76.56 423 116 C409.14 129.86 409.14 129.86 395 144 C392.69 146.64 390.38 149.28 388 152 C386.96359375 153.17820312 385.9271875 154.35640625 384.859375 155.5703125 C378.0817013 163.30239112 371.56109928 171.17787366 365.29101562 179.32666016 C364.04082363 180.94708677 362.77992722 182.55853807 361.515625 184.16796875 C345.99798115 204.05921605 331.53055364 225.0984755 319 247 C318.42934814 247.99700928 318.42934814 247.99700928 317.84716797 249.01416016 C314.8337931 254.30819309 311.90752101 259.64727715 309 265 C308.54786133 265.82371094 308.09572266 266.64742187 307.62988281 267.49609375 C291.97482429 296.12622165 279.84105131 326.27237591 269 357 C268.75614563 357.68666748 268.51229126 358.37333496 268.26104736 359.08081055 C244.65423987 425.56472433 234.60625553 493.92180584 229 564 C183.79 564 138.58 564 92 564 C93.15488435 542.05719731 93.15488435 542.05719731 93.9453125 535.3984375 C94.08081512 534.2078196 94.08081512 534.2078196 94.21905518 532.9931488 C94.51240413 530.45265744 94.81701956 527.91375688 95.125 525.375 C95.23193176 524.48380463 95.33886353 523.59260925 95.44903564 522.67440796 C99.18573516 491.79569436 104.53036997 461.19853139 112 431 C112.29455078 429.80004395 112.58910156 428.60008789 112.89257812 427.36376953 C123.70564041 383.82542966 139.12288244 341.67051987 158 301 C158.48678223 299.94280762 158.97356445 298.88561523 159.47509766 297.79638672 C166.18914646 283.26882215 173.55756369 269.25517212 181.60009766 255.42089844 C182.78828077 253.36613322 183.95537855 251.30278098 185.10546875 249.2265625 C193.89554566 233.44565682 203.70022358 218.19940659 214.62597656 203.81396484 C216.08259919 201.89095381 217.5230169 199.95656092 218.9609375 198.01953125 C231.20346742 181.55149391 243.9458491 165.65226147 257.76953125 150.4765625 C260.88427786 147.01815733 263.93514292 143.5026938 267 140 C277.23 129.77 287.46 119.54 298 109 C199.66 108.67 101.32 108.34 0 108 C0 72.36 0 36.72 0 0 Z " fill="#000000" transform="translate(324,262)"/>
</svg>
