<svg xmlns="http://www.w3.org/2000/svg" width="250" height="250" fill="none"><path fill="#008561" d="M165.808 73.874c0 11.524-4.877 21.716-12.881 29.694-8.9 8.859-21.791 11.074-21.791 18.61 0 10.192 16.451 7.085 32.234 22.814 10.453 10.418 16.893 24.157 16.893 40.102 0 31.458-25.34 56.497-57.131 56.497S66 216.581 66 185.123c0-15.954 6.45-29.694 16.894-40.101 15.782-15.739 32.233-12.633 32.233-22.825 0-7.536-12.881-9.751-21.78-18.61-8.005-7.977-12.892-18.169-12.892-30.135 0-23.03 18.89-41.65 42.008-41.65 4.454 0 8.457.667 11.79.667 5.998 0 9.116-2.656 9.116-6.87 0-2.44-1.121-5.537-1.121-8.86 0-7.536 6.45-13.739 14.228-13.739 7.788 0 14.013 6.429 14.013 14.18 0 8.193-6.451 11.957-11.338 13.74-4.002 1.323-7.119 3.097-7.119 7.086 0 7.506 13.786 14.827 13.786 35.868h-.01Zm-4.425 111.249c0-21.932-16.225-39.66-38.242-39.66-22.007 0-38.232 17.728-38.232 39.66 0 21.707 16.225 39.661 38.232 39.661 22.007 0 38.242-17.973 38.242-39.661Zm-13.127-111.69c0-13.956-11.338-25.48-25.124-25.48-13.777 0-25.115 11.524-25.115 25.48 0 13.955 11.338 25.48 25.115 25.48 13.786 0 25.124-11.525 25.124-25.48Z"/></svg>