<svg id="svg" version="1.1" xmlns="http://www.w3.org/2000/svg" xmlns:xlink="http://www.w3.org/1999/xlink" width="400" height="400" viewBox="0, 0, 400,400"><g id="svgg"><path id="path0" d="M0.000 200.000 L 0.000 400.000 200.000 400.000 L 400.000 400.000 400.000 200.000 L 400.000 0.000 200.000 0.000 L 0.000 0.000 0.000 200.000 M276.818 108.836 C 277.358 109.185,278.397 109.588,279.126 109.731 C 280.834 110.065,282.742 111.981,283.054 113.674 C 283.188 114.403,283.591 115.450,283.949 116.000 C 284.826 117.346,284.790 126.072,283.900 127.834 C 283.576 128.475,283.205 130.200,283.074 131.668 C 282.940 133.172,282.479 135.001,282.018 135.862 C 281.568 136.701,281.200 137.772,281.200 138.240 C 281.200 138.709,280.840 139.550,280.400 140.109 C 279.960 140.669,279.600 141.294,279.600 141.500 C 279.600 141.705,279.238 142.307,278.795 142.837 C 278.353 143.366,277.556 144.340,277.025 145.000 L 276.060 146.200 269.086 146.109 C 262.668 146.025,260.629 145.862,253.200 144.838 C 248.852 144.239,214.554 143.828,214.218 144.371 C 214.053 144.638,214.410 145.201,215.066 145.708 C 217.553 147.629,220.621 151.347,221.015 152.918 C 221.160 153.495,221.531 154.177,221.839 154.433 C 222.758 155.195,222.587 159.307,221.600 160.200 C 221.160 160.598,220.800 161.078,220.800 161.267 C 220.800 161.456,220.193 162.283,219.451 163.105 C 218.708 163.927,216.886 165.950,215.400 167.600 C 213.915 169.250,211.732 171.632,210.550 172.892 C 209.367 174.153,208.400 175.302,208.400 175.446 C 208.400 175.590,207.995 176.117,207.500 176.617 C 207.005 177.116,206.150 178.105,205.600 178.813 C 203.672 181.297,202.992 182.109,202.100 182.997 C 201.605 183.489,201.200 184.090,201.200 184.332 C 201.200 184.574,200.840 184.965,200.400 185.200 C 199.960 185.435,199.600 185.890,199.600 186.211 C 199.600 186.531,199.240 187.018,198.800 187.293 C 198.360 187.568,198.000 187.979,198.000 188.207 C 198.000 188.600,196.540 190.425,194.794 192.214 C 194.357 192.662,194.000 193.207,194.000 193.425 C 194.000 193.644,193.685 194.106,193.300 194.452 C 192.915 194.799,192.290 195.604,191.911 196.241 C 190.614 198.425,190.199 198.989,189.500 199.517 C 189.115 199.807,188.800 200.265,188.800 200.534 C 188.800 200.802,188.485 201.306,188.100 201.652 C 187.715 201.999,187.040 202.885,186.600 203.622 C 185.360 205.698,185.039 206.184,184.493 206.815 C 183.577 207.872,182.028 210.183,181.620 211.100 C 181.400 211.595,181.049 212.000,180.841 212.000 C 180.633 212.000,180.250 212.643,179.991 213.428 C 179.732 214.213,179.280 214.948,178.988 215.060 C 178.695 215.172,178.273 215.790,178.049 216.432 C 177.825 217.074,177.464 217.600,177.248 217.600 C 177.031 217.600,176.731 218.005,176.581 218.500 C 176.431 218.995,175.992 219.760,175.606 220.200 C 175.220 220.640,174.655 221.471,174.352 222.048 C 172.631 225.314,171.943 226.400,171.592 226.400 C 171.376 226.400,171.200 226.751,171.200 227.179 C 171.200 227.608,170.750 228.444,170.200 229.038 C 169.650 229.631,169.200 230.333,169.200 230.597 C 169.200 230.861,168.840 231.493,168.400 232.000 C 167.960 232.507,167.600 233.141,167.600 233.407 C 167.600 233.674,167.251 234.336,166.825 234.878 C 166.398 235.420,165.932 236.331,165.789 236.902 C 165.645 237.474,165.184 238.252,164.764 238.633 C 164.344 239.013,164.000 239.656,164.000 240.062 C 164.000 240.468,163.658 241.142,163.241 241.559 C 162.823 241.977,162.363 242.858,162.218 243.518 C 162.073 244.177,161.605 245.034,161.177 245.421 C 160.750 245.807,160.400 246.522,160.400 247.008 C 160.400 247.494,160.067 248.321,159.661 248.846 C 159.255 249.371,158.791 250.340,158.630 251.000 C 158.469 251.660,158.098 252.470,157.806 252.800 C 157.514 253.130,157.076 254.144,156.834 255.053 C 156.592 255.963,156.148 256.911,155.847 257.161 C 155.546 257.411,155.178 258.377,155.030 259.308 C 154.881 260.238,154.505 261.389,154.194 261.864 C 153.884 262.339,153.456 263.779,153.245 265.064 C 153.034 266.349,152.577 268.069,152.230 268.887 C 150.368 273.281,151.879 278.381,154.800 277.561 C 164.610 274.806,161.487 282.570,148.833 292.400 C 147.275 293.610,146.000 294.713,146.000 294.851 C 146.000 294.990,145.460 295.327,144.800 295.600 C 144.140 295.873,143.600 296.243,143.600 296.422 C 143.600 296.600,143.234 296.862,142.787 297.004 C 142.340 297.146,141.504 297.698,140.929 298.231 C 140.354 298.764,139.639 299.200,139.342 299.200 C 139.044 299.200,138.800 299.389,138.800 299.620 C 138.800 299.852,138.125 300.321,137.300 300.663 C 136.475 301.006,135.664 301.523,135.498 301.812 C 135.331 302.101,134.611 302.462,133.898 302.613 C 133.184 302.765,132.297 303.156,131.928 303.482 C 130.923 304.367,125.526 304.412,124.543 303.544 C 124.134 303.182,123.045 302.763,122.123 302.612 C 121.201 302.461,120.241 302.091,119.991 301.789 C 119.741 301.488,118.936 301.043,118.203 300.801 C 117.470 300.559,116.770 300.100,116.648 299.781 C 116.525 299.461,116.172 299.200,115.864 299.200 C 114.314 299.200,106.790 292.094,106.028 289.911 C 105.417 288.158,106.224 281.497,107.260 279.753 C 107.667 279.067,108.006 278.077,108.013 277.553 C 108.019 277.029,108.468 275.700,109.009 274.600 C 109.550 273.500,109.996 272.240,109.999 271.800 C 110.002 271.360,110.363 270.460,110.800 269.800 C 111.237 269.140,111.602 268.240,111.610 267.800 C 111.618 267.360,112.068 266.280,112.610 265.400 C 113.152 264.520,113.597 263.513,113.598 263.161 C 113.599 262.810,113.960 262.107,114.400 261.600 C 114.840 261.093,115.200 260.279,115.200 259.793 C 115.200 259.306,115.534 258.479,115.942 257.954 C 116.350 257.429,116.904 256.325,117.173 255.500 C 117.442 254.675,117.800 254.000,117.968 254.000 C 118.136 254.000,118.483 253.301,118.739 252.447 C 118.994 251.594,119.473 250.672,119.802 250.398 C 120.131 250.125,120.400 249.578,120.400 249.182 C 120.400 248.786,120.850 247.927,121.400 247.273 C 121.950 246.619,122.400 245.733,122.400 245.304 C 122.400 244.875,122.760 244.198,123.200 243.800 C 123.640 243.402,124.000 242.779,124.000 242.416 C 124.000 242.053,124.450 241.145,125.000 240.400 C 125.550 239.655,126.000 238.742,126.000 238.371 C 126.000 238.001,126.280 237.465,126.623 237.181 C 126.966 236.896,127.502 236.109,127.815 235.432 C 128.128 234.754,128.558 233.930,128.771 233.600 C 129.213 232.916,130.006 231.361,131.168 228.900 C 131.610 227.965,132.158 227.200,132.386 227.200 C 132.614 227.200,132.800 226.854,132.800 226.431 C 132.800 226.008,133.250 225.127,133.800 224.473 C 134.350 223.819,134.800 223.006,134.800 222.666 C 134.800 222.326,134.995 221.927,135.233 221.780 C 135.471 221.632,136.005 220.722,136.419 219.756 C 136.833 218.790,137.338 218.000,137.542 218.000 C 137.746 218.000,138.037 217.505,138.188 216.900 C 138.339 216.295,138.735 215.497,139.068 215.128 C 139.711 214.414,140.752 212.641,141.784 210.500 C 142.129 209.785,142.574 209.200,142.774 209.200 C 142.974 209.200,143.350 208.557,143.609 207.772 C 143.868 206.987,144.316 206.254,144.604 206.143 C 144.892 206.033,145.229 205.538,145.353 205.045 C 145.477 204.551,145.943 203.727,146.389 203.213 C 146.835 202.698,147.200 202.063,147.200 201.801 C 147.200 201.539,147.560 200.998,148.000 200.600 C 148.440 200.202,148.800 199.679,148.800 199.438 C 148.801 199.197,149.251 198.477,149.800 197.838 C 150.350 197.199,150.800 196.461,150.800 196.200 C 150.800 195.938,151.160 195.398,151.600 195.000 C 152.040 194.602,152.400 194.034,152.400 193.738 C 152.400 193.442,152.746 192.854,153.170 192.430 C 153.593 192.007,154.157 191.253,154.424 190.755 C 154.690 190.258,155.075 189.659,155.278 189.425 C 155.609 189.045,156.693 187.407,157.800 185.617 C 158.020 185.262,158.428 184.707,158.707 184.385 C 159.623 183.328,161.172 181.017,161.580 180.100 C 161.800 179.605,162.169 179.200,162.400 179.200 C 162.631 179.200,162.999 178.795,163.218 178.300 C 163.438 177.805,164.159 176.680,164.821 175.800 C 165.483 174.920,166.330 173.750,166.703 173.200 C 167.076 172.650,167.610 172.056,167.890 171.880 C 168.171 171.704,168.400 171.301,168.400 170.984 C 168.400 170.666,168.760 170.182,169.200 169.907 C 169.640 169.632,170.000 169.221,170.000 168.993 C 170.000 168.765,170.495 168.015,171.100 167.326 C 171.705 166.637,172.560 165.603,173.000 165.028 C 173.440 164.452,174.107 163.580,174.482 163.091 C 175.159 162.207,179.317 157.166,180.326 156.005 C 180.616 155.672,182.101 154.071,183.626 152.446 C 185.152 150.822,186.400 149.337,186.400 149.146 C 186.400 148.956,186.560 148.800,186.755 148.800 C 186.951 148.800,187.932 147.990,188.936 147.000 C 189.941 146.010,190.961 145.200,191.205 145.200 C 191.448 145.200,191.519 144.993,191.363 144.740 C 190.998 144.149,177.920 144.546,176.201 145.200 C 175.551 145.447,171.775 145.824,167.809 146.038 C 163.587 146.266,159.862 146.672,158.819 147.017 C 157.840 147.341,155.230 147.719,153.019 147.856 C 150.809 147.993,148.370 148.370,147.600 148.692 C 146.830 149.015,144.903 149.432,143.319 149.618 C 141.734 149.804,140.024 150.219,139.519 150.540 C 139.013 150.861,137.790 151.252,136.800 151.409 C 135.810 151.567,134.332 152.034,133.516 152.448 C 131.123 153.660,126.079 153.516,124.558 152.191 C 122.039 149.996,120.964 148.495,120.400 146.389 C 120.137 145.405,119.723 144.357,119.480 144.061 C 118.815 143.251,119.003 136.682,119.723 135.535 C 120.046 135.021,120.423 133.970,120.562 133.200 C 120.700 132.430,121.258 131.378,121.801 130.863 C 123.215 129.523,126.106 127.616,126.737 127.607 C 127.032 127.603,127.731 127.240,128.291 126.800 C 128.850 126.360,129.599 125.998,129.954 125.996 C 130.309 125.994,131.500 125.550,132.600 125.009 C 133.700 124.468,135.053 124.019,135.606 124.013 C 136.159 124.006,137.239 123.667,138.006 123.260 C 138.773 122.852,140.367 122.393,141.549 122.239 C 142.731 122.085,143.946 121.712,144.249 121.409 C 144.552 121.106,145.835 120.749,147.100 120.617 C 148.365 120.485,149.928 120.101,150.573 119.765 C 151.219 119.428,153.277 118.966,155.148 118.737 C 157.018 118.508,158.920 118.080,159.374 117.786 C 159.828 117.491,161.820 117.125,163.800 116.972 C 165.780 116.818,167.935 116.422,168.589 116.090 C 169.272 115.744,171.658 115.354,174.189 115.175 C 176.631 115.002,179.136 114.599,179.800 114.272 C 180.501 113.928,182.909 113.566,185.591 113.402 C 188.116 113.247,190.816 112.875,191.591 112.575 C 192.366 112.275,195.879 111.835,199.398 111.597 C 202.917 111.360,206.697 110.917,207.798 110.613 C 208.920 110.303,212.966 109.946,217.000 109.799 C 220.960 109.656,225.010 109.342,226.000 109.103 C 231.050 107.882,274.989 107.651,276.818 108.836 " stroke="none" fill="#ec536b" fill-rule="evenodd"></path><path id="path1" d="M244.200 109.219 C 240.900 109.371,236.310 109.686,234.000 109.920 C 231.690 110.153,226.740 110.466,223.000 110.616 C 219.260 110.766,214.850 111.140,213.200 111.449 C 211.550 111.757,207.508 112.200,204.219 112.434 C 200.929 112.668,197.938 113.019,197.573 113.214 C 197.207 113.410,194.409 113.772,191.354 114.019 C 188.299 114.265,185.031 114.721,184.091 115.032 C 183.151 115.343,180.811 115.699,178.891 115.825 C 176.971 115.950,174.050 116.384,172.400 116.789 C 170.750 117.194,168.161 117.640,166.648 117.779 C 165.134 117.919,163.305 118.279,162.584 118.581 C 161.863 118.882,160.042 119.256,158.537 119.412 C 157.032 119.568,155.179 119.950,154.421 120.260 C 153.662 120.571,151.847 120.995,150.388 121.202 C 148.928 121.409,147.230 121.839,146.614 122.159 C 145.999 122.478,144.574 122.864,143.448 123.017 C 142.321 123.170,140.732 123.634,139.916 124.048 C 139.100 124.461,138.017 124.800,137.510 124.800 C 137.003 124.800,135.961 125.134,135.194 125.541 C 134.427 125.949,133.090 126.414,132.221 126.574 C 131.353 126.735,130.204 127.211,129.667 127.633 C 129.131 128.055,128.381 128.400,128.000 128.400 C 127.619 128.400,126.864 128.749,126.322 129.175 C 125.780 129.602,124.856 130.071,124.268 130.219 C 123.681 130.366,123.200 130.681,123.200 130.918 C 123.200 131.155,122.819 131.754,122.353 132.250 C 120.739 133.968,120.352 146.101,121.877 147.149 C 122.078 147.287,122.629 148.037,123.101 148.815 C 124.538 151.181,130.041 153.152,130.978 151.636 C 131.102 151.436,132.452 151.061,133.979 150.803 C 135.506 150.546,136.954 150.096,137.196 149.805 C 137.438 149.513,138.736 149.147,140.081 148.991 C 141.425 148.835,143.154 148.444,143.923 148.123 C 144.691 147.802,146.937 147.372,148.914 147.167 C 150.890 146.963,153.248 146.544,154.153 146.238 C 155.059 145.931,158.050 145.555,160.800 145.403 C 163.550 145.251,166.815 144.873,168.056 144.564 C 169.856 144.115,184.982 143.246,191.700 143.207 C 193.170 143.198,193.317 145.297,191.900 146.051 C 190.471 146.811,182.105 155.593,178.622 159.989 C 176.875 162.195,175.300 164.000,175.122 164.000 C 174.945 164.000,174.800 164.185,174.800 164.411 C 174.800 164.819,172.081 168.487,169.133 172.056 C 168.290 173.076,167.600 174.080,167.600 174.286 C 167.600 174.492,167.150 175.083,166.600 175.600 C 166.050 176.117,165.600 176.784,165.600 177.082 C 165.600 177.381,165.316 177.734,164.969 177.867 C 164.623 178.000,164.168 178.490,163.959 178.955 C 163.539 179.891,161.925 182.268,161.076 183.200 C 160.776 183.530,160.411 184.070,160.265 184.400 C 160.119 184.730,159.371 185.810,158.602 186.800 C 157.832 187.790,157.041 188.967,156.843 189.416 C 156.645 189.865,156.195 190.473,155.842 190.765 C 155.489 191.058,155.200 191.537,155.200 191.828 C 155.200 192.120,154.750 192.844,154.200 193.438 C 153.650 194.031,153.200 194.733,153.200 194.996 C 153.200 195.260,152.840 195.802,152.400 196.200 C 151.960 196.598,151.600 197.157,151.600 197.441 C 151.600 197.726,151.150 198.444,150.600 199.038 C 150.050 199.631,149.600 200.366,149.600 200.671 C 149.600 200.976,149.339 201.325,149.019 201.448 C 148.700 201.570,148.236 202.283,147.989 203.032 C 147.742 203.781,147.328 204.530,147.070 204.697 C 146.811 204.864,146.278 205.630,145.884 206.400 C 144.810 208.497,144.194 209.518,143.530 210.297 C 143.201 210.684,142.706 211.572,142.429 212.271 C 142.153 212.970,141.673 213.640,141.363 213.759 C 141.054 213.878,140.800 214.319,140.800 214.738 C 140.800 215.158,140.520 215.735,140.177 216.019 C 139.834 216.304,139.288 217.091,138.963 217.768 C 137.339 221.151,136.370 222.800,136.004 222.800 C 135.782 222.800,135.600 223.136,135.600 223.546 C 135.600 223.956,135.260 224.724,134.844 225.253 C 134.429 225.781,133.797 226.840,133.441 227.607 C 133.086 228.373,132.355 229.720,131.818 230.600 C 131.281 231.480,130.652 232.650,130.421 233.200 C 130.190 233.750,129.819 234.470,129.598 234.800 C 129.376 235.130,128.881 236.030,128.498 236.800 C 128.114 237.570,127.597 238.380,127.348 238.600 C 127.099 238.820,126.789 239.462,126.659 240.026 C 126.528 240.591,126.057 241.473,125.611 241.987 C 125.165 242.502,124.800 243.227,124.800 243.599 C 124.800 243.971,124.461 244.583,124.046 244.958 C 123.631 245.334,123.194 246.129,123.075 246.726 C 122.955 247.323,122.485 248.241,122.029 248.767 C 121.573 249.292,121.200 250.031,121.200 250.407 C 121.200 250.784,120.840 251.550,120.400 252.109 C 119.960 252.669,119.600 253.389,119.600 253.709 C 119.600 254.030,119.266 254.721,118.858 255.246 C 118.450 255.771,117.901 256.861,117.638 257.668 C 117.374 258.475,116.898 259.352,116.580 259.617 C 116.261 259.882,116.000 260.502,116.000 260.995 C 116.000 261.488,115.640 262.350,115.200 262.909 C 114.760 263.469,114.400 264.186,114.400 264.504 C 114.400 264.821,113.950 265.927,113.400 266.962 C 112.850 267.996,112.400 269.127,112.400 269.474 C 112.400 269.821,112.059 270.667,111.643 271.353 C 111.227 272.039,110.753 273.230,110.590 274.000 C 110.427 274.770,109.957 276.027,109.547 276.794 C 109.136 277.561,108.800 278.607,108.800 279.120 C 108.800 279.632,108.454 280.895,108.031 281.926 C 107.103 284.188,106.633 288.308,107.148 289.664 C 107.582 290.806,112.559 295.900,113.776 296.449 C 114.585 296.814,116.908 298.369,117.909 299.217 C 118.188 299.454,118.998 299.842,119.709 300.080 C 120.419 300.319,121.273 300.747,121.606 301.033 C 123.656 302.794,132.335 302.808,134.090 301.053 C 134.374 300.769,135.076 300.281,135.651 299.968 C 139.163 298.058,139.906 297.595,140.376 297.029 C 140.663 296.683,141.146 296.400,141.449 296.400 C 141.752 296.400,142.000 296.225,142.000 296.010 C 142.000 295.796,142.585 295.323,143.300 294.958 C 144.015 294.594,144.870 294.053,145.200 293.756 C 145.831 293.187,147.429 291.862,149.342 290.320 C 151.734 288.393,159.600 280.411,159.594 279.917 C 159.580 278.725,158.993 278.400,157.582 278.805 C 155.115 279.513,153.036 279.296,151.762 278.199 L 150.600 277.198 150.652 272.466 C 150.693 268.701,150.865 267.369,151.494 265.946 C 151.930 264.962,152.410 263.326,152.562 262.311 C 152.715 261.296,153.082 260.264,153.378 260.018 C 153.674 259.773,154.040 258.913,154.191 258.108 C 154.342 257.303,154.786 256.005,155.178 255.222 C 155.570 254.440,156.348 252.810,156.908 251.600 C 158.593 247.956,160.404 244.237,160.804 243.600 C 161.011 243.270,161.451 242.370,161.782 241.600 C 162.113 240.830,162.555 239.930,162.763 239.600 C 162.972 239.270,163.257 238.730,163.398 238.400 C 163.538 238.070,164.182 236.900,164.828 235.800 C 165.475 234.700,166.301 233.125,166.663 232.300 C 167.025 231.475,167.476 230.800,167.664 230.800 C 167.852 230.800,168.295 230.080,168.647 229.200 C 168.999 228.320,169.430 227.600,169.604 227.600 C 169.779 227.600,170.121 227.105,170.364 226.500 C 170.607 225.895,171.344 224.590,172.002 223.600 C 172.660 222.610,173.458 221.246,173.776 220.568 C 174.094 219.891,174.634 219.104,174.977 218.819 C 175.320 218.535,175.600 218.082,175.600 217.813 C 175.600 217.544,175.960 216.998,176.400 216.600 C 176.840 216.202,177.200 215.648,177.200 215.369 C 177.200 215.090,177.650 214.327,178.200 213.673 C 178.750 213.019,179.200 212.287,179.200 212.046 C 179.200 211.804,179.560 211.382,180.000 211.107 C 180.440 210.832,180.800 210.395,180.800 210.134 C 180.800 209.874,181.250 209.127,181.800 208.473 C 182.350 207.819,182.800 207.113,182.800 206.904 C 182.800 206.695,183.160 206.198,183.600 205.800 C 184.040 205.402,184.400 204.907,184.400 204.701 C 184.400 204.495,184.769 203.848,185.220 203.263 C 185.671 202.678,186.923 201.062,188.002 199.671 C 189.081 198.281,190.074 196.796,190.209 196.371 C 190.344 195.947,190.626 195.600,190.837 195.600 C 191.047 195.600,191.393 195.145,191.604 194.590 C 191.815 194.034,192.261 193.475,192.594 193.347 C 192.927 193.219,193.200 192.949,193.200 192.746 C 193.200 192.411,196.552 187.858,197.872 186.400 C 198.170 186.070,199.321 184.630,200.428 183.200 C 202.971 179.915,205.539 176.871,206.700 175.765 C 207.195 175.294,207.600 174.713,207.600 174.474 C 207.600 174.235,207.844 173.896,208.142 173.720 C 208.440 173.544,209.807 172.050,211.179 170.400 C 212.552 168.750,215.073 165.928,216.783 164.128 C 221.420 159.246,222.134 155.602,219.125 152.174 C 218.726 151.720,218.400 151.167,218.400 150.945 C 218.400 150.723,217.379 149.565,216.131 148.371 C 212.349 144.752,211.183 143.452,211.328 143.016 C 211.524 142.427,231.749 142.251,238.000 142.784 C 240.750 143.018,247.170 143.387,252.266 143.604 C 257.363 143.820,262.809 144.265,264.370 144.594 C 265.930 144.922,268.925 145.226,271.026 145.270 L 274.845 145.350 276.422 143.625 C 278.133 141.754,280.183 137.836,280.622 135.600 C 280.773 134.830,281.154 133.696,281.469 133.080 C 283.516 129.074,283.008 114.407,280.744 112.178 C 277.910 109.389,264.354 108.292,244.200 109.219 " stroke="none" fill="#fbfafa" fill-rule="evenodd"></path><path id="path2" d="M242.313 108.695 C 243.476 108.776,245.276 108.776,246.313 108.693 C 247.351 108.611,246.400 108.545,244.200 108.546 C 242.000 108.547,241.151 108.614,242.313 108.695 M266.700 108.689 C 267.415 108.778,268.585 108.778,269.300 108.689 C 270.015 108.601,269.430 108.528,268.000 108.528 C 266.570 108.528,265.985 108.601,266.700 108.689 M232.700 109.082 C 233.195 109.178,234.005 109.178,234.500 109.082 C 234.995 108.987,234.590 108.909,233.600 108.909 C 232.610 108.909,232.205 108.987,232.700 109.082 M219.107 110.290 C 219.826 110.379,220.906 110.377,221.507 110.286 C 222.108 110.195,221.520 110.122,220.200 110.124 C 218.880 110.126,218.388 110.201,219.107 110.290 M283.740 121.200 C 283.740 123.070,283.809 123.835,283.893 122.900 C 283.977 121.965,283.977 120.435,283.893 119.500 C 283.809 118.565,283.740 119.330,283.740 121.200 M119.701 140.200 C 119.705 141.080,119.787 141.393,119.883 140.895 C 119.979 140.398,119.975 139.678,119.875 139.295 C 119.775 138.913,119.696 139.320,119.701 140.200 M228.500 143.491 C 229.325 143.578,230.675 143.578,231.500 143.491 C 232.325 143.405,231.650 143.334,230.000 143.334 C 228.350 143.334,227.675 143.405,228.500 143.491 M189.300 143.876 C 189.685 143.976,190.315 143.976,190.700 143.876 C 191.085 143.775,190.770 143.693,190.000 143.693 C 189.230 143.693,188.915 143.775,189.300 143.876 M241.700 143.887 C 242.305 143.978,243.295 143.978,243.900 143.887 C 244.505 143.795,244.010 143.720,242.800 143.720 C 241.590 143.720,241.095 143.795,241.700 143.887 M252.500 144.276 C 252.885 144.376,253.515 144.376,253.900 144.276 C 254.285 144.175,253.970 144.093,253.200 144.093 C 252.430 144.093,252.115 144.175,252.500 144.276 M257.300 144.676 C 257.685 144.776,258.315 144.776,258.700 144.676 C 259.085 144.575,258.770 144.493,258.000 144.493 C 257.230 144.493,256.915 144.575,257.300 144.676 M150.909 273.600 C 150.909 274.590,150.987 274.995,151.082 274.500 C 151.178 274.005,151.178 273.195,151.082 272.700 C 150.987 272.205,150.909 272.610,150.909 273.600 M128.705 303.483 C 129.202 303.579,129.922 303.575,130.305 303.475 C 130.687 303.375,130.280 303.296,129.400 303.301 C 128.520 303.305,128.207 303.387,128.705 303.483 " stroke="none" fill="#f4a2ac" fill-rule="evenodd"></path><path id="path3" d="M231.800 108.389 C 229.600 108.543,226.990 108.864,226.000 109.103 C 225.010 109.342,220.960 109.656,217.000 109.799 C 212.966 109.946,208.920 110.303,207.798 110.613 C 206.697 110.917,202.917 111.360,199.398 111.597 C 195.879 111.835,192.366 112.275,191.591 112.575 C 190.816 112.875,188.116 113.247,185.591 113.402 C 182.909 113.566,180.501 113.928,179.800 114.272 C 179.136 114.599,176.631 115.002,174.189 115.175 C 171.658 115.354,169.272 115.744,168.589 116.090 C 167.935 116.422,165.780 116.818,163.800 116.972 C 161.820 117.125,159.828 117.491,159.374 117.786 C 158.920 118.080,157.018 118.508,155.148 118.737 C 153.277 118.966,151.219 119.428,150.573 119.765 C 149.928 120.101,148.365 120.485,147.100 120.617 C 145.835 120.749,144.552 121.106,144.249 121.409 C 143.946 121.712,142.731 122.085,141.549 122.239 C 140.367 122.393,138.773 122.852,138.006 123.260 C 137.239 123.667,136.159 124.006,135.606 124.013 C 135.053 124.019,133.700 124.468,132.600 125.009 C 131.500 125.550,130.309 125.994,129.954 125.996 C 129.599 125.998,128.850 126.360,128.291 126.800 C 127.731 127.240,127.032 127.603,126.737 127.607 C 126.106 127.616,123.215 129.523,121.801 130.863 C 121.258 131.378,120.700 132.430,120.562 133.200 C 120.423 133.970,120.046 135.021,119.723 135.535 C 119.003 136.682,118.815 143.251,119.480 144.061 C 119.723 144.357,120.137 145.405,120.400 146.389 C 120.964 148.495,122.039 149.996,124.558 152.191 C 126.079 153.516,131.123 153.660,133.516 152.448 C 134.332 152.034,135.810 151.567,136.800 151.409 C 137.790 151.252,139.013 150.861,139.519 150.540 C 140.024 150.219,141.734 149.804,143.319 149.618 C 144.903 149.432,146.830 149.015,147.600 148.692 C 148.370 148.370,150.809 147.993,153.019 147.856 C 155.230 147.719,157.840 147.341,158.819 147.017 C 159.862 146.672,163.587 146.266,167.809 146.038 C 171.775 145.824,175.551 145.447,176.201 145.200 C 177.920 144.546,190.998 144.149,191.363 144.740 C 191.519 144.993,191.448 145.200,191.205 145.200 C 190.961 145.200,189.941 146.010,188.936 147.000 C 187.932 147.990,186.951 148.800,186.755 148.800 C 186.560 148.800,186.400 148.956,186.400 149.146 C 186.400 149.337,185.152 150.822,183.626 152.446 C 182.101 154.071,180.616 155.672,180.326 156.005 C 179.317 157.166,175.159 162.207,174.482 163.091 C 174.107 163.580,173.440 164.452,173.000 165.028 C 172.560 165.603,171.705 166.637,171.100 167.326 C 170.495 168.015,170.000 168.765,170.000 168.993 C 170.000 169.221,169.640 169.632,169.200 169.907 C 168.760 170.182,168.400 170.666,168.400 170.984 C 168.400 171.301,168.171 171.704,167.890 171.880 C 167.610 172.056,167.076 172.650,166.703 173.200 C 166.330 173.750,165.483 174.920,164.821 175.800 C 164.159 176.680,163.438 177.805,163.218 178.300 C 162.999 178.795,162.631 179.200,162.400 179.200 C 162.169 179.200,161.800 179.605,161.580 180.100 C 161.172 181.017,159.623 183.328,158.707 184.385 C 158.428 184.707,158.020 185.262,157.800 185.617 C 156.693 187.407,155.609 189.045,155.278 189.425 C 155.075 189.659,154.690 190.258,154.424 190.755 C 154.157 191.253,153.593 192.007,153.170 192.430 C 152.746 192.854,152.400 193.442,152.400 193.738 C 152.400 194.034,152.040 194.602,151.600 195.000 C 151.160 195.398,150.800 195.938,150.800 196.200 C 150.800 196.461,150.350 197.199,149.800 197.838 C 149.251 198.477,148.801 199.197,148.800 199.438 C 148.800 199.679,148.440 200.202,148.000 200.600 C 147.560 200.998,147.200 201.539,147.200 201.801 C 147.200 202.063,146.835 202.698,146.389 203.213 C 145.943 203.727,145.477 204.551,145.353 205.045 C 145.229 205.538,144.892 206.033,144.604 206.143 C 144.316 206.254,143.868 206.987,143.609 207.772 C 143.350 208.557,142.974 209.200,142.774 209.200 C 142.574 209.200,142.129 209.785,141.784 210.500 C 140.752 212.641,139.711 214.414,139.068 215.128 C 138.735 215.497,138.339 216.295,138.188 216.900 C 138.037 217.505,137.746 218.000,137.542 218.000 C 137.338 218.000,136.833 218.790,136.419 219.756 C 136.005 220.722,135.471 221.632,135.233 221.780 C 134.995 221.927,134.800 222.326,134.800 222.666 C 134.800 223.006,134.350 223.819,133.800 224.473 C 133.250 225.127,132.800 226.008,132.800 226.431 C 132.800 226.854,132.614 227.200,132.386 227.200 C 132.158 227.200,131.610 227.965,131.168 228.900 C 130.006 231.361,129.213 232.916,128.771 233.600 C 128.558 233.930,128.128 234.754,127.815 235.432 C 127.502 236.109,126.966 236.896,126.623 237.181 C 126.280 237.465,126.000 238.001,126.000 238.371 C 126.000 238.742,125.550 239.655,125.000 240.400 C 124.450 241.145,124.000 242.024,124.000 242.352 C 124.000 242.680,123.624 243.349,123.164 243.839 C 122.704 244.328,122.390 245.053,122.467 245.450 C 122.558 245.924,123.056 245.283,123.917 243.586 C 126.046 239.389,128.447 235.044,128.995 234.400 C 129.276 234.070,129.638 233.350,129.800 232.800 C 129.962 232.250,130.325 231.530,130.607 231.200 C 130.890 230.870,131.407 229.970,131.758 229.200 C 132.109 228.430,132.787 227.170,133.265 226.400 C 134.840 223.864,135.991 221.821,136.645 220.400 C 137.000 219.630,137.426 218.910,137.591 218.800 C 137.757 218.690,138.282 217.880,138.758 217.000 C 139.233 216.120,139.967 214.860,140.387 214.200 C 140.807 213.540,141.889 211.740,142.789 210.200 C 143.690 208.660,144.958 206.590,145.607 205.600 C 146.256 204.610,147.005 203.350,147.271 202.800 C 147.537 202.250,148.019 201.484,148.342 201.097 C 148.973 200.341,149.319 199.783,150.671 197.327 C 151.150 196.458,151.825 195.511,152.171 195.224 C 152.517 194.937,152.800 194.543,152.800 194.348 C 152.800 194.153,153.295 193.296,153.900 192.444 C 155.065 190.802,155.110 190.736,157.603 187.000 C 159.523 184.123,161.754 180.900,162.587 179.800 C 165.392 176.095,168.270 172.205,168.600 171.671 C 168.820 171.314,169.778 170.027,170.729 168.811 C 171.679 167.595,172.804 166.150,173.228 165.600 C 175.235 162.999,181.585 155.247,182.440 154.356 C 182.968 153.805,184.323 152.368,185.451 151.162 C 186.579 149.956,188.526 148.034,189.778 146.890 C 191.155 145.631,191.940 144.626,191.765 144.344 C 191.426 143.795,177.752 144.133,173.793 144.789 C 172.470 145.008,168.240 145.456,164.393 145.785 C 160.547 146.114,156.783 146.564,156.029 146.784 C 155.275 147.005,152.880 147.367,150.706 147.590 C 148.533 147.813,146.395 148.188,145.956 148.424 C 145.516 148.659,144.041 149.026,142.678 149.239 C 140.352 149.602,137.936 150.296,132.864 152.058 C 123.708 155.239,117.670 146.603,120.658 134.600 C 121.726 130.312,126.221 127.373,136.256 124.402 C 137.607 124.002,139.081 123.478,139.530 123.237 C 139.980 122.997,140.674 122.801,141.074 122.802 C 141.473 122.803,143.240 122.377,145.000 121.855 C 149.504 120.519,153.313 119.596,156.800 118.995 C 158.450 118.710,160.274 118.292,160.854 118.066 C 161.434 117.840,163.543 117.472,165.540 117.249 C 167.537 117.026,169.509 116.663,169.922 116.442 C 170.334 116.221,172.636 115.842,175.036 115.599 C 177.436 115.357,180.300 114.908,181.400 114.602 C 182.500 114.296,184.840 113.930,186.600 113.789 C 188.360 113.648,191.870 113.200,194.400 112.795 C 196.930 112.390,200.800 111.942,203.000 111.800 C 205.200 111.658,208.170 111.300,209.600 111.004 C 211.030 110.708,215.080 110.345,218.600 110.196 C 222.120 110.048,226.890 109.658,229.200 109.330 C 239.480 107.870,271.830 108.200,277.800 109.827 C 282.997 111.243,285.073 117.432,283.426 126.600 C 283.109 128.360,282.675 130.790,282.460 132.000 C 281.577 136.972,278.480 143.163,275.835 145.244 C 274.552 146.253,268.801 146.164,260.200 145.003 C 252.118 143.911,215.558 142.766,214.078 143.558 C 212.954 144.160,212.957 145.042,214.083 145.644 C 217.294 147.363,222.019 154.511,221.986 157.600 C 221.970 159.067,220.280 161.515,216.600 165.398 C 216.160 165.862,214.720 167.493,213.400 169.021 C 212.080 170.550,210.809 171.980,210.576 172.200 C 210.342 172.420,209.183 173.770,208.000 175.200 C 206.817 176.630,205.647 177.980,205.402 178.200 C 205.156 178.420,203.991 179.860,202.813 181.400 C 201.635 182.940,200.427 184.470,200.128 184.800 C 199.830 185.130,198.678 186.570,197.570 188.000 C 196.462 189.430,195.197 191.050,194.760 191.600 C 193.688 192.947,190.833 196.823,189.600 198.604 C 189.050 199.398,188.281 200.443,187.891 200.924 C 187.501 201.406,186.601 202.708,185.891 203.818 C 185.181 204.928,184.368 206.098,184.085 206.418 C 183.802 206.738,182.812 208.151,181.885 209.558 C 180.958 210.965,179.890 212.585,179.511 213.158 C 179.132 213.731,178.471 214.842,178.041 215.627 C 177.610 216.411,176.975 217.289,176.629 217.576 C 176.283 217.863,176.000 218.324,176.000 218.600 C 176.000 218.876,175.720 219.335,175.377 219.619 C 175.034 219.904,174.494 220.691,174.176 221.368 C 173.858 222.046,173.061 223.410,172.405 224.400 C 171.750 225.390,171.089 226.470,170.938 226.800 C 170.786 227.130,169.965 228.460,169.114 229.754 C 168.262 231.049,167.307 232.669,166.991 233.354 C 166.675 234.040,166.232 234.870,166.008 235.200 C 165.783 235.530,165.409 236.250,165.176 236.800 C 164.942 237.350,164.233 238.700,163.600 239.800 C 162.967 240.900,162.258 242.250,162.024 242.800 C 161.791 243.350,161.417 244.070,161.192 244.400 C 160.968 244.730,160.506 245.630,160.167 246.400 C 159.827 247.170,158.950 249.060,158.216 250.600 C 155.769 255.740,153.428 261.725,152.819 264.400 C 152.593 265.390,152.145 266.920,151.822 267.800 C 151.473 268.752,151.228 270.879,151.218 273.053 L 151.200 276.705 152.500 277.680 C 153.614 278.515,154.000 278.602,155.200 278.282 C 165.191 275.625,157.887 286.054,142.448 296.488 C 141.212 297.324,139.480 298.494,138.600 299.089 C 130.028 304.881,126.605 304.924,116.860 299.365 C 113.062 297.198,107.175 291.724,106.515 289.746 C 105.747 287.440,106.904 281.425,109.238 275.600 C 109.634 274.610,110.072 273.350,110.210 272.800 C 110.348 272.250,110.794 271.080,111.201 270.200 C 111.609 269.320,112.414 267.430,112.991 266.000 C 113.568 264.570,114.212 263.130,114.423 262.800 C 114.633 262.470,114.916 261.930,115.052 261.600 C 115.320 260.948,116.790 257.754,118.771 253.516 C 119.461 252.039,120.186 250.732,120.382 250.611 C 120.578 250.490,120.854 249.865,120.995 249.223 C 121.136 248.581,121.510 247.841,121.826 247.579 C 122.142 247.317,122.394 246.899,122.387 246.651 C 122.366 245.896,120.400 248.392,120.400 249.173 C 120.400 249.574,120.131 250.125,119.802 250.398 C 119.473 250.672,118.994 251.594,118.739 252.447 C 118.483 253.301,118.136 254.000,117.968 254.000 C 117.800 254.000,117.442 254.675,117.173 255.500 C 116.904 256.325,116.350 257.429,115.942 257.954 C 115.534 258.479,115.200 259.306,115.200 259.793 C 115.200 260.279,114.840 261.093,114.400 261.600 C 113.960 262.107,113.599 262.810,113.598 263.161 C 113.597 263.513,113.152 264.520,112.610 265.400 C 112.068 266.280,111.618 267.360,111.610 267.800 C 111.602 268.240,111.237 269.140,110.800 269.800 C 110.363 270.460,110.002 271.360,109.999 271.800 C 109.996 272.240,109.550 273.500,109.009 274.600 C 108.468 275.700,108.019 277.029,108.013 277.553 C 108.006 278.077,107.667 279.067,107.260 279.753 C 106.224 281.497,105.417 288.158,106.028 289.911 C 106.790 292.094,114.314 299.200,115.864 299.200 C 116.172 299.200,116.525 299.461,116.648 299.781 C 116.770 300.100,117.470 300.559,118.203 300.801 C 118.936 301.043,119.741 301.488,119.991 301.789 C 120.241 302.091,121.201 302.461,122.123 302.612 C 123.045 302.763,124.134 303.182,124.543 303.544 C 125.526 304.412,130.923 304.367,131.928 303.482 C 132.297 303.156,133.184 302.765,133.898 302.613 C 134.611 302.462,135.331 302.101,135.498 301.812 C 135.664 301.523,136.475 301.006,137.300 300.663 C 138.125 300.321,138.800 299.852,138.800 299.620 C 138.800 299.389,139.044 299.200,139.342 299.200 C 139.639 299.200,140.354 298.764,140.929 298.231 C 141.504 297.698,142.340 297.146,142.787 297.004 C 143.234 296.862,143.600 296.600,143.600 296.422 C 143.600 296.243,144.140 295.873,144.800 295.600 C 145.460 295.327,146.000 294.990,146.000 294.851 C 146.000 294.713,147.275 293.610,148.833 292.400 C 161.487 282.570,164.610 274.806,154.800 277.561 C 151.879 278.381,150.368 273.281,152.230 268.887 C 152.577 268.069,153.034 266.349,153.245 265.064 C 153.456 263.779,153.884 262.339,154.194 261.864 C 154.505 261.389,154.881 260.238,155.030 259.308 C 155.178 258.377,155.546 257.411,155.847 257.161 C 156.148 256.911,156.592 255.963,156.834 255.053 C 157.076 254.144,157.514 253.130,157.806 252.800 C 158.098 252.470,158.469 251.660,158.630 251.000 C 158.791 250.340,159.255 249.371,159.661 248.846 C 160.067 248.321,160.400 247.494,160.400 247.008 C 160.400 246.522,160.750 245.807,161.177 245.421 C 161.605 245.034,162.073 244.177,162.218 243.518 C 162.363 242.858,162.823 241.977,163.241 241.559 C 163.658 241.142,164.000 240.468,164.000 240.062 C 164.000 239.656,164.344 239.013,164.764 238.633 C 165.184 238.252,165.645 237.474,165.789 236.902 C 165.932 236.331,166.398 235.420,166.825 234.878 C 167.251 234.336,167.600 233.674,167.600 233.407 C 167.600 233.141,167.960 232.507,168.400 232.000 C 168.840 231.493,169.200 230.861,169.200 230.597 C 169.200 230.333,169.650 229.631,170.200 229.038 C 170.750 228.444,171.200 227.608,171.200 227.179 C 171.200 226.751,171.376 226.400,171.592 226.400 C 171.943 226.400,172.631 225.314,174.352 222.048 C 174.655 221.471,175.220 220.640,175.606 220.200 C 175.992 219.760,176.431 218.995,176.581 218.500 C 176.731 218.005,177.031 217.600,177.248 217.600 C 177.464 217.600,177.825 217.074,178.049 216.432 C 178.273 215.790,178.695 215.172,178.988 215.060 C 179.280 214.948,179.732 214.213,179.991 213.428 C 180.250 212.643,180.633 212.000,180.841 212.000 C 181.049 212.000,181.400 211.595,181.620 211.100 C 182.028 210.183,183.577 207.872,184.493 206.815 C 185.039 206.184,185.360 205.698,186.600 203.622 C 187.040 202.885,187.715 201.999,188.100 201.652 C 188.485 201.306,188.800 200.802,188.800 200.534 C 188.800 200.265,189.115 199.807,189.500 199.517 C 190.199 198.989,190.614 198.425,191.911 196.241 C 192.290 195.604,192.915 194.799,193.300 194.452 C 193.685 194.106,194.000 193.644,194.000 193.425 C 194.000 193.207,194.357 192.662,194.794 192.214 C 196.540 190.425,198.000 188.600,198.000 188.207 C 198.000 187.979,198.360 187.568,198.800 187.293 C 199.240 187.018,199.600 186.531,199.600 186.211 C 199.600 185.890,199.960 185.435,200.400 185.200 C 200.840 184.965,201.200 184.574,201.200 184.332 C 201.200 184.090,201.605 183.489,202.100 182.997 C 202.992 182.109,203.672 181.297,205.600 178.813 C 206.150 178.105,207.005 177.116,207.500 176.617 C 207.995 176.117,208.400 175.590,208.400 175.446 C 208.400 175.302,209.367 174.153,210.550 172.892 C 211.732 171.632,213.915 169.250,215.400 167.600 C 216.886 165.950,218.708 163.927,219.451 163.105 C 220.193 162.283,220.800 161.456,220.800 161.267 C 220.800 161.078,221.160 160.598,221.600 160.200 C 222.587 159.307,222.758 155.195,221.839 154.433 C 221.531 154.177,221.160 153.495,221.015 152.918 C 220.621 151.347,217.553 147.629,215.066 145.708 C 214.410 145.201,214.053 144.638,214.218 144.371 C 214.554 143.828,248.852 144.239,253.200 144.838 C 260.629 145.862,262.668 146.025,269.086 146.109 L 276.060 146.200 277.025 145.000 C 277.556 144.340,278.353 143.366,278.795 142.837 C 279.238 142.307,279.600 141.705,279.600 141.500 C 279.600 141.294,279.960 140.669,280.400 140.109 C 280.840 139.550,281.200 138.709,281.200 138.240 C 281.200 137.772,281.568 136.701,282.018 135.862 C 282.479 135.001,282.940 133.172,283.074 131.668 C 283.205 130.200,283.576 128.475,283.900 127.834 C 284.790 126.072,284.826 117.346,283.949 116.000 C 283.591 115.450,283.188 114.403,283.054 113.674 C 282.742 111.981,280.834 110.065,279.126 109.731 C 278.397 109.588,277.358 109.185,276.818 108.836 C 275.746 108.141,240.397 107.791,231.800 108.389 " stroke="none" fill="#f494a0" fill-rule="evenodd"></path><path id="path4" d="M240.400 108.784 C 236.110 108.956,231.160 109.299,229.400 109.545 C 227.640 109.792,222.870 110.172,218.800 110.391 C 214.730 110.610,210.673 110.964,209.784 111.178 C 208.894 111.392,205.831 111.755,202.975 111.986 C 200.119 112.217,196.346 112.658,194.591 112.966 C 192.835 113.275,189.869 113.653,187.999 113.805 C 186.130 113.958,183.070 114.404,181.200 114.798 C 179.330 115.192,176.407 115.630,174.704 115.773 C 173.001 115.916,170.931 116.268,170.104 116.557 C 169.277 116.845,167.340 117.203,165.800 117.352 C 164.260 117.501,162.190 117.877,161.200 118.187 C 160.210 118.497,158.074 118.947,156.453 119.186 C 154.833 119.426,153.208 119.782,152.843 119.977 C 152.478 120.172,151.014 120.535,149.590 120.783 C 148.165 121.032,146.290 121.509,145.422 121.845 C 144.554 122.181,142.894 122.632,141.732 122.846 C 140.571 123.061,139.121 123.497,138.510 123.816 C 137.900 124.134,137.089 124.396,136.708 124.398 C 134.400 124.406,123.708 129.615,122.251 131.440 C 119.400 135.013,119.408 144.390,122.265 148.754 C 124.617 152.348,127.605 153.343,132.060 152.015 C 133.677 151.534,136.440 150.712,138.200 150.189 C 139.960 149.667,142.210 149.119,143.200 148.973 C 144.190 148.827,145.319 148.539,145.709 148.335 C 146.099 148.130,147.989 147.789,149.909 147.578 C 151.829 147.366,154.570 146.940,156.000 146.631 C 157.430 146.322,160.310 145.954,162.400 145.813 C 164.490 145.673,168.186 145.296,170.614 144.977 C 175.359 144.353,190.615 143.554,191.477 143.885 C 192.090 144.120,192.190 145.600,191.593 145.600 C 190.721 145.600,182.160 154.794,176.721 161.572 C 170.748 169.017,166.165 174.979,164.400 177.601 C 164.070 178.091,163.440 178.960,163.000 179.530 C 162.560 180.101,161.570 181.496,160.800 182.631 C 160.030 183.765,158.500 186.002,157.400 187.602 C 154.027 192.508,153.475 193.334,150.723 197.600 C 149.659 199.250,148.599 200.876,148.367 201.214 C 147.972 201.791,145.870 205.251,144.001 208.400 C 142.515 210.903,140.125 214.885,138.599 217.400 C 138.065 218.280,137.332 219.630,136.969 220.400 C 136.607 221.170,136.171 221.890,136.000 222.000 C 135.829 222.110,135.393 222.830,135.031 223.600 C 134.668 224.370,133.931 225.720,133.392 226.600 C 132.853 227.480,132.051 228.920,131.611 229.800 C 131.170 230.680,130.639 231.670,130.429 232.000 C 129.855 232.904,124.631 242.454,124.084 243.600 C 123.821 244.150,123.454 244.870,123.268 245.200 C 122.206 247.083,117.741 256.040,115.690 260.400 C 112.618 266.933,112.000 268.354,112.000 268.886 C 112.000 269.181,111.754 269.777,111.453 270.211 C 111.152 270.645,110.610 272.026,110.248 273.280 C 109.886 274.533,109.428 275.659,109.230 275.782 C 109.032 275.904,108.745 276.744,108.592 277.648 C 108.439 278.553,107.987 280.037,107.588 280.946 C 105.431 285.862,106.109 289.988,109.659 293.548 C 118.449 302.364,128.786 305.450,135.200 301.174 C 135.750 300.808,137.190 299.855,138.400 299.056 C 139.610 298.258,141.590 296.937,142.800 296.121 C 155.961 287.244,165.194 275.416,156.827 278.153 C 152.348 279.618,150.974 278.367,151.066 272.905 C 151.103 270.757,151.349 268.460,151.613 267.800 C 151.877 267.140,152.416 265.430,152.811 264.000 C 153.710 260.742,154.924 257.362,155.756 255.800 C 156.107 255.140,156.396 254.440,156.398 254.245 C 156.399 254.050,157.104 252.430,157.965 250.645 C 158.826 248.860,159.812 246.770,160.157 246.000 C 160.502 245.230,160.968 244.330,161.192 244.000 C 161.417 243.670,161.791 242.950,162.024 242.400 C 162.258 241.850,162.955 240.500,163.574 239.400 C 164.193 238.300,165.364 236.140,166.177 234.600 C 166.990 233.060,168.182 230.990,168.826 230.000 C 169.470 229.010,170.223 227.750,170.500 227.200 C 170.776 226.650,171.347 225.660,171.768 225.000 C 173.013 223.045,175.785 218.650,176.208 217.960 C 176.759 217.060,178.484 214.446,181.558 209.851 C 186.469 202.510,187.077 201.632,188.449 199.914 C 189.201 198.971,190.350 197.390,191.000 196.400 C 191.651 195.410,193.182 193.340,194.401 191.800 C 195.621 190.260,197.152 188.280,197.805 187.400 C 199.483 185.137,208.023 174.681,208.586 174.200 C 208.844 173.980,210.112 172.540,211.405 171.000 C 212.698 169.460,214.440 167.474,215.275 166.586 C 221.693 159.769,222.924 157.360,221.197 155.000 C 221.036 154.780,220.674 153.885,220.392 153.011 C 220.042 151.927,218.817 150.360,216.540 148.082 C 214.483 146.026,213.200 144.421,213.200 143.907 L 213.200 143.070 227.500 143.338 C 245.546 143.676,256.493 144.210,262.037 145.023 C 264.426 145.373,268.384 145.692,270.833 145.730 L 275.285 145.800 276.858 144.000 C 283.133 136.821,285.895 117.076,281.354 111.853 C 278.825 108.943,264.033 107.834,240.400 108.784 M267.200 109.177 C 279.713 110.039,281.797 111.105,282.514 117.016 C 283.026 121.239,282.370 131.316,281.469 133.080 C 281.154 133.696,280.773 134.830,280.622 135.600 C 280.183 137.836,278.133 141.754,276.422 143.625 L 274.845 145.350 271.026 145.270 C 268.925 145.226,265.930 144.922,264.370 144.594 C 262.809 144.265,257.363 143.820,252.266 143.604 C 247.170 143.387,240.750 143.018,238.000 142.784 C 231.749 142.251,211.524 142.427,211.328 143.016 C 211.183 143.452,212.349 144.752,216.131 148.371 C 217.379 149.565,218.400 150.723,218.400 150.945 C 218.400 151.167,218.726 151.720,219.125 152.174 C 222.134 155.602,221.420 159.246,216.783 164.128 C 215.073 165.928,212.552 168.750,211.179 170.400 C 209.807 172.050,208.440 173.544,208.142 173.720 C 207.844 173.896,207.600 174.235,207.600 174.474 C 207.600 174.713,207.195 175.294,206.700 175.765 C 205.539 176.871,202.971 179.915,200.428 183.200 C 199.321 184.630,198.170 186.070,197.872 186.400 C 196.552 187.858,193.200 192.411,193.200 192.746 C 193.200 192.949,192.927 193.219,192.594 193.347 C 192.261 193.475,191.815 194.034,191.604 194.590 C 191.393 195.145,191.047 195.600,190.837 195.600 C 190.626 195.600,190.344 195.947,190.209 196.371 C 190.074 196.796,189.081 198.281,188.002 199.671 C 186.923 201.062,185.671 202.678,185.220 203.263 C 184.769 203.848,184.400 204.495,184.400 204.701 C 184.400 204.907,184.040 205.402,183.600 205.800 C 183.160 206.198,182.800 206.695,182.800 206.904 C 182.800 207.113,182.350 207.819,181.800 208.473 C 181.250 209.127,180.800 209.874,180.800 210.134 C 180.800 210.395,180.440 210.832,180.000 211.107 C 179.560 211.382,179.200 211.804,179.200 212.046 C 179.200 212.287,178.750 213.019,178.200 213.673 C 177.650 214.327,177.200 215.090,177.200 215.369 C 177.200 215.648,176.840 216.202,176.400 216.600 C 175.960 216.998,175.600 217.544,175.600 217.813 C 175.600 218.082,175.320 218.535,174.977 218.819 C 174.634 219.104,174.094 219.891,173.776 220.568 C 173.458 221.246,172.660 222.610,172.002 223.600 C 171.344 224.590,170.607 225.895,170.364 226.500 C 170.121 227.105,169.779 227.600,169.604 227.600 C 169.430 227.600,168.999 228.320,168.647 229.200 C 168.295 230.080,167.852 230.800,167.664 230.800 C 167.476 230.800,167.025 231.475,166.663 232.300 C 166.301 233.125,165.475 234.700,164.828 235.800 C 164.182 236.900,163.538 238.070,163.398 238.400 C 163.257 238.730,162.972 239.270,162.763 239.600 C 162.555 239.930,162.113 240.830,161.782 241.600 C 161.451 242.370,161.011 243.270,160.804 243.600 C 160.404 244.237,158.593 247.956,156.908 251.600 C 156.348 252.810,155.570 254.440,155.178 255.222 C 154.786 256.005,154.342 257.303,154.191 258.108 C 154.040 258.913,153.674 259.773,153.378 260.018 C 153.082 260.264,152.715 261.296,152.562 262.311 C 152.410 263.326,151.930 264.962,151.494 265.946 C 150.865 267.369,150.693 268.701,150.652 272.466 L 150.600 277.198 151.762 278.199 C 153.036 279.296,155.115 279.513,157.582 278.805 C 158.993 278.400,159.580 278.725,159.594 279.917 C 159.600 280.411,151.734 288.393,149.342 290.320 C 147.429 291.862,145.831 293.187,145.200 293.756 C 144.870 294.053,144.015 294.594,143.300 294.958 C 142.585 295.323,142.000 295.796,142.000 296.010 C 142.000 296.225,141.752 296.400,141.449 296.400 C 141.146 296.400,140.663 296.683,140.376 297.029 C 139.906 297.595,139.163 298.058,135.651 299.968 C 135.076 300.281,134.374 300.769,134.090 301.053 C 132.335 302.808,123.656 302.794,121.606 301.033 C 121.273 300.747,120.419 300.319,119.709 300.080 C 118.998 299.842,118.188 299.454,117.909 299.217 C 116.908 298.369,114.585 296.814,113.776 296.449 C 112.559 295.900,107.582 290.806,107.148 289.664 C 106.633 288.308,107.103 284.188,108.031 281.926 C 108.454 280.895,108.800 279.632,108.800 279.120 C 108.800 278.607,109.136 277.561,109.547 276.794 C 109.957 276.027,110.427 274.770,110.590 274.000 C 110.753 273.230,111.227 272.039,111.643 271.353 C 112.059 270.667,112.400 269.821,112.400 269.474 C 112.400 269.127,112.850 267.996,113.400 266.962 C 113.950 265.927,114.400 264.821,114.400 264.504 C 114.400 264.186,114.760 263.469,115.200 262.909 C 115.640 262.350,116.000 261.488,116.000 260.995 C 116.000 260.502,116.261 259.882,116.580 259.617 C 116.898 259.352,117.374 258.475,117.638 257.668 C 117.901 256.861,118.450 255.771,118.858 255.246 C 119.266 254.721,119.600 254.030,119.600 253.709 C 119.600 253.389,119.960 252.669,120.400 252.109 C 120.840 251.550,121.200 250.784,121.200 250.407 C 121.200 250.031,121.573 249.292,122.029 248.767 C 122.485 248.241,122.955 247.323,123.075 246.726 C 123.194 246.129,123.631 245.334,124.046 244.958 C 124.461 244.583,124.800 243.971,124.800 243.599 C 124.800 243.227,125.165 242.502,125.611 241.987 C 126.057 241.473,126.528 240.591,126.659 240.026 C 126.789 239.462,127.099 238.820,127.348 238.600 C 127.597 238.380,128.114 237.570,128.498 236.800 C 128.881 236.030,129.376 235.130,129.598 234.800 C 129.819 234.470,130.190 233.750,130.421 233.200 C 130.652 232.650,131.281 231.480,131.818 230.600 C 132.355 229.720,133.086 228.373,133.441 227.607 C 133.797 226.840,134.429 225.781,134.844 225.253 C 135.260 224.724,135.600 223.956,135.600 223.546 C 135.600 223.136,135.782 222.800,136.004 222.800 C 136.370 222.800,137.339 221.151,138.963 217.768 C 139.288 217.091,139.834 216.304,140.177 216.019 C 140.520 215.735,140.800 215.158,140.800 214.738 C 140.800 214.319,141.054 213.878,141.363 213.759 C 141.673 213.640,142.153 212.970,142.429 212.271 C 142.706 211.572,143.201 210.684,143.530 210.297 C 144.194 209.518,144.810 208.497,145.884 206.400 C 146.278 205.630,146.811 204.864,147.070 204.697 C 147.328 204.530,147.742 203.781,147.989 203.032 C 148.236 202.283,148.700 201.570,149.019 201.448 C 149.339 201.325,149.600 200.976,149.600 200.671 C 149.600 200.366,150.050 199.631,150.600 199.038 C 151.150 198.444,151.600 197.726,151.600 197.441 C 151.600 197.157,151.960 196.598,152.400 196.200 C 152.840 195.802,153.200 195.260,153.200 194.996 C 153.200 194.733,153.650 194.031,154.200 193.438 C 154.750 192.844,155.200 192.120,155.200 191.828 C 155.200 191.537,155.489 191.058,155.842 190.765 C 156.195 190.473,156.645 189.865,156.843 189.416 C 157.041 188.967,157.832 187.790,158.602 186.800 C 159.371 185.810,160.119 184.730,160.265 184.400 C 160.411 184.070,160.776 183.530,161.076 183.200 C 161.925 182.268,163.539 179.891,163.959 178.955 C 164.168 178.490,164.623 178.000,164.969 177.867 C 165.316 177.734,165.600 177.381,165.600 177.082 C 165.600 176.784,166.050 176.117,166.600 175.600 C 167.150 175.083,167.600 174.492,167.600 174.286 C 167.600 174.080,168.290 173.076,169.133 172.056 C 172.081 168.487,174.800 164.819,174.800 164.411 C 174.800 164.185,174.945 164.000,175.122 164.000 C 175.300 164.000,176.875 162.195,178.622 159.989 C 182.105 155.593,190.471 146.811,191.900 146.051 C 193.317 145.297,193.170 143.198,191.700 143.207 C 184.982 143.246,169.856 144.115,168.056 144.564 C 166.815 144.873,163.550 145.251,160.800 145.403 C 158.050 145.555,155.059 145.931,154.153 146.238 C 153.248 146.544,150.890 146.963,148.914 147.167 C 146.937 147.372,144.691 147.802,143.923 148.123 C 143.154 148.444,141.425 148.835,140.081 148.991 C 138.736 149.147,137.438 149.513,137.196 149.805 C 136.954 150.096,135.506 150.546,133.979 150.803 C 132.452 151.061,131.102 151.436,130.978 151.636 C 130.041 153.152,124.538 151.181,123.101 148.815 C 122.629 148.037,122.078 147.287,121.877 147.149 C 120.352 146.101,120.739 133.968,122.353 132.250 C 122.819 131.754,123.200 131.155,123.200 130.918 C 123.200 130.681,123.681 130.366,124.268 130.219 C 124.856 130.071,125.780 129.602,126.322 129.175 C 126.864 128.749,127.619 128.400,128.000 128.400 C 128.381 128.400,129.131 128.055,129.667 127.633 C 130.204 127.211,131.353 126.735,132.221 126.574 C 133.090 126.414,134.427 125.949,135.194 125.541 C 135.961 125.134,137.003 124.800,137.510 124.800 C 138.017 124.800,139.100 124.461,139.916 124.048 C 140.732 123.634,142.321 123.170,143.448 123.017 C 144.574 122.864,145.999 122.478,146.614 122.159 C 147.230 121.839,148.928 121.409,150.388 121.202 C 151.847 120.995,153.662 120.571,154.421 120.260 C 155.179 119.950,157.032 119.568,158.537 119.412 C 160.042 119.256,161.863 118.882,162.584 118.581 C 163.305 118.279,165.134 117.919,166.648 117.779 C 168.161 117.640,170.750 117.194,172.400 116.789 C 174.050 116.384,176.971 115.950,178.891 115.825 C 180.811 115.699,183.151 115.343,184.091 115.032 C 185.031 114.721,188.299 114.265,191.354 114.019 C 194.409 113.772,197.207 113.410,197.573 113.214 C 197.938 113.019,200.929 112.668,204.219 112.434 C 207.508 112.200,211.550 111.757,213.200 111.449 C 214.850 111.140,219.260 110.766,223.000 110.616 C 226.740 110.466,231.690 110.153,234.000 109.920 C 243.292 108.981,259.188 108.626,267.200 109.177 " stroke="none" fill="#f4acb4" fill-rule="evenodd"></path></g></svg>
