<svg version="1.1" id="Layer_1" xmlns="http://www.w3.org/2000/svg" xmlns:xlink="http://www.w3.org/1999/xlink" x="0px" y="0px" viewBox="0 -14.2 92.6 92.6" style="enable-background:new 0 0 92.6 64;" xml:space="preserve">
 <style type="text/css">
  .st0{fill:#1D55CC;}
 </style>
 <g>
  <g>
   <path class="st0" d="M78.8,31.1c0.4-1.2,0.6-2.5,0.6-3.9c0-8.9-7.2-16.1-16.1-16.1c-1.9,0-3.9,0.4-5.6,1C53.7,4.9,46.1,0,37.3,0
			C24.9,0,14.8,10.1,14.8,22.6c0,1.4,0.2,2.9,0.4,4.3c-6.2,1-10.9,6.2-10.9,12.6c0,4.7,2.3,8.6,6,10.9c3.1-1.8,6.8-3.1,10.9-4.3
			c0,0-4.7-16,0.8-17.1c6.6-1.2,7,0.6,20.4-0.8C56.8,26.7,69.3,29,69.3,29c2.5,0,2.3,5.3,1.9,9.1c-0.4,3.9-1.8,7.4-1.8,7.4
			c5.1,1.4,9.5,3.1,13.2,5.3c3.1-1.9,5.1-5.3,5.1-8.9C88.1,36.2,84,31.7,78.8,31.1z">
   </path>
   <path class="st0" d="M46.3,54.7c18.7,0,35.4,2.5,46.3,9.3c-7-9.3-25.1-16-46.3-16S7,54.5,0,63.8C10.9,57.2,27.6,54.7,46.3,54.7z">
   </path>
  </g>
 </g>
</svg>
