<svg xmlns="http://www.w3.org/2000/svg" width="250" height="250" fill="none"><g clip-path="url(#a)"><path fill="#F78422" d="M177 30H73c-23.748 0-43 19.252-43 43v104c0 23.748 19.252 43 43 43h104c23.748 0 43-19.252 43-43V73c0-23.748-19.252-43-43-43Z"/><path fill="#fff" d="M153.493 96.356c-25.75-25.75-60.011-39.931-96.473-39.931v26.827c29.296 0 56.82 11.39 77.503 32.074 20.683 20.683 32.074 48.207 32.074 77.503h26.827c0-36.461-14.181-70.723-39.931-96.473Z"/><path fill="#fff" d="M56.742 101.823v26.827c35.388 0 64.179 28.791 64.179 64.179h26.827c0-50.181-40.825-91.006-91.006-91.006Z"/><path fill="#fff" d="M75.79 193.575c10.613 0 19.215-8.603 19.215-19.215s-8.602-19.214-19.214-19.214c-10.612 0-19.215 8.602-19.215 19.214 0 10.612 8.603 19.215 19.215 19.215Z"/></g><defs><clipPath id="a"><path fill="#fff" d="M30 30h190v190H30z"/></clipPath></defs></svg>