<?xml version="1.0" standalone="no"?>
<!DOCTYPE svg PUBLIC "-//W3C//DTD SVG 20010904//EN"
 "http://www.w3.org/TR/2001/REC-SVG-20010904/DTD/svg10.dtd">
<svg version="1.0" xmlns="http://www.w3.org/2000/svg"
 width="900.000000pt" height="900.000000pt" viewBox="0 0 900.000000 900.000000"
 preserveAspectRatio="xMidYMid meet">

<g transform="translate(0.000000,900.000000) scale(0.100000,-0.100000)"
fill="#000000" stroke="none">
<path d="M0 4500 l0 -4500 4500 0 4500 0 0 4500 0 4500 -4500 0 -4500 0 0
-4500z m3035 1380 c341 -25 520 -86 663 -227 156 -154 185 -301 198 -978 7
-364 -3 -551 -40 -730 -46 -223 -111 -342 -229 -420 -43 -28 -154 -54 -300
-70 -109 -11 -145 -19 -154 -32 -21 -27 -15 -92 17 -183 38 -106 38 -128 4
-136 -40 -10 -132 3 -209 30 -123 42 -309 154 -370 222 -20 22 -26 22 -330 28
-771 13 -1022 89 -1147 347 -71 146 -97 318 -119 785 -28 591 55 1030 228
1202 50 50 71 63 148 90 101 36 241 67 366 81 104 12 1080 5 1274 -9z m1931
-471 c174 -45 294 -154 340 -307 29 -99 18 -237 -26 -324 -7 -13 -30 -44 -51
-70 -22 -26 -39 -50 -39 -55 1 -4 19 -21 40 -38 92 -70 150 -196 150 -326 0
-224 -139 -393 -370 -449 -77 -18 -118 -20 -442 -20 l-357 0 -15 22 c-14 20
-16 111 -16 785 0 590 3 768 12 783 12 19 24 20 354 20 312 0 347 -2 420 -21z
m2154 -222 c0 -129 2 -236 5 -239 4 -3 38 6 78 21 64 23 87 26 202 26 118 -1
136 -3 200 -28 239 -94 379 -299 379 -557 1 -167 -55 -302 -175 -422 -112
-111 -238 -162 -404 -162 -268 1 -478 149 -573 406 l-27 73 -3 534 c-2 294 -1
545 3 558 5 23 7 23 160 23 l155 0 0 -233z m-885 -202 c83 -21 191 -77 253
-131 69 -60 139 -169 170 -262 33 -102 35 -244 4 -345 -66 -214 -217 -355
-440 -408 -290 -70 -587 94 -688 381 -22 63 -27 93 -27 185 -1 122 9 166 59
272 72 152 227 273 399 312 64 14 206 12 270 -4z"/>
<path d="M3140 5412 c-31 -12 -54 -31 -75 -61 -27 -38 -30 -51 -30 -114 0 -87
21 -124 91 -158 94 -45 183 -26 247 54 28 34 31 45 31 106 0 58 -4 75 -28 111
-48 74 -141 98 -236 62z"/>
<path d="M1503 5390 c-15 -6 -24 -21 -29 -46 -7 -37 0 -301 16 -654 5 -107 12
-340 16 -517 4 -177 11 -328 15 -335 6 -10 50 -14 170 -16 89 -2 173 -1 185 2
l24 6 -1 198 c0 108 -4 231 -7 272 -9 96 -6 109 26 121 14 6 123 13 243 16
l216 6 11 -34 c6 -19 13 -112 16 -207 8 -228 17 -347 27 -364 13 -21 303 -19
324 2 20 21 20 4 2 665 -23 849 -24 868 -45 883 -13 11 -49 13 -152 10 -130
-4 -173 -14 -192 -42 -4 -6 -8 -121 -8 -256 0 -135 -4 -250 -8 -256 -4 -7 -90
-13 -244 -18 -221 -6 -237 -6 -246 11 -11 21 -29 189 -42 396 -5 81 -12 152
-15 157 -8 12 -271 12 -302 0z"/>
<path d="M3063 4838 c-4 -7 -10 -229 -11 -494 -3 -437 -2 -482 13 -497 14 -14
40 -17 165 -17 137 0 150 2 160 19 6 13 10 186 10 495 l0 475 -22 15 c-29 21
-302 23 -315 4z"/>
<path d="M4512 4958 l3 -153 148 -3 c169 -3 212 5 261 51 60 57 61 150 1 215
l-33 37 -191 3 -192 3 3 -153z"/>
<path d="M4593 4462 l-83 -3 0 -160 0 -160 204 3 205 3 36 35 c81 79 67 216
-28 267 -33 18 -132 22 -334 15z"/>
<path d="M7305 4673 c-73 -25 -149 -105 -165 -173 -15 -63 -9 -174 12 -215 24
-46 82 -100 132 -125 40 -19 59 -21 135 -18 81 3 93 6 133 34 23 17 57 53 73
79 29 46 30 53 30 159 0 119 -5 134 -64 199 -62 68 -186 94 -286 60z"/>
<path d="M5997 4673 c-100 -34 -169 -135 -171 -253 -1 -121 51 -212 148 -259
47 -23 154 -29 215 -11 52 15 117 74 147 135 24 50 26 63 22 144 -3 77 -8 95
-32 131 -39 59 -72 86 -134 110 -63 24 -129 25 -195 3z"/>
</g>
</svg>
