<?xml version="1.0" encoding="UTF-8"?>
<svg version="1.1" xmlns="http://www.w3.org/2000/svg" width="1200" height="1200">
<path d="M0 0 C396 0 792 0 1200 0 C1200 396 1200 792 1200 1200 C804 1200 408 1200 0 1200 C0 804 0 408 0 0 Z " fill="#FE4E41" transform="translate(0,0)"/>
<path d="M0 0 C0.00097681 0.57945098 0.00195362 1.15890196 0.00296003 1.75591207 C0.06127897 36.12716477 0.13511118 70.4983485 0.22898628 104.86952265 C0.24025394 108.99992886 0.25139248 113.13033541 0.26245117 117.26074219 C0.26465486 118.08300414 0.26685854 118.90526609 0.269129 119.75244507 C0.30446566 133.05243992 0.32935027 146.35243472 0.35034702 159.65245906 C0.37213804 173.30762432 0.40521972 186.96272885 0.44870156 200.61784244 C0.47516149 209.03835502 0.49289849 217.458792 0.49934604 225.87934408 C0.50461728 231.65989332 0.52089227 237.44034757 0.54566566 243.22084585 C0.55962162 246.55195853 0.56723803 249.88275728 0.56500816 253.21392059 C0.56334957 256.83578362 0.58010567 260.45712692 0.60127258 264.07891846 C0.59642501 265.11786609 0.59157743 266.15681372 0.58658296 267.22724462 C0.69084031 278.09017915 2.52552908 288.70827486 10 297 C19.97428597 305.9032217 34.2206975 305.44522738 46.7890625 305.36328125 C48.38463338 305.36276105 49.9802049 305.36328491 51.57577515 305.36479187 C54.89892303 305.36470279 58.22182508 305.35440348 61.54492188 305.33618164 C65.77884476 305.3134597 70.01241079 305.31296415 74.24637794 305.31969929 C77.534018 305.3230588 80.82157845 305.31637267 84.10920334 305.30657005 C85.66952471 305.30275467 87.22985499 305.30155441 88.79018021 305.3031559 C102.16648638 305.30545302 114.7242442 305.118952 124.85546875 295.1796875 C132.84743612 285.43146063 133.14687869 272.86551286 133.15821838 260.83204651 C133.16315636 259.71533929 133.16809434 258.59863208 133.17318195 257.44808525 C133.18852466 253.71091572 133.19690886 249.97376333 133.20532227 246.23657227 C133.21490332 243.55576836 133.22487065 240.87496848 133.23532104 238.19416809 C133.25704145 232.42498548 133.27520207 226.65580054 133.29092598 220.88659859 C133.31366512 212.54536269 133.34180227 204.20415182 133.37124526 195.8629372 C133.41887167 182.32896465 133.46214922 168.79498184 133.50268555 155.26098633 C133.5420657 142.11612144 133.58349794 128.97126566 133.62768555 115.82641602 C133.63177196 114.61048042 133.63177196 114.61048042 133.63594092 113.36998046 C133.64962081 109.30320741 133.663341 105.23643449 133.67708123 101.16966164 C133.7909682 67.44645991 133.89779471 33.72323915 134 0 C137.20306022 1.25579287 140.13677719 2.56093956 143.07421875 4.35546875 C144.20053711 5.04286133 144.20053711 5.04286133 145.34960938 5.74414062 C146.12111328 6.22044922 146.89261719 6.69675781 147.6875 7.1875 C148.43966797 7.64447266 149.19183594 8.10144531 149.96679688 8.57226562 C154.92353339 11.61380352 159.68890477 14.86306139 164.43530273 18.22143555 C168.7645442 21.22367487 173.22815943 24.00886304 177.6875 26.8125 C205.27577084 44.29189609 205.27577084 44.29189609 212 51 C212.52722656 51.515625 213.05445313 52.03125 213.59765625 52.5625 C222.06548625 61.57175136 226.32418524 73.40083073 226.25396729 85.60609436 C226.25708727 86.44749275 226.26020725 87.28889114 226.26342177 88.15578645 C226.27136913 90.96208419 226.26509071 93.76816372 226.25878906 96.57446289 C226.26150051 98.59216437 226.26506231 100.60986486 226.26940918 102.62756348 C226.27852115 108.10107963 226.27499272 113.57452031 226.26865101 119.04803777 C226.26358001 124.78702701 226.26828597 130.52600989 226.27142334 136.26499939 C226.27506183 145.90966956 226.2702691 155.5543091 226.26074219 165.19897461 C226.24987947 176.32387637 226.25336781 187.44870469 226.264395 198.57360464 C226.27349704 208.14162002 226.27473827 217.70961339 226.26951766 227.2776317 C226.26641118 232.98449335 226.26595165 238.69132061 226.27259064 244.39818001 C226.27840518 249.77197036 226.27429258 255.14566701 226.26280212 260.51944733 C226.26017646 262.48250359 226.26088443 264.44556785 226.26532745 266.40862083 C226.3249777 295.46259937 221.06936244 325.31716112 201.6640625 348.046875 C199.84749768 350.10159161 199.84749768 350.10159161 198 353 C197.34 353 196.68 353 196 353 C195.75894531 353.58265625 195.51789063 354.1653125 195.26953125 354.765625 C186.82923317 369.62054962 161.98821735 377.90116106 146.3125 382.3125 C143.86608 382.95999559 141.47916215 383.51809721 139 384 C138.15453613 384.16785507 137.30907227 384.33571014 136.43798828 384.50865173 C124.18836918 386.58940978 111.89929069 386.28959017 99.51171875 386.265625 C97.03896547 386.26697525 94.56621246 386.26891878 92.09346008 386.27142334 C86.92857315 386.27435929 81.76375575 386.27012746 76.59887695 386.26074219 C70.02285292 386.24936674 63.44699254 386.25590496 56.87097454 386.26788712 C51.768751 386.27516254 46.66656536 386.27279156 41.56434059 386.26763153 C39.14177238 386.26630976 36.71920059 386.26789027 34.29663658 386.27259064 C8.83259493 386.31115648 -14.91172511 384.46078627 -38 373 C-39.18335938 372.42636719 -40.36671875 371.85273437 -41.5859375 371.26171875 C-62.51707005 360.27875369 -78.26104733 340.18010843 -85.71630859 317.85498047 C-88.54045127 308.73793255 -90.88746284 299.49284424 -92 290 C-92.08171542 289.33220961 -92.16343084 288.66441921 -92.24762249 287.97639275 C-93.26223229 278.53162856 -93.16352775 269.08462146 -93.17700195 259.59814453 C-93.18327737 257.64719525 -93.1899251 255.69624714 -93.19691467 253.74530029 C-93.2178182 247.37447928 -93.22829984 241.00365838 -93.23828125 234.6328125 C-93.24233306 232.43059146 -93.2464501 230.22837054 -93.25063133 228.02614975 C-93.26964788 217.68222127 -93.28388981 207.33829979 -93.2922433 196.99435723 C-93.3020217 185.08616709 -93.32837196 173.17816253 -93.36874419 161.27003777 C-93.39895308 152.04081289 -93.41371645 142.81164112 -93.41702431 133.58236778 C-93.41936799 128.08064684 -93.4282407 122.57912498 -93.45348549 117.07745743 C-93.47685697 111.90136215 -93.48096305 106.72559585 -93.47072411 101.54946136 C-93.47023095 99.658534 -93.47648575 97.76758991 -93.49028015 95.8767128 C-93.58049027 82.76997436 -92.61298757 71.16196975 -85.6875 59.625 C-85.15511719 58.70976562 -84.62273437 57.79453125 -84.07421875 56.8515625 C-78.17400064 48.74015153 -70.36448536 43.59835687 -62.0625 38.1875 C-60.84373573 37.38463015 -59.62531362 36.58124067 -58.40722656 35.77734375 C-51.45836315 31.20318342 -44.46109736 26.7099653 -37.37768555 22.34667969 C-32.97973334 19.634992 -28.66488652 16.81687712 -24.375 13.9375 C-13.99045316 6.98062203 -13.99045316 6.98062203 -9.25 3.875 C-8.37287354 3.28900024 -8.37287354 3.28900024 -7.47802734 2.69116211 C-4.73949781 0.90856498 -3.33974551 0 0 0 Z " fill="#FEFEFD" transform="translate(421,440)"/>
<path d="M0 0 C22.15788889 -0.12032643 22.15788889 -0.12032643 31.7265625 -0.14648438 C38.2126416 -0.16430055 44.69859163 -0.18519439 51.18457031 -0.22631836 C56.42363126 -0.259322 61.66255349 -0.27693782 66.90171051 -0.28463173 C68.88362049 -0.2901027 70.86552436 -0.30078161 72.84737396 -0.31719017 C89.27147319 -0.44755286 106.06007566 0.34286832 121.75 5.6875 C122.51965088 5.94168701 123.28930176 6.19587402 124.08227539 6.45776367 C149.946548 15.34154436 170.52285602 32.44476167 182.94091797 56.84912109 C193.80615627 79.23383545 195.47901929 103.36548421 195.46875 127.85546875 C195.47588629 129.97894989 195.48359003 132.10242919 195.49182129 134.22590637 C195.50513604 138.64195129 195.50689445 143.05781782 195.50097656 147.47387695 C195.49626395 151.9409475 195.51014251 156.40730907 195.54199219 160.87426758 C195.83250884 202.10402874 195.17738195 242.95000141 164.671875 274.32421875 C163.79015625 275.20722656 162.9084375 276.09023438 162 277 C161.28328125 277.72832031 160.5665625 278.45664062 159.828125 279.20703125 C138.97239224 299.08270138 108.08538102 306.12831062 80.05761719 306.15771484 C78.98998138 306.16279556 77.92234558 306.16787628 76.82235718 306.17311096 C74.516536 306.18376755 72.21070478 306.19240598 69.90486908 306.19923019 C66.25693939 306.21106708 62.60912555 306.23052836 58.96124268 306.25234985 C48.59399236 306.31383323 38.22675759 306.36812913 27.859375 306.40136719 C21.50880993 306.42227174 15.15846251 306.4575292 8.80802155 306.50212479 C6.38869022 306.51630532 3.96932046 306.52501183 1.54994965 306.52817917 C-1.82533216 306.53306947 -5.20003128 306.55617546 -8.57519531 306.58349609 C-9.57682709 306.58048996 -10.57845886 306.57748383 -11.61044312 306.5743866 C-12.52993744 306.58547958 -13.44943176 306.59657257 -14.39678955 306.60800171 C-15.19388966 306.61131186 -15.99098976 306.614622 -16.81224442 306.61803246 C-19.65190732 307.11381867 -20.98975853 307.9368933 -23 310 C-23.59680691 312.34147046 -23.59680691 312.34147046 -23.49879456 315.0211792 C-23.51316055 316.57722366 -23.51316055 316.57722366 -23.52781677 318.16470337 C-23.51320152 319.87126602 -23.51320152 319.87126602 -23.49829102 321.61230469 C-23.50380981 322.81094147 -23.50932861 324.00957825 -23.51501465 325.24453735 C-23.52435565 327.85262509 -23.52647075 330.4595544 -23.51642036 333.06752777 C-23.50086182 337.1948444 -23.5145372 341.32174761 -23.53245544 345.44903564 C-23.56329471 353.47092736 -23.56477683 361.49269315 -23.56280518 369.51463318 C-23.56141316 379.71091359 -23.57183451 389.90709621 -23.6113829 400.1033051 C-23.62384562 403.53137946 -23.62953335 406.95920212 -23.61987495 410.38729095 C-23.61063826 414.21503828 -23.61914555 418.04238609 -23.63110352 421.87011719 C-23.62338425 422.9997287 -23.61566498 424.12934021 -23.60771179 425.29318237 C-23.64634666 431.28861175 -23.96591083 435.76331398 -27 441 C-34.15816944 446.41504806 -42.51441084 445.56554326 -51.1015625 445.49609375 C-52.66759305 445.49624895 -54.23362398 445.49774141 -55.7996521 445.50050354 C-59.06940856 445.50188267 -62.33872377 445.489409 -65.60839844 445.46655273 C-69.78914326 445.438122 -73.96915842 445.44092455 -78.14995766 445.45364285 C-81.37914208 445.46061193 -84.60815918 445.45279756 -87.83732224 445.44038582 C-89.3786187 445.43588657 -90.91993321 445.43552112 -92.46123123 445.43945122 C-94.61726725 445.44237689 -96.77231225 445.42579545 -98.92822266 445.40405273 C-100.76400375 445.39594826 -100.76400375 445.39594826 -102.63687134 445.38768005 C-107.79457749 444.79313254 -110.79197607 443.28523981 -114.34661865 439.50338745 C-116.66871148 434.58305199 -116.52879539 430.3217946 -116.45410156 424.94580078 C-116.45468567 423.84277115 -116.45526978 422.73974152 -116.45587158 421.60328674 C-116.45309074 417.9669723 -116.42199708 414.33148329 -116.390625 410.6953125 C-116.38316265 408.17040454 -116.37746969 405.64549078 -116.37347412 403.12057495 C-116.35977586 397.16013447 -116.32826874 391.19995766 -116.28807616 385.23965251 C-116.24329772 378.45129253 -116.22135623 371.66291812 -116.20129442 364.87444711 C-116.15953411 350.91613501 -116.08922018 336.95808368 -116 323 C-115.22398437 322.83002502 -114.44796875 322.66005005 -113.6484375 322.48492432 C-110.09842273 321.70590948 -106.54921017 320.92329712 -103 320.140625 C-101.16888672 319.739646 -101.16888672 319.739646 -99.30078125 319.33056641 C-79.40276887 314.93418124 -60.30926667 307.91999158 -45 294 C-44.15179687 293.26910156 -43.30359375 292.53820312 -42.4296875 291.78515625 C-24.47463457 276.10798317 -9.87793589 255.13342067 -2.91113281 232.27148438 C-2.55271301 231.09791382 -2.19429321 229.92434326 -1.82501221 228.71520996 C-1.55275818 227.81919067 -1.28050415 226.92317139 -1 226 C-0.2315123 225.99191315 0.5369754 225.98382629 1.32875061 225.97549438 C8.63813867 225.89694123 15.94734424 225.8094785 23.25650883 225.71247292 C27.01252249 225.66292571 30.7685135 225.61659931 34.5246582 225.578125 C38.16230201 225.54073777 41.79973426 225.49424905 45.43719292 225.44193649 C46.81192683 225.42367148 48.18670557 225.40846566 49.56151009 225.39665604 C73.56971468 225.45802034 73.56971468 225.45802034 94 214.5 C100.84185683 205.70571085 102.11264349 193.40003345 102.14526367 182.61865234 C102.14862228 181.91674774 102.1519809 181.21484314 102.15544128 180.4916687 C102.16487593 178.18973987 102.16689095 175.88788442 102.16796875 173.5859375 C102.17118773 171.96798677 102.17455227 170.35003632 102.17805481 168.73208618 C102.18402828 165.34465868 102.18589667 161.95725661 102.18530273 158.56982422 C102.18520149 154.26322381 102.19882231 149.95678967 102.21607494 145.6502285 C102.22728528 142.3075793 102.22921915 138.96496907 102.22869301 135.62230301 C102.22986077 134.03654027 102.23421353 132.45077612 102.24202538 130.8650322 C102.30762771 116.16689975 102.35897432 100.86795781 92.35546875 89.05859375 C82.25558709 80.27895806 66.62916395 80.39589024 54.00390625 80.390625 C52.60931571 80.37657576 51.21474164 80.36078522 49.82019043 80.34326172 C44.7344647 80.2912367 39.64844207 80.27249554 34.5625 80.25 C17.4540625 80.12625 17.4540625 80.12625 0 80 C0 53.6 0 27.2 0 0 Z " fill="#FEFEFE" transform="translate(677,541)"/>
<path d="M0 0 C0.93827637 0.6662439 0.93827637 0.6662439 1.89550781 1.34594727 C2.51619141 1.71631104 3.136875 2.0866748 3.77636719 2.46826172 C4.42412109 2.87778076 5.071875 3.2872998 5.73925781 3.70922852 C6.48014648 4.1769165 7.22103516 4.64460449 7.984375 5.12646484 C8.78004883 5.63201904 9.57572266 6.13757324 10.39550781 6.65844727 C11.65476074 7.45641724 11.65476074 7.45641724 12.93945312 8.27050781 C21.41815676 13.65594973 29.84027056 19.12732223 38.25048828 24.61889648 C40.98677059 26.40553679 43.72421347 28.19038732 46.46191406 29.97485352 C54.26571884 35.06205958 62.06733388 40.15261883 69.86816406 45.24438477 C82.58640252 53.54448835 95.31796419 61.82325132 108.08691406 70.04516602 C111.62682588 72.32553729 115.15894063 74.61765302 118.68798828 76.91479492 C120.20488771 77.8982128 121.72492835 78.87679707 123.24755859 79.85131836 C139.88755186 90.5037556 153.24560273 101.11296175 157.89550781 121.34594727 C158.27244668 124.94653567 158.27733565 128.50226336 158.23608398 132.11987305 C158.23652206 133.14545822 158.23696014 134.1710434 158.2374115 135.22770691 C158.23533889 138.5824253 158.21208014 141.93662981 158.18847656 145.29125977 C158.18287518 147.63109057 158.17860764 149.97092491 158.1756134 152.3107605 C158.16420742 158.44280868 158.13477685 164.5746407 158.10150146 170.706604 C158.07070884 176.97437619 158.05708847 183.2421836 158.04199219 189.51000977 C158.00990302 201.78875011 157.95875825 214.06733065 157.89550781 226.34594727 C157.56550781 226.34594727 157.23550781 226.34594727 156.89550781 226.34594727 C156.68796875 225.53512695 156.48042969 224.72430664 156.26660156 223.88891602 C151.17757588 205.59823375 140.7467 196.14677228 125.33300781 186.28344727 C124.03487118 185.44372575 122.73718743 184.60330374 121.43994141 183.76220703 C112.76589464 178.1482453 104.04930671 172.59959797 95.3190918 167.07348633 C89.52212422 163.40056942 83.7860721 159.64944374 78.09130859 155.8203125 C74.05808302 153.11040156 69.99056536 150.46139331 65.89550781 147.84594727 C61.25271716 144.88023972 56.6543726 141.85798231 52.08300781 138.78344727 C44.25210872 133.52352661 36.29690536 128.46021363 28.33056641 123.40844727 C23.32564315 120.22494315 18.36077023 117.01169845 13.49707031 113.61547852 C12.68149658 113.05006348 11.86592285 112.48464844 11.02563477 111.90209961 C9.52413173 110.85343584 8.03230022 109.79072946 6.55249023 108.71166992 C3.37633175 106.50072762 1.68285889 105.35081949 -2.26074219 105.32641602 C-5.38728594 106.44733349 -7.70681552 107.79911432 -10.41699219 109.72094727 C-11.47273437 110.4518457 -12.52847656 111.18274414 -13.61621094 111.93579102 C-14.18259277 112.33008301 -14.74897461 112.724375 -15.33251953 113.13061523 C-18.42108862 115.24895319 -21.57815876 117.26021028 -24.72949219 119.28344727 C-32.20870369 124.10578676 -39.6588766 128.97194087 -47.10449219 133.84594727 C-56.43127341 139.9502971 -65.77188127 146.03214441 -75.13769531 152.07641602 C-80.72238755 155.68123226 -86.30227499 159.29347722 -91.88134766 162.90698242 C-93.37467271 163.87356027 -94.8684955 164.83936951 -96.36279297 165.80444336 C-106.50576778 172.35542752 -116.60765383 178.96801738 -126.66827393 185.64474487 C-127.86341673 186.43736519 -129.05932451 187.22883341 -130.25604248 188.01907349 C-146.02844788 198.44023594 -155.97643901 209.42570356 -160.10449219 228.34594727 C-160.43449219 228.34594727 -160.76449219 228.34594727 -161.10449219 228.34594727 C-161.17415865 214.97604283 -161.22738795 201.60618195 -161.2599287 188.23613262 C-161.27555062 182.02714795 -161.29672545 175.81828794 -161.33081055 169.609375 C-161.36352781 163.61174617 -161.38137131 157.61423687 -161.38912392 151.61652565 C-161.39464525 149.33411593 -161.40542684 147.05171238 -161.42168236 144.76935387 C-161.44362085 141.5599619 -161.44645225 138.35105705 -161.44506836 135.14160156 C-161.45585419 134.20867279 -161.46664001 133.27574402 -161.47775269 132.31454468 C-161.41230294 118.1867496 -155.99920492 104.26261971 -146.19042969 94.01391602 C-139.86972131 88.26089687 -132.31883503 83.87669963 -125.14208984 79.29370117 C-122.02504342 77.2950035 -118.92792885 75.26840473 -115.83496094 73.23266602 C-104.14717593 65.54193317 -92.39206327 57.96347149 -80.59008789 50.44946289 C-72.07977392 45.01207604 -63.67947103 39.42023101 -55.2913208 33.79742432 C-48.35550835 29.15031994 -41.40558357 24.54824202 -34.27319336 20.20678711 C-29.9370243 17.54941282 -25.71055572 14.74652245 -21.49902344 11.89672852 C-19.71283644 10.69696867 -17.92586109 9.49839119 -16.13870239 8.30007935 C-14.95529956 7.50142159 -13.7757664 6.69699789 -12.60031128 5.88668823 C-10.94996439 4.74949933 -9.28528125 3.63320207 -7.62011719 2.51782227 C-6.65364258 1.85878906 -5.68716797 1.19975586 -4.69140625 0.52075195 C-2.10449219 -0.65405273 -2.10449219 -0.65405273 0 0 Z " fill="#FEFEFD" transform="translate(489.1044921875,214.654052734375)"/>
<path d="M0 0 C22.67930341 -0.04010881 22.67930341 -0.04010881 32.36132812 -0.04882812 C38.96265468 -0.05480127 45.56396734 -0.06186078 52.1652832 -0.07543945 C57.48856191 -0.08632048 62.8118257 -0.0922879 68.13511467 -0.09487724 C70.16403373 -0.09672209 72.192952 -0.10032459 74.2218647 -0.10573006 C77.06793087 -0.11300968 79.91393576 -0.11398802 82.76000977 -0.11352539 C83.59511078 -0.11712067 84.43021179 -0.12071594 85.2906189 -0.12442017 C89.96629562 -0.11621896 94.38774688 0.22210416 99 1 C99 1.33 99 1.66 99 2 C96.68802845 2.19390729 94.3753971 2.37996367 92.0625 2.5625 C90.77472656 2.66691406 89.48695313 2.77132812 88.16015625 2.87890625 C87.11730469 2.91886719 86.07445312 2.95882812 85 3 C84.505 2.505 84.505 2.505 84 2 C81.44500691 1.87497358 78.91569358 1.81395823 76.35913086 1.79467773 C75.55919205 1.78477814 74.75925323 1.77487854 73.93507385 1.76467896 C71.27836108 1.73297082 68.6216304 1.70826992 65.96484375 1.68359375 C64.12780785 1.66303225 62.29077676 1.642036 60.45375061 1.62062073 C55.60895682 1.56531696 50.76411975 1.51594445 45.91925049 1.46777344 C40.1114298 1.40880717 34.30368854 1.3425337 28.49593353 1.27747345 C19.66400402 1.1793595 10.83202455 1.09057498 2 1 C2 26.74 2 52.48 2 79 C5.96 79 9.92 79 14 79 C14 79.33 14 79.66 14 80 C9.38 80 4.76 80 0 80 C0 53.6 0 27.2 0 0 Z " fill="#FFE6E2" transform="translate(677,541)"/>
<path d="M0 0 C4.667257 8.57875426 3.17988119 19.9894521 3.203125 29.5390625 C3.20736607 30.72321306 3.20736607 30.72321306 3.21169281 31.93128586 C3.22661369 36.11125768 3.2358873 40.29119563 3.24023438 44.47119141 C3.24570115 48.74397923 3.26971168 53.01644556 3.29820633 57.28913307 C3.31701499 60.61470387 3.32204794 63.9402001 3.32357025 67.26581955 C3.32655762 68.83877693 3.33444978 70.41173428 3.34775543 71.98463821 C3.42830934 82.24085045 2.90417271 92.08776713 0 102 C-0.99 102.99 -0.99 102.99 -2 104 C-1.125 96.375 -1.125 96.375 0 93 C0.09169534 90.03276394 0.12594642 87.08942724 0.11352539 84.12231445 C0.11367142 83.21479431 0.11381744 82.30727417 0.1139679 81.37225342 C0.11327061 78.36923848 0.10548676 75.36628537 0.09765625 72.36328125 C0.09579142 70.28248631 0.09436782 68.20169092 0.09336853 66.12089539 C0.08954849 60.6414977 0.07972255 55.16212648 0.06866455 49.68273926 C0.05843943 44.09253294 0.05386855 38.50232235 0.04882812 32.91210938 C0.03809985 21.94139462 0.02102955 10.97069951 0 0 Z " fill="#F97772" transform="translate(777,644)"/>
<path d="M0 0 C0.33 0 0.66 0 1 0 C1 32.01 1 64.02 1 97 C0.67 97 0.34 97 0 97 C-0.53341184 95.42085985 -1.05125763 93.83645613 -1.5625 92.25 C-1.85253906 91.36828125 -2.14257812 90.4865625 -2.44140625 89.578125 C-3.02079419 86.90402684 -2.95259173 85.53263908 -2 83 C-1.505 82.505 -1.505 82.505 -1 82 C-0.87497358 79.44500691 -0.81395823 76.91569358 -0.79467773 74.35913086 C-0.78477814 73.55919205 -0.77487854 72.75925323 -0.76467896 71.93507385 C-0.73297082 69.27836108 -0.70826992 66.6216304 -0.68359375 63.96484375 C-0.66303225 62.12780785 -0.642036 60.29077676 -0.62062073 58.45375061 C-0.56531696 53.60895682 -0.51594445 48.76411975 -0.46777344 43.91925049 C-0.41761889 38.97933075 -0.36190134 34.03947417 -0.30664062 29.09960938 C-0.19895754 19.39979349 -0.09753527 9.69992286 0 0 Z " fill="#FEF4F2" transform="translate(646,344)"/>
<path d="M0 0 C7.70212567 -0.02323393 15.40424768 -0.04097123 23.10640049 -0.05181217 C26.68333238 -0.0570169 30.26024018 -0.0640705 33.8371582 -0.07543945 C37.29308749 -0.08635433 40.74899369 -0.09229497 44.20493889 -0.09487724 C46.15629208 -0.09760713 48.10763607 -0.10540539 50.05897522 -0.11329651 C55.80924802 -0.11365823 61.34033581 -0.0600408 67 1 C67 1.33 67 1.66 67 2 C64.68802845 2.19390729 62.3753971 2.37996367 60.0625 2.5625 C58.77472656 2.66691406 57.48695313 2.77132812 56.16015625 2.87890625 C55.11730469 2.91886719 54.07445312 2.95882812 53 3 C52.505 2.505 52.505 2.505 52 2 C50.37420782 1.87718048 48.74322996 1.82217496 47.11303711 1.79467773 C46.07203354 1.77473251 45.03102997 1.75478729 43.95848083 1.73423767 C42.8262056 1.71752518 41.69393036 1.70081268 40.52734375 1.68359375 C39.37456436 1.66281265 38.22178497 1.64203156 37.03407288 1.62062073 C33.33527843 1.55500036 29.63641041 1.49618245 25.9375 1.4375 C23.43684121 1.39432665 20.93618999 1.35071276 18.43554688 1.30664062 C12.29044338 1.19930632 6.14526596 1.09756357 0 1 C0 0.67 0 0.34 0 0 Z " fill="#FFF0F0" transform="translate(709,541)"/>
<path d="M0 0 C2.50043087 0.92121137 3.69364104 1.83967073 5.375 3.875 C1.625 5 1.625 5 -0.625 3.875 C-3.07893363 4.19546309 -3.07893363 4.19546309 -5.75 4.8125 C-6.66007812 5.00714844 -7.57015625 5.20179688 -8.5078125 5.40234375 C-9.20648438 5.55832031 -9.90515625 5.71429688 -10.625 5.875 C-4.6976157 -0.22369599 -4.6976157 -0.22369599 0 0 Z " fill="#F95E57" transform="translate(488.625,319.125)"/>
<path d="M0 0 C0.33 0.99 0.66 1.98 1 3 C-0.26220093 5.04563599 -1.60287726 7.04402816 -3 9 C-3.69429379 10.3191582 -4.37530495 11.64649406 -5 13 C-5.66 13 -6.32 13 -7 13 C-5.58832253 7.73829306 -3.25149768 4.27828642 0 0 Z " fill="#FEECE6" transform="translate(340,312)"/>
<path d="M0 0 C5.15171623 -0.09038099 9.91913204 0.15318867 15 1 C15 1.33 15 1.66 15 2 C10.38 2.33 5.76 2.66 1 3 C0.67 2.01 0.34 1.02 0 0 Z " fill="#FEDFDC" transform="translate(761,541)"/>
<path d="M0 0 C1.125 1.75 1.125 1.75 2 4 C1.03284133 6.65968633 -0.41948242 8.62922362 -2 11 C-2.66 11 -3.32 11 -4 11 C-3.52269162 9.5410574 -3.04308958 8.08286504 -2.5625 6.625 C-2.29566406 5.81289063 -2.02882813 5.00078125 -1.75390625 4.1640625 C-1 2 -1 2 0 0 Z " fill="#F85E54" transform="translate(862,783)"/>
<path d="M0 0 C0.33 0.99 0.66 1.98 1 3 C0.00390625 4.82421875 0.00390625 4.82421875 -1.4375 6.6875 C-1.91058594 7.31011719 -2.38367188 7.93273437 -2.87109375 8.57421875 C-3.24363281 9.04472656 -3.61617187 9.51523437 -4 10 C-4.66 9.34 -5.32 8.68 -6 8 C-4.02 5.36 -2.04 2.72 0 0 Z " fill="#FA6458" transform="translate(628,780)"/>
<path d="M0 0 C0.66 0.33 1.32 0.66 2 1 C1.3125 2.9375 1.3125 2.9375 0 5 C-2.79597286 5.86029934 -5.07171074 6 -8 6 C-5.38485683 3.87961365 -2.80362384 1.86908256 0 0 Z " fill="#FEECEB" transform="translate(395,455)"/>
<path d="M0 0 C0 0.99 0 1.98 0 3 C-4.29 2.67 -8.58 2.34 -13 2 C-13 1.67 -13 1.34 -13 1 C-11.39602723 0.83147753 -9.7918131 0.66525114 -8.1875 0.5 C-7.29417969 0.4071875 -6.40085937 0.314375 -5.48046875 0.21875 C-3 0 -3 0 0 0 Z " fill="#FCE6DF" transform="translate(753,765)"/>
<path d="M0 0 C0.33 1.32 0.66 2.64 1 4 C0.34 4 -0.32 4 -1 4 C-1.66 5.32 -2.32 6.64 -3 8 C-3.99 8 -4.98 8 -6 8 C-4.02 5.36 -2.04 2.72 0 0 Z " fill="#FA6A5E" transform="translate(342,414)"/>
<path d="M0 0 C2 0 2 0 4.6875 2.25 C7 5 7 5 6.8125 7.3125 C6.4103125 8.1478125 6.4103125 8.1478125 6 9 C3.59927045 6.11912454 1.52708963 3.43595166 0 0 Z " fill="#FEEAEA" transform="translate(344,776)"/>
<path d="M0 0 C1.32 0.33 2.64 0.66 4 1 C1.47211993 3.79872437 -0.20411134 5.45773019 -4 6 C-4 5.34 -4 4.68 -4 4 C-3.01 4 -2.02 4 -1 4 C-0.67 2.68 -0.34 1.36 0 0 Z " fill="#FA6259" transform="translate(357,476)"/>
<path d="M0 0 C0.66 0.33 1.32 0.66 2 1 C-0.25 3.5625 -0.25 3.5625 -3 6 C-4.32 5.67 -5.64 5.34 -7 5 C-4.69 3.35 -2.38 1.7 0 0 Z " fill="#F9675F" transform="translate(413,366)"/>
</svg>
