<?xml version="1.0" encoding="UTF-8"?>
<svg id="Layer_2" xmlns="http://www.w3.org/2000/svg" viewBox="0 0 1351.85 199.87" height="250" width="250">
  <defs>
    <style>
      .cls-1 {
        fill-rule: evenodd;
      }

      .cls-1, .cls-2 {
        fill: #fff;
      }
    </style>
  </defs>
  <g id="Layer_3">
    <path class="cls-1" d="M223.85,128.16l-7.1-54.3c-.2-1.5-.9-2.9-1.9-4l-44.7-47.3c-1-1.1-2.4-1.9-4-2.2L65.45.16c-2.4-.5-4.8.2-6.6,1.8L2.35,53.36c-2,1.8-2.8,4.5-2.1,7l13.5,51.9c.7,2.7,2.9,4.7,5.7,5.3l22.1,4.5,25.3,14.6h.2l26.7,14.5,33.3,45.7c1.8,2.4,4.8,3.5,7.8,2.8l18.2-4.3c3.2-.8,5.5-3.5,5.7-6.7l.6-15.1,61.4-38.6c2.4-1.5,3.7-4.2,3.3-6.9l-.2.1ZM202.35,77.86l4.7,36.2-90.1-59.5,45.7-18.6,39.6,41.9h.1ZM69.85,15.66l70,14.1-41.1,16.7h-.1l-37.6,16.1,8.9-47-.1.1ZM26.95,104.36l-11.3-43.5L52.55,27.26l-8.7,46.1c-.6,3,.9,6.1,3.7,7.6l67.5,36.8-69.4-9.7-18.6-3.8-.1.1ZM136.15,184.66l-31.3-43.1c-.6-.9-1.5-1.6-2.4-2.1l-21.9-11.9,65,9.1-1,32.7-.5,13.4-7.9,1.8v.1ZM185.95,139.76l-26.2,16.4.8-25.5c0-2.7-1.4-5.2-3.8-6.5l-89.1-48.7,33.1-14.2,102.4,67.6-17.2,10.8h0v.1Z"/>
    <path class="cls-2" d="M1341.55,86.16c-5.2-3.9-10.6-5.8-16.1-5.8s-9,1.8-9,5.5,3.3,5.7,10,7.8l4.8,1.6c7.6,2.5,12.9,5.2,15.9,8.2,3.1,3,4.7,7.1,4.7,12.1s-2.5,12.1-7.4,16.3c-4.9,4.3-11.6,6.4-19.9,6.4s-10.6-1-15.9-3c-5.2-2-9.2-4.5-11.9-7.7l7.4-12.4c8.1,6.2,15,9.4,20.9,9.4s9.9-2.2,9.9-6.5-.8-3.3-2.4-4.4c-1.6-1.2-4.6-2.6-9.1-4.1l-8-2.7c-10.3-3.4-15.5-9.9-15.5-19.6s2.4-11,7.1-14.8c4.8-3.9,10.7-5.8,17.5-5.8,9.7,0,17.9,2.5,24.7,7.4l-7.8,12.1h.1Z"/>
    <path class="cls-2" d="M1215.45,38.76h18.2v30.7l-.3,8.1h.4c5.7-7.4,13.4-11.1,23-11.1s17.7,3.4,23.6,10.2c6,6.8,9,15.4,9,25.7s-3.1,18.6-9.4,25.4c-6.2,6.8-14.3,10.2-24.5,10.2s-17.4-3.7-22.6-11.2h-.3l-.4,9.9h-16.8V38.76h.1ZM1251.75,81.26c-5.5,0-10,1.9-13.5,5.8-3.4,3.9-5.1,9-5.1,15.5s1.8,11.1,5.3,15.3c3.6,4.2,8.2,6.2,13.9,6.2s10.2-2.1,13.5-6.2c3.4-4.2,5.1-9.3,5.1-15.3s-1.8-11.1-5.3-15.2-8.2-6.1-13.9-6.1Z"/>
    <path class="cls-2" d="M1181.35,128.86c-1.5,2.7-4.2,4.9-8,6.8-3.8,1.8-8.1,2.7-13.1,2.7-7,0-12.8-1.8-17.3-5.5-4.5-3.8-6.8-9.1-6.8-16s2.7-11.6,8.1-14.9c5.4-3.4,12.1-5.4,20.2-6l16.5-1.1v-1.8c0-8.6-5.1-12.9-15.3-12.9s-14.6,1.9-19.6,5.7l-5.5-11.6c8.2-4.8,17.1-7.2,26.9-7.2s18.7,2.7,24.3,8c5,4.8,7.5,12.4,7.5,22.7v39.3h-17.5l-.3-8-.1-.2ZM1168.75,106.56c-9.6.6-14.4,3.8-14.4,9.7s1,5.3,3.1,7.1c2.2,1.8,5.1,2.7,8.8,2.7,6.2,0,11.2-2.5,14.8-7.5v-12.6l-12.4.7.1-.1Z"/>
    <path class="cls-2" d="M1076.25,38.76h18.3v82.7h34.3v15.3h-52.6V38.76Z"/>
    <path class="cls-2" d="M1013.25,128.86c-1.5,2.7-4.2,4.9-8,6.8-3.8,1.8-8.2,2.7-13.1,2.7-7,0-12.8-1.8-17.3-5.5-4.5-3.8-6.8-9.1-6.8-16s2.7-11.6,8.1-14.9c5.4-3.4,12.1-5.4,20.2-6l16.5-1.1v-1.8c0-8.6-5.1-12.9-15.3-12.9s-14.6,1.9-19.6,5.7l-5.5-11.6c8.1-4.8,17.1-7.2,26.9-7.2s18.7,2.7,24.3,8c5,4.8,7.5,12.4,7.5,22.7v39.3h-17.5l-.3-8-.1-.2ZM1000.65,106.56c-9.6.6-14.4,3.8-14.4,9.7s1,5.3,3.1,7.1c2.2,1.8,5.1,2.7,8.8,2.7,6.3,0,11.2-2.5,14.8-7.5v-12.6l-12.4.7.1-.1Z"/>
    <path class="cls-2" d="M947.05,110.06c0,5.2.6,8.7,1.7,10.5,1.1,1.7,3.3,2.6,6.5,2.6s2.2,0,3.3-.3c1.1-.2,1.9-.4,2.4-.6l.9-.3,1,14.1c-4.5,1.5-9.2,2.3-13.9,2.3-7.1,0-12.2-1.8-15.4-5.4-3-3.7-4.5-10-4.5-18.9v-31.8h-10.2v-14.1h10.2v-19.6h18.1v19.6h15.9v14.1h-15.9v27.8h-.1Z"/>
    <path class="cls-2" d="M892.55,128.86c-1.5,2.7-4.2,4.9-8,6.8-3.8,1.8-8.1,2.7-13.1,2.7-7,0-12.8-1.8-17.3-5.5-4.5-3.8-6.8-9.1-6.8-16s2.7-11.6,8.1-14.9c5.4-3.4,12.1-5.4,20.2-6l16.5-1.1v-1.8c0-8.6-5.1-12.9-15.4-12.9s-14.6,1.9-19.6,5.7l-5.5-11.6c8.1-4.8,17.1-7.2,26.9-7.2s18.7,2.7,24.3,8c5,4.8,7.5,12.4,7.5,22.7v39.3h-17.5l-.3-8v-.2ZM879.85,106.56c-9.6.6-14.4,3.8-14.4,9.7s1,5.3,3.1,7.1c2.2,1.8,5.1,2.7,8.8,2.7,6.3,0,11.2-2.5,14.8-7.5v-12.6l-12.4.7.1-.1Z"/>
    <path class="cls-2" d="M752.55,38.76h31.4c15.7,0,28.1,4.1,37.2,12.4,10.4,9.1,15.6,21.3,15.6,36.5s-5.2,27.8-15.6,36.9c-9.2,8.1-21.6,12.2-37.2,12.2h-31.4V38.76ZM784.65,121.16c9.8,0,17.5-2.7,23.3-8.1,6.5-6.3,9.8-14.8,9.8-25.3s-3.3-19.2-9.8-25.6c-5.8-5.3-13.6-8-23.3-8h-13.6v66.9h13.6v.1Z"/>
    <path class="cls-2" d="M659.95,108.26c.9,5.3,3.1,9.3,6.8,12.1,3.7,2.7,8.2,4.1,13.6,4.1s8.2-.7,11.9-2.1c3.9-1.5,6.8-3.1,8.8-4.8l7.1,9.8c-2.7,2.7-6.6,5.3-11.9,7.7-5.3,2.3-11.7,3.4-19,3.4-10.6,0-19.3-3.1-26-9.2-6.7-6.2-10.1-14.8-10.1-25.6s3.4-19.6,10.2-26.4c6.9-6.9,15.4-10.4,25.4-10.4s18.6,3,24.7,9.1c6.2,6.1,9.2,13.8,9.2,23.2l-.3,9.2h-50.6l.2-.1ZM676.75,80.26c-5.1,0-9.2,1.6-12.2,4.7-2.9,3-4.5,6.9-4.8,11.5h33c-.4-10.8-5.7-16.2-15.9-16.2h-.1Z"/>
    <path class="cls-2" d="M610.25,38.76h18.1v98h-18.1V38.76Z"/>
    <path class="cls-2" d="M541.15,77.66h.3c5.1-7.4,12.7-11.2,22.9-11.2s17.7,3.4,23.6,10.2c6,6.8,9,15.4,9,25.9s-3.1,18.5-9.4,25.3c-6.2,6.8-14.3,10.2-24.4,10.2s-9.2-.9-12.5-2.6c-3.3-1.7-6.5-4.4-9.5-8h-.3c.2,4.5.3,8.2.3,11.4v23.9h-18.1v-94.7h18.5l-.3,9.7-.1-.1ZM559.15,81.26c-5.5,0-10,1.9-13.5,5.8-3.4,3.9-5.1,9-5.1,15.5s1.8,11.1,5.3,15.3c3.6,4.2,8.2,6.2,13.9,6.2s10.2-2.1,13.5-6.2c3.4-4.2,5.1-9.3,5.1-15.3s-1.8-11.1-5.3-15.2-8.2-6.1-13.9-6.1Z"/>
    <path class="cls-2" d="M472.75,138.36c-10.8,0-19.8-3.3-26.9-9.8-7-6.5-10.5-15.2-10.5-25.9s3.5-19.4,10.5-26c7.1-6.6,16.1-9.9,26.9-9.9s19.6,3.3,26.6,9.9c7.1,6.6,10.7,15.3,10.7,26s-3.6,19.3-10.7,25.9c-7,6.5-15.9,9.8-26.6,9.8ZM486.25,117.26c3.3-4,5-9,5-15.1s-1.7-11-5-14.9c-3.3-4-7.8-6-13.5-6s-10.3,2-13.6,6c-3.2,3.9-4.8,8.9-4.8,14.9s1.6,11.2,4.8,15.2c3.3,3.9,7.9,5.8,13.6,5.8s10.2-2,13.5-6v.1Z"/>
    <path class="cls-2" d="M375.95,108.26c.9,5.3,3.1,9.3,6.8,12.1,3.7,2.7,8.2,4.1,13.6,4.1s8.2-.7,11.9-2.1c3.9-1.5,6.8-3.1,8.8-4.8l7.1,9.8c-2.7,2.7-6.6,5.3-11.9,7.7-5.3,2.3-11.7,3.4-19,3.4-10.6,0-19.3-3.1-26-9.2-6.7-6.2-10.1-14.8-10.1-25.6s3.4-19.6,10.2-26.4c6.9-6.9,15.4-10.4,25.4-10.4s18.6,3,24.7,9.1c6.2,6.1,9.2,13.8,9.2,23.2l-.3,9.2h-50.6l.2-.1ZM392.75,80.26c-5.1,0-9.2,1.6-12.2,4.7-2.9,3-4.5,6.9-4.8,11.5h33c-.4-10.8-5.7-16.2-15.9-16.2h-.1Z"/>
    <path class="cls-2" d="M287.95,38.76h31.6c10.6,0,18.8,2.4,24.6,7.2,6.8,5.6,10.2,13,10.2,22.2s-3.4,16.7-10.2,22.3c-6.1,5.1-14.3,7.7-24.6,7.7h-12.9v38.6h-18.6V38.76h-.1ZM317.25,83.66c5,0,9.2-1.2,12.6-3.7,3.6-2.7,5.4-6.6,5.4-11.8s-1.9-8.8-5.8-11.6c-3-2.2-7.2-3.3-12.7-3.3h-10.4v30.4h10.9Z"/>
  </g>
</svg>