<svg xmlns="http://www.w3.org/2000/svg" width="250" height="250" fill="none"><g clip-path="url(#a)"><path fill="#1AB4D7" d="M124.503 221.632c53.643 0 97.129-43.039 97.129-96.132 0-53.092-43.486-96.132-97.129-96.132-53.642 0-97.128 43.04-97.128 96.132 0 53.093 43.486 96.132 97.128 96.132Z"/><path fill="#fff" d="m73.866 125.222 16.576-16.446a2.92 2.92 0 0 0 .856-2.067c0-1.622-1.332-2.939-2.972-2.939-.798 0-1.546.309-2.11.875l-16.562 16.383L53.02 104.62a2.987 2.987 0 0 0-2.097-.85c-1.637 0-2.97 1.316-2.97 2.937 0 .79.319 1.532.891 2.091l16.574 16.401-16.565 16.426a2.914 2.914 0 0 0-.9 2.105c0 1.622 1.333 2.938 2.97 2.938a2.96 2.96 0 0 0 2.096-.859l16.61-16.417 16.546 16.357c.587.601 1.344.92 2.151.92 1.638 0 2.97-1.317 2.97-2.939a2.9 2.9 0 0 0-.864-2.072l-16.566-16.436Zm98.54-.005c0 2.946 2.42 5.342 5.4 5.342 2.972 0 5.393-2.396 5.393-5.342 0-2.946-2.421-5.341-5.393-5.341-2.98 0-5.4 2.395-5.4 5.341Z"/><path fill="#fff" d="M162.172 125.22c0-8.53 7.01-15.47 15.629-15.47 8.615 0 15.627 6.94 15.627 15.47 0 8.528-7.012 15.465-15.627 15.465-8.619 0-15.629-6.937-15.629-15.465Zm-6.149 0c0 11.883 9.77 21.551 21.778 21.551s21.783-9.668 21.783-21.551c0-11.885-9.775-21.556-21.783-21.556-12.008 0-21.778 9.671-21.778 21.556Zm-1.541-21.187-.913-.003c-2.743 0-5.389.856-7.598 2.542a2.97 2.97 0 0 0-2.901-2.311 2.922 2.922 0 0 0-2.945 2.914l.01 36.303c.004 1.616 1.336 2.93 2.97 2.93 1.633 0 2.965-1.314 2.969-2.934l.002-22.321c0-7.44.687-10.445 7.126-11.241.595-.074 1.242-.062 1.245-.062 1.762-.06 3.014-1.258 3.014-2.878s-1.337-2.939-2.979-2.939m-57.029 17.638c0-.08.006-.164.01-.246 1.724-6.747 7.897-11.739 15.249-11.739 7.44 0 13.67 5.115 15.306 11.985H97.452Zm36.647-.555c-1.28-5.997-4.597-10.923-9.649-14.087-7.384-4.639-17.135-4.383-24.267.637-5.818 4.097-9.176 10.798-9.176 17.701 0 1.73.21 3.477.65 5.197 2.196 8.553 9.625 15.028 18.483 16.101 2.628.315 5.186.164 7.835-.515a21.555 21.555 0 0 0 6.509-2.749c2.107-1.34 3.867-3.108 5.571-5.223.034-.039.069-.074.103-.115 1.183-1.452.964-3.517-.336-4.502-1.096-.832-2.937-1.169-4.385.666-.312.439-.659.891-1.041 1.343-1.152 1.259-2.581 2.479-4.293 3.426a15.759 15.759 0 0 1-7.3 1.825c-8.639-.095-13.261-6.063-14.905-10.323a15.353 15.353 0 0 1-.663-2.471 5.505 5.505 0 0 1-.041-.453l30.999-.005c4.25-.088 6.538-3.057 5.906-6.453Z"/></g><defs><clipPath id="a"><path fill="#fff" d="M27 29h195v193H27z"/></clipPath></defs></svg>