<svg xmlns="http://www.w3.org/2000/svg" viewBox="21.2 6.98 64 64" width="64" height="64"><path d="M54.456 30.576s6.565 6.64 4.633 17.764c6.565-2.625 9.115-7.024 9.882-11.43 0 0 2.256-8.34 5.716-11.815-6.874 1.083-7.566-1.624-20.23 5.482m1.315 20.23c.158-.85 2.685-9.506-2.33-16.545-8.4-9.318-21.058-10.634-21.058-10.634 2.467 4.8 2.55 9.265 5.264 18.38 3.25 9.438 15.32 10.093 16.214 10.093.812 1.286 2.67 3.008 6.926 3.903l.474-2.256c-3.67-.752-5.016-2.188-5.5-2.97M43.935 39.104c-.978-3.16-3.693-8.476-6.9-11.28 0 0 9.544 2.52 15.04 20.403-5.2-1.572-7.408-6.708-8.16-9.137" fill="#2eb99b"/><path d="M33.73 20.874c-5.347 2.52-7.483 8.68-7.483 18.05 0 9.235 2.136 15.432 7.483 18.125l-.594 2.346C24.923 56.53 21.2 50.122 21.2 39.006s3.723-17.613 11.935-20.44zm39.542-2.3C81.477 21.386 85.2 27.8 85.2 39s-3.715 17.53-11.928 20.396l-.64-2.3c5.347-2.692 7.483-8.897 7.483-18.125 0-9.408-2.136-15.56-7.483-18.05z" fill="#4e555d"/></svg>
