<?xml version="1.0" encoding="UTF-8" standalone="no"?>
<svg
   xmlns:dc="http://purl.org/dc/elements/1.1/"
   xmlns:cc="http://creativecommons.org/ns#"
   xmlns:rdf="http://www.w3.org/1999/02/22-rdf-syntax-ns#"
   xmlns:svg="http://www.w3.org/2000/svg"
   xmlns="http://www.w3.org/2000/svg"
   xmlns:sodipodi="http://sodipodi.sourceforge.net/DTD/sodipodi-0.dtd"
   xmlns:inkscape="http://www.inkscape.org/namespaces/inkscape"
   id="Layer_1"
   viewBox="21.2 6.98 120 59.999999"
   version="1.1"
   sodipodi:docname="codefreshio-ar21.svg"
   width="120"
   height="60"
   inkscape:version="0.92.3 (2405546, 2018-03-11)">
  <metadata
     id="metadata39">
    <rdf:RDF>
      <cc:Work
         rdf:about="">
        <dc:format>image/svg+xml</dc:format>
        <dc:type
           rdf:resource="http://purl.org/dc/dcmitype/StillImage" />
        <dc:title>Artboard 1</dc:title>
      </cc:Work>
    </rdf:RDF>
  </metadata>
  <sodipodi:namedview
     pagecolor="#ffffff"
     bordercolor="#666666"
     borderopacity="1"
     objecttolerance="10"
     gridtolerance="10"
     guidetolerance="10"
     inkscape:pageopacity="0"
     inkscape:pageshadow="2"
     inkscape:window-width="1920"
     inkscape:window-height="1001"
     id="namedview37"
     showgrid="false"
     inkscape:zoom="4.4935262"
     inkscape:cx="22.932126"
     inkscape:cy="32.896965"
     inkscape:window-x="-9"
     inkscape:window-y="-9"
     inkscape:window-maximized="1"
     inkscape:current-layer="Layer_1" />
  <defs
     id="defs4">
    <style
       id="style2">.cls-1,.cls-3{fill:#2eb99b;}.cls-2{fill:#4e555d;}.cls-3{font-size:16.48px;font-family:Lato-Black, Lato;}</style>
  </defs>
  <title
     id="title6">Artboard 1</title>
  <g
     id="g910">
    <g
       transform="matrix(0.56139189,0,0,0.56139189,43.204997,31.488158)"
       id="g850">
      <path
         class="cls-1"
         d="m 69.35,-19.660001 c 0,0 8.73,8.83 6.16,23.6200001 8.73,-3.49000002 12.12,-9.34 13.14,-15.2000001 0,0 3,-11.09 7.6,-15.71 -9.14,1.44 -10.06,-2.16 -26.9,7.29"
         id="path8"
         inkscape:connector-curvature="0"
         style="fill:#2eb99b" />
      <path
         class="cls-1"
         d="m 71.1,7.2399991 v 0 c 0.21,-1.13 3.57,-12.64 -3.1,-22.0000001 -11.17,-12.39 -28,-14.14 -28,-14.14 3.28,6.37 3.39,12.32 7,24.4400001 4.32,12.55 20.37,13.42 21.56,13.42 1.08,1.7099999 3.55,3.9999999 9.21,5.1899999 l 0.63,-3 c -4.88,-1 -6.67,-2.9099999 -7.3,-3.9499999 m -15.74,-15.52 c -1.3,-4.2000001 -4.91,-11.2700001 -9.19,-15.0000001 0,0 12.69,3.35 20,27.1300001 -6.9,-2.09 -9.85,-8.92 -10.85,-12.15"
         id="path10"
         inkscape:connector-curvature="0"
         style="fill:#2eb99b" />
      <path
         class="cls-2"
         d="m 41.79,-32.560001 c -7.11,3.35 -9.95,11.54 -9.95,24.0000001 0,12.28 2.84,20.5199999 9.95,24.0999999 l -0.79,3.12 C 30.08,14.849999 25.13,6.3299991 25.13,-8.4500009 25.13,-23.230001 30.08,-31.870001 41,-35.630001 Z"
         id="path12"
         inkscape:connector-curvature="0"
         style="fill:#4e555d" />
      <path
         class="cls-2"
         d="m 94.37,-35.630001 c 10.91,3.75 15.86,12.28 15.86,27.1700001 0,14.89 -4.94,23.3099999 -15.86,27.1199999 l -0.85,-3.07 c 7.11,-3.58 9.95,-11.8299999 9.95,-24.0999999 0,-12.5100001 -2.84,-20.6900001 -9.95,-24.0000001 z"
         id="path14"
         inkscape:connector-curvature="0"
         style="fill:#4e555d" />
    </g>
    <g
       transform="translate(13.49461,22.196781)"
       id="g861">
      <path
         class="cls-2"
         d="m 31.45,36.169999 a 10,10 0 0 1 -3.82,0.66 c -3.22,0 -4.76,-1.4 -4.26,-4.93 0.46,-3.33 1.73,-4.69 5.09,-4.69 a 10.7,10.7 0 0 1 3.88,0.66 l -0.46,2 h -3 c -1.36,0 -1.82,0.46 -2,2.11 -0.24,1.82 0.07,2.15 1.4,2.15 a 27.15,27.15 0 0 0 3,-0.15 z"
         id="path16"
         inkscape:connector-curvature="0"
         style="fill:#4e555d" />
      <path
         class="cls-2"
         d="m 43.2,32.179999 c -0.5,3.44 -1.89,4.65 -5.39,4.65 -3.5,0 -5,-1.32 -4.47,-4.91 0.53,-3.59 1.88,-4.71 5.42,-4.71 3.54,0 4.94,1.36 4.43,5 m -6.38,0 c -0.26,1.88 -0.09,2.32 1.1,2.32 1.19,0 1.54,-0.57 1.83,-2.57 0.29,-1.91 0.09,-2.35 -1,-2.35 -1.09,0 -1.58,0.46 -1.89,2.61"
         id="path18"
         inkscape:connector-curvature="0"
         style="fill:#4e555d" />
      <path
         class="cls-2"
         d="m 53.82,36.609999 h -2.63 v -1.54 a 5.49,5.49 0 0 1 -3.58,1.76 c -2.13,0 -3.09,-1.51 -2.63,-5 0.5,-3.82 2,-4.61 4,-4.61 a 16.32,16.32 0 0 1 2.94,0.26 11.25,11.25 0 0 1 0.08,-1.88 l 0.31,-1.86 h 3.35 z m -3.47,-7.24 c -1.4,0 -1.73,0.29 -2,2.41 -0.22,1.66 -0.26,2.32 0.57,2.26 a 3.43,3.43 0 0 0 2.06,-1 l 0.5,-3.71 z"
         id="path20"
         inkscape:connector-curvature="0"
         style="fill:#4e555d" />
      <path
         class="cls-2"
         d="m 65.31,36.099999 a 10.78,10.78 0 0 1 -4.19,0.73 c -3.9,0 -5,-1.71 -4.61,-4.91 0.42,-3.8 2.15,-4.71 5.44,-4.71 3.6,0 4.56,1.2 4.26,3.29 -0.26,1.71 -1.41,2.21 -3.82,2.39 l -2.48,0.18 c 0,1 0.51,1.16 1.54,1.16 0.81,0 2.54,-0.09 3.64,-0.22 z m -3.66,-4.93 c 0.83,-0.07 1.27,-0.2 1.34,-1 0.06,-0.61 -0.18,-0.72 -1.1,-0.7 -1.12,0 -1.49,0.35 -1.78,1.84 z"
         id="path22"
         inkscape:connector-curvature="0"
         style="fill:#4e555d" />
      <path
         class="cls-1"
         d="m 73.4,24.889999 c -1.12,0 -1.58,0.26 -1.75,1.43 l -0.2,1.32 h 2.78 l -0.23,1.38 h -2.74 l -1.21,8.62 a 2.72,2.72 0 0 1 -2.92,2.63 18.8,18.8 0 0 1 -2.22,-0.15 l 0.28,-1.32 h 1.38 c 1.1,0 1.56,-0.26 1.73,-1.43 l 1.18,-8.34 h -1.6 l 0.12,-1.3 1.64,-0.09 0.22,-1.6 a 2.71,2.71 0 0 1 2.94,-2.61 21.54,21.54 0 0 1 2.63,0.13 l -0.29,1.32 z"
         id="path24"
         inkscape:connector-curvature="0"
         style="fill:#2eb99b" />
      <path
         class="cls-1"
         d="m 81.78,29.079999 h -0.5 c -1,0 -2,0.68 -3.55,1.82 l -0.79,5.72 h -1.78 l 1.27,-9 h 1.36 l -0.09,2.06 c 1.43,-1.47 2.83,-2.3 4,-2.3 h 0.48 z"
         id="path26"
         inkscape:connector-curvature="0"
         style="fill:#2eb99b" />
      <path
         class="cls-1"
         d="m 90.55,36.319999 a 11.82,11.82 0 0 1 -3.69,0.52 c -3.11,0 -4.17,-1.6 -3.73,-4.95 0.44,-3.35 1.71,-4.49 5,-4.49 2.94,0 3.66,1.1 3.4,2.91 -0.26,1.81 -1.37,2.42 -3.53,2.59 l -3.11,0.28 c 0,1.8 0.83,2.17 2.26,2.17 1,0 2.28,-0.11 3.31,-0.22 z m -2.55,-4.74 c 1.1,-0.07 1.58,-0.38 1.73,-1.41 0.17,-1.23 -0.46,-1.27 -1.89,-1.27 -1.82,0 -2.44,0.5 -2.83,3 z"
         id="path28"
         inkscape:connector-curvature="0"
         style="fill:#2eb99b" />
      <path
         class="cls-1"
         d="m 95.47,32.159999 c -1.29,-0.61 -1.89,-1.3 -1.73,-2.61 0.2,-1.71 1.43,-2.19 3.79,-2.15 a 29.82,29.82 0 0 1 3.84,0.31 l -0.22,1.25 c -1.14,0 -2.21,-0.07 -3.57,-0.09 -1.36,-0.02 -2,0 -2.11,0.79 -0.11,0.79 0.33,0.87 1.07,1.2 l 2.46,1.1 c 1.4,0.64 2,1.21 1.78,2.59 -0.27,2 -1.73,2.24 -4.25,2.24 a 22.75,22.75 0 0 1 -3.53,-0.23 l 0.2,-1.32 c 0.83,0.07 2,0.09 2.81,0.09 2.26,0 2.85,-0.18 3,-0.92 0.15,-0.74 -0.33,-0.77 -1.12,-1.14 z"
         id="path30"
         inkscape:connector-curvature="0"
         style="fill:#2eb99b" />
      <path
         class="cls-1"
         d="m 106.21,27.269999 a 19.52,19.52 0 0 1 -0.44,2.21 c 1.56,-1.38 2.87,-2.08 4.15,-2.08 a 2,2 0 0 1 2.13,2.56 l -1,6.69 h -1.76 l 0.86,-6.25 c 0.15,-1.12 -0.06,-1.45 -0.83,-1.45 -1.1,0 -2.17,0.75 -3.71,2 l -0.79,5.73 h -1.78 l 1.82,-12.87 h 1.76 z"
         id="path32"
         inkscape:connector-curvature="0"
         style="fill:#2eb99b" />
    </g>
  </g>
</svg>
