<svg xmlns="http://www.w3.org/2000/svg" id="Layer_1" x="0" y="0" version="1.1" viewBox="0 0 1060 1060" xml:space="preserve"><style>.st1{fill:#151f6d}</style><path fill="#f73ba0" d="M160.36 160.36C255.06 65.65 385.81 7 530 7v261.5c-72.1 0-137.47 29.33-184.82 76.68L160.36 160.36z"/><path d="M530 268.5c72.1 0 137.47 29.33 184.82 76.68S791.5 457.9 791.5 530H1053c0-144.19-58.65-274.94-153.36-369.64S674.19 7 530 7v261.5z" class="st1"/><path fill="#446cfc" d="M345.18 345.18C297.83 392.53 268.5 457.91 268.5 530c0 72.1 29.33 137.47 76.68 184.82C392.53 762.17 457.9 791.5 530 791.5V1053c-144.19 0-274.94-58.65-369.64-153.36S7 674.19 7 530s58.65-274.94 153.36-369.64l184.82 184.82z"/><path d="M791.5 791.5H1053V1053H791.5z" class="st1"/></svg>
