<svg viewBox="0 0 90 90" xmlns="http://www.w3.org/2000/svg"><defs><linearGradient x1="50%" y1="0%" x2="50%" y2="100%" id="a"><stop stop-color="#7136F9" offset="0%"/><stop stop-color="#4700EC" offset="100%"/></linearGradient></defs><g fill="none" fill-rule="evenodd"><path fill="url(#a)" d="M0 0h90v90H0z"/><path d="M21 35.425C21 21.443 31.107 11 45.406 11 59.594 11 70 21.443 70 35.619 70 49.507 59.972 59.85 44.92 59.85H33.297v18.39c0 .672-.094.759-.749.759h-10.8c-.662 0-.748-.095-.748-.758V35.425Zm36.703.095c0-7.384-4.54-13.024-12.297-13.024-7.86 0-12.11 5.652-12.11 12.93v12.932h11.635c8.232 0 12.772-5.462 12.772-12.838Z" fill="#FFF" fill-rule="nonzero"/></g></svg>
