<svg xmlns:xlink="http://www.w3.org/1999/xlink" width="132" height="132" viewBox="0 0 132 132" fill="none" xmlns="http://www.w3.org/2000/svg">
<path d="M94.2109 8.32498C94.2109 3.5489 97.8925 0 102.768 0C107.644 0 111.325 3.5489 111.325 8.32498V16.6168H107.146V8.32498C107.146 5.6716 105.256 3.8474 102.768 3.8474C100.281 3.8474 98.39 5.6716 98.39 8.32498V16.6168H94.2109V8.32498Z" fill="#3F48FD"></path>
<path d="M32.3447 11.4623C31.615 12.4241 30.421 12.8221 29.0943 12.8221C27.0379 12.8221 25.3464 11.6281 24.9152 9.73758H37.0544C37.1208 9.2069 37.1208 8.80889 37.1208 8.27822C37.1208 3.6348 33.7709 0.0527344 28.9285 0.0527344C24.0529 0.0527344 20.5703 3.6348 20.5703 8.34455C20.5703 13.1206 24.1855 16.6695 29.0943 16.6695C32.4774 16.6695 35.6614 14.6463 36.8554 11.4623H32.3447ZM25.0147 6.61985C25.2801 4.82882 27.0379 3.6348 28.9285 3.6348C30.8522 3.6348 32.411 4.79565 32.6764 6.61985H25.0147Z" fill="#3F48FD"></path>
<path d="M70.7895 5.12733C69.9272 2.07594 67.307 0.0527344 62.5972 0.0527344C58.1196 0.0527344 55.4331 2.20861 55.4331 5.26C55.4331 8.11238 57.3236 9.57174 60.9057 9.93658L64.0234 10.2351C65.6154 10.4009 66.4778 10.8321 66.4778 11.7276C66.4778 12.7226 65.2174 13.2201 63.6254 13.2201C61.4364 13.2201 59.9107 12.6231 59.4132 11.2633H54.9688C55.7316 14.7127 58.6503 16.6695 63.2937 16.6695C67.9372 16.6695 70.6569 14.4805 70.6569 11.4623C70.6569 8.44405 68.5342 6.98469 64.9853 6.68619L62.1329 6.45402C60.5077 6.32135 59.6122 5.92334 59.6122 5.06099C59.6122 4.09914 60.7067 3.50213 62.4977 3.50213C64.3883 3.50213 65.7149 3.99964 66.3451 5.12733H70.7895Z" fill="#3F48FD"></path>
<path d="M45.101 16.2328H40.9219V8.22569C40.9219 4.32577 43.3707 0.345703 49.2469 0.345703H52.207V4.32577H49.2137C46.5271 4.32577 45.101 6.05047 45.101 8.57119V16.2328Z" fill="#3F48FD"></path>
<path fill-rule="evenodd" clip-rule="evenodd" d="M8.55715 0.0527344C3.68157 0.0527344 0 3.60163 0 8.37772V23.3499H4.17908V16.6695H8.55715C13.4327 16.6695 17.1143 13.1206 17.1143 8.37772C17.1143 3.60163 13.4327 0.0527344 8.55715 0.0527344ZM12.9352 8.37772C12.9352 5.72434 11.0447 3.90014 8.55715 3.90014C6.06961 3.90014 4.17908 5.72434 4.17908 8.37772V12.8221H8.55715C11.0447 12.8221 12.9352 10.9979 12.9352 8.37772Z" fill="#3F48FD"></path>
<path fill-rule="evenodd" clip-rule="evenodd" d="M123.443 0.0527344C128.318 0.0527344 132 3.60163 132 8.37772V16.6695H127.821H123.443C118.567 16.6695 114.886 13.1206 114.886 8.37772C114.886 3.60163 118.567 0.0527344 123.443 0.0527344ZM119.065 8.37772C119.065 5.72434 120.955 3.90014 123.443 3.90014C125.93 3.90014 127.821 5.72434 127.821 8.37772V12.8221H123.443C120.955 12.8221 119.065 10.9979 119.065 8.37772Z" fill="#3F48FD"></path>
<path d="M82.1118 0.0527344C77.2363 0.0527344 73.5547 3.60163 73.5547 8.37772C73.5547 13.1206 77.2363 16.6695 82.1118 16.6695C86.9874 16.6695 90.669 13.1206 90.669 8.37772C90.669 3.60163 86.9874 0.0527344 82.1118 0.0527344ZM82.1118 3.90014C84.5994 3.90014 86.4899 5.72434 86.4899 8.37772C86.4899 10.9979 84.5994 12.8221 82.1118 12.8221C79.6243 12.8221 77.7338 10.9979 77.7338 8.37772C77.7338 5.72434 79.6243 3.90014 82.1118 3.90014Z" fill="#3F48FD"></path>
</svg>
