<svg version="1.1" id="Layer_1" xmlns="http://www.w3.org/2000/svg" xmlns:xlink="http://www.w3.org/1999/xlink" x="0px" y="0px"
	 width="100%" viewBox="0 0 1080 1080" enable-background="new 0 0 1080 1080" xml:space="preserve">
<path fill="#000000" opacity="1.000000" stroke="none" 
	d="
M1.000000,379.000000 
	C1.000000,252.681183 1.000000,126.862373 1.000000,1.021781 
	C360.943939,1.021781 720.887878,1.021781 1080.915894,1.021781 
	C1080.915894,360.902374 1080.915894,720.804749 1080.915894,1080.853516 
	C721.000061,1080.853516 361.000031,1080.853516 1.000000,1080.853516 
	C1.000000,847.111633 1.000000,613.305847 1.000000,379.000000 
M1000.830261,82.333923 
	C991.351257,72.494286 979.658264,68.005264 966.122192,68.003189 
	C923.710083,67.996681 881.297913,67.984055 838.885803,68.005936 
	C822.922668,68.014175 806.959595,68.110443 790.068787,68.027184 
	C681.039734,68.016960 572.010681,68.006279 462.981628,68.003563 
	C461.986786,68.003540 460.991913,68.109978 459.069244,68.027489 
	C343.485962,68.017097 227.902695,67.990631 112.319496,68.076935 
	C108.984306,68.079422 105.617249,69.141479 102.320625,69.939156 
	C80.778549,75.151619 67.668808,95.762520 67.899612,116.628456 
	C68.266167,149.767212 67.979973,182.912979 68.007965,216.055756 
	C68.026817,238.369507 68.111252,260.683197 68.020500,283.924591 
	C68.014748,340.803223 68.002174,397.681885 68.010651,454.560516 
	C68.011909,463.038940 68.112137,471.517365 68.021042,480.923706 
	C68.015320,548.623535 68.007744,616.323425 68.010780,684.023254 
	C68.010895,686.681213 68.112328,689.339111 68.022186,692.924988 
	C68.016228,763.454529 68.009491,833.984009 68.011086,904.513550 
	C68.011116,905.674500 68.112633,906.835449 68.023018,908.924500 
	C68.014854,929.084290 67.571281,949.256409 68.143806,969.399658 
	C68.560974,984.077332 75.135178,996.227234 87.138214,1004.935303 
	C95.831055,1011.241821 105.679352,1014.112000 116.549660,1014.056580 
	C156.032104,1013.855347 195.515747,1013.888550 235.926804,1013.975708 
	C342.288513,1013.982788 448.650208,1013.990356 555.011902,1013.990234 
	C556.007141,1013.990234 557.002319,1013.887939 558.925781,1013.975159 
	C694.407043,1013.982300 829.888245,1013.996704 965.369507,1013.955383 
	C968.795227,1013.954346 972.253906,1013.539612 975.641235,1012.979309 
	C998.315613,1009.229187 1013.833984,990.005798 1013.913635,967.958557 
	C1014.149048,902.801697 1014.001709,837.643494 1013.994934,772.485779 
	C1013.994690,770.656372 1013.889648,768.826965 1013.971436,766.069519 
	C1013.981873,708.361511 1013.997559,650.653503 1013.995178,592.945496 
	C1013.994934,586.629639 1013.889893,580.313721 1013.971008,573.069763 
	C1013.981506,512.531433 1013.995850,451.993164 1013.994995,391.454865 
	C1013.994934,386.635529 1013.889893,381.816162 1013.971619,376.068909 
	C1013.981323,334.671417 1014.006409,293.273926 1013.992615,251.876450 
	C1013.987610,236.917221 1013.889221,221.958008 1013.972595,206.070648 
	C1013.981934,177.269348 1014.035522,148.467926 1013.955383,119.666885 
	C1013.942627,115.080521 1013.692200,110.433380 1012.916443,105.923615 
	C1011.398010,97.097191 1007.554626,89.319511 1000.830261,82.333923 
z"/>
<path fill="#FF530B" opacity="1.000000" stroke="none" 
	d="
M1013.833374,573.997864 
	C1013.889893,580.313721 1013.994934,586.629639 1013.995178,592.945496 
	C1013.997559,650.653503 1013.981873,708.361511 1013.539551,766.565857 
	C1009.330200,768.767700 1005.436523,770.256897 1001.793579,772.212891 
	C972.920349,787.716003 944.108154,803.332825 915.250000,818.864014 
	C895.911804,829.271667 876.508667,839.558655 857.170959,849.967224 
	C828.166992,865.578857 799.208435,881.274841 770.204529,896.886719 
	C750.867065,907.295593 731.468384,917.590942 712.125366,927.989746 
	C677.837891,946.422607 643.562744,964.878418 609.301086,983.359192 
	C593.781616,991.730469 578.267029,1000.113098 562.861389,1008.690247 
	C560.895142,1009.784973 559.602356,1012.089417 557.997559,1013.833374 
	C557.002319,1013.887939 556.007141,1013.990234 555.011902,1013.990234 
	C448.650208,1013.990356 342.288513,1013.982788 235.593445,1013.600830 
	C241.728012,1009.529785 248.127289,1005.706970 254.675095,1002.158142 
	C295.345520,980.114929 336.035797,958.108337 376.746399,936.139404 
	C407.353668,919.622620 437.997070,903.172913 468.631744,886.706970 
	C509.087891,864.962158 549.559937,843.246948 589.978882,821.433167 
	C591.566040,820.576538 592.674011,818.832275 594.464844,817.404907 
	C655.908813,817.288391 716.893250,817.268677 777.877686,817.247375 
	C779.710388,817.246765 781.547607,817.308044 783.374939,817.204163 
	C788.671082,816.903137 791.913574,813.967041 791.939575,808.761780 
	C792.056152,785.434875 792.076416,762.106750 791.952820,738.780029 
	C791.920288,732.657959 788.788940,729.791565 782.653931,729.459167 
	C780.493835,729.342163 778.322754,729.423950 776.156677,729.421631 
	C765.492737,729.410278 754.826782,729.525574 744.165649,729.346802 
	C737.221680,729.230347 734.630005,727.047180 733.622253,721.001343 
	C736.761108,719.922302 739.670593,719.123840 742.266357,717.737732 
	C757.810242,709.437317 773.264771,700.969727 788.782166,692.619263 
	C807.815186,682.376892 826.893250,672.218079 845.929199,661.981079 
	C880.191711,643.555664 914.445618,625.114258 948.686157,606.648010 
	C963.756775,598.520325 978.643921,590.036499 993.901428,582.278809 
	C1000.273499,579.038818 1005.877563,573.549133 1013.833374,573.997864 
z"/>
<path fill="#FF7929" opacity="1.000000" stroke="none" 
	d="
M68.166580,479.995789 
	C68.112137,471.517365 68.011909,463.038940 68.010651,454.560516 
	C68.002174,397.681885 68.014748,340.803223 68.417679,283.369568 
	C70.634933,281.660278 72.394470,280.394318 74.284828,279.369690 
	C87.452774,272.232300 100.656517,265.161011 113.832497,258.038422 
	C146.038879,240.628372 178.212814,223.158157 210.446106,205.798111 
	C230.814148,194.828384 251.301147,184.079590 271.671722,173.114502 
	C308.891602,153.079758 346.046722,132.924667 383.263763,112.884651 
	C407.148956,100.023338 431.136353,87.350899 454.949188,74.357925 
	C457.113525,73.177025 458.336792,70.271385 459.997070,68.166702 
	C460.991913,68.109978 461.986786,68.003540 462.981628,68.003563 
	C572.010681,68.006279 681.039734,68.016960 790.374451,68.405029 
	C789.861816,69.316307 789.096191,70.197861 788.217407,70.330757 
	C775.803650,72.207932 765.759277,79.478371 755.079407,85.123665 
	C726.526123,100.216728 698.218933,115.774849 669.785217,131.095001 
	C650.583374,141.441025 631.310730,151.655472 612.109314,162.002228 
	C579.279175,179.692780 546.485596,197.451187 513.666138,215.161606 
	C487.878693,229.077286 462.046051,242.909958 436.339569,256.973358 
	C434.458099,258.002655 433.438019,260.606506 431.549164,262.517273 
	C388.831940,262.559998 346.583038,262.562683 304.334106,262.571045 
	C302.338898,262.571442 300.333313,262.502380 298.350464,262.673096 
	C293.085419,263.126373 290.064423,266.101074 290.045105,271.383026 
	C289.959503,294.835846 289.955597,318.289490 290.063934,341.742157 
	C290.088104,346.968384 293.242096,349.871887 298.536896,350.275208 
	C300.026093,350.388641 301.519714,350.443573 302.961151,350.844910 
	C300.884369,352.790863 299.051147,354.775696 296.801819,355.989349 
	C268.522705,371.247833 240.182693,386.393433 211.859848,401.570892 
	C192.928940,411.715393 173.929626,421.734985 155.087555,432.041931 
	C126.056847,447.922272 97.134750,464.001129 68.166580,479.995789 
z"/>
<path fill="#FF651A" opacity="1.000000" stroke="none" 
	d="
M68.166786,907.996399 
	C68.112633,906.835449 68.011116,905.674500 68.011086,904.513550 
	C68.009491,833.984009 68.016228,763.454529 68.430695,692.380066 
	C84.072609,683.634827 99.303741,675.430298 114.539871,667.235046 
	C140.920914,653.045288 167.308731,638.868103 193.687103,624.673340 
	C232.961624,603.539001 272.227936,582.389282 311.502563,561.255066 
	C342.277466,544.694763 373.030762,528.093689 403.875092,511.663544 
	C407.771057,509.588257 412.161987,508.442200 416.605988,507.025452 
	C421.014191,511.520447 425.001984,515.997498 429.289032,520.166870 
	C451.374023,541.645752 477.122742,558.207153 502.941589,574.638489 
	C518.908447,584.799866 535.060059,594.670959 550.937988,604.978271 
	C545.776733,608.216614 540.882996,611.289856 535.821289,614.055725 
	C519.974365,622.715271 504.100098,631.326660 488.161072,639.815186 
	C481.479095,643.373779 474.607880,646.577026 467.888641,649.591797 
	C472.373138,642.805725 476.660828,636.274719 481.246765,629.960327 
	C485.900879,623.552002 484.993530,618.428345 478.462250,613.971436 
	C460.325287,601.594849 442.236633,589.145996 424.226227,576.586182 
	C417.288910,571.748352 413.440765,572.059204 408.378845,578.694275 
	C387.132233,606.543518 370.787323,637.060364 360.036835,670.368408 
	C355.503876,684.412903 352.039764,698.886353 349.270142,713.390198 
	C346.919128,725.701965 343.707764,729.438293 331.304962,729.448669 
	C320.812927,729.457397 310.319336,729.347412 299.829407,729.497742 
	C292.880615,729.597351 290.028534,732.682373 290.008057,739.571289 
	C289.942200,761.717041 289.889832,783.862732 289.512939,805.807739 
	C288.791931,802.722717 288.253296,799.849426 288.019440,796.951599 
	C287.634979,792.187256 286.257477,791.268799 282.006104,793.536072 
	C268.642365,800.662964 255.323441,807.873962 241.990219,815.058105 
	C208.145645,833.293884 174.297424,851.522888 140.461609,869.774902 
	C125.082474,878.070862 109.772385,886.495850 94.347122,894.704712 
	C85.708923,899.301697 76.899216,903.576477 68.166786,907.996399 
z"/>
<path fill="#FF651A" opacity="1.000000" stroke="none" 
	d="
M1013.833496,206.998795 
	C1013.889221,221.958008 1013.987610,236.917221 1013.992615,251.876450 
	C1014.006409,293.273926 1013.981323,334.671417 1013.514648,376.536041 
	C1011.184265,377.567749 1009.152161,377.835846 1007.461243,378.741241 
	C980.750488,393.043610 954.102722,407.463745 927.400879,421.782898 
	C902.458252,435.158691 877.428711,448.372864 852.509277,461.791656 
	C816.013611,481.444153 779.608582,501.265228 743.113708,520.919312 
	C718.341553,534.260193 693.454834,547.388367 668.694397,560.750793 
	C665.544006,562.450867 662.848572,564.993835 659.632629,567.010376 
	C643.060913,551.663940 624.703674,539.472351 605.094238,529.045593 
	C582.098145,516.818054 558.835632,505.038971 536.332275,491.958221 
	C524.171448,484.889404 513.352661,475.512024 501.950256,466.786133 
	C503.083923,464.716980 503.805115,462.330627 505.367737,461.467316 
	C522.377930,452.069916 539.524841,442.920013 556.624634,433.684540 
	C572.408142,425.159912 588.114685,416.489807 603.983521,408.127228 
	C612.172424,403.811859 620.640320,400.025726 628.962769,396.360870 
	C620.225647,415.565552 609.709229,433.253204 595.813843,448.818848 
	C590.513916,454.755798 590.883362,459.872498 596.608704,463.843079 
	C597.831299,464.690948 599.232666,465.276367 600.521362,466.034302 
	C619.566895,477.235840 638.686890,488.314362 657.597351,499.739594 
	C662.830566,502.901337 666.307190,502.500549 670.844177,497.273651 
	C693.630859,471.021545 711.080994,441.677399 720.831970,408.183929 
	C724.930542,394.105896 727.896851,379.681763 730.974182,365.328400 
	C733.222717,354.840393 738.274170,350.367279 749.280273,350.346649 
	C760.433960,350.325714 771.588867,350.427704 782.740906,350.290649 
	C788.881897,350.215179 791.834717,347.089966 791.995728,340.981628 
	C792.100891,336.990906 792.114319,332.997833 792.474487,328.848450 
	C796.661194,324.027802 796.175781,318.405457 795.923645,312.978882 
	C795.701599,308.199799 797.513733,305.298584 801.746277,303.048462 
	C828.190796,288.989868 854.534241,274.740967 880.912109,260.556885 
	C920.772217,239.122971 960.629150,217.683105 1000.502686,196.274033 
	C1003.207825,194.821594 1006.039551,193.605042 1010.016663,191.702789 
	C1010.016663,196.084885 1010.035645,199.173218 1010.010864,202.261200 
	C1009.989685,204.905197 1010.740784,206.886261 1013.833496,206.998795 
z"/>
<path fill="#FF6E21" opacity="1.000000" stroke="none" 
	d="
M416.323608,506.865631 
	C412.161987,508.442200 407.771057,509.588257 403.875092,511.663544 
	C373.030762,528.093689 342.277466,544.694763 311.502563,561.255066 
	C272.227936,582.389282 232.961624,603.539001 193.687103,624.673340 
	C167.308731,638.868103 140.920914,653.045288 114.539871,667.235046 
	C99.303741,675.430298 84.072609,683.634827 68.502884,691.916138 
	C68.112328,689.339111 68.010895,686.681213 68.010780,684.023254 
	C68.007744,616.323425 68.015320,548.623535 68.093811,480.459747 
	C97.134750,464.001129 126.056847,447.922272 155.087555,432.041931 
	C173.929626,421.734985 192.928940,411.715393 211.859848,401.570892 
	C240.182693,386.393433 268.522705,371.247833 296.801819,355.989349 
	C299.051147,354.775696 300.884369,352.790863 303.424774,350.778870 
	C314.264801,350.381073 324.592255,350.268188 334.916901,350.389496 
	C342.769073,350.481750 347.330078,354.296875 349.032745,361.767731 
	C349.895905,365.554932 350.541748,369.404083 351.625854,373.126190 
	C355.240753,385.537598 359.004913,397.905548 362.720184,410.287659 
	C367.652374,426.725555 373.270691,442.976532 382.588928,457.455841 
	C393.377380,474.219543 405.040314,490.420410 416.323608,506.865631 
z"/>
<path fill="#FF5B12" opacity="1.000000" stroke="none" 
	d="
M68.094902,908.460449 
	C76.899216,903.576477 85.708923,899.301697 94.347122,894.704712 
	C109.772385,886.495850 125.082474,878.070862 140.461609,869.774902 
	C174.297424,851.522888 208.145645,833.293884 241.990219,815.058105 
	C255.323441,807.873962 268.642365,800.662964 282.006104,793.536072 
	C286.257477,791.268799 287.634979,792.187256 288.019440,796.951599 
	C288.253296,799.849426 288.791931,802.722717 289.579346,806.217285 
	C290.284088,814.974915 292.807068,817.254944 301.659973,817.255005 
	C396.951111,817.255615 492.242249,817.244446 587.533386,817.250488 
	C589.690674,817.250610 591.848022,817.414246 594.005310,817.501587 
	C592.674011,818.832275 591.566040,820.576538 589.978882,821.433167 
	C549.559937,843.246948 509.087891,864.962158 468.631744,886.706970 
	C437.997070,903.172913 407.353668,919.622620 376.746399,936.139404 
	C336.035797,958.108337 295.345520,980.114929 254.675095,1002.158142 
	C248.127289,1005.706970 241.728012,1009.529785 235.129501,1013.529602 
	C195.515747,1013.888550 156.032104,1013.855347 116.549660,1014.056580 
	C105.679352,1014.112000 95.831055,1011.241821 87.138214,1004.935303 
	C75.135178,996.227234 68.560974,984.077332 68.143806,969.399658 
	C67.571281,949.256409 68.014854,929.084290 68.094902,908.460449 
z"/>
<path fill="#FF5C13" opacity="1.000000" stroke="none" 
	d="
M659.942322,567.146301 
	C662.848572,564.993835 665.544006,562.450867 668.694397,560.750793 
	C693.454834,547.388367 718.341553,534.260193 743.113708,520.919312 
	C779.608582,501.265228 816.013611,481.444153 852.509277,461.791656 
	C877.428711,448.372864 902.458252,435.158691 927.400879,421.782898 
	C954.102722,407.463745 980.750488,393.043610 1007.461243,378.741241 
	C1009.152161,377.835846 1011.184265,377.567749 1013.445618,377.000000 
	C1013.889893,381.816162 1013.994934,386.635529 1013.994995,391.454865 
	C1013.995850,451.993164 1013.981506,512.531433 1013.902222,573.533813 
	C1005.877563,573.549133 1000.273499,579.038818 993.901428,582.278809 
	C978.643921,590.036499 963.756775,598.520325 948.686157,606.648010 
	C914.445618,625.114258 880.191711,643.555664 845.929199,661.981079 
	C826.893250,672.218079 807.815186,682.376892 788.782166,692.619263 
	C773.264771,700.969727 757.810242,709.437317 742.266357,717.737732 
	C739.670593,719.123840 736.761108,719.922302 733.519226,720.589539 
	C731.362488,710.561707 729.876648,700.898132 727.968079,691.318787 
	C721.853821,660.629517 711.277039,631.571960 692.917542,606.088379 
	C683.005310,592.329956 671.002136,580.078003 659.942322,567.146301 
z"/>
<path fill="#FF4A05" opacity="1.000000" stroke="none" 
	d="
M558.461670,1013.904297 
	C559.602356,1012.089417 560.895142,1009.784973 562.861389,1008.690247 
	C578.267029,1000.113098 593.781616,991.730469 609.301086,983.359192 
	C643.562744,964.878418 677.837891,946.422607 712.125366,927.989746 
	C731.468384,917.590942 750.867065,907.295593 770.204529,896.886719 
	C799.208435,881.274841 828.166992,865.578857 857.170959,849.967224 
	C876.508667,839.558655 895.911804,829.271667 915.250000,818.864014 
	C944.108154,803.332825 972.920349,787.716003 1001.793579,772.212891 
	C1005.436523,770.256897 1009.330200,768.767700 1013.470581,767.029907 
	C1013.889648,768.826965 1013.994690,770.656372 1013.994934,772.485779 
	C1014.001709,837.643494 1014.149048,902.801697 1013.913635,967.958557 
	C1013.833984,990.005798 998.315613,1009.229187 975.641235,1012.979309 
	C972.253906,1013.539612 968.795227,1013.954346 965.369507,1013.955383 
	C829.888245,1013.996704 694.407043,1013.982300 558.461670,1013.904297 
z"/>
<path fill="#FF7123" opacity="1.000000" stroke="none" 
	d="
M432.017456,262.478302 
	C433.438019,260.606506 434.458099,258.002655 436.339569,256.973358 
	C462.046051,242.909958 487.878693,229.077286 513.666138,215.161606 
	C546.485596,197.451187 579.279175,179.692780 612.109314,162.002228 
	C631.310730,151.655472 650.583374,141.441025 669.785217,131.095001 
	C698.218933,115.774849 726.526123,100.216728 755.079407,85.123665 
	C765.759277,79.478371 775.803650,72.207932 788.217407,70.330757 
	C789.096191,70.197861 789.861816,69.316307 790.838257,68.474731 
	C806.959595,68.110443 822.922668,68.014175 838.885803,68.005936 
	C881.297913,67.984055 923.710083,67.996681 966.122192,68.003189 
	C979.658264,68.005264 991.351257,72.494286 1000.648438,82.798546 
	C991.018127,88.169998 981.511536,92.968842 972.131714,98.003700 
	C942.682312,113.811417 913.285400,129.716660 883.858826,145.566956 
	C865.557739,155.424667 847.232056,165.236832 828.931213,175.094986 
	C799.651611,190.867096 770.385864,206.665070 741.109558,222.443314 
	C719.151489,234.277435 697.164429,246.058289 675.265442,258.000671 
	C673.545532,258.938568 672.416016,260.959137 670.544067,262.512634 
	C590.723145,262.525299 511.370300,262.501801 432.017456,262.478302 
z"/>
<path fill="#FF8130" opacity="1.000000" stroke="none" 
	d="
M459.533142,68.097092 
	C458.336792,70.271385 457.113525,73.177025 454.949188,74.357925 
	C431.136353,87.350899 407.148956,100.023338 383.263763,112.884651 
	C346.046722,132.924667 308.891602,153.079758 271.671722,173.114502 
	C251.301147,184.079590 230.814148,194.828384 210.446106,205.798111 
	C178.212814,223.158157 146.038879,240.628372 113.832497,258.038422 
	C100.656517,265.161011 87.452774,272.232300 74.284828,279.369690 
	C72.394470,280.394318 70.634933,281.660278 68.490601,282.905762 
	C68.111252,260.683197 68.026817,238.369507 68.007965,216.055756 
	C67.979973,182.912979 68.266167,149.767212 67.899612,116.628456 
	C67.668808,95.762520 80.778549,75.151619 102.320625,69.939156 
	C105.617249,69.141479 108.984306,68.079422 112.319496,68.076935 
	C227.902695,67.990631 343.485962,68.017097 459.533142,68.097092 
z"/>
<path fill="#FF6C20" opacity="1.000000" stroke="none" 
	d="
M671.012085,262.476471 
	C672.416016,260.959137 673.545532,258.938568 675.265442,258.000671 
	C697.164429,246.058289 719.151489,234.277435 741.109558,222.443314 
	C770.385864,206.665070 799.651611,190.867096 828.931213,175.094986 
	C847.232056,165.236832 865.557739,155.424667 883.858826,145.566956 
	C913.285400,129.716660 942.682312,113.811417 972.131714,98.003700 
	C981.511536,92.968842 991.018127,88.169998 1000.787964,83.108032 
	C1007.554626,89.319511 1011.398010,97.097191 1012.916443,105.923615 
	C1013.692200,110.433380 1013.942627,115.080521 1013.955383,119.666885 
	C1014.035522,148.467926 1013.981934,177.269348 1013.903076,206.534729 
	C1010.740784,206.886261 1009.989685,204.905197 1010.010864,202.261200 
	C1010.035645,199.173218 1010.016663,196.084885 1010.016663,191.702789 
	C1006.039551,193.605042 1003.207825,194.821594 1000.502686,196.274033 
	C960.629150,217.683105 920.772217,239.122971 880.912109,260.556885 
	C854.534241,274.740967 828.190796,288.989868 801.746277,303.048462 
	C797.513733,305.298584 795.701599,308.199799 795.923645,312.978882 
	C796.175781,318.405457 796.661194,324.027802 792.401245,328.384460 
	C792.014832,310.595612 792.005554,293.113373 792.000671,275.631165 
	C791.997620,264.605377 789.971130,262.574310 778.901062,262.564453 
	C742.938049,262.532379 706.975098,262.505432 671.012085,262.476471 
z"/>
<path fill="#FFFFFF" opacity="1.000000" stroke="none" 
	d="
M670.544067,262.512634 
	C706.975098,262.505432 742.938049,262.532379 778.901062,262.564453 
	C789.971130,262.574310 791.997620,264.605377 792.000671,275.631165 
	C792.005554,293.113373 792.014832,310.595612 792.095520,328.541809 
	C792.114319,332.997833 792.100891,336.990906 791.995728,340.981628 
	C791.834717,347.089966 788.881897,350.215179 782.740906,350.290649 
	C771.588867,350.427704 760.433960,350.325714 749.280273,350.346649 
	C738.274170,350.367279 733.222717,354.840393 730.974182,365.328400 
	C727.896851,379.681763 724.930542,394.105896 720.831970,408.183929 
	C711.080994,441.677399 693.630859,471.021545 670.844177,497.273651 
	C666.307190,502.500549 662.830566,502.901337 657.597351,499.739594 
	C638.686890,488.314362 619.566895,477.235840 600.521362,466.034302 
	C599.232666,465.276367 597.831299,464.690948 596.608704,463.843079 
	C590.883362,459.872498 590.513916,454.755798 595.813843,448.818848 
	C609.709229,433.253204 620.225647,415.565552 629.158447,396.051697 
	C631.948486,388.204712 634.586121,381.049072 637.082642,373.844513 
	C640.124146,365.067139 636.494019,355.966583 628.031372,352.344299 
	C624.783691,350.954224 620.938965,350.422424 617.364197,350.414307 
	C566.405640,350.298706 515.446838,350.331696 464.488068,350.370697 
	C462.172272,350.372467 459.827637,350.606628 457.546265,351.012543 
	C447.708923,352.762695 440.541931,365.870331 443.767883,373.862579 
	C447.388977,382.833862 449.414612,392.455780 453.122925,401.384003 
	C463.894257,427.317200 480.026367,449.424774 501.928467,467.176117 
	C513.352661,475.512024 524.171448,484.889404 536.332275,491.958221 
	C558.835632,505.038971 582.098145,516.818054 605.094238,529.045593 
	C624.703674,539.472351 643.060913,551.663940 659.632629,567.010376 
	C671.002136,580.078003 683.005310,592.329956 692.917542,606.088379 
	C711.277039,631.571960 721.853821,660.629517 727.968079,691.318787 
	C729.876648,700.898132 731.362488,710.561707 733.144897,720.598572 
	C734.630005,727.047180 737.221680,729.230347 744.165649,729.346802 
	C754.826782,729.525574 765.492737,729.410278 776.156677,729.421631 
	C778.322754,729.423950 780.493835,729.342163 782.653931,729.459167 
	C788.788940,729.791565 791.920288,732.657959 791.952820,738.780029 
	C792.076416,762.106750 792.056152,785.434875 791.939575,808.761780 
	C791.913574,813.967041 788.671082,816.903137 783.374939,817.204163 
	C781.547607,817.308044 779.710388,817.246765 777.877686,817.247375 
	C716.893250,817.268677 655.908813,817.288391 594.464844,817.404907 
	C591.848022,817.414246 589.690674,817.250610 587.533386,817.250488 
	C492.242249,817.244446 396.951111,817.255615 301.659973,817.255005 
	C292.807068,817.254944 290.284088,814.974915 289.898651,806.417969 
	C289.889832,783.862732 289.942200,761.717041 290.008057,739.571289 
	C290.028534,732.682373 292.880615,729.597351 299.829407,729.497742 
	C310.319336,729.347412 320.812927,729.457397 331.304962,729.448669 
	C343.707764,729.438293 346.919128,725.701965 349.270142,713.390198 
	C352.039764,698.886353 355.503876,684.412903 360.036835,670.368408 
	C370.787323,637.060364 387.132233,606.543518 408.378845,578.694275 
	C413.440765,572.059204 417.288910,571.748352 424.226227,576.586182 
	C442.236633,589.145996 460.325287,601.594849 478.462250,613.971436 
	C484.993530,618.428345 485.900879,623.552002 481.246765,629.960327 
	C476.660828,636.274719 472.373138,642.805725 467.614899,649.791626 
	C459.834625,668.145203 452.267395,685.898010 445.066254,703.798096 
	C443.717834,707.149902 442.597717,711.438354 443.511993,714.693665 
	C446.035400,723.678528 451.796692,729.496216 462.991730,729.476746 
	C514.982117,729.386169 566.972778,729.437256 618.963318,729.453125 
	C633.603088,729.457581 641.988159,717.479858 636.776062,702.938782 
	C633.649292,694.215576 629.380920,685.837097 624.990173,677.644226 
	C614.263977,657.629944 599.577698,640.871887 581.564575,627.094727 
	C571.557007,619.440491 561.282776,612.135010 551.128662,604.672424 
	C535.060059,594.670959 518.908447,584.799866 502.941589,574.638489 
	C477.122742,558.207153 451.374023,541.645752 429.289032,520.166870 
	C425.001984,515.997498 421.014191,511.520447 416.605988,507.025452 
	C405.040314,490.420410 393.377380,474.219543 382.588928,457.455841 
	C373.270691,442.976532 367.652374,426.725555 362.720184,410.287659 
	C359.004913,397.905548 355.240753,385.537598 351.625854,373.126190 
	C350.541748,369.404083 349.895905,365.554932 349.032745,361.767731 
	C347.330078,354.296875 342.769073,350.481750 334.916901,350.389496 
	C324.592255,350.268188 314.264801,350.381073 303.474945,350.459290 
	C301.519714,350.443573 300.026093,350.388641 298.536896,350.275208 
	C293.242096,349.871887 290.088104,346.968384 290.063934,341.742157 
	C289.955597,318.289490 289.959503,294.835846 290.045105,271.383026 
	C290.064423,266.101074 293.085419,263.126373 298.350464,262.673096 
	C300.333313,262.502380 302.338898,262.571442 304.334106,262.571045 
	C346.583038,262.562683 388.831940,262.559998 431.549164,262.517273 
	C511.370300,262.501801 590.723145,262.525299 670.544067,262.512634 
z"/>
<path fill="#FF5E15" opacity="1.000000" stroke="none" 
	d="
M550.937988,604.978271 
	C561.282776,612.135010 571.557007,619.440491 581.564575,627.094727 
	C599.577698,640.871887 614.263977,657.629944 624.990173,677.644226 
	C629.380920,685.837097 633.649292,694.215576 636.776062,702.938782 
	C641.988159,717.479858 633.603088,729.457581 618.963318,729.453125 
	C566.972778,729.437256 514.982117,729.386169 462.991730,729.476746 
	C451.796692,729.496216 446.035400,723.678528 443.511993,714.693665 
	C442.597717,711.438354 443.717834,707.149902 445.066254,703.798096 
	C452.267395,685.898010 459.834625,668.145203 467.548950,650.141602 
	C474.607880,646.577026 481.479095,643.373779 488.161072,639.815186 
	C504.100098,631.326660 519.974365,622.715271 535.821289,614.055725 
	C540.882996,611.289856 545.776733,608.216614 550.937988,604.978271 
z"/>
<path fill="#FF6D20" opacity="1.000000" stroke="none" 
	d="
M501.950256,466.786133 
	C480.026367,449.424774 463.894257,427.317200 453.122925,401.384003 
	C449.414612,392.455780 447.388977,382.833862 443.767883,373.862579 
	C440.541931,365.870331 447.708923,352.762695 457.546265,351.012543 
	C459.827637,350.606628 462.172272,350.372467 464.488068,350.370697 
	C515.446838,350.331696 566.405640,350.298706 617.364197,350.414307 
	C620.938965,350.422424 624.783691,350.954224 628.031372,352.344299 
	C636.494019,355.966583 640.124146,365.067139 637.082642,373.844513 
	C634.586121,381.049072 631.948486,388.204712 629.177734,395.691223 
	C620.640320,400.025726 612.172424,403.811859 603.983521,408.127228 
	C588.114685,416.489807 572.408142,425.159912 556.624634,433.684540 
	C539.524841,442.920013 522.377930,452.069916 505.367737,461.467316 
	C503.805115,462.330627 503.083923,464.716980 501.950256,466.786133 
z"/>
</svg>
