<svg width="200" height="200" viewBox="0 0 32 32" fill="none" xmlns="http://www.w3.org/2000/svg"><path d="M16.3236 1L17.7569 3.48479C17.9007 3.73688 17.9763 4.02199 17.9763 4.31209C17.9763 4.6022 17.9007 4.88731 17.7569 5.1394L9.28015 19.8935L13.2763 26.8498C13.5811 27.3881 14.0235 27.8359 14.5584 28.1475C15.0933 28.4591 15.7015 28.6233 16.3207 28.6233C16.94 28.6233 17.5481 28.4591 18.0829 28.1475C18.6179 27.8359 19.0604 27.3881 19.3651 26.8498L23.3612 19.8935L22.2806 18.0042L17.7569 25.9051C17.6118 26.1567 17.403 26.3656 17.1514 26.5108C16.8997 26.6561 16.6142 26.7325 16.3236 26.7325C16.0329 26.7325 15.7474 26.6561 15.4957 26.5108C15.2442 26.3656 15.0353 26.1567 14.8902 25.9051L11.4502 19.8935L19.3049 6.18999L20.7383 8.67193C20.8825 8.92436 20.9585 9.20999 20.9585 9.50066C20.9585 9.79133 20.8825 10.077 20.7383 10.3294L15.2428 19.8935L16.3236 21.76L22.2862 11.38L26.1936 18.1759C26.4881 18.6918 26.643 19.2753 26.643 19.8692C26.643 20.463 26.4881 21.0466 26.1936 21.5625L22.2203 28.4815C21.6069 29.5406 19.7321 31.9167 16.3149 31.9167C12.8979 31.9167 11.0346 29.5521 10.424 28.4815L6.45362 21.5768C6.15639 21.0592 6 20.473 6 19.8764C6 19.2798 6.15639 18.6934 6.45362 18.1759L16.3236 1Z" fill="#E81C1C"/></svg>
