<?xml version="1.0" encoding="UTF-8" standalone="no"?>
<svg
   id="Layer_1"
   data-name="Layer 1"
   viewBox="0 0 960 960"
   version="1.1"
   xmlns="http://www.w3.org/2000/svg"
   xmlns:svg="http://www.w3.org/2000/svg">
  <defs
     id="defs1">
    <style
       id="style1">
      .cls-1 {
        fill: #6e7276;
      }

      .cls-1, .cls-2, .cls-3, .cls-4, .cls-5, .cls-6, .cls-7, .cls-8 {
        stroke-width: 0px;
      }

      .cls-2 {
        fill: #fbbd07;
      }

      .cls-3 {
        fill: #ea4537;
      }

      .cls-4 {
        fill: #36a954;
      }

      .cls-5 {
        fill: #3b80ef;
      }

      .cls-6 {
        fill: #4486f4;
      }

      .cls-7 {
        fill: #34a853;
      }

      .cls-8 {
        fill: #fbbc04;
      }
    </style>
  </defs>
  <g
     id="g4"
     transform="matrix(1.6802968,0,0,1.6802968,-327.9014,-201.42564)">
    <path
       class="cls-8"
       d="M 702.59,435.75 511.01,627.33 c -17.48,17.48 -45.83,17.48 -63.3,0 -17.5,-17.48 -17.48,-45.83 0,-63.3 l 191.6,-191.6 c 17.48,-17.48 45.83,-17.48 63.3,0 17.48,17.5 17.48,45.83 -0.02,63.32 z"
       id="path1" />
    <circle
       class="cls-7"
       cx="479.35001"
       cy="595.67999"
       r="44.77"
       transform="rotate(-45,479.34776,595.67766)"
       id="circle1" />
    <path
       class="cls-8"
       d="m 544.96,278.09 -95.81,95.79 63.3,63.3 95.81,-95.79 c 17.48,-17.48 17.48,-45.83 0,-63.3 -17.5,-17.5 -45.83,-17.5 -63.3,0 z"
       id="path2" />
    <path
       class="cls-5"
       d="m 416.66,532.99 95.79,-95.79 -63.3,-63.3 -95.79,95.79 c -17.48,17.48 -17.48,45.83 0,63.3 17.48,17.48 45.83,17.48 63.3,0 z"
       id="path3" />
    <circle
       class="cls-7"
       cx="481.01999"
       cy="405.32001"
       r="44.77"
       id="circle3" />
    <path
       class="cls-5"
       d="m 513.91,247.04 -191.6,191.6 c -17.48,17.48 -45.83,17.48 -63.3,0 -17.48,-17.48 -17.48,-45.83 0,-63.3 l 191.6,-191.6 c 17.48,-17.48 45.83,-17.48 63.3,0 17.48,17.48 17.48,45.83 0,63.3 z"
       id="path4" />
    <circle
       class="cls-7"
       cx="482.23999"
       cy="215.39999"
       r="44.77"
       id="circle4" />
  </g>
</svg>
