<svg xmlns="http://www.w3.org/2000/svg" viewBox="246.2235 78.121 28.9999 24.0003" width="250" height="250">
  <path fill-rule="evenodd" clip-rule="evenodd" d="M 273.022 90.887 C 273.382 89.869 273.579 88.769 273.579 87.621 C 273.579 82.375 269.47 78.121 264.401 78.121 C 259.333 78.121 255.224 82.375 255.224 87.621 C 255.224 92.868 259.333 97.121 264.401 97.121 C 266.516 97.121 268.463 96.381 270.015 95.137 L 273.499 96.32 C 274.654 96.713 275.658 95.407 275.03 94.329 L 273.022 90.887 Z" fill="#5CC9FA"/>
  <g style="mix-blend-mode:multiply" transform="matrix(1, 0, 0, 1, 246.2235412597656, 78.1213150024414)">
    <path fill-rule="evenodd" clip-rule="evenodd" d="M4.29908 8C2.9459 8 1.84892 9.10528 1.84892 10.4687V19.3409L0.180991 22.1243C-0.406277 23.1043 0.532108 24.2921 1.61168 23.9351L6.87486 22.1951H16.5498C17.903 22.1951 19 21.0898 19 19.7264V10.4687C19 9.10528 17.903 8 16.5498 8H4.29908Z" fill="#8C1AF5"/>
  </g>
</svg>
