<svg width="1852" height="2197" viewBox="0 0 1852 2197" fill="none" xmlns="http://www.w3.org/2000/svg">
<mask id="mask0_511_449" style="mask-type:alpha" maskUnits="userSpaceOnUse" x="161" y="152" width="1481" height="1687">
<path d="M560 340L680 244L795 191L930 153H1113L1317 213L1482 329L1601 470L1641 712L1577 959L1429 1113L1268 1196L1214 1235L1303 1252L1382 1308L1411 1426L1424 1626L1469 1746L1458 1801L1411 1822L1336 1789L1285 1709L1250 1608L1223 1500L1207 1582L1170 1709L1089 1808L981 1831L881 1808L850 1746L875 1690L918 1637L993 1569L1039 1466L1029 1372L970 1466L928 1563L900 1637L841 1716L836 1795L753 1838L668 1816L631 1746L668 1653L753 1519L805 1372L726 1407L604 1383L502 1364L359 1426L222 1448L169 1414L162 1329L249 1235L404 1180L585 1196L708 1214L690 1188L604 1128L502 1002L426 850L404 706L426 562L480 446L560 340Z" fill="url(#paint0_linear_511_449)" stroke="black"/>
</mask>
<g mask="url(#mask0_511_449)">
<path d="M560 340L680 244L795 191L930 153H1113L1317 213L1482 329L1601 470L1641 712L1577 959L1429 1113L1268 1196L1214 1235L1303 1252L1382 1308L1411 1426L1424 1626L1469 1746L1458 1801L1411 1822L1336 1789L1285 1709L1250 1608L1223 1500L1207 1582L1170 1709L1089 1808L981 1831L881 1808L850 1746L875 1690L918 1637L993 1569L1039 1466L1029 1372L970 1466L928 1563L900 1637L841 1716L836 1795L753 1838L668 1816L631 1746L668 1653L753 1519L805 1372L726 1407L604 1383L502 1364L359 1426L222 1448L169 1414L162 1329L249 1235L404 1180L585 1196L708 1214L690 1188L604 1128L502 1002L426 850L404 706L426 562L480 446L560 340Z" fill="url(#paint1_linear_511_449)" stroke="black"/>
<g filter="url(#filter0_f_511_449)">
<ellipse cx="691.5" cy="745.5" rx="194.5" ry="142.5" fill="#D3A2FF"/>
</g>
<g filter="url(#filter1_f_511_449)">
<ellipse cx="1318.5" cy="688.5" rx="194.5" ry="142.5" fill="#D3A2FF"/>
</g>
</g>
<path d="M610 517L651 463L705 427L760 409L823 420L860 457L888 509L905 591L883 699L823 755L760 769L690 755L638 723L600 655L590 591L610 517Z" fill="#FFF0B4"/>
<path d="M986 448L1053 392L1110 376L1189 384L1247 416L1289 448L1325 518L1338 599L1312 677L1255 727L1181 744L1110 735L1048 702L998 656L959 583V508L986 448Z" fill="#FFF0B4"/>
<path d="M928 943L845 899V879H880L961 886L1020 879L1069 862L1126 840L1173 831V862L1131 928L1048 956L928 943Z" fill="white"/>
<ellipse cx="277.627" cy="1426.05" rx="53.6244" ry="36.2589" transform="rotate(-13.8646 277.627 1426.05)" fill="#9A76AC"/>
<ellipse cx="444.944" cy="1360.86" rx="61.1223" ry="31.7272" transform="rotate(-13.8646 444.944 1360.86)" fill="#9A76AC"/>
<ellipse cx="650.634" cy="1372.11" rx="57.0972" ry="30.1766" transform="rotate(10.4806 650.634 1372.11)" fill="#9A76AC"/>
<ellipse cx="1272.43" cy="1556.78" rx="44.4174" ry="30.1766" transform="rotate(66.4144 1272.43 1556.78)" fill="#9A76AC"/>
<ellipse cx="1324.26" cy="1712.44" rx="61.5017" ry="32.013" transform="rotate(66.4144 1324.26 1712.44)" fill="#9A76AC"/>
<ellipse cx="801.928" cy="509.812" rx="55" ry="76.0005" transform="rotate(-27.5787 801.928 509.812)" fill="white"/>
<ellipse cx="1205.07" cy="492.567" rx="60.9651" ry="81.4361" transform="rotate(-40.0568 1205.07 492.567)" fill="white"/>
<path fill-rule="evenodd" clip-rule="evenodd" d="M963.158 132.243C968.198 131.834 972.691 131.13 973.141 130.679C973.59 130.227 975.088 130.171 976.469 130.553C977.85 130.936 980.779 131.147 982.977 131.023C986.662 130.815 990.424 130.802 1008.46 130.935C1012.04 130.961 1019.46 130.962 1024.96 130.937C1030.45 130.912 1038.32 130.936 1042.45 130.992C1046.57 131.047 1051.74 131.047 1053.94 130.993C1056.14 130.938 1062.66 131.373 1068.43 131.96C1074.2 132.546 1085.45 133.433 1093.42 133.929C1101.39 134.426 1110.16 135.356 1112.91 135.996C1115.66 136.636 1121.28 137.541 1125.4 138.007C1129.52 138.473 1135.6 139.36 1138.89 139.979C1142.19 140.597 1147.59 141.499 1150.89 141.982C1154.19 142.466 1158.91 143.367 1161.38 143.985C1163.86 144.604 1167.68 145.448 1169.88 145.862C1172.08 146.276 1176.52 147.827 1179.74 149.308C1184.17 151.34 1187.18 152 1192.02 152C1196.44 152 1201.23 152.926 1207.52 155C1212.52 156.65 1217.31 158 1218.16 158C1219.9 158 1222.53 158.8 1233.34 162.623C1237.47 164.08 1242.64 165.636 1244.84 166.081C1254.81 168.099 1257.25 168.816 1262.73 171.325C1265.94 172.796 1269.21 174 1269.99 174C1270.78 174 1273.08 174.849 1275.12 175.888C1277.15 176.926 1281.52 179.162 1284.82 180.856C1288.11 182.551 1291.55 183.951 1292.44 183.969C1294.83 184.015 1301.17 186.777 1306.31 190.011C1308.78 191.568 1316.2 194.935 1322.8 197.494C1344.49 205.908 1357.62 212.992 1376.51 226.459C1379.12 228.318 1385.58 231.516 1390.86 233.565C1397.6 236.176 1402.87 239.12 1408.47 243.396C1412.86 246.753 1418.77 250.855 1421.6 252.51C1431.16 258.107 1440.72 264.795 1443.73 267.995C1445.38 269.746 1448.07 271.876 1449.7 272.729C1451.33 273.582 1455.16 276.636 1458.2 279.517C1461.23 282.397 1465.58 285.689 1467.84 286.832C1470.11 287.976 1473.26 290.317 1474.84 292.036C1476.42 293.754 1481.09 297.927 1485.21 301.31C1489.33 304.692 1494.51 309.49 1496.7 311.973C1501.07 316.903 1511.56 327.421 1517.76 333.086C1519.92 335.058 1524.61 339.954 1528.19 343.967C1531.76 347.98 1537.28 353.937 1540.45 357.206C1543.62 360.474 1547.09 364.868 1548.16 366.97C1549.23 369.072 1550.71 371.401 1551.45 372.146C1552.18 372.891 1554.76 376.425 1557.18 380C1559.59 383.575 1563.64 388.525 1566.17 391C1568.7 393.475 1572.74 398.425 1575.16 402C1577.58 405.575 1580.6 409.625 1581.87 411C1583.15 412.375 1586.04 417.1 1588.31 421.5C1590.58 425.9 1593.89 431.525 1595.67 434C1599.23 438.957 1603.15 446.305 1603.15 448.015C1603.15 448.617 1604.88 451.673 1607 454.805C1609.12 457.937 1611.42 462.3 1612.12 464.5C1614.09 470.706 1617 477.612 1622.22 488.5C1627.69 499.915 1631.13 508.417 1631.13 510.512C1631.13 511.303 1632.48 514.897 1634.13 518.5C1635.9 522.363 1637.13 526.72 1637.13 529.121C1637.13 531.421 1637.92 534.345 1638.95 535.846C1643.06 541.83 1647.09 552.876 1647.11 558.201C1647.12 561.842 1648.81 569.115 1651.23 576C1651.91 577.925 1652.76 584.675 1653.12 591C1653.65 600.174 1654.31 603.714 1656.37 608.5C1658.61 613.683 1659.11 616.882 1660.07 632C1660.68 641.625 1661.62 652.002 1662.15 655.06C1664.67 669.578 1662.72 737.537 1659.51 746.951C1658.6 749.634 1657.73 756.831 1657.41 764.5C1657.1 771.65 1656.45 778.275 1655.96 779.222C1655.06 780.983 1652.46 795.74 1651.16 806.5C1650.76 809.8 1649.24 815.548 1647.78 819.273C1646.32 822.998 1645.13 827.419 1645.13 829.097C1645.13 830.774 1643.99 835.537 1642.6 839.679C1641.21 843.822 1639.68 849.751 1639.21 852.856C1637.88 861.506 1635.46 869.398 1632.07 876.115C1630.38 879.471 1627.93 885.364 1626.63 889.212C1625.33 893.06 1623.2 897.848 1621.89 899.854C1618.3 905.385 1615.14 912.684 1615.14 915.466C1615.14 919.958 1606.99 939.09 1602.14 946C1601.17 947.375 1598.23 952.55 1595.61 957.5C1592.98 962.45 1590.07 967.625 1589.14 969C1588.21 970.375 1585.44 975.775 1582.98 981C1579.53 988.33 1577.2 991.756 1572.77 996C1568.77 999.842 1565.71 1004.11 1562.63 1010.17C1559.47 1016.41 1556.26 1020.85 1551.19 1025.99C1547.32 1029.92 1543.01 1035.37 1541.63 1038.1C1540.25 1040.83 1536.76 1045.42 1533.88 1048.28C1531.01 1051.15 1527.35 1055.58 1525.75 1058.12C1523.97 1060.95 1520.88 1063.93 1517.77 1065.82C1511.76 1069.47 1508.37 1072.41 1505.49 1076.5C1501.47 1082.2 1486.57 1096.7 1481.16 1100.19C1478.16 1102.11 1473.59 1105.71 1470.98 1108.18C1468.38 1110.65 1464.49 1113.25 1462.34 1113.96C1460 1114.74 1455.8 1117.8 1451.93 1121.56C1446.02 1127.3 1437.13 1133 1434.08 1133C1433.41 1133 1430.36 1134.96 1427.3 1137.36C1424.25 1139.76 1419.05 1143.09 1415.75 1144.76C1412.45 1146.42 1408.18 1149.18 1406.25 1150.88C1404.33 1152.58 1399.61 1155.31 1395.76 1156.94C1391.91 1158.57 1380.67 1163.91 1370.77 1168.8C1360.88 1173.68 1350.31 1178.48 1347.28 1179.45C1344.26 1180.43 1339.9 1182.3 1337.59 1183.62C1332.53 1186.52 1308.68 1197 1307.15 1197C1306.56 1197 1302.13 1198.78 1297.3 1200.95C1292.48 1203.12 1284.81 1206.1 1280.26 1207.58C1275.71 1209.05 1269.58 1211.33 1266.63 1212.63C1263.68 1213.93 1260.24 1215 1258.97 1215C1256.54 1215 1244.7 1219.5 1242.59 1221.22C1238.9 1224.25 1241.07 1225.08 1257.33 1226.88C1261.45 1227.34 1266.85 1228.45 1269.32 1229.34C1271.8 1230.24 1274.98 1230.98 1276.39 1230.98C1279.34 1231 1298 1236.9 1304.55 1239.88C1306.98 1240.99 1311.29 1242.81 1314.13 1243.93C1321.91 1247 1330.64 1251.58 1333.89 1254.31C1335.48 1255.64 1338.59 1257.62 1340.79 1258.71C1348.88 1262.72 1358.95 1269.46 1365.27 1275.11C1368.85 1278.3 1376.69 1285.09 1382.71 1290.2C1394.05 1299.84 1402.96 1310.29 1406.33 1317.91C1407.4 1320.34 1410.2 1324.39 1412.55 1326.91C1414.9 1329.44 1417.45 1333.07 1418.21 1335C1418.97 1336.92 1420.36 1339.62 1421.31 1341C1422.25 1342.37 1424.45 1348 1426.2 1353.5C1427.96 1359 1430.09 1365.52 1430.95 1368C1431.8 1370.47 1432.89 1374.75 1433.37 1377.5C1433.84 1380.25 1434.71 1385.2 1435.29 1388.5C1438.29 1405.45 1438.75 1438.43 1436.05 1443.22C1435.25 1444.65 1434.69 1449.98 1434.55 1457.5C1434.21 1475.81 1432.6 1496.98 1431.16 1502C1429.86 1506.54 1429.68 1511.03 1429.3 1549.84C1429.18 1562.16 1429.06 1567.48 1429.98 1572.6C1430.78 1577.03 1432.35 1581.32 1435.35 1589.84C1436.39 1592.77 1437.24 1597.33 1437.24 1599.95C1437.24 1603.12 1438.25 1606.95 1440.23 1611.34C1441.88 1614.98 1443.23 1618.56 1443.23 1619.3C1443.23 1620.04 1445.93 1626.46 1449.23 1633.57C1452.52 1640.68 1455.22 1647.05 1455.22 1647.73C1455.23 1650.07 1463.5 1669.52 1466.19 1673.5C1467.67 1675.7 1469.89 1680.2 1471.13 1683.5C1472.36 1686.8 1474.87 1692.45 1476.71 1696.06C1481.38 1705.25 1488.41 1726.24 1489.4 1734C1489.86 1737.57 1490.65 1744.55 1491.17 1749.5C1491.68 1754.45 1492.4 1760.25 1492.78 1762.38C1493.4 1765.96 1491.63 1773.68 1488.1 1782.8C1487.61 1784.06 1487.21 1786.46 1487.21 1788.14C1487.21 1791.75 1479.5 1807.02 1475.16 1812C1467.78 1820.47 1463.1 1824.82 1456.45 1829.37C1449.74 1833.98 1446.99 1835 1436.24 1836.93C1433.76 1837.37 1429.77 1838.47 1427.36 1839.37C1422.64 1841.13 1409.28 1841.61 1406.44 1840.12C1400.2 1836.84 1386.27 1831.26 1382.37 1836.93C1369.08 1828.97 1344.42 1814.44 1315.65 1799.72C1314.82 1798.44 1313.94 1797.19 1313 1796C1310 1792.2 1307.56 1788.16 1305.17 1784.21C1301.58 1778.26 1298.1 1772.5 1293 1768C1287.67 1763.3 1282.73 1750.73 1278.44 1739.79C1275.88 1733.29 1273.55 1727.36 1271.5 1724C1266.23 1715.38 1263.72 1698.52 1262.2 1688.32C1262.13 1687.87 1262.06 1687.43 1262 1687C1260.67 1678.14 1251.11 1653.6 1244.77 1637.34C1243.95 1635.24 1243.19 1633.27 1242.5 1631.5C1239.01 1622.47 1236.19 1610.06 1233.66 1598.89C1231.84 1590.88 1230.17 1583.51 1228.5 1578.5C1225.3 1568.9 1223.5 1534.17 1223 1518V1538C1223 1541.02 1219.84 1555.49 1216.9 1568.92C1214.49 1579.96 1212.23 1590.29 1212 1593C1211.64 1597.33 1206.85 1615.97 1203.84 1627.71C1202.68 1632.24 1201.78 1635.75 1201.5 1637C1200.5 1641.5 1192 1668.5 1188.5 1676C1187.21 1678.77 1185.44 1683.24 1183.39 1688.42C1179.9 1697.25 1175.6 1708.12 1171.5 1716C1168.55 1721.67 1166.84 1726.72 1165.24 1731.44C1163.31 1737.12 1161.55 1742.31 1158 1747.5C1154.38 1752.79 1142.95 1765.66 1132.97 1776.6C1082.75 1817.89 1036.58 1844.32 934.619 1840.12C909.513 1835.26 898.95 1823.4 889.784 1813.1C878.656 1800.6 869.587 1790.41 839.054 1797.9C831.503 1802.12 824.636 1806.03 818.319 1809.63C766.301 1839.26 751.499 1847.69 697.97 1836.93C622.139 1803.23 619.282 1787.08 613.848 1749.5C624.839 1747.88 623.169 1738.42 621.561 1729.3C620.823 1725.13 620.099 1721.02 620.613 1717.78C621.336 1713.23 622.993 1706.83 624.297 1703.58C625.6 1700.32 626.667 1696.89 626.667 1695.95C626.667 1693.3 629.188 1687.93 632.713 1683.08C634.479 1680.64 637.023 1676.14 638.366 1673.08C639.708 1670.01 642.726 1665.47 645.072 1663C647.418 1660.52 650.158 1656.26 651.163 1653.53C652.166 1650.79 654.88 1646.52 657.194 1644.03C659.506 1641.54 662.544 1637.25 663.944 1634.5C665.343 1631.75 669.943 1625.22 674.165 1620C678.386 1614.77 682.967 1608.25 684.343 1605.5C685.72 1602.75 688.52 1598.47 690.566 1596C692.612 1593.52 695.418 1589.02 696.804 1586C698.188 1582.97 700.934 1578.4 702.907 1575.83C706.982 1570.52 708.72 1567.24 710.536 1561.46C711.234 1559.23 713.565 1554.96 715.716 1551.96C717.869 1548.96 720.12 1545.37 720.72 1544C722.514 1539.88 726.455 1531.8 729.002 1527C734.798 1516.09 737.502 1510.19 738.632 1506C740.211 1500.14 744.813 1488.6 749.701 1478.23C751.845 1473.69 753.599 1469.27 753.599 1468.43C753.599 1467.58 755.398 1463.11 757.597 1458.5C759.796 1453.89 761.595 1449.62 761.595 1449.02C761.595 1448.42 762.458 1446.23 763.511 1444.16C764.565 1442.09 766.581 1436.38 767.992 1431.45C769.403 1426.53 772.138 1419.44 774.071 1415.7C778.606 1406.93 777.958 1401.03 773.004 1405.98C771.352 1407.64 753.355 1415.19 749.102 1416.01C746.903 1416.44 742.496 1417.51 739.308 1418.39C736.121 1419.28 731.446 1420 728.922 1420C726.397 1420 721.154 1420.95 717.272 1422.1C711.911 1423.7 708.758 1424.06 704.171 1423.6C692.746 1422.47 682.129 1421.08 677.64 1420.13C675.166 1419.61 670.625 1418.73 667.548 1418.17C664.472 1417.61 660.256 1416.44 658.181 1415.58C656.106 1414.71 652.227 1414 649.563 1414C646.581 1414 642.685 1413.08 639.44 1411.6C629.577 1407.12 626.427 1406 623.672 1406C619.904 1406 613.482 1403.62 608.969 1400.55C606.253 1398.71 603.908 1398 600.493 1398C597.222 1398 592.153 1396.57 583.984 1393.33C576.325 1390.29 569.745 1388.39 565.2 1387.89C561.352 1387.47 555.954 1386.66 553.206 1386.1C531.427 1381.65 528.794 1381.53 501.733 1383.83C491.218 1384.73 488.122 1385.37 479.745 1388.36C477.271 1389.25 473.989 1389.98 472.452 1389.98C470.914 1389.99 466.378 1391.8 462.372 1394C458.365 1396.2 454.31 1398 453.358 1398C452.408 1398 448.173 1399.62 443.948 1401.59C439.724 1403.57 433.57 1405.88 430.271 1406.72C426.973 1407.57 422.187 1409.78 419.634 1411.64C417.081 1413.49 413.116 1415.68 410.823 1416.49C408.529 1417.29 405.445 1418.81 403.969 1419.85C399.65 1422.9 389.013 1428 386.966 1428C385.931 1428 383.106 1429.49 380.692 1431.31C371.888 1437.93 356.913 1444.81 337.82 1450.99C334.797 1451.97 330.749 1453.45 328.825 1454.27C321.906 1457.22 318.065 1458 310.442 1458C303.828 1458 302.021 1458.39 298.086 1460.7C295.55 1462.19 291.422 1463.72 288.912 1464.11C286.403 1464.49 283.449 1465.1 282.35 1465.45C278.98 1466.54 275.793 1463.43 278.293 1461.5C279.361 1460.67 281.091 1460 282.138 1460C294.594 1460 323.449 1431.28 325.724 1416.62L326.327 1412.74L337.321 1408.57C343.368 1406.28 349.29 1403.87 350.482 1403.21C352.545 1402.08 361.451 1399.39 366.805 1398.29C368.179 1398 370.878 1396.55 372.802 1395.05C382.338 1387.62 392.963 1385.65 402.286 1389.57C414.798 1394.83 416.73 1395.24 426.231 1394.74C436.695 1394.19 443.637 1392.09 456.564 1385.6C461.596 1383.07 466.509 1380.99 467.482 1380.98C472.831 1380.94 484.145 1375.39 489.244 1370.31C493.544 1366.03 498.735 1355.54 498.735 1351.14C498.735 1346.2 499.806 1345.97 518.294 1346.97C544.478 1348.38 565.621 1351.99 574.911 1356.64C577.504 1357.94 581.381 1359 583.526 1359C585.672 1359 590.243 1359.9 593.684 1361C597.126 1362.1 600.802 1363 601.853 1363C604.317 1363 613.045 1371.16 615.018 1375.3C617.32 1380.14 622.596 1385.06 628.166 1387.55C630.915 1388.78 637.436 1391.74 642.658 1394.12L652.153 1398.45L664.147 1398.47C675.761 1398.49 676.424 1398.37 685.101 1394.74C695.016 1390.6 703.568 1389.85 714.906 1392.13C723.732 1393.9 738.508 1391.15 754.099 1384.84C756.848 1383.73 761.295 1382.21 763.983 1381.46C766.67 1380.72 770.044 1378.99 771.479 1377.62C772.914 1376.25 776.112 1374.25 778.586 1373.18C781.06 1372.11 784.433 1370.02 786.082 1368.54C787.731 1367.05 791.345 1364.13 794.114 1362.05C799.235 1358.19 802.543 1354.22 809.586 1343.5C815.706 1334.18 824.399 1321.86 827.574 1318C829.157 1316.07 832.388 1311.6 834.753 1308.05C841.259 1298.3 844.149 1298.94 839.054 1309C835.931 1315.17 835.931 1316.39 839.054 1317.82C843.094 1319.66 842.322 1327.65 837.108 1338C832.706 1346.73 825.548 1359.36 824.075 1360.98C822.327 1362.92 816.693 1377.72 815.504 1383.5C813.2 1394.72 811.162 1402.59 809.292 1407.5C805.268 1418.07 803.705 1422.78 803.163 1426C802.839 1427.92 801.187 1432.42 799.493 1436C797.799 1439.57 794.929 1446.77 793.117 1452C791.304 1457.22 789.351 1462.85 788.777 1464.5C786.335 1471.51 781.318 1486.84 780.102 1491C779.379 1493.47 777.393 1498.42 775.689 1502C773.984 1505.57 772.59 1508.98 772.59 1509.56C772.589 1510.14 771.12 1513.07 769.325 1516.06C767.53 1519.05 765.425 1523.52 764.648 1526C763.87 1528.47 762.253 1532.52 761.053 1535C759.854 1537.47 758.128 1541.78 757.218 1544.56C756.308 1547.34 754.019 1552.02 752.131 1554.95C750.243 1557.88 748.397 1561.68 748.027 1563.39C747.065 1567.85 743.097 1575.37 739.614 1579.34C737.966 1581.22 734.557 1586.75 732.04 1591.63C729.521 1596.51 725.972 1602.07 724.152 1604C722.332 1605.92 719.96 1609.52 718.882 1612C717.803 1614.47 714.913 1618.97 712.459 1622C707.384 1628.25 701.627 1636.52 701.627 1637.55C701.627 1638.69 693.169 1650.18 688.871 1654.87C686.669 1657.28 683.94 1661.1 682.807 1663.37C681.674 1665.64 679.098 1669.08 677.083 1671C675.068 1672.93 672.571 1676.45 671.533 1678.83C670.496 1681.21 668.064 1685.09 666.131 1687.45C664.198 1689.81 661.905 1694.17 661.038 1697.12C660.169 1700.08 658.638 1703.85 657.634 1705.5C651.652 1715.34 649.491 1740.6 653.674 1751.79C654.762 1754.7 655.651 1758.57 655.651 1760.4C655.651 1762.35 656.745 1765.32 658.307 1767.61C659.768 1769.75 662.281 1773.72 663.893 1776.44C668.721 1784.59 676.568 1793.51 683.61 1798.86C685.519 1800.31 688.595 1802.91 690.447 1804.64C692.298 1806.36 695.683 1808.54 697.97 1809.47C700.256 1810.4 703.465 1811.84 705.1 1812.66C712.408 1816.36 722.591 1819.08 724.753 1817.93C726.303 1817.1 727.511 1817.09 729.286 1817.9C733.35 1819.75 746.46 1819.24 752.6 1817C755.607 1815.9 759.993 1815 762.346 1815C765.251 1815 768.327 1814.04 771.936 1812C774.858 1810.35 777.893 1809 778.681 1809C780.091 1809 790.749 1800.85 795.511 1796.13C796.849 1794.81 799.998 1792.42 802.507 1790.84C805.475 1788.96 808.819 1785.37 812.068 1780.56C814.817 1776.49 819.196 1770.26 821.8 1766.72L826.535 1760.28L825.496 1751.89C824.165 1741.13 824.167 1739.54 825.525 1733.5C826.144 1730.75 826.873 1727.15 827.146 1725.5C827.636 1722.54 828.674 1718.3 830.827 1710.5C831.434 1708.3 832.746 1705.31 833.743 1703.85C834.74 1702.39 835.556 1700.58 835.556 1699.83C835.556 1697.7 842.201 1688.23 849.461 1680C853.101 1675.87 857.971 1669.95 860.282 1666.83C862.593 1663.71 867.308 1658.99 870.759 1656.34C874.21 1653.69 877.933 1650.77 879.033 1649.85C880.132 1648.93 883.055 1646.66 885.529 1644.8C890.781 1640.87 895.654 1634.02 898 1627.27C898.913 1624.65 902.401 1616.87 905.75 1610C909.1 1603.12 913.07 1594.12 914.573 1590C916.075 1585.87 918.209 1580.25 919.314 1577.5C920.42 1574.75 921.885 1570.92 922.57 1569C926.464 1558.06 932.107 1543.71 934.619 1538.36C936.204 1534.98 937.502 1530.81 937.502 1529.09C937.502 1527.33 939.692 1521.6 942.499 1516C945.247 1510.52 947.496 1505.05 947.496 1503.85C947.496 1502.65 948.846 1499.27 950.495 1496.35C952.144 1493.42 953.493 1489.7 953.493 1488.07C953.493 1486.45 953.881 1484.88 954.356 1484.58C955.359 1483.96 963.488 1467.72 963.488 1466.34C963.488 1465.82 965.287 1461.73 967.486 1457.24C969.684 1452.75 971.485 1448.5 971.487 1447.79C971.49 1447.08 972.838 1444.47 974.482 1442C976.126 1439.52 977.473 1437.09 977.476 1436.59C977.478 1436.08 980.06 1431.36 983.213 1426.09C986.366 1420.81 989.627 1415.28 990.459 1413.79C993.034 1409.18 997.822 1402.08 1001.15 1397.93C1002.9 1395.75 1005.56 1391.46 1007.05 1388.4C1008.55 1385.34 1010.78 1382.18 1012.02 1381.37C1013.25 1380.56 1014.79 1378.61 1015.45 1377.03C1016.1 1375.45 1018.22 1372.72 1020.16 1370.95C1023.48 1367.93 1023.64 1367.48 1023.06 1363.1C1022.19 1356.48 1024.32 1353.55 1029.33 1354.5C1031.32 1354.88 1035.4 1355.16 1038.39 1355.11C1048.05 1354.97 1049.79 1359.03 1043.85 1367.87C1041.22 1371.77 1040.39 1373.93 1040.76 1375.86C1041.41 1379.23 1044.13 1389.63 1046.56 1398.03C1047.59 1401.62 1048.44 1405.67 1048.44 1407.03C1048.44 1408.39 1049.21 1412.65 1050.14 1416.5C1051.41 1421.72 1051.93 1429.18 1052.18 1445.77L1052.51 1468.05L1049.48 1476.89C1047.81 1481.76 1046.44 1487.63 1046.44 1489.94C1046.44 1494.37 1042.76 1506.49 1039.45 1513C1038.37 1515.12 1036.31 1520.37 1034.87 1524.67C1033.43 1528.98 1031.84 1533.01 1031.33 1533.63C1030.82 1534.25 1028.8 1538.06 1026.83 1542.11C1024.87 1546.15 1021.98 1550.92 1020.42 1552.69C1018.87 1554.47 1016.8 1557.62 1015.84 1559.71C1014.88 1561.79 1012.93 1565.3 1011.5 1567.5C1010.07 1569.7 1008.24 1572.84 1007.43 1574.47C1006.63 1576.11 1003.01 1580.61 999.397 1584.47C995.785 1588.34 992.07 1592.62 991.143 1594C987.411 1599.53 960.524 1625.5 953.743 1630.12C949.758 1632.84 946.497 1635.43 946.497 1635.88C946.497 1637.51 936.876 1646.26 932.004 1649.05C929.256 1650.62 925.363 1653.7 923.353 1655.89C921.343 1658.07 917.745 1660.84 915.357 1662.03C911.134 1664.14 900.262 1674.75 892.744 1684.11C890.7 1686.65 887.296 1689.98 885.179 1691.5C879.719 1695.43 872.615 1705.63 867.5 1716.86C866.406 1719.27 864.619 1722.48 863.527 1724.02C860.573 1728.17 860.581 1751.2 863.541 1757C864.64 1759.16 865.54 1761.46 865.54 1762.12C865.54 1765.22 878.407 1779.95 885.529 1785C887.453 1786.36 890.239 1788.61 891.719 1789.99C898.668 1796.47 934.689 1813 941.87 1813C947.547 1813 949.385 1813.36 958.241 1816.2C967.547 1819.19 1004.08 1818.18 1011.83 1814.73C1013.96 1813.78 1017.57 1813 1019.86 1813C1022.14 1813 1024.94 1812.34 1026.09 1811.55C1029.24 1809.33 1036.53 1807.03 1040.45 1807.01C1042.84 1807 1045.01 1806.08 1047.31 1804.12C1049.16 1802.54 1052.53 1800.69 1054.8 1800.02C1057.08 1799.34 1059.97 1798.39 1061.23 1797.9C1062.49 1797.4 1064.4 1797 1065.47 1797C1066.54 1797 1069.87 1794.86 1072.87 1792.25C1078.9 1787 1088.37 1780.21 1092.77 1777.99C1096.96 1775.88 1117.74 1755.22 1120.94 1750C1122.45 1747.52 1125.22 1743.79 1127.09 1741.7C1128.96 1739.6 1131.02 1736.68 1131.67 1735.2C1132.31 1733.71 1134.52 1730.47 1136.56 1728C1138.61 1725.52 1141.83 1720.12 1143.71 1716C1145.6 1711.87 1148.78 1706.09 1150.77 1703.15C1152.76 1700.21 1154.39 1697.14 1154.39 1696.34C1154.39 1694.81 1164.07 1672.42 1167.44 1666.17C1168.53 1664.15 1169.9 1660.7 1170.49 1658.5C1171.08 1656.3 1172.94 1651.35 1174.62 1647.5C1176.3 1643.65 1178.04 1639.15 1178.47 1637.5C1178.91 1635.85 1179.77 1632.7 1180.38 1630.5C1181 1628.3 1181.87 1624.92 1182.32 1623C1183.36 1618.57 1185.83 1611.44 1189.44 1602.5C1191.11 1598.36 1192.46 1592.85 1192.73 1589C1193.32 1580.86 1194.7 1573.39 1196.34 1569.5C1199.68 1561.55 1200.52 1555.45 1204.35 1511.5C1204.87 1505.45 1205.78 1496.22 1206.36 1491C1206.94 1485.77 1207.42 1479.81 1207.43 1477.75C1207.45 1475.69 1207.47 1473.21 1207.48 1472.25C1207.73 1440.78 1206.77 1419.89 1204.43 1406.25C1203.84 1402.81 1203.01 1397.41 1202.59 1394.25C1202.16 1391.09 1201.47 1387.95 1201.05 1387.28C1200.63 1386.61 1201.2 1384.28 1202.32 1382.07C1205.18 1376.48 1204.54 1371.51 1200.11 1364.74C1198.1 1361.67 1197.84 1358.44 1199.52 1357.4C1202.16 1355.77 1216.04 1375.33 1221.59 1388.5C1223.68 1393.45 1226.5 1399.87 1227.86 1402.77C1229.23 1405.67 1230.35 1409.1 1230.35 1410.4C1230.35 1411.7 1231.09 1414.5 1232 1416.63C1232.92 1418.76 1234.06 1422.52 1234.55 1425C1235.04 1427.47 1235.89 1431.75 1236.45 1434.5C1237.51 1439.75 1238.71 1447.8 1240.19 1459.5C1240.67 1463.35 1241.65 1468.07 1242.36 1470C1243.07 1471.92 1244 1477.55 1244.42 1482.5C1244.85 1487.45 1245.9 1495.55 1246.76 1500.5C1247.63 1505.45 1248.75 1512.2 1249.26 1515.5C1249.76 1518.8 1250.5 1522.98 1250.89 1524.79C1251.46 1527.42 1250.93 1529.38 1248.25 1534.68C1241.6 1547.77 1245.92 1570.03 1257.12 1580.43C1262.42 1585.35 1263.35 1587.44 1264.29 1596.51C1264.78 1601.21 1266.54 1607.35 1269.65 1615.12C1274.91 1628.28 1280.32 1644.36 1280.32 1646.85C1280.32 1647.78 1281.25 1650.26 1282.38 1652.38C1287.85 1662.59 1289.6 1669.9 1289.93 1684C1290.26 1698.38 1291.77 1706.02 1295.21 1710.85C1296.36 1712.48 1297.31 1714.03 1297.31 1714.31C1297.31 1714.74 1303.24 1727.96 1306.59 1735C1311.25 1744.78 1332.64 1761 1340.88 1761C1343.68 1761 1344.52 1761.66 1347.13 1765.91C1348.79 1768.6 1352.09 1772.16 1354.46 1773.82C1356.84 1775.47 1360.8 1778.92 1363.28 1781.49C1365.75 1784.06 1370.02 1787.31 1372.77 1788.71C1375.52 1790.11 1378.89 1792.02 1380.27 1792.96C1381.64 1793.89 1385.34 1795.68 1388.48 1796.93C1391.62 1798.18 1396.25 1800.51 1398.77 1802.11C1402.6 1804.54 1403.7 1804.83 1405.47 1803.88C1406.83 1803.15 1410.95 1802.92 1416.89 1803.23C1444.26 1804.67 1458.39 1773.16 1445.48 1739.45C1444.42 1736.68 1443.24 1732.47 1442.87 1730.11C1442.49 1727.75 1441.31 1724.12 1440.26 1722.04C1439.2 1719.97 1437.8 1716.07 1437.14 1713.38C1436.49 1710.7 1434.44 1705.74 1432.58 1702.37C1430.72 1699 1428.5 1693.83 1427.63 1690.87C1426.76 1687.92 1424.64 1683.03 1422.9 1680C1416.04 1668.05 1412.8 1661.72 1407.12 1649.23C1406.06 1646.88 1404.79 1643.06 1404.31 1640.73C1403.83 1638.4 1402.28 1633.8 1400.87 1630.5C1399.46 1627.2 1398.29 1622.87 1398.28 1620.88C1398.27 1618.9 1397.45 1616.2 1396.47 1614.88C1392.49 1609.59 1392.13 1607.92 1389.09 1581C1386.31 1556.44 1385.58 1521.56 1387.72 1515.14C1388.72 1512.13 1389.45 1505.44 1389.72 1496.94C1390 1488.22 1390.74 1481.57 1391.84 1478C1392.78 1474.97 1393.61 1469.35 1393.68 1465.5C1393.77 1460.96 1394.65 1456.25 1396.15 1452.11C1398.23 1446.41 1398.35 1445.31 1397.21 1441.87C1396.32 1439.15 1396.1 1433.99 1396.47 1424.26C1397.7 1392.31 1395.58 1380.55 1382.37 1346.01C1381.21 1343 1380.27 1339.79 1380.27 1338.89C1380.27 1337.98 1379.53 1336.63 1378.62 1335.88C1377.72 1335.13 1372.41 1328.43 1366.84 1321.01C1354.52 1304.6 1351.1 1300.75 1345.28 1296.76C1342.81 1295.06 1338.71 1291.83 1336.17 1289.58C1327.58 1281.98 1323.53 1279.08 1318.16 1276.7C1315.21 1275.4 1309.65 1272.4 1305.81 1270.05C1301.96 1267.69 1295.89 1264.53 1292.31 1263.03C1288.74 1261.53 1281.54 1258.5 1276.32 1256.31C1264.22 1251.2 1252.83 1247.93 1243.39 1246.83C1239.29 1246.36 1234.26 1245.52 1232.21 1244.96C1230.05 1244.38 1222.18 1244.17 1213.55 1244.47C1199.8 1244.94 1192.61 1245.99 1174.72 1250.16C1165.51 1252.3 1160.94 1246.26 1167.13 1240.12C1169.63 1237.64 1180.52 1232.82 1189.37 1230.28C1191.29 1229.72 1194.89 1228.69 1197.36 1227.99C1208.11 1224.93 1211.15 1223.61 1220.23 1218.03C1225.52 1214.78 1233.53 1210.71 1238.04 1208.99C1242.55 1207.27 1247.94 1204.48 1250.03 1202.8C1252.12 1201.11 1256.24 1198.65 1259.18 1197.33C1262.13 1196.01 1267.19 1193.13 1270.43 1190.93C1273.67 1188.73 1280.26 1184.89 1285.07 1182.4C1289.88 1179.91 1295.84 1176.5 1298.31 1174.83C1305.44 1169.99 1324.57 1159 1325.84 1159C1326.48 1159 1328.37 1157.68 1330.06 1156.07C1331.74 1154.47 1340.96 1147.96 1350.55 1141.61C1360.14 1135.27 1369.49 1128.66 1371.33 1126.94C1375.71 1122.86 1381.94 1118.59 1386.29 1116.72C1388.2 1115.89 1391.78 1113.33 1394.26 1111.03C1396.73 1108.73 1400.33 1106.02 1402.25 1105.02C1404.18 1104.01 1408.45 1100.5 1411.75 1097.22C1415.05 1093.94 1420.3 1089.63 1423.42 1087.65C1426.54 1085.66 1430.9 1081.89 1433.11 1079.27C1435.33 1076.65 1439.52 1072.75 1442.43 1070.61C1445.35 1068.46 1449.53 1064.58 1451.73 1061.99C1453.93 1059.39 1457.03 1056.46 1458.62 1055.49C1460.22 1054.51 1463.9 1051.56 1466.8 1048.93C1469.7 1046.3 1473.01 1043.65 1474.15 1043.04C1475.28 1042.43 1477.47 1039.73 1479.01 1037.04C1481.87 1032.02 1493.98 1018.33 1504.77 1007.91C1508.11 1004.69 1512.08 999.615 1513.58 996.639C1515.09 993.662 1519.66 987.736 1523.75 983.469C1528.75 978.253 1531.19 974.929 1531.19 973.326C1531.19 969.672 1536.5 960.067 1541.6 954.5C1544.12 951.75 1546.47 948.6 1546.81 947.5C1547.16 946.4 1549.34 942.35 1551.66 938.5C1553.98 934.65 1557.34 928.125 1559.12 924C1563.74 913.267 1567.79 905.405 1572.33 898.329C1574.75 894.558 1577 889.308 1578.12 884.829C1579.12 880.798 1581.11 875.025 1582.54 872C1583.97 868.975 1585.14 865.145 1585.15 863.49C1585.16 860.772 1587.79 852.614 1594.19 835.5C1595.42 832.2 1596.78 827.925 1597.21 826C1597.64 824.075 1598.69 820.475 1599.54 818C1600.38 815.525 1601.6 810.125 1602.24 806C1602.88 801.875 1604.08 796.475 1604.91 794C1607 787.766 1608.18 781.783 1609.04 773C1609.45 768.875 1610.58 763.292 1611.56 760.593C1612.85 757.023 1613.42 751.847 1613.68 741.593C1613.88 733.842 1614.56 719.175 1615.2 709C1615.76 700.085 1616.07 695.301 1616.19 690.512C1616.36 684.059 1616.16 677.596 1615.72 661C1615.41 649.175 1614.86 638.825 1614.5 638C1612.34 633.074 1610.67 614.799 1612.02 610.918C1612.9 608.397 1612.64 606.742 1610.52 601.19C1607.85 594.239 1605.15 583.171 1605.15 579.22C1605.15 577.966 1603.95 574.141 1602.5 570.72C1599.49 563.651 1598.3 559.085 1597.25 550.5C1596.84 547.074 1595.37 542.399 1593.84 539.601C1592.36 536.907 1591.15 533.884 1591.15 532.884C1591.15 531.884 1588.91 525.592 1586.16 518.902C1583.41 512.212 1581.16 505.982 1581.16 505.059C1581.16 501.861 1576.36 491.134 1572.89 486.594C1570.98 484.087 1568.37 479.44 1567.09 476.268C1565.81 473.095 1562.61 467.18 1559.97 463.122C1557.33 459.064 1555.17 455.017 1555.17 454.129C1555.17 453.241 1552.47 448.612 1549.18 443.842C1545.88 439.072 1543.18 434.664 1543.18 434.046C1543.18 433.429 1540.54 429.003 1537.33 424.212C1534.11 419.42 1530.24 413.071 1528.74 410.102C1527.13 406.923 1522.45 401.116 1517.35 395.973C1512.59 391.171 1504.96 382.47 1500.38 376.638C1495.81 370.805 1491.08 365.238 1489.88 364.267C1488.68 363.295 1486.13 360.475 1484.21 358C1479.51 351.942 1477.86 350.378 1469.7 344.236C1465.85 341.34 1460.77 336.723 1458.4 333.975C1456.03 331.227 1451.71 327.448 1448.78 325.577C1445.86 323.706 1441.95 320.289 1440.1 317.984C1438.25 315.679 1435.39 313.106 1433.74 312.265C1432.09 311.425 1428.62 308.765 1426.02 306.354C1423.42 303.944 1420.27 301.578 1419 301.097C1417.74 300.617 1411.81 296.551 1405.84 292.063C1395.74 284.482 1392.04 282.093 1381.89 276.598C1379.75 275.444 1374.58 271.441 1370.39 267.703C1363.19 261.273 1356.73 257 1354.23 257C1353.61 257 1345.74 253.4 1336.73 249C1327.72 244.6 1320.13 241 1319.86 241C1319.59 241 1316.58 239.2 1313.18 237C1309.78 234.8 1306.57 233 1306.05 233C1305.54 233 1303.78 232.053 1302.16 230.895C1299.14 228.742 1289.87 225 1287.56 225C1286.85 225 1282.52 223.249 1277.93 221.109C1273.35 218.969 1268.07 216.898 1266.21 216.506C1264.35 216.114 1260.13 214.769 1256.83 213.516C1253.53 212.263 1248.59 210.661 1245.84 209.956C1243.09 209.251 1237.42 206.948 1233.23 204.837C1229.04 202.727 1224.8 201 1223.8 201C1221.74 201 1217.13 199.643 1209.79 196.872C1207 195.821 1201.26 194.357 1197.02 193.62C1192.52 192.838 1186.83 190.974 1183.33 189.14C1179.22 186.983 1175.95 186 1172.88 186C1168.79 186 1158.65 184.356 1147.39 181.866C1142.97 180.889 1137.89 179.875 1117.81 175.965C1112.26 174.884 1106.04 174 1103.99 174C1101.94 174 1096.59 173.131 1092.1 172.07C1087.6 171.008 1078.53 169.875 1071.93 169.552C1065.33 169.229 1057.01 168.495 1053.44 167.921C1049.87 167.346 1039.07 166.52 1029.45 166.085C1019.83 165.65 1010.96 164.954 1009.74 164.538C1008.49 164.111 1006.1 164.31 1004.25 164.997C1002.28 165.724 993.343 166.381 981.978 166.633C952.701 167.281 945.715 167.709 936.002 169.451C931.055 170.338 922.734 171.497 917.512 172.027C912.29 172.556 905.094 173.639 901.521 174.432C897.948 175.226 892.55 176.128 889.527 176.439C884.359 176.969 877.045 178.657 863.041 182.55C859.743 183.467 854.796 184.599 852.047 185.065C843.838 186.458 835.059 188.66 832.716 189.915C831.507 190.563 826.964 191.498 822.623 191.993C816.801 192.657 812.875 193.827 807.676 196.447C803.798 198.401 800.045 200 799.335 200C798.626 200 796.344 200.913 794.263 202.029C789.712 204.469 783.518 206.551 778.086 207.466C775.887 207.836 772.365 209.508 770.26 211.181C768.155 212.854 764.332 214.797 761.765 215.498C757.195 216.746 746.061 221.493 740.107 224.732C738.457 225.629 733.735 228.02 729.612 230.046C721.386 234.088 701.299 246.141 698.129 248.936C697.029 249.905 693.108 251.884 689.414 253.333C682.478 256.054 678.938 258.47 661.247 272.557C658.444 274.788 652.583 279.063 648.221 282.057C643.86 285.051 635.565 291.712 629.79 296.86C624.014 302.007 617.013 307.911 614.232 309.979C611.452 312.047 607.132 315.935 604.635 318.619C602.137 321.304 598.426 324.757 596.389 326.293C594.352 327.828 590.794 331.653 588.483 334.793C586.172 337.932 583.146 341.4 581.759 342.5C578.48 345.098 574.092 349.67 570.953 353.754C569.579 355.544 566.284 358.603 563.631 360.551C560.979 362.499 557.798 365.759 556.563 367.796C553.003 373.668 548.454 379.43 541.309 387.118C537.66 391.044 532.289 397.911 529.374 402.378C526.458 406.845 522.173 412.47 519.854 414.879C517.533 417.287 514.753 420.988 513.675 423.102C512.597 425.217 510.15 428.512 508.237 430.426C504.167 434.499 500.743 439.829 500.738 442.102C500.736 442.983 499.362 445.141 497.683 446.897C493.277 451.511 484.135 467.338 482.094 473.887C481.131 476.974 479.085 481.501 477.546 483.946C476.007 486.391 474.748 489.043 474.748 489.839C474.748 490.636 472.564 494.935 469.894 499.394C465.398 506.906 463.407 511.401 458.774 524.5C457.802 527.25 456.111 531.075 455.015 533C453.921 534.925 452.461 538.75 451.77 541.5C451.08 544.25 448.956 551.225 447.051 557C445.146 562.775 442.951 569.891 442.172 572.814C441.394 575.737 439.41 581.297 437.763 585.169C435.839 589.693 434.769 593.914 434.769 596.979C434.769 599.602 434.031 603.718 433.131 606.124C432.229 608.531 431.129 612.75 430.685 615.5C429.799 620.99 428.498 627.081 426.735 634C424.318 643.488 421.678 675.007 421.772 693.25C421.851 708.486 421.823 727.112 421.711 733.75C421.649 737.462 422.104 743.65 422.722 747.5C424.388 757.878 425.742 769.314 426.567 780C427.111 787.044 427.914 790.657 429.672 793.976C432.083 798.53 433.325 804.567 434.614 818C435.107 823.142 436.187 827.14 438.049 830.717C439.543 833.586 440.766 837.252 440.766 838.863C440.766 840.474 442.113 845.102 443.761 849.146C445.408 853.191 446.758 857.55 446.76 858.832C446.761 860.115 448.112 864.241 449.761 868C451.41 871.759 452.759 875.462 452.759 876.228C452.759 878.327 456.593 887.513 466.02 908C480.663 939.823 483.842 946.256 487.831 952.132C489.962 955.272 492.595 960.1 493.683 962.862C494.771 965.623 498.974 972.971 503.023 979.191C507.072 985.411 511.876 993.2 513.699 996.5C515.521 999.8 518.746 1004.48 520.866 1006.89C522.987 1009.31 524.721 1011.68 524.721 1012.17C524.721 1013.53 534.791 1028.05 538.398 1031.89C540.149 1033.75 542.934 1037.8 544.586 1040.89C546.24 1043.98 549.927 1048.98 552.782 1052C555.637 1055.03 559.136 1059.07 560.559 1061C561.981 1062.92 566.989 1068.78 571.685 1074C576.382 1079.23 582.787 1086.48 585.919 1090.11C592.132 1097.33 607.681 1113.15 614.799 1119.5C617.266 1121.7 620.568 1125.21 622.139 1127.31C623.709 1129.4 626.357 1131.82 628.022 1132.68C629.686 1133.54 633.323 1136.37 636.104 1138.95C638.884 1141.54 644.82 1146.42 649.294 1149.79C653.768 1153.16 658.045 1156.54 658.799 1157.29C659.552 1158.04 663.537 1161.06 667.655 1163.99C671.772 1166.92 675.816 1170.07 676.64 1171C677.465 1171.92 681.962 1175.42 686.635 1178.77C691.307 1182.12 696.929 1186.39 699.128 1188.25C701.327 1190.12 704.925 1192.96 707.124 1194.56C729.584 1210.96 722.895 1230.36 695.423 1228.49C684.125 1227.72 668.1 1224.55 659.376 1221.34C657.053 1220.49 652.003 1219.41 648.155 1218.95C644.307 1218.48 638.461 1217.62 635.162 1217.03C631.864 1216.44 626.917 1215.71 624.168 1215.41C619.564 1214.9 598.597 1210.36 589.187 1207.84C586.988 1207.25 581.504 1206.64 577.001 1206.48C572.498 1206.32 567.325 1205.74 565.507 1205.19C563.688 1204.63 558.153 1203.91 553.206 1203.59C544.37 1203.01 526.536 1200.92 513.727 1198.96C510.154 1198.41 501.608 1197.72 494.737 1197.44C487.866 1197.15 479.545 1196.68 476.247 1196.4C456.068 1194.68 407.827 1197.28 387.794 1201.18C384.77 1201.76 379.598 1202.64 376.3 1203.12C358.522 1205.71 345.626 1209.34 326.327 1217.2C323.578 1218.32 319.305 1219.83 316.832 1220.55C309.763 1222.62 296.932 1228.57 290.356 1232.83C287.051 1234.97 281.316 1238.11 277.609 1239.81C273.9 1241.5 269.403 1243.99 267.614 1245.33C265.824 1246.68 262.083 1248.92 259.299 1250.31C256.517 1251.7 253.606 1253.61 252.832 1254.54C252.058 1255.47 248.239 1258.39 244.346 1261.02C240.452 1263.64 236.117 1267.3 234.71 1269.15C233.304 1270.99 229.065 1275.42 225.29 1279C207.895 1295.48 199.808 1304.72 195.459 1313.1C191.725 1320.29 186.756 1329.58 185.057 1332.54C178.784 1343.46 176.877 1351.77 176.24 1370.96C175.912 1380.83 175.758 1384.65 177.074 1387.88C177.943 1390.01 179.453 1391.87 181.977 1395.05C193.05 1408.96 197.325 1413.21 202.892 1415.81C205.916 1417.23 209.474 1419.08 210.799 1419.94C212.124 1420.8 216.172 1422.64 219.794 1424.04C226.345 1426.57 226.383 1426.61 226.958 1431.04C228.389 1442.05 232.402 1449.47 239.836 1454.86C246.192 1459.46 254.301 1462 262.681 1462C268.705 1462 270.141 1462.79 267.608 1464.7C255.153 1474.09 196.887 1461.46 179.124 1445.52C176.529 1443.19 172.579 1440.35 170.345 1439.21C161.283 1434.6 145.923 1413.84 145.923 1406.2C145.923 1405.18 144.732 1401.45 143.277 1397.92C136.743 1382.06 136.669 1353.17 143.128 1340C144.612 1336.97 146.493 1332.47 147.31 1330C150.815 1319.37 163.112 1299.21 171.408 1290.48C174.015 1287.74 177.275 1283.73 178.653 1281.57C183.848 1273.42 205.69 1251.37 213.43 1246.47C216.704 1244.39 221.251 1240.99 223.535 1238.92C225.819 1236.84 231.622 1232.52 236.43 1229.32C241.239 1226.12 248.1 1221.47 251.678 1219C263.145 1211.07 268.897 1207.71 275.354 1205.18C278.102 1204.1 283.398 1201.82 287.122 1200.11C290.846 1198.4 294.165 1197 294.495 1197C294.825 1197 297.791 1195.63 301.085 1193.95C307.161 1190.87 324.434 1184.51 330.824 1183.01C332.748 1182.56 335.896 1181.68 337.82 1181.05C341.063 1180 343.752 1179.34 354.312 1177C359.95 1175.74 365.647 1174.32 370.303 1173C377.199 1171.04 384.857 1170.22 426.773 1167C436.154 1166.28 439.995 1165.97 443.826 1166.07C446.699 1166.14 449.566 1166.44 454.758 1166.97C460.53 1167.55 466.04 1167.99 467.002 1167.94C473.317 1167.59 482.812 1167.94 492.738 1168.9C499.06 1169.5 511.653 1170.23 520.723 1170.51C529.793 1170.79 537.889 1171.31 538.714 1171.67C539.538 1172.03 542.911 1172.66 546.21 1173.08C549.508 1173.5 554.23 1174.36 556.704 1175.01C559.178 1175.65 564.8 1176.54 569.197 1176.98C573.595 1177.42 578.767 1178.34 580.691 1179.01C584.278 1180.28 590.863 1181.43 603.179 1182.94C615.385 1184.43 623.02 1185.78 628.166 1187.34C630.915 1188.17 636.537 1189.79 640.659 1190.94C644.782 1192.09 651.079 1193.9 654.652 1194.97C658.225 1196.04 663.397 1197.42 666.146 1198.03C668.894 1198.63 674.607 1200.06 678.841 1201.19C696.08 1205.8 691.325 1199.5 668.145 1187C663.747 1184.63 658.575 1181.49 656.651 1180.02C654.727 1178.55 650.004 1175.26 646.156 1172.7C642.309 1170.14 638.036 1167.01 636.661 1165.74C635.287 1164.47 630.34 1160.54 625.667 1157.01C620.995 1153.48 615.676 1148.91 613.848 1146.85C612.019 1144.79 608.62 1141.99 606.294 1140.62C603.968 1139.26 600.274 1136.2 598.084 1133.82C595.895 1131.44 592.098 1127.93 589.647 1126C585.304 1122.6 575.343 1112.82 569.094 1105.84C567.388 1103.94 564.903 1101.5 563.57 1100.44C562.238 1099.37 560.053 1096.92 558.715 1095C557.377 1093.07 555.131 1090.38 553.725 1089C552.318 1087.63 549.608 1084.48 547.703 1082C545.797 1079.53 542.633 1075.92 540.672 1074C538.71 1072.07 535.169 1067.64 532.802 1064.14C530.435 1060.65 526.269 1055.51 523.546 1052.72C520.822 1049.94 517.763 1046.05 516.747 1044.08C515.732 1042.11 514.016 1039.56 512.935 1038.42C511.854 1037.28 509.844 1034.58 508.467 1032.42C507.09 1030.27 504.761 1027.15 503.288 1025.5C501.816 1023.85 499.678 1020.7 498.537 1018.5C496.371 1014.32 490.845 1005.86 489.72 1005C488.513 1004.07 481.813 993.08 478.723 986.955C477.037 983.614 474.153 978.77 472.314 976.19C464.988 965.916 440.059 914.987 435.754 901.5C435.053 899.3 432.696 893.45 430.518 888.5C428.339 883.55 425.55 876.575 424.318 873C423.087 869.425 421.365 864.475 420.491 862C419.617 859.525 418.37 855.475 417.72 853C417.07 850.525 415.834 846.7 414.973 844.5C414.112 842.3 413.108 837.35 412.742 833.5C412.375 829.65 411.061 823.8 409.821 820.5C406.183 810.82 404.785 804.346 404.785 797.187C404.785 792.962 404.043 788.442 402.786 785C401.641 781.866 400.787 777.038 400.787 773.698C400.787 770.492 400.345 767.043 399.806 766.034C399.267 765.026 398.597 757.518 398.32 749.35C398.042 741.183 397.269 732.7 396.601 730.5C394.788 724.525 395.551 666.563 397.502 662C398.185 660.403 399.163 651.653 400.742 633C401.278 626.675 402.209 619.25 402.814 616.5C403.418 613.75 404.296 608.35 404.767 604.5C405.237 600.65 406.783 594.442 408.202 590.705C409.62 586.967 410.782 582.069 410.782 579.821C410.782 577.572 411.265 573.88 411.856 571.616C415.91 556.094 421.132 540.717 425.913 530.225C427.486 526.774 428.772 522.893 428.772 521.602C428.772 520.311 431.635 513.448 435.132 506.352C438.63 499.257 442.21 490.987 443.087 487.976C443.965 484.964 446.052 480.344 447.726 477.709C449.399 475.075 451.94 470.575 453.373 467.709C454.806 464.844 457.657 460.25 459.709 457.5C461.761 454.75 464.383 450.475 465.536 448C466.689 445.525 468.296 442.375 469.107 441C469.918 439.625 471.117 437.054 471.77 435.288C472.425 433.521 474.273 430.701 475.878 429.02C479.336 425.4 482.734 420.031 482.739 418.18C482.743 416.923 488.344 408.052 489.8 407C490.179 406.725 493.28 401.819 496.688 396.098C500.097 390.377 504.567 384.077 506.62 382.098C508.674 380.119 513.214 374.239 516.71 369.031C520.207 363.823 526.035 356.623 529.663 353.031C533.291 349.439 537.336 344.925 538.654 343C539.971 341.075 544.459 335.886 548.626 331.469C552.794 327.051 557.779 321.643 559.703 319.449C561.626 317.256 565.27 313.907 567.799 312.007C570.329 310.107 573.702 306.808 575.295 304.675C576.888 302.542 580.427 298.93 583.159 296.649C585.891 294.367 591.099 289.575 594.732 286C598.365 282.425 605.075 276.575 609.643 273C614.211 269.425 622.532 262.67 628.132 257.988C633.732 253.307 640.978 247.764 644.234 245.672C647.491 243.58 653.752 239.572 658.15 236.767C662.548 233.961 668.685 229.334 671.787 226.484C674.889 223.634 680.511 219.712 684.28 217.769C701.082 209.107 709.095 204.805 711.515 203.148C716.835 199.505 753.277 182.144 758.097 180.956C760.846 180.279 765.118 178.487 767.592 176.973C770.066 175.46 773.889 173.659 776.087 172.971C778.286 172.282 782.334 170.935 785.083 169.977C787.831 169.018 791.992 167.732 794.328 167.117C805.45 164.192 807.42 163.505 812.303 160.847C815.181 159.281 818.629 158 819.966 158C821.303 158 824.496 157.1 827.06 156C829.625 154.9 832.666 154 833.819 154C835.964 154 839.976 152.856 847.05 150.228C853.697 147.759 857.71 146.812 865.04 145.982C873.249 145.054 879.365 143.743 885.556 141.586C888.015 140.73 892.725 140.016 896.024 140C899.322 139.984 904.044 139.225 906.518 138.313C908.992 137.401 915.738 136.288 921.51 135.838C927.282 135.389 936.952 134.564 942.999 134.004C949.045 133.444 958.117 132.652 963.158 132.243ZM1087.42 370.97C1096.72 369.748 1103.32 368.423 1104.13 367.618C1105.13 366.613 1142.7 367.596 1150.39 368.828C1160.48 370.446 1165.5 371.579 1170.38 373.344C1172.85 374.239 1176 374.975 1177.37 374.98C1180.2 374.99 1192.88 379.649 1201.86 383.98C1205.16 385.57 1208.98 387.107 1210.36 387.395C1211.73 387.684 1215.5 389.513 1218.72 391.46C1221.95 393.407 1225.12 395 1225.77 395C1226.42 395 1229.1 396.363 1231.73 398.03C1234.36 399.696 1240.27 402.894 1244.88 405.136C1249.49 407.378 1254.63 410.526 1256.31 412.132C1257.99 413.737 1260.82 415.934 1262.6 417.015C1277.82 426.267 1314.08 466.782 1319.21 480.267C1319.68 481.495 1322.29 485.732 1325.01 489.683C1328.38 494.577 1330.82 499.677 1332.66 505.683C1334.15 510.532 1335.83 515.85 1336.4 517.5C1336.97 519.15 1338.59 523.875 1340 528C1341.42 532.125 1343.18 536.978 1343.93 538.784C1344.67 540.59 1345.28 543.299 1345.28 544.804C1345.28 546.309 1346.19 550.822 1347.3 554.832C1348.41 558.843 1349.06 562.553 1348.74 563.076C1348.41 563.6 1348.61 566.385 1349.17 569.264C1350.92 578.158 1348.25 617.153 1345.29 626C1344.65 627.925 1343.3 632.425 1342.29 636C1337.29 653.779 1327.43 675.222 1320.6 683.189C1318.51 685.627 1315.24 689.62 1313.33 692.061C1306.67 700.573 1287.06 718.947 1281.48 721.91C1280.02 722.685 1276.57 725 1273.82 727.053C1268.1 731.324 1255.21 738 1252.68 738C1249.87 738 1244.04 740.257 1240.78 742.609C1236.6 745.619 1230.67 748 1227.35 748C1225.83 748 1222.85 748.738 1220.72 749.641C1218.59 750.544 1215.28 751.728 1213.35 752.274C1205.04 754.631 1173.25 756.107 1165.11 754.514C1162.77 754.056 1160.24 754.232 1158.44 754.979C1155.99 755.993 1154.61 755.853 1149.64 754.091C1146.41 752.941 1141.37 752 1138.46 752C1135.55 752 1130.4 751.137 1127.03 750.082C1123.66 749.028 1116.56 746.778 1111.25 745.082C1105.93 743.387 1100.76 741.995 1099.75 741.988C1098.74 741.981 1095.89 740.815 1093.42 739.397C1090.94 737.979 1086.9 736.131 1084.42 735.291C1081.95 734.451 1078.8 732.991 1077.43 732.047C1076.05 731.104 1073.1 729.619 1070.87 728.749C1068.64 727.879 1062.56 724.268 1057.38 720.725C1052.19 717.182 1045.47 713.039 1042.45 711.519C1039.42 709.998 1034.64 706.672 1031.83 704.127C1029.01 701.582 1023.16 696.352 1018.83 692.505C1014.5 688.658 1009.16 683.549 1006.96 681.15C1004.77 678.752 1000.49 674.219 997.47 671.077C991.612 664.991 983.477 654.631 983.477 653.258C983.477 652.803 981.147 649.072 978.3 644.966C972.857 637.116 966.666 625.244 964.501 618.5C963.795 616.3 961.55 610.9 959.512 606.5C957.474 602.1 955.307 596.475 954.696 594C954.087 591.525 952.846 586.575 951.94 583C951.033 579.425 950.194 574.475 950.075 572C949.955 569.525 949.015 565.025 947.986 562C944.923 552.998 946.359 516.62 950.138 507.5C951.277 504.75 952.49 500.025 952.832 497C953.884 487.711 965.368 461.026 972.413 451.5C974.448 448.75 978.18 443.284 980.708 439.353C987.082 429.438 1015.16 401.858 1021.59 399.185C1023.33 398.462 1026.15 396.813 1027.86 395.521C1029.56 394.228 1035.45 391.081 1040.95 388.526C1046.44 385.971 1054.54 382.096 1058.94 379.915C1068.2 375.321 1078.2 372.182 1087.42 370.97ZM1187.99 390.779C1180.15 389.058 1173.85 387.882 1166.88 386.843C1158.85 385.646 1119.14 384.603 1118.17 385.564C1117.82 385.915 1114.7 386.623 1111.22 387.137C1099.68 388.846 1094.95 389.755 1091.42 390.945C1089.5 391.593 1085.9 392.721 1083.42 393.451C1080.95 394.18 1076.46 395.727 1073.44 396.889C1070.43 398.05 1066.93 399 1065.68 399C1062.82 399 1051.11 404.255 1047.01 407.375C1045.33 408.66 1042.08 410.662 1039.8 411.823C1037.52 412.984 1035.05 414.541 1034.3 415.284C1033.56 416.026 1031.11 417.965 1028.86 419.593C1020.58 425.584 1009.21 435.781 1004.83 441.143C990.994 458.064 982.267 472.352 978.654 484C978.056 485.925 976.366 491.1 974.898 495.5C973.428 499.9 971.866 506.65 971.424 510.5C970.983 514.35 970.094 520.2 969.451 523.5C967.254 534.76 968.483 562.324 971.56 570.788C972.618 573.696 973.482 577.193 973.482 578.56C973.482 579.927 974.787 584.298 976.381 588.273C977.975 592.248 979.857 598.132 980.563 601.348C981.267 604.565 982.648 608.218 983.63 609.467C984.612 610.717 987.616 615.984 990.304 621.173C995.893 631.96 1000.98 639.534 1006.98 646C1009.28 648.475 1012.21 652.3 1013.51 654.5C1017.73 661.695 1034.67 677.549 1048.44 687.195C1050.92 688.928 1055.41 692.437 1058.44 694.992C1061.46 697.547 1067.38 701.131 1071.59 702.958C1075.79 704.784 1080.74 707.565 1082.58 709.137C1084.42 710.709 1086.5 711.996 1087.21 711.998C1087.92 711.999 1090.26 712.9 1092.42 714C1094.57 715.1 1097.6 716 1099.15 716C1100.7 716 1105.33 717.636 1109.44 719.635C1116.66 723.151 1119.87 724.169 1129.4 725.979C1131.87 726.449 1135.7 727.357 1137.9 727.997C1152.33 732.198 1190.43 732.19 1203.86 727.984C1206.06 727.295 1210.73 726.526 1214.23 726.275C1218.03 726.003 1221.86 725.048 1223.72 723.913C1225.65 722.739 1228.69 722.006 1231.65 722.004C1235.57 722.001 1237.49 721.292 1242.14 718.137C1245.27 716.012 1250.76 712.806 1254.33 711.013C1268.4 703.952 1294.48 681.481 1299.03 672.5C1299.87 670.85 1302.75 666.253 1305.43 662.284C1308.11 658.315 1310.3 654.804 1310.3 654.482C1310.3 654.16 1312.1 650.289 1314.3 645.88C1316.5 641.471 1318.3 637.279 1318.3 636.565C1318.3 635.851 1319.14 633.069 1320.18 630.383C1322.65 623.947 1325.96 609.248 1326.89 600.5C1327.77 592.269 1327.53 582.556 1325.91 560C1325.43 553.356 1323.5 543.259 1321.51 537C1320.9 535.075 1319.65 530.575 1318.73 527C1317.81 523.425 1315.14 516.675 1312.79 512C1310.45 507.325 1307.56 500.736 1306.39 497.358C1304.5 491.93 1296.09 477.818 1292.57 474.163C1291.86 473.428 1290.06 471.178 1288.56 469.163C1287.06 467.149 1285.58 465.275 1285.29 465C1284.99 464.725 1283.73 463.15 1282.48 461.5C1280.16 458.429 1266.92 443.822 1262.19 439.119C1255.87 432.831 1250.78 428.619 1246.29 425.975C1243.65 424.413 1239.71 421.417 1237.55 419.317C1235.39 417.217 1230.63 413.754 1226.99 411.621C1223.35 409.489 1219.12 406.677 1217.61 405.373C1216.09 404.069 1214.18 402.994 1213.35 402.983C1211.96 402.965 1209.54 401.711 1196.98 394.489C1194.3 392.946 1190.25 391.277 1187.99 390.779ZM734.158 405C737.697 405 742.306 403.9 747.103 401.911C749.604 400.874 774.396 401.508 785.083 402.883C804.813 405.421 806.052 405.734 824.194 412.756C829.91 414.969 837.75 420.04 841.553 423.985C842.927 425.411 845.625 427.664 847.549 428.991C852.304 432.272 854.72 435.121 854.079 436.692C853.786 437.411 853.29 438.629 852.979 439.399C852.655 440.196 853.843 442.237 855.743 444.149C857.577 445.992 860.191 449.075 861.554 451C862.916 452.925 865.739 456.262 867.828 458.416C869.915 460.569 873.254 465.294 875.246 468.916C877.238 472.537 880.366 477.585 882.198 480.134C884.03 482.683 885.529 485.326 885.529 486.007C885.529 486.689 886.839 489.778 888.44 492.873C893.067 501.817 897.523 511.644 897.523 512.903C897.523 513.539 898.723 516.859 900.189 520.28C901.656 523.701 903.182 528.525 903.581 531C904.351 535.789 906.625 544.421 909.191 552.303C910.197 555.394 910.524 558.548 910.107 561.154C909.751 563.381 909.892 566.62 910.42 568.351C913.814 579.484 913.886 580.023 912.646 584.865C911.715 588.499 911.698 590.329 912.576 592.566C917.419 604.911 911.397 652.95 901.555 680.5C899.787 685.45 897.935 690.85 897.44 692.5C895.573 698.725 879.165 723.307 872.233 730.263C869.911 732.593 866.908 736.075 865.559 738C861.971 743.12 855.827 748.816 851.522 751.013C849.452 752.069 847.149 753.542 846.404 754.285C840.874 759.803 827.57 767.052 816.725 770.457C803.41 774.636 800.99 775.453 794.092 778.093C790.862 779.329 786.584 780 781.931 780C776.98 780 773.311 780.619 770.101 781.996C766.723 783.444 764.943 783.722 763.613 783.01C762.605 782.47 756.678 782.089 750.443 782.163C741.759 782.265 737.938 781.874 734.11 780.489C731.361 779.495 726.527 778.303 723.365 777.841C713.272 776.364 709.222 775.828 705.305 774.792C701.98 773.912 698.751 772.671 691.999 770.187C682.766 766.789 680.371 765.617 676.141 762.427C674.491 761.184 668.98 758.07 663.893 755.508C658.807 752.946 654.084 750.306 653.399 749.642C652.714 748.978 650.579 747.346 648.655 746.015C646.731 744.685 644.932 743.347 644.657 743.042C644.382 742.738 642.449 741.214 640.362 739.657C638.274 738.099 635.581 735.324 634.38 733.489C633.178 731.655 630.904 729.391 629.326 728.459C624.352 725.519 610.092 708.4 607.278 701.992C606.674 700.612 603.592 695.173 600.431 689.905C597.269 684.637 594.684 679.865 594.684 679.301C594.684 678.737 593.335 675.001 591.685 671C590.036 666.999 588.687 662.864 588.687 661.813C588.687 660.761 587.932 658.461 587.01 656.7C584.66 652.217 583.585 646.234 582.836 633.5C582.481 627.45 581.807 621.905 581.338 621.179C578.397 616.621 579.638 581.443 583.016 573.628C583.937 571.498 584.689 567.618 584.689 565.006C584.689 557.566 589.02 542.336 594.071 532.013C596.607 526.831 598.682 521.72 598.682 520.656C598.682 518.25 609.573 499.135 619.077 484.862C620.674 482.463 623.932 477.575 626.319 474C634.904 461.135 653.768 443.053 666.61 435.38C669.653 433.561 673.648 430.722 675.488 429.07C679.319 425.631 701.904 414.025 708.623 412.043C711.097 411.313 716.997 409.43 721.735 407.858C726.473 406.286 732.063 405 734.158 405ZM816.738 427.276C812.839 423.488 806.949 421.801 794.578 420.927C788.806 420.519 782.731 419.884 781.079 419.515C779.427 419.146 777.705 419.217 777.252 419.672C776.799 420.128 772.08 420.821 766.763 421.214C746.593 422.704 739.102 424.064 728.816 428.099C727.553 428.595 725.754 429 724.818 428.999C722.786 428.998 699.256 439.553 695.495 442.152C694.047 443.153 690.85 444.835 688.391 445.89C683.974 447.784 680.163 450.811 665.793 463.838C661.751 467.502 658.153 470.725 657.797 471C657.441 471.275 654.686 474.425 651.675 478C648.662 481.575 644.265 486.571 641.903 489.103C634.098 497.468 618.12 527.371 615.509 538.5C614.864 541.25 613.329 546.65 612.098 550.5C610.866 554.35 609.522 559.3 609.111 561.5C608.699 563.7 607.725 567.029 606.945 568.899C606.165 570.768 605.388 575.943 605.218 580.399C605.048 584.854 604.345 589.717 603.654 591.205C602.707 593.249 602.672 594.593 603.51 596.705C604.618 599.494 604.393 612.883 603.115 620.224C602.662 622.828 603.069 625.535 604.472 629.224C605.574 632.126 607.44 638.55 608.619 643.5C610.864 652.926 615.789 666.392 618.859 671.5C619.852 673.15 620.664 675.166 620.666 675.98C620.673 678.478 627.601 688.991 636.168 699.5C640.65 705 645.136 710.761 646.135 712.301C647.135 713.842 649.123 715.728 650.552 716.493C651.982 717.257 654.502 719.075 656.151 720.533C664.863 728.231 685.511 741.171 691.133 742.455C692.782 742.831 696.605 744.182 699.628 745.455C702.651 746.729 707.149 748.318 709.623 748.987C712.096 749.656 716.144 751.012 718.618 752C728.351 755.889 730.594 756.121 754.599 755.712C768.172 755.482 780.196 754.8 783.084 754.097C785.832 753.428 790.555 752.559 793.578 752.165C802.412 751.015 829.809 736.557 838.006 728.719C839.671 727.127 843.344 724.442 846.17 722.751C848.996 721.06 852.013 718.481 852.876 717.021C853.738 715.56 856.285 712.37 858.535 709.932C862.941 705.158 880.306 672.115 881.621 666C882.036 664.075 883.534 659.442 884.951 655.705C886.369 651.967 887.528 647.151 887.528 645.003C887.528 642.855 888.268 638.488 889.171 635.299C893.427 620.276 893.692 574.483 889.597 561.62C888.917 559.487 888.588 556.878 888.863 555.824C889.139 554.769 888.556 551.34 887.566 548.203C884.304 537.853 880.401 524.613 878.406 517.125C877.326 513.069 875.338 507.571 873.988 504.908C872.64 502.245 871.537 499.392 871.537 498.568C871.537 497.744 870.187 494.941 868.538 492.339C866.889 489.737 865.54 486.99 865.54 486.234C865.54 484.94 859.978 476.081 858.486 475C857.098 473.995 853.553 467.455 853.55 465.895C853.548 465.013 849.465 460.063 844.477 454.895C839.489 449.728 834.76 444.038 833.97 442.25C833.178 440.462 832.154 439 831.693 439C831.232 439 829.551 437.758 827.958 436.239C826.365 434.721 823.487 432.373 821.563 431.022C819.639 429.671 817.467 427.986 816.738 427.276ZM1123.97 456.93C1125.58 456.891 1127.8 456.473 1128.9 456C1136.2 452.862 1138.93 455.096 1136.28 462.05C1132.28 472.585 1136.48 498.181 1143.81 507.944C1145.23 509.839 1146.4 512.314 1146.4 513.444C1146.45 521.263 1167.16 544.698 1179.87 551.311C1181.52 552.17 1184.67 554.457 1186.87 556.395C1195.64 564.127 1218.53 567.173 1236.84 563.047C1245.63 561.068 1245.8 561.104 1246.18 565C1246.8 571.408 1241.85 590.835 1236.79 601.808C1215.02 649.045 1159.96 673.049 1111.1 656.603C1029.22 629.036 1014.9 519.739 1086.92 472.069C1098.04 464.71 1116.65 457.105 1123.97 456.93ZM721.293 667.891C646.571 630.658 652.935 522.727 731.55 493.912C741.502 490.264 742.595 490.442 744.354 496C745.943 501.018 747.801 506.646 750.216 513.75C755.193 528.391 763.139 540.507 773.357 549.033C776.301 551.49 780.594 555.169 782.896 557.21C785.198 559.25 789.555 561.908 792.579 563.116C795.602 564.324 799.425 566.296 801.074 567.5C815.623 578.118 836.267 576.144 850.212 562.801C855.627 557.619 856.766 561.107 856.81 583C856.87 613.032 845.361 638.185 823.562 655.656C793.051 680.109 754.959 684.666 721.293 667.891ZM1370.49 729.361C1368.14 728.559 1364.54 726.76 1362.5 725.366L1358.78 722.83L1362.78 723.557C1364.97 723.957 1369.25 725.382 1372.27 726.725C1375.29 728.068 1381.14 730.512 1385.26 732.156C1397.37 736.985 1413.25 745.216 1413.25 746.663C1413.25 748.985 1411.9 748.462 1385.26 735.807C1379.49 733.065 1372.85 730.164 1370.49 729.361ZM1315.05 731.157C1312.3 729.971 1310.3 728.459 1310.3 727.556C1310.3 723.238 1366.88 747.246 1389.01 760.958C1403.66 770.031 1381.22 763.329 1360.78 752.526C1356.93 750.492 1351.53 747.93 1348.78 746.831C1346.03 745.733 1338.39 742.217 1331.79 739.018C1325.2 735.819 1317.66 732.281 1315.05 731.157ZM1319.36 757.92C1300.12 748.821 1295.95 746.607 1295.53 745.25C1294.73 742.647 1305.27 745.545 1317.8 751.369C1341.08 762.192 1346.28 765.141 1346.28 767.513C1346.28 770.385 1343.98 769.563 1319.36 757.92ZM1274.68 756C1273.3 756 1265.33 752.074 1265.33 751.397C1265.33 750.749 1270.91 751.75 1273.82 752.92C1274.92 753.361 1277.62 754.271 1279.82 754.94C1282.02 755.609 1287.19 757.768 1291.31 759.737C1295.44 761.707 1301.19 764.372 1304.09 765.66C1309.06 767.868 1311.36 770.272 1309.9 771.736C1309.54 772.093 1305.33 770.537 1300.53 768.278C1295.74 766.019 1288.89 762.949 1285.32 761.456C1281.74 759.962 1278.11 758.124 1277.24 757.37C1276.37 756.617 1275.22 756 1274.68 756ZM638.261 775.6C636.614 776.232 633.663 774.485 633.663 772.878C633.663 771.436 637.32 771.884 638.651 773.488C639.651 774.694 639.577 775.095 638.261 775.6ZM647.965 778.985C646.76 778.993 645.497 778.55 645.157 778C644.37 776.727 646.686 776.727 648.655 778C649.873 778.788 649.745 778.972 647.965 778.985ZM604.579 788.987C593.889 785.468 588.465 782.911 587.883 781.118C587.543 780.075 588.138 779.88 590.309 780.323C591.89 780.646 595.209 781.317 597.682 781.814C602.063 782.694 604.285 783.454 615.673 787.971C618.696 789.17 624.093 791.193 627.666 792.467C635.789 795.364 650.181 801.554 654.152 803.86C655.801 804.817 659.971 806.649 663.418 807.93C670.178 810.442 671.491 811.552 669.759 813.285C668.945 814.099 666.447 813.529 660.401 811.149C655.865 809.364 649.68 806.956 646.656 805.798C643.633 804.64 634.862 801.021 627.167 797.755C619.471 794.489 609.306 790.543 604.579 788.987ZM665.646 785.109C665.646 786.384 664.765 786.168 659.15 783.522C656.401 782.226 654.93 781.129 655.881 781.083C658.26 780.969 665.646 784.013 665.646 785.109ZM596.052 809.459C585.748 806.076 582.69 804.681 582.69 803.364C582.69 800.484 587.492 801.458 605.678 808.028C611.45 810.113 617.297 812.142 618.671 812.536C626.879 814.894 640.659 822.815 640.659 825.174C640.659 826.894 636.8 825.786 625.667 820.869C619.346 818.077 612.072 815.199 609.503 814.473C606.934 813.747 603.953 812.682 602.877 812.105C601.8 811.529 598.729 810.338 596.052 809.459ZM1158.18 825.985C1159.67 825.976 1161.56 825.533 1162.38 825C1164.97 823.329 1184.22 825.257 1190.57 827.822C1222.37 840.674 1215.17 893.634 1176.78 929.25C1164.77 940.399 1157.78 946.184 1153.89 948.209C1151.69 949.352 1146.74 952.38 1142.89 954.938C1136.75 959.02 1115.52 970 1113.76 970C1113.41 970 1109.84 971.575 1105.84 973.5C1101.85 975.425 1097.92 977 1097.12 977C1096.32 977 1093.92 977.747 1091.79 978.66C1089.66 979.573 1086.01 980.698 1083.67 981.16C1078.04 982.273 1071.94 983.638 1066.43 985.015C1061.8 986.172 1056.12 987.201 1043.94 989.082C1021.34 992.575 975.717 991.548 957.991 987.147C955.792 986.601 950.844 985.416 946.997 984.513C943.149 983.61 938.619 982.451 936.931 981.936C935.243 981.421 932.901 981 931.728 981C927.945 981 895.321 967.751 883.031 961.223C881.381 960.347 878.008 958.581 875.534 957.299C865.408 952.048 843.402 935.145 838.429 928.798C836.577 926.434 834.078 923.496 832.875 922.269C828.22 917.521 819.653 899.725 819.162 893.783C818.907 890.689 817.993 886.795 817.133 885.129C808.957 869.311 822.28 863.774 853.546 869.997C860.014 871.284 868.495 872.703 877.533 874.009C891.835 876.075 897.263 876.946 902.52 878.017C923.033 882.198 983.159 882.226 1001.72 878.065C1008.38 876.571 1014.14 875.341 1019.96 874.171C1022.71 873.618 1026.98 872.487 1029.45 871.657C1031.93 870.827 1038 868.807 1042.95 867.168C1056.81 862.574 1068.2 858.263 1076.43 854.501C1099.81 843.805 1130.07 832.148 1139.89 830.044C1142.09 829.574 1146.5 828.471 1149.69 827.594C1152.87 826.717 1156.7 825.993 1158.18 825.985ZM596.433 833.952C592.738 833.897 586.535 831.121 585.928 829.25C585.281 827.258 590.133 827.757 595.157 830.199C600.498 832.796 600.914 834.018 596.433 833.952ZM1138.58 875.15C1146.61 866.321 1160.73 842.281 1159.66 839.25C1159.17 837.863 1156.2 837.778 1152.39 839.041C1146.66 840.939 1138.67 843.279 1135.4 844.014C1128.2 845.632 1114.72 850.818 1090.42 861.326C1067.6 871.191 1055.88 876.001 1054.65 876C1053.94 876 1051.6 876.9 1049.44 878C1047.29 879.1 1044.58 880 1043.44 880C1042.29 880 1039.91 880.755 1038.15 881.678C1036.39 882.601 1033.15 883.701 1030.95 884.123C1028.75 884.545 1024.93 885.393 1022.46 886.008C1015.21 887.807 1008.57 888.924 998.969 889.957C994.021 890.49 987.275 891.433 983.977 892.053C962.499 896.093 907.343 891.976 869.677 883.522C853.246 879.835 856.816 886.146 878.419 898.98C889.609 905.628 901.91 912 903.557 912C904.154 912 906.976 913.068 909.828 914.373C912.68 915.678 917.037 917.426 919.511 918.258C921.985 919.089 925.358 920.244 927.007 920.825C970.799 936.227 1030.58 937.387 1062.22 923.446C1064.02 922.651 1066.17 922 1066.99 922C1067.82 922 1071.16 920.65 1074.43 919C1077.7 917.35 1081.07 916 1081.94 916C1083.93 916 1088.95 913.3 1101.46 905.5C1112.5 898.615 1118 894.682 1124.53 889C1130.95 883.421 1132.02 882.365 1138.58 875.15ZM937.002 1601.16C999.411 1547.85 1029.55 1481.89 1027.27 1403.58C1026.89 1390.47 1026.06 1389.73 1020.68 1397.69C1000.19 1427.98 968.652 1486.29 956.417 1516.5C952.408 1526.4 941.349 1552.71 931.842 1574.97C920.33 1601.92 915.192 1613.85 917.332 1615.34C919.049 1616.54 925.45 1611.02 937.002 1601.16Z" fill="black"/>
<path d="M1302.26 1705.95C1300.17 1701.79 1298.31 1687.76 1299.55 1685.53C1301.57 1681.92 1314.98 1689.49 1318.38 1696.17C1319.49 1698.34 1322.57 1702.81 1325.23 1706.11C1333.38 1716.23 1336.66 1729.85 1332.12 1734.69C1325.2 1742.05 1310.75 1730.63 1305.31 1713.5C1304.61 1711.3 1303.23 1707.9 1302.26 1705.95Z" fill="#AC39B0"/>
<path d="M1265.38 1565C1259.73 1565 1255.94 1557.79 1258.31 1551.56C1259.67 1547.98 1262.82 1548.29 1266.93 1552.4C1272.12 1557.6 1271.21 1565 1265.38 1565Z" fill="#AC39B0"/>
<path d="M628.666 1372.51C620.57 1369.54 621.272 1363.4 629.879 1361.9C636.874 1360.67 654.492 1361.98 660.649 1364.19C671.023 1367.89 671.741 1368.29 673.189 1371.09C677.725 1379.87 669.594 1386.4 658.221 1383.11C652.433 1381.44 643.155 1378.24 637.661 1376.02C634.638 1374.79 630.59 1373.21 628.666 1372.51Z" fill="#AC39B0"/>
<path d="M437.988 1351.94C439.242 1351.91 441.84 1351.29 443.764 1350.56C465.674 1342.27 480.697 1357.92 462.149 1369.72C447.221 1379.21 410.782 1381 410.782 1372.23C410.782 1367.73 431.749 1352.1 437.988 1351.94Z" fill="#AC39B0"/>
<path d="M265.536 1438C248.826 1438 251.187 1424.51 269.468 1415.53C278.908 1410.89 284.435 1410.8 288.728 1415.19C298.293 1424.98 285.053 1438 265.536 1438Z" fill="#AC39B0"/>
<path d="M950 950.5C940 954.5 923.167 958.5 916 960C928.333 964.5 958.2 974 979 976C1005 978.5 1028.5 980 1084.5 965.5C1129.3 953.9 1161.5 929.667 1172 919H1117.5L1114.5 910.5C1101 918.167 1068.7 934.9 1047.5 940.5C1026.3 946.1 989.667 944.5 974 943C970.167 943.833 960 946.5 950 950.5Z" fill="#A6609A"/>
<path d="M1528.02 607.672C1518.52 571.672 1507.02 554.672 1476.52 510.672C1463.52 494.506 1433.22 458.772 1416.02 445.172C1394.52 428.172 1368.52 393.672 1378.02 372.672C1387.52 351.672 1427.02 356.172 1468.02 390.672C1509.02 425.172 1543.02 475.672 1560.52 537.672C1578.02 599.672 1577.52 707.172 1560.52 709.672C1543.52 712.172 1537.52 643.672 1528.02 607.672Z" fill="#F2E8FF"/>
<defs>
<filter id="filter0_f_511_449" x="297" y="403" width="789" height="685" filterUnits="userSpaceOnUse" color-interpolation-filters="sRGB">
<feFlood flood-opacity="0" result="BackgroundImageFix"/>
<feBlend mode="normal" in="SourceGraphic" in2="BackgroundImageFix" result="shape"/>
<feGaussianBlur stdDeviation="100" result="effect1_foregroundBlur_511_449"/>
</filter>
<filter id="filter1_f_511_449" x="924" y="346" width="789" height="685" filterUnits="userSpaceOnUse" color-interpolation-filters="sRGB">
<feFlood flood-opacity="0" result="BackgroundImageFix"/>
<feBlend mode="normal" in="SourceGraphic" in2="BackgroundImageFix" result="shape"/>
<feGaussianBlur stdDeviation="100" result="effect1_foregroundBlur_511_449"/>
</filter>
<linearGradient id="paint0_linear_511_449" x1="901.5" y1="153" x2="901.5" y2="1838" gradientUnits="userSpaceOnUse">
<stop stop-color="#BB89FF"/>
<stop offset="1" stop-color="#887AFF"/>
</linearGradient>
<linearGradient id="paint1_linear_511_449" x1="901.5" y1="153" x2="901.5" y2="1838" gradientUnits="userSpaceOnUse">
<stop stop-color="#BB89FF"/>
<stop offset="1" stop-color="#887AFF"/>
</linearGradient>
</defs>
</svg>
