<svg xmlns="http://www.w3.org/2000/svg" width="250" height="250" fill="none"><mask id="a" width="219" height="156" x="15" y="47" maskUnits="userSpaceOnUse" style="mask-type:alpha"><path fill="#fff" d="M15 47.44h218.668V203H15"/></mask><g mask="url(#a)"><path fill="#129CD8" fill-rule="evenodd" d="M105.995 64.405c7.051-7.467 16.869-12.1 27.728-12.1 14.436 0 27.028 8.18 33.735 20.324a46.009 46.009 0 0 1 19.067-4.119c26.035 0 47.143 21.64 47.143 48.333 0 26.696-21.108 48.336-47.143 48.336a46.35 46.35 0 0 1-9.288-.941c-5.903 10.703-17.158 17.939-30.077 17.939a33.821 33.821 0 0 1-15.076-3.528c-5.984 14.313-19.935 24.35-36.19 24.35-16.93 0-31.36-10.886-36.898-26.156-2.42.519-4.93.793-7.5.793-20.157 0-36.496-16.779-36.496-37.478 0-13.875 7.337-25.987 18.248-32.468a43.519 43.519 0 0 1-3.493-17.145c0-23.805 19.015-43.105 42.47-43.105 13.77 0 26.008 6.653 33.77 16.965Z" clip-rule="evenodd"/></g><path fill="#FEFEFE" fill-rule="evenodd" d="M46.67 128.109c-.138.365.048.441.093.503.412.304.826.522 1.247.768 2.23 1.201 4.339 1.551 6.54 1.551 4.487 0 7.273-2.424 7.273-6.327v-.075c0-3.61-3.146-4.923-6.093-5.87l-.386-.124c-2.224-.735-4.142-1.369-4.142-2.858v-.075c0-1.274 1.121-2.212 2.86-2.212 1.931 0 4.223.654 5.698 1.484 0 0 .437.284.594-.144.087-.232.833-2.274.913-2.496.084-.238-.064-.418-.218-.512-1.688-1.042-4.018-1.755-6.428-1.755l-.447.004c-4.107 0-6.974 2.521-6.974 6.134v.075c0 3.805 3.163 5.043 6.126 5.902l.476.15c2.16.673 4.02 1.255 4.02 2.797v.078c0 1.411-1.212 2.463-3.16 2.463-.758 0-3.171-.013-5.778-1.689-.315-.19-.495-.323-.739-.474-.128-.081-.45-.221-.591.206l-.884 2.496Zm65.666 0c-.139.365.048.441.093.503.411.304.826.522 1.247.768 2.23 1.201 4.338 1.551 6.54 1.551 4.486 0 7.272-2.424 7.272-6.327v-.075c0-3.61-3.146-4.923-6.093-5.87l-.385-.124c-2.224-.735-4.143-1.369-4.143-2.858v-.075c0-1.274 1.122-2.212 2.86-2.212 1.932 0 4.223.654 5.698 1.484 0 0 .437.284.595-.144.087-.232.832-2.274.913-2.496.083-.238-.064-.418-.219-.512-1.687-1.042-4.014-1.755-6.427-1.755l-.447.004c-4.107 0-6.974 2.521-6.974 6.134v.075c0 3.805 3.166 5.043 6.126 5.902l.475.15c2.16.673 4.024 1.255 4.024 2.797v.078c0 1.411-1.212 2.463-3.163 2.463-.758 0-3.168-.013-5.778-1.689-.315-.19-.501-.317-.739-.474-.081-.052-.46-.202-.588.206l-.887 2.496Zm44.828-7.648c0 2.205-.405 3.946-1.202 5.174-.79 1.215-1.983 1.81-3.644 1.81-1.665 0-2.851-.595-3.629-1.81-.787-1.228-1.185-2.969-1.185-5.174 0-2.201.398-3.939 1.182-5.154.781-1.202 1.967-1.787 3.632-1.787 1.661 0 2.854.585 3.644 1.787.797 1.215 1.202 2.953 1.202 5.154Zm3.744-4.089c-.366-1.264-.942-2.378-1.703-3.305a8.212 8.212 0 0 0-2.877-2.222c-1.144-.542-2.494-.82-4.01-.82-1.521 0-2.874.278-4.018.82a8.206 8.206 0 0 0-2.873 2.225c-.765.928-1.337 2.042-1.703 3.302-.367 1.258-.553 2.633-.553 4.089 0 1.457.186 2.836.553 4.09.366 1.261.938 2.375 1.703 3.306a8.045 8.045 0 0 0 2.877 2.204c1.144.529 2.493.798 4.014.798 1.516 0 2.863-.269 4.01-.798a8.08 8.08 0 0 0 2.877-2.204c.761-.928 1.337-2.042 1.703-3.306.366-1.258.553-2.633.553-4.09 0-1.456-.187-2.831-.553-4.089Zm30.747 10.481c-.122-.369-.479-.228-.479-.228-.543.212-1.122.405-1.742.503-.623.101-1.311.15-2.05.15-1.81 0-3.253-.549-4.284-1.63-1.032-1.084-1.614-2.835-1.607-5.203.006-2.153.517-3.773 1.436-5.011.913-1.228 2.305-1.858 4.156-1.858 1.542 0 2.722.183 3.956.575 0 0 .296.13.434-.262.331-.928.572-1.584.922-2.6.1-.29-.144-.411-.235-.447-.485-.193-1.629-.51-2.497-.644a18.763 18.763 0 0 0-2.809-.189c-1.571 0-2.972.274-4.171.816a8.645 8.645 0 0 0-3.018 2.218c-.803.931-1.414 2.045-1.819 3.306-.408 1.257-.61 2.636-.61 4.099 0 3.155.835 5.707 2.49 7.572 1.659 1.878 4.146 2.828 7.392 2.828 1.919 0 3.886-.395 5.303-.96 0 0 .27-.134.151-.454l-.919-2.581Zm6.551-8.505c.18-1.225.511-2.244 1.025-3.038.775-1.205 1.958-1.872 3.622-1.872 1.665 0 2.761.667 3.551 1.872.524.797.752 1.855.842 3.041l-9.04-.003Zm12.604-2.692c-.317-1.221-1.105-2.453-1.619-3.015-.816-.895-1.617-1.519-2.407-1.865a9.105 9.105 0 0 0-3.632-.748c-1.581 0-3.018.271-4.184.827a8.342 8.342 0 0 0-2.919 2.263c-.768.944-1.346 2.068-1.715 3.345-.37 1.268-.557 2.649-.557 4.109 0 1.486.193 2.871.576 4.112.386 1.258 1.002 2.359 1.835 3.277.835.921 1.906 1.639 3.188 2.145 1.276.5 2.825.762 4.602.755 3.661-.01 5.589-.839 6.383-1.287.141-.082.273-.219.109-.617l-.833-2.358c-.125-.35-.475-.223-.475-.223-.91.343-2.195.957-5.203.951-1.967-.003-3.423-.591-4.336-1.516-.935-.94-1.398-2.325-1.475-4.282l12.672.01s.335-.004.37-.336c.013-.138.433-2.646-.38-5.547ZM96.7 118.348c.18-1.225.511-2.244 1.022-3.038.781-1.205 1.96-1.872 3.625-1.872s2.764.667 3.555 1.872c.52.797.748 1.855.838 3.041l-9.04-.003Zm12.604-2.692c-.317-1.221-1.105-2.453-1.619-3.015-.816-.895-1.614-1.519-2.407-1.865a9.112 9.112 0 0 0-3.629-.748c-1.584 0-3.02.271-4.187.827a8.337 8.337 0 0 0-2.919 2.263c-.768.944-1.346 2.068-1.715 3.345-.37 1.268-.556 2.649-.556 4.109 0 1.486.192 2.871.575 4.112.386 1.258 1.003 2.359 1.835 3.277.835.921 1.906 1.639 3.188 2.145 1.276.5 2.825.762 4.602.755 3.661-.01 5.589-.839 6.383-1.287.141-.082.273-.219.109-.617l-.833-2.358c-.125-.35-.475-.223-.475-.223-.91.343-2.195.957-5.203.951-1.964-.003-3.423-.591-4.336-1.516-.935-.94-1.398-2.325-1.475-4.282l12.672.01s.335-.004.37-.336c.013-.138.433-2.646-.38-5.547Zm-39.999 11.127c-.499-.402-.566-.503-.73-.764-.254-.395-.383-.957-.383-1.676 0-1.13.37-1.946 1.132-2.492-.007 0 1.093-.967 3.677-.931 1.815.023 3.442.297 3.442.297v5.857s-1.61.35-3.423.461c-2.578.16-3.725-.755-3.715-.752Zm5.042-9.051a27.192 27.192 0 0 0-1.976-.059c-1.087 0-2.138.137-3.124.408-.99.272-1.88.69-2.645 1.245a6.181 6.181 0 0 0-1.838 2.127c-.45.849-.678 1.848-.678 2.965 0 1.143.192 2.133.581 2.943a5.276 5.276 0 0 0 1.652 2.016c.704.522 1.575.904 2.58 1.136.997.232 2.125.35 3.36.35a22.76 22.76 0 0 0 3.85-.327 72.569 72.569 0 0 0 3.19-.63c.421-.098.888-.229.888-.229.314-.081.288-.421.288-.421l-.006-11.779c0-2.587-.678-4.501-2.011-5.689-1.33-1.183-3.291-1.781-5.824-1.781-.951 0-2.478.131-3.397.317 0 0-2.767.546-3.904 1.454 0 0-.251.156-.116.513l.896 2.449c.113.317.418.209.418.209s.097-.039.209-.108c2.436-1.345 5.521-1.306 5.521-1.306 1.37 0 2.424.284 3.134.833.69.542 1.041 1.352 1.041 3.07v.546a41.984 41.984 0 0 0-2.089-.252Zm102.226-6.638c.097-.29-.106-.431-.189-.463-.216-.082-1.295-.314-2.125-.37-1.593-.098-2.478.173-3.268.536-.787.36-1.658.944-2.141 1.607l-.002-1.571c0-.216-.151-.389-.364-.389h-3.249c-.212 0-.363.173-.363.389v19.216c0 .216.17.389.386.389h3.329a.385.385 0 0 0 .383-.389v-9.6c0-1.29.141-2.573.421-3.38.273-.801.646-1.438 1.109-1.895a3.837 3.837 0 0 1 1.568-.957 6.037 6.037 0 0 1 1.697-.245c.665 0 1.391.177 1.391.177.247.025.383-.128.466-.35.215-.588.836-2.355.951-2.705Z" clip-rule="evenodd"/><path fill="#FEFEFE" fill-rule="evenodd" d="M145.318 102.189a9.92 9.92 0 0 0-1.254-.3 9.445 9.445 0 0 0-1.722-.138c-2.292 0-4.098.66-5.367 1.96-1.26 1.291-2.118 3.257-2.548 5.84l-.155.873h-2.876s-.354-.013-.425.375l-.472 2.679c-.035.255.074.415.412.415h2.802l-2.844 16.122c-.222 1.297-.476 2.365-.759 3.175-.276.801-.549 1.398-.883 1.832-.325.419-.631.732-1.161.912-.437.147-.941.216-1.491.216-.305 0-.713-.053-1.015-.115-.303-.059-.46-.127-.685-.222 0 0-.328-.127-.46.206-.102.274-.848 2.362-.938 2.62-.09.254.035.453.196.512a9.5 9.5 0 0 0 1.157.343c.707.17 1.302.18 1.857.18 1.167 0 2.231-.167 3.111-.49.887-.327 1.659-.895 2.343-1.659.736-.83 1.202-1.699 1.646-2.884.44-1.173.813-2.63 1.115-4.329l2.854-16.419h4.174s.354.013.424-.376l.473-2.679c.032-.254-.074-.414-.411-.414h-4.053c.019-.092.203-1.542.669-2.904.199-.585.572-1.052.89-1.375a2.652 2.652 0 0 1 1.06-.673 4.396 4.396 0 0 1 1.36-.196c.382 0 .755.046 1.041.104.392.086.547.131.65.16.41.131.465.007.549-.196l.967-2.704c.1-.291-.141-.415-.231-.451Zm-56.622 27.86c0 .215-.151.392-.364.392h-3.361c-.212 0-.363-.177-.363-.392v-27.493c0-.216.15-.389.363-.389h3.361c.213 0 .364.173.364.389v27.493Z" clip-rule="evenodd"/></svg>