<svg viewBox="0 0 117.44964 115.25691780821917" xmlns="http://www.w3.org/2000/svg" style="max-height: 500px" width="250" height="250"><defs><style>.d{fill:#01022e;}.e{fill:#2c68f5;}.f{fill:#89d4f7;}</style></defs><g id="a"/><g id="b"><g id="c"><g><g><path d="M113.97,24.18c-.95,2.27-2.59,7.98-24.2,43.53-21.61,35.55-29.72,45.02-29.72,45.02-.31,.49-.74,.89-1.25,1.17-.51,.28-1.08,.43-1.66,.43s-1.15-.15-1.66-.43-.94-.68-1.25-1.17c0,0-8.22-9.48-29.73-45.02C2.96,32.18,1.11,26.22,.31,24.18c-.8-2.04-.13-4.15,2.92-4.76,.9-.19,2.72-.62,5.79-1.16,3.14,5.87,8.48,15.28,17.78,30.64,20.01,33.03,27.63,41.85,27.63,41.85,.29,.46,.69,.83,1.17,1.09,.48,.26,1.01,.39,1.55,.39,.54,0,1.07-.14,1.55-.4,.47-.26,.87-.64,1.16-1.1,0,0,7.56-8.8,27.63-41.85,9.37-15.43,14.72-24.81,17.82-30.65,3.12,.54,4.96,.99,5.77,1.17,2.73,.6,3.84,2.52,2.9,4.79Z" class="f"/><path d="M109.96,8.41c-1.34,3.37-2.91,6.65-4.68,9.82-3.1,5.84-8.44,15.21-17.81,30.65-20.08,33.05-27.61,41.85-27.61,41.85-.29,.45-.69,.83-1.16,1.09-.47,.26-1,.39-1.54,.39s-1.07-.14-1.54-.39c-.47-.26-.87-.63-1.16-1.09,0,0-7.62-8.82-27.63-41.85-9.3-15.35-14.64-24.77-17.78-30.64-1.8-3.16-3.37-6.44-4.7-9.83-.77-1.91-.12-3.86,2.7-4.45,2.82-.59,15.89-3.96,50.13-3.96s47.57,3.4,50.13,3.96c2.56,.56,3.57,2.34,2.68,4.45Z" class="e"/><path d="M190.2,19.99h-47.14v12.27h30.62l-30.62,39.3v11.4h47.14v-12.26h-30.53l30.53-39.3v-11.4Z"/><path d="M233.93,33.21v8.42c-2.51-5.91-8.87-9.38-15.91-9.38-12.35,0-21.99,9.12-21.99,25.82s9.74,26.01,22.08,26.01c6.95,0,13.39-3.57,15.82-9.31v8.08h13.22V33.21h-13.22Zm-12.08,39.81c-7.4,0-12.61-5.47-12.61-14.95s5.21-14.87,12.52-14.87,12.61,5.57,12.61,14.87c0,9.4-5.23,14.95-12.52,14.95Z"/><path d="M388.05,19.81c-.17,.42-.36,.82-.58,1.21-.38,.72-1.04,1.88-2.2,3.79-1.02,1.79-2.16,3.52-3.41,5.17-.04,.06-.09,.1-.14,.13-.06,.03-.12,.05-.19,.05-.07,0-.13-.02-.19-.05-.06-.03-.11-.08-.14-.13-1.25-1.64-2.39-3.37-3.41-5.17-1.15-1.89-1.81-3.06-2.19-3.79-.22-.39-.42-.8-.58-1.21-.09-.24-.01-.48,.33-.55,4.1-.65,8.28-.65,12.38,0,.31,.07,.44,.29,.33,.55Z" class="e"/><path d="M287.66,32.25c-7.83,0-13.74,3.91-15.91,9.04v-8.08h-13.21V99.03h13.21v-24.52c2.17,5.13,8,9.21,15.82,9.21,11.4,0,22.09-7.83,22.09-25.73s-10.61-25.73-22.01-25.73Zm-3.83,40.6c-7.3,0-12.51-5.47-12.51-14.87s5.21-14.95,12.59-14.95,12.52,5.55,12.52,14.95-5.12,14.87-12.61,14.87Z"/><path d="M331.23,37.21c0-4.36,3.74-7.04,9.91-7.04s10.25,2.6,12.27,7.64l12.6-1.73c-2.43-11.22-11.64-17.05-25.29-17.05s-22.88,7.4-22.88,18.44c0,23.65,34.96,15.56,35.13,27.92,.09,4.68-4,7.47-10.78,7.47s-11.57-3.04-13.48-8.7l-13.12,1.74c2.7,11.48,12.78,17.91,26.69,17.91,14.87,0,24.52-7.47,24.52-18.86,0-23.91-35.56-14.34-35.56-27.74Z"/><path d="M374.97,33.21v49.74h13.12V33.21h-13.12Z"/><path d="M435.56,33.21v8c-2.43-6.08-8.87-8.78-15.91-8.78-12.42,0-21.99,8.44-21.99,23.99s9.65,24.09,22.08,24.09c6.95,0,13.39-2.7,15.82-8.61v4.7c0,10.08-4.34,14.18-12.34,14.18-5.74,0-10.17-2.87-11.91-7.4l-12.61,2.87c3.13,9.21,11.82,14.44,24.43,14.44,17.12,0,25.65-7.83,25.65-26.52V33.21h-13.22Zm-12.17,37.64c-7.4,0-12.61-5.21-12.61-14.44s5.21-14.34,12.52-14.34,12.61,5.38,12.61,14.34-5.13,14.44-12.52,14.44Z"/><path d="M488.78,32.25c-7.57,0-13.14,3.47-15.39,8.95v-8h-13.21v49.74h13.21v-25.39c0-9.22,3.04-14.09,10.7-14.09s10.78,4.17,10.78,13.31v26.17h13.22v-27.39c0-15.65-6.01-23.3-19.31-23.3Z"/></g><g><path d="M345.83,138.52v-27.27h9.68c1.4,0,2.67,.29,3.81,.86,1.14,.57,2.04,1.39,2.71,2.46,.67,1.07,1,2.35,1,3.85,0,.73-.12,1.44-.35,2.14-.23,.7-.57,1.32-.99,1.85-.43,.53-.95,.91-1.56,1.13,.83,.21,1.52,.58,2.07,1.12,.55,.54,.99,1.17,1.31,1.88,.33,.71,.56,1.45,.69,2.22,.14,.77,.2,1.49,.2,2.18,0,1.46-.35,2.75-1.05,3.9-.7,1.14-1.64,2.04-2.81,2.7-1.18,.66-2.47,.98-3.89,.98h-10.83Zm4.05-16.48h5.2c1.06,0,1.98-.33,2.75-.97,.77-.65,1.15-1.54,1.15-2.67,0-1.21-.38-2.11-1.15-2.72-.77-.6-1.68-.91-2.75-.91h-5.2v7.27Zm0,12.97h6.39c.83,0,1.59-.21,2.27-.62,.68-.42,1.22-.99,1.63-1.72,.4-.73,.6-1.56,.6-2.48,0-.81-.2-1.57-.6-2.29s-.94-1.3-1.63-1.74c-.68-.44-1.44-.66-2.27-.66h-6.39v9.52Z" class="d"/><path d="M380.67,119.04h4.32l-10.67,29.22h-4.3l3.53-9.74-6.99-19.48h4.42l4.6,13.93,5.1-13.93Z" class="d"/><path d="M418.87,111.25v4.05h-8.69v23.22h-4.05v-23.22h-8.67v-4.05h21.41Z" class="d"/><path d="M419.94,138.52v-19.48h4.05v2.06c.67-.8,1.51-1.44,2.49-1.91,.99-.47,2.05-.7,3.19-.7,.73,0,1.45,.1,2.16,.29l-1.62,4.09c-.51-.19-1.01-.29-1.52-.29-.86,0-1.64,.21-2.36,.63s-1.29,.99-1.71,1.7c-.43,.71-.64,1.51-.64,2.38v11.22h-4.05Z" class="d"/><path d="M433.4,131.22v-12.17h4.05v11.18c0,.87,.21,1.66,.64,2.38,.43,.71,1,1.28,1.71,1.7,.71,.42,1.5,.63,2.36,.63s1.66-.21,2.37-.63,1.27-.99,1.69-1.7,.63-1.51,.63-2.38v-11.18h4.05l.02,19.48h-4.05l-.02-2.1c-.66,.81-1.49,1.44-2.47,1.91-.99,.47-2.05,.7-3.17,.7-1.44,0-2.75-.35-3.93-1.05-1.18-.7-2.12-1.64-2.82-2.82s-1.05-2.49-1.05-3.93Z" class="d"/><path d="M463.14,139.03c-1.79,0-3.42-.46-4.9-1.38-1.47-.92-2.65-2.16-3.53-3.71s-1.31-3.27-1.31-5.15c0-1.43,.25-2.76,.76-4,.51-1.24,1.2-2.33,2.09-3.27,.89-.94,1.92-1.68,3.11-2.21,1.18-.53,2.44-.8,3.78-.8,1.79,0,3.42,.46,4.9,1.38s2.65,2.16,3.53,3.72c.88,1.56,1.32,3.29,1.32,5.18,0,1.42-.25,2.74-.76,3.97-.51,1.23-1.21,2.32-2.09,3.26-.89,.94-1.92,1.68-3.1,2.21-1.17,.53-2.44,.8-3.79,.8Zm0-4.05c1.08,0,2.04-.29,2.9-.86,.86-.57,1.54-1.33,2.04-2.27s.75-1.96,.75-3.07-.26-2.17-.77-3.12c-.51-.95-1.2-1.7-2.05-2.27-.86-.57-1.81-.85-2.86-.85s-2.03,.29-2.89,.86-1.54,1.33-2.04,2.28c-.5,.95-.75,1.98-.75,3.1s.26,2.2,.78,3.14c.52,.93,1.21,1.68,2.07,2.23,.86,.55,1.81,.83,2.83,.83Z" class="d"/><path d="M476.03,138.52v-19.48h4.05v2.06c.67-.8,1.51-1.44,2.49-1.91,.99-.47,2.05-.7,3.19-.7,.73,0,1.45,.1,2.16,.29l-1.62,4.09c-.51-.19-1.01-.29-1.52-.29-.86,0-1.64,.21-2.36,.63s-1.29,.99-1.71,1.7c-.43,.71-.64,1.51-.64,2.38v11.22h-4.05Z" class="d"/><path d="M504.39,119.04h4.05v19.48h-4.07l-.16-2.82c-.57,1-1.34,1.8-2.32,2.42-.97,.61-2.12,.92-3.45,.92-1.43,0-2.77-.27-4.03-.81-1.26-.54-2.37-1.29-3.32-2.25s-1.7-2.07-2.23-3.32c-.53-1.25-.8-2.6-.8-4.04s.26-2.7,.78-3.92c.52-1.23,1.24-2.3,2.16-3.22s1.99-1.65,3.2-2.17c1.21-.53,2.52-.79,3.91-.79s2.67,.32,3.75,.96c1.08,.64,1.98,1.46,2.7,2.46l-.17-2.88Zm-6.04,16.07c1.14,0,2.14-.28,3-.85,.86-.56,1.52-1.33,2-2.29,.47-.96,.71-2.03,.71-3.19s-.24-2.25-.72-3.21c-.48-.96-1.15-1.72-2-2.29s-1.85-.85-2.99-.85-2.16,.29-3.1,.86c-.93,.57-1.67,1.34-2.22,2.3-.55,.96-.82,2.03-.82,3.19s.28,2.25,.85,3.2c.56,.96,1.31,1.71,2.24,2.28s1.94,.85,3.05,.85Z" class="d"/></g></g></g></g></svg>