<svg xmlns="http://www.w3.org/2000/svg" width="250" height="250" fill="none"><g clip-path="url(#a)"><path fill="#59C1A7" d="m143.469 212.525 69.599-69.543-35.085-35.057-69.6 69.543 35.086 35.057Z" opacity=".25"/><path fill="#36C3F2" d="m177.549 142.555 35.086-35.057-69.599-69.543-35.086 35.057 69.599 69.543Z" opacity=".25"/><path fill="#EF3D55" d="m106.873 212.717 35.086-35.058-69.6-69.542-35.085 35.057 69.599 69.543Z" opacity=".15"/><path fill="#6A266D" d="m73.999 140.847 69.599-69.543-35.086-35.057-69.6 69.542L74 140.847Z" opacity=".15"/><path fill="#6A266D" d="M124.999 79.85c13.798 0 24.983-11.176 24.983-24.963 0-13.786-11.185-24.962-24.983-24.962S100.016 41.1 100.016 54.887c0 13.787 11.185 24.963 24.983 24.963Z"/><path fill="#36C3F2" d="M195.553 150.578c13.798 0 24.984-11.176 24.984-24.962 0-13.787-11.186-24.963-24.984-24.963-13.797 0-24.983 11.176-24.983 24.963 0 13.786 11.186 24.962 24.983 24.962Z"/><path fill="#59C1A7" d="M124.999 221.075c13.798 0 24.983-11.176 24.983-24.962 0-13.787-11.185-24.963-24.983-24.963s-24.983 11.176-24.983 24.963c0 13.786 11.185 24.962 24.983 24.962Z"/><path fill="#EF3D55" d="M54.561 150.347c13.798 0 24.983-11.176 24.983-24.963 0-13.786-11.185-24.962-24.983-24.962-13.797 0-24.983 11.176-24.983 24.962 0 13.787 11.186 24.963 24.983 24.963Z"/></g><defs><clipPath id="a"><path fill="#fff" d="M29 29h192v193H29z"/></clipPath></defs></svg>