<svg class="jamf-logo" xmlns="http://www.w3.org/2000/svg" viewBox="0 0 162 162" role="presentation" aria-hidden="true">
  <g transform="translate(40, 40) scale(2)">
    <path fill="#778eb1" d="M33.6,7 C28.1,7 24.8,9.3 23.3,14.3 L19.5,26.2 C18.1,30.1 15.8,31.7 11.7,31.7 L2.2,31.7 C1,31.7 0,32.7 0,33.9 L0,40 C0,41.1 0.9,42 2.1,42 L40.7,42 C41.9,42 42.9,41 42.9,39.8 L42.9,9.1 C42.9,7.9 42,7 40.8,7 L33.6,7 L33.6,7 Z M2.3,0 C1.1,0 0,1.1 0,2.3 L0,18.5 C0,19.8 1,20.8 2.3,20.8 L10.5,20.8 C14.2,20.8 19.4,20 20.8,13.4 C20.8,13.4 22.2,6.7 23,2.8 C23.3,1.3 22.2,-7.10542736e-15 20.7,-7.10542736e-15 L2.3,-7.10542736e-15 L2.3,0 Z"></path>
  </g>
</svg>
