<?xml version="1.0" encoding="UTF-8"?> <svg xmlns="http://www.w3.org/2000/svg" xmlns:xlink="http://www.w3.org/1999/xlink" version="1.1" id="Layer_1" x="0px" y="0px" viewBox="0 0 100.8 36.7" height = "250" width = "250" style="enable-background:new 0 0 100.8 36.7;" xml:space="preserve"> <style type="text/css"> .st0{fill:url(#SVGID_1_);} </style> <g> <linearGradient id="SVGID_1_" gradientUnits="userSpaceOnUse" x1="27.6213" y1="356.5822" x2="4.984" y2="386.6229" gradientTransform="matrix(1 0 0 1 0 -356)"> <stop offset="0" style="stop-color:#F6C755"></stop> <stop offset="0.2742" style="stop-color:#F3BF4F"></stop> <stop offset="0.6697" style="stop-color:#EEAD42"></stop> <stop offset="0.8015" style="stop-color:#ECA53C"></stop> </linearGradient> <path class="st0" d="M28.2,15.5V1.7c0,0,0-1.4-1.4-1.4H13c0,0-1.4,0-1.4,1.4v12.4c0,1.5-1.2,2.7-2.6,2.7H2c0,0-1.5,0-1.5,1.5v8.1 c0,0,0,1.5,1.5,1.5h6.8c1.5,0,2.8,1.2,2.8,2.8v4c0,0,0,1.6,1.6,1.6h2.4c0,0,1.6,0,1.6-1.6v-4c0-1.5,1.2-2.7,2.7-2.8h1.4 c0,0,1.5,0,1.5-1.5v-2.5c0,0,0-1.5-1.5-1.5h-2.6c0,0-1.5,0-1.5,1.5v1.3c0,1.5-1.3,2.7-2.8,2.7c-1.5,0-2.8-1.2-2.8-2.8l0,0v-5.5 c0-1.5,1.2-2.8,2.8-2.8h12.4C26.8,16.9,28.2,16.9,28.2,15.5"></path> <g> <path d="M26.1,35.5V23.1c0-0.4,0.3-0.8,0.8-0.8h0.6c0.4,0,0.7,0.3,0.7,0.8v12.3c0,0.5-0.3,0.8-0.7,0.8h-0.6 C26.3,36.2,26.1,36,26.1,35.5z"></path> <path d="M31.6,35.5V23.1c0-0.4,0.3-0.8,0.7-0.8H33c0.5,0,0.8,0.3,0.8,0.8v2.2c0.8-2.2,2.8-3.2,4.8-3.2c2.9,0,5.5,1.7,5.5,6.3v7.1 c0,0.5-0.3,0.8-0.8,0.8h-0.6c-0.5,0-0.8-0.3-0.8-0.8v-7.1c0-3.4-1.7-4.4-3.5-4.4c-1.5,0-4.7,1.1-4.7,5.5v6c0,0.5-0.3,0.8-0.8,0.8 h-0.6C31.9,36.2,31.6,36,31.6,35.5z"></path> <path d="M57.5,17.6v0.3c0,0.4-0.3,0.7-0.7,0.7h-7.2v7.2h6.6c0.5,0,0.8,0.3,0.8,0.8v0.3c0,0.5-0.3,0.8-0.8,0.8h-6.6v7.8 c0,0.5-0.3,0.8-0.8,0.8h-0.7c-0.5,0-0.8-0.3-0.8-0.8V17.6c0-0.5,0.4-0.8,0.8-0.8h8.6C57.4,16.8,57.5,17.1,57.5,17.6z"></path> <path d="M59.9,35.5L60,17.5c0-0.5,0.3-0.8,0.8-0.8h0.6c0.4,0,0.7,0.3,0.7,0.8L62,35.5c0,0.5-0.3,0.8-0.7,0.8h-0.6 C60.2,36.2,59.9,36,59.9,35.5z"></path> <path d="M64.5,29.3c0-4,3.3-7.2,7.2-7.2c4,0,7.3,3.3,7.3,7.2c0,4-3.3,7.2-7.3,7.2C67.7,36.5,64.5,33.3,64.5,29.3z M76.8,29.4 c0-2.9-2.3-5.4-5.2-5.4c-2.8,0-5.1,2.4-5.1,5.4s2.3,5.3,5.1,5.3C74.5,34.6,76.8,32.3,76.8,29.4z"></path> <path d="M84.3,35.6l-4.7-12.4c-0.2-0.5,0.1-0.9,0.6-0.9h0.6c0.4,0,0.7,0.2,0.9,0.6l3.8,10.4l3.3-9.9c0.1-0.4,0.4-0.6,0.8-0.6h0.5 c0.4,0,0.7,0.2,0.8,0.6l3.3,9.9L98.3,23c0.1-0.4,0.4-0.6,0.8-0.6h0.7c0.5,0,0.8,0.3,0.6,0.9l-4.7,12.4c-0.1,0.4-0.4,0.6-0.9,0.6 h-0.8c-0.4,0-0.7-0.2-0.8-0.6L90,25.9l-3.3,9.8c-0.1,0.4-0.4,0.6-0.8,0.6h-0.8C84.7,36.2,84.5,36,84.3,35.6z"></path> </g> </g> <g> </g> <g> </g> <g> </g> <g> </g> <g> </g> <g> </g> </svg> 
