<svg xmlns="http://www.w3.org/2000/svg" width="250" height="250" fill="none"><g clip-path="url(#a)"><path fill="#E84352" d="M26.387 205.824c0-53.505 0-107.01.118-160.567.284-.24.542-.404.601-.621 2.497-9.072 8.316-14.843 17.299-17.51.234-.07.365-.485.544-.74 53.505 0 107.01 0 160.568.119.303.291.531.553.808.626 4.1 1.078 7.667 3.122 10.708 6.039 3.247 3.114 5.407 6.9 6.616 11.239.064.23.484.362.738.54 0 53.505 0 107.01-.118 160.568-.284.24-.542.403-.602.621-2.496 9.071-8.317 14.84-17.298 17.509-.234.07-.366.486-.545.74-53.505 0-107.01 0-160.567-.118-.24-.284-.404-.542-.621-.602-9.072-2.496-14.84-8.318-17.51-17.298-.07-.234-.485-.366-.74-.545Zm40.572-39.991c4.944 5.812 10.868 10.416 17.536 14.063 14.53 7.949 30.171 10.915 46.581 9.924 14.657-.886 28.36-4.955 40.611-13.262 10.258-6.956 17.933-15.948 21.67-27.997 1.868-6.025 1.61-12.214 1.624-18.38.041-16.944.044-33.889.003-50.833-.025-10.583-8.042-18.562-18.624-18.568-33.824-.018-67.649-.016-101.473-.002-11.259.005-19.091 7.83-19.105 19.064-.019 14.56-.012 29.121 0 43.682.003 3.347.28 6.708.075 10.04-.753 12.212 3.157 22.779 11.102 32.269Z"/><path fill="#fff" d="M66.871 165.728c-7.856-9.384-11.766-19.952-11.014-32.164.206-3.332-.071-6.693-.074-10.04-.013-14.561-.02-29.121 0-43.682.013-11.233 7.846-19.06 19.105-19.064 33.824-.014 67.648-.016 101.473.003 10.582.005 18.598 7.984 18.624 18.567.04 16.944.037 33.889-.003 50.833-.015 6.166.244 12.355-1.625 18.38-3.737 12.049-11.412 21.041-21.67 27.997-12.25 8.307-25.954 12.376-40.61 13.262-16.411.991-32.05-1.975-46.582-9.924-6.668-3.647-12.592-8.251-17.624-14.168Zm51.215-44.449c-7.429-7.425-14.829-14.882-22.302-22.264-3.743-3.698-9.405-3.67-13.029-.091-3.624 3.579-3.763 9.317-.08 13.029a6633.97 6633.97 0 0 0 36.087 36.091c3.637 3.61 9.5 3.683 13.121.097 12.18-12.062 24.286-24.197 36.369-36.357 2.47-2.486 3.087-5.623 2.093-8.956-2.033-6.815-10.359-8.79-15.523-3.663-9.33 9.261-18.601 18.582-27.9 27.874-.488.487-1.006.943-1.632 1.528a23363.2 23363.2 0 0 0-7.204-7.288Z"/><path fill="#E84352" d="m118.181 121.376 7.107 7.191c.626-.585 1.145-1.041 1.632-1.528 9.299-9.292 18.57-18.613 27.9-27.875 5.165-5.127 13.49-3.151 15.523 3.664.994 3.333.378 6.47-2.093 8.956-12.082 12.16-24.189 24.295-36.368 36.357-3.621 3.586-9.485 3.513-13.121-.097a6634.08 6634.08 0 0 1-36.088-36.091c-3.683-3.712-3.543-9.45.08-13.03 3.624-3.579 9.286-3.606 13.03.092 7.473 7.382 14.872 14.839 22.398 22.361Z"/></g><defs><clipPath id="a"><path fill="#fff" d="M26 26h198v198H26z"/></clipPath></defs></svg>