<?xml version="1.0" encoding="utf-8"?>
<svg version="1.1" id="Layer_1" xmlns="http://www.w3.org/2000/svg" xmlns:xlink="http://www.w3.org/1999/xlink" x="0px" y="0px"
	 width="166px" height="166px" viewBox="0 -32 166 132" style="enable-background:new 0 0 166 166;" xml:space="preserve">
<style type="text/css">
	.st0{fill:#089949;}
</style>
<g>
	<g>
		<g>
			<path d="M78,34.5h8c7.8,0,12.5,4,12.5,12c0,7.7-5,11.8-12.5,11.8h-8V34.5z M85.9,54.6c5.5,0,7.8-3.2,7.8-8.4
				c0-5.4-2.4-8.2-7.9-8.2h-3.2v16.6H85.9z"/>
			<path d="M117.6,54.5c-1.4,3.1-4.6,4.1-7.8,4.1c-5.5,0-8.9-3.7-8.9-9.1c0-5.1,3.5-9,8.8-9c5.6,0,8.4,3.3,8.4,10h-12.9
				c0,2.9,1.7,5.1,4.9,5.1c1.9,0,3.4-0.8,4.3-2.5L117.6,54.5z M113.8,47.7c-0.1-2.6-1.7-4.2-4.2-4.2c-2.6,0-4.1,1.8-4.5,4.2H113.8z"
				/>
			<path d="M123.2,53.1c0.6,1.7,2.4,2.5,4.3,2.5c1.3,0,3-0.4,3-2.1c0-1.7-1.9-2.2-4-2.6c-2.8-0.6-5.9-1.3-5.9-5.2
				c0-3.6,3.3-5.3,6.5-5.3c2.8,0,5.9,1,7.1,3.8l-3.1,1.3c-0.7-1.6-2.4-2.1-3.8-2.1c-1.4,0-2.7,0.6-2.7,2c0,1.6,1.7,1.9,3.8,2.3
				c2.8,0.6,6.2,1.2,6.2,5.3c0,4.1-3.4,5.5-7.1,5.5c-3.1,0-6.4-1-7.5-4.2L123.2,53.1z"/>
			<path d="M137.9,33h4.2v15.5l6.3-7.6h4.6l-6.9,8l7.4,9.4h-4.8l-6.6-8.5v8.5h-4.2L137.9,33L137.9,33z"/>
		</g>
		<g>
			<path d="M78.1,26.9l7.7-11.1h-6.9v-2.2h10.5v1.1l-7.5,11.1h7.2V28h-11V26.9z"/>
			<path d="M95.9,17.3c3.2,0,5.6,2.2,5.6,5.4c0,3.3-2.6,5.5-5.7,5.5c-3.2,0-5.8-2.2-5.8-5.4C90,19.5,92.7,17.3,95.9,17.3z
				 M98.8,22.8c0-1.9-1-3.5-3-3.5c-2.1,0-3,1.7-3,3.6c0,1.9,1,3.4,3,3.4C97.9,26.3,98.8,24.6,98.8,22.8z"/>
			<path d="M103.3,12.8h2.5v6.4c0.7-1.3,2-1.9,3.5-1.9c2.5,0,3.8,1.8,3.8,4.1V28h-2.5v-6.3c0-1.5-0.8-2.3-2.2-2.3
				c-1.6,0-2.5,1-2.5,2.5V28h-2.5V12.8z"/>
			<path d="M120.6,17.3c3.2,0,5.6,2.2,5.6,5.4c0,3.3-2.6,5.5-5.7,5.5c-3.2,0-5.8-2.2-5.8-5.4C114.7,19.5,117.5,17.3,120.6,17.3z
				 M123.5,22.8c0-1.9-1-3.5-3-3.5c-2.1,0-3,1.7-3,3.6c0,1.9,1,3.4,3,3.4C122.6,26.3,123.5,24.6,123.5,22.8z"/>
		</g>
	</g>
	<g>
		<path class="st0" d="M18.5,66c-0.3,0-0.7-0.1-1-0.3c-0.6-0.4-0.9-1.1-0.8-1.7l5-30.9c0.3-1.7,1.1-3.1,2.4-4.2
			c1.3-1.1,2.9-1.7,4.6-1.7h20.7l1.2-7.1h-1.9c-0.9,0-1.7-0.4-2.2-1c-0.6-0.7-0.8-1.5-0.7-2.4L47,8.4C47.3,7,48.5,6,49.9,6h7.7
			c2.1,0,4,0.9,5.4,2.5c1.3,1.6,1.9,3.6,1.6,5.7l-3.1,19.1c-0.1,0.8-0.6,1.6-1.3,2L42.8,46c-1.1,0.6-2.4,0.6-3.4-0.2l-8.1-6.4
			c-0.8-0.6-0.9-1.7-0.3-2.5c0.6-0.8,1.7-0.9,2.5-0.3l7.8,6.2l16.8-10.4l3.1-18.9c0.2-1-0.1-2-0.8-2.8c-0.7-0.8-1.6-1.2-2.7-1.2
			h-7.2l-1.1,7h1.9c0.9,0,1.7,0.4,2.2,1c0.6,0.7,0.8,1.5,0.7,2.4l-1.3,8.3c-0.2,1.4-1.4,2.5-2.9,2.5H28.7c-1.7,0-3.2,1.2-3.5,3
			l-4.4,27.1l6.2-3.8c0.5-0.3,1-0.4,1.6-0.4h22.7c1.7,0,3.2-1.2,3.5-3l1.4-8.7c0.2-1,1.1-1.6,2-1.4c1,0.2,1.6,1.1,1.4,2L58.1,54
			c-0.3,1.7-1.1,3.1-2.4,4.2c-1.3,1.1-2.9,1.7-4.6,1.7H28.7l-9.3,5.8C19.1,65.9,18.8,66,18.5,66z"/>
	</g>
</g>
</svg>
