<svg width="250" height="250" viewBox="0 0 250 250" fill="none" xmlns="http://www.w3.org/2000/svg">
<path d="M149.016 71.2065C142.779 79.5495 141.321 82.3035 135.327 82.3035H45.6602V188.899H80.8142C88.7522 188.899 96.4472 185.092 101.388 178.693C107.787 170.188 108.678 167.597 114.915 167.597H204.744V61.0005H169.347C161.409 61.0005 153.714 64.8075 149.016 71.2065ZM176.88 140.056H139.377C131.196 140.056 123.744 143.458 118.803 150.1C112.404 158.605 111.108 161.197 105.114 161.197H73.2812V110.086H110.784C118.965 110.086 126.417 106.279 131.358 99.8805C137.757 91.5375 139.539 89.0265 145.29 89.0265H176.799V140.056H176.88Z" fill="#212121"/>
</svg>
