<?xml version="1.0" encoding="utf-8"?>
<svg xmlns="http://www.w3.org/2000/svg" viewBox="48.7214 4.3055 204.2097 133.9754" width="250px" height="250px">
  <defs>
    <style type="text/css">
	.st0{fill:#FFFFFF;}
</style>
  </defs>
  <path class="st0" d="M 248.93 45.97 L 219.163 -47.055 C 218.579 -48.789 217.703 -50.811 216.536 -52.544 C 210.116 -61.789 197.275 -63.811 187.936 -57.456 L 54.568 35.859 C 45.229 42.214 43.186 54.926 49.607 64.171 C 53.693 69.66 59.821 72.838 66.241 72.838 L 229.669 72.838 C 241.05 72.838 250.097 63.882 250.097 52.615 C 250.097 50.015 249.513 47.992 248.93 45.97 Z M 182.683 -14.41 L 100.97 42.214 C 100.094 42.792 98.927 43.081 98.051 43.081 C 96.592 43.081 94.841 42.214 93.966 40.77 C 92.215 38.459 92.798 35.281 95.133 33.836 L 176.847 -22.788 C 179.181 -24.521 182.392 -23.943 183.851 -21.632 C 185.602 -19.032 185.018 -15.854 182.683 -14.41 Z" style="" transform="matrix(1, 0, 0, 1, 2.8341391086578387, 65.44283294677734)"/>
</svg>
