<?xml version="1.0" encoding="UTF-8"?>
<svg version="1.1" xmlns="http://www.w3.org/2000/svg" width="250" height="250">
<path d="M0 0 C82.5 0 165 0 250 0 C250 82.5 250 165 250 250 C167.5 250 85 250 0 250 C0 167.5 0 85 0 0 Z " fill="#FEFEFE" transform="translate(0,0)"/>
<path d="M0 0 C9.76678697 5.31240188 11.47550817 17.84732188 14.5703125 27.71875 C15.01018388 29.10891318 15.45048395 30.49894078 15.89118958 31.88883972 C16.80780275 34.78322795 17.72108227 37.67863717 18.6315918 40.57495117 C19.79725627 44.28287047 20.96852849 47.98898628 22.14193249 51.69446278 C23.26566621 55.24366524 24.38694754 58.79364069 25.5078125 62.34375 C25.72054495 63.0170466 25.9332774 63.69034321 26.15245628 64.38404274 C26.75425726 66.29052005 27.3541009 68.19761487 27.95385742 70.10473633 C28.46537605 71.72947624 28.46537605 71.72947624 28.98722839 73.38703918 C30.90862008 79.72436163 32.32174677 85.34518331 29.15234375 91.44921875 C23.70563012 97.92639172 23.70563012 97.92639172 19.31195259 98.56886292 C15.98263261 98.72201367 12.67487886 98.73933111 9.34204102 98.71679688 C8.0732309 98.72380615 6.80442078 98.73081543 5.49716187 98.73803711 C2.02386934 98.75624534 -1.44894699 98.74921321 -4.92224765 98.73652077 C-8.56162703 98.72637775 -12.20096626 98.73579025 -15.84034729 98.74206543 C-21.95263978 98.74933901 -28.06473884 98.73976285 -34.17700195 98.72070312 C-41.23614343 98.69894448 -48.29482259 98.70597925 -55.35395283 98.72800875 C-61.42122864 98.74618278 -67.48836557 98.74871105 -73.55565983 98.73825407 C-77.17649569 98.73202881 -80.79711454 98.7311564 -84.41793633 98.74440002 C-88.45655391 98.75814028 -92.49437954 98.7390764 -96.53295898 98.71679688 C-97.72847885 98.7248938 -98.92399872 98.73299072 -100.15574646 98.74133301 C-106.45596316 98.67692302 -110.40816467 98.50079842 -115.16015625 94.19921875 C-118.87821792 89.99193843 -119.76939128 86.7539697 -119.46875 81.296875 C-118.41346967 74.12364032 -111.36938701 69.60249101 -105.90673828 65.51171875 C-103.52709934 63.82212974 -101.13010904 62.16142288 -98.72265625 60.51171875 C-96.94638764 59.28157764 -95.17034972 58.05110334 -93.39453125 56.8203125 C-92.07291992 55.90741455 -92.07291992 55.90741455 -90.72460938 54.97607422 C-86.95720877 52.36572182 -83.21379209 49.72201455 -79.47265625 47.07421875 C-78.08336398 46.09240455 -76.69404117 45.11063356 -75.3046875 44.12890625 C-74.62229004 43.64647461 -73.93989258 43.16404297 -73.23681641 42.66699219 C-69.71248109 40.17600889 -66.18620924 37.68776972 -62.66015625 35.19921875 C-61.24348057 34.19923153 -59.82681389 33.19923153 -58.41015625 32.19921875 C-49.91015625 26.19921875 -49.91015625 26.19921875 -47.78271484 24.69750977 C-46.37416813 23.70323197 -44.96563932 22.70892882 -43.55712891 21.71459961 C-39.89137755 19.12683559 -36.22526303 16.53958825 -32.55859375 13.953125 C-31.80126953 13.41880859 -31.04394531 12.88449219 -30.26367188 12.33398438 C-28.8275906 11.3207982 -27.391401 10.30776552 -25.95507812 9.29492188 C-25.29830078 8.83150391 -24.64152344 8.36808594 -23.96484375 7.890625 C-23.3315918 7.44477051 -22.69833984 6.99891602 -22.04589844 6.53955078 C-20.76367849 5.62818523 -19.48848318 4.70687258 -18.21972656 3.77685547 C-12.46216705 -0.43198387 -6.96956615 -2.58365472 0 0 Z " fill="#2123AB" transform="translate(169.16015625,75.80078125)"/>
<path d="M0 0 C0.495 2.475 0.495 2.475 1 5 C-7.98509108 11.35474058 -16.98091996 17.69357026 -26 24 C-32.44650756 28.50813006 -38.88603455 33.02583661 -45.3125 37.5625 C-45.98732422 38.03880859 -46.66214844 38.51511719 -47.35742188 39.00585938 C-47.99873047 39.45896484 -48.64003906 39.91207031 -49.30078125 40.37890625 C-49.91501953 40.81138672 -50.52925781 41.24386719 -51.16210938 41.68945312 C-52.42784767 42.59201465 -53.68390305 43.5082596 -54.93164062 44.43554688 C-59.70430067 47.96143052 -59.70430067 47.96143052 -62.875 48.375 C-65 48 -65 48 -66 47 C-66.46875 44.7578125 -66.46875 44.7578125 -66 42 C-63.85732803 40.02356982 -61.89483301 38.48797919 -59.5 36.875 C-58.48329224 36.16114136 -58.48329224 36.16114136 -57.44604492 35.43286133 C-55.30856736 33.93827484 -53.15587827 32.46788429 -51 31 C-49.71415474 30.11167359 -48.42897611 29.22238132 -47.14453125 28.33203125 C-44.5437598 26.53405743 -41.93610825 24.74662224 -39.32421875 22.96484375 C-34.39808073 19.59759561 -29.51098143 16.17515363 -24.625 12.75 C-23.81716064 12.18369873 -23.00932129 11.61739746 -22.17700195 11.03393555 C-21.38898193 10.48133057 -20.60096191 9.92872559 -19.7890625 9.359375 C-19.00821289 8.81732422 -18.22736328 8.27527344 -17.42285156 7.71679688 C-15.71039103 6.50337261 -14.02152759 5.25631769 -12.35058594 3.98632812 C-11.47950195 3.33599609 -10.60841797 2.68566406 -9.7109375 2.015625 C-8.9276709 1.41524414 -8.1444043 0.81486328 -7.33740234 0.19628906 C-4.43803257 -1.2876165 -3.04983475 -0.95201837 0 0 Z " fill="#F6F6FB" transform="translate(151,104)"/>
</svg>
