<svg xmlns="http://www.w3.org/2000/svg" xmlns:xlink="http://www.w3.org/1999/xlink" viewBox="0 0 188 40.78"><defs><style>.a{fill:none;}.b{clip-path:url(#a);}.c{fill:#5b6670;}.d{fill:#00b2e3;}</style><clipPath id="a" transform="translate(0)"><rect class="a" width="188" height="40.78"/></clipPath></defs><title>Asset 2</title><g class="b"><path class="c" d="M16.32,20.39H24.5v6a13,13,0,0,1-7.72,2.42C10.24,28.8,5.9,24,5.9,17.37v-.09C5.9,11.16,10.38,6,16.27,6a12.49,12.49,0,0,1,9,3.43L28.8,5.17C25.51,2.38,22.08.82,16.5.82A16.31,16.31,0,0,0,0,17.37v.09c0,9.33,6.58,16.46,16.59,16.46a20.38,20.38,0,0,0,13.35-5V15.5H16.32Z" transform="translate(0)"/><path class="c" d="M42.66,8.91a20.68,20.68,0,0,0-9.19,2L35,15.36a16.83,16.83,0,0,1,6.9-1.51c3.84,0,5.94,1.83,5.94,5.17v.45a20.38,20.38,0,0,0-6.67-1c-5.62,0-9.78,2.56-9.78,7.91v.09c0,4.85,4,7.45,8.59,7.45a9.78,9.78,0,0,0,7.82-3.47v3h5.49V19.11c0-6.45-3.48-10.2-10.61-10.2m5.26,15.78c0,3-2.75,5.07-6.4,5.07-2.61,0-4.67-1.28-4.67-3.57V26.1c0-2.33,2.06-3.75,5.53-3.75a15.81,15.81,0,0,1,5.54,1Z" transform="translate(0)"/><rect class="c" x="56.39" y="9.31" width="5.53" height="24.14"/><rect class="c" x="56.16" y="0.35" width="5.94" height="5.26"/><path class="c" d="M70.78,19.83c0-3.75,2.24-6,5.44-6s5.17,2.15,5.17,5.89V33.45h5.53V18.09c0-5.62-3.15-9.28-8.6-9.28a8.69,8.69,0,0,0-7.54,4.25V9.31H65.25V33.45h5.53Z" transform="translate(0)"/><path class="c" d="M98.11,29.53a13.53,13.53,0,0,1-7.91-3l-2.47,3.75A17,17,0,0,0,98,33.92c5,0,9-2.51,9-7.59v-.09c0-4.34-4-5.94-7.49-7C96.6,18.29,94,17.55,94,15.82v-.09c0-1.42,1.23-2.43,3.38-2.43a14,14,0,0,1,6.81,2.29l2.19-3.93a16.74,16.74,0,0,0-8.86-2.75c-4.8,0-8.6,2.79-8.6,7.37v.09c0,4.61,4,6.08,7.54,7.08,2.84.87,5.4,1.51,5.4,3.38v.1c0,1.6-1.37,2.6-3.75,2.6" transform="translate(0)"/><rect class="c" x="108.28" y="0.27" width="5.94" height="5.26"/><polygon class="c" points="108.51 9.31 108.51 33.45 110.71 33.45 114.04 33.45 114.04 32.1 114.04 9.31 108.51 9.31"/><path class="c" d="M135.33,12.85a10.43,10.43,0,0,0-8.46-4.12A10.79,10.79,0,0,0,116,18.2a14,14,0,0,0-.14,1.87v.09a11,11,0,0,0,4.39,9.16,12,12,0,0,0,1.17.73l.29.15,8.6-3.69a8,8,0,0,1-1,.21,9.08,9.08,0,0,1-1,.07l-.49,0a7.47,7.47,0,0,1-.95-.12,6.71,6.71,0,0,1-3.49-1.78,6.38,6.38,0,0,1-1-1.32c-.09-.16-.17-.32-.25-.48a6.5,6.5,0,0,1-.51-1.6,1.16,1.16,0,0,1,0-.18,7.49,7.49,0,0,1-.09-1.17V20a7.28,7.28,0,0,1,.13-1.42c0-.14.07-.27.1-.4a6.65,6.65,0,0,1,.3-.89,6.5,6.5,0,0,1,.62-1.13,6.27,6.27,0,0,1,1.85-1.74,7.33,7.33,0,0,1,3.86-1,7.62,7.62,0,0,1,3.72,1l.42.25a7.74,7.74,0,0,1,.84.64,6.46,6.46,0,0,1,1.23,1.52,6.54,6.54,0,0,1,.3.59,6.15,6.15,0,0,1,.31.85,7.1,7.1,0,0,1,.26,1.87v.09a6.63,6.63,0,0,1-.23,1.69,6.25,6.25,0,0,1-.77,1.77c-.1.15-.2.3-.31.44a6.83,6.83,0,0,1-.73.79l-.41.35a4.29,4.29,0,0,1-.35.28l-.32.2L140.86,22V9.23h-5.53Z" transform="translate(0)"/><path class="c" d="M149.51,18.11a6.37,6.37,0,0,1,.21-.78,5.07,5.07,0,0,1,1.9-2.63,4.87,4.87,0,0,1,1.45-.7,5.89,5.89,0,0,1,1.71-.24,5.12,5.12,0,0,1,.69,0,5.18,5.18,0,0,1,1.22.27,4.53,4.53,0,0,1,.55.23,4.17,4.17,0,0,1,.55.32.39.39,0,0,0,.1.08l6-2.57,0-.05c-.08-.12-.15-.24-.24-.35a8.1,8.1,0,0,0-6.72-3A8.7,8.7,0,0,0,149.34,13V0h-5.53V20.74l5.67-2.43" transform="translate(0)"/><polygon class="c" points="173.59 2.6 168.06 2.6 168.06 9.82 168.06 10.17 173.59 7.84 173.59 2.6"/><path class="d" d="M131.42,26.14a8,8,0,0,1-1.07.37l-8.6,3.69a11.16,11.16,0,0,0,5.12,1.25A10.14,10.14,0,0,0,135.38,27v1.87a8.05,8.05,0,0,1-1.22,4.61c-1.24,1.84-3.41,2.8-6.42,2.8a15.67,15.67,0,0,1-8.59-2.56l-2.06,4.16a20.84,20.84,0,0,0,10.79,2.88c4.34,0,7.72-1.05,9.92-3.25a9.77,9.77,0,0,0,2.36-4,16.83,16.83,0,0,0,.7-5.07V22l-8.56,3.68c-.29.17-.58.32-.88.46" transform="translate(0)"/><path class="d" d="M157.89,14.7a5.14,5.14,0,0,1,1.94,3.5,9.59,9.59,0,0,1,.12,1.46V33.37h5.53V18a10.37,10.37,0,0,0-1.61-5.88Z" transform="translate(0)"/><path class="d" d="M143.81,33.37h5.53V19.75a7.25,7.25,0,0,1,.14-1.44l-5.67,2.43Z" transform="translate(0)"/><path class="d" d="M188,2.36V1.81h0v0L176.28,6.71l-8.22,3.46V26.7c0,4.14,1.76,6.13,4.47,6.8a10.24,10.24,0,0,0,2.48.28,11,11,0,0,0,2.55-.28,8.86,8.86,0,0,0,2.43-1V28a7.38,7.38,0,0,1-3.42.83c-1.88,0-3-.87-3-3v-12l14.37-6v0l0,0Z" transform="translate(0)"/></g></svg>