<svg width="250" height="250" viewBox="0 0 250 250" fill="none" xmlns="http://www.w3.org/2000/svg">
    <path d="M40.625 40.625C96.3125 40.625 152 40.625 209.375 40.625C209.375 96.3125 209.375 152 209.375 209.375C153.687 209.375 98 209.375 40.625 209.375C40.625 153.687 40.625 98 40.625 40.625Z" fill="#08223D"/><path d="M124.999 103.394C126.494 103.986 127.491 105.058 128.592 106.186C128.774 106.368 128.955 106.549 129.142 106.737C130.169 107.775 131.146 108.842 132.099 109.948C133.445 111.501 134.885 112.941 136.352 114.38C138.039 116.035 139.651 117.716 141.194 119.507C142.33 120.785 143.554 121.972 144.774 123.169C149.805 128.103 149.805 128.103 151 130.493C145.441 130.493 139.882 130.493 134.154 130.493C134.154 148.5 134.154 166.506 134.154 185.059C128.112 185.059 122.069 185.059 115.844 185.059C115.844 167.052 115.844 149.045 115.844 130.493C110.526 130.493 105.209 130.493 99.7305 130.493C100.443 129.068 101.049 128.376 102.18 127.289C103.271 126.221 104.331 125.16 105.315 123.993C106.747 122.315 108.322 120.783 109.897 119.241C110.992 118.163 112.039 117.068 113.04 115.902C114.833 113.825 116.809 111.933 118.763 110.01C120.359 108.429 121.899 106.829 123.355 105.118C123.88 104.516 124.427 103.951 124.999 103.394Z" fill="#2895F8"/><path d="M134 130.25H116L134 144.5V130.25Z" fill="#1E7BD2"/><path d="M159.425 65.3076C160.605 65.8259 161.386 66.4481 162.286 67.3676C162.629 67.7145 162.629 67.7145 162.98 68.0685C163.677 68.8167 164.346 69.5772 165.014 70.3516C166.377 71.918 167.831 73.3756 169.312 74.8291C171.004 76.488 172.62 78.1725 174.166 79.9675C175.24 81.1783 176.397 82.3024 177.552 83.4351C179.204 85.0691 180.818 86.7048 182.314 88.4848C183.139 89.4282 184.045 90.2851 184.955 91.1455C185.426 91.6748 185.426 91.6748 185.426 92.4072C179.625 92.4072 173.824 92.4072 167.848 92.4072C167.848 122.982 167.848 153.557 167.848 185.059C162.53 185.059 157.213 185.059 151.734 185.059C151.734 154.484 151.734 123.909 151.734 92.4072C145.934 92.4072 140.133 92.4072 134.156 92.4072C134.9 90.9194 135.603 90.1641 136.788 89.0198C137.955 87.8806 139.1 86.7415 140.153 85.495C141.32 84.1252 142.582 82.8682 143.861 81.604C145.116 80.3625 146.359 79.1314 147.5 77.7817C148.918 76.1073 150.496 74.5938 152.054 73.0516C153.4 71.7146 154.684 70.3525 155.91 68.9039C157.017 67.643 158.225 66.4793 159.425 65.3076Z" fill="#4ACF27"/><path d="M167.75 92.375H152L167.75 106.625V92.375Z" fill="#44A53D"/><path d="M89.8428 65.3076C92.2863 66.3556 94.0581 68.6723 95.7479 70.6635C97.057 72.1938 98.4837 73.5962 99.9136 75.0122C101.536 76.619 103.115 78.2268 104.588 79.9732C105.597 81.1091 106.689 82.1616 107.77 83.228C108.949 84.3968 110.046 85.6066 111.119 86.8711C112.204 88.0785 113.37 89.2043 114.542 90.3273C114.989 90.7632 115.418 91.2177 115.844 91.6748C115.844 91.9165 115.844 92.1582 115.844 92.4072C110.043 92.4072 104.242 92.4072 98.2656 92.4072C98.2656 122.982 98.2656 153.557 98.2656 185.059C92.9482 185.059 87.6309 185.059 82.1523 185.059C82.1523 154.484 82.1523 123.909 82.1523 92.4072C76.3516 92.4072 70.5508 92.4072 64.5742 92.4072C65.2256 91.1046 65.6418 90.5345 66.657 89.5691C67.6203 88.6316 68.5358 87.6885 69.4036 86.6623C70.5963 85.2722 71.8787 83.9894 73.1802 82.7026C74.4357 81.4612 75.6787 80.23 76.8194 78.8803C78.2385 77.2051 79.8167 75.6908 81.3759 74.1478C82.697 72.8353 83.9538 71.4982 85.1564 70.0755C86.6375 68.4109 88.255 66.8696 89.8428 65.3076Z" fill="#FDC401"/><path d="M98.1882 92.375H82.25L98.1882 106.625V92.375Z" fill="#C59D08"/>
</svg>
