<?xml version="1.0" encoding="UTF-8"?>
<svg version="1.1" xmlns="http://www.w3.org/2000/svg" width="600" height="600">
<path d="M0 0 C1.07975098 0.18272461 2.15950195 0.36544922 3.27197266 0.55371094 C69.87680186 12.29899572 134.67417851 48.78287948 176 103 C176.92824365 104.18761082 177.85663929 105.37510285 178.78515625 106.5625 C225.13514597 166.44732258 245.51466035 242.93341586 236 318 C229.35124123 366.34038726 211.38039067 411.9802256 182 451 C181.56719727 451.5770166 181.13439453 452.1540332 180.68847656 452.74853516 C173.96451616 461.65569526 166.75546795 469.97878215 159 478 C158.36868164 478.65323242 157.73736328 479.30646484 157.08691406 479.97949219 C149.10606939 488.19222581 141.09318081 496.01844318 132 503 C130.49759766 504.19302734 130.49759766 504.19302734 128.96484375 505.41015625 C115.47765961 516.06817984 101.17609413 524.95109935 86 533 C85.32855957 533.35835937 84.65711914 533.71671875 83.96533203 534.0859375 C57.78353796 547.95570543 29.18060669 557.0857725 0 562 C-0.96679688 562.16371094 -1.93359375 562.32742188 -2.9296875 562.49609375 C-59.49529023 571.57359764 -119.74779165 562.42647483 -171 537 C-172.25635254 536.38801758 -172.25635254 536.38801758 -173.53808594 535.76367188 C-192.77625029 526.33531598 -210.52262029 514.68091887 -227 501 C-227.8350708 500.31719971 -227.8350708 500.31719971 -228.68701172 499.62060547 C-241.43171168 489.17597376 -253.69553241 477.7662059 -263.84228516 464.74267578 C-265.93683953 462.0802834 -268.09329666 459.48190045 -270.265625 456.8828125 C-317.65776335 399.00864826 -336.14235497 323.1736663 -329.37109375 249.59326172 C-323.66616639 194.3530506 -301.05167477 142.77575373 -266 100 C-265.31067383 99.15405273 -265.31067383 99.15405273 -264.60742188 98.29101562 C-253.37519905 84.59051574 -241.02543144 71.85324994 -227 61 C-225.94743361 60.14803408 -224.89674533 59.29374415 -223.84765625 58.4375 C-184.14396952 26.25406351 -136.34919842 6.68250214 -86 -1 C-85.25443848 -1.11859375 -84.50887695 -1.2371875 -83.74072266 -1.359375 C-56.72851731 -5.46527909 -26.83928431 -4.60829451 0 0 Z " fill="#277ABE" transform="translate(347,19)"/>
<path d="M0 0 C1.07975098 0.18272461 2.15950195 0.36544922 3.27197266 0.55371094 C69.82181507 12.28929919 134.75505266 48.76106925 176 103 C176.4635791 103.60312012 176.9271582 104.20624023 177.40478516 104.82763672 C196 129.0461878 196 129.0461878 196 132 C175.54173046 132.17479588 155.08339603 132.3407563 134.625 132.5 C133.86203487 132.50594854 133.09906975 132.51189708 132.31298447 132.51802588 C87.70816075 132.86525288 43.10638706 133.09591928 -1.5 133.0625 C-2.65111015 133.06164398 -3.80222031 133.06078796 -4.98821259 133.05990601 C-18.65882613 133.04894661 -32.32941424 133.02958856 -46 133 C-45.97265274 133.81656067 -45.94530548 134.63312134 -45.91712952 135.47442627 C-45.15435024 158.66877064 -44.72448082 181.85793816 -44.46736908 205.06305695 C-44.43697946 207.79682648 -44.40573537 210.53058524 -44.37432861 213.26434326 C-44.18049303 230.23573212 -43.99630765 247.20740663 -43.90234375 264.1796875 C-43.89699112 265.06898956 -43.89163849 265.95829163 -43.88612366 266.87454224 C-43.8209093 282.02300685 -43.98331473 297.15996172 -44.41207695 312.30212784 C-45.08589681 336.57336082 -45.36556132 360.8450249 -45.4375 385.125 C-45.44124634 386.1908218 -45.44499268 387.2566436 -45.44885254 388.35476303 C-45.55883961 422.92503372 -44.27643712 456.93287373 -39.91468811 491.24247742 C-39.3274838 495.86420304 -38.83477467 500.32795887 -39 505 C-53.04328666 493.12010316 -65.9977835 480.11800815 -78.9375 467.0625 C-81.98528059 463.98788641 -85.03654738 460.91679126 -88.08984375 457.84765625 C-88.76707993 457.16212173 -89.4443161 456.47658722 -90.14207458 455.77027893 C-93.32694419 452.56926658 -96.55074004 449.47743989 -99.97143555 446.52856445 C-104.31128667 442.78370436 -108.33885507 438.77020153 -112.3671875 434.6953125 C-113.12798615 433.93072723 -113.88878479 433.16614197 -114.67263794 432.37838745 C-117.07589013 429.96302617 -119.47584041 427.54442602 -121.875 425.125 C-125.05704779 421.91642462 -128.24235115 418.71113336 -131.4296875 415.5078125 C-132.15985077 414.76935089 -132.89001404 414.03088928 -133.64230347 413.27005005 C-134.65443405 412.25296463 -134.65443405 412.25296463 -135.68701172 411.21533203 C-136.2802121 410.61689484 -136.87341248 410.01845764 -137.48458862 409.40188599 C-138.96582807 407.90079475 -138.96582807 407.90079475 -141 407 C-139.76079655 397.21908478 -138.29753299 387.5149345 -136.58203125 377.8046875 C-136.24363417 375.85455598 -135.90524766 373.90442256 -135.56749249 371.95417976 C-134.74736606 367.22186075 -133.92176065 362.49053004 -133.0871582 357.76074219 C-132.61384071 355.07677326 -132.14531456 352.39205212 -131.68205261 349.70632935 C-131.24873188 347.19534652 -130.80835307 344.6855689 -130.36006165 342.17721558 C-130.16623398 341.04478424 -129.97240631 339.91235291 -129.77270508 338.74560547 C-129.59886795 337.75382294 -129.42503082 336.76204041 -129.2459259 335.74020386 C-128.98633908 332.84778459 -129.13689975 330.76966613 -130 328 C-132.08254013 325.89986094 -134.08435005 324.09053529 -136.375 322.25 C-137.01203857 321.72196777 -137.64907715 321.19393555 -138.30541992 320.64990234 C-140.19439312 319.08826281 -142.09576787 317.54296914 -144 316 C-144.91652344 315.24460937 -145.83304688 314.48921875 -146.77734375 313.7109375 C-148.50224805 312.2916788 -150.23159808 310.87780981 -151.96484375 309.46875 C-155.77859018 306.36670657 -159.57844439 303.24804757 -163.375 300.125 C-164.10372314 299.5256665 -164.83244629 298.92633301 -165.58325195 298.30883789 C-171.55850227 293.38463484 -177.48105307 288.40104261 -183.33544922 283.33349609 C-185.04022129 281.92476808 -185.04022129 281.92476808 -187.16845703 280.57666016 C-194.31024611 275.70366736 -196.78279302 270.16590157 -199.875 262.25 C-200.67761178 260.28551363 -201.48988909 258.32517686 -202.30209351 256.36463928 C-202.89043427 254.94217413 -203.47565732 253.51841612 -204.05801392 252.0934906 C-207.79791137 242.9659851 -211.83099926 233.96732824 -215.83892822 224.9552002 C-217.51298734 221.1898185 -219.18157613 217.42202963 -220.84906006 213.6537323 C-221.5971774 211.96311911 -222.34587426 210.27276219 -223.09527588 208.5827179 C-223.76137903 207.0790143 -224.42310364 205.57336061 -225.07965088 204.06546021 C-225.67499995 202.72936959 -226.29672573 201.40459276 -226.94915771 200.09542847 C-228.96139297 195.93239172 -229.30055253 193.43429593 -228 189 C-227.07437072 186.73366796 -226.06892693 184.49911621 -225.0078125 182.29296875 C-224.70237518 181.65047684 -224.39693787 181.00798492 -224.08224487 180.34602356 C-223.10355649 178.28971951 -222.115078 176.23834115 -221.125 174.1875 C-214.4293824 160.25276679 -208.23283052 146.16552391 -202 132 C-230.38 132 -258.76 132 -288 132 C-286.60636085 128.51590213 -285.6816185 126.27255867 -283.63671875 123.35546875 C-283.16878906 122.68676758 -282.70085937 122.01806641 -282.21875 121.32910156 C-281.46078125 120.26900879 -281.46078125 120.26900879 -280.6875 119.1875 C-280.15769531 118.44338867 -279.62789062 117.69927734 -279.08203125 116.93261719 C-269.92078396 104.20687051 -259.86030939 92.30193498 -249 81 C-248.53352051 80.51160645 -248.06704102 80.02321289 -247.58642578 79.52001953 C-241.12497278 72.78717194 -234.32582534 66.76859776 -227 61 C-225.94170826 60.14055291 -224.88445331 59.27982791 -223.828125 58.41796875 C-184.10665717 26.25862274 -136.35322405 6.68311639 -86 -1 C-85.25443848 -1.11859375 -84.50887695 -1.2371875 -83.74072266 -1.359375 C-56.72851731 -5.46527909 -26.83928431 -4.60829451 0 0 Z " fill="#B8E1F3" transform="translate(347,19)"/>
<path d="M0 0 C34.98 0 69.96 0 106 0 C106 31.02 106 62.04 106 94 C77.63027723 107.61746693 77.63027723 107.61746693 67.5625 112.25 C55.28441625 117.92486291 43.04168648 123.67269287 30.80883789 129.44433594 C30.1205188 129.7688826 29.43219971 130.09342926 28.72302246 130.42781067 C26.86597704 131.30351009 25.00926832 132.17992346 23.15258789 133.05639648 C17.44991504 135.73617725 11.72287348 138.36372689 6 141 C22.32492448 140.03691708 38.62701381 138.92255639 54.91796875 137.4921875 C55.66603916 137.42665932 56.41410957 137.36113113 57.18484879 137.29361725 C64.08736816 136.68784401 70.98898406 136.07202762 77.89038086 135.45361328 C81.73181574 135.1097426 85.57367966 134.77102856 89.4158268 134.435215 C91.53192982 134.24867031 93.64743625 134.05620387 95.76298523 133.86349487 C103.53351298 133.18431195 111.20007034 132.83653406 119 133 C119.37284323 144.19628788 119.65605033 155.39107058 119.82899475 166.59233093 C119.91206157 171.79557468 120.02443238 176.99453475 120.20703125 182.1953125 C121.5181956 220.529773 121.5181956 220.529773 113.54663086 229.40161133 C110.86531618 231.76098738 108.09691089 233.7237966 105.0484314 235.57827759 C102.03953063 237.6666178 99.87687877 240.30108488 97.56411743 243.11654663 C95.04009861 246.15587837 92.19956335 248.86800994 89.375 251.625 C88.2761315 252.69795179 87.17974689 253.77345372 86.0859375 254.8515625 C85.55057373 255.37500244 85.01520996 255.89844238 84.46362305 256.43774414 C82.78223104 258.14636616 82.78223104 258.14636616 80.98046875 261.03515625 C76.86891852 266.02705427 69.82540023 267.63512837 63.9375 269.8125 C62.50780446 270.35593524 61.07878333 270.90114755 59.65039062 271.44799805 C56.51594823 272.64554397 53.37800467 273.83329451 50.23779297 275.015625 C44.49966436 277.18195928 38.78267412 279.40174239 33.06640625 281.625 C31.04502635 282.41045982 29.02362343 283.19586043 27.00219727 283.98120117 C26.00922638 284.36698334 25.01625549 284.7527655 23.99319458 285.15023804 C19.18468237 287.01739057 14.37473752 288.88075096 9.5625 290.73828125 C8.70987076 291.0688855 7.85724152 291.39948975 6.97877502 291.7401123 C1.1150305 294 1.1150305 294 0 294 C-0.02362361 282.97356155 -0.04116068 271.94712952 -0.05181217 260.92067051 C-0.05693546 255.79549298 -0.06382914 250.67033328 -0.07543945 245.54516602 C-0.12588565 222.66980827 -0.03269083 199.81635095 0.63645935 176.94935608 C1.08011189 161.69436915 1.18918418 146.44089477 1.1015625 131.1796875 C1.09605377 130.14738007 1.09054504 129.11507263 1.08486938 128.05148315 C0.95695559 107.62779299 0.67211362 87.20441186 0.39171791 66.7823391 C0.34415652 63.30332089 0.29820319 59.82428208 0.25230789 56.34524155 C0.22074833 54.00740505 0.1866843 51.66961595 0.1524353 49.33181763 C-0.06518902 32.8846979 0 16.45420915 0 0 Z " fill="#4D8BC8" transform="translate(301,152)"/>
<path d="M0 0 C33.99 0.33 67.98 0.66 103 1 C99.20103213 3.84922591 95.53555375 5.68391357 91.2265625 7.546875 C90.4663681 7.88116516 89.70617371 8.21545532 88.92294312 8.55987549 C86.49241347 9.62816165 84.05901269 10.68967628 81.625 11.75 C71.820312 16.02898775 62.1242589 20.38088605 52.58740234 25.23144531 C44.74131352 29.09949128 36.68043758 32.51421387 28.66796875 36.02050781 C19.73577487 39.93491042 10.92131628 43.96203951 2.22460938 48.37939453 C-2.70964013 50.85922101 -7.72072308 53.15816989 -12.75 55.4375 C-13.719375 55.88287109 -14.68875 56.32824219 -15.6875 56.78710938 C-16.61046875 57.20669922 -17.5334375 57.62628906 -18.484375 58.05859375 C-19.30647461 58.43298584 -20.12857422 58.80737793 -20.97558594 59.19311523 C-23 60 -23 60 -25 60 C-22.52092559 62.87889132 -19.95866985 64.07464533 -16.48046875 65.5390625 C-15.33304199 66.02802002 -14.18561523 66.51697754 -13.00341797 67.02075195 C-12.07550446 67.41068832 -12.07550446 67.41068832 -11.12884521 67.8085022 C-7.73125342 69.23747331 -4.34473955 70.69232078 -0.95703125 72.14453125 C-0.23439087 72.4536998 0.48824951 72.76286835 1.23278809 73.08140564 C9.73950344 76.72959424 18.18172527 80.52038012 26.625 84.3125 C28.23750222 85.03582983 29.85005131 85.75905517 31.46264648 86.48217773 C33.89590229 87.57332884 36.32914072 88.66451817 38.76222229 89.75605774 C47.29283276 93.58223262 55.83187441 97.38935964 64.375 101.1875 C65.11686554 101.51734894 65.85873108 101.84719788 66.62307739 102.18704224 C78.56981065 107.4964662 90.53995485 112.75109355 102.52319336 117.97753906 C111.18057551 121.75518537 119.8135537 125.58411816 128.4375 129.4375 C138.22120773 133.80617242 148.05356869 138.01581595 158 142 C158.13145432 154.60500901 157.94110819 167.18892255 157.59263802 179.78819656 C156.92974429 204.23123559 156.634947 228.67346146 156.5625 253.125 C156.55875366 254.1908218 156.55500732 255.2566436 156.55114746 256.35476303 C156.44116039 290.92503372 157.72356288 324.93287373 162.08531189 359.24247742 C162.6725162 363.86420304 163.16522533 368.32795887 163 373 C148.95671334 361.12010316 136.0022165 348.11800815 123.0625 335.0625 C120.01471941 331.98788641 116.96345262 328.91679126 113.91015625 325.84765625 C113.23292007 325.16212173 112.5556839 324.47658722 111.85792542 323.77027893 C108.67305581 320.56926658 105.44925996 317.47743989 102.02856445 314.52856445 C97.68871333 310.78370436 93.66114493 306.77020153 89.6328125 302.6953125 C88.87201385 301.93072723 88.11121521 301.16614197 87.32736206 300.37838745 C84.92410987 297.96302617 82.52415959 295.54442602 80.125 293.125 C76.94295221 289.91642462 73.75764885 286.71113336 70.5703125 283.5078125 C69.84014923 282.76935089 69.10998596 282.03088928 68.35769653 281.27005005 C67.34556595 280.25296463 67.34556595 280.25296463 66.31298828 279.21533203 C65.7197879 278.61689484 65.12658752 278.01845764 64.51541138 277.40188599 C63.03417193 275.90079475 63.03417193 275.90079475 61 275 C62.23920345 265.21908478 63.70246701 255.5149345 65.41796875 245.8046875 C65.75636583 243.85455598 66.09475234 241.90442256 66.43250751 239.95417976 C67.25263394 235.22186075 68.07823935 230.49053004 68.9128418 225.76074219 C69.38615929 223.07677326 69.85468544 220.39205212 70.31794739 217.70632935 C70.75126812 215.19534652 71.19164693 212.6855689 71.63993835 210.17721558 C71.83376602 209.04478424 72.02759369 207.91235291 72.22729492 206.74560547 C72.40113205 205.75382294 72.57496918 204.76204041 72.7540741 203.74020386 C73.01366092 200.84778459 72.86310025 198.76966613 72 196 C69.91745987 193.89986094 67.91564995 192.09053529 65.625 190.25 C64.98796143 189.72196777 64.35092285 189.19393555 63.69458008 188.64990234 C61.80560688 187.08826281 59.90423213 185.54296914 58 184 C57.08347656 183.24460937 56.16695313 182.48921875 55.22265625 181.7109375 C53.49775195 180.2916788 51.76840192 178.87780981 50.03515625 177.46875 C46.22140982 174.36670657 42.42155561 171.24804757 38.625 168.125 C37.89627686 167.5256665 37.16755371 166.92633301 36.41674805 166.30883789 C30.44149773 161.38463484 24.51894693 156.40104261 18.66455078 151.33349609 C16.95977871 149.92476808 16.95977871 149.92476808 14.83154297 148.57666016 C7.68975389 143.70366736 5.21720698 138.16590157 2.125 130.25 C1.32238822 128.28551363 0.51011091 126.32517686 -0.30209351 124.36463928 C-0.89043427 122.94217413 -1.47565732 121.51841612 -2.05801392 120.0934906 C-5.79791137 110.9659851 -9.83099926 101.96732824 -13.83892822 92.9552002 C-15.51298734 89.1898185 -17.18157613 85.42202963 -18.84906006 81.6537323 C-19.5971774 79.96311911 -20.34587426 78.27276219 -21.09527588 76.5827179 C-21.76137903 75.0790143 -22.42310364 73.57336061 -23.07965088 72.06546021 C-23.67499995 70.72936959 -24.29672573 69.40459276 -24.94915771 68.09542847 C-26.96139297 63.93239172 -27.30055253 61.43429593 -26 57 C-25.07437072 54.73366796 -24.06892693 52.49911621 -23.0078125 50.29296875 C-22.70237518 49.65047684 -22.39693787 49.00798492 -22.08224487 48.34602356 C-21.10355649 46.28971951 -20.115078 44.23834115 -19.125 42.1875 C-12.4293824 28.25276679 -6.23283052 14.16552391 0 0 Z " fill="#B7E0F2" transform="translate(145,151)"/>
<path d="M0 0 C86.13 0 172.26 0 261 0 C261 0.33 261 0.66 261 1 C226.02 1 191.04 1 155 1 C155.33 12.22 155.66 23.44 156 35 C156.12725213 41.87827272 156.24338606 48.75415693 156.31640625 55.6328125 C156.33717771 57.38760637 156.35817571 59.14239757 156.37937927 60.89718628 C156.42231809 64.50077513 156.46334715 68.10437789 156.50268555 71.70800781 C156.55229491 76.24777691 156.60586081 80.78748887 156.66065407 85.32719803 C156.88783301 104.21872948 157.07621156 123.10679203 157 142 C152.99655377 141.35275005 149.60929432 140.1032274 145.8984375 138.48046875 C144.10188721 137.69869263 144.10188721 137.69869263 142.26904297 136.90112305 C140.97095209 136.33008936 139.67293989 135.7588768 138.375 135.1875 C137.01853532 134.59447984 135.66192497 134.00179278 134.30517578 133.40942383 C122.43376873 128.21893502 110.59355973 122.95767685 98.76171875 117.67773438 C91.4691774 114.42418387 84.17189146 111.18127916 76.875 107.9375 C75.70806107 107.41869263 75.70806107 107.41869263 74.51754761 106.8894043 C64.38779131 102.38641261 54.25145618 97.89904261 44.10131836 93.44213867 C31.53206174 87.9212159 18.97871262 82.36423654 6.42358398 76.8112793 C5.53590836 76.41897629 4.64823273 76.02667328 3.73365784 75.6224823 C1.98618895 74.84957792 0.23930057 74.07535958 -1.50697327 73.29975891 C-5.5999826 71.48497633 -9.70018535 69.6966088 -13.83154297 67.97070312 C-14.57931503 67.65494324 -15.3270871 67.33918335 -16.09751892 67.01385498 C-17.49096499 66.4272596 -18.88807866 65.84927295 -20.2893219 65.28155518 C-21.89607082 64.60158759 -23.45450789 63.8096 -25 63 C-25.495 61.515 -25.495 61.515 -26 60 C0.71004552 47.34417338 27.55776007 35.02350508 54.52392578 22.92358398 C59.11647801 20.85934434 63.68978921 18.75978 68.25 16.625 C78.8046275 11.68815811 89.4074415 6.85492265 100 2 C67 1.67 34 1.34 0 1 C0 0.67 0 0.34 0 0 Z " fill="#B7E0F3" transform="translate(146,151)"/>
<path d="M0 0 C33.99 0.33 67.98 0.66 103 1 C99.20103213 3.84922591 95.53555375 5.68391357 91.2265625 7.546875 C90.4663681 7.88116516 89.70617371 8.21545532 88.92294312 8.55987549 C86.49241347 9.62816165 84.05901269 10.68967628 81.625 11.75 C71.820312 16.02898775 62.1242589 20.38088605 52.58740234 25.23144531 C44.74131352 29.09949128 36.68043758 32.51421387 28.66796875 36.02050781 C19.73577487 39.93491042 10.92131628 43.96203951 2.22460938 48.37939453 C-2.70964013 50.85922101 -7.72072308 53.15816989 -12.75 55.4375 C-13.719375 55.88287109 -14.68875 56.32824219 -15.6875 56.78710938 C-16.61046875 57.20669922 -17.5334375 57.62628906 -18.484375 58.05859375 C-19.30647461 58.43298584 -20.12857422 58.80737793 -20.97558594 59.19311523 C-23 60 -23 60 -25 60 C-22.52092559 62.87889132 -19.95866985 64.07464533 -16.48046875 65.5390625 C-15.33304199 66.02802002 -14.18561523 66.51697754 -13.00341797 67.02075195 C-12.07550446 67.41068832 -12.07550446 67.41068832 -11.12884521 67.8085022 C-7.73125342 69.23747331 -4.34473955 70.69232078 -0.95703125 72.14453125 C-0.23439087 72.4536998 0.48824951 72.76286835 1.23278809 73.08140564 C9.73950344 76.72959424 18.18172527 80.52038012 26.625 84.3125 C28.23750222 85.03582983 29.85005131 85.75905517 31.46264648 86.48217773 C33.89590229 87.57332884 36.32914072 88.66451817 38.76222229 89.75605774 C47.29283276 93.58223262 55.83187441 97.38935964 64.375 101.1875 C65.11686554 101.51734894 65.85873108 101.84719788 66.62307739 102.18704224 C78.56920785 107.4961983 90.53952601 112.74870777 102.52099609 117.97753906 C112.31434607 122.25296782 122.08403579 126.57930079 131.84521484 130.92773438 C140.21426231 134.6552431 148.59857786 138.34608899 157 142 C155.86627186 145.40118442 155.44036408 145.62637189 152.4921875 147.34765625 C151.7607251 147.78263428 151.0292627 148.2176123 150.27563477 148.66577148 C149.48342529 149.12669189 148.69121582 149.5876123 147.875 150.0625 C146.21335985 151.05220037 144.55322307 152.04442878 142.89453125 153.0390625 C142.0638916 153.53696289 141.23325195 154.03486328 140.37744141 154.54785156 C137.04152445 156.58543978 133.79702208 158.74366184 130.5625 160.9375 C124.37701676 165.11542862 118.1012857 169.12999451 111.77880859 173.09716797 C106.9821845 176.10958234 102.20314734 179.14759379 97.44140625 182.21484375 C96.8814093 182.57513672 96.32141235 182.93542969 95.7444458 183.30664062 C92.97798477 185.08663714 90.21336146 186.86936287 87.45166016 188.65673828 C85.93451416 189.63296143 85.93451416 189.63296143 84.38671875 190.62890625 C83.49170654 191.20713135 82.59669434 191.78535645 81.67456055 192.38110352 C78.85268563 194.08916856 75.96790733 195.56324882 73 197 C72.04480469 196.16597656 71.08960938 195.33195313 70.10546875 194.47265625 C63.47776945 188.69861565 56.82783372 182.97104818 50 177.43359375 C46.19493425 174.34693234 42.40853074 171.23799991 38.625 168.125 C37.89619629 167.52558594 37.16739258 166.92617188 36.41650391 166.30859375 C30.44128523 161.38453394 24.51885912 156.4009666 18.66455078 151.33349609 C16.95977871 149.92476808 16.95977871 149.92476808 14.83154297 148.57666016 C7.68975389 143.70366736 5.21720698 138.16590157 2.125 130.25 C1.32238822 128.28551363 0.51011091 126.32517686 -0.30209351 124.36463928 C-0.89043427 122.94217413 -1.47565732 121.51841612 -2.05801392 120.0934906 C-5.79791137 110.9659851 -9.83099926 101.96732824 -13.83892822 92.9552002 C-15.51298734 89.1898185 -17.18157613 85.42202963 -18.84906006 81.6537323 C-19.5971774 79.96311911 -20.34587426 78.27276219 -21.09527588 76.5827179 C-21.76137903 75.0790143 -22.42310364 73.57336061 -23.07965088 72.06546021 C-23.67499995 70.72936959 -24.29672573 69.40459276 -24.94915771 68.09542847 C-26.96139297 63.93239172 -27.30055253 61.43429593 -26 57 C-25.07437072 54.73366796 -24.06892693 52.49911621 -23.0078125 50.29296875 C-22.70237518 49.65047684 -22.39693787 49.00798492 -22.08224487 48.34602356 C-21.10355649 46.28971951 -20.115078 44.23834115 -19.125 42.1875 C-12.4293824 28.25276679 -6.23283052 14.16552391 0 0 Z " fill="#90D4F0" transform="translate(145,151)"/>
<path d="M0 0 C34.98 0 69.96 0 106 0 C106 31.02 106 62.04 106 94 C77.61466824 107.62495924 77.61466824 107.62495924 67.5625 112.25 C59.77141993 115.84905544 51.9906093 119.46751713 44.23046875 123.1328125 C43.48370377 123.48533081 42.73693878 123.83784912 41.96754456 124.2010498 C38.33445502 125.91655486 34.70260458 127.63461284 31.07250977 129.35644531 C24.10309275 132.65430792 17.10705266 135.87705201 10.046875 138.9765625 C9.00880707 139.43329849 9.00880707 139.43329849 7.94976807 139.89926147 C3.12553246 142 3.12553246 142 2 142 C0.93907572 120.93681447 0.69586967 99.8743145 0.46777344 78.78955078 C0.42770962 75.18057631 0.38357337 71.57165676 0.33933926 67.96273136 C0.29568349 64.36966236 0.25416511 60.77657086 0.21324348 57.18346977 C0.19420355 55.52295806 0.17470542 53.8624515 0.15463066 52.20195198 C-0.05253326 34.80011189 0 17.40522055 0 0 Z " fill="#69C1EA" transform="translate(301,152)"/>
<path d="M0 0 C0.85854633 -0.01158677 1.71709266 -0.02317354 2.60165554 -0.03511143 C5.47831702 -0.07118189 8.35490034 -0.0929598 11.23170471 -0.11450195 C13.29524948 -0.13685993 15.35878709 -0.15988681 17.4223175 -0.18353271 C24.20446188 -0.25662378 30.98667999 -0.30711319 37.76905823 -0.3527832 C39.50384363 -0.3646208 39.50384363 -0.3646208 41.2736752 -0.37669754 C52.1978897 -0.44957993 63.12213069 -0.51242337 74.04650784 -0.55491638 C87.97918234 -0.60992303 101.90980497 -0.71115533 115.84162563 -0.87586498 C125.65767873 -0.98794142 135.47317987 -1.0454599 145.28984982 -1.0638628 C151.14110268 -1.07630815 156.98995021 -1.11190533 162.84049797 -1.20663452 C208.63722302 -1.91439826 208.63722302 -1.91439826 224.2728138 12.47164917 C227.69952095 15.38993371 231.51716046 17.63467884 235.35838985 19.96412659 C236.39891679 20.64256874 236.39891679 20.64256874 237.46046448 21.3347168 C237.46046448 21.6647168 237.46046448 21.9947168 237.46046448 22.3347168 C221.95046448 22.3347168 206.44046448 22.3347168 190.46046448 22.3347168 C190.46046448 29.5947168 190.46046448 36.8547168 190.46046448 44.3347168 C104.33046448 44.3347168 18.20046448 44.3347168 -70.53953552 44.3347168 C-59.58910285 21.2171367 -59.58910285 21.2171367 -52.10398865 18.14648438 C-51.25961243 17.79294388 -50.41523621 17.43940338 -49.54527283 17.07514954 C-48.64619202 16.71350204 -47.74711121 16.35185455 -46.82078552 15.97924805 C-45.8852887 15.59153732 -44.94979187 15.2038266 -43.98594666 14.80436707 C-41.00848866 13.57357494 -38.02427328 12.3602331 -35.03953552 11.1472168 C-33.0325564 10.32088031 -31.0260405 9.49341778 -29.02000427 8.66479492 C-23.86599922 6.53960348 -18.70747593 4.42581436 -13.53953552 2.3347168 C-12.84528693 1.99325969 -12.15103834 1.65180258 -11.43575191 1.29999828 C-7.61982586 0.02818628 -3.97829587 0.01853744 0 0 Z " fill="#EFF8FD" transform="translate(216.53953552246094,106.665283203125)"/>
<path d="M0 0 C2.12693559 2.74444561 3.97261482 5.53301386 5.71484375 8.53515625 C6.22950195 9.4163916 6.74416016 10.29762695 7.27441406 11.20556641 C7.82323242 12.14835449 8.37205078 13.09114258 8.9375 14.0625 C13.09746795 21.15762082 17.32229213 28.19371076 21.75 35.125 C26.76007308 42.97349555 31.61794109 50.90878693 36.4375 58.875 C41.44365953 67.14723449 46.46405184 75.4091417 51.5625 83.625 C52.06604004 84.43807617 52.56958008 85.25115234 53.08837891 86.08886719 C55.79171396 90.45127953 58.50432511 94.8076887 61.22731018 99.15786743 C62.72584719 101.55496917 64.2188344 103.95549884 65.71090698 106.35662842 C66.4404806 107.52780256 67.17248648 108.69746532 67.90701294 109.86553955 C68.92979709 111.49247121 69.94361731 113.12502769 70.95703125 114.7578125 C71.54460205 115.6977002 72.13217285 116.63758789 72.73754883 117.60595703 C74 120 74 120 74 123 C57.66845994 129.33796127 41.33538303 135.67194966 25 142 C23.73971985 142.48826263 23.73971985 142.48826263 22.45397949 142.98638916 C17.9704783 144.72310333 13.48578512 146.45669093 9 148.1875 C7.9598877 148.5901709 6.91977539 148.9928418 5.84814453 149.40771484 C4.92888184 149.76172363 4.00961914 150.11573242 3.0625 150.48046875 C2.29035156 150.77848389 1.51820313 151.07649902 0.72265625 151.38354492 C-1 152 -1 152 -2 152 C-2.02362361 140.97356155 -2.04116068 129.94712952 -2.05181217 118.92067051 C-2.05693546 113.79549298 -2.06382914 108.67033328 -2.07543945 103.54516602 C-2.15149445 69.02343784 -2.0078245 34.47477386 0 0 Z " fill="#54A9DB" transform="translate(303,294)"/>
<path d="M0 0 C44.88 0 89.76 0 136 0 C136 0.33 136 0.66 136 1 C109.93 1 83.86 1 57 1 C59.97 7.93 62.94 14.86 66 22 C68.23055171 27.32989115 70.45925932 32.65888747 72.66040039 38.00073242 C73.5909823 40.25654356 74.52695911 42.51007578 75.46289062 44.76367188 C76.06022067 46.21080346 76.65723927 47.65806365 77.25390625 49.10546875 C77.53190567 49.77297653 77.80990509 50.44048431 78.09632874 51.1282196 C80 55.77123929 80 55.77123929 80 58 C78.99477295 58.4650293 78.99477295 58.4650293 77.96923828 58.93945312 C61.26346813 66.6718864 44.58912943 74.46888423 27.93927002 82.32098389 C26.60429784 82.95003365 25.26897699 83.57834407 23.93328857 84.20587158 C20.53604465 85.80196918 17.14433642 87.40838733 13.76025391 89.03222656 C12.39877998 89.68037417 11.0372897 90.32848742 9.67578125 90.9765625 C9.04786179 91.28105316 8.41994232 91.58554382 7.772995 91.89926147 C4.97270753 93.22594114 3.14302255 94 0 94 C0 62.98 0 31.96 0 0 Z " fill="#4E8BC9" transform="translate(407,151)"/>
<path d="M0 0 C0.99 0.495 0.99 0.495 2 1 C1.31035156 1.73863281 0.62070312 2.47726563 -0.08984375 3.23828125 C-4.68893665 8.19324163 -9.2043081 13.16157333 -13.4375 18.4375 C-17.28110057 23.21621628 -21.36960164 27.69157687 -25.55834961 32.16381836 C-28.67553945 35.51099327 -31.63573798 38.93005023 -34.5 42.5 C-38.31436968 47.25414192 -42.37649611 51.70068145 -46.54101562 56.14428711 C-50.59382698 60.49429596 -54.36437871 65.00248455 -58.0625 69.66015625 C-58.701875 70.43230469 -59.34125 71.20445312 -60 72 C-60.51570557 72.68433105 -61.03141113 73.36866211 -61.56274414 74.07373047 C-65.1413324 76.90204474 -68.47745118 76.85825388 -72.93359375 77.16015625 C-74.27240349 77.27267479 -74.27240349 77.27267479 -75.63825989 77.38746643 C-78.57023354 77.62972519 -81.50350275 77.84625393 -84.4375 78.0625 C-86.48222651 78.22608303 -88.52682276 78.39130195 -90.57128906 78.55810547 C-94.7270147 78.89447641 -98.88334124 79.22077238 -103.04052734 79.53857422 C-108.37969494 79.94822546 -113.71552087 80.39022728 -119.05078125 80.84765625 C-139.01679331 82.54801431 -158.99289076 83.88593823 -179 85 C-175.68429571 82.2793563 -172.09467973 80.48627215 -168.2265625 78.69921875 C-167.55940216 78.38651535 -166.89224182 78.07381195 -166.2048645 77.75163269 C-164.0135956 76.72587027 -161.81934186 75.70666991 -159.625 74.6875 C-158.08607222 73.96867005 -156.54733769 73.24942626 -155.00878906 72.52978516 C-151.08691439 70.69659518 -147.16261653 68.86865698 -143.2376709 67.04205322 C-139.86783097 65.47276412 -136.50028167 63.89858701 -133.1328125 62.32421875 C-125.1469305 58.59186406 -117.15684486 54.86854863 -109.16650391 51.14575195 C-104.86067538 49.13953613 -100.55514728 47.13267731 -96.25 45.125 C-95.33199615 44.69693558 -95.33199615 44.69693558 -94.39544678 44.26022339 C-83.48944431 39.17353391 -72.60097628 34.04998548 -61.71542358 28.91970825 C-50.70189992 23.73002348 -39.67193401 18.57749309 -28.61914062 13.47192383 C-23.43138612 11.07262545 -18.25651383 8.65365964 -13.11328125 6.16015625 C-12.2205249 5.72888428 -11.32776855 5.2976123 -10.40795898 4.85327148 C-8.76995507 4.05897773 -7.13510269 3.25813711 -5.50415039 2.44946289 C-3.69691703 1.57382292 -1.85154837 0.7775644 0 0 Z " fill="#256EA7" transform="translate(484,209)"/>
<path d="M0 0 C0.33 0 0.66 0 1 0 C0.99920441 0.89993179 0.99840881 1.79986359 0.99758911 2.72706604 C0.99458465 14.33918278 1.04063906 25.95068867 1.125 37.5625 C1.13174114 38.49526638 1.13848228 39.42803276 1.1454277 40.38906479 C1.40032704 73.10877016 3.27004073 105.34191723 7.11082458 137.83465576 C7.6684307 142.5851515 8.16754603 147.20572421 8 152 C-6.04328666 140.12010316 -18.9977835 127.11800815 -31.9375 114.0625 C-34.98528059 110.98788641 -38.03654738 107.91679126 -41.08984375 104.84765625 C-41.76707993 104.16212173 -42.4443161 103.47658722 -43.14207458 102.77027893 C-46.32571566 99.57050134 -49.54825847 96.47918223 -52.96704102 93.53076172 C-57.32609584 89.76928263 -61.38223168 85.7443223 -65.4375 81.66015625 C-66.20304199 80.89319931 -66.96858398 80.12624237 -67.75732422 79.33604431 C-70.17393197 76.91389119 -72.58701726 74.48826388 -75 72.0625 C-76.64950686 70.40797107 -78.29924429 68.75367198 -79.94921875 67.09960938 C-83.96881371 63.06905798 -87.98553169 59.03565728 -92 55 C-88.88752027 53.96250676 -88.03472712 54.00167734 -84.96386719 54.66162109 C-83.73953979 54.91894768 -83.73953979 54.91894768 -82.49047852 55.18147278 C-81.15714478 55.47449532 -81.15714478 55.47449532 -79.796875 55.7734375 C-78.86254639 55.97261276 -77.92821777 56.17178802 -76.96557617 56.3769989 C-73.89191021 57.03488952 -70.82095277 57.70456778 -67.75 58.375 C-65.63320951 58.83163035 -63.51634689 59.28792645 -61.39941406 59.74389648 C-44.29024341 63.44361718 -27.21813435 67.30603636 -10.171875 71.28515625 C-9.48343506 71.44513596 -8.79499512 71.60511566 -8.08569336 71.76994324 C-5.34083618 72.41497328 -2.67716125 73.10761292 0 74 C0 49.58 0 25.16 0 0 Z " fill="#90D4F0" transform="translate(300,372)"/>
<path d="M0 0 C0.33 0 0.66 0 1 0 C1.1491184 14.29879751 0.90062755 28.5808708 0.5625 42.875 C0.5330278 44.18499466 0.5330278 44.18499466 0.50296021 45.52145386 C0.30172439 54.353999 0.05603619 63.18478101 -0.41015625 72.0078125 C-0.47468994 73.26480957 -0.53922363 74.52180664 -0.60571289 75.81689453 C-0.96707212 78.73417109 -1.47493675 80.52510648 -3 83 C-4.11930908 82.60844727 -5.23861816 82.21689453 -6.3918457 81.81347656 C-10.7219877 80.29906781 -15.05258301 78.78595892 -19.3833313 77.27328491 C-21.33188636 76.59257062 -23.28035277 75.91160248 -25.22872925 75.2303772 C-35.66541136 71.58198216 -46.10637004 67.94899758 -56.578125 64.40234375 C-57.39173996 64.12619232 -58.20535492 63.85004089 -59.04362488 63.56552124 C-62.87931843 62.26396456 -66.7168313 60.96833975 -70.55786133 59.68261719 C-71.92537693 59.21964896 -73.29281341 58.75644696 -74.66015625 58.29296875 C-75.84230713 57.8961792 -77.02445801 57.49938965 -78.24243164 57.09057617 C-81 56 -81 56 -83 54 C-81.87464844 53.32195312 -80.74929687 52.64390625 -79.58984375 51.9453125 C-72.1582206 47.4475465 -64.76222929 42.92506659 -57.5625 38.0625 C-51.37659293 33.88620673 -45.10132832 29.87237108 -38.78100586 25.90283203 C-30.60926995 20.76715427 -22.484932 15.55836365 -14.36376953 10.34326172 C-13.34911621 9.69244629 -12.33446289 9.04163086 -11.2890625 8.37109375 C-10.38881348 7.79286865 -9.48856445 7.21464355 -8.56103516 6.61889648 C-6.8089335 5.51134776 -5.03052897 4.44463624 -3.23193359 3.41430664 C-0.88214826 2.1944145 -0.88214826 2.1944145 0 0 Z " fill="#ABDCF1" transform="translate(302,293)"/>
<path d="M0 0 C-1.70808442 5.05350419 -4.57433094 9.29348545 -7.4375 13.75 C-7.97536133 14.5941748 -8.51322266 15.43834961 -9.06738281 16.30810547 C-12.87600599 22.2759921 -16.71671167 28.22331492 -20.57202148 34.16113281 C-24.74382713 40.58882558 -28.8730653 47.04342973 -33 53.5 C-39.78941425 64.11923835 -46.61984356 74.7108364 -53.48193359 85.28320312 C-54.98862418 87.60503592 -56.49432232 89.92751026 -58 92.25 C-58.68606323 93.30574219 -58.68606323 93.30574219 -59.38598633 94.3828125 C-59.81548584 95.04539062 -60.24498535 95.70796875 -60.6875 96.390625 C-61.0896875 97.01001953 -61.491875 97.62941406 -61.90625 98.26757812 C-62.88065373 99.81096404 -63.7891031 101.39554344 -64.6875 102.984375 C-65.120625 103.64953125 -65.55375 104.3146875 -66 105 C-66.66 105 -67.32 105 -68 105 C-69.52217188 91.60079673 -70.93321402 78.19139168 -72.28710938 64.77416992 C-72.51402138 62.53341383 -72.74289058 60.29285515 -72.97363281 58.05249023 C-73.31230807 54.76328565 -73.64507545 51.47352962 -73.9765625 48.18359375 C-74.07965729 47.19282333 -74.18275208 46.20205292 -74.28897095 45.18125916 C-74.86150239 39.42063483 -75.09742208 33.78917672 -75 28 C-63.46061616 23.06760664 -51.75174952 18.56165835 -40.0625 14 C-38.01102302 13.19803098 -35.95959042 12.39594842 -33.90820312 11.59375 C-29.9989966 10.0652898 -26.08824621 8.54088614 -22.17626953 7.01953125 C-19.04645878 5.80173818 -15.92172751 4.57310148 -12.80419922 3.32421875 C-11.07387451 2.63779297 -11.07387451 2.63779297 -9.30859375 1.9375 C-8.35654053 1.55464844 -7.4044873 1.17179687 -6.42358398 0.77734375 C-4 0 -4 0 0 0 Z " fill="#256EA7" transform="translate(376,418)"/>
<path d="M0 0 C15.84 0 31.68 0 48 0 C56 20 56 20 56 22 C37.52 22 19.04 22 0 22 C0 14.74 0 7.48 0 0 Z " fill="#C7E5F6" transform="translate(407,129)"/>
</svg>
