<svg xmlns="http://www.w3.org/2000/svg" width="250" height="250" fill="none"><path fill="#546AE4" d="M198.728 123.972a41.654 41.654 0 0 0 14.359-14.711 41.41 41.41 0 0 0 5.541-19.753v-8.12c0-33.916-23.446-51.388-66.241-51.388H79.364c-.588 0-1.152.23-1.57.64-.42.41-.659.968-.668 1.553v61.666c.01.584.249 1.142.668 1.552.418.41.982.64 1.57.64h35.358a2.24 2.24 0 0 0 1.57-.64 2.22 2.22 0 0 0 .668-1.552V63.026c0-.582.232-1.14.645-1.55a2.21 2.21 0 0 1 1.558-.643h33.775c17.731 0 25.615 6.235 25.615 23.981v2.707c0 17.129-7.643 24.666-19.074 24.666H39.289a2.274 2.274 0 0 0-2.1 1.439l-9.055 23.947a2.182 2.182 0 0 0 .262 2.008 2.2 2.2 0 0 0 1.804.938h131.724c13.771 0 21.277 8.942 21.277 22.508v5.173c0 12.471-7.093 21.412-24.1 21.412h-39.938a2.19 2.19 0 0 1-.867-.176 2.192 2.192 0 0 1-1.336-2.119v-28.435c0-.591-.236-1.157-.655-1.575a2.247 2.247 0 0 0-1.583-.652H79.364c-.594 0-1.163.235-1.582.652-.42.418-.656.984-.656 1.575v58.925c.01.585.249 1.143.668 1.553.418.41.982.64 1.57.64h80.391C203.1 220 223 199.445 223 171.181v-9.49a41.434 41.434 0 0 0-6.598-22.388 41.734 41.734 0 0 0-17.674-15.331Z"/></svg>