<svg width="512" height="512" viewBox="0 0 512 512" fill="none" xmlns="http://www.w3.org/2000/svg">
<mask id="mask0_3701_6018" style="mask-type:alpha" maskUnits="userSpaceOnUse" x="59" y="131" width="394" height="249">
<path fill-rule="evenodd" clip-rule="evenodd" d="M287.12 131C269.928 131 255.992 144.936 255.992 162.127C255.992 179.319 269.928 193.255 287.12 193.255H390.744C425.126 193.255 452.999 165.382 452.999 131H287.12ZM210.587 226.793C178.85 226.793 153.121 252.521 153.121 284.259H374.812C406.549 284.259 432.278 258.531 432.278 226.793H210.587ZM59 379.999C59 345.617 86.8725 317.744 121.255 317.744H224.879C242.07 317.744 256.007 331.68 256.007 348.872C256.007 366.063 242.07 379.999 224.879 379.999H59ZM318.217 317.744C301.026 317.744 287.09 331.68 287.09 348.872C287.09 366.063 301.026 379.999 318.217 379.999H338.934C367.566 379.999 390.777 356.788 390.777 328.155V317.744H318.217Z" fill="white"/>
</mask>
<g mask="url(#mask0_3701_6018)">
<path d="M256.043 162.127C256.043 144.936 269.979 131 287.17 131H453.05V131C453.05 165.382 425.177 193.255 390.795 193.255H287.17C269.979 193.255 256.043 179.319 256.043 162.127V162.127Z" fill="white"/>
<path d="M256.043 162.127C256.043 144.936 269.979 131 287.17 131H453.05V131C453.05 165.382 425.177 193.255 390.795 193.255H287.17C269.979 193.255 256.043 179.319 256.043 162.127V162.127Z" fill="url(#paint0_linear_3701_6018)"/>
<path d="M153.121 284.232C153.121 252.494 178.85 226.766 210.587 226.766H432.278V226.766C432.278 258.503 406.549 284.232 374.812 284.232H153.121V284.232Z" fill="url(#paint1_linear_3701_6018)"/>
<path d="M59 379.972C59 345.589 86.8725 317.717 121.255 317.717H224.879C242.07 317.717 256.007 331.653 256.007 348.844V348.844C256.007 366.035 242.07 379.972 224.879 379.972H59V379.972Z" fill="#D7613A"/>
<path d="M287.09 348.844C287.09 331.653 301.026 317.717 318.217 317.717H390.777V328.128C390.777 356.76 367.566 379.972 338.934 379.972H318.217C301.026 379.972 287.09 366.035 287.09 348.844V348.844Z" fill="url(#paint2_linear_3701_6018)"/>
</g>
<defs>
<linearGradient id="paint0_linear_3701_6018" x1="256.043" y1="162.127" x2="453.05" y2="162.127" gradientUnits="userSpaceOnUse">
<stop stop-color="#D7613A"/>
<stop offset="0.59" stop-color="#DC8946"/>
<stop offset="1" stop-color="#F9C078"/>
</linearGradient>
<linearGradient id="paint1_linear_3701_6018" x1="153.121" y1="255.499" x2="432.278" y2="255.499" gradientUnits="userSpaceOnUse">
<stop stop-color="#D7613A"/>
<stop offset="0.59" stop-color="#DC8946"/>
<stop offset="1" stop-color="#F9C078"/>
</linearGradient>
<linearGradient id="paint2_linear_3701_6018" x1="287.09" y1="348.844" x2="390.777" y2="348.844" gradientUnits="userSpaceOnUse">
<stop stop-color="#D7613A"/>
<stop offset="0.59" stop-color="#DC8946"/>
<stop offset="1" stop-color="#F9C078"/>
</linearGradient>
</defs>
</svg>
