<svg xmlns="http://www.w3.org/2000/svg" width="250" height="250" fill="none"><g clip-path="url(#a)"><path fill="#FCB400" d="M114.994 44.17 42.359 74.765c-4.039 1.702-3.997 7.544.068 9.184l72.937 29.446a26.619 26.619 0 0 0 19.953 0l72.938-29.447c4.064-1.639 4.108-7.48.066-9.181l-72.632-30.6a26.62 26.62 0 0 0-20.696 0"/><path fill="#18BFFF" d="M131.812 129.474v73.56c0 3.498 3.465 5.895 6.66 4.605l81.274-32.116a4.88 4.88 0 0 0 2.232-1.821 5.008 5.008 0 0 0 .84-2.784V97.359c0-3.499-3.465-5.894-6.66-4.605l-81.274 32.116a4.88 4.88 0 0 0-2.231 1.822 5.013 5.013 0 0 0-.841 2.783"/><path fill="#F82B60" d="m112.833 133.27-24.12 11.856-2.45 1.205-50.916 24.837c-3.226 1.585-7.347-.809-7.347-4.459V97.667c0-1.32.665-2.46 1.557-3.318a5.54 5.54 0 0 1 1.233-.942c1.216-.743 2.952-.941 4.427-.347l77.211 31.145c3.924 1.585 4.233 7.184.405 9.066"/><path fill="#000" fill-opacity=".25" d="m112.833 133.27-24.12 11.856-59.156-50.778c.366-.37.781-.687 1.233-.94 1.216-.744 2.952-.942 4.427-.348l77.211 31.145c3.924 1.585 4.233 7.184.405 9.066"/></g><defs><clipPath id="a"><path fill="#fff" d="M28 42h195v166H28z"/></clipPath></defs></svg>