<svg width="255" height="255" version="1.1" fill="none" viewBox="0 0 59.928 13.97" xmlns="http://www.w3.org/2000/svg" xmlns:cc="http://creativecommons.org/ns#" xmlns:dc="http://purl.org/dc/elements/1.1/" xmlns:rdf="http://www.w3.org/1999/02/22-rdf-syntax-ns#">
<g transform="translate(328.3 -304.87)">
<g transform="translate(.26458 -.26457)" stroke-width=".26458">
<path d="m-328.01 310.35h1.561v8.2815h-1.561z" fill="#ffb441"/>
<path d="m-323.83 305.4h1.5875v13.229h-1.561z" fill="#616161"/>
<path d="m-319.54 305.4h1.5875v13.229h-1.561z" fill="#616161"/>
<path d="m-308.38 318.63h-1.561v-1.27h-0.0265c-0.39687 0.87312-1.4552 1.4817-2.7252 1.4817-1.614 0-3.0162-0.9525-3.0162-3.175v-5.3446h1.5875v4.8948c0 1.561 0.89958 2.1431 1.8785 2.1431 1.3229 0 2.3019-0.84667 2.3019-2.7517v-4.2598h1.5875v8.2815z" fill="#616161"/>
<path d="m-306.37 310.35h1.4817v1.2965h0.0265c0.15875-0.50271 1.1642-1.5081 2.6458-1.5081 1.2171 0 2.0638 0.52917 2.5929 1.5346 0.55563-1.0054 1.6404-1.5346 2.6194-1.5346 2.54 0 3.1485 1.8256 3.1485 3.6777v4.8154h-1.561v-4.6038c0-1.27-0.26459-2.4077-1.7992-2.4077s-2.1167 1.0319-2.1167 2.5135v4.5244h-1.5875v-4.3392c0-1.561-0.23812-2.6988-1.7462-2.6988-1.1377 0-2.1431 0.84666-2.1431 2.7252v4.3127h-1.5346z" fill="#616161"/>
<path d="m-291.68 310.35h1.5875v8.2815h-1.5875z" fill="#616161"/>
<path d="m-287.79 310.35h1.561v1.27h0.0265c0.39687-0.87313 1.4552-1.4817 2.7252-1.4817 1.614 0 3.0162 0.9525 3.0162 3.175v5.3446h-1.5875v-4.8948c0-1.561-0.89959-2.1431-1.8786-2.1431-1.3229 0-2.3019 0.84666-2.3019 2.7517v4.2598h-1.5875v-8.2815z" fill="#616161"/>
<path d="m-273.08 314.63v0.52916c0 1.1112-0.60854 2.4077-2.3548 2.4077-1.0848 0-1.7727-0.39687-1.7727-1.3494 0-1.3229 1.8256-1.5875 3.3073-1.5875zm-4.3656-2.3019c0.58208-0.44979 1.1642-0.9525 2.3548-0.9525 1.3494 0 1.9844 0.89959 1.9844 1.7462v0.34396h-1.1642c-2.5136 0-4.5508 0.74083-4.5508 2.8575 0 1.614 1.3229 2.4871 2.8575 2.4871 1.27 0 2.196-0.39687 2.9104-1.4817h0.0265c0 0.42333 0.0265 0.84666 0.0529 1.27h1.4023c-0.0529-0.44979-0.0794-0.92604-0.0794-1.5081v-4.2333c0-1.4288-1.0054-2.7517-3.466-2.7517-1.1642 0-2.4077 0.39688-3.2808 1.2171z" fill="#616161"/>
<path d="m-327.24 306.38c-0.58208 0-1.0583 0.47625-1.0583 1.0583s0.47625 1.0583 1.0583 1.0583c0.58209 0 1.0583-0.47625 1.0583-1.0583s-0.47625-1.0583-1.0583-1.0583z" fill="#ffb441"/>
<path d="m-270.49 310.61h0.23812v-0.52917h0.18521l0.3175 0.52917h0.23813l-0.34396-0.55562c0.18521-0.0265 0.3175-0.1323 0.3175-0.34396 0-0.23813-0.15875-0.39688-0.44979-0.39688h-0.50271zm0.23812-1.1112h0.18521c0.15875 0 0.3175 0 0.3175 0.18521 0 0.15875-0.15875 0.18521-0.3175 0.18521h-0.18521zm-0.92604 0.47625c0 0.635 0.50271 1.1377 1.1377 1.1377s1.1377-0.50271 1.1377-1.1377-0.50271-1.1377-1.1377-1.1377-1.1377 0.50271-1.1377 1.1377zm0.18521 0c0-0.50271 0.42333-0.92604 0.92604-0.92604s0.92604 0.42333 0.92604 0.92604-0.42333 0.92604-0.92604 0.92604-0.92604-0.42333-0.92604-0.92604z" fill="#616161"/>
</g>
</g>
</svg>