<svg xmlns="http://www.w3.org/2000/svg" width="150" height="150" fill="none"><g clip-path="url(#a)"><path fill="#001F5C" d="M12.838 106.022a9.233 9.233 0 0 1 3.93 3.68 10.986 10.986 0 0 1 1.384 5.594 10.74 10.74 0 0 1-1.384 5.549 9.13 9.13 0 0 1-3.929 3.606 13.278 13.278 0 0 1-5.925 1.251H.875a.876.876 0 0 1-.875-.879v-19.204a.877.877 0 0 1 .875-.879h6.038a13.015 13.015 0 0 1 5.925 1.282Zm-.23 14.886a7.598 7.598 0 0 0 1.979-5.612 7.884 7.884 0 0 0-1.98-5.701 7.564 7.564 0 0 0-5.695-2.053H4.347a.878.878 0 0 0-.875.879v13.595a.881.881 0 0 0 .54.812c.107.044.22.066.335.066h2.566a7.67 7.67 0 0 0 5.696-1.986ZM21.861 112.883a7.653 7.653 0 0 1 2.863-3 7.719 7.719 0 0 1 4.005-1.072 7.411 7.411 0 0 1 3.458.769 7 7 0 0 1 2.36 1.917v-1.539a.88.88 0 0 1 .876-.879h1.75a.876.876 0 0 1 .876.879v14.865a.877.877 0 0 1-.876.879h-1.75a.878.878 0 0 1-.877-.879v-1.588a6.89 6.89 0 0 1-2.404 1.962 7.511 7.511 0 0 1-3.474.784 7.428 7.428 0 0 1-3.953-1.102 7.832 7.832 0 0 1-2.848-3.076 9.385 9.385 0 0 1-1.05-4.48 9.12 9.12 0 0 1 1.044-4.44Zm11.97 1.506a5.024 5.024 0 0 0-6.867-1.945 4.9 4.9 0 0 0-1.873 1.9 5.87 5.87 0 0 0-.717 2.97 6.125 6.125 0 0 0 .717 3.011 4.993 4.993 0 0 0 1.888 1.975 4.873 4.873 0 0 0 2.481.685 4.925 4.925 0 0 0 4.37-2.609c.494-.921.74-1.955.717-3.001a5.966 5.966 0 0 0-.716-2.983v-.003ZM46.624 111.888v9.2a1.755 1.755 0 0 0 .441 1.341c.434.315.967.461 1.5.411h1.257a.858.858 0 0 1 .62.256.884.884 0 0 1 .256.622v1.108a.877.877 0 0 1-.876.878h-1.855a5.318 5.318 0 0 1-3.596-1.085 4.455 4.455 0 0 1-1.247-3.529v-9.202H42.02a.872.872 0 0 1-.62-.257.882.882 0 0 1-.256-.622v-1.051a.88.88 0 0 1 .876-.879h1.105v-3.249a.888.888 0 0 1 .256-.622.881.881 0 0 1 .62-.257h1.751a.878.878 0 0 1 .875.879v3.253h3.205a.878.878 0 0 1 .877.879v1.047a.883.883 0 0 1-.541.813.877.877 0 0 1-.336.066h-3.207ZM53.47 112.883a7.639 7.639 0 0 1 2.863-3 7.714 7.714 0 0 1 4.004-1.072 7.386 7.386 0 0 1 3.457.769 7.011 7.011 0 0 1 2.361 1.917v-1.539a.879.879 0 0 1 .875-.879h1.752a.88.88 0 0 1 .875.879v14.865a.88.88 0 0 1-.875.879H67.03a.877.877 0 0 1-.875-.879v-1.588a6.911 6.911 0 0 1-2.406 1.962 7.854 7.854 0 0 1-7.433-.319 7.823 7.823 0 0 1-2.846-3.076 9.387 9.387 0 0 1-1.051-4.48 9.124 9.124 0 0 1 1.051-4.439Zm11.967 1.509a4.954 4.954 0 0 0-1.825-1.902 4.92 4.92 0 0 0-2.538-.692 5.025 5.025 0 0 0-2.497.649 4.91 4.91 0 0 0-1.873 1.899 5.875 5.875 0 0 0-.716 2.971 6.125 6.125 0 0 0 .716 3.011 5.01 5.01 0 0 0 1.888 1.975 4.867 4.867 0 0 0 2.482.684 4.897 4.897 0 0 0 2.543-.695 4.93 4.93 0 0 0 1.82-1.913 6.057 6.057 0 0 0 .717-3.001 5.97 5.97 0 0 0-.717-2.986ZM80.1 109.58a7.564 7.564 0 0 1 3.427-.769c1.41-.018 2.8.347 4.02 1.057a7.46 7.46 0 0 1 2.837 3 9.329 9.329 0 0 1 1.035 4.449 9.51 9.51 0 0 1-1.035 4.48 7.702 7.702 0 0 1-2.852 3.081 8.033 8.033 0 0 1-7.462.346 6.61 6.61 0 0 1-2.391-1.93v1.529a.877.877 0 0 1-.875.879h-1.722a.88.88 0 0 1-.875-.879v-20.562a.88.88 0 0 1 .875-.873h1.722a.877.877 0 0 1 .875.879v7.295a6.584 6.584 0 0 1 2.421-1.982Zm7.067 4.766a4.896 4.896 0 0 0-1.89-1.899 5.095 5.095 0 0 0-2.512-.649 4.976 4.976 0 0 0-4.37 2.594 5.969 5.969 0 0 0-.716 2.986 6.055 6.055 0 0 0 .715 3.001 4.963 4.963 0 0 0 5.75 2.416 4.992 4.992 0 0 0 3.023-2.462 6.15 6.15 0 0 0 .716-3.011 5.907 5.907 0 0 0-.716-2.976ZM102.569 123.098a4.871 4.871 0 0 1-2.592-.875 4.9 4.9 0 0 1-1.718-2.136.297.297 0 0 1-.005-.248.293.293 0 0 1 .187-.163l11.54-3.37a.881.881 0 0 0 .614-1.034 11.589 11.589 0 0 0-.226-.842 8.572 8.572 0 0 0-2.27-3.792 7.53 7.53 0 0 0-3.691-1.927 9.85 9.85 0 0 0-8.46 2.502 7.307 7.307 0 0 0-2.03 3.725 9.114 9.114 0 0 0 .286 4.622 9.891 9.891 0 0 0 1.155 2.495h.008a7.64 7.64 0 0 0 2.892 2.875 8.646 8.646 0 0 0 4.31 1.07 8.142 8.142 0 0 0 4.949-1.463 7.61 7.61 0 0 0 2.169-2.42.893.893 0 0 0-.313-1.212.884.884 0 0 0-.44-.123h-1.899a.92.92 0 0 0-.436.124.925.925 0 0 0-.322.321 4.089 4.089 0 0 1-1.599 1.444 4.063 4.063 0 0 1-2.109.427Zm-4.627-9.368a4.6 4.6 0 0 1 2.697-1.966 5.19 5.19 0 0 1 3.603.136c.717.299 1.327.81 1.748 1.465a.894.894 0 0 1-.128 1.138.883.883 0 0 1-.355.206l-7.126 2.082a.857.857 0 0 1-.402.024.878.878 0 0 1-.72-.864 4.33 4.33 0 0 1 .683-2.227v.006ZM126.075 109.626a5.833 5.833 0 0 1 2.454 2.413c.617 1.19.92 2.519.882 3.861v8.923a.88.88 0 0 1-.876.879h-1.69a.875.875 0 0 1-.875-.879v-8.41a4.806 4.806 0 0 0-1.128-3.422 4.034 4.034 0 0 0-3.075-1.191 4.096 4.096 0 0 0-3.092 1.191 4.762 4.762 0 0 0-1.141 3.422v8.41a.88.88 0 0 1-.877.879h-1.723a.873.873 0 0 1-.875-.879v-14.865a.88.88 0 0 1 .875-.879h1.722a.875.875 0 0 1 .876.879v1.021a5.73 5.73 0 0 1 2.182-1.598 7.01 7.01 0 0 1 2.816-.574 7.605 7.605 0 0 1 3.545.819ZM133.817 112.883a7.641 7.641 0 0 1 2.863-3 7.776 7.776 0 0 1 4.035-1.072 7.943 7.943 0 0 1 3.243.709 6.65 6.65 0 0 1 2.544 1.886v-7.145a.872.872 0 0 1 .875-.878h1.752a.872.872 0 0 1 .875.878v20.562a.879.879 0 0 1-.875.879h-1.752a.875.875 0 0 1-.875-.879v-1.625a6.485 6.485 0 0 1-2.361 1.992 7.388 7.388 0 0 1-3.456.784 7.552 7.552 0 0 1-4.005-1.102 7.802 7.802 0 0 1-2.863-3.075 9.381 9.381 0 0 1-1.051-4.48 9.108 9.108 0 0 1 1.051-4.434Zm11.969 1.506a4.934 4.934 0 0 0-4.37-2.594 5.025 5.025 0 0 0-2.498.649 4.913 4.913 0 0 0-1.873 1.9 5.882 5.882 0 0 0-.716 2.97 6.138 6.138 0 0 0 .716 3.011 5.016 5.016 0 0 0 1.888 1.975 4.88 4.88 0 0 0 2.483.685 4.921 4.921 0 0 0 4.37-2.609c.494-.921.74-1.955.716-3.001a5.974 5.974 0 0 0-.716-2.983v-.003Z"/><path fill="#BAE6FF" d="M125.333 78.603v.013a.676.676 0 0 1-.672.678.686.686 0 0 1-.281-.067 11.184 11.184 0 0 1-4.062-3.503 11.29 11.29 0 0 1-.93 5.234c0 .007 0 .014-.007.014a.683.683 0 0 1-.923.24.605.605 0 0 1-.193-.173c-.007-.014-.014-.02-.014-.027a11.3 11.3 0 0 1-1.556-8.221c-10.929-6.296-22.038-.793-22.038-.793l.046.014a11.27 11.27 0 0 1 4.138 1.247l.04.02a.674.674 0 0 1 .227.913.806.806 0 0 1-.224.224c-.287.214-.582.41-.888.603 0 .007-.007.02-.007.027a7.871 7.871 0 0 1-.456.248c-.875.487-1.813.853-2.786 1.087v.007c-.02.007-.048.007-.067.014-.713.165-1.441.26-2.173.282-3.507.34-7.038.352-10.547.034-4.098 3.475-20.635 10.939-35.274 8.486-10.62-2.496-16.31-7.436-19.278-12.564 2.715 1.916 14.091 8.356 36.431 1.249 25.774-8.202 34.01-12.705 55.363-7.118a17.931 17.931 0 0 1 1.197 3.785v.007c1.354.9 2.497 2.086 3.349 3.474a11.265 11.265 0 0 1 1.585 4.566Z"/><path fill="#52ADFF" d="M114.514 58.791a35.098 35.098 0 0 1 4.679 7.987c-21.356-5.592-29.591-1.095-55.364 7.117-22.34 7.108-33.716.663-36.43-1.246l-.026-.048c-.014-.013-.014-.02-.014-.02a24.793 24.793 0 0 1-2.535-16.88 27.329 27.329 0 0 1 1.644-1.57c2.447 2.222 14.412 11.51 37.706 5.652.004-.005 36.521-9.293 50.34-.992Z"/><path fill="#015BCE" d="M96.032 45.763c1.756.813 4.815 1.442 6.475 2.44-13.224-4.8-27.402-4.278-38.28-2.727a31.848 31.848 0 0 1-17.996-2.457 70.647 70.647 0 0 1 41.17-.504 63.163 63.163 0 0 1 8.631 3.248Z"/><path fill="#0175F5" d="M102.325 48.09a43.499 43.499 0 0 1 12.189 10.701c-13.822-8.303-50.34.987-50.34.987-23.295 5.858-35.26-3.43-37.706-5.653a60.076 60.076 0 0 1 20.929-11.498 31.84 31.84 0 0 0 17.995 2.456c10.884-1.553 23.706-1.794 36.933 3.007Z"/><path fill="#015BCE" d="M97.2 45.37a53.655 53.655 0 0 1 5.121 2.72c-13.224-4.799-26.048-4.558-36.93-3.011a31.864 31.864 0 0 1-17.996-2.456 70.645 70.645 0 0 1 41.17-.505 62.92 62.92 0 0 1 8.636 3.251ZM64.292 26.638a2.668 2.668 0 0 1-.443 1.46 2.652 2.652 0 0 1-1.169.976v.007a11.263 11.263 0 0 0-5.093 5.107 11.328 11.328 0 0 1 2.133-9.335A2.59 2.59 0 0 1 61.65 24a2.622 2.622 0 0 1 1.864.766 2.64 2.64 0 0 1 .778 1.865v.007ZM55.201 36.866c0 .411-.027.822-.066 1.232a11.062 11.062 0 0 0-4.626-2.839.41.41 0 0 0-.128-.032 2.795 2.795 0 0 1-1.843-1.88 2.818 2.818 0 0 1 .523-2.584 2.796 2.796 0 0 1 2.427-1.009 2.788 2.788 0 0 1 2.19 1.457c1 1.715 1.526 3.667 1.523 5.655Z"/><path fill="#0175F5" d="M66.197 75.795c1.326 0 2.401-1.079 2.401-2.41a2.405 2.405 0 0 0-2.4-2.41c-1.326 0-2.401 1.079-2.401 2.41a2.406 2.406 0 0 0 2.4 2.41Z"/></g><defs><clipPath id="a"><path fill="#fff" d="M0 24h150v102H0z"/></clipPath></defs></svg>