<svg xmlns="http://www.w3.org/2000/svg" fill="none" height="250" viewBox="0 0 127 24" width="250"><g fill="#fff"><path d="m31.2911 6.51564c.5957.24568 1.1434.59452 1.618 1.03046l-.8836.98739c-.3928-.32207-.8322-.58274-1.3032-.77312-.4389-.16789-.9053-.25217-1.3751-.24851-.6126.0-1.1177.14174-1.5153.42522s-.5964.69802-.5964 1.24363c-.0099.29953.0607.59624.2043.85929.137.233.3888.4418.7588.6395.5173.2512 1.0558.4563 1.6092.6129.6355.1838 1.252.4279 1.8411.729.4801.2536.8873.6258 1.1829 1.0813.3011.4594.4517 1.0411.4517 1.745.0133.6403-.1614 1.2704-.5025 1.8124-.3544.5393-.8568.9649-1.4469 1.226-.631.2945-1.3776.4418-2.2398.4418-1.6236.0-2.9519-.5055-3.9849-1.5165l.8835-.9873c.4365.3619.9241.6574 1.4469.8769.5207.2047 1.0763.306 1.6357.2982.7253.0 1.3268-.1789 1.8047-.5368.4779-.3578.7164-.8773.7157-1.5584.0125-.3345-.0637-.6664-.2209-.9619-.1875-.2924-.4489-.5301-.7577-.6892-.4958-.2599-1.0183-.4654-1.5584-.613-1.2024-.363-2.0822-.8-2.6396-1.311s-.8332-1.2046-.8273-2.08082c-.0082-.56288.1551-1.11491.4683-1.5827.3266-.47867.7808-.8563 1.311-1.0901.6022-.27001 1.2565-.40388 1.9163-.39209.6828-.01634 1.3625.09645 2.0035.33245z" opacity=".6"/><path d="m43.5263 6.38867-.1701 1.37948h-3.2526v10.35435h-1.6181v-10.35546h-3.3377v-1.37837z" opacity=".6"/><path d="m52.2096 18.1214-.8835-2.9467h-4.4455l-.8836 2.9467h-1.6368l3.7629-11.73273h2.0433l3.7463 11.73383zm-4.9369-4.2577h3.6613l-1.8169-6.1309z" opacity=".6"/><path d="m62.2934 6.4558c.5354.21274 1.0326.51116 1.4722.88357l-.8836 1.0382c-.7157-.57874-1.4707-.86811-2.2652-.86811-.4541-.0127-.9046.08249-1.3147.27776-.4102.19526-.7681.48502-1.0445.84548-.5956.74956-.8935 1.9531-.8935 3.6105.0 1.6125.2945 2.8016.8836 3.5674.2699.3686.6253.6661 1.0357.8668s.8635.2985 1.3201.2852c.4506.0099.8981-.0771 1.3121-.2552.4184-.196.8158-.434 1.1862-.7101l.8008 1.0216c-.4004.4001-.875.7182-1.3972.9366-.6195.2602-1.2864.3881-1.9582.3755-.8972.0138-1.7792-.2316-2.5403-.7069-.7437-.4719-1.3228-1.1644-1.7373-2.0775-.4145-.913-.6233-2.0145-.6262-3.3045.0-1.2819.2157-2.38013.6472-3.29463s1.0161-1.60442 1.7539-2.06976c.7385-.4654 1.5956-.70777 2.4685-.69803.6051-.0145 1.208.079 1.7804.27612z" opacity=".6"/><path d="m68.4154 6.38867V18.1214h-1.618v-11.73273zm6.386.0-4.4454 5.36323 4.769 6.3695h-1.988l-4.6366-6.2667 4.461-5.46603z" opacity=".6"/><path d="m83.7586 18.121v-5.0584h-3.542v5.0584h-2.7932v-11.80118h2.7932v4.56368h3.542v-4.56368h2.7921V18.121z"/><path d="m96.1728 18.121-.613-2.5402h-3.4404l-.5964 2.5402h-2.8948l3.563-11.80118h3.3885l3.5586 11.80118zm-3.5763-4.5647h2.4862l-1.2436-5.21089z"/><path d="m114.121 6.31982-1.974 11.80118h-3.629l-1.464-9.00909-1.546 9.00909h-3.546l-1.941-11.80118h2.793l1.175 9.68948 1.635-9.68948h2.929l1.531 9.68948 1.379-9.68948z"/><path d="m119.264 6.31982v11.80118h-2.793v-11.80118zm6.778.0-3.764 5.30148 4.07 6.5052h-3.232l-3.764-6.2954 3.747-5.50023z"/><g fill-opacity=".6"><path d="m6.68031 6.99231c.11045.09277.20543.17782.2971.25623l5.02969-2.90363 4.9646 2.8716c.0928-.07841.1922-.16456.2971-.25623l-5.2617-3.0428z"/><path d="m19.0072 13.0547c-.1205.0599-.244.1137-.37.1612v2.6121l-3.3134 1.9107c.095.0243.1602.0354.1602.0354-.1105.148-.3855.2595-.6075.3313.0564.0497.1315.1171.2209.1966l3.9087-2.2575z"/><path d="m12.8432 23.5617 1.1818-.6826-.6815-.4616-.18.1038c-.086.3528-.193.7003-.3203 1.0404z"/><path d="m8.52365 17.7743s.06516-.0111.16236-.0365l-3.30567-1.9096v-2.5712c-.1237-.0431-.2474-.0928-.36999-.1491v2.9335l3.99705 2.3083.23857-.2209c-.23415-.0574-.59641-.18-.72232-.3545z"/><path d="m5.36598 5.79271c.14211.13695.28238.26948.4208.3976l6.22032-3.59061 6.153 3.55196c.138-.12812.2783-.26176.4197-.39871l-6.5727-3.79494z"/><path d="m20.7037 11.5308c-.1717.2259-.3561.442-.5522.6472v4.5283l-4.197 2.421c.1336.138.2651.2783.3877.4175l4.3626-2.5182z"/><path d="m4.69557 5.1203 7.38773-4.265445 7.2199 4.169355c.1756-.18666.3468-.37552.5081-.56217l-7.7313-4.46204-7.89801 4.56254c.16346.18666.33576.37331.51358.55776z"/><path d="m9.4205 21.6079-6.98905-4.0346V8.20966c-.25403-.27501-.50143-.57874-.7411-.8913V18.0007l7.69702 4.4433c-.00334-.2791.00772-.5581.03313-.8361z"/><path d="m21.7352 7.91687v9.65633l-6.9956 4.039c.0232.2872.0375.5743.0331.835l7.7025-4.4466v-11.03136c-.2319.31808-.4837.64611-.74.94763z"/><path d="m9.63033 20.0284-.23415-.1358-.79411.1833.93438.539c.04086-.2419.06958-.4473.09388-.5865z"/><path d="m8.15364 19.1759-4.28753-2.4751v-4.4124c-.19569-.1955-.38007-.402-.55224-.6185v5.3512l4.45873 2.5745c.11707-.1403.2474-.285.38104-.4197z"/><path d="m11.3146 23.556c-.1278-.3396-.2347-.6867-.3202-1.0394l-.1757-.1016-.6814.4617z"/><path d="m14.6578 19.8691-.1446.0829c.022.1226.0585.3313.096.5853l.8416-.4848z"/></g><path d="m11.7454 12.1733c.1159.2385.2341.4826.349.7333.1104-.2507.233-.4948.3479-.7333.7996-1.6567 1.2016-2.61761.1745-3.14886l-.0453-.03424c-.0536-.07701-.1251-.13991-.2082-.18335-.0832-.04344-.1756-.06613-.2695-.06613-.0938.0-.1863.02269-.2694.06613-.0832.04344-.1546.10634-.2083.18335l-.0452.03424c-1.0272.53125-.6252 1.49326.1745 3.14886z"/><path d="m22.8828 4.95253c-2.3735 3.88219-7.3999 5.71997-7.3999 5.71997 8.85-5.23953 8.5176-10.508926 8.5176-10.508926-3.1753 5.969626-8.5044 9.196876-10.456 10.229526-.1192.5931-.4417 1.2602-.7731 1.9472-.1723.3545-.349.7223-.5114 1.1045l-.17.3942-.1701-.3942c-.1635-.3778-.3402-.7456-.5114-1.1045-.3126-.6461-.6163-1.2768-.7499-1.8434-1.76716-.90341-7.36569-4.14501-10.65699169-10.333326.0.0-.33133931 5.269396 8.51762169 10.508926.0.0-5.0242-1.83778-7.3999-5.71997.0.0 1.69203 5.12137 6.79576 6.28217.0.0-3.21951-.0419-5.05071-1.93831.0.0-.11045 2.28071 4.80773 2.62311.0.0-2.41546.5865-3.59614-.4882.0.0.05854 1.1586 3.67014 1.2679.0.0 1.59263-.1104 2.60649.5964-.032 1.2978.2706 2.6419.5733 3.6448-.0531.0364-.0685.2927-1.86548.8604.0.0276 1.15308.3081 1.71298-.2209.1293.1226-1.29881.5157-2.63189 2.1824.01656-.0652 1.74947-.6307 2.96989-1.1752.0133-.0077-.9023.9024-1.0879 3.6149.032-.0088.5666-.8835 1.4049-1.8555-.0581 1.2512.1642 2.4994.6505 3.6536v-4.2246 4.2213c.4662-1.1044.6892-2.2963.6539-3.4945.7598.9078 1.2381 1.6876 1.2679 1.6964-.1856-2.7125-1.1045-3.6226-1.0868-3.6149 1.2204.5445 2.9533 1.11 2.9688 1.1752-1.3353-1.6634-2.7711-2.0565-2.6452-2.1824.56.5257 1.7174.2451 1.7119.2208-1.8179-.5743-1.8124-.8305-1.8665-.8614.0.0.0.0.0-.0056.3048-1.0028.6096-2.3458.5809-3.6447 1.0139-.7035 2.5966-.5898 2.5966-.5898 3.6116-.1104 3.6702-1.2679 3.6702-1.2679-1.1862 1.0724-3.6006.4827-3.6006.4827 4.9127-.3424 4.8077-2.62315 4.8077-2.62315-1.8312 1.89635-5.0507 1.93835-5.0507 1.93835 5.1037-1.1575 6.7958-6.27337 6.7958-6.27337z"/></g></svg>