<svg xmlns="http://www.w3.org/2000/svg" width="250" height="250" fill="none"><path fill="#09C6FA" d="M158.251 34.504c12.263 0 24.529.04 36.806 0 6.195-.047 11.712 1.618 16.398 5.75 5.146 4.525 8.13 10.213 8.156 17.08.105 24.967.39 49.942-.073 74.898-.419 22.471-8.433 42.307-23.199 59.229-15.432 17.698-34.859 28.24-58.065 31.534-17.983 2.562-35.326.033-51.823-7.592-23.034-10.644-39.305-27.95-48.776-51.508-5.696-14.177-7.674-29.005-6.06-44.273 2.12-20.032 9.766-37.637 22.936-52.815 12.754-14.616 28.544-24.338 47.238-29.283a93.935 93.935 0 0 1 24.416-3.009c10.675.008 21.357.004 32.046-.01Zm-18.242 84.317c-7.194 0-14.387-.022-21.581.022-1.25 0-1.643-.216-1.184-1.563 1.771-5.227 3.44-10.487 5.149-15.74 1.761-5.403 3.52-10.805 5.277-16.208.455-1.402 0-2.537-1.214-3.225-1.213-.688-2.438-.435-3.352.71-.51.64-.97 1.322-1.458 1.988-8.386 11.733-16.768 23.462-25.144 35.187a3357.736 3357.736 0 0 1-10.04 13.968 3.43 3.43 0 0 0-.404 3.704c.623 1.347 1.77 1.86 3.174 1.915.597.022 1.199.018 1.796.018h40.545c2.448 0 2.492 0 1.712 2.416a10669.655 10669.655 0 0 1-9.926 30.381c-.601 1.83-.317 2.965.995 3.697 1.312.732 2.452.417 3.644-1.098.171-.213.328-.436.488-.659a102250.94 102250.94 0 0 0 35.69-49.613c.893-1.241 1.338-2.533.584-3.968-.755-1.434-2.038-1.958-3.666-1.951-7.026.044-14.056.019-21.085.019Z"/><path fill="#FBFEFE" d="M140.008 118.821c7.03 0 14.059.025 21.088-.019 1.629 0 2.898.487 3.666 1.951.769 1.465.31 2.727-.583 3.968-11.904 16.533-23.8 33.07-35.69 49.613-.16.223-.317.446-.488.659-1.203 1.508-2.322 1.83-3.644 1.098-1.323-.732-1.597-1.86-.995-3.697 3.316-10.125 6.625-20.252 9.926-30.381.78-2.405.729-2.416-1.712-2.416H91.031c-.597 0-1.199 0-1.796-.018-1.403-.055-2.551-.568-3.174-1.915a3.433 3.433 0 0 1 .4-3.704c3.36-4.636 6.71-9.291 10.051-13.964 8.389-11.713 16.77-23.442 25.144-35.187.478-.667.937-1.347 1.458-1.988.915-1.146 2.114-1.413 3.353-.71 1.239.703 1.669 1.83 1.213 3.225l-5.277 16.208c-1.709 5.249-3.378 10.509-5.149 15.739-.459 1.347-.065 1.571 1.185 1.563 7.182-.047 14.376-.025 21.569-.025Z"/></svg>