<svg xmlns="http://www.w3.org/2000/svg" width="250" height="250" fill="none"><path fill="url(#a)" d="m65.416 208.703-43.194-74.819a18.918 18.918 0 0 1 0-18.921l43.194-74.817a18.923 18.923 0 0 1 16.39-9.462h86.389a18.925 18.925 0 0 1 16.388 9.462l43.195 74.817a18.92 18.92 0 0 1 0 18.923l-43.195 74.817a18.919 18.919 0 0 1-16.388 9.46h-86.39a18.925 18.925 0 0 1-16.389-9.462v.002Z"/><path fill="#000" fill-rule="evenodd" d="m213.347 158.882-28.764 49.821a18.919 18.919 0 0 1-16.388 9.46h-3.416l-66.21-66.21-7.63-27.528 9.489-24.724 24.573-9.133 27.356 7.321 60.99 60.993Z" clip-rule="evenodd" opacity=".07"/><path fill="#fff" d="M125.001 86.255c-21.08 0-38.168 17.088-38.168 38.169 0 21.079 17.088 38.168 38.168 38.168 21.079 0 38.166-17.089 38.166-38.168 0-21.081-17.089-38.17-38.166-38.17Zm0 67.129c-15.995 0-28.962-12.967-28.962-28.962 0-15.994 12.967-28.96 28.962-28.96 15.994 0 28.961 12.968 28.961 28.962s-12.967 28.961-28.961 28.961"/><path fill="#fff" d="M106.884 122.95v11.864a21.049 21.049 0 0 0 7.207 7.363V122.95h-7.207Zm14.291-10.002v31.941c1.226.226 2.48.362 3.768.362 1.175 0 2.32-.123 3.444-.311v-31.992h-7.212Zm14.959 14.932v14.089a21.051 21.051 0 0 0 7.211-7.734v-6.354l-7.211-.001Zm16.332 20.054-3.954 3.957a1.79 1.79 0 0 0 0 2.529l14.999 14.994a1.788 1.788 0 0 0 2.529 0l3.954-3.952a1.799 1.799 0 0 0 0-2.528l-15-15a1.794 1.794 0 0 0-2.528 0Z"/><defs><linearGradient id="a" x1="125" x2="125" y1="30.686" y2="217.872" gradientUnits="userSpaceOnUse"><stop stop-color="#4387FD"/><stop offset="1" stop-color="#4683EA"/></linearGradient></defs></svg>