<svg version="1.0" xmlns="http://www.w3.org/2000/svg"
 width="225.000000pt" height="225.000000pt" viewBox="0 0 225.000000 225.000000"
 preserveAspectRatio="xMidYMid meet">

<g transform="translate(0.000000,225.000000) scale(0.100000,-0.100000)"
fill="#000000" stroke="none">
<path d="M936 2160 c-412 -65 -728 -342 -826 -723 -73 -286 -43 -561 86 -807
25 -47 58 -100 73 -119 l28 -34 81 57 c96 68 218 126 328 158 l81 24 -41 45
c-55 61 -102 150 -121 230 -20 85 -19 254 1 333 67 259 315 404 583 341 229
-54 361 -241 361 -510 0 -165 -49 -301 -142 -397 -35 -36 -42 -48 -28 -48 36
0 205 -61 283 -103 44 -23 105 -63 138 -89 l58 -47 34 47 c144 199 210 455
187 722 -40 448 -321 787 -745 896 -112 28 -315 40 -419 24z"/>
<path d="M962 520 c-88 -11 -237 -60 -309 -101 -60 -34 -146 -116 -140 -133 7
-22 131 -85 235 -119 278 -91 569 -71 825 59 110 55 110 55 52 115 -128 130
-420 209 -663 179z"/>
</g>
</svg>
