<svg xmlns="http://www.w3.org/2000/svg" viewBox="0 0 3842.6 749.82" height="250" width="250" ><defs><style>.cls-1{fill:#057bde;}.cls-2{fill:#fff;}</style></defs><title>blue normal</title><g id="Layer_2" data-name="Layer 2"><g id="Layer_1-2" data-name="Layer 1"><g id="Layer_2-2" data-name="Layer 2"><g id="Layer_1-2-2" data-name="Layer 1-2"><path class="cls-1" d="M1352.6,568V289.16L1243.6,568h-35.89l-109-278.79V568h-82.3V181.36h115.34l93.89,241.69,93.9-241.69h115.91V568Z"/><path class="cls-1" d="M1671.84,568V538.39c-19.13,23.18-52.16,36.51-88.68,36.51-44.63,0-96.79-30.14-96.79-92.73,0-66.08,52.16-90.42,96.79-90.42,37.68,0,70.13,12.17,88.68,34.2V390.59c0-28.4-24.34-46.95-61.44-46.95-29.56,0-57.38,11.6-80.56,33l-29-51.58C1535,294.34,1579.08,281,1623.13,281c64.34,0,122.88,25.5,122.88,106.06V568Zm0-67.24V465.94c-12.17-16.23-35.36-24.92-59.12-24.92-29,0-52.74,15.64-52.74,42.31s23.76,41.73,52.74,41.73c23.76,0,47-8.12,59.12-24.35Z"/><path class="cls-1" d="M1805.32,568V288h73.58V568Z"/><path class="cls-1" d="M1939.72,568V181.36h73.61V568Z"/><path class="cls-1" d="M2078.9,568V181.36h203.44c73.61,0,111.28,47,111.28,98.53,0,48.11-30.14,81.14-66.65,88.68,41.73,6.37,74.19,46.36,74.19,94.47,0,58.54-38.26,104.91-112.44,104.91Zm230.68-273.57c0-23.76-17.39-40.57-45.21-40.57H2161.18V335h103.16c27.82,0,45.21-15.65,45.21-40.57Zm7.54,157.07c0-24.34-17.39-44.05-49.27-44.05H2161.18v88.1h106.64c30.72,0,49.27-16.23,49.27-44.05Z"/><path class="cls-1" d="M2454.56,568V181.36h73.61V568Z"/><path class="cls-1" d="M2777.21,568V532.59c-19.12,20.87-52.74,42.31-98.53,42.31-61.43,0-90.41-33.61-90.41-88.1V288h73.63V457.82c0,38.84,20.28,51.59,51.58,51.59,28.4,0,51-15.65,63.75-31.88V288h73.61V568Z"/><path class="cls-1" d="M2890.64,531.43l31.87-53.27c20.87,19.71,62,38.83,96.8,38.83,31.87,0,46.94-12.17,46.94-29.56,0-45.78-165.76-8.11-165.76-118.23,0-47,40.57-88.1,114.76-88.1,47,0,84.62,16.23,112.44,38.25l-29.56,52.17c-16.81-17.39-48.69-32.46-82.88-32.46-26.66,0-44,11.59-44,27.24,0,41.15,166.34,6.37,166.34,119.39,0,51.59-44,89.26-121.71,89.26C2967.14,574.9,2920.2,558.67,2890.64,531.43Z"/><path class="cls-1" d="M3200.07,497.82V352.34h-46.36V288h46.36V211.5h73.61V288h56.8v64.34h-56.8V478.16c0,18,9.28,31.3,25.5,31.3,11,0,21.45-4.06,25.51-8.7L3340.34,557c-11,9.86-30.72,18-61.44,18C3227.32,574.9,3200.07,548.24,3200.07,497.82Z"/><path class="cls-1" d="M3351.58,427.69c0-81.15,60.27-146.64,144.9-146.64,84,0,140.26,62.59,140.26,153.59V452H3428.66c5.22,34.19,33,62.59,80.57,62.59,23.76,0,56.22-9.85,74.18-27.24l33,48.69c-27.82,25.5-71.87,38.83-115.34,38.83C3415.9,574.9,3351.58,517.52,3351.58,427.69Zm144.9-86.36c-45.79,0-65.5,31.87-68.4,59.69h138c-2.37-26.66-20.92-59.69-69.6-59.69Z"/><path class="cls-1" d="M3679.74,568V288h73.61v37.68c20.28-24.35,54.48-44.63,89.25-44.63v71.87c-5.21-1.16-11.59-1.74-20.28-1.74-24.35,0-56.8,13.91-69,31.88V568Z"/><path class="cls-1" d="M699.71,562.47C632.44,679,512.06,745.74,386.81,749.8c-31.17,1-51.39-32.46-35.8-59.45l43.1-74.65a19.42,19.42,0,0,0-5.92-26.05,19.07,19.07,0,0,0-26.37,5.71l-.48.79L295.47,710.23a39.56,39.56,0,0,1-47.64,17.54l-.91-.33a39.58,39.58,0,0,1-23.4-50.84,40.81,40.81,0,0,1,2.89-6.13L325,499.77a19.42,19.42,0,0,0-5.91-26,19.09,19.09,0,0,0-26.38,5.69c-.17.26-.33.53-.49.8L193.34,651.39a39.58,39.58,0,0,1-59.57,10.76l-.73-.62a39.57,39.57,0,0,1-8.64-50L190,497.89a19.43,19.43,0,0,0-5.86-26,19.07,19.07,0,0,0-26.37,5.7c-.17.26-.34.53-.49.8l-43.38,75.12c-15.58,27-54.69,26.22-69.37-1.27C-14.6,441.68-17,304,50.29,187.53,153.83,8.21,383.13-53.24,562.47,50.3S803.24,383.14,699.71,562.47Z"/><path class="cls-2" d="M495,616.49c-40.41-36-107.23-108-125.93-202.5a19.07,19.07,0,0,0-22.37-15.08,17.56,17.56,0,0,0-2.56.68c-91.2,31.11-186.89,9.21-238.31-7.76a19.07,19.07,0,0,1-3.54-34.62L498.13,128.7a19.08,19.08,0,0,1,28.61,16.53v457A19.08,19.08,0,0,1,495,616.49Z"/><path class="cls-1" d="M1873.65,262.9c-6.72-6-17.83-18-20.93-33.67a3.18,3.18,0,0,0-3.75-2.5,2.92,2.92,0,0,0-.4.1c-15.17,5.18-31.08,1.54-39.63-1.28a3.17,3.17,0,0,1-2-4,3.24,3.24,0,0,1,1.43-1.76l65.82-38a3.18,3.18,0,0,1,4.34,1.18,3.11,3.11,0,0,1,.42,1.57v76a3.17,3.17,0,0,1-5.28,2.36Z"/></g></g></g></g></svg>
