<?xml version="1.0" standalone="no"?>
<!DOCTYPE svg PUBLIC "-//W3C//DTD SVG 20010904//EN"
 "http://www.w3.org/TR/2001/REC-SVG-20010904/DTD/svg10.dtd">
<svg version="1.0" xmlns="http://www.w3.org/2000/svg"
 width="1416.000000pt" height="1416.000000pt" viewBox="0 0 1416.000000 1416.000000"
 preserveAspectRatio="xMidYMid meet">
<metadata>
Created by potrace 1.16, written by Peter Selinger 2001-2019
</metadata>
<g transform="translate(0.000000,1416.000000) scale(0.100000,-0.100000)"
fill="#000000" stroke="none">
<path d="M7095 14093 c8 -99 242 -4252 335 -5958 192 -3538 297 -5659 330
-6670 5 -176 13 -393 16 -482 l6 -163 58 0 c56 0 57 1 52 25 -29 153 219 5068
523 10370 20 336 64 1119 100 1740 35 622 66 1147 67 1168 l4 37 -749 0 -748
0 6 -67z"/>
<path d="M3495 13033 c13 -112 26 -1084 36 -2708 11 -1736 6 -8237 -8 -9647
l-6 -678 456 0 457 0 0 29 c0 15 -9 156 -20 312 -51 732 -225 3361 -330 4989
-246 3807 -403 6518 -425 7335 -3 116 -8 256 -11 313 l-6 102 -74 0 -75 0 6
-47z"/>
<path d="M12030 12945 c0 -502 -165 -3431 -380 -6724 -16 -251 -45 -701 -65
-1001 -59 -908 -201 -3043 -275 -4125 -39 -561 -70 -1037 -70 -1057 l0 -38
456 0 456 0 -6 658 c-10 1118 -14 7252 -6 9117 8 1627 20 2677 36 3128 l7 177
-76 0 -77 0 0 -135z"/>
</g>
</svg>
