<?xml version="1.0" encoding="UTF-8"?><svg id="logosandtypes_com" xmlns="http://www.w3.org/2000/svg" viewBox="0 0 150 150"><defs><style>.cls-1{fill:none;}.cls-2{fill:#4169e1;}</style></defs><path class="cls-1" d="M0,0H150V150H0V0Z"/><path class="cls-2" d="M127.39,22.48c-17.2-17.89-48.38-17.9-65.57,0L14.4,69.73c-3.74,3.51-.91,10.31,4.23,10.12,1.58,0,3.09-.63,4.21-1.75L70.25,30.85c12.9-12.99,35.69-12.83,48.4,.35,13.21,12.68,13.37,35.39,.32,48.24l-47.41,47.25c-1.12,1.11-1.75,2.62-1.75,4.19-.18,5.11,6.65,7.96,10.16,4.21l47.41-47.26c17.93-17.22,17.93-48.13,0-65.35Z"/><path class="cls-2" d="M120.74,55.14c.4-15.97-15.7-29.06-31.25-25.55-5.07,1.01-9.73,3.49-13.39,7.14L13.11,99.5c-5.13,5.6,2.84,13.48,8.42,8.37l62.3-62.02c.47-.57,.99-1.05,1.57-1.55,12.97-10.7,30.59,5.84,20.56,19.4l-.04,.06c-.77,1.02-1.68,1.93-2.71,2.7l-61.52,61.52c-3.76,3.49-.92,10.31,4.21,10.12,1.58,0,3.09-.62,4.21-1.74l62.99-62.78c4.88-4.81,7.7-11.6,7.65-18.45Z"/><path class="cls-2" d="M88.69,68.07c-3.49-1.52-6.09-4.46-7.48-7.96L11.62,129.46c-1.33,1.29-2.18,2.99-2.4,4.83-.23,1.62,.32,3.32,1.46,4.5,2.63,2.57,7.05,1.52,9.39-.94L89.63,68.49l-.93-.43Z"/></svg>
