<svg xmlns="http://www.w3.org/2000/svg" width="250" height="250" fill="none"><path fill="#14B2C7" fill-rule="evenodd" d="M87.629 48.615c-7.563 15.718-7.438 14.872-3.264 21.974 1.961 3.34 3.547 8.508 4.033 13.138l.8 7.635-6.46 12.035c-3.552 6.62-7.134 14.153-7.96 16.741-2.16 6.769-4.664 7.098-10.411 1.365-5.877-5.863-8.05-12.724-8.23-25.99l-.13-9.638-4.196-.404c-2.844-.274-4.438.226-4.947 1.551-.737 1.914.826 10.794 2.678 15.227 1.411 3.378-2.857 4.456-5.841 1.474-1.336-1.335-3.215-5.897-4.176-10.138-1.843-8.14-5.07-10.557-9.356-7.009-3.065 2.537-2.17 5.668 4.026 14.061 8.395 11.375 6.3 14.984-4.47 7.704C22.181 103.243 18 103.812 18 109.933c0 2.537.017 2.546 17.994 8.9 6.708 2.371 14.535 6.068 17.393 8.218 21.75 16.355 23.946 16.33 33.004-.374 5.466-10.084 8.423-10.682 9.52-1.928 1.957 15.61 3.298 19.94 8.392 27.103 5.882 8.27 5.305 8.997-4.914 6.194-4.332-1.188-11.445-1.899-17.474-1.747-12.534.316-13.706 1.488-11.208 11.21 2.706 10.527-2.997 11.575-9.793 1.799-8.519-12.254-13.28-13.989-13.28-4.839 0 4.091.932 5.642 6.441 10.721 10.008 9.226 8.49 12.433-3.575 7.546-7.22-2.924-11.655 2.185-7.454 8.581l2.07 3.149 15.109.008c11.509.007 16.03.506 18.974 2.101 33.493 18.14 48.688 23.032 52.602 16.933 1.736-2.705-2.673-12.719-9.763-22.17-8.71-11.61-4.856-11.634 8.984-.053 18.125 15.166 21.257 15.155 26.832-.09 3.644-9.964 10.379-20.801 11.95-19.223.479.481.871 7.441.871 15.465 0 16.4.902 18.615 6.758 16.574 2.584-.9 6.779-6.122 15.429-19.205 12.441-18.818 22.299-29.461 30.76-33.211 8.208-3.637 8.875-4.16 9.34-7.307.402-2.724-2.503-6.366-5.078-6.366-.505 0-3.349 2.024-6.317 4.497-8.715 7.263-9.362 6.628-8.831-8.674l.456-13.172h-7.73l-.644 11.566c-.981 17.607-2.965 18.665-9.218 4.911-3.889-8.557-6.427-10.728-9.962-8.519-3.969 2.482-2.963 6.332 4.296 16.423 3.935 5.469 7.12 10.895 7.08 12.058-.11 3.119-6.869 15.014-8.332 14.664-.692-.165-1.597-5.37-2.012-11.566-1.913-28.597-9.545-33.468-21.245-13.554-4.83 8.221-5.779 7.011-5.506-7.028l.244-12.53-5.373-9.433c-4.579-8.035-6.498-13.056-4.992-13.056.209 0 5.508 2.632 11.776 5.848 6.268 3.217 12.618 5.675 14.113 5.462 3.564-.508 6.982-7.605 8.642-17.948.721-4.477 2.245-9.587 3.389-11.354 5.431-8.384 10.508-13.234 16.866-16.111 6.125-2.774 6.809-3.478 6.442-6.644-.291-2.506-1.434-3.9-3.909-4.762-3.181-1.109-3.978-.674-8.806 4.795-7.232 8.195-10.243 8.087-10.243-.366 0-3.51.91-8.284 2.021-10.609 2.682-5.61.791-11.282-3.764-11.282-5.231 0-6.06 2.421-5.162 15.045 1.14 16.02-3.544 18.322-7.387 3.63-2.025-7.746-7.427-10.968-10.084-6.016-.943 1.758-.621 3.514 1.234 6.746 9.889 17.22 11.674 21.819 11.287 29.064-.576 10.765-2.236 11.061-15.563 2.783-6.122-3.803-13.493-8.345-16.378-10.091-2.885-1.746-7.868-6.662-11.076-10.923-5.507-7.318-5.789-8.09-5.063-13.901.701-5.602.43-6.493-3.047-9.96-2.098-2.093-5.184-3.807-6.858-3.807-1.672 0-6.191-2.024-10.04-4.497-11.576-7.44-12.932-6.846-20.56 9.004Zm2.471 129.32c10.231 13.987 10.069 15.178-1.28 9.441-5.425-2.741-6.4-3.793-6.4-6.907 0-2.02-.362-5.48-.805-7.689-1.267-6.317 1.181-4.829 8.485 5.155Z" clip-rule="evenodd"/></svg>