<svg width="186" height="50" viewBox="0 0 186 50" fill="none" xmlns="http://www.w3.org/2000/svg">
<path fill-rule="evenodd" clip-rule="evenodd" d="M16.5139 6.06634C21.871 0.0567327 30.7423 -1.70619 38.0356 1.76266C47.7257 6.372 51.2607 18.1137 45.985 27.171L34.1168 47.5238C33.4535 48.6611 32.3621 49.4908 31.0823 49.8309C29.8025 50.1711 28.4388 49.9937 27.2908 49.3378L41.6595 24.6924C45.4871 18.1189 42.9269 9.5981 35.9015 6.24323C30.6303 3.72615 24.1864 4.98358 20.2923 9.31242C18.1443 11.6888 16.9383 14.757 16.8981 17.9479C16.8579 21.1388 17.9862 24.2359 20.0736 26.6648C20.4487 27.1007 20.8524 27.5116 21.2821 27.8948L12.8937 42.3083C12.5657 42.8718 12.129 43.3656 11.6084 43.7618C11.0879 44.1579 10.4938 44.4484 9.85999 44.6169C9.2262 44.7853 8.56516 44.8283 7.9146 44.7435C7.26404 44.6586 6.63672 44.4475 6.06844 44.1223L15.1748 28.4743C13.8668 26.6045 12.9274 24.5062 12.4063 22.2901L6.82606 31.898C6.16272 33.0353 5.07133 33.8651 3.7915 34.2052C2.51168 34.5453 1.14804 34.3679 0 33.712L14.4306 8.92831C15.0313 7.91054 15.7289 6.95217 16.5139 6.06634ZM33.1696 13.9551C36.645 15.9452 37.8452 20.371 35.8344 23.8154L21.9964 47.5208C21.3331 48.6581 20.2417 49.4879 18.9619 49.828C17.682 50.1681 16.3184 49.9907 15.1703 49.3348L28.0193 27.265C26.9884 27.0499 26.0168 26.6154 25.1717 25.9917C24.3265 25.3679 23.628 24.5698 23.1243 23.6523C22.6206 22.7348 22.3237 21.7198 22.2542 20.6775C22.1846 19.6351 22.344 18.5903 22.7214 17.615C23.0988 16.6397 23.6852 15.7572 24.4401 15.0285C25.1949 14.2998 26.1003 13.7422 27.0937 13.3942C28.0871 13.0463 29.1448 12.9162 30.1938 13.013C31.2428 13.1099 32.2581 13.4313 33.1696 13.9551ZM28.1363 18.4101C27.8984 18.5911 27.6989 18.8168 27.5491 19.0743H27.5483C27.3226 19.4621 27.2179 19.9076 27.2475 20.3544C27.2771 20.8012 27.4396 21.2292 27.7146 21.5844C27.9895 21.9396 28.3645 22.206 28.7921 22.3499C29.2197 22.4938 29.6808 22.5087 30.117 22.3928C30.5532 22.2769 30.9449 22.0354 31.2426 21.6987C31.5404 21.3621 31.7307 20.9454 31.7897 20.5015C31.8486 20.0576 31.7735 19.6063 31.5737 19.2047C31.374 18.8032 31.0587 18.4693 30.6676 18.2454C30.408 18.0968 30.1213 18.0003 29.8241 17.9615C29.5268 17.9227 29.2248 17.9423 28.9352 18.0193C28.6456 18.0963 28.3741 18.2291 28.1363 18.4101Z" fill="#1A194D"/>
<path fill-rule="evenodd" clip-rule="evenodd" d="M16.5139 6.06634C21.871 0.0567327 30.7423 -1.70619 38.0356 1.76266C47.7257 6.372 51.2607 18.1137 45.985 27.171L34.1168 47.5238C33.4535 48.6611 32.3621 49.4908 31.0823 49.8309C29.8025 50.1711 28.4388 49.9937 27.2908 49.3378L41.6595 24.6924C45.4871 18.1189 42.9269 9.5981 35.9015 6.24323C30.6303 3.72615 24.1864 4.98358 20.2923 9.31242C18.1443 11.6888 16.9383 14.757 16.8981 17.9479C16.8579 21.1388 17.9862 24.2359 20.0736 26.6648C20.4487 27.1007 20.8524 27.5116 21.2821 27.8948L12.8937 42.3083C12.5657 42.8718 12.129 43.3656 11.6084 43.7618C11.0879 44.1579 10.4938 44.4484 9.85999 44.6169C9.2262 44.7853 8.56516 44.8283 7.9146 44.7435C7.26404 44.6586 6.63672 44.4475 6.06844 44.1223L15.1748 28.4743C13.8668 26.6045 12.9274 24.5062 12.4063 22.2901L6.82606 31.898C6.16272 33.0353 5.07133 33.8651 3.7915 34.2052C2.51168 34.5453 1.14804 34.3679 0 33.712L14.4306 8.92831C15.0313 7.91054 15.7289 6.95217 16.5139 6.06634ZM33.1696 13.9551C36.645 15.9452 37.8452 20.371 35.8344 23.8154L21.9964 47.5208C21.3331 48.6581 20.2417 49.4879 18.9619 49.828C17.682 50.1681 16.3184 49.9907 15.1703 49.3348L28.0193 27.265C26.9884 27.0499 26.0168 26.6154 25.1717 25.9917C24.3265 25.3679 23.628 24.5698 23.1243 23.6523C22.6206 22.7348 22.3237 21.7198 22.2542 20.6775C22.1846 19.6351 22.344 18.5903 22.7214 17.615C23.0988 16.6397 23.6852 15.7572 24.4401 15.0285C25.1949 14.2998 26.1003 13.7422 27.0937 13.3942C28.0871 13.0463 29.1448 12.9162 30.1938 13.013C31.2428 13.1099 32.2581 13.4313 33.1696 13.9551ZM28.1363 18.4101C27.8984 18.5911 27.6989 18.8168 27.5491 19.0743H27.5483C27.3226 19.4621 27.2179 19.9076 27.2475 20.3544C27.2771 20.8012 27.4396 21.2292 27.7146 21.5844C27.9895 21.9396 28.3645 22.206 28.7921 22.3499C29.2197 22.4938 29.6808 22.5087 30.117 22.3928C30.5532 22.2769 30.9449 22.0354 31.2426 21.6987C31.5404 21.3621 31.7307 20.9454 31.7897 20.5015C31.8486 20.0576 31.7735 19.6063 31.5737 19.2047C31.374 18.8032 31.0587 18.4693 30.6676 18.2454C30.408 18.0968 30.1213 18.0003 29.8241 17.9615C29.5268 17.9227 29.2248 17.9423 28.9352 18.0193C28.6456 18.0963 28.3741 18.2291 28.1363 18.4101Z" fill="#615EFF"/>
<path fill-rule="evenodd" clip-rule="evenodd" d="M57.4873 38L67.8584 11.6328H73.9392L84.3103 38H78.5131L76.2794 32.0938H65.5182L63.2845 38H57.4873ZM74.5065 27.3477C73.7974 25.2852 73.1651 23.4395 72.6096 21.8105C72.0541 20.1816 71.4868 18.5 70.9077 16.7656C70.3285 18.5 69.7553 20.1816 69.188 21.8105C68.6325 23.4395 68.0002 25.2852 67.2911 27.3477H74.5065ZM86.0654 14.4453C86.0654 13.6016 86.3254 12.9219 86.8455 12.4062C87.3655 11.8906 88.051 11.6328 88.902 11.6328C89.7529 11.6328 90.4384 11.8906 90.9584 12.4062C91.4785 12.9219 91.7385 13.6016 91.7385 14.4453C91.7385 15.2891 91.4785 15.9688 90.9584 16.4844C90.4384 17 89.7529 17.2578 88.902 17.2578C88.051 17.2578 87.3655 17 86.8455 16.4844C86.3254 15.9688 86.0654 15.2891 86.0654 14.4453ZM86.3491 38V20.4219H91.4548V38H86.3491ZM95.7806 20.4219V38H100.886V30.248C100.886 28.3965 101.306 26.9727 102.145 25.9766C102.984 24.9688 104.089 24.4648 105.46 24.4648C106.122 24.4648 106.796 24.5762 107.481 24.7988L108.19 20.4219C107.375 20.1875 106.583 20.0703 105.815 20.0703C103.557 20.0703 101.785 21.0254 100.496 22.9355V20.4219H95.7806ZM110.141 38V11.6328H115.246V22.1621C115.991 21.5059 116.842 20.9961 117.799 20.6328C118.757 20.2578 119.791 20.0703 120.902 20.0703C122.568 20.0703 124.051 20.4688 125.351 21.2656C126.652 22.0508 127.674 23.1348 128.418 24.5176C129.163 25.8887 129.535 27.4531 129.535 29.2109C129.535 30.9688 129.163 32.5391 128.418 33.9219C127.674 35.293 126.652 36.377 125.351 37.1738C124.051 37.959 122.568 38.3516 120.902 38.3516C119.755 38.3516 118.686 38.1582 117.693 37.7715C116.7 37.373 115.831 36.8164 115.087 36.1016L114.963 38H110.141ZM120.254 33.957C121.554 33.957 122.629 33.5059 123.48 32.6035C124.331 31.7012 124.757 30.5703 124.757 29.2109C124.757 27.8516 124.331 26.7207 123.48 25.8184C122.629 24.916 121.554 24.4648 120.254 24.4648C118.953 24.4648 117.878 24.916 117.027 25.8184C116.176 26.7207 115.751 27.8516 115.751 29.2109C115.751 30.5703 116.176 31.7012 117.027 32.6035C117.878 33.5059 118.953 33.957 120.254 33.957ZM138.067 29.0176L133.918 20.4219H128.582L136.843 37.1211L132.801 46.7891H138.173L149.2 20.4219H143.811L139.024 31.8828C138.906 31.3086 138.764 30.7812 138.598 30.3008C138.433 29.8203 138.256 29.3926 138.067 29.0176ZM149.891 20.4219H152.817V16.0273H157.922V20.4219H162.23V24.8164H157.922V31.2852C157.922 32.1172 158.188 32.7734 158.72 33.2539C159.264 33.7227 159.949 33.957 160.777 33.957C161.391 33.957 162.024 33.8223 162.674 33.5527V37.7012C161.551 38.1348 160.446 38.3516 159.358 38.3516C157.255 38.3516 155.635 37.7949 154.501 36.6816C153.378 35.5566 152.817 33.9512 152.817 31.8652V24.8164H149.891V20.4219ZM171.91 33.0957C171.059 32.4863 170.474 31.6953 170.155 30.7227H183.983V29.1934C183.983 27.4238 183.581 25.8535 182.778 24.4824C181.974 23.1113 180.875 22.0332 179.48 21.248C178.097 20.4629 176.514 20.0703 174.729 20.0703C172.932 20.0703 171.325 20.4688 169.907 21.2656C168.5 22.0508 167.389 23.1289 166.574 24.5C165.758 25.8594 165.351 27.4121 165.351 29.1582C165.351 30.9277 165.776 32.5098 166.627 33.9043C167.478 35.2871 168.654 36.377 170.155 37.1738C171.656 37.959 173.387 38.3516 175.349 38.3516C176.579 38.3516 177.861 38.1523 179.196 37.7539C180.544 37.3555 181.903 36.623 183.274 35.5566L180.189 31.9004C179.527 32.5215 178.789 33.0312 177.973 33.4297C177.169 33.8164 176.153 34.0098 174.924 34.0098C173.777 34.0098 172.773 33.7051 171.91 33.0957ZM178.426 27C178.144 26.3774 177.739 25.8487 177.211 25.4141C176.443 24.7812 175.521 24.4648 174.445 24.4648C173.358 24.4648 172.412 24.7871 171.609 25.4316C171.07 25.8703 170.657 26.3931 170.37 27H178.426Z" fill="#1A194D"/>
</svg>
