<svg width="177" height="58" viewBox="0 0 177 58" fill="none" xmlns="http://www.w3.org/2000/svg">
<circle cx="29" cy="29" r="29" fill="#4F46E5"/>
<path d="M35.4234 40.9999C40.5719 40.9999 44.7455 36.8263 44.7455 31.6779C44.7455 26.5295 40.5719 22.3559 35.4234 22.3559C30.275 22.3559 26.1014 26.5295 26.1014 31.6779" stroke="white" stroke-width="3.38983"/>
<path d="M26.5257 17.6948C21.3773 17.6948 17.2037 21.8684 17.2037 27.0169C17.2037 32.1653 21.3773 36.3389 26.5257 36.3389C31.6741 36.3389 35.8477 32.1653 35.8477 27.0169" stroke="white" stroke-width="3.38983"/>
<line x1="47.2881" y1="17.6949" x2="26.5254" y2="17.6949" stroke="white" stroke-width="3.38983"/>
<line x1="35.4234" y1="41" x2="15.0844" y2="41" stroke="white" stroke-width="3.38983"/>
<path d="M15.0847 40.9999C12.2765 40.9999 10 38.7234 10 35.9152C10 33.107 12.2765 30.8304 15.0847 30.8304C16.4359 30.8304 17.664 31.3575 18.5747 32.2172" stroke="white" stroke-width="3.38983"/>
<path d="M76.444 38V19.8H84.4C86.376 19.8 88.1093 20.1813 89.6 20.944C91.0907 21.7067 92.252 22.764 93.084 24.116C93.916 25.468 94.332 27.0627 94.332 28.9C94.332 30.72 93.916 32.3147 93.084 33.684C92.252 35.036 91.0907 36.0933 89.6 36.856C88.1093 37.6187 86.376 38 84.4 38H76.444ZM79.824 35.14H84.244C85.6133 35.14 86.792 34.88 87.78 34.36C88.7853 33.84 89.5567 33.112 90.094 32.176C90.6487 31.24 90.926 30.148 90.926 28.9C90.926 27.6347 90.6487 26.5427 90.094 25.624C89.5567 24.688 88.7853 23.96 87.78 23.44C86.792 22.92 85.6133 22.66 84.244 22.66H79.824V35.14ZM106.166 38V35.192L105.984 34.594V29.68C105.984 28.7267 105.698 27.99 105.126 27.47C104.554 26.9327 103.688 26.664 102.526 26.664C101.746 26.664 100.975 26.7853 100.212 27.028C99.4671 27.2707 98.8345 27.6087 98.3145 28.042L97.0405 25.676C97.7858 25.104 98.6698 24.6793 99.6925 24.402C100.732 24.1073 101.807 23.96 102.916 23.96C104.927 23.96 106.478 24.4453 107.57 25.416C108.68 26.3693 109.234 27.8513 109.234 29.862V38H106.166ZM101.798 38.182C100.758 38.182 99.8485 38.0087 99.0685 37.662C98.2885 37.298 97.6818 36.804 97.2485 36.18C96.8325 35.5387 96.6245 34.8193 96.6245 34.022C96.6245 33.242 96.8065 32.54 97.1705 31.916C97.5518 31.292 98.1671 30.798 99.0165 30.434C99.8658 30.07 100.992 29.888 102.396 29.888H106.426V32.046H102.63C101.521 32.046 100.776 32.228 100.394 32.592C100.013 32.9387 99.8225 33.372 99.8225 33.892C99.8225 34.4813 100.056 34.9493 100.524 35.296C100.992 35.6427 101.642 35.816 102.474 35.816C103.272 35.816 103.982 35.634 104.606 35.27C105.248 34.906 105.707 34.3687 105.984 33.658L106.53 35.608C106.218 36.4227 105.655 37.0553 104.84 37.506C104.043 37.9567 103.029 38.182 101.798 38.182ZM117.695 38.182C116.534 38.182 115.416 38.0347 114.341 37.74C113.284 37.428 112.443 37.0553 111.819 36.622L113.067 34.152C113.691 34.5507 114.437 34.88 115.303 35.14C116.17 35.4 117.037 35.53 117.903 35.53C118.926 35.53 119.663 35.3913 120.113 35.114C120.581 34.8367 120.815 34.464 120.815 33.996C120.815 33.6147 120.659 33.3287 120.347 33.138C120.035 32.93 119.628 32.774 119.125 32.67C118.623 32.566 118.059 32.4707 117.435 32.384C116.829 32.2973 116.213 32.1847 115.589 32.046C114.983 31.89 114.428 31.6733 113.925 31.396C113.423 31.1013 113.015 30.7113 112.703 30.226C112.391 29.7407 112.235 29.0993 112.235 28.302C112.235 27.418 112.487 26.6553 112.989 26.014C113.492 25.3553 114.194 24.8527 115.095 24.506C116.014 24.142 117.097 23.96 118.345 23.96C119.281 23.96 120.226 24.064 121.179 24.272C122.133 24.48 122.921 24.7747 123.545 25.156L122.297 27.626C121.639 27.2273 120.971 26.9587 120.295 26.82C119.637 26.664 118.978 26.586 118.319 26.586C117.331 26.586 116.595 26.7333 116.109 27.028C115.641 27.3227 115.407 27.6953 115.407 28.146C115.407 28.562 115.563 28.874 115.875 29.082C116.187 29.29 116.595 29.4547 117.097 29.576C117.6 29.6973 118.155 29.8013 118.761 29.888C119.385 29.9573 120.001 30.07 120.607 30.226C121.214 30.382 121.769 30.5987 122.271 30.876C122.791 31.136 123.207 31.5087 123.519 31.994C123.831 32.4793 123.987 33.112 123.987 33.892C123.987 34.7587 123.727 35.5127 123.207 36.154C122.705 36.7953 121.985 37.298 121.049 37.662C120.113 38.0087 118.995 38.182 117.695 38.182ZM134.482 38.182C133.356 38.182 132.324 37.922 131.388 37.402C130.47 36.882 129.733 36.102 129.178 35.062C128.641 34.0047 128.372 32.67 128.372 31.058C128.372 29.4287 128.632 28.094 129.152 27.054C129.69 26.014 130.418 25.2427 131.336 24.74C132.255 24.22 133.304 23.96 134.482 23.96C135.852 23.96 137.056 24.2547 138.096 24.844C139.154 25.4333 139.986 26.2567 140.592 27.314C141.216 28.3713 141.528 29.6193 141.528 31.058C141.528 32.4967 141.216 33.7533 140.592 34.828C139.986 35.8853 139.154 36.7087 138.096 37.298C137.056 37.8873 135.852 38.182 134.482 38.182ZM126.786 43.044V24.116H129.88V27.392L129.776 31.084L130.036 34.776V43.044H126.786ZM134.118 35.4C134.898 35.4 135.592 35.2267 136.198 34.88C136.822 34.5333 137.316 34.0307 137.68 33.372C138.044 32.7133 138.226 31.942 138.226 31.058C138.226 30.1567 138.044 29.3853 137.68 28.744C137.316 28.0853 136.822 27.5827 136.198 27.236C135.592 26.8893 134.898 26.716 134.118 26.716C133.338 26.716 132.636 26.8893 132.012 27.236C131.388 27.5827 130.894 28.0853 130.53 28.744C130.166 29.3853 129.984 30.1567 129.984 31.058C129.984 31.942 130.166 32.7133 130.53 33.372C130.894 34.0307 131.388 34.5333 132.012 34.88C132.636 35.2267 133.338 35.4 134.118 35.4ZM144.611 38V24.116H147.861V38H144.611ZM146.249 21.828C145.642 21.828 145.139 21.6373 144.741 21.256C144.359 20.8747 144.169 20.4153 144.169 19.878C144.169 19.3233 144.359 18.864 144.741 18.5C145.139 18.1187 145.642 17.928 146.249 17.928C146.855 17.928 147.349 18.11 147.731 18.474C148.129 18.8207 148.329 19.2627 148.329 19.8C148.329 20.372 148.138 20.8573 147.757 21.256C147.375 21.6373 146.873 21.828 146.249 21.828ZM152.126 38V24.116H155.22V27.938L154.856 26.82C155.272 25.884 155.922 25.1733 156.806 24.688C157.707 24.2027 158.825 23.96 160.16 23.96V27.054C160.021 27.0193 159.891 27.002 159.77 27.002C159.649 26.9847 159.527 26.976 159.406 26.976C158.175 26.976 157.196 27.34 156.468 28.068C155.74 28.7787 155.376 29.8447 155.376 31.266V38H152.126ZM169.316 38.182C167.774 38.182 166.422 37.8787 165.26 37.272C164.116 36.648 163.224 35.7987 162.582 34.724C161.958 33.6493 161.646 32.4273 161.646 31.058C161.646 29.6713 161.95 28.4493 162.556 27.392C163.18 26.3173 164.03 25.4767 165.104 24.87C166.196 24.2633 167.436 23.96 168.822 23.96C170.174 23.96 171.379 24.2547 172.436 24.844C173.494 25.4333 174.326 26.2653 174.932 27.34C175.539 28.4147 175.842 29.68 175.842 31.136C175.842 31.2747 175.834 31.4307 175.816 31.604C175.816 31.7773 175.808 31.942 175.79 32.098H164.22V29.94H174.074L172.8 30.616C172.818 29.8187 172.653 29.1167 172.306 28.51C171.96 27.9033 171.483 27.4267 170.876 27.08C170.287 26.7333 169.602 26.56 168.822 26.56C168.025 26.56 167.323 26.7333 166.716 27.08C166.127 27.4267 165.659 27.912 165.312 28.536C164.983 29.1427 164.818 29.862 164.818 30.694V31.214C164.818 32.046 165.009 32.7827 165.39 33.424C165.772 34.0653 166.309 34.5593 167.002 34.906C167.696 35.2527 168.493 35.426 169.394 35.426C170.174 35.426 170.876 35.3047 171.5 35.062C172.124 34.8193 172.679 34.438 173.164 33.918L174.906 35.92C174.282 36.648 173.494 37.2113 172.54 37.61C171.604 37.9913 170.53 38.182 169.316 38.182Z" fill="#27272A"/>
</svg>
