<svg width="36" height="36" viewBox="0 0 36 36" fill="none" xmlns="http://www.w3.org/2000/svg">
<path d="M9.5 3L5 9V30C5 30.7956 5.31607 31.5587 5.87868 32.1213C6.44129 32.6839 7.20435 33 8 33H29C29.7956 33 30.5587 32.6839 31.1213 32.1213C31.6839 31.5587 32 30.7956 32 30V9L27.5 3H9.5Z" stroke="white" stroke-width="3" stroke-linecap="round" stroke-linejoin="round"/>
<path d="M5 9H32" stroke="white" stroke-width="3" stroke-linecap="round" stroke-linejoin="round"/>
<path d="M24.5 15C24.5 16.5913 23.8679 18.1174 22.7426 19.2426C21.6174 20.3679 20.0913 21 18.5 21C16.9087 21 15.3826 20.3679 14.2574 19.2426C13.1321 18.1174 12.5 16.5913 12.5 15" stroke="white" stroke-width="3" stroke-linecap="round" stroke-linejoin="round"/>
</svg>
