<svg width="36" height="36" viewBox="0 0 36 36" fill="none" xmlns="http://www.w3.org/2000/svg">
<path d="M33.0001 8.25C33.0001 8.25 33 27.0467 33 28.5C33 30.9853 26.2843 33 18 33C9.71572 33 3.00002 30.9853 3.00002 28.5C3.00002 27.1067 3 8.25 3 8.25" stroke="white" stroke-width="3" stroke-linecap="round" stroke-linejoin="round"/>
<path d="M33 21.75C33 24.2353 26.2843 26.25 18 26.25C9.71572 26.25 3 24.2353 3 21.75" stroke="white" stroke-width="3" stroke-linecap="round" stroke-linejoin="round"/>
<path d="M33 15C33 17.4853 26.2843 19.5 18 19.5C9.71572 19.5 3 17.4853 3 15" stroke="white" stroke-width="3" stroke-linecap="round" stroke-linejoin="round"/>
<path d="M18 12C26.2843 12 33 9.98528 33 7.5C33 5.01472 26.2843 3 18 3C9.71573 3 3 5.01472 3 7.5C3 9.98528 9.71573 12 18 12Z" stroke="white" stroke-width="3" stroke-linecap="round" stroke-linejoin="round"/>
</svg>
