<svg width="58" height="58" viewBox="0 0 58 58" fill="none" xmlns="http://www.w3.org/2000/svg">
<circle cx="29" cy="29" r="29" fill="#4F46E5"/>
<path d="M35.4235 40.9999C40.5719 40.9999 44.7455 36.8263 44.7455 31.6779C44.7455 26.5295 40.5719 22.3559 35.4235 22.3559C30.2751 22.3559 26.1014 26.5295 26.1014 31.6779" stroke="white" stroke-width="3.38983"/>
<path d="M26.5257 17.6948C21.3773 17.6948 17.2037 21.8685 17.2037 27.0169C17.2037 32.1653 21.3773 36.3389 26.5257 36.3389C31.6742 36.3389 35.8478 32.1653 35.8478 27.0169" stroke="white" stroke-width="3.38983"/>
<line x1="47.2881" y1="17.6948" x2="26.5254" y2="17.6948" stroke="white" stroke-width="3.38983"/>
<line x1="35.4235" y1="41" x2="15.0845" y2="41" stroke="white" stroke-width="3.38983"/>
<path d="M15.0847 40.9999C12.2765 40.9999 10 38.7234 10 35.9152C10 33.107 12.2765 30.8304 15.0847 30.8304C16.4359 30.8304 17.664 31.3575 18.5747 32.2172" stroke="white" stroke-width="3.38983"/>
</svg>
