<svg width="49" height="33" viewBox="0 0 49 33" fill="none" xmlns="http://www.w3.org/2000/svg">
<path d="M34.3633 30.8408C40.7146 30.8408 45.8633 25.6921 45.8633 19.3408C45.8633 12.9895 40.7146 7.84082 34.3633 7.84082C28.012 7.84082 22.8633 12.9895 22.8633 19.3408" stroke="white" stroke-width="4.18182"/>
<path d="M23.3867 2.09082C17.0354 2.09082 11.8867 7.23955 11.8867 13.5908C11.8867 19.9421 17.0354 25.0908 23.3867 25.0908C29.738 25.0908 34.8867 19.9421 34.8867 13.5908" stroke="white" stroke-width="4.18182"/>
<line x1="49" y1="2.09091" x2="23.3864" y2="2.09091" stroke="white" stroke-width="4.18182"/>
<line x1="34.3633" y1="30.8409" x2="9.27237" y2="30.8409" stroke="white" stroke-width="4.18182"/>
<path d="M9.27273 30.8404C5.8084 30.8404 3 28.032 3 24.5676C3 21.1033 5.8084 18.2949 9.27273 18.2949C10.9396 18.2949 12.4546 18.9451 13.578 20.0057" stroke="white" stroke-width="4.18182"/>
</svg>
