<svg width="248" height="170" viewBox="0 0 248 170" fill="none" xmlns="http://www.w3.org/2000/svg">
<path d="M172.531 158.841C205.242 158.841 231.76 132.323 231.76 99.6121C231.76 66.9009 205.242 40.3833 172.531 40.3833C139.82 40.3833 113.302 66.9009 113.302 99.6121" stroke="#4F46E5" stroke-width="21.5378"/>
<path d="M115.998 10.7689C83.2872 10.7689 56.7695 37.2865 56.7695 69.9977C56.7695 102.709 83.2872 129.227 115.998 129.227C148.71 129.227 175.227 102.709 175.227 69.9977" stroke="#4F46E5" stroke-width="21.5378"/>
<line x1="247.915" y1="10.7689" x2="115.997" y2="10.7689" stroke="#4F46E5" stroke-width="21.5378"/>
<line x1="172.531" y1="158.841" x2="43.3048" y2="158.841" stroke="#4F46E5" stroke-width="21.5378"/>
<path d="M43.3066 158.841C25.4642 158.841 11 144.377 11 126.534C11 108.692 25.4642 94.2277 43.3066 94.2277C51.8916 94.2277 59.6945 97.5763 65.4804 103.039" stroke="#4F46E5" stroke-width="21.5378"/>
</svg>
