<svg width="36" height="36" viewBox="0 0 36 36" fill="none" xmlns="http://www.w3.org/2000/svg">
<path d="M28.2 16.0498H7.9C6.29837 16.0498 5 17.3482 5 18.9498V29.0998C5 30.7014 6.29837 31.9998 7.9 31.9998H28.2C29.8016 31.9998 31.1 30.7014 31.1 29.0998V18.9498C31.1 17.3482 29.8016 16.0498 28.2 16.0498Z" stroke="white" stroke-width="3" stroke-linecap="round" stroke-linejoin="round"/>
<path d="M10.8008 16.05V10.25C10.8008 8.32718 11.5646 6.48312 12.9243 5.12348C14.2839 3.76384 16.128 3 18.0508 3C19.9736 3 21.8177 3.76384 23.1773 5.12348C24.5369 6.48312 25.3008 8.32718 25.3008 10.25V16.05" stroke="white" stroke-width="3" stroke-linecap="round" stroke-linejoin="round"/>
</svg>
