<svg width="112" height="112" viewBox="0 0 112 112" fill="none" xmlns="http://www.w3.org/2000/svg">
    <g filter="url(#filter0_d)">
        <path fill-rule="evenodd" clip-rule="evenodd" d="M56 105C83.062 105 105 83.062 105 56C105 28.938 83.062 7 56 7C28.938 7 7 28.938 7 56C7 83.062 28.938 105 56 105Z" fill="url(#paint0_linear)"/>
    </g>
    <path fill-rule="evenodd" clip-rule="evenodd" d="M56 101.062C80.8874 101.062 101.062 80.8874 101.062 56C101.062 31.1126 80.8874 10.9375 56 10.9375C31.1126 10.9375 10.9375 31.1126 10.9375 56C10.9375 80.8874 31.1126 101.062 56 101.062Z" fill="url(#paint1_linear)"/>
    <g clip-path="url(#clip0)">
        <g filter="url(#filter1_d)">
            <g filter="url(#filter2_d)">
                <path d="M68.8571 37.9916C68.8571 36.0997 70.3908 34.5659 72.2828 34.5659C74.1747 34.5659 75.7085 36.0997 75.7085 37.9916V59.8552C75.7085 65.0833 79.6814 69.4554 84.8856 69.9545H85.8599C87.6477 69.9545 89.0971 71.4038 89.0971 73.1916C89.0971 74.9794 87.6477 76.4287 85.8599 76.4287H85.3256L83.8137 76.2776C82.3143 76.1276 80.8421 75.7752 79.4373 75.2299L79.2873 75.1717C74.679 73.3829 71.1278 69.6047 69.6278 64.8945C69.117 63.2908 68.8571 61.6178 68.8571 59.9347V37.9916Z" fill="white"/>
            </g>
            <g filter="url(#filter3_d)">
                <path fill-rule="evenodd" clip-rule="evenodd" d="M33.9597 34C30.6682 34 28 36.6682 28 39.9597V69.1508C28 73.1702 31.2584 76.4286 35.2778 76.4286H43.3437C44.7189 76.4286 46.0909 76.2948 47.4403 76.0293C53.6402 74.8091 59.013 70.8158 62.0276 65.2625C65.0133 59.7626 65.4184 53.1424 63.0641 47.3441C60.6141 41.3104 55.4933 36.7622 49.2126 35.0414L48.3574 34.8071C46.4022 34.2715 44.3841 34 42.3569 34H33.9597ZM38.3592 40.6001C36.2483 40.6001 34.5371 42.3113 34.5371 44.4222V65.2272C34.5371 67.8033 36.6254 69.8915 39.2014 69.8915H44.3236C45.2467 69.8915 46.1673 69.7952 47.0704 69.604C51.0063 68.7708 54.3512 66.196 56.1638 62.6044L56.5071 61.9242C58.3688 58.2353 58.5978 53.9348 57.1386 50.0691L57.0686 49.8837C55.4804 45.6763 52.012 42.4567 47.6983 41.1855C46.381 40.7972 45.0147 40.6001 43.6413 40.6001H38.3592Z" fill="white"/>
            </g>
        </g>
    </g>
    <defs>
        <filter id="filter0_d" x="5" y="7" width="102" height="104" filterUnits="userSpaceOnUse" color-interpolation-filters="sRGB">
            <feFlood flood-opacity="0" result="BackgroundImageFix"/>
            <feColorMatrix in="SourceAlpha" type="matrix" values="0 0 0 0 0 0 0 0 0 0 0 0 0 0 0 0 0 0 127 0"/>
            <feOffset dy="4"/>
            <feGaussianBlur stdDeviation="1"/>
            <feColorMatrix type="matrix" values="0 0 0 0 0 0 0 0 0 0 0 0 0 0 0 0 0 0 0.25 0"/>
            <feBlend mode="normal" in2="BackgroundImageFix" result="effect1_dropShadow"/>
            <feBlend mode="normal" in="SourceGraphic" in2="effect1_dropShadow" result="shape"/>
        </filter>
        <filter id="filter1_d" x="27" y="33" width="65.0971" height="46.4287" filterUnits="userSpaceOnUse" color-interpolation-filters="sRGB">
            <feFlood flood-opacity="0" result="BackgroundImageFix"/>
            <feColorMatrix in="SourceAlpha" type="matrix" values="0 0 0 0 0 0 0 0 0 0 0 0 0 0 0 0 0 0 127 0"/>
            <feOffset dx="1" dy="1"/>
            <feGaussianBlur stdDeviation="1"/>
            <feColorMatrix type="matrix" values="0 0 0 0 0.772549 0 0 0 0 0.768627 0 0 0 0 1 0 0 0 0.25 0"/>
            <feBlend mode="normal" in2="BackgroundImageFix" result="effect1_dropShadow"/>
            <feBlend mode="normal" in="SourceGraphic" in2="effect1_dropShadow" result="shape"/>
        </filter>
        <filter id="filter2_d" x="64.8571" y="34.5659" width="28.24" height="49.8628" filterUnits="userSpaceOnUse" color-interpolation-filters="sRGB">
            <feFlood flood-opacity="0" result="BackgroundImageFix"/>
            <feColorMatrix in="SourceAlpha" type="matrix" values="0 0 0 0 0 0 0 0 0 0 0 0 0 0 0 0 0 0 127 0"/>
            <feOffset dy="4"/>
            <feGaussianBlur stdDeviation="2"/>
            <feColorMatrix type="matrix" values="0 0 0 0 0 0 0 0 0 0 0 0 0 0 0 0 0 0 0.25 0"/>
            <feBlend mode="normal" in2="BackgroundImageFix" result="effect1_dropShadow"/>
            <feBlend mode="normal" in="SourceGraphic" in2="effect1_dropShadow" result="shape"/>
        </filter>
        <filter id="filter3_d" x="24" y="34" width="44.5848" height="50.4286" filterUnits="userSpaceOnUse" color-interpolation-filters="sRGB">
            <feFlood flood-opacity="0" result="BackgroundImageFix"/>
            <feColorMatrix in="SourceAlpha" type="matrix" values="0 0 0 0 0 0 0 0 0 0 0 0 0 0 0 0 0 0 127 0"/>
            <feOffset dy="4"/>
            <feGaussianBlur stdDeviation="2"/>
            <feColorMatrix type="matrix" values="0 0 0 0 0 0 0 0 0 0 0 0 0 0 0 0 0 0 0.2 0"/>
            <feBlend mode="normal" in2="BackgroundImageFix" result="effect1_dropShadow"/>
            <feBlend mode="normal" in="SourceGraphic" in2="effect1_dropShadow" result="shape"/>
        </filter>
        <linearGradient id="paint0_linear" x1="56" y1="7" x2="56" y2="105" gradientUnits="userSpaceOnUse">
            <stop stop-color="#957AFD"/>
            <stop offset="1" stop-color="#3733FF"/>
        </linearGradient>
        <linearGradient id="paint1_linear" x1="56" y1="10.9375" x2="56" y2="101.063" gradientUnits="userSpaceOnUse">
            <stop stop-color="#9579FD"/>
            <stop offset="1" stop-color="#6966FF"/>
        </linearGradient>
        <clipPath id="clip0">
            <rect x="15" y="14" width="88" height="88" fill="white"/>
        </clipPath>
    </defs>
</svg>