<?xml version="1.0" standalone="no"?><!-- Generator: Gravit.io --><svg xmlns="http://www.w3.org/2000/svg" xmlns:xlink="http://www.w3.org/1999/xlink" style="isolation:isolate" viewBox="0 0 1152 864" width="1152" height="864"><g><path d=" M 704.623 43.343 C 685.744 34.322 665.774 27.223 644.962 22.302 L 644.962 90.273 C 648.174 91.268 651.357 92.33 654.509 93.458 C 666.424 97.72 677.891 102.924 688.822 108.981 C 760.544 148.737 809.105 225.211 809.105 313.006 C 809.105 418.972 738.352 508.434 641.526 536.756 C 634.822 548.307 622.319 556.079 608.003 556.079 C 586.616 556.079 569.27 538.733 569.27 517.343 C 569.27 495.956 586.616 478.61 608.003 478.61 C 616.13 478.61 623.67 481.112 629.901 485.392 C 703.296 462.46 756.581 393.947 756.581 313.006 C 756.581 239.542 712.685 176.307 649.698 148.106 L 644.962 152.842 L 609.721 188.085 L 609.721 189.439 C 622.349 192.878 634.204 198.205 644.962 205.094 C 680.495 227.853 704.054 267.684 704.054 313.006 C 704.054 372.664 663.236 422.811 608.006 437.026 C 602.062 438.555 595.951 439.671 589.709 440.336 L 542.279 487.766 L 542.279 490.441 L 542.279 543.687 L 542.279 609.829 C 553.347 611.073 564.6 611.711 575.999 611.711 C 586.813 611.711 597.49 611.138 608.006 610.017 C 757.905 594.04 874.704 467.136 874.704 313.006 C 874.704 207.197 819.663 114.218 736.652 61.152 C 726.386 54.587 715.691 48.634 704.623 43.343 Z " fill-rule="evenodd" fill="rgb(41,131,144)"/><path d=" M 447.377 582.668 C 466.256 591.69 486.226 598.788 507.038 603.709 L 507.038 535.739 C 503.826 534.743 500.643 533.681 497.491 532.554 C 485.576 528.292 474.109 523.087 463.178 517.03 C 391.456 477.274 342.895 400.8 342.895 313.006 C 342.895 207.039 413.648 117.577 510.474 89.255 C 517.179 77.704 529.681 69.932 543.997 69.932 C 565.384 69.932 582.73 87.278 582.73 108.668 C 582.73 130.056 565.384 147.402 543.997 147.402 C 535.87 147.402 528.33 144.899 522.099 140.619 C 448.704 163.552 395.419 232.065 395.419 313.006 C 395.419 386.47 439.316 449.704 502.302 477.906 L 507.038 473.17 L 542.279 437.926 L 542.279 436.572 C 529.651 433.133 517.796 427.807 507.038 420.917 C 471.505 398.158 447.947 358.327 447.947 313.006 C 447.947 253.347 488.765 203.201 543.994 188.986 C 549.938 187.456 556.049 186.341 562.291 185.676 L 609.721 138.245 L 609.721 135.57 L 609.721 82.324 L 609.721 16.182 C 598.653 14.938 587.4 14.3 576.001 14.3 C 565.187 14.3 554.51 14.873 543.994 15.994 C 394.095 31.971 277.296 158.875 277.296 313.006 C 277.296 418.815 332.337 511.793 415.348 564.86 C 425.614 571.424 436.309 577.377 447.377 582.668 Z " fill-rule="evenodd" fill="rgb(70,192,188)"/><path d=" M 500.471 313.006 C 500.471 354.713 534.295 388.537 576.001 388.537 C 617.708 388.537 651.532 354.713 651.532 313.006 C 651.532 271.299 617.708 237.475 576.001 237.475 C 534.295 237.475 500.471 271.299 500.471 313.006 Z  M 541.363 313.006 C 541.363 332.135 556.872 347.644 576.001 347.644 C 595.131 347.644 610.64 332.135 610.64 313.006 C 610.64 293.876 595.131 278.367 576.001 278.367 C 556.872 278.367 541.363 293.876 541.363 313.006 Z " fill-rule="evenodd" fill="rgb(70,192,188)"/></g><g><path d=" M 24.856 814.813 L 24.856 648.292 L 77.949 648.292 C 103.539 648.292 122.97 655.366 136.202 669.513 C 149.435 683.661 156.05 704.382 156.05 731.677 C 156.05 758.972 149.435 779.653 136.244 793.717 C 123.054 807.781 103.622 814.813 77.949 814.813 L 24.856 814.813 Z  M 382.603 775.45 C 382.603 763.134 387.804 753.481 398.249 746.574 C 408.651 739.624 423.006 736.172 441.355 736.172 C 449.136 736.172 456.668 736.67 463.99 737.628 C 463.492 727.142 460.662 719.611 455.419 715.075 C 450.177 710.539 441.564 708.251 429.663 708.251 C 418.803 708.251 407.319 710.332 395.128 714.452 L 395.128 694.936 C 406.902 690.484 419.469 688.279 432.825 688.279 C 450.177 688.279 463.616 692.773 473.104 701.761 C 482.549 710.748 487.292 723.647 487.292 740.457 L 487.292 776.408 C 487.292 779.111 487.042 781.775 486.502 784.396 C 485.96 787.059 484.713 790.43 482.715 794.591 C 480.718 798.71 477.972 802.33 474.56 805.451 C 471.148 808.53 465.988 811.193 459.122 813.398 C 452.257 815.645 444.351 816.768 435.363 816.768 C 426.168 816.768 418.095 815.604 411.189 813.273 C 404.282 810.943 399.038 808.239 395.543 805.16 C 392.048 802.039 389.26 798.377 387.18 794.133 C 385.1 789.931 383.809 786.394 383.351 783.647 C 382.853 780.86 382.603 778.155 382.603 775.45 Z  M 405.405 775.201 C 405.405 789.264 415.392 796.297 435.363 796.297 C 435.447 796.297 435.572 796.297 435.738 796.297 C 454.586 796.297 463.99 789.556 463.99 776.033 L 463.99 755.935 C 458 754.978 450.759 754.438 442.313 754.355 C 438.983 754.355 435.489 754.646 431.827 755.27 C 428.166 755.853 424.254 756.81 420.01 758.099 C 415.807 759.389 412.312 761.553 409.565 764.549 C 406.778 767.544 405.405 771.082 405.405 775.201 Z  M 291.108 709.75 L 291.108 690.235 L 312.785 690.235 L 312.785 653.326 L 335.588 653.326 L 335.588 690.235 L 368.708 690.235 L 368.708 709.75 L 335.588 709.75 L 335.588 781.733 C 335.588 791.428 341.705 796.297 353.979 796.297 C 354.063 796.297 354.146 796.297 354.228 796.297 C 359.887 796.297 364.714 795.091 368.708 792.677 L 368.708 813.315 C 363.009 815.604 357.349 816.768 351.649 816.768 C 351.483 816.768 351.274 816.768 351.025 816.768 C 348.029 816.768 344.826 816.394 341.413 815.686 C 338.001 814.937 333.923 813.523 329.18 811.359 C 324.437 809.195 320.484 805.493 317.404 800.167 C 314.325 794.841 312.785 788.266 312.785 780.402 L 312.785 709.75 L 291.108 709.75 Z  M 175.644 775.45 C 175.644 763.134 180.845 753.481 191.29 746.574 C 201.692 739.624 216.047 736.172 234.397 736.172 C 242.178 736.172 249.709 736.67 257.032 737.628 C 256.533 727.142 253.704 719.611 248.46 715.075 C 243.218 710.539 234.606 708.251 222.705 708.251 C 211.845 708.251 200.36 710.332 188.169 714.452 L 188.169 694.936 C 199.944 690.484 212.511 688.279 225.867 688.279 C 243.218 688.279 256.657 692.773 266.145 701.761 C 275.591 710.748 280.334 723.647 280.334 740.457 L 280.334 776.408 C 280.334 779.111 280.084 781.775 279.543 784.396 C 279.002 787.059 277.754 790.43 275.756 794.591 C 273.76 798.71 271.013 802.33 267.601 805.451 C 264.19 808.53 259.03 811.193 252.164 813.398 C 245.299 815.645 237.393 816.768 228.405 816.768 C 219.21 816.768 211.137 815.604 204.23 813.273 C 197.324 810.943 192.08 808.239 188.585 805.16 C 185.089 802.039 182.302 798.377 180.221 794.133 C 178.141 789.931 176.851 786.394 176.393 783.647 C 175.894 780.86 175.644 778.155 175.644 775.45 Z  M 198.446 775.201 C 198.446 789.264 208.433 796.297 228.405 796.297 C 228.489 796.297 228.614 796.297 228.779 796.297 C 247.628 796.297 257.032 789.556 257.032 776.033 L 257.032 755.935 C 251.041 754.978 243.801 754.438 235.355 754.355 C 232.025 754.355 228.53 754.646 224.869 755.27 C 221.208 755.853 217.296 756.81 213.051 758.099 C 208.849 759.389 205.354 761.553 202.607 764.549 C 199.819 767.544 198.446 771.082 198.446 775.201 Z  M 48.157 794.34 L 74.371 794.34 C 94.676 794.34 109.572 789.306 119.059 779.237 C 128.505 769.126 133.248 753.315 133.248 731.677 C 133.248 709.874 128.505 693.979 119.059 683.868 C 109.572 673.799 94.676 668.764 74.371 668.764 L 48.157 668.764 L 48.157 794.34 Z " fill="rgb(254,254,254)"/><path d=" M 507.303 695.102 C 507.303 678.959 512.962 666.808 524.238 658.611 C 535.556 650.414 549.703 646.336 566.68 646.336 C 581.618 646.336 596.555 650.207 611.41 657.946 L 611.41 687.322 C 598.552 678.875 584.821 674.631 570.216 674.631 C 561.021 674.631 553.241 676.212 546.874 679.375 C 540.507 682.536 537.304 687.572 537.304 694.396 C 537.304 699.888 540.217 704.215 546 707.378 C 551.825 710.498 558.857 713.12 567.095 715.284 C 575.335 717.446 583.614 720.152 591.979 723.397 C 600.299 726.643 607.374 732.26 613.157 740.248 C 618.982 748.279 621.895 758.598 621.895 771.289 C 621.895 784.687 616.319 795.589 605.21 804.078 C 594.059 812.524 580.493 816.768 564.475 816.768 C 543.337 816.768 525.029 812.108 509.508 802.788 L 509.508 772.496 C 523.822 783.149 539.8 788.474 557.525 788.474 C 580.453 788.474 591.895 782.107 591.895 769.334 C 591.895 763.55 589.815 758.765 585.694 754.937 C 581.535 751.151 576.292 748.321 569.967 746.49 C 563.643 744.66 556.86 742.496 549.62 740.041 C 542.38 737.544 535.598 734.84 529.231 731.927 C 522.907 728.973 517.664 724.437 513.503 718.196 C 509.383 711.996 507.303 704.299 507.303 695.102 Z  M 1015.88 753.855 C 1015.88 733.841 1020.332 717.904 1029.237 705.962 C 1038.142 694.02 1052.247 688.03 1071.553 688.03 C 1089.862 688.03 1103.676 693.854 1113.08 705.464 C 1122.442 717.072 1127.144 731.386 1127.144 748.363 C 1127.144 755.353 1126.978 760.512 1126.645 763.842 L 1045.881 763.842 C 1046.713 774.659 1049.916 781.9 1055.576 785.562 C 1061.235 789.223 1068.558 791.053 1077.587 791.053 C 1092.192 791.053 1106.339 787.85 1119.987 781.4 L 1119.987 805.575 C 1106.172 813.023 1090.528 816.768 1073.052 816.768 C 1067.559 816.768 1062.358 816.31 1057.448 815.437 C 1052.58 814.522 1047.546 812.649 1042.302 809.82 C 1037.06 806.99 1032.565 803.37 1028.779 798.96 C 1025.034 794.591 1021.913 788.515 1019.5 780.735 C 1017.087 772.954 1015.88 764.008 1015.88 753.855 Z  M 1045.881 743.12 L 1096.103 743.12 C 1095.312 734.59 1092.733 727.35 1088.489 721.483 C 1084.203 715.616 1078.336 712.662 1070.888 712.662 C 1063.398 712.662 1057.573 715.075 1053.371 719.86 C 1049.209 724.645 1046.713 732.385 1045.881 743.12 Z  M 887.186 861 L 887.186 730.471 C 887.186 718.986 891.472 709.167 900.043 700.886 C 908.615 692.648 921.805 688.528 939.614 688.528 C 943.733 688.528 947.852 688.862 951.93 689.486 C 956.008 690.151 960.835 691.858 966.368 694.603 C 971.902 697.391 976.688 700.97 980.641 705.338 C 984.593 709.75 988.047 716.157 990.96 724.686 C 993.872 733.176 995.328 742.954 995.328 754.104 C 995.328 774.494 990.336 790.18 980.391 801.124 C 970.446 812.066 956.216 817.517 937.659 817.517 C 930.668 817.517 923.844 816.768 917.186 815.312 L 917.186 861 L 887.186 861 Z  M 917.186 792.635 C 924.093 793.592 930.21 794.091 935.577 794.091 C 945.273 794.091 952.638 791.262 957.714 785.603 C 962.79 779.986 965.329 770 965.329 755.686 C 965.329 741.081 963.415 730.513 959.586 723.98 C 955.8 717.489 949.1 714.243 939.614 714.243 C 924.676 714.243 917.186 718.695 917.186 727.641 L 917.186 792.635 Z  M 762.611 800.167 C 752.458 789.139 747.382 773.287 747.382 752.648 C 747.382 732.01 752.458 716.157 762.611 705.13 C 772.806 694.063 787.368 688.528 806.342 688.528 C 825.275 688.528 839.838 694.063 850.032 705.13 C 860.185 716.157 865.261 732.01 865.261 752.648 C 865.261 773.287 860.185 789.139 850.032 800.167 C 839.838 811.234 825.275 816.768 806.342 816.768 C 787.368 816.768 772.806 811.234 762.611 800.167 Z  M 784.497 721.317 C 779.754 726.768 777.382 737.211 777.382 752.69 C 777.382 768.169 779.754 778.613 784.497 784.022 C 789.282 789.432 796.564 792.135 806.385 792.135 C 816.204 792.135 823.485 789.432 828.187 784.022 C 832.889 778.613 835.261 768.169 835.261 752.69 C 835.261 737.211 832.889 726.768 828.187 721.317 C 823.485 715.866 816.204 713.161 806.385 713.161 C 796.564 713.161 789.282 715.866 784.497 721.317 Z  M 641.739 752.524 C 641.739 731.76 646.816 715.866 656.968 704.839 C 667.163 693.813 681.684 688.279 700.617 688.279 C 712.808 688.279 724.792 690.651 736.608 695.352 L 736.608 719.985 C 726.747 715.99 716.428 713.993 705.609 713.993 C 694.167 713.993 685.637 716.615 680.104 721.899 C 674.528 727.142 671.74 737.378 671.74 752.524 C 671.74 767.544 674.528 777.698 680.104 783.065 C 685.637 788.391 694.167 791.053 705.609 791.053 C 715.929 791.053 726.29 788.973 736.608 784.854 L 736.608 809.487 C 724.792 814.355 712.808 816.768 700.617 816.768 C 681.684 816.768 667.163 811.234 656.968 800.167 C 646.816 789.099 641.739 773.203 641.739 752.524 Z " fill="rgb(254,254,254)"/></g></svg>