<svg width="344" height="344" viewBox="0 0 344 344" fill="none" xmlns="http://www.w3.org/2000/svg">
    <g clip-path="url(#clip0)">
        <g filter="url(#filter0_d)">
            <path d="M178.5 169.5C178.5 139.222 203.25 114.5 234 114.5C264.75 114.5 289.5 139.222 289.5 169.5C289.5 199.778 264.75 224.5 234 224.5C203.25 224.5 178.5 199.778 178.5 169.5Z" stroke="white" stroke-width="29"/>
            <path d="M192 170H164V93C164 85.268 170.268 79 178 79C185.732 79 192 85.268 192 93V170Z" fill="white"/>
        </g>
        <g filter="url(#filter1_d)">
            <path d="M141.5 169.5C141.5 199.778 116.75 224.5 86 224.5C55.25 224.5 30.5 199.778 30.5 169.5C30.5 139.222 55.25 114.5 86 114.5C116.75 114.5 141.5 139.222 141.5 169.5Z" stroke="white" stroke-width="29"/>
            <path d="M128 169H156V246C156 253.732 149.732 260 142 260C134.268 260 128 253.732 128 246V169Z" fill="white"/>
        </g>
    </g>
    <defs>
        <filter id="filter0_d" x="160" y="79" width="148" height="168" filterUnits="userSpaceOnUse" color-interpolation-filters="sRGB">
            <feFlood flood-opacity="0" result="BackgroundImageFix"/>
            <feColorMatrix in="SourceAlpha" type="matrix" values="0 0 0 0 0 0 0 0 0 0 0 0 0 0 0 0 0 0 127 0"/>
            <feOffset dy="4"/>
            <feGaussianBlur stdDeviation="2"/>
            <feColorMatrix type="matrix" values="0 0 0 0 0 0 0 0 0 0 0 0 0 0 0 0 0 0 0.25 0"/>
            <feBlend mode="normal" in2="BackgroundImageFix" result="effect1_dropShadow"/>
            <feBlend mode="normal" in="SourceGraphic" in2="effect1_dropShadow" result="shape"/>
        </filter>
        <filter id="filter1_d" x="12" y="100" width="148" height="168" filterUnits="userSpaceOnUse" color-interpolation-filters="sRGB">
            <feFlood flood-opacity="0" result="BackgroundImageFix"/>
            <feColorMatrix in="SourceAlpha" type="matrix" values="0 0 0 0 0 0 0 0 0 0 0 0 0 0 0 0 0 0 127 0"/>
            <feOffset dy="4"/>
            <feGaussianBlur stdDeviation="2"/>
            <feColorMatrix type="matrix" values="0 0 0 0 0 0 0 0 0 0 0 0 0 0 0 0 0 0 0.25 0"/>
            <feBlend mode="normal" in2="BackgroundImageFix" result="effect1_dropShadow"/>
            <feBlend mode="normal" in="SourceGraphic" in2="effect1_dropShadow" result="shape"/>
        </filter>
        <clipPath id="clip0">
            <rect width="343.357" height="343.357" fill="white" transform="translate(0.527344 0.625)"/>
        </clipPath>
    </defs>
</svg>