<svg width="496" height="132" viewBox="0 0 496 132" fill="none" xmlns="http://www.w3.org/2000/svg">
  <g clip-path="url(#clip0)">
    <path fill-rule="evenodd" clip-rule="evenodd" d="M399.041 29.4862C355.892 36.7402 299.58 44.0001 247 44.0001C194.42 44.0001 138.607 36.7401 95.9574 29.4859C74.6285 25.8581 56.5832 22.2303 43.8689 19.5092C37.5116 18.1486 32.4868 17.0146 29.0503 16.2205C27.3321 15.8234 26.0109 15.5114 25.1187 15.2984C24.6727 15.1919 24.3338 15.1103 24.1063 15.0551L23.8489 14.9926L23.7629 14.9715C23.7619 14.9713 23.7614 14.9712 24.0001 14.0001C24.2387 13.029 24.2391 13.029 24.2399 13.0292L24.3231 13.0496L24.5772 13.1114C24.8026 13.166 25.1392 13.2471 25.583 13.3531C26.4707 13.5649 27.7872 13.8759 29.5006 14.2718C32.9274 15.0637 37.9416 16.1953 44.2875 17.5535C56.9794 20.2698 74.9966 23.892 96.2927 27.5142C138.893 34.76 194.58 42.0001 247 42.0001C299.42 42.0001 355.608 34.7599 398.709 27.5139C420.256 23.8916 438.523 20.2693 451.403 17.5528C457.843 16.1946 462.935 15.063 466.417 14.2711C468.158 13.8751 469.496 13.5641 470.398 13.3522C470.849 13.2463 471.192 13.1651 471.421 13.1105L471.679 13.0487L471.764 13.0283C471.765 13.0281 471.765 13.028 472 14.0001C472.235 14.9721 472.234 14.9722 472.233 14.9725L472.146 14.9935L471.884 15.056C471.653 15.1111 471.309 15.1928 470.855 15.2993C469.949 15.5122 468.606 15.8242 466.861 16.2212C463.369 17.0153 458.267 18.1492 451.816 19.5098C438.914 22.2308 420.619 25.8585 399.041 29.4862Z" fill="#D9D9E0"/>
    <path d="M246.151 73.6504L233.651 46.4172C233.346 45.7547 233.83 45 234.559 45H261.346C262.098 45 262.581 45.7987 262.232 46.4645L247.945 73.6978C247.56 74.4332 246.497 74.4052 246.151 73.6504Z" fill="#7893FF"/>
    <path d="M296.155 72.7763L281.75 46.5011C281.399 45.862 281.828 45.0747 282.555 45.0229L309.274 43.1177C310.024 43.0642 310.563 43.8266 310.262 44.5156L297.949 72.696C297.616 73.4569 296.555 73.5045 296.155 72.7763Z" fill="#7D3899"/>
    <path d="M342.407 68.4224L326.812 42.8354C326.432 42.213 326.825 41.4069 327.549 41.3218L354.152 38.1933C354.899 38.1055 355.472 38.8423 355.203 39.5444L344.195 68.2598C343.898 69.0353 342.839 69.1315 342.407 68.4224Z" fill="#7893FF"/>
    <path d="M388.222 61.8173L371.852 36.7191C371.454 36.1086 371.821 35.2909 372.542 35.1837L399.038 31.2434C399.782 31.1327 400.377 31.8517 400.129 32.5617L390.004 61.6003C389.731 62.3844 388.676 62.5129 388.222 61.8173Z" fill="#7D3899"/>
    <path d="M437.239 53.2794L419.902 28.8387C419.48 28.2442 419.816 27.4128 420.532 27.2775L446.854 22.3068C447.593 22.1673 448.215 22.8625 447.996 23.5816L439.011 52.9929C438.769 53.7872 437.72 53.9567 437.239 53.2794Z" fill="#7893FF"/>
    <path d="M197.244 72.4507L186.555 44.4567C186.295 43.7758 186.827 43.0544 187.555 43.1022L214.284 44.8575C215.034 44.9068 215.464 45.7354 215.072 46.377L199.031 72.6155C198.598 73.3241 197.54 73.2265 197.244 72.4507Z" fill="#7D3899"/>
    <path d="M150.277 67.9883L141.037 39.4833C140.812 38.79 141.381 38.0968 142.104 38.1818L168.709 41.3046C169.455 41.3923 169.842 42.2418 169.417 42.8624L152.054 68.2445C151.585 68.9299 150.533 68.7782 150.277 67.9883Z" fill="#7893FF"/>
    <path d="M105.278 61.3692L97.2401 32.5022C97.0445 31.8 97.6418 31.1313 98.3615 31.2465L124.811 35.4812C125.554 35.6001 125.905 36.4651 125.454 37.0674L107.042 61.6997C106.545 62.3648 105.501 62.1692 105.278 61.3692Z" fill="#7D3899"/>
    <path d="M59.2659 53.5929L52.0347 24.5132C51.8588 23.8059 52.4745 23.1541 53.1907 23.2893L79.5125 28.2588C80.2514 28.3983 80.5778 29.2727 80.111 29.8622L61.0204 53.9723C60.5048 54.6234 59.4663 54.3988 59.2659 53.5929Z" fill="#7893FF"/>
    <path fill-rule="evenodd" clip-rule="evenodd" d="M230.973 102.815C231.526 102.815 231.973 103.263 231.973 103.815V109.157C231.973 109.709 231.526 110.157 230.973 110.157C230.421 110.157 229.973 109.709 229.973 109.157V103.815C229.973 103.263 230.421 102.815 230.973 102.815Z" fill="#D9D9E0"/>
    <path fill-rule="evenodd" clip-rule="evenodd" d="M191.55 106.436C191.947 106.051 192.58 106.061 192.964 106.458C193.036 106.532 193.115 106.611 193.198 106.696C193.716 107.217 194.418 107.925 194.81 108.71C195.057 109.204 194.857 109.804 194.363 110.051C193.869 110.298 193.268 110.098 193.021 109.604C192.784 109.131 192.349 108.687 191.816 108.145C191.723 108.05 191.627 107.952 191.528 107.85C191.144 107.453 191.154 106.82 191.55 106.436Z" fill="#D9D9E0"/>
    <path fill-rule="evenodd" clip-rule="evenodd" d="M368.279 91.8279C368.815 91.694 369.358 92.0198 369.492 92.5556C369.641 93.1516 369.975 93.776 370.415 94.4854C370.525 94.6628 370.645 94.8499 370.769 95.0431C371.106 95.5678 371.471 96.138 371.75 96.684C372.001 97.1761 371.805 97.7783 371.313 98.0291C370.821 98.28 370.219 98.0844 369.968 97.5924C369.737 97.1401 369.456 96.7012 369.141 96.2108C369.005 95.9988 368.863 95.7771 368.716 95.5406C368.261 94.8073 367.781 93.9591 367.552 93.0406C367.418 92.5048 367.744 91.9619 368.279 91.8279Z" fill="#D9D9E0"/>
    <path fill-rule="evenodd" clip-rule="evenodd" d="M427.948 100.478C428.5 100.478 428.948 100.926 428.948 101.478C428.948 102.384 428.858 103.199 428.775 103.951C428.691 104.714 428.614 105.407 428.614 106.152C428.614 106.704 428.167 107.152 427.614 107.152C427.062 107.152 426.614 106.704 426.614 106.152C426.614 105.296 426.701 104.509 426.783 103.774C426.784 103.759 426.786 103.745 426.787 103.731C426.871 102.972 426.948 102.259 426.948 101.478C426.948 100.926 427.396 100.478 427.948 100.478Z" fill="#D9D9E0"/>
    <path fill-rule="evenodd" clip-rule="evenodd" d="M425.277 60.7495C425.83 60.7495 426.277 61.1972 426.277 61.7495V66.4235C426.277 66.9758 425.83 67.4235 425.277 67.4235C424.725 67.4235 424.277 66.9758 424.277 66.4235V61.7495C424.277 61.1972 424.725 60.7495 425.277 60.7495Z" fill="#D9D9E0"/>
    <path fill-rule="evenodd" clip-rule="evenodd" d="M439.329 125.899C439.855 125.731 440.418 126.021 440.586 126.547C440.726 126.986 441.061 127.583 441.519 128.317C441.639 128.509 441.767 128.71 441.898 128.915C442.234 129.444 442.591 130.004 442.874 130.514C443.142 130.997 442.969 131.606 442.486 131.874C442.003 132.142 441.394 131.969 441.126 131.486C440.873 131.03 440.569 130.553 440.246 130.046C440.108 129.828 439.965 129.605 439.822 129.376C439.378 128.663 438.907 127.866 438.681 127.156C438.512 126.63 438.803 126.067 439.329 125.899Z" fill="#D9D9E0"/>
    <path fill-rule="evenodd" clip-rule="evenodd" d="M268.022 9.58289C268.438 9.94657 268.48 10.5783 268.116 10.994C266.938 12.3408 265.872 13.7499 264.85 15.2408C264.538 15.6964 263.915 15.8127 263.46 15.5005C263.004 15.1883 262.888 14.5659 263.2 14.1104C264.257 12.5687 265.371 11.0947 266.611 9.67696C266.975 9.26132 267.607 9.2192 268.022 9.58289Z" fill="#D9D9E0"/>
    <path fill-rule="evenodd" clip-rule="evenodd" d="M231.907 27.1144C232.413 26.8924 233.002 27.1224 233.224 27.628C233.495 28.2443 233.92 28.6718 234.486 29.1973C234.522 29.2306 234.558 29.2645 234.596 29.2991C235.117 29.7802 235.774 30.3866 236.208 31.2552C236.455 31.7492 236.255 32.3499 235.761 32.5969C235.267 32.8439 234.666 32.6436 234.419 32.1497C234.152 31.6164 233.745 31.2384 233.165 30.6996C233.152 30.6875 233.138 30.6754 233.125 30.6631C232.554 30.1332 231.846 29.4626 231.393 28.432C231.171 27.9263 231.401 27.3364 231.907 27.1144Z" fill="#D9D9E0"/>
    <path fill-rule="evenodd" clip-rule="evenodd" d="M214.948 2.65869C215.501 2.65869 215.948 3.10641 215.948 3.65869V8.33267C215.948 8.88495 215.501 9.33267 214.948 9.33267C214.396 9.33267 213.948 8.88495 213.948 8.33267V3.65869C213.948 3.10641 214.396 2.65869 214.948 2.65869Z" fill="#D9D9E0"/>
    <path fill-rule="evenodd" clip-rule="evenodd" d="M320.728 11.3549C320.902 11.8789 320.619 12.4452 320.095 12.6199C319.786 12.7228 319.496 12.8325 319.209 12.9407C318.216 13.3154 317.27 13.6727 315.773 13.6727C315.22 13.6727 314.773 13.225 314.773 12.6727C314.773 12.1205 315.22 11.6727 315.773 11.6727C316.879 11.6727 317.438 11.4634 318.337 11.1261C318.656 11.0065 319.018 10.8707 319.463 10.7225C319.987 10.5478 320.553 10.831 320.728 11.3549Z" fill="#D9D9E0"/>
    <path fill-rule="evenodd" clip-rule="evenodd" d="M171.905 15.3455C172.457 15.359 172.894 15.8175 172.881 16.3696C172.862 17.1155 172.803 17.9334 172.473 18.6448C172.109 19.43 171.469 19.9848 170.528 20.2986C170.004 20.4733 169.438 20.1901 169.263 19.6661C169.088 19.1422 169.372 18.5759 169.895 18.4012C170.376 18.241 170.553 18.0328 170.659 17.8038C170.799 17.501 170.863 17.0536 170.881 16.3208C170.895 15.7687 171.353 15.3321 171.905 15.3455Z" fill="#D9D9E0"/>
    <path fill-rule="evenodd" clip-rule="evenodd" d="M399.237 1.98291C399.789 1.98291 400.237 2.43063 400.237 2.98291V6.98917C400.237 7.54146 399.789 7.98917 399.237 7.98917C398.684 7.98917 398.237 7.54146 398.237 6.98917V2.98291C398.237 2.43063 398.684 1.98291 399.237 1.98291Z" fill="#D9D9E0"/>
    <path fill-rule="evenodd" clip-rule="evenodd" d="M67.5009 91.9635C67.9618 91.6592 68.5821 91.786 68.8865 92.2469C69.0891 92.5538 69.3097 92.9657 69.5229 93.3638C69.547 93.4087 69.5709 93.4534 69.5947 93.4978C69.8429 93.9602 70.1011 94.4328 70.3805 94.8633C70.6635 95.2994 70.9373 95.6431 71.1983 95.8695C71.4581 96.0949 71.6272 96.1381 71.7244 96.1381C72.2767 96.1381 72.7244 96.5858 72.7244 97.1381C72.7244 97.6904 72.2767 98.1381 71.7244 98.1381C70.9724 98.1381 70.3546 97.7853 69.8876 97.3802C69.4218 96.976 69.0289 96.4545 68.7028 95.952C68.3732 95.4441 68.0801 94.905 67.8325 94.4437C67.8116 94.4047 67.7912 94.3666 67.7711 94.3293C67.5411 93.9003 67.3662 93.5741 67.2175 93.349C66.9132 92.8882 67.0401 92.2678 67.5009 91.9635Z" fill="#D9D9E0"/>
    <path fill-rule="evenodd" clip-rule="evenodd" d="M97.9732 90.4845C98.5134 90.5994 98.8582 91.1305 98.7432 91.6707C98.3137 93.6894 97.8272 95.8361 97.0243 97.8434C96.8192 98.3562 96.2372 98.6056 95.7245 98.4005C95.2117 98.1954 94.9623 97.6134 95.1674 97.1006C95.8997 95.2698 96.357 93.2758 96.787 91.2545C96.902 90.7143 97.433 90.3696 97.9732 90.4845Z" fill="#D9D9E0"/>
    <path fill-rule="evenodd" clip-rule="evenodd" d="M45.9605 55.7806C46.4912 55.9335 46.7975 56.4876 46.6446 57.0183C46.166 58.6792 45.6735 60.3332 44.9088 61.8627C44.6618 62.3566 44.0611 62.5569 43.5672 62.3099C43.0732 62.0629 42.873 61.4622 43.12 60.9682C43.7913 59.6255 44.2399 58.1405 44.7227 56.4646C44.8757 55.9339 45.4298 55.6277 45.9605 55.7806Z" fill="#D9D9E0"/>
    <path fill-rule="evenodd" clip-rule="evenodd" d="M7.95804 99.8105C8.51032 99.8105 8.95804 100.258 8.95804 100.811C8.95804 101.001 8.94467 101.263 8.93146 101.522C8.92401 101.668 8.9166 101.814 8.91168 101.945C8.89616 102.357 8.8962 102.759 8.93986 103.108C8.98561 103.474 9.06691 103.672 9.13038 103.759C9.13208 103.761 9.13369 103.764 9.1353 103.766C9.15316 103.792 9.17021 103.817 9.29346 103.817C9.84574 103.817 10.2935 104.265 10.2935 104.817C10.2935 105.369 9.84574 105.817 9.29346 105.817C8.52359 105.817 7.91272 105.485 7.51336 104.936C7.1569 104.446 7.01737 103.852 6.95531 103.356C6.89118 102.843 6.89644 102.312 6.91309 101.869C6.921 101.659 6.93032 101.483 6.93842 101.33C6.94934 101.124 6.95804 100.96 6.95804 100.811C6.95804 100.258 7.40575 99.8105 7.95804 99.8105Z" fill="#D9D9E0"/>
    <path fill-rule="evenodd" clip-rule="evenodd" d="M211.83 92.9051C212.324 92.6581 212.925 92.8583 213.172 93.3523C213.627 94.2629 214.01 95.2083 214.378 96.1155C214.42 96.2191 214.462 96.3222 214.504 96.4248C214.916 97.4402 215.323 98.4091 215.826 99.3291C216.091 99.8137 215.913 100.421 215.428 100.686C214.944 100.951 214.336 100.773 214.071 100.289C213.507 99.2581 213.064 98.1939 212.651 97.178C212.609 97.0751 212.568 96.9728 212.526 96.8711C212.154 95.9533 211.801 95.0826 211.383 94.2467C211.136 93.7528 211.336 93.1521 211.83 92.9051Z" fill="#ABE1FF"/>
    <path fill-rule="evenodd" clip-rule="evenodd" d="M253.234 91.6829C253.481 92.1769 253.281 92.7775 252.787 93.0245C252.427 93.2049 252.005 93.7091 251.578 94.5231C251.199 95.2444 250.901 96.0377 250.657 96.6859C250.639 96.7325 250.622 96.7783 250.605 96.8233C250.41 97.34 249.833 97.6008 249.316 97.4058C248.799 97.2108 248.539 96.6339 248.734 96.1172C248.752 96.0693 248.77 96.0195 248.79 95.9679C249.028 95.3332 249.368 94.4298 249.807 93.5935C250.26 92.7301 250.928 91.7183 251.893 91.2357C252.387 90.9887 252.987 91.1889 253.234 91.6829Z" fill="#ABE1FF"/>
    <path fill-rule="evenodd" clip-rule="evenodd" d="M293.1 95.7529C293.496 96.1378 293.505 96.7709 293.12 97.167C292.13 98.1867 291.279 99.1746 290.589 100.323C290.305 100.797 289.691 100.95 289.217 100.666C288.744 100.382 288.59 99.7679 288.874 99.2943C289.678 97.9559 290.648 96.8414 291.686 95.7734C292.07 95.3773 292.703 95.3681 293.1 95.7529Z" fill="#ABE1FF"/>
    <path fill-rule="evenodd" clip-rule="evenodd" d="M404.03 95.8277C404.569 95.7093 405.103 96.0506 405.221 96.59C405.231 96.6368 405.243 96.6914 405.256 96.7526C405.343 97.1524 405.49 97.835 405.682 98.4864C405.793 98.8636 405.909 99.1942 406.022 99.4344C406.071 99.5389 406.11 99.6069 406.137 99.6462C406.549 99.9222 406.702 100.468 406.474 100.924C406.227 101.418 405.627 101.618 405.133 101.371C404.847 101.229 404.654 101.007 404.534 100.843C404.405 100.667 404.299 100.471 404.211 100.284C404.035 99.91 403.886 99.4682 403.763 99.0518C403.548 98.3213 403.384 97.5571 403.299 97.1648C403.287 97.1079 403.276 97.0588 403.268 97.0188C403.149 96.4794 403.491 95.9461 404.03 95.8277ZM406.161 99.6784C406.161 99.6786 406.159 99.6766 406.156 99.6722C406.159 99.676 406.161 99.6783 406.161 99.6784Z" fill="#ABE1FF"/>
    <path fill-rule="evenodd" clip-rule="evenodd" d="M442.913 80.4463C443.097 80.9671 442.824 81.5383 442.303 81.7221C440.627 82.3137 439.671 82.8242 438.466 83.8568C438.414 83.9014 438.383 83.9497 438.241 84.1821C438.239 84.1859 438.236 84.1899 438.234 84.1939C438.119 84.3819 437.878 84.7776 437.409 85.0121C436.915 85.2591 436.315 85.0588 436.068 84.5648C435.83 84.0893 436.007 83.5148 436.461 83.2522C436.474 83.2336 436.498 83.1989 436.534 83.1405C436.542 83.1267 436.552 83.1108 436.562 83.0932C436.661 82.9274 436.854 82.6047 437.165 82.3383C438.595 81.1121 439.781 80.4912 441.637 79.8361C442.158 79.6523 442.729 79.9255 442.913 80.4463Z" fill="#ABE1FF"/>
    <path fill-rule="evenodd" clip-rule="evenodd" d="M469.88 76.4607C470.421 76.571 470.77 77.0991 470.66 77.6402C470.284 79.4853 469.716 81.3956 468.477 83.0485C468.145 83.4903 467.519 83.5798 467.077 83.2485C466.635 82.9171 466.545 82.2903 466.877 81.8485C467.85 80.5507 468.344 78.9875 468.7 77.241C468.81 76.6999 469.338 76.3505 469.88 76.4607Z" fill="#ABE1FF"/>
    <path fill-rule="evenodd" clip-rule="evenodd" d="M490.009 30.368C490.082 29.8205 490.585 29.4359 491.132 29.5089C491.622 29.5743 492.073 29.6501 492.502 29.7223C493.372 29.8686 494.153 30.0001 495 30.0001C495.552 30.0001 496 30.4478 496 31.0001C496 31.5524 495.552 32.0001 495 32.0001C493.983 32.0001 492.928 31.8238 491.975 31.6647C491.586 31.5996 491.213 31.5374 490.868 31.4913C490.32 31.4184 489.936 30.9154 490.009 30.368Z" fill="#ABE1FF"/>
    <path fill-rule="evenodd" clip-rule="evenodd" d="M241.608 14.7538C242.118 14.5422 242.703 14.7843 242.914 15.2945C243.285 16.188 243.723 17.0137 244.177 17.8683C244.412 18.312 244.652 18.7636 244.888 19.2366C245.135 19.7305 244.935 20.3312 244.441 20.5782C243.947 20.8252 243.346 20.625 243.099 20.131C242.908 19.7481 242.693 19.3421 242.469 18.9204C241.99 18.0156 241.472 17.0383 241.067 16.0605C240.855 15.5504 241.097 14.9653 241.608 14.7538Z" fill="#ABE1FF"/>
    <path fill-rule="evenodd" clip-rule="evenodd" d="M270.516 29.1788C270.804 28.7072 271.419 28.558 271.891 28.8456C272.047 28.9408 272.245 29.044 272.502 29.1778C272.515 29.1849 272.529 29.1921 272.543 29.1994C272.805 29.336 273.112 29.4972 273.409 29.6781C273.945 30.0053 274.709 30.5446 274.989 31.3863C275.164 31.9102 274.881 32.4765 274.357 32.6512C273.833 32.8258 273.267 32.5427 273.092 32.0187C273.06 31.9213 272.888 31.7031 272.367 31.3855C272.135 31.244 271.884 31.1111 271.619 30.973C271.598 30.9624 271.578 30.9517 271.557 30.9408C271.323 30.819 271.066 30.6852 270.849 30.5532C270.378 30.2656 270.229 29.6503 270.516 29.1788Z" fill="#ABE1FF"/>
    <path fill-rule="evenodd" clip-rule="evenodd" d="M219.757 23.0937C220.087 23.537 219.994 24.1634 219.551 24.4927C219.36 24.6346 219.153 24.8103 218.901 25.0232C218.888 25.0347 218.874 25.0462 218.861 25.0579C218.602 25.2768 218.306 25.5265 217.993 25.7567C217.394 26.1967 216.571 26.6931 215.616 26.6931C215.064 26.6931 214.616 26.2454 214.616 25.6931C214.616 25.1409 215.064 24.6931 215.616 24.6931C215.899 24.6931 216.28 24.534 216.808 24.1454C217.058 23.9613 217.306 23.7534 217.568 23.5319C217.586 23.5162 217.605 23.5002 217.624 23.4842C217.859 23.2851 218.113 23.0692 218.358 22.8873C218.802 22.5579 219.428 22.6503 219.757 23.0937Z" fill="#ABE1FF"/>
    <path fill-rule="evenodd" clip-rule="evenodd" d="M143 0C143.552 0 144 0.447715 144 1V5C144 5.55228 143.552 6 143 6C142.448 6 142 5.55228 142 5V1C142 0.447715 142.448 0 143 0Z" fill="#ABE1FF"/>
    <path fill-rule="evenodd" clip-rule="evenodd" d="M135.923 67.2707C136.377 66.9563 137 67.0696 137.314 67.5237C137.619 67.9628 138.025 68.4006 138.498 68.9087C138.677 69.1016 138.866 69.3047 139.062 69.5218C139.712 70.2414 140.449 71.1257 140.78 72.1168C140.954 72.6407 140.671 73.207 140.147 73.3817C139.623 73.5563 139.057 73.2732 138.882 72.7492C138.698 72.1981 138.235 71.5891 137.578 70.8626C137.436 70.7047 137.281 70.5389 137.122 70.3676C136.618 69.826 136.063 69.2301 135.67 68.6621C135.356 68.208 135.469 67.585 135.923 67.2707Z" fill="#ABE1FF"/>
    <path fill-rule="evenodd" clip-rule="evenodd" d="M330.025 90.4926C330.376 90.0665 331.007 90.0061 331.433 90.3576C331.525 90.4337 331.633 90.5204 331.751 90.614C332.013 90.8231 332.318 91.0668 332.581 91.3046C332.979 91.6642 333.411 92.1186 333.694 92.6849C333.941 93.1788 333.74 93.7795 333.247 94.0265C332.753 94.2735 332.152 94.0733 331.905 93.5793C331.786 93.3407 331.567 93.084 331.24 92.7885C331.021 92.5897 330.806 92.4188 330.573 92.2338C330.443 92.1296 330.306 92.0209 330.16 91.9003C329.734 91.5488 329.673 90.9186 330.025 90.4926Z" fill="#ABE1FF"/>
    <path fill-rule="evenodd" clip-rule="evenodd" d="M89.0848 62.7524C89.6371 62.7524 90.0848 63.2002 90.0848 63.7524C90.0848 64.7079 89.9964 65.6639 89.9136 66.5546L89.9123 66.5688C89.8283 67.4717 89.751 68.3034 89.751 69.0941C89.751 69.6464 89.3033 70.0941 88.751 70.0941C88.1987 70.0941 87.751 69.6464 87.751 69.0941C87.751 68.2096 87.8357 67.2986 87.9166 66.4301C87.9184 66.4098 87.9203 66.3896 87.9222 66.3694C88.0063 65.4652 88.0848 64.6003 88.0848 63.7524C88.0848 63.2002 88.5325 62.7524 89.0848 62.7524Z" fill="#ABE1FF"/>
    <path fill-rule="evenodd" clip-rule="evenodd" d="M31.2686 86.4359C31.6478 86.0344 32.2807 86.0163 32.6822 86.3955C33.6787 87.3367 34.6558 87.8606 35.9356 88.5469C36.0454 88.6057 36.1575 88.6658 36.2719 88.7275C36.3072 88.7464 36.3401 88.7595 36.3869 88.7744C36.4098 88.7817 36.4301 88.7876 36.4609 88.7966C36.4689 88.7989 36.4775 88.8015 36.4871 88.8043C36.5268 88.8159 36.5875 88.8339 36.652 88.8569C36.7905 88.9064 36.9758 88.9891 37.1586 89.1465C37.3397 89.3025 37.4681 89.4882 37.564 89.68C37.811 90.174 37.6108 90.7747 37.1168 91.0217C36.6678 91.2462 36.1306 91.1012 35.851 90.7019C35.8291 90.6954 35.8052 90.6881 35.7811 90.6805C35.6569 90.641 35.5006 90.5836 35.3238 90.4884C35.2034 90.4236 35.0835 90.3595 34.9641 90.2956C33.7111 89.6253 32.5074 88.9814 31.309 87.8496C30.9075 87.4704 30.8894 86.8375 31.2686 86.4359Z" fill="#ABE1FF"/>
    <path fill-rule="evenodd" clip-rule="evenodd" d="M43.0466 122.249C43.5602 122.452 43.8119 123.033 43.6089 123.547C43.1918 124.602 42.7299 125.647 42.2379 126.631C41.9909 127.125 41.3902 127.325 40.8963 127.078C40.4023 126.831 40.2021 126.23 40.4491 125.736C40.9123 124.81 41.3508 123.818 41.7489 122.811C41.952 122.298 42.533 122.046 43.0466 122.249Z" fill="#ABE1FF"/>
    <path fill-rule="evenodd" clip-rule="evenodd" d="M0.36169 60.2303C0.786816 59.8777 1.41724 59.9366 1.76978 60.3617C1.99588 60.6343 2.33303 60.9199 2.75962 61.2813C2.8612 61.3674 2.96786 61.4577 3.07929 61.5532C3.57512 61.9781 4.23297 62.559 4.5653 63.2237C4.81229 63.7176 4.61206 64.3183 4.11808 64.5653C3.6241 64.8123 3.02343 64.6121 2.77644 64.1181C2.65469 63.8746 2.32834 63.5436 1.77788 63.0719C1.69889 63.0042 1.61443 62.9329 1.52656 62.8588C1.09502 62.4949 0.581296 62.0617 0.230268 61.6384C-0.122275 61.2132 -0.063435 60.5828 0.36169 60.2303Z" fill="#ABE1FF"/>
  </g>
  <defs>
    <clipPath id="clip0">
      <rect width="496" height="132" fill="white"/>
    </clipPath>
  </defs>
</svg>
