<svg xmlns="http://www.w3.org/2000/svg" width="250" height="250" fill="none">
  <path fill="#e8e8ed" fill-rule="evenodd" clip-rule="evenodd" d="M123.324 25.605a8.983 8.983 0 0 1 12.707 0l82.364 82.365a8.983 8.983 0 0 1 0 12.707l-82.364 82.364a8.983 8.983 0 0 1-12.707 0l-82.364-82.364a8.983 8.983 0 0 1 0-12.707l82.364-82.365Zm6.353 6.354 82.364 82.364-82.364 82.364-82.364-82.364 82.364-82.364Zm-12.707 61.53a8.983 8.983 0 0 1 12.707 0l14.06 14.06 14.06-14.06a8.983 8.983 0 0 1 12.707 12.707l-14.06 14.06 14.06 14.06a8.983 8.983 0 0 1-12.707 12.707l-14.06-14.06-14.06 14.06a8.983 8.983 0 0 1-12.707-12.707l14.06-14.06-14.06-14.06a8.983 8.983 0 0 1 0-12.707Z"/>
</svg>
