<svg width="455" height="225" xmlns="http://www.w3.org/2000/svg">
<linearGradient id="a" x2="0" y2="225" gradientUnits="userSpaceOnUse">
<stop stop-color="#0ae" offset="0"/>
<stop stop-color="#05a" offset="1"/>
</linearGradient>
<path d="m455 0h-455v225h230" fill="url(#a)"/>
<path d="m225 45v106l-39-106h-39l-33 88c-4-22-27-30-45-36-12-4-25-9-25-16 0-5 7-10 20-9 9 1 17 1 33 9l16-27c-15-8-35-12-51-12-19 0-35 6-45 16-7 7-10 16-11 26 0 14 5 24 16 32 9 6 20 10 30 13 13 4 23 8 23 15-1 9-11 11-18 11-12 1-22-1-37-10l-14 27c15 9 31 13 50 13 13 0 33-4 44-14l-2 9h38l7-17c15 4 32 5 47 0l5 17h68v-40h14c35 0 56-17 56-47 0-34-20-48-63-48zm-73 88 14-45h1l14 45c-10 3-20 3-29 0zm111-23v-36h10c13 0 23 4 23 17 0 14-10 19-23 19z" fill="#fff"/>
</svg>
