<?xml version="1.0" encoding="UTF-8"?>
<svg version="1.1" xmlns="http://www.w3.org/2000/svg" width="180" height="180">
<path d="M0 0 C12.21 0 24.42 0 37 0 C37.33 19.8 37.66 39.6 38 60 C40.64 58.02 43.28 56.04 46 54 C52.73021636 50.25309184 59.19585988 49.31467262 66.8125 49.4375 C67.77446289 49.44773193 68.73642578 49.45796387 69.72753906 49.46850586 C81.68956125 49.82382341 91.99787046 53.88269516 101 62 C101.33 62.99 101.66 63.98 102 65 C102.59941406 65.28488281 103.19882813 65.56976563 103.81640625 65.86328125 C111.9862605 70.1162823 115.48026247 82.20367758 118.08984375 90.45703125 C122.7110781 108.44612804 120.43276425 128.06375915 111.1875 144.1875 C103.88201242 155.70138566 93.60251469 165.05384858 80.10400391 168.60009766 C68.18776278 170.86498544 54.42277968 170.66713345 44 164 C41.44634569 162.12321792 39.27484004 160.22313913 37 158 C36.855625 159.299375 36.71125 160.59875 36.5625 161.9375 C36.125 165.875 36.125 165.875 35 167 C23.45 167 11.9 167 0 167 C0 111.89 0 56.78 0 0 Z M40 93 C40 93.66 40 94.32 40 95 C39.34 95 38.68 95 38 95 C34.4185257 103.02896082 34.06449037 111.7526158 37 120 C39.7509926 125.90190924 42.66783635 129.85437575 48.5625 132.75 C55.71277302 135.13784628 62.50889653 135.04239892 69.375 131.875 C75.27711525 128.55857334 78.92308048 124.54681153 81 118 C82.14246785 105.87096345 82.14246785 105.87096345 78.39453125 94.640625 C72.64934509 87.88158245 67.56255567 84.50568688 58.5625 83.6875 C51.02588832 84.34860629 45.07547334 87.30595334 40 93 Z " fill="#000000" transform="translate(2,4)"/>
<path d="M0 0 C0.6811084 -0.01023193 1.3622168 -0.02046387 2.06396484 -0.03100586 C8.11455938 0.07427949 11.94818438 2.15295626 16.875 5.4375 C16.875 6.0975 16.875 6.7575 16.875 7.4375 C17.865 7.7675 18.855 8.0975 19.875 8.4375 C24.19980373 14.24857431 25.7006915 20.32332429 25.3515625 27.48046875 C24.05253828 35.54080759 20.03581163 40.95849478 13.83984375 46.0625 C9.19581642 49.31239587 5.57529636 49.74917143 -0.0625 49.6875 C-1.11727539 49.69910156 -1.11727539 49.69910156 -2.19335938 49.7109375 C-6.27898718 49.69562118 -9.45141173 49.24913257 -13.125 47.4375 C-13.125 46.7775 -13.125 46.1175 -13.125 45.4375 C-13.846875 45.23125 -14.56875 45.025 -15.3125 44.8125 C-19.60813332 42.7124126 -22.11500545 39.4434614 -24.25 35.203125 C-25.35382628 31.7142455 -25.42645316 28.65650525 -25.4375 25 C-25.45425781 23.72253906 -25.47101563 22.44507813 -25.48828125 21.12890625 C-24.74423118 13.56839746 -20.228188 7.8418482 -14.51953125 3.10546875 C-9.95761931 0.2555326 -5.26847241 0.06173523 0 0 Z " fill="#FF6D1B" transform="translate(153.125,125.5625)"/>
</svg>
