<svg width="144" height="144" viewBox="0 0 144 32" fill="none" xmlns="http://www.w3.org/2000/svg">
<path d="M18.3265 18.1925C18.3265 15.4925 16.8248 13.5444 14.0946 12.5874C16.2788 11.4596 17.5415 9.64819 17.5415 7.3925C17.5415 3.18872 14.3677 0.86468 9.21442 0.86468H0V25.4038H9.58982C14.982 25.4038 18.3265 22.738 18.3265 18.1925ZM8.80489 4.96593C11.3303 4.96593 12.6272 6.0596 12.6272 7.80263C12.6272 9.57984 11.3303 10.6735 8.80489 10.6735H4.70959V4.96593H8.80489ZM9.18029 14.8089C11.9787 14.8089 13.4462 16.0393 13.4462 17.9874C13.4462 20.0722 11.9787 21.3026 9.18029 21.3026H4.70959V14.8089H9.18029Z" fill="#1144F9"/>
<path d="M24.4169 25.4038V0.86468H19.639V25.4038H24.4169Z" fill="#1144F9"/>
<path d="M37.7146 17.714C37.7146 20.1747 36.0765 21.5418 34.3701 21.5418C32.459 21.5418 31.1962 20.414 31.1962 17.8507V7.15326H26.4525V18.7735C26.4525 23.5241 29.1145 25.7456 32.7661 25.7456C35.0868 25.7456 37.1003 24.6178 38.09 23.0114V25.4038H42.4242V7.15326H37.7146V17.714Z" fill="#1144F9"/>
<path d="M52.5563 25.7114C56.9929 25.7114 60.1667 23.3532 61.1906 19.2178H56.481C55.9349 21.0292 54.5357 22.0545 52.4539 22.0545C50.0309 22.0545 48.5975 20.414 48.2904 17.4406H61.2247C62.0779 11.4938 58.2556 6.81149 52.4881 6.81149C47.2324 6.81149 43.4443 10.776 43.4443 16.2102C43.4443 21.9178 47.0959 25.7114 52.5563 25.7114ZM52.3857 10.2976C54.6381 10.2976 56.0714 11.9039 56.208 14.433H48.3586C48.7682 11.733 50.1674 10.2976 52.3857 10.2976Z" fill="#1144F9"/>
<path d="M71.4858 25.4038V5.54694H79.2328V0.86468H58.5857V5.54694H66.2985V25.4038H71.4858Z" fill="#1144F9"/>
<path d="M88.6229 25.4038H92.4793V13.9203C92.4793 9.44313 89.6809 6.81149 84.903 6.81149C80.5006 6.81149 77.4632 9.54566 77.1902 13.7494H81.4561C81.6268 11.6988 82.8554 10.5026 84.903 10.5026C86.8824 10.5026 88.0427 11.6988 88.0427 13.7494V14.8431C86.9165 14.7064 86.0292 14.638 85.0054 14.638C79.6815 14.638 76.8148 16.552 76.8148 20.1064C76.8148 23.5241 79.3402 25.7456 83.1284 25.7456C85.6197 25.7456 87.4285 24.857 88.6229 23.1481V25.4038ZM81.2855 19.9697C81.2855 18.3292 82.6165 17.4747 85.3125 17.4747C86.1316 17.4747 86.9165 17.5431 88.0427 17.714V19.0127C88.0427 21.1317 86.5753 22.4646 84.1522 22.4646C82.3776 22.4646 81.2855 21.5076 81.2855 19.9697Z" fill="#1144F9"/>
<path d="M99.2973 25.4038V0.86468H94.5195V25.4038H99.2973Z" fill="#1144F9"/>
<path d="M106.281 25.4038V0.86468H101.504V25.4038H106.281Z" fill="#1144F9"/>
<path d="M124.903 7.15326H120.159L115.996 19.6621L111.423 7.15326H106.304L113.47 25.1988L110.877 32H116.03L124.903 7.15326Z" fill="#1144F9"/>
<path d="M132.308 7.2182V1.70202H134.519V0H128.254V1.70202H130.465V7.2182H132.308ZM138.779 7.2182H140.396L142.239 2.11214V7.2182H144V0H141.359L139.639 4.9215L137.939 0H135.154V7.2182H136.915V2.05063L138.779 7.2182Z" fill="#1144F9"/>
</svg>
