<?xml version="1.0" encoding="UTF-8"?>
<svg version="1.1" xmlns="http://www.w3.org/2000/svg" width="400" height="400">
<path d="M0 0 C132 0 264 0 400 0 C400 132 400 264 400 400 C268 400 136 400 0 400 C0 268 0 136 0 0 Z " fill="#FEFEFE" transform="translate(0,0)"/>
<path d="M0 0 C1.06184509 -0.00660141 1.06184509 -0.00660141 2.1451416 -0.01333618 C12.26680222 -0.0396411 21.5791198 1.1823659 31.4375 3.5 C32.37964355 3.71229248 33.32178711 3.92458496 34.29248047 4.14331055 C49.20141431 7.62164565 63.50245214 14.44771855 76.4375 22.5 C76.4375 26.95222919 75.80756702 27.92240186 73.375 31.484375 C72.74335938 32.41894531 72.11171875 33.35351562 71.4609375 34.31640625 C70.79320312 35.28449219 70.12546875 36.25257812 69.4375 37.25 C68.76976562 38.23355469 68.10203125 39.21710938 67.4140625 40.23046875 C65.76335079 42.65937312 64.10430297 45.08212244 62.4375 47.5 C58.30403495 46.58658936 54.84520523 44.70807323 51.125 42.75 C43.41865595 38.81280516 35.79016244 35.85085595 27.4375 33.5 C26.35210937 33.1803125 25.26671875 32.860625 24.1484375 32.53125 C-5.30193813 25.2194326 -35.08660237 32.08207391 -60.734375 47.1171875 C-85.14647528 61.95000855 -102.3254225 87.07323614 -109.6640625 114.4140625 C-116.54718662 143.52904734 -111.1620858 175.67551694 -95.80078125 201.1484375 C-78.54129363 227.64484564 -53.15259959 244.93960257 -22.29589844 251.87817383 C-16.04142137 252.919905 -9.8358749 252.9823976 -3.50708008 252.94604492 C-1.26224459 252.93754636 0.98002368 252.96639844 3.22460938 252.99804688 C31.48709854 253.13416033 58.77064849 240.36921762 78.75 220.6875 C101.56117266 197.46853685 110.76102168 167.6293404 110.67895508 135.67260742 C110.60565639 129.54586405 110.22888943 123.57582854 109.4375 117.5 C113.14355005 116.65628795 116.85266381 115.8268912 120.5625 115 C121.60921875 114.76152344 122.6559375 114.52304688 123.734375 114.27734375 C124.75273437 114.05175781 125.77109375 113.82617188 126.8203125 113.59375 C127.75246582 113.38427734 128.68461914 113.17480469 129.64501953 112.95898438 C132.62157693 112.46974431 135.42633181 112.42229243 138.4375 112.5 C140.60697564 121.76957773 140.83976918 130.91234174 140.8125 140.375 C140.8112915 141.14934387 140.81008301 141.92368774 140.80883789 142.72149658 C140.64585879 181.25909689 125.47781174 214.91038066 99.15625 242.8203125 C94.84424688 247.07036155 90.26591356 250.85391058 85.4375 254.5 C84.66148437 255.09167969 83.88546875 255.68335938 83.0859375 256.29296875 C67.07999705 267.98961754 48.81202283 276.23331145 29.4375 280.5 C27.63925781 280.91572266 27.63925781 280.91572266 25.8046875 281.33984375 C-10.26904033 289.05116139 -47.76513237 279.97587669 -78.5625 260.5 C-96.47791564 248.30943522 -111.27009553 232.97331268 -122.5625 214.5 C-122.92085937 213.91798828 -123.27921875 213.33597656 -123.6484375 212.73632812 C-132.96015639 197.31598163 -139.02286611 179.29933066 -141.5625 161.5 C-141.69140625 160.64792969 -141.8203125 159.79585937 -141.953125 158.91796875 C-142.28979669 156.1049882 -142.4484244 153.331759 -142.5625 150.5 C-142.59504883 149.75427734 -142.62759766 149.00855469 -142.66113281 148.24023438 C-143.6893097 121.25838025 -137.75712856 96.04975907 -124.5625 72.5 C-124.19141113 71.83758301 -123.82032227 71.17516602 -123.43798828 70.49267578 C-105.91869955 39.79496402 -75.91277409 14.9699128 -41.5625 5.5 C-40.77762207 5.27586426 -39.99274414 5.05172852 -39.18408203 4.82080078 C-26.14409688 1.21844711 -13.4600884 0.02014319 0 0 Z " fill="#414143" transform="translate(196.5625,57.5)"/>
<path d="M0 0 C3.22874535 1.07624845 3.66265782 1.52211051 5.56640625 4.140625 C6.04625977 4.79184326 6.52611328 5.44306152 7.02050781 6.11401367 C7.52936523 6.81888916 8.03822266 7.52376465 8.5625 8.25 C9.65165803 9.7309733 10.74151011 11.21143639 11.83203125 12.69140625 C12.64148193 13.79572998 12.64148193 13.79572998 13.46728516 14.92236328 C15.52287209 17.70876736 17.63062111 20.4492193 19.75 23.1875 C26.88057553 32.42217978 33.93433932 41.7156218 41 51 C44.77194796 47.80947239 48.5116234 44.62841271 52 41.125 C52.598125 40.52945313 53.19625 39.93390625 53.8125 39.3203125 C55.6074033 37.41643292 57.30505696 35.47995674 59.00390625 33.4921875 C64.0275834 27.71730629 69.50645257 22.38664738 74.9375 17 C76.01390654 15.92862113 77.09008014 14.85700818 78.16601562 13.78515625 C80.77466745 11.18740362 83.38644471 8.59282038 86 6 C92.31645891 7.85648004 97.80826861 10.2868729 103.4375 13.6875 C104.16960693 14.12304199 104.90171387 14.55858398 105.65600586 15.00732422 C111.51062276 18.55616454 116.8530293 22.47268916 122 27 C117.64722888 32.2015293 113.07832545 37.07006428 108.28222656 41.86303711 C107.53353806 42.61508423 106.78484955 43.36713135 106.01347351 44.14196777 C103.5584834 46.60639441 101.09979819 49.06709173 98.640625 51.52734375 C96.92755899 53.2436246 95.21456775 54.95998009 93.50164795 56.67640686 C89.92263359 60.26139213 86.3415752 63.84432132 82.75927734 67.42602539 C78.15833929 72.02686129 73.56434845 76.63456816 68.97204971 81.24402523 C65.44284809 84.78430784 61.90914901 88.32007423 58.37413788 91.85455513 C56.67717849 93.55269808 54.98184843 95.2524708 53.2881546 96.95387077 C50.93019054 99.321567 48.56605439 101.68292101 46.20019531 104.04272461 C45.49680527 104.75173416 44.79341522 105.46074371 44.06871033 106.1912384 C43.4267421 106.82901215 42.78477386 107.46678589 42.12335205 108.12388611 C41.56516407 108.68261886 41.00697609 109.2413516 40.43187332 109.81701565 C39 111 39 111 37 111 C35.50081014 109.07335518 34.11935091 107.1418187 32.75 105.125 C28.71017616 99.31841051 24.49280046 93.68876009 20.125 88.125 C15.23945275 81.8908313 10.42427151 75.61424263 5.69116211 69.26367188 C2.79754833 65.38574133 -0.11884894 61.52671549 -3.05859375 57.68359375 C-3.76322754 56.76231689 -4.46786133 55.84104004 -5.19384766 54.8918457 C-6.5629134 53.10391968 -7.93357161 51.31721142 -9.30615234 49.53198242 C-13.69782737 43.79461471 -17.90276295 37.9511079 -22 32 C-17.01332498 23.77585976 -11.46383066 16.07929859 -5.71240234 8.37573242 C-5.1189502 7.58013916 -4.52549805 6.7845459 -3.9140625 5.96484375 C-3.3773291 5.2493335 -2.8405957 4.53382324 -2.28759766 3.79663086 C-0.94765882 2.02658626 -0.94765882 2.02658626 0 0 Z " fill="#019BDE" transform="translate(154,147)"/>
<path d="M0 0 C5.47609665 0.66146781 8.32387937 5.13737105 11.6171875 9.19970703 C14.39736898 12.81924415 16.95624769 16.58713678 19.5 20.375 C20.02851563 21.1599585 20.55703125 21.94491699 21.1015625 22.75366211 C21.59398437 23.50268799 22.08640625 24.25171387 22.59375 25.0234375 C23.25407227 26.02769775 23.25407227 26.02769775 23.92773438 27.05224609 C25.11289775 29.20507702 25.80018165 30.5379679 26 33 C24.37391663 35.22735596 24.37391663 35.22735596 21.89086914 37.67675781 C20.96983902 38.59741028 20.0488089 39.51806274 19.09986877 40.46661377 C18.07856055 41.46238694 17.05698327 42.45788421 16.03515625 43.453125 C15.00131099 44.47764607 13.9685633 45.50327579 12.93687439 46.52996826 C10.21706767 49.23067422 7.48258182 51.9160323 4.74481201 54.59851074 C1.95435165 57.33784523 -0.82202677 60.0913696 -3.59960938 62.84375 C-9.05268964 68.24318832 -14.52134832 73.626497 -20 79 C-22.58912946 76.55260322 -23.59668354 74.84739037 -24.5703125 71.39453125 C-24.82683594 70.49283203 -25.08335937 69.59113281 -25.34765625 68.66210938 C-25.73244141 67.25155273 -25.73244141 67.25155273 -26.125 65.8125 C-26.38925781 64.89146484 -26.65351563 63.97042969 -26.92578125 63.02148438 C-28.42462842 57.66139386 -29.43522927 52.53361218 -30 47 C-30.32677734 45.17662109 -30.32677734 45.17662109 -30.66015625 43.31640625 C-31.37721882 36.62614285 -31.24892509 32.08552337 -26.92578125 26.67578125 C-23.55441697 22.93241021 -19.92290453 19.48576008 -16.21582031 16.078125 C-14.04842271 14.04541363 -11.9977314 11.94414556 -9.9609375 9.78125 C-9.02145264 8.7924585 -9.02145264 8.7924585 -8.06298828 7.78369141 C-6.87704321 6.53514326 -5.69553022 5.28236643 -4.51904297 4.02490234 C-2.890625 2.3671875 -2.890625 2.3671875 0 0 Z " fill="#019B49" transform="translate(319,73)"/>
<path d="M0 0 C10.14131588 3.38043863 10.14131588 3.38043863 13.24609375 5.19921875 C13.93388916 5.60027832 14.62168457 6.00133789 15.33032227 6.41455078 C16.02569092 6.83462402 16.72105957 7.25469727 17.4375 7.6875 C18.16960693 8.12304199 18.90171387 8.55858398 19.65600586 9.00732422 C25.51062276 12.55616454 30.8530293 16.47268916 36 21 C30.50280742 27.69529866 24.39046848 33.73696491 18.2578125 39.83984375 C17.12273594 40.97305199 15.98788237 42.10648362 14.85324097 43.24012756 C11.88649256 46.20308335 8.91675198 49.16302193 5.9463501 52.12231445 C2.9077114 55.15066856 -0.12804909 58.18190499 -3.1640625 61.21289062 C-9.1065826 67.14473089 -15.052271 73.07338261 -21 79 C-21.99142917 76.0257125 -22.07969451 74.25650271 -21.9921875 71.16796875 C-21.67829762 55.3710616 -23.04658365 43.88354087 -29 29 C-19.43 19.43 -9.86 9.86 0 0 Z " fill="#B732A9" transform="translate(240,153)"/>
<path d="M0 0 C0.02916504 0.58676514 0.05833008 1.17353027 0.08837891 1.77807617 C0.8602655 15.82613943 2.98487974 28.60555454 7.36743164 41.9831543 C7.68055298 42.98149292 7.68055298 42.98149292 8 44 C8.28536621 44.64332275 8.57073242 45.28664551 8.86474609 45.94946289 C9 48 9 48 7.18579102 50.38183594 C6.30076904 51.24067383 5.41574707 52.09951172 4.50390625 52.984375 C4.03637436 53.44483215 3.56884247 53.90528931 3.08714294 54.37969971 C1.59024181 55.84859761 0.07690962 57.2991807 -1.4375 58.75 C-2.4549068 59.74233158 -3.47119803 60.73580829 -4.48632812 61.73046875 C-6.97807479 64.16706933 -9.48485497 66.58753329 -12 69 C-15.83119019 67.53917215 -18.6873015 65.88902102 -21.9375 63.375 C-30.08440671 57.31449623 -38.89400107 52.47723094 -48 48 C-43.12663913 42.13029878 -37.87943192 36.73395165 -32.48046875 31.34765625 C-31.13170403 29.99745644 -31.13170403 29.99745644 -29.75569153 28.61997986 C-27.86674561 26.73035658 -25.97683692 24.84176184 -24.08520508 22.95483398 C-21.65614791 20.53152267 -19.23167426 18.10368257 -16.80846691 15.67452335 C-14.49322039 13.35481276 -12.17418782 11.038895 -9.85546875 8.72265625 C-8.98262741 7.84779068 -8.10978607 6.97292511 -7.210495 6.07154846 C-6.40908585 5.27329147 -5.6076767 4.47503448 -4.78198242 3.65258789 C-3.71991829 2.59171715 -3.71991829 2.59171715 -2.63639832 1.50941467 C-1 0 -1 0 0 0 Z " fill="#FDAC01" transform="translate(289,105)"/>
</svg>
