<?xml version="1.0" standalone="no"?>
<!DOCTYPE svg PUBLIC "-//W3C//DTD SVG 20010904//EN"
 "http://www.w3.org/TR/2001/REC-SVG-20010904/DTD/svg10.dtd">
<svg version="1.0" xmlns="http://www.w3.org/2000/svg"
 width="512.000000pt" height="512.000000pt" viewBox="0 0 512.000000 512.000000"
 preserveAspectRatio="xMidYMid meet">

<g transform="translate(0.000000,512.000000) scale(0.100000,-0.100000)"
fill="#000000" stroke="none">
<path d="M0 3840 l0 -1280 185 0 185 0 0 49 c0 27 5 95 10 152 51 517 270 979
635 1344 375 376 850 594 1383 637 l152 12 0 183 0 183 -1275 0 -1275 0 0
-1280z"/>
<path d="M2560 4936 l0 -183 108 -7 c232 -15 454 -61 656 -137 110 -41 339
-153 384 -187 l24 -18 -158 -240 c-86 -131 -158 -240 -159 -242 -2 -2 -45 19
-96 47 -875 465 -1948 45 -2273 -888 -67 -193 -80 -278 -80 -526 0 -190 3
-234 22 -321 141 -647 628 -1127 1274 -1256 162 -32 434 -32 595 0 153 31 275
72 418 143 158 78 286 170 415 299 225 226 373 499 440 815 31 144 38 393 16
543 -9 62 -19 118 -21 125 -7 17 556 161 566 145 10 -17 38 -178 49 -288 54
-534 -102 -1087 -434 -1530 -82 -110 -278 -311 -383 -394 -362 -284 -786 -444
-1250 -472 l-113 -7 0 -179 0 -178 1275 0 1275 0 0 2560 0 2560 -1275 0 -1275
0 0 -184z m2072 -574 c71 -86 198 -274 218 -322 l14 -34 -1174 -1168 c-646
-642 -1177 -1168 -1180 -1168 -14 0 -921 1212 -917 1224 6 16 313 443 336 468
15 17 36 -9 321 -382 167 -220 307 -399 310 -398 4 2 348 350 765 773 418 424
849 861 960 973 l200 203 43 -48 c24 -26 71 -81 104 -121z"/>
<path d="M372 2380 c0 -14 2 -19 5 -12 2 6 2 18 0 25 -3 6 -5 1 -5 -13z"/>
</g>
</svg>
