<svg width="281" height="56" viewBox="0 0 281 56" fill="none" xmlns="http://www.w3.org/2000/svg">
<path d="M193.893 9.94637C202 9.94637 207.197 16.2851 205.484 26.1626C203.714 36.0401 196.235 42.6061 188.185 42.6061C183.217 42.6061 180.076 40.1506 178.591 37.5813L176.313 50.6152C176.049 52.1231 175.262 53.4896 174.09 54.4744C172.918 55.4593 171.436 55.9995 169.905 56H167.903C167.831 56.0001 167.761 55.9845 167.697 55.9545C167.632 55.9245 167.575 55.8807 167.529 55.8262C167.483 55.7717 167.45 55.7078 167.432 55.6391C167.413 55.5703 167.41 55.4984 167.422 55.4283L175.268 10.8642C175.287 10.7511 175.346 10.6486 175.434 10.5748C175.522 10.501 175.633 10.4608 175.748 10.4613H182.808C182.88 10.4611 182.95 10.4767 183.014 10.5067C183.079 10.5367 183.136 10.5806 183.182 10.6351C183.227 10.6896 183.26 10.7535 183.279 10.8223C183.297 10.891 183.3 10.963 183.287 11.033L182.588 15.028C184.01 13.435 185.752 12.1592 187.699 11.2836C189.647 10.4081 191.758 9.95246 193.893 9.94637ZM190.582 16.9705C186.299 16.9705 181.627 20.2819 180.594 26.2694C179.509 32.2654 182.934 35.5683 187.274 35.5683C191.613 35.5683 196.238 32.1415 197.323 26.1471C198.348 20.1665 194.926 16.9705 190.583 16.9705H190.582Z" fill="#2F2D32"/>
<path d="M220.91 0H213.837C213.726 0.000314397 213.619 0.0396316 213.534 0.111082C213.449 0.182532 213.392 0.281572 213.372 0.390898L206.119 41.4627C206.107 41.5341 206.11 41.6074 206.129 41.6774C206.147 41.7474 206.181 41.8124 206.228 41.8679C206.275 41.9234 206.333 41.9679 206.399 41.9985C206.464 42.0291 206.536 42.0449 206.608 42.0448H213.681C213.792 42.0449 213.899 42.0059 213.984 41.9347C214.069 41.8636 214.126 41.7648 214.146 41.6556L221.399 0.583764C221.411 0.512308 221.408 0.438971 221.389 0.368891C221.37 0.298812 221.337 0.233684 221.29 0.178071C221.243 0.122457 221.185 0.0777028 221.12 0.0469428C221.054 0.0161828 220.982 0.000161106 220.91 0Z" fill="#2F2D32"/>
<path d="M252.936 10.3752H245.939C245.823 10.3753 245.71 10.4165 245.62 10.4914C245.531 10.5663 245.471 10.6702 245.45 10.785L242.437 27.8106C241.576 32.8991 238.264 35.6423 233.976 35.6423C229.689 35.6423 227.402 32.8991 228.259 27.8106L231.244 10.9606C231.256 10.889 231.253 10.8154 231.234 10.7451C231.215 10.6748 231.181 10.6095 231.134 10.5537C231.088 10.498 231.029 10.4531 230.963 10.4222C230.897 10.3914 230.826 10.3753 230.753 10.3752H223.758C223.642 10.3751 223.53 10.416 223.441 10.4906C223.352 10.5653 223.292 10.6689 223.272 10.7833L220.085 28.954C218.921 35.5097 221.175 39.8526 225.542 41.5884L225.575 41.6039L225.668 41.6367C226.04 41.7787 226.419 41.9005 226.804 42.0017C229.647 42.8111 234.209 43.2795 240.326 39.6908L240.021 41.4662C240.008 41.5372 240.012 41.61 240.031 41.6796C240.049 41.7492 240.083 41.8138 240.13 41.8689C240.176 41.9241 240.234 41.9684 240.299 41.9987C240.365 42.0291 240.436 42.0448 240.508 42.0448H247.508C247.624 42.0447 247.737 42.0038 247.826 41.9292C247.916 41.8546 247.976 41.7511 247.997 41.6367L253.423 10.9572C253.436 10.886 253.433 10.8129 253.414 10.743C253.395 10.6731 253.361 10.6082 253.315 10.5527C253.269 10.4973 253.211 10.4526 253.145 10.422C253.08 10.3913 253.008 10.3753 252.936 10.3752Z" fill="#2F2D32"/>
<path d="M268.112 9.86024C260.451 9.86024 255.248 13.8054 255.248 19.4088C255.248 29.6979 270.969 28.0964 270.969 33.2418C270.969 35.4804 268.511 36.4998 265.653 36.4998C262.49 36.4998 260.583 34.8898 260.547 32.5203C260.544 32.3918 260.491 32.2695 260.399 32.1799C260.307 32.0903 260.183 32.0406 260.055 32.0415H253.232C253.11 32.0407 252.992 32.0848 252.9 32.1655C252.809 32.2462 252.75 32.3578 252.736 32.4789C252.144 38.4199 257.659 42.5596 265.081 42.5596C272.856 42.5596 278.685 39.0157 278.685 33.0128C278.685 23.18 263.078 24.4957 263.078 19.1798C263.078 17.1788 265.023 15.92 267.766 15.92C270.929 15.92 272.734 17.4698 272.76 19.8393C272.762 19.9687 272.815 20.0921 272.908 20.1826C273 20.2732 273.124 20.3237 273.254 20.3232H279.711C279.838 20.324 279.959 20.2767 280.052 20.1909C280.144 20.1052 280.2 19.9875 280.209 19.8617C280.552 13.9896 275.637 9.86024 268.112 9.86024Z" fill="#2F2D32"/>
<path d="M60.3764 14.2118H56.0301V10.8367H60.3764V0H64.437V10.8367H73.0074V14.2118H64.437V33.5966C64.437 37.428 65.7509 38.6283 69.3533 38.6283H73.0074V42.0603H68.7248C63.2918 42.0603 60.3764 39.8303 60.3764 33.5966V14.2118Z" fill="#2F2D32"/>
<path d="M77.1244 10.8367H81.1281V42.0603H77.1244V10.8367Z" fill="#2F2D32"/>
<path d="M131.084 24.2184C131.084 17.2994 127.482 13.7537 121.935 13.7537C116.273 13.7537 112.269 17.5267 112.269 25.1414V42.0689H108.324V24.2184C108.324 17.2994 104.665 13.7537 99.1182 13.7537C93.3994 13.7537 89.4543 17.5267 89.4543 25.1328V42.0602H85.4506V10.8366H89.4543V16.2128C91.4553 12.2659 95.4004 10.2649 99.8036 10.2649C105.008 10.2649 109.468 12.724 111.355 17.9279C113.077 12.8376 117.645 10.2649 122.62 10.2649C129.539 10.2649 135.029 14.6113 135.029 23.7604V42.0602H131.084V24.2184Z" fill="#2F2D32"/>
<path d="M153.539 42.5166C144.676 42.5166 138.213 36.3414 138.213 26.4484C138.213 16.4986 144.56 10.3803 153.539 10.3803C162.69 10.3803 168.293 16.8981 168.293 24.8452C168.315 25.8952 168.277 26.9457 168.18 27.9914H142.275C142.62 35.3099 147.707 39.1414 153.539 39.1414C158.858 39.1414 162.461 36.3397 163.604 32.1655H167.835C166.406 38.0565 161.374 42.5166 153.539 42.5166ZM142.275 24.7333H164.233C164.405 17.4698 159.144 13.8105 153.369 13.8105C147.707 13.8105 142.732 17.4698 142.275 24.7333Z" fill="#2F2D32"/>
<path d="M76.6411 4.15351L77.3489 0H81.3095L80.6018 4.15351H76.6411Z" fill="#2F2D32"/>
<path d="M32.5639 26.2316C32.5638 23.8821 32.0543 21.5606 31.0706 19.427C30.0869 17.2934 28.6523 15.3985 26.8658 13.8726C26.6798 13.8141 26.4921 13.7567 26.3027 13.7004C25.1263 14.0149 24.0004 14.4943 22.9585 15.1245C24.875 16.2751 26.461 17.9022 27.5621 19.8476C28.6632 21.7929 29.2419 23.9902 29.2419 26.2255C29.2419 28.4609 28.6632 30.6581 27.5621 32.6035C26.461 34.5488 24.875 36.176 22.9585 37.3265C24.0001 37.9569 25.1261 38.4358 26.3027 38.7489C26.4921 38.699 26.6798 38.6439 26.8658 38.5853C28.6516 37.06 30.0857 35.1658 31.0693 33.0332C32.053 30.9006 32.5629 28.5801 32.5639 26.2316Z" fill="#F2DBF3"/>
<path d="M3.31559 26.2315C3.3194 23.4759 4.19955 20.793 5.82877 18.5707C7.45799 16.3483 9.75182 14.7018 12.3786 13.8691C14.4544 12.0859 16.9468 10.8557 19.6248 10.2925C17.2543 9.79581 14.8029 9.83412 12.449 10.4046C10.0952 10.9751 7.89826 12.0635 6.01824 13.5904C4.13821 15.1174 2.62244 17.0444 1.58134 19.2312C0.540228 21.418 0 23.8095 0 26.2315C0 28.6535 0.540228 31.045 1.58134 33.2318C2.62244 35.4186 4.13821 37.3456 6.01824 38.8725C7.89826 40.3995 10.0952 41.4878 12.449 42.0583C14.8029 42.6289 17.2543 42.6672 19.6248 42.1705C16.9515 41.6058 14.4638 40.3756 12.3923 38.5938C9.76288 37.7638 7.46588 36.1184 5.834 33.8958C4.20211 31.6732 3.32006 28.9888 3.31559 26.2315Z" fill="#F2DBF3"/>
<path d="M39.2559 26.2315C39.2558 23.881 38.7458 21.5586 37.7611 19.4243C36.7765 17.29 35.3406 15.3947 33.5526 13.8691C31.2031 13.1295 28.6917 13.0733 26.3115 13.7072C29.0713 14.4429 31.5107 16.0696 33.2509 18.3344C34.991 20.5992 35.9344 23.3753 35.9344 26.2315C35.9344 29.0876 34.991 31.8637 33.2509 34.1286C31.5107 36.3934 29.0713 38.02 26.3115 38.7557C28.6914 39.392 31.2035 39.3358 33.5526 38.5938C35.3409 37.0684 36.7769 35.1732 37.7616 33.0388C38.7463 30.9045 39.2561 28.582 39.2559 26.2315Z" fill="#EA9FCC"/>
<path d="M19.0618 38.5939C16.4332 37.7644 14.1375 36.1186 12.5079 33.8955C10.8783 31.6725 9.99974 28.9879 9.99974 26.2315C9.99974 23.4752 10.8783 20.7906 12.5079 18.5675C14.1375 16.3445 16.4332 14.6987 19.0618 13.8692C21.1361 12.0867 23.6267 10.8565 26.3028 10.2925C23.9323 9.79583 21.4809 9.83414 19.1271 10.4047C16.7732 10.9752 14.5763 12.0635 12.6963 13.5905C10.8162 15.1174 9.30047 17.0444 8.25936 19.2312C7.21826 21.418 6.67803 23.8095 6.67803 26.2315C6.67803 28.6535 7.21826 31.045 8.25936 33.2318C9.30047 35.4186 10.8162 37.3456 12.6963 38.8726C14.5763 40.3995 16.7732 41.4879 19.1271 42.0584C21.4809 42.6289 23.9323 42.6672 26.3028 42.1705C23.6264 41.6072 21.1357 40.3769 19.0618 38.5939Z" fill="#EA9FCC"/>
<path d="M29.6453 9.9464C26.4244 9.9464 23.2758 10.9015 20.5978 12.6909C17.9197 14.4804 15.8324 17.0238 14.5998 19.9995C13.3672 22.9752 13.0447 26.2496 13.6731 29.4086C14.3014 32.5676 15.8524 35.4693 18.13 37.7468C20.4075 40.0243 23.3092 41.5754 26.4682 42.2037C29.6272 42.8321 32.9016 42.5096 35.8773 41.277C38.853 40.0444 41.3964 37.9571 43.1859 35.279C44.9753 32.601 45.9304 29.4524 45.9304 26.2315C45.9254 21.914 44.208 17.7747 41.1551 14.7217C38.1021 11.6688 33.9628 9.95141 29.6453 9.9464ZM42.6069 26.2315C42.6072 28.7956 41.8472 31.3021 40.4229 33.4342C38.9986 35.5663 36.974 37.2281 34.6052 38.2095C32.2364 39.1909 29.6298 39.4477 27.115 38.9476C24.6002 38.4474 22.2901 37.2128 20.4771 35.3997C18.664 33.5866 17.4294 31.2766 16.9292 28.7618C16.4291 26.247 16.6859 23.6404 17.6673 21.2716C18.6487 18.9028 20.3105 16.8782 22.4426 15.4539C24.5747 14.0296 27.0812 13.2696 29.6453 13.2699C33.0817 13.274 36.3761 14.6409 38.806 17.0708C41.2359 19.5007 42.6028 22.7951 42.6069 26.2315Z" fill="#FF244E"/>
</svg>
