<?xml version="1.0" encoding="UTF-8"?>
<svg xmlns="http://www.w3.org/2000/svg" xmlns:xlink="http://www.w3.org/1999/xlink" width="250px" height="250px" viewBox="0 0 250 250" version="1.1">
<g id="surface1">
<path style=" stroke:none;fill-rule:nonzero;fill:rgb(32.54902%,36.078431%,97.647059%);fill-opacity:1;" d="M 122.222656 251.109375 C 81.480469 251.109375 41.296875 251.109375 1.109375 251.109375 C 1.109375 167.777344 1.109375 84.445312 1.109375 1.109375 C 84.445312 1.109375 167.777344 1.109375 251.109375 1.109375 C 251.109375 84.445312 251.109375 167.777344 251.109375 251.109375 C 208.332031 251.109375 165.554688 251.109375 122.222656 251.109375 M 133.398438 61.28125 C 101.816406 57.671875 78.136719 79.574219 75.046875 105.0625 C 73.539062 117.472656 74.183594 130.195312 74.503906 142.761719 C 75.179688 169.226562 97.945312 190.9375 125.328125 191.691406 C 151.945312 192.421875 175.714844 171.378906 177.859375 145.179688 C 178.390625 138.695312 176.003906 134.925781 171.070312 134.457031 C 166.074219 133.984375 162.921875 137.207031 162.242188 143.5 C 160.132812 162.988281 143.839844 176.652344 123.84375 175.703125 C 105.367188 174.824219 90.300781 159.125 90.042969 140.347656 C 89.917969 131.097656 89.949219 121.839844 90.042969 112.589844 C 90.226562 94.546875 103.074219 79.894531 121.203125 76.917969 C 137.964844 74.167969 155.285156 84.84375 160.71875 101.460938 C 161.683594 104.40625 161.910156 107.601562 162.40625 110.695312 C 163.207031 115.660156 166.523438 118.636719 171.089844 118.070312 C 175.917969 117.472656 178.230469 114.46875 178.042969 109.679688 C 177.941406 107.105469 177.773438 104.46875 177.148438 101.980469 C 171.476562 79.449219 157.097656 66.019531 133.398438 61.28125 M 129.964844 89.0625 C 116.605469 88.410156 106.601562 94.839844 103.441406 106.109375 C 101.851562 111.773438 103.519531 116.140625 107.863281 117.699219 C 112.648438 119.410156 116.503906 117.164062 118.546875 111.054688 C 119.882812 107.066406 122.335938 104.589844 126.515625 104.652344 C 130.699219 104.714844 133.101562 107.300781 134.335938 111.28125 C 136.113281 117.007812 139.847656 119.28125 144.554688 117.832031 C 149.003906 116.464844 150.925781 112.054688 149.335938 106.476562 C 146.652344 97.058594 140.199219 91.597656 129.964844 89.0625 Z M 129.964844 89.0625 "/>
<path style=" stroke:none;fill-rule:nonzero;fill:rgb(98.823529%,99.215686%,99.607843%);fill-opacity:1;" d="M 133.890625 61.34375 C 157.097656 66.019531 171.476562 79.449219 177.148438 101.980469 C 177.773438 104.46875 177.941406 107.105469 178.042969 109.679688 C 178.230469 114.46875 175.917969 117.472656 171.089844 118.070312 C 166.523438 118.636719 163.207031 115.660156 162.40625 110.695312 C 161.910156 107.601562 161.683594 104.40625 160.71875 101.460938 C 155.285156 84.84375 137.964844 74.167969 121.203125 76.917969 C 103.074219 79.894531 90.226562 94.546875 90.042969 112.589844 C 89.949219 121.839844 89.917969 131.097656 90.042969 140.347656 C 90.300781 159.125 105.367188 174.824219 123.84375 175.703125 C 143.839844 176.652344 160.132812 162.988281 162.242188 143.5 C 162.921875 137.207031 166.074219 133.984375 171.070312 134.457031 C 176.003906 134.925781 178.390625 138.695312 177.859375 145.179688 C 175.714844 171.378906 151.945312 192.421875 125.328125 191.691406 C 97.945312 190.9375 75.179688 169.226562 74.503906 142.761719 C 74.183594 130.195312 73.539062 117.472656 75.046875 105.0625 C 78.136719 79.574219 101.816406 57.671875 133.890625 61.34375 Z M 133.890625 61.34375 "/>
<path style=" stroke:none;fill-rule:nonzero;fill:rgb(98.823529%,98.823529%,99.215686%);fill-opacity:1;" d="M 130.429688 89.140625 C 140.199219 91.597656 146.652344 97.058594 149.335938 106.476562 C 150.925781 112.054688 149.003906 116.464844 144.554688 117.832031 C 139.847656 119.28125 136.113281 117.007812 134.335938 111.28125 C 133.101562 107.300781 130.699219 104.714844 126.515625 104.652344 C 122.335938 104.589844 119.882812 107.066406 118.546875 111.054688 C 116.503906 117.164062 112.648438 119.410156 107.863281 117.699219 C 103.519531 116.140625 101.851562 111.773438 103.441406 106.109375 C 106.601562 94.839844 116.605469 88.410156 130.429688 89.140625 Z M 130.429688 89.140625 "/>
</g>
</svg>
