<svg xmlns="http://www.w3.org/2000/svg" id="Layer_1" data-name="Layer 1" viewBox="0 0 1000 195.08" height= "250" width = "250"><defs><style>.cls-1{fill:#232226;}.cls-2{fill:#008060;}</style></defs><path class="cls-1" d="M312.5,146.13a28,28,0,0,1-17.33,6.23c-13.47,0-22.89-9.77-22.89-23.74V77.46H259.15V63.32h13.13V39.42h16.33v23.9h20.53V77.46H288.61v50c0,6.06,4,10.43,8.92,10.43a13,13,0,0,0,8.92-3.2Z"></path><path class="cls-1" d="M323.44,38.75a10,10,0,0,1,20,0,10,10,0,1,1-20,0Zm1.69,24.57h16.66v87H325.13Z"></path><path class="cls-1" d="M438.57,95v55.38H422.24V97.83c0-13-8.25-22-20-22-12.12,0-22.55,7.91-23.9,18.18v56.38H361.65v-87h16.66V76c5.22-8.59,15.82-14.65,27.61-14.65C425.1,61.3,438.57,75.27,438.57,95Z"></path><path class="cls-1" d="M454.37,176.93l3.7-12.79a22.58,22.58,0,0,0,10.6,2.69c5.39,0,9.09-1.68,11.95-6.73l4.38-9.26L447.64,63.32h17.84L493.42,132l26.42-68.67h17.34L498.8,158.25c-6.23,15.65-15.48,22.21-27.94,22.38A37.22,37.22,0,0,1,454.37,176.93Z"></path><path class="cls-2" d="M607.19,122.9l15.65,16c-7.74,8.08-22.72,13.47-35.51,13.47-25.92,0-46.11-19-46.11-45.78,0-26.26,19.35-45.28,44.76-45.28,27.27,0,43.26,20.71,43.26,53.52H566.46c2.86,9.43,10.44,15.82,20.7,15.82C594.06,130.64,602.48,127.45,607.19,122.9ZM566.8,97.15h38.88C603.32,88.57,596.92,83,587,83A21,21,0,0,0,566.8,97.15Z"></path><path class="cls-2" d="M777.35,95V150.5H753.78V99.17c0-10.1-6.39-17.16-15.48-17.16-9.76,0-16.83,6.56-16.83,15.82V150.5H697.91V99.17c0-10.1-6.4-17.16-15.32-17.16-9.93,0-16.83,6.56-16.83,15.82v52.51H641.19v-87h24.57V74.77C670,66.52,678.55,61.3,689.32,61.3c11.95,0,22.22,6.06,27.61,15.82,4.54-9.59,15.31-15.82,28.27-15.82C763.38,61.3,777.35,75.27,777.35,95Z"></path><path class="cls-2" d="M870.93,98.33v52H847.2v-8.76c-6.23,7.07-16.16,10.78-25.59,10.78-18.51,0-32.82-11.11-32.82-27.77,0-17.17,16-28.95,36.19-28.95A62.83,62.83,0,0,1,847.2,100V98.33c0-9.26-5.73-17.34-20-17.34-8.08,0-15.65,2.7-22.55,6.23L796.37,70.9c12.28-6.23,24.23-9.6,36.35-9.6C855.44,61.3,870.93,75.61,870.93,98.33ZM847.2,122.9v-8.08a55.08,55.08,0,0,0-18.69-3.19c-8.92,0-16,5.21-16,12.28s6.23,11.45,14.65,11.45C836.59,135.36,845.51,131,847.2,122.9Z"></path><path class="cls-2" d="M886.24,37.91a13.3,13.3,0,1,1,13.47,13.46A13.45,13.45,0,0,1,886.24,37.91Zm1,25.41h24.58v87H887.25Z"></path><path class="cls-2" d="M929,32.69h24.58V150.34H929Z"></path><path class="cls-2" d="M972.16,67.31a18.38,18.38,0,0,1-6.78-6.78,18.47,18.47,0,0,1,0-18.56,18.53,18.53,0,0,1,6.78-6.78,18.47,18.47,0,0,1,18.56,0A18.68,18.68,0,0,1,997.5,42a18.47,18.47,0,0,1,0,18.56,18.53,18.53,0,0,1-6.78,6.78,18.41,18.41,0,0,1-18.56,0ZM988.82,64a14.73,14.73,0,0,0,5.33-5.36,14.69,14.69,0,0,0,0-14.73,15,15,0,0,0-5.33-5.33,14.75,14.75,0,0,0-14.73,0,14.81,14.81,0,0,0-5.36,5.33,14.22,14.22,0,0,0-2,7.38,13.86,13.86,0,0,0,2,7.31,15.45,15.45,0,0,0,5.36,5.36,13.88,13.88,0,0,0,7.31,2A14.22,14.22,0,0,0,988.82,64Zm-13.6-21.83H983a5.81,5.81,0,0,1,4.12,1.7,5.48,5.48,0,0,1,1.77,4.11,5.28,5.28,0,0,1-1.17,3.35,5.46,5.46,0,0,1-2.86,2l-.16.16,4.84,6.78v.16h-4.2l-4.44-6.78h-1.93v6.78h-3.72Zm7.43,8.07a2.55,2.55,0,0,0,1.77-.64,2.06,2.06,0,0,0,.73-1.62,2.16,2.16,0,0,0-.69-1.57,2.31,2.31,0,0,0-1.73-.68h-3.79V50.2Z"></path><path class="cls-2" d="M165.35,25.45A92.72,92.72,0,0,0,101.44,0h-.31c-26.65.08-52,10.79-71.29,30.14S-.09,74.77,0,101.3c.08,24,9.93,46.72,27.75,64.07A92.89,92.89,0,0,0,92.8,192.12h.3c22-.07,38.55-5,57.2-16.92a1,1,0,0,0,.43-.63,1,1,0,0,0-.14-.76l-4.35-6.47a1,1,0,0,0-1.34-.29c-17.3,10.5-31.69,14.62-51.35,14.68h-.26c-44.43,0-82-36.9-82.18-80.7a89.41,89.41,0,0,1,26.46-63.5c17.12-17.27,39.54-26.82,63.11-26.9H101c43.77,0,80.82,34.59,81,75.66,0,14.93-3.28,27.15-9.62,35.36-5.08,6.57-12,10.35-19.05,10.37h-.07c-4.48,0-8.21-1.32-10.78-3.82s-4-6.38-4.07-11c0-.59.06-1.43.17-2.51a1,1,0,0,0-.75-1.07l-18.48-4.39a1,1,0,0,0-1.16.46c-7,12.64-18.29,19.62-31.92,19.67-15.22,0-25.4-10.17-26-26v-.15c.15-8.37.19-10.36,2.76-18.48C68.5,68.3,82.65,58,99.88,58h.22c8.56,0,13.78,1.57,16.43,4.92,2.84,3.6,5.09,7.81-1.25,16.19-8.69,11.48-32.4,17.84-46.14,12.37a7.92,7.92,0,0,1-1-.5,1,1,0,0,0-.88,0,1,1,0,0,0-.56.68,41.08,41.08,0,0,0-1.06,11,25.29,25.29,0,0,0,.63,4.49,1,1,0,0,0,.69.74,47.84,47.84,0,0,0,13.29,1.76c16.16,0,42.06-11.49,50-25.76,6.93-10.33,3.84-22.19-2.3-29.36-9.58-11.2-20.67-12.68-30.32-12.65-13.94.05-28.19,6.55-39.11,17.85a62,62,0,0,0-17.68,43.41c.08,25,16.87,42.44,40.86,42.44h.16c19.11-.06,31.88-11.64,38.39-19.59,3.43,12.18,13.76,19.38,28.05,19.38h.14c11.34,0,22.38-5.4,30.27-14.72,9.08-10.72,13.85-26.06,13.79-44.34C192.46,63.53,182.8,41.94,165.35,25.45Z"></path></svg>
