<svg xmlns="http://www.w3.org/2000/svg" width="250" height="250" fill="none"><g clip-path="url(#a)"><path fill="url(#b)" d="M220.753 109.327c-.103.39-.292.753-.552 1.062-7.46 8.657-29.683 7.793-29.683 7.793a56.924 56.924 0 0 1-31.217-9.325 57.034 57.034 0 0 1-21.012-24.924 33.018 33.018 0 0 0-11.452-14.215 26.709 26.709 0 0 0-12.802-4.73S85.519 58.2 62.172 89.422a1.572 1.572 0 0 0 .688 2.417l5.534 2.13a12.638 12.638 0 0 1 5.343 3.915 12.661 12.661 0 0 1 2.631 6.084l2.136 14.834c2.971 27.12 22.092 49.406 49.344 49.406a49.087 49.087 0 0 0 27.583-8.438s4.654-3.464 10.894-7.531a52.743 52.743 0 0 1 46.486-5.471l3.982 1.484a2.8 2.8 0 0 1 1.743 3.402 96.804 96.804 0 0 1-34.861 50.663 96.61 96.61 0 0 1-58.311 19.398c-52.098-.14-95.996-43.891-96.362-96.054a96.83 96.83 0 0 1 25.041-65.656 96.598 96.598 0 0 1 62.813-31.37A96.555 96.555 0 0 1 184.302 48.1a96.779 96.779 0 0 1 36.5 60.03c.072.398.056.807-.049 1.198ZM93.928 81.464a5.633 5.633 0 0 1-5.63 5.637 5.633 5.633 0 0 1-5.63-5.637 5.633 5.633 0 0 1 5.63-5.637c3.11 0 5.63 2.524 5.63 5.637Zm-4.442 35.165c1.42 8.779 8.323 36.649 39.217 41.78a.412.412 0 0 0 .43-.561.411.411 0 0 0-.185-.207c-7.156-3.299-25.902-14.137-38.704-41.239a.402.402 0 0 0-.697-.043.4.4 0 0 0-.061.27Z"/></g><defs><linearGradient id="b" x1="29" x2="221" y1="135.035" y2="135.035" gradientUnits="userSpaceOnUse"><stop stop-color="#E86668"/><stop offset="1" stop-color="#8933B7"/></linearGradient><clipPath id="a"><path fill="#fff" d="M29 28h192v194H29z"/></clipPath></defs></svg>