<svg width="18" height="16" viewBox="0 0 18 16" fill="none" xmlns="http://www.w3.org/2000/svg">
<path d="M2.21805 0.601562L0.984985 1.83463L2.21805 4.30076L4.06765 4.9173L6.22552 7.07516L7.45858 5.8421L5.30072 3.68423L4.68419 1.83463L2.21805 0.601562ZM13.3566 0.607583C12.3341 0.567152 11.2994 0.93609 10.5184 1.71662C9.50968 2.72531 9.41937 3.9385 9.92111 5.07986L2.75993 12.241C2.03735 12.9636 2.03735 14.1339 2.75993 14.8565C3.4825 15.5791 4.6528 15.5791 5.37538 14.8565L12.5366 7.69531C13.6778 8.19686 14.8912 8.10587 15.8998 7.09684C16.9411 6.05551 17.2498 4.56271 16.8318 3.25073L14.5475 5.53624L12.5739 5.04253L12.0802 3.0689L14.3657 0.784596C14.0375 0.680248 13.6974 0.62106 13.3566 0.607583ZM12.4041 9.62559L10.0837 11.946L13.0543 14.9179C13.6955 15.5591 14.7354 15.5591 15.376 14.9179C16.0172 14.2767 16.0172 13.2375 15.376 12.5963L12.4041 9.62559ZM4.06765 12.9322C4.40798 12.9322 4.68419 13.2084 4.68419 13.5488C4.68419 13.8891 4.40798 14.1653 4.06765 14.1653C3.72733 14.1653 3.45112 13.8891 3.45112 13.5488C3.45112 13.2084 3.72733 12.9322 4.06765 12.9322Z" fill="#AFAFC1"/>
</svg>
