<svg xmlns="http://www.w3.org/2000/svg" width="250" height="250" fill="none"><path fill="url(#a)" d="m150.271 118.365-42.058 13.834-36.589 16.268-10.236 2.722a221.604 221.604 0 0 1-8.297 7.59c-3.242 2.818-6.262 5.381-8.583 7.238-2.575 2.049-6.39 5.892-8.329 8.326-2.893 3.65-5.181 7.525-6.167 10.504-1.748 5.38-.89 10.824 2.48 15.852 4.323 6.404 12.938 12.937 22.983 17.388 5.118 2.275 13.733 5.189 20.218 6.822 10.776 2.754 31.63 5.732 43.106 6.181 2.32.096 5.436.096 5.563 0 .254-.161 2.034-3.587 4.101-7.846 7.057-14.507 12.143-28.118 14.909-39.742 1.653-7.045 2.956-16.428 3.814-27.54.223-3.107.318-13.514.127-17.037-.286-5.764-.795-10.44-1.589-15.019-.127-.673-.159-1.281-.095-1.313.126-.096.508-.224 5.69-1.73l-1.049-2.497v-.001h.001Zm-9.601 5.668c.382 0 1.399 9.831 1.653 16.044.064 1.313.032 2.178-.032 2.178-.254 0-5.372-3.042-9.027-5.348-3.18-2.017-9.219-6.053-10.173-6.821-.318-.224-.287-.256 2.32-1.153 4.419-1.505 14.91-4.9 15.259-4.9Zm-21.426 7.11c.287 0 1.017.416 2.766 1.505 6.548 4.131 15.45 9.127 19.264 10.792 1.176.512 1.303.32-1.399 2.178-5.785 3.971-13.002 7.877-21.839 11.816-1.558.705-2.861 1.249-2.893 1.249-.063 0 .127-.8.381-1.761 2.13-7.975 3.338-16.044 3.402-22.513.032-3.203.032-3.203.318-3.298-.064.032-.032.032 0 .032Zm-4.418 1.697c.19.192.063 7.365-.191 9.319-.573 4.675-1.463 9.03-2.924 13.93-.35 1.185-.669 2.178-.731 2.242-.128.16-4.483-4.131-5.914-5.797-2.48-2.882-4.418-5.764-5.849-8.582-.731-1.441-1.875-4.259-1.78-4.355.508-.352 17.262-6.885 17.389-6.757Zm-20.79 8.23c.031 0 .063 0 .095.032.063.064.286.576.477 1.153 1.017 2.786 3.305 6.885 5.277 9.511 2.161 2.882 4.991 5.956 7.343 7.974.763.64 1.462 1.248 1.557 1.345.191.192.255.16-4.927 2.145-6.008 2.306-12.557 4.612-20.059 7.045-1.792.582-3.583 1.17-5.372 1.762-.286.096-.19-.064.636-1.377 3.72-5.861 9.377-17.357 12.556-25.491.541-1.409 1.081-2.818 1.177-3.138.127-.449.286-.609.699-.833.222-.064.445-.128.54-.128Zm-6.358 2.658c.095.064-1.526 3.49-3.116 6.629-3.083 6.052-6.453 12.009-10.967 19.246-.763 1.249-1.494 2.402-1.59 2.53-.158.225-.222.16-.73-.832-1.081-2.146-1.972-4.9-2.448-7.43-.477-2.498-.382-6.853.159-9.543.413-1.985.381-1.953 1.335-2.434 4.069-2.081 17.23-8.294 17.357-8.166Zm54.836 2.242v1.345c0 7.141-.763 16.94-1.876 24.082-.191 1.249-.35 2.273-.381 2.306 0 0-.922-.256-2.003-.577-4.768-1.505-9.95-3.715-14.623-6.308-3.084-1.698-7.566-4.484-7.439-4.612.032-.032 1.367-.737 2.925-1.569 6.231-3.267 12.207-6.789 17.388-10.28 1.94-1.313 4.864-3.426 5.5-4.003l.509-.384Zm-78.837 9.478c.127 0 .095.256-.096 1.409-.127.833-.286 2.37-.349 3.427-.255 4.675.509 8.134 2.797 12.874.636 1.313 1.145 2.401 1.113 2.433-.223.193-21.267 6.406-27.88 8.231-1.97.544-3.686 1.024-3.814 1.056-.222.064-.254.032-.159-.512.731-4.708 4.292-10.856 9.25-16.044 3.307-3.459 5.945-5.476 10.46-8.07 3.242-1.857 8.233-4.643 8.614-4.772 0-.032.032-.032.064-.032Zm49.591 8.935c.032-.032.794.385 1.716.929 6.803 3.971 16.276 7.654 24.35 9.543l.732.16-1.018.576c-4.227 2.37-18.119 8.198-32.329 13.547-2.066.768-4.1 1.537-4.482 1.697-.382.16-.732.256-.732.224s.573-1.153 1.304-2.53c3.973-7.493 7.979-16.62 10.013-22.961.255-.608.414-1.153.446-1.185Zm-5.055 1.665c.033.033-.222.705-.54 1.474-2.765 6.757-6.39 14.123-11.03 22.384-1.177 2.114-2.162 3.812-2.195 3.812-.031 0-.985-.577-2.13-1.282-6.739-4.163-12.715-9.287-16.625-14.25l-.572-.705 2.892-.801c10.364-2.849 19.169-5.924 27.911-9.702 1.24-.513 2.258-.93 2.289-.93Zm31.408 11.049s.032.032 0 0c.032.736-1.589 7.333-2.925 12.104-1.112 4.003-2.066 7.142-3.814 12.682-.763 2.434-1.43 4.451-1.463 4.451-.031 0-.222-.032-.413-.095-9.441-1.73-17.897-4.132-25.844-7.334-2.226-.897-5.405-2.338-5.595-2.498-.063-.065 1.844-.961 4.26-2.018 14.464-6.372 29.468-13.61 34.618-16.716.604-.384 1.081-.576 1.176-.576Zm-72.51 2.498c.063.064-3.974 5.924-9.633 13.898-1.97 2.786-4.26 6.052-5.118 7.269a128.074 128.074 0 0 0-2.893 4.292l-1.335 2.081-1.43-1.217c-1.686-1.409-4.61-4.419-5.913-6.084-2.735-3.426-4.578-7.045-5.31-10.343-.349-1.538-.349-2.307-.031-2.402.476-.128 8.964-2.146 16.912-4.004 4.419-1.024 9.536-2.241 11.38-2.689 1.844-.449 3.339-.801 3.37-.801Zm4.068 1.569 1.017 1.153c4.578 5.156 9.251 8.967 14.91 12.297 1.017.577 1.78 1.089 1.716 1.121-.222.16-19.646 7.109-28.642 10.247-5.054 1.794-9.219 3.235-9.25 3.235-.032 0-.318-.192-.637-.417l-.571-.416.921-1.345c2.988-4.355 6.74-9.127 14.91-19.054l5.626-6.821Zm25.368 18.285c.031-.031 1.43.481 3.147 1.122 4.133 1.569 7.406 2.561 11.794 3.682 5.404 1.377 13.224 2.722 17.834 3.107.699.063 1.08.128.953.224-.223.128-4.895 1.697-8.329 2.786-5.468 1.729-22.157 6.693-35.762 10.632a371.276 371.276 0 0 1-4.8 1.377c-.318.064-1.368-.225-1.368-.353 0-.063.763-1.056 1.685-2.145 4.578-5.508 9.124-11.657 12.907-17.485 1.049-1.602 1.94-2.915 1.94-2.947Zm-5.595.161c.031.032-2.225 3.682-6.167 9.959-1.685 2.658-3.56 5.668-4.228 6.725-.636 1.025-1.59 2.626-2.13 3.523l-.922 1.633-.477-.128c-1.144-.32-9.187-3.171-11.317-4.035-2.639-1.057-5.372-2.338-7.407-3.427-2.543-1.377-5.721-3.427-5.467-3.49.063-.032 4.418-1.218 9.663-2.658 13.924-3.812 21.649-6.021 26.704-7.622.922-.288 1.716-.513 1.748-.48Zm39.577 9.35h.032c.127.321-5.022 14.732-6.899 19.279-.412 1.024-.571 1.281-.794 1.248-.54-.031-8.01-1.088-12.557-1.761-7.915-1.216-21.203-3.555-24.54-4.323l-.763-.16 4.736-1.089c10.172-2.306 15.068-3.555 20.027-5.092 6.262-1.921 12.462-4.323 18.724-7.269.985-.448 1.812-.801 2.034-.833Z"/><path fill="url(#b)" d="M106.907 19.603c-.699-.096-11.984 4.003-19.264 6.98-9.823 4.036-17.452 7.88-22.157 11.21-1.748 1.249-3.942 3.458-4.291 4.322-.127.32-.191.705-.191 1.09l4.26 4.066 10.14 3.267 24.128 4.355 27.593 4.772.286-2.402c-.095 0-.159-.032-.253-.032l-3.625-.577-.731-1.312c-3.751-6.661-7.884-14.924-10.3-20.496-1.875-4.323-3.655-9.318-4.641-12.905-.54-2.178-.604-2.306-.953-2.338h-.001Zm-.509 1.633h.033c.031.032.158.93.286 1.985.54 4.484 1.526 8.807 3.083 13.483 1.176 3.522 1.176 3.33-.19 2.914-3.243-.897-17.77-3.427-28.293-4.9-1.684-.224-3.115-.448-3.115-.48-.127-.128 7.597-4.195 10.999-5.796 4.355-2.018 16.307-7.046 17.197-7.206ZM75.754 35.583l1.24.416c6.739 2.306 23.682 5.572 33.028 6.34 1.049.097 1.94.193 1.971.193.032.032-.858.513-2.003 1.057-4.513 2.273-9.473 5.06-12.906 7.205-1.017.64-1.94 1.153-2.066 1.153-.127 0-.794-.128-1.494-.224l-1.271-.192-3.179-3.139a1335.107 1335.107 0 0 0-11.667-11.304l-1.653-1.505Zm-1.272.992 4.483 5.637c2.447 3.106 4.927 6.148 5.468 6.82.54.673.985 1.218.953 1.25-.127.096-6.484-1.153-9.854-1.921-3.465-.801-4.896-1.186-7.026-1.858l-1.748-.576v-.45c.031-2.145 2.734-5.347 7.311-8.613l.413-.289Zm38.084 7.686c.127 0 .286.288.667 1.153 1.081 2.402 4.451 8.87 5.277 10.12.255.416.699.448-3.783-.288-10.776-1.762-14.241-2.338-14.241-2.402 0-.032.318-.256.731-.48 3.338-1.858 6.707-4.228 9.696-6.758.731-.608 1.399-1.184 1.525-1.28.032-.065.096-.097.128-.065Z"/><path fill="url(#c)" d="M61.42 41.667s-.698 1.121-.03 2.787c.413 1.024 1.62 2.273 2.987 3.554 0 0 14.147 13.898 15.863 15.884 7.82 9.095 11.222 18.061 11.54 30.423.19 7.942-1.304 14.923-5.023 23.025-6.612 14.539-20.568 30.583-42.089 48.388l3.148-1.057c2.034-1.537 4.8-3.17 11.284-6.757 14.973-8.262 31.821-15.852 52.484-23.666 29.754-11.272 78.678-24.466 106.525-28.757l2.893-.449-.445-.704c-2.543-3.971-4.292-6.437-6.39-9.063-6.103-7.622-13.51-13.802-22.57-18.926-12.461-7.013-28.579-12.489-48.987-16.556-3.846-.769-12.302-2.242-19.169-3.299-14.559-2.273-23.969-3.842-34.332-5.636-3.719-.64-9.282-1.6-12.97-2.401-1.907-.417-5.563-1.282-8.424-2.274-2.288-.897-5.595-1.794-6.294-4.516Zm8.203 8.006c.031-.031.54.16 1.208.384a82.01 82.01 0 0 0 4.61 1.41c1.395.386 2.793.76 4.196 1.12 1.907.48 3.496.929 3.528.929.223.224 3.433 10.567 4.514 14.538.413 1.506.731 2.787.7 2.787-.033.032-.382-.513-.795-1.25-3.72-6.596-9.6-13.29-16.404-18.67-.89-.64-1.557-1.216-1.557-1.248Zm15.64 4.355c.16 0 .858.097 1.716.289 5.405 1.216 15.1 3.074 21.299 4.13 1.049.16 1.876.353 1.876.417s-.382.288-.859.545c-1.048.544-5.277 3.073-6.675 4.034-3.529 2.37-6.708 4.932-8.996 7.238-.922.928-1.717 1.697-1.717 1.697s-.19-.544-.35-1.217c-1.144-4.451-3.529-11.049-5.69-15.692-.35-.736-.636-1.409-.636-1.473 0 .064 0 .032.032.032Zm27.529 5.284c.191.064.509 1.153 1.144 3.555 1.177 4.644 1.717 9.831 1.527 14.667-.064 1.345-.128 2.594-.192 2.754l-.095.32-1.653-.544c-3.401-1.089-8.932-2.722-13.668-4.067-2.703-.737-4.896-1.41-4.896-1.473 0-.193 3.942-4.163 5.627-5.668 3.21-2.851 11.92-9.64 12.206-9.544Zm2.194.32c.095-.095 13.16 2.178 19.105 3.331 4.419.864 10.84 2.21 11.221 2.37.191.064-.477.448-2.607 1.409-8.392 3.81-14.623 7.237-20.821 11.4-1.621 1.09-2.988 1.986-3.02 1.986-.032 0-.063-.929-.063-2.05 0-6.084-1.208-12.233-3.434-17.42-.222-.513-.413-.993-.381-1.026Zm33.791 6.726c.096.096-.318 2.69-.699 4.227-1.144 4.771-4.228 11.85-8.01 18.51-.668 1.185-1.272 2.145-1.336 2.177-.063.032-.922-.448-1.907-1.025-3.688-2.177-7.884-4.227-12.462-6.148-1.271-.545-2.384-.993-2.415-1.057-.223-.192 10.013-7.013 15.417-10.28 4.292-2.626 11.285-6.533 11.412-6.404Zm2.416.384c.286 0 6.072 1.601 9.092 2.498 7.47 2.242 16.053 5.412 21.648 7.974l2.32 1.057-1.62.384c-13.669 3.17-25.368 6.821-36.653 11.433-.922.384-1.749.704-1.812.704-.064 0 .254-.736.668-1.633 3.401-7.27 5.595-14.86 6.134-21.329.033-.608.128-1.088.223-1.088ZM93.592 80.064c.095-.096 4.514.96 6.898 1.633 3.624 1.025 11.316 3.618 11.316 3.81 0 .033-.858.77-1.874 1.666-4.165 3.49-8.171 7.173-12.971 11.849-1.43 1.377-2.638 2.498-2.701 2.498-.064 0-.096-.193-.064-.449.73-5.38.572-12.297-.445-19.31-.096-.897-.191-1.665-.16-1.697Zm92.856.096c.062.064-2.035 3.394-3.37 5.284-1.907 2.754-4.706 6.405-11.032 14.41a2153.329 2153.329 0 0 0-8.328 10.601c-1.272 1.601-2.32 2.945-2.353 2.945-.031 0-.444-.576-.889-1.28-3.561-5.38-7.821-10.088-12.875-14.315-.954-.8-2.002-1.665-2.352-1.922-.35-.256-.636-.512-.636-.544 0-.096 5.403-2.434 9.505-4.099 7.184-2.946 16.974-6.469 24.318-8.742 3.847-1.217 7.948-2.402 8.012-2.338Zm2.447.64c.127-.031.89.353 1.812.897 7.725 4.451 15.29 10.183 21.267 16.076 1.685 1.666 5.849 6.021 5.785 6.053 0 0-1.462.128-3.178.256-13.384 1.025-30.517 3.874-46.984 7.877-1.113.256-2.098.48-2.162.48-.063 0 1.176-1.248 2.734-2.753 9.664-9.383 14.083-15.308 19.296-25.876.731-1.569 1.367-2.913 1.43-3.01-.032 0-.032 0 0 0Zm-70.794 7.302c.445.096 4.578 2.05 7.693 3.619 2.861 1.44 7.153 3.746 7.375 3.938.032.032-1.494.833-3.369 1.762-5.977 3.01-11.095 5.86-16.436 9.126-1.525.929-2.797 1.698-2.829 1.698-.127 0-.095-.129.763-1.698 2.861-5.251 5.15-11.528 6.454-17.645.126-.48.254-.8.349-.8Zm-4.133.768c.096.097-.985 4.035-1.652 6.181-1.304 4.067-3.497 9.159-5.627 13.002-.509.896-1.272 2.209-1.685 2.945l-.795 1.281-1.78-1.728c-2.066-2.018-3.751-3.267-5.912-4.388-.86-.448-1.527-.833-1.527-.896 0-.257 5.436-5.22 9.601-8.807 2.988-2.594 9.282-7.686 9.377-7.59Zm25.273 10.472 1.558 1.025c3.559 2.338 7.755 5.444 10.967 8.166 1.811 1.505 5.308 4.676 6.008 5.444l.381.417-2.575.736c-14.559 4.067-25.812 7.686-38.941 12.553-1.463.545-2.703.993-2.798.993-.19 0-.35.16 2.925-2.882 8.392-7.782 15.831-16.365 21.362-24.723l1.113-1.729Zm-6.644 1.666c.063.063-4.292 6.244-6.899 9.735-3.115 4.163-8.646 11.144-12.461 15.691-1.589 1.89-2.956 3.459-3.02 3.491-.095.032-.127-.449-.127-1.185 0-3.875-.985-8.006-2.702-11.529-.731-1.473-.858-1.825-.699-1.985.604-.545 9.854-5.861 15.703-9.031 3.942-2.113 10.109-5.252 10.205-5.187Zm-40.182 9.927c.096 0 .827.384 1.654.833a34.866 34.866 0 0 1 5.467 3.714c.064.064-.763.737-1.844 1.537a298.67 298.67 0 0 0-10.267 7.814c-2.798 2.242-2.893 2.306-2.575 1.826 2.098-3.235 3.147-5.06 4.26-7.398a59.83 59.83 0 0 0 2.67-6.693c.254-.928.572-1.633.635-1.633Zm10.714 8.454c.158-.032.349.256 1.207 1.537 1.812 2.722 3.211 6.373 3.561 9.319l.063.641-4.354 1.697c-7.79 3.042-14.973 6.053-19.837 8.294a349.359 349.359 0 0 0-5.309 2.563c-1.557.8-2.829 1.408-2.829 1.376 0-.032.985-.768 2.193-1.665 9.506-6.949 17.739-14.571 23.906-22.193.667-.8 1.272-1.537 1.335-1.569h.064Zm-4.928 1.217c.128.128-3.496 4.259-5.976 6.789-6.135 6.309-12.207 11.241-19.741 16.045-.954.608-1.812 1.152-1.907 1.216-.223.128.063-.192 3.37-3.811 2.097-2.274 3.687-4.195 5.499-6.564 1.207-1.569 1.43-1.794 3.179-3.043 4.673-3.395 15.45-10.76 15.576-10.632Z"/><defs><linearGradient id="a" x1="60.77" x2="76.036" y1="210.234" y2="201.28" gradientUnits="userSpaceOnUse"><stop stop-color="#909CA9"/><stop offset="1" stop-color="#EDEDEE"/></linearGradient><linearGradient id="b" x1="61.115" x2="73.352" y1="39.571" y2="39.571" gradientUnits="userSpaceOnUse"><stop stop-color="#939FAB"/><stop offset="1" stop-color="#DCDEE1"/></linearGradient><radialGradient id="c" cx="0" cy="0" r="1" gradientTransform="rotate(-171.395 65.048 43.431) scale(15.7789 31.7884)" gradientUnits="userSpaceOnUse"><stop stop-color="#EE352C"/><stop offset="1" stop-color="#A91D22"/></radialGradient></defs></svg>