<svg version="1.1" id="Layer_1" xmlns="http://www.w3.org/2000/svg" xmlns:xlink="http://www.w3.org/1999/xlink" x="0px" y="0px"
	 width="100%" viewBox="0 0 1024 1024" enable-background="new 0 0 1024 1024" xml:space="preserve">
<path fill="#000000" opacity="1.000000" stroke="none" 
	d="
M255.999207,565.234863 
	C233.671021,565.235107 211.841919,565.329163 190.014999,565.151794 
	C185.897537,565.118347 183.678482,566.302795 182.342468,570.358765 
	C179.271210,579.682800 175.791855,588.874207 172.392090,598.087708 
	C168.670990,608.172058 161.751831,612.017639 148.873856,611.304077 
	C139.962479,610.810303 133.564789,605.174866 131.500809,595.514709 
	C129.731735,587.234863 128.016479,578.916809 126.916557,570.531799 
	C126.331688,566.073120 124.327209,565.046692 120.359032,565.194702 
	C116.057198,565.355164 111.693398,565.691345 107.477242,564.236206 
	C100.639046,561.875977 96.060135,557.372681 94.730499,550.168518 
	C91.353622,531.872131 88.075111,513.556946 84.893997,495.225525 
	C83.280342,485.926666 87.062477,478.222900 95.579742,474.172455 
	C133.182388,456.290283 170.857101,438.559601 208.511871,420.787109 
	C211.625900,419.317322 214.803650,418.244202 217.794205,421.042603 
	C221.607620,424.610901 220.497864,429.560944 214.969604,432.249603 
	C202.991531,438.075043 190.908066,443.683838 178.866318,449.378265 
	C161.857147,457.421844 144.910080,465.601776 127.791130,473.404572 
	C123.639702,475.296783 123.779770,478.027771 124.397240,481.456451 
	C128.193558,502.536499 132.009735,523.613037 135.756454,544.701904 
	C138.370224,559.413879 140.894119,574.141907 143.437729,588.866333 
	C144.814774,596.837769 146.998352,598.613586 154.220947,597.861206 
	C156.816132,597.590820 158.770737,596.485413 159.660629,594.124207 
	C163.108658,584.975586 166.419113,575.775146 169.864426,566.365662 
	C165.726456,564.474792 161.883209,565.468994 158.176773,565.290283 
	C155.609711,565.166443 153.166519,564.867432 151.236099,563.020508 
	C147.811478,559.744202 149.028625,554.274048 153.489899,552.470093 
	C155.741898,551.559509 158.073334,551.727966 160.393875,551.728455 
	C196.219009,551.736023 232.044159,551.766235 267.869293,551.773315 
	C276.511475,551.775024 278.069702,550.155090 276.608276,541.780762 
	C270.895874,509.046722 265.049408,476.336090 259.256134,443.616180 
	C258.676788,440.344116 258.158966,437.060669 257.541443,433.795990 
	C256.981628,430.836212 255.691742,428.278534 252.429031,427.738007 
	C249.516953,427.255585 247.945709,429.342743 246.532822,431.513977 
	C231.724731,454.269592 216.904373,477.017242 202.083176,499.764343 
	C194.144089,511.948944 185.717010,514.255188 172.802765,507.785400 
	C165.508499,504.131165 158.205154,500.494751 150.928345,496.806061 
	C145.071030,493.836884 143.308731,490.409576 145.468765,486.382721 
	C147.596130,482.416779 151.310455,481.936157 157.198715,484.885895 
	C164.645859,488.616547 172.070755,492.391998 179.535980,496.085999 
	C185.103836,498.841125 186.852768,498.403107 190.284653,493.162689 
	C205.343552,470.168152 220.304855,447.109558 235.397507,424.137238 
	C243.036713,412.509644 257.928619,411.329041 266.364532,421.464355 
	C269.879883,425.687836 270.362579,430.901703 271.253479,435.934967 
	C277.476227,471.091675 283.545013,506.275635 289.784363,541.429382 
	C292.139343,554.697876 284.049408,564.883118 270.496490,565.214111 
	C265.833282,565.328064 261.164978,565.233765 255.999207,565.234863 
M108.848282,549.667603 
	C113.250702,553.365723 118.131332,551.323364 123.515640,551.532410 
	C119.346817,528.028687 115.317429,505.311066 111.338371,482.877228 
	C108.601135,482.445892 107.155411,483.345581 105.665581,484.012268 
	C97.692589,487.580078 96.946396,489.173584 98.709785,497.867310 
	C99.696693,502.732941 100.407112,507.654633 101.391426,512.520813 
	C103.848633,524.668640 105.035210,537.059204 108.848282,549.667603 
z"/>
<path fill="#000000" opacity="1.000000" stroke="none" 
	d="
M557.711670,588.336853 
	C556.254517,577.689331 557.212830,567.367126 556.911926,557.065552 
	C556.858459,555.234802 556.917786,553.400208 556.842651,551.570801 
	C556.547424,544.384216 552.715088,540.410034 546.145752,540.431763 
	C539.567200,540.453552 534.579468,544.857910 534.395020,551.562378 
	C534.101990,562.213623 534.063416,572.881653 534.311707,583.533386 
	C534.420654,588.205627 532.721985,589.558899 528.223755,589.424500 
	C517.582031,589.106445 518.809143,590.091919 518.753113,580.018921 
	C518.701233,570.692749 518.795654,561.365479 518.703552,552.039917 
	C518.631165,544.712463 515.019043,540.724976 508.462738,540.443787 
	C501.654449,540.151794 496.449249,544.449341 496.194214,551.471497 
	C495.807617,562.116211 495.848328,572.784546 496.020538,583.437805 
	C496.092957,587.917786 494.694702,589.616943 490.002380,589.434448 
	C479.405334,589.022400 480.731262,590.291260 480.679108,579.956848 
	C480.604279,565.134888 480.644348,550.312256 480.661194,535.489868 
	C480.668610,528.956787 480.713989,528.940613 487.457947,528.870117 
	C494.788300,528.793457 494.788300,528.793518 496.882599,534.525818 
	C509.690735,524.027222 522.870850,526.512268 530.974426,536.259399 
	C533.567444,535.803345 534.836792,533.332092 536.948547,532.109436 
	C544.725647,527.606873 552.789307,526.003235 561.227661,529.998474 
	C569.359680,533.848633 571.819763,541.355103 572.135803,549.408386 
	C572.599060,561.214722 572.221497,573.052673 572.294128,584.876587 
	C572.313293,587.992310 571.155823,589.579102 567.892944,589.323975 
	C564.600525,589.066589 561.237793,589.916931 557.711670,588.336853 
z"/>
<path fill="#000000" opacity="1.000000" stroke="none" 
	d="
M810.337830,568.000061 
	C810.335632,574.666443 810.563904,580.843628 810.276306,586.996643 
	C809.846985,596.180420 805.770142,603.453186 797.261597,607.350830 
	C786.010681,612.504700 774.400635,612.835999 762.817078,608.249878 
	C760.833252,607.464417 758.884216,606.327637 757.263489,604.948486 
	C754.645874,602.720825 750.699463,600.239685 751.887085,596.678894 
	C752.947998,593.498291 757.627441,593.264587 760.771484,591.871887 
	C762.566772,591.076721 763.394714,592.649048 764.420166,593.733643 
	C770.261536,599.911926 780.869629,601.573059 788.330872,597.523071 
	C794.145264,594.367004 796.145691,588.511230 794.337830,579.137390 
	C787.201538,585.044922 779.556091,588.715027 770.094788,586.513550 
	C764.000977,585.095520 758.916382,582.317200 755.114075,577.319458 
	C746.017456,565.362976 746.778564,546.842834 756.791931,536.213013 
	C766.749634,525.642273 779.897644,525.026855 794.268921,534.521606 
	C795.620850,532.855835 794.430725,529.433411 797.639343,529.119385 
	C801.439636,528.747620 805.346802,528.212524 809.017334,529.520264 
	C810.886353,530.186096 810.307922,532.401428 810.313721,534.001404 
	C810.354370,545.167542 810.336609,556.333801 810.337830,568.000061 
M783.008972,540.199707 
	C773.682251,539.503235 768.771790,542.083618 766.028503,549.122498 
	C762.604248,557.908813 764.411621,566.931030 770.594666,572.009033 
	C772.029236,573.187195 773.567993,574.148499 775.395813,574.570374 
	C784.925110,576.769714 792.665466,572.028015 795.134399,562.484314 
	C797.853088,551.974976 793.282410,542.988098 783.008972,540.199707 
z"/>
<path fill="#000000" opacity="1.000000" stroke="none" 
	d="
M372.001160,576.757202 
	C381.341034,576.938904 387.821259,572.752502 391.930420,565.175049 
	C393.872070,561.594604 395.661102,561.068604 399.325195,562.639404 
	C408.569977,566.602722 409.011353,567.755371 402.905121,575.925232 
	C393.485535,588.528259 376.471710,593.761475 358.724121,589.045654 
	C343.265228,584.938110 334.702881,574.274231 331.751678,558.872803 
	C329.057709,544.813721 331.123322,531.693604 340.234497,520.224243 
	C356.254242,500.058228 390.543335,501.628967 403.970764,523.091248 
	C407.135651,528.149963 406.939117,528.878357 401.637848,531.096558 
	C399.043671,532.182007 396.409210,533.171204 394.055237,534.100464 
	C392.135254,533.302124 391.768219,531.721680 390.981842,530.489929 
	C386.085297,522.820251 379.118134,518.822693 370.019775,519.534851 
	C360.218658,520.302063 353.744415,525.818787 350.604309,535.049255 
	C347.689911,543.616455 347.338074,552.294128 350.298737,560.980835 
	C353.695831,570.948120 360.970428,576.364990 372.001160,576.757202 
z"/>
<path fill="#000000" opacity="1.000000" stroke="none" 
	d="
M626.310059,528.266541 
	C636.038696,530.114258 642.414673,535.588867 645.708435,544.280029 
	C649.761353,554.974731 649.832642,565.796875 644.662903,576.219421 
	C637.693726,590.269714 620.436523,594.973694 607.130249,586.607117 
	C605.452393,585.552063 603.889648,584.313965 601.320312,582.480408 
	C601.320312,590.061096 601.409851,596.929260 601.266785,603.792542 
	C601.222839,605.899048 602.440491,609.132324 599.132385,609.603699 
	C595.117676,610.175720 590.794800,611.128784 587.011414,608.806763 
	C585.551147,607.910522 585.990906,605.757019 585.989929,604.112915 
	C585.976135,581.142578 586.057800,558.171814 585.921387,535.202271 
	C585.893372,530.486694 587.601257,528.344421 592.360718,528.878662 
	C593.017761,528.952454 593.696472,528.935364 594.356018,528.869141 
	C599.054993,528.397766 602.467163,529.369446 601.134216,536.414246 
	C608.939636,530.250488 616.595337,526.382874 626.310059,528.266541 
M601.133179,560.401062 
	C601.200562,561.727966 601.194702,563.063354 601.347290,564.380371 
	C602.292297,572.534302 608.012085,578.021606 616.136353,578.613892 
	C623.995361,579.186890 629.642883,575.118225 631.876160,567.046631 
	C633.319031,561.831482 633.234009,556.540100 631.813477,551.317627 
	C629.951904,544.474121 624.760681,540.392700 617.735535,540.120239 
	C610.010620,539.820679 604.943604,543.167419 602.346741,550.157227 
	C601.218689,553.193726 601.212402,556.335632 601.133179,560.401062 
z"/>
<path fill="#000000" opacity="1.000000" stroke="none" 
	d="
M708.291870,562.002258 
	C708.278137,569.825134 708.146118,577.150940 708.301941,584.470764 
	C708.380249,588.148621 706.934082,589.826111 703.307068,589.299500 
	C699.288208,588.716064 693.942139,591.760071 692.168640,584.774475 
	C684.570679,590.482910 676.403137,591.703918 667.777344,589.453308 
	C660.123840,587.456482 655.559998,581.800598 654.875549,574.118652 
	C654.240479,566.991211 658.455078,560.083435 665.279297,556.861694 
	C671.941223,553.716553 679.175171,553.876343 686.242615,552.998047 
	C688.587708,552.706604 692.156250,554.412109 692.652283,550.280945 
	C693.109436,546.474609 692.146057,542.977722 688.436096,540.868896 
	C683.312988,537.956726 675.724609,539.351562 671.531494,543.989746 
	C668.702087,547.119507 660.756042,546.480042 658.476196,542.913879 
	C657.308167,541.086731 658.591736,539.682983 659.554565,538.421326 
	C666.848816,528.862427 677.079529,526.674805 688.116272,528.218018 
	C702.252380,530.194641 708.217041,537.688049 708.290649,552.015686 
	C708.306885,555.177979 708.292603,558.340393 708.291870,562.002258 
M692.892700,566.605835 
	C692.770325,565.272766 692.721497,563.558411 691.110901,563.447693 
	C684.873169,563.018738 678.469727,562.068115 672.914429,566.119995 
	C670.164429,568.125854 669.905396,571.148804 670.432678,574.213928 
	C670.916138,577.024536 673.040649,578.204773 675.570312,578.971130 
	C684.286743,581.611938 692.150208,576.412109 692.892700,566.605835 
z"/>
<path fill="#000000" opacity="1.000000" stroke="none" 
	d="
M442.522003,539.450745 
	C436.651062,539.282837 432.058807,540.892517 428.699738,545.573242 
	C427.107239,547.792297 421.189117,546.624939 417.651947,543.644104 
	C414.858124,541.289734 417.227905,539.382996 418.436768,537.690979 
	C426.916412,525.822815 450.954956,524.128662 461.109650,534.678467 
	C464.588959,538.293152 466.311310,542.770874 466.330231,547.806763 
	C466.375885,559.960449 466.236481,572.116455 466.440247,584.267090 
	C466.506989,588.248535 465.066620,589.774109 461.197449,589.353638 
	C459.716370,589.192627 458.192535,589.208374 456.707214,589.347046 
	C453.246490,589.670166 451.158691,588.538513 451.711151,583.781311 
	C444.043152,590.379517 435.733673,591.639160 426.960388,589.698975 
	C419.031128,587.945435 414.162170,582.412964 413.672913,575.430603 
	C412.977783,565.508911 415.962311,560.386841 424.239868,556.628296 
	C430.799957,553.649597 437.838135,553.804321 444.745239,552.982605 
	C447.040070,552.709595 450.642822,554.259644 451.237366,551.109680 
	C451.902557,547.585571 450.900818,543.718872 447.493195,541.397400 
	C446.156586,540.486877 444.454102,540.113403 442.522003,539.450745 
M439.851013,579.236145 
	C444.973541,578.320068 449.402802,576.564514 451.075470,570.900574 
	C452.902344,564.714417 451.756836,563.033264 445.407562,563.109070 
	C443.421631,563.132812 441.422333,563.126648 439.455780,563.359375 
	C437.665436,563.571289 435.825500,563.867981 434.158142,564.515442 
	C430.190338,566.056213 427.918854,568.963562 428.595795,573.362915 
	C429.248566,577.605164 432.768921,579.506653 439.851013,579.236145 
z"/>
<path fill="#000000" opacity="1.000000" stroke="none" 
	d="
M833.897339,528.856262 
	C839.281494,528.139893 840.942810,530.678589 840.250305,536.281982 
	C844.239685,532.530029 847.834167,529.990601 852.234741,528.785522 
	C868.502869,524.330872 879.920959,532.699951 880.991272,550.760498 
	C881.669312,562.202759 881.109802,573.716919 881.161499,585.198608 
	C881.174622,588.114929 879.953979,589.379028 876.966064,589.356934 
	C863.397034,589.256897 865.855347,590.508667 865.675720,578.939148 
	C865.546631,570.620483 865.716064,562.297546 865.628662,553.977844 
	C865.534851,545.052979 861.495911,540.489380 853.835083,540.417297 
	C845.610352,540.339905 840.418701,545.628662 840.338806,554.381409 
	C840.249268,564.198914 840.178772,574.020264 840.363831,583.834961 
	C840.438782,587.808960 839.274353,589.505249 835.010132,589.408386 
	C823.348999,589.143677 824.925049,590.250305 824.863525,579.197693 
	C824.785767,565.219482 824.820312,551.240540 824.832703,537.261902 
	C824.840149,528.911804 824.862793,528.911804 833.897339,528.856262 
z"/>
<path fill="#000000" opacity="1.000000" stroke="none" 
	d="
M892.274719,548.518311 
	C892.178772,534.858826 902.297913,526.518738 917.209717,527.809265 
	C925.023010,528.485535 932.220520,530.800171 937.208862,537.519104 
	C939.100952,540.067688 939.043823,541.688782 935.782959,543.215393 
	C931.492126,545.224243 928.021423,546.549316 924.079102,542.056274 
	C921.059143,538.614441 916.205383,538.792175 911.849243,539.562561 
	C909.031189,540.060913 906.916992,541.926208 906.582825,544.869080 
	C906.252625,547.775757 908.342834,549.592285 910.758789,550.421265 
	C914.355835,551.655396 918.124695,552.390198 921.823120,553.326721 
	C924.237793,553.938171 926.721680,554.346863 929.062134,555.167175 
	C935.125854,557.292236 939.511597,561.132874 940.261047,567.871582 
	C941.099976,575.414795 939.626770,582.128967 932.585449,586.541687 
	C922.834717,592.652344 905.076355,591.713379 896.174438,584.538818 
	C895.657288,584.121948 895.109131,583.714783 894.692261,583.207092 
	C892.925293,581.055176 889.832031,578.578003 891.323486,576.026794 
	C893.148193,572.905823 897.369629,572.246338 900.923340,571.494751 
	C902.448242,571.172180 902.923218,572.986877 903.768188,573.951172 
	C907.969727,578.745544 915.017639,580.658813 921.035583,578.601868 
	C923.508850,577.756531 925.565674,576.522156 925.786804,573.502625 
	C926.013672,570.405457 924.521790,568.404419 921.857666,567.209106 
	C917.120850,565.083862 911.975891,564.403259 906.991394,563.150696 
	C899.381409,561.238220 893.435181,557.569946 892.274719,548.518311 
z"/>
<path fill="#000000" opacity="1.000000" stroke="none" 
	d="
M340.242432,486.339966 
	C334.485260,485.805542 333.575012,484.238129 336.535217,479.821198 
	C343.019012,470.146912 349.717773,460.616852 356.316833,451.019684 
	C357.339264,449.532745 358.298340,448.002289 359.762634,445.764771 
	C353.789429,444.425812 348.365387,445.360443 343.038300,445.045166 
	C341.119659,444.931580 338.907166,445.461487 337.891724,443.024597 
	C336.443634,439.549408 338.153229,436.691101 341.928070,436.647522 
	C350.414948,436.549500 358.904694,436.539764 367.390930,436.660126 
	C369.588531,436.691284 372.489746,435.554962 373.831329,437.916931 
	C375.403839,440.685486 372.988098,442.928406 371.553619,445.085999 
	C365.749664,453.815765 359.840088,462.475372 354.037445,471.206024 
	C352.873138,472.957764 351.306671,474.550842 350.957428,477.715271 
	C356.837982,477.715271 362.575928,477.863647 368.301605,477.662537 
	C372.049164,477.530884 373.906982,478.867432 373.851807,482.738861 
	C373.791565,486.961426 370.750824,486.294983 368.171387,486.306671 
	C359.017822,486.348236 349.863983,486.334442 340.242432,486.339966 
z"/>
<path fill="#000000" opacity="1.000000" stroke="none" 
	d="
M433.015747,459.067139 
	C430.760559,461.751892 430.994415,464.667542 430.919586,467.470703 
	C430.799591,471.967529 430.834442,476.468231 430.779480,480.967010 
	C430.738281,484.340240 429.916779,486.535583 425.633972,486.424988 
	C421.148773,486.309174 420.990173,483.782806 421.000549,480.520264 
	C421.044525,466.687836 421.065125,452.854950 420.994171,439.022736 
	C420.975555,435.390106 421.604645,432.964264 426.142700,433.023010 
	C430.782990,433.083069 431.147491,435.742065 431.056580,439.257721 
	C430.950714,443.349976 431.031860,447.447113 431.031860,452.197327 
	C436.130707,449.960999 440.327606,447.861328 445.200348,449.028564 
	C451.456696,450.527222 455.095123,454.746613 455.287750,461.557556 
	C455.480835,468.384918 455.217499,475.224579 455.371857,482.053925 
	C455.447571,485.404205 453.962524,486.345184 450.862457,486.346313 
	C447.672302,486.347443 445.733582,485.540588 445.784515,481.918304 
	C445.859528,476.586761 445.786041,471.252502 445.727631,465.919922 
	C445.634796,457.448334 441.038727,454.819183 433.015747,459.067139 
z"/>
<path fill="#000000" opacity="1.000000" stroke="none" 
	d="
M737.406494,555.000122 
	C737.435059,564.986633 737.338806,574.475891 737.550537,583.958252 
	C737.639709,587.954041 736.415039,589.544495 732.167419,589.407593 
	C721.311646,589.057800 722.736389,590.185425 722.677979,580.104248 
	C722.590210,564.958740 722.796326,549.810120 722.562561,534.667725 
	C722.494019,530.231201 724.070312,528.558533 728.325378,528.965820 
	C729.644165,529.092041 730.997498,529.081177 732.315857,528.946350 
	C736.142639,528.555115 737.673523,529.968201 737.488342,534.031921 
	C737.178040,540.841797 737.405151,547.676086 737.406494,555.000122 
z"/>
<path fill="#000000" opacity="1.000000" stroke="none" 
	d="
M385.093262,484.164612 
	C376.465912,477.865631 373.709106,469.599487 377.070526,460.926331 
	C380.178589,452.906799 389.981323,447.521484 399.062744,448.844452 
	C408.641846,450.239899 414.822723,456.643433 415.993744,466.385254 
	C417.623596,479.944153 403.231384,490.422058 389.067322,485.956940 
	C387.809052,485.560303 386.637573,484.888489 385.093262,484.164612 
M403.017792,459.529205 
	C397.379578,455.154785 392.083466,455.382080 388.687256,460.144257 
	C384.690216,465.748871 386.043732,474.848450 391.342499,477.995300 
	C395.897919,480.700684 401.771606,479.158661 404.174194,474.383392 
	C406.591614,469.578674 406.341278,464.748596 403.017792,459.529205 
z"/>
<path fill="#000000" opacity="1.000000" stroke="none" 
	d="
M500.178528,465.371613 
	C500.359314,478.158539 493.447052,485.842133 481.175079,486.987976 
	C471.644958,487.877808 462.471893,481.118011 460.566284,471.800934 
	C458.473450,461.568512 464.407013,452.351013 474.929016,449.489227 
	C485.396271,446.642395 496.025055,451.919739 499.218536,461.569611 
	C499.583710,462.673157 499.822571,463.818481 500.178528,465.371613 
M485.959595,477.507782 
	C490.777710,473.434296 490.549316,468.061249 489.134064,462.826355 
	C487.543579,456.943329 480.342072,454.475616 475.380463,457.659302 
	C470.903503,460.531982 469.255585,468.875916 472.073181,474.404999 
	C474.428925,479.027710 479.480621,480.370453 485.959595,477.507782 
z"/>
<path fill="#000000" opacity="1.000000" stroke="none" 
	d="
M738.365295,509.919983 
	C739.297119,515.886719 737.011658,519.638916 732.046997,520.831299 
	C728.033630,521.795227 723.226990,519.223511 721.965210,515.437256 
	C720.497131,511.031982 722.211304,506.887390 726.297668,504.961761 
	C731.021790,502.735657 735.024780,504.268860 738.365295,509.919983 
z"/>
</svg>
