<?xml version="1.0" encoding="UTF-8"?>
<svg version="1.1" xmlns="http://www.w3.org/2000/svg" width="514" height="514">
<path d="M0 0 C169.62 0 339.24 0 514 0 C514 0.33 514 0.66 514 1 C434.8 1.33 355.6 1.66 274 2 C279.28 3.65 284.56 5.3 290 7 C298.12386255 10.95214935 305.11032682 15.20037653 312 21 C312.56332031 21.44214844 313.12664062 21.88429688 313.70703125 22.33984375 C317.34627321 25.22359751 320.13657405 28.37860836 323 32 C328.29211023 31.03961705 333.37555404 29.46229521 338.52734375 27.9375 C360.2342334 22.07737231 383.63552594 25.70908019 403.1328125 36.421875 C420.43471634 46.45434776 436.22153576 63.44212103 442 83 C442 83.66 442 84.32 442 85 C442.87398438 85.12955078 442.87398438 85.12955078 443.765625 85.26171875 C460.1804533 88.0749519 474.194647 96.50531419 486 108 C486.78375 108.721875 487.5675 109.44375 488.375 110.1875 C502.47625158 123.52652177 511.4436611 143.42235076 512.3125 162.76953125 C512.94645672 185.71490095 508.33187048 204.34698892 494.55078125 222.95703125 C493.640278 226.334288 495.56149021 228.80996948 497.1875 231.6875 C507.62384815 251.36312308 508.8751914 273.75944429 502.38183594 295.02441406 C497.71390314 309.47666015 490.3754178 321.77535551 478.8359375 331.8984375 C475.26357329 334.83944047 475.26357329 334.83944047 473.7578125 338.99609375 C474.00232312 341.08232145 474.45428835 342.97252964 475 345 C479.38608665 366.33517863 474.92773075 389.88399089 463.3125 408.1875 C448.7081796 428.85609059 428.90342918 442.81868798 403.91015625 447.58984375 C401.26173409 447.9631113 398.79467913 448.10294968 396.125 448.0625 C395.34382813 448.05347656 394.56265625 448.04445313 393.7578125 448.03515625 C392.88769531 448.01775391 392.88769531 448.01775391 392 448 C391.6596875 449.6396875 391.6596875 449.6396875 391.3125 451.3125 C387.03434965 468.27551572 375.71429403 484.353377 362 495 C361.25234375 495.58394531 360.5046875 496.16789062 359.734375 496.76953125 C340.20186647 511.22988837 315.9345639 515.87173705 292.12109375 512.38671875 C280.50752562 510.28228004 269.31103844 505.77252658 259.859375 498.625 C257.1502475 496.66275444 257.1502475 496.66275444 254.40625 497.57421875 C252.07771709 498.9539501 249.77053245 500.33898665 247.5 501.8125 C228.12004504 513.54925263 204.85640548 515.80737205 182.97265625 511.09765625 C160.23125199 505.1673324 140.93265588 490.82428616 128.94140625 470.57421875 C125.14964061 463.80227151 121.79863929 456.56283057 120 449 C119.41210693 448.91024902 118.82421387 448.82049805 118.21850586 448.72802734 C92.04527383 444.62912821 70.19326973 435.66320619 53.3125 414.375 C45.10973283 402.89406603 39.86953053 390.78369868 37 377 C36.84917969 376.28972656 36.69835938 375.57945312 36.54296875 374.84765625 C36.22041143 372.88220696 36.08283523 370.99149702 36 369 C35.9484375 367.85402344 35.896875 366.70804687 35.84375 365.52734375 C35.65830946 358.9105628 35.8640261 353.04478495 37.5859375 346.62573242 C38.45826632 343.28694126 38.96175924 340.47990913 39 337 C36.40211076 333.02605983 32.79934097 330.76501903 29 328 C13.54152618 312.39046618 6.45338363 290.44058709 5.625 268.875 C5.92941896 253.29255453 10.46782241 239.14571074 17.328125 225.32421875 C18.26828608 223.06446615 18.26828608 223.06446615 17.1640625 221.359375 C16.65617187 220.82828125 16.14828125 220.2971875 15.625 219.75 C1.89850409 202.93819079 -1.8766779 180.07464105 0 159 C3.00178605 135.51804804 15.23451919 115.95202684 33.4296875 101.00390625 C41.03455058 95.40622834 49.77935795 90.18961818 59.01953125 87.94140625 C66.56615124 86.22875718 66.56615124 86.22875718 71.9609375 81.03515625 C72.92160678 78.63348304 73.81429915 76.20372958 74.64453125 73.75390625 C81.11578588 55.83207426 98.53581716 41.61573428 115.1640625 33.4453125 C136.47813123 24.1376184 160.18737285 23.01251606 182.1875 30.75 C182.84105469 31.01296875 183.49460938 31.2759375 184.16796875 31.546875 C186.6390756 32.15806561 187.6471291 32.03700607 190 31 C191.94512926 29.16758997 193.75252159 27.33130459 195.5625 25.375 C200.86886962 19.87191754 206.26910883 15.69818738 213 12 C213.93328125 11.46761719 214.8665625 10.93523438 215.828125 10.38671875 C223.95013366 6.01082371 230.63873894 4.49633628 240 2 C160.8 1.67 81.6 1.34 0 1 C0 0.67 0 0.34 0 0 Z " fill="#1A64D3" transform="translate(0,0)"/>
<path d="M0 0 C2.82759932 0.11173288 5.65375895 0.23598356 8.48046875 0.3671875 C9.26933472 0.39707764 10.05820068 0.42696777 10.87097168 0.45776367 C27.87737153 1.28649308 43.13679374 9.17194605 56 20 C56.56332031 20.44214844 57.12664062 20.88429688 57.70703125 21.33984375 C61.34627321 24.22359751 64.13657405 27.37860836 67 31 C72.29211023 30.03961705 77.37555404 28.46229521 82.52734375 26.9375 C104.2342334 21.07737231 127.63552594 24.70908019 147.1328125 35.421875 C164.43471634 45.45434776 180.22153576 62.44212103 186 82 C186 82.66 186 83.32 186 84 C186.87398438 84.12955078 186.87398438 84.12955078 187.765625 84.26171875 C204.1804533 87.0749519 218.194647 95.50531419 230 107 C230.78375 107.721875 231.5675 108.44375 232.375 109.1875 C246.47625158 122.52652177 255.4436611 142.42235076 256.3125 161.76953125 C256.94645672 184.71490095 252.33187048 203.34698892 238.55078125 221.95703125 C237.640278 225.334288 239.56149021 227.80996948 241.1875 230.6875 C251.62384815 250.36312308 252.8751914 272.75944429 246.38183594 294.02441406 C241.71390314 308.47666015 234.3754178 320.77535551 222.8359375 330.8984375 C219.26357329 333.83944047 219.26357329 333.83944047 217.7578125 337.99609375 C218.00232312 340.08232145 218.45428835 341.97252964 219 344 C223.38608665 365.33517863 218.92773075 388.88399089 207.3125 407.1875 C192.7081796 427.85609059 172.90342918 441.81868798 147.91015625 446.58984375 C145.26173409 446.9631113 142.79467913 447.10294968 140.125 447.0625 C139.34382812 447.05347656 138.56265625 447.04445313 137.7578125 447.03515625 C136.88769531 447.01775391 136.88769531 447.01775391 136 447 C135.6596875 448.6396875 135.6596875 448.6396875 135.3125 450.3125 C131.03434965 467.27551572 119.71429403 483.353377 106 494 C105.25234375 494.58394531 104.5046875 495.16789062 103.734375 495.76953125 C84.20186647 510.22988837 59.9345639 514.87173705 36.12109375 511.38671875 C25.55751774 509.47346992 16.20615717 505.45172511 7 500 C6.39025086 499.66828701 5.78050171 499.33657401 5.15227532 498.99480911 C3.18638291 497.80222974 1.59634989 496.66011757 0 495 C-0.71587232 491.87516634 -0.93484341 489.77619726 -0.8613348 486.65416241 C-0.86941171 485.81264821 -0.87748862 484.97113402 -0.88581029 484.10411939 C-0.90441109 481.27065094 -0.87288678 478.43994052 -0.84178162 475.60661316 C-0.84483294 473.56051506 -0.85095977 471.51441961 -0.85990578 469.46833879 C-0.87559537 463.83550791 -0.84750817 458.20360461 -0.81245935 452.57089198 C-0.78229209 446.50071168 -0.79245532 440.43058571 -0.79777527 434.36035156 C-0.80144968 423.83990316 -0.77969001 413.31972331 -0.7401104 402.7993679 C-0.69870232 391.76473746 -0.67175108 380.73022797 -0.6641407 369.6955204 C-0.66365952 369.00962244 -0.66317835 368.32372449 -0.66268259 367.61704174 C-0.66031428 364.13376441 -0.65820459 360.65048698 -0.65619446 357.16720942 C-0.64148847 332.49005269 -0.59431842 307.81305402 -0.52807617 283.13598633 C-0.46379384 259.16138551 -0.41420434 235.18682793 -0.38452148 211.2121582 C-0.3836008 210.47325816 -0.38268012 209.73435811 -0.38173154 208.97306716 C-0.37250196 201.55278261 -0.36357125 194.13249773 -0.35485952 186.71221257 C-0.33710565 171.59600663 -0.31735688 156.47980351 -0.29640198 141.36360168 C-0.29544095 140.66857112 -0.29447992 139.97354055 -0.29348977 139.25744845 C-0.2290765 92.83823194 -0.11801358 46.41910794 0 0 Z " fill="#094298" transform="translate(256,1)"/>
</svg>
