<svg xmlns="http://www.w3.org/2000/svg" width="250" height="250" fill="none"><g clip-path="url(#a)"><path fill="#95BF46" d="M192.334 63.06c-.141-1.02-1.04-1.585-1.783-1.647-.742-.061-16.44-1.218-16.44-1.218S163.209 49.44 162.012 48.25c-1.197-1.19-3.536-.828-4.443-.562-.134.04-2.382.729-6.101 1.872-3.642-10.413-10.069-19.983-21.377-19.983-.312 0-.633.012-.954.03-3.216-4.226-7.2-6.062-10.64-6.062-26.34 0-38.924 32.72-42.87 49.348a16398.285 16398.285 0 0 0-18.435 5.682c-5.713 1.78-5.893 1.96-6.644 7.31-.564 4.05-15.513 118.924-15.513 118.924l116.481 21.687 63.113-13.567S192.474 64.08 192.335 63.06h-.001ZM145.03 51.538l-9.856 3.031c.003-.69.007-1.37.007-2.112 0-6.472-.904-11.683-2.355-15.814 5.826.727 9.707 7.314 12.204 14.895Zm-19.431-13.612c1.62 4.034 2.673 9.822 2.673 17.633 0 .4-.004.765-.007 1.134l-20.356 6.264c3.92-15.032 11.267-22.292 17.69-25.03Zm-7.826-7.361c1.137 0 2.282.383 3.378 1.133-8.441 3.947-17.49 13.889-21.31 33.742l-16.09 4.952c4.475-15.143 15.102-39.827 34.021-39.827h.001Z"/><path fill="#5E8E3E" d="M190.551 61.413c-.742-.062-16.44-1.218-16.44-1.218S163.209 49.44 162.012 48.25c-.448-.443-1.052-.67-1.683-.768l-8.807 179.013 63.107-13.566S192.473 64.079 192.334 63.06c-.141-1.02-1.04-1.585-1.783-1.647"/><path fill="#fff" d="m130.092 96.066-7.783 23.003s-6.818-3.616-15.176-3.616c-12.252 0-12.87 7.641-12.87 9.566 0 10.506 27.561 14.532 27.561 39.14 0 19.361-12.358 31.828-29.02 31.828-19.995 0-30.22-12.366-30.22-12.366l5.353-17.577s10.511 8.967 19.38 8.967c5.795 0 8.153-4.534 8.153-7.847 0-13.704-22.61-14.316-22.61-36.835 0-18.953 13.69-37.294 41.324-37.294 10.647 0 15.908 3.03 15.908 3.03"/></g><defs><clipPath id="a"><path fill="#fff" d="M35 23h180v204H35z"/></clipPath></defs></svg>