<svg xmlns="http://www.w3.org/2000/svg" width="250" height="250" fill="none"><g clip-path="url(#a)"><path fill="#EC4D89" d="M125.115 28h72.837a24.28 24.28 0 0 1 24.279 24.279v72.836a97.12 97.12 0 0 1-28.444 68.672 97.12 97.12 0 0 1-137.343 0 97.118 97.118 0 0 1 0-137.343A97.115 97.115 0 0 1 125.115 28Z"/><path fill="#fff" d="M161.534 140.001a46.683 46.683 0 0 1-15.71-2.581 5.107 5.107 0 0 0-6.289 1.208l-9.229 9.201a69.435 69.435 0 0 1-27.931-27.877l9.667-9.228.22-.247a7.001 7.001 0 0 0 1.071-5.878 50.258 50.258 0 0 1-2.746-15.902 5.817 5.817 0 0 0-1.7-4.37 5.827 5.827 0 0 0-4.37-1.7h-15.82a5.822 5.822 0 0 0-6.07 6.07 78.987 78.987 0 0 0 78.907 78.906 5.814 5.814 0 0 0 4.37-1.699 5.836 5.836 0 0 0 1.7-4.37v-15.435a5.79 5.79 0 0 0-6.07-6.098Z"/></g><defs><clipPath id="a"><path fill="#fff" d="M28 28h195v195H28z"/></clipPath></defs></svg>