<svg id="Warstwa_1" data-name="Warstwa 1" xmlns="http://www.w3.org/2000/svg" width="250" height="250" viewBox="0 0 250 250">
  <defs>
    <style>
      .cls-1 { fill: #3bab38; }
    </style>
  </defs>
  <g transform="translate(-1, 40) scale(1.7)">
    <path class="cls-1" d="M41.26,18.62a4.57,4.57,0,1,1,4.56-4.57,4.61,4.61,0,0,1-4.56,4.57M82.72,51.37,46.44,30.23l3.53-6L82.72,43.29l55.15-32.14h0a11,11,0,0,0-11-11H38.56a11,11,0,0,0-11,11V82.89a10.37,10.37,0,0,1-20.73-.42H0A20.79,20.79,0,0,0,20.73,103.2h48.1a13.78,13.78,0,0,0-9.95-13.26,27.54,27.54,0,0,0,9.95-21.15h54.94a14.14,14.14,0,0,0,14.1-14.1V19.24Z"/>
  </g>
</svg>
