
<svg width="48" height="48" viewBox="0 0 48 48" fill="none" xmlns="http://www.w3.org/2000/svg">
<path d="M42.4043 0H5.59573C2.50529 0 0 2.50529 0 5.59573V42.4043C0 45.4947 2.50529 48 5.59573 48H42.4043C45.4947 48 48 45.4947 48 42.4043V5.59573C48 2.50529 45.4947 0 42.4043 0Z" fill="white"/>
<path d="M31.347 16.8776C32.97 16.8776 34.2858 15.5618 34.2858 13.9388C34.2858 12.3157 32.97 11 31.347 11C29.7239 11 28.4082 12.3157 28.4082 13.9388C28.4082 15.5618 29.7239 16.8776 31.347 16.8776Z" fill="#00D639"/>
<path d="M16.347 16.8776C17.97 16.8776 19.2858 15.5618 19.2858 13.9388C19.2858 12.3157 17.97 11 16.347 11C14.7239 11 13.4082 12.3157 13.4082 13.9388C13.4082 15.5618 14.7239 16.8776 16.347 16.8776Z" fill="#00D639"/>
<path d="M31.9804 20.5365C31.841 20.0552 31.1591 20.0552 31.0198 20.5365L26.1851 37.2383C26.0925 37.5581 26.3324 37.8774 26.6653 37.8774H36.3348C36.6677 37.8774 36.9077 37.5581 36.8151 37.2383L31.9804 20.5365Z" fill="black"/>
<path d="M16.9804 20.5365C16.841 20.0552 16.1591 20.0552 16.0198 20.5365L11.1851 37.2383C11.0925 37.5581 11.3324 37.8774 11.6653 37.8774H21.3348C21.6677 37.8774 21.9077 37.5581 21.8151 37.2383L16.9804 20.5365Z" fill="black"/>
</svg>
