<?xml version="1.0" encoding="UTF-8"?>
<svg xmlns="http://www.w3.org/2000/svg" xmlns:xlink="http://www.w3.org/1999/xlink" width="250px" height="250px" viewBox="0 0 250 250" version="1.1">
<g id="surface1">
<path style=" stroke:none;fill-rule:nonzero;fill:rgb(53.725493%,19.215687%,46.27451%);fill-opacity:1;" d="M 186.289062 17.191406 C 187.113281 17.660156 187.945312 18.117188 188.777344 18.574219 C 192.039062 20.371094 195.128906 22.28125 198.113281 24.4375 C 199.433594 25.386719 200.785156 26.28125 202.15625 27.164062 C 202.335938 27.308594 202.515625 27.457031 202.703125 27.605469 C 202.703125 27.859375 202.703125 28.113281 202.703125 28.375 C 203.042969 28.5 203.042969 28.5 203.386719 28.628906 C 204.75 29.324219 205.820312 30.257812 206.953125 31.226562 C 207.191406 31.429688 207.433594 31.632812 207.679688 31.84375 C 214.53125 37.691406 214.53125 37.691406 216.636719 40.261719 C 216.636719 40.515625 216.636719 40.765625 216.636719 41.027344 C 217.054688 41.152344 217.476562 41.28125 217.90625 41.410156 C 218.550781 42.074219 218.550781 42.074219 219.234375 42.933594 C 219.484375 43.246094 219.734375 43.5625 219.996094 43.882812 C 220.253906 44.214844 220.515625 44.546875 220.78125 44.886719 C 221.296875 45.53125 221.808594 46.171875 222.320312 46.816406 C 222.695312 47.289062 222.695312 47.289062 223.078125 47.773438 C 223.769531 48.636719 224.480469 49.488281 225.191406 50.335938 C 226.132812 51.46875 226.925781 52.609375 227.644531 53.871094 C 228.382812 55.144531 229.136719 56.378906 229.992188 57.585938 C 230.84375 58.796875 231.5625 60.03125 232.25 61.324219 C 232.722656 62.183594 233.242188 63.007812 233.769531 63.84375 C 234.5625 65.128906 235.183594 66.394531 235.722656 67.785156 C 236.285156 69.1875 236.945312 70.554688 237.59375 71.925781 C 247.898438 95.117188 249.71875 124.5 239.515625 148.046875 C 239.214844 148.671875 238.90625 149.296875 238.597656 149.921875 C 238.386719 150.480469 238.183594 151.039062 237.992188 151.601562 C 237.34375 153.40625 236.511719 155.101562 235.640625 156.824219 C 235.386719 157.359375 235.132812 157.894531 234.875 158.429688 C 233.089844 162.074219 231.070312 165.636719 228.886719 169.09375 C 228.605469 169.09375 228.328125 169.09375 228.039062 169.09375 C 227.976562 169.421875 227.976562 169.421875 227.910156 169.753906 C 227.566406 170.789062 227.035156 171.496094 226.351562 172.378906 C 225.589844 173.363281 225.082031 174.082031 224.664062 175.230469 C 224.382812 175.230469 224.105469 175.230469 223.816406 175.230469 C 223.695312 175.523438 223.574219 175.816406 223.449219 176.117188 C 222.972656 177.148438 222.972656 177.148438 222.128906 178.296875 C 221.851562 178.296875 221.570312 178.296875 221.285156 178.296875 C 221.144531 178.804688 221.003906 179.308594 220.863281 179.832031 C 220.582031 179.832031 220.304688 179.832031 220.015625 179.832031 C 219.878906 180.335938 219.738281 180.84375 219.59375 181.363281 C 219.316406 181.363281 219.039062 181.363281 218.75 181.363281 C 218.652344 181.570312 218.558594 181.773438 218.460938 181.980469 C 217.722656 183.203125 216.773438 184.234375 215.792969 185.296875 C 215.601562 185.507812 215.414062 185.71875 215.214844 185.9375 C 214.726562 186.476562 214.207031 186.988281 213.683594 187.5 C 213.402344 187.5 213.125 187.5 212.835938 187.5 C 212.558594 188.007812 212.28125 188.511719 211.992188 189.035156 C 211.714844 189.035156 211.4375 189.035156 211.148438 189.035156 C 210.871094 189.539062 210.589844 190.046875 210.304688 190.566406 C 210.023438 190.566406 209.746094 190.566406 209.460938 190.566406 C 209.179688 191.074219 208.902344 191.578125 208.613281 192.101562 C 208.335938 192.101562 208.058594 192.101562 207.769531 192.101562 C 207.492188 192.605469 207.210938 193.113281 206.925781 193.636719 C 206.648438 193.636719 206.367188 193.636719 206.082031 193.636719 C 205.941406 194.015625 205.800781 194.394531 205.660156 194.785156 C 204.757812 195.492188 203.859375 196.148438 202.914062 196.796875 C 202.648438 196.984375 202.382812 197.171875 202.109375 197.363281 C 201.324219 197.910156 200.535156 198.457031 199.746094 199.003906 C 198.988281 199.53125 198.234375 200.054688 197.476562 200.585938 C 197.175781 200.792969 196.878906 200.996094 196.570312 201.210938 C 196.363281 201.367188 196.15625 201.523438 195.945312 201.6875 C 195.945312 201.8125 195.945312 201.941406 195.945312 202.070312 C 196.636719 202.160156 196.636719 202.160156 197.339844 202.253906 C 207.535156 203.660156 216.976562 206.601562 225.929688 211.273438 C 226.539062 211.578125 226.539062 211.578125 227.15625 211.886719 C 227.449219 212.066406 227.742188 212.242188 228.039062 212.421875 C 228.039062 212.675781 228.039062 212.929688 228.039062 213.191406 C 228.339844 213.28125 228.636719 213.375 228.945312 213.46875 C 230.339844 214.03125 231.371094 214.738281 232.554688 215.609375 C 232.957031 215.902344 233.359375 216.191406 233.773438 216.492188 C 234.808594 217.417969 235.226562 218.074219 235.640625 219.324219 C 235.363281 219.324219 235.085938 219.324219 234.796875 219.324219 C 234.65625 219.703125 234.519531 220.085938 234.375 220.476562 C 233.804688 220.976562 233.804688 220.976562 233.085938 221.46875 C 232.824219 221.652344 232.566406 221.832031 232.296875 222.019531 C 232.027344 222.207031 231.753906 222.390625 231.472656 222.585938 C 230.9375 222.957031 230.398438 223.328125 229.863281 223.699219 C 229.625 223.863281 229.386719 224.027344 229.144531 224.195312 C 228.4375 224.691406 228.4375 224.691406 227.792969 225.332031 C 227.195312 225.84375 227.195312 225.84375 226.351562 225.84375 C 226.210938 226.222656 226.074219 226.601562 225.929688 226.992188 C 224.046875 228.527344 224.046875 228.527344 222.972656 228.527344 C 222.972656 228.78125 222.972656 229.035156 222.972656 229.292969 C 222.292969 229.863281 221.582031 230.402344 220.863281 230.925781 C 220.441406 231.230469 220.019531 231.539062 219.582031 231.855469 C 218.277344 232.78125 216.957031 233.679688 215.609375 234.550781 C 214.832031 235.085938 214.832031 235.085938 214.105469 236.195312 C 213.6875 236.195312 213.269531 236.195312 212.835938 236.195312 C 212.738281 236.417969 212.640625 236.640625 212.539062 236.867188 C 211.859375 237.941406 211.066406 238.488281 209.988281 239.238281 C 208.730469 240.121094 207.492188 241.003906 206.292969 241.949219 C 205.238281 242.714844 205.238281 242.714844 204.390625 242.714844 C 204.253906 243.09375 204.113281 243.472656 203.96875 243.863281 C 203.550781 243.863281 203.132812 243.863281 202.703125 243.863281 C 202.597656 244.09375 202.492188 244.320312 202.386719 244.554688 C 201.777344 245.527344 201.160156 245.988281 200.167969 246.644531 C 199.726562 246.945312 199.726562 246.945312 199.273438 247.25 C 198.480469 247.699219 198.480469 247.699219 197.636719 247.699219 C 197.636719 247.953125 197.636719 248.207031 197.636719 248.464844 C 196.921875 248.777344 196.921875 248.777344 195.945312 248.851562 C 195.207031 248.230469 194.523438 247.597656 193.835938 246.933594 C 193.324219 246.464844 192.8125 245.996094 192.300781 245.527344 C 192.03125 245.28125 191.757812 245.03125 191.480469 244.777344 C 191.203125 244.523438 190.925781 244.269531 190.640625 244.007812 C 190.222656 243.625 190.222656 243.625 189.796875 243.234375 C 189.527344 242.984375 189.253906 242.738281 188.976562 242.484375 C 188.734375 242.261719 188.488281 242.039062 188.238281 241.808594 C 187.496094 241.152344 187.496094 241.152344 186.5625 240.574219 C 186.316406 240.394531 186.066406 240.214844 185.8125 240.03125 C 185.8125 239.777344 185.8125 239.523438 185.8125 239.265625 C 185.566406 239.222656 185.320312 239.183594 185.070312 239.140625 C 183.992188 238.84375 183.34375 238.429688 182.457031 237.800781 C 182.011719 237.488281 182.011719 237.488281 181.558594 237.171875 C 180.949219 236.730469 180.355469 236.273438 179.765625 235.8125 C 177.960938 234.59375 175.980469 233.691406 173.988281 232.746094 C 173.59375 232.554688 173.199219 232.363281 172.796875 232.167969 C 169.832031 230.765625 166.804688 229.671875 163.667969 228.640625 C 162.8125 228.359375 161.957031 228.066406 161.117188 227.742188 C 159.667969 227.246094 158.179688 226.933594 156.671875 226.609375 C 156.347656 226.539062 156.027344 226.464844 155.695312 226.390625 C 149.589844 225.007812 143.503906 224.109375 137.246094 223.542969 C 136.75 223.496094 136.75 223.496094 136.242188 223.449219 C 133.355469 223.191406 130.488281 223.078125 127.589844 223.023438 C 106.929688 222.527344 106.929688 222.527344 97.550781 220.476562 C 97.15625 220.390625 96.757812 220.304688 96.351562 220.21875 C 94.058594 219.71875 91.789062 219.167969 89.527344 218.558594 C 89.199219 218.472656 88.867188 218.382812 88.527344 218.296875 C 82.132812 216.589844 75.960938 214.496094 70.070312 211.65625 C 69.222656 211.257812 68.363281 210.871094 67.503906 210.492188 C 64.140625 209.007812 60.964844 207.417969 57.855469 205.519531 C 57.253906 205.167969 57.253906 205.167969 56.636719 204.808594 C 53.816406 203.136719 51.136719 201.34375 48.484375 199.464844 C 47.765625 198.953125 47.039062 198.457031 46.292969 197.980469 C 45.953125 197.726562 45.953125 197.726562 45.609375 197.46875 C 45.609375 197.214844 45.609375 196.964844 45.609375 196.703125 C 45.371094 196.609375 45.136719 196.519531 44.890625 196.421875 C 43.714844 195.832031 42.84375 195.109375 41.859375 194.28125 C 40.710938 193.324219 39.574219 192.378906 38.351562 191.503906 C 36.609375 190.132812 34.757812 188.578125 33.777344 186.664062 C 33.394531 185.832031 33.394531 185.832031 32.09375 185.582031 C 30.40625 183.875 30.40625 183.875 30.40625 182.898438 C 30.125 182.898438 29.847656 182.898438 29.5625 182.898438 C 28.953125 182.242188 28.375 181.554688 27.820312 180.863281 C 27.648438 180.652344 27.480469 180.445312 27.308594 180.230469 C 26.960938 179.796875 26.613281 179.363281 26.265625 178.925781 C 25.808594 178.355469 25.34375 177.792969 24.878906 177.226562 C 18.523438 169.484375 13.136719 160.597656 9.597656 151.480469 C 9.277344 150.65625 8.949219 149.835938 8.617188 149.015625 C 7.363281 145.898438 6.28125 142.8125 5.488281 139.570312 C 5.324219 138.9375 5.15625 138.308594 4.988281 137.675781 C -0.0625 118.164062 1.015625 97.695312 7.601562 78.605469 C 7.734375 78.210938 7.871094 77.820312 8.007812 77.417969 C 8.414062 76.269531 8.84375 75.136719 9.289062 74.003906 C 9.386719 73.753906 9.484375 73.507812 9.582031 73.253906 C 11.332031 68.828125 13.507812 64.714844 16 60.597656 C 16.398438 59.9375 16.785156 59.273438 17.167969 58.609375 C 19.746094 54.171875 22.847656 50.007812 26.183594 46.011719 C 26.441406 45.699219 26.441406 45.699219 26.707031 45.382812 C 29.132812 42.488281 31.667969 39.734375 34.414062 37.085938 C 35.160156 36.351562 35.863281 35.621094 36.554688 34.851562 C 37.433594 33.90625 38.300781 33.089844 39.328125 32.28125 C 39.605469 32.054688 39.886719 31.832031 40.175781 31.601562 C 40.960938 31.058594 40.960938 31.058594 42.230469 30.675781 C 42.339844 30.453125 42.449219 30.234375 42.5625 30.007812 C 43.316406 28.734375 44.519531 28.007812 45.765625 27.152344 C 46.03125 26.964844 46.296875 26.78125 46.574219 26.589844 C 47.117188 26.210938 47.664062 25.832031 48.210938 25.457031 C 48.894531 24.984375 49.574219 24.507812 50.25 24.027344 C 55.148438 20.605469 60.367188 17.5 65.878906 14.953125 C 66.125 14.839844 66.375 14.722656 66.628906 14.605469 C 77.78125 9.433594 77.78125 9.433594 82.769531 8.050781 C 83.511719 7.824219 84.25 7.597656 84.988281 7.371094 C 117.785156 -2.734375 156.75 0.296875 186.289062 17.191406 Z M 125.84375 30.675781 C 127.113281 31.445312 128.058594 31.734375 129.511719 32.113281 C 137.707031 34.363281 145.34375 37.511719 152.511719 41.777344 C 153.847656 42.652344 153.847656 42.652344 155.40625 42.945312 C 155.40625 43.199219 155.40625 43.449219 155.40625 43.710938 C 155.996094 44.089844 156.589844 44.460938 157.203125 44.8125 C 158.421875 45.527344 159.558594 46.335938 160.710938 47.136719 C 161.058594 47.378906 161.058594 47.378906 161.414062 47.625 C 162.90625 48.660156 164.230469 49.769531 165.539062 50.996094 C 165.910156 51.328125 166.277344 51.660156 166.660156 52 C 170.464844 55.417969 173.765625 58.964844 176.941406 62.882812 C 177.390625 63.421875 177.390625 63.421875 177.847656 63.96875 C 179.785156 66.316406 181.390625 68.707031 182.855469 71.320312 C 182.988281 71.554688 183.121094 71.785156 183.257812 72.027344 C 185.121094 75.316406 186.851562 78.613281 188.34375 82.054688 C 188.066406 82.183594 187.789062 82.308594 187.5 82.4375 C 187.332031 82.03125 187.332031 82.03125 187.160156 81.613281 C 183.222656 73.074219 175.125 65.8125 167.230469 60.199219 C 166.929688 59.980469 166.628906 59.765625 166.320312 59.539062 C 164.339844 58.144531 162.257812 57.054688 160.050781 55.980469 C 159.605469 55.746094 159.164062 55.507812 158.703125 55.261719 C 153.113281 52.359375 147.320312 50.066406 141.046875 48.695312 C 140.726562 48.625 140.402344 48.554688 140.070312 48.480469 C 122.605469 44.777344 103.675781 47.339844 88.261719 55.597656 C 87.960938 55.753906 87.664062 55.910156 87.359375 56.070312 C 83.304688 58.191406 79.742188 60.625 76.28125 63.476562 C 75.273438 64.289062 74.230469 65.0625 73.1875 65.832031 C 72.535156 66.308594 72.535156 66.308594 72.636719 67.101562 C 72.355469 67.101562 72.078125 67.101562 71.789062 67.101562 C 70.429688 68.433594 69.226562 69.890625 67.988281 71.320312 C 67.8125 71.523438 67.632812 71.730469 67.445312 71.941406 C 57.949219 82.808594 52.273438 95.714844 51.941406 109.664062 C 51.929688 110.113281 51.917969 110.566406 51.90625 111.03125 C 51.890625 112.367188 51.910156 113.695312 51.941406 115.03125 C 51.949219 115.519531 51.957031 116.011719 51.964844 116.515625 C 52.09375 120.835938 53.066406 124.902344 54.226562 129.082031 C 54.429688 129.816406 54.621094 130.550781 54.808594 131.285156 C 55.5625 134.089844 56.878906 136.601562 58.277344 139.1875 C 58.519531 139.648438 58.765625 140.113281 59.007812 140.574219 C 60.25 142.902344 61.550781 145.136719 63.191406 147.253906 C 63.605469 147.796875 63.996094 148.351562 64.367188 148.917969 C 65.109375 150.035156 65.914062 151.09375 66.75 152.152344 C 67.1875 152.714844 67.1875 152.714844 67.636719 153.285156 C 67.890625 153.566406 68.148438 153.851562 68.414062 154.140625 C 68.691406 154.140625 68.96875 154.140625 69.257812 154.140625 C 69.425781 154.476562 69.425781 154.476562 69.597656 154.816406 C 71.179688 157.503906 74.480469 160.835938 77.703125 161.808594 C 77.910156 162.378906 77.910156 162.378906 78.125 162.960938 C 78.949219 163.542969 79.761719 164.070312 80.632812 164.589844 C 81.140625 164.898438 81.648438 165.207031 82.160156 165.519531 C 82.410156 165.671875 82.660156 165.824219 82.917969 165.980469 C 83.824219 166.542969 84.691406 167.152344 85.566406 167.753906 C 99.65625 176.679688 119.175781 179.339844 135.867188 176.921875 C 141 176.078125 145.964844 174.800781 150.761719 172.929688 C 151.082031 172.808594 151.398438 172.6875 151.730469 172.5625 C 152.683594 172.191406 153.621094 171.796875 154.5625 171.394531 C 155.238281 171.105469 155.238281 171.105469 155.929688 170.8125 C 164.875 166.882812 174.003906 160.753906 179.898438 153.375 C 179.898438 153.121094 179.898438 152.867188 179.898438 152.605469 C 180.175781 152.605469 180.457031 152.605469 180.742188 152.605469 C 180.882812 152.101562 181.023438 151.59375 181.164062 151.074219 C 181.445312 151.074219 181.722656 151.074219 182.011719 151.074219 C 182.679688 150.28125 182.679688 150.28125 183.355469 149.253906 C 183.617188 148.871094 183.875 148.492188 184.140625 148.101562 C 185.425781 146.164062 186.683594 144.214844 187.921875 142.253906 C 187.921875 143.820312 187.253906 145.074219 186.601562 146.496094 C 186.46875 146.789062 186.335938 147.085938 186.195312 147.386719 C 185.296875 149.3125 184.292969 151.105469 183.050781 152.867188 C 182.371094 153.84375 181.785156 154.847656 181.191406 155.867188 C 179.9375 157.96875 178.507812 159.890625 176.941406 161.808594 C 176.472656 162.390625 176.472656 162.390625 175.992188 162.984375 C 173.429688 166.105469 170.617188 168.96875 167.652344 171.777344 C 167.34375 172.078125 167.03125 172.375 166.714844 172.679688 C 164.996094 174.289062 163.183594 175.660156 161.1875 176.976562 C 160.949219 177.160156 160.714844 177.34375 160.472656 177.53125 C 160.472656 177.785156 160.472656 178.035156 160.472656 178.296875 C 160.203125 178.34375 159.933594 178.390625 159.65625 178.441406 C 159.367188 178.519531 159.078125 178.597656 158.785156 178.679688 C 158.644531 178.933594 158.503906 179.1875 158.363281 179.449219 C 157.945312 179.574219 157.523438 179.699219 157.09375 179.832031 C 157.09375 180.085938 157.09375 180.335938 157.09375 180.597656 C 156.804688 180.6875 156.515625 180.777344 156.21875 180.871094 C 154.726562 181.46875 153.460938 182.273438 152.132812 183.113281 C 147.339844 186.078125 142.375 188.535156 136.847656 190.15625 C 135.539062 190.546875 135.539062 190.546875 134.296875 191.144531 C 132.976562 191.738281 131.691406 192.144531 130.277344 192.53125 C 129.820312 192.660156 129.363281 192.789062 128.894531 192.917969 C 127.597656 193.234375 126.324219 193.457031 125 193.636719 C 125 193.761719 125 193.886719 125 194.019531 C 136.203125 194.1875 146.488281 192.097656 156.960938 188.601562 C 157.242188 188.507812 157.519531 188.417969 157.808594 188.320312 C 159.367188 187.785156 160.75 187.152344 162.164062 186.351562 C 162.832031 186.097656 163.5 185.84375 164.167969 185.59375 C 166.375 184.679688 168.484375 183.574219 170.609375 182.515625 C 170.609375 182.261719 170.609375 182.007812 170.609375 181.75 C 170.894531 181.652344 171.183594 181.558594 171.480469 181.460938 C 172.960938 180.890625 174.289062 180.1875 175.675781 179.449219 C 175.675781 179.195312 175.675781 178.941406 175.675781 178.679688 C 175.96875 178.597656 176.261719 178.511719 176.5625 178.425781 C 178.09375 177.785156 179.253906 176.878906 180.503906 175.878906 C 180.972656 175.511719 181.4375 175.144531 181.902344 174.777344 C 182.128906 174.597656 182.355469 174.417969 182.589844 174.234375 C 183.269531 173.703125 183.957031 173.1875 184.648438 172.671875 C 185.910156 171.703125 186.878906 170.644531 187.921875 169.480469 C 188.625 168.835938 189.328125 168.199219 190.035156 167.5625 C 193.222656 164.570312 195.898438 161.40625 198.480469 157.976562 C 198.738281 157.636719 198.996094 157.296875 199.261719 156.949219 C 200.414062 155.414062 201.371094 153.886719 202.28125 152.222656 C 202.675781 151.578125 203.066406 150.933594 203.464844 150.289062 C 205.253906 147.34375 206.660156 144.371094 207.867188 141.191406 C 208.21875 140.273438 208.582031 139.359375 208.945312 138.441406 C 210.28125 135.027344 211.398438 131.628906 212.152344 128.066406 C 212.21875 127.757812 212.28125 127.445312 212.351562 127.125 C 213.296875 122.273438 213.347656 117.378906 213.339844 112.464844 C 213.339844 112.160156 213.339844 111.855469 213.339844 111.539062 C 213.292969 95.320312 207.890625 80.996094 198.902344 67.101562 C 198.625 67.101562 198.34375 67.101562 198.058594 67.101562 C 197.898438 66.691406 197.898438 66.691406 197.738281 66.277344 C 197.152344 65.0625 196.421875 64.113281 195.550781 63.050781 C 195.257812 62.695312 194.96875 62.339844 194.667969 61.972656 C 194.394531 61.640625 194.117188 61.308594 193.835938 60.964844 C 193.609375 60.671875 193.378906 60.375 193.148438 60.070312 C 192.957031 59.859375 192.765625 59.648438 192.566406 59.433594 C 192.289062 59.433594 192.011719 59.433594 191.722656 59.433594 C 191.566406 59.113281 191.566406 59.113281 191.40625 58.785156 C 190.78125 57.734375 190.0625 56.871094 189.1875 55.980469 C 188.910156 55.980469 188.632812 55.980469 188.34375 55.980469 C 188.261719 55.777344 188.175781 55.570312 188.089844 55.359375 C 187.242188 54.046875 186.070312 53.15625 184.835938 52.148438 C 184.59375 51.949219 184.355469 51.746094 184.105469 51.542969 C 181.84375 49.359375 181.84375 49.359375 179.054688 48.3125 C 178.914062 47.933594 178.773438 47.554688 178.632812 47.164062 C 178.214844 47.164062 177.796875 47.164062 177.363281 47.164062 C 177.363281 46.910156 177.363281 46.65625 177.363281 46.394531 C 175.832031 45.261719 175.832031 45.261719 173.988281 44.863281 C 173.988281 44.609375 173.988281 44.355469 173.988281 44.09375 C 173.695312 43.957031 173.402344 43.816406 173.105469 43.671875 C 171.121094 42.707031 169.1875 41.730469 167.335938 40.574219 C 165.808594 39.625 164.308594 38.964844 162.585938 38.34375 C 161.898438 38.050781 161.210938 37.753906 160.527344 37.457031 C 157.597656 36.238281 154.5625 35.320312 151.519531 34.371094 C 150.898438 34.171875 150.285156 33.949219 149.671875 33.722656 C 142.285156 31.105469 133.707031 30.398438 125.84375 30.675781 Z M 125.84375 30.675781 "/>
</g>
</svg>
