<svg xmlns="http://www.w3.org/2000/svg" width="250" height="250" fill="none"><g clip-path="url(#a)"><path fill="#615EFF" d="M200.745 218.706a12.051 12.051 0 0 1-3.483 8.475 11.837 11.837 0 0 1-8.4 3.514H62.072c-3.15 0-6.173-1.261-8.403-3.507a12.053 12.053 0 0 1-3.49-8.472V31.485a12.08 12.08 0 0 1 .903-4.593 11.996 11.996 0 0 1 2.578-3.894 11.875 11.875 0 0 1 3.86-2.6 11.791 11.791 0 0 1 4.552-.912h81.371l57.302 58.96v140.26Z"/><path fill="#1A194D" d="m149.748 76.907 50.997 49.177V78.101h-45.174a11.33 11.33 0 0 1-5.643-1.433l-.18.24Z" opacity=".3"/><path fill="#C5C4FF" d="M200.746 78.35h-45.297a11.836 11.836 0 0 1-8.399-3.514 12.055 12.055 0 0 1-3.484-8.475v-47.2l57.18 59.189Z"/><path fill="#fff" d="M77.924 142.086h8.247v23.572c0 2.187-.51 4.137-1.531 5.852-1.006 1.714-2.42 3.044-4.242 3.987-1.806.944-3.825 1.416-6.055 1.416-3.74 0-6.645-.944-8.719-2.831-2.073-1.888-3.11-4.562-3.11-8.023h8.294c0 1.573.267 2.714.801 3.422.55.707 1.461 1.061 2.734 1.061 1.146 0 2.026-.424 2.639-1.274.628-.865.942-2.068.942-3.61v-23.572Zm31.174 25.224c0-1.212-.432-2.155-1.296-2.832-.848-.676-2.348-1.376-4.5-2.1-2.152-.723-3.912-1.423-5.278-2.1-4.446-2.186-6.669-5.191-6.669-9.013 0-1.904.55-3.579 1.65-5.026 1.115-1.463 2.686-2.596 4.712-3.398 2.027-.818 4.305-1.227 6.834-1.227 2.466 0 4.673.441 6.621 1.322 1.964.881 3.487 2.139 4.571 3.775 1.084 1.62 1.626 3.476 1.626 5.568h-8.247c0-1.4-.432-2.485-1.296-3.256-.848-.771-2.003-1.156-3.464-1.156-1.476 0-2.647.33-3.511.991-.848.645-1.272 1.471-1.272 2.478 0 .88.471 1.683 1.414 2.406.942.708 2.599 1.448 4.971 2.218 2.373.755 4.32 1.573 5.844 2.454 3.707 2.14 5.561 5.089 5.561 8.849 0 3.004-1.131 5.364-3.393 7.078-2.262 1.715-5.365 2.572-9.308 2.572-2.78 0-5.301-.495-7.563-1.486-2.247-1.007-3.943-2.376-5.09-4.106-1.131-1.746-1.697-3.752-1.697-6.017h8.295c0 1.841.471 3.201 1.414 4.082.958.865 2.505 1.298 4.641 1.298 1.367 0 2.443-.291 3.229-.873.801-.598 1.201-1.432 1.201-2.501Zm41.566-7.338c0 3.35-.62 6.315-1.861 8.895-1.241 2.58-3.009 4.57-5.302 5.97-2.278 1.384-4.878 2.076-7.8 2.076-2.921 0-5.513-.668-7.775-2.006-2.263-1.352-4.03-3.279-5.302-5.78-1.257-2.502-1.917-5.372-1.98-8.613v-1.935c0-3.366.613-6.331 1.838-8.895 1.241-2.58 3.009-4.57 5.302-5.97 2.309-1.4 4.933-2.1 7.87-2.1 2.906 0 5.498.692 7.776 2.077 2.278 1.384 4.045 3.358 5.302 5.922 1.272 2.548 1.916 5.474 1.932 8.778v1.581Zm-8.412-1.44c0-3.413-.573-6.001-1.72-7.763-1.131-1.777-2.757-2.666-4.878-2.666-4.147 0-6.338 3.115-6.574 9.344l-.023 2.525c0 3.366.557 5.953 1.673 7.762 1.115 1.809 2.772 2.714 4.971 2.714 2.09 0 3.7-.889 4.831-2.666 1.131-1.778 1.704-4.334 1.72-7.669v-1.581Zm41.33 17.909h-8.223L163.2 155.064v21.377h-8.271v-34.355h8.271l12.135 21.378v-21.378h8.247v34.355Z"/></g><defs><clipPath id="a"><path fill="#fff" d="M50 19h151v212H50z"/></clipPath></defs></svg>