<svg version="1.1" id="Layer_1" xmlns="http://www.w3.org/2000/svg" xmlns:xlink="http://www.w3.org/1999/xlink" x="0px" y="0px"
	 width="100%" viewBox="0 0 200 200" enable-background="new 0 0 200 200" xml:space="preserve">
<path fill="#0373FB" opacity="1.000000" stroke="none" 
	d="
M201.000000,2.000000 
	C201.000000,67.354225 201.000000,132.708450 200.531342,198.529175 
	C133.708450,198.997101 67.354225,198.998550 1.000000,199.000000 
	C1.000000,133.645767 1.000000,68.291542 1.468657,2.469118 
	C68.291542,2.000614 134.645767,2.000307 201.000000,2.000000 
M61.335159,82.641327 
	C62.975334,83.093712 64.607590,83.901276 66.257042,83.938057 
	C74.121254,84.113388 81.990150,84.079285 89.921799,85.039909 
	C89.944405,102.935280 89.925629,120.830940 90.046921,138.725647 
	C90.060623,140.746857 90.864143,142.762695 92.184799,144.912552 
	C96.454895,144.886429 100.724991,144.860321 105.783630,144.979706 
	C107.510605,144.634125 109.237572,144.288528 111.454514,143.283112 
	C111.637360,141.324356 111.973396,139.366013 111.978859,137.406769 
	C112.023148,121.512436 111.972237,105.617783 112.050179,89.723709 
	C112.059570,87.808487 112.664268,85.896179 113.931732,83.991486 
	C121.304161,83.994530 128.680283,84.122337 136.046188,83.904625 
	C137.693344,83.855942 139.304672,82.595406 140.953781,81.415756 
	C140.953781,81.415756 140.817337,80.958176 140.967331,80.042145 
	C140.920914,75.373611 140.874481,70.705070 140.956696,65.579811 
	C140.956696,65.579811 140.907990,65.108047 140.286453,64.570625 
	C139.322617,64.382774 138.358994,64.032196 137.394897,64.030876 
	C113.354225,63.998005 89.313469,63.983509 65.272926,64.046745 
	C63.876266,64.050423 62.481403,64.737312 61.037910,65.572189 
	C61.037910,65.572189 61.164509,66.023140 61.024612,66.940300 
	C61.072109,71.291161 61.119606,75.642029 61.027576,80.619377 
	C61.040890,81.046776 61.054203,81.474174 61.335159,82.641327 
z"/>
<path fill="#1A85FF" opacity="1.000000" stroke="none" 
	d="
M201.000000,1.500000 
	C134.645767,2.000307 68.291542,2.000614 1.468657,2.000461 
	C2.333333,1.666667 3.666455,1.042680 5.000031,1.041708 
	C70.333328,0.994067 135.666672,1.000000 201.000000,1.500000 
z"/>
<path fill="#4CADFF" opacity="1.000000" stroke="none" 
	d="
M201.000000,200.000000 
	C199.670807,200.333344 198.341812,200.957306 197.012375,200.958282 
	C131.674942,201.005905 66.337471,201.000000 1.468657,200.500000 
	C68.291542,200.000000 134.645767,200.000000 201.000000,200.000000 
z"/>
<path fill="#0F72E6" opacity="1.000000" stroke="none" 
	d="
M201.000000,199.750000 
	C134.645767,200.000000 68.291542,200.000000 1.468657,200.000000 
	C1.000000,200.000000 1.000000,199.500000 1.000000,199.250000 
	C67.354225,198.998550 133.708450,198.997101 200.531342,198.997833 
	C201.000000,199.000000 201.000000,199.500000 201.000000,199.750000 
z"/>
<path fill="#FEFFFE" opacity="1.000000" stroke="none" 
	d="
M61.167103,79.992889 
	C61.119606,75.642029 61.072109,71.291161 61.552628,66.475739 
	C88.329773,66.019630 114.578911,66.028084 140.828049,66.036537 
	C140.874481,70.705070 140.920914,75.373611 140.435303,80.501633 
	C136.119812,80.968803 132.333054,80.878952 128.553635,81.006721 
	C122.684860,81.205124 116.821083,81.551689 110.754395,81.956871 
	C110.458389,82.202606 110.266731,82.420715 110.282593,82.437027 
	C110.487289,82.647530 110.721558,82.829277 110.951790,83.251831 
	C110.955231,83.485367 110.849174,83.940300 110.691574,84.048508 
	C110.467354,84.265373 110.326027,84.393799 110.348526,84.478882 
	C110.408707,84.706413 110.539207,84.915344 110.661072,85.506020 
	C110.657372,86.879364 110.634361,87.878349 110.419327,89.221596 
	C110.082642,91.708939 109.937996,93.852020 109.416092,95.997604 
	C107.913895,96.772018 105.819344,97.531036 105.808876,98.317810 
	C105.640923,110.935555 105.734787,123.556847 105.778694,136.177292 
	C105.790611,139.602707 104.397995,141.120285 100.823181,140.113358 
	C97.963699,139.307922 95.049965,138.695114 92.111008,137.570648 
	C92.093895,135.430878 92.126099,133.717224 92.518761,131.894775 
	C93.583931,130.247864 94.840500,128.732239 94.904121,127.168076 
	C95.328468,116.735428 95.592636,106.292404 95.591385,95.852791 
	C95.591270,94.900551 93.358963,93.948586 92.122856,92.665100 
	C92.109840,91.890320 92.137184,91.446930 92.580170,91.002136 
	C98.360893,90.567818 99.046906,89.200668 97.050827,82.427467 
	C95.368080,82.628044 93.629570,82.835274 91.676598,83.008514 
	C91.462128,82.974533 91.039177,82.871323 90.870926,82.519287 
	C89.023758,81.774498 87.350159,81.071701 85.665001,81.042786 
	C78.445038,80.918861 71.221664,80.993469 63.767838,80.791084 
	C62.746460,80.388611 61.956783,80.190750 61.167103,79.992889 
z"/>
<path fill="#FCFFFE" opacity="1.000000" stroke="none" 
	d="
M92.160316,137.996796 
	C95.049965,138.695114 97.963699,139.307922 100.823181,140.113358 
	C104.397995,141.120285 105.790611,139.602707 105.778694,136.177292 
	C105.734787,123.556847 105.640923,110.935555 105.808876,98.317810 
	C105.819344,97.531036 107.913895,96.772018 109.472794,96.463982 
	C109.929520,105.389183 109.878929,113.851540 110.000046,122.311440 
	C110.085045,128.248184 110.404106,134.181580 110.638794,140.479004 
	C110.552643,141.551239 110.446350,142.260956 109.988548,142.974823 
	C108.089714,143.597397 106.542404,144.215805 104.995087,144.834213 
	C100.724991,144.860321 96.454895,144.886429 91.761795,144.569397 
	C91.356789,143.853058 91.374786,143.479858 91.577827,142.784714 
	C91.895348,140.974106 92.027832,139.485443 92.160316,137.996796 
z"/>
<path fill="#2F81E4" opacity="1.000000" stroke="none" 
	d="
M61.085701,65.106255 
	C62.481403,64.737312 63.876266,64.050423 65.272926,64.046745 
	C89.313469,63.983509 113.354225,63.998005 137.394897,64.030876 
	C138.358994,64.032196 139.322617,64.382774 140.136780,64.803940 
	C113.686630,65.060257 87.386162,65.083252 61.085701,65.106255 
z"/>
<path fill="#D9F7FF" opacity="1.000000" stroke="none" 
	d="
M61.061806,65.339218 
	C87.386162,65.083252 113.686630,65.060257 140.447540,65.072647 
	C140.907990,65.108047 140.956696,65.579811 140.892365,65.808174 
	C114.578911,66.028084 88.329773,66.019630 61.622574,66.017151 
	C61.164509,66.023140 61.037910,65.572189 61.061806,65.339218 
z"/>
<path fill="#1570DB" opacity="1.000000" stroke="none" 
	d="
M110.340065,142.970673 
	C110.446350,142.260956 110.552643,141.551239 110.776489,140.019348 
	C110.799812,122.423904 110.705589,105.650627 110.611359,88.877342 
	C110.634361,87.878349 110.657372,86.879364 110.776642,85.219116 
	C110.864990,84.352005 110.857086,84.146149 110.849174,83.940300 
	C110.849174,83.940300 110.955231,83.485367 111.294205,83.250320 
	C112.089317,83.033432 112.545448,83.051590 112.999710,83.297951 
	C112.997841,83.526146 112.993050,83.982521 112.993050,83.982521 
	C112.664268,85.896179 112.059570,87.808487 112.050179,89.723709 
	C111.972237,105.617783 112.023148,121.512436 111.978859,137.406769 
	C111.973396,139.366013 111.637360,141.324356 111.062149,143.364655 
	C110.559883,143.287689 110.449974,143.129181 110.340065,142.970673 
z"/>
<path fill="#166FDF" opacity="1.000000" stroke="none" 
	d="
M91.392776,143.106674 
	C91.374786,143.479858 91.356789,143.853058 91.320107,144.503632 
	C90.864143,142.762695 90.060623,140.746857 90.046921,138.725647 
	C89.925629,120.830940 89.944405,102.935280 89.943008,84.532555 
	C89.964218,84.025200 90.076897,83.937752 90.336441,84.069321 
	C90.846657,84.497162 91.097321,84.793449 91.325089,85.388550 
	C91.318016,86.086243 91.333824,86.485115 91.225250,87.340302 
	C91.191833,91.565842 91.282799,95.335083 91.350670,99.565590 
	C91.343536,109.311882 91.359512,118.596909 91.242493,128.340546 
	C91.203926,133.568344 91.298347,138.337509 91.392776,143.106674 
z"/>
<path fill="#1070E3" opacity="1.000000" stroke="none" 
	d="
M113.462387,83.987000 
	C112.993050,83.982521 112.997841,83.526146 113.467850,83.274719 
	C115.753143,83.014572 117.570465,83.058220 119.383354,82.987747 
	C125.924965,82.733444 132.465088,82.440720 139.322495,82.089493 
	C140.070312,81.975235 140.501389,81.934006 140.932480,81.892792 
	C139.304672,82.595406 137.693344,83.855942 136.046188,83.904625 
	C128.680283,84.122337 121.304161,83.994530 113.462387,83.987000 
z"/>
<path fill="#1070E3" opacity="1.000000" stroke="none" 
	d="
M89.910797,84.072449 
	C81.990150,84.079285 74.121254,84.113388 66.257042,83.938057 
	C64.607590,83.901276 62.975334,83.093712 61.438133,82.322845 
	C61.541103,82.004364 62.001293,82.157982 62.345646,82.384140 
	C71.497787,82.705490 80.305580,82.800682 89.308403,82.943451 
	C89.503441,82.991020 89.892014,83.092155 89.940628,83.303032 
	C89.989235,83.513908 90.076897,83.937752 90.076897,83.937752 
	C90.076897,83.937752 89.964218,84.025200 89.910797,84.072449 
z"/>
<path fill="#D9FDFF" opacity="1.000000" stroke="none" 
	d="
M140.943130,81.654266 
	C140.501389,81.934006 140.070312,81.975235 138.858185,82.027351 
	C129.036499,81.970642 119.995842,81.903046 110.955193,81.835449 
	C116.821083,81.551689 122.684860,81.205124 128.553635,81.006721 
	C132.333054,80.878952 136.119812,80.968803 140.360321,80.959648 
	C140.817337,80.958176 140.953781,81.415756 140.943130,81.654266 
z"/>
<path fill="#F4FFFF" opacity="1.000000" stroke="none" 
	d="
M109.988548,142.974823 
	C110.449974,143.129181 110.559883,143.287689 110.817169,143.694565 
	C109.237572,144.288528 107.510605,144.634125 105.389359,144.906952 
	C106.542404,144.215805 108.089714,143.597397 109.988548,142.974823 
z"/>
<path fill="#F4FFFF" opacity="1.000000" stroke="none" 
	d="
M62.001293,82.157982 
	C62.001293,82.157982 61.541103,82.004364 61.304306,81.952972 
	C61.054203,81.474174 61.040890,81.046776 61.097340,80.306137 
	C61.956783,80.190750 62.746460,80.388611 63.763779,81.001930 
	C63.991421,81.417389 63.978390,81.838852 63.650719,81.905441 
	C62.882465,82.034012 62.441879,82.096001 62.001293,82.157982 
z"/>
<path fill="#FCFFFE" opacity="1.000000" stroke="none" 
	d="
M91.375488,127.881927 
	C91.359512,118.596909 91.343536,109.311882 91.536362,99.229446 
	C91.884514,96.620186 92.023872,94.808334 92.163223,92.996490 
	C93.358963,93.948586 95.591270,94.900551 95.591385,95.852791 
	C95.592636,106.292404 95.328468,116.735428 94.904121,127.168076 
	C94.840500,128.732239 93.583931,130.247864 92.468704,131.542358 
	C91.830612,130.159836 91.603050,129.020874 91.375488,127.881927 
z"/>
<path fill="#FCFFFE" opacity="1.000000" stroke="none" 
	d="
M91.349640,86.883995 
	C91.333824,86.485115 91.318016,86.086243 91.503204,85.177681 
	C91.766502,84.126167 91.828781,83.584335 91.891068,83.042503 
	C93.629570,82.835274 95.368080,82.628044 97.050827,82.427467 
	C99.046906,89.200668 98.360893,90.567818 92.530533,90.648926 
	C91.826721,89.159409 91.588181,88.021698 91.349640,86.883995 
z"/>
<path fill="#A0C9FF" opacity="1.000000" stroke="none" 
	d="
M110.419327,89.221596 
	C110.705589,105.650627 110.799812,122.423904 110.756340,139.656830 
	C110.404106,134.181580 110.085045,128.248184 110.000046,122.311440 
	C109.878929,113.851540 109.929520,105.389183 109.850060,96.461487 
	C109.937996,93.852020 110.082642,91.708939 110.419327,89.221596 
z"/>
<path fill="#4F8ED9" opacity="1.000000" stroke="none" 
	d="
M110.754395,81.956871 
	C119.995842,81.903046 129.036499,81.970642 138.541458,82.100372 
	C132.465088,82.440720 125.924965,82.733444 119.383354,82.987747 
	C117.570465,83.058220 115.753143,83.014572 113.469711,83.046524 
	C112.545448,83.051590 112.089317,83.033432 111.290771,83.016785 
	C110.721558,82.829277 110.487289,82.647530 110.282593,82.437027 
	C110.266731,82.420715 110.458389,82.202606 110.754395,81.956871 
z"/>
<path fill="#D9FDFF" opacity="1.000000" stroke="none" 
	d="
M63.978390,81.838852 
	C63.978390,81.838852 63.991421,81.417389 63.995476,81.206543 
	C71.221664,80.993469 78.445038,80.918861 85.665001,81.042786 
	C87.350159,81.071701 89.023758,81.774498 90.584549,82.577492 
	C90.274956,83.022545 90.083488,83.057350 89.892014,83.092155 
	C89.892014,83.092155 89.503441,82.991020 89.019058,82.624344 
	C80.349251,82.118065 72.163818,81.978462 63.978390,81.838852 
z"/>
<path fill="#A0C9FF" opacity="1.000000" stroke="none" 
	d="
M91.242493,128.340546 
	C91.603050,129.020874 91.830612,130.159836 92.108238,131.651184 
	C92.126099,133.717224 92.093895,135.430878 92.111008,137.570648 
	C92.027832,139.485443 91.895348,140.974106 91.577820,142.784714 
	C91.298347,138.337509 91.203926,133.568344 91.242493,128.340546 
z"/>
<path fill="#A0C9FF" opacity="1.000000" stroke="none" 
	d="
M91.225258,87.340302 
	C91.588181,88.021698 91.826721,89.159409 92.114899,90.650322 
	C92.137184,91.446930 92.109840,91.890320 92.122856,92.665100 
	C92.023872,94.808334 91.884514,96.620186 91.559464,98.768173 
	C91.282799,95.335083 91.191833,91.565842 91.225258,87.340302 
z"/>
<path fill="#A0C9FF" opacity="1.000000" stroke="none" 
	d="
M89.940628,83.303032 
	C90.083488,83.057350 90.274956,83.022545 90.752808,82.929535 
	C91.039177,82.871323 91.462128,82.974533 91.676598,83.008514 
	C91.828781,83.584335 91.766502,84.126167 91.526093,84.878868 
	C91.097321,84.793449 90.846657,84.497162 90.336441,84.069321 
	C90.076897,83.937752 89.989235,83.513908 89.940628,83.303032 
z"/>
<path fill="#A0C9FF" opacity="1.000000" stroke="none" 
	d="
M110.691574,84.048508 
	C110.857086,84.146149 110.864990,84.352005 110.757332,84.844757 
	C110.539207,84.915344 110.408707,84.706413 110.348526,84.478882 
	C110.326027,84.393799 110.467354,84.265373 110.691574,84.048508 
z"/>
<path fill="#4F8ED9" opacity="1.000000" stroke="none" 
	d="
M63.650719,81.905441 
	C72.163818,81.978462 80.349251,82.118065 88.824020,82.576775 
	C80.305580,82.800682 71.497787,82.705490 62.345646,82.384140 
	C62.441879,82.096001 62.882465,82.034012 63.650719,81.905441 
z"/>
</svg>
