<svg xmlns="http://www.w3.org/2000/svg" width="250" height="250" fill="none"><g clip-path="url(#a)"><path fill="url(#b)" d="M182.636 130.118c-24.506 0-44.369 20.118-44.369 44.934 0 24.819 19.863 44.941 44.369 44.941 24.502 0 44.364-20.122 44.364-44.941 0-24.816-19.862-44.934-44.364-44.934Zm-115.27.002C42.865 130.122 23 150.236 23 175.054c0 24.817 19.864 44.937 44.367 44.937 24.503 0 44.368-20.12 44.368-44.937 0-24.819-19.865-44.934-44.37-44.934h.002Zm102.001-56.173c0 24.817-19.863 44.941-44.365 44.941-24.506 0-44.368-20.124-44.368-44.94 0-24.817 19.862-44.937 44.368-44.937 24.502 0 44.362 20.12 44.362 44.936h.003Z"/></g><defs><radialGradient id="b" cx="0" cy="0" r="1" gradientTransform="matrix(135.252 0 0 126.621 125.028 133.506)" gradientUnits="userSpaceOnUse"><stop stop-color="#FFB900"/><stop offset=".6" stop-color="#F95D8F"/><stop offset=".999" stop-color="#F95353"/></radialGradient><clipPath id="a"><path fill="#fff" d="M23 29h204v191H23z"/></clipPath></defs></svg>