<svg xmlns="http://www.w3.org/2000/svg" version="1.1" width="225px" height="225px" style="shape-rendering:geometricPrecision; text-rendering:geometricPrecision; image-rendering:optimizeQuality; fill-rule:evenodd; clip-rule:evenodd" xmlns:xlink="http://www.w3.org/1999/xlink">
<g><path style="opacity:1" fill="#fefefe" d="M -0.5,-0.5 C 33.8333,-0.5 68.1667,-0.5 102.5,-0.5C 94.6536,1.73692 87.3203,5.23692 80.5,10C 56.2739,33.5581 32.7739,57.7247 10,82.5C -3.61564,105.153 -2.28231,126.82 14,147.5C 35.5541,169.054 57.0541,190.554 78.5,212C 87.0782,218.128 96.4116,222.294 106.5,224.5C 70.8333,224.5 35.1667,224.5 -0.5,224.5C -0.5,149.5 -0.5,74.5 -0.5,-0.5 Z"/></g>
<g><path style="opacity:1" fill="#06ade4" d="M 102.5,-0.5 C 106.833,-0.5 111.167,-0.5 115.5,-0.5C 125.967,1.0576 135.633,4.89094 144.5,11C 165.946,32.4459 187.446,53.9459 209,75.5C 228.409,100.283 228.075,124.949 208,149.5C 186.446,171.054 164.946,192.554 143.5,214C 135.574,219.581 126.907,223.081 117.5,224.5C 113.833,224.5 110.167,224.5 106.5,224.5C 96.4116,222.294 87.0782,218.128 78.5,212C 57.0541,190.554 35.5541,169.054 14,147.5C -2.28231,126.82 -3.61564,105.153 10,82.5C 32.7739,57.7247 56.2739,33.5581 80.5,10C 87.3203,5.23692 94.6536,1.73692 102.5,-0.5 Z"/></g>
<g><path style="opacity:1" fill="#fefefe" d="M 115.5,-0.5 C 151.833,-0.5 188.167,-0.5 224.5,-0.5C 224.5,74.5 224.5,149.5 224.5,224.5C 188.833,224.5 153.167,224.5 117.5,224.5C 126.907,223.081 135.574,219.581 143.5,214C 164.946,192.554 186.446,171.054 208,149.5C 228.075,124.949 228.409,100.283 209,75.5C 187.446,53.9459 165.946,32.4459 144.5,11C 135.633,4.89094 125.967,1.0576 115.5,-0.5 Z"/></g>
<g><path style="opacity:1" fill="#fdfefe" d="M 105.5,32.5 C 113.858,31.3429 121.191,33.5095 127.5,39C 133.212,44.3768 138.545,50.0434 143.5,56C 133.334,66.9992 123.001,77.8325 112.5,88.5C 101.5,78.1667 90.8333,67.5 80.5,56.5C 87.5879,47.0763 95.9212,39.0763 105.5,32.5 Z"/></g>
<g><path style="opacity:1" fill="#fefefe" d="M 56.5,79.5 C 67.6318,90.1312 78.6318,100.965 89.5,112C 78.6667,122.833 67.8333,133.667 57,144.5C 50.3333,137.833 43.6667,131.167 37,124.5C 31.8689,115.073 32.5356,106.073 39,97.5C 45.0362,91.6314 50.8695,85.6314 56.5,79.5 Z"/></g>
<g><path style="opacity:1" fill="#fdfefe" d="M 166.5,79.5 C 175.199,87.0323 183.033,95.3656 190,104.5C 191.548,112.082 190.215,119.082 186,125.5C 179.667,131.833 173.333,138.167 167,144.5C 156.124,133.959 145.624,123.125 135.5,112C 145.66,101.007 155.993,90.1734 166.5,79.5 Z"/></g>
<g><path style="opacity:1" fill="#fdfefe" d="M 111.5,135.5 C 122.632,146.131 133.632,156.965 144.5,168C 136.724,176.782 128.058,184.449 118.5,191C 110.143,192.657 102.809,190.657 96.5,185C 90.8333,179.333 85.1667,173.667 79.5,168C 90.3688,157.298 101.035,146.465 111.5,135.5 Z"/></g>
</svg>
