<svg width="33" height="32" viewBox="0 0 33 32" fill="none" xmlns="http://www.w3.org/2000/svg">
    <g clip-path="url(#clip0_621_5620)">
        <mask id="mask0_621_5620" style="mask-type:alpha" maskUnits="userSpaceOnUse" x="14" y="8" width="15" height="15">
            <path d="M28.3856 15.689C28.3856 19.4623 25.3513 22.5211 21.6082 22.5211C17.8651 22.5211 14.8307 19.4623 14.8307 15.689C14.8307 11.9158 17.8651 8.85693 21.6082 8.85693C25.3513 8.85693 28.3856 11.9158 28.3856 15.689Z" fill="#C4C4C4" />
        </mask>
        <g mask="url(#mask0_621_5620)">
            <rect width="16.2822" height="4.77775" transform="matrix(0.935112 -0.354352 0.3494 0.936974 10.8951 10.9434)" fill="#F5D05E" />
            <rect width="16.2822" height="1.36507" transform="matrix(0.935112 -0.354352 0.3494 0.936974 12.5645 15.4199)" fill="#E7A43C" />
            <rect width="16.2822" height="4.09522" transform="matrix(0.935112 -0.354352 0.3494 0.936974 13.0414 16.699)" fill="#F5D05E" />
            <rect width="16.2822" height="7.5079" transform="matrix(0.935112 -0.354352 0.3494 0.936974 14.4723 20.5361)" fill="#E7A33C" />
        </g>
        <path d="M28.1667 15.689C28.1667 19.3423 25.2291 22.3017 21.6082 22.3017C17.9872 22.3017 15.0497 19.3423 15.0497 15.689C15.0497 12.0357 17.9872 9.07626 21.6082 9.07626C25.2291 9.07626 28.1667 12.0357 28.1667 15.689Z" stroke="#E7A43C" stroke-width="0.32" />
        <g filter="url(#filter0_d_621_5620)">
            <mask id="mask1_621_5620" style="mask-type:alpha" maskUnits="userSpaceOnUse" x="13" y="7" width="17" height="17">
                <path fill-rule="evenodd" clip-rule="evenodd" d="M21.6082 23.8875C26.0999 23.8875 29.7411 20.2169 29.7411 15.689C29.7411 11.1611 26.0999 7.49048 21.6082 7.49048C17.1165 7.49048 13.4752 11.1611 13.4752 15.689C13.4752 20.2169 17.1165 23.8875 21.6082 23.8875ZM21.6082 22.5211C25.3512 22.5211 28.3856 19.4623 28.3856 15.689C28.3856 11.9157 25.3512 8.85689 21.6082 8.85689C17.8651 8.85689 14.8307 11.9157 14.8307 15.689C14.8307 19.4623 17.8651 22.5211 21.6082 22.5211Z" fill="#C4C4C4" />
            </mask>
            <g mask="url(#mask1_621_5620)">
                <rect width="16.2822" height="3.41268" transform="matrix(0.935112 -0.354352 0.3494 0.936974 10.8951 10.9432)" fill="#FDF3A1" />
                <rect width="16.2822" height="1.36507" transform="matrix(0.935112 -0.354352 0.3494 0.936974 12.0875 14.1409)" fill="#F4C249" />
                <rect width="16.7441" height="4.09522" transform="matrix(0.935112 -0.354352 0.3494 0.936974 12.5645 15.4199)" fill="#FDF3A1" />
                <rect width="16.6383" height="7.82716" transform="matrix(0.935112 -0.354352 0.3494 0.936974 13.9953 19.2571)" fill="#F4C248" />
                <path d="M23.0226 24.6004V22.4617L23.7298 24.6004H23.0226Z" fill="#C56131" />
                <path d="M16.9848 8.91634L18.1586 9.90565L15.9505 8.91634L16.9848 8.91634Z" fill="#F4C249" />
                <path d="M16.9848 8.91634L18.1586 9.90566L17.3649 7.84697L16.9848 8.91634Z" fill="white" />
            </g>
        </g>
        <g filter="url(#filter1_d_621_5620)">
            <mask id="mask2_621_5620" style="mask-type:alpha" maskUnits="userSpaceOnUse" x="16" y="11" width="10" height="10">
                <path fill-rule="evenodd" clip-rule="evenodd" d="M19.6957 12.6473C20.6144 11.5996 22.1356 11.2923 23.3862 11.897C25.0479 12.7006 25.6541 14.7476 24.7494 16.3267L22.7143 19.8749C22.6005 20.0732 22.4134 20.2179 22.1939 20.2772C21.9744 20.3365 21.7406 20.3055 21.5437 20.1912L24.0077 15.8946C24.664 14.7485 24.225 13.263 23.0203 12.6782C22.1164 12.2393 21.0114 12.4586 20.3437 13.2132C19.9753 13.6275 19.7685 14.1624 19.7616 14.7187C19.7547 15.275 19.9482 15.815 20.3062 16.2384C20.3705 16.3144 20.4397 16.3861 20.5134 16.4529L19.075 18.9657C19.0187 19.0639 18.9438 19.15 18.8546 19.2191C18.7653 19.2881 18.6634 19.3388 18.5547 19.3682C18.4461 19.3975 18.3327 19.405 18.2211 19.3902C18.1096 19.3754 18.002 19.3386 17.9046 19.2819L19.4661 16.5539C19.2418 16.2279 19.0807 15.8621 18.9914 15.4757L18.0345 17.1508C17.9207 17.349 17.7336 17.4937 17.5141 17.553C17.2947 17.6123 17.0608 17.5814 16.864 17.467L19.3385 13.1463C19.4415 12.9688 19.5611 12.8018 19.6957 12.6473ZM22.5519 14.0226C23.1478 14.3696 23.3536 15.1411 23.0088 15.7416L20.6359 19.8744C20.5221 20.0727 20.335 20.2173 20.1155 20.2766C19.8961 20.3359 19.6622 20.305 19.4654 20.1906L21.6687 16.343C21.4919 16.3055 21.3253 16.2298 21.1804 16.121C21.0355 16.0123 20.9157 15.8732 20.8293 15.7132C20.7429 15.5532 20.692 15.3763 20.6801 15.1946C20.6682 15.0129 20.6955 14.8307 20.7602 14.6607C20.8249 14.4906 20.9255 14.3368 21.0549 14.2097C21.1844 14.0827 21.3396 13.9855 21.51 13.9248C21.6803 13.8642 21.8617 13.8415 22.0416 13.8584C22.2214 13.8752 22.3955 13.9313 22.5519 14.0226ZM21.6887 14.7993C21.648 14.8308 21.6137 14.8702 21.588 14.9151H21.5879C21.5492 14.9827 21.5313 15.0604 21.5363 15.1382C21.5414 15.2161 21.5693 15.2908 21.6164 15.3527C21.6636 15.4146 21.7279 15.4611 21.8012 15.4861C21.8745 15.5112 21.9536 15.5138 22.0284 15.4936C22.1032 15.4734 22.1704 15.4313 22.2214 15.3726C22.2725 15.3139 22.3051 15.2413 22.3152 15.1639C22.3253 15.0865 22.3124 15.0078 22.2782 14.9378C22.2439 14.8678 22.1899 14.8096 22.1228 14.7706C22.0783 14.7447 22.0291 14.7278 21.9782 14.7211C21.9272 14.7143 21.8754 14.7177 21.8257 14.7312C21.7761 14.7446 21.7295 14.7677 21.6887 14.7993Z" fill="white" />
            </mask>
            <g mask="url(#mask2_621_5620)">
                <rect width="16.2822" height="3.41268" transform="matrix(0.935112 -0.354352 0.3494 0.936974 10.8952 10.9432)" fill="#FDF3A1" />
                <rect width="16.2822" height="5.18708" transform="matrix(0.935112 -0.354352 0.3494 0.936974 12.183 14.3969)" fill="#FDF3A1" />
                <rect width="16.2822" height="7.5079" transform="matrix(0.935112 -0.354352 0.3494 0.936974 13.9954 19.257)" fill="#F4C248" />
            </g>
        </g>
        <path d="M14.5361 9.62927L15.1361 11.1631L16.6577 11.768L15.1361 12.3729L14.5361 13.9068L13.936 12.3729L12.4144 11.768L13.936 11.1631L14.5361 9.62927Z" fill="white" />
        <path d="M27.2658 18.1842L27.6659 19.2067L28.6803 19.61L27.6659 20.0133L27.2658 21.0359L26.8658 20.0133L25.8514 19.61L26.8658 19.2067L27.2658 18.1842Z" fill="white" />
        <path d="M21.6082 22.5416C25.3635 22.5416 28.4067 19.473 28.4067 15.689C28.4067 11.9049 25.3635 8.83626 21.6082 8.83626C17.8528 8.83626 14.8097 11.9049 14.8097 15.689C14.8097 19.473 17.8528 22.5416 21.6082 22.5416Z" stroke="url(#paint0_radial_621_5620)" stroke-width="0.16" />
    </g>
    <g clip-path="url(#clip1_621_5620)">
        <mask id="mask3_621_5620" style="mask-type:alpha" maskUnits="userSpaceOnUse" x="5" y="13" width="14" height="15">
            <path d="M18.6002 19.194C19.2967 22.9024 16.8791 26.4688 13.2003 27.1597C9.52154 27.8506 5.9747 25.4044 5.27821 21.696C4.58173 17.9876 6.99934 14.4212 10.6781 13.7303C14.3569 13.0394 17.9037 15.4856 18.6002 19.194Z" fill="#C4C4C4" />
        </mask>
        <g mask="url(#mask3_621_5620)">
            <rect width="16.2822" height="4.77775" transform="matrix(0.853636 -0.52087 0.516346 0.85638 0.534264 17.7583)" fill="#F5D05E" />
            <rect width="16.2822" height="1.36507" transform="matrix(0.853636 -0.52087 0.516346 0.85638 3.00124 21.8499)" fill="#E7A43C" />
            <rect width="16.2822" height="4.09522" transform="matrix(0.853636 -0.52087 0.516346 0.85638 3.7061 23.0189)" fill="#F5D05E" />
            <rect width="16.2822" height="7.5079" transform="matrix(0.853636 -0.52087 0.516346 0.85638 5.82066 26.526)" fill="#E7A33C" />
        </g>
        <path d="M18.385 19.2344C19.0594 22.8249 16.7185 26.2757 13.1598 26.9441C9.60107 27.6124 6.16774 25.2461 5.4934 21.6556C4.81905 18.0651 7.15988 14.6143 10.7186 13.9459C14.2774 13.2776 17.7107 15.6439 18.385 19.2344Z" stroke="#E7A43C" stroke-width="0.32" />
        <g filter="url(#filter2_d_621_5620)">
            <mask id="mask4_621_5620" style="mask-type:alpha" maskUnits="userSpaceOnUse" x="3" y="12" width="18" height="17">
                <path fill-rule="evenodd" clip-rule="evenodd" d="M13.4525 28.5026C17.867 27.6735 20.7682 23.3939 19.9324 18.9438C19.0966 14.4937 14.8404 11.5582 10.4259 12.3873C6.01138 13.2164 3.11024 17.4961 3.94603 21.9462C4.78181 26.3963 9.03801 29.3317 13.4525 28.5026ZM13.2003 27.1597C16.8791 26.4688 19.2967 22.9024 18.6002 19.194C17.9037 15.4856 14.3569 13.0394 10.6781 13.7303C6.99935 14.4212 4.58174 17.9876 5.27822 21.696C5.9747 25.4044 9.52154 27.8506 13.2003 27.1597Z" fill="#C4C4C4" />
            </mask>
            <g mask="url(#mask4_621_5620)">
                <rect width="16.2822" height="3.41268" transform="matrix(0.853636 -0.52087 0.516346 0.85638 0.534271 17.7583)" fill="#FDF3A1" />
                <rect width="16.2822" height="1.36507" transform="matrix(0.853636 -0.52087 0.516346 0.85638 2.2964 20.6808)" fill="#F4C249" />
                <rect width="16.7441" height="4.09522" transform="matrix(0.853636 -0.52087 0.516346 0.85638 3.00127 21.8499)" fill="#FDF3A1" />
                <rect width="16.6383" height="7.82716" transform="matrix(0.853636 -0.52087 0.516346 0.85638 5.11579 25.3569)" fill="#F4C248" />
                <path d="M14.9742 28.9422L14.5795 26.8402L15.6693 28.8117L14.9742 28.9422Z" fill="#C56131" />
                <path d="M6.14517 14.642L7.48141 15.3977L5.12861 14.8329L6.14517 14.642Z" fill="#F4C249" />
                <path d="M6.14518 14.6421L7.48141 15.3977L6.32133 13.5209L6.14518 14.6421Z" fill="white" />
            </g>
        </g>
        <g filter="url(#filter3_d_621_5620)">
            <mask id="mask5_621_5620" style="mask-type:alpha" maskUnits="userSpaceOnUse" x="7" y="16" width="9" height="10">
                <path fill-rule="evenodd" clip-rule="evenodd" d="M9.49819 17.8086C10.2076 16.6093 11.646 16.0265 12.9868 16.39C14.7682 16.873 15.7418 18.773 15.1442 20.4919L13.7989 24.3549C13.7238 24.5707 13.5665 24.7474 13.3618 24.8462C13.157 24.945 12.9215 24.9578 12.7069 24.8817L14.3354 20.2041C14.769 18.9566 14.0633 17.5777 12.7713 17.2252C11.8019 16.9608 10.7564 17.3802 10.2394 18.2452C9.95389 18.7204 9.84939 19.2842 9.94529 19.8323C10.0412 20.3803 10.331 20.8752 10.761 21.2253C10.8382 21.2881 10.9195 21.3458 11.0042 21.3978L10.0543 24.133C10.0172 24.2399 9.95949 24.3384 9.88451 24.4227C9.80953 24.507 9.71875 24.5756 9.61736 24.6246C9.51596 24.6735 9.40594 24.7018 9.29357 24.7078C9.1812 24.7139 9.06868 24.6976 8.96244 24.6598L9.9936 21.6904C9.71299 21.4115 9.48715 21.0816 9.32802 20.7184L8.69675 22.5413C8.62155 22.7572 8.46432 22.9339 8.25957 23.0327C8.05483 23.1315 7.8193 23.1442 7.60472 23.0682L9.23919 18.3649C9.30767 18.1715 9.3944 17.9852 9.49819 17.8086ZM12.5591 18.633C13.2088 18.864 13.5535 19.5844 13.3255 20.2382L11.7562 24.7379C11.681 24.9538 11.5238 25.1305 11.319 25.2293C11.1143 25.3281 10.8787 25.3409 10.6642 25.2648L12.1194 21.0766C11.9387 21.0724 11.761 21.0287 11.5985 20.9486C11.436 20.8685 11.2926 20.7538 11.1782 20.6125C11.0638 20.4713 10.9811 20.3068 10.9358 20.1304C10.8905 19.954 10.8838 19.7699 10.916 19.5908C10.9482 19.4118 11.0187 19.242 11.1224 19.0933C11.2262 18.9445 11.3608 18.8203 11.517 18.7293C11.6733 18.6382 11.8473 18.5824 12.0272 18.5658C12.2072 18.5492 12.3886 18.5721 12.5591 18.633ZM11.8542 19.5557C11.8199 19.5942 11.7935 19.6392 11.7766 19.6881L11.7765 19.6881C11.7509 19.7617 11.7476 19.8413 11.7669 19.917C11.7863 19.9926 11.8275 20.0608 11.8852 20.1129C11.943 20.1651 12.0148 20.1989 12.0915 20.21C12.1682 20.2211 12.2464 20.2091 12.3161 20.1754C12.3859 20.1417 12.4442 20.088 12.4835 20.0208C12.5229 19.9537 12.5415 19.8763 12.5372 19.7984C12.5328 19.7205 12.5056 19.6455 12.4591 19.583C12.4125 19.5206 12.3486 19.4733 12.2755 19.4474C12.2269 19.4301 12.1755 19.4226 12.1242 19.4254C12.0728 19.4282 12.0226 19.4411 11.9762 19.4634C11.9299 19.4858 11.8884 19.5171 11.8542 19.5557Z" fill="white" />
            </mask>
            <g mask="url(#mask5_621_5620)">
                <rect width="16.2822" height="3.41268" transform="matrix(0.853636 -0.52087 0.516346 0.85638 0.534294 17.7583)" fill="#FDF3A1" />
                <rect width="16.2822" height="5.18708" transform="matrix(0.853636 -0.52087 0.516346 0.85638 2.43748 20.9148)" fill="#FDF3A1" />
                <rect width="16.2822" height="7.5079" transform="matrix(0.853636 -0.52087 0.516346 0.85638 5.11581 25.3569)" fill="#F4C248" />
            </g>
        </g>
        <path d="M3.87008 15.7948L4.74298 17.1915L6.35004 17.5052L4.9663 18.3805L4.65964 19.9988L3.78674 18.6021L2.17968 18.2884L3.56342 17.413L3.87008 15.7948Z" fill="white" />
        <path d="M17.9603 21.8531L18.5422 22.7842L19.6136 22.9933L18.6911 23.5769L18.4866 24.6557L17.9047 23.7246L16.8333 23.5155L17.7558 22.9319L17.9603 21.8531Z" fill="white" />
        <path d="M13.2041 27.1799C16.8949 26.4868 19.3194 22.9091 18.6209 19.1901C17.9224 15.4711 14.3651 13.0169 10.6743 13.7101C6.98352 14.4032 4.55905 17.9809 5.25752 21.6999C5.95599 25.4189 9.51332 27.8731 13.2041 27.1799Z" stroke="url(#paint1_radial_621_5620)" stroke-width="0.16" />
    </g>
    <g clip-path="url(#clip2_621_5620)">
        <mask id="mask6_621_5620" style="mask-type:alpha" maskUnits="userSpaceOnUse" x="5" y="4" width="14" height="14">
            <path d="M18.0908 12.9884C16.9606 16.3171 13.3675 18.1067 10.0654 16.9856C6.76323 15.8644 5.00253 12.257 6.13274 8.92826C7.26295 5.5995 10.8561 3.80989 14.1582 4.93105C17.4603 6.05222 19.221 9.6596 18.0908 12.9884Z" fill="#C4C4C4" />
        </mask>
        <g mask="url(#mask6_621_5620)">
            <rect width="15.1694" height="4.45124" transform="matrix(0.999391 -0.0348995 0.0296112 0.999561 4.08226 3.56274)" fill="#F5D05E" />
            <rect width="15.1694" height="1.27178" transform="matrix(0.999391 -0.0348995 0.0296112 0.999561 4.21407 8.01208)" fill="#E7A43C" />
            <rect width="15.1694" height="3.81535" transform="matrix(0.999391 -0.0348995 0.0296112 0.999561 4.25172 9.28333)" fill="#F5D05E" />
            <rect width="15.1694" height="6.99481" transform="matrix(0.999391 -0.0348995 0.0296112 0.999561 4.3647 13.0969)" fill="#E7A33C" />
        </g>
        <path d="M17.8873 12.9193C16.795 16.1366 13.3232 17.8643 10.1346 16.7817C6.94599 15.699 5.24388 12.2147 6.33624 8.99736C7.4286 5.78007 10.9004 4.05235 14.089 5.13497C17.2776 6.21759 18.9797 9.70198 17.8873 12.9193Z" stroke="#E7A43C" stroke-width="0.32" />
        <g filter="url(#filter4_d_621_5620)">
            <mask id="mask7_621_5620" style="mask-type:alpha" maskUnits="userSpaceOnUse" x="4" y="3" width="16" height="16">
                <path fill-rule="evenodd" clip-rule="evenodd" d="M9.65607 18.1909C13.6186 19.5363 17.9304 17.3888 19.2866 13.3943C20.6429 9.39975 18.53 5.07089 14.5675 3.72549C10.6049 2.38009 6.29317 4.52763 4.93693 8.52214C3.58068 12.5167 5.69351 16.8455 9.65607 18.1909ZM10.0654 16.9854C13.3675 18.1066 16.9606 16.317 18.0908 12.9882C19.221 9.65947 17.4603 6.05209 14.1582 4.93092C10.8561 3.80976 7.26294 5.59937 6.13273 8.92814C5.00253 12.2569 6.76322 15.8643 10.0654 16.9854Z" fill="#C4C4C4" />
            </mask>
            <g mask="url(#mask7_621_5620)">
                <rect width="15.1694" height="3.17946" transform="matrix(0.999391 -0.0348994 0.0296112 0.999561 4.08225 3.56262)" fill="#FDF3A1" />
                <rect width="15.1694" height="1.27178" transform="matrix(0.999391 -0.0348995 0.0296112 0.999561 4.1764 6.74072)" fill="#F4C249" />
                <rect width="15.5998" height="3.81535" transform="matrix(0.999391 -0.0348994 0.0296112 0.999561 4.21406 8.01196)" fill="#FDF3A1" />
                <rect width="15.5012" height="7.29225" transform="matrix(0.999391 -0.0348994 0.0296112 0.999561 4.32703 11.8257)" fill="#F4C248" />
                <path d="M10.6903 19.2435L11.331 17.3567L11.3142 19.4553L10.6903 19.2435Z" fill="#C56131" />
                <path d="M10.0617 3.59848L10.8009 4.82283L9.14921 3.28866L10.0617 3.59848Z" fill="#F4C249" />
                <path d="M10.0617 3.5985L10.8009 4.82286L10.7173 2.76894L10.0617 3.5985Z" fill="white" />
            </g>
        </g>
        <g filter="url(#filter5_d_621_5620)">
            <mask id="mask8_621_5620" style="mask-type:alpha" maskUnits="userSpaceOnUse" x="7" y="7" width="9" height="9">
                <path fill-rule="evenodd" clip-rule="evenodd" d="M11.3357 7.70211C12.4599 7.05298 13.894 7.2375 14.8162 8.14561C16.0414 9.35225 15.963 11.3397 14.6919 12.4617L11.8337 14.9824C11.674 15.1233 11.4656 15.1948 11.2542 15.1814C11.0428 15.168 10.8458 15.0707 10.7064 14.9108L14.167 11.8584C15.0893 11.0439 15.147 9.60194 14.2594 8.72512C13.5934 8.06724 12.5529 7.92966 11.7378 8.39543C11.2887 8.65059 10.9461 9.06054 10.7734 9.54924C10.6007 10.0379 10.6096 10.5722 10.7986 11.053C10.8325 11.1393 10.8722 11.2232 10.9171 11.3043L8.89552 13.0902C8.81647 13.16 8.72461 13.2136 8.62518 13.2477C8.52575 13.2819 8.4207 13.2961 8.31602 13.2895C8.21135 13.2828 8.1091 13.2555 8.01512 13.209C7.92114 13.1625 7.83726 13.0978 7.76827 13.0186L9.963 11.0797C9.86276 10.7249 9.83023 10.354 9.86713 9.98636L8.52123 11.1775C8.36149 11.3183 8.15306 11.3899 7.94169 11.3764C7.73032 11.363 7.5333 11.2657 7.39388 11.1058L10.8711 8.03528C11.0151 7.9096 11.1707 7.79803 11.3357 7.70211ZM13.4434 9.77081C13.8652 10.2554 13.8157 10.9977 13.3316 11.4242L10.0004 14.3594C9.84063 14.5002 9.63219 14.5718 9.42082 14.5583C9.20945 14.5449 9.01243 14.4476 8.87301 14.2877L11.9692 11.5534C11.8245 11.4673 11.7002 11.3506 11.6049 11.2113C11.5097 11.0719 11.4457 10.9133 11.4174 10.7463C11.3891 10.5793 11.3972 10.408 11.4411 10.2441C11.485 10.0802 11.5637 9.92768 11.6717 9.79706C11.7797 9.66644 11.9145 9.56083 12.0668 9.48753C12.219 9.41423 12.3851 9.37497 12.5535 9.37248C12.722 9.36998 12.8888 9.40431 13.0424 9.47308C13.1961 9.54185 13.3329 9.64343 13.4434 9.77081ZM12.4493 10.1975C12.4039 10.2131 12.3619 10.2376 12.3258 10.2695L12.3257 10.2694C12.2713 10.3175 12.2322 10.3806 12.2134 10.4509C12.1945 10.5211 12.1967 10.5953 12.2198 10.664C12.2428 10.7328 12.2856 10.793 12.3428 10.8371C12.4 10.8812 12.469 10.9072 12.541 10.9118C12.613 10.9163 12.6849 10.8993 12.7475 10.8628C12.8101 10.8263 12.8607 10.772 12.8928 10.7068C12.9249 10.6415 12.9371 10.5683 12.9279 10.4962C12.9186 10.4242 12.8883 10.3567 12.8409 10.3022C12.8094 10.266 12.771 10.2364 12.7281 10.2152C12.6851 10.1939 12.6384 10.1814 12.5906 10.1784C12.5428 10.1754 12.4948 10.1818 12.4493 10.1975Z" fill="white" />
            </mask>
            <g mask="url(#mask8_621_5620)">
                <rect width="15.1694" height="4.83259" transform="matrix(0.999391 -0.0348994 0.0296112 0.999561 4.18394 6.99524)" fill="#FDF3A1" />
                <rect width="15.1694" height="6.99481" transform="matrix(0.999391 -0.0348995 0.0296112 0.999561 4.32705 11.8257)" fill="#F4C248" />
            </g>
        </g>
        <path d="M7.68787 3.49401L7.75784 5.02689L8.91895 6.0163L7.39545 6.09422L6.40663 7.2676L6.33666 5.73473L5.17555 4.74532L6.69905 4.6674L7.68787 3.49401Z" fill="white" />
        <path d="M16.3556 14.8542L16.4022 15.8761L17.1763 16.5357L16.1607 16.5877L15.5014 17.3699L15.4548 16.348L14.6807 15.6884L15.6964 15.6365L16.3556 14.8542Z" fill="white" />
        <path d="M10.0574 17.0089C13.3733 18.1347 16.9802 16.3375 18.1146 12.9964C19.249 9.65535 17.482 6.03353 14.1661 4.90771C10.8503 3.7819 7.24337 5.57912 6.10898 8.9202C4.97459 12.2613 6.74161 15.8831 10.0574 17.0089Z" stroke="url(#paint2_radial_621_5620)" stroke-width="0.16" />
    </g>
    <defs>
        <filter id="filter0_d_621_5620" x="13.4752" y="7.49048" width="16.2659" height="16.7171" filterUnits="userSpaceOnUse" color-interpolation-filters="sRGB">
            <feFlood flood-opacity="0" result="BackgroundImageFix" />
            <feColorMatrix in="SourceAlpha" type="matrix" values="0 0 0 0 0 0 0 0 0 0 0 0 0 0 0 0 0 0 127 0" result="hardAlpha" />
            <feOffset dy="0.32" />
            <feComposite in2="hardAlpha" operator="out" />
            <feColorMatrix type="matrix" values="0 0 0 0 0.772549 0 0 0 0 0.380392 0 0 0 0 0.192157 0 0 0 1 0" />
            <feBlend mode="normal" in2="BackgroundImageFix" result="effect1_dropShadow_621_5620" />
            <feBlend mode="normal" in="SourceGraphic" in2="effect1_dropShadow_621_5620" result="shape" />
        </filter>
        <filter id="filter1_d_621_5620" x="16.864" y="11.5897" width="8.30484" height="9.03692" filterUnits="userSpaceOnUse" color-interpolation-filters="sRGB">
            <feFlood flood-opacity="0" result="BackgroundImageFix" />
            <feColorMatrix in="SourceAlpha" type="matrix" values="0 0 0 0 0 0 0 0 0 0 0 0 0 0 0 0 0 0 127 0" result="hardAlpha" />
            <feOffset dy="0.32" />
            <feComposite in2="hardAlpha" operator="out" />
            <feColorMatrix type="matrix" values="0 0 0 0 0.772549 0 0 0 0 0.380392 0 0 0 0 0.192157 0 0 0 1 0" />
            <feBlend mode="normal" in2="BackgroundImageFix" result="effect1_dropShadow_621_5620" />
            <feBlend mode="normal" in="SourceGraphic" in2="effect1_dropShadow_621_5620" result="shape" />
        </filter>
        <filter id="filter2_d_621_5620" x="3.80255" y="12.2472" width="16.2733" height="16.7155" filterUnits="userSpaceOnUse" color-interpolation-filters="sRGB">
            <feFlood flood-opacity="0" result="BackgroundImageFix" />
            <feColorMatrix in="SourceAlpha" type="matrix" values="0 0 0 0 0 0 0 0 0 0 0 0 0 0 0 0 0 0 127 0" result="hardAlpha" />
            <feOffset dy="0.32" />
            <feComposite in2="hardAlpha" operator="out" />
            <feColorMatrix type="matrix" values="0 0 0 0 0.772549 0 0 0 0 0.380392 0 0 0 0 0.192157 0 0 0 1 0" />
            <feBlend mode="normal" in2="BackgroundImageFix" result="effect1_dropShadow_621_5620" />
            <feBlend mode="normal" in="SourceGraphic" in2="effect1_dropShadow_621_5620" result="shape" />
        </filter>
        <filter id="filter3_d_621_5620" x="7.60471" y="16.2828" width="7.71559" height="9.35101" filterUnits="userSpaceOnUse" color-interpolation-filters="sRGB">
            <feFlood flood-opacity="0" result="BackgroundImageFix" />
            <feColorMatrix in="SourceAlpha" type="matrix" values="0 0 0 0 0 0 0 0 0 0 0 0 0 0 0 0 0 0 127 0" result="hardAlpha" />
            <feOffset dy="0.32" />
            <feComposite in2="hardAlpha" operator="out" />
            <feColorMatrix type="matrix" values="0 0 0 0 0.772549 0 0 0 0 0.380392 0 0 0 0 0.192157 0 0 0 1 0" />
            <feBlend mode="normal" in2="BackgroundImageFix" result="effect1_dropShadow_621_5620" />
            <feBlend mode="normal" in="SourceGraphic" in2="effect1_dropShadow_621_5620" result="shape" />
        </filter>
        <filter id="filter4_d_621_5620" x="4.52625" y="3.32422" width="15.1711" height="15.5879" filterUnits="userSpaceOnUse" color-interpolation-filters="sRGB">
            <feFlood flood-opacity="0" result="BackgroundImageFix" />
            <feColorMatrix in="SourceAlpha" type="matrix" values="0 0 0 0 0 0 0 0 0 0 0 0 0 0 0 0 0 0 127 0" result="hardAlpha" />
            <feOffset dy="0.32" />
            <feComposite in2="hardAlpha" operator="out" />
            <feColorMatrix type="matrix" values="0 0 0 0 0.772549 0 0 0 0 0.380392 0 0 0 0 0.192157 0 0 0 1 0" />
            <feBlend mode="normal" in2="BackgroundImageFix" result="effect1_dropShadow_621_5620" />
            <feBlend mode="normal" in="SourceGraphic" in2="effect1_dropShadow_621_5620" result="shape" />
        </filter>
        <filter id="filter5_d_621_5620" x="7.39388" y="7.31628" width="8.29784" height="8.1867" filterUnits="userSpaceOnUse" color-interpolation-filters="sRGB">
            <feFlood flood-opacity="0" result="BackgroundImageFix" />
            <feColorMatrix in="SourceAlpha" type="matrix" values="0 0 0 0 0 0 0 0 0 0 0 0 0 0 0 0 0 0 127 0" result="hardAlpha" />
            <feOffset dy="0.32" />
            <feComposite in2="hardAlpha" operator="out" />
            <feColorMatrix type="matrix" values="0 0 0 0 0.772549 0 0 0 0 0.380392 0 0 0 0 0.192157 0 0 0 1 0" />
            <feBlend mode="normal" in2="BackgroundImageFix" result="effect1_dropShadow_621_5620" />
            <feBlend mode="normal" in="SourceGraphic" in2="effect1_dropShadow_621_5620" result="shape" />
        </filter>
        <radialGradient id="paint0_radial_621_5620" cx="0" cy="0" r="1" gradientUnits="userSpaceOnUse" gradientTransform="translate(27.3189 19.7526) rotate(154.621) scale(6.32073 6.35305)">
            <stop stop-color="white" />
            <stop offset="1" stop-color="white" stop-opacity="0" />
        </radialGradient>
        <radialGradient id="paint1_radial_621_5620" cx="0" cy="0" r="1" gradientUnits="userSpaceOnUse" gradientTransform="translate(18.3019 23.3847) rotate(143.984) scale(6.32073 6.35305)">
            <stop stop-color="white" />
            <stop offset="1" stop-color="white" stop-opacity="0" />
        </radialGradient>
        <radialGradient id="paint2_radial_621_5620" cx="0" cy="0" r="1" gradientUnits="userSpaceOnUse" gradientTransform="translate(15.9326 16.2538) rotate(173.375) scale(5.88877 5.91888)">
            <stop stop-color="white" />
            <stop offset="1" stop-color="white" stop-opacity="0" />
        </radialGradient>
        <clipPath id="clip0_621_5620">
            <rect width="21.2164" height="17.11" fill="white" transform="translate(11 7.49048)" />
        </clipPath>
        <clipPath id="clip1_621_5620">
            <rect width="21.2164" height="17.11" fill="white" transform="translate(0 14.3455) rotate(-10.6369)" />
        </clipPath>
        <clipPath id="clip2_621_5620">
            <rect width="19.7664" height="15.9407" fill="white" transform="translate(5.20898 0.548096) rotate(18.7538)" />
        </clipPath>
    </defs>
</svg>
    