<svg xmlns="http://www.w3.org/2000/svg" width="250" height="250" fill="none"><g clip-path="url(#a)"><path fill="#2684FF" d="m218.678 119.462-85.395-85.143-8.275-8.25-64.283 64.093-29.395 29.3a7.838 7.838 0 0 0 0 11.076l58.728 58.555 34.95 34.838 64.275-64.093 1.001-.99 28.394-28.266a7.818 7.818 0 0 0 0-11.12Zm-93.67 34.793L95.666 125l29.342-29.255L154.341 125l-29.333 29.255Z"/><path fill="url(#b)" d="M125.008 95.745a49.172 49.172 0 0 1-14.47-34.675 49.17 49.17 0 0 1 14.257-34.762L60.592 90.293l34.941 34.838 29.475-29.387Z"/><path fill="url(#c)" d="m154.421 124.921-29.413 29.334a49.188 49.188 0 0 1 14.467 34.829 49.188 49.188 0 0 1-14.467 34.829l64.381-64.155-34.968-34.837Z"/></g><defs><linearGradient id="b" x1="119.754" x2="78.901" y1="66.145" y2="107.11" gradientUnits="userSpaceOnUse"><stop offset=".18" stop-color="#0052CC"/><stop offset="1" stop-color="#2684FF"/></linearGradient><linearGradient id="c" x1="7506.27" x2="11682.8" y1="8615.53" y2="11331.2" gradientUnits="userSpaceOnUse"><stop offset=".18" stop-color="#0052CC"/><stop offset="1" stop-color="#2684FF"/></linearGradient><clipPath id="a"><path fill="#fff" d="M29 26h192v198H29z"/></clipPath></defs></svg>