<svg xmlns="http://www.w3.org/2000/svg" width="250" height="250" fill="none"><g clip-path="url(#a)"><path fill="#312A65" d="M219.977 124.565c.423 52.265-41.642 95.009-93.853 95.432-52.21.423-94.909-41.686-95.332-93.951-.423-52.266 41.642-95.22 93.853-95.432 52.211-.424 94.909 41.474 95.332 93.951"/><path fill="#5B5480" d="M137.332 30.19h.211-.211Zm-1.903-.423h.423-.423m-.211.212h-.634.634Zm56.016 26.662-.212-.212c-1.479-1.481-2.959-2.75-4.227-3.809l-.634-.423a46.409 46.409 0 0 1 4.861 4.232l.423.423c0-.211 0-.211-.211-.211m24.097 36.183s0 .212 0 0Zm-.846-1.904c.212.635.635 1.27.846 1.904v-.211c0-.212 0-.212-.211-.423v-.212c-.212-.212-.423-.635-.635-1.058m-5.284-11.003c-1.057-1.905-2.114-3.597-3.171-5.29 1.057 1.48 1.903 2.962 2.748 4.655.212.212.423.423.423.635ZM191.234 56.64l.634.634-.634-.634c.211 0 .211 0 0 0Zm11.626 122.728-.423.424c1.268-1.693 2.536-3.386 3.593-5.29-.634.846-1.691 2.539-3.17 4.866Zm7.186-11.638c1.269-2.116 2.114-4.232 3.171-6.348v.212c-1.057 2.116-2.114 4.232-3.171 6.136Zm6.13-14.812c0 .212 0 .212 0 0 .635-1.904 1.269-4.02 1.692-5.925-.423 2.116-1.057 4.021-1.692 5.925Zm3.594-42.532.634 4.444-.634-4.444ZM114.08 58.122v-1.27h-.845l-.846.423.211 1.058h1.057l.423-.211m-2.959-1.481v-.424c-.212 0-.212.212-.423.212h-.423c-.211 0-.634.212-.845.423-.212 0-.212.212-.423.212.211 0 .211.211.423.423h.422c.212 0 .423-.212.635-.423.422-.212.422-.212.634-.423m6.341-15.87.846-.212-.634-.635h-2.114v1.058h1.268l.634-.212m16.488-11.003-1.057-.211h-.212.212l1.48.211 1.056.212h2.114l-1.902-.212h.211-1.902m2.748.212h-.634l-.846-.212h-.211c.422 0 .845 0 1.057.212h.634-.423l.845.211-.422-.211c.422.211.845.211 1.057.211-.212 0-.635 0-.846-.211.211 0 .634 0 .846.211h1.691c-.212 0-.846-.211-1.48-.211h-1.268Zm3.593 1.058c-.211 0-.634 0-.845-.212h.211l-1.268-.211c.422 0 .845.211 1.268.211h-.211l-.635-.211h-.634.423-.211l1.902.423c-.634 0-1.057 0-1.48-.212h-.422c.422 0 1.268.212 1.479.212h.423-.211c.211 0 .423 0 .634.211l.634.212h.634c.212 0 .423.212.634 0-.211-.212-.422 0-.845-.212h.423c0 .212 0 .212-1.903-.211m8.033 1.904h-.212c-.211 0-.423-.211-.634-.211l-1.057-.212c-.634-.212-1.48-.423-2.114-.423 0 0-1.057-.212-1.268-.212h.211-.422l-.846-.211c-.634.211-1.268-.212-2.114-.424.423 0 .635.212 1.057.212h.423c1.268.212 1.268.212 1.691.423-.211 0-.634 0-.845-.211h-1.057l-.634-.212c.422 0 .634.212 1.056.212h-.634c-.211 0-.634-.212-.845-.212l.634.212c1.48.423 2.748.634 4.227 1.058-.422 0-1.056-.212-1.479-.424.211 0 1.902.424 2.114.424-.423-.212-.635-.212-1.057-.212.422 0 .845.212 1.268.212-.211 0-1.057-.212-1.268-.424l-.423-.211c.423 0 .423 0 1.268.211l-.634-.211h.211c.212 0 .635.211.846.211h.211-.211.211l.635.212.634.212h-.212.212l-.634-.212c.211 0 1.268.423 1.268.423h-.212c1.057.423 2.326.635 3.382.847l-2.747-.847c-.635-.211-1.057-.423-1.48-.423l-1.903-.635c2.114.635 2.114.635 4.017 1.058-.212 0-.634-.211-.846-.211.423 0 .846.211 1.268.211h-1.056m43.121 24.546-.211-.212-.212-.211s0 .211.423.423m-22.406-16.505-1.268-.635h.211l1.057.635Zm7.821 4.232-5.496-3.174c-.211 0-.423-.212-.423-.212l.634.424-.845-.424h-.212l-.845-.423.423.212c-.212 0-.423-.212-.423-.212l-.423-.211-.634-.424c-.423-.211-.845-.423-1.057-.423l.846.423s-.212-.211-.423-.211l-.423-.212-.423-.211c.635.423.635.423 1.269.634l.211.212.211.212c-.634-.424-.845-.424-1.268-.635l-.634-.423c.423.211 1.48.846 1.48.846-.212 0-.423-.212-.846-.423h-.211c.423.423 1.057.635 1.479.846.212.212.423.212.635.423h-.423c1.057.635 1.268.635 1.479.847l-1.902-.846c.211.211.423.211.423.423.634.211 1.268.634 1.902 1.058-.211 0-.211 0-.845-.424.211.212.845.635.845.635.212.212.423.212.846.423l.211.212.211.212c-.634-.212-1.056-.424-1.691-.847.423.212.635.423.846.635h-.211c.211.212.634.423.845.635l.423.423c.211.212.423.212.423.423l.211.212h.211l-.422-.423-.212-.212v-.423c.212 0 .423.212.634.212.212.423 5.073 4.02 5.073 4.231l-.211-.211c.211.423.634.846 1.057 1.27h.211c.212.211.212.211 1.903 2.115h-.423l.423.424.423.423v.212c.422.423.634 1.058 1.056 1.48.423 1.059 1.269 1.482 2.114 2.117l.212.211.422.424h.212c1.268-.212.845 1.692 1.902 1.692l.634.635c.423 0 .846 0 1.269-.211-.212-.212-.212-.424-.423-.635h.211v-.212l-.423-.423s.423 0 1.269 1.058c.423-.212.845-.212 1.479-.423-.422-.635-.845-1.058-1.268-1.481l-.211-.212-1.903-1.27c-.634-.423-1.268-1.058-1.902-1.692-2.114-2.117-4.439-4.02-6.976-5.925l.846.423c-.211 0-.211-.212-.423-.212.212.212.634.423.846.635l.845.635c.634.423 1.268.846 1.903 1.481h-.212c.634.635.634.635 4.439 3.809l.212.212c.422.423 1.056.846 2.325 1.692l-.423-.423h.211c0-.211-.211-.211-.422-.423v-.212l-.212-.211.423.423.211.212c.635.423 1.057 1.058 1.691 1.48-.211 0-.211-.21-.422-.422 0 .211.211.211.211.423h-.634c.211.211.423.635.845.846.212-.211.212-.423 0-.635l-.422-.423c-7.399-6.348-7.61-6.56-11.838-9.522l-1.479-1.058c-.634-.423-.634-.423-1.691-1.058 0-1.481.634-1.058.634-1.058m12.26 13.331c-.423 0-.846.212-1.268.212l.211.211.211.212.212.211h.211l.423.424v-.212h.211v-.635s-.211-.211-.211-.423m1.691-.635c-.423.212-.846.423-1.48.423.212.212.634.424.846.847l.845.846c.212.212.423.423.634.423l.212.212.211.212c.423.423.634.634 1.057.846l.846.846v.212l.422.423.423-.211c-.845-.847-.845-.847-.845-1.058l.211.211c0-.211-.211-.211-.211-.423l-.635-.635h.212l-.634-.635c-.212 0-.212-.211-.423-.211-.423-.635-.846-1.058-1.268-1.481 0-.212-.212-.424-.423-.847m10.146 9.522c-2.748-3.385-6.553-7.617-9.723-10.58.211.212.211.423.211.635.423.423.634.846 1.057 1.058 0-.212 0-.212-.423-.635.423.212.423.212 2.325 2.328l-.634-.635h-.211l-.423-.423h-.211c1.268 1.27 2.325 2.75 3.593 4.02l.212.212h-.423c.423.423.634.846 1.057 1.27-.423-.212-.634-.635-1.057-.847.211.423.423.846.634 1.481l-.211.212v.211h-.212c-.211-.211-.423-.423-.634-.846h-.211v.212l-.212.211c0 .212 0 .212.423.847h-.211c-.212 0-.212 0-.846-.635h-.211l-.423-.423s-.211-.212-.211-.424c0-.211 0-.211.211-.211l.634.423c0-.423-1.057-1.693-1.691-2.328-.211-.211-.211 0-.211 0 0 .212 0 .212.211.847-.211-.212-.211-.212-.634-.847l-.423-.423h-.211c-.423-.635-1.057-1.27-1.691-1.904 0 .423.634.846.634 1.27 0 .211.211.211.211.423l.212.211c.634.847 1.479 1.905 2.113 2.54l.212.211c.211.212.211.423.423.635l.845.846c.211.212.211.423.423.635h-.212l-.211.212h-.634v.634c.211.212.423.635.423.847 0 .211 0 .423.211.635l.423.211.634.847c-.211.211-.211.211 0 1.27v.21h-.211c.211.636.634 1.059.845 1.482-.211 0-.211.212-.423.212 0 .423.212.635.423.846h-1.057l-.211-.212c-.212 0-.212-.211-.423-.211.211.212.211.635.423.846.211.212.423.635.634 1.058l.211.212c0 .212.212.212.212.423-.423.212-1.057 0-1.269-.212-.211 0-.211.212-.422.212-.212.212-.212.423.211.846h.211c.423.424.846.424.846.424h.211c.423.423.846.846 1.48 1.27.211.422.423.846.846 1.48 1.902 2.117 1.902 2.117 2.536 4.656 0 .211 0 .211-.211.423l-.212.212c-.422-.212-1.057-.212-1.479-.635-.634 0-1.057 0-1.48.211-.634 0-.634 0-.845-.211h.422v.211c0 .212.212.212.212.424-.212.211-.423.211-.634.211v.212c.845.846.845 2.116 1.691 2.962.211.635.422 1.27.634 1.693 0 .846.211 1.693.634 2.54 0 .21.211.21.211.422v.424c0 .423 0 .634.423 1.48h.423c.211 0 .211-.21.423-.21l.422.422c.212 0 .212-.211.423-.211.211.211.634.423.846.423.211.423.422.635.634 1.058v-.635c.845 0 .211-1.481 1.268-1.481.423-.635.423-1.693 1.268-2.116l-.423-1.058c-.634-.635-.845-1.693-1.056-2.54v-.422c0-.212.211-.212.211-.212 0-.635 0-.635.211-1.27.212 0 .212 0 .423-.211 0-.212-.211-.635-.423-.847l-.211-.211c-.846-1.481-1.268-2.328-.211-1.905.211.212.422.212.634.424h.422v-.212c-.211-.423-.211-.635-.422-1.058 0-.212.211-.212.211-.212l.211-.211c0-.212 0-.635-.211-.847 1.48.212 1.268 1.693 2.114 2.54.211.211.423.423.423.634 1.691 1.482 2.959 3.386 4.016 5.502v.846c-.212 0-.423 0-.634.212 0 0 .211.212.211.423.423.423.423.847.846 1.27h.422l-.422-1.058c0-1.058-.423-2.116-.635-3.174 0 0 0-.212-.211-.212h-.211s-.212-.211-.212-.423l-.211-.423h.211c.212.211.423.423.423.635-.211-1.27-1.268-1.905-1.902-2.963-.423-.211-1.903-2.328-2.114-2.54-.211-.21-.423-.634-.423-.846h-.211c-.212-.211-.423-.423-.423-.634v-.635c-.211-.212-.423-.635-.634-.846h.211c1.057 1.057 2.325 2.327 3.171 3.808.634.847 1.268 1.905 1.902 2.751 1.269 2.751 1.269 2.751 1.48 2.963l.634 1.27v-.212c0 .211 0 .423.634 1.48v-.634c.212.635.634 1.27.846 1.904h.211c0-.211 0-.634-.211-.846l-.212-.423c0-.212-.211-.423-.211-.635l.211.212c-.211-.424-.211-.847-.422-1.27 0-.212-.212-.635-.423-.846 0 .211.211.423.211.634-.211-.423-1.268-2.327-1.268-2.327s0-.212-.211-.212v-.211c0 .211.211.211.211.423-.211-.423-.423-.847-.423-1.27.212.212.423.635.634 1.058 0 .212.212.423.212.423.211.847.634 1.482 1.057 2.328l.211.423c0 .212.211.212.211.423 0 .212.212.424.212.847v.635c0 .211.211.423.211.634v.424c0 .211.212.634.212.846v.212l-.212-.424s0-.211-.211-.423c0-.211-.212-.423-.212-.635 0-.211 0-.211-.211-.423-1.48-3.597-3.805-8.464-5.496-12.061-4.439-9.099-5.284-10.368-7.821-13.966m-17.967-7.194v.423l.211.212s0 .211.212.423c0 .211.211.211.211.211h.211v-.423c-.211-.211-.211-.423-.211-.423l-.211-.212v-.211c-.212.211-.212.211-.423 0m12.048 9.522c-.211-.212-.211-.423-.422-.423-.423-.212-.634-.635-1.057-1.058 0 .211.423.423.211.634l-1.268-1.48h-.211c-.423-.636-1.057-1.482-1.269-1.27l-.211-.212c-.211-.212-.634-.423-.846-.635-.422-.211-.634-.635-.845-.846-.423-.212-.846-.212-1.057-.423l-.211-.635h.211l-.211-.212c-.212-.211-.212-.635-.423-.846-.212-.212-.423-.635-.846-.847l-1.057.212c-.845-1.481-.845-1.693-1.056-1.693h-.635l.635 1.058c.211.212.634.423.634.847-.212.211-.423-.212-.846-.212.212.635.634 1.058 1.057 1.058l.211.212.212.211.634.635c-.211.212-.211.212.211.846h.212l.634.424h.211c-.211-.212-.211-.212-.211-.424.423.424.845.847 1.057 1.27v.212c.211.211.211.423.422.423h.635v-.212c.845.212.845 1.27 1.691 1.481.211.424.845.635.845 1.27-.211 0-.423-.212-.845-.212v.212s0 .212.211.212h-.211c.211.423.211.423.422.423.423-.423.423 0 .635.423h-.212c0 .212 0 .212.212.423h-.212c0 .212.423.847.634.635 0 0 0-.212.212-.212l1.057.212s.634.635-.212.635v.423l-.211.212c.423.846.423.846.423 1.27l.211.21c.211 0 .211-.21.211-.21v-.424l.423.212h.423l-.423-.635h.846v-.423c.211 0 .422.211.634.423 0 0 .211 0 .423-.212 0 0-.212-.211 0-.423h.211v-.212c-.211-.211-.423-.634-.846-.846v-.212l-.211-.211h.211l-.211-.423-.846-.635m-6.341-2.751-1.057-1.058c-.211-.212-.211-.212-.423-.212l-.211-.211s0 .211-.211.211v.424c-.212-.212-.423-.212-.634-.424h-.212c.212.424.634.847.846 1.27v.212h-.212l-.211.211-.211-.211h-.212l1.268 1.692h.423l.423.847h-.211c0 .211 0 .423.211.423.211.212.211.423.423.635v.212c.211.634.845.846.845.846 0-.212.212-.212.423 0v-.847l1.057-.211c0-.212-.211-.212-.211-.423l-.212-.212c-.211-.212-.211-.212-.211-.423a4.613 4.613 0 0 0-1.057-1.693l-.423-.423h.211c-.211-.212-.211-.423-.211-.635m30.65 41.474-1.479-7.195c-.423-.634-.635-1.48-1.057-2.116-.212 1.482.634 2.751.845 4.232l-.211-.211c-.212-.423-.423-.635-.634-1.058-.212 0-.423.211-.423.211l-4.862-9.31c-.211.635-1.057 1.058-1.48 1.693-.634-.847-.634-.847-1.268-1.058-.211.423-.423.846-.423 1.481-.422 0-.845.212-1.268.423.212 1.27.212 1.27 0 1.693h-.634l-.423.423h-1.057c-.422.212-1.057 0-1.479-.423l-.423-.212c0 .847.211 1.905.423 2.751-.423 0-.634.212-1.057.212l.634 2.539c-.423 0-.846.212-1.057.635.211 1.269.423 2.751.634 4.02 0 .424.212.635.212 1.058l-1.057.212c0 .846-.212 1.904-.634 2.751-2.537 1.693-.212 4.867-2.326 6.559h-.211l-.423.212c0 .212 0 .212-.845 4.867v1.058h1.691c0 .211.211.423.211.423-.423 1.058-.423 1.058-.423 5.29v1.058c-.211.635-.211.635-.845 1.27 0 .634.211 1.481.211 2.116v.634c0 1.482.212 1.693 1.268 3.175h.635c.211.423.422 1.057.422 1.692h.635c-.212 2.751-.212 2.751 1.902 3.809 0 .635-.211 1.058-.211 1.693.845.635 1.056 1.693 2.325 2.116.422-.423.422-1.058.845-1.481.423 0 .846 0 1.057-.212h1.268l.212.423c1.479-.211 1.479-2.327 3.382-2.327l.211-.212c.212-.423.423-.635.634-.846l.423.211c-.211 2.116-.211 2.116.212 2.54.634-.212 1.056-.212 1.691-.424-.212.635-.212 1.27-.423 2.328-3.805 15.235-3.805 15.235-4.651 16.505 0 .211-.211.423-.211.635-1.48 3.385-2.536 5.713-10.358 17.563l-1.902 2.539c-2.114 2.751-4.65 5.501-7.187 8.041l-.423.423c-.845.635-.845.635-1.268 1.058-.845.846-.845.846-1.268 1.058l.211-.212c2.96-2.751 6.553-6.348 9.301-9.099 3.382-3.808 3.382-3.808 9.089-11.849 2.748-4.232 2.748-4.232 6.976-13.331 2.114-4.655 2.114-4.655 4.862-14.389 1.691-7.406 2.747-15.024 2.747-22.641.212-4.867.212-4.867-1.268-15.024m-45.235 58.402c.211-2.963-.211-3.174-.634-3.597h-1.48c-1.48-.424-1.691-2.963-3.805-2.328h-1.902c-1.268-.635-2.114-1.058-2.325 0-.423.212-.634.423-1.48-.212 0-.211 0-.211.846-.846-2.114-1.27-2.114-1.27-3.171-1.481-.212 0-.423 0-.634-.212-.423-.423-1.057-.423-1.691-.211 0 .423-.212.846-.212 1.481h-1.268c0-.212 0-.635.211-.847l.635-.634.422-.212v-.423s-.634-.212-1.691-.423h-.845l-.423.211c0 .847-.211 1.27-1.48 1.058 0-.211 0-.635.212-.846 2.113-2.116 2.113-2.116 1.479-3.174h-.845c0-.635 0-1.058.211-1.693l-.634-1.904s-3.171-1.482-4.016-1.905c-.846-.423-1.691.212-2.325.212h-.846c-2.959-.423-3.171-1.058-3.805-2.963-.211 0-.211 0-1.902-.846v-.423c-1.057-.212-1.057-.847-1.057-1.481h-.634c-1.268.423-1.268.423-1.691.423 0-.423-.212-.847-.212-1.27.212 0 .423-.211.635-.423-.212-.423-.423-.423-1.48-.635l-.846.635h-.211c-.423-.212-.845-.212-1.268-.212-.634 1.482-.634 1.482-1.269 1.482-.634-.424-1.268-1.27-2.113-1.27-.634 0-1.269 0-2.114-.212l-.846-.211c0-.423 0-.635-.422-.847-1.057 0-1.691-1.058-2.748-.634 0 .423-.212.846-.423 1.058-.634 0-1.057.211-1.48.634-.423.847.423 1.905 0 2.751-1.691-.846-.211-2.539-1.057-3.597.212-.635 1.48-1.693 1.48-1.693l-.211-.423h-.635c-1.056.212-1.056.212-1.056 1.27h-2.114c-.846.846-2.114 1.269-3.171 1.058 0 .634 0 1.269-.211 1.904-.423.423-.846.423-1.269.423-.211.423-.422 1.058-.634 1.481-1.268.847-1.479 1.482-1.479 1.905.211.211.422.211.845.211 0 1.27 1.48 2.751 0 3.809-.211 1.905-.211 1.905-.634 2.328h-.846c0 .211.212.846.212 1.058-.212.211-.634.423-.846.423v.635c-.845.211-1.479.211-1.268 1.693-.423 0-.845 0-1.268.211 0 .847 0 1.693.211 2.539l.423.212a1.344 1.344 0 0 1 1.268 0c0 .212 0 .635-.211.846-.423.212-.846.212-1.268.424 0 .634 0 .634-.846 1.269-.211.635-.211.635.423 1.481v.212c.211 2.751 4.016 2.962 4.439 5.713v.635c4.862 6.983 4.861 6.983 5.496 6.983 0 0 2.325.423 4.861 3.174h.846v4.444c0 .211 0 .211-.211.423 0 .211-.212.423 0 .846v1.058s0 .212-.212.423c0 .212 0 .635.212.847v.635c-.212.846-.846 1.481-.846 2.327-.211 1.058-.634 2.116-1.057 3.174v.212c.634 2.962.634 3.597-.845 4.867v1.058c-.212.634-.846 1.058-1.269 1.693.634 1.058.423 1.481 0 2.75l.212.424c.211.211.211.423.211.634l-.423.212c-.211.846-.211.846-.211 1.058l.423.212h.634v-1.27h.634c0 .212 0 .423-.211.635l-.423.211v.847l-.212 1.481c-.211-.212-.422-.212-.422-.423v-.423h-.212c0 .211 0 .211.423.634.211.212.211.424.211.635-.211-.211-.634-.423-.845-.423 0 .212 0 .212-.423.635v.423c.212 0 .634.212.846.212v.423h.422c0 .211 0 .211.212.423-.846 0-.846 0-1.268.212 0 .211 0 .211.211.423l.211.211v.424c0 .211.212.423.423.634h-.211.211s.211 0 .211.424h.423v.211c.212.423.846.635 1.057 1.058h.423l.211.212c.212.211.634 0 .846.211h1.479c.212-.211.212-.211.423-.211-.211 0-.634 0-.845-.212 0 0 0-.211-.423-.211 0-.212 0-.635-.211-.847 0-.211 0-.423-.212-.846v-.212c0-.211 0-.423.212-.635h.634v-.423c.634-.423 1.268-1.058 1.902-1.481 0 0 0-.212-.211-.212h-.423c-.634-.634-.634-.634-.634-.846v-.212c.211-.211.423-.211.845-.423h1.057c0-.423.212-.635.423-1.058.211-.211.423-.635.634-1.058.846 0 .846 0 1.057-.423l-.211-.212c-.212.212-.423.212-.846.212v-1.27h.634l.423.212c.423 0 .846 0 1.268-.423l.212-.423.422-.212v-1.27h1.691c.212 0 .635 0 .846-.211h1.268s1.691-1.058 2.325-1.693l.423-.423.212-.635h-.423c0-.212 0-.212.211-.635-.211-.423-.634-.635-.845-.846v-.423h.845c3.171.423 3.171.423 4.651-.635 3.593-3.386 3.593-3.386 3.804-3.386-.211.212-.422.423-.422.635.211 0 4.65-3.174 4.65-4.655 0-.847 0-1.693 3.805-3.809h1.268c.423-.212 1.057-.635 1.48-.847 1.057 0 2.114-.211 2.959-.423 0-.211.211-.423.423-.635.423-.211.423-.211 3.593-3.808.212 0 .212 0 1.48-2.328 0-.212.211-.423.211-.423a4.598 4.598 0 0 0 1.057-1.693c0-.212.212-.423.212-.635v-.423c0-.212.211-.635.211-.846.211-.635.423-1.27.846-1.693 0 0 2.747-2.328 3.382-2.963l2.536-2.751c0 .847.423.212.423-.211m-41.431-36.819c0-.211-.422 0-.634-.423-.211-.212 0-.635 0-.846-.634.211-1.268.211-1.902.423h-.634c-.423 0-.634-.212-1.057-.423h-.212c-.211 0-.422.423-.634.423h-1.057c-.422 0-.634-.423-1.056-.635-.423-.212-.846-.635-1.48-.635h-2.325c-.423 0-.846 0-1.269.212v1.904l1.269 1.27h.634c.845 0 1.268-.847 2.114-.847.422 0 .634.212 1.057.212.422 0 .634-.212 1.056-.212.846 0 1.691 0 2.537-.211.211-.212.423-.212.634 0 .634.211 1.057.211 1.691.211h.634c.423 0 .423-.211.634-.423m-17.544.847c0-.212.211-.635 0-.847-.211-.211-.423 0-.634-.211-.212 0-.423-.212-.634-.424h-2.114c.211.212.211.424.423.635l.211.212h.423c.423 0 .845.423.845.423s.212.212.212.423v.212h.634c.211 0 .211.211.634-.423Zm-2.114-3.809h5.073c-.634-.847-1.479-1.693-2.536-2.116h-.846a3.61 3.61 0 0 1-2.114 0c-.422-.212-.634-.635-1.057-.847-.634-.423-1.268-.634-1.902-1.058-.845-.423-.845-.423-.845-.634-.212-.212-.212-.424-.635-.424h-1.479l-.634.212c-.212.212-.635 0-.846-.212h-2.959c-1.48 1.058.845 2.963 2.536 2.116.423-.211.634-.634 1.057-.634h1.269s1.268.423 1.479 1.058c0 .211 0 .211.212.423.422.211 1.056.423 1.691.423.422 0 .634 0 .845.423.423.847 1.057 1.058 1.691 1.27m56.65-75.965c-.211-.212-.634-.423-.846-.847-.211-.211-.422-.211-.422-.423-.423-.211-.423-.211-.634-.211-.212-.212-.423-.424-.635-.847-.211-.211-.422-.211-.634-.423h-.634c-.211 0-.211.212 0 .212 0 0 .211.423 0 .423v.211c-.211 0-.634-.211-.845-.211a.455.455 0 0 0-.423.423c0 .212 0 .212-.212.212h-.422l-.423-.424-.423-.423c-.211-.211-.423-.211-.634-.423l-.211.212.422.423-.634-.212s-.634 0-.634.212c0 .423.634 1.058 1.057.846v-.211c.634-.212 1.268.423 1.691.846-.423-.212-.845 0-1.48 0l.635.635.211-.212h.845l.635.847.422.423h.212c.211-.212.422-.212.634-.212h.211c.423-.211.634.212 1.057.423.423.212.634.212 1.057 0v-.423l-.211-.423v-.212h.211c0-.211-.211-.423 0-.634.211.634.211.634 1.057.423m-23.04 28.566c0-.212-.212-.423-.212-.635-.634 0-.634 0-.845-.211l-1.269-.635c0-.212-.211-.212-.422-.212-.423-.211-.846 0-1.057-.211-.212 0-.423-.212-.634-.212.211-.846.211-.846.211-1.058 0-.212.211 0 .423-.212.211-.211.211-.634 0-.846l-.212-.212h-.422c-.212 0-.423.212-.635.212v1.27c-.422.846-1.056 1.48-1.691 2.327-.211.212-.422.424-.634.847 0 .211-.211.423 0 .846 0 .212.212.423.212.635h4.016c.423 0 .423 0 1.057.423a4.597 4.597 0 0 0 1.691 1.058s0-.212.211-.212c.212 0 .423-.211 0-1.48 0-.424 0-1.059.212-1.482m-11.415-1.27c-.211 0-.423-.211-.423-.211h-.634c-.211 0-.634-.212-.845-.423-.212-.212-.212-.212-.423-.212h-.423l-.634.212c.211 0 .423.211.634.211.211.212.211.424.423.424h.211c.212.211.423.211.423.423 0 .211.211.211.423.423.211 0 .211.212.423.212 0-.212.211 0 .845-1.058m-3.382-47.822c-.423 0-.634 0-1.057-.212h-.211c.422 0 .634.212 1.057.423h-.635c.212 0 .423.212.635.212.422.211.845.211 1.056.423-.634-.212-1.056-.423-1.691-.635l-.634-.211c-.422-.212-.845-.212-1.268-.424h-.211c.422 0 .845.212 1.268.212h-.211.211c-.211 0-.423-.212-.634-.212h-.846.212c-.423 0-.635-.211-.846-.423h.423-.212.423-1.057l-1.057-.211h.212-.846.212-1.269.423l-.845-.212h-.846.212c.211 0 .422.212.845.212h-1.057.212-.212.423l.423.211h-.212 1.269-1.903l.423.212h1.268-.634l.211.211.423.212.212.212h-.423v-.212h-1.903.635-1.057v.212l.211.211h-.634l-.212.212v.211h-.211v.424h.634v.634h-1.057v.212h-.845v.212h-.212c-.211.211-.211.211.212.634.211 0 .211 0 .423.212h.634s.211.212.422.212h1.269v.423l-.423.635h-.846v.211h-.211v.212l.211.211c.212 0 .635.212.846.212h.423-.212s0-.212-.211-.212h.634v-.211h1.903l.211.211h.423s.211 0 .211.212h.423l.211.212h.423l.211.211.212.423.211.212h.211l.212.212.211.211h.212l.422.423.212.212.211.212v.211c0 .212 0 .212.423.423 0 .212.211.212.211.424v.423h.423c0 .212.211.211 0 .211h-.211c0 .212.211.424.211.635h.846s0 .212.211.423c.211.212.423.212.423.212h1.268v-.212c.846-.423 1.057.635 1.691.635.423.212.634.423 1.057.635v.212h-.846c-.634 0-1.268-.635-2.113-.212.211.212.422.423.845.635v.212h-.211s-.423.211 0 .634c.423.423 1.057.212 1.479.635h.212c0-.212 0-.212.211-.423h.634c0-.212-.211-.423-.422-.635h-.635l-.211-.212h-.423v-.211h.423c.211.212.634.212.846.212h.422c.212 0 .423.211.423.211v.847c.211.211.423.211.634.423l.212.423h-.635s0 .212-.211.423h-.845c.211.212.211.635.211.846h-.423c0 .212 0 .212-.423.424v.635c.423.423 1.269.423 1.48 1.057-.211 0-.211.212-.423.212 0 0 .634 1.481 1.691 1.27v-.212h.423c.211.212.211.212.211.423h-.422c.845 1.481.845 1.481 1.057 1.481.211-.211.211-.423.211-.634h.423c.423.423.634 1.058.845 1.692 0 .212-.211.212-.422.424-.635.846 5.284 5.29 6.13 5.29h.422c.212 0 .212 0 .423-.212 1.268.212 3.382 2.54 3.805.847v-.212l-.212-.423c-.211-.635.212-1.27-.211-1.905-.423-.634-.845-.846-1.268-1.48v-.212c.211 0 .211-.212.423-.212h.211c.211 0 .211 0 .423-.212-.423-.634-.423-.634-.212-.846h.212v-.212c-.212-.423-.423-.635-.634-1.058.211-.635-.846-.846-1.057-1.27.422 0 .422 0 .634-.21 0-.213-.212-.424-.423-.636h1.057c-.211-.211-.423-.423-.423-.635h.634c.212.212.423.635.634.847h.635c.211-.212 0-.635.211-.847h.211c.212 0 .423 0 .423-.211l-.211-.212v-.635c0-.211 0-.211-.212-.423h.212l-.212-.423.212-.212-.212-.211v-.212l.212-.211-.634-.635h.634c1.268.423 1.268.423 1.691.212.211-.212 0-.635 0-.847h.423l.211-.212v-.211h.211c0-.423-.422-.635-.422-1.058.211 0 .422 0 .634-.212 0-.211-.212-.423-.423-.635h-.211v.424h-.212c-.423 0-.634-.424-1.057-.424h-.211c-.634 0-1.057-.211-1.48-.423-.211 0-.211-.211-.211-.423.211 0 .423 0 .423-.212 0-.211 0-.211-.212-.423.634.212 1.057.847 1.691 1.058l.212-.211-.212-.212c.212 0 .423 0 .423-.212-1.268-.846-2.748-1.48-4.016-2.116v-.211c.634.212.634.212.845.423h.212l-.846-.635-.211-.211c-.634-.424-.846-.635-1.268-.424v.212h-.423s-.212-.212-.212-.423c-.211-.212-.422-.212-.634-.212h.423l.634.423h.423v.635h.634c-.423-.423-.845-.635-1.48-.846v.211c-.422-.211-.634-.211-.634-.423h.634l-.211-.211h.211l.212-.212c-.846-.423-1.691-.635-2.537-1.058h.212l-.846-.423c-.845-.423-1.902-.423-2.748-.847l-.211-.211h-.212.423l.634.211h.212c.422.212 1.057.424 1.479.635l-2.113-1.058c-.212 0-.212-.211-.423-.211h-.212l-.634-.212h-.422c-.212 0-.423-.212-.635-.423h.212s-.846-.423-1.269-.212c.212 0 .212.212.423.212-.423-.212-.634-.212-1.057-.423l-1.479-.635h.211c-.211 0-.423-.212-.634-.423-.846-.424-1.691-.847-2.748-1.058h-.634c-.212 0-.423-.212-.634-.212h.422l-.845-.212c.634-.423.423-.634 0-.634m-9.512 0-.212-.212h-.211l-.211-.212-.212-.211h-1.057v.211l-.211-.211v.211l-.211-.211h-.212l-.211.211-.211-.211h-.846l-.211.211h.211l.211.212v.212h-.211v-.212h-.211v-.212h-.212v-.211h-.211c-.211.211-.211.211-.423.211h-.211l-.423.212-.211.212h-.212l-.211.211-.212.212h.212c-.212.211-.212.211 0 .211.211 0 .211.212.423.212l.422-.212.212-.211h.211l-.211.211-.212.212-.211.212c.634 0 .634 0 1.057-.212h.634l.211-.212.212-.211.211-.212c.212 0 .212 0 .423-.211h.211-.211l-.634.423h.423l-.212.211h-.634c-.211 0-.423 0-.634.212h-.211l-.212.212h.212v.423h.422-.422c-.212-.635-.212-.635-.635-.635h-.422l-.212.212v.423l.212.423.211.212h.423c-.212.211-.423 0-.423.211l-.211.212-.212-.423h-1.057l-.422.211-.212.212-.211.211h1.057l-.423.212v.212c.423 0 .423 0 1.268-.424l-.211.424-.423.211h-.423c-.211 0-.422-.211-.422-.211l-.212-.212h-.634c-.211.635-.211.635-.845.846l-.423.212v.423l.211.212c.212 0 .423-.212.634-.212.212 0 .423.212.846.212.211 0 .211-.212.423-.212 0 .212 0 .212.845 0h.423l-.212.212h.846c.846-.423.846-.423 1.057-.635v-.212l-.423.212v-.212h.423l.211-.423v-.423h.846c.211-.212 0-.423 0-.635h.634s0-.211-.211-.423c-.212 0-.423-.212-.635-.212l-.211.212-.211.212v-.212l.422-.212.212-.211h.211v.211c.423 0 .423 0 .846-.211l-.212-.212h.423l.211.212h.212l.211-.212-.211-.211h-.212.635v-.212h.211c.211-.212.423-.212.634-.635h.211l-.211-.211-.211.211h-.423v-.211h.634s.211 0 .211-.212h.212v.212m-6.553 2.75c0-.211.211-.211.211-.423l-.422-.211v-.212l.211-.212v-.211l-.211.211.211-.211c0-.212-.211 0-.211-.212v-.211c0-.212.211-.212.211-.424-.211 0-.423 0-.423.212h.212c-.212.212-.423.212-.423.212h-.211c-.212 0-.212 0-.212.211 0 .212 0 0-.211.212h-.423l-.423.211h-.211l-.423.212h.212l-.423.212v.211h1.057v.212c-.212 0-.212 0-.423.211h-.211l-.423.212v.212l-.212.423.423.211h.423l.211.212.212-.212h.211l.211-.211.212-.212.211.212.212-.212h.211c.211 0 .423-.423.634-.635m-3.382 2.116c.211 0 .423-.211.423-.211v-.423h-.634l-.423.423.634.211Zm4.228 2.54v-.424l-.635-.211-.634-.212-.634.212-.845.211h-.634l-.635-.211h-.634l-.211-.423.211-.424.212-.423h-1.057c-.212.423-.423.847-.423 1.27l-.634.423v.423l.211.423h.846l.634-.211c.423.635.423.635 1.057.423h1.057l.422-.212.212-.211.211.211c1.48 0 1.48 0 1.48-.423 0 0 0-.211.423-.211m-10.569.634h.422v-.211l-.422.211Zm2.748-.211.422-.423-.211-.212v-.423h-.423l-.845.211-.423.424v.423h.423l.211.211.846-.211Zm1.268-1.905.634-.423.211-.211v-.424h-.422l-.212-.211h-.423l-.422.423.211.212.211.211.212.423Zm1.479-1.692.212-.212h-.846l-.422.212-.212.211h1.057l.211-.211m0-.424.212-.211v-.212h-.423v-.211l-.423.211-.211.212-.423.423h.634l.634-.212Zm.423-1.692h.423l.423-.212h-.212l-.422.212h.211-.423m-2.536 1.904.422-.212.423-.211v-.212l.212-.211v-.424h-.212l.212-.211v-.212h-.212l-.634.212-.211.211h.211v.212l-.423.212h-.211l-.211.211h.211l-.211.212.422-.212h.634l-.211.423-.211.212m-1.269.212h.423v-.212h-.423l-.422.212h.422Zm0 1.692.212-.211s0-.212-.212-.212c-.211 0-.422 0-.422.212v-.423h-.423c0 .211-.211 1.27-.634.846l.211-.635h-.423l-.422.423-.423.424v-.424l.423-.634-.212-.212-.634.423s-.211.212-.211.423v.635l.211.212.423-.212h.211v.212l-.423.635.423-.212h.846l.423-.423.422-.423c.423-.212.634-.212.634-.424m-4.016 1.058c.212-.211 0-.211 0-.211v.211c-.211-.211-.423 0-.423 0l-.211.424h.423c0-.212.211-.212.211-.424Zm2.114-2.116.423-.211.423-.423v-.212c-.423 0-.635.423-.846.846m11.837 13.543.423-.635-.423-.635h-1.268c-.211.212-.423.423-.634.847l.423.634h.845l.634-.211m-9.089-8.887c.211-.212.423-.424.634-.424-.211-.211-.211-.211-.423-.211h-.422l-.423-.212c-.846 0-.846 0-.846.212-.211.423-.422.423-.845.635l-.634.846c-.212.423-.212.635-.423 1.058l.634-.212.634-.423.423-.635.634.212.634-.423.423-.423m-5.073 2.327.634-.635v-.846l-.211-.212c1.056-.423 1.056-.423.845-1.058v-.211h-.423l-.422.423h-.212v-.635l-.634.212-.211.423v.423c-1.057.847-1.057.847-1.057.212h-.423l-.423.423.212.423.211.212.423.212c0 .211 0 .423-.212.634v.212c0 .212.423.423.423.423.212-.212.634-.212.846-.423l.634-.212m-3.171-2.116.634-.635v-.211l-.634-.212-.634.212v1.058l.634-.212Zm-1.057-.635.423-.423h-.211l-.423.212.211.211Zm6.976-5.924.423-.212v-.212h-.846l-.846.212h.846l.423.212m-1.057.634.423-.211h-1.057l-.634.211-.635.424h.846l.423-.212.211-.212h.423m-1.691 0h.211l.634-.423v-.211h-.211l-.423.211-.211.423Zm-.846 3.174.846-.634v-.212h-.212l-.422.212-.212-.212.212-.423.422-.212.423-.423h-.211l-.423.212h-.423l-.211.211c0 .212 0 .212-.846.635h.212c-.212.212-.423.212-.634.212h-.423v-.212l.423-.423v-.212h-.212v-.211l-.634.211-.845.423-.635.212-.845.423-.634.423h.423l.211.212h1.057l.423.212h.422c-.211.211-.422.211-.634.211h-.422l-.635.212-.422.211v.212h.634l1.057-.212.845-.423h1.691l.634-.635m-1.057-2.116h.423l.423-.211h-.423l-.423.211Zm-4.016 1.482 1.269-.635-.635.211-.845.424h.211Zm4.228-1.905.845-.423-.211-.212-.634.212h-.634c-.846.212-1.691.635-2.325 1.058h-.423l-.634.212-.423.423v.211l.634-.211-.211.211.422-.211.423-.212h.212l.634-.423.634-.212-.423.424h.423l.634-.212 1.057-.635m-3.17 10.157.422-.423-.212-.423-.845-.635v-.635l.634-.635v-.423l.634-.846.212-.635-.212-.423h-.634l-.634.634-.423.424-.423.634-.422.212h-.212v-.212l.423-.423.211-.423.212-.635h-.423l-.423.423-.211.424h-.423l-.423.211h-.422l.422-.423.635-.423h-.212l-.211-.212h-.423l-.634.423-.212-.211.423-.212.634-.423v-.212h-.422l-.846.424-.634.211-.634.212-.846.212-.634.634-.845.423-.423.212h.423l-.212.423.634-.211h.635v.423l-.846.212-.634.211-.634.212.211.423h2.114c.211 0 .211.212.211.423l-.422.423h-2.114l-1.057.423-.423.847h1.48l-.423.846.211.423h1.691l.846-.423.845-.211 1.057-.424.635-.211v.212h.634l.634.634h1.268l.634-.635-.211-.423h.423l.845-.423m-4.65 1.693.422-.635-1.268.212-1.48.634.635.212.845-.423c.212.212.846 0 .846 0Zm.422-6.983.846-.212.634-.423v-.635h-.211l-.846.212-.211-.212v-.211h-1.268l-.423.423-.846.635-1.48.846-2.536 1.27.423.423-.846 1.058 1.057-.635h.634l.846-.423c1.057-.635 2.114-1.27 3.17-1.693l1.057-.423m46.927 33.856.423-.635-.635-.423.212-.634-.212-1.058h-1.479l-.423-.635h-1.48l-1.057.635-.634.423-.634-.212.212-.846 1.268-.423 1.479-.424.635-.635h-1.057l-1.057-.423-1.48-.423-.845-.635-1.057-.635-.423-.634.634-.212.212-.423-1.057-1.058-1.269-1.27-1.691-2.116-.634-1.058-.845 1.27c0 .423 0 .635.211 1.058l-1.057.423-.634.846h-1.057l-.211-.634-.846-.424-1.057.212.212-1.27v-2.539h-1.269l-1.057-.635-.845-.846-1.48-.846-.634.423h-1.268l-.423-.423h-1.48l-.634.634.423.847-.211 1.27v.846l.422 1.058h-1.268v1.058l-.634.635.634.423 1.057.846.211 1.481v1.693l-.845 1.058-1.268.847-1.48.211.846 1.481c0 .635 0 1.27-.212 1.693l.423 1.058-.211.847-.846 1.058-1.691.211-.846-1.48-1.056-1.27c0-.424 0-.635.211-1.058l-.211-1.482.422-1.27-1.902-.21h-1.48l-.634-.424-1.691-.423-.423-.847-1.268-.846-1.268-.847-2.114.424-.211-.847-.212-1.693-.845-.423-.423-.635.845-2.116 1.48-1.48 1.268-1.27 1.269-.424 1.057-.634-.212-.847-1.268-.423-1.268-.635 1.691.212 1.268.423.634-.212.423-.846 1.057.423.634-.211.211-.635.423-.212.423-.846h-.846l-1.057-.212-.211-.423-1.057-.423h.846l1.056.423.635.211.845-.211.846-.635-.423-.635h.845l.423.635-.634.635-.634 1.058c-.211.423-.211.846-.423 1.481l-1.057.212v.635h.846v.634c.423 0 .845 0 1.268-.211l.423-.635h1.268l.634.212.634.211h1.057l.212-.846-.846-.212-.211-1.058-1.057-.211-.634-.847-.846-.212c0-.211 0-.423.212-.634l.634.211.422-.423v-.423h.846l.423-.635.845-.635.423-.635-.423-.634-.211-.847.845-.211.423-.635-.423-.635-.634-.423-.845-.423h1.057l.211-.424h.634l.423.424h.845l.846-.212-.634-.635.423-.211.634.634h.845l.212.635.634.212.211.423.634.212.423.634.634.212.634.635.212.846-.846.847-.845.846.422.846-1.479.212-.846-.212h-.845l-1.057.847v.846l1.268.212h1.057v-.423l.423-.212.634.212 1.268.423 1.268 1.058.212.635.845.846h1.691l1.269 1.058h1.691l1.057.423v-.634l-1.903-1.27-.845-.635-.423-.635 1.268.635 2.114 1.058 1.057.635c0-.423 0-.635-.212-1.058l.423-.846-1.057-.424-.422-1.27-1.269-.423-1.691-1.692.423-.424.423-.423 2.114 1.481.845.847.846.211V51.35l.845-.423v-.423h.634l.212-.423-.212-.635h-1.268v-.423l-.846-.635h-.634l-.845-.423h-.634l-.212-.423-.211-.424h-1.48v-.846h.634l.423-.423-1.057-.212v-.211h.423l-.634-.424-.846-.211.212-.423-.634-.212h-.846l-.211-.423h-.846l.423-.423-.846-.212-.845.212-.634-.635v-.847l-.846-.211h-1.057l-.211.423h-.634l-.423-.212-.211.424h-.634v-.635l.422-.423-.422-.635v-.635h-.846l-.634.423h-.634l-.634.212-.423.635.211.634-.423.424.212.846h-.423l-.423-.635.212-.846.211-.635.634-.635.634-.423h-1.691l-1.057.635-1.056 1.058-.635 1.27.635.211h.634v.635l-.634-.212-.846.212.211.635h.846l.423-.212.422.423 1.057.423-.634.212-.211.635.423.423-1.057 1.27-.634.846-.846.635-.423-.212v-1.058l.634-.635-.634-1.058-1.057.847-.422-1.481-.212-.212.423-.635.211-.846h-.422l.211-.635-.423-.635h-.845l-.423.423h-.423l-.845.635-.212.635-.422.423.211.847.423.423-.634.635-.635-.212-.211.846h.634l1.057-.423c-.211.212-.211.635-.423.847l-1.902.846-.423 1.27-.634-.635.634-.847h-.634l.423-.846h.423l.422-1.058-.845-.635-.634.847-.846.423.634.846-.845.423-.634.635h-2.114l-.634-.635-.635-.211-.422-.635-1.057.423-1.48.423-.423.847-1.056 1.27.422-1.482-.634-.635-1.268.212-2.114-.423.423-.423 1.057-.212-.423-.846h-.634l-1.057-.847.211-.635-.634-.211h-.423l-.845.423h-.634l.845-1.058-1.268.846-.423-.211 1.057-1.27-.211-.211-1.268.846-1.057.423h-.635l-1.056.212-1.48.423 1.69-.846.846-.212.635-.212.634-.423h-.212l-1.057.212-1.48.423h-.845l-1.902.635-.634-.212.634-.846-.846-.212.212-.423-.212-.212-.845.212.211-.423h-.423v-.423h-.634c-6.553 3.808-12.683 8.464-18.178 13.754l.845-.212-.211.423-1.269.424-.845.634-.423.424-.634.634 1.902-.846.846-.212c.423-.423.846-1.058 1.268-1.27l.423.212-.211.847v.846l.211.423.846-.211.21.423h.424l-.212.846.212.847v1.27c.211 0 .422-.212.634-.212v.635l-.212.846.635.423-.635.847.423.634-.634.635.212.423.422.212-.634.846-.211 1.058-.634 1.058-.423 1.059.634.211-.423 1.27.212 1.27-.212.846.423.635.634.423.634.423-.211.635.634.846.423.846-.212 1.693-.634 1.27-.211-.847-.212-1.057.212-.635-.423-.635-.423-.212.423-1.058h-.634l-.211-.635-.212-.211-.423-.212h-.634v.847l.212.635.211.846.634 1.27-.211 1.27-.212 1.692-.634 1.27-.845 1.692c-.212.635-.423 1.27-.846 2.116l-.634.424-.423 1.27v1.48l-.634 1.27-.211 1.058.211 1.058-.423 1.481.212 1.27.634 1.058v2.116l.423.846v1.058l.422 1.27h1.057l.635.846 1.056.847.635 1.058v1.269l.21 1.27.212 2.328.634 1.058.846 1.058.211.846-.845.635.423.846.845.847 1.057 1.058.634 1.058-.211.846.211.635 1.057.423.846 1.058.634.846v1.058l.634-.211.211-1.058-.423-1.27-.845-.423v-1.058l-.846-.846-.211-1.482-.211-1.269-.846-1.058-.211-1.27-.846-.423-.211-1.693-.846-1.269.212-1.693h.845l1.057.635.423 1.058-.211 1.481.845 2.116 1.057 1.693 1.057 1.269.634 1.058v1.27l1.268.846.846 1.27.634 1.269 1.48 1.905.422 1.481.846.846-.846.635-.211 1.058 1.691 1.481 1.268 1.27 1.691.635 1.691 1.269 2.114 1.058 2.325 1.27 1.903.635h1.268l.423-.635 1.268-.212 1.48.847 1.69 1.481.846 1.058h2.748l.846.423.845 1.27 1.691.635v-.847l1.057.424c2.96 3.808 2.96 3.808 2.748 4.655l.634.635.634-.212 1.057.423c1.903 1.693 1.903 1.693 2.748 1.693l2.325 1.27 1.269.634v-1.269l.634-.847 2.325.212.211.846h.635l.422-1.058-.845-1.058h-3.805l-2.325-.211-1.057-.635-1.48-1.481v-3.809l.423-2.116v-1.481l-.634-1.058-1.48-.847-2.114.212-1.69-.423-1.692.634-1.057-.846 1.057-.846v-1.482l.423-.846.634-1.481v-1.693l.846-.635.211-1.269-.634-.424-2.325.212-1.48.212-.634 1.058-.634 1.692-.634 1.482-1.269.211-1.69.423-1.903.212-.846-1.27-1.48-.846-.422-1.27-1.057-1.692-.423-2.963-.211-2.116.845-1.693.423-1.904-.634-1.904 1.48-1.693H86.6l1.268-.847 1.268-1.058 1.48.212 1.057.423.845-.423.634 1.058h2.328l-.212-.846.423-1.27h1.691l1.268-.212 2.114.212.846 1.058h.422l.423-.635.634-.211 1.057 1.058.846 1.269v1.27l.422.846.212.847.634.634.423 1.058.845.424v1.058l.846.211.423-.635.422-1.058-.422-1.269-.423-2.116-1.057-1.905c0-.846 0-1.481.211-2.75.212-.424.423-.847.423-1.27l1.057-1.693 1.268-.423 1.691-1.27 1.48-1.058 1.48-.635.211-1.058 1.057-.634-.846-1.693-.634-.847.423-.846-.634-.846 1.057-.424.845 1.27.634-1.27.635-1.058.634-.634.634-2.116h2.114l1.268-.635 1.48-.212-.423-.846v-1.905l1.057-1.27h1.268l.423-.846h1.268l1.268-.846.846-1.058c2.325 0 2.325 0 3.593.212l-.423.423h-1.902l-1.057.846c0 .423 0 .847.212 1.058l.845.423.846-.634.634-.424 1.268-.423 1.268-.635 1.269-.211.845-1.27.846-.846v-1.058l-1.269.423-.845 1.481h-1.691l-1.269-.635-1.479-1.058-.846-1.692 1.057-.847-.211-1.27-1.691-.211-1.903.635-2.113 1.27-1.903 1.904-1.691 1.058.634-1.058 1.057-1.058.634-.635-1.691-.423h2.114l.423-1.058 1.057-.847h1.268l.423-1.058 1.057-.423h1.691l3.17-.212 1.691.212h1.269l1.057-.846.845-1.27 1.903-.212 1.268-.423"/><path fill="#ED6E48" d="M167.981 107.848a519.04 519.04 0 0 1-48.829 47.61c-8.666 7.407-17.544 14.389-26.634 21.372-9.09 6.983-18.39 13.331-28.113 19.468-4.862 2.962-9.724 5.924-14.797 8.675-5.073 2.751-10.146 5.29-15.43 7.618-5.496 2.327-10.992 4.232-16.91 5.29a23.99 23.99 0 0 1-9.513 0c-1.691-.423-3.382-1.27-4.65-2.539-1.269-1.27-2.326-2.963-2.748-4.867-.634-3.174-.423-6.348.634-9.522.845-2.751 1.902-5.713 3.17-8.253 2.537-5.078 5.496-10.157 8.879-14.812 6.552-9.31 13.95-18.198 21.772-26.45-6.765 9.099-13.529 18.198-19.447 27.931-2.96 4.656-5.496 9.734-7.821 14.813a53.631 53.631 0 0 0-2.537 7.617c-.634 2.328-.845 4.867-.211 7.406.211.847.845 1.905 1.48 2.539.845.635 1.69 1.058 2.747 1.27 2.537.423 5.073.423 7.399-.212 5.284-1.269 10.569-2.962 15.43-5.29 10.146-4.655 20.081-9.945 29.382-16.081a406.104 406.104 0 0 0 27.902-19.044c9.09-6.56 18.179-13.543 27.057-20.526 17.756-13.965 34.877-28.778 51.788-44.013Z"/><path fill="#F1886A" d="M201.8 98.115c-3.594 3.174-12.049-.635-18.813-8.465-6.764-7.829-9.301-16.716-5.707-19.89l40.585-35.338 24.52 28.355L201.8 98.115Z"/><path fill="#F1886A" d="M242.389 62.565c-3.594 3.174-10.569-1.904-17.333-9.733-6.765-7.83-10.781-15.447-7.187-18.621 8.032-6.983 32.129-3.174 32.129-3.174s.423 24.546-7.609 31.528Zm-24.101 44.648c5.496-4.655 7.398-29.835 7.398-29.835l-29.381 25.392 11.626 13.331 10.357-8.888Z"/><path fill="#EA5835" d="m204.538 95.583-8.296 7.219 11.65 13.415 8.295-7.22-11.649-13.414Z"/><path fill="#F1886A" d="M170.514 51.985c5.496-4.655 30.65-2.962 30.65-2.962l-29.382 25.604-11.626-13.331 10.358-9.31Z"/><path fill="#EA5835" d="m168.233 53.983-8.295 7.219 11.649 13.414 8.296-7.219-11.65-13.415Zm33.781 42.65H199.9c-.423 0-.846-.211-1.057-.211-.846-.212-1.691-.424-2.537-.847-4.016-2.116-7.609-4.867-10.569-8.252a35.764 35.764 0 0 1-6.764-11.638l-.634-2.54v-1.27c0-.634 0-1.48.211-2.115 0-.212.212-.635.423-.847.212-.634.634-1.057 1.057-1.48l-7.61 6.77c-3.593 3.174-1.056 12.062 5.708 19.891 6.764 7.829 15.219 11.638 18.812 8.464l7.61-6.771c-.423.423-.845.635-1.479.846h-1.057Z"/><path fill="#EA5835" d="M216.178 84.36h-2.114c-.423 0-.846-.211-1.057-.211-.846-.212-1.691-.424-2.537-.847-4.016-2.116-7.609-4.867-10.569-8.464a35.764 35.764 0 0 1-6.764-11.638l-.634-2.539v-1.27c0-.634 0-1.48.212-2.116 0-.211.211-.634.422-.846.212-.635.634-1.058 1.057-1.481l-7.609 6.771c-3.594 3.174-1.057 12.061 5.707 19.89 6.764 7.83 15.219 11.639 18.813 8.465l7.609-6.772c-.423.423-1.057.635-1.479.847-.423.211-.846.211-1.057.211Z"/><path fill="#EA5835" d="M230.334 72.088h-2.113c-.423 0-.846-.212-1.057-.212-.846-.212-1.691-.423-2.537-.847-4.016-1.904-7.61-4.866-10.569-8.252a35.763 35.763 0 0 1-6.764-11.638l-.634-2.54V47.33c0-.635 0-1.481.211-2.116 0-.212.212-.635.212-.846.211-.635.634-1.058 1.056-1.482l-7.609 6.772c-3.594 3.174-1.057 12.061 5.707 19.89 6.764 7.83 15.219 11.638 18.813 8.464l7.61-6.77c-.423.422-1.057.634-1.48.846h-.846Z"/></g><defs><clipPath id="a"><path fill="#fff" d="M0 30h250v190H0z"/></clipPath></defs></svg>