<svg xmlns="http://www.w3.org/2000/svg" width="250" height="250" fill="none"><g clip-path="url(#a)"><path fill="#615EFF" d="M200.745 218.706a12.051 12.051 0 0 1-3.483 8.475 11.837 11.837 0 0 1-8.4 3.514H62.072c-3.15 0-6.173-1.261-8.403-3.507a12.053 12.053 0 0 1-3.49-8.472V31.485a12.08 12.08 0 0 1 .903-4.593 11.996 11.996 0 0 1 2.578-3.894 11.875 11.875 0 0 1 3.86-2.6 11.791 11.791 0 0 1 4.552-.912h81.371l57.302 58.96v140.26Z"/><path fill="#1A194D" d="m149.749 76.907 50.996 49.177V78.101h-45.173a11.33 11.33 0 0 1-5.643-1.433l-.18.24Z" opacity=".3"/><path fill="#C5C4FF" d="M200.745 78.35h-45.297a11.836 11.836 0 0 1-8.399-3.514 12.055 12.055 0 0 1-3.484-8.475v-47.2l57.18 59.189Z"/><path fill="#fff" d="M107.401 164.809c-.11 2.391-.754 4.506-1.932 6.347-1.178 1.824-2.835 3.24-4.972 4.247-2.12 1.007-4.547 1.51-7.28 1.51-4.51 0-8.06-1.471-10.651-4.412-2.592-2.942-3.888-7.095-3.888-12.459v-1.699c0-3.366.581-6.307 1.743-8.824 1.179-2.533 2.867-4.483 5.066-5.852 2.2-1.384 4.745-2.076 7.635-2.076 4.163 0 7.509 1.101 10.038 3.303 2.529 2.187 3.967 5.207 4.312 9.061h-8.247c-.063-2.092-.59-3.595-1.579-4.507-.99-.912-2.498-1.369-4.524-1.369-2.058 0-3.566.771-4.524 2.313-.958 1.541-1.461 4.003-1.508 7.385v2.43c0 3.666.455 6.285 1.367 7.858.926 1.573 2.513 2.359 4.76 2.359 1.9 0 3.353-.448 4.359-1.345 1.005-.896 1.539-2.32 1.602-4.27h8.223Zm21.608 2.501c0-1.212-.432-2.155-1.296-2.832-.848-.676-2.348-1.376-4.501-2.1-2.152-.723-3.911-1.423-5.278-2.1-4.445-2.186-6.668-5.191-6.668-9.013 0-1.904.55-3.579 1.649-5.026 1.116-1.463 2.686-2.596 4.713-3.398 2.026-.818 4.304-1.227 6.833-1.227 2.467 0 4.674.441 6.622 1.322 1.963.88 3.487 2.139 4.571 3.775 1.084 1.62 1.626 3.476 1.626 5.568h-8.247c0-1.4-.432-2.485-1.296-3.256-.849-.771-2.003-1.156-3.464-1.156-1.477 0-2.647.33-3.511.991-.848.645-1.273 1.471-1.273 2.478 0 .88.472 1.683 1.414 2.406.943.708 2.6 1.447 4.972 2.218 2.372.755 4.32 1.573 5.844 2.454 3.707 2.14 5.561 5.089 5.561 8.849 0 3.004-1.131 5.364-3.393 7.078-2.262 1.715-5.365 2.572-9.308 2.572-2.78 0-5.302-.495-7.564-1.486-2.246-1.007-3.943-2.376-5.089-4.106-1.131-1.746-1.697-3.752-1.697-6.017h8.294c0 1.841.472 3.201 1.414 4.082.958.865 2.506 1.298 4.642 1.298 1.367 0 2.443-.291 3.228-.873.801-.598 1.202-1.432 1.202-2.501Zm25.825-.213 6.834-25.011h9.237l-11.546 34.355h-9.049l-11.451-34.355h9.166l6.809 25.011Z"/></g><defs><clipPath id="a"><path fill="#fff" d="M50 19h151v212H50z"/></clipPath></defs></svg>