<svg fill="none" height="402" viewBox="0 0 1039 402" width="1039" xmlns="http://www.w3.org/2000/svg"><g clip-rule="evenodd" fill-rule="evenodd"><path d="m235.493 88.2439c23.533 0 44.452 1.3131 57.526 4.5959 25.494 5.9089 45.759 25.6052 50.989 51.2112 2.615 12.474 4.576 34.14 4.576 57.776s-1.308 44.645-4.576 57.776c-5.23 25.606-25.495 45.959-50.989 51.211-12.42 2.627-33.993 4.596-57.526 4.596s-44.452-1.313-57.526-4.596c-25.494-5.252-45.759-25.605-50.988-51.211-2.615-12.474-4.576-34.14-4.576-57.776s1.307-44.645 4.576-57.776c5.229-25.606 25.494-45.9588 50.988-51.2112 12.421-2.6262 33.993-4.5959 57.526-4.5959zm14.38 165.4511c5.883.656 10.459 4.596 12.42 9.848 1.308 1.313 2.615 2.626 4.576 2.626h1.308c9.151-.656 16.342-1.969 20.264-3.283 2.615-.656 4.576-3.282 4.576-6.565v-.657c-.653-9.191-6.537-30.857-15.035-55.806-9.805-28.232-19.611-51.211-24.187-55.807-.327-.328-.817-.657-1.307-.985-.491-.328-.981-.656-1.308-.985 0 0-.653-.656-1.307-.656-3.269-1.313-8.498-1.97-15.035-1.97s-11.767.657-15.035 1.97c-.327 0-.491.164-.654.328-.164.164-.327.328-.654.328-1.307.657-1.961 1.313-2.615 1.97-4.576 4.596-14.381 27.575-24.187 55.807-8.498 24.949-14.381 46.615-15.035 55.806v.657c0 2.626 1.961 5.252 4.576 6.565 4.576 1.314 11.113 2.627 20.265 3.283h1.307c1.961 0 3.923-.656 4.576-2.626 2.615-4.596 6.537-8.535 12.421-9.848 3.268-.657 9.151-1.313 15.035-1.313 5.883 0 11.766.656 15.035 1.313z" fill="#00BD82"/><path d="m484.554 164.403h21.572v95.2h-21.572v-17.07c-6.538 11.818-18.304 18.383-33.339 18.383-25.495 0-45.106-22.322-45.106-49.897 0-27.576 20.265-49.242 45.106-49.242 15.035 0 26.801 6.566 33.339 18.384zm324.236 0h21.572v95.2h-21.572v-17.07c-6.537 11.818-18.304 18.383-33.339 18.383-25.494 0-45.106-22.322-45.106-49.897 0-27.576 20.265-49.242 45.106-49.242 15.035 0 26.802 6.566 33.339 18.384zm-352.346 76.16c16.343 0 28.763-12.474 28.763-28.888s-12.42-28.888-28.763-28.888c-15.689 0-28.763 12.474-28.763 28.888-.653 16.414 12.421 28.888 28.763 28.888zm322.929 0c16.343 0 28.763-12.474 28.763-28.888s-12.42-28.888-28.763-28.888c-15.689 0-28.763 12.474-28.763 28.888s13.074 28.888 28.763 28.888zm-240.562-124.088c7.191 0 13.728 6.566 13.728 13.788 0 7.878-6.537 13.787-13.728 13.787s-13.728-6.565-13.728-13.787 5.883-13.788 13.728-13.788zm-11.113 47.272h21.572v95.2h-21.572zm89.557-1.313c3.922 0 8.498.656 11.113 1.969 1.961.657 3.268 1.314 4.576 1.97l-8.498 18.384c-2.615-.657-5.884-1.314-8.498-1.314-10.46 0-22.226 8.536-22.226 25.606v49.898h-21.572v-95.2h21.572v13.787c3.268-9.191 13.728-15.1 23.533-15.1zm107.861 72.877c-7.191 15.757-23.533 26.262-43.798 26.262-28.109 0-49.682-21.01-49.682-49.241 0-28.232 20.919-49.898 49.682-49.898 18.303 0 33.992 9.192 41.183 22.979l-18.304 10.505c-3.922-7.222-12.42-12.475-22.879-12.475-16.343 0-28.109 12.475-28.109 28.889 0 15.757 11.766 28.231 28.109 28.231 11.113 0 20.265-5.252 24.187-13.787zm149.044-118.836v142.472h-21.572v-142.472zm43.144 0v142.472h-21.572v-142.472z" fill="#012635"/></g></svg>