<svg xmlns="http://www.w3.org/2000/svg" width="250" height="250" fill="none"><g clip-path="url(#a)"><path fill="#15A9CA" d="m141.777 54.088-22.118-22.149A30.371 30.371 0 0 0 98.177 23a28.242 28.242 0 0 0-19.734 7.958 29.027 29.027 0 0 0-.397 41.327l40.13 40.186a4.577 4.577 0 0 0 6.305 0l17.27-17.295c1.086-1.3 19.151-21.963.026-41.088Z"/><path fill="#52CAA3" d="M178.013 89.473c-4.212-4.085-8.583-8.302-12.529-12.865v-.159a7.97 7.97 0 0 0-.318 1.273 45.536 45.536 0 0 1-13.536 25.359c-23.283 23.157-46.832 46.817-69.612 69.709l-3.072 3.05a29.563 29.563 0 0 0-9.033 16.34 31.658 31.658 0 0 0 8.106 24.828 26.465 26.465 0 0 0 20.847 8.966c9.085.132 13.508-1.061 20.13-7.507a17767.968 17767.968 0 0 0 73.029-72.044c9.457-9.416 11.629-25.013 4.928-35.517a121.792 121.792 0 0 0-18.94-21.433Z"/><path fill="#5268AD" d="M49.809 75.6v97.826a5.446 5.446 0 0 0 3.352 5.027 5.43 5.43 0 0 0 5.919-1.18l49.163-49.231a5.022 5.022 0 0 0 0-7.057L59.08 71.755a5.297 5.297 0 0 0-3.788-1.592 5.48 5.48 0 0 0-3.859 1.589A5.495 5.495 0 0 0 49.81 75.6Z"/></g><defs><clipPath id="a"><path fill="#fff" d="M49 23h152v203H49z"/></clipPath></defs></svg>