<svg xmlns="http://www.w3.org/2000/svg" width="250" height="250" fill="none"><g clip-path="url(#a)"><path fill="#7AD143" d="m31.917 88.013 31.066 57.001c2.153 3.963 7.382 7.011 11.689 7.011h63.363c4.306 0 6.151-3.048 3.998-7.011l-31.374-57.306c-2.153-3.963-7.382-7.011-11.688-7.011H35.3c-3.69.305-5.536 3.353-3.383 7.316Zm120.261 66.145 18.763 33.835c1.23 2.439 4.306 4.268 7.074 4.268l37.526-.61c2.461 0 3.691-1.829 2.461-4.267l-18.763-33.835c-1.23-2.439-4.307-4.268-7.075-4.268l-37.833.305c-2.461.609-3.691 2.438-2.153 4.572Z"/><path fill="#00C2FF" d="m152.191 26.134-37.526 46.638c-2.461 3.048-2.768 8.84-.615 12.802l31.374 56.697c2.153 3.963 5.844 4.572 8.612 1.22l37.834-46.639c2.46-3.048 2.768-8.84.615-12.802l-31.682-56.697c-1.23-2.134-3.075-3.353-4.921-3.353-1.231 0-2.461.61-3.691 2.134Zm-8.62 128.635-22.454 27.738c-1.538 1.829-1.845 5.183-.308 7.621l18.763 33.835c1.23 2.439 3.691 2.744 5.229.61l22.454-27.739c1.538-1.829 1.846-5.182.308-7.62L148.8 155.378c-.615-1.219-1.845-2.133-2.768-1.829-1.231 0-1.846.305-2.461 1.22Z"/></g><defs><clipPath id="a"><path fill="#fff" d="M31 24h189v202H31z"/></clipPath></defs></svg>