<svg width="250" height="250" viewBox="0 0 250 250" fill="none" xmlns="http://www.w3.org/2000/svg">
<g clip-path="url(#clip0_3005_6227)">
<path d="M93.6181 67.8704C93.6181 69.6196 93.8084 71.0378 94.1415 72.0779C94.5222 73.1179 94.998 74.2525 95.6642 75.4817C95.9021 75.8599 95.9973 76.2381 95.9973 76.569C95.9973 77.0417 95.7118 77.5145 95.0932 77.9872L92.0954 79.9728C91.6671 80.2564 91.2389 80.3982 90.8582 80.3982C90.3824 80.3982 89.9065 80.1619 89.4307 79.7364C88.7645 79.0273 88.1935 78.2709 87.7176 77.5145C87.2418 76.7108 86.766 75.8126 86.2425 74.7253C82.531 79.0745 77.8678 81.2492 72.2529 81.2492C68.2558 81.2492 65.0677 80.1146 62.7361 77.8454C60.4044 75.5762 59.2148 72.5506 59.2148 68.7686C59.2148 64.7503 60.6424 61.4883 63.545 59.03C66.4476 56.5718 70.3019 55.3426 75.2031 55.3426C76.8209 55.3426 78.4864 55.4844 80.247 55.7208C82.0076 55.9572 83.8158 56.3354 85.7191 56.7608V53.3098C85.7191 49.7169 84.9578 47.2113 83.4827 45.7458C81.96 44.2803 79.3905 43.5712 75.7265 43.5712C74.061 43.5712 72.348 43.7603 70.5874 44.1858C68.8268 44.6112 67.1138 45.1313 65.4483 45.7931C64.687 46.124 64.116 46.3131 63.7829 46.4077C63.4498 46.5022 63.2119 46.5495 63.0216 46.5495C62.3554 46.5495 62.0223 46.0768 62.0223 45.084V42.7675C62.0223 42.0111 62.1175 41.4438 62.3554 41.1129C62.5933 40.782 63.0216 40.4511 63.6877 40.1201C65.3532 39.2692 67.3517 38.5601 69.6833 37.9928C72.0149 37.3782 74.4893 37.0945 77.1064 37.0945C82.7689 37.0945 86.9087 38.371 89.5734 40.9238C92.1905 43.4766 93.5229 47.3532 93.5229 52.5534V67.8704H93.6181ZM74.299 75.0562C75.8692 75.0562 77.4871 74.7725 79.2001 74.2052C80.9131 73.6379 82.4358 72.5979 83.7206 71.1797C84.4819 70.2814 85.0529 69.2887 85.3385 68.1541C85.624 67.0195 85.8143 65.6485 85.8143 64.0412V62.0556C84.4344 61.7247 82.9592 61.4411 81.4366 61.252C79.9139 61.0629 78.4388 60.9683 76.9637 60.9683C73.7755 60.9683 71.4439 61.5829 69.8737 62.8593C68.3034 64.1357 67.542 65.9322 67.542 68.2959C67.542 70.5178 68.113 72.1724 69.3026 73.307C70.4447 74.4889 72.1101 75.0562 74.299 75.0562V75.0562ZM112.509 80.1619C111.652 80.1619 111.081 80.02 110.701 79.6891C110.32 79.4055 109.987 78.7436 109.701 77.8454L98.5192 41.302C98.2337 40.3565 98.091 39.7419 98.091 39.411C98.091 38.6546 98.4716 38.2291 99.233 38.2291H103.896C104.8 38.2291 105.419 38.371 105.752 38.7019C106.133 38.9855 106.418 39.6474 106.704 40.5456L114.698 71.8415L122.121 40.5456C122.359 39.6001 122.644 38.9855 123.025 38.7019C123.406 38.4182 124.072 38.2291 124.928 38.2291H128.735C129.639 38.2291 130.258 38.371 130.638 38.7019C131.019 38.9855 131.352 39.6474 131.542 40.5456L139.061 72.2197L147.293 40.5456C147.578 39.6001 147.911 38.9855 148.244 38.7019C148.625 38.4182 149.244 38.2291 150.1 38.2291H154.526C155.287 38.2291 155.715 38.6073 155.715 39.411C155.715 39.6474 155.668 39.8838 155.62 40.1674C155.572 40.4511 155.477 40.8293 155.287 41.3493L143.819 77.8927C143.534 78.8382 143.201 79.4527 142.82 79.7364C142.439 80.02 141.821 80.2091 141.012 80.2091H136.919C136.015 80.2091 135.397 80.0673 135.016 79.7364C134.635 79.4055 134.302 78.7909 134.112 77.8454L126.737 47.3532L119.409 77.7981C119.171 78.7436 118.885 79.3582 118.504 79.6891C118.124 80.02 117.458 80.1619 116.601 80.1619H112.509ZM173.654 81.4383C171.18 81.4383 168.706 81.1546 166.326 80.5873C163.947 80.02 162.091 79.4055 160.854 78.6963C160.093 78.2709 159.569 77.7981 159.379 77.3726C159.189 76.9472 159.094 76.4744 159.094 76.0489V73.6379C159.094 72.6452 159.474 72.1724 160.188 72.1724C160.474 72.1724 160.759 72.2197 161.045 72.3142C161.33 72.4088 161.758 72.5979 162.234 72.787C163.852 73.4961 165.613 74.0634 167.468 74.4416C169.372 74.8198 171.228 75.0089 173.131 75.0089C176.129 75.0089 178.46 74.4889 180.078 73.4488C181.696 72.4088 182.553 70.896 182.553 68.9577C182.553 67.634 182.124 66.5467 181.268 65.6485C180.411 64.7503 178.793 63.9466 176.462 63.1902L169.562 61.0629C166.088 59.9755 163.519 58.3682 161.949 56.2408C160.378 54.1607 159.569 51.8443 159.569 49.386C159.569 47.4004 159.998 45.6513 160.854 44.1385C161.711 42.6257 162.853 41.302 164.28 40.262C165.708 39.1746 167.326 38.371 169.229 37.8037C171.132 37.2364 173.131 37 175.225 37C176.271 37 177.366 37.0473 178.413 37.1891C179.507 37.3309 180.506 37.52 181.506 37.7091C182.457 37.9455 183.361 38.1819 184.218 38.4655C185.074 38.7492 185.741 39.0328 186.216 39.3165C186.883 39.6947 187.359 40.0729 187.644 40.4983C187.93 40.8765 188.072 41.3966 188.072 42.0584V44.2803C188.072 45.2731 187.692 45.7931 186.978 45.7931C186.597 45.7931 185.979 45.604 185.17 45.2258C182.457 43.9967 179.412 43.3821 176.034 43.3821C173.321 43.3821 171.18 43.8076 169.705 44.7058C168.23 45.604 167.468 46.975 167.468 48.9132C167.468 50.2369 167.944 51.3715 168.896 52.2697C169.848 53.168 171.608 54.0662 174.13 54.8699L180.887 56.9972C184.313 58.0845 186.787 59.5973 188.263 61.5356C189.738 63.4739 190.451 65.6958 190.451 68.1541C190.451 70.1869 190.023 72.0306 189.214 73.6379C188.358 75.2453 187.216 76.6635 185.741 77.7981C184.266 78.98 182.505 79.8309 180.459 80.4455C178.318 81.1073 176.081 81.4383 173.654 81.4383V81.4383Z" fill="#252F3E"/>
<path fill-rule="evenodd" clip-rule="evenodd" d="M182.648 104.414C166.993 115.902 144.248 122 124.691 122C97.2826 122 72.5866 111.931 53.9336 95.1953C52.4585 93.8716 53.7909 92.0751 55.5515 93.1152C75.7271 104.745 100.614 111.789 126.356 111.789C143.725 111.789 162.806 108.196 180.364 100.821C182.981 99.6391 185.218 102.523 182.648 104.414V104.414Z" fill="#FF9900"/>
<path fill-rule="evenodd" clip-rule="evenodd" d="M189.168 97.0389C187.169 94.4861 175.939 95.8098 170.848 96.4244C169.325 96.6135 169.087 95.2898 170.467 94.297C179.413 88.0567 194.116 89.8532 195.829 91.9333C197.542 94.0606 195.354 108.669 186.979 115.665C185.694 116.753 184.457 116.185 185.028 114.767C186.931 110.087 191.166 99.5445 189.168 97.0389V97.0389Z" fill="#FF9900"/>
</g>
<path fill-rule="evenodd" clip-rule="evenodd" d="M125 130.937L130.062 142.849C135.278 155.123 146.978 163.5 160.392 163.5C173.807 163.5 185.507 155.123 190.723 142.849L195.785 130.937L200.847 142.849C206.062 155.123 217.762 163.5 231.177 163.5C231.412 163.5 231.647 163.497 231.88 163.492C234.917 163.426 237.433 165.835 237.499 168.872C237.565 171.908 235.156 174.424 232.12 174.49C231.806 174.497 231.492 174.5 231.177 174.5C216.626 174.5 203.808 167.23 195.785 156.124C187.761 167.23 174.943 174.5 160.392 174.5C145.841 174.5 133.024 167.23 125 156.124C116.976 167.23 104.159 174.5 89.6077 174.5C75.0566 174.5 62.2391 167.23 54.2154 156.124C46.1918 167.23 33.3742 174.5 18.8231 174.5C18.5082 174.5 18.194 174.497 17.8805 174.49C14.8436 174.424 12.4353 171.908 12.5013 168.872C12.5673 165.835 15.0827 163.426 18.1196 163.492C18.3534 163.497 18.5879 163.5 18.8231 163.5C32.2376 163.5 43.9375 155.123 49.1535 142.849L54.2154 130.937L59.2773 142.849C64.4933 155.123 76.1932 163.5 89.6077 163.5C103.022 163.5 114.722 155.123 119.938 142.849L125 130.937ZM160.705 177.904L165.769 189.854C170.973 202.132 182.638 210.5 196 210.5C199.038 210.5 201.5 212.962 201.5 216C201.5 219.038 199.038 221.5 196 221.5C181.487 221.5 168.708 214.234 160.705 203.141C152.702 214.234 139.924 221.5 125.41 221.5C110.897 221.5 98.1185 214.234 90.1156 203.141C82.1128 214.234 69.3342 221.5 54.8208 221.5C54.5065 221.5 54.193 221.497 53.8802 221.49C50.8434 221.424 48.4352 218.908 48.5013 215.871C48.5675 212.834 51.083 210.426 54.1199 210.492C54.3529 210.497 54.5866 210.5 54.8208 210.5C68.183 210.5 79.8483 202.132 85.0516 189.854L90.1156 177.904L95.1797 189.854C100.383 202.132 112.048 210.5 125.41 210.5C138.773 210.5 150.438 202.132 155.641 189.854L160.705 177.904Z" fill="#252F3E"/>
<defs>
<clipPath id="clip0_3005_6227">
<rect width="146" height="85" fill="white" transform="translate(52 37)"/>
</clipPath>
</defs>
</svg>
