<?xml version="1.0" standalone="no"?>
<!DOCTYPE svg PUBLIC "-//W3C//DTD SVG 20010904//EN"
 "http://www.w3.org/TR/2001/REC-SVG-20010904/DTD/svg10.dtd">
<svg version="1.0" xmlns="http://www.w3.org/2000/svg"
 width="512.000000pt" height="512.000000pt" viewBox="0 0 512.000000 512.000000"
 preserveAspectRatio="xMidYMid meet">

<g transform="translate(0.000000,512.000000) scale(0.100000,-0.100000)"
fill="#000000" stroke="none">
<path d="M2350 5110 c-323 -29 -629 -115 -915 -255 -768 -376 -1286 -1096
-1411 -1960 -24 -165 -24 -505 0 -670 40 -281 123 -550 241 -790 379 -770
1096 -1286 1960 -1411 165 -24 505 -24 670 0 393 57 760 194 1075 404 620 412
1018 1047 1126 1797 24 165 24 505 0 670 -67 467 -254 906 -536 1260 -400 502
-992 841 -1634 936 -151 22 -438 32 -576 19z m520 -337 c887 -118 1633 -785
1854 -1655 19 -73 42 -187 51 -253 23 -161 23 -449 0 -610 -143 -997 -913
-1767 -1910 -1910 -161 -23 -449 -23 -610 0 -997 143 -1767 913 -1910 1910
-23 161 -23 449 0 610 139 972 878 1734 1845 1901 202 35 455 37 680 7z"/>
<path d="M2442 4074 c-93 -46 -142 -127 -142 -234 0 -152 108 -260 260 -260
152 0 259 108 260 261 0 151 -108 258 -261 259 -50 0 -77 -6 -117 -26z"/>
<path d="M1575 3718 c-157 -58 -227 -227 -155 -371 47 -94 127 -142 235 -142
81 0 130 20 185 75 55 55 75 104 75 185 0 108 -48 188 -141 235 -53 26 -153
35 -199 18z"/>
<path d="M3423 3587 c-25 -9 -845 -665 -1039 -830 -111 -95 -112 -300 -1 -393
115 -97 289 -83 382 30 111 135 790 973 807 997 26 35 29 106 5 143 -34 51
-99 74 -154 53z"/>
<path d="M1162 2794 c-93 -46 -142 -127 -142 -234 0 -152 108 -260 260 -260
152 0 259 108 260 261 0 151 -108 258 -261 259 -50 0 -77 -6 -117 -26z"/>
<path d="M3722 2794 c-93 -46 -142 -127 -142 -234 0 -152 108 -260 260 -260
152 0 259 108 260 261 0 151 -108 258 -261 259 -50 0 -77 -6 -117 -26z"/>
<path d="M1580 1909 c-155 -45 -233 -226 -160 -372 47 -94 127 -142 235 -142
155 1 260 106 260 260 -1 107 -55 194 -149 239 -46 22 -137 29 -186 15z"/>
<path d="M3391 1909 c-90 -27 -164 -110 -184 -204 -35 -169 109 -329 281 -313
56 5 131 40 166 77 96 102 96 270 0 372 -57 60 -182 93 -263 68z"/>
<path d="M2442 1514 c-93 -46 -142 -127 -142 -234 0 -152 108 -260 260 -260
152 0 259 108 260 261 0 151 -108 258 -261 259 -50 0 -77 -6 -117 -26z"/>
</g>
</svg>
