<svg width="843" height="843" viewBox="0 0 843 843" fill="none" xmlns="http://www.w3.org/2000/svg">
<path d="M41.4479 330.583V509.382H152.357V481.436H73.8866V433.335H134.003V405.38H73.8866V358.538H148.337V330.583H41.4479ZM751.999 330.583V469.35C751.999 506.118 773.88 510.641 791.488 510.641C796.772 510.641 801.552 509.882 801.552 509.882V481.936C801.552 481.936 799.284 482.186 796.774 482.186C788.47 482.186 783.688 478.663 783.688 464.557V330.583L751.999 330.583ZM525.144 377.925C497.474 377.925 476.098 391.78 476.098 415.707C476.098 457 538.47 454.483 538.47 473.626C538.47 481.182 530.673 485.211 521.622 485.211C500.747 485.211 486.653 471.109 486.653 471.109L472.069 493.513C472.069 493.513 489.922 512.408 521.864 512.408C552.295 512.408 570.917 495.284 570.917 473.876C570.917 432.571 508.537 434.847 508.537 416.716C508.537 408.648 516.581 405.13 524.885 405.13C544.497 405.13 556.325 416.207 556.325 416.207L568.145 392.536C568.145 392.536 554.065 377.925 525.144 377.925ZM657.429 377.934C618.447 377.934 587.008 405.885 587.008 445.171C587.008 484.71 618.452 512.417 657.687 512.417C696.67 512.417 728.1 484.71 728.1 445.171C728.1 405.885 696.664 377.934 657.429 377.934ZM376.63 379.503C342.361 379.503 312.175 405.096 312.175 445.671C312.175 486.24 342.361 512.107 376.63 512.107C392.404 512.107 410.894 505.03 419.322 491.142V509.391H447.06V382.227H419.322V400.191C410.618 385.768 391.857 379.503 376.63 379.503ZM267.899 382.011L243.759 413.94L262.518 438.43L305.46 382.072L267.899 382.011ZM657.687 405.131C678.31 405.131 695.662 421.497 695.662 445.171C695.662 469.092 678.31 485.212 657.687 485.212C636.812 485.212 619.455 469.092 619.455 445.171C619.455 421.497 636.812 405.131 657.687 405.131ZM379.884 406.734C398.926 406.734 419.055 420.341 419.055 445.404C419.055 470.449 400.554 484.876 379.884 484.876C358.68 484.876 340.997 468.819 340.997 445.404C340.997 421.983 358.68 406.734 379.884 406.734ZM262.518 452.972L243.759 477.453L267.899 509.382L305.46 509.331L262.518 452.972Z" fill="#0A3D51"/>
<path d="M169.467 509.385L218.341 445.589L169.696 382.093L207.233 382.115L255.86 445.587L206.992 509.383L169.467 509.385Z" fill="#76BD1D"/>
</svg>
