<?xml version="1.0" encoding="UTF-8" standalone="no"?>
<!-- Generator: Adobe Illustrator 25.4.1, SVG Export Plug-In . SVG Version: 6.00 Build 0)  -->

<svg
   xmlns:dc="http://purl.org/dc/elements/1.1/"
   xmlns:cc="http://creativecommons.org/ns#"
   xmlns:rdf="http://www.w3.org/1999/02/22-rdf-syntax-ns#"
   xmlns:svg="http://www.w3.org/2000/svg"
   xmlns="http://www.w3.org/2000/svg"
   xmlns:sodipodi="http://sodipodi.sourceforge.net/DTD/sodipodi-0.dtd"
   xmlns:inkscape="http://www.inkscape.org/namespaces/inkscape"
   version="1.1"
   id="Layer_1"
   x="0px"
   y="0px"
   viewBox="0 0 999.99999 1000"
   xml:space="preserve"
   sodipodi:docname="fortnox-text-logo-white-svg.svg"
   width="1000"
   height="1000"
   inkscape:version="0.92.4 (5da689c313, 2019-01-14)"><metadata
   id="metadata25"><rdf:RDF><cc:Work
       rdf:about=""><dc:format>image/svg+xml</dc:format><dc:type
         rdf:resource="http://purl.org/dc/dcmitype/StillImage" /><dc:title></dc:title></cc:Work></rdf:RDF></metadata><defs
   id="defs23">
	
	
</defs><sodipodi:namedview
   pagecolor="#ffffff"
   bordercolor="#111111"
   borderopacity="1"
   objecttolerance="10"
   gridtolerance="10"
   guidetolerance="10"
   inkscape:pageopacity="0"
   inkscape:pageshadow="2"
   inkscape:window-width="1920"
   inkscape:window-height="1017"
   id="namedview21"
   showgrid="false"
   fit-margin-top="0"
   fit-margin-left="0"
   fit-margin-right="0"
   fit-margin-bottom="0"
   inkscape:zoom="0.12037253"
   inkscape:cx="2123.1937"
   inkscape:cy="-221.20713"
   inkscape:window-x="1912"
   inkscape:window-y="-8"
   inkscape:window-maximized="1"
   inkscape:current-layer="Layer_1"><inkscape:grid
     type="xygrid"
     id="grid843"
     originx="-33.044824"
     originy="1288.1236" /></sodipodi:namedview>
<style
   type="text/css"
   id="style2">
	.st0{fill:#FFFFFF;}
</style>
<path
   inkscape:connector-curvature="0"
   style="fill:#013824;fill-opacity:1;stroke-width:6.26990271"
   id="path4"
   d="M 656.46089,194.7324 H 499.71336 c -109.0963,0 -183.08114,73.98487 -183.08114,183.08122 v 392.49564 c 0,11.2859 6.26988,17.556 17.55569,17.556 h 87.15165 c 11.28582,0 17.55574,-6.2701 17.55574,-17.556 v -163.0174 h 218.1926 c 11.28582,0 17.55573,-6.2697 17.55573,-17.5557 v -83.3894 c 0,-11.28602 -6.26991,-17.55604 -17.55573,-17.55604 H 438.26832 V 374.67858 c 0,-36.36553 24.45259,-60.81804 60.81804,-60.81804 h 157.37453 c 11.28585,0 17.55574,-6.26994 17.55574,-17.55572 v -84.01668 c 0,-11.28583 -6.26989,-17.55574 -17.55574,-17.55574 z"
   class="st0" />
<path
   style="opacity:1;fill:none;fill-opacity:1;stroke:#067634;stroke-width:69.63327789;stroke-linecap:round;stroke-miterlimit:4;stroke-dasharray:none;stroke-opacity:1"
   d="m 624.81767,948.28726 c -37.48347,9.6249 -69.62737,16.8961 -124.81767,16.8961 -123.37429,0 -241.69548,-49.0102 -328.93428,-136.2491 -87.238814,-87.2388 -136.249073,-205.56 -136.249081,-328.93423 -6e-6,-74.90415 16.75933,-136.04389 41.750367,-193.116"
   id="path845"
   inkscape:connector-curvature="0"
   sodipodi:nodetypes="csssc" /><path
   style="opacity:1;fill:none;fill-opacity:1;stroke:#fcc10d;stroke-width:69.63327789;stroke-linecap:round;stroke-miterlimit:4;stroke-dasharray:none;stroke-opacity:1"
   d="m 728.90433,95.031659 c 36.31629,20.526031 70.01306,46.017101 100.03,76.034041 87.2388,87.23881 136.24905,205.56003 136.24904,328.93433 -3e-5,123.37423 -49.49874,241.20973 -136.24908,328.93423 -27.11551,27.4201 -51.24483,45.1432 -78.29535,62.7114"
   id="circle854"
   inkscape:connector-curvature="0"
   sodipodi:nodetypes="csssc" /><path
   style="opacity:1;fill:none;fill-opacity:1;stroke:#58b031;stroke-width:69.63327789;stroke-linecap:round;stroke-miterlimit:4;stroke-dasharray:none;stroke-opacity:1"
   d="M 151.16577,191.38419 C 236.3478,96.136459 362.1625,34.816639 500,34.816639 c 56.72712,0 101.30873,10.41632 101.30873,10.41632"
   id="circle856"
   inkscape:connector-curvature="0"
   sodipodi:nodetypes="csc" /></svg>