<svg xmlns="http://www.w3.org/2000/svg" width="250" height="250" fill="none"><g clip-path="url(#a)"><path fill="#1F8DED" d="M197.386 30H53.304c-13.436 0-24.119 10.565-24.119 23.646v142.5c0 13.289 10.683 23.854 24.119 23.854h144.082c13.227 0 23.909-10.565 23.909-23.646v-142.5c0-13.289-10.682-23.854-23.909-23.854Zm-46.531 34.833c0-3.58 2.783-6.333 6.404-6.333 3.62 0 6.403 2.752 6.403 6.333v84.642c0 3.581-2.783 6.333-6.403 6.333-3.621 0-6.404-2.752-6.404-6.333V64.833Zm-32.018-3.166c0-3.581 2.783-6.334 6.403-6.334 3.621 0 6.404 2.753 6.404 6.334V153.5c0 3.581-2.783 6.333-6.404 6.333-3.62 0-6.403-2.752-6.403-6.333V61.667Zm-32.019 3.166c0-3.58 2.783-6.333 6.404-6.333 3.62 0 6.404 2.752 6.404 6.333v84.642c0 3.581-2.783 6.333-6.404 6.333-3.62 0-6.403-2.752-6.403-6.333V64.833ZM54.8 77.5c0-3.581 2.783-6.333 6.404-6.333 3.62 0 6.404 2.752 6.404 6.333v57c0 3.581-2.783 6.333-6.404 6.333-3.62 0-6.404-2.752-6.404-6.333v-57Zm138.756 96.687c-1.077.858-24.747 20.48-68.316 20.48-43.568 0-67.238-19.622-68.315-20.48-2.783-2.308-2.993-6.333-.629-8.879 2.334-2.752 6.404-2.959 8.977-.621.42 0 21.546 17.313 59.967 17.313 38.841 0 59.758-17.313 59.758-17.52 2.783-2.309 6.823-1.894 8.977.621 2.544 2.753 2.125 6.778-.419 9.086Zm2.125-39.687c0 3.581-2.783 6.333-6.404 6.333s-6.404-2.752-6.404-6.333v-57c0-3.581 2.783-6.333 6.404-6.333s6.404 2.752 6.404 6.333v57Z"/></g><defs><clipPath id="a"><path fill="#fff" d="M29 30h193v190H29z"/></clipPath></defs></svg>