<svg xmlns="http://www.w3.org/2000/svg" width="250" height="250" fill="none"><g clip-path="url(#a)"><path fill="#D33833" d="M202.311 121.582c0 43.733-34.77 79.218-77.683 79.218-42.914 0-77.684-35.485-77.684-79.218 0-43.732 34.77-79.218 77.684-79.218 42.913 0 77.683 35.486 77.683 79.218Z"/><path fill="#EF3D3A" d="M50.14 141.199s-5.64-82.592 70.728-84.966l-5.325-8.87-41.41 13.868-11.84 13.557-10.338 19.743-5.889 22.99 1.755 15.369"/><path fill="#231F20" d="M71.44 67.541c-13.595 13.932-22.052 33.112-22.052 54.354 0 21.241 8.457 40.421 22.052 54.353 13.657 13.932 32.389 22.491 53.188 22.491s39.53-8.559 53.188-22.491c13.594-13.932 22.052-33.112 22.052-54.353 0-21.242-8.458-40.422-22.052-54.354-13.658-13.869-32.389-22.49-53.188-22.49-20.737 0-39.531 8.558-53.188 22.49ZM67.994 179.56c-14.472-14.744-23.43-35.174-23.43-57.664 0-22.491 8.958-42.92 23.43-57.727 14.472-14.744 34.519-23.928 56.634-23.928 22.114 0 42.162 9.184 56.633 23.928 14.472 14.744 23.431 35.173 23.431 57.727 0 22.49-8.959 42.92-23.431 57.664-14.471 14.806-34.519 23.928-56.633 23.928-22.115 0-42.162-9.122-56.634-23.928Z"/><path fill="#F0D6B7" d="m157.33 122.02-11.841 1.749-15.975 1.812-10.337.25-10.086-.313-7.706-2.374-6.828-7.372-5.326-15.056-1.19-3.25-7.079-2.373-4.135-6.81-2.944-9.746 3.258-8.559 7.705-2.686 6.202 2.936 2.945 6.497 3.57-.562 1.191-1.5-1.19-6.81-.313-8.558 1.754-11.808-.063-6.747 5.388-8.622 9.459-6.81 16.539-7.06 18.356 2.687 15.976 11.496 7.392 11.807 4.761 8.56 1.19 21.24-3.57 18.306-6.516 16.243-6.139 8.684"/><path fill="#335061" d="m147.306 173.062-42.287 1.749v7.059l3.571 24.803-1.754 2.062-29.57-10.059-2.068-3.561-2.944-33.361-6.954-19.992-1.503-4.748 23.68-16.244 7.393-2.936 6.515 7.997 5.639 4.998 6.515 2.061 2.944.875 3.571 15.369 2.694 3.248 6.829-2.374-4.761 9.184 25.685 12.12-3.195 1.75Z"/><path fill="#6D6B6D" d="m77.14 70.103 7.706-2.687 6.202 2.937 2.945 6.497 3.57-.562.878-3.561-1.754-6.81 1.754-16.243-1.504-8.872 5.325-6.185 11.527-9.121-3.257-4.436-16.289 7.997-6.828 5.31-3.822 8.247-5.889 7.997-1.754 9.433 1.19 10.059Z"/><path fill="#DCD9D8" d="M89.294 42.364s4.448-10.933 22.178-16.243c17.729-5.31.877-3.811.877-3.811l-19.233 7.372-7.393 7.372-3.257 5.872 6.828-.562Zm-8.896 25.677s-6.202-20.679 17.479-23.615L97 40.865l-16.289 3.81-4.76 15.37 1.19 10.058 3.257-2.062Z"/><path fill="#F7E4CD" d="m89.858 95.468 3.884-3.749s1.754.188 2.068 2.25c.313 2.061 1.19 20.679 13.908 30.675 1.19.937-9.46-1.5-9.46-1.5l-9.46-14.744m53.501-18.555s.689-8.934 3.132-8.247c2.444.688 2.444 3.124 2.444 3.124s-5.889 3.749-5.576 5.123Zm24.558-32.737s-4.887 1-5.325 5.31c-.439 4.311 5.325.875 6.202.563m-36.649-5.561s-6.515.875-6.515 4.998c0 4.124 7.392 3.812 9.46 2.062M92.865 76.6s-11.214-6.81-12.404-.312c-1.19 6.497-3.822 11.183 1.754 17.993l-3.821-1.187-3.571-9.122-1.19-8.871 6.828-7.06 7.706.563 4.448 3.56.25 4.436Zm5.325-18.617s5.012-25.99 30.447-30.988c20.925-4.123 31.951.875 36.085 5.623 0 0-18.669-22.116-36.398-15.369-17.729 6.81-30.76 19.18-30.447 27.114.501 13.62.313 13.62.313 13.62Zm68.6-22.429s-8.583-.312-8.896 7.372c0 0 0 1.187.563 2.374 0 0 6.829-7.684 10.964-3.56"/><path fill="#F7E4CD" d="M129.264 46.112s-1.504-11.745-11.528-4.935c-6.515 4.436-5.888 10.62-4.761 11.808 1.191 1.187.877 3.56 1.754 1.937.877-1.625.627-6.935 3.885-8.435 3.195-1.499 8.582-3.123 10.65-.375Z"/><path fill="#49728B" d="M101.448 125.83 73.632 138.2s11.527 45.732 5.638 59.914l-4.134-1.5-.313-17.43-7.706-32.987-3.258-9.121 29.006-19.492 8.583 8.246Zm2.819 25.303 3.947 4.81v17.681h-4.699s-.564-12.37-.564-13.87c0-1.499.564-6.809.564-6.809m.877 23.365-13.344.562 3.822 2.687 9.46 1.499"/><path fill="#335061" d="m149.937 173.374 10.964-.312 2.693 27.114-11.213 1.499-2.444-28.301Z"/><path fill="#335061" d="m152.882 173.374 16.539-.875s6.828-17.118 6.828-17.993c0-.874 5.889-24.802 5.889-24.802l-13.344-13.87-2.693-2.374-7.08 7.06v27.427l-6.139 25.427Z"/><path fill="#49728B" d="m160.274 171.312-10.337 2.062 1.504 8.246c3.821 1.75 10.337-2.936 10.337-2.936m-1.191-59.039 20.737 15.369.564-7.059-15.662-14.432-5.639 6.122Z"/><path fill="#fff" d="m114.667 231.476-6.14-24.803-3.07-18.305-.501-13.557 27.753-1.5h17.228l-1.566 30.988 2.694 23.928-.313 4.436-22.491 1.749-13.594-2.936Z"/><path fill="#DCD9D8" d="M146.116 173.061s-1.504 30.676 2.944 52.542c0 0-8.896 5.623-21.864 7.059l24.871-.874 2.945-1.749-3.571-48.356-.94-10.371"/><path fill="#fff" d="m164.033 197.864 11.527-3.249 21.864-1.187 3.258-10.058-5.889-17.431-6.829-.874-9.459 2.936-9.022 4.436-4.823-.875-3.759 1.499"/><path fill="#DCD9D8" d="M163.845 191.929s7.706-3.561 8.896-3.249l-3.257-16.243 3.821-1.5s2.694 15.369 2.694 17.119c0 0 16.539.874 18.042.874 0 0 3.571-6.81 2.694-13.869l3.258 9.433.313 5.311-4.761 7.059-5.325 1.187-8.896-.312-2.944-3.811-10.337 1.5-3.258 1.187"/><path fill="#fff" d="m152.193 171-6.516-16.494-6.828-9.746s1.503-4.123 3.571-4.123h6.828l6.516 2.374-.564 10.933L152.193 171Z"/><path fill="#DCD9D8" d="M153.508 165.377s-8.269-15.931-8.269-18.305c0 0 1.503-3.561 3.571-2.686 2.067.874 6.515 3.248 6.515 3.248v-5.623l-10.086-2.061-6.829.874 11.527 27.24 2.381.312"/><path fill="#fff" d="m117.298 126.455-8.207-.874-7.706-2.374v2.686l3.759 4.123 11.841 5.311"/><path fill="#DCD9D8" d="M104.079 127.33s9.147 3.811 12.154 2.936l.313 3.561-8.27-1.749-5.011-3.561.814-1.187Z"/><path fill="#D33833" d="M164.033 141.637c-5.012-.125-9.585-.75-13.532-1.875.251-1.624-.25-3.186.188-4.373 1.128-.812 2.944-.812 4.636-1-1.441-.687-3.508-.999-5.137-.562-.063-1.124-.564-1.812-.877-2.686 2.819-1 9.46-7.56 13.218-5.436 1.817 1.063 2.569 6.935 2.694 9.872.126 2.374-.25 4.748-1.19 6.06Z"/><path fill="#000" stroke="#D33833" stroke-width="2" d="M164.033 141.637c-5.012-.125-9.585-.75-13.532-1.875.251-1.624-.25-3.186.188-4.373 1.128-.812 2.944-.812 4.636-1-1.441-.687-3.508-.999-5.137-.562-.063-1.124-.564-1.812-.877-2.686 2.819-1 9.46-7.56 13.218-5.436 1.817 1.063 2.569 6.935 2.694 9.872.126 2.374-.25 4.748-1.19 6.06Z"/><path fill="#D33833" d="M140.039 133.452c0 .375 0 .75-.063 1.125-1.566.999-4.072.999-5.826 1.874 2.506.125 4.511.75 6.265 1.562-.063.937-.063 1.937-.125 2.874-2.882 1.937-5.513 4.873-8.896 6.747-1.629.875-7.205 3.124-8.896 2.687-.94-.25-1.065-1.437-1.441-2.562-.815-2.374-2.694-6.247-2.882-9.871-.188-4.561-.689-12.245 4.26-11.308 4.009.75 8.645 2.562 11.715 4.248 1.942 1.125 3.007 2.374 5.889 2.624Z"/><path fill="#000" stroke="#D33833" stroke-width="2" d="M140.039 133.452c0 .375 0 .75-.063 1.125-1.566.999-4.072.999-5.826 1.874 2.506.125 4.511.75 6.265 1.562-.063.937-.063 1.937-.125 2.874-2.882 1.937-5.513 4.873-8.896 6.747-1.629.875-7.205 3.124-8.896 2.687-.94-.25-1.065-1.437-1.441-2.562-.815-2.374-2.694-6.247-2.882-9.871-.188-4.561-.689-12.245 4.26-11.308 4.009.75 8.645 2.562 11.715 4.248 1.942 1.125 3.007 2.374 5.889 2.624Z"/><path fill="#D33833" d="M142.858 138.888c-.438-2.499-.94-3.186-.752-5.373 6.704-4.436 7.894 7.622.752 5.373Z"/><path fill="#000" stroke="#D33833" stroke-width="2" d="M142.858 138.888c-.438-2.499-.94-3.186-.752-5.373 6.704-4.436 7.894 7.622.752 5.373Z"/><path fill="#EF3D3A" d="M152.506 140.887s-2.067-2.936-.564-3.811c1.504-.875 2.945 0 3.822-1.499.877-1.5 0-2.375.313-4.124.313-1.749 1.754-2.061 3.258-2.374 1.503-.312 5.638-.874 6.202.562l-1.754-5.31-3.571-1.187-11.214 6.497-.564 3.249v6.498m-27.001 11.245c-.376-4.623-.752-9.184-1.128-13.807-.626-6.872 1.629-5.685 7.643-5.685.94 0 5.638 1.062 5.952 1.749 1.628 3.311-2.694 2.562 1.879 5.061 3.822 2.061 10.65-1.25 9.084-5.935-.877-1.063-4.511-.313-5.826-1l-6.954-3.561c-2.945-1.5-9.711-3.749-12.843-1.625-7.956 5.373.501 18.868 3.32 24.491"/><path fill="#231F20" d="M129.263 46.112c-8.081-1.874-12.091 3.374-14.534 8.81-2.192-.5-1.315-3.5-.752-4.998 1.441-3.936 7.268-9.247 12.029-8.497 2.005.25 4.761 2.124 3.257 4.685Zm39.281 9.122h.376c1.816 3.748 3.383 7.747 5.701 11.12-1.567 3.624-11.653 6.748-11.528.375 2.193-.937 5.952-.187 7.894-1.437-1.128-3.06-2.694-5.685-2.443-10.058Zm-35.208.125c1.754 3.186 2.318 6.497 4.761 8.871 1.128 1.062 3.258 2.374 2.193 5.373-.251.687-2.068 2.25-3.133 2.562-3.821 1.124-12.78.25-9.773-4.561 3.195.125 7.455 2.061 9.836-.25-1.817-2.874-5.075-8.622-3.884-11.995Zm33.767 32.111c-5.764 3.687-12.217 7.748-21.739 6.81-2.005-1.749-2.819-5.684-.814-8.246 1.002 1.75.375 4.998 3.257 5.498 5.388.937 11.653-3.311 15.537-4.748 2.381-4.061-.188-5.498-2.381-8.122-4.448-5.31-10.337-11.933-10.149-19.867 1.817-1.312 1.942 2 2.193 2.561 2.318 5.373 8.144 12.308 12.342 16.931 1.065 1.125 2.756 2.25 2.944 2.999.564 2.124-1.441 4.748-1.19 6.185Zm-76.305-3.873c-1.817-1.062-2.256-5.56-4.386-5.685-3.07-.187-2.506 5.873-2.506 9.434-2.067-1.874-2.443-7.747-.94-10.746-1.753-.874-2.505.937-3.507 1.562 1.315-9.059 13.343-4.186 11.339 5.435Zm79.939 7.685c-2.694 5.123-6.516 10.746-14.409 10.933-.188-1.624-.314-4.186 0-5.186 6.076-.624 9.835-3.685 14.409-5.747Zm-37.84 3.311c5.012 2.624 14.284 2.936 21.175 2.749.376 1.5.376 3.374.376 5.185-8.833.375-19.233-1.811-21.551-7.934Zm-.94 4.873c3.509 8.747 15.474 7.747 25.561 7.497-.439 1.125-1.378 2.499-2.631 2.936-3.258 1.312-12.154 2.312-16.665-.062-2.819-1.499-4.698-4.936-6.265-6.935-.689-.937-4.448-3.374 0-3.436Z"/><path fill="#81B0C4" d="M166.664 147.634c-4.072 6.997-8.019 14.182-12.842 20.305 2.004-5.936 2.881-15.932 3.195-23.554 4.26-1.999 7.893.438 9.647 3.249Z"/><path fill="#231F20" d="M188.654 172.749c-4.574.937-7.769 5.373-12.279 5.061 2.506-3.437 6.766-4.936 12.279-5.061Zm2.004 7.122c-3.758.375-8.144 1-11.903.687 1.817-2.748 8.708-1.749 11.903-.687Zm1.316 6.185c-4.197.063-9.397 0-13.407-.312 2.381-2.562 10.713-.937 13.407.312Z"/><path fill="#DCD9D8" d="M158.771 202.924c.626 5.248 2.694 10.559 2.443 16.306-2.318.75-3.634 1.437-6.766 1.437-.188-4.873-.877-12.37-.689-17.055 1.504.125 3.759-1.062 5.012-.688Z"/><path fill="#F0D6B7" d="M152.005 125.456c-2.13 1.374-3.884 3.061-5.952 4.56-4.51.25-6.954-.312-10.211-2.874.062-.187.375-.125.375-.374 4.824 2.124 10.964-.875 15.788-1.312Z"/><path fill="#81B0C4" d="M126.82 158.13c1.316-5.685 6.516-8.684 11.214-11.808 4.824 6.123 7.769 13.995 11.026 21.617-7.705-2.312-15.536-5.998-22.24-9.809Z"/><path fill="#231F20" d="M153.759 203.674c-.188 4.686.438 12.12.689 17.056 3.132 0 4.448-.687 6.766-1.437.251-5.748-1.817-11.058-2.443-16.306-1.253-.437-3.509.75-5.012.687Zm-48.364-26.489c2.067 18.805 5.012 34.548 10.462 51.229 12.091 3.686 26.625 3.999 37.338.687-1.942-9.371-1.128-20.804-2.255-30.862-.877-7.56-.439-15.119-1.629-22.803-12.968-2.687-31.261-.625-43.916 1.749Zm46.986-1.625c-.126 8.06.376 16.057 1.002 24.116 3.132-.438 5.2-.75 8.082-1.437-.94-7.747-.815-16.556-2.757-23.428-2.193.062-4.135 0-6.327.749Zm15.724-1.312c-1.503-.312-3.195 0-4.573 0 .689 6.56 2.255 13.807 2.819 20.742 2.193.063 3.383-.999 5.2-1.312.125-6.06-.501-14.432-3.446-19.43Zm23.869 21.742c4.636-1.125 7.518-6.748 6.202-12.558-.877-3.873-2.38-11.245-4.072-13.744-1.19-1.812-4.511-4.248-7.204-2.562-4.323 2.749-11.903 3.561-15.036 6.873 1.566 5.247 2.068 12.37 2.694 18.992 5.388.312 11.966-1.499 16.476.437-3.132 1-7.141 1-9.835 2.499 2.255 1.062 7.392.875 10.775.063Zm-42.976-28.051c-3.258-7.622-6.202-15.494-11.026-21.617-4.699 3.124-9.836 6.123-11.214 11.808 6.766 3.811 14.597 7.497 22.24 9.809Zm8.019-23.553c-.314 7.621-1.191 17.617-3.195 23.553 4.823-6.185 8.77-13.308 12.842-20.305-1.754-2.811-5.387-5.248-9.647-3.248Zm-9.084-3.187c-1.817-.187-3.383 2.124-5.764 1.125-.564.625-1.065 1.249-1.629 1.874 5.263 6.373 7.706 15.369 11.778 22.803 2.193-7.184 1.942-14.994 2.443-22.803-3.007.125-4.698-2.811-6.828-2.999Zm-5.827-7.684c-.188 2.187.314 2.874.752 5.373 7.142 2.249 5.952-9.809-.752-5.373Zm-7.956-2.624c-3.07-1.687-7.706-3.499-11.715-4.248-4.949-.937-4.448 6.747-4.26 11.308.188 3.623 2.067 7.434 2.882 9.871.376 1.124.501 2.311 1.441 2.561 1.691.375 7.329-1.812 8.896-2.686 3.383-1.812 6.014-4.748 8.896-6.748.062-.937.062-1.936.125-2.873-1.754-.875-3.696-1.437-6.265-1.562 1.692-.875 4.26-.875 5.826-1.875 0-.374 0-.749.063-1.124-2.882-.312-3.947-1.562-5.889-2.624Zm-29.444-5.31c-2.569 2.624 7.204 6.122 10.274 6.31 0-1.625.94-3.187.752-4.374-3.697-.624-8.52-.187-11.026-1.936Zm31.574 1.187c0 .249-.313.187-.376.374 3.321 2.562 5.764 3.124 10.212 2.874 2.005-1.437 3.821-3.186 5.951-4.56-4.886.437-11.026 3.436-15.787 1.312Zm28.943 8.746c-.125-2.874-.877-8.809-2.693-9.871-3.759-2.187-10.4 4.436-13.219 5.435.313.875.814 1.562.877 2.687 1.692-.438 3.696-.125 5.137.562-1.691.187-3.508.187-4.636 1-.376 1.187.125 2.749-.188 4.373 3.947 1.124 8.52 1.687 13.532 1.874.94-1.249 1.316-3.623 1.19-6.06Zm-64.84-7.434c-.814-.563-6.265-7.622-7.017-7.31-9.835 3.873-19.044 10.558-27.251 16.931 7.83 16.805 11.026 37.36 11.59 57.164 8.958 4.186 16.852 10.246 29.068 10.871-1.441-9.934-2.694-18.868-3.508-28.239-3.07-1.312-7.455.063-10.337-.375 0-3.436 4.385-1.499 4.761-3.811.25-1.749-2.443-1.874-1.566-4.623 2.255.812 3.446 2.624 5.826 3.311 2.193-4.748 0-13.182.313-17.18.063-.75.376-4.124 2.068-3.561 1.503.5-.063 9.059.062 12.807.126 3.499-.438 6.81 1.003 8.996 11.778-1.624 23.743-2.623 36.523-2.998-2.819-1.187-6.139-2.312-9.773-4.374-2.004-1.124-8.206-3.436-8.77-5.31-.94-2.999 2.38-4.561 2.944-7.122-5.951 3.249-7.079-3.124-8.52-7.56-1.253-4.06-2.005-7.122-2.318-9.433-5.2-2.624-10.713-5.061-15.098-8.184Zm59.641-6.498c8.207-3.936 9.71 14.807 6.452 20.867.502 1.812 2.193 2.499 2.882 4.123-4.573 8.184-9.648 15.806-14.346 23.866 3.446-2.187 8.457-.375 12.529-2 1.504-.562 2.569-3.998 3.697-6.747 3.132-7.497 6.39-16.993 7.831-24.115.313-1.625 1.253-5.186 1.002-6.623-.376-2.624-3.884-4.56-5.701-6.122-3.32-2.999-5.388-5.56-8.896-8.372-1.316 2.062-4.323 3.436-5.45 5.123ZM81.651 49.049c-3.884 4.31-3.07 12.307-2.63 18.055 7.078-4.436 16.413.375 16.35 7.872 3.383-.063 1.253-4.186.627-6.872-2.005-8.684 3.383-18.056.25-25.99-6.077.5-11.026 2.936-14.597 6.935Zm27.941-24.928c-8.833 2.5-20.172 8.934-23.806 16.869 2.82-.438 4.761-1.812 7.518-2 1.065-.062 2.443.438 3.633.125 2.381-.624 4.448-5.997 6.265-7.996 1.754-1.937 3.884-2.812 5.325-4.561.94-.437 2.318-.437 2.381-1.812-.376-.437-.815-.75-1.316-.625Zm46.046 2.374c-9.209-5.185-24.746-9.058-34.519-4.185-7.893 3.936-18.543 10.433-22.177 18.617 3.383 7.934-1.002 15.181-1.316 23.24-.125 4.311 2.005 7.998 2.193 12.683-1.19 1.937-4.698 2.124-7.142 2-.814-4.124-2.255-8.747-6.515-9.247-6.014-.687-10.462 4.31-10.713 9.496-.313 6.123 4.699 16.244 11.84 15.556 2.757-.25 3.446-2.998 6.453-2.998 1.63 3.248-2.506 4.248-2.944 6.56-.125.624.313 2.936.626 4.06 1.316 5.311 4.198 12.246 7.017 16.306 3.633 5.186 10.713 5.935 18.356 6.435 1.378-2.936 6.39-2.686 9.647-1.936-3.946-1.562-7.58-5.311-10.587-8.622-3.446-3.811-6.954-7.872-7.142-12.87 6.578 9.059 11.966 16.993 23.869 20.992 9.021 2.999 19.546-1.375 26.5-6.248 2.882-1.999 4.573-5.248 6.641-8.121 7.643-10.996 11.214-26.615 10.462-41.796-.313-6.248-.313-12.495-2.443-16.68-2.193-4.374-9.648-8.373-14.034-4.374-.814-4.31 3.634-6.935 8.834-5.373-3.696-4.81-7.581-10.496-12.906-13.495Zm17.166 141.256c7.204-3.561 20.611-9.559 25.059 0 1.691 3.561 3.634 9.496 4.448 13.182 1.19 5.123-1.316 15.994-6.641 17.681-4.698 1.499-10.149 1.437-15.787.312-.689-.562-1.378-1.499-1.942-2.499-4.009-.125-7.831.188-10.963 1.874.313 2.999-1.692 3.436-3.634 4.061-1.378 5.56 2.819 12.808 1.817 17.806-.689 3.623-5.137 4.185-8.395 4.81-.125 1.999.125 3.686.376 5.373-.752 2.749-4.072 4.311-7.267 4.686-10.462 1.249-26.312 1.811-36.336-1.812-2.819-6.872-5.012-15.182-7.33-22.991-9.773 1.062-17.73-4.186-25.184-7.684-2.569-1.187-6.14-1.875-7.142-3.936-.94-1.999-.564-5.81-.814-9.372-.564-9.183-1.128-18.055-3.509-27.426-1.065-4.248-3.007-7.934-4.322-11.995-1.253-3.749-3.383-8.434-3.947-12.183-.815-5.56 4.448-5.872 7.768-8.309 5.2-3.748 9.272-5.81 14.91-9.184 1.692-.999 6.704-3.498 7.267-4.685 1.128-2.312-1.942-5.561-2.756-7.372-1.316-2.874-2.005-5.311-2.193-8.122-4.698-.75-8.332-3.561-10.462-6.685-3.57-5.248-6.077-14.931-2.944-22.241.25-.562 1.44-1.75 1.628-2.624.376-1.75-.689-4.06-.751-5.935-.314-9.559 1.629-17.805 8.081-20.68 2.631-10.433 12.029-13.869 20.862-19.054 3.32-1.937 6.954-3.186 10.713-4.56 13.469-4.936 34.205-4 45.419 4.435 4.762 3.561 12.342 11.12 15.036 16.618 7.204 14.432 6.641 38.61 1.629 56.228-.689 2.374-1.629 5.81-3.007 8.684-.94 1.999-3.885 5.935-3.571 7.684.376 1.812 6.766 6.622 8.144 7.934 2.443 2.374 7.142 5.498 7.518 8.497.438 3.186-1.379 7.559-2.318 10.621-3.007 10.246-6.015 19.679-9.46 28.863Z"/><path fill="#F7E4CD" d="M124.878 96.78c.376-.5 2.506-1.312 5.513.125 0 0-3.571.562-3.257 6.497l-1.504-.312c.063.062-1.504-5.31-.752-6.31Z"/><path fill="#1D1919" d="M150.814 147.509c0 .875-.751 1.625-1.629 1.625-.877 0-1.628-.75-1.628-1.625 0-.874.751-1.624 1.628-1.624.94 0 1.629.75 1.629 1.624Zm1.629 7.56c0 .874-.752 1.624-1.629 1.624s-1.628-.75-1.628-1.624c0-.875.751-1.625 1.628-1.625.94 0 1.629.688 1.629 1.625Z"/></g><defs><clipPath id="a"><path fill="#fff" d="M44 15h161v221H44z"/></clipPath></defs></svg>