<svg xmlns="http://www.w3.org/2000/svg" width="250" height="250" fill="none"><g clip-path="url(#a)"><path fill="#FCBF92" d="m43.263 136.102 82.08 37.968 82.076-37.968-82.078-3.418-82.078 3.418Z"/><path fill="#9D5025" d="M125.593 25 43.3 66.243v58.193h98.678V33.229L125.593 25Z"/><path fill="#FCBF92" d="M43.3 165.461 125.642 224l82.091-58.539-82.272-12.031-82.16 12.031Z"/><path fill="#9D5025" d="M125.593 124.436h43.416V62.339l-12.678-5.095-30.736 9.01-.002 58.182Z"/><path fill="#9D5025" d="M156.331 124.436h33.558V84.159l-9.598-2.894-23.96 4.088v39.083Z"/><path fill="#9D5025" d="M180.291 78.108v46.328h27.126l.32-46.533-8.241-3.308-19.205 3.513Z"/><path fill="#F68534" d="M125.593 25v99.436h16.385V33.229L125.593 25Zm43.416 37.34-12.678-5.096v67.192h12.678V62.339Zm20.88 21.819-9.598-2.894v43.173h9.598V84.159Zm9.607 40.277h8.239V77.901l-8.239-3.308v49.843Zm-74.153 19.914v29.72l82.076-20.56v-17.408l-82.076 8.248Zm0 50.306V224l82.39-41.396v-17.143l-82.39 29.195Z"/><path fill="#9D5025" d="M43.3 182.782 125.343 224v-29.56l-82.039-28.981-.004 17.323Zm-.037-29.271 82.08 20.559v-29.72l-82.08-8.25v17.411Z"/></g><defs><clipPath id="a"><path fill="#fff" d="M43 25h165v199H43z"/></clipPath></defs></svg>