<svg xmlns="http://www.w3.org/2000/svg" width="250" height="250" fill="none"><path fill="#17120F" d="M221.366 172.413a24.455 24.455 0 0 0-17.337 7.219 24.712 24.712 0 0 0-7.181 17.428 24.711 24.711 0 0 0 7.181 17.427 24.455 24.455 0 0 0 17.337 7.219 24.454 24.454 0 0 0 17.337-7.219 24.711 24.711 0 0 0 7.181-17.427 24.712 24.712 0 0 0-7.181-17.428 24.454 24.454 0 0 0-17.337-7.219ZM154.457 29.261h-42.38c0 34.913-15.961 66.958-43.802 87.921l-16.794 12.64 65.061 89.167h53.481l-59.859-82.047c28.375-28.394 44.293-66.604 44.293-107.681ZM3 218.989h43.3V29.261H3v189.728Z"/></svg>