<svg version="1.1" id="Layer_1" xmlns="http://www.w3.org/2000/svg" xmlns:xlink="http://www.w3.org/1999/xlink" x="0px" y="0px"
	 width="100%" viewBox="0 0 512 512" enable-background="new 0 0 512 512" xml:space="preserve">
<path fill="#FFFFFF" opacity="1.000000" stroke="none" 
	d="
M292.000000,513.000000 
	C194.690292,513.000000 97.880577,513.000000 1.035435,513.000000 
	C1.035435,342.398590 1.035435,171.797195 1.035435,1.097890 
	C171.559723,1.097890 342.119537,1.097890 512.839661,1.097890 
	C512.839661,171.666550 512.839661,342.333252 512.839661,513.000000 
	C439.463837,513.000000 365.981903,513.000000 292.000000,513.000000 
M387.814789,268.432495 
	C387.194916,268.584442 386.575043,268.736389 385.353973,269.159729 
	C384.864563,270.092651 384.375183,271.025604 383.275665,272.232483 
	C381.357452,274.481628 379.412689,276.708710 377.525360,278.983490 
	C366.203461,292.629730 355.041687,306.412659 343.513214,319.881866 
	C338.527344,325.707123 336.318604,331.820404 336.841400,339.595337 
	C337.499390,349.381195 337.010590,359.244873 336.988678,369.074890 
	C336.985352,370.563019 337.016022,372.089111 336.717865,373.532990 
	C332.884003,392.099396 316.899780,404.424927 297.790924,404.114166 
	C270.307312,403.667114 242.811020,404.001923 215.320129,403.994659 
	C213.824905,403.994263 212.275589,404.159027 210.842636,403.838806 
	C190.150101,399.215149 179.180374,383.896515 179.103683,363.949860 
	C178.835892,294.307312 178.973358,224.663055 179.068130,155.019592 
	C179.073639,150.966690 179.681137,146.820389 180.659256,142.879044 
	C185.351700,123.970711 201.068909,114.069939 219.543793,114.017982 
	C245.035141,113.946289 270.527588,114.119385 296.018158,113.961197 
	C315.470093,113.840492 329.785156,123.118500 336.063690,142.840500 
	C336.550476,147.523056 337.037231,152.205597 337.554657,157.183105 
	C338.623260,156.592987 339.311005,156.213181 340.787262,155.945602 
	C356.163086,150.014099 371.477661,152.490952 386.943420,156.783325 
	C386.943420,149.572678 387.884918,142.703217 386.773010,136.183975 
	C382.898315,113.466080 372.500153,94.290718 354.230164,79.674324 
	C338.773560,67.308701 321.481934,60.062733 301.512787,60.017635 
	C271.514435,59.949890 241.515686,59.960815 211.517395,60.044285 
	C207.254120,60.056145 202.927780,60.303448 198.740799,61.055248 
	C175.134201,65.293945 156.133621,77.158730 142.053345,96.532074 
	C130.237198,112.790176 124.814041,131.013550 124.891052,151.283691 
	C125.168381,224.279037 124.839500,297.276917 125.221138,370.271332 
	C125.264519,378.568726 127.464439,387.159973 130.222458,395.071838 
	C135.295242,409.623901 143.783020,422.099548 155.672134,432.297974 
	C171.268478,445.676453 188.992477,453.648071 209.574738,453.904144 
	C239.568619,454.277344 269.570709,454.040253 299.569000,453.956055 
	C304.000763,453.943573 308.462433,453.573639 312.856232,452.973328 
	C330.615540,450.547089 345.855255,442.567688 358.821564,430.548248 
	C377.521057,413.214203 387.271179,391.276581 387.821075,365.981659 
	C388.501801,334.669312 387.888336,303.328888 387.972565,271.263458 
	C387.926178,270.518005 387.879791,269.772583 387.814789,268.432495 
M335.025879,273.457489 
	C340.197174,267.289917 345.273163,261.039337 350.558990,254.971558 
	C362.571320,241.182129 374.700256,227.494339 386.752930,213.739929 
	C390.818604,209.100235 389.760590,201.900024 384.800720,198.348923 
	C377.036377,192.789932 368.323486,191.491013 359.071686,191.975891 
	C348.300049,192.540405 339.549072,197.289551 332.523773,205.104004 
	C324.722778,213.781265 317.338715,222.833420 309.775330,231.724228 
	C302.426910,240.362335 295.134979,249.049255 287.713165,257.623779 
	C283.654510,262.312836 279.378296,266.813568 274.942108,271.682495 
	C273.284851,269.693146 272.141754,268.307831 270.984741,266.934235 
	C264.844116,259.643951 258.587952,252.447144 252.597366,245.035645 
	C248.740982,240.264526 239.679138,241.210938 235.817154,245.763092 
	C222.121735,261.906036 223.214310,285.248169 236.963821,300.510162 
	C240.256226,304.164764 243.182800,308.146942 246.428619,311.845947 
	C253.982635,320.454651 262.154114,327.740967 274.853485,327.068420 
	C286.370941,326.458466 294.384552,320.148468 301.481049,311.992706 
	C312.503540,299.324829 323.516083,286.648224 335.025879,273.457489 
z"/>
<path fill="#2095F3" opacity="1.000000" stroke="none" 
	d="
M336.166595,142.000488 
	C329.785156,123.118500 315.470093,113.840492 296.018158,113.961197 
	C270.527588,114.119385 245.035141,113.946289 219.543793,114.017982 
	C201.068909,114.069939 185.351700,123.970711 180.659256,142.879044 
	C179.681137,146.820389 179.073639,150.966690 179.068130,155.019592 
	C178.973358,224.663055 178.835892,294.307312 179.103683,363.949860 
	C179.180374,383.896515 190.150101,399.215149 210.842636,403.838806 
	C212.275589,404.159027 213.824905,403.994263 215.320129,403.994659 
	C242.811020,404.001923 270.307312,403.667114 297.790924,404.114166 
	C316.899780,404.424927 332.884003,392.099396 336.717865,373.532990 
	C337.016022,372.089111 336.985352,370.563019 336.988678,369.074890 
	C337.010590,359.244873 337.499390,349.381195 336.841400,339.595337 
	C336.318604,331.820404 338.527344,325.707123 343.513214,319.881866 
	C355.041687,306.412659 366.203461,292.629730 377.525360,278.983490 
	C379.412689,276.708710 381.357452,274.481628 383.976593,272.109680 
	C385.729675,271.991425 386.781830,271.996002 387.833984,272.000580 
	C387.888336,303.328888 388.501801,334.669312 387.821075,365.981659 
	C387.271179,391.276581 377.521057,413.214203 358.821564,430.548248 
	C345.855255,442.567688 330.615540,450.547089 312.856232,452.973328 
	C308.462433,453.573639 304.000763,453.943573 299.569000,453.956055 
	C269.570709,454.040253 239.568619,454.277344 209.574738,453.904144 
	C188.992477,453.648071 171.268478,445.676453 155.672134,432.297974 
	C143.783020,422.099548 135.295242,409.623901 130.222458,395.071838 
	C127.464439,387.159973 125.264519,378.568726 125.221138,370.271332 
	C124.839500,297.276917 125.168381,224.279037 124.891052,151.283691 
	C124.814041,131.013550 130.237198,112.790176 142.053345,96.532074 
	C156.133621,77.158730 175.134201,65.293945 198.740799,61.055248 
	C202.927780,60.303448 207.254120,60.056145 211.517395,60.044285 
	C241.515686,59.960815 271.514435,59.949890 301.512787,60.017635 
	C321.481934,60.062733 338.773560,67.308701 354.230164,79.674324 
	C372.500153,94.290718 382.898315,113.466080 386.773010,136.183975 
	C387.884918,142.703217 386.943420,149.572678 386.943420,156.783325 
	C371.477661,152.490952 356.163086,150.014099 340.393494,155.458679 
	C339.999390,153.313995 340.399750,151.525925 339.912201,150.026581 
	C339.002960,147.230621 340.115479,143.386459 336.166595,142.000488 
z"/>
<path fill="#2095F3" opacity="1.000000" stroke="none" 
	d="
M334.779358,273.716431 
	C323.516083,286.648224 312.503540,299.324829 301.481049,311.992706 
	C294.384552,320.148468 286.370941,326.458466 274.853485,327.068420 
	C262.154114,327.740967 253.982635,320.454651 246.428619,311.845947 
	C243.182800,308.146942 240.256226,304.164764 236.963821,300.510162 
	C223.214310,285.248169 222.121735,261.906036 235.817154,245.763092 
	C239.679138,241.210938 248.740982,240.264526 252.597366,245.035645 
	C258.587952,252.447144 264.844116,259.643951 270.984741,266.934235 
	C272.141754,268.307831 273.284851,269.693146 274.942108,271.682495 
	C279.378296,266.813568 283.654510,262.312836 287.713165,257.623779 
	C295.134979,249.049255 302.426910,240.362335 309.775330,231.724228 
	C317.338715,222.833420 324.722778,213.781265 332.523773,205.104004 
	C339.549072,197.289551 348.300049,192.540405 359.071686,191.975891 
	C368.323486,191.491013 377.036377,192.789932 384.800720,198.348923 
	C389.760590,201.900024 390.818604,209.100235 386.752930,213.739929 
	C374.700256,227.494339 362.571320,241.182129 350.558990,254.971558 
	C345.273163,261.039337 340.197174,267.289917 334.779358,273.716431 
z"/>
<path fill="#2095F3" opacity="1.000000" stroke="none" 
	d="
M336.115143,142.420502 
	C340.115479,143.386459 339.002960,147.230621 339.912201,150.026581 
	C340.399750,151.525925 339.999390,153.313995 339.999237,155.402573 
	C339.311005,156.213181 338.623260,156.592987 337.554657,157.183105 
	C337.037231,152.205597 336.550476,147.523056 336.115143,142.420502 
z"/>
<path fill="#2095F3" opacity="1.000000" stroke="none" 
	d="
M387.903259,271.632019 
	C386.781830,271.996002 385.729675,271.991425 384.281647,271.972687 
	C384.375183,271.025604 384.864563,270.092651 385.761536,269.223999 
	C386.723846,269.201233 387.278625,269.114166 387.833405,269.027130 
	C387.879791,269.772583 387.926178,270.518005 387.903259,271.632019 
z"/>
<path fill="#2095F3" opacity="1.000000" stroke="none" 
	d="
M387.824097,268.729797 
	C387.278625,269.114166 386.723846,269.201233 386.062134,269.088318 
	C386.575043,268.736389 387.194916,268.584442 387.824097,268.729797 
z"/>
</svg>
