<svg xmlns="http://www.w3.org/2000/svg" width="250" height="250" fill="none"><g clip-path="url(#a)"><path fill="#34A853" d="M125.017 8.005a20.786 20.786 0 0 0-10.619 2.92 20.528 20.528 0 0 0-7.59 7.915 20.286 20.286 0 0 0 1.088 21.014l8.816-8.72a8.36 8.36 0 0 1-.435-2.697c0-1.705.51-3.372 1.466-4.79a8.692 8.692 0 0 1 3.906-3.175 8.782 8.782 0 0 1 5.029-.49 8.73 8.73 0 0 1 4.456 2.359 8.599 8.599 0 0 1 2.382 4.414 8.542 8.542 0 0 1-.495 4.981 8.637 8.637 0 0 1-3.206 3.869 8.762 8.762 0 0 1-7.546 1.022l-8.802 8.72a20.742 20.742 0 0 0 8.932 3.353c3.202.41 6.456.07 9.5-.992a20.648 20.648 0 0 0 8.03-5.126 20.393 20.393 0 0 0 4.838-8.16 20.246 20.246 0 0 0 .607-9.443 20.318 20.318 0 0 0-3.753-8.701 20.577 20.577 0 0 0-7.308-6.094 20.788 20.788 0 0 0-9.296-2.179Z"/><path fill="#FBBC04" d="M116.809 67.552a31.568 31.568 0 0 0-6.428-19.139l-11.44 11.318a16.113 16.113 0 0 1 1.809 10.333 16.197 16.197 0 0 1-4.941 9.274l6.216 15.05a32.062 32.062 0 0 0 10.845-11.552 31.702 31.702 0 0 0 3.939-15.284Z"/><path fill="#EA4335" d="M84.845 83.796h-.298a16.54 16.54 0 0 1-7.366-1.729 16.377 16.377 0 0 1-5.8-4.819 16.18 16.18 0 0 1-2.998-6.884 16.11 16.11 0 0 1 .439-7.485 16.22 16.22 0 0 1 3.784-6.494 16.427 16.427 0 0 1 6.323-4.121 16.558 16.558 0 0 1 14.632 1.69l11.327-11.219a32.39 32.39 0 0 0-13.793-6.471 32.55 32.55 0 0 0-15.253.534 32.336 32.336 0 0 0-13.296 7.421 31.923 31.923 0 0 0-8.364 12.646 31.662 31.662 0 0 0-1.557 15.038 31.773 31.773 0 0 0 5.597 14.064 32.162 32.162 0 0 0 11.5 9.94 32.501 32.501 0 0 0 14.825 3.591c2.187.001 4.37-.213 6.515-.64l-6.217-15.062Z"/><path fill="#4285F4" d="M125.45 96.814a73.849 73.849 0 0 0-21.137 3.066l9.064 21.934a50.47 50.47 0 0 1 12.061-1.453c11.422.003 22.49 3.929 31.317 11.109 8.828 7.18 14.869 17.17 17.095 28.267a48.493 48.493 0 0 1-4.888 32.592c-5.386 9.977-14.098 17.796-24.652 22.124a49.812 49.812 0 0 1-33.225 1.612c-10.93-3.286-20.371-10.223-26.716-19.631a48.55 48.55 0 0 1-8.08-31.964c1.12-11.259 6.146-21.786 14.223-29.786a49.888 49.888 0 0 1 11.775-8.621l-8.965-21.872c-16.14 7.83-28.81 21.269-35.591 37.756a71.862 71.862 0 0 0-1.182 51.643c6.02 16.774 18.06 30.768 33.827 39.315a73.813 73.813 0 0 0 51.665 7.03c17.509-4.02 32.913-14.279 43.277-28.825 10.363-14.545 14.962-32.358 12.919-50.046-2.042-17.687-10.583-34.012-23.995-45.863-13.412-11.851-30.757-18.4-48.73-18.4l-.062.013Z"/></g><defs><clipPath id="a"><path fill="#fff" d="M52 8h147v234H52z"/></clipPath></defs></svg>