<svg xmlns="http://www.w3.org/2000/svg" width="250" height="250" fill="none"><path fill="#59473C" d="M219.228 174.636v-1.945c0-.389-.386-.778-.386-1.556-.385-.779-.771-1.946-1.542-2.724-.772-.778-1.543-1.167-2.315-1.945-.771-.39-1.543-.779-2.314-.779h-.771c.771-3.891-.386-7.003-1.158-8.56l2.7-2.723 1.158-2.335c.385-.778.385-1.167.385-1.945v-1.168c0-1.167-.385-2.723-1.157-4.669-.386-.778-1.157-1.945-1.543-2.723-.771-.778-1.543-1.557-2.7-2.335h-.385c-2.315-3.113-4.629-5.836-6.943-7.782-1.157-1.167-2.315-1.945-3.086-2.723-.771-.778-1.543-1.168-2.314-1.557-1.157-.778-1.543-1.167-1.929-1.556-.771-.389-1.543-.778-1.928-1.167v-5.837c0-2.723.385-6.225.771-11.283v-4.669c0-2.335-.386-4.28-.771-6.226 0-.389-.386-.778-.386-1.167 0-.39 0-.39-.386-.778 0-.39 0-.39-.386-.778 0 0 0-.39-.385-.39 0-.389-.386-.778-.772-1.167v-.389c-.385-.778-.771-1.556-1.543-1.945-.385-1.168-.771-2.724-1.542-4.67-.772-1.556-1.543-3.501-2.7-5.447-.386-.778-.772-1.167-1.543-1.945.385-.39 6.171-6.615 10.8-14.397 8.485-15.174 5.785-24.123 1.928-29.181-3.857-4.28-8.871-6.615-15.428-7.393-13.115-1.556-28.157 4.669-32.015 6.614l-6.942-7.781-1.929-1.946c-.771-.389-1.543-1.167-2.314-1.556-1.543-.778-3.472-1.168-5.4-1.557-3.857-.389-8.486 0-13.115 1.168-7.328 1.945-15.428 5.447-23.914 10.505-8.486 5.058-17.357 11.673-25.843 19.844C58.771 61.8 49.9 71.916 43.728 81.643c-3.086 4.67-5.786 9.728-7.714 14.008-1.929 4.669-3.086 8.56-3.472 12.84-.385 2.724-.385 5.447.386 8.171.386 1.167.772 1.945 1.157 3.113 0 .389.772 1.556 1.543 2.723l8.1 8.56s0 .389-.386.389c0 .389-.385.389-.385.779 0 0 0 .389-.386.389 0 .389-.386.389-.386.778 0 0 0 .389-.385.389 0 .389-.386.389-.386.778 0 0 0 .389-.386.389 0 .389 0 .389-.386.778v.389c0 .39 0 .39-.385.779v.778c0 .389 0 .389-.386.778v14.785s0 .39.386.779v.389s0 .389.385.778v1.945s0 .389.386.389v.779s0 .389.386.389v.389s0 .389.386.389c0 0 0 .389.385.389v.389s0 .389.386.389c0 0 0 .389.386.389l.385.389s0 .389.386.389c0 0 0 .39.386.39 0 0 0 .389.386.389l.385.389.386.389.386.389.385.389.386.389.386.389.386.389s.385.389.771.389l.386.389.771.779c.386 0 .386.389.772.389l.385.389.386.389h.386c.385 0 .771.389.771.389.386 0 .772.389 1.157.389 0 0 .386 0 .386.389h.771s.386 0 .386.389c0 0 .386 0 .386.389h.386c.385 0 .385 0 .771.389.386 0 .771.39 1.157.39s.772 0 1.157.389c.386 0 .772 0 1.157.389H60.7v.389c.385 1.556 1.157 3.113 1.928 4.669 10.029 27.625 37.029 49.025 68.272 52.916 31.242 3.891 64.414-17.12 77.914-45.134.771-1.168 1.157-2.335 1.543-3.113 1.157-1.556 2.314-2.724 3.085-4.28 5.4 1.167 5.786-.778 5.786-2.335Z"/><path fill="#141B26" d="M192.612 36.898c-1.543-1.556-3.086-3.113-5.014-3.89-.386 0-.772-.39-1.157-.39l-.386-.389c-1.543-.778-3.472-1.167-5.4-1.167-8.872-1.168-19.286 2.334-25.457 4.669-.386 0-.772.389-1.157.389-.386.39-1.158.39-1.543.778-.772.39-1.543.778-2.7 1.167h-.386l-2.314-2.723-.386-1.167-.386-.39-5.785-7.003-.386-.778-1.157-.779-1.543.39-1.929.389c-1.157-.39-2.314-.779-3.857-1.168-3.086-.389-6.943 0-11.186 1.168-4.242 1.167-9.257 3.112-14.657 5.836-10.414 5.058-21.985 13.23-33.171 23.345-3.857 3.502-7.329 7.393-10.8 10.895-3.086 3.502-6.171 7.004-8.871 10.505-5.4 7.004-9.643 14.008-12.343 20.233-1.929 4.28-2.7 7.782-3.086 11.284-.386 2.334-.386 4.28 0 6.225 0 .389.386 1.168.386 1.557.385 1.167.771 1.945 1.542 2.723L46.426 126l.772.778.771-.778.386-.389.771-.778.386-.389.386-.389.385-.39c.386 0 .386-.389.772-.389l.386-.389c.385 0 .385-.389.771-.389l.386-.389c.386 0 .386-.389.771-.389 0 0 .386 0 .386-.389.386 0 .386-.389.771-.389 0 0 .386 0 .386-.389.386 0 .386-.389.772-.389 0 0 .385 0 .385-.389.386 0 .386-.39.772-.39h.385s.386 0 .386-.389c0 0 .386 0 .386-.389.386 0 .771-.389 1.157-.389h10.029c1.157 0 2.314.389 3.47.389h.772v-.389c.772-1.167 1.157-2.334 1.929-3.502 3.857-6.225 7.714-12.061 11.957-16.73 1.543-1.557 2.7-3.113 4.243-4.67 5.786-6.225 11.957-10.894 17.357-14.785l3.471-2.335c1.543-1.167 3.086-1.945 4.629-2.723 1.157-.778 2.314-1.168 3.471-1.946 1.929-.778 3.472-1.556 4.629-2.334.386 0 .771-.39 1.157-.39.772-.388 1.157-.388 1.543-.778h-4.629c-.771 0-1.928 0-2.7.39h-.771c2.314-1.168 4.629-1.946 6.557-2.724 1.543-.39 2.7-.778 4.243-1.167 1.929-.39 3.471-.39 5.014-.779h5.786c2.7.39 4.243.779 4.243.779-.386-.39-.772-1.168-1.543-1.557-1.157-.778-1.929-1.167-3.086-1.556-.385 0-.771-.39-1.157-.39s-.386 0-.771-.388c.385 0 .771 0 1.543-.39h1.542c3.858-.389 7.329 0 10.029.39 3.086.389 5.014 1.556 5.014 1.556-.385-.778-1.157-1.556-1.928-2.334-.386-.39-1.157-.779-1.543-1.168 1.157.39 1.928.39 3.086.778 2.314.779 4.628 1.557 6.171 2.335.386.39 1.157.39 1.543.778 0 0 .386 0 .386.39 1.542.777 2.314 1.556 2.314 1.556-.386-.779-.772-1.946-1.543-2.724l-.386-.39h.772c.771.39 1.543.78 2.7 1.168 0 0 .385 0 .385.39.386.388.772.388 1.158.777.385.39.771.39 1.157.779.385 0 .385.389.771.389.386.389.772.778 1.543 1.167.386.39.771.778 1.543 1.167l.386.39c.385.388.771.778.771 1.167.386.778 1.157 1.556 1.543 2.334.386.778 1.157 1.946 1.543 3.113.385-.39.771-.778 1.157-1.556 6.171-6.226 20.443-24.513 11.957-35.797Z"/><path fill="#856249" d="M214.212 175.415s0-1.168-.385-2.335c0 0 0-.389-.386-.389 0 0-.386-.389-.772-.389 0 0-.385 0-.385-.389-.386 0-.772-.389-1.543-.389h-1.929v.778c0 .389 0 .778.386 1.167v.389c-.386.389-.771 1.946-2.314 3.502-.386.389-.386.778-.772.778-4.243 4.28-13.114 10.506-32.4 14.008-6.557.778-12.343.778-17.357.389-7.328-.779-13.114-3.502-15.814-6.615l-.772-.778c0-.389-.385-.389-.385-.778v-.389c-1.157-1.946-1.543-4.28-1.543-6.226 0-2.723.771-5.058 2.314-7.003 1.157-1.557 2.7-2.724 4.243-3.113.386-.778 1.157-.778 2.314-.778h.772c.771 0 1.543.389 2.7.389h.385c3.472.389 9.258 1.167 16.2.389 12.343-.778 28.929-4.669 43.972-18.287 0-1.168 0-3.113-1.543-4.67l-.771-.778s-.386-.389-.772-.389-.386-.389-.771-.389c-.386 0-.386-.389-.772-.389l-.385-.389c-3.858-5.836-9.258-9.338-11.186-10.895-1.157-.778-1.543-1.167-1.543-1.167-4.629-2.724-5.4-3.891-5.014-11.673 0-2.723.385-6.225.771-11.283v-8.949c0-.39 0-.39-.386-.778v-1.169s0-.389-.385-.389v-.389c0-.39-.386-.778-.386-.778v-.39c0-.388-.386-.388-.386-.777l-.385-.39v-.389c0-.389-.386-.389-.386-.778s0-.778-.386-1.167v-.778c0-.39-.386-.778-.386-1.167v-.39c0-.389 0-.389-.385-.778v-.389c0-.389-.386-.389-.386-.778 0 0 0-.39-.386-.39 0-.388-.385-.388-.385-.777 0 0 0-.39-.386-.39 0-.388-.386-.388-.386-.778 0 0 0-.389-.386-.389 0-.389-.385-.389-.385-.778 0 0 0-.389-.386-.389 0 0 0-.39-.386-.39l-.771-.777-.772-.778-.385-.39-.386-.389s-.386-.389-.771-.389h-.386c-2.7-1.945-3.472-2.334-4.629-2.334h-.385c-.772-.39-1.929-.39-3.086-.778h-4.629c-1.157 0-2.314 0-3.471.389.386-.39 1.157-.778 1.543-1.168.771-.389 1.928-.778 1.928-.778-.385 0-1.157 0-1.543.39h-1.157c-2.7.388-5.014 1.556-6.557 1.945-.386 0-.386 0-.386.389h-.385c1.157-1.946 2.7-3.113 3.857-3.502.386 0 .386 0 .386-.39h.771-1.543c-2.7.39-5.4 1.168-7.714 2.335-1.543.779-2.7 1.946-3.857 2.724-.386 0-.772 0-.772.39-3.085.777-6.557 1.556-10.414 2.723-1.543.389-2.7.778-4.243 1.556l-3.471 1.168-2.315 1.167c-5.785 2.723-11.571 6.225-16.2 10.894l-.385.39-1.157 1.167-.386.389-.772.778c-.771 1.167-1.928 2.334-2.7 3.113-.771.778-1.157 1.945-1.542 2.723-1.158 1.946-1.929 3.891-2.7 6.226l-1.158 3.502c0 .389 0 .778-.385.778-.386 1.167-.386 2.723-.772 3.891v.778c0 .778 0 1.556-.385 1.945v11.285c0 .778.385 1.945.385 2.724v.778c0 .778.386 1.556.386 2.334v-3.891c0-.778.386-1.945.771-2.723 0-.389 0-.389.386-.778v-.39c0-.389.386-.778.772-1.167v5.058c0 2.724.385 6.226.771 9.339 0 0 0-5.448 1.157-5.837 0 0 1.543 9.727 3.086 13.618 0 .389.386.779.386 1.168v-1.168l-.386-5.447v-.389c1.157 2.335 2.314 4.669 3.857 7.004.386.778.771 1.167 1.157 1.945-2.7 2.335-5.014 5.836-6.943 9.727-.385.779-.385 1.168-.771 1.946 0 .389-.386.778-.386 1.167v.389c0 .389 0 .389-.386.778v.389c0 .39 0 .39-.385.779v.389c0 .389 0 .778-.386 1.167 0 .389 0 .778-.386 1.167v10.506c0 .389 0 .389.386.778v.389c0 .389 0 .389.386.778v.389c0 .389 0 .389.385.778v.39c0 .389.386.778.386.778v.389c.386.778.772 1.945 1.157 2.723 0 0 0 .39.386.39 0 .389.386.778.386.778l.385.389c0 .389.386.778.386.778l.386.389c0 .389.386.389.386.778l.385.389.772.779.385.389.772.778.386.389c.385.389.385.778.771.778l.386.389 1.157 1.167s-.386-.389-.772-1.167c0 0 0-.389-.385-.389 0 0 0-.389-.386-.389 0 0 0-.389-.386-.389-.771-1.556-1.157-3.891-1.157-6.226.386.39.386.779.772 1.168.385.778.771 1.167 1.157 2.334 0 .389.385.389.385.778.772 1.168 1.543 2.335 2.315 3.891 1.157 1.557 1.928 3.113 3.085 4.669 0 0-1.157-2.723-1.542-4.28v-1.167l.385.389.386.389c.386.389.386.779.771 1.168 0 0 .386.389.386.778s.386.389.386.778c1.928 2.335 4.243 5.447 5.786 7.004.385.389 1.157.778 1.542 1.167l-2.314-4.28c5.4 4.669 28.543 10.505 50.914 3.891 2.7-.778 5.4-1.946 8.1-3.113l4.629-2.334h.386c1.157-.779 2.314-1.168 3.471-1.946.772-.389 1.543-1.167 2.314-1.556 1.158-.778 2.7-1.946 3.858-3.113l.385-.389 3.472-3.502c1.543-1.556 2.7-3.113 3.857-4.669.386-.389.771-.778.771-1.167 0 0 0-.389.386-.389.386-.389.771-1.168 1.157-1.557 0 0 0-.389.386-.389 0-.389.386-.778.386-.778 0-.389.385-.389.385-.778s.386-.389.386-.778c.386-.389.386-.779.771-1.168 0 0 0-.389.386-.389 0-.389.386-.778.386-1.167 0 0 0-.389.386-.389.385-.389.385-.778.771-1.167l1.929-1.946.385-.389c2.315.389 2.7-.778 2.7-1.945ZM79.598 158.684c-.386-1.946-.386-3.113-.771-4.669v-.39c-.386 0-.386.39-.772.779l-.386.389c-.77 1.556-1.542 3.502-1.542 3.502 0-.779 0-1.168.385-1.946v-.389c0-.778 0-1.556.386-1.945v-.39c0-.778.386-1.556.386-2.334v-1.167c0-.779.385-1.168.385-1.946 0-.389.386-1.167.386-1.556v-3.502l-.386.389-.385.389c0 .389-.386.389-.386.778 0 0 0 .389-.386.389 0 .39-.385.39-.385.779-.386.778-.386 1.167-.772 1.945v.389c0 .389 0 .778-.386.778v-5.447c0-.389 0-.389.386-.778v-.778c0-.389.386-.778.386-1.168v-.778c.386-.778.386-1.167.771-1.945 0-.389.386-1.167.772-1.557 0-.389 0-.389.385-.778 0-.389.386-.778.386-1.167 0 0 0-.389.386-.389v-.389s0-.389.386-.389l2.314-1.557v-.389c0-.389.386-.389.386-.778.385-.389.385-.778.771-1.167.386-.778.772-1.557 1.157-1.946 0-.389.386-.389.386-.389s-.386-.389-1.157-.778c-.772-.389-1.929-1.167-3.472-1.945-.385-.389-.771-.389-1.543-.779-.77-.389-1.157-.389-1.928-.778h-.386c-.386 0-1.157-.389-1.543-.389-.385 0-.771-.389-1.157-.389h-3.857c-1.157 0-1.928 0-2.7.389-1.543.389-3.471.778-5.014 1.167-.386.39-1.157.39-1.543.779 0 0-.386 0-.386.389 0 0-.386 0-.386.389-1.542.778-3.085 1.945-4.242 2.723a11.807 11.807 0 0 0-3.086 3.113c-1.157-.389-1.157 0-1.543.389-.386.389-.771.778-.771 1.168-.386.778-1.158 1.556-1.543 2.334 0 .389-.386.778-.386.778-.771 1.946-1.543 4.28-1.928 6.226v9.727s0 .389.385.389v.389s0 .389.386.389c0 0 0 .389.386.389v.779s0 .389.385.389l.386.389s0 .389.386.389l.385.389s0 .389.386.389c0 .389.386.389.386.389s0 .389.386.389c0 .389.385.389.385.389s0 .389.386.389c0 .389.386.389.386.389s0 .39.386.39c0 .389.385.389.385.389l.386.389c0 .389.386.389.386.389l.385.389c.386 0 .386.389.772.389l.386.389c.385 0 .385.389.771.389h.386c.385 0 .385.389.771.389h.386c.386 0 .386.389.771.389.386 0 .386.389.772.389.385 0 .385.39.771.39s.772.389.772.389c.385 0 .771.389.771.389.386 0 .771.389.771.389.386 0 .772.389 1.157.389h.772c.386 0 .771 0 1.157.389.386 0 .771 0 1.157.389 1.157 0 2.314.389 3.472.389h3.471c.386 0 1.157 0 1.543-.389.771 0 1.543-.389 2.314-.389 2.314-.778 3.857-1.556 5.014-2.335 0 0-.77-3.501-1.542-6.614.771 3.891.771 3.502.771 3.113Z"/><path fill="#3578AD" d="m133.215 33.396-.386-3.502 1.543-3.89h.772c-1.158-.39-2.315-.779-3.858-1.168-3.085-.389-6.942 0-11.185 1.168-4.243 1.167-9.257 3.112-14.657 5.836-10.415 5.058-21.986 13.23-33.172 23.345-3.857 3.502-7.329 7.393-10.8 10.895-3.086 3.502-6.171 7.004-8.871 10.505-5.4 7.004-9.643 14.008-12.343 20.233-1.929 4.28-2.7 7.782-3.086 11.284-.386 2.334-.386 4.28 0 6.225 0 .389.386 1.168.386 1.557.386 1.167.771 1.945 1.543 2.723L46.429 126l.772.778.771-.778.386-.389.771-.778.386-.389.386-.389.385-.39c.386 0 .386-.389.772-.389l.386-.389c.385 0 .385-.389.771-.389l.386-.389c.385 0 .385-.389.771-.389 0 0 .386 0 .386-.389.386 0 .386-.389.771-.389 0 0 .386 0 .386-.389.386 0 .386-.389.771-.389 0 0 .386 0 .386-.389 1.543-4.67 3.857-9.339 7.329-14.397 3.857-6.225 8.871-12.84 14.657-19.454a175.568 175.568 0 0 1 11.957-12.062c5.786-5.058 11.571-9.727 16.971-13.618 3.858-2.724 7.715-5.059 11.186-7.393.386-.39.772-.39 1.157-.778 1.157-.39 1.929-1.168 3.086-1.557 1.929-1.167 4.243-1.945 6.171-3.112l-1.542-1.168v-.389l-8.1-10.116v-6.226l4.628-.778 9.643 4.67Z"/><path fill="#FCE9C8" d="M214.216 175.415s0-1.168-.386-2.335c0 0 0-.389-.386-.389 0 0-.386-.389-.771-.389 0 0-.386 0-.386-.389-.386 0-.771-.389-1.543-.389h-1.928v.778c0 .389 0 .778.385 1.167v.389c-.385.389-.771 1.946-2.314 3.502-.386.389-.386.778-.771.778-4.243 4.28-13.115 10.506-32.4 14.007-6.558.779-12.343.779-17.358.39-7.328-.779-13.114-3.502-15.814-6.615l-.771-.778c0-.389-.386-.389-.386-.778v-.389c-1.157-1.946-1.543-4.28-1.543-6.226 0-2.724.772-5.058 2.314-7.004 1.158-1.556 2.7-2.723 4.243-3.112.386-.778 1.157-.778 2.315-.778h.771c.771 0 1.543.389 2.7.389h.386c3.471.389 9.257 1.167 16.2.389 12.343-.778 28.928-4.669 43.971-18.288 0-1.167 0-3.112-1.543-4.669l-.771-.778s-.386-.389-.772-.389c-.385 0-.385-.389-.771-.389s-.386-.389-.771-.389l-.386-.389c-3.857-5.837-9.257-9.338-11.186-10.895-1.157-.778-1.543-1.167-1.543-1.167-4.628-2.724-5.4-3.891-5.014-11.673 0-2.723.386-6.225.771-11.283v-8.949c0-.39 0-.39-.385-.779V96.43s0-.389-.386-.389v-.389c0-.39-.386-.778-.386-.778v-.39c0-.388-.385-.388-.385-.778l-.386-.389v-.389c0-.389-.386-.389-.386-.778l-.771-.778c-.386 0-.386-.39-.772-.39h-.385s-.386 0-.386-.388h-5.014c-.386 0-.772.389-1.543.389 0 0-.386 0-.386.389h-.386s-.385 0-.385.39h-.386s-.386-.001-.386.388h-.386l-.385.39c-.386 0-.386.388-.772.388-.385 0-.385.39-.771.39-.386.389-.772.389-1.157.778-.386.389-.772.389-1.157.778-.386.389-.772.389-1.158.778-.385.389-.771.389-1.157.778h-.385c-.386.39-.772.39-1.158.778-.385 0-.771.39-1.157.39-.385 0-.771.389-1.157.389s-.771.389-1.543.389h-2.314c-1.157 0-2.7 0-3.857-.39-.386 0-.772 0-1.157-.389h-.386c-1.157-.389-2.314-.389-3.471-.778-.386 0-.772-.389-1.543-.389-.772 0-1.543-.389-2.315-.389h-13.5c-.385 0-.385 0-.771.39h-.386c-.385 0-.385 0-.771.388h-.386c-.386 0-.771.39-1.157.39-3.086 1.945-5.786 4.279-8.1 7.392-.771 1.167-1.543 1.945-1.929 3.113-.771 1.167-1.157 2.334-1.542 3.502 0 .389-.386.778-.386 1.167-.386.778-.386 1.167-.386 1.945v.389c0 .779-.386 1.557-.386 1.946 0 .778-.385 1.556-.385 2.334v5.448c0 .778 0 1.556.385 2.334 0 .389 0 .389.386.778v.779c.386 1.945 1.157 3.501 2.314 5.447 3.472 5.836 9.258 9.727 13.115 11.673 1.543.778 3.085 1.167 5.014 1.945h-.386c-.385 0-.771 0-1.157.389-.771 0-1.157.389-1.928.778-.772.389-1.929.778-2.7 1.168-2.7 1.167-5.786 2.723-8.486 5.058-.386.389-.772.389-1.157.778l-1.543 1.556-.386.389c0 .389-.386.389-.386.779l-.385.389c-.386.389-.386.778-.772 1.167-.385.389-.385.778-.771 1.167-1.543 2.724-2.314 6.226-2.314 10.117V168.8s0-.389.385-.389c0-.389 0-.389.386-.778 0-.389.386-.778.386-.778s0-.39.385-.39c0-.389.386-.389.386-.778s.386-.389.386-.778l.386-.389s.385-.389.771-.389c0 0-3.471 8.171-1.929 14.785v-3.501c0-.39 0-.39.386-.779v-.389s0-.389.386-.389c0-.389.386-.389.386-.778v-.389c0-.389.385-.389.385-.778 0 0-.385 1.945 0 4.28v1.945c0-2.723.772-5.058 1.157-7.393-.771 2.335-1.157 4.67-1.157 7.393v5.058c.386 3.113 1.157 6.226 2.315 9.339 0 0-1.158-3.891.385-7.782 0 .389.386.778.386 1.167 0 1.167.386 2.724.771 4.669.386 3.113 1.543 11.673 7.715 17.898 0 0-2.315-3.112-1.929-6.614.386.389.386.778.772 1.167 1.157 1.945 3.085 5.447 5.4 8.171 0 0-1.929-3.502-1.543-4.28 0 0 5.785 7.393 7.714 8.171l-2.314-3.891c8.485 6.225 20.057 8.56 34.328 4.28 2.315-.778 5.015-1.556 7.715-2.724l4.628-2.334h.386c1.157-.778 2.314-1.168 3.471-1.946.772-.389 1.543-1.167 2.315-1.556 1.157-.778 2.7-1.946 3.857-3.113l.385-.389 3.472-3.502c1.543-1.556 2.7-3.112 3.857-4.669.386-.389.771-.778.771-1.167 0 0 0-.389.386-.389.386-.389.772-1.167 1.157-1.557 0 0 0-.389.386-.389 0-.389.386-.778.386-.778 0-.389.385-.389.385-.778s.386-.389.386-.778c.386-.389.386-.778.772-1.167 0 0 0-.39.385-.39 0-.389.386-.778.386-1.167 0 0 0-.389.386-.389.385-.389.385-.778.771-1.167l1.929-1.946.385-.389c.772-5.058 1.158-6.225 1.158-7.392ZM78.828 153.626c-.386 0-.386.389-.772.778l-.385.389c-.772 1.556-1.543 3.502-1.543 3.502 0-.778 0-1.168.385-1.946v-.389c0-.778 0-1.556.386-1.945v-.389c0-.779.386-1.557.386-2.335v-1.167c0-.778.386-1.167.386-1.946 0-.389.385-1.167.385-1.556v-3.502l-.385.389-.386.389c0 .389-.386.389-.386.779 0 0 0 .389-.386.389 0 .389-.385.389-.385.778-.386.778-.386 1.167-.772 1.945v.389c0 .389 0 .779-.385.779v-5.448c0-.389 0-.389.385-.778v-.778c0-.389.386-.778.386-1.167v-.779c.386-.778.386-1.167.771-1.945 0-.389.386-1.167.772-1.556 0-.389 0-.389.386-.779 0-.389.385-.778.385-1.167 0 0 0-.389.386-.389v-.389s0-.389.386-.389h-.386c-.771-.389-1.543-.778-2.314-.778-.386 0-1.157-.389-1.543-.389H69.57c-.386 0-.386 0-.772.389h-.386c-.385 0-.77.389-1.157.389 0 0-.385 0-.385.389 0 0-.386 0-.386.389l-.386.389-.386.389-.385.389s-.386 0-.386.389l-.771.779-.386.389-.771.778-.386.389-.386.389c-.386.778-.771 1.556-.771 2.335v.389c0 .389-.386.778-.386 1.167v.389c0 .389-.386.778-.386 1.167v4.669c0 .779.386 1.168.386 1.946 0 .389.386.778.386 1.556l1.157 2.335a18.392 18.392 0 0 0 3.857 3.891c.771.389 1.928 1.167 2.7 1.556.771.389 1.928.778 3.086.778h3.471c.386 0 .771 0 1.543-.389h.386c.385 0 1.157-.389 1.542-.778 0 0 .386 0 .386-.389-.386-1.557-.386-3.113-.771-5.058 0 0 0 .389 0 0Z"/><path fill="#fff" d="M208.814 171.913c0-.389 0-.389 0 0v-.389c-.386-1.167-.772-2.335-1.543-3.113a6.691 6.691 0 0 1-1.157-1.556c0-.389 0-.778.385-1.168 0-.389 0-.778.386-1.167.386-3.113-.386-5.447-1.157-6.614 0-.389-.386-.389-.386-.389-.386.389-.771.778-1.543 1.167-8.871 6.225-19.285 10.116-30.085 11.673-7.715 1.167-15.429 1.167-23.915.389 0 0-5.014.778-6.171 5.447l-.386 3.113c0 4.28 2.314 7.003 4.243 8.56 2.314.778 5.014 1.556 8.486 1.945 5.4.778 11.571.389 18.128-.389 8.486-1.167 20.443-5.836 29.315-11.673 1.928-1.167 3.857-2.723 5.4-4.28.385-1.167.385-1.556 0-1.556Z"/><path fill="#EFCFA5" d="M192.615 130.28c-4.629-2.724-5.4-3.891-5.014-11.673 0-2.723.385-6.225.771-11.283v-8.949c-.771-1.168-1.543-1.946-2.314-2.724l-.386-.39-.386-.388c-1.543-.778-2.7-1.556-4.628-1.556h-3.857c-1.158 0-2.315.389-3.472.778-.386.389-.771.389-1.157.778s-.771.389-1.157.778c-.386.39-.772.39-1.157.778-.386.39-.772.39-1.157.778h-.386c-.386.39-.772.39-1.157.779-.386 0-.772.389-1.157.389-.386 0-.772.389-1.158.389-.385 0-.771.389-1.542.389h-2.315c-1.157 0-2.7 0-3.857-.39-.386 0-.771 0-1.157-.388h-.386c-1.157-.39-2.314-.39-3.471-.778-.386 0-.772-.39-1.543-.39-.771 0-1.543-.389-2.314-.389h-2.315c-1.928.39-3.857.779-5.785 1.557h-.386c-.386 0-.771.389-.771.389-.386 0-.772.389-1.158.389-2.7 1.167-5.4 2.723-7.714 5.058-1.157.778-1.928 1.945-2.7 2.724-1.157 1.556-2.7 3.112-3.471 4.669v.389c-.386.778-1.157 1.556-1.543 2.723 0 .39-.386.779-.386.779-.386 1.167-.771 1.945-1.157 3.112v.389c0 .39-.386 1.168-.386 1.557s-.385 1.167-.385 1.556v1.167c0 1.168-.386 2.335-.386 3.502v.778c.386 1.946 1.157 3.502 2.314 5.448 3.472 5.836 9.257 9.727 13.114 11.672 1.543.779 3.086 1.168 5.015 1.946.385 0 .385-.389.771-.389h.386c.386 0 .386-.389.771-.389h.386c.386 0 .386-.389.771-.389h.386c.386 0 .386-.389.772-.389h.385c.386 0 .386-.39.772-.39h.385c.386 0 .386-.389.772-.389h.386c.385 0 .385-.389.771-.389h.386c.385 0 .771-.389.771-.389s.386 0 .386-.389c.386 0 .771-.389.771-.389s.386 0 .386-.389c.386 0 .771-.389.771-.389s.386 0 .386-.389c.386 0 .772-.389.772-.389s.385 0 .385-.389c.386 0 .772-.39.772-.39.385 0 .385 0 .771-.389.386 0 .772-.389.772-.389.385 0 .385 0 .771-.389.386 0 .771-.389.771-.389.386 0 .386 0 .772-.389.386 0 .386-.389.771-.389.386 0 .386 0 .772-.389.385 0 .385 0 .771-.389.386 0 .772 0 .772-.389.385 0 .385 0 .771-.389.386 0 .771-.39 1.157-.39h.386c1.543-3.501 5.4-12.061 12.343-12.84h2.314v-1.556c-.386-3.891.771-6.614 2.7-7.004 1.157 0 2.314 1.557 2.314 2.335.386 1.167.772 2.724.772 4.28s0 2.724-.386 3.891l.386.389c1.543 1.945 1.928 4.669 1.928 6.615h5.015c1.928 0 3.857-.39 5.785-.39-2.7-1.556-3.471-1.556-3.471-1.556Zm17.741 51.749c-3.086 2.724-6.172 5.058-9.257 6.615l-4.629 2.334c-3.471 1.557-6.557 2.724-9.643 3.113-6.557 1.556-10.8 1.556-10.8 1.556 3.472 1.946 8.1 1.946 10.8 1.557 1.929-.389 3.472-.389 3.472-.389 0 1.167-.386 2.334-.386 3.501l-1.157 3.502c-.386 1.168-1.157 2.335-1.929 3.502 0 0 0 .389-.385.389h.385c1.158-.778 2.315-1.167 3.472-1.945.771-.389 1.543-1.168 2.314-1.557 1.157-.778 2.7-1.945 3.857-3.112l.386-.389 3.471-3.502c1.543-1.557 2.7-3.113 3.858-4.669.385-.389.771-.779.771-1.168 0 0 0-.389.386-.389.385-.389.771-1.167 1.157-1.556 0 0 0-.389.386-.389 0-.389.385-.778.385-.778 0-.389.386-.389.386-.779 0-.389.386-.389.386-.778.385-.389.385-.778.771-1.167 0 0 0-.389.386-.389 0-.389.386-.778.386-1.167 0 0 0-.389.385-.389.386-.39.386-.779.772-1.168 0-.778-.386-.778-.386-.389Zm-76.37-33.851c-.771.389-1.929.778-2.7 1.167-2.7 1.168-5.786 2.724-8.486 5.059-.385.389-.771.389-1.157.778l-1.543 1.556-.385.389c0 .389-.386.389-.386.778l-.386.39c-.386.389-.386.778-.771 1.167-.386.389-.386.778-.772 1.167-1.543 2.724-2.314 6.226-2.314 10.116v-2.334s0-.389.386-.389c0-.389 0-.389.385-.778 0-.389.386-.779.386-.779s0-.389.386-.389c0-.389.386-.389.386-.778s.385-.389.385-.778l.386-.389s.386-.389.771-.389c0 0-3.471 8.171-1.928 14.785v-3.502c0-.389 0-.389.386-.778v-.389s0-.389.385-.389c0-.389.386-.389.386-.778v-.389c0-.389.386-.389.386-.778 0 0-.386 1.945 0 4.28v1.945c0-2.724.771-5.058 1.157-7.393 0-.778.386-1.167.771-1.945v-.389c.386-.389.386-1.167.772-1.557v-.389c.385-.389.385-1.167.771-1.556v-.389c.386-1.167 1.157-1.946 1.929-3.113v-.389c.385-.389.385-.778.771-1.167v-.778c.386-.389.772-.779.772-1.168l1.157-1.167c.385-.389.771-.778 1.157-1.556l.771-.778.386-.39c.771-.778 1.543-1.167 1.928-1.945 1.929-1.556 3.472-2.724 3.858-3.113-.386 0-.772 0-1.158.389 2.315-1.556 1.543-1.167.772-.778Z"/><path fill="#EFCFA5" d="M182.2 129.891v-.389c-.385-1.167-1.543-3.891-6.171-3.502-5.014.389-6.557 4.28-6.943 5.836v.39c.771-.39 1.929-.39 2.7.389l1.157 1.167c.386.778.386 1.167.386 1.945 0 0 0 .389-.386.389h.386c1.543.39 5.014 1.168 6.943-1.556l.385-.389c-.385-.389-.771-.778-.771-1.556v-1.168c.771-1.167 1.543-1.945 2.314-1.556Zm-24.299 35.796c-3.086.778-5.786 1.168-8.1 1.557h.385c3.472.389 9.258 1.167 16.2.389 12.343-.778 28.929-4.669 43.972-18.287 0-1.168 0-3.113-1.543-4.67l-.771-.778c-.386-.389-.772-.389-1.157-.778-.386 0-.386-.389-.772-.389-.771 1.167-1.928 2.724-3.086 3.891l-1.157 1.167c-4.243 3.891-9.643 7.004-15.043 9.338-10.028 4.28-20.828 7.004-28.928 8.56Zm-79.072-21.789-.386.389-.386.39c0 .389-.385.389-.385.778 0 0 0 .389-.386.389 0 .389-.386.389-.386.778-.386.778-.386 1.167-.771 1.945v.39c0 .389 0 .778-.386.778v-5.448c0-.389 0-.389.386-.778v-.778c0-.389.385-.778.385-1.167v-.778c.386-.779.386-1.168.772-1.946 0-.389.386-1.167.771-1.556 0-.389 0-.389.386-.778 0-.389.386-.779.386-1.168 0 0 0-.389.386-.389v-.389s0-.389.385-.389h-.385c-.772-.389-1.543-.778-2.315-.778-.386 0-1.157-.389-1.543-.389h-5.014c-.386 0-.386 0-.771.389h-.386c-.386 0-.772.389-1.157.389 0 0-.386 0-.386.389 0 0-.386 0-.386.389l-.385.389-.386.389-.386.389s-.385 0-.385.39l-.772.778-.386.389-.771.778-.386.389-.386.389c-1.157 0-1.542.778-1.542 1.557v.389c0 .389-.386.778-.386 1.167v.778c0 .389 0 .778.386.778 0 .389.385.389.385.778l1.157 2.335v.389c.386.389.386.778.772 1.167.386.779.771 1.168.771 1.168v-.389c-.385-1.168-.385-1.946-.385-3.113v-1.946c0 .389 0 .389.385.779 0 .389.386.778.386 1.167.772 1.556 1.157 2.723 1.929 3.891.771 1.167 1.157 1.945 1.543 2.334v.389c-.386-1.167-.386-2.334-.386-3.501v-2.724c.386.778.386 1.556.771 2.334.772 2.335 1.929 4.28 2.7 5.448l.386.389.386.389v.389-.389c0-.389 0-1.167-.386-1.556v-3.891c0 .389 0 .389.386.778 0 .389 0 .389.385.778 0 .389 0 .389.386.778 0 .389.386.778.386 1.167.385.39.385.779.771 1.168 0 .389.386.389.386.778s.386.389.386.778.385.389.385.389l.386.389v.389l.386.389v-.389c0-.778 0-1.556.385-1.945v-.389c0-.778.386-1.557.386-2.335v-1.167c0-.778.386-1.167.386-1.945 0-.39.386-1.168.386-1.557v-3.113c1.157 0 1.157 0 1.157-.389Zm101.058 35.407c1.157-.389 2.314-.778 3.085-1.167l2.315-1.167s-1.157 0-2.7.389c-.772.389-1.929.389-3.086.778-.771 0-1.157.389-1.929.389-.771 0-1.542.389-2.314.389-1.543.389-3.086.389-5.014.779-.772 0-1.929 0-2.7.389h-3.086c-3.857 0-8.486 0-13.114-.779-2.314-.389-5.4-1.556-7.714-2.723 1.157-4.669 6.171-5.447 6.171-5.447h-.386c-.771 0-1.543 0-1.928-.39h-1.929c-3.086-.389-4.628 2.335-5.014 3.502 0 0 0 .389-.386.389-.386 1.168-.771 2.335-.771 3.502 0 2.335.385 4.669 2.314 7.004 1.157 1.556 3.086 2.723 5.786 3.502-2.315-1.557-4.243-4.28-4.243-8.56 2.7 1.167 5.4 1.945 7.714 2.334 4.629.778 9.257 1.167 13.5.778 1.157 0 1.929 0 3.086-.389 1.157 0 1.928-.389 2.7-.389 1.928-.389 3.471-.778 5.014-.778.772 0 1.543-.389 2.314-.389 1.158-1.946 1.929-1.946 2.315-1.946Z"/><path fill="#59473C" d="M176.027 122.887c2.315 0 4.243.778 5.4 1.946.386-1.168.386-2.335.386-3.891 0-1.557-.386-3.113-.771-4.28 0-.778-1.158-2.335-2.315-2.335-1.543 0-2.7 3.113-2.7 7.004v1.556Zm4.243 9.339c0 .778.385 1.167.771 1.556.771.389 1.157-.389 1.543-1.556v-.39c.385-1.167 0-1.945-.386-2.334-.771-.389-1.157.389-1.543 1.556-.385.389-.385.778-.385 1.168Zm-11.185 1.945 1.157 1.167c1.157.778 2.314.778 2.7 0l.385-.389c.386-.389 0-1.167-.385-1.945l-1.157-1.168c-1.158-.778-2.315-.778-2.7-.389l-.386.389c-.386 1.168 0 1.557.386 2.335Zm40.116 38.909c-1.543 1.556-3.472 3.113-5.4 4.28-8.486 5.836-20.443 10.505-29.314 11.673-6.558 1.167-12.729 1.167-18.129.389-3.086-.389-5.786-1.168-8.486-1.946-2.7-1.167-4.628-2.334-5.785-3.502-1.543-1.945-2.315-4.669-2.315-7.003 0-1.167.386-2.335.772-3.502 0 0 0-.389.385-.389.386-1.167 2.315-3.502 5.4-3.502h1.929c.386 0 1.157 0 1.929.389h.385c8.1 1.167 16.2.778 23.915-.389 10.8-1.556 21.214-5.447 30.085-11.673.386-.389.772-.778 1.543-1.167l5.014-7.393c-15.042 13.619-31.242 17.509-43.971 18.288-6.943.389-12.729 0-16.2-.389h-.386c-1.157 0-1.928-.39-2.7-.39h-.771c-.772 0-1.929 0-2.7.39-1.543.389-3.086 1.556-4.243 3.112-1.157 1.946-2.314 4.28-2.314 7.004 0 1.945.385 4.28 1.543 6.225v.389c0 .39.385.39.385.779l.772.778c2.7 3.113 8.1 5.836 15.814 6.614 5.014.779 11.186.779 17.357-.389 18.9-3.502 28.157-9.727 32.4-14.007l.772-.778c1.157-1.946 1.928-3.113 2.314-3.891 0-.389 0 0 0 0Z"/><path fill="#E1B27E" d="M148.643 106.546c-.771-.389-1.157-.389-1.928-.779-.386 0-.772 0-1.158-.389h-.385c-2.315-.389-4.243 0-4.243 0-.386 0-.772.389-1.157.389-3.086.779-5.015 2.335-6.557 4.28-1.158 1.557-1.929 3.113-2.315 4.67v.389c0 .389-.385.778-.385 1.167-.386 1.167-.386 2.724-.386 3.502v2.334c.386-1.167 1.157-2.334 1.543-3.112 1.543-2.335 3.085-4.28 4.628-6.226 3.086-3.113 6.172-4.669 8.486-5.447 1.929-.778 3.857-.778 3.857-.778Zm35.869-4.669-1.157-1.168c-1.157-.778-2.7-1.167-5.014-.778 0 0-2.7.778-4.243 2.335 0 0 4.628-1.946 9.257 1.556l1.157 1.167c.386.389.771.778 1.157 1.557.772-.389.386-2.335-1.157-4.669.386.389.386.389 0 0Z"/><path fill="#59473C" d="M149.03 135.727c1.928-.389 3.471-1.167 5.786-1.556.385-1.556.385-3.502 0-5.836-.386-5.059-2.7-8.56-5.015-8.56-2.314.389-3.471 4.669-2.7 9.338.386 2.723 1.157 5.058 1.929 6.614Z"/><path fill="#FACE55" d="m139.001 25.226-4.628 1.167 1.157 8.17-11.957-5.836-5.014 1.557 14.657 16.73c.771-.777 1.543-.777 1.928-1.167l.386-.389c.771-.389 1.157-.778 1.929-1.167l-6.172-7.003 10.029 5.058c.385 0 .771-.39.771-.39l-.771-7.003 4.628 5.447c.386-.389.772-.389 1.157-.389h.386s.386 0 .386-.389c.386-.389 1.157-.389 1.543-.778l-10.415-13.618Z"/><path fill="#4D94C3" d="M134.755 26.393h.772c-1.157-.39-2.314-.778-3.857-1.168-3.086-.389-6.943 0-11.186 1.168-4.243 1.167-9.257 3.113-14.657 5.836-10.414 5.058-21.986 13.23-33.171 23.346-3.858 3.501-7.33 7.392-10.8 10.894l13.5 16.731c3.47-3.89 7.714-8.17 11.957-12.062 5.785-5.447 11.571-10.116 17.357-14.007 5.785-3.89 11.185-7.393 16.585-10.116l-2.314-10.506v-6.225l4.629-1.557 9.643 5.058-.386-3.501 1.928-3.891Z"/><path fill="#141B26" d="m134.758 26.393-1.543 3.89.386 3.502 1.928.779-.771-8.171Zm-3.473 10.894 10.029 5.059-3.857 2.334-6.172-7.393Zm10.027-3.112.772 7.003 3.471-1.945-4.243-5.058Z"/><path fill="#fff" d="M179.114 31.84h1.929c1.542 0 3.085.39 4.628.778h.386l-.386-.389c-1.543-.778-3.471-1.167-5.4-1.167-8.871-1.168-19.286 2.334-25.457 4.669-.386 0-.771.389-1.157.389-.386.39-1.157.39-1.543.778-.771.39-1.543.778-2.7 1.167h-.386c-.385.39-1.157.39-1.543.779 0 0-.385 0-.385.389h-.386c-.386 0-.771.389-1.157.389h-.772c-.771.389-1.157.778-1.928.778-.386.39-.772.39-1.157.778-.386 0-.772.39-.772.39-1.157.388-1.928 1.166-3.085 1.556h-1.158c-.771.389-1.157.778-1.928 1.167l-.386.389c.386 1.556-.386 1.556-.771 1.945-1.157.779-2.7 1.557-3.857 2.335-2.315 1.945-4.243 3.113-6.172 4.67l-.771.777a119.501 119.501 0 0 0-15.043 12.84c-5.014 4.67-10.029 9.728-14.657 14.397l-6.557 6.614c-3.472 3.891-5.4 6.226-5.4 6.226l.77-.779c-.385.39-.77 1.168-1.542 1.557 7.714-8.171 16.2-16.731 25.072-24.513 5.4-4.669 11.185-9.338 17.357-13.618 2.7-1.946 5.4-3.891 8.1-5.447.771-.39 1.543-1.168 2.7-1.557.385-.389.771-.389 1.157-.778.386 0 .386-.389.771-.389.386-.39.772-.39 1.543-.778.386-.39.772-.39 1.543-.778.386-.779.386-.779.771-1.168.386-.389 1.158-.778 1.929-1.167.386 0 .771-.389 1.157-.389 1.157-.778 2.314-1.167 3.472-1.946h.385s.386 0 .386-.389c-.386 0 0 0 0 0h.386s.385 0 .385-.389c.386-.389 1.158-.389 1.543-.778h.386s.386 0 .386-.389c.385-.389 1.157-.389 1.543-.778 0 0 .385 0 .385-.39h.386s.386 0 .386-.388c.771-.39 1.157-.39 1.928-.778.386-.39 1.157-.39 1.543-.779 3.086-1.167 6.172-2.334 8.872-3.502 5.785-1.556 10.414-2.334 14.271-2.334Z"/></svg>