<svg xmlns="http://www.w3.org/2000/svg" width="250" height="250" fill="none"><g clip-path="url(#a)"><path fill="#E44A49" d="M125.274 31C68.885 31 23 76.87 23 133.24c0 35.922 18.796 67.423 46.438 85.66l4.975-3.315c1.106-.553 2.765-1.658 3.87-2.211 1.659-.553 3.317-1.658 4.423-2.211 1.658-.552 3.317-1.105 4.975-2.21 1.106-.553 2.764-1.106 3.87-1.658 1.659-.553 3.87-1.105 5.528-1.658 1.659-.553 2.765-.553 4.423-1.105 1.659-.553 2.764-.553 4.423-1.106 1.658-.552 3.317-.552 4.975-.552 1.659 0 3.87-.553 5.529-.553V141.53H110.9v-11.053h27.642v72.949c15.479 2.211 29.3 7.737 42.015 15.474 28.195-18.237 46.438-49.738 46.438-85.66C227.548 76.87 181.663 31 125.274 31Zm30.406 102.24c0-16.579-13.821-30.396-30.406-30.396s-30.406 13.817-30.406 30.396c0 11.606 6.634 22.106 16.585 27.08v6.079c-12.715-5.527-22.113-18.238-22.113-33.159 0-19.895 16.032-35.922 35.934-35.922 19.902 0 35.934 16.027 35.934 35.922 0 12.711-6.634 23.764-16.585 30.396v-6.632c6.634-6.079 11.057-14.369 11.057-23.764Zm-11.057 60.239v-6.08c22.666-7.737 38.698-29.29 38.698-54.712 0-31.501-25.983-57.475-58.047-57.475-32.064 0-58.047 25.974-58.047 58.028 0 27.08 18.796 50.291 44.226 56.37v5.527c-28.194-6.08-49.755-31.501-49.755-61.897 0-35.37 28.195-63.555 63.576-63.555s63.576 28.186 63.576 63.555c0 28.185-18.797 52.502-44.227 60.239Z"/></g><defs><clipPath id="a"><path fill="#fff" d="M23 31h204v188H23z"/></clipPath></defs></svg>