<svg xmlns="http://www.w3.org/2000/svg" width="250" height="250" fill="none"><g clip-path="url(#a)"><path fill="#6B5AED" d="M192.726 157.274c-16.741-16.726-39.004-26.209-62.131-27.934 1.554 23.106 11.218 45.349 27.959 62.075 16.741 16.725 38.314 26.209 62.131 27.933-1.554-23.105-11.218-45.349-27.959-62.074Zm-135.306 0c16.74-16.726 39.004-26.209 62.13-27.934-1.553 23.106-11.218 45.349-27.959 62.075-15.877 16.725-38.313 26.209-62.13 27.933 1.726-23.105 11.218-45.349 27.959-62.074Zm0-66.04c16.74 16.725 39.004 26.209 62.13 27.933-1.553-23.105-11.218-45.349-27.959-62.074-16.74-16.726-39.004-26.21-62.13-27.934C31.187 52.954 40.679 75.37 57.42 91.234Zm135.306 0c-16.741 16.725-39.004 26.209-62.993 27.933 1.553-23.105 11.218-45.349 27.958-62.074 17.604-16.726 39.177-26.382 62.994-27.934-1.554 23.795-11.218 46.211-27.959 62.075Z"/></g><defs><clipPath id="a"><path fill="#fff" d="M29 29h192v191H29z"/></clipPath></defs></svg>