<svg xmlns="http://www.w3.org/2000/svg" width="250" height="250" fill="none"><path fill="#2CA01C" d="M220 125c0 52.464-42.536 95-95 95s-95-42.536-95-95 42.536-95 95-95 95 42.536 95 95Z"/><path fill="#fff" d="M120.699 181.07h-13.288v-80.689H95.523c-13.534 0-24.55 11.016-24.55 24.549 0 13.534 11.016 24.55 24.55 24.55h3.467v13.291h-3.467c-20.864 0-37.84-16.978-37.84-37.841 0-20.862 16.977-37.84 37.84-37.84h25.176v93.98Zm33.642-18.299h-25.187v-93.98h13.301v80.689h11.886c13.534 0 24.539-11.016 24.539-24.55 0-13.533-11.005-24.549-24.539-24.549h-3.467v-13.29h3.467c20.862 0 37.84 16.977 37.84 37.839 0 20.864-16.978 37.841-37.84 37.841"/></svg>