<svg xmlns="http://www.w3.org/2000/svg" width="250" height="250" fill="none"><g fill-rule="evenodd" clip-path="url(#a)" clip-rule="evenodd"><path fill="#FBFBFB" d="M112.718 29.648c-28.932 6.383-45.059 26.427-43.43 53.977 1.104 18.662 8.922 32.007 25.112 42.865 6.378 4.277 13.216 7.717 28.068 14.12 16.932 7.298 22.211 10.239 27 15.041 4.289 4.301 5.773 7.805 5.798 13.693.077 17.862-15.299 26.493-37.204 20.885-10.403-2.663-22.008-8.37-31.986-15.729-1.608-1.186-2.98-2.121-3.047-2.077-.257.165-16.14 28.95-16.052 29.091.185.299 5.145 3.553 8.335 5.468 10.468 6.285 19.364 10.081 29.781 12.708 5.44 1.373 4.386 1.31 22.013 1.31h15.889l2.759-.583c28.557-6.03 43.471-24.553 43.463-53.979-.006-18.835-7.044-32.143-23.021-43.531-6.017-4.289-13.913-8.519-27.79-14.887-18.224-8.364-25.339-13.129-29.362-19.666-4.976-8.085-3.188-19.232 4.002-24.96 12.015-9.573 35.187-4.097 57.044 13.48.719.579 1.361.992 1.427.917.188-.214 15.17-29.062 15.17-29.21 0-.17-.098-.245-3.563-2.685-11.544-8.133-22.302-13.243-33.808-16.058l-3.41-.835-15.188.012-15.188.012-2.812.621Z"/><path fill="#343C3C" d="M149.095 29.651c11.97 2.86 27.256 10.461 37.753 18.772.036.029-3.265 6.449-7.335 14.268-4.071 7.818-7.54 14.489-7.711 14.823l-.309.608-2.199-1.748c-29.628-23.55-60.957-23.285-62.948.533-.993 11.873 6.638 19.321 31.499 30.747 16.798 7.721 25.168 12.414 32.156 18.03 15.44 12.408 21.583 28.852 18.833 50.41-3.021 23.678-17.981 39.128-43.021 44.426l-2.156.456 38.672.012 38.672.012V29l-37.266.012-37.265.012 2.625.627Z"/><path fill="#34D4AC" d="M29 125v96l40.922-.017 40.922-.017-2.063-.425c-9.244-1.905-18.61-5.358-27.469-10.126-4.71-2.535-13.944-8.268-14.334-8.901-.104-.167 15.954-29.184 16.129-29.145.062.013 1.414.984 3.003 2.156 34.021 25.09 69.275 22.449 69.157-5.181-.026-5.888-1.509-9.392-5.798-13.693-4.789-4.802-10.069-7.743-27-15.041-14.853-6.403-21.691-9.843-28.069-14.12-16.19-10.858-24.007-24.203-25.11-42.865-1.63-27.55 14.497-47.594 43.429-53.977l2.812-.62-43.265-.014L29 29v96Z"/><path fill="#9C9CA0" d="M111.501 64.719c-.455.464-.785.844-.734.844.052 0 .467-.38.922-.844.455-.464.786-.844.734-.844-.051 0-.466.38-.922.844Z"/><path fill="#8A8E92" d="M112.625 92.844c.56.567 1.06 1.03 1.112 1.03.051 0-.365-.463-.925-1.03-.56-.568-1.061-1.032-1.112-1.032-.052 0 .364.464.925 1.032Zm60.937 35.958c0 .028.654.682 1.453 1.453l1.453 1.401-1.401-1.453c-1.302-1.35-1.505-1.539-1.505-1.401Zm15.808 36.042c.001.618.036.849.078.512a5.026 5.026 0 0 0-.002-1.125c-.043-.282-.077-.006-.076.613Zm.005 3.093c0 .774.033 1.09.074.704.04-.387.04-1.02 0-1.407-.041-.386-.074-.07-.074.703Z"/></g><defs><clipPath id="a"><path fill="#fff" d="M29 29h192v192H29z"/></clipPath></defs></svg>