<svg xmlns="http://www.w3.org/2000/svg" width="250" height="250" fill="none"><g fill="#000" clip-path="url(#a)"><path d="M188.913 29H61.087A32.088 32.088 0 0 0 29 61.087v127.826A32.088 32.088 0 0 0 61.087 221h127.826A32.084 32.084 0 0 0 221 188.913V61.087a32.084 32.084 0 0 0-9.396-22.691A32.064 32.064 0 0 0 188.913 29Zm-2.819 146.98a10.122 10.122 0 0 1-10.123 10.118H74.051a10.117 10.117 0 0 1-10.128-10.118V74.055A10.12 10.12 0 0 1 74.05 63.928h101.917a10.125 10.125 0 0 1 10.123 10.127V175.98h.004Z"/><path d="M104.628 151.184a5.833 5.833 0 0 1-5.812-5.842v-40.683c0-3.225 2.601-5.843 5.812-5.843h40.744c3.22 0 5.812 2.618 5.812 5.843v40.683c0 3.22-2.592 5.842-5.812 5.842h-40.744Z"/></g><defs><clipPath id="a"><path fill="#fff" d="M29 29h192v192H29z"/></clipPath></defs></svg>