<svg width="250" height="250" viewBox="0 0 250 250" fill="none" xmlns="http://www.w3.org/2000/svg">
<path fill-rule="evenodd" clip-rule="evenodd" d="M53.7552 30H196.257C209.318 30 220 40.6875 220 53.75V196.25C220 209.313 209.318 220 196.257 220H53.7493C40.6875 220 30.006 209.313 30.006 196.25V164.342L30.3392 164.538C40.9706 170.748 51.6224 176.923 62.2945 183.063C65.133 184.666 67.8524 184.63 70.5897 183.051L107.627 161.735L108.317 161.338L108.335 161.326L108.442 161.266L108.829 161.041C121.715 153.627 134.6 146.213 147.485 138.799C149.127 137.849 149.21 134.933 147.366 133.877L146.074 133.146L146.068 133.14C144.188 132.072 141.76 130.688 140.725 130.077C139.815 129.581 138.792 129.327 137.755 129.339C136.718 129.352 135.702 129.63 134.804 130.148C133.881 130.682 72.4464 166.004 70.3934 167.168C69.1834 167.86 67.813 168.224 66.4183 168.224C65.0236 168.224 63.6532 167.86 62.4432 167.168L30 148.317V132.327L30.3392 132.523C38.444 137.243 57.5994 148.4 62.2945 151.048C65.133 152.651 67.8524 152.615 70.5897 151.036L108.395 129.281L108.537 129.198L108.561 129.186C127.532 118.261 146.646 107.271 147.479 106.784C149.127 105.834 149.21 102.918 147.366 101.868L146.074 101.131C144.2 100.062 141.76 98.6731 140.719 98.0616C139.809 97.5669 138.788 97.3136 137.752 97.3261C136.716 97.3386 135.701 97.6164 134.804 98.1328C133.881 98.6672 72.4464 133.989 70.3934 135.153C69.1834 135.845 67.813 136.209 66.4183 136.209C65.0236 136.209 63.6532 135.845 62.4432 135.153L30 116.302V100.312L30.3332 100.508C38.4321 105.228 57.5994 116.385 62.2885 119.033C65.133 120.636 67.8524 120.6 70.5897 119.021L108.436 97.2422L108.484 97.2125H108.496L108.972 96.9334L147.479 74.7687C149.121 73.8187 149.204 70.9094 147.36 69.8525L146.068 69.1162C144.188 68.0475 141.754 66.6581 140.713 66.0525C139.803 65.5578 138.782 65.3045 137.746 65.317C136.71 65.3295 135.695 65.6073 134.798 66.1238C133.875 66.6522 72.4404 101.974 70.3874 103.144C69.1775 103.836 67.8071 104.2 66.4124 104.2C65.0176 104.2 63.6472 103.836 62.4373 103.144L30 84.2866V53.75C30 40.6875 40.6875 30 53.7493 30H53.7552Z" fill="#E44232"/>
<path d="M70.5897 119.021L108.436 97.2422L108.484 97.2125C127.478 86.2875 146.64 75.2556 147.479 74.7688C149.127 73.8188 149.204 70.9094 147.366 69.8525L146.074 69.1163C144.194 68.0475 141.76 66.6581 140.719 66.0525C139.809 65.5567 138.786 65.3029 137.749 65.3154C136.712 65.3279 135.696 65.6062 134.798 66.1238C133.881 66.6522 72.4464 101.974 70.3934 103.144C69.1834 103.836 67.813 104.2 66.4183 104.2C65.0236 104.2 63.6532 103.836 62.4432 103.144L30 84.2866V100.306L30.3332 100.502C38.4321 105.222 57.5994 116.379 62.2885 119.027C65.133 120.63 67.8524 120.594 70.5897 119.015V119.021Z" fill="white"/>
<path d="M70.5897 151.036L108.389 129.281L108.531 129.198L147.479 106.784C149.127 105.834 149.204 102.918 147.366 101.867L146.074 101.131C144.194 100.062 141.76 98.6731 140.719 98.0616C139.809 97.5658 138.786 97.3119 137.749 97.3244C136.712 97.3369 135.696 97.6153 134.798 98.1328C133.881 98.6672 72.4464 133.989 70.3934 135.153C69.1834 135.845 67.813 136.209 66.4183 136.209C65.0236 136.209 63.6532 135.845 62.4432 135.153L30 116.302V132.327L30.3392 132.523C38.444 137.243 57.5994 148.4 62.2945 151.048C65.133 152.651 67.8524 152.615 70.5897 151.036Z" fill="white"/>
<path d="M108.442 161.266L70.5897 183.051C67.8524 184.624 65.133 184.666 62.2945 183.063C51.6224 176.923 40.9706 170.748 30.3392 164.538L30 164.342V148.317L62.4432 167.168C64.8949 168.587 67.9357 168.563 70.3934 167.168C72.4464 166.004 133.881 130.676 134.798 130.148C137.011 128.877 139.398 129.305 140.719 130.077C141.76 130.688 144.194 132.072 146.074 133.146L147.366 133.877C149.21 134.933 149.127 137.849 147.485 138.799L108.442 161.266Z" fill="white"/>
</svg>
