<svg xmlns="http://www.w3.org/2000/svg" width="250" height="250" fill="none"><g clip-path="url(#a)"><path fill="#1DA1F2" d="M87.222 210c77.92 0 120.531-65.226 120.531-121.788 0-1.853-.037-3.696-.12-5.533a86.65 86.65 0 0 0 21.132-22.165 83.778 83.778 0 0 1-24.328 6.74 42.88 42.88 0 0 0 18.629-23.675 84.436 84.436 0 0 1-26.9 10.39c-7.73-8.32-18.736-13.524-30.922-13.524-23.395 0-42.365 19.169-42.365 42.798 0 3.359.372 6.625 1.099 9.76-35.209-1.79-66.429-18.823-87.323-44.722a43.03 43.03 0 0 0-5.736 21.514c0 14.85 7.479 27.96 18.852 35.63a41.727 41.727 0 0 1-19.186-5.354c-.006.18-.006.355-.006.547 0 20.729 14.602 38.037 33.986 41.959a42.048 42.048 0 0 1-11.17 1.506 41.71 41.71 0 0 1-7.963-.772c5.394 17.007 21.032 29.384 39.574 29.73-14.5 11.482-32.764 18.322-52.615 18.322a85.104 85.104 0 0 1-10.105-.593c18.749 12.142 41.01 19.227 64.938 19.227"/></g><defs><clipPath id="a"><path fill="#fff" d="M22 40h207v170H22z"/></clipPath></defs></svg>