<svg xmlns="http://www.w3.org/2000/svg" width="250" height="250" fill="none"><g clip-path="url(#a)"><path fill="#FF7962" d="M189.85 29H60.15C42.946 29 29 42.946 29 60.15v129.7C29 207.054 42.946 221 60.15 221h129.7c17.204 0 31.15-13.946 31.15-31.15V60.15C221 42.946 207.054 29 189.85 29Z"/><path fill="#fff" d="M216.392 95.816v-5.238a39.438 39.438 0 0 0-2.999-15.093 39.44 39.44 0 0 0-21.344-21.344 39.432 39.432 0 0 0-15.093-3H72.93A39.33 39.33 0 0 0 33.608 90.44c0 6.044 2.443 14.815 6.406 22.072 3.962 7.258 9.438 12.995 15.482 12.995-12.088.023-21.888 18.747-21.888 30.843a42.53 42.53 0 0 0 42.51 42.509h98.564a41.716 41.716 0 0 0 29.496-12.215 41.691 41.691 0 0 0 12.214-29.495v-1.859c0-10.66-8.64-29.76-19.299-29.76 10.659 0 19.299-19.093 19.299-29.714ZM86.746 182.915h-12.81a23.325 23.325 0 0 1-23.324-23.355v-4.109a22.51 22.51 0 0 1 22.51-22.51h13.624v49.974Zm0-65.887H73.483a22.85 22.85 0 0 1-16.177-6.694 22.85 22.85 0 0 1-6.694-16.177v-4.439a22.64 22.64 0 0 1 22.633-22.633h13.501v49.943Zm61.632 65.887h-45.696V67.085h45.696v115.83Zm52.071-26.112v2.304a23.808 23.808 0 0 1-23.808 23.808h-12.288v-49.92h12.288a23.806 23.806 0 0 1 23.808 23.793v.015Zm0-60.61a20.828 20.828 0 0 1-6.1 14.745 20.828 20.828 0 0 1-14.744 6.106h-15.283v-49.92h14.592a21.55 21.55 0 0 1 21.55 21.55l-.015 7.518Z"/></g><defs><clipPath id="a"><path fill="#fff" d="M29 29h192v192H29z"/></clipPath></defs></svg>