<svg xmlns="http://www.w3.org/2000/svg" width="250" height="250" fill="none"><g clip-path="url(#a)"><path fill="#121214" stroke="#221F1F" stroke-width=".25" d="M233.889 56.11v4.617c-4.392-.702-8.932.923-12.448 3.693-3.515 2.77-6.108 6.462-8.305 10.321-4.244 7.293-7.234 15.113-10.62 22.803-3.442 7.82-7.484 15.362-11.073 23.08-7.871 16.941-15.558 33.955-23.392 50.915a2158.51 2158.51 0 0 1-4.955 10.672c-.674 1.44-5.361 9.01-4.78 10.238a13164.56 13164.56 0 0 0-29.897-60.599l-35.194 61.91c-17.606-35.229-35.258-70.569-48.278-107.728-2.123-6.066-4.254-12.399-8.684-17.06-5.13-5.402-12.761-7.82-20.143-8.522l.055-4.32h59.213v5.456c-6.118-.924-13.204 2.335-14.764 8.308-1.135 4.265.618 8.595 2.335 12.574a1730.04 1730.04 0 0 0 39.18 84.547l20.752-37.334a10.432 10.432 0 0 0 1.394-3.407c.314-2.068-.637-4.09-1.55-5.964L103.92 81.896c-2.243-4.616-4.522-9.232-7.927-12.98-4.392-4.912-9.818-6.666-16.203-7.054v-5.751h53.335v4.376c-3.876 0-6.395.295-8.886 1.56-1.901.923-4.983 2.53-5.924 5.927-.997 3.554 1.015 6.73 1.476 7.386a10362.71 10362.71 0 0 0 14.819 29.644c.222.461.443.923.683 1.375 2.999-5.622 5.795-11.337 8.914-16.885 3.313-5.9 8.36-12.98 6.699-20.061-.249-1.062-1.033-5.087-4.448-7.386-.636-.434-2.103-1.32-8.886-1.486h-1.485v-4.45h48.906v5.595l-7.382.341c-6.589.277-11.858 4.902-15.281 10.155-8.573 13.211-15.687 27.696-23.521 41.36 8.489 17.405 16.979 34.814 25.468 52.225-.655-1.348 3.949-9.324 4.614-10.912 1.617-3.81 3.229-7.62 4.835-11.429l9.689-22.859a30771.68 30771.68 0 0 0 12.457-29.542c2.99-7.109 10.787-18.4 4.614-25.674a12.803 12.803 0 0 0-12.559-3.813v-5.54l45.962.093Z"/></g><defs><clipPath id="a"><path fill="#fff" d="M16 56h218v138H16z"/></clipPath></defs></svg>