<svg xmlns="http://www.w3.org/2000/svg" width="250" height="250" fill="none"><path fill="#07193A" fill-rule="evenodd" d="M195 128.75c.833 1.25 1.875 2.5 3.125 3.333 1.25.834 2.708 1.25 4.375 1.25 1.667 0 3.125-.416 4.375-1.25a11.15 11.15 0 0 0 3.125-3.125c.833-1.25 1.042-2.916 1.042-4.375a9.686 9.686 0 0 0-1.042-4.375c-.625-1.25-1.875-2.5-3.125-3.125-1.25-.833-2.708-1.25-4.375-1.25-1.458 0-2.917.417-4.375 1.25-1.25.625-2.292 1.667-3.125 3.125a7.516 7.516 0 0 0-1.25 4.167c0 1.667.417 3.125 1.25 4.375Zm-.625 18.958-7.292 1.875v-40h7.292v3.125c1.042-1.25 2.5-2.083 3.958-2.708a12.59 12.59 0 0 1 5-1.042c2.709 0 5 .625 7.292 2.084 2.292 1.458 4.167 3.333 5.417 5.625 1.25 2.291 2.083 4.791 2.083 7.708s-.625 5.417-2.083 7.708c-1.459 2.292-3.125 4.167-5.417 5.625-2.292 1.459-4.792 2.084-7.292 2.084a12.59 12.59 0 0 1-5-1.042c-1.458-.625-2.708-1.667-3.958-2.708v11.666Zm-35.208-18.958a11.15 11.15 0 0 0 3.125 3.125 7.513 7.513 0 0 0 4.166 1.25c1.667 0 2.917-.417 4.375-1.25a11.15 11.15 0 0 0 3.125-3.125c.834-1.25 1.25-2.708 1.25-4.375 0-1.667-.416-3.125-1.25-4.375a11.15 11.15 0 0 0-3.125-3.125c-1.25-.833-2.708-1.25-4.375-1.25-1.458 0-2.916.417-4.375 1.25a11.163 11.163 0 0 0-3.125 3.125c-.833 1.25-1.041 2.708-1.041 4.375.208 1.667.625 3.125 1.25 4.375Zm20.625 3.333a18.127 18.127 0 0 1-5.625 5.625c-2.292 1.459-5 2.084-7.709 2.084-2.708 0-5.416-.625-7.708-2.084a18.105 18.105 0 0 1-5.625-5.625c-1.458-2.291-2.083-5-2.083-7.708s.625-5.417 2.083-7.708c1.458-2.292 3.125-4.167 5.625-5.625 2.292-1.459 5-2.084 7.708-2.084 2.709 0 5.417.625 7.709 2.084a18.127 18.127 0 0 1 5.625 5.625c1.458 2.291 2.083 5 2.083 7.708s-.625 5.417-2.083 7.708Zm-56.25-3.333a11.15 11.15 0 0 0 3.125 3.125 7.513 7.513 0 0 0 4.166 1.25c1.667 0 2.917-.417 4.375-1.25a11.15 11.15 0 0 0 3.125-3.125c.834-1.25 1.25-2.708 1.25-4.375 0-1.667-.416-3.125-1.25-4.375a11.15 11.15 0 0 0-3.125-3.125c-1.25-.833-2.708-1.25-4.375-1.25-1.458 0-2.916.417-4.375 1.25a11.163 11.163 0 0 0-3.125 3.125c-.833 1.25-1.041 2.708-1.041 4.375 0 1.667.416 3.125 1.25 4.375Zm20.625 3.333a18.127 18.127 0 0 1-5.625 5.625c-2.292 1.459-5 2.084-7.709 2.084-2.708 0-5.416-.625-7.708-2.084a18.105 18.105 0 0 1-5.625-5.625c-1.458-2.291-2.083-5-2.083-7.708s.625-5.417 2.083-7.708c1.458-2.292 3.125-4.167 5.625-5.625 2.292-1.459 5-2.084 7.708-2.084 2.709 0 5.417.625 7.709 2.084a18.127 18.127 0 0 1 5.625 5.625c1.458 2.291 2.083 5 2.083 7.708s-.833 5.417-2.083 7.708Zm-34.375 7.292H102.5v-37.5l7.292-1.875v39.375Zm-36.042 0h-7.292v-29.792h7.292v3.334c1.042-1.25 2.292-2.084 3.75-2.917a12.588 12.588 0 0 1 5-1.042c2.083 0 4.167.417 6.042 1.459 1.875 1.041 3.541 2.291 4.583 4.166 1.042 1.875 1.667 3.959 1.667 6.25v18.334H87.5v-16.25c0-1.459-.208-2.709-.833-3.75-.417-1.042-1.25-1.875-2.292-2.5-1.042-.625-2.083-.834-3.333-.834a7.194 7.194 0 0 0-3.75 1.042c-1.042.625-1.875 1.667-2.5 2.917-.625 1.25-.834 2.708-.834 4.166-.208 0-.208 15.417-.208 15.417Zm-16.667-24.167c1.459 1.875 2.292 3.959 2.917 6.25.417 1.875.417 3.75 0 5.625H36.875c.208 1.25.833 2.5 1.458 3.334.834.833 1.667 1.666 2.917 2.083 1.042.417 2.292.625 3.75.625 1.458 0 2.917-.208 4.167-.833 1.458-.625 2.5-1.25 3.541-2.292l6.459 1.667c-1.25 2.291-3.125 4.166-5.834 5.625-2.708 1.458-5.416 2.083-8.333 2.083-2.708 0-5.417-.625-7.708-2.083a18.133 18.133 0 0 1-5.625-5.625c-1.25-2.292-2.084-5-2.084-7.709 0-2.916.625-5.416 2.084-7.708a18.112 18.112 0 0 1 5.625-5.625c2.291-1.458 5-2.083 7.708-2.083 2.5 0 4.792.625 6.875 1.666 1.875 1.667 3.75 3.125 5.208 5Zm-18.75 3.334c-.833.833-1.25 1.875-1.458 2.916h16.042c-.209-1.041-.834-2.083-1.459-2.916-.625-.834-1.666-1.667-2.708-2.292-1.042-.625-2.292-.833-3.75-.833-1.458 0-2.708.208-3.75.833-1.25.625-2.292 1.458-2.917 2.292ZM0 109.583v6.875h15.625L0 131.875v7.5h24.792V132.5H8.75l16.042-15.833v-7.084H0Zm232.083 19.167c.834 1.25 1.875 2.5 3.125 3.333 1.25.834 2.709 1.25 4.375 1.25 1.667 0 3.125-.416 4.375-1.25a11.15 11.15 0 0 0 3.125-3.125c.834-1.25 1.042-2.916 1.042-4.375a9.686 9.686 0 0 0-1.042-4.375c-.625-1.25-1.875-2.5-3.125-3.125-1.25-.833-2.708-1.25-4.375-1.25-1.458 0-2.916.417-4.375 1.25-1.25.834-2.5 1.875-3.125 3.334-.625 1.458-1.25 2.708-1.25 4.375 0 1.25.417 2.708 1.25 3.958Z" clip-rule="evenodd"/></svg>