<?xml version="1.0" encoding="UTF-8"?> <svg xmlns="http://www.w3.org/2000/svg" xmlns:xlink="http://www.w3.org/1999/xlink" width="215" height="215" viewBox="-3 -15 75 75"><defs><clipPath id="clip-path"><rect id="Rectangle_59" data-name="Rectangle 59" width="215" height="49.254" fill="none"></rect></clipPath></defs><path id="Path_50" data-name="Path 50" d="M399.925,7.291H392.18V2.13h21.13V7.291H405.6V29.669h-5.679Z" transform="translate(-306.703 -1.564)" fill="#411064"></path><g id="Group_39" data-name="Group 39"><g id="Group_38" data-name="Group 38" clip-path="url(#clip-path)"><path id="Path_51" data-name="Path 51" d="M522.825,19.843h-4.3v9.89h-5.871V2.13h12.9c5.747,0,9.261,3.766,9.261,8.9,0,4.883-3.058,7.491-6.035,8.194l6.2,10.512h-6.739Zm1.86-12.664h-6.159v7.614h6.159a3.82,3.82,0,1,0,0-7.614" transform="translate(-403.092 -1.675)" fill="#411064"></path><path id="Path_52" data-name="Path 52" d="M643.77,24.974h-12.32l-1.736,4.759h-6.45L633.93,2.13h7.358l10.625,27.6h-6.408Zm-10.749-5.09h9.136L637.609,7.221Z" transform="translate(-490.061 -1.675)" fill="#411064"></path><path id="Path_53" data-name="Path 53" d="M756.5,14.278C756.5,5.795,762.912,0,770.975,0a12.722,12.722,0,0,1,11.741,6.746l-5.044,2.483a7.55,7.55,0,0,0-6.7-4.014c-4.8,0-8.435,3.849-8.435,9.064s3.638,9.062,8.435,9.062a7.473,7.473,0,0,0,6.7-4.014l5.044,2.442a12.8,12.8,0,0,1-11.741,6.787c-8.063,0-14.471-5.793-14.471-14.277" transform="translate(-594.826)" fill="#411064"></path><path id="Path_54" data-name="Path 54" d="M903.562,18.684l-2.149,2.566v8.484h-5.871V2.13h5.871V14.462L911.169,2.13H918.4L907.449,15.084l11.7,14.65h-7.235Z" transform="translate(-704.148 -1.675)" fill="#411064"></path><path id="Path_55" data-name="Path 55" d="M51.548,0H17.119a17.232,17.232,0,0,0,0,34.463H29.036V25.848H17.119c-4.546,0-7.945-4.111-7.945-8.616a7.779,7.779,0,0,1,7.6-7.953q.172,0,.344,0H51.548a7.784,7.784,0,0,1,7.945,7.62q0,.167,0,.333c0,4.5-3.4,8.616-7.945,8.616H39.63V47.719l7.283-13.255h4.634c9.667,0,17.877-7.66,17.877-17.232S61.215,0,51.548,0" transform="translate(0)" fill="#411064"></path><path id="Path_56" data-name="Path 56" d="M185.1,144.086V120.608h12.89Z" transform="translate(-145.542 -94.832)" fill="#a7a8ab"></path><path id="Path_57" data-name="Path 57" d="M399.879,190.818h-4.222l-.7,1.783h-1.42l3.422-8.62h1.614L402,192.6h-1.42Zm-3.848-1.15H399.5l-1.743-4.562Z" transform="translate(-309.433 -144.661)" fill="#411064"></path><path id="Path_58" data-name="Path 58" d="M460.319,185.118h-2.673V183.98h6.623v1.137h-2.66V192.6h-1.291Z" transform="translate(-359.839 -144.661)" fill="#411064"></path><path id="Path_59" data-name="Path 59" d="M493.356,194.585h1.162v.956a2.648,2.648,0,0,1,2.04-1.1v1.176a1.824,1.824,0,0,0-.4-.039,2.2,2.2,0,0,0-1.64.9v4.343h-1.162Z" transform="translate(-387.917 -152.887)" fill="#411064"></path><path id="Path_60" data-name="Path 60" d="M519.68,200.094a2.671,2.671,0,0,1-2.04.84,2.073,2.073,0,0,1-2.169-2.068,2.014,2.014,0,0,1,2.169-2.042,2.6,2.6,0,0,1,2.04.827v-1.034c0-.776-.633-1.241-1.524-1.241a2.55,2.55,0,0,0-1.872.827l-.5-.8a3.5,3.5,0,0,1,2.556-1.021c1.356,0,2.5.595,2.5,2.184v4.213H519.68Zm0-1.745a1.974,1.974,0,0,0-1.6-.711,1.254,1.254,0,1,0,0,2.482,1.974,1.974,0,0,0,1.6-.711Z" transform="translate(-405.306 -152.839)" fill="#411064"></path><path id="Path_61" data-name="Path 61" d="M548.4,195.108h1.24l1.95,4.9,1.95-4.9h1.252l-2.569,6.242H550.97Z" transform="translate(-431.198 -153.41)" fill="#411064"></path><path id="Path_62" data-name="Path 62" d="M587.416,194.382a3.068,3.068,0,0,1,3.034,3.373v.284h-4.932a2.046,2.046,0,0,0,2.117,1.939,2.651,2.651,0,0,0,1.847-.737l.542.763a3.506,3.506,0,0,1-2.505.931,3.278,3.278,0,0,1-.1-6.553m-1.911,2.817h3.809a1.846,1.846,0,0,0-1.9-1.861,1.911,1.911,0,0,0-1.911,1.861" transform="translate(-459.418 -152.839)" fill="#411064"></path><rect id="Rectangle_57" data-name="Rectangle 57" width="1.162" height="8.62" transform="translate(133.215 39.32)" fill="#411064"></rect><path id="Path_63" data-name="Path 63" d="M642.2,185.984V192.6h-1.291v-8.62h1.33l4.687,6.462v-6.462h1.291v8.62h-1.252Z" transform="translate(-503.933 -144.661)" fill="#411064"></path><path id="Path_64" data-name="Path 64" d="M688.621,194.382a3.068,3.068,0,0,1,3.034,3.373v.284h-4.932a2.046,2.046,0,0,0,2.118,1.939,2.65,2.65,0,0,0,1.846-.737l.542.763a3.506,3.506,0,0,1-2.5.931,3.278,3.278,0,0,1-.1-6.553M686.71,197.2h3.809a1.846,1.846,0,0,0-1.9-1.861,1.911,1.911,0,0,0-1.911,1.861" transform="translate(-538.993 -152.839)" fill="#411064"></path><path id="Path_65" data-name="Path 65" d="M721.816,193.69v-3.838h-1.033v-1.021h1.033v-1.706h1.162v1.706h1.265v1.021h-1.265v3.58c0,.439.207.762.607.762a.894.894,0,0,0,.633-.246l.3.879a1.655,1.655,0,0,1-1.214.4,1.358,1.358,0,0,1-1.485-1.538" transform="translate(-566.739 -147.133)" fill="#411064"></path><path id="Path_66" data-name="Path 66" d="M763.755,189.916a3.63,3.63,0,0,0,2.711,1.215c1.394,0,1.885-.711,1.885-1.331,0-.9-.981-1.163-2.079-1.448-1.381-.362-2.982-.763-2.982-2.52,0-1.422,1.252-2.456,3.047-2.456a4.22,4.22,0,0,1,3.137,1.2l-.749.956a3.357,3.357,0,0,0-2.492-1.008c-.955,0-1.614.491-1.614,1.215,0,.776.93,1.021,2,1.293,1.407.375,3.047.814,3.047,2.649,0,1.344-.93,2.6-3.254,2.6a4.4,4.4,0,0,1-3.4-1.37Z" transform="translate(-599.948 -144.185)" fill="#411064"></path><path id="Path_67" data-name="Path 67" d="M802.594,197.652a3.153,3.153,0,1,1,3.15,3.283,3.1,3.1,0,0,1-3.15-3.283m5.087,0a1.958,1.958,0,1,0-1.937,2.249,2.021,2.021,0,0,0,1.937-2.249" transform="translate(-631.065 -152.839)" fill="#411064"></path><rect id="Rectangle_58" data-name="Rectangle 58" width="1.162" height="8.62" transform="translate(180.025 39.32)" fill="#411064"></rect><path id="Path_68" data-name="Path 68" d="M864.022,200.5a3.08,3.08,0,0,1-2.221,1.008,1.76,1.76,0,0,1-1.988-1.99v-4.407h1.162v4.019c0,1.034.516,1.344,1.317,1.344a2.253,2.253,0,0,0,1.73-.879v-4.485h1.162v6.242h-1.162Z" transform="translate(-676.056 -153.41)" fill="#411064"></path><path id="Path_69" data-name="Path 69" d="M894.26,193.69v-3.838h-1.033v-1.021h1.033v-1.706h1.162v1.706h1.265v1.021h-1.265v3.58c0,.439.207.762.607.762a.893.893,0,0,0,.633-.246l.3.879a1.654,1.654,0,0,1-1.214.4,1.357,1.357,0,0,1-1.485-1.538" transform="translate(-702.329 -147.133)" fill="#411064"></path><path id="Path_70" data-name="Path 70" d="M918,184a.758.758,0,0,1,.749-.75.75.75,0,0,1,.749.75.739.739,0,0,1-.749.736A.747.747,0,0,1,918,184m.181,1.783h1.162v6.242H918.18Z" transform="translate(-721.806 -144.09)" fill="#411064"></path><path id="Path_71" data-name="Path 71" d="M934.494,197.652a3.153,3.153,0,1,1,3.15,3.283,3.1,3.1,0,0,1-3.15-3.283m5.087,0a1.958,1.958,0,1,0-1.937,2.249,2.021,2.021,0,0,0,1.937-2.249" transform="translate(-734.776 -152.839)" fill="#411064"></path><path id="Path_72" data-name="Path 72" d="M978.46,196.786c0-1.034-.529-1.37-1.33-1.37a2.226,2.226,0,0,0-1.717.9v4.459h-1.162v-6.242h1.162v.879a2.972,2.972,0,0,1,2.208-1.034,1.793,1.793,0,0,1,2,2.016v4.381H978.46Z" transform="translate(-766.036 -152.839)" fill="#411064"></path></g></g></svg> 
