<svg version="1.1" id="Layer_1" xmlns="http://www.w3.org/2000/svg" xmlns:xlink="http://www.w3.org/1999/xlink" x="0px" y="0px"
	 width="100%" viewBox="0 0 129 128" enable-background="new 0 0 129 128" xml:space="preserve">
<path fill="#FFFFFF" opacity="1.000000" stroke="none"
	d="
M127.000000,129.000000
	C85.048409,129.000000 43.096809,129.000000 1.072608,129.000000
	C1.072608,86.431015 1.072608,43.861877 1.072608,1.000000
	C42.687103,1.000000 84.374893,1.000000 126.239166,1.315573
	C127.610435,2.754098 128.805222,3.877048 130.000000,5.000000
	C130.000000,44.687561 130.000000,84.375122 129.682495,124.240494
	C128.576660,125.945541 127.788330,127.472771 127.000000,129.000000
M121.000000,95.499954
	C121.000000,68.691734 120.971100,41.883446 121.034180,15.075377
	C121.042709,11.455429 120.381393,8.962699 115.980942,8.969816
	C82.012848,9.024759 48.044617,9.015577 14.076487,8.976865
	C10.555498,8.972852 8.971546,10.447385 8.975821,14.018817
	C9.016487,47.986942 9.015574,81.955154 8.976868,115.923286
	C8.972857,119.444077 10.446989,121.028458 14.018590,121.024178
	C47.986717,120.983513 81.954926,120.984421 115.923065,121.023125
	C119.443680,121.027138 121.072037,119.554749 121.024467,115.981339
	C120.938026,109.488571 120.999977,102.993835 121.000000,95.499954
z"/>
<path fill="#000000" opacity="1.000000" stroke="none"
	d="
M121.000000,95.999939
	C120.999977,102.993835 120.938026,109.488571 121.024467,115.981339
	C121.072037,119.554749 119.443680,121.027138 115.923065,121.023125
	C81.954926,120.984421 47.986717,120.983513 14.018590,121.024178
	C10.446989,121.028458 8.972857,119.444077 8.976868,115.923286
	C9.015574,81.955154 9.016487,47.986942 8.975821,14.018817
	C8.971546,10.447385 10.555498,8.972852 14.076487,8.976865
	C48.044617,9.015577 82.012848,9.024759 115.980942,8.969816
	C120.381393,8.962699 121.042709,11.455429 121.034180,15.075377
	C120.971100,41.883446 121.000000,68.691734 121.000000,95.999939
M47.004021,72.507072
	C52.844212,81.015442 58.624271,89.566040 64.554573,98.011131
	C66.885384,101.330330 69.347992,104.606354 72.125175,107.548424
	C74.742035,110.320663 80.104706,109.578560 81.934601,106.393608
	C88.492592,94.979332 94.901154,83.478935 101.496750,72.086670
	C103.472275,68.674446 103.519058,65.915222 100.057297,63.553040
	C95.934166,60.739555 93.193314,62.413586 90.971436,66.200096
	C85.932579,74.787262 80.845016,83.345848 75.648476,92.133835
	C67.212952,80.003296 59.121227,67.994476 50.564629,56.326561
	C48.445873,53.437401 49.222439,52.181435 51.227333,50.220352
	C56.940586,44.631958 62.731110,39.101910 68.108337,33.200050
	C70.512238,30.561625 73.221962,27.259539 69.067650,23.547756
	C65.817772,20.644070 62.579155,20.919012 58.796547,24.709631
	C53.098076,30.420170 47.425213,36.156265 41.000000,42.628372
	C41.000000,36.764942 40.870564,31.999163 41.040352,27.244066
	C41.179905,23.335754 40.263645,20.977713 35.646713,20.909433
	C30.757565,20.837126 29.930191,23.339241 29.951326,27.451809
	C30.057478,48.105358 30.048010,68.759949 29.958305,89.413651
	C29.940973,93.404572 30.508892,96.102448 35.510845,96.098320
	C40.525345,96.094193 41.108513,93.368675 41.040630,89.391602
	C40.904064,81.390221 41.000000,73.384857 41.000000,64.040665
	C43.398937,67.516418 44.939831,69.748978 47.004021,72.507072
z"/>
<path fill="#FFFFFF" opacity="1.000000" stroke="none"
	d="
M46.742374,72.244308
	C44.939831,69.748978 43.398937,67.516418 41.000000,64.040665
	C41.000000,73.384857 40.904064,81.390221 41.040630,89.391602
	C41.108513,93.368675 40.525345,96.094193 35.510845,96.098320
	C30.508892,96.102448 29.940973,93.404572 29.958305,89.413651
	C30.048010,68.759949 30.057478,48.105358 29.951326,27.451809
	C29.930191,23.339241 30.757565,20.837126 35.646713,20.909433
	C40.263645,20.977713 41.179905,23.335754 41.040352,27.244066
	C40.870564,31.999163 41.000000,36.764942 41.000000,42.628372
	C47.425213,36.156265 53.098076,30.420170 58.796547,24.709631
	C62.579155,20.919012 65.817772,20.644070 69.067650,23.547756
	C73.221962,27.259539 70.512238,30.561625 68.108337,33.200050
	C62.731110,39.101910 56.940586,44.631958 51.227333,50.220352
	C49.222439,52.181435 48.445873,53.437401 50.564629,56.326561
	C59.121227,67.994476 67.212952,80.003296 75.648476,92.133835
	C80.845016,83.345848 85.932579,74.787262 90.971436,66.200096
	C93.193314,62.413586 95.934166,60.739555 100.057297,63.553040
	C103.519058,65.915222 103.472275,68.674446 101.496750,72.086670
	C94.901154,83.478935 88.492592,94.979332 81.934601,106.393608
	C80.104706,109.578560 74.742035,110.320663 72.125175,107.548424
	C69.347992,104.606354 66.885384,101.330330 64.554573,98.011131
	C58.624271,89.566040 52.844212,81.015442 46.742374,72.244308
z"/>
</svg>
