<?xml version="1.0" standalone="no"?>
<svg version="1.0" xmlns="http://www.w3.org/2000/svg"
 width="200.000000pt" height="200.000000pt" viewBox="0 0 200.000000 200.000000"
 preserveAspectRatio="xMidYMid meet">

<g transform="translate(0.000000,200.000000) scale(0.100000,-0.100000)"
fill="#000000" stroke="none">
<path d="M0 1000 l0 -1000 1000 0 1000 0 0 1000 0 1000 -1000 0 -1000 0 0
-1000z m1000 511 c231 -86 370 -302 358 -551 -14 -275 -225 -498 -491 -518
l-68 -5 3 38 3 39 79 13 c304 51 479 380 351 661 -66 144 -218 254 -372 271
-54 6 -58 8 -61 34 -6 51 0 54 74 46 38 -4 94 -17 124 -28z m-44 -206 c103
-46 170 -135 196 -258 31 -148 -66 -322 -209 -378 -32 -12 -76 -22 -98 -23
l-40 -1 0 40 0 40 48 7 c134 19 226 140 215 282 -6 74 -25 114 -82 170 -39 40
-100 67 -160 71 -22 2 -34 41 -22 72 8 20 82 10 152 -22z"/>
</g>
</svg>