<?xml version="1.0" encoding="UTF-8"?>
<svg version="1.1" xmlns="http://www.w3.org/2000/svg" width="512" height="512">
<path d="M0 0 C0.82988597 -0.0072672 1.65977194 -0.01453441 2.51480597 -0.02202183 C5.30825807 -0.04033523 8.10034808 -0.02288732 10.8937912 -0.00571251 C12.91157755 -0.01147119 14.92935867 -0.0194106 16.94712877 -0.02934873 C22.50169054 -0.05027993 28.05582445 -0.03987827 33.61038804 -0.02441764 C39.5968484 -0.01313375 45.58323368 -0.03055212 51.56967926 -0.04431725 C62.62251241 -0.06529792 73.67522743 -0.06343429 84.72806142 -0.0497599 C94.93823167 -0.03718983 105.14835174 -0.03389501 115.35852814 -0.03987312 C116.03538239 -0.04025505 116.71223664 -0.04063697 117.40960163 -0.04103047 C120.15706612 -0.04258713 122.90453058 -0.04417912 125.65199501 -0.04582929 C151.43354016 -0.06112967 177.21499812 -0.0472485 202.99652983 -0.02034481 C225.90971803 0.00338385 248.8227673 0.00126074 271.73595428 -0.02264977 C297.46986699 -0.0494139 323.20370263 -0.06004464 348.93762732 -0.04458845 C351.68013094 -0.04298482 354.42263459 -0.04142062 357.16513824 -0.03987312 C357.84042921 -0.03947774 358.51572018 -0.03908235 359.21147451 -0.03867498 C369.41607177 -0.03298387 379.62061339 -0.03964594 389.82520294 -0.05227089 C401.42649099 -0.06655211 413.0276468 -0.06254293 424.6289202 -0.03586717 C430.55154845 -0.022699 436.47389426 -0.01762783 442.39652061 -0.03411293 C447.81358578 -0.04896314 453.23010553 -0.04090563 458.64712089 -0.01422517 C460.61137568 -0.00861927 462.57567613 -0.01152754 464.53990179 -0.02360411 C467.20181989 -0.03872048 469.86184843 -0.02330919 472.52366638 0 C473.293627 -0.01170583 474.06358761 -0.02341166 474.85688037 -0.03547221 C478.59802171 0.03040248 480.62591262 0.53641923 483.73739326 2.66047823 C486.29104343 6.4052628 486.4586381 9.3765117 486.39103889 13.75805092 C486.4019397 14.98515195 486.4019397 14.98515195 486.41306072 16.2370429 C486.43137195 18.99029799 486.41392735 21.74217071 486.3967514 24.49541664 C486.40251017 26.4843295 486.41044964 28.47323704 486.42038763 30.46213341 C486.44131761 35.93688624 486.43091773 41.41120495 486.41545653 46.88595963 C486.40417214 52.78653004 486.42159126 58.6870243 486.43535614 64.58757973 C486.45633635 75.48172935 486.45447345 86.37572935 486.4407988 97.26988697 C486.42822848 107.33348174 486.42493401 117.3970256 486.43091202 127.4606266 C486.43129394 128.12777643 486.43167587 128.79492625 486.43206937 129.48229274 C486.43362602 132.19036859 486.43521802 134.89844442 486.43686819 137.60652022 C486.4521684 163.01820449 486.43828766 188.42980028 486.4113837 213.8414709 C486.38765506 236.42571114 486.38977818 259.00981044 486.41368866 281.59404945 C486.44045307 306.95879848 486.45108338 332.32346933 486.43562734 357.68823051 C486.43402372 360.39141526 486.43245952 363.09460003 486.43091202 365.79778481 C486.43051663 366.46339372 486.43012124 367.12900263 486.42971388 367.81478152 C486.42402288 377.87285807 486.43068462 387.93087817 486.44330978 397.98894691 C486.45731274 409.42372981 486.4535812 420.85834102 486.42690606 432.29310417 C486.4137383 438.13067261 486.40866602 443.9679545 486.42515182 449.80552101 C486.4400029 455.14487129 486.43194312 460.48366824 486.40526406 465.82296801 C486.39965853 467.75895911 486.40256564 469.69499654 486.414643 471.63095808 C486.42976138 474.25476488 486.41434627 476.87665522 486.39103889 479.50036049 C486.40274473 480.25909069 486.41445056 481.01782088 486.42651111 481.7995429 C486.36022535 485.51089573 485.84266868 487.510665 483.73739326 490.59793317 C479.96133933 493.17566457 476.9427059 493.32559475 472.52366638 493.25841141 C471.69378041 493.26567861 470.86389444 493.27294582 470.00886041 493.28043324 C467.21540831 493.29874664 464.4233183 493.28129873 461.62987518 493.26412392 C459.61208883 493.2698826 457.59430771 493.277822 455.57653761 493.28776014 C450.02197585 493.30869134 444.46784193 493.29828967 438.91327834 493.28282905 C432.92681799 493.27154515 426.9404327 493.28896353 420.95398712 493.30272865 C409.90115397 493.32370933 398.84843895 493.3218457 387.79560496 493.30817131 C377.58543471 493.29560123 367.37531464 493.29230641 357.16513824 493.29828453 C356.48828399 493.29866646 355.81142974 493.29904838 355.11406475 493.29944188 C352.36660027 493.30099853 349.61913581 493.30259053 346.87167138 493.3042407 C321.09012622 493.31954108 295.30866826 493.30565991 269.52713656 493.27875621 C246.61394836 493.25502756 223.70089908 493.25715067 200.7877121 493.28106117 C175.05379939 493.30782531 149.31996375 493.31845605 123.58603907 493.30299985 C120.84353544 493.30139623 118.10103179 493.29983203 115.35852814 493.29828453 C114.68323717 493.29788914 114.0079462 493.29749376 113.31219187 493.29708639 C103.10759461 493.29139528 92.903053 493.29805735 82.69846344 493.3106823 C71.09717539 493.32496352 59.49601958 493.32095434 47.89474618 493.29427858 C41.97211794 493.28111041 36.04977212 493.27603924 30.12714577 493.29252434 C24.7100806 493.30737455 19.29356085 493.29931703 13.87654549 493.27263658 C11.9122907 493.26703067 9.94799025 493.26993895 7.98376459 493.28201552 C5.3218465 493.29713188 2.66181795 493.2817206 0 493.25841141 C-0.76996062 493.27011724 -1.53992123 493.28182307 -2.33321398 493.29388362 C-6.07435533 493.22800892 -8.10224623 492.72199218 -11.21372688 490.59793317 C-13.76737705 486.85314861 -13.93497172 483.88189971 -13.86737251 479.50036049 C-13.87827332 478.27325946 -13.87827332 478.27325946 -13.88939434 477.0213685 C-13.90770557 474.26811342 -13.89026097 471.5162407 -13.87308502 468.76299477 C-13.87884379 466.77408191 -13.88678326 464.78517437 -13.89672124 462.796278 C-13.91765123 457.32152517 -13.90725134 451.84720646 -13.89179015 446.37245178 C-13.88050576 440.47188137 -13.89792488 434.5713871 -13.91168976 428.67083168 C-13.93266997 417.77668206 -13.93080706 406.88268205 -13.91713242 395.98852444 C-13.9045621 385.92492967 -13.90126763 375.86138581 -13.90724564 365.79778481 C-13.90762756 365.13063498 -13.90800949 364.46348515 -13.90840299 363.77611867 C-13.90995964 361.06804281 -13.91155164 358.35996698 -13.9132018 355.65189119 C-13.92850202 330.24020692 -13.91462127 304.82861112 -13.88771732 279.41694051 C-13.86398868 256.83270026 -13.86611179 234.24860097 -13.89002228 211.66436195 C-13.91678669 186.29961292 -13.927417 160.93494208 -13.91196096 135.57018089 C-13.91035734 132.86699615 -13.90879314 130.16381138 -13.90724564 127.4606266 C-13.90685025 126.79501769 -13.90645486 126.12940877 -13.90604749 125.44362989 C-13.9003565 115.38555333 -13.90701824 105.32753323 -13.9196434 95.26946449 C-13.93364635 83.8346816 -13.92991482 72.40007038 -13.90323968 60.96530724 C-13.89007192 55.1277388 -13.88499964 49.2904569 -13.90148544 43.4528904 C-13.91633652 38.11354012 -13.90827674 32.77474316 -13.88159768 27.4354434 C-13.87599214 25.4994523 -13.87889925 23.56341487 -13.89097662 21.62745333 C-13.906095 19.00364653 -13.89067989 16.38175619 -13.86737251 13.75805092 C-13.87907834 12.99932072 -13.89078417 12.24059052 -13.90284473 11.4588685 C-13.83655896 7.74751568 -13.31900229 5.7477464 -11.21372688 2.66047823 C-7.43767295 0.08274684 -4.41903952 -0.06718334 0 0 Z " fill="#3B5998" transform="translate(20.23816680908203,10.370794296264648)"/>
<path d="M0 0 C11.40368634 0.51621242 22.80010392 0.79295059 34.21325684 0.94006348 C35.30934674 0.95440115 35.30934674 0.95440115 36.42757988 0.96902847 C43.22601125 1.0568608 50.02454751 1.13506521 56.82312012 1.21105957 C60.59318779 1.25352056 64.36317347 1.30068573 68.13314819 1.35069275 C70.24324179 1.3771557 72.35334435 1.39798459 74.46350098 1.41870117 C75.72412354 1.4354187 76.98474609 1.45213623 78.28356934 1.46936035 C79.39619141 1.48188843 80.50881348 1.4944165 81.65515137 1.50732422 C84.15075684 1.65881348 84.15075684 1.65881348 85.15075684 2.65881348 C85.19156467 4.65839711 85.1933004 6.65926602 85.15075684 8.65881348 C82.71831379 9.875035 80.47117404 9.95717299 77.79260254 10.20324707 C68.02769729 11.14044646 59.32466041 13.48490991 52.15075684 20.65881348 C47.30656323 28.44412463 47.90478166 37.52487251 47.65075684 46.40881348 C47.62090698 47.39440247 47.62090698 47.39440247 47.5904541 48.39990234 C47.08546314 65.18937821 46.85604577 81.98539101 46.58926392 98.77993774 C46.26133497 119.41334431 45.78126404 140.03222051 45.15075684 160.65881348 C58.35075684 160.65881348 71.55075684 160.65881348 85.15075684 160.65881348 C83.17075684 155.70881348 81.19075684 150.75881348 79.15075684 145.65881348 C75.79507077 136.04522636 73.97026032 128.35535071 73.96325684 118.22131348 C73.95101074 117.29254395 73.93876465 116.36377441 73.92614746 115.40686035 C73.91549115 110.41615496 74.17540443 106.33563598 76.15075684 101.65881348 C75.57325684 101.57631348 74.99575684 101.49381348 74.40075684 101.40881348 C71.38168404 100.40245588 70.06885787 99.19344699 68.15075684 96.65881348 C67.90075684 93.40881348 67.90075684 93.40881348 68.15075684 90.65881348 C69.47075684 90.32881348 70.79075684 89.99881348 72.15075684 89.65881348 C72.54263184 90.46318848 72.93450684 91.26756348 73.33825684 92.09631348 C74.92023874 94.88946086 74.92023874 94.88946086 77.83825684 95.47131348 C78.98294434 95.56412598 78.98294434 95.56412598 80.15075684 95.65881348 C80.42919434 95.06842285 80.70763184 94.47803223 80.99450684 93.86975098 C85.38016146 85.48366814 92.72094243 81.25568124 101.02575684 77.28381348 C111.21563052 75.24583874 119.98370451 76.77674346 129.15075684 81.65881348 C133.82108913 85.05236428 137.92699747 88.84319777 141.15075684 93.65881348 C141.15075684 94.31881348 141.15075684 94.97881348 141.15075684 95.65881348 C145.54390476 94.647205 145.54390476 94.647205 148.52575684 91.53381348 C148.73200684 90.91506348 148.93825684 90.29631348 149.15075684 89.65881348 C150.47075684 89.98881348 151.79075684 90.31881348 153.15075684 90.65881348 C153.46325684 93.34631348 153.46325684 93.34631348 153.15075684 96.65881348 C150.83825684 99.53381348 150.83825684 99.53381348 148.15075684 101.65881348 C147.16075684 101.65881348 146.17075684 101.65881348 145.15075684 101.65881348 C145.36731934 102.24146973 145.58388184 102.82412598 145.80700684 103.42443848 C149.60760242 114.61508102 148.38948166 123.76982917 145.52575684 135.03381348 C145.17299683 136.43216431 145.17299683 136.43216431 144.81311035 137.85876465 C142.66217009 145.80878835 139.52315939 153.16228673 136.15075684 160.65881348 C140.93878042 160.63941645 145.72495994 160.58777638 150.5123291 160.50622559 C152.14080761 160.48302881 153.76943649 160.46864588 155.39807129 160.46325684 C157.73976525 160.45397856 160.07908891 160.41302092 162.42028809 160.36584473 C163.14851273 160.36977737 163.87673737 160.37371002 164.62702942 160.37776184 C166.93841602 160.3656287 166.93841602 160.3656287 170.15075684 159.65881348 C172.02960309 157.26539154 172.02960309 157.26539154 173.15075684 154.65881348 C175.71325684 153.72131348 175.71325684 153.72131348 178.15075684 153.65881348 C180.15075684 155.65881348 180.15075684 155.65881348 180.40759277 157.55383301 C180.33707447 164.97205239 179.45367591 172.19631398 178.40075684 179.53381348 C178.132229 181.4439624 178.132229 181.4439624 177.85827637 183.3927002 C176.43933639 193.22861864 174.64841001 202.94153688 172.56481934 212.65539551 C171.81064843 216.30440873 171.22006087 219.98212961 170.64294434 223.66271973 C170.15075684 225.65881348 170.15075684 225.65881348 168.15075684 228.65881348 C165.58132156 228.95777477 163.25158093 229.05883221 160.67933655 229.03303528 C159.89978589 229.03700968 159.12023524 229.04098409 158.31706184 229.04507893 C155.6905622 229.05474556 153.06459535 229.04285773 150.43811035 229.03112793 C148.56093138 229.03355448 146.68375369 229.03727246 144.80657959 229.04219055 C139.69708685 229.05162258 134.58778489 229.04215441 129.47830701 229.02885842 C124.13987007 229.01757002 118.80144288 229.02164945 113.46299744 229.02360535 C104.49552277 229.02448923 95.52812357 229.01338892 86.56066895 228.99499512 C76.18375161 228.97383251 65.80694492 228.97031569 55.43001038 228.97655708 C45.46141695 228.98224659 35.49286262 228.97660953 25.52427483 228.96538353 C21.2759218 228.96073141 17.02759263 228.95986635 12.77923775 228.96196938 C7.77816851 228.96384935 2.77721229 228.95577082 -2.22383118 228.93990898 C-4.06249588 228.93565657 -5.90117203 228.93482197 -7.73983955 228.93759918 C-10.24363128 228.94080797 -12.74708253 228.93177222 -15.25083923 228.91950989 C-16.35044177 228.92517887 -16.35044177 228.92517887 -17.47225851 228.93096238 C-21.15580436 228.89890125 -22.69717583 228.7601917 -25.84924316 226.65881348 C-26.03674316 224.03381348 -26.03674316 224.03381348 -25.84924316 221.65881348 C-20.96297833 220.53737565 -16.10994051 219.52793743 -11.16174316 218.72131348 C-6.93407189 217.97629728 -3.60011014 216.81556199 0.15075684 214.65881348 C1.14075684 214.32881348 2.13075684 213.99881348 3.15075684 213.65881348 C4.27591768 211.82596905 4.27591768 211.82596905 5.15075684 209.65881348 C5.48075684 209.01943848 5.81075684 208.38006348 6.15075684 207.72131348 C15.56006754 188.31461014 12.31233921 161.84363704 12.31872559 140.86584473 C12.32194975 138.33823123 12.32531463 135.8106179 12.32881165 133.28300476 C12.33475094 128.02293465 12.33665672 122.76288084 12.33605957 117.50280762 C12.3354578 111.47524728 12.3460509 105.44777611 12.36180323 99.42023832 C12.37658704 93.54748879 12.38004425 87.67477389 12.37944984 81.80200768 C12.38061818 79.33560507 12.38497427 76.86920157 12.39278221 74.40281105 C13.77030287 44.98225705 13.77030287 44.98225705 3.15075684 18.65881348 C-3.40546825 13.27664077 -10.33511478 10.24128166 -18.72424316 9.15881348 C-21.84924316 8.65881348 -21.84924316 8.65881348 -23.84924316 7.40881348 C-24.84924316 5.65881348 -24.84924316 5.65881348 -24.66174316 3.03381348 C-22.36949089 -3.66661625 -6.13225279 -0.28121715 0 0 Z " fill="#FAFBFC" transform="translate(284.8492431640625,141.3411865234375)"/>
<path d="M0 0 C3.19163231 1.98906904 3.19163231 1.98906904 6.79638672 1.77075195 C8.83896107 0.13581583 10.49159733 -1.56031956 12.17919922 -3.5612793 C12.75798828 -4.23932617 13.33677734 -4.91737305 13.93310547 -5.6159668 C15.64988899 -7.66829484 15.64988899 -7.66829484 17.14013672 -9.91674805 C18.61669922 -11.6862793 18.61669922 -11.6862793 21.67919922 -12.1237793 C22.64857422 -11.9794043 23.61794922 -11.8350293 24.61669922 -11.6862793 C26.59637001 -8.71677312 26.90523976 -7.85217162 27.17919922 -4.48706055 C27.28965576 -3.19155273 27.28965576 -3.19155273 27.40234375 -1.86987305 C27.50844971 -0.44868164 27.50844971 -0.44868164 27.61669922 1.0012207 C27.69645996 1.99637695 27.7762207 2.9915332 27.85839844 4.0168457 C28.1257576 7.44821558 28.37386036 10.88052904 28.61669922 14.3137207 C28.75640137 16.28139404 28.75640137 16.28139404 28.89892578 18.28881836 C29.14326479 21.77220164 29.37785421 25.25614814 29.60595703 28.7406311 C29.73780836 30.75429855 29.87252281 32.76777789 30.00732422 34.78125 C30.42118693 41.40513946 30.72099956 48.02139885 30.79638672 54.6574707 C30.81169434 55.8865918 30.82700195 57.11571289 30.84277344 58.38208008 C30.61669922 61.3137207 30.61669922 61.3137207 28.61669922 63.3137207 C26.24169922 63.3137207 26.24169922 63.3137207 23.61669922 62.3137207 C20.03684775 57.62161086 17.77104091 52.48876992 15.36669922 47.1262207 C12.1947328 40.20139281 8.82220802 34.20988277 4.05029297 28.24731445 C2.61669922 26.3137207 2.61669922 26.3137207 2.61669922 24.3137207 C1.95669922 24.3137207 1.29669922 24.3137207 0.61669922 24.3137207 C-0.41194152 23.01817319 -1.3805003 21.67474243 -2.32080078 20.3137207 C-6.54017022 14.72590712 -11.62008853 11.18870102 -17.38330078 7.3137207 C-18.46224609 6.49387695 -18.46224609 6.49387695 -19.56298828 5.6574707 C-33.28383309 -4.49077678 -51.27494176 -6.33237507 -67.77392578 -4.26049805 C-76.62440049 -2.33185182 -85.09151197 1.84985144 -92.13720703 7.53637695 C-94.38330078 9.3137207 -94.38330078 9.3137207 -96.38330078 9.3137207 C-96.65142578 9.9118457 -96.91955078 10.5099707 -97.19580078 11.1262207 C-98.38247484 13.31219924 -99.47929191 14.72704664 -101.38330078 16.3137207 C-102.04330078 16.3137207 -102.70330078 16.3137207 -103.38330078 16.3137207 C-103.64755859 16.87446289 -103.91181641 17.43520508 -104.18408203 18.01293945 C-105.48884676 20.51621772 -106.99751809 22.78249752 -108.57080078 25.1262207 C-115.00292098 35.20320902 -119.54960783 45.63134373 -122.55908203 57.19262695 C-123.38330078 60.3137207 -123.38330078 60.3137207 -124.41845703 63.2902832 C-134.00149166 93.31971155 -127.96152528 131.92646145 -114.00830078 159.3137207 C-110.47281841 165.56451723 -106.09047659 170.91639506 -101.38330078 176.3137207 C-100.42193673 177.49876846 -99.4629635 178.6857678 -98.50830078 179.8762207 C-96.4368498 182.46772299 -96.4368498 182.46772299 -93.38330078 184.3137207 C-93.38330078 184.9737207 -93.38330078 185.6337207 -93.38330078 186.3137207 C-92.72330078 186.3137207 -92.06330078 186.3137207 -91.38330078 186.3137207 C-90.65884766 187.05364258 -89.93439453 187.79356445 -89.18798828 188.5559082 C-86.21725363 191.47699269 -83.12591763 193.45334747 -79.50830078 195.4387207 C-78.62851563 195.93952148 -78.62851563 195.93952148 -77.73095703 196.45043945 C-62.75252234 204.84494681 -45.42042016 208.52595568 -28.51611328 204.2121582 C-13.13275794 199.65406761 -1.58818336 191.5456216 9.61669922 180.3137207 C10.72851562 179.21930664 10.72851562 179.21930664 11.86279297 178.1027832 C17.42578495 172.25996266 21.45976723 165.46701408 25.61279297 158.5949707 C27.61669922 155.3137207 27.61669922 155.3137207 28.61669922 154.3137207 C31.55419922 154.0637207 31.55419922 154.0637207 34.61669922 154.3137207 C36.61669922 157.3137207 36.61669922 157.3137207 36.47607422 160.09887695 C35.47872623 163.8298651 33.94376804 166.49896821 31.86669922 169.7512207 C31.32698486 170.59946411 31.32698486 170.59946411 30.77636719 171.46484375 C29.73571559 173.08925844 28.67663298 174.70182144 27.61669922 176.3137207 C27.09849609 177.10520508 26.58029297 177.89668945 26.04638672 178.7121582 C24.96890702 180.2928919 23.80322813 181.81311061 22.61669922 183.3137207 C21.95669922 183.3137207 21.29669922 183.3137207 20.61669922 183.3137207 C20.36919922 183.88606445 20.12169922 184.4584082 19.86669922 185.0480957 C18.42353723 187.66382682 16.734537 189.46145526 14.61669922 191.5637207 C13.56482422 192.62333008 13.56482422 192.62333008 12.49169922 193.7043457 C10.61669922 195.3137207 10.61669922 195.3137207 8.61669922 195.3137207 C8.61669922 195.9737207 8.61669922 196.6337207 8.61669922 197.3137207 C-16.39247287 216.61117323 -44.0959063 222.02129257 -75.15332031 219.04858398 C-98.78242544 215.87993004 -122.2206024 202.65024635 -138.38330078 185.3137207 C-138.38330078 184.6537207 -138.38330078 183.9937207 -138.38330078 183.3137207 C-139.37330078 182.9837207 -140.36330078 182.6537207 -141.38330078 182.3137207 C-142.80615234 180.6940918 -142.80615234 180.6940918 -144.27392578 178.5871582 C-144.81549316 177.80977295 -145.35706055 177.0323877 -145.91503906 176.23144531 C-146.48206543 175.39234619 -147.0490918 174.55324707 -147.63330078 173.6887207 C-148.50510986 172.40396851 -148.50510986 172.40396851 -149.39453125 171.09326172 C-168.32411687 142.61950286 -172.53868406 107.13903025 -165.96972656 73.92407227 C-159.08886588 43.29536186 -142.1296593 17.64287911 -115.51611328 0.73950195 C-80.32444517 -20.58749692 -35.38006133 -21.83620573 0 0 Z " fill="#FBFCFC" transform="translate(210.38330078125,153.686279296875)"/>
<path d="M0 0 C5.77910914 -0.42355347 11.54905722 -0.72997903 17.34008789 -0.93383789 C19.30360214 -1.01882943 21.26605563 -1.13449812 23.22583008 -1.2824707 C39.11043435 -2.45087249 39.11043435 -2.45087249 43.93695068 1.6428833 C47.33417898 5.72837741 49.63398022 10.24702339 51.91293335 15.01809692 C53.47410842 17.8643784 55.58619728 19.86288121 58 22 C58.61875 22.61875 59.2375 23.2375 59.875 23.875 C63.20110069 25.63587684 65.43704179 24.93762058 69 24 C73.60674616 20.94381718 76.2039984 17.13158965 79.125 12.5625 C79.76888672 11.57926758 79.76888672 11.57926758 80.42578125 10.57617188 C83.03644787 6.57543976 83.03644787 6.57543976 85.16088867 2.30371094 C87 0 87 0 90.46166992 -0.56762695 C91.88484843 -0.56683711 93.30818281 -0.53868344 94.73046875 -0.48828125 C95.85609978 -0.47766914 95.85609978 -0.47766914 97.00447083 -0.46684265 C99.39983095 -0.43886657 101.79284747 -0.37613009 104.1875 -0.3125 C105.81181518 -0.28742092 107.43616703 -0.26460706 109.06054688 -0.24414062 C113.04126671 -0.18903043 117.02023615 -0.10274233 121 0 C116.55944771 7.61583094 111.77669046 14.3317888 106 21 C105.57025879 21.50354004 105.14051758 22.00708008 104.69775391 22.52587891 C91.35155313 38.08912146 75.11892558 48.91365538 54.26855469 50.55639648 C50.51428821 50.79290999 46.76020508 50.9060313 43 51 C42.05995117 51.02723145 41.11990234 51.05446289 40.15136719 51.08251953 C37.12170924 51.16084727 34.09289418 51.2102067 31.0625 51.25 C30.11592529 51.27151123 29.16935059 51.29302246 28.1940918 51.31518555 C20.6217146 51.3503812 13.28752844 50.50138034 7.125 45.8125 C1.43511733 38.28177294 -0.1393669 31.49691906 -0.09765625 22.0703125 C-0.09443359 20.78125 -0.09121094 19.4921875 -0.08789062 18.1640625 C-0.07953733 16.81770764 -0.07107241 15.47135348 -0.0625 14.125 C-0.0574783 12.75520996 -0.05291657 11.38541815 -0.04882812 10.015625 C-0.03707254 6.6770381 -0.02063964 3.33854185 0 0 Z " fill="#3C5A98" transform="translate(331,308)"/>
<path d="M0 0 C5.05491368 2.43024696 8.01299458 5.7879963 10 11 C10.45746798 14.49990986 10.38184333 17.91576186 10.25 21.4375 C10.23195313 22.35982422 10.21390625 23.28214844 10.1953125 24.23242188 C10.14853601 26.48938733 10.08301871 28.74412612 10 31 C11.65 31 13.3 31 15 31 C14.97381592 30.43603516 14.94763184 29.87207031 14.9206543 29.29101562 C14.81564799 26.69430275 14.75135627 24.0980378 14.6875 21.5 C14.64560547 20.613125 14.60371094 19.72625 14.56054688 18.8125 C14.41999389 11.16641767 16.73737737 6.60013532 21.8125 1 C26.35317113 -1.07573537 30.6012115 -0.43883561 35.1875 1 C39.76031036 4.25177625 42.2422012 8.7266036 44 14 C46.13176925 31.15105256 39.15499818 48.66786104 32 64 C30.35 64 28.7 64 27 64 C26.67 63.34 26.34 62.68 26 62 C23.64400765 61.53248212 23.64400765 61.53248212 20.9375 61.375 C20.01839844 61.30023438 19.09929687 61.22546875 18.15234375 61.1484375 C17.44207031 61.09945312 16.73179687 61.05046875 16 61 C15.67 61.99 15.34 62.98 15 64 C13.02 64 11.04 64 9 64 C9 63.01 9 62.02 9 61 C7.35333797 61.1135629 5.70763918 61.24117381 4.0625 61.375 C3.14597656 61.44460938 2.22945313 61.51421875 1.28515625 61.5859375 C0.15400391 61.79089844 0.15400391 61.79089844 -1 62 C-1.33 62.66 -1.66 63.32 -2 64 C-3.65 64 -5.3 64 -7 64 C-22.37470648 25.64156201 -22.37470648 25.64156201 -18 10.6875 C-14.53606509 2.93023731 -8.39465842 -1.48937488 0 0 Z " fill="#405E9B" transform="translate(383,238)"/>
<path d="M0 0 C2.70552388 2.19823815 4.44778333 3.89556667 6 7 C6.37155705 12.57335568 6.24782829 16.23651851 3 21 C-0.34979135 23.96913324 -2.06070811 24.98352119 -6.5625 25.0625 C-11.30647578 23.59618021 -13.51593771 21.12008899 -16.3125 17.125 C-17.35640137 13.89839575 -17.34887144 11.37242397 -17 8 C-12.7819143 0.16641227 -8.68003565 -2.58389653 0 0 Z " fill="#F6F7FA" transform="translate(418,245)"/>
<path d="M0 0 C4.19846798 1.56186102 6.15853756 4.86395012 8.12109375 8.7890625 C8.52391508 14.02573977 7.95196404 17.34055204 5.12109375 21.7890625 C3.2165989 23.98655656 1.90407509 24.67007284 -0.9609375 25.10546875 C-4.9979513 25.31301009 -7.28823148 25.14095385 -10.81640625 23.0390625 C-13.90921534 19.66508895 -14.79282231 17.97271667 -15.12890625 13.3515625 C-14.76217856 8.12569288 -13.81714972 5.84172591 -10.31640625 1.9140625 C-6.93599317 -0.69581524 -4.12026158 -0.70871278 0 0 Z " fill="#F7F8FB" transform="translate(381.87890625,244.2109375)"/>
<path d="M0 0 C10.23 0 20.46 0 31 0 C29.3811605 4.04709875 27.98820974 6.67735346 25.5 10.125 C24.8915625 10.97320312 24.283125 11.82140625 23.65625 12.6953125 C23.1096875 13.45585937 22.563125 14.21640625 22 15 C21.01 16.485 21.01 16.485 20 18 C19.34 18 18.68 18 18 18 C17.505 13.05 17.505 13.05 17 8 C16.01 8 15.02 8 14 8 C13.67 10.97 13.34 13.94 13 17 C8.88888886 14.94444443 7.86913364 13.85178885 5.375 10.1875 C4.78460938 9.33542969 4.19421875 8.48335938 3.5859375 7.60546875 C2 5 2 5 0 0 Z " fill="#46629D" transform="translate(380,308)"/>
<path d="M0 0 C2.3722618 1.17771863 4.60612603 2.41100289 6.81640625 3.8671875 C6.81640625 4.1971875 6.81640625 4.5271875 6.81640625 4.8671875 C6.25953125 5.00253906 5.70265625 5.13789063 5.12890625 5.27734375 C-1.35630361 7.1067864 -5.43750911 10.14696709 -10.18359375 14.8671875 C-12.18359375 13.4921875 -12.18359375 13.4921875 -14.18359375 11.8671875 C-14.18359375 11.2071875 -14.18359375 10.5471875 -14.18359375 9.8671875 C-18.70740502 7.82417596 -23.3473107 6.85762455 -28.18359375 5.8671875 C-28.18359375 5.2071875 -28.18359375 4.5471875 -28.18359375 3.8671875 C-19.58066485 -1.80062448 -9.8861758 -3.51778035 0 0 Z " fill="#44609C" transform="translate(406.18359375,226.1328125)"/>
<path d="M0 0 C2.4375 0.75 2.4375 0.75 4.4375 2.75 C4.99166667 8.84583333 4.99166667 8.84583333 3.25 11.6875 C0.74969126 13.15319823 -0.71380656 13.24852135 -3.5625 12.75 C-5.4375 11.1875 -5.4375 11.1875 -6.5625 8.75 C-6.4375 5.125 -6.4375 5.125 -5.5625 1.75 C-2.5625 -0.25 -2.5625 -0.25 0 0 Z " fill="#4C68A1" transform="translate(413.5625,250.25)"/>
<path d="M0 0 C2.31282587 3.46923881 2.42478586 4.92205575 2 9 C0.8125 10.875 0.8125 10.875 -1 12 C-3.82115488 12.42317323 -5.33950907 12.38718434 -7.8125 10.9375 C-9.69021039 7.87386726 -9.43729494 5.49835955 -9 2 C-6.1966047 -1.32254258 -3.99398664 -1.47146876 0 0 Z " fill="#5770A6" transform="translate(382,251)"/>
<path d="M0 0 C0.99 1.32 1.98 2.64 3 4 C4.97536745 3.65213292 4.97536745 3.65213292 7 3 C7.33 2.34 7.66 1.68 8 1 C8.66 1 9.32 1 10 1 C9.25 5.75 9.25 5.75 7 8 C4.12987704 8.36796448 2.59225382 8.37509409 0.125 6.8125 C-1 5 -1 5 -0.6875 2.3125 C-0.460625 1.549375 -0.23375 0.78625 0 0 Z " fill="#425F9B" transform="translate(374,255)"/>
<path d="M0 0 C0.66 0.33 1.32 0.66 2 1 C-3.61 6.61 -9.22 12.22 -15 18 C-15.66 17.67 -16.32 17.34 -17 17 C-15.29657414 15.09955869 -13.58752883 13.20471126 -11.875 11.3125 C-11.400625 10.78205078 -10.92625 10.25160156 -10.4375 9.70507812 C-7.18500869 6.12294242 -3.77952775 3.02250068 0 0 Z " fill="#DCE0EA" transform="translate(84,162)"/>
<path d="M0 0 C1.32 0 2.64 0 4 0 C4.625 1.875 4.625 1.875 5 4 C4.34 4.66 3.68 5.32 3 6 C0.875 5.625 0.875 5.625 -1 5 C-0.67 3.35 -0.34 1.7 0 0 Z " fill="#EFF2F7" transform="translate(411,254)"/>
<path d="M0 0 C2.475 0.495 2.475 0.495 5 1 C4.67 2.65 4.34 4.3 4 6 C2.68 5.67 1.36 5.34 0 5 C0 3.35 0 1.7 0 0 Z " fill="#F5F7FA" transform="translate(376,254)"/>
</svg>
