<svg xmlns="http://www.w3.org/2000/svg" width="250" height="250" fill="none"><g clip-path="url(#a)"><mask id="b" width="200" height="190" x="25" y="30" maskUnits="userSpaceOnUse" style="mask-type:alpha"><path fill="#C4C4C4" d="M125 220c55.228 0 100-42.533 100-95s-44.772-95-100-95S25 72.533 25 125s44.772 95 100 95Z"/></mask><g mask="url(#b)"><path fill="#262626" d="M221.799 125c0 52.467-42.028 93.986-97.256 93.986-1.277 0-3.614.046-4.879 0-39.1-1.391-68.902-23.75-85.06-54.596-.023-.048-1.019-.82-1.041-.869A90.657 90.657 0 0 1 25 125c0-52.467 44.772-95 100-95 42.073 7.676 96.799 42.533 96.799 95Z"/><path fill="url(#c)" fill-rule="evenodd" d="M197.071 154.991c4.326-9.464 6.558-19.673 6.558-29.991h20.731c0 13.017-2.815 25.896-8.273 37.835-5.457 11.94-13.439 22.688-23.45 31.575-10.011 8.888-21.838 15.726-34.748 20.091a104.828 104.828 0 0 1-36.852 5.447l-2.04-19.816a83.125 83.125 0 0 0 31.941-4.186c10.233-3.46 19.608-8.88 27.544-15.925s14.263-15.565 18.589-25.03Z" clip-rule="evenodd"/><path fill="url(#d)" fill-rule="evenodd" d="M132.834 50.127a83.41 83.41 0 0 0-18.893.221c-10.905 1.374-22.438-3.32-26.746-13.543 15.174-5.771 31.605-7.92 47.855-6.26 16.251 1.66 31.826 7.078 45.362 15.781 13.535 8.703 24.619 20.425 32.281 34.14 7.661 13.717 11.667 29.007 11.667 44.534h-20.731c0-12.308-3.176-24.429-9.249-35.3-6.073-10.873-14.859-20.165-25.589-27.064-10.729-6.898-23.075-11.194-35.957-12.51Z" clip-rule="evenodd"/><path fill="#F8D742" d="M203.659 124.421h20.426v1.158h-20.426c.002-.193-.002-.579 0-1.158Z"/><path fill="url(#e)" fill-opacity=".25" d="M124.847 219.999c49.42 0 89.482-38.059 89.482-85.007 0-46.948-40.062-85.007-89.482-85.007s-89.481 38.059-89.481 85.007c0 46.948 40.062 85.007 89.481 85.007Z"/><path fill="#fff" fill-rule="evenodd" d="M33.568 163.533c4.882-3.522 12.6-6.953 28.135-5.557l.434-.453c-2.965-4.231-4.333-9.298-3.88-14.369.453-5.07 2.7-9.844 6.373-13.534 3.672-3.691 8.551-6.079 13.835-6.774 5.283-.694 10.657.348 15.238 2.954.546-.955 2.568-3.627 8.948-7.139 7.876-4.361 9.989-4.641 18.29-4.274.293.061.596.061.89 0a24.361 24.361 0 0 0 4.135-3.242 35.454 35.454 0 0 0 5.45-7.014c3.276-5.404 5.223-11.448 5.692-17.675.283-4.766-.526-11.577-6.067-17.01a27.257 27.257 0 0 0-8.806-5.788h-.151a1.846 1.846 0 0 1-.859-.696 1.723 1.723 0 0 1-.284-1.04c-.013-.257.03-.514.127-.753.097-.24.246-.458.436-.64.19-.181.419-.323.67-.416.251-.092.52-.134.789-.121h.243a35.297 35.297 0 0 1 12.294 3.666c4.073 2.153 7.576 5.166 10.243 8.809a35.334 35.334 0 0 1 5.874 12.214 56.297 56.297 0 0 1 .263 26.464 51.605 51.605 0 0 1-4.591 12.813 45.821 45.821 0 0 1-7.572 10.979.53.53 0 0 0-.082.559.479.479 0 0 0 .455.242 10.027 10.027 0 0 0 2.245-.396l.385-.087c2.193-.646 4.407-2.412 6.764-5.412a.285.285 0 0 1 .148-.106c.06-.02.125-.02.185 0 .172.058.344.231.253 1.563 0 2.498-1.81 21.727-9.697 33.034-4.08 5.547-9.181 10.343-15.054 14.154a13.506 13.506 0 0 0-4.752 5.275 12.786 12.786 0 0 0-1.315 6.843v.26c.445 5.895 1.295 17.511 1.851 28.886a.135.135 0 0 1 0 .125.158.158 0 0 1-.072.049c-39.086-1.449-72.412-24.21-87.463-56.393Zm80.619-39.971c1.073 0 2.101.407 2.86 1.13a3.775 3.775 0 0 1 1.184 2.729 3.634 3.634 0 0 1-.288 1.488c-.2.472-.497.901-.875 1.261a3.965 3.965 0 0 1-1.322.835 4.119 4.119 0 0 1-1.559.275 4.142 4.142 0 0 1-2.86-1.13 3.773 3.773 0 0 1-1.184-2.729c0-1.023.426-2.005 1.184-2.729a4.147 4.147 0 0 1 2.86-1.13Z" clip-rule="evenodd"/></g></g><defs><linearGradient id="c" x1="213.752" x2="137.588" y1="125.045" y2="225.439" gradientUnits="userSpaceOnUse"><stop stop-color="#F8D742"/><stop offset=".115" stop-color="#FFCB41"/><stop offset=".265" stop-color="#FFB040"/><stop offset=".397" stop-color="#FF9C3E"/><stop offset=".536" stop-color="#E36F27"/><stop offset=".732" stop-color="#CE4018"/><stop offset="1" stop-color="#AB2203"/></linearGradient><linearGradient id="d" x1="204" x2="91.714" y1="125" y2="33.934" gradientUnits="userSpaceOnUse"><stop offset=".024" stop-color="#F8D742"/><stop offset=".187" stop-color="#94D750"/><stop offset=".341" stop-color="#25D75A"/><stop offset=".484" stop-color="#1DD971"/><stop offset=".638" stop-color="#1BE5B7"/><stop offset=".807" stop-color="#0A9BB7"/><stop offset="1" stop-color="#005F98"/></linearGradient><linearGradient id="e" x1="124.847" x2="124.847" y1="55.175" y2="220" gradientUnits="userSpaceOnUse"><stop stop-color="#262626"/><stop offset="1" stop-color="#262626" stop-opacity="0"/></linearGradient><clipPath id="a"><path fill="#fff" d="M25 30h200v190H25z"/></clipPath></defs></svg>