<svg xmlns="http://www.w3.org/2000/svg" width="250" height="250" fill="none"><g clip-path="url(#a)"><path fill="#6772E5" d="M178.68 29H72.32C48.395 29 29 48.395 29 72.32v106.36C29 202.605 48.395 222 72.32 222h106.36c23.925 0 43.32-19.395 43.32-43.32V72.32C222 48.395 202.605 29 178.68 29Z"/><path fill="#fff" fill-rule="evenodd" d="M117.912 103.874c0-4.613 3.811-6.685 9.961-6.685a65.777 65.777 0 0 1 29.214 7.554V77.4a77.544 77.544 0 0 0-29.147-5.348c-23.799 0-39.71 12.435-39.71 33.426 0 32.49 44.657 27.209 44.657 41.247 0 5.415-4.746 7.153-11.231 7.153a73.927 73.927 0 0 1-32.49-9.559v28.01a81.484 81.484 0 0 0 32.089 6.686c24.401 0 41.247-12.034 41.247-33.426.201-34.83-44.59-28.546-44.59-41.715Z" clip-rule="evenodd"/></g><defs><clipPath id="a"><path fill="#fff" d="M29 29h193v193H29z"/></clipPath></defs></svg>