<?xml version="1.0" encoding="UTF-8"?>
<svg xmlns="http://www.w3.org/2000/svg" xmlns:xlink="http://www.w3.org/1999/xlink" width="250px" height="250px" viewBox="0 0 250 250" version="1.1">
<g id="surface1">
<path style=" stroke:none;fill-rule:nonzero;fill:rgb(27.45098%,31.764706%,100%);fill-opacity:1;" d="M 165.34375 0.632812 C 120.339844 0.566406 83.203125 35.742188 80.742188 80.675781 C 34.746094 82.667969 -1.164062 121.148438 0.0273438 167.167969 C 1.21875 213.1875 39.070312 249.757812 85.105469 249.367188 L 215.914062 249.367188 C 224.929688 249.40625 233.585938 245.855469 239.980469 239.5 C 246.375 233.148438 249.980469 224.511719 250 215.496094 L 250 85.039062 C 249.894531 38.371094 212.015625 0.601562 165.34375 0.632812 Z M 74.351562 212.085938 C 56.804688 207.539062 43.046875 193.921875 38.328125 176.421875 C 37.910156 174.742188 37.636719 173.023438 37.546875 171.292969 L 74.390625 171.292969 Z M 84.53125 213.609375 L 84.53125 133.703125 L 119.273438 133.703125 L 119.273438 213.640625 Z M 165.886719 213.609375 L 131.277344 213.609375 L 131.277344 68.046875 L 165.886719 68.046875 Z M 213.101562 206.324219 C 213.128906 208.257812 212.382812 210.121094 211.03125 211.503906 C 209.679688 212.886719 207.832031 213.675781 205.898438 213.691406 L 178.035156 213.691406 L 178.035156 96.179688 L 213.105469 96.179688 Z M 213.101562 206.324219 "/>
</g>
</svg>
