<svg version="1.0" xmlns="http://www.w3.org/2000/svg"
 width="512.000000pt" height="512.000000pt" viewBox="0 0 512.000000 512.000000"
 preserveAspectRatio="xMidYMid meet">
<g transform="translate(0.000000,512.000000) scale(0.100000,-0.100000)"
fill="#000000" stroke="none">
<path d="M3895 3100 c-59 -15 -86 -30 -136 -77 -60 -56 -87 -105 -124 -228
-84 -276 -264 -502 -523 -654 -239 -140 -561 -183 -830 -110 -176 47 -348 139
-463 246 l-50 47 -262 -262 -261 -261 24 -27 c44 -46 172 -150 258 -207 223
-149 475 -247 757 -293 136 -22 416 -22 550 0 508 84 921 335 1221 741 211
286 337 643 357 1008 l5 87 -247 -1 c-135 -1 -259 -5 -276 -9z m485 -6 c-72
-7 -503 -9 -475 -3 17 4 138 6 270 6 132 0 224 -2 205 -3z m-551 -39 c-76 -39
-133 -118 -159 -215 -18 -70 -22 -82 -26 -78 -6 7 27 121 47 161 37 71 131
156 174 156 6 0 -11 -11 -36 -24z m568 -82 c-2 -21 -4 -4 -4 37 0 41 2 58 4
38 2 -21 2 -55 0 -75z m-11 -110 c-4 -38 -13 -93 -21 -123 -8 -30 -12 -41 -10
-25 2 17 10 72 17 123 14 107 24 124 14 25z m-762 -162 c-9 -23 -18 -40 -20
-38 -2 2 4 22 13 45 9 23 18 40 20 38 2 -2 -4 -22 -13 -45z m711 -92 c-9 -35
-21 -71 -27 -79 -7 -12 -8 -11 -3 4 3 10 13 48 22 83 8 35 18 62 20 59 2 -2
-3 -32 -12 -67z m-751 -1 c-33 -64 -107 -174 -157 -231 l-50 -59 246 -246 246
-246 27 24 c41 39 136 158 189 238 26 39 50 72 52 72 18 0 -135 -208 -225
-304 l-45 -48 -253 253 -253 253 46 50 c50 55 140 188 169 248 10 21 19 36 22
34 2 -2 -4 -19 -14 -38z m701 -153 c-10 -25 -20 -44 -22 -42 -2 2 5 25 14 50
9 25 19 44 21 42 2 -2 -4 -24 -13 -50z m-44 -102 c-11 -21 -20 -35 -21 -31 0
12 33 78 38 74 2 -2 -6 -21 -17 -43z m-48 -98 c-3 -9 -8 -14 -10 -11 -3 3 -2
9 2 15 9 16 15 13 8 -4z m-28 -55 c-9 -16 -18 -30 -21 -30 -2 0 2 14 11 30 9
17 18 30 21 30 2 0 -2 -13 -11 -30z"/>
</g>
</svg>
