<svg version="1.0" xmlns="http://www.w3.org/2000/svg"
 width="400.000000pt" height="400.000000pt" viewBox="0 0 400.000000 400.000000"
 preserveAspectRatio="xMidYMid meet">

<g transform="translate(0.000000,400.000000) scale(0.100000,-0.100000)"
fill="#000000" stroke="none">
<path d="M0 2000 l0 -2000 2000 0 2000 0 0 2000 0 2000 -2000 0 -2000 0 0
-2000z m2195 710 c151 -39 311 -137 401 -247 58 -72 119 -198 145 -302 11 -45
19 -84 17 -87 -2 -2 -42 3 -89 10 -204 35 -308 41 -674 41 -363 0 -466 -7
-692 -43 -62 -10 -61 -12 -38 85 53 223 224 423 439 511 156 63 325 74 491 32z
m105 -720 c485 -34 850 -131 981 -260 74 -73 72 -137 -7 -210 -116 -107 -425
-199 -809 -242 -181 -20 -801 -17 -971 5 -277 35 -512 93 -659 163 -33 16 -84
51 -113 79 -50 49 -52 53 -52 104 0 49 3 55 48 99 192 190 909 309 1582 262z"/>
</g>
</svg>
