<svg width="400" height="400" viewBox="0 0 400 400" fill="none" xmlns="http://www.w3.org/2000/svg">
<rect width="400" height="400" rx="25" fill="white"/>
<path fill-rule="evenodd" clip-rule="evenodd" d="M197.482 110C197.482 110 182.777 110.271 166.846 116.087C150.916 121.903 141.793 129.613 135.666 135.159C131.717 138.676 126.407 144.492 122.05 151.12C117.693 157.748 116.059 161.264 114.017 166.134C109.741 175.609 108.025 186.75 107.519 190.732C134.308 185.934 165.857 183.225 199.388 183.225C233.373 183.225 265.321 186.008 292.341 190.928C291.766 187.06 289.663 175.201 284.079 162.888C277.272 147.873 270.736 141.11 264.199 135.159C257.528 129.207 245.409 120.821 233.428 116.493C232.885 116.3 232.342 116.096 231.786 115.888C230.392 115.365 228.917 114.812 227.164 114.328C224.714 113.652 221.037 112.705 218.314 112.164C217.975 112.108 217.584 112.04 217.153 111.966C215.505 111.681 213.284 111.296 211.234 111.082C208.647 110.812 200.205 110 200.205 110H197.482ZM362.782 244.958C362.782 269.833 289.63 290 199.392 290C109.153 290 36 269.833 36 244.958C36 220.081 109.153 199.915 199.392 199.915C289.63 199.915 362.782 220.081 362.782 244.958Z" fill="#121211"/>
</svg>
