<svg xmlns="http://www.w3.org/2000/svg" width="250" height="250" fill="none"><g clip-path="url(#a)"><path fill="#00297A" d="M71.414 124.81c0-12.953.02-25.916-.03-38.86 0-1.8 1.19-2.92 2.99-2.92 3.329-.02 6.678-.03 10.007 0 1.89.02 2.99 1.17 2.97 2.94-.05 11.463-.03 22.946-.03 34.409v.63c.02 1.27.58 2.201 1.749 2.701 1.13.48 2.19.23 3.11-.75a3506.94 3506.94 0 0 0 10.047-10.823c2.049-2.221 4.129-4.411 6.158-6.642.77-.84 1.66-1.24 2.81-1.22 4.189.03 8.398.03 12.587 0 1.239 0 2.219.38 2.739 1.53.53 1.191.28 2.251-.61 3.221-6.288 6.962-12.557 13.934-18.835 20.895-.5.56-.99 1.14-1.38 1.781-.7 1.13-.7 2.24-.05 3.39.7 1.241 1.69 2.241 2.669 3.251 7.608 7.822 15.237 15.644 22.865 23.446.92.95 1.19 1.99.73 3.211-.44 1.14-1.31 1.66-2.74 1.66-4.659 0-9.327-.02-13.986 0-1.05 0-1.86-.33-2.61-1.13-6.768-7.112-13.587-14.184-20.385-21.265-.97-1.021-2.05-1.281-3.169-.811-1.13.451-1.72 1.411-1.72 2.801v17.434c0 1.881-.95 2.851-2.809 2.861H74.254c-2.05 0-2.85-.81-2.85-2.831l.01-38.909Zm63.525-13.033c0-8.572.03-17.154-.03-25.726-.02-1.94 1.11-3.051 3.079-3.051 3.239.02 6.459 0 9.688 0 1.889 0 2.969 1.06 2.969 2.94.02 5.002.02 10.013.03 15.014 0 2.161 1.11 3.281 3.249 3.281h13.447c1.42 0 2.35.77 2.629 2.161.14.67.09 1.34.11 2.03v8.292c0 2.171-.969 3.141-3.139 3.141-4.299 0-8.598-.02-12.897-.02-2.199 0-3.329 1.11-3.349 3.281-.02 4.411-.09 8.802-.03 13.213.09 6.721 5.239 12.913 11.927 14.493 1.97.47 3.969.55 5.969.27 1.629-.23 2.809.64 2.999 2.281.41 3.491.78 6.991 1.14 10.482.14 1.331-.83 2.551-2.2 2.771-3.689.63-7.378.41-11.007-.41-12.957-2.901-22.475-13.263-24.334-26.396-.19-1.301-.25-2.601-.25-3.891v-24.156Zm115.042 40.96c0-1.191-.91-2.021-2.099-2.081-.81-.03-1.61-.06-2.42-.13-4.139-.31-6.268-2.25-7.018-6.331-.58-3.111-.56-6.272-.58-9.433-.03-9.072-.02-18.144-.02-27.216 0-.27 0-.52-.02-.78-.11-1.471-1.17-2.521-2.659-2.521-3.489-.02-6.989-.02-10.478 0-1.579 0-2.699 1.13-2.769 2.691-.02.38 0 .77 0 1.22-.3-.16-.53-.27-.75-.38-6.298-3.311-12.977-4.381-19.995-3.211-17.866 3.001-29.513 20.905-25.074 38.469 5.639 22.286 32.342 31.158 50.208 16.654.42-.34.59-.33.92.13 1.839 2.631 4.269 4.531 7.288 5.682 3.329 1.27 6.798 1.44 10.317 1.19 1.25-.09 2.49-.27 3.63-.84.809-.41 1.469-1.021 1.489-1.951.07-3.721.05-7.442.03-11.162Zm-43.469-1.611c-8.688-.03-15.597-7.101-15.567-15.964.03-8.382 7.129-15.343 15.647-15.323 8.738.02 15.636 7.041 15.616 15.924-.03 8.372-7.178 15.373-15.696 15.363ZM32.394 104.115c-16.596.03-31.013 12.853-31.383 30.667-.38 18.425 14.207 31.608 30.493 32.018 17.416.44 31.842-13.313 32.142-30.687.29-17.685-13.557-31.798-31.252-31.998Zm-.11 47.011c-8.568 0-15.597-7.041-15.617-15.644-.02-8.612 6.999-15.643 15.647-15.673 8.627-.02 15.616 6.991 15.616 15.653 0 8.663-6.989 15.664-15.646 15.664Z"/></g><defs><clipPath id="a"><path fill="#fff" d="M1 83h249v84H1z"/></clipPath></defs></svg>