<svg xmlns="http://www.w3.org/2000/svg" viewBox="0 0 87.3 78"><path fill="#0066da" d="m12.5161 61.79873 3.42585 5.91737c.71186 1.24576 1.73517 2.22458 2.93644 2.93644l12.23517-21.17796H6.64322c0 1.37923.35593 2.75847 1.0678 4.00423z" style="stroke-width:.889831" transform="translate(1.06846 4.34545) scale(.93618066)"/><path fill="#00ac47" d="M45.48432 24.55932 33.24915 3.38136c-1.20127.71186-2.22457 1.69067-2.93644 2.93644L7.71101 45.47034a8.06186 8.06186 0 0 0-1.06779 4.00424h24.47034Z" style="stroke-width:.889831" transform="translate(1.06846 4.34545) scale(.93618066)"/><path fill="#ea4335" d="M72.09025 70.65254c1.20128-.71186 2.22458-1.69068 2.93645-2.93644l1.42372-2.44703 6.8072-11.79026c.71187-1.24576 1.0678-2.625 1.0678-4.00423H59.85331l5.20728 10.23305z" style="stroke-width:.889831" transform="translate(1.06846 4.34545) scale(.93618066)"/><path fill="#00832d" d="M45.48432 24.55932 57.7195 3.38136c-1.20127-.71187-2.5805-1.0678-4.00424-1.0678H37.2534c-1.42373 0-2.80297.40042-4.00424 1.0678z" style="stroke-width:.889831" transform="translate(1.06846 4.34545) scale(.93618066)"/><path fill="#2684fc" d="M59.85509 49.47458H31.11356L18.87839 70.65254c1.20127.71187 2.5805 1.0678 4.00424 1.0678h45.20339c1.42373 0 2.80296-.40042 4.00423-1.0678z" style="stroke-width:.889831" transform="translate(1.06846 4.34545) scale(.93618066)"/><path fill="#ffba00" d="M71.95678 25.89407 60.65593 6.3178c-.71186-1.24577-1.73517-2.22458-2.93644-2.93644L45.48432 24.55932 59.8551 49.47458h24.42584c0-1.37924-.35593-2.75848-1.0678-4.00424z" style="stroke-width:.889831" transform="translate(1.06846 4.34545) scale(.93618066)"/></svg>