<svg xmlns="http://www.w3.org/2000/svg" viewBox="0 0 44 50" fill="none">
  <path fill="#000" d="M1.117,20.553l5.351,3.089c0.192,0.111,0.406,0.165,0.621,0.165c0.214,0,0.429-0.057,0.621-0.165l5.351-3.089 c0,0,0.015-0.012,0.022-0.017c0.081-0.049,0.158-0.108,0.227-0.175c0.01-0.01,0.02-0.022,0.03-0.032 c0.059-0.064,0.113-0.133,0.158-0.207c0.007-0.012,0.017-0.022,0.022-0.035c0.047-0.081,0.081-0.167,0.108-0.259 c0.005-0.02,0.01-0.039,0.015-0.059c0.022-0.094,0.039-0.19,0.039-0.291v-3.089c0-1.192,0.643-2.303,1.675-2.9s2.316-0.596,3.35,0 l2.675,1.545c0.086,0.049,0.177,0.084,0.271,0.111c0.02,0.005,0.04,0.012,0.059,0.017c0.091,0.022,0.185,0.035,0.278,0.037 c0.005,0,0.01,0,0.012,0c0.01,0,0.02-0.005,0.029-0.005c0.086,0,0.173-0.012,0.256-0.035c0.015-0.003,0.03-0.005,0.044-0.01 c0.091-0.025,0.18-0.062,0.264-0.108c0.007-0.005,0.017-0.005,0.025-0.01l5.351-3.089c0.384-0.222,0.621-0.631,0.621-1.074V4.69 c0-0.443-0.236-0.852-0.621-1.074l-5.356-3.087c-0.384-0.222-0.855-0.222-1.239,0l-5.351,3.089c0,0-0.015,0.012-0.022,0.017 c-0.081,0.049-0.158,0.108-0.227,0.175c-0.01,0.01-0.02,0.022-0.03,0.032c-0.059,0.064-0.113,0.133-0.158,0.207 c-0.007,0.012-0.017,0.022-0.022,0.034c-0.047,0.081-0.081,0.168-0.108,0.259c-0.005,0.02-0.01,0.039-0.015,0.059 c-0.022,0.094-0.039,0.19-0.039,0.291v3.089c0,1.192-0.643,2.303-1.675,2.902c-1.032,0.596-2.316,0.596-3.35,0L7.705,9.139 C7.618,9.09,7.527,9.055,7.434,9.028c-0.02-0.005-0.039-0.012-0.059-0.017C7.283,8.989,7.19,8.977,7.096,8.974 c-0.015,0-0.027,0-0.042,0c-0.089,0-0.175,0.012-0.259,0.034c-0.015,0.002-0.027,0.005-0.042,0.01 C6.663,9.043,6.574,9.08,6.49,9.127c-0.007,0.005-0.017,0.005-0.025,0.01l-5.348,3.092c-0.384,0.222-0.621,0.631-0.621,1.074v6.178 c0,0.444,0.236,0.852,0.621,1.074V20.553z"/>
  <path fill="#000" d="M30.262,22.097c1.032-0.596,2.316-0.596,3.35,0l2.675,1.545c0.086,0.049,0.177,0.084,0.271,0.111 c0.02,0.005,0.039,0.012,0.059,0.017c0.091,0.022,0.185,0.034,0.278,0.037c0.005,0,0.01,0,0.012,0c0.01,0,0.02-0.003,0.029-0.005 c0.086,0,0.173-0.012,0.256-0.034c0.015-0.003,0.03-0.005,0.044-0.01c0.091-0.025,0.177-0.062,0.264-0.108 c0.007-0.005,0.017-0.005,0.027-0.01l5.351-3.089c0.384-0.222,0.621-0.631,0.621-1.074v-6.179c0-0.443-0.237-0.852-0.621-1.074 L37.53,9.134c-0.384-0.222-0.855-0.222-1.239,0l-5.351,3.089c0,0-0.015,0.012-0.022,0.017c-0.081,0.049-0.158,0.108-0.227,0.175 c-0.01,0.01-0.02,0.022-0.029,0.032c-0.059,0.064-0.113,0.133-0.158,0.207c-0.007,0.012-0.017,0.022-0.022,0.035 c-0.047,0.081-0.081,0.168-0.108,0.259c-0.005,0.02-0.01,0.039-0.015,0.059c-0.022,0.094-0.039,0.19-0.039,0.291v3.089 c0,1.192-0.643,2.303-1.675,2.902c-1.032,0.596-2.316,0.596-3.35,0l-2.675-1.545c-0.086-0.049-0.177-0.084-0.271-0.111 c-0.02-0.005-0.039-0.012-0.059-0.017c-0.091-0.022-0.185-0.035-0.278-0.037c-0.015,0-0.027,0-0.042,0 c-0.089,0-0.175,0.012-0.259,0.035c-0.015,0.003-0.027,0.005-0.042,0.01c-0.091,0.025-0.18,0.062-0.264,0.108 c-0.007,0.005-0.017,0.005-0.025,0.01l-5.351,3.089c-0.384,0.222-0.621,0.631-0.621,1.074v6.179c0,0.443,0.236,0.852,0.621,1.074 l5.351,3.089c0,0,0.017,0.005,0.025,0.01c0.084,0.047,0.173,0.084,0.264,0.108c0.015,0.005,0.03,0.005,0.044,0.01 c0.084,0.02,0.17,0.032,0.256,0.035c0.01,0,0.02,0.005,0.03,0.005c0.005,0,0.01,0,0.012,0c0.094,0,0.185-0.015,0.278-0.037 c0.02-0.005,0.039-0.01,0.059-0.017c0.094-0.027,0.185-0.062,0.271-0.111l2.675-1.545c1.032-0.596,2.316-0.596,3.35,0 c1.032,0.596,1.675,1.707,1.675,2.9v3.089c0,0.101,0.015,0.197,0.039,0.291c0.005,0.02,0.01,0.039,0.015,0.059 c0.027,0.091,0.061,0.177,0.108,0.259c0.007,0.012,0.015,0.022,0.022,0.034c0.044,0.074,0.099,0.143,0.158,0.207 c0.01,0.01,0.02,0.022,0.029,0.032c0.067,0.066,0.143,0.123,0.227,0.175c0.007,0.005,0.012,0.012,0.022,0.017l5.351,3.089 c0.192,0.111,0.407,0.165,0.621,0.165c0.214,0,0.429-0.057,0.621-0.165l5.351-3.089c0.384-0.222,0.621-0.631,0.621-1.074v-6.179 c0-0.443-0.236-0.852-0.621-1.074l-5.351-3.089c0,0-0.017-0.005-0.025-0.01c-0.084-0.047-0.173-0.084-0.264-0.108 c-0.015-0.005-0.027-0.005-0.042-0.01c-0.086-0.02-0.172-0.032-0.261-0.035c-0.012,0-0.027,0-0.039,0 c-0.094,0-0.187,0.015-0.278,0.037c-0.02,0.005-0.037,0.01-0.057,0.017c-0.094,0.027-0.185,0.062-0.271,0.111l-2.675,1.545 c-1.032,0.596-2.316,0.596-3.348,0c-1.032-0.596-1.675-1.707-1.675-2.902c0-1.195,0.643-2.303,1.675-2.9H30.262z"/>
  <path fill="#000" d="M27.967,38.054l-5.351-3.089c0,0-0.017-0.005-0.025-0.01c-0.084-0.047-0.172-0.084-0.264-0.108 c-0.015-0.005-0.03-0.005-0.044-0.01c-0.086-0.02-0.172-0.032-0.259-0.035c-0.015,0-0.027,0-0.042,0 c-0.094,0-0.187,0.015-0.278,0.037c-0.02,0.005-0.037,0.01-0.057,0.017c-0.094,0.027-0.185,0.062-0.271,0.111l-2.675,1.545 c-1.032,0.596-2.316,0.596-3.348,0c-1.032-0.596-1.675-1.707-1.675-2.902V30.52c0-0.101-0.015-0.197-0.039-0.291 c-0.005-0.02-0.01-0.039-0.015-0.059c-0.027-0.091-0.062-0.177-0.108-0.259c-0.007-0.012-0.015-0.022-0.022-0.035 c-0.044-0.074-0.099-0.143-0.158-0.207c-0.01-0.01-0.02-0.022-0.03-0.032c-0.066-0.066-0.143-0.123-0.227-0.175 c-0.007-0.005-0.012-0.012-0.022-0.017l-5.351-3.089c-0.384-0.222-0.855-0.222-1.239,0l-5.351,3.089 c-0.384,0.222-0.621,0.631-0.621,1.074v6.179c0,0.443,0.236,0.852,0.621,1.074l5.351,3.089c0,0,0.017,0.007,0.025,0.01 c0.084,0.047,0.17,0.084,0.261,0.108c0.015,0.005,0.03,0.007,0.044,0.01c0.084,0.02,0.17,0.032,0.256,0.035 c0.01,0,0.02,0.005,0.032,0.005c0.005,0,0.01,0,0.015,0c0.094,0,0.185-0.015,0.276-0.037c0.02-0.005,0.039-0.01,0.059-0.017 c0.094-0.027,0.185-0.062,0.271-0.111l2.675-1.545c1.032-0.596,2.316-0.596,3.35,0c1.032,0.596,1.675,1.707,1.675,2.9v3.089 c0,0.101,0.015,0.197,0.039,0.291c0.005,0.02,0.01,0.039,0.015,0.059c0.027,0.091,0.062,0.177,0.108,0.259 c0.007,0.012,0.015,0.022,0.022,0.035c0.044,0.074,0.099,0.143,0.158,0.207c0.01,0.01,0.02,0.022,0.03,0.032 c0.067,0.067,0.143,0.123,0.227,0.175c0.007,0.005,0.012,0.012,0.022,0.017l5.351,3.089c0.192,0.111,0.406,0.165,0.621,0.165 s0.429-0.057,0.621-0.165l5.351-3.089c0.384-0.222,0.621-0.631,0.621-1.074V39.13c0-0.443-0.236-0.852-0.621-1.074L27.967,38.054z"/>
</svg>
