<svg xmlns="http://www.w3.org/2000/svg" width="250" height="250" fill="none"><path fill="#F6C81F" fill-rule="evenodd" d="M147.608 82.98c-2.117 2.652-5.715 6.981-6.427 7.735-2.774 2.936-3.952 4.99-3.382 5.892.256.404 8.778-3.357 11.608-5.124.212-.132.675-.368 1.028-.524.354-.156.816-.389 1.028-.518.213-.128.704-.36 1.093-.513.389-.153.707-.478.707-.721 0-.349-1.945-3.3-2.566-3.892-.074-.07-.473-.629-.886-1.24-.63-.931-1.392-1.627-1.737-1.587-.044.005-.254.227-.466.493Zm90.099 5.35c-3.908 1.069-4.986 7.91-1.586 10.063 3.946 2.498 8.912-.058 8.912-4.59 0-2.933-4.451-6.259-7.326-5.472Zm-56.065 2.45c-.292.327-2.541 4.657-4.998 9.622-2.458 4.964-4.55 9.085-4.65 9.157-.1.072-.261.445-.357.828-.095.382-.336.831-.534.996-.198.165-.361.43-.361.59-.002.305-4.68 9.778-5.088 10.304-.743.956-.538 1.408 1.518 3.345 1.116 1.051 2.029 2.095 2.029 2.319 0 .67-3.978 4.676-6.64 6.687-1.367 1.032-2.544 1.936-2.615 2.009-.07.072-.543.409-1.051.749-1.019.684-2.033 2.014-2.033 2.666 0 .231-.097.479-.214.553-.442.273-4.444 8.665-4.268 8.95.189.307.439.298 9.237-.33 4.201-.301 5.211-.657 5.261-1.857.008-.212.635-1.59 2.71-5.963.471-.993 1.343-2.85 1.938-4.126 1.007-2.162 1.724-3.691 4.64-9.884l1.132-2.405 1.285.12c4.518.424 6.383.999 6.7 2.07.091.306.376 1.021.633 1.589a159.204 159.204 0 0 1 1.894 4.384c.234.567.597 1.36.806 1.761.208.402.378 1.066.378 1.476 0 .41.224 1.242.497 1.849a182.262 182.262 0 0 1 1.817 4.197c.195.478.494 1.165 1.766 4.062.265.603.966 2.257 1.557 3.675.592 1.418 1.243 2.887 1.447 3.263.204.377.371.854.371 1.062 0 1.648 1.431 1.996 5.655 1.371a104.91 104.91 0 0 1 4.306-.54c1.891-.182 2.437-.704 1.633-1.559-.127-.134-.546-1.057-.931-2.05-.82-2.113-1.124-2.837-2.027-4.819-.367-.807-.667-1.581-.667-1.72s-.16-.582-.354-.983a52.468 52.468 0 0 1-1.711-3.954 55.49 55.49 0 0 0-1.044-2.478c-.27-.583-.49-1.182-.49-1.332 0-.151-.171-.603-.379-1.004-.409-.787-.758-1.604-1.803-4.211-.703-1.755-1.24-2.986-1.834-4.212-.195-.401-.354-.853-.354-1.004 0-.15-.217-.749-.483-1.332a80.709 80.709 0 0 1-1.064-2.478c-.319-.78-.726-1.767-.904-2.192-.178-.426-.581-1.412-.894-2.192a40.31 40.31 0 0 0-.771-1.824c-.11-.223-.517-1.209-.903-2.192-.997-2.534-1.628-4.002-2.061-4.792-.206-.377-.375-1.134-.375-1.684 0-.549-.149-1.227-.331-1.507-.182-.28-.602-1.205-.934-2.056a72.64 72.64 0 0 0-1.923-4.561c-.367-.808-.668-1.581-.668-1.72 0-.14-.159-.582-.354-.984-.505-1.04-1.745-4.008-2.386-5.71l-.225-.596-.531.596Zm25.86 2.82c-1.484.12-3.104.329-3.598.464-.495.136-1.878.379-3.074.54-1.196.16-2.356.39-2.579.509-.222.12-1.211.33-2.197.467-2.342.325-3.829.938-3.617 1.49.086.226.225.894.307 1.484.082.591.298 1.48.48 1.976.181.497.414 1.483.516 2.192.102.71.276 1.406.387 1.548.11.142.327.996.482 1.898.436 2.541.906 2.866 2.25 1.559 1.281-1.245 2.411-.133 2.416 2.378.001.373.162 1.069.359 1.547.196.479.441 1.508.543 2.288.103.78.26 1.535.35 1.677.15.236.42 1.381 1.43 6.06.199.922.495 2.198.657 2.837.57 2.239 1.275 5.322 1.828 7.994.486 2.347 1.59 5.758 2.546 7.865.129.284.408.953.62 1.487.613 1.543.764 1.516 4.924-.856 2.212-1.262 2.316-1.467 1.809-3.557a37.407 37.407 0 0 1-.651-3.679c-.122-1.048-.3-2.099-.397-2.335-.16-.395-.392-1.821-1.225-7.533l-.296-2.031 1.014-.885c.558-.486 1.13-.965 1.271-1.063 1.066-.739 2.357-1.722 2.571-1.958.141-.156 1.067-.936 2.056-1.735 2.205-1.779 5.695-5.205 6.689-6.567a385.3 385.3 0 0 1 1.697-2.297c1.708-2.293 2.439-4.729 1.8-5.999a33.59 33.59 0 0 1-.64-1.417c-2.211-5.178-9.102-7.288-20.728-6.348ZM97.481 99.253a31.51 31.51 0 0 0-2.185.626l-2.442.794c-.636.207-1.33.376-1.542.376-.212 0-.683.156-1.046.346-.363.19-.999.425-1.414.522-4.59 1.077-5.254 1.584-4.845 3.709.232 1.206.248 1.221 1.135 1.13a34.89 34.89 0 0 1 1.928-.129l1.028-.036.309 1.547c.17.851.43 3.578.576 6.06.325 5.46.73 8.209 1.312 8.897 1.39 1.644 2.392 3.384 3.687 6.402 1.419 3.304.944 11.056-.899 14.667-.267.524-.486 1.119-.486 1.322 0 .203-.174.513-.386.69-.654.545-.254 7.462.475 8.193.468.471 8.094-.436 8.864-1.054.277-.222.326-2.028.257-9.365-.057-6.112.004-9.18.185-9.364.19-.192 5.622 2.412 18.246 8.746 9.887 4.96 18.068 8.926 18.18 8.813.113-.113.173-2.272.135-4.8-.082-5.293.242-4.741-3.259-5.553-1.33-.308-2.602-.654-2.828-.767a225.43 225.43 0 0 0-1.824-.897c-3.627-1.769-6.546-4.355-8.612-7.624-.544-.861-.953-1.106-4.151-2.484-.446-.191-.891-.349-.99-.349-.099 0-.544-.164-.99-.365-1.972-.891-3.336-1.44-3.577-1.44-.144 0-.736-.221-1.317-.491a61.406 61.406 0 0 0-2.342-1.012c-.707-.287-1.317-.675-1.356-.863-.092-.448.472-1.074 9.582-10.614 2.686-2.814 4.918-5.317 4.961-5.564.103-.612-9.71-10.081-10.447-10.081-.149 0-.595.435-.992.967-.396.532-.806 1.006-.912 1.053-.107.048-.193.214-.193.371 0 .156-.217.523-.481.816-.477.528-1.483 1.945-3.488 4.916-.574.851-1.16 1.684-1.301 1.849-.141.166-1.006 1.362-1.922 2.658-1.893 2.68-2.32 2.69-2.32.053 0-.771-.172-3.272-.382-5.56-.21-2.286-.412-4.845-.45-5.684-.073-1.663-.148-1.734-1.481-1.427Zm-66.497 1.81c-1.157.112-2.313.317-2.57.455-.257.138-1.046.328-1.753.422-.707.094-1.69.32-2.185.502a88.41 88.41 0 0 1-2.699.905c-5.664 1.807-14.043 5.869-14.394 6.979-.174.551.133 1.388.95 2.583.339.496.703 1.077.808 1.289.106.213.475.851.818 1.419.344.567.77 1.321.947 1.676.177.354.39.703.473.774.083.07.722 1.141 1.419 2.378 1.46 2.59 1.334 2.546 3.855 1.361 2.58-1.212 3.089-1.192 3.483.129.17.567.406 1.031.525 1.031s.216.138.216.306c0 .167.239.835.53 1.483a795.038 795.038 0 0 1 2.946 6.592 322.782 322.782 0 0 0 2.131 4.771c.42.922 1.015 2.257 1.322 2.966.307.709.775 1.754 1.04 2.321.265.567.72 1.583 1.012 2.256a402.608 402.608 0 0 0 1.957 4.449 729.364 729.364 0 0 1 2.6 5.802c.218.497.608 1.367.867 1.934.26.568.698 1.554.974 2.192a266.164 266.164 0 0 0 2.587 5.727c.44.952.8 1.804.8 1.895 0 .09.235.496.523.901.521.735.68.755 1.919.245.282-.116 1.555-.521 2.827-.898 1.273-.378 2.56-.806 2.859-.952.3-.145.936-.345 1.414-.445 1.126-.234 1.065-1.763-.237-5.973-.524-1.696-1.114-3.988-1.335-5.189-.122-.664-.342-1.432-.489-1.707-.146-.275-.38-1.124-.52-1.887-.35-1.895-1.044-4.654-1.294-5.136-.113-.219-.292-.913-.399-1.544a15.178 15.178 0 0 0-.523-2.086c-.328-.933-.325-.942.688-1.679 3.438-2.506 4.52-3.406 6.472-5.388 1.197-1.214 2.507-2.696 2.912-3.293.404-.598.88-1.24 1.056-1.428.177-.187.321-.439.321-.561 0-.122.145-.375.322-.562 2.613-2.771 4.244-11.403 2.843-15.04-3.675-9.541-12.824-13.45-28.018-11.975Zm109.554 2.786c-4.441.648-9.017 2.994-12.139 6.223-3.507 3.628-5.478 10.847-4.048 14.828.204.568.376 1.264.382 1.548.023.993 1.958 4.386 3.267 5.73 1.073 1.1 3.417 2.909 3.77 2.909.171 0 .444.133.605.295.412.413 2.797 1.275 4.179 1.509 4.03.683 4.819.744 6.426.495.919-.142 2.365-.364 3.214-.492.848-.128 2.005-.408 2.57-.622.566-.214 1.221-.394 1.458-.4.236-.006.756-.171 1.157-.367.399-.196 1.768-.862 3.041-1.481 1.272-.619 2.371-1.185 2.442-1.258.07-.072.649-.479 1.285-.903.636-.426 1.792-1.392 2.568-2.149l1.412-1.376-.906-.816c-2.791-2.514-5.805-5.257-6.201-5.642-.428-.418-.524-.377-1.812.783-2.126 1.916-3.848 2.921-5.816 3.398-3.471.839-4.503.821-3.988-.073.422-.732 6.023-6.8 12.548-13.595 2.147-2.234 2.201-2.476.845-3.783-1.963-1.896-3.94-3.059-7.355-4.329-1.269-.472-6.794-.74-8.904-.432Zm76.965 1.472.787.663-.522 1.027c-.91 1.788-6.573 7.12-7.275 6.849-.456-.175-1.37-4.759-1.426-7.154-.047-1.981 6.464-3.051 8.436-1.385Zm23.546-.008c-1.283.42-2.881.829-4.912 1.257-.863.182-1.692.408-1.843.501-.151.093-.891.285-1.644.426-2.669.497-2.944.813-4.282 4.914-.483 1.479-.442 1.529 1.25 1.529 2.138 0 2.102-.263 1.036 7.543-.647 4.735-.829 6.173-1.168 9.22-.197 1.773-.472 3.862-.61 4.642-.617 3.469-.607 5.91.025 6.03 3.523.665 10.445 1.082 10.571.637.303-1.073.735-4.664.933-7.763.126-1.951.297-3.658.381-3.796.085-.136.32-2.138.524-4.448.464-5.253.831-8.984 1.162-11.807 1.102-9.394 1.054-9.695-1.423-8.885Zm-58.886 4.649c.223.222.403.716.401 1.096-.002.38.219 1.445.491 2.367 1.852 6.275 1.895 6.191-2.768 5.399-2.368-.402-2.589-.604-1.985-1.819.225-.452.41-.952.41-1.109 0-.158.231-.72.514-1.249.283-.529.514-1.091.514-1.247 0-.157.166-.65.369-1.097.204-.447.545-1.248.759-1.78.426-1.061.685-1.173 1.295-.561Zm-38.038.918c1.546.509 3.74 2.011 3.74 2.561 0 .221-2.438 3.25-3.321 4.126-.224.223-.985 1.078-1.692 1.902-.707.824-1.517 1.749-1.799 2.058-.283.309-1.151 1.298-1.928 2.199-2.752 3.185-2.692 3.155-3.926 2.013-6.774-6.272.126-17.758 8.926-14.859Zm-98.711 4.372c.134.13.43.236.656.236 3.804 0 6.145 7.314 3.823 11.94-1.066 2.121-6.097 6.885-7.272 6.885-.435 0-2.464-5.427-2.464-6.589 0-.291-.107-.639-.237-.773-.13-.135-.413-.884-.63-1.664-.215-.78-.636-2.23-.934-3.223-.297-.993-.66-2.27-.806-2.837-.146-.567-.381-1.277-.524-1.576-.539-1.13.74-1.959 4.288-2.781.758-.176 3.816.11 4.1.382Zm27.783 6.715c-.986.263-2.16.654-2.61.868-.45.214-.895.389-.991.389-1.942 0-8.606 6.505-9.045 8.83-.087.462-.248.957-.356 1.099-1.23 1.604-1.998 9.66-1.098 11.5.167.341.436 1.055.598 1.587.163.532.402.967.532.967s.238.274.238.61c0 1.816 3.907 4.836 7.724 5.968 3.068.91 10.001-.192 11.766-1.871.187-.178.452-.323.59-.323.136 0 .876-.464 1.642-1.032 6.414-4.753 9.594-12.622 7.85-19.426-.636-2.486-3.49-6.559-4.913-7.012-.273-.087-.496-.246-.496-.353 0-.298-2.308-1.278-4.34-1.842-2.234-.621-4.663-.607-7.091.041Zm3.077 3.321c.088.142-.146.374-.518.516-2.314.883-3.266 4.266-1.75 6.218 2.469 3.178 7.787 2.178 8.598-1.617l.277-1.293.68.989c.743 1.078.986 4.005.395 4.754-.157.198-.356.651-.442 1.005-.513 2.1-4.58 4.642-7.428 4.642-7.757.001-11.464-9.826-5.236-13.881 2.087-1.358 4.972-2.067 5.424-1.333Z" clip-rule="evenodd"/><path fill="#3360A7" fill-rule="evenodd" d="M147.701 77c-.726.814-1.898 2.178-2.604 3.029a91.795 91.795 0 0 1-2.021 2.36 145.78 145.78 0 0 0-2.022 2.31c-.707.823-1.806 2.092-2.443 2.821-.636.73-1.637 1.895-2.224 2.59a81.835 81.835 0 0 1-1.671 1.924c-1.583 1.729-3.196 3.686-3.406 4.133-.128.272-.343.495-.48.495-.21 0 1.388 2.186 1.886 2.579.844.668.743 2.063-.149 2.063-.18 0-.394.174-.475.387-.081.213-.322.387-.534.387-.481 0-5.028 3.053-5.028 3.375 0 .561-1.052.151-2.21-.861a280.117 280.117 0 0 0-2.013-1.741 55.798 55.798 0 0 1-1.905-1.741 66.986 66.986 0 0 0-2.436-2.192 137.676 137.676 0 0 1-6.384-5.758c-1.365-1.302-1.851-1.406-2.325-.499-.185.353-1.127 2.18-2.093 4.062-3.154 6.138-3.611 6.116-3.365-.161l.171-4.356-.609.148c-2.403.58-3.016.76-3.733 1.094-.445.207-1.085.378-1.42.378-.337 0-.846.164-1.132.365-.286.201-.977.45-1.535.553-.558.102-1.243.344-1.522.537-.28.192-.8.35-1.157.351-.357.001-.997.184-1.42.406-.425.223-1.235.504-1.8.627-1.198.258-3.414.97-4.017 1.288-.23.122-.867.302-1.414.4-.548.1-1.285.333-1.638.52-.354.185-1.06.404-1.572.487-1.572.252-1.851.803-1.667 3.284.087 1.178.228 3.882.313 6.01.09 2.258.268 3.939.426 4.038.335.211 2.026-.028 2.358-.332.373-.343 1.329-.268 1.656.129.885 1.069.573 7.381-.327 6.635-.159-.13-.75-.318-1.316-.417a18.29 18.29 0 0 1-2.13-.539c-1.43-.467-5.617-.468-7.05-.001a16.18 16.18 0 0 1-2.173.516c-.59.086-1.399.32-1.8.521a87.96 87.96 0 0 1-2.191 1.033c-.805.367-1.535.784-1.622.925-.087.141-.477.257-.865.257h-.706l-.002-3.933c-.002-3.199-.083-4.077-.434-4.706-.238-.426-.432-1.008-.434-1.295 0-.537-1.593-3.89-2.382-5.016-.245-.351-.447-.799-.447-.996 0-.365-3.64-4.169-3.989-4.169-.105 0-.725-.379-1.378-.843-.654-.462-1.477-.984-1.83-1.158a18.496 18.496 0 0 1-1.029-.546c-.898-.533-2.786-1.321-3.168-1.321-.227 0-.793-.165-1.257-.365-.464-.2-1.827-.489-3.03-.64-6.746-.847-6.904-.857-9.688-.582-4.392.433-7.055.816-8.305 1.194-.636.192-1.672.422-2.301.511-.63.09-1.265.26-1.414.379-.148.12-.79.335-1.427.48-1.642.374-4.16 1.294-6.583 2.406-.58.267-1.246.485-1.478.485-.232 0-.421.108-.421.241 0 .132-.26.317-.579.412-.557.167-2.74 1.199-3.534 1.673a427.7 427.7 0 0 1-2.525 1.466c-2.86 1.653-2.795 1.613-4.461 2.732l-1.46.979.432.826c.236.454.496.884.576.955.142.126 1.458 2.325 2.367 3.953.25.45.685 1.166.965 1.591.28.426.685 1.122.901 1.548.216.425.62 1.121.896 1.547.277.425.65 1.064.828 1.418.178.355.7 1.223 1.16 1.929.459.706.835 1.367.835 1.47 0 .102.375.743.834 1.424.97 1.441 1.645 2.599 1.884 3.236.227.605.314.589 2.5-.451 1.042-.497 2.028-.903 2.19-.903.374 0 1.51 1.783 1.75 2.749.1.4.337.882.524 1.071.189.189.343.515.343.725 0 .327.522 1.477 1.331 2.934.118.213.279.561.358.774.079.212.298.735.488 1.16l.859 1.934c.283.638.599 1.446.702 1.793.102.348.344.792.538.986.193.194.351.53.351.746 0 .216.173.701.384 1.077.211.377.5.975.642 1.329.142.355.36.819.487 1.032.125.213.486 1.025.8 1.805.316.78.676 1.593.803 1.805.126.213.293.561.372.774.08.213.299.735.488 1.16.19.426.595 1.354.9 2.064a198.81 198.81 0 0 0 1.894 4.255c.228.496.532 1.192.677 1.547.145.354.366.819.491 1.031.206.351.718 1.481 1.724 3.804l.727 1.676c1.273 2.938 1.76 4.012 2.09 4.618.206.376.374.806.374.955 0 .62 1.201 2.038 1.562 1.845.202-.107.823-.277 1.381-.379.558-.1 1.249-.347 1.536-.548.286-.201.87-.37 1.298-.374.428-.005.991-.17 1.252-.368.26-.198.935-.438 1.499-.534.564-.096 1.334-.335 1.711-.533.378-.197.917-.36 1.2-.362.283-.002.825-.166 1.204-.364.379-.199 1.073-.437 1.542-.531.47-.093 1.2-.331 1.624-.528.424-.197 1.204-.427 1.732-.511 1.511-.238 1.895-2.393.8-4.495-.189-.364-.345-1.011-.347-1.436-.002-.426-.16-1.076-.352-1.445-.192-.37-.434-1.238-.537-1.931-.104-.693-.351-1.575-.55-1.959-.198-.385-.36-1.05-.36-1.477 0-.427-.232-1.366-.514-2.085-.283-.72-.514-1.688-.514-2.151 0-.462-.115-.956-.257-1.098-.14-.141-.382-.945-.538-1.787-.155-.842-.43-1.822-.61-2.18-.182-.357-.41-1.409-.506-2.338l-.175-1.689 1.34-1.148c.738-.631 1.548-1.366 1.8-1.632.876-.925 1.258-.374 1.27 1.829.006 1.104.179 2.471.382 3.039.204.567.373 1.326.374 1.686.002.36.236 1.11.518 1.666.283.557.514 1.134.514 1.282 0 .483 2.144 3.586 3.392 4.907 2.078 2.203 2.375 2.464 2.97 2.616.319.082.58.247.58.368s.457.344 1.016.495c.56.151 1.081.377 1.159.503.077.126.631.309 1.231.407.6.098 1.723.34 2.495.538 1.654.424 3.841.456 5.28.077a39.438 39.438 0 0 1 2.442-.527c1.448-.263 1.913-.437 4.37-1.631 2.476-1.202 3.156-1.628 4.46-2.795 2.202-1.968 2.738-1.485 2.738 2.466 0 3.926-.01 3.914 3.015 3.702 1.345-.096 2.668-.293 2.94-.439.273-.147 1.696-.363 3.162-.481 1.467-.118 2.81-.303 2.985-.411.174-.109 1.485-.324 2.912-.48l2.594-.281.069-7.644c.075-8.508.057-8.423 1.674-7.865.521.18 1.02.4 1.11.49.089.09 1.625.873 3.411 1.74s3.421 1.686 3.633 1.82c.212.134.675.372 1.028.528.354.156.817.388 1.029.515.212.128.559.299.771.381.65.25 1.394.606 1.799.861.212.133 2.699 1.378 5.527 2.764 2.828 1.388 5.18 2.614 5.227 2.725.047.112.233.203.412.203.18 0 1.241.464 2.357 1.03 1.116.567 2.164 1.031 2.329 1.032.165.001.339.097.386.215.094.236 2.864 1.591 3.251 1.591.133 0 .386.174.562.387.176.213.523.387.771.387s.595.174.771.387c.967 1.169 1.029.699 1.032-7.93.002-4.574.092-8.455.2-8.625.218-.344 1.616-.74 4.295-1.215.99-.176 2.052-.455 2.361-.623.733-.397 1.492-.386 1.832.024.245.297-3.356 8.148-4.251 9.269-.146.183-.35.622-.455.977-.105.354-.36.838-.566 1.074-.543.621-.341 1.649.308 1.574.283-.033 4.216-.179 8.74-.324 12.028-.387 13.945-.728 14.001-2.491.005-.163.403-1.091.884-2.064a93.941 93.941 0 0 0 1.445-3.056c.314-.709 1.177-2.566 1.919-4.126 2.108-4.437 2.444-5.178 2.444-5.387 0-.107.174-.369.386-.581.212-.213.385-.597.385-.853s.174-.61.386-.787c.212-.176.386-.51.387-.741.001-.23.232-.767.513-1.193.28-.425.515-.948.521-1.16.06-2.299 3.336-2.043 4.092.318.169.53.402 1.022.517 1.094.116.071.283.525.374 1.009.091.484.335 1.021.544 1.195.208.173.378.53.378.793s.231.858.514 1.322c.282.465.513 1.034.514 1.264 0 .231.174.564.386.741.212.177.386.568.387.87.001.302.232.897.513 1.322.28.426.511 1.021.512 1.322.001.302.175.693.387.87.212.177.386.482.386.677 0 .196.231.79.514 1.319.283.529.514 1.268.514 1.642 0 .713.508 2.032 2.286 5.932.298.654.542 1.379.542 1.612 0 .233.114.423.252.423.139 0 .33.319.425.709.095.39.386 1.113.647 1.608.262.494.475 1.09.475 1.322 0 .233.174.568.386.745.212.177.387.452.389.612.011.731.4.931 1.295.665.487-.145 2.622-.376 4.742-.514 2.121-.138 4.377-.379 5.013-.537.636-.157 2.66-.36 4.498-.45l3.342-.163.079-.683c.043-.376-.159-1.128-.45-1.672-.291-.544-.528-1.1-.528-1.235 0-.258-.817-2.129-1.434-3.284-.201-.376-.366-.845-.366-1.041 0-.197-.231-.812-.514-1.369-.828-1.628-.179-3.439 1.245-3.473.189-.004.639-.24.998-.524.36-.284.812-.516 1.005-.516.193 0 .351-.104.351-.232s.318-.365.707-.526c.389-.162 1.169-.572 1.735-.913a46.832 46.832 0 0 1 1.671-.964c.479-.257.635-.539.613-1.111-.037-.958-1.06-7.481-1.656-10.566-.467-2.41-.999-6.832-.861-7.156.179-.425 5.906-4.892 6.99-5.453 2.747-1.421 4.754-.313 4.365 2.408-.113.788-.328 2.651-.477 4.141-.149 1.489-.427 3.462-.617 4.384-.19.922-.412 2.72-.492 3.997-.08 1.276-.319 3.133-.531 4.126-.212.993-.387 2.56-.389 3.483-.003.923-.112 2.053-.243 2.511-.154.539-.147.889.02.993.679.421 3.514.842 6.773 1.007 1.98.101 4.525.345 5.656.542 5.457.955 5.499.924 5.787-4.281.114-2.057.322-4.036.462-4.398.14-.362.331-2.103.424-3.868.092-1.766.33-4.138.526-5.273.196-1.135.424-3.412.507-5.06.083-1.649.266-3.389.406-3.868.141-.479.315-2.206.389-3.837.072-1.631.306-3.952.517-5.158.672-3.822.842-9.2.307-9.66-.448-.385.095-1.877.854-2.347.127-.08.232-.34.233-.58.001-.24.175-.769.385-1.175.419-.804.535-3.908.156-4.143-.125-.078-.301-.43-.389-.782-.353-1.414-2.896-4.301-4.127-4.685-.289-.09-.59-.265-.669-.388-.315-.49-4.365-1.312-5.081-1.03-.378.149-1.122.346-1.653.439-1.311.228-3.78 2.61-4.528 4.365-.575 1.352-.882 2.435-1.042 3.676-.264 2.046-.517 2.118-2.103.601-.754-.72-1.519-1.311-1.7-1.311-.181 0-.329-.097-.329-.214 0-.18-2.832-1.591-3.192-1.591-.064 0-.442-.138-.84-.305-.678-.285-3.283-.69-7.793-1.212-1.06-.123-2.853-.132-3.984-.02-6.891.683-8.05.822-8.8 1.053-.458.14-1.788.417-2.956.613-3.545.597-5.149.913-6.496 1.279-3.628.988-5.08.942-5.393-.168a12.934 12.934 0 0 0-.51-1.37 92.523 92.523 0 0 1-.913-2.191 72.798 72.798 0 0 0-1.055-2.478c-.266-.583-.483-1.25-.483-1.483 0-.233-.101-.423-.224-.423-.122 0-.361-.494-.53-1.098-.168-.604-.511-1.37-.761-1.702l-.454-.604-1.213 2.411c-.668 1.326-1.324 2.585-1.459 2.798a7.844 7.844 0 0 0-.5 1.032 9.2 9.2 0 0 1-.485 1.031c-.126.213-.546 1.057-.934 1.876-.388.818-.796 1.544-.908 1.614-.113.07-.28.473-.373.897-.093.424-.266.77-.385.77s-.29.341-.382.756c-.091.416-.331.895-.534 1.063-.203.17-.369.51-.369.757s-.232.745-.514 1.105c-.283.361-.514.834-.514 1.051 0 .218-.101.459-.225.535-.123.076-.536.809-.916 1.627-.38.819-.8 1.662-.934 1.875a9.97 9.97 0 0 0-.526 1.031 14.25 14.25 0 0 1-.501 1.032c-.121.213-.517 1.025-.882 1.805s-.767 1.592-.894 1.805c-.127.213-.535 1.025-.906 1.805-.372.78-.777 1.593-.9 1.806-.123.212-.528 1.025-.9 1.805-.371.78-.784 1.592-.917 1.805a9.775 9.775 0 0 0-.526 1.031c-.156.355-.381.819-.5 1.032-.12.213-.58 1.112-1.023 1.999-1.011 2.027-1.471 2.08-3.295.379-1.798-1.675-1.761-1.8 1.539-5.159 2.075-2.111 2.859-3.083 2.859-3.542 0-1.555-6.323-8.055-8.514-8.752-.301-.096-.548-.283-.548-.415 0-.133-.149-.241-.331-.241-.182 0-.785-.232-1.34-.516-.554-.283-1.186-.516-1.404-.517-.217-.001-.742-.187-1.166-.413-.43-.23-1.7-.473-2.869-.55-2.625-.171-2.893-.314-2.301-1.22.244-.374.64-.74.879-.813.239-.074.608-.244.821-.379.212-.134.732-.42 1.156-.636a35.581 35.581 0 0 0 1.8-1.014c.565-.343 1.201-.694 1.414-.782a7.32 7.32 0 0 0 .771-.388 69.118 69.118 0 0 1 1.928-1.026c3.07-1.591 4.625-2.525 4.564-2.743-.112-.396-1.708-2.797-1.918-2.885-.112-.048-.204-.233-.204-.412 0-.179-.232-.535-.514-.792-.283-.257-.515-.562-.515-.677 0-.115-.867-1.486-1.927-3.046-1.061-1.56-1.928-2.898-1.928-2.973 0-.076-.203-.354-.45-.618-.248-.264-.849-1.134-1.336-1.934-1.076-1.766-.889-1.769-2.492.03Zm1.616 5.326c.443.485 1.234 1.53 1.758 2.321.524.793 1.058 1.442 1.186 1.442.128 0 .232.156.232.347 0 .19.231.557.514.813.283.257.514.669.514.915 0 .247.173.515.386.597.674.26.459 1.169-.322 1.357-.389.093-.914.385-1.167.649-.252.264-.732.48-1.065.48-.333 0-.666.159-.74.354-.075.194-.448.432-.83.528-.381.096-.862.343-1.067.549-.205.206-.642.374-.97.374-.328 0-.663.174-.745.387-.081.212-.367.387-.635.387s-.782.232-1.141.515c-.36.284-.899.516-1.2.516-.3 0-.611.17-.691.38-.08.209-.531.452-1.002.54-.471.09-.919.325-.996.523-.076.2-.413.362-.748.362-.336 0-.821.232-1.077.516-.586.65-1.88.69-2.109.064-.091-.248-.319-.544-.506-.657-.773-.468-.147-1.947 1.519-3.59.391-.384.711-.777.711-.87 0-.096.404-.556.899-1.024.495-.468.9-.93.9-1.026 0-.26 2.869-3.728 4.049-4.892.318-.314.578-.645.578-.735 0-.09.203-.39.45-.664.247-.275.797-.91 1.221-1.413.956-1.132 1.096-1.135 2.094-.044Zm92.275 5.974c.157.202.477.368.711.368 1.487 0 3.841 4.228 3.239 5.817a4.813 4.813 0 0 0-.251 1.42c0 .417-.118.757-.263.757-.145 0-.378.303-.518.673-.274.72-1.522 2.164-1.871 2.164-.117 0-.386.174-.598.387-.267.268-.923.387-2.135.387-1.242 0-1.843-.113-2.07-.387-.176-.213-.651-.387-1.057-.387-.459 0-.859-.195-1.059-.516-.177-.284-.438-.522-.58-.53-.471-.026-1.332-1.386-1.544-2.436-.38-1.892-.06-4.973.542-5.204.196-.076.357-.29.357-.477 0-.546 2.046-2.402 2.789-2.529 1.234-.21 4.008.107 4.308.493Zm-58.766 1.753c0 .164.231.732.514 1.26.283.53.514 1.182.514 1.449 0 .266.173.629.385.806.213.176.386.581.386.899 0 .318.231.874.514 1.234.283.361.514 1.003.514 1.425 0 .434.163.833.372.913.204.079.448.552.541 1.05.093.499.331 1.042.528 1.206.197.165.359.586.359.936 0 .35.231.931.514 1.292.283.361.514.892.514 1.181 0 .289.177.721.393.962.217.239.467 1.06.557 1.822.09.763.319 1.541.507 1.73.188.189.342.671.342 1.071 0 .401.158.788.349.862.192.075.423.594.513 1.155.089.561.336 1.166.55 1.343.213.178.388.645.388 1.037 0 .394.167.779.371.858.205.078.453.581.554 1.117.1.536.338 1.13.528 1.322.191.191.346.611.346.933 0 .323.232.855.514 1.182.283.327.514.925.514 1.329 0 .404.114.734.254.734.139 0 .383.519.543 1.153.158.634.45 1.286.646 1.45.196.163.357.635.357 1.047 0 .429.165.814.385.899.214.082.386.465.386.86 0 .391.231 1.006.514 1.366.283.361.514.957.514 1.325 0 .367.232.9.514 1.184.283.284.515.792.515 1.129 0 .337.173.757.385.934.212.177.386.581.386.899 0 .318.231.874.514 1.234.283.361.514.943.514 1.293s.173.781.386.958c.212.177.386.568.387.87.001.301.231.896.512 1.322.281.425.512 1.08.512 1.455.002.375.176.749.388.83.212.082.386.427.386.767s.231.913.514 1.273c.282.361.514 1.003.514 1.426 0 .433.162.832.371.913.205.078.448.551.541 1.05.093.498.331 1.041.529 1.205.197.165.358.586.358.936 0 .35.232.932.514 1.293.283.36.514.975.514 1.366 0 .395.172.778.386.86.212.082.386.42.386.752s.164.829.365 1.105c.485.662-.127 1.402-1.161 1.402-.394 0-.784.11-.866.243-.201.327-1.608.482-6.094.671-4.098.173-4.84-.049-4.84-1.448 0-.293-.174-.708-.386-.921-.212-.212-.386-.639-.387-.949-.001-.309-.232-.909-.513-1.335-.28-.425-.511-1.022-.512-1.326-.001-.304-.175-.62-.387-.701-.212-.082-.386-.453-.386-.825 0-.373-.231-.972-.514-1.333-.283-.36-.514-.916-.514-1.234 0-.318-.161-.712-.359-.876-.197-.165-.432-.69-.521-1.167-.089-.477-.332-1.009-.541-1.183-.208-.173-.379-.637-.379-1.029 0-.394-.171-.781-.381-.862-.209-.08-.454-.608-.544-1.172-.09-.564-.323-1.087-.519-1.162-.235-.09-.355-.564-.355-1.402 0-.801-.139-1.383-.379-1.582-.208-.173-.451-.706-.541-1.183-.089-.477-.323-1.002-.521-1.166-.197-.165-.358-.559-.358-.877 0-.318-.232-.874-.515-1.234-.282-.361-.514-.944-.514-1.296 0-.353-.173-.708-.385-.79-.212-.081-.386-.426-.386-.767 0-.57-.791-1.864-1.396-2.285-.142-.098-1.014-.245-1.937-.327-.924-.081-2.287-.205-3.029-.274-1.164-.109-1.35-.064-1.352.327 0 .249-.231.802-.512 1.227-.281.426-.511.963-.512 1.194-.001.23-.175.564-.387.74-.212.177-.386.524-.386.771s-.231.744-.514 1.105c-.283.361-.514.884-.514 1.163 0 .28-.174.653-.386.83-.212.176-.385.539-.385.805s-.232.716-.515 1c-.282.283-.514.81-.514 1.169 0 .358-.17.718-.378.798-.208.08-.455.55-.547 1.044-.092.494-.327.96-.521 1.034-.194.075-.354.385-.355.689-.001.304-.231.901-.512 1.326-.281.426-.512.963-.512 1.193-.002.231-.176.564-.388.741-.212.177-.385.524-.385.771 0 .246-.232.744-.515 1.105-.282.361-.514.884-.514 1.163s-.173.653-.385.829a1.226 1.226 0 0 0-.386.827c0 .278-.393.888-.872 1.356l-.872.849-6.647.124c-7.234.133-8.376-.031-7.44-1.069.224-.248.408-.627.408-.842 0-.216.231-.66.514-.987.282-.327.514-.795.514-1.039 0-.245.173-.589.385-.766.212-.177.386-.523.386-.77s.231-.745.514-1.105c.283-.361.514-.827.514-1.035 0-.208.166-.518.369-.687.203-.169.442-.639.531-1.045.089-.406.328-.876.531-1.045.203-.169.369-.518.369-.775 0-.485 1.726-2.299 2.192-2.304.145-.001.459-.205.698-.453.896-.933 1.367-1.294 1.906-1.46.305-.095.619-.342.698-.548.08-.208.265-.378.413-.378.643 0 5.949-5.681 5.787-6.195-.089-.281-.251-.51-.362-.51-.11 0-.478-.245-.818-.544-.339-.299-.983-.85-1.428-1.225-.446-.374-.835-.913-.865-1.196-.132-1.251.041-2.156.519-2.708.282-.327.514-.813.514-1.079 0-.267.173-.551.385-.633.212-.082.386-.408.386-.726 0-.317.231-.787.514-1.043.283-.257.514-.725.514-1.04 0-.316.162-.708.361-.873.198-.165.435-.6.527-.966.091-.366.334-.834.539-1.039.205-.206.373-.584.373-.84s.165-.604.368-.773c.204-.169.446-.655.539-1.081.093-.425.332-.835.531-.912.198-.076.361-.37.361-.651s.231-.807.514-1.168c.283-.36.514-.858.514-1.105s.174-.594.386-.77c.212-.177.385-.521.385-.766 0-.244.232-.654.515-.911.282-.256.514-.726.514-1.043 0-.318.173-.644.385-.726a.647.647 0 0 0 .386-.557c0-.348.422-1.292 1.325-2.96.115-.213.373-.75.573-1.194.199-.443.491-.885.646-.982.156-.097.283-.411.283-.7 0-.288.232-.819.515-1.18.282-.36.514-.876.514-1.144 0-.27.173-.557.385-.638.212-.082.386-.408.386-.726 0-.317.231-.787.514-1.044.283-.256.518-.651.522-.878.026-1.187 2.306-2.392 2.306-1.218Zm34.549 2.9c.411.196 1.524.357 2.475.357 1.209 0 1.823.114 2.043.38.173.209.717.455 1.209.548.492.093.951.317 1.021.5.069.182.387.396.707.477.593.149 2.981 2.312 2.981 2.701 0 .118.231.482.514.81.283.326.514.794.514 1.038 0 .246.174.59.386.766.282.235.385.859.385 2.321 0 1.463-.103 2.087-.385 2.321-.212.177-.386.534-.386.793s-.151.564-.336.677c-.185.114-.725.816-1.2 1.56-.475.745-.96 1.354-1.077 1.354-.118 0-.214.13-.214.289 0 .375-5.765 6.158-6.14 6.158-.158 0-.287.174-.287.387 0 .213-.094.387-.21.387-.116 0-.665.409-1.221.91-.556.499-1.271.976-1.589 1.059-.318.083-.579.311-.579.509a.368.368 0 0 1-.376.359c-.207 0-.501.232-.652.516-.151.283-.387.515-.523.515s-.479.232-.762.516c-.283.284-.688.516-.9.516-.513 0-.508 1.75.008 2.434.246.326.378 1.111.378 2.248 0 1.138.179 2.201.514 3.054.34.868.514 1.917.514 3.114 0 1.087.141 2.031.355 2.375 1.073 1.726.665 5.77-.608 6.025-.426.085-.775.315-.775.51s-.216.355-.48.355c-.263 0-.756.203-1.095.451-2.642 1.935-3.973 2.009-4.466.248-.144-.515-.405-1.08-.581-1.256-.176-.176-.319-.598-.319-.937 0-.339-.231-.912-.514-1.273-.283-.36-.514-.975-.514-1.366 0-.392-.157-.772-.348-.846-.215-.082-.402-.727-.488-1.688-.077-.854-.326-1.818-.552-2.143-.255-.364-.412-1.123-.412-1.994 0-.886-.142-1.563-.385-1.832-.211-.235-.46-1.172-.552-2.083-.091-.912-.323-1.886-.514-2.166-.192-.279-.348-1.095-.348-1.812 0-.754-.166-1.541-.395-1.868-.217-.311-.464-1.323-.551-2.249-.086-.926-.314-1.814-.505-1.974-.204-.17-.348-.799-.348-1.52 0-.676-.229-1.735-.509-2.353-.279-.619-.511-1.662-.514-2.318-.004-.74-.152-1.315-.391-1.515-.212-.176-.386-.597-.386-.934 0-.337-.116-.613-.257-.613-.141 0-.257.174-.257.387 0 .213-.17.387-.377.387-.206 0-.5.232-.651.516-.701 1.314-2.031.352-2.233-1.616-.084-.812-.31-1.607-.502-1.767-.208-.172-.35-.803-.35-1.549 0-.767-.201-1.636-.514-2.222-.288-.538-.514-1.455-.514-2.08 0-.65-.161-1.28-.386-1.505-1.374-1.38-.014-2.979 2.673-3.141.934-.057 1.871-.25 2.083-.427.212-.179 1.215-.39 2.23-.47 1.014-.081 2.194-.329 2.622-.55.543-.282 1.504-.404 3.181-.404 1.556 0 2.515-.112 2.719-.317.693-.695 8.48-.728 9.916-.04ZM99.58 99.796c.46 2.168.698 5.289.723 9.502.024 3.769.066 4.167.368 3.482.189-.426.647-1.099 1.018-1.496.373-.398.677-.776.677-.841 0-.177 1.796-2.743 2.347-3.353.264-.293.481-.641.482-.774.001-.133.406-.683.9-1.222.494-.541.898-1.132.898-1.314 0-.183.232-.543.514-.8.283-.256.514-.61.514-.786 0-.176.174-.386.386-.468.212-.081.386-.297.386-.481 0-.183.231-.477.514-.655.283-.177.514-.459.514-.628 0-.355 1.276-1.752 1.601-1.752.284 0 .593.264 2.933 2.514 1.07 1.028 2.049 1.87 2.176 1.87.126 0 .23.166.23.369 0 .203.232.443.515.533.282.09.514.33.514.533s.11.37.243.37c.354 0 1.556 1.168 1.556 1.512a.29.29 0 0 0 .285.293c1.464 0 3.331 3.967 2.029 4.309-.283.074-.514.25-.514.391 0 .14-.608.864-1.35 1.608a101.7 101.7 0 0 0-3.094 3.307 175.388 175.388 0 0 1-4.177 4.456c-1.338 1.375-2.433 2.535-2.433 2.577 0 .041-.581.665-1.29 1.384l-1.292 1.309h.746c.409 0 .889.175 1.067.39.176.214.779.462 1.338.551.56.09 1.077.321 1.151.514.074.192.453.35.844.35.39 0 1.003.232 1.362.516.36.284.945.516 1.302.516.356 0 .803.156.993.347.191.191.766.426 1.279.523.512.096 1.073.346 1.246.555.173.209.597.38.943.38.711 0 2.393 1.18 2.393 1.679 0 .181.173.396.385.478.212.081.386.379.386.662 0 .284.231.64.514.791.283.152.514.388.514.525 0 .313 1.976 2.312 2.286 2.312.127 0 .296.174.378.387.081.213.307.387.501.387.195 0 .564.232.82.515.255.284.624.516.819.516.194 0 .419.171.499.38.08.209.53.453 1.002.541.471.089.919.324.996.523.075.199.46.362.852.363.394.001 1.063.232 1.487.514.533.354 1.208.513 2.185.515 1.371.003 2.909.63 3.402 1.387.335.515.233 9.564-.112 9.909-.479.481-1.98.366-2.706-.206-.359-.284-.873-.516-1.141-.516s-.554-.174-.635-.387c-.082-.212-.352-.386-.6-.386-.249 0-.747-.233-1.106-.516-.36-.284-.899-.516-1.2-.516-.3 0-.612-.174-.693-.387-.082-.213-.407-.387-.724-.387-.316 0-.784-.232-1.04-.515-.256-.284-.722-.516-1.037-.516-.314 0-.709-.167-.878-.37-.168-.204-.635-.443-1.037-.532-.403-.088-.797-.328-.874-.532-.079-.204-.418-.371-.753-.371-.336 0-.821-.232-1.076-.516-.256-.284-.725-.516-1.041-.516-.317 0-.642-.174-.723-.387-.081-.212-.367-.387-.636-.387-.268 0-.763-.214-1.1-.476-.338-.262-.931-.554-1.32-.65-.389-.095-.707-.287-.707-.426s-.271-.253-.603-.253c-.332 0-.812-.232-1.068-.516-.256-.283-.722-.515-1.037-.515-.314 0-.709-.167-.878-.37-.168-.204-.635-.443-1.037-.532-.403-.089-.797-.328-.874-.532-.079-.204-.417-.371-.753-.371s-.821-.233-1.076-.516c-.256-.284-.725-.516-1.041-.516-.317 0-.642-.174-.723-.387-.081-.213-.367-.387-.636-.387-.268 0-.763-.214-1.1-.476-.338-.262-.931-.555-1.32-.65-.389-.095-.707-.287-.707-.426s-.216-.253-.48-.253c-.263 0-.784-.24-1.156-.534-1.587-1.252-1.577-1.305-1.577 8.697 0 10.888.235 10.147-3.22 10.147-1.532 0-2.749.163-3.85.516-3.434 1.101-3.654.827-3.805-4.752-.112-4.096-.09-4.351.43-5.057.301-.409.548-.966.548-1.238s.159-.627.353-.789c.194-.162.429-.867.522-1.568.092-.701.338-1.445.546-1.653.55-.552.555-8.458.005-8.916-.205-.171-.453-.849-.551-1.506-.099-.658-.336-1.353-.527-1.545-.191-.191-.348-.504-.348-.694 0-.437-1.305-2.455-1.588-2.455-.117 0-.212-.116-.212-.258 0-.141-.202-.476-.45-.743-1.23-1.326-1.264-1.464-1.429-5.66-.09-2.287-.333-4.745-.554-5.596-.217-.835-.394-2.528-.394-3.762 0-2.337-.352-2.773-1.309-1.618-.478.578-2.724.475-3.052-.14-.784-1.468-.172-4.658.893-4.658.345 0 1.006-.232 1.47-.516.463-.283 1.26-.515 1.774-.515.512 0 1.064-.16 1.225-.355.161-.195.84-.431 1.51-.525.669-.093 1.44-.34 1.715-.548.275-.208.96-.378 1.522-.378.573 0 1.221-.18 1.473-.409.248-.225.951-.474 1.563-.553.612-.08 1.34-.302 1.618-.493.684-.47 1.146.002 1.464 1.494Zm-57.751.355c.565.204 1.935.448 3.043.543 1.325.113 2.061.292 2.149.52.075.197.51.348 1.005.348.53 0 1.074.202 1.386.516.283.283.692.516.91.516.348 0 1.824.892 2.175 1.315.07.085.41.304.755.486 1.185.627 3.872 3.258 3.872 3.792 0 .186.118.338.263.338.144 0 .402.319.572.709.171.39.458.802.638.915.179.114.326.453.326.754s.203.771.45 1.045c1.094 1.214 1.094 9.46 0 11.011-.247.351-.45.964-.45 1.362 0 .399-.162.787-.36.863-.198.077-.435.537-.526 1.024-.098.526-.317.884-.54.884-.22 0-.373.248-.373.605 0 .333-.232.815-.514 1.072-.283.256-.514.622-.514.813 0 .191-.174.347-.386.347-.212 0-.386.218-.386.484s-.462.977-1.028 1.579c-.566.602-1.028 1.197-1.028 1.321 0 .125-.174.226-.386.226-.212 0-.385.111-.385.247 0 .32-1.236 1.559-1.554 1.559-.135 0-.246.174-.246.386 0 .213-.101.387-.225.387s-.717.464-1.317 1.032c-.6.567-1.255 1.031-1.454 1.031-.199 0-.428.174-.51.387-.081.213-.305.387-.497.387-.191 0-.473.232-.624.516-.15.283-.439.516-.64.516-.468 0-.236 2.506.29 3.114.192.224.35.892.35 1.484s.231 1.51.514 2.039c.288.539.514 1.455.514 2.081 0 .615.158 1.276.35 1.47.194.193.43 1.047.526 1.897.096.851.29 1.586.433 1.633.142.047.326.781.409 1.629.082.85.293 1.718.467 1.931.175.212.385.998.468 1.745.084.747.33 1.614.55 1.927.779 1.117.541 3.733-.357 3.931-.414.092-.891.333-1.06.537-.178.216-.764.37-1.404.37-.714 0-1.147.129-1.239.369-.08.209-.678.446-1.377.547-.68.098-1.415.335-1.634.527-1.17 1.023-4.1.264-4.1-1.061 0-.314-.232-.866-.515-1.226-.282-.361-.514-.902-.514-1.204 0-.301-.173-.614-.385-.695-.212-.082-.386-.411-.386-.731 0-.321-.231-.878-.514-1.238-.283-.361-.514-.945-.514-1.297s-.167-.705-.371-.784c-.205-.078-.448-.551-.542-1.05-.093-.498-.33-1.041-.528-1.206-.197-.164-.358-.566-.358-.893 0-.327-.175-.77-.39-.985-.213-.214-.459-.742-.545-1.173-.085-.431-.315-.916-.51-1.078-.196-.162-.355-.524-.355-.803s-.231-.803-.514-1.164c-.283-.36-.514-.916-.514-1.234 0-.318-.17-.72-.379-.894-.209-.173-.45-.702-.54-1.174-.087-.472-.322-.921-.52-.998-.199-.076-.36-.477-.36-.892 0-.415-.163-.817-.362-.893-.199-.077-.444-.518-.545-.98-.102-.463-.344-1.002-.539-1.197-.195-.195-.354-.623-.354-.95 0-.327-.17-.736-.378-.91-.21-.173-.452-.706-.542-1.183-.089-.477-.323-1.002-.52-1.166-.198-.165-.36-.528-.36-.807s-.23-.802-.514-1.163c-.282-.361-.514-.918-.514-1.238 0-.321-.173-.649-.385-.731-.212-.082-.386-.427-.386-.767s-.231-.913-.514-1.273c-.283-.361-.514-.96-.514-1.333 0-.372-.17-.742-.379-.822-.208-.08-.451-.536-.54-1.014-.09-.478-.325-1.003-.522-1.168-.197-.164-.358-.56-.358-.88 0-.319-.166-.72-.37-.889-.202-.169-.449-.676-.546-1.127-.097-.451-.273-.881-.39-.957-.117-.075-.363-.598-.547-1.16-.37-1.138-1.372-1.53-1.992-.779-.182.22-.533.4-.78.4-.245 0-.742.232-1.1.515-.36.284-1.006.516-1.435.516-.804 0-.99-.213-1.96-2.256-.22-.461-.503-.839-.632-.839-.128 0-.307-.338-.398-.752-.09-.413-.33-.816-.534-.894-.204-.079-.37-.379-.37-.666 0-.288-.102-.524-.228-.524-.125 0-.417-.401-.65-.892-.231-.491-.534-.961-.671-1.047-.138-.085-.25-.384-.25-.663 0-.28-.174-.576-.386-.657-.212-.082-.386-.295-.386-.473 0-.179-.23-.62-.514-.98-.282-.361-.514-.844-.514-1.075a.653.653 0 0 0-.385-.567c-.212-.082-.386-.356-.386-.609s.174-.527.386-.609c.212-.082.385-.327.385-.543 0-.219.223-.395.499-.395.274 0 .578-.128.674-.285.096-.156.566-.448 1.044-.648.477-.2.868-.478.868-.618s.216-.255.48-.255c.263 0 .773-.232 1.132-.515.36-.284.849-.516 1.087-.516s.727-.232 1.087-.516c.359-.284.84-.52 1.069-.524.228-.005.639-.179.913-.387.275-.208.759-.378 1.075-.378.316 0 .756-.181.976-.403.221-.221.835-.473 1.366-.559.53-.087 1.119-.312 1.306-.5.188-.189.71-.344 1.16-.345.449-.001 1.163-.233 1.587-.514.49-.325 1.207-.513 1.961-.514.685-.001 1.312-.15 1.478-.351.175-.211 1.125-.415 2.41-.518 1.166-.092 2.583-.337 3.149-.542 1.425-.518 8.079-.52 9.51-.002Zm192.293.916c.095.154.687.501 1.317.772 1.295.557 1.26.794-.22 1.552-1.617.828-2.267.536-2.267-1.017 0-.683.077-1.319.172-1.414.262-.263.806-.205.998.107Zm-87.868 1.891c.533.202 1.646.426 2.473.501.83.074 1.704.315 1.949.537.243.222.756.403 1.138.403.382 0 .762.174.843.387.081.212.368.386.637.386s.687.232.929.516c.243.284.537.516.655.516 1.201 0 3.915 3.301 3.449 4.196-.489.94-1.384 1.993-1.694 1.993a.281.281 0 0 0-.284.278c0 .153-.434.705-.964 1.227-.531.522-1.601 1.692-2.378 2.601a96.263 96.263 0 0 1-3.278 3.573c-1.025 1.057-1.863 2.025-1.863 2.15 0 .126-.174.229-.386.229a.38.38 0 0 0-.386.369c0 .203-.231.443-.514.533-.282.09-.514.33-.514.533s-.173.37-.385.37a.381.381 0 0 0-.386.374c0 .205-.202.492-.45.637-.338.198-.029.265 1.254.27 1.175.006 1.799-.107 2.01-.362.169-.204.643-.445 1.055-.536.796-.175 1.712-.862 3.522-2.64 1.203-1.181 2.002-1.373 2.688-.644.233.248.579.575.768.727 3.015 2.423 6.633 5.84 6.633 6.264 0 .425-2.05 2.615-2.447 2.615-.179 0-.392.174-.474.386-.081.213-.325.387-.541.387a.392.392 0 0 0-.394.387c0 .213-.155.387-.346.387-.19 0-.555.232-.811.516-.255.283-.666.515-.912.515s-.509.164-.585.363c-.076.2-.501.443-.945.54-.443.097-.868.34-.944.54-.076.2-.426.363-.778.363-.351 0-.932.232-1.292.515-.36.284-1.029.516-1.487.516-.459 0-.965.158-1.125.352-.16.193-.947.429-1.749.524-.803.094-1.629.313-1.836.486-.644.537-8.05.591-9.096.066-.464-.233-1.334-.49-1.933-.573-.599-.083-1.221-.309-1.382-.503-.16-.193-.548-.352-.863-.352-.314 0-.838-.232-1.164-.516-.326-.283-.71-.515-.854-.515-.25 0-.732-.395-1.654-1.354-.239-.248-.582-.452-.763-.452-.18 0-.328-.119-.328-.265 0-.146-.405-.639-.9-1.095-.494-.455-.899-.916-.899-1.023 0-.108-.232-.427-.514-.711-.283-.284-.515-.736-.515-1.004 0-.269-.173-.555-.385-.637-.216-.083-.386-.467-.386-.872 0-.399-.202-1.012-.45-1.362-.386-.549-.449-1.268-.449-5.151s.063-4.602.449-5.151c.248-.35.45-.952.45-1.338 0-.386.118-.774.261-.863.143-.089.427-.56.63-1.047.202-.486.49-.885.639-.885.148 0 .27-.189.27-.421 0-.231.405-.804.899-1.272.495-.468.9-.975.9-1.126 0-.152.131-.275.291-.275.16 0 .673-.407 1.14-.903.466-.496.946-.903 1.065-.903.12 0 .415-.232.658-.515.242-.284.615-.516.828-.516.213 0 .619-.232.902-.516.283-.284.732-.516.997-.516s.614-.159.775-.353c.161-.195.77-.418 1.354-.496.584-.079 1.139-.271 1.235-.426.097-.155.976-.351 1.956-.435.979-.083 2.243-.308 2.809-.498 1.353-.455 2.972-.458 4.172-.006Zm97.602 1.597c.506.195.511.708.021 2.593-.225.867-.39 2.671-.397 4.332-.007 1.801-.147 3.226-.381 3.879-.216.602-.433 2.533-.521 4.642-.082 1.985-.306 4.074-.496 4.642-.2.592-.394 2.626-.457 4.778-.066 2.223-.237 3.984-.422 4.33-.177.332-.373 2.16-.455 4.247-.101 2.578-.257 3.845-.524 4.274l-.381.609-4.409-.117c-4.36-.115-7.421-.634-7.953-1.347-.231-.309-.01-2.173.306-2.578.116-.149.285-1.713.375-3.476.111-2.176.287-3.393.549-3.794.281-.43.385-1.328.385-3.315 0-1.886.124-3.021.401-3.684.247-.593.455-2.142.544-4.054.091-1.955.274-3.304.499-3.665.905-1.455.525-2.008-1.379-2.008h-1.736l-.08-1.122c-.051-.716.055-1.277.293-1.548.206-.233.456-.926.556-1.539.1-.612.344-1.176.542-1.252.198-.076.36-.398.36-.716 0-.852.731-1.342 2.257-1.514.746-.084 1.535-.331 1.753-.55.263-.263.881-.398 1.828-.398.996 0 1.521-.122 1.723-.399.177-.245.888-.462 1.824-.559.843-.087 1.688-.313 1.876-.503.351-.352 2.739-.48 3.499-.188Zm-32.24 1.025c-.353.198-.96.36-1.349.362-.837.005-1.086 2.204-.322 2.841.254.211.386.786.386 1.675 0 .746.069 1.699.152 2.12l.153.765 1.296-1.184c1.144-1.044 3.906-3.797 4.964-4.946 1.362-1.479-3.084-2.855-5.28-1.633Zm-30.418 5.696c-.095.094-.172.504-.172.91s-.16.801-.355.876c-.196.075-.429.598-.519 1.162-.09.564-.335 1.092-.544 1.172-.231.089-.381.484-.381 1.003 0 .472-.165 1.023-.367 1.225-.366.368 3.696.898 4.25.555.299-.186-.046-2.736-.451-3.329-.191-.28-.347-1.055-.347-1.722 0-1.318-.62-2.348-1.114-1.852Zm-42.697.273a2.177 2.177 0 0 0-.853.485c-.198.197-.495.363-.662.367-.398.011-1.716 1.182-1.716 1.525 0 .147-.232.413-.514.59-.283.177-.515.488-.515.691 0 .203-.202.594-.449.868-.371.411-.45.994-.45 3.282 0 2.288.079 2.87.45 3.28.247.274.449.681.449.902 0 .222.175.471.388.553.213.082.521.443.684.801.387.851 1.306.858 1.857.013.463-.709 1.412-1.781 3.434-3.88.742-.771 1.349-1.52 1.349-1.664 0-.145.174-.264.386-.264.212 0 .385-.148.385-.329 0-.182.203-.512.45-.736.248-.223.855-.915 1.35-1.538.495-.622 1.16-1.378 1.478-1.679.318-.301.578-.68.578-.841 0-.161.196-.293.434-.293.643 0-.512-1.015-1.97-1.732-1.136-.559-5.001-.796-6.543-.401Zm4.682 2.485c.268.267.219.451-.257.98-.323.358-1.166 1.332-1.872 2.163a80.604 80.604 0 0 1-2.022 2.298 26.483 26.483 0 0 0-1.161 1.322c-1.398 1.77-2.344 1.227-2.344-1.344 0-3.707 2.716-6.231 6.298-5.855.565.06 1.176.256 1.358.436ZM41.7 115.617c-.353.202-1.174.372-1.824.377-1.832.015-2.824 2.056-1.638 3.371.216.24.464 1.031.55 1.759.085.728.313 1.454.506 1.614.192.161.35.733.35 1.273 0 .563.178 1.161.419 1.402.23.231.48.962.554 1.624.074.662.29 1.36.48 1.55.19.191.35.658.355 1.038.005.38.232 1.155.505 1.722.273.568.504 1.38.514 1.806.013.651.057.702.278.322.144-.248.412-.451.595-.451s.542-.232.798-.516c.256-.284.679-.516.94-.516.26 0 .474-.111.474-.246 0-.32 1.235-1.559 1.554-1.559.135 0 .245-.12.245-.266 0-.147.405-.673.9-1.17.495-.496.9-1.147.9-1.445 0-.299.202-.692.45-.874.385-.282.45-.774.45-3.418 0-2.579-.074-3.17-.45-3.587-.248-.274-.45-.629-.45-.789 0-.399-1.159-1.528-1.768-1.722a2.036 2.036 0 0 1-.811-.535c-.172-.208-.706-.378-1.188-.378s-1.292-.174-1.8-.386c-1.105-.464-1.08-.464-1.888 0Zm3.32 3.29c1.798.916 3.152 3.618 2.409 4.811-.162.26-.375.898-.471 1.416-.219 1.166-2.31 3.471-2.75 3.029-.325-.325-.889-1.782-1.263-3.263-.143-.567-.368-1.263-.499-1.547-.214-.464-.797-2.412-1.175-3.93-.284-1.141 1.925-1.444 3.748-.516Zm74.371 3.564c.222 3.472.005 3.935-1.432 3.057-.447-.274-1.048-.497-1.336-.498-.288 0-.914-.328-1.39-.727l-.867-.726 2.162-2.103c2.663-2.591 2.634-2.601 2.863.997Zm-37.917-.988c.273.249.798.452 1.168.452.37 0 .744.118.833.261.089.144.562.431 1.051.636 1.263.529 4.73 4.144 4.73 4.932 0 .368.151.618.374.618.23 0 .442.374.55.967.098.532.334 1.196.527 1.476.499.727.496 8.062-.005 8.782-.194.28-.434.993-.533 1.585-.1.591-.345 1.139-.547 1.216-.2.077-.366.417-.366.754s-.231.823-.514 1.08c-.283.256-.514.626-.514.822 0 .194-.163.417-.363.493-.199.078-.427.4-.506.717-.28 1.122-5.082 5.575-6.012 5.575-.111 0-.4.232-.643.516-.242.284-.688.516-.992.516-.305 0-.686.182-.847.404-.162.222-.78.469-1.374.549-.594.08-1.212.304-1.373.499-.424.512-8.26.511-8.686-.002-.16-.195-.758-.429-1.326-.52-.568-.092-1.099-.338-1.18-.548-.08-.21-.346-.382-.592-.382s-.657-.232-.912-.516c-.256-.284-.576-.516-.711-.516-.479 0-2.503-2.303-2.503-2.848 0-.304-.23-.847-.514-1.208-.282-.36-.514-.858-.514-1.105s-.173-.593-.385-.77c-.218-.181-.386-.743-.386-1.289 0-.532-.173-1.461-.386-2.064-.491-1.397-.491-3.034 0-4.215.212-.509.386-1.437.386-2.063 0-.65.151-1.263.354-1.432.194-.161.424-.74.512-1.287.086-.546.332-1.139.545-1.316.214-.178.388-.651.388-1.052s.148-.822.327-.936c.18-.113.467-.525.637-.915.17-.39.43-.709.573-.709.145 0 .263-.12.263-.266 0-.679 4.611-4.634 5.403-4.634.148 0 .332-.167.41-.371.078-.204.471-.444.874-.532.403-.089.87-.328 1.038-.532.168-.204.64-.37 1.047-.37.407 0 1.174-.238 1.704-.527 1.324-.723 8.175-.666 8.99.075Zm-9.254 5.094c-.36.283-.74.515-.846.515-.43 0-2.2 2.16-2.339 2.854-.081.41-.308.878-.503 1.04-.498.415-.474 2.906.03 3.327.213.177.386.597.386.934 0 .337.232.846.515 1.129.282.284.514.569.514.633 0 .247 1.322 1.43 1.598 1.43.159 0 .513.203.785.452.824.749 6.172.814 7.152.087.4-.296.862-.539 1.028-.539.325 0 1.058-.745 1.935-1.966.832-1.159 1.342-4.374.783-4.935-.4-.401-.428-.399-.428.032 0 .443-1.308 1.969-1.687 1.969-.102 0-.332.203-.513.45-.485.666-4.883.666-5.368.002-.181-.248-.511-.452-.733-.452-.223 0-.475-.221-.56-.491-.086-.271-.314-.554-.508-.628-.193-.074-.428-.49-.524-.923-.095-.434-.28-.855-.41-.935-.314-.196-.305-1.592.013-1.789.138-.086.374-.614.525-1.176.15-.561.385-1.02.52-1.02a.253.253 0 0 0 .248-.258c0-.435-.923-.287-1.613.258Z" clip-rule="evenodd"/><path fill="#587592" fill-rule="evenodd" d="M147.224 82.37a80.85 80.85 0 0 1-1.221 1.413c-.248.276-.45.574-.45.665 0 .09-.261.42-.579.735-1.18 1.164-4.048 4.631-4.048 4.891 0 .097-.405.559-.9 1.027-.495.468-.9.928-.9 1.023 0 .094-.32.487-.711.872-1.665 1.642-2.291 3.121-1.519 3.589.188.113.415.41.507.657.228.625 1.523.585 2.109-.064.256-.284.74-.516 1.076-.516.336 0 .673-.162.749-.362.076-.198.524-.433.995-.522.472-.089.923-.332 1.003-.541.08-.21.391-.38.691-.38.3 0 .84-.232 1.2-.516.359-.283.872-.516 1.14-.516.269 0 .555-.174.636-.386.081-.213.416-.387.745-.387.328 0 .764-.169.969-.374.205-.206.686-.453 1.068-.55.382-.096.755-.333.83-.528.074-.194.407-.353.74-.353s.812-.216 1.065-.48c.253-.264.778-.556 1.167-.65.781-.188.996-1.096.321-1.356-.212-.082-.386-.35-.386-.597 0-.246-.231-.658-.514-.915-.282-.256-.514-.622-.514-.813 0-.191-.104-.347-.232-.347s-.661-.649-1.185-1.442c-2.172-3.282-2.727-3.61-3.852-2.276Zm1.384.351c.249.133.79.743 1.204 1.354.413.611.812 1.17.887 1.24.62.593 2.565 3.543 2.565 3.892 0 .243-.318.568-.706.721a9.177 9.177 0 0 0-1.093.513c-.212.13-.675.362-1.028.518-.354.156-.816.392-1.028.524-2.831 1.767-11.352 5.528-11.608 5.124-.571-.903.608-2.956 3.382-5.892.712-.754 4.309-5.083 6.426-7.734.458-.574.429-.566.999-.26Zm88.677 5.086c-.743.127-2.79 1.983-2.79 2.53 0 .186-.161.4-.357.476-.601.231-.921 3.312-.541 5.204.211 1.05 1.073 2.41 1.543 2.436.143.008.404.246.581.53.2.321.599.516 1.058.516.406 0 .882.174 1.058.387.227.274.828.386 2.069.386 1.213 0 1.868-.118 2.136-.386.212-.213.48-.387.597-.387.35 0 1.598-1.444 1.871-2.164.14-.37.374-.673.518-.673.145 0 .264-.34.264-.757 0-.416.113-1.055.251-1.42.602-1.59-1.752-5.817-3.24-5.817-.234 0-.554-.166-.71-.368-.3-.386-3.075-.704-4.308-.493Zm3.804 1.052c4.408 1.989 5.152 5.878 1.789 9.354-2.999 3.099-8.897.375-8.897-4.11 0-4.292 3.499-6.873 7.108-5.244Zm-59.282.79c-.526.182-1.276 1.129-1.286 1.622-.004.226-.24.622-.522.878-.283.257-.515.727-.515 1.044 0 .318-.173.644-.385.726-.212.081-.386.368-.386.638 0 .268-.231.784-.514 1.144-.283.36-.514.892-.514 1.18 0 .288-.127.603-.283.7-.156.096-.447.539-.647.982-.2.444-.457.981-.572 1.194-.903 1.668-1.326 2.611-1.326 2.96a.646.646 0 0 1-.385.557c-.212.081-.386.408-.386.726 0 .317-.231.787-.514 1.043-.283.257-.514.667-.514.911 0 .245-.174.589-.386.766-.212.176-.385.523-.385.77s-.232.745-.514 1.105c-.283.361-.514.886-.514 1.168 0 .281-.163.575-.362.651-.199.076-.437.487-.53.912-.094.425-.336.912-.539 1.081-.203.168-.369.517-.369.773s-.168.634-.373.84c-.205.205-.448.673-.539 1.039-.092.366-.329.801-.527.966-.198.165-.36.557-.36.873 0 .315-.232.783-.514 1.039-.283.257-.514.727-.514 1.044 0 .318-.174.644-.386.726-.212.081-.386.366-.386.633 0 .266-.231.752-.514 1.079-.477.552-.651 1.457-.518 2.708.029.283.419.822.865 1.196.445.375 1.088.926 1.428 1.225.34.299.708.544.818.544.11 0 .273.229.361.51.163.514-5.143 6.195-5.787 6.195-.147 0-.332.17-.412.377-.079.207-.393.454-.699.548-.538.167-1.009.528-1.906 1.461-.238.248-.552.452-.698.453-.465.004-2.192 1.819-2.192 2.303 0 .258-.166.607-.369.776-.203.169-.442.639-.531 1.045-.088.406-.327.876-.53 1.045-.203.169-.369.479-.369.687 0 .208-.232.674-.514 1.035-.283.36-.514.858-.514 1.105 0 .246-.174.593-.386.77-.212.177-.386.521-.386.766 0 .244-.231.712-.514 1.039-.283.327-.514.771-.514.987 0 .215-.183.594-.407.842-.936 1.038.206 1.202 7.44 1.068l6.647-.123.872-.849c.479-.468.872-1.078.872-1.356s.173-.65.385-.827c.212-.176.386-.55.386-.829 0-.279.231-.802.514-1.163.283-.361.514-.859.514-1.106 0-.246.174-.593.386-.77.212-.177.386-.51.387-.741.001-.231.232-.768.512-1.193.281-.426.512-1.023.513-1.326.001-.305.16-.614.354-.689.195-.075.43-.54.522-1.034.092-.494.338-.964.546-1.044.209-.08.379-.44.379-.798 0-.36.231-.886.514-1.169.283-.284.514-.734.514-1 0-.267.174-.629.386-.806.212-.176.385-.549.385-.829 0-.279.232-.802.514-1.163.283-.361.515-.858.515-1.105s.173-.594.385-.771c.212-.176.386-.51.388-.741 0-.23.231-.767.512-1.193.281-.425.511-.978.512-1.227.002-.391.188-.436 1.352-.327.742.069 2.105.193 3.028.274.924.082 1.795.229 1.937.327.606.421 1.397 1.715 1.397 2.285 0 .341.173.685.385.767.212.082.386.437.386.789 0 .352.231.936.514 1.297.283.36.514.916.514 1.234 0 .318.161.712.359.877.197.164.432.689.521 1.166.089.477.332 1.01.541 1.183.239.199.379.781.379 1.581 0 .839.119 1.312.355 1.403.195.075.429.598.519 1.162.09.564.334 1.092.544 1.172.21.081.381.468.381.862 0 .392.17.856.379 1.029.208.174.451.706.541 1.183.089.477.324 1.002.521 1.166.197.165.358.559.358.877 0 .318.232.874.515 1.234.282.361.514.96.514 1.333 0 .372.173.743.385.824.212.082.386.398.388.702 0 .304.231.901.512 1.326.281.426.512 1.026.512 1.335.001.31.176.736.388.949.212.213.385.628.385.921 0 1.399.743 1.621 4.841 1.448 4.485-.189 5.892-.344 6.093-.671.083-.133.473-.243.867-.243 1.034 0 1.646-.74 1.161-1.403-.201-.275-.366-.772-.366-1.104 0-.332-.173-.67-.385-.752-.214-.082-.386-.465-.386-.86 0-.391-.231-1.006-.514-1.367-.283-.361-.514-.942-.514-1.292 0-.35-.162-.771-.359-.936-.197-.164-.435-.707-.528-1.205-.093-.499-.337-.972-.541-1.05-.209-.081-.372-.48-.372-.913 0-.423-.231-1.065-.514-1.426-.283-.36-.514-.933-.514-1.273 0-.34-.173-.685-.385-.767-.213-.082-.387-.455-.388-.83-.001-.375-.231-1.03-.512-1.455-.281-.426-.512-1.021-.512-1.322-.002-.302-.176-.693-.388-.87-.212-.177-.385-.608-.385-.958s-.232-.932-.515-1.293c-.282-.36-.514-.916-.514-1.234 0-.318-.173-.723-.385-.899-.212-.177-.386-.597-.386-.934 0-.338-.231-.846-.514-1.129-.283-.284-.514-.817-.514-1.185 0-.367-.232-.963-.514-1.324-.283-.36-.514-.975-.514-1.367 0-.394-.172-.777-.386-.86-.22-.084-.386-.469-.386-.898 0-.412-.16-.884-.357-1.047-.196-.164-.487-.817-.646-1.45-.159-.634-.403-1.153-.543-1.153-.139 0-.253-.33-.253-.734 0-.404-.231-1.002-.514-1.329-.283-.327-.514-.859-.514-1.182 0-.322-.156-.743-.347-.933-.19-.192-.428-.786-.528-1.322-.1-.536-.349-1.039-.553-1.117-.205-.079-.372-.464-.372-.858 0-.392-.174-.859-.388-1.037-.213-.177-.461-.782-.55-1.343-.089-.562-.32-1.081-.512-1.155-.192-.074-.349-.461-.349-.862 0-.4-.154-.882-.343-1.071-.188-.189-.416-.967-.506-1.73-.09-.763-.341-1.583-.557-1.822-.216-.241-.393-.674-.393-.962 0-.289-.232-.82-.515-1.181-.282-.361-.514-.942-.514-1.292 0-.351-.161-.772-.358-.936-.198-.164-.435-.707-.529-1.206-.093-.499-.336-.971-.541-1.05-.209-.08-.371-.48-.371-.913 0-.423-.231-1.064-.514-1.425-.283-.36-.514-.916-.514-1.234 0-.318-.174-.723-.386-.9-.212-.176-.386-.54-.386-.805 0-.267-.231-.92-.514-1.448-.282-.529-.514-1.097-.514-1.26 0-.373-.52-.58-1.019-.406Zm1.339 3.016c.777 1.918 1.244 3.01 1.64 3.824.194.402.354.844.354.983 0 .14.301.913.667 1.72a72.078 72.078 0 0 1 1.923 4.562c.333.851.753 1.776.935 2.056.182.28.331.958.331 1.507 0 .549.169 1.307.375 1.684.432.79 1.064 2.258 2.06 4.792.387.983.793 1.969.904 2.192.11.223.457 1.043.771 1.824.313.78.715 1.766.893 2.192.179.425.586 1.411.905 2.192.319.78.797 1.895 1.063 2.478.266.583.483 1.182.483 1.332 0 .151.16.603.354 1.004.595 1.226 1.132 2.457 1.835 4.211 1.045 2.608 1.394 3.424 1.803 4.212.208.401.378.853.378 1.003 0 .151.221.75.491 1.333.269.583.739 1.698 1.043 2.478a53.297 53.297 0 0 0 1.711 3.954c.195.401.354.844.354.983s.301.913.668 1.72c.902 1.982 1.207 2.706 2.026 4.819.385.993.804 1.916.931 2.05.805.855.258 1.377-1.633 1.559-1.025.098-2.962.342-4.305.54-4.224.625-5.656.277-5.656-1.371 0-.208-.167-.685-.37-1.062-.205-.376-.856-1.845-1.447-3.263a284.507 284.507 0 0 0-1.557-3.675c-1.273-2.897-1.571-3.584-1.767-4.062a182.262 182.262 0 0 0-1.817-4.197c-.273-.607-.496-1.439-.496-1.849 0-.41-.171-1.074-.379-1.476a27.413 27.413 0 0 1-.806-1.761 153.309 153.309 0 0 0-1.894-4.384c-.257-.568-.541-1.283-.632-1.589-.317-1.071-2.182-1.647-6.7-2.07l-1.286-.12-1.132 2.405a2387.158 2387.158 0 0 0-4.64 9.884 774.09 774.09 0 0 1-1.937 4.126c-2.075 4.373-2.702 5.751-2.71 5.963-.05 1.2-1.06 1.556-5.261 1.856-8.799.629-9.049.638-9.238.331-.175-.285 3.827-8.677 4.268-8.95.118-.074.214-.322.214-.553 0-.652 1.014-1.982 2.034-2.666.507-.34.98-.677 1.051-.749.071-.073 1.247-.977 2.614-2.009 2.662-2.011 6.64-6.017 6.64-6.687 0-.224-.912-1.268-2.029-2.319-2.056-1.937-2.261-2.389-1.518-3.345.409-.526 5.087-9.999 5.088-10.304.001-.16.163-.425.362-.59.198-.165.438-.614.534-.996.096-.383.256-.756.357-.828.099-.072 2.192-4.193 4.649-9.158 2.458-4.964 4.707-9.294 4.999-9.622l.531-.596.225.596c.123.328.459 1.177.746 1.886Zm26.871-.138c-1.234.082-2.385.293-2.557.466-.205.205-1.164.317-2.719.317-1.678 0-2.639.121-3.182.403-.427.222-1.607.47-2.622.55-1.014.08-2.017.292-2.23.47-.212.179-1.149.37-2.082.428-2.687.162-4.048 1.76-2.673 3.14.224.226.385.855.385 1.505 0 .626.227 1.542.515 2.081.313.586.514 1.455.514 2.221 0 .747.142 1.378.349 1.55.193.16.419.955.502 1.767.203 1.968 1.532 2.929 2.233 1.615.151-.283.445-.515.652-.515a.383.383 0 0 0 .377-.387c0-.213.115-.387.257-.387.141 0 .257.276.257.613 0 .337.173.758.385.934.239.2.388.775.392 1.515.003.656.234 1.699.514 2.318.279.618.508 1.677.508 2.353 0 .72.145 1.35.348 1.52.192.16.419 1.048.506 1.974.086.926.334 1.938.551 2.249.228.327.395 1.114.395 1.868 0 .717.156 1.533.347 1.812.191.28.423 1.254.515 2.166.092.911.341 1.848.552 2.083.243.269.385.946.385 1.832 0 .871.156 1.629.411 1.994.226.325.475 1.289.552 2.143.087.961.273 1.606.489 1.688.191.074.347.454.347.845 0 .392.232 1.007.515 1.367.282.361.514.934.514 1.273 0 .339.143.761.319.937.175.176.436.741.58 1.256.493 1.761 1.825 1.687 4.466-.248.339-.248.832-.451 1.096-.451.263 0 .479-.16.479-.355 0-.195.349-.425.776-.51 1.272-.255 1.68-4.299.608-6.025-.214-.344-.356-1.288-.356-2.375 0-1.197-.173-2.246-.514-3.114-.334-.853-.514-1.916-.514-3.054 0-1.137-.132-1.922-.377-2.248-.516-.684-.522-2.434-.008-2.434.212 0 .617-.232.899-.516.283-.284.626-.516.763-.516.136 0 .372-.232.523-.516.151-.283.444-.515.651-.515a.37.37 0 0 0 .377-.359c0-.198.26-.427.578-.509.318-.083 1.034-.56 1.59-1.059.555-.501 1.105-.91 1.221-.91.115 0 .21-.174.21-.387 0-.213.129-.387.287-.387.375 0 6.139-5.783 6.139-6.159 0-.158.097-.288.214-.288.118 0 .602-.609 1.078-1.354.475-.744 1.015-1.446 1.2-1.56.185-.113.336-.418.336-.677 0-.26.173-.616.385-.793.283-.234.386-.858.386-2.321s-.103-2.086-.386-2.321c-.212-.176-.385-.521-.385-.766 0-.244-.232-.712-.514-1.039-.283-.327-.514-.691-.514-.809 0-.389-2.388-2.552-2.982-2.701-.319-.08-.637-.296-.707-.478-.069-.182-.528-.406-1.021-.499-.491-.093-1.036-.34-1.209-.549-.219-.265-.833-.38-2.043-.38-.95 0-2.064-.16-2.474-.356-.905-.433-4.308-.63-7.359-.426Zm6.985 1.067c5.606.536 9.745 2.879 11.229 6.354.228.533.516 1.171.64 1.417.64 1.27-.091 3.706-1.8 5.999-.529.709-1.291 1.743-1.696 2.297-.994 1.362-4.484 4.788-6.689 6.567-.99.798-1.915 1.579-2.056 1.735-.214.236-1.505 1.219-2.571 1.958-.141.098-.713.577-1.271 1.063l-1.014.885.296 2.031c.833 5.712 1.065 7.138 1.225 7.532.096.237.274 1.288.396 2.336.122 1.047.415 2.702.652 3.679.506 2.09.402 2.295-1.809 3.557-4.16 2.372-4.312 2.399-4.925.856a45.979 45.979 0 0 0-.619-1.487c-.956-2.107-2.061-5.518-2.546-7.865a201.874 201.874 0 0 0-1.828-7.995 96.81 96.81 0 0 1-.657-2.836c-1.011-4.68-1.281-5.824-1.43-6.06-.09-.142-.248-.897-.351-1.677-.102-.78-.347-1.809-.543-2.288-.196-.478-.358-1.174-.358-1.547-.005-2.511-1.136-3.623-2.417-2.378-1.343 1.307-1.813.982-2.25-1.559-.154-.902-.371-1.757-.482-1.898-.11-.142-.284-.838-.386-1.548-.103-.709-.335-1.695-.516-2.192a11.545 11.545 0 0 1-.48-1.976c-.083-.59-.221-1.258-.308-1.484-.211-.552 1.276-1.165 3.618-1.49.986-.138 1.975-.347 2.197-.467.222-.12 1.382-.348 2.578-.51 1.196-.16 2.579-.403 3.074-.54 2.32-.635 8.9-.87 13.097-.469ZM98.117 98.302c-.278.191-1.007.413-1.618.493-.612.08-1.315.328-1.563.553-.252.229-.9.409-1.473.409-.563 0-1.248.17-1.523.378-.274.208-1.046.455-1.715.548-.669.094-1.348.33-1.51.525-.16.195-.712.355-1.225.355-.513 0-1.311.232-1.774.515-.463.284-1.124.515-1.47.515-.849 0-1.159.688-1.159 2.579 0 2.221.247 2.579 1.777 2.579.75 0 1.363-.142 1.542-.359.956-1.155 1.308-.72 1.308 1.618 0 1.234.178 2.927.395 3.761.221.852.464 3.31.554 5.596.164 4.197.2 4.335 1.43 5.661.247.267.449.602.449.743 0 .142.095.258.211.258.283 0 1.588 2.018 1.588 2.455 0 .19.157.503.349.694.19.192.428.887.526 1.545.098.657.346 1.335.552 1.506.55.457.544 8.364-.005 8.916-.208.208-.454.952-.547 1.653-.092.701-.327 1.406-.522 1.568-.194.162-.353.516-.353.788 0 .273-.246.83-.548 1.239-.52.706-.542.961-.43 5.057.152 5.579.371 5.853 3.806 4.752 1.1-.353 2.317-.516 3.85-.516 3.454 0 3.219.741 3.219-10.147 0-10.002-.009-9.949 1.577-8.697.372.294.894.534 1.157.534s.479.114.479.253.319.331.707.426c.389.095.983.388 1.32.65.338.262.833.476 1.101.476s.554.174.635.387c.082.213.407.387.724.387.316 0 .784.232 1.04.516.256.283.741.515 1.077.515.335 0 .674.167.752.372.078.204.471.443.874.532.402.089.87.328 1.038.532.168.203.564.37.878.37.314 0 .781.232 1.036.515.256.284.737.516 1.069.516.331 0 .602.114.602.253s.318.331.707.426c.389.095.983.388 1.32.65.338.262.833.476 1.101.476s.554.174.635.387c.082.213.407.387.724.387.316 0 .784.232 1.04.516.256.283.74.516 1.077.516.335 0 .674.167.752.371.078.204.471.443.874.532.402.089.87.328 1.038.532.168.203.564.37.878.37.314 0 .781.232 1.036.515.256.284.725.516 1.041.516.317 0 .642.174.724.387.08.213.393.387.693.387.301 0 .84.232 1.2.516.359.283.856.515 1.105.515s.519.174.6.387c.081.213.367.387.636.387.268 0 .781.232 1.141.516.725.572 2.227.686 2.706.206.344-.345.446-9.395.112-9.909-.494-.757-2.032-1.384-3.403-1.387-.976-.002-1.652-.161-2.185-.515-.424-.282-1.093-.513-1.486-.514-.393-.001-.777-.164-.853-.363-.076-.199-.524-.434-.995-.523-.472-.089-.922-.332-1.003-.541-.079-.209-.304-.38-.498-.38-.195 0-.564-.232-.82-.516-.256-.283-.624-.515-.819-.515-.194 0-.421-.174-.501-.387-.082-.213-.252-.387-.378-.387-.31 0-2.286-1.999-2.286-2.312 0-.137-.232-.373-.514-.525-.283-.151-.514-.507-.514-.791 0-.283-.174-.581-.386-.663-.212-.081-.386-.296-.386-.477 0-.499-1.681-1.679-2.393-1.679-.346 0-.77-.171-.943-.38-.173-.209-.734-.459-1.246-.556-.513-.096-1.087-.331-1.278-.522-.19-.191-.637-.347-.994-.347-.356 0-.942-.232-1.302-.516-.359-.284-.972-.516-1.362-.516-.39 0-.769-.158-.843-.35-.074-.193-.591-.424-1.151-.514-.559-.089-1.162-.338-1.339-.552-.177-.214-.657-.389-1.067-.389h-.745l1.291-1.309c.71-.719 1.291-1.343 1.291-1.385 0-.041 1.095-1.201 2.433-2.576a177.22 177.22 0 0 0 4.177-4.456 99.532 99.532 0 0 1 3.094-3.307c.742-.744 1.349-1.468 1.349-1.608 0-.141.231-.317.514-.391 1.303-.342-.565-4.309-2.028-4.309a.29.29 0 0 1-.285-.293c0-.344-1.202-1.512-1.556-1.512-.134 0-.244-.167-.244-.37 0-.203-.231-.443-.514-.533-.283-.09-.514-.33-.514-.533s-.104-.37-.231-.37c-.126 0-1.106-.841-2.175-1.869-2.341-2.25-2.649-2.515-2.933-2.515-.325 0-1.602 1.397-1.602 1.753 0 .169-.231.451-.514.628-.282.178-.514.472-.514.655 0 .183-.173.4-.385.481-.212.082-.386.292-.386.468 0 .176-.231.53-.514.786-.283.257-.514.617-.514.8 0 .182-.404.773-.899 1.314-.494.539-.899 1.089-.899 1.222-.001.133-.218.481-.482.774-.552.61-2.347 3.175-2.347 3.353 0 .065-.305.443-.677.84-.371.398-.83 1.071-1.018 1.497-.303.685-.344.287-.368-3.482-.05-8.141-.807-11.947-2.187-10.996Zm.847 2.378c.037.839.24 3.398.45 5.684.21 2.288.382 4.789.382 5.56 0 2.637.427 2.627 2.32-.053.916-1.296 1.78-2.492 1.922-2.658.141-.165.726-.998 1.301-1.849 2.005-2.971 3.01-4.388 3.488-4.916.264-.293.48-.66.48-.816 0-.157.087-.323.193-.371.106-.047.517-.521.913-1.053.396-.532.842-.967.991-.967.737 0 10.551 9.469 10.447 10.081-.042.247-2.274 2.75-4.96 5.563-9.111 9.541-9.675 10.167-9.582 10.615.038.188.649.576 1.356.862.707.287 1.761.743 2.341 1.013.581.27 1.174.491 1.317.491.241 0 1.606.549 3.578 1.44.446.201.891.365.99.365.099 0 .543.157.989.349 3.199 1.378 3.607 1.623 4.151 2.484 2.066 3.269 4.986 5.855 8.612 7.624.778.379 1.599.783 1.825.896.225.114 1.498.459 2.827.768 3.501.812 3.178.26 3.259 5.553.039 2.527-.022 4.687-.134 4.8-.113.113-8.293-3.853-18.181-8.813-12.623-6.334-18.055-8.938-18.245-8.746-.181.184-.242 3.252-.185 9.364.069 7.337.019 9.143-.257 9.365-.771.618-8.396 1.525-8.864 1.054-.729-.732-1.13-7.649-.475-8.193.212-.177.386-.487.386-.69 0-.203.219-.798.486-1.322 1.842-3.611 2.317-11.363.899-14.668-1.295-3.017-2.297-4.757-3.688-6.401-.582-.688-.987-3.437-1.311-8.897-.147-2.482-.407-5.209-.577-6.06l-.308-1.547-1.028.036a34.9 34.9 0 0 0-1.928.129c-.888.091-.903.076-1.135-1.13-.41-2.125.254-2.632 4.845-3.709a7.26 7.26 0 0 0 1.414-.522c.363-.19.833-.346 1.045-.346.212 0 .906-.169 1.543-.376l2.442-.794c3.444-1.124 3.582-1.093 3.666.801Zm-66.646-.527c-.565.205-1.982.45-3.149.542-1.284.103-2.234.307-2.41.518-.165.201-.793.35-1.477.351-.755 0-1.472.189-1.961.514-.424.281-1.139.513-1.588.513-.45.002-.971.157-1.16.345-.187.189-.775.414-1.306.501-.53.085-1.144.338-1.366.559-.22.221-.66.403-.976.403-.316 0-.8.17-1.074.378-.275.208-.686.382-.914.387-.228.004-.71.24-1.069.524-.36.284-.848.516-1.086.516-.239 0-.727.232-1.087.516-.36.283-.87.515-1.133.515-.264 0-.48.115-.48.255s-.39.418-.868.618c-.477.2-.947.492-1.043.648-.097.157-.4.284-.675.284-.276 0-.498.176-.498.396 0 .216-.174.461-.386.543-.212.081-.385.355-.385.609 0 .253.173.527.385.609a.653.653 0 0 1 .386.567c0 .231.231.713.514 1.074.283.361.514.802.514.98 0 .179.173.392.386.474.212.081.385.377.385.657 0 .279.113.578.25.663.138.086.44.556.672 1.047.232.491.525.892.65.892s.228.236.228.524c0 .287.166.587.37.666.203.078.443.481.534.894.09.414.27.752.398.752s.412.378.631.838c.971 2.044 1.156 2.257 1.96 2.257.43 0 1.075-.232 1.435-.516.359-.283.855-.516 1.101-.516s.597-.179.78-.399c.62-.751 1.622-.359 1.992.779.184.562.43 1.085.546 1.16.117.075.293.506.39.957.098.451.344.958.547 1.127.203.169.37.57.37.889 0 .32.16.716.358.88.197.165.432.69.52 1.168.09.478.334.933.542 1.014.208.08.378.45.378.822 0 .373.232.972.515 1.333.282.36.514.933.514 1.273 0 .34.173.685.385.767.212.081.386.41.386.731 0 .32.231.877.514 1.237.283.362.514.885.514 1.164 0 .279.162.642.359.807.197.164.432.689.521 1.166.09.477.332 1.01.541 1.183.208.173.379.583.379.91 0 .327.159.755.354.95.194.195.437.734.538 1.197.102.462.347.903.546.98.198.076.361.478.361.892 0 .416.162.817.36.893.198.077.433.526.521.998.089.472.331 1.001.54 1.174.208.174.378.576.378.894 0 .318.232.874.515 1.234.282.361.514.884.514 1.164 0 .279.159.64.354.803.195.162.425.647.51 1.078.087.431.332.959.546 1.173.214.215.39.658.39.985 0 .327.16.729.358.893.197.165.435.708.528 1.206.093.499.337.971.541 1.05.204.079.372.431.372.784 0 .352.23.936.514 1.297.282.36.514.917.514 1.237 0 .321.173.65.385.732.212.081.386.394.386.695 0 .302.231.843.514 1.204.283.36.514.912.514 1.225 0 1.326 2.931 2.085 4.1 1.062.22-.192.955-.429 1.635-.527.699-.101 1.297-.339 1.377-.547.092-.24.524-.369 1.239-.369.64 0 1.225-.154 1.404-.37.168-.204.645-.445 1.06-.537.898-.198 1.135-2.815.356-3.931-.219-.313-.466-1.181-.55-1.927-.082-.747-.293-1.533-.468-1.745-.174-.213-.385-1.082-.467-1.931-.082-.848-.267-1.582-.409-1.629-.142-.048-.337-.782-.433-1.633-.095-.85-.332-1.704-.525-1.897-.193-.194-.35-.855-.35-1.47 0-.626-.226-1.542-.514-2.081-.283-.529-.514-1.447-.514-2.039 0-.592-.158-1.26-.351-1.484-.525-.609-.758-3.115-.289-3.115.2 0 .489-.232.64-.515.15-.284.432-.516.624-.516s.416-.174.497-.387c.081-.213.31-.387.51-.387.199 0 .853-.464 1.454-1.031.6-.568 1.193-1.032 1.316-1.032.124 0 .226-.174.226-.387 0-.212.11-.386.245-.386.32 0 1.554-1.24 1.554-1.559 0-.136.174-.247.386-.247.212 0 .385-.101.385-.226 0-.124.463-.719 1.029-1.321.565-.602 1.028-1.313 1.028-1.579s.173-.484.386-.484c.212 0 .385-.156.385-.347 0-.191.231-.557.514-.813.283-.257.514-.739.514-1.072 0-.357.153-.605.374-.605.223 0 .441-.358.54-.884.09-.487.327-.947.525-1.024.199-.076.36-.464.36-.863 0-.398.203-1.011.45-1.362 1.095-1.551 1.095-9.798 0-11.012-.247-.273-.45-.744-.45-1.045 0-.3-.147-.639-.326-.753-.18-.113-.466-.525-.637-.915-.17-.39-.429-.709-.573-.709-.145 0-.263-.152-.263-.338 0-.534-2.686-3.165-3.872-3.792-.344-.182-.684-.401-.755-.486-.35-.423-1.826-1.316-2.175-1.316-.217 0-.627-.232-.91-.515-.312-.314-.856-.516-1.386-.516-.495 0-.93-.151-1.005-.348-.087-.228-.824-.407-2.148-.52-1.109-.095-2.478-.339-3.044-.543-1.432-.517-8.086-.516-9.51.002Zm10.38.899c8.743.924 16.271 7.495 16.834 14.693.303 3.871-1.455 10.3-3.372 12.333-.176.187-.321.44-.321.562 0 .121-.145.374-.321.561-.177.188-.653.83-1.057 1.428-.404.597-1.714 2.079-2.911 3.293-1.952 1.982-3.034 2.882-6.473 5.388-1.012.737-1.015.746-.687 1.679.181.516.417 1.454.523 2.086.106.631.286 1.325.399 1.544.25.482.945 3.241 1.293 5.136.14.763.374 1.612.521 1.886.147.276.366 1.044.488 1.708.222 1.201.811 3.493 1.336 5.189 1.301 4.21 1.362 5.739.236 5.973-.477.099-1.113.3-1.413.445-.3.146-1.587.574-2.859.952-1.273.377-2.545.782-2.828.898-1.24.51-1.397.49-1.919-.245-.288-.405-.523-.811-.523-.901 0-.091-.36-.943-.8-1.895-1.119-2.418-2-4.368-2.587-5.727-.275-.638-.713-1.624-.973-2.192-.26-.567-.65-1.437-.867-1.934-.343-.783-.773-1.744-2.6-5.802a412.909 412.909 0 0 1-1.957-4.449c-.292-.673-.747-1.689-1.012-2.256a113.36 113.36 0 0 1-1.04-2.321c-.308-.709-.902-2.044-1.322-2.966a323.958 323.958 0 0 1-2.131-4.771c-.817-1.854-1.45-3.27-2.946-6.592-.292-.648-.53-1.316-.53-1.483 0-.169-.098-.306-.217-.306-.118 0-.354-.464-.524-1.031-.395-1.321-.904-1.341-3.483-.129-2.522 1.185-2.396 1.229-3.855-1.361-.698-1.237-1.337-2.308-1.42-2.379-.083-.071-.296-.419-.472-.773a29.626 29.626 0 0 0-.947-1.676 29.991 29.991 0 0 1-.818-1.419c-.105-.213-.47-.793-.81-1.289-.815-1.196-1.123-2.032-.948-2.583.35-1.11 8.73-5.172 14.394-6.979.99-.316 2.204-.723 2.699-.905.495-.183 1.478-.408 2.185-.502.707-.094 1.495-.284 1.752-.422 1.176-.631 9.999-.919 14.283-.466Zm99.384 1.912c-.565.19-1.829.415-2.809.498-.979.084-1.859.28-1.955.435-.096.155-.652.347-1.235.426-.585.078-1.194.301-1.354.496-.161.194-.51.353-.776.353-.265 0-.713.232-.996.516-.283.284-.689.516-.903.516-.213 0-.586.232-.828.516-.242.283-.538.515-.657.515-.12 0-.599.406-1.066.903-.466.496-.979.902-1.139.902a.285.285 0 0 0-.291.276c0 .151-.405.658-.9 1.126-.495.468-.9 1.041-.9 1.272 0 .232-.121.421-.27.421-.149 0-.436.399-.638.885-.204.487-.487.958-.63 1.047-.144.089-.261.477-.261.863 0 .385-.203.988-.45 1.338-.387.549-.45 1.268-.45 5.151s.063 4.602.45 5.15c.247.351.45.964.45 1.363 0 .405.169.789.385.872.212.082.386.368.386.637 0 .268.231.72.514 1.004.283.283.514.603.514.711 0 .107.405.568.9 1.023.495.456.9.948.9 1.095 0 .145.147.265.328.265.181 0 .524.203.762.452.922.959 1.404 1.354 1.655 1.354.143 0 .528.232.853.515.326.284.851.516 1.165.516.315 0 .703.159.863.352.161.194.782.42 1.381.503.6.082 1.47.34 1.934.573 1.045.525 8.451.471 9.095-.066.208-.173 1.034-.392 1.836-.486.802-.095 1.59-.331 1.75-.525.16-.193.666-.351 1.124-.351.458 0 1.128-.232 1.487-.516.36-.283.942-.515 1.293-.515s.701-.164.777-.363c.077-.2.501-.443.945-.54.443-.097.868-.34.945-.54.075-.2.339-.363.585-.363.246 0 .656-.232.912-.515.256-.284.621-.516.811-.516.19 0 .346-.174.346-.387 0-.213.177-.387.394-.387.216 0 .46-.174.541-.387.081-.212.294-.386.473-.386.398 0 2.448-2.19 2.448-2.615 0-.424-3.618-3.841-6.634-6.264a9.602 9.602 0 0 1-.768-.728c-.685-.728-1.484-.536-2.687.645-1.811 1.778-2.726 2.465-3.522 2.64-.412.091-.887.332-1.055.536-.212.255-.836.367-2.01.362-1.283-.006-1.593-.073-1.254-.271.247-.144.45-.431.45-.636a.38.38 0 0 1 .385-.374.38.38 0 0 0 .386-.37c0-.203.231-.443.514-.533.283-.09.514-.33.514-.533a.38.38 0 0 1 .386-.37c.212 0 .385-.102.385-.228s.839-1.093 1.864-2.15a94.529 94.529 0 0 0 3.277-3.574c.778-.908 1.848-2.078 2.378-2.6.53-.522.964-1.074.964-1.227 0-.153.128-.278.284-.278.311 0 1.206-1.053 1.695-1.993.465-.895-2.248-4.196-3.449-4.196-.118 0-.413-.232-.655-.516-.242-.284-.661-.516-.929-.516-.27 0-.556-.174-.638-.387-.081-.212-.46-.386-.842-.386-.383 0-.895-.182-1.139-.403-.244-.222-1.118-.463-1.948-.537-.827-.075-1.941-.3-2.474-.501-1.199-.452-2.819-.449-4.172.006Zm7.361 1.317c3.416 1.27 5.393 2.433 7.356 4.329 1.355 1.307 1.301 1.548-.845 3.783-6.526 6.795-12.127 12.863-12.548 13.595-.516.893.516.912 3.987.073 1.969-.477 3.69-1.482 5.817-3.398 1.288-1.16 1.383-1.201 1.812-.783.395.385 3.409 3.128 6.2 5.642l.906.816-1.411 1.376c-.777.757-1.932 1.723-2.568 2.148-.637.425-1.215.832-1.286.904-.07.073-1.169.639-2.442 1.258-1.272.618-2.641 1.284-3.041 1.48-.4.196-.921.361-1.157.368-.236.006-.892.186-1.457.4-.566.214-1.722.493-2.571.622-.848.128-2.294.35-3.213.492-1.607.249-2.396.188-6.426-.495-1.383-.234-3.767-1.096-4.179-1.509-.162-.163-.434-.295-.605-.295-.354 0-2.697-1.809-3.77-2.909-1.31-1.344-3.244-4.737-3.267-5.73-.007-.284-.178-.98-.382-1.548-.882-2.457-.22-7.981 1.302-10.852 2.643-4.986 5.869-7.468 12.571-9.674 2.531-.832 9.083-.887 11.217-.093Zm90.915.462c-.189.189-1.033.416-1.877.503-.935.097-1.646.314-1.823.559-.203.277-.727.399-1.723.399-.948 0-1.566.135-1.828.398-.218.219-1.008.466-1.754.55-1.525.172-2.256.662-2.256 1.514 0 .318-.162.639-.36.716-.198.076-.442.64-.542 1.252-.101.613-.351 1.306-.556 1.539-.238.271-.345.832-.293 1.547l.08 1.123h1.736c1.904 0 2.284.553 1.379 2.007-.225.362-.409 1.711-.499 3.666-.089 1.912-.297 3.461-.545 4.054-.277.663-.4 1.798-.4 3.683 0 1.987-.104 2.885-.386 3.316-.261.401-.437 1.618-.549 3.794-.089 1.763-.258 3.327-.374 3.476-.316.405-.537 2.269-.307 2.578.532.713 3.593 1.231 7.954 1.347l4.409.117.38-.609c.268-.429.423-1.696.525-4.274.081-2.087.277-3.915.455-4.247.184-.346.356-2.107.421-4.33.064-2.152.258-4.186.457-4.779.19-.567.414-2.656.497-4.641.088-2.109.305-4.04.521-4.642.233-.653.374-2.078.381-3.879.007-1.661.172-3.465.397-4.332.489-1.885.485-2.398-.021-2.593-.76-.292-3.148-.164-3.499.188Zm-30.219.496c-.987.497-1.091.639-1.071 1.467.057 2.395.971 6.979 1.426 7.154.703.27 6.366-5.061 7.276-6.849l.521-1.027-.786-.663c-1.089-.92-5.604-.97-7.366-.082Zm32.997.047c.144.376-.193 4.907-.662 8.912-.331 2.823-.698 6.554-1.162 11.807-.204 2.31-.44 4.311-.524 4.448-.084.137-.256 1.845-.381 3.796-.199 3.099-.63 6.69-.933 7.762-.126.446-7.049.029-10.571-.636-.633-.12-.643-2.561-.026-6.03.139-.781.414-2.869.611-4.642.338-3.047.52-4.485 1.167-9.22 1.066-7.806 1.102-7.543-1.036-7.543-1.692 0-1.732-.05-1.25-1.529 1.339-4.101 1.613-4.417 4.282-4.915.754-.14 1.493-.332 1.644-.425.151-.094.981-.319 1.844-.501 2.031-.428 3.629-.837 4.911-1.257 1.402-.459 1.918-.466 2.086-.027Zm-26.773.321c.974.465 1.135.953.533 1.606-1.057 1.149-3.82 3.902-4.963 4.946l-1.296 1.184-.153-.765c-.084-.421-.152-1.375-.152-2.12 0-.889-.133-1.465-.386-1.675-.764-.637-.515-2.836.321-2.841.389-.002.996-.164 1.35-.362.927-.516 3.644-.501 4.746.027Zm-35.494 4.916a53.769 53.769 0 0 1-.758 1.78c-.203.447-.369.94-.369 1.097 0 .156-.232.718-.515 1.247-.282.529-.514 1.091-.514 1.249 0 .157-.184.657-.409 1.109-.604 1.215-.384 1.417 1.984 1.819 4.663.792 4.621.875 2.768-5.399-.272-.922-.493-1.987-.491-2.367.009-1.544-1.144-1.907-1.696-.535Zm-42.211.351c-6.39 2.333-8.268 10.41-3.457 14.864 1.233 1.143 1.174 1.173 3.925-2.012.778-.901 1.645-1.89 1.928-2.199.283-.309 1.093-1.234 1.8-2.058.706-.824 1.468-1.679 1.692-1.902.883-.876 3.32-3.905 3.32-4.126 0-1.952-6.176-3.674-9.208-2.567Zm43.25.635c.253.253.404.859.404 1.619 0 .667.156 1.442.348 1.722.405.592.75 3.143.45 3.329-.553.343-4.616-.187-4.25-.555.202-.202.367-.754.367-1.225 0-.519.151-.914.382-1.003.209-.081.454-.608.544-1.172.09-.564.323-1.087.518-1.162.196-.075.356-.47.356-.876 0-.634.169-1.082.41-1.082.037 0 .249.182.471.405Zm-36.864.441c1.458.717 2.613 1.732 1.971 1.732-.239 0-.434.132-.434.293 0 .161-.26.54-.578.841-.319.301-.984 1.057-1.479 1.679-.494.623-1.102 1.315-1.349 1.538-.248.224-.45.554-.45.735 0 .182-.174.33-.386.33-.212 0-.385.119-.385.264 0 .144-.607.893-1.35 1.664-2.022 2.099-2.97 3.171-3.433 3.88-.552.845-1.471.838-1.857-.013-.163-.358-.471-.719-.684-.801a.645.645 0 0 1-.388-.553c0-.221-.202-.628-.45-.902-.37-.41-.45-.992-.45-3.281 0-2.287.08-2.87.45-3.281.248-.274.45-.665.45-.868 0-.203.231-.514.514-.691.283-.177.514-.443.514-.591 0-.343 1.318-1.513 1.717-1.524.167-.004.464-.17.661-.367.877-.88 5.668-.935 7.396-.084Zm-103.729 2.92c-3.548.822-4.826 1.651-4.288 2.781.143.299.379 1.009.525 1.576.145.567.508 1.844.806 2.837.297.992.718 2.443.934 3.223.217.78.5 1.529.63 1.663.13.135.236.483.236.774 0 1.162 2.03 6.589 2.464 6.589 1.176 0 6.207-4.764 7.273-6.885 2.322-4.626-.02-11.94-3.823-11.94-.227 0-.522-.106-.657-.236-.283-.272-3.341-.558-4.1-.382Zm2.274.747c.508.212 1.317.386 1.8.386.481 0 1.016.17 1.188.377.171.207.536.449.81.536.61.194 1.769 1.323 1.769 1.722 0 .159.202.515.45.789.375.417.45 1.007.45 3.587 0 2.644-.066 3.136-.45 3.418-.248.182-.45.575-.45.874 0 .298-.405.949-.9 1.445-.495.497-.9 1.023-.9 1.17 0 .146-.11.266-.245.266-.32 0-1.554 1.239-1.554 1.559 0 .135-.214.246-.475.246-.26 0-.683.232-.94.516-.255.284-.614.516-.797.516-.184 0-.451.203-.596.451-.22.38-.264.329-.278-.322-.01-.426-.24-1.238-.513-1.806-.273-.567-.5-1.342-.505-1.722-.006-.38-.165-.847-.355-1.038-.19-.19-.406-.888-.48-1.55-.075-.662-.325-1.393-.555-1.624-.24-.241-.419-.839-.419-1.402 0-.54-.157-1.113-.35-1.273-.192-.161-.42-.887-.506-1.614-.086-.728-.333-1.519-.55-1.759-1.185-1.315-.193-3.357 1.639-3.371.65-.005 1.47-.175 1.824-.377.807-.464.782-.464 1.888 0Zm28.895 5.791c-.53.289-1.296.527-1.703.527-.407 0-.879.166-1.047.37-.169.203-.636.443-1.038.532-.403.088-.796.328-.874.531-.079.205-.262.372-.41.372-.792 0-5.404 3.955-5.404 4.634a.265.265 0 0 1-.262.266c-.144 0-.403.319-.573.709-.171.39-.458.802-.638.915-.179.114-.326.535-.326.936s-.175.874-.388 1.052c-.213.177-.459.77-.546 1.316-.087.546-.317 1.125-.512 1.287-.202.169-.353.782-.353 1.432 0 .625-.174 1.554-.386 2.063-.492 1.181-.492 2.818 0 4.215.212.603.386 1.532.386 2.064 0 .545.168 1.108.385 1.289.212.176.386.523.386.77s.231.745.514 1.105c.283.361.514.904.514 1.208 0 .545 2.024 2.848 2.502 2.848.135 0 .456.232.711.516.256.284.667.516.912.516.246 0 .513.172.593.382.08.21.611.456 1.18.548.568.091 1.165.325 1.326.52.425.513 8.262.514 8.686.001.16-.194.778-.419 1.372-.499.594-.079 1.212-.326 1.374-.548.162-.223.543-.404.847-.404.304 0 .75-.232.993-.516.242-.284.531-.516.643-.516.93 0 5.73-4.453 6.012-5.575.079-.318.307-.639.506-.717.2-.076.362-.299.362-.493 0-.196.232-.566.515-.822.282-.257.514-.743.514-1.08 0-.337.165-.677.366-.754.202-.077.447-.625.546-1.217.1-.591.34-1.304.534-1.584.5-.72.504-8.055.004-8.782-.192-.28-.428-.944-.525-1.476-.11-.593-.322-.967-.551-.967-.223 0-.374-.25-.374-.619 0-.787-3.467-4.402-4.73-4.932-.49-.205-.963-.491-1.052-.635-.088-.143-.463-.261-.832-.261-.37 0-.896-.203-1.168-.452-.816-.741-7.667-.798-8.99-.075Zm7.805.518c2.033.564 4.34 1.544 4.34 1.842 0 .107.224.266.496.353 1.423.452 4.278 4.526 4.914 7.012 1.743 6.804-1.436 14.673-7.85 19.426-.767.568-1.506 1.032-1.643 1.032s-.403.145-.59.323c-1.764 1.679-8.697 2.781-11.766 1.871-3.816-1.132-7.724-4.152-7.724-5.969 0-.335-.107-.609-.237-.609s-.37-.435-.532-.967c-.162-.532-.431-1.246-.599-1.587-.9-1.84-.13-9.896 1.098-11.5.109-.142.27-.637.356-1.099.365-1.932 4.023-5.94 7.09-7.767.98-.585 1.86-1.063 1.955-1.063.096 0 .542-.175.992-.389 2.828-1.346 6.79-1.718 9.7-.909Zm-7.356 3.584c-8.392 3.48-5.97 14.993 3.154 14.992 2.848 0 6.916-2.543 7.428-4.642.086-.354.286-.807.442-1.005.592-.749.349-3.676-.394-4.754l-.68-.989-.277 1.293c-.812 3.795-6.13 4.795-8.599 1.617-1.516-1.952-.563-5.335 1.75-6.218.373-.142.606-.374.518-.516-.24-.39-2.178-.261-3.342.222Zm.9.809a.254.254 0 0 1-.247.258c-.136 0-.37.459-.52 1.02-.152.562-.388 1.09-.525 1.176-.318.197-.328 1.593-.013 1.788.13.081.315.502.41.936.095.433.33.849.524.923.193.074.422.357.507.627.086.271.338.492.56.492.222 0 .552.203.733.452.486.664 4.884.664 5.37-.002.179-.247.41-.45.511-.45.38 0 1.687-1.526 1.687-1.969 0-.432.029-.433.429-.032.559.561.049 3.776-.784 4.935-.876 1.221-1.61 1.966-1.934 1.966-.166 0-.63.243-1.029.539-.98.727-6.327.662-7.151-.088-.273-.248-.627-.451-.785-.451-.276 0-1.599-1.184-1.599-1.43 0-.064-.231-.349-.514-.633-.283-.284-.514-.792-.514-1.129 0-.337-.174-.757-.386-.934-.505-.421-.529-2.912-.03-3.327.194-.162.421-.63.503-1.04.138-.694 1.908-2.854 2.339-2.854.105 0 .486-.232.846-.515.69-.545 1.612-.693 1.612-.258Z" clip-rule="evenodd"/></svg>