<svg xmlns="http://www.w3.org/2000/svg" xmlns:xlink="http://www.w3.org/1999/xlink" width="250px" height="250px" viewBox="0 0 250 250" version="1.1">
<g id="surface1">
<path style=" stroke:none;fill-rule:nonzero;fill:rgb(99.607843%,99.607843%,99.607843%);fill-opacity:1;" d="M 0 0 C 82.5 0 165 0 250 0 C 250 82.5 250 165 250 250 C 167.5 250 85 250 0 250 C 0 167.5 0 85 0 0 Z M 0 0 "/>
<path style=" stroke:none;fill-rule:nonzero;fill:rgb(7.843137%,80.392157%,50.588235%);fill-opacity:1;" d="M 56 83 C 56.378906 83.179688 56.757812 83.359375 57.136719 83.535156 C 57.242188 83.585938 57.347656 83.636719 57.457031 83.6875 C 58.300781 84.085938 59.136719 84.5 59.96875 84.921875 C 61.140625 85.511719 62.316406 86.085938 63.5 86.648438 C 64.339844 87.046875 65.175781 87.457031 66.003906 87.875 C 66.460938 88.105469 66.917969 88.335938 67.375 88.5625 C 67.460938 88.605469 67.542969 88.648438 67.632812 88.691406 C 68.269531 89.007812 68.90625 89.328125 69.542969 89.644531 C 70.042969 89.894531 70.546875 90.144531 71.046875 90.394531 C 71.304688 90.523438 71.5625 90.652344 71.816406 90.78125 C 72.195312 90.96875 72.574219 91.15625 72.953125 91.34375 C 73.066406 91.402344 73.179688 91.457031 73.296875 91.515625 C 73.914062 91.824219 74.519531 92.144531 75.117188 92.488281 C 75.386719 92.632812 75.660156 92.742188 75.945312 92.851562 C 76.78125 93.171875 77.566406 93.585938 78.363281 93.992188 C 78.78125 94.203125 79.203125 94.414062 79.625 94.625 C 79.792969 94.707031 79.957031 94.792969 80.125 94.875 C 80.207031 94.917969 80.289062 94.957031 80.375 95 C 81.125 95.375 81.125 95.375 81.375 95.5 C 81.542969 95.582031 81.707031 95.667969 81.875 95.75 C 82.289062 95.957031 82.699219 96.164062 83.113281 96.371094 C 84.007812 96.820312 84.90625 97.261719 85.8125 97.6875 C 87.253906 98.367188 88.679688 99.074219 90.085938 99.828125 C 90.828125 100.222656 91.574219 100.589844 92.339844 100.9375 C 92.792969 101.144531 93.242188 101.367188 93.6875 101.59375 C 94.574219 102.042969 95.46875 102.46875 96.367188 102.894531 C 97.644531 103.496094 98.90625 104.128906 100.160156 104.78125 C 100.503906 104.957031 100.847656 105.136719 101.195312 105.3125 C 101.371094 105.402344 101.542969 105.492188 101.71875 105.585938 C 101.976562 105.71875 102.238281 105.851562 102.496094 105.984375 C 102.613281 106.046875 102.613281 106.046875 102.730469 106.109375 C 103.253906 106.371094 103.566406 106.417969 104.125 106.25 C 104.421875 106.125 104.699219 106 104.984375 105.859375 C 105.066406 105.816406 105.148438 105.777344 105.234375 105.738281 C 105.5 105.605469 105.765625 105.476562 106.03125 105.34375 C 106.21875 105.253906 106.402344 105.160156 106.589844 105.070312 C 107.847656 104.453125 109.097656 103.828125 110.351562 103.199219 C 111.335938 102.703125 112.328125 102.226562 113.324219 101.753906 C 114.136719 101.367188 114.945312 100.96875 115.75 100.5625 C 116.65625 100.105469 117.566406 99.660156 118.484375 99.226562 C 119.664062 98.667969 120.832031 98.085938 122 97.5 C 123.136719 96.929688 124.273438 96.363281 125.421875 95.820312 C 126.71875 95.207031 128 94.566406 129.277344 93.921875 C 130.488281 93.3125 131.707031 92.71875 132.929688 92.136719 C 134 91.628906 135.058594 91.097656 136.117188 90.566406 C 137.273438 89.984375 138.433594 89.417969 139.601562 88.867188 C 140.40625 88.484375 141.203125 88.089844 142 87.6875 C 142.902344 87.234375 143.808594 86.792969 144.71875 86.359375 C 146.507812 85.511719 148.273438 84.617188 150.042969 83.730469 C 150.152344 83.675781 150.152344 83.675781 150.265625 83.617188 C 150.433594 83.53125 150.601562 83.445312 150.769531 83.359375 C 150.855469 83.3125 150.945312 83.265625 151.035156 83.21875 C 151.15625 83.15625 151.15625 83.15625 151.28125 83.089844 C 151.605469 82.957031 151.800781 83 152.125 83.125 C 152.328125 83.214844 152.53125 83.3125 152.726562 83.414062 C 152.835938 83.46875 152.945312 83.527344 153.054688 83.585938 C 153.160156 83.640625 153.265625 83.695312 153.375 83.75 C 153.542969 83.832031 153.714844 83.917969 153.882812 84 C 154.242188 84.179688 154.59375 84.371094 154.945312 84.570312 C 155.410156 84.832031 155.882812 85.042969 156.375 85.25 C 156.53125 85.324219 156.683594 85.402344 156.839844 85.480469 C 157.183594 85.652344 157.527344 85.824219 157.871094 85.996094 C 158.679688 86.398438 159.480469 86.800781 160.265625 87.25 C 160.625 87.441406 161 87.59375 161.375 87.75 C 162 88.046875 162.605469 88.375 163.203125 88.71875 C 163.511719 88.886719 163.511719 88.886719 163.898438 89.042969 C 164.378906 89.246094 164.84375 89.476562 165.308594 89.714844 C 165.441406 89.777344 165.441406 89.777344 165.574219 89.84375 C 165.753906 89.9375 165.933594 90.027344 166.113281 90.117188 C 166.515625 90.320312 166.917969 90.523438 167.320312 90.722656 C 167.480469 90.804688 167.640625 90.882812 167.796875 90.964844 C 168.414062 91.273438 169.027344 91.578125 169.644531 91.886719 C 170.105469 92.117188 170.570312 92.351562 171.03125 92.582031 C 173.644531 93.894531 173.644531 93.894531 176.277344 95.160156 C 176.933594 95.464844 177.574219 95.789062 178.210938 96.132812 C 179.175781 96.648438 180.148438 97.144531 181.132812 97.628906 C 181.546875 97.835938 181.960938 98.042969 182.375 98.25 C 182.542969 98.332031 182.707031 98.417969 182.875 98.5 C 183.875 99 183.875 99 184.125 99.125 C 184.292969 99.207031 184.457031 99.292969 184.625 99.375 C 185.039062 99.582031 185.457031 99.789062 185.871094 100 C 186.722656 100.429688 187.574219 100.847656 188.4375 101.25 C 189.726562 101.851562 190.996094 102.476562 192.25 103.152344 C 193.273438 103.699219 194.3125 104.214844 195.367188 104.707031 C 196.589844 105.285156 197.789062 105.894531 199 106.5 C 199 122.214844 199 137.933594 199 154.125 C 197.265625 154.992188 195.535156 155.859375 193.75 156.75 C 192.964844 157.164062 192.183594 157.574219 191.375 158 C 190.796875 158.292969 190.214844 158.582031 189.636719 158.871094 C 188.855469 159.257812 188.078125 159.648438 187.296875 160.035156 C 187.09375 160.136719 186.890625 160.238281 186.6875 160.339844 C 185.496094 160.929688 184.316406 161.535156 183.144531 162.164062 C 182.6875 162.410156 182.222656 162.644531 181.757812 162.875 C 181.613281 162.945312 181.46875 163.019531 181.316406 163.09375 C 181.234375 163.136719 181.148438 163.175781 181.0625 163.21875 C 180.652344 163.425781 180.238281 163.628906 179.828125 163.835938 C 179.191406 164.15625 178.554688 164.472656 177.917969 164.789062 C 177.539062 164.976562 177.160156 165.167969 176.78125 165.355469 C 176.585938 165.453125 176.394531 165.546875 176.203125 165.644531 C 175.152344 166.167969 174.101562 166.699219 173.066406 167.257812 C 172.265625 167.6875 171.449219 168.09375 170.632812 168.496094 C 170.195312 168.714844 169.761719 168.929688 169.324219 169.148438 C 169.238281 169.191406 169.152344 169.234375 169.0625 169.28125 C 166.757812 170.425781 166.757812 170.425781 164.484375 171.617188 C 164.035156 171.859375 163.582031 172.085938 163.128906 172.3125 C 163.003906 172.375 163.003906 172.375 162.875 172.441406 C 162.6875 172.535156 162.496094 172.628906 162.308594 172.722656 C 161.339844 173.203125 160.371094 173.6875 159.402344 174.171875 C 159.140625 174.300781 158.875 174.433594 158.613281 174.5625 C 157.175781 175.277344 155.746094 176 154.332031 176.757812 C 152.242188 177.875 152.242188 177.875 151.75 177.875 C 151.75 162.242188 151.75 146.609375 151.75 130.5 C 150.292969 131.230469 150.292969 131.230469 148.835938 131.960938 C 147.261719 132.75 145.6875 133.53125 144.097656 134.285156 C 143.101562 134.757812 142.113281 135.25 141.125 135.75 C 139.867188 136.386719 138.605469 137.003906 137.335938 137.617188 C 137.257812 137.65625 137.179688 137.695312 137.097656 137.734375 C 136.234375 138.148438 135.375 138.5625 134.507812 138.964844 C 133.601562 139.390625 132.714844 139.835938 131.835938 140.3125 C 130.621094 140.960938 129.371094 141.539062 128.125 142.125 C 127.808594 142.273438 127.492188 142.421875 127.175781 142.574219 C 126.992188 142.660156 126.808594 142.746094 126.625 142.832031 C 125.65625 143.289062 124.703125 143.769531 123.75 144.25 C 123.578125 144.335938 123.40625 144.421875 123.238281 144.507812 C 123.152344 144.550781 123.070312 144.59375 122.980469 144.636719 C 121.238281 145.511719 119.496094 146.386719 117.730469 147.21875 C 116.550781 147.78125 115.386719 148.367188 114.222656 148.953125 C 113 149.566406 111.773438 150.167969 110.535156 150.753906 C 109.632812 151.183594 108.738281 151.628906 107.84375 152.078125 C 107.441406 152.28125 107.035156 152.480469 106.632812 152.683594 C 106.382812 152.808594 106.136719 152.933594 105.886719 153.058594 C 105.5625 153.222656 105.234375 153.386719 104.90625 153.546875 C 104.8125 153.59375 104.71875 153.644531 104.621094 153.695312 C 104.53125 153.738281 104.445312 153.777344 104.351562 153.824219 C 104.277344 153.859375 104.203125 153.898438 104.125 153.9375 C 103.523438 154.089844 102.964844 153.824219 102.429688 153.554688 C 102.296875 153.488281 102.164062 153.421875 102.027344 153.351562 C 101.882812 153.28125 101.742188 153.207031 101.59375 153.132812 C 101.445312 153.054688 101.292969 152.980469 101.144531 152.90625 C 100.746094 152.703125 100.347656 152.503906 99.953125 152.300781 C 99.324219 151.984375 98.695312 151.667969 98.066406 151.347656 C 97.914062 151.273438 97.761719 151.195312 97.609375 151.117188 C 96.628906 150.625 95.648438 150.140625 94.65625 149.679688 C 94.050781 149.402344 93.460938 149.101562 92.875 148.78125 C 92.378906 148.507812 91.882812 148.25 91.363281 148.023438 C 90.628906 147.703125 89.914062 147.335938 89.199219 146.976562 C 88.042969 146.390625 86.886719 145.8125 85.710938 145.265625 C 84.785156 144.832031 83.878906 144.367188 82.980469 143.878906 C 82.207031 143.464844 81.429688 143.09375 80.625 142.75 C 80.3125 142.601562 80.003906 142.445312 79.695312 142.289062 C 79.609375 142.246094 79.523438 142.203125 79.433594 142.15625 C 79.082031 141.980469 78.730469 141.804688 78.378906 141.625 C 77.367188 141.113281 76.347656 140.617188 75.320312 140.132812 C 74.519531 139.753906 73.730469 139.367188 72.953125 138.945312 C 71.457031 138.136719 69.914062 137.425781 68.371094 136.707031 C 67.398438 136.25 66.433594 135.78125 65.484375 135.273438 C 64.617188 134.808594 63.738281 134.375 62.851562 133.953125 C 61.371094 133.25 59.902344 132.523438 58.4375 131.789062 C 58.265625 131.703125 58.265625 131.703125 58.09375 131.617188 C 57.769531 131.457031 57.445312 131.292969 57.121094 131.132812 C 57.023438 131.082031 56.921875 131.03125 56.820312 130.980469 C 56.140625 130.640625 56.140625 130.640625 56 130.5 C 55.988281 130.246094 55.984375 129.996094 55.984375 129.742188 C 55.984375 129.664062 55.984375 129.582031 55.984375 129.5 C 55.984375 129.226562 55.984375 128.953125 55.984375 128.683594 C 55.984375 128.484375 55.984375 128.289062 55.984375 128.09375 C 55.984375 127.550781 55.984375 127.011719 55.984375 126.46875 C 55.984375 125.886719 55.984375 125.304688 55.984375 124.722656 C 55.984375 123.710938 55.984375 122.699219 55.988281 121.691406 C 55.988281 120.230469 55.988281 118.769531 55.988281 117.308594 C 55.988281 114.9375 55.988281 112.566406 55.992188 110.195312 C 55.992188 107.894531 55.992188 105.589844 55.992188 103.289062 C 55.992188 103.144531 55.992188 103.003906 55.992188 102.859375 C 55.992188 102.144531 55.992188 101.433594 55.992188 100.722656 C 55.996094 94.816406 55.996094 88.90625 56 83 Z M 56 83 "/>
<path style=" stroke:none;fill-rule:nonzero;fill:rgb(18.431373%,94.509804%,63.921569%);fill-opacity:1;" d="M 56 83 C 56.378906 83.179688 56.757812 83.359375 57.136719 83.535156 C 57.242188 83.585938 57.347656 83.636719 57.457031 83.6875 C 58.300781 84.085938 59.136719 84.5 59.96875 84.921875 C 61.140625 85.511719 62.316406 86.085938 63.5 86.648438 C 64.339844 87.046875 65.175781 87.457031 66.003906 87.875 C 66.460938 88.105469 66.917969 88.335938 67.375 88.5625 C 67.460938 88.605469 67.542969 88.648438 67.632812 88.691406 C 68.269531 89.007812 68.90625 89.328125 69.542969 89.644531 C 70.042969 89.894531 70.546875 90.144531 71.046875 90.394531 C 71.304688 90.523438 71.5625 90.652344 71.816406 90.78125 C 72.195312 90.96875 72.574219 91.15625 72.953125 91.34375 C 73.066406 91.402344 73.179688 91.457031 73.296875 91.515625 C 73.914062 91.824219 74.519531 92.144531 75.117188 92.488281 C 75.386719 92.632812 75.660156 92.742188 75.945312 92.851562 C 76.78125 93.171875 77.566406 93.585938 78.363281 93.992188 C 78.78125 94.203125 79.203125 94.414062 79.625 94.625 C 79.792969 94.707031 79.957031 94.792969 80.125 94.875 C 80.207031 94.917969 80.289062 94.957031 80.375 95 C 81.125 95.375 81.125 95.375 81.375 95.5 C 81.542969 95.582031 81.707031 95.667969 81.875 95.75 C 82.289062 95.957031 82.699219 96.164062 83.113281 96.371094 C 84.007812 96.820312 84.90625 97.261719 85.8125 97.6875 C 87.253906 98.367188 88.679688 99.074219 90.085938 99.828125 C 90.828125 100.222656 91.574219 100.589844 92.339844 100.9375 C 92.792969 101.144531 93.242188 101.367188 93.6875 101.59375 C 94.574219 102.042969 95.46875 102.46875 96.367188 102.894531 C 97.289062 103.328125 98.199219 103.785156 99.109375 104.242188 C 99.460938 104.417969 99.816406 104.59375 100.167969 104.769531 C 100.515625 104.945312 100.867188 105.117188 101.214844 105.292969 C 101.390625 105.378906 101.570312 105.46875 101.746094 105.554688 C 102.007812 105.6875 102.273438 105.816406 102.535156 105.949219 C 102.613281 105.988281 102.691406 106.027344 102.773438 106.066406 C 103.113281 106.238281 103.433594 106.414062 103.75 106.625 C 103.796875 106.960938 103.796875 106.960938 103.796875 107.394531 C 103.796875 107.476562 103.796875 107.554688 103.796875 107.640625 C 103.796875 107.910156 103.796875 108.183594 103.796875 108.453125 C 103.796875 108.648438 103.796875 108.84375 103.796875 109.039062 C 103.796875 109.582031 103.796875 110.121094 103.792969 110.660156 C 103.792969 111.242188 103.792969 111.820312 103.792969 112.402344 C 103.792969 113.410156 103.792969 114.417969 103.789062 115.425781 C 103.785156 116.882812 103.785156 118.339844 103.785156 119.796875 C 103.785156 122.160156 103.78125 124.519531 103.777344 126.882812 C 103.773438 129.179688 103.773438 131.476562 103.769531 133.773438 C 103.769531 133.914062 103.769531 134.054688 103.769531 134.203125 C 103.769531 134.910156 103.769531 135.621094 103.769531 136.332031 C 103.765625 142.21875 103.757812 148.109375 103.75 154 C 103.265625 153.910156 102.886719 153.777344 102.445312 153.554688 C 102.3125 153.488281 102.179688 153.421875 102.042969 153.351562 C 101.898438 153.28125 101.753906 153.207031 101.609375 153.132812 C 101.457031 153.054688 101.304688 152.980469 101.15625 152.90625 C 100.757812 152.703125 100.359375 152.503906 99.960938 152.300781 C 99.332031 151.984375 98.703125 151.667969 98.070312 151.347656 C 97.917969 151.273438 97.765625 151.195312 97.613281 151.117188 C 96.632812 150.625 95.648438 150.144531 94.652344 149.679688 C 94.050781 149.402344 93.460938 149.101562 92.875 148.78125 C 92.378906 148.507812 91.882812 148.25 91.363281 148.023438 C 90.628906 147.703125 89.914062 147.335938 89.199219 146.976562 C 88.042969 146.390625 86.886719 145.8125 85.710938 145.265625 C 84.785156 144.832031 83.878906 144.367188 82.980469 143.878906 C 82.207031 143.464844 81.429688 143.09375 80.625 142.75 C 80.3125 142.601562 80.003906 142.445312 79.695312 142.289062 C 79.609375 142.246094 79.523438 142.203125 79.433594 142.15625 C 79.082031 141.980469 78.730469 141.804688 78.378906 141.625 C 77.367188 141.113281 76.347656 140.617188 75.320312 140.132812 C 74.519531 139.753906 73.730469 139.367188 72.953125 138.945312 C 71.457031 138.136719 69.914062 137.425781 68.371094 136.707031 C 67.398438 136.25 66.433594 135.78125 65.484375 135.273438 C 64.617188 134.808594 63.738281 134.375 62.851562 133.953125 C 61.371094 133.25 59.902344 132.523438 58.4375 131.789062 C 58.265625 131.703125 58.265625 131.703125 58.09375 131.617188 C 57.769531 131.457031 57.445312 131.292969 57.121094 131.132812 C 57.023438 131.082031 56.921875 131.03125 56.820312 130.980469 C 56.140625 130.640625 56.140625 130.640625 56 130.5 C 55.988281 130.246094 55.984375 129.996094 55.984375 129.742188 C 55.984375 129.664062 55.984375 129.582031 55.984375 129.5 C 55.984375 129.226562 55.984375 128.953125 55.984375 128.683594 C 55.984375 128.484375 55.984375 128.289062 55.984375 128.09375 C 55.984375 127.550781 55.984375 127.011719 55.984375 126.46875 C 55.984375 125.886719 55.984375 125.304688 55.984375 124.722656 C 55.984375 123.710938 55.984375 122.699219 55.988281 121.691406 C 55.988281 120.230469 55.988281 118.769531 55.988281 117.308594 C 55.988281 114.9375 55.988281 112.566406 55.992188 110.195312 C 55.992188 107.894531 55.992188 105.589844 55.992188 103.289062 C 55.992188 103.144531 55.992188 103.003906 55.992188 102.859375 C 55.992188 102.144531 55.992188 101.433594 55.992188 100.722656 C 55.996094 94.816406 55.996094 88.90625 56 83 Z M 56 83 "/>
<path style=" stroke:none;fill-rule:nonzero;fill:rgb(7.843137%,80%,50.588235%);fill-opacity:1;" d="M 199 106.625 C 199 122.300781 199 137.976562 199 154.125 C 196.402344 155.425781 196.402344 155.425781 193.75 156.75 C 192.964844 157.164062 192.183594 157.574219 191.375 158 C 190.796875 158.292969 190.214844 158.582031 189.636719 158.871094 C 188.855469 159.257812 188.078125 159.648438 187.296875 160.035156 C 187.09375 160.136719 186.890625 160.238281 186.6875 160.339844 C 185.496094 160.929688 184.316406 161.535156 183.144531 162.164062 C 182.6875 162.410156 182.222656 162.644531 181.757812 162.875 C 181.539062 162.984375 181.539062 162.984375 181.316406 163.09375 C 181.191406 163.15625 181.191406 163.15625 181.0625 163.21875 C 180.652344 163.425781 180.238281 163.628906 179.828125 163.835938 C 179.191406 164.15625 178.554688 164.472656 177.917969 164.789062 C 177.539062 164.976562 177.160156 165.167969 176.78125 165.355469 C 176.585938 165.453125 176.394531 165.546875 176.203125 165.644531 C 175.152344 166.167969 174.101562 166.699219 173.066406 167.257812 C 172.265625 167.6875 171.449219 168.09375 170.632812 168.496094 C 170.195312 168.714844 169.761719 168.929688 169.324219 169.148438 C 169.238281 169.191406 169.152344 169.234375 169.0625 169.28125 C 166.757812 170.425781 166.757812 170.425781 164.484375 171.617188 C 164.035156 171.859375 163.582031 172.085938 163.128906 172.3125 C 163.003906 172.375 163.003906 172.375 162.875 172.441406 C 162.6875 172.535156 162.496094 172.628906 162.308594 172.722656 C 161.339844 173.203125 160.371094 173.6875 159.402344 174.171875 C 159.140625 174.300781 158.875 174.433594 158.613281 174.5625 C 157.175781 175.277344 155.746094 176 154.332031 176.757812 C 152.242188 177.875 152.242188 177.875 151.75 177.875 C 151.75 162.242188 151.75 146.609375 151.75 130.5 C 151.585938 130.542969 151.421875 130.582031 151.25 130.625 C 151.25 130.542969 151.25 130.460938 151.25 130.375 C 151.410156 130.347656 151.574219 130.316406 151.738281 130.289062 C 152.40625 130.140625 152.953125 129.859375 153.546875 129.53125 C 153.703125 129.449219 153.703125 129.449219 153.859375 129.363281 C 154.15625 129.199219 154.453125 129.039062 154.75 128.875 C 155.011719 128.730469 155.269531 128.589844 155.53125 128.445312 C 155.636719 128.386719 155.742188 128.332031 155.847656 128.269531 C 156.222656 128.074219 156.609375 127.914062 157 127.75 C 157.25 127.628906 157.5 127.503906 157.746094 127.378906 C 157.992188 127.253906 158.242188 127.128906 158.492188 127.007812 C 158.859375 126.824219 159.214844 126.632812 159.570312 126.429688 C 159.953125 126.214844 160.335938 126.027344 160.746094 125.859375 C 161.234375 125.648438 161.703125 125.394531 162.179688 125.152344 C 162.5 125 162.5 125 162.75 125 C 162.75 124.917969 162.75 124.835938 162.75 124.75 C 162.890625 124.699219 163.027344 124.652344 163.171875 124.601562 C 164.117188 124.246094 165 123.761719 165.875 123.25 C 166.125 123.125 166.125 123.125 166.398438 123.0625 C 166.511719 123.03125 166.511719 123.03125 166.625 123 C 166.667969 122.917969 166.707031 122.835938 166.75 122.75 C 167.042969 122.667969 167.332031 122.582031 167.625 122.5 C 167.667969 122.417969 167.707031 122.335938 167.75 122.25 C 168.378906 121.871094 169.011719 121.558594 169.75 121.5 C 169.75 121.417969 169.75 121.335938 169.75 121.25 C 169.875 121.25 169.996094 121.25 170.125 121.25 C 170.125 121.167969 170.125 121.085938 170.125 121 C 170.191406 120.976562 170.257812 120.953125 170.324219 120.929688 C 171.179688 120.609375 171.96875 120.195312 172.761719 119.75 C 172.851562 119.703125 172.941406 119.652344 173.03125 119.601562 C 173.109375 119.558594 173.1875 119.515625 173.269531 119.46875 C 173.5 119.375 173.5 119.375 174 119.375 C 174.042969 119.25 174.082031 119.128906 174.125 119 C 174.332031 118.902344 174.539062 118.808594 174.753906 118.722656 C 175.152344 118.5625 175.535156 118.367188 175.921875 118.171875 C 176.007812 118.128906 176.09375 118.085938 176.183594 118.039062 C 176.796875 117.730469 177.402344 117.410156 178.007812 117.085938 C 179.089844 116.503906 180.199219 115.980469 181.308594 115.453125 C 182.714844 114.785156 184.09375 114.078125 185.464844 113.34375 C 185.929688 113.09375 186.402344 112.859375 186.875 112.625 C 187.042969 112.542969 187.207031 112.457031 187.375 112.375 C 187.617188 112.253906 187.859375 112.132812 188.101562 112.011719 C 188.742188 111.695312 189.371094 111.363281 190 111.03125 C 190.824219 110.59375 191.65625 110.167969 192.492188 109.753906 C 193.144531 109.429688 193.789062 109.09375 194.429688 108.75 C 195.519531 108.171875 196.628906 107.636719 197.75 107.125 C 197.875 107.066406 198 107.011719 198.128906 106.953125 C 198.851562 106.625 198.851562 106.625 199 106.625 Z M 199 106.625 "/>
<path style=" stroke:none;fill-rule:nonzero;fill:rgb(18.431373%,94.509804%,63.921569%);fill-opacity:1;" d="M 151.5 83 C 151.957031 83.074219 152.316406 83.199219 152.726562 83.414062 C 152.890625 83.5 152.890625 83.5 153.054688 83.585938 C 153.160156 83.640625 153.265625 83.695312 153.375 83.75 C 153.542969 83.832031 153.714844 83.917969 153.882812 84 C 154.242188 84.179688 154.59375 84.371094 154.945312 84.570312 C 155.410156 84.832031 155.882812 85.042969 156.375 85.25 C 156.53125 85.324219 156.683594 85.402344 156.839844 85.480469 C 157.183594 85.652344 157.527344 85.824219 157.871094 85.996094 C 158.679688 86.398438 159.480469 86.800781 160.265625 87.25 C 160.625 87.441406 161 87.59375 161.375 87.75 C 162 88.046875 162.605469 88.375 163.203125 88.71875 C 163.511719 88.886719 163.511719 88.886719 163.898438 89.042969 C 164.378906 89.246094 164.84375 89.476562 165.308594 89.714844 C 165.398438 89.757812 165.484375 89.800781 165.574219 89.84375 C 165.753906 89.9375 165.933594 90.027344 166.113281 90.117188 C 166.515625 90.320312 166.917969 90.523438 167.320312 90.722656 C 167.480469 90.804688 167.640625 90.882812 167.796875 90.964844 C 168.414062 91.273438 169.027344 91.578125 169.644531 91.886719 C 170.105469 92.117188 170.570312 92.351562 171.03125 92.582031 C 173.644531 93.894531 173.644531 93.894531 176.277344 95.160156 C 176.933594 95.464844 177.574219 95.789062 178.210938 96.132812 C 179.175781 96.648438 180.148438 97.144531 181.132812 97.628906 C 181.546875 97.835938 181.960938 98.042969 182.375 98.25 C 182.542969 98.332031 182.707031 98.417969 182.875 98.5 C 183.875 99 183.875 99 184.125 99.125 C 184.292969 99.207031 184.457031 99.292969 184.625 99.375 C 185.039062 99.582031 185.457031 99.789062 185.871094 100 C 186.722656 100.429688 187.574219 100.847656 188.4375 101.25 C 189.726562 101.851562 190.996094 102.476562 192.25 103.152344 C 193.289062 103.707031 194.339844 104.222656 195.402344 104.726562 C 196.613281 105.300781 197.808594 105.898438 199 106.5 C 198.8125 106.875 198.496094 106.925781 198.128906 107.085938 C 196.765625 107.675781 195.4375 108.335938 194.128906 109.035156 C 193.496094 109.371094 192.859375 109.699219 192.21875 110.015625 C 191.554688 110.34375 190.894531 110.683594 190.242188 111.03125 C 190.167969 111.070312 190.09375 111.109375 190.015625 111.152344 C 189.644531 111.351562 189.277344 111.554688 188.910156 111.765625 C 188.492188 112.003906 188.070312 112.1875 187.625 112.375 C 187.386719 112.492188 187.148438 112.609375 186.910156 112.730469 C 186.742188 112.816406 186.574219 112.898438 186.40625 112.984375 C 185.804688 113.28125 185.214844 113.589844 184.625 113.90625 C 183.210938 114.65625 181.785156 115.367188 180.335938 116.046875 C 179.308594 116.527344 178.308594 117.046875 177.308594 117.578125 C 176.800781 117.847656 176.292969 118.109375 175.78125 118.367188 C 175.585938 118.464844 175.585938 118.464844 175.382812 118.566406 C 175.097656 118.703125 174.816406 118.828125 174.523438 118.945312 C 174.113281 119.078125 174.113281 119.078125 174 119.375 C 173.785156 119.472656 173.785156 119.472656 173.492188 119.578125 C 172.785156 119.847656 172.121094 120.183594 171.453125 120.535156 C 171.011719 120.761719 170.625 120.933594 170.125 121 C 170.125 121.082031 170.125 121.164062 170.125 121.25 C 170 121.25 169.878906 121.25 169.75 121.25 C 169.75 121.332031 169.75 121.414062 169.75 121.5 C 169.675781 121.53125 169.597656 121.566406 169.523438 121.601562 C 169.371094 121.667969 169.371094 121.667969 169.21875 121.734375 C 169.121094 121.777344 169.023438 121.820312 168.921875 121.867188 C 168.730469 121.953125 168.542969 122.042969 168.359375 122.140625 C 168.125 122.25 168.125 122.25 167.75 122.25 C 167.707031 122.375 167.667969 122.496094 167.625 122.625 C 167.335938 122.667969 167.046875 122.707031 166.75 122.75 C 166.707031 122.875 166.667969 122.996094 166.625 123.125 C 166.421875 123.222656 166.214844 123.316406 166.003906 123.398438 C 165.746094 123.5 165.503906 123.617188 165.257812 123.742188 C 165.175781 123.785156 165.089844 123.828125 165.007812 123.871094 C 164.921875 123.914062 164.835938 123.957031 164.75 124 C 163.277344 124.75 163.277344 124.75 162.75 124.75 C 162.75 124.832031 162.75 124.914062 162.75 125 C 162.582031 125.097656 162.410156 125.191406 162.242188 125.289062 C 162.101562 125.371094 162.101562 125.371094 161.957031 125.453125 C 161.640625 125.617188 161.316406 125.757812 160.984375 125.898438 C 160.566406 126.078125 160.164062 126.285156 159.757812 126.492188 C 159.589844 126.578125 159.421875 126.660156 159.253906 126.746094 C 159.171875 126.789062 159.085938 126.828125 159.003906 126.871094 C 158.667969 127.042969 158.335938 127.207031 158 127.375 C 157.746094 127.5 157.496094 127.628906 157.242188 127.753906 C 156.933594 127.910156 156.621094 128.066406 156.308594 128.21875 C 156.15625 128.292969 156.003906 128.371094 155.851562 128.445312 C 155.769531 128.488281 155.6875 128.527344 155.601562 128.570312 C 155.078125 128.832031 154.5625 129.097656 154.050781 129.371094 C 153.929688 129.433594 153.8125 129.496094 153.691406 129.5625 C 153.457031 129.6875 153.222656 129.8125 152.988281 129.9375 C 152.882812 129.992188 152.777344 130.050781 152.664062 130.109375 C 152.570312 130.160156 152.476562 130.210938 152.375 130.265625 C 152.125 130.375 152.125 130.375 151.75 130.375 C 151.75 114.78125 151.75 99.191406 151.75 83.125 C 151.667969 83.082031 151.585938 83.042969 151.5 83 Z M 151.5 83 "/>
<path style=" stroke:none;fill-rule:nonzero;fill:rgb(82.352941%,99.607843%,94.117647%);fill-opacity:1;" d="M 56.125 83 C 56.371094 83 56.621094 83 56.875 83 C 56.917969 83.125 56.957031 83.246094 57 83.375 C 57.164062 83.375 57.328125 83.375 57.5 83.375 C 57.5 83.457031 57.5 83.539062 57.5 83.625 C 57.664062 83.625 57.828125 83.625 58 83.625 C 58 83.707031 58 83.789062 58 83.875 C 58.164062 83.875 58.328125 83.875 58.5 83.875 C 58.5 83.957031 58.5 84.039062 58.5 84.125 C 58.664062 84.125 58.828125 84.125 59 84.125 C 59 84.207031 59 84.289062 59 84.375 C 59.308594 84.4375 59.308594 84.4375 59.625 84.5 C 59.625 84.582031 59.625 84.664062 59.625 84.75 C 59.125 84.59375 58.667969 84.410156 58.199219 84.175781 C 58.078125 84.113281 57.957031 84.050781 57.832031 83.988281 C 57.707031 83.925781 57.582031 83.863281 57.453125 83.796875 C 57.324219 83.734375 57.199219 83.667969 57.066406 83.601562 C 56.753906 83.441406 56.4375 83.285156 56.125 83.125 C 56.125 83.082031 56.125 83.042969 56.125 83 Z M 56.125 83 "/>
<path style=" stroke:none;fill-rule:nonzero;fill:rgb(83.529412%,98.823529%,94.117647%);fill-opacity:1;" d="M 121.25 145.5 C 121.125 145.875 121.125 145.875 120.800781 146.042969 C 120.667969 146.097656 120.535156 146.148438 120.398438 146.203125 C 120.199219 146.28125 120.199219 146.28125 119.996094 146.363281 C 119.707031 146.46875 119.425781 146.558594 119.125 146.625 C 119.125 146.707031 119.125 146.789062 119.125 146.875 C 119.054688 146.902344 118.984375 146.925781 118.910156 146.953125 C 118.820312 146.984375 118.726562 147.019531 118.632812 147.054688 C 118.496094 147.105469 118.496094 147.105469 118.355469 147.15625 C 118.128906 147.230469 118.128906 147.230469 118 147.375 C 117.792969 147.378906 117.582031 147.378906 117.375 147.375 C 117.65625 147.09375 117.902344 146.976562 118.261719 146.808594 C 118.386719 146.75 118.515625 146.6875 118.644531 146.625 C 118.777344 146.5625 118.910156 146.5 119.046875 146.4375 C 119.308594 146.3125 119.570312 146.191406 119.832031 146.066406 C 119.949219 146.011719 120.0625 145.957031 120.183594 145.902344 C 120.382812 145.804688 120.582031 145.707031 120.777344 145.605469 C 121 145.5 121 145.5 121.25 145.5 Z M 121.25 145.5 "/>
<path style=" stroke:none;fill-rule:nonzero;fill:rgb(80.392157%,99.215686%,93.72549%);fill-opacity:1;" d="M 184.375 99.25 C 184.703125 99.292969 185.035156 99.332031 185.375 99.375 C 185.375 99.457031 185.375 99.539062 185.375 99.625 C 185.472656 99.65625 185.570312 99.6875 185.671875 99.71875 C 186.246094 99.917969 186.8125 100.144531 187.375 100.375 C 187.375 100.5 187.375 100.621094 187.375 100.75 C 186.964844 100.589844 186.566406 100.417969 186.167969 100.230469 C 186.011719 100.15625 186.011719 100.15625 185.851562 100.078125 C 185.742188 100.027344 185.632812 99.976562 185.523438 99.921875 C 185.414062 99.871094 185.300781 99.816406 185.1875 99.761719 C 184.917969 99.632812 184.644531 99.503906 184.375 99.375 C 184.375 99.332031 184.375 99.292969 184.375 99.25 Z M 184.375 99.25 "/>
<path style=" stroke:none;fill-rule:nonzero;fill:rgb(83.529412%,98.823529%,93.333333%);fill-opacity:1;" d="M 179.75 163.75 C 179.832031 163.792969 179.914062 163.832031 180 163.875 C 179.917969 163.957031 179.835938 164.039062 179.75 164.125 C 179.625 164.125 179.503906 164.125 179.375 164.125 C 179.375 164.207031 179.375 164.289062 179.375 164.375 C 179.273438 164.414062 179.171875 164.457031 179.070312 164.5 C 178.933594 164.554688 178.800781 164.609375 178.664062 164.664062 C 178.53125 164.71875 178.398438 164.769531 178.265625 164.828125 C 177.90625 164.984375 177.582031 165.164062 177.25 165.375 C 177.167969 165.292969 177.085938 165.210938 177 165.125 C 177.453125 164.890625 177.90625 164.660156 178.359375 164.429688 C 178.554688 164.328125 178.554688 164.328125 178.75 164.226562 C 178.875 164.164062 178.996094 164.101562 179.125 164.039062 C 179.292969 163.953125 179.292969 163.953125 179.46875 163.863281 C 179.5625 163.824219 179.65625 163.789062 179.75 163.75 Z M 179.75 163.75 "/>
<path style=" stroke:none;fill-rule:nonzero;fill:rgb(34.901961%,91.764706%,69.411765%);fill-opacity:1;" d="M 79.625 142.125 C 79.953125 142.167969 80.285156 142.207031 80.625 142.25 C 80.667969 142.375 80.707031 142.496094 80.75 142.625 C 81.039062 142.667969 81.328125 142.707031 81.625 142.75 C 81.667969 142.875 81.707031 142.996094 81.75 143.125 C 81.914062 143.171875 82.082031 143.214844 82.25 143.25 C 82.292969 143.332031 82.332031 143.414062 82.375 143.5 C 81.664062 143.292969 81.03125 142.960938 80.375 142.625 C 80.222656 142.550781 80.074219 142.472656 79.921875 142.398438 C 79.824219 142.347656 79.726562 142.300781 79.625 142.25 C 79.625 142.207031 79.625 142.167969 79.625 142.125 Z M 79.625 142.125 "/>
<path style=" stroke:none;fill-rule:nonzero;fill:rgb(85.098039%,99.607843%,94.901961%);fill-opacity:1;" d="M 64.5 87.125 C 64.878906 87.199219 65.253906 87.277344 65.625 87.375 C 65.625 87.457031 65.625 87.539062 65.625 87.625 C 65.6875 87.636719 65.753906 87.652344 65.820312 87.664062 C 66.40625 87.828125 66.960938 88.09375 67.5 88.375 C 67.5 88.457031 67.5 88.539062 67.5 88.625 C 66.472656 88.222656 65.480469 87.75 64.5 87.25 C 64.5 87.207031 64.5 87.167969 64.5 87.125 Z M 64.5 87.125 "/>
<path style=" stroke:none;fill-rule:nonzero;fill:rgb(77.647059%,98.823529%,91.764706%);fill-opacity:1;" d="M 74.75 92.25 C 75.078125 92.292969 75.410156 92.332031 75.75 92.375 C 75.75 92.457031 75.75 92.539062 75.75 92.625 C 75.875 92.625 75.996094 92.625 76.125 92.625 C 76.125 92.707031 76.125 92.789062 76.125 92.875 C 76.210938 92.886719 76.296875 92.902344 76.382812 92.914062 C 76.828125 93.019531 77.207031 93.1875 77.625 93.375 C 77.625 93.457031 77.625 93.539062 77.625 93.625 C 77.09375 93.464844 76.621094 93.253906 76.128906 93 C 75.886719 92.878906 75.640625 92.773438 75.390625 92.671875 C 75 92.5 75 92.5 74.75 92.25 Z M 74.75 92.25 "/>
<path style=" stroke:none;fill-rule:nonzero;fill:rgb(82.745098%,99.607843%,94.117647%);fill-opacity:1;" d="M 96.5 150.5 C 96.890625 150.679688 97.28125 150.863281 97.671875 151.046875 C 97.839844 151.125 97.839844 151.125 98.007812 151.203125 C 98.113281 151.253906 98.222656 151.304688 98.332031 151.355469 C 98.429688 151.398438 98.527344 151.445312 98.628906 151.492188 C 98.875 151.625 98.875 151.625 99.125 151.875 C 99 151.917969 98.878906 151.957031 98.75 152 C 98.667969 151.957031 98.585938 151.917969 98.5 151.875 C 98.5 151.792969 98.5 151.710938 98.5 151.625 C 98.335938 151.625 98.171875 151.625 98 151.625 C 98 151.542969 98 151.460938 98 151.375 C 97.929688 151.355469 97.855469 151.339844 97.78125 151.320312 C 97.519531 151.253906 97.261719 151.191406 97 151.125 C 97 151.042969 97 150.960938 97 150.875 C 96.835938 150.875 96.671875 150.875 96.5 150.875 C 96.5 150.75 96.5 150.628906 96.5 150.5 Z M 96.5 150.5 "/>
<path style=" stroke:none;fill-rule:nonzero;fill:rgb(81.568627%,99.607843%,93.333333%);fill-opacity:1;" d="M 63 134 C 63.546875 134.210938 64.074219 134.453125 64.601562 134.703125 C 64.6875 134.742188 64.773438 134.785156 64.863281 134.828125 C 65.074219 134.925781 65.289062 135.023438 65.5 135.125 C 65.175781 135.246094 65.035156 135.261719 64.703125 135.140625 C 64.550781 135.054688 64.550781 135.054688 64.390625 134.96875 C 64.226562 134.882812 64.226562 134.882812 64.0625 134.792969 C 63.957031 134.738281 63.855469 134.683594 63.75 134.625 C 63.597656 134.546875 63.449219 134.472656 63.296875 134.398438 C 63.199219 134.347656 63.101562 134.300781 63 134.25 C 63 134.167969 63 134.085938 63 134 Z M 63 134 "/>
<path style=" stroke:none;fill-rule:nonzero;fill:rgb(82.745098%,98.823529%,94.509804%);fill-opacity:1;" d="M 121.25 98 C 120.921875 98.167969 120.59375 98.332031 120.265625 98.5 C 120.125 98.570312 120.125 98.570312 119.984375 98.644531 C 119.894531 98.691406 119.804688 98.734375 119.710938 98.78125 C 119.589844 98.84375 119.589844 98.84375 119.460938 98.90625 C 119.25 99 119.25 99 119 99 C 119.042969 98.875 119.082031 98.753906 119.125 98.625 C 119.289062 98.625 119.453125 98.625 119.625 98.625 C 119.625 98.542969 119.625 98.460938 119.625 98.375 C 119.75 98.375 119.871094 98.375 120 98.375 C 120 98.292969 120 98.210938 120 98.125 C 120.828125 97.859375 120.828125 97.859375 121.25 98 Z M 121.25 98 "/>
<path style=" stroke:none;fill-rule:nonzero;fill:rgb(78.431373%,98.823529%,92.54902%);fill-opacity:1;" d="M 182.875 98 C 182.917969 98.125 182.957031 98.246094 183 98.375 C 183.125 98.375 183.246094 98.375 183.375 98.375 C 183.375 98.457031 183.375 98.539062 183.375 98.625 C 183.492188 98.660156 183.613281 98.691406 183.734375 98.726562 C 184.125 98.875 184.125 98.875 184.375 99.25 C 183.664062 99.042969 183.027344 98.714844 182.375 98.375 C 182.539062 98.25 182.703125 98.128906 182.875 98 Z M 182.875 98 "/>
<path style=" stroke:none;fill-rule:nonzero;fill:rgb(21.568627%,78.431373%,55.686275%);fill-opacity:1;" d="M 170.5 168.125 C 170.625 168.207031 170.746094 168.289062 170.875 168.375 C 170.546875 168.542969 170.21875 168.707031 169.890625 168.875 C 169.75 168.945312 169.75 168.945312 169.609375 169.019531 C 169.519531 169.066406 169.429688 169.109375 169.335938 169.15625 C 169.253906 169.199219 169.171875 169.238281 169.085938 169.28125 C 168.875 169.375 168.875 169.375 168.625 169.375 C 168.625 169.292969 168.625 169.210938 168.625 169.125 C 168.75 169.125 168.871094 169.125 169 169.125 C 169 169.042969 169 168.960938 169 168.875 C 169.503906 168.648438 169.953125 168.457031 170.5 168.375 C 170.5 168.292969 170.5 168.210938 170.5 168.125 Z M 170.5 168.125 "/>
<path style=" stroke:none;fill-rule:nonzero;fill:rgb(83.529412%,98.823529%,93.72549%);fill-opacity:1;" d="M 139.375 136.5 C 139.375 136.625 139.375 136.746094 139.375 136.875 C 139.296875 136.90625 139.21875 136.941406 139.136719 136.976562 C 139.035156 137.019531 138.933594 137.0625 138.828125 137.109375 C 138.726562 137.152344 138.625 137.195312 138.519531 137.242188 C 138.234375 137.367188 138.234375 137.367188 138 137.625 C 137.671875 137.640625 137.671875 137.640625 137.375 137.625 C 137.582031 137.210938 138.039062 137.105469 138.445312 136.921875 C 138.578125 136.859375 138.578125 136.859375 138.714844 136.796875 C 138.933594 136.699219 139.15625 136.597656 139.375 136.5 Z M 139.375 136.5 "/>
<path style=" stroke:none;fill-rule:nonzero;fill:rgb(21.568627%,77.254902%,55.294118%);fill-opacity:1;" d="M 190.875 158.25 C 190.589844 158.394531 190.300781 158.542969 190.015625 158.6875 C 189.933594 158.730469 189.851562 158.769531 189.769531 158.8125 C 189.152344 159.125 189.152344 159.125 188.875 159.125 C 188.875 159.042969 188.875 158.960938 188.875 158.875 C 189 158.875 189.121094 158.875 189.25 158.875 C 189.25 158.792969 189.25 158.710938 189.25 158.625 C 189.449219 158.539062 189.652344 158.453125 189.851562 158.367188 C 189.964844 158.320312 190.074219 158.269531 190.191406 158.222656 C 190.5 158.125 190.5 158.125 190.875 158.25 Z M 190.875 158.25 "/>
<path style=" stroke:none;fill-rule:nonzero;fill:rgb(81.568627%,99.215686%,94.117647%);fill-opacity:1;" d="M 174.375 94.25 C 174.703125 94.292969 175.035156 94.332031 175.375 94.375 C 175.375 94.457031 175.375 94.539062 175.375 94.625 C 175.554688 94.675781 175.554688 94.675781 175.734375 94.726562 C 176.125 94.875 176.125 94.875 176.375 95.25 C 175.664062 95.042969 175.027344 94.714844 174.375 94.375 C 174.375 94.332031 174.375 94.292969 174.375 94.25 Z M 174.375 94.25 "/>
<path style=" stroke:none;fill-rule:nonzero;fill:rgb(18.039216%,77.254902%,54.117647%);fill-opacity:1;" d="M 120.5 98.375 C 120.5 98.457031 120.5 98.539062 120.5 98.625 C 120.316406 98.707031 120.136719 98.792969 119.953125 98.875 C 119.800781 98.945312 119.800781 98.945312 119.644531 99.015625 C 119.375 99.125 119.375 99.125 119.125 99.125 C 119.125 99.207031 119.125 99.289062 119.125 99.375 C 118.917969 99.375 118.710938 99.375 118.5 99.375 C 118.863281 99.089844 119.226562 98.871094 119.640625 98.664062 C 119.804688 98.582031 119.804688 98.582031 119.96875 98.5 C 120.25 98.375 120.25 98.375 120.5 98.375 Z M 120.5 98.375 "/>
<path style=" stroke:none;fill-rule:nonzero;fill:rgb(34.901961%,90.588235%,68.627451%);fill-opacity:1;" d="M 66.25 135.5 C 66.820312 135.566406 67.253906 135.707031 67.75 136 C 67.875 136.1875 67.875 136.1875 68 136.375 C 67.378906 136.1875 66.824219 135.925781 66.25 135.625 C 66.25 135.582031 66.25 135.542969 66.25 135.5 Z M 66.25 135.5 "/>
<path style=" stroke:none;fill-rule:nonzero;fill:rgb(32.156863%,91.764706%,68.235294%);fill-opacity:1;" d="M 64.5 134.625 C 64.707031 134.625 64.914062 134.625 65.125 134.625 C 65.125 134.707031 65.125 134.789062 65.125 134.875 C 65.21875 134.886719 65.3125 134.894531 65.40625 134.90625 C 65.8125 135.015625 65.976562 135.1875 66.25 135.5 C 65.628906 135.3125 65.074219 135.050781 64.5 134.75 C 64.5 134.707031 64.5 134.667969 64.5 134.625 Z M 64.5 134.625 "/>
<path style=" stroke:none;fill-rule:nonzero;fill:rgb(21.176471%,78.431373%,56.078431%);fill-opacity:1;" d="M 128.375 94.375 C 128.457031 94.417969 128.539062 94.457031 128.625 94.5 C 128.023438 94.980469 127.644531 95.203125 126.875 95.25 C 127.320312 94.878906 127.832031 94.578125 128.375 94.375 Z M 128.375 94.375 "/>
<path style=" stroke:none;fill-rule:nonzero;fill:rgb(33.333333%,92.156863%,68.235294%);fill-opacity:1;" d="M 159.875 87.125 C 160.054688 87.179688 160.234375 87.234375 160.414062 87.289062 C 160.515625 87.320312 160.613281 87.351562 160.71875 87.382812 C 161.011719 87.503906 161.167969 87.636719 161.375 87.875 C 161.210938 87.875 161.046875 87.875 160.875 87.875 C 160.875 87.792969 160.875 87.710938 160.875 87.625 C 160.628906 87.667969 160.378906 87.707031 160.125 87.75 C 160.125 87.625 160.125 87.503906 160.125 87.375 C 160.042969 87.375 159.960938 87.375 159.875 87.375 C 159.875 87.292969 159.875 87.210938 159.875 87.125 Z M 159.875 87.125 "/>
<path style=" stroke:none;fill-rule:nonzero;fill:rgb(78.039216%,99.215686%,92.54902%);fill-opacity:1;" d="M 94 101.75 C 94.289062 101.792969 94.578125 101.832031 94.875 101.875 C 94.875 101.957031 94.875 102.039062 94.875 102.125 C 95.082031 102.167969 95.289062 102.207031 95.5 102.25 C 95.5 102.332031 95.5 102.414062 95.5 102.5 C 94.972656 102.335938 94.492188 102.132812 94 101.875 C 94 101.832031 94 101.792969 94 101.75 Z M 94 101.75 "/>
<path style=" stroke:none;fill-rule:nonzero;fill:rgb(81.568627%,98.039216%,91.372549%);fill-opacity:1;" d="M 175.75 165.875 C 175.65625 166.117188 175.65625 166.117188 175.5 166.375 C 175.125 166.539062 174.882812 166.480469 174.5 166.375 C 174.660156 166.292969 174.824219 166.207031 174.984375 166.125 C 175.074219 166.078125 175.164062 166.03125 175.257812 165.984375 C 175.5 165.875 175.5 165.875 175.75 165.875 Z M 175.75 165.875 "/>
<path style=" stroke:none;fill-rule:nonzero;fill:rgb(82.352941%,99.215686%,93.333333%);fill-opacity:1;" d="M 79.125 94.375 C 79.332031 94.375 79.539062 94.375 79.75 94.375 C 79.75 94.457031 79.75 94.539062 79.75 94.625 C 80.121094 94.6875 80.121094 94.6875 80.5 94.75 C 80.542969 94.875 80.582031 94.996094 80.625 95.125 C 80.097656 94.960938 79.617188 94.757812 79.125 94.5 C 79.125 94.457031 79.125 94.417969 79.125 94.375 Z M 79.125 94.375 "/>
<path style=" stroke:none;fill-rule:nonzero;fill:rgb(20%,79.607843%,56.078431%);fill-opacity:1;" d="M 130 93.875 C 129.921875 93.886719 129.84375 93.894531 129.765625 93.90625 C 129.476562 93.976562 129.476562 93.976562 129.34375 94.257812 C 129.3125 94.335938 129.28125 94.417969 129.25 94.5 C 129.042969 94.457031 128.835938 94.417969 128.625 94.375 C 129.480469 93.703125 129.480469 93.703125 130 93.875 Z M 130 93.875 "/>
<path style=" stroke:none;fill-rule:nonzero;fill:rgb(22.745098%,78.431373%,56.078431%);fill-opacity:1;" d="M 132.125 92.5 C 132.207031 92.542969 132.289062 92.582031 132.375 92.625 C 132.152344 92.914062 131.980469 93.101562 131.617188 93.1875 C 131.371094 93.214844 131.125 93.234375 130.875 93.25 C 131.121094 93.003906 131.316406 92.882812 131.625 92.726562 C 131.710938 92.679688 131.800781 92.636719 131.890625 92.589844 C 131.96875 92.558594 132.046875 92.53125 132.125 92.5 Z M 132.125 92.5 "/>
<path style=" stroke:none;fill-rule:nonzero;fill:rgb(82.352941%,98.431373%,93.333333%);fill-opacity:1;" d="M 153.5 177 C 153.582031 177.042969 153.664062 177.082031 153.75 177.125 C 153.15625 177.625 153.15625 177.625 152.875 177.625 C 152.875 177.707031 152.875 177.789062 152.875 177.875 C 152.710938 177.792969 152.546875 177.710938 152.375 177.625 C 152.554688 177.515625 152.738281 177.410156 152.921875 177.304688 C 153.074219 177.214844 153.074219 177.214844 153.230469 177.125 C 153.320312 177.082031 153.40625 177.042969 153.5 177 Z M 153.5 177 "/>
<path style=" stroke:none;fill-rule:nonzero;fill:rgb(23.137255%,77.647059%,56.078431%);fill-opacity:1;" d="M 127.875 142.25 C 127.195312 142.558594 127.195312 142.558594 126.5 142.875 C 126.75 142.375 126.75 142.375 127.117188 142.210938 C 127.5 142.125 127.5 142.125 127.875 142.25 Z M 127.875 142.25 "/>
<path style=" stroke:none;fill-rule:nonzero;fill:rgb(22.745098%,79.215686%,56.470588%);fill-opacity:1;" d="M 183.875 161.25 C 184.121094 161.25 184.371094 161.25 184.625 161.25 C 184.457031 161.589844 184.273438 161.621094 183.929688 161.765625 C 183.828125 161.808594 183.722656 161.855469 183.617188 161.898438 C 183.535156 161.933594 183.457031 161.964844 183.375 162 C 183.375 161.917969 183.375 161.835938 183.375 161.75 C 183.539062 161.707031 183.703125 161.667969 183.875 161.625 C 183.875 161.5 183.875 161.378906 183.875 161.25 Z M 183.875 161.25 "/>
<path style=" stroke:none;fill-rule:nonzero;fill:rgb(21.176471%,77.254902%,55.294118%);fill-opacity:1;" d="M 108 152 C 107.839844 152.082031 107.675781 152.167969 107.515625 152.25 C 107.425781 152.296875 107.335938 152.34375 107.242188 152.390625 C 107 152.5 107 152.5 106.75 152.5 C 106.792969 152.335938 106.832031 152.171875 106.875 152 C 107.304688 151.894531 107.578125 151.878906 108 152 Z M 108 152 "/>
<path style=" stroke:none;fill-rule:nonzero;fill:rgb(85.882353%,99.607843%,95.686275%);fill-opacity:1;" d="M 71.25 138.125 C 71.738281 138.269531 72.109375 138.417969 72.5 138.75 C 72.335938 138.792969 72.171875 138.832031 72 138.875 C 72 138.792969 72 138.710938 72 138.625 C 71.753906 138.542969 71.503906 138.460938 71.25 138.375 C 71.25 138.292969 71.25 138.210938 71.25 138.125 Z M 71.25 138.125 "/>
<path style=" stroke:none;fill-rule:nonzero;fill:rgb(81.176471%,99.215686%,93.333333%);fill-opacity:1;" d="M 90.75 100.125 C 91.171875 100.191406 91.585938 100.265625 92 100.375 C 92 100.5 92 100.621094 92 100.75 C 91.054688 100.519531 91.054688 100.519531 90.75 100.125 Z M 90.75 100.125 "/>
<path style=" stroke:none;fill-rule:nonzero;fill:rgb(77.647059%,99.215686%,92.941176%);fill-opacity:1;" d="M 62.625 86.25 C 63.132812 86.308594 63.558594 86.359375 64 86.625 C 64 86.707031 64 86.789062 64 86.875 C 63.484375 86.800781 63.082031 86.621094 62.625 86.375 C 62.625 86.332031 62.625 86.292969 62.625 86.25 Z M 62.625 86.25 "/>
<path style=" stroke:none;fill-rule:nonzero;fill:rgb(84.313725%,99.215686%,94.117647%);fill-opacity:1;" d="M 157.125 85.625 C 157.941406 85.703125 157.941406 85.703125 158.242188 85.945312 C 158.285156 86.003906 158.328125 86.0625 158.375 86.125 C 157.890625 86.125 157.5625 85.949219 157.125 85.75 C 157.125 85.707031 157.125 85.667969 157.125 85.625 Z M 157.125 85.625 "/>
<path style=" stroke:none;fill-rule:nonzero;fill:rgb(80.784314%,98.039216%,92.54902%);fill-opacity:1;" d="M 130.625 140.75 C 130.707031 140.792969 130.789062 140.832031 130.875 140.875 C 130.671875 141.125 130.671875 141.125 130.375 141.375 C 129.96875 141.40625 129.96875 141.40625 129.625 141.375 C 129.941406 141.125 130.246094 140.902344 130.625 140.75 Z M 130.625 140.75 "/>
<path style=" stroke:none;fill-rule:nonzero;fill:rgb(86.27451%,99.607843%,95.686275%);fill-opacity:1;" d="M 192.25 103.125 C 193.066406 103.203125 193.066406 103.203125 193.367188 103.445312 C 193.410156 103.503906 193.453125 103.5625 193.5 103.625 C 193.375 103.6875 193.375 103.6875 193.25 103.75 C 193.007812 103.652344 193.007812 103.652344 192.734375 103.507812 C 192.644531 103.460938 192.554688 103.414062 192.460938 103.363281 C 192.390625 103.328125 192.320312 103.289062 192.25 103.25 C 192.25 103.207031 192.25 103.167969 192.25 103.125 Z M 192.25 103.125 "/>
<path style=" stroke:none;fill-rule:nonzero;fill:rgb(81.176471%,99.215686%,92.941176%);fill-opacity:1;" d="M 82.625 96.125 C 83.308594 96.167969 83.308594 96.167969 83.625 96.25 C 83.8125 96.507812 83.8125 96.507812 83.875 96.75 C 83.386719 96.605469 83.015625 96.457031 82.625 96.125 Z M 82.625 96.125 "/>
<path style=" stroke:none;fill-rule:nonzero;fill:rgb(18.823529%,79.215686%,55.686275%);fill-opacity:1;" d="M 135.75 90.875 C 135.648438 91.117188 135.648438 91.117188 135.5 91.375 C 135.375 91.417969 135.253906 91.457031 135.125 91.5 C 135 91.417969 134.878906 91.335938 134.75 91.25 C 135.46875 90.875 135.46875 90.875 135.75 90.875 Z M 135.75 90.875 "/>
<path style=" stroke:none;fill-rule:nonzero;fill:rgb(24.705882%,79.607843%,57.647059%);fill-opacity:1;" d="M 138 89.75 C 137.957031 89.875 137.917969 89.996094 137.875 90.125 C 137.632812 90.195312 137.632812 90.195312 137.375 90.25 C 137.292969 90.332031 137.210938 90.414062 137.125 90.5 C 137 90.417969 136.878906 90.335938 136.75 90.25 C 136.910156 90.167969 137.074219 90.082031 137.234375 90 C 137.324219 89.953125 137.414062 89.90625 137.507812 89.859375 C 137.75 89.75 137.75 89.75 138 89.75 Z M 138 89.75 "/>
<path style=" stroke:none;fill-rule:nonzero;fill:rgb(18.823529%,77.647059%,54.509804%);fill-opacity:1;" d="M 164.625 171.5 C 164.128906 171.746094 164.128906 171.746094 163.625 172 C 163.582031 171.875 163.542969 171.753906 163.5 171.625 C 164.203125 171.359375 164.203125 171.359375 164.625 171.5 Z M 164.625 171.5 "/>
<path style=" stroke:none;fill-rule:nonzero;fill:rgb(84.705882%,98.823529%,93.72549%);fill-opacity:1;" d="M 189.625 158.75 C 189.707031 158.792969 189.789062 158.832031 189.875 158.875 C 189.75 158.917969 189.628906 158.957031 189.5 159 C 189.457031 159.125 189.417969 159.246094 189.375 159.375 C 189.128906 159.375 188.878906 159.375 188.625 159.375 C 188.941406 159.125 189.246094 158.902344 189.625 158.75 Z M 189.625 158.75 "/>
<path style=" stroke:none;fill-rule:nonzero;fill:rgb(86.27451%,99.607843%,94.901961%);fill-opacity:1;" d="M 75.875 140.375 C 76.203125 140.5 76.535156 140.621094 76.875 140.75 C 76.832031 140.832031 76.792969 140.914062 76.75 141 C 76.542969 140.957031 76.335938 140.917969 76.125 140.875 C 76.125 140.792969 76.125 140.710938 76.125 140.625 C 76.042969 140.625 75.960938 140.625 75.875 140.625 C 75.875 140.542969 75.875 140.460938 75.875 140.375 Z M 75.875 140.375 "/>
<path style=" stroke:none;fill-rule:nonzero;fill:rgb(83.137255%,99.215686%,94.117647%);fill-opacity:1;" d="M 92.25 100.875 C 92.339844 100.894531 92.429688 100.910156 92.523438 100.929688 C 92.699219 100.964844 92.699219 100.964844 92.875 101 C 93.082031 101.042969 93.292969 101.082031 93.5 101.125 C 93.5 101.25 93.5 101.371094 93.5 101.5 C 93.011719 101.355469 92.640625 101.207031 92.25 100.875 Z M 92.25 100.875 "/>
<path style=" stroke:none;fill-rule:nonzero;fill:rgb(82.745098%,98.823529%,92.54902%);fill-opacity:1;" d="M 144.625 86.5 C 143.78125 87 143.78125 87 143.5 87 C 143.625 86.625 143.625 86.625 143.851562 86.46875 C 144.167969 86.359375 144.316406 86.390625 144.625 86.5 Z M 144.625 86.5 "/>
<path style=" stroke:none;fill-rule:nonzero;fill:rgb(21.960784%,78.823529%,56.470588%);fill-opacity:1;" d="M 153.5 177.125 C 153.003906 177.371094 153.003906 177.371094 152.5 177.625 C 152.542969 177.460938 152.582031 177.296875 152.625 177.125 C 153 177.007812 153.109375 176.996094 153.5 177.125 Z M 153.5 177.125 "/>
<path style=" stroke:none;fill-rule:nonzero;fill:rgb(30.980392%,90.980392%,65.882353%);fill-opacity:1;" d="M 79.625 142.125 C 79.953125 142.167969 80.285156 142.207031 80.625 142.25 C 80.667969 142.375 80.707031 142.496094 80.75 142.625 C 80.355469 142.539062 79.996094 142.40625 79.625 142.25 C 79.625 142.207031 79.625 142.167969 79.625 142.125 Z M 79.625 142.125 "/>
<path style=" stroke:none;fill-rule:nonzero;fill:rgb(84.705882%,99.607843%,96.078431%);fill-opacity:1;" d="M 198 106 C 198.328125 106 198.660156 106 199 106 C 199 106.164062 199 106.328125 199 106.5 C 198.28125 106.28125 198.28125 106.28125 198 106 Z M 198 106 "/>
<path style=" stroke:none;fill-rule:nonzero;fill:rgb(86.27451%,99.607843%,96.078431%);fill-opacity:1;" d="M 182.875 98 C 182.917969 98.125 182.957031 98.246094 183 98.375 C 183.125 98.375 183.246094 98.375 183.375 98.375 C 183.375 98.457031 183.375 98.539062 183.375 98.625 C 182.65625 98.53125 182.65625 98.53125 182.375 98.25 C 182.539062 98.167969 182.703125 98.085938 182.875 98 Z M 182.875 98 "/>
<path style=" stroke:none;fill-rule:nonzero;fill:rgb(21.960784%,76.862745%,54.509804%);fill-opacity:1;" d="M 133.5 91.875 C 133.582031 91.917969 133.664062 91.957031 133.75 92 C 133.625 92.1875 133.625 92.1875 133.5 92.375 C 133.109375 92.398438 133.109375 92.398438 132.75 92.375 C 133.007812 92.09375 133.125 92 133.5 91.875 Z M 133.5 91.875 "/>
<path style=" stroke:none;fill-rule:nonzero;fill:rgb(82.352941%,99.215686%,94.901961%);fill-opacity:1;" d="M 163.125 88.625 C 163.71875 88.679688 163.988281 88.789062 164.375 89.25 C 163.429688 89.019531 163.429688 89.019531 163.125 88.625 Z M 163.125 88.625 "/>
</g>
</svg>
