<svg fill="none" height="250" viewBox="0 0 137 48" width="250" xmlns="http://www.w3.org/2000/svg"><path d="M105.602 7.12609C106.11 6.9815 106.7 7.06617 107.107 7.41788C107.78 7.98322 107.761 9.17904 107.046 9.7027C106.319 10.2576 105.069 10.0466 104.702 9.16471C104.333 8.39095 104.752 7.34493 105.602 7.12609Z" fill="#EBEDFF"></path><path d="M62.1183 8.29218C63.4795 8.29609 64.8408 8.28306 66.2033 8.29869C67.377 8.34168 68.664 8.56703 69.5172 9.44631C70.7938 10.7867 70.4447 13.3047 68.7565 14.1488C69.6488 14.4289 70.4733 15.062 70.7755 15.9738C71.2054 17.2803 70.9149 18.8748 69.8624 19.8087C68.9076 20.6633 67.5815 20.9342 66.3362 20.9655C64.9306 20.972 63.5238 20.9668 62.1183 20.9681C62.1183 16.7423 62.117 12.5179 62.1183 8.29218ZM64.2337 10.1732C64.235 11.2426 64.2324 12.3108 64.235 13.3803C65.2993 13.3464 66.43 13.5131 67.4291 13.0559C68.1507 12.7289 68.3175 11.7924 68.0921 11.102C67.9319 10.6265 67.4343 10.392 66.9771 10.2943C66.0756 10.1015 65.1482 10.1953 64.2337 10.1732ZM64.235 15.2613C64.2337 16.5365 64.2363 17.8118 64.2337 19.0871C65.4803 19.0389 66.8168 19.2734 67.9762 18.6911C68.8255 18.2782 69.0522 17.1527 68.7278 16.3307C68.509 15.811 67.9632 15.5374 67.4421 15.4137C66.3909 15.1675 65.3032 15.2912 64.235 15.2613Z" fill="#EBEDFF"></path><path d="M115.029 11.3975C117.069 10.6927 119.4 11.1812 121.121 12.4409C120.76 12.9255 120.397 13.4061 120.031 13.8868C118.984 13.113 117.65 12.7014 116.35 12.8864C115.995 12.9437 115.615 13.0479 115.37 13.3293C115.125 13.6041 115.114 14.1004 115.431 14.3271C115.852 14.6293 116.369 14.7504 116.863 14.8807C117.939 15.1334 119.047 15.3288 120.047 15.8264C120.575 16.0869 121.074 16.4829 121.305 17.0418C121.651 17.8976 121.533 18.9488 120.931 19.6627C120.323 20.4143 119.38 20.8025 118.448 20.9614C116.335 21.3183 114.118 20.7061 112.404 19.4412C112.752 18.9423 113.096 18.4421 113.441 17.9406C114.788 18.9905 116.572 19.4907 118.263 19.1885C118.784 19.0843 119.414 18.7248 119.354 18.1086C119.347 17.6345 118.851 17.4169 118.477 17.2684C117.032 16.7331 115.384 16.7226 114.092 15.8043C113.351 15.321 112.938 14.3987 113.101 13.5234C113.234 12.4982 114.083 11.7153 115.029 11.3975Z" fill="#EBEDFF"></path><path d="M77.0497 12.2572C78.1843 11.2243 79.935 10.8869 81.3445 11.5278C81.7183 11.6893 82.0505 11.9264 82.3749 12.1674C82.41 11.9199 82.4465 11.6737 82.483 11.4275C83.0705 11.4262 83.6579 11.4262 84.2467 11.4262C84.248 14.6072 84.2467 17.7869 84.2467 20.9679C83.6423 20.9692 83.0392 20.9679 82.4348 20.9679C82.4022 20.6683 82.3696 20.3674 82.3397 20.0678C81.6962 20.5915 80.9459 21.0122 80.1187 21.1477C78.82 21.3379 77.4014 20.8833 76.5547 19.8542C75.6937 18.829 75.411 17.4456 75.4227 16.1378C75.4305 14.7023 75.9542 13.2225 77.0497 12.2572ZM77.6255 15.5477C77.5082 16.5455 77.5994 17.6423 78.1934 18.4864C78.6767 19.1742 79.5989 19.4373 80.3988 19.2589C81.0879 19.1195 81.6545 18.6623 82.13 18.1673C82.1287 16.7578 82.1313 15.3471 82.1287 13.9376C81.4252 13.3072 80.4417 12.8903 79.496 13.1613C78.4318 13.4413 77.7583 14.5017 77.6255 15.5477Z" fill="#EBEDFF"></path><path d="M91.4228 11.5552C93.477 10.8075 95.8491 11.2947 97.5894 12.5712C97.2286 13.0545 96.8626 13.5352 96.5017 14.0185C95.388 13.1835 93.9225 12.7692 92.547 13.0689C92.0832 13.1561 91.5921 13.5261 91.6651 14.051C91.7328 14.4939 92.22 14.6568 92.5847 14.7922C94.0762 15.2833 95.7462 15.3563 97.0632 16.289C97.906 16.8712 98.1418 18.0345 97.8474 18.9737C97.6142 19.7084 97.0267 20.2841 96.3493 20.6267C95.4101 21.1022 94.3316 21.2285 93.2908 21.179C91.7002 21.1009 90.1605 20.5017 88.8735 19.5742C89.2174 19.0701 89.5691 18.5712 89.9117 18.067C91.2495 19.117 93.0237 19.6107 94.7067 19.3215C95.2473 19.2238 95.8973 18.8525 95.8231 18.2142C95.8009 17.7388 95.2968 17.5395 94.9217 17.3858C93.4757 16.8621 91.8279 16.8439 90.5422 15.9177C89.8531 15.4501 89.4402 14.6112 89.5561 13.7788C89.6343 12.7302 90.468 11.8952 91.4228 11.5552Z" fill="#EBEDFF"></path><path d="M101.035 13.1193C101.034 12.511 101.034 11.904 101.035 11.2957C103.124 11.297 105.214 11.2957 107.303 11.297C107.303 14.4767 107.303 17.6577 107.303 20.8374C106.597 20.8374 105.892 20.8374 105.186 20.8374C105.185 18.2647 105.186 15.692 105.186 13.1206C103.802 13.1193 102.418 13.1206 101.035 13.1193Z" fill="#EBEDFF"></path><path d="M62.1177 26.2215C64.8154 26.2162 67.5132 26.2202 70.2109 26.2202C70.2109 30.7702 70.2109 35.3216 70.2109 39.873C69.5049 39.873 68.8002 39.873 68.0941 39.8717C68.0928 35.9534 68.0941 32.0351 68.0941 28.1168C66.1024 28.1155 64.1107 28.1181 62.119 28.1168C62.1177 27.485 62.119 26.8532 62.1177 26.2215Z" fill="#EBEDFF"></path><path d="M76.033 26.2201C76.7391 26.2188 77.4438 26.2201 78.1498 26.2188C78.1329 27.9812 78.1941 29.745 78.0899 31.5048C78.8337 30.8131 79.7612 30.2595 80.7929 30.1787C81.7855 30.0954 82.8888 30.3025 83.5987 31.0541C84.3451 31.8266 84.5327 32.9534 84.5457 33.9889C84.5523 35.9689 84.547 37.9489 84.5483 39.9289C83.8397 39.9303 83.1311 39.9289 82.4238 39.9289C82.4224 37.9932 82.4251 36.0575 82.4224 34.1218C82.4081 33.5734 82.3469 32.9742 81.9822 32.5365C81.5966 32.0936 80.9518 32.048 80.406 32.091C79.4733 32.1809 78.7738 32.8778 78.1485 33.5083C78.1511 35.6485 78.1498 37.7887 78.1485 39.9289C77.4425 39.9303 76.7378 39.929 76.0317 39.9303C76.033 35.3593 76.0317 30.7897 76.033 26.2201Z" fill="#EBEDFF"></path><path d="M90.168 31.7639C91.5566 30.1865 94.012 29.7214 95.9022 30.615C96.8505 31.0436 97.5786 31.8942 97.9134 32.8738C98.2443 33.8364 98.2755 34.889 98.0762 35.8842C95.7484 35.8829 93.4219 35.8816 91.0954 35.8842C91.2335 36.7595 91.7389 37.6049 92.5674 37.9788C94.0342 38.7057 95.8084 38.3162 97.0902 37.3835C97.3663 37.8863 97.6464 38.3865 97.9251 38.888C96.9052 39.5915 95.7133 40.0956 94.4627 40.1464C93.0455 40.2363 91.5553 39.8546 90.4871 38.8867C88.5201 37.1099 88.4198 33.7244 90.168 31.7639ZM92.3538 32.3866C91.7337 32.7644 91.3481 33.4183 91.1619 34.1061C92.8423 34.1113 94.5227 34.1087 96.2044 34.1074C96.1028 33.4248 95.8305 32.707 95.2209 32.3254C94.365 31.79 93.194 31.8447 92.3538 32.3866Z" fill="#EBEDFF"></path><path d="M105.728 30.2921C107.184 29.9482 108.817 30.2817 109.954 31.2756C112.146 33.2074 112.157 37.1166 109.95 39.0419C108.199 40.5673 105.305 40.5113 103.628 38.896C101.991 37.3341 101.755 34.6794 102.698 32.6903C103.278 31.4866 104.424 30.5839 105.728 30.2921ZM106.12 32.1288C105.581 32.2916 105.116 32.6642 104.825 33.1449C104.338 33.9356 104.238 34.9086 104.351 35.8153C104.458 36.6255 104.828 37.4579 105.537 37.9125C106.472 38.5143 107.841 38.3971 108.609 37.5725C109.215 36.9342 109.435 36.0198 109.43 35.16C109.429 34.269 109.196 33.3155 108.538 32.6772C107.918 32.0546 106.946 31.8826 106.12 32.1288Z" fill="#EBEDFF"></path><path d="M115.549 30.3925C118.068 30.3808 120.587 30.3912 123.105 30.3873C123.105 30.993 123.105 31.5974 123.105 32.2032C121.292 32.2045 119.48 32.2032 117.668 32.2045C117.665 34.7785 117.669 37.3538 117.665 39.9291C116.961 39.9304 116.255 39.9304 115.55 39.9291C115.55 36.7506 115.551 33.5722 115.549 30.3925Z" fill="#EBEDFF"></path><path d="M125.923 30.3898C126.656 30.3859 127.389 30.3872 128.123 30.3885C129.158 32.7606 130.228 35.1171 131.231 37.5035C132.091 35.1119 133.051 32.758 133.972 30.3885C134.675 30.3859 135.38 30.3885 136.084 30.3872C134.902 33.2843 133.718 36.1813 132.535 39.0784C131.973 40.3719 131.593 41.8282 130.509 42.8078C129.416 43.8369 127.728 44.0192 126.356 43.4969C126.507 42.9016 126.663 42.3089 126.818 41.7162C127.497 41.9598 128.299 42.0275 128.934 41.6276C129.635 41.1964 129.956 40.3953 130.224 39.6554C128.786 36.5695 127.354 33.4784 125.923 30.3898Z" fill="#EBEDFF"></path><path clip-rule="evenodd" d="M48 0H0V48H48V0ZM26.4646 13.7658C23.6431 13.7645 20.8215 13.7633 18 13.7688C18.001 14.2407 18.001 14.7127 18.001 15.1846C18.001 15.6565 18.001 16.1285 18.0019 16.6004C19.4896 16.6014 20.9773 16.6009 22.465 16.6004C23.953 16.6 25.441 16.5995 26.9291 16.6004C26.9291 18.5518 26.9289 20.5032 26.9286 22.4545C26.9282 26.3573 26.9278 30.26 26.9291 34.1628C27.9839 34.1647 29.0368 34.1647 30.0916 34.1647V13.7668C28.8826 13.7668 27.6736 13.7663 26.4646 13.7658Z" fill="#E5E6EC" fill-rule="evenodd"></path></svg>