<svg xmlns="http://www.w3.org/2000/svg" width="250" height="250" fill="none"><g clip-path="url(#a)"><path fill="#ED7D1A" d="m99.244 72.594 21.639 37.476a15.506 15.506 0 0 1 10.594.945l11.376-19.702-19.014-32.924-24.818 14.333h.002l.22-.128Zm-32.62 48.479h43.287a15.443 15.443 0 0 1 1.54-3.763 15.431 15.431 0 0 1 4.563-4.959l-11.373-19.696H66.613v28.663h.012v-.245Zm71.74 11.776a15.44 15.44 0 0 1-4.555 4.953l11.383 19.712h38.017V129.1h-43.303a15.812 15.812 0 0 1-1.542 3.75v-.001Zm-2.485-18.75a15.506 15.506 0 0 1 4.501 9.647h22.743l19.013-32.926-24.606-14.21-21.65 37.489h-.001Zm-43.591 59.464 21.651-37.505a15.601 15.601 0 0 1-4.497-9.63H86.687l-19.013 32.91 24.812 14.342-.198-.117Zm58.292 4.005-21.634-37.477a15.435 15.435 0 0 1-10.602-.939l-11.379 19.708 19.002 32.915 24.82-14.326-.207.119Z"/><path fill="#5282B0" d="M124.916 28.177C71.477 28.177 28 71.642 28 125.073 28 178.518 71.477 222 124.916 222c53.434 0 96.901-43.482 96.901-96.927.001-53.43-43.467-96.896-96.9-96.896h-.001Zm0 19.62c42.68 0 77.279 34.593 77.279 77.276 0 42.693-34.599 77.306-77.279 77.306-42.686 0-77.29-34.613-77.29-77.306 0-42.683 34.604-77.278 77.29-77.278v.001Z"/></g><defs><clipPath id="a"><path fill="#fff" d="M28 28h194v194H28z"/></clipPath></defs></svg>