<svg xmlns="http://www.w3.org/2000/svg" width="250" height="250" fill="none"><path fill="url(#a)" fill-rule="evenodd" d="M57.364 37.095 41.3 46.483v12.944L32 51.603 55.673 194.13l.027.012C56.734 210.71 87.365 224 125 224c37.634 0 68.264-13.289 69.3-29.857l.027-.014L218 51.604l-6.764 3.657v-5.364l-15.218-12.802-32.127-6.828-24.518-2.56h-26.209l-29.591 2.56-26.21 6.828Z" clip-rule="evenodd"/><path fill="#F2B0A9" fill-rule="evenodd" d="M125 77.207c51.362 0 93-11.463 93-25.604C218 37.463 176.362 26 125 26S32 37.463 32 51.603c0 14.14 41.638 25.604 93 25.604Zm0-4.19c42.958 0 77.782-9.587 77.782-21.414 0-11.826-34.824-21.413-77.782-21.413s-77.782 9.587-77.782 21.413c0 11.827 34.824 21.414 77.782 21.414Z" clip-rule="evenodd"/><defs><linearGradient id="a" x1="52.291" x2="195.173" y1="119.856" y2="119.856" gradientUnits="userSpaceOnUse"><stop stop-color="#8C3123"/><stop offset="1" stop-color="#E05243"/></linearGradient></defs></svg>