<svg width="250" height="250" viewBox="0 0 512 512" fill="none" xmlns="http://www.w3.org/2000/svg">
<rect x="90" y="89" width="332" height="333" fill="white"/>
<g clip-path="url(#clip0_2585_677)">
<path d="M214.251 196.397C201.199 196.314 188.278 199.014 176.344 204.317V144H126V364.21H176.344V356.78C188.337 361.85 201.237 364.407 214.251 364.295C264.658 364.295 301.758 328.399 301.758 280.218C301.758 232.037 265.55 196.397 214.251 196.397ZM214.505 316.519C193.514 316.583 178.657 301.339 178.657 280.58C178.657 259.822 194.151 244.173 214.569 244.173C235.793 244.173 250.863 259.417 250.863 280.367C250.863 301.317 235.432 316.583 214.505 316.583V316.519Z" fill="#00101E"/>
<path d="M348.706 295.569C369.931 295.569 385 310.834 385 331.763C385 352.692 369.634 367.957 348.706 367.957C327.779 367.957 312.795 352.756 312.795 331.976C312.795 311.196 328.31 295.569 348.706 295.569ZM348.706 295.569C369.931 295.569 385 310.834 385 331.763C385 352.692 369.634 367.957 348.706 367.957C327.779 367.957 312.795 352.756 312.795 331.976C312.795 311.196 328.31 295.569 348.706 295.569Z" fill="#F9C806"/>
</g>
<defs>
<clipPath id="clip0_2585_677">
<rect width="259" height="224" fill="white" transform="translate(126 144)"/>
</clipPath>
</defs>
</svg>
