<svg version="1.1" id="Layer_1" xmlns="http://www.w3.org/2000/svg" xmlns:xlink="http://www.w3.org/1999/xlink" x="0px" y="0px"
	 width="100%" viewBox="0 0 225 225" enable-background="new 0 0 225 225" xml:space="preserve">
<path fill="#FEFEFE" opacity="1.000000" stroke="none" 
	d="
M129.000000,226.000000 
	C86.000000,226.000000 43.500004,226.000000 1.000006,226.000000 
	C1.000004,151.000000 1.000004,76.000015 1.000002,1.000016 
	C75.999992,1.000010 150.999985,1.000010 225.999969,1.000005 
	C225.999985,75.999985 225.999985,150.999969 226.000000,225.999969 
	C193.833328,226.000000 161.666672,226.000000 129.000000,226.000000 
M69.973061,102.504059 
	C69.973061,102.504059 70.041847,102.982048 69.808998,103.896606 
	C69.808998,112.335602 69.808998,120.774590 69.808998,129.510544 
	C71.119736,129.411667 72.552498,129.451477 72.578217,129.280106 
	C73.288551,124.547188 73.855843,119.792809 74.484924,114.736115 
	C78.253868,114.736115 82.072632,114.891731 85.866493,114.652458 
	C87.210342,114.567703 88.493492,113.520592 89.804352,112.912827 
	C88.429756,112.223076 87.091370,111.043175 85.673546,110.938408 
	C81.898788,110.659485 78.089828,110.843590 74.043137,110.843590 
	C73.955521,108.999138 73.998550,107.507988 73.794632,106.051407 
	C73.121170,101.240662 75.094376,99.297310 79.941811,99.824692 
	C82.575920,100.111275 85.304382,100.136314 87.916100,99.761879 
	C89.179420,99.580750 90.271698,98.206520 91.441414,97.372482 
	C91.169121,96.905151 90.896828,96.437820 90.624535,95.970490 
	C85.999146,95.970490 81.364357,95.789223 76.751350,96.028267 
	C73.108673,96.217018 70.445274,97.964363 69.973061,102.504059 
M13.062419,117.322479 
	C16.908255,128.230667 23.729458,133.399094 33.965115,133.160446 
	C42.716915,132.956390 51.036861,127.390480 52.626656,118.631226 
	C54.169704,110.129509 53.710613,101.264404 54.149395,92.172844 
	C46.843090,92.172844 40.696194,92.139336 34.549786,92.179573 
	C20.186169,92.273605 11.484614,102.111198 13.062419,117.322479 
M154.379776,129.608719 
	C155.331238,128.867325 156.904877,128.281738 157.135727,127.359886 
	C158.977036,120.006760 160.563889,112.589920 162.394424,104.456497 
	C156.179092,104.882164 157.630981,109.539856 156.783127,112.437737 
	C155.793564,115.820000 155.230087,119.326912 154.481750,122.779739 
	C151.999146,118.804588 150.677353,114.794281 149.500412,110.741913 
	C148.879333,108.603523 148.444962,106.051025 145.499756,107.029900 
	C144.081161,107.501389 142.590866,109.173203 142.061432,110.637222 
	C140.502243,114.948677 139.407120,119.427963 138.130341,123.841553 
	C136.151123,118.440590 135.248596,113.109352 133.916855,107.887566 
	C133.562012,106.496262 131.892258,105.440315 130.826233,104.230392 
	C130.362930,104.576683 129.899628,104.922974 129.436340,105.269264 
	C130.964325,112.215126 132.360443,119.194931 134.132019,126.078102 
	C134.484589,127.447937 136.294525,129.392303 137.395401,129.368378 
	C138.640915,129.341309 140.434494,127.619339 140.959000,126.241905 
	C142.719360,121.619026 144.020599,116.821312 145.853104,110.951790 
	C147.584702,116.722450 148.801163,121.357651 150.422867,125.846443 
	C150.947296,127.298050 152.535324,128.365402 154.379776,129.608719 
M116.569374,104.715729 
	C108.970901,105.460815 105.279984,109.836342 105.547905,117.781502 
	C105.807007,125.465370 109.396515,129.475998 116.146011,129.622925 
	C122.956146,129.771164 126.805618,125.966705 127.461418,118.439835 
	C128.167892,110.331238 124.792305,105.756088 116.569374,104.715729 
M194.125137,112.638977 
	C194.125122,115.295013 194.132431,117.951080 194.123550,120.607086 
	C194.106262,125.780632 191.796143,127.681641 187.192703,125.336067 
	C185.229523,124.335785 183.598221,121.172966 183.273178,118.793800 
	C182.658005,114.290771 183.095291,109.643967 183.095291,105.056900 
	C182.537292,104.798164 181.979279,104.539421 181.421280,104.280678 
	C180.614151,105.432076 179.252670,106.519257 179.110352,107.747665 
	C178.768784,110.696159 178.987411,113.711014 179.001617,116.698990 
	C179.052277,127.347900 182.915665,130.563919 193.571609,129.294159 
	C196.874207,128.900635 198.324326,127.602394 198.231674,124.279594 
	C198.116058,120.132874 198.424500,115.965073 198.131622,111.836037 
	C197.957596,109.382500 199.927292,105.972908 195.784088,104.762497 
	C195.231110,107.074173 194.678146,109.385841 194.125137,112.638977 
M97.385674,94.820274 
	C96.510544,95.613525 94.889656,96.392609 94.874275,97.202209 
	C94.697258,106.516594 94.672241,115.836960 94.811096,125.152695 
	C94.866066,128.841019 98.017601,130.651108 101.432869,129.195465 
	C102.050781,128.932098 102.675972,128.241562 102.879417,127.612846 
	C103.006149,127.221176 102.355637,126.118179 102.039642,126.112373 
	C97.635719,126.031418 98.814842,122.761993 98.740578,120.339897 
	C98.482422,111.920227 98.318184,103.497681 97.385674,94.820274 
M170.706711,96.486038 
	C169.630005,95.830093 168.553284,95.174149 166.839569,94.130127 
	C166.839569,105.043533 166.696381,114.692276 166.973679,124.328926 
	C167.022675,126.031746 168.482819,128.534851 169.918900,129.115082 
	C171.293762,129.670578 173.485580,128.204086 175.318329,127.626289 
	C175.369019,127.068901 175.419708,126.511520 175.470398,125.954140 
	C170.586456,126.647659 170.653580,123.853088 170.694122,120.787315 
	C170.797562,112.963684 170.726837,105.137741 170.706711,96.486038 
z"/>
<path fill="#95CA4D" opacity="1.000000" stroke="none" 
	d="
M13.016645,116.927811 
	C11.484614,102.111198 20.186169,92.273605 34.549786,92.179573 
	C40.696194,92.139336 46.843090,92.172844 54.149395,92.172844 
	C53.710613,101.264404 54.169704,110.129509 52.626656,118.631226 
	C51.036861,127.390480 42.716915,132.956390 33.965115,133.160446 
	C23.729458,133.399094 16.908255,128.230667 13.016645,116.927811 
M27.827778,96.933144 
	C18.935984,100.807144 14.968387,108.084930 16.962027,116.864265 
	C18.660151,124.342239 25.471180,129.491852 33.490448,129.360870 
	C41.782066,129.225449 48.720890,123.628883 49.649944,115.266998 
	C50.337563,109.078087 49.785133,102.751396 49.785133,95.712921 
	C42.438931,96.047401 35.525990,96.362152 27.827778,96.933144 
z"/>
<path fill="#3C3C3C" opacity="1.000000" stroke="none" 
	d="
M154.008301,129.608612 
	C152.535324,128.365402 150.947296,127.298050 150.422867,125.846443 
	C148.801163,121.357651 147.584702,116.722450 145.853104,110.951790 
	C144.020599,116.821312 142.719360,121.619026 140.959000,126.241905 
	C140.434494,127.619339 138.640915,129.341309 137.395401,129.368378 
	C136.294525,129.392303 134.484589,127.447937 134.132019,126.078102 
	C132.360443,119.194931 130.964325,112.215126 129.436340,105.269264 
	C129.899628,104.922974 130.362930,104.576683 130.826233,104.230392 
	C131.892258,105.440315 133.562012,106.496262 133.916855,107.887566 
	C135.248596,113.109352 136.151123,118.440590 138.130341,123.841553 
	C139.407120,119.427963 140.502243,114.948677 142.061432,110.637222 
	C142.590866,109.173203 144.081161,107.501389 145.499756,107.029900 
	C148.444962,106.051025 148.879333,108.603523 149.500412,110.741913 
	C150.677353,114.794281 151.999146,118.804588 154.481750,122.779739 
	C155.230087,119.326912 155.793564,115.820000 156.783127,112.437737 
	C157.630981,109.539856 156.179092,104.882164 162.394424,104.456497 
	C160.563889,112.589920 158.977036,120.006760 157.135727,127.359886 
	C156.904877,128.281738 155.331238,128.867325 154.008301,129.608612 
z"/>
<path fill="#464646" opacity="1.000000" stroke="none" 
	d="
M70.109627,102.040855 
	C70.445274,97.964363 73.108673,96.217018 76.751350,96.028267 
	C81.364357,95.789223 85.999146,95.970490 90.624535,95.970490 
	C90.896828,96.437820 91.169121,96.905151 91.441414,97.372482 
	C90.271698,98.206520 89.179420,99.580750 87.916100,99.761879 
	C85.304382,100.136314 82.575920,100.111275 79.941811,99.824692 
	C75.094376,99.297310 73.121170,101.240662 73.794632,106.051407 
	C73.998550,107.507988 73.955521,108.999138 74.043137,110.843590 
	C78.089828,110.843590 81.898788,110.659485 85.673546,110.938408 
	C87.091370,111.043175 88.429756,112.223076 89.804352,112.912827 
	C88.493492,113.520592 87.210342,114.567703 85.866493,114.652458 
	C82.072632,114.891731 78.253868,114.736115 74.484924,114.736115 
	C73.855843,119.792809 73.288551,124.547188 72.578217,129.280106 
	C72.552498,129.451477 71.119736,129.411667 69.808998,129.510544 
	C69.808998,120.774590 69.808998,112.335602 70.124054,103.393356 
	C70.515999,102.778755 70.679321,102.595955 70.655838,102.567551 
	C70.495735,102.373825 70.296349,102.212578 70.109627,102.040855 
z"/>
<path fill="#3C3C3C" opacity="1.000000" stroke="none" 
	d="
M116.953430,104.716988 
	C124.792305,105.756088 128.167892,110.331238 127.461418,118.439835 
	C126.805618,125.966705 122.956146,129.771164 116.146011,129.622925 
	C109.396515,129.475998 105.807007,125.465370 105.547905,117.781502 
	C105.279984,109.836342 108.970901,105.460815 116.953430,104.716988 
M123.333015,118.303703 
	C123.206146,110.758751 120.676376,107.440018 115.666084,108.245667 
	C111.730919,108.878441 109.545158,112.291817 109.685921,117.724205 
	C109.790115,121.745079 110.448570,125.482086 115.458694,126.106514 
	C119.799751,126.647552 121.994659,124.647720 123.333015,118.303703 
z"/>
<path fill="#3B3B3B" opacity="1.000000" stroke="none" 
	d="
M194.125153,112.168243 
	C194.678146,109.385841 195.231110,107.074173 195.784088,104.762497 
	C199.927292,105.972908 197.957596,109.382500 198.131622,111.836037 
	C198.424500,115.965073 198.116058,120.132874 198.231674,124.279594 
	C198.324326,127.602394 196.874207,128.900635 193.571609,129.294159 
	C182.915665,130.563919 179.052277,127.347900 179.001617,116.698990 
	C178.987411,113.711014 178.768784,110.696159 179.110352,107.747665 
	C179.252670,106.519257 180.614151,105.432076 181.421280,104.280678 
	C181.979279,104.539421 182.537292,104.798164 183.095291,105.056900 
	C183.095291,109.643967 182.658005,114.290771 183.273178,118.793800 
	C183.598221,121.172966 185.229523,124.335785 187.192703,125.336067 
	C191.796143,127.681641 194.106262,125.780632 194.123550,120.607086 
	C194.132431,117.951080 194.125122,115.295013 194.125153,112.168243 
z"/>
<path fill="#3F3F3F" opacity="1.000000" stroke="none" 
	d="
M97.751953,94.948250 
	C98.318184,103.497681 98.482422,111.920227 98.740578,120.339897 
	C98.814842,122.761993 97.635719,126.031418 102.039642,126.112373 
	C102.355637,126.118179 103.006149,127.221176 102.879417,127.612846 
	C102.675972,128.241562 102.050781,128.932098 101.432869,129.195465 
	C98.017601,130.651108 94.866066,128.841019 94.811096,125.152695 
	C94.672241,115.836960 94.697258,106.516594 94.874275,97.202209 
	C94.889656,96.392609 96.510544,95.613525 97.751953,94.948250 
z"/>
<path fill="#414141" opacity="1.000000" stroke="none" 
	d="
M170.716248,96.899384 
	C170.726837,105.137741 170.797562,112.963684 170.694122,120.787315 
	C170.653580,123.853088 170.586456,126.647659 175.470398,125.954140 
	C175.419708,126.511520 175.369019,127.068901 175.318329,127.626289 
	C173.485580,128.204086 171.293762,129.670578 169.918900,129.115082 
	C168.482819,128.534851 167.022675,126.031746 166.973679,124.328926 
	C166.696381,114.692276 166.839569,105.043533 166.839569,94.130127 
	C168.553284,95.174149 169.630005,95.830093 170.716248,96.899384 
z"/>
<path fill="#141414" opacity="1.000000" stroke="none" 
	d="
M70.041344,102.272461 
	C70.296349,102.212578 70.495735,102.373825 70.655838,102.567551 
	C70.679321,102.595955 70.515999,102.778755 70.240479,102.936081 
	C70.041847,102.982048 69.973061,102.504059 70.041344,102.272461 
z"/>
<path fill="#FBFDF9" opacity="1.000000" stroke="none" 
	d="
M28.220413,96.805023 
	C35.525990,96.362152 42.438931,96.047401 49.785133,95.712921 
	C49.785133,102.751396 50.337563,109.078087 49.649944,115.266998 
	C48.720890,123.628883 41.782066,129.225449 33.490448,129.360870 
	C25.471180,129.491852 18.660151,124.342239 16.962027,116.864265 
	C14.968387,108.084930 18.935984,100.807144 28.220413,96.805023 
M39.881538,105.315956 
	C37.293118,108.261322 34.704697,111.206680 32.018208,114.263641 
	C29.490133,111.947365 27.350685,109.987152 25.211237,108.026947 
	C24.779879,108.380257 24.348522,108.733574 23.917164,109.086884 
	C24.081102,114.260941 29.342287,115.876595 32.155334,119.871696 
	C36.093494,115.305077 39.657032,111.375717 42.946278,107.228783 
	C43.871635,106.062134 43.991982,104.256966 44.481567,102.744667 
	C43.087940,103.406250 41.694313,104.067841 39.881538,105.315956 
z"/>
<path fill="#F9F9F9" opacity="1.000000" stroke="none" 
	d="
M123.296249,118.734863 
	C121.994659,124.647720 119.799751,126.647552 115.458694,126.106514 
	C110.448570,125.482086 109.790115,121.745079 109.685921,117.724205 
	C109.545158,112.291817 111.730919,108.878441 115.666084,108.245667 
	C120.676376,107.440018 123.206146,110.758751 123.296249,118.734863 
z"/>
<path fill="#92C848" opacity="1.000000" stroke="none" 
	d="
M40.091110,105.022690 
	C41.694313,104.067841 43.087940,103.406250 44.481567,102.744667 
	C43.991982,104.256966 43.871635,106.062134 42.946278,107.228783 
	C39.657032,111.375717 36.093494,115.305077 32.155334,119.871696 
	C29.342287,115.876595 24.081102,114.260941 23.917164,109.086884 
	C24.348522,108.733574 24.779879,108.380257 25.211237,108.026947 
	C27.350685,109.987152 29.490133,111.947365 32.018208,114.263641 
	C34.704697,111.206680 37.293118,108.261322 40.091110,105.022690 
z"/>
</svg>
