

<svg version="1.1" xmlns="http://www.w3.org/2000/svg" width="512" height="512">
<path d="M0 0 C1.7757851 -0.008081 3.55155847 -0.01920879 5.3273077 -0.03309071 C10.17164863 -0.06213727 15.01501623 -0.04795082 19.85935926 -0.02618718 C25.09739528 -0.01028354 30.33526935 -0.03482796 35.57327271 -0.05404663 C45.82052004 -0.0851097 56.06740769 -0.07847827 66.31466889 -0.05815814 C74.64567141 -0.04232439 82.97657341 -0.04021628 91.30758667 -0.04782486 C92.49505302 -0.04889749 93.68251938 -0.04997012 94.90596956 -0.05107526 C97.31857788 -0.05331342 99.73118616 -0.05558292 102.14379442 -0.0578834 C124.74622473 -0.07782565 147.34845604 -0.05492275 169.95085371 -0.01728083 C189.32841941 0.01399183 208.70569154 0.00855913 228.08325195 -0.02371216 C250.606936 -0.06120563 273.13044579 -0.07590321 295.65415668 -0.05442631 C298.05769663 -0.05219656 300.46123661 -0.04999596 302.86477661 -0.04782486 C304.63847804 -0.04620497 304.63847804 -0.04620497 306.44801182 -0.04455235 C314.76525979 -0.03851822 323.08239688 -0.04868882 331.39962769 -0.06518173 C341.54101167 -0.0848506 351.68201657 -0.07942596 361.82335734 -0.04221652 C366.99388147 -0.02386825 372.16377446 -0.01653158 377.33429337 -0.03976059 C382.0744574 -0.06073351 386.81340977 -0.0489731 391.55346501 -0.01191773 C393.26121303 -0.00414634 394.969065 -0.00796842 396.6767453 -0.02504824 C412.60678739 -0.17206224 424.34627895 4.64070648 436.08618164 15.8888855 C448.29230427 28.62860911 452.14570639 40.74179072 451.97506714 57.80270386 C451.98314814 59.57848896 451.99427593 61.35426233 452.00815785 63.13001156 C452.0372044 67.97435248 452.02301796 72.81772009 452.00125432 77.66206312 C451.98535068 82.90009914 452.00989509 88.13797321 452.02911377 93.37597656 C452.06017684 103.6232239 452.05354541 113.87011155 452.03322528 124.11737275 C452.01739153 132.44837527 452.01528342 140.77927726 452.022892 149.11029053 C452.02396463 150.29775688 452.02503726 151.48522323 452.0261424 152.70867342 C452.02838056 155.12128173 452.03065006 157.53389002 452.03295054 159.94649827 C452.05289279 182.54892859 452.02998989 205.15115989 451.99234797 227.75355756 C451.96107531 247.13112327 451.96650801 266.5083954 451.9987793 285.88595581 C452.03627277 308.40963985 452.05097035 330.93314965 452.02949345 353.45686054 C452.0272637 355.86040049 452.0250631 358.26394047 452.022892 360.66748047 C452.02181207 361.84994809 452.02073214 363.0324157 452.01961949 364.25071567 C452.01358536 372.56796365 452.02375596 380.88510074 452.04024887 389.20233154 C452.05991774 399.34371552 452.0544931 409.48472043 452.01728366 419.6260612 C451.99893539 424.79658532 451.99159872 429.96647832 452.01482773 435.13699722 C452.03580065 439.87716125 452.02404024 444.61611363 451.98698486 449.35616887 C451.97921348 451.06391689 451.98303556 452.77176886 452.00011538 454.47944915 C452.14695195 470.3902659 447.34841982 482.17779 436.08618164 493.8888855 C432.91499766 496.8380866 429.69125869 499.48865071 426.08618164 501.8888855 C425.40258859 502.37712083 424.71899553 502.86535616 424.01468754 503.36838651 C415.36328081 508.88966605 407.15996063 508.73368608 397.28515625 508.65078735 C395.48507778 508.65770861 393.6850078 508.66724319 391.88495541 508.67915082 C386.95972601 508.70412001 382.03519719 508.69185423 377.1099658 508.67323351 C371.7901515 508.65963194 366.47045585 508.6806251 361.15066528 508.69711304 C350.73760653 508.72377033 340.3248075 508.71804011 329.91173863 508.70063719 C321.44763768 508.68707802 312.98360943 508.68525302 304.51950073 508.69178009 C303.31410957 508.69269949 302.10871841 508.69361889 300.86680025 508.69456615 C298.41794815 508.69648453 295.96909606 508.69842981 293.520244 508.70040169 C270.56599221 508.71750438 247.61188427 508.69784929 224.65765607 508.6655995 C204.96872017 508.63879355 185.27999653 508.64344988 165.59106445 508.67111206 C142.71805738 508.70323277 119.84517633 508.71585648 96.97214985 508.69743848 C94.53238744 508.69552722 92.092625 508.69364099 89.65286255 508.69178009 C88.45250317 508.69085444 87.25214379 508.68992878 86.01540989 508.68897508 C77.56304803 508.68379802 69.11076621 508.69253135 60.65841675 508.70665741 C50.35551686 508.72349797 40.05289119 508.71890522 29.75002265 508.68697295 C24.49488851 508.67122135 19.24021131 508.66499989 13.98508072 508.68486786 C9.17105778 508.70279267 4.35791381 508.69284754 -0.45602977 508.66100255 C-2.19409981 508.65431971 -3.93224463 508.65766663 -5.67026627 508.67225727 C-15.76006689 508.7504402 -23.42359188 507.95276887 -31.91381836 501.8888855 C-32.89737305 501.23404175 -33.88092773 500.579198 -34.89428711 499.9045105 C-45.28986359 491.58804931 -55.92136456 479.57647535 -57.56109214 465.79756355 C-57.89492935 461.19119288 -57.84886483 456.59034937 -57.80270386 451.97506714 C-57.81078486 450.19928203 -57.82191265 448.42350867 -57.83579457 446.64775944 C-57.86484112 441.80341851 -57.85065468 436.96005091 -57.82889104 432.11570787 C-57.8129874 426.87767186 -57.83753181 421.63979779 -57.85675049 416.40179443 C-57.88781355 406.1545471 -57.88118213 395.90765945 -57.860862 385.66039824 C-57.84502825 377.32939572 -57.84292014 368.99849373 -57.85052872 360.66748047 C-57.85160135 359.48001411 -57.85267398 358.29254776 -57.85377911 357.06909758 C-57.85601728 354.65648926 -57.85828677 352.24388098 -57.86058725 349.83127272 C-57.88052951 327.22884241 -57.85762661 304.6266111 -57.81998469 282.02421343 C-57.78871203 262.64664773 -57.79414472 243.2693756 -57.82641602 223.89181519 C-57.86390949 201.36813114 -57.87860706 178.84462135 -57.85713017 156.32091045 C-57.85490042 153.91737051 -57.85269982 151.51383053 -57.85052872 149.11029053 C-57.84944879 147.92782291 -57.84836886 146.74535529 -57.84725621 145.52705532 C-57.84122208 137.20980735 -57.85139268 128.89267025 -57.86788559 120.57543945 C-57.88755446 110.43405547 -57.88212982 100.29305057 -57.84492038 90.15170979 C-57.82657211 84.98118567 -57.81923544 79.81129268 -57.84246445 74.64077377 C-57.86343737 69.90060974 -57.85167696 65.16165737 -57.81462158 60.42160213 C-57.8068502 58.71385411 -57.81067228 57.00600214 -57.8277521 55.29832184 C-57.9747661 39.36827975 -53.16199737 27.62878819 -41.91381836 15.8888855 C-29.17409474 3.68276287 -17.06091314 -0.17063925 0 0 Z " fill="#292929" transform="translate(58.913818359375,4.111114501953125)"/>
<path d="M0 0 C1.7757851 -0.008081 3.55155847 -0.01920879 5.3273077 -0.03309071 C10.17164863 -0.06213727 15.01501623 -0.04795082 19.85935926 -0.02618718 C25.09739528 -0.01028354 30.33526935 -0.03482796 35.57327271 -0.05404663 C45.82052004 -0.0851097 56.06740769 -0.07847827 66.31466889 -0.05815814 C74.64567141 -0.04232439 82.97657341 -0.04021628 91.30758667 -0.04782486 C92.49505302 -0.04889749 93.68251938 -0.04997012 94.90596956 -0.05107526 C97.31857788 -0.05331342 99.73118616 -0.05558292 102.14379442 -0.0578834 C124.74622473 -0.07782565 147.34845604 -0.05492275 169.95085371 -0.01728083 C189.32841941 0.01399183 208.70569154 0.00855913 228.08325195 -0.02371216 C250.606936 -0.06120563 273.13044579 -0.07590321 295.65415668 -0.05442631 C298.05769663 -0.05219656 300.46123661 -0.04999596 302.86477661 -0.04782486 C304.63847804 -0.04620497 304.63847804 -0.04620497 306.44801182 -0.04455235 C314.76525979 -0.03851822 323.08239688 -0.04868882 331.39962769 -0.06518173 C341.54101167 -0.0848506 351.68201657 -0.07942596 361.82335734 -0.04221652 C366.99388147 -0.02386825 372.16377446 -0.01653158 377.33429337 -0.03976059 C382.0744574 -0.06073351 386.81340977 -0.0489731 391.55346501 -0.01191773 C393.26121303 -0.00414634 394.969065 -0.00796842 396.6767453 -0.02504824 C412.60678739 -0.17206224 424.34627895 4.64070648 436.08618164 15.8888855 C448.29230427 28.62860911 452.14570639 40.74179072 451.97506714 57.80270386 C451.98314814 59.57848896 451.99427593 61.35426233 452.00815785 63.13001156 C452.0372044 67.97435248 452.02301796 72.81772009 452.00125432 77.66206312 C451.98535068 82.90009914 452.00989509 88.13797321 452.02911377 93.37597656 C452.06017684 103.6232239 452.05354541 113.87011155 452.03322528 124.11737275 C452.01739153 132.44837527 452.01528342 140.77927726 452.022892 149.11029053 C452.02396463 150.29775688 452.02503726 151.48522323 452.0261424 152.70867342 C452.02838056 155.12128173 452.03065006 157.53389002 452.03295054 159.94649827 C452.05289279 182.54892859 452.02998989 205.15115989 451.99234797 227.75355756 C451.96107531 247.13112327 451.96650801 266.5083954 451.9987793 285.88595581 C452.03627277 308.40963985 452.05097035 330.93314965 452.02949345 353.45686054 C452.0272637 355.86040049 452.0250631 358.26394047 452.022892 360.66748047 C452.02181207 361.84994809 452.02073214 363.0324157 452.01961949 364.25071567 C452.01358536 372.56796365 452.02375596 380.88510074 452.04024887 389.20233154 C452.05991774 399.34371552 452.0544931 409.48472043 452.01728366 419.6260612 C451.99893539 424.79658532 451.99159872 429.96647832 452.01482773 435.13699722 C452.03580065 439.87716125 452.02404024 444.61611363 451.98698486 449.35616887 C451.97921348 451.06391689 451.98303556 452.77176886 452.00011538 454.47944915 C452.14695195 470.3902659 447.34841982 482.17779 436.08618164 493.8888855 C432.91499766 496.8380866 429.69125869 499.48865071 426.08618164 501.8888855 C425.40258859 502.37712083 424.71899553 502.86535616 424.01468754 503.36838651 C415.36328081 508.88966605 407.15996063 508.73368608 397.28515625 508.65078735 C395.48507778 508.65770861 393.6850078 508.66724319 391.88495541 508.67915082 C386.95972601 508.70412001 382.03519719 508.69185423 377.1099658 508.67323351 C371.7901515 508.65963194 366.47045585 508.6806251 361.15066528 508.69711304 C350.73760653 508.72377033 340.3248075 508.71804011 329.91173863 508.70063719 C321.44763768 508.68707802 312.98360943 508.68525302 304.51950073 508.69178009 C303.31410957 508.69269949 302.10871841 508.69361889 300.86680025 508.69456615 C298.41794815 508.69648453 295.96909606 508.69842981 293.520244 508.70040169 C270.56599221 508.71750438 247.61188427 508.69784929 224.65765607 508.6655995 C204.96872017 508.63879355 185.27999653 508.64344988 165.59106445 508.67111206 C142.71805738 508.70323277 119.84517633 508.71585648 96.97214985 508.69743848 C94.53238744 508.69552722 92.092625 508.69364099 89.65286255 508.69178009 C88.45250317 508.69085444 87.25214379 508.68992878 86.01540989 508.68897508 C77.56304803 508.68379802 69.11076621 508.69253135 60.65841675 508.70665741 C50.35551686 508.72349797 40.05289119 508.71890522 29.75002265 508.68697295 C24.49488851 508.67122135 19.24021131 508.66499989 13.98508072 508.68486786 C9.17105778 508.70279267 4.35791381 508.69284754 -0.45602977 508.66100255 C-2.19409981 508.65431971 -3.93224463 508.65766663 -5.67026627 508.67225727 C-15.76006689 508.7504402 -23.42359188 507.95276887 -31.91381836 501.8888855 C-32.89737305 501.23404175 -33.88092773 500.579198 -34.89428711 499.9045105 C-45.28986359 491.58804931 -55.92136456 479.57647535 -57.56109214 465.79756355 C-57.89492935 461.19119288 -57.84886483 456.59034937 -57.80270386 451.97506714 C-57.81078486 450.19928203 -57.82191265 448.42350867 -57.83579457 446.64775944 C-57.86484112 441.80341851 -57.85065468 436.96005091 -57.82889104 432.11570787 C-57.8129874 426.87767186 -57.83753181 421.63979779 -57.85675049 416.40179443 C-57.88781355 406.1545471 -57.88118213 395.90765945 -57.860862 385.66039824 C-57.84502825 377.32939572 -57.84292014 368.99849373 -57.85052872 360.66748047 C-57.85160135 359.48001411 -57.85267398 358.29254776 -57.85377911 357.06909758 C-57.85601728 354.65648926 -57.85828677 352.24388098 -57.86058725 349.83127272 C-57.88052951 327.22884241 -57.85762661 304.6266111 -57.81998469 282.02421343 C-57.78871203 262.64664773 -57.79414472 243.2693756 -57.82641602 223.89181519 C-57.86390949 201.36813114 -57.87860706 178.84462135 -57.85713017 156.32091045 C-57.85490042 153.91737051 -57.85269982 151.51383053 -57.85052872 149.11029053 C-57.84944879 147.92782291 -57.84836886 146.74535529 -57.84725621 145.52705532 C-57.84122208 137.20980735 -57.85139268 128.89267025 -57.86788559 120.57543945 C-57.88755446 110.43405547 -57.88212982 100.29305057 -57.84492038 90.15170979 C-57.82657211 84.98118567 -57.81923544 79.81129268 -57.84246445 74.64077377 C-57.86343737 69.90060974 -57.85167696 65.16165737 -57.81462158 60.42160213 C-57.8068502 58.71385411 -57.81067228 57.00600214 -57.8277521 55.29832184 C-57.9747661 39.36827975 -53.16199737 27.62878819 -41.91381836 15.8888855 C-29.17409474 3.68276287 -17.06091314 -0.17063925 0 0 Z M-38.91381836 25.8888855 C-47.95119592 37.97234345 -49.51006696 51.18085612 -49.42175293 65.78477478 C-49.42637035 67.46211662 -49.43272887 69.13945441 -49.44066191 70.81678385 C-49.4572628 75.39339571 -49.44915124 79.96967123 -49.43671703 84.54628384 C-49.42763086 89.49454716 -49.44165385 94.44275444 -49.45263672 99.39100647 C-49.47038816 109.07148437 -49.46659712 118.75183796 -49.45498616 128.43232066 C-49.44593933 136.30186484 -49.44473323 144.17137427 -49.44908142 152.04092216 C-49.44969435 153.16249278 -49.45030729 154.2840634 -49.45093879 155.43962101 C-49.45221774 157.71831431 -49.45351459 159.99700759 -49.45482916 162.27570086 C-49.46622494 183.62378703 -49.4531367 204.9718044 -49.43162769 226.31987929 C-49.41375519 244.62522373 -49.41686404 262.93046671 -49.43530273 281.23580933 C-49.45672292 302.51094257 -49.46512896 323.78601559 -49.45285368 345.06115812 C-49.45157953 347.3309936 -49.45032204 349.6008291 -49.44908142 351.8706646 C-49.44846432 352.98736998 -49.44784722 354.10407536 -49.44721141 355.2546203 C-49.44376215 363.11240446 -49.44957768 370.97015032 -49.45899963 378.82792854 C-49.47023363 388.40715963 -49.46714996 397.98625965 -49.44587666 407.56547577 C-49.43538554 412.4500438 -49.43121139 417.33439354 -49.44447327 422.21895981 C-49.45644299 426.69539447 -49.44975952 431.17140966 -49.42856306 435.64780658 C-49.42411637 437.26201771 -49.42631949 438.8762647 -49.43606621 440.49045254 C-49.53028575 457.39918831 -45.12823845 471.03944679 -33.43334961 483.5295105 C-24.08494794 492.28367268 -11.99135182 498.01009214 0.84424019 498.01751995 C1.8672912 498.02014951 1.8672912 498.02014951 2.91100991 498.02283219 C5.20714237 498.02750145 7.50321178 498.02502429 9.79934692 498.02259827 C11.45796729 498.02446578 13.11658722 498.02676625 14.77520645 498.02946359 C19.34170217 498.03559555 23.90817962 498.03544635 28.47467852 498.03426921 C33.39645706 498.03406555 38.31822969 498.03958072 43.24000549 498.04432678 C52.88691709 498.05264206 62.53382257 498.05538204 72.18073745 498.05593916 C80.02237723 498.056414 87.864015 498.05846716 95.70565414 498.06163979 C117.93238989 498.07044954 140.15912081 498.07505878 162.38585831 498.07430931 C164.18416387 498.07424938 164.18416387 498.07424938 166.01879883 498.07418823 C167.81929779 498.07412691 167.81929779 498.07412691 169.65617047 498.07406435 C189.10371369 498.07365802 208.55123753 498.08322358 227.99877514 498.0973266 C247.96175051 498.11168925 267.92471643 498.11859681 287.8876971 498.11773282 C299.09753479 498.11740077 310.30735218 498.12015154 321.51718521 498.13091087 C331.06334799 498.14001451 340.60948128 498.14219232 350.15564652 498.13540145 C355.02567462 498.13213528 359.89564614 498.13208305 364.76566887 498.1407547 C369.22682004 498.1486165 373.68786971 498.14719149 378.14901839 498.13847057 C379.76010288 498.13693486 381.37119493 498.13875443 382.98227049 498.14433064 C400.96102136 498.20242019 415.62556544 495.11513723 428.96899414 482.209198 C437.60305461 472.74677748 443.32858558 460.63386235 443.34345055 447.72321129 C443.34870966 446.68871848 443.34870966 446.68871848 443.35407501 445.63332683 C443.36335689 443.32922062 443.35847408 441.02536895 443.35360718 438.72125244 C443.35734507 437.04980502 443.36194715 435.37835935 443.36733782 433.70691645 C443.37956628 429.11877083 443.37930753 424.53069813 443.37694907 419.94253993 C443.37654086 414.99211807 443.38758056 410.04171957 443.39706421 405.09130859 C443.41367497 395.39366646 443.41917381 385.69604863 443.42028897 375.99839346 C443.42123952 368.11394239 443.42535021 360.22949934 443.43169022 352.34505081 C443.44930381 329.98522087 443.45852905 307.62541012 443.45702927 285.26557319 C443.45694936 284.06022621 443.45686944 282.85487923 443.45678711 281.61300659 C443.45666447 279.80277502 443.45666447 279.80277502 443.45653935 277.9559731 C443.45572669 258.40392482 443.47485887 238.85195363 443.50306384 219.29992764 C443.53180403 199.21818739 443.54560347 179.13648472 443.54387629 159.05472338 C443.54321272 147.78277051 443.5486904 136.51089842 443.57023239 125.23896408 C443.58845921 115.64023213 443.59277925 106.04161757 443.57921354 96.44287579 C443.57269116 91.54809037 443.57254032 86.65353007 443.58992004 81.75876617 C443.6056883 77.27156895 443.60274893 72.78477462 443.58535178 68.29758699 C443.5822901 66.68048095 443.58588268 65.06334456 443.59707193 63.44627433 C443.70716492 46.39666407 439.70471943 32.70304917 427.77368164 20.0763855 C414.92559477 7.94328491 400.22963438 5.27794114 383.15232849 5.38095093 C381.47086186 5.37633355 379.78939928 5.36997505 378.10794502 5.36204195 C373.51993187 5.34544054 368.93225421 5.35355286 364.34424031 5.36598682 C359.38370699 5.37507278 354.42322957 5.36105011 349.46270752 5.35006714 C339.75816625 5.33231546 330.05374898 5.33610684 320.34920292 5.3477177 C312.46011262 5.35676443 304.57105698 5.35797066 296.68196297 5.35362244 C295.55761699 5.3530095 294.433271 5.35239657 293.27485393 5.35176507 C290.99052364 5.35048612 288.70619336 5.34918927 286.42186309 5.3478747 C265.02084186 5.33647885 243.61988926 5.34956726 222.21887929 5.37107617 C203.86805315 5.38894867 185.51732822 5.38583983 167.16650391 5.36740112 C145.83863299 5.34598104 124.51082215 5.33757483 103.18294197 5.34985018 C100.90748951 5.35112433 98.63203703 5.35238181 96.35658455 5.35362244 C95.23711506 5.35423954 94.11764556 5.35485664 92.96425275 5.35549244 C85.08693196 5.35894174 77.20964939 5.3531261 69.33233452 5.34370422 C59.72931498 5.33247035 50.12642619 5.33555364 40.52342158 5.3568272 C35.62670213 5.36731848 30.73020044 5.37149218 25.83348274 5.35823059 C21.34594592 5.34626121 16.85882753 5.35294379 12.37132836 5.3741408 C10.75307956 5.37858763 9.13479499 5.37638404 7.51656943 5.36663765 C-11.40246121 5.26148248 -26.47934303 11.14723213 -38.91381836 25.8888855 Z " fill="#656565" transform="translate(58.913818359375,4.111114501953125)"/>
<path d="M0 0 C0.83184814 0.00491455 1.66369629 0.0098291 2.52075195 0.01489258 C13.5652344 0.22564452 22.09483507 3.34189552 30.3125 10.8125 C32.48949232 13.23138036 34.52957321 15.77134151 36.5625 18.3125 C36.8925 13.0325 37.2225 7.7525 37.5625 2.3125 C48.1225 2.3125 58.6825 2.3125 69.5625 2.3125 C69.5625 43.5625 69.5625 84.8125 69.5625 127.3125 C59.0025 127.3125 48.4425 127.3125 37.5625 127.3125 C37.0675 119.8875 37.0675 119.8875 36.5625 112.3125 C35.20125 113.88 33.84 115.4475 32.4375 117.0625 C24.9357791 125.32020828 16.87359937 129.71951271 5.61328125 130.6328125 C-12.15085102 131.10742672 -26.59787447 126.83576921 -40.04296875 115.0234375 C-53.43884774 102.255807 -60.51452423 87.30840717 -61.09985352 68.88476562 C-61.23584648 48.88983941 -56.48319878 32.27547443 -42.54296875 17.21875 C-30.28620024 6.12171283 -16.59117401 -0.11656563 0 0 Z " fill="#FCFCFC" transform="translate(289.4375,214.6875)"/>
<path d="M0 0 C4.10855311 3.42116057 7.5837237 7.34821905 10.9375 11.5 C9.59738355 14.54198211 8.18705813 16.43228635 5.671875 18.59375 C5.02863281 19.14933594 4.38539063 19.70492187 3.72265625 20.27734375 C3.05105469 20.84582031 2.37945312 21.41429687 1.6875 22 C0.70330078 22.85271484 0.70330078 22.85271484 -0.30078125 23.72265625 C-4.0666385 26.94946435 -7.87317856 29.84589573 -12.0625 32.5 C-12.75472656 31.82904297 -12.75472656 31.82904297 -13.4609375 31.14453125 C-18.57093592 26.40818885 -23.64561596 23.1950913 -30.0625 20.5 C-30.79726562 20.17902344 -31.53203125 19.85804688 -32.2890625 19.52734375 C-43.12917258 15.52283573 -56.70564952 16.06955815 -67.375 20.21875 C-71.03775387 21.96494661 -74.49461125 23.93799157 -77.90625 26.1328125 C-80.0625 27.5 -80.0625 27.5 -82.21875 28.4296875 C-84.56766644 29.7932534 -84.96760829 31.04654879 -86.0625 33.5 C-87.15579143 34.94578841 -88.26113351 36.38250289 -89.375 37.8125 C-98.4695079 50.60936498 -100.88966273 67.65031228 -98.53125 82.9453125 C-95.23878776 98.08348126 -89.31216873 110.97368843 -76.00390625 119.7734375 C-63.28667611 127.23826581 -49.45731133 128.88383279 -34.89941406 126.08398438 C-26.4097423 123.81364365 -18.12489953 118.86363677 -12.0625 112.5 C-8.13899782 114.11610923 -5.34844646 116.81319404 -2.3125 119.6875 C-1.25066477 120.67779661 -0.18816268 121.66737866 0.875 122.65625 C1.39320313 123.13964844 1.91140625 123.62304688 2.4453125 124.12109375 C5.54561594 126.98603384 8.74003797 129.74454008 11.9375 132.5 C3.19868029 145.85689516 -10.71878711 153.70502475 -26.0625 157.5 C-51.35299374 161.57731779 -76.38591173 159.06238193 -97.90234375 144.58984375 C-100.40768023 142.66235739 -102.73896238 140.64273254 -105.0625 138.5 C-105.96484375 137.68917969 -106.8671875 136.87835938 -107.796875 136.04296875 C-122.34034737 122.32309081 -132.87919762 102.98294194 -134.24780273 82.76220703 C-134.329515 79.90053912 -134.34030908 77.05015736 -134.3125 74.1875 C-134.30573242 73.1771167 -134.29896484 72.1667334 -134.29199219 71.12573242 C-133.99603069 49.70121709 -127.64146427 29.56607174 -113.0625 13.5 C-112.32386719 12.66855469 -111.58523437 11.83710938 -110.82421875 10.98046875 C-101.46790334 1.0116286 -90.00850385 -6.13112525 -77.0625 -10.5 C-75.92039063 -10.891875 -74.77828125 -11.28375 -73.6015625 -11.6875 C-48.78282187 -19.0563632 -20.91283245 -15.45422872 0 0 Z " fill="#FDFDFD" transform="translate(214.0625,185.5)"/>
<path d="M0 0 C10.23 0 20.46 0 31 0 C31 57.42 31 114.84 31 174 C20.77 174 10.54 174 0 174 C0 116.58 0 59.16 0 0 Z " fill="#FEFEFE" transform="translate(382,167)"/>
<path d="M0 0 C0.97453125 0.69609375 0.97453125 0.69609375 1.96875 1.40625 C3.04125 2.128125 4.11375 2.85 5.21875 3.59375 C13.44998359 12.01205708 16.40853793 21.31113441 16.32788086 32.86743164 C16.06133441 43.25159057 12.90220914 50.70533204 5.55859375 58.16796875 C-3.11757258 65.66637495 -11.62476474 67.53526169 -22.8046875 66.9296875 C-28.30754984 66.40108142 -32.54391268 64.61149094 -37.03125 61.40625 C-38.10375 60.684375 -39.17625 59.9625 -40.28125 59.21875 C-48.84451788 50.46086239 -51.55754282 40.78028904 -51.60351562 28.87792969 C-51.33224166 18.75941063 -47.5928994 10.40008262 -40.21875 3.28125 C-29.11265779 -5.04305061 -12.23724384 -7.54350648 0 0 Z " fill="#2A2A2A" transform="translate(312.03125,248.59375)"/>
</svg>
