<?xml version="1.0" standalone="no"?>
<!DOCTYPE svg PUBLIC "-//W3C//DTD SVG 20010904//EN"
 "http://www.w3.org/TR/2001/REC-SVG-20010904/DTD/svg10.dtd">
<svg version="1.0" xmlns="http://www.w3.org/2000/svg"
 width="500.000000pt" height="500.000000pt" viewBox="0 0 500.000000 500.000000"
 preserveAspectRatio="xMidYMid meet">

<g transform="translate(0.000000,500.000000) scale(0.100000,-0.100000)"
fill="#000000" stroke="none">
<path d="M1519 3209 c-48 -5 -129 -22 -180 -39 -260 -84 -431 -255 -510 -510
-31 -97 -33 -298 -5 -399 77 -281 268 -466 567 -548 99 -28 348 -25 451 4 113
33 179 65 286 140 54 37 209 143 346 235 l250 168 59 -114 c100 -193 203 -298
372 -376 128 -60 206 -75 385 -75 178 0 237 13 365 76 204 101 350 283 406
508 32 126 24 293 -18 414 -38 108 -81 180 -157 263 -101 112 -217 183 -373
230 -76 23 -107 27 -223 28 -148 1 -205 -10 -333 -64 -78 -33 -139 -70 -535
-328 -145 -95 -267 -172 -271 -172 -4 0 -21 35 -39 78 -44 107 -99 187 -186
269 -172 164 -397 237 -657 212z m211 -398 c200 -76 295 -326 202 -526 -40
-85 -91 -139 -170 -177 -59 -29 -76 -33 -152 -33 -73 0 -94 4 -148 29 -71 33
-146 108 -180 179 -49 104 -47 238 5 344 35 70 126 155 195 182 71 27 180 28
248 2z m1958 -21 c76 -40 124 -92 165 -180 28 -58 31 -75 31 -155 0 -104 -23
-174 -79 -248 -151 -198 -460 -174 -589 46 -35 59 -59 173 -50 240 20 150 100
258 232 314 48 20 70 23 142 20 74 -3 93 -7 148 -37z"/>
</g>
</svg>
