<?xml version="1.0" encoding="utf-8"?>
<!-- Generator: Adobe Illustrator 27.0.0, SVG Export Plug-In . SVG Version: 6.00 Build 0)  -->
<svg version="1.1" id="Layer_1" xmlns="http://www.w3.org/2000/svg" xmlns:xlink="http://www.w3.org/1999/xlink" x="0px" y="0px"
	 viewBox="0 0 410.9 65.8" style="enable-background:new 0 0 410.9 65.8;" xml:space="preserve">
<style type="text/css">
	.st0{fill:#3D3D3D;}
</style>
<g>
	<path class="st0" d="M332.8,48.9c-2,1.3-3.8,2.6-5.7,3.8c-4.3,2.9-8.6,5.9-12.9,8.8c-3.1,2.1-6.6,3.4-10.3,3.9
		c-6.2,0.8-12-0.2-17.3-3.5c-6-3.8-9.4-9.3-10-16.4c-0.5-6.1,1-11.6,5.1-16.3c3.4-3.9,7.7-6.3,12.8-7.3c6.8-1.4,13.3-0.6,19.2,3.1
		c4.6,2.8,7.7,6.9,9.2,12.1c0.1,0.3,0.2,0.5,0.3,0.8c1.1-0.7,2.1-1.4,3.1-2.1c5-3.4,10.1-6.8,15.1-10.2c3.9-2.7,8.3-4.1,13-4.3
		c5.3-0.3,10.3,0.8,14.8,3.6c5.8,3.6,9.2,8.9,10.1,15.7c0.8,6.6-0.9,12.5-5.3,17.4c-3.9,4.3-8.8,6.6-14.4,7.4
		c-5.9,0.8-11.4-0.1-16.6-3.1c-4.9-2.8-8.2-6.9-9.8-12.3C333.1,49.6,333,49.3,332.8,48.9z M366.4,43.3c-0.1-0.7-0.1-1.4-0.2-2
		c-0.9-4.3-3.3-7.2-7.5-8.5c-4.1-1.2-7.8,0-10.6,3.2c-2.5,2.8-3.2,6.1-2.5,9.7c1.1,6.5,8.1,10.3,14.1,7.9
		C363.8,52,366.4,48,366.4,43.3z M310.6,43.1c-0.1-0.6-0.1-1.5-0.3-2.3c-1.4-7.2-9.4-10.7-15.6-6.9c-3.8,2.3-5.7,6.7-5,11.4
		c1.1,7.1,8.8,11.1,15.1,7.8C308.8,51.1,310.5,47.7,310.6,43.1z"/>
	<path class="st0" d="M0,65.2c0-14.4,0-28.5,0-42.7c4.5,0,9.1,0,13.7,0c0,1.2,0,2.3,0,3.4c0.1,0,0.1,0.1,0.2,0.1
		c3.8-3.9,8.6-5.2,13.8-4.9c5.3,0.3,9.6,2.5,12.7,7c0.4-0.4,0.7-0.7,1-1.1c3.5-3.8,7.8-5.7,12.9-6c3.5-0.2,6.8,0.4,9.9,2.2
		c4.1,2.5,6.5,6.2,7.4,10.9c0.3,1.3,0.4,2.7,0.4,4c0,8.3,0,16.7,0,25c0,0.3,0,0.7,0,1.1c-4.5,0-8.9,0-13.5,0c0-0.4,0-0.8,0-1.2
		c0-7.2,0-14.3,0-21.5c0-1-0.1-1.9-0.3-2.9c-1.1-4.9-5.7-6.6-9.8-5.2c-2,0.7-3.4,2.1-4.3,4c-0.9,1.9-1.2,4-1.2,6.1
		c0,6.4,0,12.8,0,19.3c0,0.4,0,0.8,0,1.3c-4.5,0-9,0-13.6,0c0-0.4,0-0.8,0-1.2c0-7.2,0-14.5,0-21.7c0-1.2-0.2-2.5-0.6-3.6
		c-0.8-2.4-2.5-3.9-4.9-4.4c-2-0.5-4-0.3-6,0.4c-1.3,0.5-2.3,1.4-2.9,2.7c-0.6,1.2-1,2.4-1,3.7c-0.1,4.9,0,9.8-0.2,14.7
		c-0.1,3.8-1.6,7-5.4,8.7c-1.1,0.5-2.4,0.8-3.6,1.1C3.2,65,1.7,65,0,65.2z"/>
	<path class="st0" d="M123.3,46.8c-10.5,0-20.9,0-31.3,0c0.5,3.8,3.3,6.9,6.5,7.8c4.4,1.3,8.8-0.3,11.8-4.5
		c3.9,0.8,7.9,1.6,12.1,2.4c-0.5,1-0.9,1.9-1.4,2.7c-3.5,6.1-8.9,9.2-15.8,10.1c-4.3,0.6-8.5,0.4-12.6-1.2
		c-8.4-3.4-13.1-9.6-14-18.6c-0.5-5,0.4-9.7,3.1-13.9c3.6-5.8,8.9-9.1,15.6-10.2c5-0.8,9.9-0.2,14.4,2.1c6.3,3.3,9.9,8.6,11.2,15.5
		C123.3,41.6,123.4,44.1,123.3,46.8z M92.3,38.6c5.8,0,11.6,0,17.4,0c-0.4-3.7-4.2-6.6-8.4-6.6C97.1,31.9,92.8,35,92.3,38.6z"/>
	<path class="st0" d="M272,37.3c-4.2,1-8.4,2-12.6,3c-0.1-0.3-0.2-0.6-0.3-1c-1.3-4.1-4.4-6.4-8.7-6.5c-5.9-0.1-10.2,4.3-10.3,10.1
		c-0.1,3.2,0.8,6.1,3.1,8.4c3.6,3.5,10.7,3.7,14-0.2c0.7-0.9,1.3-1.9,1.8-2.9c0.3-0.4,0.4-0.9,0.6-1.5c4.1,0.9,8.2,1.7,12.4,2.6
		c0,0.3,0,0.6-0.1,0.8c-1.7,6.3-5.6,10.9-11.6,13.5c-8.9,3.7-17.4,2.9-25.2-2.9c-5.5-4.1-8-9.9-8.2-16.7c-0.1-4.8,1.1-9.3,3.9-13.2
		c3.8-5.3,9-8.3,15.4-9.3c5.5-0.9,10.8-0.1,15.7,2.6c5,2.8,8.3,6.9,9.9,12.3C271.9,36.6,272,36.9,272,37.3z"/>
	<path class="st0" d="M125.7,33c0-3.6,0-7,0-10.5c2.6,0,5.1,0,7.7,0c0-4.8,0-9.4,0-14.1c4.6,0,9,0,13.6,0c0,4.6,0,9.3,0,14
		c1.5,0.1,2.9,0,4.3,0.1c1.4,0,2.7,0,4.1,0c1.4,0,2.8,0,4.3,0c0,3.5,0,6.9,0,10.5c-4.2,0-8.3,0-12.5,0c-0.1,0.4-0.1,0.6-0.1,0.9
		c0,4.6,0,9.1,0,13.7c0,0.9,0.1,1.8,0.4,2.6c0.5,1.9,1.7,3,3.6,3.4c2.5,0.5,4.8-0.1,7-1c0.3-0.1,0.6-0.3,1-0.5c1,3.5,2.1,7,3.1,10.5
		c-2,1.1-4.1,2-6.3,2.5c-4.2,0.9-8.4,0.9-12.5-0.4c-5.4-1.7-8.4-5.6-9.5-11c-0.3-1.6-0.4-3.3-0.4-4.9c-0.1-4.8,0-9.7,0-14.5
		c0-0.4,0-0.7,0-1.2C130.8,33,128.3,33,125.7,33z"/>
	<path class="st0" d="M399.7,0c0,0.5,0,0.9,0,1.4c0,15.8,0,31.6,0,47.5c0,0.4,0,0.8,0,1.2c0.1,2.1,1.5,3.6,3.6,3.7
		c1.1,0,2.2-0.2,3.2-0.4c0.7-0.1,1.4-0.4,2.2-0.6c0.7,3.5,1.4,6.9,2.1,10.4c-1.5,0.9-3,1.5-4.6,1.9c-3.1,0.8-6.2,1-9.4,0.3
		c-5.6-1.2-9.6-5.3-10.5-11c-0.2-1.1-0.3-2.3-0.3-3.4c0-16.5,0-33.1,0-49.6c0-0.4,0-0.7,0-1.2C390.6,0,395.1,0,399.7,0z"/>
	<path class="st0" d="M181,22.5c0,2.5,0,5,0,7.4c0.1,0,0.2,0.1,0.2,0.1c0.2-0.3,0.5-0.7,0.7-1c1.6-2.3,3.6-4.2,6.1-5.4
		c3.4-1.7,7-2.1,10.8-1.5c-0.2,4.4-0.4,8.8-0.6,13.3c-0.5,0-0.9,0.1-1.3,0.1c-2.1,0-4.3,0.1-6.3,0.6c-5,1.3-8,4.6-9,9.6
		c-0.4,1.8-0.5,3.7-0.6,5.5c-0.1,4,0,8,0,11.9c0,0.4,0,0.7,0,1.2c-4.6,0-9,0-13.5,0c0-14,0-27.9,0-41.9
		C172,22.5,176.4,22.5,181,22.5z"/>
	<path class="st0" d="M219,22.5c0,14,0,27.9,0,41.9c-4.5,0-9,0-13.5,0c0-14,0-27.9,0-41.9C210,22.5,214.5,22.5,219,22.5z"/>
	<path class="st0" d="M212.3,17.4c-2.3,0-4.3-0.7-5.9-2.4c-3.7-3.9-1.9-10.7,3.3-12.3c3.2-1,6.7-0.1,8.7,2.4
		c1.9,2.3,2.3,4.9,1.3,7.6c-1,2.7-3.1,4.1-5.9,4.5C213.3,17.3,212.8,17.3,212.3,17.4z"/>
</g>
</svg>
