<svg version="1.1" id="Layer_1" xmlns="http://www.w3.org/2000/svg" xmlns:xlink="http://www.w3.org/1999/xlink" x="0px" y="0px"
	 width="100%" viewBox="0 0 225 225" enable-background="new 0 0 225 225" xml:space="preserve">
<path fill="#FEFFFF" opacity="1.000000" stroke="none" 
	d="
M226.000000,86.000000 
	C226.000000,133.000000 226.000000,179.500000 226.000000,226.000000 
	C151.000000,226.000000 76.000000,226.000000 1.000000,226.000000 
	C1.000000,151.000000 1.000000,76.000000 1.000000,1.000000 
	C76.000000,1.000000 151.000000,1.000000 226.000000,1.000000 
	C226.000000,29.166666 226.000000,57.333332 226.000000,86.000000 
M86.889549,96.486473 
	C79.740723,108.747131 80.318481,122.482292 88.421799,132.912979 
	C96.410652,143.196320 109.796173,147.602524 122.323906,144.072769 
	C145.662247,137.497070 152.488785,109.261353 135.717789,91.732727 
	C125.866562,81.436447 114.861366,80.778069 102.550377,83.925087 
	C95.857056,85.636070 91.765022,91.094719 86.889549,96.486473 
M97.324173,12.701941 
	C89.028023,17.702217 83.773918,24.542076 84.815910,34.727165 
	C85.845406,44.789982 92.032654,51.378407 101.174431,54.095119 
	C107.478065,55.968403 114.587944,56.447380 121.163261,55.794518 
	C132.476624,54.671215 141.397873,44.966965 142.760391,34.075020 
	C143.881714,25.111168 136.813797,15.169868 126.319366,10.849353 
	C116.621040,6.856590 107.180481,7.493906 97.324173,12.701941 
M85.340881,199.650528 
	C91.782265,217.750046 113.557053,224.214676 131.383759,213.320007 
	C145.757370,204.535690 146.042786,185.449875 132.053452,176.046814 
	C125.653175,171.744812 118.676109,170.768448 111.164482,170.917999 
	C94.964226,171.240524 84.133560,182.656738 85.340881,199.650528 
M51.627373,131.011551 
	C57.867474,120.419220 58.016701,109.322128 52.934063,98.532608 
	C49.344345,90.912277 43.333630,85.509697 34.102081,84.879143 
	C24.164042,84.200333 17.723206,89.258102 12.966725,97.189690 
	C8.693363,104.315651 7.174153,112.091354 9.136568,120.187294 
	C11.568432,130.219940 16.540596,138.986526 27.127293,141.653259 
	C37.010250,144.142715 45.452885,140.422775 51.627373,131.011551 
M171.206482,119.866226 
	C172.714462,123.709923 173.726212,127.851135 175.820114,131.343536 
	C183.163239,143.591019 199.748871,146.223816 209.880554,135.720093 
	C219.619598,125.623413 221.615967,110.119987 214.402542,97.562889 
	C209.753082,89.469131 203.222504,84.495178 193.475311,84.939659 
	C184.152863,85.364769 178.357681,90.850037 174.133072,98.590553 
	C170.614624,105.037231 170.739517,111.988617 171.206482,119.866226 
M211.732834,48.045231 
	C212.136871,34.713928 197.410645,17.490313 184.342773,16.010153 
	C172.387711,14.656036 165.479919,20.544340 166.007050,31.639763 
	C166.627914,44.708076 180.276093,59.447762 193.207626,61.015656 
	C203.731842,62.291679 209.106918,58.715878 211.732834,48.045231 
M21.885904,168.126938 
	C17.711098,171.010300 15.934025,175.018539 15.882572,180.056839 
	C15.724527,195.533020 31.289030,211.128876 46.934628,211.043640 
	C56.298416,210.992630 61.040760,206.246719 61.060070,196.907532 
	C61.086735,184.011841 50.413826,170.182465 37.092381,167.188538 
	C32.533722,166.163986 27.438766,167.525711 21.885904,168.126938 
M167.378418,189.113312 
	C167.042740,190.228134 166.638763,191.327484 166.381989,192.460190 
	C163.904663,203.388489 169.773010,210.909531 180.911758,211.111755 
	C195.179077,211.370773 212.214417,194.143341 211.809235,179.865875 
	C211.586075,172.001862 205.591873,166.112946 197.722595,166.026581 
	C184.777939,165.884521 172.752594,174.844055 167.378418,189.113312 
M28.623804,23.059095 
	C23.172474,27.867207 18.704916,33.364346 16.670221,40.498760 
	C13.582961,51.323868 18.579187,62.299057 32.798519,61.109005 
	C45.876404,60.014481 60.491489,45.450092 61.062916,32.304523 
	C61.550014,21.098803 56.036133,14.904314 44.990986,16.178951 
	C39.546318,16.807278 34.440395,20.370943 28.623804,23.059095 
z"/>
<path fill="#1380CC" opacity="1.000000" stroke="none" 
	d="
M87.084152,96.170250 
	C91.765022,91.094719 95.857056,85.636070 102.550377,83.925087 
	C114.861366,80.778069 125.866562,81.436447 135.717789,91.732727 
	C152.488785,109.261353 145.662247,137.497070 122.323906,144.072769 
	C109.796173,147.602524 96.410652,143.196320 88.421799,132.912979 
	C80.318481,122.482292 79.740723,108.747131 87.084152,96.170250 
z"/>
<path fill="#1380CC" opacity="1.000000" stroke="none" 
	d="
M97.628792,12.484748 
	C107.180481,7.493906 116.621040,6.856590 126.319366,10.849353 
	C136.813797,15.169868 143.881714,25.111168 142.760391,34.075020 
	C141.397873,44.966965 132.476624,54.671215 121.163261,55.794518 
	C114.587944,56.447380 107.478065,55.968403 101.174431,54.095119 
	C92.032654,51.378407 85.845406,44.789982 84.815910,34.727165 
	C83.773918,24.542076 89.028023,17.702217 97.628792,12.484748 
z"/>
<path fill="#B3B4B3" opacity="1.000000" stroke="none" 
	d="
M85.222321,199.242676 
	C84.133560,182.656738 94.964226,171.240524 111.164482,170.917999 
	C118.676109,170.768448 125.653175,171.744812 132.053452,176.046814 
	C146.042786,185.449875 145.757370,204.535690 131.383759,213.320007 
	C113.557053,224.214676 91.782265,217.750046 85.222321,199.242676 
z"/>
<path fill="#B3B4B3" opacity="1.000000" stroke="none" 
	d="
M51.415127,131.310486 
	C45.452885,140.422775 37.010250,144.142715 27.127293,141.653259 
	C16.540596,138.986526 11.568432,130.219940 9.136568,120.187294 
	C7.174153,112.091354 8.693363,104.315651 12.966725,97.189690 
	C17.723206,89.258102 24.164042,84.200333 34.102081,84.879143 
	C43.333630,85.509697 49.344345,90.912277 52.934063,98.532608 
	C58.016701,109.322128 57.867474,120.419220 51.415127,131.310486 
z"/>
<path fill="#B3B4B3" opacity="1.000000" stroke="none" 
	d="
M171.139648,119.428627 
	C170.739517,111.988617 170.614624,105.037231 174.133072,98.590553 
	C178.357681,90.850037 184.152863,85.364769 193.475311,84.939659 
	C203.222504,84.495178 209.753082,89.469131 214.402542,97.562889 
	C221.615967,110.119987 219.619598,125.623413 209.880554,135.720093 
	C199.748871,146.223816 183.163239,143.591019 175.820114,131.343536 
	C173.726212,127.851135 172.714462,123.709923 171.139648,119.428627 
z"/>
<path fill="#B3B4B3" opacity="1.000000" stroke="none" 
	d="
M211.626404,48.439240 
	C209.106918,58.715878 203.731842,62.291679 193.207626,61.015656 
	C180.276093,59.447762 166.627914,44.708076 166.007050,31.639763 
	C165.479919,20.544340 172.387711,14.656036 184.342773,16.010153 
	C197.410645,17.490313 212.136871,34.713928 211.626404,48.439240 
z"/>
<path fill="#B3B4B3" opacity="1.000000" stroke="none" 
	d="
M22.237370,167.962067 
	C27.438766,167.525711 32.533722,166.163986 37.092381,167.188538 
	C50.413826,170.182465 61.086735,184.011841 61.060070,196.907532 
	C61.040760,206.246719 56.298416,210.992630 46.934628,211.043640 
	C31.289030,211.128876 15.724527,195.533020 15.882572,180.056839 
	C15.934025,175.018539 17.711098,171.010300 22.237370,167.962067 
z"/>
<path fill="#B3B4B3" opacity="1.000000" stroke="none" 
	d="
M167.544403,188.750305 
	C172.752594,174.844055 184.777939,165.884521 197.722595,166.026581 
	C205.591873,166.112946 211.586075,172.001862 211.809235,179.865875 
	C212.214417,194.143341 195.179077,211.370773 180.911758,211.111755 
	C169.773010,210.909531 163.904663,203.388489 166.381989,192.460190 
	C166.638763,191.327484 167.042740,190.228134 167.544403,188.750305 
z"/>
<path fill="#B2B3B2" opacity="1.000000" stroke="none" 
	d="
M28.902496,22.832729 
	C34.440395,20.370943 39.546318,16.807278 44.990986,16.178951 
	C56.036133,14.904314 61.550014,21.098803 61.062916,32.304523 
	C60.491489,45.450092 45.876404,60.014481 32.798519,61.109005 
	C18.579187,62.299057 13.582961,51.323868 16.670221,40.498760 
	C18.704916,33.364346 23.172474,27.867207 28.902496,22.832729 
z"/>
</svg>
