<?xml version="1.0" standalone="no"?>
<!DOCTYPE svg PUBLIC "-//W3C//DTD SVG 20010904//EN"
 "http://www.w3.org/TR/2001/REC-SVG-20010904/DTD/svg10.dtd">
<svg version="1.0" xmlns="http://www.w3.org/2000/svg"
 width="252.000000pt" height="252.000000pt" viewBox="0 0 252.000000 252.000000"
 preserveAspectRatio="xMidYMid meet">

<g transform="translate(0.000000,252.000000) scale(0.100000,-0.100000)"
fill="#000000" stroke="none">
<path d="M1030 2488 c-427 -88 -756 -354 -925 -747 -71 -166 -112 -391 -101
-546 35 -461 296 -859 697 -1060 64 -33 73 -35 92 -22 12 8 114 85 227 172
641 493 936 874 785 1015 -53 50 -154 13 -368 -134 -359 -247 -482 -306 -637
-306 -92 0 -157 28 -218 94 -84 91 -108 186 -78 306 24 100 116 272 213 402
99 131 293 350 365 409 l47 40 192 -55 c182 -53 208 -62 198 -69 -2 -2 -42
-32 -88 -67 -145 -109 -261 -209 -395 -339 -180 -176 -256 -288 -256 -375 0
-37 5 -48 30 -69 80 -68 167 -44 466 129 208 120 306 166 409 195 192 52 350
-13 431 -176 27 -55 29 -68 28 -165 -1 -136 -30 -236 -123 -425 -92 -186 -235
-401 -406 -609 l-37 -46 53 16 c30 9 96 36 148 60 360 169 631 506 702 874 47
246 47 333 -3 554 -81 357 -336 677 -669 838 -241 117 -534 157 -779 106z"/>
</g>
</svg>
