<?xml version="1.0" encoding="UTF-8"?>
<!-- Generator: Adobe Illustrator 24.1.3, SVG Export Plug-In . SVG Version: 6.00 Build 0)  -->
<svg xmlns="http://www.w3.org/2000/svg" xmlns:xlink="http://www.w3.org/1999/xlink" version="1.1" id="Layer_1" x="0px" y="0px" viewBox="0 0 429.4 98.7" style="enable-background:new 0 0 429.4 98.7;" xml:space="preserve">
<style type="text/css">
	.st0{fill:#46BEEE;}
</style>
<g>
	<path d="M97.5,12.6c0,5.5-4.5,10-10,10c-5.5,0-10-4.5-10-10c0-5.5,4.5-10,10-10C93,2.5,97.5,7,97.5,12.6z"></path>
	<g>
		<path d="M0,86.2l43.3-62.5v-0.4H3.9v-17h66v11.9L27.5,79.8v0.5h43.1v17H0V86.2z"></path>
		<rect x="77.5" y="31.3" width="20.5" height="66"></rect>
		<path d="M111.5,97.3V46.4h-8.8V31.3h8.8v-2.6c0-8,2.4-16.7,8.2-22.1C125,1.8,132,0,138.1,0c4.5,0,8,0.7,10.8,1.3l-0.8,15.8    c-1.8-0.5-3.9-0.9-6.6-0.9c-6.7,0-9.6,5.3-9.6,11.7v3.4h13.2v15.1H132v50.9H111.5z"></path>
		<path d="M172,13.4v18h14.7v15.1H172v23.9c0,8,2,11.6,8.1,11.6c2.8,0,4.2-0.1,6.1-0.5l0.1,15.5c-2.6,0.9-7.6,1.8-13.2,1.8    c-6.6,0-12.1-2.3-15.5-5.7c-3.8-3.9-5.7-10.3-5.7-19.6v-27h-8.8V31.3h8.8V18.9L172,13.4z"></path>
	</g>
</g>
<path class="st0" d="M282.7,54.1c0,28.7-20.5,44.1-42.2,44.1c-23.7,0-41.3-17.6-41.3-41.9c0-26.1,18.5-44.1,42.2-44.1  C265.8,12.2,282.7,30.2,282.7,54.1z M205.5,56.1c0,19.6,13.4,37.2,35.3,37.2c21.9,0,35.6-16.6,35.6-38.7c0-18-11.7-37.5-35.3-37.5  C217.5,17.1,205.5,35.6,205.5,56.1z"></path>
<path class="st0" d="M289,98.6V15.5h5.7l37.6,51.2c7.6,10.4,12.6,16.9,16.9,24.3l0.2-0.2c-0.9-9.6-1-19.5-1-32.3V15.5h5.9v83.1h-5.5  l-36.4-49.4c-7-9.6-13.4-18.4-17.9-25.8l-0.4,0.2c0.6,9.4,0.7,18.2,0.7,30.6v44.4H289z"></path>
<path class="st0" d="M403.6,57.3h-37v36.2h41.2v5.1h-47.2V15.5h45.1v5.1h-39.1v31.7h37V57.3z"></path>
<g>
	<path d="M417.9,13.3V6.5h-2.5v-1h6v1h-2.5v6.9H417.9z"></path>
	<path d="M423,6.7v6.7h-1V5.5h1.5l1.9,6c0.1,0.2,0.1,0.3,0.1,0.4c0,0.1,0,0.2,0.1,0.2c0-0.1,0.1-0.2,0.1-0.4c0-0.1,0.1-0.2,0.1-0.3   l2-6h1.5v7.8h-1V6.7c0,0.1-0.1,0.2-0.1,0.3c0,0.1-0.1,0.2-0.1,0.3l-2,6h-1l-2-6c0-0.1-0.1-0.2-0.1-0.3C423.1,6.9,423.1,6.8,423,6.7   z"></path>
</g>
</svg>
