<svg xmlns="http://www.w3.org/2000/svg" width="250" height="250" fill="none"><g clip-path="url(#a)"><path fill="#7F54B3" fill-rule="evenodd" d="M214.26 59H35.394C24.074 59 14.91 68.317 15 79.623v68.744c0 11.396 9.163 20.622 20.483 20.622H120.2l38.721 21.709-8.805-21.709h64.144c11.32 0 20.483-9.226 20.483-20.622V79.623C234.743 68.226 225.58 59 214.26 59ZM31.621 74.92c-2.515.18-4.402 1.085-5.66 2.803-1.258 1.629-1.707 3.709-1.437 6.06 5.3 33.921 10.241 56.805 14.823 68.654 1.797 4.341 3.863 6.422 6.289 6.241 3.773-.271 8.265-5.517 13.565-15.738 2.785-5.79 7.097-14.473 12.937-26.051 4.85 17.095 11.499 29.94 19.854 38.533 2.336 2.442 4.761 3.527 7.097 3.346 2.066-.181 3.683-1.266 4.761-3.256.899-1.719 1.258-3.709 1.078-5.97-.539-8.231.27-19.718 2.516-34.462 2.335-15.196 5.21-26.14 8.714-32.653.719-1.357.988-2.714.899-4.342-.18-2.08-1.079-3.799-2.785-5.155-1.707-1.357-3.594-1.99-5.66-1.81-2.605.181-4.582 1.448-5.929 3.98-5.57 10.222-9.523 26.774-11.859 49.749-3.414-8.683-6.289-18.905-8.535-30.935-.988-5.336-3.413-7.869-7.366-7.597-2.695.18-4.941 1.99-6.738 5.427L48.51 129.462c-3.234-13.116-6.288-29.125-9.073-48.03-.629-4.703-3.234-6.874-7.816-6.513Zm173.117 6.512c6.379 1.357 11.14 4.794 14.374 10.493 2.875 4.884 4.312 10.764 4.312 17.819 0 9.316-2.336 17.819-7.007 25.598-5.391 9.045-12.398 13.567-21.112 13.567-1.527 0-3.144-.181-4.851-.542-6.379-1.357-11.14-4.794-14.374-10.493-2.875-4.975-4.312-10.944-4.312-17.909 0-9.317 2.336-17.819 7.007-25.508 5.48-9.045 12.487-13.567 21.112-13.567 1.527 0 3.144.18 4.851.542Zm-3.773 48.935c3.324-2.985 5.57-7.417 6.828-13.387.359-2.08.628-4.342.628-6.694 0-2.623-.539-5.427-1.617-8.231-1.347-3.527-3.144-5.427-5.3-5.879-3.234-.633-6.379 1.176-9.343 5.608-2.426 3.437-3.953 7.055-4.762 10.764-.449 2.08-.629 4.342-.629 6.603 0 2.623.539 5.427 1.617 8.231 1.348 3.527 3.145 5.427 5.301 5.879 2.246.452 4.671-.542 7.277-2.894Zm-38.181-38.442c-3.235-5.699-8.086-9.136-14.374-10.493-1.708-.362-3.324-.542-4.852-.542-8.624 0-15.631 4.522-21.111 13.567-4.672 7.689-7.008 16.191-7.008 25.508 0 6.965 1.438 12.934 4.312 17.909 3.235 5.699 7.996 9.136 14.374 10.493 1.707.361 3.324.542 4.852.542 8.714 0 15.721-4.522 21.111-13.567 4.672-7.779 7.008-16.282 7.008-25.598 0-7.055-1.438-12.935-4.312-17.82Zm-11.32 25.055c-1.257 5.97-3.504 10.402-6.828 13.387-2.605 2.352-5.03 3.346-7.276 2.894-2.157-.452-3.953-2.352-5.301-5.879-1.078-2.804-1.617-5.608-1.617-8.231 0-2.261.18-4.523.629-6.603.808-3.709 2.336-7.327 4.761-10.764 2.965-4.432 6.109-6.241 9.343-5.608 2.157.452 3.953 2.352 5.301 5.879 1.078 2.804 1.617 5.608 1.617 8.231 0 2.352-.18 4.614-.629 6.694Z" clip-rule="evenodd"/></g><defs><clipPath id="a"><path fill="#fff" d="M15 59h220v132H15z"/></clipPath></defs></svg>