<svg height ="250" width="250" viewBox="0 0 180 23" fill="none" xmlns="http://www.w3.org/2000/svg">
<g id="Logo horizontal">
<path id="Path 25663" d="M0 2.6807C0 2.3537 0.129845 2.0401 0.361067 1.80888C0.592288 1.57766 0.905977 1.44775 1.23297 1.44775H11.1545C11.2827 1.44775 11.4095 1.47301 11.5279 1.52206C11.6463 1.57111 11.7539 1.64297 11.8445 1.7336C11.9352 1.82422 12.007 1.93183 12.0561 2.05023C12.1051 2.16864 12.1304 2.29556 12.1304 2.42372V3.01567C12.1304 3.14384 12.1051 3.27075 12.0561 3.38916C12.007 3.50757 11.9352 3.61517 11.8445 3.70579C11.7539 3.79642 11.6463 3.86832 11.5279 3.91736C11.4095 3.96641 11.2827 3.99164 11.1545 3.99164H2.89891V10.5313H9.43851C9.69727 10.5316 9.94533 10.6345 10.1283 10.8175C10.3113 11.0004 10.4143 11.2485 10.4145 11.5073V12.0982C10.4145 12.3571 10.3117 12.6053 10.1287 12.7884C9.94564 12.9714 9.69735 13.0742 9.43851 13.0742H2.89891V19.7909H11.6574C11.7856 19.7907 11.9126 19.8159 12.0312 19.8649C12.1497 19.9139 12.2574 19.9857 12.3482 20.0764C12.4389 20.167 12.5108 20.2747 12.5599 20.3931C12.6091 20.5116 12.6344 20.6386 12.6344 20.7668V21.3588C12.6341 21.6177 12.5311 21.866 12.3479 22.049C12.1647 22.232 11.9163 22.3348 11.6574 22.3348H1.23798C0.910981 22.3348 0.597293 22.2048 0.366071 21.9736C0.13485 21.7424 0.00500464 21.4288 0.00500464 21.1018L0 2.6807Z" fill="#2D2F7A"/>
<path id="Path 25664" d="M18.5809 21.4427C18.5998 21.5754 18.5875 21.7106 18.5451 21.8377C18.5027 21.9648 18.4312 22.0803 18.3364 22.175C18.2416 22.2697 18.126 22.341 17.9989 22.3833C17.8717 22.4256 17.7365 22.4377 17.6039 22.4187H16.6869C16.5543 22.4377 16.4191 22.4256 16.2919 22.3833C16.1648 22.341 16.0492 22.2697 15.9544 22.175C15.8596 22.0803 15.7882 21.9648 15.7458 21.8377C15.7034 21.7106 15.6911 21.5754 15.71 21.4427V0.984692C15.6911 0.852037 15.7034 0.716823 15.7458 0.589722C15.7882 0.462621 15.8596 0.347128 15.9544 0.252427C16.0492 0.157727 16.1648 0.0864213 16.2919 0.0441244C16.4191 0.00182743 16.5543 -0.0102846 16.6869 0.00875619H17.6039C17.7365 -0.0102846 17.8717 0.00182743 17.9989 0.0441244C18.126 0.0864213 18.2416 0.157727 18.3364 0.252427C18.4312 0.347128 18.5027 0.462621 18.5451 0.589722C18.5875 0.716823 18.5998 0.852037 18.5809 0.984692V21.4427Z" fill="#2D2F7A"/>
<path id="Path 25665" d="M34.9049 7.36518H34.1948C33.5441 7.36518 33.2188 7.64153 33.2188 8.1942V8.93819C33.221 9.13522 33.2407 9.33167 33.2778 9.5252H33.2188C32.998 9.04653 32.6747 8.62218 32.2718 8.28218C31.8406 7.92 31.3568 7.62563 30.8369 7.40919C30.1082 7.11955 29.3275 6.98338 28.5438 7.00919C24.5507 7.00919 21.8557 9.85121 21.8557 14.9793C21.8557 19.6953 24.5117 22.7793 28.2937 22.7793C30.3198 22.7793 32.5248 21.9373 33.2188 20.2343H33.2778C33.2469 20.4354 33.2272 20.638 33.2188 20.8413V21.5943C33.2188 22.1463 33.5441 22.4226 34.1948 22.4233H34.9049C35.0374 22.4422 35.1725 22.4299 35.2995 22.3875C35.4266 22.3452 35.542 22.2738 35.6367 22.1791C35.7314 22.0845 35.8027 21.9691 35.8451 21.842C35.8875 21.715 35.8997 21.5799 35.8808 21.4473V8.34718C35.9008 8.21416 35.8893 8.07835 35.8474 7.95054C35.8055 7.82274 35.7342 7.70649 35.6394 7.61109C35.5446 7.5157 35.4288 7.44377 35.3012 7.40107C35.1737 7.35838 35.038 7.34609 34.9049 7.36518ZM28.8998 20.2913C26.3808 20.2913 24.7848 17.9243 24.7848 14.8622C24.7848 11.9912 25.9378 9.49621 29.0298 9.49621C31.4019 9.49621 33.0698 11.5962 33.0698 14.8642C33.0718 18.1043 31.3839 20.2913 28.9048 20.2913H28.8998Z" fill="#2D2F7A"/>
<path id="Path 25666" d="M39.4623 21.0663C39.3499 21.0093 39.2532 20.9255 39.181 20.8222C39.1088 20.7189 39.0632 20.5994 39.0482 20.4743C39.0348 20.2117 39.1075 19.9519 39.2552 19.7343L39.5553 19.3203C39.6224 19.2133 39.7108 19.1214 39.8151 19.0501C39.9193 18.9789 40.0372 18.9299 40.1613 18.9063C40.4276 18.9014 40.6897 18.9733 40.9163 19.1133C41.3745 19.3971 41.849 19.6539 42.3373 19.8823C43.044 20.1975 43.8129 20.3489 44.5863 20.3253C45.2378 20.3543 45.8812 20.1726 46.4213 19.8073C46.6528 19.642 46.839 19.4213 46.9631 19.1653C47.0871 18.9094 47.1449 18.6264 47.1313 18.3423C47.1378 18.1132 47.0887 17.8859 46.9882 17.6799C46.8877 17.4738 46.7388 17.2952 46.5542 17.1593C46.1112 16.8299 45.6293 16.5565 45.1193 16.3453C44.5466 16.0986 43.9303 15.862 43.2703 15.6353C42.6207 15.4142 42 15.116 41.4213 14.7473C40.8614 14.3943 40.3743 13.9374 39.9862 13.4013C39.5785 12.7899 39.3765 12.0644 39.4093 11.3302C39.3958 10.6782 39.5431 10.0328 39.8383 9.45123C40.117 8.91709 40.5174 8.45602 41.0072 8.10524C41.5323 7.73504 42.1182 7.45953 42.7383 7.29121C43.4173 7.10155 44.1193 7.007 44.8243 7.01023C45.7057 6.98265 46.5844 7.12316 47.4133 7.42424C47.949 7.63096 48.4682 7.87834 48.9663 8.16423C49.0842 8.21177 49.1896 8.28583 49.2742 8.3807C49.3589 8.47557 49.4205 8.58868 49.4543 8.71124C49.4961 8.97411 49.438 9.2431 49.2913 9.46524L49.0253 9.90924C48.7487 10.4026 48.3153 10.5109 47.7253 10.2343C47.3289 10.0198 46.9186 9.83201 46.4972 9.67224C45.9144 9.46023 45.2973 9.35851 44.6773 9.37225C44.047 9.35081 43.4243 9.51569 42.8872 9.84625C42.6516 9.99764 42.4603 10.2088 42.3329 10.4583C42.2055 10.7078 42.1467 10.9866 42.1622 11.2662C42.1563 11.4977 42.2056 11.7273 42.3059 11.9359C42.4063 12.1446 42.5548 12.3264 42.7393 12.4663C43.1775 12.803 43.6604 13.0769 44.1742 13.2803C44.7462 13.5169 45.3626 13.7536 46.0232 13.9903C46.6669 14.2194 47.2863 14.5118 47.8723 14.8633C48.4378 15.2025 48.9266 15.6558 49.3073 16.1943C49.7138 16.8119 49.9157 17.5417 49.8844 18.2803C49.8893 18.8887 49.7577 19.4905 49.4993 20.0413C49.2408 20.585 48.8652 21.0648 48.3994 21.4463C47.8961 21.8574 47.3191 22.169 46.6993 22.3643C45.9877 22.5884 45.2452 22.6981 44.4993 22.6893C43.9183 22.694 43.3382 22.6394 42.7682 22.5263C42.2884 22.4308 41.8183 22.2922 41.3633 22.1123C40.9814 21.9609 40.6105 21.7832 40.2533 21.5803C39.9772 21.4289 39.7128 21.2572 39.4623 21.0663Z" fill="#2D2F7A"/>
<path id="Path 25667" d="M64.2121 4.37657C64.0795 4.39543 63.9443 4.38318 63.8173 4.3408C63.6903 4.29843 63.575 4.22709 63.4803 4.13241C63.3856 4.03773 63.3142 3.92231 63.2718 3.7953C63.2294 3.66828 63.2173 3.53316 63.2362 3.4006V2.42466C63.2173 2.2921 63.2294 2.15695 63.2718 2.02994C63.3142 1.90292 63.3856 1.78751 63.4803 1.69283C63.575 1.59815 63.6903 1.52681 63.8173 1.48443C63.9443 1.44206 64.0795 1.42983 64.2121 1.4487H65.218C65.3506 1.42966 65.4859 1.44177 65.613 1.48407C65.7402 1.52636 65.8557 1.59767 65.9505 1.69237C66.0453 1.78707 66.1168 1.90256 66.1593 2.02966C66.2017 2.15676 66.2139 2.29201 66.195 2.42466V3.4006C66.2139 3.53326 66.2017 3.6685 66.1593 3.7956C66.1168 3.9227 66.0453 4.03816 65.9505 4.13286C65.8557 4.22757 65.7402 4.2989 65.613 4.3412C65.4859 4.3835 65.3506 4.39561 65.218 4.37657H64.2121ZM63.2651 8.34137C63.2462 8.20872 63.2584 8.07347 63.3009 7.94637C63.3433 7.81927 63.4148 7.70381 63.5096 7.60911C63.6044 7.51441 63.7198 7.44307 63.847 7.40077C63.9741 7.35848 64.1095 7.34637 64.2421 7.36541H65.1591C65.2916 7.34654 65.4267 7.35877 65.5537 7.40114C65.6807 7.44351 65.7962 7.51489 65.8908 7.60957C65.9855 7.70424 66.0568 7.81963 66.0992 7.94665C66.1416 8.07366 66.1538 8.20881 66.135 8.34137V21.4408C66.1538 21.5733 66.1416 21.7084 66.0992 21.8354C66.0568 21.9625 65.9855 22.0779 65.8908 22.1726C65.7962 22.2672 65.6807 22.3386 65.5537 22.381C65.4267 22.4233 65.2916 22.4356 65.1591 22.4167H64.2421C64.1095 22.4357 63.9741 22.4236 63.847 22.3813C63.7198 22.339 63.6044 22.2677 63.5096 22.173C63.4148 22.0783 63.3433 21.9628 63.3009 21.8357C63.2584 21.7086 63.2462 21.5734 63.2651 21.4408V8.34137Z" fill="#2D2F7A"/>
<path id="Path 25668" d="M80.8436 20.7866C80.9327 20.9716 80.9472 21.1839 80.8841 21.3793C80.821 21.5748 80.6851 21.7385 80.5046 21.8366C79.3854 22.4167 78.1401 22.7111 76.8796 22.6936C71.5515 22.6936 69.3015 18.6935 69.3015 14.8525C69.3015 11.0895 71.6885 7.01143 76.7566 7.01143C77.9541 6.99241 79.1382 7.26529 80.2066 7.80645C80.3919 7.90357 80.5319 8.06945 80.5964 8.26855C80.6609 8.46764 80.6448 8.68409 80.5516 8.87146L80.1876 9.60047C80.0982 9.78173 79.9428 9.9219 79.7533 9.99219C79.5638 10.0625 79.3546 10.0576 79.1686 9.97846C78.4947 9.67521 77.7664 9.51159 77.0276 9.49747C73.9216 9.49747 72.2276 11.1775 72.2276 14.8235C72.2276 17.9385 73.8605 20.2095 77.0836 20.2095C77.9072 20.2033 78.7205 20.0256 79.4716 19.6875C79.6586 19.607 79.8697 19.6021 80.0603 19.6739C80.2508 19.7457 80.4062 19.8886 80.4936 20.0725L80.8436 20.7866Z" fill="#2D2F7A"/>
<path id="Path 25669" d="M57.1385 21.4426C57.1382 21.7015 57.0352 21.9497 56.852 22.1327C56.6688 22.3157 56.4204 22.4185 56.1615 22.4185H55.2445C55.1163 22.4187 54.9893 22.3935 54.8707 22.3445C54.7522 22.2956 54.6445 22.2237 54.5537 22.133C54.463 22.0424 54.3911 21.9348 54.342 21.8163C54.2929 21.6978 54.2675 21.5708 54.2675 21.4426V9.85015H52.7186C52.5877 9.86683 52.4547 9.85281 52.3302 9.8092C52.2057 9.76558 52.093 9.69357 52.0011 9.59888C51.9093 9.50419 51.8408 9.38941 51.8009 9.26363C51.7611 9.13785 51.751 9.0045 51.7717 8.87418V8.33521C51.7717 8.11721 51.8582 7.90814 52.0124 7.754C52.1665 7.59985 52.3756 7.51325 52.5936 7.51325H54.3276V4.22941C54.3276 3.97048 54.4303 3.72214 54.6133 3.53896C54.7963 3.35577 55.0445 3.25271 55.3035 3.25244H56.1615C56.4206 3.25244 56.669 3.35538 56.8522 3.53859C57.0354 3.72181 57.1385 3.97031 57.1385 4.22941V7.51325H59.8963C60.1143 7.51325 60.3234 7.59985 60.4775 7.754C60.6317 7.90814 60.7182 8.11721 60.7182 8.33521V8.87418C60.7389 9.0045 60.7289 9.13785 60.6891 9.26363C60.6492 9.38941 60.5806 9.50419 60.4888 9.59888C60.3969 9.69357 60.2842 9.76558 60.1597 9.8092C60.0352 9.85281 59.9022 9.86683 59.7713 9.85015H57.1385V21.4426Z" fill="#2D2F7A"/>
<path id="Path 25670" d="M110.458 2.6807C110.458 2.3537 110.588 2.0401 110.819 1.80888C111.05 1.57766 111.364 1.44775 111.691 1.44775H121.613C121.872 1.44775 122.12 1.55057 122.303 1.7336C122.486 1.91663 122.589 2.16488 122.589 2.42372V3.01567C122.589 3.27451 122.486 3.52277 122.303 3.70579C122.12 3.88882 121.872 3.99164 121.613 3.99164H113.358V10.5313H119.897C120.156 10.5313 120.405 10.6341 120.588 10.8171C120.771 11.0001 120.874 11.2483 120.874 11.5073V12.0982C120.874 12.2265 120.849 12.3535 120.8 12.472C120.751 12.5904 120.679 12.6981 120.588 12.7887C120.497 12.8793 120.39 12.9512 120.271 13.0002C120.153 13.0492 120.026 13.0743 119.897 13.0742H113.358V19.7909H122.116C122.375 19.7909 122.623 19.8937 122.806 20.0767C122.989 20.2598 123.092 20.508 123.092 20.7668V21.3588C123.092 21.6177 122.989 21.8659 122.806 22.0489C122.623 22.2319 122.375 22.3348 122.116 22.3348H111.691C111.364 22.3348 111.05 22.2048 110.819 21.9736C110.588 21.7424 110.458 21.4288 110.458 21.1018V2.6807Z" fill="#2D2F7A"/>
<path id="Path 25671" d="M126.111 8.34217C126.092 8.20961 126.104 8.07446 126.146 7.94744C126.189 7.82043 126.26 7.70501 126.355 7.61033C126.45 7.51565 126.565 7.44431 126.692 7.40194C126.819 7.35956 126.954 7.34733 127.087 7.3662H127.915C128.047 7.34716 128.183 7.35927 128.31 7.40157C128.437 7.44387 128.552 7.51517 128.647 7.60987C128.742 7.70457 128.813 7.82007 128.856 7.94717C128.898 8.07427 128.911 8.20951 128.892 8.34217V9.6731C128.892 9.87188 128.872 10.0701 128.833 10.2651C128.812 10.3525 128.802 10.4421 128.803 10.532H128.862C129.058 10.0667 129.322 9.63301 129.646 9.24511C129.996 8.81612 130.404 8.43787 130.859 8.12117C131.326 7.79276 131.833 7.52401 132.367 7.32119C132.91 7.11404 133.486 7.00864 134.067 7.01023C136.534 7.01023 138.034 8.1435 138.567 10.4101H138.626C138.841 9.94881 139.12 9.52025 139.455 9.13711C139.811 8.72185 140.219 8.35387 140.668 8.04216C141.133 7.7211 141.641 7.46696 142.177 7.2872C142.74 7.09823 143.329 7.00332 143.923 7.00623C144.617 6.94515 145.316 7.04255 145.967 7.29113C146.618 7.53971 147.204 7.93297 147.681 8.44116C148.559 9.69711 148.977 11.2176 148.864 12.7459V21.4385C148.883 21.5711 148.87 21.7062 148.828 21.8332C148.786 21.9602 148.714 22.0757 148.62 22.1703C148.525 22.265 148.409 22.3364 148.282 22.3787C148.155 22.4211 148.02 22.4334 147.888 22.4145H146.971C146.838 22.4334 146.703 22.4211 146.576 22.3787C146.449 22.3364 146.334 22.265 146.239 22.1703C146.144 22.0757 146.073 21.9602 146.031 21.8332C145.988 21.7062 145.976 21.5711 145.995 21.4385V13.3669C145.999 12.8721 145.965 12.3778 145.895 11.888C145.839 11.4736 145.709 11.0726 145.511 10.7041C145.323 10.3686 145.046 10.0917 144.711 9.90408C144.296 9.68926 143.832 9.58591 143.365 9.6041C142.711 9.59438 142.066 9.76309 141.501 10.0921C140.945 10.4202 140.466 10.8634 140.096 11.392C139.702 11.9541 139.407 12.5794 139.223 13.2409C139.025 13.9234 138.924 14.6303 138.923 15.3408V21.4295C138.944 21.5598 138.934 21.6932 138.894 21.819C138.854 21.9448 138.785 22.0595 138.694 22.1542C138.602 22.2489 138.489 22.3209 138.365 22.3645C138.24 22.4081 138.107 22.4222 137.976 22.4055H137.029C136.898 22.4222 136.765 22.4081 136.641 22.3645C136.516 22.3209 136.404 22.2489 136.312 22.1542C136.22 22.0595 136.151 21.9448 136.112 21.819C136.072 21.6932 136.062 21.5598 136.082 21.4295V13.3579C136.084 12.8832 136.054 12.4088 135.993 11.938C135.945 11.5204 135.825 11.1144 135.638 10.7381C135.461 10.3935 135.189 10.1064 134.854 9.91009C134.432 9.68443 133.957 9.57698 133.478 9.5991C132.808 9.58763 132.148 9.76059 131.57 10.0991C131.009 10.4336 130.525 10.8822 130.15 11.416C129.756 11.9782 129.46 12.6035 129.277 13.2649C129.08 13.9378 128.979 14.6349 128.977 15.3358V21.4245C128.996 21.5572 128.983 21.6924 128.941 21.8195C128.898 21.9466 128.827 22.0621 128.732 22.1568C128.637 22.2515 128.522 22.3228 128.395 22.3651C128.268 22.4074 128.132 22.4195 128 22.4005H127.083C126.95 22.4194 126.815 22.4071 126.688 22.3648C126.561 22.3224 126.446 22.251 126.351 22.1563C126.256 22.0616 126.185 21.9463 126.143 21.8192C126.1 21.6922 126.088 21.5571 126.107 21.4245L126.111 8.34217Z" fill="#2D2F7A"/>
<path id="Path 25672" d="M171.055 4.37667C170.922 4.39554 170.787 4.38328 170.66 4.3409C170.533 4.29853 170.417 4.22719 170.323 4.13251C170.228 4.03783 170.157 3.92241 170.114 3.7954C170.072 3.66838 170.06 3.53326 170.079 3.4007V2.42476C170.06 2.29221 170.072 2.15705 170.114 2.03004C170.157 1.90303 170.228 1.78761 170.323 1.69293C170.417 1.59825 170.533 1.52691 170.66 1.48453C170.787 1.44216 170.922 1.42993 171.055 1.4488H172.061C172.193 1.42993 172.328 1.44216 172.455 1.48453C172.582 1.52691 172.698 1.59825 172.792 1.69293C172.887 1.78761 172.958 1.90303 173.001 2.03004C173.043 2.15705 173.055 2.29221 173.037 2.42476V3.4007C173.055 3.53326 173.043 3.66838 173.001 3.7954C172.958 3.92241 172.887 4.03783 172.792 4.13251C172.698 4.22719 172.582 4.29853 172.455 4.3409C172.328 4.38328 172.193 4.39554 172.061 4.37667H171.055ZM170.108 8.34147C170.089 8.20891 170.101 8.07376 170.143 7.94675C170.186 7.81973 170.257 7.70435 170.352 7.60967C170.446 7.51499 170.562 7.44362 170.689 7.40124C170.816 7.35887 170.951 7.34664 171.084 7.36551H172.001C172.133 7.34664 172.268 7.35887 172.395 7.40124C172.522 7.44362 172.638 7.51499 172.732 7.60967C172.827 7.70435 172.898 7.81973 172.941 7.94675C172.983 8.07376 172.995 8.20891 172.977 8.34147V21.4409C172.995 21.5734 172.983 21.7085 172.941 21.8355C172.898 21.9626 172.827 22.078 172.732 22.1727C172.638 22.2673 172.522 22.3387 172.395 22.3811C172.268 22.4234 172.133 22.4357 172.001 22.4168H171.084C170.951 22.4357 170.816 22.4234 170.689 22.3811C170.562 22.3387 170.446 22.2673 170.352 22.1727C170.257 22.078 170.186 21.9626 170.143 21.8355C170.101 21.7085 170.089 21.5734 170.108 21.4409V8.34147Z" fill="#2D2F7A"/>
<path id="Path 25673" d="M179.991 21.4427C180.01 21.5753 179.998 21.7104 179.956 21.8374C179.913 21.9644 179.842 22.0799 179.747 22.1745C179.652 22.2692 179.537 22.3406 179.41 22.3829C179.283 22.4253 179.148 22.4375 179.015 22.4187H178.098C177.966 22.4377 177.831 22.4256 177.703 22.3833C177.576 22.341 177.461 22.2697 177.366 22.175C177.271 22.0803 177.2 21.9648 177.157 21.8377C177.115 21.7106 177.103 21.5754 177.121 21.4427V0.984692C177.103 0.852037 177.115 0.716823 177.157 0.589722C177.2 0.462621 177.271 0.347128 177.366 0.252427C177.461 0.157727 177.576 0.0864213 177.703 0.0441244C177.831 0.00182743 177.966 -0.0102846 178.098 0.00875619H179.015C179.148 -0.010112 179.283 0.00211663 179.41 0.0444906C179.537 0.0868645 179.652 0.158206 179.747 0.252885C179.842 0.347564 179.913 0.462983 179.956 0.589997C179.998 0.717011 180.01 0.852132 179.991 0.984692V21.4427Z" fill="#2D2F7A"/>
<path id="Path 25674" d="M164.961 7.36421H164.251C163.599 7.36421 163.274 7.64055 163.274 8.19322V8.93722C163.276 9.13424 163.296 9.33068 163.333 9.52423H163.274C163.053 9.04565 162.729 8.62134 162.327 8.2812C161.895 7.91905 161.412 7.62468 160.892 7.40821C160.163 7.11857 159.382 6.98241 158.599 7.00822C154.607 7.00822 151.912 9.85024 151.912 14.9783C151.912 19.6943 154.568 22.7783 158.35 22.7783C160.376 22.7783 162.581 21.9353 163.275 20.2333H163.334C163.303 20.4344 163.283 20.6371 163.275 20.8403V21.5933C163.275 22.1453 163.6 22.4213 164.252 22.4213H164.962C165.094 22.4404 165.23 22.4283 165.357 22.3859C165.484 22.3436 165.6 22.2722 165.695 22.1773C165.79 22.0825 165.861 21.9669 165.903 21.8397C165.946 21.7124 165.958 21.5771 165.939 21.4443V8.34422C165.958 8.21116 165.947 8.07533 165.904 7.94761C165.862 7.8199 165.791 7.70383 165.696 7.60862C165.601 7.51342 165.485 7.44174 165.357 7.3993C165.23 7.35687 165.094 7.34484 164.961 7.36421ZM158.956 20.2903C156.437 20.2903 154.841 17.9233 154.841 14.8613C154.841 11.9902 155.994 9.49523 159.086 9.49523C161.458 9.49523 163.126 11.5952 163.126 14.8633C163.127 18.1003 161.44 20.2903 158.956 20.2903Z" fill="#2D2F7A"/>
<path id="Path 25675" d="M103.759 11.8532C103.11 11.0105 102.155 10.457 101.101 10.3123C100.973 10.2919 100.843 10.2809 100.713 10.2793C100.583 10.2793 100.447 10.2673 100.355 10.2713H99.7351H99.1541C99.0337 10.2713 98.9182 10.3191 98.8331 10.4043C98.7479 10.4894 98.7001 10.6049 98.7001 10.7253V11.4612C98.7001 11.5816 98.7479 11.6971 98.8331 11.7823C98.9182 11.8674 99.0337 11.9152 99.1541 11.9152H99.7351H100.355C100.442 11.9143 100.529 11.918 100.616 11.9262C100.693 11.9306 100.769 11.9416 100.844 11.9592C101.443 12.0758 101.973 12.4226 102.32 12.9252C102.655 13.4178 102.797 14.0164 102.72 14.6071C102.643 15.2032 102.346 15.7488 101.886 16.136C101.652 16.333 101.38 16.4785 101.086 16.563C100.757 16.6509 100.415 16.6847 100.075 16.663L97.5942 16.673C95.9402 16.681 94.2863 16.687 92.6314 16.673L90.1495 16.664H89.5296H89.0645L88.9496 16.656C88.6438 16.6355 88.3452 16.555 88.0706 16.419C87.5324 16.1383 87.1235 15.6604 86.9297 15.0851C86.7367 14.5222 86.7552 13.9084 86.9817 13.3581C87.2092 12.7935 87.65 12.3412 88.2086 12.0992C88.4955 11.9777 88.804 11.9158 89.1156 11.9172H90.3565C91.6825 11.9172 92.8784 11.9052 94.1563 11.9172L92.6704 13.5571C92.6373 13.5939 92.6119 13.6371 92.5958 13.6839C92.5797 13.7307 92.5733 13.7803 92.5768 13.8297C92.5804 13.8791 92.5939 13.9273 92.6165 13.9713C92.6391 14.0154 92.6704 14.0544 92.7084 14.0861L93.1924 14.4861C93.2709 14.551 93.3718 14.5822 93.4732 14.5728C93.5746 14.5634 93.6681 14.5143 93.7333 14.4361L96.1072 11.5782C96.2187 11.4442 96.2797 11.2755 96.2797 11.1013C96.2797 10.927 96.2187 10.7583 96.1072 10.6243L93.7333 7.76643C93.7011 7.7276 93.6616 7.6955 93.6169 7.67198C93.5723 7.64845 93.5235 7.63396 93.4732 7.62932C93.423 7.62467 93.3723 7.62996 93.3241 7.64491C93.2759 7.65986 93.2312 7.68415 93.1924 7.71641L92.7084 8.11638C92.6703 8.14806 92.639 8.18715 92.6164 8.23125C92.5938 8.27535 92.5804 8.32357 92.577 8.37299C92.5735 8.42242 92.5801 8.47202 92.5963 8.51883C92.6125 8.56565 92.6381 8.60871 92.6714 8.64538L94.1573 10.2863C92.8834 10.2943 91.6885 10.2863 90.3575 10.2863H89.1165C88.5986 10.2808 88.084 10.3692 87.5976 10.5473C86.598 10.9178 85.782 11.6631 85.3227 12.6252C85.0986 13.1099 84.9743 13.6347 84.9571 14.1685C84.94 14.7022 85.0303 15.2339 85.2228 15.732C85.6144 16.7253 86.3818 17.524 87.3586 17.9549C87.835 18.1706 88.349 18.2912 88.8716 18.3099L89.0656 18.3179H89.5316H90.1515L92.6334 18.3089C94.2873 18.2979 95.9413 18.3089 97.5962 18.3089L100.077 18.3189C100.564 18.3433 101.051 18.2999 101.526 18.1899C102.034 18.0576 102.513 17.8314 102.938 17.5229C103.367 17.2106 103.73 16.8155 104.005 16.361C104.28 15.9064 104.461 15.4016 104.538 14.8761C104.619 14.3457 104.591 13.8045 104.457 13.285C104.324 12.7655 104.086 12.2784 103.759 11.8532Z" fill="#5457FF"/>
</g>
</svg>
