<svg xmlns="http://www.w3.org/2000/svg" viewBox="25.6294 0.525 48.9874 33.6812" width="250" height="250">
  <defs>
    <style type="text/css">
	.st0{fill:#409CE3;}
	.st1{fill:#121313;}
</style>
  </defs>
  <path id="path18" class="st0" d="M46.9,0.9c2.3-0.5,4.1-0.5,6.2,0c5.3,1.1,9.6,5.4,11,10.6c0.5,1.8,0.5,3.6,0.4,5.4 c2.2-0.3,4.4,0.2,6.2,1.4c2.5,1.6,4.1,4.7,3.9,7.7c-0.1,4.4-4.4,8.3-8.8,8.2H38.6c-1.8,0-3.3,0.1-5-0.5c-3.3-1.1-6.1-3.7-7.3-7 c-0.9-2.1-0.7-4.4-0.5-6.5c0.8-5.1,5.3-9.1,10.3-9.6C37.7,5.8,41.9,1.9,46.9,0.9L46.9,0.9z M40.4,11.4c2.9,0.5,5.4,2.3,8.2,3.5 c-0.5,0.8-1.2,3-1.6,3.8c-1.5-0.8-3.1-1.5-4.6-2.4c-1.8-0.9-3.9-1.6-5.8-1.1c-3.6,0.8-6.7,3.8-6.3,7.5c0.2,4,4.5,6.8,8.5,6.8h25.5 c2.1,0.1,4.8,0,5.9-1.9c0.8-1.9,1-4.2-1-6c-1.5-1.4-3.7-1.4-5.5-0.5c-0.5,1.4-1.3,2.3-2.3,3.4c-0.7-0.6-2.7-1.9-3.4-2.4 c1.3-1.5,2.2-3.4,2.4-5.4c0.7-4.6-2.3-9.4-6.6-11C48.7,3.7,42.2,6.4,40.4,11.4z"/>
</svg>
