<svg xmlns="http://www.w3.org/2000/svg" width="250" height="250" fill="none"><g clip-path="url(#a)"><path fill="#504AD0" d="M207.666 199.458c2.375 5.88 4.922 10.297 7.663 13.242 2.915 2.76 5.737 4.222 8.468 4.418v5.519a1226.036 1226.036 0 0 0-49.747-.824c-20.767 0-36.072.268-45.916.824v-5.519c6.93-.371 11.841-1.195 14.755-2.492 2.915-1.462 4.382-3.954 4.382-7.445 0-3.316-1.1-7.723-3.291-13.253l-16.121-45.267H72.651l-4.647 12.429c-6.012 15.631-9.028 27.597-9.028 35.876 0 7.548 2.099 12.697 6.287 15.456 4.198 2.76 10.394 4.325 18.586 4.696v5.519a903.899 903.899 0 0 0-35.807-.824c-8.56 0-15.58.268-21.042.824v-5.519c4.555-.742 8.835-3.594 12.84-8.557 4.014-4.974 8.11-12.882 12.309-23.736l60.68-157.601c4.821.325 9.649.507 14.48.546 3.648 0 8.386-.186 14.215-.546l66.142 172.224v.01Zm-81.722-56.327L101.08 74.139 74.831 143.13h51.113Z"/></g><defs><clipPath id="a"><path fill="#fff" d="M27 27h197v196H27z"/></clipPath></defs></svg>