<svg xmlns="http://www.w3.org/2000/svg" width="250" height="250" fill="none"><g clip-path="url(#a)"><path fill="#25F4EE" d="M105.168 103.231v-7.986a58.344 58.344 0 0 0-8.332-.72c-27.02-.058-50.941 17.55-59.055 43.467-8.114 25.917 1.463 54.13 23.642 69.648a62.189 62.189 0 0 1-15.663-31.479 62.378 62.378 0 0 1 3.884-34.982 61.982 61.982 0 0 1 22.18-27.23 61.466 61.466 0 0 1 33.342-10.717l.002-.001Z"/><path fill="#25F4EE" d="M106.666 193.697c15.107-.021 27.524-11.989 28.186-27.166V31.095h24.604a46.686 46.686 0 0 1-.716-8.576h-33.654v135.306c-.559 15.254-13.007 27.337-28.186 27.362a28.52 28.52 0 0 1-13.018-3.273 28.296 28.296 0 0 0 9.987 8.638 28.124 28.124 0 0 0 12.797 3.145Zm98.747-116.65v-7.528a45.77 45.77 0 0 1-25.452-7.724 46.622 46.622 0 0 0 25.452 15.252Z"/><path fill="#FE2C55" d="M179.961 61.795a46.756 46.756 0 0 1-11.521-30.767h-8.984a47.02 47.02 0 0 0 7.102 17.507 46.742 46.742 0 0 0 13.403 13.26Zm-83.125 66.573a28.149 28.149 0 0 0-17.356 6.106 28.426 28.426 0 0 0-9.943 15.555 28.558 28.558 0 0 0 1.683 18.414 28.344 28.344 0 0 0 12.596 13.471 28.477 28.477 0 0 1-2.272-29.523 28.288 28.288 0 0 1 10.395-11.286 28.08 28.08 0 0 1 14.727-4.163c2.825.038 5.63.48 8.331 1.314V103.82a58.677 58.677 0 0 0-8.331-.654h-1.498v26.183a28.784 28.784 0 0 0-8.332-.981Z"/><path fill="#FE2C55" d="M205.413 77.047v26.184a79.568 79.568 0 0 1-46.673-15.252v68.799c-.072 34.329-27.766 62.121-61.904 62.121a61.02 61.02 0 0 1-35.413-11.259 61.693 61.693 0 0 0 31.537 18.275 61.454 61.454 0 0 0 36.296-2.755 61.833 61.833 0 0 0 28.453-22.829 62.367 62.367 0 0 0 10.731-34.976V96.751a79.697 79.697 0 0 0 46.737 15.056V78.092a47.477 47.477 0 0 1-9.764-1.045Z"/><path fill="#000" d="M158.74 156.777V87.979a79.558 79.558 0 0 0 46.738 15.055V76.851a46.622 46.622 0 0 1-25.517-15.056 46.742 46.742 0 0 1-13.403-13.26 47.02 47.02 0 0 1-7.102-17.507h-24.604v135.505a28.513 28.513 0 0 1-5.896 16.241 28.252 28.252 0 0 1-14.167 9.797 28.102 28.102 0 0 1-17.191-.277 28.26 28.26 0 0 1-13.848-10.248 28.344 28.344 0 0 1-12.598-13.471 28.557 28.557 0 0 1-1.684-18.415 28.423 28.423 0 0 1 9.944-15.556 28.155 28.155 0 0 1 17.358-6.106c2.826.026 5.633.467 8.332 1.31v-26.185a61.482 61.482 0 0 0-33.546 10.658 61.987 61.987 0 0 0-22.303 27.36 62.377 62.377 0 0 0-3.812 35.169 62.18 62.18 0 0 0 15.917 31.549 61.005 61.005 0 0 0 35.478 10.54c34.137 0 61.832-27.792 61.904-62.122Z"/></g><defs><clipPath id="a"><path fill="#fff" d="M34 22h182v206H34z"/></clipPath></defs></svg>