<?xml version="1.0" encoding="UTF-8"?>
<svg xmlns="http://www.w3.org/2000/svg" width="282" height="172" viewBox="0 0 282 172" fill="none">
  <g clip-path="url(#clip0_1861_24323)">
    <rect width="282" height="172" fill="#1F2852"></rect>
    <path d="M66.2821 84.6282C61.7269 84.6282 58.2901 86.0415 55.9738 89.3069V67.9156C55.9738 67.6725 55.7774 67.4768 55.5335 67.4768H51.4383C51.1944 67.4768 50.998 67.6725 50.998 67.9156V117.462C50.998 117.705 51.1944 117.901 51.4383 117.901H55.5295C55.7715 117.901 55.9698 117.705 55.9698 117.462V113.689C57.1716 115.322 58.655 116.531 60.4219 117.318C62.1909 118.105 64.1423 118.498 66.2801 118.498C70.5558 118.498 73.8974 117.01 76.3049 114.033C78.7125 111.056 79.9162 106.879 79.9162 101.503C79.9162 96.1263 78.7224 91.9694 76.3347 89.0321C73.947 86.0948 70.5955 84.6262 66.2801 84.6262L66.2821 84.6282ZM72.8701 110.378C71.3967 112.447 69.1557 113.483 66.1493 113.483C62.8077 113.483 60.3803 112.56 58.8672 110.712C57.354 108.866 56.5965 105.798 56.5965 101.509C56.5965 97.2194 57.3342 94.1714 58.8077 92.3608C60.2811 90.5502 62.6887 89.6449 66.0303 89.6449C69.116 89.6449 71.3947 90.6194 72.8701 92.5683C74.3436 94.5173 75.0813 97.4783 75.0813 101.451C75.0813 105.424 74.3436 108.306 72.8701 110.376V110.378Z" fill="white"></path>
    <path d="M155.7 84.5689C149.746 84.5689 146.157 87.3283 145.151 89.2081V85.6046C145.151 85.3615 144.955 85.1658 144.711 85.1658H140.616C140.372 85.1658 140.176 85.3615 140.176 85.6046V117.464C140.176 117.707 140.372 117.903 140.616 117.903H144.711C144.955 117.903 145.151 117.707 145.151 117.464V101.167C145.151 96.9051 145.951 93.8492 147.549 91.9971C149.148 90.145 151.664 88.7811 155.101 88.7811C157.697 88.7811 159.607 89.4374 160.824 90.7518C162.042 92.0663 162.653 94.0587 162.653 96.7252V117.464C162.653 117.707 162.849 117.903 163.093 117.903H167.188C167.432 117.903 167.628 117.707 167.628 117.464V96.5454C167.628 92.3648 166.629 89.3227 164.632 87.4192C162.635 85.5177 159.658 84.5669 155.702 84.5669L155.7 84.5689Z" fill="white"></path>
    <path d="M197.061 86.0909C196.202 85.7074 195.089 85.3694 193.721 85.0749C192.142 84.7369 190.564 84.5669 188.985 84.5669C184.091 84.5669 180.319 86.0612 177.673 89.0479C175.026 92.0347 173.703 96.2667 173.703 101.742C173.703 107.217 175.006 111.206 177.614 114.124C180.222 117.041 183.902 118.5 188.656 118.5C191.869 118.5 194.554 117.974 196.712 116.921C196.862 116.847 196.955 116.691 196.955 116.523V113.05C196.955 112.742 196.644 112.532 196.355 112.643C193.687 113.661 191.081 114.169 188.535 114.169C185.338 114.169 182.927 113.094 181.299 110.943C179.67 108.793 178.855 105.707 178.855 101.683C178.855 93.1989 182.191 88.959 188.864 88.959C189.864 88.959 191.012 89.1033 192.311 89.3919C193.447 89.6449 194.508 89.9552 195.492 90.3229C195.722 90.4079 195.976 90.2952 196.059 90.0639L197.301 86.6443C197.38 86.4249 197.273 86.1858 197.061 86.0909V86.0909Z" fill="white"></path>
    <path d="M131.006 86.3498C129.118 84.6182 126.214 83.7505 122.3 83.7505C120.362 83.7505 118.429 83.9995 116.501 84.4977C114.712 84.9602 113.056 85.5848 111.533 86.3715C111.333 86.4763 111.246 86.7174 111.331 86.927L112.537 89.9196C112.632 90.1548 112.906 90.2576 113.134 90.1489C116.42 88.6111 119.375 87.8421 122 87.8421C124.438 87.8421 126.21 88.4549 127.319 89.6784C128.075 90.5126 128.733 92.2402 128.806 93.78L124.209 93.8156C122.262 93.8314 119.956 93.9678 117.616 94.8731C115.4 95.729 113.512 96.9742 112.005 98.5753C109.548 101.186 108.338 104.739 108.685 108.324C109.019 111.746 110.708 114.272 113.447 116.237C115.478 117.693 117.99 118.496 120.521 118.496C121.875 118.496 123.196 118.271 124.447 117.828C126.224 117.197 127.73 116.231 128.981 115.049V117.46C128.981 117.703 129.177 117.899 129.421 117.899H133.397C133.641 117.899 133.838 117.703 133.838 117.46V94.8988C133.838 91.0759 132.894 88.0793 131.006 86.3458V86.3498ZM129.082 103.58C129.066 107.834 126.942 112.503 122.669 114.021C120.398 114.827 117.752 114.412 115.803 113.013C112.063 110.328 111.979 104.833 115.026 101.6C116.134 100.423 117.538 99.5538 119.041 98.9726C120.687 98.3362 122.407 98.2195 124.162 98.2057L129.102 98.2176C129.102 98.2452 129.082 103.582 129.082 103.582V103.58Z" fill="white"></path>
    <path d="M104.596 85.1679C103.682 85.0433 102.653 84.9307 101.048 84.9307C95.2058 85.1402 91.0868 88.8859 91.1007 89.2654C91.1007 88.0696 91.0948 87.0556 91.0928 85.9071C91.0928 85.666 90.8964 85.4663 90.6525 85.4663H86.5653C86.3213 85.4663 86.125 85.662 86.125 85.9052V117.765C86.125 118.008 86.3213 118.204 86.5653 118.204H90.6604C90.9044 118.204 91.1007 118.008 91.1007 117.765V100.639C91.1007 97.4329 92.0447 94.7546 93.9326 92.604C95.8206 90.4534 98.0933 89.3781 100.751 89.3781C101.671 89.3781 102.718 89.4947 103.888 89.73C104.136 89.7794 104.378 89.6153 104.416 89.3663L104.971 85.664C105.007 85.4229 104.84 85.1975 104.596 85.1639V85.1679Z" fill="white"></path>
    <path d="M228.001 87.4212C226.004 85.5197 223.027 84.5689 219.071 84.5689C213.117 84.5689 209.528 87.3283 208.522 89.2081L208.298 82.8413L213.641 79.5759C214.289 80.0206 215.073 80.2816 215.917 80.2816C218.14 80.2816 219.947 78.4789 219.947 76.265C219.947 74.0512 218.138 72.2485 215.917 72.2485C213.696 72.2485 211.888 74.0512 211.888 76.265C211.888 76.4825 211.909 76.694 211.943 76.9015L208.173 79.226L207.905 71.5468L213.163 68.3407C214.541 69.3705 216.435 69.6176 218.087 68.815C220.437 67.6745 221.419 64.838 220.272 62.4937C219.126 60.1494 216.282 59.171 213.932 60.3135C211.89 61.3058 210.884 63.575 211.406 65.69L207.781 67.9256L207.566 61.794C209.177 61.1714 210.323 59.6157 210.323 57.7933C210.323 55.4253 208.389 53.5 206.016 53.5C203.642 53.5 201.708 55.4253 201.708 57.7933C201.708 59.6138 202.854 61.1714 204.465 61.794L204.074 74.4979L200.135 71.9955C200.221 71.6337 200.268 71.2582 200.268 70.8708C200.268 68.1272 198.027 65.8955 195.275 65.8955C192.522 65.8955 190.281 68.1272 190.281 70.8708C190.281 73.6143 192.522 75.846 195.275 75.846C196.488 75.846 197.603 75.4111 198.47 74.6896L203.961 78.1527L203.675 87.4509L203.523 92.3945V117.464C203.523 117.707 203.719 117.903 203.963 117.903H208.086C208.33 117.903 208.526 117.707 208.526 117.464V101.167C208.526 96.9052 209.325 93.8493 210.924 91.9971C212.399 90.2854 214.664 88.9946 217.708 88.8068C217.93 88.797 218.148 88.7851 218.378 88.7831C218.406 88.7831 218.432 88.7831 218.458 88.7831C221.048 88.7851 222.954 89.4413 224.169 90.7538C225.387 92.0683 225.998 94.0608 225.998 96.7273V112.918H225.994V117.466C225.994 117.709 226.19 117.905 226.434 117.905H230.557C230.801 117.905 230.997 117.709 230.997 117.466V112.918L231.001 96.5474C231.001 92.3668 230.002 89.3247 228.005 87.4212H228.001Z" fill="white"></path>
    <path d="M206.012 55.1899C204.57 55.1899 203.398 56.3581 203.398 57.7952C203.398 59.2322 204.57 60.3984 206.012 60.3984C207.454 60.3984 208.626 59.2302 208.626 57.7952C208.626 56.3601 207.454 55.1899 206.012 55.1899V55.1899Z" fill="#009ADE"></path>
    <path d="M215.862 73.9563C214.553 73.9563 213.49 75.0178 213.49 76.3204C213.49 77.623 214.555 78.6844 215.862 78.6844C217.169 78.6844 218.234 77.623 218.234 76.3204C218.234 75.0178 217.169 73.9563 215.862 73.9563V73.9563Z" fill="#009ADE"></path>
    <path d="M217.323 67.0973C218.707 66.4252 219.284 64.757 218.61 63.3773C217.936 61.9976 216.262 61.4224 214.878 62.0944C213.493 62.7665 212.916 64.4348 213.59 65.8145C214.265 67.1942 215.938 67.7694 217.323 67.0973Z" fill="#009ADE"></path>
    <path d="M195.272 67.8701C193.612 67.8701 192.26 69.2162 192.26 70.8707C192.26 72.5251 193.61 73.8712 195.272 73.8712C196.934 73.8712 198.283 72.5251 198.283 70.8707C198.283 69.2162 196.932 67.8701 195.272 67.8701V67.8701Z" fill="#009ADE"></path>
  </g>
  <defs>
    <clipPath id="clip0_1861_24323">
      <rect width="282" height="172" fill="white"></rect>
    </clipPath>
  </defs>
</svg>
