<svg xmlns="http://www.w3.org/2000/svg" width="250" height="250" fill="none"><path fill="#6C4CFF" fill-rule="evenodd" d="M121 25.314c-3.117 2.006-60.28 29.825-81.819 39.818-4.575 2.121-9.413 4.953-10.75 6.29-3.029 3.029-3.183 7.525-.346 10.117 1.146 1.047 10.934 6.404 21.75 11.904 13.031 6.628 19.776 10.599 19.993 11.773.26 1.409-3.576 3.656-18.726 10.965-10.479 5.056-19.297 9.828-19.595 10.604-.925 2.412 1.278 3.948 17.633 12.292 11.262 5.746 15.86 8.594 15.86 9.824 0 1.254-4.482 3.866-16.25 9.47C29.473 167.55 26 169.918 26 173.884c0 1.561.787 3.776 1.75 4.922.962 1.146 22.225 12.444 47.25 25.106 41.729 21.114 45.926 23.022 50.635 23.027 4.781.005 8.049-1.549 47.5-22.581 23.301-12.422 44.026-23.515 46.056-24.651 2.03-1.136 4.248-3.409 4.928-5.051 2.169-5.236.052-7.195-18.626-17.23-12.722-6.836-16.993-9.602-16.993-11.009 0-1.389 3.837-3.98 14.701-9.926 8.086-4.426 15.188-8.534 15.783-9.13 1.612-1.614.365-3.781-3.259-5.666-16.824-8.746-30.486-16.235-31.689-17.37-2.429-2.291-1.524-2.911 23.464-16.096 7.7-4.063 14.552-7.931 15.228-8.6.675-.666 1.517-2.662 1.872-4.434.904-4.52-2.386-7.262-18.23-15.195-7.079-3.544-25.893-13.333-41.811-21.75-27.529-14.56-29.212-15.303-34.5-15.247-3.991.041-6.546.694-9.059 2.311Zm35.414 22.584c45.945 23.79 47.086 24.43 47.086 26.425 0 2.168-2.938 3.867-46.602 26.963-16.281 8.612-30.456 15.643-31.5 15.626-3.328-.057-77.854-38.31-78.199-40.139-.235-1.246 2.298-2.892 9.993-6.495C62.861 67.621 81 58.848 97.5 50.776c16.5-8.07 31.311-14.71 32.914-14.754 1.878-.05 11.119 4.17 26 11.876Zm25.515 110.969c2.514 1.595 8.526 4.849 13.359 7.23 13.016 6.414 14.1 5.132-19.269 22.788a6473.777 6473.777 0 0 0-32.618 17.399c-8.854 4.763-16.729 8.663-17.5 8.667-1.888.009-74.943-36.825-77.118-38.883-.944-.893-1.393-2.146-.997-2.784.396-.638 7.979-4.594 16.851-8.791l16.13-7.631 21.198 10.541c11.658 5.798 22.289 10.541 23.623 10.541 2.039 0 10.436-4.204 42.412-21.236 4.307-2.294 7.756-1.76 13.929 2.159Z" clip-rule="evenodd"/></svg>