<svg xmlns="http://www.w3.org/2000/svg" fill="none" viewBox="0 0 59.2 40.44444444444444" style="max-height: 500px" width="250" height="250">
<path fill="#00A987" d="M1.5 15.8388C1.5 8.57331 7.4006 2.68359 14.6795 2.68359C18.9696 2.68359 23.1584 5.4236 25.4307 8.17733L35.3666 20.2472L35.367 20.2478C36.9794 22.205 39.8126 23.8499 42.1255 23.8499C46.5582 23.8499 50.1514 20.2632 50.1514 15.8388C50.1514 11.4143 46.5582 7.82767 42.1255 7.82767C39.8148 7.82767 36.964 9.48849 35.3486 11.452L35.3481 11.4527L33.6033 13.5722L30.3036 9.47785L31.3658 8.18755L31.3663 8.1869C33.6404 5.42294 37.8304 2.68359 42.1255 2.68359C49.4044 2.68359 55.305 8.57331 55.305 15.8388C55.305 23.1042 49.4044 28.9939 42.1255 28.9939C37.8365 28.9939 33.6627 26.2787 31.3856 23.514L31.3854 23.5138L31.3852 23.5135L28.1553 19.5899V29.3102H23.6459V25.317C21.2869 27.3516 18.0191 28.9939 14.6795 28.9939C7.4006 28.9939 1.5 23.1042 1.5 15.8388ZM21.4528 11.4478L25.7172 16.6281H15.3486V21.1291H20.6096C18.9641 22.6756 16.6382 23.8499 14.6795 23.8499C10.2468 23.8499 6.65358 20.2632 6.65358 15.8388C6.65358 11.4143 10.2468 7.82767 14.6795 7.82767C16.9837 7.82767 19.8342 9.48732 21.4514 11.4461L21.4528 11.4478Z" clip-rule="evenodd" fill-rule="evenodd"/>
<path fill="#36363D" d="M76.723 14.0356H84.796V15.2776C84.796 17.5776 84.06 19.4406 82.588 20.8666C81.116 22.2926 79.2147 23.0056 76.884 23.0056C74.4 23.0056 72.3377 22.2006 70.697 20.5906C69.0717 18.9653 68.259 16.9873 68.259 14.6566C68.259 12.3106 69.064 10.3249 70.674 8.69959C72.2993 7.07426 74.308 6.26159 76.7 6.26159C78.1873 6.26159 79.552 6.59893 80.794 7.27359C82.036 7.94826 83.0097 8.86059 83.715 10.0106L81.001 11.5746C80.6177 10.9153 80.035 10.3786 79.253 9.96459C78.471 9.55059 77.6123 9.34359 76.677 9.34359C75.1283 9.34359 73.8633 9.84959 72.882 10.8616C71.9007 11.8429 71.41 13.1079 71.41 14.6566C71.41 16.1746 71.9083 17.4319 72.905 18.4286C73.9017 19.4099 75.2357 19.9006 76.907 19.9006C78.1183 19.9006 79.1303 19.6323 79.943 19.0956C80.7557 18.5589 81.3077 17.8076 81.599 16.8416H76.723V14.0356ZM95.7136 21.2576C94.5483 22.4229 93.1069 23.0056 91.3896 23.0056C89.6723 23.0056 88.2309 22.4229 87.0656 21.2576C85.9003 20.0923 85.3176 18.6509 85.3176 16.9336C85.3176 15.2316 85.9003 13.7979 87.0656 12.6326C88.2463 11.4519 89.6876 10.8616 91.3896 10.8616C93.0916 10.8616 94.5329 11.4519 95.7136 12.6326C96.8943 13.8133 97.4846 15.2469 97.4846 16.9336C97.4846 18.6356 96.8943 20.0769 95.7136 21.2576ZM89.1586 19.2106C89.7566 19.8086 90.5003 20.1076 91.3896 20.1076C92.2789 20.1076 93.0226 19.8086 93.6206 19.2106C94.2186 18.6126 94.5176 17.8536 94.5176 16.9336C94.5176 16.0136 94.2186 15.2546 93.6206 14.6566C93.0226 14.0586 92.2789 13.7596 91.3896 13.7596C90.5003 13.7596 89.7566 14.0586 89.1586 14.6566C88.5759 15.2699 88.2846 16.0289 88.2846 16.9336C88.2846 17.8383 88.5759 18.5973 89.1586 19.2106ZM101.539 22.6836H98.5718V5.89359H101.539V22.6836ZM113.052 21.2576C111.887 22.4229 110.446 23.0056 108.728 23.0056C107.011 23.0056 105.57 22.4229 104.404 21.2576C103.239 20.0923 102.656 18.6509 102.656 16.9336C102.656 15.2316 103.239 13.7979 104.404 12.6326C105.585 11.4519 107.026 10.8616 108.728 10.8616C110.43 10.8616 111.872 11.4519 113.052 12.6326C114.233 13.8133 114.823 15.2469 114.823 16.9336C114.823 18.6356 114.233 20.0769 113.052 21.2576ZM106.497 19.2106C107.095 19.8086 107.839 20.1076 108.728 20.1076C109.618 20.1076 110.361 19.8086 110.959 19.2106C111.557 18.6126 111.856 17.8536 111.856 16.9336C111.856 16.0136 111.557 15.2546 110.959 14.6566C110.361 14.0586 109.618 13.7596 108.728 13.7596C107.839 13.7596 107.095 14.0586 106.497 14.6566C105.915 15.2699 105.623 16.0289 105.623 16.9336C105.623 17.8383 105.915 18.5973 106.497 19.2106ZM124.72 12.6096V11.1836H127.618V22.1316C127.618 23.8949 127.027 25.2519 125.847 26.2026C124.681 27.1379 123.271 27.6056 121.615 27.6056C119.008 27.6056 117.191 26.6703 116.164 24.7996L118.694 23.3506C119.261 24.4239 120.265 24.9606 121.707 24.9606C122.642 24.9606 123.378 24.7153 123.915 24.2246C124.451 23.7339 124.72 23.0363 124.72 22.1316V20.8896C123.846 22.0549 122.619 22.6376 121.04 22.6376C119.414 22.6376 118.05 22.0703 116.946 20.9356C115.857 19.7703 115.313 18.3749 115.313 16.7496C115.313 15.1243 115.865 13.7366 116.969 12.5866C118.073 11.4366 119.43 10.8616 121.04 10.8616C122.619 10.8616 123.846 11.4443 124.72 12.6096ZM123.8 19.0266C124.413 18.4286 124.72 17.6696 124.72 16.7496C124.72 15.8296 124.413 15.0859 123.8 14.5186C123.202 13.9206 122.435 13.6216 121.5 13.6216C120.58 13.6216 119.805 13.9206 119.177 14.5186C118.579 15.0859 118.28 15.8296 118.28 16.7496C118.28 17.6696 118.579 18.4286 119.177 19.0266C119.79 19.6093 120.564 19.9006 121.5 19.9006C122.435 19.9006 123.202 19.6093 123.8 19.0266ZM130.78 9.80359C130.29 9.80359 129.86 9.62726 129.492 9.27459C129.14 8.90659 128.963 8.47726 128.963 7.98659C128.963 7.49593 129.14 7.06659 129.492 6.69859C129.86 6.33059 130.29 6.14659 130.78 6.14659C131.286 6.14659 131.716 6.33059 132.068 6.69859C132.436 7.06659 132.62 7.49593 132.62 7.98659C132.62 8.47726 132.436 8.90659 132.068 9.27459C131.716 9.62726 131.286 9.80359 130.78 9.80359ZM132.275 22.6836H129.308V11.1836H132.275V22.6836ZM140.385 10.8616C141.657 10.8616 142.692 11.2833 143.49 12.1266C144.318 12.9853 144.732 14.1506 144.732 15.6226V22.6836H141.765V15.9906C141.765 15.2393 141.558 14.6566 141.144 14.2426C140.745 13.8286 140.193 13.6216 139.488 13.6216C138.706 13.6216 138.085 13.8669 137.625 14.3576C137.18 14.8329 136.958 15.5383 136.958 16.4736V22.6836H133.991V11.1836H136.958V12.4716C137.663 11.3983 138.805 10.8616 140.385 10.8616Z"/>
</svg>