<svg version="1.1" id="layer" xmlns="http://www.w3.org/2000/svg" xmlns:xlink="http://www.w3.org/1999/xlink" x="0px" y="0px"
	 viewBox="0 0 652 652" style="enable-background:new 0 0 652 652;" xml:space="preserve">
<style type="text/css">
	.st0{fill:#071124;}
</style>
<path class="st0" d="M247,288.4c-14.4,0-23.7,8.5-30,18.2v-45.3c0-0.5-0.1-1-0.2-1.4c-0.2-0.4-0.4-0.8-0.8-1.2
	c-0.3-0.3-0.7-0.6-1.2-0.8c-0.4-0.2-0.9-0.3-1.4-0.2c-0.5,0-0.9,0.1-1.4,0.2c-0.4,0.2-0.8,0.4-1.1,0.8c-0.3,0.3-0.6,0.7-0.7,1.2
	c-0.2,0.4-0.2,0.9-0.2,1.4v99.4c0,0.5,0.1,0.9,0.3,1.4c0.2,0.4,0.4,0.8,0.8,1.2c0.3,0.3,0.7,0.6,1.2,0.8c0.4,0.2,0.9,0.3,1.4,0.3
	c0.5,0,0.9-0.1,1.3-0.3c0.4-0.2,0.8-0.5,1.1-0.8c0.3-0.3,0.6-0.7,0.7-1.2c0.2-0.4,0.2-0.9,0.2-1.4v-12.9c6,9.2,15.5,17.6,30,17.6
	c17.6,0,35.5-14.6,35.5-38.6v-0.3C282.5,302.6,264.6,288.4,247,288.4z M274.9,327.2c0,19.8-12.7,31.5-28.6,31.5
	c-15.2,0-29.7-12.7-29.7-31.6v-0.4c0-18.8,14.6-31.6,29.7-31.6c15.2,0,28.6,12.4,28.6,31.8V327.2z M331.8,292.9c0-0.5-0.1-1-0.2-1.5
	c-0.2-0.5-0.5-0.9-0.8-1.3c-0.3-0.4-0.8-0.7-1.2-0.9c-0.5-0.2-1-0.3-1.5-0.3c-10.3,0-23,7.8-29.3,22.1v-18c0-0.5,0-1-0.2-1.4
	c-0.2-0.5-0.4-0.9-0.7-1.2c-0.3-0.4-0.7-0.6-1.2-0.8c-0.4-0.2-0.9-0.3-1.4-0.3c-0.5,0-1,0.1-1.4,0.3c-0.4,0.2-0.8,0.5-1.2,0.8
	c-0.3,0.4-0.6,0.8-0.7,1.2c-0.2,0.5-0.2,0.9-0.2,1.4v67.6c0,0.5,0,1,0.2,1.4c0.2,0.5,0.4,0.9,0.7,1.2c0.3,0.4,0.7,0.6,1.2,0.8
	c0.4,0.2,0.9,0.3,1.4,0.3c0.5,0,1-0.1,1.4-0.3c0.4-0.2,0.8-0.5,1.2-0.8c0.3-0.4,0.6-0.8,0.7-1.2c0.2-0.5,0.2-0.9,0.2-1.4v-27.2
	c0-23.7,13.9-35.4,29.3-36.8c1,0,1.9-0.5,2.6-1.2C331.4,294.8,331.8,293.9,331.8,292.9L331.8,292.9z M364.7,288.4
	c-19.7,0-34.6,17-34.6,38.4v0.3c0,23,16.6,38.4,35.8,38.4c13.2,0,21.3-4.8,28.5-12c0.3-0.3,0.6-0.7,0.8-1.1c0.2-0.4,0.3-0.9,0.3-1.3
	c0-0.4-0.1-0.9-0.3-1.3c-0.2-0.4-0.4-0.8-0.8-1.1c-0.3-0.3-0.7-0.6-1.1-0.7c-0.4-0.2-0.9-0.2-1.3-0.2c-0.4,0-0.9,0.1-1.3,0.3
	c-0.4,0.2-0.7,0.4-1,0.7c-5.9,5.8-13.2,10.1-23.6,10.1c-14.3,0-27.3-10.7-28.6-29h57.2c0.9,0,1.7-0.4,2.4-1c0.6-0.6,1-1.4,1.1-2.3
	C398.2,305.4,385.2,288.4,364.7,288.4z M337.5,323.5c1.3-16.3,12.5-28.6,26.9-28.6c16.8,0,25.2,13.7,26.2,28.6H337.5z M442.2,288.4
	c-19.7,0-34.6,17-34.6,38.4v0.3c0,23,16.6,38.4,35.8,38.4c13.2,0,21.3-4.8,28.5-12c0.3-0.3,0.6-0.7,0.8-1.1c0.2-0.4,0.3-0.9,0.3-1.3
	c0-0.4-0.1-0.9-0.3-1.3c-0.2-0.4-0.4-0.8-0.8-1.1c-0.3-0.3-0.7-0.6-1.1-0.7c-0.4-0.2-0.9-0.2-1.3-0.2c-0.4,0-0.9,0.1-1.2,0.3
	c-0.4,0.2-0.7,0.4-1,0.7c-5.9,5.8-13.2,10.1-23.6,10.1c-14.3,0-27.3-10.7-28.6-29h57.2c0.9,0,1.7-0.4,2.3-1c0.6-0.6,1-1.4,1.1-2.3
	C475.7,305.4,462.7,288.4,442.2,288.4z M415.1,323.5c1.3-16.3,12.4-28.6,26.9-28.6c16.8,0,25.2,13.7,26.2,28.6H415.1z M542,357.4
	h-50.1l50.9-61.2c0.8-0.8,1.3-1.9,1.3-3V293c-0.1-0.8-0.5-1.5-1.1-2.1c-0.6-0.5-1.4-0.8-2.2-0.8H486c-0.4,0-0.8,0.1-1.2,0.2
	c-0.4,0.2-0.7,0.4-1,0.7c-0.3,0.3-0.5,0.6-0.7,1c-0.2,0.4-0.2,0.8-0.2,1.2c0,0.4,0.1,0.8,0.2,1.2c0.2,0.4,0.4,0.7,0.7,1
	c0.3,0.3,0.6,0.5,1,0.7c0.4,0.2,0.8,0.2,1.2,0.2h48.1l-51,61.2c-0.8,0.8-1.3,1.9-1.3,3v0.1c0.1,0.8,0.5,1.5,1.1,2.1
	c0.6,0.5,1.4,0.8,2.2,0.8H542c0.8,0,1.6-0.3,2.2-0.9c0.6-0.6,0.9-1.4,0.9-2.2c0-0.8-0.3-1.7-0.9-2.2
	C543.6,357.7,542.8,357.4,542,357.4L542,357.4z M619.2,289.5c-0.8,0-1.5,0.3-2.1,0.7c-0.6,0.5-1.1,1.1-1.3,1.9L590.3,356l-29.2-63.6
	c-0.7-1.6-1.6-2.9-3.7-2.9c-0.5,0-1,0.1-1.4,0.2s-0.9,0.4-1.2,0.8c-0.3,0.3-0.6,0.7-0.8,1.2c-0.2,0.4-0.3,0.9-0.3,1.4
	c0.1,0.7,0.3,1.5,0.6,2.2l32.6,68.1l-0.4,1c-4.7,11-9.6,16.3-17.6,16.3c-3.2,0.1-6.3-0.4-9.3-1.4c-0.7-0.3-1.5-0.5-2.3-0.6
	c-0.4,0-0.9,0.1-1.3,0.2c-0.4,0.2-0.8,0.4-1.1,0.7c-0.3,0.3-0.5,0.7-0.7,1.1c-0.2,0.4-0.2,0.8-0.2,1.3c0,0.7,0.1,1.3,0.5,1.9
	c0.4,0.5,0.9,1,1.5,1.2c4,1.6,8.2,2.3,12.4,2.3c10.4,0,17.9-5.5,24.3-20.9l29.6-71.4c0.3-0.6,0.4-1.2,0.4-1.9c0-0.5-0.1-1-0.3-1.4
	c-0.2-0.4-0.4-0.8-0.8-1.2c-0.3-0.3-0.7-0.6-1.2-0.8C620.1,289.6,619.6,289.5,619.2,289.5L619.2,289.5z"/>
<path class="st0" d="M149.1,300.2c-0.9-10.2-5.1-19.8-11.9-27.3c-6.8-7.5-15.9-12.6-25.8-14.5c-10-1.8-20.2-0.3-29.2,4.3
	c-9,4.6-16.3,12.1-20.7,21.3c-10.4,0.3-20.3,4.6-27.5,12.2c-7.2,7.6-11.3,17.7-11.2,28.2c0.1,10.5,4.3,20.6,11.6,28
	c7.4,7.4,17.3,11.7,27.7,11.7H142c7.8-0.1,15.4-3,21.2-8.3c5.8-5.3,9.5-12.6,10.4-20.5c0.9-7.9-1.1-15.8-5.6-22.3
	C163.5,306.6,156.8,302.1,149.1,300.2L149.1,300.2z M141.9,355.8H62.1c-8.2-0.1-16-3.4-21.8-9.3c-5.8-5.9-9.1-13.8-9.1-22.1
	c-0.1-8.3,3.1-16.3,8.8-22.2c5.7-6,13.5-9.4,21.7-9.6l4-0.1c6.9,0.1,14.9,5.7,16.8,13.2c2.4,9.4-2.7,19.1-11.5,21.5
	c-3.3,0.9-6.7,0.8-9.9-0.5c-3.2-1-5-0.5-5.9,1.4c-0.9,1.9-0.4,3.5,1.9,5.2c4.9,2.3,10.4,2.8,15.6,1.3c12.7-3.6,20.2-17.5,16.8-31.1
	c-1.2-4.5-3.7-8.6-7.1-11.8c-3.4-3.2-7.7-5.3-12.3-6.1c4-7.1,10.1-12.7,17.4-16.1c7.4-3.3,15.6-4.2,23.5-2.5s15,5.9,20.4,12
	c5.4,6.1,8.6,13.8,9.4,21.9l0.5,6.1l5.9,1.4c5.6,1.4,10.6,4.8,13.9,9.5c3.3,4.8,4.8,10.7,4.2,16.5c-0.6,5.8-3.4,11.2-7.7,15.1
	C153.3,353.6,147.7,355.8,141.9,355.8L141.9,355.8z"/>
</svg>
