<svg xmlns="http://www.w3.org/2000/svg" width="250" height="250" fill="none"><path fill="#FF3621" d="M215 170.861V136.65l-3.77-2.092-85.739 48.513-81.412-46.057.017-19.838 81.395 45.538L215 112.575V78.883l-3.77-2.092-85.739 48.513-78.06-44.172 78.06-43.896 63.032 35.438 4.725-2.646v-3.943L125.491 28 36 78.313v4.963l89.491 50.279 81.413-45.765v20.063l-81.413 46.058-85.72-48.496L36 107.507V141.7l89.491 50.14 81.413-45.608v19.942l-81.413 46.058-85.72-48.514L36 165.811v5.05L125.491 221 215 170.861Z"/></svg>