<svg xmlns="http://www.w3.org/2000/svg" width="250" height="250" fill="none"><g fill="#0091E2" clip-path="url(#a)"><path d="M121.123 66.738h19.407c.919 0 1.736-.728 1.736-1.77v-17.69c0-.936-.817-1.768-1.736-1.768h-19.407c-.919 0-1.736.728-1.736 1.769v17.69c0 .936.817 1.769 1.736 1.769ZM86.395 92.129H66.988c-.919 0-1.634-.833-1.736-1.77V72.67c0-1.04.817-1.769 1.736-1.769h19.407c1.021 0 1.736.833 1.736 1.77v17.69c0 .936-.817 1.769-1.736 1.769Zm133.598 9.469c11.848 0 17.364 4.266 17.977 4.787l2.145 1.56-.92 2.706c-1.532 3.746-3.677 7.076-6.537 9.782-4.289 4.37-12.052 9.469-24.615 9.469H206c-5.005 13.112-11.848 27.889-23.39 41.104-6.843 7.909-14.912 14.673-23.901 19.98a109.556 109.556 0 0 1-35.135 13.007 145.838 145.838 0 0 1-26.863 2.498c-19.917 0-37.587-3.851-48.414-10.615-9.601-6.035-17.057-15.921-22.062-29.241a107.074 107.074 0 0 1-6.333-37.981c0-3.851 3.064-6.972 6.843-6.972h145.038c1.839-.104 10.623-.833 16.036-3.955-4.494-7.284-5.822-15.817-3.677-24.87a44.939 44.939 0 0 1 5.618-13.32l2.043-3.018 3.166 1.873c.034.028.123.088.259.18 1.926 1.295 13.373 8.993 15.471 23.858 3.064-.52 6.23-.832 9.294-.832Z"/><path d="M59.635 117.415H40.228c-.919 0-1.634-.728-1.736-1.769v-17.69c0-1.04.817-1.77 1.736-1.77h19.407c1.022 0 1.736.833 1.736 1.77v17.69a1.737 1.737 0 0 1-1.736 1.769Zm7.353 0h19.407c.92 0 1.736-.728 1.736-1.769v-17.69c0-.937-.715-1.77-1.736-1.77H66.988c-.919 0-1.736.73-1.736 1.77v17.69c.102 1.041.817 1.769 1.736 1.769Zm46.678 0H94.26c-1.022 0-1.737-.728-1.737-1.769v-17.69c0-1.04.818-1.77 1.737-1.77h19.406c1.022 0 1.737.833 1.737 1.77v17.69a1.737 1.737 0 0 1-1.737 1.769Zm7.457 0h19.407c.919 0 1.736-.728 1.736-1.769v-17.69c0-.937-.715-1.77-1.736-1.77h-19.407c-.919 0-1.736.73-1.736 1.77v17.69c0 1.041.817 1.769 1.736 1.769ZM94.26 92.129h19.406c.92 0 1.737-.833 1.737-1.77V72.67c0-.936-.715-1.769-1.737-1.769H94.26c-.92 0-1.737.729-1.737 1.77v17.69c0 .936.715 1.769 1.737 1.769Zm46.27 0h-19.407c-.919 0-1.736-.833-1.736-1.77V72.67c0-1.04.817-1.769 1.736-1.769h19.407c.919 0 1.736.833 1.736 1.77v17.69c0 .936-.817 1.769-1.736 1.769Zm27.066 25.286H148.19c-.92 0-1.635-.728-1.737-1.769v-17.69c0-1.04.817-1.77 1.737-1.77h19.406c1.021 0 1.736.833 1.736 1.77v17.69a1.737 1.737 0 0 1-1.736 1.769Z"/></g><defs><clipPath id="a"><path fill="#fff" d="M19 45h222v162H19z"/></clipPath></defs></svg>