<svg xmlns="http://www.w3.org/2000/svg" xmlns:xlink="http://www.w3.org/1999/xlink" width="250px" height="250px" viewBox="0 0 250 250" version="1.1">
<g id="surface1">
<path style=" stroke:none;fill-rule:nonzero;fill:rgb(8.235294%,8.235294%,8.235294%);fill-opacity:1;" d="M 62.59375 58.25 L 62.59375 0 C 46.019531 0 30.136719 6.5625 18.394531 18.25 C 6.65625 30 0 45.875 0 62.4375 L 0 62.625 C 0 79.1875 6.65625 95 18.332031 106.6875 C 30.011719 118.375 45.894531 124.9375 62.40625 125 L 62.53125 125 C 79.042969 125 94.925781 118.375 106.605469 106.6875 C 118.28125 95 124.875 79.1875 124.9375 62.625 L 124.9375 0 C 109.117188 0 93.859375 6 82.246094 16.8125 C 70.691406 27.625 63.597656 42.4375 62.53125 58.25 Z M 62.59375 58.25 "/>
<path style=" stroke:none;fill-rule:nonzero;fill:rgb(8.235294%,8.235294%,8.235294%);fill-opacity:1;" d="M 187.40625 125 L 250 125 C 250 109.1875 243.972656 93.9375 233.175781 82.3125 C 222.375 70.75 207.558594 63.6875 191.800781 62.5625 L 250 62.5625 C 250 46 243.40625 30.125 231.730469 18.375 C 220.050781 6.6875 204.167969 0 187.59375 0 L 187.40625 0 C 170.894531 0 155.011719 6.625 143.332031 18.3125 C 131.65625 30 125.0625 45.875 125 62.375 L 125 62.5 C 125 79.0625 131.65625 94.875 143.332031 106.5625 C 155.011719 118.25 170.832031 124.875 187.40625 124.875 Z M 187.40625 125 "/>
<path style=" stroke:none;fill-rule:nonzero;fill:rgb(8.235294%,8.235294%,8.235294%);fill-opacity:1;" d="M 62.59375 125 L 0 125 C 0 140.8125 6.027344 156.0625 16.824219 167.6875 C 27.625 179.25 42.378906 186.3125 58.199219 187.4375 L 0 187.4375 C 0 204 6.59375 219.875 18.269531 231.625 C 29.945312 243.375 45.832031 250 62.40625 250 L 62.59375 250 C 79.105469 250 94.988281 243.375 106.667969 231.625 C 118.34375 219.9375 124.9375 204.0625 125 187.5625 L 125 187.4375 C 125 170.875 118.40625 155.0625 106.667969 143.375 C 94.988281 131.6875 79.167969 125.0625 62.59375 125 Z M 62.59375 125 "/>
<path style=" stroke:none;fill-rule:nonzero;fill:rgb(8.235294%,8.235294%,8.235294%);fill-opacity:1;" d="M 187.46875 125 C 170.957031 125 155.074219 131.625 143.394531 143.3125 C 131.71875 155 125.125 170.875 125.0625 187.375 L 125.0625 249.9375 C 140.882812 249.9375 156.140625 243.9375 167.753906 233.125 C 179.371094 222.3125 186.402344 207.5625 187.53125 191.75 L 187.53125 249.9375 C 204.105469 249.9375 219.988281 243.375 231.730469 231.6875 C 243.46875 220 250.0625 204.125 250.125 187.5625 L 250.125 187.375 C 250.125 170.8125 243.46875 155 231.792969 143.3125 C 220.117188 131.625 204.230469 125.0625 187.71875 125 Z M 187.46875 125 "/>
</g>
</svg>
