<?xml version="1.0" encoding="UTF-8"?>
<svg version="1.1" xmlns="http://www.w3.org/2000/svg" width="1654" height="1654">
<path d="M0 0 C545.82 0 1091.64 0 1654 0 C1654 545.82 1654 1091.64 1654 1654 C1108.18 1654 562.36 1654 0 1654 C0 1108.18 0 562.36 0 0 Z " fill="#FEFEFE" transform="translate(0,0)"/>
<path d="M0 0 C2.34106467 0.00851739 4.67968094 -0.02041548 7.02050781 -0.05200195 C31.36160976 -0.16525411 55.24752927 7.61841653 73.97363281 23.44604492 C74.78703125 24.1137793 75.60042969 24.78151367 76.43847656 25.46948242 C98.89467007 44.63855977 109.91847883 75.28884658 112.79016113 104.05554199 C113.40105972 112.01510756 113.34541119 120.01578541 113.34423828 127.99389648 C113.34857935 131.28056974 113.38492359 134.56586058 113.42285156 137.85229492 C113.62073131 174.84110545 105.10669868 210.62299517 78.97363281 237.82104492 C62.9829871 253.16810428 42.51519905 260.96659441 20.97363281 264.44604492 C19.88308594 264.63424805 18.79253906 264.82245117 17.66894531 265.01635742 C-12.48866377 268.52305615 -43.96936029 263.03872656 -68.14746094 243.92651367 C-96.04765014 219.88768037 -106.51643072 187.25262818 -109.56152344 151.43041992 C-112.610098 110.32904965 -108.2242668 66.29041815 -81.02636719 33.44604492 C-69.90401641 20.73976 -56.77257547 12.35087303 -41.02636719 6.44604492 C-39.88167969 5.9897168 -39.88167969 5.9897168 -38.71386719 5.52416992 C-26.28048664 0.90874836 -13.12847149 -0.07238962 0 0 Z " fill="#303539" transform="translate(1062.0263671875,632.553955078125)"/>
<path d="M0 0 C0.93114624 -0.0033284 1.86229248 -0.0066568 2.82165527 -0.01008606 C4.78832509 -0.01513117 6.75500341 -0.01749513 8.72167969 -0.01733398 C11.68179054 -0.01950415 14.64151824 -0.03764067 17.6015625 -0.05664062 C46.45666889 -0.14247153 74.96719464 5.59383631 97.21875 25.16796875 C98.36150391 26.16763672 98.36150391 26.16763672 99.52734375 27.1875 C117.39119492 43.87487571 125.44212932 68.40392842 126.49163818 92.34860229 C126.96433931 106.88408451 126.8308345 121.4395459 126.78125 135.98046875 C126.75999246 143.5849356 126.75570289 151.18897394 126.78175163 158.79343224 C126.78507367 161.80025527 126.76405147 164.80622047 126.74134827 167.8129425 C126.7196582 181.61270207 128.76820376 192.16126049 136.34375 203.91796875 C143.04821773 214.37537468 144.19508632 223.78456374 143.21875 236.16796875 C141.27279708 245.04710723 135.83523506 251.96624767 128.34375 256.98046875 C118.40254632 262.57475827 107.42910863 264.07760538 96.24609375 261.4765625 C85.50766732 257.50981765 79.47071217 250.51265689 73.21875 241.16796875 C69.93803301 242.63018877 67.54779172 244.50673627 64.84375 246.85546875 C42.4602824 264.79468264 11.29309185 267.45197917 -16.28613281 264.83544922 C-36.99251798 262.20369511 -57.12001296 256.67925482 -72.78125 242.16796875 C-73.47734375 241.52601563 -74.1734375 240.8840625 -74.890625 240.22265625 C-89.66968873 225.15717655 -93.36340216 204.7213962 -93.1862793 184.45214844 C-92.69918079 163.59254107 -86.88192914 145.02342996 -71.8046875 130.1171875 C-49.48876569 109.46144672 -17.80111902 104.95020918 11.41796875 105.0703125 C13.39226616 105.07243492 13.39226616 105.07243492 15.40644836 105.07460022 C18.86691264 105.07837661 22.32733341 105.0881638 25.78778076 105.0993042 C29.33442598 105.10962461 32.88107839 105.11412037 36.42773438 105.11914062 C43.35809053 105.12979163 50.28841816 105.14680765 57.21875 105.16796875 C56.95212857 102.296603 56.67151029 99.42775423 56.3828125 96.55859375 C56.3094165 95.75244629 56.23602051 94.94629883 56.16040039 94.11572266 C55.26857091 85.47859572 52.41404926 78.44813356 45.59375 72.79296875 C33.61346703 64.88232389 20.84081795 62.8152817 6.78125 62.91796875 C5.19860352 62.90636719 5.19860352 62.90636719 3.58398438 62.89453125 C-6.07645259 62.91831079 -15.05609088 64.56690989 -24.34375 67.10546875 C-25.60960937 67.4509375 -26.87546875 67.79640625 -28.1796875 68.15234375 C-32.04428484 69.24214343 -35.89432467 70.36872931 -39.73046875 71.5546875 C-48.5539902 74.19334058 -57.30303705 74.05323819 -65.78125 70.16796875 C-72.22263552 66.10685003 -76.81573767 60.56118025 -78.78125 53.16796875 C-80.11717076 43.00757485 -80.22857682 32.59908844 -73.78125 24.16796875 C-73.29269531 23.47832031 -72.80414062 22.78867187 -72.30078125 22.078125 C-59.92073081 7.31838523 -34.59816131 4.15648913 -16.78125 1.16796875 C-15.75257812 0.99378418 -14.72390625 0.81959961 -13.6640625 0.64013672 C-9.08458745 0.08325136 -4.60812823 0.00583221 0 0 Z " fill="#303539" transform="translate(1282.78125,632.83203125)"/>
<path d="M0 0 C1.13914444 -0.00657338 1.13914444 -0.00657338 2.3013019 -0.01327956 C4.84201941 -0.026617 7.38270228 -0.03283504 9.92344666 -0.03897095 C11.74705663 -0.04687598 13.57066505 -0.05514518 15.39427185 -0.06375122 C21.3804628 -0.08992767 27.36666059 -0.10527577 33.35289001 -0.11953735 C35.41705771 -0.12489907 37.48122537 -0.13027659 39.54539299 -0.13566971 C48.13507641 -0.15729314 56.72475798 -0.17602785 65.31446171 -0.1872921 C77.60579405 -0.20351896 89.8968097 -0.23667241 102.18802267 -0.29369295 C110.84046872 -0.33245776 119.4928303 -0.35193261 128.14536089 -0.35721266 C133.3079387 -0.36085749 138.47017838 -0.37278621 143.63266182 -0.4053154 C148.49437633 -0.43551076 153.35555014 -0.44166711 158.21733856 -0.42993164 C159.9941987 -0.42971186 161.77108478 -0.43793757 163.54785728 -0.45558548 C175.1024919 -0.56403467 185.0149333 0.31889973 194.75523376 7.34140015 C202.74400536 15.90079828 205.88539176 24.87362601 205.63023376 36.41952515 C204.82262332 45.25276437 200.63267222 53.39817574 194.13023376 59.40390015 C187.23694228 64.92756385 179.5136649 67.25386778 170.76773071 67.31211853 C169.65018906 67.32190735 168.5326474 67.33169617 167.38124084 67.34178162 C165.55675919 67.35041481 165.55675919 67.35041481 163.69541931 67.35922241 C162.40721786 67.36912201 161.11901642 67.37902161 159.79177856 67.38922119 C156.26741333 67.41619658 152.7430348 67.43724588 149.21862388 67.45722318 C145.53238249 67.47912831 141.84618172 67.5064948 138.15997314 67.53327942 C131.18321636 67.58314519 124.20643694 67.62810664 117.22963601 67.67130178 C107.79933372 67.72997102 98.36908491 67.79622496 88.93883038 67.86205196 C74.0860009 67.96553096 59.23312537 68.05888369 44.38023376 68.15390015 C44.38023376 94.55390015 44.38023376 120.95390015 44.38023376 148.15390015 C51.9276947 148.20288452 59.47515564 148.2518689 67.25132751 148.30233765 C72.04105423 148.33773516 76.83076319 148.37370163 81.62046814 148.41171265 C89.21801678 148.47195262 96.81554065 148.53011897 104.41319275 148.57577515 C110.5405617 148.61272804 116.6677941 148.65911525 122.79504585 148.71196365 C125.12930461 148.73045446 127.46359257 148.74558189 129.79789543 148.75724411 C133.07475048 148.77419751 136.3512964 148.80325464 139.6280365 148.83505249 C141.0662677 148.83829277 141.0662677 148.83829277 142.53355408 148.84159851 C153.46638767 148.97656726 164.37866912 151.15233551 172.38023376 159.15390015 C178.90228637 168.14815224 181.4515982 177.08313436 180.38023376 188.15390015 C178.79727044 196.92005836 174.50313061 204.5980168 167.26126099 210.00309753 C154.70990596 217.68195087 141.72299993 216.88850453 127.48570251 216.8609314 C125.08288326 216.87406426 122.680075 216.88937332 120.27728271 216.90675354 C113.99242775 216.94642989 107.70786275 216.95678283 101.42289734 216.96078491 C94.99387411 216.9701491 88.56501894 217.00758318 82.13609314 217.04257202 C69.5508216 217.1069711 56.96565843 217.14131131 44.38023376 217.15390015 C44.3787672 217.73036411 44.37730064 218.30682808 44.37578964 218.90076065 C44.33861911 232.97512175 44.27946978 247.04925002 44.19633102 261.1234169 C44.15664572 267.92980557 44.12420025 274.73608039 44.10923767 281.54257202 C44.09476347 288.11740688 44.0595324 294.69194501 44.01192474 301.26662445 C43.99714531 303.76865308 43.98919474 306.27073213 43.98834991 308.77280426 C43.98596825 312.29116486 43.95879025 315.80855904 43.9261322 319.32675171 C43.93367775 320.86101303 43.93367775 320.86101303 43.94137573 322.42626953 C43.7866456 333.27753932 40.84341174 343.11663155 33.38023376 351.15390015 C32.81691345 351.77007202 32.25359314 352.3862439 31.67320251 353.02108765 C24.61955301 359.94108905 15.57692893 363.36604241 5.75523376 363.71640015 C-5.66329676 363.23314916 -15.07160249 358.34235141 -22.94789124 350.2046814 C-30.81031288 340.56035578 -31.91911735 329.60455928 -31.88719177 317.64221191 C-31.89172289 316.39286515 -31.896254 315.14351839 -31.90092242 313.85631263 C-31.91310769 310.40478513 -31.91289727 306.95335487 -31.91053367 303.50181079 C-31.91012437 299.77301221 -31.92117527 296.04424435 -31.9306488 292.31546021 C-31.94723445 285.01661781 -31.95275722 277.71780773 -31.95387356 270.41894807 C-31.95482505 264.48481849 -31.95894037 258.55069955 -31.96527481 252.61657333 C-31.98287941 235.78120606 -31.99211473 218.94586426 -31.99061386 202.11048771 C-31.99053395 201.20361753 -31.99045404 200.29674734 -31.9903717 199.36239624 C-31.99028994 198.45441524 -31.99020818 197.54643423 -31.99012394 196.61093865 C-31.98931093 181.8938782 -32.00845447 167.17692005 -32.03664844 152.45988919 C-32.06538928 137.3377544 -32.07918812 122.21566949 -32.07746089 107.09350669 C-32.07679747 98.60783748 -32.08226864 90.12227558 -32.10381699 81.63663101 C-32.12204444 74.41265711 -32.1263632 67.18883919 -32.11279814 59.96485223 C-32.10627676 56.28151389 -32.10612097 52.59847467 -32.12350464 48.91516495 C-32.14218256 44.91640316 -32.12965966 40.91833127 -32.11424255 36.91955566 C-32.12452968 35.76351086 -32.13481681 34.60746605 -32.14541566 33.41638958 C-32.05382642 22.65287146 -29.13264095 14.88143191 -21.70570374 7.06796265 C-15.15172064 1.05400812 -8.66199289 0.00611694 0 0 Z " fill="#303539" transform="translate(593.6197662353516,534.8460998535156)"/>
<path d="M0 0 C1.45287736 -0.00461708 2.90575004 -0.01097539 4.35861307 -0.01890898 C8.32407583 -0.03551507 12.28915059 -0.02739602 16.25461423 -0.0149641 C20.54169665 -0.00587987 24.82871431 -0.01990006 29.11578369 -0.03088379 C37.50379889 -0.04863817 45.89167065 -0.04484265 54.27969139 -0.03323323 C61.09951366 -0.02418643 67.91929584 -0.02298029 74.73912239 -0.02732849 C76.19708053 -0.02824789 76.19708053 -0.02824789 77.68449237 -0.02918586 C79.65927073 -0.03046481 81.63404908 -0.03176167 83.60882742 -0.03307623 C102.11176519 -0.04447316 120.6146236 -0.03138256 139.11754835 -0.00987476 C154.97941138 0.00799259 170.84115728 0.00489338 186.70301819 -0.0135498 C205.1398251 -0.03497706 223.57656249 -0.04337164 242.01338011 -0.03110075 C243.98105306 -0.02982661 245.94872603 -0.02856912 247.916399 -0.02732849 C248.88443241 -0.02671139 249.85246581 -0.02609429 250.84983356 -0.02545848 C257.65762638 -0.02201094 264.46537496 -0.02782114 271.27316093 -0.0372467 C279.57518467 -0.04848881 287.87705721 -0.04538036 296.17906373 -0.02412373 C300.4114933 -0.01364258 304.64367117 -0.00944106 308.87609863 -0.02272034 C312.75679997 -0.0347115 316.63701828 -0.02797219 320.5176763 -0.00681013 C321.91525893 -0.0023723 323.31288306 -0.0045463 324.7104386 -0.01431328 C338.33266485 -0.10214934 350.30848488 2.77471921 360.36341858 12.39074707 C368.96117305 21.68069364 371.81296697 31.51921914 371.57435608 44.08605957 C370.99595535 55.1008212 366.83878431 66.41233827 358.51185608 73.98059082 C347.25175978 82.10364922 336.76156881 83.80819371 323.27708435 83.78208923 C321.82837543 83.78654473 320.37966895 83.7918598 318.93096602 83.79795796 C314.95850658 83.81211119 310.98612549 83.81380176 307.01364446 83.81336105 C302.7258005 83.81501163 298.43798859 83.8280827 294.15016174 83.83955383 C284.7781019 83.86238472 275.40606473 83.87032245 266.03398085 83.87538028 C260.17887123 83.87863965 254.32376817 83.8851636 248.46866226 83.89238167 C232.24844512 83.91194544 216.02823407 83.92835084 199.80800438 83.9312582 C198.77042137 83.93144577 197.73283837 83.93163334 196.66381345 83.9318266 C194.56049705 83.93219284 192.45718064 83.93255654 190.35386424 83.93291771 C188.78779041 83.93319192 188.78779041 83.93319192 187.19007874 83.93347168 C185.62208696 83.9337425 185.62208696 83.9337425 184.02241857 83.9340188 C167.08928951 83.93755947 150.15628769 83.96457615 133.22320275 84.00196957 C115.82637065 84.04007874 98.42960164 84.05941587 81.03272688 84.05971771 C71.26981005 84.06030171 61.50704501 84.06875642 51.74416733 84.09771538 C43.42999386 84.12226421 35.11602754 84.12948856 26.80182759 84.11446785 C22.56315908 84.10731315 18.32489934 84.1080938 14.08627701 84.13087845 C10.19851193 84.15157601 6.31146707 84.14876891 2.42370887 84.1280036 C1.02463272 84.12452914 -0.37449655 84.12933123 -1.77350314 84.14370804 C-14.12401374 84.26234778 -25.08686401 81.58048569 -34.67564392 73.44934082 C-37.96968164 70.13529883 -40.36478703 66.59403376 -42.60533142 62.50793457 C-43.01912048 61.81699707 -43.43290955 61.12605957 -43.85923767 60.41418457 C-48.64339924 50.94587875 -48.09701229 37.09129852 -45.60533142 26.94543457 C-41.55695951 16.28786016 -33.6771969 8.2302068 -23.4214887 3.50087404 C-15.56766249 0.29474585 -8.39430407 -0.05856225 0 0 Z " fill="#1A90DC" transform="translate(106.60533142089844,534.4920654296875)"/>
<path d="M0 0 C8.7186711 5.60235894 12.75051255 14.22779229 15.3465271 23.9540863 C16.37711511 28.75777767 16.47949303 33.45703307 16.51171875 38.35546875 C16.52966995 39.38311844 16.54762115 40.41076813 16.56611633 41.46955872 C16.61971988 44.70883237 16.65395343 47.94796303 16.6875 51.1875 C16.72071724 53.4017124 16.75521088 55.61590605 16.79101562 57.83007812 C16.87541668 63.21992359 16.9439747 68.60978879 17 74 C18.17804199 74.00616333 18.17804199 74.00616333 19.37988281 74.01245117 C23.00397431 74.04573147 26.62646048 74.11641447 30.25 74.1875 C31.48492188 74.19330078 32.71984375 74.19910156 33.9921875 74.20507812 C43.1554645 74.42210311 52.46968192 75.55872876 59.29785156 82.25268555 C65.90948185 90.15854865 66.77099095 97.9530242 66 108 C64.89404314 113.82355407 62.70796935 119.17823664 58 123 C51.60342974 126.77653508 46.03940201 129.08019994 38.58203125 129.31640625 C36.70161133 129.37924805 36.70161133 129.37924805 34.78320312 129.44335938 C33.47287109 129.48267578 32.16253906 129.52199219 30.8125 129.5625 C29.47720022 129.60570992 28.14191348 129.649325 26.80664062 129.69335938 C23.53786703 129.79956502 20.26901667 129.90160997 17 130 C16.92976449 145.4733132 16.87694081 160.94661439 16.84456348 176.42004967 C16.82912721 183.60544556 16.8081001 190.79074211 16.77368164 197.97607422 C16.74367957 204.24243701 16.72440148 210.50872781 16.71773452 216.77516043 C16.71384043 220.08993883 16.70315762 223.40446466 16.68280983 226.71918869 C16.66094637 230.42928892 16.65803688 234.13896652 16.65942383 237.84912109 C16.648638 238.93525696 16.63785217 240.02139282 16.6267395 241.14044189 C16.6571009 248.67518544 16.93828341 256.85977786 22.4375 262.5 C23.7059375 263.2425 23.7059375 263.2425 25 264 C25.88365234 264.51820313 25.88365234 264.51820313 26.78515625 265.046875 C29.53966433 266.2322365 32.01902534 266.44313496 35 266.75 C45.40330984 268.27955509 53.83184113 272.36229498 60.44140625 280.67578125 C66.02883548 289.00791255 66.25091934 299.24879773 65 309 C62.56240994 317.49034991 55.28964722 323.14023519 48.1875 327.875 C28.44829337 334.84177881 1.3774197 332.84949508 -17.64306641 324.31494141 C-33.44973095 316.56450379 -43.06213437 304.54887043 -48.71484375 288.109375 C-52.90198809 275.18556366 -54.15375344 262.4635154 -54.11352539 248.97460938 C-54.11367142 247.68596985 -54.11381744 246.39733032 -54.1139679 245.06964111 C-54.11425331 241.55781599 -54.10839809 238.04602543 -54.10139394 234.5342083 C-54.09511766 230.85601861 -54.09455323 227.17782801 -54.09336853 223.49963379 C-54.09026778 216.54419664 -54.08207139 209.58877532 -54.07201904 202.63334513 C-54.06081881 194.71070069 -54.05533762 186.78805547 -54.05032361 178.86540508 C-54.03988767 162.57692748 -54.02231265 146.28846576 -54 130 C-54.94681641 129.95246582 -55.89363281 129.90493164 -56.86914062 129.85595703 C-58.11888672 129.78231934 -59.36863281 129.70868164 -60.65625 129.6328125 C-61.89181641 129.56465332 -63.12738281 129.49649414 -64.40039062 129.42626953 C-72.10664066 128.51368729 -77.85639639 124.96508378 -82.74609375 119.0390625 C-86.32949231 113.21185363 -87.5600195 108.38137187 -87.5 101.625 C-87.49427979 100.87694092 -87.48855957 100.12888184 -87.48266602 99.3581543 C-87.24994928 92.1533382 -85.28284483 87.51677677 -80.35546875 82.23828125 C-74.48268031 76.76319857 -69.15600278 74.96317372 -61.2578125 74.42578125 C-60.08621582 74.34368408 -58.91461914 74.26158691 -57.70751953 74.17700195 C-56.81403809 74.11859131 -55.92055664 74.06018066 -55 74 C-54.99635437 73.41055099 -54.99270874 72.82110199 -54.98895264 72.21379089 C-54.94686814 66.03186803 -54.87734404 59.85066979 -54.79248047 53.66918945 C-54.76440135 51.36783119 -54.74312245 49.06637883 -54.72900391 46.76489258 C-54.70739311 43.44043246 -54.66064958 40.11708836 -54.609375 36.79296875 C-54.60814636 35.7779277 -54.60691772 34.76288666 -54.60565186 33.71708679 C-54.39291866 23.14241083 -51.0877081 13.02467591 -44 5 C-32.23183429 -5.17314159 -13.82996916 -8.35017006 0 0 Z " fill="#303539" transform="translate(1528,567)"/>
<path d="M0 0 C1.06180107 -0.00382555 2.12360214 -0.00765109 3.21757901 -0.01159257 C6.75164088 -0.02185595 10.28553826 -0.01794309 13.8196106 -0.01396179 C16.3631607 -0.01831194 18.90670949 -0.0234961 21.45025635 -0.02944946 C27.62788262 -0.04143118 33.80544892 -0.04399484 39.98308454 -0.0416492 C45.00753821 -0.03986173 50.03197872 -0.04162486 55.05643082 -0.04587364 C55.77320517 -0.04646883 56.48997951 -0.04706402 57.2284743 -0.04767724 C58.68489018 -0.04888907 60.14130607 -0.05010321 61.59772195 -0.05131962 C75.23727745 -0.06218074 88.87680818 -0.06003942 102.51636507 -0.05393478 C114.97511677 -0.04876663 127.43379026 -0.06002088 139.89252649 -0.07903299 C152.70724904 -0.09843736 165.52193463 -0.10666286 178.33667195 -0.10290974 C185.52232445 -0.10100167 192.70791041 -0.10344674 199.89355087 -0.11762428 C206.65204668 -0.13082493 213.41036103 -0.12824289 220.1688652 -0.11521339 C222.64394687 -0.11285168 225.1190396 -0.11556772 227.59410858 -0.12383652 C230.98332898 -0.13433967 234.37202829 -0.12617428 237.76123047 -0.11352539 C239.21603736 -0.12458682 239.21603736 -0.12458682 240.70023429 -0.13587171 C253.33366 -0.03727685 264.13323193 3.32374314 273.75759888 11.63569641 C274.87134888 12.93507141 274.87134888 12.93507141 276.00759888 14.26069641 C276.49873169 14.79952454 276.9898645 15.33835266 277.49588013 15.89350891 C284.20852123 23.85540084 286.75411105 33.93131402 286.32009888 44.22554016 C285.04694323 56.59106443 281.48321932 67.08693378 271.63259888 75.19819641 C261.23880845 82.56193268 250.57044869 84.57129395 238.03260803 84.5146637 C236.96067202 84.51778368 235.888736 84.52090366 234.78431708 84.52411819 C231.21016871 84.53206401 227.63619172 84.52578782 224.06204224 84.51948547 C221.49244589 84.52219683 218.92285032 84.52575858 216.35325623 84.53010559 C210.10932519 84.53897783 203.86544237 84.53708737 197.62150948 84.53128031 C192.54551101 84.52675567 187.469526 84.52615438 182.39352608 84.52832794 C181.66991062 84.52863441 180.94629517 84.52894087 180.20075198 84.52925663 C178.73055763 84.5298961 177.26036329 84.53054453 175.79016895 84.53120181 C162.01911405 84.53689864 148.24808582 84.53035716 134.47703529 84.51960108 C122.66974562 84.51066426 110.86249527 84.51221994 99.0552063 84.5214386 C85.33043364 84.5321494 71.60568432 84.53635137 57.88090807 84.53021407 C56.41655736 84.529577 54.95220664 84.52894826 53.48785591 84.52832794 C52.76743961 84.52801939 52.0470233 84.52771084 51.3047762 84.52739294 C46.23640634 84.52566857 41.16805133 84.52857549 36.09968376 84.53328705 C29.27476096 84.5394923 22.44991359 84.53505411 15.62499809 84.52349854 C13.12082543 84.52085482 10.61664652 84.52161212 8.11247635 84.52602386 C4.69343531 84.53149191 1.27463199 84.52462963 -2.14439392 84.5146637 C-3.13438057 84.51912514 -4.12436721 84.52358658 -5.14435345 84.52818322 C-18.10642263 84.45494208 -29.54135378 80.30237635 -38.99240112 71.26069641 C-47.93909566 60.42330608 -50.11438301 48.07213535 -48.99240112 34.26069641 C-46.40958164 22.06978847 -39.86576397 13.64111715 -29.99240112 6.26069641 C-20.77342879 0.79400756 -10.4944817 -0.04070688 0 0 Z " fill="#1A90DC" transform="translate(191.99240112304688,799.7393035888672)"/>
<path d="M0 0 C8.75726428 6.37138423 13.13413278 14.64812358 15.12035 25.10028732 C15.77768411 29.56144324 15.80084202 33.96673908 15.78172302 38.46888733 C15.78539873 39.49196958 15.78907443 40.51505182 15.79286152 41.56913656 C15.80278281 44.97200549 15.79870246 48.37470912 15.79467773 51.77758789 C15.79906806 54.22748487 15.80437133 56.67738035 15.81051636 59.12727356 C15.82199185 64.39056503 15.82766702 69.65382898 15.82839775 74.91713142 C15.82972805 82.53664068 15.84487984 90.15607711 15.86389292 97.77556055 C15.89468296 110.15285492 15.91887308 122.53015113 15.93676758 134.9074707 C15.9383766 136.01692753 15.9383766 136.01692753 15.94001812 137.14879762 C15.951841 145.40264323 15.96204767 153.65648957 15.97045898 161.91033936 C15.97353317 164.90515139 15.97662192 167.8999634 15.97973633 170.89477539 C15.98088434 172.00332494 15.98088434 172.00332494 15.98205554 173.13426942 C15.99514897 185.46874556 16.01980165 197.80316872 16.05347973 210.13760561 C16.07373145 217.73579396 16.08406443 225.33386889 16.08149052 232.93208443 C16.08033062 238.75495439 16.09451228 244.57770855 16.11429977 250.40054131 C16.11989564 252.78496025 16.12038788 255.16939754 16.11536217 257.55381775 C16.10921393 260.81273741 16.12146536 264.07110006 16.13816833 267.32997131 C16.12885061 268.73952177 16.12885061 268.73952177 16.11934465 270.17754799 C16.1869465 277.43334814 17.27270401 283.86815617 21.73046875 289.74609375 C25.04638911 292.22723696 28.26494592 293.26805369 32.2109375 294.2734375 C42.1925022 297.14219966 49.75450486 300.43660258 55.3671875 309.58984375 C60.03350848 318.65448754 60.2402608 329.7062908 57.49609375 339.50390625 C53.71132428 347.77588162 47.88814616 353.19509382 39.5234375 356.7109375 C20.61404712 362.70749515 -3.85171913 358.99323911 -21.4765625 350.8359375 C-35.91382106 342.27644324 -45.20199178 329.05505337 -49.4765625 312.8359375 C-49.76466797 311.81693359 -49.76466797 311.81693359 -50.05859375 310.77734375 C-53.88098482 295.79027085 -52.63129474 279.40692002 -52.63769531 264.07910156 C-52.64233059 261.48245677 -52.64735619 258.88581266 -52.65274048 256.28916931 C-52.66622544 249.27095739 -52.67233124 242.25275125 -52.67675114 235.23452854 C-52.6795268 230.84595432 -52.68376612 226.45738226 -52.68825531 222.06880951 C-52.70042842 209.89557153 -52.71073589 197.72233526 -52.7141304 185.54909134 C-52.71434997 184.77268167 -52.71456953 183.996272 -52.71479575 183.19633476 C-52.71501403 182.41820154 -52.71523231 181.64006832 -52.7154572 180.8383553 C-52.71590065 179.26186577 -52.71634721 177.68537625 -52.71679688 176.10888672 C-52.7170183 175.32691393 -52.71723973 174.54494114 -52.71746787 173.73927221 C-52.72142165 161.04986677 -52.73890205 148.36051853 -52.7621564 135.67113522 C-52.78588939 122.61447816 -52.79833291 109.55784984 -52.79949832 96.50117087 C-52.80041326 89.18149671 -52.80612126 81.86189743 -52.82431793 74.54224396 C-52.84135929 67.6638827 -52.84295723 60.78566571 -52.83417892 53.90728951 C-52.83340847 51.38620943 -52.83775238 48.86512171 -52.84763718 46.3440609 C-52.86035725 42.89743821 -52.85447928 39.45131916 -52.84405518 36.00469971 C-52.85211158 35.0122765 -52.86016798 34.01985329 -52.86846852 32.99735665 C-52.78856625 21.66798218 -49.53239402 12.50032072 -41.8828125 4.08203125 C-30.64418796 -6.49393854 -13.12504626 -7.65927357 0 0 Z " fill="#303539" transform="translate(879.4765625,539.1640625)"/>
<path d="M0 0 C1.31159088 -0.00350464 2.62318176 -0.00700928 3.97451782 -0.01062012 C7.55315184 -0.01969394 11.13166979 -0.01622018 14.71030569 -0.00986195 C18.46923717 -0.00477379 22.22815917 -0.00950139 25.98709106 -0.01263428 C32.3000058 -0.01626664 38.61287365 -0.01149495 44.92578125 -0.00195312 C52.20348052 0.00892059 59.48106761 0.0054108 66.75876415 -0.00560594 C73.0265555 -0.01471094 79.29431328 -0.01594815 85.56210911 -0.0107286 C89.29698784 -0.00762529 93.03181404 -0.00715393 96.7666893 -0.01380157 C100.9356718 -0.02070422 105.10446408 -0.01111003 109.2734375 0 C111.10820648 -0.00607269 111.10820648 -0.00607269 112.9800415 -0.01226807 C122.27684396 0.03346261 130.72982272 0.77298642 139.07861328 5.13378906 C140.526875 5.87242187 140.526875 5.87242187 142.00439453 6.62597656 C151.39477547 12.17785666 156.9988641 20.61289588 160.11376953 30.97363281 C162.94486965 45.23084957 160.02341037 57.01104293 152.76611328 69.25878906 C147.45538323 76.83334238 136.81701352 82.49028708 127.76611328 84.25878906 C125.81449675 84.35765092 123.85986792 84.40223264 121.90577698 84.41268921 C120.10825233 84.4255899 120.10825233 84.4255899 118.27441406 84.43875122 C116.30686157 84.44514114 116.30686157 84.44514114 114.29956055 84.45166016 C112.90136005 84.45956588 111.50316157 84.46783512 110.10496521 84.47644043 C105.51416968 84.5026196 100.92336526 84.51797008 96.33251953 84.53222656 C94.74787834 84.53758908 93.1632372 84.5429666 91.57859612 84.54835892 C84.9808522 84.56998707 78.38311069 84.58871887 71.78534031 84.59998131 C62.35559577 84.61618734 52.92626543 84.64928392 43.49667698 84.70638216 C36.85356076 84.74522313 30.21055463 84.76463101 23.56732792 84.76990187 C19.6068819 84.77353779 15.64687803 84.78536841 11.68655586 84.81800461 C7.95255087 84.84833366 4.21924975 84.85431022 0.48514748 84.84262085 C-1.5174461 84.84229888 -3.51999786 84.86660131 -5.52243042 84.89199829 C-16.96215031 84.81423503 -27.3507345 81.80914341 -36.22998047 74.35253906 C-46.66259616 63.45218427 -48.83873935 51.29341596 -48.57763672 36.82128906 C-48.11491995 27.50525821 -43.62002409 18.96047676 -37.23388672 12.25878906 C-26.07353938 2.28176337 -14.62678026 -0.04825181 0 0 Z " fill="#1A90DC" transform="translate(317.23388671875,666.7412109375)"/>
<path d="M0 0 C12.82276233 9.46852704 16.89300085 24.13107688 19.23828125 39.3046875 C19.52397094 43.21272307 19.56574843 47.10593186 19.57421875 51.0234375 C19.58420395 52.6694696 19.58420395 52.6694696 19.59439087 54.34875488 C19.60446404 56.66152282 19.60920955 58.97431952 19.60888672 61.28710938 C19.61323471 64.7674344 19.64954424 68.2464632 19.6875 71.7265625 C19.78319045 90.47870876 18.81573279 110.72184552 6.13671875 125.8046875 C-3.18568603 134.76473732 -14.42270688 136.82888171 -26.96484375 136.58203125 C-37.01643036 135.84781042 -44.69486178 130.55640161 -51.51171875 123.4296875 C-60.90703477 110.38063747 -63.088767 94.92604277 -63.02734375 79.1796875 C-63.0292572 78.07093262 -63.03117065 76.96217773 -63.03314209 75.81982422 C-63.0344929 73.49381277 -63.03087439 71.1677935 -63.02246094 68.84179688 C-63.0117459 65.31362721 -63.02239442 61.78596663 -63.03515625 58.2578125 C-63.03383446 55.98176973 -63.03127166 53.70572727 -63.02734375 51.4296875 C-63.03341644 49.87290283 -63.03341644 49.87290283 -63.03961182 48.28466797 C-62.94109946 32.63599528 -60.12788789 15.86148421 -48.76171875 4.3046875 C-35.92969691 -8.30072027 -14.95678632 -9.18139358 0 0 Z " fill="#FEFEFE" transform="translate(1085.76171875,699.6953125)"/>
<path d="M0 0 C3.25133507 0.03170343 6.50218639 0.04103708 9.75366211 0.046875 C11.81942331 0.05602575 13.88517956 0.06639527 15.95092773 0.078125 C16.9236412 0.08237488 17.89635468 0.08662476 18.89854431 0.09100342 C20.23242943 0.10541473 20.23242943 0.10541473 21.59326172 0.12011719 C22.37773178 0.12694519 23.16220184 0.13377319 23.97044373 0.14080811 C25.76733398 0.28125 25.76733398 0.28125 26.76733398 1.28125 C27.08077413 5.75285193 27.04603903 10.23753923 27.07983398 14.71875 C27.12333984 16.58950195 27.12333984 16.58950195 27.16772461 18.49804688 C27.24284216 29.49410027 25.20921196 37.54422388 17.54467773 45.59765625 C12.21718153 50.64414166 6.7145444 52.49032607 -0.23266602 54.28125 C-1.45985352 54.631875 -2.68704102 54.9825 -3.95141602 55.34375 C-17.12065754 58.59667314 -32.63081217 57.1661359 -44.68969727 51.03125 C-50.20096648 47.43205378 -53.44060513 42.58236731 -55.23266602 36.28125 C-56.09288693 29.07214199 -56.5591117 21.38174138 -52.63110352 14.98828125 C-39.41519596 -1.1439858 -19.06975326 -0.18809651 0 0 Z " fill="#FCFCFC" transform="translate(1313.232666015625,786.71875)"/>
</svg>
