<svg id="Layer_1" data-name="Layer 1" xmlns="http://www.w3.org/2000/svg" width="775" height="237" viewBox="0 0 775 237"><defs><style>.cls-1{fill:#303539;}.cls-2{fill:#1a90dc;}.cls-3{fill:none;}</style></defs><title>float_logo-freelogovectors.net_</title><path id="Text" class="cls-1" d="M511.15,389.75c-9,0-14.81,4.91-17.36,13.25-1.61,5.16-2.08,11.79-2.08,19.89s.47,14.73,2.08,19.89c2.56,8.34,8.34,13.26,17.36,13.26s14.82-4.92,17.36-13.26c1.62-5.16,2.08-11.79,2.08-19.89s-.46-14.73-2.08-19.89C526,394.66,520.18,389.75,511.15,389.75ZM639.2,433.2H622.8c-14.22,0-20.73,4.42-20.73,13.5,0,8.35,5.79,12.52,16.88,12.52,14.09,0,21.55-5.29,21.7-16.12v-8.43A1.29,1.29,0,0,0,639.2,433.2ZM511.15,360.77c24.54,0,41.89,12.28,48.6,34.13,2.56,8.59,3.71,16.44,3.71,28s-1.16,19.39-3.71,28C553,472.72,535.69,485,511.15,485s-41.88-12.28-48.6-34.13c-2.55-8.59-3.7-16.44-3.7-28s1.16-19.4,3.7-28C469.27,373.05,486.62,360.77,511.15,360.77Zm208.74-32.69c9.41,0,16.23,6.84,16.23,18.09v17.6c0,1,.46,1.47,1.4,1.47h8.93c8.46,0,13.17,5.13,13.17,12.7s-4.71,12.71-13.17,12.71h-8.93c-.94,0-1.4.49-1.4,1.47v52.3c0,7.09,2.57,10,8.69,10.76,10.34,1.22,14.57,7.82,14.57,15.16,0,8.3-5.64,14.66-18.1,14.66h-1.41c-26.79,0-36.44-12.71-36.44-39.59V392.12a1.45,1.45,0,0,0-1.64-1.47h-.93c-8.47,0-13.17-5.13-13.17-12.71s4.7-12.7,13.17-12.7h.93a1.45,1.45,0,0,0,1.64-1.47v-17.6C703.43,334.92,710.26,328.08,719.89,328.08Zm-99,32.69c34.84,0,51.74,17.8,52.07,47v33.29c0,5.55.46,8.25,2.07,11.14l.09.16,3.15,5.4a19.48,19.48,0,0,1,2.88,10.07c0,9.08-7.48,15.95-16.88,15.95-5.68,0-10.44-2.13-13.58-6.41l-.16-.21L647.64,473h-.24c-6,7.61-18.57,12-33,12-29.9,0-44.37-13.75-44.37-36.34,0-26,18.9-38.06,47.36-38.3H639.2a1.27,1.27,0,0,0,1.45-1.36v-1.33c0-11.06-7.72-17.69-23.88-17.69A54.77,54.77,0,0,0,598,393.43a25.72,25.72,0,0,1-8,1.71c-8,0-13.5-5.4-13.5-13.75a15,15,0,0,1,8.68-13.75C592.91,363.72,604.72,360.77,620.88,360.77ZM416.06,315c9.09,0,15.92,6.74,16.06,17.84V444.21c0,6.88,2.3,9.84,7.34,10.82,9.18,1.71,12.85,7.37,12.85,15,0,8.26-4.95,14.85-16.4,15h-1.73c-25.21,0-34-13.24-34.18-37.11V333.18C400,321.88,406.65,315,416.06,315Zm-45.5,0c9.87,0,16.36,6.69,16.36,15.88,0,8.82-6.36,15.47-16.06,15.6H312.58a1.28,1.28,0,0,0-1.44,1.38V383.4c0,1,.44,1.45,1.33,1.49h46.3c10.35,0,16.36,6.44,16.36,15.61s-5.89,15.48-16.05,15.61h-46.5a1.28,1.28,0,0,0-1.44,1.38v48.18c0,11.65-7.46,19.33-17.56,19.33s-17.66-7.53-17.81-19V331.1c0-9.56,5.65-16,15.11-16.1h79.68Z" transform="translate(-12.5 -281.5)"/><path id="Symbol" class="cls-2" d="M215.68,439.23c13,0,20.86,8.4,20.86,19.62,0,11.48-7.88,19.61-20.85,19.61H100.47c-13,0-20.85-8.12-20.85-19.61,0-11.22,7.88-19.62,20.85-19.62Zm.46-62.11c12.68,0,20.4,8.4,20.4,19.61,0,11.49-7.72,19.62-20.4,19.62H158.85c-12.67,0-20.39-8.13-20.39-19.62,0-11.21,7.72-19.61,20.39-19.61ZM215.68,315c13,0,20.86,8.4,20.86,19.61,0,11.5-7.89,19.62-20.86,19.62H61.24c-13,0-20.86-8.12-20.86-19.62,0-11.21,7.89-19.61,20.86-19.61Z" transform="translate(-12.5 -281.5)"/><rect class="cls-3" width="775" height="237"/></svg>