<?xml version="1.0" encoding="UTF-8"?>
<svg version="1.1" xmlns="http://www.w3.org/2000/svg" width="400" height="400">
<path d="M0 0 C132 0 264 0 400 0 C400 132 400 264 400 400 C268 400 136 400 0 400 C0 268 0 136 0 0 Z " fill="#081827" transform="translate(0,0)"/>
<path d="M0 0 C1.13240616 -0.00700928 2.26481232 -0.01401855 3.43153381 -0.02124023 C7.16879919 -0.03882238 10.90530525 -0.02719581 14.64257812 -0.01367188 C17.24279933 -0.0163667 19.84301955 -0.02024904 22.4432373 -0.02526855 C27.89048801 -0.03116395 33.33745418 -0.02298161 38.78466797 -0.00390625 C45.07302307 0.01786105 51.36085934 0.01080901 57.64920187 -0.01121187 C63.71050753 -0.0315842 69.77156034 -0.02938587 75.832901 -0.01768494 C78.40690687 -0.01501728 80.98092598 -0.01828874 83.55491638 -0.02760315 C87.15285274 -0.0377657 90.74979397 -0.02226976 94.34765625 0 C95.94221397 -0.01214539 95.94221397 -0.01214539 97.56898499 -0.02453613 C103.59768248 0.0445667 107.08279812 0.50108812 111.67382812 4.51757812 C116.50489589 10.00149289 117.02407555 13.32297212 116.95507812 20.53320312 C116.45537088 25.83565221 113.92305763 28.39022467 110.11132812 31.83007812 C106.67404032 34.20973891 104.0768904 34.64427506 100.00105286 34.67147827 C99.04086243 34.68007874 98.080672 34.6886792 97.09138489 34.69754028 C96.03940414 34.70180023 94.9874234 34.70606018 93.90356445 34.71044922 C92.7943161 34.71862671 91.68506775 34.7268042 90.54220581 34.73522949 C86.86342917 34.76008513 83.18469114 34.77660054 79.50585938 34.79101562 C78.24985113 34.7963393 76.99384289 34.80166298 75.69977379 34.80714798 C70.41969668 34.82837805 65.13962536 34.84750727 59.8595171 34.85877037 C52.30540125 34.87499269 44.75180109 34.90813169 37.19787961 34.96517122 C31.23758905 35.00863413 25.27741271 35.02452493 19.31696129 35.03090286 C16.78643817 35.03761761 14.25592262 35.05284528 11.72550392 35.07679367 C8.18029329 35.10843036 4.63637934 35.10848325 1.09106445 35.10107422 C0.04920486 35.11747955 -0.99265472 35.13388489 -2.06608582 35.15078735 C-8.62748635 35.09476613 -13.36304445 34.00299366 -18.32617188 29.51757812 C-21.68227678 24.96480852 -23.05897746 20.4178172 -22.77539062 14.75585938 C-21.72171563 9.50580919 -18.90084197 5.88504002 -14.92907715 2.43591309 C-10.34078588 -0.53893246 -5.2937474 -0.04032128 0 0 Z " fill="#FDFEFD" transform="translate(152.326171875,130.482421875)"/>
<path d="M0 0 C4.59047821 2.63527453 7.99478431 6.17706863 10.375 10.9375 C10.93174965 16.89043853 10.91641118 21.91098091 7.375 26.9375 C2.62497054 31.81373797 -0.6236161 33.69148493 -7.4375 34.25 C-12.17469466 34.17942727 -14.77871211 32.67428176 -18.625 29.9375 C-22.71166096 25.62993845 -24.38814793 22.00149663 -25.0625 16.125 C-24.90246269 11.13560164 -22.88119482 7.63521276 -19.625 3.9375 C-13.343063 -1.59435497 -8.02489602 -2.3521247 0 0 Z " fill="#F8F9F9" transform="translate(206.625,236.0625)"/>
<path d="M0 0 C2.49040942 2.49040942 2.32391014 3.43154357 2.375 6.875 C2.2796077 11.61054642 2.2796077 11.61054642 0.25 14.4375 C-0.4925 14.953125 -1.235 15.46875 -2 16 C-2.7425 16.5775 -3.485 17.155 -4.25 17.75 C-4.8275 18.1625 -5.405 18.575 -6 19 C-6.66 18.34 -7.32 17.68 -8 17 C-7.38511719 16.41605469 -7.38511719 16.41605469 -6.7578125 15.8203125 C-2.06975447 10.95280727 -0.77528727 6.64340991 0 0 Z " fill="#1C2732" transform="translate(217,250)"/>
<path d="M0 0 C2.475 0.99 2.475 0.99 5 2 C2.35674154 4.53752812 1.11659328 4.99195908 -2.625 5.25 C-6 5 -6 5 -8 4 C-8 3.34 -8 2.68 -8 2 C-6.68 1.67 -5.36 1.34 -4 1 C-4 1.66 -4 2.32 -4 3 C-2.68 2.67 -1.36 2.34 0 2 C0 1.34 0 0.68 0 0 Z " fill="#172430" transform="translate(137,162)"/>
<path d="M0 0 C0.33 0.99 0.66 1.98 1 3 C4.00847418 4.22520264 4.00847418 4.22520264 7 5 C7.33 6.65 7.66 8.3 8 10 C5.03 8.02 2.06 6.04 -1 4 C-0.67 2.68 -0.34 1.36 0 0 Z " fill="#1C2731" transform="translate(259,128)"/>
<path d="M0 0 C0.66 0.99 1.32 1.98 2 3 C1.34 3 0.68 3 0 3 C0.33 4.32 0.66 5.64 1 7 C-0.32 7.99 -1.64 8.98 -3 10 C-2.49287967 6.28111761 -1.88391785 3.26545761 0 0 Z " fill="#DCE2E6" transform="translate(133,137)"/>
</svg>
