<?xml version="1.0" encoding="utf-8"?>
<!-- Generator: Adobe Illustrator 21.1.0, SVG Export Plug-In . SVG Version: 6.00 Build 0)  -->
<svg version="1.1" id="Segel" xmlns="http://www.w3.org/2000/svg" xmlns:xlink="http://www.w3.org/1999/xlink" x="0px" y="0px"
	 viewBox="0 0 396.8 396.8" style="enable-background:new 0 0 396.8 396.8;" xml:space="preserve">
<style type="text/css">
	.Gr√_x00BC_n_x0020_bogenf√_x00B6_rmig{fill:url(#SVGID_1_);stroke:#FFFFFF;stroke-width:0.25;stroke-miterlimit:1;}
	.st0{fill:#E75300;}
</style>
<linearGradient id="SVGID_1_" gradientUnits="userSpaceOnUse" x1="0" y1="396.8496" x2="0.7071" y2="396.1425">
	<stop  offset="0" style="stop-color:#259E2E"/>
	<stop  offset="0.9831" style="stop-color:#1C381D"/>
</linearGradient>
<path id="Segel_1_" class="st0" d="M290.1,12.2c7.7-6.5,18.6-0.3,22.7,6.1c4.3,6.8,11.3,72.7,13.4,86.2
	c11.5,73.5,48.9,122.9,48.9,133.2c0,14.8-10.8,20.8-21.6,24.4c0,0-16.4,5.2-24.4,0c-13-8.4-29-44.5-36-55.8
	c-17.4-28.4-24-102.1-36.7-103.5c-10.3-1.1-141.1,187-137.8,198.3c2.4,11.3,14.1,11.1,17.3,11.5c35.5,4.7,104.1-11.7,110.7-13.2
	c21.9-4.8,70.3,0,70.3,0c11.6,1.2,31,8.7,30.3,22.5c-0.7,12.8-21.4,29-30.2,24.4c-13.2-6.8-26.1-2.7-26.1-2.7
	c-8.3,0.1-37.6,17.8-59.8,35.3c-12.1,9.6-51.5,10.5-60,9.4c-13.7-1.7-52.7-22.9-68-32.8c-6.8-4.4-50.9-40-60.5-56.3
	c0,0-16-26.3-18.7-35.6c-2.8-9.4,0.3-27.5,4.2-29.1C133.3,193.2,283.7,17.6,290.1,12.2L290.1,12.2z"/>
</svg>
