<svg width="133" height="37" viewBox="0 0 133 37" fill="none" xmlns="http://www.w3.org/2000/svg">
<path fill-rule="evenodd" clip-rule="evenodd" d="M11.9442 4.67844C15.811 0.291432 22.2149 -0.995522 27.4794 1.53674C34.4737 4.90156 37.0257 13.473 33.2175 20.0848L24.6504 34.9425C24.1717 35.7725 23.3841 36.3784 22.4602 36.6266C21.5364 36.8748 20.5521 36.7453 19.7233 36.2667L30.0951 18.2755C32.8579 13.4768 31.0099 7.25662 25.939 4.80758C22.1337 2.97009 17.4825 3.88803 14.6717 7.04806C13.1211 8.78287 12.2506 11.0226 12.2216 13.352C12.1925 15.6813 13.0068 17.9422 14.5137 19.7155C14.7845 20.0334 15.0758 20.3334 15.3859 20.6134L9.3311 31.1352C9.09432 31.5466 8.77906 31.9068 8.4033 32.1963C8.02758 32.4853 7.59872 32.6974 7.14124 32.8204C6.68373 32.9434 6.2066 32.9748 5.737 32.9128C5.26741 32.8507 4.81459 32.6967 4.40436 32.4594L10.9777 21.0364C10.0335 19.6713 9.35542 18.1395 8.97926 16.5217L4.95124 23.5355C4.47243 24.3659 3.68463 24.9715 2.76083 25.2197C1.837 25.4682 0.852669 25.3386 0.0239868 24.8598L10.4405 6.76766C10.874 6.0247 11.3776 5.32507 11.9442 4.67844ZM23.9668 10.4372C26.4755 11.89 27.3418 15.1208 25.8902 17.6352L15.9017 34.9403C15.423 35.7703 14.6349 36.3762 13.7111 36.6244C12.7873 36.8726 11.8031 36.7431 10.9744 36.2646L20.2493 20.1535C19.5049 19.9965 18.8038 19.6793 18.1938 19.2238C17.5837 18.7686 17.0796 18.1859 16.7159 17.5161C16.3523 16.8464 16.1379 16.1055 16.0877 15.3446C16.0374 14.5837 16.1525 13.8209 16.4251 13.1089C16.6974 12.3969 17.1207 11.7528 17.6656 11.2208C18.2105 10.6889 18.8639 10.2818 19.581 10.0278C20.2981 9.77377 21.0617 9.67883 21.8188 9.74949C22.576 9.8202 23.3091 10.0548 23.9668 10.4372ZM20.3337 13.6894C20.1619 13.8215 20.0178 13.9863 19.9097 14.1743C19.7466 14.4574 19.6705 14.7826 19.692 15.1087C19.7135 15.4348 19.8307 15.7474 20.0291 16.0067C20.2278 16.2659 20.4983 16.4604 20.8069 16.5654C21.1156 16.6705 21.4487 16.6814 21.7635 16.5967C22.0784 16.5121 22.3608 16.3358 22.576 16.0901C22.7907 15.8443 22.9283 15.5402 22.9709 15.2161C23.0131 14.8921 22.9589 14.5626 22.8148 14.2695C22.6706 13.9763 22.4431 13.7326 22.1606 13.5691C21.9736 13.4606 21.7664 13.3902 21.552 13.3619C21.3373 13.3335 21.1192 13.3479 20.9103 13.4041C20.7014 13.4603 20.5052 13.5572 20.3337 13.6894Z" fill="#615EFF"/>
<path fill-rule="evenodd" clip-rule="evenodd" d="M41.52 27.99L49.006 8.74194H53.3955L60.8815 27.99H56.697L55.0848 23.6786H47.3171L45.7045 27.99H41.52ZM53.805 20.2137C53.2932 18.708 52.8368 17.3608 52.4356 16.1717C52.0349 14.9826 51.6254 13.755 51.2071 12.4889C50.7893 13.755 50.3754 14.9826 49.9659 16.1717C49.5651 17.3608 49.1087 18.708 48.5965 20.2137H53.805ZM62.1486 10.7951C62.1486 10.1791 62.3364 9.68299 62.7117 9.30656C63.087 8.93014 63.5817 8.74194 64.1961 8.74194C64.8102 8.74194 65.3052 8.93014 65.6805 9.30656C66.0558 9.68299 66.2436 10.1791 66.2436 10.7951C66.2436 11.411 66.0558 11.9072 65.6805 12.2836C65.3052 12.66 64.8102 12.8482 64.1961 12.8482C63.5817 12.8482 63.087 12.66 62.7117 12.2836C62.3364 11.9072 62.1486 11.411 62.1486 10.7951ZM62.3532 27.99V15.158H66.0387V27.99H62.3532ZM69.1614 15.158V27.99H72.8466V22.331C72.8466 20.9794 73.1498 19.9399 73.7555 19.2128C74.3612 18.4772 75.1587 18.1093 76.1484 18.1093C76.626 18.1093 77.1123 18.1906 77.6073 18.3532L78.1191 15.158C77.5305 14.9869 76.9587 14.9013 76.4043 14.9013C74.7747 14.9013 73.4952 15.5985 72.5652 16.993V15.158H69.1614ZM79.5267 27.99V8.74194H83.2122V16.4283C83.7498 15.9493 84.3639 15.5772 85.0551 15.3119C85.746 15.0382 86.4925 14.9013 87.2944 14.9013C88.4975 14.9013 89.568 15.1922 90.5064 15.7739C91.4448 16.3471 92.183 17.1384 92.7202 18.1478C93.2579 19.1486 93.5265 20.2907 93.5265 21.574C93.5265 22.8574 93.2579 24.0035 92.7202 25.0131C92.183 26.0139 91.4448 26.8052 90.5064 27.387C89.568 27.9601 88.4975 28.2466 87.2944 28.2466C86.4667 28.2466 85.6947 28.1053 84.9783 27.8232C84.2616 27.5323 83.6344 27.126 83.0972 26.6041L83.0076 27.99H79.5267ZM86.8267 25.0386C87.7651 25.0386 88.5415 24.7094 89.1556 24.0506C89.77 23.3917 90.0769 22.5665 90.0769 21.574C90.0769 20.5816 89.77 19.756 89.1556 19.0975C88.5415 18.4387 87.7651 18.1093 86.8267 18.1093C85.8883 18.1093 85.1119 18.4387 84.4975 19.0975C83.8834 19.756 83.5762 20.5816 83.5762 21.574C83.5762 22.5665 83.8834 23.3917 84.4975 24.0506C85.1119 24.7094 85.8883 25.0386 86.8267 25.0386ZM99.6846 21.4328L96.69 15.158H92.8382L98.8016 27.3483L95.8841 34.406H99.7614L107.721 15.158H103.831L100.376 23.5246C100.29 23.1052 100.188 22.7201 100.069 22.3697C99.9493 22.019 99.8211 21.7065 99.6846 21.4328ZM108.22 15.158H110.332V11.95H114.017V15.158H117.127V18.366H114.017V23.088C114.017 23.6954 114.209 24.1747 114.593 24.5254C114.985 24.8674 115.48 25.0386 116.077 25.0386C116.521 25.0386 116.978 24.9404 117.447 24.7433V27.7717C116.636 28.0885 115.839 28.2466 115.054 28.2466C113.535 28.2466 112.366 27.8403 111.547 27.0275C110.737 26.2062 110.332 25.0342 110.332 23.5114V18.366H108.22V15.158ZM124.114 24.4097C123.5 23.9651 123.077 23.3877 122.847 22.6774H132.829V21.5613C132.829 20.2695 132.539 19.1231 131.958 18.1222C131.378 17.1213 130.585 16.3342 129.578 15.7611C128.58 15.1879 127.437 14.9013 126.149 14.9013C124.852 14.9013 123.692 15.1922 122.668 15.7739C121.653 16.3471 120.851 17.1341 120.262 18.135C119.673 19.1274 119.379 20.2608 119.379 21.5353C119.379 22.8271 119.686 23.9823 120.301 25.0003C120.915 26.0095 121.763 26.8052 122.847 27.387C123.93 27.9601 125.18 28.2466 126.597 28.2466C127.484 28.2466 128.409 28.1013 129.373 27.8104C130.346 27.5195 131.327 26.9848 132.317 26.2062L130.09 23.5374C129.612 23.9907 129.079 24.3626 128.491 24.6535C127.91 24.936 127.176 25.0773 126.289 25.0773C125.462 25.0773 124.737 24.8547 124.114 24.4097ZM128.817 19.96C128.613 19.5056 128.321 19.1194 127.94 18.8022C127.386 18.3403 126.72 18.1093 125.944 18.1093C125.159 18.1093 124.476 18.3446 123.896 18.815C123.507 19.1355 123.209 19.5169 123.002 19.96H128.817Z" fill="#1A194D"/>
</svg>
