<?xml version="1.0" encoding="utf-8"?>
<!-- Generator: Adobe Illustrator 19.0.0, SVG Export Plug-In . SVG Version: 6.00 Build 0)  -->
<svg version="1.1" id="layer" xmlns="http://www.w3.org/2000/svg" xmlns:xlink="http://www.w3.org/1999/xlink" x="0px" y="0px"
	 viewBox="-153 -46 652 652" style="enable-background:new -153 -46 652 652;" xml:space="preserve">
<path d="M-117.9,256.1c0-9.4-4.7-17.1-13.6-23.6h20.6c7.2,5.6,11.7,14.1,11.7,23.6c0,9.5-4.4,18-11.7,23.6
	c6.7,2.8,10.5,9.6,10.5,19.3v18.6h-18.6V299c0-9.3-4.4-15.8-12.4-19.3C-122.6,273.1-117.9,265.4-117.9,256.1z M-77.5,256.1
	c0-9.4-4.7-17.1-13.6-23.6h20.6c7.2,5.6,11.7,14.1,11.7,23.6c0,9.5-4.4,18-11.7,23.6c6.7,2.8,10.5,9.6,10.5,19.3v18.6h-18.6V299
	c0-9.3-4.4-15.8-12.4-19.3C-82.2,273.1-77.5,265.4-77.5,256.1z M-37.1,256.1c0-9.4-4.7-17.1-13.6-23.6h20.6
	c7.2,5.6,11.7,14.1,11.7,23.6c0,9.5-4.4,18-11.7,23.6c6.7,2.8,10.5,9.6,10.5,19.3v18.6h-18.6V299c0-9.3-4.4-15.8-12.4-19.3
	C-41.8,273.1-37.1,265.4-37.1,256.1z M38.4,302.1H24.2v-54.1h34.7c16.7,0,24.9,6.2,24.9,16.3c0,6.9-4,12.1-11.6,14.7
	c7.8,1.2,11.3,5.3,11.3,12.6v10.5H69.3v-9.9c0-6.2-3.1-8.7-11.3-8.7H38.4V302.1z M58.2,255.8H38.4v19.8H58c7.1,0,11.6-3.9,11.6-10.1
	C69.6,259.4,65.5,255.8,58.2,255.8z M108.4,247.9H94.3v54.1h14.1V247.9z M151.8,284.4h-17.2v17.6h-14.1v-54.1h31.7
	c16.7,0,25.5,7,25.5,18.1C177.6,277.6,168.7,284.4,151.8,284.4z M151.5,255.8h-16.9v20.7h16.8c7.3,0,11.8-3.7,11.8-10.4
	C163.1,259.5,158.6,255.8,151.5,255.8z M217.4,284.4h-17.2v17.6H186v-54.1h31.7c16.7,0,25.5,7,25.5,18.1
	C243.2,277.6,234.2,284.4,217.4,284.4z M217.1,255.8h-16.9v20.7h16.8c7.3,0,11.8-3.7,11.8-10.4C228.7,259.5,224.2,255.8,217.1,255.8
	z M265.7,247.9V294H301v8h-49.4v-54.1H265.7z M324,247.9h-14.1v54.1H324V247.9z M345.3,266v36h-9.3v-54.1h10.6l38.5,36v-36h9.3v54.1
	h-10.6L345.3,266z M440.5,254.3c-13.4,0-22.2,8.5-22.2,21.2c0,12.5,8.4,20.3,21.4,20.3h0.9c4.4,0,9.4-0.9,14-2.4v-14.6h-22.8V271
	h36.7v25.4c-7.6,3.9-19.1,7-28.4,7h-1.2c-21.4,0-35.3-11.3-35.3-27.7c0-16.2,14.2-29.2,36.1-29.2h1.2c9.1,0,19.5,2.9,27.2,7.3
	l-4,6.6c-6.9-3.8-15.2-6.2-22.5-6.2H440.5z"/>
</svg>
