<svg version="1.1" id="Layer_1" xmlns="http://www.w3.org/2000/svg" xmlns:xlink="http://www.w3.org/1999/xlink" x="0px" y="0px"
	 width="100%" viewBox="0 0 225 225" enable-background="new 0 0 225 225" xml:space="preserve">
<path fill="#B1C148" opacity="1.000000" stroke="none" 
	d="
M154.000000,226.000000 
	C102.666672,226.000000 51.833340,226.000000 1.000007,226.000000 
	C1.000005,151.000000 1.000005,76.000015 1.000002,1.000017 
	C75.999992,1.000011 150.999985,1.000011 225.999969,1.000006 
	C225.999985,75.999985 225.999985,150.999969 226.000000,225.999969 
	C202.166672,226.000000 178.333328,226.000000 154.000000,226.000000 
M58.235058,163.188553 
	C59.043324,164.025146 59.948803,164.788254 60.645321,165.709335 
	C71.529984,180.103760 87.759216,185.384872 104.044228,188.752487 
	C117.917221,191.621307 132.273117,189.271545 145.708939,183.853394 
	C163.541229,176.662338 176.783783,164.628586 183.441330,146.345306 
	C191.679260,123.721848 181.398956,95.291069 161.511505,81.947418 
	C143.035538,69.550812 106.554993,72.480255 91.479485,88.218758 
	C80.695618,99.476875 76.812714,112.340691 81.272110,127.155334 
	C85.432259,140.975845 95.484978,149.263062 109.441208,151.673813 
	C121.228241,153.709885 133.602783,154.446640 140.904236,141.911530 
	C143.255081,137.875610 143.663086,132.698318 144.904099,128.028351 
	C146.162476,123.293053 144.275864,119.524780 140.984070,116.341194 
	C136.706696,112.204384 125.107567,110.247276 119.708359,112.871292 
	C113.737923,115.772926 111.250229,122.196121 110.881630,129.787079 
	C110.798912,131.490585 110.285835,133.173203 109.970894,134.865433 
	C107.637558,134.371780 104.502647,134.645050 103.140923,133.221802 
	C100.463013,130.422897 97.682632,127.980949 96.558441,123.258354 
	C94.222961,113.447380 97.226852,106.346588 103.787628,99.854233 
	C115.768173,87.998627 140.342133,87.627838 152.121536,96.229492 
	C166.241226,106.540054 174.476562,131.381302 159.312164,149.490173 
	C149.468750,161.244888 137.322266,168.162491 121.693199,170.022263 
	C113.211868,171.031479 105.706078,169.558502 98.034798,167.096512 
	C87.921074,163.850662 80.851723,157.044403 73.781944,149.086548 
	C63.837387,137.892807 61.067635,125.040649 60.172337,111.201569 
	C59.980095,108.229996 61.888512,105.105156 62.905552,102.076538 
	C64.688812,96.766220 65.633934,90.923859 68.497490,86.268456 
	C84.428375,60.369011 112.205307,50.392273 140.830765,54.712936 
	C147.163040,55.668716 153.256439,58.312542 159.405487,60.343601 
	C164.312286,61.964336 169.933517,60.894596 170.885498,57.502945 
	C172.304596,52.447052 167.833923,50.737225 164.701859,49.208454 
	C144.202271,39.202465 122.795464,35.034775 100.293190,41.084972 
	C70.343216,49.137627 49.245605,66.457466 43.282394,98.268829 
	C38.902832,121.632072 42.916279,143.457321 58.235058,163.188553 
z"/>
<path fill="#1F1F1E" opacity="1.000000" stroke="none" 
	d="
M57.956924,162.949905 
	C42.916279,143.457321 38.902832,121.632072 43.282394,98.268829 
	C49.245605,66.457466 70.343216,49.137627 100.293190,41.084972 
	C122.795464,35.034775 144.202271,39.202465 164.701859,49.208454 
	C167.833923,50.737225 172.304596,52.447052 170.885498,57.502945 
	C169.933517,60.894596 164.312286,61.964336 159.405487,60.343601 
	C153.256439,58.312542 147.163040,55.668716 140.830765,54.712936 
	C112.205307,50.392273 84.428375,60.369011 68.497490,86.268456 
	C65.633934,90.923859 64.688812,96.766220 62.905552,102.076538 
	C61.888512,105.105156 59.980095,108.229996 60.172337,111.201569 
	C61.067635,125.040649 63.837387,137.892807 73.781944,149.086548 
	C80.851723,157.044403 87.921074,163.850662 98.034798,167.096512 
	C105.706078,169.558502 113.211868,171.031479 121.693199,170.022263 
	C137.322266,168.162491 149.468750,161.244888 159.312164,149.490173 
	C174.476562,131.381302 166.241226,106.540054 152.121536,96.229492 
	C140.342133,87.627838 115.768173,87.998627 103.787628,99.854233 
	C97.226852,106.346588 94.222961,113.447380 96.558441,123.258354 
	C97.682632,127.980949 100.463013,130.422897 103.140923,133.221802 
	C104.502647,134.645050 107.637558,134.371780 109.970886,134.865433 
	C110.285835,133.173203 110.798912,131.490585 110.881630,129.787079 
	C111.250229,122.196121 113.737923,115.772926 119.708359,112.871292 
	C125.107567,110.247276 136.706696,112.204384 140.984070,116.341194 
	C144.275864,119.524780 146.162476,123.293053 144.904099,128.028351 
	C143.663086,132.698318 143.255081,137.875610 140.904236,141.911530 
	C133.602783,154.446640 121.228241,153.709885 109.441208,151.673813 
	C95.484978,149.263062 85.432259,140.975845 81.272110,127.155334 
	C76.812714,112.340691 80.695618,99.476875 91.479485,88.218758 
	C106.554993,72.480255 143.035538,69.550812 161.511505,81.947418 
	C181.398956,95.291069 191.679260,123.721848 183.441330,146.345306 
	C176.783783,164.628586 163.541229,176.662338 145.708939,183.853394 
	C132.273117,189.271545 117.917221,191.621307 104.044228,188.752487 
	C87.759216,185.384872 71.529984,180.103760 60.645321,165.709335 
	C59.948803,164.788254 59.043324,164.025146 57.956924,162.949905 
z"/>
</svg>