<?xml version="1.0" standalone="no"?>
<!DOCTYPE svg PUBLIC "-//W3C//DTD SVG 20010904//EN"
 "http://www.w3.org/TR/2001/REC-SVG-20010904/DTD/svg10.dtd">
<svg version="1.0" xmlns="http://www.w3.org/2000/svg"
 width="364.000000pt" height="364.000000pt" viewBox="0 0 364.000000 364.000000"
 preserveAspectRatio="xMidYMid meet">

<g transform="translate(0.000000,364.000000) scale(0.100000,-0.100000)"
fill="#000000" stroke="none">
<path d="M0 1820 l0 -1820 1820 0 1820 0 0 1820 0 1820 -1820 0 -1820 0 0
-1820z m1913 1252 l97 -97 -100 -100 -99 -99 -96 94 c-52 52 -95 99 -95 104 0
11 180 196 190 196 3 0 49 -44 103 -98z m-399 -261 c65 -28 121 -52 123 -55 6
-5 -97 -256 -104 -256 -7 0 -246 100 -251 105 -6 5 99 255 107 255 3 0 60 -22
125 -49z m785 -72 c28 -67 51 -125 51 -128 0 -8 -251 -114 -256 -108 -11 10
-104 250 -99 255 8 8 228 100 241 101 7 1 35 -54 63 -120z m-1159 -99 l0 -140
-140 0 -140 0 0 140 0 140 140 0 140 0 0 -140z m1630 0 l0 -140 -140 0 -140 0
0 140 0 140 140 0 140 0 0 -140z m-857 -128 l97 -97 -100 -100 -100 -100 -95
95 c-52 52 -95 98 -95 103 0 9 181 197 190 197 3 0 49 -44 103 -98z m-373
-272 l0 -140 -140 0 -140 0 0 140 0 140 140 0 140 0 0 -140z m830 0 l0 -140
-140 0 -140 0 0 140 0 140 140 0 140 0 0 -140z m-1282 -7 c29 -70 49 -130 45
-133 -22 -19 -245 -102 -252 -94 -18 19 -105 248 -96 251 6 2 62 26 125 53 63
26 117 49 120 49 3 1 29 -56 58 -126z m1641 76 c66 -28 121 -55 121 -60 0 -12
-91 -231 -100 -242 -7 -8 -262 94 -258 103 2 4 25 61 53 128 27 67 53 122 56
122 4 0 61 -23 128 -51z m-1959 -584 c-52 -52 -99 -95 -105 -95 -6 0 -53 43
-105 95 l-95 95 100 100 100 100 100 -100 100 -100 -95 -95z m560 0 c-52 -52
-99 -95 -105 -95 -6 0 -53 43 -105 95 l-95 95 100 100 100 100 100 -100 100
-100 -95 -95z m1180 200 l95 -95 -100 -100 -100 -100 -97 97 -98 98 97 97 c54
54 100 98 103 98 3 0 48 -43 100 -95z m560 0 l95 -95 -100 -100 -100 -100 -97
97 -98 98 97 97 c54 54 100 98 103 98 3 0 48 -43 100 -95z m-2050 -330 c63
-26 117 -49 118 -50 4 -4 -83 -221 -97 -244 -8 -12 -30 -6 -128 34 -65 26
-122 51 -126 55 -12 10 93 262 107 257 6 -3 63 -26 126 -52z m1783 -69 c26
-65 46 -123 44 -130 -5 -11 -245 -112 -251 -105 -1 2 -26 60 -54 129 -45 111
-49 126 -34 133 106 46 229 95 236 93 6 -1 32 -55 59 -120z m-1263 -127 l0
-139 -140 0 -140 0 0 140 0 139 133 3 c72 2 135 2 140 0 4 -2 7 -66 7 -143z
m840 11 l0 -140 -145 0 -146 0 6 136 c3 76 5 139 5 140 0 2 63 4 140 4 l140 0
0 -140z m-463 -72 c51 -51 93 -97 93 -103 0 -6 -43 -53 -95 -105 l-95 -95
-100 100 -100 100 97 97 c54 54 100 98 103 98 2 0 46 -42 97 -92z m-777 -328
l0 -140 -140 0 -140 0 0 133 c0 74 3 137 7 140 3 4 66 7 140 7 l133 0 0 -140z
m455 4 c25 -59 45 -112 45 -118 0 -10 -222 -106 -246 -106 -10 0 -97 197 -106
239 -5 21 244 125 255 106 4 -7 27 -62 52 -121z m628 85 c67 -28 124 -53 126
-55 8 -7 -92 -246 -104 -250 -15 -6 -250 91 -250 103 0 10 98 253 103 253 1 0
57 -23 125 -51z m547 -89 l0 -140 -140 0 -140 0 0 140 0 140 140 0 140 0 0
-140z m-854 -232 c52 -51 94 -97 94 -103 0 -6 -43 -53 -95 -105 l-95 -95 -100
100 -100 100 97 97 c54 54 99 98 101 98 2 0 46 -41 98 -92z"/>
</g>
</svg>
