<svg id="Layer_1" data-name="Layer 1" xmlns="http://www.w3.org/2000/svg" viewBox="0 0 512 512"><defs><style>.cls-1{fill:#fff;}</style></defs><title>pn-icon-transparent-white</title><path class="cls-1" d="M249,366.25l-57.42,5.21a6.37,6.37,0,0,0-5.4,8.55,36.33,36.33,0,0,0,69.67-6.32A6.36,6.36,0,0,0,249,366.25Z"/><path class="cls-1" d="M379.3,171.23a68.84,68.84,0,0,0-121.37-37.94c-9.49-3.16-20.8-4.7-34.21-3.48-57,5.17-64.67,60.39-64.67,60.39L133,322.94a26.28,26.28,0,0,0,2.89,18.62c3.7,6.14,10.7,12,23.93,10.78l17.35-1.58,61.27-5.56,7-.64,7.2-.65,78.61-7.14c13.23-1.2,19.07-8.2,21.6-14.9a26.31,26.31,0,0,0-.51-18.85L329,243.78A68.81,68.81,0,0,0,379.3,171.23Zm-57.77,50.4a45.5,45.5,0,1,1,34.54-48.29A45.55,45.55,0,0,1,321.53,221.63Z"/></svg>