<?xml version="1.0" standalone="no"?>
<!DOCTYPE svg PUBLIC "-//W3C//DTD SVG 1.1//EN" "http://www.w3.org/Graphics/SVG/1.1/DTD/svg11.dtd" >
<svg xmlns="http://www.w3.org/2000/svg" xmlns:xlink="http://www.w3.org/1999/xlink" version="1.1">
<metadata>
Created by FontForge 20201107 at Fri May  5 13:18:59 2017
 By Jimmy Wärting
Copyright (c) 2015 Jonny Pinhorn (jonpinhorn.typedesign@gmail.com)
</metadata>
<defs>
<font id="Shrikhand-Regular" horiz-adv-x="0" >
  <font-face 
    font-family="Shrikhand"
    font-weight="400"
    font-style="italic"
    font-stretch="normal"
    units-per-em="1000"
    panose-1="2 0 0 0 0 0 0 0 0 0"
    ascent="800"
    descent="-200"
    x-height="529"
    cap-height="666"
    bbox="-583 -432 2274 1008"
    underline-thickness="50"
    underline-position="-100"
    slope="-14"
    unicode-range="U+0020-FB02"
  />
<missing-glyph horiz-adv-x="613" 
d="M625 701l-174 -701h-413l174 701h413zM399 60l145 581h-282l-144 -581h281z" />
    <glyph glyph-name="fi" unicode="fi" horiz-adv-x="742" 
d="M365 594q-4 -12 -4 -27q0 -22 9 -36.5t26 -14.5h216q132 0 132 -84q0 -21 -7 -42l-88 -286q-3 -12 -3 -21q0 -13 5 -20.5t14 -14.5q7 -7 10 -11.5t1 -11.5q-5 -13 -20 -19t-46 -6h-228q-26 0 -38 8.5t-8 22.5q4 12 21 21q15 8 25 19t17 35l97 322h-129l-99 -324
q-3 -12 -3 -21q0 -13 5 -20.5t14 -14.5q7 -7 10 -11.5t1 -11.5q-5 -13 -20 -19t-46 -6h-228q-26 0 -38 8.5t-8 22.5q4 12 21 21q15 8 25 19t17 35l78 256q5 15 5 31q0 20 -8.5 31.5t-25.5 25.5q-11 9 -16.5 15.5t-5.5 15.5q-1 19 13.5 27t55.5 8h26q-5 19 -5 46q0 30 8 56
q40 121 237 121q60 0 116 -17.5t119 -54.5q13 40 43 63t66 23q45 0 70 -27.5t25 -65.5q0 -15 -5 -32q-12 -38 -41.5 -59t-70.5 -21q-27 0 -55 12.5t-73 37.5q-45 26 -76 39.5t-61 13.5q-55 0 -72 -57z" />
    <glyph glyph-name="fl" unicode="fl" horiz-adv-x="746" 
d="M648 104q-3 -12 -3 -21q0 -13 5 -20.5t14 -14.5q7 -7 10 -11.5t1 -11.5q-5 -13 -20 -19t-46 -6h-228q-26 0 -38 8.5t-8 22.5q4 12 21 21q15 8 25 19t17 35l98 322h-129l-99 -324q-3 -12 -3 -21q0 -13 5 -20.5t14 -14.5q7 -7 10 -11.5t1 -11.5q-5 -13 -20 -19t-46 -6h-228
q-26 0 -38 8.5t-8 22.5q4 12 21 21q15 8 25 19t17 35l78 256q5 15 5 31q0 20 -8.5 31.5t-25.5 25.5q-11 9 -16.5 15.5t-5.5 15.5q-1 19 13.5 27t55.5 8h27q-9 26 -9 52q0 29 9 50q21 56 78 88.5t151 32.5q88 0 164 -37q24 16 71.5 26.5t93.5 10.5q58 0 85.5 -22t27.5 -60
q0 -22 -7 -43zM523 516l23 76q-65 46 -114 46q-54 0 -69 -44q-4 -12 -4 -28q0 -21 9.5 -35.5t25.5 -14.5h129z" />
    <glyph glyph-name="f_f" unicode="ff" horiz-adv-x="797" 
d="M949.5 706.5q53.5 -32.5 53.5 -79.5q0 -38 -31.5 -58.5t-82.5 -20.5q-47 0 -73 23t-26 57q0 21 13 44q-30 0 -50 -14.5t-31 -49.5q-6 -22 -6 -41q0 -24 8.5 -37.5t24.5 -13.5h89q52 0 52 -32q0 -4 -2 -12q-6 -22 -24.5 -33t-55.5 -11h-60l-99 -324q-3 -12 -3 -21
q0 -13 5 -20.5t14 -14.5q7 -7 10 -11.5t1 -11.5q-5 -13 -20 -19t-46 -6h-228q-26 0 -38 8.5t-8 22.5q4 12 21 21q15 8 25 19t17 35l98 322h-130l-99 -324q-3 -12 -3 -21q0 -13 5 -20.5t14 -14.5q7 -7 10 -11.5t1 -11.5q-5 -13 -20 -19t-46 -6h-228q-26 0 -38 8.5t-8 22.5
q4 12 21 21q15 8 25 19t17 35l78 256q5 15 5 31q0 20 -8.5 31.5t-25.5 25.5q-11 9 -16.5 15.5t-5.5 15.5q-1 19 13.5 27t55.5 8h27q-9 26 -9 52q0 29 9 50q21 56 78 88.5t151 32.5q109 0 199 -57q71 57 220 57q107 0 160.5 -32.5zM524 516q-10 27 -10 55q0 19 5 39
q-47 28 -87 28q-54 0 -69 -44q-4 -12 -4 -28q0 -21 9.5 -35.5t25.5 -14.5h130z" />
    <glyph glyph-name="f_f_i" unicode="ffi" horiz-adv-x="1123" 
d="M1175 725.5q25 -27.5 25 -65.5q0 -15 -5 -32q-12 -38 -41.5 -59t-70.5 -21q-28 0 -58.5 11.5t-77.5 34.5q-45 22 -74 33t-55 11q-28 0 -46.5 -10.5t-26.5 -39.5q-4 -12 -4 -26q0 -20 9.5 -33t26.5 -13h216q132 0 132 -84q0 -21 -7 -42l-88 -286q-3 -12 -3 -21
q0 -13 5 -20.5t14 -14.5q7 -7 10 -11.5t1 -11.5q-5 -13 -20 -19t-46 -6h-228q-26 0 -38 8.5t-8 22.5q4 12 21 21q15 8 25 19t17 35l97 322h-129l-99 -324q-3 -12 -3 -21q0 -13 5 -20.5t14 -14.5q7 -7 10 -11.5t1 -11.5q-5 -13 -20 -19t-46 -6h-228q-26 0 -38 8.5t-8 22.5
q4 12 21 21q15 8 25 19t17 35l98 322h-130l-99 -324q-3 -12 -3 -21q0 -13 5 -20.5t14 -14.5q7 -7 10 -11.5t1 -11.5q-5 -13 -20 -19t-46 -6h-228q-26 0 -38 8.5t-8 22.5q4 12 21 21q15 8 25 19t17 35l78 256q5 15 5 31q0 20 -8.5 31.5t-25.5 25.5q-11 9 -16.5 15.5
t-5.5 15.5q-1 19 13.5 27t55.5 8h27q-9 26 -9 52q0 29 9 50q21 56 78 88.5t151 32.5q108 0 199 -56q65 56 182 56q67 0 124 -17t121 -55q13 40 43 63t66 23q45 0 70 -27.5zM524 516q-10 27 -10 55q0 19 5 39q-47 28 -87 28q-54 0 -69 -44q-4 -12 -4 -28q0 -21 9.5 -35.5
t25.5 -14.5h130z" />
    <glyph glyph-name="f_f_l" unicode="ffl" horiz-adv-x="1127" 
d="M1029 104q-3 -12 -3 -21q0 -13 5 -20.5t14 -14.5q7 -7 10 -11.5t1 -11.5q-5 -13 -20 -19t-46 -6h-228q-26 0 -38 8.5t-8 22.5q4 12 21 21q15 8 25 19t17 35l98 322h-129l-99 -324q-3 -12 -3 -21q0 -13 5 -20.5t14 -14.5q7 -7 10 -11.5t1 -11.5q-5 -13 -20 -19t-46 -6
h-228q-26 0 -38 8.5t-8 22.5q4 12 21 21q15 8 25 19t17 35l97 322h-129l-99 -324q-3 -12 -3 -21q0 -13 5 -20.5t14 -14.5q7 -7 10 -11.5t1 -11.5q-5 -13 -20 -19t-46 -6h-228q-26 0 -38 8.5t-8 22.5q4 12 21 21q15 8 25 19t17 35l78 256q5 15 5 31q0 20 -8.5 31.5
t-25.5 25.5q-11 9 -16.5 15.5t-5.5 15.5q-1 19 13.5 27t55.5 8h27q-9 26 -9 52q0 29 9 50q21 56 78 88.5t151 32.5q107 0 197 -55q63 55 184 55q88 0 164 -37q24 16 71.5 26.5t93.5 10.5q58 0 85.5 -22t27.5 -60q0 -22 -7 -43zM522 516q-9 26 -9 53q0 23 6 41q-47 28 -87 28
q-54 0 -69 -44q-4 -12 -4 -28q0 -21 9.5 -35.5t25.5 -14.5h128zM904 516l23 76q-65 46 -114 46q-54 0 -69 -44q-4 -12 -4 -28q0 -21 9.5 -35.5t25.5 -14.5h129z" />
    <glyph glyph-name=".notdef" horiz-adv-x="613" 
d="M625 701l-174 -701h-413l174 701h413zM399 60l145 581h-282l-144 -581h281z" />
    <glyph glyph-name="space" unicode=" " horiz-adv-x="200" 
 />
    <glyph glyph-name="gjA" unicode="&#xa85;" horiz-adv-x="990" 
d="M904 169q-2 -10 -2 -13q0 -18 17 -18q9 0 14.5 4t12 12.5t10.5 8.5q6 0 10 -8.5t4 -18.5q0 -32 -22.5 -64.5t-62.5 -53.5t-89 -21q-83 0 -122.5 39.5t-39.5 100.5q0 33 15 87q-30 8 -44 14q-30 -80 -95.5 -124t-142.5 -44q-76 0 -129 39t-70 105q-48 0 -83 14.5t-53.5 38
t-18.5 51.5q0 32 17.5 46.5t41.5 14.5q15 0 28 -5t29 -15q28 21 42.5 43.5t14.5 38.5q0 12 -6.5 19t-18.5 7q-13 0 -26 -8t-17 -8q-11 0 -11 17q0 11 4 23q18 59 71 98t126 39t112 -41t39 -105q0 -20 -7 -52q-16 -62 -61 -112t-115 -70q28 -14 63 -14q42 0 84 19.5t76 55.5
q-23 33 -23 73q0 15 5 33q8 26 25 39t41 13q31 0 55.5 -29.5t24.5 -85.5q0 -13 -1 -20q27 2 43 11t26 30l53 169q13 39 75 60.5t127 21.5q44 0 59.5 -13.5t15.5 -35.5q0 -11 -5 -33z" />
    <glyph glyph-name="gjAA" unicode="&#xa86;" horiz-adv-x="1359" 
d="M904 169q-2 -10 -2 -13q0 -18 17 -18q9 0 14.5 4t12 12.5t10.5 8.5q6 0 10 -8.5t4 -18.5q0 -32 -22.5 -64.5t-62.5 -53.5t-89 -21q-83 0 -122.5 39.5t-39.5 100.5q0 33 15 87q-30 8 -44 14q-30 -80 -95.5 -124t-142.5 -44q-76 0 -129 39t-70 105q-48 0 -83 14.5t-53.5 38
t-18.5 51.5q0 32 17.5 46.5t41.5 14.5q15 0 28 -5t29 -15q28 21 42.5 43.5t14.5 38.5q0 12 -6.5 19t-18.5 7q-13 0 -26 -8t-17 -8q-11 0 -11 17q0 11 4 23q18 59 71 98t126 39t112 -41t39 -105q0 -20 -7 -52q-16 -62 -61 -112t-115 -70q28 -14 63 -14q42 0 84 19.5t76 55.5
q-23 33 -23 73q0 15 5 33q8 26 25 39t41 13q31 0 55.5 -29.5t24.5 -85.5q0 -13 -1 -20q27 2 43 11t26 30l53 169q13 39 75 60.5t127 21.5q44 0 59.5 -13.5t15.5 -35.5q0 -11 -5 -33zM1379 610.5q15 -13.5 15 -35.5q0 -11 -5 -33l-114 -373q-3 -7 -3 -14q0 -8 4.5 -12.5
t12.5 -4.5t13.5 4t12.5 12.5t11 8.5q6 0 9.5 -8t3.5 -19q0 -32 -22 -64.5t-61.5 -53.5t-89.5 -21q-82 0 -121.5 39.5t-39.5 100.5q0 52 30 142l83 263q12 39 74.5 60.5t127.5 21.5q44 0 59 -13.5z" />
    <glyph glyph-name="gjI" unicode="&#xa87;" horiz-adv-x="636" 
d="M668.5 703q25.5 -36 25.5 -81q0 -19 -4 -32q-8 -33 -40 -33h-46q-12 0 -16 -4.5t-4 -19.5q0 -18 7 -72q13 -102 13 -163q0 -67 -13 -107q-27 -88 -101 -139.5t-197 -51.5q-83 0 -145.5 25t-96.5 69.5t-34 100.5q0 29 9 59q12 40 44.5 71t75.5 47q-34 34 -34 84q0 21 6 43
q19 62 72.5 97.5t129.5 35.5q66 0 107.5 -29t41.5 -74q0 -12 -5 -29q-4 -15 -15.5 -24.5t-24.5 -9.5q-5 0 -8 3t-5 13q-6 32 -26 32q-23 0 -31 -28q-3 -10 -3 -18q0 -23 15.5 -39t43.5 -35q19 -13 27 -20.5t5 -16.5t-15.5 -15t-56.5 -18q-49 -13 -70 -29t-28 -37
q-3 -10 -3 -20q0 -25 20.5 -40.5t62.5 -15.5q111 0 150 127q14 47 14 119q0 25 -2 75q-2 48 -2 70q0 67 14 105q24 61 77 61q40 0 65.5 -36z" />
    <glyph glyph-name="gjII" unicode="&#xa88;" horiz-adv-x="719" 
d="M734 699q33 -40 33 -95q0 -23 -8 -50q-8 -25 -23.5 -44t-32.5 -29.5t-27 -10.5q-7 0 -11 8.5t-8 24.5q-5 22 -11 33t-19 11q-19 0 -27 -25q-4 -12 -4 -34q0 -27 7 -81q10 -76 10 -123q0 -54 -12 -93q-27 -87 -105.5 -139t-202.5 -52q-83 0 -145.5 25t-96.5 69.5
t-34 100.5q0 29 9 59q13 41 43.5 71t76.5 47q-34 34 -34 84q0 21 6 43q19 62 72.5 97.5t129.5 35.5q66 0 107.5 -29t41.5 -74q0 -12 -5 -29q-4 -15 -15.5 -24.5t-24.5 -9.5q-5 0 -8 3t-5 13q-6 32 -26 32q-23 0 -31 -28q-3 -10 -3 -18q0 -23 15.5 -39t43.5 -35
q19 -13 27 -20.5t5 -16.5t-15.5 -15t-56.5 -18q-49 -13 -70 -29t-28 -37q-3 -10 -3 -20q0 -25 20.5 -40.5t62.5 -15.5q111 0 150 127q13 42 16 86.5t3 108.5q0 48 2.5 81t9.5 58q15 48 44.5 72t69.5 24q54 0 87 -40z" />
    <glyph glyph-name="gjU" unicode="&#xa89;" horiz-adv-x="695" 
d="M690 908.5q48 -22.5 72.5 -60.5t24.5 -85q0 -31 -10 -61q-10 -32 -28.5 -53t-34.5 -21q-6 0 -16 5.5t-21 12.5q-39 25 -80.5 41.5t-101.5 16.5q-72 0 -137 -31.5t-112.5 -85.5t-67.5 -119q-15 -48 -15 -95q0 -74 35.5 -122.5t95.5 -48.5q39 0 59 15.5t20 43.5
q0 18 -13 32.5t-43 28.5q-26 12 -36 23t-6 23q2 7 13 12.5t33 13.5q33 12 54 23t32 29q9 15 9 29q0 13 -7 21t-18 8t-18.5 -5.5t-16.5 -15.5q-8 -9 -13 -13t-12 -4t-11.5 5.5t-4.5 15.5t5 25q18 55 65 87.5t111 32.5q73 0 115.5 -37.5t42.5 -95.5q0 -23 -8 -50
q-22 -70 -93 -106q31 -24 48 -58.5t17 -75.5q0 -32 -10 -63q-22 -67 -84.5 -106.5t-144.5 -39.5q-99 0 -169.5 49t-106.5 132.5t-36 185.5q0 89 29 184q35 114 111.5 200.5t173.5 133t192 46.5q69 0 117 -22.5z" />
    <glyph glyph-name="gjUU" unicode="&#xa8a;" horiz-adv-x="1041" 
d="M958 169q-3 -7 -3 -14q0 -17 15 -17q9 0 15 4.5t13 12.5t11 8q6 0 9 -8t3 -19q0 -32 -22 -64.5t-61.5 -53.5t-88.5 -21q-83 0 -122 39.5t-39 100.5q0 26 7 58.5t22 83.5l58 182q12 36 12 71q0 53 -27 95t-82 66t-135 24q-108 0 -185.5 -40t-122.5 -102t-62 -131
q-10 -37 -10 -78q0 -70 33.5 -117t97.5 -47q39 0 59 15.5t20 43.5q0 18 -13 32.5t-43 28.5q-26 12 -36 23t-6 23q2 7 13 12.5t33 13.5q33 12 54 23t32 29q9 15 9 29q0 13 -7 21t-18 8t-18.5 -5.5t-16.5 -15.5q-8 -9 -13 -13t-12 -4t-11.5 5.5t-4.5 15.5t5 25q18 55 65 87.5
t111 32.5q73 0 115.5 -37.5t42.5 -95.5q0 -23 -8 -50q-22 -70 -93 -106q31 -24 48 -58.5t17 -75.5q0 -32 -10 -63q-22 -67 -84.5 -108t-144.5 -41q-97 0 -168 49t-108.5 133t-37.5 187q0 71 20 149q27 102 93.5 185.5t177.5 133.5t261 50q130 0 230 -41t155.5 -116
t55.5 -173q0 -53 -18 -113z" />
    <glyph glyph-name="gjvR" unicode="&#xa8b;" horiz-adv-x="1148" 
d="M1126.5 372q-48.5 -44 -152.5 -59q100 -47 100 -116q0 -44 -39 -74.5t-114 -30.5t-128 25t-79.5 61.5t-26.5 67.5q0 11 4.5 18.5t9.5 7.5q8 0 30 -11t40 -17t41 -6q26 0 40 13.5t14 33.5q0 12 -6 22q-88 2 -183 18l-48 -156q-2 -5 -2 -13t4.5 -13t11.5 -5q9 0 14.5 4.5
t12 12.5t9.5 8q7 0 11 -8t4 -19q0 -32 -22.5 -64.5t-62 -53.5t-89.5 -21q-82 0 -121 39.5t-39 100.5q0 52 30 142l4 12q-52 -66 -85.5 -101t-60.5 -50t-55 -15q-34 0 -73 23.5t-65 60t-26 73.5q0 23 15 33t39 12.5t71 3.5q70 0 121 6t100 30q-51 72 -107 72q-18 0 -33.5 -6
t-33.5 -16q-3 -1 -12.5 -6t-17.5 -7.5t-15 -2.5q-12 0 -31.5 14.5t-33.5 38.5t-14 52q0 35 24 64t60 46t69 17q69 0 111.5 -38.5t67.5 -119.5l21 -68l42 135q12 39 75 60.5t127 21.5q45 0 60 -13.5t15 -35.5q0 -11 -5 -33l-42 -137q58 -10 100 -9q-18 18 -30 40.5t-12 45.5
q0 68 52 109.5t143 41.5q59 0 109.5 -21.5t80.5 -58t30 -81.5q0 -56 -48.5 -100zM859 447q0 -20 12 -40q40 15 50 48q2 10 2 14q0 13 -7.5 20.5t-19.5 7.5q-14 0 -23 -9.5t-12 -23.5q-2 -10 -2 -17z" />
    <glyph glyph-name="gjvRR" unicode="&#xae0;" horiz-adv-x="1148" 
d="M862 273q0 -15 17 -25t46 -10q42 0 92 25l15 6t15 4q9 0 9 -18q0 -43 -23 -80.5t-66 -60t-99 -22.5q-74 0 -116.5 33t-42.5 85q0 30 16.5 56.5t44.5 45.5q-50 5 -93 13l-48 -156q-2 -5 -2 -13t4.5 -13t11.5 -5q9 0 14.5 4.5t12 12.5t9.5 8q7 0 11 -8t4 -19
q0 -32 -22.5 -64.5t-62 -53.5t-89.5 -21q-82 0 -121 39.5t-39 100.5q0 52 30 142l4 12q-52 -66 -85.5 -101t-60.5 -50t-55 -15q-34 0 -73 23.5t-65 60t-26 73.5q0 23 15 33t39 12.5t71 3.5q70 0 121 6t100 30q-51 72 -107 72q-18 0 -33.5 -6t-33.5 -16q-3 -1 -12.5 -6
t-17.5 -7.5t-15 -2.5q-12 0 -31.5 14.5t-33.5 38.5t-14 52q0 35 24 64t60 46t69 17q69 0 111.5 -38.5t67.5 -119.5l21 -68l42 135q12 39 75 60.5t127 21.5q45 0 60 -13.5t15 -35.5q0 -11 -5 -33l-42 -137q58 -10 100 -9q-18 18 -30 40.5t-12 45.5q0 68 52 109.5t143 41.5
q59 0 109.5 -21.5t80.5 -58t30 -81.5q0 -42 -27.5 -78.5t-89.5 -60.5t-160 -26q-36 -6 -36 -34zM859 447q0 -20 12 -40q40 15 50 48q2 10 2 14q0 13 -7.5 20.5t-19.5 7.5q-14 0 -23 -9.5t-12 -23.5q-2 -10 -2 -17z" />
    <glyph glyph-name="gjvL" unicode="&#xa8c;" horiz-adv-x="900" 
d="M893 431.5q15 -23.5 15 -51.5q0 -11 -3 -23q-7 -32 -27.5 -58.5t-55.5 -61.5q-28 -28 -40.5 -44t-12.5 -32q0 -14 9 -22.5t27 -8.5q6 0 15.5 2t15.5 2q10 0 10 -11q0 -28 -28.5 -58t-79 -49.5t-112.5 -19.5q-78 0 -117.5 30.5t-42.5 81.5q0 24 4 37q9 31 28.5 56t52.5 58
q28 28 41 45.5t13 34.5q0 13 -9 20.5t-25 7.5t-30.5 -8t-33.5 -23q-21 -16 -33 -22.5t-26 -6.5q-13 0 -24 7.5t-25 22.5q-18 18 -31.5 27t-32.5 9q-23 0 -39.5 -10.5t-21.5 -32.5q-1 -3 -1 -10q0 -21 18 -37.5t46 -16.5q14 0 24 4t12 5q16 7 26 7q11 0 11 -18q0 -33 -23 -72
t-69 -67t-110 -28q-51 0 -94 21t-68 60t-25 91q0 35 12 72q29 86 97 132.5t146 46.5q69 0 120.5 -21.5t87.5 -78.5q69 55 163 67l7 58q5 40 47.5 60t103.5 20q58 0 88 -15.5t30 -39.5q0 -18 -8 -33t-27 -30l-42 -37q32 -15 47 -38.5z" />
    <glyph glyph-name="gjvLL" unicode="&#xae1;" horiz-adv-x="889" 
d="M915 537q-8 -15 -27 -30l-56 -48q31 -19 47.5 -47t16.5 -61q0 -20 -8 -46q-16 -50 -57.5 -76t-131.5 -49q-48 -10 -64.5 -18.5t-21.5 -23.5q-2 -8 -2 -10q0 -12 11.5 -18.5t32.5 -6.5h16q61 0 61 -31q0 -3 -2 -11q-4 -22 -21 -33t-53 -11h-30q-41 0 -50 -29q-2 -8 -2 -11
q0 -17 15.5 -27t44.5 -10q30 0 53 6.5t48 17.5q4 2 12.5 5t12.5 3q13 0 13 -18t-14 -51q-24 -53 -72.5 -85t-120.5 -32q-53 0 -91 18.5t-57.5 50t-19.5 68.5q0 22 8 48q9 29 30 50t51 31q-30 29 -30 72q0 17 5 35q7 24 24.5 43t47.5 43q27 22 42 37.5t22 34.5q2 6 2 17
q0 15 -8.5 24t-24.5 9q-15 0 -28.5 -7.5t-30.5 -22.5q-19 -15 -32 -22.5t-28 -7.5q-13 0 -24 7.5t-25 22.5q-18 18 -31.5 27t-32.5 9q-23 0 -39.5 -10.5t-21.5 -32.5q-1 -3 -1 -10q0 -21 18 -37.5t46 -16.5q14 0 24 4t12 5q16 7 26 7q11 0 11 -18q0 -33 -23 -72t-69 -67
t-110 -28q-51 0 -94 21t-68 60t-25 91q0 35 12 72q29 86 97 132.5t146 46.5q70 0 121.5 -24.5t87.5 -75.5q74 59 162 69l7 56q5 40 47.5 60t103.5 20q58 0 88 -15.5t30 -39.5q0 -18 -8 -33z" />
    <glyph glyph-name="gjE" unicode="&#xa8f;" horiz-adv-x="990" 
d="M904 169q-2 -10 -2 -13q0 -18 17 -18q9 0 14.5 4t12 12.5t10.5 8.5q6 0 10 -8.5t4 -18.5q0 -32 -22.5 -64.5t-62.5 -53.5t-89 -21q-83 0 -122.5 39.5t-39.5 100.5q0 33 15 87q-30 8 -44 14q-30 -80 -95.5 -124t-142.5 -44q-76 0 -129 39t-70 105q-48 0 -83 14.5t-53.5 38
t-18.5 51.5q0 32 17.5 46.5t41.5 14.5q15 0 28 -5t29 -15q28 21 42.5 43.5t14.5 38.5q0 12 -6.5 19t-18.5 7q-13 0 -26 -8t-17 -8q-11 0 -11 17q0 11 4 23q18 59 71 98t126 39t112 -41t39 -105q0 -20 -7 -52q-16 -62 -61 -112t-115 -70q28 -14 63 -14q42 0 84 19.5t76 55.5
q-23 33 -23 73q0 15 5 33q8 26 25 39t41 13q31 0 55.5 -29.5t24.5 -85.5q0 -13 -1 -20q27 2 43 11t26 30l53 169q13 39 75 60.5t127 21.5q44 0 59.5 -13.5t15.5 -35.5q0 -11 -5 -33zM996 699q8 -12 8 -24t-8.5 -18.5t-21.5 -6.5q-52 0 -117.5 25.5t-111 70t-45.5 97.5
q0 40 23 64t61 24q39 0 69 -23t61 -74z" />
    <glyph glyph-name="gjAI" unicode="&#xa90;" horiz-adv-x="990" 
d="M904 169q-2 -10 -2 -13q0 -18 17 -18q9 0 14.5 4t12 12.5t10.5 8.5q6 0 10 -8.5t4 -18.5q0 -32 -22.5 -64.5t-62.5 -53.5t-89 -21q-83 0 -122.5 39.5t-39.5 100.5q0 33 15 87q-30 8 -44 14q-30 -80 -95.5 -124t-142.5 -44q-76 0 -129 39t-70 105q-48 0 -83 14.5t-53.5 38
t-18.5 51.5q0 32 17.5 46.5t41.5 14.5q15 0 28 -5t29 -15q28 21 42.5 43.5t14.5 38.5q0 12 -6.5 19t-18.5 7q-13 0 -26 -8t-17 -8q-11 0 -11 17q0 11 4 23q18 59 71 98t126 39t112 -41t39 -105q0 -20 -7 -52q-16 -62 -61 -112t-115 -70q28 -14 63 -14q42 0 84 19.5t76 55.5
q-23 33 -23 73q0 15 5 33q8 26 25 39t41 13q31 0 55.5 -29.5t24.5 -85.5q0 -13 -1 -20q27 2 43 11t26 30l53 169q13 39 75 60.5t127 21.5q44 0 59.5 -13.5t15.5 -35.5q0 -11 -5 -33zM1064 900.5q23 -30.5 23 -90.5q0 -45 -11.5 -81t-29.5 -56t-36 -20q-54 0 -129 18
t-130.5 54.5t-55.5 90.5q0 33 19 51.5t52 18.5q20 0 38.5 -9t46.5 -33t79 -74l55 -53q-27 40 -38 70t-11 57q0 39 20 63t51 24q34 0 57 -30.5z" />
    <glyph glyph-name="gjO" unicode="&#xa93;" horiz-adv-x="1360" 
d="M1228.5 677.5q-65.5 27.5 -112 73t-46.5 94.5q0 18 7 35q20 51 77 51q40 0 70 -22t61 -75l86 -141q6 -10 6 -18q0 -11 -9 -18t-22 -7q-52 0 -117.5 27.5zM966 154.5q4 -8.5 4 -18.5q0 -32 -22.5 -64.5t-62.5 -53.5t-89 -21q-83 0 -122.5 39.5t-39.5 100.5q0 33 15 87
q-30 8 -44 14q-30 -80 -95.5 -124t-142.5 -44q-76 0 -129 39t-70 105q-48 0 -83 14.5t-53.5 38t-18.5 51.5q0 32 17.5 46.5t41.5 14.5q15 0 28 -5t29 -15q28 21 42.5 43.5t14.5 38.5q0 12 -6.5 19t-18.5 7q-13 0 -26 -8t-17 -8q-11 0 -11 17q0 11 4 23q18 59 71 98t126 39
t112 -41t39 -105q0 -20 -7 -52q-16 -62 -61 -112t-115 -70q28 -14 63 -14q42 0 84 19.5t76 55.5q-23 33 -23 73q0 15 5 33q8 26 25 39t41 13q31 0 55.5 -29.5t24.5 -85.5q0 -13 -1 -20q27 2 43 11t26 30l53 169q13 39 75 60.5t127 21.5q44 0 59.5 -13.5t15.5 -35.5
q0 -11 -5 -33l-116 -373q-2 -10 -2 -13q0 -18 17 -18q9 0 14.5 4t12 12.5t10.5 8.5q6 0 10 -8.5zM1276 169q-3 -7 -3 -14q0 -8 4.5 -12.5t12.5 -4.5t13.5 4t12.5 12.5t11 8.5q6 0 9.5 -8t3.5 -19q0 -32 -22 -64.5t-61.5 -53.5t-89.5 -21q-82 0 -121.5 39.5t-39.5 100.5
q0 52 30 142l83 263q12 39 74.5 60.5t127.5 21.5q44 0 59 -13.5t15 -35.5q0 -11 -5 -33z" />
    <glyph glyph-name="gjAU" unicode="&#xa94;" horiz-adv-x="1360" 
d="M1436 900.5q23 -30.5 23 -90.5q0 -45 -11.5 -81t-29.5 -56t-36 -20q-54 0 -129 18t-130.5 54.5t-55.5 90.5q0 33 19 51.5t52 18.5q20 0 38.5 -9t46.5 -33t79 -74l55 -53q-27 40 -38 70t-11 57q0 39 20 63t51 24q34 0 57 -30.5zM966 154.5q4 -8.5 4 -18.5
q0 -32 -22.5 -64.5t-62.5 -53.5t-89 -21q-83 0 -122.5 39.5t-39.5 100.5q0 33 15 87q-30 8 -44 14q-30 -80 -95.5 -124t-142.5 -44q-76 0 -129 39t-70 105q-48 0 -83 14.5t-53.5 38t-18.5 51.5q0 32 17.5 46.5t41.5 14.5q15 0 28 -5t29 -15q28 21 42.5 43.5t14.5 38.5
q0 12 -6.5 19t-18.5 7q-13 0 -26 -8t-17 -8q-11 0 -11 17q0 11 4 23q18 59 71 98t126 39t112 -41t39 -105q0 -20 -7 -52q-16 -62 -61 -112t-115 -70q28 -14 63 -14q42 0 84 19.5t76 55.5q-23 33 -23 73q0 15 5 33q8 26 25 39t41 13q31 0 55.5 -29.5t24.5 -85.5q0 -13 -1 -20
q27 2 43 11t26 30l53 169q13 39 75 60.5t127 21.5q44 0 59.5 -13.5t15.5 -35.5q0 -11 -5 -33l-116 -373q-2 -10 -2 -13q0 -18 17 -18q9 0 14.5 4t12 12.5t10.5 8.5q6 0 10 -8.5zM1380 610.5q15 -13.5 15 -35.5q0 -11 -5 -33l-114 -373q-3 -7 -3 -14q0 -8 4.5 -12.5
t12.5 -4.5t13.5 4t12.5 12.5t11 8.5q6 0 9.5 -8t3.5 -19q0 -32 -22 -64.5t-61.5 -53.5t-89.5 -21q-82 0 -121.5 39.5t-39.5 100.5q0 52 30 142l83 263q12 39 74.5 60.5t127.5 21.5q44 0 59 -13.5z" />
    <glyph glyph-name="gjEcandra" unicode="&#xa8d;" horiz-adv-x="989" 
d="M904 169q-2 -10 -2 -13q0 -18 17 -18q9 0 14.5 4t12 12.5t10.5 8.5q6 0 10 -8.5t4 -18.5q0 -32 -22.5 -64.5t-62.5 -53.5t-89 -21q-83 0 -122.5 39.5t-39.5 100.5q0 33 15 87q-30 8 -44 14q-30 -80 -95.5 -124t-142.5 -44q-76 0 -129 39t-70 105q-48 0 -83 14.5t-53.5 38
t-18.5 51.5q0 32 17.5 46.5t41.5 14.5q15 0 28 -5t29 -15q28 21 42.5 43.5t14.5 38.5q0 12 -6.5 19t-18.5 7q-13 0 -26 -8t-17 -8q-11 0 -11 17q0 11 4 23q18 59 71 98t126 39t112 -41t39 -105q0 -20 -7 -52q-16 -62 -61 -112t-115 -70q28 -14 63 -14q42 0 84 19.5t76 55.5
q-23 33 -23 73q0 15 5 33q8 26 25 39t41 13q31 0 55.5 -29.5t24.5 -85.5q0 -13 -1 -20q27 2 43 11t26 30l53 169q13 39 75 60.5t127 21.5q44 0 59.5 -13.5t15.5 -35.5q0 -11 -5 -33zM838.5 691.5q-55.5 32.5 -88.5 78.5t-33 80q0 10 2 15q6 17 21 17q10 0 22.5 -9.5
t30.5 -27.5q29 -28 52 -43.5t49 -15.5q21 0 37.5 10.5t41.5 33.5q24 22 40 32.5t37 10.5q28 0 48 -22t20 -56q0 -19 -7 -39q-16 -45 -58.5 -71t-93.5 -26q-65 0 -120.5 32.5z" />
    <glyph glyph-name="gjOcandra" unicode="&#xa91;" horiz-adv-x="1359" 
d="M904 169q-2 -10 -2 -13q0 -18 17 -18q9 0 14.5 4t12 12.5t10.5 8.5q6 0 10 -8.5t4 -18.5q0 -32 -22.5 -64.5t-62.5 -53.5t-89 -21q-83 0 -122.5 39.5t-39.5 100.5q0 33 15 87q-30 8 -44 14q-30 -80 -95.5 -124t-142.5 -44q-76 0 -129 39t-70 105q-48 0 -83 14.5t-53.5 38
t-18.5 51.5q0 32 17.5 46.5t41.5 14.5q15 0 28 -5t29 -15q28 21 42.5 43.5t14.5 38.5q0 12 -6.5 19t-18.5 7q-13 0 -26 -8t-17 -8q-11 0 -11 17q0 11 4 23q18 59 71 98t126 39t112 -41t39 -105q0 -20 -7 -52q-16 -62 -61 -112t-115 -70q28 -14 63 -14q42 0 84 19.5t76 55.5
q-23 33 -23 73q0 15 5 33q8 26 25 39t41 13q31 0 55.5 -29.5t24.5 -85.5q0 -13 -1 -20q27 2 43 11t26 30l53 169q13 39 75 60.5t127 21.5q44 0 59.5 -13.5t15.5 -35.5q0 -11 -5 -33zM1208.5 691.5q-55.5 32.5 -88.5 78.5t-33 80q0 10 2 15q6 17 21 17q10 0 22.5 -9.5
t30.5 -27.5q29 -28 52 -43.5t49 -15.5q21 0 37.5 10.5t41.5 33.5q24 22 40 32.5t37 10.5q28 0 48 -22t20 -56q0 -19 -7 -39q-16 -45 -58.5 -71t-93.5 -26q-65 0 -120.5 32.5zM1379 610.5q15 -13.5 15 -35.5q0 -11 -5 -33l-114 -373q-3 -7 -3 -14q0 -8 4.5 -12.5t12.5 -4.5
t13.5 4t12.5 12.5t11 8.5q6 0 9.5 -8t3.5 -19q0 -32 -22 -64.5t-61.5 -53.5t-89.5 -21q-82 0 -121.5 39.5t-39.5 100.5q0 52 30 142l83 263q12 39 74.5 60.5t127.5 21.5q44 0 59 -13.5z" />
    <glyph glyph-name="gjmAA" unicode="&#xabe;" horiz-adv-x="380" 
d="M400 610.5q15 -13.5 15 -35.5q0 -11 -5 -33l-114 -373q-3 -7 -3 -14q0 -8 4.5 -12.5t12.5 -4.5t13.5 4t12.5 12.5t11 8.5q6 0 9.5 -8t3.5 -19q0 -32 -22 -64.5t-61.5 -53.5t-89.5 -21q-82 0 -121.5 39.5t-39.5 100.5q0 52 30 142l83 263q12 39 74.5 60.5t127.5 21.5
q44 0 59 -13.5z" />
    <glyph glyph-name="gjmI" unicode="&#xabf;" horiz-adv-x="380" 
d="M662 907.5q86 -23.5 131.5 -62t45.5 -82.5q0 -14 -4 -25q-10 -36 -45 -57.5t-94 -21.5q-73 0 -111 24.5t-38 57.5q0 10 3 17q4 16 14 16q4 0 9.5 -7.5t11 -12t15.5 -4.5q22 0 29 21q2 8 2 10q0 26 -38.5 43.5t-104.5 17.5q-65 0 -106 -21.5t-55 -61.5q-6 -21 -6 -41
q0 -35 19 -66.5t58 -69.5q12 -11 12 -28q0 -12 -4 -27l-111 -358q-2 -5 -2 -13t4.5 -13t11.5 -5q8 0 13.5 4t13 12.5t11.5 8.5q6 0 9.5 -8.5t3.5 -18.5q0 -32 -22.5 -64.5t-62.5 -53.5t-89 -21q-83 0 -121.5 39.5t-38.5 100.5q0 51 30 142l76 251q2 8 2 10q0 11 -10 21
q-72 74 -72 152q0 26 9 53q25 81 121.5 123t277.5 42q116 0 202 -23.5z" />
    <glyph glyph-name="gjmII" unicode="&#xac0;" horiz-adv-x="380" 
d="M298.5 899.5q76.5 -31.5 112 -84.5t35.5 -117q0 -35 -11 -73l-139 -456q-3 -7 -3 -14q0 -8 4.5 -12.5t12.5 -4.5t13.5 4t12.5 12.5t11 8.5q6 0 9.5 -8t3.5 -19q0 -32 -22 -64.5t-61.5 -53.5t-89.5 -21q-82 0 -121.5 39.5t-39.5 100.5q0 26 7 58.5t23 83.5l129 420
q9 32 9 57q0 47 -27.5 71.5t-67.5 24.5q-34 0 -56.5 -19t-22.5 -51q0 -15 8 -24t22 -9t26 9.5t16 9.5q9 0 9 -15q0 -6 -3 -17q-24 -77 -139 -77q-69 0 -107.5 29.5t-38.5 76.5q0 18 6 36q16 59 89 94.5t197 35.5q117 0 193.5 -31.5z" />
    <glyph glyph-name="gjmU" unicode="&#xac1;" 
d="M-185 68q39 -19 64 -52.5t25 -74.5q0 -42 -24 -76.5t-68 -54.5t-101 -20q-61 0 -111 20.5t-78.5 51t-28.5 60.5q0 10 4 14t13 4q5 0 14 -5t18 -12q23 -16 43 -26t43 -10q27 0 45.5 16t18.5 43q0 17 -9 26.5t-20 9.5q-8 0 -15 -5t-16 -14q-6 -6 -12.5 -11t-12.5 -5
q-5 0 -8.5 5.5t-3.5 15.5q0 52 39 85.5t101 33.5q41 0 80 -19z" />
    <glyph glyph-name="gjmUU" unicode="&#xac2;" 
d="M-100 97q62 -30 97.5 -74.5t35.5 -82.5q0 -13 -4.5 -21t-12.5 -8q-9 0 -18 7t-24 22q-27 26 -50 40.5t-53 14.5q-31 0 -48 -19t-17 -44q0 -16 7.5 -26.5t19.5 -10.5q11 0 19.5 4.5t18.5 12.5q16 12 25 12q16 0 16 -19q0 -27 -18 -53.5t-51.5 -44t-78.5 -17.5
q-53 0 -97.5 20t-71.5 57.5t-27 87.5q0 77 54.5 124.5t141.5 47.5q74 0 136 -30z" />
    <glyph glyph-name="gjmvR" unicode="&#xac3;" 
d="M-203 29q14 -10 14 -21q0 -5 -4 -8t-17 -6q-40 -9 -40 -34q0 -29 45 -29q16 0 26.5 5t22 13.5t15.5 8.5q11 0 11 -30q0 -64 -38 -106.5t-100 -42.5q-53 0 -88.5 32t-35.5 85q0 40 22.5 73t57 51.5t67.5 18.5q28 0 42 -10z" />
    <glyph glyph-name="gjmvRR" unicode="&#xac4;" 
d="M-113 -168q0 -14 -14 -40q-19 -37 -70.5 -62.5t-116.5 -25.5q-55 0 -94 15t-58.5 40t-19.5 54q0 17 5 30q22 55 90 71q-19 19 -19 46q0 11 5 26q18 63 130 63l70 -49q-28 -7 -39 -12.5t-15 -15.5q-2 -6 -2 -9q0 -9 10 -14t29 -5h16q32 0 45.5 -7.5t9.5 -23.5
q-6 -35 -69 -35h-27q-19 0 -31 -4.5t-16 -16.5q-2 -6 -2 -10q0 -24 55 -24q41 0 91 15q16 6 25 6q12 0 12 -12z" />
    <glyph glyph-name="gjmvL" unicode="&#xae2;" 
d="M-139 -134q0 -21 -11.5 -37.5t-31.5 -35.5q-27 -25 -27 -39q2 -14 18 -14q4 0 8 1t7 1q6 0 6 -6q0 -14 -14.5 -29t-39.5 -24.5t-56 -9.5q-39 0 -58.5 15t-21.5 41q0 12 2 18q4 15 13.5 27t27.5 30q2 2 11.5 12.5t13.5 19.5l2 8q0 14 -18 14q-10 0 -19.5 -6.5t-11.5 -8.5
q-10 -8 -16.5 -11.5t-13.5 -3.5t-12 3.5t-13 11.5q-16 18 -32 18q-11 0 -19.5 -5t-10.5 -16q-3 -12 6 -22t25 -10q8 0 17.5 4t13.5 4q6 0 6 -9q0 -17 -11.5 -36.5t-34.5 -33.5t-55 -14q-40 0 -67 23.5t-27 62.5q0 16 6 36q14 43 48.5 66.5t73.5 23.5q34 0 60 -11t44 -39
q33 26 81 34l4 28q2 20 23.5 30t51.5 10q29 0 44 -7.5t15 -19.5q0 -18 -17 -32l-21 -18q31 -16 31 -44z" />
    <glyph glyph-name="gjmvLL" unicode="&#xae3;" 
d="M-149 -72l-28 -24q32 -20 32 -54q0 -12 -4 -23q-8 -25 -29 -38t-66 -24q-23 -5 -32 -9.5t-11 -11.5q-1 -2 -1 -5q0 -6 6 -9.5t16 -3.5h8q36 0 30 -21q-5 -22 -37 -22h-15q-26 0 -26 -20q0 -18 30 -18q22 0 41 8t22 8q6 0 6 -9q0 -10 -7 -26q-12 -26 -36.5 -42t-59.5 -16
q-39 0 -61.5 20t-22.5 48q0 13 4 24q8 30 41 41q-16 13 -16 35q0 9 3 18q3 11 10.5 19t15.5 15t10 9q10 8 19.5 17.5t12.5 18.5q1 3 1 9q0 16 -17 16q-9 0 -18.5 -6.5t-11.5 -8.5q-17 -15 -29 -15q-7 0 -12 3.5t-13 11.5q-16 18 -32 18q-11 0 -19.5 -5t-10.5 -16
q-3 -12 6 -22t25 -10q8 0 17.5 4t13.5 4q6 0 6 -9q0 -17 -11.5 -36.5t-34.5 -33.5t-55 -14q-40 0 -67 23.5t-27 62.5q0 16 6 36q14 43 48.5 66.5t73.5 23.5q68 0 104 -50q37 30 82 34l3 28q2 20 23.5 30t51.5 10q29 0 44 -7.5t15 -19.5q0 -18 -17 -32z" />
    <glyph glyph-name="gjmE" unicode="&#xac7;" 
d="M23 699q8 -12 8 -24t-8.5 -18.5t-21.5 -6.5q-52 0 -117.5 25.5t-111 70t-45.5 97.5q0 40 23 64t61 24q39 0 69 -23t61 -74z" />
    <glyph glyph-name="gjmAI" unicode="&#xac8;" 
d="M66 900.5q23 -30.5 23 -90.5q0 -45 -11.5 -81t-29.5 -56t-36 -20q-54 0 -129 18t-130.5 54.5t-55.5 90.5q0 33 19 51.5t52 18.5q20 0 38.5 -9t46.5 -33t79 -74l55 -53q-27 40 -38 70t-11 57q0 39 20 63t51 24q34 0 57 -30.5z" />
    <glyph glyph-name="gjmO" unicode="&#xacb;" horiz-adv-x="380" 
d="M391 693q6 -10 6 -18q0 -11 -9 -18t-22 -7q-52 0 -117.5 27.5t-112 73t-46.5 94.5q0 18 7 35q19 51 77 51q40 0 70 -22t61 -75zM400 610.5q15 -13.5 15 -35.5q0 -11 -5 -33l-114 -373q-3 -7 -3 -14q0 -8 4.5 -12.5t12.5 -4.5t13.5 4t12.5 12.5t11 8.5q6 0 9.5 -8t3.5 -19
q0 -32 -22 -64.5t-61.5 -53.5t-89.5 -21q-82 0 -121.5 39.5t-39.5 100.5q0 52 30 142l83 263q12 39 74.5 60.5t127.5 21.5q44 0 59 -13.5z" />
    <glyph glyph-name="gjmAU" unicode="&#xacc;" horiz-adv-x="380" 
d="M456 900.5q23 -30.5 23 -90.5q0 -45 -11.5 -81t-29.5 -56t-36 -20q-54 0 -129 18t-130.5 54.5t-55.5 90.5q0 33 19 51.5t52 18.5q20 0 38.5 -9t46.5 -33t79 -74l55 -53q-27 40 -38 70t-11 57q0 39 20 63t51 24q34 0 57 -30.5zM400 610.5q15 -13.5 15 -35.5q0 -11 -5 -33
l-114 -373q-3 -7 -3 -14q0 -8 4.5 -12.5t12.5 -4.5t13.5 4t12.5 12.5t11 8.5q6 0 9.5 -8t3.5 -19q0 -32 -22 -64.5t-61.5 -53.5t-89.5 -21q-82 0 -121.5 39.5t-39.5 100.5q0 52 30 142l83 263q12 39 74.5 60.5t127.5 21.5q44 0 59 -13.5z" />
    <glyph glyph-name="gjmEcandra" unicode="&#xac5;" 
d="M-150.5 691.5q-55.5 32.5 -88.5 78.5t-33 80q0 10 2 15q6 17 21 17q10 0 22.5 -9.5t30.5 -27.5q29 -28 52 -43.5t49 -15.5q21 0 37.5 10.5t41.5 33.5q24 22 40 32.5t37 10.5q28 0 48 -22t20 -56q0 -19 -7 -39q-16 -45 -58.5 -71t-93.5 -26q-65 0 -120.5 32.5z" />
    <glyph glyph-name="gjmOcandra" unicode="&#xac9;" horiz-adv-x="380" 
d="M229.5 691.5q-55.5 32.5 -88.5 78.5t-33 80q0 10 2 15q6 17 21 17q10 0 22.5 -9.5t30.5 -27.5q29 -28 52 -43.5t49 -15.5q21 0 37.5 10.5t41.5 33.5q24 22 40 32.5t37 10.5q28 0 48 -22t20 -56q0 -19 -7 -39q-16 -45 -58.5 -71t-93.5 -26q-65 0 -120.5 32.5zM400 610.5
q15 -13.5 15 -35.5q0 -11 -5 -33l-114 -373q-3 -7 -3 -14q0 -8 4.5 -12.5t12.5 -4.5t13.5 4t12.5 12.5t11 8.5q6 0 9.5 -8t3.5 -19q0 -32 -22 -64.5t-61.5 -53.5t-89.5 -21q-82 0 -121.5 39.5t-39.5 100.5q0 52 30 142l83 263q12 39 74.5 60.5t127.5 21.5q44 0 59 -13.5z
" />
    <glyph glyph-name="gjKA" unicode="&#xa95;" horiz-adv-x="539" 
d="M458.5 608.5q49.5 -24.5 74.5 -63t25 -80.5q0 -23 -8.5 -34t-19.5 -11q-12 0 -36 12q-25 11 -45 17.5t-48 6.5q-36 0 -58 -16t-24 -43q0 -16 9 -29l45 23q40 18 59 18q15 0 32.5 -11t30 -27t12.5 -29q0 -15 -10 -23.5t-40 -8.5h-66q62 -26 98.5 -63t35.5 -82
q-3 -48 -36.5 -86.5t-92 -60t-135.5 -21.5q-72 0 -129 21t-88 58t-29 82q2 26 13.5 48t25.5 35t23 13t24 -15q25 -22 56 -36t86 -14q37 0 56.5 14.5t19.5 37.5q3 26 -20 46q-40 -20 -59 -27t-31 -7q-22 0 -47.5 10.5t-42.5 26t-16 30.5q0 13 10.5 23t33.5 10h88
q-33 23 -53.5 55t-20.5 68q0 41 20.5 77t61 58t97.5 22q69 0 118.5 -24.5z" />
    <glyph glyph-name="gjKHA" unicode="&#xa96;" horiz-adv-x="929" 
d="M845 169q-3 -7 -3 -14q0 -8 4.5 -12.5t11.5 -4.5q8 0 14 4t13 12.5t11 8.5q6 0 9.5 -8.5t3.5 -18.5q0 -32 -22.5 -64.5t-62 -53.5t-89.5 -21q-83 0 -122.5 39.5t-39.5 100.5q0 40 20 103q-35 8 -63 22q-50 -61 -122.5 -99t-144.5 -38q-97 0 -142 39.5t-45 109.5
q0 46 19 99l30 89l2 12q0 19 -16 19q-10 0 -15.5 -4.5t-11.5 -12.5t-9 -8q-6 0 -9.5 8t-3.5 20q0 32 21.5 64t60.5 52.5t89 20.5q79 0 123 -38.5t44 -97.5q0 -48 -22 -95l-26 -66q-5 -13 -5 -23q0 -14 8.5 -22.5t23.5 -8.5q40 0 72 40q-13 19 -19.5 35t-6.5 40q0 49 27.5 76
t64.5 27q34 0 54 -21.5t20 -60.5q0 -35 -12 -70q21 1 35.5 10t24.5 30l48 154q13 39 75 60.5t127 21.5q45 0 60 -13.5t15 -35.5q0 -13 -6 -33z" />
    <glyph glyph-name="gjGA" unicode="&#xa97;" horiz-adv-x="748" 
d="M64.5 231q-38.5 35 -38.5 86q0 16 3 29q5 24 17 24q5 0 10 -9t10.5 -15.5t13.5 -6.5q19 0 36 20t27 51.5t10 63.5q0 17 -5 26t-13 9q-10 0 -21.5 -12t-16.5 -12q-6 0 -9 8t-3 18q0 31 20 59t55 45.5t77 17.5q83 0 129.5 -50.5t46.5 -128.5q0 -77 -28 -135.5t-81 -90.5
t-124 -32q-77 0 -115.5 35zM769 610.5q16 -13.5 16 -35.5q0 -7 -6 -33l-114 -373q-2 -10 -2 -13q0 -18 15 -18q9 0 15 4.5t13 12.5t10 8q5 0 8.5 -8.5t3.5 -18.5q0 -32 -22 -64.5t-61 -53.5t-88 -21q-84 0 -124 39.5t-40 100.5q0 25 7.5 56.5t24.5 85.5l84 263
q12 39 74 60.5t127 21.5q43 0 59 -13.5z" />
    <glyph glyph-name="gjGHA" unicode="&#xa98;" horiz-adv-x="777" 
d="M693 169q-3 -7 -3 -14q0 -8 4.5 -12.5t12.5 -4.5t14 4.5t12.5 12.5t10.5 8q6 0 9.5 -8t3.5 -19q0 -32 -22.5 -64.5t-62 -53.5t-88.5 -21q-82 0 -121.5 39.5t-39.5 100.5q0 31 12 80q-90 -92 -224 -92q-88 0 -137 39t-49 101q0 90 101 128q-39 37 -39 85q0 43 22 78
t62.5 56t93.5 21q52 0 93.5 -17.5t65 -46t23.5 -61.5q0 -10 -4 -15.5t-11 -5.5t-15 5.5t-15 12.5q-10 9 -17.5 14t-15.5 5q-13 0 -23.5 -10.5t-10.5 -27.5q0 -28 17 -42.5t48 -29.5q15 -6 22.5 -11t7.5 -11q0 -11 -15 -18t-44 -14q-42 -11 -64.5 -23.5t-22.5 -36.5
q0 -37 60 -37q48 0 84.5 32t56.5 85l50 162q14 39 76 60.5t127 21.5q44 0 59.5 -13.5t15.5 -35.5q0 -11 -5 -33z" />
    <glyph glyph-name="gjNGA" unicode="&#xa99;" horiz-adv-x="552" 
d="M369 507.5q-7 -5.5 -23 -5.5q-30 0 -30 -31q0 -14 10.5 -30t36.5 -41q81 -77 113.5 -123.5t32.5 -96.5q0 -22 -6 -48q-15 -61 -76.5 -98t-154.5 -37q-78 0 -135.5 29t-88 79t-30.5 112q0 35 8.5 58t19.5 23q5 0 16.5 -7t24.5 -16q41 -29 76 -46t75 -17q43 0 67.5 19
t24.5 53q0 25 -20 47t-63 57q-52 42 -79.5 74.5t-27.5 73.5t29 69t76 28q34 0 64.5 -16.5t48.5 -41t18 -46.5q0 -16 -7 -21.5zM425.5 582q-25.5 -31 -25.5 -81q0 -37 24 -61t61 -24q41 0 66.5 31t25.5 81q0 37 -24 61t-61 24q-41 0 -66.5 -31z" />
    <glyph glyph-name="gjCA" unicode="&#xa9a;" horiz-adv-x="794" 
d="M708 169q-2 -10 -2 -13q0 -18 17 -18q8 0 14 4.5t12.5 12.5t10.5 8q5 0 9.5 -8.5t4.5 -18.5q0 -32 -22.5 -64.5t-62 -53.5t-88.5 -21q-76 0 -115 33t-46 87q-138 8 -216 104q-29 -7 -66 -7q-41 0 -74 14t-52 38t-19 51q0 33 17 47.5t42 14.5q15 0 28 -5t29 -15
q28 21 42.5 43.5t14.5 38.5q0 12 -6.5 19t-18.5 7q-13 0 -26 -8t-17 -8q-11 0 -11 17q0 11 4 23q18 59 71 98t126 39t112 -41t39 -105q0 -20 -7 -52q-13 -52 -51 -100t-94 -78q45 -19 80 -19t57.5 20t35.5 58l72 231q13 39 75 60.5t127 21.5q44 0 59.5 -13.5t15.5 -35.5
q0 -13 -6 -33z" />
    <glyph glyph-name="gjCHA" unicode="&#xa9b;" horiz-adv-x="725" 
d="M712 525.5q34 -48.5 34 -123.5q0 -44 -12 -89q-22 -91 -85 -162t-156 -111t-203 -40q-82 0 -143 25t-93.5 69t-32.5 99q0 29 9 59q25 82 117 117q-44 36 -44 92q0 22 8 49q16 53 67 88t130 35q66 0 107.5 -31.5t41.5 -77.5q0 -25 -13.5 -39.5t-28.5 -14.5q-9 0 -13 15
q-7 30 -27 30q-10 0 -17.5 -7.5t-11.5 -20.5q-3 -10 -3 -21q0 -24 16.5 -39.5t44.5 -31.5q17 -9 24.5 -15t7.5 -13q0 -10 -18.5 -17.5t-65.5 -20.5q-35 -10 -53 -22.5t-24 -31.5q-2 -5 -2 -15q0 -28 35 -44t85 -16q44 0 86 13.5t77 36.5q-38 33 -57.5 74t-19.5 86q0 30 9 60
q16 50 47.5 77t78.5 27q64 0 98 -48.5zM640 380q0 22 -8.5 37t-23.5 15q-22 0 -31 -31q-4 -12 -4 -29q0 -21 8.5 -42t23.5 -36q20 25 30 55q5 17 5 31z" />
    <glyph glyph-name="gjJA" unicode="&#xa9c;" horiz-adv-x="700" 
d="M739 406.5q-41 -47.5 -146 -103.5l-82 -44q42 -22 62.5 -50.5t20.5 -67.5q0 -64 -49 -104t-129 -40q-61 0 -109 23.5t-75.5 65.5t-27.5 95q0 50 28.5 95t102.5 109l-6 9q-34 47 -75 47q-19 0 -30.5 -9.5t-11.5 -26.5q0 -9 6.5 -21t6.5 -17q0 -15 -21 -15q-39 0 -71 21
t-50.5 56t-18.5 74q0 24 7 45q13 41 45.5 63t77.5 22q61 0 111 -46.5t88 -153.5q58 50 77 72.5t19 37.5q0 7 -4 11t-12 8t-11.5 7.5t-3.5 10.5q0 17 17.5 36.5t51 33t78.5 13.5q50 0 90 -20.5t62.5 -55t22.5 -73.5q0 -60 -41 -107.5zM460 146q11 11 11 28q0 18 -14 36
l-10 13q-48 -27 -48 -55q0 -15 9 -24t24 -9q17 0 28 11z" />
    <glyph glyph-name="gjJHA" unicode="&#xa9d;" horiz-adv-x="725" 
d="M769 551q-4 -10 -13 -27l-99 -172q25 -44 25 -96q0 -16 -1 -24q-7 -70 -39.5 -124t-82 -83t-106.5 -29q-77 0 -115.5 35t-38.5 86q0 16 3 29q5 24 17 24q5 0 10 -9t10.5 -15.5t13.5 -6.5q16 0 32 18.5t26.5 47.5t10.5 57q0 20 -7 32.5t-18 12.5q-15 0 -28 -16
q-30 -46 -78.5 -70.5t-110.5 -24.5q-77 0 -115.5 35t-38.5 86q0 16 3 29q5 24 17 24q5 0 10 -9t10.5 -15.5t13.5 -6.5q19 0 36 20t27 51.5t10 63.5q0 17 -5 26t-13 9q-10 0 -21.5 -12t-16.5 -12q-6 0 -9 8t-3 18q0 31 20 59t55 45.5t77 17.5q83 0 129.5 -50.5t46.5 -128.5
q0 -26 -3 -50q21 13 47 21l33 117q11 40 71 61t125 21q42 0 64.5 -14t22.5 -39q0 -10 -4 -20z" />
    <glyph glyph-name="gjNYA" unicode="&#xa9e;" horiz-adv-x="757" 
d="M674 169q-2 -10 -2 -13q0 -18 15 -18q9 0 15 4.5t13 12.5t10 8q5 0 8.5 -8.5t3.5 -18.5q0 -32 -22 -64.5t-61 -53.5t-88 -21q-84 0 -124 39.5t-40 100.5q0 24 8 59q-51 11 -94 40q-55 -40 -136 -40q-77 0 -115.5 35t-38.5 86q0 16 3 29q5 24 17 24q5 0 10 -9t10.5 -15.5
t13.5 -6.5q19 0 36 20t27 51.5t10 63.5q0 17 -5 26t-13 9q-10 0 -21.5 -12t-16.5 -12q-6 0 -9 8t-3 18q0 31 20 59t55 45.5t77 17.5q83 0 129.5 -50.5t46.5 -128.5q0 -87 -35 -149q31 1 51 16t34 48l55 173q12 39 74 60.5t127 21.5q43 0 59 -13.5t16 -35.5q0 -7 -6 -33z" />
    <glyph glyph-name="gjTTA" unicode="&#xa9f;" horiz-adv-x="546" 
d="M522.5 280.5q6.5 -14.5 6.5 -41.5q0 -66 -32 -121.5t-94 -88t-148 -32.5q-106 0 -170.5 43.5t-64.5 117.5q0 57 30 95t71 59.5t103 44.5q53 21 75.5 34t22.5 32q0 15 -9.5 24t-27.5 9q-13 0 -25 -6t-28 -16q-19 -14 -28 -14q-6 0 -10 6.5t-4 19.5q0 53 24.5 95.5t69.5 67
t105 24.5q74 0 120 -36t46 -91q0 -47 -26.5 -79t-64 -51.5t-94.5 -40.5q-56 -21 -82.5 -37t-26.5 -40q0 -26 19 -38t59 -12q44 0 73 17t59 46q13 13 20 18.5t14 5.5q11 0 17.5 -14.5z" />
    <glyph glyph-name="gjTTHA" unicode="&#xaa0;" horiz-adv-x="623" 
d="M435 419.5q11 -12.5 48 -38.5q62 -41 89 -78t27 -92q0 -56 -31 -106t-90 -81t-139 -31q-85 0 -157.5 31.5t-115.5 88t-43 128.5q0 31 7 59q21 79 85.5 120t151.5 41q-18 20 -27 37t-9 36q0 23 15.5 46t47 38t77.5 15q59 0 105.5 -22.5t72.5 -60.5t26 -83
q0 -13 -4.5 -21.5t-11.5 -8.5q-17 0 -51 17q-36 18 -55 18q-13 0 -21 -7.5t-8 -19.5q0 -13 11 -25.5zM306.5 329.5q-14.5 -28.5 -33.5 -107.5q-15 -66 -15 -90q0 -16 5 -22.5t16 -6.5q21 0 35 24.5t31 94.5q17 77 17 104q0 18 -5 25t-16 7q-20 0 -34.5 -28.5z" />
    <glyph glyph-name="gjDDA" unicode="&#xaa1;" horiz-adv-x="530" 
d="M382.5 608q47.5 -25 73.5 -64.5t26 -81.5q0 -19 -6 -30.5t-14 -11.5q-11 0 -30 17q-15 12 -26 18t-25 6t-22 -8.5t-8 -23.5q0 -16 13.5 -31.5t42.5 -39.5q49 -43 76.5 -80t27.5 -89t-28.5 -96t-80.5 -70t-119 -26q-83 0 -143 29t-91 79t-31 112q0 35 8.5 58t19.5 23
q5 0 16.5 -7t24.5 -16q41 -29 76 -46t75 -17q43 0 67.5 19t24.5 53q0 25 -21 47.5t-66 57.5q-53 42 -80 72.5t-27 68.5q0 46 35.5 74.5t100.5 28.5q63 0 110.5 -25z" />
    <glyph glyph-name="gjDDHA" unicode="&#xaa2;" horiz-adv-x="616" 
d="M521 612.5q49 -18.5 75.5 -50.5t26.5 -71q0 -19 -5 -34q-7 -23 -25 -40.5t-55 -35.5t-103 -41q-108 -38 -156.5 -71.5t-59.5 -70.5q-6 -21 -6 -38q0 -28 14.5 -46t39.5 -26q-3 18 -3 34q0 23 7 49q20 61 79 95t125 34q71 0 110.5 -34.5t39.5 -85.5q0 -23 -7 -43
q-22 -70 -107.5 -107t-186.5 -37q-87 0 -157 30t-109.5 85t-39.5 126q0 126 150 212q46 26 64 38t22 18t4 16q0 9 -4.5 15t-13.5 14t-12.5 13.5t-0.5 12.5q7 23 61 40.5t118 17.5q66 0 115 -18.5zM343 81q36 0 61 10.5t25 35.5q0 12 -8.5 20.5t-22.5 8.5q-17 0 -31 -10.5
t-20 -29.5q-6 -18 -4 -35z" />
    <glyph glyph-name="gjNNA" unicode="&#xaa3;" horiz-adv-x="1110" 
d="M723 582.5q46 -50.5 46 -128.5q0 -76 -28 -134t-77 -90t-111 -32q-75 0 -121 37t-46 95q0 16 3.5 24.5t9.5 8.5q4 0 10 -7.5t11.5 -12t15.5 -4.5q19 0 36 20t27.5 51.5t10.5 63.5q0 35 -18 35q-7 0 -12.5 -4t-12.5 -12t-11 -8q-6 0 -9.5 8t-3.5 18q0 31 19.5 59
t54.5 45.5t78 17.5q82 0 128 -50.5zM387 610.5q16 -13.5 16 -35.5q0 -13 -6 -33l-90 -280q-5 -17 -5 -26q0 -15 13.5 -25.5t47.5 -22.5l204 -70q81 -29 121.5 -69.5t40.5 -100.5q0 -41 -21 -75t-58 -54t-84 -20q-51 0 -89.5 21t-59 56t-20.5 76q0 16 4.5 25t11.5 9
q6 0 22 -6t32 -6q23 0 36 9.5t13 28.5q0 14 -11 23t-41 19l-323 112q-49 17 -72 41t-23 60q0 25 10 55l69 220q13 39 75 60.5t126 21.5q45 0 61 -13.5zM1132 610.5q16 -13.5 16 -35.5q0 -7 -8 -33l-114 -373q-1 -5 -1 -13q0 -18 15 -18q9 0 15 4.5t12.5 12.5t10.5 8
q5 0 8.5 -8.5t3.5 -18.5q0 -32 -22 -64.5t-61 -53.5t-89 -21q-83 0 -122 39.5t-39 100.5q0 49 31 142l82 263q12 39 74.5 60.5t128.5 21.5q43 0 59 -13.5z" />
    <glyph glyph-name="gjTA" unicode="&#xaa4;" horiz-adv-x="758" 
d="M674 169q-2 -5 -2 -14q0 -17 15 -17q9 0 15 4.5t13 12.5t10 8q5 0 9 -8.5t4 -18.5q0 -32 -22 -64.5t-61.5 -53.5t-88.5 -21q-83 0 -122.5 39.5t-39.5 100.5q0 49 31 142l23 75q-8 1 -24 1q-56 0 -97 -32.5t-56 -84.5q-7 -22 -7 -43q0 -26 11.5 -41.5t26.5 -15.5q8 0 14 4
t14.5 12.5t14.5 8.5q14 0 14 -26q0 -16 -6 -34q-14 -48 -56.5 -77t-98.5 -29q-53 0 -94.5 23.5t-64.5 65.5t-23 96q0 38 12 78q27 88 103 138t196 50q62 0 144 -21l36 115q13 39 75 60.5t127 21.5q44 0 59.5 -13.5t15.5 -35.5q0 -17 -6 -33z" />
    <glyph glyph-name="gjTHA" unicode="&#xaa5;" horiz-adv-x="865" 
d="M781 169q-2 -5 -2 -13t4.5 -13t11.5 -5q9 0 14.5 4.5t12 12.5t10.5 8q6 0 9.5 -8.5t3.5 -18.5q0 -32 -22 -64.5t-61.5 -53.5t-88.5 -21q-83 0 -122.5 39.5t-39.5 100.5q0 26 7 57q-79 -69 -205 -69q-71 0 -137 25t-106.5 65t-40.5 84q0 16 10 28t38 24.5t83 29.5
q2 1 36 13q-47 11 -75 39t-28 66q0 35 23 65.5t66.5 49.5t102.5 19q73 0 127.5 -24t83 -63.5t28.5 -84.5q0 -55 -30.5 -95t-91.5 -71l-54 -28q-12 -4 -12 -10q0 -5 15 -8t39 -3q65 0 111 28t65 83v-2l59 187q12 39 74 60.5t127 21.5q43 0 59 -13.5t16 -35.5q0 -11 -5 -33z
M236 447.5q11 -11.5 31 -15.5q21 20 21 43q0 17 -9.5 25t-21.5 8t-22 -9.5t-10 -24.5t11 -26.5z" />
    <glyph glyph-name="gjDA" unicode="&#xaa6;" horiz-adv-x="496" 
d="M481 188q0 -46 -29.5 -89.5t-81 -71t-114.5 -27.5q-73 0 -126.5 27.5t-81.5 74t-28 102.5q0 60 32 103t92 65q-32 32 -32 81q0 53 27 93.5t74 63t107 22.5q72 0 111 -32t39 -77q0 -26 -13.5 -41.5t-36.5 -15.5q-5 0 -6.5 3.5t-2.5 15.5q-3 29 -25 29q-17 0 -25.5 -13
t-8.5 -37q0 -28 16.5 -42.5t46.5 -28.5q30 -12 30 -23q0 -9 -20 -17t-64 -19q-44 -10 -67.5 -26.5t-23.5 -44.5q0 -30 21.5 -45.5t58.5 -15.5q34 0 56 5t39 11.5t21 6.5q15 0 15 -37z" />
    <glyph glyph-name="gjDHA" unicode="&#xaa7;" horiz-adv-x="769" 
d="M686 169q-3 -7 -3 -14q0 -8 4.5 -12.5t11.5 -4.5q8 0 13 4t12.5 12.5t12.5 8.5t8.5 -8.5t3.5 -18.5q0 -32 -22.5 -64.5t-62 -53.5t-89.5 -21q-82 0 -121.5 39.5t-39.5 100.5q0 26 7 57q-86 -67 -204 -67q-58 0 -101 20t-66.5 53.5t-23.5 72.5q0 17 7 41q12 37 44.5 67
t80.5 43q-55 44 -55 100q0 20 6 39q14 45 52.5 86t86 65.5t88.5 24.5q31 0 65.5 -15.5t57 -39.5t22.5 -48q0 -18 -13.5 -31t-57.5 -40q-30 -19 -40.5 -28t-12.5 -16q-3 -13 6 -24.5t31 -29.5q18 -15 26 -23.5t8 -17.5q0 -11 -15 -21.5t-45 -26.5q-32 -16 -50 -28t-23 -27
q-3 -7 -3 -15q0 -18 15.5 -30.5t40.5 -12.5q43 0 77.5 31t55.5 93l48 153q12 39 74 60.5t127 21.5q45 0 60 -13.5t15 -35.5q0 -13 -6 -33z" />
    <glyph glyph-name="gjNA" unicode="&#xaa8;" horiz-adv-x="724" 
d="M641 169q-2 -10 -2 -13q0 -18 15 -18q9 0 15 4.5t13 12.5t10 8q5 0 8.5 -8.5t3.5 -18.5q0 -32 -22 -64.5t-61 -53.5t-88 -21q-84 0 -124 39.5t-40 100.5q0 25 7.5 56.5t24.5 85.5l25 78q-43 19 -81 19q-34 0 -56 -18.5t-22 -50.5q0 -20 9.5 -29.5t21.5 -9.5q7 0 12.5 4
t13 12.5t12.5 8.5t8.5 -10t3.5 -22q0 -37 -21.5 -68.5t-58 -49.5t-78.5 -18q-75 0 -124.5 45t-49.5 120q0 60 31 106t85.5 71t122.5 25q102 0 195 -60l35 110q12 39 74 60.5t127 21.5q43 0 59 -13.5t16 -35.5q0 -7 -6 -33z" />
    <glyph glyph-name="gjPA" unicode="&#xaaa;" horiz-adv-x="766" 
d="M682 169q-2 -5 -2 -13q0 -18 17 -18q9 0 14.5 4.5t11.5 12.5t9 8q7 0 10.5 -8t3.5 -19q0 -32 -22.5 -64.5t-62 -53.5t-88.5 -21q-82 0 -121.5 39.5t-39.5 100.5q0 23 6 53q-73 -65 -173 -65q-84 0 -127 40t-43 109q0 36 21 99l28 89l2 12q0 19 -13 19q-9 0 -15 -4.5
t-13 -12.5t-11 -8q-5 0 -8 8t-3 20q0 33 20.5 64.5t61.5 52t97 20.5q76 0 116 -38t40 -98q0 -47 -21 -95l-25 -66q-7 -21 -7 -33q0 -17 10 -26.5t31 -9.5q22 0 43.5 21t33.5 56l62 198q14 39 76 60.5t126 21.5q45 0 60.5 -13.5t15.5 -35.5q0 -10 -7 -33z" />
    <glyph glyph-name="gjPHA" unicode="&#xaab;" horiz-adv-x="521" 
d="M441 608.5q50 -24.5 75.5 -63t25.5 -80.5q0 -22 -9 -33.5t-19 -11.5q-12 0 -36 12q-24 11 -44.5 17.5t-48.5 6.5q-37 0 -58 -16t-23 -43v-4q0 -16 9 -27l44 22q36 17 59 17q15 0 33.5 -11.5t30.5 -27.5t11 -29q0 -29 -50 -29h-73q66 -28 103.5 -68t37.5 -90
q0 -45 -27.5 -80t-78 -54.5t-117.5 -19.5q-54 0 -95 10q13 -31 41 -46.5t61 -15.5q29 0 47.5 6t33.5 14.5t19 8.5q14 0 26 -22.5t12 -54.5q0 -61 -36 -98.5t-98 -37.5q-51 0 -92 25.5t-64 71.5t-23 107q0 31 6 64q-53 24 -82 62t-29 81q0 16 5 34q7 22 22.5 34t36.5 12
q58 0 84 -79q9 -1 27 -1q49 0 82.5 16t33.5 51q0 27 -22 46q-41 -20 -59.5 -27t-30.5 -7q-21 0 -46.5 10t-42.5 26t-17 31q0 11 10.5 22t34.5 11h91q-35 23 -56.5 56.5t-21.5 69.5q0 41 21 77t61 58t96 22q69 0 119 -24.5z" />
    <glyph glyph-name="gjBA" unicode="&#xaac;" horiz-adv-x="904" 
d="M821 169q-2 -5 -2 -14q0 -17 14 -17q9 0 15 4.5t12.5 12.5t10.5 8q6 0 9.5 -8t3.5 -19q0 -32 -22 -64.5t-61 -53.5t-89 -21q-83 0 -123 39.5t-40 100.5q0 38 21 110q-26 6 -39 11q-32 -61 -98 -97t-148 -36q-67 0 -120.5 25t-84.5 73.5t-31 115.5q0 87 35.5 154
t97.5 103.5t140 36.5q51 0 89 -13t58 -32t20 -35q0 -14 -18 -14q-43 0 -80 -20.5t-59.5 -60t-22.5 -93.5q0 -43 19 -67t48 -24q32 0 55 26q-21 22 -30.5 42t-9.5 48q0 37 20 58.5t53 21.5q40 0 66 -30t26 -83v-2q24 1 39.5 12t24.5 38l43 137q12 39 74.5 60.5t127.5 21.5
q45 0 60 -13.5t15 -35.5q0 -10 -7 -33z" />
    <glyph glyph-name="gjBHA" unicode="&#xaad;" horiz-adv-x="1005" 
d="M922 169q-2 -10 -2 -13q0 -18 15 -18q9 0 15 4.5t13 12.5t10 8q5 0 8.5 -8.5t3.5 -18.5q0 -32 -22 -64.5t-61 -53.5t-89 -21q-83 0 -122 39.5t-39 100.5q0 26 7 59t23 83l23 73h-73q-21 -55 -52 -78.5t-78 -23.5q-43 0 -86.5 21t-72 54t-28.5 65q0 21 15 36.5t41 15.5h19
l16 50q1 5 5 17.5t4 20.5q0 20 -26 20q-30 0 -65 -30t-59 -80t-24 -107q0 -78 55 -118.5t150 -40.5q39 0 63 7.5t40.5 16.5t21.5 9q4 0 6.5 -6t2.5 -16q0 -43 -31 -87t-91 -72.5t-142 -28.5q-136 0 -215 61.5t-79 174.5q0 95 51 187.5t148 152.5t228 60q95 0 151.5 -45
t56.5 -124q0 -15 -1 -22h78l32 100q12 39 74.5 60.5t127.5 21.5q43 0 58.5 -13.5t15.5 -35.5q0 -7 -6 -33z" />
    <glyph glyph-name="gjMA" unicode="&#xaae;" horiz-adv-x="734" 
d="M651 169q-2 -10 -2 -13q0 -8 4.5 -13t11.5 -5q9 0 15 4.5t12.5 12.5t10.5 8q5 0 8 -8t3 -19q0 -32 -22 -64.5t-61 -53.5t-88 -21q-83 0 -122 39.5t-39 100.5q0 43 25 128h-72q-23 -76 -56 -108t-85 -32q-41 0 -81.5 23t-67 61t-26.5 80q0 14 3 29q6 17 20.5 28t35.5 11
h14l32 105l2 12q0 19 -13 19q-9 0 -15 -4.5t-13 -12.5t-11 -8q-5 0 -8 8t-3 20q0 33 20.5 64.5t61.5 52t97 20.5q76 0 116 -38t40 -98q0 -17 -4 -34.5t-9.5 -35t-7.5 -25.5l-14 -45h73l60 185q11 39 73.5 60.5t127.5 21.5q44 0 60 -13.5t16 -35.5q0 -12 -8 -33z" />
    <glyph glyph-name="gjYA" unicode="&#xaaf;" horiz-adv-x="815" 
d="M731 169q-2 -5 -2 -13t4.5 -13t11.5 -5q9 0 14.5 4.5t12 12.5t10.5 8q6 0 9.5 -8.5t3.5 -18.5q0 -32 -22 -64.5t-61.5 -53.5t-88.5 -21q-83 0 -122.5 39.5t-39.5 100.5q0 27 7 58q-36 -33 -83 -51.5t-103 -18.5q-75 0 -135 30t-94 77.5t-34 97.5q0 18 4 31q5 18 17 29.5
t41 23.5l102 41q44 18 44 39q0 10 -5 15.5t-14 5.5q-11 0 -22 -8q-7 -5 -12 -5q-12 0 -12 19q0 14 7 32q12 31 46.5 55.5t88.5 24.5q52 0 91 -21.5t60 -59t21 -82.5q0 -26 -5 -45q-11 -46 -46.5 -75t-106.5 -57l-41 -16q-11 -4 -11 -10q0 -8 18 -14.5t45 -6.5
q64 0 114.5 26.5t70.5 77.5l61 192q12 39 74 60.5t127 21.5q43 0 59 -13.5t16 -35.5q0 -11 -5 -33z" />
    <glyph glyph-name="gjRA" unicode="&#xab0;" horiz-adv-x="468" 
d="M358.5 291q-77.5 -55 -172.5 -68q31 -40 89 -40q25 0 46 10t46 27q23 16 30 16q13 0 21 -19t8 -51q0 -43 -17 -81.5t-52.5 -63t-87.5 -24.5q-56 0 -96.5 30.5t-61 82.5t-16.5 112q-42 8 -69 31.5t-27 55.5q0 11 5 26q7 22 25 33t38 11q31 0 66 -23q24 18 40 38.5t20 35.5
q1 4 1 11q0 12 -6.5 19t-18.5 7q-13 0 -26 -8t-17 -8q-11 0 -11 17q0 11 4 23q18 59 71 98t126 39t111.5 -41t38.5 -104q0 -26 -8 -58q-22 -79 -99.5 -134z" />
    <glyph glyph-name="gjLA" unicode="&#xab2;" horiz-adv-x="839" 
d="M150.5 149q-48.5 24 -77.5 70t-29 109q0 80 40.5 150.5t112 112.5t159.5 42q44 0 75 -11t46.5 -26.5t15.5 -29.5q0 -10 -6 -12.5t-24 -5.5q-41 -6 -77 -33.5t-58.5 -72.5t-22.5 -101q0 -46 23 -69t57 -23q12 0 26.5 3.5t18.5 3.5q9 0 9 -13q0 -24 -25.5 -52t-67.5 -47
t-89 -19q-58 0 -106.5 24zM753 155q0 -17 15 -17q9 0 15 4.5t12.5 12.5t10.5 8q6 0 9.5 -8t3.5 -19q0 -32 -22 -64.5t-61 -53.5t-89 -21q-84 0 -123.5 39.5t-39.5 100.5q0 25 7.5 57.5t23.5 84.5l32 97q-45 -46 -68.5 -62t-48.5 -16q-30 0 -48.5 19t-18.5 52q0 25 12 49.5
t28.5 40t28.5 15.5q6 0 9.5 -3.5t7.5 -10.5q5 -9 9.5 -13t13.5 -4q20 0 46.5 17t69.5 53q66 53 114 82t98 29q44 0 59 -13.5t15 -35.5q0 -11 -5 -33l-114 -373q-2 -5 -2 -14z" />
    <glyph glyph-name="gjVA" unicode="&#xab5;" horiz-adv-x="749" 
d="M666 169q-3 -7 -3 -14q0 -8 4.5 -12.5t11.5 -4.5q9 0 14.5 4.5t12 12.5t10.5 8q6 0 9.5 -8.5t3.5 -18.5q0 -32 -22 -64.5t-61.5 -53.5t-88.5 -21q-83 0 -122 39.5t-39 100.5q0 24 6 57q-67 -69 -155 -69q-90 0 -145.5 55t-55.5 147q0 88 35 158t97 109t140 39
q54 0 90 -16t52 -38t16 -41q0 -11 -5 -15.5t-19 -4.5q-66 0 -106 -46.5t-40 -124.5q0 -75 57 -75q52 0 85 80l61 190q11 39 74 60.5t128 21.5q43 0 59 -13.5t16 -35.5q0 -10 -7 -33z" />
    <glyph glyph-name="gjSHA" unicode="&#xab6;" horiz-adv-x="910" 
d="M861 59.5q7 -20.5 7 -48.5q0 -59 -30.5 -107.5t-89.5 -77.5t-140 -29q-139 0 -254.5 82t-198.5 250q-60 8 -103 42.5t-43 76.5q0 8 4 22q6 19 21.5 30t37.5 11q40 0 84 -34q41 24 59 37q-43 24 -67.5 58t-24.5 76q0 47 25.5 88.5t76 66.5t120.5 25q54 0 101.5 -21.5
t77 -64t29.5 -101.5q0 -36 -14 -83q-25 -77 -95.5 -138t-167.5 -83q77 -60 172.5 -91.5t199.5 -31.5q68 0 107.5 16t71.5 39q3 2 9.5 6.5t10.5 4.5q7 0 14 -20.5zM826 266q-3 -7 -3 -14q0 -17 15 -17q9 0 15.5 4.5t13.5 13t10 8.5q6 0 8.5 -8.5t2.5 -19.5q-1 -33 -24 -65
t-63 -53t-90 -21q-81 0 -118.5 37t-37.5 95q0 28 8 61.5t26 88.5l58 166q14 39 76.5 60.5t127.5 21.5q45 0 59.5 -13.5t14.5 -35.5q-2 -16 -7 -33zM227.5 384q12.5 -17 33.5 -27q24 30 24 67q0 21 -8.5 31t-22.5 10q-13 0 -24 -10.5t-12 -30.5q-3 -23 9.5 -40z" />
    <glyph glyph-name="gjSSA" unicode="&#xab7;" horiz-adv-x="766" 
d="M682 169q-2 -5 -2 -13q0 -18 17 -18q9 0 14.5 4.5t11.5 12.5t9 8q7 0 10.5 -8t3.5 -19q0 -32 -22.5 -64.5t-62 -53.5t-88.5 -21q-82 0 -121.5 39.5t-39.5 100.5q0 28 7 60q-42 -38 -83 -55t-91 -17q-84 0 -127 40t-43 109q0 36 21 99l28 89l2 12q0 19 -13 19
q-9 0 -15 -4.5t-13 -12.5t-11 -8q-5 0 -8 8t-3 20q0 33 20.5 64.5t61.5 52t97 20.5q108 0 156 -106l72 -160l55 175q14 39 76 60.5t126 21.5q45 0 60.5 -13.5t15.5 -35.5q0 -10 -7 -33zM355 276.5q10 -9.5 31 -9.5q13 0 25.5 7t20.5 19l-52 118l-28 -75q-7 -21 -7 -33
q0 -17 10 -26.5z" />
    <glyph glyph-name="gjSA" unicode="&#xab8;" horiz-adv-x="881" 
d="M875.5 610.5q15.5 -13.5 14.5 -35.5q0 -13 -9 -33l-90 -276q-2 -5 -2 -14q0 -17 14 -17q9 0 15 4.5t13.5 13t11.5 8.5t7.5 -9t3.5 -19q-1 -33 -24.5 -65t-63.5 -53t-90 -21q-81 0 -119.5 38t-38.5 97q0 18 7 53q-48 10 -92 43q-32 -43 -75 -74.5t-95 -45.5
q72 -87 177.5 -139t224.5 -52q68 0 102.5 15.5t60.5 38.5q12 12 18 12q7 0 15 -21t8 -48q0 -59 -28.5 -107.5t-85.5 -77.5t-139 -29q-108 0 -200 41.5t-156.5 131t-86.5 226.5q-39 3 -72.5 21t-54 44.5t-20.5 53.5q0 32 21 48t45 16q31 0 66 -23q24 18 40 38.5t20 35.5
q1 4 1 11q0 12 -6.5 19t-18.5 7q-13 0 -26 -8t-17 -8q-11 0 -11 17q0 11 4 23q18 59 71 98t126 39t112 -41t39 -105q0 -20 -7 -52q-3 -13 -13 -39q7 -1 20 -1q33 0 53.5 14t34.5 45l32 93q14 39 76.5 60.5t127.5 21.5q44 0 59.5 -13.5z" />
    <glyph glyph-name="gjHA" unicode="&#xab9;" horiz-adv-x="808" 
d="M215.5 -167q-85.5 38 -136 110.5t-50.5 170.5q0 86 39 168.5t92 135.5t86 53q14 0 19 -9t5 -26l-1 -28q-2 -22 -2 -34q0 -36 16 -56.5t60 -20.5q32 0 50.5 15t18.5 40q0 15 -10 25t-27 21q-14 10 -21 16.5t-7 15.5q1 17 64 131l21 38q10 21 26.5 36.5t38.5 15.5
q32 0 83.5 -14.5t90.5 -36t39 -41.5q0 -21 -13 -39t-60 -65l-82 -80q57 -42 57 -104q0 -47 -27.5 -85.5t-76 -60t-108.5 -21.5q-100 0 -156.5 47.5t-55.5 132.5q-30 -43 -30 -98q0 -72 59.5 -119t182.5 -47q106 0 170.5 46t93.5 135q11 32 15 40t13 8q22 0 38.5 -40
t16.5 -96q0 -50 -14 -96q-30 -103 -117.5 -162.5t-210.5 -59.5q-104 0 -189.5 38z" />
    <glyph glyph-name="gjLLA" unicode="&#xab3;" horiz-adv-x="956" 
d="M402 617q37 -16 56.5 -38t19.5 -38q0 -12 -6.5 -17t-22.5 -6q-66 -4 -102.5 -54.5t-36.5 -122.5q0 -34 14 -51.5t39 -17.5q22 0 39.5 18t37.5 59l55 114q39 81 96 121t135 40q60 0 108.5 -22t76.5 -64.5t28 -101.5q0 -39 -13 -84l-54 -183q-1 -5 -1 -13q0 -18 14 -18
q9 0 15 4.5t13 12.5t11 8q6 0 8.5 -8t2.5 -19q0 -32 -21.5 -64.5t-61 -53.5t-88.5 -21q-83 0 -122.5 39.5t-39.5 100.5q0 51 30 142l37 111q9 26 9 44q0 21 -11 31.5t-28 10.5q-19 0 -34.5 -12.5t-33.5 -48.5l-65 -140q-37 -78 -87.5 -114t-129.5 -36q-64 0 -118 26
t-86.5 77.5t-32.5 124.5q0 81 32.5 145t92.5 99.5t138 35.5q50 0 87 -16z" />
    <glyph glyph-name="gjK_SSA" horiz-adv-x="952" 
d="M964 610.5q15 -13.5 14 -35.5q-2 -21 -7 -33l-91 -276q-2 -5 -2 -14q0 -17 15 -17q9 0 14.5 4.5t12 13t10.5 8.5q6 0 10 -8.5t4 -19.5q-2 -33 -25.5 -65t-63.5 -53t-90 -21q-78 0 -116.5 36t-40.5 92q-50 2 -100.5 20t-108.5 51q-75 -37 -113 -61t-51.5 -42t-13.5 -39
q0 -32 35 -48.5t86 -16.5q11 0 31 2q-11 21 -11 45q0 34 26 58.5t74 24.5q44 0 73 -23.5t29 -59.5q0 -51 -48 -88q89 -46 200 -46q39 0 67 8.5t55 22.5q18 10 25 10q8 0 16 -20.5t8 -48.5q0 -49 -22.5 -89t-63.5 -62.5t-95 -22.5q-90 0 -167 53t-125 152q-42 -9 -92 -9
q-88 0 -158.5 25t-111.5 71.5t-41 107.5q0 76 51 132.5t160 95.5q-31 28 -31 70q0 36 23 68t66.5 51t104.5 19q65 0 112 -21t71 -55.5t24 -73.5q0 -43 -22.5 -75.5t-81.5 -68.5q35 -6 60 -6q50 0 74.5 21.5t37.5 67.5v-3l42 123q12 39 75.5 60.5t128.5 21.5q43 0 58 -13.5z
M370.5 475.5q15.5 11.5 15.5 30.5q0 13 -8.5 20.5t-23.5 7.5q-23 0 -40 -15.5t-17 -37.5q0 -10 6.5 -17.5t15.5 -9.5q36 10 51.5 21.5z" />
    <glyph glyph-name="gjJ_NYA" horiz-adv-x="872" 
d="M788 169q-3 -7 -3 -14q0 -8 4.5 -12.5t12.5 -4.5t13.5 4t12.5 12.5t11 8.5q6 0 9.5 -8t3.5 -19q0 -32 -22 -64.5t-61.5 -53.5t-89.5 -21q-82 0 -121.5 39.5t-39.5 100.5q0 44 19 109q5 27 5 44q0 63 -39 99.5t-96 36.5q-28 0 -43 -10t-15 -27q0 -14 12 -30t36 -40
q41 -42 64 -78t23 -83q0 -21 -8 -50q-15 -52 -68.5 -82t-131.5 -30q-49 0 -91 12q18 -32 59.5 -48t86.5 -16q40 0 66.5 10t44 22t21.5 12q14 0 27 -24.5t13 -56.5q0 -63 -42 -105t-115 -42q-68 0 -120.5 31t-81.5 87t-29 129q0 19 1 29q-47 26 -74.5 64t-27.5 78q0 14 5 32
q15 51 66 51q40 0 69.5 -35t29.5 -96l-1 -17q35 4 44 35q3 12 3 24q0 21 -9 45t-26 60q-21 44 -31.5 73.5t-10.5 60.5q0 26 6 43q15 49 64.5 79t114.5 30q85 0 152 -40t100 -111l41 130q12 39 74.5 60.5t127.5 21.5q44 0 59 -13.5t15 -35.5q0 -11 -5 -33z" />
    <glyph glyph-name="gjAnusvara" unicode="&#xa82;" 
d="M35.5 850q25.5 -25 25.5 -62q0 -27 -14 -52.5t-39 -41.5t-57 -16q-38 0 -63 26t-25 64q0 26 14 50.5t38.5 40.5t56.5 16q38 0 63.5 -25z" />
    <glyph glyph-name="gjCandrabindu" unicode="&#xa81;" 
d="M-110 828.5q-20 19.5 -20 47.5q0 10 3 20q9 31 40.5 56t69.5 25q32 0 52.5 -18t20.5 -45q0 -25 -16.5 -49.5t-43 -40t-54.5 -15.5q-32 0 -52 19.5zM-149.5 685.5q-46.5 26.5 -70.5 65t-24 72.5q0 12 3 22q6 17 21 17q9 0 17 -7t20 -21q25 -29 51.5 -46.5t71.5 -17.5
q47 0 80 16t66 43q4 3 14 10t17 10.5t13 3.5q12 0 20 -12.5t8 -32.5q0 -17 -5 -32q-15 -50 -68 -83.5t-124 -33.5q-64 0 -110.5 26.5z" />
    <glyph glyph-name="gjVisarga" unicode="&#xa83;" horiz-adv-x="351" 
d="M311.5 521q27.5 -27 27.5 -66q0 -27 -14.5 -53t-40 -42.5t-57.5 -16.5q-39 0 -66 27t-28 66q0 27 14 53t39.5 42.5t57.5 16.5q40 0 67.5 -27zM242.5 259q27.5 -27 27.5 -66q0 -27 -14.5 -53t-40 -42.5t-57.5 -16.5q-39 0 -66 27t-28 66q0 27 14 53t39.5 42.5t57.5 16.5
q40 0 67.5 -27z" />
    <glyph glyph-name="gjVirama" unicode="&#xacd;" 
d="M-284.5 -39.5q26.5 -10.5 77.5 -46t160 -118.5q10 -7 10 -15q2 -20 -61 -24q-104 -3 -173.5 15.5t-103 51.5t-33.5 76q0 31 19.5 50t50.5 20q27 1 53.5 -9.5z" />
    <glyph glyph-name="gjNukta" unicode="&#xabc;" 
d="M-205.5 -45.5q19.5 -19.5 19.5 -47.5q0 -32 -23.5 -57t-59.5 -25q-29 0 -49 18.5t-20 46.5q0 31 24.5 57.5t60.5 26.5q28 0 47.5 -19.5z" />
    <glyph glyph-name="gjAvagraha" unicode="&#xabd;" horiz-adv-x="487" 
d="M361.5 605q49.5 -20 75.5 -54t26 -75q0 -19 -6 -39q-8 -24 -24.5 -35.5t-43.5 -11.5h-79q-40 0 -46 -24q-2 -8 -2 -11q0 -14 8.5 -28.5t26.5 -36.5q29 -38 45 -68t16 -68q0 -24 -7 -48q-18 -53 -60 -81t-105 -28q-45 0 -78.5 15.5t-51.5 40.5t-18 54q0 15 4 27
q4 14 14 14t20 -12q9 -9 17 -13.5t23 -4.5q8 0 15 4t10 12q2 8 2 13q0 18 -11.5 39t-36.5 56q-39 56 -61 100t-22 93q0 29 8 54q22 69 77.5 102.5t147.5 33.5q67 0 116.5 -20z" />
    <glyph glyph-name="gjZero" unicode="&#xae6;" horiz-adv-x="593" 
d="M454.5 587.5q58.5 -37.5 92 -103.5t33.5 -149q0 -93 -38.5 -169.5t-105 -121t-147.5 -44.5q-77 0 -137 41t-92 112.5t-29 159.5q5 88 45 159.5t104.5 112t141.5 40.5q74 0 132.5 -37.5zM330.5 460.5q-23.5 -38.5 -65.5 -147.5q-46 -128 -46 -164q0 -25 21 -25q22 0 46 39
t65 150q44 120 44 159q0 27 -22 27q-19 0 -42.5 -38.5z" />
    <glyph glyph-name="gjOne" unicode="&#xae7;" horiz-adv-x="474" 
d="M373 169q-2 -10 -2 -13q0 -18 17 -18q9 0 14.5 4t12 12.5t10.5 8.5q5 0 8.5 -8.5t3.5 -18.5q0 -32 -22 -64.5t-61.5 -53.5t-88.5 -21q-83 0 -122 39.5t-39 100.5q0 25 7 57t23 85l20 60q-54 1 -85.5 27t-31.5 69q0 50 29.5 95t82.5 72.5t121 27.5q94 0 139 -43.5
t45 -115.5q0 -36 -13 -82zM210 484q0 30 -27 30q-15 0 -28 -13.5t-19 -36.5q-4 -12 -4 -23q0 -13 7 -20.5t19 -7.5q15 0 28.5 14t20.5 37q3 12 3 20z" />
    <glyph glyph-name="gjTwo" unicode="&#xae8;" horiz-adv-x="495" 
d="M460.5 244.5q13.5 -12.5 23.5 -35.5t10 -53q0 -41 -20.5 -77.5t-59 -59t-91.5 -22.5q-95 0 -145 57.5t-50 145.5l1 20q-54 5 -85 30.5t-31 65.5q0 29 18 50t45 22q26 2 47.5 -9.5t42.5 -32.5q30 17 43 36.5t11 44.5q0 29 -24 29q-12 -1 -22 -10.5t-14 -9.5q-7 0 -10.5 7
t-3.5 18q-3 41 19.5 81t67 65.5t103.5 25.5q68 0 112.5 -39t44.5 -105q0 -76 -40 -131.5t-101.5 -88t-128.5 -44.5q41 -42 106 -42q34 0 53 15t34 39q5 8 10 14t10 6q11 0 24.5 -12.5z" />
    <glyph glyph-name="gjThree" unicode="&#xae9;" horiz-adv-x="529" 
d="M412 342q39 -25 60.5 -61t21.5 -82q0 -28 -11 -66q-15 -56 -69.5 -94.5t-145.5 -38.5q-77 0 -133.5 34t-86.5 84.5t-30 97.5q0 11 4 29q5 23 20 23q10 0 38 -21q30 -22 55.5 -34.5t55.5 -12.5q29 0 48 14.5t19 42.5q0 21 -15 29.5t-42 13.5q-21 5 -30 9.5t-9 13.5
q0 5 3 11q3 7 12 15t19 16q22 16 34.5 30t12.5 32q0 12 -6 19.5t-16 7.5q-9 0 -20 -9q-10 -10 -20 -10q-13 0 -13 19q0 8 1 12q6 74 61 116.5t132 42.5q52 0 87.5 -19.5t53 -51t17.5 -67.5q0 -20 -6 -40q-21 -71 -102 -105z" />
    <glyph glyph-name="gjFour" unicode="&#xaea;" horiz-adv-x="681" 
d="M648.5 399.5q-46.5 -51.5 -142.5 -97.5l-84 -40q41 -14 66.5 -46t25.5 -71q0 -42 -24 -75t-66 -51.5t-96 -18.5q-60 0 -108 23.5t-75 65.5t-27 96q0 46 22.5 87.5t79.5 93.5l-38 11q-58 17 -95 55t-37 93q0 46 20 73t52 27q21 0 35 -10.5t29 -35.5l94 -163
q88 68 119.5 102t31.5 53q0 13 -6.5 18.5t-18.5 9.5q-10 3 -14 6t-4 10q0 17 17.5 36.5t48 32.5t67.5 13q51 0 90.5 -22.5t61.5 -62t22 -87.5q0 -74 -46.5 -125.5zM374.5 150q11.5 12 11.5 29q0 29 -25 47q-26 -14 -37 -27.5t-11 -29.5q0 -14 9 -22.5t25 -8.5t27.5 12z" />
    <glyph glyph-name="gjFive" unicode="&#xaeb;" horiz-adv-x="766" 
d="M682 169q-2 -5 -2 -13q0 -18 17 -18q9 0 14.5 4.5t11.5 12.5t9 8q7 0 10.5 -8t3.5 -19q0 -32 -22.5 -64.5t-62 -53.5t-88.5 -21q-82 0 -121.5 39.5t-39.5 100.5q0 23 6 53q-73 -65 -173 -65q-84 0 -127 40t-43 109q0 36 21 99l28 89l2 12q0 19 -13 19q-9 0 -15 -4.5
t-13 -12.5t-11 -8q-5 0 -8 8t-3 20q0 33 20.5 64.5t61.5 52t97 20.5q76 0 116 -38t40 -98q0 -47 -21 -95l-25 -66q-7 -21 -7 -33q0 -17 10 -26.5t31 -9.5q22 0 43.5 21t33.5 56l62 198q14 39 76 60.5t126 21.5q45 0 60.5 -13.5t15.5 -35.5q0 -10 -7 -33z" />
    <glyph glyph-name="gjSix" unicode="&#xaec;" horiz-adv-x="544" 
d="M458.5 610.5q48.5 -21.5 76 -59.5t27.5 -86q0 -22 -8 -51q-6 -19 -13.5 -29t-14.5 -10q-4 0 -22.5 11.5t-43 20t-59.5 8.5q-62 0 -106.5 -30.5t-62.5 -88.5q-7 -24 -7 -41q0 -25 10.5 -42.5t29.5 -24.5q16 66 54 96t89 30q45 0 71 -24t26 -62q0 -20 -5 -35
q-13 -42 -54.5 -67t-100.5 -30q26 -46 26 -93q0 -29 -8 -54q-14 -47 -52 -73t-94 -26q-80 0 -124.5 43t-44.5 110q0 34 12 70q6 17 23 17q5 0 10.5 -4t11.5 -10q20 -19 42 -30.5t57 -11.5q29 0 46 17.5t20 44.5q-82 7 -137 40.5t-81.5 84.5t-26.5 112q0 45 13 87
q22 70 70 118t110.5 71t128.5 23q63 0 111.5 -21.5z" />
    <glyph glyph-name="gjSeven" unicode="&#xaed;" horiz-adv-x="625" 
d="M190.5 579q-54.5 -46 -62.5 -122l-1 -16q0 -69 47 -111t119 -42q53 0 93.5 27.5t64.5 74.5q1 -6 1 -19q0 -70 -40 -114.5t-118 -44.5q-137 0 -220 114q-15 23 -21.5 29t-15.5 6q-15 0 -20 -23q-3 -10 -3 -25q0 -58 43.5 -134t122 -131t177.5 -55t164.5 67t79.5 186
q2 28 2 41q0 90 -35.5 167.5t-99.5 124t-144 46.5q-79 0 -133.5 -46zM398 495q12 -9 16 -24q-8 -21 -25.5 -36t-36.5 -15q-14 0 -23.5 7.5t-9.5 22.5q0 22 16.5 38t33.5 16t29 -9z" />
    <glyph glyph-name="gjEight" unicode="&#xaee;" horiz-adv-x="603" 
d="M148 238q-17 -14 -23 -29q-2 -12 -2 -16q0 -20 12 -30.5t31 -10.5q20 0 31.5 11.5t11.5 28.5q0 10 -2 15q-3 8 -3 13q0 12 14.5 17.5t45.5 5.5q65 0 102.5 -33t37.5 -81q0 -16 -5 -34q-14 -44 -57 -69.5t-102 -25.5q-68 0 -119 25.5t-78 70t-27 101.5q0 37 12 77
q17 56 54.5 107.5t94.5 110.5l116 109q22 20 39 30t36 10q29 0 68 -26l75 -46q79 -51 79 -112q0 -17 -6 -35q-10 -36 -41 -57t-95 -40l-259 -67q-24 -6 -41 -20z" />
    <glyph glyph-name="gjNine" unicode="&#xaef;" horiz-adv-x="713" 
d="M442.5 616q18.5 -9 12.5 -25q-3 -9 -14.5 -18.5t-34.5 -23.5q-54 -35 -90.5 -71t-54.5 -95q-10 -31 -10 -65q0 -62 38.5 -103t116.5 -41q42 0 74 9t68 24q32 14 43 14q21 0 21 -25q0 -6 -4 -24q-14 -45 -54 -85.5t-101 -65t-135 -24.5q-87 0 -150.5 31.5t-97.5 89
t-34 131.5q0 53 18 113q25 79 79.5 138.5t123.5 92t136 32.5q31 0 49.5 -9zM523 519q26 25 54 25q23 0 49 -14l55 -23q50 -23 50 -56q0 -8 -3 -17q-6 -20 -21.5 -35t-53.5 -31l-181 -71q-35 -14 -50.5 -18.5t-35.5 -4.5q-26 1 -43.5 13t-17.5 30q0 26 24 44z" />
    <glyph glyph-name="gjOm" unicode="&#xad0;" horiz-adv-x="1087" 
d="M637 738.5q-20 19.5 -20 47.5q0 10 3 20q9 31 40.5 56t69.5 25q32 0 52.5 -18t20.5 -45q0 -25 -16.5 -49.5t-43 -40t-54.5 -15.5q-32 0 -52 19.5zM597.5 595.5q-46.5 26.5 -70.5 65t-24 72.5q0 12 3 22q6 17 21 17q9 0 17 -7t20 -21q25 -29 51.5 -46.5t71.5 -17.5
q47 0 80 16t66 43q4 3 14 10t17 10.5t13 3.5q12 0 20 -12.5t8 -32.5q0 -17 -5 -32q-15 -50 -68 -83.5t-124 -33.5q-64 0 -110.5 26.5zM929 497.5q61 -33.5 97 -88.5t36 -117q0 -28 -9 -57q-16 -52 -58.5 -83t-97.5 -31q-45 0 -87 17.5t-75 51.5q-23 -53 -48 -73.5t-63 -20.5
q-60 0 -109 56q-1 -8 -5 -19q-15 -56 -69.5 -94.5t-145.5 -38.5q-77 0 -133.5 34t-86.5 84.5t-30 97.5q0 11 4 29q5 23 20 23q10 0 38 -21q30 -22 55.5 -34.5t55.5 -12.5q29 0 48 14.5t19 42.5q0 21 -15 29.5t-42 13.5q-21 5 -30 9.5t-9 13.5q0 5 3 11q3 7 12 15t19 16
q22 16 34.5 30t12.5 32q0 12 -6 19.5t-16 7.5q-9 0 -20 -9q-10 -10 -20 -10q-13 0 -13 19q0 8 1 12q6 74 61 116.5t132 42.5q52 0 87.5 -19.5t53 -51t17.5 -67.5q0 -20 -6 -40q-21 -71 -102 -105q30 -20 47 -41q12 -16 27 -16q14 0 27 19t32 74q30 82 82 117.5t143 35.5
q71 0 132 -33.5zM862 338q0 32 -11 54.5t-24 22.5q-7 0 -12.5 -6.5t-15.5 -31.5t-26 -78q-9 -30 -11 -37q22 -11 44 -11q19 0 30.5 8t17.5 27q8 24 8 52z" />
    <glyph glyph-name="gjAbbreviationsign" unicode="&#xaf0;" horiz-adv-x="425" 
d="M132 184q-38 19 -60 51.5t-23 72.5q0 48 25.5 86.5t70 60.5t99.5 22q47 0 85.5 -18t60.5 -50t22 -71q0 -49 -25.5 -88.5t-70.5 -62t-100 -22.5q-46 0 -84 19zM234.5 264q10.5 20 20.5 66q8 37 8 50q0 18 -13 18q-12 0 -21 -18t-21 -66q-8 -31 -8 -50q0 -20 11 -20
q13 0 23.5 20z" />
    <glyph glyph-name="gjRupeesign" unicode="&#xaf1;" horiz-adv-x="891" 
d="M439.5 605.5q35.5 -19.5 53 -51t17.5 -67.5q0 -20 -6 -40q-24 -77 -112 -109q91 -48 91 -135q0 -26 -9 -56q-19 -61 -80 -104t-146 -43q-35 0 -70 8q17 -64 85 -64q29 0 47.5 6t33.5 14.5t19 8.5q16 0 27 -22t11 -54q0 -27 -7 -49q-12 -42 -45.5 -65t-81.5 -23
q-41 0 -77.5 23.5t-59 70t-22.5 111.5q0 30 6 66q-47 25 -73.5 63.5t-26.5 80.5q0 21 5 36q6 21 23 34.5t38 13.5q33 0 53.5 -23t25.5 -62q16 -6 30 -6q40 0 51 41q2 6 2 17q0 20 -11.5 34.5t-33.5 33.5q-17 14 -24.5 22.5t-7.5 18.5q0 9 6.5 16t21.5 19q19 14 29.5 26.5
t10.5 30.5q0 12 -6 19.5t-16 7.5q-9 0 -20 -9q-10 -10 -20 -10q-13 0 -13 19q0 8 1 12q6 74 61 116.5t132 42.5q52 0 87.5 -19.5zM852.5 249.5q-25.5 -39.5 -70.5 -62t-100 -22.5q-46 0 -84 19t-60 51.5t-23 72.5q0 48 25.5 86.5t70 60.5t99.5 22q47 0 85.5 -18t60.5 -50
t22 -71q0 -49 -25.5 -88.5zM729 380q0 18 -13 18q-12 0 -21 -18t-21 -66q-8 -31 -8 -50q0 -20 11 -20q13 0 23.5 20t20.5 66q8 37 8 50z" />
    <glyph glyph-name="danda" unicode="&#x964;" horiz-adv-x="394" 
d="M187.5 605q16.5 14 52.5 14h130q24 0 35.5 -7.5t11.5 -26.5q0 -13 -6 -33l-135 -483q-12 -41 -28.5 -55t-53.5 -14h-127q-25 0 -37.5 8.5t-12.5 28.5q0 10 5 30l137 483q12 41 28.5 55z" />
    <glyph glyph-name="doubledanda" unicode="&#x965;" horiz-adv-x="715" 
d="M188 605q16 14 49 14h121q22 0 32.5 -7.5t10.5 -25.5q0 -13 -6 -34l-135 -483q-11 -41 -26.5 -55t-50.5 -14h-119q-23 0 -34.5 8.5t-11.5 27.5q0 16 5 31l137 483q12 41 28 55zM525 605q16 14 49 14h121q22 0 32.5 -7.5t10.5 -25.5q0 -13 -6 -34l-135 -483
q-11 -41 -26.5 -55t-50.5 -14h-119q-23 0 -34.5 8.5t-11.5 27.5q0 16 5 31l137 483q12 41 28 55z" />
    <glyph glyph-name="indianrupee" unicode="&#x20b9;" horiz-adv-x="500" 
d="M564 615q0 -5 -2 -15q-13 -43 -63 -43h-73q23 -22 31 -51h34q42 0 42 -30q0 -4 -2 -14q-13 -43 -63 -43h-21q-29 -74 -124 -108q35 -11 51.5 -33.5t16.5 -51.5q0 -15 -5 -33l-13 -43q-2 -5 -2 -15q0 -11 6 -17.5t17 -6.5q21 0 30.5 -6t6.5 -21q-4 -22 -24 -43.5
t-56.5 -35.5t-88.5 -14q-67 0 -105.5 28.5t-38.5 82.5q0 21 6 43l15 59q5 22 5 34q0 22 -12 31.5t-36 9.5h-19q-20 0 -30.5 9t-10.5 24q0 4 2 14q6 22 22 31t42 9h28q57 0 83 53h-95q-21 0 -31.5 9t-10.5 24q0 7 1 10q10 44 66 44h90q-3 51 -55 51h-20q-20 0 -30.5 8
t-10.5 22q0 4 2 14q12 43 63 43h340q42 0 42 -29z" />
    <glyph glyph-name="zerowidthnonjoiner" unicode="&#x200c;" 
d="M27 -346h-51v1140h51v-1140z" />
    <glyph glyph-name="zerowidthjoiner" unicode="&#x200d;" 
d="M29 665l104 -95l-41 -39l-74 74v-951h-51v950l-74 -73l-42 39l104 95l-104 96l41 38l101 -99l100 99l40 -38z" />
    <glyph glyph-name="dottedcircle" unicode="&#x25cc;" horiz-adv-x="798" 
d="M417 592q12 -12 12 -32q0 -19 -12 -31.5t-32 -12.5q-19 0 -31.5 12.5t-12.5 31.5q0 20 12.5 32t31.5 12q20 0 32 -12zM543 577.5q12 -12.5 12 -32.5q0 -18 -12.5 -31t-30.5 -13q-19 0 -32 13t-13 31q0 20 13 32.5t32 12.5t31 -12.5zM298.5 548.5q12.5 -12.5 12.5 -31.5
q0 -20 -12.5 -32.5t-31.5 -12.5t-31.5 12.5t-12.5 32.5q0 19 12.5 31.5t31.5 12.5t31.5 -12.5zM637.5 509.5q12.5 -12.5 12.5 -32.5q0 -19 -12.5 -31.5t-31.5 -12.5t-31.5 12.5t-12.5 31.5t12.5 32t31.5 13t31.5 -12.5zM218 438.5q13 -12.5 13 -31.5t-13 -31.5t-31 -12.5
q-20 0 -33 12.5t-13 31.5t13 31.5t33 12.5q18 0 31 -12.5zM687.5 390.5q12.5 -12.5 12.5 -31.5t-12.5 -31.5t-31.5 -12.5t-31.5 12.5t-12.5 31.5q0 20 12.5 32t31.5 12t31.5 -12.5zM203.5 313.5q12.5 -12.5 12.5 -32.5q0 -19 -12.5 -31t-31.5 -12t-31.5 12t-12.5 31t12.5 32
t31.5 13t31.5 -12.5zM677.5 257q12.5 -13 12.5 -32t-12.5 -31.5t-30.5 -12.5q-19 0 -32 12.5t-13 31.5q0 20 13 32.5t32 12.5q18 0 30.5 -13zM255.5 196.5q12.5 -12.5 12.5 -31.5t-12.5 -31.5t-31.5 -12.5t-31.5 12.5t-12.5 31.5t12.5 31.5t31.5 12.5t31.5 -12.5zM605 158.5
q13 -12.5 13 -31.5t-13 -31.5t-32 -12.5t-31.5 12.5t-12.5 31.5t12.5 31.5t31.5 12.5t32 -12.5zM357.5 121q12.5 -13 12.5 -31q0 -20 -12.5 -33t-31.5 -13t-32 13t-13 33q0 18 13 31t32 13t31.5 -13zM484.5 105.5q12.5 -12.5 12.5 -31.5t-12.5 -31.5t-32.5 -12.5
q-19 0 -31.5 12.5t-12.5 31.5q0 20 12.5 32t31.5 12q20 0 32.5 -12.5z" />
    <glyph glyph-name="gjReph" 
d="M-101 893q42 25 94 25q50 0 78.5 -20t28.5 -49q0 -11 -2 -16q-3 -11 -15 -18.5t-36 -17.5q-32 -13 -49 -25.5t-17 -35.5q0 -14 7.5 -23.5t23.5 -23.5q8 -6 14.5 -12.5t6.5 -13.5t-7.5 -12t-19.5 -5q-37 0 -76 17t-65.5 48.5t-26.5 73.5q0 19 6 40q13 43 55 68z" />
    <glyph glyph-name="gjRAc2" horiz-adv-x="502" 
d="M358 -23q46 -30 46 -67q0 -30 -22.5 -49.5t-66.5 -19.5q-42 0 -65 18.5t-35 54.5l-29 86l-75 -93q-20 -25 -40.5 -36.5t-45.5 -11.5q-32 0 -55 16.5t-23 44.5q0 25 18 41.5t69 35.5l166 62l33 -1z" />
    <glyph glyph-name="gjK" horiz-adv-x="539" 
d="M648 378q77 0 77 -55q0 -32 -51 -32h-244q96 -54 95 -126q-3 -48 -36.5 -86.5t-92 -60t-135.5 -21.5q-72 0 -129 21t-88 58t-29 82q2 26 13.5 48t25.5 35t23 13t24 -15q25 -22 56 -36t86 -14q37 0 56.5 14.5t19.5 37.5q3 21 -11 38l-44 -13q-43 -13 -55 -13
q-22 0 -47.5 10.5t-42.5 26t-16 30.5q0 13 10.5 23t33.5 10h88q-33 23 -53.5 55t-20.5 68q0 41 20.5 77t61 58t97.5 22q59 0 99.5 -22.5t60.5 -59t20 -78.5q0 -21 -6 -33t-14 -12q-12 0 -32 10q-22 9 -38.5 13.5t-37.5 4.5q-33 0 -52 -16t-21 -43q0 -27 22 -41l284 21
q8 1 23 1z" />
    <glyph glyph-name="gjKH" horiz-adv-x="550" 
d="M682 361v-48q0 -38 -13.5 -55.5t-42.5 -17.5q-44 0 -94 24q-49 -62 -122.5 -100.5t-146.5 -38.5q-97 0 -142 39.5t-45 109.5q0 46 19 99l30 89l2 12q0 19 -16 19q-10 0 -15.5 -4.5t-11.5 -12.5t-9 -8q-6 0 -9.5 8t-3.5 20q0 32 21.5 64t60.5 52.5t89 20.5q79 0 123 -38.5
t44 -97.5q0 -48 -22 -95l-26 -66q-5 -13 -5 -23q0 -14 8.5 -22.5t23.5 -8.5q40 0 72 40q-13 19 -19.5 35t-6.5 40q0 49 27.5 76t64.5 27q34 0 54 -21.5t20 -60.5q0 -37 -14 -74q46 0 81 33q9 10 14 10q10 0 10 -26z" />
    <glyph glyph-name="gjG" horiz-adv-x="369" 
d="M365.5 582.5q46.5 -50.5 46.5 -128.5q0 -76 -28 -134t-77 -90t-111 -32q-76 0 -122 37t-46 95q0 15 3.5 24t7.5 9q5 0 11 -7t12 -12t17 -5q19 0 36 20t27 51.5t10 63.5q0 17 -5 26t-13 9q-10 0 -21.5 -12t-16.5 -12q-6 0 -9 8t-3 18q0 31 20 59t55 45.5t77 17.5
q83 0 129.5 -50.5z" />
    <glyph glyph-name="gjGH" horiz-adv-x="398" 
d="M572.5 376q3.5 -7 3.5 -19q0 -18 -7 -39q-18 -50 -66 -94.5t-117 -71.5t-146 -27q-108 0 -161.5 38.5t-53.5 101.5q0 90 101 128q-39 37 -39 85q0 43 22 78t62.5 56t93.5 21q52 0 93.5 -17.5t65 -46t23.5 -61.5q0 -10 -4 -15.5t-11 -5.5t-15 5.5t-15 12.5q-10 9 -17.5 14
t-15.5 5q-13 0 -23.5 -10.5t-10.5 -27.5q0 -28 17 -42.5t48 -29.5q15 -6 22.5 -11t7.5 -11q0 -11 -15 -18t-44 -14q-42 -11 -64.5 -23.5t-22.5 -36.5q0 -37 60 -37q52 0 102.5 25.5t82.5 66.5q27 28 34 28q6 0 9.5 -7z" />
    <glyph glyph-name="gjNG" horiz-adv-x="549" 
d="M358 507.5q-7 -5.5 -23 -5.5q-30 0 -30 -31q0 -14 10.5 -30t36.5 -41q81 -77 113.5 -123.5t32.5 -96.5q0 -22 -6 -48q-15 -61 -76.5 -98t-154.5 -37q-78 0 -135.5 29t-88 79t-30.5 112q0 35 8.5 58t19.5 23q5 0 16.5 -7t24.5 -16q41 -29 76 -46t75 -17q43 0 67.5 19
t24.5 53q0 25 -20 47t-63 57q-52 42 -79.5 74.5t-27.5 73.5t29 69t76 28q34 0 64.5 -16.5t48.5 -41t18 -46.5q0 -16 -7 -21.5zM414.5 582q-25.5 -31 -25.5 -81q0 -37 24 -61t61 -24q41 0 66.5 31t25.5 81q0 37 -24 61t-61 24q-41 0 -66.5 -31zM144.5 -39.5
q26.5 -10.5 77.5 -46t160 -118.5q10 -7 10 -15q2 -20 -61 -24q-104 -3 -173.5 15.5t-103 51.5t-33.5 76q0 31 19.5 50t50.5 20q27 1 53.5 -9.5z" />
    <glyph glyph-name="gjC" horiz-adv-x="414" 
d="M562.5 287q21.5 -21 21.5 -53q0 -12 -5 -29q-14 -38 -52.5 -63.5t-93.5 -25.5q-126 0 -211 104q-30 -6 -64 -6q-41 0 -74 14t-52 38t-19 51q0 33 17 47.5t42 14.5q15 0 28 -5t29 -15q28 21 42.5 43.5t14.5 38.5q0 12 -6.5 19t-18.5 7q-13 0 -26 -8t-17 -8q-11 0 -11 17
q0 11 4 23q18 59 71 98t126 39t112 -41t39 -105q0 -20 -7 -52q-13 -52 -51.5 -100.5t-94.5 -78.5q45 -18 78 -18q36 0 58.5 15t43.5 39q8 9 15 15t13 6q27 0 48.5 -21z" />
    <glyph glyph-name="gjCH" horiz-adv-x="725" 
d="M712 525.5q34 -48.5 34 -123.5q0 -44 -12 -89q-22 -91 -85 -162t-156 -111t-203 -40q-82 0 -143 25t-93.5 69t-32.5 99q0 29 9 59q25 82 117 117q-44 36 -44 92q0 22 8 49q16 53 67 88t130 35q66 0 107.5 -31.5t41.5 -77.5q0 -25 -13.5 -39.5t-28.5 -14.5q-9 0 -13 15
q-7 30 -27 30q-10 0 -17.5 -7.5t-11.5 -20.5q-3 -10 -3 -21q0 -24 16.5 -39.5t44.5 -31.5q17 -9 24.5 -15t7.5 -13q0 -10 -18.5 -17.5t-65.5 -20.5q-35 -10 -53 -22.5t-24 -31.5q-2 -5 -2 -15q0 -28 35 -44t85 -16q44 0 86 13.5t77 36.5q-38 33 -57.5 74t-19.5 86q0 30 9 60
q16 50 47.5 77t78.5 27q64 0 98 -48.5zM640 380q0 22 -8.5 37t-23.5 15q-22 0 -31 -31q-4 -12 -4 -29q0 -21 8.5 -42t23.5 -36q20 25 30 55q5 17 5 31zM468 -219q2 -20 -61 -24q-104 -3 -173.5 15.5t-103 51.5t-33.5 76q0 31 19.5 50t50.5 20q27 1 53.5 -9.5t77.5 -46
t160 -118.5q10 -7 10 -15z" />
    <glyph glyph-name="gjJ" horiz-adv-x="544" 
d="M701 429q38 0 56 -20.5t18 -49.5q0 -11 -8 -26.5t-21.5 -27t-30.5 -11.5h-240q-19 0 -27 -1q39 -23 61.5 -64t22.5 -87q0 -16 -5 -38q-13 -52 -53.5 -80t-104.5 -28q-57 0 -101.5 26t-69 67.5t-24.5 88.5q0 25 7 47q15 47 49.5 80t95.5 54q-27 44 -46 63t-36 19
q-16 0 -24 -9.5t-8 -22.5t6.5 -24.5t6.5 -17.5q0 -15 -21 -15q-34 0 -66.5 19t-52.5 54t-20 80q0 58 33.5 93t86.5 35q62 0 115 -53.5t98 -199.5l44 8l235 39q18 2 24 2zM399 240l-12 17q-25 -17 -35 -48q-3 -12 -3 -22q0 -17 9 -28t24 -11q16 0 25 11.5t9 31.5q0 24 -17 49
z" />
    <glyph glyph-name="gjJH" horiz-adv-x="683" 
d="M757 551q-4 -10 -13 -27l-99 -172q25 -44 25 -96q0 -16 -1 -24q-7 -70 -39.5 -124t-82 -83t-106.5 -29q-77 0 -115.5 35t-38.5 86q0 16 3 29q5 24 17 24q5 0 10 -9t10.5 -15.5t13.5 -6.5q16 0 32 18.5t26.5 47.5t10.5 57q0 20 -7 32.5t-18 12.5q-15 0 -28 -16
q-30 -46 -78.5 -70.5t-110.5 -24.5q-77 0 -115.5 35t-38.5 86q0 16 3 29q5 24 17 24q5 0 10 -9t10.5 -15.5t13.5 -6.5q19 0 36 20t27 51.5t10 63.5q0 17 -5 26t-13 9q-10 0 -21.5 -12t-16.5 -12q-6 0 -9 8t-3 18q0 31 20 59t55 45.5t77 17.5q83 0 129.5 -50.5t46.5 -128.5
q0 -26 -3 -50q21 13 47 21l33 117q11 40 71 61t125 21q42 0 64.5 -14t22.5 -39q0 -10 -4 -20zM536 -219q2 -20 -61 -24q-104 -3 -173.5 15.5t-103 51.5t-33.5 76q0 31 19.5 50t50.5 20q27 1 53.5 -9.5t77.5 -46t160 -118.5q10 -7 10 -15z" />
    <glyph glyph-name="gjNY" horiz-adv-x="376" 
d="M554 370q10 -21 10 -51q0 -46 -29 -78t-72 -32q-61 0 -119 52q-28 -30 -66 -46.5t-82 -16.5q-76 0 -122 37t-46 95q0 15 3.5 24t7.5 9q5 0 11 -7t12 -12t17 -5q19 0 36 20t27 51.5t10 63.5q0 17 -5 26t-13 9q-10 0 -21.5 -12t-16.5 -12q-6 0 -9 8t-3 18q0 31 20 59
t55 45.5t77 17.5q83 0 129.5 -50.5t46.5 -128.5q0 -72 -27 -132q9 -2 26 -2q34 0 61 15.5t45 41.5q6 9 9.5 11.5t8.5 2.5q9 0 19 -21z" />
    <glyph glyph-name="gjTT" horiz-adv-x="546" 
d="M522.5 280.5q6.5 -14.5 6.5 -41.5q0 -66 -32 -121.5t-94 -88t-148 -32.5q-106 0 -170.5 43.5t-64.5 117.5q0 57 30 95t71 59.5t103 44.5q53 21 75.5 34t22.5 32q0 15 -9.5 24t-27.5 9q-13 0 -25 -6t-28 -16q-19 -14 -28 -14q-6 0 -10 6.5t-4 19.5q0 53 24.5 95.5t69.5 67
t105 24.5q74 0 120 -36t46 -91q0 -47 -26.5 -79t-64 -51.5t-94.5 -40.5q-56 -21 -82.5 -37t-26.5 -40q0 -26 19 -38t59 -12q44 0 73 17t59 46q13 13 20 18.5t14 5.5q11 0 17.5 -14.5zM151.5 -39.5q26.5 -10.5 77.5 -46t160 -118.5q10 -7 10 -15q2 -20 -61 -24
q-104 -3 -173.5 15.5t-103 51.5t-33.5 76q0 31 19.5 50t50.5 20q27 1 53.5 -9.5z" />
    <glyph glyph-name="gjTTH" horiz-adv-x="623" 
d="M435 419.5q11 -12.5 48 -38.5q62 -41 89 -78t27 -92q0 -56 -31 -106t-90 -81t-139 -31q-85 0 -157.5 31.5t-115.5 88t-43 128.5q0 31 7 59q21 79 85.5 120t151.5 41q-18 20 -27 37t-9 36q0 23 15.5 46t47 38t77.5 15q59 0 105.5 -22.5t72.5 -60.5t26 -83
q0 -13 -4.5 -21.5t-11.5 -8.5q-17 0 -51 17q-36 18 -55 18q-13 0 -21 -7.5t-8 -19.5q0 -13 11 -25.5zM306.5 329.5q-14.5 -28.5 -33.5 -107.5q-15 -66 -15 -90q0 -16 5 -22.5t16 -6.5q21 0 35 24.5t31 94.5q17 77 17 104q0 18 -5 25t-16 7q-20 0 -34.5 -28.5zM178.5 -39.5
q26.5 -10.5 77.5 -46t160 -118.5q10 -7 10 -15q2 -20 -61 -24q-104 -3 -173.5 15.5t-103 51.5t-33.5 76q0 31 19.5 50t50.5 20q27 1 53.5 -9.5z" />
    <glyph glyph-name="gjDD" horiz-adv-x="509" 
d="M371.5 608q47.5 -25 73.5 -64.5t26 -81.5q0 -19 -6 -30.5t-14 -11.5q-11 0 -30 17q-15 12 -26 18t-25 6t-22 -8.5t-8 -23.5q0 -16 13.5 -31.5t42.5 -39.5q49 -43 76.5 -80t27.5 -89t-28.5 -96t-80.5 -70t-119 -26q-83 0 -143 29t-91 79t-31 112q0 35 8.5 58t19.5 23
q5 0 16.5 -7t24.5 -16q41 -29 76 -46t75 -17q43 0 67.5 19t24.5 53q0 25 -21 47.5t-66 57.5q-53 42 -80 72.5t-27 68.5q0 46 35.5 74.5t100.5 28.5q63 0 110.5 -25zM144.5 -39.5q26.5 -10.5 77.5 -46t160 -118.5q10 -7 10 -15q2 -20 -61 -24q-104 -3 -173.5 15.5t-103 51.5
t-33.5 76q0 31 19.5 50t50.5 20q27 1 53.5 -9.5z" />
    <glyph glyph-name="gjDDH" horiz-adv-x="616" 
d="M521 612.5q49 -18.5 75.5 -50.5t26.5 -71q0 -19 -5 -34q-7 -23 -25 -40.5t-55 -35.5t-103 -41q-108 -38 -156.5 -71.5t-59.5 -70.5q-6 -21 -6 -38q0 -28 14.5 -46t39.5 -26q-3 18 -3 34q0 23 7 49q20 61 79 95t125 34q71 0 110.5 -34.5t39.5 -85.5q0 -23 -7 -43
q-22 -70 -107.5 -107t-186.5 -37q-87 0 -157 30t-109.5 85t-39.5 126q0 126 150 212q46 26 64 38t22 18t4 16q0 9 -4.5 15t-13.5 14t-12.5 13.5t-0.5 12.5q7 23 61 40.5t118 17.5q66 0 115 -18.5zM343 81q36 0 61 10.5t25 35.5q0 12 -8.5 20.5t-22.5 8.5q-17 0 -31 -10.5
t-20 -29.5q-6 -18 -4 -35zM191.5 -39.5q26.5 -10.5 77.5 -46t160 -118.5q10 -7 10 -15q2 -20 -61 -24q-104 -3 -173.5 15.5t-103 51.5t-33.5 76q0 31 19.5 50t50.5 20q27 1 53.5 -9.5z" />
    <glyph glyph-name="gjNN" horiz-adv-x="730" 
d="M723 582.5q46 -50.5 46 -128.5q0 -76 -28 -134t-77 -90t-111 -32q-75 0 -121 37t-46 95q0 16 3.5 24.5t9.5 8.5q4 0 10 -7.5t11.5 -12t15.5 -4.5q19 0 36 20t27.5 51.5t10.5 63.5q0 35 -18 35q-7 0 -12.5 -4t-12.5 -12t-11 -8q-6 0 -9.5 8t-3.5 18q0 31 19.5 59
t54.5 45.5t78 17.5q82 0 128 -50.5zM387 610.5q16 -13.5 16 -35.5q0 -13 -6 -33l-90 -280q-5 -17 -5 -26q0 -15 13.5 -25.5t47.5 -22.5l204 -70q81 -29 121.5 -69.5t40.5 -100.5q0 -41 -21 -75t-58 -54t-84 -20q-51 0 -89.5 21t-59 56t-20.5 76q0 16 4.5 25t11.5 9
q6 0 22 -6t32 -6q23 0 36 9.5t13 28.5q0 14 -11 23t-41 19l-323 112q-49 17 -72 41t-23 60q0 25 10 55l69 220q13 39 75 60.5t126 21.5q45 0 61 -13.5z" />
    <glyph glyph-name="gjT" horiz-adv-x="377" 
d="M441 432.5q51 -15.5 83 -38t32 -42.5q0 -7 -4.5 -12t-12.5 -5q-16 0 -45 9q-15 4 -32.5 7.5t-32.5 3.5q-52 0 -92.5 -32.5t-55.5 -84.5q-7 -22 -7 -43q0 -26 11.5 -41.5t26.5 -15.5q8 0 14 4t14.5 12.5t14.5 8.5q14 0 14 -26q0 -16 -6 -34q-14 -48 -56.5 -77t-98.5 -29
q-53 0 -94.5 23.5t-64.5 65.5t-23 96q0 38 12 78q27 88 103 138t196 50q53 0 104 -15.5z" />
    <glyph glyph-name="gjTH" horiz-adv-x="465" 
d="M639 371q4 -6 4 -18q0 -14 -9 -40q-16 -50 -56.5 -93t-104 -69t-143.5 -26q-88 0 -157 24.5t-106.5 64.5t-37.5 85q0 16 10 28t38 24.5t83 29.5q2 1 36 13q-47 11 -75 39t-28 66q0 35 23 65.5t66.5 49.5t102.5 19q73 0 127.5 -24t83 -63.5t28.5 -84.5q0 -55 -30.5 -95
t-91.5 -71l-54 -28q-12 -4 -12 -10q0 -5 15 -8t39 -3q64 0 119 26.5t101 88.5q5 7 9.5 11.5t9.5 4.5q6 0 10 -6zM236 447.5q11 -11.5 31 -15.5q21 20 21 43q0 17 -9.5 25t-21.5 8t-22 -9.5t-10 -24.5t11 -26.5z" />
    <glyph glyph-name="gjD" horiz-adv-x="502" 
d="M481 188q0 -46 -29.5 -89.5t-81 -71t-114.5 -27.5q-73 0 -126.5 27.5t-81.5 74t-28 102.5q0 60 32 103t92 65q-32 32 -32 81q0 53 27 93.5t74 63t107 22.5q72 0 111 -32t39 -77q0 -26 -13.5 -41.5t-36.5 -15.5q-5 0 -6.5 3.5t-2.5 15.5q-3 29 -25 29q-17 0 -25.5 -13
t-8.5 -37q0 -28 16.5 -42.5t46.5 -28.5q30 -12 30 -23q0 -9 -20 -17t-64 -19q-44 -10 -67.5 -26.5t-23.5 -44.5q0 -30 21.5 -45.5t58.5 -15.5q34 0 56 5t39 11.5t21 6.5q15 0 15 -37zM389 -219q2 -20 -61 -24q-104 -3 -173.5 15.5t-103 51.5t-33.5 76q0 31 19.5 50t50.5 20
q27 1 53.5 -9.5t77.5 -46t160 -118.5q10 -7 10 -15z" />
    <glyph glyph-name="gjDH" horiz-adv-x="392" 
d="M525.5 386q3.5 -7 3.5 -19q0 -19 -8 -39q-17 -51 -57 -97.5t-98.5 -76t-128.5 -29.5q-66 0 -114 20t-72.5 53.5t-24.5 72.5q0 17 7 41q12 37 44.5 67t80.5 43q-55 44 -55 100q0 20 6 39q14 45 52.5 86t86 65.5t88.5 24.5q31 0 65.5 -15.5t57 -39.5t22.5 -48
q0 -18 -13.5 -31t-57.5 -40q-30 -19 -40.5 -28t-12.5 -16q-3 -13 6 -24.5t31 -29.5q18 -15 26 -23.5t8 -17.5q0 -11 -15 -21.5t-45 -26.5q-32 -16 -50 -28t-23 -27q-3 -7 -3 -15q0 -18 15.5 -30.5t40.5 -12.5q41 0 70 24.5t65 77.5q19 28 34 28q5 0 8.5 -7z" />
    <glyph glyph-name="gjN" horiz-adv-x="346" 
d="M381 465.5q61 -26.5 99 -64t38 -68.5q0 -20 -13 -20q-8 0 -34 17q-30 20 -59.5 33t-66.5 13q-34 0 -56 -18.5t-22 -50.5q0 -20 9.5 -29.5t21.5 -9.5q7 0 12.5 4t13 12.5t12.5 8.5t8.5 -10t3.5 -22q0 -37 -21.5 -68.5t-58 -49.5t-78.5 -18q-75 0 -124.5 45t-49.5 120
q0 60 31 106t85.5 71t122.5 25q65 0 126 -26.5z" />
    <glyph glyph-name="gjP" horiz-adv-x="387" 
d="M358 595q40 -38 40 -98q0 -48 -22 -96l-24 -65q-7 -18 -7 -33q0 -36 38 -36q46 0 85 57q10 16 21 16q8 0 13 -9t5 -25q0 -5 -2 -23q-9 -39 -43 -75.5t-84.5 -59.5t-107.5 -23q-97 0 -146 40t-49 109q0 36 21 99l28 89l2 12q0 19 -13 19q-9 0 -15 -4.5t-13 -12.5t-11 -8
q-5 0 -8 8t-3 20q0 33 20.5 64.5t61.5 52t97 20.5q76 0 116 -38z" />
    <glyph glyph-name="gjPH" horiz-adv-x="532" 
d="M644 378q77 0 77 -55q0 -32 -50 -32h-260q105 -57 105 -141q0 -45 -27.5 -80t-78 -54.5t-117.5 -19.5q-54 0 -95 10q13 -31 41 -46.5t61 -15.5q29 0 47.5 6t33.5 14.5t19 8.5q14 0 26 -22.5t12 -54.5q0 -61 -36 -98.5t-98 -37.5q-51 0 -92 25.5t-64 71.5t-23 107
q0 31 6 64q-53 24 -82 62t-29 81q0 16 5 34q7 22 22.5 34t36.5 12q58 0 84 -79q9 -1 27 -1q49 0 82.5 16t33.5 51q0 22 -15 38l-34 -10q-45 -13 -57 -13q-21 0 -46 10t-42.5 25.5t-17.5 30.5q0 14 10.5 24t34.5 10h87q-33 23 -53.5 55t-20.5 68q0 41 21 77t61 58t96 22
q60 0 101 -22.5t61 -59t20 -78.5q0 -21 -6.5 -33t-14.5 -12q-9 0 -31 9q-21 9 -38.5 14t-39.5 5q-33 0 -50.5 -16t-19.5 -43q-1 -25 19 -41l286 21q8 1 22 1z" />
    <glyph glyph-name="gjB" horiz-adv-x="535" 
d="M653 349v-49q0 -32 -11 -47t-35 -15q-34 0 -77 17q-33 -59 -98.5 -94.5t-146.5 -35.5q-67 0 -120.5 25t-84.5 73.5t-31 115.5q0 87 35.5 154t97.5 103.5t140 36.5q51 0 89 -13t58 -32t20 -35q0 -14 -18 -14q-43 0 -80 -20.5t-59.5 -60t-22.5 -93.5q0 -43 19 -67t48 -24
q32 0 55 26q-21 22 -30.5 42t-9.5 48q0 37 20 58.5t53 21.5q40 0 66 -30t26 -83q0 -13 -1 -19q26 -1 40 6t26 20q11 11 18 11q14 0 14 -26z" />
    <glyph glyph-name="gjBH" horiz-adv-x="626" 
d="M835 408q0 -7 -1 -11q-9 -45 -62 -45h-140q-21 -55 -52 -78.5t-78 -23.5q-43 0 -86.5 21t-72 54t-28.5 65q0 21 15 36.5t41 15.5h19l16 50q1 5 5 17.5t4 20.5q0 20 -26 20q-30 0 -65 -30t-59 -80t-24 -107q0 -78 55 -118.5t150 -40.5q39 0 63 7.5t40.5 16.5t21.5 9
q4 0 6.5 -6t2.5 -16q0 -43 -31 -87t-91 -72.5t-142 -28.5q-136 0 -215 61.5t-79 174.5q0 95 51 187.5t148 152.5t228 60q95 0 151.5 -45t56.5 -124q0 -15 -1 -22h135q44 0 44 -34z" />
    <glyph glyph-name="gjM" horiz-adv-x="355" 
d="M576.5 348.5q11.5 -8.5 11.5 -24.5q0 -3 -2 -13q-4 -22 -20.5 -34t-41.5 -12h-189q-23 -76 -56 -108t-85 -32q-41 0 -81.5 23t-67 61t-26.5 80q0 14 3 29q6 17 20.5 28t35.5 11h14l32 105l2 12q0 19 -13 19q-9 0 -15 -4.5t-13 -12.5t-11 -8q-5 0 -8 8t-3 20
q0 33 20.5 64.5t61.5 52t97 20.5q76 0 116 -38t40 -98q0 -17 -4 -34.5t-9.5 -35t-7.5 -25.5l-14 -45h180q22 0 33.5 -8.5z" />
    <glyph glyph-name="gjY" horiz-adv-x="434" 
d="M147 155q-60 30 -94 77.5t-34 97.5q0 18 4 31q5 18 17 29.5t41 23.5l102 41q44 18 44 39q0 10 -5 15.5t-14 5.5q-11 0 -22 -8q-7 -5 -12 -5q-12 0 -12 19q0 14 7 32q12 31 46.5 55.5t88.5 24.5q52 0 91 -21.5t60 -59t21 -82.5q0 -26 -5 -45q-11 -46 -46.5 -75t-106.5 -57
l-41 -16q-11 -4 -11 -10q0 -8 18 -14.5t45 -6.5q79 0 125.5 22.5t82.5 81.5q12 19 18.5 25t11.5 6q16 0 16 -29q0 -54 -40.5 -106.5t-109.5 -86.5t-151 -34q-75 0 -135 30z" />
    <glyph glyph-name="gjR" horiz-adv-x="468" 
d="M358.5 291q-77.5 -55 -172.5 -68q31 -40 89 -40q25 0 46 10t46 27q23 16 30 16q13 0 21 -19t8 -51q0 -43 -17 -81.5t-52.5 -63t-87.5 -24.5q-56 0 -96.5 30.5t-61 82.5t-16.5 112q-42 8 -69 31.5t-27 55.5q0 11 5 26q7 22 25 33t38 11q31 0 66 -23q24 18 40 38.5t20 35.5
q1 4 1 11q0 12 -6.5 19t-18.5 7q-13 0 -26 -8t-17 -8q-11 0 -11 17q0 11 4 23q18 59 71 98t126 39t111.5 -41t38.5 -104q0 -26 -8 -58q-22 -79 -99.5 -134zM361 -219q2 -20 -61 -24q-104 -3 -173.5 15.5t-103 51.5t-33.5 76q0 31 19.5 50t50.5 20q27 1 53.5 -9.5t77.5 -46
t160 -118.5q10 -7 10 -15z" />
    <glyph glyph-name="gjL" horiz-adv-x="460" 
d="M431 622q31 -11 46.5 -26.5t15.5 -29.5q0 -10 -6 -12.5t-24 -5.5q-41 -6 -77 -33.5t-58.5 -72.5t-22.5 -101q0 -46 23 -69t57 -23q12 0 26.5 3.5t18.5 3.5q9 0 9 -13q0 -24 -25.5 -52t-67.5 -47t-89 -19q-58 0 -106.5 24t-77.5 70t-29 109q0 80 40.5 150.5t112 112.5
t159.5 42q44 0 75 -11zM624 461q0 -13 -18 -34q-59 -58 -88.5 -84t-48.5 -35.5t-40 -9.5q-30 0 -48 19t-18 52q0 25 10 46.5t24 34.5t25 13q6 0 9.5 -4t7.5 -11q5 -9 10 -13.5t14 -4.5q13 0 37.5 8.5t73.5 27.5q25 9 36 9q14 0 14 -14z" />
    <glyph glyph-name="gjV" horiz-adv-x="370" 
d="M411 617q36 -16 52.5 -38t16.5 -41q0 -11 -5.5 -15.5t-18.5 -4.5q-65 0 -106 -44.5t-41 -112.5q0 -45 27 -69.5t70 -24.5q41 0 72.5 23t49.5 65q7 14 20 14q16 0 16 -26q0 -14 -6 -35q-15 -53 -53 -94.5t-91.5 -65t-113.5 -23.5q-70 0 -127 26t-90.5 76.5t-33.5 120.5
q0 78 35 143.5t97 103.5t139 38q55 0 91 -16z" />
    <glyph glyph-name="gjSH" horiz-adv-x="406" 
d="M419 335q-39 -45 -96.5 -76t-122.5 -38q30 -38 88 -38q25 0 46 10t46 27q23 16 30 16q13 0 21 -19t8 -51q0 -43 -17 -81.5t-52.5 -63t-87.5 -24.5q-53 0 -92.5 27.5t-60.5 75t-21 104.5q0 15 1 22q-49 12 -78 41t-29 63q0 26 15 44t39 19q38 3 67 -32q26 11 47 23
q-33 19 -52.5 45.5t-19.5 58.5q0 37 23 69t67.5 51.5t107.5 19.5q79 0 129.5 -43t50.5 -112q0 -21 -6 -45q-12 -48 -51 -93zM234 492.5q-6 9.5 -19 9.5q-11 0 -19.5 -9.5t-8.5 -26.5q0 -30 31 -47q18 22 21 44q1 20 -5 29.5z" />
    <glyph glyph-name="gjSS" horiz-adv-x="386" 
d="M118 165q-43 40 -43 109q0 36 21 99l28 89l2 12q0 19 -13 19q-9 0 -15 -4.5t-13 -12.5t-11 -8q-5 0 -8 8t-3 20q0 33 20.5 64.5t61.5 52t97 20.5q108 0 156 -106l95 -209q8 -19 8 -33q0 -26 -23 -46q-114 -114 -233 -114q-84 0 -127 40zM411.5 274q12.5 7 20.5 19
l-52 118l-28 -75q-7 -21 -7 -33q0 -17 10 -26.5t31 -9.5q13 0 25.5 7z" />
    <glyph glyph-name="gjS" horiz-adv-x="433" 
d="M587 417.5q7 -15.5 7 -44.5q0 -45 -20.5 -73t-63.5 -28q-57 0 -132 34q-39 -33 -89 -54t-103 -29q31 -40 89 -40q25 0 46 10t46 27q23 16 30 16q13 0 21 -19t8 -51q0 -43 -17 -81.5t-52.5 -63t-87.5 -24.5q-56 0 -96.5 30.5t-61 82.5t-16.5 112q-42 8 -69 31.5t-27 55.5
q0 11 5 26q7 22 25 33t38 11q31 0 66 -23q24 18 40 38.5t20 35.5q1 4 1 11q0 12 -6.5 19t-18.5 7q-13 0 -26 -8t-17 -8q-11 0 -11 17q0 11 4 23q18 59 71 98t126 39t111.5 -41t38.5 -104q0 -26 -8 -58q-8 -29 -26 -58q80 -4 114 46q7 11 12 15.5t11 4.5q11 0 18 -15.5z" />
    <glyph glyph-name="gjH" horiz-adv-x="562" 
d="M732.5 324q23.5 -13 23.5 -43q0 -32 -51 -32h-299q-98 0 -141.5 -23t-43.5 -67q0 -34 33 -55.5t95 -21.5q46 0 78.5 9t65.5 23q26 12 35 12q8 0 13 -9t5 -25q0 -25 -10 -59q-21 -76 -89 -127.5t-183 -51.5q-78 0 -136 29t-88.5 78.5t-30.5 109.5q0 33 11 71q22 71 85 112
t161 59q-61 23 -91.5 63t-30.5 86q0 18 5 38q18 63 83.5 98t173.5 35q74 0 126.5 -18.5t79.5 -49t27 -65.5q0 -8 -4 -24q-10 -34 -48.5 -56.5t-89.5 -22.5q-36 0 -61.5 8.5t-37.5 20.5t-10 21q2 6 10 11t13 10t5 15q0 11 -10 18t-24 7q-19 0 -32.5 -12t-20.5 -35
q-5 -17 -5 -33q0 -40 29 -69t95 -30l208 7q53 1 76.5 -12z" />
    <glyph glyph-name="gjLL" horiz-adv-x="563" 
d="M689.5 497q-8.5 2 -11.5 3q-18 6 -30 6q-18 0 -32 -12.5t-30 -49.5l-80 -169q-37 -78 -87.5 -114t-129.5 -36q-64 0 -118 26t-86.5 77.5t-32.5 124.5q0 81 32.5 145t92.5 99.5t138 35.5q50 0 87 -16t56.5 -38t19.5 -38q0 -12 -6.5 -17t-22.5 -6q-66 -4 -102.5 -54.5
t-36.5 -122.5q0 -34 14 -51.5t39 -17.5q22 0 39.5 18t37.5 59l55 114q40 84 91 122.5t130 38.5q52 0 84.5 -10.5t32.5 -29.5q0 -5 -1 -8q-2 -8 -11.5 -17.5t-33.5 -27.5q-57 -36 -80 -36q-9 0 -17.5 2z" />
    <glyph glyph-name="gjK_SS" horiz-adv-x="552" 
d="M676 377.5q7 -15.5 7 -44.5q0 -46 -21 -77.5t-63 -31.5q-40 0 -87 16t-113 53q-74 -35 -112.5 -59t-52 -43t-13.5 -40q0 -37 50 -55q24 53 62 80t78 27q38 0 61.5 -22.5t23.5 -57.5q0 -16 -4 -29q-11 -41 -48.5 -69t-100.5 -34q23 -52 82 -52q27 0 63 12q15 5 20 5
q6 0 10 -9.5t4 -24.5q0 -23 -9 -54q-17 -54 -51.5 -85t-78.5 -31q-67 0 -106 56.5t-39 140.5q0 16 4 50q-104 15 -167.5 68t-63.5 130q0 76 51 132.5t160 95.5q-31 28 -31 70q0 36 23 68t66.5 51t104.5 19q65 0 112 -21t71 -55.5t24 -73.5q0 -44 -22.5 -77t-82.5 -69
q33 -5 53 -5q67 0 95 41q7 11 12 15.5t11 4.5q11 0 18 -15.5zM370.5 475.5q15.5 11.5 15.5 30.5q0 13 -8.5 20.5t-23.5 7.5q-23 0 -40 -15.5t-17 -37.5q0 -10 6.5 -17.5t15.5 -9.5q36 10 51.5 21.5z" />
    <glyph glyph-name="gjJ_NY" horiz-adv-x="487" 
d="M617 537q41 0 61.5 -25.5t20.5 -56.5q0 -17 -15.5 -34t-39.5 -17h-294q-36 0 -36 -25q0 -15 14 -30t46 -40q51 -41 79.5 -75.5t28.5 -82.5q0 -20 -6 -43q-15 -52 -68.5 -82t-131.5 -30q-49 0 -91 12q18 -32 59.5 -48t86.5 -16q40 0 66.5 10t44 22t21.5 12q14 0 27 -24.5
t13 -56.5q0 -63 -42 -105t-115 -42q-68 0 -120.5 31t-81.5 87t-29 129q0 19 1 29q-47 26 -74.5 64t-27.5 78q0 14 5 32q15 51 66 51q40 0 69.5 -35t29.5 -96l-1 -17q25 3 36.5 19t11.5 46q0 27 -12.5 51.5t-36.5 57.5q-21 29 -32 50t-11 43q0 7 4 23q13 41 51 64t109 32
l298 37q6 1 16 1z" />
    <glyph glyph-name="gjK_RA" horiz-adv-x="526" 
d="M317.5 486q-20.5 -13 -26.5 -34q-2 -6 -2 -16t6 -21q17 7 38 17q25 12 41 17.5t30 5.5q15 0 34.5 -12t33 -28.5t13.5 -29.5q0 -37 -52 -34l-85 6q83 -42 125 -83t42 -96q0 -49 -31 -90.5t-93.5 -66t-151.5 -24.5q-79 0 -130.5 22t-74.5 57t-23 74q0 21 6 39
q8 26 25.5 45.5t29.5 19.5q6 0 14 -6t16 -15q24 -23 48 -37t60 -14q48 0 73.5 21t25.5 58q0 28 -18 52l-10 -36q-9 -29 -26 -40t-48 -11q-26 0 -41.5 11t-15.5 27q0 20 23 36l65 46q-40 -17 -55 -22t-37 -6q-30 -1 -54 19.5t-24 44.5q0 16 10.5 29.5t35.5 10.5l90 -10
q-49 40 -49 92q0 17 6 35q13 43 57.5 68.5t112.5 25.5q54 0 97.5 -18.5t68 -48.5t24.5 -63q0 -8 -1 -12q-1 -10 -7.5 -15.5t-15.5 -5.5q-10 0 -24 4.5t-17 5.5q-51 19 -89 19q-29 0 -49.5 -13z" />
    <glyph glyph-name="gjKH_RA" horiz-adv-x="929" 
d="M845 169q-3 -7 -3 -14q0 -8 4.5 -12.5t11.5 -4.5q8 0 14 4t13 12.5t11 8.5q6 0 9.5 -8.5t3.5 -18.5q0 -32 -22.5 -64.5t-62 -53.5t-89.5 -21q-67 0 -106 27t-51 71q-48 -94 -99.5 -135.5t-111.5 -41.5q-65 0 -99.5 35.5t-34.5 86.5q0 22 6 41q8 27 24 42t30 15
q9 0 24 -12q20 -13 36.5 -20t41.5 -7q54 0 104 34t88 109q-28 5 -59 20q-43 -45 -106.5 -70.5t-134.5 -25.5q-197 0 -197 149q0 44 19 99l16 48l2 12q0 19 -16 19q-10 0 -15.5 -4.5t-11.5 -12.5t-9 -8q-6 0 -9.5 8t-3.5 20q0 32 21.5 64t60.5 52.5t89 20.5q79 0 123 -38.5
t44 -97.5q0 -38 -22 -95l-20 -50q-5 -13 -5 -22q0 -15 9.5 -23.5t27.5 -8.5t32 5.5t29 17.5q-13 20 -19.5 36t-6.5 40q0 49 27.5 76t64.5 27q34 0 54 -21.5t20 -60.5q0 -35 -11 -70q40 2 59 40l48 154q13 39 75 60.5t127 21.5q45 0 60 -13.5t15 -35.5q0 -13 -6 -33z" />
    <glyph glyph-name="gjG_RA" horiz-adv-x="756" 
d="M64.5 231q-38.5 35 -38.5 86q0 16 3 29q5 24 17 24q5 0 10 -9t10.5 -15.5t13.5 -6.5q19 0 36 20t27 51.5t10 63.5q0 17 -5 26t-13 9q-10 0 -21.5 -12t-16.5 -12q-6 0 -9 8t-3 18q0 31 20 59t55 45.5t77 17.5q83 0 129.5 -50.5t46.5 -128.5q0 -77 -28 -135.5t-81 -90.5
t-124 -32q-77 0 -115.5 35zM665 169q-2 -10 -2 -13q0 -18 15 -18q9 0 15 4.5t13 12.5t10 8q5 0 8.5 -8.5t3.5 -18.5q0 -32 -22 -64.5t-61 -53.5t-88 -21q-68 0 -107 26.5t-51 70.5q-48 -93 -100 -134.5t-111 -41.5q-65 0 -99.5 35.5t-34.5 86.5q0 22 6 41q8 27 24 42t30 15
q9 0 24 -12q20 -13 36.5 -20t41.5 -7q64 0 123 48t92 151l78 244q12 39 74 60.5t127 21.5q43 0 59 -13.5t16 -35.5q0 -7 -6 -33z" />
    <glyph glyph-name="gjGH_RA" horiz-adv-x="769" 
d="M685 169q-3 -7 -3 -14q0 -8 4.5 -12.5t12.5 -4.5t14 4.5t12.5 12.5t10.5 8q6 0 9.5 -8t3.5 -19q0 -32 -22.5 -64.5t-62 -53.5t-88.5 -21q-82 0 -121.5 39.5t-39.5 100.5q0 11 1 17q-50 -133 -105 -184.5t-122 -51.5q-63 0 -98.5 36t-35.5 87q0 21 6 40q7 21 22 36.5
t28 15.5q8 0 19 -9q14 -10 27.5 -16t39.5 -6q39 0 72.5 21t57.5 58q-47 -19 -125 -19q-56 0 -95 16.5t-59 44t-20 59.5q0 14 5 32q18 56 90 80q-18 17 -28 39t-10 45q0 43 22 78t62.5 56t93.5 21q52 0 93.5 -17.5t65 -46t23.5 -61.5q0 -10 -4 -15.5t-11 -5.5t-15 5.5
t-15 12.5q-10 9 -17.5 14t-15.5 5q-13 0 -23.5 -10.5t-10.5 -27.5q0 -26 16 -39.5t45 -26.5q17 -6 25.5 -12t8.5 -14q0 -13 -16 -20t-53 -18q-35 -9 -55.5 -17.5t-25.5 -22.5q-2 -8 -2 -12q0 -28 57 -28q47 0 84 27t58 71l52 168q14 39 76 60.5t127 21.5q44 0 59.5 -13.5
t15.5 -35.5q0 -11 -5 -33z" />
    <glyph glyph-name="gjC_RA" horiz-adv-x="794" 
d="M708 169q-2 -10 -2 -13q0 -18 17 -18q8 0 14 4.5t12.5 12.5t10.5 8q5 0 9.5 -8.5t4.5 -18.5q0 -32 -22.5 -64.5t-62 -53.5t-88.5 -21q-61 0 -98 21t-53 58q-26 -76 -82 -117t-129 -41q-64 0 -99 36t-35 87q0 21 6 40q8 27 24 42t30 15q9 0 24 -12q20 -13 36.5 -20
t41.5 -7q58 0 98 30q-84 22 -141 92q-29 -7 -66 -7q-41 0 -74 14t-52 38t-19 51q0 33 17 47.5t42 14.5q15 0 28 -5t29 -15q28 21 42.5 43.5t14.5 38.5q0 12 -6.5 19t-18.5 7q-13 0 -26 -8t-17 -8q-11 0 -11 17q0 11 4 23q18 59 71 98t126 39t112 -41t39 -105q0 -20 -7 -52
q-13 -52 -51 -100t-94 -78q45 -19 80 -19t57.5 20t35.5 58l72 231q13 39 75 60.5t127 21.5q44 0 59.5 -13.5t15.5 -35.5q0 -13 -6 -33z" />
    <glyph glyph-name="gjCH_RA" horiz-adv-x="725" 
d="M712 525.5q34 -48.5 34 -123.5q0 -44 -12 -89q-29 -117 -122.5 -199t-225.5 -106l49 -31q46 -30 46 -67q0 -30 -22.5 -49.5t-66.5 -19.5q-42 0 -65 18.5t-35 54.5l-29 86l-75 -93q-20 -25 -40.5 -36.5t-45.5 -11.5q-32 0 -55 16.5t-23 44.5q0 25 18 41.5t69 35.5l56 21
q-70 22 -108 68.5t-38 106.5q0 29 9 59q25 82 117 117q-44 36 -44 92q0 22 8 49q16 53 67 88t130 35q66 0 107.5 -31.5t41.5 -77.5q0 -25 -13.5 -39.5t-28.5 -14.5q-9 0 -13 15q-7 30 -27 30q-10 0 -17.5 -7.5t-11.5 -20.5q-3 -10 -3 -21q0 -24 16.5 -39.5t44.5 -31.5
q17 -9 24.5 -15t7.5 -13q0 -10 -18.5 -17.5t-65.5 -20.5q-35 -10 -53 -22.5t-24 -31.5q-2 -5 -2 -15q0 -28 35 -44t85 -16q44 0 86 13.5t77 36.5q-38 33 -57.5 74t-19.5 86q0 30 9 60q16 50 47.5 77t78.5 27q64 0 98 -48.5zM640 380q0 22 -8.5 37t-23.5 15q-22 0 -31 -31
q-4 -12 -4 -29q0 -21 8.5 -42t23.5 -36q20 25 30 55q5 17 5 31z" />
    <glyph glyph-name="gjJ_RA" horiz-adv-x="785" 
d="M789 642.5q37 -20.5 56.5 -54.5t19.5 -74q0 -70 -48 -117t-147 -94l-100 -47q36 -16 58 -47t22 -70q0 -15 -5 -37q-12 -48 -54 -76.5t-106 -28.5q-53 0 -92.5 19.5t-60.5 52.5t-21 72q0 33 16 66.5t58 77.5l35 37l-38 44l-84 -118q-18 -25 -38.5 -36t-47.5 -11
q-29 0 -46.5 15.5t-17.5 36.5q0 12 6 23t18 19l168 116q-20 19 -38.5 27.5t-40.5 8.5q-27 0 -39.5 -11.5t-12.5 -26.5q0 -7 2 -15.5t2 -12.5q0 -15 -21 -15q-30 0 -60 15t-50 44.5t-20 69.5q0 60 40 99t106 39q79 0 144 -58.5t123 -194.5l90 95q18 19 24.5 30t6.5 24
q0 10 -4.5 15.5t-16.5 14.5q-10 7 -14.5 12t-4.5 12q0 14 17.5 33.5t50.5 33t78 13.5q50 0 87 -20.5zM512 145q9 10 9 26q0 24 -22 50q-43 -25 -43 -53q0 -15 9 -24t24 -9q14 0 23 10z" />
    <glyph glyph-name="gjJH_RA" horiz-adv-x="801" 
d="M766 338.5q31 -51.5 31 -111.5q0 -34 -12 -72q-24 -76 -78.5 -117.5t-126.5 -41.5q-42 0 -74.5 19t-50 47.5t-17.5 54.5q0 10 3 17q4 13 12 13q3 0 11.5 -4t18.5 -4q19 0 36.5 15.5t26.5 41.5q10 30 10 58q0 31 -12 55l-17 -51q-25 -73 -90 -73q-25 0 -40 14t-15 36
q0 30 27 56l68 66q-4 1 -13 1q-31 0 -54.5 -14.5t-48.5 -46.5q-30 -48 -79.5 -74.5t-113.5 -26.5q-77 0 -115.5 35t-38.5 86q0 16 3 29q5 24 17 24q5 0 10 -9t10.5 -15.5t13.5 -6.5q19 0 36 20t27 51.5t10 63.5q0 17 -5 26t-13 9q-10 0 -21.5 -12t-16.5 -12q-6 0 -9 8t-3 18
q0 31 20 59t55 45.5t77 17.5q83 0 129.5 -50.5t46.5 -128.5q0 -15 -1 -23q29 14 61 21l25 90q11 40 71 61t125 21q42 0 64.5 -14t22.5 -39q0 -24 -19 -50l-69 -100q54 -31 85 -82.5z" />
    <glyph glyph-name="gjTT_RA" horiz-adv-x="546" 
d="M522.5 280.5q6.5 -14.5 6.5 -41.5q0 -84 -50 -147.5t-140 -84.5l46 -30q46 -30 46 -67q0 -30 -22.5 -49.5t-66.5 -19.5q-42 0 -65 18.5t-35 54.5l-29 85h-1l-74 -92q-20 -25 -40.5 -36.5t-45.5 -11.5q-32 0 -55 16.5t-23 44.5q0 25 18 41.5t69 35.5l62 23
q-49 21 -76 56.5t-27 81.5q0 57 30 95t71 59.5t103 44.5q53 21 75.5 34t22.5 32q0 15 -9.5 24t-27.5 9q-13 0 -25 -6t-28 -16q-19 -14 -28 -14q-6 0 -10 6.5t-4 19.5q0 53 24.5 95.5t69.5 67t105 24.5q74 0 120 -36t46 -91q0 -47 -26.5 -79t-64 -51.5t-94.5 -40.5
q-56 -21 -82.5 -37t-26.5 -40q0 -26 19 -38t59 -12q44 0 73 17t59 46q13 13 20 18.5t14 5.5q11 0 17.5 -14.5z" />
    <glyph glyph-name="gjTTH_RA" horiz-adv-x="623" 
d="M575.5 117.5q-23.5 -44.5 -69 -76.5t-107.5 -43l32 -21q46 -30 46 -67q0 -30 -22.5 -49.5t-66.5 -19.5q-42 0 -65 18.5t-35 54.5l-29 86l-75 -93q-20 -25 -40.5 -36.5t-45.5 -11.5q-32 0 -55 16.5t-23 44.5q0 25 18 41.5t69 35.5l74 28q-73 31 -115.5 87.5t-42.5 128.5
q0 31 7 59q21 79 85.5 120t151.5 41q-18 20 -27 37t-9 36q0 23 15.5 46t47 38t77.5 15q59 0 105.5 -22.5t72.5 -60.5t26 -83q0 -13 -4.5 -21.5t-11.5 -8.5q-17 0 -51 17q-36 18 -55 18q-13 0 -21 -7.5t-8 -19.5q0 -13 11 -25.5t48 -38.5q62 -41 89 -78t27 -92
q0 -49 -23.5 -93.5zM258 132q0 -16 5 -22.5t16 -6.5q21 0 35 24.5t31 94.5q17 77 17 104q0 18 -5 25t-16 7q-20 0 -34.5 -28.5t-33.5 -107.5q-15 -66 -15 -90z" />
    <glyph glyph-name="gjDD_RA" horiz-adv-x="509" 
d="M466.5 72.5q-44.5 -51.5 -117.5 -68.5l42 -27q46 -30 46 -67q0 -30 -22.5 -49.5t-66.5 -19.5q-42 0 -65 18.5t-35 54.5l-29 86l-75 -93q-20 -25 -40.5 -36.5t-45.5 -11.5q-32 0 -55 16.5t-23 44.5q0 25 18 41.5t69 35.5l75 28q-60 28 -92 78.5t-32 113.5q0 35 8.5 58
t19.5 23q5 0 16.5 -7t24.5 -16q41 -29 76 -46t75 -17q43 0 67.5 19t24.5 53q0 25 -21 47.5t-66 57.5q-53 42 -80 72.5t-27 68.5q0 46 35.5 74.5t100.5 28.5q63 0 110.5 -25t73.5 -64.5t26 -81.5q0 -19 -6 -30.5t-14 -11.5q-11 0 -30 17q-15 12 -26 18t-25 6t-22 -8.5
t-8 -23.5q0 -16 13.5 -31.5t42.5 -39.5q49 -43 76.5 -80t27.5 -89q0 -65 -44.5 -116.5z" />
    <glyph glyph-name="gjDDH_RA" horiz-adv-x="616" 
d="M585.5 265.5q39.5 -34.5 39.5 -85.5q0 -23 -7 -43q-16 -50 -67 -84t-122 -49l42 -27q46 -30 46 -67q0 -30 -22.5 -49.5t-66.5 -19.5q-42 0 -65 18.5t-35 54.5l-27 80h-7l-70 -87q-20 -25 -40.5 -36.5t-45.5 -11.5q-32 0 -55 16.5t-23 44.5q0 25 18 41.5t69 35.5l45 17
q-80 27 -127 85t-47 135q0 126 150 212q46 26 64 38t22 18t4 16q0 9 -4.5 15t-13.5 14t-12.5 13.5t-0.5 12.5q7 23 61 40.5t118 17.5q66 0 115 -18.5t75.5 -50.5t26.5 -71q0 -19 -5 -34q-7 -23 -25 -40.5t-55 -35.5t-103 -41q-108 -38 -156.5 -71.5t-59.5 -70.5
q-6 -21 -6 -38q0 -28 14.5 -46t39.5 -26q-3 18 -3 34q0 23 7 49q20 61 79 95t125 34q71 0 110.5 -34.5zM420.5 147.5q-8.5 8.5 -22.5 8.5q-17 0 -31 -10.5t-20 -29.5q-6 -18 -4 -35q36 0 61 10.5t25 35.5q0 12 -8.5 20.5z" />
    <glyph glyph-name="gjT_RA" horiz-adv-x="724" 
d="M641 169q-2 -10 -2 -13q0 -18 15 -18q9 0 15 4.5t13 12.5t10 8q5 0 8.5 -8.5t3.5 -18.5q0 -32 -22 -64.5t-61 -53.5t-88 -21q-84 0 -124 39.5t-40 100.5q0 23 8 58q-69 -107 -119.5 -152.5t-108.5 -45.5q-70 0 -104.5 40.5t-34.5 97.5q0 23 4 39q6 28 19 51.5t27.5 37.5
t23.5 14q8 0 20 -10q12 -9 24.5 -14t32.5 -5q28 0 78.5 20t125.5 59q-20 45 -43.5 67.5t-47.5 22.5q-17 0 -30.5 -8t-30.5 -23q-18 -16 -25 -16q-15 0 -34 14.5t-32.5 41.5t-13.5 61q0 27 8 51q15 47 49 71.5t78 24.5q67 0 114.5 -55.5t83.5 -174.5l44 138q12 39 74 60.5
t127 21.5q43 0 59 -13.5t16 -35.5q0 -7 -6 -33z" />
    <glyph glyph-name="gjTH_RA" horiz-adv-x="865" 
d="M781 169q-2 -5 -2 -13t4.5 -13t11.5 -5q9 0 14.5 4.5t12 12.5t10.5 8q6 0 9.5 -8.5t3.5 -18.5q0 -32 -22 -64.5t-61.5 -53.5t-88.5 -21q-83 0 -122.5 39.5t-39.5 100.5q0 21 4 41q-54 -144 -122.5 -202t-142.5 -58q-44 0 -76.5 18t-49.5 47.5t-17 62.5q0 20 5 35
q7 21 22 36.5t28 15.5q8 0 22 -9q17 -10 32.5 -16t41.5 -6q38 0 79 18.5t70 49.5q-37 -4 -94 -4q-75 0 -140 15t-104.5 45t-39.5 73q0 16 10 28t38 24.5t83 29.5q2 1 36 13q-47 11 -75 39t-28 66q0 35 23 65.5t66.5 49.5t102.5 19q73 0 127.5 -24t83 -63.5t28.5 -84.5
q0 -51 -26.5 -90t-75.5 -65l-31 -17q-9 -4 -9 -9t12.5 -8.5t35.5 -3.5q55 0 89 29t55 84l51 161q12 39 74 60.5t127 21.5q43 0 59 -13.5t16 -35.5q0 -11 -5 -33zM236 447.5q11 -11.5 31 -15.5q21 20 21 43q0 17 -9.5 25t-21.5 8t-22 -9.5t-10 -24.5t11 -26.5z" />
    <glyph glyph-name="gjD_RA" horiz-adv-x="603" 
d="M588 65.5q9 -12.5 15.5 -32t6.5 -40.5q0 -68 -36.5 -105.5t-102.5 -37.5q-64 0 -111.5 40t-60.5 107q-70 -147 -181 -147q-55 0 -88 38.5t-33 92.5q0 17 5 39q10 37 25 57.5t27 20.5q5 0 10.5 -5.5t10.5 -12.5q15 -20 33.5 -33t48.5 -13q35 0 62 11.5t50 37.5
q-111 21 -184.5 78.5t-73.5 133.5q0 21 8 48q12 36 45.5 66t92.5 59q47 23 69.5 37.5t29 24t6.5 21.5q0 9 -5 17t-6 9q-9 13 -9 20q0 14 33.5 25t93.5 11q69 0 121 -21.5t80 -58t28 -78.5t-23 -70t-71 -48.5t-130 -39.5q-72 -16 -103.5 -39t-31.5 -57q0 -45 54 -60
q21 64 57.5 95t82.5 31q44 0 72 -28t28 -72q0 -58 -51 -85.5t-112 -27.5h-2q31 -40 98 -40q31 0 52.5 10.5t36.5 22t17 11.5q7 0 16 -12.5z" />
    <glyph glyph-name="gjDH_RA" horiz-adv-x="776" 
d="M693 169q-3 -7 -3 -14q0 -8 4.5 -12.5t11.5 -4.5q8 0 13 4t12.5 12.5t12.5 8.5t8.5 -8.5t3.5 -18.5q0 -32 -22.5 -64.5t-62 -53.5t-89.5 -21q-82 0 -121.5 39.5t-39.5 100.5v9q-51 -115 -109 -171.5t-134 -56.5q-37 0 -66 18t-44.5 47t-15.5 62q0 21 5 36q7 22 20.5 37
t26.5 15q7 0 13.5 -4.5t8.5 -5.5q14 -10 27.5 -15.5t33.5 -5.5q45 0 88.5 23t69.5 61q-55 -20 -121 -20q-58 0 -101 18.5t-66.5 50t-23.5 68.5q0 15 7 38q12 35 44 63t80 41q-54 40 -54 92q0 19 6 37q14 42 52.5 80.5t86 61.5t88.5 23q31 0 65.5 -14.5t57 -37t22.5 -44.5
q0 -18 -14 -30.5t-57 -36.5q-30 -17 -40.5 -26t-12.5 -15q-3 -13 6 -23.5t31 -27.5q17 -12 25.5 -20.5t8.5 -17.5q0 -11 -14.5 -20.5t-45.5 -24.5t-49.5 -26.5t-23.5 -24.5q-3 -7 -3 -15q0 -17 15.5 -28.5t40.5 -11.5q42 0 78 27t59 80l44 140q12 39 74 60.5t127 21.5
q45 0 60 -13.5t15 -35.5q0 -13 -6 -33z" />
    <glyph glyph-name="gjN_RA" horiz-adv-x="719" 
d="M636 169q-2 -10 -2 -13q0 -18 15 -18q9 0 15 4.5t13 12.5t10 8q5 0 8.5 -8.5t3.5 -18.5q0 -32 -22 -64.5t-61 -53.5t-88 -21q-84 0 -124 39.5t-40 100.5q0 23 8 60q-69 -108 -120 -154t-108 -46q-70 0 -104.5 40.5t-34.5 97.5q0 22 4 39q8 38 28.5 64.5t34.5 26.5
q7 0 20 -10t28 -16.5t36 -6.5q29 0 83 22.5t152 72.5q-19 39 -49.5 69.5t-58.5 30.5q-18 0 -29.5 -11.5t-11.5 -32.5q0 -13 6.5 -21t18.5 -8q4 0 9.5 1.5t9.5 1.5q8 0 8 -10q0 -21 -28 -37t-63 -16q-65 0 -101.5 43.5t-36.5 108.5q0 28 10 65q18 58 63.5 90t106.5 32
q77 0 129.5 -56.5t68.5 -149.5l37 115q12 39 74 60.5t127 21.5q43 0 59 -13.5t16 -35.5q0 -7 -6 -33z" />
    <glyph glyph-name="gjP_RA" horiz-adv-x="766" 
d="M682 169q-2 -5 -2 -13q0 -18 17 -18q9 0 14.5 4.5t11.5 12.5t9 8q7 0 10.5 -8t3.5 -19q0 -32 -22.5 -64.5t-62 -53.5t-88.5 -21q-82 0 -121.5 39.5t-39.5 100.5q0 22 4 43q-51 -148 -108.5 -205t-127.5 -57q-63 0 -98.5 36t-35.5 87q0 21 6 40q7 21 22 36.5t28 15.5
q8 0 19 -9q14 -10 27.5 -16t39.5 -6q37 0 69 18.5t56 51.5q-28 -6 -56 -6q-85 0 -127.5 38.5t-42.5 106.5q0 21 5 42t16 57l16 52l2 12q0 19 -13 19q-9 0 -15 -4.5t-13 -12.5t-11 -8q-5 0 -8 8t-3 20q0 33 20.5 64.5t61.5 52t97 20.5q76 0 116 -38t40 -98q0 -24 -5.5 -46
t-15.5 -49l-25 -66q-7 -19 -7 -33q0 -36 39 -36q22 0 44.5 21t34.5 56l62 198q14 39 76 60.5t126 21.5q45 0 60.5 -13.5t15.5 -35.5q0 -10 -7 -33z" />
    <glyph glyph-name="gjPH_RA" horiz-adv-x="512" 
d="M319.5 485.5q-21.5 -13.5 -28.5 -36.5q-3 -9 -3 -16q0 -10 7 -17l36 15q50 24 73 24q15 0 34.5 -12t33 -28.5t13.5 -29.5q0 -37 -52 -34l-85 6q88 -44 129.5 -86.5t41.5 -93.5q0 -47 -26.5 -88.5t-79.5 -67t-127 -25.5q-35 0 -72 5q16 -28 44 -42.5t59 -14.5q29 0 47.5 6
t33.5 14.5t19 8.5q14 0 26 -22.5t12 -54.5q0 -61 -36 -98.5t-98 -37.5q-53 0 -95 26.5t-65.5 75.5t-23.5 113q0 21 3 44q-62 23 -95 63t-33 86q0 17 4 32q14 51 64 51q28 0 48 -18t35 -56q27 -8 55 -8q41 0 67.5 18t27.5 48q3 45 -24 78l-16 -41q-12 -29 -28 -40t-46 -11
q-25 0 -41 11.5t-16 27.5q0 21 23 35l85 55l-2 1q-9 -4 -34.5 -15t-38 -14t-29.5 -4q-30 -1 -54 19.5t-24 44.5q0 16 10.5 29.5t35.5 10.5l91 -10q-23 19 -37 43t-14 50q0 13 5 30q16 51 63.5 74.5t118.5 23.5q82 0 135.5 -28t53.5 -80q0 -28 -10.5 -41.5t-22.5 -13.5
q-11 0 -40 11q-24 9 -41.5 13.5t-38.5 4.5q-36 0 -57.5 -13.5z" />
    <glyph glyph-name="gjB_RA" horiz-adv-x="908" 
d="M824 169q-3 -7 -3 -14q0 -8 4.5 -12.5t11.5 -4.5q8 0 14 4t13 12.5t11 8.5q6 0 9.5 -8.5t3.5 -18.5q0 -32 -22.5 -64.5t-62 -53.5t-89.5 -21q-67 0 -106 27t-51 71q-48 -94 -99.5 -135.5t-111.5 -41.5q-65 0 -99.5 35.5t-34.5 86.5q0 22 6 41q8 27 24 42t30 15
q9 0 24 -12q20 -13 36.5 -20t41.5 -7q55 0 106 35.5t89 113.5q-29 7 -50 16q-36 -45 -96.5 -71.5t-133.5 -26.5q-108 0 -172 51.5t-64 143.5q0 81 35.5 142.5t98.5 95.5t143 34q49 0 86 -13t57 -32t20 -35q0 -14 -18 -14q-45 0 -82 -19.5t-58.5 -56t-21.5 -83.5
q0 -37 18 -57t49 -20q33 0 55 24q-20 20 -30 39t-10 44q0 33 20 53t53 20q40 0 66 -27.5t26 -76.5q0 -8 -2 -24q23 0 38.5 9.5t24.5 33.5l45 144q13 39 75 60.5t127 21.5q45 0 60 -13.5t15 -35.5q0 -13 -6 -33z" />
    <glyph glyph-name="gjBH_RA" horiz-adv-x="1000" 
d="M917 169q-2 -10 -2 -13q0 -8 4.5 -13t11.5 -5q9 0 15 4.5t12.5 12.5t10.5 8q5 0 8 -8t3 -19q0 -32 -22 -64.5t-61 -53.5t-88 -21q-56 0 -91.5 18.5t-52.5 50.5q-39 -78 -80 -113t-88 -35q-46 0 -76 34t-30 84q0 24 10 54q9 24 27.5 41t29.5 17q4 0 17 -14.5t28 -24.5
t37 -10q43 0 74 41t62 136l1 3l11 33h-76q-22 -50 -50.5 -71t-72.5 -21q-43 0 -86.5 21.5t-72 54.5t-28.5 66q0 26 14 38t42 12h18l25 80q1 5 5 17t4 20q0 21 -26 21q-30 0 -65 -30t-59 -80t-24 -107q0 -56 32 -95.5t104 -39.5q19 0 19 -23q0 -15 -7 -36q-18 -59 -69 -100.5
t-118 -41.5q-50 0 -91.5 26t-65.5 74t-24 113q0 97 50.5 195.5t145.5 163t222 64.5q97 0 157.5 -44t60.5 -124q0 -28 -9 -63h74l45 140q11 39 73.5 60.5t127.5 21.5q44 0 60 -13.5t16 -35.5q0 -12 -8 -33z" />
    <glyph glyph-name="gjM_RA" horiz-adv-x="734" 
d="M651 169q-2 -10 -2 -13q0 -8 4.5 -13t11.5 -5q9 0 15 4.5t12.5 12.5t10.5 8q5 0 8 -8t3 -19q0 -32 -22 -64.5t-61 -53.5t-88 -21q-67 0 -105.5 26.5t-50.5 71.5q-48 -94 -99.5 -135.5t-111.5 -41.5q-65 0 -99.5 35.5t-34.5 86.5q0 22 6 41q8 27 24 42t30 15q9 0 24 -12
q20 -13 36.5 -20t41.5 -7q58 0 111.5 40t90.5 126h-73q-23 -53 -52.5 -76t-74.5 -23q-41 0 -81.5 23t-67 61t-26.5 80q0 14 3 29q6 17 20.5 28t35.5 11h14l20 64l2 12q0 19 -13 19q-9 0 -15 -4.5t-13 -12.5t-11 -8q-5 0 -8 8t-3 20q0 33 20.5 64.5t61.5 52t97 20.5
q76 0 116 -38t40 -98q0 -20 -4.5 -39t-16.5 -56l-14 -45h73l60 185q11 39 73.5 60.5t127.5 21.5q44 0 60 -13.5t16 -35.5q0 -12 -8 -33z" />
    <glyph glyph-name="gjY_RA" horiz-adv-x="815" 
d="M731 169q-2 -5 -2 -13t4.5 -13t11.5 -5q9 0 14.5 4.5t12 12.5t10.5 8q6 0 9.5 -8.5t3.5 -18.5q0 -32 -22 -64.5t-61.5 -53.5t-88.5 -21q-83 0 -122.5 39.5t-39.5 100.5v7q-51 -124 -109 -175t-127 -51q-65 0 -99.5 35.5t-34.5 86.5q0 22 6 41q8 27 24 42t30 15
q9 0 24 -12q20 -13 36.5 -20t41.5 -7q33 0 64.5 17.5t56.5 46.5q-45 -11 -97 -11q-79 0 -138 23.5t-90.5 62.5t-31.5 84q0 18 4 31q6 21 21.5 36.5t47.5 28.5l93 37q44 18 44 39q0 10 -5 15.5t-14 5.5q-11 0 -22 -8q-7 -5 -12 -5q-12 0 -12 19q0 14 7 32q12 31 46.5 55.5
t88.5 24.5q52 0 91 -21.5t60 -59t21 -82.5q0 -26 -5 -45q-11 -46 -46.5 -75t-106.5 -57l-41 -16q-11 -4 -11 -10q0 -8 18 -14.5t45 -6.5q64 0 114.5 26.5t70.5 77.5l61 192q12 39 74 60.5t127 21.5q43 0 59 -13.5t16 -35.5q0 -11 -5 -33z" />
    <glyph glyph-name="gjV_RA" horiz-adv-x="754" 
d="M670 169q-2 -5 -2 -13q0 -18 17 -18q9 0 14.5 4.5t11.5 12.5t9 8q7 0 10.5 -8t3.5 -19q0 -32 -22.5 -64.5t-62 -53.5t-88.5 -21q-82 0 -121.5 39.5t-39.5 100.5q0 22 4 43q-51 -148 -108.5 -205t-127.5 -57q-63 0 -98.5 36t-35.5 87q0 21 6 40q7 21 22 36.5t28 15.5
q8 0 19 -9q14 -10 27.5 -16t39.5 -6q37 0 68.5 18.5t55.5 50.5q-27 -5 -48 -5q-90 0 -145.5 51t-55.5 135q0 81 35 145t97 100t140 36q54 0 89.5 -16.5t52 -39t16.5 -39.5q0 -11 -5 -15.5t-19 -4.5q-43 0 -76 -23t-51.5 -62t-18.5 -87q0 -37 16 -56t41 -19q51 0 88 89
l57 182q14 39 76 60.5t126 21.5q45 0 60.5 -13.5t15.5 -35.5q0 -10 -7 -33z" />
    <glyph glyph-name="gjSH_RA" horiz-adv-x="794" 
d="M710 169q-3 -7 -3 -14q0 -8 4.5 -12.5t12.5 -4.5t13.5 4t12.5 12.5t11 8.5q6 0 9.5 -8t3.5 -19q0 -32 -22 -64.5t-61.5 -53.5t-89.5 -21q-82 0 -121.5 39.5t-39.5 100.5q0 28 7 60q-55 -105 -116 -152.5t-131 -47.5q-61 0 -104 26t-64.5 69.5t-21.5 95.5q0 40 12 77
q10 31 25.5 50t26.5 19q4 0 9.5 -5t11.5 -12q19 -22 39.5 -36t53.5 -14q29 0 47 13t39 39l-4 3q-56 1 -95 20.5t-59 50t-20 63.5q0 15 5 32q6 21 17 21q5 0 25 -9.5t41 -11.5q-16 22 -16 42q0 39 32 66t95 27q49 0 90.5 -19t66.5 -53.5t25 -76.5q0 -22 -7 -43
q-14 -45 -50 -71q25 -13 71 -13l62 195q12 39 74.5 60.5t127.5 21.5q44 0 59 -13.5t15 -35.5q0 -11 -5 -33zM232 528q0 -17 12 -30q17 10 22 28q2 8 2 11q0 8 -4 13t-11 5t-12.5 -4.5t-7.5 -11.5q-1 -3 -1 -11z" />
    <glyph glyph-name="gjS_RA" horiz-adv-x="922" 
d="M948.5 610.5q15.5 -13.5 14.5 -35.5q0 -14 -8 -36l-91 -273q-2 -5 -2 -14q0 -17 14 -17q9 0 15 4.5t13.5 13t11.5 8.5t7.5 -9t3.5 -19q-1 -33 -24.5 -65t-63.5 -53t-90 -21q-81 0 -119.5 38t-38.5 97q0 7 2 25l-37 -68q-19 -36 -38.5 -50t-48.5 -14q-30 0 -46 13.5
t-16 33.5q0 13 7.5 27t21.5 25l89 68q-39 9 -71 29q-30 -48 -71.5 -84t-86.5 -55q145 -165 352 -165q85 0 130 14t80 36q18 13 28 13t18 -18t8 -46q0 -59 -36 -108.5t-102.5 -78.5t-154.5 -29q-95 0 -182 39t-152.5 121t-92.5 207q-43 6 -81.5 28t-61.5 54t-23 64
q0 35 19 55.5t51 20.5q42 0 80 -42q31 17 43.5 37t12.5 44q0 28 -22 28q-12 0 -23.5 -9.5t-13.5 -9.5q-7 0 -10.5 6.5t-3.5 17.5q-3 41 20.5 82t67.5 67t99 26q70 0 114.5 -38.5t44.5 -107.5q0 -49 -17 -97q32 -6 56 -6q46 0 75.5 25.5t49.5 85.5l16 47q14 39 76.5 60.5
t127.5 21.5q44 0 59.5 -13.5z" />
    <glyph glyph-name="gjH_RA" horiz-adv-x="652" 
d="M585.5 614.5q52.5 -18.5 79.5 -49t27 -65.5q0 -8 -4 -24q-10 -34 -48.5 -56.5t-89.5 -22.5q-36 0 -61.5 8.5t-37.5 20.5t-10 21q2 6 10 11t13 10t5 15q0 11 -10 18t-24 7q-18 0 -32 -11t-20 -31q-3 -10 -3 -22q0 -21 9 -41.5t24 -30.5q101 -5 166.5 -38.5t65.5 -98.5
q0 -8 -4 -30q-8 -33 -20 -51.5t-37 -28t-70 -9.5q-22 0 -36.5 11.5t-14.5 30.5q0 10 4 19l19 49q2 6 2 9q0 7 -3 11l-74 -87q-21 -25 -42.5 -36t-47.5 -11q-25 0 -41.5 16.5t-16.5 37.5q0 25 24 40l120 71q-22 2 -33 2q-45 0 -93 -20.5t-61 -65.5q-7 -28 -7 -43
q0 -57 47.5 -83t121.5 -26q40 0 71 4.5t67 11.5q32 8 49 8q6 0 10 -8t4 -21q0 -38 -39.5 -81t-109.5 -72t-157 -29q-77 0 -139 27t-98 77t-36 116q0 37 12 77q23 78 97.5 135t170.5 78q-31 22 -48.5 53t-17.5 63q0 17 4 30q17 56 77.5 89.5t159.5 33.5q74 0 126.5 -18.5z
" />
    <glyph glyph-name="gjK_R" horiz-adv-x="526" 
d="M655 440q41 0 60 -17t19 -46q0 -32 -51 -32h-312q70 -38 107 -77t37 -90q0 -49 -31 -90.5t-93.5 -66t-151.5 -24.5q-79 0 -130.5 22t-74.5 57t-23 74q0 21 6 39q8 26 25.5 45.5t29.5 19.5q6 0 14 -6t16 -15q24 -23 48 -37t60 -14q48 0 73.5 21t25.5 58q0 28 -18 52
l-10 -36q-9 -29 -26 -40t-48 -11q-26 0 -41.5 11t-15.5 27q0 20 23 36l65 47q-40 -18 -54.5 -23t-37.5 -6q-30 -1 -54 19.5t-24 44.5q0 16 10.5 29.5t35.5 10.5l90 -10q-49 40 -49 92q0 17 6 35q13 43 52.5 68.5t100.5 25.5q46 0 85 -19t62 -49.5t23 -62.5q0 -10 -3 -21
q-2 -9 -8.5 -14.5t-15.5 -5.5q-13 0 -41 13q-19 8 -32.5 12.5t-28.5 4.5q-22 0 -40 -10t-24 -29q-2 -6 -2 -16q0 -14 9 -26l339 29q6 1 18 1z" />
    <glyph glyph-name="gjKH_R" horiz-adv-x="558" 
d="M681 356q0 -32 -12 -80q-26 -104 -71 -185t-104.5 -127t-126.5 -46q-65 0 -99.5 35.5t-34.5 86.5q0 22 6 41q8 27 24 42t30 15q9 0 24 -12q20 -13 36.5 -20t41.5 -7q111 0 203 143q-35 7 -67 23q-43 -47 -107.5 -73t-136.5 -26q-197 0 -197 149q0 44 19 99l16 48l2 12
q0 19 -16 19q-10 0 -15.5 -4.5t-11.5 -12.5t-9 -8q-6 0 -9.5 8t-3.5 20q0 32 21.5 64t60.5 52.5t89 20.5q79 0 123 -38.5t44 -97.5q0 -38 -22 -95l-20 -50q-5 -13 -5 -22q0 -15 9.5 -23.5t27.5 -8.5t32 5.5t29 17.5q-13 20 -19.5 36t-6.5 40q0 49 27.5 76t64.5 27
q34 0 54 -21.5t20 -60.5q0 -38 -12 -73q24 2 40 10.5t30.5 20t18.5 11.5q13 0 13 -31z" />
    <glyph glyph-name="gjG_R" horiz-adv-x="358" 
d="M365.5 582.5q46.5 -50.5 46.5 -128.5q0 -76 -28 -134t-77 -90t-111 -32q-76 0 -122 37t-46 95q0 15 3.5 24t7.5 9q5 0 11 -7t12 -12t17 -5q19 0 36 20t27 51.5t10 63.5q0 17 -5 26t-13 9q-10 0 -21.5 -12t-16.5 -12q-6 0 -9 8t-3 18q0 31 20 59t55 45.5t77 17.5
q83 0 129.5 -50.5zM394.5 55.5q-41.5 -68.5 -98 -103t-120.5 -34.5q-65 0 -99.5 35.5t-34.5 86.5q0 22 6 41q8 27 24 42t30 15q9 0 24 -12q20 -13 36.5 -20t41.5 -7q66 0 125 52.5t98 168.5q4 13 8.5 18.5t10.5 5.5q7 0 12 -12t5 -37q0 -32 -8 -73q-19 -98 -60.5 -166.5z
" />
    <glyph glyph-name="gjGH_R" horiz-adv-x="376" 
d="M501 367q0 -33 -12 -82q-25 -106 -73 -189.5t-110 -130.5t-129 -47q-63 0 -98.5 36t-35.5 87q0 21 6 40q7 21 22 36.5t28 15.5q6 0 19 -9q13 -10 29 -16t45 -6q106 0 170 96q-69 -36 -172 -36q-56 0 -95 16.5t-59 44t-20 59.5q0 14 5 32q18 56 90 80q-18 17 -28 39
t-10 45q0 43 22 78t62.5 56t93.5 21q52 0 93.5 -17.5t65 -46t23.5 -61.5q0 -10 -4 -15.5t-11 -5.5t-15 5.5t-15 12.5q-10 9 -17.5 14t-15.5 5q-13 0 -23.5 -10.5t-10.5 -27.5q0 -26 16 -39.5t45 -26.5q17 -6 25.5 -12t8.5 -14q0 -13 -16 -20t-53 -18q-35 -9 -55.5 -17.5
t-25.5 -22.5q-2 -8 -2 -12q0 -28 57 -28q52 0 82.5 26t58.5 68q7 12 14 20.5t12 8.5q13 0 13 -32z" />
    <glyph glyph-name="gjC_R" horiz-adv-x="414" 
d="M503.5 277.5q3.5 -10.5 3.5 -27.5q0 -43 -17 -97q-36 -117 -101.5 -176t-143.5 -59q-68 0 -104 36t-36 87q0 21 6 40q8 27 24 42t30 15q9 0 24 -12q20 -13 36.5 -20t41.5 -7q56 0 98 30q-82 22 -140 88q-37 -7 -68 -7q-41 0 -74 14t-52 38t-19 51q0 33 17 47.5t42 14.5
q15 0 28 -5t29 -15q28 21 42.5 43.5t14.5 38.5q0 12 -6.5 19t-18.5 7q-13 0 -26 -8t-17 -8q-11 0 -11 17q0 11 4 23q18 59 71 98t126 39t112 -41t39 -105q0 -20 -7 -52q-13 -51 -50 -98.5t-91 -77.5q40 -17 74 -17q29 0 48 11t40 29q15 15 22 15q6 0 9.5 -10.5z" />
    <glyph glyph-name="gjJ_R" horiz-adv-x="696" 
d="M853 429q38 0 56 -20.5t18 -49.5q0 -11 -8 -26.5t-21.5 -27t-30.5 -11.5h-240q-19 0 -27 -1q40 -22 62.5 -61.5t22.5 -83.5q0 -21 -4 -37q-14 -56 -55 -85.5t-105 -29.5q-57 0 -101.5 26t-69 67.5t-24.5 88.5q0 25 7 47q25 80 112 121l-58 40l-97 -138q-18 -25 -38.5 -36
t-47.5 -11q-29 0 -46.5 15.5t-17.5 36.5q0 12 6 23t18 19l177 122q-25 16 -43 23t-37 7q-27 0 -39.5 -11.5t-12.5 -26.5q0 -7 2 -15.5t2 -12.5q0 -15 -21 -15q-30 0 -60 15t-50 44.5t-20 69.5q0 60 40 99t106 39q49 0 90.5 -22.5t92 -77.5t127.5 -161q30 8 76 16l235 39
q18 2 24 2zM551 240l-12 17q-25 -17 -35 -48q-4 -16 -4 -22q0 -17 9.5 -28t24.5 -11q16 0 25 11.5t9 31.5q0 24 -17 49z" />
    <glyph glyph-name="gjJH_R" horiz-adv-x="801" 
d="M766 338.5q31 -51.5 31 -111.5q0 -34 -12 -72q-24 -76 -78.5 -117.5t-126.5 -41.5q-42 0 -74.5 19t-50 47.5t-17.5 54.5q0 10 3 17q4 13 12 13q3 0 11.5 -4t18.5 -4q19 0 36.5 15.5t26.5 41.5q10 30 10 58q0 31 -12 55l-17 -51q-25 -73 -90 -73q-25 0 -40 14t-15 36
q0 30 27 56l68 66q-4 1 -13 1q-31 0 -54.5 -14.5t-48.5 -46.5q-30 -48 -79.5 -74.5t-113.5 -26.5q-77 0 -115.5 35t-38.5 86q0 16 3 29q5 24 17 24q5 0 10 -9t10.5 -15.5t13.5 -6.5q19 0 36 20t27 51.5t10 63.5q0 17 -5 26t-13 9q-10 0 -21.5 -12t-16.5 -12q-6 0 -9 8t-3 18
q0 31 20 59t55 45.5t77 17.5q83 0 129.5 -50.5t46.5 -128.5q0 -15 -1 -23q29 14 61 21l25 90q11 40 71 61t125 21q42 0 64.5 -14t22.5 -39q0 -24 -19 -50l-69 -100q54 -31 85 -82.5zM530 -219q2 -20 -61 -24q-104 -3 -173.5 15.5t-103 51.5t-33.5 76q0 31 19.5 50t50.5 20
q27 1 53.5 -9.5t77.5 -46t160 -118.5q10 -7 10 -15z" />
    <glyph glyph-name="gjTT_R" horiz-adv-x="547" 
d="M522.5 280.5q6.5 -14.5 6.5 -41.5q0 -84 -50 -147.5t-140 -84.5l46 -30q46 -30 46 -67q0 -30 -22.5 -49.5t-66.5 -19.5q-42 0 -65 18.5t-35 54.5l-29 85h-1l-74 -92q-20 -25 -40.5 -36.5t-45.5 -11.5q-32 0 -55 16.5t-23 44.5q0 25 18 41.5t69 35.5l62 23
q-49 21 -76 56.5t-27 81.5q0 57 30 95t71 59.5t103 44.5q53 21 75.5 34t22.5 32q0 15 -9.5 24t-27.5 9q-13 0 -25 -6t-28 -16q-19 -14 -28 -14q-6 0 -10 6.5t-4 19.5q0 53 24.5 95.5t69.5 67t105 24.5q74 0 120 -36t46 -91q0 -47 -26.5 -79t-64 -51.5t-94.5 -40.5
q-56 -21 -82.5 -37t-26.5 -40q0 -26 19 -38t59 -12q44 0 73 17t59 46q13 13 20 18.5t14 5.5q11 0 17.5 -14.5zM329 -359q2 -20 -61 -24q-104 -3 -173.5 15.5t-103 51.5t-33.5 76q0 31 19.5 50t50.5 20q27 1 53.5 -9.5t77.5 -46t160 -118.5q10 -7 10 -15z" />
    <glyph glyph-name="gjTTH_R" horiz-adv-x="623" 
d="M575.5 117.5q-23.5 -44.5 -69 -76.5t-107.5 -43l32 -21q46 -30 46 -67q0 -30 -22.5 -49.5t-66.5 -19.5q-42 0 -65 18.5t-35 54.5l-29 86l-75 -93q-20 -25 -40.5 -36.5t-45.5 -11.5q-32 0 -55 16.5t-23 44.5q0 25 18 41.5t69 35.5l74 28q-73 31 -115.5 87.5t-42.5 128.5
q0 31 7 59q21 79 85.5 120t151.5 41q-18 20 -27 37t-9 36q0 23 15.5 46t47 38t77.5 15q59 0 105.5 -22.5t72.5 -60.5t26 -83q0 -13 -4.5 -21.5t-11.5 -8.5q-17 0 -51 17q-36 18 -55 18q-13 0 -21 -7.5t-8 -19.5q0 -13 11 -25.5t48 -38.5q62 -41 89 -78t27 -92
q0 -49 -23.5 -93.5zM258 132q0 -16 5 -22.5t16 -6.5q21 0 35 24.5t31 94.5q17 77 17 104q0 18 -5 25t-16 7q-20 0 -34.5 -28.5t-33.5 -107.5q-15 -66 -15 -90zM376 -359q2 -20 -61 -24q-104 -3 -173.5 15.5t-103 51.5t-33.5 76q0 31 19.5 50t50.5 20q27 1 53.5 -9.5
t77.5 -46t160 -118.5q10 -7 10 -15z" />
    <glyph glyph-name="gjDD_R" horiz-adv-x="509" 
d="M458.5 75q-41.5 -50 -112.5 -69l45 -29q46 -30 46 -67q0 -30 -22.5 -49.5t-66.5 -19.5q-42 0 -65 18.5t-35 54.5l-29 86l-75 -93q-20 -25 -40.5 -36.5t-45.5 -11.5q-32 0 -55 16.5t-23 44.5q0 25 18 41.5t69 35.5l69 26q-62 27 -95.5 78.5t-33.5 115.5q0 35 8.5 58
t19.5 23q5 0 16.5 -7t24.5 -16q41 -29 76 -46t75 -17q43 0 67.5 19t24.5 53q0 25 -21 47.5t-66 57.5q-53 42 -80 72.5t-27 68.5q0 46 35.5 74.5t100.5 28.5q63 0 110.5 -25t73.5 -64.5t26 -81.5q0 -19 -6 -30.5t-14 -11.5q-11 0 -30 17q-15 12 -26 18t-25 6t-22 -8.5
t-8 -23.5q0 -16 13.5 -31.5t42.5 -39.5q49 -43 76.5 -80t27.5 -89q0 -64 -41.5 -114zM352 -359q2 -20 -61 -24q-104 -3 -173.5 15.5t-103 51.5t-33.5 76q0 31 19.5 50t50.5 20q27 1 53.5 -9.5t77.5 -46t160 -118.5q10 -7 10 -15z" />
    <glyph glyph-name="gjDDH_R" horiz-adv-x="616" 
d="M585.5 265.5q39.5 -34.5 39.5 -85.5q0 -23 -7 -43q-16 -52 -69.5 -86.5t-126.5 -48.5l39 -25q46 -30 46 -67q0 -30 -22.5 -49.5t-66.5 -19.5q-42 0 -65 18.5t-35 54.5l-27 80q-4 0 -6 1l-71 -88q-20 -25 -40.5 -36.5t-45.5 -11.5q-32 0 -55 16.5t-23 44.5q0 25 18 41.5
t69 35.5l49 18q-78 28 -123 85.5t-45 133.5q0 126 150 212q46 26 64 38t22 18t4 16q0 9 -4.5 15t-13.5 14t-12.5 13.5t-0.5 12.5q7 23 61 40.5t118 17.5q66 0 115 -18.5t75.5 -50.5t26.5 -71q0 -19 -5 -34q-7 -23 -25 -40.5t-55 -35.5t-103 -41q-108 -38 -156.5 -71.5
t-59.5 -70.5q-6 -21 -6 -38q0 -28 14.5 -46t39.5 -26q-3 18 -3 34q0 23 7 49q20 61 79 95t125 34q71 0 110.5 -34.5zM420.5 147.5q-8.5 8.5 -22.5 8.5q-17 0 -31 -10.5t-20 -29.5q-6 -18 -4 -35q36 0 61 10.5t25 35.5q0 12 -8.5 20.5zM392 -362q2 -20 -61 -24
q-104 -3 -173.5 15.5t-103 51.5t-33.5 76q0 31 19.5 50t50.5 20q27 1 53.5 -9.5t77.5 -46t160 -118.5q10 -7 10 -15z" />
    <glyph glyph-name="gjT_R" horiz-adv-x="345" 
d="M370 561.5q52 -72.5 90 -229.5q-77 -130 -125.5 -199t-92 -102.5t-93.5 -33.5q-70 0 -104.5 40.5t-34.5 97.5q0 23 4 39q6 28 19 51.5t27.5 37.5t23.5 14q8 0 20 -10q12 -9 24.5 -14t32.5 -5q28 0 78.5 20t125.5 59q-20 45 -43.5 67.5t-47.5 22.5q-17 0 -30.5 -8
t-30.5 -23q-18 -16 -25 -16q-15 0 -34 14.5t-32.5 41.5t-13.5 61q0 27 8 51q15 47 49 71.5t78 24.5q75 0 127 -72.5z" />
    <glyph glyph-name="gjTH_R" horiz-adv-x="488" 
d="M642 369q0 -30 -24 -89q-43 -106 -103.5 -188t-129 -128t-135.5 -46q-44 0 -76.5 18t-49.5 47.5t-17 62.5q0 20 5 35q7 21 22 36.5t28 15.5q8 0 22 -9q17 -10 32.5 -16t41.5 -6q47 0 94 19.5t98 60.5q-50 -9 -79.5 -12.5t-57.5 -3.5q-75 0 -140 15t-104.5 45t-39.5 73
q0 16 10 28t38 24.5t83 29.5q2 1 36 13q-47 11 -75 39t-28 66q0 35 23 65.5t66.5 49.5t102.5 19q73 0 127.5 -24t83 -63.5t28.5 -84.5q0 -51 -26.5 -90t-75.5 -65l-31 -17q-9 -4 -9 -9t12.5 -8.5t35.5 -3.5q50 0 92 23t88 85q5 7 9.5 11.5t9.5 4.5q13 0 13 -23zM236 447.5
q11 -11.5 31 -15.5q21 20 21 43q0 17 -9.5 25t-21.5 8t-22 -9.5t-10 -24.5t11 -26.5z" />
    <glyph glyph-name="gjD_R" horiz-adv-x="603" 
d="M588 65.5q9 -12.5 15.5 -32t6.5 -40.5q0 -68 -36.5 -105.5t-102.5 -37.5q-64 0 -111.5 40t-60.5 107q-70 -147 -181 -147q-55 0 -88 38.5t-33 92.5q0 17 5 39q10 37 25 57.5t27 20.5q5 0 10.5 -5.5t10.5 -12.5q15 -20 33.5 -33t48.5 -13q35 0 62 11.5t50 37.5
q-111 21 -184.5 78.5t-73.5 133.5q0 21 8 48q12 36 45.5 66t92.5 59q47 23 69.5 37.5t29 24t6.5 21.5q0 9 -5 17t-6 9q-9 13 -9 20q0 14 33.5 25t93.5 11q69 0 121 -21.5t80 -58t28 -78.5t-23 -70t-71 -48.5t-130 -39.5q-72 -16 -103.5 -39t-31.5 -57q0 -45 54 -60
q21 64 57.5 95t82.5 31q44 0 72 -28t28 -72q0 -58 -51 -85.5t-112 -27.5h-2q31 -40 98 -40q31 0 52.5 10.5t36.5 22t17 11.5q7 0 16 -12.5zM477 -359q2 -20 -61 -24q-104 -3 -173.5 15.5t-103 51.5t-33.5 76q0 31 19.5 50t50.5 20q27 1 53.5 -9.5t77.5 -46t160 -118.5
q10 -7 10 -15z" />
    <glyph glyph-name="gjDH_R" horiz-adv-x="382" 
d="M419.5 96.5q-56.5 -88.5 -123 -133.5t-135.5 -45q-37 0 -66 18t-44.5 47t-15.5 62q0 21 5 36q7 22 20.5 37t26.5 15q7 0 13.5 -4.5t8.5 -5.5q14 -10 27.5 -15.5t33.5 -5.5q114 0 196 91q-86 -27 -159 -27q-58 0 -101 18.5t-66.5 50t-23.5 68.5q0 15 7 38q12 35 44 63
t80 41q-54 40 -54 92q0 19 6 37q14 42 52.5 80.5t86 61.5t88.5 23q31 0 65.5 -14.5t57 -37t22.5 -44.5q0 -18 -14 -30.5t-57 -36.5q-30 -17 -40.5 -26t-12.5 -15q-3 -13 6 -23.5t31 -27.5q17 -12 25.5 -20.5t8.5 -17.5q0 -11 -14.5 -20.5t-45.5 -24.5t-49.5 -26.5
t-23.5 -24.5q-3 -7 -3 -15q0 -17 15.5 -28.5t40.5 -11.5q54 0 84.5 25t57.5 65q12 18 17.5 24t12.5 6q16 0 16 -32q0 -27 -13 -72q-37 -126 -93.5 -214.5z" />
    <glyph glyph-name="gjN_R" horiz-adv-x="340" 
d="M353 592q48 -41 73.5 -111.5t23.5 -156.5q-80 -134 -130 -202.5t-90 -96.5t-86 -28q-70 0 -104.5 40.5t-34.5 97.5q0 22 4 39q8 38 28.5 64.5t34.5 26.5q7 0 20 -10t28 -16.5t36 -6.5q29 0 83 22.5t152 72.5q-19 39 -49.5 69.5t-58.5 30.5q-18 0 -29.5 -11.5t-11.5 -32.5
q0 -13 6.5 -21t18.5 -8q4 0 9.5 1.5t9.5 1.5q8 0 8 -10q0 -21 -28 -37t-63 -16q-65 0 -101.5 43.5t-36.5 108.5q0 28 10 65q18 58 63.5 90t106.5 32q60 0 108 -41z" />
    <glyph glyph-name="gjP_R" horiz-adv-x="387" 
d="M416 79.5q-49 -74.5 -110 -118t-126 -43.5q-63 0 -98.5 36t-35.5 87q0 21 6 40q7 22 20.5 37t26.5 15q9 0 22 -10q14 -10 28.5 -15.5t38.5 -5.5q53 0 102.5 22.5t86.5 64.5q-56 -23 -120 -23q-85 0 -127.5 38.5t-42.5 106.5q0 21 5 42t16 57l16 52l2 12q0 19 -13 19
q-9 0 -15 -4.5t-13 -12.5t-11 -8q-5 0 -8 8t-3 20q0 33 20.5 64.5t61.5 52t97 20.5q76 0 116 -38t40 -98q0 -24 -5.5 -46t-15.5 -49l-25 -66q-7 -19 -7 -33q0 -36 39 -36q25 0 41.5 12.5t36.5 36.5q9 12 15.5 18t12.5 6q8 0 12 -8.5t4 -23.5q0 -27 -12 -63
q-29 -91 -78 -165.5z" />
    <glyph glyph-name="gjPH_R" horiz-adv-x="534" 
d="M656 440q41 0 60 -17t19 -46q0 -32 -51 -32h-312q76 -41 112 -81t36 -87t-26.5 -88.5t-79.5 -67t-127 -25.5q-35 0 -72 5q16 -28 44 -42.5t59 -14.5q29 0 47.5 6t33.5 14.5t19 8.5q14 0 26 -22.5t12 -54.5q0 -61 -36 -98.5t-98 -37.5q-53 0 -95 26.5t-65.5 75.5
t-23.5 113q0 21 3 44q-62 23 -95 63t-33 86q0 17 4 32q14 51 64 51q28 0 48 -18t35 -56q27 -8 55 -8q41 0 67.5 18t27.5 48q2 22 -3.5 41t-20.5 37l-16 -41q-12 -29 -28 -40t-46 -11q-25 0 -41 11.5t-16 27.5q0 21 23 35l83 56q-48 -22 -63 -27t-39 -6q-30 -1 -54 19.5
t-24 44.5q0 16 10.5 29.5t35.5 10.5l91 -10q-23 19 -37 43t-14 50q0 13 5 30q16 51 59 74.5t106 23.5q73 0 120.5 -32t47.5 -81q0 -27 -11.5 -43.5t-22.5 -16.5t-39 13q-21 9 -35 13.5t-28 4.5q-25 0 -42 -11t-23 -31q-2 -8 -2 -14q0 -14 7 -25l341 29q6 1 18 1z" />
    <glyph glyph-name="gjB_R" horiz-adv-x="524" 
d="M654 365.5q4 -9.5 4 -26.5q0 -34 -18 -94q-34 -106 -83.5 -179.5t-104.5 -110.5t-106 -37q-65 0 -99.5 35.5t-34.5 86.5q0 22 6 41q8 27 24 42t30 15q9 0 24 -12q20 -13 36.5 -20t41.5 -7q55 0 105.5 35t87.5 110q-27 8 -49 19q-37 -45 -97 -71t-132 -26
q-108 0 -172 51.5t-64 143.5q0 81 35.5 142.5t98.5 95.5t143 34q49 0 86 -13t57 -32t20 -35q0 -14 -18 -14q-45 0 -82 -19.5t-58.5 -56t-21.5 -83.5q0 -37 18 -57t49 -20q33 0 55 24q-20 20 -30 39t-10 44q0 33 20 53t53 20q40 0 66 -27.5t26 -76.5q0 -19 -5 -41
q28 -2 43 5.5t27 20.5q2 2 7 6.5t11 4.5q7 0 11 -9.5z" />
    <glyph glyph-name="gjBH_R" horiz-adv-x="621" 
d="M755 402v-90q-63 -218 -124.5 -306t-133.5 -88q-46 0 -76 34t-30 84q0 24 10 54q9 24 27.5 41t29.5 17q4 0 14 -10t22 -16.5t31 -6.5q43 0 85.5 43.5t76.5 153.5h-75q-22 -50 -50.5 -71t-72.5 -21q-43 0 -86.5 21.5t-72 54.5t-28.5 66q0 26 14 38t42 12h18l25 80
q1 5 5 17t4 20q0 21 -26 21q-30 0 -65 -30t-59 -80t-24 -107q0 -56 32 -95.5t104 -39.5q19 0 19 -23q0 -15 -7 -36q-18 -59 -69 -100.5t-118 -41.5q-50 0 -91.5 26t-65.5 74t-24 113q0 97 50.5 195.5t145.5 163t222 64.5q97 0 157.5 -44t60.5 -124q0 -28 -9 -63h112z" />
    <glyph glyph-name="gjM_R" horiz-adv-x="356" 
d="M474 357v-92q-42 -122 -93.5 -199.5t-104 -112.5t-100.5 -35q-65 0 -99.5 35.5t-34.5 86.5q0 22 6 41q8 27 24 42t30 15q9 0 24 -12q20 -13 36.5 -20t41.5 -7q61 0 113.5 41t88.5 125h-73q-23 -53 -52.5 -76t-74.5 -23q-41 0 -81.5 23t-67 61t-26.5 80q0 14 3 29
q6 17 20.5 28t35.5 11h14l20 64l2 12q0 19 -13 19q-9 0 -15 -4.5t-13 -12.5t-11 -8q-5 0 -8 8t-3 20q0 33 20.5 64.5t61.5 52t97 20.5q76 0 116 -38t40 -98q0 -20 -4.5 -39t-16.5 -56l-14 -45h111z" />
    <glyph glyph-name="gjY_R" horiz-adv-x="436" 
d="M125.5 -46.5q-34.5 35.5 -34.5 86.5q0 22 6 41q8 27 24 42t30 15q9 0 24 -12q20 -13 36.5 -20t41.5 -7q47 0 94 22t73 52q-66 -21 -143 -21q-79 0 -138 23.5t-90.5 62.5t-31.5 84q0 18 4 31q6 21 21.5 36.5t47.5 28.5l93 37q44 18 44 39q0 10 -5 15.5t-14 5.5
q-11 0 -22 -8q-7 -5 -12 -5q-12 0 -12 19q0 14 7 32q12 31 46.5 55.5t88.5 24.5q52 0 91 -21.5t60 -59t21 -82.5q0 -26 -5 -45q-11 -46 -46.5 -75t-106.5 -57l-41 -16q-11 -4 -11 -10q0 -8 18 -14.5t45 -6.5q56 0 93.5 16t58 37t40.5 50q10 16 17 23t14 7q13 0 13 -32
q0 -33 -12 -82q-25 -103 -76.5 -182t-117.5 -122t-134 -43q-65 0 -99.5 35.5z" />
    <glyph glyph-name="gjV_R" horiz-adv-x="375" 
d="M343 21.5q-78 -103.5 -176 -103.5q-63 0 -98.5 36t-35.5 87q0 21 6 40q7 21 22 36.5t28 15.5q7 0 20 -9q12 -10 26.5 -16t39.5 -6q43 0 85.5 22t74.5 58q-44 -16 -96 -16q-53 0 -95.5 24t-67.5 68.5t-25 102.5q0 33 9 70q22 91 93 146.5t169 55.5q54 0 89.5 -16.5t52 -39
t16.5 -39.5q0 -11 -5 -15.5t-19 -4.5q-43 0 -76 -23t-51.5 -62t-18.5 -87q0 -37 15.5 -56t41.5 -19q27 0 52 25.5t39 67.5q5 14 16 14q12 0 12 -17q0 -16 -9 -45q-56 -191 -134 -294.5z" />
    <glyph glyph-name="gjS_R" horiz-adv-x="539" 
d="M660 408q12 0 19.5 -6.5t7.5 -16.5q0 -27 -33 -56l-119 -101q-43 -35 -65 -49.5t-47 -14.5q-29 0 -46 15t-17 37q0 37 41 48l87 26q-43 18 -77 49q-38 -45 -97 -75t-123 -40q36 -47 89.5 -73.5t112.5 -26.5q34 0 57 6.5t40.5 15t22.5 8.5q9 0 15.5 -14t6.5 -38
q0 -42 -19 -79.5t-55 -61t-84 -23.5q-80 0 -139 37.5t-91 101.5t-35 143q-49 5 -81 29t-32 59q0 12 5 27q7 22 25 33t38 11q31 0 66 -23q24 18 40 38.5t20 35.5q1 4 1 11q0 12 -6.5 19t-18.5 7q-13 0 -26 -8t-17 -8q-11 0 -11 17q0 11 4 23q18 59 71 98t126 39t111.5 -41
t38.5 -104q0 -26 -8 -58q-3 -14 -9 -26q43 -15 94 -15q48 0 95 19q13 5 22 5z" />
    <glyph glyph-name="gjK_KA" horiz-adv-x="896" 
d="M864.5 388q18.5 -12 30 -29t11.5 -32q0 -28 -39 -28q-26 0 -75 4q41 -25 64.5 -60.5t23.5 -78.5q0 -22 -8 -49q-17 -55 -67.5 -86.5t-120.5 -31.5q-64 0 -111 20.5t-72 55.5t-25 78q0 21 8 47q6 19 16.5 30t18.5 11q7 0 25 -13q23 -16 47.5 -26.5t60.5 -10.5q52 0 64 40
q3 9 3 18q0 15 -7 29t-20 24l-177 -2q-22 -1 -51.5 -1t-58.5 -1l-46 -1q35 -24 55.5 -57t20.5 -71q0 -25 -9 -52q-19 -55 -75 -86.5t-133 -31.5q-61 0 -107.5 19.5t-71.5 53t-25 75.5q0 22 10 52q8 23 23.5 39.5t25.5 16.5q7 0 19 -15q20 -22 44.5 -35.5t69.5 -13.5
q31 0 48 14.5t18 37.5q1 4 1 10q0 18 -13 34q-53 -16 -87 -16q-28 0 -49.5 12t-33 29.5t-11.5 32.5q0 28 34 28q29 0 81 -5q-26 24 -43 55t-17 61q0 41 21 75.5t58.5 55t86.5 20.5q66 0 111.5 -36.5t45.5 -93.5q0 -27 -8.5 -42.5t-20.5 -15.5q-8 0 -30 8q-3 1 -20.5 6.5
t-38.5 5.5q-29 0 -47 -17t-18 -45q0 -15 10 -32l187 3q42 1 147 1q-49 49 -49 105q0 42 21 77t58.5 55.5t86.5 20.5q66 0 111.5 -36.5t45.5 -93.5q0 -25 -8 -38t-18 -13q-8 0 -32 8q-3 1 -20.5 6.5t-37.5 5.5q-30 0 -48.5 -16t-21.5 -43v-4q0 -11 7 -29q43 10 36 8
q11 2 37 7t41 5q19 0 37.5 -12z" />
    <glyph glyph-name="gjK_KHA" horiz-adv-x="1428" 
d="M1344 169q-3 -7 -3 -14q0 -8 4.5 -12.5t11.5 -4.5q8 0 14 4t13 12.5t11 8.5q6 0 9.5 -8.5t3.5 -18.5q0 -32 -22.5 -64.5t-62 -53.5t-89.5 -21q-83 0 -122.5 39.5t-39.5 100.5q0 40 20 103q-35 8 -63 22q-50 -61 -122.5 -99t-144.5 -38q-97 0 -142 39.5t-45 109.5
q0 11 1 17h-146q96 -54 95 -126q-3 -48 -36.5 -86.5t-92 -60t-135.5 -21.5q-72 0 -129 21t-88 58t-29 82q2 26 13.5 48t25.5 35t23 13t24 -15q25 -22 56 -36t86 -14q37 0 56.5 14.5t19.5 37.5q3 21 -11 38l-44 -13q-43 -13 -55 -13q-22 0 -47.5 10.5t-42.5 26t-16 30.5
q0 13 10.5 23t33.5 10h88q-33 23 -53.5 55t-20.5 68q0 41 20.5 77t61 58t97.5 22q59 0 99.5 -22.5t60.5 -59t20 -78.5q0 -21 -6 -33t-14 -12q-12 0 -32 10q-22 9 -38.5 13.5t-37.5 4.5q-33 0 -52 -16t-21 -43q0 -27 22 -41l254 19l29 87l2 12q0 19 -16 19q-10 0 -15.5 -4.5
t-11.5 -12.5t-9 -8q-6 0 -9.5 8t-3.5 20q0 32 21.5 64t60.5 52.5t89 20.5q79 0 123 -38.5t44 -97.5q0 -48 -22 -95l-26 -66q-5 -13 -5 -23q0 -14 8.5 -22.5t23.5 -8.5q40 0 72 40q-12 19 -19 35t-7 40q0 49 27.5 76t64.5 27q34 0 54 -21.5t20 -60.5q0 -35 -12 -70
q21 1 35.5 10t24.5 30l48 154q13 39 75 60.5t127 21.5q45 0 60 -13.5t15 -35.5q0 -13 -6 -33z" />
    <glyph glyph-name="gjK_CA" horiz-adv-x="1297" 
d="M1211 169q-2 -10 -2 -13q0 -18 17 -18q8 0 14 4.5t12.5 12.5t10.5 8q5 0 9.5 -8.5t4.5 -18.5q0 -32 -22.5 -64.5t-62 -53.5t-88.5 -21q-76 0 -115 33t-46 87q-138 8 -216 104q-29 -7 -66 -7q-52 0 -90 21.5t-50 55.5h-91q96 -54 95 -126q-3 -48 -36.5 -86.5t-92 -60
t-135.5 -21.5q-72 0 -129 21t-88 58t-29 82q2 26 13.5 48t25.5 35t23 13t24 -15q25 -22 56 -36t86 -14q37 0 56.5 14.5t19.5 37.5q3 21 -11 38l-44 -13q-43 -13 -55 -13q-22 0 -47.5 10.5t-42.5 26t-16 30.5q0 13 10.5 23t33.5 10h88q-33 23 -53.5 55t-20.5 68q0 41 20.5 77
t61 58t97.5 22q59 0 99.5 -22.5t60.5 -59t20 -78.5q0 -21 -6 -33t-14 -12q-12 0 -32 10q-22 9 -38.5 13.5t-37.5 4.5q-33 0 -52 -16t-21 -43q0 -27 21 -40l104 10q120 12 131 12q15 0 28 -5t29 -15q28 21 42.5 43.5t14.5 38.5q0 12 -6.5 19t-18.5 7q-13 0 -26 -8t-17 -8
q-11 0 -11 17q0 11 4 23q18 59 71 98t126 39t112 -41t39 -105q0 -20 -7 -52q-13 -52 -51 -100t-94 -78q45 -19 80 -19t57.5 20t35.5 58l72 231q13 39 75 60.5t127 21.5q44 0 59.5 -13.5t15.5 -35.5q0 -13 -6 -33z" />
    <glyph glyph-name="gjK_JA" horiz-adv-x="1172" 
d="M1211 406.5q-41 -47.5 -146 -103.5l-82 -44q42 -22 62.5 -50.5t20.5 -67.5q0 -64 -49 -104t-129 -40q-61 0 -109 23.5t-75.5 65.5t-27.5 95q0 50 28.5 95t102.5 109l-6 9q-34 47 -75 47q-19 0 -30.5 -9.5t-11.5 -26.5q0 -9 6.5 -21t6.5 -17q0 -17 -14.5 -21.5
t-63.5 -11.5l-216 -29q57 -26 90 -61.5t32 -78.5q-3 -48 -36.5 -86.5t-92 -60t-135.5 -21.5q-81 0 -137 20.5t-83.5 57t-25.5 83.5q2 26 13.5 48t25.5 35t23 13q8 0 25 -15q24 -22 54 -36t83 -14q40 0 60 15.5t20 39.5t-17 40q-36 -17 -55.5 -24t-37.5 -7q-22 0 -47 10.5
t-42.5 27t-17.5 33.5q0 14 11 21.5t38 7.5h84q-34 23 -54 57.5t-20 75.5q0 66 45.5 106.5t113.5 40.5q45 0 79.5 -20.5t53 -53.5t18.5 -68q0 -25 -7.5 -38.5t-19.5 -13.5q-10 0 -23 5q-20 8 -40 8q-25 0 -41 -12t-20 -31q-1 -4 -1 -11q0 -12 8 -28l225 63q-16 34 -16 69
q0 25 7 46q13 41 45.5 63t77.5 22q61 0 111 -46.5t88 -153.5q58 50 77 72.5t19 37.5q0 7 -4 11t-12 8t-11.5 7.5t-3.5 10.5q0 17 17.5 36.5t51 33t78.5 13.5q50 0 90 -20.5t62.5 -55t22.5 -73.5q0 -60 -41 -107.5zM932 146q11 11 11 28q0 18 -14 36l-10 13q-48 -27 -48 -55
q0 -15 9 -24t24 -9q17 0 28 11z" />
    <glyph glyph-name="gjK_TTA" horiz-adv-x="1085" 
d="M1061.5 280.5q6.5 -14.5 6.5 -41.5q0 -66 -32 -121.5t-94 -88t-148 -32.5q-106 0 -170.5 43.5t-64.5 117.5q0 81 69 133h-198q96 -54 95 -126q-3 -48 -36.5 -86.5t-92 -60t-135.5 -21.5q-72 0 -129 21t-88 58t-29 82q2 26 13.5 48t25.5 35t23 13t24 -15q25 -22 56 -36
t86 -14q37 0 56.5 14.5t19.5 37.5q3 21 -11 38l-44 -13q-43 -13 -55 -13q-22 0 -47.5 10.5t-42.5 26t-16 30.5q0 13 10.5 23t33.5 10h88q-33 23 -53.5 55t-20.5 68q0 41 20.5 77t61 58t97.5 22q59 0 99.5 -22.5t60.5 -59t20 -78.5q0 -21 -6 -33t-14 -12q-12 0 -32 10
q-22 9 -38.5 13.5t-37.5 4.5q-35 0 -54 -17t-19 -45q0 -23 19 -40l425 14q45 1 71.5 17t26.5 38q0 15 -9.5 24t-27.5 9q-13 0 -25 -5.5t-28 -16.5q-19 -14 -28 -14q-6 0 -10 6.5t-4 19.5q0 53 24.5 95.5t69.5 67t105 24.5q74 0 120 -36t46 -91q0 -47 -26.5 -79t-64 -51.5
t-94.5 -40.5q-56 -21 -82.5 -37t-26.5 -40q0 -26 19 -38t59 -12q44 0 73 17t59 46q13 13 20 18.5t14 5.5q11 0 17.5 -14.5z" />
    <glyph glyph-name="gjK_NNA" horiz-adv-x="1619" 
d="M1197.5 48.5q40.5 -40.5 40.5 -100.5q0 -41 -21 -75t-58 -54t-84 -20q-51 0 -89.5 21t-59 56t-20.5 76q0 16 4.5 25t11.5 9q6 0 22 -6t32 -6q23 0 36 9.5t13 28.5q0 14 -11 23t-41 19l-323 112q-49 17 -72 41.5t-23 60.5q0 7 2 23h-127q96 -54 95 -126
q-3 -48 -36.5 -86.5t-92 -60t-135.5 -21.5q-72 0 -129 21t-88 58t-29 82q2 26 13.5 48t25.5 35t23 13t24 -15q25 -22 56 -36t86 -14q37 0 56.5 14.5t19.5 37.5q3 21 -11 38l-44 -13q-43 -13 -55 -13q-22 0 -47.5 10.5t-42.5 26t-16 30.5q0 13 10.5 23t33.5 10h88
q-33 23 -53.5 55t-20.5 68q0 41 20.5 77t61 58t97.5 22q59 0 99.5 -22.5t60.5 -59t20 -78.5q0 -21 -6 -33t-14 -12q-12 0 -32 10q-22 9 -38.5 13.5t-37.5 4.5q-33 0 -52 -16t-21 -43q0 -27 22 -41l240 18l53 168q13 39 75 60.5t126 21.5q45 0 61 -13.5t16 -35.5
q0 -13 -6 -33l-90 -280q-5 -17 -5 -26q0 -15 13.5 -25.5t47.5 -22.5l204 -70q81 -29 121.5 -69.5zM898.5 354.5q3.5 8.5 9.5 8.5q4 0 10 -7.5t11.5 -12t15.5 -4.5q19 0 36 20t27.5 51.5t10.5 63.5q0 35 -18 35q-7 0 -12.5 -4t-12.5 -12t-11 -8q-6 0 -9.5 8t-3.5 18
q0 31 19.5 59t54.5 45.5t78 17.5q82 0 128 -50.5t46 -128.5q0 -76 -28 -134t-77 -90t-111 -32q-75 0 -121 37t-46 95q0 16 3.5 24.5zM1535 169q-1 -5 -1 -13q0 -18 15 -18q9 0 15 4.5t12.5 12.5t10.5 8q5 0 8.5 -8.5t3.5 -18.5q0 -32 -22 -64.5t-61 -53.5t-89 -21
q-83 0 -122 39.5t-39 100.5q0 49 31 142l82 263q12 39 74.5 60.5t128.5 21.5q43 0 59 -13.5t16 -35.5q0 -7 -8 -33z" />
    <glyph glyph-name="gjK_TA" horiz-adv-x="1313" 
d="M1229 169q-2 -5 -2 -14q0 -17 15 -17q9 0 15 4.5t13 12.5t10 8q5 0 9 -8.5t4 -18.5q0 -32 -22 -64.5t-61.5 -53.5t-88.5 -21q-83 0 -122.5 39.5t-39.5 100.5q0 49 31 142l23 75q-8 1 -24 1q-56 0 -97 -32.5t-56 -84.5q-7 -22 -7 -43q0 -26 11.5 -41.5t26.5 -15.5
q8 0 14 4t14.5 12.5t14.5 8.5q14 0 14 -26q0 -16 -6 -34q-14 -48 -56.5 -77t-98.5 -29q-53 0 -94.5 23.5t-64.5 65.5t-23 96q0 38 12 78q9 28 22 53l-195 -16q50 -26 78 -59.5t27 -72.5q-3 -48 -36.5 -86.5t-92 -60t-135.5 -21.5q-72 0 -129 21t-88 58t-29 82q2 26 13.5 48
t25.5 35t23 13t24 -15q25 -22 56 -36t86 -14q37 0 56.5 14.5t19.5 37.5q3 21 -11 38l-44 -13q-43 -13 -55 -13q-22 0 -47.5 10.5t-42.5 26t-16 30.5q0 13 10.5 23t33.5 10h88q-33 23 -53.5 55t-20.5 68q0 41 20.5 77t61 58t97.5 22q59 0 99.5 -22.5t60.5 -59t20 -78.5
q0 -21 -6 -33t-14 -12q-12 0 -32 10q-22 9 -38.5 13.5t-37.5 4.5q-33 0 -52 -16t-21 -43q0 -24 17 -37l422 74q42 7 71 10.5t63 3.5q62 0 144 -21l36 115q13 39 75 60.5t127 21.5q44 0 59.5 -13.5t15.5 -35.5q0 -17 -6 -33z" />
    <glyph glyph-name="gjK_T_YA" horiz-adv-x="1730" 
d="M1646 169q-2 -5 -2 -13t4.5 -13t11.5 -5q9 0 14.5 4.5t12 12.5t10.5 8q6 0 9.5 -8.5t3.5 -18.5q0 -32 -22 -64.5t-61.5 -53.5t-88.5 -21q-83 0 -122.5 39.5t-39.5 100.5q0 27 7 58q-36 -33 -83 -51.5t-103 -18.5q-75 0 -135 30t-94 77.5t-34 97.5q0 12 1 17
q-35 -13 -61.5 -41.5t-37.5 -67.5q-7 -22 -7 -43q0 -26 11.5 -41.5t26.5 -15.5q8 0 14 4t14.5 12.5t14.5 8.5q14 0 14 -26q0 -16 -6 -34q-14 -48 -56.5 -77t-98.5 -29q-53 0 -94.5 23.5t-64.5 66t-23 95.5q0 38 12 78q9 28 22 53l-195 -16q50 -26 78 -59.5t27 -72.5
q-3 -48 -36.5 -86.5t-92 -60t-135.5 -21.5q-72 0 -129 21t-88 58t-29 82q2 26 13.5 48t25.5 35t23 13t24 -15q25 -22 56 -36t86 -14q37 0 56.5 14.5t19.5 37.5q3 21 -11 38l-44 -13q-43 -13 -55 -13q-22 0 -47.5 10.5t-42.5 26t-16 30.5q0 13 10.5 23t33.5 10h88
q-33 23 -53.5 55t-20.5 68q0 41 20.5 77t61 58t97.5 22q59 0 99.5 -22.5t60.5 -59t20 -78.5q0 -21 -6 -33t-14 -12q-12 0 -32 10q-22 9 -38.5 13.5t-37.5 4.5q-33 0 -52 -16t-21 -43q0 -24 17 -37l422 74q42 7 71 10.5t63 3.5q64 0 129 -24l77 31q44 18 44 39q0 10 -5 15.5
t-14 5.5q-11 0 -22 -8q-7 -5 -12 -5q-12 0 -12 19q0 14 7 32q12 31 46.5 55.5t88.5 24.5q52 0 91 -21.5t60 -59t21 -82.5q0 -26 -5 -45q-11 -46 -46.5 -75t-106.5 -57l-41 -16q-11 -4 -11 -10q0 -8 18 -14.5t45 -6.5q64 0 114.5 26.5t70.5 77.5l61 192q12 39 74 60.5
t127 21.5q43 0 59 -13.5t16 -35.5q0 -11 -5 -33z" />
    <glyph glyph-name="gjK_T_RA" horiz-adv-x="1284" 
d="M1201 169q-2 -10 -2 -13q0 -18 15 -18q9 0 15 4.5t13 12.5t10 8q5 0 8.5 -8.5t3.5 -18.5q0 -32 -22 -64.5t-61 -53.5t-88 -21q-84 0 -124 39.5t-40 100.5q0 23 8 58q-69 -107 -119.5 -152.5t-108.5 -45.5q-70 0 -104.5 40.5t-34.5 97.5q0 23 4 39q6 28 19 51.5t27.5 37.5
t23.5 14q8 0 20 -10q12 -9 24.5 -14t32.5 -5q28 0 78.5 20t125.5 59q-13 33 -32.5 48.5t-52.5 15.5q-16 0 -43 -5l-390 -83q55 -26 87 -61t31 -77q-3 -48 -36.5 -86.5t-92 -60t-135.5 -21.5q-72 0 -129 21t-88 58t-29 82q2 26 13.5 48t25.5 35t23 13t24 -15q25 -22 56 -36
t86 -14q37 0 56.5 14.5t19.5 37.5q3 21 -11 38l-44 -13q-43 -13 -55 -13q-22 0 -47.5 10.5t-42.5 26t-16 30.5q0 13 10.5 23t33.5 10h88q-33 23 -53.5 55t-20.5 68q0 41 20 77t58.5 58t90.5 22q85 0 125.5 -40t40.5 -94q0 -17 -5 -35q-7 -25 -21 -25q-6 0 -22 6
q-29 11 -56 11q-33 0 -52 -16t-21 -43q0 -21 14 -35l338 93q-2 20 -2 30q0 27 8 54q14 44 47 69.5t79 25.5q67 0 114.5 -55.5t83.5 -174.5l44 138q12 39 74 60.5t127 21.5q43 0 59 -13.5t16 -35.5q0 -7 -6 -33z" />
    <glyph glyph-name="gjK_T_VA" horiz-adv-x="1650" 
d="M1567 169q-3 -7 -3 -14q0 -8 4.5 -12.5t11.5 -4.5q9 0 14.5 4.5t12 12.5t10.5 8q6 0 9.5 -8.5t3.5 -18.5q0 -32 -22 -64.5t-61.5 -53.5t-88.5 -21q-83 0 -122 39.5t-39 100.5q0 24 6 57q-67 -69 -155 -69q-59 0 -104.5 25t-71 70.5t-25.5 106.5q0 16 1 24
q-84 -19 -112 -113q-7 -22 -7 -43q0 -26 11.5 -41.5t26.5 -15.5q8 0 14 4t14.5 12.5t14.5 8.5q14 0 14 -26q0 -16 -6 -34q-14 -48 -56.5 -77t-98.5 -29q-53 0 -94.5 23.5t-64.5 65.5t-23 96q0 38 12 78q9 28 22 53l-195 -16q50 -26 78 -59.5t27 -72.5q-3 -48 -36.5 -86.5
t-92 -60t-135.5 -21.5q-72 0 -129 21t-88 58t-29 82q2 26 13.5 48t25.5 35t23 13t24 -15q25 -22 56 -36t86 -14q37 0 56.5 14.5t19.5 37.5q3 21 -11 38l-44 -13q-43 -13 -55 -13q-22 0 -47.5 10.5t-42.5 26t-16 30.5q0 13 10.5 23t33.5 10h88q-33 23 -53.5 55t-20.5 68
q0 41 20.5 77t61 58t97.5 22q59 0 99.5 -22.5t60.5 -59t20 -78.5q0 -21 -6 -33t-14 -12q-12 0 -32 10q-22 9 -38.5 13.5t-37.5 4.5q-33 0 -52 -16t-21 -43q0 -24 17 -37l420 75q74 13 136 13q36 0 72 -6q29 88 97 139.5t158 51.5q54 0 90 -16t52 -38t16 -41q0 -11 -5 -15.5
t-19 -4.5q-66 0 -106 -46.5t-40 -124.5q0 -75 57 -75q52 0 85 80l61 190q11 39 74 60.5t128 21.5q43 0 59 -13.5t16 -35.5q0 -10 -7 -33z" />
    <glyph glyph-name="gjK_THA" horiz-adv-x="1370" 
d="M1286 169q-2 -5 -2 -13t4.5 -13t11.5 -5q9 0 14.5 4.5t12 12.5t10.5 8q6 0 9.5 -8.5t3.5 -18.5q0 -32 -22 -64.5t-61.5 -53.5t-88.5 -21q-83 0 -122.5 39.5t-39.5 100.5q0 26 7 57q-79 -69 -205 -69q-69 0 -133.5 23.5t-105.5 62t-45 80.5h-104q96 -54 95 -126
q-3 -48 -36.5 -86.5t-92 -60t-135.5 -21.5q-72 0 -129 21t-88 58t-29 82q2 26 13.5 48t25.5 35t23 13t24 -15q25 -22 56 -36t86 -14q37 0 56.5 14.5t19.5 37.5q3 21 -11 38l-44 -13q-43 -13 -55 -13q-22 0 -47.5 10.5t-42.5 26t-16 30.5q0 13 10.5 23t33.5 10h88
q-33 23 -53.5 55t-20.5 68q0 41 20.5 77t61 58t97.5 22q59 0 99.5 -22.5t60.5 -59t20 -78.5q0 -21 -6 -33t-14 -12q-12 0 -32 10q-22 9 -38.5 13.5t-37.5 4.5q-33 0 -52 -16t-21 -43q0 -27 22 -41l217 16q83 6 139 23q-46 12 -72.5 39t-26.5 65q0 35 23 65.5t66.5 49.5
t102.5 19q73 0 127.5 -24t83 -63.5t28.5 -84.5q0 -55 -30.5 -95t-91.5 -71l-54 -28q-12 -4 -12 -10q0 -5 15 -8t39 -3q65 0 111 28t65 83v-2l59 187q12 39 74 60.5t127 21.5q43 0 59 -13.5t16 -35.5q0 -11 -5 -33zM741 447.5q11 -11.5 31 -15.5q21 20 21 43q0 17 -9.5 25
t-21.5 8t-22 -9.5t-10 -24.5t11 -26.5z" />
    <glyph glyph-name="gjK_DA" horiz-adv-x="1039" 
d="M1024 188q0 -46 -29.5 -89.5t-81 -71t-114.5 -27.5q-73 0 -126.5 27.5t-81.5 74t-28 102.5q0 48 22 87h-155q96 -54 95 -126q-3 -48 -36.5 -86.5t-92 -60t-135.5 -21.5q-72 0 -129 21t-88 58t-29 82q2 26 13.5 48t25.5 35t23 13t24 -15q25 -22 56 -36t86 -14
q37 0 56.5 14.5t19.5 37.5q3 21 -11 38l-44 -13q-43 -13 -55 -13q-22 0 -47.5 10.5t-42.5 26t-16 30.5q0 13 10.5 23t33.5 10h88q-33 23 -53.5 55t-20.5 68q0 41 20.5 77t61 58t97.5 22q59 0 99.5 -22.5t60.5 -59t20 -78.5q0 -21 -6 -33t-14 -12q-12 0 -32 10
q-22 9 -38.5 13.5t-37.5 4.5q-33 0 -52 -16t-21 -43q0 -27 22 -41l337 26q-23 31 -23 71q0 53 27 93.5t74 63t107 22.5q72 0 111 -32t39 -77q0 -26 -13.5 -41.5t-36.5 -15.5q-5 0 -6.5 3.5t-2.5 15.5q-3 29 -25 29q-17 0 -25.5 -13t-8.5 -37q0 -28 16.5 -42.5t46.5 -28.5
q30 -12 30 -23q0 -9 -20 -17t-64 -19q-44 -10 -67.5 -26.5t-23.5 -44.5q0 -30 21.5 -45.5t58.5 -15.5q34 0 56 5t39 11.5t21 6.5q15 0 15 -37z" />
    <glyph glyph-name="gjK_NA" horiz-adv-x="1253" 
d="M1170 169q-2 -10 -2 -13q0 -18 15 -18q9 0 15 4.5t13 12.5t10 8q5 0 8.5 -8.5t3.5 -18.5q0 -32 -22 -64.5t-61 -53.5t-88 -21q-84 0 -124 39.5t-40 100.5q0 25 7.5 56.5t24.5 85.5l25 78q-43 19 -81 19q-34 0 -56 -18.5t-22 -50.5q0 -20 9.5 -29.5t21.5 -9.5q7 0 12.5 4
t13 12.5t12.5 8.5t8.5 -10t3.5 -22q0 -37 -21.5 -68.5t-58 -49.5t-78.5 -18q-75 0 -124 44t-50 118v4h-115q96 -54 95 -126q-3 -48 -36.5 -86.5t-92 -60t-135.5 -21.5q-72 0 -129 21t-88 58t-29 82q2 26 13.5 48t25.5 35t23 13t24 -15q25 -22 56 -36t86 -14q37 0 56.5 14.5
t19.5 37.5q3 21 -11 38l-44 -13q-43 -13 -55 -13q-22 0 -47.5 10.5t-42.5 26t-16 30.5q0 13 10.5 23t33.5 10h88q-33 23 -53.5 55t-20.5 68q0 41 20.5 77t61 58t97.5 22q59 0 99.5 -22.5t60.5 -59t20 -78.5q0 -21 -6 -33t-14 -12q-12 0 -32 10q-22 9 -38.5 13.5t-37.5 4.5
q-33 0 -52 -16t-21 -43q0 -27 22 -41l222 16q26 56 85.5 88t135.5 32q102 0 195 -60l35 110q12 39 74 60.5t127 21.5q43 0 59 -13.5t16 -35.5q0 -7 -6 -33z" />
    <glyph glyph-name="gjK_PA" horiz-adv-x="1265" 
d="M1181 169q-2 -5 -2 -13q0 -18 17 -18q9 0 14.5 4.5t11.5 12.5t9 8q7 0 10.5 -8t3.5 -19q0 -32 -22.5 -64.5t-62 -53.5t-88.5 -21q-81 0 -121 40t-40 100q0 23 6 53q-73 -65 -173 -65q-84 0 -127 40t-43 109q0 11 1 17h-145q96 -54 95 -126q-3 -48 -36.5 -86.5t-92 -60
t-135.5 -21.5q-72 0 -129 21t-88 58t-29 82q2 26 13.5 48t25.5 35t23 13t24 -15q25 -22 56 -36t86 -14q37 0 56.5 14.5t19.5 37.5q3 21 -11 38l-44 -13q-43 -13 -55 -13q-22 0 -47.5 10.5t-42.5 26t-16 30.5q0 13 10.5 23t33.5 10h88q-33 23 -53.5 55t-20.5 68q0 41 20.5 77
t61 58t97.5 22q59 0 99.5 -22.5t60.5 -59t20 -78.5q0 -21 -6 -33t-14 -12q-12 0 -32 10q-22 9 -38.5 13.5t-37.5 4.5q-33 0 -52 -16t-21 -43q0 -27 22 -41l255 19l27 87l2 12q0 19 -13 19q-9 0 -15 -4.5t-13 -12.5t-11 -8q-5 0 -8 8t-3 20q0 33 20.5 64.5t61.5 52t97 20.5
q76 0 116 -38t40 -98q0 -47 -21 -95l-25 -66q-7 -21 -7 -33q0 -17 10 -26.5t31 -9.5q22 0 43.5 21t33.5 56l62 198q14 39 76 60.5t126 21.5q45 0 60.5 -13.5t15.5 -35.5q0 -10 -7 -33z" />
    <glyph glyph-name="gjK_P_RA" horiz-adv-x="1267" 
d="M1183 169q-2 -5 -2 -13q0 -18 17 -18q9 0 14.5 4.5t11.5 12.5t9 8q7 0 10.5 -8t3.5 -19q0 -32 -22.5 -64.5t-62 -53.5t-88.5 -21q-82 0 -121.5 39.5t-39.5 100.5q0 22 4 43q-51 -148 -108.5 -205t-127.5 -57q-63 0 -98.5 36t-35.5 87q0 21 6 40q7 21 22 36.5t28 15.5
q8 0 19 -9q14 -10 27.5 -16t39.5 -6q37 0 69 18.5t56 51.5q-28 -6 -56 -6q-78 0 -120.5 33t-48.5 92h-159q96 -54 95 -126q-3 -48 -36.5 -86.5t-92 -60t-135.5 -21.5q-72 0 -129 21t-88 58t-29 82q2 26 13.5 48t25.5 35t23 13t24 -15q25 -22 56 -36t86 -14q37 0 56.5 14.5
t19.5 37.5q3 21 -11 38l-44 -13q-43 -13 -55 -13q-22 0 -47.5 10.5t-42.5 26t-16 30.5q0 13 10.5 23t33.5 10h88q-33 23 -53.5 55t-20.5 68q0 41 20.5 77t61 58t97.5 22q59 0 99.5 -22.5t60.5 -59t20 -78.5q0 -21 -6 -33t-14 -12q-12 0 -32 10q-22 9 -38.5 13.5t-37.5 4.5
q-33 0 -52 -16t-21 -43q0 -27 22 -41l258 19q5 20 10 35l16 52l2 12q0 19 -13 19q-9 0 -15 -4.5t-13 -12.5t-11 -8q-5 0 -8 8t-3 20q0 33 20.5 64.5t61.5 52t97 20.5q76 0 116 -38t40 -98q0 -24 -5.5 -46t-15.5 -49l-25 -66q-7 -19 -7 -33q0 -36 39 -36q22 0 44.5 21
t34.5 56l62 198q14 39 76 60.5t126 21.5q45 0 60.5 -13.5t15.5 -35.5q0 -10 -7 -33z" />
    <glyph glyph-name="gjK_PHA" horiz-adv-x="926" 
d="M864.5 388q18.5 -12 30 -29t11.5 -32q0 -28 -39 -28q-26 0 -75 4q88 -53 88 -139q0 -46 -26 -84.5t-71.5 -61t-100.5 -22.5q-31 0 -61 5q11 -29 36 -43t56 -14q33 0 73 21q4 2 11 5t11 3q8 0 17.5 -10.5t16.5 -29.5t7 -42q0 -58 -38.5 -94.5t-95.5 -36.5
q-48 0 -86.5 22.5t-61 67.5t-22.5 109q0 31 6 67q-39 22 -59.5 57.5t-20.5 74.5q0 18 5 38q15 55 55 55q51 0 73 -79q7 -1 22 -1q38 0 62.5 16t24.5 51q0 19 -8.5 33t-27.5 29l-162 -2q-22 -1 -51.5 -1t-58.5 -1l-46 -1q35 -24 55.5 -57t20.5 -71q0 -25 -9 -52
q-19 -55 -75 -86.5t-133 -31.5q-61 0 -107.5 19.5t-71.5 53t-25 75.5q0 22 10 52q8 23 23.5 39.5t25.5 16.5q7 0 19 -15q20 -22 44.5 -35.5t69.5 -13.5q31 0 48 14.5t18 37.5q1 4 1 10q0 18 -13 34q-53 -16 -87 -16q-28 0 -49.5 12t-33 29.5t-11.5 32.5q0 28 34 28
q29 0 81 -5q-26 24 -43 55t-17 61q0 41 21 75.5t58.5 55t86.5 20.5q66 0 111.5 -36.5t45.5 -93.5q0 -27 -8.5 -42.5t-20.5 -15.5q-8 0 -30 8q-3 1 -20.5 6.5t-38.5 5.5q-29 0 -47 -17t-18 -45q0 -15 10 -32l187 3q42 1 147 1q-49 49 -49 105q0 42 21 77t58.5 55.5t86.5 20.5
q66 0 111.5 -36.5t45.5 -93.5q0 -25 -8 -38t-18 -13q-8 0 -32 8q-3 1 -20.5 6.5t-37.5 5.5q-30 0 -48.5 -16t-21.5 -43v-4q0 -11 7 -29q43 10 36 8q11 2 37 7t41 5q19 0 37.5 -12z" />
    <glyph glyph-name="gjK_MA" horiz-adv-x="1263" 
d="M1180 169q-2 -10 -2 -13q0 -8 4.5 -13t11.5 -5q9 0 15 4.5t12.5 12.5t10.5 8q5 0 8 -8t3 -19q0 -32 -22 -64.5t-61 -53.5t-88 -21q-83 0 -122 39.5t-39 100.5q0 43 25 128h-72q-23 -76 -56 -108t-85 -32q-41 0 -82.5 23.5t-67.5 62t-25 80.5h-118q96 -54 95 -126
q-3 -48 -36.5 -86.5t-92 -60t-135.5 -21.5q-72 0 -129 21t-88 58t-29 82q2 26 13.5 48t25.5 35t23 13t24 -15q25 -22 56 -36t86 -14q37 0 56.5 14.5t19.5 37.5q3 21 -11 38l-44 -13q-43 -13 -55 -13q-22 0 -47.5 10.5t-42.5 26t-16 30.5q0 13 10.5 23t33.5 10h88
q-33 23 -53.5 55t-20.5 68q0 41 20.5 77t61 58t97.5 22q59 0 99.5 -22.5t60.5 -59t20 -78.5q0 -21 -6 -33t-14 -12q-12 0 -32 10q-22 9 -38.5 13.5t-37.5 4.5q-33 0 -52 -16t-21 -43q0 -27 22 -41l284 21h2l26 85l2 12q0 19 -13 19q-9 0 -15 -4.5t-13 -12.5t-11 -8
q-5 0 -8 8t-3 20q0 33 20.5 64.5t61.5 52t97 20.5q76 0 116 -38t40 -98q0 -17 -4 -34.5t-9.5 -35t-7.5 -25.5l-14 -45h73l60 185q11 39 73.5 60.5t127.5 21.5q44 0 60 -13.5t16 -35.5q0 -12 -8 -33z" />
    <glyph glyph-name="gjK_YA" horiz-adv-x="1325" 
d="M1241 169q-2 -5 -2 -13t4.5 -13t11.5 -5q9 0 14.5 4.5t12 12.5t10.5 8q6 0 9.5 -8.5t3.5 -18.5q0 -32 -22 -64.5t-61.5 -53.5t-88.5 -21q-83 0 -122.5 39.5t-39.5 100.5q0 27 7 58q-36 -33 -83 -51.5t-103 -18.5q-69 0 -125.5 25.5t-91.5 67t-43 87.5l-112 -9
q50 -26 78 -59t27 -72q-3 -48 -36.5 -86.5t-92 -60t-135.5 -21.5q-72 0 -129 21t-88 58t-29 82q2 26 13.5 48t25.5 35t23 13t24 -15q25 -22 56 -36t86 -14q37 0 56.5 14.5t19.5 37.5q3 21 -11 38l-44 -13q-43 -13 -55 -13q-22 0 -47.5 10.5t-42.5 26t-16 30.5q0 13 10.5 23
t33.5 10h88q-33 23 -53.5 55t-20.5 68q0 41 20.5 77t61 58t97.5 22q59 0 99.5 -22.5t60.5 -59t20 -78.5q0 -21 -6 -33t-14 -12q-12 0 -32 10q-22 9 -38.5 13.5t-37.5 4.5q-33 0 -52 -16t-21 -43q0 -24 16 -36l161 34q241 51 241 99q0 10 -5 15.5t-14 5.5q-11 0 -22 -8
q-7 -5 -12 -5q-12 0 -12 19q0 14 7 32q12 31 46.5 55.5t88.5 24.5q52 0 91 -21.5t60 -59t21 -82.5q0 -26 -5 -45q-11 -46 -46.5 -75t-106.5 -57l-41 -16q-11 -4 -11 -10q0 -8 18 -14.5t45 -6.5q64 0 114.5 26.5t70.5 77.5l61 192q12 39 74 60.5t127 21.5q43 0 59 -13.5
t16 -35.5q0 -11 -5 -33z" />
    <glyph glyph-name="gjK_LA" horiz-adv-x="1338" 
d="M938 243q0 -24 -25.5 -52t-67.5 -47t-89 -19q-80 0 -139 44t-71 122h-116q96 -54 95 -126q-3 -48 -36.5 -86.5t-92 -60t-135.5 -21.5q-72 0 -129 21t-88 58t-29 82q2 26 13.5 48t25.5 35t23 13t24 -15q25 -22 56 -36t86 -14q37 0 56.5 14.5t19.5 37.5q3 21 -11 38
l-44 -13q-43 -13 -55 -13q-22 0 -47.5 10.5t-42.5 26t-16 30.5q0 13 10.5 23t33.5 10h88q-33 23 -53.5 55t-20.5 68q0 41 20.5 77t61 58t97.5 22q59 0 99.5 -22.5t60.5 -59t20 -78.5q0 -21 -6 -33t-14 -12q-12 0 -32 10q-22 9 -38.5 13.5t-37.5 4.5q-33 0 -52 -16t-21 -43
q0 -27 22 -41l205 15q11 72 53 132t109 95t147 35q44 0 75 -11t46.5 -26.5t15.5 -29.5q0 -10 -6 -12.5t-24 -5.5q-41 -6 -77 -33.5t-58.5 -72.5t-22.5 -101q0 -46 23 -69t57 -23q12 0 26.5 3.5t18.5 3.5q9 0 9 -13zM1254 169q-2 -5 -2 -14q0 -17 15 -17q9 0 15 4.5
t12.5 12.5t10.5 8q6 0 9.5 -8t3.5 -19q0 -32 -22 -64.5t-61 -53.5t-89 -21q-84 0 -123.5 39.5t-39.5 100.5q0 25 7.5 57.5t23.5 84.5l32 97q-45 -46 -68.5 -62t-48.5 -16q-30 0 -48.5 19t-18.5 52q0 25 12 49.5t28.5 40t28.5 15.5q6 0 9.5 -3.5t7.5 -10.5q5 -9 9.5 -13
t13.5 -4q20 0 46.5 17t69.5 53q66 53 114 82t98 29q44 0 59 -13.5t15 -35.5q0 -11 -5 -33z" />
    <glyph glyph-name="gjK_VA" horiz-adv-x="1248" 
d="M1165 169q-3 -7 -3 -14q0 -8 4.5 -12.5t11.5 -4.5q9 0 14.5 4.5t12 12.5t10.5 8q6 0 9.5 -8.5t3.5 -18.5q0 -32 -22 -64.5t-61.5 -53.5t-88.5 -21q-83 0 -122 39.5t-39 100.5q0 24 6 57q-67 -69 -155 -69q-81 0 -134.5 44.5t-64.5 121.5h-117q96 -54 95 -126
q-3 -48 -36.5 -86.5t-92 -60t-135.5 -21.5q-72 0 -129 21t-88 58t-29 82q2 26 13.5 48t25.5 35t23 13t24 -15q25 -22 56 -36t86 -14q37 0 56.5 14.5t19.5 37.5q3 21 -11 38l-44 -13q-43 -13 -55 -13q-22 0 -47.5 10.5t-42.5 26t-16 30.5q0 13 10.5 23t33.5 10h88
q-33 23 -53.5 55t-20.5 68q0 41 20.5 77t61 58t97.5 22q59 0 99.5 -22.5t60.5 -59t20 -78.5q0 -21 -6 -33t-14 -12q-12 0 -32 10q-22 9 -38.5 13.5t-37.5 4.5q-33 0 -52 -16t-21 -43q0 -27 22 -41l206 15q9 77 45.5 136.5t94.5 92.5t130 33q54 0 90 -16t52 -38t16 -41
q0 -11 -5 -15.5t-19 -4.5q-66 0 -106 -46.5t-40 -124.5q0 -75 57 -75q52 0 85 80l61 190q11 39 74 60.5t128 21.5q43 0 59 -13.5t16 -35.5q0 -10 -7 -33z" />
    <glyph glyph-name="gjK_V_YA" horiz-adv-x="1733" 
d="M1649 169q-2 -5 -2 -13t4.5 -13t11.5 -5q9 0 14.5 4.5t12 12.5t10.5 8q6 0 9.5 -8.5t3.5 -18.5q0 -32 -22 -64.5t-61.5 -53.5t-88.5 -21q-84 0 -123 38.5t-39 101.5q0 27 7 58q-36 -33 -83 -51.5t-103 -18.5q-53 0 -99.5 15.5t-81.5 43.5q-90 -59 -203 -59
q-95 0 -164 44.5t-90 121.5h-132q96 -54 95 -126q-3 -48 -36.5 -86.5t-92 -60t-135.5 -21.5q-72 0 -129 21t-88 58t-29 82q2 26 13.5 48t25.5 35t23 13t24 -15q25 -22 56 -36t86 -14q37 0 56.5 14.5t19.5 37.5q3 21 -11 38l-44 -13q-43 -13 -55 -13q-22 0 -47.5 10.5
t-42.5 26t-16 30.5q0 13 10.5 23t33.5 10h88q-33 23 -53.5 55t-20.5 68q0 41 20.5 77t61 58t97.5 22q59 0 99.5 -22.5t60.5 -59t20 -78.5q0 -21 -6 -33t-14 -12q-12 0 -32 10q-22 9 -38.5 13.5t-37.5 4.5q-33 0 -52 -16t-21 -43q0 -27 22 -41l214 16q3 34 13 66
q26 83 95 139t163 56q55 0 91 -16t52.5 -38t16.5 -41q0 -11 -5.5 -15.5t-18.5 -4.5q-52 0 -89 -30.5t-53 -80.5q-9 -28 -9 -57q0 -49 25.5 -81t70.5 -32q29 0 53 13q-23 40 -23 79q0 19 4 32q5 18 17 29.5t41 23.5l102 41q44 18 44 39q0 10 -5 15.5t-14 5.5q-11 0 -22 -8
q-7 -5 -12 -5q-12 0 -12 19q0 14 7 32q12 31 46.5 55.5t88.5 24.5q52 0 91 -21.5t60 -59t21 -82.5q0 -26 -5 -45q-11 -46 -46.5 -75t-106.5 -57l-41 -16q-11 -4 -11 -10q0 -8 18 -14.5t45 -6.5q64 0 114.5 26.5t70.5 77.5l61 192q12 39 74 60.5t127 21.5q43 0 59 -13.5
t16 -35.5q0 -11 -5 -33z" />
    <glyph glyph-name="gjK_SHA" horiz-adv-x="1452" 
d="M1403 59.5q7 -20.5 7 -48.5q0 -59 -30.5 -107.5t-89.5 -77.5t-140 -29q-138 0 -254 81.5t-199 249.5q-68 6 -106 38t-38 79q0 16 7 39l-125 4q43 -24 67 -55.5t23 -67.5q-3 -48 -36.5 -86.5t-92 -60t-135.5 -21.5q-72 0 -129 21t-88 58t-29 82q2 26 13.5 48t25.5 35
t23 13t24 -15q25 -22 56 -36t86 -14q37 0 56.5 14.5t19.5 37.5q3 21 -11 38l-44 -13q-43 -13 -55 -13q-22 0 -47.5 10.5t-42.5 26t-16 30.5q0 13 10.5 23t33.5 10h88q-33 23 -53.5 55t-20.5 68q0 41 20.5 77t61 58t97.5 22q59 0 99.5 -22.5t60.5 -59t20 -78.5q0 -21 -6 -33
t-14 -12q-12 0 -32 10q-22 9 -38.5 13.5t-37.5 4.5q-33 0 -52 -16t-21 -43q0 -26 20 -40l183 19q23 3 40 3q39 0 66 -20.5t70 -81.5q41 24 59 37q-43 24 -67.5 58t-24.5 76q0 47 25.5 88.5t76 66.5t120.5 25q54 0 101.5 -21.5t77 -64t29.5 -101.5q0 -36 -14 -83
q-25 -77 -95.5 -138t-167.5 -83q77 -60 172.5 -91.5t199.5 -31.5q68 0 107.5 16t71.5 39q3 2 9.5 6.5t10.5 4.5q7 0 14 -20.5zM1368 266q-3 -7 -3 -14q0 -17 15 -17q9 0 15.5 4.5t13.5 13t10 8.5q6 0 8.5 -8.5t2.5 -19.5q-1 -33 -24 -65t-63 -53t-90 -21q-81 0 -118.5 37
t-37.5 95q0 28 8 61.5t26 88.5l58 166q14 39 76.5 60.5t127.5 21.5q45 0 59.5 -13.5t14.5 -35.5q-2 -16 -7 -33zM769.5 384q12.5 -17 33.5 -27q24 30 24 67q0 21 -8.5 31t-22.5 10q-13 0 -24 -10.5t-12 -30.5q-3 -23 9.5 -40z" />
    <glyph glyph-name="gjK_SS_MA" horiz-adv-x="1298" 
d="M1215 169q-2 -10 -2 -13q0 -8 4.5 -13t11.5 -5q9 0 15 4.5t12.5 12.5t10.5 8q5 0 8 -8t3 -19q0 -32 -22 -64.5t-61 -53.5t-88 -21q-83 0 -122 39.5t-39 100.5q0 43 25 128h-72q-23 -76 -56 -108t-85 -32q-43 0 -85 25t-67 64q-16 -3 -31 -3q-41 0 -83 19.5t-94 62.5
q-74 -35 -112 -59t-51.5 -43t-13.5 -40q0 -37 50 -55q24 53 62 80t78 27q38 0 61.5 -22.5t23.5 -57.5q0 -16 -4 -29q-11 -41 -48.5 -69t-100.5 -34q23 -52 82 -52q27 0 63 12q15 5 20 5q6 0 10 -9.5t4 -24.5q0 -23 -9 -54q-17 -54 -51.5 -85t-78.5 -31q-67 0 -106 56.5
t-39 140.5q0 16 4 50q-104 15 -167.5 68t-63.5 130q0 76 51 132.5t160 95.5q-31 28 -31 70q0 36 23 68t66.5 51t104.5 19q65 0 112 -21t71 -55.5t24 -73.5q0 -45 -23.5 -78.5t-87.5 -70.5q34 -11 71 -11q34 0 61 9.5t43 24.5l32 105l2 12q0 19 -13 19q-9 0 -15 -4.5
t-13 -12.5t-11 -8q-5 0 -8 8t-3 20q0 33 20.5 64.5t61.5 52t97 20.5q76 0 116 -38t40 -98q0 -17 -4 -34.5t-9.5 -35t-7.5 -25.5l-14 -45h73l60 185q11 39 73.5 60.5t127.5 21.5q44 0 60 -13.5t16 -35.5q0 -12 -8 -33zM370.5 475.5q15.5 11.5 15.5 30.5q0 13 -8.5 20.5
t-23.5 7.5q-23 0 -40 -15.5t-17 -37.5q0 -10 6.5 -17.5t15.5 -9.5q36 10 51.5 21.5z" />
    <glyph glyph-name="gjK_SS_M_YA" horiz-adv-x="2170" 
d="M2086 169q-2 -5 -2 -13t4.5 -13t11.5 -5q9 0 14.5 4.5t12 12.5t10.5 8q6 0 9.5 -8.5t3.5 -18.5q0 -32 -22 -64.5t-61.5 -53.5t-88.5 -21q-83 0 -122.5 39.5t-39.5 100.5q0 22 6 52q-72 -66 -192 -66q-81 0 -137.5 33.5t-86.5 88.5h-92q-23 -65 -54.5 -92.5t-80.5 -27.5
q-39 0 -78 21t-66 56.5t-31 74.5q-47 8 -100 31q-38 -33 -89 -55t-104 -30q31 -40 89 -40q25 0 46 10t46 27q23 16 30 16q13 0 21 -19t8 -51q0 -43 -17 -81.5t-52.5 -63t-87.5 -24.5q-56 0 -96.5 30.5t-61 82.5t-16.5 112q-36 7 -61.5 25t-32.5 44h-96q96 -54 95 -126
q-3 -48 -36.5 -86.5t-92 -60t-135.5 -21.5q-72 0 -129 21t-88 58t-29 82q2 26 13.5 48t25.5 35t23 13t24 -15q25 -22 56 -36t86 -14q37 0 56.5 14.5t19.5 37.5q3 21 -11 38l-44 -13q-43 -13 -55 -13q-22 0 -47.5 10.5t-42.5 26t-16 30.5q0 13 10.5 23t33.5 10h88
q-33 23 -53.5 55t-20.5 68q0 41 20.5 77t61 58t97.5 22q59 0 99.5 -22.5t60.5 -59t20 -78.5q0 -21 -6 -33t-14 -12q-12 0 -32 10q-22 9 -38.5 13.5t-37.5 4.5q-33 0 -52 -16t-21 -43q0 -27 21 -40l218 20l34 2q17 0 36 -7t30 -16q24 18 40 38.5t20 35.5q1 4 1 11
q0 12 -6.5 19t-18.5 7q-13 0 -26 -8t-17 -8q-11 0 -11 17q0 11 4 23q18 59 71 98t126 39t111.5 -41t38.5 -104q0 -26 -8 -58q-8 -29 -28 -61q23 -4 47 -4q38 0 62 14.5t33 46.5l12 41l2 12q0 19 -13 19q-9 0 -15 -4.5t-13 -12.5t-11 -8q-5 0 -8 8t-3 20q0 33 20.5 64.5
t61.5 52t97 20.5q76 0 116 -38t40 -98q0 -17 -4 -34.5t-9.5 -35t-7.5 -25.5l-20 -65h14q23 0 40.5 7.5t41.5 23.5l98 68q22 16 27 32q1 3 1 8q0 8 -5 13.5t-14 5.5t-21 -10t-16 -10q-6 0 -11 7t-5 20q0 15 5 30q14 46 56.5 74t101.5 28q48 0 88 -21t63 -58.5t23 -83.5
q0 -26 -9 -55t-32 -53t-64 -49l-56 -34q-5 -3 -8.5 -7t-3.5 -9q0 -8 13 -13t41 -5q63 0 100.5 24t58.5 78l61 194q12 39 74 60.5t127 21.5q43 0 59 -13.5t16 -35.5q0 -17 -5 -33z" />
    <glyph glyph-name="gjK_SS_YA" horiz-adv-x="1299" 
d="M1215 169q-2 -5 -2 -13t4.5 -13t11.5 -5q9 0 14.5 4.5t12 12.5t10.5 8q6 0 9.5 -8.5t3.5 -18.5q0 -32 -22 -64.5t-61.5 -53.5t-88.5 -21q-83 0 -122.5 39.5t-39.5 100.5q0 27 7 58q-35 -33 -80 -51.5t-96 -18.5q-67 0 -121.5 28t-73.5 79q-45 4 -86 19t-87 46
q-78 -36 -118.5 -61t-54.5 -44t-14 -41q0 -37 50 -55q24 53 62 80t78 27q38 0 61.5 -22.5t23.5 -57.5q0 -16 -4 -29q-11 -41 -48.5 -69t-100.5 -34q23 -52 82 -52q27 0 63 12q15 5 20 5q6 0 10 -9.5t4 -24.5q0 -23 -9 -54q-17 -54 -51.5 -85t-78.5 -31q-67 0 -106 56.5
t-39 140.5q0 16 4 50q-104 15 -167.5 68t-63.5 130q0 76 51 132.5t160 95.5q-31 28 -31 70q0 36 23 68t66.5 51t104.5 19q65 0 112 -21t71 -55.5t24 -73.5q0 -44 -22.5 -77t-82.5 -68q20 -4 49 -4q58 0 100.5 31.5t56.5 74.5q7 21 7 37q0 12 -4 18t-10 6q-7 0 -18 -9t-16 -9
q-6 0 -10 6.5t-4 17.5q0 9 5 27q14 44 54.5 71.5t98.5 27.5q50 0 87.5 -21.5t57.5 -58t20 -79.5q0 -30 -8 -55q-16 -54 -64.5 -97.5t-119.5 -67.5q-5 -2 -6 -5q-2 -6 7 -12t28 -6q63 0 121 33t79 86l61 192q12 39 74 60.5t127 21.5q43 0 59 -13.5t16 -35.5q0 -11 -5 -33z
M370.5 475.5q15.5 11.5 15.5 30.5q0 13 -8.5 20.5t-23.5 7.5q-23 0 -40 -15.5t-17 -37.5q0 -10 6.5 -17.5t15.5 -9.5q36 10 51.5 21.5z" />
    <glyph glyph-name="gjK_SS_VA" horiz-adv-x="1321" 
d="M1238 169q-3 -7 -3 -14q0 -8 4.5 -12.5t11.5 -4.5q9 0 14.5 4.5t12 12.5t10.5 8q6 0 9.5 -8.5t3.5 -18.5q0 -32 -22 -64.5t-61.5 -53.5t-88.5 -21q-83 0 -122 39.5t-39 100.5q0 24 6 57q-67 -69 -155 -69q-64 0 -111.5 28.5t-70.5 79.5q-16 -9 -38 -9q-40 0 -87 16
t-113 53q-74 -35 -112.5 -59t-52 -43t-13.5 -40q0 -37 50 -55q24 53 62 80t78 27q38 0 61.5 -22.5t23.5 -57.5q0 -16 -4 -29q-11 -41 -48.5 -69t-100.5 -34q23 -52 82 -52q27 0 63 12q15 5 20 5q6 0 10 -9.5t4 -24.5q0 -23 -9 -54q-17 -54 -51.5 -85t-78.5 -31
q-67 0 -106 56.5t-39 140.5q0 16 4 50q-104 15 -167.5 68t-63.5 130q0 76 51 132.5t160 95.5q-31 28 -31 70q0 36 23 68t66.5 51t104.5 19q65 0 112 -21t71 -55.5t24 -73.5q0 -44 -22.5 -77t-82.5 -69q33 -5 54 -5q52 0 78 23q5 81 41.5 144.5t96 98.5t133.5 35q54 0 90 -16
t52 -38t16 -41q0 -11 -5 -15.5t-19 -4.5q-66 0 -106 -46.5t-40 -124.5q0 -75 57 -75q52 0 85 80l61 190q11 39 74 60.5t128 21.5q43 0 59 -13.5t16 -35.5q0 -10 -7 -33zM370.5 475.5q15.5 11.5 15.5 30.5q0 13 -8.5 20.5t-23.5 7.5q-23 0 -40 -15.5t-17 -37.5
q0 -10 6.5 -17.5t15.5 -9.5q36 10 51.5 21.5z" />
    <glyph glyph-name="gjK_SA" horiz-adv-x="1343" 
d="M1259 169q-3 -7 -3 -14q0 -8 4.5 -12.5t12.5 -4.5t13.5 4t12.5 12.5t11 8.5q6 0 9.5 -8t3.5 -19q0 -32 -22 -64.5t-61.5 -53.5t-89.5 -21q-82 0 -121.5 39.5t-39.5 100.5q0 52 28 136q-50 5 -114 33q-39 -33 -89 -54t-103 -29q31 -40 89 -40q25 0 46 10t46 27
q23 16 30 16q13 0 21 -19t8 -51q0 -43 -17 -81.5t-52.5 -63t-87.5 -24.5q-56 0 -96.5 30.5t-61 82.5t-16.5 112q-36 7 -61.5 25t-32.5 44h-96q96 -54 95 -126q-3 -48 -36.5 -86.5t-92 -60t-135.5 -21.5q-72 0 -129 21t-88 58t-29 82q2 26 13.5 48t25.5 35t23 13t24 -15
q25 -22 56 -36t86 -14q37 0 56.5 14.5t19.5 37.5q3 21 -11 38l-44 -13q-43 -13 -55 -13q-22 0 -47.5 10.5t-42.5 26t-16 30.5q0 13 10.5 23t33.5 10h88q-33 23 -53.5 55t-20.5 68q0 41 20.5 77t61 58t97.5 22q59 0 99.5 -22.5t60.5 -59t20 -78.5q0 -21 -6 -33t-14 -12
q-12 0 -32 10q-22 9 -38.5 13.5t-37.5 4.5q-33 0 -52 -16t-21 -43q0 -27 21 -40l218 20l34 2q17 0 36 -7t30 -16q24 18 40 38.5t20 35.5q1 4 1 11q0 12 -6.5 19t-18.5 7q-13 0 -26 -8t-17 -8q-11 0 -11 17q0 11 4 23q18 59 71 98t126 39t111.5 -41t38.5 -104q0 -26 -8 -58
q-8 -29 -26 -58q43 -3 69.5 8.5t34.5 37.5l41 129q12 39 74.5 60.5t127.5 21.5q44 0 59 -13.5t15 -35.5q0 -11 -5 -33z" />
    <glyph glyph-name="gjK_S_TTA" horiz-adv-x="1533" 
d="M1509.5 280.5q6.5 -14.5 6.5 -41.5q0 -66 -32 -121.5t-94 -88t-148 -32.5q-106 0 -170.5 43.5t-64.5 117.5q0 51 25 84q-69 19 -137 58q-37 -30 -85 -49.5t-99 -27.5q31 -40 89 -40q25 0 46 10t46 27q23 16 30 16q13 0 21 -19t8 -51q0 -43 -17 -81.5t-52.5 -63
t-87.5 -24.5q-56 0 -96.5 30.5t-61 82.5t-16.5 112q-36 7 -61.5 25t-32.5 44h-96q96 -54 95 -126q-3 -48 -36.5 -86.5t-92 -60t-135.5 -21.5q-72 0 -129 21t-88 58t-29 82q2 26 13.5 48t25.5 35t23 13t24 -15q25 -22 56 -36t86 -14q37 0 56.5 14.5t19.5 37.5q3 21 -11 38
l-44 -13q-43 -13 -55 -13q-22 0 -47.5 10.5t-42.5 26t-16 30.5q0 13 10.5 23t33.5 10h88q-33 23 -53.5 55t-20.5 68q0 41 20.5 77t61 58t97.5 22q59 0 99.5 -22.5t60.5 -59t20 -78.5q0 -21 -6 -33t-14 -12q-12 0 -32 10q-22 9 -38.5 13.5t-37.5 4.5q-33 0 -52 -16t-21 -43
q0 -27 21 -40l218 20l34 2q17 0 36 -7t30 -16q24 18 40 38.5t20 35.5q1 4 1 11q0 12 -6.5 19t-18.5 7q-13 0 -26 -8t-17 -8q-11 0 -11 17q0 11 4 23q18 59 71 98t126 39t111.5 -41t38.5 -104q0 -26 -8 -58q-11 -39 -34 -69q74 -20 146 -20q62 0 102 15q59 22 85.5 39.5
t26.5 36.5q0 13 -9.5 21t-27.5 8q-13 0 -25 -6t-28 -16q-19 -14 -28 -14q-6 0 -10 6.5t-4 19.5q0 53 24.5 95.5t69.5 67t105 24.5q74 0 120 -36t46 -91q0 -47 -26.5 -79t-64 -51.5t-94.5 -40.5q-56 -21 -82.5 -37t-26.5 -40q0 -26 19 -38t59 -12q44 0 73 17t59 46
q13 13 20 18.5t14 5.5q11 0 17.5 -14.5z" />
    <glyph glyph-name="gjK_S_DDA" horiz-adv-x="1496" 
d="M1330.5 397.5q13.5 -15.5 42.5 -39.5q49 -43 76.5 -80t27.5 -89t-28 -96t-78 -70t-112 -26q-82 0 -140 29.5t-87 78.5t-29 106q0 24 6.5 37.5t18.5 13.5q8 0 20 -5.5t15 -7.5q32 -16 64 -26.5t77 -10.5q43 0 67.5 19t24.5 53q0 22 -17 42.5t-49 46.5q-5 -41 -32 -62.5
t-72 -21.5q-73 0 -184 57q-39 -48 -101 -80.5t-130 -42.5q31 -40 89 -40q25 0 46 10t46 27q23 16 30 16q13 0 21 -19t8 -51q0 -43 -17 -81.5t-52.5 -63t-87.5 -24.5q-56 0 -96.5 30.5t-61 82.5t-16.5 112q-36 7 -61.5 25t-32.5 44h-96q96 -54 95 -126q-3 -48 -36.5 -86.5
t-92 -60t-135.5 -21.5q-72 0 -129 21t-88 58t-29 82q2 26 13.5 48t25.5 35t23 13t24 -15q25 -22 56 -36t86 -14q37 0 56.5 14.5t19.5 37.5q3 21 -11 38l-44 -13q-43 -13 -55 -13q-22 0 -47.5 10.5t-42.5 26t-16 30.5q0 13 10.5 23t33.5 10h88q-33 23 -53.5 55t-20.5 68
q0 41 20.5 77t61 58t97.5 22q59 0 99.5 -22.5t60.5 -59t20 -78.5q0 -21 -6 -33t-14 -12q-12 0 -32 10q-22 9 -38.5 13.5t-37.5 4.5q-33 0 -52 -16t-21 -43q0 -27 21 -40l218 20l34 2q17 0 36 -7t30 -16q24 18 40 38.5t20 35.5q1 4 1 11q0 12 -6.5 19t-18.5 7q-13 0 -26 -8
t-17 -8q-11 0 -11 17q0 11 4 23q18 59 71 98t126 39t111.5 -41t38.5 -104q0 -26 -8 -58q-5 -17 -7 -22q54 -8 88 -8t57 8t39 26q-58 53 -58 101q0 46 35.5 74.5t100.5 28.5q63 0 110.5 -25t73.5 -64.5t26 -81.5q0 -19 -6 -30.5t-14 -11.5q-11 0 -30 17q-15 12 -26 18t-25 6
t-22 -8.5t-8 -23.5q0 -16 13.5 -31.5z" />
    <glyph glyph-name="gjK_S_TA" horiz-adv-x="1738" 
d="M1654 169q-2 -5 -2 -14q0 -17 15 -17q9 0 15 4.5t13 12.5t10 8q5 0 9 -8.5t4 -18.5q0 -32 -22 -64.5t-61.5 -53.5t-88.5 -21q-83 0 -122.5 39.5t-39.5 100.5q0 49 31 142l23 75q-8 1 -24 1q-56 0 -97 -32.5t-56 -84.5q-7 -22 -7 -43q0 -26 11.5 -41.5t26.5 -15.5
q8 0 14 4t14.5 12.5t14.5 8.5q14 0 14 -26q0 -16 -6 -34q-14 -48 -56.5 -77t-98.5 -29q-53 0 -94.5 23.5t-64.5 65.5t-23 95q0 36 10 72q-55 8 -121 47q-37 -30 -85 -49.5t-99 -27.5q31 -40 89 -40q25 0 46 10t46 27q23 16 30 16q13 0 21 -19t8 -51q0 -43 -17 -81.5
t-52.5 -63t-87.5 -24.5q-56 0 -96.5 30.5t-61 82.5t-16.5 112q-36 7 -61.5 25t-32.5 44h-96q96 -54 95 -126q-3 -48 -36.5 -86.5t-92 -60t-135.5 -21.5q-72 0 -129 21t-88 58t-29 82q2 26 13.5 48t25.5 35t23 13t24 -15q25 -22 56 -36t86 -14q37 0 56.5 14.5t19.5 37.5
q3 21 -11 38l-44 -13q-43 -13 -55 -13q-22 0 -47.5 10.5t-42.5 26t-16 30.5q0 13 10.5 23t33.5 10h88q-33 23 -53.5 55t-20.5 68q0 41 20.5 77t61 58t97.5 22q59 0 99.5 -22.5t60.5 -59t20 -78.5q0 -21 -6 -33t-14 -12q-12 0 -32 10q-22 9 -38.5 13.5t-37.5 4.5
q-33 0 -52 -16t-21 -43q0 -27 21 -40l218 20l34 2q17 0 36 -7t30 -16q24 18 40 38.5t20 35.5q1 4 1 11q0 12 -6.5 19t-18.5 7q-13 0 -26 -8t-17 -8q-11 0 -11 17q0 11 4 23q18 59 71 98t126 39t111.5 -41t38.5 -104q0 -26 -8 -58q-9 -34 -30 -64q25 -4 55 -4q24 0 48 8.5
t58 26.5q52 27 97.5 41.5t105.5 14.5q62 0 144 -21l36 115q13 39 75 60.5t127 21.5q44 0 59.5 -13.5t15.5 -35.5q0 -17 -6 -33z" />
    <glyph glyph-name="gjK_S_P_RA" horiz-adv-x="1756" 
d="M1672 169q-2 -5 -2 -13q0 -18 17 -18q9 0 14.5 4.5t11.5 12.5t9 8q7 0 10.5 -8t3.5 -19q0 -32 -22.5 -64.5t-62 -53.5t-88.5 -21q-82 0 -121.5 39.5t-39.5 100.5q0 22 4 43q-51 -148 -108.5 -205t-127.5 -57q-63 0 -98.5 36t-35.5 87q0 21 6 40q7 21 22 36.5t28 15.5
q8 0 19 -9q14 -10 27.5 -16t39.5 -6q37 0 69 18.5t56 51.5q-28 -6 -56 -6q-63 0 -102 22t-55 62q-85 0 -191 53q-39 -31 -87.5 -51.5t-100.5 -28.5q31 -40 89 -40q25 0 46 10t46 27q23 16 30 16q13 0 21 -19t8 -51q0 -43 -17 -81.5t-52.5 -63t-87.5 -24.5q-56 0 -96.5 30.5
t-61 82.5t-16.5 112q-36 7 -61.5 25t-32.5 44h-96q96 -54 95 -126q-3 -48 -36.5 -86.5t-92 -60t-135.5 -21.5q-72 0 -129 21t-88 58t-29 82q2 26 13.5 48t25.5 35t23 13t24 -15q25 -22 56 -36t86 -14q37 0 56.5 14.5t19.5 37.5q3 21 -11 38l-44 -13q-43 -13 -55 -13
q-22 0 -47.5 10.5t-42.5 26t-16 30.5q0 13 10.5 23t33.5 10h88q-33 23 -53.5 55t-20.5 68q0 41 20.5 77t61 58t97.5 22q59 0 99.5 -22.5t60.5 -59t20 -78.5q0 -21 -6 -33t-14 -12q-12 0 -32 10q-22 9 -38.5 13.5t-37.5 4.5q-33 0 -52 -16t-21 -43q0 -27 21 -40l218 20l34 2
q17 0 36 -7t30 -16q24 18 40 38.5t20 35.5q1 4 1 11q0 12 -6.5 19t-18.5 7q-13 0 -26 -8t-17 -8q-11 0 -11 17q0 11 4 23q18 59 71 98t126 39t111.5 -41t38.5 -104q0 -26 -8 -58q-9 -33 -28 -61q36 -4 50 -4q78 0 93 50l16 52l2 12q0 19 -13 19q-9 0 -15 -4.5t-13 -12.5
t-11 -8q-5 0 -8 8t-3 20q0 33 20.5 64.5t61.5 52t97 20.5q76 0 116 -38t40 -98q0 -24 -5.5 -46t-15.5 -49l-25 -66q-7 -19 -7 -33q0 -36 39 -36q22 0 44.5 21t34.5 56l62 198q14 39 76 60.5t126 21.5q45 0 60.5 -13.5t15.5 -35.5q0 -10 -7 -33z" />
    <glyph glyph-name="gjK_S_P_LA" horiz-adv-x="2239" 
d="M1839 243q0 -24 -25.5 -52t-67.5 -47t-89 -19q-59 0 -107.5 24.5t-73.5 65.5q-92 -90 -216 -90q-94 0 -141.5 38t-51.5 96q-61 0 -164 47q-39 -33 -89 -54t-103 -29q31 -40 89 -40q25 0 46 10t46 27q23 16 30 16q13 0 21 -19t8 -51q0 -43 -17 -81.5t-52.5 -63
t-87.5 -24.5q-56 0 -96.5 30.5t-61 82.5t-16.5 112q-36 7 -61.5 25t-32.5 44h-96q96 -54 95 -126q-3 -48 -36.5 -86.5t-92 -60t-135.5 -21.5q-72 0 -129 21t-88 58t-29 82q2 26 13.5 48t25.5 35t23 13t24 -15q25 -22 56 -36t86 -14q37 0 56.5 14.5t19.5 37.5q3 21 -11 38
l-44 -13q-43 -13 -55 -13q-22 0 -47.5 10.5t-42.5 26t-16 30.5q0 13 10.5 23t33.5 10h88q-33 23 -53.5 55t-20.5 68q0 41 20.5 77t61 58t97.5 22q59 0 99.5 -22.5t60.5 -59t20 -78.5q0 -21 -6 -33t-14 -12q-12 0 -32 10q-22 9 -38.5 13.5t-37.5 4.5q-33 0 -52 -16t-21 -43
q0 -27 21 -40l218 20l34 2q17 0 36 -7t30 -16q24 18 40 38.5t20 35.5q1 4 1 11q0 12 -6.5 19t-18.5 7q-13 0 -26 -8t-17 -8q-11 0 -11 17q0 11 4 23q18 59 71 98t126 39t111.5 -41t38.5 -104q0 -26 -8 -58q-9 -33 -28 -61q34 -4 49 -4q79 0 94 50l16 52l2 12q0 19 -13 19
q-9 0 -15 -4.5t-13 -12.5t-11 -8q-5 0 -8 8t-3 20q0 33 20.5 64.5t61.5 52t97 20.5q76 0 116 -38t40 -98q0 -24 -5 -44.5t-17 -51.5l-24 -65q-7 -18 -7 -33q0 -36 38 -36q21 0 40 13.5t27 39.5q4 15 8 41q7 45 14 70q15 52 57 98.5t104 75t133 28.5q44 0 75 -11t46.5 -26.5
t15.5 -29.5q0 -10 -6 -12.5t-24 -5.5q-41 -6 -77 -33.5t-58.5 -72.5t-22.5 -101q0 -46 23 -69t57 -23q12 0 26.5 3.5t18.5 3.5q9 0 9 -13zM2155 169q-2 -5 -2 -14q0 -17 15 -17q9 0 15 4.5t12.5 12.5t10.5 8q6 0 9.5 -8t3.5 -19q0 -32 -22 -64.5t-61 -53.5t-89 -21
q-84 0 -123.5 39.5t-39.5 100.5q0 25 7.5 57.5t23.5 84.5l32 97q-45 -47 -68.5 -62.5t-48.5 -15.5q-30 0 -48.5 19t-18.5 52q0 25 12 49.5t28.5 40t28.5 15.5q6 0 9.5 -3.5t7.5 -10.5q5 -9 9.5 -13t13.5 -4q20 0 46.5 17t69.5 53q66 53 114 82t98 29q44 0 59 -13.5t15 -35.5
q0 -11 -5 -33z" />
    <glyph glyph-name="gjKH_KHA" horiz-adv-x="1479" 
d="M1395 169q-3 -7 -3 -14q0 -8 4.5 -12.5t11.5 -4.5q8 0 14 4t13 12.5t11 8.5q6 0 9.5 -8.5t3.5 -18.5q0 -32 -22.5 -64.5t-62 -53.5t-89.5 -21q-83 0 -122.5 39.5t-39.5 100.5q0 40 20 103q-35 8 -63 22q-50 -61 -122.5 -99t-144.5 -38q-84 0 -129.5 30.5t-54.5 84.5h-3
q-44 0 -94 24q-49 -62 -122.5 -100.5t-146.5 -38.5q-97 0 -142 39.5t-45 109.5q0 46 19 99l30 89l2 12q0 19 -16 19q-10 0 -15.5 -4.5t-11.5 -12.5t-9 -8q-6 0 -9.5 8t-3.5 20q0 32 21.5 64t60.5 52.5t89 20.5q79 0 123 -38.5t44 -97.5q0 -48 -22 -95l-26 -66q-5 -13 -5 -23
q0 -14 8.5 -22.5t23.5 -8.5q40 0 72 40q-13 19 -19.5 35t-6.5 40q0 49 27.5 76t64.5 27q34 0 54 -21.5t20 -60.5q0 -37 -14 -74q36 0 65 20l3 9l30 89l2 12q0 19 -16 19q-10 0 -15.5 -4.5t-11.5 -12.5t-9 -8q-6 0 -9.5 8t-3.5 20q0 32 21.5 64t60.5 52.5t89 20.5
q79 0 123 -38.5t44 -97.5q0 -48 -22 -95l-26 -66q-5 -13 -5 -23q0 -14 8.5 -22.5t23.5 -8.5q40 0 72 40q-12 19 -19 35t-7 40q0 49 27.5 76t64.5 27q34 0 54 -21.5t20 -60.5q0 -35 -12 -70q21 1 35.5 10t24.5 30l48 154q13 39 75 60.5t127 21.5q45 0 60 -13.5t15 -35.5
q0 -13 -6 -33z" />
    <glyph glyph-name="gjKH_TA" horiz-adv-x="1304" 
d="M1220 169q-2 -5 -2 -14q0 -17 15 -17q9 0 15 4.5t13 12.5t10 8q5 0 9 -8.5t4 -18.5q0 -32 -22 -64.5t-61.5 -53.5t-88.5 -21q-83 0 -122.5 39.5t-39.5 100.5q0 49 31 142l23 75q-8 1 -24 1q-56 0 -97 -32.5t-56 -84.5q-7 -22 -7 -43q0 -26 11.5 -41.5t26.5 -15.5
q8 0 14 4t14.5 12.5t14.5 8.5q14 0 14 -26q0 -16 -6 -34q-14 -48 -56.5 -77t-98.5 -29q-53 0 -94.5 23.5t-64.5 65.5t-23 95q0 36 8 65q-24 6 -48 18q-49 -62 -122.5 -100.5t-146.5 -38.5q-97 0 -142 39.5t-45 109.5q0 46 19 99l30 89l2 12q0 19 -16 19q-10 0 -15.5 -4.5
t-11.5 -12.5t-9 -8q-6 0 -9.5 8t-3.5 20q0 32 21.5 64t60.5 52.5t89 20.5q79 0 123 -38.5t44 -97.5q0 -48 -22 -95l-26 -66q-5 -13 -5 -23q0 -14 8.5 -22.5t23.5 -8.5q40 0 72 40q-13 19 -19.5 35t-6.5 40q0 49 27.5 76t64.5 27q34 0 54 -21.5t20 -60.5q0 -38 -14 -75h2
q21 0 39 9t44 27q32 21 58 35t67 24t96 10q62 0 144 -21l36 115q13 39 75 60.5t127 21.5q44 0 59.5 -13.5t15.5 -35.5q0 -17 -6 -33z" />
    <glyph glyph-name="gjKH_NA" horiz-adv-x="1342" 
d="M1259 169q-2 -10 -2 -13q0 -18 15 -18q9 0 15 4.5t13 12.5t10 8q5 0 8.5 -8.5t3.5 -18.5q0 -32 -22 -64.5t-61 -53.5t-88 -21q-84 0 -124 39.5t-40 100.5q0 25 7.5 56.5t24.5 85.5l25 78q-43 19 -81 19q-34 0 -56 -18.5t-22 -50.5q0 -20 9.5 -29.5t21.5 -9.5q7 0 12.5 4
t13 12.5t12.5 8.5t8.5 -10t3.5 -22q0 -37 -21.5 -68.5t-58 -49.5t-78.5 -18q-62 0 -107.5 31t-60.5 85q-4 -1 -14 -1q-44 0 -94 24q-49 -62 -122.5 -100.5t-146.5 -38.5q-97 0 -142 39.5t-45 109.5q0 46 19 99l30 89l2 12q0 19 -16 19q-10 0 -15.5 -4.5t-11.5 -12.5t-9 -8
q-6 0 -9.5 8t-3.5 20q0 32 21.5 64t60.5 52.5t89 20.5q79 0 123 -38.5t44 -97.5q0 -48 -22 -95l-26 -66q-5 -13 -5 -23q0 -14 8.5 -22.5t23.5 -8.5q40 0 72 40q-13 19 -19.5 35t-6.5 40q0 49 27.5 76t64.5 27q34 0 54 -21.5t20 -60.5q0 -36 -14 -75q57 0 82 43q28 48 84 77
t130 29q102 0 195 -60l35 110q12 39 74 60.5t127 21.5q43 0 59 -13.5t16 -35.5q0 -7 -6 -33z" />
    <glyph glyph-name="gjKH_MA" horiz-adv-x="1300" 
d="M1217 169q-2 -10 -2 -13q0 -8 4.5 -13t11.5 -5q9 0 15 4.5t12.5 12.5t10.5 8q5 0 8 -8t3 -19q0 -32 -22 -64.5t-61 -53.5t-88 -21q-83 0 -122 39.5t-39 100.5q0 43 25 128h-72q-23 -76 -56 -108t-85 -32q-51 0 -100 34.5t-67 83.5q-32 7 -61 22q-49 -62 -122.5 -101
t-146.5 -39q-97 0 -142 39.5t-45 109.5q0 46 19 99l30 89l2 12q0 19 -16 19q-10 0 -15.5 -4.5t-11.5 -12.5t-9 -8q-6 0 -9.5 8t-3.5 20q0 32 21.5 64t60.5 52.5t89 20.5q79 0 123 -38.5t44 -97.5q0 -48 -22 -95l-26 -66q-5 -13 -5 -23q0 -14 8.5 -22.5t23.5 -8.5q40 0 72 40
q-13 19 -19.5 35t-6.5 40q0 49 27.5 76t64.5 27q34 0 54 -21.5t20 -60.5q0 -37 -14 -76q8 -1 23 -1q31 0 45.5 13t23.5 41l21 67l2 12q0 19 -13 19q-9 0 -15 -4.5t-13 -12.5t-11 -8q-5 0 -8 8t-3 20q0 33 20.5 64.5t61.5 52t97 20.5q76 0 116 -38t40 -98q0 -17 -4 -34.5
t-9.5 -35t-7.5 -25.5l-14 -45h73l60 185q11 39 73.5 60.5t127.5 21.5q44 0 60 -13.5t16 -35.5q0 -12 -8 -33z" />
    <glyph glyph-name="gjKH_YA" horiz-adv-x="1319" 
d="M1235 169q-2 -5 -2 -13t4.5 -13t11.5 -5q9 0 14.5 4.5t12 12.5t10.5 8q6 0 9.5 -8.5t3.5 -18.5q0 -32 -22 -64.5t-61.5 -53.5t-88.5 -21q-83 0 -122.5 39.5t-39.5 100.5q0 26 7 57q-72 -69 -173 -69q-68 0 -122 28.5t-73 79.5q-42 6 -79 23q-49 -59 -120.5 -95
t-141.5 -36q-97 0 -142 39.5t-45 109.5q0 46 19 99l30 89l2 12q0 19 -16 19q-10 0 -15.5 -4.5t-11.5 -12.5t-9 -8q-6 0 -9.5 8t-3.5 20q0 32 21.5 64t60.5 52.5t89 20.5q79 0 123 -38.5t44 -97.5q0 -48 -22 -95l-26 -66q-5 -13 -5 -23q0 -14 8.5 -22.5t23.5 -8.5q40 0 72 40
q-13 19 -19.5 35t-6.5 40q0 49 27.5 76t64.5 27q34 0 54 -21.5t20 -60.5q0 -47 -22 -94q53 8 93 41.5t53 75.5q5 16 5 32q0 13 -4 20.5t-10 7.5q-7 0 -18 -9t-16 -9q-6 0 -10 6.5t-4 17.5q0 9 5 27q14 44 54.5 71.5t98.5 27.5q50 0 87.5 -21.5t57.5 -58t20 -79.5
q0 -30 -8 -55q-16 -54 -63.5 -97.5t-117.5 -67.5q-5 -1 -6 -5q-2 -6 7 -12t28 -6q63 0 120 33t77 86l61 192q12 39 74 60.5t127 21.5q43 0 59 -13.5t16 -35.5q0 -11 -5 -33z" />
    <glyph glyph-name="gjKH_SHA" horiz-adv-x="1508" 
d="M1459 59.5q7 -20.5 7 -48.5q0 -59 -30.5 -107.5t-89.5 -77.5t-140 -29q-138 0 -253 81t-198 248q-159 8 -253 105q-49 -48 -113 -77t-126 -29q-97 0 -142 39.5t-45 109.5q0 46 19 99l30 89l2 12q0 19 -16 19q-10 0 -15.5 -4.5t-11.5 -12.5t-9 -8q-6 0 -9.5 8t-3.5 20
q0 32 21.5 64t60.5 52.5t89 20.5q79 0 123 -38.5t44 -97.5q0 -48 -22 -95l-26 -66q-5 -13 -5 -23q0 -14 8.5 -22.5t23.5 -8.5q37 0 66 29q-20 42 -20 86q0 49 27.5 76t64.5 27q34 0 54 -21.5t20 -60.5q0 -55 -31 -112q24 -18 47 -25q8 67 61 67q23 0 43 -15.5t43 -55.5
q41 24 59 37q-43 24 -67.5 58t-24.5 76q0 47 25.5 88.5t76 66.5t120.5 25q54 0 101.5 -21.5t77 -64t29.5 -101.5q0 -36 -14 -83q-24 -76 -95.5 -137.5t-166.5 -84.5q77 -60 172 -91t199 -31q68 0 107.5 16t71.5 39q3 2 9.5 6.5t10.5 4.5q7 0 14 -20.5zM1424 266
q-3 -7 -3 -14q0 -17 15 -17q9 0 15.5 4.5t13.5 13t10 8.5q6 0 8.5 -8.5t2.5 -19.5q-1 -33 -24 -65t-63 -53t-90 -21q-81 0 -118.5 37t-37.5 95q0 28 8 61.5t26 88.5l58 166q14 39 76.5 60.5t127.5 21.5q45 0 59.5 -13.5t14.5 -35.5q-2 -16 -7 -33zM825.5 384
q12.5 -17 33.5 -27q24 30 24 67q0 21 -8.5 31t-22.5 10q-13 0 -24 -10.5t-12 -30.5q-3 -23 9.5 -40z" />
    <glyph glyph-name="gjKH_SA" horiz-adv-x="1437" 
d="M1353 169q-3 -7 -3 -14q0 -8 4.5 -12.5t12.5 -4.5t13.5 4t12.5 12.5t11 8.5q6 0 9.5 -8t3.5 -19q0 -32 -22 -64.5t-61.5 -53.5t-89.5 -21q-82 0 -121.5 39.5t-39.5 100.5q0 52 28 136q-50 5 -114 33q-39 -33 -89 -54t-103 -29q31 -40 89 -40q25 0 46 10t46 27
q23 16 30 16q13 0 21 -19t8 -51q0 -43 -17 -81.5t-52.5 -63t-87.5 -24.5q-53 0 -92.5 27.5t-60.5 75t-21 104.5q-124 5 -192 48q-49 -57 -119.5 -92t-139.5 -35q-97 0 -142 39.5t-45 109.5q0 46 19 99l30 89l2 12q0 19 -16 19q-10 0 -15.5 -4.5t-11.5 -12.5t-9 -8
q-6 0 -9.5 8t-3.5 20q0 32 21.5 64t60.5 52.5t89 20.5q79 0 123 -38.5t44 -97.5q0 -48 -22 -95l-26 -66q-5 -13 -5 -23q0 -14 8.5 -22.5t23.5 -8.5q40 0 72 40q-13 19 -19.5 35t-6.5 40q0 49 27.5 76t64.5 27q34 0 54 -21.5t20 -60.5q0 -54 -28 -105q22 -12 56 -17
q-1 4 -1 12q0 10 5 27q7 22 25 33t38 11q31 0 66 -23q24 18 40 38.5t20 35.5q1 4 1 11q0 12 -6.5 19t-18.5 7q-13 0 -26 -8t-17 -8q-11 0 -11 17q0 11 4 23q18 59 71 98t126 39t111.5 -41t38.5 -104q0 -26 -8 -58q-8 -29 -26 -58q43 -3 69.5 8.5t34.5 37.5l41 129
q12 39 74.5 60.5t127.5 21.5q44 0 59 -13.5t15 -35.5q0 -11 -5 -33z" />
    <glyph glyph-name="gjG_NA" horiz-adv-x="1131" 
d="M365.5 582.5q46.5 -50.5 46.5 -128.5q0 -76 -28 -134t-77 -90t-111 -32q-76 0 -122 37t-46 95q0 15 3.5 24t7.5 9q5 0 11 -7t12 -12t17 -5q19 0 36 20t27 51.5t10 63.5q0 17 -5 26t-13 9q-10 0 -21.5 -12t-16.5 -12q-6 0 -9 8t-3 18q0 31 20 59t55 45.5t77 17.5
q83 0 129.5 -50.5zM1048 169q-2 -10 -2 -13q0 -18 15 -18q9 0 15 4.5t13 12.5t10 8q5 0 8.5 -8.5t3.5 -18.5q0 -32 -22 -64.5t-61 -53.5t-88 -21q-84 0 -124 39.5t-40 100.5q0 25 7.5 56.5t24.5 85.5l25 78q-43 19 -81 19q-34 0 -56 -18.5t-22 -50.5q0 -20 9.5 -29.5
t21.5 -9.5q7 0 12.5 4t13 12.5t12.5 8.5t8.5 -10t3.5 -22q0 -37 -21.5 -68.5t-58 -49.5t-78.5 -18q-75 0 -124.5 45t-49.5 120q0 60 31 106t85.5 71t122.5 25q102 0 195 -60l35 110q12 39 74 60.5t127 21.5q43 0 59 -13.5t16 -35.5q0 -7 -6 -33z" />
    <glyph glyph-name="gjG_R_YA" horiz-adv-x="1241" 
d="M74 235q-46 37 -46 95q0 15 3.5 24t7.5 9q5 0 11 -7t12 -12t17 -5q19 0 36 20t27 51.5t10 63.5q0 17 -5 26t-13 9q-10 0 -21.5 -12t-16.5 -12q-6 0 -9 8t-3 18q0 31 20 59t55 45.5t77 17.5q83 0 129.5 -50.5t46.5 -128.5q0 -76 -28 -134t-77 -90t-111 -32q-76 0 -122 37z
M1157 169q-2 -5 -2 -13t4.5 -13t11.5 -5q9 0 14.5 4.5t12 12.5t10.5 8q6 0 9.5 -8.5t3.5 -18.5q0 -32 -22 -64.5t-61.5 -53.5t-88.5 -21q-83 0 -122.5 39.5t-39.5 100.5q0 27 7 58q-36 -33 -83 -51.5t-103 -18.5q-78 0 -138.5 32t-91.5 78q-31 -137 -106 -227t-184 -90
q-65 0 -99.5 35.5t-34.5 86.5q0 22 6 41q8 27 24 42t30 15q9 0 24 -12q20 -13 36.5 -20t41.5 -7q67 0 126 52.5t97 168.5q12 37 18.5 52t17 24t32.5 18l102 41q44 18 44 39q0 10 -5 15.5t-14 5.5q-11 0 -22 -8q-7 -5 -12 -5q-12 0 -12 19q0 14 7 32q12 31 46.5 55.5
t88.5 24.5q52 0 91 -21.5t60 -59t21 -82.5q0 -26 -5 -45q-11 -46 -46.5 -75t-106.5 -57l-41 -16q-11 -4 -11 -10q0 -8 18 -14.5t45 -6.5q64 0 114.5 26.5t70.5 77.5l61 192q12 39 74 60.5t127 21.5q43 0 59 -13.5t16 -35.5q0 -11 -5 -33z" />
    <glyph glyph-name="gjGH_NA" horiz-adv-x="1152" 
d="M1069 169q-2 -10 -2 -13q0 -18 15 -18q9 0 15 4.5t13 12.5t10 8q5 0 8.5 -8.5t3.5 -18.5q0 -32 -22 -64.5t-61 -53.5t-88 -21q-84 0 -124 39.5t-40 100.5q0 25 7.5 56.5t24.5 85.5l25 78q-43 19 -81 19q-34 0 -56 -18.5t-22 -50.5q0 -20 9.5 -29.5t21.5 -9.5q7 0 12.5 4
t13 12.5t12.5 8.5t8.5 -10t3.5 -22q0 -37 -21.5 -68.5t-58 -49.5t-78.5 -18q-47 0 -86 19t-62 53q-48 -34 -107 -54t-123 -20q-108 0 -161.5 38.5t-53.5 101.5q0 90 101 128q-39 37 -39 85q0 43 22 78t62.5 56t93.5 21q52 0 93.5 -17.5t65 -46t23.5 -61.5q0 -10 -4 -15.5
t-11 -5.5t-15 5.5t-15 12.5q-10 9 -17.5 14t-15.5 5q-13 0 -23.5 -10.5t-10.5 -27.5q0 -28 17 -42.5t48 -29.5q15 -6 22.5 -11t7.5 -11q0 -11 -15 -18t-44 -14q-42 -11 -64.5 -23.5t-22.5 -36.5q0 -37 60 -37q54 0 100 18v8q-1 60 30 107t86 72.5t123 25.5q102 0 195 -60
l35 110q12 39 74 60.5t127 21.5q43 0 59 -13.5t16 -35.5q0 -7 -6 -33z" />
    <glyph glyph-name="gjGH_MA" horiz-adv-x="1163" 
d="M1079 167q-2 -10 -2 -13q0 -8 4.5 -13t11.5 -5q9 0 15 4.5t12.5 12.5t10.5 8q5 0 8 -8t3 -19q0 -32 -22 -64.5t-61 -53.5t-88 -21q-83 0 -122 39.5t-39 100.5q0 43 25 128h-72q-23 -76 -56 -108t-85 -32q-39 0 -79 22t-66 57q-50 -36 -110.5 -57.5t-126.5 -21.5
q-108 0 -161.5 38.5t-53.5 101.5q0 90 101 128q-39 37 -39 85q0 43 22 78t62.5 56t93.5 21q52 0 93.5 -17.5t65 -46t23.5 -61.5q0 -10 -4 -15.5t-11 -5.5t-15 5.5t-15 12.5q-10 9 -17.5 14t-15.5 5q-13 0 -23.5 -10.5t-10.5 -27.5q0 -28 17 -42.5t48 -29.5q15 -6 22.5 -11
t7.5 -11q0 -11 -15 -18t-44 -14q-42 -11 -64.5 -23.5t-22.5 -36.5q0 -37 60 -37q55 0 103 19v9q0 14 3 27q6 17 20.5 28t35.5 11h14l32 105l2 12q0 19 -13 19q-9 0 -15 -4.5t-13 -12.5t-11 -8q-5 0 -8 8t-3 20q0 33 20.5 64.5t61.5 52t97 20.5q76 0 116 -38t40 -98
q0 -17 -4 -34.5t-9.5 -35t-7.5 -25.5l-14 -45h73l60 185q11 39 73.5 60.5t127.5 21.5q44 0 60 -13.5t16 -35.5q0 -12 -8 -33z" />
    <glyph glyph-name="gjGH_YA" horiz-adv-x="1248" 
d="M1164 169q-2 -5 -2 -13t4.5 -13t11.5 -5q9 0 14.5 4.5t12 12.5t10.5 8q6 0 9.5 -8.5t3.5 -18.5q0 -32 -22 -64.5t-61.5 -53.5t-88.5 -21q-83 0 -122.5 39.5t-39.5 100.5q0 27 7 58q-36 -33 -83 -51.5t-103 -18.5q-68 0 -124.5 25.5t-92.5 67.5q-52 -43 -118.5 -69
t-139.5 -26q-108 0 -161.5 38.5t-53.5 101.5q0 90 101 128q-39 37 -39 85q0 43 22 78t62.5 56t93.5 21q52 0 93.5 -17.5t65 -46t23.5 -61.5q0 -10 -4 -15.5t-11 -5.5t-15 5.5t-15 12.5q-10 9 -17.5 14t-15.5 5q-13 0 -23.5 -10.5t-10.5 -27.5q0 -28 17 -42.5t48 -29.5
q15 -6 22.5 -11t7.5 -11q0 -11 -15 -18t-44 -14q-42 -11 -64.5 -23.5t-22.5 -36.5q0 -37 60 -37q64 0 115 25q-7 20 -7 43q0 19 4 32q5 18 17 29.5t41 23.5l102 41q44 18 44 39q0 10 -5 15.5t-14 5.5q-11 0 -22 -8q-7 -5 -12 -5q-12 0 -12 19q0 14 7 32q12 31 46.5 55.5
t88.5 24.5q52 0 91 -21.5t60 -59t21 -82.5q0 -26 -5 -45q-11 -46 -46.5 -75t-106.5 -57l-41 -16q-11 -4 -11 -10q0 -8 18 -14.5t45 -6.5q64 0 114.5 26.5t70.5 77.5l61 192q12 39 74 60.5t127 21.5q43 0 59 -13.5t16 -35.5q0 -11 -5 -33z" />
    <glyph glyph-name="gjC_CA" horiz-adv-x="1233" 
d="M1147 169q-2 -10 -2 -13q0 -18 17 -18q8 0 14 4.5t12.5 12.5t10.5 8q5 0 9.5 -8.5t4.5 -18.5q0 -32 -22.5 -64.5t-62 -53.5t-88.5 -21q-76 0 -115 33t-46 87q-123 8 -198 83q-55 -29 -113.5 -45.5t-114.5 -16.5q-70 0 -129.5 20t-99.5 63q-29 -7 -66 -7q-41 0 -74 14
t-52 38t-19 51q0 33 17 47.5t42 14.5q15 0 28 -5t29 -15q28 21 42.5 43.5t14.5 38.5q0 12 -6.5 19t-18.5 7q-13 0 -26 -8t-17 -8q-11 0 -11 17q0 11 4 23q18 59 71 98t126 39t112 -41t39 -105q0 -20 -7 -52q-13 -51 -50 -98t-90 -78q41 -12 76 -12q48 0 89 18q-25 25 -25 57
q0 33 17 47.5t42 14.5q16 0 30 -5t32 -17q53 48 53 85q0 11 -7 18t-19 7q-13 0 -26 -8t-17 -8q-11 0 -11 17q0 11 4 23q18 59 71 98t126 39q74 0 113 -38t39 -101q0 -25 -8 -59q-13 -49 -48.5 -95.5t-87.5 -86.5q40 -15 71 -15q35 0 57.5 20t35.5 58l72 231q13 39 75 60.5
t127 21.5q44 0 59.5 -13.5t15.5 -35.5q0 -13 -6 -33z" />
    <glyph glyph-name="gjC_CHA" horiz-adv-x="1145" 
d="M1132 525.5q34 -48.5 34 -123.5q0 -44 -12 -89q-22 -91 -85 -162t-156 -111t-203 -40q-95 0 -161 32.5t-91 87.5q-23 -5 -50 -5q-125 0 -208 101q-21 -3 -42 -3q-41 0 -74 14t-52 38t-19 51q0 33 17 47.5t42 14.5q15 0 28 -5t29 -15q28 21 42.5 43.5t14.5 38.5
q0 12 -6.5 19t-18.5 7q-13 0 -26 -8t-17 -8q-11 0 -11 17q0 11 4 23q18 59 71 98t126 39t112 -41t39 -105q0 -20 -7 -52q-14 -55 -55.5 -105t-101.5 -79q35 -13 64 -13q39 0 64.5 16t46.5 47q32 48 97 73q-44 36 -44 92q0 22 8 49q16 53 67 88t130 35q66 0 107.5 -31.5
t41.5 -77.5q0 -25 -13.5 -39.5t-28.5 -14.5q-9 0 -13 15q-7 30 -27 30q-10 0 -17.5 -7.5t-11.5 -20.5q-3 -10 -3 -21q0 -24 16.5 -39.5t44.5 -31.5q17 -9 24.5 -15t7.5 -13q0 -10 -18.5 -17.5t-65.5 -20.5q-35 -10 -53 -22.5t-24 -31.5q-2 -5 -2 -15q0 -28 35 -43.5
t85 -15.5q44 0 86 13.5t77 36.5q-38 33 -57.5 74t-19.5 86q0 30 9 60q16 50 47.5 77t78.5 27q64 0 98 -48.5zM1060 380q0 22 -8.5 37t-23.5 15q-22 0 -31 -31q-4 -12 -4 -29q0 -21 8.5 -42t23.5 -36q20 25 30 55q5 17 5 31z" />
    <glyph glyph-name="gjC_CH_VA" horiz-adv-x="1149" 
d="M1142.5 537.5q35.5 -44.5 35.5 -111.5q0 -33 -9 -68q-17 -68 -65.5 -123.5t-121.5 -91.5q43 -12 43 -51q0 -11 -5 -28l-58 -185q-2 -6 -2 -15t4.5 -13t10.5 -4q9 0 18.5 7.5t12.5 7.5q6 0 6 -16q-1 -23 -19 -48t-50.5 -41.5t-73.5 -16.5q-67 0 -104 31.5t-37 81.5
q0 11 1 17q-57 -46 -127 -46q-82 0 -132 41.5t-50 107.5q0 26 9 55q11 33 38 62t67 49q-13 8 -27 20q-65 -39 -137 -39q-102 0 -185 94q-9 -1 -27 -1q-41 0 -74 14t-52 38t-19 51q0 33 17 47.5t42 14.5q15 0 28 -5t29 -15q28 21 42.5 43.5t14.5 38.5q0 12 -6.5 19t-18.5 7
q-13 0 -26 -8t-17 -8q-11 0 -11 17q0 11 4 23q18 59 71 98t126 39t112 -41t39 -105q0 -20 -7 -52q-14 -55 -55 -105t-101 -79q20 -4 43 -4q63 0 121 39q1 12 6 26q24 71 116 101q-47 36 -47 88q0 19 7 39q16 44 60.5 71.5t110.5 27.5q74 0 119.5 -25.5t45.5 -65.5
q0 -12 -4 -23q-10 -26 -29 -26q-9 0 -14 13q-7 26 -27 26q-10 0 -17.5 -6.5t-11.5 -17.5q-3 -9 -3 -16q0 -21 16.5 -34.5t47.5 -28.5q17 -7 25 -12.5t8 -11.5q0 -9 -18.5 -15.5t-64.5 -17.5q-34 -8 -52 -19t-23 -27q-2 -8 -2 -12q0 -25 36 -38.5t86 -13.5q44 0 85.5 11.5
t75.5 31.5q-40 28 -60.5 64.5t-20.5 76.5q0 25 7 47q30 89 123 89q66 0 101.5 -44.5zM1072 412q0 20 -8.5 34.5t-24.5 14.5q-10 0 -18 -7t-12 -20q-3 -10 -3 -22q0 -20 9 -38.5t25 -31.5q22 23 29 47q3 11 3 23zM800 101q-55 0 -98.5 -21.5t-54.5 -57.5q-5 -17 -5 -29
q0 -25 14.5 -41t41.5 -16q23 0 42 15t29 47z" />
    <glyph glyph-name="gjC_NA" horiz-adv-x="1168" 
d="M1085 169q-2 -10 -2 -13q0 -18 15 -18q9 0 15 4.5t13 12.5t10 8q5 0 8.5 -8.5t3.5 -18.5q0 -32 -22 -64.5t-61 -53.5t-88 -21q-84 0 -124 39.5t-40 100.5q0 25 7.5 56.5t24.5 85.5l25 78q-43 19 -81 19q-34 0 -56 -18.5t-22 -50.5q0 -20 9.5 -29.5t21.5 -9.5q7 0 12.5 4
t13 12.5t12.5 8.5t8.5 -10t3.5 -22q0 -37 -21.5 -68.5t-58 -49.5t-78.5 -18q-55 0 -96 24q-43 -33 -105 -33q-126 0 -211 104q-30 -6 -64 -6q-41 0 -74 14t-52 38t-19 51q0 33 17 47.5t42 14.5q15 0 28 -5t29 -15q28 21 42.5 43.5t14.5 38.5q0 12 -6.5 19t-18.5 7
q-13 0 -26 -8t-17 -8q-11 0 -11 17q0 11 4 23q18 59 71 98t126 39t112 -41t39 -105q0 -20 -7 -52q-13 -52 -51.5 -100.5t-94.5 -78.5q45 -18 78 -18q45 0 78 29q-2 18 -2 28q0 60 31 106t85.5 71t122.5 25q102 0 195 -60l35 110q12 39 74 60.5t127 21.5q43 0 59 -13.5
t16 -35.5q0 -7 -6 -33z" />
    <glyph glyph-name="gjC_MA" horiz-adv-x="1184" 
d="M1101 169q-2 -10 -2 -13q0 -8 4.5 -13t11.5 -5q9 0 15 4.5t12.5 12.5t10.5 8q5 0 8 -8t3 -19q0 -32 -22 -64.5t-61 -53.5t-88 -21q-83 0 -122 39.5t-39 100.5q0 43 25 128h-71l-4 -13q-15 -49 -36 -76.5t-56 -40.5t-91 -13q-84 0 -173 24t-194 77q-34 -9 -74 -9
q-41 0 -74 14t-52 38t-19 51q0 33 17 47.5t42 14.5q15 0 28 -5t29 -15q28 21 42.5 43.5t14.5 38.5q0 12 -6.5 19t-18.5 7q-13 0 -26 -8t-17 -8q-11 0 -11 17q0 11 4 23q18 59 71 98t126 39t112 -41t39 -105q0 -20 -7 -52q-11 -46 -42 -89t-77 -74q65 -10 139 -10
q-4 26 -4 34q0 13 3 23q5 19 20 31t37 12h14l32 105l2 12q0 19 -13 19q-9 0 -15 -4.5t-13 -12.5t-11 -8q-5 0 -8 8t-3 20q0 33 20.5 64.5t61.5 52t97 20.5q76 0 116 -38t40 -98q0 -17 -4 -34.5t-9.5 -35t-7.5 -25.5l-13 -45h72l60 185q11 39 73.5 60.5t127.5 21.5
q44 0 60 -13.5t16 -35.5q0 -12 -8 -33z" />
    <glyph glyph-name="gjC_YA" horiz-adv-x="1209" 
d="M1125 169q-2 -5 -2 -13t4.5 -13t11.5 -5q9 0 14.5 4.5t12 12.5t10.5 8q6 0 9.5 -8.5t3.5 -18.5q0 -32 -22 -64.5t-61.5 -53.5t-88.5 -21q-83 0 -122.5 39.5t-39.5 100.5q0 19 5 47q-28 -29 -62 -44t-80 -15q-79 0 -125 43q-76 -26 -146 -26q-136 0 -229 78q-28 -6 -60 -6
q-41 0 -74 14t-52 38t-19 51q0 33 17 47.5t42 14.5q15 0 28 -5t29 -15q28 21 42.5 43.5t14.5 38.5q0 12 -6.5 19t-18.5 7q-13 0 -26 -8t-17 -8q-11 0 -11 17q0 11 4 23q18 59 71 98t126 39t112 -41t39 -105q0 -20 -7 -52q-12 -48 -46 -93t-83 -76l22 -1q76 0 135 35.5
t93 105.5q20 40 20 68q0 16 -5.5 24t-11.5 8q-7 0 -18 -9t-16 -9q-6 0 -10 6.5t-4 17.5q0 9 5 27q14 44 54.5 71.5t98.5 27.5q73 0 116.5 -45.5t43.5 -119.5q0 -34 -11 -76q-24 -87 -108 -153q0 -8 13 -8q60 0 103.5 31.5t64.5 86.5l61 193q12 39 74 60.5t127 21.5
q43 0 59 -13.5t16 -35.5q0 -11 -5 -33z" />
    <glyph glyph-name="gjCH_YA" horiz-adv-x="1551" 
d="M1467 169q-2 -5 -2 -13t4.5 -13t11.5 -5q9 0 14.5 4.5t12 12.5t10.5 8q6 0 9.5 -8.5t3.5 -18.5q0 -32 -22 -64.5t-61.5 -53.5t-88.5 -21q-83 0 -122.5 39.5t-39.5 100.5q0 23 4 44q-67 -56 -165 -56q-72 0 -126.5 30t-84 76t-29.5 93q0 22 9.5 35.5t37.5 28.5l60 34
q29 16 34 33q2 8 2 10q0 11 -10 18t-27 7q-49 0 -95 -46t-73 -131q-29 -92 -91.5 -162.5t-153 -110.5t-199.5 -40q-82 0 -143 25t-93.5 69t-32.5 99q0 29 9 59q25 82 117 117q-44 36 -44 92q0 22 8 49q16 53 67 88t130 35q66 0 107.5 -31.5t41.5 -77.5q0 -25 -13.5 -39.5
t-28.5 -14.5q-9 0 -13 15q-7 30 -27 30q-10 0 -17.5 -7.5t-11.5 -20.5q-3 -10 -3 -21q0 -24 16.5 -39.5t44.5 -31.5q17 -9 24.5 -15t7.5 -13q0 -10 -18.5 -17.5t-65.5 -20.5q-35 -10 -53 -22.5t-24 -31.5q-2 -5 -2 -15q0 -28 35 -44t85 -16q44 0 86 13.5t77 36.5
q-38 33 -57.5 74t-19.5 86q0 30 9 60q16 50 47.5 77t78.5 27q43 0 73 -23t45 -64q42 68 114.5 105t161.5 37q60 0 106.5 -21.5t72 -58.5t25.5 -83q0 -23 -8 -52q-10 -30 -33 -53.5t-68 -48.5l-41 -22q-11 -6 -11 -15q0 -11 17.5 -20t44.5 -9q58 0 87 23.5t49 77.5l62 195
q12 39 74 60.5t127 21.5q43 0 59 -13.5t16 -35.5q0 -11 -5 -33zM640 380q0 22 -8.5 37t-23.5 15q-22 0 -31 -31q-4 -12 -4 -29q0 -21 8.5 -42t23.5 -36q20 25 30 55q5 17 5 31z" />
    <glyph glyph-name="gjCH_VA" horiz-adv-x="705" 
d="M708.5 537.5q35.5 -44.5 35.5 -111.5q0 -33 -9 -68q-17 -68 -65.5 -123.5t-121.5 -91.5q43 -12 43 -51q0 -11 -5 -28l-58 -185q-2 -6 -2 -15t4.5 -13t10.5 -4q9 0 18.5 7.5t12.5 7.5q6 0 6 -16q-1 -23 -19 -48t-50.5 -41.5t-73.5 -16.5q-67 0 -104 31.5t-37 81.5
q0 11 1 17q-57 -46 -127 -46q-82 0 -132 41.5t-50 107.5q0 26 9 55q11 33 38 62t67 49q-37 23 -56 54.5t-19 68.5q0 23 7 44q24 71 114 101q-46 30 -46 82q0 17 6 38q15 45 64.5 75.5t128.5 30.5q62 0 103.5 -26t41.5 -64q0 -13 -4 -24q-10 -26 -29 -26q-9 0 -14 13
q-7 26 -27 26q-10 0 -17.5 -6.5t-11.5 -17.5q-3 -9 -3 -16q0 -21 16.5 -34.5t47.5 -28.5q17 -7 25 -12.5t8 -11.5q0 -9 -18.5 -15.5t-64.5 -17.5q-34 -8 -52 -19t-23 -27q-2 -8 -2 -12q0 -25 36 -38.5t86 -13.5q44 0 85.5 11.5t75.5 31.5q-40 28 -60.5 64.5t-20.5 76.5
q0 25 7 47q30 89 123 89q66 0 101.5 -44.5zM638 412q0 20 -8.5 34.5t-24.5 14.5q-10 0 -18 -7t-12 -20q-3 -10 -3 -22q0 -20 9 -38.5t25 -31.5q22 23 29 47q3 11 3 23zM366 101q-55 0 -98.5 -21.5t-54.5 -57.5q-5 -17 -5 -29q0 -25 14.5 -41t41.5 -16q23 0 42 15t29 47z" />
    <glyph glyph-name="gjJ_KA" horiz-adv-x="1099" 
d="M1019.5 608.5q49.5 -24.5 74.5 -63t25 -80.5q0 -23 -8.5 -34t-19.5 -11q-12 0 -36 12q-25 11 -45 17.5t-48 6.5q-36 0 -58 -16t-24 -43q0 -16 9 -29l45 23q40 18 59 18q15 0 32.5 -11t30 -27t12.5 -29q0 -15 -10 -23.5t-40 -8.5h-67q59 -27 95 -66t36 -87q0 -18 -6 -38
q-18 -59 -82.5 -90.5t-161.5 -31.5q-105 0 -175.5 42t-70.5 116q0 22 8 49q6 20 19 32t25 12q7 0 17 -6.5t12 -8.5q25 -20 52 -32t69 -12t67 15t25 37q3 23 -12 38q-36 -28 -54.5 -37t-36.5 -9q-22 0 -47.5 10.5t-42.5 26t-16 30.5q0 27 44 33l92 13q-29 17 -47 39l-314 -96
q40 -21 68 -55.5t28 -82.5q0 -23 -7 -47q-13 -51 -57 -79.5t-109 -28.5q-54 0 -98 24.5t-69.5 65.5t-25.5 88q0 27 7 49q11 36 42 71.5t95 73.5q-25 39 -42.5 56t-33.5 17t-24 -9.5t-8 -22.5t6.5 -24.5t6.5 -17.5q0 -15 -21 -15q-34 0 -66.5 19t-52.5 54t-20 80
q0 58 33.5 93t86.5 35q59 0 110 -48t94 -177l192 110q55 31 106 31q22 0 50 -7q19 41 61 66t103 25q69 0 118.5 -24.5zM399 241l-12 16q-25 -17 -35 -48q-3 -12 -3 -22q0 -17 9 -28t24 -11q16 0 25 11t9 30q0 29 -17 52z" />
    <glyph glyph-name="gjJ_JA" horiz-adv-x="1139" 
d="M1178 406.5q-41 -47.5 -146 -103.5l-82 -44q42 -22 62.5 -50.5t20.5 -67.5q0 -64 -49 -104t-129 -40q-61 0 -109 23.5t-75.5 65.5t-27.5 95q0 50 28.5 95t102.5 109l-11 15q-36 47 -77 47q-16 0 -26 -8t-10 -24q0 -11 5.5 -19t15.5 -17.5t10 -14.5q0 -6 -4 -10.5
t-13 -9.5l-153 -85q42 -22 62.5 -50.5t20.5 -67.5q0 -64 -49 -104t-129 -40q-61 0 -109 23.5t-75.5 65.5t-27.5 95q0 57 34.5 104.5t102.5 92.5l-12 16q-34 47 -75 47q-19 0 -30.5 -9.5t-11.5 -26.5q0 -9 6.5 -21t6.5 -17q0 -15 -21 -15q-39 0 -71 21t-50.5 56t-18.5 74
q0 24 7 45q13 41 45.5 63t77.5 22q62 0 113.5 -50t91.5 -168l107 65q-2 18 -2 27q0 19 4 34q10 41 42 66.5t80 25.5q64 0 114 -46t88 -154q58 50 77 72.5t19 37.5q0 7 -4 11t-12 8t-11.5 7.5t-3.5 10.5q0 17 17.5 36.5t51 33t78.5 13.5q50 0 90 -20.5t62.5 -55t22.5 -73.5
q0 -60 -41 -107.5zM460 146q11 11 11 28q0 18 -14 36l-10 13q-48 -27 -48 -55q0 -15 9 -24t24 -9q17 0 28 11zM899 146q11 11 11 28q0 18 -14 36l-10 13q-48 -27 -48 -55q0 -15 9 -24t24 -9q17 0 28 11z" />
    <glyph glyph-name="gjJ_J_YA" horiz-adv-x="1727" 
d="M1643 169q-2 -10 -2 -13q0 -18 17 -18q9 0 14.5 4.5t11.5 12.5t10 8q6 0 9.5 -8t3.5 -19q0 -32 -22 -64.5t-61 -53.5t-89 -21q-82 0 -121.5 39.5t-39.5 100.5q0 26 5 50q-72 -62 -156 -62q-68 0 -113.5 35t-75.5 102l-74 -18q28 -17 43.5 -45t15.5 -61q0 -62 -49 -101.5
t-129 -39.5q-60 0 -108.5 23t-76 63t-27.5 88q0 63 36 109.5t111 84.5l-18 28q-19 29 -37 41.5t-37 12.5q-16 0 -25 -8t-9 -24q0 -11 5.5 -19t15.5 -17.5t10 -14.5q0 -6 -4 -10.5t-13 -9.5l-153 -85q42 -22 62.5 -50.5t20.5 -67.5q0 -64 -49 -104t-129 -40q-61 0 -109 23.5
t-75.5 65.5t-27.5 95q0 57 34.5 104.5t102.5 92.5l-12 16q-34 47 -75 47q-19 0 -30.5 -9.5t-11.5 -26.5q0 -9 6.5 -21t6.5 -17q0 -15 -21 -15q-39 0 -71 21t-50.5 56t-18.5 74q0 24 7 45q13 41 45.5 63t77.5 22q62 0 113.5 -50t91.5 -168l107 65q-2 18 -2 27q0 19 4 34
q10 41 42 66.5t80 25.5q69 0 121.5 -50.5t95.5 -183.5l237 113q37 18 51 30.5t14 30.5q0 9 -3 15t-9 14q-9 11 -9 18q0 6 6.5 9.5t22.5 3.5q58 0 110.5 -23t84.5 -64t32 -93q0 -59 -31.5 -90t-98.5 -47q-29 -7 -38 -13t-9 -20q0 -19 18.5 -34t53.5 -15q46 0 86.5 34.5
t65.5 97.5l56 176q12 39 74.5 60.5t127.5 21.5q44 0 59 -13.5t15 -35.5q0 -11 -5 -33zM460 146q11 11 11 28q0 18 -14 36l-10 13q-48 -27 -48 -55q0 -15 9 -24t24 -9q17 0 28 11zM885 146.5q11 11.5 11 27.5q0 12 -5.5 22t-18.5 27q-48 -27 -48 -55q0 -15 9 -24t24 -9
q17 0 28 11.5z" />
    <glyph glyph-name="gjJ_J_VA" horiz-adv-x="1700" 
d="M1617 169q-3 -7 -3 -14q0 -8 4.5 -12.5t11.5 -4.5q9 0 14.5 4.5t12 12.5t10.5 8q6 0 9.5 -8.5t3.5 -18.5q0 -32 -22 -64.5t-61.5 -53.5t-88.5 -21q-83 0 -122 39.5t-39 100.5q0 24 6 57q-67 -69 -155 -69q-82 0 -135.5 45.5t-63.5 123.5h-69q-19 0 -27 -1
q39 -23 61.5 -64t22.5 -87q0 -16 -5 -38q-13 -52 -53.5 -80t-104.5 -28q-57 0 -101.5 26t-69 67.5t-24.5 88.5q0 25 7 47q15 47 49 79.5t95 54.5l-22 34q-19 29 -37 41.5t-37 12.5q-16 0 -25 -8t-9 -24q0 -11 5.5 -19t15.5 -17.5t10 -14.5q0 -6 -4 -10.5t-13 -9.5l-153 -85
q42 -22 62.5 -50.5t20.5 -67.5q0 -64 -49 -104t-129 -40q-61 0 -109 23.5t-75.5 65.5t-27.5 95q0 57 34.5 104.5t102.5 92.5l-12 16q-34 47 -75 47q-19 0 -30.5 -9.5t-11.5 -26.5q0 -9 6.5 -21t6.5 -17q0 -15 -21 -15q-39 0 -71 21t-50.5 56t-18.5 74q0 24 7 45
q13 41 45.5 63t77.5 22q62 0 113.5 -50t91.5 -168l107 65q-2 18 -2 27q0 19 4 34q10 41 42 66.5t80 25.5q72 0 126 -54.5t98 -198.5q12 3 22.5 4.5t20.5 3.5l108 18q21 103 92.5 165t171.5 62q54 0 90 -16t52 -38t16 -41q0 -11 -5 -15.5t-19 -4.5q-66 0 -106 -46.5
t-40 -124.5q0 -75 57 -75q52 0 85 80l61 190q11 39 74 60.5t128 21.5q43 0 59 -13.5t16 -35.5q0 -10 -7 -33zM854 240l-12 17q-25 -17 -35 -48q-3 -12 -3 -22q0 -17 9 -28t24 -11q16 0 25 11.5t9 31.5q0 24 -17 49zM460 146q11 11 11 28q0 18 -14 36l-10 13q-48 -27 -48 -55
q0 -15 9 -24t24 -9q17 0 28 11z" />
    <glyph glyph-name="gjJ_JHA" horiz-adv-x="1295" 
d="M1339 551q-4 -10 -13 -27l-99 -172q25 -44 25 -96q0 -16 -1 -24q-7 -70 -39.5 -124t-82 -83t-106.5 -29q-51 0 -86 18t-51.5 46.5t-16.5 58.5q0 18 4 30q3 11 6.5 16t9.5 5q5 0 10 -9t10.5 -15.5t13.5 -6.5q16 0 32 18.5t26.5 47.5t10.5 57q0 20 -7 32.5t-18 12.5
q-10 0 -20 -7q-29 -48 -76.5 -76t-105.5 -28q-64 0 -95.5 33t-31.5 75q0 17 4 28q7 22 18 22q6 0 11 -9t9.5 -15.5t13.5 -6.5q12 0 22 9t16 28q4 16 4 23q0 23 -15 38.5t-43 15.5q-43 0 -95 -30.5t-91 -76.5q58 -20 93 -65.5t35 -102.5q0 -26 -9 -55q-16 -52 -59.5 -81.5
t-105.5 -29.5q-54 0 -97.5 24t-68.5 68t-25 102q0 47 16 96q17 55 56 111q-35 44 -73 44q-19 0 -30.5 -9.5t-11.5 -26.5q0 -9 6.5 -21t6.5 -17q0 -15 -21 -15q-39 0 -71 21t-50.5 56t-18.5 74q0 24 7 45q13 41 45.5 63t77.5 22q56 0 103 -39t84 -130q70 75 163.5 122
t192.5 47q73 0 128.5 -27.5t85.5 -75.5t30 -108l-1 -18q21 13 47 21l33 117q11 40 71 61t125 21q42 0 64.5 -14t22.5 -39q0 -10 -4 -20zM453 272q-5 -12 -10 -26q-8 -25 -8 -50q0 -22 7.5 -35t21.5 -13q26 0 34 26q2 5 2 16q0 24 -16 44z" />
    <glyph glyph-name="gjJ_NY_YA" horiz-adv-x="1275" 
d="M1191 169q-2 -5 -2 -13t4.5 -13t11.5 -5q9 0 14.5 4.5t12 12.5t10.5 8q6 0 9.5 -8.5t3.5 -18.5q0 -32 -22 -64.5t-61.5 -53.5t-88.5 -21q-83 0 -122.5 39.5t-39.5 100.5q0 27 7 58q-36 -33 -83 -51.5t-103 -18.5q-75 0 -135 30t-94 77.5t-34 97.5q0 18 4 31q1 5 5 13
h-101q-36 0 -36 -26q0 -14 12 -27t36 -32q40 -32 62.5 -60.5t22.5 -71.5q0 -20 -8 -49q-15 -52 -68.5 -82t-131.5 -30q-49 0 -91 12q18 -32 59.5 -48t86.5 -16q40 0 66.5 10t44 22t21.5 12q14 0 27 -24.5t13 -56.5q0 -63 -42 -105t-115 -42q-68 0 -120.5 31t-81.5 87
t-29 129q0 19 1 29q-47 26 -74.5 64t-27.5 78q0 14 5 32q15 51 66 51q40 0 69.5 -35t29.5 -96l-1 -17q25 3 36.5 19t11.5 46q0 28 -9.5 48t-27.5 47q-16 23 -23.5 38t-7.5 34q0 15 4 28q13 41 51 60t109 19h309l7 3q44 18 44 39q0 10 -5 15.5t-14 5.5q-11 0 -22 -8
q-7 -5 -12 -5q-12 0 -12 19q0 14 7 32q12 31 46.5 55.5t88.5 24.5q52 0 91 -21.5t60 -59t21 -82.5q0 -26 -5 -45q-11 -46 -46.5 -75t-106.5 -57l-41 -16q-11 -4 -11 -10q0 -8 18 -14.5t45 -6.5q64 0 114.5 26.5t70.5 77.5l61 192q12 39 74 60.5t127 21.5q43 0 59 -13.5
t16 -35.5q0 -11 -5 -33z" />
    <glyph glyph-name="gjJ_TTA" horiz-adv-x="1106" 
d="M1082.5 280.5q6.5 -14.5 6.5 -41.5q0 -66 -32 -121.5t-94 -88t-148 -32.5q-106 0 -170.5 43.5t-64.5 117.5q0 56 29.5 94t70 59.5t101.5 45.5q54 21 77.5 35t23.5 35q0 13 -8.5 21t-22.5 8q-20 0 -62 -18l-343 -149q37 -19 62.5 -56t25.5 -84q0 -21 -6 -44
q-13 -51 -54 -80t-105 -29q-54 0 -98.5 24.5t-70 65.5t-25.5 88q0 21 6 42q9 36 40.5 68.5t99.5 82.5q-24 39 -42.5 56.5t-34.5 17.5t-24 -9.5t-8 -22.5t6.5 -24.5t6.5 -17.5q0 -15 -21 -15q-34 0 -66.5 19t-52.5 54t-20 80q0 58 33.5 93t86.5 35q58 0 108.5 -46.5
t93.5 -172.5l159 116q77 56 141 56q55 0 95 -30q25 37 68 57t99 20q74 0 120 -36t46 -91q0 -47 -26.5 -79t-64 -51.5t-94.5 -40.5q-56 -21 -82.5 -37t-26.5 -40q0 -26 19 -38t59 -12q44 0 73 17t59 46q13 13 20 18.5t14 5.5q11 0 17.5 -14.5zM399 241l-12 16
q-25 -17 -35 -48q-3 -12 -3 -22q0 -17 9 -28t24 -11q16 0 25 11t9 30q0 29 -17 52z" />
    <glyph glyph-name="gjJ_DDA" horiz-adv-x="1099" 
d="M933.5 397.5q13.5 -15.5 42.5 -39.5q49 -43 76.5 -80t27.5 -89t-28.5 -96t-80.5 -70t-119 -26q-83 0 -143 29t-91 79t-31 112q0 35 8.5 58t19.5 23q5 0 16.5 -7t24.5 -16q41 -29 76 -46t75 -17q43 0 67.5 19t24.5 53q0 25 -21.5 48t-64.5 56l-21 17q-14 -38 -75 -53
l-246 -55l-27 -5q40 -21 68.5 -56.5t28.5 -85.5q0 -22 -6 -46q-13 -51 -57 -79.5t-109 -28.5q-57 0 -101.5 26t-69 67.5t-24.5 88.5q0 26 7 47q13 43 47 76.5t95 62.5q-25 41 -43.5 59t-35.5 18q-16 0 -24 -9.5t-8 -22.5t6.5 -24.5t6.5 -17.5q0 -15 -21 -15q-34 0 -66.5 19
t-52.5 54t-20 80q0 58 33.5 93t86.5 35q61 0 113 -51t96 -188l236 99q41 17 78 15q-3 11 -3 22q0 46 35.5 74.5t100.5 28.5q63 0 110.5 -25t73.5 -64.5t26 -81.5q0 -19 -6 -30.5t-14 -11.5q-11 0 -30 17q-15 12 -26 18t-25 6t-22 -8.5t-8 -23.5q0 -16 13.5 -31.5zM399 240
l-12 17q-25 -17 -35 -48q-3 -12 -3 -22q0 -17 9 -28t24 -11q16 0 25 11.5t9 31.5q0 24 -17 49z" />
    <glyph glyph-name="gjJ_TA" horiz-adv-x="1318" 
d="M1234 169q-2 -5 -2 -14q0 -17 15 -17q9 0 15 4.5t13 12.5t10 8q5 0 9 -8.5t4 -18.5q0 -32 -22 -64.5t-61.5 -53.5t-88.5 -21q-83 0 -122.5 39.5t-39.5 100.5q0 49 31 142l23 75q-8 1 -24 1q-56 0 -97 -32.5t-56 -84.5q-7 -22 -7 -43q0 -26 11.5 -41.5t26.5 -15.5
q8 0 14 4t14.5 12.5t14.5 8.5q14 0 14 -26q0 -16 -6 -34q-14 -48 -56.5 -77t-98.5 -29q-53 0 -94.5 23.5t-64.5 65.5t-23 96q0 38 12 78q7 20 13 34l-152 -8q34 -27 53.5 -64t19.5 -78q0 -18 -5 -40q-13 -52 -53.5 -80t-104.5 -28q-57 0 -101.5 26t-69 67.5t-24.5 88.5
q0 25 7 47q14 47 49 80t96 54q-27 44 -46 63t-36 19q-16 0 -24 -9.5t-8 -22.5t6.5 -24.5t6.5 -17.5q0 -15 -21 -15q-34 0 -66.5 19t-52.5 54t-20 80q0 58 33.5 93t86.5 35q62 0 115.5 -54t98.5 -200q11 3 33 7q335 62 455 62q70 0 154 -21l36 115q13 39 75 60.5t127 21.5
q44 0 59.5 -13.5t15.5 -35.5q0 -17 -6 -33zM399 240l-12 17q-25 -17 -35 -48q-3 -12 -3 -22q0 -17 9 -28t24 -11q16 0 25 11.5t9 31.5q0 24 -17 49z" />
    <glyph glyph-name="gjJ_DA" horiz-adv-x="1046" 
d="M1031 188q0 -46 -29.5 -89.5t-81 -71t-114.5 -27.5q-68 0 -122 24t-84.5 67t-30.5 96q0 30 10 60q26 83 126 115q-14 11 -29 33l-239 -101q42 -23 68.5 -59.5t26.5 -83.5q0 -21 -8 -50q-14 -48 -56 -76.5t-99 -28.5q-55 0 -97 21.5t-64.5 59t-22.5 82.5q0 29 8 54
q19 63 104 127l28 21q-27 43 -46 61.5t-35 18.5t-24 -9.5t-8 -22.5t6.5 -24.5t6.5 -17.5q0 -15 -21 -15q-34 0 -66.5 19t-52.5 54t-20 80q0 58 33.5 93t86.5 35q59 0 110 -48t94 -177l127 94q35 26 71 38.5t69 12.5q16 0 33 -5q26 40 73.5 62t107.5 22q72 0 111 -32t39 -77
q0 -26 -13.5 -41.5t-36.5 -15.5q-5 0 -6.5 3.5t-2.5 15.5q-3 29 -25 29q-17 0 -25.5 -13t-8.5 -37q0 -28 16.5 -42.5t46.5 -28.5q30 -12 30 -23q0 -9 -20 -17t-64 -19q-44 -10 -67.5 -26.5t-23.5 -44.5q0 -30 21.5 -45.5t58.5 -15.5q34 0 56 5t39 11.5t21 6.5q15 0 15 -37z
M389 241l-12 16q-25 -17 -35 -48q-3 -12 -3 -22q0 -17 9 -28t24 -11q16 0 25 11t9 30q0 29 -17 52z" />
    <glyph glyph-name="gjJ_NA" horiz-adv-x="1268" 
d="M1185 169q-2 -10 -2 -13q0 -18 15 -18q9 0 15 4.5t13 12.5t10 8q5 0 8.5 -8.5t3.5 -18.5q0 -32 -22 -64.5t-61 -53.5t-88 -21q-84 0 -124 39.5t-40 100.5q0 25 7.5 56.5t24.5 85.5l25 78q-43 19 -81 19q-34 0 -56 -18.5t-22 -50.5q0 -20 9.5 -29.5t21.5 -9.5q7 0 12.5 4
t13 12.5t12.5 8.5t8.5 -10t3.5 -22q0 -37 -21.5 -68.5t-58 -49.5t-78.5 -18q-75 0 -124 44t-50 118v7h-85q-19 0 -27 -1q39 -23 61.5 -64t22.5 -87q0 -16 -5 -38q-13 -52 -53.5 -80t-104.5 -28q-57 0 -101.5 26t-69 67.5t-24.5 88.5q0 25 7 47q15 47 49.5 80t95.5 54
q-27 44 -46 63t-36 19q-16 0 -24 -9.5t-8 -22.5t6.5 -24.5t6.5 -17.5q0 -15 -21 -15q-34 0 -66.5 19t-52.5 54t-20 80q0 58 33.5 93t86.5 35q62 0 115 -53.5t98 -199.5l44 8l164 27q32 37 82 57t111 20q102 0 195 -60l35 110q12 39 74 60.5t127 21.5q43 0 59 -13.5t16 -35.5
q0 -7 -6 -33zM399 240l-12 17q-25 -17 -35 -48q-3 -12 -3 -22q0 -17 9 -28t24 -11q16 0 25 11.5t9 31.5q0 24 -17 49z" />
    <glyph glyph-name="gjJ_MA" horiz-adv-x="1274" 
d="M1191 169q-2 -10 -2 -13q0 -8 4.5 -13t11.5 -5q9 0 15 4.5t12.5 12.5t10.5 8q5 0 8 -8t3 -19q0 -32 -22 -64.5t-61 -53.5t-88 -21q-83 0 -122 39.5t-39 100.5q0 43 25 128h-72q-23 -76 -56 -108t-85 -32q-37 0 -74.5 19t-64.5 51.5t-34 69.5h-93q64 -55 64 -124
q0 -15 -5 -37q-13 -52 -53.5 -80t-104.5 -28q-57 0 -101.5 26t-69 67.5t-24.5 88.5q0 25 7 47q15 47 53 75t101 44q-31 52 -52 74.5t-39 22.5q-16 0 -24 -9.5t-8 -22.5t6.5 -24.5t6.5 -17.5q0 -15 -21 -15q-34 0 -66.5 19t-52.5 54t-20 80q0 59 35 93.5t92 34.5
q66 0 121.5 -59t94.5 -218l14 2l217 23l25 81l2 12q0 19 -13 19q-9 0 -15 -4.5t-13 -12.5t-11 -8q-5 0 -8 8t-3 20q0 33 20.5 64.5t61.5 52t97 20.5q76 0 116 -38t40 -98q0 -17 -4 -34.5t-9.5 -35t-7.5 -25.5l-14 -45h73l60 185q11 39 73.5 60.5t127.5 21.5q44 0 60 -13.5
t16 -35.5q0 -12 -8 -33zM400 240l-11 17q-27 -16 -37 -48q-3 -12 -3 -22q0 -17 9 -28t24 -11q16 0 25 11.5t9 31.5q0 23 -16 49z" />
    <glyph glyph-name="gjJ_YA" horiz-adv-x="1289" 
d="M1205 169q-2 -10 -2 -13q0 -18 17 -18q9 0 14.5 4.5t11.5 12.5t10 8q6 0 9.5 -8t3.5 -19q0 -32 -22 -64.5t-61 -53.5t-89 -21q-82 0 -121.5 39.5t-39.5 100.5q0 26 5 50q-72 -62 -156 -62q-68 0 -113.5 35t-75.5 102l-74 -18q28 -17 43.5 -45t15.5 -61q0 -62 -49 -101.5
t-129 -39.5q-60 0 -108.5 23t-76 63t-27.5 88q0 64 37.5 111.5t116.5 86.5q-22 37 -44.5 54.5t-48.5 17.5q-20 0 -30.5 -9.5t-10.5 -22.5t6.5 -24.5t6.5 -17.5q0 -15 -21 -15q-34 0 -66.5 19t-52.5 54t-20 80q0 58 36 93t88 35q67 0 123.5 -52t101.5 -180l233 111
q37 18 51 30.5t14 30.5q0 9 -3 15t-9 14q-9 11 -9 18q0 6 6.5 9.5t22.5 3.5q58 0 110.5 -23t84.5 -64t32 -93q0 -59 -31.5 -90t-98.5 -47q-29 -7 -38 -13t-9 -20q0 -19 18.5 -34t53.5 -15q46 0 86.5 34.5t65.5 97.5l56 176q12 39 74.5 60.5t127.5 21.5q44 0 59 -13.5
t15 -35.5q0 -11 -5 -33zM447 146.5q11 11.5 11 27.5q0 12 -5.5 22t-18.5 27q-48 -27 -48 -55q0 -15 9 -24t24 -9q17 0 28 11.5z" />
    <glyph glyph-name="gjNY_JA" horiz-adv-x="1122" 
d="M1160.5 406q-41.5 -48 -145.5 -103l-84 -45q41 -14 66.5 -46t25.5 -71q0 -41 -23.5 -74t-66 -51.5t-95.5 -18.5q-61 0 -109 23.5t-75.5 65.5t-27.5 95q0 48 25 90t90 100q-52 70 -95 70q-18 0 -27.5 -9t-9.5 -27q0 -11 4.5 -21t13.5 -26q13 -22 13 -31q0 -16 -22.5 -37.5
t-62.5 -36.5t-91 -15q-62 0 -113 30q-29 -34 -69 -52t-86 -18q-76 0 -122 37t-46 95q0 15 3.5 24t7.5 9q5 0 11 -7t12 -12t17 -5q19 0 36 20t27 51.5t10 63.5q0 17 -5 26t-13 9q-10 0 -21.5 -12t-16.5 -12q-6 0 -9 8t-3 18q0 31 20 59t55 45.5t77 17.5q83 0 129.5 -50.5
t46.5 -128.5q0 -64 -20 -115q14 -2 20 -2q51 0 92 52q-47 48 -47 113q0 60 34.5 95.5t93.5 35.5q143 0 210 -217q70 58 93 84.5t23 42.5q0 7 -4 11t-12 8t-11.5 7.5t-3.5 10.5q0 17 17.5 36.5t51 33t78.5 13.5q50 0 90 -20.5t62.5 -55t22.5 -73.5q0 -60 -41.5 -108z
M882.5 147q11.5 12 11.5 28q0 32 -24 48q-49 -27 -49 -55q0 -15 9 -24t24 -9q17 0 28.5 12z" />
    <glyph glyph-name="gjTT_TTA" horiz-adv-x="527" 
d="M522.5 313.5q6.5 -12.5 6.5 -33.5q0 -71 -35.5 -117.5t-83 -71.5t-119.5 -51q-57 -20 -81.5 -33.5t-24.5 -34.5q0 -19 20 -30t58 -11q44 0 73 15t59 41q10 9 18.5 15t15.5 6q22 0 22 -47q0 -58 -34 -109t-98.5 -81.5t-149.5 -30.5q-104 0 -164.5 39.5t-60.5 106.5
q0 68 49 110.5t150 77.5q-57 18 -90 54.5t-33 82.5q0 50 30 84t71.5 53.5t102.5 39.5q54 19 76 30.5t22 28.5q0 13 -9.5 21t-27.5 8q-13 0 -25 -5t-28 -15q-3 -2 -12 -7t-16 -5q-6 0 -10 5.5t-4 17.5q0 47 24.5 85t69.5 59.5t105 21.5q48 0 86 -16.5t59 -43.5t21 -58
q0 -49 -31 -82.5t-72 -52.5t-103 -40q-46 -15 -67 -25.5t-21 -23.5q0 -18 20.5 -30t57.5 -12q44 0 73 15t59 41q10 9 18.5 15t15.5 6q11 0 17.5 -12.5z" />
    <glyph glyph-name="gjTT_TTHA" horiz-adv-x="528" 
d="M522.5 313.5q6.5 -12.5 6.5 -33.5q0 -61 -36 -105.5t-94 -73.5q59 -57 59 -138q0 -32 -11 -71q-20 -66 -75.5 -109t-135.5 -43q-68 0 -126.5 27t-93.5 76.5t-35 113.5q0 31 11 70q18 61 66 98q-19 18 -28.5 40t-9.5 46q0 50 30 84t71.5 53.5t102.5 39.5q54 19 76 30.5
t22 28.5q0 13 -9.5 21t-27.5 8q-13 0 -25 -5t-28 -15q-3 -2 -12 -7t-16 -5q-6 0 -10 5.5t-4 17.5q0 47 24.5 85t69.5 59.5t105 21.5q48 0 86 -16.5t59 -43.5t21 -58q0 -49 -31 -82.5t-72 -52.5t-103 -40q-46 -15 -67 -25.5t-21 -23.5q0 -18 20.5 -30t57.5 -12q44 0 73 15
t59 41q10 9 18.5 15t15.5 6q11 0 17.5 -12.5zM267 46q0 17 -5 23t-14 6q-13 0 -24 -18.5t-23 -56.5q-28 -92 -28 -129q0 -28 18 -28q13 0 24 16.5t23 55.5q29 95 29 131z" />
    <glyph glyph-name="gjTT_YA" horiz-adv-x="1324" 
d="M1240 169q-2 -5 -2 -13t4.5 -13t11.5 -5q9 0 14.5 4.5t12 12.5t10.5 8q6 0 9.5 -8.5t3.5 -18.5q0 -32 -22 -64.5t-61.5 -53.5t-88.5 -21q-83 0 -122.5 39.5t-39.5 100.5q0 23 4 44q-67 -56 -165 -56q-72 0 -126.5 30t-84 76t-29.5 93q0 22 9.5 35.5t37.5 28.5l60 34
q29 16 34 33q2 8 2 11q0 13 -10 21t-29 8q-27 0 -52.5 -13t-67.5 -42q-53 -37 -78 -51q-31 -17 -92 -46q-57 -27 -83.5 -43t-33.5 -34q-3 -9 -3 -16q0 -20 21 -31t55 -11q44 0 73 17t59 46q13 13 20 18.5t14 5.5q12 0 18 -16t6 -43q0 -34 -11 -72q-14 -44 -48 -82t-89 -61.5
t-126 -23.5q-68 0 -121.5 20t-83.5 56.5t-30 84.5q0 21 8 50q13 40 43.5 68t66 45.5t86.5 36.5q52 19 75 32.5t23 32.5q0 15 -9.5 24t-27.5 9q-13 0 -25 -6t-28 -16q-19 -14 -28 -14q-6 0 -10 6.5t-4 19.5q0 53 24.5 95.5t69.5 67t105 24.5t102.5 -24.5t56.5 -62.5
q64 43 118 63t115 20q60 0 106.5 -21.5t72 -58.5t25.5 -83q0 -23 -8 -52q-10 -30 -33 -53.5t-68 -48.5l-41 -22q-11 -6 -11 -15q0 -11 17.5 -20t44.5 -9q58 0 87 23.5t49 77.5l62 195q12 39 74 60.5t127 21.5q43 0 59 -13.5t16 -35.5q0 -11 -5 -33z" />
    <glyph glyph-name="gjTT_VA" horiz-adv-x="594" 
d="M582.5 313.5q7.5 -12.5 7.5 -33.5q0 -89 -90 -150q15 -12 15 -38q0 -13 -7 -38l-58 -187q-2 -5 -2 -14q0 -15 15 -15q9 0 17.5 6.5t11.5 6.5t5 -3.5t2 -10.5q0 -21 -17 -44t-48 -38t-71 -15q-61 0 -96 22t-35 70q0 17 2 26q-41 -41 -98 -41q-69 0 -108 45.5t-39 112.5
q0 35 10 66q18 57 61 94q-27 35 -27 76q0 50 32 84t75.5 53.5t108.5 39.5q57 19 80.5 30.5t23.5 28.5q0 13 -8.5 21t-25.5 8q-14 0 -28 -5t-33 -15q-4 -2 -15.5 -7t-18.5 -5q-6 0 -10.5 5.5t-4.5 17.5q0 47 26 85t73 59.5t108 21.5q54 0 98 -18t69 -48t25 -65
q0 -45 -31.5 -75.5t-75 -48.5t-106.5 -37q-51 -15 -74.5 -25.5t-23.5 -24.5q0 -42 85 -42q48 0 80 15.5t64 40.5q13 11 21.5 16t15.5 5q12 0 19.5 -12.5zM305 111q-39 0 -65.5 -19.5t-42.5 -71.5q-9 -32 -9 -53q0 -23 8.5 -35.5t22.5 -12.5q25 0 38 41z" />
    <glyph glyph-name="gjTTH_TTHA" horiz-adv-x="623" 
d="M553 84q-46 -58 -127 -80q45 -31 65.5 -62.5t20.5 -77.5q0 -53 -31 -99.5t-90 -75.5t-139 -29q-85 0 -157.5 29.5t-115.5 82.5t-43 121q0 28 7 55q15 53 52.5 87.5t92.5 50.5q-65 65 -65 155q0 31 7 59q21 79 85.5 120t151.5 41q-18 20 -27 37t-9 36q0 23 15.5 46t47 38
t77.5 15q59 0 105.5 -22.5t72.5 -60.5t26 -83q0 -13 -4.5 -21.5t-11.5 -8.5q-17 0 -51 17q-36 18 -55 18q-13 0 -21 -7.5t-8 -19.5q0 -13 11 -25.5t48 -38.5q62 -41 89 -78t27 -92q0 -69 -46 -127zM258 132q0 -16 5 -22.5t16 -6.5q21 0 35 24.5t31 94.5q17 77 17 104
q0 18 -5 25t-16 7q-20 0 -34.5 -28.5t-33.5 -107.5q-15 -66 -15 -90zM275 -32q0 29 -21 29q-20 0 -34.5 -26t-33.5 -99q-15 -60 -15 -83q0 -15 5 -20.5t16 -5.5q21 0 35 22.5t31 86.5q17 71 17 96z" />
    <glyph glyph-name="gjTTH_YA" horiz-adv-x="1394" 
d="M1310 169q-2 -5 -2 -13t4.5 -13t11.5 -5q9 0 14.5 4.5t12 12.5t10.5 8q6 0 9.5 -8.5t3.5 -18.5q0 -32 -22 -64.5t-61.5 -53.5t-88.5 -21q-83 0 -122.5 39.5t-39.5 100.5q0 23 4 44q-67 -56 -165 -56q-72 0 -126.5 30t-84 76t-29.5 93q0 22 9.5 35.5t37.5 28.5l60 34
q29 16 34 33q2 8 2 11q0 13 -10 21t-29 8q-26 0 -47.5 -13t-51.5 -37q-20 -17 -34 -26t-26 -9q-17 0 -52 26q-25 18 -42.5 27t-36.5 9q-13 0 -21 -7.5t-8 -19.5q0 -13 11 -25.5t48 -38.5q62 -41 89 -78t27 -92q0 -56 -31 -106t-90 -81t-139 -31q-85 0 -157.5 31.5t-115.5 88
t-43 128.5q0 31 7 59q21 79 85.5 120t151.5 41q-18 20 -27 37t-9 36q0 23 16 46t47.5 38t77.5 15q56 0 94.5 -24.5t77.5 -64.5q11 -11 21 -20t17 -9q6 0 15.5 7t19.5 16q45 39 97.5 65t136.5 26q60 0 106.5 -21.5t72 -58.5t25.5 -83q0 -23 -8 -52q-10 -30 -33 -53.5
t-68 -48.5l-41 -22q-11 -6 -11 -15q0 -11 17.5 -20t44.5 -9q58 0 87 23.5t49 77.5l62 195q12 39 74 60.5t127 21.5q43 0 59 -13.5t16 -35.5q0 -11 -5 -33zM362 326q0 18 -5 25t-16 7q-20 0 -34.5 -28.5t-33.5 -107.5q-15 -66 -15 -90q0 -16 5 -22.5t16 -6.5q21 0 35 24.5
t31 94.5q17 77 17 104z" />
    <glyph glyph-name="gjDD_DDA" horiz-adv-x="559" 
d="M287 95q0 -5 11.5 -13t27.5 -17q61 -37 100.5 -75t39.5 -95q0 -22 -7 -44q-17 -54 -73 -85.5t-145 -31.5q-86 0 -151.5 29t-100 75.5t-34.5 98.5q0 22 6 43q8 25 25 25q7 0 17 -7t22 -16q37 -30 75.5 -49.5t91.5 -19.5q37 0 58 14t21 37t-23.5 46.5t-73.5 60.5
q-49 37 -79.5 64t-52.5 62.5t-22 75.5q0 23 7 44q8 25 25 25q7 0 19 -5.5t27 -13.5q44 -24 84 -38.5t86 -14.5q44 0 66.5 13.5t22.5 37.5q0 19 -21.5 39.5t-66.5 52.5q-58 42 -87.5 72t-29.5 65q0 37 36.5 60t110.5 23q66 0 117 -20t79.5 -52t30.5 -67q1 -17 -5.5 -27.5
t-16.5 -10.5q-12 0 -34 15q-16 10 -26.5 14.5t-23.5 4.5q-30 0 -37 -24q-1 -3 -1 -9q0 -17 17 -33t52 -40q50 -35 77 -63t27 -67q0 -12 -5 -30q-16 -53 -78.5 -87t-167.5 -34q-17 0 -17 -8z" />
    <glyph glyph-name="gjDD_DDHA" horiz-adv-x="552" 
d="M106.5 -229q-64.5 31 -98.5 82t-34 110q0 34 12 67q31 85 109 134q-32 24 -49 55.5t-17 67.5q0 30 10 49t25 19q8 0 21 -8.5t17 -11.5q38 -27 76.5 -44t91.5 -17q68 0 80 40q1 3 1 8q0 19 -20 38.5t-65 54.5q-56 41 -85 71.5t-29 64.5q0 37 35.5 59.5t101.5 22.5
q63 0 118 -21t87 -54t32 -67q0 -16 -6.5 -25.5t-15.5 -9.5q-12 0 -34 15q-16 10 -26.5 14.5t-23.5 4.5q-30 0 -37 -24q-1 -3 -1 -9q0 -17 16.5 -32.5t51.5 -39.5q51 -34 78 -62.5t27 -67.5q0 -13 -5 -31q-10 -35 -37.5 -57t-61.5 -35t-91 -29q-62 -17 -102 -32.5t-72.5 -44
t-46.5 -73.5q-7 -20 -7 -41q0 -32 21 -50q43 160 198 160q66 0 102 -34t36 -83q0 -25 -8 -45q-22 -56 -78.5 -88t-145.5 -32q-86 0 -150.5 31zM301 -145q2 8 2 12q0 11 -7 18t-20 7q-21 0 -37 -15.5t-24 -43.5q20 -6 42 -6q32 0 44 28z" />
    <glyph glyph-name="gjDD_YA" horiz-adv-x="1292" 
d="M1208 169q-2 -5 -2 -13t4.5 -13t11.5 -5q9 0 14.5 4.5t12 12.5t10.5 8q6 0 9.5 -8.5t3.5 -18.5q0 -32 -22 -64.5t-61.5 -53.5t-88.5 -21q-83 0 -122.5 39.5t-39.5 100.5q0 23 4 44q-67 -56 -165 -56q-72 0 -126.5 30t-84 76t-29.5 93q0 22 9.5 35.5t37.5 28.5l60 34
q29 16 34 33q2 8 2 11q0 13 -10 21t-29 8q-26 0 -47.5 -13t-51.5 -37q-20 -17 -34 -26t-26 -9q-11 0 -21 5.5t-27 18.5q-15 13 -27 20t-26 7t-22 -8.5t-8 -23.5q0 -16 13.5 -31.5t42.5 -39.5q49 -43 76.5 -80t27.5 -89t-28.5 -96t-80.5 -70t-119 -26q-83 0 -143 29t-91 79
t-31 112q0 35 8.5 58t19.5 23q5 0 16.5 -7t24.5 -16q41 -29 76 -46t75 -17q43 0 67.5 19t24.5 53q0 25 -21 47.5t-66 57.5q-53 42 -80 72.5t-27 68.5q0 46 35.5 74.5t100.5 28.5q56 0 93.5 -24t76.5 -64q15 -16 23 -23t15 -7q6 0 15.5 7t19.5 16q45 39 97.5 65t136.5 26
q60 0 106.5 -21.5t72 -58.5t25.5 -83q0 -23 -8 -52q-10 -30 -33 -53.5t-68 -48.5l-41 -22q-11 -6 -11 -15q0 -11 17.5 -20t44.5 -9q58 0 87 23.5t49 77.5l62 195q12 39 74 60.5t127 21.5q43 0 59 -13.5t16 -35.5q0 -11 -5 -33z" />
    <glyph glyph-name="gjDD_VA" horiz-adv-x="571" 
d="M402 457q0 -17 17 -33t52 -40q50 -35 77 -63t27 -67q0 -12 -5 -30q-18 -60 -90 -93q21 -13 21 -41q0 -16 -6 -36l-58 -187q-2 -5 -2 -14q0 -15 15 -15q9 0 17.5 6.5t11.5 6.5t5 -3.5t2 -10.5q0 -21 -17 -44t-48 -38t-71 -15q-61 0 -96 22t-35 70q0 17 2 26
q-41 -41 -98 -41q-69 0 -108 45.5t-39 112.5q0 35 10 66q31 93 121 131q-32 26 -48 56.5t-16 60.5q0 16 4 28q8 25 25 25q7 0 19 -5.5t27 -13.5q44 -24 84 -38.5t86 -14.5q44 0 66.5 13.5t22.5 37.5q0 19 -21.5 39.5t-66.5 52.5q-58 42 -87.5 72t-29.5 65q0 37 35.5 60
t101.5 23q71 0 124 -20t82 -52t31 -67q1 -17 -5.5 -27.5t-16.5 -10.5q-11 0 -34 15q-16 10 -26.5 14.5t-23.5 4.5q-30 0 -37 -24q-1 -3 -1 -9zM292 111q-39 0 -65.5 -19.5t-42.5 -71.5q-9 -32 -9 -53q0 -23 8.5 -35.5t22.5 -12.5q25 0 38 41z" />
    <glyph glyph-name="gjDDH_DDHA" horiz-adv-x="612" 
d="M596 307.5q39 -31.5 39 -76.5q0 -13 -5 -30q-16 -50 -78 -82t-189 -58q-103 -21 -151 -51.5t-65 -73.5q-7 -18 -7 -36q0 -28 15.5 -48.5t39.5 -27.5q-3 16 -3 30q0 20 7 43q20 54 79 84t125 30q71 0 110.5 -30t39.5 -76q0 -20 -7 -38q-22 -61 -107.5 -94t-186.5 -33
q-87 0 -157 26.5t-109.5 75t-39.5 111.5q0 110 150 187h1q-69 59 -69 141q0 110 150 187q38 20 60 32.5t26 17.5t4 13q0 12 -18 26q-8 7 -12 12t-1 11q8 20 61.5 35.5t117.5 15.5q66 0 115 -16.5t75.5 -44.5t26.5 -62q0 -17 -5 -30q-7 -21 -25 -35.5t-57 -28.5t-111 -30
q-100 -22 -145 -48.5t-61 -71.5q-6 -18 -6 -34q0 -28 15 -49.5t39 -28.5q-3 17 -3 30q0 20 7 43q20 54 79 84t125 30q72 0 111 -31.5zM353 146q74 0 85 32q1 3 1 9q0 11 -8.5 18t-22.5 7q-16 0 -30.5 -9.5t-20.5 -25.5q-5 -16 -4 -31zM271 -183q31 0 55 7.5t30 24.5q1 3 1 9
q0 11 -8.5 18.5t-22.5 7.5q-16 0 -30.5 -9.5t-20.5 -26.5q-5 -16 -4 -31z" />
    </font>
</defs>
</svg>
