<svg xmlns="http://www.w3.org/2000/svg" width="250" height="250" fill="none"><path fill="#53BAD3" fill-rule="evenodd" d="m140.608 71.912-43.516 22.66 13.297 7.468 41.357-24.248-11.138-5.88Zm43.603 22.617-19.168-9.956-41.703 24.677 17.268 9.913 43.603-24.634Zm-47.488 31.415-17.7-9.913v17.896l-12.951-7.167v-17.896l-12.952-7.597v51.801l43.776 24.462-.173-51.586Zm51.805 26.952v-51.758l-43.603 24.806v51.93l43.603-24.978ZM84.918 91.997l55.69-28.926 55.69 28.97v65.404l-55.215 31.544-56.122-31.329-.043-65.663Z" clip-rule="evenodd"/><path fill="#53BAD3" fill-rule="evenodd" d="M196.039 40.025c-1.77-4.291-3.453-8.283-5.18-12.446l8.202-3.39 13.254 31.672-33.458 2.747c0-2.875-.474-5.794-.733-8.798l14.289-1.202a87.724 87.724 0 0 0-39.544-15.149 91.178 91.178 0 0 0-37.362 2.45 90.84 90.84 0 0 0-33.18 17.249 92.438 92.438 0 0 0-23.71 28.53 91.912 91.912 0 0 0-10.533 35.495 91.801 91.801 0 0 0 4.336 36.755 92.181 92.181 0 0 0 18.51 32.109 92.805 92.805 0 0 0 29.707 22.302 93.282 93.282 0 0 0 36.131 8.911 93.354 93.354 0 0 0 36.748-5.911 92.96 92.96 0 0 0 31.46-19.785l6.13 6.395c-17.868 17.158-41.435 27.222-66.255 28.293-24.82 1.071-49.175-6.926-68.472-22.481-19.296-15.555-32.198-37.593-36.272-61.956a100.621 100.621 0 0 1 14.16-70.289 98.121 98.121 0 0 1 27.336-29.26 98.77 98.77 0 0 1 36.815-15.974 101.042 101.042 0 0 1 40.263-1.058 100.804 100.804 0 0 1 37.445 14.748" clip-rule="evenodd"/></svg>