<svg xmlns="http://www.w3.org/2000/svg" width="250" height="250" fill="none"><g clip-path="url(#a)"><path fill="#F3B01C" d="M149.281 179.603c27.829-3.075 54.064-17.822 68.51-42.436-6.841 60.88-73.778 99.36-128.415 75.734-5.035-2.17-9.369-5.782-12.343-10.426C64.755 183.3 60.72 158.9 66.519 136.758c16.57 28.442 50.262 45.876 82.763 42.845Z"/><path fill="#8D2676" d="M65.502 118.894c-11.28 25.925-11.768 56.279 2.06 81.259-48.667-36.416-48.136-114.343-.594-150.394 4.397-3.332 9.623-5.31 15.104-5.61 22.539-1.183 45.439 7.48 61.499 23.624-32.63.323-64.41 21.11-78.069 51.121Z"/><path fill="#EE342F" d="M159.306 75.751c-16.463-22.83-42.231-38.372-70.463-38.845 54.574-24.636 121.702 15.306 129.009 74.358.68 5.482-.212 11.071-2.655 16.016-10.196 20.594-29.103 36.566-51.196 42.478 16.187-29.859 14.19-66.34-4.695-94.007Z"/></g><defs><clipPath id="a"><path fill="#fff" d="M31 29h188v191H31z"/></clipPath></defs></svg>