<?xml version="1.0" encoding="utf-8"?>
<svg xmlns="http://www.w3.org/2000/svg" viewBox="70.208 59.2687 126 158.7593" width="250" height="250">
  <path d="M 117.208 60.028 C 116.721 60.682 116.234 61.337 115.733 62.011 C 109.455 70.89 102.02 81.428 103.658 92.808 C 105.84 103.321 110.146 113.307 114.398 123.124 C 115.564 125.864 116.621 128.638 117.654 131.43 C 117.96 132.259 118.267 133.088 118.584 133.942 C 119.208 136.028 119.208 136.028 119.208 139.028 C 120.221 139.157 121.234 139.286 122.277 139.418 C 125.987 139.993 129.483 140.8 133.106 141.778 C 134.08 142.039 134.08 142.039 135.074 142.305 C 137.198 142.876 139.32 143.452 141.443 144.028 C 142.927 144.428 144.412 144.828 145.897 145.227 C 148.998 146.062 152.098 146.899 155.197 147.739 C 159.169 148.815 163.143 149.887 167.117 150.957 C 170.914 151.979 174.709 153.003 178.505 154.028 C 179.59 154.32 179.59 154.32 180.697 154.619 C 182.741 155.171 184.785 155.724 186.828 156.278 C 188.572 156.75 188.572 156.75 190.351 157.231 C 192.318 157.779 194.271 158.382 196.208 159.028 C 195.624 163.529 194.447 167.22 192.618 171.368 C 192.358 171.963 192.098 172.559 191.829 173.173 C 190.983 175.107 190.127 177.036 189.271 178.965 C 188.684 180.301 188.098 181.637 187.512 182.974 C 186.325 185.681 185.135 188.386 183.942 191.091 C 181.402 196.851 178.901 202.628 176.396 208.403 C 175.577 210.286 174.758 212.168 173.939 214.051 C 173.602 214.824 173.266 215.596 172.92 216.392 C 172.685 216.932 172.45 217.472 172.208 218.028 C 171.548 218.028 170.888 218.028 170.208 218.028 C 169.371 215.071 168.539 212.112 167.708 209.153 C 167.35 207.89 167.35 207.89 166.986 206.602 C 166.76 205.796 166.534 204.991 166.302 204.161 C 165.988 203.045 165.988 203.045 165.667 201.907 C 165.208 200.028 165.208 200.028 165.208 198.028 C 164.33 197.756 163.452 197.483 162.548 197.203 C 159.414 196.1 156.69 194.814 153.779 193.227 C 152.748 192.669 151.718 192.11 150.656 191.535 C 149.56 190.935 148.463 190.334 147.333 189.715 C 145.582 188.764 143.832 187.813 142.081 186.862 C 140.287 185.887 138.495 184.91 136.703 183.933 C 132.449 181.614 128.187 179.31 123.924 177.007 C 119.016 174.353 114.112 171.69 109.208 169.028 C 108.243 168.504 107.278 167.98 106.284 167.441 C 101.625 164.91 96.969 162.373 92.321 159.821 C 89.002 157.998 85.667 156.212 82.314 154.454 C 80.841 153.666 79.368 152.878 77.896 152.09 C 76.89 151.578 76.89 151.578 75.864 151.056 C 71.413 148.643 71.413 148.643 70.481 145.844 C 70.146 142.388 70.514 139.372 71.011 135.934 C 71.111 135.238 71.211 134.543 71.313 133.827 C 72.255 127.41 73.35 121.017 74.491 114.633 C 75.254 110.353 75.965 106.079 76.557 101.772 C 80.326 74.654 80.326 74.654 86.72 68.595 C 94.044 63.223 108.419 57.098 117.208 60.028 Z" fill="#553F57"/>
  <path d="M 153.208 148.028 C 162.668 149.457 171.722 152.013 180.896 154.653 C 182.387 155.078 183.879 155.502 185.37 155.926 C 188.985 156.955 192.597 157.989 196.208 159.028 C 195.624 163.529 194.447 167.22 192.618 171.368 C 192.358 171.963 192.098 172.559 191.829 173.173 C 190.983 175.107 190.127 177.036 189.271 178.965 C 188.684 180.301 188.098 181.637 187.512 182.974 C 186.325 185.681 185.135 188.386 183.942 191.091 C 181.402 196.851 178.901 202.628 176.396 208.403 C 175.577 210.286 174.758 212.168 173.939 214.051 C 173.602 214.824 173.266 215.596 172.92 216.392 C 172.685 216.932 172.45 217.472 172.208 218.028 C 171.548 218.028 170.888 218.028 170.208 218.028 C 166.923 206.775 164.104 195.465 161.524 184.03 C 159.551 175.35 157.363 166.74 155.037 158.148 C 154.797 157.254 154.557 156.359 154.31 155.438 C 154.097 154.656 153.883 153.873 153.664 153.067 C 153.208 151.028 153.208 151.028 153.208 148.028 Z" fill="#63BFAA"/>
  <path d="M 117.208 60.028 C 115.33 63.835 113.445 67.639 111.556 71.441 C 110.917 72.73 110.279 74.02 109.642 75.31 C 103.681 87.392 103.681 87.392 100.271 92.903 C 95.968 99.89 92.465 107.303 88.833 114.653 C 88.11 116.11 87.386 117.567 86.661 119.024 C 85.227 121.909 83.796 124.794 82.365 127.681 C 78.998 134.472 75.602 141.25 72.208 148.028 C 71.548 147.698 70.888 147.368 70.208 147.028 C 71.449 135.038 73.199 123.133 75.264 111.26 C 75.946 107.319 76.576 103.383 77.094 99.416 C 80.406 74.399 80.406 74.399 86.704 68.667 C 94.041 63.46 108.519 57.131 117.208 60.028 Z" fill="#63BEAA"/>
  <path d="M 90.208 110.028 C 91.344 113.745 90.875 115.498 89.208 119.028 C 88.548 119.028 87.888 119.028 87.208 119.028 C 86.977 120.258 86.747 121.487 86.509 122.754 C 86.18 124.387 85.851 126.02 85.521 127.653 C 85.372 128.461 85.223 129.269 85.07 130.102 C 83.887 135.807 82.131 138.753 78.208 143.028 C 77.245 145.044 77.245 145.044 76.896 146.903 C 76.669 147.934 76.442 148.965 76.208 150.028 C 74.888 149.698 73.568 149.368 72.208 149.028 C 72.827 144.514 74.634 140.835 76.708 136.84 C 77.427 135.43 78.146 134.02 78.864 132.61 C 79.433 131.501 79.433 131.501 80.013 130.37 C 82.105 126.27 84.154 122.147 86.208 118.028 C 86.979 116.486 87.75 114.944 88.521 113.403 C 89.078 112.289 89.634 111.175 90.208 110.028 Z" fill="#3E404C"/>
  <path d="M 156.208 164.028 C 158.798 166.618 159.052 168.659 159.935 172.207 C 160.244 173.446 160.554 174.685 160.872 175.961 C 161.03 176.608 161.187 177.255 161.35 177.922 C 161.83 179.89 162.323 181.856 162.818 183.821 C 165.208 193.494 165.208 193.494 165.208 198.028 C 163.888 197.698 162.568 197.368 161.208 197.028 C 157.786 186.274 156.839 175.249 156.208 164.028 Z" fill="#383A45"/>
  <path d="M 82.208 132.028 C 82.538 132.028 82.868 132.028 83.208 132.028 C 83.521 134.153 83.521 134.153 83.208 137.028 C 81.984 138.509 80.755 139.988 79.454 141.403 C 77.417 144.06 76.921 146.787 76.208 150.028 C 74.888 149.368 73.568 148.708 72.208 148.028 C 72.97 146.565 73.743 145.107 74.521 143.653 C 74.95 142.841 75.379 142.029 75.821 141.192 C 77.208 139.028 77.208 139.028 80.208 137.028 C 81.413 134.476 81.413 134.476 82.208 132.028 Z" fill="#4B394C"/>
  <path d="M 90.208 110.028 C 91.282 114.322 91.005 115.223 89.208 119.028 C 88.548 119.028 87.888 119.028 87.208 119.028 C 86.548 121.338 85.888 123.648 85.208 126.028 C 84.218 126.028 83.228 126.028 82.208 126.028 C 84.848 120.748 87.488 115.468 90.208 110.028 Z" fill="#3F4953"/>
  <path d="M 71.208 138.028 C 73.208 139.028 73.208 139.028 74.021 141.34 C 74.208 144.028 74.208 144.028 72.771 146.34 C 72.255 146.897 71.739 147.454 71.208 148.028 C 70.258 144.332 70.258 141.723 71.208 138.028 Z" fill="#65B3A1"/>
  <path d="M 98.208 95.028 C 100.208 97.028 100.208 97.028 100.208 100.028 C 99.28 100.151 99.28 100.151 98.333 100.278 C 96.024 100.84 96.024 100.84 94.958 103.09 C 94.711 103.73 94.463 104.369 94.208 105.028 C 94.774 101.07 96.017 98.362 98.208 95.028 Z" fill="#4B4D5B"/>
</svg>
