<svg xmlns="http://www.w3.org/2000/svg" width="250" height="250" fill="none"><g clip-path="url(#a)"><path fill="#FBBC04" d="M28.168 166.685 95.333 50.351l58.2 33.601-67.157 116.334-58.208-33.601Z"/><path fill="#4285F4" d="M221.261 166.28 154.054 49.905c-8.676-16.408-29.005-22.677-45.413-14.002-16.41 8.676-22.67 29.003-14.002 45.411.38.72.785 1.423 1.215 2.117l67.207 116.376c9.064 16.192 29.542 21.973 45.736 12.909 16.194-9.064 21.975-29.54 12.91-45.733a50.03 50.03 0 0 0-.446-.777v.074Z"/><path fill="#34A853" d="M57.603 216.826c18.559 0 33.604-15.043 33.604-33.601 0-18.557-15.045-33.601-33.604-33.601-18.558 0-33.603 15.044-33.603 33.601 0 18.558 15.045 33.601 33.603 33.601Z"/></g><defs><clipPath id="a"><path fill="#fff" d="M24 32h202v185H24z"/></clipPath></defs></svg>