<svg version="1.0" xmlns="http://www.w3.org/2000/svg"
 width="205.000000pt" height="205.000000pt" viewBox="10 5 174.000000 205.000000"
 preserveAspectRatio="xMidYMid meet">

<g transform="translate(0.000000,205.000000) scale(0.100000,-0.100000)"
fill="#000000" stroke="none">
<path d="M925 1704 c-60 -36 -111 -67 -113 -69 -7 -7 33 -75 45 -75 7 0 38 14
69 31 30 17 57 29 60 26 3 -2 -2 -38 -11 -78 -8 -41 -15 -79 -15 -86 0 -6 19
-14 41 -18 51 -9 54 -4 70 93 6 39 15 72 19 72 4 0 27 -24 50 -54 47 -59 54
-60 97 -14 l22 24 -87 104 c-63 76 -94 106 -112 107 -16 2 -64 -21 -135 -63z"/>
<path d="M595 1543 c-126 -6 -124 -3 -149 -170 -9 -56 -17 -108 -18 -114 -3
-11 80 -34 89 -25 2 2 8 32 14 67 6 35 13 66 15 69 3 3 32 -24 64 -60 l58 -65
31 29 c17 17 31 34 31 39 0 5 -22 34 -50 65 -27 31 -50 60 -50 64 0 4 32 8 70
8 l70 0 0 50 0 50 -52 -2 c-29 -1 -84 -3 -123 -5z"/>
<path d="M1246 1419 c-9 -23 -16 -43 -14 -44 2 -2 30 -14 63 -28 32 -14 61
-29 62 -33 2 -5 -29 -26 -67 -47 -39 -21 -70 -41 -70 -45 0 -4 10 -24 23 -44
l22 -36 65 38 c36 22 71 39 78 40 13 0 11 -34 -8 -107 -10 -38 -7 -40 47 -49
47 -7 42 -18 69 152 18 117 16 140 -13 151 -10 3 -58 23 -108 43 -138 57 -130
57 -149 9z"/>
<path d="M850 1227 c-58 -34 -111 -66 -118 -70 -10 -7 -8 -17 9 -45 13 -20 24
-39 25 -40 1 -2 30 13 64 33 35 19 65 34 67 31 3 -2 -1 -38 -7 -80 -16 -95
-12 -106 39 -106 l39 0 12 68 c15 85 20 102 28 102 4 -1 27 -25 51 -55 l43
-55 30 21 c16 12 32 27 35 34 7 21 -166 225 -191 225 -12 -1 -68 -29 -126 -63z"/>
<path d="M301 1108 c-96 -85 -103 -94 -98 -122 6 -36 116 -236 130 -236 5 0
25 9 44 21 l34 21 -35 63 c-19 35 -33 65 -30 67 2 3 35 -1 72 -8 100 -20 99
-20 105 28 3 25 1 45 -5 49 -6 4 -43 12 -84 18 -83 14 -85 19 -19 71 25 19 45
40 45 47 0 7 -12 26 -27 43 l-28 30 -104 -92z"/>
<path d="M1445 983 c-16 -8 -32 -17 -34 -19 -2 -2 11 -31 28 -65 18 -33 30
-63 27 -66 -3 -3 -34 0 -69 6 -94 16 -94 16 -102 -30 -4 -22 -5 -43 -2 -45 2
-3 37 -10 78 -17 40 -7 74 -17 75 -22 1 -6 -19 -28 -46 -50 -27 -22 -49 -44
-49 -50 0 -13 45 -65 57 -65 15 0 212 180 212 195 0 21 -124 245 -135 245 -5
-1 -23 -8 -40 -17z"/>
<path d="M763 774 c-62 -36 -113 -71 -113 -77 0 -7 9 -27 20 -45 22 -36 21
-36 103 15 22 14 41 22 44 19 3 -3 0 -41 -8 -85 -7 -45 -10 -83 -7 -87 4 -3
24 -8 45 -11 l39 -5 12 53 c6 30 14 69 17 87 4 17 10 32 13 32 4 0 27 -25 50
-55 l43 -55 35 26 c19 15 34 30 34 35 0 5 -39 57 -86 114 -61 73 -93 105 -108
105 -11 0 -72 -30 -133 -66z"/>
<path d="M327 683 c-3 -4 -8 -67 -12 -139 -7 -124 -6 -133 12 -142 31 -17 253
-80 257 -73 2 3 8 23 14 43 l10 38 -69 21 c-38 11 -69 24 -69 27 0 4 19 19 43
34 23 15 53 36 66 47 l24 18 -22 37 c-13 20 -25 36 -27 36 -3 0 -35 -21 -72
-46 l-67 -46 -5 74 -5 73 -37 3 c-20 2 -38 -1 -41 -5z"/>
<path d="M1124 498 c-16 -12 -31 -23 -33 -25 -2 -1 15 -31 38 -65 23 -35 40
-67 39 -73 -2 -6 -31 -9 -70 -6 l-68 3 0 -44 0 -45 77 -7 c42 -3 104 -6 139
-6 73 0 72 -1 104 111 50 172 50 163 -10 174 l-35 6 -19 -65 c-10 -36 -22 -66
-26 -66 -4 0 -27 29 -50 65 -23 36 -46 65 -50 65 -4 0 -20 -10 -36 -22z"/>
<path d="M739 331 c-60 -60 -24 -151 59 -151 86 0 123 90 63 151 -20 20 -39
29 -61 29 -22 0 -41 -9 -61 -29z"/>
</g>
</svg>
