<svg width="576" height="569" viewBox="0 0 576 569" fill="none" xmlns="http://www.w3.org/2000/svg">
<path d="M464.493 260.334H359.255C357.022 260.334 354.236 261.878 353.078 263.765L290.011 366.435C288.854 368.323 286.969 368.313 285.812 366.435L223.411 263.786C222.264 261.898 219.488 260.344 217.255 260.344H111.526C109.293 260.344 108.473 261.838 109.723 263.675L234.392 446.992C235.641 448.819 236.655 452.129 236.655 454.33V564.377C236.655 566.577 238.489 568.383 240.722 568.383H335.255C337.488 568.383 339.322 566.577 339.322 564.377V454.33C339.322 452.129 340.346 448.819 341.586 446.992L466.285 263.675C467.535 261.848 466.715 260.344 464.482 260.344L464.493 260.334Z" fill="#3B5EDA"/>
<path d="M280.775 101.732C283.521 103.236 286.184 104.457 287.587 104.457C288.99 104.457 291.347 103.62 294.379 101.732C353.983 64.118 304.386 17.9556 287.587 0.566406C270.778 17.9556 221.181 64.118 280.775 101.732Z" fill="#3B5EDA"/>
<path d="M218.089 238.947C221.48 238.675 224.624 238.201 225.884 237.363C227.154 236.525 228.763 234.386 230.34 230.884C261.09 161.69 188.241 149.479 162.49 143.756C157.952 169.381 141.44 240.35 218.089 238.937V238.947Z" fill="#3B5EDA"/>
<path d="M120.44 223.836C123.308 222.029 125.858 220.172 126.585 218.85C127.313 217.528 127.722 214.884 127.456 211.069C121.812 135.739 51.6162 158.488 26.1416 165.3C34.2951 190.037 53.3678 260.39 120.44 223.836V223.836Z" fill="#3B5EDA"/>
<path d="M132.607 350.144C133.826 347.016 134.747 344.018 134.532 342.535C134.317 341.041 133.047 338.69 130.538 335.773C80.5514 278.509 37.8274 337.912 21.4487 358.309C42.9285 373.428 100.71 418.823 132.596 350.144H132.607Z" fill="#3B5EDA"/>
<path d="M287.578 120.822C274.426 135.446 235.615 174.241 282.242 205.86C284.393 207.122 286.472 208.151 287.578 208.151C288.684 208.151 290.518 207.445 292.895 205.86C339.532 174.241 300.73 135.436 287.578 120.822Z" fill="#3B5EDA"/>
<path d="M159.196 382.333C158.448 381.818 156.861 381.445 154.495 381.425C107.786 381.233 115.561 425.518 117.487 441.525C133.384 437.71 178.218 429.404 161.706 386.36C160.846 384.513 159.934 382.848 159.186 382.333H159.196Z" fill="#3B5EDA"/>
<path d="M282.242 306.502C284.393 307.763 286.472 308.793 287.578 308.793C288.684 308.793 290.518 308.086 292.894 306.502C339.531 274.882 300.73 236.077 287.578 221.463C274.426 236.087 235.615 274.882 282.242 306.502Z" fill="#3B5EDA"/>
<path d="M85.4788 282.937C86.9436 280.939 88.1727 278.991 88.2751 277.911C88.3776 276.831 87.8244 274.964 86.4416 272.492C58.6623 223.887 15.9587 258.494 0 270.09C13.6028 284.31 49.3517 325.87 85.4893 282.937H85.4788Z" fill="#3B5EDA"/>
<path d="M133.537 149.101C136.036 148.93 138.341 148.607 139.242 147.981C140.143 147.355 141.25 145.751 142.284 143.116C162.279 90.9288 107.939 80.8768 88.6822 76.2646C86.3468 95.6621 76.9434 149.353 133.547 149.101H133.537Z" fill="#3B5EDA"/>
<path d="M210.076 132.318C212.831 132.792 215.433 133.054 216.591 132.621C217.748 132.187 219.387 130.733 221.23 128.14C257.286 76.719 200.949 51.3166 181.262 41.1737C173.395 61.6511 148.453 117.522 210.076 132.318V132.318Z" fill="#3B5EDA"/>
<path d="M349.542 237.37C350.812 238.207 353.946 238.672 357.337 238.954C433.976 240.367 417.464 169.398 412.937 143.773C387.185 149.486 314.336 161.707 345.086 230.901C346.664 234.393 348.272 236.542 349.542 237.38V237.37Z" fill="#3B5EDA"/>
<path d="M448 211.065C447.734 214.879 448.143 217.524 448.871 218.846C449.598 220.168 452.148 222.035 455.016 223.832C522.098 260.376 541.171 190.032 549.314 165.296C523.839 158.494 453.644 135.735 448 211.065V211.065Z" fill="#3B5EDA"/>
<path d="M444.868 335.773C442.359 338.69 441.089 341.051 440.874 342.535C440.659 344.018 441.59 347.016 442.809 350.144C474.696 418.823 532.478 373.428 553.957 358.309C537.579 337.912 494.865 278.509 444.868 335.773V335.773Z" fill="#3B5EDA"/>
<path d="M420.923 381.408C418.557 381.428 416.969 381.811 416.222 382.316C415.474 382.821 414.562 384.486 413.702 386.343C397.2 429.387 442.024 437.693 457.921 441.508C459.847 425.511 467.621 381.216 420.913 381.408H420.923Z" fill="#3B5EDA"/>
<path d="M488.991 272.502C487.598 274.974 487.055 276.841 487.158 277.921C487.26 279.001 488.479 280.949 489.954 282.947C526.092 325.87 561.84 284.32 575.443 270.099C559.484 258.513 516.781 223.907 489.002 272.502H488.991Z" fill="#3B5EDA"/>
<path d="M436.185 147.981C437.086 148.596 439.391 148.919 441.89 149.101C498.493 149.353 489.091 95.6621 486.755 76.2646C467.498 80.8768 413.148 90.9389 433.153 143.116C434.177 145.751 435.283 147.365 436.195 147.981H436.185Z" fill="#3B5EDA"/>
<path d="M358.842 132.621C359.999 133.054 362.591 132.792 365.357 132.318C426.979 117.522 402.037 61.6411 394.171 41.1737C374.494 51.3166 318.156 76.719 354.202 128.14C356.046 130.733 357.684 132.187 358.842 132.621V132.621Z" fill="#3B5EDA"/>
</svg>
