<svg xmlns="http://www.w3.org/2000/svg" viewBox="0 0 64 64"><title>OneDrive_64x</title><path d="M25.59166,24.01321l.00051-.00185,11.336,6.79014,6.75494-2.84261.00031.00116a10.92944,10.92944,0,0,1,4.3478-.89738c.24915,0,.49542.0113.74045.02765a16.87628,16.87628,0,0,0-30.44421-5.0858c.05767-.00072.11463-.00435.17252-.00435A13.43387,13.43387,0,0,1,25.59166,24.01321Z" fill="#0364b8"/><path d="M25.59217,24.01136l-.00051.00185A13.43387,13.43387,0,0,0,18.5,22.00017c-.05789,0-.11485.00363-.17252.00435a13.49453,13.49453,0,0,0-10.902,21.21219l9.99677-4.2068,4.4439-1.87006,9.8947-4.16385,5.16735-2.1745Z" fill="#0f78d4"/><path d="M48.77171,27.09032c-.245-.01635-.4913-.02765-.74045-.02765a10.92944,10.92944,0,0,0-4.3478.89738l-.00031-.00116L36.92821,30.8015,38.887,31.97479l6.42082,3.846,2.80141,1.678L57.688,43.23641a10.96911,10.96911,0,0,0-8.91633-16.14609Z" fill="#1490df"/><path d="M48.10923,37.49879l-2.80141-1.678-6.42082-3.846L36.92821,30.8015,31.76086,32.976l-9.8947,4.16385-4.4439,1.87006-9.99677,4.2068A13.48125,13.48125,0,0,0,18.5,49.00016H48.03126A10.966,10.966,0,0,0,57.688,43.23641Z" fill="#28a8ea"/></svg>