<svg width="100" height="100" viewBox="0 0 100 100" fill="none" xmlns="http://www.w3.org/2000/svg">
<g clip-path="url(#clip0_12343_432197)">
<path d="M100 0H0V100H100V0Z" fill="white"/>
<path fill-rule="evenodd" clip-rule="evenodd" d="M84.0165 24H36.9732L36.9754 24.0114C36.1731 24.0434 35.5286 24.7034 35.5286 25.521C35.5286 25.955 35.7111 26.341 35.9995 26.6173L35.9928 26.6242L46.1771 36.8493C46.7699 37.4454 46.7699 38.4161 46.1794 39.0122L29.4234 55.8515C28.9929 56.2878 29.0965 57.0231 29.633 57.3155L31.7175 58.4574C32.1007 58.6675 32.7001 58.6241 33.0744 58.3981C33.5927 58.0852 34.1944 57.9024 34.8411 57.9024C35.2851 57.9024 35.7043 57.9938 36.092 58.1514C36.3105 58.2404 36.5586 58.2131 36.7343 58.0533L40.7119 54.4104C40.7075 54.335 40.6895 54.2619 40.6895 54.1842C40.6895 52.2428 42.2423 50.6693 44.1578 50.6693C45.7715 50.6693 47.1147 51.7884 47.5024 53.3004L51.3584 54.9584C51.4778 55.0087 51.6085 54.9881 51.7167 54.915C52.2734 54.5223 52.945 54.287 53.6729 54.287C54.0177 54.287 54.3512 54.344 54.6667 54.4423C54.7839 54.4812 54.9103 54.4537 55.0004 54.367L61.66 47.7937C61.7568 47.7001 61.8064 47.5608 61.8041 47.4261C61.7456 43.9729 64.2629 43.5731 65.2522 43.5388C66.7532 43.4818 68.0153 44.5301 68.4819 45.9027C68.5291 46.0329 68.6262 46.1402 68.7568 46.1883L72.9756 47.65C73.1356 47.707 73.3048 47.6614 73.431 47.5494C74.0439 46.9875 74.8531 46.6427 75.7432 46.6427C76.0587 46.6427 76.6086 46.8436 76.9286 46.492L85.2988 37.8473C85.4453 37.6989 85.5264 37.4979 85.5264 37.2856V25.5301C85.5264 24.6851 84.8503 24 84.0165 24Z" fill="#004683"/>
<path fill-rule="evenodd" clip-rule="evenodd" d="M85.5018 44.2162C85.5018 43.762 84.9568 43.5349 84.6427 43.862L79.3138 49.3584C79.1972 49.4766 79.1523 49.6468 79.1792 49.8126C79.316 50.7166 79.1344 51.7273 77.948 52.8402C77.3222 53.4284 76.5261 53.8327 75.6715 53.8124C74.2787 53.7737 73.1058 52.8948 72.5944 51.6615C72.5405 51.5319 72.4396 51.4252 72.305 51.3775L67.9025 49.8489C67.7499 49.7967 67.5862 49.8354 67.4583 49.9399C66.8662 50.4259 66.1149 50.7211 65.294 50.7211C64.9216 50.7211 64.5695 50.6461 64.2332 50.5349C64.2332 50.5349 59.2091 55.4567 57.4239 57.2351C57.2063 57.4555 57.204 57.4713 57.2534 57.9144C57.2534 59.8449 55.7103 61.4098 53.8017 61.4098C52.1891 61.4098 50.8435 60.2877 50.4644 58.7751C50.424 58.6205 50.3253 58.489 50.1795 58.4254L46.9096 57.0216C46.7436 56.9467 46.5574 56.9831 46.4116 57.0943C45.8331 57.5418 45.1153 57.8144 44.3347 57.8144C43.9626 57.8144 43.6037 57.753 43.2672 57.6394C43.0676 57.5736 42.85 57.6076 42.693 57.7486L38.7142 61.3916C38.5798 61.5143 38.508 61.6845 38.4878 61.8662C38.3129 63.6287 36.8506 65.0052 35.0606 65.0052C33.6746 65.0052 32.4927 64.174 31.9454 62.9792C31.8019 62.6657 31.5372 62.4296 31.2413 62.2638L26.7623 59.8153C26.4101 59.6223 25.9772 59.688 25.6948 59.972L12.4419 73.2385L12.4374 73.243L12.4195 73.2613L12.4239 73.2636C12.1637 73.5361 12 73.9039 12 74.3129C12 75.1509 12.6684 75.83 13.4982 75.83H56.9709C57.8029 75.83 58.9669 75.3462 59.5591 74.7535L60.4114 73.8972L60.4361 73.8722L70.6386 63.6356C71.2285 63.0451 72.1906 63.0451 72.7805 63.6356L82.9539 73.8496C83.2275 74.1335 83.6044 74.3129 84.0283 74.3129C84.8536 74.3129 85.5265 73.6361 85.5265 72.8002L85.5018 44.2162Z" fill="#006EC2"/>
</g>
<defs>
<clipPath id="clip0_12343_432197">
<rect width="100" height="100" fill="white"/>
</clipPath>
</defs>
</svg>
