<svg xmlns="http://www.w3.org/2000/svg" width="250" height="250" fill="none"><g clip-path="url(#a)"><path fill="#912626" d="M216.204 170.547c-10.565 5.502-65.291 27.988-76.942 34.058-11.651 6.07-18.124 6.012-27.328 1.615-9.204-4.397-67.443-27.905-77.934-32.916-5.242-2.504-8-4.618-8-6.615v-19.995s75.82-16.494 88.06-20.882c12.24-4.388 16.487-4.547 26.903-.734 10.417 3.814 72.702 15.043 82.997 18.811l-.005 19.713c.002 1.976-2.374 4.144-7.751 6.945"/><path fill="#C6302B" d="M216.2 150.67c-10.564 5.5-65.289 27.987-76.94 34.056-11.65 6.071-18.123 6.012-27.326 1.615-9.205-4.394-67.441-27.906-77.931-32.914-10.49-5.011-10.71-8.46-.406-12.492 10.305-4.033 68.222-26.74 80.464-31.128 12.24-4.387 16.486-4.547 26.902-.733 10.417 3.813 64.815 25.45 75.108 29.217 10.297 3.772 10.693 6.877.129 12.379"/><path fill="#912626" d="M216.204 138.194c-10.565 5.503-65.291 27.988-76.942 34.06-11.651 6.068-18.124 6.009-27.328 1.613-9.205-4.395-67.443-27.905-77.934-32.916-5.242-2.504-8-4.615-8-6.613v-19.997s75.82-16.493 88.06-20.881c12.24-4.389 16.487-4.548 26.903-.734 10.418 3.813 72.703 15.04 82.997 18.808l-.005 19.715c.002 1.976-2.374 4.144-7.751 6.945Z"/><path fill="#C6302B" d="M216.2 118.317c-10.564 5.501-65.289 27.986-76.94 34.058-11.65 6.069-18.123 6.009-27.326 1.612-9.205-4.393-67.441-27.904-77.931-32.913-10.49-5.01-10.71-8.459-.406-12.493 10.305-4.031 68.223-26.74 80.464-31.127 12.24-4.387 16.486-4.547 26.902-.733 10.417 3.812 64.815 25.448 75.108 29.217 10.297 3.77 10.693 6.877.129 12.379"/><path fill="#912626" d="M216.204 104.641c-10.565 5.502-65.291 27.988-76.942 34.06-11.651 6.069-18.124 6.01-27.328 1.613-9.205-4.395-67.443-27.906-77.934-32.914-5.242-2.506-8-4.618-8-6.613V80.788s75.82-16.492 88.06-20.88c12.24-4.389 16.487-4.546 26.903-.733 10.418 3.813 72.703 15.04 82.997 18.808l-.005 19.714c.002 1.975-2.374 4.143-7.751 6.944Z"/><path fill="#C6302B" d="M216.2 84.764c-10.564 5.502-65.289 27.988-76.94 34.057-11.65 6.069-18.123 6.01-27.326 1.615-9.204-4.397-67.441-27.906-77.93-32.916-10.492-5.008-10.71-8.459-.407-12.492 10.305-4.032 68.223-26.737 80.464-31.126 12.24-4.388 16.486-4.546 26.902-.732 10.417 3.813 64.815 25.449 75.109 29.217 10.297 3.768 10.692 6.875.128 12.377"/><path fill="#fff" d="m149.17 65.312-17.02 1.766-3.809 9.161-6.154-10.223-19.653-1.765 14.664-5.284-4.4-8.112 13.73 5.365 12.943-4.234-3.498 8.388 13.197 4.938m-21.846 44.446L95.56 96.593l45.516-6.982-13.752 20.147M83.286 70.405c13.436 0 24.328 4.219 24.328 9.422 0 5.205-10.892 9.424-24.328 9.424S58.96 85.03 58.96 79.827c0-5.203 10.891-9.422 24.327-9.422Z"/><path fill="#621B1C" d="m169.285 67.817 26.938 10.637-26.915 10.627-.023-21.265"/><path fill="#9A2928" d="m139.483 79.597 29.802-11.78.023 21.264-2.922 1.142-26.903-10.626Z"/></g><defs><clipPath id="a"><path fill="#fff" d="M26 40h198v170H26z"/></clipPath></defs></svg>