<svg xmlns="http://www.w3.org/2000/svg" width="250" height="250" fill="none"><path fill="#061D27" d="M178.68 28H71.32C47.395 28 28 47.395 28 71.32v107.36C28 202.605 47.395 222 71.32 222h107.36c23.925 0 43.32-19.395 43.32-43.32V71.32C222 47.395 202.605 28 178.68 28Z"/><g filter="url(#a)"><path fill="url(#b)" d="M80.608 162.504c-.904-.594-1.97.481-1.267 1.304 10.036 11.754 24.528 19.589 40.865 20.883.088.007.173.015.26.019.349.026.7.046 1.052.065.321.018.639.034.96.046.24.011.485.019.73.026.596.015 1.197.031 1.8.031.605 0 1.201-.012 1.801-.031.245-.007.486-.019.731-.026.321-.012.642-.031.959-.046.352-.019.7-.043 1.051-.065.089-.008.173-.015.26-.019 16.339-1.294 30.832-9.127 40.868-20.884.702-.824-.363-1.898-1.266-1.305-12.224 8.03-27.643 12.821-44.4 12.821-16.755 0-32.18-4.79-44.404-12.819Z"/><path fill="#fff" d="M80.608 162.504c-.904-.594-1.97.481-1.267 1.304 10.036 11.754 24.528 19.589 40.865 20.883.088.007.173.015.26.019.349.026.7.046 1.052.065.321.018.639.034.96.046.24.011.485.019.73.026.596.015 1.197.031 1.8.031.605 0 1.201-.012 1.801-.031.245-.007.486-.019.731-.026.321-.012.642-.031.959-.046.352-.019.7-.043 1.051-.065.089-.008.173-.015.26-.019 16.339-1.294 30.832-9.127 40.868-20.884.702-.824-.363-1.898-1.266-1.305-12.224 8.03-27.643 12.821-44.4 12.821-16.755 0-32.18-4.79-44.404-12.819Z"/><path fill="url(#c)" d="M81.298 99.618c8.38-14.51 20.237-25.467 33.303-32.04.966-.485.567-1.945-.497-1.748-15.2 2.813-29.23 11.447-38.518 24.949l-.15.214c-.198.29-.39.581-.58.876-.176.267-.348.539-.52.81l-.39.616a58.32 58.32 0 0 0-.925 1.544c-.302.52-.59 1.048-.876 1.572-.115.214-.23.428-.34.646-.15.283-.295.57-.44.856-.157.314-.317.627-.466.945-.039.076-.073.156-.111.233-7.05 14.795-7.512 31.264-2.35 45.833.36 1.019 1.824.634 1.762-.445-.84-14.601 2.718-30.347 11.098-44.861Z"/><path fill="#fff" d="M81.298 99.618c8.38-14.51 20.237-25.467 33.303-32.04.966-.485.567-1.945-.497-1.748-15.2 2.813-29.23 11.447-38.518 24.949l-.15.214c-.198.29-.39.581-.58.876-.176.267-.348.539-.52.81l-.39.616a58.32 58.32 0 0 0-.925 1.544c-.302.52-.59 1.048-.876 1.572-.115.214-.23.428-.34.646-.15.283-.295.57-.44.856-.157.314-.317.627-.466.945-.039.076-.073.156-.111.233-7.05 14.795-7.512 31.264-2.35 45.833.36 1.019 1.824.634 1.762-.445-.84-14.601 2.718-30.347 11.098-44.861Z"/><path fill="url(#d)" d="M179.225 99.09c-.038-.076-.073-.157-.111-.233a84.18 84.18 0 0 0-.906-1.8 55.408 55.408 0 0 0-1.216-2.218 70.42 70.42 0 0 0-.925-1.545c-.126-.206-.26-.412-.39-.615-.172-.272-.345-.54-.52-.81a48.871 48.871 0 0 0-.582-.876c-.049-.073-.099-.142-.149-.214-9.288-13.502-23.32-22.135-38.518-24.95-1.063-.196-1.462 1.264-.495 1.75 13.065 6.572 24.922 17.529 33.298 32.039 8.38 14.514 11.939 30.26 11.098 44.86-.063 1.08 1.401 1.465 1.762.446 5.163-14.569 4.703-31.039-2.346-45.833Z"/><path fill="#fff" d="M179.225 99.09c-.038-.076-.073-.157-.111-.233a84.18 84.18 0 0 0-.906-1.8 55.408 55.408 0 0 0-1.216-2.218 70.42 70.42 0 0 0-.925-1.545c-.126-.206-.26-.412-.39-.615-.172-.272-.345-.54-.52-.81a48.871 48.871 0 0 0-.582-.876c-.049-.073-.099-.142-.149-.214-9.288-13.502-23.32-22.135-38.518-24.95-1.063-.196-1.462 1.264-.495 1.75 13.065 6.572 24.922 17.529 33.298 32.039 8.38 14.514 11.939 30.26 11.098 44.86-.063 1.08 1.401 1.465 1.762.446 5.163-14.569 4.703-31.039-2.346-45.833Z"/></g><defs><linearGradient id="b" x1="125.004" x2="125.004" y1="65.811" y2="184.878" gradientUnits="userSpaceOnUse"><stop stop-color="#fff"/><stop offset="1" stop-color="#fff" stop-opacity="0"/></linearGradient><linearGradient id="c" x1="125.005" x2="125.005" y1="65.811" y2="184.878" gradientUnits="userSpaceOnUse"><stop stop-color="#fff"/><stop offset="1" stop-color="#fff" stop-opacity="0"/></linearGradient><linearGradient id="d" x1="125.005" x2="125.005" y1="65.811" y2="184.878" gradientUnits="userSpaceOnUse"><stop stop-color="#fff"/><stop offset="1" stop-color="#fff" stop-opacity="0"/></linearGradient><filter id="a" width="162.546" height="166.266" x="43.733" y="65.811" color-interpolation-filters="sRGB" filterUnits="userSpaceOnUse"><feFlood flood-opacity="0" result="BackgroundImageFix"/><feColorMatrix in="SourceAlpha" result="hardAlpha" values="0 0 0 0 0 0 0 0 0 0 0 0 0 0 0 0 0 0 127 0"/><feOffset dy=".718"/><feGaussianBlur stdDeviation=".294"/><feColorMatrix values="0 0 0 0 0 0 0 0 0 0 0 0 0 0 0 0 0 0 0.0253031 0"/><feBlend in2="BackgroundImageFix" result="effect1_dropShadow_2112_5052"/><feColorMatrix in="SourceAlpha" result="hardAlpha" values="0 0 0 0 0 0 0 0 0 0 0 0 0 0 0 0 0 0 127 0"/><feOffset dy="1.726"/><feGaussianBlur stdDeviation=".706"/><feColorMatrix values="0 0 0 0 0 0 0 0 0 0 0 0 0 0 0 0 0 0 0.0363503 0"/><feBlend in2="effect1_dropShadow_2112_5052" result="effect2_dropShadow_2112_5052"/><feColorMatrix in="SourceAlpha" result="hardAlpha" values="0 0 0 0 0 0 0 0 0 0 0 0 0 0 0 0 0 0 127 0"/><feOffset dy="3.251"/><feGaussianBlur stdDeviation="1.33"/><feColorMatrix values="0 0 0 0 0 0 0 0 0 0 0 0 0 0 0 0 0 0 0.045 0"/><feBlend in2="effect2_dropShadow_2112_5052" result="effect3_dropShadow_2112_5052"/><feColorMatrix in="SourceAlpha" result="hardAlpha" values="0 0 0 0 0 0 0 0 0 0 0 0 0 0 0 0 0 0 127 0"/><feOffset dy="5.798"/><feGaussianBlur stdDeviation="2.372"/><feColorMatrix values="0 0 0 0 0 0 0 0 0 0 0 0 0 0 0 0 0 0 0.0536497 0"/><feBlend in2="effect3_dropShadow_2112_5052" result="effect4_dropShadow_2112_5052"/><feColorMatrix in="SourceAlpha" result="hardAlpha" values="0 0 0 0 0 0 0 0 0 0 0 0 0 0 0 0 0 0 127 0"/><feOffset dy="10.845"/><feGaussianBlur stdDeviation="4.437"/><feColorMatrix values="0 0 0 0 0 0 0 0 0 0 0 0 0 0 0 0 0 0 0.0646969 0"/><feBlend in2="effect4_dropShadow_2112_5052" result="effect5_dropShadow_2112_5052"/><feColorMatrix in="SourceAlpha" result="hardAlpha" values="0 0 0 0 0 0 0 0 0 0 0 0 0 0 0 0 0 0 127 0"/><feOffset dy="25.959"/><feGaussianBlur stdDeviation="10.62"/><feColorMatrix values="0 0 0 0 0 0 0 0 0 0 0 0 0 0 0 0 0 0 0.09 0"/><feBlend in2="effect5_dropShadow_2112_5052" result="effect6_dropShadow_2112_5052"/><feBlend in="SourceGraphic" in2="effect6_dropShadow_2112_5052" result="shape"/></filter></defs></svg>