<?xml version="1.0" encoding="UTF-8"?>
<svg version="1.1" xmlns="http://www.w3.org/2000/svg" width="400" height="400">
<path d="M0 0 C132 0 264 0 400 0 C400 132 400 264 400 400 C268 400 136 400 0 400 C0 268 0 136 0 0 Z " fill="#D72B6C" transform="translate(0,0)"/>
<path d="M0 0 C1.57093918 0.10948219 1.57093918 0.10948219 3.1736145 0.22117615 C4.35140472 0.3098848 5.52919495 0.39859344 6.74267578 0.48999023 C8.63226517 0.62685997 8.63226517 0.62685997 10.56002808 0.76649475 C15.10360382 1.09863002 19.64582931 1.44767116 24.18798828 1.79858398 C25.06904739 1.86646873 25.95010651 1.93435349 26.85786438 2.00429535 C39.09822474 2.94928386 51.33568262 3.92739092 63.57092667 4.93645287 C69.03544819 5.38700794 74.50030173 5.83196147 79.96630859 6.26416016 C85.33699467 6.68890531 90.70645124 7.12681751 96.07528305 7.57437325 C98.10433226 7.74128413 100.1337714 7.90352454 102.16357803 8.06095695 C104.97257395 8.27974354 107.77965774 8.51542711 110.58691406 8.75537109 C111.41888809 8.81624908 112.25086212 8.87712708 113.10804749 8.93984985 C118.72854752 9.44574354 118.72854752 9.44574354 120.88624382 11.10280704 C123.15822114 14.06250218 122.89572454 17.7601751 123.10205078 21.36499023 C123.16179581 22.22297714 123.22154083 23.08096405 123.28309631 23.96495056 C123.47384216 26.76292878 123.6440391 29.56171176 123.81298828 32.36108398 C123.93830512 34.28561155 124.06436562 36.21009084 124.19116211 38.13452148 C125.3119103 55.47106935 126.2154681 72.79516162 126.19506836 90.17163086 C126.19455727 91.00321716 126.19404617 91.83480347 126.19351959 92.69158936 C126.19219453 94.72725464 126.19016314 96.76291943 126.18798828 98.79858398 C127.18721817 98.6858313 128.18644806 98.57307861 129.21595764 98.45690918 C138.64637569 97.39329789 148.07724529 96.3337745 157.50856876 95.27822113 C162.35693822 94.73545964 167.20513889 94.19127407 172.05297852 93.64379883 C176.73397864 93.1152187 181.41538938 92.59042535 186.09710503 92.06822205 C187.88055912 91.86862667 189.66386274 91.66768198 191.44700813 91.46534729 C193.95020475 91.18154444 196.45390001 90.90260344 198.95776367 90.62475586 C199.69000656 90.54059921 200.42224945 90.45644257 201.17668152 90.36973572 C213.11663716 89.06154414 213.11663716 89.06154414 215.86249828 90.95056915 C217.73016598 93.55449496 217.56552013 95.41611286 217.56893921 98.60595703 C217.57739868 99.81738373 217.58585815 101.02881042 217.59457397 102.27694702 C217.58874092 103.62140027 217.5825964 104.96585219 217.57617188 106.31030273 C217.58023645 107.72458299 217.58557769 109.13886006 217.59210205 110.5531311 C217.60579515 114.39608652 217.60046889 118.2388007 217.59096479 122.08176041 C217.58337847 126.10024931 217.59041094 130.11871733 217.59512329 134.13720703 C217.60058385 140.88602412 217.59338139 147.63474277 217.57910156 154.38354492 C217.56277443 162.19016375 217.56806272 169.99654754 217.58458078 177.80316067 C217.59818713 184.50132226 217.60011949 191.19941302 217.59226477 197.89758396 C217.58758355 201.90005408 217.58697567 205.90241366 217.59687424 209.90487671 C217.60552931 213.66747434 217.59954904 217.42976844 217.58219147 221.19233322 C217.57821877 222.57464468 217.57937406 223.95698161 217.58597946 225.33928299 C217.59415325 227.2232498 217.58209488 229.10727233 217.56893921 230.99121094 C217.56780813 232.04645462 217.56667706 233.1016983 217.5655117 234.18891907 C217.18798828 236.79858398 217.18798828 236.79858398 215.82067299 238.60902405 C213.52615388 240.2807908 211.39605927 240.70177156 208.62548828 241.30639648 C207.45824219 241.56614258 206.29099609 241.82588867 205.08837891 242.09350586 C203.80125 242.36743164 202.51412109 242.64135742 201.18798828 242.92358398 C199.81998096 243.22294395 198.45214676 243.52309594 197.08447266 243.82397461 C183.44845434 246.80605495 169.77508778 249.62055562 156.1081543 252.45678711 C144.18240189 254.93569539 132.29746761 257.5476146 120.42553711 260.27294922 C110.21554188 262.60239776 99.96947278 264.71914156 89.7069397 266.80099487 C80.20891784 268.73014367 70.74946974 270.77096738 61.31298828 272.98608398 C53.51545372 274.81008983 45.71584432 276.60430176 37.87548828 278.23608398 C36.65659912 278.50038208 36.65659912 278.50038208 35.41308594 278.77001953 C27.66720539 280.34296009 27.66720539 280.34296009 24.18798828 278.79858398 C21.92068013 276.6636044 20.06454924 274.27799015 18.18798828 271.79858398 C17.67236328 271.1224707 17.15673828 270.44635742 16.62548828 269.74975586 C14.95936627 267.53030166 13.320965 265.29252568 11.68798828 263.04858398 C10.44847905 261.35582138 9.20889358 259.66311461 7.96923828 257.97045898 C7.34146484 257.11129883 6.71369141 256.25213867 6.06689453 255.36694336 C3.11812564 251.3361418 0.15262419 247.31772116 -2.81201172 243.29858398 C-3.97876732 241.71531619 -5.14543378 240.13198269 -6.31201172 238.54858398 C-6.88951172 237.76483398 -7.46701172 236.98108398 -8.06201172 236.17358398 C-13.31201172 229.04858398 -13.31201172 229.04858398 -15.0625 226.67285156 C-16.22745021 225.09189416 -17.39248906 223.51100207 -18.55761719 221.93017578 C-21.50128152 217.9360257 -24.44332517 213.94069968 -27.38232422 209.94311523 C-32.3617855 203.17304049 -37.34098805 196.40408463 -42.40063477 189.69360352 C-43.86125522 187.75369051 -45.31371272 185.80788371 -46.76513672 183.86108398 C-48.97458701 180.89954267 -51.22345301 177.97135541 -53.48388672 175.04858398 C-54.69815937 173.44497056 -55.91171604 171.84081472 -57.12451172 170.23608398 C-57.99765015 169.12898071 -57.99765015 169.12898071 -58.88842773 167.99951172 C-59.68011353 166.9390564 -59.68011353 166.9390564 -60.48779297 165.85717773 C-61.19802612 164.93376587 -61.19802612 164.93376587 -61.92260742 163.99169922 C-64.58907789 157.41665003 -59.89146416 148.77699995 -57.68310547 142.57202148 C-57.26192444 141.37252365 -56.84074341 140.17302582 -56.40679932 138.93717957 C-55.26578422 135.68833019 -54.11673329 132.44237752 -52.96603012 129.19694901 C-51.76080979 125.79354631 -50.56291271 122.38756696 -49.36401367 118.98193359 C-46.52312998 110.91734536 -43.66859257 102.85762281 -40.81201172 94.79858398 C-40.04440016 92.63111536 -39.27681962 90.46363574 -38.50927734 88.29614258 C-34.93433789 78.20506045 -31.3453889 68.11903807 -27.74690247 58.03633118 C-25.26672135 51.08335801 -22.80160544 44.12511197 -20.33935547 37.16577148 C-19.23070693 34.03548659 -18.12182459 30.90528462 -17.0128479 27.77511597 C-16.30215741 25.7675509 -15.59232257 23.7596827 -14.88339233 21.75149536 C-13.90619632 18.98380937 -12.92585469 16.21725646 -11.94482422 13.45092773 C-11.6560289 12.63030853 -11.36723358 11.80968933 -11.06968689 10.96420288 C-10.80047928 10.20692902 -10.53127167 9.44965515 -10.25390625 8.66943359 C-9.90659958 7.68722084 -9.90659958 7.68722084 -9.55227661 6.68516541 C-7.34589737 1.06215919 -6.19800121 -0.44455416 0 0 Z " fill="#D62B6B" transform="translate(122.81201171875,60.201416015625)"/>
<path d="M0 0 C1.57093918 0.10948219 1.57093918 0.10948219 3.1736145 0.22117615 C4.35140472 0.3098848 5.52919495 0.39859344 6.74267578 0.48999023 C8.63226517 0.62685997 8.63226517 0.62685997 10.56002808 0.76649475 C15.10360382 1.09863002 19.64582931 1.44767116 24.18798828 1.79858398 C25.06904739 1.86646873 25.95010651 1.93435349 26.85786438 2.00429535 C39.09822474 2.94928386 51.33568262 3.92739092 63.57092667 4.93645287 C69.03544819 5.38700794 74.50030173 5.83196147 79.96630859 6.26416016 C85.33699467 6.68890531 90.70645124 7.12681751 96.07528305 7.57437325 C98.10433226 7.74128413 100.1337714 7.90352454 102.16357803 8.06095695 C104.97257395 8.27974354 107.77965774 8.51542711 110.58691406 8.75537109 C111.41888809 8.81624908 112.25086212 8.87712708 113.10804749 8.93984985 C118.72854752 9.44574354 118.72854752 9.44574354 120.88624382 11.10280704 C123.15822114 14.06250218 122.89572454 17.7601751 123.10205078 21.36499023 C123.16179581 22.22297714 123.22154083 23.08096405 123.28309631 23.96495056 C123.47384216 26.76292878 123.6440391 29.56171176 123.81298828 32.36108398 C123.93830512 34.28561155 124.06436562 36.21009084 124.19116211 38.13452148 C125.3119103 55.47106935 126.2154681 72.79516162 126.19506836 90.17163086 C126.19455727 91.00321716 126.19404617 91.83480347 126.19351959 92.69158936 C126.19219453 94.72725464 126.19016314 96.76291943 126.18798828 98.79858398 C127.18721817 98.6858313 128.18644806 98.57307861 129.21595764 98.45690918 C138.64637569 97.39329789 148.07724529 96.3337745 157.50856876 95.27822113 C162.35693822 94.73545964 167.20513889 94.19127407 172.05297852 93.64379883 C176.73397864 93.1152187 181.41538938 92.59042535 186.09710503 92.06822205 C187.88055912 91.86862667 189.66386274 91.66768198 191.44700813 91.46534729 C193.95020475 91.18154444 196.45390001 90.90260344 198.95776367 90.62475586 C199.69000656 90.54059921 200.42224945 90.45644257 201.17668152 90.36973572 C213.11663716 89.06154414 213.11663716 89.06154414 215.86249828 90.95056915 C217.73016598 93.55449496 217.56552013 95.41611286 217.56893921 98.60595703 C217.57739868 99.81738373 217.58585815 101.02881042 217.59457397 102.27694702 C217.58874092 103.62140027 217.5825964 104.96585219 217.57617188 106.31030273 C217.58023645 107.72458299 217.58557769 109.13886006 217.59210205 110.5531311 C217.60579515 114.39608652 217.60046889 118.2388007 217.59096479 122.08176041 C217.58337847 126.10024931 217.59041094 130.11871733 217.59512329 134.13720703 C217.60058385 140.88602412 217.59338139 147.63474277 217.57910156 154.38354492 C217.56277443 162.19016375 217.56806272 169.99654754 217.58458078 177.80316067 C217.59818713 184.50132226 217.60011949 191.19941302 217.59226477 197.89758396 C217.58758355 201.90005408 217.58697567 205.90241366 217.59687424 209.90487671 C217.60552931 213.66747434 217.59954904 217.42976844 217.58219147 221.19233322 C217.57821877 222.57464468 217.57937406 223.95698161 217.58597946 225.33928299 C217.59415325 227.2232498 217.58209488 229.10727233 217.56893921 230.99121094 C217.56780813 232.04645462 217.56667706 233.1016983 217.5655117 234.18891907 C217.18798828 236.79858398 217.18798828 236.79858398 215.82067299 238.60902405 C213.52615388 240.2807908 211.39605927 240.70177156 208.62548828 241.30639648 C207.45824219 241.56614258 206.29099609 241.82588867 205.08837891 242.09350586 C203.80125 242.36743164 202.51412109 242.64135742 201.18798828 242.92358398 C199.81998096 243.22294395 198.45214676 243.52309594 197.08447266 243.82397461 C183.44845434 246.80605495 169.77508778 249.62055562 156.1081543 252.45678711 C144.18240189 254.93569539 132.29746761 257.5476146 120.42553711 260.27294922 C110.21554188 262.60239776 99.96947278 264.71914156 89.7069397 266.80099487 C80.20891784 268.73014367 70.74946974 270.77096738 61.31298828 272.98608398 C53.51545372 274.81008983 45.71584432 276.60430176 37.87548828 278.23608398 C36.65659912 278.50038208 36.65659912 278.50038208 35.41308594 278.77001953 C27.66720539 280.34296009 27.66720539 280.34296009 24.18798828 278.79858398 C21.92068013 276.6636044 20.06454924 274.27799015 18.18798828 271.79858398 C17.67236328 271.1224707 17.15673828 270.44635742 16.62548828 269.74975586 C14.95936627 267.53030166 13.320965 265.29252568 11.68798828 263.04858398 C10.44847905 261.35582138 9.20889358 259.66311461 7.96923828 257.97045898 C7.34146484 257.11129883 6.71369141 256.25213867 6.06689453 255.36694336 C3.11812564 251.3361418 0.15262419 247.31772116 -2.81201172 243.29858398 C-3.97876732 241.71531619 -5.14543378 240.13198269 -6.31201172 238.54858398 C-6.88951172 237.76483398 -7.46701172 236.98108398 -8.06201172 236.17358398 C-13.31201172 229.04858398 -13.31201172 229.04858398 -15.0625 226.67285156 C-16.22745021 225.09189416 -17.39248906 223.51100207 -18.55761719 221.93017578 C-21.50128152 217.9360257 -24.44332517 213.94069968 -27.38232422 209.94311523 C-32.3617855 203.17304049 -37.34098805 196.40408463 -42.40063477 189.69360352 C-43.86125522 187.75369051 -45.31371272 185.80788371 -46.76513672 183.86108398 C-48.97458701 180.89954267 -51.22345301 177.97135541 -53.48388672 175.04858398 C-54.69815937 173.44497056 -55.91171604 171.84081472 -57.12451172 170.23608398 C-57.99765015 169.12898071 -57.99765015 169.12898071 -58.88842773 167.99951172 C-59.68011353 166.9390564 -59.68011353 166.9390564 -60.48779297 165.85717773 C-61.19802612 164.93376587 -61.19802612 164.93376587 -61.92260742 163.99169922 C-64.58907789 157.41665003 -59.89146416 148.77699995 -57.68310547 142.57202148 C-57.26192444 141.37252365 -56.84074341 140.17302582 -56.40679932 138.93717957 C-55.26578422 135.68833019 -54.11673329 132.44237752 -52.96603012 129.19694901 C-51.76080979 125.79354631 -50.56291271 122.38756696 -49.36401367 118.98193359 C-46.52312998 110.91734536 -43.66859257 102.85762281 -40.81201172 94.79858398 C-40.04440016 92.63111536 -39.27681962 90.46363574 -38.50927734 88.29614258 C-34.93433789 78.20506045 -31.3453889 68.11903807 -27.74690247 58.03633118 C-25.26672135 51.08335801 -22.80160544 44.12511197 -20.33935547 37.16577148 C-19.23070693 34.03548659 -18.12182459 30.90528462 -17.0128479 27.77511597 C-16.30215741 25.7675509 -15.59232257 23.7596827 -14.88339233 21.75149536 C-13.90619632 18.98380937 -12.92585469 16.21725646 -11.94482422 13.45092773 C-11.6560289 12.63030853 -11.36723358 11.80968933 -11.06968689 10.96420288 C-10.80047928 10.20692902 -10.53127167 9.44965515 -10.25390625 8.66943359 C-9.90659958 7.68722084 -9.90659958 7.68722084 -9.55227661 6.68516541 C-7.34589737 1.06215919 -6.19800121 -0.44455416 0 0 Z M0.18798828 9.79858398 C-2.02075825 16.00677038 -4.22898406 22.21514188 -6.43701172 28.42358398 C-6.78503845 29.40208313 -7.13306519 30.38058228 -7.49163818 31.38873291 C-11.86038397 43.67254852 -16.22459141 55.95796365 -20.58083153 68.24621964 C-21.28270813 70.22594907 -21.98475247 72.20561895 -22.68684387 74.18527222 C-24.8132212 80.18124342 -26.93880957 86.17748724 -29.06025028 92.17520714 C-33.4354332 104.54283251 -37.82675206 116.90283935 -42.36279297 129.21264648 C-43.03529201 131.04674385 -43.70766072 132.880889 -44.37988281 134.71508789 C-45.5849573 138.00197176 -46.80742708 141.28158949 -48.04101562 144.55786133 C-48.56822686 145.99201861 -49.09480214 147.42640992 -49.62060547 148.86108398 C-50.29820923 150.67286133 -50.29820923 150.67286133 -50.98950195 152.52124023 C-52.05984315 156.78608449 -51.88436355 159.89270934 -49.71142578 163.75463867 C-49.25477539 164.32085937 -48.798125 164.88708008 -48.32763672 165.47045898 C-47.81128662 166.1253833 -47.29493652 166.78030762 -46.76293945 167.45507812 C-46.2016333 168.14593506 -45.64032715 168.83679199 -45.06201172 169.54858398 C-43.8683926 171.06116328 -42.67705436 172.57554478 -41.48779297 174.09155273 C-40.87629395 174.86805176 -40.26479492 175.64455078 -39.63476562 176.44458008 C-36.74207595 180.18035745 -33.99518473 184.01664233 -31.24951172 187.86108398 C-27.18382977 193.5323606 -23.0747463 199.16364733 -18.87451172 204.73608398 C-12.71973505 212.90176686 -6.65521689 221.13217473 -0.59863281 229.37084961 C1.17512834 231.78110937 2.95242472 234.18871822 4.73095703 236.59545898 C5.60361206 237.77869751 5.60361206 237.77869751 6.49389648 238.98583984 C7.65835856 240.56041268 8.82742409 242.13159218 10.0012207 243.69921875 C13.00311392 247.72881745 15.86330896 251.79496294 18.57080078 256.02905273 C19.12630615 256.87072998 19.68181152 257.71240723 20.25415039 258.57958984 C21.30677769 260.1825442 22.32813556 261.80663926 23.3112793 263.453125 C24.79740229 265.67943377 26.00395943 267.24669795 28.18798828 268.79858398 C32.02648494 269.38927617 35.42529162 268.6242467 39.18798828 267.79858398 C40.27265381 267.58733887 41.35731934 267.37609375 42.47485352 267.15844727 C45.51798453 266.54091392 48.5472788 265.88042178 51.57455444 265.18972778 C53.6348545 264.71968833 55.69688693 264.25802148 57.75952148 263.79833984 C59.96495033 263.30672996 62.17025173 262.81460869 64.37501526 262.32002258 C71.92954905 260.62578084 79.49620004 258.98917193 87.0647583 257.35891724 C90.17835474 256.6881111 93.29156176 256.01550674 96.40478516 255.3429718 C98.76395752 254.83336211 101.1231848 254.32400727 103.48242188 253.81469727 C110.45008554 252.31032559 117.41720884 250.80345486 124.3843689 249.29675293 C128.21732898 248.46785659 132.0503132 247.63907191 135.88330078 246.81030273 C136.64356064 246.64591705 137.4038205 246.48153137 138.18711853 246.31216431 C144.57907462 244.93012658 150.97114777 243.54863076 157.36326599 242.16734314 C161.31579271 241.31316658 165.26823047 240.45858269 169.22045898 239.60302734 C170.72395689 239.27758123 172.22745622 238.95214166 173.73095703 238.62670898 C174.45541519 238.46989151 175.17987335 238.31307404 175.92628479 238.15150452 C180.46682767 237.16923063 185.00865482 236.19311737 189.55126953 235.22045898 C190.63553223 234.98738037 191.71979492 234.75430176 192.83691406 234.51416016 C194.79705818 234.09286934 196.75764046 233.6736096 198.71875 233.25683594 C199.97776123 232.98552856 199.97776123 232.98552856 201.26220703 232.70874023 C201.97981201 232.55542236 202.69741699 232.40210449 203.43676758 232.24414062 C205.27978622 231.84137922 205.27978622 231.84137922 207.18798828 230.79858398 C207.18798828 187.89858398 207.18798828 144.99858398 207.18798828 100.79858398 C197.14827992 101.46789787 187.23735742 102.26711736 177.25830078 103.42749023 C175.88887521 103.58344901 174.5193976 103.73895136 173.14987183 103.89402771 C167.4189971 104.54383688 161.68914057 105.20243754 155.95947266 105.86279297 C152.42187934 106.27017872 148.88374901 106.67261468 145.34527206 107.07224846 C143.37248752 107.29661194 141.40035847 107.52671574 139.42825317 107.75697327 C132.98477109 108.48475501 126.67254012 109.17726556 120.18798828 108.79858398 C116.42557486 105.03617056 116.98556309 99.66930549 116.72314453 94.58081055 C116.68559052 93.87277283 116.6480365 93.16473511 116.60934448 92.4352417 C116.52860786 90.90375404 116.44956558 89.37217632 116.37203979 87.84052277 C116.2489849 85.40950897 116.1215011 82.97876204 115.99291992 80.54803467 C115.76669444 76.25760074 115.54438846 71.96697424 115.32336426 67.67626953 C114.97032747 60.82372676 114.61400784 53.97136439 114.25265503 47.11925507 C114.12799476 44.73710569 114.00663048 42.35480414 113.88549805 39.97247314 C113.80808362 38.49295323 113.7305351 37.01344033 113.65283203 35.53393555 C113.5540979 33.61463226 113.5540979 33.61463226 113.45336914 31.65655518 C113.1572801 27.35216414 112.69893682 23.08191395 112.18798828 18.79858398 C110.94707932 18.70057999 109.70617035 18.60257599 108.42765808 18.50160217 C96.70226114 17.57547324 84.97691849 16.64865953 73.25162792 15.72118473 C67.22433811 15.24444578 61.19702979 14.76794354 55.16967773 14.29199219 C49.34708047 13.83220042 43.52453372 13.37177389 37.70202065 12.91091728 C35.48663411 12.73567795 33.27122983 12.56066282 31.05580711 12.38588142 C27.93990733 12.14001916 24.82407306 11.89334144 21.70825195 11.64648438 C20.35093712 11.53966843 20.35093712 11.53966843 18.96620178 11.43069458 C12.70233928 10.9332657 6.44468102 10.3790925 0.18798828 9.79858398 Z " fill="#FEF9FB" transform="translate(122.81201171875,60.201416015625)"/>
<path d="M0 0 C3.3 0 6.6 0 10 0 C10 41.25 10 82.5 10 125 C6.7 125 3.4 125 0 125 C0 83.75 0 42.5 0 0 Z " fill="#FFFFFF" transform="translate(200,135)"/>
<path d="M0 0 C3.3 0 6.6 0 10 0 C10 26.4 10 52.8 10 80 C6.7 80 3.4 80 0 80 C0 53.6 0 27.2 0 0 Z " fill="#FFFFFF" transform="translate(165,180)"/>
<path d="M0 0 C3.3 0 6.6 0 10 0 C10 18.15 10 36.3 10 55 C6.7 55 3.4 55 0 55 C0 36.85 0 18.7 0 0 Z " fill="#FFFFFF" transform="translate(235,205)"/>
<path d="M0 0 C3.3 0 6.6 0 10 0 C10 18.15 10 36.3 10 55 C6.7 55 3.4 55 0 55 C0 36.85 0 18.7 0 0 Z " fill="#FFFFFF" transform="translate(130,205)"/>
</svg>
