<svg xmlns="http://www.w3.org/2000/svg" width="250" height="250" fill="none"><g clip-path="url(#a)"><path fill="#EA4B71" fill-rule="evenodd" d="M215 113c-11.183 0-20.58-7.649-23.244-18h-27.508a12 12 0 0 0-11.836 10.027l-.987 5.919A23.945 23.945 0 0 1 143.626 125a23.945 23.945 0 0 1 7.799 14.054l.987 5.919A12 12 0 0 0 164.248 155h3.508c2.664-10.351 12.061-18 23.244-18 13.255 0 24 10.745 24 24s-10.745 24-24 24c-11.183 0-20.58-7.649-23.244-18h-3.508c-11.732 0-21.744-8.482-23.673-20.054l-.987-5.919A12 12 0 0 0 127.752 131h-9.508c-2.664 10.351-12.061 18-23.244 18s-20.58-7.649-23.244-18H58.244C55.58 141.351 46.183 149 35 149c-13.255 0-24-10.745-24-24s10.745-24 24-24c11.183 0 20.58 7.649 23.244 18h13.512C74.42 108.649 83.817 101 95 101s20.58 7.649 23.244 18h9.508a12 12 0 0 0 11.836-10.027l.987-5.919C142.504 91.482 152.516 83 164.248 83h27.508C194.42 72.649 203.817 65 215 65c13.255 0 24 10.745 24 24s-10.745 24-24 24Zm0-12c6.627 0 12-5.373 12-12s-5.373-12-12-12-12 5.373-12 12 5.373 12 12 12ZM35 137c6.627 0 12-5.373 12-12s-5.373-12-12-12-12 5.373-12 12 5.373 12 12 12Zm72-12c0 6.627-5.373 12-12 12s-12-5.373-12-12 5.373-12 12-12 12 5.373 12 12Zm96 36c0 6.627-5.373 12-12 12s-12-5.373-12-12 5.373-12 12-12 12 5.373 12 12Z" clip-rule="evenodd"/></g><defs><clipPath id="a"><path fill="#fff" d="M11 65h228v120H11z"/></clipPath></defs></svg>