<svg width="250" height="250" viewBox="0 0 250 250" fill="none" xmlns="http://www.w3.org/2000/svg">
<path d="M239.726 72.3257C239.005 69.1067 237.576 66.0827 235.541 63.4668C233.209 60.8454 230.246 58.8443 226.924 57.6478C226.11 58.3106 225.405 59.0935 224.834 59.9687C225.854 60.3971 226.851 60.8785 227.82 61.4108C232.539 64.1686 236.598 67.8973 239.721 72.3425" fill="#0095DE"/>
<path d="M226.929 101.707C216.806 102.127 215.978 107.349 207.131 109.884C200.203 111.873 188.012 107.895 179.608 114.639C171.525 121.123 176.017 130.616 181.4 136.536C186.783 142.456 190.942 149.654 185.956 160.388C189.328 158.508 191.985 155.595 193.525 152.09C195.065 148.586 195.403 144.683 194.487 140.972C192.418 133.051 183.738 127.345 187.235 122.208C190.964 116.742 200.587 121.14 209.968 118.356C218.384 115.863 220.287 109.426 225.721 107.761C228.869 106.807 232.185 106.518 235.454 106.913C238.723 107.307 241.87 108.377 244.691 110.052C242.797 107.186 240.136 104.89 237.003 103.417C233.87 101.945 230.385 101.353 226.933 101.707" fill="#0095DE"/>
<path d="M234.128 91.7966C238.697 94.8953 234.504 102.367 249.652 104.944C246.606 84.5354 233.74 79.7465 229.543 78.8762C227.135 74.314 223.638 70.3977 219.352 67.4652C214.513 64.3826 208.902 62.6801 203.142 62.546C203.142 62.546 200.032 74.2681 217.415 82.9083C214.837 85.9692 211.236 88.0235 207.258 88.7021C199.153 89.2823 190.861 85.1913 181.664 79.3093C170.743 72.2542 161.589 64.0134 139.407 63.9671C105.869 63.9671 90.4274 99.1081 51.0543 97.8762C9.18999 96.5602 1.44336 65.5018 1.44336 65.5018C1.44336 65.5018 7.13392 111.465 53.3109 111.465C99.4879 111.465 113.258 76.8286 141.305 76.2778C169.95 75.7018 183.643 96.7789 205.177 97.1489C221.199 97.4306 225.512 85.986 234.146 91.8428" fill="#0095DE"/>
<path d="M147.534 121.777C140.514 107.103 113.797 110.313 101.316 113.752C110.482 115.089 130.685 119.943 138.174 128.655C147.534 139.546 139.344 155.596 147.534 166.486C155.725 177.377 170.351 172.792 179.127 176.804C186.147 180.014 191.022 189.605 192.582 194C192.973 188.65 192.348 176.345 186.732 169.926C179.712 161.901 168.596 164.767 157.48 155.596C146.364 146.424 156.31 140.119 147.534 121.777Z" fill="#0095DE"/>
</svg>
