<svg width="59" height="21" viewBox="0 0 59 21" fill="none" xmlns="http://www.w3.org/2000/svg">
<path d="M0.325089 3.02916L0.347269 5.80844L3.28242 5.83642L6.22496 5.85507L6.23975 13.2043L6.26193 20.5442L8.76087 20.5722L11.2524 20.5908V13.2229V5.85507H14.2098H17.1671L17.1523 3.16906L17.1301 0.492376L16.7087 0.464396C16.4721 0.445744 16.2799 0.399111 16.2799 0.35248C16.2799 0.29652 13.2856 0.259214 8.2951 0.259214H0.310303L0.325089 3.02916Z" fill="#5B3B9F"/>
<path d="M18.5866 3.02956L18.6087 5.80884L26.2461 5.83682L33.876 5.85547V3.15081V0.446142H33.4324C33.1884 0.446142 32.9888 0.408836 32.9888 0.352877C32.9888 0.287592 30.5342 0.259613 25.7803 0.259613H18.5718L18.5866 3.02956Z" fill="#5B3B9F"/>
<path d="M35.2955 3.02932L35.3177 5.80859H37.7945H40.2713V3.15056V0.492532L39.8498 0.464553C39.6132 0.4459 39.421 0.399268 39.421 0.352636C39.421 0.296678 38.6078 0.259372 37.3509 0.259372H35.2808L35.2955 3.02932Z" fill="#5B3B9F"/>
<path d="M41.6537 3.02917L41.6759 5.80844L47.036 5.85508C51.9896 5.90171 52.4184 5.91103 52.6919 6.06958C53.0246 6.25611 53.3204 6.58254 53.3204 6.75041C53.3204 6.94627 52.8841 7.33798 52.4923 7.4872C52.167 7.60844 51.3537 7.6271 46.8734 7.6271H41.6389L41.6537 14.081L41.6759 20.5442L44.1748 20.5722L46.6664 20.5908V16.9535C46.6664 13.5494 46.6738 13.3162 46.7994 13.3162C46.866 13.3162 48.2042 14.9297 49.8085 16.9535L52.6919 20.5908L55.6123 20.5722L58.5326 20.5442L58.5548 20.0219L58.577 19.4996L56.152 16.3846C53.7639 13.3255 53.727 13.2789 53.9488 13.2136C55.1983 12.8592 55.5901 12.7007 56.1224 12.3742C57.2462 11.6748 58.0299 10.4437 58.3478 8.87684C58.5696 7.8043 58.5548 5.8644 58.3256 4.86648C57.882 2.93591 56.8026 1.50896 55.3092 0.874767C55.1169 0.800156 54.6142 0.641607 54.2002 0.520363C53.4386 0.315182 53.3499 0.305855 47.5314 0.277876L41.6389 0.249897L41.6537 3.02917Z" fill="#5B3B9F"/>
<path d="M18.5866 14.081L18.6087 20.5442L21.1077 20.5722L23.5992 20.5908V16.9535V13.3162L28.7228 13.2976L33.839 13.2696V10.5649V7.86025L33.4176 7.83227C33.181 7.81362 32.9888 7.76698 32.9888 7.72035C32.9888 7.66439 30.2828 7.62709 25.7803 7.62709H18.5718L18.5866 14.081Z" fill="#5B3B9F"/>
<path d="M35.2955 14.081L35.3177 20.5442L37.8167 20.5722L40.3082 20.5908L40.2934 14.2302L40.2713 7.86025L39.8498 7.83227C39.6132 7.81362 39.421 7.76698 39.421 7.72035C39.421 7.66439 38.6078 7.62709 37.3509 7.62709H35.2808L35.2955 14.081Z" fill="#5B3B9F"/>
</svg>
