<svg version="1.1" id="Layer_1" xmlns="http://www.w3.org/2000/svg" xmlns:xlink="http://www.w3.org/1999/xlink" x="0px" y="0px"
	 width="100%" viewBox="0 0 120 120" enable-background="new 0 0 120 120" xml:space="preserve">
<path fill="#FEFEFF" opacity="1.000000" stroke="none" 
	d="
M54.000000,121.000000 
	C36.000000,121.000000 18.500000,121.000000 1.000000,121.000000 
	C1.000000,81.000000 1.000000,41.000000 1.000000,1.000000 
	C41.000000,1.000000 81.000000,1.000000 121.000000,1.000000 
	C121.000000,41.000000 121.000000,81.000000 121.000000,121.000000 
	C98.833336,121.000000 76.666664,121.000000 54.000000,121.000000 
M51.320969,85.840355 
	C51.320969,85.840355 51.581448,85.867371 51.581448,85.867371 
	C51.581448,85.867371 51.820480,85.750259 52.801922,85.321373 
	C53.154396,85.264595 53.506870,85.207817 54.233646,85.057304 
	C54.490917,85.030754 54.748825,85.014030 54.766285,85.714066 
	C58.220814,92.701851 65.938210,96.409142 73.875191,94.893623 
	C82.189056,93.306145 88.715279,86.114021 88.699226,77.251747 
	C88.689934,72.120529 89.711693,68.287697 94.231377,65.561020 
	C97.146042,63.802628 96.943878,61.860977 94.228287,59.768162 
	C91.538559,57.695271 89.016380,55.708973 88.299004,51.715721 
	C86.480377,41.592182 79.067207,36.325207 68.168251,36.913960 
	C68.168251,36.913960 67.788971,36.908707 67.644806,36.264370 
	C63.589706,29.326588 56.312309,25.798456 48.757984,27.107904 
	C41.599213,28.348789 34.951355,34.123325 34.121147,41.002071 
	C33.646492,44.934868 31.889324,47.291481 29.072865,49.558113 
	C24.531738,53.212723 24.762800,53.136745 29.188398,57.300560 
	C31.059294,59.060791 33.206371,61.622097 33.354538,63.939087 
	C34.241207,77.804718 38.015106,82.709358 51.320969,85.840355 
z"/>
<path fill="#084FE6" opacity="1.000000" stroke="none" 
	d="
M68.546928,36.896149 
	C79.067207,36.325207 86.480377,41.592182 88.299004,51.715721 
	C89.016380,55.708973 91.538559,57.695271 94.228287,59.768162 
	C96.943878,61.860977 97.146042,63.802628 94.231377,65.561020 
	C89.711693,68.287697 88.689934,72.120529 88.699226,77.251747 
	C88.715279,86.114021 82.189056,93.306145 73.875191,94.893623 
	C65.938210,96.409142 58.220814,92.701851 55.262062,85.371704 
	C63.008194,83.351700 68.688637,78.996307 69.559464,71.780289 
	C70.954514,60.220272 71.883072,48.428993 68.546928,36.896149 
z"/>
<path fill="#080590" opacity="1.000000" stroke="none" 
	d="
M53.859344,85.151031 
	C53.506870,85.207817 53.154396,85.264595 52.151482,85.421127 
	C51.501038,85.520889 51.173035,85.738152 51.173035,85.738152 
	C38.015106,82.709358 34.241207,77.804718 33.354538,63.939087 
	C33.206371,61.622097 31.059294,59.060791 29.188398,57.300560 
	C24.762800,53.136745 24.531738,53.212723 29.072865,49.558113 
	C31.889324,47.291481 33.646492,44.934868 34.121147,41.002071 
	C34.951355,34.123325 41.599213,28.348789 48.757984,27.107904 
	C56.312309,25.798456 63.589706,29.326588 67.343338,36.564445 
	C57.226662,39.339298 51.949741,45.779785 51.828819,55.620781 
	C51.745209,62.425426 51.608871,69.240936 51.907051,76.033546 
	C52.041458,79.095375 53.177670,82.113235 53.859344,85.151031 
z"/>
<path fill="#FBFBFD" opacity="1.000000" stroke="none" 
	d="
M54.046494,85.104172 
	C53.177670,82.113235 52.041458,79.095375 51.907051,76.033546 
	C51.608871,69.240936 51.745209,62.425426 51.828819,55.620781 
	C51.949741,45.779785 57.226662,39.339298 67.415421,36.886612 
	C67.788971,36.908707 68.168251,36.913960 68.357590,36.905052 
	C71.883072,48.428993 70.954514,60.220272 69.559464,71.780289 
	C68.688637,78.996307 63.008194,83.351700 55.382607,85.018250 
	C54.748825,85.014030 54.490917,85.030754 54.046494,85.104172 
z"/>
<path fill="#FBFBFD" opacity="1.000000" stroke="none" 
	d="
M51.247002,85.789253 
	C51.173035,85.738152 51.501038,85.520889 51.660759,85.635574 
	C51.820480,85.750259 51.581448,85.867371 51.581448,85.867371 
	C51.581448,85.867371 51.320969,85.840355 51.247002,85.789253 
z"/>
</svg>
