<?xml version="1.0" encoding="UTF-8"?>
<svg xmlns="http://www.w3.org/2000/svg" xmlns:xlink="http://www.w3.org/1999/xlink" width="250px" height="250px" viewBox="0 0 250 250" version="1.1">
<g id="surface1">
<rect x="0" y="0" width="250" height="250" style="fill:rgb(100%,100%,100%);fill-opacity:1;stroke:none;"/>
<path style=" stroke:none;fill-rule:nonzero;fill:rgb(74.901961%,18.823529%,47.058824%);fill-opacity:1;" d="M 201.132812 87.121094 C 199.738281 87.121094 198.066406 87.121094 196.667969 87.398438 L 188.578125 101.566406 C 192.203125 99.34375 196.667969 98.234375 201.132812 98.234375 C 215.648438 98.234375 227.648438 110.175781 227.648438 124.621094 C 227.648438 139.066406 215.648438 151.011719 201.132812 151.011719 C 186.621094 151.011719 174.902344 139.34375 174.621094 124.898438 L 166.25 139.066406 C 171.832031 152.675781 185.507812 162.121094 200.855469 162.121094 C 221.507812 162.121094 238.53125 145.175781 238.53125 124.621094 C 238.808594 104.066406 221.785156 87.121094 201.132812 87.121094 Z M 201.132812 87.121094 "/>
<path style=" stroke:none;fill-rule:nonzero;fill:rgb(50.196078%,12.54902%,31.372549%);fill-opacity:1;" d="M 87.273438 126.289062 L 93.691406 115.175781 L 108.203125 139.898438 L 124.945312 111.289062 L 141.691406 139.898438 L 170.4375 91.289062 C 171.832031 88.789062 174.621094 87.121094 177.691406 87.121094 L 185.785156 87.121094 L 141.691406 162.121094 L 124.949219 133.511719 L 108.203125 162.121094 Z M 87.273438 126.289062 "/>
<path style=" stroke:none;fill-rule:nonzero;fill:rgb(14.901961%,7.45098%,30.196078%);fill-opacity:1;" d="M 99.273438 87.121094 L 55.179688 162.121094 L 11.363281 87.121094 L 19.457031 87.121094 C 22.527344 87.121094 25.316406 88.789062 26.710938 91.289062 L 55.179688 140.175781 L 83.921875 91.289062 C 85.320312 88.789062 88.109375 87.121094 91.179688 87.121094 Z M 99.273438 87.121094 "/>
</g>
</svg>
