<svg version="1.1" id="Layer_1" xmlns="http://www.w3.org/2000/svg" xmlns:xlink="http://www.w3.org/1999/xlink" x="0px" y="0px"
	 width="100%" viewBox="0 0 256 256" enable-background="new 0 0 256 256" xml:space="preserve">
<path fill="#000000" opacity="1.000000" stroke="none" 
	d="
M1.000000,99.000000 
	C1.000000,66.000008 1.000000,33.500011 1.000000,1.000013 
	C86.333313,1.000009 171.666626,1.000009 256.999939,1.000004 
	C256.999969,86.333290 256.999969,171.666580 257.000000,256.999908 
	C171.666718,256.999939 86.333435,256.999939 1.000077,256.999969 
	C1.000000,204.500000 1.000000,152.000000 1.000000,99.000000 
M245.498459,143.001221 
	C247.386047,139.762222 249.776978,136.699432 250.993210,133.225388 
	C251.878586,130.696426 252.139725,127.192688 251.060944,124.877609 
	C248.111176,118.547432 244.344742,112.593369 240.832214,106.530617 
	C225.140289,79.445923 209.373810,52.404167 193.784271,25.260746 
	C191.960800,22.085863 189.690109,20.965805 186.241013,20.970133 
	C148.078384,21.017994 109.915657,21.021658 71.753059,20.964115 
	C68.283997,20.958885 65.953484,22.084719 64.170982,25.227232 
	C57.575329,36.855206 50.707043,48.328106 44.035145,59.913372 
	C37.282272,71.639236 30.569773,83.389786 23.995935,95.216423 
	C22.156176,98.526245 21.877455,102.041779 26.081100,103.962082 
	C29.940498,105.725136 32.469521,103.847137 34.273582,100.375160 
	C35.928318,97.190567 37.744129,94.087593 39.547382,90.982582 
	C49.535675,73.783791 59.541813,56.595360 69.871880,38.835983 
	C72.965340,43.954742 75.810020,49.036755 79.036331,53.863689 
	C81.061058,56.892921 80.630196,59.456036 78.952164,62.331009 
	C67.936951,81.203354 56.947243,100.090790 46.028858,119.019241 
	C44.436607,121.779617 42.719978,123.244003 39.162674,123.111237 
	C30.176144,122.775833 21.167751,122.920601 12.169984,123.028542 
	C6.045286,123.102013 3.501562,127.216812 6.243539,132.526047 
	C7.963509,135.856384 9.936604,139.056702 11.815660,142.304047 
	C21.205648,158.531677 30.584208,174.765945 40.001713,190.977615 
	C48.190578,205.074280 56.315872,219.210770 64.773521,233.144958 
	C65.892563,234.988602 68.803406,236.825958 70.894791,236.837845 
	C109.556168,237.057556 148.219360,237.047028 186.881134,236.865463 
	C188.934647,236.855820 191.853424,235.444962 192.884949,233.771423 
	C199.299500,223.364563 205.310455,212.708099 211.416885,202.112305 
	C222.649460,182.621719 233.855469,163.115829 245.498459,143.001221 
z"/>
<path fill="#30ACBF" opacity="1.000000" stroke="none" 
	d="
M245.285492,143.308777 
	C233.855469,163.115829 222.649460,182.621719 211.416885,202.112305 
	C205.310455,212.708099 199.299500,223.364563 192.884949,233.771423 
	C191.853424,235.444962 188.934647,236.855820 186.881134,236.865463 
	C148.219360,237.047028 109.556168,237.057556 70.894791,236.837845 
	C68.803406,236.825958 65.892563,234.988602 64.773521,233.144958 
	C56.315872,219.210770 48.190578,205.074280 40.001713,190.977615 
	C30.584208,174.765945 21.205648,158.531677 11.815660,142.304047 
	C9.936604,139.056702 7.963509,135.856384 6.243539,132.526047 
	C3.501562,127.216812 6.045286,123.102013 12.169984,123.028542 
	C21.167751,122.920601 30.176144,122.775833 39.162674,123.111237 
	C42.719978,123.244003 44.436607,121.779617 46.028858,119.019241 
	C56.947243,100.090790 67.936951,81.203354 78.952164,62.331009 
	C80.630196,59.456036 81.061058,56.892921 79.036331,53.863689 
	C75.810020,49.036755 72.965340,43.954742 69.871880,38.835983 
	C59.541813,56.595360 49.535675,73.783791 39.547382,90.982582 
	C37.744129,94.087593 35.928318,97.190567 34.273582,100.375160 
	C32.469521,103.847137 29.940498,105.725136 26.081100,103.962082 
	C21.877455,102.041779 22.156176,98.526245 23.995935,95.216423 
	C30.569773,83.389786 37.282272,71.639236 44.035145,59.913372 
	C50.707043,48.328106 57.575329,36.855206 64.170982,25.227232 
	C65.953484,22.084719 68.283997,20.958885 71.753059,20.964115 
	C109.915657,21.021658 148.078384,21.017994 186.241013,20.970133 
	C189.690109,20.965805 191.960800,22.085863 193.784271,25.260746 
	C209.373810,52.404167 225.140289,79.445923 240.832214,106.530617 
	C244.344742,112.593369 248.111176,118.547432 251.060944,124.877609 
	C252.139725,127.192688 251.878586,130.696426 250.993210,133.225388 
	C249.776978,136.699432 247.386047,139.762222 245.285492,143.308777 
M25.002932,135.001068 
	C24.084349,135.073380 23.165768,135.145676 21.799391,135.253235 
	C22.681725,137.167511 23.237213,138.682098 24.034401,140.056488 
	C39.661533,166.998215 55.408627,193.871277 70.839821,220.924545 
	C72.594948,224.001556 74.191780,225.083237 77.604744,225.070389 
	C109.269043,224.951233 140.933975,225.003021 172.598724,224.989731 
	C174.000580,224.989136 175.402374,224.839371 177.590866,224.714050 
	C173.914581,218.642563 170.808426,213.129578 167.250214,207.925751 
	C166.437057,206.736526 164.067001,206.087601 162.409073,206.079315 
	C139.077728,205.962646 115.745605,205.983826 92.413727,206.013321 
	C87.660706,206.019318 84.040016,204.630707 81.466972,200.120880 
	C71.126480,181.996918 60.173206,164.214508 50.164696,145.913071 
	C46.054531,138.397278 42.022388,132.785080 32.392620,134.932861 
	C30.328733,135.393173 28.074522,135.000122 25.002932,135.001068 
M179.223557,122.966743 
	C186.088654,122.966743 192.953751,122.966743 200.526199,122.966743 
	C199.032501,120.219673 198.060379,118.364845 197.027832,116.544296 
	C192.039764,107.749496 186.969376,99.000069 182.114578,90.132507 
	C181.456085,88.929726 181.234726,86.752495 181.897461,85.732262 
	C182.914017,84.167320 185.116592,82.008575 186.381241,82.262886 
	C188.759521,82.741158 191.674530,84.245575 192.884384,86.227859 
	C199.761475,97.495598 206.165497,109.051216 212.844849,120.441833 
	C213.481842,121.528122 214.884064,122.839943 215.971344,122.877426 
	C222.545532,123.104012 229.131439,122.990189 236.616714,122.990189 
	C220.124191,94.452789 204.106323,66.736687 187.927292,38.741730 
	C178.413620,55.109123 169.218567,70.839767 160.182037,86.660965 
	C159.533691,87.796104 159.475754,89.912010 160.104340,91.032974 
	C166.079559,101.688599 172.262756,112.227585 179.223557,122.966743 
M184.997253,185.504517 
	C182.832916,189.333908 180.389099,193.041077 178.635483,197.050125 
	C177.886139,198.763229 177.916092,201.427963 178.733688,203.102951 
	C181.345520,208.453644 184.492340,213.543213 187.834457,219.443008 
	C204.159256,191.174484 220.190414,163.414444 236.598907,135.000961 
	C229.281891,135.000961 223.123871,134.881180 216.977432,135.094589 
	C215.628708,135.141434 213.721710,136.023163 213.084656,137.112640 
	C203.792480,153.004074 194.672546,168.996246 184.997253,185.504517 
M169.360962,33.000000 
	C139.998245,33.000000 110.635529,33.000000 80.321281,33.000000 
	C83.719185,38.916702 86.440933,44.069901 89.614204,48.928185 
	C90.560295,50.376663 92.764595,51.856739 94.404343,51.870205 
	C117.537552,52.060165 140.672867,52.014736 163.807480,51.955650 
	C165.022476,51.952545 166.875168,51.701420 167.347610,50.914963 
	C170.746414,45.256958 173.865082,39.430687 177.438110,33.000000 
	C174.539291,33.000000 172.426559,33.000000 169.360962,33.000000 
M104.833817,194.000000 
	C122.773567,194.000000 140.713318,194.000000 159.682770,194.000000 
	C149.308136,176.049622 139.382462,158.876022 129.078568,141.048050 
	C118.707359,159.149643 108.899414,176.268112 98.740021,194.000000 
	C101.274750,194.000000 102.604118,194.000000 104.833817,194.000000 
M84.999443,144.499130 
	C83.829933,142.350723 82.856033,140.058701 81.421585,138.104782 
	C80.477745,136.819153 78.907860,135.205536 77.553146,135.142654 
	C70.963760,134.836792 64.352386,135.004425 57.125347,135.004425 
	C67.567764,153.099808 77.680878,170.624557 88.275864,188.984314 
	C91.206566,183.607773 93.116364,178.601944 96.319061,174.641693 
	C99.671967,170.495697 98.565178,167.460938 96.257912,163.691483 
	C92.513939,157.574875 89.081345,151.267670 84.999443,144.499130 
M94.924683,96.401146 
	C98.468178,91.963928 100.017769,87.482933 95.367943,82.751930 
	C94.820312,82.194740 94.625015,81.304207 94.210144,80.601410 
	C92.136063,77.087822 90.043228,73.585304 87.798409,69.812363 
	C77.406380,87.836838 67.428825,105.142410 57.133106,122.999832 
	C63.857891,122.999832 69.973831,122.744736 76.052269,123.111427 
	C78.932007,123.285156 80.304871,121.959534 81.464500,119.943481 
	C85.847755,112.323097 90.154106,104.658485 94.924683,96.401146 
M184.668198,135.000015 
	C182.128174,135.621643 178.269211,135.410568 177.264709,137.001617 
	C171.272446,146.492996 165.833740,156.343491 160.498062,166.229340 
	C159.700653,167.706818 159.783173,170.330185 160.560623,171.865372 
	C163.277527,177.230240 166.477493,182.350464 169.915466,188.292191 
	C180.144058,170.568436 190.218262,153.112198 200.671021,135.000000 
	C194.928024,135.000000 190.277176,135.000000 184.668198,135.000015 
M121.522034,83.000000 
	C129.517548,82.999832 137.515656,83.104225 145.506317,82.907173 
	C147.019775,82.869843 149.140366,82.047440 149.892090,80.883888 
	C153.315079,75.585617 156.349274,70.036133 159.723465,64.232643 
	C139.078445,64.232643 118.907875,64.232643 98.254784,64.232643 
	C100.222656,67.514870 102.515846,70.227562 103.597603,73.358788 
	C106.493362,81.740753 112.118156,84.653320 121.522034,83.000000 
M135.247101,95.000000 
	C129.048859,95.000000 122.850616,95.000000 116.033028,95.000000 
	C120.558884,102.824242 124.660133,109.914421 129.079865,117.555206 
	C133.478058,109.853729 137.587082,102.658585 141.960770,95.000000 
	C139.476700,95.000000 137.818970,95.000000 135.247101,95.000000 
M103.931313,153.638794 
	C104.567146,154.815109 105.202988,155.991409 106.081192,157.616104 
	C110.554489,149.751724 114.627960,142.590271 118.897034,135.084930 
	C110.074051,135.084930 101.926376,135.084930 93.092941,135.084930 
	C96.701744,141.293930 100.106880,147.152512 103.931313,153.638794 
M101.632385,123.000000 
	C107.011543,123.000000 112.390701,123.000000 118.751572,123.000000 
	C114.095032,115.076035 110.001190,108.109612 105.776443,100.920418 
	C101.383904,108.558388 97.362259,115.551414 93.078636,123.000000 
	C96.072784,123.000000 98.379738,123.000000 101.632385,123.000000 
M159.489258,144.010208 
	C161.050598,141.239105 162.611923,138.467987 164.394897,135.303528 
	C155.656189,135.303528 147.674469,135.303528 139.272507,135.303528 
	C143.547791,142.594666 147.581497,149.473816 152.108673,157.194519 
	C154.835922,152.274353 156.953552,148.454010 159.489258,144.010208 
M159.189728,122.999969 
	C160.733475,122.904335 162.277237,122.808701 164.529922,122.669144 
	C160.261642,115.243713 156.374054,108.480530 152.052414,100.962257 
	C147.596008,108.768890 143.712280,115.572289 139.472183,123.000000 
	C146.351776,123.000000 152.303192,123.000000 159.189728,122.999969 
z"/>
<path fill="#000000" opacity="1.000000" stroke="none" 
	d="
M25.455460,135.000626 
	C28.074522,135.000122 30.328733,135.393173 32.392620,134.932861 
	C42.022388,132.785080 46.054531,138.397278 50.164696,145.913071 
	C60.173206,164.214508 71.126480,181.996918 81.466972,200.120880 
	C84.040016,204.630707 87.660706,206.019318 92.413727,206.013321 
	C115.745605,205.983826 139.077728,205.962646 162.409073,206.079315 
	C164.067001,206.087601 166.437057,206.736526 167.250214,207.925751 
	C170.808426,213.129578 173.914581,218.642563 177.590866,224.714050 
	C175.402374,224.839371 174.000580,224.989136 172.598724,224.989731 
	C140.933975,225.003021 109.269043,224.951233 77.604744,225.070389 
	C74.191780,225.083237 72.594948,224.001556 70.839821,220.924545 
	C55.408627,193.871277 39.661533,166.998215 24.034401,140.056488 
	C23.237213,138.682098 22.681725,137.167511 21.799391,135.253235 
	C23.165768,135.145676 24.084349,135.073380 25.455460,135.000626 
z"/>
<path fill="#000000" opacity="1.000000" stroke="none" 
	d="
M178.804840,122.883438 
	C172.262756,112.227585 166.079559,101.688599 160.104340,91.032974 
	C159.475754,89.912010 159.533691,87.796104 160.182037,86.660965 
	C169.218567,70.839767 178.413620,55.109123 187.927292,38.741730 
	C204.106323,66.736687 220.124191,94.452789 236.616714,122.990189 
	C229.131439,122.990189 222.545532,123.104012 215.971344,122.877426 
	C214.884064,122.839943 213.481842,121.528122 212.844849,120.441833 
	C206.165497,109.051216 199.761475,97.495598 192.884384,86.227859 
	C191.674530,84.245575 188.759521,82.741158 186.381241,82.262886 
	C185.116592,82.008575 182.914017,84.167320 181.897461,85.732262 
	C181.234726,86.752495 181.456085,88.929726 182.114578,90.132507 
	C186.969376,99.000069 192.039764,107.749496 197.027832,116.544296 
	C198.060379,118.364845 199.032501,120.219673 200.526199,122.966743 
	C192.953751,122.966743 186.088654,122.966743 178.804840,122.883438 
z"/>
<path fill="#000000" opacity="1.000000" stroke="none" 
	d="
M185.254395,185.234436 
	C194.672546,168.996246 203.792480,153.004074 213.084656,137.112640 
	C213.721710,136.023163 215.628708,135.141434 216.977432,135.094589 
	C223.123871,134.881180 229.281891,135.000961 236.598907,135.000961 
	C220.190414,163.414444 204.159256,191.174484 187.834457,219.443008 
	C184.492340,213.543213 181.345520,208.453644 178.733688,203.102951 
	C177.916092,201.427963 177.886139,198.763229 178.635483,197.050125 
	C180.389099,193.041077 182.832916,189.333908 185.254395,185.234436 
z"/>
<path fill="#000000" opacity="1.000000" stroke="none" 
	d="
M169.837387,33.000000 
	C172.426559,33.000000 174.539291,33.000000 177.438110,33.000000 
	C173.865082,39.430687 170.746414,45.256958 167.347610,50.914963 
	C166.875168,51.701420 165.022476,51.952545 163.807480,51.955650 
	C140.672867,52.014736 117.537552,52.060165 94.404343,51.870205 
	C92.764595,51.856739 90.560295,50.376663 89.614204,48.928185 
	C86.440933,44.069901 83.719185,38.916702 80.321281,33.000000 
	C110.635529,33.000000 139.998245,33.000000 169.837387,33.000000 
z"/>
<path fill="#000000" opacity="1.000000" stroke="none" 
	d="
M104.383652,194.000000 
	C102.604118,194.000000 101.274750,194.000000 98.740021,194.000000 
	C108.899414,176.268112 118.707359,159.149643 129.078568,141.048050 
	C139.382462,158.876022 149.308136,176.049622 159.682770,194.000000 
	C140.713318,194.000000 122.773567,194.000000 104.383652,194.000000 
z"/>
<path fill="#000000" opacity="1.000000" stroke="none" 
	d="
M85.258377,144.770020 
	C89.081345,151.267670 92.513939,157.574875 96.257912,163.691483 
	C98.565178,167.460938 99.671967,170.495697 96.319061,174.641693 
	C93.116364,178.601944 91.206566,183.607773 88.275864,188.984314 
	C77.680878,170.624557 67.567764,153.099808 57.125347,135.004425 
	C64.352386,135.004425 70.963760,134.836792 77.553146,135.142654 
	C78.907860,135.205536 80.477745,136.819153 81.421585,138.104782 
	C82.856033,140.058701 83.829933,142.350723 85.258377,144.770020 
z"/>
<path fill="#000000" opacity="1.000000" stroke="none" 
	d="
M94.706955,96.705788 
	C90.154106,104.658485 85.847755,112.323097 81.464500,119.943481 
	C80.304871,121.959534 78.932007,123.285156 76.052269,123.111427 
	C69.973831,122.744736 63.857891,122.999832 57.133106,122.999832 
	C67.428825,105.142410 77.406380,87.836838 87.798409,69.812363 
	C90.043228,73.585304 92.136063,77.087822 94.210144,80.601410 
	C94.625015,81.304207 94.820312,82.194740 95.367943,82.751930 
	C100.017769,87.482933 98.468178,91.963928 94.706955,96.705788 
z"/>
<path fill="#000000" opacity="1.000000" stroke="none" 
	d="
M185.147278,135.000000 
	C190.277176,135.000000 194.928024,135.000000 200.671021,135.000000 
	C190.218262,153.112198 180.144058,170.568436 169.915466,188.292191 
	C166.477493,182.350464 163.277527,177.230240 160.560623,171.865372 
	C159.783173,170.330185 159.700653,167.706818 160.498062,166.229340 
	C165.833740,156.343491 171.272446,146.492996 177.264709,137.001617 
	C178.269211,135.410568 182.128174,135.621643 185.147278,135.000000 
z"/>
<path fill="#000000" opacity="1.000000" stroke="none" 
	d="
M121.028000,83.000000 
	C112.118156,84.653320 106.493362,81.740753 103.597603,73.358788 
	C102.515846,70.227562 100.222656,67.514870 98.254784,64.232643 
	C118.907875,64.232643 139.078445,64.232643 159.723465,64.232643 
	C156.349274,70.036133 153.315079,75.585617 149.892090,80.883888 
	C149.140366,82.047440 147.019775,82.869843 145.506317,82.907173 
	C137.515656,83.104225 129.517548,82.999832 121.028000,83.000000 
z"/>
<path fill="#000000" opacity="1.000000" stroke="none" 
	d="
M135.704163,95.000000 
	C137.818970,95.000000 139.476700,95.000000 141.960770,95.000000 
	C137.587082,102.658585 133.478058,109.853729 129.079865,117.555206 
	C124.660133,109.914421 120.558884,102.824242 116.033028,95.000000 
	C122.850616,95.000000 129.048859,95.000000 135.704163,95.000000 
z"/>
<path fill="#000000" opacity="1.000000" stroke="none" 
	d="
M103.721664,153.324936 
	C100.106880,147.152512 96.701744,141.293930 93.092941,135.084930 
	C101.926376,135.084930 110.074051,135.084930 118.897034,135.084930 
	C114.627960,142.590271 110.554489,149.751724 106.081192,157.616104 
	C105.202988,155.991409 104.567146,154.815109 103.721664,153.324936 
z"/>
<path fill="#000000" opacity="1.000000" stroke="none" 
	d="
M101.159546,123.000000 
	C98.379738,123.000000 96.072784,123.000000 93.078636,123.000000 
	C97.362259,115.551414 101.383904,108.558388 105.776443,100.920418 
	C110.001190,108.109612 114.095032,115.076035 118.751572,123.000000 
	C112.390701,123.000000 107.011543,123.000000 101.159546,123.000000 
z"/>
<path fill="#000000" opacity="1.000000" stroke="none" 
	d="
M159.280212,144.321930 
	C156.953552,148.454010 154.835922,152.274353 152.108673,157.194519 
	C147.581497,149.473816 143.547791,142.594666 139.272507,135.303528 
	C147.674469,135.303528 155.656189,135.303528 164.394897,135.303528 
	C162.611923,138.467987 161.050598,141.239105 159.280212,144.321930 
z"/>
<path fill="#000000" opacity="1.000000" stroke="none" 
	d="
M158.722168,122.999985 
	C152.303192,123.000000 146.351776,123.000000 139.472183,123.000000 
	C143.712280,115.572289 147.596008,108.768890 152.052414,100.962257 
	C156.374054,108.480530 160.261642,115.243713 164.529922,122.669144 
	C162.277237,122.808701 160.733475,122.904335 158.722168,122.999985 
z"/>
</svg>
