<svg version="1.1" id="Layer_1" xmlns="http://www.w3.org/2000/svg" xmlns:xlink="http://www.w3.org/1999/xlink" x="0px" y="0px"
	 width="250" height="250" viewBox="0 0 129.996 130.238" enable-background="new 0 0 129.996 130.238"
	 xml:space="preserve">
<rect fill="#00538E" width="129.996" height="130.238"/>
<path fill="#FFFFFF" d="M78.611,96.076c0,9.138-7.175,12.953-15.451,12.688c-2.938-0.095-5.799-0.838-8.916-1.855l0.707-6.578
	c2.638,1.086,6.057,2.263,8.92,2.219c3.74-0.058,7.477-1.794,7.477-6.124c0-3.335-2.67-4.976-5.252-6.283
	c-5.709-2.896-12.275-4.907-12.275-12.998c0-7.65,6.084-11.64,13.625-11.64c2.741,0,6.014,0.477,9.299,1.641l-0.985,6.478
	c-3.577-1.403-5.14-1.901-8.078-1.901c-3.253,0-6.597,1.143-6.597,4.896c0,2.933,3.01,4.456,5.248,5.573
	C72.398,85.218,78.611,87.703,78.611,96.076"/>
<path fill="#FFFFFF" d="M44.561,106.8c-2.632,0.901-6.662,1.964-13.092,1.964c-13.195,0-22.027-8.529-22.027-21.805
	c0-12.882,9.375-21.455,22.086-21.455c6.036,0,8.727,0.896,12.541,2.212l-0.574,7.216c-3.51-2.294-6.498-3.211-11.674-3.211
	c-9.09,0-15.158,6.578-15.115,15.412c0.043,9.506,6.648,15.416,14.822,15.416c2.437,0,4.508-0.178,5.996-0.569V91.15h-7.861v-6.103
	h14.898V106.8"/>
<polyline fill="#FFFFFF" points="102.041,64.587 112.063,86.918 105.08,86.918 102.041,79.497 98.996,86.918 92.014,86.918 
	102.041,64.587 "/>
<polyline fill="#FFFFFF" points="112.178,87.179 121.507,108.029 114.176,108.029 107.203,91.839 112.178,87.179 "/>
<polyline fill="#FFFFFF" points="91.9,87.183 96.873,91.841 93.199,100.24 102.027,95.611 107.109,99.525 89.727,108.031 
	82.57,108.031 91.9,87.183 "/>
</svg>
