<svg width="156" height="105" viewBox="0 0 156 105" fill="none" xmlns="http://www.w3.org/2000/svg">
<path d="M104.266 15.1846L104.266 15.1851L104.266 15.1882L104.266 15.1887C104.265 15.2096 104.265 15.2305 104.266 15.2514V27.9887C104.266 28.0104 104.267 28.032 104.269 28.0533C104.204 29.0817 104.863 30.0125 105.97 30.6498L125.053 41.6454C126.111 42.2551 127.464 42.5447 128.789 42.5447C130.113 42.5447 131.467 42.2551 132.525 41.6454L151.608 30.6498C152.713 30.013 153.373 29.0831 153.308 28.0557C153.311 28.0337 153.313 28.0114 153.313 27.9887V15.1938C153.313 15.1822 153.312 15.1706 153.311 15.1591C153.284 14.2023 152.64 13.3558 151.608 12.7611L132.525 1.76554C131.467 1.15584 130.113 0.866248 128.789 0.866248C127.464 0.866248 126.111 1.15584 125.053 1.76554L105.97 12.7611C104.928 13.3611 104.282 14.2174 104.266 15.1846Z" fill="white"/>
<path d="M104.266 15.1846L104.266 15.1851L104.266 15.1882L104.266 15.1887C104.265 15.2096 104.265 15.2305 104.266 15.2514V27.9887C104.266 28.0104 104.267 28.032 104.269 28.0533C104.204 29.0817 104.863 30.0125 105.97 30.6498L125.053 41.6454C126.111 42.2551 127.464 42.5447 128.789 42.5447C130.113 42.5447 131.467 42.2551 132.525 41.6454L151.608 30.6498C152.713 30.013 153.373 29.0831 153.308 28.0557C153.311 28.0337 153.313 28.0114 153.313 27.9887V15.1938C153.313 15.1822 153.312 15.1706 153.311 15.1591C153.284 14.2023 152.64 13.3558 151.608 12.7611L132.525 1.76554C131.467 1.15584 130.113 0.866248 128.789 0.866248C127.464 0.866248 126.111 1.15584 125.053 1.76554L105.97 12.7611C104.928 13.3611 104.282 14.2174 104.266 15.1846Z" fill="url(#paint0_linear_3404_120639)"/>
<path d="M104.266 15.1846L104.266 15.1851L104.266 15.1882L104.266 15.1887C104.265 15.2096 104.265 15.2305 104.266 15.2514V27.9887C104.266 28.0104 104.267 28.032 104.269 28.0533C104.204 29.0817 104.863 30.0125 105.97 30.6498L125.053 41.6454C126.111 42.2551 127.464 42.5447 128.789 42.5447C130.113 42.5447 131.467 42.2551 132.525 41.6454L151.608 30.6498C152.713 30.013 153.373 29.0831 153.308 28.0557C153.311 28.0337 153.313 28.0114 153.313 27.9887V15.1938C153.313 15.1822 153.312 15.1706 153.311 15.1591C153.284 14.2023 152.64 13.3558 151.608 12.7611L132.525 1.76554C131.467 1.15584 130.113 0.866248 128.789 0.866248C127.464 0.866248 126.111 1.15584 125.053 1.76554L105.97 12.7611C104.928 13.3611 104.282 14.2174 104.266 15.1846Z" stroke="#1A194D" stroke-width="1.06624" stroke-linejoin="round"/>
<g opacity="0.2">
<path d="M124.377 14.3175L124.377 14.3177L124.377 14.3182L124.377 14.3184V14.33H124.377V18.6787C124.377 18.6823 124.377 18.6859 124.377 18.6895C124.367 18.9311 124.527 19.1219 124.723 19.2349L127.545 20.8612C127.737 20.9717 127.972 21.0193 128.192 21.0193C128.412 21.0193 128.646 20.9717 128.838 20.8612L131.66 19.2349C131.856 19.122 132.016 18.9315 132.006 18.6902C132.006 18.6864 132.007 18.6825 132.007 18.6787V14.3221H132.007L132.007 14.3175C132.003 14.0852 131.848 13.9077 131.66 13.7996L128.838 12.1733C128.646 12.0628 128.412 12.0152 128.192 12.0152C127.972 12.0152 127.737 12.0628 127.545 12.1733L124.723 13.7996C124.535 13.9078 124.381 14.0853 124.377 14.3175Z" fill="url(#paint1_linear_3404_120639)" stroke="#1A194D" stroke-width="0.53312" stroke-linejoin="round"/>
<path d="M128.838 12.1536C128.646 12.0431 128.412 11.9955 128.192 11.9955C127.972 11.9955 127.737 12.0431 127.545 12.1536L124.723 13.7799C124.533 13.8895 124.377 14.0705 124.377 14.3066C124.377 14.5427 124.533 14.7237 124.723 14.8332L127.545 16.4596C127.737 16.57 127.972 16.6176 128.192 16.6176C128.412 16.6176 128.646 16.57 128.838 16.4596L131.661 14.8332C131.851 14.7237 132.007 14.5427 132.007 14.3066C132.007 14.0705 131.851 13.8895 131.661 13.7799L128.838 12.1536Z" fill="white" stroke="#1A194D" stroke-width="0.53312" stroke-linejoin="round"/>
<path d="M119.111 17.2934L119.111 17.2937L119.111 17.2941L119.111 17.2944V17.306H119.111V21.6546C119.111 21.6582 119.111 21.6618 119.111 21.6654C119.101 21.907 119.261 22.0978 119.457 22.2108L122.279 23.8372C122.471 23.9476 122.706 23.9952 122.926 23.9952C123.146 23.9952 123.38 23.9476 123.572 23.8372L126.395 22.2108C126.59 22.0979 126.75 21.9074 126.74 21.6662C126.741 21.6623 126.741 21.6585 126.741 21.6546V17.298H126.741L126.741 17.2934C126.737 17.0611 126.582 16.8837 126.395 16.7756L123.572 15.1493C123.38 15.0388 123.146 14.9912 122.926 14.9912C122.706 14.9912 122.471 15.0388 122.279 15.1493L119.457 16.7756C119.269 16.8837 119.115 17.0612 119.111 17.2934Z" fill="url(#paint2_linear_3404_120639)" stroke="#1A194D" stroke-width="0.53312" stroke-linejoin="round"/>
<path d="M123.572 15.1296C123.38 15.0191 123.146 14.9715 122.926 14.9715C122.706 14.9715 122.471 15.0191 122.279 15.1296L119.457 16.7559C119.267 16.8655 119.111 17.0465 119.111 17.2826C119.111 17.5187 119.267 17.6997 119.457 17.8093L122.279 19.4356C122.471 19.5461 122.706 19.5937 122.926 19.5937C123.146 19.5937 123.38 19.5461 123.572 19.4356L126.395 17.8093C126.585 17.6997 126.741 17.5187 126.741 17.2826C126.741 17.0465 126.585 16.8655 126.395 16.7559L123.572 15.1296Z" fill="white" stroke="#1A194D" stroke-width="0.53312" stroke-linejoin="round"/>
<path d="M129.642 17.0643L129.642 17.0646L129.642 17.065L129.642 17.0653V17.0769H129.642V21.4255C129.642 21.4291 129.642 21.4327 129.642 21.4363C129.632 21.6779 129.792 21.8687 129.988 21.9817L132.811 23.608C133.002 23.7185 133.237 23.7661 133.457 23.7661C133.677 23.7661 133.912 23.7185 134.103 23.608L136.926 21.9817C137.122 21.8688 137.281 21.6783 137.272 21.4371C137.272 21.4332 137.272 21.4294 137.272 21.4255V17.0689H137.272L137.272 17.0643C137.268 16.832 137.113 16.6546 136.926 16.5465L134.103 14.9201C133.912 14.8097 133.677 14.7621 133.457 14.7621C133.237 14.7621 133.002 14.8097 132.811 14.9201L129.988 16.5465C129.8 16.6546 129.646 16.8321 129.642 17.0643Z" fill="url(#paint3_linear_3404_120639)" stroke="#1A194D" stroke-width="0.53312" stroke-linejoin="round"/>
<path d="M134.103 14.9005C133.912 14.7901 133.677 14.7425 133.457 14.7425C133.237 14.7425 133.002 14.7901 132.811 14.9005L129.988 16.5269C129.798 16.6364 129.642 16.8174 129.642 17.0535C129.642 17.2896 129.798 17.4706 129.988 17.5802L132.811 19.2065C133.002 19.317 133.237 19.3646 133.457 19.3646C133.677 19.3646 133.912 19.317 134.103 19.2065L136.926 17.5802C137.116 17.4706 137.272 17.2896 137.272 17.0535C137.272 16.8174 137.116 16.6364 136.926 16.5269L134.103 14.9005Z" fill="white" stroke="#1A194D" stroke-width="0.53312" stroke-linejoin="round"/>
<path d="M124.377 20.0406L124.377 20.0409L124.377 20.0413L124.377 20.0416V20.0532H124.377V24.4018C124.377 24.4054 124.377 24.409 124.377 24.4126C124.367 24.6542 124.527 24.845 124.723 24.958L127.545 26.5844C127.737 26.6948 127.972 26.7424 128.192 26.7424C128.412 26.7424 128.646 26.6948 128.838 26.5844L131.66 24.958C131.856 24.8452 132.016 24.6546 132.006 24.4134C132.006 24.4096 132.007 24.4057 132.007 24.4018V20.0452H132.007L132.007 20.0406C132.003 19.8083 131.848 19.6309 131.66 19.5228L128.838 17.8965C128.646 17.786 128.412 17.7384 128.192 17.7384C127.972 17.7384 127.737 17.786 127.545 17.8965L124.723 19.5228C124.535 19.6309 124.381 19.8084 124.377 20.0406Z" fill="url(#paint4_linear_3404_120639)" stroke="#1A194D" stroke-width="0.53312" stroke-linejoin="round"/>
<path d="M128.838 17.8768C128.646 17.7663 128.412 17.7187 128.192 17.7187C127.972 17.7187 127.737 17.7663 127.545 17.8768L124.723 19.5031C124.533 19.6127 124.377 19.7937 124.377 20.0298C124.377 20.2659 124.533 20.4469 124.723 20.5564L127.545 22.1828C127.737 22.2932 127.972 22.3408 128.192 22.3408C128.412 22.3408 128.646 22.2932 128.838 22.1828L131.661 20.5564C131.851 20.4469 132.007 20.2659 132.007 20.0298C132.007 19.7937 131.851 19.6127 131.661 19.5031L128.838 17.8768Z" fill="white" stroke="#1A194D" stroke-width="0.53312" stroke-linejoin="round"/>
<path d="M135.676 20.1932L135.676 20.1935L135.676 20.1939L135.676 20.1942V20.2058H135.676V24.5544C135.676 24.558 135.676 24.5616 135.676 24.5652C135.666 24.8068 135.826 24.9976 136.022 25.1106L138.844 26.737C139.036 26.8474 139.27 26.895 139.49 26.895C139.711 26.895 139.945 26.8474 140.137 26.737L142.959 25.1106C143.155 24.9978 143.315 24.8072 143.305 24.566C143.305 24.5622 143.305 24.5583 143.305 24.5544V20.1978H143.305L143.305 20.1932C143.301 19.961 143.147 19.7835 142.959 19.6754L140.137 18.0491C139.945 17.9386 139.711 17.891 139.49 17.891C139.27 17.891 139.036 17.9386 138.844 18.0491L136.022 19.6754C135.834 19.7835 135.68 19.961 135.676 20.1932Z" fill="url(#paint5_linear_3404_120639)" stroke="#1A194D" stroke-width="0.53312" stroke-linejoin="round"/>
<path d="M140.137 18.0293C139.945 17.9188 139.711 17.8712 139.491 17.8712C139.271 17.8712 139.036 17.9188 138.844 18.0293L136.022 19.6556C135.832 19.7652 135.676 19.9462 135.676 20.1823C135.676 20.4184 135.832 20.5994 136.022 20.709L138.844 22.3353C139.036 22.4458 139.271 22.4934 139.491 22.4934C139.711 22.4934 139.945 22.4458 140.137 22.3353L142.959 20.709C143.15 20.5994 143.305 20.4184 143.305 20.1823C143.305 19.9462 143.15 19.7652 142.959 19.6556L140.137 18.0293Z" fill="white" stroke="#1A194D" stroke-width="0.53312" stroke-linejoin="round"/>
<path d="M130.411 23.1691L130.411 23.1693L130.411 23.1698L130.411 23.17V23.1816H130.411V27.5302C130.411 27.5339 130.411 27.5375 130.411 27.5411C130.401 27.7827 130.561 27.9735 130.757 28.0865L133.58 29.7128C133.771 29.8233 134.006 29.8709 134.226 29.8709C134.446 29.8709 134.68 29.8233 134.872 29.7128L137.695 28.0865C137.891 27.9736 138.05 27.7831 138.041 27.5418C138.041 27.538 138.041 27.5341 138.041 27.5302V23.1737H138.041L138.041 23.1691C138.037 22.9368 137.882 22.7593 137.695 22.6512L134.872 21.0249C134.68 20.9144 134.446 20.8668 134.226 20.8668C134.006 20.8668 133.771 20.9144 133.58 21.0249L130.757 22.6512C130.569 22.7594 130.415 22.9369 130.411 23.1691Z" fill="url(#paint6_linear_3404_120639)" stroke="#1A194D" stroke-width="0.53312" stroke-linejoin="round"/>
<path d="M134.872 21.0052C134.68 20.8948 134.446 20.8471 134.226 20.8471C134.006 20.8471 133.771 20.8948 133.58 21.0052L130.757 22.6315C130.567 22.7411 130.411 22.9221 130.411 23.1582C130.411 23.3943 130.567 23.5753 130.757 23.6849L133.58 25.3112C133.771 25.4217 134.006 25.4693 134.226 25.4693C134.446 25.4693 134.68 25.4217 134.872 25.3112L137.695 23.6849C137.885 23.5753 138.041 23.3943 138.041 23.1582C138.041 22.9221 137.885 22.7411 137.695 22.6315L134.872 21.0052Z" fill="white" stroke="#1A194D" stroke-width="0.53312" stroke-linejoin="round"/>
<path d="M140.941 22.9403L140.941 22.9405L140.941 22.941L140.941 22.9412V22.9528H140.941V27.3015C140.941 27.3051 140.941 27.3087 140.941 27.3123C140.932 27.5539 141.091 27.7447 141.287 27.8577L144.11 29.484C144.302 29.5945 144.536 29.6421 144.756 29.6421C144.976 29.6421 145.211 29.5945 145.402 29.484L148.225 27.8577C148.421 27.7448 148.58 27.5543 148.571 27.313C148.571 27.3092 148.571 27.3054 148.571 27.3015V22.9449H148.571L148.571 22.9403C148.567 22.708 148.413 22.5305 148.225 22.4224L145.402 20.7961C145.211 20.6856 144.976 20.638 144.756 20.638C144.536 20.638 144.302 20.6856 144.11 20.7961L141.287 22.4224C141.1 22.5306 140.945 22.7081 140.941 22.9403Z" fill="url(#paint7_linear_3404_120639)" stroke="#1A194D" stroke-width="0.53312" stroke-linejoin="round"/>
<path d="M145.402 20.7765C145.211 20.666 144.976 20.6184 144.756 20.6184C144.536 20.6184 144.302 20.666 144.11 20.7765L141.287 22.4028C141.097 22.5124 140.941 22.6934 140.941 22.9295C140.941 23.1656 141.097 23.3466 141.287 23.4561L144.11 25.0824C144.302 25.1929 144.536 25.2405 144.756 25.2405C144.976 25.2405 145.211 25.1929 145.402 25.0824L148.225 23.4561C148.415 23.3466 148.571 23.1656 148.571 22.9295C148.571 22.6934 148.415 22.5124 148.225 22.4028L145.402 20.7765Z" fill="white" stroke="#1A194D" stroke-width="0.53312" stroke-linejoin="round"/>
<path d="M135.676 25.9164L135.676 25.9166L135.676 25.9171L135.676 25.9173V25.9289H135.676V30.2776C135.676 30.2812 135.676 30.2848 135.676 30.2884C135.666 30.53 135.826 30.7208 136.022 30.8338L138.844 32.4601C139.036 32.5706 139.27 32.6182 139.49 32.6182C139.711 32.6182 139.945 32.5706 140.137 32.4601L142.959 30.8338C143.155 30.7209 143.315 30.5304 143.305 30.2891C143.305 30.2853 143.305 30.2814 143.305 30.2776V25.921H143.305L143.305 25.9164C143.301 25.6841 143.147 25.5066 142.959 25.3985L140.137 23.7722C139.945 23.6617 139.711 23.6141 139.49 23.6141C139.27 23.6141 139.036 23.6617 138.844 23.7722L136.022 25.3985C135.834 25.5067 135.68 25.6842 135.676 25.9164Z" fill="url(#paint8_linear_3404_120639)" stroke="#1A194D" stroke-width="0.53312" stroke-linejoin="round"/>
<path d="M140.137 23.7525C139.945 23.642 139.711 23.5944 139.491 23.5944C139.271 23.5944 139.036 23.642 138.844 23.7525L136.022 25.3788C135.832 25.4884 135.676 25.6694 135.676 25.9055C135.676 26.1416 135.832 26.3226 136.022 26.4322L138.844 28.0585C139.036 28.1689 139.271 28.2166 139.491 28.2166C139.711 28.2166 139.945 28.1689 140.137 28.0585L142.959 26.4322C143.15 26.3226 143.305 26.1416 143.305 25.9055C143.305 25.6694 143.15 25.4884 142.959 25.3788L140.137 23.7525Z" fill="white" stroke="#1A194D" stroke-width="0.53312" stroke-linejoin="round"/>
<path d="M113.529 20.6453L113.529 20.6456L113.529 20.646L113.529 20.6463V20.6579H113.529V25.0065C113.529 25.0101 113.529 25.0137 113.529 25.0173C113.519 25.2589 113.679 25.4497 113.875 25.5627L116.697 27.1891C116.889 27.2995 117.124 27.3471 117.344 27.3471C117.564 27.3471 117.798 27.2995 117.99 27.1891L120.813 25.5627C121.008 25.4498 121.168 25.2593 121.158 25.0181C121.159 25.0142 121.159 25.0104 121.159 25.0065V20.6499H121.159L121.159 20.6453C121.155 20.413 121 20.2356 120.813 20.1275L117.99 18.5012C117.798 18.3907 117.564 18.3431 117.344 18.3431C117.124 18.3431 116.889 18.3907 116.697 18.5012L113.875 20.1275C113.687 20.2356 113.533 20.4131 113.529 20.6453Z" fill="url(#paint9_linear_3404_120639)" stroke="#1A194D" stroke-width="0.53312" stroke-linejoin="round"/>
<path d="M117.99 18.4815C117.798 18.371 117.564 18.3234 117.344 18.3234C117.124 18.3234 116.889 18.371 116.697 18.4815L113.875 20.1078C113.685 20.2174 113.529 20.3984 113.529 20.6345C113.529 20.8706 113.685 21.0516 113.875 21.1611L116.697 22.7874C116.889 22.8979 117.124 22.9455 117.344 22.9455C117.564 22.9455 117.798 22.8979 117.99 22.7874L120.813 21.1611C121.003 21.0516 121.159 20.8706 121.159 20.6345C121.159 20.3984 121.003 20.2174 120.813 20.1078L117.99 18.4815Z" fill="white" stroke="#1A194D" stroke-width="0.53312" stroke-linejoin="round"/>
<path d="M108.263 23.6212L108.263 23.6214L108.263 23.6219L108.263 23.6221V23.6337H108.263V27.9824C108.263 27.986 108.263 27.9896 108.263 27.9932C108.254 28.2348 108.413 28.4256 108.609 28.5386L111.432 30.1649C111.624 30.2754 111.858 30.323 112.078 30.323C112.298 30.323 112.533 30.2754 112.724 30.1649L115.547 28.5386C115.743 28.4257 115.902 28.2352 115.893 27.9939C115.893 27.9901 115.893 27.9862 115.893 27.9824V23.6258H115.893L115.893 23.6212C115.889 23.3889 115.735 23.2114 115.547 23.1033L112.724 21.477C112.533 21.3665 112.298 21.3189 112.078 21.3189C111.858 21.3189 111.624 21.3665 111.432 21.477L108.609 23.1033C108.422 23.2115 108.267 23.389 108.263 23.6212Z" fill="url(#paint10_linear_3404_120639)" stroke="#1A194D" stroke-width="0.53312" stroke-linejoin="round"/>
<path d="M112.724 21.4573C112.533 21.3469 112.298 21.2993 112.078 21.2993C111.858 21.2993 111.624 21.3469 111.432 21.4573L108.609 23.0837C108.419 23.1932 108.263 23.3742 108.263 23.6103C108.263 23.8464 108.419 24.0274 108.609 24.137L111.432 25.7633C111.624 25.8738 111.858 25.9214 112.078 25.9214C112.298 25.9214 112.533 25.8738 112.724 25.7633L115.547 24.137C115.737 24.0274 115.893 23.8464 115.893 23.6103C115.893 23.3742 115.737 23.1932 115.547 23.0837L112.724 21.4573Z" fill="white" stroke="#1A194D" stroke-width="0.53312" stroke-linejoin="round"/>
<path d="M118.794 23.3922L118.794 23.3924L118.794 23.3929L118.794 23.3932V23.4047H118.794V27.7534C118.794 27.757 118.794 27.7606 118.794 27.7642C118.784 28.0058 118.944 28.1966 119.14 28.3096L121.963 29.9359C122.154 30.0464 122.389 30.094 122.609 30.094C122.829 30.094 123.064 30.0464 123.255 29.9359L126.078 28.3096C126.274 28.1967 126.433 28.0062 126.424 27.765C126.424 27.7611 126.424 27.7573 126.424 27.7534V23.3968H126.424L126.424 23.3922C126.42 23.1599 126.265 22.9824 126.078 22.8743L123.255 21.248C123.064 21.1376 122.829 21.0899 122.609 21.0899C122.389 21.0899 122.154 21.1376 121.963 21.248L119.14 22.8743C118.952 22.9825 118.798 23.16 118.794 23.3922Z" fill="url(#paint11_linear_3404_120639)" stroke="#1A194D" stroke-width="0.53312" stroke-linejoin="round"/>
<path d="M123.255 21.2284C123.063 21.1179 122.829 21.0703 122.609 21.0703C122.389 21.0703 122.154 21.1179 121.963 21.2284L119.14 22.8547C118.95 22.9643 118.794 23.1453 118.794 23.3814C118.794 23.6174 118.95 23.7984 119.14 23.908L121.963 25.5343C122.154 25.6448 122.389 25.6924 122.609 25.6924C122.829 25.6924 123.063 25.6448 123.255 25.5343L126.078 23.908C126.268 23.7984 126.424 23.6174 126.424 23.3814C126.424 23.1453 126.268 22.9643 126.078 22.8547L123.255 21.2284Z" fill="white" stroke="#1A194D" stroke-width="0.53312" stroke-linejoin="round"/>
<path d="M113.529 26.3684L113.529 26.3686L113.529 26.3691L113.529 26.3694V26.381H113.529V30.7296C113.529 30.7332 113.529 30.7368 113.529 30.7404C113.519 30.982 113.679 31.1728 113.875 31.2858L116.697 32.9121C116.889 33.0226 117.124 33.0702 117.344 33.0702C117.564 33.0702 117.798 33.0226 117.99 32.9121L120.813 31.2858C121.008 31.1729 121.168 30.9824 121.158 30.7412C121.159 30.7373 121.159 30.7335 121.159 30.7296V26.373H121.159L121.159 26.3684C121.155 26.1361 121 25.9587 120.813 25.8506L117.99 24.2242C117.798 24.1138 117.564 24.0662 117.344 24.0662C117.124 24.0662 116.889 24.1138 116.697 24.2242L113.875 25.8506C113.687 25.9587 113.533 26.1362 113.529 26.3684Z" fill="url(#paint12_linear_3404_120639)" stroke="#1A194D" stroke-width="0.53312" stroke-linejoin="round"/>
<path d="M117.99 24.2045C117.798 24.0941 117.564 24.0465 117.344 24.0465C117.124 24.0465 116.889 24.0941 116.697 24.2045L113.875 25.8309C113.685 25.9404 113.529 26.1214 113.529 26.3575C113.529 26.5936 113.685 26.7746 113.875 26.8842L116.697 28.5105C116.889 28.621 117.124 28.6686 117.344 28.6686C117.564 28.6686 117.798 28.621 117.99 28.5105L120.813 26.8842C121.003 26.7746 121.159 26.5936 121.159 26.3575C121.159 26.1214 121.003 25.9404 120.813 25.8309L117.99 24.2045Z" fill="white" stroke="#1A194D" stroke-width="0.53312" stroke-linejoin="round"/>
<path d="M124.828 26.521L124.828 26.5213L124.828 26.5217L124.828 26.522V26.5336H124.828V30.8822C124.828 30.8858 124.828 30.8894 124.828 30.893C124.818 31.1346 124.978 31.3254 125.174 31.4384L127.997 33.0647C128.188 33.1752 128.423 33.2228 128.643 33.2228C128.863 33.2228 129.097 33.1752 129.289 33.0647L132.112 31.4384C132.308 31.3255 132.467 31.135 132.458 30.8938C132.458 30.8899 132.458 30.8861 132.458 30.8822V26.5256H132.458L132.458 26.521C132.454 26.2887 132.299 26.1113 132.112 26.0032L129.289 24.3768C129.097 24.2664 128.863 24.2188 128.643 24.2188C128.423 24.2188 128.188 24.2664 127.997 24.3768L125.174 26.0032C124.986 26.1113 124.832 26.2888 124.828 26.521Z" fill="url(#paint13_linear_3404_120639)" stroke="#1A194D" stroke-width="0.53312" stroke-linejoin="round"/>
<path d="M129.289 24.3571C129.097 24.2467 128.863 24.199 128.643 24.199C128.423 24.199 128.188 24.2467 127.997 24.3571L125.174 25.9834C124.984 26.093 124.828 26.274 124.828 26.5101C124.828 26.7462 124.984 26.9272 125.174 27.0368L127.997 28.6631C128.188 28.7736 128.423 28.8212 128.643 28.8212C128.863 28.8212 129.097 28.7736 129.289 28.6631L132.112 27.0368C132.302 26.9272 132.458 26.7462 132.458 26.5101C132.458 26.274 132.302 26.093 132.112 25.9834L129.289 24.3571Z" fill="white" stroke="#1A194D" stroke-width="0.53312" stroke-linejoin="round"/>
<path d="M119.563 29.4969L119.563 29.4972L119.563 29.4976L119.563 29.4979V29.5095H119.563V33.8581C119.563 33.8617 119.563 33.8653 119.564 33.8689C119.554 34.1105 119.713 34.3013 119.909 34.4143L122.732 36.0406C122.924 36.1511 123.158 36.1987 123.378 36.1987C123.598 36.1987 123.833 36.1511 124.025 36.0406L126.847 34.4143C127.043 34.3014 127.202 34.1109 127.193 33.8697C127.193 33.8658 127.193 33.862 127.193 33.8581V29.5015H127.193L127.193 29.4969C127.189 29.2646 127.035 29.0872 126.847 28.9791L124.025 27.3527C123.833 27.2423 123.598 27.1947 123.378 27.1947C123.158 27.1947 122.924 27.2423 122.732 27.3527L119.909 28.9791C119.722 29.0872 119.567 29.2647 119.563 29.4969Z" fill="url(#paint14_linear_3404_120639)" stroke="#1A194D" stroke-width="0.53312" stroke-linejoin="round"/>
<path d="M124.025 27.3331C123.833 27.2226 123.598 27.175 123.378 27.175C123.158 27.175 122.924 27.2226 122.732 27.3331L119.909 28.9594C119.719 29.069 119.563 29.25 119.563 29.4861C119.563 29.7222 119.719 29.9032 119.909 30.0127L122.732 31.6391C122.924 31.7495 123.158 31.7971 123.378 31.7971C123.598 31.7971 123.833 31.7495 124.025 31.6391L126.847 30.0127C127.037 29.9032 127.193 29.7222 127.193 29.4861C127.193 29.25 127.037 29.069 126.847 28.9594L124.025 27.3331Z" fill="white" stroke="#1A194D" stroke-width="0.53312" stroke-linejoin="round"/>
<path d="M130.093 29.2681L130.093 29.2683L130.093 29.2688L130.093 29.269V29.2806H130.093V33.6293C130.093 33.6329 130.093 33.6365 130.093 33.6401C130.084 33.8817 130.243 34.0725 130.439 34.1855L133.262 35.8118C133.454 35.9223 133.688 35.9699 133.908 35.9699C134.128 35.9699 134.363 35.9223 134.554 35.8118L137.377 34.1855C137.573 34.0726 137.732 33.8821 137.723 33.6408C137.723 33.637 137.723 33.6331 137.723 33.6293V29.2727H137.723L137.723 29.2681C137.719 29.0358 137.565 28.8583 137.377 28.7502L134.554 27.1239C134.363 27.0134 134.128 26.9658 133.908 26.9658C133.688 26.9658 133.454 27.0134 133.262 27.1239L130.439 28.7502C130.252 28.8584 130.097 29.0359 130.093 29.2681Z" fill="url(#paint15_linear_3404_120639)" stroke="#1A194D" stroke-width="0.53312" stroke-linejoin="round"/>
<path d="M134.554 27.1041C134.363 26.9937 134.128 26.9461 133.908 26.9461C133.688 26.9461 133.454 26.9937 133.262 27.1041L130.439 28.7305C130.249 28.84 130.093 29.021 130.093 29.2571C130.093 29.4932 130.249 29.6742 130.439 29.7838L133.262 31.4101C133.454 31.5206 133.688 31.5682 133.908 31.5682C134.128 31.5682 134.363 31.5206 134.554 31.4101L137.377 29.7838C137.567 29.6742 137.723 29.4932 137.723 29.2571C137.723 29.021 137.567 28.84 137.377 28.7305L134.554 27.1041Z" fill="white" stroke="#1A194D" stroke-width="0.53312" stroke-linejoin="round"/>
<path d="M124.828 32.244L124.828 32.2443L124.828 32.2447L124.828 32.245V32.2566H124.828V36.6052C124.828 36.6088 124.828 36.6124 124.828 36.616C124.818 36.8576 124.978 37.0484 125.174 37.1614L127.997 38.7878C128.188 38.8982 128.423 38.9458 128.643 38.9458C128.863 38.9458 129.097 38.8982 129.289 38.7878L132.112 37.1614C132.308 37.0486 132.467 36.858 132.458 36.6168C132.458 36.613 132.458 36.6091 132.458 36.6052V32.2486H132.458L132.458 32.244C132.454 32.0117 132.299 31.8343 132.112 31.7262L129.289 30.0999C129.097 29.9894 128.863 29.9418 128.643 29.9418C128.423 29.9418 128.188 29.9894 127.997 30.0999L125.174 31.7262C124.986 31.8343 124.832 32.0118 124.828 32.244Z" fill="url(#paint16_linear_3404_120639)" stroke="#1A194D" stroke-width="0.53312" stroke-linejoin="round"/>
<path d="M129.289 30.0802C129.097 29.9697 128.863 29.9221 128.643 29.9221C128.423 29.9221 128.188 29.9697 127.997 30.0802L125.174 31.7065C124.984 31.8161 124.828 31.9971 124.828 32.2332C124.828 32.4693 124.984 32.6503 125.174 32.7598L127.997 34.3861C128.188 34.4966 128.423 34.5442 128.643 34.5442C128.863 34.5442 129.097 34.4966 129.289 34.3861L132.112 32.7598C132.302 32.6503 132.458 32.4693 132.458 32.2332C132.458 31.9971 132.302 31.8161 132.112 31.7065L129.289 30.0802Z" fill="white" stroke="#1A194D" stroke-width="0.53312" stroke-linejoin="round"/>
</g>
<path d="M132.525 1.63243C131.467 1.02273 130.113 0.733146 128.789 0.733146C127.464 0.733146 126.111 1.02273 125.053 1.63243L105.97 12.628C104.914 13.2359 104.265 14.1075 104.265 15.0892C104.265 16.0709 104.914 16.9424 105.97 17.5503L125.053 28.5459C126.111 29.1556 127.464 29.4452 128.789 29.4452C130.113 29.4452 131.467 29.1556 132.525 28.5459L151.608 17.5503C152.663 16.9424 153.312 16.0709 153.312 15.0892C153.312 14.1075 152.663 13.2359 151.608 12.628L132.525 1.63243Z" fill="white" stroke="#1A194D" stroke-width="1.06624" stroke-linejoin="round"/>
<path d="M136.849 13.5928L126.825 19.3804C125.703 20.028 125.851 20.8349 126.67 21.3081C127.429 21.7459 128.794 21.9205 130.009 21.2189L139.958 15.4752C140.986 14.8815 140.87 14.0728 140.036 13.5913C139.202 13.1098 137.736 13.0811 136.849 13.5928Z" fill="#F9AB00"/>
<path d="M127.591 14.1229L122.655 16.9728C121.533 17.6204 121.681 18.4273 122.5 18.9005C123.259 19.3383 124.624 19.5129 125.839 18.8114L130.7 16.0052C131.728 15.4116 131.612 14.6029 130.778 14.1214C129.944 13.6399 128.477 13.6112 127.591 14.1229Z" fill="#E37400"/>
<path d="M118.33 16.4929C119.21 17.0006 120.637 17 121.517 16.4915C122.398 15.9829 122.399 15.1591 121.52 14.6514C120.641 14.1437 119.214 14.1444 118.333 14.6529C117.452 15.1614 117.451 15.9853 118.33 16.4929Z" fill="#E37400"/>
<g clip-path="url(#clip0_3404_120639)">
<path d="M128.715 3.93215C129.62 3.96088 130.505 4.09744 131.314 4.33323C131.27 4.55965 131.315 4.78888 131.446 5.00389C131.576 5.2189 131.789 5.41415 132.069 5.57513C132.347 5.73637 132.686 5.85925 133.058 5.93463C133.43 6.01002 133.827 6.03598 134.22 6.01057C134.628 6.47777 134.865 6.98872 134.914 7.51126C134.553 7.60252 134.232 7.7396 133.975 7.9123C133.718 8.085 133.532 8.2889 133.43 8.50886C133.328 8.72891 133.312 8.95948 133.385 9.18341C133.458 9.40735 133.618 9.61888 133.852 9.8023C133.355 10.2397 132.708 10.6135 131.95 10.9003C131.328 10.6367 130.514 10.5325 129.71 10.6565C129.329 10.7153 128.976 10.8229 128.677 10.9713C128.377 11.1197 128.14 11.3051 127.982 11.5137C127.077 11.4849 126.192 11.3482 125.383 11.1124C125.427 10.886 125.382 10.6568 125.251 10.4418C125.121 10.2269 124.908 10.0317 124.628 9.87075C124.35 9.70951 124.011 9.58663 123.639 9.51125C123.267 9.43586 122.869 9.4099 122.477 9.43531C122.069 8.96821 121.832 8.45736 121.782 7.93489C122.144 7.84363 122.465 7.70653 122.722 7.53378C122.979 7.36103 123.165 7.15706 123.267 6.93702C123.369 6.71699 123.384 6.48646 123.311 6.26258C123.238 6.03869 123.078 5.82721 122.844 5.64385C123.341 5.20629 123.989 4.83244 124.746 4.54558C125.064 4.68081 125.431 4.77296 125.818 4.81516C126.206 4.85736 126.606 4.84854 126.987 4.78934C127.368 4.73059 127.721 4.62304 128.02 4.47469C128.319 4.32634 128.557 4.141 128.715 3.93242L128.715 3.93215ZM127.838 8.82296C128.089 8.86279 128.351 8.87359 128.609 8.85472C128.867 8.83585 129.116 8.7877 129.342 8.71302C129.568 8.63835 129.766 8.53863 129.924 8.41961C130.083 8.3006 130.2 8.16463 130.267 8.01954C130.334 7.87445 130.351 7.7231 130.317 7.57421C130.282 7.42532 130.197 7.28182 130.067 7.15199C129.936 7.02216 129.762 6.90855 129.554 6.8177C129.347 6.72686 129.111 6.66057 128.859 6.62266C128.355 6.54675 127.82 6.58903 127.369 6.74028C126.919 6.89153 126.591 7.13947 126.456 7.42999C126.321 7.72051 126.391 8.03002 126.65 8.29099C126.909 8.55196 127.336 8.74319 127.838 8.82296Z" fill="#1A194D"/>
</g>
<path d="M101.982 28.6491L96.6962 31.7007L108.291 32.6968L110.097 39.7031L115.383 36.6515L113.577 29.6453L101.982 28.6491Z" fill="url(#paint17_linear_3404_120639)"/>
<path d="M93.9144 33.3067L88.629 36.3583L100.224 37.3544L102.03 44.3607L107.315 41.3091L105.51 34.3029L93.9144 33.3067Z" fill="url(#paint18_linear_3404_120639)"/>
<g opacity="0.6">
<path d="M52.666 45.9845L52.666 45.9851L52.6659 45.9882L52.6659 45.9887C52.6656 46.0096 52.6656 46.0304 52.6659 46.0513V58.7887C52.6659 58.8104 52.6672 58.8319 52.6698 58.8532C52.6041 59.8816 53.2638 60.8124 54.3698 61.4497L73.4533 72.4453C74.5115 73.055 75.8648 73.3446 77.1892 73.3446C78.5136 73.3446 79.8669 73.055 80.9251 72.4453L100.009 61.4497C101.114 60.8129 101.773 59.8831 101.709 58.8556C101.711 58.8337 101.713 58.8113 101.713 58.7887V45.9938C101.713 45.9821 101.713 45.9705 101.712 45.959C101.684 45.0023 101.041 44.1558 100.009 43.5611L80.9251 32.5655C79.8669 31.9558 78.5136 31.6662 77.1892 31.6662C75.8648 31.6662 74.5115 31.9558 73.4533 32.5655L54.3698 43.5611C53.3286 44.1611 52.6828 45.0173 52.666 45.9845Z" fill="white"/>
<path d="M52.666 45.9845L52.666 45.9851L52.6659 45.9882L52.6659 45.9887C52.6656 46.0096 52.6656 46.0304 52.6659 46.0513V58.7887C52.6659 58.8104 52.6672 58.8319 52.6698 58.8532C52.6041 59.8816 53.2638 60.8124 54.3698 61.4497L73.4533 72.4453C74.5115 73.055 75.8648 73.3446 77.1892 73.3446C78.5136 73.3446 79.8669 73.055 80.9251 72.4453L100.009 61.4497C101.114 60.8129 101.773 59.8831 101.709 58.8556C101.711 58.8337 101.713 58.8113 101.713 58.7887V45.9938C101.713 45.9821 101.713 45.9705 101.712 45.959C101.684 45.0023 101.041 44.1558 100.009 43.5611L80.9251 32.5655C79.8669 31.9558 78.5136 31.6662 77.1892 31.6662C75.8648 31.6662 74.5115 31.9558 73.4533 32.5655L54.3698 43.5611C53.3286 44.1611 52.6828 45.0173 52.666 45.9845Z" fill="url(#paint19_linear_3404_120639)"/>
<path d="M52.666 45.9845L52.666 45.9851L52.6659 45.9882L52.6659 45.9887C52.6656 46.0096 52.6656 46.0304 52.6659 46.0513V58.7887C52.6659 58.8104 52.6672 58.8319 52.6698 58.8532C52.6041 59.8816 53.2638 60.8124 54.3698 61.4497L73.4533 72.4453C74.5115 73.055 75.8648 73.3446 77.1892 73.3446C78.5136 73.3446 79.8669 73.055 80.9251 72.4453L100.009 61.4497C101.114 60.8129 101.773 59.8831 101.709 58.8556C101.711 58.8337 101.713 58.8113 101.713 58.7887V45.9938C101.713 45.9821 101.713 45.9705 101.712 45.959C101.684 45.0023 101.041 44.1558 100.009 43.5611L80.9251 32.5655C79.8669 31.9558 78.5136 31.6662 77.1892 31.6662C75.8648 31.6662 74.5115 31.9558 73.4533 32.5655L54.3698 43.5611C53.3286 44.1611 52.6828 45.0173 52.666 45.9845Z" stroke="#1A194D" stroke-width="1.06624" stroke-linejoin="round"/>
<path d="M80.9251 32.4325C79.8669 31.8228 78.5136 31.5332 77.1892 31.5332C75.8648 31.5332 74.5115 31.8228 73.4533 32.4325L54.3698 43.4281C53.3148 44.0359 52.6657 44.9075 52.6657 45.8892C52.6657 46.8709 53.3148 47.7424 54.3698 48.3503L73.4533 59.3459C74.5115 59.9556 75.8648 60.2452 77.1892 60.2452C78.5136 60.2452 79.8669 59.9556 80.9251 59.3459L100.009 48.3503C101.064 47.7424 101.713 46.8709 101.713 45.8892C101.713 44.9075 101.064 44.0359 100.009 43.4281L80.9251 32.4325Z" fill="white" stroke="#1A194D" stroke-width="1.06624" stroke-linejoin="round"/>
<g opacity="0.2">
<path d="M72.7776 45.1174L72.7775 45.1177L72.7775 45.1181L72.7775 45.1184V45.13H72.7775V49.4786C72.7775 49.4822 72.7776 49.4858 72.7777 49.4894C72.7679 49.731 72.9274 49.9218 73.1235 50.0348L75.9461 51.6611C76.1378 51.7716 76.3723 51.8192 76.5924 51.8192C76.8124 51.8192 77.0469 51.7716 77.2387 51.6611L80.0612 50.0348C80.2571 49.9219 80.4166 49.7314 80.4071 49.4902C80.4072 49.4863 80.4073 49.4825 80.4073 49.4786V45.122H80.4073L80.4073 45.1174C80.4032 44.8851 80.2488 44.7077 80.0612 44.5996L77.2387 42.9732C77.0469 42.8628 76.8124 42.8152 76.5924 42.8152C76.3723 42.8152 76.1378 42.8628 75.9461 42.9732L73.1235 44.5996C72.9358 44.7077 72.7816 44.8852 72.7776 45.1174Z" fill="url(#paint20_linear_3404_120639)" stroke="#1A194D" stroke-width="0.53312" stroke-linejoin="round"/>
<path d="M77.2387 42.9536C77.047 42.8431 76.8125 42.7955 76.5925 42.7955C76.3724 42.7955 76.1379 42.8431 75.9462 42.9536L73.1236 44.5799C72.9335 44.6895 72.7776 44.8705 72.7776 45.1066C72.7776 45.3426 72.9335 45.5237 73.1236 45.6332L75.9462 47.2595C76.1379 47.37 76.3724 47.4176 76.5925 47.4176C76.8125 47.4176 77.047 47.37 77.2387 47.2595L80.0613 45.6332C80.2515 45.5237 80.4074 45.3426 80.4074 45.1066C80.4074 44.8705 80.2515 44.6895 80.0613 44.5799L77.2387 42.9536Z" fill="white" stroke="#1A194D" stroke-width="0.53312" stroke-linejoin="round"/>
<path d="M67.6575 52.406C67.6575 52.4097 67.6576 52.4133 67.6577 52.4169C67.6479 52.6585 67.8074 52.8493 68.0035 52.9623L68.0034 52.9624L68.0123 52.9671L75.9508 57.1513C76.1416 57.2598 76.3741 57.3067 76.5924 57.3067C76.8121 57.3067 77.0462 57.2592 77.2378 57.149C77.2381 57.1489 77.2384 57.1487 77.2386 57.1486L85.1797 52.6431L85.1812 52.6423C85.3771 52.5294 85.5365 52.3388 85.527 52.0976C85.5272 52.0938 85.5273 52.0899 85.5273 52.086V47.7294H85.5273L85.5272 47.7248C85.5232 47.4926 85.3688 47.3151 85.1812 47.207C85.1284 47.1766 85.0668 47.1652 85.0066 47.1747L77.1491 48.4149C76.9765 48.3369 76.7792 48.3026 76.5924 48.3026C76.4035 48.3026 76.204 48.3377 76.03 48.4175L68.1677 47.4932C68.1108 47.4865 68.0532 47.4984 68.0035 47.527C67.8158 47.6351 67.6616 47.8126 67.6575 48.0448L67.6575 48.0451L67.6575 48.0455L67.6575 48.0458V48.0574H67.6575V52.406Z" fill="url(#paint21_linear_3404_120639)" stroke="#1A194D" stroke-width="0.53312" stroke-linejoin="round"/>
<path d="M85.1812 46.9997L85.1813 46.9995L85.1724 46.9948L77.2339 42.8107C77.0431 42.7021 76.8106 42.6553 76.5924 42.6553C76.3726 42.6553 76.1385 42.7028 75.9469 42.8129C75.9466 42.813 75.9464 42.8132 75.9461 42.8134L68.005 47.3188L68.005 47.3188L68.0035 47.3197C67.8133 47.4293 67.6575 47.6103 67.6575 47.8463C67.6575 48.0824 67.8133 48.2634 68.0035 48.373L68.0035 48.373L68.008 48.3755L75.9485 52.7484C76.1398 52.8579 76.3732 52.9051 76.5924 52.9051C76.8124 52.9051 77.0469 52.8575 77.2386 52.747L77.2386 52.747L77.2412 52.7455L85.1812 48.053C85.1817 48.0527 85.1821 48.0525 85.1826 48.0522C85.3721 47.9426 85.5273 47.7619 85.5273 47.5263C85.5273 47.2903 85.3714 47.1093 85.1812 46.9997Z" fill="white" stroke="#1A194D" stroke-width="0.53312" stroke-linejoin="round"/>
<g clip-path="url(#clip1_3404_120639)">
<path d="M76.8481 45.4394C77.3667 45.4559 77.8737 45.5341 78.3373 45.6692C78.312 45.7989 78.3378 45.9303 78.4126 46.0534C78.4874 46.1766 78.6093 46.2885 78.7693 46.3807C78.9291 46.4731 79.1228 46.5435 79.3362 46.5867C79.5495 46.6298 79.777 46.6447 80.0017 46.6302C80.2356 46.8978 80.3711 47.1905 80.3996 47.4899C80.1927 47.5422 80.0088 47.6207 79.8616 47.7197C79.7143 47.8186 79.6076 47.9354 79.5493 48.0614C79.4906 48.1875 79.4818 48.3196 79.5237 48.4479C79.5656 48.5762 79.657 48.6973 79.7912 48.8024C79.5066 49.053 79.1357 49.2672 78.7017 49.4315C78.3452 49.2804 77.8785 49.2208 77.4182 49.2918C77.1999 49.3255 76.9975 49.3871 76.8261 49.4721C76.6546 49.5571 76.5186 49.6634 76.428 49.7829C75.9096 49.7664 75.4027 49.6881 74.9392 49.553C74.9643 49.4233 74.9385 49.292 74.8637 49.1688C74.7888 49.0457 74.6668 48.9338 74.5068 48.8416C74.3471 48.7493 74.1534 48.6789 73.94 48.6357C73.7267 48.5925 73.4992 48.5776 73.2745 48.5922C73.0405 48.3246 72.9049 48.0319 72.8763 47.7326C73.0833 47.6803 73.2673 47.6018 73.4146 47.5028C73.5618 47.4038 73.6686 47.287 73.7269 47.1609C73.7855 47.0349 73.7942 46.9028 73.7523 46.7745C73.7104 46.6463 73.6189 46.5251 73.4847 46.4201C73.7694 46.1694 74.1403 45.9552 74.5745 45.7909C74.7565 45.8683 74.9664 45.9211 75.1886 45.9453C75.4108 45.9695 75.6396 45.9644 75.858 45.9305C76.0762 45.8969 76.2786 45.8352 76.4499 45.7503C76.6213 45.6653 76.7573 45.5591 76.8479 45.4396L76.8481 45.4394ZM76.3457 48.2414C76.4894 48.2642 76.6396 48.2704 76.7874 48.2596C76.9353 48.2488 77.078 48.2212 77.2073 48.1784C77.3367 48.1356 77.45 48.0785 77.541 48.0103C77.6319 47.9421 77.6986 47.8642 77.7372 47.7811C77.7757 47.698 77.7854 47.6113 77.7657 47.526C77.746 47.4407 77.6973 47.3585 77.6224 47.2841C77.5474 47.2097 77.4477 47.1446 77.329 47.0926C77.2103 47.0405 77.0749 47.0025 76.9307 46.9808C76.6419 46.9373 76.3351 46.9616 76.0771 47.0482C75.8191 47.1349 75.631 47.2769 75.5538 47.4433C75.4765 47.6098 75.5165 47.7871 75.6648 47.9366C75.8132 48.0861 76.058 48.1957 76.3457 48.2414Z" fill="#1A194D"/>
</g>
<path d="M84.0764 50.9932L84.0764 50.9934L84.0764 50.9939L84.0764 50.9941V51.0057H84.0763V55.3544C84.0763 55.358 84.0764 55.3616 84.0766 55.3652C84.0667 55.6068 84.2262 55.7976 84.4224 55.9106L87.2449 57.5369C87.4367 57.6474 87.6712 57.695 87.8912 57.695C88.1113 57.695 88.3457 57.6474 88.5375 57.5369L91.3601 55.9106C91.556 55.7977 91.7154 55.6072 91.7059 55.3659C91.7061 55.3621 91.7061 55.3582 91.7061 55.3544V50.9978H91.7062L91.7061 50.9932C91.7021 50.7609 91.5477 50.5834 91.3601 50.4753L88.5375 48.849C88.3457 48.7385 88.1113 48.6909 87.8912 48.6909C87.6712 48.6909 87.4367 48.7385 87.2449 48.849L84.4224 50.4753C84.2347 50.5835 84.0804 50.761 84.0764 50.9932Z" fill="url(#paint22_linear_3404_120639)" stroke="#1A194D" stroke-width="0.53312" stroke-linejoin="round"/>
<path d="M88.5376 48.8293C88.3458 48.7188 88.1113 48.6712 87.8913 48.6712C87.6712 48.6712 87.4368 48.7188 87.245 48.8293L84.4225 50.4556C84.2323 50.5652 84.0764 50.7462 84.0764 50.9823C84.0764 51.2184 84.2323 51.3994 84.4225 51.5089L87.245 53.1353C87.4368 53.2457 87.6712 53.2933 87.8913 53.2933C88.1113 53.2933 88.3458 53.2457 88.5376 53.1353L91.3601 51.5089C91.5503 51.3994 91.7062 51.2184 91.7062 50.9823C91.7062 50.7462 91.5503 50.5652 91.3601 50.4556L88.5376 48.8293Z" fill="white" stroke="#1A194D" stroke-width="0.53312" stroke-linejoin="round"/>
<path d="M78.811 53.9691L78.811 53.9693L78.811 53.9698L78.811 53.97V53.9816H78.811V58.3303C78.811 58.3339 78.8111 58.3375 78.8112 58.3411C78.8013 58.5827 78.9609 58.7735 79.157 58.8865L81.9796 60.5128C82.1713 60.6233 82.4058 60.6709 82.6259 60.6709C82.8459 60.6709 83.0804 60.6233 83.2721 60.5128L86.0947 58.8865C86.2906 58.7736 86.45 58.5831 86.4405 58.3418C86.4407 58.338 86.4408 58.3341 86.4408 58.3303V53.9737H86.4408L86.4407 53.9691C86.4367 53.7368 86.2823 53.5593 86.0947 53.4512L83.2721 51.8249C83.0804 51.7144 82.8459 51.6668 82.6259 51.6668C82.4058 51.6668 82.1713 51.7144 81.9796 51.8249L79.157 53.4512C78.9693 53.5594 78.8151 53.7369 78.811 53.9691Z" fill="url(#paint23_linear_3404_120639)" stroke="#1A194D" stroke-width="0.53312" stroke-linejoin="round"/>
<path d="M83.2721 51.8052C83.0804 51.6947 82.8459 51.6471 82.6259 51.6471C82.4058 51.6471 82.1713 51.6947 81.9796 51.8052L79.157 53.4315C78.9669 53.5411 78.811 53.7221 78.811 53.9582C78.811 54.1943 78.9669 54.3753 79.157 54.4849L81.9796 56.1112C82.1713 56.2217 82.4058 56.2693 82.6259 56.2693C82.8459 56.2693 83.0804 56.2217 83.2721 56.1112L86.0947 54.4849C86.2849 54.3753 86.4408 54.1943 86.4408 53.9582C86.4408 53.7221 86.2849 53.5411 86.0947 53.4315L83.2721 51.8052Z" fill="white" stroke="#1A194D" stroke-width="0.53312" stroke-linejoin="round"/>
<path d="M89.342 53.7402L89.342 53.7405L89.342 53.741L89.342 53.7412V53.7528H89.342V58.1014C89.342 58.105 89.342 58.1086 89.3422 58.1122C89.3323 58.3538 89.4919 58.5447 89.688 58.6577L92.5106 60.284C92.7023 60.3945 92.9368 60.4421 93.1568 60.4421C93.3769 60.4421 93.6114 60.3945 93.8031 60.284L96.6257 58.6577C96.8216 58.5448 96.981 58.3542 96.9715 58.113C96.9717 58.1092 96.9718 58.1053 96.9718 58.1014V53.7449H96.9718L96.9717 53.7402C96.9677 53.508 96.8133 53.3305 96.6257 53.2224L93.8031 51.5961C93.6114 51.4856 93.3769 51.438 93.1568 51.438C92.9368 51.438 92.7023 51.4856 92.5106 51.5961L89.688 53.2224C89.5003 53.3306 89.346 53.508 89.342 53.7402Z" fill="url(#paint24_linear_3404_120639)" stroke="#1A194D" stroke-width="0.53312" stroke-linejoin="round"/>
<path d="M93.8032 51.5763C93.6115 51.4658 93.377 51.4182 93.1569 51.4182C92.9369 51.4182 92.7024 51.4658 92.5106 51.5763L89.6881 53.2026C89.4979 53.3122 89.342 53.4932 89.342 53.7293C89.342 53.9654 89.4979 54.1464 89.6881 54.2559L92.5106 55.8823C92.7024 55.9927 92.9369 56.0403 93.1569 56.0403C93.377 56.0403 93.6115 55.9927 93.8032 55.8823L96.6258 54.2559C96.8159 54.1464 96.9718 53.9654 96.9718 53.7293C96.9718 53.4932 96.8159 53.3122 96.6258 53.2026L93.8032 51.5763Z" fill="white" stroke="#1A194D" stroke-width="0.53312" stroke-linejoin="round"/>
<path d="M84.0764 56.7163L84.0764 56.7165L84.0764 56.717L84.0764 56.7172V56.7288H84.0763V61.0775C84.0763 61.0811 84.0764 61.0847 84.0766 61.0883C84.0667 61.3299 84.2262 61.5207 84.4224 61.6337L87.2449 63.26C87.4367 63.3705 87.6712 63.4181 87.8912 63.4181C88.1113 63.4181 88.3457 63.3705 88.5375 63.26L91.3601 61.6337C91.556 61.5208 91.7154 61.3303 91.7059 61.089C91.7061 61.0852 91.7061 61.0813 91.7061 61.0775V56.7209H91.7062L91.7061 56.7163C91.7021 56.484 91.5477 56.3065 91.3601 56.1984L88.5375 54.5721C88.3457 54.4616 88.1113 54.414 87.8912 54.414C87.6712 54.414 87.4367 54.4616 87.2449 54.5721L84.4224 56.1984C84.2347 56.3066 84.0804 56.4841 84.0764 56.7163Z" fill="url(#paint25_linear_3404_120639)" stroke="#1A194D" stroke-width="0.53312" stroke-linejoin="round"/>
<path d="M88.5376 54.5525C88.3458 54.442 88.1113 54.3944 87.8913 54.3944C87.6712 54.3944 87.4368 54.442 87.245 54.5525L84.4225 56.1788C84.2323 56.2883 84.0764 56.4693 84.0764 56.7054C84.0764 56.9415 84.2323 57.1225 84.4225 57.2321L87.245 58.8584C87.4368 58.9689 87.6712 59.0165 87.8913 59.0165C88.1113 59.0165 88.3458 58.9689 88.5376 58.8584L91.3601 57.2321C91.5503 57.1225 91.7062 56.9415 91.7062 56.7054C91.7062 56.4693 91.5503 56.2883 91.3601 56.1788L88.5376 54.5525Z" fill="white" stroke="#1A194D" stroke-width="0.53312" stroke-linejoin="round"/>
<path d="M61.9293 51.445L61.9293 51.4453L61.9293 51.4457L61.9293 51.446V51.4576H61.9292V55.8062C61.9292 55.8098 61.9293 55.8134 61.9295 55.817C61.9196 56.0586 62.0791 56.2494 62.2753 56.3624L65.0978 57.9888C65.2896 58.0992 65.5241 58.1468 65.7441 58.1468C65.9642 58.1468 66.1987 58.0992 66.3904 57.9888L69.213 56.3624C69.4089 56.2496 69.5683 56.059 69.5588 55.8178C69.559 55.814 69.559 55.8101 69.559 55.8062V51.4496H69.5591L69.559 51.445C69.555 51.2128 69.4006 51.0353 69.213 50.9272L66.3904 49.3009C66.1987 49.1904 65.9642 49.1428 65.7441 49.1428C65.5241 49.1428 65.2896 49.1904 65.0978 49.3009L62.2753 50.9272C62.0876 51.0353 61.9333 51.2128 61.9293 51.445Z" fill="url(#paint26_linear_3404_120639)" stroke="#1A194D" stroke-width="0.53312" stroke-linejoin="round"/>
<path d="M66.3903 49.2811C66.1986 49.1707 65.9641 49.1231 65.744 49.1231C65.524 49.1231 65.2895 49.1707 65.0977 49.2811L62.2752 50.9075C62.085 51.017 61.9291 51.198 61.9291 51.4341C61.9291 51.6702 62.085 51.8512 62.2752 51.9608L65.0977 53.5871C65.2895 53.6976 65.524 53.7452 65.744 53.7452C65.9641 53.7452 66.1986 53.6976 66.3903 53.5871L69.2129 51.9608C69.403 51.8512 69.5589 51.6702 69.5589 51.4341C69.5589 51.198 69.403 51.017 69.2129 50.9075L66.3903 49.2811Z" fill="white" stroke="#1A194D" stroke-width="0.53312" stroke-linejoin="round"/>
<path d="M56.664 54.4211L56.664 54.4214L56.664 54.4218L56.664 54.4221V54.4337H56.6639V58.7823C56.6639 58.7859 56.664 58.7895 56.6641 58.7931C56.6543 59.0347 56.8138 59.2255 57.0099 59.3386L59.8325 60.9649C60.0242 61.0753 60.2587 61.123 60.4788 61.123C60.6988 61.123 60.9333 61.0753 61.1251 60.9649L63.9476 59.3386C64.1436 59.2257 64.303 59.0351 64.2935 58.7939C64.2936 58.7901 64.2937 58.7862 64.2937 58.7823V54.4257H64.2938L64.2937 54.4211C64.2897 54.1889 64.1353 54.0114 63.9476 53.9033L61.1251 52.277C60.9333 52.1665 60.6988 52.1189 60.4788 52.1189C60.2587 52.1189 60.0242 52.1665 59.8325 52.277L57.0099 53.9033C56.8222 54.0114 56.668 54.1889 56.664 54.4211Z" fill="url(#paint27_linear_3404_120639)" stroke="#1A194D" stroke-width="0.53312" stroke-linejoin="round"/>
<path d="M61.1251 52.2573C60.9333 52.1469 60.6988 52.0993 60.4788 52.0993C60.2587 52.0993 60.0242 52.1469 59.8325 52.2573L57.0099 53.8837C56.8198 53.9932 56.6639 54.1742 56.6639 54.4103C56.6639 54.6464 56.8198 54.8274 57.0099 54.937L59.8325 56.5633C60.0242 56.6738 60.2587 56.7214 60.4788 56.7214C60.6988 56.7214 60.9333 56.6738 61.1251 56.5633L63.9476 54.937C64.1378 54.8274 64.2937 54.6464 64.2937 54.4103C64.2937 54.1742 64.1378 53.9932 63.9476 53.8837L61.1251 52.2573Z" fill="white" stroke="#1A194D" stroke-width="0.53312" stroke-linejoin="round"/>
<path d="M67.1946 54.1922L67.1946 54.1924L67.1946 54.1929L67.1946 54.1931V54.2047H67.1946V58.5534C67.1946 58.557 67.1947 58.5606 67.1948 58.5642C67.1849 58.8058 67.3445 58.9966 67.5406 59.1096L70.3632 60.7359C70.5549 60.8464 70.7894 60.894 71.0095 60.894C71.2295 60.894 71.464 60.8464 71.6557 60.7359L74.4783 59.1096C74.6742 58.9967 74.8336 58.8062 74.8241 58.5649C74.8243 58.5611 74.8244 58.5572 74.8244 58.5534V54.1968H74.8244L74.8244 54.1922C74.8203 53.9599 74.6659 53.7824 74.4783 53.6743L71.6557 52.048C71.464 51.9375 71.2295 51.8899 71.0095 51.8899C70.7894 51.8899 70.5549 51.9375 70.3632 52.048L67.5406 53.6743C67.3529 53.7825 67.1987 53.96 67.1946 54.1922Z" fill="url(#paint28_linear_3404_120639)" stroke="#1A194D" stroke-width="0.53312" stroke-linejoin="round"/>
<path d="M71.6557 52.0283C71.464 51.9179 71.2295 51.8703 71.0095 51.8703C70.7894 51.8703 70.5549 51.9179 70.3632 52.0283L67.5406 53.6547C67.3505 53.7642 67.1946 53.9452 67.1946 54.1813C67.1946 54.4174 67.3505 54.5984 67.5406 54.708L70.3632 56.3343C70.5549 56.4448 70.7894 56.4924 71.0095 56.4924C71.2295 56.4924 71.464 56.4448 71.6557 56.3343L74.4783 54.708C74.6685 54.5984 74.8244 54.4174 74.8244 54.1813C74.8244 53.9452 74.6685 53.7642 74.4783 53.6547L71.6557 52.0283Z" fill="white" stroke="#1A194D" stroke-width="0.53312" stroke-linejoin="round"/>
<path d="M61.9293 57.1683L61.9293 57.1685L61.9293 57.169L61.9293 57.1692V57.1808H61.9292V61.5295C61.9292 61.5331 61.9293 61.5367 61.9295 61.5403C61.9196 61.7819 62.0791 61.9727 62.2753 62.0857L65.0978 63.712C65.2896 63.8225 65.5241 63.8701 65.7441 63.8701C65.9642 63.8701 66.1987 63.8225 66.3904 63.712L69.213 62.0857C69.4089 61.9728 69.5683 61.7823 69.5588 61.541C69.559 61.5372 69.559 61.5333 69.559 61.5295V57.1729H69.5591L69.559 57.1683C69.555 56.936 69.4006 56.7585 69.213 56.6504L66.3904 55.0241C66.1987 54.9136 65.9642 54.866 65.7441 54.866C65.5241 54.866 65.2896 54.9136 65.0978 55.0241L62.2753 56.6504C62.0876 56.7586 61.9333 56.9361 61.9293 57.1683Z" fill="url(#paint29_linear_3404_120639)" stroke="#1A194D" stroke-width="0.53312" stroke-linejoin="round"/>
<path d="M66.3903 55.0044C66.1986 54.8939 65.9641 54.8463 65.744 54.8463C65.524 54.8463 65.2895 54.8939 65.0977 55.0044L62.2752 56.6307C62.085 56.7402 61.9291 56.9212 61.9291 57.1573C61.9291 57.3934 62.085 57.5744 62.2752 57.684L65.0977 59.3103C65.2895 59.4208 65.524 59.4684 65.744 59.4684C65.9641 59.4684 66.1986 59.4208 66.3903 59.3103L69.2129 57.684C69.403 57.5744 69.5589 57.3934 69.5589 57.1573C69.5589 56.9212 69.403 56.7402 69.2129 56.6307L66.3903 55.0044Z" fill="white" stroke="#1A194D" stroke-width="0.53312" stroke-linejoin="round"/>
<path d="M73.2284 57.321L73.2284 57.3212L73.2284 57.3217L73.2284 57.322V57.3335H73.2284V61.6822C73.2284 61.6858 73.2284 61.6894 73.2286 61.693C73.2187 61.9346 73.3783 62.1254 73.5744 62.2384L76.397 63.8647C76.5887 63.9752 76.8232 64.0228 77.0432 64.0228C77.2633 64.0228 77.4978 63.9752 77.6895 63.8647L80.5121 62.2384C80.708 62.1255 80.8674 61.935 80.8579 61.6938C80.8581 61.6899 80.8582 61.6861 80.8582 61.6822V57.3256H80.8582L80.8581 57.321C80.8541 57.0887 80.6997 56.9112 80.5121 56.8031L77.6895 55.1768C77.4978 55.0664 77.2633 55.0187 77.0432 55.0187C76.8232 55.0187 76.5887 55.0664 76.397 55.1768L73.5744 56.8031C73.3867 56.9113 73.2324 57.0888 73.2284 57.321Z" fill="url(#paint30_linear_3404_120639)" stroke="#1A194D" stroke-width="0.53312" stroke-linejoin="round"/>
<path d="M77.6895 55.1571C77.4978 55.0467 77.2633 54.9991 77.0432 54.9991C76.8232 54.9991 76.5887 55.0467 76.397 55.1571L73.5744 56.7835C73.3842 56.893 73.2283 57.074 73.2283 57.3101C73.2283 57.5462 73.3842 57.7272 73.5744 57.8368L76.397 59.4631C76.5887 59.5736 76.8232 59.6212 77.0432 59.6212C77.2633 59.6212 77.4978 59.5736 77.6895 59.4631L80.5121 57.8368C80.7022 57.7272 80.8581 57.5462 80.8581 57.3101C80.8581 57.074 80.7022 56.893 80.5121 56.7835L77.6895 55.1571Z" fill="white" stroke="#1A194D" stroke-width="0.53312" stroke-linejoin="round"/>
<path d="M67.9634 60.2968L67.9634 60.297L67.9634 60.2975L67.9634 60.2978V60.3093H67.9633V64.658C67.9633 64.6616 67.9634 64.6652 67.9635 64.6688C67.9537 64.9104 68.1132 65.1012 68.3094 65.2142L71.1319 66.8405C71.3237 66.951 71.5582 66.9986 71.7782 66.9986C71.9982 66.9986 72.2327 66.951 72.4245 66.8405L75.247 65.2142C75.443 65.1013 75.6024 64.9108 75.5929 64.6696C75.593 64.6657 75.5931 64.6619 75.5931 64.658V60.3014H75.5932L75.5931 60.2968C75.5891 60.0645 75.4347 59.887 75.247 59.7789L72.4245 58.1526C72.2327 58.0422 71.9982 57.9945 71.7782 57.9945C71.5582 57.9945 71.3237 58.0422 71.1319 58.1526L68.3094 59.7789C68.1216 59.8871 67.9674 60.0646 67.9634 60.2968Z" fill="url(#paint31_linear_3404_120639)" stroke="#1A194D" stroke-width="0.53312" stroke-linejoin="round"/>
<path d="M72.4245 58.1329C72.2327 58.0225 71.9982 57.9749 71.7782 57.9749C71.5582 57.9749 71.3237 58.0225 71.1319 58.1329L68.3094 59.7593C68.1192 59.8688 67.9633 60.0498 67.9633 60.2859C67.9633 60.522 68.1192 60.703 68.3094 60.8126L71.1319 62.4389C71.3237 62.5494 71.5582 62.597 71.7782 62.597C71.9982 62.597 72.2327 62.5494 72.4245 62.4389L75.247 60.8126C75.4372 60.703 75.5931 60.522 75.5931 60.2859C75.5931 60.0498 75.4372 59.8688 75.247 59.7593L72.4245 58.1329Z" fill="white" stroke="#1A194D" stroke-width="0.53312" stroke-linejoin="round"/>
<path d="M78.494 60.0679L78.494 60.0682L78.494 60.0687L78.494 60.0689V60.0805H78.494V64.4291C78.494 64.4328 78.4941 64.4364 78.4942 64.44C78.4843 64.6816 78.6439 64.8724 78.84 64.9854L81.6626 66.6117C81.8543 66.7222 82.0888 66.7698 82.3089 66.7698C82.5289 66.7698 82.7634 66.7222 82.9551 66.6117L85.7777 64.9854C85.9736 64.8725 86.1331 64.682 86.1236 64.4407C86.1237 64.4369 86.1238 64.433 86.1238 64.4291V60.0726H86.1238L86.1238 60.0679C86.1197 59.8357 85.9653 59.6582 85.7777 59.5501L82.9551 57.9238C82.7634 57.8133 82.5289 57.7657 82.3089 57.7657C82.0888 57.7657 81.8543 57.8133 81.6626 57.9238L78.84 59.5501C78.6523 59.6583 78.4981 59.8358 78.494 60.0679Z" fill="url(#paint32_linear_3404_120639)" stroke="#1A194D" stroke-width="0.53312" stroke-linejoin="round"/>
<path d="M82.9551 57.9042C82.7634 57.7937 82.5289 57.7461 82.3089 57.7461C82.0888 57.7461 81.8543 57.7937 81.6626 57.9042L78.84 59.5305C78.6499 59.6401 78.494 59.8211 78.494 60.0572C78.494 60.2933 78.6499 60.4743 78.84 60.5839L81.6626 62.2102C81.8543 62.3206 82.0888 62.3683 82.3089 62.3683C82.5289 62.3683 82.7634 62.3206 82.9551 62.2102L85.7777 60.5839C85.9679 60.4743 86.1238 60.2933 86.1238 60.0572C86.1238 59.8211 85.9679 59.6401 85.7777 59.5305L82.9551 57.9042Z" fill="white" stroke="#1A194D" stroke-width="0.53312" stroke-linejoin="round"/>
<path d="M73.2284 63.044L73.2284 63.0443L73.2284 63.0447L73.2284 63.045V63.0566H73.2284V67.4052C73.2284 67.4088 73.2284 67.4124 73.2286 67.416C73.2187 67.6576 73.3783 67.8484 73.5744 67.9614L76.397 69.5878C76.5887 69.6982 76.8232 69.7458 77.0432 69.7458C77.2633 69.7458 77.4978 69.6982 77.6895 69.5878L80.5121 67.9614C80.708 67.8486 80.8674 67.658 80.8579 67.4168C80.8581 67.413 80.8582 67.4091 80.8582 67.4052V63.0486H80.8582L80.8581 63.044C80.8541 62.8118 80.6997 62.6343 80.5121 62.5262L77.6895 60.8999C77.4978 60.7894 77.2633 60.7418 77.0432 60.7418C76.8232 60.7418 76.5887 60.7894 76.397 60.8999L73.5744 62.5262C73.3867 62.6343 73.2324 62.8118 73.2284 63.044Z" fill="url(#paint33_linear_3404_120639)" stroke="#1A194D" stroke-width="0.53312" stroke-linejoin="round"/>
<path d="M77.6895 60.8802C77.4978 60.7697 77.2633 60.7221 77.0432 60.7221C76.8232 60.7221 76.5887 60.7697 76.397 60.8802L73.5744 62.5065C73.3842 62.6161 73.2283 62.7971 73.2283 63.0332C73.2283 63.2693 73.3842 63.4503 73.5744 63.5598L76.397 65.1862C76.5887 65.2966 76.8232 65.3442 77.0432 65.3442C77.2633 65.3442 77.4978 65.2966 77.6895 65.1862L80.5121 63.5598C80.7022 63.4503 80.8581 63.2693 80.8581 63.0332C80.8581 62.7971 80.7022 62.6161 80.5121 62.5065L77.6895 60.8802Z" fill="white" stroke="#1A194D" stroke-width="0.53312" stroke-linejoin="round"/>
</g>
</g>
<path d="M50.7824 59.4491L45.497 62.5007L57.0921 63.4969L58.8979 70.5031L64.1834 67.4515L62.3776 60.4453L50.7824 59.4491Z" fill="url(#paint34_linear_3404_120639)"/>
<path d="M42.7152 64.1067L37.4298 67.1583L49.0249 68.1545L50.8307 75.1607L56.1161 72.1092L54.3103 65.1029L42.7152 64.1067Z" fill="url(#paint35_linear_3404_120639)"/>
<g opacity="0.3">
<path d="M1.06678 76.3846L1.06678 76.3851L1.06673 76.3882L1.06672 76.3887C1.0664 76.4096 1.06637 76.4305 1.06665 76.4513V89.1887C1.06665 89.2104 1.06798 89.2319 1.07057 89.2532C1.00489 90.2816 1.66455 91.2124 2.77063 91.8497L21.8541 102.845C22.9123 103.455 24.2656 103.745 25.59 103.745C26.9144 103.745 28.2677 103.455 29.3259 102.845L48.4093 91.8497C49.5145 91.2129 50.174 90.2831 50.1095 89.2556C50.1123 89.2337 50.1137 89.2113 50.1137 89.1887V76.3938C50.1137 76.3821 50.1133 76.3705 50.1126 76.359C50.085 75.4023 49.4414 74.5558 48.4093 73.9611L29.3259 62.9655C28.2677 62.3558 26.9144 62.0662 25.59 62.0662C24.2656 62.0662 22.9123 62.3558 21.8541 62.9655L2.77063 73.9611C1.72934 74.5611 1.08355 75.4173 1.06678 76.3846Z" fill="white"/>
<path d="M1.06678 76.3846L1.06678 76.3851L1.06673 76.3882L1.06672 76.3887C1.0664 76.4096 1.06637 76.4305 1.06665 76.4513V89.1887C1.06665 89.2104 1.06798 89.2319 1.07057 89.2532C1.00489 90.2816 1.66455 91.2124 2.77063 91.8497L21.8541 102.845C22.9123 103.455 24.2656 103.745 25.59 103.745C26.9144 103.745 28.2677 103.455 29.3259 102.845L48.4093 91.8497C49.5145 91.2129 50.174 90.2831 50.1095 89.2556C50.1123 89.2337 50.1137 89.2113 50.1137 89.1887V76.3938C50.1137 76.3821 50.1133 76.3705 50.1126 76.359C50.085 75.4023 49.4414 74.5558 48.4093 73.9611L29.3259 62.9655C28.2677 62.3558 26.9144 62.0662 25.59 62.0662C24.2656 62.0662 22.9123 62.3558 21.8541 62.9655L2.77063 73.9611C1.72934 74.5611 1.08355 75.4173 1.06678 76.3846Z" fill="url(#paint36_linear_3404_120639)"/>
<path d="M1.06678 76.3846L1.06678 76.3851L1.06673 76.3882L1.06672 76.3887C1.0664 76.4096 1.06637 76.4305 1.06665 76.4513V89.1887C1.06665 89.2104 1.06798 89.2319 1.07057 89.2532C1.00489 90.2816 1.66455 91.2124 2.77063 91.8497L21.8541 102.845C22.9123 103.455 24.2656 103.745 25.59 103.745C26.9144 103.745 28.2677 103.455 29.3259 102.845L48.4093 91.8497C49.5145 91.2129 50.174 90.2831 50.1095 89.2556C50.1123 89.2337 50.1137 89.2113 50.1137 89.1887V76.3938C50.1137 76.3821 50.1133 76.3705 50.1126 76.359C50.085 75.4023 49.4414 74.5558 48.4093 73.9611L29.3259 62.9655C28.2677 62.3558 26.9144 62.0662 25.59 62.0662C24.2656 62.0662 22.9123 62.3558 21.8541 62.9655L2.77063 73.9611C1.72934 74.5611 1.08355 75.4173 1.06678 76.3846Z" stroke="#1A194D" stroke-width="1.06624" stroke-linejoin="round"/>
<g opacity="0.2">
<path d="M21.1779 75.5173L21.1779 75.5176L21.1779 75.518L21.1779 75.5183V75.5299H21.1779V79.8785C21.1779 79.8821 21.1779 79.8857 21.1781 79.8893C21.1682 80.1309 21.3278 80.3217 21.5239 80.4347L24.3465 82.0611C24.5382 82.1715 24.7727 82.2191 24.9927 82.2191C25.2128 82.2191 25.4473 82.1715 25.639 82.061L28.4616 80.4347C28.6575 80.3218 28.8169 80.1313 28.8074 79.8901C28.8076 79.8862 28.8077 79.8824 28.8077 79.8785V75.5219H28.8077L28.8076 75.5173C28.8036 75.285 28.6492 75.1076 28.4616 74.9995L25.639 73.3731C25.4473 73.2627 25.2128 73.2151 24.9927 73.2151C24.7727 73.2151 24.5382 73.2627 24.3465 73.3731L21.5239 74.9995C21.3362 75.1076 21.1819 75.2851 21.1779 75.5173Z" fill="url(#paint37_linear_3404_120639)" stroke="#1A194D" stroke-width="0.53312" stroke-linejoin="round"/>
<path d="M25.6391 73.3534C25.4474 73.243 25.2129 73.1954 24.9929 73.1954C24.7728 73.1954 24.5383 73.243 24.3466 73.3534L21.524 74.9798C21.3339 75.0893 21.178 75.2703 21.178 75.5064C21.178 75.7425 21.3339 75.9235 21.524 76.0331L24.3466 77.6594C24.5383 77.7699 24.7728 77.8175 24.9929 77.8175C25.2129 77.8175 25.4474 77.7699 25.6391 77.6594L28.4617 76.0331C28.6519 75.9235 28.8078 75.7425 28.8078 75.5064C28.8078 75.2703 28.6519 75.0893 28.4617 74.9798L25.6391 73.3534Z" fill="white" stroke="#1A194D" stroke-width="0.53312" stroke-linejoin="round"/>
<path d="M15.912 78.4932L15.912 78.4935L15.912 78.494L15.912 78.4942V78.5058H15.912V82.8544C15.912 82.858 15.912 82.8617 15.9122 82.8652C15.9023 83.1068 16.0619 83.2977 16.258 83.4107L19.0806 85.037C19.2723 85.1475 19.5068 85.1951 19.7268 85.1951C19.9469 85.1951 20.1814 85.1475 20.3731 85.037L23.1957 83.4107C23.3916 83.2978 23.551 83.1073 23.5415 82.866C23.5417 82.8622 23.5418 82.8583 23.5418 82.8544V78.4979H23.5418L23.5417 78.4932C23.5377 78.261 23.3833 78.0835 23.1957 77.9754L20.3731 76.3491C20.1814 76.2386 19.9469 76.191 19.7268 76.191C19.5068 76.191 19.2723 76.2386 19.0806 76.3491L16.258 77.9754C16.0703 78.0836 15.916 78.261 15.912 78.4932Z" fill="url(#paint38_linear_3404_120639)" stroke="#1A194D" stroke-width="0.53312" stroke-linejoin="round"/>
<path d="M20.3731 76.3295C20.1814 76.219 19.9469 76.1714 19.7268 76.1714C19.5068 76.1714 19.2723 76.219 19.0806 76.3295L16.258 77.9558C16.0678 78.0653 15.9119 78.2463 15.9119 78.4824C15.9119 78.7185 16.0678 78.8995 16.258 79.0091L19.0806 80.6354C19.2723 80.7459 19.5068 80.7935 19.7268 80.7935C19.9469 80.7935 20.1814 80.7459 20.3731 80.6354L23.1957 79.0091C23.3858 78.8995 23.5417 78.7185 23.5417 78.4824C23.5417 78.2463 23.3858 78.0653 23.1957 77.9558L20.3731 76.3295Z" fill="white" stroke="#1A194D" stroke-width="0.53312" stroke-linejoin="round"/>
<path d="M26.4433 78.2642L26.4433 78.2644L26.4433 78.2649L26.4432 78.2651V78.2767H26.4432V82.6254C26.4432 82.629 26.4433 82.6326 26.4434 82.6362C26.4336 82.8778 26.5931 83.0686 26.7892 83.1816L29.6118 84.8079C29.8035 84.9184 30.038 84.966 30.2581 84.966C30.4781 84.966 30.7126 84.9184 30.9044 84.8079L33.7269 83.1816C33.9229 83.0687 34.0823 82.8782 34.0728 82.6369C34.0729 82.6331 34.073 82.6292 34.073 82.6254V78.2688H34.0731L34.073 78.2642C34.069 78.0319 33.9145 77.8544 33.7269 77.7463L30.9044 76.12C30.7126 76.0095 30.4781 75.9619 30.2581 75.9619C30.038 75.9619 29.8035 76.0095 29.6118 76.12L26.7892 77.7463C26.6015 77.8545 26.4473 78.032 26.4433 78.2642Z" fill="url(#paint39_linear_3404_120639)" stroke="#1A194D" stroke-width="0.53312" stroke-linejoin="round"/>
<path d="M30.9044 76.1004C30.7126 75.9899 30.4781 75.9423 30.2581 75.9423C30.038 75.9423 29.8035 75.9899 29.6118 76.1004L26.7892 77.7267C26.5991 77.8363 26.4432 78.0173 26.4432 78.2534C26.4432 78.4895 26.5991 78.6705 26.7892 78.7801L29.6118 80.4064C29.8035 80.5168 30.038 80.5645 30.2581 80.5645C30.4781 80.5645 30.7126 80.5168 30.9044 80.4064L33.7269 78.7801C33.9171 78.6705 34.073 78.4895 34.073 78.2534C34.073 78.0173 33.9171 77.8363 33.7269 77.7267L30.9044 76.1004Z" fill="white" stroke="#1A194D" stroke-width="0.53312" stroke-linejoin="round"/>
<path d="M21.1779 81.2405L21.1779 81.2408L21.1779 81.2412L21.1779 81.2415V81.2531H21.1779V85.6017C21.1779 85.6053 21.1779 85.6089 21.1781 85.6125C21.1682 85.8541 21.3278 86.0449 21.5239 86.1579L24.3465 87.7843C24.5382 87.8947 24.7727 87.9423 24.9927 87.9423C25.2128 87.9423 25.4473 87.8947 25.639 87.7843L28.4616 86.1579C28.6575 86.0451 28.8169 85.8545 28.8074 85.6133C28.8076 85.6095 28.8077 85.6056 28.8077 85.6017V81.2451H28.8077L28.8076 81.2405C28.8036 81.0083 28.6492 80.8308 28.4616 80.7227L25.639 79.0964C25.4473 78.9859 25.2128 78.9383 24.9927 78.9383C24.7727 78.9383 24.5382 78.9859 24.3465 79.0964L21.5239 80.7227C21.3362 80.8308 21.1819 81.0083 21.1779 81.2405Z" fill="url(#paint40_linear_3404_120639)" stroke="#1A194D" stroke-width="0.53312" stroke-linejoin="round"/>
<path d="M25.6391 79.0767C25.4474 78.9662 25.2129 78.9186 24.9929 78.9186C24.7728 78.9186 24.5383 78.9662 24.3466 79.0767L21.524 80.703C21.3339 80.8126 21.178 80.9936 21.178 81.2297C21.178 81.4658 21.3339 81.6468 21.524 81.7563L24.3466 83.3826C24.5383 83.4931 24.7728 83.5407 24.9929 83.5407C25.2129 83.5407 25.4474 83.4931 25.6391 83.3826L28.4617 81.7563C28.6519 81.6468 28.8078 81.4658 28.8078 81.2297C28.8078 80.9936 28.6519 80.8126 28.4617 80.703L25.6391 79.0767Z" fill="white" stroke="#1A194D" stroke-width="0.53312" stroke-linejoin="round"/>
<path d="M32.4767 81.393L32.4767 81.3933L32.4767 81.3938L32.4767 81.394V81.4056H32.4767V85.7542C32.4767 85.7578 32.4768 85.7614 32.4769 85.765C32.467 86.0066 32.6266 86.1975 32.8227 86.3105L35.6453 87.9368C35.837 88.0473 36.0715 88.0949 36.2916 88.0949C36.5116 88.0949 36.7461 88.0473 36.9378 87.9368L39.7604 86.3105C39.9563 86.1976 40.1157 86.007 40.1062 85.7658C40.1064 85.762 40.1065 85.7581 40.1065 85.7542V81.3977H40.1065L40.1065 81.393C40.1024 81.1608 39.948 80.9833 39.7604 80.8752L36.9378 79.2489C36.7461 79.1384 36.5116 79.0908 36.2916 79.0908C36.0715 79.0908 35.837 79.1384 35.6453 79.2489L32.8227 80.8752C32.635 80.9834 32.4808 81.1608 32.4767 81.393Z" fill="url(#paint41_linear_3404_120639)" stroke="#1A194D" stroke-width="0.53312" stroke-linejoin="round"/>
<path d="M36.938 79.2292C36.7462 79.1187 36.5117 79.0711 36.2917 79.0711C36.0716 79.0711 35.8371 79.1187 35.6454 79.2292L32.8228 80.8555C32.6327 80.9651 32.4768 81.1461 32.4768 81.3821C32.4768 81.6182 32.6327 81.7992 32.8228 81.9088L35.6454 83.5351C35.8371 83.6456 36.0716 83.6932 36.2917 83.6932C36.5117 83.6932 36.7462 83.6456 36.938 83.5351L39.7605 81.9088C39.9507 81.7992 40.1066 81.6182 40.1066 81.3821C40.1066 81.1461 39.9507 80.9651 39.7605 80.8555L36.938 79.2292Z" fill="white" stroke="#1A194D" stroke-width="0.53312" stroke-linejoin="round"/>
<path d="M27.2122 84.369L27.2122 84.3692L27.2122 84.3697L27.2122 84.3699V84.3815H27.2122V88.7302C27.2122 88.7338 27.2122 88.7374 27.2124 88.741C27.2025 88.9826 27.3621 89.1734 27.5582 89.2864L30.3808 90.9127C30.5725 91.0232 30.807 91.0708 31.027 91.0708C31.2471 91.0708 31.4816 91.0232 31.6733 90.9127L34.4959 89.2864C34.6918 89.1735 34.8512 88.983 34.8417 88.7417C34.8419 88.7379 34.842 88.734 34.842 88.7302V84.3736H34.842L34.8419 84.369C34.8379 84.1367 34.6835 83.9592 34.4959 83.8511L31.6733 82.2248C31.4816 82.1143 31.2471 82.0667 31.027 82.0667C30.807 82.0667 30.5725 82.1143 30.3808 82.2248L27.5582 83.8511C27.3705 83.9593 27.2162 84.1368 27.2122 84.369Z" fill="url(#paint42_linear_3404_120639)" stroke="#1A194D" stroke-width="0.53312" stroke-linejoin="round"/>
<path d="M31.6733 82.2051C31.4816 82.0946 31.2471 82.047 31.027 82.047C30.807 82.047 30.5725 82.0946 30.3808 82.2051L27.5582 83.8314C27.368 83.941 27.2121 84.122 27.2121 84.3581C27.2121 84.5942 27.368 84.7752 27.5582 84.8848L30.3808 86.5111C30.5725 86.6216 30.807 86.6692 31.027 86.6692C31.2471 86.6692 31.4816 86.6216 31.6733 86.5111L34.4959 84.8848C34.686 84.7752 34.8419 84.5942 34.8419 84.3581C34.8419 84.122 34.686 83.941 34.4959 83.8314L31.6733 82.2051Z" fill="white" stroke="#1A194D" stroke-width="0.53312" stroke-linejoin="round"/>
<path d="M37.7424 84.1401L37.7424 84.1404L37.7424 84.1409L37.7424 84.1411V84.1527H37.7423V88.5013C37.7423 88.5049 37.7424 88.5085 37.7425 88.5121C37.7327 88.7537 37.8922 88.9446 38.0883 89.0576L40.9109 90.6839C41.1026 90.7944 41.3371 90.842 41.5572 90.842C41.7772 90.842 42.0117 90.7944 42.2035 90.6839L45.026 89.0576C45.222 88.9447 45.3814 88.7541 45.3719 88.5129C45.372 88.5091 45.3721 88.5052 45.3721 88.5013V84.1448H45.3722L45.3721 84.1401C45.3681 83.9079 45.2137 83.7304 45.026 83.6223L42.2035 81.996C42.0117 81.8855 41.7772 81.8379 41.5572 81.8379C41.3371 81.8379 41.1026 81.8855 40.9109 81.996L38.0883 83.6223C37.9006 83.7305 37.7464 83.9079 37.7424 84.1401Z" fill="url(#paint43_linear_3404_120639)" stroke="#1A194D" stroke-width="0.53312" stroke-linejoin="round"/>
<path d="M42.2036 81.9763C42.0119 81.8659 41.7774 81.8183 41.5573 81.8183C41.3373 81.8183 41.1028 81.8659 40.911 81.9763L38.0885 83.6027C37.8983 83.7122 37.7424 83.8932 37.7424 84.1293C37.7424 84.3654 37.8983 84.5464 38.0885 84.656L40.911 86.2823C41.1028 86.3928 41.3373 86.4404 41.5573 86.4404C41.7774 86.4404 42.0119 86.3928 42.2036 86.2823L45.0262 84.656C45.2163 84.5464 45.3722 84.3654 45.3722 84.1293C45.3722 83.8932 45.2163 83.7122 45.0262 83.6027L42.2036 81.9763Z" fill="white" stroke="#1A194D" stroke-width="0.53312" stroke-linejoin="round"/>
<path d="M32.4767 87.1162L32.4767 87.1165L32.4767 87.117L32.4767 87.1172V87.1288H32.4767V91.4774C32.4767 91.481 32.4768 91.4847 32.4769 91.4882C32.467 91.7298 32.6266 91.9207 32.8227 92.0337L35.6453 93.66C35.837 93.7705 36.0715 93.8181 36.2916 93.8181C36.5116 93.8181 36.7461 93.7705 36.9378 93.66L39.7604 92.0337C39.9563 91.9208 40.1157 91.7303 40.1062 91.489C40.1064 91.4852 40.1065 91.4813 40.1065 91.4774V87.1209H40.1065L40.1065 87.1162C40.1024 86.884 39.948 86.7065 39.7604 86.5984L36.9378 84.9721C36.7461 84.8616 36.5116 84.814 36.2916 84.814C36.0715 84.814 35.837 84.8616 35.6453 84.9721L32.8227 86.5984C32.635 86.7066 32.4808 86.884 32.4767 87.1162Z" fill="url(#paint44_linear_3404_120639)" stroke="#1A194D" stroke-width="0.53312" stroke-linejoin="round"/>
<path d="M36.938 84.9524C36.7462 84.8419 36.5117 84.7943 36.2917 84.7943C36.0716 84.7943 35.8371 84.8419 35.6454 84.9524L32.8228 86.5787C32.6327 86.6883 32.4768 86.8693 32.4768 87.1054C32.4768 87.3414 32.6327 87.5224 32.8228 87.632L35.6454 89.2583C35.8371 89.3688 36.0716 89.4164 36.2917 89.4164C36.5117 89.4164 36.7462 89.3688 36.938 89.2583L39.7605 87.632C39.9507 87.5224 40.1066 87.3414 40.1066 87.1054C40.1066 86.8693 39.9507 86.6883 39.7605 86.5787L36.938 84.9524Z" fill="white" stroke="#1A194D" stroke-width="0.53312" stroke-linejoin="round"/>
<path d="M10.33 81.8452L10.33 81.8455L10.33 81.846L10.33 81.8462V81.8578H10.3299V86.2064C10.3299 86.2101 10.33 86.2137 10.3302 86.2173C10.3203 86.4589 10.4798 86.6497 10.676 86.7627L13.4985 88.389C13.6903 88.4995 13.9248 88.5471 14.1448 88.5471C14.3649 88.5471 14.5994 88.4995 14.7911 88.389L17.6137 86.7627C17.8096 86.6498 17.969 86.4593 17.9595 86.218C17.9597 86.2142 17.9597 86.2103 17.9597 86.2064V81.8499H17.9598L17.9597 81.8452C17.9557 81.613 17.8013 81.4355 17.6137 81.3274L14.7911 79.7011C14.5993 79.5906 14.3649 79.543 14.1448 79.543C13.9248 79.543 13.6903 79.5906 13.4985 79.7011L10.676 81.3274C10.4883 81.4356 10.334 81.6131 10.33 81.8452Z" fill="url(#paint45_linear_3404_120639)" stroke="#1A194D" stroke-width="0.53312" stroke-linejoin="round"/>
<path d="M14.7911 79.6814C14.5993 79.5709 14.3649 79.5233 14.1448 79.5233C13.9248 79.5233 13.6903 79.5709 13.4985 79.6814L10.676 81.3077C10.4858 81.4173 10.3299 81.5983 10.3299 81.8344C10.3299 82.0704 10.4858 82.2514 10.676 82.361L13.4985 83.9873C13.6903 84.0978 13.9248 84.1454 14.1448 84.1454C14.3649 84.1454 14.5993 84.0978 14.7911 83.9873L17.6137 82.361C17.8038 82.2514 17.9597 82.0704 17.9597 81.8344C17.9597 81.5983 17.8038 81.4173 17.6137 81.3077L14.7911 79.6814Z" fill="white" stroke="#1A194D" stroke-width="0.53312" stroke-linejoin="round"/>
<path d="M5.06436 84.821L5.06435 84.8213L5.06435 84.8217L5.06434 84.822V84.8336H5.06431V89.1822C5.06431 89.1858 5.06438 89.1894 5.06453 89.193C5.05466 89.4346 5.2142 89.6254 5.41034 89.7385L8.23291 91.3648C8.42464 91.4752 8.65913 91.5229 8.87918 91.5229C9.09923 91.5229 9.33373 91.4752 9.52545 91.3648L12.348 89.7385C12.544 89.6256 12.7034 89.435 12.6939 89.1938C12.694 89.19 12.6941 89.1861 12.6941 89.1822V84.8257H12.6942L12.6941 84.821C12.69 84.5888 12.5356 84.4113 12.348 84.3032L9.52545 82.6769C9.33372 82.5664 9.09923 82.5188 8.87918 82.5188C8.65913 82.5188 8.42464 82.5664 8.23291 82.6769L5.41034 84.3032C5.22263 84.4113 5.06838 84.5888 5.06436 84.821Z" fill="url(#paint46_linear_3404_120639)" stroke="#1A194D" stroke-width="0.53312" stroke-linejoin="round"/>
<path d="M9.52545 82.6572C9.33372 82.5467 9.09923 82.4991 8.87918 82.4991C8.65913 82.4991 8.42464 82.5467 8.23291 82.6572L5.41034 84.2835C5.22018 84.3931 5.06428 84.5741 5.06428 84.8102C5.06428 85.0463 5.22018 85.2273 5.41034 85.3368L8.23291 86.9632C8.42464 87.0736 8.65913 87.1212 8.87918 87.1212C9.09923 87.1212 9.33372 87.0736 9.52545 86.9632L12.348 85.3368C12.5382 85.2273 12.6941 85.0463 12.6941 84.8102C12.6941 84.5741 12.5382 84.3931 12.348 84.2835L9.52545 82.6572Z" fill="white" stroke="#1A194D" stroke-width="0.53312" stroke-linejoin="round"/>
<path d="M15.5953 84.5921L15.5953 84.5923L15.5953 84.5928L15.5953 84.5931V84.6047H15.5953V88.9533C15.5953 88.9569 15.5953 88.9605 15.5955 88.9641C15.5856 89.2057 15.7451 89.3965 15.9413 89.5095L18.7639 91.1358C18.9556 91.2463 19.1901 91.2939 19.4101 91.2939C19.6302 91.2939 19.8647 91.2463 20.0564 91.1358L22.879 89.5095C23.0749 89.3966 23.2343 89.2061 23.2248 88.9649C23.225 88.961 23.2251 88.9572 23.2251 88.9533V84.5967H23.2251L23.225 84.5921C23.221 84.3598 23.0666 84.1824 22.879 84.0743L20.0564 82.4479C19.8647 82.3375 19.6302 82.2899 19.4101 82.2899C19.1901 82.2899 18.9556 82.3375 18.7639 82.4479L15.9413 84.0743C15.7536 84.1824 15.5993 84.3599 15.5953 84.5921Z" fill="url(#paint47_linear_3404_120639)" stroke="#1A194D" stroke-width="0.53312" stroke-linejoin="round"/>
<path d="M20.0563 82.4282C19.8646 82.3178 19.6301 82.2702 19.41 82.2702C19.19 82.2702 18.9555 82.3178 18.7638 82.4282L15.9412 84.0546C15.751 84.1641 15.5951 84.3451 15.5951 84.5812C15.5951 84.8173 15.751 84.9983 15.9412 85.1079L18.7638 86.7342C18.9555 86.8447 19.19 86.8923 19.41 86.8923C19.6301 86.8923 19.8646 86.8447 20.0563 86.7342L22.8789 85.1079C23.069 84.9983 23.2249 84.8173 23.2249 84.5812C23.2249 84.3451 23.069 84.1641 22.8789 84.0546L20.0563 82.4282Z" fill="white" stroke="#1A194D" stroke-width="0.53312" stroke-linejoin="round"/>
<path d="M10.33 87.5682L10.33 87.5685L10.33 87.569L10.33 87.5692V87.5808H10.3299V91.9294C10.3299 91.933 10.33 91.9366 10.3302 91.9402C10.3203 92.1818 10.4798 92.3727 10.676 92.4857L13.4985 94.112C13.6903 94.2225 13.9248 94.2701 14.1448 94.2701C14.3649 94.2701 14.5994 94.2225 14.7911 94.112L17.6137 92.4857C17.8096 92.3728 17.969 92.1822 17.9595 91.941C17.9597 91.9372 17.9597 91.9333 17.9597 91.9294V87.5729H17.9598L17.9597 87.5682C17.9557 87.336 17.8013 87.1585 17.6137 87.0504L14.7911 85.4241C14.5993 85.3136 14.3649 85.266 14.1448 85.266C13.9248 85.266 13.6903 85.3136 13.4985 85.4241L10.676 87.0504C10.4883 87.1586 10.334 87.336 10.33 87.5682Z" fill="url(#paint48_linear_3404_120639)" stroke="#1A194D" stroke-width="0.53312" stroke-linejoin="round"/>
<path d="M14.7911 85.4044C14.5993 85.2939 14.3649 85.2463 14.1448 85.2463C13.9248 85.2463 13.6903 85.2939 13.4985 85.4044L10.676 87.0307C10.4858 87.1403 10.3299 87.3213 10.3299 87.5574C10.3299 87.7935 10.4858 87.9745 10.676 88.0841L13.4985 89.7104C13.6903 89.8208 13.9248 89.8685 14.1448 89.8685C14.3649 89.8685 14.5993 89.8208 14.7911 89.7104L17.6137 88.0841C17.8038 87.9745 17.9597 87.7935 17.9597 87.5574C17.9597 87.3213 17.8038 87.1403 17.6137 87.0307L14.7911 85.4044Z" fill="white" stroke="#1A194D" stroke-width="0.53312" stroke-linejoin="round"/>
<path d="M21.6291 87.7208L21.6291 87.7211L21.6291 87.7215L21.6291 87.7218V87.7334H21.629V92.082C21.629 92.0856 21.6291 92.0892 21.6293 92.0928C21.6194 92.3344 21.7789 92.5252 21.9751 92.6382L24.7976 94.2646C24.9894 94.375 25.2239 94.4226 25.4439 94.4226C25.664 94.4226 25.8985 94.375 26.0902 94.2646L28.9128 92.6382C29.1087 92.5254 29.2681 92.3348 29.2586 92.0936C29.2588 92.0898 29.2588 92.0859 29.2588 92.082V87.7254H29.2589L29.2588 87.7208C29.2548 87.4886 29.1004 87.3111 28.9128 87.203L26.0902 85.5767C25.8985 85.4662 25.664 85.4186 25.4439 85.4186C25.2239 85.4186 24.9894 85.4662 24.7976 85.5767L21.9751 87.203C21.7874 87.3111 21.6331 87.4886 21.6291 87.7208Z" fill="url(#paint49_linear_3404_120639)" stroke="#1A194D" stroke-width="0.53312" stroke-linejoin="round"/>
<path d="M26.0903 85.557C25.8986 85.4465 25.6641 85.3989 25.444 85.3989C25.224 85.3989 24.9895 85.4465 24.7978 85.557L21.9752 87.1833C21.785 87.2928 21.6291 87.4738 21.6291 87.7099C21.6291 87.946 21.785 88.127 21.9752 88.2366L24.7978 89.8629C24.9895 89.9734 25.224 90.021 25.444 90.021C25.6641 90.021 25.8986 89.9734 26.0903 89.8629L28.9129 88.2366C29.103 88.127 29.2589 87.946 29.2589 87.7099C29.2589 87.4738 29.103 87.2928 28.9129 87.1833L26.0903 85.557Z" fill="white" stroke="#1A194D" stroke-width="0.53312" stroke-linejoin="round"/>
<path d="M16.3646 90.6968L16.3646 90.697L16.3645 90.6975L16.3645 90.6978V90.7094H16.3645V95.058C16.3645 95.0616 16.3646 95.0652 16.3647 95.0688C16.3549 95.3104 16.5144 95.5012 16.7105 95.6142L19.5331 97.2405C19.7248 97.351 19.9593 97.3986 20.1794 97.3986C20.3994 97.3986 20.6339 97.351 20.8257 97.2405L23.6482 95.6142C23.8442 95.5013 24.0036 95.3108 23.9941 95.0696C23.9942 95.0657 23.9943 95.0619 23.9943 95.058V90.7014H23.9944L23.9943 90.6968C23.9902 90.4645 23.8358 90.2871 23.6482 90.179L20.8257 88.5526C20.6339 88.4422 20.3994 88.3946 20.1794 88.3946C19.9593 88.3946 19.7248 88.4422 19.5331 88.5526L16.7105 90.179C16.5228 90.2871 16.3686 90.4646 16.3646 90.6968Z" fill="url(#paint50_linear_3404_120639)" stroke="#1A194D" stroke-width="0.53312" stroke-linejoin="round"/>
<path d="M20.8257 88.533C20.6339 88.4225 20.3994 88.3749 20.1794 88.3749C19.9593 88.3749 19.7248 88.4225 19.5331 88.533L16.7105 90.1593C16.5204 90.2689 16.3645 90.4499 16.3645 90.686C16.3645 90.9221 16.5204 91.1031 16.7105 91.2126L19.5331 92.839C19.7248 92.9494 19.9593 92.997 20.1794 92.997C20.3994 92.997 20.6339 92.9494 20.8257 92.839L23.6482 91.2126C23.8384 91.1031 23.9943 90.9221 23.9943 90.686C23.9943 90.4499 23.8384 90.2689 23.6482 90.1593L20.8257 88.533Z" fill="white" stroke="#1A194D" stroke-width="0.53312" stroke-linejoin="round"/>
<path d="M26.8944 90.4679L26.8944 90.4681L26.8944 90.4686L26.8944 90.4689V90.4805H26.8944V94.8291C26.8944 94.8327 26.8945 94.8363 26.8946 94.8399C26.8847 95.0815 27.0443 95.2723 27.2404 95.3853L30.063 97.0116C30.2547 97.1221 30.4892 97.1697 30.7093 97.1697C30.9293 97.1697 31.1638 97.1221 31.3555 97.0116L34.1781 95.3853C34.374 95.2724 34.5334 95.0819 34.5239 94.8407C34.5241 94.8368 34.5242 94.833 34.5242 94.8291V90.4725H34.5242L34.5242 90.4679C34.5201 90.2356 34.3657 90.0582 34.1781 89.9501L31.3555 88.3237C31.1638 88.2133 30.9293 88.1657 30.7093 88.1657C30.4892 88.1657 30.2547 88.2133 30.063 88.3237L27.2404 89.9501C27.0527 90.0582 26.8985 90.2357 26.8944 90.4679Z" fill="url(#paint51_linear_3404_120639)" stroke="#1A194D" stroke-width="0.53312" stroke-linejoin="round"/>
<path d="M31.3555 88.304C31.1638 88.1936 30.9293 88.1459 30.7093 88.1459C30.4892 88.1459 30.2547 88.1936 30.063 88.304L27.2404 89.9303C27.0503 90.0399 26.8944 90.2209 26.8944 90.457C26.8944 90.6931 27.0503 90.8741 27.2404 90.9837L30.063 92.61C30.2547 92.7205 30.4892 92.7681 30.7093 92.7681C30.9293 92.7681 31.1638 92.7205 31.3555 92.61L34.1781 90.9837C34.3683 90.8741 34.5242 90.6931 34.5242 90.457C34.5242 90.2209 34.3683 90.0399 34.1781 89.9303L31.3555 88.304Z" fill="white" stroke="#1A194D" stroke-width="0.53312" stroke-linejoin="round"/>
<path d="M21.6291 93.4439L21.6291 93.4442L21.6291 93.4446L21.6291 93.4449V93.4565H21.629V97.8051C21.629 97.8087 21.6291 97.8123 21.6293 97.8159C21.6194 98.0575 21.7789 98.2483 21.9751 98.3613L24.7976 99.9877C24.9894 100.098 25.2239 100.146 25.4439 100.146C25.664 100.146 25.8985 100.098 26.0902 99.9877L28.9128 98.3613C29.1087 98.2485 29.2681 98.0579 29.2586 97.8167C29.2588 97.8129 29.2588 97.809 29.2588 97.8051V93.4485H29.2589L29.2588 93.4439C29.2548 93.2117 29.1004 93.0342 28.9128 92.9261L26.0902 91.2998C25.8985 91.1893 25.664 91.1417 25.4439 91.1417C25.2239 91.1417 24.9894 91.1893 24.7976 91.2998L21.9751 92.9261C21.7874 93.0342 21.6331 93.2117 21.6291 93.4439Z" fill="url(#paint52_linear_3404_120639)" stroke="#1A194D" stroke-width="0.53312" stroke-linejoin="round"/>
<path d="M26.0903 91.28C25.8986 91.1695 25.6641 91.1219 25.444 91.1219C25.224 91.1219 24.9895 91.1695 24.7978 91.28L21.9752 92.9063C21.785 93.0159 21.6291 93.1969 21.6291 93.433C21.6291 93.6691 21.785 93.8501 21.9752 93.9596L24.7978 95.586C24.9895 95.6964 25.224 95.744 25.444 95.744C25.6641 95.744 25.8986 95.6964 26.0903 95.586L28.9129 93.9596C29.103 93.8501 29.2589 93.6691 29.2589 93.433C29.2589 93.1969 29.103 93.0159 28.9129 92.9063L26.0903 91.28Z" fill="white" stroke="#1A194D" stroke-width="0.53312" stroke-linejoin="round"/>
</g>
<path d="M29.3259 62.8324C28.2677 62.2227 26.9144 61.9331 25.59 61.9331C24.2656 61.9331 22.9123 62.2227 21.8541 62.8324L2.77063 73.828C1.71561 74.4359 1.06646 75.3074 1.06646 76.2891C1.06646 77.2708 1.71561 78.1424 2.77063 78.7502L21.8541 89.7458C22.9123 90.3555 24.2656 90.6451 25.59 90.6451C26.9144 90.6451 28.2677 90.3555 29.3259 89.7458L48.4093 78.7502C49.4644 78.1424 50.1135 77.2708 50.1135 76.2891C50.1135 75.3074 49.4644 74.4359 48.4093 73.828L29.3259 62.8324Z" fill="white" stroke="#1A194D" stroke-width="1.06624" stroke-linejoin="round"/>
<path d="M33.6507 74.7927L23.6262 80.5804C22.5045 81.228 22.6521 82.0349 23.4717 82.5081C24.2299 82.9458 25.5955 83.1204 26.8106 82.4189L36.7591 76.6751C37.7874 76.0814 37.6717 75.2728 36.8377 74.7912C36.0036 74.3097 34.5369 74.2811 33.6507 74.7927Z" fill="#F9AB00"/>
<path d="M24.3924 75.3228L19.4561 78.1728C18.3345 78.8204 18.4821 79.6273 19.3017 80.1005C20.0599 80.5382 21.4255 80.7128 22.6406 80.0113L27.5009 77.2052C28.5292 76.6115 28.4134 75.8028 27.5794 75.3213C26.7454 74.8398 25.2787 74.8111 24.3924 75.3228Z" fill="#E37400"/>
<path d="M15.1316 77.6929C16.0109 78.2006 17.4378 78.1999 18.3186 77.6914C19.1994 77.1829 19.2005 76.3591 18.3212 75.8514C17.4418 75.3437 16.015 75.3444 15.1342 75.8529C14.2534 76.3614 14.2522 77.1852 15.1316 77.6929Z" fill="#E37400"/>
</g>
<defs>
<linearGradient id="paint0_linear_3404_120639" x1="104.798" y1="25.0566" x2="152.779" y2="21.8578" gradientUnits="userSpaceOnUse">
<stop stop-color="#C0C3D9"/>
<stop offset="0.624631" stop-color="#C0C3D9" stop-opacity="0"/>
</linearGradient>
<linearGradient id="paint1_linear_3404_120639" x1="124.643" y1="15.7808" x2="131.74" y2="15.3077" gradientUnits="userSpaceOnUse">
<stop stop-color="#C0C3D9"/>
<stop offset="0.624631" stop-color="#C0C3D9" stop-opacity="0"/>
</linearGradient>
<linearGradient id="paint2_linear_3404_120639" x1="119.377" y1="18.7568" x2="126.474" y2="18.2837" gradientUnits="userSpaceOnUse">
<stop stop-color="#C0C3D9"/>
<stop offset="0.624631" stop-color="#C0C3D9" stop-opacity="0"/>
</linearGradient>
<linearGradient id="paint3_linear_3404_120639" x1="129.909" y1="18.5277" x2="137.005" y2="18.0546" gradientUnits="userSpaceOnUse">
<stop stop-color="#C0C3D9"/>
<stop offset="0.624631" stop-color="#C0C3D9" stop-opacity="0"/>
</linearGradient>
<linearGradient id="paint4_linear_3404_120639" x1="124.643" y1="21.504" x2="131.74" y2="21.0309" gradientUnits="userSpaceOnUse">
<stop stop-color="#C0C3D9"/>
<stop offset="0.624631" stop-color="#C0C3D9" stop-opacity="0"/>
</linearGradient>
<linearGradient id="paint5_linear_3404_120639" x1="135.942" y1="21.6566" x2="143.039" y2="21.1835" gradientUnits="userSpaceOnUse">
<stop stop-color="#C0C3D9"/>
<stop offset="0.624631" stop-color="#C0C3D9" stop-opacity="0"/>
</linearGradient>
<linearGradient id="paint6_linear_3404_120639" x1="130.678" y1="24.6324" x2="137.774" y2="24.1593" gradientUnits="userSpaceOnUse">
<stop stop-color="#C0C3D9"/>
<stop offset="0.624631" stop-color="#C0C3D9" stop-opacity="0"/>
</linearGradient>
<linearGradient id="paint7_linear_3404_120639" x1="141.208" y1="24.4037" x2="148.304" y2="23.9305" gradientUnits="userSpaceOnUse">
<stop stop-color="#C0C3D9"/>
<stop offset="0.624631" stop-color="#C0C3D9" stop-opacity="0"/>
</linearGradient>
<linearGradient id="paint8_linear_3404_120639" x1="135.942" y1="27.3797" x2="143.039" y2="26.9066" gradientUnits="userSpaceOnUse">
<stop stop-color="#C0C3D9"/>
<stop offset="0.624631" stop-color="#C0C3D9" stop-opacity="0"/>
</linearGradient>
<linearGradient id="paint9_linear_3404_120639" x1="113.795" y1="22.1087" x2="120.892" y2="21.6356" gradientUnits="userSpaceOnUse">
<stop stop-color="#C0C3D9"/>
<stop offset="0.624631" stop-color="#C0C3D9" stop-opacity="0"/>
</linearGradient>
<linearGradient id="paint10_linear_3404_120639" x1="108.53" y1="25.0845" x2="115.626" y2="24.6114" gradientUnits="userSpaceOnUse">
<stop stop-color="#C0C3D9"/>
<stop offset="0.624631" stop-color="#C0C3D9" stop-opacity="0"/>
</linearGradient>
<linearGradient id="paint11_linear_3404_120639" x1="119.061" y1="24.8556" x2="126.157" y2="24.3824" gradientUnits="userSpaceOnUse">
<stop stop-color="#C0C3D9"/>
<stop offset="0.624631" stop-color="#C0C3D9" stop-opacity="0"/>
</linearGradient>
<linearGradient id="paint12_linear_3404_120639" x1="113.795" y1="27.8318" x2="120.892" y2="27.3587" gradientUnits="userSpaceOnUse">
<stop stop-color="#C0C3D9"/>
<stop offset="0.624631" stop-color="#C0C3D9" stop-opacity="0"/>
</linearGradient>
<linearGradient id="paint13_linear_3404_120639" x1="125.094" y1="27.9844" x2="132.191" y2="27.5113" gradientUnits="userSpaceOnUse">
<stop stop-color="#C0C3D9"/>
<stop offset="0.624631" stop-color="#C0C3D9" stop-opacity="0"/>
</linearGradient>
<linearGradient id="paint14_linear_3404_120639" x1="119.83" y1="30.9603" x2="126.927" y2="30.4872" gradientUnits="userSpaceOnUse">
<stop stop-color="#C0C3D9"/>
<stop offset="0.624631" stop-color="#C0C3D9" stop-opacity="0"/>
</linearGradient>
<linearGradient id="paint15_linear_3404_120639" x1="130.36" y1="30.7314" x2="137.456" y2="30.2583" gradientUnits="userSpaceOnUse">
<stop stop-color="#C0C3D9"/>
<stop offset="0.624631" stop-color="#C0C3D9" stop-opacity="0"/>
</linearGradient>
<linearGradient id="paint16_linear_3404_120639" x1="125.094" y1="33.7074" x2="132.191" y2="33.2343" gradientUnits="userSpaceOnUse">
<stop stop-color="#C0C3D9"/>
<stop offset="0.624631" stop-color="#C0C3D9" stop-opacity="0"/>
</linearGradient>
<linearGradient id="paint17_linear_3404_120639" x1="113.732" y1="29.7349" x2="96.4061" y2="59.7441" gradientUnits="userSpaceOnUse">
<stop stop-color="#7F7EFF"/>
<stop offset="1" stop-color="#67DAE1"/>
</linearGradient>
<linearGradient id="paint18_linear_3404_120639" x1="113.732" y1="29.7349" x2="96.4061" y2="59.7441" gradientUnits="userSpaceOnUse">
<stop stop-color="#7F7EFF"/>
<stop offset="1" stop-color="#67DAE1"/>
</linearGradient>
<linearGradient id="paint19_linear_3404_120639" x1="53.1988" y1="55.8565" x2="101.18" y2="52.6578" gradientUnits="userSpaceOnUse">
<stop stop-color="#C0C3D9"/>
<stop offset="0.624631" stop-color="#C0C3D9" stop-opacity="0"/>
</linearGradient>
<linearGradient id="paint20_linear_3404_120639" x1="73.044" y1="46.5808" x2="80.1407" y2="46.1077" gradientUnits="userSpaceOnUse">
<stop stop-color="#C0C3D9"/>
<stop offset="0.624631" stop-color="#C0C3D9" stop-opacity="0"/>
</linearGradient>
<linearGradient id="paint21_linear_3404_120639" x1="73.044" y1="52.0683" x2="80.1407" y2="51.5951" gradientUnits="userSpaceOnUse">
<stop stop-color="#C0C3D9"/>
<stop offset="0.624631" stop-color="#C0C3D9" stop-opacity="0"/>
</linearGradient>
<linearGradient id="paint22_linear_3404_120639" x1="84.3429" y1="52.4565" x2="91.4395" y2="51.9834" gradientUnits="userSpaceOnUse">
<stop stop-color="#C0C3D9"/>
<stop offset="0.624631" stop-color="#C0C3D9" stop-opacity="0"/>
</linearGradient>
<linearGradient id="paint23_linear_3404_120639" x1="79.0775" y1="55.4324" x2="86.1742" y2="54.9593" gradientUnits="userSpaceOnUse">
<stop stop-color="#C0C3D9"/>
<stop offset="0.624631" stop-color="#C0C3D9" stop-opacity="0"/>
</linearGradient>
<linearGradient id="paint24_linear_3404_120639" x1="89.6085" y1="55.2036" x2="96.7052" y2="54.7305" gradientUnits="userSpaceOnUse">
<stop stop-color="#C0C3D9"/>
<stop offset="0.624631" stop-color="#C0C3D9" stop-opacity="0"/>
</linearGradient>
<linearGradient id="paint25_linear_3404_120639" x1="84.3429" y1="58.1796" x2="91.4395" y2="57.7065" gradientUnits="userSpaceOnUse">
<stop stop-color="#C0C3D9"/>
<stop offset="0.624631" stop-color="#C0C3D9" stop-opacity="0"/>
</linearGradient>
<linearGradient id="paint26_linear_3404_120639" x1="62.1958" y1="52.9084" x2="69.2925" y2="52.4353" gradientUnits="userSpaceOnUse">
<stop stop-color="#C0C3D9"/>
<stop offset="0.624631" stop-color="#C0C3D9" stop-opacity="0"/>
</linearGradient>
<linearGradient id="paint27_linear_3404_120639" x1="56.9304" y1="55.8845" x2="64.0271" y2="55.4114" gradientUnits="userSpaceOnUse">
<stop stop-color="#C0C3D9"/>
<stop offset="0.624631" stop-color="#C0C3D9" stop-opacity="0"/>
</linearGradient>
<linearGradient id="paint28_linear_3404_120639" x1="67.4611" y1="55.6555" x2="74.5578" y2="55.1824" gradientUnits="userSpaceOnUse">
<stop stop-color="#C0C3D9"/>
<stop offset="0.624631" stop-color="#C0C3D9" stop-opacity="0"/>
</linearGradient>
<linearGradient id="paint29_linear_3404_120639" x1="62.1958" y1="58.6316" x2="69.2925" y2="58.1585" gradientUnits="userSpaceOnUse">
<stop stop-color="#C0C3D9"/>
<stop offset="0.624631" stop-color="#C0C3D9" stop-opacity="0"/>
</linearGradient>
<linearGradient id="paint30_linear_3404_120639" x1="73.4949" y1="58.7844" x2="80.5916" y2="58.3112" gradientUnits="userSpaceOnUse">
<stop stop-color="#C0C3D9"/>
<stop offset="0.624631" stop-color="#C0C3D9" stop-opacity="0"/>
</linearGradient>
<linearGradient id="paint31_linear_3404_120639" x1="68.2299" y1="61.7602" x2="75.3265" y2="61.287" gradientUnits="userSpaceOnUse">
<stop stop-color="#C0C3D9"/>
<stop offset="0.624631" stop-color="#C0C3D9" stop-opacity="0"/>
</linearGradient>
<linearGradient id="paint32_linear_3404_120639" x1="78.7605" y1="61.5313" x2="85.8572" y2="61.0582" gradientUnits="userSpaceOnUse">
<stop stop-color="#C0C3D9"/>
<stop offset="0.624631" stop-color="#C0C3D9" stop-opacity="0"/>
</linearGradient>
<linearGradient id="paint33_linear_3404_120639" x1="73.4949" y1="64.5074" x2="80.5916" y2="64.0343" gradientUnits="userSpaceOnUse">
<stop stop-color="#C0C3D9"/>
<stop offset="0.624631" stop-color="#C0C3D9" stop-opacity="0"/>
</linearGradient>
<linearGradient id="paint34_linear_3404_120639" x1="62.5327" y1="60.5349" x2="45.2069" y2="90.5442" gradientUnits="userSpaceOnUse">
<stop stop-color="#7F7EFF"/>
<stop offset="1" stop-color="#67DAE1"/>
</linearGradient>
<linearGradient id="paint35_linear_3404_120639" x1="62.5327" y1="60.5349" x2="45.2069" y2="90.5442" gradientUnits="userSpaceOnUse">
<stop stop-color="#7F7EFF"/>
<stop offset="1" stop-color="#67DAE1"/>
</linearGradient>
<linearGradient id="paint36_linear_3404_120639" x1="1.59958" y1="86.2565" x2="49.5804" y2="83.0578" gradientUnits="userSpaceOnUse">
<stop stop-color="#C0C3D9"/>
<stop offset="0.624631" stop-color="#C0C3D9" stop-opacity="0"/>
</linearGradient>
<linearGradient id="paint37_linear_3404_120639" x1="21.4444" y1="76.9807" x2="28.5411" y2="76.5076" gradientUnits="userSpaceOnUse">
<stop stop-color="#C0C3D9"/>
<stop offset="0.624631" stop-color="#C0C3D9" stop-opacity="0"/>
</linearGradient>
<linearGradient id="paint38_linear_3404_120639" x1="16.1785" y1="79.9566" x2="23.2752" y2="79.4835" gradientUnits="userSpaceOnUse">
<stop stop-color="#C0C3D9"/>
<stop offset="0.624631" stop-color="#C0C3D9" stop-opacity="0"/>
</linearGradient>
<linearGradient id="paint39_linear_3404_120639" x1="26.7097" y1="79.7276" x2="33.8064" y2="79.2544" gradientUnits="userSpaceOnUse">
<stop stop-color="#C0C3D9"/>
<stop offset="0.624631" stop-color="#C0C3D9" stop-opacity="0"/>
</linearGradient>
<linearGradient id="paint40_linear_3404_120639" x1="21.4444" y1="82.7039" x2="28.5411" y2="82.2308" gradientUnits="userSpaceOnUse">
<stop stop-color="#C0C3D9"/>
<stop offset="0.624631" stop-color="#C0C3D9" stop-opacity="0"/>
</linearGradient>
<linearGradient id="paint41_linear_3404_120639" x1="32.7432" y1="82.8564" x2="39.8399" y2="82.3833" gradientUnits="userSpaceOnUse">
<stop stop-color="#C0C3D9"/>
<stop offset="0.624631" stop-color="#C0C3D9" stop-opacity="0"/>
</linearGradient>
<linearGradient id="paint42_linear_3404_120639" x1="27.4787" y1="85.8323" x2="34.5754" y2="85.3592" gradientUnits="userSpaceOnUse">
<stop stop-color="#C0C3D9"/>
<stop offset="0.624631" stop-color="#C0C3D9" stop-opacity="0"/>
</linearGradient>
<linearGradient id="paint43_linear_3404_120639" x1="38.0088" y1="85.6035" x2="45.1055" y2="85.1304" gradientUnits="userSpaceOnUse">
<stop stop-color="#C0C3D9"/>
<stop offset="0.624631" stop-color="#C0C3D9" stop-opacity="0"/>
</linearGradient>
<linearGradient id="paint44_linear_3404_120639" x1="32.7432" y1="88.5796" x2="39.8399" y2="88.1065" gradientUnits="userSpaceOnUse">
<stop stop-color="#C0C3D9"/>
<stop offset="0.624631" stop-color="#C0C3D9" stop-opacity="0"/>
</linearGradient>
<linearGradient id="paint45_linear_3404_120639" x1="10.5965" y1="83.3086" x2="17.6931" y2="82.8355" gradientUnits="userSpaceOnUse">
<stop stop-color="#C0C3D9"/>
<stop offset="0.624631" stop-color="#C0C3D9" stop-opacity="0"/>
</linearGradient>
<linearGradient id="paint46_linear_3404_120639" x1="5.33084" y1="86.2844" x2="12.4275" y2="85.8113" gradientUnits="userSpaceOnUse">
<stop stop-color="#C0C3D9"/>
<stop offset="0.624631" stop-color="#C0C3D9" stop-opacity="0"/>
</linearGradient>
<linearGradient id="paint47_linear_3404_120639" x1="15.8618" y1="86.0555" x2="22.9585" y2="85.5824" gradientUnits="userSpaceOnUse">
<stop stop-color="#C0C3D9"/>
<stop offset="0.624631" stop-color="#C0C3D9" stop-opacity="0"/>
</linearGradient>
<linearGradient id="paint48_linear_3404_120639" x1="10.5965" y1="89.0316" x2="17.6931" y2="88.5585" gradientUnits="userSpaceOnUse">
<stop stop-color="#C0C3D9"/>
<stop offset="0.624631" stop-color="#C0C3D9" stop-opacity="0"/>
</linearGradient>
<linearGradient id="paint49_linear_3404_120639" x1="21.8956" y1="89.1842" x2="28.9923" y2="88.7111" gradientUnits="userSpaceOnUse">
<stop stop-color="#C0C3D9"/>
<stop offset="0.624631" stop-color="#C0C3D9" stop-opacity="0"/>
</linearGradient>
<linearGradient id="paint50_linear_3404_120639" x1="16.631" y1="92.1602" x2="23.7277" y2="91.6871" gradientUnits="userSpaceOnUse">
<stop stop-color="#C0C3D9"/>
<stop offset="0.624631" stop-color="#C0C3D9" stop-opacity="0"/>
</linearGradient>
<linearGradient id="paint51_linear_3404_120639" x1="27.1609" y1="91.9313" x2="34.2576" y2="91.4582" gradientUnits="userSpaceOnUse">
<stop stop-color="#C0C3D9"/>
<stop offset="0.624631" stop-color="#C0C3D9" stop-opacity="0"/>
</linearGradient>
<linearGradient id="paint52_linear_3404_120639" x1="21.8956" y1="94.9073" x2="28.9923" y2="94.4342" gradientUnits="userSpaceOnUse">
<stop stop-color="#C0C3D9"/>
<stop offset="0.624631" stop-color="#C0C3D9" stop-opacity="0"/>
</linearGradient>
<clipPath id="clip0_3404_120639">
<rect width="12.8861" height="12.8861" fill="white" transform="matrix(0.866025 0.5 -0.866025 0.5 128.348 1.28)"/>
</clipPath>
<clipPath id="clip1_3404_120639">
<rect width="7.3824" height="7.3824" fill="white" transform="matrix(0.866025 0.5 -0.866025 0.5 76.6381 43.9201)"/>
</clipPath>
</defs>
</svg>
