<svg _ngcontent-ng-c2765666271="" width="250" height="250" viewBox="0 0 127 34" fill="none" xmlns="http://www.w3.org/2000/svg" class="logo monochrome"><g _ngcontent-ng-c2765666271="" id="Logo"><g _ngcontent-ng-c2765666271="" id="Logo Shape"><path _ngcontent-ng-c2765666271="" d="M32.9116 7.69097C30.7483 8.06883 29.587 8.89143 28.8716 12.6797V7.5669L21.8364 9.77847V24.905H29.579V16.9409C29.579 15.7646 30.3421 14.7237 31.4629 14.3716L34.5453 13.4024V7.56851C34.5453 7.56851 33.3178 7.62088 32.9108 7.69178L32.9116 7.69097Z" fill="#2F2E0C"></path><path _ngcontent-ng-c2765666271="" d="M59.5294 7.06582H59.5286C56.6659 7.06582 54.5858 8.68039 53.6014 10.6406V7.41468L46.0776 9.78014V24.9059H53.8202V14.6843C53.8202 13.1632 54.6487 12.6161 55.5257 12.6161C56.4027 12.6161 57.0116 13.1019 57.0116 14.387V24.9059H64.7541V13.4468C64.7541 9.15171 62.8928 7.06582 59.5294 7.06582Z" fill="#2F2E0C"></path><path _ngcontent-ng-c2765666271="" d="M92.8641 7.007V7.56694H90.8646V12.9456H92.8641V24.9067H100.607V12.9456H103.939V7.56694H100.607V7.0215C100.607 6.02488 101.413 5.21679 102.407 5.21679H103.939V0.513259H99.3437C95.7647 0.513259 92.8641 3.42013 92.8641 7.007Z" fill="#2F2E0C"></path><path _ngcontent-ng-c2765666271="" d="M36.0021 24.9066H43.7447V10.5125L36.0021 12.9456V24.9066Z" fill="#2F2E0C"></path><path _ngcontent-ng-c2765666271="" d="M43.1179 3.20908C42.354 2.57743 41.196 2.21729 39.8806 2.21729C39.2418 2.21729 38.6378 2.3035 38.0975 2.46625L37.957 2.50975C36.6068 2.9569 35.6895 3.89632 35.6895 5.14834C35.6895 5.27966 35.6992 5.40696 35.7194 5.53184C35.9649 7.09807 37.722 8.08099 39.8806 8.08099C42.2264 8.08099 44.0724 6.93532 44.0724 5.14834C44.0724 4.36361 43.7171 3.70296 43.1179 3.20827V3.20908Z" fill="#2F2E0C"></path><path _ngcontent-ng-c2765666271="" d="M76.095 0.348877L68.3524 2.78201V7.56692H66.353V12.9456H68.3524V19.1855C68.3524 22.3454 70.9083 24.9058 74.06 24.9058H79.4269V19.594H77.6697C76.8008 19.594 76.095 18.8883 76.095 18.0157V12.9448H79.4269V7.56692H76.095V0.348877Z" fill="#2F2E0C"></path><path _ngcontent-ng-c2765666271="" d="M88.3783 3.20908C87.6144 2.57743 86.4556 2.21729 85.1401 2.21729C84.5022 2.21729 83.8973 2.3035 83.3579 2.46625L83.2174 2.50975C81.8664 2.9569 80.9498 3.89632 80.9498 5.14834C80.9498 5.27966 80.9595 5.40696 80.9797 5.53184C81.2252 7.09807 82.9824 8.08099 85.1401 8.08099C87.4868 8.08099 89.332 6.93532 89.332 5.14834C89.332 4.36361 88.9775 3.70296 88.3783 3.20827V3.20908Z" fill="#2F2E0C"></path><path _ngcontent-ng-c2765666271="" d="M81.4238 24.9066H89.1664V10.5125L81.4238 12.9456V24.9066Z" fill="#2F2E0C"></path><path _ngcontent-ng-c2765666271="" d="M118.397 7.5669L115.509 18.7779C115.366 19.2355 114.942 19.5481 114.462 19.5481C114.159 19.5481 113.886 19.4256 113.687 19.2266C113.488 19.0276 113.366 18.7529 113.366 18.4491V7.5669H105.855V17.998C105.855 19.967 106.396 21.9007 107.312 23.1615C108.919 25.3683 112.509 25.7115 114.547 23.9132L112.373 33.1438H119.898L126.727 7.5677H118.397V7.5669Z" fill="#2F2E0C"></path><path _ngcontent-ng-c2765666271="" d="M13.3509 0.999012H0V7.56687H12.3625C12.9326 7.56687 13.4316 7.99066 13.4841 8.56027C13.5108 8.84064 13.4308 9.10571 13.2774 9.31599C13.1425 9.50049 12.9503 9.6431 12.7218 9.714L0 13.7118V24.9058H8.29089V17.8038C9.81551 17.3244 11.3425 16.8507 12.8607 16.3503C14.7309 15.734 16.6965 15.2248 18.2647 13.9704C19.8927 12.6668 20.7632 10.4915 20.7632 8.42733C20.7632 4.32403 17.445 0.999012 13.3509 0.999012Z" fill="#2F2E0C"></path></g></g></svg>