<svg xmlns="http://www.w3.org/2000/svg" xmlns:xlink="http://www.w3.org/1999/xlink" width="250px" height="250px" viewBox="0 0 250 250" version="1.1">
<g id="surface1">
<path style=" stroke:none;fill-rule:nonzero;fill:rgb(0%,40%,85.490196%);fill-opacity:1;" d="M 194.6875 29.148438 L 174.953125 40.601562 L 165.179688 60.300781 L 174.953125 84.398438 L 193.453125 105.5 L 213.472656 93.75 L 225.757812 71.398438 L 213.472656 43.75 Z M 194.6875 29.148438 "/>
<path style=" stroke:none;fill-rule:nonzero;fill:rgb(14.901961%,51.764706%,98.823529%);fill-opacity:1;" d="M 118.265625 109.699219 L 165.179688 60.25 C 178.984375 71.300781 189.136719 87.148438 193.453125 105.449219 L 129.078125 173.351562 C 123.292969 179.449219 113.898438 179.449219 108.113281 173.351562 L 64.707031 127.601562 C 60.058594 122.699219 60.058594 114.800781 64.707031 109.949219 L 83.207031 90.449219 C 87.855469 85.550781 95.351562 85.550781 99.953125 90.449219 Z M 246.585938 31.800781 L 227.75 11.949219 C 223.148438 7.101562 215.605469 7.101562 211.003906 11.949219 L 194.6875 29.148438 C 207.734375 40.648438 218.359375 55.050781 225.757812 71.398438 L 246.585938 49.449219 C 251.234375 44.601562 251.234375 36.648438 246.585938 31.800781 Z M 195.683594 125 C 195.683594 169.898438 161.148438 206.25 118.597656 206.25 C 76.042969 206.25 41.507812 169.898438 41.507812 125 C 41.507812 80.101562 75.996094 43.75 118.597656 43.75 C 136.101562 43.75 152.230469 49.898438 165.179688 60.300781 L 194.6875 29.199219 C 174.097656 10.949219 147.582031 0 118.597656 0 C 53.082031 0 0 55.949219 0 125 C 0 194.050781 53.082031 250 118.597656 250 C 184.109375 250 237.191406 194.050781 237.191406 125 C 237.191406 105.851562 233.066406 87.648438 225.757812 71.398438 L 193.453125 105.5 C 194.875 111.75 195.683594 118.300781 195.683594 125 Z M 195.683594 125 "/>
</g>
</svg>
