<svg version="1.1" id="Layer_1" xmlns="http://www.w3.org/2000/svg" xmlns:xlink="http://www.w3.org/1999/xlink" x="0px" y="0px"
	 width="100%" viewBox="0 0 364 338" enable-background="new 0 0 364 338" xml:space="preserve">
<path fill="#000000" opacity="1.000000" stroke="none" 
	d="
M253.000000,339.000000 
	C207.645767,339.000000 162.291550,339.000000 116.482407,338.626221 
	C120.169434,335.847046 124.487251,333.697083 128.420776,330.988953 
	C140.911179,322.389526 152.774902,313.064087 162.420090,301.165039 
	C166.920563,295.612946 167.454910,290.847168 163.426682,284.853668 
	C150.321686,265.354950 139.818863,244.764359 134.151947,221.700684 
	C130.121567,205.297501 132.161530,190.066071 140.289673,175.748138 
	C142.929520,171.097961 143.185974,167.011459 142.552246,161.624374 
	C136.022675,162.097107 129.787659,162.538986 123.554230,163.002075 
	C114.520485,163.673218 105.303032,163.452408 96.496948,165.246536 
	C82.335770,168.131714 68.167297,171.532837 54.504822,176.191025 
	C31.139221,184.157471 12.674090,198.315033 2.880821,221.945175 
	C2.664560,222.466980 1.644895,222.655823 0.999999,223.000000 
	C1.000000,149.088531 1.000000,75.177055 1.000000,1.000000 
	C48.687233,1.000000 96.374954,1.000000 144.855347,1.265675 
	C145.106598,2.158283 144.688232,3.093855 144.005447,3.366008 
	C133.187927,7.677752 124.633759,15.068671 117.018127,23.561970 
	C105.416443,36.500698 98.618599,51.994839 97.309784,69.078712 
	C96.385338,81.145309 97.540115,93.544189 99.236839,105.587601 
	C100.784302,116.571503 104.310501,127.276634 106.938919,137.999939 
	C109.252998,137.999939 110.580399,137.997894 111.907791,138.000244 
	C127.540863,138.027863 143.181976,136.206650 158.797577,138.946884 
	C173.814178,141.582031 188.458374,145.128769 201.603302,153.241470 
	C212.082413,159.708923 221.142319,167.561890 226.535812,178.985031 
	C227.950241,181.980713 236.257095,182.061554 237.950058,179.020126 
	C246.190399,164.216309 253.117401,148.843231 258.037415,132.585922 
	C262.214844,118.782272 266.232544,104.976196 266.060181,90.351746 
	C265.951843,81.157722 267.304535,71.694916 265.588348,62.819344 
	C260.749725,37.795258 247.426529,18.281975 224.613556,5.851612 
	C222.234253,4.555171 220.196320,2.632252 218.000000,1.000001 
	C266.941528,1.000000 315.883057,1.000000 365.000000,1.000000 
	C365.000000,74.020798 365.000000,147.041748 364.734894,220.854889 
	C363.516235,220.151138 362.410126,218.730042 361.633087,217.147385 
	C355.023468,203.684891 345.655975,192.479645 332.631348,185.106247 
	C323.469421,179.919556 313.614349,175.793182 303.734955,172.082001 
	C292.852417,167.993958 281.617523,164.746658 269.505981,166.256027 
	C269.126251,167.194336 268.758881,168.239944 268.290863,169.238358 
	C256.921753,193.492249 242.503342,215.494919 221.180313,232.285034 
	C208.976089,241.894836 195.573410,248.549850 179.493195,248.009628 
	C177.403458,247.939423 175.309341,248.000000 173.639801,248.000000 
	C171.354660,255.445236 174.407867,260.900787 177.768051,266.236176 
	C189.437332,284.764862 203.419586,301.436401 219.712936,315.983063 
	C228.942139,324.222900 238.675400,332.115051 250.675400,336.387512 
	C251.638260,336.730347 252.233780,338.104889 253.000000,339.000000 
M199.431717,233.140457 
	C206.591156,230.312561 211.555603,225.176056 215.168198,218.490738 
	C220.336334,208.926773 220.913116,198.819839 218.699677,188.470230 
	C216.391373,177.676941 210.215576,169.881744 200.165543,164.967148 
	C192.974503,161.450623 185.439255,161.860489 177.897141,162.036942 
	C165.303879,162.331573 156.351151,168.705490 149.939972,179.220490 
	C144.283951,188.496933 144.788559,199.002411 146.429092,208.625793 
	C148.586975,221.283905 156.142944,230.880798 169.698517,234.387650 
	C179.555878,236.937775 189.175766,236.404190 199.431717,233.140457 
z"/>
<path fill="#00B0A9" opacity="1.000000" stroke="none" 
	d="
M253.468658,339.000000 
	C252.233780,338.104889 251.638260,336.730347 250.675400,336.387512 
	C238.675400,332.115051 228.942139,324.222900 219.712936,315.983063 
	C203.419586,301.436401 189.437332,284.764862 177.768051,266.236176 
	C174.407867,260.900787 171.354660,255.445236 173.639801,248.000000 
	C175.309341,248.000000 177.403458,247.939423 179.493195,248.009628 
	C195.573410,248.549850 208.976089,241.894836 221.180313,232.285034 
	C242.503342,215.494919 256.921753,193.492249 268.290863,169.238358 
	C268.758881,168.239944 269.126251,167.194336 269.505981,166.256027 
	C281.617523,164.746658 292.852417,167.993958 303.734955,172.082001 
	C313.614349,175.793182 323.469421,179.919556 332.631348,185.106247 
	C345.655975,192.479645 355.023468,203.684891 361.633087,217.147385 
	C362.410126,218.730042 363.516235,220.151138 364.734894,221.323547 
	C365.000000,244.687561 365.000000,268.375122 364.624725,292.545288 
	C362.260223,296.455719 360.399078,299.965759 358.259674,303.297119 
	C348.822693,317.992004 336.562408,329.422821 320.178955,336.101105 
	C318.932495,336.609192 318.051086,338.012695 317.000000,339.000000 
	C295.979095,339.000000 274.958221,339.000000 253.468658,339.000000 
z"/>
<path fill="#00B0A9" opacity="1.000000" stroke="none" 
	d="
M217.531342,1.000001 
	C220.196320,2.632252 222.234253,4.555171 224.613556,5.851612 
	C247.426529,18.281975 260.749725,37.795258 265.588348,62.819344 
	C267.304535,71.694916 265.951843,81.157722 266.060181,90.351746 
	C266.232544,104.976196 262.214844,118.782272 258.037415,132.585922 
	C253.117401,148.843231 246.190399,164.216309 237.950058,179.020126 
	C236.257095,182.061554 227.950241,181.980713 226.535812,178.985031 
	C221.142319,167.561890 212.082413,159.708923 201.603302,153.241470 
	C188.458374,145.128769 173.814178,141.582031 158.797577,138.946884 
	C143.181976,136.206650 127.540863,138.027863 111.907791,138.000244 
	C110.580399,137.997894 109.252998,137.999939 106.938919,137.999939 
	C104.310501,127.276634 100.784302,116.571503 99.236839,105.587601 
	C97.540115,93.544189 96.385338,81.145309 97.309784,69.078712 
	C98.618599,51.994839 105.416443,36.500698 117.018127,23.561970 
	C124.633759,15.068671 133.187927,7.677752 144.005447,3.366008 
	C144.688232,3.093855 145.106598,2.158283 145.324005,1.265675 
	C169.020889,1.000000 193.041794,1.000000 217.531342,1.000001 
z"/>
<path fill="#00B0A9" opacity="1.000000" stroke="none" 
	d="
M0.999999,223.468658 
	C1.644895,222.655823 2.664560,222.466980 2.880821,221.945175 
	C12.674090,198.315033 31.139221,184.157471 54.504822,176.191025 
	C68.167297,171.532837 82.335770,168.131714 96.496948,165.246536 
	C105.303032,163.452408 114.520485,163.673218 123.554230,163.002075 
	C129.787659,162.538986 136.022675,162.097107 142.552246,161.624374 
	C143.185974,167.011459 142.929520,171.097961 140.289673,175.748138 
	C132.161530,190.066071 130.121567,205.297501 134.151947,221.700684 
	C139.818863,244.764359 150.321686,265.354950 163.426682,284.853668 
	C167.454910,290.847168 166.920563,295.612946 162.420090,301.165039 
	C152.774902,313.064087 140.911179,322.389526 128.420776,330.988953 
	C124.487251,333.697083 120.169434,335.847046 116.013748,338.626221 
	C92.645775,339.000000 69.291542,339.000000 45.792641,338.734253 
	C44.668587,337.653381 43.810246,336.571991 42.691505,336.063507 
	C28.004494,329.387817 16.578381,319.082550 8.076375,305.416840 
	C5.860698,301.855530 3.366350,298.467590 0.999997,295.000000 
	C1.000000,271.312439 1.000000,247.624878 0.999999,223.468658 
z"/>
<path fill="#000000" opacity="1.000000" stroke="none" 
	d="
M317.468658,339.000000 
	C318.051086,338.012695 318.932495,336.609192 320.178955,336.101105 
	C336.562408,329.422821 348.822693,317.992004 358.259674,303.297119 
	C360.399078,299.965759 362.260223,296.455719 364.624725,293.013947 
	C365.000000,308.261627 365.000000,323.523224 365.000000,339.000000 
	C349.313080,339.000000 333.625214,339.000000 317.468658,339.000000 
z"/>
<path fill="#000000" opacity="1.000000" stroke="none" 
	d="
M0.999997,295.468658 
	C3.366350,298.467590 5.860698,301.855530 8.076375,305.416840 
	C16.578381,319.082550 28.004494,329.387817 42.691505,336.063507 
	C43.810246,336.571991 44.668587,337.653381 45.323982,338.734253 
	C30.406635,339.000000 15.813272,339.000000 1.000000,339.000000 
	C1.000000,324.646515 1.000000,310.291931 0.999997,295.468658 
z"/>
<path fill="#00B0A9" opacity="1.000000" stroke="none" 
	d="
M199.125275,233.396988 
	C189.175766,236.404190 179.555878,236.937775 169.698517,234.387650 
	C156.142944,230.880798 148.586975,221.283905 146.429092,208.625793 
	C144.788559,199.002411 144.283951,188.496933 149.939972,179.220490 
	C156.351151,168.705490 165.303879,162.331573 177.897141,162.036942 
	C185.439255,161.860489 192.974503,161.450623 200.165543,164.967148 
	C210.215576,169.881744 216.391373,177.676941 218.699677,188.470230 
	C220.913116,198.819839 220.336334,208.926773 215.168198,218.490738 
	C211.555603,225.176056 206.591156,230.312561 199.125275,233.396988 
M184.051880,204.938950 
	C184.708984,204.456482 185.388733,204.001740 186.019394,203.486877 
	C189.213242,200.879517 190.325684,198.401520 186.625671,194.992630 
	C183.148727,191.789246 180.419785,192.429871 177.919067,195.700928 
	C176.945969,196.973770 175.842453,199.761993 176.361282,200.272964 
	C178.316528,202.198593 180.914795,203.471329 184.051880,204.938950 
z"/>
<path fill="#000000" opacity="1.000000" stroke="none" 
	d="
M183.662079,204.963745 
	C180.914795,203.471329 178.316528,202.198593 176.361282,200.272964 
	C175.842453,199.761993 176.945969,196.973770 177.919067,195.700928 
	C180.419785,192.429871 183.148727,191.789246 186.625671,194.992630 
	C190.325684,198.401520 189.213242,200.879517 186.019394,203.486877 
	C185.388733,204.001740 184.708984,204.456482 183.662079,204.963745 
z"/>
</svg>
