<svg xmlns="http://www.w3.org/2000/svg" width="250" height="250" fill="none"><g clip-path="url(#a)"><path fill="#0077B7" d="M201.813 30H46.187C36.695 30 29 37.695 29 47.187v155.625C29 212.305 36.695 220 46.187 220h155.625c9.493 0 17.188-7.695 17.188-17.188V47.187C219 37.695 211.305 30 201.813 30ZM87.794 194.059a5.001 5.001 0 0 1-5.002 5.001h-21.29a5.001 5.001 0 0 1-5.002-5.001v-89.251a5.001 5.001 0 0 1 5.001-5.002h21.291a5.001 5.001 0 0 1 5.002 5.002v89.251ZM72.147 91.393c-11.17 0-20.227-9.056-20.227-20.227 0-11.17 9.056-20.226 20.227-20.226 11.17 0 20.227 9.056 20.227 20.226 0 11.171-9.056 20.227-20.227 20.227ZM199.06 194.46a4.599 4.599 0 0 1-4.599 4.599h-22.847a4.599 4.599 0 0 1-4.598-4.599v-41.863c0-6.245 1.831-27.367-16.321-27.367-14.08 0-16.936 14.457-17.51 20.945v48.285a4.599 4.599 0 0 1-4.599 4.599H106.49a4.599 4.599 0 0 1-4.599-4.599v-90.056a4.599 4.599 0 0 1 4.599-4.599h22.096a4.599 4.599 0 0 1 4.599 4.599v7.786c5.221-7.835 12.98-13.883 29.501-13.883 36.583 0 36.374 34.179 36.374 52.958v43.195Z"/></g><defs><clipPath id="a"><path fill="#fff" d="M29 30h190v190H29z"/></clipPath></defs></svg>