<svg xmlns="http://www.w3.org/2000/svg" xmlns:xlink="http://www.w3.org/1999/xlink" id="svg" version="1.1" viewBox="57 178 42.16 42.16"><g id="svgg"><path id="path0" d="M76.750 179.667 C 76.017 180.120,75.323 180.493,75.208 180.495 C 75.094 180.498,75.000 180.566,75.000 180.647 C 75.000 180.728,74.869 180.837,74.708 180.890 C 74.548 180.942,74.079 181.185,73.667 181.429 C 70.710 183.178,70.138 183.500,69.995 183.500 C 69.906 183.500,69.833 183.575,69.833 183.667 C 69.833 183.758,69.750 183.833,69.649 183.833 C 69.548 183.833,68.656 184.321,67.667 184.917 C 66.678 185.512,65.827 186.000,65.775 186.000 C 65.724 186.000,64.937 186.450,64.027 187.000 C 63.116 187.550,62.288 188.000,62.186 188.000 C 62.084 188.000,62.000 188.066,62.000 188.147 C 62.000 188.228,61.869 188.338,61.708 188.390 C 61.548 188.443,61.117 188.664,60.750 188.883 L 60.083 189.280 60.083 196.823 L 60.083 204.366 61.102 204.908 C 61.662 205.206,62.760 205.836,63.542 206.308 C 64.323 206.780,65.038 207.167,65.130 207.167 C 65.445 207.167,65.500 207.697,65.500 210.742 L 65.500 213.790 67.487 214.979 C 68.580 215.632,69.555 216.167,69.654 216.167 C 69.752 216.167,69.833 216.233,69.833 216.314 C 69.833 216.395,69.965 216.504,70.125 216.557 C 70.285 216.609,70.754 216.852,71.167 217.096 C 74.124 218.844,74.695 219.167,74.838 219.167 C 74.927 219.167,75.000 219.242,75.000 219.333 C 75.000 219.425,75.083 219.500,75.185 219.500 C 75.287 219.500,75.991 219.875,76.750 220.333 C 78.374 221.314,78.318 221.307,79.359 220.667 C 79.806 220.392,80.213 220.167,80.263 220.167 C 80.313 220.167,81.549 219.454,83.009 218.583 C 84.468 217.713,85.694 217.000,85.733 217.000 C 85.771 217.000,86.560 216.550,87.486 216.000 C 88.413 215.450,89.245 215.000,89.335 215.000 C 89.426 215.000,89.500 214.925,89.500 214.833 C 89.500 214.742,89.583 214.667,89.684 214.667 C 89.786 214.667,90.667 214.191,91.643 213.610 C 92.618 213.029,94.054 212.194,94.833 211.755 C 95.612 211.316,96.381 210.843,96.542 210.703 C 96.811 210.468,96.833 209.892,96.833 203.143 L 96.833 195.838 96.167 195.417 C 95.801 195.186,95.070 194.764,94.542 194.479 C 94.015 194.195,93.077 193.662,92.458 193.295 L 91.333 192.629 91.333 189.548 L 91.333 186.467 90.825 185.992 C 90.545 185.731,90.160 185.467,89.969 185.407 C 89.777 185.346,88.890 184.855,87.996 184.315 C 87.103 183.775,86.288 183.333,86.186 183.333 C 86.084 183.333,86.000 183.258,86.000 183.167 C 86.000 183.075,85.925 183.000,85.833 183.000 C 85.741 183.000,84.673 182.415,83.458 181.699 C 77.787 178.359,78.511 178.579,76.750 179.667 M81.967 182.326 C 82.122 182.410,83.086 182.970,84.107 183.572 C 85.129 184.174,86.048 184.667,86.149 184.667 C 86.250 184.667,86.333 184.742,86.333 184.833 C 86.333 184.925,86.427 185.005,86.542 185.011 C 86.656 185.018,87.462 185.452,88.333 185.976 L 89.917 186.929 89.963 189.309 L 90.009 191.689 89.130 191.202 C 87.537 190.321,86.928 189.973,85.978 189.400 C 85.462 189.088,84.956 188.833,84.853 188.833 C 84.751 188.833,84.667 188.777,84.667 188.708 C 84.667 188.639,84.310 188.397,83.875 188.170 C 83.440 187.943,82.361 187.325,81.477 186.796 C 80.594 186.266,79.788 185.833,79.686 185.833 C 79.584 185.833,79.499 185.777,79.499 185.708 C 79.497 185.548,78.681 185.167,78.342 185.167 C 78.200 185.167,77.460 185.542,76.698 186.000 C 75.937 186.458,75.277 186.833,75.233 186.833 C 75.189 186.833,74.764 187.096,74.287 187.417 C 73.811 187.737,73.359 188.000,73.282 188.000 C 73.206 188.000,72.816 188.225,72.417 188.500 C 72.017 188.775,71.610 189.000,71.512 189.000 C 71.414 189.000,71.333 189.075,71.333 189.167 C 71.333 189.258,71.250 189.333,71.149 189.333 C 71.048 189.333,69.867 189.994,68.524 190.803 L 66.083 192.272 63.980 191.000 L 61.877 189.728 63.313 188.917 C 64.104 188.470,65.744 187.519,66.958 186.802 C 68.173 186.086,69.199 185.500,69.239 185.500 C 69.280 185.500,70.190 184.975,71.262 184.333 C 72.334 183.692,73.244 183.167,73.285 183.167 C 73.346 183.167,75.429 181.958,77.894 180.492 C 78.372 180.209,78.375 180.210,80.028 181.191 C 80.938 181.732,81.811 182.243,81.967 182.326 M80.583 187.931 C 81.041 188.198,81.641 188.550,81.917 188.713 C 82.192 188.876,82.548 189.053,82.708 189.107 C 82.869 189.161,83.000 189.272,83.000 189.353 C 83.000 189.434,83.084 189.500,83.186 189.500 C 83.288 189.500,84.116 189.950,85.027 190.500 C 85.937 191.050,86.724 191.500,86.775 191.500 C 86.827 191.500,87.678 191.987,88.667 192.583 C 89.656 193.179,90.548 193.667,90.649 193.667 C 90.750 193.667,90.833 193.742,90.833 193.833 C 90.833 193.925,90.907 194.000,90.998 194.000 C 91.089 194.000,91.921 194.450,92.847 195.000 C 93.773 195.550,94.580 196.002,94.641 196.004 C 94.701 196.006,94.920 196.138,95.127 196.298 L 95.504 196.588 95.460 202.781 L 95.417 208.973 93.417 207.767 L 91.417 206.561 91.372 202.722 L 91.327 198.883 90.705 198.566 C 90.363 198.392,90.046 198.213,90.000 198.167 C 89.954 198.121,89.654 197.943,89.333 197.771 C 89.012 197.600,88.337 197.233,87.833 196.957 C 87.329 196.681,86.542 196.250,86.083 196.000 C 85.625 195.749,84.125 194.922,82.750 194.161 C 81.375 193.400,79.969 192.639,79.625 192.468 L 79.000 192.159 79.000 189.560 L 79.000 186.962 79.375 187.203 C 79.581 187.336,80.125 187.664,80.583 187.931 M77.667 189.650 L 77.667 192.134 75.461 193.442 C 74.248 194.161,73.180 194.779,73.086 194.815 C 72.993 194.851,71.736 195.582,70.294 196.440 C 68.851 197.298,67.595 198.000,67.502 198.000 C 67.409 198.000,67.333 198.075,67.333 198.167 C 67.333 198.258,67.219 198.333,67.079 198.333 C 66.860 198.333,66.831 197.989,66.871 195.884 L 66.917 193.434 70.333 191.379 C 73.572 189.432,74.247 189.041,75.124 188.603 C 75.329 188.501,75.498 188.360,75.499 188.292 C 75.499 188.223,75.594 188.165,75.708 188.164 C 75.823 188.162,76.254 187.942,76.667 187.674 C 77.079 187.407,77.473 187.183,77.542 187.177 C 77.610 187.171,77.667 188.284,77.667 189.650 M63.081 192.111 C 63.538 192.417,64.007 192.667,64.123 192.667 C 64.239 192.667,64.333 192.742,64.333 192.833 C 64.333 192.925,64.421 193.000,64.529 193.000 C 65.242 193.000,65.333 193.423,65.333 196.723 C 65.333 200.061,65.479 200.667,66.279 200.667 C 66.401 200.667,66.500 200.737,66.500 200.822 C 66.500 200.908,66.663 201.029,66.862 201.092 C 67.061 201.156,67.305 201.278,67.404 201.364 C 67.621 201.553,69.938 203.014,76.625 207.176 L 77.667 207.825 77.667 210.416 L 77.667 213.008 77.292 212.774 C 76.405 212.220,73.156 210.333,73.090 210.333 C 73.050 210.333,72.084 209.771,70.944 209.083 C 69.803 208.396,68.827 207.833,68.776 207.833 C 68.724 207.833,67.937 207.383,67.027 206.833 C 66.116 206.283,65.288 205.833,65.186 205.833 C 65.084 205.833,65.000 205.758,65.000 205.667 C 65.000 205.575,64.906 205.495,64.792 205.489 C 64.677 205.482,63.871 205.048,63.000 204.524 L 61.417 203.571 61.373 197.265 L 61.329 190.959 61.790 191.257 C 62.043 191.421,62.624 191.805,63.081 192.111 M79.088 193.724 C 79.386 193.927,80.648 194.633,82.417 195.588 C 84.045 196.466,85.462 197.250,86.000 197.570 C 86.322 197.761,86.959 198.104,87.417 198.333 C 87.875 198.563,88.275 198.806,88.306 198.875 C 88.336 198.944,88.449 199.001,88.556 199.003 C 89.427 199.014,89.243 199.465,88.083 200.164 C 87.717 200.385,87.379 200.611,87.333 200.667 C 87.287 200.722,86.950 200.947,86.583 201.167 C 86.217 201.386,85.879 201.612,85.833 201.668 C 85.787 201.724,85.262 202.061,84.667 202.417 C 84.071 202.772,83.546 203.109,83.500 203.165 C 83.454 203.222,83.117 203.447,82.750 203.667 C 82.383 203.886,82.046 204.111,82.000 204.167 C 81.954 204.222,81.617 204.447,81.250 204.667 C 80.883 204.886,80.546 205.111,80.500 205.167 C 80.454 205.222,80.117 205.448,79.750 205.669 C 79.383 205.890,78.984 206.167,78.863 206.285 C 78.458 206.680,77.859 206.379,73.833 203.755 C 73.237 203.367,72.412 202.848,72.000 202.601 C 70.680 201.811,70.585 201.752,70.500 201.657 C 70.454 201.606,69.762 201.166,68.961 200.678 C 67.359 199.702,67.358 199.701,68.322 199.240 C 68.693 199.062,68.997 198.860,68.998 198.792 C 68.999 198.723,69.080 198.667,69.177 198.667 C 69.275 198.667,70.549 197.954,72.009 197.083 C 73.468 196.213,74.739 195.500,74.831 195.500 C 74.924 195.500,75.000 195.425,75.000 195.333 C 75.000 195.242,75.094 195.165,75.208 195.162 C 75.323 195.159,76.017 194.786,76.750 194.333 C 78.157 193.464,78.554 193.360,79.088 193.724 M89.629 206.701 C 89.421 206.861,88.987 207.118,88.667 207.271 C 88.346 207.424,87.770 207.763,87.387 208.024 C 87.003 208.286,86.610 208.500,86.512 208.500 C 86.414 208.500,86.333 208.575,86.333 208.667 C 86.333 208.758,86.251 208.833,86.150 208.833 C 86.049 208.833,84.469 209.733,82.639 210.833 C 80.809 211.933,79.242 212.833,79.156 212.833 C 78.774 212.833,78.974 207.859,79.365 207.650 C 79.565 207.543,79.809 207.387,79.906 207.303 C 80.004 207.220,82.296 205.691,85.000 203.906 L 89.917 200.660 89.962 203.535 C 90.007 206.354,90.001 206.415,89.629 206.701 M94.000 209.827 C 94.046 209.882,94.257 210.000,94.468 210.091 C 94.826 210.244,94.762 210.308,93.560 211.003 C 91.842 211.996,90.920 212.523,89.923 213.085 C 89.468 213.341,88.428 213.951,87.610 214.442 C 86.793 214.932,86.088 215.333,86.044 215.333 C 86.001 215.333,85.129 215.826,84.107 216.428 C 83.086 217.030,82.122 217.590,81.967 217.674 C 81.811 217.757,80.938 218.268,80.028 218.809 C 78.375 219.790,78.372 219.791,77.894 219.508 C 75.429 218.042,73.346 216.833,73.285 216.833 C 73.244 216.833,72.334 216.308,71.262 215.667 C 70.190 215.025,69.286 214.500,69.254 214.500 C 69.222 214.500,68.664 214.194,68.015 213.819 L 66.833 213.138 66.833 210.819 C 66.833 208.318,66.877 208.215,67.667 208.833 C 67.896 209.013,68.133 209.161,68.193 209.163 C 68.253 209.165,69.060 209.617,69.986 210.167 C 70.913 210.717,71.745 211.167,71.835 211.167 C 71.926 211.167,72.000 211.242,72.000 211.333 C 72.000 211.425,72.083 211.500,72.184 211.500 C 72.286 211.500,73.178 211.987,74.167 212.583 C 75.156 213.179,76.001 213.667,76.045 213.667 C 76.090 213.667,76.562 213.929,77.095 214.250 C 77.628 214.571,78.184 214.833,78.332 214.833 C 78.679 214.833,79.497 214.454,79.499 214.292 C 79.499 214.223,79.581 214.167,79.679 214.167 C 79.778 214.167,81.784 213.013,84.138 211.604 C 89.962 208.116,89.879 208.164,90.208 208.057 C 90.369 208.004,90.500 207.897,90.500 207.819 C 90.500 207.692,93.792 209.581,94.000 209.827 " stroke="none" fill="#7c5cfc" fill-rule="evenodd"/><path id="path1" d="M109.750 189.401 C 109.658 189.436,109.133 189.597,108.583 189.759 C 103.652 191.212,102.557 197.446,106.793 199.948 C 107.772 200.526,108.777 200.804,110.894 201.083 C 113.914 201.481,115.116 202.329,114.949 203.943 C 114.720 206.160,111.806 207.280,109.167 206.164 C 108.200 205.756,106.000 204.241,106.000 203.984 C 106.000 203.901,105.897 203.833,105.770 203.833 C 105.487 203.833,103.500 205.953,103.500 206.254 C 103.500 206.634,105.374 208.153,106.500 208.686 C 107.096 208.968,107.711 209.265,107.866 209.345 C 108.021 209.426,108.834 209.583,109.672 209.694 C 115.271 210.440,119.173 207.414,118.594 202.775 C 118.199 199.614,116.121 198.085,111.428 197.501 C 109.072 197.209,107.833 196.381,107.834 195.101 C 107.837 192.233,112.738 191.662,115.187 194.244 C 115.772 194.859,116.011 194.776,117.054 193.596 C 118.183 192.318,118.160 192.501,117.292 191.659 C 115.558 189.980,111.471 188.756,109.750 189.401 M144.833 189.596 C 142.393 190.237,138.833 192.919,138.833 194.117 C 138.833 194.236,138.758 194.333,138.667 194.333 C 138.575 194.333,138.500 194.427,138.499 194.542 C 138.498 194.656,138.389 194.960,138.255 195.216 C 137.126 197.380,137.442 204.494,138.689 204.972 C 138.768 205.003,138.833 205.100,138.833 205.187 C 138.833 205.863,141.117 208.047,142.498 208.692 C 143.095 208.971,143.705 209.261,143.853 209.337 C 144.426 209.631,146.919 209.876,148.270 209.772 C 154.931 209.260,158.662 203.252,156.721 196.167 C 155.563 191.939,151.918 189.339,147.167 189.352 C 146.387 189.354,145.337 189.464,144.833 189.596 M168.250 189.429 C 163.045 190.664,160.009 194.481,160.001 199.799 C 159.999 201.532,160.878 204.512,161.707 205.583 C 162.908 207.135,164.211 208.220,165.592 208.820 C 166.045 209.017,166.547 209.251,166.706 209.339 C 167.723 209.905,172.827 209.906,173.392 209.341 C 173.488 209.245,173.668 209.167,173.792 209.167 C 174.448 209.167,176.779 207.738,177.572 206.850 C 177.894 206.490,177.893 206.488,177.058 205.286 C 176.117 203.933,175.925 203.832,175.333 204.377 C 173.209 206.332,169.947 206.968,167.662 205.873 C 161.436 202.890,163.356 192.667,170.141 192.667 C 171.103 192.667,173.998 193.573,173.999 193.875 C 174.000 193.944,174.081 194.000,174.180 194.000 C 174.279 194.000,174.692 194.272,175.097 194.604 C 175.968 195.318,175.966 195.319,177.103 193.655 L 177.890 192.504 177.403 192.079 C 175.109 190.077,170.790 188.827,168.250 189.429 M288.750 189.429 C 284.848 190.354,282.774 192.144,281.259 195.898 C 280.669 197.362,280.609 202.503,281.176 203.075 C 281.263 203.162,281.333 203.363,281.333 203.521 C 281.333 204.642,283.535 207.409,285.250 208.443 C 288.313 210.290,292.868 210.270,295.991 208.396 C 302.100 204.730,301.986 194.235,295.798 190.694 C 293.965 189.645,290.479 189.020,288.750 189.429 M329.500 189.432 C 328.803 189.560,327.304 190.035,326.847 190.273 C 326.611 190.397,326.323 190.498,326.208 190.499 C 326.094 190.500,326.000 190.575,326.000 190.667 C 326.000 190.758,325.918 190.833,325.818 190.833 C 325.306 190.833,322.833 193.295,322.833 193.804 C 322.833 193.897,322.777 193.997,322.708 194.028 C 322.490 194.125,321.843 195.710,321.563 196.833 C 321.220 198.210,321.319 201.853,321.730 203.000 C 322.903 206.268,324.209 207.622,327.873 209.363 C 328.032 209.438,328.876 209.590,329.748 209.701 C 332.982 210.109,336.739 209.233,338.934 207.559 L 339.500 207.127 339.500 202.897 L 339.500 198.667 335.264 198.667 C 330.099 198.667,330.500 198.539,330.500 200.184 L 330.500 201.500 333.250 201.500 L 336.000 201.500 336.000 203.488 L 336.000 205.476 335.102 205.901 C 333.971 206.436,331.791 206.707,330.312 206.496 C 323.290 205.497,323.266 193.946,330.282 192.646 C 331.886 192.349,335.500 193.187,335.500 193.856 C 335.500 193.935,335.583 194.000,335.684 194.000 C 335.786 194.000,336.091 194.188,336.364 194.417 C 337.065 195.007,337.158 194.968,338.129 193.670 C 339.196 192.245,339.201 192.372,338.042 191.511 C 335.753 189.813,332.178 188.942,329.500 189.432 M119.911 190.045 C 119.859 190.255,119.838 190.912,119.866 191.505 L 119.917 192.583 122.958 192.629 L 126.000 192.674 126.000 201.087 L 126.000 209.500 127.747 209.500 C 129.914 209.500,129.688 210.555,129.630 200.712 L 129.583 192.674 132.583 192.629 L 135.583 192.583 135.583 191.167 L 135.583 189.750 127.795 189.707 L 120.007 189.663 119.911 190.045 M180.745 189.869 C 180.700 189.987,180.683 194.433,180.707 199.750 L 180.750 209.417 182.500 209.417 L 184.250 209.417 184.296 206.856 L 184.342 204.295 184.963 203.523 C 185.304 203.098,185.665 202.675,185.766 202.583 C 185.866 202.492,186.115 202.173,186.319 201.875 C 186.823 201.138,186.761 201.089,188.167 203.350 C 188.854 204.456,189.510 205.462,189.625 205.585 C 189.740 205.709,189.833 205.885,189.833 205.976 C 189.833 206.068,189.927 206.245,190.042 206.370 C 190.156 206.495,190.340 206.744,190.450 206.924 C 190.560 207.103,190.957 207.756,191.332 208.375 L 192.015 209.500 194.174 209.500 C 196.712 209.500,196.637 209.646,195.211 207.466 C 194.593 206.522,194.012 205.624,193.919 205.469 C 193.128 204.156,192.590 203.302,191.419 201.500 C 190.675 200.354,189.906 199.158,189.712 198.842 L 189.358 198.267 189.718 197.761 C 189.917 197.482,190.192 197.135,190.331 196.989 C 190.664 196.639,191.063 196.157,192.188 194.750 C 192.700 194.108,193.802 192.765,194.636 191.765 C 196.451 189.589,196.474 189.667,194.001 189.667 L 192.022 189.667 191.386 190.454 C 191.036 190.886,190.625 191.393,190.472 191.579 C 189.740 192.471,189.038 193.342,188.583 193.924 C 188.308 194.276,187.858 194.838,187.583 195.174 C 187.308 195.509,186.858 196.066,186.583 196.410 C 186.308 196.754,185.835 197.346,185.531 197.726 C 184.296 199.271,184.426 199.630,184.333 194.417 L 184.250 189.750 182.539 189.702 C 181.263 189.667,180.807 189.709,180.745 189.869 M198.944 189.778 C 198.883 189.839,198.833 194.305,198.833 199.702 L 198.833 209.515 203.375 209.449 C 207.851 209.384,209.402 209.230,210.442 208.745 C 210.731 208.610,211.021 208.500,211.086 208.500 C 211.273 208.500,213.500 206.988,213.500 206.860 C 213.500 206.798,213.681 206.551,213.903 206.312 C 214.968 205.164,215.832 202.140,215.833 199.560 C 215.835 193.976,212.854 190.496,207.504 189.840 C 205.953 189.650,199.122 189.600,198.944 189.778 M221.444 189.778 C 221.383 189.839,221.333 190.589,221.333 191.444 L 221.333 193.000 222.434 193.000 C 223.401 193.000,223.522 193.034,223.427 193.283 C 223.368 193.438,223.199 193.944,223.052 194.408 C 222.905 194.871,222.721 195.321,222.643 195.408 C 222.564 195.495,222.500 195.672,222.500 195.800 C 222.500 195.928,222.396 196.269,222.270 196.558 C 222.143 196.847,221.815 197.721,221.540 198.500 C 220.281 202.067,219.790 203.441,219.666 203.750 C 219.593 203.933,219.367 204.571,219.164 205.167 C 218.961 205.762,218.691 206.486,218.564 206.775 C 218.437 207.064,218.333 207.371,218.333 207.458 C 218.333 207.545,218.227 207.833,218.097 208.099 C 217.967 208.366,217.835 208.771,217.805 209.000 L 217.750 209.417 219.631 209.464 L 221.511 209.511 221.742 208.964 C 221.868 208.663,222.222 207.648,222.528 206.708 L 223.083 205.000 227.083 205.042 L 231.083 205.083 231.832 207.292 L 232.580 209.500 234.429 209.500 C 235.446 209.500,236.319 209.459,236.369 209.409 C 236.453 209.324,235.908 207.693,234.671 204.333 C 234.384 203.554,233.937 202.317,233.676 201.583 C 233.416 200.850,232.867 199.313,232.455 198.167 C 232.044 197.021,231.294 194.921,230.787 193.500 C 229.576 190.101,229.513 189.945,229.281 189.798 C 229.037 189.642,221.599 189.624,221.444 189.778 M237.446 189.776 C 237.384 189.838,237.333 190.514,237.333 191.278 L 237.333 192.667 240.333 192.667 L 243.333 192.667 243.333 201.089 L 243.333 209.511 245.125 209.464 L 246.917 209.417 246.960 201.042 L 247.003 192.667 250.008 192.667 L 253.013 192.667 252.965 191.208 L 252.917 189.750 245.238 189.707 C 241.014 189.683,237.508 189.714,237.446 189.776 M257.444 189.778 C 257.383 189.839,257.333 190.589,257.333 191.444 L 257.333 193.000 258.401 193.000 C 259.573 193.000,259.619 193.082,259.055 194.162 C 258.934 194.394,258.835 194.700,258.834 194.842 C 258.834 194.984,258.765 195.171,258.682 195.258 C 258.599 195.345,258.456 195.679,258.364 196.000 C 258.167 196.685,257.386 198.936,257.178 199.417 C 257.098 199.600,256.756 200.537,256.417 201.500 C 256.078 202.463,255.739 203.400,255.664 203.583 C 255.589 203.767,255.452 204.142,255.360 204.417 C 255.268 204.692,254.850 205.883,254.430 207.065 C 254.010 208.247,253.667 209.280,253.667 209.362 C 253.667 209.444,254.540 209.489,255.607 209.464 L 257.546 209.417 258.270 207.250 C 258.668 206.058,258.995 205.065,258.997 205.042 C 258.998 205.019,260.794 205.000,262.986 205.000 L 266.972 205.000 267.251 205.792 C 267.404 206.227,267.588 206.698,267.660 206.839 C 267.732 206.979,267.845 207.341,267.911 207.642 C 267.977 207.943,268.136 208.390,268.265 208.636 C 268.393 208.882,268.498 209.177,268.499 209.292 C 268.500 209.446,268.995 209.500,270.417 209.500 C 272.581 209.500,272.514 209.557,271.988 208.164 C 271.797 207.661,271.573 207.025,271.490 206.750 C 271.407 206.475,271.267 206.100,271.180 205.917 C 271.039 205.620,270.713 204.704,269.227 200.417 C 269.004 199.775,268.757 199.100,268.678 198.917 C 268.599 198.733,268.306 197.946,268.027 197.167 C 267.748 196.387,267.183 194.813,266.772 193.667 C 266.361 192.521,265.973 191.376,265.911 191.123 C 265.848 190.870,265.730 190.622,265.648 190.572 C 265.567 190.522,265.500 190.343,265.500 190.175 C 265.500 190.007,265.381 189.823,265.236 189.768 C 264.876 189.630,257.583 189.639,257.444 189.778 M304.444 189.778 C 304.383 189.839,304.333 194.301,304.333 199.694 L 304.333 209.500 306.083 209.500 L 307.833 209.500 307.833 206.000 L 307.833 202.500 309.479 202.500 L 311.126 202.500 312.063 204.071 C 312.578 204.934,313.000 205.675,313.000 205.716 C 313.000 205.757,313.414 206.494,313.920 207.354 C 314.426 208.213,314.903 209.029,314.980 209.167 C 315.119 209.416,318.575 209.635,319.115 209.428 C 319.348 209.338,319.277 209.180,318.207 207.417 C 316.430 204.488,315.333 202.603,315.333 202.478 C 315.333 202.398,315.258 202.333,315.167 202.333 C 314.782 202.333,315.047 201.983,315.674 201.663 C 317.725 200.616,318.833 198.588,318.833 195.879 C 318.833 192.571,316.869 190.317,313.570 189.840 C 312.289 189.655,304.620 189.603,304.444 189.778 M148.839 192.934 C 152.660 194.069,154.390 199.064,152.410 203.248 C 150.458 207.374,144.377 207.506,142.316 203.467 C 139.471 197.888,143.518 191.353,148.839 192.934 M207.162 192.916 C 210.588 193.636,211.917 195.524,211.917 199.667 C 211.917 204.639,210.046 206.399,204.750 206.411 L 202.417 206.417 202.373 199.542 L 202.330 192.667 204.154 192.667 C 205.157 192.667,206.511 192.779,207.162 192.916 M291.976 192.908 C 293.963 193.437,295.062 194.531,296.237 197.150 C 296.718 198.222,296.220 203.333,295.635 203.333 C 295.561 203.333,295.500 203.437,295.500 203.564 C 295.500 203.995,293.673 205.706,292.987 205.917 C 292.765 205.985,292.486 206.119,292.367 206.214 C 291.982 206.523,289.342 206.409,288.439 206.044 C 284.333 204.388,283.332 197.582,286.710 194.292 C 287.157 193.856,287.630 193.500,287.761 193.500 C 287.892 193.500,288.000 193.433,288.000 193.351 C 288.000 192.862,290.679 192.563,291.976 192.908 M313.535 193.137 C 314.888 193.803,315.419 195.255,315.011 197.173 C 314.605 199.085,313.990 199.401,310.542 199.473 L 307.833 199.529 307.833 196.082 L 307.833 192.636 310.292 192.693 C 312.458 192.743,312.843 192.796,313.535 193.137 M227.574 194.708 C 227.818 195.465,228.085 196.233,228.166 196.417 C 228.423 196.993,230.000 201.837,230.000 202.048 C 230.000 202.199,229.241 202.250,227.030 202.250 L 224.061 202.250 224.350 201.333 C 224.509 200.829,224.873 199.742,225.159 198.917 C 225.445 198.092,225.980 196.498,226.348 195.375 C 227.143 192.951,227.028 193.013,227.574 194.708 M263.828 195.672 C 264.201 196.815,264.570 197.865,264.649 198.005 C 264.727 198.146,264.848 198.519,264.917 198.833 C 264.986 199.148,265.107 199.521,265.185 199.661 C 265.373 199.997,266.000 201.857,266.000 202.078 C 266.000 202.190,264.956 202.250,263.000 202.250 C 261.350 202.250,260.000 202.246,260.000 202.241 C 260.000 202.186,262.682 194.291,262.821 193.935 C 263.067 193.307,263.042 193.264,263.828 195.672 M274.071 206.222 C 274.024 206.343,274.008 207.112,274.035 207.930 L 274.083 209.417 275.863 209.464 L 277.644 209.511 277.697 207.918 C 277.726 207.043,277.725 206.253,277.694 206.163 C 277.604 205.898,274.174 205.954,274.071 206.222 " stroke="none" fill="#444444" fill-rule="evenodd"/></g></svg>
