<svg xmlns="http://www.w3.org/2000/svg" width="250" height="250" fill="none"><path fill="url(#a)" d="M35.342 174.02c-1.99 3.254-4.245 7.067-6.025 10.087a6.116 6.116 0 0 0-.633 4.517c.18.765.513 1.476.965 2.112a6.194 6.194 0 0 0 1.682 1.604l39.986 24.737a6.061 6.061 0 0 0 2.27.847 6.06 6.06 0 0 0 2.42-.098 6.226 6.226 0 0 0 2.194-1.029 6.066 6.066 0 0 0 1.621-1.801c1.614-2.694 3.657-6.183 5.852-9.906 15.849-26.084 31.91-22.89 60.601-9.201l39.662 18.872a6.11 6.11 0 0 0 6.862-1.074 6.128 6.128 0 0 0 1.41-2.006l19.039-43.079a6.078 6.078 0 0 0 .528-2.301 6.098 6.098 0 0 0-.37-2.323 6.246 6.246 0 0 0-1.206-2.02 6.196 6.196 0 0 0-1.878-1.423c-8.362-3.95-25.003-11.721-39.918-19.046-54.252-26.266-100.03-24.533-135.062 32.531Z"/><path fill="url(#b)" d="M214.629 76.094a458.273 458.273 0 0 0 6.024-10.08 6.22 6.22 0 0 0 .777-2.247 6.12 6.12 0 0 0-.128-2.369 6.189 6.189 0 0 0-2.783-3.738l-39.925-24.737a6.116 6.116 0 0 0-4.691-.75 6.223 6.223 0 0 0-2.194 1.03 6.184 6.184 0 0 0-1.628 1.8c-1.576 2.695-3.658 6.183-5.852 9.906-15.91 26.205-31.82 23.012-60.541 9.323l-39.624-18.88a6.232 6.232 0 0 0-2.353-.613 6.05 6.05 0 0 0-2.405.34 6.094 6.094 0 0 0-2.081 1.25 6.132 6.132 0 0 0-1.44 1.96l-19.04 43.2a6.219 6.219 0 0 0-.173 4.638c.271.75.686 1.438 1.214 2.029a6.119 6.119 0 0 0 1.885 1.422c8.392 3.958 25.034 11.722 39.918 19.054 54.11 26.258 100.03 24.533 135.04-32.538Z"/><defs><linearGradient id="a" x1="211.966" x2="90.957" y1="229.886" y2="160.588" gradientUnits="userSpaceOnUse"><stop stop-color="#0052CC"/><stop offset=".92" stop-color="#2380FB"/><stop offset="1" stop-color="#2684FF"/></linearGradient><linearGradient id="b" x1="37.999" x2="159.038" y1="20.203" y2="89.501" gradientUnits="userSpaceOnUse"><stop stop-color="#0052CC"/><stop offset=".92" stop-color="#2380FB"/><stop offset="1" stop-color="#2684FF"/></linearGradient></defs></svg>