<?xml version="1.0" encoding="UTF-8"?>
<svg version="1.1" xmlns="http://www.w3.org/2000/svg" width="32" height="32">
<path d="M0 0 C0 3.96 0 7.92 0 12 C2.475 12.99 2.475 12.99 5 14 C5.99 14.66 6.98 15.32 8 16 C8.1875 18.625 8.1875 18.625 8 21 C7.21625 20.835 6.4325 20.67 5.625 20.5 C3.11791961 19.9376293 3.11791961 19.9376293 1 20 C3.64 21.65 6.28 23.3 9 25 C8.34 26.32 7.68 27.64 7 29 C2.38088913 29.46359689 0.04720642 28.11278594 -3.75 25.5625 C-4.71421875 24.92441406 -5.6784375 24.28632813 -6.671875 23.62890625 C-9 22 -9 22 -10 21 C-11.39797059 7.0838382 -11.39797059 7.0838382 -8.54296875 2.828125 C-5.71424456 0.803354 -3.47155008 0 0 0 Z " fill="#EF4E23" transform="translate(11,3)"/>
<path d="M0 0 C4.61911087 -0.46359689 6.95279358 0.88721406 10.75 3.4375 C11.71421875 4.07558594 12.6784375 4.71367188 13.671875 5.37109375 C16 7 16 7 17 8 C18.39797059 21.9161618 18.39797059 21.9161618 15.54296875 26.171875 C12.71424456 28.196646 10.47155008 29 7 29 C7 25.04 7 21.08 7 17 C6.05125 16.71125 5.1025 16.4225 4.125 16.125 C1 15 1 15 -1 13 C-1.125 10.375 -1.125 10.375 -1 8 C-0.21625 8.165 0.5675 8.33 1.375 8.5 C3.88208039 9.0623707 3.88208039 9.0623707 6 9 C3.36 7.35 0.72 5.7 -2 4 C-1.34 2.68 -0.68 1.36 0 0 Z " fill="#EF4E23" transform="translate(14,0)"/>
</svg>
