<?xml version="1.0" encoding="UTF-8"?>
<svg xmlns="http://www.w3.org/2000/svg" xmlns:xlink="http://www.w3.org/1999/xlink" width="250px" height="250px" viewBox="0 0 250 250" version="1.1">
<g id="surface1">
<path style=" stroke:none;fill-rule:nonzero;fill:rgb(100%,100%,100%);fill-opacity:1;" d="M 125 250 C 194.035156 250 250 194.035156 250 125 C 250 55.964844 194.035156 0 125 0 C 55.964844 0 0 55.964844 0 125 C 0 194.035156 55.964844 250 125 250 Z M 125 250 "/>
<path style=" stroke:none;fill-rule:evenodd;fill:rgb(0%,0%,0%);fill-opacity:1;" d="M 202.554688 157.964844 L 195.402344 157.964844 C 193.316406 157.964844 191.324219 157.082031 189.933594 155.539062 L 169.792969 133.195312 L 163.238281 140.46875 L 182.648438 162.007812 C 185.890625 165.601562 190.539062 167.664062 195.402344 167.664062 L 202.554688 167.664062 C 203.90625 167.664062 205 166.578125 205 165.238281 L 205 160.390625 C 205 159.050781 203.90625 157.964844 202.554688 157.964844 Z M 80.207031 133.195312 L 60.066406 155.539062 C 58.675781 157.082031 56.683594 157.964844 54.597656 157.964844 L 47.445312 157.964844 C 46.09375 157.964844 45 159.050781 45 160.390625 L 45 165.238281 C 45 166.578125 46.09375 167.664062 47.445312 167.664062 L 54.597656 167.664062 C 59.460938 167.664062 64.109375 165.601562 67.351562 162.007812 L 86.761719 140.46875 Z M 125 158.597656 C 120.832031 158.597656 116.847656 156.828125 114.070312 153.746094 L 60.066406 93.832031 C 58.675781 92.289062 56.683594 91.40625 54.597656 91.40625 L 47.445312 91.40625 C 46.09375 91.40625 45 90.320312 45 88.980469 L 45 84.132812 C 45 82.792969 46.09375 81.707031 47.445312 81.707031 L 54.597656 81.707031 C 59.460938 81.707031 64.109375 83.769531 67.351562 87.363281 L 121.253906 147.164062 C 122.15625 148.167969 123.414062 148.832031 124.773438 148.890625 C 126.269531 148.957031 127.652344 148.378906 128.644531 147.28125 L 182.648438 87.363281 C 185.890625 83.769531 190.539062 81.707031 195.402344 81.707031 L 202.554688 81.707031 C 203.90625 81.707031 205 82.792969 205 84.132812 L 205 88.980469 C 205 90.320312 203.90625 91.40625 202.554688 91.40625 L 195.402344 91.40625 C 193.316406 91.40625 191.324219 92.289062 189.933594 93.832031 L 135.929688 153.746094 C 133.152344 156.828125 129.167969 158.597656 125 158.597656 Z M 125 158.597656 "/>
</g>
</svg>
