<?xml version="1.0" encoding="UTF-8"?>
<svg xmlns="http://www.w3.org/2000/svg" xmlns:xlink="http://www.w3.org/1999/xlink" width="250px" height="250px" viewBox="0 0 250 250" version="1.1">
<g id="surface1">
<rect x="0" y="0" width="250" height="250" style="fill:rgb(5.490196%,20.784314%,50.588238%);fill-opacity:1;stroke:none;"/>
<path style=" stroke:none;fill-rule:nonzero;fill:rgb(100%,100%,100%);fill-opacity:1;" d="M 95.875 139.710938 C 94.472656 140.644531 92.917969 141.425781 91.203125 141.890625 C 89.335938 142.359375 87.46875 142.671875 85.445312 142.671875 C 83.109375 142.671875 80.929688 142.359375 78.75 141.425781 C 77.039062 140.644531 75.480469 139.402344 74.234375 138 C 72.988281 136.285156 72.210938 134.574219 71.746094 132.550781 C 71.277344 130.214844 70.964844 127.878906 70.964844 125.390625 C 70.964844 119.785156 72.210938 115.582031 74.703125 112.625 C 77.195312 109.664062 80.773438 108.109375 85.601562 108.109375 C 87.625 108.109375 89.492188 108.265625 91.359375 108.730469 C 92.761719 109.042969 94.164062 109.664062 95.410156 110.289062 L 93.382812 117.136719 C 92.449219 116.671875 91.359375 116.359375 90.425781 116.046875 C 89.335938 115.738281 88.246094 115.582031 87 115.582031 C 84.667969 115.582031 82.796875 116.359375 81.550781 117.917969 C 80.308594 119.472656 79.683594 121.964844 79.683594 125.390625 C 79.683594 126.632812 79.839844 128.035156 80.152344 129.28125 C 80.460938 130.371094 80.929688 131.460938 81.550781 132.394531 C 82.175781 133.328125 82.953125 133.953125 83.886719 134.417969 C 84.976562 134.886719 86.066406 135.195312 87.3125 135.195312 C 88.558594 135.195312 89.804688 135.042969 91.050781 134.574219 C 91.984375 134.261719 92.917969 133.796875 93.695312 133.328125 Z M 100.855469 110.910156 C 102.882812 109.976562 104.90625 109.507812 107.085938 109.042969 C 109.574219 108.574219 112.066406 108.265625 114.558594 108.265625 C 116.582031 108.265625 118.449219 108.574219 120.316406 109.042969 C 123.121094 109.976562 125.144531 112.15625 125.921875 114.957031 C 126.390625 116.515625 126.542969 118.070312 126.390625 119.628906 C 126.390625 121.652344 126.390625 123.519531 126.234375 125.390625 C 126.078125 127.414062 125.921875 129.28125 125.921875 131.148438 C 125.921875 133.019531 125.921875 134.886719 126.078125 136.597656 C 126.234375 138.3125 126.542969 140.023438 127.011719 141.582031 L 120.316406 141.582031 L 118.917969 137.066406 L 118.605469 137.066406 C 117.671875 138.464844 116.425781 139.710938 115.023438 140.492188 C 113.15625 141.582031 111.132812 142.046875 108.953125 142.046875 C 107.550781 142.046875 106.148438 141.734375 104.75 141.269531 C 102.414062 140.492188 100.546875 138.621094 99.457031 136.285156 C 98.988281 135.042969 98.675781 133.796875 98.675781 132.394531 C 98.675781 130.683594 99.144531 128.8125 100.078125 127.257812 C 101.011719 125.855469 102.414062 124.609375 103.972656 123.832031 C 105.839844 122.898438 108.019531 122.277344 110.042969 122.121094 C 112.6875 121.808594 115.335938 121.652344 117.828125 121.808594 C 118.136719 119.316406 117.980469 117.605469 117.359375 116.515625 C 116.738281 115.425781 115.179688 114.957031 113 114.957031 C 111.132812 114.957031 109.417969 115.113281 107.550781 115.425781 C 105.996094 115.738281 104.28125 116.203125 102.882812 116.828125 Z M 111.753906 135.351562 C 113.15625 135.351562 114.558594 135.042969 115.800781 134.261719 C 116.738281 133.640625 117.515625 132.707031 117.980469 131.773438 L 117.980469 127.570312 C 116.738281 127.414062 115.335938 127.414062 114.089844 127.570312 C 113 127.570312 111.910156 127.878906 110.820312 128.191406 C 110.042969 128.503906 109.109375 128.96875 108.484375 129.4375 C 107.863281 130.058594 107.550781 130.839844 107.707031 131.617188 C 107.707031 132.707031 108.019531 133.640625 108.796875 134.417969 C 109.574219 135.042969 110.664062 135.351562 111.753906 135.351562 Z M 147.25 132.707031 C 147.25 131.929688 146.785156 130.992188 146.160156 130.683594 C 145.226562 130.058594 144.449219 129.59375 143.359375 129.28125 C 142.269531 128.8125 141.023438 128.347656 139.777344 127.878906 C 138.53125 127.414062 137.285156 126.789062 136.195312 126.011719 C 135.105469 125.234375 134.171875 124.144531 133.394531 122.898438 C 132.617188 121.339844 132.148438 119.785156 132.304688 118.070312 C 132.304688 114.804688 133.238281 112.46875 135.261719 110.597656 C 137.132812 109.042969 139.933594 108.265625 143.667969 108.265625 C 145.847656 108.265625 148.183594 108.574219 150.363281 109.042969 C 152.078125 109.355469 153.632812 109.976562 155.035156 110.753906 L 153.011719 116.828125 C 152.078125 116.359375 150.832031 116.046875 149.273438 115.582031 C 147.71875 115.113281 146.160156 114.957031 144.605469 114.957031 C 142.113281 114.957031 140.867188 115.890625 140.867188 117.917969 C 140.867188 118.695312 141.335938 119.472656 141.957031 119.785156 C 142.890625 120.25 143.667969 120.71875 144.757812 121.1875 C 145.847656 121.652344 147.09375 122.121094 148.339844 122.585938 C 149.585938 123.054688 150.832031 123.675781 151.921875 124.457031 C 153.011719 125.234375 153.945312 126.167969 154.722656 127.414062 C 155.5 128.8125 155.96875 130.527344 155.8125 132.082031 C 155.8125 135.351562 154.722656 138 152.542969 139.867188 C 150.363281 141.734375 147.25 142.671875 142.890625 142.671875 C 140.710938 142.671875 138.53125 142.359375 136.351562 141.734375 C 134.640625 141.269531 132.929688 140.492188 131.371094 139.710938 L 133.707031 133.328125 C 134.953125 134.109375 136.351562 134.574219 137.753906 135.042969 C 139.464844 135.507812 141.179688 135.820312 142.890625 135.820312 C 143.980469 135.820312 145.070312 135.664062 145.847656 135.042969 C 146.9375 134.730469 147.40625 133.796875 147.25 132.707031 Z M 157.992188 109.042969 L 162.507812 109.042969 L 162.507812 102.816406 L 171.070312 100.324219 L 171.070312 108.886719 L 179.011719 108.886719 L 179.011719 116.046875 L 171.070312 116.046875 L 171.070312 128.660156 C 171.070312 130.839844 171.382812 132.550781 171.847656 133.640625 C 172.316406 134.730469 173.40625 135.195312 174.496094 135.195312 C 175.273438 135.195312 176.050781 135.195312 176.675781 134.886719 C 177.453125 134.730469 178.074219 134.417969 178.855469 134.109375 L 180.410156 140.644531 C 179.164062 141.269531 177.609375 141.734375 176.207031 142.046875 C 174.652344 142.515625 172.9375 142.671875 171.382812 142.671875 C 168.421875 142.671875 166.089844 141.890625 164.6875 140.335938 C 163.285156 138.777344 162.507812 136.285156 162.507812 132.707031 L 162.507812 116.203125 L 157.992188 116.203125 Z M 182.433594 125.390625 C 182.433594 119.785156 183.835938 115.582031 186.484375 112.625 C 189.285156 109.664062 193.019531 108.109375 198.003906 108.109375 C 200.339844 108.109375 202.671875 108.417969 204.851562 109.355469 C 206.722656 110.132812 208.277344 111.378906 209.679688 112.777344 C 210.925781 114.335938 212.015625 116.203125 212.480469 118.226562 C 213.105469 120.5625 213.414062 122.898438 213.414062 125.390625 C 213.414062 130.992188 212.015625 135.195312 209.367188 138.15625 C 206.722656 141.113281 202.828125 142.671875 198.003906 142.671875 C 195.667969 142.671875 193.332031 142.203125 191.152344 141.425781 C 189.285156 140.644531 187.726562 139.402344 186.328125 138 C 184.925781 136.441406 183.992188 134.574219 183.367188 132.550781 C 182.746094 130.214844 182.433594 127.878906 182.433594 125.390625 Z M 191.308594 125.390625 C 191.308594 126.789062 191.464844 128.035156 191.777344 129.4375 C 192.085938 130.527344 192.398438 131.617188 193.019531 132.707031 C 193.488281 133.640625 194.265625 134.261719 195.046875 134.886719 C 195.980469 135.351562 197.070312 135.664062 198.003906 135.664062 C 200.183594 135.664062 201.894531 134.886719 202.984375 133.171875 C 204.074219 131.617188 204.699219 128.96875 204.699219 125.542969 C 204.699219 122.585938 204.230469 120.097656 203.140625 118.226562 C 202.207031 116.359375 200.339844 115.425781 198.003906 115.425781 C 195.980469 115.425781 194.265625 116.203125 193.019531 117.761719 C 191.929688 119.316406 191.308594 121.808594 191.308594 125.390625 Z M 237.546875 116.980469 C 236.300781 116.515625 235.054688 116.203125 233.808594 116.203125 C 232.410156 116.203125 231.007812 116.515625 229.917969 117.449219 C 228.984375 118.226562 228.207031 119.316406 227.894531 120.5625 L 227.894531 141.734375 L 219.332031 141.734375 L 219.332031 109.042969 L 226.027344 109.042969 L 226.960938 113.402344 L 227.269531 113.402344 C 227.894531 111.84375 228.984375 110.597656 230.230469 109.664062 C 231.476562 108.730469 233.1875 108.265625 234.742188 108.417969 C 235.988281 108.417969 237.390625 108.730469 238.636719 109.199219 Z M 48.859375 118.851562 C 46.367188 116.046875 43.722656 114.492188 42.941406 115.113281 C 42.164062 115.738281 44.03125 118.070312 44.8125 120.40625 C 48.082031 130.371094 42.476562 141.113281 32.355469 144.382812 C 27.84375 145.785156 23.015625 145.472656 18.65625 143.605469 C 16.164062 142.515625 14.921875 140.644531 13.984375 141.425781 C 13.050781 142.203125 13.675781 144.382812 16.164062 147.183594 C 23.949219 156.214844 37.648438 157.148438 46.679688 149.363281 C 55.863281 141.425781 56.800781 127.878906 48.859375 118.851562 Z M 16.632812 131.148438 C 19.125 133.953125 21.769531 135.507812 22.550781 134.886719 C 23.328125 134.261719 21.460938 131.929688 20.679688 129.59375 C 17.410156 119.628906 23.015625 108.886719 33.136719 105.617188 C 37.648438 104.214844 42.476562 104.527344 46.835938 106.394531 C 49.328125 107.484375 50.570312 109.355469 51.503906 108.574219 C 52.441406 107.796875 51.816406 105.617188 49.328125 102.816406 C 41.542969 93.785156 27.84375 92.851562 18.8125 100.636719 C 9.78125 108.574219 8.847656 122.121094 16.632812 131.148438 Z M 32.824219 116.980469 C 29.710938 116.980469 27.0625 120.25 27.0625 124.457031 C 27.0625 128.660156 29.554688 131.929688 32.824219 131.929688 C 35.9375 131.929688 38.585938 128.660156 38.585938 124.457031 C 38.585938 120.25 35.9375 116.980469 32.824219 116.980469 Z M 32.824219 116.980469 "/>
</g>
</svg>
