<?xml version="1.0" encoding="UTF-8" standalone="no"?>
<!-- Created with Inkscape (http://www.inkscape.org/) -->

<svg
   xmlns:dc="http://purl.org/dc/elements/1.1/"
   xmlns:cc="http://creativecommons.org/ns#"
   xmlns:rdf="http://www.w3.org/1999/02/22-rdf-syntax-ns#"
   xmlns:svg="http://www.w3.org/2000/svg"
   xmlns="http://www.w3.org/2000/svg"
   xmlns:sodipodi="http://sodipodi.sourceforge.net/DTD/sodipodi-0.dtd"
   xmlns:inkscape="http://www.inkscape.org/namespaces/inkscape"
   width="84.626701"
   height="19.86491"
   viewBox="0 0 22.390815 5.255924"
   version="1.1"
   id="svg1895"
   inkscape:version="0.92.0 r15299"
   sodipodi:docname="flexport.svg">
  <defs
     id="defs1889">
    <clipPath
       id="clipPath1470"
       clipPathUnits="userSpaceOnUse">
      <path
         inkscape:connector-curvature="0"
         id="path1468"
         d="m 1082.215,708.803 h 62.72 v 14.149 h -62.72 z" />
    </clipPath>
  </defs>
  <sodipodi:namedview
     id="base"
     pagecolor="#ffffff"
     bordercolor="#666666"
     borderopacity="1.0"
     inkscape:pageopacity="0.0"
     inkscape:pageshadow="2"
     inkscape:zoom="10.726244"
     inkscape:cx="41.813349"
     inkscape:cy="9.4322325"
     inkscape:document-units="mm"
     inkscape:current-layer="layer1"
     showgrid="false"
     fit-margin-top="0"
     fit-margin-left="0"
     fit-margin-right="0"
     fit-margin-bottom="0"
     units="px"
     inkscape:window-width="1280"
     inkscape:window-height="744"
     inkscape:window-x="-4"
     inkscape:window-y="-4"
     inkscape:window-maximized="1" />
  <metadata
     id="metadata1892">
    <rdf:RDF>
      <cc:Work
         rdf:about="">
        <dc:format>image/svg+xml</dc:format>
        <dc:type
           rdf:resource="http://purl.org/dc/dcmitype/StillImage" />
        <dc:title></dc:title>
      </cc:Work>
    </rdf:RDF>
  </metadata>
  <g
     inkscape:label="Layer 1"
     inkscape:groupmode="layer"
     id="layer1"
     transform="translate(-120.4726,-174.79922)">
    <g
       id="g2048"
       transform="translate(0.13229237,-0.13228786)">
      <path
         inkscape:connector-curvature="0"
         id="path1476"
         style="fill:#324354;fill-opacity:1;fill-rule:nonzero;stroke:none;stroke-width:0.17606683"
         d="m 122.95232,178.21382 v -3.1408 h 1.00358 v 3.0115 c 0,0.212 0.0457,0.26376 0.25848,0.26376 h 0.0863 l 0.11817,0.83096 c -0.076,0.0103 -0.38693,0.0329 -0.57447,0.0329 -0.55251,0 -0.89203,-0.19653 -0.89203,-0.99832" />
      <path
         inkscape:connector-curvature="0"
         id="path1482"
         style="fill:#324354;fill-opacity:1;fill-rule:nonzero;stroke:none;stroke-width:0.17606683"
         d="m 132.74329,177.7535 c 0,-0.34647 -0.0608,-0.65167 -0.49674,-0.65167 -0.46623,0 -0.60323,0.24313 -0.60323,0.65167 0,0.40854 0.10144,0.63104 0.60323,0.63104 0.4258,0 0.49674,-0.28457 0.49674,-0.63104 m -2.10355,-1.45808 0.78049,-0.0621 0.0762,0.23745 c 0.15703,-0.15012 0.43085,-0.30005 1.01874,-0.30005 1.01386,0 1.24689,0.7294 1.24689,1.54132 0,0.81726 -0.25847,1.53634 -1.30772,1.53634 -0.46623,0 -0.68427,-0.10867 -0.81099,-0.22766 v 1.03442 h -1.00358 z" />
      <path
         inkscape:connector-curvature="0"
         id="path1488"
         style="fill:#324354;fill-opacity:1;fill-rule:nonzero;stroke:none;stroke-width:0.17606683"
         d="m 137.34249,176.29544 0.78049,-0.0621 0.10143,0.30983 c 0.12672,-0.17591 0.47652,-0.32584 0.89221,-0.34131 v 0.98569 c -0.66911,0.005 -0.77055,0.20898 -0.77055,0.61254 v 1.4017 h -1.00358 z" />
      <path
         inkscape:connector-curvature="0"
         id="path1494"
         style="fill:#324354;fill-opacity:1;fill-rule:nonzero;stroke:none;stroke-width:0.17606683"
         d="m 139.39654,176.20352 h 0.51695 l 0.1621,-0.60169 0.7756,-0.17075 v 0.77244 h 0.63356 v 0.98516 h -0.63356 v 0.85461 c 0,0.20169 0.0305,0.30502 0.34458,0.30502 h 0.28898 v 0.85337 c -0.15199,0.0103 -0.31931,0.0155 -0.50685,0.0155 -0.84654,0 -1.12523,-0.27408 -1.12523,-1.01877 v -1.0097 h -0.45613 z" />
      <path
         d="m 142.59883,179.20113 h -0.83591 v -0.85301 h 0.83591 z"
         style="fill:#fa5959;fill-opacity:1;fill-rule:nonzero;stroke:none;stroke-width:0.17606683"
         id="path1498"
         inkscape:connector-curvature="0" />
      <path
         inkscape:connector-curvature="0"
         id="path1504"
         style="fill:#324354;fill-opacity:1;fill-rule:nonzero;stroke:none;stroke-width:0.17606683"
         d="m 120.4726,176.23801 h 0.54728 v -0.0569 c 0,-0.7447 0.27382,-1.11731 1.21657,-1.11731 0.24837,0 0.29386,0.005 0.41551,0.0156 v 0.83273 h -0.27869 c -0.28881,0 -0.34963,0.0724 -0.34963,0.26377 v 0.0621 h 0.62832 v 0.86884 h -0.62832 v 2.09481 h -1.00376 v -2.09481 h -0.54728 z" />
      <path
         inkscape:connector-curvature="0"
         id="path1510"
         style="fill:#324354;fill-opacity:1;fill-rule:nonzero;stroke:none;stroke-width:0.17606683"
         d="m 125.99062,177.01076 c 0.41308,0 0.4434,0.20045 0.45839,0.44216 h -1.03269 c 0.0403,-0.2828 0.17133,-0.44216 0.5743,-0.44216 m 0.61282,1.30655 c -0.16593,0.0991 -0.25151,0.1213 -0.58267,0.1213 -0.39285,0 -0.54397,-0.14265 -0.59434,-0.38418 h 1.92943 c 0.0352,-1.04367 -0.0504,-1.88672 -1.33509,-1.88672 -1.28959,0 -1.56167,0.72477 -1.56167,1.5319 0,0.82775 0.27208,1.55643 1.56167,1.55643 0.50859,0 0.82929,-0.0962 1.16969,-0.32192 z" />
      <path
         inkscape:connector-curvature="0"
         id="path1516"
         style="fill:#324354;fill-opacity:1;fill-rule:nonzero;stroke:none;stroke-width:0.17606683"
         d="m 129.3457,179.20299 -0.4922,-0.71784 -0.49203,0.71784 h -1.12193 l 1.05029,-1.52691 -0.95391,-1.37965 1.13413,-8.9e-4 0.38833,0.5631 0.38867,-0.56292 1.14668,7.1e-4 -0.97204,1.37289 1.05343,1.53367 z" />
      <path
         inkscape:connector-curvature="0"
         id="path1522"
         style="fill:#324354;fill-opacity:1;fill-rule:nonzero;stroke:none;stroke-width:0.17606683"
         d="m 136.10874,177.74315 c 0,-0.37244 -0.0912,-0.64136 -0.56262,-0.64136 -0.47129,0 -0.56262,0.26892 -0.56262,0.64136 0,0.36728 0.0913,0.64136 0.56262,0.64136 0.47146,0 0.56262,-0.27408 0.56262,-0.64136 m -2.13893,-0.0311 c 0,-0.98248 0.44096,-1.54132 1.57631,-1.54132 1.13535,0 1.57126,0.55884 1.57126,1.54132 0,0.98285 -0.43591,1.54666 -1.57126,1.54666 -1.13535,0 -1.57631,-0.56381 -1.57631,-1.54666" />
    </g>
  </g>
</svg>
