<svg height="803" viewBox=".908 -13.978 798.815 271.879" width="2500" xmlns="http://www.w3.org/2000/svg"><path d="m798.15 103.689c-5.94-13.06-20.48-1.42-26.026 4.936-5.6 6.424-10.834 13.195-15.858 20.078-.206-5.348 1.282-11.054 2.074-16.32.938-6.234 1.563-10.35-6.294-10.35-9.83 0-11.258 8.79-13.135 16.87a328.879 328.879 0 0 0 -5.733 31.806c-12.518 11.453-45.662 36.261-58.244 13.682 14.618-4.028 29.021-12.889 36.644-26.348 7.874-13.9 3.943-32-11.861-37.931-34.847-13.057-55.024 33.559-50.991 60.917-4.682 3.436-18.554 14.314-23.682 6.573-5.1-7.69-2.316-21.421.569-29.506 9.255-22.463 20.607-43.975 27.686-67.3 5.318-17.522 13.673-47.975.506-63.971-17.116-20.791-40.138 15.792-45.868 28.841-9.335 21.245-13.814 44.943-14.364 68.078-28.333 2.603-51.311 29.71-51.377 57.81-12.611 8.2-34.011 20.5-43.854 2.837 14.62-4.028 29.02-12.889 36.643-26.348 7.876-13.9 3.943-32-11.86-37.931-34.83-13.052-54.774 33.287-50.98 60.645-8.947 5.984-18.929 11.847-29.922 12.7-11.172.872-13.153-7.569-17.761-15.841 12.457.44 24.747-2.231 33.677-11.621 9.773-10.276 13.968-27.57 3.827-39.078-9.343-10.6-26.079-10.823-37.6-3.9-12.534 7.53-19.6 21.946-22.5 35.826-13.269-.759-19.533-4.729-19.726-4.683a294.492 294.492 0 0 0 38.542-65.1c6.834-15.916 21.231-51.879-3.94-59.929-23.181-7.439-38.516 19.112-45.829 36.7-9.808 23.594-14.892 48.916-18.909 74.043-4.011-1.695-18.375-11.621-16.263.746 1.257 7.346 7.687 15.415 13.415 19.94-.162 2.8-.605 6.069-1.034 9.073-8.831 7.337-19.608 18.287-31.275 20.4-13.935 2.526-8.463-25.135-6.031-31.949 9.255-22.463 20.607-43.975 27.685-67.3 5.318-17.522 13.677-47.975.509-63.971-17.115-20.791-40.14 15.792-45.871 28.841-9.332 21.245-13.814 44.943-14.364 68.078-29.385 2.7-52.875 31.652-51.205 60.768-3.026 2.8-12.708 11.571-16.875 6.655-4.864-5.742-.729-20.375.424-26.821 2.536-14.188 11.39-35.843-6.163-43.122-34.682-14.383-64.015 25.811-69.116 55.695-12.707 9.7-39.713 27.388-50.811 7.475 13.918-3.835 27.5-11.992 35.422-24.326 8.44-13.134 6.952-31.606-8.295-38.954-34.194-16.474-55.882 29.429-53.579 56.556-5.756 4.1-11.734 8.2-18.3 10.919-3.381 1.4-7.346 3.194-9.522-.77a23.978 23.978 0 0 1 -2.746-11.285v-1.409c2.573-16.961 13.4-31.746 21.383-46.547 9.337-17.3 18.681-34.907 24.461-53.772 3.995-13.035 11.864-41.56-2.218-51.356-15.723-10.942-34.208 14.694-40.737 25.58-18.608 31.036-29.99 71.036-29.99 107.262 0 17.239 2.506 38.462 14.042 52.165 13.013 15.456 37.76-1.279 50.592-9.437 17.076 26 51 15.09 72.114.8 10.933 24.175 40.121 15.027 53.97-1.109 2.9 7.343 7.6 15.374 16.166 16.554 9.726 1.342 18.832-4.749 25.834-10.782 14.081 21.121 40.709 5.662 54.218-7.483 4.019 9.7 13.66 19.393 25.1 17.619 11.8-1.832 23.109-10.212 32.436-17.132-1.463 18.042-2.382 36.684 2.435 54.344 2.564 9.4 7.459 20.615 17.852 23.322 10.606 2.76 19.988-3.208 25.828-11.648 10.064-14.546 10.8-33.185 4.548-49.4-4.578-11.871-14.1-26.3-27.553-29a102.173 102.173 0 0 1 1.664-12.436c.658-3.012 1.508-2.157 4.028-1.576 8.663 2 17.432 3.912 26.307 4.649.812 16.284 8.93 32.277 25.355 37.444 18.637 5.86 38.379-2.941 53.635-13.222 16.348 23.338 47.332 15.115 67.7 2.275 13.274 23.677 41.007 8.828 55.461-5.238 3.722 8.974 12 17.831 22.464 17.831 10.963 0 22.651-8.5 31.209-14.5 18.752 26.111 54.281 12.13 75.127-3.318.286 6.182 1.029 14.524 7.816 17.134 6.853 2.636 12.144-1.45 14.083-8.009 3.695-12.507 1.131-26.07 8.1-37.686a82.976 82.976 0 0 1 25.072-26.125c3.1-2.02 9.186-3.015 10.912-6.366 1.683-3.271 2.3-8.837.728-12.259-.536-1.172.539 1.175 0 0m-370.414 25.49c2.641-6.875 8.317-11.638 15.869-11.638 3.662 0 7.294 2.4 6.93 6.4-1.29 14.232-14.441 16.994-25.823 17.049a41.035 41.035 0 0 1 3.024-11.811c.839-2.184-.839 2.184 0 0m-399.618-34.761a183.829 183.829 0 0 1 11.4-43.606c2.556-6.33 5.527-12.741 9.764-18.144 1.607-2.05 3.574-4.355 6.16-5.161 3.629-1.128 2.6 4.749 2.6 6.818-2.765 28.029-17.721 55.819-31.334 79.991a145.576 145.576 0 0 1 1.411-19.9c.941-6.815-.941 6.82 0 0m54.8 47.808c.415-6.5 1.934-13.7 6.1-18.892 3.409-4.232 12.955-9.294 16.628-2.87 7.352 12.958-11.2 27.1-22.92 27.1 0-1.478.061-3.26.2-5.34m102.966 4.936c-1 8.122-3.992 17.041-9.118 23.492-6.842 8.617-15.264 4.176-15.979-5.9-1.172-16.51 11.326-47.216 31.24-47.216zm89.67 16.02c-3.23 5.431-7.995 11.118-14.9 10.364-8.226-.894-9.706-8.427-8.79-15.393 2.115-16.078 12.578-32.241 27.317-39.4a270.575 270.575 0 0 0 1.513 33.953 69.4 69.4 0 0 1 -5.142 10.479c-.8 1.343 1.879-3.09 0 0m27.798-44.129v-1.007a348.842 348.842 0 0 1 2.784-44.374 225.952 225.952 0 0 1 5.255-29.019c1.483-5.618 3.929-17.382 10.435-19.539 10.441-3.464 1.813 37.012.79 40.91-4.768 18.175-11.723 35.851-19.264 53.032m78.227 103.013c-.812 3.158-4.264 14.1-9.714 10.694-3.805-2.383-3.64-10.9-3.99-14.84a257.866 257.866 0 0 1 -.465-39.359c8.787 8.135 20.472 18.939 14.169 43.5m-2.674-121.4a197.1 197.1 0 0 1 9.682-41.59c1.769-5.23 10.182-37.144 21.327-27.383 9.431 8.256-4.7 29.6-8.738 37.336-7.69 14.669-15.919 29.047-23.682 43.675q.706-5.542 1.411-12.039m117.314 41.56c.416-6.5 1.937-13.7 6.094-18.892 3.412-4.232 12.958-9.294 16.628-2.87 7.354 12.958-11.2 27.1-22.917 27.1q0-2.216.2-5.34m94.118 20.956c-3.227 5.431-7.992 11.118-14.9 10.364-8.223-.894-9.7-8.427-8.787-15.393 2.115-16.078 12.576-32.241 27.314-39.4.151 9.439.537 23.938 1.513 33.953a68.772 68.772 0 0 1 -5.142 10.479c-.8 1.343 1.882-3.09 0 0m27.809-44.129v-1.007a348.834 348.834 0 0 1 2.787-44.374 225.962 225.962 0 0 1 5.254-29.022c1.483-5.618 3.926-17.382 10.436-19.539 10.438-3.464 1.813 37.012.789 40.91-4.774 18.175-11.725 35.851-19.266 53.032m54.666 23.173c.415-6.5 1.934-13.7 6.1-18.892 3.406-4.232 12.955-9.294 16.625-2.87 7.354 12.958-11.2 27.1-22.917 27.1 0-1.478.06-3.26.2-5.34" fill="#21b6d9"/></svg>
