<?xml version="1.0" encoding="utf-8"?>
<!-- Generator: Adobe Illustrator 25.2.0, SVG Export Plug-In . SVG Version: 6.00 Build 0)  -->
<svg version="1.1" id="Layer_1" xmlns="http://www.w3.org/2000/svg" xmlns:xlink="http://www.w3.org/1999/xlink" x="0px" y="0px"
	 viewBox="0 0 2000 1121.2" style="enable-background:new 0 0 2000 1121.2;" xml:space="preserve">
<style type="text/css">
	.st1{fill:#FFFFFF;}
</style>
<g>
	<polygon fill-opacity="0.0" points="65.9,416.8 8.2,633.4 32.5,707.2 705.2,897.9 1053.3,711.7 1073,639.1 1084,430.1 1069.6,372.7 
		973.1,267.8 137.8,338.1 	"/>
	<path class="st1" d="M536.4,493.6c-16.3-16.3-36.9-24.3-61.6-24.3c-24.7,0-45.2,8-61.2,24.3c-16,16.3-23.9,37.2-23.9,62.7
		s8,46.4,23.9,62.7c16,16.3,36.5,24.3,61.2,24.3c24.7,0,45.2-8,61.6-24.3c16.3-16.3,24.3-37.2,24.3-62.7S552.8,509.9,536.4,493.6z
		 M536.4,493.6c-16.3-16.3-36.9-24.3-61.6-24.3c-24.7,0-45.2,8-61.2,24.3c-16,16.3-23.9,37.2-23.9,62.7s8,46.4,23.9,62.7
		c16,16.3,36.5,24.3,61.2,24.3c24.7,0,45.2-8,61.6-24.3c16.3-16.3,24.3-37.2,24.3-62.7S552.8,509.9,536.4,493.6z M1086.3,357.5
		L763.7,35.3C733.3,4.8,689.2-6.9,647.8,4.1L207.3,121.9c-41.4,11-73.7,43.3-85.1,85.1L65.9,417.2c25.5-16,54.3-23.9,87.8-23.9
		c30,0,57.4,7.2,82.5,21.7c24.7,14.4,43.3,33.8,56.2,58.1L223.6,513c-6.1-12.9-15.6-22.8-28.1-30.4c-12.5-7.6-26.6-11-42.6-11
		c-23.9,0-43.7,8-59.3,23.9s-23.6,36.1-23.6,60.8c0,24.3,8,44.5,23.6,60.4c15.6,16,35.3,23.9,59.3,23.9c16,0,30.4-3.4,42.9-11
		c12.5-7.2,22-17.1,28.1-30l69.2,39.5c-13.7,24.3-32.7,43.7-57.4,58.5c-24.7,14.4-52.1,22-82.5,22c-46.7,0-85.5-15.6-116.7-47.1
		C24.9,660.4,15,647.5,7.8,633L4,647.1C-7,688.5,4.7,732.6,35.2,763l322.3,322.3c30.4,30.4,74.5,42.2,115.9,31.2l440.5-118.2
		c41.4-11,73.7-43.3,85.1-85.1l54.3-202.2c-50.5,4.6-86.3-0.8-107.5-16.3c-22.4-16.3-33.8-46-33.8-88.5V342.7l79.8-46v104.9h69.9
		v76.8h-69.9v128.8c0,10.6,2.7,18.6,8,23.6c5.3,4.9,13.3,7.6,23.6,8.4c8.7,0.4,33.1,0.4,49.4,0l44.5-165.3
		C1128.5,432,1116.4,387.9,1086.3,357.5z M640.5,711h-43.3c-20.1,0-36.5-16.3-36.5-36.5c-12.2,15.2-26.2,26.2-42.9,33.8
		c-16.7,7.6-36.1,11.4-57.8,11.4c-41.4,0-76.8-15.6-106-47.5c-29.3-31.9-44.1-70.3-44.1-115.9s14.8-84.4,44.1-115.9
		c29.6-31.5,65-47.5,106-47.5c43.3,0,76.8,15.2,100.7,45.2v-36.5h79.8V711z M866.3,484.5c-24.3-3-46,1.9-65.4,14.8
		c-19,12.9-28.9,34.2-28.9,63.8V711h-79.8V401.6H772v53.2c7.6-19.8,19.8-34.6,36.9-44.5c17.1-9.9,36.1-14.8,57.4-14.8V484.5z
		 M474.9,469.3c-24.7,0-45.2,8-61.2,24.3s-23.9,37.2-23.9,62.7s8,46.4,23.9,62.7c16,16.3,36.5,24.3,61.2,24.3
		c24.7,0,45.2-8,61.6-24.3c16.3-16.3,24.3-37.2,24.3-62.7s-8-46.4-24.3-62.7C520.1,477.2,499.6,469.3,474.9,469.3z"/>
	<g>
		<path class="st1" d="M1610.4,521.3c-22.4-22-49.8-33.1-81.7-33.1c-31.9,0-59.3,11-81.3,33.1s-33.1,49.4-33.1,81.3
			s11,59.3,33.1,81.3c22,22,49.4,33.1,81.3,33.1c32.3,0,59.3-11,81.7-33.1c22.4-22,33.4-49.4,33.4-81.3S1632.8,543.4,1610.4,521.3z
			 M1570.9,645.6c-11.4,11.4-25.5,17.1-42.2,17.1c-16.7,0-30.8-5.7-41.8-17.1s-16.7-25.5-16.7-42.9s5.7-31.5,16.7-42.9
			s25.1-17.1,41.8-17.1c16.7,0,30.8,5.7,42.2,17.1c11.4,11.4,17.1,25.5,17.1,42.9S1582.3,634.2,1570.9,645.6z"/>
		<circle class="st1" cx="1131.6" cy="677.5" r="36.9"/>
		<path class="st1" d="M1301,717c-32.7,0-60-11-82.1-33.1c-22-22-32.7-49.4-32.7-81.7s11-59.7,32.7-81.7c22-22,49-33.1,82.1-33.1
			c21.3,0,40.3,4.9,57.8,15.2c17.5,10.3,30.4,23.9,39.5,41l-48.3,28.1c-4.2-9.1-11-16-19.8-21.3s-18.6-8-29.6-8
			c-16.7,0-30.8,5.7-41.8,16.7s-16.3,25.5-16.3,42.9c0,17.1,5.3,31.2,16.3,42.6c11,11,25.1,16.7,41.8,16.7c11.4,0,21.3-2.7,30-7.6
			c8.7-4.9,15.6-12.2,19.8-20.9l48.6,27.7c-9.5,17.1-23.2,30.8-40.3,41C1341.3,712.1,1322.3,717,1301,717z"/>
		<path class="st1" d="M1917.8,487.9c24.7,0,44.8,8,59.7,24.3c14.8,16.3,22.4,38,22.4,65V711h-55.9V581.4c0-12.9-3-23.2-9.5-30.4
			c-6.5-7.2-15.2-11-27-11c-12.9,0-22.8,4.2-29.6,12.5c-7.2,8.4-10.6,20.5-10.6,36.5v122h-55.9V581.4c0-12.9-3-23.2-9.5-30.4
			c-6.5-7.2-15.2-11-27-11c-12.5,0-22.4,4.2-29.6,12.5c-7.2,8.4-11,20.5-11,36.5v122h-55.9V494h55.9v23.2
			c12.9-19.4,33.1-29.3,60.4-29.3c26.6,0,46.4,10.3,58.9,31.2C1867.7,498.5,1889.3,487.9,1917.8,487.9z"/>
	</g>
</g>
</svg>
