<?xml version="1.0" standalone="no"?>
<!DOCTYPE svg PUBLIC "-//W3C//DTD SVG 20010904//EN"
 "http://www.w3.org/TR/2001/REC-SVG-20010904/DTD/svg10.dtd">
<svg version="1.0" xmlns="http://www.w3.org/2000/svg"
 width="200.000000pt" height="200.000000pt" viewBox="0 0 200.000000 200.000000"
 preserveAspectRatio="xMidYMid meet">
<metadata>
Created by potrace 1.16, written by Peter Selinger 2001-2019
</metadata>
<g transform="translate(0.000000,200.000000) scale(0.100000,-0.100000)"
fill="#000000" stroke="none">
<path d="M0 1000 l0 -1000 1000 0 1000 0 0 1000 0 1000 -1000 0 -1000 0 0
-1000z m1337 428 c20 -18 23 -31 23 -90 l0 -68 -172 0 -173 0 33 -20 c18 -11
41 -34 52 -52 19 -31 20 -51 20 -340 l0 -308 -95 0 c-88 0 -98 2 -120 25 l-25
24 0 336 0 335 -95 0 c-88 0 -98 2 -120 25 -22 21 -25 33 -25 90 l0 65 337 0
c332 0 337 0 360 -22z"/>
</g>
</svg>
