<svg xmlns="http://www.w3.org/2000/svg" width="250" height="250" fill="none"><path fill="#B1B3B5" d="M32.727 93.376a525.644 525.644 0 0 1 53.309-6.593c.627-6.592.94-13.216 1.881-19.776-10.662 1.255-21.323 3.139-32.299 5.336.94-4.395 2.195-8.476 3.136-12.87a268.444 268.444 0 0 1 30.731-6.593c.94-6.592 1.882-13.184 3.136-19.777A191.434 191.434 0 0 0 48.406 48.8a184.49 184.49 0 0 0-15.68 44.577ZM30.845 103.735a147.507 147.507 0 0 0 0 44.262c6.585.91 13.453 1.569 20.07 2.197a252.373 252.373 0 0 1-1.255-30.764c4.704 0 9.721-.313 14.425-.313a280.432 280.432 0 0 0 .94 32.333c6.586.628 13.453.942 20.038 1.256a522.345 522.345 0 0 1 0-53.366c-17.843.596-36.062 2.166-54.218 4.395Z"/><path fill="#F9A51A" d="M92.903 218.314a528.356 528.356 0 0 1-6.585-53.365c-6.585-.66-13.17-.942-19.724-1.915 1.223 10.673 3.136 21.346 5.33 32.333-4.39-.942-8.466-2.197-12.856-3.139a269.179 269.179 0 0 1-6.585-30.764c-6.617-.91-13.202-1.883-19.756-3.139a192.124 192.124 0 0 0 15.679 44.294 189.827 189.827 0 0 0 44.497 15.695Z"/><path fill="#B1B3B5" d="M151.888 86.124c-17.863-.91-35.76-.91-53.623 0 .314-6.592.627-13.467 1.254-20.06a274.802 274.802 0 0 1 32.268-.941c0-4.709-.313-9.731-.313-14.44a201.38 201.38 0 0 0-30.732 1.255c.659-6.623 1.255-13.498 2.227-20.09a149.11 149.11 0 0 1 44.529 0c1.85 17.862 3.418 36.006 4.39 54.276Z"/><path fill="#37B34A" d="M157.532 33.103a526.168 526.168 0 0 1 6.585 53.366c6.586.628 13.171.91 19.725 1.884-1.223-10.673-3.136-21.346-5.331-32.334 4.39.942 8.467 2.198 12.857 3.14a269.271 269.271 0 0 1 6.585 30.763c6.617.91 13.202 1.884 19.756 3.14a191.472 191.472 0 0 0-15.679-44.263 198.77 198.77 0 0 0-44.498-15.696Z"/><path fill="#27A8E0" d="M97.952 98.367a743.521 743.521 0 0 0 0 54.621c6.585.314 13.452.314 20.038.314v-34.845h14.456v34.845c6.585 0 13.452-.314 20.038-.314a743.521 743.521 0 0 0 0-54.621 846.146 846.146 0 0 0-54.532 0ZM147.184 220.198a961.54 961.54 0 0 0 4.704-54.621c-6.585.313-13.17.627-19.756.627 0 11.615-.313 23.23-.627 34.845h-12.857c-.313-11.615-.658-23.23-.658-34.845-6.586 0-13.171-.314-19.725-.627a751.737 751.737 0 0 0 4.704 54.621 151.24 151.24 0 0 0 44.215 0Z"/><path fill="#37B34A" d="M201.653 202.619a178.532 178.532 0 0 0 15.68-44.294c-6.586 1.256-13.202 2.229-19.756 3.139a269.457 269.457 0 0 1-6.585 30.764c-4.39 1.256-8.467 2.197-12.857 3.139 2.195-10.673 4.045-21.346 5.331-32.333l-19.756 1.915a507.227 507.227 0 0 1-6.585 53.365 190.579 190.579 0 0 0 44.528-15.695ZM184.814 100.25c-6.585-.628-13.484-.91-20.069-1.224.94 17.776.94 35.59 0 53.366 6.585-.346 13.484-.659 20.069-1.256a275.82 275.82 0 0 0 0-50.886ZM199.239 101.506a252.236 252.236 0 0 1 0 48.657c6.585-.628 13.484-1.256 20.069-2.198a149.58 149.58 0 0 0 0-44.262c-6.585-.91-13.515-1.538-20.069-2.197Z"/></svg>