<svg xmlns="http://www.w3.org/2000/svg" version="1.0" width="500.000000pt" height="500.000000pt" viewBox="0 0 500.000000 500.000000">
  <g transform="translate(0.000000,500.000000) scale(0.100000,-0.100000)" fill="#000000" stroke="none">
    <path d="M2363 4675 c-194 -198 -349 -368 -502 -551 -180 -215 -362 -454 -355 -465 3 -5 141 -9 317 -9 l313 0 169 230 c92 126 176 237 185 245 15 14 32 -7 196 -230 l179 -245 323 0 c256 0 322 3 316 13 -4 6 -55 75 -113 151 -209 275 -430 529 -719 826 l-171 175 -138 -140z"></path>
    <path d="M1368 3147 c-153 -58 -232 -173 -231 -340 0 -66 5 -87 32 -141 37 -75 92 -128 170 -164 80 -38 193 -37 271 1 80 39 122 78 160 149 29 54 35 75 38 148 5 106 -19 176 -84 249 -64 72 -135 104 -238 108 -52 2 -94 -2 -118 -10z"></path>
    <path d="M2390 3145 c-106 -34 -200 -146 -222 -263 -39 -210 119 -407 327 -407 41 1 92 8 123 19 70 24 153 100 189 174 25 50 28 68 28 152 0 80 -4 103 -25 145 -31 64 -101 134 -165 165 -62 30 -187 37 -255 15z"></path>
    <path d="M3404 3140 c-71 -28 -134 -87 -175 -162 -32 -59 -34 -69 -34 -158 0 -76 4 -104 22 -142 30 -66 102 -139 170 -173 49 -24 71 -29 138 -29 66 -1 90 4 137 26 79 37 140 96 174 171 39 83 41 205 6 281 -34 75 -84 129 -154 166 -55 30 -74 34 -148 37 -67 2 -96 -1 -136 -17z"></path>
    <path d="M794 1874 c9 -174 36 -333 82 -476 194 -603 686 -1044 1314 -1179 90 -20 134 -23 310 -23 174 0 221 4 310 23 537 114 964 440 1209 921 119 234 176 455 188 728 l6 142 -255 0 -255 0 -6 -127 c-26 -567 -431 -1040 -986 -1153 -558 -113 -1155 251 -1345 821 -31 94 -52 212 -61 352 l-7 107 -256 0 -255 0 7 -136z"></path>
  </g>
</svg>
