<svg xmlns="http://www.w3.org/2000/svg" width="250" height="250" fill="none"><path fill="#F72A30" d="m34.453 116.094 31.172.047-34.14-84.657H125c51.647 0 93.516 41.869 93.516 93.516 0 51.647-41.869 93.516-93.516 93.516H74.797L34.453 116.094Z"/><path fill="#fff" d="M126.52 94.921v20.073c0 .608.534 1.1 1.186 1.1h27.26c.653 0 1.187.492 1.187 1.099v20.103c0 .608-.534 1.1-1.187 1.1h-27.275c-.652 0-1.186.491-1.186 1.099v42.296c0 .608-.534 1.1-1.186 1.1h-21.398c-.653 0-1.187-.492-1.187-1.1V72.661c0-.607.534-1.099 1.187-1.099h57.002c.653 0 1.186.492 1.186 1.1v20.06c0 .608-.533 1.1-1.186 1.1h-33.217c-.667 0-1.186.492-1.186 1.1Z"/><path fill="url(#a)" d="M126.52 94.921v20.073c0 .608.534 1.1 1.186 1.1h27.26c.653 0 1.187.492 1.187 1.099v20.103c0 .608-.534 1.1-1.187 1.1h-27.275c-.652 0-1.186.491-1.186 1.099v42.296c0 .608-.534 1.1-1.186 1.1h-21.398c-.653 0-1.187-.492-1.187-1.1V72.661c0-.607.534-1.099 1.187-1.099h57.002c.653 0 1.186.492 1.186 1.1v20.06c0 .608-.533 1.1-1.186 1.1h-33.217c-.667 0-1.186.492-1.186 1.1Z"/><defs><linearGradient id="a" x1="132.422" x2="132.422" y1="71.563" y2="182.891" gradientUnits="userSpaceOnUse"><stop stop-color="#fff"/><stop offset="1" stop-color="#fff" stop-opacity="0"/></linearGradient></defs></svg>