<svg xmlns="http://www.w3.org/2000/svg" width="177" height="80" xmlns:xlink="http://www.w3.org/1999/xlink"><defs><path id="a" d="M0 79.57h176.006V0H0z"/></defs><g fill="none" fill-rule="evenodd"><path fill="#F60" d="M42.185 23.246L23.215.22C22.84-.23 22.11.062 22.15.646l1.56 22.302-13.853-11.88c-.445-.38-1.115.034-.974.603L14.36 33.7 1.067 25.85c-.504-.297-1.092.228-.854.763l23.337 52.6c.24.54 1.03.446 1.14-.134l5.072-26.99 12.96-21.956c1.29-2.18 1.074-4.94-.537-6.894z"/><path fill="#E74030" d="M23.552 22.948L9.698 11.068c-.444-.38-1.115.034-.974.602l5.478 22.027 10.536 6.222-1.186-16.98z"/><path fill="#FAB418" d="M23.762 67.605c-.207.553-1.002.507-1.145-.066l-8.415-33.85L.908 25.84c-.504-.297-1.09.228-.853.763l23.337 52.6c.24.54 1.03.448 1.14-.132l5.07-26.982-.085.145L23.762 67.6z"/><path fill="#DE0732" d="M23.762 67.605l5.755-15.362-2.52 4.27c-.3.508-1.076.324-1.117-.265l-1.14-16.33L14.2 33.7l8.415 33.84c.143.574.938.62 1.145.067"/><path fill="#F60" d="M42.027 23.246L23.055.22c-.372-.45-1.103-.158-1.062.426l1.56 22.302 9.623 8.254c1.92 1.645 2.605 4.317 1.718 6.686l-5.26 14.04-.03.168 12.96-21.956c1.29-2.182 1.074-4.94-.537-6.894"/><path fill="#DE0733" d="M27.544 41.576c2.18 1.288 3.32 3.806 2.853 6.298l-.762 4.053 5.26-14.04c.886-2.368.2-5.04-1.72-6.686l-9.623-8.25 1.186 16.97 2.806 1.66z"/><path fill="#000" d="M29.517 52.265l.092-.157.03-.18"/><path fill="#000" d="M29.517 52.265l.092-.157.03-.18"/><path fill="#CC1D46" d="M27.544 41.576l-2.806-1.656 1.142 16.328c.04.59.816.773 1.116.264l2.52-4.27.12-.315.76-4.053c.47-2.492-.672-5.01-2.852-6.298"/><path fill="#23282C" d="M56.587 52.577H68.03l-5.72-15.24-5.723 15.24zm5.384-20.963h.89c1.21 0 2.29.74 2.73 1.862l13.38 34.186h-4.02c-.73 0-1.38-.452-1.64-1.134l-3.66-9.633H55.03l-3.58 9.622c-.255.688-.91 1.145-1.647 1.145h-3.876L59.24 33.48c.44-1.125 1.523-1.866 2.73-1.866z"/><mask id="b" fill="#fff"><use xlink:href="#a"/></mask><path fill="#23282C" d="M134.022 67.665h4.89V31.618h-4.89m18.576 7.992v28.062h-4.525v-36.02h2.854c.95 0 1.84.462 2.39 1.237l18.163 25.65V31.62l4.525-.007V67.67h-2.17c-.955 0-1.85-.463-2.398-1.244l-18.84-26.816zm-36.283 28.055h-4.11l-9.727-29.233-9.727 29.233H88.7L77.87 31.618h3.9c.788 0 1.48.525 1.693 1.284l7.526 26.91 8.66-26.676c.29-.905 1.134-1.518 2.09-1.518h1.692c.953 0 1.797.613 2.09 1.518l8.663 26.675 7.495-26.9c.21-.76.906-1.283 1.695-1.283h3.763L116.32 67.67z" mask="url(#b)"/></g></svg>
