<?xml version="1.0" encoding="UTF-8"?>
<svg xmlns="http://www.w3.org/2000/svg" xmlns:xlink="http://www.w3.org/1999/xlink" width="250px" height="250px" viewBox="0 0 250 250" version="1.1">
<g id="surface1">
<rect x="0" y="0" width="250" height="250" style="fill:rgb(100%,100%,100%);fill-opacity:1;stroke:none;"/>
<path style=" stroke:none;fill-rule:nonzero;fill:rgb(98.431373%,69.01961%,25.098041%);fill-opacity:1;" d="M 111.835938 226.8125 C 111.835938 218.625 108.957031 211.957031 102.890625 206.496094 C 81.359375 186.9375 27.082031 187.695312 7.976562 189.667969 L 5.855469 169.046875 C 9.039062 168.742188 83.9375 161.464844 116.6875 191.03125 C 127.152344 200.433594 132.457031 212.410156 132.457031 226.664062 "/>
<path style=" stroke:none;fill-rule:nonzero;fill:rgb(98.431373%,69.01961%,25.098041%);fill-opacity:1;" d="M 115.324219 226.8125 C 115.324219 212.5625 120.628906 200.585938 131.09375 191.183594 C 163.84375 161.617188 238.894531 168.894531 241.925781 169.199219 L 239.804688 189.667969 C 220.699219 187.695312 166.421875 186.9375 144.890625 206.496094 C 138.824219 211.957031 135.945312 218.628906 135.945312 226.8125 "/>
<path style=" stroke:none;fill-rule:nonzero;fill:rgb(98.431373%,69.01961%,25.098041%);fill-opacity:1;" d="M 205.082031 66.855469 C 205.082031 66.855469 170.96875 57.148438 158.382812 75.800781 C 145.648438 94.144531 180.21875 119.921875 205.082031 66.855469 Z M 205.082031 66.855469 "/>
<path style=" stroke:none;fill-rule:nonzero;fill:rgb(98.431373%,69.01961%,25.098041%);fill-opacity:1;" d="M 227.523438 118.253906 C 227.523438 118.253906 195.835938 102.484375 179.914062 118.40625 C 163.996094 134.324219 193.257812 166.015625 227.523438 118.253906 Z M 227.523438 118.253906 "/>
<path style=" stroke:none;fill-rule:nonzero;fill:rgb(98.431373%,69.01961%,25.098041%);fill-opacity:1;" d="M 121.691406 23.1875 C 121.691406 23.1875 99.707031 50.933594 111.988281 69.734375 C 124.269531 88.535156 161.265625 66.398438 121.691406 23.1875 Z M 121.691406 23.1875 "/>
<path style=" stroke:none;fill-rule:nonzero;fill:rgb(98.431373%,69.01961%,25.098041%);fill-opacity:1;" d="M 122.148438 100.816406 C 122.148438 100.816406 99.402344 127.957031 111.078125 147.0625 C 122.753906 166.164062 160.355469 145.242188 122.148438 100.816406 Z M 122.148438 100.816406 "/>
<path style=" stroke:none;fill-rule:nonzero;fill:rgb(98.431373%,69.01961%,25.098041%);fill-opacity:1;" d="M 40.574219 66.851562 C 40.574219 66.851562 74.691406 57.148438 87.273438 75.796875 C 99.859375 94.449219 65.441406 119.921875 40.574219 66.851562 Z M 40.574219 66.851562 "/>
<path style=" stroke:none;fill-rule:nonzero;fill:rgb(98.431373%,69.01961%,25.098041%);fill-opacity:1;" d="M 18.136719 118.253906 C 18.136719 118.253906 49.824219 102.484375 65.742188 118.40625 C 81.664062 134.324219 52.25 166.015625 18.136719 118.253906 Z M 18.136719 118.253906 "/>
</g>
</svg>
