<svg xmlns="http://www.w3.org/2000/svg" width="250" height="250" fill="none"><path fill="#5B85A4" d="M168.624 57.885c-1.154 0-1.96.142-2.776.349v.13h.13c.545 1.09 1.492 1.843 2.167 2.792.545 1.09 1.024 2.17 1.568 3.26.065-.066.131-.142.131-.142.958-.676 1.426-1.767 1.426-3.39-.403-.48-.468-.96-.817-1.43-.402-.686-1.284-1.024-1.829-1.569Z"/><path fill="#2C7493" d="M237.834 116.931c-5.433-.141-9.636.404-13.164 1.897-1.013.415-2.646.415-2.776 1.701.544.545.609 1.428 1.088 2.17.806 1.362 2.233 3.194 3.517 4.153 1.427 1.08 2.853 2.17 4.356 3.118 2.635 1.636 5.629 2.584 8.199 4.219 1.502.949 2.983 2.17 4.486 3.184.74.545 1.208 1.428 2.166 1.766v-.207c-.479-.611-.609-1.494-1.088-2.17-.675-.676-1.351-1.297-2.037-1.973-1.97-2.649-4.409-4.95-7.055-6.857-2.167-1.494-6.925-3.533-7.796-6.04l-.142-.142c1.492-.131 3.267-.676 4.682-1.09 2.308-.611 4.41-.469 6.784-1.079 1.088-.273 2.177-.622 3.266-.949v-.621c-1.23-1.221-2.112-2.857-3.397-4.002-3.463-2.998-7.263-5.908-11.193-8.361-2.113-1.363-4.824-2.235-7.067-3.391-.806-.414-2.167-.611-2.635-1.297-1.23-1.494-1.905-3.456-2.787-5.233-1.971-3.729-3.866-7.872-5.564-11.818-1.22-2.65-1.971-5.299-3.463-7.741-6.99-11.556-14.579-18.545-26.252-25.413-2.515-1.428-5.498-2.039-8.688-2.78-1.699-.076-3.387-.207-5.085-.273-1.089-.48-2.178-1.766-3.125-2.376-3.866-2.453-13.839-7.752-16.692-.752-1.829 4.415 2.722 8.765 4.279 11.01 1.154 1.56 2.646 3.326 3.452 5.092.479 1.156.62 2.377 1.088 3.598 1.089 2.987 2.102 6.323 3.539 9.103.741 1.428 1.557 2.933 2.504 4.208.545.753 1.492 1.09 1.699 2.323-.947 1.351-1.023 3.39-1.568 5.09-2.439 7.676-1.492 17.183 1.971 22.83 1.078 1.69 3.669 5.429 7.121 4.001 3.06-1.221 2.384-5.091 3.256-8.493.206-.817.076-1.352.479-1.897v.142c.947 1.897 1.905 3.729 2.776 5.636 2.112 3.326 5.771 6.792 8.831 9.093 1.622 1.232 2.907 3.336 4.943 4.077v-.196h-.131c-.403-.61-1.012-.883-1.557-1.363-1.219-1.221-2.58-2.714-3.528-4.077-2.852-3.805-5.368-8.013-7.6-12.363-1.089-2.115-2.036-4.416-2.918-6.52-.403-.817-.403-2.038-1.089-2.442-1.023 1.483-2.504 2.78-3.255 4.612-1.285 2.922-1.427 6.519-1.906 10.259-.261.076-.13 0-.261.131-2.178-.535-2.918-2.78-3.735-4.677-2.036-4.83-2.373-12.57-.609-18.142.468-1.428 2.515-5.909 1.698-7.271-.414-1.298-1.775-2.028-2.515-3.053-.882-1.297-1.84-2.922-2.439-4.35-1.633-3.805-2.45-8.013-4.203-11.818-.817-1.777-2.243-3.609-3.397-5.233-1.296-1.832-2.711-3.129-3.735-5.298-.337-.753-.806-1.974-.272-2.78.131-.546.414-.753.958-.895.871-.74 3.386.208 4.268.611 2.516 1.014 4.617 1.973 6.718 3.401.948.676 1.971 1.974 3.18 2.312h1.437c2.167.468 4.606.13 6.642.741 3.604 1.156 6.86 2.856 9.778 4.688 8.885 5.647 16.213 13.66 21.156 23.243.817 1.56 1.165 2.988 1.905 4.612 1.427 3.336 3.191 6.727 4.617 9.986 1.426 3.195 2.787 6.455 4.824 9.104 1.012 1.428 5.084 2.18 6.914 2.922 1.361.61 3.462 1.155 4.682 1.897 2.308 1.428 4.616 3.063 6.783 4.622 1.089.818 4.475 2.519 4.682 3.881Z"/><path fill="#F18513" d="M232.974 191.982h1.481v-5.724h1.949v-1.166h-5.455v1.166h2.025v5.724Zm11.324 0h1.405v-6.89h-2.112l-1.721 4.699-1.862-4.699h-2.036v6.89h1.329v-5.244h.076l1.96 5.244h1.001l1.96-5.244v5.244Zm-17.733.011h-26.71v-56.234h8.983v49.311h17.727v6.923Zm-67.728-11.175c-2.276-3.663-3.408-9.539-3.408-17.651 0-14.162 4.301-21.248 12.892-21.248 4.497 0 7.796 1.701 9.897 5.08 2.276 3.675 3.419 9.496 3.419 17.498 0 14.271-4.301 21.412-12.902 21.412-4.486 0-7.786-1.689-9.898-5.091Zm33.449 12.603c-6.195-3.053-9.636-4.753-10.322-5.091a19.998 19.998 0 0 0 2.581-2.508c4.377-5.167 6.576-12.799 6.576-22.905 0-18.599-7.295-27.91-21.885-27.91-7.154 0-12.729 2.366-16.714 7.086-4.388 5.168-6.577 12.767-6.577 22.819 0 9.888 1.938 17.138 5.826 21.739 3.549 4.164 8.895 6.247 16.049 6.247 2.679 0 5.128-.327 7.361-.982.892.524 5.368 3.129 13.436 7.828l3.669-6.323Zm-49.674-17.018c0 4.764-1.753 8.678-5.237 11.741-3.485 3.053-8.177 4.579-14.057 4.579-5.488 0-10.812-1.755-15.963-5.244.24-.49 2.167-4.35 2.407-4.829 4.442 2.213 8.449 3.325 12.064 3.325 3.376 0 6.021-.752 7.938-2.235 1.916-1.505 3.059-3.598 3.059-6.247 0-3.336-2.33-6.193-6.598-8.591-3.931-2.159-11.803-6.683-11.803-6.683-4.268-3.118-6.402-6.454-6.402-11.96 0-4.557 1.589-8.242 4.78-11.044 3.19-2.802 7.306-4.208 12.347-4.208 5.216 0 9.952 1.396 14.22 4.176-.207.479-1.949 4.339-2.167 4.818-3.647-1.548-7.251-2.322-10.801-2.322-2.885 0-5.106.687-6.653 2.083-1.557 1.384-2.526 3.161-2.526 5.331 0 3.325 2.385 6.214 6.773 8.656 3.985 2.159 12.053 6.77 12.053 6.77 4.377 3.107 6.566 6.422 6.566 11.884Z"/><path fill="#2C7493" d="M101.445 150.51c-3.833 20.79-8.874 35.901-15.146 45.32-4.878 7.272-10.224 10.903-16.05 10.903-1.556 0-3.472-.469-5.737-1.407v-5.004c1.11.164 2.406.251 3.909.251 2.71 0 4.91-.752 6.576-2.257 1.993-1.831 2.984-3.881 2.984-6.16 0-1.559-.773-4.753-2.32-9.583-.697-2.136-4.126-12.821-10.322-32.063h9.234c4.442 14.391 6.914 22.382 7.404 23.985 1.666 5.44 2.362 9.245 2.08 11.414 4.05-10.836 6.88-22.633 8.492-35.399h8.896Zm-40.766 41.483h-9.397c-.327-15.885-1.241-30.821-2.744-44.819h-.087l-14.307 44.819H26.99l-14.22-44.819h-.087c-1.056 13.442-1.72 28.378-1.993 44.819H2.121c.555-19.995 1.938-38.736 4.16-56.234h11.64l13.566 41.32h.076l13.643-41.32h11.15c2.439 20.486 3.887 39.237 4.323 56.234Z"/></svg>