<?xml version="1.0" encoding="UTF-8"?>
<svg version="1.1" xmlns="http://www.w3.org/2000/svg" width="80" height="38">
<path d="M0 0 C1.98 0 3.96 0 6 0 C6 1.65 6 3.3 6 5 C7.65 5 9.3 5 11 5 C11 6.65 11 8.3 11 10 C9.35 10 7.7 10 6 10 C6.33 11.65 6.66 13.3 7 15 C8.32 15.33 9.64 15.66 11 16 C11 17.65 11 19.3 11 21 C5.75768289 21.42969812 5.75768289 21.42969812 3 21 C0.36761404 18.20308991 0.02875084 16.50793153 -0.1875 12.6875 C-0.125625 11.800625 -0.06375 10.91375 0 10 C-1.32 10 -2.64 10 -4 10 C-4.10183594 10.68449219 -4.20367187 11.36898438 -4.30859375 12.07421875 C-5.13769992 15.58269626 -6.5172232 18.55755526 -8.0625 21.8125 C-8.61035156 22.97394531 -9.15820312 24.13539062 -9.72265625 25.33203125 C-10.14417969 26.21246094 -10.56570312 27.09289062 -11 28 C-12.98 28 -14.96 28 -17 28 C-16.566875 26.7625 -16.13375 25.525 -15.6875 24.25 C-14.35451038 18.54625529 -16.38727613 14.6303818 -18.8359375 9.50390625 C-20 7 -20 7 -20 5 C-18.02 5 -16.04 5 -14 5 C-13.01 6.98 -12.02 8.96 -11 11 C-10.01 9.02 -9.02 7.04 -8 5 C-5.36 5 -2.72 5 0 5 C0 3.35 0 1.7 0 0 Z " fill="#AA00E9" transform="translate(69,10)"/>
<path d="M0 0 C1.17046875 0.03609375 2.3409375 0.0721875 3.546875 0.109375 C4.43890625 0.15578125 5.3309375 0.2021875 6.25 0.25 C6.36644156 3.33301416 6.43732432 6.41546123 6.5 9.5 C6.55027344 10.80904297 6.55027344 10.80904297 6.6015625 12.14453125 C6.69959692 18.56578583 6.69959692 18.56578583 4.55078125 21.8359375 C1.85016843 23.49573689 0.33729352 23.72951804 -2.8125 23.625 C-3.66972656 23.61210938 -4.52695313 23.59921875 -5.41015625 23.5859375 C-7.75 23.25 -7.75 23.25 -10.75 21.25 C-10.09 19.93 -9.43 18.61 -8.75 17.25 C-6.11 17.25 -3.47 17.25 -0.75 17.25 C-1.843125 17.1675 -2.93625 17.085 -4.0625 17 C-7.75 16.25 -7.75 16.25 -9.6875 14.6875 C-11.17866158 11.26659991 -11.6563734 7.9040408 -10.75 4.25 C-7.64913079 -0.06556493 -5.14127779 -0.20565111 0 0 Z M-3.75 6.25 C-3.75 7.57 -3.75 8.89 -3.75 10.25 C-2.76 10.25 -1.77 10.25 -0.75 10.25 C-0.75 8.93 -0.75 7.61 -0.75 6.25 C-1.74 6.25 -2.73 6.25 -3.75 6.25 Z " fill="#AA00EA" transform="translate(10.75,14.75)"/>
<path d="M0 0 C3.2883921 2.71292348 3.90851499 4.34816929 4.5 8.5625 C4 12 4 12 2.5 14.4375 C-1.02558884 16.64099302 -3.95014472 16.79669284 -8 16 C-10.5 14.5 -10.5 14.5 -12 12 C-12.791013 7.97901723 -12.62153384 5.03588973 -10.5 1.5 C-6.97690664 -0.61385602 -4.00332769 -0.9352036 0 0 Z M-6 5 C-2 6 -2 6 -2 6 Z M-6 10 C-5.67 10.66 -5.34 11.32 -5 12 C-4.01 11.67 -3.02 11.34 -2 11 C-3.32 10.67 -4.64 10.34 -6 10 Z " fill="#A900EA" transform="translate(45,15)"/>
<path d="M0 0 C1.98 0 3.96 0 6 0 C6 5.28 6 10.56 6 16 C4.02 16 2.04 16 0 16 C0 10.72 0 5.44 0 0 Z " fill="#AA00EA" transform="translate(19,15)"/>
<path d="M0 0 C0.66 0 1.32 0 2 0 C2 0.66 2 1.32 2 2 C2.66 2 3.32 2 4 2 C4 1.34 4 0.68 4 0 C6.31 0 8.62 0 11 0 C11.33 1.65 11.66 3.3 12 5 C9.10765685 5.82638376 7.11257569 6 4 6 C4 5.34 4 4.68 4 4 C3.34 4 2.68 4 2 4 C2 4.66 2 5.32 2 6 C1.34 6 0.68 6 0 6 C0 4.02 0 2.04 0 0 Z " fill="#AB00EA" transform="translate(62,32)"/>
<path d="M0 0 C1.65 0 3.3 0 5 0 C5.38218767 1.65614657 5.71395102 3.32457024 6 5 C5 6 5 6 2.4375 6.0625 C1.2309375 6.0315625 1.2309375 6.0315625 0 6 C-1.125 2.25 -1.125 2.25 0 0 Z " fill="#A900EA" transform="translate(49,7)"/>
<path d="M0 0 C1.65 0 3.3 0 5 0 C5.625 1.875 5.625 1.875 6 4 C5.34 4.66 4.68 5.32 4 6 C1.375 5.625 1.375 5.625 -1 5 C-0.67 3.35 -0.34 1.7 0 0 Z " fill="#AA00EA" transform="translate(70,0)"/>
<path d="M0 0 C1.65 0.33 3.3 0.66 5 1 C4.67 2.65 4.34 4.3 4 6 C2.35 5.67 0.7 5.34 -1 5 C-0.67 3.35 -0.34 1.7 0 0 Z " fill="#A900EA" transform="translate(27,15)"/>
</svg>
