<svg width="80" height="80" viewBox="0 -21 80 80" fill="none" xmlns="http://www.w3.org/2000/svg">
<mask id="mask0_2630_685" style="mask-type:luminance" maskUnits="userSpaceOnUse" x="0" y="0" width="80" height="38">
<path d="M80 0H0V38H80V0Z" fill="white"/>
</mask>
<g mask="url(#mask0_2630_685)">
<path d="M31.773 17.9964C31.773 19.5759 30.496 20.8547 28.9187 20.8547C27.3415 20.8547 26.0645 19.5759 26.0645 17.9964C26.0645 16.417 27.3415 15.1382 28.9187 15.1382C30.496 15.1382 31.773 16.417 31.773 17.9964Z" fill="#AA00EA"/>
<path d="M75.1412 2.85826C75.1412 4.43771 73.8641 5.71651 72.2869 5.71651C70.7096 5.71651 69.4326 4.43771 69.4326 2.85826C69.4326 1.27881 70.7096 0 72.2869 0C73.8641 0 75.1412 1.27881 75.1412 2.85826Z" fill="#AA00EA"/>
<path d="M54.5064 10.0611C54.5064 11.6406 53.2294 12.9194 51.6521 12.9194C50.0749 12.9194 48.7979 11.6406 48.7979 10.0611C48.7979 8.48169 50.0749 7.20288 51.6521 7.20288C53.2294 7.20288 54.5064 8.48169 54.5064 10.0611Z" fill="#AA00EA"/>
<path d="M66.2403 37.7036V35.506H63.902V37.7036H62.5361V32.1438H63.902V34.3076H66.2403V32.1438H67.5977V37.7036H66.2403Z" fill="#AA00EA"/>
<path d="M70.3336 35.7939H69.9361V37.7036H68.5703V32.1438H71.3781C72.579 32.1438 73.3739 32.8764 73.3739 33.9604C73.3739 34.875 72.8116 35.5271 71.9151 35.7261L73.653 37.6994H72.0039L70.3294 35.7897L70.3336 35.7939ZM72.0335 33.9773C72.0335 33.5793 71.7206 33.3125 71.2301 33.3125H69.9361V34.6464H71.2301C71.7206 34.6464 72.0335 34.3796 72.0335 33.9731" fill="#AA00EA"/>
<path d="M40.9875 15.1339C36.6405 15.1339 33.0674 18.3521 33.0674 23.065C33.0674 27.778 36.6405 30.9962 40.9579 30.9962C44.383 30.9962 47.0893 29.476 48.3705 26.3171L44.142 25.4533C43.3385 26.9142 42.0573 27.1809 40.9579 27.1809C39.351 27.1809 38.129 26.0757 37.7442 24.2888H48.7003V23.065C48.6115 18.1785 45.216 15.1339 40.9917 15.1339M37.8372 21.3628C38.2854 19.8426 39.6555 19.0084 40.9917 19.0084C42.3279 19.0084 43.5542 19.7537 43.9982 21.3628H37.8372Z" fill="#AA00EA"/>
<path d="M69.9701 15.5828V10.5735H74.7314V15.5828H79.1376V19.3685H74.7314V24.5557C74.7314 26.1055 75.4756 26.7322 76.7273 26.7322C77.3827 26.7322 78.2749 26.495 78.9008 26.1351L80.0044 29.8911C78.8416 30.5178 77.6237 30.992 75.9239 30.992C72.2027 30.992 69.9701 28.9637 69.9701 25.0299V19.3642H65.344L57.4324 37.6994H52.3116L55.6183 30.0393L49.4404 15.5786H54.5612L58.0921 24.2846L61.8597 15.5786H69.9701V15.5828Z" fill="#AA00EA"/>
<path d="M19.8447 30.5473H24.6103V28.1887V25.8683V18.4453V15.5828H19.8447V30.5473Z" fill="#AA00EA"/>
<path d="M11.9372 16.7769C10.7786 15.7352 9.2267 15.1382 7.29425 15.1382C3.33633 15.134 0 18.3564 0 23.0651C0 27.7738 3.33633 30.9962 7.29425 30.9962C9.23093 30.9962 10.7786 30.3992 11.9372 29.3575V30.3695C11.9372 32.7239 10.064 33.7994 7.92008 33.7994C6.37243 33.7994 5.5098 33.2913 4.40615 31.9532L0.448227 34.3965C1.90708 36.8101 4.49495 38.0042 7.92008 38.0042C12.7745 38.0042 16.7028 35.472 16.7028 30.848V15.5828H11.9372V16.7769ZM8.30488 25.9276C6.72763 25.9276 5.45061 24.6488 5.45061 23.0693C5.45061 21.4899 6.72763 20.2111 8.30488 20.2111C9.88213 20.2111 11.1592 21.4899 11.1592 23.0693C11.1592 24.6488 9.88213 25.9276 8.30488 25.9276Z" fill="#AA00EA"/>
</g>
</svg>
