<svg xmlns="http://www.w3.org/2000/svg" width="250" height="250" fill="none"><path fill="#0078D7" d="M44.647 172.564a148952.862 148952.862 0 0 1-26.646-47.751c-.094-.175 11.838-21.803 26.516-48.065L71.204 29h106.765l26.398 47.262c14.519 25.995 26.503 47.538 26.632 47.875.133.35-11.113 20.928-26.304 48.13l-26.537 47.519-53.517.107-53.518.107-26.476-47.435v-.001Zm123.817 8.605c4.02-1.591 7.194-4.791 8.721-8.794.622-1.63.702-5.831.806-42.13l.114-40.319-10.939-11.321-10.94-11.321h-36.74c-36.551 0-36.752 0-39.14.902-2.885 1.086-6.1 3.97-7.48 6.709-1.864 3.698-1.905 4.911-1.776 51.496l.122 44.173 1.32 2.802c2.157 4.579 5.886 7.543 10.489 8.338 1.097.19 20.347.314 42.778.279 37.947-.061 40.914-.12 42.665-.812v-.002Zm-85.33-7.501c-1.365-.547-2.836-1.949-3.7-3.524-.629-1.146-.704-5.127-.822-43.332-.07-23.138-.009-43.246.137-44.684.307-3.03 1.392-4.923 3.55-6.197 1.443-.853 1.914-.865 35.762-.865h34.299l.113 9.36.112 9.361h17.971l-.003 36.916c-.001 22.93-.158 37.481-.414 38.408-.467 1.691-2.565 3.919-4.316 4.583-1.578.598-81.196.573-82.69-.031v.005Zm33.333-11.161c2.007-.838 4.182-3.335 5.213-5.985 1.27-3.262 1.625-14.081.598-18.175-1.38-5.497-4.368-7.959-9.659-7.959-4.668 0-6.905 1.045-9.038 4.219-1.755 2.613-2.533 6.579-2.514 12.819.031 10.32 2.384 14.782 8.305 15.749 2.35.383 5.227.113 7.095-.668Zm-6.587-4.531c-.589-.333-1.299-1.111-1.579-1.728-1.555-3.432-1.641-14.607-.14-18.013 1.008-2.286 1.918-2.99 3.864-2.99 3.532 0 4.783 3.097 4.748 11.76-.025 5.903-.515 8.422-1.969 10.105-1.133 1.312-3.426 1.715-4.924.866Zm37.252 2.492v-2.314h-5.856v-13.628c0-15.212.233-14.138-3.07-14.138-1.456 0-2.431.459-5.844 2.756l-4.097 2.755.126 1.978c.153 2.382.568 2.408 4.205.266l2.405-1.417v21.429h-3.092c-3.292 0-3.6.199-3.6 2.314 0 2.372-.246 2.313 9.665 2.313h9.158v-2.314Zm-5.214-42.664c3.457-1.538 5.364-5.211 6.104-11.754.473-4.188.081-10.246-.878-13.572-1.255-4.352-4.638-6.69-9.661-6.675-5.212.03-8.09 2.02-10.057 7.003-.876 2.22-.97 3.138-.984 9.606-.018 7.81.486 10.402 2.553 13.147 2.483 3.297 8.29 4.306 12.923 2.245Zm-7.262-4.878c-1.7-1.438-2.265-4.108-2.265-10.689 0-8.585 1.317-11.622 4.996-11.517 1.784.052 3.312 1.403 3.907 3.457.75 2.585.978 10.478.402 13.905-.44 2.619-.758 3.378-1.897 4.523-1.697 1.707-3.381 1.812-5.143.321Zm-12.704 3.053-.127-2.209-2.823-.125-2.824-.125V86.306l-1.499-.281c-2.326-.439-3.839.1-7.801 2.78l-3.667 2.48v2.092c0 1.227.188 2.093.455 2.093.25 0 1.633-.663 3.073-1.473s2.741-1.472 2.891-1.472c.151 0 .274 4.724.274 10.499v10.5l-3.242.123-3.242.122-.132 1.622c-.238 2.917-.656 2.795 9.553 2.795h9.237l-.126-2.209v.002Z"/></svg>