<?xml version="1.0" encoding="UTF-8"?>
<svg version="1.1" xmlns="http://www.w3.org/2000/svg" width="336" height="336">
<path d="M0 0 C4.04969474 3.03727105 5.68071139 5.23381218 7.2644043 10.10961914 C7.81822784 11.79223846 7.81822784 11.79223846 8.38323975 13.5088501 C8.77626282 14.73440613 9.16928589 15.95996216 9.57421875 17.22265625 C9.99575832 18.51528396 10.41807791 19.80765752 10.84112549 21.09979248 C11.97981381 24.58570379 13.10702642 28.07522942 14.23209763 31.56555557 C15.41783529 35.23747124 16.61410978 38.9059532 17.80883789 42.57495117 C23.64441415 60.51441964 29.40569336 78.47791665 35.1277771 96.45388794 C41.28318853 115.79074805 47.6115927 135.0688376 53.95994568 154.34295273 C61.21516705 176.37150022 68.38058935 198.4254175 75.41601562 220.52539062 C75.72404617 221.49290253 76.03207672 222.46041443 76.34944153 223.45724487 C76.91116092 225.22288774 77.47217884 226.98875403 78.03227234 228.75491333 C79.5245212 233.45165729 81.06223083 238.12875712 82.66099548 242.79043579 C84.11090949 247.46031502 83.84423139 251.90480584 82.3125 256.5 C77.42139985 261.68753046 69.07114952 263.56606646 62.41796875 265.73828125 C61.61893631 266.00134567 60.81990387 266.2644101 59.99665833 266.53544617 C58.32616484 267.08323823 56.65482285 267.62844917 54.98266602 268.17114258 C52.4228335 269.00477628 49.86874029 269.85462688 47.31445312 270.70507812 C45.68261671 271.23797553 44.05046593 271.7699115 42.41796875 272.30078125 C41.65751755 272.55587967 40.89706635 272.81097809 40.11357117 273.07380676 C33.76513888 275.10316803 33.76513888 275.10316803 30.25 273.6875 C29.23551607 271.98578502 28.22807263 270.27809851 27.30078125 268.52734375 C23.82146308 262.43530338 17.78333116 259.00251209 11.203125 257.09375 C3.90258252 255.57523716 -2.52676295 257.3901197 -8.92578125 260.87109375 C-15.22978299 265.06188963 -18.59879344 270.74455716 -20.30859375 278.0859375 C-20.95946857 282.79473558 -20.64112934 287.03382458 -19.75 291.6875 C-27.18392979 294.98177039 -34.8177258 297.5043003 -42.53686523 300.04077148 C-44.21739093 300.59585668 -45.89580937 301.1573637 -47.57202148 301.7253418 C-68.40103378 308.78141748 -68.40103378 308.78141748 -73.75 306.6875 C-78.49780853 302.11777984 -80.25258646 297.34629085 -82.17578125 291.140625 C-82.47977844 290.1991713 -82.78377563 289.25771759 -83.09698486 288.28773499 C-84.09857759 285.17501482 -85.08040079 282.05641993 -86.0625 278.9375 C-86.77272356 276.71858288 -87.48425528 274.50008409 -88.19702148 272.28198242 C-90.04155946 266.53107289 -91.87022986 260.77525689 -93.6940918 255.01776123 C-96.23616938 247.00022488 -98.80040491 238.98973047 -101.36117554 230.97814941 C-102.32710923 227.95426538 -103.29110889 224.92976865 -104.25512695 221.90527344 C-110.38390731 202.70476362 -116.68841225 183.56298927 -122.99695587 164.42101669 C-130.28070752 142.3193448 -137.48994609 120.19731974 -144.52734375 98.015625 C-144.81932648 97.09666443 -145.1113092 96.17770386 -145.41213989 95.230896 C-145.98123924 93.43975161 -146.54936188 91.64829656 -147.11642456 89.85650635 C-148.67793742 84.94934617 -150.29457145 80.06546335 -151.96533203 75.19433594 C-152.33590225 74.10788788 -152.70647247 73.02143982 -153.08827209 71.90206909 C-153.80588891 69.80582794 -154.53110981 67.71216935 -155.26512146 65.62161255 C-158.99226891 54.7188111 -158.99226891 54.7188111 -156.640625 48.98046875 C-154.17194383 45.98642774 -152.16626499 45.27996256 -148.5 44 C-147.5085498 43.65086548 -147.5085498 43.65086548 -146.49707031 43.29467773 C-143.92227389 42.40200331 -141.33649893 41.54570103 -138.75 40.6875 C-137.52152344 40.27177734 -136.29304688 39.85605469 -135.02734375 39.42773438 C-131.56225858 38.25517084 -128.09232484 37.09801061 -124.61877441 35.95077515 C-123.20828979 35.48426368 -121.7986954 35.0150518 -120.39001465 34.54312134 C-118.38315392 33.87342973 -116.37214424 33.21809192 -114.359375 32.56640625 C-113.18342773 32.1804126 -112.00748047 31.79441895 -110.79589844 31.39672852 C-107.86878591 30.71515895 -106.47395484 30.50953038 -103.75 31.6875 C-102.51171875 33.32421875 -102.51171875 33.32421875 -101.4375 35.375 C-97.82673516 41.48047509 -93.69556554 45.27344742 -86.9375 47.625 C-78.61572152 49.72747656 -71.49355348 48.36087153 -64.01171875 44.26171875 C-58.4099932 40.36276297 -55.08897417 34.67509738 -53.140625 28.20703125 C-52.38637134 23.34209512 -53.06965143 18.53190973 -53.75 13.6875 C-45.60411235 10.22565476 -37.2634814 7.42273976 -28.85375977 4.68603516 C-26.55346725 3.93454908 -24.25831693 3.16854527 -21.96289062 2.40234375 C-20.48206488 1.91837021 -19.00095451 1.43526648 -17.51953125 0.953125 C-16.8433223 0.72506165 -16.16711334 0.49699829 -15.47041321 0.26202393 C-10.13627428 -1.4448143 -5.18917358 -2.47665102 0 0 Z " fill="#3F3A81" transform="translate(204.75,15.3125)"/>
<path d="M0 0 C24.75 0 49.5 0 75 0 C75 7.26 75 14.52 75 22 C66.42 22 57.84 22 49 22 C49 48.07 49 74.14 49 101 C41.41 101 33.82 101 26 101 C26 74.93 26 48.86 26 22 C17.42 22 8.84 22 0 22 C0 14.74 0 7.48 0 0 Z " fill="#EAEBF5" transform="translate(159,133)"/>
<path d="M0 0 C25.08 0 50.16 0 76 0 C76 6.93 76 13.86 76 21 C67.09 21 58.18 21 49 21 C49 47.4 49 73.8 49 101 C41.74 101 34.48 101 27 101 C27 74.6 27 48.2 27 21 C18.09 21 9.18 21 0 21 C0 14.07 0 7.14 0 0 Z " fill="#ECEDF7" transform="translate(97,100)"/>
</svg>
