<svg xmlns:xlink="http://www.w3.org/1999/xlink" width="250" height="250" viewBox="0 0 210 69" fill="none" xmlns="http://www.w3.org/2000/svg"><path d="M60.7696 39.471L64.5322 41.6236L64.4185 41.8336C63.6055 43.3135 62.4042 44.5437 60.9441 45.3917C59.4839 46.2398 57.8201 46.6735 56.1318 46.6463C50.5928 46.6463 46.4102 42.4768 46.4102 36.964C46.4102 31.4513 50.5928 27.2773 56.1318 27.2773C59.6932 27.2773 62.8478 29.0931 64.3572 32.0376L64.4578 32.2476L60.6864 34.4352L60.5727 34.1858C59.807 32.5538 58.1357 31.5607 56.0968 31.5607C54.6684 31.5607 53.2985 32.1281 52.2885 33.1381C51.2784 34.1482 50.711 35.5181 50.711 36.9465C50.711 38.3749 51.2784 39.7449 52.2885 40.7549C53.2985 41.765 54.6684 42.3324 56.0968 42.3324C57.0245 42.362 57.942 42.1319 58.7459 41.6681C59.5499 41.2043 60.2083 40.5252 60.6471 39.7073L60.7696 39.471Z" fill="#222432"></path><path d="M210.001 27.4003V32.1124H209.73C209.027 32.0316 208.315 32.0955 207.638 32.3002C206.961 32.5049 206.332 32.8459 205.792 33.3025C204.917 34.1294 204.453 35.3413 204.453 36.8901V46.1787H200.078V27.7328H204.453V30.0079C205.556 28.3279 207.385 27.3828 209.704 27.3828L210.001 27.4003Z" fill="#222432"></path><path d="M94.4644 27.2637C88.8335 27.2637 84.7383 31.3326 84.7383 36.9504C84.7383 42.6381 88.8597 46.6327 94.7487 46.6327C98.2008 46.6327 101.058 45.1976 102.812 42.6119L102.961 42.3931L99.3383 40.2755L99.2115 40.4593C98.7053 41.1509 98.0365 41.7071 97.2643 42.0788C96.492 42.4504 95.64 42.626 94.7838 42.59C92.0143 42.59 89.9973 41.1899 89.3541 38.8404H103.543L103.569 38.6304C103.656 38.0861 103.706 37.5365 103.718 36.9854C103.718 31.442 99.7452 27.2637 94.4644 27.2637ZM89.3192 35.1915C89.9229 32.7283 91.8174 31.2538 94.425 31.2538C96.9232 31.2538 98.717 32.7108 99.2377 35.1915H89.3192Z" fill="#222432"></path><path d="M164.591 27.7344H160.211V46.1671H164.591V27.7344Z" fill="#222432"></path><path d="M113.456 27.7328H117.91V31.9505H113.456V40.3159C113.426 40.5737 113.45 40.8348 113.525 41.0831C113.6 41.3314 113.726 41.5617 113.893 41.7597C114.475 42.3197 115.7 42.2803 117.643 42.1972H117.901V46.1568L117.678 46.183C116.865 46.2867 116.047 46.3408 115.228 46.3449C113.163 46.3449 111.693 45.9074 110.704 45.0323C109.614 44.0654 109.081 42.5341 109.081 40.3334V31.9505H105.777V27.7328H109.081V23.9133L113.456 22.627V27.7328Z" fill="#222432"></path><path d="M173.523 19.4668H169.156V46.1599H173.523V19.4668Z" fill="#222432"></path><path d="M137.631 24.9994H130.565V46.1622H125.941V24.9994H118.84V20.5586H137.631V24.9994Z" fill="#222432"></path><path d="M42.985 27.7344H38.6055V46.1671H42.985V27.7344Z" fill="#222432"></path><path d="M43.5174 22.8119C43.4892 23.5153 43.1899 24.1806 42.6823 24.6683C42.1746 25.156 41.4979 25.4284 40.7939 25.4284C40.0899 25.4284 39.4131 25.156 38.9055 24.6683C38.3978 24.1806 38.0985 23.5153 38.0703 22.8119C38.0985 22.1084 38.3978 21.4432 38.9055 20.9554C39.4131 20.4677 40.0899 20.1953 40.7939 20.1953C41.4979 20.1953 42.1746 20.4677 42.6823 20.9554C43.1899 21.4432 43.4892 22.1084 43.5174 22.8119Z" fill="#222432"></path><path d="M165.122 22.8093C165.122 23.531 164.836 24.2232 164.325 24.7336C163.815 25.2439 163.123 25.5306 162.401 25.5306C161.679 25.5306 160.987 25.2439 160.477 24.7336C159.966 24.2232 159.68 23.531 159.68 22.8093C159.68 22.0875 159.966 21.3953 160.477 20.885C160.987 20.3746 161.679 20.0879 162.401 20.0879C163.123 20.0879 163.815 20.3746 164.325 20.885C164.836 21.3953 165.122 22.0875 165.122 22.8093Z" fill="#222432"></path><path d="M186.812 27.2645C184.897 27.2714 183.028 27.8454 181.44 28.914C179.851 29.9826 178.615 31.4979 177.888 33.2685C177.16 35.0391 176.973 36.9856 177.351 38.8624C177.728 40.7391 178.654 42.4618 180.01 43.813C181.366 45.1642 183.092 46.0833 184.97 46.4542C186.848 46.8252 188.794 46.6313 190.562 45.8971C192.33 45.163 193.841 43.9214 194.903 42.3292C195.966 40.737 196.533 38.8656 196.533 36.9512C196.546 35.6727 196.303 34.4047 195.818 33.2216C195.333 32.0385 194.617 30.9641 193.711 30.0617C192.806 29.1593 191.729 28.447 190.544 27.9666C189.359 27.4863 188.09 27.2476 186.812 27.2645ZM186.812 42.3677C185.736 42.3816 184.679 42.075 183.778 41.487C182.876 40.899 182.17 40.0561 181.749 39.0656C181.328 38.075 181.211 36.9816 181.413 35.9244C181.615 34.8672 182.127 33.894 182.884 33.1286C183.641 32.3632 184.608 31.8401 185.663 31.6261C186.718 31.412 187.812 31.5165 188.808 31.9263C189.803 32.3362 190.654 33.0328 191.252 33.9276C191.85 34.8223 192.169 35.8749 192.167 36.9512C192.19 37.6635 192.067 38.3729 191.807 39.0363C191.547 39.6997 191.154 40.3031 190.653 40.8099C190.152 41.3166 189.553 41.7161 188.893 41.9839C188.232 42.2517 187.524 42.3823 186.812 42.3677Z" fill="#222432"></path><path d="M151.233 27.7318V29.8232C149.75 28.1431 147.685 27.2637 145.196 27.2637C140.05 27.2637 136.008 31.5164 136.008 36.9504C136.008 42.2794 140.129 46.6327 145.196 46.6327C147.694 46.6327 149.759 45.7576 151.233 44.0469V46.1645H155.609V27.7318H151.233ZM145.804 42.4412C142.662 42.4412 140.383 40.1268 140.383 36.9504C140.383 33.774 142.662 31.4551 145.804 31.4551C148.945 31.4551 151.233 33.7696 151.233 36.9504C151.233 40.1311 148.945 42.4412 145.804 42.4412Z" fill="#222432"></path><path d="M16.875 20.5586H35.6621V24.9994H28.6005V46.1622H23.9759V24.9994H16.875V20.5586Z" fill="#222432"></path><path d="M75.7023 36.7643L84.0982 46.1622H78.8042L71.8171 38.2825V46.1622H67.4375V20.5586H71.8171V35.2549L78.4105 27.7339H83.8182L75.7023 36.7643Z" fill="#222432"></path><path d="M17.9592 68.0106C17.4645 68.0072 16.9841 67.8439 16.5898 67.5451C16.1956 67.2462 15.9085 66.8278 15.7716 66.3524L0.0865631 11.6624C-0.0783671 11.0788 -0.00575614 10.4536 0.288499 9.92331C0.582755 9.39299 1.07481 9.00057 1.6573 8.83166L10.097 6.41217C10.6142 6.2658 11.1663 6.30616 11.6567 6.52615C12.1471 6.74615 12.5445 7.13175 12.779 7.61535C13.2855 8.65162 14.1407 9.47646 15.1946 9.94518C16.2484 10.4139 17.4337 10.4965 18.5424 10.1786C19.6512 9.86075 20.6125 9.1626 21.2579 8.20666C21.9033 7.25072 22.1915 6.09805 22.0719 4.95086C22.0117 4.41672 22.1426 3.87851 22.4413 3.43163C22.74 2.98475 23.1873 2.65807 23.7039 2.5095L32.1436 0.0900177C32.73 -0.0789878 33.3595 -0.00816954 33.8937 0.2869C34.1574 0.432061 34.3896 0.628312 34.5766 0.864189C34.7637 1.10007 34.9019 1.37085 34.9831 1.66072L38.5839 14.2088C38.6605 14.4768 38.6275 14.7643 38.4921 15.008C38.3567 15.2517 38.1301 15.4316 37.862 15.5082C37.594 15.5848 37.3065 15.5518 37.0628 15.4164C36.8191 15.281 36.6392 15.0544 36.5626 14.7863L32.9618 2.23824C32.9552 2.21494 32.9442 2.19316 32.9292 2.17416C32.9142 2.15516 32.8956 2.13931 32.8744 2.12752C32.8533 2.11573 32.83 2.10823 32.8059 2.10546C32.7819 2.10269 32.7575 2.10469 32.7343 2.11136L24.2946 4.53085C24.2538 4.54378 24.2188 4.57051 24.1956 4.60645C24.1725 4.64239 24.1626 4.68528 24.1677 4.72773C24.3557 6.37367 23.9539 8.03297 23.0337 9.41057C22.1136 10.7882 20.7346 11.7948 19.1422 12.2514C17.5497 12.7081 15.8469 12.5851 14.3365 11.9045C12.8261 11.2239 11.6061 10.0296 10.8933 8.53415C10.8769 8.49547 10.847 8.46402 10.8092 8.44554C10.7715 8.42706 10.7283 8.4228 10.6877 8.43352L2.24794 10.853C2.20342 10.8713 2.16651 10.9043 2.14342 10.9465C2.12032 10.9887 2.11242 11.0375 2.12104 11.0849L17.8017 65.7748C17.8083 65.7981 17.8194 65.8199 17.8344 65.8389C17.8494 65.8579 17.868 65.8738 17.8892 65.8856C17.9103 65.8973 17.9335 65.9048 17.9576 65.9076C17.9816 65.9104 18.006 65.9084 18.0292 65.9017L26.469 63.4822C26.5094 63.4692 26.5439 63.4423 26.5663 63.4062C26.5888 63.3702 26.5977 63.3274 26.5915 63.2854C26.4035 61.6394 26.8053 59.9801 27.7254 58.6025C28.6456 57.2249 30.0246 56.2183 31.617 55.7616C33.2095 55.305 34.9123 55.4279 36.4227 56.1086C37.9331 56.7892 39.1531 57.9834 39.8659 59.4789C39.8839 59.5174 39.9146 59.5484 39.9529 59.5668C39.9911 59.5851 40.0346 59.5896 40.0759 59.5796L48.5156 57.1557C48.5603 57.139 48.5976 57.1069 48.6208 57.0652C48.6441 57.0236 48.6517 56.975 48.6425 56.9282L46.4549 49.3241C46.3777 49.056 46.4102 48.7683 46.5452 48.5242C46.6802 48.2801 46.9066 48.0996 47.1746 48.0225C47.4427 47.9453 47.7304 47.9778 47.9745 48.1128C48.2186 48.2477 48.3991 48.4741 48.4762 48.7422L50.6638 56.3507C50.8287 56.9343 50.7562 57.5595 50.4619 58.0898C50.1677 58.6201 49.6756 59.0125 49.0931 59.1814L40.6534 61.6009C40.1357 61.7487 39.5824 61.7086 39.0915 61.4876C38.6007 61.2665 38.2039 60.8789 37.9714 60.3933C37.465 59.3571 36.6098 58.5322 35.5559 58.0635C34.502 57.5948 33.3167 57.5121 32.208 57.83C31.0993 58.1479 30.1378 58.8461 29.4925 59.802C28.8471 60.758 28.5589 61.9106 28.6785 63.0578C28.7398 63.5927 28.6094 64.1319 28.3106 64.5797C28.0118 65.0275 27.5639 65.3549 27.0465 65.5036L18.6068 67.923C18.3959 67.9811 18.178 68.0106 17.9592 68.0106Z" fill="#222432"></path></svg>
