<?xml version="1.0" encoding="UTF-8"?>
<svg xmlns="http://www.w3.org/2000/svg" xmlns:xlink="http://www.w3.org/1999/xlink" width="250px" height="250px" viewBox="0 0 250 250" version="1.1">
<g id="surface1">
<path style=" stroke:none;fill-rule:nonzero;fill:rgb(70.980392%,57.647059%,96.078431%);fill-opacity:1;" d="M 124.980469 143.59375 C 121.1875 143.59375 117.34375 142.738281 113.855469 140.945312 L 10.523438 87.742188 C 0.261719 82.460938 -3.066406 71.039062 3.089844 62.234375 C 9.246094 53.429688 22.558594 50.574219 32.816406 55.855469 L 136.148438 109.058594 C 146.40625 114.339844 149.734375 125.757812 143.578125 134.5625 C 139.519531 140.375 132.339844 143.59375 124.984375 143.59375 Z M 124.980469 143.59375 "/>
<path style=" stroke:none;fill-rule:nonzero;fill:rgb(70.980392%,57.647059%,96.078431%);fill-opacity:1;" d="M 228.3125 196.789062 C 224.519531 196.789062 220.675781 195.933594 217.1875 194.140625 L 113.855469 140.941406 C 103.59375 135.660156 100.269531 124.242188 106.425781 115.4375 C 112.578125 106.632812 125.882812 103.78125 136.148438 109.058594 L 239.476562 162.253906 C 249.738281 167.539062 253.066406 178.957031 246.910156 187.761719 C 242.847656 193.570312 235.671875 196.789062 228.3125 196.789062 Z M 228.3125 196.789062 "/>
<path style=" stroke:none;fill-rule:nonzero;fill:rgb(70.980392%,57.647059%,96.078431%);fill-opacity:1;" d="M 125 249.988281 C 113.035156 249.988281 103.335938 241.667969 103.335938 231.398438 L 103.335938 125 C 103.335938 114.734375 113.035156 106.410156 125 106.410156 C 136.96875 106.410156 146.667969 114.730469 146.667969 125 L 146.667969 231.398438 C 146.667969 241.664062 136.96875 249.988281 125 249.988281 Z M 125 249.988281 "/>
<path style=" stroke:none;fill-rule:nonzero;fill:rgb(41.960784%,12.941176%,98.823529%);fill-opacity:1;" d="M 125 143.589844 C 113.035156 143.589844 103.335938 135.269531 103.335938 125 L 103.335938 18.601562 C 103.335938 8.335938 113.035156 0.0117188 125 0.0117188 C 136.96875 0.0117188 146.667969 8.332031 146.667969 18.601562 L 146.667969 125 C 146.667969 135.265625 136.96875 143.589844 125 143.589844 Z M 125 143.589844 "/>
<path style=" stroke:none;fill-rule:nonzero;fill:rgb(41.960784%,12.941176%,98.823529%);fill-opacity:1;" d="M 125.019531 143.59375 C 117.660156 143.59375 110.484375 140.375 106.425781 134.566406 C 100.269531 125.761719 103.59375 114.339844 113.851562 109.058594 L 217.183594 55.859375 C 227.445312 50.589844 240.757812 53.4375 246.910156 62.238281 C 253.066406 71.042969 249.738281 82.460938 239.480469 87.742188 L 136.148438 140.945312 C 132.660156 142.738281 128.816406 143.59375 125.023438 143.59375 Z M 125.019531 143.59375 "/>
<path style=" stroke:none;fill-rule:nonzero;fill:rgb(41.960784%,12.941176%,98.823529%);fill-opacity:1;" d="M 21.6875 196.789062 C 14.328125 196.789062 7.152344 193.570312 3.089844 187.761719 C -3.066406 178.957031 0.261719 167.539062 10.523438 162.253906 L 113.855469 109.058594 C 124.117188 103.773438 137.421875 106.636719 143.578125 115.4375 C 149.734375 124.242188 146.410156 135.660156 136.148438 140.941406 L 32.816406 194.140625 C 29.328125 195.933594 25.480469 196.789062 21.691406 196.789062 Z M 21.6875 196.789062 "/>
</g>
</svg>
