<?xml version="1.0" encoding="utf-8"?>
<!-- Generator: Adobe Illustrator 19.2.1, SVG Export Plug-In . SVG Version: 6.00 Build 0)  -->
<svg version="1.1" id="layer" xmlns="http://www.w3.org/2000/svg" xmlns:xlink="http://www.w3.org/1999/xlink" x="0px" y="0px"
	 viewBox="0 0 652 652" style="enable-background:new 0 0 652 652;" xml:space="preserve">
<style type="text/css">
	.st0{fill:#615EFF;}
	.st1{fill:#1A194D;}
	.st2{fill:#FFFFFF;}
</style>
<path class="st0" d="M278.8,107.4c29.4-33.3,78-43.1,118-23.9c53.1,25.6,72.5,90.7,43.6,141l-65.1,112.9
	c-3.6,6.3-9.6,10.9-16.6,12.8c-7,1.9-14.5,0.9-20.8-2.7l78.8-136.7c21-36.5,6.9-83.7-31.6-102.4c-28.9-14-64.2-7-85.6,17
	c-11.8,13.2-18.4,30.2-18.6,47.9c-0.2,17.7,6,34.9,17.4,48.4c2.1,2.4,4.3,4.7,6.6,6.8l-46,80c-1.8,3.1-4.2,5.9-7,8.1
	c-2.9,2.2-6.1,3.8-9.6,4.7c-3.5,0.9-7.1,1.2-10.7,0.7c-3.6-0.5-7-1.6-10.1-3.4l49.9-86.8c-7.2-10.4-12.3-22-15.2-34.3l-30.6,53.3
	c-3.6,6.3-9.6,10.9-16.6,12.8c-7,1.9-14.5,0.9-20.8-2.7l79.1-137.5C270.7,117.7,274.5,112.4,278.8,107.4z M370.2,151.2
	c19.1,11,25.6,35.6,14.6,54.7l-75.9,131.5c-3.6,6.3-9.6,10.9-16.6,12.8c-7,1.9-14.5,0.9-20.8-2.7l70.5-122.5
	c-5.7-1.2-11-3.6-15.6-7.1c-4.6-3.5-8.5-7.9-11.2-13c-2.8-5.1-4.4-10.7-4.8-16.5c-0.4-5.8,0.5-11.6,2.6-17
	c2.1-5.4,5.3-10.3,9.4-14.3c4.1-4,9.1-7.1,14.6-9.1c5.4-1.9,11.2-2.7,17-2.1C359.6,146.5,365.2,148.3,370.2,151.2z M342.6,175.9
	c-1.3,1-2.4,2.3-3.2,3.7c-1.2,2.2-1.8,4.6-1.7,7.1c0.2,2.5,1.1,4.9,2.6,6.8c1.5,2,3.6,3.4,5.9,4.2c2.3,0.8,4.9,0.9,7.3,0.2
	c2.4-0.6,4.5-2,6.2-3.9c1.6-1.9,2.7-4.2,3-6.6c0.3-2.5-0.1-5-1.2-7.2c-1.1-2.2-2.8-4.1-5-5.3c-1.4-0.8-3-1.4-4.6-1.6
	c-1.6-0.2-3.3-0.1-4.9,0.3C345.4,174.2,343.9,174.9,342.6,175.9z"/>
<path class="st1" d="M36,533.7l46.9-120.3h27.5l46.9,120.3h-26.2L121,506.7H72.4l-10.1,26.9H36z M165.3,426.2c0-3.8,1.2-6.9,3.5-9.3
	c2.4-2.4,5.5-3.5,9.3-3.5c3.8,0,7,1.2,9.3,3.5c2.4,2.4,3.5,5.5,3.5,9.3c0,3.9-1.2,7-3.5,9.3c-2.4,2.4-5.5,3.5-9.3,3.5
	c-3.9,0-6.9-1.2-9.3-3.5C166.5,433.2,165.3,430.1,165.3,426.2z M166.6,533.7v-80.2h23.1v80.2H166.6z M209.2,453.5v80.2h23.1v-35.4
	c0-8.4,1.9-14.9,5.7-19.5c3.8-4.6,8.8-6.9,15-6.9c3,0,6,0.5,9.1,1.5l3.2-20c-3.7-1.1-7.3-1.6-10.7-1.6c-10.2,0-18.2,4.4-24.1,13.1
	v-11.5H209.2z M274.2,533.7V413.4h23.1v48c3.4-3,7.2-5.3,11.5-7c4.3-1.7,9-2.6,14-2.6c7.5,0,14.2,1.8,20.1,5.5
	c5.9,3.6,10.5,8.5,13.9,14.8c3.4,6.3,5.1,13.4,5.1,21.4c0,8-1.7,15.2-5.1,21.5c-3.4,6.3-8,11.2-13.9,14.8
	c-5.9,3.6-12.6,5.4-20.1,5.4c-5.2,0-10-0.9-14.5-2.6c-4.5-1.8-8.4-4.4-11.8-7.6l-0.6,8.7H274.2z M400.5,492.7l-18.8-39.2h-24.1
	l37.4,76.2l-18.3,44.1H401l49.9-120.3h-24.4l-21.7,52.3c-0.5-2.6-1.2-5-1.9-7.2C402.2,496.4,401.4,494.4,400.5,492.7z M454,453.5
	h13.2v-20h23.1v20h19.5v20h-19.5v29.5c0,3.8,1.2,6.8,3.6,9c2.5,2.1,5.6,3.2,9.3,3.2c2.8,0,5.6-0.6,8.6-1.8v18.9c-5.1,2-10.1,3-15,3
	c-9.5,0-16.8-2.5-22-7.6c-5.1-5.1-7.6-12.5-7.6-22v-32.2H454V453.5z M553.6,511.3c-3.8-2.8-6.5-6.4-7.9-10.8h62.6v-7
	c0-8.1-1.8-15.2-5.5-21.5c-3.6-6.3-8.6-11.2-14.9-14.8c-6.3-3.6-13.4-5.4-21.5-5.4c-8.1,0-15.4,1.8-21.8,5.5
	c-6.4,3.6-11.4,8.5-15.1,14.8c-3.7,6.2-5.5,13.3-5.5,21.2c0,8.1,1.9,15.3,5.8,21.7c3.8,6.3,9.2,11.3,16,14.9
	c6.8,3.6,14.6,5.4,23.5,5.4c5.6,0,11.4-0.9,17.4-2.7c6.1-1.8,12.2-5.2,18.4-10l-14-16.7c-3,2.8-6.3,5.2-10,7
	c-3.6,1.8-8.2,2.6-13.8,2.6C562.1,515.5,557.5,514.1,553.6,511.3z"/>
<path class="st2" d="M113,485.1c-3.2-9.4-6.1-17.8-8.6-25.3c-2.5-7.4-5.1-15.1-7.7-23c-2.6,7.9-5.2,15.6-7.8,23
	c-2.5,7.4-5.4,15.9-8.6,25.3H113z M320,515.2c5.9,0,10.7-2.1,14.6-6.2c3.9-4.1,5.8-9.3,5.8-15.5c0-6.2-1.9-11.4-5.8-15.5
	c-3.8-4.1-8.7-6.2-14.6-6.2s-10.7,2.1-14.6,6.2c-3.8,4.1-5.8,9.3-5.8,15.5c0,6.2,1.9,11.4,5.8,15.5
	C309.2,513.2,314.1,515.2,320,515.2z M583.1,483.5c-1.3-2.8-3.1-5.3-5.5-7.2c-3.5-2.9-7.6-4.3-12.5-4.3c-4.9,0-9.2,1.5-12.8,4.4
	c-2.4,2-4.3,4.4-5.6,7.2H583.1z"/>
</svg>
