<svg xmlns="http://www.w3.org/2000/svg" width="250" height="250" fill="none"><g clip-path="url(#a)"><path fill="#070707" d="M127.599 24.857A83.563 83.563 0 0 0 69.35 45.619a84.018 84.018 0 0 0-28.153 55.19 84.105 84.105 0 0 0 17.298 59.516 83.663 83.663 0 0 0 53.315 31.379 1.973 1.973 0 0 1 1.679 1.924c.006.31-.061.617-.196.897l-12.452 25.732s-.292.625-.539 1.135a2.044 2.044 0 0 0 .38 2.14 2.025 2.025 0 0 0 2.092.572c26.032-8.075 105.388-49.482 105.388-116.443.034-44.401-36.329-81.203-80.563-82.804Z"/><path fill="#fff" d="M157.912 63.83a7.28 7.28 0 0 1 1.093.089c1.369.322 1.977 1.576 1.265 2.637a9.469 9.469 0 0 1-.494.595l-23.407 26.674s-.435.466-.608.714c-.855 1.2 0 2.657 1.656 2.746h9.556c1.572.164 2.382 1.611 1.552 2.766-.206.27-.425.528-.658.774l-17.252 19.501a7.457 7.457 0 0 0-.593.724c-.752 1.165.118 2.543 1.69 2.632h6.234a2.124 2.124 0 0 1 2.012 1.13 1.592 1.592 0 0 1-.494 1.983c-.149.144-.495.422-.495.422l-39.898 30.169a9.12 9.12 0 0 1-.741.609 1.149 1.149 0 0 1-1.266 0 .795.795 0 0 1-.375-.991c.089-.253.34-.749.34-.749l11-22.723.321-.664c.737-1.488 0-2.752-1.641-2.975h-8.28a8.332 8.332 0 0 1-.935-.049c-1.354-.223-2.07-1.363-1.557-2.479.119-.248.41-.728.41-.728l13.649-22.937s.153-.258.228-.397c.746-1.353-.159-2.652-1.879-2.701h-8.957c-1.157 0-1.978-.615-2.156-1.547-.049-.476.08-.953.361-1.338l4.153-7.337 13.633-24.111.337-.566c.697-1.264 1.873-1.873 3.46-1.873h38.736Z"/></g><defs><clipPath id="a"><path fill="#fff" d="M40 24h169v201H40z"/></clipPath></defs></svg>