<svg xmlns="http://www.w3.org/2000/svg" width="250" height="250" fill="none"><g clip-path="url(#a)"><path fill="#D9A741" d="m207.994 89.186-2.666-.045-80.271-23.84-.048-1.104V24L208 65.635l-.006 23.55Z"/><path fill="#876929" d="M125 66.607 125.008 24 42.011 65.619 42 183.366l.041.021v.001l82.951 41.614.275-.385-.107-39.595-.163-.221-5.185-3.709-64.195-19.189.324-74.48L125 66.606Z"/><path fill="#D9A741" d="m137.412 151.039-84.81 11.968.006-77.029 84.81 11.985-.006 53.076Z"/><path fill="#876929" d="m94.435 146.17 30.562 3.903.006-51.166-30.562 3.899-.006 43.364Zm-30.787-3.931 19.834 2.529.006-40.566-19.84 2.535v35.502Z"/><path fill="#624A1E" d="m52.608 85.978 72.4-21.78 82.986 24.988-70.524 8.783-84.862-11.99Z"/><path fill="#D9A741" d="m207.953 139.381-82.956 10.502.005-50.976 82.951 10.6v29.874Zm-.006 20.463-1.785.077-80.91 24.569-.255.311-.006 40.201 82.956-41.599v-23.559Z"/><path fill="#FAD791" d="m52.602 163.007 72.395 21.794 82.95-24.958-70.535-8.804-84.81 11.968Z"/></g><defs><clipPath id="a"><path fill="#fff" d="M42 24h166v201H42z"/></clipPath></defs></svg>