<?xml version="1.0" encoding="utf-8"?>
<svg version="1.1" xmlns:sketch="http://www.bohemiancoding.com/sketch/ns"
	 xmlns="http://www.w3.org/2000/svg" xmlns:xlink="http://www.w3.org/1999/xlink" viewBox="35 0 200 200">
<style type="text/css">
	.st0{fill-rule:evenodd;clip-rule:evenodd;fill:#AA81F3;}
	.st1{fill-rule:evenodd;clip-rule:evenodd;fill:#FFFFFF;}
</style>
<g>
	<g id="Logo" transform="translate(600, 0)">
		<rect id="Background" x="-600" y="0" class="st0" width="700" height="200">
		</rect>
		<path transform="translate(100, -150)" class="st1" d="M-436.5,235.5c-12.7,0-23.1,10.4-23.1,23.1
			c0,12.7,10.4,23.1,23.1,23.1c12.7,0,23.1-10.4,23.1-23.1C-413.4,245.9-423.8,235.5-436.5,235.5L-436.5,235.5z M-436.5,277.3
			c-10.4,0-18.8-8.4-18.8-18.8c0-10.3,8.4-18.8,18.8-18.8c10.4,0,18.8,8.4,18.8,18.8C-417.8,268.9-426.2,277.3-436.5,277.3z
			 M-253.8,257.2c-0.6-12.1-10.7-21.6-22.8-21.6c-12.6,0-22.8,10.2-22.8,22.8c0,12.6,10.2,22.8,22.8,22.8c7.4,0,14.9-3.6,19-9.2
			l-3.5-2.6c-3.4,4.5-9.5,7.4-15.6,7.4c-9.9,0-17.9-7.7-18.5-17.5h41.4L-253.8,257.2z M-294.8,255.2c1.6-8.6,9.1-15.2,18.2-15.2
			c9.1,0,16.7,6.5,18.2,15.2H-294.8z M-200.8,257.2c-0.7-12.1-10.7-21.6-22.8-21.6c-12.6,0-22.8,10.2-22.8,22.8
			c0,12.6,10.2,22.8,22.8,22.8c7.4,0,14.9-3.6,19-9.2l-3.5-2.6c-3.4,4.5-9.5,7.4-15.6,7.4c-9.9,0-17.9-7.7-18.5-17.5h41.4
			L-200.8,257.2z M-241.8,255.2c1.6-8.6,9.1-15.2,18.2-15.2c9.1,0,16.7,6.5,18.2,15.2H-241.8z M-339.4,221.7
			c-5.4,5.5-5.3,14.2-5.2,14.6v1.2h-8.1v4.5h8.1v38.5h4.5V242h15.5v-4.5h-15.5v-1.3c0-0.1-0.1-7.2,4-11.4c1.9-2,4.5-3,7.8-3h3.8
			v-4.5h-3.8C-332.9,217.4-336.6,218.8-339.4,221.7z M-182.1,242h11.8v-4.5h-11.8v-14.1h-4.5v14.1h-9.3v4.5h9.3l0,20.9
			c0,0.4-0.1,8.8,5.1,14.2c2.8,2.9,6.5,4.3,11.1,4.3v-4.5c-3.3,0-5.9-1-7.9-3c-4-4-3.9-10.9-3.9-11.1V242z M-314.6,217.8h4.5v63
			h-4.5V217.8z M-382.8,235.9c-11.9,0-21.7,9.7-21.7,21.7v23.2h4.5v-23.2c0-9.5,7.7-17.2,17.2-17.2c9.5,0,17.2,7.7,17.2,17.2v23.2
			h4.5v-23.2C-361.2,245.7-370.9,235.9-382.8,235.9z"/>
		<path transform="translate(100, -150)" class="st1" d="M-559.7,258.2c0,0,1,0.9,2.7,2.5c1.8,1.7,4.5,4,8,6.8c3.5,2.7,8.1,5.8,13.6,8.2
			c2.8,1.1,5.8,2,9,2.1c1.6,0,3.2,0,4.7-0.5c0.8-0.1,1.5-0.5,2.2-0.8c0.7-0.4,1.4-0.7,2.1-1.2c1.3-0.9,2.6-2,3.6-3.4
			c1-1.4,1.9-2.9,2.7-4.6c1.4-3.4,2.3-7.2,2.5-11.2c0.2-4-0.3-8.1-1.6-12c-1.3-3.8-3.4-7.3-6.4-9.5c-2.9-2.1-6.6-2.9-10.6-2.3
			c-2,0.4-4.1,0.9-6.1,1.8c-1,0.4-2,0.9-3.1,1.4c-1,0.6-2,1.1-3,1.7c-4,2.4-7.9,5.4-11.6,8.6c-1.8,1.7-3.7,3.3-5.4,5.1
			c-0.9,0.9-1.8,1.7-2.6,2.7l-2.7,2.8c-3.5,3.7-7.5,7.6-11.5,11c-4.1,3.5-8.4,6.7-13.2,9.5c-4.7,2.7-10,5-15.9,5.8
			c-2.9,0.4-6,0.3-9.1-0.4c-3-0.7-5.9-2.1-8.3-4c-2.4-1.9-4.3-4.2-5.7-6.6c-1.4-2.4-2.5-4.9-3.2-7.5c-0.7-2.5-1.1-5.1-1.3-7.6
			c-0.2-2.5-0.2-5,0.1-7.4c0.5-4.8,1.8-9.4,4-13.6c1.1-2.1,2.4-4,4-5.7c1.5-1.7,3.4-3.2,5.3-4.3c2-1.1,4.1-1.9,6.2-2.2
			c2.1-0.4,4.2-0.3,6.2-0.1c3.9,0.5,7.3,1.9,10.2,3.4c5.8,3.2,10,6.9,13.3,10.1c3.2,3.2,5.5,6,7.1,7.8c1.5,1.9,2.3,2.9,2.3,2.9
			s-1-0.9-2.7-2.5c-1.8-1.7-4.5-4-8-6.7c-3.5-2.7-8.1-5.8-13.6-8.2c-2.8-1.1-5.8-2-9-2.1c-3.1-0.1-6.3,0.6-8.9,2.5
			c-1.3,0.9-2.6,2-3.6,3.4c-1,1.4-2,2.9-2.7,4.6c-1.5,3.4-2.3,7.2-2.5,11.2c-0.2,4,0.3,8.1,1.6,12c1.3,3.8,3.4,7.3,6.4,9.4
			c2.9,2.1,6.6,2.9,10.6,2.2c0.5,0,1-0.2,1.5-0.3c0.5-0.1,1-0.2,1.5-0.4l1.5-0.5l1.5-0.6c0.5-0.2,1-0.4,1.5-0.7l1.5-0.7
			c1-0.6,2-1.1,3-1.7c4-2.4,7.9-5.4,11.6-8.6c3.7-3.3,7.1-6.6,10.8-10.5l2.7-2.8c0.9-1,1.9-1.9,2.8-2.8c1.9-1.9,3.9-3.7,5.9-5.4
			c4.1-3.5,8.4-6.7,13.2-9.5c4.7-2.7,10-5,15.9-5.8c2.9-0.4,6-0.3,9.1,0.5c3,0.7,5.9,2.2,8.2,4.1c2.4,1.9,4.2,4.2,5.7,6.6
			c1.4,2.4,2.5,4.9,3.2,7.5c0.7,2.5,1.1,5.1,1.3,7.6c0.2,2.5,0.2,5-0.1,7.4c-0.5,4.8-1.8,9.5-3.9,13.6c-1.1,2.1-2.4,4-4,5.7
			c-1.5,1.7-3.4,3.2-5.4,4.3c-1,0.6-2,1-3.1,1.4c-1.1,0.3-2.1,0.7-3.2,0.8c-2.1,0.4-4.2,0.3-6.2,0.1c-3.9-0.6-7.3-2-10.2-3.5
			c-5.8-3.2-10-7-13.3-10.2c-3.2-3.2-5.5-6-7.1-7.9C-558.9,259.2-559.7,258.2-559.7,258.2"/>
	</g>
</g>
</svg>
