<svg width="250" height="250" viewBox="0 0 211 39" fill="none" 
  xmlns="http://www.w3.org/2000/svg">
  <path d="M7.60957 17.9073C11.7866 19.1893 14.5161 22.6633 19.1066 22.6633C23.7799 22.6633 27.1711 18.1968 29.6525 17.9073C31.8857 17.6178 35.3597 18.4449 38.2133 19.8097V8.5194C38.2546 3.80478 34.4498 0 29.7352 0H8.51941C3.80478 0 0 3.80478 0 8.5194V19.1893C2.06782 18.1968 5.12819 17.1215 7.60957 17.9073Z" fill="#20C58B"/>
  <path d="M29.6525 17.9073C27.1711 18.2382 23.7799 22.6633 19.1066 22.6633C14.6815 22.6633 11.8279 19.1894 7.60957 17.9073C5.12819 17.1215 2.06782 18.1968 0 19.1894V29.6939C0 34.4085 3.80478 38.2133 8.51941 38.2133H29.7352C34.4498 38.2133 38.2546 34.4085 38.2546 29.6939V19.7683C35.401 18.4449 31.8857 17.6178 29.6525 17.9073Z" fill="#5858E0"/>
  <path d="M8.35393 30.2314C6.86511 30.2314 5.66577 29.0321 5.66577 27.5432V10.7112C5.66577 9.22237 6.86511 8.02304 8.35393 8.02304C9.84276 8.02304 11.0421 9.22237 11.0421 10.7112V27.5019C11.0421 28.9907 9.84276 30.2314 8.35393 30.2314Z" fill="white"/>
  <path d="M19.1066 26.4266C17.6178 26.4266 16.4185 25.2273 16.4185 23.7385V14.516C16.4185 13.0272 17.6178 11.8279 19.1066 11.8279C20.5954 11.8279 21.7948 13.0272 21.7948 14.516V23.7798C21.7948 25.2273 20.5954 26.4266 19.1066 26.4266Z" fill="white"/>
  <path d="M29.8593 30.2314C28.3705 30.2314 27.1711 29.0321 27.1711 27.5432V10.7112C27.1711 9.22237 28.3705 8.02304 29.8593 8.02304C31.3481 8.02304 32.5475 9.22237 32.5475 10.7112V27.5019C32.5475 28.9907 31.3481 30.2314 29.8593 30.2314Z" fill="white"/>
  <path d="M73.2833 11.8278C74.5654 13.1512 75.1857 15.095 75.1857 17.6177V28.0395H72.2081V17.9072C72.2081 16.1289 71.7945 14.8055 70.926 13.8543C70.0576 12.9031 68.8996 12.4482 67.3694 12.4482C65.7978 12.4482 64.5572 12.9858 63.606 14.0197C62.6548 15.0536 62.1998 16.5838 62.1998 18.5689V28.0809H59.2222V17.9072C59.2222 16.1289 58.7673 14.8055 57.8988 13.8543C57.0303 12.9031 55.8723 12.4482 54.3835 12.4482C52.812 12.4482 51.5299 12.9858 50.5787 14.0197C49.6275 15.0536 49.1726 16.5838 49.1726 18.5689V28.0809H46.1949V10.1322H49.1726V14.2265C49.6275 12.8204 50.3719 11.7451 51.4886 10.9593C52.6052 10.2149 53.8872 9.84273 55.3761 9.84273C56.9062 9.84273 58.2296 10.2149 59.3463 11.0007C60.4629 11.7865 61.2487 12.9031 61.7449 14.4333C62.2412 12.9858 63.0683 11.8692 64.2677 11.0421C65.4256 10.2563 66.7904 9.84273 68.2379 9.84273C70.347 9.84273 72.0013 10.5044 73.2833 11.8278Z" fill="#202020"/>
  <path d="M91.5628 11.2075C92.7622 12.076 93.6307 13.234 94.0856 14.6815V10.1323H97.0632V28.0395H94.0856V23.4904C93.5893 24.9378 92.7622 26.0958 91.5628 26.9643C90.3635 27.8328 88.8747 28.2877 87.1377 28.2877C85.5662 28.2877 84.1187 27.9155 82.878 27.1711C81.6373 26.4266 80.6448 25.3514 79.9417 23.9866C79.2387 22.6219 78.8665 20.9676 78.8665 19.1066C78.8665 17.2455 79.2387 15.5913 79.9417 14.2265C80.6448 12.8204 81.6373 11.7865 82.878 11.0421C84.1187 10.2977 85.5248 9.92547 87.1377 9.92547C88.916 9.88412 90.3635 10.339 91.5628 11.2075ZM83.6224 14.3092C82.5058 15.4672 81.9682 17.0801 81.9682 19.1066C81.9682 21.133 82.5058 22.7459 83.6224 23.9039C84.7391 25.0619 86.1865 25.6409 88.0062 25.6409C89.1642 25.6409 90.2394 25.3514 91.1493 24.8138C92.0591 24.2761 92.8035 23.4904 93.3412 22.4978C93.8788 21.5052 94.1269 20.3473 94.1269 19.0652C94.1269 17.7418 93.8788 16.6252 93.3412 15.5913C92.8035 14.5987 92.1005 13.813 91.1493 13.2753C90.2394 12.7377 89.1642 12.4896 88.0062 12.4896C86.1865 12.5309 84.6977 13.1099 83.6224 14.3092Z" fill="#202020"/>
  <path d="M101.861 3.55653C102.233 3.22568 102.729 3.06026 103.349 3.06026C103.97 3.06026 104.466 3.22568 104.838 3.55653C105.21 3.88738 105.376 4.3423 105.376 4.87994C105.376 5.41757 105.21 5.87249 104.838 6.20334C104.466 6.53419 103.97 6.69961 103.349 6.69961C102.729 6.69961 102.233 6.53419 101.861 6.20334C101.488 5.87249 101.323 5.41757 101.323 4.87994C101.282 4.3423 101.488 3.88738 101.861 3.55653ZM104.797 10.1322V28.0395H101.819V10.1322H104.797Z" fill="#202020"/>
  <path d="M112.531 3.88739V28.0395H109.553V3.88739H112.531Z" fill="#202020"/>
  <path d="M144.375 11.8278C145.657 13.1512 146.277 15.095 146.277 17.6177V28.0395H143.3V17.9072C143.3 16.1289 142.886 14.8055 142.018 13.8543C141.149 12.9031 139.991 12.4482 138.461 12.4482C136.889 12.4482 135.649 12.9858 134.698 14.0197C133.746 15.0536 133.291 16.5838 133.291 18.5689V28.0809H130.314V17.9072C130.314 16.1289 129.859 14.8055 128.99 13.8543C128.122 12.9031 126.964 12.4482 125.475 12.4482C123.904 12.4482 122.621 12.9858 121.67 14.0197C120.719 15.0536 120.264 16.5838 120.264 18.5689V28.0809H117.286V10.1322H120.264V14.2265C120.719 12.8204 121.463 11.7451 122.58 10.9593C123.697 10.2149 124.979 9.84273 126.468 9.84273C127.998 9.84273 129.321 10.2149 130.438 11.0007C131.554 11.7865 132.34 12.9031 132.836 14.4333C133.333 12.9858 134.16 11.8692 135.359 11.0421C136.517 10.2563 137.882 9.84273 139.329 9.84273C141.439 9.84273 143.093 10.5044 144.375 11.8278Z" fill="#202020"/>
  <path d="M163.647 11.0007C165.012 11.7451 166.087 12.8204 166.831 14.1852C167.617 15.5913 167.989 17.2042 167.989 19.0652C167.989 20.9263 167.617 22.5805 166.831 23.9453C166.046 25.31 165.012 26.3853 163.647 27.1297C162.282 27.8741 160.752 28.2463 159.015 28.2463C157.278 28.2463 155.748 27.8741 154.383 27.1297C153.018 26.3853 151.943 25.31 151.157 23.9453C150.372 22.5805 149.999 20.9263 149.999 19.0652C149.999 17.2042 150.372 15.5499 151.157 14.1852C151.943 12.7791 153.018 11.7451 154.383 11.0007C155.748 10.2563 157.278 9.88411 159.015 9.88411C160.752 9.88411 162.282 10.2563 163.647 11.0007ZM156.079 13.234C155.169 13.7302 154.466 14.4333 153.887 15.4259C153.349 16.4184 153.06 17.6591 153.06 19.1066C153.06 20.554 153.349 21.7534 153.887 22.7459C154.425 23.7385 155.169 24.4829 156.079 24.9378C156.989 25.4341 157.981 25.6409 159.015 25.6409C160.09 25.6409 161.083 25.3927 161.951 24.9378C162.861 24.4415 163.564 23.7385 164.143 22.7459C164.722 21.7534 164.97 20.554 164.97 19.1066C164.97 17.6591 164.681 16.4184 164.143 15.4259C163.606 14.4333 162.861 13.6889 161.951 13.234C161.042 12.7377 160.049 12.5309 159.015 12.5309C157.981 12.5309 156.989 12.7377 156.079 13.234Z" fill="#202020"/>
  <path d="M183.663 11.2075C184.863 12.0759 185.731 13.2339 186.186 14.6814V3.88739H189.164V28.0395H186.186V23.4903C185.69 24.9378 184.863 26.0957 183.663 26.9642C182.464 27.8327 180.975 28.2876 179.238 28.2876C177.667 28.2876 176.219 27.9154 174.979 27.171C173.738 26.4266 172.745 25.3513 172.042 23.9866C171.339 22.6218 170.967 20.9676 170.967 19.1065C170.967 17.2455 171.339 15.5912 172.042 14.2265C172.745 12.8204 173.738 11.7864 174.979 11.042C176.219 10.2976 177.625 9.92541 179.238 9.92541C180.975 9.88406 182.464 10.339 183.663 11.2075ZM175.682 14.3092C174.565 15.4672 174.027 17.0801 174.027 19.1065C174.027 21.133 174.565 22.7459 175.682 23.9039C176.798 25.0618 178.246 25.6408 180.065 25.6408C181.223 25.6408 182.299 25.3513 183.209 24.8137C184.118 24.2761 184.863 23.4903 185.4 22.4977C185.938 21.5052 186.186 20.3472 186.186 19.0652C186.186 17.7418 185.938 16.6251 185.4 15.5912C184.863 14.5987 184.16 13.8129 183.209 13.2753C182.299 12.7376 181.223 12.4895 180.065 12.4895C178.246 12.5309 176.798 13.1099 175.682 14.3092Z" fill="#202020"/>
  <path d="M206.657 11.0007C208.022 11.7451 209.097 12.8204 209.842 14.1852C210.628 15.5913 211 17.2042 211 19.0652C211 20.9263 210.628 22.5805 209.842 23.9453C209.056 25.31 208.022 26.3853 206.657 27.1297C205.293 27.8741 203.763 28.2463 202.026 28.2463C200.289 28.2463 198.758 27.8741 197.394 27.1297C196.029 26.3853 194.954 25.31 194.168 23.9453C193.382 22.5805 193.01 20.9263 193.01 19.0652C193.01 17.2042 193.382 15.5499 194.168 14.1852C194.954 12.7791 196.029 11.7451 197.394 11.0007C198.758 10.2563 200.289 9.88411 202.026 9.88411C203.763 9.88411 205.293 10.2563 206.657 11.0007ZM199.089 13.234C198.179 13.7302 197.476 14.4333 196.897 15.4259C196.36 16.4184 196.07 17.6591 196.07 19.1066C196.07 20.554 196.36 21.7534 196.897 22.7459C197.435 23.7385 198.179 24.4829 199.089 24.9378C199.999 25.4341 200.992 25.6409 202.026 25.6409C203.101 25.6409 204.093 25.3927 204.962 24.9378C205.872 24.4415 206.575 23.7385 207.154 22.7459C207.691 21.7534 207.981 20.554 207.981 19.1066C207.981 17.6591 207.691 16.4184 207.154 15.4259C206.616 14.4333 205.872 13.6889 204.962 13.234C204.052 12.7377 203.059 12.5309 202.026 12.5309C200.95 12.5309 199.999 12.7377 199.089 13.234Z" fill="#202020"/>
</svg>
