<svg xmlns="http://www.w3.org/2000/svg" width="250" height="250" viewBox="0 0 67 67" fill="none">
    <path d="M55.5695 30.7938C55.4352 31.2618 55.2857 31.7255 55.1232 32.1805C54.952 32.6593 54.7679 33.1295 54.5664 33.5932L47.8259 33.4523C47.8259 33.5888 47.8259 33.7232 47.8215 33.8597L66.1429 34.2432C66.1667 33.162 66.1385 32.083 66.054 31.0127L55.5674 30.7938H55.5695Z" fill="black"/>
    <path d="M41.4255 1.82333L41.2414 2.2805C42.2575 2.66183 43.2412 3.11466 44.188 3.62816L37.6685 19.7893C38.065 19.9107 38.4615 20.0515 38.8537 20.2097C38.8732 20.2183 38.8927 20.2248 38.91 20.2335L45.7632 3.2425C45.7437 3.23383 45.7242 3.22733 45.7069 3.21866C44.2942 2.64883 42.8642 2.18516 41.4255 1.82333Z" fill="black"/>
    <path d="M47.9797 6.19782C48.7965 6.87599 49.5678 7.60832 50.2872 8.39049L40.9857 21.2822C41.3106 21.4815 41.627 21.6917 41.9303 21.9127L52.6532 7.05366C51.5027 6.22166 50.2872 5.45682 49.011 4.76999L47.9797 6.19999V6.19782Z" fill="black"/>
    <path d="M52.9023 11.8182C53.457 12.7022 53.9531 13.6252 54.3886 14.5828L43.8196 23.5593C44.0406 23.789 44.253 24.0252 44.4588 24.27L58.4251 12.4075C57.5606 11.3848 56.6311 10.412 55.6388 9.4955L52.9045 11.8182H52.9023Z" fill="black"/>
    <path d="M60.88 15.7181L55.7082 18.2965C55.9682 19.2866 56.1653 20.3028 56.2953 21.3406L45.9863 26.48C46.112 26.7053 46.2333 26.9328 46.346 27.1625L62.7412 18.9898C62.1843 17.8653 61.5625 16.7733 60.8778 15.7181H60.88Z" fill="black"/>
    <path d="M56.4751 24.8247C56.4535 25.8517 56.3646 26.8657 56.213 27.858L47.3513 29.847C47.4011 30.0377 47.4488 30.2283 47.49 30.4212L65.3672 26.4085C65.1115 25.2688 64.7973 24.1443 64.4225 23.0393L56.4751 24.8225V24.8247Z" fill="black"/>
    <path d="M65.6596 39.1398L53.4418 35.8552C52.9825 36.6633 52.4776 37.4455 51.9295 38.1908L47.3968 36.9732C47.3708 37.075 47.3448 37.1747 47.3166 37.2765L65.0097 42.0323C65.2718 41.0703 65.4863 40.1062 65.6575 39.1377L65.6596 39.1398Z" fill="black"/>
    <path d="M50.5493 39.9003C49.9903 40.5308 49.3966 41.131 48.7726 41.6965L46.138 40.2427C46.0968 40.3207 46.0535 40.3987 46.0101 40.4767L62.0521 49.3275C62.4833 48.5453 62.8863 47.7415 63.259 46.9138L50.5471 39.9003H50.5493Z" fill="black"/>
    <path d="M47.243 42.9748C46.6406 43.4363 46.0145 43.8675 45.3688 44.2705L44.123 43.12C44.0775 43.172 44.0298 43.2218 43.9821 43.2738L57.4415 55.7083C57.9918 55.1168 58.5205 54.5015 59.0275 53.8645L47.243 42.977V42.9748Z" fill="black"/>
    <path d="M53.1991 59.5411L43.7351 45.1978C43.3603 45.3906 42.9811 45.5726 42.5955 45.746C42.5955 45.746 41.9 46.045 41.7418 46.11L51.429 60.7891C52.0335 60.3926 52.6228 59.9766 53.2013 59.5411H53.1991Z" fill="black"/>
    <path d="M40.1341 46.6863C39.9738 46.7362 38.9576 47.0308 38.6565 47.1045C38.6565 47.1045 38.3726 47.1738 38.2946 47.1912L44.3721 64.284C44.9701 64.0716 45.5616 63.8441 46.1466 63.5971L40.1341 46.6842V46.6863Z" fill="black"/>
    <path d="M36.4812 47.5162C35.9482 47.631 35.4087 47.7133 34.8627 47.7675L36.6914 66C37.2352 65.9458 37.7769 65.8787 38.3142 65.7985L36.4812 47.5183V47.5162Z" fill="black"/>
    <path d="M32.774 47.8152C32.319 47.7913 31.864 47.748 31.409 47.6808L28.8198 65.8223C29.2726 65.8873 29.7276 65.9436 30.1805 65.9913L32.774 47.8173V47.8152Z" fill="black"/>
    <path d="M11.4172 36.2062C11.5515 35.7382 11.701 35.2745 11.8635 34.8195C12.0347 34.3407 12.2188 33.8705 12.4203 33.4068L19.1608 33.5477C19.1608 33.4112 19.1608 33.2768 19.1652 33.1403L0.843835 32.7568C0.820001 33.838 0.848168 34.917 0.932668 35.9873L11.4193 36.2062H11.4172Z" fill="black"/>
    <path d="M25.5633 65.1766L25.7475 64.7195C24.7313 64.3381 23.7476 63.8853 22.8008 63.3718L29.3203 47.2106C28.9238 47.0893 28.5273 46.9485 28.1351 46.7903C28.1156 46.7816 28.0961 46.7751 28.0788 46.7665L21.2256 63.7575C21.2451 63.7661 21.2646 63.7726 21.282 63.7813C22.6946 64.3511 24.1246 64.8148 25.5633 65.1766Z" fill="black"/>
    <path d="M19.007 60.8022C18.1902 60.124 17.4188 59.3917 16.6995 58.6095L26.001 45.7178C25.676 45.5185 25.3597 45.3083 25.0563 45.0873L14.3335 59.9463C15.484 60.7783 16.6995 61.5432 17.9757 62.23L19.007 60.8V60.8022Z" fill="black"/>
    <path d="M14.0843 55.1818C13.5297 54.2978 13.0335 53.3748 12.598 52.4172L23.167 43.4407C22.946 43.211 22.7337 42.9748 22.5278 42.73L8.5615 54.5925C9.426 55.6152 10.3555 56.588 11.3478 57.5045L14.0822 55.1818H14.0843Z" fill="black"/>
    <path d="M6.10883 51.2818L11.2807 48.7035C11.0207 47.7133 10.8235 46.6972 10.6935 45.6593L21.0025 40.52C20.8768 40.2947 20.7555 40.0672 20.6428 39.8375L4.2455 48.0102C4.80233 49.1347 5.42416 50.2267 6.10883 51.2818Z" fill="black"/>
    <path d="M10.5115 42.1753C10.5331 41.1483 10.622 40.1343 10.7736 39.142L19.6353 37.153C19.5855 36.9623 19.5378 36.7717 19.4966 36.5788L1.61947 40.5893C1.87514 41.729 2.1893 42.8535 2.56414 43.9585L10.5136 42.1753H10.5115Z" fill="black"/>
    <path d="M1.327 27.8602L13.5448 31.1448C14.0042 30.3367 14.509 29.5545 15.0572 28.8092L19.5898 30.0268C19.6158 29.925 19.6418 29.8253 19.67 29.7235L1.97484 24.9655C1.71267 25.9275 1.49817 26.8917 1.327 27.8602Z" fill="black"/>
    <path d="M16.4374 27.0997C16.9964 26.4692 17.59 25.869 18.214 25.3035L20.8487 26.7573C20.8899 26.6793 20.9332 26.6013 20.9765 26.5233L4.93452 17.6703C4.50335 18.4525 4.10035 19.2563 3.72769 20.084L16.4395 27.0975L16.4374 27.0997Z" fill="black"/>
    <path d="M19.7458 24.0251C20.3482 23.5636 20.9743 23.1325 21.62 22.7295L22.8658 23.88C22.9113 23.828 22.959 23.7781 23.0067 23.7261L9.54733 11.2917C8.997 11.8832 8.46833 12.4985 7.96133 13.1355L19.7458 24.023V24.0251Z" fill="black"/>
    <path d="M13.7897 7.45883L23.2537 21.8022C23.6285 21.6093 24.0077 21.4273 24.3933 21.254C24.3933 21.254 25.0888 20.955 25.247 20.89L15.562 6.21083C14.9575 6.60733 14.3682 7.02333 13.7897 7.45883Z" fill="black"/>
    <path d="M26.8525 20.3137C27.0128 20.2638 28.029 19.9692 28.3302 19.8955C28.3302 19.8955 28.614 19.8262 28.692 19.8088L22.6145 2.71601C22.0165 2.92834 21.425 3.15584 20.84 3.40284L26.8525 20.3158V20.3137Z" fill="black"/>
    <path d="M30.5055 19.4838C31.0385 19.369 31.578 19.2867 32.124 19.2325L30.2975 1C29.7537 1.05417 29.212 1.12133 28.6747 1.2015L30.5077 19.4817L30.5055 19.4838Z" fill="black"/>
    <path d="M34.2149 19.1848C34.6699 19.2086 35.1249 19.252 35.5799 19.3191L38.1669 1.17765C37.714 1.11265 37.259 1.05632 36.8062 1.00865L34.2127 19.1826L34.2149 19.1848Z" fill="black"/>
</svg>
