<?xml version="1.0" encoding="utf-8"?>
<svg xmlns="http://www.w3.org/2000/svg" viewBox="281.889 104.639 30.0658 24.691" width="250" height="250">
  <path d="M 311.642 121.846 L 309.13 117.826 C 309.13 117.826 309.121 117.809 309.115 117.802 L 308.917 117.486 C 308.546 116.889 307.893 116.526 307.191 116.526 L 303.145 116.512 L 302.863 116.965 L 298.028 124.701 L 297.761 125.129 L 299.788 128.364 C 300.162 128.966 300.808 129.325 301.52 129.325 L 307.19 129.325 C 307.889 129.325 308.55 128.957 308.92 128.366 L 309.12 128.046 C 309.12 128.046 309.128 128.038 309.13 128.034 L 311.645 124.009 C 312.058 123.347 312.058 122.507 311.645 121.845 L 311.643 121.845 L 311.642 121.846 Z M 310.876 123.529 L 308.36 127.554 C 308.35 127.574 308.336 127.588 308.325 127.604 C 308.173 127.774 307.899 127.749 307.781 127.554 L 305.266 123.527 C 305.209 123.437 305.165 123.339 305.136 123.237 C 305.047 122.93 305.094 122.6 305.263 122.329 L 307.775 118.309 L 307.781 118.299 C 307.841 118.209 307.916 118.168 307.981 118.155 C 308.007 118.147 308.03 118.145 308.048 118.142 L 308.076 118.142 C 308.134 118.142 308.278 118.16 308.368 118.306 L 310.879 122.326 C 311.109 122.692 311.109 123.163 310.879 123.529 L 310.876 123.529 Z M 304.21 112.12 C 304.621 111.457 304.621 110.619 304.21 109.956 L 301.698 105.936 L 301.488 105.598 C 301.116 104.999 300.46 104.636 299.756 104.639 L 294.086 104.639 C 293.379 104.639 292.732 104.999 292.355 105.599 L 282.202 121.85 C 281.785 122.51 281.785 123.351 282.2 124.012 L 284.923 128.371 C 285.294 128.969 285.949 129.333 286.653 129.33 L 292.323 129.33 C 293.035 129.33 293.681 128.97 294.055 128.37 L 294.263 128.04 L 294.263 128.036 L 294.266 128.029 L 296.29 124.792 L 302.289 115.192 L 304.206 112.122 L 304.21 112.121 L 304.21 112.12 Z M 303.617 111.038 C 303.617 111.245 303.559 111.454 303.442 111.639 L 293.496 127.557 C 293.433 127.657 293.323 127.718 293.205 127.717 C 293.086 127.718 292.976 127.657 292.913 127.557 L 290.4 123.53 C 290.172 123.162 290.172 122.696 290.4 122.328 L 300.345 106.415 C 300.407 106.313 300.517 106.251 300.637 106.252 C 300.695 106.252 300.839 106.269 300.93 106.416 L 303.442 110.436 C 303.559 110.621 303.617 110.83 303.617 111.038 L 303.617 111.038 Z" fill="#1C1D1F" transform="matrix(1, 0, 0, 1, 0, -1.1102230246251565e-16)"/>
</svg>
