<svg version="1.1" xmlns="http://www.w3.org/2000/svg" xmlns:xlink="http://www.w3.org/1999/xlink" x="0px" y="0px" viewBox="0 0 40 50" style="enable-background:new 0 0 40 50;" xml:space="preserve" height="250" width="250">
    <g id="isotype">
    <path d="M3.3,39.3c-1.1,0-2.1-0.6-2.5-1.7c-0.6-1.4,0.1-3,1.5-3.5l32-13.1c1.4-0.6,3,0.1,3.6,1.5c0.6,1.4-0.1,3-1.5,3.5l-32,13.1 C4,39.2,3.7,39.3,3.3,39.3z" shape-rendering="geometricPrecision"></path>
    <path d="M3.3,28.9c-1.1,0-2.1-0.6-2.5-1.7c-0.6-1.4,0.1-3,1.5-3.5l32-13.1c1.4-0.6,3,0.1,3.6,1.5c0.6,1.4-0.1,3-1.5,3.5l-32,13.1 C4,28.9,3.7,28.9,3.3,28.9z" shape-rendering="geometricPrecision"></path>
    <path d="M3.3,18.2c-1.1,0-2.1-0.6-2.5-1.7c-0.6-1.4,0.1-3,1.5-3.5l19.6-7.9c1.4-0.6,3,0.1,3.6,1.5c0.6,1.4-0.1,3-1.5,3.5L4.4,18 C4,18.2,3.7,18.2,3.3,18.2z" shape-rendering="geometricPrecision"></path>
    <path d="M15.6,44.9c-1.1,0-2.1-0.6-2.5-1.7c-0.6-1.4,0.1-3,1.5-3.5l19.6-7.9c1.4-0.6,3,0.1,3.6,1.5c0.6,1.4-0.1,3-1.5,3.5 l-19.6,7.9C16.3,44.8,16,44.9,15.6,44.9z" shape-rendering="geometricPrecision"></path>
    </g>
</svg>
