<svg xmlns="http://www.w3.org/2000/svg" height="400" viewBox="0 0 300 300" width="400"><g fill="#4c4372"><path d="M268.959 293.711H31.04c-13.756 0-24.911-11.444-24.911-25.557V63.552c0-14.117 11.155-25.557 24.911-25.557h237.922c13.756 0 24.907 11.44 24.907 25.557V268.15c0 14.117-11.15 25.561-24.911 25.561zm0 0" fill="#fff"/><path d="M268.959 37.995h-34.737c13.757 0 24.911 11.44 24.911 25.557V268.15c0 14.117-11.154 25.557-24.911 25.557h34.737c13.756 0 24.911-11.44 24.911-25.557V63.552c0-14.117-11.15-25.557-24.911-25.557zm0 0" fill="#d4e7f8"/><path d="M268.959 37.995H31.04c-13.756 0-24.911 11.44-24.911 25.557v38.99h287.744v-38.99c-.004-14.117-11.155-25.557-24.915-25.557zm0 0" fill="#fd919e"/><path d="M268.959 37.995h-34.737c13.757 0 24.911 11.44 24.911 25.557v38.99h34.737v-38.99c0-14.117-11.15-25.557-24.911-25.557zm0 0" fill="#e8677d"/><path d="M293.87 108.831H6.13c-3.388 0-6.13-2.816-6.13-6.288v-38.99c0-17.561 13.924-31.846 31.037-31.846H268.96c17.117 0 31.041 14.285 31.041 31.845v38.99c0 3.473-2.742 6.29-6.13 6.29zM12.26 96.254h275.48V63.552c0-10.625-8.425-19.268-18.777-19.268H31.04c-10.356 0-18.781 8.643-18.781 19.268zm0 0"/><path d="M268.963 300H31.04C13.924 300 0 285.71 0 268.154V63.552c0-17.56 13.924-31.845 31.041-31.845h237.922C286.08 31.707 300 45.992 300 63.552V268.15c0 17.56-13.92 31.85-31.037 31.85zM31.04 44.284c-10.356 0-18.781 8.643-18.781 19.268V268.15c0 10.625 8.425 19.268 18.781 19.268h237.922c10.352 0 18.777-8.643 18.777-19.268V63.552c0-10.625-8.425-19.268-18.777-19.268zm0 0"/><path d="M77.4 69.702c-7.084 0-12.827-5.892-12.827-13.163v-37.09c0-7.268 5.743-13.16 12.827-13.16 7.083 0 12.826 5.892 12.826 13.16v37.09c0 7.271-5.743 13.163-12.826 13.163zm0 0M222.6 69.702c-7.083 0-12.83-5.892-12.83-13.163v-37.09c0-7.268 5.747-13.16 12.83-13.16 7.084 0 12.827 5.892 12.827 13.16v37.09c.004 7.271-5.743 13.163-12.827 13.163zm0 0" fill="#7bacf1"/><path d="M77.4 75.99c-10.453 0-18.957-8.724-18.957-19.451v-37.09C58.443 8.724 66.947 0 77.4 0c10.452 0 18.956 8.725 18.956 19.448v37.09c0 10.728-8.504 19.453-18.956 19.453zm0-63.416c-3.696 0-6.697 3.083-6.697 6.874v37.09c0 3.792 3.005 6.871 6.697 6.871 3.691 0 6.696-3.083 6.696-6.87v-37.09c0-3.792-3.005-6.875-6.696-6.875zm0 0M222.6 75.99c-10.456 0-18.96-8.724-18.96-19.451v-37.09C203.64 8.724 212.144 0 222.6 0c10.453 0 18.957 8.725 18.957 19.448v37.09c.004 10.728-8.504 19.453-18.957 19.453zm0-63.416c-3.695 0-6.7 3.083-6.7 6.874v37.09c0 3.792 3.009 6.871 6.7 6.871 3.692 0 6.697-3.083 6.697-6.87v-37.09c.004-3.792-3.005-6.875-6.697-6.875zm0 0"/></g><g fill="#4c4372"><path d="M187.513 225.497h-27.534c-15.208 0-27.534-12.326-27.534-27.534 0-15.208 12.326-27.534 27.534-27.534h27.534zm0 0"/><path d="M196.368 170.43v55.067a8.857 8.857 0 01-8.855 8.855h-27.534c-20.068 0-36.389-16.327-36.389-36.389 0-20.068 16.321-36.389 36.39-36.389h27.533a8.854 8.854 0 018.855 8.855zm-17.71 46.212v-37.358h-18.679c-10.302 0-18.679 8.383-18.679 18.679 0 10.302 8.377 18.679 18.68 18.679zm0 0"/><path d="M226.255 181.475c0 4.895-5.034 8.855-11.255 8.855h-25.088c-6.22 0-11.254-3.96-11.254-8.855 0-4.889 5.033-8.855 11.254-8.855H215c6.221 0 11.255 3.96 11.255 8.855zm0 0M226.255 214.45c0 4.895-5.034 8.856-11.255 8.856h-25.088c-6.22 0-11.254-3.96-11.254-8.855 0-4.889 5.033-8.855 11.254-8.855H215c6.221 0 11.255 3.96 11.255 8.855zm0 0M141.3 197.963a8.854 8.854 0 01-8.855 8.855h-9.835c-13.916 0-25.239-11.322-25.239-25.24v-13.847c0-4.151-3.372-7.53-7.529-7.53h-.813c-4.15 0-7.529 3.373-7.529 7.53v60.452c0 13.917-11.317 25.24-25.24 25.24-13.916 0-25.238-11.323-25.238-25.24v-13.836c0-4.15-3.379-7.529-7.53-7.529H13.41a8.854 8.854 0 01-8.855-8.855 8.857 8.857 0 018.855-8.855h10.083c13.916 0 25.239 11.322 25.239 25.24v13.835c0 4.15 3.384 7.53 7.529 7.53 4.15 0 7.529-3.38 7.529-7.53v-60.452c0-13.923 11.322-25.24 25.24-25.24h.812c13.922 0 25.24 11.317 25.24 25.24v13.848c0 4.15 3.377 7.529 7.528 7.529h9.835a8.854 8.854 0 018.855 8.855z"/><g><path d="M187.513 225.497h-27.534c-15.208 0-27.534-12.326-27.534-27.534 0-15.208 12.326-27.534 27.534-27.534h27.534zm0 0"/><path d="M196.368 170.43v55.067a8.857 8.857 0 01-8.855 8.855h-27.534c-20.068 0-36.389-16.327-36.389-36.389 0-20.068 16.321-36.389 36.39-36.389h27.533a8.854 8.854 0 018.855 8.855zm-17.71 46.212v-37.358h-18.679c-10.302 0-18.679 8.383-18.679 18.679 0 10.302 8.377 18.679 18.68 18.679zm0 0"/><path d="M226.255 181.475c0 4.895-5.034 8.855-11.255 8.855h-25.088c-6.22 0-11.254-3.96-11.254-8.855 0-4.889 5.033-8.855 11.254-8.855H215c6.221 0 11.255 3.96 11.255 8.855zm0 0M226.255 214.45c0 4.895-5.034 8.856-11.255 8.856h-25.088c-6.22 0-11.254-3.96-11.254-8.855 0-4.889 5.033-8.855 11.254-8.855H215c6.221 0 11.255 3.96 11.255 8.855zm0 0"/></g></g></svg>