<svg width="250" height="250" viewBox="0 0 186 53" fill="none" xmlns="http://www.w3.org/2000/svg" class="main-logo"><path d="M10.7717 10.2345C14.8898 10.2345 18.091 11.0912 20.3755 12.8046C22.66 14.5179 23.8022 17.0579 23.8022 20.4245C23.8022 23.9414 22.675 26.6016 20.4206 28.4052C18.1962 30.1786 15.2054 31.0654 11.448 31.0654H8.06637V41.4808H0.671875V10.2345H10.7717ZM10.8168 25.7449C12.5602 25.7449 13.8828 25.3391 14.7845 24.5276C15.7164 23.6859 16.1823 22.3182 16.1823 20.4245C16.1823 17.1481 14.3487 15.5099 10.6815 15.5099H8.06637V25.7449H10.8168Z" fill="#001738"></path><path d="M40.7139 16.7724C42.788 16.7724 44.4111 17.4036 45.5834 18.6661C46.7557 19.9285 47.3419 21.702 47.3419 23.9865V41.4808H40.2179V25.2039C40.2179 24.0015 40.0225 23.1749 39.6318 22.724C39.241 22.2431 38.6849 22.0026 37.9635 22.0026C36.5207 22.0026 35.138 23.0246 33.8154 25.0686V41.4808H26.6914V8.0252L33.8154 7.30379V20.1089C34.8073 18.9967 35.8594 18.1701 36.9716 17.629C38.0837 17.0579 39.3312 16.7724 40.7139 16.7724Z" fill="#001738"></path><path d="M65.6608 41.5259C64.6989 44.622 63.1208 46.9966 60.9265 48.6499C58.7623 50.3332 55.8466 51.28 52.1794 51.4904L51.4129 46.4856C53.6974 46.185 55.3807 45.674 56.4628 44.9526C57.575 44.2312 58.4617 43.0739 59.123 41.4808H56.6882L49.3839 17.5389H56.9588L61.2421 36.9269L65.9313 17.5389H73.2808L65.6608 41.5259Z" fill="#001738"></path><path d="M112.708 16.7724C116.375 16.7724 119.246 17.8996 121.32 20.154C123.394 22.3783 124.431 25.5045 124.431 29.5324C124.431 32.0874 123.95 34.3268 122.988 36.2505C122.056 38.1443 120.704 39.6171 118.93 40.6692C117.187 41.7213 115.113 42.2473 112.708 42.2473C109.071 42.2473 106.2 41.1351 104.096 38.9108C102.022 36.6563 100.985 33.5152 100.985 29.4873C100.985 26.9323 101.451 24.7079 102.383 22.8142C103.345 20.8904 104.697 19.4025 106.441 18.3504C108.214 17.2984 110.303 16.7724 112.708 16.7724ZM112.708 22.0026C111.265 22.0026 110.183 22.6188 109.462 23.8512C108.74 25.0536 108.38 26.9323 108.38 29.4873C108.38 32.1024 108.725 34.0112 109.417 35.2135C110.138 36.4159 111.235 37.017 112.708 37.017C114.151 37.017 115.233 36.4159 115.954 35.2135C116.676 33.9811 117.037 32.0874 117.037 29.5324C117.037 26.9172 116.676 25.0085 115.954 23.8061C115.263 22.6038 114.181 22.0026 112.708 22.0026Z" fill="#001738"></path><path d="M76.6445 7.70938L84.1593 6.67758V42.3726H76.6445V7.70938Z" fill="#001738"></path><path d="M89.1689 7.70938L96.6837 6.67758V42.3726H89.1689V7.70938Z" fill="#001738"></path><path d="M130.288 11.4134C129.602 8.82117 185.409 11.3702 185.409 11.3702L159.326 45.5676C159.326 45.5676 147.915 32.8408 144.157 28.4217C140.4 24.0025 130.973 14.0057 130.288 11.4134Z" fill="#286BFB"></path><path d="M130.965 19.5679C130.029 17.2432 185.084 11.7425 185.084 11.7425L158.655 45.3801C158.655 45.3801 146.732 34.9438 144.459 32.5512C142.186 30.1586 131.901 21.8925 130.965 19.5679Z" fill="#8338EC"></path><path d="M133.48 27.7825C132.019 26.0524 185.41 11.3703 185.41 11.3703L159.328 45.5676C159.328 45.5676 148.65 39.3312 146.037 37.1887C143.424 35.0462 134.94 29.5126 133.48 27.7825Z" fill="#FF7D50"></path><path d="M137.735 37.1613C136.517 35.2426 185.409 11.3703 185.409 11.3703L159.327 45.5676C159.327 45.5676 152.805 43.8412 148.863 42.211C144.346 40.3429 138.953 39.0799 137.735 37.1613Z" fill="#F9B90B"></path></svg>