<svg width="102" height="121" viewBox="0 0 102 121" fill="none" xmlns="http://www.w3.org/2000/svg">
<mask id="mask0_2640_111728" style="mask-type:alpha" maskUnits="userSpaceOnUse" x="11" y="7" width="83" height="95">
<path d="M71.1413 18.7255L64.5287 13.4383L58.1916 10.5193L50.7524 8.42648H40.6683L29.4269 11.731L20.3346 18.1197L13.7771 25.8853L11.5729 39.2135L15.0996 52.817L23.2551 61.2986L32.127 65.8698L35.1027 68.0177L30.1983 68.954L25.845 72.0382L24.247 78.5371L23.5306 89.5521L21.0509 96.1611L21.6571 99.1903L24.247 100.347L28.3799 98.5294L31.1902 94.1233L33.1189 88.5608L34.6067 82.6126L35.4884 87.1288L37.5273 94.1233L41.9908 99.5758L47.9421 100.843L53.4526 99.5758L55.1608 96.1611L53.7832 93.0769L51.4137 90.1579L47.2808 86.4128L44.746 80.7401L45.2971 75.563L48.5483 80.7401L50.8627 86.0824L52.4056 90.1579L55.6568 94.5089L55.9323 98.8598L60.506 101.228L65.1899 100.016L67.2288 96.1611L65.1899 91.0391L60.506 83.6591L57.6406 75.563L61.9938 77.4907L68.7166 76.1689L74.3373 75.1224L82.2173 78.5371L89.7667 79.7487L92.6873 77.8762L93.073 73.1948L88.2789 68.0177L79.7376 64.9886L69.7636 65.8698L62.9857 66.8612L63.9776 65.4292L68.7166 62.1247L74.3373 55.1852L78.5253 46.8138L79.7376 38.883L78.5253 30.9522L75.5496 24.5635L71.1413 18.7255Z" fill="url(#paint0_linear_2640_111728)" stroke="black"/>
</mask>
<g mask="url(#mask0_2640_111728)">
<path d="M71.1413 18.7255L64.5287 13.4383L58.1916 10.5193L50.7524 8.42648H40.6683L29.4269 11.731L20.3346 18.1197L13.7771 25.8853L11.5729 39.2135L15.0996 52.817L23.2551 61.2986L32.127 65.8698L35.1027 68.0177L30.1983 68.954L25.845 72.0382L24.247 78.5371L23.5306 89.5521L21.0509 96.1611L21.6571 99.1903L24.247 100.347L28.3799 98.5294L31.1902 94.1233L33.1189 88.5608L34.6067 82.6126L35.4884 87.1288L37.5273 94.1233L41.9908 99.5758L47.9421 100.843L53.4526 99.5758L55.1608 96.1611L53.7832 93.0769L51.4137 90.1579L47.2808 86.4128L44.746 80.7401L45.2971 75.563L48.5483 80.7401L50.8627 86.0824L52.4056 90.1579L55.6568 94.5089L55.9323 98.8598L60.506 101.228L65.1899 100.016L67.2288 96.1611L65.1899 91.0391L60.506 83.6591L57.6406 75.563L61.9938 77.4907L68.7166 76.1689L74.3373 75.1224L82.2173 78.5371L89.7667 79.7487L92.6873 77.8762L93.073 73.1948L88.2789 68.0177L79.7376 64.9886L69.7636 65.8698L62.9857 66.8612L63.9776 65.4292L68.7166 62.1247L74.3373 55.1852L78.5253 46.8138L79.7376 38.883L78.5253 30.9522L75.5496 24.5635L71.1413 18.7255Z" fill="url(#paint1_linear_2640_111728)" stroke="black"/>
<g filter="url(#filter0_f_2640_111728)">
<ellipse rx="10.7179" ry="7.8482" transform="matrix(-1 0 0 1 63.8949 41.0585)" fill="#D3A2FF"/>
</g>
<g filter="url(#filter1_f_2640_111728)">
<ellipse rx="10.7179" ry="7.8482" transform="matrix(-1 0 0 1 29.3441 37.9192)" fill="#D3A2FF"/>
</g>
</g>
<path d="M68.3859 28.4738L66.1266 25.4998L63.151 23.5171L60.1202 22.5257L56.6486 23.1315L54.6097 25.1693L53.0668 28.0332L52.13 32.5494L53.3423 38.4975L56.6486 41.5817L60.1202 42.3527L63.9775 41.5817L66.843 39.8193L68.937 36.0742L69.488 32.5494L68.3859 28.4738Z" fill="#FFF0B4"/>
<path d="M47.6665 24.6736L43.9744 21.5894L40.8335 20.7082L36.4802 21.1488L33.2841 22.9112L30.9697 24.6736L28.9859 28.5289L28.2695 32.99L29.7023 37.2858L32.8433 40.0396L36.921 40.9759L40.8335 40.4802L44.25 38.6627L47.0052 36.1293L49.1543 32.1088V27.9781L47.6665 24.6736Z" fill="#FFF0B4"/>
<path d="M50.8626 51.9358L55.4363 49.5125V48.411H53.5076L49.0441 48.7965L45.7929 48.411L43.0928 47.4747L39.9518 46.2631L37.3619 45.7674V47.4747L39.6763 51.1097L44.25 52.6518L50.8626 51.9358Z" fill="white"/>
<ellipse rx="2.95487" ry="1.99702" transform="matrix(-0.970895 -0.239506 -0.23975 0.970835 86.7014 78.54)" fill="#9A76AC"/>
<ellipse rx="3.36804" ry="1.74743" transform="matrix(-0.970895 -0.239506 -0.23975 0.970835 77.4815 74.9493)" fill="#9A76AC"/>
<ellipse rx="3.14628" ry="1.66201" transform="matrix(-0.983334 0.181808 0.181998 0.983299 66.1469 75.569)" fill="#9A76AC"/>
<ellipse rx="2.4465" ry="1.66274" transform="matrix(-0.4003 0.916384 0.916543 0.399937 31.883 85.7399)" fill="#9A76AC"/>
<ellipse rx="3.38751" ry="1.76392" transform="matrix(-0.4003 0.916384 0.916543 0.399937 29.0266 94.3127)" fill="#9A76AC"/>
<ellipse rx="3.03042" ry="4.18622" transform="matrix(-0.886478 -0.46277 -0.463163 0.886273 57.8098 28.078)" fill="white"/>
<ellipse rx="3.35872" ry="4.48611" transform="matrix(-0.765578 -0.643343 -0.643751 0.765235 35.5944 27.1282)" fill="white"/>
<path fill-rule="evenodd" clip-rule="evenodd" d="M48.3753 7.19715C48.4001 7.22199 48.6477 7.26077 48.9254 7.28329C49.2032 7.30582 49.7031 7.34944 50.0363 7.38028C50.3695 7.41112 50.9023 7.45656 51.2204 7.48129C51.5385 7.50607 51.9102 7.56737 52.0465 7.6176C52.1828 7.66783 52.4431 7.70963 52.6248 7.71051C52.8066 7.71139 53.0661 7.75071 53.2016 7.79786C53.5428 7.91665 53.8798 7.98886 54.3322 8.03997C54.7361 8.08568 54.9572 8.13784 55.3235 8.27382C55.7133 8.41855 55.9344 8.48156 56.0526 8.48156C56.1161 8.48156 56.2837 8.53113 56.425 8.59171C56.5664 8.65229 56.7423 8.70186 56.816 8.70186C56.8897 8.70186 57.0797 8.77241 57.2382 8.85866C57.5073 9.00505 57.6159 9.04289 58.2288 9.20398C58.3575 9.23785 58.5868 9.30868 58.7382 9.3615C58.8897 9.41426 59.1127 9.48844 59.2339 9.52639C59.3551 9.56428 59.5657 9.66347 59.702 9.7468C59.8384 9.83018 60.0738 9.92888 60.2253 9.96616C60.4909 10.0316 62.499 10.9878 62.7922 11.1884C62.9255 11.2797 63.367 11.5166 64.2929 11.9936C64.5006 12.1007 64.8104 12.3167 64.9814 12.4736C65.1523 12.6306 65.4905 12.8854 65.7328 13.04C65.9752 13.1944 66.3202 13.4152 66.4996 13.5304C66.6791 13.6456 67.0784 13.9509 67.387 14.2087C67.6955 14.4666 68.1541 14.8386 68.4058 15.0355C68.6575 15.2324 69.0273 15.5546 69.2275 15.7515C69.4277 15.9484 69.7147 16.2123 69.8652 16.338C70.0157 16.4636 70.2107 16.6625 70.2985 16.78C70.3863 16.8975 70.5722 17.0792 70.7116 17.1838C70.851 17.2885 71.0517 17.4729 71.1578 17.5937C71.2638 17.7145 71.5384 18.0124 71.7681 18.2557C71.9978 18.499 72.2451 18.7847 72.3177 18.8908C72.3902 18.9968 72.6132 19.2454 72.8131 19.4432C73.013 19.641 73.3341 20.0376 73.5268 20.3244C73.7195 20.6112 73.9697 20.9351 74.0829 21.0441C74.196 21.1531 74.4423 21.5 74.6302 21.8151C74.818 22.1302 74.9888 22.4004 75.0098 22.4156C75.0899 22.4735 75.3986 22.9621 75.3988 23.0313C75.3991 23.1332 75.5863 23.4289 75.7769 23.6283C75.8654 23.7209 75.9672 23.8762 76.0033 23.9735C76.0393 24.0708 76.1053 24.2124 76.15 24.2881C76.1947 24.3638 76.2833 24.5373 76.3468 24.6736C76.4103 24.81 76.5548 25.0454 76.6679 25.1969C76.781 25.3483 76.9381 25.6013 77.017 25.7591C77.096 25.917 77.236 26.1648 77.3282 26.3099C77.4205 26.455 77.5355 26.7094 77.5838 26.8753C77.6322 27.0412 77.8295 27.4966 78.0222 27.8874C78.2149 28.2782 78.3727 28.6562 78.3727 28.7273C78.3727 28.7984 78.4435 29.0121 78.5302 29.2022C78.7937 29.78 79.0814 30.6269 79.3048 31.4818C79.3374 31.6065 79.364 31.8098 79.364 31.9337C79.364 32.0575 79.428 32.3273 79.5062 32.5331C79.5844 32.739 79.6696 33.0809 79.6955 33.2929C79.7214 33.5049 79.7698 33.8023 79.8031 33.9538C79.8364 34.1053 79.8877 34.5142 79.9173 34.8625C80.0043 35.8899 80.0581 36.3718 80.0958 36.4597C80.2033 36.711 80.2453 39.9033 80.1454 40.2324C80.1086 40.3535 80.066 40.8207 80.0507 41.2705C80.0355 41.7204 79.9986 42.1339 79.9689 42.1894C79.9391 42.245 79.9148 42.4349 79.9148 42.6115C79.9148 42.7954 79.8677 43.0613 79.8046 43.234C79.7353 43.4235 79.6945 43.6725 79.6945 43.9052C79.6945 44.2994 79.6174 44.656 79.417 45.1891C79.3487 45.3709 79.2762 45.6931 79.256 45.9051C79.2358 46.1171 79.1805 46.3898 79.133 46.5109C79.0856 46.6321 79.0175 46.8427 78.9817 46.9791C78.9459 47.1154 78.8772 47.3384 78.829 47.4747C78.7808 47.611 78.6859 47.8837 78.6181 48.0806C78.5502 48.2775 78.3965 48.6616 78.2764 48.9342C78.1564 49.2068 78.0266 49.529 77.9879 49.6502C77.7507 50.393 76.377 53.1979 75.9733 53.7638C75.872 53.9059 75.713 54.1726 75.6202 54.3566C75.4499 54.694 75.0806 55.2995 75.0142 55.3505C74.9521 55.398 74.6476 55.864 74.5283 56.094C74.4654 56.2152 74.3476 56.3886 74.2665 56.4795C74.1853 56.5704 74.0569 56.7419 73.9811 56.8607C73.9052 56.9795 73.7945 57.1282 73.7349 57.1911C73.6753 57.2541 73.5808 57.3944 73.5248 57.5029C73.4688 57.6114 73.3003 57.8256 73.1502 57.9789C73.0001 58.1322 72.7705 58.4152 72.6401 58.6077C72.5097 58.8003 72.3146 59.0446 72.2065 59.1507C72.0984 59.2567 71.924 59.4549 71.819 59.5913C71.714 59.7276 71.5647 59.9011 71.4872 59.9768C71.4097 60.0525 71.2859 60.2012 71.2122 60.3072C71.1384 60.4133 71.018 60.548 70.9446 60.6067C70.8712 60.6654 70.7342 60.7994 70.6402 60.9044C70.2959 61.2889 69.747 61.827 69.5077 62.0147C69.3726 62.1206 69.1634 62.3144 69.0428 62.4453C68.9221 62.5762 68.7185 62.7447 68.5904 62.8198C68.4622 62.8949 68.2749 63.0493 68.1741 63.1628C68.0734 63.2763 67.7803 63.5282 67.5228 63.7226C67.2653 63.917 66.9927 64.1332 66.9169 64.2032C66.8412 64.2731 66.6058 64.4456 66.3937 64.5866C66.1817 64.7274 65.9214 64.909 65.8154 64.9899C65.7094 65.0709 65.4244 65.2439 65.1821 65.3744C63.9047 66.0624 63.6427 66.4097 64.5926 66.1558C64.8259 66.0934 65.1408 66.0149 65.2922 65.9815C65.4437 65.9479 65.7287 65.8722 65.9256 65.8133C66.1225 65.7542 66.4695 65.6543 66.6966 65.591C66.9238 65.5279 67.2336 65.4386 67.3851 65.3928C67.6687 65.3069 68.0894 65.2329 68.762 65.1504C69.4407 65.0672 69.8035 65.004 70.0012 64.9344C70.1072 64.897 70.3922 64.8466 70.6345 64.8223C70.8769 64.798 71.1867 64.7491 71.323 64.7136C71.4593 64.6782 71.7195 64.6304 71.9013 64.6075C72.083 64.5846 72.2689 64.5497 72.3144 64.5298C72.3598 64.5099 72.8059 64.4811 73.3057 64.4658C73.8055 64.4505 74.4995 64.4106 74.8478 64.3771C75.3948 64.3246 75.918 64.305 76.266 64.3241C76.319 64.3271 76.6226 64.3031 76.9407 64.2709C77.6084 64.2032 77.5783 64.2032 78.4828 64.2727C80.7926 64.4502 81.2146 64.495 81.5946 64.6029C81.8512 64.6758 82.1651 64.7543 82.4758 64.8232C83.0577 64.9523 83.2059 64.9887 83.3845 65.0466C83.4906 65.0809 83.6641 65.1294 83.7701 65.1542C84.1222 65.2368 85.074 65.5871 85.4089 65.7572C85.5904 65.8494 85.7538 65.9249 85.772 65.9249C85.7902 65.9249 85.973 66.0019 86.1783 66.0961C86.3835 66.1902 86.6753 66.3159 86.8268 66.3752C87.1826 66.5147 87.4995 66.6997 88.1314 67.1365C88.3286 67.2729 88.7067 67.5286 88.9716 67.7048C89.2366 67.881 89.5564 68.1189 89.6822 68.2334C89.8081 68.3479 90.0587 68.535 90.2391 68.6493C90.6656 68.9194 91.8692 70.1336 92.1554 70.5824C92.2314 70.7016 92.4111 70.9225 92.5547 71.0735C93.0118 71.5539 93.6895 72.6645 93.8826 73.2499C93.9276 73.3862 94.0313 73.634 94.1131 73.8006C94.469 74.5261 94.4649 76.1171 94.1048 76.9907C94.0247 77.1853 93.9591 77.3904 93.9591 77.4467C93.9591 77.8674 93.1126 79.011 92.6133 79.2649C92.4901 79.3275 92.2725 79.4837 92.1295 79.6119C91.1506 80.4901 87.9399 81.1857 87.2536 80.6683C87.114 80.5631 87.1931 80.5198 87.5251 80.5198C87.9869 80.5198 88.4337 80.3802 88.784 80.1264C89.1936 79.8297 89.4148 79.4209 89.4936 78.8148C89.5253 78.5707 89.5274 78.5686 89.8884 78.4293C90.088 78.3523 90.311 78.2506 90.384 78.2034C90.4571 78.1562 90.6531 78.0539 90.8198 77.976C91.1265 77.8326 91.3621 77.5988 91.9723 76.8323C92.322 76.393 92.3184 76.4082 92.2884 75.5055C92.2533 74.4488 92.1482 73.9912 91.8026 73.3896C91.7089 73.2266 91.4351 72.7153 91.2293 72.3189C90.9897 71.8575 90.5441 71.3485 89.5855 70.4411C89.3775 70.2442 89.1439 70 89.0664 69.8984C88.9889 69.7969 88.75 69.5954 88.5354 69.4506C88.3209 69.3058 88.1105 69.1454 88.0678 69.094C88.0252 69.0425 87.8648 68.9377 87.7114 68.861C87.5581 68.7842 87.3519 68.6609 87.2533 68.5868C87.1547 68.5128 86.9069 68.3759 86.7025 68.2825C86.4982 68.1891 86.1822 68.0162 86.0001 67.8983C85.6377 67.6636 84.9306 67.3359 84.5411 67.2221C84.4048 67.1824 84.1694 67.0993 84.0179 67.0377C82.9544 66.6047 82.2438 66.4045 81.2641 66.2618C81.0824 66.2354 80.7974 66.1872 80.6308 66.1549C79.5268 65.9405 76.8686 65.7971 75.7566 65.8918C75.5748 65.9074 75.1163 65.933 74.7377 65.949C74.359 65.9648 73.8881 66.0025 73.6912 66.0326C72.9854 66.1406 72.0027 66.2559 71.5158 66.2878C71.2431 66.3057 70.9381 66.3453 70.8379 66.3757C70.7377 66.4062 70.4527 66.4384 70.2045 66.4471C69.9564 66.4558 69.6542 66.4895 69.533 66.5219C69.0145 66.6608 67.8591 66.9106 67.6054 66.9387C67.4539 66.9555 67.1813 66.9958 66.9996 67.0283C66.8178 67.0607 66.4956 67.1082 66.2836 67.1337C66.0715 67.1593 65.7933 67.2187 65.6652 67.2656C65.1845 67.442 64.3015 67.617 63.6789 67.6593C62.1651 67.762 61.7965 66.6937 63.0341 65.7908C63.1553 65.7024 63.3536 65.546 63.4747 65.4433C63.5959 65.3405 63.9057 65.1054 64.1632 64.9208C64.4206 64.7362 64.6685 64.5436 64.7139 64.4928C64.7594 64.442 64.9822 64.2683 65.209 64.1069C65.436 63.9455 65.6555 63.7794 65.6971 63.738C65.7386 63.6964 65.9743 63.5105 66.2208 63.3249C66.4674 63.1391 66.7945 62.8706 66.9477 62.7281C67.1009 62.5855 67.3013 62.4301 67.393 62.3827C67.4848 62.3353 67.6307 62.202 67.7172 62.0867C67.8038 61.9713 67.9857 61.7777 68.1217 61.6566C68.5139 61.3068 69.3707 60.4355 69.7131 60.038C69.8857 59.8378 70.2387 59.4384 70.4975 59.1507C70.7563 58.8629 71.0322 58.5407 71.1106 58.4347C71.189 58.3287 71.3818 58.1056 71.5391 57.939C71.6965 57.7724 71.8996 57.497 71.9907 57.3271C72.0818 57.1572 72.2353 56.9341 72.3318 56.8314C72.5305 56.6199 73.0854 55.8205 73.0854 55.7456C73.0854 55.7186 73.181 55.5876 73.2978 55.4546C73.4147 55.3216 73.5924 55.0641 73.6928 54.8823C73.7932 54.7006 74.0579 54.2716 74.2811 53.929C74.5042 53.5865 74.7358 53.1818 74.7958 53.0297C74.8557 52.8776 75.0008 52.6117 75.1182 52.4388C75.3381 52.1151 75.5133 51.7608 76.3201 50.0082C76.8396 48.8799 77.0509 48.3739 77.0509 48.2583C77.0509 48.2162 77.1252 48.0122 77.2161 47.8052C77.307 47.5982 77.3814 47.3709 77.3815 47.3003C77.3816 47.2296 77.4559 46.9896 77.5467 46.7668C77.6375 46.5441 77.7118 46.2892 77.7118 46.2005C77.7118 46.1117 77.7791 45.9098 77.8615 45.7518C77.9641 45.5548 78.0236 45.3346 78.0507 45.0514C78.1218 44.3116 78.1902 43.9791 78.3231 43.7283C78.42 43.5455 78.4642 43.3465 78.4942 42.9586C78.5397 42.37 78.6142 41.7402 78.706 41.1686C78.7401 40.9566 78.7652 40.6158 78.7618 40.4114C78.7556 40.0458 78.7541 39.0199 78.7584 38.1808C78.7636 37.1761 78.6181 35.4402 78.4849 34.9176C78.3878 34.5365 78.3161 34.2011 78.2673 33.8987C78.2428 33.7473 78.1822 33.5149 78.1325 33.3823C78.0829 33.2498 78.0422 33.0231 78.0422 32.8787C78.0422 32.7099 77.9832 32.4774 77.8772 32.2282C77.7864 32.015 77.6771 31.7088 77.6343 31.5478C77.5914 31.3868 77.4704 30.9949 77.3654 30.6768C77.2604 30.3588 77.1434 29.9746 77.1054 29.8232C77.0673 29.6717 76.9869 29.461 76.9265 29.355C76.8662 29.249 76.773 29.0383 76.7194 28.8869C76.4641 28.1655 76.3544 27.9179 76.1066 27.5042C75.9595 27.2586 75.8392 27.0218 75.8392 26.9779C75.8392 26.9341 75.7698 26.788 75.685 26.6534C75.6002 26.5187 75.4874 26.2694 75.4344 26.0994C75.3219 25.7387 74.8181 24.867 74.5753 24.6129C74.4828 24.5162 74.4071 24.3973 74.407 24.3488C74.4067 24.2236 74.218 23.9301 73.9938 23.7058C73.8884 23.6003 73.7535 23.4189 73.6941 23.3024C73.6347 23.186 73.4815 22.9821 73.3536 22.8495C73.2258 22.7168 72.9897 22.407 72.829 22.161C72.6684 21.915 72.3724 21.5368 72.1713 21.3206C71.7776 20.8971 71.5269 20.5798 71.3308 20.2564C71.2627 20.1442 71.0874 19.9647 70.9413 19.8574C70.7951 19.7501 70.6135 19.5816 70.5378 19.483C70.3648 19.2581 70.123 19.0063 69.9424 18.8632C69.8659 18.8026 69.6991 18.6116 69.5718 18.4388C69.4445 18.2658 69.2484 18.0552 69.1362 17.9706C69.0239 17.886 68.8194 17.6958 68.6818 17.548C68.5442 17.4001 68.3061 17.186 68.1529 17.0721C67.9997 16.9582 67.6139 16.6331 67.2956 16.3496C66.9774 16.0661 66.5203 15.6992 66.2799 15.5343C66.0396 15.3694 65.7166 15.134 65.5622 15.0111C64.5873 14.2353 64.3922 14.1022 64.0101 13.9523C63.8065 13.8725 63.5904 13.7635 63.5298 13.7102C63.3551 13.5562 62.2482 12.8924 61.7949 12.6698C61.5677 12.5582 61.3075 12.4265 61.2166 12.3771C60.8885 12.1987 60.2749 11.9373 60.0231 11.8686C59.8817 11.83 59.671 11.723 59.555 11.6308C59.439 11.5387 59.2449 11.4466 59.1237 11.4262C58.8244 11.3758 58.4831 11.2611 58.2323 11.1268C58.1177 11.0653 57.9919 11.015 57.9528 11.015C57.9137 11.015 57.7069 10.927 57.4932 10.8193C57.2067 10.675 56.9904 10.6106 56.6696 10.574C56.4303 10.5468 56.18 10.4953 56.1134 10.4596C55.9843 10.3905 55.5005 10.2692 55.0482 10.1925C54.8967 10.1668 54.6241 10.1045 54.4423 10.054C53.6707 9.83955 53.2676 9.74658 52.9828 9.71739C52.8162 9.70026 52.5188 9.65058 52.3219 9.60686C52.125 9.56318 51.7285 9.50353 51.4407 9.4744C51.1529 9.44521 50.6944 9.38138 50.4218 9.33253C49.8866 9.23658 49.5016 9.21301 47.8883 9.17732C47.2621 9.16344 46.7694 9.12726 46.6612 9.08722C46.559 9.04938 46.4274 9.03842 46.3583 9.06194C46.2911 9.08485 45.8023 9.12319 45.2722 9.14714C44.7421 9.1711 44.1473 9.21659 43.9504 9.24826C43.7535 9.27987 43.295 9.3203 42.9315 9.33809C42.568 9.35588 42.0679 9.41828 41.8203 9.47677C41.5725 9.5352 41.2776 9.58306 41.1648 9.58306C41.052 9.58306 40.7094 9.63175 40.4034 9.69128C39.2969 9.90663 39.0169 9.96247 38.7733 10.0163C38.1529 10.1534 37.5942 10.244 37.3686 10.244C37.1996 10.244 37.0194 10.2981 36.7927 10.4169C36.6001 10.5179 36.2863 10.6206 36.0383 10.6636C35.8049 10.7042 35.4883 10.7849 35.3348 10.8427C34.93 10.9954 34.6762 11.0701 34.5625 11.0701C34.5076 11.0701 34.2739 11.1652 34.0432 11.2814C33.8125 11.3977 33.4998 11.5245 33.3484 11.5633C33.1969 11.6022 32.9243 11.6904 32.7425 11.7594C32.5608 11.8284 32.3282 11.9025 32.2257 11.9241C32.1232 11.9457 31.8325 12.0597 31.5797 12.1776C31.327 12.2955 31.0883 12.3919 31.0494 12.3919C30.922 12.3919 30.4113 12.598 30.2448 12.7166C30.1552 12.7803 30.0586 12.8325 30.0301 12.8325C30.0016 12.8325 29.8249 12.9316 29.6374 13.0528C29.45 13.174 29.2844 13.2731 29.2695 13.2731C29.2546 13.2731 28.8363 13.4714 28.3399 13.7137C27.8435 13.956 27.4093 14.1543 27.3753 14.1543C27.2374 14.1543 26.8819 14.3896 26.4847 14.7438C26.2539 14.9496 25.9689 15.1701 25.8514 15.2337C25.2919 15.5363 25.088 15.6679 24.5316 16.0854C24.2023 16.3326 23.8758 16.5565 23.8062 16.5829C23.7365 16.6094 23.5625 16.7397 23.4195 16.8725C23.2764 17.0053 23.085 17.1518 22.9942 17.198C22.9033 17.2443 22.7455 17.386 22.6434 17.513C22.5414 17.6399 22.3262 17.8281 22.1651 17.9312C22.004 18.0342 21.7656 18.2424 21.6352 18.3937C21.5048 18.545 21.2246 18.7993 21.0126 18.9588C20.5627 19.2971 20.4719 19.3832 20.213 19.7169C20.1073 19.8532 19.9666 20.0085 19.9004 20.062C19.8342 20.1155 19.5739 20.4221 19.3218 20.7434C19.0697 21.0646 18.6489 21.5438 18.3867 21.8082C18.1058 22.0915 17.8479 22.4113 17.7592 22.5864C17.6763 22.7499 17.4634 23.0996 17.286 23.3635C17.1086 23.6274 16.9634 23.8711 16.9634 23.9051C16.9634 23.9392 16.8147 24.1819 16.6329 24.4446C16.4512 24.7073 16.3025 24.9623 16.3025 25.0112C16.3025 25.0601 16.1836 25.283 16.0382 25.5065C15.8929 25.73 15.7164 26.0558 15.6459 26.2305C15.5755 26.4052 15.4316 26.6611 15.3261 26.7992C15.1352 27.0492 14.8705 27.64 14.8705 27.8162C14.8705 27.867 14.7466 28.2101 14.5951 28.5786C14.4437 28.947 14.3198 29.2936 14.3198 29.3486C14.3198 29.4037 14.2532 29.5702 14.1719 29.7186C14.0874 29.8727 14.0066 30.1302 13.9836 30.3188C13.9258 30.7917 13.8606 31.0431 13.6947 31.4325C13.6144 31.6209 13.5487 31.8315 13.5487 31.9006C13.5487 32.1182 13.3997 32.7278 13.2528 33.1106C13.1356 33.4164 13.1214 33.5075 13.1698 33.6464C13.2443 33.8601 13.1522 34.8666 13.0333 35.1379C13.0134 35.1833 12.983 35.7534 12.9658 36.4046C12.9236 37.9969 12.9225 37.8955 12.9949 39.0482C13.03 39.6086 13.0676 40.4164 13.0783 40.8433C13.0926 41.408 13.1245 41.6931 13.1955 41.8897C13.2493 42.0384 13.3115 42.3459 13.3339 42.573C13.3817 43.0568 13.4465 43.3863 13.5615 43.7296C13.6072 43.8659 13.6734 44.1633 13.7087 44.3905C13.744 44.6177 13.8111 44.9151 13.8578 45.0514C13.9045 45.1877 13.9622 45.386 13.9859 45.492C14.0096 45.598 14.0846 45.8335 14.1525 46.0152C14.5051 46.9578 14.6503 47.4071 14.6508 47.5568C14.651 47.6479 14.7157 47.8589 14.7945 48.0255C14.8733 48.1921 14.983 48.51 15.0382 48.732C15.0996 48.9787 15.2235 49.2679 15.357 49.4756C15.6074 49.8653 15.8304 50.2983 16.0852 50.8894C16.1831 51.1166 16.368 51.4759 16.496 51.688C16.624 51.9 16.7443 52.1231 16.7633 52.1837C16.7823 52.2442 16.9114 52.4177 17.0503 52.5692C17.3315 52.8758 17.6243 53.4048 17.6243 53.606C17.6243 53.6943 17.7586 53.8774 18.0339 54.1646C18.2593 54.3997 18.5115 54.726 18.5944 54.89C18.6773 55.0539 18.8958 55.3333 19.0797 55.5108C19.6746 56.0848 20.3417 56.8385 20.4996 57.1149C20.5842 57.2631 20.7047 57.4118 20.7674 57.4454C20.8301 57.4789 21.0123 57.6249 21.1723 57.7698C21.3323 57.9147 21.535 58.0772 21.6228 58.131C21.7106 58.1847 21.8816 58.3458 22.0028 58.4889C22.124 58.6321 22.3545 58.8456 22.515 58.9637C22.6755 59.0816 22.9066 59.2963 23.0285 59.4407C23.1503 59.585 23.3908 59.7928 23.5627 59.9023C23.7346 60.0118 24.0241 60.2491 24.2058 60.4297C24.3876 60.6103 24.623 60.8034 24.729 60.8588C24.8351 60.9142 25.0333 61.0633 25.1696 61.1901C25.306 61.3169 25.5037 61.4579 25.609 61.5033C25.8486 61.6066 26.192 61.8414 26.433 62.0665C26.5345 62.1613 27.0499 62.5249 27.5782 62.8744C28.1066 63.2238 28.6147 63.5823 28.7074 63.6709C28.8002 63.7596 28.9047 63.832 28.9398 63.832C29.0099 63.832 30.0639 64.4376 30.4569 64.7037C30.5932 64.796 30.9216 64.9837 31.1867 65.1207C31.4517 65.2579 31.8147 65.4693 31.9933 65.5906C32.1719 65.7119 32.4507 65.8705 32.6129 65.9432C32.7751 66.0159 33.002 66.1514 33.1172 66.2443C33.2324 66.3371 33.5298 66.4906 33.7781 66.5854C34.0264 66.6801 34.468 66.904 34.7593 67.083C35.2601 67.3905 35.4274 67.4634 36.0195 67.6317C36.1558 67.6705 36.3541 67.7271 36.4601 67.7576C36.9478 67.8979 37.5479 68.1634 37.6856 68.2998C38.0265 68.6377 37.7746 68.9705 37.2672 68.8525C36.2817 68.6231 35.8854 68.5651 35.1274 68.5393C34.6519 68.523 34.2182 68.5345 34.0993 68.5665C33.9863 68.597 33.7091 68.6433 33.4834 68.6695C32.9629 68.7299 32.3356 68.9101 31.6686 69.1911C31.3808 69.3123 30.9843 69.4791 30.7874 69.5617C30.5905 69.6443 30.2559 69.8181 30.0438 69.9479C29.8318 70.0776 29.5255 70.2426 29.3631 70.3144C29.067 70.4454 28.8437 70.6051 28.3704 71.024C28.2306 71.1477 28.0047 71.3254 27.8683 71.419C27.5476 71.6392 27.3592 71.851 26.6807 72.7545C26.3734 73.1637 26.0813 73.5323 26.0314 73.5737C25.9815 73.615 25.9407 73.6896 25.9407 73.7393C25.9407 73.789 25.8887 73.9657 25.825 74.1319C25.0966 76.0338 24.9798 76.6815 25.0475 78.4414C25.0681 78.977 25.0561 79.2615 25.0067 79.4113C24.9443 79.6005 24.9506 79.6611 25.0652 79.9752C25.1483 80.2031 25.1963 80.4628 25.2013 80.7126C25.2056 80.9246 25.2512 81.2344 25.3027 81.401C25.3633 81.5975 25.4045 81.964 25.4197 82.4441C25.4345 82.9124 25.4751 83.2805 25.5302 83.4464C25.6476 83.8001 25.6076 85.7214 25.4546 87.0737C25.2869 88.5563 25.2669 88.6482 25.0479 88.94C24.9937 89.0122 24.9487 89.1609 24.948 89.2704C24.9473 89.3799 24.8831 89.6182 24.8055 89.7999C24.7278 89.9817 24.6425 90.2353 24.6159 90.3634C24.5893 90.4915 24.5194 90.7022 24.4607 90.8316C24.1481 91.5193 23.9692 91.868 23.5913 92.5262C23.4957 92.6928 23.3785 92.9623 23.3307 93.125C23.283 93.2878 23.1603 93.5728 23.058 93.7584C22.9557 93.944 22.8425 94.2169 22.8065 94.3648C22.7705 94.5128 22.6933 94.7274 22.635 94.8417C22.5766 94.956 22.5119 95.1559 22.4911 95.286C22.4703 95.4161 22.4054 95.6476 22.3469 95.8005C21.6358 97.657 22.4141 99.3921 23.9224 99.3132C24.25 99.2961 24.4769 99.3089 24.5517 99.349C24.6495 99.4013 24.7098 99.3854 24.921 99.2514C25.0599 99.1634 25.3152 99.035 25.4883 98.9662C25.6614 98.8973 25.865 98.7988 25.9407 98.7473C26.0164 98.6958 26.2023 98.5906 26.3538 98.5135C26.5052 98.4364 26.7407 98.2576 26.877 98.116C27.0133 97.9744 27.2318 97.7841 27.3626 97.6931C27.4934 97.6021 27.6752 97.406 27.7666 97.2575C27.9104 97.0238 27.957 96.9873 28.1111 96.9873C28.5653 96.9873 29.7438 96.094 30.0005 95.5553C30.1853 95.1675 30.512 94.4394 30.512 94.4155C30.512 94.4005 30.5641 94.315 30.6279 94.2255C30.8174 93.9593 30.9002 93.5383 30.9188 92.7465C30.937 91.9701 31.0332 91.5673 31.3347 91.0048C31.3972 90.8883 31.4483 90.7514 31.4483 90.7007C31.4483 90.5633 31.7462 89.6776 32.0361 88.9529C32.2073 88.525 32.3048 88.1869 32.3317 87.9281C32.3835 87.4282 32.4348 87.3131 32.7268 87.0422C33.344 86.4695 33.5817 85.2438 33.2157 84.5225C33.0676 84.231 33.0387 84.1226 33.07 83.9777C33.0914 83.8782 33.132 83.6481 33.16 83.4663C33.188 83.2846 33.2498 82.9128 33.2974 82.6402C33.3449 82.3676 33.4029 81.9215 33.4263 81.6488C33.4497 81.3762 33.5008 81.0664 33.54 80.9604C33.5791 80.8544 33.6329 80.5941 33.6597 80.3821C33.7411 79.7376 33.8075 79.2944 33.8659 79.0052C33.8965 78.8538 33.9436 78.6183 33.9704 78.482C33.9973 78.3457 34.0603 78.1382 34.1106 78.0209C34.1609 77.9036 34.202 77.7493 34.202 77.6779C34.202 77.6065 34.2636 77.4175 34.3388 77.2578C34.414 77.0981 34.5695 76.7444 34.6844 76.4718C34.9902 75.7462 35.755 74.669 35.9005 74.759C35.9932 74.8163 35.9789 74.994 35.8681 75.1632C35.624 75.5358 35.589 75.8097 35.7463 76.1179C35.8082 76.2394 35.8396 76.3679 35.8164 76.4048C35.7932 76.4417 35.7551 76.6143 35.7317 76.7885C35.7082 76.9626 35.6625 77.2601 35.6301 77.4494C35.5014 78.2009 35.4483 79.3512 35.4623 81.0843C35.4627 81.1374 35.4637 81.2737 35.4645 81.3872C35.4653 81.5008 35.4921 81.8292 35.524 82.117C35.5559 82.4047 35.6057 82.9128 35.6347 83.246C35.8453 85.6665 35.8918 86.0025 36.0761 86.4404C36.1664 86.6548 36.2424 87.066 36.2746 87.5143C36.2899 87.7262 36.3639 88.0297 36.4561 88.2579C36.6549 88.7503 36.7913 89.1428 36.8484 89.3869C36.8731 89.4929 36.9212 89.6788 36.9553 89.7999C36.9893 89.9211 37.0367 90.0946 37.0606 90.1855C37.0845 90.2764 37.18 90.5242 37.2728 90.7362C37.3656 90.9483 37.4681 91.2209 37.5005 91.3421C37.533 91.4632 37.6085 91.6532 37.6683 91.7642C37.8542 92.1089 38.3878 93.3417 38.3878 93.4262C38.3878 93.4703 38.4776 93.6391 38.5873 93.8012C38.697 93.9632 38.8718 94.2817 38.9759 94.5089C39.0799 94.7361 39.2572 95.0335 39.3699 95.1698C39.4826 95.3061 39.604 95.4844 39.6397 95.5661C39.6753 95.6478 39.7889 95.8089 39.8919 95.9241C39.9949 96.0393 40.1475 96.2451 40.2309 96.3814C40.407 96.6692 41.5523 97.8066 41.7833 97.9232C42.0258 98.0455 42.5476 98.4192 42.8799 98.7084C43.0452 98.8522 43.2287 98.97 43.2875 98.97C43.3464 98.97 43.4514 98.9921 43.521 99.0193C43.5906 99.0465 43.75 99.0991 43.8753 99.1362C44.0006 99.1733 44.1865 99.275 44.2884 99.3621C44.415 99.4703 44.5347 99.5208 44.6664 99.5214C44.8821 99.5224 45.2837 99.6491 45.4577 99.771C45.5206 99.8151 45.6751 99.8512 45.801 99.8512C45.9269 99.8512 46.1258 99.894 46.2431 99.9462C46.6706 100.137 48.6836 100.192 49.1964 100.028C49.6843 99.871 49.7856 99.8512 50.0985 99.8512C50.4942 99.8512 52.4791 98.9409 52.862 98.5838C52.9436 98.5078 53.0971 98.3841 53.2031 98.309C53.5956 98.031 54.3046 97.2198 54.3046 97.0488C54.3046 97.0125 54.3542 96.8857 54.4148 96.767C54.5779 96.4473 54.5784 95.1792 54.4156 94.9505C54.3554 94.866 54.2569 94.6888 54.1966 94.5565C53.9148 93.9375 53.5233 93.3762 53.2224 93.1596C53.1057 93.0757 52.9182 92.8924 52.8055 92.7523C52.3913 92.2373 51.7922 91.6529 51.5594 91.5366C51.4279 91.4709 51.2296 91.3186 51.1188 91.1981C51.0081 91.0776 50.7936 90.9081 50.6421 90.8214C50.3737 90.6677 49.8435 90.1863 49.8435 90.0962C49.8435 90.0714 49.6638 89.9288 49.4442 89.7792C49.0705 89.5246 47.5889 88.0944 47.3833 87.7897C47.3322 87.714 47.1275 87.4779 46.9285 87.2651C46.7294 87.0524 46.5301 86.8045 46.4856 86.7144C46.441 86.6243 46.3403 86.4514 46.2616 86.3302C46.1829 86.2091 46.0752 86.016 46.0222 85.9011C45.9692 85.7864 45.8556 85.6124 45.7698 85.5146C45.6839 85.4169 45.525 85.1546 45.4166 84.9318C45.3081 84.7091 45.1966 84.4989 45.1687 84.4647C45.1408 84.4305 45.0531 84.2086 44.9738 83.9716C44.8945 83.7345 44.781 83.4452 44.7215 83.3286C44.5387 82.9703 44.3359 82.3025 44.3359 82.0587C44.3359 81.9314 44.2607 81.608 44.1687 81.34L44.0015 80.8529L44.02 79.6262C44.0339 78.712 44.0624 78.3012 44.1322 78.0139C44.1837 77.8019 44.2258 77.5671 44.2258 77.4923C44.2258 77.4174 44.2726 77.1943 44.3298 76.9965C44.4636 76.5339 44.6134 75.9612 44.6492 75.7754C44.6696 75.6692 44.6236 75.5503 44.479 75.3355C44.1513 74.8489 44.2473 74.6249 44.7799 74.633C44.9447 74.6356 45.1694 74.6204 45.2792 74.5994C45.5551 74.5467 45.6727 74.7081 45.6243 75.073C45.5923 75.3141 45.6015 75.339 45.7844 75.5054C45.8912 75.6026 46.008 75.7532 46.044 75.8402C46.08 75.9271 46.1651 76.0347 46.233 76.0792C46.301 76.1237 46.424 76.298 46.5065 76.4665C46.5889 76.6351 46.7353 76.8712 46.8318 76.9912C47.0153 77.2197 47.2791 77.6107 47.421 77.8647C47.4668 77.9467 47.6465 78.2515 47.8203 78.5419C47.994 78.8323 48.1363 79.0925 48.1364 79.1202C48.1366 79.1478 48.2108 79.282 48.3014 79.4183C48.392 79.5546 48.4662 79.6981 48.4664 79.7372C48.4665 79.7763 48.5658 80.0106 48.6869 80.2578C48.8081 80.505 48.9072 80.7304 48.9072 80.7587C48.9072 80.835 49.3552 81.7295 49.4105 81.7637C49.4366 81.7798 49.458 81.8663 49.458 81.9558C49.458 82.0454 49.5323 82.2504 49.6232 82.4114C49.7141 82.5724 49.7884 82.7584 49.7884 82.8246C49.7884 82.8909 49.9124 83.192 50.0638 83.4939C50.2185 83.8021 50.3392 84.1181 50.3392 84.2147C50.3392 84.3094 50.4107 84.5391 50.498 84.7252C50.6364 85.0199 50.9474 85.8103 51.162 86.4128C51.1997 86.5189 51.2805 86.7295 51.3414 86.881C51.4023 87.0324 51.5199 87.3422 51.6027 87.5694C51.6855 87.7966 51.9043 88.2923 52.0888 88.6709C52.2734 89.0496 52.4656 89.4777 52.5159 89.6223C52.6452 89.9938 52.9137 90.371 53.2031 90.5877C53.3394 90.6898 53.5005 90.8148 53.5611 90.8656C53.6217 90.9163 53.8269 91.0773 54.017 91.2232C54.2072 91.3692 54.467 91.6291 54.5944 91.8008C54.7217 91.9725 54.99 92.299 55.1906 92.5262C55.5907 92.9793 55.9569 93.5013 55.9569 93.6184C55.9569 93.6596 56.0018 93.7591 56.0568 93.8395C56.1117 93.9199 56.184 94.0848 56.2175 94.206C56.3361 94.6358 56.3933 94.869 56.4203 95.0321C56.4353 95.123 56.4755 95.3212 56.5096 95.4727C56.5845 95.8051 56.5846 95.893 56.5112 96.4856L56.454 96.9478L56.7149 97.3023C56.8584 97.4972 57.0997 97.8402 57.2512 98.0643C57.4302 98.3293 57.6145 98.5274 57.778 98.6306C57.9163 98.718 58.0898 98.8492 58.1636 98.9222C58.426 99.1821 59.0133 99.6309 59.091 99.6309C59.1344 99.6309 59.3016 99.7052 59.4627 99.7961C59.6616 99.9083 59.831 99.9613 59.9911 99.9613C60.1208 99.9613 60.3625 100.011 60.5282 100.071C60.8665 100.195 61.5889 100.223 61.8129 100.121C61.9107 100.076 61.9773 100.077 62.0627 100.122C62.1818 100.186 62.7429 100.036 63.1456 99.8325C63.2357 99.787 63.4126 99.7079 63.5385 99.6567C63.6646 99.6055 63.8511 99.4857 63.9531 99.3907C64.0552 99.2956 64.2247 99.1525 64.3299 99.0726C64.7179 98.778 65.1503 98.2866 65.4164 97.8378C65.5052 97.6881 65.6437 97.4692 65.7242 97.3513C65.8103 97.2253 65.8705 97.0617 65.8705 96.9541C65.8705 96.8534 65.9195 96.6401 65.9795 96.4799C66.21 95.8636 66.0909 94.4726 65.7612 93.9306C65.7059 93.8397 65.6216 93.6321 65.5737 93.4692C65.5259 93.3063 65.3996 93.0667 65.293 92.9366C65.1865 92.8066 65.0525 92.5929 64.9954 92.4617C64.9381 92.3306 64.8006 92.1366 64.6895 92.0306C64.5785 91.9246 64.4366 91.7356 64.3741 91.6105C64.3116 91.4854 64.1613 91.2748 64.04 91.1423C63.8031 90.8837 63.337 90.2512 63.337 90.1884C63.337 90.1316 63.0198 89.6763 62.7401 89.3318C62.6049 89.1652 62.4456 88.9174 62.3862 88.7811C62.3268 88.6448 62.1961 88.4465 62.0958 88.3405C61.9955 88.2344 61.7999 87.9278 61.6611 87.659C61.5224 87.3902 61.3346 87.0857 61.2438 86.9823C61.0518 86.7637 60.8332 86.3494 60.7801 86.1039C60.7598 86.0097 60.658 85.8006 60.554 85.6391C60.45 85.4777 60.3238 85.2202 60.2737 85.0669C60.2236 84.9135 60.1284 84.6766 60.0623 84.5403C59.9963 84.404 59.9071 84.1809 59.8643 84.0446C59.8214 83.9083 59.7055 83.6619 59.6065 83.4971C59.5076 83.3323 59.4267 83.1712 59.4266 83.1391C59.4266 83.107 59.3498 82.9197 59.2559 82.7228C59.162 82.5259 59.0525 82.2533 59.0127 82.117C58.9457 81.8879 58.6692 81.0438 58.5347 80.6575C58.503 80.5666 58.3954 80.2568 58.2955 79.969C58.1956 79.6813 58.0375 79.2847 57.9441 79.0878C57.8508 78.891 57.7597 78.6431 57.7419 78.5371C57.712 78.36 57.6259 78.1002 57.4042 77.5182C57.3011 77.2477 57.1888 76.8142 57.0618 76.1964C56.9963 75.878 56.6859 75.0628 56.5896 74.9564C56.5084 74.8667 56.1139 74.1715 55.8714 73.6905C55.584 73.1207 55.5415 72.6804 55.7641 72.579C55.9362 72.5005 55.9362 72.433 55.7641 72.0933C55.4834 71.5392 55.6426 71.5041 56.0011 72.0411C56.1315 72.2364 56.3095 72.483 56.3967 72.589C56.5717 72.8016 57.0507 73.4802 57.388 73.9934C57.776 74.5839 57.9583 74.8023 58.2406 75.0149C58.3931 75.1298 58.5923 75.2907 58.6831 75.3724C58.774 75.4541 58.9599 75.5692 59.0962 75.6281C59.2325 75.6871 59.4088 75.7971 59.4879 75.8725C59.5669 75.9478 59.7528 76.0431 59.9009 76.0842C60.049 76.1252 60.2941 76.209 60.4456 76.2703C61.3047 76.6179 62.1189 76.7693 62.6053 76.6716C63.2301 76.5461 63.7014 76.5875 64.2477 76.8157C64.7258 77.0154 64.7624 77.0219 65.4024 77.0209L66.0633 77.0199L66.5865 76.7815C66.8743 76.6503 67.2336 76.4875 67.3851 76.4196C67.692 76.2822 67.9828 76.0114 68.1096 75.745C68.2183 75.5167 68.6993 75.0674 68.8351 75.0674C68.893 75.0674 69.0956 75.0178 69.2852 74.9572C69.4748 74.8966 69.7267 74.8471 69.845 74.8471C69.9632 74.8471 70.1768 74.7886 70.3197 74.7172C70.8316 74.4613 71.9967 74.2623 73.4395 74.1844C74.4583 74.1294 74.5174 74.142 74.5174 74.4144C74.5174 74.6567 74.8034 75.2342 75.0404 75.4701C75.3214 75.7498 75.9448 76.0555 76.2396 76.0579C76.2932 76.0583 76.5639 76.1727 76.8412 76.3119C77.5535 76.6697 77.9361 76.7849 78.5127 76.8155C79.0363 76.8433 79.1427 76.8203 79.8322 76.5306C80.3459 76.3148 80.9314 76.4235 81.4569 76.8325C81.5629 76.915 81.7116 76.9952 81.7874 77.0107C82.0824 77.0714 82.5732 77.2194 82.6868 77.282C82.7525 77.3181 83.0789 77.451 83.4121 77.5771L84.0179 77.8066L84.0511 78.0204C84.1765 78.8279 85.7665 80.4096 86.4529 80.4096C86.5106 80.4096 86.606 80.4468 86.6648 80.4923C86.8025 80.5987 86.627 80.7697 86.4412 80.71C86.3807 80.6905 86.2179 80.6572 86.0796 80.6359C85.9413 80.6146 85.7139 80.5302 85.5741 80.4484C85.3572 80.3213 85.2577 80.2995 84.8932 80.2995C84.4732 80.2995 84.2615 80.2565 83.8802 80.0939C83.7742 80.0487 83.5512 79.9676 83.3845 79.9136C82.3324 79.5731 81.5072 79.1944 81.0221 78.8293C80.8891 78.7292 80.7334 78.6472 80.6764 78.6472C80.5636 78.6472 79.9775 78.3665 79.7394 78.1985C79.6581 78.1411 79.4882 78.0577 79.3618 78.0131C79.2354 77.9685 79.0169 77.8483 78.8762 77.746C78.7356 77.6438 78.4718 77.5221 78.2901 77.4755C78.1083 77.4289 77.7691 77.3017 77.5364 77.1929C77.3036 77.084 77.0702 76.995 77.0179 76.995C76.9654 76.995 76.7419 76.8959 76.5211 76.7747C76.3004 76.6535 76.0505 76.554 75.9657 76.5536C75.881 76.5531 75.7001 76.5129 75.5638 76.4642C75.1022 76.2993 74.9316 76.2641 74.3521 76.2149C72.861 76.088 72.7159 76.0943 71.5158 76.3396C71.3643 76.3706 71.0669 76.415 70.8548 76.4382C70.6044 76.4657 70.2418 76.5706 69.8198 76.7378C69.3696 76.916 69.0903 76.995 68.91 76.995C68.7218 76.995 68.5926 77.0339 68.4429 77.1356C68.1943 77.3046 67.8404 77.4356 67.6327 77.4356C67.4809 77.4356 67.3073 77.4972 66.7638 77.7441C66.585 77.8254 66.3703 77.8762 66.206 77.8762C66.0592 77.8762 65.8454 77.9153 65.7311 77.963C65.6168 78.0108 65.3845 78.0751 65.2149 78.1059C65.0454 78.1366 64.7952 78.1852 64.6588 78.2139C64.4114 78.266 63.8264 78.3425 63.1969 78.4052C62.9441 78.4304 62.7703 78.4105 62.4749 78.3225C62.261 78.2588 61.9721 78.2066 61.833 78.2066C61.6938 78.2066 61.4363 78.1669 61.2606 78.1182C61.0849 78.0696 60.8421 78.0106 60.7209 77.9871C60.4865 77.9417 59.4948 77.5258 59.4038 77.4348C59.1308 77.1618 59.0951 77.4868 59.345 77.9699C59.4515 78.1758 59.6022 78.5662 59.68 78.8374C59.7577 79.1086 59.8688 79.4235 59.9269 79.5374C59.985 79.6512 60.0325 79.7716 60.0325 79.8049C60.0325 79.8382 60.1316 80.0732 60.2528 80.327C60.374 80.5809 60.4731 80.8269 60.4731 80.8737C60.4731 80.9205 60.5698 81.1636 60.6879 81.4139C60.9573 81.9848 61.2109 82.6206 61.2979 82.9431C61.3601 83.1741 61.5091 83.4988 61.8285 84.0997C61.9689 84.3639 62.1861 84.8093 62.2849 85.036C62.318 85.1117 62.442 85.3089 62.5606 85.4742C62.6792 85.6396 62.8076 85.875 62.8461 85.9975C62.9462 86.3161 63.0419 86.4964 63.2665 86.7888C63.3752 86.9304 63.5265 87.1825 63.6028 87.3491C63.6792 87.5157 63.8338 87.7635 63.9466 87.8999C64.0593 88.0362 64.2136 88.2716 64.2895 88.4231C64.3653 88.5745 64.6177 88.9339 64.8503 89.2217C65.083 89.5094 65.3364 89.8688 65.4135 90.0202C65.4907 90.1717 65.6581 90.4079 65.7855 90.545C65.913 90.6822 66.0626 90.9176 66.1179 91.0682C66.1732 91.2188 66.3242 91.4536 66.4535 91.5899C66.5827 91.7262 66.7491 91.976 66.823 92.1449C66.897 92.3139 67.0372 92.5617 67.1345 92.6956C67.3288 92.9629 67.4677 93.2585 67.4677 93.4046C67.4677 93.4563 67.5265 93.6453 67.5983 93.8247C67.6702 94.0041 67.7615 94.3561 67.8013 94.607C67.8914 95.175 67.8591 95.1519 68.7424 95.2818C84.8705 97.6546 86.6879 102.433 72.5622 105.325C65.5511 106.76 62.1027 106.843 57.4008 105.691C54.3324 104.939 53.2726 104.817 50.7085 104.923C44.6925 105.17 35.537 104.855 31.1729 104.25C28.1004 103.824 26.2394 102.968 25.2425 101.52C25.0274 101.208 24.8422 101.164 24.4986 101.345C24.3419 101.427 23.6058 101.401 23.3453 101.303C23.2128 101.254 22.9928 101.194 22.8565 101.169C22.2637 101.063 22.1126 101.007 21.7424 100.753C21.3763 100.502 21.1182 100.263 20.7116 99.7961C20.4727 99.522 20.0476 98.6807 20.0476 98.4819C20.0476 98.3897 20.0255 98.2573 19.9985 98.1877C19.8039 97.6857 19.7063 97.2604 19.7408 97.0634C19.7613 96.9458 19.8013 96.6265 19.8296 96.3539C19.8579 96.0813 19.9017 95.6971 19.9269 95.5002C19.9816 95.0731 20.3687 93.9169 20.6264 93.4109C20.7277 93.2121 20.866 92.9007 20.9339 92.7189C21.0017 92.5372 21.1242 92.2893 21.206 92.1682C21.354 91.949 21.8099 90.878 21.8102 90.7488C21.8103 90.7116 21.959 90.3607 22.1407 89.9691C22.3223 89.5775 22.4709 89.2237 22.4709 89.1831C22.4709 89.1423 22.5453 88.9451 22.6362 88.7447C22.7458 88.503 22.8014 88.2918 22.8014 88.1175C22.8014 87.9729 22.8481 87.7222 22.9051 87.5605C23.2627 86.5471 23.2514 86.6213 23.2388 85.3577C23.2175 83.2201 23.208 82.9728 23.1363 82.7228C23.057 82.4465 22.9681 81.2802 22.9494 80.272C22.9417 79.8578 22.9107 79.5642 22.8665 79.4855C22.7181 79.2219 22.7435 77.4052 22.9086 76.4718C22.9408 76.29 22.9885 76.0174 23.0146 75.866C23.0407 75.7145 23.1008 75.479 23.1479 75.3427C23.1951 75.2064 23.3128 74.8471 23.4093 74.5441C23.5059 74.2412 23.6273 73.9314 23.6792 73.8557C23.7311 73.78 23.8079 73.6313 23.8499 73.5253C23.8919 73.4192 24.0322 73.2188 24.1616 73.0799C24.291 72.941 24.4452 72.7179 24.5044 72.5842C24.6904 72.1643 25.1812 71.5888 25.8061 71.0581C26.1376 70.7765 26.5699 70.4024 26.7668 70.2268C27.1154 69.9159 27.6702 69.5445 28.1162 69.3237C28.2374 69.2637 28.4084 69.1544 28.4962 69.081C28.6752 68.9311 29.1564 68.6787 29.5851 68.5097C29.7416 68.448 29.9793 68.3476 30.1132 68.2866C30.474 68.1223 31.5023 67.7976 31.6649 67.7966C31.7426 67.7962 31.9178 67.7555 32.0541 67.7062C32.1904 67.6569 32.4878 67.596 32.715 67.5708C33.611 67.4715 33.7309 67.4255 33.5274 67.2589C33.4112 67.1639 32.7587 66.9162 32.6245 66.9162C32.5548 66.9162 32.365 66.8575 32.2026 66.7857C32.0402 66.7139 31.7022 66.5887 31.4513 66.5075C31.2005 66.4263 30.7779 66.262 30.5123 66.1424C30.2466 66.0228 30.0024 65.9249 29.9695 65.9249C29.8855 65.9249 28.5712 65.3476 28.2921 65.1881C28.165 65.1155 27.9248 65.0122 27.7582 64.9586C27.5916 64.905 27.0092 64.6408 26.4639 64.3716C25.9187 64.1024 25.2991 63.8086 25.087 63.7188C24.875 63.6289 24.6148 63.4787 24.5087 63.3849C24.4027 63.2911 24.1673 63.1394 23.9855 63.0476C23.8038 62.9558 23.5172 62.7726 23.3487 62.6404C23.1803 62.5083 23.0121 62.4001 22.9752 62.4001C22.8072 62.4001 22.3173 62.0862 21.9915 61.7698C21.7781 61.5627 21.5472 61.3941 21.4183 61.3516C21.2996 61.3124 21.0851 61.169 20.9417 61.033C20.7983 60.8969 20.5461 60.6989 20.3812 60.593C20.0826 60.4011 19.2617 59.6025 19.0402 59.2883C18.8816 59.0633 18.695 58.9011 18.3636 58.7001C18.1922 58.5962 18.0219 58.4319 17.9239 58.2761C17.8359 58.1361 17.6341 57.8924 17.4756 57.7343C17.3171 57.5763 17.125 57.3239 17.0488 57.1735C16.9725 57.0229 16.7355 56.7227 16.5221 56.5063C16.2428 56.2231 16.0659 55.9789 15.8913 55.6353C15.7218 55.3016 15.5534 55.0664 15.3325 54.8548C15.0886 54.6211 14.9601 54.4324 14.77 54.0287C14.6345 53.7409 14.4817 53.4435 14.4306 53.3678C14.3794 53.292 14.2192 53.007 14.0744 52.7344C13.9298 52.4618 13.7678 52.1768 13.7145 52.101C13.447 51.7205 12.9979 50.6668 12.9979 50.4194C12.9979 50.2662 12.824 49.8642 12.6258 49.5595C12.554 49.4491 12.4366 49.1854 12.3648 48.9734C12.2931 48.7615 12.1581 48.437 12.0648 48.2521C11.8781 47.8822 11.7448 47.4475 11.6718 46.9711C11.6456 46.8001 11.5615 46.4736 11.4849 46.2454C11.4083 46.0173 11.3457 45.755 11.3457 45.6626C11.3457 45.5702 11.2799 45.3267 11.1994 45.1215C11.119 44.9164 11.0352 44.5998 11.0132 44.4181C10.9416 43.8255 10.7983 43.0127 10.7484 42.9157C10.7215 42.8636 10.6858 42.4987 10.669 42.1049C10.6509 41.6825 10.6034 41.2862 10.553 41.1384C10.3763 40.6199 10.2687 36.8771 10.4075 36.0775C10.4367 35.9091 10.4883 35.3376 10.522 34.8075C10.5751 33.9748 10.6028 33.7986 10.726 33.5132C10.8398 33.2496 10.876 33.0546 10.905 32.5494C10.925 32.201 10.9718 31.8293 11.0092 31.7233C11.1427 31.3441 11.2355 30.9435 11.2363 30.743C11.2374 30.4497 11.4596 29.8413 11.6859 29.5118C11.7427 29.4291 11.7863 29.2681 11.7863 29.1414C11.7863 29.0092 11.8541 28.7692 11.9515 28.5564C12.0424 28.358 12.1167 28.1601 12.1167 28.1165C12.1167 28.0011 12.3065 27.5329 12.6081 26.9042C12.8957 26.3045 13.0557 25.9242 13.1643 25.5824C13.2028 25.4612 13.3298 25.2209 13.4465 25.0484C13.5633 24.8759 13.6588 24.7076 13.6588 24.6745C13.6588 24.5803 13.8749 24.1756 14.0709 23.9026C14.1688 23.7663 14.3512 23.4565 14.4763 23.2142C14.6013 22.9718 14.761 22.7116 14.8311 22.6359C14.9012 22.5601 15.0677 22.3371 15.201 22.1402C15.3342 21.9433 15.5573 21.6707 15.6966 21.5344C15.836 21.398 16.0589 21.1254 16.1921 20.9285C16.3252 20.7316 16.4673 20.537 16.5078 20.496C16.5483 20.4549 16.6298 20.3267 16.6888 20.2109C16.7479 20.0951 16.9392 19.8531 17.1139 19.6732C17.2886 19.4931 17.5926 19.165 17.7895 18.944C17.9864 18.723 18.2448 18.4533 18.3638 18.3447C18.7056 18.0327 19.2838 17.4535 19.5244 17.1819C19.6456 17.0452 19.9306 16.7809 20.1578 16.5947C20.385 16.4084 20.6421 16.1785 20.7292 16.0839C20.8164 15.9892 20.9899 15.8603 21.1148 15.7973C21.2397 15.7343 21.4789 15.553 21.6464 15.3944C21.8139 15.2358 22.0246 15.0676 22.1145 15.0206C22.2045 14.9736 22.3525 14.8563 22.4434 14.7598C22.6095 14.5836 23.1363 14.2153 23.663 13.907C23.8188 13.8159 24.1445 13.5899 24.3866 13.4051C24.6951 13.1696 24.9857 13.0074 25.3567 12.8636C25.6481 12.7508 26.0041 12.5746 26.1477 12.4722C27.1885 11.7306 27.9124 11.3404 29.1076 10.877C29.471 10.7361 29.88 10.5506 30.0163 10.4649C30.2994 10.2868 30.6487 10.1346 30.7803 10.1321C30.8296 10.1311 31.0187 10.054 31.2004 9.96066C31.3822 9.86736 31.6226 9.74421 31.7348 9.68704C31.8469 9.62982 31.974 9.58306 32.0173 9.58306C32.0605 9.58306 32.2406 9.51675 32.4176 9.43574C32.7195 9.29755 32.8542 9.25806 33.4035 9.14692C33.5246 9.12241 33.8096 9.03672 34.0368 8.95647C34.6329 8.74592 34.7777 8.70186 34.8734 8.70186C34.9202 8.70186 35.1842 8.62751 35.4599 8.53664C35.8066 8.42241 36.0702 8.37141 36.3142 8.37141C36.5806 8.37141 36.7464 8.33506 36.9905 8.22315C37.1683 8.14158 37.4129 8.05616 37.5341 8.03336C37.6553 8.01056 37.8659 7.96407 38.0023 7.92998C38.1386 7.89595 38.3988 7.84632 38.5806 7.81967C38.7623 7.79307 39.0597 7.74339 39.2415 7.70935C39.4232 7.67526 39.7578 7.62641 39.985 7.60074C40.2122 7.57508 40.522 7.52524 40.6734 7.48999C40.8249 7.45474 41.3082 7.40352 41.7474 7.37615C42.1866 7.34883 42.8062 7.29998 43.1243 7.26771C43.4423 7.23538 43.8017 7.21142 43.9229 7.21445C44.044 7.21742 44.3291 7.21742 44.5563 7.21439C44.7834 7.21131 45.2172 7.20999 45.5201 7.21136C45.823 7.21274 46.2319 7.21268 46.4288 7.21125C47.4229 7.20393 47.6302 7.20464 47.8333 7.2161C47.9544 7.22293 48.1158 7.21131 48.1919 7.19021C48.268 7.16918 48.3505 7.17226 48.3753 7.19715ZM41.1573 20.2466C41.2016 20.2909 41.5655 20.3639 42.0779 20.4312C42.5863 20.498 43.1372 20.6708 43.6475 20.9239C43.8898 21.044 44.3359 21.2574 44.6389 21.3981C44.9418 21.5388 45.2664 21.7121 45.3602 21.7834C45.4542 21.8545 45.6095 21.9453 45.7054 21.9851C46.0601 22.1324 47.6071 23.6513 47.9583 24.1974C48.0976 24.4139 48.3033 24.7149 48.4154 24.8664C48.8036 25.3911 49.4364 26.8607 49.4944 27.3723C49.5133 27.5389 49.5801 27.7992 49.6429 27.9506C49.8511 28.4529 49.9303 30.4564 49.7614 30.9522C49.7047 31.1188 49.6529 31.3666 49.6463 31.503C49.6398 31.6393 49.5935 31.9119 49.5436 32.1088C49.4936 32.3057 49.4253 32.5783 49.3917 32.7146C49.358 32.8509 49.2386 33.1607 49.1263 33.403C49.014 33.6454 48.8903 33.9428 48.8514 34.0639C48.7321 34.4354 48.3909 35.0892 48.091 35.5216C47.9341 35.7477 47.8057 35.9532 47.8057 35.9782C47.8057 36.0539 47.3575 36.6244 47.0347 36.9596C46.868 37.1327 46.6326 37.3823 46.5114 37.5144C46.3903 37.6465 46.096 37.9279 45.8575 38.1398C45.619 38.3517 45.2968 38.6397 45.1415 38.7799C44.9862 38.92 44.7229 39.1032 44.5563 39.187C44.3896 39.2707 44.0194 39.4989 43.7335 39.694C43.4476 39.8891 43.1131 40.088 42.99 40.1359C42.867 40.1838 42.7043 40.2656 42.6286 40.3176C42.5529 40.3695 42.3794 40.45 42.2431 40.4962C42.1068 40.5425 41.8837 40.6443 41.7474 40.7224C41.6111 40.8005 41.454 40.8647 41.3983 40.8651C41.3427 40.8654 41.0577 40.9421 40.765 41.0355C40.4723 41.1289 40.0809 41.2528 39.8951 41.3108C39.7094 41.3689 39.426 41.4165 39.2654 41.4165C39.1048 41.4165 38.8275 41.4683 38.6491 41.5316C38.3757 41.6287 38.2995 41.6364 38.1647 41.5805C38.0654 41.5394 37.926 41.5297 37.7969 41.5549C37.3486 41.6427 35.5965 41.5614 35.1383 41.4316C35.0323 41.4015 34.8496 41.3363 34.7323 41.2865C34.615 41.2368 34.4508 41.1962 34.3673 41.1962C34.184 41.1962 33.8572 41.065 33.6273 40.8993C33.4477 40.7697 33.1264 40.6454 32.9713 40.6454C32.8319 40.6454 32.1215 40.2777 31.8063 40.0425C31.6548 39.9294 31.4649 39.8019 31.3844 39.7593C31.0767 39.5961 29.9964 38.5841 29.6294 38.1153C29.5241 37.9809 29.3438 37.761 29.2286 37.6267C28.8521 37.1879 28.309 36.0069 28.0332 35.0278C27.9778 34.8309 27.9034 34.583 27.868 34.477C27.705 33.9898 27.558 31.8421 27.6541 31.3523C27.6852 31.1937 27.696 31.0403 27.6782 31.0115C27.6603 30.9827 27.6959 30.7783 27.757 30.5574C27.8183 30.3366 27.8683 30.088 27.8683 30.0051C27.8683 29.9222 27.902 29.773 27.9431 29.6736C27.9842 29.5741 28.0816 29.3068 28.1594 29.0796C28.2372 28.8525 28.3266 28.5922 28.3579 28.5014C28.3891 28.4105 28.4818 28.1176 28.5639 27.8505C28.6655 27.5198 28.7999 27.2389 28.9857 26.9693C29.1356 26.7517 29.2794 26.5184 29.3051 26.4508C29.5879 25.7081 31.5862 23.4767 32.4249 22.9671C32.5228 22.9076 32.6787 22.7866 32.7712 22.6982C32.8637 22.6098 33.1471 22.4364 33.401 22.3129C33.6549 22.1894 33.981 22.0133 34.1257 21.9215C34.2705 21.8297 34.4182 21.7547 34.454 21.7547C34.4898 21.7547 34.6647 21.6669 34.8425 21.5597C35.0204 21.4525 35.2278 21.3517 35.3036 21.3358C35.3793 21.32 35.59 21.2353 35.7717 21.1477C36.2668 20.9092 36.9653 20.6526 37.1211 20.6521C37.1968 20.6518 37.3703 20.6112 37.5066 20.562C37.7755 20.4647 38.0519 20.4023 38.6081 20.3132C39.0319 20.2454 41.1019 20.1912 41.1573 20.2466ZM37.6993 21.3054C37.3154 21.3626 36.9679 21.4274 36.5361 21.5222C36.4113 21.5496 36.1883 21.6415 36.0405 21.7265C35.3485 22.1243 35.2153 22.1933 35.1383 22.1943C35.0929 22.1949 34.9874 22.2541 34.9039 22.326C34.8204 22.3978 34.5877 22.5526 34.3869 22.6701C34.1861 22.7875 33.9243 22.9783 33.8051 23.0939C33.6859 23.2096 33.469 23.3746 33.3232 23.4606C33.0762 23.6062 32.7954 23.8382 32.4471 24.1845C32.1864 24.4435 31.4568 25.248 31.329 25.4172C31.2604 25.508 31.1908 25.5948 31.1745 25.6099C31.1581 25.6251 31.0771 25.7283 30.9944 25.8392C30.9117 25.9502 30.8121 26.0741 30.7731 26.1146C30.5789 26.3159 30.1157 27.0931 30.0117 27.392C29.947 27.5781 29.7882 27.941 29.6588 28.1984C29.5294 28.4559 29.3822 28.8277 29.3317 29.0246C29.2812 29.2215 29.2122 29.4693 29.1785 29.5753C29.0689 29.92 28.9625 30.4761 28.9361 30.8421C28.8465 32.0843 28.8335 32.6193 28.882 33.0726C28.9335 33.5544 29.1154 34.3639 29.2518 34.7184C29.3088 34.8663 29.3554 35.0196 29.3554 35.0589C29.3554 35.0982 29.4545 35.3291 29.5757 35.5719C29.6969 35.8147 29.796 36.0279 29.796 36.0457C29.796 36.0634 29.9169 36.2568 30.0647 36.4754C30.2125 36.6939 30.3711 36.9471 30.4171 37.038C30.6679 37.5326 32.1051 38.7702 32.8802 39.1591C33.0771 39.2579 33.3794 39.4344 33.5519 39.5515C33.8081 39.7252 33.914 39.7643 34.1302 39.7644C34.2932 39.7645 34.4609 39.8049 34.5669 39.8696C34.6694 39.9321 34.881 39.9847 35.0901 39.9997C35.2832 40.0135 35.5404 40.0558 35.6615 40.0938C36.4019 40.3254 38.5012 40.3259 39.2965 40.0945C39.4177 40.0593 39.6284 40.0092 39.7647 39.9834C40.29 39.8837 40.4665 39.8276 40.8646 39.634C41.091 39.5239 41.346 39.4338 41.4314 39.4338C41.5167 39.4338 41.6837 39.3842 41.8025 39.3236C41.9212 39.263 42.0504 39.2134 42.0894 39.2134C42.1285 39.2132 42.2434 39.1424 42.3446 39.0558C42.446 38.9692 42.7186 38.816 42.9505 38.7155C43.1824 38.6149 43.5084 38.4175 43.675 38.2768C43.8416 38.136 44.0895 37.9428 44.2258 37.8473C44.9845 37.3161 45.918 36.4429 46.1509 36.0466C46.2221 35.9255 46.384 35.7148 46.5105 35.5785C46.8412 35.2224 47.1215 34.8053 47.4295 34.2112C47.5776 33.9254 47.7431 33.6353 47.7973 33.5665C47.8514 33.4977 47.9275 33.2965 47.9663 33.1193C48.0052 32.9422 48.1089 32.6181 48.1967 32.3992C48.2846 32.1803 48.3565 31.9395 48.3565 31.8642C48.3565 31.789 48.4041 31.5964 48.4624 31.4362C48.632 30.97 48.6997 29.452 48.5786 28.8318C48.5432 28.6501 48.4942 28.3279 48.4699 28.1158C48.4455 27.9038 48.3594 27.532 48.2785 27.2897C48.1976 27.0474 48.1044 26.7624 48.0715 26.6563C47.8724 26.0148 47.3915 25.2279 46.6291 24.296C46.3876 24.0007 45.7609 23.4391 45.3048 23.1091C45.1809 23.0195 45.0459 22.9127 45.0049 22.8718C44.9639 22.8309 44.8276 22.7451 44.702 22.6812C44.5764 22.6172 44.3976 22.507 44.3046 22.4362C44.0789 22.2644 43.4336 21.975 43.2762 21.975C43.2069 21.975 43.0143 21.9226 42.8481 21.8587C42.682 21.7947 42.4345 21.7095 42.2982 21.6693C42.1618 21.6291 41.9636 21.567 41.8575 21.5313C41.663 21.4658 41.4025 21.4157 40.7662 21.3216C40.5749 21.2933 40.4026 21.2543 40.3832 21.235C40.3303 21.182 38.1416 21.2395 37.6993 21.3054ZM60.8311 22.1353C61.0954 22.2448 61.3494 22.3054 61.5444 22.3054C61.6599 22.3054 61.9679 22.3762 62.229 22.4628C62.4901 22.5494 62.8152 22.6531 62.9515 22.6933C63.3218 22.8025 64.5663 23.4417 64.7774 23.6311C64.8788 23.7221 65.099 23.8784 65.2667 23.9786C65.9743 24.4012 67.0138 25.3971 67.4869 26.1056C67.6184 26.3025 67.7979 26.5717 67.8859 26.7038C68.4097 27.4899 69.0098 28.5427 69.0098 28.6752C69.0098 28.7338 69.1242 29.0153 69.2639 29.3007C69.5422 29.8692 69.7809 30.708 69.7809 31.1178C69.7809 31.2616 69.8223 31.4753 69.8731 31.5926C70.0592 32.023 70.1276 33.9605 69.9655 34.2115C69.9397 34.2515 69.9025 34.5569 69.883 34.8901C69.8417 35.5914 69.7825 35.9209 69.653 36.1678C69.6022 36.2648 69.5606 36.3915 69.5606 36.4494C69.5606 36.5073 69.4862 36.735 69.3953 36.9554C69.3045 37.1757 69.2301 37.3815 69.2301 37.4126C69.2301 37.4436 69.0876 37.7064 68.9134 37.9966C68.7392 38.2867 68.5694 38.5863 68.5361 38.6623C68.3811 39.0152 67.5953 39.958 67.3211 40.1199C67.2342 40.1713 67.1089 40.296 67.0427 40.397C66.9765 40.498 66.8281 40.6509 66.7131 40.7367C66.598 40.8224 66.4915 40.9064 66.4763 40.9231C66.4612 40.9399 66.3621 41.0136 66.256 41.0868C66.15 41.1602 66.0324 41.25 65.9946 41.2866C65.9569 41.3232 65.6966 41.4686 65.4164 41.6097C65.136 41.7508 64.8323 41.9223 64.7415 41.9907C64.5083 42.1664 64.3764 42.231 63.8676 42.4181C63.0573 42.7161 63.1676 42.6893 62.1391 42.8397C61.9649 42.8651 61.6985 42.9308 61.5471 42.9855C61.3361 43.0618 61.1256 43.0833 60.647 43.0777C60.3035 43.0736 59.9769 43.0946 59.9213 43.1244C59.848 43.1636 59.7499 43.1483 59.5638 43.0685C59.3869 42.9927 59.1847 42.9586 58.9119 42.9586C58.6555 42.9586 58.4198 42.9216 58.2418 42.8535C57.8616 42.7081 57.7283 42.6632 56.9946 42.433C56.397 42.2455 55.6638 41.8462 55.3591 41.5423C55.3181 41.5014 55.1911 41.4203 55.0771 41.3621C54.8399 41.2411 54.5013 40.9274 54.3036 40.6454C54.2292 40.5394 54.0637 40.3476 53.9358 40.2193C53.5538 39.8362 52.6497 38.4823 52.5468 38.1395C52.5195 38.0486 52.4175 37.7512 52.32 37.4786C51.7777 35.9613 51.4458 33.3155 51.7127 32.6356C51.7611 32.5124 51.7601 32.4116 51.7089 32.2115C51.6405 31.9448 51.6445 31.9151 51.8315 31.302C51.8606 31.2067 51.8684 31.0283 51.8488 30.9056C51.8258 30.7621 51.8438 30.5884 51.8993 30.4181C52.0406 29.984 52.1659 29.5086 52.2084 29.2449C52.2304 29.1086 52.3145 28.8429 52.3953 28.6545C52.4761 28.4661 52.5422 28.2832 52.5422 28.2482C52.5422 28.1788 52.7877 27.6376 53.0427 27.145C53.1309 26.9746 53.2031 26.8044 53.2031 26.7669C53.2031 26.7294 53.2857 26.5838 53.3867 26.4434C53.4876 26.303 53.66 26.025 53.7698 25.8256C53.8796 25.6261 54.0635 25.3659 54.1786 25.2473C54.2937 25.1287 54.4492 24.9449 54.5243 24.8389C54.5994 24.7328 54.7434 24.563 54.8445 24.4615C54.9492 24.3562 55.0147 24.2438 54.9968 24.1999C54.9796 24.1575 54.9523 24.0905 54.9362 24.0509C54.9009 23.9643 55.034 23.8074 55.296 23.6267C55.402 23.5536 55.5507 23.4295 55.6264 23.351C55.836 23.1337 56.268 22.8545 56.583 22.7326C57.5827 22.3458 57.651 22.3286 58.7382 22.1888C59.3271 22.1131 60.6932 22.0782 60.8311 22.1353ZM58.215 23.1826C57.5333 23.2307 57.2087 23.3236 56.9939 23.5323C56.9537 23.5714 56.834 23.6642 56.728 23.7386C56.6219 23.813 56.4634 23.9423 56.3756 24.0259C56.2878 24.1096 56.1952 24.178 56.1698 24.178C56.1444 24.178 56.0879 24.2585 56.0443 24.357C56.0007 24.4554 55.7402 24.7688 55.4653 25.0534C55.1904 25.338 54.9654 25.6106 54.9653 25.6592C54.9652 25.7451 54.7698 26.1053 54.6934 26.1607C54.6111 26.2202 54.3046 26.7081 54.3046 26.7794C54.3046 26.821 54.2303 26.9723 54.1394 27.1156C54.0485 27.2589 53.9742 27.4133 53.9742 27.4587C53.9742 27.5041 53.9134 27.6612 53.8391 27.8079C53.7647 27.9545 53.6552 28.2573 53.5956 28.4807C53.4857 28.8931 53.2706 29.6223 53.0909 30.1923C53.0364 30.3651 53.0042 30.554 53.0194 30.6121C53.0346 30.6701 53.0164 30.8138 52.979 30.9313C52.7533 31.6397 52.7679 34.1618 53.0024 34.9892C53.0522 35.1648 53.093 35.4053 53.093 35.5236C53.093 35.6419 53.1569 35.9071 53.235 36.113C53.3131 36.3188 53.3956 36.574 53.4185 36.68C53.4909 37.0168 54.4478 38.8366 54.6907 39.0996C54.8146 39.2338 54.955 39.4095 55.0025 39.49C55.05 39.5704 55.2163 39.7124 55.372 39.8056C55.5278 39.8987 55.7302 40.0466 55.8219 40.1343C56.2736 40.5659 57.7833 41.3622 58.2701 41.4256C58.4367 41.4473 58.6969 41.4951 58.8484 41.532C59.0075 41.5707 59.6701 41.6082 60.418 41.6209C61.7408 41.6434 61.8644 41.6307 62.4007 41.4165C62.5371 41.3621 62.7601 41.2874 62.8964 41.2505C63.0327 41.2137 63.2806 41.1262 63.4472 41.056C63.6138 40.9859 63.8244 40.9115 63.9153 40.8908C64.2251 40.8201 65.3629 40.1074 65.843 39.6834C65.9338 39.6031 66.0727 39.503 66.1515 39.4609C66.2303 39.4188 66.3398 39.3149 66.3949 39.23C66.45 39.1452 66.6971 38.8279 66.9442 38.525C67.4162 37.9462 67.798 37.3672 67.7984 37.2297C67.7985 37.1848 67.8433 37.0738 67.8979 36.9829C68.0671 36.7016 68.3385 35.96 68.4622 35.4408C68.5272 35.1682 68.63 34.8144 68.6908 34.6546C68.768 34.4514 68.7905 34.3023 68.7655 34.1589C68.6951 33.7546 68.6827 33.0172 68.7437 32.8636C68.79 32.7473 68.788 32.6732 68.7358 32.5607C68.6978 32.4787 68.659 32.2109 68.6496 31.9655C68.6403 31.7201 68.5975 31.4351 68.5545 31.3322C68.5115 31.2292 68.4578 31.0458 68.4351 30.9247C68.4125 30.8035 68.3384 30.5309 68.2705 30.3188C68.2027 30.1068 68.1181 29.8094 68.0826 29.6579C67.9387 29.045 67.0582 27.3981 66.6281 26.9374C66.498 26.7979 66.2556 26.5228 66.0897 26.3259C65.9237 26.129 65.7719 25.9555 65.7523 25.9404C65.7327 25.9252 65.5344 25.7477 65.3117 25.5459C64.5198 24.8285 64.3098 24.6617 64.0664 24.5574C63.9309 24.4993 63.7547 24.4067 63.6749 24.3516C63.4677 24.2084 62.1711 23.6271 62.0591 23.6272C62.0075 23.6272 61.9084 23.6049 61.8388 23.5776C61.272 23.3554 60.8592 23.2805 59.7477 23.1984C59.4548 23.1768 59.1947 23.1386 59.1697 23.1135C59.1448 23.0884 59.0499 23.0845 58.9589 23.1048C58.8678 23.1252 58.5331 23.1601 58.215 23.1826ZM39.7922 25.1142C39.8528 25.1403 39.975 25.1633 40.0637 25.1655C40.4671 25.1751 41.4926 25.5939 42.1053 25.9992C46.0744 28.6247 45.2853 34.6442 40.7729 36.1625C38.0808 37.0682 35.0467 35.7462 33.847 33.1446C33.5683 32.5403 33.2953 31.4704 33.3296 31.1174C33.3505 30.9029 33.36 30.9009 33.8441 31.0099C34.8533 31.2371 36.1144 31.0693 36.5978 30.6435C36.719 30.5368 36.8925 30.4108 36.9834 30.3635C37.6836 29.9993 38.825 28.7086 38.8277 28.278C38.8281 28.2157 38.8925 28.0794 38.9708 27.9751C39.3746 27.4374 39.6057 26.0277 39.3853 25.4474C39.2397 25.0645 39.39 24.9414 39.7922 25.1142ZM61.6881 27.2022C66.0202 28.7892 66.3709 34.7335 62.2534 36.7842C60.3982 37.708 58.2991 37.4571 56.6178 36.1103C55.4166 35.1481 54.7824 33.7628 54.7857 32.1088C54.7881 30.903 54.8509 30.7109 55.1493 30.9963C55.9177 31.7312 57.0553 31.8399 57.857 31.2551C57.9479 31.1888 58.1585 31.0802 58.3251 31.0137C58.4918 30.9471 58.7319 30.8007 58.8587 30.6884C58.9856 30.576 59.2221 30.3734 59.3844 30.238C59.9474 29.7685 60.3853 29.1012 60.6595 28.2948C60.7926 27.9036 60.895 27.5936 60.9825 27.3172C61.0795 27.0111 61.1397 27.0013 61.6881 27.2022ZM26.9198 39.9496C26.8071 40.0264 26.6088 40.1255 26.4792 40.1696C26.3496 40.2139 25.9834 40.3736 25.6653 40.5246C24.1976 41.2216 24.1232 41.2504 24.1232 41.1225C24.1232 41.0428 24.9983 40.5895 25.6653 40.3236C25.8925 40.233 26.2147 40.0984 26.3813 40.0244C26.5479 39.9505 26.7834 39.872 26.9045 39.85L27.1248 39.8099L26.9198 39.9496ZM29.796 40.0702C29.796 40.1199 29.6862 40.2032 29.5344 40.2685C29.3905 40.3304 28.9754 40.5253 28.6119 40.7015C28.2484 40.8777 27.827 41.0713 27.6756 41.1318C27.5241 41.1923 27.2267 41.3334 27.0147 41.4454C25.8883 42.0404 24.6518 42.4095 25.4588 41.9098C26.6785 41.1546 29.796 39.8324 29.796 40.0702ZM30.61 41.0447C30.5868 41.1194 30.3573 41.2414 29.2971 41.7425C27.9404 42.3838 27.8133 42.429 27.8133 42.2709C27.8133 42.1402 28.1 41.9778 29.3829 41.3817C30.0734 41.061 30.6544 40.9014 30.61 41.0447ZM32.2744 41.3833C32.2744 41.4205 31.8348 41.6368 31.7589 41.6368C31.7291 41.6368 31.6656 41.6708 31.6178 41.7122C31.57 41.7537 31.3698 41.855 31.1729 41.9373C30.976 42.0195 30.5987 42.1886 30.3344 42.313C30.0702 42.4374 29.8379 42.5231 29.8182 42.5034C29.7376 42.4228 29.8642 42.2904 30.1385 42.1688C30.2985 42.0979 30.6152 41.9511 30.8424 41.8426C31.0696 41.7341 31.3546 41.6152 31.4758 41.5784C31.597 41.5415 31.7457 41.4914 31.8063 41.4671C31.9667 41.4027 32.2744 41.3476 32.2744 41.3833ZM67.0822 42.5663C67.0822 42.6548 66.9196 42.751 66.8288 42.7162C66.7563 42.6884 66.7522 42.6663 66.8073 42.5999C66.8806 42.5116 67.0822 42.4869 67.0822 42.5663ZM66.4488 42.8484C66.4301 42.8787 66.3605 42.9031 66.2941 42.9027C66.196 42.902 66.1889 42.8918 66.256 42.8484C66.3645 42.7783 66.4921 42.7783 66.4488 42.8484ZM69.6049 43.0201C69.5728 43.1189 69.2739 43.2597 68.6849 43.4535C68.4244 43.5392 67.8642 43.7566 67.4402 43.9364C67.0161 44.1163 66.5328 44.3156 66.3662 44.3794C66.1996 44.4432 65.8587 44.5758 65.6088 44.6741C65.2756 44.8052 65.1379 44.8366 65.0931 44.7917C64.9977 44.6963 65.07 44.6352 65.4425 44.4968C65.6325 44.4263 65.8622 44.3254 65.9531 44.2727C66.1719 44.1457 66.965 43.8047 67.4126 43.6452C67.6095 43.575 67.9069 43.4636 68.0735 43.3976C68.7011 43.1488 68.8235 43.1069 69.0649 43.0585C69.2012 43.0311 69.3841 42.9942 69.4712 42.9764C69.5908 42.952 69.6236 42.9627 69.6049 43.0201ZM65.6777 43.1525C65.3683 43.2983 65.3198 43.3102 65.3198 43.24C65.3198 43.1796 65.7268 43.0119 65.8578 43.0182C65.9103 43.0208 65.8292 43.0812 65.6777 43.1525ZM69.891 44.2453C69.891 44.3179 69.7225 44.3947 69.1547 44.581C69.0072 44.6294 68.838 44.695 68.7787 44.7268C68.7193 44.7585 68.5551 44.8172 68.4135 44.8572C68.272 44.8972 67.8711 45.0557 67.5228 45.2094C66.9093 45.4802 66.6966 45.5413 66.6966 45.4465C66.6966 45.3166 67.456 44.8804 67.9083 44.7505C67.984 44.7288 68.3062 44.6171 68.6243 44.5022C69.6264 44.1404 69.891 44.0867 69.891 44.2453ZM37.9472 45.437C37.9926 45.4663 38.0968 45.4907 38.1786 45.4912C38.2604 45.4916 38.4711 45.5315 38.6467 45.5798C38.8224 45.6281 39.0652 45.6889 39.1864 45.7148C39.728 45.8306 41.395 46.4726 42.6837 47.0617C43.137 47.2689 43.7649 47.5063 44.5287 47.7594C44.8013 47.8496 45.1359 47.9609 45.2722 48.0066C45.4085 48.0523 45.644 48.1146 45.7955 48.1451C46.116 48.2095 46.4335 48.2772 46.8006 48.3595C47.8232 48.5887 51.1365 48.5871 52.2668 48.3569C52.5565 48.2979 52.8556 48.2499 53.6437 48.1361C54.1418 48.0642 54.6091 47.986 54.9655 47.9152C56.6885 47.5724 57.4226 47.8774 56.9721 48.7486C56.9247 48.8403 56.8744 49.0548 56.8602 49.2252C56.8332 49.5524 56.3612 50.5326 56.1046 50.7941C56.0384 50.8616 55.9006 51.0234 55.7986 51.1536C55.5246 51.5032 54.3119 52.4341 53.7539 52.7233C53.6176 52.7939 53.4317 52.8912 53.3408 52.9395C52.6635 53.299 50.8658 54.0287 50.6574 54.0287C50.5927 54.0287 50.4637 54.0519 50.3706 54.0802C50.2776 54.1086 50.028 54.1724 49.816 54.2221C49.6039 54.2719 49.3313 54.3371 49.2101 54.3672C48.2333 54.6096 45.7191 54.6662 44.4736 54.4738C43.8029 54.3702 43.4895 54.3135 43.2344 54.2498C42.931 54.174 42.5946 54.0988 42.2844 54.0375C42.1556 54.012 41.9544 53.9501 41.8371 53.8998C41.7197 53.8495 41.5877 53.8084 41.5436 53.8084C41.4995 53.8084 41.2831 53.7216 41.0626 53.6156C40.8422 53.5096 40.6458 53.4228 40.6262 53.4228C40.5296 53.4228 39.3595 52.8181 39.0212 52.5933C38.8091 52.4524 38.5365 52.2857 38.4153 52.2227C38.2007 52.1112 37.8157 51.7926 37.1535 51.1785C35.0384 49.217 34.6417 46.3002 36.394 45.5924C36.7437 45.4511 37.8048 45.3449 37.9472 45.437ZM69.7126 45.671C69.6791 45.7741 69.3373 45.927 69.1337 45.93C68.8868 45.9336 68.9097 45.8663 69.2041 45.7233C69.4809 45.5888 69.7483 45.5613 69.7126 45.671ZM38.0973 46.2218C38.0384 46.3887 38.8162 47.7127 39.2588 48.199C39.6205 48.5963 39.6795 48.6545 40.0328 48.9618C40.3926 49.2747 40.6957 49.4913 41.3043 49.8705C41.9938 50.3001 42.2705 50.4488 42.3802 50.4488C42.4276 50.4488 42.6138 50.5231 42.7938 50.614C42.9739 50.7049 43.1582 50.7792 43.2035 50.7792C43.2488 50.7792 43.3672 50.8151 43.4666 50.8589C45.2099 51.6267 48.5043 51.5628 50.9175 50.7145C51.0084 50.6825 51.1942 50.6189 51.3306 50.5731C51.4669 50.5273 51.707 50.4311 51.8641 50.3592C52.0213 50.2873 52.1768 50.2285 52.2097 50.2285C52.3004 50.2285 52.9783 49.8775 53.5949 49.5114C54.7853 48.8046 54.9821 48.457 54.0767 48.6601C52.0011 49.1257 48.9617 49.3524 47.7782 49.1299C47.5964 49.0958 47.2247 49.0438 46.952 49.0145C46.423 48.9576 46.0568 48.8961 45.6578 48.797C45.5215 48.7631 45.3108 48.7164 45.1896 48.6932C45.0685 48.6699 44.89 48.6093 44.7931 48.5585C44.6961 48.5077 44.565 48.4661 44.5017 48.4661C44.4384 48.4661 44.2895 48.4165 44.1707 48.3559C44.052 48.2954 43.9228 48.2458 43.8838 48.2458C43.8159 48.2458 43.1699 47.9809 41.9126 47.4376C40.5735 46.8589 39.831 46.5733 39.4342 46.4841C39.254 46.4437 38.8134 46.3148 38.4979 46.2103C38.2879 46.1407 38.1242 46.1454 38.0973 46.2218ZM45.3925 77.3024C45.2671 81.6153 46.9277 85.248 50.3667 88.1838C51.7968 89.4046 51.7943 89.4169 50.6511 86.7417C50.1271 85.5158 49.5178 84.0666 49.2968 83.5214C48.6227 81.8574 46.8847 78.646 45.7557 76.978C45.459 76.5398 45.4134 76.5806 45.3925 77.3024ZM34.4802 85.2838C34.41 85.446 34.284 86.0027 34.1998 86.523C33.9914 87.8094 33.9466 88.0117 33.7932 88.3558C33.7096 88.5434 33.6513 88.7748 33.6513 88.9195C33.6513 89.0546 33.6267 89.2707 33.5966 89.3999C33.3363 90.5176 33.2313 90.8919 33.1095 91.1372C33.0535 91.2499 32.9766 91.466 32.9386 91.6174C32.8588 91.9359 32.6882 92.3924 32.5416 92.6799C32.4855 92.7899 32.4396 92.9222 32.4396 92.9739C32.4396 93.0796 32.3367 93.3281 32.006 94.0215C31.881 94.2835 31.7787 94.5142 31.7787 94.5341C31.7787 94.5541 31.7062 94.6619 31.6176 94.7737C31.529 94.8855 31.4153 95.1049 31.365 95.2613C31.3068 95.4423 31.1848 95.6381 31.029 95.8007C30.6987 96.1454 30.4569 96.4867 30.4569 96.6081C30.4569 96.6631 30.415 96.796 30.3638 96.9033C30.219 97.2071 30.315 97.22 30.925 96.9787C32.5747 96.3262 35.0216 95.6317 36.5428 95.3842C37.4873 95.2305 37.4893 95.2291 37.3124 94.8471C37.2374 94.6853 37.1761 94.5231 37.1761 94.4866C37.1761 94.4502 37.0978 94.2977 37.0021 94.1479C36.9064 93.9981 36.7851 93.764 36.7327 93.6277C36.6801 93.4914 36.5354 93.1341 36.411 92.8338C36.2865 92.5334 36.1848 92.2328 36.1848 92.1657C36.1848 92.0987 36.1194 91.9011 36.0396 91.7266C35.8945 91.4099 35.8306 91.2064 35.746 90.7913C35.7212 90.6701 35.6451 90.4223 35.5767 90.2406C35.5083 90.0588 35.4302 89.7986 35.403 89.6623C35.3758 89.526 35.3283 89.2905 35.2974 89.1391C35.2665 88.9876 35.2238 88.6778 35.2024 88.4506C35.1811 88.2234 35.1299 87.9774 35.0888 87.9039C34.9916 87.7304 34.9199 87.2615 34.865 86.4404C34.82 85.7684 34.7688 85.492 34.647 85.2644C34.6097 85.1946 34.5917 85.1047 34.6071 85.0646C34.6225 85.0244 34.6182 84.9745 34.5975 84.9535C34.5769 84.9325 34.5528 84.9734 34.544 85.0445C34.5351 85.1155 34.5065 85.2232 34.4802 85.2838Z" fill="black"/>
<path d="M30.2394 93.9556C30.3546 93.7262 30.4571 92.9534 30.3885 92.8309C30.2772 92.632 29.5382 93.0489 29.3506 93.4166C29.2897 93.536 29.12 93.7824 28.9736 93.9642C28.5243 94.5217 28.3435 95.2714 28.5939 95.538C28.9749 95.9435 29.7714 95.3144 30.0713 94.3712C30.1098 94.25 30.1855 94.063 30.2394 93.9556Z" fill="#AC39B0"/>
<path d="M32.2713 86.1925C32.5825 86.1925 32.7917 85.7957 32.6612 85.4526C32.5862 85.2553 32.4127 85.2721 32.1862 85.4986C31.8998 85.785 31.9499 86.1925 32.2713 86.1925Z" fill="#AC39B0"/>
<path d="M67.3575 75.591C67.8037 75.4274 67.765 75.0893 67.2907 75.0066C66.9052 74.9393 65.9344 75.0115 65.5951 75.1327C65.0234 75.3368 64.9839 75.3586 64.9041 75.513C64.6542 75.9963 65.1022 76.3559 65.7289 76.1751C66.0479 76.0832 66.5591 75.9067 66.8619 75.7842C67.0285 75.7168 67.2515 75.6298 67.3575 75.591Z" fill="#AC39B0"/>
<path d="M77.8648 74.4584C77.7957 74.4567 77.6525 74.4225 77.5465 74.3824C76.3392 73.9256 75.5114 74.7876 76.5334 75.4373C77.356 75.9602 79.364 76.0585 79.364 75.5759C79.364 75.3281 78.2086 74.4669 77.8648 74.4584Z" fill="#AC39B0"/>
<path d="M87.3677 79.198C88.2885 79.198 88.1584 78.455 87.151 77.9605C86.6309 77.7052 86.3263 77.6998 86.0897 77.9417C85.5627 78.4808 86.2922 79.198 87.3677 79.198Z" fill="#AC39B0"/>
<path d="M49.6504 52.3489C50.2014 52.5692 51.129 52.7895 51.5239 52.8721C50.8443 53.1199 49.1985 53.6431 48.0523 53.7533C46.6196 53.891 45.3246 53.9736 42.2388 53.175C39.7701 52.5361 37.9957 51.2015 37.4171 50.614H40.4203L40.5856 50.1459C41.3295 50.5681 43.1094 51.4897 44.2776 51.7981C45.4459 52.1065 47.4645 52.0184 48.3278 51.9358C48.5391 51.9817 49.0993 52.1286 49.6504 52.3489Z" fill="#A6609A"/>
<path d="M17.799 33.4676C18.3225 31.4849 18.9562 30.5486 20.6369 28.1253C21.3533 27.235 23.0229 25.2669 23.9707 24.5179C25.1555 23.5816 26.5882 21.6816 26.0647 20.525C25.5412 19.3684 23.3646 19.6162 21.1053 21.5163C18.846 23.4164 16.9724 26.1977 16.0081 29.6124C15.0437 33.027 15.0713 38.9476 16.0081 39.0853C16.9449 39.223 17.2755 35.4503 17.799 33.4676Z" fill="#F2E8FF"/>
<defs>
<filter id="filter0_f_2640_111728" x="-146.823" y="-166.79" width="421.436" height="415.696" filterUnits="userSpaceOnUse" color-interpolation-filters="sRGB">
<feFlood flood-opacity="0" result="BackgroundImageFix"/>
<feBlend mode="normal" in="SourceGraphic" in2="BackgroundImageFix" result="shape"/>
<feGaussianBlur stdDeviation="100" result="effect1_foregroundBlur_2640_111728"/>
</filter>
<filter id="filter1_f_2640_111728" x="-181.374" y="-169.929" width="421.436" height="415.696" filterUnits="userSpaceOnUse" color-interpolation-filters="sRGB">
<feFlood flood-opacity="0" result="BackgroundImageFix"/>
<feBlend mode="normal" in="SourceGraphic" in2="BackgroundImageFix" result="shape"/>
<feGaussianBlur stdDeviation="100" result="effect1_foregroundBlur_2640_111728"/>
</filter>
<linearGradient id="paint0_linear_2640_111728" x1="52.3229" y1="8.42648" x2="52.3229" y2="101.228" gradientUnits="userSpaceOnUse">
<stop stop-color="#BB89FF"/>
<stop offset="1" stop-color="#887AFF"/>
</linearGradient>
<linearGradient id="paint1_linear_2640_111728" x1="52.3229" y1="8.42648" x2="52.3229" y2="101.228" gradientUnits="userSpaceOnUse">
<stop stop-color="#BB89FF"/>
<stop offset="1" stop-color="#887AFF"/>
</linearGradient>
</defs>
</svg>
