<svg width="81" height="51" viewBox="0 0 81 51" fill="#1E1E1E" xmlns="http://www.w3.org/2000/svg">
<path fill-rule="evenodd" clip-rule="evenodd" d="M69.8937 32.4445C70.02 32.4445 70.0997 32.3115 70.0399 32.2052L70.0266 32.2119L63.6652 20.5957C63.6319 20.5359 63.6386 20.4761 63.6718 20.4229L69.3552 12.0564C69.4284 11.95 69.3552 11.8038 69.2223 11.8038L62.3557 12.4086C62.3025 12.4086 62.2559 12.4351 62.2227 12.4817L56.4595 20.4761C56.4329 20.5226 56.3797 20.5492 56.3266 20.5492C56.2335 20.5492 56.1604 20.4761 56.1604 20.383V1.52339C56.1604 1.43036 56.0806 1.3639 55.9876 1.3639L50.0648 1.71611C49.9784 1.71611 49.9119 1.78921 49.9119 1.8756V32.285C49.9119 32.378 49.9851 32.4511 50.0781 32.4511H56.0009C56.0939 32.4511 56.167 32.378 56.167 32.285V26.6231C56.167 26.5699 56.1936 26.5234 56.2335 26.4902L58.6864 24.6494C58.7661 24.5896 58.8791 24.6162 58.9257 24.7026L63.1666 32.3581C63.1932 32.4112 63.2464 32.4445 63.3062 32.4445H69.8937ZM13.1193 12.4019L18.8027 11.7972L18.796 11.7839C18.8891 11.7839 18.9622 11.857 18.9622 11.95V29.6933C18.9622 37.6877 13.9635 40.9373 8.09391 40.9373C5.5746 40.9373 3.77983 40.6848 2.64979 39.8607C2.59661 39.8209 2.57667 39.7544 2.58997 39.6946L3.54718 35.5013C3.56712 35.395 3.69341 35.3419 3.78648 35.395C4.90322 36.0596 6.18614 36.3586 7.84132 36.3586C10.2144 36.3586 12.9664 35.4017 12.9664 30.6967V30.3977C12.9664 30.2448 12.7736 30.1784 12.6739 30.298C11.3976 31.8796 9.60285 32.4511 7.63525 32.4511C3.42752 32.4511 0.303303 30.3711 0.303303 23.3735L0.290009 12.5681C0.290009 12.475 0.363129 12.4019 0.456191 12.4019L6.13961 11.7972C6.23268 11.7972 6.3058 11.8703 6.3058 11.9633V23.3735C6.3058 26.7028 7.55548 27.9123 9.4699 27.9123C11.5505 27.9123 12.9664 26.7427 12.9664 22.4963L12.9531 12.5681C12.9531 12.475 13.0262 12.4019 13.1193 12.4019ZM37.794 12.4019L43.4774 11.7972L43.4707 11.7839C43.5638 11.7839 43.6369 11.857 43.6369 11.95V26.4636V32.2783C43.6369 32.3714 43.5638 32.4445 43.4707 32.4445H37.8006C37.7075 32.4445 37.6344 32.3714 37.6344 32.2783V29.5736C36.2983 31.7002 34.2643 32.4577 32.1504 32.4577C27.9427 32.4577 24.9714 30.4176 24.9714 23.6725L24.9581 12.5614C24.9581 12.4684 25.0312 12.3953 25.1242 12.3953L30.8077 11.7905C30.9007 11.7905 30.9738 11.8636 30.9738 11.9567V23.6792C30.9738 27.0152 32.1238 28.012 34.138 28.012C36.1521 28.012 37.5414 27.1215 37.6278 23.2472V12.5681C37.6278 12.475 37.7009 12.4019 37.794 12.4019ZM74.2277 12.4019L79.9111 11.7972V11.7905C80.0042 11.7905 80.0773 11.8636 80.0773 11.9567V32.3448C80.0773 32.4378 80.0042 32.5109 79.9111 32.5109H74.241C74.1479 32.5109 74.0748 32.4378 74.0748 32.3448L74.0615 12.5681C74.0615 12.475 74.1346 12.4019 74.2277 12.4019ZM79.3129 1.47687C80.6157 2.77273 80.6157 4.87932 79.3129 6.18182C78.0166 7.48432 75.9094 7.48432 74.6066 6.18182C73.3037 4.88597 73.3037 2.77937 74.6066 1.47687C75.9028 0.174375 78.01 0.174375 79.3129 1.47687ZM30.7146 46.2669C30.8675 45.8349 30.9472 45.3565 30.9472 44.8248V44.8315C30.9472 44.3131 30.8808 43.8413 30.7478 43.416C30.6149 42.9907 30.4221 42.6252 30.1828 42.3195C29.9435 42.0138 29.6311 41.7812 29.2655 41.6151C28.8999 41.449 28.4811 41.3692 28.0158 41.3692C27.7034 41.3692 27.4109 41.4091 27.1583 41.4822C26.9057 41.5553 26.6863 41.6417 26.5069 41.7347V38.2924L24.9713 38.5449V47.9349C25.2771 48.0279 25.656 48.1143 26.1213 48.1874C26.5866 48.2605 27.0519 48.3004 27.5771 48.3004C28.1022 48.3004 28.5742 48.2206 28.9863 48.0611C29.3984 47.9017 29.7507 47.6691 30.0432 47.3634C30.3357 47.0577 30.5617 46.6988 30.7146 46.2669ZM28.9863 43.2499C29.2455 43.6287 29.3718 44.147 29.3718 44.7983H29.3851C29.3851 45.4761 29.2256 46.0077 28.8999 46.3932C28.5742 46.7786 28.1288 46.9713 27.5638 46.9713C27.3178 46.9713 27.1051 46.9647 26.9323 46.9381C26.9101 46.9347 26.8885 46.9314 26.8674 46.9281C26.7241 46.9063 26.6054 46.8881 26.5069 46.865V43.0439C26.6398 42.9508 26.8193 42.8644 27.0453 42.7913C27.2713 42.7182 27.5106 42.6784 27.7632 42.6784C28.3216 42.6784 28.7271 42.8711 28.9863 43.2499ZM37.8121 41.5021C37.8127 41.4999 37.8133 41.4977 37.8139 41.4955L37.8205 41.5021H37.8121ZM35.4342 48.3469C36.3374 46.3019 37.1278 44.0181 37.8121 41.5021H36.2318C36.0391 42.2929 35.8197 43.117 35.587 43.9676C35.3544 44.8182 35.1018 45.6223 34.8293 46.3732C34.6697 46.0077 34.5035 45.6156 34.344 45.1903C34.1845 44.765 34.0316 44.3397 33.8853 43.9144L33.8853 43.9142C33.7457 43.489 33.6061 43.0637 33.4865 42.6518C33.3602 42.2331 33.2605 41.8477 33.1741 41.4955H31.5389C31.8845 42.7315 32.2834 43.9011 32.7287 44.9976C33.1741 46.0941 33.6394 47.1109 34.1246 48.0412C33.9585 48.4399 33.759 48.7323 33.533 48.9251C33.307 49.1178 32.9946 49.2108 32.5958 49.2108C32.2966 49.2108 31.9975 49.151 31.6917 49.0314L31.4126 50.2608C31.5256 50.3206 31.705 50.3737 31.9377 50.4269C32.1703 50.4734 32.403 50.5 32.6423 50.5C32.9946 50.5 33.307 50.4601 33.5796 50.3804C33.8521 50.3006 34.0981 50.1744 34.3174 49.995C34.5368 49.8155 34.7362 49.5962 34.9157 49.3238C35.0885 49.0513 35.268 48.7257 35.4342 48.3469ZM42.693 43.8347C43.278 45.3299 43.8895 46.7653 44.5276 48.1343H44.5476H46.0831C46.7212 46.7653 47.3328 45.3299 47.9178 43.8347C48.5027 42.3395 49.0544 40.8376 49.5729 39.3424H47.8579C47.6652 39.9338 47.4591 40.5386 47.2464 41.1566C47.0337 41.7746 46.8209 42.386 46.6016 42.9841C46.3822 43.5888 46.1695 44.1669 45.9568 44.7185C45.7441 45.2701 45.538 45.7818 45.3453 46.247C45.1392 45.7818 44.9331 45.2701 44.7204 44.7119C44.5077 44.1537 44.295 43.5755 44.0823 42.9774C43.8696 42.3793 43.6568 41.7746 43.4441 41.1566C43.3773 40.9624 43.3111 40.7696 43.2454 40.5781C43.1019 40.1599 42.9606 39.748 42.8193 39.3424H41.0511C41.5563 40.8376 42.1014 42.3395 42.693 43.8347ZM52.285 39.3357H50.683V48.1343H52.285V39.3357ZM57.7823 46.6457C57.5231 46.8384 57.1043 46.9381 56.526 46.9381L56.5326 46.9248C55.9809 46.9248 55.5089 46.8583 55.1234 46.7321C54.7379 46.6058 54.4254 46.4795 54.1994 46.3533L53.7275 47.6624C53.8272 47.7222 53.9668 47.7887 54.133 47.8618C54.3058 47.9349 54.5052 48.008 54.7379 48.0744C54.9705 48.1409 55.2364 48.2007 55.5355 48.2472C55.8347 48.2937 56.167 48.3203 56.5326 48.3203C57.6161 48.3203 58.4337 48.1077 58.9988 47.6691C59.5638 47.2305 59.843 46.6191 59.843 45.8216C59.843 45.4096 59.7765 45.0574 59.6635 44.765C59.5505 44.4726 59.3777 44.2135 59.1516 44.0008C58.9256 43.7882 58.6531 43.6021 58.3274 43.4426C58.0017 43.2831 57.6294 43.1303 57.2173 42.9774C56.9846 42.891 56.7653 42.8046 56.5659 42.7116C56.3664 42.6186 56.2003 42.5122 56.0474 42.4059C55.8945 42.2996 55.7815 42.1733 55.7017 42.0338C55.6219 41.8942 55.5821 41.7281 55.5821 41.5354C55.5821 41.2097 55.7017 40.9639 55.941 40.7844C56.1803 40.605 56.5193 40.5186 56.9514 40.5186C57.3104 40.5186 57.6693 40.5651 58.0083 40.6449C58.3473 40.7246 58.6664 40.8509 58.9522 41.0104L59.4441 39.7145C59.1982 39.575 58.8592 39.4354 58.4337 39.3158C58.0017 39.1895 57.5164 39.1297 56.9647 39.1297C56.0141 39.1297 55.2696 39.3557 54.7179 39.8076C54.1662 40.2594 53.8937 40.8841 53.8937 41.6816C53.8937 42.0604 53.9668 42.386 54.0931 42.6584C54.2194 42.9309 54.3922 43.1568 54.6116 43.3562C54.8309 43.5556 55.0769 43.7217 55.3627 43.848C55.6485 43.9742 55.941 44.0938 56.2468 44.2068C56.5526 44.3065 56.8185 44.4128 57.0578 44.5191C57.2971 44.6255 57.4965 44.7451 57.6627 44.8647C57.8288 44.9843 57.9551 45.1239 58.0416 45.2767C58.128 45.4296 58.1745 45.609 58.1745 45.8216C58.1745 46.1739 58.0416 46.453 57.7823 46.6457ZM63.7981 40.5186C63.5654 40.0534 63.3594 39.6547 63.1733 39.3357L63.1533 39.3291H61.671C61.5912 39.9405 61.5181 40.605 61.4516 41.3227C61.3851 42.0404 61.3187 42.7847 61.2655 43.5489C61.2123 44.3198 61.1591 45.0907 61.1126 45.8682C61.0661 46.6457 61.0262 47.3966 60.993 48.1276H62.5684C62.6016 47.0976 62.6415 46.0476 62.688 44.9644C62.7345 43.8812 62.8077 42.8312 62.9007 41.8145C62.9938 42.0005 63.1068 42.2265 63.2331 42.5056C63.3594 42.7847 63.4923 43.0771 63.6386 43.3894C63.7848 43.7018 63.931 44.0274 64.0773 44.3663C64.167 44.5741 64.2566 44.777 64.3448 44.9763C64.4004 45.1021 64.4554 45.2265 64.5094 45.3498C64.6098 45.5794 64.7034 45.7987 64.7926 46.0076C64.8273 46.089 64.8614 46.1687 64.8949 46.247C64.9326 46.3349 64.9684 46.419 65.0023 46.4988C65.0761 46.6723 65.1415 46.826 65.2007 46.958H66.3972C66.4836 46.7653 66.5833 46.5328 66.7029 46.2537L66.703 46.2536C66.8226 45.9745 66.9489 45.6821 67.0885 45.3631C67.1425 45.2397 67.1975 45.1153 67.2531 44.9895C67.3413 44.7902 67.4309 44.5874 67.5206 44.3796C67.6012 44.1927 67.6839 44.0098 67.7653 43.8298C67.8314 43.6835 67.8967 43.5391 67.9593 43.3961C68.065 43.1546 68.1707 42.9283 68.2706 42.7144C68.3027 42.6458 68.3341 42.5784 68.3648 42.5122C68.4783 42.2674 68.581 42.0548 68.6682 41.8744L68.6971 41.8145C68.7902 42.8312 68.8633 43.8812 68.9099 44.9644C68.963 46.0476 69.0029 47.1042 69.0362 48.1276H70.6116C70.5783 47.4033 70.5384 46.6523 70.4919 45.8881C70.4454 45.1239 70.3922 44.3597 70.339 43.6021C70.2858 42.8445 70.2194 42.1069 70.1529 41.3825C70.0864 40.6648 70.0133 39.9803 69.9335 39.3357H68.4911C68.305 39.6614 68.0922 40.0534 67.8662 40.5186C67.6402 40.9838 67.4076 41.4756 67.1683 41.9873C66.929 42.4989 66.6963 43.0173 66.4703 43.5489C66.2443 44.0806 66.0316 44.5723 65.8388 45.0176C65.6596 44.5975 65.4632 44.1487 65.2496 43.6606L65.2007 43.5489C64.968 43.0173 64.7354 42.4989 64.4961 41.9873C64.4545 41.8984 64.4134 41.8101 64.3725 41.7225C64.1781 41.3056 63.9904 40.903 63.7981 40.5186ZM77.9501 47.1042C78.0831 47.4431 78.2028 47.7887 78.3224 48.1343H80.0507C79.725 47.1906 79.4059 46.3267 79.1068 45.5293C78.8077 44.7318 78.5152 43.9809 78.2293 43.2698C77.9435 42.5588 77.6643 41.8809 77.3851 41.2363C77.106 40.5917 76.8201 39.9538 76.521 39.3291H74.9921C74.693 39.9604 74.4072 40.5917 74.128 41.2363C73.8488 41.8809 73.5696 42.5588 73.2838 43.2698C72.9979 43.9809 72.7121 44.7318 72.413 45.5293C72.1205 46.3267 71.8081 47.1972 71.4757 48.1343H73.1375C73.2572 47.7953 73.3768 47.4564 73.5031 47.1109C73.6294 46.7654 73.749 46.4133 73.8686 46.0612L73.8687 46.0609H77.5846C77.6976 46.4197 77.8239 46.7653 77.9501 47.1042ZM75.0586 42.6717C75.3045 42.0338 75.5305 41.4822 75.7233 41.037H75.73C75.9161 41.4623 76.1354 42.0072 76.388 42.6584C76.6406 43.3097 76.8999 44.0141 77.1724 44.765H74.2809C74.5467 44.0141 74.8126 43.3097 75.0586 42.6717Z" />
</svg>
