<svg xmlns="http://www.w3.org/2000/svg" width="250" height="250" fill="none"><g clip-path="url(#a)"><path fill="#FB2D26" d="M220.295 182.018c4.474 7.861 4.907 16.128 1.189 22.663-3.712 6.54-10.976 10.285-19.929 10.285h-16.872c.2-3.183.333-6.394.333-9.627 0-3.622-.166-7.199-.411-10.764l11.099-.011c2.728 0 4.934-2.244 4.934-5.011a5.1 5.1 0 0 0-.594-2.39l-70.736-124.41a4.94 4.94 0 0 0-1.802-1.857 4.866 4.866 0 0 0-4.909-.033 4.955 4.955 0 0 0-1.797 1.772L109.569 82.39c34.133 26.037 57.08 66.375 60.22 112.174.245 3.559.411 7.136.411 10.763 0 3.234-.133 6.439-.328 9.628H114.77c.3-3.172.472-6.377.472-9.628 0-3.638-.211-7.226-.6-10.763-2.722-25.205-14.916-47.542-32.872-63.305l-7.736 13.598a82.778 82.778 0 0 1 25.342 49.707 83.76 83.76 0 0 1 .712 10.763c0 3.251-.212 6.467-.573 9.628H48.436c-8.953 0-16.216-3.751-19.929-10.292-3.717-6.534-3.284-14.795 1.19-22.662l10.487-18.187a61.515 61.515 0 0 1 16.021 12.563l-6.251 10.775a5.15 5.15 0 0 0-.596 2.39 5.048 5.048 0 0 0 .373 1.914 5.005 5.005 0 0 0 1.07 1.624 4.898 4.898 0 0 0 3.493 1.467l24.775.011a62.347 62.347 0 0 0-15.405-31.447c-4.624-5.044-10.026-9.313-16.039-12.58l27.665-48.639a117.023 117.023 0 0 1 16.677 11.445 118.658 118.658 0 0 1 42.86 81.216h14.827a133.716 133.716 0 0 0-50.222-94.342A132.285 132.285 0 0 0 82.67 88.897l23.614-41.514C110.752 39.516 117.587 35 125.024 35c7.43 0 14.26 4.516 18.734 12.383l76.537 134.635Z"/></g><defs><clipPath id="a"><path fill="#fff" d="M26 35h198v180H26z"/></clipPath></defs></svg>