<?xml version="1.0" encoding="UTF-8"?>
<svg version="1.1" xmlns="http://www.w3.org/2000/svg" width="32" height="32">
<path d="M0 0 C10.56 0 21.12 0 32 0 C32 10.56 32 21.12 32 32 C21.44 32 10.88 32 0 32 C0 21.44 0 10.88 0 0 Z " fill="#E8F837" transform="translate(0,0)"/>
<path d="M0 0 C0.99 0 1.98 0 3 0 C3.33 0.99 3.66 1.98 4 3 C4.66 2.34 5.32 1.68 6 1 C8.125 1.375 8.125 1.375 10 2 C9.608125 2.556875 9.21625 3.11375 8.8125 3.6875 C8.544375 4.450625 8.27625 5.21375 8 6 C9.28184562 8.74832154 9.28184562 8.74832154 11 11 C9.35 10.67 7.7 10.34 6 10 C6 9.34 6 8.68 6 8 C5.01 8 4.02 8 3 8 C3 8.99 3 9.98 3 11 C2.01 11 1.02 11 0 11 C0 7.37 0 3.74 0 0 Z " fill="#263F32" transform="translate(6,11)"/>
<path d="M0 0 C0.99 0 1.98 0 3 0 C3 0.66 3 1.32 3 2 C4.32 2.33 5.64 2.66 7 3 C7 3.99 7 4.98 7 6 C5.68 6 4.36 6 3 6 C3 7.65 3 9.3 3 11 C4.32 11 5.64 11 7 11 C7 11.99 7 12.98 7 14 C5.00045254 14.04254356 2.99958364 14.04080783 1 14 C-0.5439778 12.4560222 -0.38023976 10.82390724 -0.625 8.6875 C-0.72039063 7.90761719 -0.81578125 7.12773437 -0.9140625 6.32421875 C-1.00032273 3.9912715 -0.68094412 2.22069091 0 0 Z " fill="#223B32" transform="translate(19,8)"/>
<path d="M0 0 C1.98 0 3.96 0 6 0 C6.33 3.63 6.66 7.26 7 11 C5.02 11.33 3.04 11.66 1 12 C1.66 11.34 2.32 10.68 3 10 C2.01 8.68 1.02 7.36 0 6 C0.66 4.68 1.32 3.36 2 2 C1.34 1.34 0.68 0.68 0 0 Z " fill="#D0E237" transform="translate(13,11)"/>
<path d="M0 0 C2.01136276 2.55991624 3.62845496 5.04590299 5 8 C3.35 7.67 1.7 7.34 0 7 C0 6.01 0 5.02 0 4 C-0.99 3.67 -1.98 3.34 -3 3 C-2.01 2.01 -1.02 1.02 0 0 Z " fill="#1A3432" transform="translate(12,14)"/>
<path d="M0 0 C0.99 0 1.98 0 3 0 C3 0.66 3 1.32 3 2 C4.32 2.33 5.64 2.66 7 3 C6.67 3.99 6.34 4.98 6 6 C6 5.34 6 4.68 6 4 C4.02 4 2.04 4 0 4 C0 2.68 0 1.36 0 0 Z " fill="#546B33" transform="translate(19,8)"/>
</svg>
