<svg version="1.1" xmlns="http://www.w3.org/2000/svg" xmlns:xlink="http://www.w3.org/1999/xlink" width="256px" height="296px" viewBox="0,0,221.39844,256"><defs><linearGradient x1="120.50829" y1="204.70829" x2="79.91964" y2="204.70829" gradientUnits="userSpaceOnUse" id="color-1"><stop offset="0" stop-color="#ff3364"></stop><stop offset="1" stop-color="#c91540" stop-opacity="0"></stop></linearGradient></defs><g transform="translate(5.53496,6.4) scale(0.95,0.95)"><g fill="none" fill-rule="nonzero" stroke="none" stroke-width="1" stroke-linecap="butt" stroke-linejoin="miter" stroke-miterlimit="10" stroke-dasharray="" stroke-dashoffset="0" font-family="none" font-weight="none" font-size="none" text-anchor="none" style="mix-blend-mode: normal"><g transform="translate(-0.00299,0.00058) scale(1.00003,1)"><g transform="translate(22.13984,25.6) scale(0.8,0.8)"><g><g transform="translate(-0.00348,0.16751) scale(0.86486,0.86486)"><g><path d="M201.31705,271.72243l-5.89433,-162.50976l-10.67493,-42.84443l71.25222,7.54302v196.58125l-43.52524,25.12012z" fill="#24386c"></path><path d="M255.99515,73.89981l-43.52524,25.13757l-89.82027,-19.70274l-105.13363,42.80564l-17.516,-48.24048l63.98831,-36.94991l64.00771,-36.94991l63.99025,36.94991z" fill="#7589be"></path><path d="M0.0031,73.89981l43.52524,25.13757l25.23068,75.03643l85.19038,68.16239l-25.94834,53.36303l-64.00771,-36.95184l-63.99025,-36.94991v-147.79962" fill="#b2bfe8"></path><path d="M156.85691,202.80746l-28.85584,42.53991v50.25575l40.94554,-23.62466l21.09733,-31.50343" fill="#24386c"></path><path d="M128.01852,195.10714l-40.96299,-70.92248l8.82317,-23.50635l33.54198,-16.26261l39.52573,39.77012z" fill="#7589be"></path><path d="M87.05553,124.17884l40.94554,23.62466v47.28812l-37.86929,1.62931l-22.907,-29.24958l19.83075,-43.29249" fill="#b2bfe8"></path><path d="M128.00107,147.79962l40.94554,-23.62272l27.86663,46.39977l-33.72236,27.86275l-35.0898,-3.35012z" fill="#24386c"></path><path d="M168.94661,271.97458l43.52524,23.6266v-196.56186l-42.24509,-24.38112l-42.22569,-24.38112l-42.24509,24.38112l-42.22569,24.38112v97.54193l42.22569,24.38112l42.24509,24.38306l40.94554,-23.646zM168.94661,171.44368l-40.94554,23.64406l-40.94554,-23.64406v-47.26872l40.94554,-23.64406l40.94554,23.64406v47.26872" fill="#dc244c"></path><path d="M128.01852,245.36289v-50.26351l-40.73218,-23.44234v50.18011z" fill="url(#color-1)"></path></g></g></g></g></g></g></g></svg>