<svg width="250" height="250" viewBox="0 0 250 250" fill="none" xmlns="http://www.w3.org/2000/svg">
<path d="M168.137 197.1L164.707 102.544L158.496 77.6157L199.955 82.0046V196.384L174.629 211L168.137 197.1Z" fill="#24386C"/>
<path d="M199.953 81.9981L174.628 96.6242L122.365 85.1603L61.1919 110.066L51 81.9981L88.2323 60.499L125.476 39L162.709 60.499L199.953 81.9981Z" fill="#7589BE"/>
<path d="M51.0039 81.9977L76.3295 96.6238L91.0102 140.283L140.579 179.943L125.481 210.992L88.2373 189.492L51.0039 167.993V81.9966" fill="#B2BFE8"/>
<path d="M142.267 157.002L125.477 181.753V210.994L149.301 197.249L161.577 178.919" fill="#24386C"/>
<path d="M125.487 152.522L101.652 111.256L106.786 97.579L126.303 88.1167L149.301 111.257L125.487 152.522Z" fill="#7589BE"/>
<path d="M101.656 111.252L125.48 124.998V152.513L103.446 153.461L90.1172 136.442L101.656 111.252Z" fill="#B2BFE8"/>
<path d="M125.477 124.996L149.301 111.251L165.516 138.249L145.894 154.461L125.477 152.511L125.477 124.996Z" fill="#24386C"/>
<path d="M149.303 197.247L174.629 210.993V96.6254L150.048 82.4394L125.478 68.2534L100.898 82.4394L76.3281 96.6254V153.379L100.898 167.565L125.478 181.753L149.303 167.994V197.247ZM149.303 138.753L125.478 152.51L101.654 138.753V111.25L125.478 97.4932L149.303 111.25V138.753Z" fill="#DC244C"/>
<path d="M125.49 181.763V152.517L101.789 138.877V168.074L125.49 181.763Z" fill="url(#paint0_linear_480_239)"/>
<defs>
<linearGradient id="paint0_linear_480_239" x1="121.12" y1="158.108" x2="97.5027" y2="158.108" gradientUnits="userSpaceOnUse">
<stop stop-color="#FF3364"/>
<stop offset="1" stop-color="#C91540" stop-opacity="0"/>
</linearGradient>
</defs>
</svg>
