<svg xmlns="http://www.w3.org/2000/svg" width="250" height="250" fill="none"><g clip-path="url(#a)"><path fill="#010101" d="M216.464 102.593a166.767 166.767 0 0 0-1-4.341 29.539 29.539 0 0 0-8.944-14.927 29.403 29.403 0 0 0-15.776-7.275L185 75.336a525.88 525.88 0 0 0-34.144-2.968l45.272-26.59a8.545 8.545 0 0 0 4.017-5.504 8.568 8.568 0 0 0-1.273-6.7 8.543 8.543 0 0 0-5.18-3.53 8.523 8.523 0 0 0-6.188.962l-63.088 37.077-64.728-37.944a8.322 8.322 0 0 0-6.233-.89 8.346 8.346 0 0 0-5.079 3.73 8.384 8.384 0 0 0 2.896 11.619L97.928 71.95a490.245 490.245 0 0 0-32.28 2.199l-5.384.545a29.558 29.558 0 0 0-16.218 7.186 29.702 29.702 0 0 0-9.214 15.192c-.216.859-.432 1.71-.632 2.568a201.73 201.73 0 0 0 .8 94.438c.304 1.195.616 2.407.952 3.562a29.454 29.454 0 0 0 9.344 14.55 29.311 29.311 0 0 0 15.88 6.769c2.133.225 4.267.439 6.4.642 16.648 1.605 34.12 2.407 52.12 2.407a547.48 547.48 0 0 0 63.344-3.587c2.224-.248 4.424-.529 6.624-.802a29.561 29.561 0 0 0 15.72-7.138 29.706 29.706 0 0 0 9.08-14.718c.408-1.517.8-3.041 1.152-4.59a197.736 197.736 0 0 0 5.312-45.975 198.667 198.667 0 0 0-4.464-42.605ZM197.6 181.762a22.795 22.795 0 0 1-6.763 11.482 22.689 22.689 0 0 1-12.013 5.72 401.573 401.573 0 0 1-59.072 4.221 413.88 413.88 0 0 1-46.864-2.608 23.588 23.588 0 0 1-12.934-5.752 23.705 23.705 0 0 1-7.338-12.133 161.482 161.482 0 0 1-.312-73.681 20.64 20.64 0 0 1 6.335-10.633 20.54 20.54 0 0 1 11.265-5.077c4.592-.561 9.28-1.059 14.056-1.452 11.488-1.003 23.48-1.517 35.792-1.517h.56c3.072 0 6.125.038 9.16.113 12.952.289 25.496 1.147 37.392 2.52a376.53 376.53 0 0 1 14.488 1.973c4.026.62 7.772 2.44 10.751 5.225a20.349 20.349 0 0 1 5.953 10.389 159.328 159.328 0 0 1 3.744 34.63 158.616 158.616 0 0 1-4.2 36.58Z"/><path fill="#3F918B" d="M85.128 166.236c13.038 0 23.608-10.601 23.608-23.678s-10.57-23.678-23.608-23.678-23.608 10.601-23.608 23.678 10.57 23.678 23.608 23.678Zm79.744 1.051c13.038 0 23.608-10.601 23.608-23.678s-10.57-23.677-23.608-23.677-23.608 10.6-23.608 23.677 10.57 23.678 23.608 23.678Z"/></g><defs><clipPath id="a"><path fill="#fff" d="M29 29h192v193H29z"/></clipPath></defs></svg>