<svg xmlns="http://www.w3.org/2000/svg" width="250" height="250" fill="none"><g clip-path="url(#a)"><path fill="#0C6DD9" d="M221 134.81h-39.255l30.292 30.3-14.077 14.078-44.37-44.378h-18.78v-.847l-.847.847h.847v17.925l44.805 44.797-14.085 14.078-30.72-30.72V221h-19.62v-40.11l-30.72 30.72-13.658-13.65 44.378-44.37v-18.78h1.702l-1.702-1.702v1.702H96.41l-44.37 44.378-14.505-14.505L67.4 134.81H29v-19.62h40.11L38.39 84.47l14.078-14.085 44.797 44.805h17.925v.847l.847-.847h-.847V96.41L70.812 52.04 84.89 37.963l30.3 30.292V29h19.62v38.4l30.3-30.292 14.505 14.504L134.81 96.41v18.78h-.847l.847.847v-.847h18.78l44.798-44.805 13.649 13.658-31.147 31.147H221v19.62Z"/></g><defs><clipPath id="a"><path fill="#fff" d="M29 29h192v192H29z"/></clipPath></defs></svg>