<svg width="40" height="40" fill="none" xmlns="http://www.w3.org/2000/svg"><path d="M0 20a20 20 0 1 1 40 0 20 20 0 1 1-40 0z" fill="#1A4A7F"/><path fill-rule="evenodd" clip-rule="evenodd" d="M16.73 39.73a19.95 19.95 0 0 1-10.64-5.35l18.02-16.54-10.3 2.5a5.29 5.29 0 0 1-6.42-3.96 5.45 5.45 0 0 1 4.01-6.5l21.44-5.21a20 20 0 0 1-4.83 33.66c-.06-.71.01-1.45.26-2.17l3.4-10.14-14.94 13.71z" fill="url(#a)"/><defs><linearGradient id="a" x1="49.06" y1="2.53" x2="-19.41" y2="65.36" gradientUnits="userSpaceOnUse"><stop stop-color="#FFB800"/><stop offset="1" stop-color="#FFF11D"/></linearGradient></defs></svg>