<svg xmlns="http://www.w3.org/2000/svg" width="250" height="250" fill="none"><path fill="#EE5A29" d="M173.845 80.23c10.882 0 21.014 4.105 28.519 10.82 4.878 4.104 12.383.746 12.383-5.97V43.297c0-8.207-6.754-15.296-15.385-15.296H47.385C38.755 28 32 34.715 32 43.296v163.781C32 215.284 38.755 222 47.385 222h152.352c8.256 0 15.386-6.716 15.386-15.296V164.92c0-6.343-7.506-10.074-12.384-5.97-7.88 6.716-17.636 10.82-28.519 10.82-24.766 0-44.655-20.147-44.655-44.77 0-24.623 19.889-44.77 44.28-44.77Z"/></svg>