<svg width="250" height="250" viewBox="0 0 250 250" style="display: block; margin: auto;" fill="none" xmlns="http://www.w3.org/2000/svg">
  <g transform="translate(50, 100)"> <!-- Adjust translation values as needed -->
    <path d="M58.586 10.113c0-.789.657-1.38 1.446-1.38.854 0 1.446.59 1.446 1.314 0 .789-.592 1.446-1.446 1.446-.789 0-1.446-.592-1.446-1.38Zm.329 3.023h2.3v8.413h-2.3v-8.413ZM133.84 10.113c0-.789.657-1.38 1.446-1.38.854 0 1.446.59 1.446 1.314 0 .789-.592 1.446-1.446 1.446-.789 0-1.446-.592-1.446-1.38Zm.328 3.023h2.301v8.413h-2.301v-8.413ZM73.177 15.896v5.653h-2.3v-5.324c0-1.775-.855-2.563-2.366-2.563-1.578-.066-2.695.92-2.695 2.892v4.995h-2.3V11.69h2.169v1.249c.723-.92 1.971-1.38 3.417-1.38 2.3.065 4.075 1.38 4.075 4.338ZM84.878 11.69v9.858h-2.17V20.3c-.722.92-1.905 1.38-3.154 1.38-2.498 0-4.206-1.38-4.206-4.338V11.69h2.3v5.323c0 1.775.855 2.63 2.3 2.63 1.578 0 2.695-.987 2.695-2.958V11.69h2.235ZM93.222 21.023c-.526.46-1.38.657-2.235.657-2.169 0-3.417-1.117-3.417-3.286v-4.732h-1.578v-1.84h1.643v-3.09h2.3v3.024h2.63v1.84h-2.63v4.667c0 .986.46 1.446 1.381 1.446.46 0 .92-.132 1.314-.395l.592 1.71ZM103.342 17.341h-7.69c.263 1.446 1.446 2.366 3.155 2.366 1.117 0 1.972-.328 2.695-1.051l1.248 1.446c-.854 1.051-2.234 1.577-3.943 1.577-3.287 0-5.455-2.103-5.455-5.06 0-2.958 2.168-4.996 5.06-4.996 2.892 0 4.996 2.038 4.996 5.06 0 .198-.066.461-.066.658Zm-7.69-1.512h5.587c-.198-1.446-1.25-2.366-2.76-2.366-1.578 0-2.63.92-2.827 2.367ZM121.423 15.89v5.653h-2.3v-5.324c0-1.775-.789-2.563-2.235-2.563-1.512 0-2.563.986-2.563 2.957v4.996h-2.301v-5.324c0-1.775-.789-2.563-2.235-2.563-1.511 0-2.563.985-2.563 2.957v4.995h-2.3v-9.859h2.169v1.25c.723-.855 1.906-1.381 3.22-1.381 1.446 0 2.629.526 3.287 1.643.788-.986 2.103-1.643 3.68-1.643 2.498-.066 4.141 1.249 4.141 4.206ZM56.416 15.896v5.653h-2.3v-5.324c0-1.775-.79-2.563-2.235-2.563-1.512 0-2.564.986-2.564 2.957v4.996h-2.3V16.29c0-1.775-.789-2.564-2.235-2.564-1.446-.13-2.497.855-2.497 2.827v4.995h-2.3V11.69h2.168v1.249c.723-.855 1.906-1.38 3.22-1.38 1.447 0 2.63.525 3.287 1.643.789-.986 2.103-1.643 3.68-1.643 2.433.065 4.076 1.38 4.076 4.338ZM131.935 15.765v5.784h-2.169v-1.183c-.526.854-1.643 1.314-3.089 1.314-2.235 0-3.681-1.249-3.681-2.957 0-1.644 1.117-2.958 4.075-2.958h2.563v-.132c0-1.314-.788-2.103-2.431-2.103-1.118 0-2.235.395-2.958.986l-.92-1.643c1.051-.789 2.563-1.183 4.14-1.183 2.827-.066 4.47 1.249 4.47 4.075Zm-2.301 2.695v-1.118h-2.366c-1.577 0-1.972.592-1.972 1.315 0 .854.723 1.38 1.907 1.38 1.117-.066 2.037-.526 2.431-1.577ZM138.77 8.666h2.3v12.882h-2.3V8.666ZM152.639 17.341h-7.69c.263 1.446 1.446 2.366 3.155 2.366 1.117 0 1.971-.328 2.694-1.051l1.249 1.446c-.854 1.051-2.234 1.577-3.943 1.577-3.287 0-5.456-2.103-5.456-5.06 0-2.958 2.169-4.996 5.061-4.996s4.995 2.038 4.995 5.06c0 .198 0 .461-.065.658Zm-7.69-1.512h5.587c-.198-1.446-1.249-2.366-2.761-2.366s-2.629.92-2.826 2.367ZM160 11.623v2.169c-.197-.066-.394-.066-.526-.066-1.774 0-2.826 1.052-2.826 3.024v4.798h-2.3v-9.86h2.169v1.447c.657-.986 1.84-1.512 3.483-1.512Z" fill="#1D1D1D"></path>
    <path fill-rule="evenodd" clip-rule="evenodd" d="m23.202 24.523 9.197-20.736L0 14.757l12.415 2.82.058 7.038 3.724-3.762-2.898-2.984 9.903 6.654Z" fill="#1D1D1D"></path>
  </g>
</svg>
