<svg width="112" height="92" xmlns="http://www.w3.org/2000/svg"><g fill-rule="nonzero" fill="none"><path d="M3.29 85.53a5 5 0 0 1-2.09-2.14A7.08 7.08 0 0 1 .44 80a7.57 7.57 0 0 1 .76-3.51 5.35 5.35 0 0 1 2.12-2.27 6.13 6.13 0 0 1 3.12-.79 6 6 0 0 1 3.08.78 5.32 5.32 0 0 1 2.07 2.23 7.43 7.43 0 0 1 .75 3.44 7.28 7.28 0 0 1-.77 3.46 5.32 5.32 0 0 1-2.14 2.19 6.86 6.86 0 0 1-6.14 0ZM8.7 83a5.43 5.43 0 0 0 .73-3 5.81 5.81 0 0 0-.78-3.25 2.57 2.57 0 0 0-2.29-1.17 2.53 2.53 0 0 0-2.28 1.17 5.78 5.78 0 0 0-.75 3.17A5 5 0 0 0 4.15 83a2.74 2.74 0 0 0 2.35 1.1A2.51 2.51 0 0 0 8.7 83ZM14.62 76.66c0-.91 0-1.93-.09-3h2.66c.1.522.17 1.05.21 1.58a5 5 0 0 1 3.79-1.81 4.39 4.39 0 0 1 2.29.63 4.52 4.52 0 0 1 1.71 2 8 8 0 0 1 .64 3.43 8.36 8.36 0 0 1-.74 3.7A5.19 5.19 0 0 1 23 85.46a5.88 5.88 0 0 1-3.07.8 7.67 7.67 0 0 1-2.49-.43V91l-2.84.24.02-14.58ZM22.08 83a5.68 5.68 0 0 0 .86-3.4 5 5 0 0 0-.72-3 2.26 2.26 0 0 0-1.91-.94 3 3 0 0 0-1.52.39 5.58 5.58 0 0 0-1.33 1v6.63c.317.153.653.26 1 .32.367.087.743.13 1.12.13a3 3 0 0 0 2.5-1.13ZM38.21 80.19h-8.1c.127 2.593 1.363 3.89 3.71 3.89a7.88 7.88 0 0 0 1.78-.22 10.84 10.84 0 0 0 1.75-.56l.65 1.93a10.43 10.43 0 0 1-4.67 1A6.76 6.76 0 0 1 30 85.5a4.72 4.72 0 0 1-2-2.15 7.53 7.53 0 0 1-.74-3.35 8 8 0 0 1 .74-3.55 5.31 5.31 0 0 1 2-2.27 5.66 5.66 0 0 1 3-.78 5 5 0 0 1 2.93.83 4.83 4.83 0 0 1 1.75 2.18 8 8 0 0 1 .56 3l-.03.78Zm-2.76-1.81a3.5 3.5 0 0 0-.75-2.22 2.27 2.27 0 0 0-1.78-.74 2.39 2.39 0 0 0-1.79.75 4 4 0 0 0-.94 2.21h5.26ZM40.5 76.79c0-1.16 0-2.21-.09-3.16h2.65c0 .26.09.59.13 1 .04.41.07.71.08 1a9.56 9.56 0 0 1 1.15-1.09 4.89 4.89 0 0 1 3.09-1.07 3.46 3.46 0 0 1 2.82 1.2 5.28 5.28 0 0 1 1 3.49V86h-2.81v-7.72c0-1.76-.66-2.64-2-2.64-.59 0-1.17.166-1.67.48a7.63 7.63 0 0 0-1.54 1.28V86H40.5v-9.21ZM57.21 85.18a6.64 6.64 0 0 1-2.64-3 10.05 10.05 0 0 1-.9-4.36 9.84 9.84 0 0 1 1-4.69 7.18 7.18 0 0 1 2.91-3 8.71 8.71 0 0 1 4.26-1 10.72 10.72 0 0 1 2.69.34 11.9 11.9 0 0 1 2.37.91l-.54 1.18a12.81 12.81 0 0 0-2.18-.86 8.84 8.84 0 0 0-2.32-.31 7 7 0 0 0-3.51.87A5.94 5.94 0 0 0 56 73.84a8.77 8.77 0 0 0-.86 4 9.19 9.19 0 0 0 .69 3.66A5.59 5.59 0 0 0 58 84.07a6.47 6.47 0 0 0 3.59.93 11.29 11.29 0 0 0 4.32-.86v-4.32h-4.6v-1.28h6v6.32a13.11 13.11 0 0 1-2.84 1 13 13 0 0 1-3 .36 8 8 0 0 1-4.26-1.04ZM78.05 86c0-.2-.07-.49-.1-.85s0-.66-.06-.91A6 6 0 0 1 76 85.67a5.74 5.74 0 0 1-2.55.57 4.25 4.25 0 0 1-1.9-.4 3 3 0 0 1-1.29-1.18 3.74 3.74 0 0 1-.47-1.92 3.53 3.53 0 0 1 1.29-2.84 6.61 6.61 0 0 1 4.21-1.07 23 23 0 0 1 2.52.16v-.49a4.3 4.3 0 0 0-.82-3 3.05 3.05 0 0 0-2.32-.87 7.28 7.28 0 0 0-1.92.27 8.58 8.58 0 0 0-1.69.63l-.29-1.1a7.78 7.78 0 0 1 1.74-.64 8.91 8.91 0 0 1 2.33-.29 5.12 5.12 0 0 1 2.33.48 3.23 3.23 0 0 1 1.48 1.62 7.48 7.48 0 0 1 .53 3.08v5c0 .51 0 1.28.09 2.32h-1.22Zm-2.74-1.19a5.87 5.87 0 0 0 1.46-.73 4.31 4.31 0 0 0 1-1V80c-.783-.1-1.57-.15-2.36-.15a5.33 5.33 0 0 0-3.32.78 2.6 2.6 0 0 0-.94 2.09 2.32 2.32 0 0 0 .67 1.81 2.66 2.66 0 0 0 1.81.59 5.17 5.17 0 0 0 1.68-.3v-.01ZM83.48 85.08a5.66 5.66 0 0 1-.9-3.52v-7.81h1.34v7.77a4.34 4.34 0 0 0 .67 2.69 2.38 2.38 0 0 0 2 .85 4.48 4.48 0 0 0 2.24-.62 8.21 8.21 0 0 0 1.92-1.56v-9.13h1.36v9.17c0 .85 0 1.89.1 3.09H91c-.06-.29-.13-.92-.23-1.88a9.92 9.92 0 0 1-2.07 1.54 5.13 5.13 0 0 1-2.43.57 3.3 3.3 0 0 1-2.79-1.16ZM96.08 86a7.68 7.68 0 0 1-1.56-.53l.38-1.14c.464.243.958.42 1.47.53a7.9 7.9 0 0 0 1.66.19 3.58 3.58 0 0 0 2.3-.64 2.06 2.06 0 0 0 .79-1.69 1.84 1.84 0 0 0-.34-1.12 2.86 2.86 0 0 0-.95-.77c-.41-.22-1-.49-1.81-.81a11.66 11.66 0 0 1-1.84-.91 3.53 3.53 0 0 1-1.08-1.06 2.71 2.71 0 0 1-.37-1.46 3 3 0 0 1 .44-1.65 2.85 2.85 0 0 1 1.31-1.09 5.2 5.2 0 0 1 2.09-.38 8.18 8.18 0 0 1 3.44.81l-.31 1.08a6.74 6.74 0 0 0-3.07-.77 3 3 0 0 0-1.92.52 1.65 1.65 0 0 0-.66 1.38c-.016.36.098.715.32 1 .25.292.556.53.9.7.38.19.95.45 1.71.77a18.44 18.44 0 0 1 1.86.9c.463.269.86.638 1.16 1.08a3 3 0 0 1 .44 1.67 3.3 3.3 0 0 1-2 3.18 5.92 5.92 0 0 1-2.43.45 8.18 8.18 0 0 1-1.93-.24ZM105.23 86a8 8 0 0 1-1.57-.53l.38-1.14c.464.243.958.42 1.47.53a8 8 0 0 0 1.67.19 3.55 3.55 0 0 0 2.29-.64 2 2 0 0 0 .79-1.69 1.78 1.78 0 0 0-.34-1.12 2.77 2.77 0 0 0-.95-.77 18.85 18.85 0 0 0-1.81-.81 12.11 12.11 0 0 1-1.84-.91 3.53 3.53 0 0 1-1.08-1.06 2.8 2.8 0 0 1-.37-1.46 3.08 3.08 0 0 1 .44-1.65 2.9 2.9 0 0 1 1.31-1.09 5.29 5.29 0 0 1 2.1-.38 8.18 8.18 0 0 1 3.44.81l-.31 1.08a6.78 6.78 0 0 0-3.08-.77 3 3 0 0 0-1.91.52c-.44.32-.69.837-.67 1.38-.017.363.1.719.33 1a2.8 2.8 0 0 0 .89.7c.38.19 1 .45 1.72.77a18.44 18.44 0 0 1 1.86.9c.447.267.83.629 1.12 1.06a2.89 2.89 0 0 1 .45 1.67 3.33 3.33 0 0 1-2 3.18 5.91 5.91 0 0 1-2.42.45 8.12 8.12 0 0 1-1.91-.22Z" fill="#424140"/><path d="m84 23-17.76-9.62-9.57 5.52s-3.25 1.82-3.45 4.75a2.27 2.27 0 0 1-.92-1.18v-6.9a1.6 1.6 0 0 1 .93-1.32L66.3 6.67 84 16.28" fill="#2380C3"/><path d="M28 16.14A1.69 1.69 0 0 1 29 15L51 2.09a10.26 10.26 0 0 1 5-1.28v6.76a10.26 10.26 0 0 0-5.11 1.24L32.46 19.66l18.45 10.86a11.17 11.17 0 0 0 10.22 0l22-12.92a1.6 1.6 0 0 0 .93-1.32V23a1.6 1.6 0 0 1-.93 1.32l-22 12.92a11.17 11.17 0 0 1-10.22 0L29 24.36A1.61 1.61 0 0 1 28 23v-6.9.04Z" fill="#2380C3"/><path d="M84 34a1.61 1.61 0 0 1-.92 1.32l-22 12.92a11.17 11.17 0 0 1-10.22 0l-22-12.92A1.6 1.6 0 0 1 28 34v-6.81a1.6 1.6 0 0 0 .93 1.32l22 12.92a11.17 11.17 0 0 0 10.22 0l22-12.92A1.6 1.6 0 0 0 84 27.2V34Z" fill="#2380C3"/><path d="M84 44.52a1.6 1.6 0 0 1-.92 1.31l-22 12.92a11.17 11.17 0 0 1-10.22 0l-22-12.92a1.6 1.6 0 0 1-.86-1.31v-6.76a1.62 1.62 0 0 0 .93 1.32L50.87 52a11.17 11.17 0 0 0 10.22 0l22-12.91a1.63 1.63 0 0 0 .92-1.32L84 44.52Z" fill="#2380C3"/></g></svg>