<?xml version="1.0" encoding="utf-8"?>
<!-- Generator: Adobe Illustrator 27.6.1, SVG Export Plug-In . SVG Version: 6.00 Build 0)  -->
<svg version="1.1" id="Layer_1" xmlns="http://www.w3.org/2000/svg" xmlns:xlink="http://www.w3.org/1999/xlink" x="0px" y="0px"
	 viewBox="0 0 250 250" style="enable-background:new 0 0 250 250;" xml:space="preserve">
<style type="text/css">
	.st0{fill:url(#SVGID_1_);}
	.st1{fill:#FFDB2C;}
</style>
<g id="bg">
</g>
<g id="logos">
	<g>
		<g>
			<g>
				
					<linearGradient id="SVGID_1_" gradientUnits="userSpaceOnUse" x1="71.6227" y1="40.4389" x2="181.2725" y2="230.3578" gradientTransform="matrix(1 0 0 -1 0 250.13)">
					<stop  offset="0" style="stop-color:#008FA9"/>
					<stop  offset="0.1086" style="stop-color:#2AA080"/>
					<stop  offset="0.2374" style="stop-color:#57B355"/>
					<stop  offset="0.3026" style="stop-color:#68BA44"/>
					<stop  offset="0.3972" style="stop-color:#75BD40"/>
					<stop  offset="0.5564" style="stop-color:#93C535"/>
					<stop  offset="0.814" style="stop-color:#CADA19"/>
					<stop  offset="1" style="stop-color:#F5EA03"/>
				</linearGradient>
				<path class="st0" d="M60.1,84.3v17c-7.4-7.4-12-17.7-12-29c0-22.8,18.4-41.2,41.2-41.2s41.2,18.4,41.2,41.2
					c0,1.8-0.1,3.6-0.4,5.3H66.3C62.9,77.6,60.1,80.6,60.1,84.3z M60.1,157.2v-48.4c-4.1-1.4-8.5-2.1-13-2.1
					c-22.8,0-41.2,18.4-41.2,41.2s18.4,41.2,41.2,41.2c17.1,0,31.7-10.4,38-25.2H66.3C62.9,163.9,60.1,160.9,60.1,157.2z
					 M163.6,163.9H88.9c-1.4,4.4-2.1,9.1-2.1,14c0,26,21.1,47.1,47.1,47.1c26,0,47.2-21.1,47.2-47.1c0-11.7-4.2-22.3-11.3-30.6v9.9
					C169.8,160.9,167,163.9,163.6,163.9z M188.5,32.4c-26.9,0-49.3,19.5-53.8,45.1h28.8c3.4,0,6.2,3,6.2,6.7v54.1
					c5.8,2.1,12.1,3.3,18.7,3.3c30.2,0,54.6-24.5,54.6-54.6S218.7,32.4,188.5,32.4z"/>
			</g>
		</g>
		<path class="st1" d="M89.3,113.5c21,0,38.2-15.6,40.8-35.9H66.3c-3.4,0-6.2,3-6.2,6.7v17C67.5,108.8,77.9,113.5,89.3,113.5z"/>
		<path class="st1" d="M60.1,108.8v48.4c0,3.7,2.8,6.7,6.2,6.7H85c2.1-4.9,3.2-10.3,3.2-16C88.3,129.7,76.5,114.3,60.1,108.8z"/>
		<path class="st1" d="M133.9,130.8c-21.2,0-39.1,14-45,33.2h74.7c3.4,0,6.2-3,6.2-6.7v-9.9C161.2,137.2,148.3,130.8,133.9,130.8z"
			/>
		<path class="st1" d="M163.6,77.6h-28.8c-0.5,3.1-0.8,6.2-0.8,9.5c0,23.6,15,43.7,35.9,51.3V84.3C169.8,80.6,167,77.6,163.6,77.6z"
			/>
	</g>
</g>
</svg>
