<svg xmlns="http://www.w3.org/2000/svg" width="250" height="250" fill="none"><path fill="#E2401B" d="M161.414 156.683a156.326 156.326 0 0 1-7.295-15.095 64.598 64.598 0 0 0 21.247-14.951c9.379-9.158 14.067-22.094 14.067-38.809 0-19.375-6.348-34.432-19.046-45.17a68.61 68.61 0 0 0-45.762-16.108H43.142v185.078h39.656v-66.512h15.08l9.205-.232c3.416 8.3 11.029 26.548 15.457 36.264l38.874-24.465ZM82.798 63.479h36.5c18.332 0 27.499 7.393 27.499 22.18 0 15.886-10.228 23.819-30.683 23.801H82.798V63.479Zm119.603 134.847-10.391-7.346-42.985 27.82 15.052 5.841 26.224-.057 19.017-13.534-6.917-12.724Zm-34.387-30.915-39.858 25.072 11.202 17.525 42.405-26.692-13.749-15.905Z"/></svg>