<svg xmlns="http://www.w3.org/2000/svg" viewBox="142.501 60.875 101.161 101.7378" width="250" height="250">
  <path d="M 159.501 86.373 C 166.413 88.647 172.523 91.193 178.501 95.373 C 177.942 97.665 177.379 99.957 176.813 102.248 C 176.638 102.957 176.463 103.667 176.283 104.398 C 175.293 108.362 174.251 112.305 173.122 116.232 C 172.894 117.028 172.666 117.823 172.431 118.643 C 171.987 120.182 171.535 121.72 171.076 123.255 C 169.675 128.113 168.698 132.561 170.126 137.56 C 173.137 141.53 177.794 142.598 182.501 143.373 C 190.23 143.988 197.448 143.036 204.981 141.44 C 212.14 139.934 212.14 139.934 215.501 140.373 C 217.721 143.703 217.857 145.406 217.212 149.314 C 215.829 153.319 213.089 155.309 209.501 157.373 C 203.099 160.118 196.487 162.096 189.501 162.373 C 188.328 162.424 187.155 162.476 185.946 162.529 C 174.061 162.88 160.95 162.472 151.501 154.373 C 147.347 150.422 144.829 146.274 144.342 140.475 C 144.199 134.144 145.439 128.575 147.126 122.498 C 147.394 121.504 147.663 120.509 147.94 119.485 C 149.748 112.874 151.663 106.295 153.688 99.748 C 153.926 98.973 154.163 98.199 154.408 97.401 C 155.691 93.374 157.127 89.917 159.501 86.373 Z" style="fill: rgb(15, 122, 174);"/>
  <path d="M 210.064 60.936 C 211.11 60.916 212.156 60.896 213.234 60.875 C 221.702 60.881 229.896 62.517 236.939 67.498 C 241.01 72.066 243.295 76.907 243.662 83.069 C 243.422 86.99 242.823 89.782 240.939 93.248 C 230.042 102.749 215.122 102.173 201.501 101.373 C 193.065 100.448 186.363 95.404 179.431 90.846 C 171.818 85.918 164.756 82.296 155.501 83.373 C 152.05 84.469 148.801 85.89 145.501 87.373 C 144.511 87.703 143.521 88.033 142.501 88.373 C 142.746 85.075 143.73 84.145 146.126 81.748 C 150.832 78.113 155.694 77.405 161.501 77.123 C 166.263 76.716 168.197 75.322 171.544 72.061 C 182.097 62.962 196.647 60.845 210.064 60.936 Z M 188.501 83.373 C 188.501 84.033 188.501 84.693 188.501 85.373 C 189.916 86.023 191.333 86.668 192.751 87.311 C 193.54 87.671 194.329 88.03 195.142 88.401 C 201.527 91.033 210.189 92.14 216.685 89.479 C 218.481 88.317 218.481 88.317 220.501 86.373 C 220.207 83.528 219.718 82.556 217.501 80.686 C 208.152 76.595 197.145 78.234 188.501 83.373 Z" style="fill: rgb(15, 122, 174);"/>
</svg>
