<svg xmlns="http://www.w3.org/2000/svg" width="250" height="250" viewBox="0 0 170 41" fill="none">
  <path d="M0.81223 8.44838C1.35351 4.56018 4.4229 1.48579 8.30411 0.942954C16.3378 -0.141789 24.4616 -0.14179 32.4953 0.942952C36.3768 1.48579 39.4457 4.56018 39.9874 8.44837C41.0706 16.4958 41.0706 24.6336 39.9874 32.6812C39.4457 36.5696 36.3768 39.6436 32.4953 40.1861C24.4616 41.2712 16.3378 41.2712 8.30411 40.1861C4.4229 39.6436 1.35385 36.5696 0.812232 32.6812C-0.271002 24.5432 -0.271002 16.4958 0.81223 8.44838Z" fill="#FF9200"></path>
  <path d="M8.7041 24.8852C8.7041 25.247 8.88458 25.6088 9.24562 25.6993L18.272 29.4967C18.543 29.5872 18.9039 29.5872 19.0845 29.4064C19.2652 29.2254 19.4455 28.9543 19.4455 28.6831L19.4455 27.0554C19.4455 26.6937 19.2652 26.3319 18.9041 26.2414L9.87753 22.444C9.60665 22.3535 9.24575 22.3535 9.06503 22.5342C8.88458 22.7152 8.7041 22.9864 8.7041 23.2577L8.7041 24.8852ZM8.7041 19.46C8.7041 19.8217 8.88458 20.1834 9.24562 20.274L18.272 24.0716C18.543 24.1619 18.9039 24.1619 19.0845 23.9811C19.2652 23.8003 19.4455 23.5289 19.4455 23.2577L19.4455 21.6299C19.4455 21.2683 19.2652 20.9066 18.9041 20.8163L9.87753 17.0187C9.60665 16.9281 9.24575 16.9281 9.06503 17.109C8.88458 17.2898 8.7041 17.5611 8.7041 17.8325L8.7041 19.46ZM8.7041 14.0347C8.7041 14.3964 8.88458 14.7582 9.24562 14.8485L18.272 18.6462C18.543 18.7366 18.9039 18.7366 19.0845 18.5557C19.2652 18.375 19.4455 18.1037 19.4455 17.8325L19.4455 16.2047C19.4455 15.8431 19.2652 15.4813 18.9041 15.3909L9.87753 11.5932C9.60665 11.5029 9.24575 11.5029 9.06503 11.6837C8.88458 11.8644 8.7041 12.1358 8.7041 12.407L8.7041 14.0347ZM32.1731 24.8852C32.1731 25.247 31.9925 25.6088 31.6313 25.6993L22.6049 29.4967C22.3339 29.5872 21.973 29.5872 21.7925 29.4064C21.6119 29.2254 21.4314 28.9543 21.4314 28.6831L21.4314 16.2047C21.4314 15.8431 21.6119 15.4813 21.973 15.3909L30.9995 11.5932C31.2704 11.5029 31.6313 11.5029 31.8119 11.6837C31.9925 11.8644 32.1731 12.1358 32.1731 12.407L32.1731 24.8852Z" fill="white"></path>
  <path d="M56.2754 16.962C54.4523 16.962 53.0087 18.3318 53.0087 20.9189C53.0087 23.5068 54.4523 24.8764 56.2754 24.8764C58.0988 24.8764 59.5421 23.5063 59.5421 20.9189C59.5421 18.3317 58.0988 16.962 56.2754 16.962ZM56.2754 14.5268C59.7699 14.5268 63.1124 16.3532 63.1124 20.9189C63.1124 25.4851 59.8457 27.3118 56.2754 27.3118C52.7047 27.3118 49.438 25.4851 49.438 20.9189C49.438 16.3532 52.7809 14.5268 56.2754 14.5268Z" fill="#211D1D"></path>
  <path d="M65.088 18.1035C66.0757 17.6471 68.1266 17.4188 69.8739 17.4188C72.533 17.4188 74.7359 18.56 74.7359 21.2995V27.0833H71.4691V21.452C71.4691 20.082 70.7096 19.7778 69.7219 19.7778C69.2663 19.7778 68.5825 19.8537 68.2028 20.0061V27.0833H64.936V18.1035H65.088Z" fill="#211D1D"></path>
  <path d="M80.2056 21.4519H83.0922C83.0922 20.0059 82.6366 19.5494 81.6489 19.5494C80.7373 19.5494 80.1294 20.0059 80.1294 21.2233L80.2056 21.4519ZM86.3589 23.1261H80.0536C80.0536 24.4197 80.8132 24.9525 82.5604 24.9525C83.7759 24.9525 85.0676 24.8002 85.7513 24.4959L86.3589 26.7027C85.2954 27.0832 83.9279 27.3118 82.4846 27.3118C78.9139 27.3118 76.5591 25.9417 76.5591 22.3651C76.5591 18.7886 78.61 17.4187 81.5731 17.4187C84.5355 17.4187 86.5109 18.7886 86.5109 22.0609C86.5109 22.289 86.4347 22.7456 86.3589 23.1261Z" fill="#211D1D"></path>
  <path d="M92.1326 17.1902V20.8431H93.804C95.1715 20.8431 95.7029 20.1581 95.7029 19.0166C95.7029 17.8751 95.2473 17.1902 93.804 17.1902H92.1326ZM94.6394 14.8311C97.8303 14.8311 99.1216 16.5053 99.1216 19.0166C99.1216 21.5279 97.8303 23.202 94.6394 23.202H92.1326V27.0068H88.79V14.8311H94.6394Z" fill="#211D1D"></path>
  <path d="M106.718 23.1261H105.579C104.439 23.1261 103.907 23.4305 103.907 24.1915C103.907 24.8764 104.515 25.2569 105.427 25.2569C105.883 25.2569 106.338 25.1807 106.718 25.1049V23.1261ZM109.985 26.6266C108.693 27.0069 107.022 27.3118 105.275 27.3118C102.54 27.3118 100.641 26.7788 100.641 24.4197C100.641 22.4411 101.705 21.4519 104.895 21.4519H106.719V20.9189C106.719 19.9299 106.111 19.6255 105.047 19.6255C103.528 19.6255 102.312 19.9299 101.477 20.2343L101.097 17.8753C102.312 17.4948 103.528 17.2665 105.199 17.2665C107.934 17.2665 109.909 18.1797 109.909 20.8433V26.6266H109.985Z" fill="#211D1D"></path>
  <path d="M117.43 24.8764C117.886 24.8764 118.19 24.8001 118.493 24.6478V19.8536C118.19 19.7775 117.886 19.7014 117.43 19.7014C116.063 19.7014 115.151 20.4624 115.151 22.2889C115.151 23.8872 115.986 24.8764 117.43 24.8764ZM121.684 27.0069C121.684 30.2794 119.937 31.421 117.354 31.6491C116.822 31.6491 116.29 31.7253 115.759 31.7253C114.315 31.7253 113.176 31.421 112.112 30.8881L112.492 28.6813C113.404 29.138 114.619 29.3661 115.986 29.3661C117.43 29.3661 118.418 28.9095 118.418 27.6159V27.0069C118.038 27.1592 117.354 27.2354 116.67 27.2354C113.784 27.2354 111.808 25.7893 111.808 22.3648C111.808 18.7121 114.087 17.3423 117.506 17.3423C119.101 17.3423 120.545 17.5706 121.684 18.0272V27.0069Z" fill="#211D1D"></path>
  <path d="M127.154 21.4519H130.041C130.041 20.0059 129.585 19.5494 128.598 19.5494C127.686 19.5494 127.078 20.0059 127.078 21.2233L127.154 21.4519ZM133.308 23.1261H127.002C127.002 24.4197 127.762 24.9525 129.509 24.9525C130.725 24.9525 132.016 24.8002 132.7 24.4959L133.308 26.7027C132.244 27.0832 130.877 27.3118 129.433 27.3118C125.863 27.3118 123.508 25.9417 123.508 22.3651C123.508 18.7886 125.559 17.4187 128.522 17.4187C131.484 17.4187 133.46 18.7886 133.46 22.0609C133.46 22.289 133.46 22.7456 133.308 23.1261Z" fill="#211D1D"></path>
  <path d="M141.056 26.1702C142.272 26.1702 143.487 25.7136 143.943 25.3331L144.171 26.2462C143.487 26.6266 142.5 27.0833 140.98 27.0833C137.486 27.0833 135.055 24.6483 135.055 20.9952C135.055 17.3424 137.486 14.9833 140.98 14.9833C142.424 14.9833 143.564 15.364 144.247 15.8205L144.019 16.8099C143.335 16.4293 142.196 16.0488 141.056 16.0488C138.17 16.0488 136.346 18.1034 136.346 21.0713C136.346 24.1153 138.245 26.1702 141.056 26.1702Z" fill="#211D1D"></path>
  <path d="M148.121 16.277V21.0712H151.312C153.515 21.0712 154.351 20.1582 154.351 18.7122C154.351 17.2664 153.591 16.3532 151.312 16.3532H148.121V16.277ZM151.464 15.2116C154.427 15.2116 155.566 16.6575 155.566 18.6361C155.566 20.2341 154.807 21.4518 152.832 21.8323L156.25 27.0068H154.958L151.692 21.9846H148.121V27.0068H146.906V15.2116H151.464Z" fill="#211D1D"></path>
  <path d="M158.605 15.2116H159.897L164.303 23.202L168.709 15.2116H170V27.0068H168.785V17.1902L164.759 24.4196H163.771L159.745 17.1902V27.0068H158.529V15.2116H158.605Z" fill="#211D1D"></path>
</svg>
