<svg width="250" height="250" viewBox="0 0 250 250" fill="none" xmlns="http://www.w3.org/2000/svg">
<g clip-path="url(#clip0_3005_6146)">
<path d="M221.561 104.436C228.109 97.9079 235.373 99.8295 235.373 106.161C235.373 112.344 227.936 119.021 218.966 124.194C218.102 124.687 217.064 125.254 216.026 125.771C215.68 124.219 215.482 122.494 215.482 120.573C215.482 115.276 217.731 108.255 221.561 104.436ZM186.623 171.101C177.926 179.773 166.807 168.711 179.779 155.777C182.719 152.846 187.537 149.618 192.553 146.687C195.419 153.757 193.146 164.572 186.623 171.101ZM131.202 136.364C124.531 136.364 120.207 128.382 121.541 118.528C122.851 108.674 129.324 100.692 135.995 100.692C142.173 100.692 146.324 107.54 145.854 116.385C145.681 117.666 145.533 118.898 145.409 120.08C143.655 129.195 137.503 136.364 131.202 136.364ZM43.0917 133.088C40.9174 135.256 38.2488 136.414 35.5556 136.414C33.0354 136.414 30.861 135.28 29.0573 133.482C22.8802 127.323 23.4238 112.221 31.3552 104.289C33.6037 102.047 36.3216 100.741 39.1136 100.741C41.6092 100.741 43.8082 101.85 45.612 103.648C51.4184 109.437 51.7644 124.441 43.0917 133.088ZM249.654 136.315C249.654 136.315 247.183 132.866 246.417 131.881C245.899 131.24 245.256 130.452 243.551 131.61C239.796 134.123 235.57 136.414 230.357 136.414C226.379 136.414 222.895 135.404 220.301 133.211C221.388 132.718 222.524 132.176 223.686 131.56C229.838 128.235 234.977 124.022 237.448 121.558C249.432 109.61 245.676 91.7982 231.074 91.7982C217.286 91.7982 206.39 105.2 206.39 120.08C206.39 122.322 206.662 125.525 207.625 128.924C206.81 129.319 201.349 131.955 194.802 135.551C188.649 130.945 179.038 133.014 179.038 133.014C187.957 120.4 201.374 100.692 202.511 99.0658C203.326 97.9079 203.202 96.75 202.412 94.927C201.399 92.7344 200.386 92.3402 199.002 92.3402H171.131C170.217 92.3402 169.5 92.759 169.228 93.7937C168.981 94.8038 168.388 98.3267 168.289 99.5338C168.166 100.741 169.302 101.48 170.488 101.48H190.675L172.416 127.52C172.292 127.619 172.169 127.742 172.07 127.914C169.426 131.733 165.349 137.079 160.457 137.079C157.418 137.079 153.662 134.911 153.662 127.816C153.662 120.868 156.479 106.186 158.53 94.7545C158.752 93.5227 158.332 92.3156 156.355 92.3156H151.413C150.277 92.3156 149.634 93.0054 149.462 93.9662C149.165 95.7153 148.869 97.4398 148.572 99.0904C146.126 94.4342 142.222 91.7982 136.564 91.7982C131.326 91.7982 126.211 93.7444 122.035 97.8832C111.608 108.28 113.585 125.229 104.591 134.196C100.712 138.064 96.3137 136.882 96.3137 129.269C96.3137 120.573 99.6493 110.891 103.479 101.702C104.146 100.076 103.43 98.7209 102.713 97.6615C101.7 96.1834 101.305 95.395 99.4764 95.395C96.6349 95.395 92.0885 97.1934 82.9958 97.1934C81.0686 97.1934 79.2154 97.1195 77.56 96.9964C77.6588 95.6414 77.6835 94.7299 77.7082 94.385C77.7576 93.1039 77.3129 92.2909 75.9539 92.2909H71.3087C69.6286 92.2909 69.2085 93.0793 69.0109 94.385C68.2202 99.928 66.713 120.277 56.4837 130.476C55.2977 131.659 54.5811 132.028 54.5811 132.028C57.1261 127.052 58.5098 120.524 58.5098 115.35C58.5098 100.79 49.8618 91.7736 39.0148 91.7736C35.7039 91.7736 32.1953 92.8329 28.9091 94.8777C30.441 86.0088 31.8494 77.7065 32.3435 74.898C32.7636 72.533 31.8988 71.3012 31.2811 70.3158C30.2433 68.7144 29.3291 68 27.9454 68H11.9344C11.0201 68 10.3283 68.6405 10.1059 69.6506C9.83414 70.8331 9.26585 73.9372 9.19172 75.3661C9.1423 76.6225 10.0071 77.0906 11.0201 77.0906H22.7319C20.8541 88.5463 17.2961 110.743 16.2089 116.311C14.85 123.406 9.78472 132.102 1.26031 135.182C0.197847 135.576 -0.246904 136.537 0.148431 137.67C0.543766 138.803 2.00156 141.76 2.44632 142.523C2.89107 143.312 3.87941 143.829 4.81833 143.509C9.24114 141.957 13.2933 139.444 16.5054 136.266C17.2961 135.478 18.062 134.591 18.8033 133.63C22.6331 142.203 30.4163 145.332 38.3971 145.332C47.4157 145.332 57.1508 142.203 63.9703 135.379C71.9512 127.446 75.2868 114.291 76.6952 104.978C78.6719 105.249 80.9203 105.471 83.07 105.471C88.5552 105.471 93.151 104.313 93.151 104.313C93.151 104.313 87.6163 118.947 87.6163 129.737C87.6163 141.907 93.4475 145.356 99.9211 145.356C106.568 145.356 111.238 140.38 114.573 134.221C115.438 136.143 116.723 138.434 118.477 140.183C121.492 143.189 125.223 145.356 130.609 145.356C136.761 145.356 142.049 141.809 145.805 136.364C146.472 138.656 147.51 140.577 148.918 141.981C150.821 143.878 154.304 145.356 158.678 145.356C166.189 145.356 170.538 139.74 182.225 139.74C183.707 139.74 185.042 139.961 186.252 140.38C180.891 143.632 175.801 147.13 172.687 150.234C163.051 159.842 162.606 172.481 168.932 178.787C176.591 186.424 187.513 182.606 194.332 175.806C202.313 167.849 204.635 152.796 200.015 142.499C205.599 139.567 210.269 137.399 211.381 136.882C214.865 141.636 220.647 145.356 230.184 145.356C237.004 145.356 243.872 142.942 249.234 138.902C250.074 138.335 250.247 137.153 249.654 136.315Z" fill="#212123"/>
</g>
<defs>
<clipPath id="clip0_3005_6146">
<rect width="250" height="115" fill="white" transform="translate(0 68)"/>
</clipPath>
</defs>
</svg>
