<svg width="250" height="250" viewBox="0 0 20 22" fill="none" xmlns="http://www.w3.org/2000/svg">
<path d="M17.7645 2.95931C19.2548 4.52276 20 6.84127 20 9.91483V21.9494H14.3281V10.8523C14.3281 9.18537 13.9885 7.94133 13.3093 7.12015C12.63 6.29896 11.6473 5.88891 10.3611 5.88997C8.93145 5.88997 7.79225 6.36509 6.94348 7.31531C6.09471 8.26554 5.67033 9.67861 5.67033 11.5545V21.9526H0V2.68577L5.41915 0.0478516V3.38964C6.18304 2.49399 7.14146 1.79232 8.21821 1.34041C9.38184 0.847619 10.6316 0.60107 11.8917 0.615747C14.3155 0.61468 16.2732 1.39587 17.7645 2.95931Z" fill="white"/>
</svg>
