<svg xmlns="http://www.w3.org/2000/svg" width="250" height="250" viewBox="0 0 250 250" style="display:block; margin:auto; transform:scale(0.8);">
  <g fill="#353337" fill-rule="evenodd" transform="translate(30, 110)">
    <path d="M16.64 18.45c-1.427 0-2.18-.75-2.18-2.168V12.64a.882.882 0 0 0-.257-.7.892.892 0 0 0-.705-.256H8.542a.89.89 0 0 0-.961.956v3.643c0 1.417-.755 2.168-2.183 2.168H2.181C.755 18.45 0 17.7 0 16.282V2.684C0 1.264.755.514 2.18.514h3.218c1.428 0 2.183.75 2.183 2.17V5.14a.875.875 0 0 0 .257.7.889.889 0 0 0 .704.255h4.956a.886.886 0 0 0 .962-.955V2.684c0-1.42.753-2.17 2.18-2.17h3.218c1.428 0 2.182.75 2.182 2.17v13.598c0 1.417-.754 2.168-2.182 2.168H16.64zm8.987-4.41V2.684c0-1.42.755-2.17 2.182-2.17h2.958c1.428 0 2.183.75 2.183 2.17v8.893c0 1.219.906 1.36 1.59 1.36.69 0 1.38-.05 2.062-.148a.921.921 0 0 0 .659-.306.911.911 0 0 0 .23-.685V2.684c0-1.42.755-2.17 2.182-2.17h2.996c1.428 0 2.18.75 2.18 2.17v13.598c0 1.417-.752 2.168-2.18 2.168H41.04c-1.046 0-1.716-.272-2.107-.857l-.076-.11a.86.86 0 0 0-.666-.408.921.921 0 0 0-.475.152 16.657 16.657 0 0 1-6.839 1.518c-3.484 0-5.251-1.584-5.251-4.705zm46.67 4.41c-1.428 0-2.183-.75-2.183-2.168V7.386c0-.937-.418-1.324-1.441-1.324h-.535a6.009 6.009 0 0 0-1.02.084.993.993 0 0 0-.812 1.062v9.074c0 1.417-.755 2.168-2.183 2.168h-2.665c-1.427 0-2.18-.75-2.18-2.168V7.386c0-.913-.457-1.324-1.481-1.324-.479-.008-.957.017-1.432.075a.984.984 0 0 0-.889 1.064v9.081c0 1.417-.754 2.168-2.18 2.168h-2.929c-1.428 0-2.183-.75-2.183-2.168V2.684c0-1.42.755-2.17 2.183-2.17h1.517c.919 0 1.554.22 1.967.687l.14.207c.158.247.369.505.713.505a.985.985 0 0 0 .466-.139A12.072 12.072 0 0 1 61.314.01c1.777 0 3.084.48 3.897 1.43.177.23.447.37.737.382.212-.01.416-.08.589-.201C68.169.53 70.047 0 72.297 0c3.386 0 5.107 1.657 5.107 4.926v11.356c0 1.417-.755 2.168-2.183 2.168h-2.924zm13.636.514c-1.708 0-3.247-.442-4.335-1.27a4.48 4.48 0 0 1-1.803-3.727v-1.83c0-2.789 2.252-4.521 5.88-4.521h5.287c.666 0 .666-.525.666-.697v-.331c-.046-1.19-.801-1.397-2.367-1.397-1.565 0-3.533.037-5.995.11h-.089c-1.292 0-2.045-.753-2.236-2.236a2.254 2.254 0 0 1 .402-1.686c.37-.47.917-.767 1.514-.823C85.6.226 88.357.04 91.12 0c5.593 0 7.876 2.108 7.876 7.283v8.962a2.127 2.127 0 0 1-.627 1.584 2.156 2.156 0 0 1-1.594.623h-1.998c-.749 0-1.441-.342-1.688-.834l-.149-.256c-.13-.294-.313-.356-.444-.356a.559.559 0 0 0-.337.135c-1.588 1.21-3.682 1.823-6.226 1.823zm2.598-8.086c-.989 0-1.628.534-1.628 1.361v.587c0 .663.466 1.362 1.776 1.362a15.645 15.645 0 0 0 2.247-.187.84.84 0 0 0 .749-.883v-1.421c0-.53-.282-.81-.815-.81l-2.33-.01zm27.919 7.572c-1.427 0-2.18-.75-2.18-2.168V7.386c0-.926-.466-1.324-1.554-1.324-.788-.008-1.575.03-2.358.117-.602.093-.888.442-.888 1.029v9.074c0 1.417-.755 2.168-2.183 2.168h-2.964c-1.428 0-2.183-.75-2.183-2.168V2.684c0-1.42.755-2.17 2.183-2.17h1.594a2.437 2.437 0 0 1 1.97.883l.108.143c.14.278.417.461.729.484.195-.009.384-.065.553-.164C111.704.64 114.022 0 115.97 0c3.728 0 5.62 2.152 5.62 6.4v9.887c0 1.417-.755 2.167-2.182 2.167l-2.958-.004z"></path>
    <rect width="7.285" height="17.935" x="124.958" y="0.514" rx="2.169"></rect>
    <path d="M143.019 18.45c-1.428 0-2.183-.709-2.183-2.053V7.755h-3.648c-1.53 0-2.34-.75-2.34-2.17v-2.9c0-1.42.81-2.17 2.34-2.17h14.582c1.532 0 2.34.75 2.34 2.17v2.902c0 1.419-.808 2.169-2.34 2.169h-3.648v8.642c0 1.344-.755 2.053-2.183 2.053h-2.92zm39.005.046c-.6 0-1.195-.267-1.776-.792l-3.411-3.119-3.417 3.119c-.578.525-1.173.792-1.777.792-.604 0-1.194-.267-1.776-.792l-2.336-2.132c-.569-.519-.86-1.055-.86-1.59 0-.533.291-1.07.86-1.59l3.46-3.145-3.447-3.143c-.568-.52-.86-1.055-.86-1.59 0-.537.292-1.071.86-1.592l2.336-2.13c.575-.525 1.17-.792 1.763-.792s1.195.267 1.777.792l3.415 3.119 3.42-3.119c.574-.525 1.17-.792 1.776-.792.606 0 1.196.267 1.776.792l2.334 2.13c.57.52.859 1.055.859 1.591s-.289 1.07-.86 1.591l-3.454 3.143 3.444 3.145c.57.52.859 1.055.859 1.59 0 .537-.289 1.071-.86 1.59l-2.333 2.132c-.575.525-1.173.792-1.772.792z"></path>
    <rect width="7.285" height="17.935" x="156.653" y="0.514" rx="2.169"></rect>
    <path d="M163.29 32c-1.103 0-2.205-.068-3.3-.203a2.42 2.42 0 0 1-2.069-2.907l.337-1.575a2.457 2.457 0 0 1 2.669-1.929c.784.091 1.573.137 2.363.137 4.41 0 8.633-1.479 10.765-3.767a2.453 2.453 0 0 1 2.98-.468l1.463.816a2.417 2.417 0 0 1 .666 3.701C175.782 29.676 169.854 32 163.29 32z"></path>
  </g>
</svg>
