<svg width="125" height="125" viewBox="0 0 125 125" fill="none" xmlns="http://www.w3.org/2000/svg">
<path d="M125 0H0V125H125V0Z" fill="#FF005B"/>
<path d="M92.37 65.2403C90.1188 65.2403 88.2231 67.1361 88.2231 69.3873C88.2231 71.6385 90.0003 73.4157 92.37 73.4157C94.6212 73.4157 96.3984 71.6385 96.3984 69.3873C96.5169 67.1361 94.6212 65.2403 92.37 65.2403ZM92.37 77.9181C87.6307 77.9181 83.7207 74.1266 83.7207 69.3873C83.7207 64.6479 87.6307 60.8564 92.37 60.8564C97.1094 60.8564 100.901 64.6479 100.901 69.3873C101.019 74.1266 97.1094 77.9181 92.37 77.9181Z" fill="#F6FAFF"/>
<path d="M61.4936 100.119H56.9912V84.7161H61.4936V100.119Z" fill="#F6FAFF"/>
<path d="M68.0107 100.119H63.5083V84.7161H68.0107V100.119Z" fill="#F6FAFF"/>
<path d="M82.1901 32.3363L86.574 27.9524L83.3749 24.7534L78.991 29.1373L75.792 32.3363L81.4792 38.0235L77.0953 42.4074L80.2943 45.6065L87.8773 38.0235L82.1901 32.3363Z" fill="#F6FAFF"/>
<path d="M32.2863 69.348L34.419 73.0209H30.1536L32.2863 69.348ZM32.2863 60.8171L22.8076 77.1679H41.765L32.2863 60.8171Z" fill="#F6FAFF"/>
<path d="M52.0485 29.6119L48.8495 26.4128L43.3993 31.8631L37.949 26.4128L34.75 29.6119L40.2002 35.0621L34.75 40.5124L37.949 43.7114L43.3993 38.2612L48.8495 43.7114L52.0485 40.5124L46.5983 35.0621L52.0485 29.6119Z" fill="#F6FAFF"/>
<path d="M14.4544 162.204L9.00412 171.327H0.591797L9.95199 156.043L1.53966 142.417H9.59654L14.3359 150.474L19.0752 142.417H27.2506L18.7198 156.043L28.08 171.327H19.9046L14.4544 162.204Z" fill="black"/>
<path d="M27.2505 163.507H34.8334C35.3074 165.522 36.7292 166.351 39.0988 166.351C41.35 166.351 42.4164 165.64 42.4164 164.337C42.4164 162.678 39.9282 162.56 36.9661 162.204C32.9377 161.73 28.1984 160.782 28.1984 155.214C28.1984 150.711 31.7529 147.512 38.3879 147.512C45.3785 147.512 48.5775 150.711 49.2884 155.332H42.0609C41.7055 153.673 40.5206 152.844 38.2694 152.844C36.0183 152.844 35.1889 153.673 35.1889 154.858C35.1889 156.28 37.2031 156.517 40.6391 156.991C44.6675 157.465 49.5254 158.531 49.5254 163.981C49.5254 168.602 45.9709 172.157 38.7434 172.157C31.7529 171.92 27.9614 168.839 27.2505 163.507Z" fill="black"/>
<path d="M51.6577 160.19V159.479C51.6577 151.541 56.5155 147.512 63.5061 147.512C70.4966 147.512 75.2359 151.659 75.2359 159.479V160.19C75.2359 168.01 70.6151 171.92 63.3876 171.92C55.9231 171.92 51.6577 167.891 51.6577 160.19ZM68.0084 160.071V159.479C68.0084 155.688 66.3497 153.673 63.6245 153.673C60.8994 153.673 59.1222 155.569 59.1222 159.479V160.071C59.1222 163.626 60.8994 165.522 63.6245 165.522C66.2312 165.522 68.0084 163.744 68.0084 160.071Z" fill="black"/>
<path d="M78.4351 171.209V140.166H85.8995V171.209H78.4351Z" fill="black"/>
<path d="M89.9277 171.209V140.166H97.3922V171.209H89.9277Z" fill="black"/>
<path d="M115.758 167.299C114.454 169.905 111.848 171.801 107.582 171.801C102.488 171.801 99.9995 169.431 99.9995 165.521C99.9995 162.678 101.184 160.9 103.08 159.716C104.976 158.531 106.635 158.175 110.426 157.583C113.981 157.109 115.402 156.753 115.402 155.213C115.402 153.91 114.573 152.962 112.085 152.962C109.478 152.962 108.293 154.147 108.175 156.398H100.71C101.066 150.948 104.739 147.393 112.085 147.393C119.786 147.393 122.63 150.948 122.63 156.28V171.208H116.587L115.758 167.299ZM115.402 161.848V160.426C114.691 160.9 113.625 161.256 112.203 161.493C110.189 161.848 109.478 162.085 108.649 162.559C108.056 163.033 107.701 163.626 107.701 164.455C107.701 165.877 108.649 166.469 110.426 166.469C113.507 166.469 115.402 164.218 115.402 161.848Z" fill="black"/>
</svg>
