<?xml version="1.0" encoding="utf-8"?>
<svg xmlns="http://www.w3.org/2000/svg" viewBox="230.2945 147.9987 81.1651 81.3335" width="250" height="250">
  <g transform="matrix(1, 0, 0, 1, 230.29589843749997, 148.00238037109375)">
    <path d="m9.29 46.58c-4.21-.84-8.3 1.9-9.14 6.1-.84 4.21 1.9 8.3 6.1 9.14 4.21.84 8.3-1.9 9.14-6.1.84-4.21-1.9-8.3-6.1-9.14Z" fill="#e89c2e"/>
    <path d="m55.01 55.68c-7.01-1.4-13.83 3.16-15.23 10.17-1.39 7.01 3.16 13.83 10.17 15.23 7.01 1.39 13.83-3.16 15.23-10.17 1.4-7.01-3.16-13.83-10.17-15.23Z" fill="#e89c2e"/>
    <path d="m68.67.3c-8.42-1.68-16.6 3.78-18.29 12.2l-1.5 7.62c-1.11 5.62-6.58 9.27-12.2 8.16l-5.08-1.04c-5.59-1.11-9.25-6.55-8.13-12.17l.26-1.27c.96-4.9-2.23-9.69-7.12-10.65-4.92-.98-9.69 2.2-10.67 7.12-.98 4.9 2.23 9.66 7.12 10.65l1.27.26c5.62 1.11 9.27 6.58 8.13 12.17l-.49 2.54c-1.11 5.62 2.54 11.09 8.13 12.2 5.62 1.11 11.09-2.54 12.2-8.16l.49-2.54c1.11-5.6 6.58-9.25 12.17-8.13l7.64 1.53c8.42 1.66 16.6-3.81 18.26-12.23 1.68-8.42-3.78-16.6-12.2-18.26Z" fill="#e89c2e"/>
  </g>
</svg>
