<svg height="600" viewBox="0 0 600 600" width="600" xmlns="http://www.w3.org/2000/svg" xmlns:xlink="http://www.w3.org/1999/xlink"><linearGradient id="a" gradientUnits="userSpaceOnUse" x1="446.349757" x2="111.78597" y1="610.887571" y2="-88.681184"><stop offset=".00001" stop-color="#2589ff"/><stop offset="1" stop-color="#78daff"/></linearGradient><path d="m295.449036 509.319946c125.68927 0 227.578247-98.745422 227.578247-220.555298 0-121.8078-101.888977-220.552978-227.578247-220.552978-125.689545 0-227.580628 98.745178-227.580628 220.552978 0 121.809876 101.891083 220.555298 227.580628 220.555298z" fill="#fff"/><path d="m66.465698 408.981812c-.715118-1.173584-1.460022-2.349549-2.235687-3.527802l.772156.705566c-17.685944-34.628204-27.64502-73.752838-27.64502-115.168823 0-141.637207 116.473267-256.457001 260.150299-256.457001 143.677552 0 260.150269 114.819794 260.150269 256.457001 0 141.637665-116.472717 256.457245-260.150269 256.457245-36.456085 0-71.161102-7.393249-102.654815-20.740601-234.419938 75.832276-73.231476-7.211547-123.673218-109.175109-1.624176-2.817566-3.195984-5.667694-4.713715-8.550476zm154.136048-203.790314c-12.932892 0-23.418213 10.444366-23.418213 23.328338 0 12.883973 10.485321 23.329987 23.418213 23.329987h125.337707c12.932861 0 23.418396-10.446014 23.418396-23.329987 0-12.883972-10.485535-23.328338-23.418396-23.328338zm0 135.255798c-12.932892 0-23.418213 10.445954-23.418213 23.329926 0 12.884002 10.485321 23.327636 23.418213 23.327636h125.337707c12.932861 0 23.418396-10.443634 23.418396-23.327636 0-12.883972-10.485535-23.329926-23.418396-23.329926zm25.851806-67.628723c-12.932892 0-23.418457 10.445984-23.418457 23.329987 0 12.883972 10.485565 23.329956 23.418457 23.329956h125.337647c12.935241 0 23.418518-10.445984 23.418518-23.329956 0-12.884003-10.483277-23.329987-23.418518-23.329987z" fill="url(#a)" fill-rule="evenodd"/><path d="m562.606018 115.444397c0-44.68573-36.362976-80.910645-81.218262-80.910645-44.857544 0-81.220581 36.224915-81.220581 80.910645 0 44.68576 36.363037 80.910889 81.220581 80.910889 44.855286 0 81.218262-36.225129 81.218262-80.910889z" fill="#ff2e2e"/><path d="m462.833679 99.05127 20.589295-17.695984h7.036926v62.475586h13.601135v6.524414h-37.11969v-6.524414h14.877197v-46.985718c0-1.408325.04657-2.83197.142029-4.271485l-12.374023 10.514405c-.314331.250305-.638001.437988-.968689.563049-.330628.125305-.638001.187927-.919739.187927-.472717 0-.905823-.10968-1.299377-.328552-.393555-.219116-.684571-.469482-.87323-.750977z" fill="#fff"/></svg>