<svg version="1.1" xmlns="http://www.w3.org/2000/svg" width="512" height="512">
<path d="M0 0 C4.94569899 1.65630608 7.61988453 4.03382191 10.07376432 8.58135736 C12.23279885 13.00833641 12.56345988 16.70525885 12.50336456 21.57328224 C12.50917833 22.4029534 12.51499209 23.23262456 12.52098203 24.08743727 C12.53555649 26.86194473 12.52170884 29.63556399 12.50793457 32.4100647 C12.51254447 34.42147535 12.51889799 36.43288264 12.52684355 38.44428289 C12.54354729 43.9672826 12.53528564 49.49000596 12.52289867 55.01300669 C12.51385498 60.97079246 12.52781447 66.92853045 12.53881836 72.88630676 C12.55558621 83.88096932 12.55412048 94.87554971 12.54317249 105.87021546 C12.53310929 116.02616113 12.53048392 126.18207451 12.53526306 136.33802414 C12.5355686 137.01175436 12.53587414 137.68548457 12.53618894 138.37963086 C12.53743429 141.11451625 12.5387079 143.84940162 12.540028 146.58428698 C12.55226234 172.23606744 12.54117228 197.88779178 12.51964041 223.53956358 C12.50065383 246.33239536 12.5023603 269.12513775 12.52148438 291.91796875 C12.54289863 317.52592063 12.551399 343.13382295 12.53903532 368.74178255 C12.53775244 371.47105748 12.53650108 374.20033243 12.53526306 376.92960739 C12.53494675 377.60162513 12.53463044 378.27364288 12.53430455 378.96602479 C12.52975332 389.11727256 12.53507815 399.26848452 12.54518127 409.41972733 C12.55660936 420.95978424 12.55339222 432.4997407 12.5320583 444.03978564 C12.52152861 449.93012058 12.51745889 455.82027384 12.53065491 461.71060753 C12.54254448 467.09916131 12.5360729 472.48736443 12.5147447 477.87588625 C12.51026412 479.8286311 12.51257737 481.78140537 12.52224785 483.73413141 C12.5343614 486.38264583 12.52198833 489.02994945 12.50336456 491.67840004 C12.51272923 492.44166741 12.52209389 493.20493478 12.53174233 493.99133146 C12.4479415 499.92871239 10.49692586 503.48515362 6.3671875 507.64453125 C1.69421496 511.30217206 -0.36845874 512.12714677 -6.28222656 512.17700195 C-7.24844185 512.18685875 -7.24844185 512.18685875 -8.23417664 512.19691467 C-10.3696606 512.21665227 -12.50507414 512.22831263 -14.640625 512.23828125 C-15.37048363 512.24235678 -16.10034225 512.2464323 -16.85231781 512.25063133 C-20.71713478 512.27149639 -24.58191622 512.28579485 -28.44677734 512.29516602 C-32.43266769 512.30621737 -36.41799774 512.34060053 -40.40369034 512.38033772 C-43.47327691 512.40652856 -46.54273066 512.41486011 -49.61241913 512.41844749 C-51.08119226 512.42330898 -52.54995963 512.43491062 -54.01862335 512.45348549 C-56.07959351 512.47792628 -58.13912355 512.4769039 -60.20019531 512.4699707 C-61.37108704 512.47583694 -62.54197876 512.48170319 -63.74835205 512.48774719 C-70.60458932 511.4593116 -74.2856776 506.83889887 -78.20117188 501.578125 C-81.39839826 496.99578099 -84.33372024 492.2644429 -87.25 487.5 C-88.57577268 485.35612101 -89.90260068 483.21289429 -91.23046875 481.0703125 C-91.87419434 480.03036133 -92.51791992 478.99041016 -93.18115234 477.91894531 C-95.59721038 474.04157754 -98.06799487 470.20221802 -100.5625 466.375 C-106.51078683 457.23700393 -112.355888 448.03438007 -118.20166016 438.83056641 C-121.1317377 434.21865776 -124.06604578 429.60944299 -127 425 C-128.16668774 423.16668008 -129.33335439 421.33334673 -130.5 419.5 C-131.0775 418.5925 -131.655 417.685 -132.25 416.75 C-165.5 364.50000001 -165.5 364.50000001 -167.24951172 361.75073242 C-168.41776388 359.91493088 -169.58605824 358.0791562 -170.75439453 356.2434082 C-173.64714755 351.69805624 -176.5391977 347.15226033 -179.4296875 342.60546875 C-184.93095859 333.95346967 -190.43978618 325.30645538 -195.96875 316.67211914 C-197.98279941 313.52686144 -199.99531326 310.38062473 -202.0078125 307.234375 C-204.683218 303.052825 -207.36658305 298.87652106 -210.0546875 294.703125 C-211.32822108 292.71881166 -212.60166258 290.73443922 -213.875 288.75 C-214.46410156 287.83927734 -215.05320313 286.92855469 -215.66015625 285.99023438 C-216.20285156 285.14267578 -216.74554688 284.29511719 -217.3046875 283.421875 C-217.77890137 282.68549805 -218.25311523 281.94912109 -218.74169922 281.19042969 C-221.12761065 277.03707359 -222.30563823 273.48039799 -222.375 268.6875 C-222.40335938 267.80449219 -222.43171875 266.92148437 -222.4609375 266.01171875 C-221.33198734 258.63527322 -216.77422351 253.10104038 -212.0625 247.5625 C-210.89497247 246.159349 -209.72967485 244.75434009 -208.56640625 243.34765625 C-207.97359863 242.63109863 -207.38079102 241.91454102 -206.77001953 241.17626953 C-203.92807102 237.68204484 -201.21481132 234.09331484 -198.5 230.5 C-193.70108923 224.16708834 -188.77060859 217.96201273 -183.73876953 211.81298828 C-178.85755671 205.84476408 -174.08815899 199.79422404 -169.34277344 193.71777344 C-167.06766067 190.80728372 -164.7833163 187.90405504 -162.5 185 C-161.58329022 183.83336721 -160.66662352 182.66670056 -159.75 181.5 C-157.91666667 179.16666667 -156.08333333 176.83333333 -154.25 174.5 C-153.79633057 173.92258057 -153.34266113 173.34516113 -152.87524414 172.75024414 C-151.95784991 171.5826959 -151.04036933 170.41521551 -150.12280273 169.24780273 C-147.84155755 166.3451721 -145.56178786 163.44140726 -143.28515625 160.53515625 C-138.05509493 153.86231939 -132.786497 147.22245764 -127.48291016 140.60791016 C-122.73497767 134.6810536 -118.04193285 128.71206408 -113.35888672 122.73388672 C-110.6171488 119.23553554 -107.86925044 115.7420205 -105.12255859 112.24755859 C-102.84143761 109.34497577 -100.56171737 106.44131727 -98.28515625 103.53515625 C-93.05509493 96.86231939 -87.786497 90.22245764 -82.48291016 83.60791016 C-77.73497767 77.6810536 -73.04193285 71.71206408 -68.35888672 65.73388672 C-65.6171488 62.23553554 -62.86925044 58.7420205 -60.12255859 55.24755859 C-57.84143761 52.34497577 -55.56171737 49.44131727 -53.28515625 46.53515625 C-48.05909827 39.8674271 -42.80263356 33.22590166 -37.49169922 26.62548828 C-34.97503474 23.49253117 -32.48507356 20.34386897 -30.04296875 17.15234375 C-21.19869979 5.62173841 -15.46205466 -1.5552476 0 0 Z " fill="#5656F5" transform="translate(449,0)"/>
<path d="M0 0 C5.36735514 3.61984417 8.95198485 7.50381763 10.6875 13.8125 C11.12302912 17.98348119 11.10769741 22.1312859 11.09155273 26.32202148 C11.09841599 27.56840393 11.10527924 28.81478638 11.11235046 30.09893799 C11.12747259 33.50203035 11.12912449 36.90457296 11.12340808 40.30765796 C11.12030791 43.15546 11.12641785 46.00321296 11.13244683 48.851008 C11.14647172 55.57267029 11.14494781 62.29420542 11.13354492 69.01586914 C11.12206552 75.93526379 11.1361407 82.85427077 11.1629414 89.77361435 C11.18513862 95.72884827 11.19172676 101.68396085 11.18586498 107.63923317 C11.18250378 111.18969739 11.18485426 114.73991316 11.20211601 118.29034233 C11.22053627 122.25157598 11.20635662 126.21233723 11.18920898 130.17358398 C11.20371094 131.92331261 11.20371094 131.92331261 11.21850586 133.70838928 C11.15281374 140.96492989 10.3804182 146.9470028 5.20484066 152.36444759 C1.38096366 155.71806554 -1.65398592 156.93193507 -6.65032959 156.95967102 C-7.97919189 156.97040398 -7.97919189 156.97040398 -9.3348999 156.98135376 C-10.30429504 156.98404266 -11.27369019 156.98673157 -12.27246094 156.98950195 C-13.29553345 156.99607315 -14.31860596 157.00264435 -15.37268066 157.00941467 C-18.7640795 157.0291524 -22.15543404 157.04081134 -25.546875 157.05078125 C-26.70483833 157.05485678 -27.86280167 157.0589323 -29.0558548 157.06313133 C-35.18469566 157.08399403 -41.31351412 157.09829494 -47.44238281 157.10766602 C-53.77206892 157.11873119 -60.10140357 157.1531322 -66.43096542 157.19283772 C-71.29861097 157.21898503 -76.16617254 157.2273562 -81.03388214 157.23094749 C-83.36705143 157.23581824 -85.70021685 157.24744602 -88.03331757 157.26598549 C-91.30081523 157.29033608 -94.56740029 157.28941895 -97.83496094 157.2824707 C-99.27690826 157.30168579 -99.27690826 157.30168579 -100.74798584 157.32128906 C-107.3882383 157.26989657 -111.79839755 156.12959458 -116.77083969 151.43591785 C-121.00924119 146.74600306 -122.55561565 142.35560054 -122.4375 136.125 C-121.54819126 129.34402084 -117.53186634 124.96649323 -113.3125 119.8125 C-112.44606883 118.70949833 -111.58288951 117.60393598 -110.72265625 116.49609375 C-108.40863208 113.51972057 -106.07312799 110.56108378 -103.73144531 107.60644531 C-102.34479544 105.85333051 -100.96413714 104.09570071 -99.5859375 102.3359375 C-95.39627101 96.98646252 -91.19078905 91.65181905 -86.93164062 86.35742188 C-82.16013294 80.42578291 -77.47722522 74.43905981 -72.875 68.375 C-68.05237865 62.0242051 -63.10137441 55.7969471 -58.05151367 49.62573242 C-53.17479752 43.66317053 -48.40952748 37.61850191 -43.66845703 31.54785156 C-40.41478145 27.38380295 -37.15026742 23.22828899 -33.87890625 19.078125 C-32.26925027 17.03544468 -30.67523434 14.98371865 -29.08984375 12.921875 C-21.25576566 2.83870705 -13.54518793 -4.85582209 0 0 Z " fill="#5656F5" transform="translate(172.3125,355.1875)"/>
</svg>
