<svg xmlns="http://www.w3.org/2000/svg" xmlns:xlink="http://www.w3.org/1999/xlink" width="250px" height="250px" viewBox="0 0 250 250" version="1.1">
<g id="surface1">
<path style=" stroke:none;fill-rule:nonzero;fill:rgb(33.72549%,33.72549%,96.078431%);fill-opacity:1;" d="M 219.238281 0 C 221.652344 0.808594 222.957031 1.96875 224.15625 4.191406 C 225.210938 6.351562 225.371094 8.15625 225.34375 10.535156 C 225.347656 10.9375 225.347656 11.34375 225.351562 11.761719 C 225.359375 13.117188 225.351562 14.46875 225.34375 15.824219 C 225.347656 16.808594 225.351562 17.789062 225.355469 18.773438 C 225.363281 21.46875 225.359375 24.164062 225.351562 26.863281 C 225.347656 29.769531 225.355469 32.679688 225.359375 35.589844 C 225.367188 40.957031 225.367188 46.324219 225.363281 51.695312 C 225.359375 56.652344 225.355469 61.613281 225.359375 66.570312 C 225.359375 66.898438 225.359375 67.230469 225.359375 67.566406 C 225.359375 68.902344 225.359375 70.238281 225.363281 71.574219 C 225.367188 84.101562 225.363281 96.625 225.351562 109.148438 C 225.34375 120.28125 225.34375 131.410156 225.351562 142.539062 C 225.363281 155.042969 225.367188 167.546875 225.359375 180.050781 C 225.359375 181.382812 225.359375 182.714844 225.359375 184.046875 C 225.359375 184.375 225.359375 184.703125 225.359375 185.042969 C 225.355469 190 225.359375 194.957031 225.363281 199.910156 C 225.371094 205.546875 225.367188 211.179688 225.359375 216.816406 C 225.351562 219.691406 225.351562 222.570312 225.355469 225.445312 C 225.363281 228.074219 225.359375 230.707031 225.347656 233.335938 C 225.347656 234.292969 225.347656 235.246094 225.351562 236.199219 C 225.359375 237.492188 225.351562 238.785156 225.34375 240.078125 C 225.347656 240.449219 225.351562 240.824219 225.355469 241.207031 C 225.316406 244.105469 224.363281 245.84375 222.347656 247.875 C 220.066406 249.660156 219.058594 250.0625 216.171875 250.085938 C 215.699219 250.089844 215.699219 250.089844 215.21875 250.097656 C 214.175781 250.105469 213.132812 250.113281 212.089844 250.117188 C 211.734375 250.117188 211.375 250.121094 211.007812 250.121094 C 209.121094 250.132812 207.234375 250.140625 205.347656 250.144531 C 203.402344 250.148438 201.457031 250.167969 199.511719 250.1875 C 198.011719 250.199219 196.511719 250.203125 195.011719 250.203125 C 194.296875 250.207031 193.578125 250.210938 192.863281 250.222656 C 191.855469 250.234375 190.851562 250.234375 189.84375 250.230469 C 189.273438 250.230469 188.699219 250.234375 188.109375 250.238281 C 184.761719 249.734375 182.964844 247.480469 181.054688 244.910156 C 179.492188 242.671875 178.058594 240.363281 176.636719 238.039062 C 175.988281 236.992188 175.339844 235.945312 174.691406 234.898438 C 174.378906 234.390625 174.0625 233.882812 173.738281 233.359375 C 172.558594 231.464844 171.355469 229.589844 170.136719 227.722656 C 167.230469 223.261719 164.378906 218.765625 161.523438 214.273438 C 160.09375 212.019531 158.660156 209.769531 157.226562 207.519531 C 156.65625 206.625 156.085938 205.730469 155.515625 204.835938 C 155.234375 204.390625 154.953125 203.949219 154.664062 203.492188 C 138.429688 177.980469 138.429688 177.980469 137.574219 176.636719 C 137.003906 175.738281 136.433594 174.84375 135.863281 173.945312 C 134.449219 171.726562 133.039062 169.507812 131.625 167.289062 C 128.941406 163.0625 126.25 158.839844 123.550781 154.625 C 122.566406 153.089844 121.585938 151.554688 120.601562 150.015625 C 119.296875 147.976562 117.984375 145.9375 116.671875 143.898438 C 116.050781 142.929688 115.429688 141.960938 114.808594 140.992188 C 114.519531 140.546875 114.230469 140.101562 113.933594 139.644531 C 113.671875 139.230469 113.40625 138.816406 113.132812 138.390625 C 112.902344 138.03125 112.667969 137.671875 112.429688 137.300781 C 111.265625 135.273438 110.691406 133.535156 110.65625 131.195312 C 110.644531 130.765625 110.628906 130.332031 110.613281 129.886719 C 111.167969 126.285156 113.390625 123.585938 115.691406 120.878906 C 116.261719 120.195312 116.832031 119.507812 117.398438 118.820312 C 117.6875 118.472656 117.976562 118.121094 118.277344 117.761719 C 119.664062 116.054688 120.988281 114.304688 122.3125 112.546875 C 124.65625 109.457031 127.066406 106.425781 129.523438 103.425781 C 131.90625 100.511719 134.234375 97.554688 136.550781 94.589844 C 137.664062 93.167969 138.777344 91.75 139.890625 90.332031 C 140.339844 89.761719 140.789062 89.191406 141.234375 88.625 C 142.128906 87.484375 143.027344 86.34375 143.921875 85.203125 C 144.140625 84.921875 144.363281 84.640625 144.59375 84.351562 C 145.039062 83.78125 145.488281 83.210938 145.9375 82.640625 C 147.050781 81.222656 148.164062 79.804688 149.273438 78.386719 C 151.828125 75.128906 154.402344 71.886719 156.992188 68.65625 C 159.308594 65.761719 161.601562 62.847656 163.886719 59.929688 C 165.226562 58.21875 166.566406 56.515625 167.910156 54.808594 C 169.023438 53.390625 170.136719 51.972656 171.246094 50.554688 C 173.800781 47.296875 176.375 44.054688 178.964844 40.824219 C 181.28125 37.929688 183.574219 35.015625 185.859375 32.097656 C 187.199219 30.386719 188.539062 28.683594 189.882812 26.976562 C 190.996094 25.558594 192.109375 24.140625 193.21875 22.722656 C 195.773438 19.464844 198.339844 16.222656 200.933594 13 C 202.160156 11.472656 203.375 9.933594 204.570312 8.375 C 208.886719 2.746094 211.6875 -0.757812 219.238281 0 Z M 219.238281 0 "/>
<path style=" stroke:none;fill-rule:nonzero;fill:rgb(33.72549%,33.72549%,96.078431%);fill-opacity:1;" d="M 84.136719 173.429688 C 86.757812 175.199219 88.507812 177.09375 89.355469 180.175781 C 89.566406 182.210938 89.5625 184.238281 89.554688 186.285156 C 89.554688 186.890625 89.558594 187.5 89.5625 188.128906 C 89.570312 189.789062 89.570312 191.453125 89.566406 193.113281 C 89.566406 194.503906 89.570312 195.894531 89.574219 197.285156 C 89.578125 200.566406 89.578125 203.847656 89.574219 207.128906 C 89.566406 210.507812 89.574219 213.886719 89.585938 217.265625 C 89.597656 220.175781 89.601562 223.082031 89.597656 225.988281 C 89.597656 227.722656 89.597656 229.457031 89.605469 231.191406 C 89.617188 233.125 89.609375 235.058594 89.601562 236.992188 C 89.609375 237.847656 89.609375 237.847656 89.613281 238.71875 C 89.582031 242.261719 89.207031 245.183594 86.679688 247.828125 C 84.8125 249.464844 83.328125 250.058594 80.890625 250.070312 C 80.242188 250.078125 80.242188 250.078125 79.578125 250.082031 C 79.105469 250.082031 78.632812 250.085938 78.144531 250.085938 C 77.644531 250.089844 77.144531 250.09375 76.628906 250.097656 C 74.976562 250.105469 73.320312 250.113281 71.664062 250.117188 C 71.097656 250.117188 70.53125 250.121094 69.949219 250.121094 C 66.957031 250.132812 63.964844 250.140625 60.972656 250.144531 C 57.882812 250.148438 54.789062 250.167969 51.699219 250.1875 C 49.324219 250.199219 46.945312 250.203125 44.570312 250.203125 C 43.429688 250.207031 42.292969 250.210938 41.152344 250.222656 C 39.554688 250.234375 37.960938 250.234375 36.367188 250.230469 C 35.660156 250.238281 35.660156 250.238281 34.945312 250.25 C 31.703125 250.222656 29.546875 249.667969 27.121094 247.375 C 25.050781 245.085938 24.296875 242.941406 24.351562 239.898438 C 24.789062 236.585938 26.75 234.449219 28.808594 231.933594 C 29.230469 231.394531 29.652344 230.855469 30.074219 230.3125 C 31.203125 228.859375 32.34375 227.417969 33.488281 225.972656 C 34.164062 225.117188 34.839844 224.257812 35.511719 223.398438 C 37.558594 220.789062 39.609375 218.183594 41.691406 215.597656 C 44.019531 212.703125 46.304688 209.777344 48.554688 206.816406 C 50.910156 203.714844 53.324219 200.675781 55.792969 197.664062 C 58.171875 194.75 60.5 191.800781 62.816406 188.835938 C 64.402344 186.800781 65.996094 184.773438 67.59375 182.746094 C 68.378906 181.75 69.160156 180.746094 69.933594 179.742188 C 73.757812 174.816406 77.523438 171.058594 84.136719 173.429688 Z M 84.136719 173.429688 "/>
</g>
</svg>
