<?xml version="1.0" standalone="no"?>
<!DOCTYPE svg PUBLIC "-//W3C//DTD SVG 20010904//EN"
 "http://www.w3.org/TR/2001/REC-SVG-20010904/DTD/svg10.dtd">
<svg version="1.0" xmlns="http://www.w3.org/2000/svg"
 width="512.000000pt" height="512.000000pt" viewBox="0 0 512.000000 512.000000"
 preserveAspectRatio="xMidYMid meet">

<g transform="translate(0.000000,512.000000) scale(0.100000,-0.100000)"
fill="#000000" stroke="none">
<path d="M1915 4502 c-27 -10 -192 -100 -365 -201 -356 -206 -397 -238 -425
-336 -31 -104 -19 -142 106 -358 l68 -117 -53 -83 c-29 -45 -65 -105 -80 -134
l-26 -51 -192 -4 c-193 -3 -193 -3 -247 -33 -29 -16 -66 -45 -82 -64 -57 -70
-59 -86 -59 -530 0 -249 4 -420 10 -443 16 -56 68 -117 130 -152 l55 -31 186
-3 185 -4 33 -66 c18 -37 53 -100 78 -140 l45 -73 -80 -137 c-96 -167 -106
-195 -100 -283 6 -84 41 -147 105 -192 102 -73 678 -396 724 -407 62 -15 140
0 203 40 49 31 90 88 182 253 l49 87 165 -2 164 -3 79 -135 c86 -149 129 -199
194 -230 51 -24 157 -27 207 -6 75 31 673 380 717 418 55 47 88 168 70 250
-10 43 -133 270 -169 311 -14 16 -13 21 17 60 17 23 57 93 88 155 l55 112 202
1 c200 1 201 1 245 27 24 15 61 52 82 82 l38 55 1 441 c0 511 4 488 -91 562
l-61 47 -206 5 -205 5 -85 137 -84 138 63 107 c115 198 129 229 129 294 0 80
-31 167 -72 201 -27 22 -189 120 -392 236 -23 13 -102 59 -176 102 -180 104
-225 115 -327 85 -80 -24 -128 -75 -222 -239 l-85 -146 -156 0 -156 0 -83 144
c-46 80 -99 161 -119 182 -73 73 -185 100 -277 66z m181 -68 c49 -23 76 -58
172 -227 l90 -159 191 -1 191 -1 85 148 c46 81 94 160 105 177 33 45 95 73
165 73 60 1 60 1 399 -194 187 -107 354 -210 373 -229 40 -41 57 -98 50 -167
-4 -41 -23 -81 -92 -200 -47 -82 -91 -156 -97 -164 -8 -13 1 -34 45 -100 30
-47 73 -122 96 -167 l41 -83 193 0 c164 0 198 -3 232 -19 50 -22 101 -79 115
-128 8 -26 10 -167 8 -444 l-3 -405 -27 -42 c-15 -22 -49 -54 -75 -69 -48 -28
-48 -28 -247 -30 l-199 -1 -43 -86 c-45 -90 -104 -185 -136 -222 -19 -21 -19
-22 20 -85 21 -35 64 -110 96 -166 52 -92 58 -109 59 -162 0 -68 -30 -140 -71
-170 -15 -10 -173 -104 -352 -207 l-325 -189 -77 0 c-116 0 -137 19 -257 227
l-96 167 -40 -7 c-54 -9 -238 -9 -300 1 l-50 8 -89 -156 c-87 -152 -130 -206
-185 -226 -45 -17 -128 -12 -172 10 -121 63 -638 368 -662 390 -50 45 -70 96
-65 166 3 55 12 76 78 191 40 71 82 141 92 156 10 14 18 31 18 38 0 6 -19 39
-42 73 -24 34 -66 109 -94 165 l-51 104 -177 -2 c-195 -1 -235 6 -292 53 -73
61 -74 62 -74 517 0 455 1 456 75 517 57 48 99 55 301 51 l181 -3 37 76 c20
42 64 117 97 168 l60 91 -44 72 c-100 166 -146 255 -152 294 -9 60 12 128 54
173 30 32 308 198 685 409 42 23 127 21 182 -4z"/>
<path d="M1769 4227 c-118 -68 -266 -153 -330 -190 -64 -37 -124 -76 -135 -88
-36 -40 -24 -82 67 -237 123 -208 120 -204 114 -236 -3 -16 -32 -69 -65 -117
-33 -48 -82 -132 -109 -186 -27 -55 -57 -106 -67 -114 -14 -11 -55 -13 -231
-11 l-213 4 -35 -35 -35 -35 0 -389 c0 -427 -1 -416 61 -449 25 -13 65 -15
222 -13 129 2 199 -1 213 -9 12 -6 29 -28 39 -49 43 -97 102 -205 151 -279 64
-96 69 -130 26 -190 -16 -21 -61 -96 -100 -165 -77 -135 -87 -175 -54 -215 9
-12 159 -103 332 -204 341 -197 372 -210 422 -171 15 12 68 94 119 182 51 88
100 166 109 172 12 9 88 12 265 10 241 -1 247 -2 271 -24 13 -12 27 -32 30
-43 10 -31 162 -292 178 -305 24 -20 82 -25 113 -9 114 58 631 364 645 381 29
38 31 66 5 115 -30 60 -134 239 -158 274 -35 49 -25 92 41 188 32 48 83 135
112 194 36 75 60 111 77 120 19 10 73 12 207 8 202 -5 241 2 274 48 19 27 20
43 20 415 l0 387 -34 34 -34 34 -209 0 c-167 0 -213 3 -230 15 -11 8 -44 62
-72 120 -28 58 -78 145 -111 194 -38 56 -60 99 -60 117 0 16 18 55 44 93 24
37 55 86 68 111 14 25 42 74 62 108 40 71 46 118 19 151 -19 22 -626 376 -673
393 -20 7 -38 5 -63 -5 -28 -12 -46 -34 -93 -114 -32 -54 -75 -132 -96 -173
-21 -41 -47 -82 -58 -90 -29 -22 -501 -20 -527 1 -9 8 -26 37 -39 64 -12 28
-53 104 -92 170 -68 117 -112 165 -152 165 -9 0 -113 -55 -231 -123z m965
-821 c255 -58 486 -253 585 -493 40 -96 71 -241 71 -327 0 -152 -63 -354 -151
-483 -121 -177 -315 -305 -534 -352 -126 -26 -205 -27 -325 -1 -185 40 -302
103 -436 235 -131 129 -196 250 -239 445 -20 89 -16 237 8 341 75 315 330 571
632 633 43 9 81 19 84 22 12 11 230 -3 305 -20z"/>
<path d="M2445 3314 c-356 -58 -609 -328 -641 -684 -11 -133 35 -320 108 -435
207 -328 627 -442 969 -264 103 53 223 165 283 262 116 188 143 410 75 619
-75 230 -275 418 -514 482 -62 17 -227 28 -280 20z m250 -76 c28 -6 68 -19 89
-29 22 -11 44 -19 49 -19 22 0 147 -93 198 -146 70 -74 118 -156 152 -261 47
-144 35 -335 -32 -486 -28 -64 -121 -197 -138 -197 -8 0 -16 -6 -19 -14 -8
-20 -148 -116 -171 -116 -10 0 -27 -7 -37 -15 -38 -29 -161 -48 -279 -43 -186
8 -313 65 -448 199 -126 125 -189 278 -191 459 -1 127 15 196 69 310 38 79 59
108 127 176 44 44 101 91 126 105 163 90 327 115 505 77z"/>
</g>
</svg>
