<svg xmlns:xlink="http://www.w3.org/1999/xlink" viewBox="0 0 122 23" version="1.1" xmlns="http://www.w3.org/2000/svg" role="img" aria-hidden="true" focusable="true" width="122"  height="23" ><g stroke="none" stroke-width="1" fill="none" fill-rule="evenodd"><g transform="translate(-40.000000, -27.000000)" fill="#EE6513"><g transform="translate(39.000000, 0.000000)" fill="#EE6513"><g transform="translate(0.000000, 27.000000)" fill="#EE6513"><path d="M24.8054,8.6362 C24.8054,8.0752 24.9654,7.6712 25.2844,7.4212 C25.6044,7.1712 26.0554,7.0472 26.6354,7.0472 C26.9944,7.0472 27.3244,7.0912 27.6244,7.1812 C27.9234,7.2722 28.1234,7.3362 28.2244,7.3762 L28.2244,15.2612 C28.2244,16.6212 28.5424,17.6572 29.1834,18.3652 C29.8234,19.0742 30.8024,19.4302 32.1224,19.4302 C33.4414,19.4302 34.4204,19.0742 35.0604,18.3652 C35.7004,17.6572 36.0204,16.6212 36.0204,15.2612 L36.0204,8.6362 C36.0204,8.0752 36.1794,7.6712 36.4994,7.4212 C36.8194,7.1712 37.2584,7.0472 37.8184,7.0472 C38.1994,7.0472 38.5384,7.0912 38.8374,7.1812 C39.1384,7.2722 39.3384,7.3362 39.4374,7.3762 L39.4374,16.0112 C39.4374,17.0312 39.2624,17.9452 38.9134,18.7552 C38.5624,19.5652 38.0644,20.2492 37.4144,20.8082 C36.7654,21.3682 35.9904,21.7932 35.0904,22.0832 C34.1914,22.3722 33.2014,22.5182 32.1224,22.5182 C31.0424,22.5182 30.0534,22.3722 29.1544,22.0832 C28.2534,21.7932 27.4844,21.3682 26.8444,20.8082 C26.2044,20.2492 25.7054,19.5652 25.3454,18.7552 C24.9864,17.9452 24.8054,17.0312 24.8054,16.0112 L24.8054,8.6362 Z" fill="#EE6513"></path><path d="M42.1364,4.3783 C42.1364,3.8173 42.2954,3.4143 42.6164,3.1633 C42.9354,2.9133 43.3754,2.7893 43.9354,2.7893 C44.2944,2.7893 44.6284,2.8333 44.9394,2.9243 C45.2494,3.0143 45.4534,3.0793 45.5544,3.1183 L45.5544,7.0463 L49.9024,7.0463 C50.5624,7.0463 51.0264,7.1813 51.2964,7.4503 C51.5664,7.7213 51.6994,8.1143 51.6994,8.6353 C51.6994,8.9763 51.6514,9.2893 51.5514,9.5793 C51.4504,9.8693 51.3704,10.0743 51.3114,10.1943 L45.5544,10.1943 L45.5544,16.8813 C45.5544,17.4003 45.6234,17.8253 45.7644,18.1543 C45.9044,18.4843 46.0984,18.7493 46.3484,18.9483 C46.5994,19.1493 46.8884,19.2893 47.2184,19.3703 C47.5474,19.4493 47.8934,19.4883 48.2514,19.4883 C48.8324,19.4883 49.3724,19.3993 49.8714,19.2193 C50.3704,19.0393 50.7324,18.8693 50.9514,18.7103 L52.3304,20.9883 C52.1704,21.1083 51.9464,21.2593 51.6564,21.4383 C51.3654,21.6183 51.0114,21.7883 50.5914,21.9473 C50.1714,22.1083 49.7014,22.2423 49.1824,22.3533 C48.6624,22.4623 48.0934,22.5173 47.4744,22.5173 C45.7144,22.5173 44.3854,22.0633 43.4864,21.1523 C42.5854,20.2453 42.1364,19.0503 42.1364,17.5703 L42.1364,4.3783 Z" fill="#EE6513"></path><path d="M61.7751,19.4301 C62.4541,19.4301 63.0791,19.3051 63.6491,19.0551 C64.2181,18.8051 64.7081,18.4661 65.1181,18.0351 C65.5281,17.6051 65.8431,17.0961 66.0631,16.5051 C66.2821,15.9171 66.3921,15.2731 66.3921,14.5721 C66.3921,13.8721 66.2821,13.2221 66.0631,12.6221 C65.8431,12.0231 65.5281,11.5091 65.1181,11.0791 C64.7081,10.6501 64.2181,10.3101 63.6491,10.0601 C63.0791,9.8101 62.4541,9.6841 61.7751,9.6841 C61.0751,9.6841 60.4411,9.8101 59.8711,10.0601 C59.3011,10.3101 58.8161,10.6551 58.4171,11.0931 C58.0161,11.5341 57.7031,12.0541 57.4721,12.6531 C57.2431,13.2531 57.1281,13.8931 57.1281,14.5721 C57.1281,15.2911 57.2431,15.9511 57.4721,16.5501 C57.7031,17.1511 58.0211,17.6601 58.4321,18.0791 C58.8411,18.4991 59.3311,18.8291 59.9021,19.0691 C60.4701,19.3101 61.0951,19.4301 61.7751,19.4301 L61.7751,19.4301 Z M53.7401,1.5891 C53.7401,1.0501 53.8991,0.6501 54.2191,0.3901 C54.5381,0.1301 54.9891,0.000100000001 55.5681,0.000100000001 C55.9281,0.000100000001 56.2581,0.0451 56.5571,0.1351 C56.8571,0.2261 57.0561,0.2901 57.1581,0.3301 L57.1581,8.9351 C57.6571,8.2951 58.3471,7.7511 59.2261,7.3011 C60.1061,6.8511 61.1151,6.6251 62.2541,6.6251 C63.3541,6.6251 64.3691,6.8211 65.2981,7.2111 C66.2271,7.6011 67.0381,8.1511 67.7261,8.8601 C68.4171,9.5701 68.9571,10.4091 69.3451,11.3781 C69.7361,12.3481 69.9301,13.4121 69.9301,14.5721 C69.9301,15.7111 69.7301,16.7721 69.3311,17.7501 C68.9311,18.7301 68.3701,19.5701 67.6531,20.2691 C66.9321,20.9691 66.0771,21.5191 65.0881,21.9181 C64.0981,22.3181 63.0141,22.5171 61.8351,22.5171 C60.6551,22.5171 59.5711,22.3381 58.5821,21.9781 C57.5911,21.6181 56.7391,21.0781 56.0181,20.3591 C55.2981,19.6391 54.7391,18.7401 54.3391,17.6601 C53.9391,16.5801 53.7401,15.3121 53.7401,13.8531 L53.7401,1.5891 Z" fill="#EE6513"></path><path d="M71.9392,12.4135 C71.9392,10.5745 72.5032,9.1505 73.6332,8.1415 C74.7622,7.1315 76.3272,6.6265 78.3252,6.6265 C79.5852,6.6265 80.6092,6.8025 81.3992,7.1505 C82.1892,7.5015 82.5842,8.0355 82.5842,8.7565 C82.5842,9.0965 82.4892,9.4255 82.2992,9.7445 C82.1082,10.0645 81.9542,10.2645 81.8352,10.3445 C81.4942,10.1845 81.0752,10.0345 80.5752,9.8945 C80.0752,9.7555 79.5042,9.6845 78.8652,9.6845 C76.5282,9.6845 75.3582,10.9245 75.3582,13.4025 L75.3582,22.0985 L71.9392,22.0985 L71.9392,12.4135 Z" fill="#EE6513"></path><path d="M93.9763,15.3813 C93.7773,15.3413 93.4023,15.2813 92.8523,15.2013 C92.3013,15.1223 91.4783,15.0813 90.3783,15.0813 C89.0183,15.0813 88.0303,15.2863 87.4103,15.6963 C86.7903,16.1063 86.4803,16.7513 86.4803,17.6303 C86.4803,17.9903 86.5443,18.3193 86.6753,18.6203 C86.8053,18.9203 87.0303,19.1743 87.3493,19.3853 C87.6693,19.5943 88.1043,19.7553 88.6543,19.8643 C89.2043,19.9743 89.8893,20.0293 90.7093,20.0293 C91.6273,20.0293 92.3573,19.9943 92.8973,19.9233 C93.4363,19.8553 93.7973,19.7993 93.9763,19.7593 L93.9763,15.3813 Z M97.3633,22.0383 C97.1643,22.0773 96.8503,22.1223 96.4203,22.1733 C95.9913,22.2223 95.4853,22.2733 94.9063,22.3223 C94.3263,22.3723 93.6763,22.4173 92.9563,22.4583 C92.2383,22.4963 91.4883,22.5183 90.7093,22.5183 C89.1493,22.5183 87.8753,22.3823 86.8853,22.1123 C85.8963,21.8433 85.1163,21.4833 84.5473,21.0333 C83.9783,20.5833 83.5873,20.0643 83.3773,19.4733 C83.1673,18.8853 83.0633,18.2803 83.0633,17.6593 C83.0633,16.8403 83.1883,16.1213 83.4383,15.5013 C83.6873,14.8823 84.0973,14.3613 84.6663,13.9433 C85.2363,13.5233 85.9813,13.2083 86.9003,12.9973 C87.8203,12.7873 88.9403,12.6823 90.2593,12.6823 C91.0173,12.6823 91.7383,12.7083 92.4163,12.7583 C93.0963,12.8083 93.6063,12.8533 93.9463,12.8933 C93.9463,12.1933 93.8303,11.6133 93.6023,11.1543 C93.3723,10.6943 93.0573,10.3343 92.6583,10.0753 C92.2573,9.8153 91.7773,9.6353 91.2183,9.5353 C90.6583,9.4353 90.0383,9.3853 89.3593,9.3853 C88.2203,9.3853 87.3053,9.5153 86.6153,9.7753 C85.9263,10.0353 85.4723,10.2543 85.2513,10.4353 C85.1313,10.3343 84.9663,10.1453 84.7563,9.8643 C84.5473,9.5853 84.4423,9.2453 84.4423,8.8453 C84.4423,8.5663 84.5173,8.2903 84.6663,8.0203 C84.8173,7.7513 85.0813,7.5113 85.4613,7.3013 C85.8413,7.0913 86.3513,6.9273 86.9903,6.8063 C87.6303,6.6863 88.4403,6.6263 89.4173,6.6263 C90.5983,6.6263 91.6723,6.7423 92.6423,6.9713 C93.6133,7.2013 94.4463,7.5663 95.1453,8.0663 C95.8453,8.5663 96.3893,9.2263 96.7793,10.0453 C97.1693,10.8643 97.3633,11.8543 97.3633,13.0133 L97.3633,22.0383 Z" fill="#EE6513"></path><path d="M100.4216,8.6362 C100.4216,8.0752 100.5826,7.6712 100.9016,7.4212 C101.2216,7.1712 101.6716,7.0472 102.2516,7.0472 C102.6106,7.0472 102.9416,7.0912 103.2406,7.1812 C103.5396,7.2722 103.7396,7.3362 103.8406,7.3762 L103.8406,22.0982 L100.4216,22.0982 L100.4216,8.6362 Z M102.1316,0.2992 C102.7116,0.2992 103.2006,0.4992 103.6006,0.9002 C103.9996,1.3002 104.1996,1.7892 104.1996,2.3682 C104.1996,2.9492 103.9996,3.4382 103.6006,3.8372 C103.2006,4.2392 102.7116,4.4382 102.1316,4.4382 C101.5526,4.4382 101.0626,4.2392 100.6616,3.8372 C100.2626,3.4382 100.0626,2.9492 100.0626,2.3682 C100.0626,1.7892 100.2626,1.3002 100.6616,0.9002 C101.0626,0.4992 101.5526,0.2992 102.1316,0.2992 L102.1316,0.2992 Z" fill="#EE6513"></path><path d="M106.8991,13.0131 C106.8991,12.0141 107.0841,11.1191 107.4531,10.3291 C107.8221,9.5391 108.3331,8.8701 108.9821,8.3211 C109.6321,7.7711 110.4021,7.3521 111.2921,7.0621 C112.1801,6.7721 113.1551,6.6261 114.2131,6.6261 C115.2741,6.6261 116.2531,6.7721 117.1531,7.0621 C118.0521,7.3521 118.8271,7.7711 119.4761,8.3211 C120.1251,8.8701 120.6311,9.5391 120.9911,10.3291 C121.3501,11.1191 121.5311,12.0141 121.5311,13.0131 L121.5311,22.0981 L118.1131,22.0981 L118.1131,13.8821 C118.1131,12.5241 117.7821,11.4891 117.1241,10.7801 C116.4631,10.0701 115.4931,9.7141 114.2131,9.7141 C112.9151,9.7141 111.9411,10.0701 111.2921,10.7801 C110.6421,11.4891 110.3171,12.5241 110.3171,13.8821 L110.3171,22.0981 L106.8991,22.0981 L106.8991,13.0131 Z" fill="#EE6513"></path><path d="M17.0905,19.0766 C16.4425,19.7126 15.6835,20.2096 14.8125,20.5716 C13.9415,20.9306 12.9945,21.1106 11.9735,21.1106 C10.9515,21.1106 10.0055,20.9306 9.1355,20.5716 C8.2635,20.2096 7.5035,19.7126 6.8555,19.0766 C6.2075,18.4426 5.6995,17.6926 5.3335,16.8276 C4.9795,15.9926 4.7975,15.0896 4.7845,14.1206 L6.5075,14.1206 C6.5255,14.4186 6.5895,14.6976 6.7005,14.9596 C6.8335,15.2746 7.0185,15.5466 7.2525,15.7766 C7.4875,16.0076 7.7645,16.1886 8.0805,16.3176 C8.3965,16.4496 8.7405,16.5156 9.1115,16.5156 C9.4825,16.5156 9.8245,16.4496 10.1415,16.3176 C10.4575,16.1886 10.7345,16.0076 10.9695,15.7766 C11.2045,15.5466 11.3895,15.2746 11.5215,14.9596 C11.6105,14.7526 11.6685,14.5326 11.6975,14.3026 L12.2495,14.3026 C12.2785,14.5326 12.3365,14.7526 12.4255,14.9596 C12.5595,15.2746 12.7425,15.5466 12.9785,15.7766 C13.2125,16.0076 13.4895,16.1886 13.8055,16.3176 C14.1215,16.4496 14.4655,16.5156 14.8355,16.5156 C15.2075,16.5156 15.5505,16.4496 15.8665,16.3176 C16.1825,16.1886 16.4595,16.0076 16.6945,15.7766 C16.9295,15.5466 17.1145,15.2746 17.2475,14.9596 C17.3585,14.6976 17.4225,14.4186 17.4415,14.1206 L19.1605,14.1206 C19.1505,15.0896 18.9675,15.9926 18.6135,16.8276 C18.2465,17.6926 17.7385,18.4426 17.0905,19.0766 M10.6615,13.9396 C10.6615,14.1576 10.6215,14.3596 10.5435,14.5466 C10.4645,14.7316 10.3555,14.8926 10.2145,15.0306 C10.0735,15.1686 9.9105,15.2756 9.7235,15.3526 C9.5345,15.4306 9.3315,15.4696 9.1115,15.4696 C8.8905,15.4696 8.6865,15.4306 8.4985,15.3526 C8.3115,15.2756 8.1475,15.1686 8.0075,15.0306 C7.8665,14.8926 7.7575,14.7316 7.6795,14.5466 C7.6005,14.3596 7.5605,14.1576 7.5605,13.9396 C7.5605,13.7236 7.6005,13.5206 7.6795,13.3336 C7.7575,13.1476 7.8665,12.9866 8.0075,12.8486 C8.1475,12.7126 8.3115,12.6046 8.4985,12.5276 C8.6865,12.4496 8.8905,12.4106 9.1115,12.4106 C9.3315,12.4106 9.5345,12.4496 9.7235,12.5276 C9.9105,12.6046 10.0735,12.7126 10.2145,12.8486 C10.3555,12.9866 10.4645,13.1476 10.5435,13.3336 C10.6215,13.5206 10.6615,13.7236 10.6615,13.9396 M16.3865,13.9396 C16.3865,14.1576 16.3475,14.3596 16.2675,14.5466 C16.1895,14.7316 16.0795,14.8926 15.9405,15.0306 C15.8005,15.1686 15.6355,15.2756 15.4475,15.3526 C15.2605,15.4306 15.0565,15.4696 14.8355,15.4696 C14.6155,15.4696 14.4115,15.4306 14.2245,15.3526 C14.0355,15.2756 13.8715,15.1686 13.7325,15.0306 C13.5925,14.8926 13.4835,14.7316 13.4035,14.5466 C13.3245,14.3596 13.2855,14.1576 13.2855,13.9396 C13.2855,13.7236 13.3245,13.5206 13.4035,13.3336 C13.4835,13.1476 13.5925,12.9866 13.7325,12.8486 C13.8715,12.7126 14.0355,12.6046 14.2245,12.5276 C14.4115,12.4496 14.6155,12.4106 14.8355,12.4106 C15.0565,12.4106 15.2605,12.4496 15.4475,12.5276 C15.6355,12.6046 15.8005,12.7126 15.9405,12.8486 C16.0795,12.9866 16.1895,13.1476 16.2675,13.3336 C16.3475,13.5206 16.3865,13.7236 16.3865,13.9396 M5.4245,11.0206 C6.6475,10.6176 8.2695,10.1036 8.2695,10.1036 C11.8375,8.9686 12.3155,7.6266 12.3155,7.6266 C12.3155,7.6266 13.0665,8.9686 15.6565,9.8536 C15.6565,9.8536 17.0875,10.3246 18.4185,10.8056 C18.4855,10.9376 18.5545,11.0696 18.6135,11.2096 C18.8475,11.7616 19.0065,12.3436 19.0905,12.9526 L17.2595,12.9526 L17.2475,12.9206 C17.1145,12.6056 16.9295,12.3346 16.6945,12.1036 C16.4595,11.8726 16.1825,11.6916 15.8665,11.5606 C15.5505,11.4306 15.2075,11.3656 14.8355,11.3656 C14.4655,11.3656 14.1215,11.4306 13.8055,11.5606 C13.4895,11.6916 13.2125,11.8726 12.9785,12.1036 C12.7425,12.3346 12.5595,12.6056 12.4255,12.9206 C12.3835,13.0196 12.3485,13.1206 12.3195,13.2236 L11.6275,13.2236 C11.5995,13.1206 11.5645,13.0196 11.5215,12.9206 C11.3895,12.6056 11.2045,12.3346 10.9695,12.1036 C10.7345,11.8726 10.4575,11.6916 10.1415,11.5606 C9.8245,11.4306 9.4825,11.3656 9.1115,11.3656 C8.7405,11.3656 8.3965,11.4306 8.0805,11.5606 C7.7645,11.6916 7.4875,11.8726 7.2525,12.1036 C7.0185,12.3346 6.8335,12.6056 6.7005,12.9206 C6.6955,12.9306 6.6925,12.9416 6.6875,12.9526 L4.8575,12.9526 C4.9415,12.3436 5.0995,11.7616 5.3335,11.2096 C5.3615,11.1446 5.3955,11.0846 5.4245,11.0206 M22.1085,7.5256 C21.5475,6.2066 20.7745,5.0626 19.7835,4.0936 C18.7945,3.1226 17.6355,2.3636 16.3065,1.8146 C14.9765,1.2646 13.5325,0.9896 11.9735,0.9896 C10.4145,0.9896 8.9705,1.2646 7.6405,1.8146 C6.3115,2.3636 5.1515,3.1226 4.1625,4.0936 C3.1735,5.0626 2.3985,6.2066 1.8395,7.5256 C1.2785,8.8456 0.9995,10.2756 0.9995,11.8136 C0.9995,13.3536 1.2785,14.7816 1.8395,16.1016 C2.3985,17.4216 3.1735,18.5646 4.1625,19.5346 C5.1515,20.5046 6.3115,21.2636 7.6405,21.8136 C8.9705,22.3626 10.4145,22.6376 11.9735,22.6376 C13.5325,22.6376 14.9765,22.3626 16.3065,21.8136 C17.6355,21.2636 18.7945,20.5046 19.7835,19.5346 C20.7745,18.5646 21.5475,17.4216 22.1085,16.1016 C22.6665,14.7816 22.9465,13.3536 22.9465,11.8136 C22.9465,10.2756 22.6665,8.8456 22.1085,7.5256" fill="#EE6513"></path></g></g></g></g></svg>