<svg xmlns="http://www.w3.org/2000/svg" viewBox="0 0 756.61 173.33"><title>iceberg</title><g id="5a357131-64b2-48bc-a9eb-691a733daac4" data-name="icon"><path d="M761.08,56.91c6.65,7.43,9.6,16.68,11.71,26,10.85,48-18,94.15-66.07,104.48-52.54,11.29-97.17-25.4-103.87-71.36a86.2,86.2,0,0,1,9.67-55c.85-1.57,1.41-3.45,3.38-4.15l24.81.41-8.46,17.89q0,.92,0,1.84c6.11,17.73,17.5,32.3,28.31,47.21,1.16,6.33.3,13,3.12,19.05Q675.5,156.63,687.31,170c.58.66,1.28,1.08,2,.1,3.6-2.2,4.65-6.24,6.64-9.53,4.52-7.44,9.43-14.68,13-22.67l1.1-1.74c4.42-1.72,7.21-5.68,11.12-8.09a7.61,7.61,0,0,0,3.91-7.43c-.23-7.47-.08-15-.09-22.44a65.08,65.08,0,0,0,5-5.55c3.81-5.35,9.81-9,12.05-15.54v0a2,2,0,0,0,2-1c1.58-2.4-.12-4.41-.81-6.52-1.32-4.06-3.85-7.72-4.11-12.14Z" transform="translate(-18.46 -16.15)" style="fill:#287abe"/><path d="M640.72,57.29l-24.81-.41c3.27-8.51,9.74-14.6,16.42-20.2,11.5-9.65,24.69-16.31,39.58-19,25.9-4.61,49.46,1,70.31,17.14,7.77,6,14.82,12.8,18.88,22.06l-22,.48-18-.22,0-6.07L734,51l.42-.23-.41-.68a21.79,21.79,0,0,0-16.54-6.19c-17.74.42-35.49.17-53.23.13-6.22,0-11.4,2.66-16.39,5.95-4.6.2-4.68,4.13-5.87,7.13Z" transform="translate(-18.46 -16.15)" style="fill:#b8e1f2"/><path d="M632.25,77q0-.92,0-1.84c10.37-3.08,19.89-8.2,29.65-12.7,3.09-1.43,7.35-1.31,9-5.27,5.94.25,12-1,17.83.78q.07,21,.14,42.1l-.92,0c-11.39-4.87-22.7-9.93-34.19-14.54C646.63,82.7,640.1,78.18,632.25,77Z" transform="translate(-18.46 -16.15)" style="fill:#b6e0f2"/><path d="M632.25,77c7.84,1.17,14.37,5.68,21.54,8.56,11.49,4.61,22.8,9.67,34.19,14.54-.91,4.27-5.14,5.29-7.8,7.8-6.07,5.74-13.33,10.11-19.12,16.2a1.35,1.35,0,0,1-.5.12C649.76,109.31,638.37,94.75,632.25,77Z" transform="translate(-18.46 -16.15)" style="fill:#90d4f0"/><path d="M725,98.16c0,7.48-.14,15,.09,22.44a7.61,7.61,0,0,1-3.91,7.43c-3.91,2.41-6.7,6.37-11.12,8.09-4.72-6-7.66-13.16-11.89-19.46-2.88-4.28-4.07-9.8-9-12.6q0-1.42.05-2.84l1.91-1c.86,1.06,2.07.92,3.19.82Q709.63,99.64,725,98.16Z" transform="translate(-18.46 -16.15)" style="fill:#4d8ac8"/><path d="M663.68,143.29c-2.82-6.06-2-12.72-3.11-19.06a1.35,1.35,0,0,0,.5-.12c9,.38,18,.61,26.94,2q0,10.5-.05,21a39.44,39.44,0,0,1-5.38-.58C676.26,145.55,670.16,143.31,663.68,143.29Z" transform="translate(-18.46 -16.15)" style="fill:#b6e0f2"/><path d="M687.95,147.1q0-10.5.05-21c2.07-7.26.32-14.72,1.13-22,4.94,2.8,6.14,8.33,9,12.6,4.24,6.31,7.17,13.43,11.89,19.46l-1.1,1.74-20.11,9.25A4.34,4.34,0,0,1,687.95,147.1Z" transform="translate(-18.46 -16.15)" style="fill:#58afdd"/><path d="M721.05,57.17l18,.22c.26,4.42,2.79,8.08,4.11,12.14.69,2.12,2.39,4.12.81,6.52a2.16,2.16,0,0,0-2,1v0c-3.75.7-7,2.69-10.39,4.21s-6.4,4.06-10.41,3.95q0-13.92-.05-27.83Z" transform="translate(-18.46 -16.15)" style="fill:#4d8ac8"/><path d="M721.19,85.22c4,.11,7-2.44,10.41-3.95s6.64-3.51,10.39-4.21c-2.25,6.55-8.24,10.19-12.05,15.54a65.07,65.07,0,0,1-5,5.55q-15.35,1.45-30.7,2.89c-1.12.1-2.33.24-3.19-.82,7.07-3.27,14.19-6.43,21.18-9.86C715.33,88.86,718.92,88.15,721.19,85.22Z" transform="translate(-18.46 -16.15)" style="fill:#266fa8"/><path d="M687.95,147.1a4.34,4.34,0,0,0,.89,0q.24,11.48.47,23c-.72,1-1.41.55-2-.1q-11.83-13.33-23.63-26.68c6.47,0,12.57,2.26,18.89,3.24A39.44,39.44,0,0,0,687.95,147.1Z" transform="translate(-18.46 -16.15)" style="fill:#90d4f0"/><path d="M670.94,57.21c-1.69,4-5.95,3.84-9,5.27-9.76,4.5-19.28,9.62-29.65,12.7l8.47-17.89,1.24-.16Z" transform="translate(-18.46 -16.15)" style="fill:#90d4f0"/><path d="M689.3,170.07q-.23-11.48-.47-23l20.11-9.25c-3.57,8-8.48,15.23-13,22.67C694,163.82,692.9,167.86,689.3,170.07Z" transform="translate(-18.46 -16.15)" style="fill:#266fa8"/><path d="M742,77.08a2.16,2.16,0,0,1,2-1A2,2,0,0,1,742,77.08Z" transform="translate(-18.46 -16.15)" style="fill:#266fa8"/><path d="M647.82,50c5-3.29,10.17-6,16.39-5.95,17.75,0,35.5.29,53.23-.13A21.79,21.79,0,0,1,734,50.12q0,.46,0,.92l-13,.07H654.1C651.94,51.11,649.76,51.24,647.82,50Z" transform="translate(-18.46 -16.15)" style="fill:#f4fafd"/><path d="M647.82,50c1.94,1.24,4.12,1.1,6.28,1.1H721l0,6.07.08.22L688.77,58c-5.88-1.77-11.89-.53-17.83-.78l-29-.07C643.15,54.13,643.22,50.2,647.82,50Z" transform="translate(-18.46 -16.15)" style="fill:#e9f6fd"/><path d="M734,51q0-.46,0-.92l.41.68Z" transform="translate(-18.46 -16.15)" style="fill:#e9f6fd"/><path d="M688.77,58l32.37-.59q0,13.92.05,27.83c-2.27,2.93-5.85,3.64-8.92,5.15-7,3.43-14.11,6.59-21.18,9.86l-1.91,1-.27-1.13Z" transform="translate(-18.46 -16.15)" style="fill:#68c1ea"/></g><g id="05ba3cbb-29dd-4fa7-b6be-b03e4ad5ab82" data-name="text"><path d="M37.15,151.11H18.46V61.5H37.15Z" transform="translate(-18.46 -16.15)" style="fill:#2c7cbf"/><path d="M53.15,106.3c0-27.39,20-46.47,46.72-46.47,16.9,0,30.59,7.55,38.27,18L122,88.38c-4.74-6.53-12.67-10.62-22.15-10.62-16,0-27.27,11.65-27.27,28.55s11.14,28.55,27.14,28.55c9.73,0,18.3-4.35,23.17-12.42l15.62,11c-8.19,12.29-22.66,19.33-38.79,19.33C73,152.77,53.15,133.7,53.15,106.3Z" transform="translate(-18.46 -16.15)" style="fill:#2c7cbf"/><path d="M221.6,133.82v17.28H154.52V61.5h66.05V78.78H173.21v18.3h45.31V114.5H173.21v19.33Z" transform="translate(-18.46 -16.15)" style="fill:#2c7cbf"/><path d="M313,125.76c0,14.46-10.75,25.35-28.16,25.35H237.59V61.5h44.29c16.9,0,27.14,9.86,27.14,24.06,0,9.34-4.74,16.38-13.06,19.33C306.72,106.81,313,114.5,313,125.76ZM256.28,77.37V97.73h22.27c7.3,0,11-4,11-10.75,0-6-3.71-9.6-11-9.6Zm37.25,46.72c0-6.91-4-10.75-11.78-10.75H256.28v21.89h25.47C289.56,135.23,293.53,131.14,293.53,124.1Z" transform="translate(-18.46 -16.15)" style="fill:#2c7cbf"/><path d="M396.06,133.82v17.28H329V61.5H395V78.78H347.67v18.3H393V114.5H347.67v19.33Z" transform="translate(-18.46 -16.15)" style="fill:#2c7cbf"/><path d="M442.78,118.46h-12v32.64H412.06V61.5h40.07c19.33,0,31.11,11.65,31.11,28.42,0,13.44-7.55,23.68-20.61,27.26l23.3,33.92h-22.4Zm-12-17.41h20.87c8.06,0,12.29-3.84,12.29-11s-4.22-11.14-12.29-11.14H430.74Z" transform="translate(-18.46 -16.15)" style="fill:#2c7cbf"/><path d="M540.7,152.77c-26.75,0-46.72-19.07-46.72-46.59s20.35-46.34,47.11-46.34c14,0,26.75,5.12,36,15.49L562.59,87.49A27.39,27.39,0,0,0,541,77.76c-16.51,0-27.52,11.78-27.52,28.55s10.88,28.55,27.65,28.55c12.29,0,21-6.53,23.94-18.18H541V101.18h44.42a35.9,35.9,0,0,1,.38,6.53C586,134.34,567.07,152.77,540.7,152.77Z" transform="translate(-18.46 -16.15)" style="fill:#2c7cbf"/></g></svg>