<?xml version="1.0" encoding="utf-8"?>
<svg viewBox="172.511 0 51.489 51.431" fill="none" xmlns="http://www.w3.org/2000/svg">
  <defs>
    <clipPath id="clip0_250_177">
      <rect width="224" height="51.3156" fill="white"/>
    </clipPath>
  </defs>
  <path d="M219.858 12.0673C221.827 14.267 222.7 17.0055 223.325 19.7648C226.537 33.9756 217.996 47.6386 203.764 50.6969C188.21 54.0394 174.997 43.177 173.013 29.5702C172.134 23.9752 173.141 18.2467 175.876 13.2871C176.128 12.8222 176.293 12.2657 176.877 12.0584L184.222 12.1798L181.717 17.4763C181.717 17.6579 181.717 17.8394 181.717 18.021C183.526 23.2701 186.898 27.5837 190.098 31.9979C190.442 33.8719 190.187 35.8466 191.022 37.6378C193.355 40.2727 195.687 42.9096 198.018 45.5484C198.19 45.7438 198.397 45.8682 198.61 45.5781C199.676 44.9267 199.987 43.7307 200.576 42.7566C201.914 40.554 203.368 38.4105 204.425 36.045L204.75 35.5299C206.059 35.0206 206.885 33.8483 208.043 33.1348C208.43 32.9221 208.746 32.6001 208.952 32.209C209.158 31.8179 209.244 31.3748 209.2 30.935C209.132 28.7235 209.176 26.4942 209.173 24.2915C209.698 23.7726 210.192 23.224 210.654 22.6484C211.782 21.0645 213.558 19.9839 214.221 18.0477C214.338 18.0629 214.457 18.0429 214.563 17.9901C214.668 17.9374 214.755 17.8543 214.813 17.7516C215.281 17.0411 214.778 16.446 214.574 15.8213C214.183 14.6193 213.434 13.5357 213.357 12.2272L219.858 12.0673Z" fill="#287ABE" clip-path="url(#clip0_250_177)"/>
  <path d="M184.225 12.1798L176.88 12.0584C177.848 9.53897 179.763 7.73598 181.741 6.07806C185.145 3.22111 189.05 1.24936 193.459 0.452969C201.127 -0.911856 208.102 0.749027 214.275 5.52739C216.575 7.30374 218.662 9.31693 219.864 12.0584L213.351 12.2005L208.022 12.1354V10.3383L211.841 10.3176L211.965 10.2495L211.844 10.0482C211.201 9.41788 210.433 8.92919 209.589 8.61357C208.746 8.29794 207.846 8.16238 206.947 8.2156C201.695 8.33994 196.44 8.26593 191.188 8.25408C189.346 8.25408 187.813 9.0416 186.336 10.0156C184.974 10.0748 184.95 11.2383 184.598 12.1265L184.225 12.1798Z" fill="#B8E1F2" clip-path="url(#clip0_250_177)"/>
  <path d="M181.717 18.0151C181.717 17.8335 181.717 17.6519 181.717 17.4704C184.787 16.5585 187.606 15.0427 190.495 13.7104C191.41 13.2871 192.671 13.3226 193.16 12.1502C194.918 12.2242 196.712 11.8541 198.438 12.3811C198.452 16.5259 198.466 20.6806 198.48 24.8451H198.208C194.835 23.4033 191.487 21.9053 188.085 20.5405C185.974 19.7026 184.041 18.3644 181.717 18.0151Z" fill="#B6E0F2" clip-path="url(#clip0_250_177)"/>
  <path d="M181.717 18.0151C184.038 18.3615 185.971 19.6967 188.094 20.5494C191.496 21.9142 194.844 23.4122 198.216 24.854C197.947 26.1182 196.695 26.4202 195.907 27.1633C194.11 28.8626 191.961 30.1564 190.247 31.9594C190.2 31.9806 190.15 31.9927 190.099 31.9949C186.901 27.5807 183.529 23.2701 181.717 18.0151Z" fill="#90D4F0" clip-path="url(#clip0_250_177)"/>
  <path d="M209.176 24.2797C209.176 26.4942 209.135 28.7205 209.203 30.9232C209.247 31.363 209.161 31.806 208.955 32.1971C208.749 32.5883 208.433 32.9102 208.046 33.1229C206.888 33.8364 206.062 35.0088 204.753 35.518C203.356 33.7417 202.486 31.6219 201.233 29.7567C200.381 28.4896 200.028 26.8554 198.569 26.0264C198.569 25.7461 198.574 25.4659 198.584 25.1856L199.149 24.8895C199.404 25.2034 199.762 25.1619 200.093 25.1323C203.115 24.856 206.143 24.5718 209.176 24.2797Z" fill="#4D8AC8" clip-path="url(#clip0_250_177)"/>
  <path d="M191.022 37.6407C190.187 35.8466 190.43 33.8749 190.101 31.9979C190.153 31.9956 190.203 31.9836 190.249 31.9624C192.914 32.0749 195.578 32.143 198.225 32.5545C198.225 34.6269 198.22 36.6993 198.21 38.7717C197.676 38.751 197.144 38.6936 196.618 38.6C194.747 38.3098 192.941 37.6467 191.022 37.6407Z" fill="#B6E0F2" clip-path="url(#clip0_250_177)"/>
  <path d="M198.208 38.7687C198.208 36.6963 198.212 34.6239 198.222 32.5515C198.835 30.4021 198.317 28.1936 198.557 26.0383C200.019 26.8672 200.375 28.5044 201.221 29.7686C202.477 31.6367 203.344 33.7446 204.742 35.5299L204.416 36.045L198.462 38.7835C198.377 38.787 198.292 38.7821 198.208 38.7687Z" fill="#58AFDD" clip-path="url(#clip0_250_177)"/>
  <path d="M208.007 12.1443L213.336 12.2094C213.413 13.518 214.162 14.6016 214.553 15.8036C214.757 16.4312 215.26 17.0233 214.793 17.7338C214.676 17.7245 214.56 17.7471 214.455 17.7993C214.351 17.8515 214.263 17.9312 214.2 18.0299C213.09 18.2371 212.128 18.8263 211.124 19.2763C210.121 19.7263 209.23 20.4783 208.042 20.4457C208.042 17.6983 208.038 14.9519 208.028 12.2065L208.007 12.1443Z" fill="#4D8AC8" clip-path="url(#clip0_250_177)"/>
  <path d="M208.048 20.4487C209.233 20.4813 210.121 19.7263 211.13 19.2793C212.14 18.8322 213.096 18.2401 214.206 18.0329C213.54 19.972 211.767 21.0497 210.639 22.6336C210.177 23.2092 209.683 23.7578 209.159 24.2767C206.129 24.5629 203.099 24.8481 200.07 25.1323C199.738 25.1619 199.38 25.2034 199.125 24.8896C201.218 23.9214 203.326 22.9859 205.396 21.9704C206.313 21.5263 207.376 21.3161 208.048 20.4487Z" fill="#266FA8" clip-path="url(#clip0_250_177)"/>
  <path d="M198.208 38.7687C198.295 38.7778 198.383 38.7778 198.471 38.7687C198.518 41.0346 198.565 43.3043 198.61 45.578C198.397 45.8741 198.193 45.7409 198.018 45.5484C195.683 42.9175 193.351 40.2845 191.022 37.6496C192.938 37.6496 194.744 38.3187 196.615 38.6089C197.141 38.6985 197.674 38.7519 198.208 38.7687Z" fill="#90D4F0" clip-path="url(#clip0_250_177)"/>
  <path d="M193.172 12.1561C192.671 13.3404 191.41 13.293 190.507 13.7163C187.618 15.0486 184.799 16.5644 181.729 17.4763L184.237 12.1798L184.604 12.1324L193.172 12.1561Z" fill="#90D4F0" clip-path="url(#clip0_250_177)"/>
  <path d="M198.607 45.5692C198.562 43.3033 198.515 41.0336 198.468 38.7598L204.422 36.0213C203.365 38.3898 201.911 40.5303 200.573 42.7329C199.999 43.7188 199.673 44.9149 198.607 45.5692Z" fill="#266FA8" clip-path="url(#clip0_250_177)"/>
  <path d="M214.209 18.0388C214.272 17.9401 214.36 17.8604 214.464 17.8082C214.569 17.756 214.685 17.7334 214.802 17.7427C214.744 17.8454 214.656 17.9285 214.551 17.9812C214.445 18.034 214.326 18.054 214.209 18.0388Z" fill="#266FA8" clip-path="url(#clip0_250_177)"/>
  <path d="M186.327 10.0215C187.807 9.04752 189.338 8.2452 191.179 8.26001C196.434 8.26001 201.689 8.34586 206.938 8.22152C207.838 8.16785 208.74 8.30347 209.584 8.61963C210.429 8.93579 211.197 9.42547 211.841 10.0571C211.841 10.1479 211.841 10.2387 211.841 10.3294L207.992 10.3502H188.186C187.547 10.3502 186.901 10.3887 186.327 10.0215Z" fill="#F4FAFD" clip-path="url(#clip0_250_177)"/>
  <path d="M186.327 10.0215C186.901 10.3887 187.547 10.3472 188.186 10.3472H207.992V12.1443L208.016 12.2094L198.45 12.39C196.709 11.866 194.93 12.2331 193.172 12.1591L184.586 12.1384C184.944 11.2443 184.965 10.0808 186.327 10.0215Z" fill="#E9F6FD" clip-path="url(#clip0_250_177)"/>
  <path d="M211.841 10.3176C211.841 10.2268 211.841 10.136 211.841 10.0452L211.962 10.2465L211.841 10.3176Z" fill="#E9F6FD" clip-path="url(#clip0_250_177)"/>
  <path d="M198.45 12.39L208.034 12.2153C208.034 14.9627 208.039 17.7092 208.048 20.4546C207.376 21.3221 206.316 21.5323 205.408 21.9793C203.335 22.9948 201.23 23.9303 199.137 24.8984L198.572 25.1945L198.492 24.8599L198.45 12.39Z" fill="#68C1EA" clip-path="url(#clip0_250_177)"/>
</svg>