<svg xmlns="http://www.w3.org/2000/svg" width="250" height="250" fill="none"><g clip-path="url(#a)"><path fill="#0C9D58" d="M194.339 158.885c0 3.233-2.675 5.881-5.944 5.881H62.601c-3.269 0-5.943-2.648-5.943-5.881V35.881c0-3.233 2.674-5.881 5.943-5.881H188.4c3.268 0 5.943 2.648 5.943 5.881v123.004h-.003Z"/><path fill="#004D40" d="m194.338 61.621-47.145-6.048 47.145 12.606v-6.558Zm-66.565-25.208L56.377 68.186l78.908-28.625v-.078c-1.387-2.964-4.766-4.346-7.512-3.07Z" opacity=".2"/><path fill="#fff" d="M188.399 30H62.601c-3.269 0-5.943 2.648-5.943 5.881V37.2c0-3.233 2.674-5.881 5.943-5.881H188.4c3.268 0 5.943 2.648 5.943 5.88v-1.318C194.34 32.648 191.668 30 188.4 30Z" opacity=".2"/><path fill="#EA4335" d="M87.186 155.106c-.85 3.158.847 6.381 3.77 7.161l116.515 31.231c2.923.78 6.011-1.167 6.857-4.325l27.448-102.095c.85-3.159-.846-6.381-3.77-7.161L121.492 48.685c-2.924-.78-6.011 1.167-6.858 4.325L87.186 155.106Z"/><path fill="#3E2723" d="m215.523 123.52 6.128 37.105-6.128 22.805v-59.91Zm-67.779-66.433 5.492 1.471 3.407 22.9-8.899-24.37Z" opacity=".2"/><path fill="#fff" d="M238.009 79.917 121.495 48.685c-2.924-.78-6.011 1.167-6.858 4.325L87.189 155.106c-.046.17-.056.344-.088.514l27.241-101.323c.85-3.158 3.938-5.104 6.858-4.325l116.514 31.232c2.764.737 4.403 3.662 3.859 6.65l.21-.776c.847-3.159-.85-6.381-3.774-7.161Z" opacity=".2"/><path fill="#FFC107" d="M178.948 142.532c1.121 3.073-.288 6.43-3.13 7.462L52.87 194.593c-2.846 1.032-6.09-.638-7.21-3.711L9.388 91.558c-1.12-3.073.288-6.43 3.13-7.462l122.948-44.599c2.846-1.032 6.089.638 7.21 3.712l36.272 99.323Z"/><path fill="#fff" d="M9.853 92.81c-1.12-3.074.289-6.43 3.13-7.462l122.949-44.603c2.813-1.021 6.011.606 7.167 3.616l-.423-1.156c-1.124-3.073-4.368-4.743-7.21-3.712L12.517 84.096c-2.845 1.032-4.253 4.389-3.13 7.462l36.273 99.324c.01.031.032.06.046.095L9.853 92.81Z" opacity=".2"/><path fill="#4285F4" d="M215.523 214.062c0 3.265-2.682 5.938-5.958 5.938H41.435c-3.276 0-5.958-2.673-5.958-5.938V87.397c0-3.265 2.682-5.938 5.958-5.938h168.13c3.276 0 5.958 2.673 5.958 5.938v126.665Z"/><path fill="#fff" d="M183.419 131.599h-50.307v-13.194h50.307a2.642 2.642 0 0 1 2.647 2.637v7.916a2.645 2.645 0 0 1-2.647 2.641Zm0 50.137h-50.307v-13.195h50.307a2.642 2.642 0 0 1 2.647 2.638v7.915a2.643 2.643 0 0 1-2.647 2.642Zm7.943-25.071h-58.25v-13.194h58.25a2.642 2.642 0 0 1 2.646 2.638v7.915a2.642 2.642 0 0 1-2.646 2.641Z"/><path fill="#1A237E" d="M209.565 218.681H41.435c-3.276 0-5.958-2.673-5.958-5.938v1.319c0 3.265 2.682 5.938 5.958 5.938h168.13c3.276 0 5.958-2.673 5.958-5.938v-1.319c0 3.265-2.682 5.938-5.958 5.938Z" opacity=".2"/><path fill="#fff" d="M41.435 82.778h168.13c3.276 0 5.958 2.672 5.958 5.937v-1.318c0-3.265-2.682-5.938-5.958-5.938H41.435c-3.276 0-5.958 2.673-5.958 5.938v1.318c0-3.264 2.682-5.937 5.958-5.937Z" opacity=".2"/><path fill="#fff" d="M88.1 144.793v11.901h17.133c-1.416 7.249-7.81 12.506-17.133 12.506-10.4 0-18.834-8.766-18.834-19.132 0-10.365 8.434-19.132 18.834-19.132 4.684 0 8.878 1.606 12.189 4.75v.007l9.066-9.036c-5.506-5.115-12.687-8.252-21.259-8.252-17.546 0-31.773 14.176-31.773 31.667s14.224 31.667 31.773 31.667c18.35 0 30.422-12.858 30.422-30.948a37.64 37.64 0 0 0-.502-5.998H88.1Z"/><g fill="#1A237E" opacity=".2"><path d="M88.43 156.694v1.319h16.814c.124-.433.231-.872.32-1.319H88.431Z"/><path d="M88.43 181.736c-17.325 0-31.402-13.822-31.755-31.008-.003.219-.017.439-.017.659 0 17.491 14.223 31.667 31.773 31.667 18.349 0 30.421-12.857 30.421-30.947 0-.146-.018-.28-.018-.426-.394 17.619-12.356 30.055-30.403 30.055Zm12.19-46.05c-3.311-3.141-7.508-4.75-12.19-4.75-10.4 0-18.833 8.767-18.833 19.132 0 .224.025.44.032.66.353-10.075 8.622-18.473 18.802-18.473 4.684 0 8.878 1.606 12.189 4.75v.007l9.728-9.695c-.228-.213-.48-.401-.715-.607l-9.009 8.983-.004-.007Z"/></g><path fill="#1A237E" d="M186.066 130.277v-1.319a2.642 2.642 0 0 1-2.647 2.637h-50.307v1.319h50.307a2.637 2.637 0 0 0 2.647-2.637Zm-2.647 51.459h-50.307v1.318h50.307a2.642 2.642 0 0 0 2.647-2.637v-1.319a2.642 2.642 0 0 1-2.647 2.638Zm7.943-25.07h-58.25v1.318h58.25a2.64 2.64 0 0 0 2.646-2.637v-1.319a2.642 2.642 0 0 1-2.646 2.638Z" opacity=".2"/><path fill="url(#b)" d="M238.01 79.917 194.343 68.21V35.88c0-3.233-2.675-5.881-5.944-5.881H62.602c-3.27 0-5.944 2.648-5.944 5.881v32.203l-44.14 16.012c-2.845 1.032-4.254 4.389-3.13 7.462l26.09 71.446v51.058c0 3.265 2.681 5.938 5.957 5.938h168.131c3.276 0 5.957-2.673 5.957-5.938v-29.313l26.26-97.671c.847-3.159-.85-6.381-3.773-7.161Z"/></g><defs><radialGradient id="b" cx="0" cy="0" r="1" gradientTransform="matrix(226.589 0 0 225.835 61.513 45.394)" gradientUnits="userSpaceOnUse"><stop stop-color="#fff" stop-opacity=".1"/><stop offset="1" stop-color="#fff" stop-opacity="0"/></radialGradient><clipPath id="a"><path fill="#fff" d="M9 30h233v190H9z"/></clipPath></defs></svg>