<?xml version="1.0" encoding="UTF-8"?>
<svg xmlns="http://www.w3.org/2000/svg" xmlns:xlink="http://www.w3.org/1999/xlink" width="250px" height="250px" viewBox="0 0 250 250" version="1.1">
<defs>
<filter id="alpha" filterUnits="objectBoundingBox" x="0%" y="0%" width="100%" height="100%">
  <feColorMatrix type="matrix" in="SourceGraphic" values="0 0 0 0 1 0 0 0 0 1 0 0 0 0 1 0 0 0 1 0"/>
</filter>
<mask id="mask0">
  <g filter="url(#alpha)">
<rect x="0" y="0" width="250" height="250" style="fill:rgb(0%,0%,0%);fill-opacity:0.45098;stroke:none;"/>
  </g>
</mask>
<clipPath id="clip1">
  <rect x="0" y="0" width="250" height="250"/>
</clipPath>
<g id="surface5" clip-path="url(#clip1)">
<path style=" stroke:none;fill-rule:nonzero;fill:rgb(13.72549%,12.156863%,12.54902%);fill-opacity:1;" d="M 240.382812 154.199219 L 240.382812 154.148438 C 207.863281 121.582031 175.34375 89.011719 142.820312 56.398438 C 138.328125 51.414062 131.882812 48.242188 124.707031 48.242188 C 111.671875 48.242188 100.976562 58.640625 100.195312 71.777344 L 100.148438 71.777344 L 100.148438 80.078125 L 100.34375 80.078125 L 107.226562 86.960938 L 100.097656 86.960938 L 100.097656 94.484375 L 87.742188 94.484375 L 87.742188 101.710938 L 87.792969 101.710938 C 87.839844 104.25 87.9375 106.738281 88.035156 109.179688 L 88.132812 109.179688 C 88.769531 118.847656 93.945312 127.441406 101.660156 133.15625 L 117.480469 148.976562 L 117.480469 162.304688 L 102.148438 146.972656 C 96.726562 140.382812 89.355469 135.402344 79.539062 132.472656 C 71.726562 130.128906 63.867188 128.859375 55.710938 129.003906 C 54.148438 129.054688 53.417969 129.347656 53.515625 131.105469 C 55.175781 159.425781 64.550781 169.824219 64.550781 169.824219 C 65.378906 170.898438 68.457031 174.660156 73.585938 178.710938 L 129.25 234.375 C 156.203125 234.375 183.105469 234.425781 210.058594 234.425781 C 226.757812 234.425781 240.28125 220.898438 240.28125 204.199219 C 240.382812 187.597656 240.382812 170.898438 240.382812 154.199219 Z M 240.382812 154.199219 "/>
</g>
</defs>
<g id="surface1">
<path style=" stroke:none;fill-rule:nonzero;fill:rgb(21.960784%,29.803922%,11.764706%);fill-opacity:1;" d="M 240.382812 216.359375 C 240.382812 233.054688 226.855469 246.582031 210.15625 246.582031 L 39.40625 246.582031 C 22.703125 246.582031 9.179688 233.054688 9.179688 216.359375 L 9.179688 45.605469 C 9.179688 28.90625 22.703125 15.382812 39.40625 15.382812 L 210.15625 15.382812 C 226.855469 15.382812 240.378906 28.90625 240.378906 45.605469 L 240.378906 216.359375 Z M 240.382812 216.359375 "/>
<path style=" stroke:none;fill-rule:nonzero;fill:rgb(50.588235%,73.333333%,27.843137%);fill-opacity:1;" d="M 240.382812 204.296875 C 240.382812 220.996094 226.855469 234.519531 210.15625 234.519531 L 39.40625 234.519531 C 22.703125 234.519531 9.179688 220.996094 9.179688 204.296875 L 9.179688 33.496094 C 9.179688 16.796875 22.703125 3.269531 39.40625 3.269531 L 210.15625 3.269531 C 226.855469 3.269531 240.378906 16.796875 240.378906 33.496094 L 240.378906 204.296875 Z M 240.382812 204.296875 "/>
<use xlink:href="#surface5" mask="url(#mask0)"/>
<path style=" stroke:none;fill-rule:nonzero;fill:rgb(100%,100%,100%);fill-opacity:1;" d="M 193.75 129.054688 C 185.59375 128.90625 177.734375 130.175781 169.921875 132.519531 C 149.902344 138.527344 139.992188 152.882812 136.328125 172.511719 C 135.203125 180.859375 134.472656 186.964844 134.421875 188.234375 C 134.421875 188.527344 134.421875 189.015625 134.765625 189.40625 C 135.253906 189.992188 136.132812 189.992188 136.425781 189.992188 C 156.152344 190.136719 166.359375 184.914062 166.359375 184.914062 C 177.390625 179.25 183.640625 171.484375 184.960938 169.875 C 184.960938 169.875 194.335938 159.472656 195.996094 131.152344 C 196.046875 129.445312 195.265625 129.101562 193.75 129.054688 Z M 193.75 129.054688 "/>
<path style=" stroke:none;fill-rule:nonzero;fill:rgb(100%,100%,100%);fill-opacity:1;" d="M 149.367188 71.777344 L 149.316406 71.777344 C 148.535156 58.640625 137.839844 48.242188 124.804688 48.242188 C 111.765625 48.242188 101.074219 58.640625 100.292969 71.777344 L 100.242188 71.777344 L 100.242188 80.078125 L 149.367188 80.078125 Z M 149.367188 71.777344 "/>
<path style=" stroke:none;fill-rule:nonzero;fill:rgb(100%,100%,100%);fill-opacity:1;" d="M 113.28125 172.507812 C 109.570312 152.882812 99.707031 138.527344 79.6875 132.519531 C 71.875 130.175781 64.015625 128.90625 55.859375 129.050781 C 54.296875 129.101562 53.5625 129.394531 53.660156 131.152344 C 55.320312 159.472656 64.695312 169.875 64.695312 169.875 C 65.96875 171.484375 72.265625 179.246094 83.300781 184.914062 C 83.300781 184.914062 93.507812 190.1875 113.230469 189.988281 C 113.523438 189.988281 114.402344 189.988281 114.890625 189.40625 C 115.234375 189.011719 115.234375 188.523438 115.234375 188.234375 C 115.1875 186.960938 114.40625 180.859375 113.28125 172.507812 Z M 113.28125 172.507812 "/>
<path style=" stroke:none;fill-rule:nonzero;fill:rgb(100%,100%,100%);fill-opacity:1;" d="M 161.328125 109.179688 L 161.425781 109.179688 C 161.570312 106.789062 161.667969 104.296875 161.667969 101.707031 L 161.71875 101.707031 L 161.71875 98.4375 C 161.71875 98.144531 161.71875 97.898438 161.71875 97.609375 L 161.71875 94.484375 L 149.367188 94.484375 L 149.367188 86.960938 L 100.242188 86.960938 L 100.242188 94.484375 L 87.890625 94.484375 L 87.890625 101.710938 L 87.9375 101.710938 C 87.988281 104.25 88.085938 106.738281 88.183594 109.179688 L 88.28125 109.179688 C 89.304688 124.511719 101.5625 137.011719 117.675781 139.992188 L 117.675781 189.796875 L 132.078125 189.796875 L 132.078125 139.992188 C 148.046875 137.011719 160.304688 124.511719 161.328125 109.179688 Z M 155.03125 101.757812 C 154.929688 103.222656 154.882812 104.6875 154.785156 106.101562 L 154.734375 106.101562 C 153.90625 119.484375 144.484375 130.46875 131.980469 133.546875 L 131.980469 126.5625 L 131.882812 126.5625 C 141.503906 123.585938 148.679688 114.746094 149.316406 104.101562 L 149.367188 104.101562 L 149.367188 101.707031 L 155.03125 101.707031 Z M 94.824219 106.101562 L 94.773438 106.101562 C 94.679688 104.640625 94.628906 103.171875 94.53125 101.757812 L 100.195312 101.757812 L 100.195312 104.148438 L 100.242188 104.148438 C 100.878906 114.796875 108.007812 123.632812 117.675781 126.609375 L 117.578125 126.609375 L 117.578125 133.59375 C 105.078125 130.46875 95.65625 119.484375 94.824219 106.101562 Z M 94.824219 106.101562 "/>
</g>
</svg>
