<svg version="1.0" xmlns="http://www.w3.org/2000/svg"
 width="400.000000pt" height="400.000000pt" viewBox="0 0 400.000000 400.000000"
 preserveAspectRatio="xMidYMid meet">

<g transform="translate(0.000000,400.000000) scale(0.100000,-0.100000)"
fill="#000000" stroke="none">
<path d="M1237 2762 c-14 -16 -17 -43 -17 -166 0 -82 5 -156 10 -167 9 -15 22
-19 71 -19 51 0 64 -4 85 -25 l25 -25 -3 -205 c-2 -141 -7 -208 -15 -216 -6
-6 -44 -15 -83 -18 -46 -5 -75 -12 -80 -21 -6 -9 -10 -156 -10 -331 0 -293 1
-317 18 -332 16 -15 50 -17 264 -17 225 0 246 2 261 18 14 16 17 44 17 184 0
194 -2 198 -91 198 -98 0 -94 -14 -97 310 -2 155 1 279 5 277 4 -3 78 -143
163 -311 85 -168 161 -308 168 -310 6 -3 18 -3 25 0 7 2 91 153 187 334 l175
330 3 -292 c3 -356 9 -338 -112 -338 -118 0 -116 4 -116 -202 0 -147 2 -167
18 -181 16 -15 54 -17 329 -17 288 0 311 1 326 18 14 16 17 44 17 184 0 195
-1 198 -93 198 -97 0 -97 1 -97 253 0 249 -1 247 91 247 33 0 63 6 77 16 22
15 22 17 22 313 0 276 -1 299 -18 314 -16 15 -45 17 -200 17 -161 0 -184 -2
-200 -18 -9 -9 -83 -144 -162 -300 -125 -243 -147 -280 -157 -265 -7 9 -76
141 -153 294 -77 152 -147 280 -156 283 -8 3 -120 6 -248 6 -213 0 -234 -2
-249 -18z"/>
</g>
</svg>
