<?xml version="1.0" standalone="no"?>
<!DOCTYPE svg PUBLIC "-//W3C//DTD SVG 20010904//EN"
 "http://www.w3.org/TR/2001/REC-SVG-20010904/DTD/svg10.dtd">
<svg version="1.0" xmlns="http://www.w3.org/2000/svg"
 width="32.000000pt" height="32.000000pt" viewBox="0 0 32.000000 32.000000"
 preserveAspectRatio="xMidYMid meet">

<g transform="translate(0.000000,32.000000) scale(0.100000,-0.100000)"
fill="#000000" stroke="none">
<path d="M0 160 l0 -160 160 0 160 0 0 160 0 160 -160 0 -160 0 0 -160z m200
81 c0 -12 -29 -140 -36 -160 -7 -22 -35 9 -43 50 -9 44 -35 54 -29 10 6 -40
-8 -27 -17 17 l-7 32 54 2 53 2 -48 3 c-60 5 -52 22 11 25 44 1 44 2 10 5 -53
6 -47 23 7 23 25 0 45 -4 45 -9z m30 -17 c0 -27 -34 -144 -42 -144 -6 0 -8 10
-4 23 3 12 11 46 17 75 7 28 16 52 21 52 4 0 8 -2 8 -6z m16 -79 c-4 -25 -11
-45 -17 -45 -12 0 -11 16 2 63 14 51 23 40 15 -18z"/>
<path d="M130 148 c0 -13 4 -29 9 -36 6 -10 10 -8 14 8 6 25 -1 50 -14 50 -5
0 -9 -10 -9 -22z"/>
</g>
</svg>
