<?xml version="1.0" encoding="UTF-8"?>
<svg version="1.1" xmlns="http://www.w3.org/2000/svg" width="512" height="512">
<path d="M0 0 C168.96 0 337.92 0 512 0 C512 168.96 512 337.92 512 512 C343.04 512 174.08 512 0 512 C0 343.04 0 174.08 0 0 Z " fill="#FEFEFE" transform="translate(0,0)"/>
<path d="M0 0 C0.75916718 0.00060425 1.51833435 0.0012085 2.30050659 0.00183105 C47.4870472 0.0996258 90.30265586 15.17565586 124.5625 45.1875 C125.35269531 45.868125 126.14289063 46.54875 126.95703125 47.25 C155.20386904 72.07436148 155.20386904 72.07436148 160.5625 86.1875 C159.94431396 86.33783691 159.32612793 86.48817383 158.68920898 86.64306641 C126.24245678 94.6109649 97.15138684 107.68690181 78.8828125 137.1328125 C72.04620381 148.74763477 67.45733028 161.05445643 64.5625 174.1875 C64.3874292 174.96359619 64.2123584 175.73969238 64.03198242 176.53930664 C61.30477128 191.92259278 63.31659365 209.01650087 66.5625 224.1875 C66.76746094 225.19296875 66.97242188 226.1984375 67.18359375 227.234375 C72.00623646 247.48348353 83.61545834 266.95484841 99.5625 280.1875 C99.5625 280.8475 99.5625 281.5075 99.5625 282.1875 C100.08457031 282.42210937 100.60664063 282.65671875 101.14453125 282.8984375 C103.69719565 284.25930867 106.01602137 285.85387985 108.38232422 287.51293945 C122.11104216 297.06561469 136.42670057 302.98694145 152.5625 307.1875 C152.5625 312.26594633 150.47672125 313.8984791 147.125 317.3125 C143.42471266 320.93882159 143.42471266 320.93882159 140.5625 325.1875 C139.9025 325.1875 139.2425 325.1875 138.5625 325.1875 C138.34078125 325.74308594 138.1190625 326.29867188 137.890625 326.87109375 C124.15812648 350.82218676 82.99938957 370.51564403 57.6328125 377.625 C6.94651833 390.88037835 -47.34566772 384.01451044 -93.4375 359.1875 C-94.34773926 358.70627686 -94.34773926 358.70627686 -95.27636719 358.21533203 C-108.6836382 351.09204098 -120.06399985 342.00412005 -131.00097656 331.55664062 C-132.39348613 330.22944932 -133.80198908 328.9191017 -135.2109375 327.609375 C-168.74239426 295.51909833 -188.84611268 243.0818238 -189.875 197.0625 C-189.82081005 194.09625424 -189.6403734 191.14703249 -189.4375 188.1875 C-189.36644043 187.08164551 -189.29538086 185.97579102 -189.22216797 184.83642578 C-185.66479075 133.14982737 -166.62570177 83.81971993 -126.88671875 48.94921875 C-124.11297203 46.63570852 -121.290161 44.40294322 -118.4375 42.1875 C-117.64811035 41.55956543 -117.64811035 41.55956543 -116.84277344 40.91894531 C-83.80948649 14.7522371 -42.01223948 -0.06138235 0 0 Z " fill="#2CC4F2" transform="translate(270.4375,63.8125)"/>
<path d="M0 0 C45.87 0 91.74 0 139 0 C139.99 17.82 139.99 17.82 141 36 C141.2475 40.104375 141.495 44.20875 141.75 48.4375 C141.6298228 57.73355963 138.95097707 62.66856803 132.54443359 69.29638672 C129.58800793 72.55752145 127.15272549 76.21642853 124.625 79.8125 C120.50121798 85.5699713 116.32528759 91.2822018 112.0625 96.9375 C105.91848933 105.08887924 99.86374281 113.30434407 93.81738281 121.52832031 C90.71360153 125.74952957 87.60697348 129.96864007 84.5 134.1875 C83.93684082 134.95296143 83.37368164 135.71842285 82.79345703 136.50708008 C82.25317871 137.24079834 81.71290039 137.9745166 81.15625 138.73046875 C80.69025391 139.36364014 80.22425781 139.99681152 79.74414062 140.64916992 C77.17662741 144.10977809 74.58543147 147.55275804 72 151 C105.165 151.495 105.165 151.495 139 152 C139 173.78 139 195.56 139 218 C117.68071064 219.16287033 96.40499191 220.22204056 75.05981445 220.65795898 C66.55998651 220.81278844 66.55998651 220.81278844 58.08984375 221.4921875 C51.19483382 222.27942161 44.24851255 222.33369459 37.31640625 222.50268555 C34.90090559 222.56186531 32.48562939 222.62714247 30.0703125 222.69335938 C20.04434307 222.95788771 10.02946821 223.054386 0 223 C-0.92719904 216.35178559 -1.73838627 209.69770294 -2.50195312 203.02880859 C-2.84066215 200.184836 -3.23584503 197.35411601 -3.66210938 194.52197266 C-8.37251894 163.04012626 -8.37251894 163.04012626 -1.80639648 153.82568359 C0.67236412 150.98976127 3.28414535 148.38177579 6.07080078 145.84912109 C9.15855358 142.88953622 11.52819954 139.47430455 14 136 C14.97118049 134.68967453 15.94648426 133.38239559 16.92578125 132.078125 C17.66755615 131.0890918 17.66755615 131.0890918 18.42431641 130.08007812 C21.89718881 125.49549912 25.45099223 120.97328465 28.99121094 116.44067383 C33.0109353 111.28851459 36.95856339 106.09153509 40.86328125 100.8515625 C44.43971259 96.07862854 48.08960226 91.36227748 51.73388672 86.64111328 C54.23668168 83.39703543 56.73338237 80.14826225 59.22998047 76.89941406 C61.42029795 74.05000936 63.61516163 71.2042555 65.81640625 68.36328125 C66.27595703 67.76902344 66.73550781 67.17476563 67.20898438 66.5625 C68.09302049 65.41950381 68.97838014 64.27752974 69.86523438 63.13671875 C72.13811822 60.20147825 72.13811822 60.20147825 74 57 C73.26346191 57.12552246 72.52692383 57.25104492 71.76806641 57.38037109 C61.0582246 59.06604713 50.33618911 59.77386149 39.52246094 60.43261719 C36.37385948 60.62506971 33.22601534 60.82752841 30.078125 61.03125 C7.24349417 62.47952858 7.24349417 62.47952858 1 62 C0.67 61.67 0.34 61.34 0 61 C0 40.87 0 20.74 0 0 Z " fill="#FDFEFE" transform="translate(162,147)"/>
</svg>
