<svg width="250" height="250" id="Layer_1" data-name="Layer 1" xmlns="http://www.w3.org/2000/svg" viewBox="0 0 1920 1080"><defs><style>.cls-1{fill:#1088e7;}</style></defs><path class="cls-1" d="M226.55,648.43c-64.16,0-115.11-39.79-115.7-99.11h49.63c-.44,34.51,26.72,57.85,67.1,57.85,37.44,0,61.22-16.59,61.22-44.19,0-65.63-166.64-15.12-166.64-128.77,0-48.15,41.26-86.47,101.6-86.47,61.23,0,105.86,38.32,106.45,96.16h-49C280.73,409,254.89,389,221.85,389c-30.1,0-50.95,17-50.95,40.38C170.9,498.82,338,446,338,555.64,337.84,603.79,298.93,648.43,226.55,648.43Z"/><path class="cls-1" d="M379,384.88V338.19h48.31v46.69Zm.59,258.7V423.94h47.13V643.58Z"/><path class="cls-1" d="M573.34,741.81c-66.07,0-102.48-37.44-104.53-81.2h50.5c2.94,20.85,17.92,39.79,53.89,39.79,34.5,0,55.35-20,55.35-58.29v-34.5c-16.59,22.32-38.91,34.5-70.48,34.5-50.94,0-95.72-42.28-95.72-111.29s43.75-111.73,94.7-111.73c32,0,54.47,12.63,71.35,35.53l9.69-30.68h37V641.67C675.39,707.74,630.75,741.81,573.34,741.81Zm-1.9-140.95c37.88,0,59.75-27.16,59.75-70s-21.87-70.47-59.75-70.47-59.32,27.75-59.32,70.47S533.56,600.86,571.44,600.86Z"/><path class="cls-1" d="M719.14,643.58V423.94h37l10.28,32.59c17-23.78,42.28-37.44,72.82-37.44,42.72,0,74.29,27.75,74.29,80.61V643.58H866.4V511.88c0-34.06-17-50.06-45.22-50.06-35.53,0-54.91,22.9-54.91,59.31V643.58Z"/><path class="cls-1" d="M1055.36,648.43c-60.78,0-107.33-43.31-107.33-115.7,0-68,44.64-113.64,105.86-113.64,63.72,0,103.07,50.07,103.07,106.89a113.56,113.56,0,0,1-1.47,18.94h-158c1.47,38.91,21.88,63.72,57.41,63.72,30.1,0,46.69-18.5,50.95-38.91h50.5C1144.34,618.33,1107.34,648.43,1055.36,648.43Zm-57.26-137H1106c-1.46-31.56-21.43-53.44-53-53.44C1020.42,458,1000.45,480.32,998.1,511.44Z"/><path class="cls-1" d="M1367.36,648.43c-24.23,0-39.79-13.07-46.1-38.91-14.54,26.28-38.32,38.91-70.92,38.91-40.38,0-72.38-25.26-72.38-64.6,0-84.13,136.54-46.69,136.54-91.77,0-18.5-13.65-33.47-41.25-33.47-26.29,0-44.2,14.09-45.67,40.81h-46.1c.44-45.22,37.88-80.16,91.77-80.16,59.75,0,89.41,33.47,89.41,81.19v87.95c0,12.18,4.85,17,16.59,17a23.54,23.54,0,0,0,15.56-5.29v41.26C1388.21,646.08,1378.52,648.43,1367.36,648.43Zm-107.48-37.88c38.91,0,55.94-22.91,55.94-59.32V530.82c-17.47,26.28-91.76,10.28-91.76,50.51C1223.91,598.36,1237.13,610.55,1259.88,610.55Z"/><path class="cls-1" d="M1494.65,648.43c-55.94,0-95.28-31.57-96.17-76.35h45.67c.44,22.32,20.4,38.91,51.53,38.91,29.22,0,44.63-12.19,44.63-30.1,0-42.73-134-7.34-134-92.79,0-38.91,34.5-69,85-69,53,0,89.41,33,90.44,75.76h-45.66c-.44-22.31-18.94-38.32-46.11-38.32-22.9,0-37,12.63-37,27.75,0,46.69,134,8.22,134,91.76C1587,615,1552.94,648.43,1494.65,648.43Z"/><path class="cls-1" d="M1642.36,741.81c-14.1,0-24.82-1.47-34.07-7.34V691.74c7.78,5.29,16,6.75,26.72,6.75,17,0,26.29-6.31,33-23.34l11.6-28.19-84-223h52l32.6,96.17c7.34,22.31,15.12,47.13,22.9,72.38,8.22-25.69,15.56-50.51,23.34-72.38l33-96.17h49.63L1713,679.55C1698.15,718.9,1681.26,741.81,1642.36,741.81Z"/></svg>