<svg width="48" height="48" viewBox="0 0 48 48"><path d="M37.3833 39.6083C37.5686 39.7936 37.866 39.8049 38.0605 39.6291C38.3259 39.3892 38.5867 39.1414 38.8425 38.8856C47.0518 30.6763 47.0518 17.3663 38.8425 9.15699C30.6332 0.947669 17.3232 0.947669 9.11388 9.15699C8.85807 9.4128 8.61024 9.67357 8.37037 9.93897C8.19462 10.1334 8.20585 10.4309 8.39119 10.6162L37.3833 39.6083Z"></path><path d="M34.6753 42.1232C34.951 41.9601 34.9928 41.5817 34.7663 41.3552L6.64432 13.2332C6.41779 13.0066 6.03942 13.0485 5.87624 13.3242C5.4889 13.9786 5.14011 14.6495 4.82985 15.3336C4.74507 15.5206 4.78727 15.74 4.93243 15.8851L32.1144 43.067C32.2595 43.2122 32.4789 43.2544 32.6659 43.1696C33.35 42.8594 34.0209 42.5106 34.6753 42.1232Z"></path><path d="M28.2357 44.6093C28.6164 44.531 28.7471 44.0636 28.4722 43.7887L4.21072 19.5272C3.93591 19.2524 3.4685 19.3831 3.39015 19.7638C3.2071 20.6531 3.08205 21.552 3.01501 22.4544C3.00437 22.5976 3.05768 22.738 3.15924 22.8396L25.1599 44.8402C25.2615 44.9418 25.4018 44.9951 25.5451 44.9845C26.4475 44.9174 27.3464 44.7924 28.2357 44.6093Z"></path><path d="M19.2493 44.5067C19.7204 44.6149 20.0112 44.0554 19.6694 43.7136L4.28592 28.3301C3.9441 27.9883 3.38454 28.2791 3.49282 28.7502C4.34654 32.4646 6.22023 35.9919 9.11388 38.8856C12.0075 41.7792 15.5349 43.6529 19.2493 44.5067Z"></path></svg>
