<svg xmlns="http://www.w3.org/2000/svg" xmlns:xlink="http://www.w3.org/1999/xlink" width="250" height="250" viewBox="0 0 241 31"><title>/Logo Vector Files (PDF, EPS, SVG)/JN_Logo SVG/2. JN_Logo_Long-Blue</title><g id="2.-JN_Logo_Long-Blue" stroke="none" stroke-width="1" fill="none" fill-rule="evenodd"><g id="Logo-Horizontal" fill="#3B5EAB"><path d="M30.58,18.9903164 L36.58,17.9403164 L36.58,20.5603164 C36.4818168,21.598722 36.8478903,22.6273886 37.58,23.3703164 C38.2511879,23.9587636 39.1175229,24.2760632 40.01,24.2603164 C40.9394476,24.3186872 41.8448918,23.9506205 42.47,23.2603164 C43.0781655,22.5224666 43.3916442,21.5855929 43.35,20.6303164 L43.35,1.20031635 L49.7100332,1.20031635 L49.7100332,20.7903164 C49.7132888,22.0513316 49.4721776,23.3010351 49,24.4703164 C48.5470226,25.5973658 47.8661313,26.6187028 47,27.4703164 C45.1451838,29.3188698 42.6181456,30.3332951 40,30.2803164 C38.6773853,30.2969022 37.3627433,30.0732775 36.12,29.6203164 C34.9941655,29.2070323 33.9708463,28.5555191 33.12,27.7103164 C32.2547559,26.8579696 31.5739954,25.8368289 31.12,24.7103164 C30.6373775,23.4815535 30.399586,22.1703034 30.42,20.8503164 L30.58,18.9903164 Z" id="Path"></path><path d="M63.65,9.09031635 C65.081742,9.07603936 66.5022224,9.34450335 67.83,9.88031635 C69.0853879,10.3778807 70.2280016,11.12262 71.19,12.0703164 C72.1514531,13.0255913 72.9159218,14.1604026 73.44,15.4103164 C74.0034192,16.7591175 74.2858408,18.2086547 74.27,19.6703164 C74.2857343,21.1416807 74.0033955,22.6009981 73.44,23.9603164 C72.9322311,25.2293627 72.1776553,26.3850193 71.22,27.3603164 C70.2580016,28.3080127 69.1153879,29.052752 67.86,29.5503164 C65.1668651,30.590035 62.1831349,30.590035 59.49,29.5503164 C58.2358565,29.0503498 57.0936938,28.3059044 56.13,27.3603164 C55.1659662,26.3994844 54.401318,25.2576097 53.88,24.0003164 C53.320029,22.6402858 53.0410968,21.1809942 53.06,19.7103164 C53.0409927,18.2493463 53.3200065,16.7998355 53.88,15.4503164 C54.4040782,14.2004026 55.1685469,13.0655913 56.13,12.1103164 C57.0936938,11.1647283 58.2358565,10.420283 59.49,9.92031635 C60.8088548,9.3736386 62.2223331,9.0916225 63.65,9.09031635 Z M63.65,24.6603492 C64.2267637,24.6624492 64.7992093,24.5608316 65.34,24.3603164 C65.8760226,24.158627 66.3608982,23.8410676 66.76,23.4303164 C67.1917539,22.9880522 67.5316277,22.4646465 67.76,21.8903164 C68.2664546,20.4639382 68.2664546,18.9066945 67.76,17.4803164 C67.5388495,16.899342 67.1981652,16.3712813 66.76,15.9303164 C66.3542778,15.5349919 65.8706795,15.2284859 65.34,15.0303164 C64.2557771,14.6299647 63.0642229,14.6299647 61.98,15.0303164 C61.4375515,15.2225154 60.9429628,15.5295015 60.53,15.9303164 C60.0918348,16.3712813 59.7511505,16.899342 59.53,17.4803164 C59.023374,18.8997995 59.023374,20.4508332 59.53,21.8703164 C59.7535608,22.4530199 60.0938577,22.9838831 60.53,23.4303164 C60.9366664,23.8461261 61.4324738,24.1641267 61.98,24.3603164 C62.5146036,24.5580747 63.0799922,24.6596416 63.65,24.6603492 L63.65,24.6603492 Z" id="Shape"></path><path d="M77.48,29.6903164 L77.48,0.560316352 L83.48,0.560316352 L83.48,11.5603164 C84.0536142,10.8287413 84.8085977,10.2599182 85.67,9.91031635 C86.8003137,9.40084185 88.0305096,9.15138546 89.27,9.18031635 C90.6115672,9.16138992 91.9415538,9.43079747 93.17,9.97031635 C94.2947546,10.4637923 95.2930802,11.2056986 96.09,12.1403164 C96.9038927,13.1142159 97.5249476,14.2341508 97.92,15.4403164 C98.3594608,16.7826369 98.5756668,18.1879762 98.56,19.6003164 C98.5767337,21.0404716 98.3397836,22.4723271 97.86,23.8303164 C97.4141469,25.0558309 96.7349517,26.1832949 95.86,27.1503164 C94.1096996,29.0882816 91.611192,30.1809234 89,30.1503164 C87.7955738,30.182501 86.6013495,29.9216934 85.52,29.3903164 C84.6322796,28.9676745 83.8856483,28.2974426 83.37,27.4603164 L83.37,29.7103164 L77.48,29.6903164 Z M92.48,19.6903164 C92.4942501,18.9444929 92.372251,18.2023314 92.12,17.5003164 C91.9074741,16.9150206 91.5656573,16.3852047 91.12,15.9503164 C90.7070372,15.5495015 90.2124485,15.2425154 89.67,15.0503164 C88.5654395,14.648316 87.3545605,14.648316 86.25,15.0503164 C85.7111188,15.2437975 85.2200546,15.5507126 84.81,15.9503164 C84.3684683,16.3885626 84.0272859,16.9173953 83.81,17.5003164 C83.5411015,18.198377 83.411989,18.9424724 83.43,19.6903164 C83.4109388,20.4349857 83.540109,21.1760148 83.81,21.8703164 C84.03471,22.4465323 84.3750335,22.9706305 84.81,23.4103164 C85.2101469,23.8460328 85.7019582,24.1875685 86.25,24.4103164 C86.7955025,24.6211235 87.375182,24.7296015 87.96,24.7303181 C88.5431329,24.7307972 89.1218551,24.629267 89.67,24.4303164 C90.2175262,24.2341267 90.7133336,23.9161261 91.12,23.5003164 C91.5637592,23.0599895 91.9051682,22.5273915 92.12,21.9403164 C92.3704648,21.2108176 92.4823861,20.4409344 92.45,19.6703164 L92.48,19.6903164 Z" id="Shape"></path><polygon id="Path" points="120.97 29.6903164 109.22 10.9403164 109.22 29.6903164 102.9 29.6903164 102.9 1.17031635 110.62 1.17031635 121.33 18.5103164 121.33 1.17031635 127.68 1.17031635 127.68 29.6903164"></polygon><path d="M132.159972,3.58031635 C132.158081,3.10278687 132.253347,2.62986023 132.44,2.19031635 C132.614572,1.76332838 132.873,1.3756855 133.2,1.05031635 C133.525704,0.725852506 133.908878,0.464751824 134.33,0.280316352 C135.678114,-0.284266044 137.233632,0.0197312371 138.27,1.05031635 C138.956172,1.71123086 139.336549,2.6277585 139.32,3.58031635 C139.334519,4.53541422 138.954682,5.45425844 138.27,6.12031635 C137.584358,6.78832453 136.65682,7.14923433 135.7,7.12031635 C135.228663,7.12499637 134.761703,7.02955923 134.33,6.84031635 C133.909332,6.65948968 133.526105,6.40174405 133.2,6.08031635 C132.874957,5.74951497 132.616894,5.35902467 132.44,4.93031635 C132.257824,4.50341266 132.162634,4.0444584 132.159972,3.58031635 L132.159972,3.58031635 Z M132.68,29.6903164 L132.68,9.69031635 L138.79,9.69031635 L138.79,29.6903164 L132.68,29.6903164 Z" id="Shape"></path><path d="M143.14,29.6903164 L143.14,9.69031635 L148.97,9.69031635 L148.97,11.9803164 C149.228276,11.5261957 149.567145,11.1229419 149.97,10.7903164 C150.401432,10.4233655 150.878772,10.1141034 151.39,9.87031635 C151.917107,9.61470616 152.470328,9.41688792 153.04,9.28031635 C153.587652,9.15263176 154.147685,9.08556194 154.71,9.08031635 C155.980838,9.04012835 157.240816,9.32586093 158.37,9.91031635 C159.34109,10.432075 160.129613,11.2380428 160.63,12.2203164 C161.28578,11.1977106 162.199916,10.3663637 163.28,9.81031635 C164.38773,9.29668293 165.599442,9.04681011 166.82,9.08031635 C167.756848,9.07814986 168.688213,9.22325397 169.58,9.51031635 C170.45797,9.77949573 171.266734,10.2367715 171.95,10.8503164 C172.666684,11.5140879 173.229798,12.3263367 173.6,13.2303164 C174.044502,14.3421197 174.255542,15.5334766 174.22,16.7303164 L174.22,29.6803164 L168.31,29.6803164 L168.31,18.0903164 C168.334434,17.2305991 168.066501,16.3880207 167.55,15.7003164 C166.951253,14.9969789 166.050587,14.6248029 165.13,14.7003164 C164.188875,14.6231975 163.266365,14.9936835 162.64,15.7003164 C162.08832,16.3666575 161.787562,17.2052409 161.79,18.0703164 L161.79,29.6203164 L155.79,29.6203164 L155.79,18.0303164 C155.809749,17.1712646 155.542292,16.3301837 155.03,15.6403164 C154.418752,14.9304639 153.503157,14.5582709 152.57,14.6403164 C151.642499,14.5760024 150.737592,14.9453522 150.12,15.6403164 C149.559432,16.317203 149.258115,17.1715273 149.27,18.0503164 L149.27,29.5603164 L143.14,29.6903164 Z" id="Path"></path><path d="M178.42,29.6903164 L178.42,0.560316352 L184.42,0.560316352 L184.42,11.5603164 C184.993614,10.8287413 185.748598,10.2599182 186.61,9.91031635 C187.74104,9.4031003 188.97072,9.15374858 190.21,9.18031635 C191.554698,9.16243642 192.887726,9.43176934 194.12,9.97031635 C195.240279,10.4665774 196.234763,11.2081687 197.03,12.1403164 C197.848015,13.1113823 198.469534,14.2321549 198.86,15.4403164 C199.302855,16.7820699 199.522441,18.1874229 199.51,19.6003164 C199.523524,21.0410662 199.283186,22.4729387 198.8,23.8303164 C198.358116,25.0577224 197.678479,26.1859195 196.8,27.1503164 C195.958327,28.0705311 194.937429,28.8089804 193.8,29.3203164 C192.590107,29.8506688 191.280927,30.116596 189.96,30.1003164 C188.755574,30.132501 187.561349,29.8716934 186.48,29.3403164 C185.594173,28.9148398 184.848263,28.2452557 184.33,27.4103164 L184.33,29.6603164 L178.42,29.6903164 Z M193.42,19.6903164 C193.43425,18.9444929 193.312251,18.2023314 193.06,17.5003164 C192.84416,16.9166711 192.502788,16.3875435 192.06,15.9503164 C191.644779,15.552403 191.150851,15.2458269 190.61,15.0503164 C189.50544,14.648316 188.29456,14.648316 187.19,15.0503164 C186.649149,15.2458269 186.155221,15.552403 185.74,15.9503164 C185.301835,16.3912813 184.961151,16.919342 184.74,17.5003164 C184.475963,18.1997124 184.347016,18.9428528 184.36,19.6903164 C184.346084,20.434598 184.475082,21.1746389 184.74,21.8703164 C184.968372,22.4446465 185.308246,22.9680522 185.74,23.4103164 C186.145179,23.8447612 186.639928,24.1859673 187.19,24.4103164 C187.735502,24.6211235 188.315182,24.7296015 188.9,24.7303181 C189.483133,24.7307972 190.061855,24.629267 190.61,24.4303164 C191.156311,24.2316632 191.651602,23.913994 192.06,23.5003164 C192.500773,23.0575837 192.841735,22.5256823 193.06,21.9403164 C193.307073,21.2101738 193.4156,20.4403071 193.38,19.6703164 L193.42,19.6903164 Z" id="Shape"></path><path d="M215.67,29.6903164 C215.602998,29.3776484 215.562852,29.0598243 215.55,28.7403164 C215.55,28.3003164 215.55,27.9503164 215.55,27.6803164 C215.006985,28.5410654 214.194949,29.1984274 213.24,29.5503164 C212.284123,29.9263081 211.26714,30.1229249 210.24,30.1303164 C209.128905,30.1480851 208.026037,29.9370425 207,29.5103164 C206.092241,29.1233093 205.277454,28.5471625 204.61,27.8203164 C203.958524,27.1044814 203.458506,26.2643157 203.14,25.3503164 C202.79767,24.3873654 202.625108,23.372295 202.629899,22.3503164 L202.629899,9.72031635 L208.75,9.72031635 L208.75,21.0603164 C208.722374,21.9421237 208.997655,22.8067854 209.53,23.5103164 C210.134999,24.2169096 211.043128,24.5890938 211.97,24.5103164 C212.876871,24.5571322 213.760713,24.2152345 214.4,23.5703164 C215.023244,22.8988935 215.351063,22.0054973 215.31,21.0903164 L215.31,9.71031635 L221.42,9.71031635 L221.42,26.1203164 C221.42,27.0303164 221.42,27.8203164 221.5,28.4703164 C221.58,29.1203164 221.6,29.5403164 221.62,29.7003164 L215.67,29.6903164 Z" id="Path"></path><path d="M229.71,23.0903164 C229.763535,23.78856 230.052663,24.447911 230.53,24.9603164 C231.148789,25.5564533 231.99349,25.8586521 232.85,25.7903164 C233.476911,25.8332994 234.098284,25.6486628 234.6,25.2703164 C234.96239,24.9723123 235.174662,24.5294689 235.18,24.0603164 C235.185947,23.6829269 235.033636,23.3202812 234.76,23.0603164 C234.312063,22.7049712 233.776606,22.47697 233.21,22.4003164 L230.92,21.8803164 C229.966949,21.6679549 229.045792,21.3317663 228.18,20.8803164 C227.484721,20.5235472 226.858328,20.0461343 226.33,19.4703164 C225.878974,18.9550218 225.538606,18.3525711 225.33,17.7003164 C225.118015,17.0548214 225.01,16.3797289 225.01,15.7003164 C225.006258,14.8129821 225.197427,13.935652 225.57,13.1303164 C225.950503,12.3229882 226.491506,11.6016507 227.16,11.0103164 C227.878059,10.3895174 228.705517,9.90796432 229.6,9.59031635 C230.593181,9.22914791 231.643242,9.04962135 232.7,9.06031635 C233.947956,9.02523194 235.19088,9.23238602 236.36,9.67031635 C237.257397,10.0124974 238.081911,10.5214568 238.79,11.1703164 C239.376947,11.7188043 239.84938,12.3781714 240.18,13.1103164 C240.452899,13.7156036 240.628398,14.3602258 240.7,15.0203164 L235.63,15.9403164 C235.559903,15.2955621 235.286763,14.689753 234.85,14.2103164 C234.292814,13.6884724 233.540759,13.4268881 232.78,13.4903164 C232.233798,13.4750884 231.697245,13.6364048 231.25,13.9503164 C230.830126,14.2343894 230.584862,14.7135994 230.6,15.2203164 C230.58002,15.6067026 230.747562,15.9790186 231.05,16.2203164 C231.374778,16.4775886 231.760629,16.6463984 232.17,16.7103164 L234.83,17.2303164 C236.591817,17.4858542 238.221507,18.3112357 239.47,19.5803164 C240.450565,20.6492474 240.990061,22.0497922 240.980138,23.5003164 C240.980499,24.3565974 240.817585,25.2051073 240.5,26.0003164 C240.167503,26.8178451 239.658747,27.551956 239.01,28.1503164 C238.285133,28.814398 237.439952,29.3337259 236.52,29.6803164 C235.399619,30.0898716 234.212602,30.2865773 233.02,30.2603164 C231.656161,30.3066825 230.296651,30.0823633 229.02,29.6003164 C228.068528,29.2291399 227.198862,28.6754071 226.46,27.9703164 C225.857673,27.3838265 225.372384,26.6881327 225.03,25.9203164 C224.753183,25.3106656 224.584017,24.6576872 224.53,23.9903164 L229.71,23.0903164 Z" id="Path"></path><path d="M31,0 L0,0 L0,31 C17.1202141,30.9985197 30.9985197,17.1202141 31,0 Z" id="Path"></path></g></g></svg>
