<svg xmlns="http://www.w3.org/2000/svg" width="250" height="250" fill="none"><g fill="#19212E" clip-path="url(#a)"><path d="M222.6 139.279c-3.151 20.453-12.608 38.983-27.493 53.842-14.884 14.86-33.447 24.299-53.936 27.445 0-.174-.175-.349-.175-.523v-.176c-.175-.349-.175-.524-.35-1.049l-.525-1.572c-.876-2.447-1.401-5.245-1.927-8.042v-.174c0-.35-.175-.701-.175-1.049v-.175c0-.35-.175-.7-.175-.875v-.35c0-.349-.175-.699-.175-1.223-.175-.874-.175-1.748-.175-2.798v-1.223c0-1.048-.175-2.097-.175-3.321 0-34.613 28.369-62.933 63.041-62.933h4.553c.876 0 1.927.175 2.803.35.35 0 .874 0 1.4.175.35 0 .701.174.876.174h.175c.35 0 .7 0 1.05.175h.176c2.802.525 5.429 1.224 8.23 2.098l1.576.525c.35.174.526.174.876.349h.175c0 .175.176.35.35.35Z"/><path d="M223.826 124.944h-.176c-1.575-.524-3.151-.874-4.727-1.398-.176 0-.35-.175-.701-.175-1.4-.35-2.802-.699-4.378-.874h-.175c-.35 0-.876-.175-1.226-.175h-.35c-.526 0-1.05-.175-1.4-.175-.526 0-1.227-.175-1.577-.175-1.05-.174-2.276-.174-3.327-.349h-5.779c-42.553 0-77.051 34.438-77.051 76.918 0 1.224 0 2.447.175 3.845v.875c0 .349 0 .699.175 1.049.176 1.048.176 2.273.351 3.32 0 .525.175 1.05.175 1.574 0 .525.175 1.049.175 1.398.175.7.175 1.225.35 1.748.525 3.322 1.401 6.644 2.452 9.966v.174c-21.715.35-42.378-6.468-59.715-19.404v-4.196c0-73.246 59.715-132.858 133.089-132.858h4.203c12.957 16.433 19.613 37.235 19.437 58.912Z" opacity=".6"/><path d="M191.78 51.348c-.7 0-1.576.175-2.277.175-1.226 0-2.276.174-3.502.35-.35 0-.875 0-1.226.174-.351 0-.525 0-.875.175-2.102.175-4.203.524-6.304.874-1.576.175-2.978.525-4.553.7-.876.174-1.927.349-2.802.524-1.051.175-2.102.524-3.328.699-.35.175-.875.175-1.225.35-.701.174-1.576.35-2.277.524-.35 0-.525.175-.876.175-.875.175-1.751.35-2.451.7-.35.174-.876.174-1.226.349-.7.175-1.226.35-1.926.524-.526.175-1.051.35-1.401.525-.876.174-1.576.524-2.277.699-.175 0-.35.175-.525.175-1.051.35-2.101.699-3.152 1.223-1.226.35-2.277.874-3.327 1.224-.701.175-1.401.524-1.927.874-.7.175-1.225.525-1.926.7-1.051.524-2.276.873-3.327 1.398-1.926.874-3.853 1.748-5.779 2.797a143.98 143.98 0 0 0-7.18 3.846c-.7.524-1.576.874-2.276 1.398a65.017 65.017 0 0 0-2.802 1.749c-.876.524-1.751 1.048-2.452 1.573-.7.524-1.576 1.049-2.276 1.573l-2.101 1.573c-1.752 1.224-3.328 2.448-4.904 3.671-.7.525-1.226 1.05-1.926 1.574-1.051.874-2.277 1.923-3.327 2.797-.876.699-1.751 1.573-2.627 2.272-.7.525-1.226 1.224-1.926 1.748-2.102 2.098-4.203 4.021-6.304 6.294-.7.7-1.226 1.224-1.752 1.923-.875.874-1.576 1.748-2.276 2.622-1.05 1.049-1.926 2.273-2.802 3.321-.525.7-1.05 1.224-1.576 1.923-1.226 1.574-2.452 3.322-3.677 4.895l-1.576 2.098c-.526.699-1.051 1.573-1.577 2.272-.525.874-1.05 1.574-1.575 2.448-.526.874-1.226 1.748-1.752 2.797-.525.699-.875 1.573-1.4 2.272-1.402 2.273-2.627 4.72-3.853 6.993-1.05 1.923-1.926 3.846-2.802 5.769-.525 1.049-1.05 2.097-1.4 3.321-.176.525-.526 1.224-.701 1.923-.35.699-.526 1.399-.876 1.923-.525 1.049-.876 2.273-1.226 3.321-.35 1.049-.7 2.098-1.226 3.147 0 .175-.175.35-.175.525-.35.699-.525 1.573-.7 2.272-.175.525-.35 1.049-.526 1.399-.175.699-.35 1.223-.525 1.923-.175.349-.175.874-.35 1.223-.175.874-.525 1.748-.7 2.448 0 .175-.176.524-.176.874-.175.699-.35 1.573-.525 2.272 0 .35-.175.7-.35 1.224-.175 1.049-.526 2.098-.7 3.321a81.767 81.767 0 0 0-.526 2.797c-.35 1.573-.525 2.973-.7 4.545-.35 2.098-.526 4.197-.876 6.294 0 .35 0 .524-.175.874 0 .349 0 .699-.175 1.224-.175 1.223-.175 2.273-.35 3.496 0 .699-.176 1.574-.176 2.273-16.46-17.307-25.392-40.033-25.742-64.157-.35-25.697 9.281-50.171 26.968-68.702.525-.699 1.226-1.223 1.751-1.748l1.752-1.748C76.553 35.615 100.543 26 125.76 26h1.226c24.166.35 46.931 9.265 64.793 25.348Z" opacity=".3"/></g><defs><clipPath id="a"><path fill="#fff" d="M27 26h197v197H27z"/></clipPath></defs></svg>