<?xml version="1.0" encoding="UTF-8"?>
<svg id="Layer_2" data-name="Layer 2" xmlns="http://www.w3.org/2000/svg" viewBox="0 0 593.15 569.84">
  <defs>
    <style>
      .cls-1 {
        fill: #fff;
      }

      .cls-1, .cls-2 {
        stroke-width: 0px;
      }

      .cls-2 {
        fill: #ed0c0c;
      }
    </style>
  </defs>
  <g id="Layer_1-2" data-name="Layer 1">
    <g>
      <rect class="cls-2" width="569.34" height="569.34"/>
      <rect class="cls-1" x="50.87" y="231.28" width="36.06" height="116.83"/>
      <g>
        <path class="cls-1" d="M106.17,231.28h34.62v10.73s6.01-13.61,34.62-13.62c36.54,0,43.27,24.04,43.27,55.29v64.42h-36.06v-57.21c0-13.46-.24-30.77-18.75-30.77s-21.64,14.66-21.64,29.81v58.17h-36.06v-116.83Z"/>
        <path class="cls-1" d="M237.92,210.61c0-25.48,6.49-47.12,45.67-47.12,7.21,0,14.43.48,21.16,2.16l-1.68,30.53c-4.09-1.44-7.45-2.4-11.78-2.4-11.54,0-17.3,3.61-17.3,18.99v18.51h26.68v28.85h-26.68v87.98h-36.06v-137.5Z"/>
        <path class="cls-1" d="M370.25,228.4c36.05,0,64.9,24.03,64.9,61.29s-28.85,61.3-64.9,61.3-64.91-24.04-64.91-61.3,28.84-61.29,64.91-61.29M370.25,319.26c18.03,0,28.85-12.02,28.85-29.57s-10.82-29.57-28.85-29.57-28.84,12.02-28.84,29.57,10.81,29.57,28.84,29.57"/>
        <path class="cls-1" d="M449.28,231.28h36.06v10.21s9.41-14.76,46.16-13.18v31.65c-5.05-1.44-10.1-2.4-15.38-2.4-27.4,0-30.77,19.72-30.77,43.03v47.52h-36.06v-116.83Z"/>
        <polygon class="cls-1" points="50.87 192.78 86.92 168.07 86.92 212.04 50.87 212.04 50.87 192.78"/>
      </g>
      <path class="cls-2" d="M585.18,569.84c-1.43,0-2.76-.35-3.96-1.05-1.21-.7-2.17-1.68-2.89-2.93-.72-1.25-1.08-2.69-1.08-4.32s.36-3.11,1.08-4.34c.72-1.24,1.68-2.21,2.89-2.91,1.21-.7,2.53-1.05,3.96-1.05s2.8.35,4.01,1.05c1.21.7,2.17,1.67,2.89,2.91.72,1.24,1.08,2.69,1.08,4.34s-.36,3.07-1.08,4.32-1.68,2.23-2.89,2.93c-1.21.7-2.54,1.05-4.01,1.05ZM585.18,568.28c1.18,0,2.24-.28,3.18-.84.94-.56,1.69-1.36,2.26-2.38.56-1.03.84-2.2.84-3.52s-.28-2.49-.84-3.52c-.56-1.03-1.31-1.83-2.26-2.4-.94-.58-2-.86-3.18-.86s-2.24.29-3.18.86c-.94.58-1.69,1.38-2.24,2.4-.55,1.03-.82,2.2-.82,3.52s.27,2.5.82,3.52c.55,1.03,1.29,1.82,2.24,2.38.94.56,2,.84,3.18.84ZM582.14,565.71v-8.56h3.21c.9,0,1.67.2,2.32.61.65.41.97,1.12.97,2.13,0,.51-.14.98-.42,1.41-.28.44-.66.74-1.14.91l1.94,3.5h-1.94l-1.48-2.95h-1.73v2.95h-1.73ZM583.87,561.41h1.1c1.21,0,1.81-.48,1.81-1.43,0-.42-.13-.76-.38-1.01-.25-.25-.7-.38-1.35-.38h-1.18v2.83Z"/>
    </g>
  </g>
</svg>