<svg version="1.1" xmlns="http://www.w3.org/2000/svg" width="400" height="400">
<path d="M0 0 C132 0 264 0 400 0 C400 132 400 264 400 400 C268 400 136 400 0 400 C0 268 0 136 0 0 Z " fill="#FEFEFE" transform="translate(0,0)"/>
<path d="M0 0 C1.66361722 -0.00435538 3.32723243 -0.00954126 4.99084473 -0.01548767 C9.48068247 -0.02880098 13.97043563 -0.02946488 18.46028924 -0.02692437 C22.22231532 -0.02584931 25.98432466 -0.03075172 29.74634713 -0.03552979 C38.62957637 -0.04659874 47.51276331 -0.04707731 56.39599609 -0.04101562 C65.5283418 -0.03497929 74.66053329 -0.04728423 83.7928527 -0.06858569 C91.66245254 -0.0862598 99.53200355 -0.09219388 107.40162247 -0.08894795 C112.08899681 -0.087144 116.77626115 -0.08968179 121.46361732 -0.10366249 C125.87555743 -0.116331 130.28725899 -0.11421239 134.69919586 -0.1012516 C136.30749534 -0.09890567 137.91581209 -0.10154825 139.52409172 -0.10987473 C159.07917595 -0.2037234 174.82382225 3.79674394 190.27612305 16.2746582 C190.92452148 16.79543945 191.57291992 17.3162207 192.2409668 17.8527832 C202.78105494 27.31735214 208.58498026 42.55871456 210.27612305 56.2746582 C210.36483425 58.66573685 210.40656042 61.05886239 210.40983582 63.45158386 C210.41210137 64.1392184 210.41436693 64.82685293 210.41670114 65.53532487 C210.42299069 67.82109343 210.42221504 70.10680192 210.42138672 72.39257812 C210.42438142 74.03914465 210.42778466 75.68571048 210.43156433 77.33227539 C210.44037828 81.7932719 210.44274139 86.25424921 210.44338012 90.71525359 C210.44409226 93.50693634 210.44622972 96.29861425 210.44887733 99.09029579 C210.45812312 108.84291517 210.4622133 118.59552091 210.46142578 128.34814453 C210.46082565 137.41679112 210.47136683 146.4853781 210.48716944 155.55400962 C210.50027896 163.35724897 210.50560823 171.16046892 210.50497037 178.96371919 C210.50471633 183.61641526 210.5075155 188.26905836 210.51814842 192.92174339 C210.52788661 197.30238724 210.52786967 201.6829281 210.52063179 206.06357574 C210.51959293 207.66303726 210.52190689 209.26250537 210.52799225 210.86195564 C210.60630197 232.88745088 206.00772265 250.48844077 190.7487793 266.91918945 C175.72589091 281.23009261 156.34185791 283.58809074 136.59643555 283.53344727 C134.93780362 283.5361624 133.2791729 283.53972625 131.62054443 283.54406738 C127.14536289 283.55313154 122.67027427 283.54967194 118.19509125 283.54330921 C113.49439762 283.53821812 108.79371154 283.54294926 104.09301758 283.54608154 C96.20156436 283.54971216 88.31014868 283.54494586 80.41870117 283.53540039 C71.31699935 283.52451759 62.21538716 283.52804381 53.11368752 283.5390532 C45.27555898 283.54815188 37.4374573 283.54939876 29.59932518 283.54417586 C24.92828275 283.54107033 20.25728234 283.54060765 15.58624268 283.54724884 C11.19322804 283.55305934 6.80032809 283.54895814 2.40732574 283.53746033 C0.8026066 283.53483345 -0.80212232 283.53554477 -2.40683746 283.53998566 C-23.12478532 283.59200026 -39.9021522 279.66241689 -55.26293945 264.8215332 C-67.41303921 251.89935353 -72.82234088 237.49335438 -72.86431885 219.83235168 C-72.86728997 219.12823408 -72.87026109 218.42411648 -72.87332225 217.69866198 C-72.88192371 215.36306042 -72.88351016 213.02751062 -72.88500977 210.69189453 C-72.889644 209.00739434 -72.89466946 207.32289518 -72.90005493 205.63839722 C-72.9131223 201.07822653 -72.91961273 196.51807054 -72.92406559 191.95788407 C-72.92700537 189.10337203 -72.93111184 186.24886392 -72.93556976 183.39435387 C-72.94922952 174.44718948 -72.95890372 165.50003417 -72.96277165 156.55286008 C-72.96724938 146.25433022 -72.98479045 135.95593328 -73.01377225 125.65744382 C-73.03544553 117.67667556 -73.04547893 109.69594455 -73.04681277 101.7151472 C-73.04785672 96.95788649 -73.05367672 92.200751 -73.07163239 87.4435215 C-73.08821116 82.9643352 -73.09022141 78.48536694 -73.08149338 74.00616074 C-73.08072823 72.37163773 -73.08499587 70.7371025 -73.09495163 69.10260963 C-73.21497892 48.15144208 -67.88341101 31.96086859 -53.34887695 16.5871582 C-38.40083912 2.26746709 -19.77383157 -0.03443973 0 0 Z " fill="#297ECD" transform="translate(130.723876953125,57.725341796875)"/>
<path d="M0 0 C1.18040359 -0.00852997 2.36080719 -0.01705994 3.57698059 -0.02584839 C4.87365158 -0.02494202 6.17032257 -0.02403564 7.50628662 -0.02310181 C8.88452011 -0.02908571 10.26275024 -0.03589094 11.64097595 -0.04345703 C15.38703449 -0.06114221 19.13300169 -0.06581357 22.87909794 -0.0670886 C25.22046167 -0.06850978 27.56180214 -0.07277881 29.9031601 -0.07808304 C38.07443212 -0.09659432 46.24563886 -0.10475261 54.41693115 -0.10317993 C62.02810395 -0.10197945 69.63899274 -0.12306036 77.2500937 -0.15466726 C83.78780265 -0.1808469 90.32541897 -0.19154647 96.86317992 -0.19026911 C100.7663532 -0.18975981 104.66927435 -0.19542486 108.57239532 -0.21662521 C112.24640757 -0.2360353 115.91992799 -0.23611361 119.5939579 -0.22159195 C121.578588 -0.2185142 123.56321827 -0.23516251 125.54777527 -0.25247192 C132.30316928 -0.20491662 137.03717531 -0.13730106 142.33343506 4.26742554 C147.48708679 10.48585055 146.90050587 17.0342356 146.85101318 24.83432007 C146.85643969 26.20654033 146.86356532 27.57875476 146.87225342 28.95095825 C146.89042384 32.66165141 146.88344652 36.37189766 146.87073708 40.08259821 C146.86058072 43.9720085 146.87000967 47.8613816 146.87628174 51.75079346 C146.88354877 58.2790308 146.87399354 64.80708684 146.85491943 71.33529663 C146.83313412 78.87845714 146.84021765 86.42118544 146.86222506 93.96433556 C146.88038432 100.44861519 146.8829354 106.93276484 146.87247038 113.41706169 C146.86624064 117.2865475 146.86538574 121.15583019 146.87861633 125.02530289 C146.8901827 128.66165385 146.88213559 132.29744783 146.85903931 135.93373871 C146.85124037 137.90198504 146.86310015 139.87027856 146.87554932 141.83850098 C146.86427002 143.01323975 146.85299072 144.18797852 146.84136963 145.39831543 C146.83986153 146.41702288 146.83835342 147.43573032 146.83679962 148.48530769 C146.19009088 152.05969504 144.86064263 153.69473056 142.33343506 156.26742554 C138.56460072 158.57593758 135.87099479 158.49951382 131.59191799 157.89067817 C127.80025646 156.84432843 125.61631542 154.63906028 122.94293213 151.85241699 C122.36425054 151.28198193 121.78556895 150.71154688 121.18935156 150.12382591 C119.26542915 148.21768877 117.37136237 146.28446395 115.47601318 144.34994507 C114.09871718 142.97366715 112.71967266 141.59913715 111.33901978 140.22622681 C107.60228707 136.50031981 103.89085033 132.75011231 100.18374825 128.99475336 C96.30091117 125.06930145 92.39616244 121.16576439 88.49395752 117.25958252 C81.94760566 110.70034232 75.416234 104.12649575 68.8949585 97.54232788 C60.51801623 89.08470503 52.11821031 80.65018902 43.71045685 72.22320747 C36.48624781 64.98241129 29.27100763 57.73269797 22.0580349 50.48071051 C19.73647919 48.14701541 17.41399335 45.81424848 15.09150696 43.48147964 C11.44854025 39.82097276 7.81115993 36.1550004 4.1781044 32.48465729 C2.84181794 31.13610845 1.50383673 29.78923661 0.16407394 28.44414139 C-1.65930401 26.61282184 -3.47640784 24.77550325 -5.29193115 22.93640137 C-5.82761199 22.40108925 -6.36329284 21.86577713 -6.91520643 21.31424344 C-10.31633334 17.85047993 -11.55299414 15.80063132 -11.91656494 10.89242554 C-11.64941072 7.01868934 -11.01151053 5.30716982 -8.66656494 2.26742554 C-5.24646522 -0.01264095 -4.0199599 0.01310762 0 0 Z " fill="#FCFEFD" transform="translate(139.66656494140625,112.73257446289063)"/>
<path d="M0 0 C18.22865701 -0.07017057 36.45727882 -0.12302754 54.68604183 -0.15543652 C63.15052247 -0.17088646 71.61491904 -0.19194006 80.0793457 -0.22631836 C87.45941668 -0.25627818 94.83942676 -0.27558861 102.21955687 -0.28226548 C106.12504942 -0.28616662 110.03036779 -0.29529551 113.93580437 -0.31719017 C117.61707645 -0.33765953 121.29810375 -0.34381288 124.97942734 -0.33932304 C126.96370833 -0.34053276 128.9479631 -0.35661994 130.93217468 -0.3732605 C144.93818566 -0.32507711 144.93818566 -0.32507711 150 3 C150.73060513 5.10804462 150.73060513 5.10804462 151 7 C151.66 7 152.32 7 153 7 C153.86383596 10.72819286 154.1236351 14.16869634 154.12025452 17.99214172 C154.12231651 19.79466652 154.12231651 19.79466652 154.12442017 21.63360596 C154.12082489 22.94343445 154.11722961 24.25326294 154.11352539 25.6027832 C154.11324318 27.00251768 154.11340192 28.4022523 154.1139679 29.80198669 C154.11425453 33.59497108 154.10837941 37.38792378 154.10139394 41.18090081 C154.09513814 45.14738825 154.09455484 49.11387643 154.09336853 53.08036804 C154.09026178 60.58839359 154.08205723 68.09640457 154.07201904 75.6044237 C154.06083753 84.15334718 154.05534231 92.70227135 154.05032361 101.25120032 C154.03987408 118.83414198 154.02228734 136.41706945 154 154 C153.34 153.67 152.68 153.34 152 153 C152.00276538 152.28308644 152.00553076 151.56617289 152.00837994 150.82753468 C152.0746298 133.38433211 152.12427571 115.9411615 152.15543652 98.49786091 C152.17090614 90.06241144 152.19199746 81.62704596 152.22631836 73.19165039 C152.25621783 65.83945176 152.27557431 58.48731394 152.28226548 51.1350562 C152.28617683 47.24198738 152.29537091 43.34909255 152.31719017 39.45607948 C152.33756405 35.79123506 152.34383203 32.12663617 152.33932304 28.46174049 C152.34054089 26.47668959 152.35667834 24.49166537 152.3732605 22.50668335 C152.36707451 20.72940102 152.36707451 20.72940102 152.36076355 18.91621399 C152.36352893 17.88841481 152.36629431 16.86061563 152.36914349 15.80167103 C151.94244365 12.56316728 150.77292607 10.70625852 149 8 C149 7.34 149 6.68 149 6 C147.824375 5.5359375 147.824375 5.5359375 146.625 5.0625 C144 4 144 4 142 3 C140.12478323 2.90634594 138.2461751 2.87808979 136.36862183 2.87974548 C134.57228302 2.87768349 134.57228302 2.87768349 132.73965454 2.87557983 C131.40570044 2.87911919 130.07174658 2.882754 128.73779297 2.88647461 C127.338501 2.88675656 125.93920888 2.88659858 124.53991699 2.8860321 C120.73435878 2.88574446 116.92883191 2.89163594 113.123281 2.89860606 C109.14876812 2.904845 105.17425457 2.90544383 101.19973755 2.90663147 C93.67036256 2.90974319 86.14100203 2.91795444 78.61163342 2.92798096 C70.04101449 2.93914703 61.47039489 2.9446538 52.8997705 2.94967639 C35.26650545 2.96013717 17.63325389 2.97773354 0 3 C0 2.01 0 1.02 0 0 Z " fill="#518BBE" transform="translate(133,111)"/>
<path d="M0 0 C1.48206495 0.254496 2.96068615 0.52911762 4.4375 0.8125 C5.67306641 1.03873047 5.67306641 1.03873047 6.93359375 1.26953125 C7.95646484 1.63111328 7.95646484 1.63111328 9 2 C9.33 2.99 9.66 3.98 10 5 C11.175625 5.12375 12.35125 5.2475 13.5625 5.375 C16.2772903 5.6607674 18.56410077 6.1788341 21.18455982 7.00958538 C25.12157455 8.03155841 28.42067794 8.25420137 32.4806366 8.26069641 C33.56109102 8.26643473 33.56109102 8.26643473 34.66337281 8.27228898 C37.05975597 8.28254855 39.45589636 8.27864029 41.85229492 8.2746582 C43.57767965 8.27900871 45.30306244 8.28419299 47.02844238 8.29014587 C51.70432615 8.30351401 56.38012898 8.30411673 61.05602813 8.30158257 C64.9671615 8.30051089 68.87827862 8.30540155 72.7894085 8.310188 C82.02343644 8.32127669 91.25742371 8.32172487 100.49145508 8.31567383 C109.99638722 8.30964063 119.50117109 8.32192989 129.00607795 8.3432439 C137.18299397 8.36090132 145.35986298 8.36685454 153.53679734 8.36360615 C158.41307851 8.36179897 163.28925401 8.36437244 168.16551781 8.37832069 C172.75632481 8.39096111 177.34690223 8.38889656 181.93770599 8.37590981 C183.61456952 8.37355754 185.29144952 8.3762298 186.96829414 8.38453293 C195.50905002 8.42374522 203.35966455 8.1429441 211.59958363 5.54550457 C214.16023935 4.96358494 215.54983935 5.14071558 218 6 C216.17016859 6.65568959 214.3359079 7.29902213 212.5 7.9375 C211.4790625 8.29714844 210.458125 8.65679687 209.40625 9.02734375 C203.20565538 10.79792639 197.07831383 11.12497946 190.65812683 11.13371277 C189.96484876 11.13597833 189.27157068 11.13824388 188.55728418 11.14057809 C186.25846823 11.14685525 183.95971219 11.14609281 181.66088867 11.14526367 C180.00270004 11.14825908 178.3445121 11.15166249 176.68632507 11.15544128 C172.19859629 11.16424639 167.7108866 11.16661792 163.22315001 11.16725707 C160.41488622 11.16796953 157.60662723 11.17010756 154.79836464 11.17275429 C144.98853881 11.18199603 135.17872653 11.18609063 125.36889648 11.18530273 C116.2451097 11.1847022 107.12138209 11.19525237 97.99761027 11.2110464 C90.14680842 11.22414934 82.29602584 11.22948548 74.44521314 11.22884732 C69.76405937 11.22859316 65.08295823 11.23139944 60.40181541 11.24202538 C55.99653832 11.25175287 51.59136368 11.25175384 47.18608284 11.24450874 C45.57652511 11.24346868 43.96696084 11.24579114 42.35741425 11.2518692 C31.15523941 11.29140563 20.63529577 10.72865621 10.0625 6.625 C9.00160156 6.22539062 7.94070312 5.82578125 6.84765625 5.4140625 C3.92531968 3.96291594 2.14652038 2.43099898 0 0 Z " fill="#4B8ABC" transform="translate(86,330)"/>
<path d="M0 0 C0 0.66 0 1.32 0 2 C-15.26732547 9.59678514 -32.07269399 9.15118149 -48.78442383 9.14526367 C-50.19270922 9.14826707 -51.6009938 9.15167224 -53.00927734 9.15544128 C-56.78894441 9.16417022 -60.56858876 9.16661478 -64.34826493 9.16725707 C-66.72601629 9.16797448 -69.10376211 9.17012175 -71.48151207 9.17275429 C-79.82385999 9.18197438 -88.16619207 9.1860938 -96.50854492 9.18530273 C-104.20697865 9.18470439 -111.90534177 9.19521699 -119.60375768 9.2110464 C-126.27447828 9.22425921 -132.94517622 9.22948089 -139.61590976 9.22884732 C-143.57253081 9.22859612 -147.52908912 9.23123167 -151.48569679 9.24202538 C-170.07291678 9.28934134 -188.48115825 8.80656517 -207 7 C-207 6.01 -207 5.02 -207 4 C-206.25770708 4.14137264 -205.51541416 4.28274529 -204.75062752 4.42840195 C-195.48415326 6.03982651 -186.45736869 6.28482849 -177.09326172 6.25878906 C-175.43433479 6.26150561 -173.77540907 6.26507023 -172.1164856 6.26940918 C-167.64968654 6.2784552 -163.18298082 6.27502176 -158.71618032 6.26865101 C-154.020837 6.26355207 -149.32550114 6.26829305 -144.63015747 6.27142334 C-136.75065694 6.27505099 -128.87119403 6.27029477 -120.99169922 6.26074219 C-111.90472461 6.2498524 -102.81783972 6.25339189 -93.73086727 6.264395 C-85.9011909 6.27349316 -78.07154141 6.27474103 -70.24186146 6.26951766 C-65.57755573 6.26641282 -60.91329207 6.26594768 -56.24898911 6.27259064 C-51.86415564 6.27840067 -47.47943709 6.27430079 -43.09461594 6.26280212 C-41.49312022 6.26017533 -39.8916147 6.26088642 -38.29012299 6.26532745 C-27.48806505 6.29250312 -17.11399377 5.92161755 -6.9375 1.875 C-2.16788321 0 -2.16788321 0 0 0 Z " fill="#F4FEFE" transform="translate(308,334)"/>
<path d="M0 0 C0.33 0 0.66 0 1 0 C1.00146656 0.85015655 1.00293312 1.70031309 1.00444412 2.57623196 C1.04160733 23.32846349 1.1007474 44.08053293 1.18390274 64.83263302 C1.22359544 74.86848634 1.25603733 84.90426236 1.27099609 94.94018555 C1.28406349 103.69453242 1.31115689 112.44870849 1.35461307 121.20295912 C1.37711416 125.83191415 1.39291756 130.46065943 1.39188385 135.089674 C1.39113046 139.46055208 1.40934946 143.8309685 1.44116783 148.20172691 C1.44957835 149.79260903 1.4514782 151.38354349 1.44580269 152.97443771 C1.41085282 164.29241681 1.53102666 178.29653999 8 188 C8.99 188.33 9.98 188.66 11 189 C10.773125 189.5775 10.54625 190.155 10.3125 190.75 C9.73494807 193.12172477 9.73494807 193.12172477 11.4375 195.25 C11.953125 195.8275 12.46875 196.405 13 197 C14.32 196.67 15.64 196.34 17 196 C17.5534764 198.07553648 18 199.84365964 18 202 C18.66 202 19.32 202 20 202 C20.66 202.66 21.32 203.32 22 204 C22.99 204 23.98 204 25 204 C24.34 205.65 23.68 207.3 23 209 C24.65 210.65 26.3 212.3 28 214 C15.69752819 208.29686737 7.53836618 195.8186012 2.97265625 183.49609375 C0.07024219 173.06372192 -0.27844836 162.98177483 -0.22705078 152.23754883 C-0.22648562 150.57092292 -0.22680528 148.90429652 -0.22793579 147.2376709 C-0.22850619 142.74461953 -0.21680287 138.25167642 -0.20278788 133.75865006 C-0.19022805 129.05148264 -0.18910589 124.34431233 -0.18673706 119.63713074 C-0.18053766 110.73744073 -0.16414781 101.83780025 -0.14403808 92.93813199 C-0.12163099 82.8002291 -0.11067358 72.66232377 -0.10064721 62.52440226 C-0.07978012 41.68290727 -0.04463428 20.84145676 0 0 Z " fill="#3A7BB0" transform="translate(58,116)"/>
<path d="M0 0 C1.1193231 -0.00467997 1.1193231 -0.00467997 2.26125878 -0.00945449 C4.74523326 -0.0173896 7.22896039 -0.01112841 9.7129364 -0.00482178 C11.50067792 -0.0075337 13.28841832 -0.01109577 15.07615662 -0.01544189 C19.92132829 -0.02454613 24.76641463 -0.0210292 29.61158776 -0.01468372 C34.69047283 -0.00961122 39.76935072 -0.01431887 44.84823608 -0.01745605 C53.37980965 -0.02109304 61.91134857 -0.01630463 70.44291687 -0.0067749 C80.29095375 0.00409866 90.13890774 0.00059097 99.98694259 -0.01042771 C108.45426843 -0.01952069 116.9215694 -0.02077573 125.38889855 -0.01555037 C130.44058761 -0.01244038 135.4922378 -0.01199439 140.54392433 -0.01862335 C145.29720029 -0.02442507 150.05037008 -0.0203484 154.80363464 -0.00883484 C156.54261283 -0.00620287 158.28160004 -0.00692816 160.02057457 -0.01136017 C168.60535206 -0.03121256 176.92634576 -0.03823192 185.27812195 2.25396729 C185.27812195 3.24396729 185.27812195 4.23396729 185.27812195 5.25396729 C184.32391452 5.04172421 183.36970709 4.82948114 182.38658428 4.61080647 C172.15023951 2.44645322 162.408647 1.82724007 151.9707489 1.88165283 C150.30477167 1.87921716 148.63879591 1.87549038 146.9728241 1.87059021 C142.49982076 1.86128583 138.02704025 1.87051626 133.5540545 1.88392234 C128.84498636 1.89534798 124.13592742 1.89112097 119.42684937 1.88917542 C111.52656978 1.88829618 103.62637662 1.89929704 95.72612 1.91778564 C86.62264461 1.93896954 77.51929545 1.94245618 68.41580039 1.93622369 C59.61439447 1.93050908 50.8130325 1.93619892 42.01163292 1.94739723 C38.28510402 1.95201327 34.55860226 1.95293019 30.8320713 1.95081139 C26.43815389 1.94891347 22.04436309 1.95714661 17.65047455 1.97287178 C16.04820721 1.97707626 14.44592693 1.97799141 12.84365654 1.97518158 C3.49187963 1.96128167 -5.50106011 2.4997714 -14.72187805 4.25396729 C-14.72187805 3.59396729 -14.72187805 2.93396729 -14.72187805 2.25396729 C-9.72291179 0.62354168 -5.27169259 -0.03434323 0 0 Z " fill="#EBFDFE" transform="translate(115.72187805175781,56.74603271484375)"/>
<path d="M0 0 C0.66 0 1.32 0 2 0 C1.85825914 0.58681203 1.71651829 1.17362406 1.57048225 1.77821827 C-0.35476119 10.79471266 -0.26790992 19.70032218 -0.22705078 28.86401367 C-0.22648572 30.64886468 -0.22680508 32.43371615 -0.22793579 34.21856689 C-0.22850661 39.033919 -0.21679646 43.84917025 -0.20278788 48.66449904 C-0.19023506 53.70799347 -0.18910644 58.75149053 -0.18673706 63.79499817 C-0.18053562 73.33217398 -0.16414297 82.86930362 -0.14403808 92.40645915 C-0.12163738 103.26986262 -0.11067518 114.13326836 -0.10064721 124.9966892 C-0.0797755 147.33115167 -0.04462563 169.66557324 0 192 C-0.66 191.67 -1.32 191.34 -2 191 C-2.04666364 166.39201103 -2.08196114 141.78402867 -2.10362434 117.17600441 C-2.11394906 105.7507848 -2.12803215 94.32559263 -2.15087891 82.90039062 C-2.17077628 72.94539541 -2.18370774 62.99042006 -2.18817699 53.03540552 C-2.19079058 47.76140851 -2.19695831 42.48746836 -2.21146011 37.21348953 C-2.22498639 32.25433446 -2.22923273 27.29525994 -2.22621536 22.33608818 C-2.22676776 20.51150895 -2.23077459 18.68692715 -2.23841095 16.86236382 C-2.24829481 14.38003532 -2.24599311 11.89801488 -2.24050903 9.41567993 C-2.24633472 8.68611639 -2.2521604 7.95655284 -2.25816262 7.20488131 C-2.22824242 2.22824242 -2.22824242 2.22824242 0 0 Z " fill="#EAFDFE" transform="translate(59,101)"/>
<path d="M0 0 C0.75304759 0.14067587 1.50609518 0.28135174 2.28196239 0.42629051 C11.20964189 1.96202112 19.95016443 2.3063101 28.97973633 2.31884766 C30.53828946 2.32816959 32.09683769 2.33834154 33.65538025 2.34928894 C37.84454918 2.37634801 42.03368496 2.39166596 46.2229178 2.40471697 C50.61647948 2.42045418 55.00997448 2.44721004 59.40348816 2.4727478 C67.70453265 2.51934953 76.00558996 2.55618309 84.30669755 2.58942068 C93.76514347 2.62777434 103.22352211 2.67714936 112.68191111 2.72740483 C132.12122468 2.83044762 151.56057944 2.91979707 171 3 C171 3.33 171 3.66 171 4 C150.32857125 4.02339567 129.65714469 4.04101189 108.98570538 4.05181217 C99.38686873 4.05696098 89.78804033 4.06397664 80.18920898 4.07543945 C71.81955469 4.0854296 63.44990636 4.09186372 55.08024627 4.09408849 C50.65161608 4.09538826 46.22300298 4.09842744 41.79437828 4.10573006 C37.61905103 4.11255869 33.44374776 4.11460313 29.26841545 4.11310768 C27.74271769 4.11338095 26.21701905 4.11534523 24.69132614 4.11920547 C16.41117737 4.13911349 8.23394607 3.95792112 0 3 C0 2.01 0 1.02 0 0 Z " fill="#DFFDFE" transform="translate(101,338)"/>
<path d="M0 0 C2.94693463 3.27198123 3.37613927 5.41611698 3.38095093 9.77577209 C3.3894104 10.95491684 3.39786987 12.13406158 3.40658569 13.34893799 C3.400513 14.63894714 3.39444031 15.9289563 3.38818359 17.25805664 C3.39224955 18.63307614 3.39759157 20.00809237 3.40411377 21.38310242 C3.41778917 25.11443445 3.41248825 28.84551761 3.40297651 32.57685399 C3.39538257 36.48055903 3.40242464 40.38424273 3.40713501 44.28794861 C3.41259269 50.84247668 3.40539997 57.39690334 3.39111328 63.95141602 C3.37477988 71.53254728 3.38008013 79.1134366 3.3965925 86.69456202 C3.41019892 93.20166315 3.41213139 99.70869138 3.40427649 106.21580213 C3.39959618 110.10312234 3.39898502 113.99032875 3.40888596 117.87764168 C3.41754138 121.53109272 3.41156018 125.18423118 3.39420319 128.83764839 C3.3883337 130.82062473 3.39726556 132.80362746 3.40658569 134.78659058 C3.39389648 136.55107796 3.39389648 136.55107796 3.38095093 138.35121155 C3.37981985 139.37565904 3.37868877 140.40010653 3.37752342 141.45559788 C2.9481648 144.34935474 2.27307126 145.23389962 0 147 C0 144 0 144 1 143 C1.10849442 141.25411375 1.14687036 139.50384069 1.15821838 137.75462341 C1.1680072 136.61733795 1.17779602 135.48005249 1.18788147 134.30830383 C1.19363693 133.04954941 1.1993924 131.79079498 1.20532227 130.49389648 C1.21522186 129.17701843 1.22512146 127.86014038 1.23532104 126.50335693 C1.26243433 122.88165045 1.28340898 119.25993085 1.30332303 115.63817859 C1.32514311 111.85715497 1.35255119 108.07617208 1.37937927 104.29518127 C1.42936013 97.13058664 1.47427888 89.96596946 1.51740164 82.80133063 C1.56672802 74.64665946 1.62166315 66.49202914 1.67708123 58.33739746 C1.79098403 41.5583026 1.8978049 24.77917034 2 8 C0.68 7.67 -0.64 7.34 -2 7 C-1.34 4.69 -0.68 2.38 0 0 Z " fill="#E6FDFE" transform="translate(283,120)"/>
<path d="M0 0 C0.66 0 1.32 0 2 0 C2.26554687 1.19238281 2.53109375 2.38476562 2.8046875 3.61328125 C3.16113217 5.17976175 3.51792097 6.74616398 3.875 8.3125 C4.13603516 9.49102539 4.13603516 9.49102539 4.40234375 10.69335938 C4.57636719 11.45068359 4.75039063 12.20800781 4.9296875 12.98828125 C5.08679199 13.68477783 5.24389648 14.38127441 5.40576172 15.09887695 C5.99513393 17.29734212 5.99513393 17.29734212 8 20 C8.99 20.33 9.98 20.66 11 21 C10.773125 21.5775 10.54625 22.155 10.3125 22.75 C9.73494807 25.12172477 9.73494807 25.12172477 11.4375 27.25 C12.2109375 28.11625 12.2109375 28.11625 13 29 C14.32 28.67 15.64 28.34 17 28 C17.5534764 30.07553648 18 31.84365964 18 34 C18.66 34 19.32 34 20 34 C20.66 34.66 21.32 35.32 22 36 C22.99 36 23.98 36 25 36 C24.01 38.475 24.01 38.475 23 41 C25.475 43.475 25.475 43.475 28 46 C16.84799959 40.83019849 8.59924845 29.62837708 4.0625 18.5 C1.9382138 12.44212177 0.76812567 6.36283204 0 0 Z " fill="#357EBD" transform="translate(58,284)"/>
<path d="M0 0 C0.33 0.66 0.66 1.32 1 2 C0.34 2 -0.32 2 -1 2 C-1 2.66 -1 3.32 -1 4 C-1.99 4.33 -2.98 4.66 -4 5 C-4.33 5.66 -4.66 6.32 -5 7 C-5.99 7.33 -6.98 7.66 -8 8 C-8.33 8.99 -8.66 9.98 -9 11 C-11.0625 11.6875 -11.0625 11.6875 -13 12 C-13 12.66 -13 13.32 -13 14 C-13.70125 14.61875 -14.4025 15.2375 -15.125 15.875 C-22.9701546 23.49854007 -25.85367288 35.80924136 -29 46 C-29.33 46 -29.66 46 -30 46 C-29.19530143 30.17426137 -21.22832504 17.523742 -10.03125 6.7265625 C-6.92048466 4.08241196 -3.56655902 1.97299009 0 0 Z " fill="#4782B8" transform="translate(89,66)"/>
<path d="M0 0 C10.17208057 -0.56803759 19.62187055 -0.8246574 29.3125 2.6875 C29.98595459 2.93129395 30.65940918 3.17508789 31.35327148 3.42626953 C36.10703404 5.3129954 39.9325297 7.9112483 44 11 C41.08585452 12.45707274 39.13079879 11.68877573 36 11 C33.625 9.9375 33.625 9.9375 32 9 C32.33 8.01 32.66 7.02 33 6 C32.0409375 6.0928125 32.0409375 6.0928125 31.0625 6.1875 C28.22764123 6.01393722 26.54925 5.54071909 23.9375 4.5625 C18.96621713 2.85836258 14.15407537 2.25362235 8.9375 1.8125 C7.6390918 1.6897168 7.6390918 1.6897168 6.31445312 1.56445312 C4.21050226 1.36684448 2.10535418 1.18204995 0 1 C0 0.67 0 0.34 0 0 Z " fill="#3D81BC" transform="translate(272,59)"/>
<path d="M0 0 C0.66 0 1.32 0 2 0 C0.69529574 4.96082466 -1.47336281 8.2547901 -4.9375 11.9375 C-5.66078491 12.71637573 -5.66078491 12.71637573 -6.39868164 13.51098633 C-11.74926351 19.072992 -18.24573549 24.50671936 -26 26 C-26 25.01 -26 24.02 -26 23 C-24.35 23 -22.7 23 -21 23 C-21 22.34 -21 21.68 -21 21 C-20.01 21 -19.02 21 -18 21 C-18 20.01 -18 19.02 -18 18 C-16.68 18 -15.36 18 -14 18 C-14 17.01 -14 16.02 -14 15 C-11.81530769 12.81530769 -10.03878198 11.18886945 -6.9375 10.625 C-4.86447919 10.18509451 -4.86447919 10.18509451 -3.9375 8.3125 C-3.628125 7.549375 -3.31875 6.78625 -3 6 C-2 4 -1 2 0 0 Z " fill="#4184BD" transform="translate(330,309)"/>
<path d="M0 0 C0.66 0 1.32 0 2 0 C2 1.65 2 3.3 2 5 C1.01 5.33 0.02 5.66 -1 6 C-1.73323796 8.01508358 -1.73323796 8.01508358 -2 10 C-1.34 10 -0.68 10 0 10 C0.66 10.66 1.32 11.32 2 12 C2.99 12.66 3.98 13.32 5 14 C5.6875 17.125 5.6875 17.125 6 20 C3 20 3 20 0.375 17.6875 C-2.44441926 14.49710452 -2.93770097 12.8410369 -3.25 8.625 C-2.98617182 4.79949132 -2.352344 2.98566738 0 0 Z " fill="#E3F5FA" transform="translate(131,115)"/>
<path d="M0 0 C0.66 0 1.32 0 2 0 C2.26554687 1.19238281 2.53109375 2.38476562 2.8046875 3.61328125 C3.16113217 5.17976175 3.51792097 6.74616398 3.875 8.3125 C4.13603516 9.49102539 4.13603516 9.49102539 4.40234375 10.69335938 C4.57636719 11.45068359 4.75039063 12.20800781 4.9296875 12.98828125 C5.08679199 13.68477783 5.24389648 14.38127441 5.40576172 15.09887695 C5.99513393 17.29734212 5.99513393 17.29734212 8 20 C8.99 20.33 9.98 20.66 11 21 C10.773125 21.556875 10.54625 22.11375 10.3125 22.6875 C9.87763215 25.90552211 11.30982657 27.32389207 13 30 C12.67 30.66 12.34 31.32 12 32 C4.43966343 22.71158649 1.41694662 11.73739367 0 0 Z " fill="#4281BA" transform="translate(58,284)"/>
<path d="M0 0 C3.68579122 3.22914452 5.68356245 6.88653531 7.75 11.25 C8.06582031 11.8996875 8.38164062 12.549375 8.70703125 13.21875 C9.47873965 14.80893701 10.24040275 16.40399229 11 18 C10.34 18.33 9.68 18.66 9 19 C9 18.01 9 17.02 9 16 C7.68 16 6.36 16 5 16 C0 4.07692308 0 4.07692308 0 0 Z " fill="#4386C0" transform="translate(326,80)"/>
<path d="M0 0 C1.48206495 0.254496 2.96068615 0.52911762 4.4375 0.8125 C5.67306641 1.03873047 5.67306641 1.03873047 6.93359375 1.26953125 C7.95646484 1.63111328 7.95646484 1.63111328 9 2 C9.33 2.99 9.66 3.98 10 5 C11.175625 5.12375 12.35125 5.2475 13.5625 5.375 C17.54120426 5.86435935 21.17766559 6.8055205 25 8 C24.67 8.66 24.34 9.32 24 10 C15.42818646 9.4019665 5.76314493 6.57643545 0 0 Z " fill="#4A89BF" transform="translate(86,330)"/>
<path d="M0 0 C2.76276177 0.52268466 5.3260876 1.10869587 8 2 C8.6875 4.0625 8.6875 4.0625 9 6 C9.66 6 10.32 6 11 6 C11.33 8.64 11.66 11.28 12 14 C10.20942651 11.80247799 9.02834673 10.0850402 8.125 7.375 C7.19233236 4.77487365 7.19233236 4.77487365 4.5 3.75 C3.675 3.5025 2.85 3.255 2 3 C1.34 2.67 0.68 2.34 0 2 C0 1.34 0 0.68 0 0 Z " fill="#4484C1" transform="translate(275,112)"/>
<path d="M0 0 C0 0.66 0 1.32 0 2 C-1.43671568 2.64757625 -2.87440416 3.29299453 -4.3125 3.9375 C-5.11300781 4.29714844 -5.91351563 4.65679687 -6.73828125 5.02734375 C-10.77666979 6.76406007 -13.81392683 7.10952767 -18.1875 7.0625 C-19.81751953 7.04896484 -19.81751953 7.04896484 -21.48046875 7.03515625 C-22.31191406 7.02355469 -23.14335937 7.01195312 -24 7 C-24 6.67 -24 6.34 -24 6 C-23.33355469 5.90203125 -22.66710937 5.8040625 -21.98046875 5.703125 C-15.74167138 4.69095648 -10.09713496 3.11709466 -4.21484375 0.8046875 C-2 0 -2 0 0 0 Z " fill="#D6EFF9" transform="translate(308,334)"/>
<path d="M0 0 C1.98 0.66 3.96 1.32 6 2 C6 2.66 6 3.32 6 4 C9.96 4 13.92 4 18 4 C13.46715037 7.39963723 12.42649886 7.46894208 7.1953125 6.7265625 C3.47946501 5.49676244 2.11497634 3.20657703 0 0 Z " fill="#DAF5FC" transform="translate(264,264)"/>
<path d="M0 0 C0.66 0.33 1.32 0.66 2 1 C-0.92076255 5.90688109 -4.27878868 9.72073499 -9 13 C-9.66 13 -10.32 13 -11 13 C-11 13.66 -11 14.32 -11 15 C-11.99 14.67 -12.98 14.34 -14 14 C-13.32453125 13.40832031 -12.6490625 12.81664062 -11.953125 12.20703125 C-11.06109375 11.41683594 -10.1690625 10.62664062 -9.25 9.8125 C-8.36828125 9.03519531 -7.4865625 8.25789063 -6.578125 7.45703125 C-4.12113732 5.11544754 -2.05137234 2.69841735 0 0 Z " fill="#E1F6FB" transform="translate(329,315)"/>
<path d="M0 0 C0.33 0.66 0.66 1.32 1 2 C-0.7685969 4.38376103 -2.22096617 5.79559296 -5.12890625 6.55859375 C-9.48680469 7.1401255 -12.11760547 7.27649498 -16 5 C-15.67 4.34 -15.34 3.68 -15 3 C-14.12988281 3.17789062 -14.12988281 3.17789062 -13.2421875 3.359375 C-7.55616062 4.30861415 -7.55616062 4.30861415 -2.4375 2.0625 C-1.633125 1.381875 -0.82875 0.70125 0 0 Z " fill="#4986B9" transform="translate(284,266)"/>
<path d="M0 0 C-0.99 0.66 -1.98 1.32 -3 2 C-4.77882289 7.33646866 -4.44723163 11.95258476 -2 17 C-3.32 16.34 -4.64 15.68 -6 15 C-6 10.05 -6 5.1 -6 0 C-3 -1 -3 -1 0 0 Z " fill="#4584BA" transform="translate(133,115)"/>
<path d="M0 0 C0.66 0 1.32 0 2 0 C2 1.65 2 3.3 2 5 C-3.41538462 6.23076923 -3.41538462 6.23076923 -6.375 5.0625 C-6.91125 4.711875 -7.4475 4.36125 -8 4 C-4.77208445 1.8480563 -3.71599191 1.79913557 0 2 C0 1.34 0 0.68 0 0 Z " fill="#F5F9F8" transform="translate(318,328)"/>
<path d="M0 0 C5.875 0.875 5.875 0.875 7 2 C7.04063832 3.66617115 7.042721 5.33388095 7 7 C6.01 7.33 5.02 7.66 4 8 C2.68 5.36 1.36 2.72 0 0 Z " fill="#EAF7F8" transform="translate(329,83)"/>
<path d="M0 0 C1.98 0.99 1.98 0.99 4 2 C4 6.62 4 11.24 4 16 C2.14316785 12.28633571 1.48888644 9.7841109 0.875 5.75 C0.70742188 4.67234375 0.53984375 3.5946875 0.3671875 2.484375 C0.24601562 1.66453125 0.12484375 0.8446875 0 0 Z " fill="#E3F8FD" transform="translate(338,102)"/>
<path d="M0 0 C2.29141286 -0.05384521 4.58318188 -0.09272087 6.875 -0.125 C8.78925781 -0.15980469 8.78925781 -0.15980469 10.7421875 -0.1953125 C14 0 14 0 16 2 C16 2.66 16 3.32 16 4 C10.72 3.01 5.44 2.02 0 1 C0 0.67 0 0.34 0 0 Z " fill="#D5F1FB" transform="translate(285,58)"/>
<path d="M0 0 C0.99 0.33 1.98 0.66 3 1 C2.06409496 2.1055189 1.12620142 3.20935453 0.1875 4.3125 C-0.33457031 4.92738281 -0.85664062 5.54226562 -1.39453125 6.17578125 C-2.87172469 7.85424679 -4.40039131 9.43882034 -6 11 C-5.43518386 7.04628701 -4.28003407 4.28324906 -2 1 C-1.34 0.67 -0.68 0.34 0 0 Z " fill="#DDF4FC" transform="translate(73,76)"/>
<path d="M0 0 C4.50884026 2.31883213 6.93906776 5.06451569 10 9 C9.01 9 8.02 9 7 9 C5.98594743 7.67732273 4.98731742 6.34275169 4 5 C1.91665365 3.7483533 1.91665365 3.7483533 0 3 C0 2.01 0 1.02 0 0 Z " fill="#4F87B5" transform="translate(316,71)"/>
<path d="M0 0 C1.5625 1.25 1.5625 1.25 3 3 C2.6875 5.1875 2.6875 5.1875 2 7 C0.35 5.35 -1.3 3.7 -3 2 C-2.01 1.34 -1.02 0.68 0 0 Z " fill="#E6F4F9" transform="translate(221,216)"/>
<path d="M0 0 C0.66 0 1.32 0 2 0 C1.34 3.63 0.68 7.26 0 11 C-1.86870807 7.26258387 -2.41702384 5.96172649 -2 2 C-1.34 1.34 -0.68 0.68 0 0 Z " fill="#DBF3FB" transform="translate(59,101)"/>
<path d="M0 0 C2.52349243 3.12432397 4.27256146 6.38060496 6 10 C5.34 10.66 4.68 11.32 4 12 C3.67 10.35 3.34 8.7 3 7 C2.34 7 1.68 7 1 7 C0.67 4.69 0.34 2.38 0 0 Z " fill="#D9EEF8" transform="translate(64,306)"/>
<path d="M0 0 C2.3125 0.1875 2.3125 0.1875 5 1 C6.8125 3.5625 6.8125 3.5625 8 6 C5 6 5 6 3.61328125 4.6875 C2.40885417 3.125 1.20442708 1.5625 0 0 Z " fill="#EAFAFD" transform="translate(319,72)"/>
<path d="M0 0 C1.48206495 0.254496 2.96068615 0.52911762 4.4375 0.8125 C5.67306641 1.03873047 5.67306641 1.03873047 6.93359375 1.26953125 C7.95646484 1.63111328 7.95646484 1.63111328 9 2 C9.33 2.99 9.66 3.98 10 5 C5.2482602 4.56802365 3.07999946 3.67230705 0 0 Z " fill="#4380BB" transform="translate(86,330)"/>
<path d="M0 0 C1.98 0 3.96 0 6 0 C6.33 0.66 6.66 1.32 7 2 C6.67 2.33 6.34 2.66 6 3 C6 3.99 6 4.98 6 6 C3.97945196 4.35830472 1.97956942 2.69088222 0 1 C0 0.67 0 0.34 0 0 Z " fill="#E0F4F9" transform="translate(256,256)"/>
<path d="M0 0 C1.32 0.33 2.64 0.66 4 1 C-2.75 5 -2.75 5 -5 5 C-5 4.01 -5 3.02 -5 2 C-3.35 2 -1.7 2 0 2 C0 1.34 0 0.68 0 0 Z " fill="#4783B7" transform="translate(309,330)"/>
<path d="M0 0 C1.98 1.65 3.96 3.3 6 5 C3 6 3 6 0.8125 5.0625 C0.214375 4.711875 -0.38375 4.36125 -1 4 C-0.67 2.68 -0.34 1.36 0 0 Z " fill="#DDF5FD" transform="translate(73,320)"/>
<path d="M0 0 C2 2 2 2 2.125 5.125 C2.08375 6.07375 2.0425 7.0225 2 8 C0.68 7.67 -0.64 7.34 -2 7 C-1.34 4.69 -0.68 2.38 0 0 Z " fill="#F0FBF8" transform="translate(283,120)"/>
</svg>
