<?xml version="1.0" encoding="UTF-8"?>
<!DOCTYPE svg PUBLIC "-//W3C//DTD SVG 1.1//EN" "http://www.w3.org/Graphics/SVG/1.1/DTD/svg11.dtd">
<svg xmlns="http://www.w3.org/2000/svg" version="1.1" width="400px" height="400px" style="shape-rendering:geometricPrecision; text-rendering:geometricPrecision; image-rendering:optimizeQuality; fill-rule:evenodd; clip-rule:evenodd" xmlns:xlink="http://www.w3.org/1999/xlink">
<g><path style="opacity:1" fill="#fefefe" d="M -0.5,-0.5 C 132.833,-0.5 266.167,-0.5 399.5,-0.5C 399.5,132.833 399.5,266.167 399.5,399.5C 266.167,399.5 132.833,399.5 -0.5,399.5C -0.5,266.167 -0.5,132.833 -0.5,-0.5 Z"/></g>
<g><path style="opacity:1" fill="#010101" d="M 104.5,63.5 C 153.196,63.0337 201.863,63.5337 250.5,65C 272.62,69.8085 289.787,81.6418 302,100.5C 316.619,126.759 317.286,153.426 304,180.5C 289.297,204.615 267.797,218.282 239.5,221.5C 266.255,259.343 293.255,297.01 320.5,334.5C 300.508,335.666 280.508,335.833 260.5,335C 233.333,297.167 206.167,259.333 179,221.5C 178.177,206.925 178.344,192.425 179.5,178C 198.833,177.667 218.167,177.333 237.5,177C 258.1,170.32 266.933,156.153 264,134.5C 259.162,118.824 248.662,109.824 232.5,107.5C 190.003,106.501 147.337,106.168 104.5,106.5C 104.5,92.1667 104.5,77.8333 104.5,63.5 Z"/></g>
<g><path style="opacity:1" fill="#666666" d="M 104.5,63.5 C 104.5,77.8333 104.5,92.1667 104.5,106.5C 147.337,106.168 190.003,106.501 232.5,107.5C 189.5,107.5 146.5,107.5 103.5,107.5C 103.171,92.6572 103.504,77.9905 104.5,63.5 Z"/></g>
<g><path style="opacity:1" fill="#000000" d="M 104.5,130.5 C 121.167,130.5 137.833,130.5 154.5,130.5C 154.5,198.833 154.5,267.167 154.5,335.5C 137.833,335.5 121.167,335.5 104.5,335.5C 104.5,267.167 104.5,198.833 104.5,130.5 Z"/></g>
</svg>
