<svg version="1.0" xmlns="http://www.w3.org/2000/svg"
 width="512.000000pt" height="513.000000pt" viewBox="0 0 512.000000 513.000000"
 preserveAspectRatio="xMidYMid meet">

<g transform="translate(0.000000,513.000000) scale(0.100000,-0.100000)"
fill="#000000" stroke="none">
<path d="M0 2570 l0 -2560 2560 0 2560 0 0 2560 0 2560 -2560 0 -2560 0 0
-2560z m3039 1154 c304 -101 476 -439 546 -1074 24 -219 35 -501 35 -893 0
-285 -3 -369 -12 -372 -13 -5 -322 -10 -430 -7 l-58 2 0 268 c-1 344 -17 882
-30 997 -25 218 -65 394 -115 503 -96 211 -265 225 -407 34 -160 -215 -295
-604 -568 -1639 l-43 -163 -224 0 -223 0 0 1170 0 1170 250 0 250 0 1 -477 c0
-288 4 -470 9 -458 5 11 32 83 61 160 188 513 402 767 677 804 93 13 194 4
281 -25z"/>
</g>
</svg>
