<?xml version="1.0" encoding="UTF-8"?>
<svg xmlns="http://www.w3.org/2000/svg" xmlns:xlink="http://www.w3.org/1999/xlink" width="250px" height="250px" viewBox="0 0 250 250" version="1.1">
<g id="surface1">
<path style=" stroke:none;fill-rule:nonzero;fill:rgb(0%,23.921569%,100%);fill-opacity:1;" d="M 125 0 C 56.734375 0 1.082031 55.042969 0.0976562 123.078125 C -0.902344 192.175781 55.15625 249.429688 124.261719 249.828125 C 145.601562 249.953125 166.15625 244.734375 184.410156 234.816406 C 186.191406 233.847656 186.464844 231.402344 184.949219 230.058594 L 173.261719 219.695312 C 170.886719 217.589844 167.503906 216.996094 164.582031 218.238281 C 151.84375 223.660156 137.996094 226.429688 123.730469 226.253906 C 67.890625 225.570312 22.777344 179.113281 23.667969 123.277344 C 24.546875 68.144531 69.664062 23.570312 125 23.570312 L 226.347656 23.570312 L 226.347656 203.703125 L 168.847656 152.613281 C 166.984375 150.960938 164.132812 151.285156 162.632812 153.269531 C 153.402344 165.488281 138.371094 173.09375 121.671875 171.9375 C 98.503906 170.339844 79.738281 151.691406 78 128.535156 C 75.925781 100.917969 97.8125 77.777344 125 77.777344 C 149.589844 77.777344 169.839844 96.703125 171.953125 120.753906 C 172.140625 122.890625 173.109375 124.886719 174.714844 126.3125 L 189.6875 139.589844 C 191.390625 141.09375 194.085938 140.171875 194.503906 137.941406 C 195.582031 132.167969 195.960938 126.148438 195.539062 119.976562 C 193.125 84.808594 164.640625 56.515625 129.453125 54.347656 C 89.117188 51.859375 55.390625 83.414062 54.320312 122.972656 C 53.273438 161.523438 84.859375 194.753906 123.414062 195.605469 C 139.507812 195.960938 154.425781 190.898438 166.484375 182.132812 L 241.613281 248.734375 C 244.835938 251.589844 249.914062 249.300781 249.914062 245 L 249.914062 4.742188 C 249.914062 2.125 247.792969 0 245.175781 0 Z M 125 0 "/>
</g>
</svg>
