<?xml version="1.0" encoding="utf-8"?>
<svg xmlns="http://www.w3.org/2000/svg" viewBox="0 0 16 16">
<style type="text/css">
	.st0{fill:#01808F;}
	.st1{fill:#FEBD02;}
</style>
<g id="starrocks" transform="scale(0.16)">
	<g>
		<path class="st0" d="M11.8,26.4c-0.1,2.2,0.9,3.4,2.3,4.5c9,7.4,18,14.8,27,22.2c2.5,2.1,2.7,3.5,1,6.2
			c-4.4,6.7-8.8,13.4-13.2,20.1c-1.7,2.5-3.2,2.9-5.9,1.4c-2.8-1.6-5.6-3.2-8.4-4.8c-3.2-1.8-4.8-4.6-4.8-8.3c0-11.8,0-23.6,0-35.5
			C9.8,30.2,10.3,28.4,11.8,26.4z"/>
		<path class="st0" d="M87.9,73.8c0.6-2.3-0.5-3.5-1.9-4.6c-9-7.4-17.9-14.7-26.8-22.1c-2.9-2.4-3.1-3.6-1.1-6.7
			c4.3-6.6,8.7-13.2,13-19.8c1.7-2.6,3.3-2.9,6-1.4c2.8,1.6,5.6,3.2,8.3,4.8c3.2,1.8,4.7,4.5,4.7,8.2c0,11.9,0,23.7,0,35.6
			C90.2,69.9,89.6,71.9,87.9,73.8z"/>
		<path class="st0" d="M67.1,56.8c0.6,0.4,17.3,14.1,17.5,14.3c2.4,2.2,2.2,4.1-0.6,5.8C76.8,81,57.3,92.1,54.8,93.6
			c-3.2,1.9-6.4,1.9-9.6,0c-4.6-2.7-9.2-5.3-13.8-8c-2.2-1.3-2.2-2.7,0-3.9C42.3,75.5,53.1,69.2,64,63
			C66.5,61.6,68.2,60.1,67.1,56.8z"/>
		<path class="st1" d="M32.9,43.2c-0.6-0.4-17.3-14.1-17.5-14.3c-2.4-2.2-2.2-4.1,0.6-5.8C23.2,19,42.7,7.9,45.2,6.4
			c3.2-1.9,6.4-1.9,9.6,0c4.6,2.7,9.2,5.3,13.8,8c2.2,1.3,2.2,2.7,0,3.9C57.7,24.5,46.9,30.8,36,37C33.5,38.4,31.8,39.9,32.9,43.2z"/>
	</g>
</g>
</svg>
