
<svg width="250" height="250" viewBox="0 0 1000 1000" version="1.1" xmlns="http://www.w3.org/2000/svg" xmlns:xlink="http://www.w3.org/1999/xlink">

    <title>Logo</title>
    <desc>Created with Sketch.</desc>
    <defs>
        <path d="M671.428571,442.857143 C608.310314,442.857143 557.142857,391.689686 557.142857,328.571429 C557.142857,265.453171 608.310314,214.285714 671.428571,214.285714 C734.546829,214.285714 785.714286,265.453171 785.714286,328.571429 C785.714286,391.689686 734.546829,442.857143 671.428571,442.857143 Z M3.42319152,558.571429 C-3.4815197,499.055408 -20.0363569,272.77234 192.087761,106.063876 C404.211879,-60.6445871 643.845974,11.6093237 698.571429,41.2515604 C580.769825,98.0001725 403.243237,230.339208 286.327927,393.010938 C88.9874561,430.248204 3.42319152,558.571429 3.42319152,558.571429 Z M441.428571,996.576808 C441.428571,996.576808 569.751796,911.012544 606.989062,713.672073 C769.660792,596.756763 901.999828,419.230175 958.74844,301.428571 C988.390676,356.154026 1060.64459,595.788121 893.936124,807.912239 C727.22766,1020.03636 500.944592,1003.48152 441.428571,996.576808 Z M20.6619699,642.857143 C20.6619699,642.857143 159.601004,660.789621 214.285714,714.285714 L100,800 C42.0172991,723.217076 20.6619699,642.857143 20.6619699,642.857143 Z M357.142857,979.339774 C357.142857,979.339774 268.113839,955.703125 191.428571,892.857143 L285.714286,785.714286 C342.220982,860.15904 357.142857,942.140723 357.142857,979.339774 Z" id="path-1"></path>
    </defs>
    <g id="Page-1" stroke="none" stroke-width="1" fill="none" fill-rule="evenodd">
        <g id="Logo">
            <g id="Favicon">
                <circle id="White" fill="#FFFFFF" cx="500" cy="500" r="500"></circle>
                <mask id="mask-2" fill="white">
                    <use xlink:href="#path-1"></use>
                </mask>
                <use id="Combined-Shape" fill="#FFFFFF" xlink:href="#path-1"></use>
                <g id="Group-3" mask="url(#mask-2)">
                    <g transform="translate(503.135534, 503.535534) rotate(45.000000) translate(-503.135534, -503.535534) translate(-171.864466, 3.535534)" id="Rectangle">
                        <rect fill="#FF0000" x="1.83556873e-12" y="800" width="1340" height="200"></rect>
                        <rect fill="#FF6E00" x="-1.50250183e-12" y="600" width="1340" height="200"></rect>
                        <rect fill="#FF9100" x="-2.15383267e-12" y="400" width="1340" height="200"></rect>
                        <rect fill="#FFC300" x="1.21384384e-12" y="200" width="1340" height="200"></rect>
                        <rect fill="#FFE100" x="-1.45069142e-12" y="1.30266168e-12" width="1340" height="200"></rect>
                    </g>
                </g>
                <circle id="Oval" fill="#FFCD00" mask="url(#mask-2)" cx="671.428571" cy="328.571429" r="114.285714"></circle>
            </g>
        </g>
    </g>
</svg>
