<?xml version="1.0" encoding="UTF-8"?>
<svg version="1.1" xmlns="http://www.w3.org/2000/svg" width="225" height="225">
<path d="M0 0 C74.25 0 148.5 0 225 0 C225 74.25 225 148.5 225 225 C150.75 225 76.5 225 0 225 C0 150.75 0 76.5 0 0 Z " fill="#013311" transform="translate(0,0)"/>
<path d="M0 0 C74.25 0 148.5 0 225 0 C225 74.25 225 148.5 225 225 C150.75 225 76.5 225 0 225 C0 150.75 0 76.5 0 0 Z M97 11 C96.34 14.3 95.68 17.6 95 21 C91.57323942 28.73749442 86.06140834 32.689712 78.578125 36.10546875 C71.23447508 38.65349274 64.13867542 37.15518004 57.19140625 34.16796875 C54.93572587 32.96574338 53.02582408 31.55168939 51 30 C50.47567383 30.52956299 49.95134766 31.05912598 49.41113281 31.60473633 C47.02673373 34.00996331 44.63841633 36.41126242 42.25 38.8125 C41.425 39.64587891 40.6 40.47925781 39.75 41.33789062 C38.95078125 42.14033203 38.1515625 42.94277344 37.328125 43.76953125 C36.5949707 44.50792236 35.86181641 45.24631348 35.10644531 46.00708008 C33.16159961 47.84710968 31.17626604 49.44521705 29 51 C30.52840134 54.18416946 32.27706638 57.1958838 34.09765625 60.21875 C36.58992271 65.13854873 36.75655868 70.62329172 36 76 C32.80271871 85.3912764 28.14737109 90.85134652 19.4375 95.3125 C16.3617732 96.18001269 13.16360872 96.5480559 10 97 C10 107.23 10 117.46 10 128 C13.96 129.32 17.92 130.64 22 132 C28.36013154 135.29784598 32.32087343 140.48909899 35.375 146.875 C37.560689 157.80344501 34.58160106 164.69733156 29 174 C39.395 184.395 39.395 184.395 50 195 C53.55961101 193.59281072 53.55961101 193.59281072 57 191.9296875 C64.24481933 188.10917731 71.93832072 187.47234436 79.80859375 189.84765625 C86.77884923 192.97737522 91.76955983 197.8432706 95.375 204.5625 C96.16784548 207.65459738 96.54856517 210.83995621 97 214 C107.56 214 118.12 214 129 214 C129.66 211.03 130.32 208.06 131 205 C134.18514329 197.95091238 139.2587058 193.59535691 146 190 C152.2384316 187.9205228 159.83205853 187.8218059 166.00390625 190.1171875 C167.66875264 190.99551182 169.31020899 191.9209475 170.9140625 192.90625 C173.19787495 194.30958586 173.19787495 194.30958586 177 194 C179.4113281 192.03831326 179.4113281 192.03831326 181.75 189.4375 C185.46673315 185.55032495 189.24028598 181.96796349 193.40625 178.5703125 C195.23249266 176.77092635 196.23822918 175.45822976 197 173 C196.18661393 170.91605231 196.18661393 170.91605231 194.6875 169 C190.24155647 162.7634984 190.47026489 156.49334395 191 149 C192.36172109 142.54522759 195.64928794 137.41199117 201.0078125 133.5546875 C206.79175656 130.02789234 209.53202157 129.82977538 217 129 C217 118.44 217 107.88 217 97 C213.37 96.34 209.74 95.68 206 95 C201.9375 92.375 201.9375 92.375 199 90 C198.34 90 197.68 90 197 90 C196.731875 89.443125 196.46375 88.88625 196.1875 88.3125 C195.00517661 85.93031489 195.00517661 85.93031489 193.4375 83.5 C189.89488829 77.33893616 190.16091523 69.89089081 191 63 C192.38179871 60.06032851 193.90809283 57.65746133 195.8828125 55.0859375 C196.25148437 54.39757813 196.62015625 53.70921875 197 53 C195.00251277 47.56600631 190.16345236 43.71350369 186.1875 39.6875 C185.37990234 38.83865234 184.57230469 37.98980469 183.74023438 37.11523438 C182.95326172 36.31794922 182.16628906 35.52066406 181.35546875 34.69921875 C180.64028076 33.96533936 179.92509277 33.23145996 179.18823242 32.4753418 C177.07403928 30.72177 177.07403928 30.72177 174.36865234 31.19433594 C171.8279328 32.05852626 169.74304042 33.19321965 167.4375 34.5625 C161.55323858 37.54385912 156.49459832 38.13983481 150 37 C141.76116275 34.25038806 136.23314 30.59794359 132 23 C131.01 19.04 130.02 15.08 129 11 C118.44 11 107.88 11 97 11 Z " fill="#FDFDFD" transform="translate(0,0)"/>
<path d="M0 0 C4.71837346 2.18791088 9.2048975 4.70342615 13.7109375 7.296875 C14.57976562 7.79058594 15.44859375 8.28429688 16.34375 8.79296875 C18.34926242 9.93699724 20.33352565 11.11864449 22.30175781 12.32568359 C25.56072713 14.23766003 28.9241391 15.62203926 32.42480469 17.03759766 C48.60225237 24.12882052 48.60225237 24.12882052 51.58856201 31.73901367 C53.20776237 40.23395309 52.65198657 48.75848437 51.98388672 57.32189941 C51.73565917 60.84521509 51.62823011 64.37275883 51.5078125 67.90234375 C51.2524342 74.79411226 50.84459913 81.66927375 50.3359375 88.546875 C49.6483284 88.93006393 48.9607193 89.31325287 48.25227356 89.70805359 C35.08004533 97.0533659 21.94735107 104.43321615 8.99804688 112.16601562 C8.04091797 112.73126953 7.08378906 113.29652344 6.09765625 113.87890625 C5.27225342 114.37108643 4.44685059 114.8632666 3.59643555 115.37036133 C1.3896475 116.51892074 -0.18752547 117.32236877 -2.6640625 117.546875 C-4.89282227 116.61328125 -4.89282227 116.61328125 -7.35546875 115.109375 C-8.28810547 114.55072754 -9.22074219 113.99208008 -10.18164062 113.41650391 C-11.68887695 112.4910376 -11.68887695 112.4910376 -13.2265625 111.546875 C-15.37206995 110.26030211 -17.51927585 108.97655831 -19.66796875 107.6953125 C-20.7986377 107.01952148 -21.92930664 106.34373047 -23.09423828 105.64746094 C-33.13751749 99.69859165 -43.44833934 94.18680549 -53.6640625 88.546875 C-53.6640625 68.746875 -53.6640625 48.946875 -53.6640625 28.546875 C-30.6640625 15.546875 -30.6640625 15.546875 -23.5625 11.5390625 C-22.62148437 11.00796875 -21.68046875 10.476875 -20.7109375 9.9296875 C-18.85963893 8.88494883 -17.00805708 7.84071205 -15.15625 6.796875 C-14.2384375 6.27867188 -13.320625 5.76046875 -12.375 5.2265625 C-11.58399902 4.78038574 -10.79299805 4.33420898 -9.97802734 3.87451172 C-8.30301115 2.91347162 -6.65875607 1.89815162 -5.03613281 0.85107422 C-2.6640625 -0.453125 -2.6640625 -0.453125 0 0 Z " fill="#FEFEFE" transform="translate(114.6640625,54.453125)"/>
</svg>
