<svg xmlns="http://www.w3.org/2000/svg" width="250" height="250" fill="none"><path fill="#434EE1" d="M62.765 91.124C62.765 48.53 97.29 14 139.882 14S217 48.53 217 91.124v30.67c0 42.595-34.527 77.124-77.118 77.124-42.59 0-77.117-34.529-77.117-77.124v-30.67Z"/><path fill="#0A1567" d="M33 162.386c0-29.642 24.027-53.672 53.667-53.672 29.639 0 53.666 24.03 53.666 53.672v18.943c0 29.642-24.027 53.671-53.666 53.671C57.027 235 33 210.971 33 181.329v-18.943Z"/><path fill="#B6BCF7" d="M137.398 198.879c-41.44-1.311-74.633-35.322-74.633-77.085v-7.476a53.45 53.45 0 0 1 23.902-5.604c29.639 0 53.666 24.03 53.666 53.672v18.943a53.593 53.593 0 0 1-2.935 17.55Z"/></svg>