<?xml version="1.0" encoding="UTF-8"?>
<svg version="1.1" xmlns="http://www.w3.org/2000/svg" width="299" height="299">
<path d="M0 0 C98.67 0 197.34 0 299 0 C299 98.67 299 197.34 299 299 C200.33 299 101.66 299 0 299 C0 200.33 0 101.66 0 0 Z " fill="#FAD703" transform="translate(0,0)"/>
<path d="M0 0 C4.00038371 0 6.69926747 0.02510228 9.94921875 2.4609375 C15.88726643 8.77252831 19.20898639 16.49261551 19.25 25.1875 C19.1675 26.445625 19.085 27.70375 19 29 C19.71414062 29.23203125 20.42828125 29.4640625 21.1640625 29.703125 C30.72442871 34.0750831 37.48620029 44.37913629 41.27905273 53.8425293 C44.3345706 62.98631914 45.55453835 72.38143108 46.4375 81.9375 C47.94931483 97.00849818 49.91629589 111.9990744 52 127 C52.11748596 127.84606812 52.23497192 128.69213623 52.35601807 129.56384277 C53.53031287 138.01534234 54.70737528 146.4664536 55.89379883 154.91625977 C56.07844193 156.23270477 56.07844193 156.23270477 56.26681519 157.57574463 C56.508825 159.30014273 56.75134971 161.02446866 56.99441528 162.74871826 C57.53476129 166.59770299 58.06296342 170.44697791 58.54711914 174.3034668 C60.61859262 192.88859168 60.61859262 192.88859168 70.03515625 208.48046875 C75.91703056 213.28955531 75.91703056 213.28955531 83.0078125 214.83203125 C91.43402511 211.31284834 97.58800419 201.9650033 103 195 C104.09634766 193.66195312 104.09634766 193.66195312 105.21484375 192.296875 C112.1540766 183.56490536 117.10818579 173.98364927 122 164 C122.31098633 163.37867188 122.62197266 162.75734375 122.94238281 162.1171875 C130.64416797 146.55371853 133.49364728 129.15443474 135 112 C135.33 112 135.66 112 136 112 C136 158.2 136 204.4 136 252 C37.33 252 -61.34 252 -163 252 C-163 207.45 -163 162.9 -163 117 C-161.32801312 120.34397375 -160.63630223 122.2370597 -160.0703125 125.78125 C-159.91715576 126.6995459 -159.76399902 127.6178418 -159.60620117 128.56396484 C-159.44740479 129.53285645 -159.2886084 130.50174805 -159.125 131.5 C-157.70791468 139.6290064 -156.11297222 147.32616151 -153 155 C-152.51917969 156.22460938 -152.03835937 157.44921875 -151.54296875 158.7109375 C-138.83694831 189.98435247 -115.96194299 215.12309872 -87 232 C-86.05785645 232.55349121 -86.05785645 232.55349121 -85.09667969 233.11816406 C-77.99197003 237.2448069 -70.80030865 240.66012944 -63.0625 243.4375 C-62.37679932 243.68467773 -61.69109863 243.93185547 -60.98461914 244.18652344 C-56.32697607 245.77128635 -51.89670296 246.52400765 -47 247 C-47 247.66 -47 248.32 -47 249 C-45.52853516 248.9690625 -45.52853516 248.9690625 -44.02734375 248.9375 C-39.81832039 248.9375 -35.72801497 249.43595955 -31.5625 250 C-30.83095703 250.09539062 -30.09941406 250.19078125 -29.34570312 250.2890625 C-27.563277 250.52205938 -25.78155896 250.76046266 -24 251 C-24.77988281 250.1028125 -25.55976563 249.205625 -26.36328125 248.28125 C-35.47509971 237.30981121 -35.314352 221.51595949 -35.22705078 207.93603516 C-35.22734283 206.71479446 -35.22763489 205.49355377 -35.22793579 204.23530579 C-35.22679409 200.93658262 -35.21687347 197.63803676 -35.20278788 194.33934832 C-35.19015099 190.87340622 -35.18909994 187.40745939 -35.18673706 183.9414978 C-35.18055989 177.40060225 -35.16420093 170.85977482 -35.14403808 164.31890905 C-35.12156079 156.86287132 -35.11065613 149.40683006 -35.10064721 141.9507668 C-35.07983063 126.6338053 -35.04472918 111.31691149 -35 96 C-35.8038916 96.01957764 -36.6077832 96.03915527 -37.43603516 96.05932617 C-38.50128418 96.07455322 -39.5665332 96.08978027 -40.6640625 96.10546875 C-42.2411499 96.13483521 -42.2411499 96.13483521 -43.85009766 96.16479492 C-51.30565432 95.77473906 -57.87927631 92.35889689 -63 87 C-64.896448 84.09986086 -66.48359351 81.11292502 -68 78 C-68.433125 77.175 -68.86625 76.35 -69.3125 75.5 C-70.01299791 72.95273489 -70.06898307 70.97356075 -70.04296875 68.34375 C-70.03676514 67.53099609 -70.03056152 66.71824219 -70.02416992 65.88085938 C-70.01619385 65.26017578 -70.00821777 64.63949219 -70 64 C-66.71057634 62.66108439 -63.41810891 61.32982297 -60.125 60 C-59.18785156 59.6184375 -58.25070313 59.236875 -57.28515625 58.84375 C-56.38925781 58.4828125 -55.49335937 58.121875 -54.5703125 57.75 C-53.74289551 57.41484375 -52.91547852 57.0796875 -52.06298828 56.734375 C-50 56 -50 56 -48 56 C-48.33 55.01 -48.66 54.02 -49 53 C-49.74154931 46.15586454 -49.11727019 40.63543767 -45 35 C-37.3872969 26.67420825 -27.80480055 24.02016101 -17 22 C-16.34 22 -15.68 22 -15 22 C-15.54140625 20.53626953 -15.54140625 20.53626953 -16.09375 19.04296875 C-16.56275162 17.75790431 -17.03148779 16.47274296 -17.5 15.1875 C-17.73847656 14.54490234 -17.97695312 13.90230469 -18.22265625 13.24023438 C-19.27068746 10.35066261 -20 8.09923939 -20 5 C-14.06605639 4.5055047 -9.9716122 5.67875804 -5 9 C-3.02 10.98 -3.02 10.98 -1 13 C-0.67 8.71 -0.34 4.42 0 0 Z " fill="#FEFEFC" transform="translate(163,47)"/>
<path d="M0 0 C45.21 0 90.42 0 137 0 C137 45.87 137 91.74 137 139 C136.67 139 136.34 139 136 139 C135.97421875 138.34257812 135.9484375 137.68515625 135.921875 137.0078125 C133.71124724 99.929556 115.1275905 64.38727997 88.125 39.25 C73.4592613 26.62247099 56.93541024 17.15080719 39 10 C37.26556641 9.30390625 37.26556641 9.30390625 35.49609375 8.59375 C24.01458203 4.38600045 12.05473511 2.76575136 0 1 C0 0.67 0 0.34 0 0 Z " fill="#FEFEFB" transform="translate(162,0)"/>
<path d="M0 0 C43.23 0 86.46 0 131 0 C127.67729435 2.2151371 125.72323143 2.49751541 121.8125 3.125 C91.6337649 8.6664859 64.62194288 23.37805712 43 45 C42.06671875 45.93328125 41.1334375 46.8665625 40.171875 47.828125 C33.03783206 55.17906466 27.28096105 63.2393861 22 72 C21.41605469 72.96800537 21.41605469 72.96800537 20.8203125 73.95556641 C9.40866545 93.27016199 3.8901592 113.8861701 1 136 C0.67 136 0.34 136 0 136 C0 91.12 0 46.24 0 0 Z " fill="#FEFEFC" transform="translate(0,0)"/>
<path d="M0 0 C3.47984024 0.30528033 6.95871583 0.62042917 10.4375 0.9375 C11.43072266 1.02451172 12.42394531 1.11152344 13.44726562 1.20117188 C14.39150391 1.28818359 15.33574219 1.37519531 16.30859375 1.46484375 C17.18314209 1.543396 18.05769043 1.62194824 18.95874023 1.70288086 C21 2 21 2 22 3 C22.10863 4.8092412 22.14688036 6.62273195 22.15821838 8.43519592 C22.1680072 9.61455215 22.17779602 10.79390839 22.18788147 12.00900269 C22.19651466 13.96726486 22.19651466 13.96726486 22.20532227 15.96508789 C22.21489557 17.34453122 22.22490532 18.72397159 22.23532104 20.10340881 C22.26243554 23.85940923 22.28340954 27.6154223 22.30332303 31.37146688 C22.32514236 35.2926257 22.35255081 39.21374526 22.37937927 43.13487244 C22.42936114 50.56508762 22.47427951 57.99532454 22.51740164 65.42558235 C22.56672716 73.88254427 22.62166261 82.3394668 22.67708123 90.79639065 C22.79098558 108.19755738 22.89780611 125.59876064 23 143 C22.67 143 22.34 143 22 143 C20.50085712 133.91399893 19.71378228 125.1396016 19.77294922 115.93603516 C19.77265717 114.71479446 19.77236511 113.49355377 19.77206421 112.23530579 C19.77320591 108.93658262 19.78312653 105.63803676 19.79721212 102.33934832 C19.80984901 98.87340622 19.81090006 95.40745939 19.81326294 91.9414978 C19.81944011 85.40060225 19.83579907 78.85977482 19.85596192 72.31890905 C19.87843921 64.86287132 19.88934387 57.40683006 19.89935279 49.9507668 C19.92016937 34.6338053 19.95527082 19.31691149 20 4 C19.18885742 4.01740234 18.37771484 4.03480469 17.54199219 4.05273438 C16.47110352 4.06626953 15.40021484 4.07980469 14.296875 4.09375 C12.70891113 4.11985352 12.70891113 4.11985352 11.08886719 4.14648438 C6.84828553 3.94538186 3.83235209 2.76877789 0 1 C0 0.67 0 0.34 0 0 Z " fill="#FBF3A7" transform="translate(108,139)"/>
<path d="M0 0 C9.12151234 9.12151234 7.17137381 32.25278033 7.19189453 44.25854492 C7.11463552 52.59384593 6.19553377 60.75935648 5 69 C4.67 69 4.34 69 4 69 C4.01047363 67.77595459 4.02094727 66.55190918 4.03173828 65.29077148 C4.06838812 60.67800917 4.09106135 56.06525926 4.10986328 51.45239258 C4.11981971 49.46929753 4.13338972 47.48621675 4.15087891 45.50317383 C4.4128807 26.22545765 4.4128807 26.22545765 0.93017578 7.34155273 C0 4 0 4 0 0 Z " fill="#F7DB2A" transform="translate(292,107)"/>
<path d="M0 0 C1.27617187 0.02320312 2.55234375 0.04640625 3.8671875 0.0703125 C5.78917969 0.09738281 5.78917969 0.09738281 7.75 0.125 C9.23113281 0.15980469 9.23113281 0.15980469 10.7421875 0.1953125 C10.35559387 2.43755553 9.85435818 4.02495089 8.59765625 5.93359375 C5.78750761 7.84449483 3.40162317 7.48222643 0.0546875 7.3828125 C-1.71455078 7.34220703 -1.71455078 7.34220703 -3.51953125 7.30078125 C-4.87498047 7.24857422 -4.87498047 7.24857422 -6.2578125 7.1953125 C-5.17065654 0.3099914 -5.17065654 0.3099914 0 0 Z " fill="#F7D615" transform="translate(131.2578125,102.8046875)"/>
<path d="M0 0 C2.09078052 0.01840044 4.18111904 0.02050799 6.27197266 0.02026367 C12.06019728 0.04136129 17.62312487 0.11513 23.33056641 1.20581055 C23.33056641 1.53581055 23.33056641 1.86581055 23.33056641 2.20581055 C22.18394531 2.1901001 22.18394531 2.1901001 21.01416016 2.17407227 C0.07077922 1.70373307 0.07077922 1.70373307 -20.66943359 4.20581055 C-20.99943359 4.53581055 -21.32943359 4.86581055 -21.66943359 5.20581055 C-23.72672529 5.52504547 -25.7855688 5.71742407 -27.85693359 5.92456055 C-29.6861869 6.02579098 -29.6861869 6.02579098 -30.66943359 7.20581055 C-33.3400221 7.34696216 -35.99375597 7.24828162 -38.66943359 7.20581055 C-35.64292116 5.18813559 -33.60288907 4.54447522 -30.10693359 3.70581055 C-29.13626953 3.46862305 -28.16560547 3.23143555 -27.16552734 2.98706055 C-25.43496094 2.6003418 -25.43496094 2.6003418 -23.66943359 2.20581055 C-22.98349121 2.03009521 -22.29754883 1.85437988 -21.59082031 1.67333984 C-14.4202635 -0.01116479 -7.32787087 -0.06674309 0 0 Z " fill="#F6DD36" transform="translate(144.66943359375,-0.205810546875)"/>
<path d="M0 0 C0.33 0 0.66 0 1 0 C6.5566411 36.67065605 6.5566411 36.67065605 8 53 C7.67 52.34 7.34 51.68 7 51 C6.34 51 5.68 51 5 51 C4.93941406 50.15695313 4.87882813 49.31390625 4.81640625 48.4453125 C4.73261719 47.34960938 4.64882812 46.25390625 4.5625 45.125 C4.48128906 44.03445312 4.40007812 42.94390625 4.31640625 41.8203125 C4.16998297 39.05271029 4.16998297 39.05271029 3 37 C2.68499395 33.91994088 2.48916352 30.83900088 2.28125 27.75 C2.16812508 25.04134007 2.16812508 25.04134007 1 23 C0.84733388 21.26131256 0.75067404 19.51752499 0.68359375 17.7734375 C0.64169922 16.7421875 0.59980469 15.7109375 0.55664062 14.6484375 C0.51732422 13.56820312 0.47800781 12.48796875 0.4375 11.375 C0.39431641 10.28703125 0.35113281 9.1990625 0.30664062 8.078125 C0.2003547 5.3855483 0.09831943 2.69287747 0 0 Z " fill="#FEF9B8" transform="translate(212,161)"/>
<path d="M0 0 C0.66 0.33 1.32 0.66 2 1 C0.8803014 2.00593243 -0.2459412 3.0045849 -1.375 4 C-2.31472656 4.8353125 -2.31472656 4.8353125 -3.2734375 5.6875 C-5 7 -5 7 -7 7 C-7.2371875 7.72574219 -7.474375 8.45148437 -7.71875 9.19921875 C-9.1989222 12.43483909 -10.96406474 14.33008285 -13.5 16.8125 C-14.2940625 17.60269531 -15.088125 18.39289062 -15.90625 19.20703125 C-18 21 -18 21 -20 21 C-20 21.66 -20 22.32 -20 23 C-21.32 23.33 -22.64 23.66 -24 24 C-21.58212843 19.44422094 -18.45002127 16.14171265 -14.8125 12.5625 C-14.23604736 11.98991455 -13.65959473 11.4173291 -13.06567383 10.82739258 C-8.96192108 6.8063004 -4.7448998 3.25630378 0 0 Z " fill="#F6D932" transform="translate(59,30)"/>
<path d="M0 0 C0.66 0 1.32 0 2 0 C1.32713552 3.98542809 0.09664472 7.53005892 -1.3125 11.3125 C-5.05116355 21.84948035 -6.38590796 32.98063881 -8 44 C-8.33 44 -8.66 44 -9 44 C-9.02703562 41.41659616 -9.04685611 38.83347692 -9.0625 36.25 C-9.07087891 35.52039063 -9.07925781 34.79078125 -9.08789062 34.0390625 C-9.10391684 30.51329442 -8.95292713 27.38965084 -8 24 C-7.34 24 -6.68 24 -6 24 C-6 21.36 -6 18.72 -6 16 C-5.34 16 -4.68 16 -4 16 C-3.87882813 15.43152344 -3.75765625 14.86304687 -3.6328125 14.27734375 C-2.58677946 9.45754536 -1.40795516 4.7267066 0 0 Z " fill="#FEFBC0" transform="translate(9,92)"/>
<path d="M0 0 C2.11339331 3.17008997 2.31013264 4.44151041 2.5625 8.125 C2.54484879 11.36920975 2.54484879 11.36920975 4 14 C4.32595547 17.62172742 4.51380536 21.2445521 4.71875 24.875 C4.65135448 27.8649801 4.65135448 27.8649801 6 29 C6.07271741 31.35313555 6.08370868 33.70833668 6.0625 36.0625 C6.05347656 37.35285156 6.04445312 38.64320313 6.03515625 39.97265625 C6.02355469 40.97167969 6.01195312 41.97070312 6 43 C5.67 43 5.34 43 5 43 C0.4308534 14.06736359 0.4308534 14.06736359 0 0 Z " fill="#F2D62D" transform="translate(211,145)"/>
<path d="M0 0 C1.65 0 3.3 0 5 0 C4.01 0.33 3.02 0.66 2 1 C2 5.62 2 10.24 2 15 C0.783125 14.05125 -0.43375 13.1025 -1.6875 12.125 C-6.68342798 8.39341934 -10.80968102 6.86376544 -17 6 C-17 5.67 -17 5.34 -17 5 C-9.76926646 4.34266059 -6.13858993 6.16338129 0 10 C0 6.7 0 3.4 0 0 Z " fill="#F2D736" transform="translate(161,46)"/>
<path d="M0 0 C0.825 0.144375 1.65 0.28875 2.5 0.4375 C6.32686278 1.05253152 10.15216707 1.53560637 14 2 C14 2.66 14 3.32 14 4 C15.0725 3.979375 16.145 3.95875 17.25 3.9375 C21 4 21 4 22.8125 4.5 C25.81722279 5.18679378 28.67251719 5.09327483 31.75 5.0625 C32.92046875 5.05347656 34.0909375 5.04445313 35.296875 5.03515625 C36.18890625 5.02355469 37.0809375 5.01195312 38 5 C38.495 5.99 38.495 5.99 39 7 C36.02077407 7.02683987 33.04178705 7.04676037 30.0625 7.0625 C28.78729492 7.07506836 28.78729492 7.07506836 27.48632812 7.08789062 C26.67744141 7.09111328 25.86855469 7.09433594 25.03515625 7.09765625 C24.2862915 7.10289307 23.53742676 7.10812988 22.76586914 7.11352539 C21 7 21 7 20 6 C18.50503158 5.79300437 17.0033408 5.63320741 15.5 5.5 C11.11111111 5.11111111 11.11111111 5.11111111 10 4 C7.67182036 3.63239269 5.3381615 3.29758419 3 3 C3 2.34 3 1.68 3 1 C2.01 0.67 1.02 0.34 0 0 Z " fill="#FDFABE" transform="translate(102,292)"/>
<path d="M0 0 C3.14645401 0.11161178 6.29189157 0.24180557 9.4375 0.375 C10.31599609 0.4059375 11.19449219 0.436875 12.09960938 0.46875 C17.95583327 0.72806619 23.31155423 1.57644185 29 3 C29 3.66 29 4.32 29 5 C31.475 5.495 31.475 5.495 34 6 C29.99387347 7.59634991 26.58157702 6.3090345 22.625 5.1875 C15.12248505 3.17319261 7.72211305 1.91700092 0 1 C0 0.67 0 0.34 0 0 Z " fill="#FEFBB8" transform="translate(162,0)"/>
<path d="M0 0 C0.99 0.495 0.99 0.495 2 1 C2.37890625 3.87109375 2.37890625 3.87109375 2.5625 7.4375 C2.66007452 11.8784668 2.66007452 11.8784668 4 16 C4.08308638 17.37548156 4.10736016 18.75485796 4.09765625 20.1328125 C4.09282227 21.34130859 4.09282227 21.34130859 4.08789062 22.57421875 C4.07951172 23.41597656 4.07113281 24.25773437 4.0625 25.125 C4.05798828 25.97449219 4.05347656 26.82398438 4.04882812 27.69921875 C4.03702874 29.79950909 4.01909306 31.8997633 4 34 C3.67 34 3.34 34 3 34 C2.49473686 29.45890277 1.99671565 24.91703948 1.5 20.375 C1.35691406 19.08980469 1.21382812 17.80460937 1.06640625 16.48046875 C0.93105469 15.23652344 0.79570312 13.99257812 0.65625 12.7109375 C0.53056641 11.56931152 0.40488281 10.42768555 0.27539062 9.25146484 C0.01258804 6.14862366 -0.0494632 3.11205949 0 0 Z " fill="#F3D831" transform="translate(207,110)"/>
<path d="M0 0 C5.23236658 5.23236658 6.125 17.04488362 6.125 24.1875 C6.08375 25.115625 6.0425 26.04375 6 27 C5.34 26.67 4.68 26.34 4 26 C3.57036587 23.60717657 3.24863338 21.28766467 3 18.875 C2.4256063 13.69519967 1.43917583 9.00113599 0 4 C0 2.68 0 1.36 0 0 Z " fill="#F4DB3E" transform="translate(292,107)"/>
<path d="M0 0 C1.5735209 3.14704181 0.21258392 5.44373349 -0.75 8.75 C-1.26820313 10.56757813 -1.26820313 10.56757813 -1.796875 12.421875 C-2.93698066 15.81257884 -4.31796106 18.8485937 -6 22 C-6.33 22 -6.66 22 -7 22 C-7 20.02 -7 18.04 -7 16 C-6.34 16 -5.68 16 -5 16 C-5 14.35 -5 12.7 -5 11 C-4.34 11 -3.68 11 -3 11 C-3 8.69 -3 6.38 -3 4 C-2.34 4 -1.68 4 -1 4 C-0.67 2.68 -0.34 1.36 0 0 Z " fill="#F4DA37" transform="translate(294,184)"/>
<path d="M0 0 C2.29343691 4.22054039 2.92593129 8.30303435 3.6875 13 C3.82994141 13.80695313 3.97238281 14.61390625 4.11914062 15.4453125 C4.24869141 16.22648437 4.37824219 17.00765625 4.51171875 17.8125 C4.62990967 18.52019531 4.74810059 19.22789062 4.86987305 19.95703125 C5.01171175 22.18387233 4.64816789 23.87622854 4 26 C0.43998234 17.48691428 0.30301337 9.10084996 0 0 Z " fill="#FDF8AE" transform="translate(0,164)"/>
<path d="M0 0 C4.62 0 9.24 0 14 0 C13.67 1.32 13.34 2.64 13 4 C12.01 4.495 12.01 4.495 11 5 C11 4.01 11 3.02 11 2 C7.04 2 3.08 2 -1 2 C-0.67 1.34 -0.34 0.68 0 0 Z " fill="#F2DA4B" transform="translate(128,103)"/>
<path d="M0 0 C7.59064664 0.48701051 14.67059167 1.99763587 22 4 C22 4.33 22 4.66 22 5 C19.36 5 16.72 5 14 5 C14 4.34 14 3.68 14 3 C12.205625 3.061875 12.205625 3.061875 10.375 3.125 C6.57670047 3.13851708 3.55024382 2.42009753 0 1 C0 0.67 0 0.34 0 0 Z " fill="#F3D831" transform="translate(170,2)"/>
<path d="M0 0 C1.94337637 2.91506455 2.27674667 3.82971692 2.5625 7.125 C2.56686899 10.77463966 2.56686899 10.77463966 4 12 C4.07226502 13.85287502 4.0838122 15.70833878 4.0625 17.5625 C4.05347656 18.57441406 4.04445312 19.58632812 4.03515625 20.62890625 C4.02355469 21.41136719 4.01195312 22.19382813 4 23 C3.67 23 3.34 23 3 23 C0.68822069 15.44818759 0.3876613 7.83483894 0 0 Z " fill="#F3D932" transform="translate(221,217)"/>
<path d="M0 0 C3.2601206 2.9100866 4.85085989 5.39160619 6.3125 9.5 C6.65925781 10.4384375 7.00601563 11.376875 7.36328125 12.34375 C8.01541747 15.06431829 7.94708704 16.40925868 7 19 C4.72249876 16.72249876 4.6130056 15.83283135 4.0625 12.75 C3.26232001 8.77470582 1.92492925 5.58736815 0 2 C0 1.34 0 0.68 0 0 Z " fill="#FEF9B5" transform="translate(174,52)"/>
<path d="M0 0 C-2.91555115 0.67189656 -5.83226951 1.33769308 -8.75 2 C-9.9875 2.28617187 -9.9875 2.28617187 -11.25 2.578125 C-12.44882813 2.84882812 -12.44882813 2.84882812 -13.671875 3.125 C-14.4050293 3.29257813 -15.13818359 3.46015625 -15.89355469 3.6328125 C-18 4 -18 4 -22 4 C-22 3.34 -22 2.68 -22 2 C-20.865625 1.855625 -19.73125 1.71125 -18.5625 1.5625 C-15.19222799 1.38828522 -15.19222799 1.38828522 -14 0 C-12.40366983 -0.26169347 -10.79670875 -0.46007377 -9.1875 -0.625 C-8.31480469 -0.72039063 -7.44210938 -0.81578125 -6.54296875 -0.9140625 C-4.09384799 -0.99682849 -2.33961827 -0.64222382 0 0 Z " fill="#FEFDCB" transform="translate(131,1)"/>
<path d="M0 0 C0.33 0 0.66 0 1 0 C1 5.94 1 11.88 1 18 C0.01 18.33 -0.98 18.66 -2 19 C-1.37802877 12.66118686 -0.71457113 6.32905858 0 0 Z " fill="#F6D92C" transform="translate(2,122)"/>
<path d="M0 0 C6.15234375 0.5859375 6.15234375 0.5859375 8 1 C8.33 1.66 8.66 2.32 9 3 C6.69 3 4.38 3 2 3 C1.67 6.96 1.34 10.92 1 15 C0.34 14.67 -0.32 14.34 -1 14 C-0.67 9.38 -0.34 4.76 0 0 Z " fill="#FEFDAF" transform="translate(163,47)"/>
<path d="M0 0 C2.35953094 2.35953094 2.49141413 3.77895617 3 7 C-1.26616316 8.13764351 -4.56486311 9 -9 9 C-9 8.34 -9 7.68 -9 7 C-6.36 6.67 -3.72 6.34 -1 6 C-0.67 4.02 -0.34 2.04 0 0 Z " fill="#F2D62F" transform="translate(145,62)"/>
<path d="M0 0 C3.30616284 3.80208727 7 9.83581485 7 15 C6.34 15 5.68 15 5 15 C1.67004115 10.2825583 0 5.77137126 0 0 Z " fill="#FEF9B7" transform="translate(9,202)"/>
<path d="M0 0 C0.33 0 0.66 0 1 0 C1.66 5.94 2.32 11.88 3 18 C2.67 17.34 2.34 16.68 2 16 C1.34 16 0.68 16 0 16 C0 10.72 0 5.44 0 0 Z " fill="#FEFABC" transform="translate(209,136)"/>
<path d="M0 0 C5.09448798 0.43173627 8.84512277 0.75400216 13 4 C13 4.66 13 5.32 13 6 C8.52761347 4.58192622 4.28853694 2.88695626 0 1 C0 0.67 0 0.34 0 0 Z " fill="#FEF9BD" transform="translate(204,10)"/>
<path d="M0 0 C0.33 0 0.66 0 1 0 C1.16682272 4.92127034 1.24828052 8.50343896 -1 13 C-1.66 13 -2.32 13 -3 13 C-2.68817931 11.58318366 -2.37551263 10.16655349 -2.0625 8.75 C-1.88847656 7.96109375 -1.71445312 7.1721875 -1.53515625 6.359375 C-1.052444 4.23121297 -0.53836822 2.11467158 0 0 Z " fill="#FEFDCE" transform="translate(294,186)"/>
<path d="M0 0 C0.33 0.99 0.66 1.98 1 3 C-1.3125 5.5 -1.3125 5.5 -4 8 C-4.99 8 -5.98 8 -7 8 C-4.69 5.36 -2.38 2.72 0 0 Z " fill="#FEFBC0" transform="translate(261,248)"/>
<path d="M0 0 C2.93200474 2.85276137 5.64315404 5.65079784 8 9 C5.6875 8.875 5.6875 8.875 3 8 C0 3.13793103 0 3.13793103 0 0 Z " fill="#FEFDCC" transform="translate(37,248)"/>
<path d="M0 0 C1.43861294 0.08746284 2.87597508 0.19565348 4.3125 0.3125 C5.11300781 0.37050781 5.91351563 0.42851562 6.73828125 0.48828125 C9.36272334 1.08206694 10.30820672 1.95780294 12 4 C7.80530429 3.40075776 3.99000166 2.42500059 0 1 C0 0.67 0 0.34 0 0 Z " fill="#F2DB42" transform="translate(94,288)"/>
<path d="M0 0 C0.33 1.32 0.66 2.64 1 4 C-0.98 5.32 -2.96 6.64 -5 8 C-3.8141763 4.62496331 -2.72426311 2.35277269 0 0 Z " fill="#F7DA39" transform="translate(34,54)"/>
<path d="M0 0 C0.33 0 0.66 0 1 0 C1.99 3.96 2.98 7.92 4 12 C0 8 0 8 -0.390625 5.859375 C-0.26041667 3.90625 -0.13020833 1.953125 0 0 Z " fill="#F4D832" transform="translate(129,277)"/>
</svg>
