<svg xmlns="http://www.w3.org/2000/svg" width="250" height="250" fill="none"><g clip-path="url(#a)"><path fill="#7F7F7F" d="M122.986 91.91c-.032.26-.032.554-.032.843 0 1.123.22 2.204.617 3.198l.355.745 1.404 3.662 7.293 18.967 6.36 16.563c1.814 3.343 4.72 5.968 8.225 7.367l1.088.408c.043.013.114.013.173.029l17.432 6.112v.014l6.665 2.333.456.157c.015 0 .042.016.058.016 1.314.337 2.601.791 3.83 1.345a25.448 25.448 0 0 1 7.621 5.206 24.937 24.937 0 0 1 2.458 2.79 23.978 23.978 0 0 1 1.759 2.625c2.326 3.938 3.661 8.567 3.661 13.495 0 .881-.042 1.731-.13 2.596a15.1 15.1 0 0 1-.129 1.112v.03c-.059.386-.13.786-.202 1.178-.074.38-.143.758-.228 1.137a2.284 2.284 0 0 1-.045.132c-.079.383-.18.761-.283 1.142-.093.359-.209.729-.339 1.078-.114.381-.248.756-.4 1.123-.13.378-.284.762-.456 1.124a23.659 23.659 0 0 1-1.663 3.195 26.41 26.41 0 0 1-2.774 3.767 58.562 58.562 0 0 0 14.972-33.356c.228-2.101.344-4.232.344-6.376 0-1.369-.058-2.725-.145-4.086-1.031-15.364-7.891-29.105-18.363-38.911a56.286 56.286 0 0 0-9.435-7.208l-6.411-3.34-32.483-16.996a7.86 7.86 0 0 0-3.161-.659c-4.206 0-7.679 3.27-8.092 7.443Z"/><path fill="url(#b)" d="M122.986 91.91c-.032.26-.032.554-.032.843 0 1.123.22 2.204.617 3.198l.355.745 1.404 3.662 7.293 18.967 6.36 16.563c1.814 3.343 4.72 5.968 8.225 7.367l1.088.408c.043.013.114.013.173.029l17.432 6.112v.014l6.665 2.333.456.157c.015 0 .042.016.058.016 1.314.337 2.601.791 3.83 1.345a25.448 25.448 0 0 1 7.621 5.206 24.937 24.937 0 0 1 2.458 2.79 23.978 23.978 0 0 1 1.759 2.625c2.326 3.938 3.661 8.567 3.661 13.495 0 .881-.042 1.731-.13 2.596a15.1 15.1 0 0 1-.129 1.112v.03c-.059.386-.13.786-.202 1.178-.074.38-.143.758-.228 1.137a2.284 2.284 0 0 1-.045.132c-.079.383-.18.761-.283 1.142-.093.359-.209.729-.339 1.078-.114.381-.248.756-.4 1.123-.13.378-.284.762-.456 1.124a23.659 23.659 0 0 1-1.663 3.195 26.41 26.41 0 0 1-2.774 3.767 58.562 58.562 0 0 0 14.972-33.356c.228-2.101.344-4.232.344-6.376 0-1.369-.058-2.725-.145-4.086-1.031-15.364-7.891-29.105-18.363-38.911a56.286 56.286 0 0 0-9.435-7.208l-6.411-3.34-32.483-16.996a7.86 7.86 0 0 0-3.161-.659c-4.206 0-7.679 3.27-8.092 7.443Z"/><path fill="#7F7F7F" d="M65.146 17c-4.622.084-8.334 3.94-8.334 8.656v150.982c.019 1.053.077 2.093.152 3.149.066.556.137 1.134.238 1.696 2.111 12.117 12.453 21.313 24.94 21.313 4.378 0 8.484-1.137 12.076-3.114.021-.016.058-.038.077-.038l1.293-.796 5.239-3.144 6.665-4.032.016-134.149c0-8.915-4.376-16.774-11.075-21.443a3.902 3.902 0 0 1-.453-.316l-25.933-17.29A8.522 8.522 0 0 0 65.45 17h-.305Z"/><path fill="url(#c)" d="M65.146 17c-4.622.084-8.334 3.94-8.334 8.656v150.982c.019 1.053.077 2.093.152 3.149.066.556.137 1.134.238 1.696 2.111 12.117 12.453 21.313 24.94 21.313 4.378 0 8.484-1.137 12.076-3.114.021-.016.058-.038.077-.038l1.293-.796 5.239-3.144 6.665-4.032.016-134.149c0-8.915-4.376-16.774-11.075-21.443a3.902 3.902 0 0 1-.453-.316l-25.933-17.29A8.522 8.522 0 0 0 65.45 17h-.305Z"/><path fill="#7F7F7F" d="m167.975 154.933-59.625 36.032-.858.526v.192l-6.665 4.024-5.237 3.152-1.285.791-.087.043a24.813 24.813 0 0 1-12.069 3.108c-12.484 0-22.839-9.19-24.942-21.313a58.356 58.356 0 0 0 8.434 24.317c9.208 14.818 24.778 25.126 42.791 26.917h11.014c9.743-1.037 17.878-5.015 26.429-10.387l13.149-8.199c5.923-3.87 22-13.39 26.736-18.732a26.324 26.324 0 0 0 2.773-3.764 23.82 23.82 0 0 0 1.664-3.198c.159-.378.31-.745.455-1.121.138-.372.268-.748.4-1.128.247-.73.443-1.462.631-2.215.095-.429.183-.853.27-1.275a27.68 27.68 0 0 0 .442-4.918c0-4.928-1.335-9.557-3.647-13.489a22.751 22.751 0 0 0-1.759-2.625c-.755-1-1.571-1.926-2.458-2.79-2.202-2.174-4.771-3.957-7.621-5.21a23.059 23.059 0 0 0-3.831-1.342c-.016 0-.042-.016-.058-.016l-.456-.157-4.59 2.777Z"/><path fill="url(#d)" d="m167.975 154.933-59.625 36.032-.858.526v.192l-6.665 4.024-5.237 3.152-1.285.791-.087.043a24.813 24.813 0 0 1-12.069 3.108c-12.484 0-22.839-9.19-24.942-21.313a58.356 58.356 0 0 0 8.434 24.317c9.208 14.818 24.778 25.126 42.791 26.917h11.014c9.743-1.037 17.878-5.015 26.429-10.387l13.149-8.199c5.923-3.87 22-13.39 26.736-18.732a26.324 26.324 0 0 0 2.773-3.764 23.82 23.82 0 0 0 1.664-3.198c.159-.378.31-.745.455-1.121.138-.372.268-.748.4-1.128.247-.73.443-1.462.631-2.215.095-.429.183-.853.27-1.275a27.68 27.68 0 0 0 .442-4.918c0-4.928-1.335-9.557-3.647-13.489a22.751 22.751 0 0 0-1.759-2.625c-.755-1-1.571-1.926-2.458-2.79-2.202-2.174-4.771-3.957-7.621-5.21a23.059 23.059 0 0 0-3.831-1.342c-.016 0-.042-.016-.058-.016l-.456-.157-4.59 2.777Z"/><path fill="#7F7F7F" d="M192.395 177.785c0 1.694-.156 3.33-.445 4.921a26.817 26.817 0 0 1-.898 3.489c-.129.378-.262.756-.4 1.124-.143.378-.296.745-.458 1.123a23.753 23.753 0 0 1-1.658 3.195 26.012 26.012 0 0 1-2.776 3.765c-4.736 5.344-20.813 14.864-26.736 18.734l-13.149 8.199c-9.64 6.055-18.747 10.341-30.232 10.635-.544.016-1.076.03-1.603.03-.742 0-1.473-.013-2.207-.043-19.448-.756-36.41-11.41-46.192-27.152a58.36 58.36 0 0 1-8.434-24.317c2.103 12.123 12.458 21.313 24.942 21.313 4.376 0 8.485-1.126 12.069-3.108l.087-.046 1.285-.789 5.237-3.151 6.665-4.024v-.192l.858-.526 59.625-36.035 4.59-2.774.456.157c.013 0 .042.016.058.016 1.32.332 2.604.789 3.831 1.342 2.85 1.253 5.417 3.036 7.621 5.21a24.614 24.614 0 0 1 2.458 2.79 22.751 22.751 0 0 1 1.759 2.625 26.577 26.577 0 0 1 3.647 13.489Z" opacity=".15"/><path fill="url(#e)" d="M192.395 177.785c0 1.694-.156 3.33-.445 4.921a26.817 26.817 0 0 1-.898 3.489c-.129.378-.262.756-.4 1.124-.143.378-.296.745-.458 1.123a23.753 23.753 0 0 1-1.658 3.195 26.012 26.012 0 0 1-2.776 3.765c-4.736 5.344-20.813 14.864-26.736 18.734l-13.149 8.199c-9.64 6.055-18.747 10.341-30.232 10.635-.544.016-1.076.03-1.603.03-.742 0-1.473-.013-2.207-.043-19.448-.756-36.41-11.41-46.192-27.152a58.36 58.36 0 0 1-8.434-24.317c2.103 12.123 12.458 21.313 24.942 21.313 4.376 0 8.485-1.126 12.069-3.108l.087-.046 1.285-.789 5.237-3.151 6.665-4.024v-.192l.858-.526 59.625-36.035 4.59-2.774.456.157c.013 0 .042.016.058.016 1.32.332 2.604.789 3.831 1.342 2.85 1.253 5.417 3.036 7.621 5.21a24.614 24.614 0 0 1 2.458 2.79 22.751 22.751 0 0 1 1.759 2.625 26.577 26.577 0 0 1 3.647 13.489Z" opacity=".15"/></g><defs><linearGradient id="b" x1="132.631" x2="201.811" y1="93.717" y2="169.34" gradientUnits="userSpaceOnUse"><stop stop-color="#37BDFF"/><stop offset=".25" stop-color="#26C6F4"/><stop offset=".5" stop-color="#15D0E9"/><stop offset=".75" stop-color="#3BD6DF"/><stop offset="1" stop-color="#62DCD4"/></linearGradient><linearGradient id="c" x1="85.638" x2="83.374" y1="199.531" y2="28.768" gradientUnits="userSpaceOnUse"><stop stop-color="#1B48EF"/><stop offset=".5" stop-color="#2080F1"/><stop offset="1" stop-color="#26B8F4"/></linearGradient><linearGradient id="d" x1="124.801" x2="288.719" y1="192.439" y2="192.439" gradientUnits="userSpaceOnUse"><stop stop-color="#39D2FF"/><stop offset=".5" stop-color="#248FFA"/><stop offset="1" stop-color="#104CF5"/></linearGradient><linearGradient id="e" x1="124.801" x2="288.719" y1="192.439" y2="192.439" gradientUnits="userSpaceOnUse"><stop stop-color="#fff"/><stop offset="1"/></linearGradient><clipPath id="a"><path fill="#fff" d="M45 17h160v216H45z"/></clipPath></defs></svg>