<?xml version="1.0" encoding="UTF-8"?>
<svg xmlns="http://www.w3.org/2000/svg" xmlns:xlink="http://www.w3.org/1999/xlink" width="250px" height="250px" viewBox="0 0 250 250" version="1.1">
<g id="surface1">
<path style=" stroke:none;fill-rule:nonzero;fill:rgb(7.058824%,57.254905%,93.333334%);fill-opacity:1;" d="M 36.640625 145.941406 L 109.609375 72.972656 C 119.070312 63.664062 124.925781 50.597656 124.925781 36.335938 C 124.925781 22.222656 119.21875 9.308594 110.058594 0 L 37.089844 72.972656 C 27.628906 82.28125 21.773438 95.34375 21.773438 109.605469 C 21.773438 123.871094 27.480469 136.632812 36.640625 145.941406 Z M 213.359375 103.300781 L 140.390625 176.273438 C 130.929688 185.582031 125.074219 198.644531 125.074219 212.90625 C 125.074219 227.023438 130.78125 239.933594 139.941406 249.242188 L 212.910156 176.273438 C 222.371094 166.964844 228.226562 153.898438 228.226562 139.636719 C 228.226562 125.371094 222.519531 112.609375 213.359375 103.300781 Z M 212.910156 73.121094 C 222.371094 63.8125 228.226562 50.75 228.226562 36.484375 C 228.226562 22.371094 222.519531 9.460938 213.359375 0.148438 L 37.089844 176.273438 C 27.628906 185.730469 21.773438 198.644531 21.773438 213.058594 C 21.773438 227.171875 27.480469 240.085938 36.640625 249.394531 Z M 212.910156 73.121094 "/>
</g>
</svg>
