<svg xmlns="http://www.w3.org/2000/svg" width="250" height="250" fill="none">
    <rect width="250" height="250" fill="#FFFFFF"/>
    <!-- path original bounds ~23x20; scaled 8.7x → ~200x174, centered in 250x250 -->
    <g transform="translate(24.95, 38) scale(8.7)">
        <path fill-rule="evenodd" clip-rule="evenodd" d="M6.99208 0C6.84038 0.00221953 6.69404 0.054617 6.57723 0.148509C6.29404 0.376145 6.25495 0.783165 6.48974 1.0576L16.7813 13.0795C16.811 13.1143 16.8441 13.1462 16.8799 13.1749C17.1952 13.427 17.6616 13.3838 17.9218 13.0782L22.7628 7.57197C23.1026 7.1728 23.1009 6.59584 22.7591 6.19827L17.6785 0.386855C17.4706 0.145131 17.164 0.00385979 16.8396 0H6.99208ZM3.72748 2.04438L0.259535 6.02332C-0.0849415 6.4205 -0.0867013 7.00083 0.25543 7.40014L10.9717 19.7066C10.9997 19.7391 11.0304 19.7692 11.0638 19.7962C11.3744 20.05 11.7508 20.0523 12.0116 19.7502L15.704 15.5744C15.9327 15.3094 15.9333 14.923 15.7051 14.6574L4.85241 2.04689C4.82494 2.01495 4.79483 1.98552 4.76219 1.95879C4.62435 1.84569 4.45641 1.79049 4.28926 1.79049C4.08027 1.79049 3.87274 1.87686 3.72748 2.04438Z" fill="#FD454D"/>
    </g>
</svg>
