<?xml version="1.0" encoding="UTF-8"?>
<svg version="1.1" xmlns="http://www.w3.org/2000/svg" width="256" height="256">
<path d="M0 0 C84.48 0 168.96 0 256 0 C256 84.48 256 168.96 256 256 C171.52 256 87.04 256 0 256 C0 171.52 0 87.04 0 0 Z " fill="#460629" transform="translate(0,0)"/>
<path d="M0 0 C4.31462801 0.05630953 8.52119362 0.50598338 12.79443359 1.07519531 C13.57953308 1.17541992 14.36463257 1.27564453 15.17352295 1.37890625 C17.72742605 1.70562144 20.2804248 2.03892368 22.83349609 2.37207031 C26.42172729 2.83284394 30.01041767 3.28999099 33.59912109 3.74707031 C34.50417389 3.86278381 35.40922668 3.97849731 36.34170532 4.09771729 C46.84158218 5.43545578 57.35484919 6.65552134 67.87011719 7.86523438 C69.18061035 8.01702148 70.49110352 8.16880859 71.84130859 8.32519531 C72.97971191 8.45571289 74.11811523 8.58623047 75.29101562 8.72070312 C78.36371284 9.11005986 81.40739849 9.59099386 84.45849609 10.12207031 C82.83323901 24.1260701 81.09098376 38.11224844 79.23193359 52.08691406 C79.1348838 52.81668079 79.03783401 53.54644753 78.93784332 54.2983284 C78.23857393 59.55236737 77.53634143 64.80600869 76.83349609 70.05957031 C76.1227664 75.37229234 75.41313505 80.68515662 74.70619583 85.99838448 C74.42779924 88.08666258 74.14747354 90.17467536 73.86703491 92.26268005 C73.69660675 93.54264359 73.52617859 94.82260712 73.35058594 96.14135742 C73.20197113 97.25175888 73.05335632 98.36216034 72.90023804 99.50621033 C72.34677962 104.0365208 71.91263034 108.58072786 71.45849609 113.12207031 C55.28849609 113.12207031 39.11849609 113.12207031 22.45849609 113.12207031 C24.7077935 101.87558329 24.7077935 101.87558329 26.00927734 97.89550781 C26.43551392 96.57607178 26.43551392 96.57607178 26.87036133 95.22998047 C27.1675708 94.32812012 27.46478027 93.42625977 27.77099609 92.49707031 C28.39376006 90.57531457 29.01615261 88.65343843 29.63818359 86.73144531 C29.9446582 85.78978516 30.25113281 84.848125 30.56689453 83.87792969 C31.87222234 79.8432801 33.13713926 75.79641637 34.39599609 71.74707031 C34.60716064 71.06950684 34.8183252 70.39194336 35.03588867 69.69384766 C35.51067283 68.170103 35.98468739 66.64611857 36.45849609 65.12207031 C28.05675466 65.66411815 19.82169805 67.01161484 13.95849609 73.55957031 C10.57259253 77.80179251 9.20294953 81.94993708 9.22802734 87.36035156 C9.22996094 88.34583984 9.23189453 89.33132812 9.23388672 90.34667969 C9.24613281 91.36568359 9.25837891 92.3846875 9.27099609 93.43457031 C9.27164063 94.44197266 9.27228516 95.449375 9.27294922 96.48730469 C9.30640131 102.1927441 9.74261548 107.39502542 10.45849609 113.12207031 C-4.72150391 113.12207031 -19.90150391 113.12207031 -35.54150391 113.12207031 C-35.54150391 93.17504206 -34.29420582 75.48596743 -20.54150391 60.12207031 C-19.94595703 59.43371094 -19.35041016 58.74535156 -18.73681641 58.03613281 C-6.42393094 44.70143113 11.23353125 40.38658599 28.45849609 37.12207031 C22.71429322 37.01656455 17.05827168 37.11902691 11.33349609 37.62207031 C0.40179206 38.49219474 -10.5837323 38.20596373 -21.54150391 38.12207031 C-18.08544766 29.57557145 -14.30520073 21.232495 -10.29150391 12.93457031 C-9.75009766 11.80470703 -9.20869141 10.67484375 -8.65087891 9.51074219 C-4.1388587 0.14266023 -4.1388587 0.14266023 0 0 Z " fill="#FDFDFD" transform="translate(74.54150390625,92.8779296875)"/>
<path d="M0 0 C1.77627184 0.2105061 3.54741696 0.46757361 5.31176758 0.76171875 C6.75292183 0.9484314 6.75292183 0.9484314 8.22319031 1.13891602 C10.26663695 1.4067048 12.30778015 1.6925977 14.34637451 1.99511719 C17.38508385 2.43882016 20.42431705 2.81910712 23.47436523 3.17578125 C29.57824156 3.89061564 35.67334773 4.66620148 41.76879883 5.44921875 C44.8601518 5.84289785 47.95164459 6.23546062 51.04318237 6.62768555 C53.04091482 6.88118679 55.03857675 7.13524442 57.03616333 7.38989258 C64.34652938 8.31887797 71.66228767 9.1882941 78.984375 10.01953125 C82.16170209 10.41275927 85.30069505 10.91272787 88.45629883 11.44921875 C87.83260734 23.52207209 87.03766375 35.57026923 86.08129883 47.62109375 C85.95049696 49.28492418 85.81980265 50.94876308 85.68920898 52.61260986 C85.41829255 56.05793132 85.14585278 59.50312794 84.87231445 62.94824219 C84.52278935 67.35242279 84.17758376 71.75693027 83.83352661 76.16154099 C83.56599866 79.57951472 83.29602391 82.99729188 83.02532959 86.41501617 C82.8969564 88.03998801 82.76938042 89.66502305 82.64263916 91.29012299 C82.46585559 93.55267249 82.28572134 95.81493165 82.10473633 98.07714844 C81.95270752 100.00092316 81.95270752 100.00092316 81.79760742 101.96356201 C81.4864102 105.14170261 80.98128072 108.29932742 80.45629883 111.44921875 C66.59629883 111.44921875 52.73629883 111.44921875 38.45629883 111.44921875 C39.12887949 102.03308946 39.92854316 92.74773495 41.08520508 83.39453125 C41.23916245 82.12696991 41.39311981 80.85940857 41.55174255 79.55343628 C41.95532445 76.23575098 42.36184817 72.9184551 42.76989746 69.60131836 C43.18809241 66.19545993 43.60228333 62.78911465 44.0168457 59.3828125 C44.82637295 52.73783468 45.63979264 46.09334244 46.45629883 39.44921875 C45.61579483 39.37292236 44.77529083 39.29662598 43.90931702 39.21801758 C21.02223562 37.13493624 -1.75303208 34.39757018 -24.54370117 31.44921875 C-22.30559465 26.81370056 -19.53982896 22.5461381 -16.79370117 18.19921875 C-16.2806543 17.37808594 -15.76760742 16.55695313 -15.23901367 15.7109375 C-14.46944336 14.49083984 -14.46944336 14.49083984 -13.68432617 13.24609375 C-13.22574219 12.51745117 -12.7671582 11.78880859 -12.29467773 11.03808594 C-11.42794434 9.75659668 -11.42794434 9.75659668 -10.54370117 8.44921875 C-10.15236496 7.75904663 -9.76102875 7.06887451 -9.35783386 6.35778809 C-6.76292441 2.21192993 -5.11412244 -0.113489 0 0 Z " fill="#FDFCFC" transform="translate(128.543701171875,49.55078125)"/>
</svg>
