<svg xmlns="http://www.w3.org/2000/svg" width="250" height="250" fill="none"><path fill="#F6B801" d="M28 133.182c0-15.966 0-23.948 1.228-30.601 5.535-29.976 28.9-53.429 58.764-58.984 6.628-1.233 14.581-1.233 30.487-1.233 15.906 0 23.859 0 30.487 1.233 29.863 5.555 53.229 29.008 58.764 58.984 1.228 6.653 1.228 14.635 1.228 30.601 0 15.965 0 23.948-1.228 30.601-5.535 29.976-28.901 53.428-58.764 58.984C142.338 224 134.385 224 118.479 224c-15.906 0-23.859 0-30.487-1.233-29.864-5.556-53.229-29.008-58.764-58.984C28 157.13 28 149.147 28 133.182Z"/><path fill="#065DE8" d="M222 72.227c0 25.53-20.619 46.228-46.055 46.228-25.435 0-46.054-20.697-46.054-46.228 0-25.53 20.619-46.227 46.054-46.227C201.381 26 222 46.697 222 72.227Z"/></svg>