<svg xmlns="http://www.w3.org/2000/svg" width="250" height="250" fill="none"><path fill="#FFA000" d="M39.16 197.077 68.178 12.573a5.24 5.24 0 0 1 2.092-3.401 5.287 5.287 0 0 1 3.89-.954c.811.148 1.58.472 2.25.948a5.609 5.609 0 0 1 1.635 1.808L108 66.654l11.876-22.663a5.36 5.36 0 0 1 5.224-2.851 5.37 5.37 0 0 1 2.008.584 6.196 6.196 0 0 1 2.277 2.267l80.804 153.086H39.16Z"/><path fill="#F57C00" d="M139.34 125.222 108.09 66.52 39.16 197.077l100.18-71.855Z"/><path fill="#FFCA28" d="M210.368 197.077 188.046 60.388a5.372 5.372 0 0 0-2.161-3.485 5.422 5.422 0 0 0-4-.959 5.055 5.055 0 0 0-2.902 1.467L39.16 197.077l77.457 43.46a16.262 16.262 0 0 0 15.58 0l78.171-43.46Z"/><path fill="#fff" fill-opacity=".2" d="M188.269 60.521a5.372 5.372 0 0 0-2.161-3.484 5.42 5.42 0 0 0-4-.96 4.916 4.916 0 0 0-2.901 1.467l-27.858 27.684-21.786-41.415a5.344 5.344 0 0 0-3.144-2.626 5.381 5.381 0 0 0-4.088.36 6.188 6.188 0 0 0-2.277 2.266l-11.875 22.663L78.223 10.84a5.294 5.294 0 0 0-3.18-2.54 5.336 5.336 0 0 0-4.052.452 5.484 5.484 0 0 0-1.844 1.591 5.454 5.454 0 0 0-.969 2.23L39.16 197.077l.804.4L151.572 86.384l27.858-27.685a5.287 5.287 0 0 1 7.589 0 4.752 4.752 0 0 1 1.474 2.933l21.964 135.357h.268L188.269 60.521ZM39.428 196.811l28.75-182.905a5.183 5.183 0 0 1 2.053-3.473 5.234 5.234 0 0 1 3.93-.97 5.504 5.504 0 0 1 2.258.936 5.473 5.473 0 0 1 1.626 1.819L108 67.898l11.876-22.663a5.296 5.296 0 0 1 3.138-2.644 5.334 5.334 0 0 1 4.094.378 6.196 6.196 0 0 1 2.277 2.266l21.384 40.482L39.428 196.811Z"/><path fill="#A52714" d="M132.198 239.026a16.264 16.264 0 0 1-15.625 0L39.295 196.1v1.2l77.322 43.237a16.269 16.269 0 0 0 15.581 0l78.126-43.282v-1.2l-78.126 42.971Z" opacity=".2"/><path fill="url(#a)" d="M188.269 60.521a5.372 5.372 0 0 0-2.161-3.484 5.42 5.42 0 0 0-4-.96 4.916 4.916 0 0 0-2.901 1.467l-27.858 27.684-21.786-41.415a5.344 5.344 0 0 0-3.144-2.626 5.381 5.381 0 0 0-4.088.36 6.188 6.188 0 0 0-2.277 2.266l-11.875 22.663L78.223 10.84a5.294 5.294 0 0 0-3.18-2.54 5.336 5.336 0 0 0-4.052.452 5.484 5.484 0 0 0-1.844 1.591 5.454 5.454 0 0 0-.969 2.23L39.16 197.077l77.457 43.46a16.262 16.262 0 0 0 15.58 0l78.126-43.282-22.054-136.734Z"/><defs><linearGradient id="a" x1="34.599" x2="212.449" y1="49.305" y2="228.099" gradientUnits="userSpaceOnUse"><stop stop-color="#fff" stop-opacity=".1"/><stop offset="1" stop-color="#fff" stop-opacity="0"/></linearGradient></defs></svg>