<svg width="25" height="25" viewBox="0 0 25 25" fill="none" xmlns="http://www.w3.org/2000/svg">
<path d="M20.5218 4.01542C18.2517 1.74766 15.2324 0.5 12.0201 0.5C8.80782 0.5 5.78845 1.74766 3.51994 4.01383C1.24983 6.27999 0 9.29252 0 12.4992C0 15.7059 1.24983 18.7184 3.51994 20.9846C5.79005 23.2507 8.80942 24.5 12.0217 24.5C15.2339 24.5 18.2533 23.2523 20.5234 20.9862C22.7935 18.72 24.0434 15.7075 24.0434 12.5008C24.0434 9.29411 22.7935 6.28158 20.5234 4.01542H20.5218ZM21.5325 12.5008C21.5325 17.2559 17.9871 21.2901 13.2747 21.9124V3.08604C17.9871 3.70828 21.5325 7.74408 21.5325 12.4992V12.5008ZM4.64065 6.51552C6.1854 4.61856 8.35348 3.40432 10.7671 3.08604V6.51552H4.64065ZM10.7671 9.02039V11.2595H2.59054C2.69097 10.4924 2.88705 9.73971 3.17082 9.02039H10.7671ZM10.7671 13.7628V16.0019H3.18038C2.89343 15.2826 2.69575 14.5298 2.59372 13.7628H10.7671ZM10.7671 18.5068V21.9124C8.36624 21.5957 6.20453 20.3894 4.66137 18.5068H10.7671Z" fill="#5B0EFF"/>
</svg>
