<?xml version="1.0" standalone="no"?>
<!DOCTYPE svg PUBLIC "-//W3C//DTD SVG 20010904//EN"
 "http://www.w3.org/TR/2001/REC-SVG-20010904/DTD/svg10.dtd">
<svg version="1.0" xmlns="http://www.w3.org/2000/svg"
 width="225.000000pt" height="225.000000pt" viewBox="0 0 225.000000 225.000000"
 preserveAspectRatio="xMidYMid meet">

<g transform="translate(0.000000,225.000000) scale(0.100000,-0.100000)"
fill="#000000" stroke="none">
<path d="M987 2233 c-4 -3 -20 -6 -37 -5 -19 0 -28 -3 -24 -10 4 -6 -1 -8 -14
-3 -28 8 -144 -24 -135 -38 4 -6 1 -7 -6 -2 -16 9 -103 -23 -95 -36 3 -5 10
-9 15 -9 6 0 7 4 4 10 -3 6 1 7 10 4 14 -6 14 -8 -2 -20 -10 -7 -13 -14 -6
-14 6 0 15 5 18 10 4 6 148 10 401 10 283 0 400 3 413 12 15 9 25 7 54 -9 19
-12 38 -19 41 -15 9 8 -114 63 -125 56 -5 -3 -9 0 -9 6 0 8 -7 9 -17 5 -10 -4
-36 -8 -58 -10 -22 -2 -32 -1 -22 2 9 2 15 9 12 14 -4 5 8 6 27 4 28 -5 27 -3
-9 9 -23 7 -64 16 -90 19 -33 4 -40 3 -23 -3 l25 -8 -27 -1 c-18 -1 -28 4 -28
13 0 11 -29 14 -143 15 -79 0 -147 -2 -150 -6z m93 -18 c65 -17 117 -19 122
-4 2 6 11 7 23 3 19 -8 18 -9 -5 -15 -14 -4 9 -6 50 -3 50 2 68 1 55 -6 -18
-8 -17 -9 9 -9 23 -1 27 2 21 17 -5 13 -3 14 6 5 6 -6 8 -16 5 -22 -9 -14 -73
-14 -81 -1 -3 6 -12 10 -18 10 -7 0 -6 -4 3 -10 11 -8 7 -9 -15 -4 -16 3 -70
8 -119 11 -54 4 -83 9 -75 14 11 7 10 9 -3 9 -10 0 -18 -5 -18 -12 0 -9 -3 -9
-12 0 -7 7 -21 12 -32 13 -18 1 -17 2 4 9 14 4 25 8 25 9 0 0 25 -6 55 -14z
m80 5 c0 -5 -9 -10 -20 -10 -11 0 -20 5 -20 10 0 6 9 10 20 10 11 0 20 -4 20
-10z m-194 -20 c6 -6 49 -13 95 -17 46 -3 86 -7 88 -9 2 -2 -61 -3 -140 -2
-79 2 -128 5 -109 9 20 4 27 7 15 9 -17 2 -17 3 5 10 35 11 35 11 46 0z m-116
-20 c-16 -11 -40 -13 -40 -5 0 8 44 24 50 18 2 -2 -2 -8 -10 -13z m670 -30 c0
-14 -797 -14 -805 0 -4 7 132 10 399 10 264 0 406 -3 406 -10z"/>
<path d="M640 2131 c0 -6 -8 -11 -17 -12 -14 0 -15 -2 -3 -6 8 -3 17 -9 20
-13 3 -4 14 -4 25 1 18 7 18 8 -5 8 -18 1 -21 4 -11 10 9 6 10 11 2 15 -6 4
-11 2 -11 -3z"/>
<path d="M1560 2116 c19 -7 42 -16 51 -20 10 -4 21 0 30 11 13 16 12 17 -2 5
-13 -10 -22 -9 -45 3 -16 8 -38 15 -49 14 -13 0 -8 -5 15 -13z"/>
<path d="M1530 2100 c-12 -8 -9 -10 13 -10 16 0 26 4 22 10 -8 12 -16 12 -35
0z"/>
<path d="M698 2093 c7 -3 16 -2 19 1 4 3 -2 6 -13 5 -11 0 -14 -3 -6 -6z"/>
<path d="M527 2071 c-18 -11 -25 -21 -18 -25 6 -4 16 -4 22 0 6 3 15 1 19 -6
5 -7 7 0 6 19 0 17 -1 31 -1 31 0 0 -13 -9 -28 -19z m23 -5 c0 -2 -7 -7 -16
-10 -8 -3 -12 -2 -9 4 6 10 25 14 25 6z"/>
<path d="M1685 2080 c-4 -6 -2 -17 4 -24 6 -7 8 -16 4 -20 -4 -4 1 -4 11 0 14
5 15 9 5 15 -8 4 -10 11 -6 15 3 4 14 1 24 -7 11 -9 14 -10 9 -2 -12 21 -44
35 -51 23z"/>
<path d="M1720 2030 l-35 -18 38 2 c26 2 40 -1 44 -10 7 -18 19 -18 26 0 3 8
-4 21 -16 29 -20 13 -27 13 -57 -3z m64 -19 c-2 -3 -9 0 -15 6 -6 6 -19 9 -28
6 -13 -4 -13 -3 -2 5 14 10 56 -6 45 -17z"/>
<path d="M460 2022 l-22 -17 22 -20 c17 -15 20 -16 15 -3 -8 20 26 41 52 32
15 -5 15 -4 3 5 -8 6 -23 8 -34 5 -12 -4 -16 -2 -12 5 10 16 1 14 -24 -7z m20
-6 c0 -3 -4 -8 -10 -11 -5 -3 -10 -1 -10 4 0 6 5 11 10 11 6 0 10 -2 10 -4z"/>
<path d="M1810 2001 c0 -6 8 -15 18 -21 14 -9 12 -10 -13 -6 l-30 5 28 -12
c15 -6 27 -14 27 -19 0 -4 5 -8 11 -8 5 0 7 4 4 10 -3 6 1 7 9 4 9 -3 13 -11
9 -17 -4 -6 -1 -7 7 -2 10 6 6 14 -16 32 -16 13 -35 28 -41 34 -9 6 -13 6 -13
0z"/>
<path d="M423 1970 c-1 -11 2 -20 7 -20 10 0 20 26 13 34 -12 11 -19 6 -20
-14z"/>
<path d="M1760 1966 c0 -9 7 -19 15 -23 23 -8 25 0 4 21 -17 18 -19 18 -19 2z"/>
<path d="M360 1935 c-13 -14 -19 -25 -14 -25 8 1 50 50 41 50 -2 0 -14 -11
-27 -25z"/>
<path d="M385 1930 c-10 -11 -13 -20 -8 -20 6 0 14 7 17 16 3 8 11 12 17 8 8
-4 9 -3 5 4 -9 16 -10 15 -31 -8z"/>
<path d="M310 1885 c-7 -9 -10 -18 -6 -22 3 -3 -1 -17 -9 -30 -9 -13 -11 -23
-6 -23 10 0 27 39 23 54 -2 4 3 14 9 22 6 8 9 14 6 14 -2 0 -10 -7 -17 -15z"/>
<path d="M1925 1889 c-7 -11 1 -24 15 -24 14 0 59 -55 56 -68 -1 -6 -1 -8 2
-4 2 4 11 2 20 -5 13 -11 14 -11 4 7 -26 44 -70 87 -83 79 -9 -5 -11 -2 -6 9
7 19 2 23 -8 6z"/>
<path d="M350 1879 c0 -5 5 -7 10 -4 6 3 10 8 10 11 0 2 -4 4 -10 4 -5 0 -10
-5 -10 -11z"/>
<path d="M250 1817 c-33 -40 -49 -69 -49 -87 0 -8 7 1 15 20 8 19 27 47 41 62
15 15 25 29 22 32 -2 2 -15 -10 -29 -27z"/>
<path d="M746 1836 c3 -8 12 -12 20 -9 17 6 9 23 -11 23 -8 0 -12 -6 -9 -14z"/>
<path d="M790 1839 c0 -5 5 -7 10 -4 6 3 10 8 10 11 0 2 -4 4 -10 4 -5 0 -10
-5 -10 -11z"/>
<path d="M876 1838 c3 -4 14 -8 24 -8 10 0 21 4 24 8 3 5 -8 9 -24 9 -16 0
-27 -4 -24 -9z"/>
<path d="M1110 1840 c0 -6 7 -10 15 -10 8 0 15 2 15 4 0 2 -7 6 -15 10 -8 3
-15 1 -15 -4z"/>
<path d="M1380 1840 c0 -8 50 -24 56 -18 2 2 -10 9 -26 15 -17 6 -30 8 -30 3z"/>
<path d="M828 1833 c6 -2 18 -2 25 0 6 3 1 5 -13 5 -14 0 -19 -2 -12 -5z"/>
<path d="M1041 1824 c0 -11 3 -14 6 -6 3 7 2 16 -1 19 -3 4 -6 -2 -5 -13z"/>
<path d="M1248 1833 c6 -2 18 -2 25 0 6 3 1 5 -13 5 -14 0 -19 -2 -12 -5z"/>
<path d="M1929 1824 c-12 -15 -11 -16 9 -10 16 6 22 3 22 -8 0 -9 5 -16 10
-16 16 0 12 15 -9 34 -17 15 -19 15 -32 0z"/>
<path d="M828 1813 c6 -2 18 -2 25 0 6 3 1 5 -13 5 -14 0 -19 -2 -12 -5z"/>
<path d="M1078 1813 c7 -3 16 -2 19 1 4 3 -2 6 -13 5 -11 0 -14 -3 -6 -6z"/>
<path d="M1133 1813 c9 -2 23 -2 30 0 6 3 -1 5 -18 5 -16 0 -22 -2 -12 -5z"/>
<path d="M1253 1813 c9 -2 25 -2 35 0 9 3 1 5 -18 5 -19 0 -27 -2 -17 -5z"/>
<path d="M1348 1813 c-10 -2 -18 -9 -18 -14 0 -14 20 -11 36 6 16 15 13 16
-18 8z"/>
<path d="M732 1801 c-8 -4 -13 -12 -13 -17 1 -16 -39 -55 -49 -49 -6 3 -10 2
-10 -3 0 -6 7 -12 15 -16 8 -3 15 -1 15 3 0 5 12 22 28 39 15 17 28 35 30 41
2 13 1 13 -16 2z"/>
<path d="M915 1800 c-3 -6 1 -7 9 -4 18 7 21 14 7 14 -6 0 -13 -4 -16 -10z"/>
<path d="M1208 1803 c7 -3 16 -2 19 1 4 3 -2 6 -13 5 -11 0 -14 -3 -6 -6z"/>
<path d="M940 1790 c-10 -7 -11 -10 -2 -10 7 0 21 -14 31 -31 18 -30 19 -30
18 -6 -1 14 -4 23 -6 21 -7 -7 -31 18 -25 27 7 11 3 11 -16 -1z"/>
<path d="M1400 1776 c0 -2 9 -6 20 -9 11 -3 18 -1 14 4 -5 9 -34 13 -34 5z"/>
<path d="M1503 1763 c4 -3 2 -12 -5 -20 -8 -11 -7 -12 6 -7 18 7 22 34 4 34
-6 0 -8 -3 -5 -7z"/>
<path d="M1034 1739 c-3 -6 -2 -15 4 -21 6 -6 12 -6 17 3 5 8 4 10 -3 5 -7 -4
-12 -2 -12 3 0 12 11 14 34 5 9 -3 13 -11 9 -17 -4 -6 -1 -7 7 -2 10 6 9 11
-5 22 -23 16 -41 17 -51 2z"/>
<path d="M1550 1741 c0 -5 7 -11 14 -14 10 -4 13 -1 9 9 -6 15 -23 19 -23 5z"/>
<path d="M2040 1733 c-8 -13 -13 -14 -16 -5 -6 13 -24 7 -24 -9 0 -6 4 -8 9
-5 5 3 14 0 20 -8 7 -8 20 -13 29 -11 9 1 23 -3 31 -9 9 -7 8 -1 -3 16 -10 15
-23 25 -29 21 -6 -4 -8 0 -4 10 8 22 1 22 -13 0z"/>
<path d="M1540 1698 c35 -38 60 -45 52 -15 -5 18 -6 19 -11 4 -6 -15 -10 -13
-29 13 -12 16 -27 30 -32 30 -5 0 4 -14 20 -32z"/>
<path d="M1113 1705 c0 -8 4 -15 9 -15 4 0 8 4 8 9 0 6 -4 12 -8 15 -5 3 -9
-1 -9 -9z"/>
<path d="M166 1702 c-3 -5 1 -9 9 -9 8 0 12 4 9 9 -3 4 -7 8 -9 8 -2 0 -6 -4
-9 -8z"/>
<path d="M643 1675 c0 -22 2 -30 4 -17 2 12 2 30 0 40 -3 9 -5 -1 -4 -23z"/>
<path d="M664 1612 l-1 -87 10 78 c5 45 6 82 1 87 -5 5 -10 -29 -10 -78z"/>
<path d="M1002 1686 c7 -8 15 -12 17 -11 5 6 -10 25 -20 25 -5 0 -4 -6 3 -14z"/>
<path d="M146 1663 c-6 -14 -5 -15 5 -6 7 7 10 15 7 18 -3 3 -9 -2 -12 -12z"/>
<path d="M1121 1664 c0 -11 3 -14 6 -6 3 7 2 16 -1 19 -3 4 -6 -2 -5 -13z"/>
<path d="M2096 1661 c-4 -6 -3 -11 2 -11 13 0 36 -59 34 -85 -2 -17 0 -18 9
-5 9 12 10 11 6 -6 -3 -13 1 -21 9 -21 11 0 11 6 0 31 -29 70 -53 109 -60 97z"/>
<path d="M1000 1155 c0 -280 2 -506 5 -503 7 7 8 998 1 1005 -3 3 -6 -223 -6
-502z"/>
<path d="M1147 1654 c-4 -4 -7 -14 -7 -23 0 -14 2 -14 10 -1 8 12 10 12 10 1
0 -8 3 -12 6 -8 3 3 2 13 -3 22 -5 8 -12 12 -16 9z"/>
<path d="M125 1610 c3 -5 8 -10 11 -10 2 0 4 5 4 10 0 6 -5 10 -11 10 -5 0 -7
-4 -4 -10z"/>
<path d="M1141 1594 c0 -11 3 -14 6 -6 3 7 2 16 -1 19 -3 4 -6 -2 -5 -13z"/>
<path d="M100 1570 c-13 -25 -5 -40 21 -40 11 0 18 4 14 10 -3 5 -12 7 -20 3
-18 -6 -19 1 -5 28 6 10 8 19 6 19 -3 0 -10 -9 -16 -20z"/>
<path d="M1651 1574 c0 -11 3 -14 6 -6 3 7 2 16 -1 19 -3 4 -6 -2 -5 -13z"/>
<path d="M1171 1544 c0 -11 3 -14 6 -6 3 7 2 16 -1 19 -3 4 -6 -2 -5 -13z"/>
<path d="M1632 1474 c-1 -17 -4 -47 -7 -65 l-5 -34 11 34 c5 18 8 47 6 65 l-4
31 -1 -31z"/>
<path d="M2176 1480 c3 -14 10 -32 15 -40 7 -13 8 -13 8 0 0 8 -6 26 -15 40
l-15 25 7 -25z"/>
<path d="M64 1468 c3 -10 1 -18 -3 -18 -5 0 -12 -19 -16 -42 -16 -107 -15
-104 -6 -83 5 11 10 34 10 50 1 17 7 42 15 56 9 18 10 31 4 40 -8 11 -9 10 -4
-3z"/>
<path d="M1167 1388 c-3 -18 -2 -36 2 -40 3 -4 7 11 9 33 3 47 -4 52 -11 7z"/>
<path d="M2201 1404 c0 -11 3 -14 6 -6 3 7 2 16 -1 19 -3 4 -6 -2 -5 -13z"/>
<path d="M2177 1359 c4 -13 8 -18 11 -10 2 7 -1 18 -6 23 -8 8 -9 4 -5 -13z"/>
<path d="M62 1350 c0 -14 2 -19 5 -12 2 6 2 18 0 25 -3 6 -5 1 -5 -13z"/>
<path d="M1662 1350 c0 -14 2 -19 5 -12 2 6 2 18 0 25 -3 6 -5 1 -5 -13z"/>
<path d="M1597 1319 c-12 -23 -14 -35 -7 -47 9 -15 10 -15 8 3 -1 11 4 31 11
43 19 35 8 35 -12 1z"/>
<path d="M1152 1303 c1 -17 -4 -38 -11 -47 -8 -9 -12 -19 -9 -21 3 -3 13 10
23 28 14 27 15 38 7 53 -10 17 -12 15 -10 -13z"/>
<path d="M1641 1304 c0 -11 3 -14 6 -6 3 7 2 16 -1 19 -3 4 -6 -2 -5 -13z"/>
<path d="M71 1294 c0 -11 3 -14 6 -6 3 7 2 16 -1 19 -3 4 -6 -2 -5 -13z"/>
<path d="M669 1253 c-6 -147 -5 -283 2 -283 5 0 9 72 9 160 0 88 -2 160 -5
160 -3 0 -6 -17 -6 -37z"/>
<path d="M1557 1256 c-3 -8 -29 -30 -57 -49 -39 -26 -47 -36 -35 -41 26 -10
42 -7 25 5 -13 9 -13 11 -1 16 23 9 98 82 85 83 -7 0 -14 -6 -17 -14z"/>
<path d="M10 1242 c0 -4 5 -13 12 -20 9 -9 9 -12 0 -12 -7 0 -11 -12 -11 -27
1 -21 2 -23 6 -8 3 11 9 25 14 31 10 13 2 44 -12 44 -5 0 -9 -4 -9 -8z"/>
<path d="M1570 1216 c7 -7 13 -7 20 0 6 6 3 10 -10 10 -13 0 -16 -4 -10 -10z"/>
<path d="M54 1206 c-3 -8 -4 -25 -2 -38 3 -17 5 -13 9 15 5 38 2 47 -7 23z"/>
<path d="M1100 1205 c-14 -8 -20 -14 -14 -15 5 0 19 7 30 15 24 18 16 19 -16
0z"/>
<path d="M1045 1180 c-3 -6 1 -7 9 -4 18 7 21 14 7 14 -6 0 -13 -4 -16 -10z"/>
<path d="M1421 1173 c-9 -4 -1 -12 24 -24 21 -11 41 -17 43 -14 3 3 -9 11 -27
18 -17 7 -28 16 -24 20 7 8 4 8 -16 0z"/>
<path d="M1385 1150 c-4 -6 3 -10 14 -10 25 0 27 6 6 13 -8 4 -17 2 -20 -3z"/>
<path d="M1300 1130 c34 -11 60 -11 35 0 -11 5 -29 8 -40 8 -16 0 -15 -2 5 -8z"/>
<path d="M12 1105 c0 -16 2 -22 5 -12 2 9 2 23 0 30 -3 6 -5 -1 -5 -18z"/>
<path d="M51 1114 c0 -11 3 -14 6 -6 3 7 2 16 -1 19 -3 4 -6 -2 -5 -13z"/>
<path d="M1365 1121 c-3 -6 5 -15 17 -21 21 -10 22 -10 5 3 -14 11 -15 16 -5
20 9 4 9 6 1 6 -6 1 -14 -3 -18 -8z"/>
<path d="M1045 1090 c2 -27 10 -33 12 -10 1 11 -2 22 -6 24 -4 3 -7 -4 -6 -14z"/>
<path d="M1416 1092 c-3 -5 1 -15 8 -21 11 -10 14 -9 12 3 -3 21 -13 29 -20
18z"/>
<path d="M1070 1080 c0 -5 5 -10 11 -10 5 0 7 5 4 10 -3 6 -8 10 -11 10 -2 0
-4 -4 -4 -10z"/>
<path d="M1116 1047 c3 -10 9 -15 12 -12 3 3 0 11 -7 18 -10 9 -11 8 -5 -6z"/>
<path d="M11 1034 c0 -11 3 -14 6 -6 3 7 2 16 -1 19 -3 4 -6 -2 -5 -13z"/>
<path d="M1464 1032 c18 -21 29 -23 27 -5 -1 4 -4 8 -8 8 -5 0 -15 4 -23 9 -9
6 -7 1 4 -12z"/>
<path d="M1133 1019 c-7 -7 -13 -20 -12 -28 0 -9 4 -6 10 8 9 23 10 23 23 5 8
-10 12 -22 10 -26 -2 -4 0 -9 5 -12 13 -9 8 18 -9 43 -12 18 -17 20 -27 10z"/>
<path d="M1505 992 c0 -10 5 -24 10 -32 5 -8 27 -49 48 -90 21 -42 35 -62 32
-45 -4 16 -11 32 -15 35 -5 3 -12 25 -16 49 -4 24 -10 38 -14 31 -6 -9 -9 -9
-15 0 -4 7 -1 17 6 22 11 8 10 9 -3 4 -13 -4 -18 0 -18 14 0 10 -4 21 -8 24
-5 3 -8 -3 -7 -12z"/>
<path d="M24 956 c-3 -8 -1 -23 5 -33 9 -15 10 -13 11 15 0 34 -7 42 -16 18z"/>
<path d="M2220 952 c0 -12 -5 -30 -11 -41 -8 -12 -9 -23 -2 -36 8 -14 11 -7
17 35 4 29 5 55 1 58 -3 3 -5 -4 -5 -16z"/>
<path d="M1150 954 c0 -23 26 -63 44 -68 14 -4 17 -11 13 -33 -4 -15 -4 -22
-1 -15 3 6 10 10 15 6 14 -8 11 9 -6 32 -8 12 -11 24 -7 28 3 4 -1 4 -11 0
-11 -4 -17 -1 -17 7 -1 16 -30 58 -30 43z"/>
<path d="M1582 950 c0 -8 4 -26 8 -40 6 -20 8 -21 8 -5 0 11 -3 29 -8 40 -5
12 -8 14 -8 5z"/>
<path d="M2170 901 c0 -6 4 -13 10 -16 6 -3 7 1 4 9 -7 18 -14 21 -14 7z"/>
<path d="M661 858 c0 -18 4 -55 9 -83 7 -47 7 -45 9 33 0 49 -3 82 -9 82 -5 0
-10 -15 -9 -32z"/>
<path d="M62 838 c-9 -24 -8 -37 3 -62 11 -26 13 -28 14 -9 1 12 -3 24 -8 28
-6 3 -6 17 1 36 14 40 5 47 -10 7z"/>
<path d="M2196 851 c4 -14 2 -21 -3 -18 -6 4 -8 -4 -5 -18 2 -15 0 -25 -7 -25
-6 0 -11 10 -11 22 0 12 -2 19 -5 16 -3 -2 -2 -26 2 -53 l6 -48 18 57 c14 42
16 63 8 75 -8 13 -9 11 -3 -8z"/>
<path d="M1214 816 c-10 -8 -17 -16 -14 -19 3 -2 14 4 24 14 23 22 18 25 -10
5z"/>
<path d="M1033 770 c0 -25 2 -35 4 -22 2 12 2 32 0 45 -2 12 -4 2 -4 -23z"/>
<path d="M1606 793 c-4 -9 -3 -20 2 -25 6 -6 11 1 14 16 6 29 -6 35 -16 9z"/>
<path d="M1237 793 c-4 -3 -7 -13 -7 -22 0 -13 2 -13 9 -3 6 11 10 10 15 -4 4
-10 1 -21 -6 -25 -8 -5 -5 -8 9 -6 21 1 21 2 6 32 -19 37 -18 36 -26 28z"/>
<path d="M1667 793 c-4 -3 -7 -13 -7 -22 1 -13 3 -13 11 2 11 19 8 33 -4 20z"/>
<path d="M795 740 c-3 -6 1 -7 9 -4 18 7 21 14 7 14 -6 0 -13 -4 -16 -10z"/>
<path d="M876 735 c10 -8 23 -15 28 -15 6 0 1 7 -10 15 -10 8 -23 15 -28 15
-6 0 -1 -7 10 -15z"/>
<path d="M1633 703 c5 -12 15 -23 20 -23 5 0 4 7 -3 15 -6 8 -9 18 -6 23 3 5
-1 9 -8 9 -11 0 -12 -5 -3 -24z"/>
<path d="M910 700 c0 -5 5 -10 11 -10 5 0 7 5 4 10 -3 6 -8 10 -11 10 -2 0 -4
-4 -4 -10z"/>
<path d="M1295 659 c-4 -6 -5 -12 -2 -15 2 -3 7 2 10 11 7 17 1 20 -8 4z"/>
</g>
</svg>
