<svg width="250" height="250" viewBox="0 0 250 250" fill="none" xmlns="http://www.w3.org/2000/svg">
<path d="M225 116.512C225 102.641 213.755 91.3968 199.884 91.3968C192.937 91.3968 186.661 94.229 182.116 98.7883C168.07 89.7297 150.127 83.9569 130.419 83.0563C130.431 74.6888 134.179 66.8886 140.707 61.6516C147.247 56.4057 155.693 54.4411 163.874 56.2582L164.998 56.5076C164.986 56.7892 164.955 57.0652 164.955 57.3496C164.955 68.9286 174.342 78.3154 185.921 78.3154C197.5 78.3154 206.887 68.9286 206.887 57.3496C206.887 45.7701 197.5 36.3838 185.921 36.3838C178.475 36.3838 171.953 40.2757 168.234 46.1248L166.224 45.6785C154.817 43.1437 143.043 45.8842 133.926 53.198C124.82 60.5029 119.594 71.3842 119.582 83.0563C99.8795 83.9564 81.939 89.7264 67.8951 98.7809C63.3492 94.2206 57.064 91.3964 50.1156 91.3964C36.2448 91.3968 25 102.641 25 116.512C25 126.177 30.4688 134.55 38.4724 138.749C37.8645 141.858 37.5448 145.037 37.5448 148.273C37.5448 184.361 76.6996 213.617 125 213.617C173.3 213.617 212.455 184.361 212.455 148.273C212.455 145.039 212.135 141.861 211.528 138.754C219.532 134.554 225 126.178 225 116.512ZM185.921 47.2214C191.506 47.2214 196.05 51.7649 196.05 57.3501C196.05 62.9348 191.506 67.4783 185.921 67.4783C180.336 67.4783 175.792 62.9348 175.792 57.3501C175.792 51.7649 180.336 47.2214 185.921 47.2214ZM35.8371 116.512C35.8371 108.639 42.2424 102.234 50.1156 102.234C53.4877 102.234 56.5828 103.415 59.0249 105.379C51.3862 111.933 45.4725 119.636 41.8007 128.094C38.1945 125.504 35.8371 121.283 35.8371 116.512ZM180.354 185.796C165.696 196.748 146.038 202.779 125 202.779C103.963 202.779 84.3043 196.748 69.647 185.796C55.9344 175.551 48.3823 162.224 48.3823 148.273C48.3823 134.32 55.9344 120.994 69.647 110.749C84.3043 99.7969 103.963 93.7654 125 93.7654C146.038 93.7654 165.696 99.7969 180.354 110.749C194.066 120.994 201.618 134.32 201.618 148.273C201.618 162.224 194.066 175.551 180.354 185.796ZM208.196 128.088C204.523 119.631 198.61 111.93 190.973 105.377C193.415 103.413 196.512 102.234 199.884 102.234C207.758 102.234 214.163 108.639 214.163 116.512C214.162 121.283 211.802 125.499 208.196 128.088Z" fill="#181A1C"/>
<path d="M93.0567 144.45C99.3725 144.45 104.492 139.33 104.492 133.014C104.492 126.699 99.3725 121.579 93.0567 121.579C86.741 121.579 81.6211 126.699 81.6211 133.014C81.6211 139.33 86.741 144.45 93.0567 144.45Z" fill="#D80000"/>
<path d="M156.943 144.45C163.259 144.45 168.379 139.33 168.379 133.014C168.379 126.699 163.259 121.579 156.943 121.579C150.628 121.579 145.508 126.699 145.508 133.014C145.508 139.33 150.628 144.45 156.943 144.45Z" fill="#D80000"/>
<path d="M152.102 160.801C144.04 168.145 133.59 172.19 122.675 172.19C110.419 172.19 99.0642 167.25 90.7018 158.282C88.6614 156.093 85.2326 155.974 83.0436 158.014C80.8547 160.055 80.7351 163.484 82.776 165.673C93.0597 176.701 107.603 183.026 122.676 183.026C136.297 183.026 149.339 177.978 159.4 168.811C161.612 166.795 161.772 163.368 159.756 161.156C157.742 158.946 154.317 158.784 152.102 160.801Z" fill="#181A1C"/>
</svg>
