<svg enable-background="new 0 0 160 32" viewBox="0 0 160 32" xmlns="http://www.w3.org/2000/svg"><path d="m44.3 11c-3.6 0-6.4 2.9-6.4 6.4 0 3.6 2.9 6.4 6.4 6.4 3.6 0 6.4-2.9 6.4-6.4.1-3.6-2.8-6.4-6.4-6.4zm0 10.3c-2.1 0-3.8-1.7-3.8-3.8s1.7-3.8 3.8-3.8 3.8 1.7 3.8 3.8c.1 2-1.7 3.8-3.8 3.8z" fill="#565e76"/><path d="m59.3 11c-1.8-.3-3.5.2-4.8 1.2v-3.3c0-1-.8-1.7-1.7-1.7-.5 0-.8.4-.8.8v14c0 1 .8 1.7 1.7 1.7.5 0 .8-.4.8-.8v-.3c1.1.8 2.4 1.3 3.8 1.3 3.8 0 6.8-3.3 6.4-7.2-.3-2.9-2.6-5.2-5.4-5.7zm-1.8 10.2c-1.8-.4-3-2.1-3-3.9 0-1.4.7-2.6 1.9-3.2 2.9-1.4 5.7.7 5.7 3.4.1 2.3-2.1 4.2-4.6 3.7z" fill="#565e76"/><path d="m72.2 11c-3.6 0-6.4 2.9-6.4 6.4 0 3.6 2.9 6.4 6.4 6.4s6.4-2.9 6.4-6.4c.1-3.6-2.8-6.4-6.4-6.4zm0 10.3c-2.1 0-3.8-1.7-3.8-3.8s1.7-3.8 3.8-3.8 3.8 1.7 3.8 3.8c.1 2-1.7 3.8-3.8 3.8z" fill="#565e76"/><path d="m38.9 22.8-7.1-7.1 5.9-5.9c.3-.3.1-.8-.3-.8h-1.1c-.9 0-1.8.4-2.4 1l-5.3 5.3v-4.6c0-1-.8-1.7-1.7-1.7-.4 0-.8.4-.8.8v12.2c0 1 .8 1.7 1.7 1.7.4 0 .8-.4.8-.8v-2.6c0-.8.3-1.5.8-2l.7-.7 5 5c.6.6 1.5 1 2.4 1h1.1c.4 0 .6-.5.3-.8z" fill="#565e76"/><g fill="#2095f3"><path d="m17.2 19.1v1.7c0 1-.8 1.7-1.7 1.7h-3.7c-1 0-1.7-.8-1.7-1.7v-9.6c0-1 .8-1.7 1.7-1.7h3.7c1 0 1.7.8 1.7 1.7v.2c.3-.1.7-.2 1-.2.4 0 .8.1 1.2.2v-.3c0-2.2-1.8-4-4-4h-3.7c-2.2 0-4 1.8-4 4v9.6c0 2.2 1.8 4 4 4h3.7c2.2 0 4-1.8 4-4v-4.3z"/><path d="m15.4 18.5 4-4.6c.1-.1.1-.4 0-.5-.7-.6-1.8-.5-2.4.2l-2.5 2.9c-.1.1-.2.1-.2 0l-.9-1.1c-.2-.2-.5-.2-.7 0-.6.6-.6 1.6-.1 2.3l.8.9c.4.6 1.4.6 2-.1z"/><path d="m92.3 11.8c-3.3 0-6 2.7-6 6s2.7 6 6 6 6-2.7 6-6-2.7-6-6-6zm0 10.2c-2.3 0-4.2-1.9-4.2-4.2s1.9-4.2 4.2-4.2 4.2 1.9 4.2 4.2-1.9 4.2-4.2 4.2z"/><path d="m105.2 11.8c-3.3 0-6 2.7-6 6s2.7 6 6 6 6-2.7 6-6-2.7-6-6-6zm0 10.2c-2.3 0-4.2-1.9-4.2-4.2s1.9-4.2 4.2-4.2 4.2 1.9 4.2 4.2-1.9 4.2-4.2 4.2z"/><path d="m122.3 11.8c-1.6 0-3.1.6-4.2 1.7v-3.9c0-.7-.6-1.2-1.2-1.2-.3 0-.6.3-.6.6v13.6c0 .7.6 1.2 1.2 1.2.3 0 .6-.3.6-.6v-1c1.1 1 2.5 1.7 4.2 1.7 3.3 0 6-2.7 6-6s-2.6-6.1-6-6.1zm0 10.2c-2.3 0-4.2-1.9-4.2-4.2s1.9-4.2 4.2-4.2 4.2 1.9 4.2 4.2-1.9 4.2-4.2 4.2z"/><path d="m135.3 11.8c-3.3 0-6 2.7-6 6s2.7 6 6 6 6-2.7 6-6-2.7-6-6-6zm0 10.2c-2.3 0-4.2-1.9-4.2-4.2s1.9-4.2 4.2-4.2 4.2 1.9 4.2 4.2-1.9 4.2-4.2 4.2z"/><path d="m113.1 8.3c-.3 0-.6.3-.6.6v13.6c0 .7.6 1.2 1.2 1.2.3 0 .6-.3.6-.6v-13.5c.1-.7-.5-1.3-1.2-1.3z"/><path d="m147 17.8 3.4-5.3c.2-.3 0-.8-.4-.8-.8 0-1.6.4-2 1.1l-2 3.2-2-3.2c-.4-.7-1.2-1.1-2-1.1-.4 0-.6.4-.4.8l3.4 5.3-3.4 5.3c-.2.3 0 .8.4.8.8 0 1.6-.4 2-1.1l2-3.2 2 3.2c.4.7 1.2 1.1 2 1.1.4 0 .6-.4.4-.8z"/><path d="m87.6 11c.7 0 1.2-.6 1.2-1.2 0-.3-.3-.6-.6-.6h-9.1c-.7 0-1.2.6-1.2 1.2 0 .3.3.6.6.6h3.9v11.6c0 .7.6 1.2 1.2 1.2.3 0 .6-.3.6-.6v-12.2h1.1z"/></g><path d="m0 0h160v32h-160z" fill="none"/></svg>