<svg version="1.1" id="Layer_1" xmlns="http://www.w3.org/2000/svg" xmlns:xlink="http://www.w3.org/1999/xlink" x="0px" y="0px"
	 width="100%" viewBox="0 0 500 500" enable-background="new 0 0 500 500" xml:space="preserve">
<path fill="#FFFFFF" opacity="1.000000" stroke="none" 
	d="
M335.000000,501.000000 
	C223.333359,501.000000 112.166718,501.000000 1.000060,501.000000 
	C1.000040,334.333405 1.000040,167.666794 1.000020,1.000149 
	C167.666565,1.000099 334.333130,1.000099 500.999756,1.000050 
	C500.999847,167.666519 500.999847,334.333038 500.999939,500.999786 
	C445.833344,501.000000 390.666656,501.000000 335.000000,501.000000 
M216.150452,192.840927 
	C226.710510,165.443588 246.653397,149.277191 275.693268,146.327866 
	C303.691071,143.484375 326.527954,154.473755 341.692566,178.309952 
	C356.734528,201.953369 356.828156,226.825836 342.839508,251.160965 
	C320.121002,290.682770 296.992218,329.968658 274.052155,369.363190 
	C271.841583,373.159363 269.740601,377.019287 267.588562,380.849915 
	C281.465454,388.201843 296.272156,383.768005 304.142365,370.277466 
	C325.017487,334.494873 346.185425,298.876953 366.576080,262.819824 
	C383.360748,233.139236 384.156067,202.139450 368.540314,171.992981 
	C350.986694,138.105347 321.824463,120.149384 283.790741,119.688538 
	C246.679825,119.238876 217.731674,135.800964 198.682266,168.069733 
	C177.283752,204.317719 156.296890,240.808731 135.135803,277.196869 
	C131.145828,284.057892 127.178772,290.932281 123.215508,297.775696 
	C135.036743,305.447998 151.026749,301.531586 158.717010,289.137695 
	C163.715057,281.082642 168.287750,272.763702 173.054504,264.565063 
	C178.106918,255.875183 183.163467,247.187729 187.743027,239.315994 
	C192.168732,248.543625 196.398727,257.908447 201.172531,266.987335 
	C202.621155,269.742340 202.704025,271.516388 201.162964,274.124115 
	C191.937012,289.736084 182.890411,305.454041 173.781631,321.135254 
	C167.615677,331.750214 161.446365,342.363251 155.291809,352.954315 
	C167.766953,360.982666 183.856766,356.349548 191.886444,342.602905 
	C205.816666,318.754608 219.558777,294.796051 233.576950,270.999939 
	C235.354187,267.983002 234.591080,266.532990 232.494049,264.290436 
	C213.459961,243.935287 208.144379,220.288147 216.150452,192.840927 
M297.517303,192.906586 
	C277.049072,182.872864 253.607513,190.500977 244.282471,210.030762 
	C236.296539,226.756012 240.215057,254.859756 270.897400,264.454559 
	C248.368439,303.242920 225.877960,341.965057 203.385925,380.689911 
	C216.579971,388.143341 231.973969,383.964203 239.516983,371.080017 
	C263.812256,329.581329 288.069977,288.059540 312.089905,246.401215 
	C323.405945,226.775604 317.445160,204.915085 297.517303,192.906586 
z"/>
<path fill="#6360FF" opacity="1.000000" stroke="none" 
	d="
M216.049606,193.225357 
	C208.144379,220.288147 213.459961,243.935287 232.494049,264.290436 
	C234.591080,266.532990 235.354187,267.983002 233.576950,270.999939 
	C219.558777,294.796051 205.816666,318.754608 191.886444,342.602905 
	C183.856766,356.349548 167.766953,360.982666 155.291809,352.954315 
	C161.446365,342.363251 167.615677,331.750214 173.781631,321.135254 
	C182.890411,305.454041 191.937012,289.736084 201.162964,274.124115 
	C202.704025,271.516388 202.621155,269.742340 201.172531,266.987335 
	C196.398727,257.908447 192.168732,248.543625 187.743027,239.315994 
	C183.163467,247.187729 178.106918,255.875183 173.054504,264.565063 
	C168.287750,272.763702 163.715057,281.082642 158.717010,289.137695 
	C151.026749,301.531586 135.036743,305.447998 123.215508,297.775696 
	C127.178772,290.932281 131.145828,284.057892 135.135803,277.196869 
	C156.296890,240.808731 177.283752,204.317719 198.682266,168.069733 
	C217.731674,135.800964 246.679825,119.238876 283.790741,119.688538 
	C321.824463,120.149384 350.986694,138.105347 368.540314,171.992981 
	C384.156067,202.139450 383.360748,233.139236 366.576080,262.819824 
	C346.185425,298.876953 325.017487,334.494873 304.142365,370.277466 
	C296.272156,383.768005 281.465454,388.201843 267.588562,380.849915 
	C269.740601,377.019287 271.841583,373.159363 274.052155,369.363190 
	C296.992218,329.968658 320.121002,290.682770 342.839508,251.160965 
	C356.828156,226.825836 356.734528,201.953369 341.692566,178.309952 
	C326.527954,154.473755 303.691071,143.484375 275.693268,146.327866 
	C246.653397,149.277191 226.710510,165.443588 216.049606,193.225357 
z"/>
<path fill="#625FFF" opacity="1.000000" stroke="none" 
	d="
M297.848022,193.074463 
	C317.445160,204.915085 323.405945,226.775604 312.089905,246.401215 
	C288.069977,288.059540 263.812256,329.581329 239.516983,371.080017 
	C231.973969,383.964203 216.579971,388.143341 203.385925,380.689911 
	C225.877960,341.965057 248.368439,303.242920 270.897400,264.454559 
	C240.215057,254.859756 236.296539,226.756012 244.282471,210.030762 
	C253.607513,190.500977 277.049072,182.872864 297.848022,193.074463 
M270.487335,234.978897 
	C277.114441,239.952026 284.126129,239.609390 288.578766,234.094833 
	C292.658875,229.041641 291.977844,221.831421 287.012299,217.509964 
	C282.743927,213.795258 275.604370,213.756485 271.391510,217.425140 
	C266.268311,221.886505 265.806152,227.509537 270.487335,234.978897 
z"/>
<path fill="#FCFBFF" opacity="1.000000" stroke="none" 
	d="
M270.241394,234.695404 
	C265.806152,227.509537 266.268311,221.886505 271.391510,217.425140 
	C275.604370,213.756485 282.743927,213.795258 287.012299,217.509964 
	C291.977844,221.831421 292.658875,229.041641 288.578766,234.094833 
	C284.126129,239.609390 277.114441,239.952026 270.241394,234.695404 
z"/>
</svg>