<svg width="33" height="34" viewBox="0 0 33 34" fill="none" xmlns="http://www.w3.org/2000/svg">
  <path fill-rule="evenodd" clip-rule="evenodd" d="M10.9703 4.06393C14.5335 0.0383876 20.4221 -1.1434 25.2663 1.18115C31.7021 4.26839 34.0504 12.1345 30.5474 18.2013L22.6635 31.8338C22.4457 32.2113 22.1556 32.5423 21.8098 32.8077C21.464 33.0731 21.0694 33.2677 20.6483 33.3806C20.2273 33.4934 19.7882 33.5221 19.356 33.4652C18.9239 33.4082 18.5072 33.2667 18.1298 33.0487L27.6731 16.5435C28.2794 15.4914 28.662 14.3254 28.7969 13.1186C28.9318 11.9117 28.8161 10.6901 28.4571 9.52999C28.0981 8.36994 27.5035 7.29647 26.7106 6.37679C25.9176 5.45712 24.9433 4.71103 23.8487 4.18525C20.3474 2.49868 16.0674 3.34111 13.4798 6.24086C12.0535 7.83278 11.2529 9.88791 11.2264 12.0252C11.1998 14.1624 11.9492 16.2368 13.3356 17.8636C13.5846 18.1551 13.8527 18.4298 14.1382 18.6857L8.56435 28.341C8.34651 28.7186 8.05643 29.0495 7.71069 29.3149C7.36494 29.5803 6.9703 29.7751 6.5493 29.8879C6.12829 30.0008 5.68918 30.0297 5.25702 29.9729C4.82486 29.916 4.40814 29.7746 4.03063 29.5568L10.0812 19.0734C9.21197 17.8212 8.58734 16.4159 8.24027 14.9316L4.53372 21.3682C4.31581 21.7457 4.02568 22.0765 3.6799 22.3419C3.33413 22.6072 2.93947 22.8019 2.51848 22.9147C2.09748 23.0275 1.65838 23.0563 1.22626 22.9994C0.794139 22.9425 0.377455 22.801 0 22.5831L9.58664 5.98126C9.9854 5.29931 10.4488 4.65725 10.9703 4.06393ZM24.4309 13.0243C24.5367 14.0426 24.3171 15.0682 23.8037 15.9539C23.2514 16.9092 14.6124 31.8338 14.6124 31.8338C14.3946 32.2113 14.1045 32.5423 13.7587 32.8077C13.413 33.0731 13.0183 33.2677 12.5973 33.3805C12.1762 33.4934 11.7371 33.5221 11.305 33.4652C10.8728 33.4082 10.4561 33.2667 10.0787 33.0487L18.6142 18.2649C17.6124 18.0539 16.7033 17.5309 16.0172 16.7711C15.3311 16.0113 14.9034 15.0537 14.7954 14.0356C14.6874 13.0176 14.9047 11.9915 15.4161 11.1047C15.9275 10.2179 16.7068 9.51583 17.642 9.09938C18.5772 8.68292 19.6203 8.57344 20.6215 8.78666C21.6228 8.99988 22.5308 9.52482 23.2152 10.2862C23.8996 11.0475 24.3252 12.0061 24.4309 13.0243ZM18.6927 12.3327C18.5348 12.4539 18.4023 12.6051 18.3028 12.7776H18.302C18.1519 13.0374 18.0822 13.3358 18.1017 13.6352C18.1213 13.9347 18.2291 14.2215 18.4117 14.4596C18.5943 14.6977 18.8434 14.8763 19.1275 14.9728C19.4116 15.0693 19.718 15.0794 20.0078 15.0017C20.2976 14.9241 20.5579 14.7623 20.7558 14.5367C20.9536 14.3111 21.0801 14.032 21.1193 13.7345C21.1585 13.437 21.1085 13.1346 20.9758 12.8655C20.8431 12.5964 20.6336 12.3727 20.3737 12.2227C20.2013 12.1231 20.011 12.0584 19.8136 12.0323C19.6162 12.0063 19.4156 12.0194 19.2233 12.0709C19.031 12.1225 18.8507 12.2114 18.6927 12.3327Z" fill="currentColor"/>
</svg>