<svg xmlns="http://www.w3.org/2000/svg" viewBox="0 0 88.42 52.28"><title>fleetio-logo-mark-only</title><g id="Layer_2" data-name="Layer 2"><g id="Layer_1-2" data-name="Layer 1"><path d="M76.44,16.15A4.49,4.49,0,0,0,72,19.89L64.3,0H17.76L10,19.89a4.49,4.49,0,1,0-4.42,5.26V48l10.67-7.74h-.23a6,6,0,1,1,5.62-3.92l.11-.08L54,48.57l22.46-13V25.15a4.5,4.5,0,0,0,0-9Zm-33,4.5H14L20.5,4H61.56L68,20.65H64.45c0-.06,0-.12,0-.18a10.5,10.5,0,1,0-21,0C43.46,20.53,43.47,20.59,43.47,20.65Zm3.5,0c0-.06,0-.12,0-.18a7,7,0,0,1,14,0c0,.06,0,.12,0,.18ZM66,40.32a6,6,0,1,1,6-6A6,6,0,0,1,66,40.32Z" fill="#242b2e"/><polygon id="_Path_" data-name="&lt;Path&gt;" points="88.42 28.34 84.68 37.56 83.19 35.07 53.96 52.28 21.73 39.51 0 52.28 21.73 32.37 53.96 45.12 79.97 29.71 78.52 27.27 88.42 28.34" fill="#18cc6c"/></g></g></svg>