<svg xmlns="http://www.w3.org/2000/svg" width="250" height="250" viewBox="0 0 71 71" fill="none">
  <path fill="#1A1919" transform="translate(0 25.5)" d="M5.098 6.736c-1.768 0-2.636 1.57-2.636 3.669v5.256H-.032V4.568h2.45v2.878h.042c.524-1.77 1.565-3.2 3.174-3.2 1.132 0 1.607.399 1.607.399L6.116 6.93s-.358-.194-1.018-.194M35.237 8.26v7.401h-2.428v-6.5c0-1.865-.58-2.853-2.064-2.853s-2.28 1.251-2.28 3.647v5.706h-2.407v-6.5c0-1.794-.574-2.853-2.043-2.853-1.676 0-2.321 1.48-2.321 3.647v5.706h-2.45V4.568h2.45V7.08h.022c.38-1.737 1.424-2.811 3.182-2.811s2.878.943 3.31 2.62c.41-1.613 1.504-2.62 3.182-2.62 2.341 0 3.847 1.479 3.847 3.99M12.141 4.249c-2.255 0-3.728 1.067-4.4 2.993l2.074.762c.378-1.162 1.167-1.823 2.37-1.823 1.355 0 2.149.602 2.149 1.523 0 .922-.633 1.14-2.064 1.374-1.59.258-5.375.344-5.375 3.56 0 1.886 1.562 3.304 3.911 3.304 1.765 0 2.97-.728 3.526-2.082h.022v1.804h2.428V8.842c0-2.986-1.491-4.59-4.643-4.59zm2.257 6.19c0 2.328-1.142 3.822-2.966 3.822-1.29 0-2.065-.73-2.065-1.782 0-.988.796-1.671 2.322-1.954 1.56-.29 2.346-.646 2.707-1.501v1.418zm29.48-6.17c-1.857 0-3.086 1.03-3.61 2.575V4.568h-2.579V19.93h2.557v-6.547h.022c.569 1.676 1.755 2.598 3.61 2.598 2.944 0 5.05-2.445 5.05-5.9 0-3.431-2.106-5.812-5.05-5.812m-.636 9.655c-2.04 0-3.17-1.492-3.17-3.81 0-2.316 1.267-3.808 3.17-3.808s3.17 1.563 3.17 3.809-1.266 3.809-3.17 3.809M70.028 15.612v.07h-9.983v-.07c1.439-.82 2.432-1.654 3.327-2.526h4.1zm-2.473-13.11L65.027 0h-.074s.042 4.664-4.205 8.906c-4.156 4.15-9.046 4.16-9.046 4.16v.074l2.578 2.546s4.819.05 9.074-4.16c4.24-4.195 4.205-9.022 4.205-9.022z"/>
</svg>
