<svg fill="none" height="26" viewBox="0 0 96 26" width="96" xmlns="http://www.w3.org/2000/svg" xmlns:xlink="http://www.w3.org/1999/xlink"><clipPath id="a"><path d="m0 .015869h96v25.9684h-96z"/></clipPath><g clip-path="url(#a)" fill="#3d3d3d"><path d="m6.64257 8.79302c-2.28962 0-3.41358 2.04688-3.41358 4.77998v6.8492h-3.22899v-14.45351h3.17241v3.74982h.05509c.67735-2.30551 2.0276-4.16846 4.11029-4.16846 1.46488 0 2.08269.51881 2.08269.51881l-1.45744 2.97684c0-.0015-.46447-.25268-1.32047-.25268zm39.03513 1.98408v9.6437h-3.1456v-8.47c0-2.43114-.7518-3.71846-2.6722-3.71846-1.9889 0-2.9506 1.62821-2.9506 4.75156v7.4354h-3.1173v-8.4685c0-2.33695-.7429-3.71846-2.644-3.71846-2.1705 0-3.0057 1.92876-3.0057 4.75156v7.4354h-3.1724v-14.45061h3.1724v3.27287h.0283c.4943-2.26514 1.843-3.6631 4.1193-3.6631 2.2568 0 3.7277 1.2305 4.2859 3.41192.5315-2.09919 1.9457-3.41192 4.1192-3.41192 3.0325 0 4.9827 1.92873 4.9827 5.19864zm-29.9109-5.22705c-2.9193 0-4.8293 1.39048-5.7002 3.90083l2.6871.99132c.4898-1.51462 1.511-2.37732 3.0697-2.37732 1.7537 0 2.7838.78346 2.7838 1.98552 0 1.229-.8202 1.4862-2.6722 1.7897-2.0603.3364-6.95964.4471-6.95964 4.6395 0 2.4565 2.02464 4.3045 5.06604 4.3045 2.2866 0 3.8438-.9479 4.5643-2.7122h.0283v2.3489h3.1456v-8.8887c-.0014-3.88885-1.9308-5.98205-6.0128-5.98205zm2.9223 8.06775c0 3.0307-1.4783 4.9774-3.8408 4.9774-1.6703 0-2.6722-.9509-2.6722-2.322 0-1.2858 1.0301-2.1784 3.0056-2.5462 2.0217-.3768 3.04-.8418 3.5074-1.9572zm38.1777-8.03934c-2.4058 0-3.9957 1.34114-4.676 3.3566v-2.96637h-3.3407v20.01551h3.3124v-8.5283h.0283c.7369 2.1829 2.2717 3.3835 4.676 3.3835 3.8125 0 6.5413-3.1862 6.5413-7.688-.0015-4.47052-2.7288-7.57294-6.5413-7.57294zm-.8218 12.57864c-2.6409 0-4.1058-1.9437-4.1058-4.9624s1.639-4.96236 4.1058-4.96236c2.4653 0 4.1058 2.03786 4.1058 4.96236 0 2.926-1.639 4.9624-4.1058 4.9624z"/><path d="m96.2197 20.3553v.0901l-12.9282.0046v-.0947c1.8642-1.068 3.151-2.1559 4.3089-3.2927h5.3085zm-3.2033-17.07889-3.277-3.2605409h-.0952s.0553 6.0764609-5.4467 11.6028309c-5.3838 5.4088-11.7151 5.421-11.7151 5.421v.0948l3.3384 3.317s6.2391.0627 11.7504-5.421c5.4913-5.46526 5.4452-11.75409 5.4452-11.75409z"/></g></svg>