<svg width="250" height="250" viewBox="0 0 1000 1000" fill="none" xmlns="http://www.w3.org/2000/svg">
<path fill-rule="evenodd" clip-rule="evenodd" d="M718.266 204.301C723.483 209.453 723.483 217.876 718.266 223.027L690.178 250.76C685.054 255.82 676.814 255.82 671.689 250.76L517.36 98.3793C508.321 89.4539 493.665 89.4539 484.625 98.3793L99.2991 478.841C90.2596 487.767 90.2596 502.238 99.2991 511.163L484.625 891.625C493.665 900.551 508.321 900.551 517.36 891.625L902.686 511.163C902.907 510.945 903.123 510.724 903.333 510.499L951.674 462.769C957.781 456.738 967.98 458.116 970.805 466.221C981.574 497.112 974.472 532.731 949.501 557.387L564.175 937.849C529.28 972.303 472.705 972.303 437.81 937.849L52.4844 557.387C17.5899 522.933 17.5898 467.072 52.4844 432.618L437.81 52.1555C472.705 17.7015 529.28 17.7013 564.175 52.1555L718.266 204.301ZM949.425 304.498C955.451 310.449 955.451 320.096 949.425 326.046L515.84 754.158C509.814 760.108 500.043 760.108 494.017 754.158L425.482 686.488C424.042 685.066 422.946 683.434 422.194 681.691L241.084 502.867C235.058 496.916 235.058 487.269 241.084 481.319L309.619 413.649C315.646 407.698 325.416 407.698 331.443 413.649L505.714 585.72L859.066 236.828C865.093 230.878 874.863 230.878 880.89 236.828L949.425 304.498Z" fill="#486581"/>
</svg>
