<?xml version="1.0" encoding="UTF-8"?>
<svg version="1.1" xmlns="http://www.w3.org/2000/svg" width="280" height="280">
<path d="M0 0 C92.4 0 184.8 0 280 0 C280 92.4 280 184.8 280 280 C187.6 280 95.2 280 0 280 C0 187.6 0 95.2 0 0 Z " fill="#FEFEFE" transform="translate(0,0)"/>
<path d="M0 0 C7.43529894 6.42598234 14.88544459 14.38724455 18.15234375 23.86328125 C18.15234375 25.18328125 18.15234375 26.50328125 18.15234375 27.86328125 C19.30089844 27.816875 20.44945312 27.77046875 21.6328125 27.72265625 C38.49922371 27.24336223 51.85068428 30.85000675 64.46484375 42.67578125 C73.87909529 52.68806926 77.63359822 63.52616125 77.43359375 77.11083984 C77.0117479 90.17875566 71.59219533 101.23361313 62.578125 110.671875 C50.75470045 121.35293969 37.70604604 123.02296051 22.42407227 122.97680664 C20.52059273 122.97702568 20.52059273 122.97702568 18.57865906 122.97724915 C15.11635974 122.97753488 11.65409539 122.97167434 8.19180417 122.96467519 C4.56699379 122.95840438 0.94218252 122.95783491 -2.68263245 122.95664978 C-9.53893829 122.95354743 -16.3952281 122.94534886 -23.25152689 122.93530029 C-31.06048643 122.92410506 -38.86944675 122.91862012 -46.67841232 122.91360486 C-62.7348366 122.90316529 -78.79124374 122.88538461 -94.84765625 122.86328125 C-94.84765625 117.25328125 -94.84765625 111.64328125 -94.84765625 105.86328125 C-91.63015625 105.77046875 -91.63015625 105.77046875 -88.34765625 105.67578125 C-82.1683752 105.23797794 -77.3366376 104.34019545 -72.84765625 99.86328125 C-70.85691765 96.76511191 -70.5243247 94.20374052 -70.47265625 90.55078125 C-70.44429687 89.64714844 -70.4159375 88.74351562 -70.38671875 87.8125 C-71.012545 83.8082727 -72.69621701 81.28602549 -74.84765625 77.86328125 C-73.98076172 77.85393555 -73.11386719 77.84458984 -72.22070312 77.83496094 C-68.96989884 77.79065548 -65.71999998 77.72891172 -62.46972656 77.65576172 C-61.06945664 77.62773054 -59.66903374 77.60642809 -58.26855469 77.59228516 C-50.29062844 77.50692931 -43.68117665 77.36815467 -36.84765625 72.86328125 C-33.35176995 69.25462442 -32.70226005 65.45844275 -32.59765625 60.55078125 C-32.67163907 56.05262572 -33.53413207 52.79627236 -35.84765625 48.86328125 C-40.98238628 44.79828664 -44.71232275 43.73729414 -51.1550293 43.74975586 C-52.45615158 43.74983139 -53.75727386 43.74990692 -55.0978241 43.74998474 C-56.51834145 43.7550914 -57.93885842 43.7603074 -59.359375 43.765625 C-60.81240287 43.76749034 -62.26543136 43.76891369 -63.71846008 43.76991272 C-67.54071797 43.77372879 -71.3629378 43.78355132 -75.18518066 43.7946167 C-79.08633916 43.80485038 -82.98750382 43.80941454 -86.88867188 43.81445312 C-94.54168401 43.82517439 -102.19466479 43.8422399 -109.84765625 43.86328125 C-109.70456768 42.2632384 -109.5566665 40.66362544 -109.40673828 39.06420898 C-109.32489288 38.1733812 -109.24304749 37.28255341 -109.15872192 36.36473083 C-107.52472274 23.22484777 -97.77111437 10.10355694 -87.84765625 1.86328125 C-62.23097938 -17.19757941 -26.33573636 -19.76083373 0 0 Z " fill="#56B144" transform="translate(171.84765625,84.13671875)"/>
<path d="M0 0 C2.44314583 -0.01254303 4.88627127 -0.03005238 7.3293457 -0.05255127 C10.79378648 -0.08241714 14.25773501 -0.09233155 17.72229004 -0.09695435 C18.76672272 -0.10925583 19.8111554 -0.12155731 20.88723755 -0.13423157 C29.92191915 -0.10667049 29.92191915 -0.10667049 33.79260254 3.23117065 C36.75527098 7.67517332 36.56206147 12.02018143 35.79260254 17.23117065 C33.59100514 20.12800933 32.00665792 21.62414297 28.79260254 23.23117065 C25.98431244 23.47164889 23.20071704 23.64501297 20.38635254 23.77023315 C19.47623413 23.81145294 18.56611572 23.85267273 17.62841797 23.8951416 C4.09328313 24.44560636 -9.45241745 24.52888036 -22.99694824 24.58126831 C-26.16617544 24.5947863 -29.33478577 24.62302763 -32.50378418 24.66329956 C-36.386001 24.7125507 -40.26764602 24.73736967 -44.15016174 24.74449539 C-45.61420546 24.75118418 -47.07823741 24.7663443 -48.542099 24.7903862 C-50.57418259 24.82197802 -52.60671373 24.81907726 -54.63903809 24.81466675 C-56.36603943 24.82679703 -56.36603943 24.82679703 -58.12792969 24.83917236 C-62.17062608 24.04099343 -63.64572575 22.38690637 -66.20739746 19.23117065 C-67.45039851 15.5021675 -67.87856486 12.09767851 -67.20739746 8.23117065 C-65.46832158 5.20725513 -63.37242424 2.81368404 -60.20739746 1.23117065 C-55.46875286 0.85449768 -50.70879059 0.79421215 -45.95739746 0.66867065 C-44.84990143 0.63839783 -44.84990143 0.63839783 -43.72003174 0.60751343 C-29.1497325 0.22265361 -14.57492719 0.06561255 0 0 Z " fill="#58B245" transform="translate(98.2073974609375,132.76882934570313)"/>
<path d="M0 0 C1.50692665 -0.01429802 1.50692665 -0.01429802 3.04429626 -0.02888489 C4.12352859 -0.02797348 5.20276093 -0.02706207 6.31469727 -0.02612305 C7.4291774 -0.03040817 8.54365753 -0.0346933 9.69190979 -0.03910828 C12.04801759 -0.04484932 14.40414311 -0.0453535 16.76025391 -0.04101562 C20.36399592 -0.03785679 23.96691618 -0.06131471 27.57055664 -0.08666992 C29.86026915 -0.08894304 32.14998386 -0.08964635 34.43969727 -0.08862305 C36.05550941 -0.10243767 36.05550941 -0.10243767 37.70396423 -0.11653137 C47.02114522 -0.05894405 47.02114522 -0.05894405 50.94360352 3.2746582 C53.01280281 5.90818458 52.94291073 7.3127613 52.88110352 10.7121582 C51.72677142 15.09862017 50.51066571 16.49561367 46.94360352 19.2746582 C43.85053843 19.83227253 41.29647755 20.06729885 38.19360352 20.0871582 C37.31124023 20.10794434 36.42887695 20.12873047 35.51977539 20.15014648 C33.50175137 20.19052054 31.48344241 20.21790198 29.46508789 20.23510742 C26.18374717 20.27196108 22.90655209 20.35063712 19.62640381 20.4405365 C16.64313991 20.51650434 13.65978562 20.56705253 10.67590332 20.61166382 C9.19308714 20.63690178 7.71038003 20.669745 6.22790527 20.71035767 C4.12224162 20.76436193 2.01861998 20.78514825 -0.08764648 20.7980957 C-1.31032227 20.81791504 -2.53299805 20.83773437 -3.79272461 20.8581543 C-7.96808496 20.11166184 -9.40670615 18.50404434 -12.05639648 15.2746582 C-13.48301867 12.42141383 -13.36673516 10.44011271 -13.05639648 7.2746582 C-9.61732924 1.87040967 -6.31533992 0.03298835 0 0 Z " fill="#5BB347" transform="translate(44.056396484375,164.725341796875)"/>
<path d="M0 0 C1.18722656 -0.00515625 2.37445313 -0.0103125 3.59765625 -0.015625 C4.83386719 -0.00015625 6.07007813 0.0153125 7.34375 0.03125 C9.19806641 0.00804687 9.19806641 0.00804687 11.08984375 -0.015625 C12.87068359 -0.00789062 12.87068359 -0.00789062 14.6875 0 C15.77224609 0.00451172 16.85699219 0.00902344 17.97460938 0.01367188 C21.4851468 0.64695466 22.66547826 1.76342674 24.84375 4.53125 C25.77241509 8.27515967 25.34749653 11.59572074 23.53125 14.96875 C19.14697014 19.02826838 12.06330901 17.8773974 6.46875 17.96875 C5.33179687 18.01451172 4.19484375 18.06027344 3.0234375 18.10742188 C-5.10406299 18.21712405 -5.10406299 18.21712405 -8.05737305 16.29199219 C-10.56912753 13.45812702 -11.15346421 11.69282576 -11.21875 7.90625 C-9.25860109 1.67989465 -6.38707643 0.02656538 0 0 Z " fill="#58B144" transform="translate(43.15625,191.46875)"/>
</svg>
