<svg width="256px" height="256px" viewBox="0 0 256 256" version="1.1" xmlns="http://www.w3.org/2000/svg" xmlns:xlink="http://www.w3.org/1999/xlink" preserveAspectRatio="xMidYMid">
    <g>
        <path d="M0,128.002 C0,180.416 31.518,225.444 76.619,245.241 C76.259,236.303 76.555,225.573 78.847,215.848 C81.308,205.457 95.317,146.1 95.317,146.1 C95.317,146.1 91.228,137.927 91.228,125.848 C91.228,106.879 102.222,92.712 115.914,92.712 C127.557,92.712 133.182,101.457 133.182,111.929 C133.182,123.633 125.717,141.14 121.878,157.355 C118.671,170.933 128.686,182.008 142.081,182.008 C166.333,182.008 182.667,150.859 182.667,113.953 C182.667,85.899 163.772,64.901 129.405,64.901 C90.577,64.901 66.388,93.857 66.388,126.201 C66.388,137.353 69.676,145.217 74.826,151.307 C77.194,154.104 77.523,155.229 76.666,158.441 C76.052,160.796 74.642,166.466 74.058,168.713 C73.206,171.955 70.579,173.114 67.649,171.917 C49.765,164.616 41.436,145.031 41.436,123.015 C41.436,86.654 72.102,43.054 132.918,43.054 C181.788,43.054 213.953,78.418 213.953,116.379 C213.953,166.592 186.037,204.105 144.887,204.105 C131.068,204.105 118.069,196.635 113.616,188.15 C113.616,188.15 106.185,217.642 104.611,223.337 C101.897,233.206 96.585,243.07 91.728,250.758 C103.24,254.156 115.401,256.007 128.005,256.007 C198.689,256.007 256.001,198.698 256.001,128.002 C256.001,57.309 198.689,0 128.005,0 C57.314,0 0,57.309 0,128.002 Z" fill="#CB1F27"></path>
    </g>
</svg>
