<svg xmlns="http://www.w3.org/2000/svg" width="32" height="32" fill="none" viewBox="0 0 32 32"><rect width="32" height="32" fill="#fff" rx="6"/><path fill="#293745" d="M26.354 14.88c-1.45 2.467-5.436 4.304-7.604 2.156-1.46-1.448-.935-3.407.035-4.643.965-1.23 3.135-2.07 4.455-.916.349.306.589.705.722 1.195.04.145.181.237.329.21l2.362-.451a.427.427 0 0 0 .344-.47c-.08-.708-.466-2.218-2.251-3.35-.776-.492-1.698-.668-2.683-.668a7.598 7.598 0 0 0-2.904.564 7.395 7.395 0 0 0-2.27 1.435c.127.319.212.663.25 1.032a1.13 1.13 0 0 1-.921 1.229l-1.024.195a7.116 7.116 0 0 0-.27.76 3.285 3.285 0 0 1 1.136 1.107c.43.692.615 1.551.52 2.418a4.855 4.855 0 0 1-.714 2.042c1.427 1.626 3.883 2.17 5.95 1.678 2.04-.485 4.75-2.15 5.114-5.371.045-.4-.379-.487-.576-.152Z"/><path fill="#293745" d="M15.454 14.641a2.58 2.58 0 0 0-.706-.747c-.014-.01-.027-.022-.042-.032-.942-.637-2.133-.715-3.18-1.11-.318-.12-.716-.282-.838-.625-.156-.441.142-.9.54-1.1.233-.116.532-.173.818-.173.14 0 .278.014.403.042a.95.95 0 0 1 .768.855.28.28 0 0 0 .282.239.29.29 0 0 0 .056-.005l2.033-.387.497-.095a.424.424 0 0 0 .345-.457 3.229 3.229 0 0 0-.097-.523c-.524-1.921-2.7-2.308-3.767-2.308-1.034 0-1.935.156-2.703.468a3.96 3.96 0 0 0-1.823 1.445c-.447.651-.67 1.436-.67 2.356 0 1.138.715 1.961 1.755 2.397.783.328 1.638.45 2.441.724.667.227 1.215.698.861 1.428-.265.55-.93.8-1.519.8-.866 0-1.246-.725-1.385-1.105a.283.283 0 0 0-.323-.178l-2.597.495a.424.424 0 0 0-.345.463c.09.793.452 1.668 1.09 2.171.747.589 1.768.883 3.064.883 1.067 0 2.01-.17 2.829-.509a4.337 4.337 0 0 0 2.162-1.95c.247-.46.41-.966.469-1.498.076-.687-.06-1.39-.418-1.964Z"/><path fill="gold" d="M25.634 21.521h-6.396a2.417 2.417 0 0 1-1.518 1.74l6.698-.435a1.411 1.411 0 0 0 1.354-1.135.14.14 0 0 0-.138-.17Z"/><path fill="#00D1FF" d="M19.238 21.521h-6.805l-.001.012a2.939 2.939 0 0 1-1.924 2.199l7.212-.47a2.417 2.417 0 0 0 1.518-1.74Z"/><path fill="#6559FF" d="M5.003 23.91a.142.142 0 0 0 .142.17l5.363-.348a2.936 2.936 0 0 0 1.924-2.2l.001-.01H7.92c-1.419 0-2.64 1-2.917 2.388Z"/></svg>
