<svg xmlns="http://www.w3.org/2000/svg" width="250" height="250" fill="none"><path fill="#5F5CFF" stroke="#5F5CFF" d="M204.488 35.875H48.07c-12.799 0-23.174 10.297-23.174 23v132.25c0 12.703 10.375 23 23.174 23h156.418c12.798 0 23.173-10.297 23.173-23V58.875c0-12.703-10.375-23-23.173-23Z"/><path fill="#fff" fill-rule="evenodd" d="m126.176 67.5 34.863 35.187-6.236 7.973-28.799 77.59-17.158-54.166-17.327-31.822L126.176 67.5Zm20.015 53.498-17.786 21.864v26.051l17.786-47.915Zm-18.736-45.822-14.135 58.23 10.613 33.494.003-25.656 31.095-38.232-27.576-27.836Zm-5.249 2.668L97.06 103.068l13.16 24.169 11.986-49.393Z" clip-rule="evenodd"/></svg>