<svg xmlns="http://www.w3.org/2000/svg" width="250" height="250" fill="none"><path fill="#60C7CC" fill-rule="evenodd" d="M113.571 43.217c-.914.082-3.158.442-4.986.8C93.519 46.96 80.37 55.693 69.849 69.744l-2.265 3.025-2.354-.3c-8.014-1.02-18.598.255-26.871 3.24-16.635 6.002-29.84 19.47-35.453 36.159-2.37 7.049-3.502 16.063-2.592 20.647 3.093 15.572 14.727 29.585 31.396 37.819 16.901 8.348 36.982 10.56 54.864 6.043 2.246-.567 4.11-.987 4.144-.933 8.489 13.861 20.639 23.521 35.943 28.574 31.992 10.565 67.325-.489 83.647-26.17 1.075-1.69 1.954-3.228 1.954-3.417 0-.189 1.58-1.071 3.511-1.959 22.261-10.241 35.258-27.728 34.163-45.963-1.223-20.357-15.266-38.056-37.139-46.806-12.125-4.85-27.054-6.741-40.026-5.07l-1.885.242-3.3-4.492c-7.036-9.577-15.36-16.744-24.927-21.464-9.559-4.717-19.165-6.6-29.088-5.703Zm21.816 9.239c3.884.603 8.796 2.276 13.021 4.437 7.932 4.057 14.848 10.537 21.022 19.695 2.098 3.111 2.245 3.238 3.5 3.003 3.233-.602 11.608-.753 15.488-.278 9.008 1.103 15.262 2.937 22.181 6.504 10.635 5.483 18.292 14.132 21.775 24.595 3.733 11.219 2.88 23.161-2.376 33.255-4.521 8.684-12.908 16.754-21.994 21.164-2.19 1.063-2.544 1.438-4.302 4.556-4.856 8.616-12.58 15.755-22.201 20.519-13.25 6.562-29.499 7.755-43.621 3.203-4.107-1.324-10.824-4.628-14.747-7.254-5.632-3.77-11.949-10.691-16.219-17.768-.394-.654-.73-.629-4.779.357-8.73 2.127-16.33 2.404-24.716.902-14.841-2.659-27.558-10.573-35.435-22.053-3.016-4.396-4.196-6.686-5.805-11.266-1.794-5.104-2.325-8.501-2.056-13.162 1.304-22.593 15.212-39.669 36.208-44.455 2.953-.673 5.27-.866 10.757-.895l6.993-.037 2.27-3.214c2.623-3.714 9.71-11 13.04-13.405 6.167-4.454 13.535-7.49 20.777-8.562 2.232-.33 8.653-.24 11.219.159Z" clip-rule="evenodd"/><path fill="#F59C1E" fill-rule="evenodd" d="M127.492 84.548c-14.606 1.236-23.495 2.948-32.395 6.24-17.568 6.498-27.433 16.294-27.433 27.24 0 5.679 2.26 10.364 7.484 15.517 2.286 2.254 4.931 4.334 7.368 5.793 2.091 1.251 3.805 2.462 3.81 2.689.005.228-.781 1.266-1.748 2.308-9.755 10.518-15.266 16.652-15.104 16.814.108.108 6.147-1.673 13.42-3.957 15.605-4.901 22.993-7.053 25.275-7.363.914-.125 4.467.197 7.895.714 5.339.806 7.844.939 17.453.929 9.494-.011 12.146-.156 17.245-.938 19.057-2.925 33.24-8.972 41.641-17.754 9.591-10.025 9.021-21.411-1.552-31.033-9.243-8.412-24.575-14.264-42.988-16.406-5.379-.626-17-1.078-20.371-.793Zm14.128 8.89c18.363 1.694 33.305 8.849 37.936 18.167 2.468 4.964 1.649 10.483-2.276 15.354-5.493 6.817-17.86 12.235-32.543 14.26-5.975.823-20.882.622-25.972-.35-2.878-.55-3.354-.535-6.233.199-2.98.759-15.264 4.496-22.182 6.748-1.802.586-3.368.975-3.48.863-.113-.112 2.038-2.585 4.778-5.497 2.74-2.91 5.57-5.971 6.288-6.799l1.306-1.507-3.097-1.922c-6.178-3.835-10.263-9.229-10.861-14.34-.31-2.646.828-6.522 2.71-9.241 7.799-11.266 30.646-18.054 53.626-15.935Z" clip-rule="evenodd"/></svg>