<?xml version="1.0" encoding="UTF-8"?>
<svg xmlns="http://www.w3.org/2000/svg" xmlns:xlink="http://www.w3.org/1999/xlink" width="250px" height="250px" viewBox="0 0 250 250" version="1.1">
<g id="surface1">
<path style=" stroke:none;fill-rule:nonzero;fill:rgb(100%,27.45098%,0%);fill-opacity:1;" d="M 242.789062 223.378906 C 252.230469 205.320312 251.660156 184.308594 241.324219 166.90625 L 152.925781 19.6875 C 144.507812 5.667969 129.304688 -3.179688 115.195312 2.082031 C 114.382812 2.386719 113.5625 2.71875 112.738281 3.078125 C 106.703125 5.707031 101.984375 11.074219 98.230469 17.101562 L 88.203125 33.214844 C 86.855469 35.378906 86.6875 38.230469 87.765625 40.589844 C 89.375 44.113281 93.207031 45.40625 96.226562 43.449219 L 108.375 35.5625 C 111.257812 33.6875 114.679688 33.234375 117.855469 34.304688 C 120.578125 35.21875 122.941406 37.1875 124.539062 39.875 L 213.191406 188.914062 C 216.046875 193.71875 216.203125 199.988281 213.597656 204.976562 C 208.921875 213.921875 197.453125 214.726562 191.824219 206.535156 L 108.746094 85.617188 C 94.972656 65.570312 68.238281 66.476562 55.519531 87.421875 L 8.449219 164.945312 C -0.90625 180.355469 -2.566406 199.152344 3.835938 216.4375 C 19.164062 257.832031 68.089844 260.90625 88.917969 222.859375 C 90.441406 220.082031 91.84375 217.316406 93.152344 214.621094 C 98.71875 203.175781 96.863281 188.546875 88.941406 179.101562 C 86.882812 176.644531 83.429688 176.726562 81.445312 179.265625 C 76.804688 185.199219 68.398438 195.769531 60.027344 205.378906 C 50.171875 216.691406 38.523438 214.632812 34.042969 203.324219 C 31.972656 198.089844 33.722656 191.660156 36.378906 187.285156 L 80.019531 115.417969 C 81.386719 113.164062 84.261719 113.054688 85.757812 115.199219 L 165.09375 229.03125 C 185.472656 258.695312 225.855469 255.773438 242.789062 223.378906 Z M 242.789062 223.378906 "/>
</g>
</svg>
