<svg xmlns="http://www.w3.org/2000/svg" width="250" height="250" fill="none"><g clip-path="url(#a)"><path fill="#723080" d="M125 28a97 97 0 1 0 0 193.999A97 97 0 0 0 125 28Zm21.689 153.18-19.802-31.93c-8.217-12.125-12.934-14.012-17.917-14.012h-.136v45.942h-22.23v-61.03h35.298c15.897 0 22.498-9.561 22.498-22.094 0-8.622-4.85-18.995-18.995-18.995-16.707 0-16.707 13.203-16.707 13.203h12.663l-23.576 18.862-22.227-18.862H86.74c3.1-18.322 16.033-28.964 38.396-28.964 25.464 0 41.494 11.182 41.494 34.623 0 19.123-13.877 30.852-27.886 34.366 2.829 2.156 6.737 7.679 12.125 16.033l20.478 32.738-24.658.12Z"/></g><defs><clipPath id="a"><path fill="#fff" d="M28 28h194v194H28z"/></clipPath></defs></svg>