<svg xmlns="http://www.w3.org/2000/svg" xml:space="preserve" x="0" y="0" style="enable-background:new 0 0 950 296" version="1.1" viewBox="0 0 950 296" height = "250" width = "250"><style>.st1{fill:#226db4}</style><path d="M382.86 140.79h22.21v114.89h-22.21V140.79zM429.08 171.63h20.09v13.34c5.42-10.36 16.71-15.15 28.41-15.15 20.17 0 29.27 14.2 29.27 33.27v52.58h-20.4v-50.62c0-11.77-5.26-18.68-17.19-18.68-12.63 0-20.09 7.85-20.09 19.93v49.36h-20.09v-84.03zM514.69 171.63h21.5l21.74 63.64 21.5-63.64h19.62l-30.29 84.05h-23.54l-30.53-84.05zM650.14 169.83c25.5 0 45.12 17.89 45.12 43.63 0 26.45-20.64 43.79-45.99 43.79-25.58 0-46.14-17.74-46.14-43.4 0-26.37 21.74-44.02 47.01-44.02zm23.54 43.79c0-15.46-7.85-28.33-24.33-28.33-16.95 0-23.7 13.5-23.7 28.88 0 14.91 7.93 27.62 24.17 27.62 16.8 0 23.86-13.5 23.86-28.17zM720.6 136.08c6.51 0 11.69 4.79 11.69 11.46 0 6.59-5.02 11.38-11.61 11.38-6.51 0-12.01-4.87-12.01-11.46 0-6.67 5.42-11.38 11.93-11.38zm-10.12 35.71h20.09v83.89h-20.09v-83.89zM829.13 231.9c-5.57 17.58-21.27 25.35-38.85 25.35-26.68 0-42.61-17.89-42.61-43.87 0-24.96 17.81-43.55 43.08-43.55 17.03 0 31.7 7.14 37.9 23.62l-16.25 7.14c-3.37-9.42-11.54-14.83-21.66-14.83-16.4 0-22.44 14.2-22.44 28.64 0 14.83 6.51 27.62 22.76 27.62 11.54 0 19.3-6.36 22.76-16.87l15.31 6.75zM920.16 237.39c-6.98 14.83-22.05 19.85-37.51 19.85-26.53 0-43.24-17.74-43.24-43.87 0-24.64 17.03-43.55 42.3-43.55 27.15 0 40.42 15.85 40.42 48.26H859.9c0 14.2 8.24 24.56 23.54 24.56 9.1 0 16.64-3.69 21.03-12.24l15.69 6.99zm-18.05-32.49c-.63-12.71-8.32-20.48-20.17-20.48-12.63 0-20.01 8.87-21.74 20.48h41.91zM382.23 104.43l36.97-53.42h-33.23V40.47h50.63v5.25l-36.07 53.42h35.03v10.54h-53.32v-5.25zM468.27 57.96c15.36 0 27.18 10.78 27.18 26.28 0 15.93-12.43 26.38-27.7 26.38-15.41 0-27.8-10.68-27.8-26.14 0-15.89 13.09-26.52 28.32-26.52zm14.18 26.37c0-9.31-4.73-17.06-14.65-17.06-10.21 0-14.28 8.13-14.28 17.4 0 8.98 4.77 16.64 14.56 16.64 10.11-.01 14.37-8.14 14.37-16.98zM504.29 36.12h12.1v30.96c3.26-6.29 9.93-9.12 16.92-9.12 12.1 0 18.15 8.51 18.15 20.04v31.67h-12.2V79.18c0-7.28-3.78-11.25-10.83-11.25-7.75 0-12.05 4.77-12.05 12.01v29.73h-12.1V36.12zM587.63 57.96c15.36 0 27.18 10.78 27.18 26.28 0 15.93-12.43 26.38-27.7 26.38-15.41 0-27.8-10.68-27.8-26.14 0-15.89 13.1-26.52 28.32-26.52zm14.18 26.37c0-9.31-4.73-17.06-14.65-17.06-10.21 0-14.28 8.13-14.28 17.4 0 8.98 4.77 16.64 14.56 16.64 10.12-.01 14.37-8.14 14.37-16.98z"/><path d="M166.39 116.51h39.64c4.7 0 8.49-3.79 8.49-8.49V68.38c0-4.7-3.79-8.49-8.49-8.49h-39.64c-4.7 0-8.49 3.79-8.49 8.49v39.64c0 4.7 3.79 8.49 8.49 8.49zm8.5-39.67h22.65V99.5h-22.65V76.84z" class="st1"/><path d="M309.13 3.03H155.06c-26.56 0-48.14 21.6-48.14 48.14v31.32H75.59c-26.45 0-47.97 21.52-47.97 47.97v114.56c0 26.45 21.52 47.97 47.97 47.97h165.56c20.41 0 39.64-7.96 54.08-22.4 14.44-14.44 22.4-33.64 22.4-54.08V11.52a8.49 8.49 0 0 0-8.5-8.49zM75.59 99.47h31.32v51.02h-62.3v-20.05c0-17.07 13.9-30.97 30.98-30.97zm.17 176.51h-.17c-17.07 0-30.98-13.9-30.98-30.98v-77.53h62.32V245c0 17.07-13.9 30.98-30.98 30.98h-.19zm224.87-59.46c0 32.79-26.67 59.49-59.49 59.49h-128.6c7.08-8.35 11.38-19.17 11.38-30.98V51.16c0-17.19 13.99-31.15 31.15-31.15h145.57v196.51z" class="st1"/><path d="M166.39 167.48h91.6c4.7 0 8.49-3.79 8.49-8.49s-3.79-8.49-8.49-8.49h-91.6c-4.7 0-8.49 3.79-8.49 8.49s3.79 8.49 8.49 8.49zM166.39 218.48h91.6c4.7 0 8.49-3.79 8.49-8.49s-3.79-8.49-8.49-8.49h-91.6c-4.7 0-8.49 3.79-8.49 8.49 0 4.69 3.79 8.49 8.49 8.49z" class="st1"/></svg>
