<svg xmlns="http://www.w3.org/2000/svg" width="250" height="250" fill="none"><path fill="#21C16C" d="M203.885 42H46.226C33.928 42 24 51.96 24 64.297V205.96l30.672-30.473h149.361c12.298 0 22.226-9.959 22.226-22.297V64.297C226.111 51.96 216.183 42 203.885 42ZM71.268 141.892c0 3.27-2.667 5.946-5.927 5.946s-5.927-2.676-5.927-5.946V78.716c0-3.27 2.667-5.946 5.927-5.946s5.927 2.676 5.927 5.946v63.176Zm27.56 0c0 3.27-2.667 5.946-5.927 5.946s-5.926-2.676-5.926-5.946v-41.77c0-3.27 2.667-5.946 5.927-5.946s5.927 2.675 5.927 5.946v41.77Zm.741-60.797c0 3.567-2.815 6.392-6.371 6.392h-.593c-3.556 0-6.371-2.825-6.371-6.392v-.446c0-3.568 2.815-6.392 6.371-6.392h.593c3.556 0 6.371 2.824 6.371 6.392v.446Zm41.786 65.256c-2.667 1.338-5.631 1.933-8.743 1.933-10.224 0-15.706-4.906-15.706-14.27v-28.69h-5.334c-1.779 0-3.26-1.338-3.26-3.121v-.149c0-1.04.592-2.081 1.481-2.824l13.188-12.933a4.592 4.592 0 0 1 2.667-1.337c1.778 0 3.408 1.486 3.408 3.27v6.392h9.483a5.32 5.32 0 0 1 5.335 5.351 5.32 5.32 0 0 1-5.335 5.351h-9.483v27.946c0 4.014 2.075 4.311 4.89 4.311 1.185 0 2.371-.149 3.408-.446.741-.297 1.63-.297 2.371-.446 2.667 0 4.89 2.23 5.038 5.054-.297 1.933-1.63 3.865-3.408 4.608Zm36.303-9.216c4.297.149 8.594-.892 12.446-2.824.741-.446 1.63-.595 2.371-.595 2.964 0 5.334 2.23 5.334 5.203v.149c-.148 2.081-1.333 4.013-3.259 4.905-4.149 2.378-8.595 4.459-17.781 4.459-16.596 0-26.672-10.256-26.672-27.351 0-20.067 13.336-27.351 24.597-27.351 16.892 0 24.597 13.527 24.597 26.013.148 3.122-2.371 5.798-5.482 5.946h-31.562c1.63 7.433 6.965 11.446 15.411 11.446Z"/><path fill="#21C16C" d="M174.99 104.284c-6.519-.149-12.002 4.757-12.594 11.297h25.337c-.74-6.54-6.223-11.446-12.743-11.297Z"/></svg>