<?xml version="1.0" standalone="no"?>
<!DOCTYPE svg PUBLIC "-//W3C//DTD SVG 20010904//EN"
 "http://www.w3.org/TR/2001/REC-SVG-20010904/DTD/svg10.dtd">
<svg version="1.0" xmlns="http://www.w3.org/2000/svg"
 width="400.000000pt" height="400.000000pt" viewBox="0 0 400.000000 400.000000"
 preserveAspectRatio="xMidYMid meet">

<g transform="translate(0.000000,400.000000) scale(0.100000,-0.100000)"
fill="#000000" stroke="none">
<path d="M1886 3178 c-3 -13 -14 -88 -25 -168 -11 -80 -34 -250 -51 -378 -22
-158 -29 -237 -22 -244 7 -7 43 -4 111 8 97 17 105 17 202 0 68 -12 104 -15
111 -8 7 7 0 86 -22 244 -17 128 -40 298 -51 378 -11 80 -22 155 -25 168 -4
21 -8 22 -114 22 -106 0 -110 -1 -114 -22z"/>
<path d="M1660 2120 c-157 -16 -411 -41 -565 -55 -154 -15 -283 -29 -287 -31
-14 -9 -9 -214 5 -219 12 -4 154 -17 622 -55 l260 -21 40 -42 c39 -40 41 -46
54 -142 7 -55 21 -163 31 -240 11 -77 28 -214 40 -305 12 -91 23 -175 26 -187
4 -22 8 -23 114 -23 106 0 110 1 114 23 3 12 15 96 26 187 12 91 30 228 40
305 10 77 24 185 31 240 13 96 15 102 54 142 l40 42 260 21 c468 38 610 51
623 55 8 3 12 34 12 110 0 75 -4 107 -12 110 -7 3 -132 16 -278 30 -146 13
-408 38 -582 55 -175 16 -332 29 -350 29 -18 -1 -161 -14 -318 -29z"/>
</g>
</svg>
