<svg xmlns="http://www.w3.org/2000/svg" width="250" height="250" fill="none"><path fill="#000" d="m53.414 22.507.607 9.506 58.193 14.563c32.128 8.091 58.8 15.17 59.204 15.575.607.607-6.668 5.057-15.962 9.911l-16.974 9.102-42.23-10.72c-23.036-6.068-42.433-10.922-42.636-10.922-.404 0-.606 4.45-.606 9.708v9.911l27.885 6.878c15.154 3.64 28.288 7.281 29.097 7.888.808.607-11.72 7.888-27.683 16.181l-29.299 15.17v10.518c0 5.866.404 10.721.809 10.721.404 0 17.579-8.698 37.987-19.418 20.206-10.72 52.738-27.71 71.934-37.622l34.755-18.204V48.396l-71.328-17.799C88.169 20.888 55.233 13 54.425 13c-.809 0-1.415 4.248-1.01 9.507Zm109.72 94.863c-17.781 9.507-49.909 26.295-71.126 37.42L53.01 175.219v22.856l72.743 18.406 72.944 18.407-.606-10.114-.607-9.911-58.193-14.765c-31.926-8.091-58.598-15.17-59.204-15.777-.809-.607 6.465-5.057 15.962-9.709l17.176-8.698 38.189 9.507c20.813 5.259 40.009 10.113 42.635 10.72 4.244 1.214 4.446.607 4.446-8.697v-9.911l-26.066-6.473c-14.145-3.641-27.481-6.473-29.299-6.473-1.819 0-3.233-.606-3.233-1.618 0-1.416 50.919-29.126 56.173-30.34 2.627-.809 3.637-22.856 1.01-22.452-1.01 0-16.165 7.889-33.946 17.193Z"/></svg>