<svg xmlns="http://www.w3.org/2000/svg" xmlns:xlink="http://www.w3.org/1999/xlink" width="250px" height="250px" viewBox="0 0 250 250" version="1.1">
<g id="surface1">
<path style=" stroke:none;fill-rule:nonzero;fill:rgb(90.980392%,91.764706%,99.607843%);fill-opacity:1;" d="M 0 0 C 82.5 0 165 0 250 0 C 250 82.5 250 165 250 250 C 167.5 250 85 250 0 250 C 0 167.5 0 85 0 0 Z M 0 0 "/>
<path style=" stroke:none;fill-rule:nonzero;fill:rgb(96.862745%,27.058824%,77.647059%);fill-opacity:1;" d="M 149.902344 48.828125 C 151.359375 49.46875 151.765625 49.960938 152.832031 51.269531 C 153.4375 54.511719 152.40625 57.4375 151.246094 60.425781 C 151.074219 60.882812 150.898438 61.34375 150.722656 61.816406 C 148.796875 66.863281 146.703125 71.84375 144.625 76.828125 C 144.238281 77.753906 143.851562 78.679688 143.46875 79.605469 C 143.195312 80.257812 142.921875 80.914062 142.648438 81.566406 C 141.804688 83.589844 140.96875 85.617188 140.140625 87.648438 C 139.875 88.292969 139.609375 88.9375 139.339844 89.578125 C 138.964844 90.472656 138.601562 91.371094 138.234375 92.269531 C 138.023438 92.78125 137.8125 93.292969 137.597656 93.816406 C 137.167969 95.351562 137.207031 96.15625 137.695312 97.65625 C 138.546875 98.832031 138.546875 98.832031 139.648438 99.945312 C 140.046875 100.371094 140.445312 100.792969 140.855469 101.234375 C 141.261719 101.664062 141.667969 102.09375 142.089844 102.539062 C 142.824219 103.351562 143.558594 104.164062 144.289062 104.980469 C 144.648438 105.382812 145.011719 105.785156 145.386719 106.203125 C 146.484375 107.421875 147.582031 108.640625 148.679688 109.863281 C 149.046875 110.269531 149.410156 110.671875 149.785156 111.089844 C 150.5 111.882812 151.214844 112.679688 151.925781 113.472656 C 154.019531 115.808594 156.132812 118.121094 158.265625 120.421875 C 160.09375 122.394531 161.894531 124.386719 163.652344 126.421875 C 164.828125 127.753906 166.03125 129.0625 167.234375 130.371094 C 168.996094 132.28125 170.726562 134.207031 172.425781 136.167969 C 173.605469 137.507812 174.816406 138.824219 176.023438 140.136719 C 177.84375 142.109375 179.652344 144.089844 181.394531 146.128906 C 181.871094 146.675781 182.367188 147.210938 182.878906 147.722656 C 184.148438 149.046875 184.75 150.082031 184.875 151.886719 C 184.503906 154.238281 183.890625 154.707031 182.128906 156.25 C 181.117188 156.921875 180.085938 157.558594 179.035156 158.167969 C 178.738281 158.339844 178.445312 158.511719 178.140625 158.6875 C 177.203125 159.230469 176.261719 159.769531 175.324219 160.308594 C 174.710938 160.664062 174.097656 161.019531 173.484375 161.375 C 170.164062 163.300781 166.832031 165.203125 163.5 167.105469 C 161.261719 168.382812 159.027344 169.667969 156.800781 170.960938 C 156.414062 171.183594 156.03125 171.40625 155.632812 171.632812 C 153.464844 172.890625 151.300781 174.152344 149.136719 175.417969 C 143.324219 178.816406 137.492188 182.1875 131.636719 185.523438 C 127.648438 187.796875 123.667969 190.085938 119.691406 192.382812 C 118.644531 192.984375 117.597656 193.589844 116.554688 194.191406 C 115.242188 194.949219 113.929688 195.707031 112.621094 196.464844 C 110.730469 197.558594 108.835938 198.640625 106.933594 199.707031 C 106.355469 200.035156 106.355469 200.035156 105.761719 200.371094 C 103.808594 201.429688 102.316406 202.09375 100.097656 201.660156 C 98.675781 200.757812 97.445312 199.777344 96.679688 198.242188 C 96.230469 194.714844 97.703125 191.753906 99 188.539062 C 99.253906 187.894531 99.503906 187.253906 99.757812 186.609375 C 101.492188 182.214844 103.292969 177.84375 105.085938 173.472656 C 105.304688 172.933594 105.523438 172.398438 105.75 171.847656 C 106.859375 169.148438 107.96875 166.453125 109.085938 163.761719 C 109.5 162.757812 109.914062 161.753906 110.328125 160.75 C 110.519531 160.289062 110.710938 159.828125 110.910156 159.355469 C 111.796875 157.199219 112.621094 155.183594 112.792969 152.832031 C 112.3125 151.851562 112.3125 151.851562 111.449219 151.0625 C 111.136719 150.734375 110.820312 150.40625 110.496094 150.066406 C 110.125 149.691406 109.757812 149.3125 109.375 148.925781 C 108.476562 147.953125 107.582031 146.976562 106.6875 145.996094 C 106.222656 145.488281 105.757812 144.980469 105.289062 144.472656 C 103.984375 143.042969 102.703125 141.59375 101.433594 140.128906 C 99.710938 138.15625 97.945312 136.222656 96.191406 134.277344 C 95.09375 133.058594 93.996094 131.839844 92.898438 130.617188 C 92.15625 129.792969 91.410156 128.964844 90.664062 128.140625 C 89.015625 126.3125 87.367188 124.480469 85.753906 122.621094 C 84.070312 120.683594 82.328125 118.796875 80.589844 116.90625 C 79.058594 115.242188 77.558594 113.554688 76.078125 111.84375 C 74.984375 110.601562 73.871094 109.378906 72.753906 108.15625 C 65.652344 100.351562 65.652344 100.351562 65.125 97.441406 C 65.546875 95.03125 66.949219 94.140625 68.847656 92.773438 C 70.671875 91.644531 72.546875 90.621094 74.433594 89.601562 C 75.53125 88.992188 76.632812 88.386719 77.730469 87.78125 C 78.566406 87.320312 78.566406 87.320312 79.417969 86.851562 C 81.90625 85.460938 84.367188 84.023438 86.824219 82.582031 C 91.050781 80.101562 95.292969 77.652344 99.546875 75.226562 C 103.988281 72.691406 108.425781 70.152344 112.855469 67.597656 C 113.371094 67.296875 113.890625 66.996094 114.425781 66.6875 C 117.070312 65.160156 119.71875 63.632812 122.363281 62.101562 C 127.585938 59.082031 132.8125 56.074219 138.0625 53.101562 C 138.523438 52.839844 138.984375 52.574219 139.460938 52.304688 C 146.757812 48.183594 146.757812 48.183594 149.902344 48.828125 Z M 149.902344 48.828125 "/>
<path style=" stroke:none;fill-rule:nonzero;fill:rgb(9.803922%,70.980392%,66.666667%);fill-opacity:1;" d="M 136.230469 96.679688 C 136.78125 97.230469 137.332031 97.78125 137.882812 98.332031 C 138.445312 98.898438 139.015625 99.457031 139.582031 100.015625 C 141.484375 101.890625 143.289062 103.804688 145.027344 105.828125 C 146.222656 107.195312 147.453125 108.527344 148.679688 109.863281 C 150.144531 111.453125 151.601562 113.046875 153.015625 114.683594 C 154.621094 116.539062 156.289062 118.324219 157.960938 120.117188 C 159.898438 122.195312 161.8125 124.285156 163.667969 126.4375 C 164.835938 127.769531 166.039062 129.070312 167.234375 130.371094 C 168.996094 132.28125 170.726562 134.207031 172.425781 136.167969 C 173.605469 137.507812 174.816406 138.824219 176.023438 140.136719 C 177.839844 142.109375 179.648438 144.089844 181.394531 146.128906 C 181.875 146.679688 182.367188 147.21875 182.878906 147.742188 C 184.820312 149.800781 184.570312 150.128906 184.570312 153.320312 C 161.207031 153.320312 137.84375 153.320312 113.769531 153.320312 C 114.152344 151.414062 114.566406 149.957031 115.285156 148.1875 C 115.5 147.65625 115.714844 147.121094 115.9375 146.574219 C 116.171875 145.996094 116.40625 145.417969 116.648438 144.824219 C 116.898438 144.210938 117.144531 143.597656 117.394531 142.984375 C 118.058594 141.339844 118.726562 139.691406 119.398438 138.046875 C 120.089844 136.339844 120.78125 134.632812 121.472656 132.925781 C 122.59375 130.15625 123.714844 127.386719 124.835938 124.621094 C 126.335938 120.925781 127.832031 117.226562 129.320312 113.527344 C 129.753906 112.460938 130.183594 111.390625 130.617188 110.320312 C 131.222656 108.816406 131.828125 107.316406 132.4375 105.8125 C 132.988281 104.441406 133.542969 103.074219 134.09375 101.707031 C 134.257812 101.304688 134.417969 100.90625 134.585938 100.492188 C 135.6875 97.769531 135.6875 97.769531 136.230469 96.679688 Z M 136.230469 96.679688 "/>
<path style=" stroke:none;fill-rule:nonzero;fill:rgb(47.45098%,34.117647%,99.607843%);fill-opacity:1;" d="M 113.28125 152.832031 C 136.804688 152.992188 160.332031 153.15625 184.570312 153.320312 C 183.152344 155.679688 182.753906 156.160156 180.511719 157.414062 C 179.992188 157.707031 179.46875 158.003906 178.933594 158.308594 C 178.378906 158.617188 177.820312 158.921875 177.246094 159.242188 C 176.667969 159.566406 176.089844 159.894531 175.511719 160.21875 C 174.351562 160.875 173.191406 161.527344 172.03125 162.175781 C 169.859375 163.394531 167.707031 164.640625 165.558594 165.894531 C 164.8125 166.324219 164.066406 166.757812 163.324219 167.1875 C 162.960938 167.398438 162.597656 167.609375 162.226562 167.824219 C 161.121094 168.464844 160.015625 169.101562 158.914062 169.742188 C 155.652344 171.625 152.394531 173.511719 149.148438 175.410156 C 143.328125 178.816406 137.492188 182.183594 131.636719 185.523438 C 127.648438 187.796875 123.667969 190.085938 119.691406 192.382812 C 118.644531 192.984375 117.597656 193.589844 116.554688 194.191406 C 115.242188 194.949219 113.929688 195.707031 112.621094 196.464844 C 110.730469 197.558594 108.835938 198.640625 106.933594 199.707031 C 106.546875 199.925781 106.160156 200.144531 105.761719 200.371094 C 103.808594 201.429688 102.316406 202.09375 100.097656 201.660156 C 98.675781 200.757812 97.445312 199.777344 96.679688 198.242188 C 96.230469 194.714844 97.703125 191.753906 99 188.539062 C 99.253906 187.894531 99.507812 187.253906 99.757812 186.609375 C 102.78125 178.964844 105.917969 171.363281 109.042969 163.761719 C 109.355469 163 109.355469 163 109.671875 162.222656 C 110.066406 161.265625 110.460938 160.3125 110.855469 159.355469 C 111.03125 158.925781 111.207031 158.492188 111.390625 158.050781 C 111.542969 157.675781 111.699219 157.304688 111.855469 156.921875 C 112.378906 155.574219 112.824219 154.203125 113.28125 152.832031 Z M 113.28125 152.832031 "/>
</g>
</svg>
