<svg xmlns="http://www.w3.org/2000/svg" viewBox="259.889 113.308 144 146" width="250" height="250">
  <path d="M 259.889 113.308 C 267.149 113.308 274.409 113.308 281.889 113.308 C 281.889 161.488 281.889 209.668 281.889 259.308 C 274.629 259.308 267.369 259.308 259.889 259.308 C 259.889 211.128 259.889 162.948 259.889 113.308 Z" fill="#4696ED"/>
  <path d="M 300.889 113.308 C 308.149 113.308 315.409 113.308 322.889 113.308 C 322.889 147.628 322.889 181.948 322.889 217.308 C 315.629 217.308 308.369 217.308 300.889 217.308 C 300.889 182.988 300.889 148.668 300.889 113.308 Z" fill="#48A5D2"/>
  <path d="M 341.889 113.308 C 349.149 113.308 356.409 113.308 363.889 113.308 C 363.912 122.418 363.93 131.528 363.941 140.637 C 363.946 144.867 363.953 149.096 363.965 153.326 C 363.975 157.404 363.981 161.483 363.984 165.561 C 363.986 167.12 363.989 168.68 363.995 170.239 C 364.002 172.416 364.003 174.592 364.003 176.769 C 364.005 178.011 364.007 179.252 364.009 180.531 C 363.889 183.308 363.889 183.308 362.889 184.308 C 355.959 184.308 349.029 184.308 341.889 184.308 C 341.889 160.878 341.889 137.448 341.889 113.308 Z" fill="#4BB6B1"/>
  <path d="M 382.889 113.308 C 389.819 113.308 396.749 113.308 403.889 113.308 C 403.889 131.128 403.889 148.948 403.889 167.308 C 396.959 167.308 390.029 167.308 382.889 167.308 C 382.889 149.488 382.889 131.668 382.889 113.308 Z" fill="#50D872"/>
</svg>
