<?xml version="1.0" encoding="UTF-8" standalone="no"?>
<svg viewBox="0 0 34 34" xmlns="http://www.w3.org/2000/svg" width="250" height="250">
  <path 
    d="M 1.921 0 C 0.86 0 0 0.86 0 1.921 L 0 31.775 C 0 32.836 0.86 33.697 1.921 33.697 L 31.775 33.697 C 32.836 33.697 33.696 32.836 33.696 31.775 L 33.696 19.154 C 33.696 18.546 32.956 18.249 32.536 18.688 L 25.881 25.632 C 23.038 28.599 20.07 30.075 16.977 30.058 C 13.908 30.066 10.995 28.69 8.235 25.931 C 5.305 23 3.761 19.821 3.603 16.392 C 3.48 13.226 4.716 10.173 7.311 7.234 C 7.64 6.862 8.205 6.857 8.556 7.208 L 14.399 13.051 C 14.747 13.399 14.75 13.965 14.446 14.353 C 13.034 16.157 12.981 17.712 14.286 19.018 C 15.605 20.336 17.077 20.148 18.701 18.452 L 33.509 3 C 33.629 2.875 33.696 2.708 33.696 2.534 L 33.696 1.921 C 33.696 0.86 32.836 0 31.775 0 Z"
    fill="#3EB2A2"/>
</svg>
