<svg xmlns="http://www.w3.org/2000/svg" width="250" height="250" fill="none"><path fill="#84BF41" fill-rule="evenodd" d="M238.32 126.386C244.137 79.143 212.061 42 163.519 42h-36.156c-2.373 0-4.727.955-6.606 2.505-1.888 1.542-3.302 3.678-3.804 6.037-1.011 4.718 2.015 8.553 6.757 8.553h36.157c41.92 0 68.778 33.947 59.865 75.671l-2.578 12.052.125-.231c-.752 4.535 2.237 8.158 6.856 8.158 4.296 0 8.529-3.136 10.05-7.217l.574-2.704 2.148-10.058a94.894 94.894 0 0 0 1.413-8.38Z" clip-rule="evenodd"/><path fill="#84BF41" fill-rule="evenodd" d="M156.217 76.18h-69.52c-4.734 0-9.398 3.824-10.401 8.542-1.001 4.669 1.951 8.466 6.605 8.545h69.664c22.993 0 37.724 18.618 32.836 41.5l-7.883 36.899c-1.003 4.719 2.022 8.543 6.765 8.543 4.734 0 9.398-3.824 10.409-8.543l7.875-36.899c6.901-32.304-13.898-58.587-46.35-58.587Z" clip-rule="evenodd"/><path fill="#84BF41" fill-rule="evenodd" d="M136.976 181.841c-.788 3.687-4.582 6.805-8.287 6.805H38.493c-3.705 0-6.156-3.118-5.37-6.805l9.676-45.33c.787-3.686 4.582-6.797 8.278-6.797h90.203c3.697 0 6.158 3.111 5.37 6.797l-9.674 45.33Zm11.947-71.489h-97.22c-6.738 0-13.46 2.747-18.848 7.172-5.388 4.427-9.451 10.523-10.883 17.243l-10.426 48.819C8.683 197.012 17.363 208 30.85 208h97.22c6.749 0 13.461-2.746 18.849-7.175 5.396-4.423 9.459-10.53 10.891-17.239l10.427-48.819c2.864-13.426-5.827-24.415-19.314-24.415Z" clip-rule="evenodd"/></svg>