<svg width="492" height="156" viewBox="0 0 492 156" fill="none" xmlns="http://www.w3.org/2000/svg">
<path d="M84.5 25.0225L86.4622 35.5602L97 37.5225L86.4622 39.4847L84.5 50.0225L82.5378 39.4847L72 37.5225L82.5378 35.5602L84.5 25.0225Z" fill="#FF6A4D"/>
<path d="M429.5 75.0225L431.462 85.5602L442 87.5225L431.462 89.4847L429.5 100.022L427.538 89.4847L417 87.5225L427.538 85.5602L429.5 75.0225Z" fill="#FF6A4D"/>
<path d="M104.5 41.0225L105.677 47.3451L112 48.5225L105.677 49.6998L104.5 56.0225L103.323 49.6998L97 48.5225L103.323 47.3451L104.5 41.0225Z" fill="#615EFF"/>
<path d="M328.5 10.0225L330.619 21.4033L342 23.5225L330.619 25.6417L328.5 37.0225L326.381 25.6417L315 23.5225L326.381 21.4033L328.5 10.0225Z" fill="#615EFF"/>
<path d="M123.5 122.023L124.363 126.66L129 127.523L124.363 128.387L123.5 133.023L122.637 128.387L118 127.523L122.637 126.66L123.5 122.023Z" fill="#615EFF"/>
<path d="M89 53.0225L89.9419 58.0806L95 59.0225L89.9419 59.9643L89 65.0225L88.0581 59.9643L83 59.0225L88.0581 58.0806L89 53.0225Z" fill="#67DAE1"/>
<path d="M389 107.023L389.942 112.082L395 113.023L389.942 113.965L389 119.023L388.058 113.965L383 113.023L388.058 112.082L389 107.023Z" fill="#67DAE1"/>
<path d="M465.5 107.023L467.933 120.09L481 122.523L467.933 124.957L465.5 138.023L463.067 124.957L450 122.523L463.067 120.09L465.5 107.023Z" fill="#67DAE1"/>
<path d="M43 87.0225L45.5116 100.511L59 103.022L45.5116 105.534L43 119.022L40.4884 105.534L27 103.022L40.4884 100.511L43 87.0225Z" fill="#67DAE1"/>
</svg>
