<svg xmlns="http://www.w3.org/2000/svg" alt="Hello" class="logo__img" fill="none" height="208" id="svg-1570090753" viewBox="0 0 961 208" width="961"><path d="M960.999 24.4572H938.465V168.267H960.999V24.4572Z" fill="white"></path><path clip-rule="evenodd" d="M881.913 72.6667C861.113 72.6667 844.98 82.7619 842.256 103.371H864.408C865.97 95.6 871.704 90.9334 881.913 90.9334 893.761 90.9334 899.208 97.7334 899.208 108.419V113.276H876.465C855.513 113.276 840.027 122.61 840.027 141.657 840.027 160.705 852.656 170.61 870.923 170.61 885.113 170.61 894.446 164.571 899.494 154.857H900.465V168.19H921.837V109.143C921.742 86.3619 910.084 72.6667 881.913 72.6667ZM877.342 153.314C868.599 153.314 863.151 149.029 863.151 141.886 863.151 133.714 868.98 129.448 879.475 129.448H899.094L899.208 130.8C899.208 144.933 891.037 153.314 877.342 153.314V153.314Z" fill="white" fill-rule="evenodd"></path><path clip-rule="evenodd" d="M800.085 168.267V119.886C800.085 105.505 809.037 96.3619 823.208 96.3619H832.085V74.9905H822.942C812.256 74.9905 804.485 79.0667 799.627 88.2095H798.846V74.9905H777.666V168.324L800.085 168.267Z" fill="white" fill-rule="evenodd"></path><path clip-rule="evenodd" d="M763.361 147.676V168.267H748.008C726.428 168.267 714.58 158.267 714.58 136.686V93.5048H699.228V74.9905H714.58V50.2286H737.132V74.9905H763.361V93.5048H737.132V134.076C737.132 142.629 742.18 147.676 750.732 147.676H763.361Z" fill="white" fill-rule="evenodd"></path><path clip-rule="evenodd" d="M625.379 168.267V114.248C625.379 101.029 633.551 92.381 646.751 92.381 659.379 92.381 666.96 99.6762 666.96 113.962V168.267H689.532V110.362C689.532 86.8381 678.103 72.6667 654.751 72.6667 640.541 72.6667 629.684 79.0667 624.827 87.8095H624.027V74.9905H602.903V168.324L625.379 168.267Z" fill="white" fill-rule="evenodd"></path><path clip-rule="evenodd" d="M542.523 152.152C528.332 152.152 518.808 142.629 518.427 127.657H587.418L587.323 120.362C587.323 89.0857 567.113 72.7429 542.427 72.7429 515.761 72.7429 496.275 91.7905 496.275 121.714 496.275 151.638 514.351 170.686 542.427 170.686 565.932 170.686 581.284 158.248 585.761 139.981H563.894C561.475 146.99 555.532 152.152 542.523 152.152ZM542.427 91.4095C557.189 91.4095 565.932 99.7714 566.523 111.429H518.332C520.465 99.581 527.646 91.4095 542.427 91.4095V91.4095Z" fill="white" fill-rule="evenodd"></path><path clip-rule="evenodd" d="M428.827 170.8C462.446 170.8 481.494 152.152 485.97 124.457H463.113C459.722 137.086 450.522 148.743 428.827 148.743 406.484 148.743 388.599 133.505 388.599 100.152 388.599 66.8 406.484 51.6 428.827 51.6 451.17 51.6 460.122 63.2572 463.113 75.6952H485.97C482.275 48 463.513 29.981 428.827 29.981 391.513 29.981 364.503 56.0191 364.503 100.457 364.503 144.895 391.513 170.933 428.827 170.933V170.8Z" fill="white" fill-rule="evenodd"></path><path clip-rule="evenodd" d="M327.875 74.9904V87.7904H326.808C321.761 78.8571 311.265 72.6476 296.332 72.6476 274.465 72.6476 254.751 89.9428 254.751 120.457 254.751 150.971 274.18 168.457 296.332 168.457 310.713 168.457 319.189 162.609 325.684 152.705H326.713V172.362C326.713 182.857 320.884 187.714 311.361 187.714H265.646V207.79H310.922C335.989 207.79 349.399 193.79 349.399 170.857V74.9904H327.875ZM302.522 148.057C287.551 148.057 278.027 138.743 278.027 120.476 278.027 102.209 287.456 92.8762 302.522 92.8762 317.094 92.8762 326.808 102.19 326.808 120.476 326.808 138.762 317.189 148.057 302.522 148.057Z" fill="white" fill-rule="evenodd"></path><path clip-rule="evenodd" d="M176.865 168.267V114.248C176.865 101.029 185.037 92.381 198.256 92.381 210.884 92.381 218.465 99.6762 218.465 113.962V168.267H240.999V110.362C240.999 86.8381 229.57 72.6667 206.218 72.6667 192.027 72.6667 181.056 79.0667 176.199 87.8095H175.418V74.9905H154.332V168.324L176.865 168.267Z" fill="white" fill-rule="evenodd"></path><path d="M135.284 74.9905H112.751V168.267H135.284V74.9905Z" fill="white"></path><path clip-rule="evenodd" d="M73.4938 103.943V103.029C87.2843 99.2191 96.6176 89.962 96.6176 69.162 96.6176 47.7905 80.6747 32.2286 51.1319 32.2286H.998535V168.267H24.3128V114.248H52.6938C65.9128 114.248 72.5223 120.857 72.5223 134.076V168.362H95.8366V134.076C95.8366 114.838 87.6652 107.067 73.4938 103.943ZM49.8747 93.2572H24.3128V53.2572H49.8747C62.5033 53.2572 72.2176 58.5144 72.2176 73.2763 72.2176 88.0382 62.4081 93.2572 49.8747 93.2572V93.2572Z" fill="white" fill-rule="evenodd"></path><path clip-rule="evenodd" d="M124.008 60.0191C126.97 60.0229 129.868 59.1475 132.332 57.5039 134.797 55.8602 136.719 53.5222 137.855 50.7858 138.99 48.0493 139.288 45.0375 138.711 42.1316 138.134 39.2256 136.708 36.5562 134.613 34.4613 132.518 32.3663 129.849 30.9401 126.943 30.363 124.037 29.7859 121.025 30.084 118.289 31.2195 115.552 32.355 113.214 34.2769 111.57 36.7419 109.927 39.2068 109.051 42.104 109.055 45.0667 109.03 48.0324 109.895 50.9375 111.538 53.4062 113.182 55.8749 115.528 57.7937 118.274 58.9143 120.09 59.6692 122.041 60.0451 124.008 60.0191V60.0191Z" fill="white" fill-rule="evenodd"></path><path clip-rule="evenodd" d="M106.827 3.58098C101.369 5.86562 96.4118 9.19834 92.2363 13.3905L102.808 23.9619C105.579 21.175 108.872 18.9612 112.499 17.4471 116.126 15.9331 120.016 15.1483 123.946 15.1377 127.876 15.1271 131.77 15.8908 135.405 17.3853 139.04 18.8798 142.345 21.0757 145.132 23.8476L155.703 13.2762C149.426 7.01155 141.433 2.74724 132.734 1.02169 124.035-.703868 115.02.186712 106.827 3.58098V3.58098Z" fill="white" fill-rule="evenodd"></path></svg>