<svg xmlns="http://www.w3.org/2000/svg" width="250" height="250" viewBox="0 0 72 40"><path fill="#343638" d="M8.837 34.546c-.999.96-2.229 1.46-3.689 1.46s-2.689-.5-3.688-1.46C.461 33.585 0 32.356 0 30.973c0-1.422.499-2.613 1.46-3.573.999-.961 2.228-1.46 3.688-1.46s2.69.499 3.689 1.46c.999.96 1.46 2.19 1.46 3.573.038 1.421-.461 2.612-1.46 3.573zM2.92 33.278c.576.615 1.306.884 2.228.884.884 0 1.652-.308 2.229-.884.576-.615.883-1.383.883-2.305 0-.961-.307-1.729-.883-2.306-.577-.614-1.307-.883-2.229-.883-.883 0-1.652.307-2.228.883-.576.615-.884 1.384-.884 2.306.039.96.308 1.729.884 2.305zm15.368-7.338c1.306 0 2.459.461 3.381 1.383.922.922 1.383 2.113 1.383 3.65 0 1.498-.461 2.728-1.383 3.688-.922.961-1.998 1.422-3.227 1.422-1.23 0-2.344-.538-3.343-1.614v5.071h-2.074V26.055h2.074v1.729c.807-1.23 1.883-1.844 3.189-1.844zm-3.227 5.071c0 .922.269 1.691.845 2.305.576.615 1.268.884 2.075.884a2.93 2.93 0 0 0 2.113-.884c.615-.576.922-1.344.922-2.305 0-.96-.307-1.729-.884-2.344a2.827 2.827 0 0 0-2.113-.922c-.807 0-1.537.308-2.074.922-.615.615-.884 1.384-.884 2.344zm20.209.884h-7.684c.038.73.384 1.306.96 1.729a3.515 3.515 0 0 0 2.075.653c1.23 0 2.152-.384 2.805-1.153l1.191 1.307c-1.076 1.075-2.421 1.652-4.15 1.652-1.383 0-2.535-.461-3.496-1.384-.96-.922-1.46-2.151-1.46-3.688 0-1.537.5-2.766 1.46-3.688.999-.922 2.152-1.383 3.458-1.383s2.459.384 3.419 1.191c.923.806 1.384 1.921 1.384 3.342v1.422h.038zm-7.684-1.652h5.609c0-.807-.269-1.46-.768-1.883-.5-.461-1.153-.653-1.921-.653-.769 0-1.422.23-2.036.691-.577.462-.884 1.076-.884 1.845zm12.948.345v5.302h-2.075v-9.835h2.075v1.806a3.772 3.772 0 0 1 1.383-1.422 3.634 3.634 0 0 1 1.882-.499c1.115 0 1.998.345 2.69.999.691.691 1.037 1.652 1.037 2.919v5.994h-2.075v-5.379c0-1.806-.768-2.728-2.266-2.728-.73 0-1.345.231-1.845.692-.537.538-.806 1.229-.806 2.151z"/><path fill="#198cff" d="M59.091 35.89h-1.883v-1.306c-.807.961-1.882 1.46-3.266 1.46-1.037 0-1.882-.307-2.535-.883-.654-.577-.999-1.345-.999-2.306 0-.96.345-1.69 1.075-2.151.73-.461 1.691-.73 2.882-.73h2.689v-.384c0-1.307-.73-1.96-2.19-1.96-.922 0-1.844.346-2.843.999l-.922-1.306c1.191-.961 2.536-1.422 4.073-1.422 1.152 0 2.113.308 2.843.884.73.576 1.114 1.498 1.114 2.766v6.339h-.038zm-2.075-3.649v-.846h-2.305c-1.499 0-2.229.461-2.229 1.383 0 .461.192.846.538 1.115.384.269.884.384 1.537.384.653 0 1.23-.192 1.729-.538.461-.384.73-.884.73-1.498zm9.567 3.803c-1.23 0-2.306-.461-3.228-1.421-.922-.961-1.383-2.19-1.383-3.689 0-1.498.461-2.728 1.383-3.65.922-.922 2.075-1.383 3.381-1.383 1.307 0 2.382.615 3.189 1.844v-1.729H72v13.371h-2.075v-5.072c-.999 1.191-2.113 1.729-3.342 1.729zm-2.574-5.033c0 .922.307 1.691.922 2.305.614.577 1.306.884 2.113.884.807 0 1.498-.307 2.074-.884.577-.614.846-1.344.846-2.305 0-.922-.269-1.729-.846-2.344-.576-.614-1.267-.922-2.074-.922-.807 0-1.537.308-2.113.922-.615.615-.922 1.384-.922 2.344zM13.063 12.838v-1.882c2.459 0 9.951.038 12.986.038 6.608 0 13.217-.038 19.825-.038 2.421 0 4.457-1.499 5.072-3.804.384-1.422.192-2.766-.807-3.919-.884-.999-1.96-1.421-3.266-1.345-1.268.116-2.42 1.23-2.613 2.498-.115.999.193 1.767 1.038 2.305.614.384 1.306.423 1.998.115.23-.115.422-.269.576-.499.269-.461.807-.615 1.229-.346.461.23.615.768.385 1.268-.346.691-.922 1.114-1.614 1.383-2.382.922-5.072-.615-5.456-3.151-.269-1.844.653-3.803 2.305-4.764 1.345-.807 2.805-.883 4.227-.384 2.113.73 3.458 2.229 3.919 4.418.307 1.576 0 3.074-.769 4.457-1.114 1.998-2.843 3.151-5.11 3.535-.384.077-.768.077-1.152.077-3.919.038-28.278.038-32.773.038z"/><path fill="#198cff" d="M28.585 9.169h-9.893V7.594h17.154c1.245 0 2.031-.555 2.333-1.665.175-.696-.05-1.713-.515-2.278-.366-.426-1.088-.667-1.802-.63-.542.03-1.089.567-1.152 1.137-.061.427.082.741.431.975.278.154.567.177.845.055.324-.108.655-.108.921.159.435.49.173 1.146-.42 1.383-1.484.567-3.168-.397-3.384-1.955-.171-1.107.413-2.3 1.408-2.905.764-.443 2.021-.492 2.963-.178 1.176.392 2.025 1.535 2.342 2.937.199.877.03 1.787-.454 2.666-.625 1.094-1.449 1.607-2.844 1.868-.186.038-.344.044-.71.044h-6.455l-.047-.003c-.171-.029-.335-.035-.721-.035zm28.305 7.767c.576 1.153.544 2.289-.175 3.328-.669.961-1.608 1.399-2.794 1.314-1.162-.086-2.125-1.023-2.294-2.177a1.391 1.391 0 0 1-.042-.261c-.005-.065-.005-.114-.005-.231l.002-.041a.828.828 0 0 1 .824-.709c.413 0 .764.299.82.693.012.062.019.108.033.211a1.2 1.2 0 0 0 .067.315c.172.428.632.642 1.129.518.7-.16 1.148-.794 1.083-1.541-.068-.846-.716-1.573-1.589-1.741a1.002 1.002 0 0 0-.196-.025 3.46 3.46 0 0 0-.233-.005c-2.097 0-4.971.005-12.333.019-7.362.015-10.236.02-12.333.02h-.288v-1.768h25.069c1.445 0 2.564.743 3.255 2.081z"/></svg>
