<svg width="250" height="250" viewBox="0 0 250 250" fill="none" xmlns="http://www.w3.org/2000/svg">
<g clip-path="url(#clip0_19_31)">
<path d="M147.323 25.5501C136.537 12.7947 127.249 -0.15994 125.351 -2.85052C125.151 -3.04983 124.852 -3.04983 124.652 -2.85052C122.754 -0.15994 113.466 12.7947 102.68 25.5501C10.0981 143.238 117.261 222.661 117.261 222.661L118.16 223.258C118.959 235.516 120.957 253.154 120.957 253.154H124.951H128.946C128.946 253.154 130.944 235.615 131.743 223.258L132.642 222.561C132.741 222.561 239.905 143.238 147.323 25.5501ZM124.951 220.867C124.951 220.867 120.158 216.781 118.859 214.688V214.489L124.652 86.3375C124.652 85.9389 125.251 85.9389 125.251 86.3375L131.044 214.489V214.688C129.745 216.781 124.951 220.867 124.951 220.867Z" fill="#00ED64"/>
</g>
<defs>
<clipPath id="clip0_19_31">
<rect width="250" height="250" fill="white"/>
</clipPath>
</defs>
</svg>
