<svg width="90" height="81" viewBox="0 0 90 81" fill="none" xmlns="http://www.w3.org/2000/svg">
<path d="M77.5499 3.37C79.4499 5.2 80.7 7.62 80.99 10.25C80.99 11.35 80.6999 12.08 80.0399 13.47C79.3799 14.86 71.25 28.92 68.83 32.8C67.44 35.07 66.71 37.78 66.71 40.42C66.71 43.06 67.44 45.77 68.83 48.04C71.25 51.92 79.3799 66.06 80.0399 67.45C80.6999 68.84 80.99 69.5 80.99 70.6C80.7 73.24 79.53 75.65 77.62 77.41C75.79 79.31 73.3699 80.56 70.8099 80.78C69.7099 80.78 68.9799 80.49 67.6599 79.83C66.3399 79.17 51.99 71.26 48.11 68.84C47.82 68.69 47.5199 68.47 47.1599 68.33L27.97 56.98C28.41 60.64 30.0199 64.16 32.6599 66.72C33.1699 67.23 33.6899 67.67 34.2699 68.11C33.8299 68.33 33.32 68.55 32.88 68.84C29 71.26 14.86 79.39 13.47 80.05C12.08 80.71 11.42 81 10.25 81C7.61 80.71 5.19994 79.54 3.43994 77.63C1.53994 75.8 0.29 73.38 0 70.75C0.07 69.65 0.369951 68.55 0.949951 67.6C1.60995 66.21 9.73991 52.07 12.1599 48.19C13.5499 45.92 14.2799 43.28 14.2799 40.57C14.2799 37.86 13.5499 35.22 12.1599 32.95C9.73991 28.92 1.53995 14.79 0.949951 13.4C0.359951 12.45 0.07 11.35 0 10.25C0.29 7.61 1.46 5.2 3.37 3.37C5.19 1.46 7.59999 0.29 10.24 0C11.34 0.07 12.44 0.37 13.46 0.95C14.63 1.46 24.96 7.47 30.45 10.69L31.7 11.42C32.14 11.71 32.5099 11.93 32.7999 12.08L33.39 12.45L52.9399 24.02C52.4999 19.63 50.23 15.6 46.71 12.89C47.15 12.67 47.66 12.45 48.1 12.16C51.98 9.74 66.12 1.54 67.51 0.95C68.46 0.37 69.56 0.07 70.73 0C73.29 0.29 75.7099 1.46 77.5399 3.37H77.5499ZM41.5199 45.7L45.6899 41.53C46.2799 40.94 46.2799 40.07 45.6899 39.48L41.5199 35.31C40.9299 34.72 40.06 34.72 39.47 35.31L35.2999 39.48C34.7099 40.07 34.7099 40.94 35.2999 41.53L39.47 45.7C39.98 46.21 40.9299 46.21 41.5199 45.7ZM77.5499 3.37C79.4499 5.2 80.7 7.62 80.99 10.25C80.99 11.35 80.6999 12.08 80.0399 13.47C79.3799 14.86 71.25 28.92 68.83 32.8C67.44 35.07 66.71 37.78 66.71 40.42C66.71 43.06 67.44 45.77 68.83 48.04C71.25 51.92 79.3799 66.06 80.0399 67.45C80.6999 68.84 80.99 69.5 80.99 70.6C80.7 73.24 79.53 75.65 77.62 77.41C75.79 79.31 73.3699 80.56 70.8099 80.78C69.7099 80.78 68.9799 80.49 67.6599 79.83C66.3399 79.17 51.99 71.26 48.11 68.84C47.82 68.69 47.5199 68.47 47.1599 68.33L27.97 56.98C28.41 60.64 30.0199 64.16 32.6599 66.72C33.1699 67.23 33.6899 67.67 34.2699 68.11C33.8299 68.33 33.32 68.55 32.88 68.84C29 71.26 14.86 79.39 13.47 80.05C12.08 80.71 11.42 81 10.25 81C7.61 80.71 5.19994 79.54 3.43994 77.63C1.53994 75.8 0.29 73.38 0 70.75C0.07 69.65 0.369951 68.55 0.949951 67.6C1.60995 66.21 9.73991 52.07 12.1599 48.19C13.5499 45.92 14.2799 43.28 14.2799 40.57C14.2799 37.86 13.5499 35.22 12.1599 32.95C9.73991 28.92 1.53995 14.79 0.949951 13.4C0.359951 12.45 0.07 11.35 0 10.25C0.29 7.61 1.46 5.2 3.37 3.37C5.19 1.46 7.59999 0.29 10.24 0C11.34 0.07 12.44 0.37 13.46 0.95C14.63 1.46 24.96 7.47 30.45 10.69L31.7 11.42C32.14 11.71 32.5099 11.93 32.7999 12.08L33.39 12.45L52.9399 24.02C52.4999 19.63 50.23 15.6 46.71 12.89C47.15 12.67 47.66 12.45 48.1 12.16C51.98 9.74 66.12 1.54 67.51 0.95C68.46 0.37 69.56 0.07 70.73 0C73.29 0.29 75.7099 1.46 77.5399 3.37H77.5499ZM41.5199 45.7L45.6899 41.53C46.2799 40.94 46.2799 40.07 45.6899 39.48L41.5199 35.31C40.9299 34.72 40.06 34.72 39.47 35.31L35.2999 39.48C34.7099 40.07 34.7099 40.94 35.2999 41.53L39.47 45.7C39.98 46.21 40.9299 46.21 41.5199 45.7Z" fill="#FF694A"/>
<path d="M88.83 64.3599L87.62 67.7399H87.1799L85.97 64.3599V67.7399H85.2V63.1299H86.1599L87.3999 66.5599L88.64 63.1299H89.6V67.7399H88.83V64.3599Z" fill="#FF694A"/>
<path d="M84.5199 63.8199H83.25V67.7399H82.47V63.8199H81.2V63.1299H84.5199V63.8199Z" fill="#FF694A"/>
</svg>
