<svg xmlns="http://www.w3.org/2000/svg" width="150" height="150" viewBox="0 0 150 150" fill="none">
  <path d="M30.3789 102.655V46.8H43.8789V91.6909H67.1153V102.655H30.3789Z" fill="#4D4BF7"/>
  <path d="M74.1039 102.655V46.8H97.1766C101.358 46.8 104.968 47.5545 108.004 49.0636C111.058 50.5545 113.413 52.7 115.068 55.5C116.722 58.2818 117.549 61.5818 117.549 65.4C117.549 69.2727 116.704 72.5636 115.013 75.2727C113.322 77.9636 110.922 80.0182 107.813 81.4364C104.704 82.8363 101.022 83.5364 96.7675 83.5364H82.1766V72.9H94.2584C96.2948 72.9 97.9948 72.6363 99.3585 72.1091C100.74 71.5636 101.786 70.7454 102.495 69.6545C103.204 68.5454 103.558 67.1273 103.558 65.4C103.558 63.6727 103.204 62.2454 102.495 61.1182C101.786 59.9727 100.74 59.1182 99.3585 58.5545C97.9766 57.9727 96.2766 57.6818 94.2584 57.6818H87.6039V102.655H74.1039ZM105.549 77.1273L119.458 102.655H104.731L91.0948 77.1273H105.549Z" fill="#4D4BF7"/>
</svg>
