<?xml version="1.0" encoding="UTF-8" standalone="no"?>
<svg
   width="46px"
   height="46px"
   viewBox="0 0 11.493147 11.209467"
   version="1.1"
   id="svg491"
   xmlns="http://www.w3.org/2000/svg">
  <defs
     id="defs488" />
  <g
     id="layer1"
     transform="translate(-93.535478,-240.90809)">
    <g
       id="g196"
       transform="matrix(0.35277777,0,0,-0.35277777,99.281522,240.90809)">
      <path
         d="m 0,0 c -8.995,0 -16.288,-7.293 -16.288,-16.29 0,-7.197 4.667,-13.302 11.14,-15.457 0.815,-0.149 1.112,0.354 1.112,0.786 0,0.386 -0.014,1.411 -0.022,2.77 -4.531,-0.984 -5.487,2.184 -5.487,2.184 -0.741,1.882 -1.809,2.383 -1.809,2.383 -1.479,1.01 0.112,0.99 0.112,0.99 1.635,-0.115 2.495,-1.679 2.495,-1.679 1.453,-2.489 3.813,-1.77 4.741,-1.353 0.148,1.052 0.568,1.77 1.034,2.177 -3.617,0.411 -7.42,1.809 -7.42,8.051 0,1.778 0.635,3.232 1.677,4.371 -0.168,0.412 -0.727,2.068 0.159,4.311 0,0 1.368,0.438 4.48,-1.67 1.299,0.362 2.693,0.542 4.078,0.548 1.383,-0.006 2.777,-0.186 4.078,-0.548 3.11,2.108 4.475,1.67 4.475,1.67 0.889,-2.243 0.33,-3.899 0.162,-4.311 1.044,-1.139 1.675,-2.593 1.675,-4.371 0,-6.258 -3.809,-7.635 -7.438,-8.038 0.585,-0.503 1.106,-1.497 1.106,-3.017 0,-2.177 -0.02,-3.934 -0.02,-4.468 0,-0.436 0.293,-0.943 1.12,-0.784 6.468,2.159 11.131,8.26 11.131,15.455 C 16.291,-7.293 8.997,0 0,0"
         style="fill:#ffffff;fill-opacity:1;fill-rule:evenodd;stroke:none"
         id="path198" />
    </g>
  </g>
</svg>
