<svg version="1.1" id="Layer_1" xmlns="http://www.w3.org/2000/svg" xmlns:xlink="http://www.w3.org/1999/xlink" x="0px" y="0px"
	 width="100%" viewBox="0 0 400 400" enable-background="new 0 0 400 400" xml:space="preserve">
<path fill="#453DD8" opacity="1.000000" stroke="none" 
	d="
M192.000000,401.000000 
	C128.019836,401.000000 64.539680,401.000000 1.029761,401.000000 
	C1.029761,267.728180 1.029761,134.456329 1.029761,1.092250 
	C134.230118,1.092250 267.460327,1.092250 400.845276,1.092250 
	C400.845276,134.333191 400.845276,267.666565 400.845276,401.000000 
	C331.456390,401.000000 261.978210,401.000000 192.000000,401.000000 
M146.520798,114.832596 
	C125.708450,115.573265 111.022987,130.662262 111.003777,151.419922 
	C110.973724,183.892532 110.969208,216.365204 111.005470,248.837784 
	C111.028595,269.547333 126.451408,285.287811 146.629562,285.304382 
	C166.902527,285.321014 182.227905,269.812866 182.284790,248.956512 
	C182.373795,216.317612 182.376434,183.678070 182.283463,151.039200 
	C182.225372,130.648911 167.845825,115.824959 146.520798,114.832596 
M269.499817,287.171783 
	C276.583984,287.171783 283.668152,287.171783 290.671814,287.171783 
	C290.671814,261.518677 290.671814,236.617981 290.671814,211.696075 
	C265.628693,211.696075 240.919464,211.696075 216.254700,211.696075 
	C216.254700,237.012085 216.254700,261.925140 216.254700,287.171783 
	C233.891052,287.171783 251.195465,287.171783 269.499817,287.171783 
M256.277679,145.159042 
	C253.756470,145.732681 250.581802,145.595871 248.930267,147.114975 
	C247.708939,148.238342 247.755814,151.790985 248.512482,153.775253 
	C249.736633,156.985596 254.158920,157.657349 256.977051,155.658875 
	C260.376068,153.248459 260.346008,149.503250 256.277679,145.159042 
M230.129257,147.656433 
	C227.736786,146.722946 225.275650,144.960861 222.976349,145.151459 
	C221.479340,145.275528 219.314026,148.136276 219.103622,149.961807 
	C218.890945,151.807144 220.230392,154.671341 221.790955,155.644958 
	C223.353210,156.619629 226.977539,156.683640 227.998611,155.577744 
	C229.585541,153.858994 229.733566,150.811691 230.129257,147.656433 
M280.753021,172.956009 
	C277.117828,173.760132 274.971252,176.208237 275.936981,179.674011 
	C276.514618,181.747070 278.777374,184.196289 280.800110,184.833237 
	C284.294373,185.933517 287.030151,183.605927 287.582336,180.108307 
	C288.259735,175.817474 285.974945,173.285767 280.753021,172.956009 
M276.533722,118.945694 
	C275.071625,124.080948 276.188324,127.642395 280.054779,127.868752 
	C282.344055,128.002777 285.710602,126.595879 286.824982,124.790649 
	C287.776611,123.249046 286.969940,119.493813 285.585236,117.883835 
	C283.060394,114.948265 279.716034,115.472404 276.533722,118.945694 
M254.260101,116.098648 
	C249.993515,115.976227 247.570526,118.278564 247.483765,122.301414 
	C247.414017,125.534569 249.231903,127.986557 252.874847,128.255127 
	C256.350739,128.511398 258.679779,126.890762 259.399445,123.501625 
	C260.173615,119.855736 258.387390,117.498878 254.260101,116.098648 
M287.008270,147.681366 
	C284.769165,146.695175 282.524445,144.967041 280.292969,144.984039 
	C278.809540,144.995316 276.334351,147.361786 276.121002,148.922531 
	C275.837006,151.000381 276.723389,153.988647 278.227142,155.330597 
	C279.504150,156.470200 283.372528,156.772232 284.313416,155.771133 
	C286.015442,153.960175 286.389801,150.901413 287.008270,147.681366 
M257.730286,183.420776 
	C259.916016,180.868179 260.609741,177.876923 258.213165,175.437454 
	C256.829376,174.028885 253.953522,172.794632 252.290405,173.291901 
	C250.382950,173.862228 248.180206,176.209610 247.680344,178.183716 
	C246.389999,183.279617 251.411591,186.169662 257.730286,183.420776 
M218.977203,120.855904 
	C220.111374,123.188812 220.731506,126.175354 222.565842,127.617943 
	C223.730576,128.533920 227.291504,127.833176 228.693939,126.612312 
	C230.081467,125.404411 230.991089,122.377945 230.484192,120.617424 
	C229.968475,118.826378 227.370590,116.319679 225.861206,116.435204 
	C223.541656,116.612747 221.373154,118.763680 218.977203,120.855904 
M230.270813,181.612747 
	C231.340195,176.854645 229.985931,173.305298 226.342941,173.272232 
	C224.039444,173.251343 220.568100,174.765503 219.726562,176.572144 
	C218.885300,178.378174 219.900146,182.184143 221.466812,183.725784 
	C224.216400,186.431488 227.526184,185.411285 230.270813,181.612747 
z"/>
<path fill="#FDFDFF" opacity="1.000000" stroke="none" 
	d="
M146.987869,114.833038 
	C167.845825,115.824959 182.225372,130.648911 182.283463,151.039200 
	C182.376434,183.678070 182.373795,216.317612 182.284790,248.956512 
	C182.227905,269.812866 166.902527,285.321014 146.629562,285.304382 
	C126.451408,285.287811 111.028595,269.547333 111.005470,248.837784 
	C110.969208,216.365204 110.973724,183.892532 111.003777,151.419922 
	C111.022987,130.662262 125.708450,115.573265 146.987869,114.833038 
M168.811127,137.837463 
	C161.567383,127.568336 151.160172,123.523178 140.280258,126.747871 
	C129.692612,129.885925 122.459389,138.925186 121.909416,149.705688 
	C121.307480,161.504883 127.619339,171.593903 138.202957,175.749542 
	C147.824081,179.527283 158.938202,176.847214 166.029343,169.039474 
	C173.667068,160.629913 174.806458,149.568375 168.811127,137.837463 
M121.324409,246.028717 
	C120.362961,264.833954 135.515091,278.643738 152.452209,274.398895 
	C165.383728,271.157928 173.372620,259.470093 171.982666,245.825699 
	C170.759750,233.821045 160.338806,224.144714 147.763351,223.336960 
	C135.201324,222.530075 124.357224,231.569183 121.324409,246.028717 
z"/>
<path fill="#FDFDFF" opacity="1.000000" stroke="none" 
	d="
M268.999847,287.171783 
	C251.195465,287.171783 233.891052,287.171783 216.254700,287.171783 
	C216.254700,261.925140 216.254700,237.012085 216.254700,211.696075 
	C240.919464,211.696075 265.628693,211.696075 290.671814,211.696075 
	C290.671814,236.617981 290.671814,261.518677 290.671814,287.171783 
	C283.668152,287.171783 276.583984,287.171783 268.999847,287.171783 
M244.516602,241.561737 
	C254.804932,241.561737 265.093262,241.561737 275.450012,241.561737 
	C275.450012,238.064774 275.450012,235.197296 275.450012,232.411804 
	C260.459351,232.411804 245.889572,232.411804 231.332443,232.411804 
	C231.332443,235.551743 231.332443,238.306595 231.332443,241.561646 
	C235.585724,241.561646 239.555176,241.561646 244.516602,241.561737 
M264.478424,266.300842 
	C268.083069,266.300842 271.687714,266.300842 275.553040,266.300842 
	C275.553040,262.992096 275.553040,260.267578 275.553040,257.334656 
	C260.682007,257.334656 246.032516,257.334656 231.391663,257.334656 
	C231.391663,260.409149 231.391663,263.141754 231.391663,266.300873 
	C242.299927,266.300873 252.892929,266.300873 264.478424,266.300842 
z"/>
<path fill="#F6F5FD" opacity="1.000000" stroke="none" 
	d="
M256.586792,145.355865 
	C260.346008,149.503250 260.376068,153.248459 256.977051,155.658875 
	C254.158920,157.657349 249.736633,156.985596 248.512482,153.775253 
	C247.755814,151.790985 247.708939,148.238342 248.930267,147.114975 
	C250.581802,145.595871 253.756470,145.732681 256.586792,145.355865 
z"/>
<path fill="#F5F4FD" opacity="1.000000" stroke="none" 
	d="
M230.310379,147.991974 
	C229.733566,150.811691 229.585541,153.858994 227.998611,155.577744 
	C226.977539,156.683640 223.353210,156.619629 221.790955,155.644958 
	C220.230392,154.671341 218.890945,151.807144 219.103622,149.961807 
	C219.314026,148.136276 221.479340,145.275528 222.976349,145.151459 
	C225.275650,144.960861 227.736786,146.722946 230.310379,147.991974 
z"/>
<path fill="#F8F7FD" opacity="1.000000" stroke="none" 
	d="
M281.145996,172.939056 
	C285.974945,173.285767 288.259735,175.817474 287.582336,180.108307 
	C287.030151,183.605927 284.294373,185.933517 280.800110,184.833237 
	C278.777374,184.196289 276.514618,181.747070 275.936981,179.674011 
	C274.971252,176.208237 277.117828,173.760132 281.145996,172.939056 
z"/>
<path fill="#F6F5FD" opacity="1.000000" stroke="none" 
	d="
M276.758972,118.654617 
	C279.716034,115.472404 283.060394,114.948265 285.585236,117.883835 
	C286.969940,119.493813 287.776611,123.249046 286.824982,124.790649 
	C285.710602,126.595879 282.344055,128.002777 280.054779,127.868752 
	C276.188324,127.642395 275.071625,124.080948 276.758972,118.654617 
z"/>
<path fill="#F6F5FD" opacity="1.000000" stroke="none" 
	d="
M254.638779,116.158165 
	C258.387390,117.498878 260.173615,119.855736 259.399445,123.501625 
	C258.679779,126.890762 256.350739,128.511398 252.874847,128.255127 
	C249.231903,127.986557 247.414017,125.534569 247.483765,122.301414 
	C247.570526,118.278564 249.993515,115.976227 254.638779,116.158165 
z"/>
<path fill="#F8F7FD" opacity="1.000000" stroke="none" 
	d="
M287.163391,148.022522 
	C286.389801,150.901413 286.015442,153.960175 284.313416,155.771133 
	C283.372528,156.772232 279.504150,156.470200 278.227142,155.330597 
	C276.723389,153.988647 275.837006,151.000381 276.121002,148.922531 
	C276.334351,147.361786 278.809540,144.995316 280.292969,144.984039 
	C282.524445,144.967041 284.769165,146.695175 287.163391,148.022522 
z"/>
<path fill="#F6F5FD" opacity="1.000000" stroke="none" 
	d="
M257.434265,183.667038 
	C251.411591,186.169662 246.389999,183.279617 247.680344,178.183716 
	C248.180206,176.209610 250.382950,173.862228 252.290405,173.291901 
	C253.953522,172.794632 256.829376,174.028885 258.213165,175.437454 
	C260.609741,177.876923 259.916016,180.868179 257.434265,183.667038 
z"/>
<path fill="#F8F7FD" opacity="1.000000" stroke="none" 
	d="
M219.058868,120.466583 
	C221.373154,118.763680 223.541656,116.612747 225.861206,116.435204 
	C227.370590,116.319679 229.968475,118.826378 230.484192,120.617424 
	C230.991089,122.377945 230.081467,125.404411 228.693939,126.612312 
	C227.291504,127.833176 223.730576,128.533920 222.565842,127.617943 
	C220.731506,126.175354 220.111374,123.188812 219.058868,120.466583 
z"/>
<path fill="#F9F9FE" opacity="1.000000" stroke="none" 
	d="
M230.109222,181.973618 
	C227.526184,185.411285 224.216400,186.431488 221.466812,183.725784 
	C219.900146,182.184143 218.885300,178.378174 219.726562,176.572144 
	C220.568100,174.765503 224.039444,173.251343 226.342941,173.272232 
	C229.985931,173.305298 231.340195,176.854645 230.109222,181.973618 
z"/>
<path fill="#473FD8" opacity="1.000000" stroke="none" 
	d="
M168.993713,138.162506 
	C174.806458,149.568375 173.667068,160.629913 166.029343,169.039474 
	C158.938202,176.847214 147.824081,179.527283 138.202957,175.749542 
	C127.619339,171.593903 121.307480,161.504883 121.909416,149.705688 
	C122.459389,138.925186 129.692612,129.885925 140.280258,126.747871 
	C151.160172,123.523178 161.567383,127.568336 168.993713,138.162506 
z"/>
<path fill="#4840D9" opacity="1.000000" stroke="none" 
	d="
M121.424942,245.618134 
	C124.357224,231.569183 135.201324,222.530075 147.763351,223.336960 
	C160.338806,224.144714 170.759750,233.821045 171.982666,245.825699 
	C173.372620,259.470093 165.383728,271.157928 152.452209,274.398895 
	C135.515091,278.643738 120.362961,264.833954 121.424942,245.618134 
M141.874283,258.525330 
	C146.145386,258.525330 150.416473,258.525330 154.815399,258.525330 
	C154.815399,252.450745 154.815399,246.936478 154.815399,241.432159 
	C149.086548,241.432159 143.728699,241.432159 138.061325,241.432159 
	C138.061325,246.419403 137.891983,251.047333 138.193176,255.644440 
	C138.259567,256.657654 139.994400,257.561615 141.874283,258.525330 
z"/>
<path fill="#524ADB" opacity="1.000000" stroke="none" 
	d="
M244.020630,241.561691 
	C239.555176,241.561646 235.585724,241.561646 231.332443,241.561646 
	C231.332443,238.306595 231.332443,235.551743 231.332443,232.411804 
	C245.889572,232.411804 260.459351,232.411804 275.450012,232.411804 
	C275.450012,235.197296 275.450012,238.064774 275.450012,241.561737 
	C265.093262,241.561737 254.804932,241.561737 244.020630,241.561691 
z"/>
<path fill="#473FD8" opacity="1.000000" stroke="none" 
	d="
M263.982178,266.300842 
	C252.892929,266.300873 242.299927,266.300873 231.391663,266.300873 
	C231.391663,263.141754 231.391663,260.409149 231.391663,257.334656 
	C246.032516,257.334656 260.682007,257.334656 275.553040,257.334656 
	C275.553040,260.267578 275.553040,262.992096 275.553040,266.300842 
	C271.687714,266.300842 268.083069,266.300842 263.982178,266.300842 
z"/>
<path fill="#F8F7FD" opacity="1.000000" stroke="none" 
	d="
M141.417603,258.520599 
	C139.994400,257.561615 138.259567,256.657654 138.193176,255.644440 
	C137.891983,251.047333 138.061325,246.419403 138.061325,241.432159 
	C143.728699,241.432159 149.086548,241.432159 154.815399,241.432159 
	C154.815399,246.936478 154.815399,252.450745 154.815399,258.525330 
	C150.416473,258.525330 146.145386,258.525330 141.417603,258.520599 
z"/>
</svg>
