<svg xmlns="http://www.w3.org/2000/svg" width="250" height="250" fill="none"><g clip-path="url(#a)"><path fill="#06492E" d="M74.99 60.362c0-14.349 13.668-25.939 31.163-25.939 22.416 0 36.084 10.486 43.738 65.123h4.921l7.107-74.505C111.074 7.381 48.747 26.145 47.654 79.678c0 57.948 91.303 57.948 91.303 110.929 0 15.453-13.668 25.939-28.976 25.939-40.458 0-49.752-34.217-51.94-70.09h-4.92L40 213.787s30.07 17.66 62.326 17.66c38.818-.552 64.514-29.25 65.607-59.604 0-57.948-92.943-70.089-92.943-111.48Z"/><path fill="#B4D625" d="M167.845 211.044c0-11.038 8.749-20.42 20.228-20.42 12.033 0 20.782 9.382 20.782 20.42 0 11.038-8.749 20.419-20.229 20.419-12.578.552-20.781-9.381-20.781-20.419Z"/></g><defs><clipPath id="a"><path fill="#fff" d="M40 18h169v214H40z"/></clipPath></defs></svg>