<svg xmlns="http://www.w3.org/2000/svg" width="250" height="250" fill="none"><path fill="#08CF65" d="M65.96 106.539a28.95 28.95 0 0 1 13.001 2.135 28.903 28.903 0 0 1 10.7 7.672l42.197 41.539 2.313 2.307v1.731c0 1.154-.578 1.154-2.313 2.885l-28.902 28.269-2.312 1.731H98.91c-.578 0-1.156 0-2.313-1.731l-82.66-80.769c-2.313-2.308-1.157-5.769 2.89-5.769H65.96Zm119.657-50.77a28.953 28.953 0 0 0-13.316 2.002 28.898 28.898 0 0 0-10.962 7.806l-42.198 41.538-1.734 2.308v1.731c0 .577 0 1.154 1.734 2.308l28.903 28.846 2.312 1.731h1.734c1.156 0 1.734-.577 2.89-1.731l82.083-80.77c2.313-2.307 1.734-5.769-2.312-5.769h-49.134Z"/></svg>