<svg xmlns="http://www.w3.org/2000/svg" xmlns:xlink="http://www.w3.org/1999/xlink" id="Layer_1" x="0" y="0" style="enable-background:new 0 0 168 168" version="1.1" viewBox="0 0 168 168" xml:space="preserve"><style>.st340{fill:#fff}</style><defs><circle id="SVGID_1_" cx="-61.9" cy="340.28" r="83"/></defs><clipPath id="SVGID_2_"><use style="overflow:visible" xlink:href="#SVGID_1_"/></clipPath><g><ellipse cx="833.19" cy="354.02" rx="275.19" ry="22.99" style="opacity:1.160714e-03"/><ellipse cx="833.19" cy="354.02" rx="274.59" ry="22.93" style="opacity:2.321429e-03"/><ellipse cx="833.19" cy="354.02" rx="274" ry="22.88" style="opacity:3.482143e-03"/><ellipse cx="833.19" cy="354.02" rx="273.4" ry="22.83" style="opacity:4.642857e-03"/><ellipse cx="833.19" cy="354.01" rx="272.8" ry="22.77" style="opacity:5.803572e-03"/><ellipse cx="833.19" cy="354.01" rx="272.21" ry="22.72" style="opacity:6.964286e-03"/><ellipse cx="833.19" cy="354.01" rx="271.61" ry="22.66" style="opacity:8.125000e-03"/><ellipse cx="833.19" cy="354.01" rx="271.01" ry="22.61" style="opacity:9.285714e-03"/><ellipse cx="833.19" cy="354.01" rx="270.41" ry="22.56" style="opacity:.0104"/><ellipse cx="833.19" cy="354.01" rx="269.82" ry="22.5" style="opacity:.0116"/><ellipse cx="833.19" cy="354.01" rx="269.22" ry="22.45" style="opacity:.0128"/><ellipse cx="833.19" cy="354.01" rx="268.62" ry="22.39" style="opacity:.0139"/><ellipse cx="833.19" cy="354.01" rx="268.03" ry="22.34" style="opacity:.0151"/><ellipse cx="833.19" cy="354.01" rx="267.43" ry="22.29" style="opacity:.0162"/><ellipse cx="833.19" cy="354.01" rx="266.83" ry="22.23" style="opacity:.0174"/><ellipse cx="833.19" cy="354.01" rx="266.23" ry="22.18" style="opacity:.0186"/><ellipse cx="833.19" cy="354" rx="265.64" ry="22.12" style="opacity:.0197"/><ellipse cx="833.19" cy="354" rx="265.04" ry="22.07" style="opacity:.0209"/><ellipse cx="833.19" cy="354" rx="264.44" ry="22.01" style="opacity:.0221"/><ellipse cx="833.19" cy="354" rx="263.85" ry="21.96" style="opacity:.0232"/><ellipse cx="833.19" cy="354" rx="263.25" ry="21.91" style="opacity:.0244"/><ellipse cx="833.19" cy="354" rx="262.65" ry="21.85" style="opacity:.0255"/><ellipse cx="833.19" cy="354" rx="262.06" ry="21.8" style="opacity:.0267"/><ellipse cx="833.19" cy="354" rx="261.46" ry="21.74" style="opacity:.0279"/><ellipse cx="833.19" cy="354" rx="260.86" ry="21.69" style="opacity:.029"/><ellipse cx="833.19" cy="354" rx="260.26" ry="21.64" style="opacity:.0302"/><ellipse cx="833.19" cy="354" rx="259.67" ry="21.58" style="opacity:.0313"/><ellipse cx="833.19" cy="354" rx="259.07" ry="21.53" style="opacity:.0325"/><ellipse cx="833.18" cy="353.99" rx="258.47" ry="21.47" style="opacity:.0337"/><ellipse cx="833.18" cy="353.99" rx="257.88" ry="21.42" style="opacity:.0348"/><ellipse cx="833.18" cy="353.99" rx="257.28" ry="21.37" style="opacity:.036"/><ellipse cx="833.18" cy="353.99" rx="256.68" ry="21.31" style="opacity:.0371"/><ellipse cx="833.18" cy="353.99" rx="256.08" ry="21.26" style="opacity:.0383"/><ellipse cx="833.18" cy="353.99" rx="255.49" ry="21.2" style="opacity:.0395"/><ellipse cx="833.18" cy="353.99" rx="254.89" ry="21.15" style="opacity:.0406"/><ellipse cx="833.18" cy="353.99" rx="254.29" ry="21.09" style="opacity:.0418"/><ellipse cx="833.18" cy="353.99" rx="253.7" ry="21.04" style="opacity:.0429"/><ellipse cx="833.18" cy="353.99" rx="253.1" ry="20.99" style="opacity:.0441"/><ellipse cx="833.18" cy="353.99" rx="252.5" ry="20.93" style="opacity:.0453"/><ellipse cx="833.18" cy="353.99" rx="251.9" ry="20.88" style="opacity:.0464"/><ellipse cx="833.18" cy="353.98" rx="251.31" ry="20.82" style="opacity:.0476"/><ellipse cx="833.18" cy="353.98" rx="250.71" ry="20.77" style="opacity:.0487"/><ellipse cx="833.18" cy="353.98" rx="250.11" ry="20.72" style="opacity:.0499"/><ellipse cx="833.18" cy="353.98" rx="249.52" ry="20.66" style="opacity:.0511"/><ellipse cx="833.18" cy="353.98" rx="248.92" ry="20.61" style="opacity:.0522"/><ellipse cx="833.18" cy="353.98" rx="248.32" ry="20.55" style="opacity:.0534"/><ellipse cx="833.18" cy="353.98" rx="247.72" ry="20.5" style="opacity:.0546"/><ellipse cx="833.18" cy="353.98" rx="247.13" ry="20.45" style="opacity:.0557"/><ellipse cx="833.18" cy="353.98" rx="246.53" ry="20.39" style="opacity:.0569"/><ellipse cx="833.18" cy="353.98" rx="245.93" ry="20.34" style="opacity:.058"/><ellipse cx="833.18" cy="353.98" rx="245.34" ry="20.28" style="opacity:.0592"/><ellipse cx="833.18" cy="353.98" rx="244.74" ry="20.23" style="opacity:.0604"/><ellipse cx="833.18" cy="353.97" rx="244.14" ry="20.17" style="opacity:.0615"/><ellipse cx="833.18" cy="353.97" rx="243.54" ry="20.12" style="opacity:.0627"/><ellipse cx="833.18" cy="353.97" rx="242.95" ry="20.07" style="opacity:.0638"/><ellipse cx="833.18" cy="353.97" rx="242.35" ry="20.01" style="opacity:.065"/><ellipse cx="833.18" cy="353.97" rx="241.75" ry="19.96" style="opacity:.0662"/><ellipse cx="833.18" cy="353.97" rx="241.16" ry="19.9" style="opacity:.0673"/><ellipse cx="833.18" cy="353.97" rx="240.56" ry="19.85" style="opacity:.0685"/><ellipse cx="833.18" cy="353.97" rx="239.96" ry="19.8" style="opacity:.0696"/><ellipse cx="833.18" cy="353.97" rx="239.37" ry="19.74" style="opacity:.0708"/><ellipse cx="833.17" cy="353.97" rx="238.77" ry="19.69" style="opacity:.072"/><ellipse cx="833.17" cy="353.97" rx="238.17" ry="19.63" style="opacity:.0731"/><ellipse cx="833.17" cy="353.97" rx="237.57" ry="19.58" style="opacity:.0743"/><ellipse cx="833.17" cy="353.96" rx="236.98" ry="19.53" style="opacity:.0754"/><ellipse cx="833.17" cy="353.96" rx="236.38" ry="19.47" style="opacity:.0766"/><ellipse cx="833.17" cy="353.96" rx="235.78" ry="19.42" style="opacity:.0778"/><ellipse cx="833.17" cy="353.96" rx="235.19" ry="19.36" style="opacity:.0789"/><ellipse cx="833.17" cy="353.96" rx="234.59" ry="19.31" style="opacity:.0801"/><ellipse cx="833.17" cy="353.96" rx="233.99" ry="19.25" style="opacity:.0812"/><ellipse cx="833.17" cy="353.96" rx="233.39" ry="19.2" style="opacity:.0824"/><ellipse cx="833.17" cy="353.96" rx="232.8" ry="19.15" style="opacity:.0836"/><ellipse cx="833.17" cy="353.96" rx="232.2" ry="19.09" style="opacity:.0847"/><ellipse cx="833.17" cy="353.96" rx="231.6" ry="19.04" style="opacity:.0859"/><ellipse cx="833.17" cy="353.96" rx="231.01" ry="18.98" style="opacity:.0871"/><ellipse cx="833.17" cy="353.96" rx="230.41" ry="18.93" style="opacity:.0882"/><ellipse cx="833.17" cy="353.95" rx="229.81" ry="18.88" style="opacity:.0894"/><ellipse cx="833.17" cy="353.95" rx="229.21" ry="18.82" style="opacity:.0905"/><ellipse cx="833.17" cy="353.95" rx="228.62" ry="18.77" style="opacity:.0917"/><ellipse cx="833.17" cy="353.95" rx="228.02" ry="18.71" style="opacity:.0929"/><ellipse cx="833.17" cy="353.95" rx="227.42" ry="18.66" style="opacity:.094"/><ellipse cx="833.17" cy="353.95" rx="226.83" ry="18.61" style="opacity:.0952"/><ellipse cx="833.17" cy="353.95" rx="226.23" ry="18.55" style="opacity:.0963"/><ellipse cx="833.17" cy="353.95" rx="225.63" ry="18.5" style="opacity:.0975"/><ellipse cx="833.17" cy="353.95" rx="225.03" ry="18.44" style="opacity:.0987"/><ellipse cx="833.17" cy="353.95" rx="224.44" ry="18.39" style="opacity:.0998"/><ellipse cx="833.17" cy="353.95" rx="223.84" ry="18.33" style="opacity:.101"/><ellipse cx="833.17" cy="353.95" rx="223.24" ry="18.28" style="opacity:.1021"/><ellipse cx="833.17" cy="353.94" rx="222.65" ry="18.23" style="opacity:.1033"/><ellipse cx="833.17" cy="353.94" rx="222.05" ry="18.17" style="opacity:.1045"/><ellipse cx="833.17" cy="353.94" rx="221.45" ry="18.12" style="opacity:.1056"/><ellipse cx="833.17" cy="353.94" rx="220.86" ry="18.06" style="opacity:.1068"/><ellipse cx="833.17" cy="353.94" rx="220.26" ry="18.01" style="opacity:.1079"/><ellipse cx="833.17" cy="353.94" rx="219.66" ry="17.96" style="opacity:.1091"/><ellipse cx="833.16" cy="353.94" rx="219.06" ry="17.9" style="opacity:.1103"/><ellipse cx="833.16" cy="353.94" rx="218.47" ry="17.85" style="opacity:.1114"/><ellipse cx="833.16" cy="353.94" rx="217.87" ry="17.79" style="opacity:.1126"/><ellipse cx="833.16" cy="353.94" rx="217.27" ry="17.74" style="opacity:.1138"/><ellipse cx="833.16" cy="353.94" rx="216.68" ry="17.69" style="opacity:.1149"/><ellipse cx="833.16" cy="353.94" rx="216.08" ry="17.63" style="opacity:.1161"/><ellipse cx="833.16" cy="353.93" rx="215.48" ry="17.58" style="opacity:.1172"/><ellipse cx="833.16" cy="353.93" rx="214.88" ry="17.52" style="opacity:.1184"/><ellipse cx="833.16" cy="353.93" rx="214.29" ry="17.47" style="opacity:.1196"/><ellipse cx="833.16" cy="353.93" rx="213.69" ry="17.41" style="opacity:.1207"/><ellipse cx="833.16" cy="353.93" rx="213.09" ry="17.36" style="opacity:.1219"/><ellipse cx="833.16" cy="353.93" rx="212.5" ry="17.31" style="opacity:.123"/><ellipse cx="833.16" cy="353.93" rx="211.9" ry="17.25" style="opacity:.1242"/><ellipse cx="833.16" cy="353.93" rx="211.3" ry="17.2" style="opacity:.1254"/><ellipse cx="833.16" cy="353.93" rx="210.7" ry="17.14" style="opacity:.1265"/><ellipse cx="833.16" cy="353.93" rx="210.11" ry="17.09" style="opacity:.1277"/><ellipse cx="833.16" cy="353.93" rx="209.51" ry="17.04" style="opacity:.1288"/><ellipse cx="833.16" cy="353.93" rx="208.91" ry="16.98" style="opacity:.13"/><ellipse cx="833.16" cy="353.92" rx="208.32" ry="16.93" style="opacity:.1312"/><ellipse cx="833.16" cy="353.92" rx="207.72" ry="16.87" style="opacity:.1323"/><ellipse cx="833.16" cy="353.92" rx="207.12" ry="16.82" style="opacity:.1335"/><ellipse cx="833.16" cy="353.92" rx="206.52" ry="16.77" style="opacity:.1346"/><ellipse cx="833.16" cy="353.92" rx="205.93" ry="16.71" style="opacity:.1358"/><ellipse cx="833.16" cy="353.92" rx="205.33" ry="16.66" style="opacity:.137"/><ellipse cx="833.16" cy="353.92" rx="204.73" ry="16.6" style="opacity:.1381"/><ellipse cx="833.16" cy="353.92" rx="204.14" ry="16.55" style="opacity:.1393"/><ellipse cx="833.16" cy="353.92" rx="203.54" ry="16.49" style="opacity:.1404"/><ellipse cx="833.16" cy="353.92" rx="202.94" ry="16.44" style="opacity:.1416"/><ellipse cx="833.16" cy="353.92" rx="202.34" ry="16.39" style="opacity:.1428"/><ellipse cx="833.16" cy="353.92" rx="201.75" ry="16.33" style="opacity:.1439"/><ellipse cx="833.16" cy="353.91" rx="201.15" ry="16.28" style="opacity:.1451"/><ellipse cx="833.16" cy="353.91" rx="200.55" ry="16.22" style="opacity:.1462"/><ellipse cx="833.15" cy="353.91" rx="199.96" ry="16.17" style="opacity:.1474"/><ellipse cx="833.15" cy="353.91" rx="199.36" ry="16.12" style="opacity:.1486"/><ellipse cx="833.15" cy="353.91" rx="198.76" ry="16.06" style="opacity:.1497"/><ellipse cx="833.15" cy="353.91" rx="198.17" ry="16.01" style="opacity:.1509"/><ellipse cx="833.15" cy="353.91" rx="197.57" ry="15.95" style="opacity:.1521"/><ellipse cx="833.15" cy="353.91" rx="196.97" ry="15.9" style="opacity:.1532"/><ellipse cx="833.15" cy="353.91" rx="196.37" ry="15.85" style="opacity:.1544"/><ellipse cx="833.15" cy="353.91" rx="195.78" ry="15.79" style="opacity:.1555"/><ellipse cx="833.15" cy="353.91" rx="195.18" ry="15.74" style="opacity:.1567"/><ellipse cx="833.15" cy="353.91" rx="194.58" ry="15.68" style="opacity:.1579"/><ellipse cx="833.15" cy="353.91" rx="193.99" ry="15.63" style="opacity:.159"/><ellipse cx="833.15" cy="353.9" rx="193.39" ry="15.57" style="opacity:.1602"/><ellipse cx="833.15" cy="353.9" rx="192.79" ry="15.52" style="opacity:.1613"/><ellipse cx="833.15" cy="353.9" rx="192.19" ry="15.47" style="opacity:.1625"/><ellipse cx="833.15" cy="353.9" rx="191.6" ry="15.41" style="opacity:.1637"/><ellipse cx="833.15" cy="353.9" rx="191" ry="15.36" style="opacity:.1648"/><ellipse cx="833.15" cy="353.9" rx="190.4" ry="15.3" style="opacity:.166"/><ellipse cx="833.15" cy="353.9" rx="189.81" ry="15.25" style="opacity:.1671"/><ellipse cx="833.15" cy="353.9" rx="189.21" ry="15.2" style="opacity:.1683"/><ellipse cx="833.15" cy="353.9" rx="188.61" ry="15.14" style="opacity:.1695"/><ellipse cx="833.15" cy="353.9" rx="188.01" ry="15.09" style="opacity:.1706"/><ellipse cx="833.15" cy="353.9" rx="187.42" ry="15.03" style="opacity:.1718"/><ellipse cx="833.15" cy="353.9" rx="186.82" ry="14.98" style="opacity:.1729"/><ellipse cx="833.15" cy="353.89" rx="186.22" ry="14.93" style="opacity:.1741"/><ellipse cx="833.15" cy="353.89" rx="185.63" ry="14.87" style="opacity:.1753"/><ellipse cx="833.15" cy="353.89" rx="185.03" ry="14.82" style="opacity:.1764"/><ellipse cx="833.15" cy="353.89" rx="184.43" ry="14.76" style="opacity:.1776"/><ellipse cx="833.15" cy="353.89" rx="183.83" ry="14.71" style="opacity:.1787"/><ellipse cx="833.15" cy="353.89" rx="183.24" ry="14.65" style="opacity:.1799"/><ellipse cx="833.15" cy="353.89" rx="182.64" ry="14.6" style="opacity:.1811"/><ellipse cx="833.15" cy="353.89" rx="182.04" ry="14.55" style="opacity:.1822"/><ellipse cx="833.15" cy="353.89" rx="181.45" ry="14.49" style="opacity:.1834"/><ellipse cx="833.15" cy="353.89" rx="180.85" ry="14.44" style="opacity:.1846"/><ellipse cx="833.14" cy="353.89" rx="180.25" ry="14.38" style="opacity:.1857"/><ellipse cx="833.14" cy="353.89" rx="179.65" ry="14.33" style="opacity:.1869"/><ellipse cx="833.14" cy="353.88" rx="179.06" ry="14.28" style="opacity:.188"/><ellipse cx="833.14" cy="353.88" rx="178.46" ry="14.22" style="opacity:.1892"/><ellipse cx="833.14" cy="353.88" rx="177.86" ry="14.17" style="opacity:.1904"/><ellipse cx="833.14" cy="353.88" rx="177.27" ry="14.11" style="opacity:.1915"/><ellipse cx="833.14" cy="353.88" rx="176.67" ry="14.06" style="opacity:.1927"/><ellipse cx="833.14" cy="353.88" rx="176.07" ry="14.01" style="opacity:.1938"/><ellipse cx="833.14" cy="353.88" rx="175.48" ry="13.95" style="opacity:.195"/><ellipse cx="833.14" cy="353.88" rx="174.88" ry="13.9" style="opacity:.1962"/><ellipse cx="833.14" cy="353.88" rx="174.28" ry="13.84" style="opacity:.1973"/><ellipse cx="833.14" cy="353.88" rx="173.68" ry="13.79" style="opacity:.1985"/><ellipse cx="833.14" cy="353.88" rx="173.09" ry="13.73" style="opacity:.1996"/><ellipse cx="833.14" cy="353.88" rx="172.49" ry="13.68" style="opacity:.2008"/><ellipse cx="833.14" cy="353.87" rx="171.89" ry="13.63" style="opacity:.202"/><ellipse cx="833.14" cy="353.87" rx="171.3" ry="13.57" style="opacity:.2031"/><ellipse cx="833.14" cy="353.87" rx="170.7" ry="13.52" style="opacity:.2043"/><ellipse cx="833.14" cy="353.87" rx="170.1" ry="13.46" style="opacity:.2054"/><ellipse cx="833.14" cy="353.87" rx="169.5" ry="13.41" style="opacity:.2066"/><ellipse cx="833.14" cy="353.87" rx="168.91" ry="13.36" style="opacity:.2078"/><ellipse cx="833.14" cy="353.87" rx="168.31" ry="13.3" style="opacity:.2089"/><ellipse cx="833.14" cy="353.87" rx="167.71" ry="13.25" style="opacity:.2101"/><ellipse cx="833.14" cy="353.87" rx="167.12" ry="13.19" style="opacity:.2113"/><ellipse cx="833.14" cy="353.87" rx="166.52" ry="13.14" style="opacity:.2124"/><ellipse cx="833.14" cy="353.87" rx="165.92" ry="13.09" style="opacity:.2136"/><ellipse cx="833.14" cy="353.87" rx="165.32" ry="13.03" style="opacity:.2147"/><ellipse cx="833.14" cy="353.86" rx="164.73" ry="12.98" style="opacity:.2159"/><ellipse cx="833.14" cy="353.86" rx="164.13" ry="12.92" style="opacity:.2171"/><ellipse cx="833.14" cy="353.86" rx="163.53" ry="12.87" style="opacity:.2182"/><ellipse cx="833.14" cy="353.86" rx="162.94" ry="12.81" style="opacity:.2194"/><ellipse cx="833.14" cy="353.86" rx="162.34" ry="12.76" style="opacity:.2205"/><ellipse cx="833.14" cy="353.86" rx="161.74" ry="12.71" style="opacity:.2217"/><ellipse cx="833.13" cy="353.86" rx="161.14" ry="12.65" style="opacity:.2229"/><ellipse cx="833.13" cy="353.86" rx="160.55" ry="12.6" style="opacity:.224"/><ellipse cx="833.13" cy="353.86" rx="159.95" ry="12.54" style="opacity:.2252"/><ellipse cx="833.13" cy="353.86" rx="159.35" ry="12.49" style="opacity:.2263"/><ellipse cx="833.13" cy="353.86" rx="158.76" ry="12.44" style="opacity:.2275"/><ellipse cx="833.13" cy="353.86" rx="158.16" ry="12.38" style="opacity:.2287"/><ellipse cx="833.13" cy="353.85" rx="157.56" ry="12.33" style="opacity:.2298"/><ellipse cx="833.13" cy="353.85" rx="156.97" ry="12.27" style="opacity:.231"/><ellipse cx="833.13" cy="353.85" rx="156.37" ry="12.22" style="opacity:.2321"/><ellipse cx="833.13" cy="353.85" rx="155.77" ry="12.17" style="opacity:.2333"/><ellipse cx="833.13" cy="353.85" rx="155.17" ry="12.11" style="opacity:.2345"/><ellipse cx="833.13" cy="353.85" rx="154.58" ry="12.06" style="opacity:.2356"/><ellipse cx="833.13" cy="353.85" rx="153.98" ry="12" style="opacity:.2368"/><ellipse cx="833.13" cy="353.85" rx="153.38" ry="11.95" style="opacity:.2379"/><ellipse cx="833.13" cy="353.85" rx="152.79" ry="11.89" style="opacity:.2391"/><ellipse cx="833.13" cy="353.85" rx="152.19" ry="11.84" style="opacity:.2403"/><ellipse cx="833.13" cy="353.85" rx="151.59" ry="11.79" style="opacity:.2414"/><ellipse cx="833.13" cy="353.85" rx="150.99" ry="11.73" style="opacity:.2426"/><ellipse cx="833.13" cy="353.84" rx="150.4" ry="11.68" style="opacity:.2438"/><ellipse cx="833.13" cy="353.84" rx="149.8" ry="11.62" style="opacity:.2449"/><ellipse cx="833.13" cy="353.84" rx="149.2" ry="11.57" style="opacity:.2461"/><ellipse cx="833.13" cy="353.84" rx="148.61" ry="11.52" style="opacity:.2472"/><ellipse cx="833.13" cy="353.84" rx="148.01" ry="11.46" style="opacity:.2484"/><ellipse cx="833.13" cy="353.84" rx="147.41" ry="11.41" style="opacity:.2496"/><ellipse cx="833.13" cy="353.84" rx="146.81" ry="11.35" style="opacity:.2507"/><ellipse cx="833.13" cy="353.84" rx="146.22" ry="11.3" style="opacity:.2519"/><ellipse cx="833.13" cy="353.84" rx="145.62" ry="11.25" style="opacity:.253"/><ellipse cx="833.13" cy="353.84" rx="145.02" ry="11.19" style="opacity:.2542"/><ellipse cx="833.13" cy="353.84" rx="144.43" ry="11.14" style="opacity:.2554"/><ellipse cx="833.13" cy="353.84" rx="143.83" ry="11.08" style="opacity:.2565"/><ellipse cx="833.13" cy="353.83" rx="143.23" ry="11.03" style="opacity:.2577"/><ellipse cx="833.13" cy="353.83" rx="142.63" ry="10.98" style="opacity:.2588"/><ellipse cx="833.12" cy="353.83" rx="142.04" ry="10.92" style="opacity:.26"/><ellipse cx="833.12" cy="353.83" rx="141.44" ry="10.87" style="opacity:.2612"/><ellipse cx="833.12" cy="353.83" rx="140.84" ry="10.81" style="opacity:.2623"/><ellipse cx="833.12" cy="353.83" rx="140.25" ry="10.76" style="opacity:.2635"/><ellipse cx="833.12" cy="353.83" rx="139.65" ry="10.7" style="opacity:.2646"/><ellipse cx="833.12" cy="353.83" rx="139.05" ry="10.65" style="opacity:.2658"/><ellipse cx="833.12" cy="353.83" rx="138.45" ry="10.6" style="opacity:.267"/><ellipse cx="833.12" cy="353.83" rx="137.86" ry="10.54" style="opacity:.2681"/><ellipse cx="833.12" cy="353.83" rx="137.26" ry="10.49" style="opacity:.2693"/><ellipse cx="833.12" cy="353.83" rx="136.66" ry="10.43" style="opacity:.2704"/><ellipse cx="833.12" cy="353.82" rx="136.07" ry="10.38" style="opacity:.2716"/><ellipse cx="833.12" cy="353.82" rx="135.47" ry="10.33" style="opacity:.2728"/><ellipse cx="833.12" cy="353.82" rx="134.87" ry="10.27" style="opacity:.2739"/><ellipse cx="833.12" cy="353.82" rx="134.28" ry="10.22" style="opacity:.2751"/><ellipse cx="833.12" cy="353.82" rx="133.68" ry="10.16" style="opacity:.2763"/><ellipse cx="833.12" cy="353.82" rx="133.08" ry="10.11" style="opacity:.2774"/><ellipse cx="833.12" cy="353.82" rx="132.48" ry="10.06" style="opacity:.2786"/><ellipse cx="833.12" cy="353.82" rx="131.89" ry="10" style="opacity:.2797"/><ellipse cx="833.12" cy="353.82" rx="131.29" ry="9.95" style="opacity:.2809"/><ellipse cx="833.12" cy="353.82" rx="130.69" ry="9.89" style="opacity:.2821"/><ellipse cx="833.12" cy="353.82" rx="130.1" ry="9.84" style="opacity:.2832"/><ellipse cx="833.12" cy="353.82" rx="129.5" ry="9.78" style="opacity:.2844"/><ellipse cx="833.12" cy="353.81" rx="128.9" ry="9.73" style="opacity:.2855"/><ellipse cx="833.12" cy="353.81" rx="128.3" ry="9.68" style="opacity:.2867"/><ellipse cx="833.12" cy="353.81" rx="127.71" ry="9.62" style="opacity:.2879"/><ellipse cx="833.12" cy="353.81" rx="127.11" ry="9.57" style="opacity:.289"/><ellipse cx="833.12" cy="353.81" rx="126.51" ry="9.51" style="opacity:.2902"/><ellipse cx="833.12" cy="353.81" rx="125.92" ry="9.46" style="opacity:.2913"/><ellipse cx="833.12" cy="353.81" rx="125.32" ry="9.41" style="opacity:.2925"/><ellipse cx="833.12" cy="353.81" rx="124.72" ry="9.35" style="opacity:.2937"/><ellipse cx="833.12" cy="353.81" rx="124.12" ry="9.3" style="opacity:.2948"/><ellipse cx="833.12" cy="353.81" rx="123.53" ry="9.24" style="opacity:.296"/><ellipse cx="833.12" cy="353.81" rx="122.93" ry="9.19" style="opacity:.2971"/><ellipse cx="833.11" cy="353.81" rx="122.33" ry="9.14" style="opacity:.2983"/><ellipse cx="833.11" cy="353.8" rx="121.74" ry="9.08" style="opacity:.2995"/><ellipse cx="833.11" cy="353.8" rx="121.14" ry="9.03" style="opacity:.3006"/><ellipse cx="833.11" cy="353.8" rx="120.54" ry="8.97" style="opacity:.3018"/><ellipse cx="833.11" cy="353.8" rx="119.94" ry="8.92" style="opacity:.3029"/><ellipse cx="833.11" cy="353.8" rx="119.35" ry="8.86" style="opacity:.3041"/><ellipse cx="833.11" cy="353.8" rx="118.75" ry="8.81" style="opacity:.3053"/><ellipse cx="833.11" cy="353.8" rx="118.15" ry="8.76" style="opacity:.3064"/><ellipse cx="833.11" cy="353.8" rx="117.56" ry="8.7" style="opacity:.3076"/><ellipse cx="833.11" cy="353.8" rx="116.96" ry="8.65" style="opacity:.3088"/><ellipse cx="833.11" cy="353.8" rx="116.36" ry="8.59" style="opacity:.3099"/><ellipse cx="833.11" cy="353.8" rx="115.76" ry="8.54" style="opacity:.3111"/><ellipse cx="833.11" cy="353.8" rx="115.17" ry="8.49" style="opacity:.3122"/><ellipse cx="833.11" cy="353.79" rx="114.57" ry="8.43" style="opacity:.3134"/><ellipse cx="833.11" cy="353.79" rx="113.97" ry="8.38" style="opacity:.3146"/><ellipse cx="833.11" cy="353.79" rx="113.38" ry="8.32" style="opacity:.3157"/><ellipse cx="833.11" cy="353.79" rx="112.78" ry="8.27" style="opacity:.3169"/><ellipse cx="833.11" cy="353.79" rx="112.18" ry="8.22" style="opacity:.318"/><ellipse cx="833.11" cy="353.79" rx="111.59" ry="8.16" style="opacity:.3192"/><ellipse cx="833.11" cy="353.79" rx="110.99" ry="8.11" style="opacity:.3204"/><ellipse cx="833.11" cy="353.79" rx="110.39" ry="8.05" style="opacity:.3215"/><ellipse cx="833.11" cy="353.79" rx="109.79" ry="8" style="opacity:.3227"/><ellipse cx="833.11" cy="353.79" rx="109.2" ry="7.94" style="opacity:.3238"/><ellipse cx="833.11" cy="353.79" rx="108.6" ry="7.89" style="opacity:.325"/><ellipse cx="833.11" cy="353.79" rx="108" ry="7.84" style="opacity:.3262"/><ellipse cx="833.11" cy="353.79" rx="107.41" ry="7.78" style="opacity:.3273"/><ellipse cx="833.11" cy="353.78" rx="106.81" ry="7.73" style="opacity:.3285"/><ellipse cx="833.11" cy="353.78" rx="106.21" ry="7.67" style="opacity:.3296"/><ellipse cx="833.11" cy="353.78" rx="105.61" ry="7.62" style="opacity:.3308"/><ellipse cx="833.11" cy="353.78" rx="105.02" ry="7.57" style="opacity:.332"/><ellipse cx="833.11" cy="353.78" rx="104.42" ry="7.51" style="opacity:.3331"/><ellipse cx="833.11" cy="353.78" rx="103.82" ry="7.46" style="opacity:.3343"/><ellipse cx="833.11" cy="353.78" rx="103.23" ry="7.4" style="opacity:.3354"/><ellipse cx="833.1" cy="353.78" rx="102.63" ry="7.35" style="opacity:.3366"/><ellipse cx="833.1" cy="353.78" rx="102.03" ry="7.3" style="opacity:.3378"/><ellipse cx="833.1" cy="353.78" rx="101.43" ry="7.24" style="opacity:.3389"/><ellipse cx="833.1" cy="353.78" rx="100.84" ry="7.19" style="opacity:.3401"/><ellipse cx="833.1" cy="353.78" rx="100.24" ry="7.13" style="opacity:.3413"/><ellipse cx="833.1" cy="353.77" rx="99.64" ry="7.08" style="opacity:.3424"/><ellipse cx="833.1" cy="353.77" rx="99.05" ry="7.02" style="opacity:.3436"/><ellipse cx="833.1" cy="353.77" rx="98.45" ry="6.97" style="opacity:.3447"/><ellipse cx="833.1" cy="353.77" rx="97.85" ry="6.92" style="opacity:.3459"/><ellipse cx="833.1" cy="353.77" rx="97.25" ry="6.86" style="opacity:.3471"/><ellipse cx="833.1" cy="353.77" rx="96.66" ry="6.81" style="opacity:.3482"/><ellipse cx="833.1" cy="353.77" rx="96.06" ry="6.75" style="opacity:.3494"/><ellipse cx="833.1" cy="353.77" rx="95.46" ry="6.7" style="opacity:.3505"/><ellipse cx="833.1" cy="353.77" rx="94.87" ry="6.65" style="opacity:.3517"/><ellipse cx="833.1" cy="353.77" rx="94.27" ry="6.59" style="opacity:.3529"/><ellipse cx="833.1" cy="353.77" rx="93.67" ry="6.54" style="opacity:.354"/><ellipse cx="833.1" cy="353.77" rx="93.08" ry="6.48" style="opacity:.3552"/><ellipse cx="833.1" cy="353.76" rx="92.48" ry="6.43" style="opacity:.3563"/><ellipse cx="833.1" cy="353.76" rx="91.88" ry="6.38" style="opacity:.3575"/><ellipse cx="833.1" cy="353.76" rx="91.28" ry="6.32" style="opacity:.3587"/><ellipse cx="833.1" cy="353.76" rx="90.69" ry="6.27" style="opacity:.3598"/><ellipse cx="833.1" cy="353.76" rx="90.09" ry="6.21" style="opacity:.361"/><ellipse cx="833.1" cy="353.76" rx="89.49" ry="6.16" style="opacity:.3621"/><ellipse cx="833.1" cy="353.76" rx="88.9" ry="6.1" style="opacity:.3633"/><ellipse cx="833.1" cy="353.76" rx="88.3" ry="6.05" style="opacity:.3645"/><ellipse cx="833.1" cy="353.76" rx="87.7" ry="6" style="opacity:.3656"/><ellipse cx="833.1" cy="353.76" rx="87.1" ry="5.94" style="opacity:.3668"/><ellipse cx="833.1" cy="353.76" rx="86.51" ry="5.89" style="opacity:.3679"/><ellipse cx="833.1" cy="353.76" rx="85.91" ry="5.83" style="opacity:.3691"/><ellipse cx="833.1" cy="353.75" rx="85.31" ry="5.78" style="opacity:.3703"/><ellipse cx="833.1" cy="353.75" rx="84.72" ry="5.73" style="opacity:.3714"/><ellipse cx="833.1" cy="353.75" rx="84.12" ry="5.67" style="opacity:.3726"/><ellipse cx="833.09" cy="353.75" rx="83.52" ry="5.62" style="opacity:.3738"/><ellipse cx="833.09" cy="353.75" rx="82.92" ry="5.56" style="opacity:.3749"/><ellipse cx="833.09" cy="353.75" rx="82.33" ry="5.51" style="opacity:.3761"/><ellipse cx="833.09" cy="353.75" rx="81.73" ry="5.46" style="opacity:.3772"/><ellipse cx="833.09" cy="353.75" rx="81.13" ry="5.4" style="opacity:.3784"/><ellipse cx="833.09" cy="353.75" rx="80.54" ry="5.35" style="opacity:.3796"/><ellipse cx="833.09" cy="353.75" rx="79.94" ry="5.29" style="opacity:.3807"/><ellipse cx="833.09" cy="353.75" rx="79.34" ry="5.24" style="opacity:.3819"/><ellipse cx="833.09" cy="353.75" rx="78.74" ry="5.18" style="opacity:.383"/><ellipse cx="833.09" cy="353.74" rx="78.15" ry="5.13" style="opacity:.3842"/><ellipse cx="833.09" cy="353.74" rx="77.55" ry="5.08" style="opacity:.3854"/><ellipse cx="833.09" cy="353.74" rx="76.95" ry="5.02" style="opacity:.3865"/><ellipse cx="833.09" cy="353.74" rx="76.36" ry="4.97" style="opacity:.3877"/><ellipse cx="833.09" cy="353.74" rx="75.76" ry="4.91" style="opacity:.3888"/><ellipse cx="833.09" cy="353.74" rx="75.16" ry="4.86" style="opacity:.39"/></g><g><defs><circle id="SVGID_3_" cx="84" cy="84" r="81.48"/></defs><clipPath id="SVGID_4_"><use style="overflow:visible" xlink:href="#SVGID_3_"/></clipPath><linearGradient id="SVGID_5_" x1="84" x2="84" y1="22.274" y2="141.516" gradientUnits="userSpaceOnUse"><stop offset="0" style="stop-color:#60aacc"/><stop offset=".522" style="stop-color:#3976ab"/><stop offset="1" style="stop-color:#1c4588"/></linearGradient><path d="M136.39 175.38H31.61c-21.53 0-38.99-17.46-38.99-38.99V31.61c0-21.53 17.46-38.99 38.99-38.99H136.4c21.53 0 38.99 17.46 38.99 38.99V136.4c-.01 21.53-17.46 38.98-39 38.98z" style="clip-path:url(#SVGID_4_);fill:url(#SVGID_5_)"/><circle cx="84" cy="84" r="81.48" style="fill:none;stroke:gray;stroke-width:.997;stroke-miterlimit:10"/><g><path d="M23.24 111.16h9.14V55.6h-9.14V43.3h31.07c18.4 0 31.55 7.92 31.55 24.24 0 10.36-6.33 18.28-15.11 21.81l12.31 21.81h9.14v12.31H73.68L57.6 93.01c-1.71.12-3.29.24-4.87.24-2.56 0-4.87 0-6.58-.12v18.03h9.99v12.31h-32.9v-12.31zm48.37-43.13c0-8.41-6.94-12.43-18.03-12.43h-7.43v25.71c1.46.12 3.41.24 7.8.24 10.35 0 17.66-5.11 17.66-13.52zM94.93 109.58c0-3.41 1.95-5.6 4.51-5.6 2.19 0 4.14 1.83 4.14 4.14 0 1.95-1.1 3.66-2.68 4.63 2.44 4.26 9.5 8.16 19.13 8.16 12.18 0 19.86-6.94 19.86-16.93 0-10.11-9.26-14.5-19.25-18.52-12.06-4.75-22.78-9.75-22.78-22.66 0-11.7 9.63-20.1 23.27-20.1 12.3 0 22.17 7.55 22.17 14.86 0 3.17-2.07 5.12-4.39 5.12-2.31 0-4.26-1.83-4.26-4.26 0-1.83.97-3.29 2.31-4.39-2.07-3.9-9.38-6.94-16.08-6.94-10.72 0-18.15 6.58-18.15 15.35 0 10.23 9.14 14.25 19.86 18.52 11.7 4.63 22.17 9.87 22.17 22.66 0 13.16-10.6 21.69-24.98 21.69-15.11-.01-24.85-8.78-24.85-15.73z" class="st340"/></g></g></svg>
