<svg xmlns="http://www.w3.org/2000/svg" width="64" height="64"><switch><g><path d="M64 25.8c0-6.9-5.6-12.5-12.5-12.5-5.9 0-7.8 2.3-14.1 3.1-3.8.5-3.6-1.6-7.8-1.6-3.1 0-6.3 1.6-6.3 1.6s-3-3.6-4.7-3.1c-2.3.8 0 7.8 0 7.8s-1.6 3.1-4.7 6.3c-2.3 2.3-7.8 3.6-10.6 4.4.1-14.4 11.9-26.2 26.3-26.2 6.3 0 12 2.2 16.6 5.9 1.1-.3 2.5-.5 3.9-.6-5.3-5.2-12.5-8.4-20.7-8.4C13.3 2.5 0 15.8 0 32.1s13.3 29.4 29.6 29.4c14.2 0 26.1-10 28.8-23.5-1.3.6-2.5 1.3-3.8 1.9-3.3 10.3-12.7 18-24.1 18.5 1.6-2.7 5.2-7.7 9.9-12.2C50.9 36.1 64 37.7 64 25.8zm-32.1-1.5c-1.3 0-2.3-1.1-2.3-2.3 0-1.3 1.1-2.3 2.3-2.3 1.3 0 2.3 1.1 2.3 2.3.1 1.2-1 2.3-2.3 2.3z" fill="#3b474f"/></g></switch></svg>
