<?xml version="1.0" encoding="utf-8"?>
<svg xmlns="http://www.w3.org/2000/svg" viewBox="236.9515 132.9774 120.551 120.527" width="250" height="250">
  <g transform="matrix(0.10000000149011612, 0, 0, -0.10000000149011612, 220.96900939941403, 268.5673522949219)" fill="#000000" stroke="none">
    <path d="M700 1354 c-156 -26 -261 -76 -360 -173 -89 -89 -124 -145 -161 -266 -24 -78 -26 -243 -3 -323 59 -206 215 -361 427 -427 81 -24 277 -17 356 14 228 87 369 268 402 510 31 232 -107 485 -326 597 -44 23 -100 46 -125 52 -54 13 -175 22 -210 16z m410 -306 c-1 -148 -29 -561 -39 -567 -21 -13 -162 -34 -170 -25 -5 5 -36 86 -71 179 -34 94 -63 171 -63 172 -1 1 -1 -86 1 -193 2 -107 2 -194 0 -194 -2 0 -43 -8 -91 -18 -61 -13 -90 -15 -95 -8 -4 6 -62 134 -130 285 -81 183 -118 277 -111 282 14 8 158 33 163 28 2 -2 36 -89 75 -194 l72 -190 -6 207 c-7 235 -19 209 98 229 39 6 72 8 77 3 6 -7 85 -220 128 -349 8 -21 9 30 5 177 l-6 207 24 5 c148 35 139 37 139 -36z" style="fill: rgb(192, 56, 34);"/>
  </g>
</svg>
