<?xml version="1.0" encoding="UTF-8"?>
<svg xmlns="http://www.w3.org/2000/svg" xmlns:xlink="http://www.w3.org/1999/xlink" width="250px" height="250px" viewBox="0 0 250 250" version="1.1">
<g id="surface1">
<rect x="0" y="0" width="250" height="250" style="fill:rgb(100%,100%,100%);fill-opacity:1;stroke:none;"/>
<path style=" stroke:none;fill-rule:nonzero;fill:rgb(0%,63.137257%,80.000001%);fill-opacity:1;" d="M 50.546875 126.960938 C 99.6875 126.960938 148.824219 126.960938 199.453125 126.960938 C 199.453125 137.304688 199.453125 147.648438 199.453125 158.308594 C 160.660156 158.308594 121.867188 158.308594 81.898438 158.308594 C 81.898438 161.539062 81.898438 164.773438 81.898438 168.105469 C 120.691406 168.105469 159.484375 168.105469 199.453125 168.105469 C 199.53125 179.015625 199.613281 189.925781 199.695312 201.164062 C 199.730469 204.609375 199.769531 208.050781 199.804688 211.597656 C 199.816406 214.320312 199.824219 217.042969 199.835938 219.761719 C 199.855469 221.183594 199.875 222.601562 199.894531 224.0625 C 199.894531 227.617188 199.691406 231.171875 199.453125 234.71875 C 195.53125 238.636719 195.53125 238.636719 189.644531 239.121094 C 187.117188 239.117188 184.59375 239.117188 181.988281 239.113281 C 179.902344 239.117188 179.902344 239.117188 177.769531 239.125 C 173.15625 239.132812 168.546875 239.109375 163.933594 239.089844 C 160.734375 239.085938 157.539062 239.085938 154.34375 239.085938 C 147.640625 239.082031 140.941406 239.066406 134.238281 239.039062 C 125.628906 239.007812 117.019531 239 108.410156 239 C 101.808594 239 95.210938 238.988281 88.609375 238.976562 C 85.433594 238.96875 82.257812 238.964844 79.082031 238.964844 C 74.65625 238.960938 70.226562 238.941406 65.796875 238.921875 C 62.011719 238.910156 62.011719 238.910156 58.148438 238.898438 C 52.507812 238.636719 52.507812 238.636719 50.546875 236.675781 C 50.546875 227.625 50.546875 218.574219 50.546875 209.246094 C 89.339844 209.246094 128.136719 209.246094 168.105469 209.246094 C 168.105469 206.015625 168.105469 202.78125 168.105469 199.453125 C 129.308594 199.453125 90.515625 199.453125 50.546875 199.453125 C 50.546875 175.527344 50.546875 151.605469 50.546875 126.960938 Z M 60.34375 138.714844 C 60.34375 155.523438 60.34375 172.335938 60.34375 189.65625 C 99.136719 189.65625 137.929688 189.65625 177.898438 189.65625 C 177.898438 199.355469 177.898438 209.050781 177.898438 219.042969 C 139.105469 219.042969 100.3125 219.042969 60.34375 219.042969 C 60.34375 222.277344 60.34375 225.507812 60.34375 228.839844 C 102.371094 228.839844 144.398438 228.839844 187.695312 228.839844 C 187.695312 212.03125 187.695312 195.21875 187.695312 177.898438 C 148.902344 177.898438 110.109375 177.898438 70.140625 177.898438 C 70.140625 168.203125 70.140625 158.503906 70.140625 148.511719 C 108.933594 148.511719 147.726562 148.511719 187.695312 148.511719 C 187.695312 145.277344 187.695312 142.046875 187.695312 138.714844 C 145.671875 138.714844 103.644531 138.714844 60.34375 138.714844 Z M 60.34375 138.714844 "/>
<path style=" stroke:none;fill-rule:nonzero;fill:rgb(0%,63.137257%,80.000001%);fill-opacity:1;" d="M 126.960938 11.363281 C 136.011719 11.363281 145.0625 11.363281 154.390625 11.363281 C 159.269531 18.683594 158.710938 22.617188 158.550781 31.324219 C 158.515625 33.816406 158.480469 36.308594 158.445312 38.878906 C 158.398438 40.789062 158.355469 42.699219 158.308594 44.671875 C 160.621094 44.601562 162.933594 44.535156 165.316406 44.464844 C 168.367188 44.410156 171.421875 44.355469 174.472656 44.304688 C 175.992188 44.253906 177.515625 44.203125 179.085938 44.152344 C 180.5625 44.136719 182.042969 44.117188 183.5625 44.097656 C 185.59375 44.050781 185.59375 44.050781 187.667969 44.003906 C 193.304688 44.957031 195.613281 46.25 199.453125 50.546875 C 200.148438 56 200.367188 60.683594 200.21875 66.125 C 200.210938 67.464844 200.199219 68.808594 200.191406 70.191406 C 200.152344 75.195312 200.042969 80.199219 199.941406 85.203125 C 199.78125 96.394531 199.617188 107.589844 199.453125 119.121094 C 175.527344 119.121094 151.605469 119.121094 126.960938 119.121094 C 126.960938 83.5625 126.960938 48 126.960938 11.363281 Z M 136.753906 21.160156 C 136.753906 49.609375 136.753906 78.054688 136.753906 107.367188 C 153.566406 107.367188 170.375 107.367188 187.695312 107.367188 C 187.695312 90.554688 187.695312 73.746094 187.695312 56.425781 C 174.117188 56.425781 160.539062 56.425781 146.550781 56.425781 C 146.550781 44.789062 146.550781 33.152344 146.550781 21.160156 C 143.320312 21.160156 140.085938 21.160156 136.753906 21.160156 Z M 136.753906 21.160156 "/>
<path style=" stroke:none;fill-rule:nonzero;fill:rgb(0%,63.137257%,80.000001%);fill-opacity:1;" d="M 70.285156 44.289062 C 72.296875 44.296875 72.296875 44.296875 74.347656 44.304688 C 78.617188 44.328125 82.890625 44.375 87.164062 44.425781 C 90.0625 44.445312 92.960938 44.464844 95.859375 44.480469 C 102.960938 44.519531 110.0625 44.597656 117.164062 44.671875 C 117.164062 55.015625 117.164062 65.359375 117.164062 76.019531 C 105.523438 76.019531 93.886719 76.019531 81.898438 76.019531 C 81.898438 79.898438 81.898438 83.777344 81.898438 87.773438 C 93.535156 87.773438 105.171875 87.773438 117.164062 87.773438 C 117.164062 98.121094 117.164062 108.464844 117.164062 119.121094 C 95.179688 119.121094 73.199219 119.121094 50.546875 119.121094 C 50.414062 109.148438 50.296875 99.175781 50.226562 89.203125 C 50.195312 85.808594 50.15625 82.414062 50.105469 79.019531 C 50.035156 74.148438 50 69.273438 49.976562 64.402344 C 49.945312 62.878906 49.914062 61.355469 49.882812 59.789062 C 49.882812 55.507812 49.882812 55.507812 50.546875 48.589844 C 57.847656 43.722656 61.582031 44.21875 70.285156 44.289062 Z M 60.34375 56.425781 C 60.34375 73.238281 60.34375 90.046875 60.34375 107.367188 C 75.863281 107.367188 91.378906 107.367188 107.367188 107.367188 C 107.367188 104.132812 107.367188 100.902344 107.367188 97.570312 C 95.082031 97.570312 82.796875 97.570312 70.140625 97.570312 C 70.140625 87.226562 70.140625 76.882812 70.140625 66.222656 C 82.425781 66.222656 94.710938 66.222656 107.367188 66.222656 C 107.367188 62.988281 107.367188 59.757812 107.367188 56.425781 C 91.851562 56.425781 76.332031 56.425781 60.34375 56.425781 Z M 60.34375 56.425781 "/>
<path style=" stroke:none;fill-rule:nonzero;fill:rgb(0%,63.137257%,80.000001%);fill-opacity:1;" d="M 146.550781 66.222656 C 156.898438 66.222656 167.242188 66.222656 177.898438 66.222656 C 177.898438 76.566406 177.898438 86.914062 177.898438 97.570312 C 167.554688 97.570312 157.210938 97.570312 146.550781 97.570312 C 146.550781 87.226562 146.550781 76.882812 146.550781 66.222656 Z M 158.308594 76.019531 C 158.308594 79.898438 158.308594 83.777344 158.308594 87.773438 C 161.539062 87.773438 164.773438 87.773438 168.105469 87.773438 C 168.105469 83.894531 168.105469 80.015625 168.105469 76.019531 C 164.871094 76.019531 161.636719 76.019531 158.308594 76.019531 Z M 158.308594 76.019531 "/>
</g>
</svg>
