<svg xmlns="http://www.w3.org/2000/svg" width="250" height="250" fill="none"><g fill="#1AB885" clip-path="url(#a)"><path d="M159.718 99.976c.027.09.063.177.107.26l.245-.227a2.636 2.636 0 0 1-.352-.033Zm0 0c.027.09.063.177.107.26l.245-.227a2.636 2.636 0 0 1-.352-.033Zm0 0c.027.09.063.177.107.26l.245-.227a2.636 2.636 0 0 1-.352-.033Zm29.478-27.698-.049-.073v.122l-8.319 7.916-5.419 5.145c.074.138.148.284.229.422l5.721-5.478 7.805-7.493.229-.228-.197-.333Zm-29.478 27.698c.027.09.063.177.107.26l.245-.227a2.636 2.636 0 0 1-.352-.033Zm0 0c.027.09.063.177.107.26l.245-.227a2.636 2.636 0 0 1-.352-.033Zm0 0c.027.09.063.177.107.26l.245-.227a2.636 2.636 0 0 1-.352-.033Zm0 0c.027.09.063.177.107.26l.245-.227a2.636 2.636 0 0 1-.352-.033Z"/><path d="M201.357 116.775a87.436 87.436 0 0 1-9.922 40.389 87.98 87.98 0 0 1-27.489 31.327 88.608 88.608 0 0 1-38.897 15.243 88.782 88.782 0 0 1-41.588-4.255L61.01 221l-16.23-9.688 21.182-20.318 15.34-14.711a68.157 68.157 0 0 0 18.944 7.096 68.942 68.942 0 0 0 30.256-.383 68.719 68.719 0 0 0 27.144-13.296 68.254 68.254 0 0 0 18.747-23.621 67.883 67.883 0 0 0 6.698-29.344c0-1.406-.049-2.804-.139-4.178a68.31 68.31 0 0 0-7.356-26.771l5.721-5.478 7.805-7.494.229-.227c.269.455.531.926.817 1.398.286.471.515.918.76 1.39.18.333.368.682.548 1.032.179.35.367.674.531 1.024.049.073.073.154.122.227.196.407.393.813.597 1.211l.564 1.211c.392.862.768 1.707 1.136 2.585.212.487.408.975.613 1.455.204.48.457 1.137.67 1.715.212.577.449 1.21.654 1.812.073.211.147.422.229.634.228.666.449 1.349.67 2.015a94.803 94.803 0 0 1 1.879 6.852 88.2 88.2 0 0 1 2.215 19.627Zm-41.639-16.799c.027.09.063.177.107.26l.245-.227a2.636 2.636 0 0 1-.352-.033Z"/><path d="m160.07 100.009-.245.227a1.439 1.439 0 0 1-.107-.26c.117.019.234.03.352.033ZM214 48.677l-24.804 23.569-.049-.073a26.417 26.417 0 0 0-6.584-15.991 26.677 26.677 0 0 0-15.097-8.554 26.311 26.311 0 0 0-4.904-.455 26.694 26.694 0 0 0-10.28 2.052 26.57 26.57 0 0 0-8.68 5.848 68.028 68.028 0 0 0-20.129-5.828 44.78 44.78 0 0 1 16.065-14.766 45.067 45.067 0 0 1 21.175-5.46 45.073 45.073 0 0 1 21.255 5.146 44.795 44.795 0 0 1 16.284 14.528L214 48.677Z"/><path d="m189.393 72.627-.229.228-7.805 7.493-5.721 5.478c-.081-.138-.155-.284-.229-.422l5.419-5.104 8.319-7.916v-.212l.049.074.197.382Z"/><path d="m189.164 72.855-7.805 7.494-5.721 5.477c-.081-.138-.155-.284-.229-.422l5.419-5.104 8.319-7.916c0 .122.017.309.017.471Zm-29.127 27.926c-.074-.187-.155-.366-.212-.545a1.44 1.44 0 0 1-.107-.26 48.874 48.874 0 0 0-23.774-25.243c-5.965-2.894-44.131-10.566-44.131-10.566l-10.722-1.95-5.966-1.073-26.103-4.722-10.396-1.878a27.173 27.173 0 0 0-1.634 9.266 27.246 27.246 0 0 0 4.188 14.43 27.456 27.456 0 0 0 11.217 10.057 26.68 26.68 0 0 0 6.669 2.219 26.682 26.682 0 0 1-5.329.528c-.817 0-1.634 0-2.452-.105a27.645 27.645 0 0 1-9.087-2.439 26.208 26.208 0 0 0-.63 5.616 27.198 27.198 0 0 0 7.014 18.188 27.486 27.486 0 0 0 17.422 8.901 48.302 48.302 0 0 0 8.496 24.523 48.684 48.684 0 0 0 19.993 16.658c.287.138.58.276.867.398a48.736 48.736 0 0 0 19.238 3.918c1.046 0 2.068 0 3.105-.09a48.72 48.72 0 0 0 32.429-15.182 48.194 48.194 0 0 0 13.149-33.159v-.057a48.179 48.179 0 0 0-3.244-17.433Zm-26.659 9.444-19.924 19.806.188.195-1.512 1.439a7.24 7.24 0 0 1-10.208-.163l-9.807-10.11a4.624 4.624 0 0 1-1.303-3.301 4.614 4.614 0 0 1 1.426-3.25c.44-.422.96-.754 1.53-.976a4.694 4.694 0 0 1 3.565.066 4.67 4.67 0 0 1 1.492 1.032l8.172 8.412 19.794-19.701a4.683 4.683 0 0 1 6.579.025 4.627 4.627 0 0 1 1.365 3.267 4.628 4.628 0 0 1-1.349 3.275l-.008-.016Z"/><path d="m181.359 80.348-.531-.09v-.015l.531.105Z"/></g><defs><clipPath id="a"><path fill="#fff" d="M37 29h177v192H37z"/></clipPath></defs></svg>