<svg xmlns="http://www.w3.org/2000/svg" width="250" height="250" fill="none"><g clip-path="url(#a)"><path fill="#000" d="M167.675 137.813c-9.358 0-17.747 4.136-23.492 10.647l-14.72-10.396c1.562-4.292 2.459-8.901 2.459-13.725 0-4.74-.866-9.272-2.377-13.501l14.688-10.286c5.744 6.479 14.112 10.592 23.442 10.592 17.271 0 31.325-14.018 31.325-31.25 0-17.233-14.054-31.251-31.325-31.251-17.272 0-31.325 14.018-31.325 31.25 0 3.085.467 6.06 1.305 8.876l-14.698 10.292a40.451 40.451 0 0 0-25.051-14.524V66.865c14.189-2.973 24.88-15.55 24.88-30.578 0-17.233-14.053-31.251-31.325-31.251-17.271 0-31.325 14.018-31.325 31.25 0 14.828 10.414 27.25 24.32 30.435v17.901C65.48 87.946 51 104.468 51 124.34c0 19.968 14.622 36.551 33.737 39.761v18.903c-14.048 3.08-24.6 15.578-24.6 30.506 0 17.233 14.053 31.251 31.324 31.251 17.272 0 31.325-14.018 31.325-31.251 0-14.928-10.552-27.426-24.6-30.506V164.1a40.47 40.47 0 0 0 24.628-14.29l14.819 10.464a31.056 31.056 0 0 0-1.283 8.79c0 17.232 14.053 31.25 31.325 31.25 17.271 0 31.325-14.018 31.325-31.25 0-17.233-14.054-31.251-31.325-31.251Zm0-73.071c8.375 0 15.187 6.798 15.187 15.152 0 8.353-6.812 15.15-15.187 15.15s-15.187-6.797-15.187-15.15c0-8.354 6.812-15.152 15.187-15.152ZM76.273 36.287c0-8.353 6.813-15.152 15.188-15.152 8.376 0 15.188 6.799 15.188 15.152 0 8.353-6.813 15.15-15.188 15.15s-15.188-6.797-15.188-15.15Zm30.376 177.222c0 8.353-6.813 15.151-15.188 15.151s-15.188-6.798-15.188-15.151 6.813-15.151 15.188-15.151c8.376 0 15.188 6.798 15.188 15.151ZM91.46 145.47c-11.68 0-21.184-9.478-21.184-21.131s9.503-21.133 21.184-21.133c11.681 0 21.183 9.48 21.183 21.133 0 11.653-9.502 21.131-21.183 21.131Zm76.215 38.746c-8.375 0-15.187-6.799-15.187-15.152 0-8.353 6.812-15.151 15.187-15.151s15.187 6.798 15.187 15.151-6.812 15.152-15.187 15.152Z"/></g><defs><clipPath id="a"><path fill="#fff" d="M51 5h148v240H51z"/></clipPath></defs></svg>