<?xml version="1.0" encoding="UTF-8"?>
<svg version="1.1" xmlns="http://www.w3.org/2000/svg" width="344" height="344">
<path d="M0 0 C113.52 0 227.04 0 344 0 C344 113.52 344 227.04 344 344 C230.48 344 116.96 344 0 344 C0 230.48 0 116.96 0 0 Z " fill="#3557F5" transform="translate(0,0)"/>
<path d="M0 0 C113.52 0 227.04 0 344 0 C344 113.52 344 227.04 344 344 C230.48 344 116.96 344 0 344 C0 230.48 0 116.96 0 0 Z M129.125 13.625 C128.19937256 13.88297363 127.27374512 14.14094727 126.32006836 14.40673828 C117.12419063 17.07963767 108.56981301 20.76300942 100 25 C99.3498291 25.31163086 98.6996582 25.62326172 98.02978516 25.94433594 C83.4313883 32.97388245 70.66440529 42.79984965 59 54 C58.10925781 54.83917969 57.21851563 55.67835937 56.30078125 56.54296875 C45.11664935 67.3527364 36.53217431 79.43040312 29 93 C28.47792969 93.93320068 28.47792969 93.93320068 27.9453125 94.88525391 C7.49870346 131.96394952 3.92994401 175.31563895 15.02050781 215.86889648 C27.13776712 257.49662967 55.11820165 292.80064165 92.86572266 314.05029297 C117.08911747 327.27717359 143.37593784 334.42087049 171 334.25 C172.87558594 334.26160156 172.87558594 334.26160156 174.7890625 334.2734375 C187.8704713 334.24635384 200.35368231 332.2514992 213 329 C214.22589844 328.70867187 215.45179688 328.41734375 216.71484375 328.1171875 C242.79624686 321.51320124 265.33043647 306.91702733 285 289 C285.74636719 288.32582031 286.49273437 287.65164063 287.26171875 286.95703125 C293.57414909 280.95189975 298.8263009 273.98367024 304 267 C304.43103027 266.41863281 304.86206055 265.83726562 305.30615234 265.23828125 C330.23817769 231.06114986 339.53803287 187.67944665 333.47680664 146.07958984 C326.7210259 104.95261776 304.2749018 65.99112125 270.5 41.125 C258.68592023 32.70373683 246.30869224 25.75316165 233 20 C231.94425781 19.53722656 230.88851562 19.07445312 229.80078125 18.59765625 C220.80005984 14.88217652 211.53220548 12.8188866 202 11 C201.12843262 10.81904785 200.25686523 10.6380957 199.35888672 10.45166016 C191.3797988 8.92478927 183.5385366 8.69242499 175.44726562 8.73925781 C173.26663982 8.74991865 171.08685001 8.73933178 168.90625 8.7265625 C155.38526274 8.71113476 142.18463147 9.93707661 129.125 13.625 Z " fill="#FEFEFE" transform="translate(0,0)"/>
<path d="M0 0 C8.25 0 16.5 0 25 0 C25 35.31 25 70.62 25 107 C16.75 107 8.5 107 0 107 C1.66666667 100.33333333 3.33333333 93.66666667 5 87 C4.01 87 3.02 87 2 87 C1.9071875 87.99 1.9071875 87.99 1.8125 89 C-0.34357353 96.96088689 -5.75226774 102.86790755 -12.734375 107.03515625 C-19.66227037 110.21784322 -28.3295321 110.16935709 -35.62109375 108.34375 C-45.07294478 104.54335236 -50.42922716 98.1762129 -54.7734375 89.16015625 C-59.15409991 77.87367251 -60.31848122 63.41290726 -56.375 51.8125 C-51.9666716 41.92480567 -45.92117457 33.96016066 -35.68359375 29.73046875 C-27.55094301 27.51677779 -18.81419603 28.10480974 -11.18359375 31.67578125 C-4.84747917 35.51825503 -0.45155044 40.99557017 2 48 C2 48.99 2 49.98 2 51 C2.99 51 3.98 51 5 51 C4.45859375 49.49953125 4.45859375 49.49953125 3.90625 47.96875 C-1.24773446 32.14666081 -0.45594713 16.42422872 0 0 Z " fill="#FBFCFD" transform="translate(168,106)"/>
<path d="M0 0 C6.94533151 6.29667868 11.25534112 15.06379047 11.78125 24.421875 C11.81546941 26.28096427 11.82516071 28.14063893 11.8125 30 C11.80677979 30.97211426 11.80105957 31.94422852 11.79516602 32.94580078 C11.534643 43.44215899 8.69441055 51.83906809 1.31640625 59.50390625 C-10.30903393 69.63367576 -23.64366125 71.31641039 -38.51855469 70.46142578 C-48.2349906 69.51428108 -57.43340478 64.02942284 -64 56.9375 C-71.96050437 46.94827983 -73.68026635 34.6532961 -72.6875 22.25 C-70.55205269 11.3681697 -64.94829553 2.87235735 -55.859375 -3.46875 C-38.88508858 -13.48235782 -15.54309305 -12.30772819 0 0 Z " fill="#FBFCFD" transform="translate(277.6875,144.75)"/>
<path d="M0 0 C5.01791684 2.41935276 8.49958655 5.9991731 11 11 C12.32061184 27.4887821 12.32061184 27.4887821 7.46484375 33.58203125 C3.31955279 37.5946729 -0.38950653 38.2086418 -6 38.4375 C-11.13700065 38.2912735 -14.16297854 37.64517039 -18 34 C-22.14330692 28.95796106 -22.6239734 25.26065647 -22.5 19 C-22.51546875 18.21882813 -22.5309375 17.43765625 -22.546875 16.6328125 C-22.5108819 11.28783775 -21.49164733 8.24902672 -18 4 C-12.73351415 -1.00316155 -6.88754912 -0.93663099 0 0 Z " fill="#3758F5" transform="translate(253,156)"/>
<path d="M0 0 C3.5982795 1.79525392 6.34466447 4.41975613 8.15234375 8.01953125 C9.93805505 14.33329619 9.98447688 22.22223268 7.62109375 28.40234375 C5.30460525 32.1566527 2.81048028 35.33890048 -1.19140625 37.33984375 C-7.0759939 37.83564464 -12.40236244 38.17267449 -17.81640625 35.65234375 C-22.84176633 30.75922999 -24.31389769 26.07515276 -24.50390625 19.21484375 C-24.4169815 12.00008979 -22.72513309 6.00025693 -17.69140625 0.71484375 C-11.96634925 -1.53428578 -5.93101469 -1.78670496 0 0 Z " fill="#3759F5" transform="translate(159.19140625,156.66015625)"/>
<path d="M0 0 C4.31742818 2.2145429 6.89007122 4.93784419 8.875 9.3046875 C9.68809889 15.50456652 9.58503252 21.05946911 5.875 26.3046875 C0.46623864 31.18576483 -2.98327132 31.6590841 -10.140625 31.58203125 C-15.49549732 31.08439259 -17.93840277 28.55373722 -21.5 24.8046875 C-23.89803575 19.63968741 -23.87881535 14.9044587 -23.125 9.3046875 C-18.7052014 -0.21487871 -9.76900082 -3.19647453 0 0 Z " fill="#FBFCFD" transform="translate(78.125,130.6953125)"/>
<path d="M0 0 C4.14327184 2.25631664 6.69711307 5.08172615 8.8125 9.3125 C9.32671665 14.39565807 9.61984489 19.57432313 7.3125 24.25 C3.71824921 28.65295722 0.16031629 30.75453062 -5.4609375 31.69140625 C-10.87882684 31.97801814 -15.05982796 30.90549949 -19.1875 27.3125 C-23.15881164 22.32290333 -23.82595459 18.23523626 -23.57421875 11.8984375 C-22.82760327 6.90591783 -20.2525809 4.27367056 -16.625 1 C-11.30125617 -2.6856688 -5.78307724 -2.67575215 0 0 Z " fill="#FBFCFC" transform="translate(78.1875,184.6875)"/>
<path d="M0 0 C9.17286652 1.33041575 9.17286652 1.33041575 12.625 4.125 C13.07875 4.74375 13.5325 5.3625 14 6 C13.67 6.66 13.34 7.32 13 8 C8.38 6.02 3.76 4.04 -1 2 C-0.67 1.34 -0.34 0.68 0 0 Z " fill="#3D5DF4" transform="translate(99,315)"/>
<path d="M0 0 C3.10190545 4.65285818 4.33846504 9.41532676 4 15 C3.01 15 2.02 15 1 15 C-0.32 11.7 -1.64 8.4 -3 5 C-2.01 5 -1.02 5 0 5 C0 3.35 0 1.7 0 0 Z " fill="#4A68F5" transform="translate(169,142)"/>
<path d="M0 0 C0.33 0 0.66 0 1 0 C1.19672365 1.72814161 1.38196799 3.45759197 1.5625 5.1875 C1.66691406 6.15042969 1.77132813 7.11335937 1.87890625 8.10546875 C1.99758751 10.94233377 1.67765639 13.25423671 1 16 C0.01 15.34 -0.98 14.68 -2 14 C-1.85970581 11.8537974 -1.71261836 9.70803782 -1.5625 7.5625 C-1.48128906 6.36753906 -1.40007812 5.17257813 -1.31640625 3.94140625 C-1 1 -1 1 0 0 Z " fill="#4263F5" transform="translate(331,138)"/>
<path d="M0 0 C2.00993705 3.01490557 2.72623341 5.2149927 3.625 8.6875 C3.88539063 9.68136719 4.14578125 10.67523438 4.4140625 11.69921875 C4.60742188 12.45847656 4.80078125 13.21773437 5 14 C3.35 13.67 1.7 13.34 0 13 C-0.83796731 8.34462607 -1.0161692 4.62921525 0 0 Z " fill="#4765F6" transform="translate(324,114)"/>
<path d="M0 0 C10.55808656 3.07517084 10.55808656 3.07517084 15 5 C14.67 5.99 14.34 6.98 14 8 C13.34 7.67 12.68 7.34 12 7 C10.67203709 6.64587656 9.33783393 6.31478446 8 6 C5.80363152 5.48320742 4.02353598 5.01176799 2 4 C2 3.34 2 2.68 2 2 C1.34 2 0.68 2 0 2 C0 1.34 0 0.68 0 0 Z " fill="#4262F4" transform="translate(218,15)"/>
<path d="M0 0 C0.99 0 1.98 0 3 0 C2.53199289 4.05606165 2.12046792 7.46588679 0 11 C-0.33 10.34 -0.66 9.68 -1 9 C-1.66 9 -2.32 9 -3 9 C-2.01 6.03 -1.02 3.06 0 0 Z " fill="#4765F6" transform="translate(170,193)"/>
<path d="M0 0 C0.66 0 1.32 0 2 0 C1.67 3.96 1.34 7.92 1 12 C-0.65261288 8.69477423 -1.63201647 6.58783942 -2 3 C-1.34 2.01 -0.68 1.02 0 0 Z " fill="#4766F5" transform="translate(332,186)"/>
<path d="M0 0 C0.33 0 0.66 0 1 0 C1.35659503 3.20935531 1.29619066 4.58988985 -0.625 7.25 C-3.44059663 9.32465015 -5.55230934 9.68657358 -9 10 C-8.2575 9.278125 -7.515 8.55625 -6.75 7.8125 C-3.98986741 5.08271502 -3.98986741 5.08271502 -1.75 2.1875 C-1.1725 1.465625 -0.595 0.74375 0 0 Z " fill="#4966F5" transform="translate(166,202)"/>
<path d="M0 0 C4.0042343 3.49087093 5.62671065 5.64951939 6 11 C5.67 10.01 5.34 9.02 5 8 C1.99152582 6.77479736 1.99152582 6.77479736 -1 6 C-0.34 5.67 0.32 5.34 1 5 C0.67 3.35 0.34 1.7 0 0 Z " fill="#4464F6" transform="translate(258,160)"/>
<path d="M0 0 C0.763125 0.20625 1.52625 0.4125 2.3125 0.625 C1.9825 2.275 1.6525 3.925 1.3125 5.625 C-1.60267292 4.55098892 -3.46560176 3.84689824 -5.6875 1.625 C-2.6875 -0.375 -2.6875 -0.375 0 0 Z " fill="#3E5EF6" transform="translate(89.6875,306.375)"/>
<path d="M0 0 C2.31 0.33 4.62 0.66 7 1 C7.33 2.65 7.66 4.3 8 6 C5 6 5 6 3.61328125 4.6875 C2.40885417 3.125 1.20442708 1.5625 0 0 Z " fill="#4361F5" transform="translate(57,286)"/>
<path d="M0 0 C0.33 0.99 0.66 1.98 1 3 C-0.625 6.1875 -0.625 6.1875 -3 9 C-5.75 9.375 -5.75 9.375 -8 9 C-6.8553125 7.88625 -6.8553125 7.88625 -5.6875 6.75 C-3.5606298 4.5736677 -1.7440044 2.47832204 0 0 Z " fill="#4562F3" transform="translate(282,199)"/>
<path d="M0 0 C4.55015893 1.51671964 6.50057264 5.16891053 9 9 C8.01 9.495 8.01 9.495 7 10 C4.65941363 7.87219421 3.29299694 5.88437779 2 3 C1.01 3 0.02 3 -1 3 C-0.67 2.01 -0.34 1.02 0 0 Z " fill="#4462F6" transform="translate(292,63)"/>
<path d="M0 0 C0.66 0 1.32 0 2 0 C1.67 1.65 1.34 3.3 1 5 C1.66 5 2.32 5 3 5 C3 7.64 3 10.28 3 13 C2.67 13 2.34 13 2 13 C1.87625 12.030625 1.7525 11.06125 1.625 10.0625 C1.41875 9.051875 1.2125 8.04125 1 7 C0.34 6.67 -0.32 6.34 -1 6 C-1.042721 4.33388095 -1.04063832 2.66617115 -1 1 C-0.67 0.67 -0.34 0.34 0 0 Z " fill="#5170F6" transform="translate(52,137)"/>
<path d="M0 0 C2.31 0.66 4.62 1.32 7 2 C7 2.99 7 3.98 7 5 C4.36 4.34 1.72 3.68 -1 3 C-0.67 2.01 -0.34 1.02 0 0 Z " fill="#3F5EF6" transform="translate(118,322)"/>
<path d="M0 0 C3.4375 0.8125 3.4375 0.8125 7 2 C7.33 2.99 7.66 3.98 8 5 C4.17902761 4.46930939 1.93828597 3.50298434 -1 1 C-0.67 0.67 -0.34 0.34 0 0 Z " fill="#4B68F8" transform="translate(99,315)"/>
<path d="M0 0 C0 0.99 0 1.98 0 3 C-1.6796875 4.421875 -1.6796875 4.421875 -3.875 5.75 C-4.59429687 6.19859375 -5.31359375 6.6471875 -6.0546875 7.109375 C-6.69664062 7.40328125 -7.33859375 7.6971875 -8 8 C-8.66 7.67 -9.32 7.34 -10 7 C-6.7 4.69 -3.4 2.38 0 0 Z " fill="#E0E9FB" transform="translate(268,302)"/>
<path d="M0 0 C1.98 0.99 3.96 1.98 6 3 C5.67 3.66 5.34 4.32 5 5 C3.35 5 1.7 5 0 5 C-0.5625 3.0625 -0.5625 3.0625 -1 1 C-0.67 0.67 -0.34 0.34 0 0 Z " fill="#3F5FF1" transform="translate(122,208)"/>
<path d="M0 0 C1.32 0.33 2.64 0.66 4 1 C3.67 1.99 3.34 2.98 3 4 C4.32 4.66 5.64 5.32 7 6 C5.68 6.33 4.36 6.66 3 7 C0 2.25 0 2.25 0 0 Z " fill="#3F5FF6" transform="translate(48,274)"/>
<path d="M0 0 C0.33 0 0.66 0 1 0 C1.33 3.63 1.66 7.26 2 11 C0.68 10.34 -0.64 9.68 -2 9 C-1.34 6.03 -0.68 3.06 0 0 Z " fill="#5F7BF6" transform="translate(54,196)"/>
<path d="M0 0 C0.99 0.33 1.98 0.66 3 1 C1.68 2.65 0.36 4.3 -1 6 C-2.32 5.67 -3.64 5.34 -5 5 C-3.35 3.35 -1.7 1.7 0 0 Z " fill="#EAEEF8" transform="translate(218,144)"/>
<path d="M0 0 C3.82946843 1.45255699 5.12050295 3.42895561 7 7 C6.01 7 5.02 7 4 7 C2.02 3.535 2.02 3.535 0 0 Z " fill="#4663F5" transform="translate(37,262)"/>
<path d="M0 0 C-0.66 1.65 -1.32 3.3 -2 5 C-3.32 3.35 -4.64 1.7 -6 0 C-2.25 -1.125 -2.25 -1.125 0 0 Z " fill="#405EF5" transform="translate(88,187)"/>
<path d="M0 0 C3.3 0.33 6.6 0.66 10 1 C10 1.33 10 1.66 10 2 C6.7 2.66 3.4 3.32 0 4 C0 2.68 0 1.36 0 0 Z " fill="#617AF4" transform="translate(64,161)"/>
</svg>
