<svg width="250" height="250" viewBox="0 0 250 250" fill="none" xmlns="http://www.w3.org/2000/svg">
<path fill-rule="evenodd" clip-rule="evenodd" d="M104.68 75.3424C118.85 59.4222 142.315 54.752 161.606 63.9414C187.237 76.1521 196.587 107.257 182.633 131.251L151.241 185.168C149.486 188.181 146.6 190.379 143.214 191.28C139.829 192.181 136.222 191.711 133.186 189.974L171.192 124.685C181.316 107.271 174.544 84.6985 155.962 75.811C142.019 69.1429 124.974 72.474 114.674 83.9417C108.993 90.2371 105.803 98.365 105.696 106.818C105.59 115.271 108.574 123.476 114.096 129.91C115.088 131.065 116.156 132.154 117.292 133.169L95.1047 171.352C94.237 172.844 93.0818 174.153 91.7049 175.202C90.3281 176.252 88.7566 177.021 87.0802 177.468C85.4038 177.914 83.6553 178.028 81.9345 177.803C80.2138 177.578 78.5545 177.019 77.0513 176.157L101.138 134.704C97.6784 129.751 95.1938 124.192 93.8154 118.321L79.0553 143.774C77.3007 146.787 74.4139 148.985 71.0287 149.886C67.6435 150.787 64.0366 150.317 61 148.579L99.1698 82.9241C100.759 80.2279 102.604 77.6891 104.68 75.3424ZM148.735 96.2407C157.928 101.513 161.103 113.237 155.784 122.362L119.182 185.16C117.427 188.173 114.54 190.371 111.155 191.272C107.77 192.173 104.163 191.704 101.126 189.966L135.112 131.5C132.386 130.93 129.816 129.779 127.58 128.127C125.345 126.475 123.497 124.36 122.165 121.93C120.833 119.499 120.047 116.81 119.863 114.049C119.679 111.288 120.101 108.52 121.099 105.936C122.098 103.353 123.649 101.015 125.645 99.0843C127.642 97.1539 130.037 95.6768 132.664 94.7549C135.292 93.8331 138.089 93.4886 140.864 93.7451C143.639 94.0016 146.324 94.8531 148.735 96.2407ZM135.422 108.043C134.793 108.522 134.265 109.12 133.869 109.802H133.867C133.27 110.83 132.993 112.01 133.071 113.193C133.149 114.377 133.579 115.511 134.306 116.452C135.034 117.393 136.025 118.098 137.157 118.48C138.288 118.861 139.507 118.9 140.661 118.593C141.815 118.286 142.851 117.646 143.638 116.755C144.426 115.863 144.929 114.759 145.085 113.583C145.241 112.407 145.042 111.212 144.514 110.148C143.986 109.084 143.152 108.199 142.117 107.606C141.431 107.213 140.672 106.957 139.886 106.854C139.1 106.751 138.301 106.803 137.535 107.007C136.769 107.211 136.051 107.563 135.422 108.043Z" fill="#615EFF"/>
</svg>
