<svg id="svg" version="1.1" xmlns="http://www.w3.org/2000/svg" xmlns:xlink="http://www.w3.org/1999/xlink" width="400" height="400" viewBox="0, 0, 400,400"><g id="svgg"><path id="path0" d="M195.600 33.220 C 194.610 33.397,192.965 33.554,191.944 33.570 C 188.789 33.621,176.457 37.168,174.211 38.672 C 173.777 38.962,173.036 39.200,172.565 39.200 C 172.094 39.200,171.279 39.535,170.754 39.945 C 170.229 40.355,169.350 40.816,168.800 40.969 C 168.250 41.123,166.810 41.708,165.600 42.270 C 164.390 42.831,162.860 43.531,162.200 43.824 C 161.540 44.118,159.976 44.817,158.725 45.379 C 157.473 45.940,156.204 46.400,155.905 46.400 C 155.605 46.400,155.189 46.564,154.980 46.765 C 154.771 46.965,152.530 47.879,150.000 48.795 C 147.470 49.712,144.950 50.697,144.400 50.985 C 143.850 51.272,142.827 51.630,142.128 51.780 C 141.428 51.929,140.650 52.298,140.400 52.600 C 140.150 52.902,139.372 53.273,138.672 53.424 C 137.973 53.576,136.770 54.026,136.000 54.425 C 135.230 54.823,133.520 55.626,132.200 56.209 C 130.880 56.792,129.134 57.614,128.321 58.035 C 127.507 58.456,126.553 58.800,126.200 58.800 C 125.847 58.800,124.893 59.146,124.079 59.568 C 123.266 59.991,121.250 60.828,119.600 61.428 C 117.950 62.028,115.880 62.836,115.000 63.223 C 114.120 63.609,112.950 64.046,112.400 64.193 C 111.850 64.340,110.680 64.791,109.800 65.195 C 108.291 65.887,105.416 67.189,101.800 68.817 C 99.517 69.846,92.819 72.607,91.400 73.105 C 90.740 73.337,88.444 74.263,86.298 75.163 C 84.152 76.064,82.192 76.800,81.942 76.800 C 81.692 76.800,80.658 77.184,79.644 77.653 C 77.963 78.431,76.411 79.127,71.800 81.173 C 70.920 81.564,69.390 82.256,68.400 82.711 C 67.410 83.167,66.150 83.665,65.600 83.819 C 65.050 83.972,64.420 84.238,64.200 84.410 C 63.697 84.802,54.766 88.311,52.541 88.990 C 51.629 89.269,50.464 89.790,49.952 90.148 C 49.441 90.507,48.693 90.800,48.290 90.800 C 47.888 90.800,46.893 91.148,46.079 91.574 C 45.266 92.000,43.520 92.826,42.200 93.410 C 40.880 93.994,39.080 94.816,38.200 95.237 C 37.320 95.658,36.454 96.002,36.275 96.001 C 35.931 96.000,32.597 97.459,29.600 98.921 C 25.549 100.899,24.000 103.173,24.000 107.144 C 24.001 111.135,26.015 114.737,28.600 115.369 C 29.260 115.530,30.070 115.894,30.400 116.177 C 30.730 116.461,31.540 116.814,32.200 116.962 C 32.860 117.111,34.570 117.694,36.000 118.258 C 37.430 118.822,39.410 119.603,40.400 119.995 C 45.629 122.063,47.668 122.800,48.159 122.800 C 48.458 122.800,48.917 123.058,49.179 123.374 C 49.441 123.690,50.228 124.070,50.928 124.217 C 51.627 124.365,52.761 124.827,53.447 125.243 C 54.133 125.659,55.005 126.000,55.384 126.000 C 55.763 126.000,56.506 126.340,57.033 126.755 C 57.561 127.170,58.660 127.635,59.475 127.788 C 60.290 127.941,61.396 128.411,61.933 128.833 C 62.469 129.255,63.289 129.606,63.754 129.614 C 64.219 129.621,65.320 129.975,66.200 130.400 C 67.080 130.825,68.043 131.179,68.340 131.186 C 68.637 131.194,70.904 132.010,73.379 133.000 C 75.853 133.990,78.022 134.800,78.199 134.800 C 78.531 134.800,81.891 136.321,84.479 137.644 C 85.293 138.060,86.304 138.400,86.725 138.400 C 87.147 138.400,87.921 138.737,88.446 139.148 C 88.971 139.559,90.030 140.029,90.800 140.192 C 91.570 140.356,92.473 140.729,92.806 141.021 C 93.139 141.314,94.129 141.730,95.006 141.945 C 95.883 142.159,98.040 142.899,99.800 143.587 C 101.560 144.276,104.890 145.530,107.200 146.375 C 109.510 147.219,111.940 148.199,112.600 148.553 C 113.260 148.906,114.081 149.196,114.424 149.198 C 114.766 149.199,115.396 149.467,115.824 149.794 C 116.251 150.120,117.314 150.587,118.186 150.832 C 119.058 151.077,120.207 151.620,120.740 152.039 C 121.272 152.457,122.060 152.800,122.491 152.800 C 122.921 152.800,123.731 153.160,124.291 153.600 C 124.850 154.040,125.784 154.400,126.365 154.400 C 126.946 154.400,127.778 154.649,128.213 154.954 C 128.648 155.259,129.633 155.699,130.402 155.932 C 134.918 157.302,141.419 159.797,143.662 161.021 C 144.246 161.339,145.056 161.601,145.462 161.603 C 145.868 161.604,146.740 161.963,147.400 162.400 C 148.060 162.837,148.858 163.196,149.174 163.197 C 149.713 163.200,150.442 163.507,155.400 165.821 C 156.500 166.335,157.973 166.867,158.672 167.003 C 159.372 167.140,160.144 167.491,160.387 167.784 C 160.630 168.077,161.445 168.432,162.199 168.573 C 162.953 168.715,164.571 169.274,165.796 169.815 C 167.021 170.357,168.249 170.800,168.526 170.800 C 168.804 170.800,170.553 171.444,172.415 172.232 C 174.277 173.019,176.340 173.841,177.000 174.060 C 177.660 174.278,178.650 174.697,179.200 174.991 C 179.750 175.286,180.920 175.656,181.800 175.814 C 182.680 175.972,183.690 176.354,184.045 176.663 C 184.399 176.971,185.659 177.387,186.845 177.586 C 188.030 177.785,189.630 178.183,190.400 178.471 C 194.579 180.034,211.267 178.776,215.237 176.598 C 215.807 176.286,217.026 175.909,217.945 175.762 C 218.865 175.615,219.711 175.343,219.826 175.158 C 219.940 174.973,220.791 174.627,221.717 174.389 C 222.643 174.151,224.120 173.612,225.000 173.191 C 225.880 172.770,228.130 171.858,230.000 171.165 C 231.870 170.472,233.967 169.656,234.660 169.353 C 235.354 169.049,236.217 168.800,236.579 168.800 C 236.941 168.800,238.082 168.350,239.115 167.800 C 240.148 167.250,241.462 166.800,242.035 166.800 C 242.607 166.800,243.402 166.440,243.800 166.000 C 244.198 165.560,244.865 165.200,245.283 165.200 C 245.700 165.200,246.707 164.845,247.521 164.411 C 248.334 163.977,250.170 163.152,251.600 162.577 C 253.030 162.002,254.920 161.210,255.800 160.816 C 256.680 160.421,258.030 159.879,258.800 159.610 C 259.570 159.342,261.640 158.592,263.400 157.945 C 265.160 157.297,267.230 156.587,268.000 156.366 C 268.770 156.145,270.055 155.613,270.854 155.182 C 271.654 154.752,272.590 154.400,272.933 154.400 C 273.277 154.400,274.404 153.950,275.438 153.400 C 276.473 152.850,277.630 152.400,278.011 152.400 C 278.391 152.400,278.917 152.142,279.179 151.826 C 279.441 151.510,280.228 151.130,280.928 150.983 C 281.627 150.835,282.761 150.373,283.447 149.957 C 284.133 149.541,284.943 149.199,285.247 149.198 C 285.551 149.196,286.337 148.915,286.993 148.573 C 288.289 147.897,292.513 146.220,293.800 145.870 C 294.240 145.751,296.490 144.905,298.800 143.990 C 301.110 143.075,303.540 142.190,304.200 142.024 C 304.860 141.857,306.117 141.333,306.994 140.860 C 307.871 140.387,308.861 139.999,309.194 139.997 C 309.527 139.996,310.340 139.637,311.000 139.200 C 311.660 138.763,312.532 138.404,312.937 138.403 C 313.342 138.401,314.131 138.040,314.691 137.600 C 315.250 137.160,316.089 136.799,316.554 136.799 C 317.019 136.798,317.989 136.438,318.710 135.999 C 319.430 135.559,320.228 135.200,320.483 135.200 C 320.739 135.200,321.679 134.850,322.574 134.423 C 324.293 133.602,326.152 132.897,330.400 131.454 C 331.830 130.968,333.360 130.376,333.800 130.138 C 334.240 129.900,335.257 129.587,336.060 129.442 C 336.863 129.297,337.740 128.914,338.009 128.589 C 338.278 128.265,338.809 128.000,339.189 128.000 C 339.570 128.000,340.727 127.550,341.762 127.000 C 342.796 126.450,343.858 125.994,344.121 125.987 C 344.385 125.981,345.500 125.532,346.600 124.991 C 347.700 124.450,348.893 124.006,349.251 124.004 C 349.609 124.002,350.126 123.730,350.400 123.400 C 350.674 123.070,351.198 122.800,351.564 122.800 C 351.931 122.800,352.937 122.440,353.800 122.000 C 354.663 121.560,355.529 121.200,355.724 121.200 C 355.919 121.200,358.266 120.325,360.939 119.256 C 363.613 118.187,366.400 117.198,367.132 117.059 C 367.865 116.921,368.925 116.445,369.486 116.004 C 370.048 115.562,370.716 115.200,370.971 115.200 C 372.321 115.200,374.745 111.786,375.199 109.247 C 376.295 103.103,374.105 100.304,365.616 97.000 C 363.535 96.190,361.470 95.274,361.027 94.964 C 360.584 94.654,359.926 94.400,359.565 94.400 C 359.204 94.400,358.450 94.040,357.891 93.600 C 357.331 93.160,356.632 92.798,356.337 92.796 C 356.042 92.794,354.900 92.350,353.800 91.809 C 352.700 91.268,351.525 90.819,351.189 90.813 C 350.853 90.806,350.182 90.523,349.698 90.184 C 349.214 89.844,348.049 89.319,347.109 89.017 C 343.632 87.897,336.690 85.166,335.000 84.253 C 334.340 83.897,333.551 83.604,333.247 83.602 C 332.943 83.601,332.133 83.259,331.447 82.843 C 330.761 82.427,329.627 81.965,328.928 81.817 C 328.228 81.670,327.450 81.302,327.200 81.000 C 326.950 80.698,326.172 80.329,325.472 80.179 C 324.773 80.029,323.878 79.568,323.484 79.153 C 323.091 78.739,322.276 78.400,321.673 78.400 C 321.071 78.400,320.182 78.123,319.698 77.784 C 319.214 77.444,318.049 76.912,317.109 76.601 C 314.788 75.832,310.548 74.258,308.600 73.443 C 307.720 73.074,306.100 72.396,305.000 71.935 C 301.641 70.529,298.675 69.188,297.121 68.374 C 296.307 67.948,295.300 67.600,294.883 67.600 C 294.465 67.600,293.798 67.240,293.400 66.800 C 293.002 66.360,292.230 66.000,291.685 66.000 C 291.140 66.000,290.133 65.661,289.447 65.246 C 288.761 64.831,287.750 64.368,287.200 64.216 C 286.207 63.944,284.351 63.234,278.200 60.776 C 276.440 60.073,274.346 59.258,273.547 58.967 C 272.028 58.412,269.626 57.295,267.121 55.978 C 266.307 55.550,265.346 55.200,264.984 55.200 C 264.622 55.200,263.869 54.840,263.309 54.400 C 262.750 53.960,261.991 53.600,261.623 53.600 C 261.254 53.600,260.604 53.333,260.176 53.006 C 259.749 52.680,258.680 52.222,257.800 51.988 C 256.920 51.754,255.660 51.303,255.000 50.986 C 254.340 50.669,252.090 49.767,250.000 48.982 C 247.910 48.197,245.633 47.295,244.940 46.977 C 244.246 46.660,243.526 46.394,243.340 46.387 C 243.153 46.381,242.100 45.932,241.000 45.391 C 239.900 44.850,238.758 44.406,238.463 44.404 C 238.168 44.402,237.469 44.040,236.909 43.600 C 236.350 43.160,235.488 42.800,234.995 42.800 C 234.502 42.800,233.875 42.531,233.602 42.203 C 233.330 41.874,232.363 41.408,231.453 41.166 C 230.544 40.924,229.530 40.492,229.200 40.207 C 228.870 39.922,227.970 39.558,227.200 39.398 C 226.430 39.238,225.620 38.966,225.400 38.794 C 221.330 35.600,202.264 32.035,195.600 33.220 " stroke="none" fill="#fcbc05" fill-rule="evenodd"></path><path id="path1" d="M387.910 133.824 C 387.689 134.045,386.983 134.310,378.000 137.545 C 375.470 138.456,372.950 139.450,372.400 139.754 C 371.850 140.059,370.770 140.439,370.000 140.600 C 369.230 140.761,368.420 141.036,368.200 141.211 C 367.980 141.386,366.810 141.921,365.600 142.400 C 364.390 142.879,362.500 143.632,361.400 144.073 C 360.300 144.515,358.320 145.280,357.000 145.774 C 346.174 149.825,337.940 152.979,336.600 153.588 C 335.720 153.989,334.190 154.581,333.200 154.905 C 331.613 155.424,326.940 157.250,316.800 161.312 C 315.150 161.973,312.450 163.007,310.800 163.610 C 309.150 164.212,306.810 165.100,305.600 165.581 C 304.390 166.062,302.500 166.787,301.400 167.191 C 296.723 168.908,295.780 169.282,294.816 169.799 C 294.257 170.099,293.260 170.524,292.600 170.745 C 291.940 170.965,289.240 171.986,286.600 173.012 C 283.960 174.039,280.630 175.301,279.200 175.817 C 275.832 177.034,271.962 178.499,269.200 179.604 C 267.990 180.088,266.280 180.745,265.400 181.065 C 262.252 182.207,258.593 183.695,258.200 183.993 C 257.980 184.159,257.108 184.519,256.261 184.792 C 255.415 185.064,254.245 185.537,253.661 185.841 C 253.078 186.146,252.420 186.396,252.199 186.398 C 251.978 186.399,249.908 187.139,247.599 188.043 C 245.290 188.947,241.609 190.312,239.419 191.077 C 237.230 191.842,235.075 192.722,234.630 193.034 C 234.186 193.345,233.454 193.600,233.005 193.600 C 232.556 193.600,231.561 193.935,230.794 194.344 C 230.027 194.753,228.950 195.222,228.400 195.385 C 227.850 195.549,226.680 196.006,225.800 196.401 C 224.920 196.796,223.030 197.609,221.600 198.208 C 217.259 200.026,215.642 201.203,214.469 203.400 L 213.400 205.400 213.290 281.800 C 213.169 365.960,213.008 360.163,215.552 362.945 C 218.762 366.455,222.113 367.035,227.800 365.065 C 231.507 363.781,238.676 361.029,241.000 359.998 C 241.880 359.608,243.272 359.075,244.094 358.815 C 244.916 358.555,245.692 358.175,245.818 357.971 C 245.944 357.767,246.340 357.600,246.697 357.600 C 247.055 357.600,248.079 357.264,248.974 356.854 C 250.499 356.155,253.917 354.873,264.000 351.219 C 266.310 350.382,268.830 349.422,269.600 349.086 C 273.953 347.185,275.962 346.400,276.470 346.400 C 276.784 346.400,277.211 346.235,277.420 346.034 C 277.629 345.833,279.510 345.016,281.600 344.219 C 283.690 343.421,285.760 342.602,286.200 342.398 C 287.108 341.977,292.120 340.199,294.756 339.362 C 295.722 339.055,296.712 338.642,296.956 338.444 C 297.200 338.245,298.030 337.894,298.800 337.663 C 301.624 336.817,305.739 335.221,306.144 334.816 C 306.373 334.587,306.816 334.400,307.130 334.400 C 307.443 334.400,308.712 333.961,309.950 333.425 C 312.569 332.290,324.038 327.811,328.400 326.219 C 330.050 325.617,332.170 324.781,333.111 324.362 C 334.052 323.943,335.044 323.600,335.317 323.600 C 335.589 323.600,336.439 323.265,337.206 322.856 C 337.973 322.447,339.050 321.980,339.600 321.820 C 340.865 321.450,345.420 319.716,347.000 319.002 C 349.470 317.886,355.093 315.696,357.748 314.815 C 359.259 314.313,360.969 313.656,361.548 313.354 C 362.127 313.052,362.835 312.804,363.122 312.802 C 363.409 312.801,364.399 312.472,365.322 312.070 C 366.245 311.669,368.350 310.835,370.000 310.217 C 371.650 309.599,373.720 308.774,374.600 308.383 C 377.483 307.103,387.940 303.060,389.600 302.582 C 393.374 301.498,397.386 298.585,398.513 296.111 C 398.742 295.610,399.170 295.200,399.464 295.200 C 399.910 295.200,400.000 282.211,400.000 217.800 C 400.000 154.586,399.905 140.400,399.480 140.400 C 399.195 140.400,398.736 139.778,398.461 139.018 C 397.345 135.933,389.609 132.124,387.910 133.824 " stroke="none" fill="#25b4fc" fill-rule="evenodd"></path><path id="path2" d="M9.600 134.807 C 6.284 135.301,3.301 137.413,1.838 140.300 C 1.476 141.015,0.914 141.600,0.590 141.600 C 0.072 141.600,0.000 150.448,0.000 213.800 C 0.000 277.883,0.068 286.000,0.603 286.000 C 0.935 286.000,1.484 286.675,1.823 287.500 C 2.478 289.093,3.874 290.250,6.800 291.625 C 10.446 293.339,11.489 293.165,19.000 289.593 C 21.200 288.547,24.890 286.837,27.200 285.793 C 31.785 283.720,39.046 280.200,40.000 279.586 C 40.330 279.373,41.050 279.020,41.600 278.801 C 42.150 278.581,42.870 278.232,43.200 278.024 C 43.755 277.675,46.258 276.491,53.400 273.201 C 56.570 271.741,58.761 270.745,60.800 269.838 C 61.570 269.496,62.470 269.062,62.800 268.873 C 65.769 267.173,80.065 260.253,82.400 259.385 C 84.170 258.727,85.384 258.162,88.946 256.339 C 97.647 251.885,104.937 248.400,105.552 248.400 C 105.745 248.400,106.117 248.142,106.379 247.826 C 106.641 247.510,107.428 247.127,108.128 246.976 C 108.827 246.824,110.030 246.377,110.800 245.983 C 111.570 245.589,112.650 245.063,113.200 244.814 C 114.584 244.187,116.482 243.229,117.200 242.796 C 118.593 241.954,122.555 240.000,122.868 240.000 C 123.055 240.000,125.641 238.830,128.615 237.400 C 131.589 235.970,134.119 234.800,134.236 234.800 C 134.616 234.800,142.944 230.849,144.400 229.978 C 144.730 229.781,145.630 229.345,146.400 229.010 C 147.170 228.674,148.754 227.877,149.919 227.238 C 151.084 226.599,154.324 225.036,157.119 223.766 C 159.914 222.496,162.560 221.241,163.000 220.976 C 163.440 220.712,164.339 220.369,164.998 220.215 C 165.657 220.062,166.392 219.772,166.633 219.573 C 166.873 219.373,168.476 218.487,170.194 217.603 C 179.714 212.706,182.245 205.110,176.081 199.931 C 174.688 198.760,169.247 196.101,166.800 195.394 C 166.250 195.235,165.530 194.881,165.200 194.606 C 164.870 194.332,164.060 193.983,163.400 193.831 C 162.324 193.582,158.295 192.117,156.200 191.212 C 155.760 191.022,153.600 190.201,151.400 189.388 C 149.200 188.575,146.950 187.681,146.400 187.401 C 145.850 187.121,144.827 186.770,144.128 186.620 C 143.428 186.471,142.641 186.090,142.379 185.774 C 142.117 185.458,141.632 185.200,141.301 185.200 C 140.636 185.200,136.626 183.575,134.321 182.372 C 133.507 181.947,132.600 181.600,132.305 181.600 C 132.010 181.600,131.056 181.236,130.185 180.792 C 129.313 180.347,128.060 179.816,127.400 179.610 C 125.676 179.075,120.173 177.046,117.600 175.998 C 116.390 175.505,114.500 174.776,113.400 174.379 C 112.300 173.982,110.860 173.375,110.200 173.031 C 109.540 172.687,108.840 172.404,108.644 172.402 C 108.304 172.400,107.040 171.846,102.594 169.747 C 101.491 169.226,100.365 168.800,100.093 168.800 C 99.820 168.800,98.925 168.440,98.104 168.000 C 97.284 167.560,96.366 167.200,96.066 167.200 C 95.766 167.200,94.954 166.938,94.260 166.618 C 93.567 166.299,91.200 165.381,89.000 164.580 C 84.801 163.050,80.672 161.464,78.619 160.592 C 77.948 160.307,76.230 159.590,74.800 158.997 C 73.370 158.404,71.468 157.577,70.574 157.160 C 69.679 156.742,68.666 156.400,68.323 156.400 C 67.979 156.400,67.474 156.130,67.200 155.800 C 66.926 155.470,66.530 155.200,66.319 155.200 C 66.109 155.200,64.826 154.777,63.468 154.260 C 53.094 150.309,50.064 149.200,49.642 149.200 C 49.376 149.200,48.493 148.853,47.679 148.428 C 46.866 148.003,45.030 147.188,43.600 146.617 C 42.170 146.045,40.334 145.223,39.521 144.789 C 38.707 144.355,37.696 144.000,37.275 144.000 C 36.853 144.000,36.079 143.663,35.554 143.252 C 35.029 142.841,33.970 142.370,33.200 142.206 C 32.430 142.042,31.620 141.772,31.400 141.607 C 31.180 141.441,30.010 140.988,28.800 140.600 C 27.590 140.212,26.420 139.768,26.200 139.615 C 25.980 139.461,24.630 138.924,23.200 138.421 C 21.770 137.918,19.070 136.921,17.200 136.207 C 13.168 134.666,11.995 134.450,9.600 134.807 " stroke="none" fill="#d72e43" fill-rule="evenodd"></path><path id="path3" d="M0.000 70.000 C 0.000 114.698,0.139 140.000,0.386 140.000 C 0.598 140.000,0.979 139.595,1.233 139.100 C 1.790 138.011,4.831 134.800,5.305 134.800 C 5.491 134.800,6.467 134.425,7.473 133.967 C 9.738 132.935,13.134 132.828,14.447 133.748 C 14.959 134.106,15.660 134.400,16.004 134.400 C 16.349 134.400,17.344 134.764,18.215 135.210 C 19.087 135.655,20.520 136.198,21.400 136.416 C 22.894 136.787,24.612 137.509,28.000 139.193 C 28.770 139.576,30.057 140.009,30.860 140.155 C 31.663 140.301,32.540 140.686,32.809 141.011 C 33.078 141.335,33.626 141.600,34.028 141.600 C 34.429 141.600,35.604 142.050,36.638 142.600 C 37.673 143.150,38.862 143.600,39.280 143.600 C 39.699 143.600,40.707 143.955,41.521 144.389 C 42.851 145.098,45.153 146.000,52.000 148.496 C 53.210 148.938,54.920 149.618,55.800 150.008 C 56.680 150.398,57.850 150.850,58.400 151.012 C 58.950 151.175,59.755 151.554,60.189 151.854 C 60.623 152.154,61.364 152.400,61.835 152.400 C 62.306 152.400,63.121 152.737,63.646 153.148 C 64.171 153.559,65.230 154.029,66.000 154.192 C 66.770 154.356,67.670 154.725,68.000 155.014 C 68.330 155.303,69.450 155.753,70.488 156.014 C 71.526 156.275,72.583 156.739,72.837 157.044 C 73.090 157.350,73.792 157.600,74.395 157.600 C 74.998 157.600,75.921 157.932,76.446 158.338 C 76.971 158.744,78.016 159.196,78.770 159.342 C 79.523 159.488,81.087 160.056,82.245 160.604 C 83.403 161.152,84.677 161.601,85.075 161.603 C 85.474 161.604,86.340 161.963,87.000 162.400 C 87.660 162.837,88.539 163.196,88.953 163.197 C 89.367 163.199,90.267 163.541,90.953 163.957 C 91.639 164.373,92.773 164.835,93.472 164.983 C 94.172 165.130,94.955 165.505,95.213 165.815 C 95.470 166.125,96.337 166.490,97.140 166.627 C 97.943 166.763,99.088 167.218,99.684 167.637 C 100.280 168.057,101.225 168.400,101.784 168.400 C 102.343 168.400,103.132 168.732,103.538 169.138 C 103.943 169.543,104.924 169.980,105.717 170.109 C 106.510 170.238,107.753 170.612,108.480 170.940 C 109.206 171.268,111.510 172.190,113.600 172.988 C 115.690 173.786,117.878 174.701,118.462 175.020 C 119.046 175.339,119.768 175.600,120.068 175.600 C 120.367 175.600,121.284 175.960,122.104 176.400 C 122.925 176.840,123.823 177.202,124.099 177.204 C 124.374 177.206,125.500 177.650,126.600 178.191 C 127.700 178.732,128.891 179.181,129.246 179.187 C 129.601 179.194,130.321 179.534,130.846 179.942 C 131.371 180.350,132.457 180.805,133.260 180.953 C 134.063 181.100,134.924 181.468,135.174 181.769 C 135.424 182.070,136.272 182.437,137.058 182.584 C 137.844 182.732,139.232 183.183,140.143 183.588 C 141.055 183.992,143.150 184.822,144.800 185.432 C 146.450 186.042,148.830 186.960,150.088 187.471 C 151.346 187.982,152.629 188.400,152.939 188.400 C 153.249 188.400,153.717 188.658,153.979 188.974 C 154.241 189.290,155.028 189.670,155.728 189.817 C 156.427 189.965,157.561 190.427,158.247 190.843 C 158.933 191.259,159.833 191.601,160.247 191.603 C 160.661 191.604,161.540 191.963,162.200 192.400 C 162.860 192.837,163.760 193.197,164.200 193.199 C 164.640 193.202,165.720 193.648,166.600 194.190 C 167.480 194.732,168.516 195.181,168.901 195.188 C 169.287 195.194,170.275 195.560,171.096 196.000 C 171.916 196.440,172.890 196.800,173.258 196.800 C 174.147 196.800,177.932 199.815,178.436 200.924 C 178.655 201.406,179.094 202.250,179.411 202.800 C 181.219 205.933,179.731 212.547,176.666 214.999 C 175.970 215.556,175.171 216.200,174.891 216.430 C 174.612 216.660,173.802 217.046,173.091 217.288 C 172.381 217.530,171.371 218.059,170.846 218.464 C 170.321 218.869,169.461 219.200,168.934 219.200 C 168.406 219.200,167.875 219.461,167.752 219.781 C 167.630 220.100,166.870 220.573,166.065 220.831 C 165.259 221.090,164.330 221.534,164.000 221.819 C 163.670 222.104,162.912 222.459,162.316 222.608 C 161.720 222.757,161.023 223.131,160.767 223.439 C 160.511 223.748,160.099 224.000,159.851 224.001 C 159.603 224.001,157.544 224.901,155.275 226.001 C 153.007 227.100,150.914 228.000,150.624 228.000 C 150.335 228.000,149.882 228.261,149.617 228.580 C 149.352 228.898,148.475 229.371,147.668 229.630 C 146.861 229.889,145.930 230.326,145.600 230.600 C 145.270 230.874,144.325 231.316,143.500 231.580 C 142.675 231.845,142.000 232.221,142.000 232.416 C 142.000 232.610,141.301 232.957,140.447 233.187 C 139.592 233.418,138.670 233.874,138.398 234.203 C 138.125 234.531,137.713 234.800,137.483 234.800 C 137.058 234.800,132.305 236.940,131.200 237.628 C 130.870 237.834,130.152 238.193,129.604 238.428 C 129.056 238.662,127.129 239.556,125.322 240.415 C 123.514 241.273,121.532 242.099,120.918 242.249 C 120.303 242.399,119.371 242.855,118.846 243.261 C 118.321 243.667,117.578 244.000,117.195 244.000 C 116.812 244.000,116.282 244.261,116.017 244.580 C 115.752 244.898,114.875 245.374,114.068 245.638 C 113.261 245.901,112.171 246.450,111.646 246.858 C 111.121 247.266,110.491 247.595,110.246 247.589 C 110.001 247.583,108.180 248.383,106.200 249.366 C 99.562 252.662,94.973 254.800,94.539 254.800 C 94.302 254.800,93.679 255.133,93.154 255.539 C 92.629 255.945,91.683 256.404,91.052 256.559 C 90.420 256.713,89.643 257.100,89.324 257.419 C 89.005 257.738,88.262 258.113,87.672 258.253 C 87.082 258.393,86.330 258.724,86.000 258.988 C 85.670 259.252,84.770 259.714,84.000 260.014 C 83.230 260.315,81.790 261.027,80.800 261.597 C 78.745 262.780,75.922 264.131,71.600 265.999 C 68.377 267.392,61.384 270.671,60.400 271.252 C 60.070 271.447,59.395 271.785,58.900 272.003 C 58.405 272.221,57.595 272.579,57.100 272.797 C 56.605 273.015,55.930 273.356,55.600 273.554 C 55.270 273.752,54.550 274.112,54.000 274.354 C 53.450 274.596,52.730 274.967,52.400 275.178 C 52.070 275.388,50.000 276.401,47.800 277.427 C 45.600 278.454,42.706 279.812,41.368 280.447 C 40.031 281.081,38.655 281.600,38.311 281.600 C 37.967 281.600,37.586 281.860,37.464 282.178 C 37.342 282.496,36.614 282.874,35.847 283.018 C 35.080 283.161,34.143 283.621,33.764 284.040 C 33.386 284.458,32.851 284.800,32.575 284.800 C 32.113 284.800,28.602 286.396,27.200 287.243 C 26.870 287.443,26.150 287.806,25.600 288.052 C 25.050 288.297,23.697 288.925,22.594 289.449 C 21.491 289.972,20.439 290.400,20.256 290.400 C 20.073 290.400,19.446 290.736,18.862 291.148 C 18.278 291.559,17.350 292.025,16.800 292.185 C 16.250 292.344,15.020 292.841,14.066 293.289 C 10.972 294.744,4.218 293.277,3.328 290.957 C 3.217 290.667,2.810 290.330,2.424 290.208 C 2.037 290.085,1.518 289.538,1.269 288.992 C 0.050 286.316,0.000 288.477,0.000 344.000 L 0.000 400.000 200.000 400.000 L 400.000 400.000 400.000 347.600 C 400.000 293.400,399.985 292.881,398.513 296.111 C 397.386 298.585,393.374 301.498,389.600 302.582 C 387.940 303.060,377.483 307.103,374.600 308.383 C 373.720 308.774,371.650 309.599,370.000 310.217 C 368.350 310.835,366.245 311.669,365.322 312.070 C 364.399 312.472,363.409 312.801,363.122 312.802 C 362.835 312.804,362.127 313.052,361.548 313.354 C 360.969 313.656,359.259 314.313,357.748 314.815 C 355.093 315.696,349.470 317.886,347.000 319.002 C 345.420 319.716,340.865 321.450,339.600 321.820 C 339.050 321.980,337.973 322.447,337.206 322.856 C 336.439 323.265,335.589 323.600,335.317 323.600 C 335.044 323.600,334.052 323.943,333.111 324.362 C 332.170 324.781,330.050 325.617,328.400 326.219 C 324.038 327.811,312.569 332.290,309.950 333.425 C 308.712 333.961,307.443 334.400,307.130 334.400 C 306.816 334.400,306.373 334.587,306.144 334.816 C 305.739 335.221,301.624 336.817,298.800 337.663 C 298.030 337.894,297.200 338.245,296.956 338.444 C 296.712 338.642,295.722 339.055,294.756 339.362 C 292.120 340.199,287.108 341.977,286.200 342.398 C 285.760 342.602,283.690 343.421,281.600 344.219 C 279.510 345.016,277.629 345.833,277.420 346.034 C 277.211 346.235,276.784 346.400,276.470 346.400 C 275.962 346.400,273.953 347.185,269.600 349.086 C 268.830 349.422,266.310 350.382,264.000 351.219 C 253.917 354.873,250.499 356.155,248.974 356.854 C 248.079 357.264,247.055 357.600,246.697 357.600 C 246.340 357.600,245.944 357.767,245.818 357.971 C 245.692 358.175,244.916 358.555,244.094 358.815 C 243.272 359.075,241.880 359.608,241.000 359.998 C 225.105 367.049,219.861 367.656,215.552 362.945 C 213.008 360.163,213.169 365.960,213.290 281.800 L 213.400 205.400 214.469 203.400 C 215.642 201.203,217.259 200.026,221.600 198.208 C 223.030 197.609,224.920 196.796,225.800 196.401 C 226.680 196.006,227.850 195.549,228.400 195.385 C 228.950 195.222,230.027 194.753,230.794 194.344 C 231.561 193.935,232.556 193.600,233.005 193.600 C 233.454 193.600,234.186 193.345,234.630 193.034 C 235.075 192.722,237.230 191.842,239.419 191.077 C 241.609 190.312,245.290 188.947,247.599 188.043 C 249.908 187.139,251.978 186.399,252.199 186.398 C 252.420 186.396,253.078 186.146,253.661 185.841 C 254.245 185.537,255.415 185.064,256.261 184.792 C 257.108 184.519,257.980 184.159,258.200 183.993 C 258.593 183.695,262.252 182.207,265.400 181.065 C 266.280 180.745,267.990 180.088,269.200 179.604 C 271.962 178.499,275.832 177.034,279.200 175.817 C 280.630 175.301,283.960 174.039,286.600 173.012 C 289.240 171.986,291.940 170.965,292.600 170.745 C 293.260 170.524,294.257 170.099,294.816 169.799 C 295.780 169.282,296.723 168.908,301.400 167.191 C 302.500 166.787,304.390 166.062,305.600 165.581 C 306.810 165.100,309.150 164.212,310.800 163.610 C 312.450 163.007,315.150 161.973,316.800 161.312 C 326.940 157.250,331.613 155.424,333.200 154.905 C 334.190 154.581,335.720 153.989,336.600 153.588 C 337.940 152.979,346.174 149.825,357.000 145.774 C 358.320 145.280,360.300 144.515,361.400 144.073 C 362.500 143.632,364.390 142.879,365.600 142.400 C 366.810 141.921,367.980 141.386,368.200 141.211 C 368.420 141.036,369.230 140.761,370.000 140.600 C 370.770 140.439,371.850 140.059,372.400 139.754 C 372.950 139.450,375.470 138.456,378.000 137.545 C 380.530 136.634,383.770 135.439,385.200 134.890 C 390.880 132.711,396.853 134.570,398.461 139.018 C 399.998 143.269,400.000 143.180,400.000 70.200 L 400.000 0.000 200.000 0.000 L 0.000 0.000 0.000 70.000 M207.800 32.033 C 209.560 32.239,211.884 32.676,212.964 33.004 C 214.044 33.332,215.306 33.600,215.769 33.600 C 216.233 33.600,217.239 33.936,218.006 34.347 C 218.773 34.757,219.973 35.219,220.672 35.372 C 221.372 35.526,222.159 35.910,222.421 36.226 C 222.683 36.542,223.191 36.802,223.549 36.804 C 223.907 36.806,225.100 37.250,226.200 37.791 C 227.300 38.332,228.449 38.781,228.753 38.787 C 229.057 38.794,229.867 39.141,230.553 39.557 C 231.239 39.973,232.373 40.435,233.072 40.583 C 233.772 40.730,234.559 41.110,234.821 41.426 C 235.083 41.742,235.540 42.000,235.836 42.000 C 236.445 42.000,246.869 46.112,248.400 46.956 C 248.950 47.259,249.973 47.630,250.672 47.780 C 251.372 47.929,252.159 48.310,252.421 48.626 C 252.683 48.942,253.191 49.202,253.549 49.204 C 253.907 49.206,255.100 49.650,256.200 50.191 C 257.300 50.732,258.434 51.181,258.721 51.187 C 259.007 51.194,259.907 51.536,260.721 51.948 C 263.351 53.277,265.766 54.323,267.294 54.796 C 268.116 55.050,268.892 55.425,269.018 55.629 C 269.144 55.833,269.516 56.000,269.846 56.000 C 270.175 56.000,271.199 56.341,272.122 56.757 C 275.749 58.392,280.837 60.400,281.356 60.400 C 281.656 60.400,282.117 60.658,282.379 60.974 C 282.641 61.290,283.428 61.674,284.128 61.828 C 284.827 61.981,286.027 62.443,286.794 62.853 C 287.561 63.264,288.425 63.600,288.715 63.600 C 289.005 63.600,289.907 63.940,290.721 64.356 C 293.739 65.898,296.695 67.200,297.178 67.200 C 297.452 67.200,298.154 67.462,298.738 67.781 C 299.322 68.101,301.510 69.012,303.600 69.806 C 305.690 70.600,308.120 71.579,309.000 71.981 C 309.880 72.384,311.430 73.093,312.444 73.557 C 313.458 74.020,314.538 74.401,314.844 74.403 C 315.150 74.404,315.940 74.763,316.600 75.200 C 317.260 75.637,318.050 75.996,318.356 75.997 C 318.662 75.999,319.652 76.347,320.556 76.772 C 324.171 78.469,326.767 79.601,327.075 79.614 C 327.254 79.621,328.120 79.975,329.000 80.400 C 329.880 80.825,330.760 81.179,330.956 81.186 C 331.152 81.194,332.052 81.546,332.956 81.969 C 333.860 82.391,336.242 83.380,338.249 84.166 C 340.257 84.952,342.417 85.865,343.049 86.195 C 343.682 86.525,344.481 86.796,344.824 86.798 C 345.166 86.799,345.796 87.067,346.224 87.394 C 346.651 87.720,347.720 88.187,348.600 88.431 C 349.480 88.675,350.470 89.104,350.800 89.383 C 351.130 89.663,351.940 90.014,352.600 90.163 C 353.725 90.417,355.504 91.171,358.800 92.794 C 359.570 93.173,360.740 93.614,361.400 93.773 C 362.060 93.932,362.870 94.287,363.200 94.562 C 363.530 94.837,364.559 95.278,365.486 95.543 C 368.861 96.505,373.483 99.030,373.828 100.100 C 373.952 100.485,374.217 100.800,374.415 100.800 C 376.065 100.800,377.518 108.817,376.187 110.576 C 375.864 111.004,375.600 111.657,375.600 112.029 C 375.600 112.809,372.552 116.000,371.807 116.000 C 371.532 116.000,370.864 116.349,370.322 116.775 C 369.780 117.202,368.811 117.678,368.168 117.835 C 367.526 117.991,366.645 118.363,366.211 118.660 C 365.777 118.957,365.144 119.200,364.805 119.200 C 364.466 119.200,363.561 119.534,362.794 119.941 C 362.027 120.349,360.680 120.912,359.800 121.193 C 358.920 121.474,358.020 121.842,357.800 122.011 C 357.580 122.180,356.500 122.593,355.400 122.929 C 353.375 123.547,350.341 124.734,347.374 126.068 C 346.479 126.471,345.376 126.800,344.923 126.800 C 344.469 126.800,343.883 127.058,343.621 127.374 C 343.359 127.690,342.572 128.070,341.872 128.217 C 341.173 128.365,340.039 128.827,339.353 129.243 C 338.667 129.659,337.857 130.002,337.553 130.004 C 337.249 130.006,336.100 130.450,335.000 130.991 C 333.900 131.532,332.774 131.981,332.499 131.987 C 332.223 131.994,331.325 132.360,330.504 132.800 C 329.684 133.240,328.806 133.600,328.554 133.600 C 328.303 133.600,327.130 134.023,325.948 134.539 C 324.767 135.055,322.450 135.980,320.800 136.594 C 319.150 137.207,317.037 138.045,316.104 138.455 C 315.172 138.865,314.179 139.200,313.898 139.200 C 313.618 139.200,312.761 139.536,311.994 139.947 C 311.227 140.357,310.027 140.819,309.328 140.972 C 308.628 141.126,307.845 141.505,307.587 141.815 C 307.330 142.125,306.463 142.496,305.660 142.640 C 304.857 142.784,303.930 143.132,303.600 143.413 C 303.270 143.695,302.190 144.140,301.200 144.402 C 300.210 144.664,299.220 145.020,299.000 145.194 C 298.780 145.368,297.340 145.996,295.800 146.591 C 294.260 147.186,291.708 148.196,290.128 148.836 C 288.548 149.476,286.919 150.000,286.508 150.000 C 286.097 150.000,285.576 150.184,285.352 150.408 C 284.945 150.815,282.221 151.937,278.800 153.106 C 277.810 153.445,276.727 153.954,276.394 154.238 C 276.061 154.521,275.045 154.921,274.136 155.125 C 273.227 155.329,272.065 155.790,271.553 156.148 C 271.041 156.507,270.344 156.800,270.005 156.800 C 269.666 156.800,268.716 157.160,267.896 157.600 C 267.075 158.040,266.197 158.400,265.945 158.400 C 265.694 158.400,264.748 158.741,263.844 159.157 C 261.883 160.060,252.223 163.810,250.800 164.220 C 250.250 164.378,249.445 164.754,249.011 165.054 C 248.577 165.354,247.946 165.600,247.608 165.600 C 247.270 165.600,246.148 166.050,245.115 166.600 C 244.082 167.150,242.913 167.601,242.518 167.603 C 242.123 167.604,241.260 167.963,240.600 168.400 C 239.940 168.837,239.127 169.196,238.794 169.197 C 238.461 169.199,237.516 169.560,236.696 170.000 C 235.875 170.440,234.867 170.800,234.455 170.800 C 234.044 170.800,233.250 171.160,232.691 171.600 C 232.131 172.040,231.399 172.400,231.063 172.400 C 230.727 172.400,229.406 172.840,228.126 173.378 C 223.304 175.405,220.371 176.454,218.910 176.678 C 218.079 176.804,217.130 177.134,216.800 177.411 C 216.470 177.687,215.390 178.044,214.400 178.204 C 213.410 178.364,212.060 178.788,211.400 179.147 C 209.535 180.162,189.454 180.121,188.011 179.100 C 187.467 178.715,186.477 178.399,185.811 178.398 C 185.145 178.396,184.060 178.106,183.400 177.752 C 182.740 177.399,181.300 176.875,180.200 176.588 C 177.863 175.978,173.297 174.290,170.974 173.178 C 170.079 172.750,169.079 172.400,168.750 172.400 C 168.422 172.400,167.804 172.136,167.376 171.813 C 166.949 171.490,166.330 171.218,166.000 171.209 C 165.670 171.200,164.500 170.750,163.400 170.209 C 162.300 169.668,161.151 169.219,160.847 169.213 C 160.543 169.206,159.733 168.862,159.047 168.449 C 158.361 168.035,157.116 167.576,156.279 167.427 C 155.442 167.278,154.665 166.913,154.551 166.617 C 154.438 166.321,153.703 165.958,152.918 165.811 C 152.133 165.664,150.844 165.196,150.052 164.772 C 149.260 164.347,148.389 164.000,148.117 164.000 C 147.844 164.000,146.852 163.660,145.911 163.244 C 144.970 162.827,142.670 161.914,140.800 161.213 C 138.930 160.512,136.630 159.592,135.689 159.169 C 134.748 158.746,133.645 158.400,133.238 158.400 C 132.831 158.400,132.278 158.135,132.009 157.811 C 131.740 157.486,130.863 157.110,130.060 156.973 C 129.257 156.837,128.150 156.410,127.600 156.025 C 127.050 155.640,125.943 155.202,125.140 155.052 C 124.337 154.902,123.460 154.514,123.191 154.189 C 122.922 153.865,122.409 153.598,122.051 153.596 C 121.693 153.594,120.500 153.150,119.400 152.609 C 118.300 152.068,117.125 151.619,116.789 151.613 C 116.453 151.606,115.823 151.354,115.389 151.053 C 114.955 150.752,113.520 150.195,112.200 149.815 C 110.880 149.435,109.620 148.985,109.400 148.815 C 109.180 148.645,108.010 148.188,106.800 147.800 C 105.590 147.412,104.420 146.961,104.200 146.799 C 103.980 146.637,103.080 146.274,102.200 145.991 C 101.320 145.709,100.240 145.257,99.800 144.987 C 99.360 144.716,98.460 144.370,97.800 144.216 C 97.140 144.063,96.330 143.704,96.000 143.420 C 95.670 143.135,94.731 142.781,93.913 142.635 C 93.095 142.488,92.185 142.128,91.890 141.833 C 91.596 141.539,90.735 141.166,89.977 141.006 C 89.220 140.845,88.039 140.373,87.353 139.957 C 86.667 139.541,85.869 139.200,85.579 139.200 C 85.290 139.200,84.321 138.872,83.426 138.471 C 82.532 138.070,81.170 137.512,80.400 137.231 C 79.630 136.949,77.650 136.180,76.000 135.520 C 74.350 134.861,72.280 134.066,71.400 133.755 C 70.520 133.444,69.350 132.938,68.800 132.631 C 68.250 132.324,67.131 131.948,66.314 131.795 C 65.497 131.642,64.630 131.277,64.387 130.984 C 64.144 130.691,63.372 130.330,62.672 130.183 C 61.973 130.035,60.839 129.573,60.153 129.157 C 59.467 128.741,58.567 128.399,58.153 128.397 C 57.739 128.396,56.860 128.037,56.200 127.600 C 55.540 127.163,54.665 126.804,54.254 126.803 C 53.844 126.801,52.854 126.461,52.054 126.047 C 51.255 125.633,49.340 124.829,47.800 124.262 C 46.260 123.694,43.816 122.773,42.369 122.215 C 40.921 121.657,39.591 121.200,39.412 121.200 C 39.234 121.200,38.348 120.853,37.444 120.428 C 33.505 118.579,31.221 117.600,30.846 117.600 C 30.070 117.600,26.720 115.616,25.632 114.513 C 19.753 108.553,22.399 100.053,31.200 96.620 C 33.290 95.804,35.740 94.791,36.644 94.369 C 37.548 93.946,38.502 93.600,38.765 93.600 C 39.027 93.600,39.907 93.257,40.721 92.837 C 43.335 91.490,45.767 90.485,47.072 90.213 C 47.772 90.068,48.559 89.690,48.821 89.374 C 49.083 89.058,49.508 88.800,49.764 88.800 C 50.021 88.800,50.944 88.436,51.815 87.992 C 52.687 87.547,53.940 87.021,54.600 86.823 C 55.260 86.625,58.230 85.439,61.200 84.188 C 64.170 82.937,67.352 81.675,68.272 81.384 C 69.192 81.093,70.362 80.590,70.872 80.267 C 71.382 79.943,72.373 79.559,73.072 79.414 C 73.772 79.268,74.544 78.909,74.787 78.616 C 75.030 78.323,75.834 77.970,76.574 77.831 C 77.314 77.692,78.130 77.325,78.387 77.015 C 78.645 76.705,79.428 76.329,80.128 76.180 C 80.827 76.031,82.300 75.510,83.400 75.021 C 84.500 74.533,86.390 73.719,87.600 73.212 C 88.810 72.705,90.340 72.050,91.000 71.757 C 93.243 70.761,97.395 69.145,98.774 68.733 C 99.530 68.507,100.520 68.087,100.974 67.800 C 101.428 67.513,102.373 67.159,103.072 67.014 C 103.772 66.868,104.550 66.502,104.800 66.200 C 105.050 65.898,105.813 65.529,106.494 65.379 C 107.176 65.230,108.288 64.769,108.967 64.355 C 109.645 63.941,110.505 63.602,110.879 63.601 C 111.252 63.601,112.404 63.150,113.438 62.600 C 114.473 62.050,115.630 61.600,116.011 61.600 C 116.391 61.600,116.917 61.342,117.179 61.026 C 117.441 60.710,118.228 60.329,118.928 60.180 C 119.627 60.030,120.650 59.663,121.200 59.364 C 121.750 59.065,123.910 58.180,126.000 57.396 C 128.090 56.612,130.455 55.618,131.254 55.186 C 132.054 54.753,132.954 54.400,133.254 54.401 C 133.555 54.402,134.610 54.015,135.600 53.543 C 136.590 53.070,138.210 52.328,139.200 51.893 C 140.190 51.458,141.630 50.787,142.400 50.401 C 143.170 50.016,144.430 49.568,145.200 49.406 C 145.970 49.244,146.870 48.882,147.200 48.603 C 147.530 48.323,148.250 47.963,148.800 47.803 C 149.350 47.642,150.340 47.277,151.000 46.990 C 157.152 44.322,163.098 42.000,163.781 42.000 C 164.068 42.000,164.522 41.735,164.791 41.411 C 165.060 41.086,165.937 40.700,166.740 40.553 C 167.543 40.405,168.603 39.970,169.097 39.587 C 169.590 39.204,170.607 38.775,171.356 38.635 C 172.106 38.494,172.940 38.114,173.209 37.789 C 173.478 37.465,173.979 37.200,174.323 37.200 C 174.666 37.200,175.679 36.850,176.574 36.423 C 182.061 33.802,187.697 32.443,197.200 31.450 C 198.894 31.273,203.458 31.524,207.800 32.033 " stroke="none" fill="#fbfbfb" fill-rule="evenodd"></path><path id="path4" d="M197.200 31.450 C 187.697 32.443,182.061 33.802,176.574 36.423 C 175.679 36.850,174.666 37.200,174.323 37.200 C 173.979 37.200,173.478 37.465,173.209 37.789 C 172.940 38.114,172.106 38.494,171.356 38.635 C 170.607 38.775,169.590 39.204,169.097 39.587 C 168.603 39.970,167.543 40.405,166.740 40.553 C 165.937 40.700,165.060 41.086,164.791 41.411 C 164.522 41.735,164.068 42.000,163.781 42.000 C 163.098 42.000,157.152 44.322,151.000 46.990 C 150.340 47.277,149.350 47.642,148.800 47.803 C 148.250 47.963,147.530 48.323,147.200 48.603 C 146.870 48.882,145.970 49.244,145.200 49.406 C 144.430 49.568,143.170 50.016,142.400 50.401 C 141.630 50.787,140.190 51.458,139.200 51.893 C 138.210 52.328,136.590 53.070,135.600 53.543 C 134.610 54.015,133.555 54.402,133.254 54.401 C 132.954 54.400,132.054 54.753,131.254 55.186 C 130.455 55.618,128.090 56.612,126.000 57.396 C 123.910 58.180,121.750 59.065,121.200 59.364 C 120.650 59.663,119.627 60.030,118.928 60.180 C 118.228 60.329,117.441 60.710,117.179 61.026 C 116.917 61.342,116.391 61.600,116.011 61.600 C 115.630 61.600,114.473 62.050,113.438 62.600 C 112.404 63.150,111.252 63.601,110.879 63.601 C 110.505 63.602,109.645 63.941,108.967 64.355 C 108.288 64.769,107.176 65.230,106.494 65.379 C 105.813 65.529,105.050 65.898,104.800 66.200 C 104.550 66.502,103.772 66.868,103.072 67.014 C 102.373 67.159,101.428 67.513,100.974 67.800 C 100.520 68.087,99.530 68.507,98.774 68.733 C 97.395 69.145,93.243 70.761,91.000 71.757 C 90.340 72.050,88.810 72.705,87.600 73.212 C 86.390 73.719,84.500 74.533,83.400 75.021 C 82.300 75.510,80.827 76.031,80.128 76.180 C 79.428 76.329,78.645 76.705,78.387 77.015 C 78.130 77.325,77.314 77.692,76.574 77.831 C 75.834 77.970,75.030 78.323,74.787 78.616 C 74.544 78.909,73.772 79.268,73.072 79.414 C 72.373 79.559,71.382 79.943,70.872 80.267 C 70.362 80.590,69.192 81.093,68.272 81.384 C 67.352 81.675,64.170 82.937,61.200 84.188 C 58.230 85.439,55.260 86.625,54.600 86.823 C 53.940 87.021,52.687 87.547,51.815 87.992 C 50.944 88.436,50.021 88.800,49.764 88.800 C 49.508 88.800,49.083 89.058,48.821 89.374 C 48.559 89.690,47.772 90.068,47.072 90.213 C 45.767 90.485,43.335 91.490,40.721 92.837 C 39.907 93.257,39.027 93.600,38.765 93.600 C 38.502 93.600,37.548 93.946,36.644 94.369 C 35.740 94.791,33.290 95.804,31.200 96.620 C 22.399 100.053,19.753 108.553,25.632 114.513 C 26.720 115.616,30.070 117.600,30.846 117.600 C 31.221 117.600,33.505 118.579,37.444 120.428 C 38.348 120.853,39.234 121.200,39.412 121.200 C 39.591 121.200,40.921 121.657,42.369 122.215 C 43.816 122.773,46.260 123.694,47.800 124.262 C 49.340 124.829,51.255 125.633,52.054 126.047 C 52.854 126.461,53.844 126.801,54.254 126.803 C 54.665 126.804,55.540 127.163,56.200 127.600 C 56.860 128.037,57.739 128.396,58.153 128.397 C 58.567 128.399,59.467 128.741,60.153 129.157 C 60.839 129.573,61.973 130.035,62.672 130.183 C 63.372 130.330,64.144 130.691,64.387 130.984 C 64.630 131.277,65.497 131.642,66.314 131.795 C 67.131 131.948,68.250 132.324,68.800 132.631 C 69.350 132.938,70.520 133.444,71.400 133.755 C 72.280 134.066,74.350 134.861,76.000 135.520 C 77.650 136.180,79.630 136.949,80.400 137.231 C 81.170 137.512,82.532 138.070,83.426 138.471 C 84.321 138.872,85.290 139.200,85.579 139.200 C 85.869 139.200,86.667 139.541,87.353 139.957 C 88.039 140.373,89.220 140.845,89.977 141.006 C 90.735 141.166,91.596 141.539,91.890 141.833 C 92.185 142.128,93.095 142.488,93.913 142.635 C 94.731 142.781,95.670 143.135,96.000 143.420 C 96.330 143.704,97.140 144.063,97.800 144.216 C 98.460 144.370,99.360 144.716,99.800 144.987 C 100.240 145.257,101.320 145.709,102.200 145.991 C 103.080 146.274,103.980 146.637,104.200 146.799 C 104.420 146.961,105.590 147.412,106.800 147.800 C 108.010 148.188,109.180 148.645,109.400 148.815 C 109.620 148.985,110.880 149.435,112.200 149.815 C 113.520 150.195,114.955 150.752,115.389 151.053 C 115.823 151.354,116.453 151.606,116.789 151.613 C 117.125 151.619,118.300 152.068,119.400 152.609 C 120.500 153.150,121.693 153.594,122.051 153.596 C 122.409 153.598,122.922 153.865,123.191 154.189 C 123.460 154.514,124.337 154.902,125.140 155.052 C 125.943 155.202,127.050 155.640,127.600 156.025 C 128.150 156.410,129.257 156.837,130.060 156.973 C 130.863 157.110,131.740 157.486,132.009 157.811 C 132.278 158.135,132.831 158.400,133.238 158.400 C 133.645 158.400,134.748 158.746,135.689 159.169 C 136.630 159.592,138.930 160.512,140.800 161.213 C 142.670 161.914,144.970 162.827,145.911 163.244 C 146.852 163.660,147.844 164.000,148.117 164.000 C 148.389 164.000,149.260 164.347,150.052 164.772 C 150.844 165.196,152.133 165.664,152.918 165.811 C 153.703 165.958,154.438 166.321,154.551 166.617 C 154.665 166.913,155.442 167.278,156.279 167.427 C 157.116 167.576,158.361 168.035,159.047 168.449 C 159.733 168.862,160.543 169.206,160.847 169.213 C 161.151 169.219,162.300 169.668,163.400 170.209 C 164.500 170.750,165.670 171.200,166.000 171.209 C 166.330 171.218,166.949 171.490,167.376 171.813 C 167.804 172.136,168.422 172.400,168.750 172.400 C 169.079 172.400,170.079 172.750,170.974 173.178 C 173.297 174.290,177.863 175.978,180.200 176.588 C 181.300 176.875,182.740 177.399,183.400 177.752 C 184.060 178.106,185.145 178.396,185.811 178.398 C 186.477 178.399,187.467 178.715,188.011 179.100 C 189.454 180.121,209.535 180.162,211.400 179.147 C 212.060 178.788,213.410 178.364,214.400 178.204 C 215.390 178.044,216.470 177.687,216.800 177.411 C 217.130 177.134,218.079 176.804,218.910 176.678 C 220.371 176.454,223.304 175.405,228.126 173.378 C 229.406 172.840,230.727 172.400,231.063 172.400 C 231.399 172.400,232.131 172.040,232.691 171.600 C 233.250 171.160,234.044 170.800,234.455 170.800 C 234.867 170.800,235.875 170.440,236.696 170.000 C 237.516 169.560,238.461 169.199,238.794 169.197 C 239.127 169.196,239.940 168.837,240.600 168.400 C 241.260 167.963,242.123 167.604,242.518 167.603 C 242.913 167.601,244.082 167.150,245.115 166.600 C 246.148 166.050,247.270 165.600,247.608 165.600 C 247.946 165.600,248.577 165.354,249.011 165.054 C 249.445 164.754,250.250 164.378,250.800 164.220 C 252.223 163.810,261.883 160.060,263.844 159.157 C 264.748 158.741,265.694 158.400,265.945 158.400 C 266.197 158.400,267.075 158.040,267.896 157.600 C 268.716 157.160,269.666 156.800,270.005 156.800 C 270.344 156.800,271.041 156.507,271.553 156.148 C 272.065 155.790,273.227 155.329,274.136 155.125 C 275.045 154.921,276.061 154.521,276.394 154.238 C 276.727 153.954,277.810 153.445,278.800 153.106 C 282.221 151.937,284.945 150.815,285.352 150.408 C 285.576 150.184,286.097 150.000,286.508 150.000 C 286.919 150.000,288.548 149.476,290.128 148.836 C 291.708 148.196,294.260 147.186,295.800 146.591 C 297.340 145.996,298.780 145.368,299.000 145.194 C 299.220 145.020,300.210 144.664,301.200 144.402 C 302.190 144.140,303.270 143.695,303.600 143.413 C 303.930 143.132,304.857 142.784,305.660 142.640 C 306.463 142.496,307.330 142.125,307.587 141.815 C 307.845 141.505,308.628 141.126,309.328 140.972 C 310.027 140.819,311.227 140.357,311.994 139.947 C 312.761 139.536,313.618 139.200,313.898 139.200 C 314.179 139.200,315.172 138.865,316.104 138.455 C 317.037 138.045,319.150 137.207,320.800 136.594 C 322.450 135.980,324.767 135.055,325.948 134.539 C 327.130 134.023,328.303 133.600,328.554 133.600 C 328.806 133.600,329.684 133.240,330.504 132.800 C 331.325 132.360,332.223 131.994,332.499 131.987 C 332.774 131.981,333.900 131.532,335.000 130.991 C 336.100 130.450,337.249 130.006,337.553 130.004 C 337.857 130.002,338.667 129.659,339.353 129.243 C 340.039 128.827,341.173 128.365,341.872 128.217 C 342.572 128.070,343.359 127.690,343.621 127.374 C 343.883 127.058,344.469 126.800,344.923 126.800 C 345.376 126.800,346.479 126.471,347.374 126.068 C 350.341 124.734,353.375 123.547,355.400 122.929 C 356.500 122.593,357.580 122.180,357.800 122.011 C 358.020 121.842,358.920 121.474,359.800 121.193 C 360.680 120.912,362.027 120.349,362.794 119.941 C 363.561 119.534,364.466 119.200,364.805 119.200 C 365.144 119.200,365.777 118.957,366.211 118.660 C 366.645 118.363,367.526 117.991,368.168 117.835 C 368.811 117.678,369.780 117.202,370.322 116.775 C 370.864 116.349,371.532 116.000,371.807 116.000 C 372.552 116.000,375.600 112.809,375.600 112.029 C 375.600 111.657,375.864 111.004,376.187 110.576 C 377.518 108.817,376.065 100.800,374.415 100.800 C 374.217 100.800,373.952 100.485,373.828 100.100 C 373.483 99.030,368.861 96.505,365.486 95.543 C 364.559 95.278,363.530 94.837,363.200 94.562 C 362.870 94.287,362.060 93.932,361.400 93.773 C 360.740 93.614,359.570 93.173,358.800 92.794 C 355.504 91.171,353.725 90.417,352.600 90.163 C 351.940 90.014,351.130 89.663,350.800 89.383 C 350.470 89.104,349.480 88.675,348.600 88.431 C 347.720 88.187,346.651 87.720,346.224 87.394 C 345.796 87.067,345.166 86.799,344.824 86.798 C 344.481 86.796,343.682 86.525,343.049 86.195 C 342.417 85.865,340.257 84.952,338.249 84.166 C 336.242 83.380,333.860 82.391,332.956 81.969 C 332.052 81.546,331.152 81.194,330.956 81.186 C 330.760 81.179,329.880 80.825,329.000 80.400 C 328.120 79.975,327.254 79.621,327.075 79.614 C 326.767 79.601,324.171 78.469,320.556 76.772 C 319.652 76.347,318.662 75.999,318.356 75.997 C 318.050 75.996,317.260 75.637,316.600 75.200 C 315.940 74.763,315.150 74.404,314.844 74.403 C 314.538 74.401,313.458 74.020,312.444 73.557 C 311.430 73.093,309.880 72.384,309.000 71.981 C 308.120 71.579,305.690 70.600,303.600 69.806 C 301.510 69.012,299.322 68.101,298.738 67.781 C 298.154 67.462,297.452 67.200,297.178 67.200 C 296.695 67.200,293.739 65.898,290.721 64.356 C 289.907 63.940,289.005 63.600,288.715 63.600 C 288.425 63.600,287.561 63.264,286.794 62.853 C 286.027 62.443,284.827 61.981,284.128 61.828 C 283.428 61.674,282.641 61.290,282.379 60.974 C 282.117 60.658,281.656 60.400,281.356 60.400 C 280.837 60.400,275.749 58.392,272.122 56.757 C 271.199 56.341,270.175 56.000,269.846 56.000 C 269.516 56.000,269.144 55.833,269.018 55.629 C 268.892 55.425,268.116 55.050,267.294 54.796 C 265.766 54.323,263.351 53.277,260.721 51.948 C 259.907 51.536,259.007 51.194,258.721 51.187 C 258.434 51.181,257.300 50.732,256.200 50.191 C 255.100 49.650,253.907 49.206,253.549 49.204 C 253.191 49.202,252.683 48.942,252.421 48.626 C 252.159 48.310,251.372 47.929,250.672 47.780 C 249.973 47.630,248.950 47.259,248.400 46.956 C 246.869 46.112,236.445 42.000,235.836 42.000 C 235.540 42.000,235.083 41.742,234.821 41.426 C 234.559 41.110,233.772 40.730,233.072 40.583 C 232.373 40.435,231.239 39.973,230.553 39.557 C 229.867 39.141,229.057 38.794,228.753 38.787 C 228.449 38.781,227.300 38.332,226.200 37.791 C 225.100 37.250,223.907 36.806,223.549 36.804 C 223.191 36.802,222.683 36.542,222.421 36.226 C 222.159 35.910,221.372 35.526,220.672 35.372 C 219.973 35.219,218.773 34.757,218.006 34.347 C 217.239 33.936,216.233 33.600,215.769 33.600 C 215.306 33.600,214.044 33.332,212.964 33.004 C 209.844 32.056,200.352 31.121,197.200 31.450 M204.400 33.228 C 210.998 33.802,223.138 37.019,225.400 38.794 C 225.620 38.966,226.430 39.238,227.200 39.398 C 227.970 39.558,228.870 39.922,229.200 40.207 C 229.530 40.492,230.544 40.924,231.453 41.166 C 232.363 41.408,233.330 41.874,233.602 42.203 C 233.875 42.531,234.502 42.800,234.995 42.800 C 235.488 42.800,236.350 43.160,236.909 43.600 C 237.469 44.040,238.168 44.402,238.463 44.404 C 238.758 44.406,239.900 44.850,241.000 45.391 C 242.100 45.932,243.153 46.381,243.340 46.387 C 243.526 46.394,244.246 46.660,244.940 46.977 C 245.633 47.295,247.910 48.197,250.000 48.982 C 252.090 49.767,254.340 50.669,255.000 50.986 C 255.660 51.303,256.920 51.754,257.800 51.988 C 258.680 52.222,259.749 52.680,260.176 53.006 C 260.604 53.333,261.254 53.600,261.623 53.600 C 261.991 53.600,262.750 53.960,263.309 54.400 C 263.869 54.840,264.622 55.200,264.984 55.200 C 265.346 55.200,266.307 55.550,267.121 55.978 C 269.626 57.295,272.028 58.412,273.547 58.967 C 274.346 59.258,276.440 60.073,278.200 60.776 C 284.351 63.234,286.207 63.944,287.200 64.216 C 287.750 64.368,288.761 64.831,289.447 65.246 C 290.133 65.661,291.140 66.000,291.685 66.000 C 292.230 66.000,293.002 66.360,293.400 66.800 C 293.798 67.240,294.465 67.600,294.883 67.600 C 295.300 67.600,296.307 67.948,297.121 68.374 C 298.675 69.188,301.641 70.529,305.000 71.935 C 306.100 72.396,307.720 73.074,308.600 73.443 C 310.548 74.258,314.788 75.832,317.109 76.601 C 318.049 76.912,319.214 77.444,319.698 77.784 C 320.182 78.123,321.071 78.400,321.673 78.400 C 322.276 78.400,323.091 78.739,323.484 79.153 C 323.878 79.568,324.773 80.029,325.472 80.179 C 326.172 80.329,326.950 80.698,327.200 81.000 C 327.450 81.302,328.228 81.670,328.928 81.817 C 329.627 81.965,330.761 82.427,331.447 82.843 C 332.133 83.259,332.943 83.601,333.247 83.602 C 333.551 83.604,334.340 83.897,335.000 84.253 C 336.690 85.166,343.632 87.897,347.109 89.017 C 348.049 89.319,349.214 89.844,349.698 90.184 C 350.182 90.523,350.853 90.806,351.189 90.813 C 351.525 90.819,352.700 91.268,353.800 91.809 C 354.900 92.350,356.042 92.794,356.337 92.796 C 356.632 92.798,357.331 93.160,357.891 93.600 C 358.450 94.040,359.204 94.400,359.565 94.400 C 359.926 94.400,360.584 94.654,361.027 94.964 C 361.470 95.274,363.535 96.190,365.616 97.000 C 374.105 100.304,376.295 103.103,375.199 109.247 C 374.745 111.786,372.321 115.200,370.971 115.200 C 370.716 115.200,370.048 115.562,369.486 116.004 C 368.925 116.445,367.865 116.921,367.132 117.059 C 366.400 117.198,363.613 118.187,360.939 119.256 C 358.266 120.325,355.919 121.200,355.724 121.200 C 355.529 121.200,354.663 121.560,353.800 122.000 C 352.937 122.440,351.931 122.800,351.564 122.800 C 351.198 122.800,350.674 123.070,350.400 123.400 C 350.126 123.730,349.609 124.002,349.251 124.004 C 348.893 124.006,347.700 124.450,346.600 124.991 C 345.500 125.532,344.385 125.981,344.121 125.987 C 343.858 125.994,342.796 126.450,341.762 127.000 C 340.727 127.550,339.570 128.000,339.189 128.000 C 338.809 128.000,338.278 128.265,338.009 128.589 C 337.740 128.914,336.863 129.297,336.060 129.442 C 335.257 129.587,334.240 129.900,333.800 130.138 C 333.360 130.376,331.830 130.968,330.400 131.454 C 326.152 132.897,324.293 133.602,322.574 134.423 C 321.679 134.850,320.739 135.200,320.483 135.200 C 320.228 135.200,319.430 135.559,318.710 135.999 C 317.989 136.438,317.019 136.798,316.554 136.799 C 316.089 136.799,315.250 137.160,314.691 137.600 C 314.131 138.040,313.342 138.401,312.937 138.403 C 312.532 138.404,311.660 138.763,311.000 139.200 C 310.340 139.637,309.527 139.996,309.194 139.997 C 308.861 139.999,307.871 140.387,306.994 140.860 C 306.117 141.333,304.860 141.857,304.200 142.024 C 303.540 142.190,301.110 143.075,298.800 143.990 C 296.490 144.905,294.240 145.751,293.800 145.870 C 292.513 146.220,288.289 147.897,286.993 148.573 C 286.337 148.915,285.551 149.196,285.247 149.198 C 284.943 149.199,284.133 149.541,283.447 149.957 C 282.761 150.373,281.627 150.835,280.928 150.983 C 280.228 151.130,279.441 151.510,279.179 151.826 C 278.917 152.142,278.391 152.400,278.011 152.400 C 277.630 152.400,276.473 152.850,275.438 153.400 C 274.404 153.950,273.277 154.400,272.933 154.400 C 272.590 154.400,271.654 154.752,270.854 155.182 C 270.055 155.613,268.770 156.145,268.000 156.366 C 267.230 156.587,265.160 157.297,263.400 157.945 C 261.640 158.592,259.570 159.342,258.800 159.610 C 258.030 159.879,256.680 160.421,255.800 160.816 C 254.920 161.210,253.030 162.002,251.600 162.577 C 250.170 163.152,248.334 163.977,247.521 164.411 C 246.707 164.845,245.700 165.200,245.283 165.200 C 244.865 165.200,244.198 165.560,243.800 166.000 C 243.402 166.440,242.607 166.800,242.035 166.800 C 241.462 166.800,240.148 167.250,239.115 167.800 C 238.082 168.350,236.941 168.800,236.579 168.800 C 236.217 168.800,235.354 169.049,234.660 169.353 C 233.967 169.656,231.870 170.472,230.000 171.165 C 228.130 171.858,225.880 172.770,225.000 173.191 C 224.120 173.612,222.643 174.151,221.717 174.389 C 220.791 174.627,219.940 174.973,219.826 175.158 C 219.711 175.343,218.865 175.615,217.945 175.762 C 217.026 175.909,215.807 176.286,215.237 176.598 C 211.267 178.776,194.579 180.034,190.400 178.471 C 189.630 178.183,188.030 177.785,186.845 177.586 C 185.659 177.387,184.399 176.971,184.045 176.663 C 183.690 176.354,182.680 175.972,181.800 175.814 C 180.920 175.656,179.750 175.286,179.200 174.991 C 178.650 174.697,177.660 174.278,177.000 174.060 C 176.340 173.841,174.277 173.019,172.415 172.232 C 170.553 171.444,168.804 170.800,168.526 170.800 C 168.249 170.800,167.021 170.357,165.796 169.815 C 164.571 169.274,162.953 168.715,162.199 168.573 C 161.445 168.432,160.630 168.077,160.387 167.784 C 160.144 167.491,159.372 167.140,158.672 167.003 C 157.973 166.867,156.500 166.335,155.400 165.821 C 150.442 163.507,149.713 163.200,149.174 163.197 C 148.858 163.196,148.060 162.837,147.400 162.400 C 146.740 161.963,145.868 161.604,145.462 161.603 C 145.056 161.601,144.246 161.339,143.662 161.021 C 141.419 159.797,134.918 157.302,130.402 155.932 C 129.633 155.699,128.648 155.259,128.213 154.954 C 127.778 154.649,126.946 154.400,126.365 154.400 C 125.784 154.400,124.850 154.040,124.291 153.600 C 123.731 153.160,122.921 152.800,122.491 152.800 C 122.060 152.800,121.272 152.457,120.740 152.039 C 120.207 151.620,119.058 151.077,118.186 150.832 C 117.314 150.587,116.251 150.120,115.824 149.794 C 115.396 149.467,114.766 149.199,114.424 149.198 C 114.081 149.196,113.260 148.906,112.600 148.553 C 111.940 148.199,109.510 147.219,107.200 146.375 C 104.890 145.530,101.560 144.276,99.800 143.587 C 98.040 142.899,95.883 142.159,95.006 141.945 C 94.129 141.730,93.139 141.314,92.806 141.021 C 92.473 140.729,91.570 140.356,90.800 140.192 C 90.030 140.029,88.971 139.559,88.446 139.148 C 87.921 138.737,87.147 138.400,86.725 138.400 C 86.304 138.400,85.293 138.060,84.479 137.644 C 81.891 136.321,78.531 134.800,78.199 134.800 C 78.022 134.800,75.853 133.990,73.379 133.000 C 70.904 132.010,68.637 131.194,68.340 131.186 C 68.043 131.179,67.080 130.825,66.200 130.400 C 65.320 129.975,64.219 129.621,63.754 129.614 C 63.289 129.606,62.469 129.255,61.933 128.833 C 61.396 128.411,60.290 127.941,59.475 127.788 C 58.660 127.635,57.561 127.170,57.033 126.755 C 56.506 126.340,55.763 126.000,55.384 126.000 C 55.005 126.000,54.133 125.659,53.447 125.243 C 52.761 124.827,51.627 124.365,50.928 124.217 C 50.228 124.070,49.441 123.690,49.179 123.374 C 48.917 123.058,48.458 122.800,48.159 122.800 C 47.668 122.800,45.629 122.063,40.400 119.995 C 39.410 119.603,37.430 118.822,36.000 118.258 C 34.570 117.694,32.860 117.111,32.200 116.962 C 31.540 116.814,30.730 116.461,30.400 116.177 C 30.070 115.894,29.260 115.530,28.600 115.369 C 26.015 114.737,24.001 111.135,24.000 107.144 C 24.000 103.173,25.549 100.899,29.600 98.921 C 32.597 97.459,35.931 96.000,36.275 96.001 C 36.454 96.002,37.320 95.658,38.200 95.237 C 39.080 94.816,40.880 93.994,42.200 93.410 C 43.520 92.826,45.266 92.000,46.079 91.574 C 46.893 91.148,47.888 90.800,48.290 90.800 C 48.693 90.800,49.441 90.507,49.952 90.148 C 50.464 89.790,51.629 89.269,52.541 88.990 C 54.766 88.311,63.697 84.802,64.200 84.410 C 64.420 84.238,65.050 83.972,65.600 83.819 C 66.150 83.665,67.410 83.167,68.400 82.711 C 69.390 82.256,70.920 81.564,71.800 81.173 C 76.411 79.127,77.963 78.431,79.644 77.653 C 80.658 77.184,81.692 76.800,81.942 76.800 C 82.192 76.800,84.152 76.064,86.298 75.163 C 88.444 74.263,90.740 73.337,91.400 73.105 C 92.819 72.607,99.517 69.846,101.800 68.817 C 105.416 67.189,108.291 65.887,109.800 65.195 C 110.680 64.791,111.850 64.340,112.400 64.193 C 112.950 64.046,114.120 63.609,115.000 63.223 C 115.880 62.836,117.950 62.028,119.600 61.428 C 121.250 60.828,123.266 59.991,124.079 59.568 C 124.893 59.146,125.847 58.800,126.200 58.800 C 126.553 58.800,127.507 58.456,128.321 58.035 C 129.134 57.614,130.880 56.792,132.200 56.209 C 133.520 55.626,135.230 54.823,136.000 54.425 C 136.770 54.026,137.973 53.576,138.672 53.424 C 139.372 53.273,140.150 52.902,140.400 52.600 C 140.650 52.298,141.428 51.929,142.128 51.780 C 142.827 51.630,143.850 51.272,144.400 50.985 C 144.950 50.697,147.470 49.712,150.000 48.795 C 152.530 47.879,154.771 46.965,154.980 46.765 C 155.189 46.564,155.605 46.400,155.905 46.400 C 156.204 46.400,157.473 45.940,158.725 45.379 C 159.976 44.817,161.540 44.118,162.200 43.824 C 162.860 43.531,164.390 42.831,165.600 42.270 C 166.810 41.708,168.250 41.123,168.800 40.969 C 169.350 40.816,170.229 40.355,170.754 39.945 C 171.279 39.535,172.094 39.200,172.565 39.200 C 173.036 39.200,173.777 38.962,174.211 38.672 C 176.457 37.168,188.789 33.621,191.944 33.570 C 192.965 33.554,194.610 33.397,195.600 33.220 C 198.242 32.750,198.911 32.751,204.400 33.228 M9.800 133.226 C 8.920 133.395,7.660 133.817,7.000 134.164 C 6.340 134.511,5.600 134.796,5.355 134.798 C 4.979 134.800,3.099 136.734,0.592 139.700 C 0.266 140.085,0.000 140.670,0.000 141.000 C 0.000 142.075,1.163 141.632,1.838 140.300 C 4.534 134.979,10.137 133.427,17.000 136.103 C 18.980 136.875,21.770 137.918,23.200 138.421 C 24.630 138.924,25.980 139.461,26.200 139.615 C 26.420 139.768,27.590 140.212,28.800 140.600 C 30.010 140.988,31.180 141.441,31.400 141.607 C 31.620 141.772,32.430 142.042,33.200 142.206 C 33.970 142.370,35.029 142.841,35.554 143.252 C 36.079 143.663,36.853 144.000,37.275 144.000 C 37.696 144.000,38.707 144.355,39.521 144.789 C 40.334 145.223,42.170 146.045,43.600 146.617 C 45.030 147.188,46.866 148.003,47.679 148.428 C 48.493 148.853,49.376 149.200,49.642 149.200 C 50.064 149.200,53.094 150.309,63.468 154.260 C 64.826 154.777,66.109 155.200,66.319 155.200 C 66.530 155.200,66.926 155.470,67.200 155.800 C 67.474 156.130,67.979 156.400,68.323 156.400 C 68.666 156.400,69.679 156.742,70.574 157.160 C 71.468 157.577,73.370 158.404,74.800 158.997 C 76.230 159.590,77.948 160.307,78.619 160.592 C 80.672 161.464,84.801 163.050,89.000 164.580 C 91.200 165.381,93.567 166.299,94.260 166.618 C 94.954 166.938,95.766 167.200,96.066 167.200 C 96.366 167.200,97.284 167.560,98.104 168.000 C 98.925 168.440,99.820 168.800,100.093 168.800 C 100.365 168.800,101.491 169.226,102.594 169.747 C 107.040 171.846,108.304 172.400,108.644 172.402 C 108.840 172.404,109.540 172.687,110.200 173.031 C 110.860 173.375,112.300 173.982,113.400 174.379 C 114.500 174.776,116.390 175.505,117.600 175.998 C 120.173 177.046,125.676 179.075,127.400 179.610 C 128.060 179.816,129.313 180.347,130.185 180.792 C 131.056 181.236,132.010 181.600,132.305 181.600 C 132.600 181.600,133.507 181.947,134.321 182.372 C 136.626 183.575,140.636 185.200,141.301 185.200 C 141.632 185.200,142.117 185.458,142.379 185.774 C 142.641 186.090,143.428 186.471,144.128 186.620 C 144.827 186.770,145.850 187.121,146.400 187.401 C 146.950 187.681,149.200 188.575,151.400 189.388 C 153.600 190.201,155.760 191.022,156.200 191.212 C 158.295 192.117,162.324 193.582,163.400 193.831 C 164.060 193.983,164.870 194.332,165.200 194.606 C 165.530 194.881,166.250 195.235,166.800 195.394 C 174.790 197.701,179.200 201.846,179.200 207.046 C 179.200 211.384,176.789 214.211,170.194 217.603 C 168.476 218.487,166.873 219.373,166.633 219.573 C 166.392 219.772,165.657 220.062,164.998 220.215 C 164.339 220.369,163.440 220.712,163.000 220.976 C 162.560 221.241,159.914 222.496,157.119 223.766 C 154.324 225.036,151.084 226.599,149.919 227.238 C 148.754 227.877,147.170 228.674,146.400 229.010 C 145.630 229.345,144.730 229.781,144.400 229.978 C 142.944 230.849,134.616 234.800,134.236 234.800 C 134.119 234.800,131.589 235.970,128.615 237.400 C 125.641 238.830,123.055 240.000,122.868 240.000 C 122.681 240.000,121.406 240.585,120.036 241.300 C 118.665 242.015,117.061 242.834,116.472 243.121 C 115.882 243.407,115.130 243.814,114.800 244.024 C 114.470 244.234,113.750 244.599,113.200 244.836 C 112.650 245.073,111.570 245.589,110.800 245.983 C 110.030 246.377,108.827 246.824,108.128 246.976 C 107.428 247.127,106.641 247.510,106.379 247.826 C 106.117 248.142,105.745 248.400,105.552 248.400 C 104.937 248.400,97.647 251.885,88.946 256.339 C 85.384 258.162,84.170 258.727,82.400 259.385 C 80.065 260.253,65.769 267.173,62.800 268.873 C 62.470 269.062,61.570 269.496,60.800 269.838 C 58.761 270.745,56.570 271.741,53.400 273.201 C 46.258 276.491,43.755 277.675,43.200 278.024 C 42.870 278.232,42.150 278.581,41.600 278.801 C 41.050 279.020,40.330 279.373,40.000 279.586 C 39.046 280.200,31.785 283.720,27.200 285.793 C 24.890 286.837,21.200 288.547,19.000 289.593 C 11.489 293.165,10.446 293.339,6.800 291.625 C 3.874 290.250,2.478 289.093,1.823 287.500 C 1.168 285.905,0.000 285.457,-0.000 286.800 C -0.000 287.651,0.932 288.849,3.296 291.037 C 6.329 293.844,10.867 294.793,14.066 293.289 C 15.020 292.841,16.250 292.344,16.800 292.185 C 17.350 292.025,18.278 291.559,18.862 291.148 C 19.446 290.736,20.073 290.400,20.256 290.400 C 20.439 290.400,21.491 289.972,22.594 289.449 C 23.697 288.925,25.050 288.297,25.600 288.052 C 26.150 287.806,26.870 287.443,27.200 287.243 C 28.602 286.396,32.113 284.800,32.575 284.800 C 32.851 284.800,33.386 284.458,33.764 284.040 C 34.143 283.621,35.080 283.161,35.847 283.018 C 36.614 282.874,37.342 282.496,37.464 282.178 C 37.586 281.860,37.967 281.600,38.311 281.600 C 38.655 281.600,40.031 281.081,41.368 280.447 C 42.706 279.812,45.600 278.454,47.800 277.427 C 50.000 276.401,52.070 275.388,52.400 275.178 C 52.730 274.967,53.450 274.596,54.000 274.354 C 54.550 274.112,55.270 273.752,55.600 273.554 C 55.930 273.356,56.605 273.015,57.100 272.797 C 57.595 272.579,58.405 272.221,58.900 272.003 C 59.395 271.785,60.070 271.447,60.400 271.252 C 61.384 270.671,68.377 267.392,71.600 265.999 C 75.922 264.131,78.745 262.780,80.800 261.597 C 81.790 261.027,83.230 260.315,84.000 260.014 C 84.770 259.714,85.670 259.252,86.000 258.988 C 86.330 258.724,87.082 258.393,87.672 258.253 C 88.262 258.113,89.005 257.738,89.324 257.419 C 89.643 257.100,90.420 256.713,91.052 256.559 C 91.683 256.404,92.629 255.945,93.154 255.539 C 93.679 255.133,94.302 254.800,94.539 254.800 C 94.973 254.800,99.562 252.662,106.200 249.366 C 108.180 248.383,110.001 247.583,110.246 247.589 C 110.491 247.595,111.121 247.266,111.646 246.858 C 112.171 246.450,113.261 245.901,114.068 245.638 C 114.875 245.374,115.752 244.898,116.017 244.580 C 116.282 244.261,116.812 244.000,117.195 244.000 C 117.578 244.000,118.321 243.667,118.846 243.261 C 119.371 242.855,120.303 242.399,120.918 242.249 C 121.532 242.099,123.514 241.273,125.322 240.415 C 127.129 239.556,129.056 238.662,129.604 238.428 C 130.152 238.193,130.870 237.834,131.200 237.628 C 132.305 236.940,137.058 234.800,137.483 234.800 C 137.713 234.800,138.125 234.531,138.398 234.203 C 138.670 233.874,139.592 233.418,140.447 233.187 C 141.301 232.957,142.000 232.610,142.000 232.416 C 142.000 232.221,142.675 231.845,143.500 231.580 C 144.325 231.316,145.270 230.874,145.600 230.600 C 145.930 230.326,146.861 229.889,147.668 229.630 C 148.475 229.371,149.352 228.898,149.617 228.580 C 149.882 228.261,150.335 228.000,150.624 228.000 C 150.914 228.000,153.007 227.100,155.275 226.001 C 157.544 224.901,159.603 224.001,159.851 224.001 C 160.099 224.000,160.511 223.748,160.767 223.439 C 161.023 223.131,161.720 222.757,162.316 222.608 C 162.912 222.459,163.670 222.104,164.000 221.819 C 164.330 221.534,165.259 221.090,166.065 220.831 C 166.870 220.573,167.630 220.100,167.752 219.781 C 167.875 219.461,168.406 219.200,168.934 219.200 C 169.461 219.200,170.321 218.869,170.846 218.464 C 171.371 218.059,172.381 217.530,173.091 217.288 C 173.802 217.046,174.612 216.660,174.891 216.430 C 175.171 216.200,175.970 215.556,176.666 214.999 C 179.731 212.547,181.219 205.933,179.411 202.800 C 179.094 202.250,178.655 201.406,178.436 200.924 C 177.932 199.815,174.147 196.800,173.258 196.800 C 172.890 196.800,171.916 196.440,171.096 196.000 C 170.275 195.560,169.287 195.194,168.901 195.188 C 168.516 195.181,167.480 194.732,166.600 194.190 C 165.720 193.648,164.640 193.202,164.200 193.199 C 163.760 193.197,162.860 192.837,162.200 192.400 C 161.540 191.963,160.661 191.604,160.247 191.603 C 159.833 191.601,158.933 191.259,158.247 190.843 C 157.561 190.427,156.427 189.965,155.728 189.817 C 155.028 189.670,154.241 189.290,153.979 188.974 C 153.717 188.658,153.249 188.400,152.939 188.400 C 152.629 188.400,151.346 187.982,150.088 187.471 C 148.830 186.960,146.450 186.042,144.800 185.432 C 143.150 184.822,141.055 183.992,140.143 183.588 C 139.232 183.183,137.844 182.732,137.058 182.584 C 136.272 182.437,135.424 182.070,135.174 181.769 C 134.924 181.468,134.063 181.100,133.260 180.953 C 132.457 180.805,131.371 180.350,130.846 179.942 C 130.321 179.534,129.601 179.194,129.246 179.187 C 128.891 179.181,127.700 178.732,126.600 178.191 C 125.500 177.650,124.374 177.206,124.099 177.204 C 123.823 177.202,122.925 176.840,122.104 176.400 C 121.284 175.960,120.367 175.600,120.068 175.600 C 119.768 175.600,119.046 175.339,118.462 175.020 C 117.878 174.701,115.690 173.786,113.600 172.988 C 111.510 172.190,109.206 171.268,108.480 170.940 C 107.753 170.612,106.510 170.238,105.717 170.109 C 104.924 169.980,103.943 169.543,103.538 169.138 C 103.132 168.732,102.343 168.400,101.784 168.400 C 101.225 168.400,100.280 168.057,99.684 167.637 C 99.088 167.218,97.943 166.763,97.140 166.627 C 96.337 166.490,95.470 166.125,95.213 165.815 C 94.955 165.505,94.172 165.130,93.472 164.983 C 92.773 164.835,91.639 164.373,90.953 163.957 C 90.267 163.541,89.367 163.199,88.953 163.197 C 88.539 163.196,87.660 162.837,87.000 162.400 C 86.340 161.963,85.474 161.604,85.075 161.603 C 84.677 161.601,83.403 161.152,82.245 160.604 C 81.087 160.056,79.523 159.488,78.770 159.342 C 78.016 159.196,76.971 158.744,76.446 158.338 C 75.921 157.932,74.998 157.600,74.395 157.600 C 73.792 157.600,73.090 157.350,72.837 157.044 C 72.583 156.739,71.526 156.275,70.488 156.014 C 69.450 155.753,68.330 155.303,68.000 155.014 C 67.670 154.725,66.770 154.356,66.000 154.192 C 65.230 154.029,64.171 153.559,63.646 153.148 C 63.121 152.737,62.306 152.400,61.835 152.400 C 61.364 152.400,60.623 152.154,60.189 151.854 C 59.755 151.554,58.950 151.175,58.400 151.012 C 57.850 150.850,56.680 150.398,55.800 150.008 C 54.920 149.618,53.210 148.938,52.000 148.496 C 45.153 146.000,42.851 145.098,41.521 144.389 C 40.707 143.955,39.699 143.600,39.280 143.600 C 38.862 143.600,37.673 143.150,36.638 142.600 C 35.604 142.050,34.429 141.600,34.028 141.600 C 33.626 141.600,33.078 141.335,32.809 141.011 C 32.540 140.686,31.663 140.301,30.860 140.155 C 30.057 140.009,28.770 139.576,28.000 139.193 C 24.612 137.509,22.894 136.787,21.400 136.416 C 20.520 136.198,19.087 135.655,18.215 135.210 C 17.344 134.764,16.349 134.400,16.004 134.400 C 15.660 134.400,15.023 134.157,14.589 133.861 C 13.484 133.105,11.678 132.866,9.800 133.226 " stroke="none" fill="#f1c79d" fill-rule="evenodd"></path></g></svg>