<svg xmlns="http://www.w3.org/2000/svg" width="163.2" height="35.52" viewBox="0 0 680 148" shape-rendering="geometricPrecision"><path fill="#333" d="M272.85 85.198L261.013 53.29c-.483-1.305-2.329-1.305-2.813 0L246.365 85.2a1.5 1.5 0 0 0 1.407 2.021h23.671a1.5 1.5 0 0 0 1.406-2.022m5.469 17.934h-37.42a1.5 1.5 0 0 0-1.406.978l-7.367 19.854a1.5 1.5 0 0 1-1.406.978H214.5a1.5 1.5 0 0 1-1.392-2.058l37.341-93.022a1.5 1.5 0 0 1 1.393-.94h15.53c.612 0 1.163.372 1.392.94l37.34 93.021a1.5 1.5 0 0 1-1.392 2.06h-16.216a1.5 1.5 0 0 1-1.406-.979l-7.368-19.854a1.5 1.5 0 0 0-1.406-.978m35.387-41.564h13.872a1.5 1.5 0 0 1 1.5 1.5v60.374a1.5 1.5 0 0 1-1.5 1.5h-13.872a1.5 1.5 0 0 1-1.5-1.5V63.068a1.5 1.5 0 0 1 1.5-1.5m65.964 14.687a1.5 1.5 0 0 1-1.5 1.5h-.42c-6.859 0-11.89 1.646-15.09 4.938-3.202 3.292-4.8 8.734-4.8 16.324v24.426a1.5 1.5 0 0 1-1.5 1.5h-13.736a1.5 1.5 0 0 1-1.5-1.5V63.068a1.5 1.5 0 0 1 1.5-1.5h13.598a1.5 1.5 0 0 1 1.5 1.5V75.01h.275c1.646-4.938 4.252-8.731 7.82-11.385 3.565-2.651 7.955-3.978 13.167-3.978h.686v16.607zm37.93-.558a1.5 1.5 0 0 0-1.5 1.5v25.112c0 2.561.5 4.39 1.508 5.487 1.005 1.097 2.743 1.646 5.212 1.646h1.381a1.5 1.5 0 0 1 1.5 1.5v12.637a1.5 1.5 0 0 1-1.5 1.5h-5.908c-6.127 0-10.836-1.577-14.128-4.732-3.293-3.155-4.939-7.84-4.939-14.06v-29.09a1.5 1.5 0 0 0-1.5-1.5h-8.659a1.5 1.5 0 0 1-1.5-1.5V63.068a1.5 1.5 0 0 1 1.5-1.5h8.66a1.5 1.5 0 0 0 1.5-1.5V37.691a1.5 1.5 0 0 1 1.5-1.5h13.872a1.5 1.5 0 0 1 1.5 1.5v22.377a1.5 1.5 0 0 0 1.5 1.5h10.031a1.5 1.5 0 0 1 1.5 1.5v11.13a1.5 1.5 0 0 1-1.5 1.5h-10.03zm63.521 30.453c3.155-3.292 4.732-7.59 4.732-12.895 0-5.302-1.577-9.602-4.732-12.894-3.155-3.292-7.294-4.938-12.415-4.938-5.122 0-9.258 1.646-12.414 4.938-3.154 3.292-4.732 7.592-4.732 12.894 0 5.305 1.578 9.603 4.732 12.895 3.156 3.292 7.292 4.938 12.414 4.938 5.121 0 9.26-1.646 12.415-4.938m-32.03 16.872c-4.664-2.651-8.346-6.516-11.042-11.591-2.699-5.075-4.047-11.133-4.047-18.176 0-7.04 1.348-13.1 4.047-18.175 2.696-5.075 6.378-8.937 11.042-11.591 4.664-2.652 9.784-3.978 15.363-3.978 4.938 0 9.167.96 12.69 2.88 3.518 1.92 6.33 4.619 8.435 8.094h.274v-7.417a1.5 1.5 0 0 1 1.5-1.5h13.735a1.5 1.5 0 0 1 1.5 1.5v60.374a1.5 1.5 0 0 1-1.5 1.5H487.35a1.5 1.5 0 0 1-1.5-1.5v-7.416h-.274c-2.105 3.477-4.917 6.173-8.436 8.093-3.522 1.92-7.75 2.88-12.689 2.88-5.579 0-10.699-1.326-15.363-3.977m110.62-16.872c3.155-3.292 4.732-7.59 4.732-12.895 0-5.302-1.577-9.602-4.732-12.894-3.154-3.292-7.293-4.938-12.414-4.938-5.122 0-9.259 1.646-12.414 4.938-3.154 3.292-4.733 7.592-4.733 12.894 0 5.305 1.579 9.603 4.733 12.895 3.155 3.292 7.292 4.938 12.414 4.938 5.121 0 9.26-1.646 12.414-4.938m-20.85 17.969c-3.521-1.92-6.334-4.616-8.436-8.093h-.275v7.416a1.5 1.5 0 0 1-1.5 1.5h-13.872a1.5 1.5 0 0 1-1.5-1.5V30.42a1.5 1.5 0 0 1 1.5-1.5h13.872a1.5 1.5 0 0 1 1.5 1.5v40.064h.275c2.102-3.475 4.915-6.173 8.436-8.093 3.52-1.921 7.75-2.881 12.689-2.881 5.577 0 10.699 1.326 15.363 3.978 4.664 2.654 8.344 6.516 11.042 11.59C580.649 80.156 582 86.216 582 93.256c0 7.043-1.351 13.1-4.047 18.176-2.698 5.075-6.378 8.94-11.042 11.59-4.664 2.652-9.786 3.979-15.363 3.979-4.939 0-9.169-.96-12.689-2.881m66.513.823H591.5a1.5 1.5 0 0 1-1.5-1.5v-93.02a1.5 1.5 0 0 1 1.5-1.5h13.872a1.5 1.5 0 0 1 1.5 1.5v93.02a1.5 1.5 0 0 1-1.5 1.5m32.722-48.696c-2.3 1.794-3.853 4.384-4.657 7.772-.221.934.508 1.83 1.468 1.83h26.4c.916 0 1.636-.82 1.488-1.724-.528-3.205-1.902-5.76-4.123-7.672-2.606-2.24-6.014-3.36-10.22-3.36-4.207 0-7.66 1.051-10.356 3.154m33.813-7.888c5.395 5.9 8.093 14.245 8.093 25.034v1.792a1.5 1.5 0 0 1-1.5 1.5h-44.104a1.51 1.51 0 0 0-1.485 1.766c.705 4.008 2.478 7.192 5.32 9.551 3.245 2.7 7.339 4.047 12.277 4.047 6.375 0 12.276-2.488 17.702-7.465.663-.608 1.714-.479 2.228.26l6.744 9.68a1.5 1.5 0 0 1-.23 1.982 49.67 49.67 0 0 1-10.944 7.271c-4.39 2.148-9.557 3.224-15.5 3.224-6.858 0-12.85-1.396-17.97-4.184-5.123-2.788-9.1-6.72-11.933-11.797-2.836-5.075-4.253-10.95-4.253-17.627 0-6.674 1.372-12.572 4.115-17.695 2.743-5.12 6.584-9.098 11.523-11.934 4.938-2.833 10.699-4.252 17.284-4.252 9.69 0 17.236 2.95 22.633 8.847m-341.02-29.11c0 5.658-4.587 10.245-10.246 10.245-5.66 0-10.247-4.587-10.247-10.246 0-5.659 4.588-10.246 10.247-10.246s10.246 4.587 10.246 10.246"/><path fill="#FCB400" d="M79 1.867L13.04 29.16c-3.668 1.518-3.63 6.729.061 8.192l66.235 26.266a24.575 24.575 0 0 0 18.12 0l66.236-26.267c3.69-1.462 3.73-6.672.06-8.19L97.794 1.866a24.578 24.578 0 0 0-18.795 0"/><path fill="#18BFFF" d="M94.273 77.96v65.617c0 3.12 3.147 5.258 6.048 4.108l73.806-28.648a4.418 4.418 0 0 0 2.79-4.108V49.313c0-3.121-3.147-5.258-6.048-4.108L97.063 73.853a4.42 4.42 0 0 0-2.79 4.108"/><path fill="#F82B60" d="M77.038 81.346L55.134 91.922l-2.224 1.075-46.238 22.155C3.742 116.566 0 114.43 0 111.174V49.588c0-1.178.604-2.195 1.414-2.96a5.024 5.024 0 0 1 1.12-.84c1.104-.663 2.68-.84 4.02-.31L76.67 73.26c3.564 1.414 3.844 6.408.368 8.087"/><path fill="rgba(0, 0, 0, 0.25)" d="M77.038 81.346L55.134 91.922 1.414 46.627a5.024 5.024 0 0 1 1.12-.839c1.104-.663 2.68-.84 4.02-.31L76.67 73.26c3.564 1.414 3.844 6.408.368 8.087"/></svg>