<svg xmlns="http://www.w3.org/2000/svg" width="42.46" height="35.52" shape-rendering="geometricPrecision" viewBox="0 0 176.917 148.002"><path fill="#fcb400" d="M79 1.869 13.04 29.162c-3.668 1.518-3.63 6.729.061 8.192L79.336 63.62a24.575 24.575 0 0 0 18.12 0l66.236-26.267c3.69-1.462 3.73-6.672.06-8.19L97.794 1.868a24.578 24.578 0 0 0-18.795 0"/><path fill="#18bfff" d="M94.273 77.962v65.617c0 3.12 3.147 5.258 6.048 4.108l73.806-28.648a4.418 4.418 0 0 0 2.79-4.108V49.315c0-3.121-3.147-5.258-6.048-4.108L97.063 73.855a4.42 4.42 0 0 0-2.79 4.108"/><path fill="#f82b60" d="M77.038 81.348 55.134 91.924l-2.224 1.075-46.238 22.155C3.742 116.568 0 114.432 0 111.176V49.59c0-1.178.604-2.195 1.414-2.96a5.024 5.024 0 0 1 1.12-.84c1.104-.663 2.68-.84 4.02-.31L76.67 73.262c3.564 1.414 3.844 6.408.368 8.087"/><path fill="rgba(0, 0, 0, 0.25)" d="M77.038 81.348 55.134 91.924 1.414 46.629a5.024 5.024 0 0 1 1.12-.84c1.104-.662 2.68-.84 4.02-.31L76.67 73.263c3.564 1.414 3.844 6.408.368 8.087"/></svg>