<svg width="250" height="250" viewBox="0 0 250 250" fill="none" xmlns="http://www.w3.org/2000/svg">
<path d="M117.041 60.7251L58.5611 85.0552C55.3091 86.4084 55.3428 91.0537 58.6152 92.3579L117.339 115.772C122.498 117.83 128.244 117.83 133.404 115.772L192.128 92.357C195.4 91.0537 195.435 86.4093 192.182 85.0561L133.704 60.7242C128.368 58.5045 122.375 58.5045 117.04 60.7242" fill="#FCB400"/>
<path d="M130.582 128.558V187.051C130.582 189.833 133.372 191.738 135.944 190.713L201.38 165.175C202.11 164.884 202.736 164.38 203.177 163.727C203.618 163.074 203.854 162.303 203.854 161.513V103.02C203.854 100.238 201.064 98.3332 198.492 99.3584L133.056 124.896C132.326 125.187 131.7 125.692 131.259 126.345C130.818 126.998 130.582 127.769 130.582 128.558" fill="#18BFFF"/>
<path d="M115.302 131.576L95.8815 141.004L93.9097 141.962L52.9154 161.712C50.3176 162.973 47 161.068 47 158.166V103.266C47 102.215 47.5355 101.309 48.2536 100.627C48.5483 100.332 48.8825 100.08 49.2466 99.8781C50.2254 99.2871 51.6227 99.1293 52.8107 99.6018L114.975 124.368C118.135 125.628 118.383 130.08 115.302 131.577" fill="#F82B60"/>
<path d="M115.302 131.576L95.8815 141.004L48.2537 100.626C48.5483 100.331 48.8826 100.08 49.2466 99.8781C50.2254 99.2871 51.6227 99.1293 52.8108 99.6018L114.975 124.368C118.135 125.628 118.383 130.08 115.302 131.577" fill="black" fill-opacity="0.25"/>
</svg>
