<svg xmlns="http://www.w3.org/2000/svg" width="250" height="250" fill="none"><g clip-path="url(#a)"><path fill="#FCB400" d="M114.347 39.3 37.243 71.74c-4.288 1.805-4.243 7.998.071 9.737l77.426 31.22a28.288 28.288 0 0 0 21.181 0l77.427-31.221c4.313-1.738 4.36-7.93.07-9.734l-77.102-32.443a28.29 28.29 0 0 0-21.97 0"/><path fill="#18BFFF" d="M132.2 129.743v77.992c0 3.708 3.679 6.25 7.07 4.883l86.276-34.051a5.189 5.189 0 0 0 2.369-1.931 5.313 5.313 0 0 0 .892-2.952v-77.99c0-3.71-3.679-6.25-7.07-4.883l-86.275 34.051a5.184 5.184 0 0 0-2.369 1.932 5.316 5.316 0 0 0-.893 2.951"/><path fill="#F82B60" d="m112.054 133.768-25.605 12.571-2.6 1.277-54.05 26.333c-3.425 1.681-7.799-.858-7.799-4.728v-73.2c0-1.4.706-2.61 1.653-3.518a5.88 5.88 0 0 1 1.31-.999c1.29-.788 3.132-.998 4.698-.368l81.962 33.021c4.167 1.681 4.494 7.617.431 9.612"/><path fill="#000" fill-opacity=".25" d="m112.054 133.768-25.605 12.57-62.796-53.837a5.91 5.91 0 0 1 1.31-.997c1.29-.788 3.132-.998 4.698-.368l81.962 33.021c4.167 1.681 4.494 7.617.431 9.612"/></g><defs><clipPath id="a"><path fill="#fff" d="M22 37h207v176H22z"/></clipPath></defs></svg>