<?xml version="1.0" encoding="UTF-8" standalone="no"?>
<svg
   xmlns:dc="http://purl.org/dc/elements/1.1/"
   xmlns:cc="http://creativecommons.org/ns#"
   xmlns:rdf="http://www.w3.org/1999/02/22-rdf-syntax-ns#"
   xmlns:svg="http://www.w3.org/2000/svg"
   xmlns="http://www.w3.org/2000/svg"
   id="svg4458"
   version="1.1"
   viewBox="0 0 149.36909 37.663967"
   height="37.663967mm"
   width="149.36909mm">
  <defs
     id="defs4452" />
  <metadata
     id="metadata4455">
    <rdf:RDF>
      <cc:Work
         rdf:about="">
        <dc:format>image/svg+xml</dc:format>
        <dc:type
           rdf:resource="http://purl.org/dc/dcmitype/StillImage" />
        <dc:title></dc:title>
      </cc:Work>
    </rdf:RDF>
  </metadata>
  <g
     transform="translate(13.452402,-84.644208)"
     id="layer1">
    <g
       transform="matrix(0.35277777,0,0,-0.35277777,17.912364,84.644208)"
       id="g3989">
      <path
         id="path3991"
         style="fill:#1677ff;fill-opacity:1;fill-rule:nonzero;stroke:none"
         d="m 0,0 h -71.95 c -9.37,0 -16.958,-7.655 -16.958,-17.104 v -72.559 c 0,-9.443 7.588,-17.101 16.958,-17.101 H 0 c 9.368,0 16.952,7.658 16.952,17.101 v 72.559 C 16.952,-7.655 9.368,0 0,0" />
    </g>
    <g
       transform="matrix(0.35277777,0,0,-0.35277777,-3.3614425,113.60801)"
       id="g3993">
      <path
         id="path3995"
         style="fill:#ffffff;fill-opacity:1;fill-rule:nonzero;stroke:none"
         d="m 0,0 c -16.469,0 -21.338,13.083 -13.199,20.241 2.716,2.419 7.679,3.6 10.325,3.865 9.783,0.975 18.839,-2.789 29.526,-8.05 C 19.14,6.173 9.572,0 0,0 m 58.554,15.064 c -4.236,1.431 -9.92,3.619 -16.251,5.929 3.802,6.666 6.839,14.257 8.835,22.507 H 30.271 v 7.58 h 25.562 v 4.231 H 30.271 V 67.947 H 19.839 c -1.83,0 -1.83,-1.822 -1.83,-1.822 V 55.311 H -7.844 V 51.08 H 18.009 V 43.5 H -3.336 V 39.27 H 38.062 C 36.547,34.006 34.513,29.064 32.099,24.574 18.666,29.044 4.332,32.667 -4.673,30.437 -10.432,29.006 -14.141,26.452 -16.32,23.776 -26.321,11.504 -19.148,-7.136 1.973,-7.136 c 12.488,0 24.518,7.022 33.842,18.594 C 49.722,4.716 77.256,-6.86 77.256,-6.86 V 9.638 c 0,0 -3.458,0.278 -18.702,5.426" />
    </g>
    <g
       transform="matrix(0.35277777,0,0,-0.35277777,67.639214,90.15791)"
       id="g3997">
      <path
         id="path3999"
         style="fill:#1677ff;fill-opacity:1;fill-rule:nonzero;stroke:none"
         d="m 0,0 c 0,-5.523 4.036,-9.241 9.666,-9.241 5.63,0 9.666,3.718 9.666,9.241 0,5.417 -4.036,9.242 -9.666,9.242 C 4.036,9.242 0,5.417 0,0" />
    </g>
    <path
       id="path4001"
       style="fill:#000000;fill-opacity:1;fill-rule:nonzero;stroke:none;stroke-width:0.35277775"
       d="m 58.121127,115.07721 h 5.920669 V 87.722087 h -5.920669 z" />
    <g
       transform="matrix(0.35277777,0,0,-0.35277777,39.122104,105.59659)"
       id="g4003">
      <path
         id="path4005"
         style="fill:#000000;fill-opacity:1;fill-rule:nonzero;stroke:none"
         d="M 0,0 9.984,34.522 H 10.41 L 19.864,0 Z M 24.432,48.012 H 1.912 l -25.175,-74.887 h 15.509 l 4.249,14.659 h 26.662 l 4.035,-14.659 h 19.865 z" />
    </g>
    <path
       id="path4007"
       style="fill:#000000;fill-opacity:1;fill-rule:nonzero;stroke:none;stroke-width:0.35277775"
       d="m 68.088862,115.07721 h 5.920669 V 94.991814 h -5.920669 z" />
    <g
       transform="matrix(0.35277777,0,0,-0.35277777,135.87965,95.029286)"
       id="g4009">
      <path
         id="path4011"
         style="fill:#000000;fill-opacity:1;fill-rule:nonzero;stroke:none"
         d="m 0,0 0.105,0.106 h -15.827 l -9.984,-34.628 h -0.531 L -37.709,0.106 h -18.803 l 22.627,-57.148 -9.454,-17.42 v -0.425 h 14.765 z" />
    </g>
    <g
       transform="matrix(0.35277777,0,0,-0.35277777,84.990094,111.62983)"
       id="g4013">
      <path
         id="path4015"
         style="fill:#000000;fill-opacity:1;fill-rule:nonzero;stroke:none"
         d="m 0,0 c -1.911,0 -3.718,0.212 -5.735,0.85 v 30.804 c 3.505,2.443 6.373,3.612 9.984,3.612 6.268,0 11.26,-4.993 11.26,-15.615 C 15.509,6.055 8.18,0 0,0 m 10.623,48.331 c -6.161,0 -10.941,-2.337 -16.358,-6.798 v 5.63 H -22.52 V -27.83 h 16.785 v 18.589 c 3.186,-0.85 6.16,-1.275 9.772,-1.275 14.977,0 28.468,11.047 28.468,30.698 0,17.633 -9.774,28.149 -21.882,28.149" />
    </g>
    <g
       transform="matrix(0.35277777,0,0,-0.35277777,108.8615,110.20581)"
       id="g4017">
      <path
         id="path4019"
         style="fill:#000000;fill-opacity:1;fill-rule:nonzero;stroke:none"
         d="m 0,0 c -4.461,-2.443 -7.012,-3.399 -9.984,-3.399 -4.037,0 -6.586,2.655 -6.586,6.904 0,1.594 0.318,3.187 1.592,4.461 2.019,2.019 5.95,3.506 14.978,5.63 z m 16.783,0.425 v 23.793 c 0,12.96 -7.647,20.076 -21.137,20.076 -8.605,0 -14.553,-1.486 -25.388,-4.779 l 2.973,-13.066 c 9.879,4.462 14.235,6.374 18.803,6.374 5.524,0 7.966,-3.93 7.966,-9.985 v -0.425 c -19.227,-3.612 -25.175,-5.63 -28.893,-9.348 -2.761,-2.762 -3.929,-6.692 -3.929,-11.259 0,-10.941 8.498,-16.784 16.465,-16.784 5.948,0 10.727,2.231 17.208,7.118 l 1.168,-5.949 h 16.783 z" />
    </g>
  </g>
</svg>
