<svg xmlns="http://www.w3.org/2000/svg" width="325.675" height="345.617"><g fill-rule="evenodd"><path fill="#acccfc" d="M162.239 53.953c0 .22-.36.4-.8.4-.44 0-.8.18-.8.4 0 .22-.358.4-.798.4-.44 0-.8.18-.8.398 0 .22-.36.4-.798.4-.44 0-.8.136-.8.302 0 .386-2.104 1.324-3.145 1.402-.437.033-.707.203-.6.377.173.28-.877.475-1.16.217-.06-.055-.538.3-1.063.79-.525.49-1.555 1.087-2.29 1.33-.732.241-1.332.605-1.332.808 0 .202-.234.368-.52.368-.735 0-2.67.94-2.674 1.3-.001.164-.362.3-.802.3-.44 0-.8.18-.8.398 0 .22-.36.4-.798.4-.44 0-.8.18-.8.4 0 .22-.46.4-1.022.4-.563 0-.926.156-.807.35.119.191-.48.46-1.331.596-.858.137-1.655.527-1.788.874-.133.345-.401.528-.596.408-.196-.12-.781.104-1.302.501-1.06.808-3.583 1.906-4.043 1.761-.165-.053-.3.085-.3.304 0 .22-.277.4-.616.4-.338 0-1.002.36-1.473.8-.472.44-1.274.798-1.782.798s-.924.18-.924.4c0 .22-.36.4-.8.4-.438 0-.798.18-.798.4 0 .22-.36.4-.8.4-.44 0-.8.134-.8.298-.001.165-.99.75-2.196 1.3-1.207.55-2.196 1.133-2.197 1.298 0 .165-.451.3-1 .3-.55 0-1 .18-1 .4 0 .22-.27.4-.598.4-.33 0-.6.18-.6.398 0 .22-.36.4-.8.4-.44 0-.798.18-.798.4 0 .22-.36.4-.8.4-.44 0-.8.18-.8.4 0 .218-.358.398-.798.398-.44 0-.8.136-.8.302 0 .318-1.511 1.031-3.196 1.508-.55.156-1.314.56-1.698.897-.385.338-.7.468-.7.29 0-.178-.36.002-.8.4-.438.398-.798.583-.798.413 0-.17-.225-.127-.5.098-1.064.873-10.076 5.308-10.93 5.378-.494.041-.812.216-.705.39.165.267-.175.35-1.26.306-.113-.005-.597.355-1.074.8-.476.443-1.003.807-1.17.807-.167 0-1.958.9-3.98 1.998-2.023 1.1-3.928 1.998-4.234 1.998-.306 0-.942.36-1.414.8-.472.438-1.273.798-1.781.798s-.924.18-.924.4c0 .22-.27.4-.6.4-.33 0-.6.19-.6.423 0 .232-.164.321-.366.196-.202-.125-.607.012-.9.304-.292.293-.664.57-.826.614-.163.046-.523.157-.8.248s-.863.232-1.302.313c-.44.08-.75.374-.69.652.06.278-.06.401-.267.272-.208-.128-.621-.006-.92.27-.297.277-.797.561-1.112.631-.614.136-3.42 1.446-4.404 2.056-.33.204-2.038 1.054-3.796 1.888-4.092 1.942-4.864 2.596-4.037 3.423.33.331.49.714.355.85-.136.136-.007.247.287.247.769 0 5.992 2.515 5.992 2.885 0 .172.36.312.799.312.44 0 .799.17.799.376 0 .208.36.308.8.223.439-.085.799.016.799.223 0 .207.36.377.799.377.44 0 .799.18.799.4 0 .22.36.4.8.4.439 0 .799.18.799.398 0 .22.37.4.822.4.453 0 .712.18.576.4-.136.22.079.405.476.412.883.015 2.209.966 1.849 1.325-.143.143.13.261.606.261s.866.18.866.4c0 .22.134.377.299.351.875-.138 1.636.13 2.406.847.47.44 1.152.8 1.512.8.36 0 1.13.32 1.715.713.583.392 1.6.955 2.259 1.251 1.506.676 3.587 1.727 5.387 2.721l1.39.77 2.147-1.13c1.18-.62 2.398-1.129 2.705-1.129.308 0 .559-.18.559-.4 0-.219.36-.399.799-.399.44 0 .8-.135.803-.3.003-.365 1.944-1.299 2.697-1.299.299 0 .432-.179.297-.399-.136-.22.123-.4.575-.4.453 0 .823-.18.823-.399 0-.22.36-.4.799-.4.44 0 .8-.18.8-.4 0-.219.323-.399.719-.399.893 0 2.87-.893 2.874-1.299.002-.165.237-.3.523-.3.735 0 2.67-.939 2.674-1.298 0-.165.463-.3 1.025-.3.58 0 .916-.173.776-.4-.22-.354.62-.594 1.528-.437.18.032.216-.127.076-.352-.14-.225-.066-.409.162-.409s1.812-.655 3.52-1.454c1.708-.8 3.106-1.385 3.106-1.3 0 .084.567-.25 1.26-.745.693-.493 1.637-.897 2.098-.897.46 0 .837-.18.837-.4 0-.219.36-.399.8-.399.439 0 .8-.135.802-.3.004-.35 1.93-1.299 2.64-1.299.268 0 .547-.143.62-.319.202-.484 6.2-3.677 6.908-3.677.34 0 .618-.179.618-.399 0-.22.36-.4.799-.4.44 0 .799-.18.799-.399 0-.22.36-.4.8-.4.439 0 .799-.18.799-.4 0-.219.344-.399.766-.399.42 0 .826-.14.899-.314.16-.378 6.417-3.5 6.788-3.388.144.044.48-.184.748-.507.268-.322.655-.586.86-.586.205 0 1.428-.524 2.717-1.164 1.29-.639 2.449-1.059 2.575-.932.127.127.23.021.23-.235 0-.257.36-.467.8-.467.44 0 .8-.179.8-.399 0-.22.359-.4.799-.4.439 0 .8-.135.802-.3.004-.364 1.944-1.298 2.698-1.298.298 0 .432-.18.296-.4-.136-.22.113-.399.552-.399.44 0 .91-.18 1.046-.4.136-.22.607-.4 1.047-.4.439 0 .688-.18.552-.399-.14-.227.195-.4.775-.4.563 0 1.023.18 1.023.4 0 .22.36.4.799.4.44 0 .799.18.799.4 0 .22.36.4.8.4.439 0 .799.178.799.398 0 .22.359.4.799.4.44 0 .799.18.799.4 0 .22.27.4.6.4.329 0 .599.18.599.4 0 .218.36.398.799.398.44 0 .799.18.799.4 0 .22.36.4.8.4.439 0 .799.18.799.4 0 .22.265.4.589.4.803 0 4.206 1.68 4.206 2.076 0 .176.315.321.699.323.385.001 1.215.271 1.844.6.63.327 1.394.596 1.698.596.305 0 .554.18.554.4 0 .22.287.4.638.4.35 0 1.115.331 1.698.736.584.405 1.645.988 2.36 1.296.714.308 1.298.696 1.298.862 0 .166.36.302.799.302.44 0 .8.18.8.4 0 .22.359.4.799.4.439 0 .799.18.799.4 0 .22.259.398.575.398.546 0 4.997 2.27 5.419 2.763.11.13.47.292.799.363.33.071 2.257.938 4.282 1.927 2.025.99 3.795 1.773 3.932 1.743.138-.03.498.271.8.67.304.4.557.563.564.365.007-.199.372-.037.812.361.439.398.799.6.799.448 0-.152.405-.052.899.222.495.275 1.034.461 1.199.414.165-.047.3.095.3.315s.18.4.404.4c.607 0 4.17 1.713 4.324 2.078.074.176.478.32.899.32.422 0 .766.18.766.4 0 .218.45.398.999.398.55 0 .999.18.999.4 0 .22.36.4.799.4.44 0 .8.18.8.4 0 .22.359.4.799.4.439 0 .799.178.799.398 0 .22.36.4.799.4.44 0 .799.18.799.4 0 .22.36.4.8.4.439 0 .799.18.799.4 0 .218.37.398.823.398.452 0 .71.18.575.4-.135.22.017.4.339.4.683 0 3.995 1.657 4.19 2.097.074.165.478.3.899.3.422 0 .766.18.766.4 0 .22.36.4.799.4.44 0 .8.18.8.4 0 .22.344.398.766.398.42 0 .825.171.899.38.073.208.987-.056 2.03-.586 1.045-.53 1.899-.885 1.899-.788 0 .098.844-.358 1.877-1.012 1.032-.655 2.11-1.19 2.397-1.19.287 0 .52-.18.52-.4 0-.22.35-.4.777-.4.426 0 .887-.179 1.022-.399.136-.22.596-.4 1.023-.4.427 0 .776-.18.776-.399 0-.22.37-.4.822-.4.453 0 .712-.18.576-.4-.136-.219.124-.399.576-.399.453 0 .823-.18.823-.4 0-.22.36-.399.799-.399.44 0 .799-.18.799-.4 0-.22.338-.4.75-.4.413 0 .973-.267 1.245-.595.27-.327.653-.496.848-.376.195.121.354.03.354-.204 0-.233.28-.423.623-.423.343 0 .512-.18.376-.4-.136-.219.123-.399.576-.399.452 0 .823-.158.823-.35 0-.192.517-.453 1.15-.58.633-.126 1.402-.463 1.708-.749.307-.285.823-.579 1.147-.652.815-.184 6.764-3.15 7.436-3.707 1.055-.876.517-1.454-2.95-3.168-1.923-.95-3.586-1.83-3.696-1.956-.11-.125-.47-.285-.8-.357-.33-.07-.66-.296-.732-.499-.073-.204-.467-.37-.875-.37-.41 0-.845-.166-.971-.369-.125-.203-.765-.487-1.422-.63-.657-.145-1.194-.425-1.194-.623 0-.199-.45-.473-1-.61-.55-.139-.998-.424-.998-.634 0-.209-.332-.325-.738-.256-.406.07-1.035-.122-1.4-.423-.362-.302-.66-.424-.66-.27 0 .151-.284-.008-.631-.356-.347-.347-.797-.529-1-.404-.201.125-.366.036-.366-.196 0-.233-.27-.424-.6-.424-.33 0-.6-.179-.6-.399 0-.22-.36-.4-.798-.4-.44 0-.8-.18-.8-.399 0-.22-.46-.4-1.022-.4-.58 0-.916-.173-.776-.4.136-.219-.123-.399-.576-.399-.452 0-.822-.18-.822-.4 0-.22-.36-.399-.8-.399-.44 0-.8-.18-.8-.4 0-.22-.358-.4-.798-.4-.44 0-.8-.179-.8-.399 0-.22-.175-.4-.39-.4-.805 0-7.563-3.502-7.288-3.776.157-.158.106-.25-.113-.206-.941.19-1.826-.045-1.593-.423.14-.226.105-.384-.076-.353-.887.154-1.655-.109-2.435-.836-.472-.44-1.13-.799-1.462-.799-.738 0-3.514-1.519-3.92-2.145-.16-.249-.295-.313-.298-.143-.004.171-.591 0-1.305-.382-.715-.38-1.434-.655-1.6-.609-.163.045-.298-.086-.298-.29 0-.43-1.556-1.03-2.298-.888-.275.053-.5-.092-.5-.32 0-.23-.45-.418-1-.418-.548 0-.998-.18-.998-.4 0-.22-.36-.399-.8-.399-.438 0-.798-.18-.798-.4 0-.22-.36-.4-.8-.4-.44 0-.798-.18-.798-.399 0-.22-.36-.4-.8-.4-.44 0-.8-.18-.8-.399 0-.22-.358-.4-.798-.4-.44 0-.8-.18-.8-.4 0-.219-.37-.399-.822-.399-.452 0-.712-.18-.576-.4.136-.22.003-.399-.296-.399-.754 0-2.694-.935-2.698-1.299-.001-.165-.362-.3-.802-.3-.44 0-.8-.18-.8-.399 0-.22-.36-.4-.798-.4-.44 0-.8-.18-.8-.4 0-.219-.36-.399-.8-.399-.438 0-.798-.18-.798-.4 0-.22-.36-.4-.8-.4-.44 0-.798-.179-.798-.399 0-.22-.216-.4-.48-.4-.668 0-10.23-4.74-10.524-5.219-.132-.213-.393-.294-.58-.178-.187.115-.59-.04-.894-.345-.305-.304-1.13-.68-1.831-.834-.702-.154-1.276-.446-1.276-.648 0-.203-.36-.368-.8-.368-.44 0-.798-.18-.798-.4 0-.219-.36-.399-.8-.399-.44 0-.8-.18-.8-.4 0-.22-.358-.4-.798-.4-.44 0-.8-.134-.802-.299-.004-.359-1.94-1.299-2.674-1.299-.286 0-.52-.18-.52-.4 0-.219-.36-.399-.8-.399-.44 0-.8-.135-.8-.3 0-.165-.99-.749-2.196-1.299-1.207-.549-2.196-1.133-2.196-1.298-.001-.165-.34-.3-.752-.3-.413 0-2.1-.719-3.75-1.598-3.083-1.644-3.891-1.893-3.891-1.199m-.8 51.548c0 .22-.36.4-.8.4-.438 0-.798.18-.798.4 0 .22-.36.4-.8.4-.44 0-.798.18-.798.4 0 .22-.36.398-.8.398-.44 0-.8.18-.8.4 0 .22-.358.4-.798.4-.44 0-.8.18-.8.4 0 .22-.36.4-.798.4-.44 0-.8.18-.8.398 0 .22-.36.4-.8.4-.438 0-.798.18-.798.4 0 .22-.362.4-.805.4-.767 0-2.366.715-2.791 1.25-.11.137-1.64.91-3.397 1.716-4.36 2-15.895 7.826-16.364 8.266-.208.195-.793.356-1.298.356-.506 0-.92.18-.92.4 0 .22-.36.4-.8.4-.438 0-.8.134-.801.298-.004.36-1.94 1.3-2.674 1.3-.286 0-.52.134-.521.3-.001.164-.99.748-2.196 1.298-1.208.55-2.196 1.133-2.197 1.298-.001.165-.235.3-.521.3-.735 0-2.67.94-2.674 1.3-.002.163-.363.298-.802.298-.44 0-.8.18-.8.4 0 .22-.36.4-.8.4-.438 0-.798.18-.798.4 0 .22-.315.4-.7.401-.384.002-1.214.271-1.843.6-.63.328-1.317.597-1.527.597-.21 0-.654.271-.986.603-.331.331-.75.512-.928.402-.18-.11-.428.064-.552.39-.13.334-.492.487-.841.353-.338-.129-.615-.036-.615.207s-.37.442-.823.442c-.452 0-.711.18-.575.4.135.22-.11.4-.543.4-.434 0-.857.202-.94.45-.082.246-.636.448-1.231.448h-1.083v31.41l2.198 1.075c1.209.592 2.198 1.235 2.198 1.428 0 .194.225.352.499.35.632-.004 7.247 3.288 7.426 3.696.074.167.352.303.62.303.709 0 2.637.948 2.64 1.3.002.164.256.3.565.3.573 0 3.872 1.594 4.234 2.046.11.138.784.377 1.498.532.715.155 1.299.447 1.299.65 0 .201.257.367.57.367.315 0 .848.276 1.186.614.337.337.71.604.829.592.64-.064 2.21.53 2.21.835 0 .196.36.357.8.357.439 0 .799.18.799.4 0 .22.359.4.799.4.44 0 .799.18.799.398 0 .22.36.4.799.4.44 0 .8.18.8.4 0 .22.254.4.566.4.31 0 .626.145.699.323.073.178 1.069.785 2.213 1.35 1.143.565 1.953 1.154 1.798 1.308-.155.155-.102.245.118.201 1.01-.204 1.827.045 1.56.475-.161.262-.111.354.117.213.433-.267 5.827 2.38 6.049 2.968.073.195.433.355.799.356.366.001 1.385.445 2.264.987.88.541 1.869.994 2.198 1.005.33.012 1.049.373 1.599.803.549.43 1.23.786 1.514.791.284.004 1.018.38 1.63.833.615.454 1.372.885 1.684.958 1.5.353 2.364.74 2.364 1.061 0 .194.36.353.8.353.439 0 .799.18.799.4 0 .22.359.4.799.4.44 0 .799.18.799.4 0 .22.345.4.766.4.42 0 .834.203.918.454.17.514 3.11-.369 3.11-.935 0-.176.327-.32.725-.32.398 0 1.11-.359 1.582-.799.472-.439 1.124-.799 1.45-.799.326 0 .699-.172.829-.382.13-.21.5-.28.823-.157.322.124.586.026.586-.217 0-.244.36-.443.8-.443.444 0 .799-.266.799-.599 0-.33.135-.57.3-.534.669.146 2.72-.642 3.458-1.329.433-.404 1.114-.735 1.512-.735.398 0 .724-.179.724-.399 0-.22.344-.4.766-.4.42 0 .826-.135.899-.299.188-.424 5.127-2.898 5.784-2.898.298 0 .543-.179.543-.399 0-.22.27-.4.599-.4.33 0 .6-.18.6-.399 0-.22.449-.4.999-.4.549 0 .999-.18.999-.4 0-.219.37-.399.822-.399.453 0 .712-.18.576-.4-.136-.22.079-.413.476-.429.398-.016 1.262-.369 1.922-.785 1.746-1.1 5.935-3.173 6.349-3.14.195.014.465-.123.599-.307.239-.327 3.047-1.725 3.452-1.719.112.002.595-.36 1.072-.804.476-.444 1.263-.808 1.747-.808.485 0 .989-.28 1.12-.625.133-.343.4-.525.598-.404.196.122.577-.045.847-.369.27-.325.65-.492.845-.372.194.12.354.03.354-.204 0-.233.359-.423.799-.423.44 0 .799-.136.799-.302 0-.323 2.193-1.395 2.64-1.29.148.034.378-.093.512-.282.346-.486 6.929-3.728 7.56-3.724.289.002.413-.177.277-.396-.136-.22.029-.4.366-.4.336 0 1.38-.432 2.32-.96l1.71-.96.104-15.388.105-15.388-1.203-.533c-.662-.293-1.204-.668-1.204-.835 0-.166-.2-.302-.443-.302-.725 0-4.352-1.766-4.352-2.119 0-.179-.165-.223-.368-.098-.202.125-.653-.059-1.002-.408-.35-.35-.858-.56-1.131-.469-.273.092-.676-.075-.896-.372-.22-.296-.848-.625-1.397-.73-.55-.105-1.058-.373-1.132-.595-.074-.222-.48-.403-.901-.403-.421 0-.766-.18-.766-.4 0-.22-.36-.4-.8-.4-.438 0-.8-.135-.801-.299-.004-.365-1.944-1.299-2.698-1.299-.298 0-.432-.18-.296-.4.139-.225-.185-.399-.742-.399-.544 0-1.05-.135-1.123-.3-.192-.432-3.501-2.098-4.167-2.098-.31 0-.561-.18-.561-.399 0-.22-.27-.4-.6-.4-.33 0-.6-.21-.6-.466 0-.257-.111-.355-.248-.218-.233.233-4.113-1.529-4.546-2.066-.11-.136-.47-.3-.8-.364-.98-.19-3.996-1.853-3.996-2.204 0-.178-.191-.205-.426-.06-.234.145-.697-.07-1.028-.476-.332-.407-.465-.47-.297-.14.338.661-.918-.154-1.54-.999-.161-.22-.295-.264-.3-.098-.002.165-.86-.136-1.903-.669-3.963-2.025-7.918-3.828-8.395-3.828-.273 0-.496-.18-.496-.4 0-.22-.36-.4-.8-.4-.44 0-.8-.179-.8-.399 0-.22-.232-.4-.518-.4-.735 0-2.671-.94-2.674-1.299-.002-.164-.363-.299-.803-.299-.44 0-.8-.18-.8-.4 0-.22-.358-.399-.798-.399-.44 0-.8-.18-.8-.4 0-.22-.36-.4-.798-.4-.44 0-.8-.179-.8-.399 0-.22-.36-.4-.8-.4-.438 0-.798-.18-.798-.399 0-.22-.36-.4-.8-.4-.44 0-.798-.18-.798-.4 0-.219-.63-.399-1.4-.399-.768 0-1.398.18-1.398.4"/><path fill="#649cf4" d="M49.152 179.056c0 59.54-.075 57.115 1.769 57.115.346 0 .628.18.628.4 0 .22.36.4.799.4.44 0 .8.18.8.398 0 .22.359.4.799.4.439 0 .799.18.799.4 0 .22.263.4.584.4.68 0 7.145 3.253 7.34 3.696.075.164.363.3.64.3.28 0 1.299.414 2.266.921.966.506 2.387 1.17 3.156 1.474.769.304 2.073.97 2.897 1.481.824.511 1.499.8 1.499.644 0-.157.215-.069.479.195.264.263.803.48 1.199.48s.719.18.719.4c0 .218.36.398.8.398.439 0 .799.18.799.4 0 .22.359.4.799.4.439 0 .799.18.799.4 0 .22.36.4.799.4.44 0 .8.19.8.425 0 .234.453.37 1.007.3l1.007-.127-.005-55.345c-.005-52.329-.044-55.373-.708-55.872-.386-.29-3.4-1.865-6.696-3.499-3.297-1.634-6.444-3.228-6.993-3.542a23.18 23.18 0 0 0-2.298-1.094c-.714-.288-1.298-.659-1.298-.825 0-.167-.36-.302-.8-.302-.44 0-.8-.18-.8-.4 0-.22-.36-.4-.798-.4-.44 0-.8-.179-.8-.399 0-.22-.36-.4-.8-.4-.438 0-.798-.146-.798-.325 0-.179-.63-.572-1.398-.874-.77-.3-1.4-.695-1.4-.873 0-.179-.253-.325-.564-.325-.311 0-1.923-.72-3.583-1.599-1.66-.879-3.113-1.598-3.23-1.598-.118 0-.214 25.187-.214 55.972m226.573-55.602c0 .236-.45.43-1 .43-.548 0-.998.18-.998.4 0 .218-.36.398-.8.398-.44 0-.798.136-.798.302 0 .166-.585.554-1.3.862-.713.308-1.775.891-2.358 1.297-.584.405-1.266.736-1.516.736s-.84.36-1.312.8c-.472.44-1.184.798-1.582.798-.398 0-.723.18-.723.4 0 .22-.243.4-.54.4-.7 0-3.046 1.14-4.025 1.956-.422.353-.636.416-.476.141.418-.714.105-.618-.944.292-.501.435-1.068.694-1.26.576-.191-.119-.348-.06-.348.131 0 .19-1.304.965-2.897 1.721-1.593.757-2.987 1.486-3.097 1.62-.11.134-.874.484-1.698.78-.824.294-1.5.68-1.5.855 0 .175-.324.32-.723.32-.398 0-1.118.366-1.6.815l-.875.816.1 55.228.102 55.228.899.128c.495.07.899-.065.899-.3s.253-.427.562-.427c.309 0 1.253-.346 2.098-.769a48.686 48.686 0 0 1 2.835-1.297c.714-.29 1.299-.682 1.299-.872 0-.189.256-.246.57-.126.313.121.785-.04 1.048-.357.263-.316.725-.575 1.028-.575.303 0 .55-.21.55-.467 0-.256.1-.365.225-.24.123.122 1.607-.45 3.297-1.272 1.689-.822 4.69-2.278 6.668-3.235 1.978-.958 3.657-1.885 3.73-2.06.073-.175.478-.319.899-.319.42 0 .766-.14.766-.312s.809-.55 1.798-.843c.989-.292 1.798-.658 1.798-.812 0-.155.63-.528 1.4-.83l1.4-.55-.101-55.963c-.096-52.935-.14-55.97-.801-56.098-.384-.074-.7.058-.7.294m-50.674 62.22c-.95.49-2.156 1.171-2.684 1.517-.527.345-1.234.628-1.572.628-.337 0-.613.18-.613.4 0 .22-.225.4-.5.398-.49 0-3.901 1.595-4.296 2.01-.11.115-1.638.94-3.396 1.831-3.79 1.922-4.403 2.236-6.038 3.086-.683.355-1.358.53-1.498.39-.141-.14-.256-.067-.256.163 0 .415-4.215 2.674-4.542 2.435-.093-.068-.548.22-1.011.638-.462.418-.847.598-.854.4-.007-.2-.284-.003-.616.437s-.656.71-.72.6c-.154-.269-4.367 1.681-4.74 2.193-.16.222-.295.257-.298.077-.004-.18-.53.045-1.167.5-.638.454-1.403.83-1.698.835-.296.004-.988.36-1.537.79-.55.43-1.224.785-1.5.79-.273.005-.498.19-.498.41 0 .218-.283.398-.628.398-.345 0-.9.272-1.231.603-.332.332-.77.501-.971.376-.202-.125-.367-.036-.367.196 0 .233-.234.424-.52.424-.735 0-2.67.94-2.674 1.298-.001.165-.362.3-.802.3-.44 0-.801.135-.802.3-.004.36-1.94 1.298-2.674 1.298-.286 0-.52.158-.52.352 0 .381-2.408 1.497-2.897 1.342-.165-.052-.3.085-.3.304 0 .22-.37.4-.823.4-.452 0-.711.18-.575.4.135.22-.124.4-.576.4-.453 0-.823.18-.823.4 0 .22-.24.398-.532.398-.292 0-1.381.431-2.42.956-1.785.904-3.187.98-3.671.195-.12-.193-.566-.35-.993-.35-.427 0-.776-.152-.776-.337 0-.185-.713-.57-1.585-.859-.872-.288-1.49-.676-1.375-.863.116-.187-.16-.34-.612-.34-.453 0-.823-.18-.823-.4 0-.219-.135-.356-.3-.304-.49.155-2.897-.96-2.897-1.342 0-.194-.135-.31-.3-.262-.448.133-2.897-1.038-2.897-1.386 0-.166-.36-.302-.8-.302-.44 0-.798-.157-.798-.35 0-.192-.518-.453-1.151-.579-.633-.127-1.42-.5-1.75-.83-.33-.33-.684-.517-.786-.415-.101.101-.85-.267-1.663-.819-.814-.55-1.585-1.003-1.714-1.003-.13 0-3.09-1.44-6.576-3.199-3.487-1.76-6.346-3.063-6.352-2.897-.007.166-.192-.006-.411-.38-.22-.377-1.023-.802-1.786-.945-.763-.143-1.388-.387-1.388-.54 0-.155-.63-.528-1.398-.83-.77-.302-1.4-.695-1.4-.874 0-.179-.252-.325-.56-.325-.666 0-3.976-1.666-4.167-2.098-.074-.165-.371-.3-.662-.3-.641 0-3.947-1.678-4.134-2.097-.073-.165-.34-.3-.592-.3-.763 0-5.468-2.463-5.468-2.86 0-.205-.225-.333-.5-.285-.704.122-2.697-.899-2.697-1.382 0-.22-.113-.289-.251-.15-.137.137-.758-.013-1.378-.334-2.963-1.532-2.767-2.82-2.767 18.118 0 19.48.016 19.66 1.679 19.66.395 0 .719.146.719.325 0 .18.629.572 1.399.874.769.302 1.398.651 1.398.776s.585.47 1.299.765l2.697 1.116c.769.318 1.71.75 2.093.96.38.208.966.38 1.298.38.333 0 .605.18.605.398 0 .22.234.4.52.4.285 0 .744.225 1.019.5.274.274.625.514.779.532 1.023.12 2.477.712 2.477 1.01 0 .195.36.356.8.356.439 0 .799.18.799.4 0 .22.359.4.799.4.44 0 .799.145.799.324 0 .18.63.572 1.399.874.769.301 1.398.695 1.398.873 0 .18.276.325.614.325.337 0 1.97.72 3.63 1.6 1.66.878 3.282 1.597 3.606 1.597.324 0 .478.18.342.4-.136.22.123.4.576.4.453 0 .823.21.823.466s.116.35.258.207c.219-.218 2.568.907 5.936 2.843.715.411 3.687 1.727 4.195 1.857.693.178 3.487 1.677 3.929 2.107.292.286.697.417.899.292.202-.125.367-.037.367.196s.36.423.799.423c.44 0 .8.18.8.4 0 .22.233.4.519.4.735 0 2.67.94 2.674 1.298.002.165.374.3.826.3.453 0 .712.18.576.4-.14.226.196.4.776.4.562 0 1.022.18 1.022.398 0 .22.36.4.799.4.44 0 .8.18.8.4 0 .22.349.4.775.4.427 0 .887.18 1.023.4.136.22.596.398 1.022.398.427 0 .777.135.779.3.013 1.261 4.146 1.631 5.59.5.55-.43 1.189-.786 1.42-.79.672-.015 2.57-.98 2.574-1.308.002-.165.363-.3.803-.3.439 0 .799-.18.799-.4 0-.219.46-.399 1.022-.399.58 0 .916-.173.776-.4-.136-.22.123-.399.576-.399.452 0 .823-.18.823-.4 0-.22.344-.4.766-.4.42 0 .825-.14.899-.314.147-.348 4.014-2.249 5.428-2.669.494-.147.899-.435.899-.64 0-.205.224-.37.499-.367.61.008 6.029-2.578 9.708-4.63.923-.517 1.792-.826 1.929-.688.138.138.25.041.25-.215 0-.257.36-.467.8-.467.44 0 .8-.179.8-.399 0-.22.359-.4.799-.4.439 0 .8-.135.802-.299.004-.35 1.932-1.299 2.64-1.299.268 0 .547-.136.62-.302.074-.165 1.392-.929 2.93-1.696 1.539-.767 2.858-1.53 2.93-1.697.075-.165.479-.3.9-.3.422 0 .766-.18.766-.4 0-.22.36-.4.799-.4.44 0 .8-.18.8-.4 0-.22.277-.4.615-.4.338 0 1.327-.363 2.198-.807.87-.444 1.585-.669 1.588-.499.004.17.139.108.3-.135.257-.387 3.758-2.11 4.312-2.122.113-.002.49-.289.839-.638.349-.348 1.15-.737 1.784-.863.633-.127 1.15-.388 1.15-.58 0-.192.36-.35.8-.35.44 0 .799-.179.799-.399 0-.22.27-.4.6-.4.329 0 .599-.18.599-.399 0-.22.283-.4.628-.4 1.777 0 1.783-.077 1.674-20.017-.116-21.093.115-19.71-3.027-18.092"/><path fill="#4484f4" d="M158.894 1.413c-1.51.765-2.994 1.391-3.297 1.391-.303 0-.551.18-.551.4 0 .22-.36.4-.8.4-.44 0-.8.158-.8.352 0 .194-.403.485-.898.646-.494.161-.99.324-1.1.363-.11.04-.76.37-1.446.737-.687.367-1.361.554-1.5.416-.137-.138-.25-.04-.25.216s-.36.466-.8.466c-.438 0-.798.146-.798.325 0 .18-.63.572-1.398.874-.77.302-1.4.695-1.4.874 0 .178-.271.325-.604.325-.653 0-2.244.798-2.628 1.318-.13.176-.62.35-1.088.384-.47.036-.946.308-1.06.605-.114.297-.39.43-.61.292-.222-.137-.403-.058-.403.174 0 .233-.36.423-.8.423-.438 0-.798.18-.798.4 0 .22-.315.404-.7.41-.384.003-1.148.36-1.698.79-.55.43-1.313.784-1.698.79-.385.004-.7.166-.7.36 0 .292-2.137 1.402-2.796 1.452-.11.008-.693.345-1.296.748-.603.403-1.376.625-1.72.494-.357-.138-.518-.072-.378.155.225.365-.332.574-1.143.43-.188-.035-.668.316-1.07.777-.4.462-.838.81-.974.772-.481-.132-2.61.917-2.61 1.286 0 .206-.154.28-.341.164-.187-.116-.682.048-1.1.363-.416.316-1.072.58-1.456.587-.385.007-.7.192-.7.412 0 .22-.27.4-.6.4-.33 0-.598.18-.598.4 0 .22-.27.4-.6.4-.33 0-.602.224-.605.498-.005.392-.074.394-.318.01-.23-.36-.463-.282-.881.3-.323.447-1.032.79-1.638.79-.587 0-1.171.27-1.298.6-.126.328-.46.604-.742.612-.877.023-3.537 1.424-3.25 1.711.15.15-.116.273-.592.273s-.866.18-.866.4c0 .22-.46.4-1.022.4-.58 0-.916.172-.776.4.14.225-.196.398-.775.398-.563 0-1.023.18-1.023.4 0 .22-.36.4-.8.4-.44 0-.798.18-.798.4 0 .22-.36.4-.8.4-.44 0-.8.18-.8.398 0 .22-.346.4-.77.4-.423 0-1.04.27-1.37.6-.33.33-1.061.6-1.627.6-.565 0-1.027.18-1.027.398 0 .22-.236.4-.524.4-.288 0-.91.36-1.382.8-.472.44-1.233.798-1.69.798-.458 0-1.22.36-1.691.8-.472.44-1.184.8-1.582.8-.398 0-.723.18-.723.398 0 .22-.36.4-.8.4-.44 0-.8.18-.8.4 0 .22-.36.4-.798.4-.44 0-.8.18-.8.4 0 .22-.36.398-.798.398-.44 0-.8.18-.8.4 0 .22-.36.4-.8.4-.438 0-.798.18-.798.4 0 .22-.36.4-.8.4-.44 0-.798.18-.798.398 0 .22-.36.4-.8.4-.44 0-.8.135-.802.3-.004.36-1.94 1.298-2.674 1.298-.286 0-.52.18-.52.4 0 .22-.27.4-.6.4-.33 0-.6.135-.602.3-.003.358-1.938 1.298-2.674 1.298-.285 0-.52.18-.52.4 0 .22-.36.4-.798.4-.44 0-.8.18-.8.4 0 .22-.36.398-.8.398-.438 0-.798.18-.798.4 0 .22-.35.4-.776.4-.426 0-.888.182-1.026.406-.138.223-.42.302-.623.176-.205-.126-.372-.039-.372.193 0 .233-.166.423-.37.423-.898 0-4.425 1.85-4.425 2.322 0 .287-.17.42-.374.292-.324-.2-3.868 1.228-4.422 1.782-.477.477-2.037 1.2-2.592 1.2-.332 0-.605.18-.605.398 0 .22-.36.4-.8.4-.438 0-.8.135-.801.3-.004.36-1.94 1.298-2.674 1.298-.286 0-.52.18-.52.4 0 .22-.37.4-.823.4-.452 0-.711.18-.575.4.136.22-.124.4-.576.4-.453 0-.824.134-.826.3-.004.357-1.94 1.297-2.674 1.297-.286 0-.52.18-.52.4 0 .22-.344.4-.766.4-.421 0-.825.178-.9.396-.072.218-.613.435-1.202.484-.59.05-.983.23-.876.403.107.173-.042.315-.331.315-.29 0-3.214 1.35-6.501 2.997-3.286 1.648-6.215 2.997-6.507 2.997-.293 0-.92.36-1.39.8-.747.695-1.11.831-2.114.79-.193-.008-.708.381-1.908 1.44-.27.236-.712.356-.985.265-.273-.09-.496.03-.496.268 0 .238-.367.433-.816.433-.448 0-1.202.36-1.673.8-.472.44-1.094.798-1.382.798-.29 0-.524.18-.524.4 0 .22-.45.4-1 .4s-.998.18-.998.4c0 .22-.27.4-.6.4-.33 0-.6.18-.6.398 0 .22-.45.4-.998.4-.55 0-1.001.135-1.002.3-.004.314-1.901 1.298-2.503 1.298-.404 0-1.49 1.02-1.49 1.4 0 .491 1.146 1.398 1.769 1.398.346 0 .628.18.628.4 0 .22.36.4.8.4.439 0 .799.18.799.398 0 .22.449.4.999.4.549 0 .999.18.999.4 0 .22.404.402.899.405.727.005.784.08.3.394-.467.302-.357.388.499.393.605.004 1.099.186 1.099.406 0 .22.36.4.799.4.44 0 .799.18.799.4 0 .22.27.4.6.4.33 0 .599.18.599.398 0 .22.36.4.799.4.44 0 .8.18.8.4 0 .22.234.4.519.4.736 0 2.67.94 2.674 1.298.002.165.363.3.803.3.439 0 .799.18.799.4 0 .22.345.4.766.4.42 0 .826.134.899.298.073.165 1.032.724 2.13 1.243a85.806 85.806 0 0 1 2.798 1.372c2.723 1.463 5.043 2.444 5.524 2.335.182-.04.233.083.114.275-.221.357.552.811 2.854 1.677.714.268 1.298.646 1.298.84 0 .192.36.35.8.35.439 0 .799.18.799.4 0 .22.27.4.599.4.33 0 .6-.18.6-.4 0-.22.359-.4.799-.4.439 0 .799-.179.799-.399 0-.22.36-.4.799-.4.44 0 .799-.18.799-.399 0-.22.315-.403.7-.407.384-.004 1.666-.54 2.847-1.192 1.182-.65 2.293-1.094 2.47-.985.177.11.423.035.547-.166.32-.518 3.336-2.046 4.038-2.046.323 0 .587-.15.587-.335 0-.185.72-.573 1.599-.863.879-.29 1.598-.64 1.598-.776s.495-.46 1.099-.72c.604-.26 1.369-.64 1.698-.844.33-.204 1.499-.793 2.598-1.308 1.099-.515 2.088-1.029 2.197-1.142.11-.113.409-.245.665-.294.255-.048 1.12-.533 1.922-1.077.8-.544 1.716-.89 2.033-.768.316.121.575.022.575-.222 0-.243.37-.442.823-.442.453 0 .712-.18.576-.399-.215-.348.595-.59 1.498-.447.165.026.3-.133.3-.353 0-.219.36-.399.799-.399.44 0 .8-.158.8-.35 0-.195.584-.577 1.298-.85 2.88-1.107 3.497-1.406 3.497-1.695 0-.166.28-.302.623-.302.369 0 .507-.188.338-.46-.182-.295-.11-.354.2-.163.536.332 2.923-.509 2.659-.937-.092-.148.315-.308.904-.357.588-.048 1.13-.266 1.203-.484.073-.218.478-.396.899-.396.42 0 .766-.27.766-.6 0-.329.135-.566.3-.525.449.111 3.433-1.247 3.705-1.686.129-.21.72-.422 1.312-.47.592-.05 1.077-.23 1.077-.403 0-.172.389-.312.866-.312.476 0 .742-.123.592-.274-.281-.28 3.137-2.059 4.036-2.1.275-.014.5-.204.5-.424 0-.219.37-.399.823-.399.452 0 .71-.18.575-.4-.14-.226.196-.399.776-.399.562 0 1.023-.18 1.023-.4 0-.22.344-.4.765-.4.422 0 .826-.134.9-.299.19-.432 3.5-2.098 4.167-2.098.308 0 .56-.18.56-.4 0-.219.36-.399.8-.399.44 0 .8-.168.8-.374s.629-.6 1.398-.88c.769-.278 1.399-.66 1.399-.848 0-.189.158-.245.35-.126.427.263 2.847-.893 2.847-1.36 0-.184.359-.239.799-.124.564.147.799.012.799-.46 0-.369.139-.585.309-.48.17.105 1.379-.334 2.687-.975 1.308-.642 2.608-1.167 2.888-1.167.28 0 .51-.179.51-.399 0-.22.359-.4.799-.4.439 0 .799-.18.799-.399 0-.22.36-.4.799-.4.44 0 .799-.18.799-.4 0-.219.27-.399.6-.399.329 0 .599-.18.599-.4 0-.219.36-.399.799-.399.44 0 .8-.18.8-.4 0-.22.359-.4.799-.4.439 0 .799-.179.799-.399 0-.22.36-.4.799-.4.44 0 .799-.18.799-.399 0-.22.36-.4.8-.4.439 0 .799-.18.799-.4 0-.219.282-.399.628-.399.345 0 .899-.272 1.23-.603.332-.332.769-.5.97-.376.203.125.369.036.369-.196 0-.233.359-.424.799-.424.439 0 .799-.179.799-.399 0-.22.37-.4.823-.4.452 0 .71-.18.576-.399-.14-.227.195-.4.775-.4.563 0 1.023-.18 1.023-.4 0-.219.293-.399.652-.399.669 0 3.449-1.547 3.663-2.039.065-.15.47-.182.899-.07.429.112.78.004.78-.242s.359-.446.799-.446c.44 0 .799-.18.799-.4 0-.22.197-.4.438-.4.24 0 .918-.342 1.506-.76.587-.418 1.424-.823 1.86-.899.435-.076 1.038-.372 1.339-.658.3-.285 1.066-.623 1.699-.749.632-.127 1.15-.354 1.15-.505 0-.152.63-.522 1.399-.824.769-.302 1.398-.695 1.398-.874 0-.179.36-.325.8-.325.439 0 .799-.18.799-.4 0-.219.344-.399.766-.399.42 0 .856-.225.967-.5.16-.399.208-.399.233 0 .018.275.39.5.83.5.44 0 .8.18.8.4 0 .22.448.4.996.4.563 0 1.212.346 1.495.798.274.44.69.8.927.8.235 0 1.172.36 2.082.8.91.438 1.854.798 2.097.798.243 0 .314.207.157.461-.158.256-.111.354.105.22.215-.132.892.02 1.506.338.614.32 1.288.58 1.499.58.21 0 .653.271.985.602.332.332.769.501.97.376.203-.125.368-.036.368.196 0 .233.27.424.599.424.33 0 .6.2.6.443 0 .271.424.355 1.099.215.604-.125.874-.129.599-.01-.685.298-.636 1.088.05.824.304-.116.78 0 1.059.257.396.366.444.338.218-.13-.16-.33.068-.196.505.3.437.493 1.08.898 1.429.898s.635.18.635.4c0 .22.36.4.799.4.44 0 .8.135.8.301 0 .167.752.537 1.67.824.92.287 2.162.87 2.76 1.296.598.426 1.475.775 1.949.775.473 0 .768.15.655.332-.113.183.416.576 1.176.874.759.298 1.38.707 1.38.91 0 .201.244.274.54.16.299-.115 1.01.225 1.582.756.572.53 1.508.964 2.08.964.572 0 .94.161.819.357-.121.196.215.466.748.6.533.134 1.206.474 1.496.756.29.283 1.32.748 2.289 1.034.969.286 2.018.775 2.33 1.088.312.312.733.466.935.341.203-.125.368-.059.368.147 0 .207.539.6 1.199.872.659.273 1.198.633 1.198.801 0 .167.405.401.9.518 1.549.37 3.689 1.25 4.799 1.978.586.384 1.253.7 1.48.7.228 0 .414.18.414.398 0 .22.349.4.775.4.427 0 .887.18 1.023.4.136.22.596.4 1.023.4.426 0 .775.18.775.4 0 .218.37.398.823.398.453 0 .712.18.576.4-.144.233.262.4.975.4.673 0 1.223.18 1.223.4 0 .22.359.4.799.4.439 0 .799.18.799.398 0 .22.36.4.799.4.44 0 .799.18.799.4 0 .22.36.4.8.4.439 0 .8.134.802.3.004.358 1.939 1.297 2.674 1.297.286 0 .52.18.52.4 0 .22.269.4.599.4.33 0 .599.18.599.4 0 .22.21.4.468.4.722 0 5.926 2.533 5.926 2.884 0 .172.36.312.799.312.44 0 .799.18.799.4 0 .22.252.4.559.4.582 0 4.838 2.134 5.726 2.871.28.233.509.275.509.094 0-.18.215-.113.479.151s.803.48 1.199.48.719.18.719.4c0 .22.36.4.799.4.44 0 .8.178.8.398 0 .22.359.4.799.4.439 0 .799.18.799.4 0 .22.36.4.799.4.44 0 .799.18.799.4 0 .218.36.398.8.398.439 0 .799.18.799.4 0 .22.36.4.799.4.44 0 .799.18.799.4 0 .22.345.4.766.4.42 0 .826.134.899.3.074.166 1.392.93 2.93 1.697 1.539.767 2.858 1.53 2.93 1.696.074.166.479.302.9.302.42 0 .766.18.766.4 0 .22.36.4.799.4.44 0 .8.18.8.398 0 .22.143.355.318.3.395-.124 4.227 1.786 4.41 2.198.073.165.467.3.876.3.408 0 .86.192 1.006.426.145.235.524.327.843.205.319-.123.482-.064.362.13-.264.426.898.932 1.41.615.2-.124.365.055.365.398s.135.585.3.538c.164-.046.708.142 1.207.418.499.277 1.11.377 1.36.223.278-.17.343-.1.168.182-.18.291.018.461.538.461.452 0 .823.18.823.4 0 .22.359.4.799.4.439 0 .799.135.799.301 0 .596 2.566 1.113 3.496.703.495-.217.9-.532.9-.7 0-.168.359-.305.799-.305.439 0 .799-.18.799-.399 0-.22.36-.4.799-.4.44 0 .799-.19.799-.423 0-.233.18-.312.4-.176.22.135.4.056.4-.177 0-.232.359-.423.799-.423.439 0 .799-.156.799-.348 0-.19.854-.583 1.898-.87 1.044-.288 2.168-.807 2.498-1.154.329-.347 1.138-.878 1.798-1.18a80.469 80.469 0 0 0 2.652-1.296c.799-.41 1.743-.746 2.097-.746.355 0 .645-.168.645-.374s.63-.6 1.399-.879 1.399-.65 1.399-.826c0-.175.269-.319.599-.319.33 0 .599-.18.599-.399 0-.22.37-.4.823-.4.453 0 .712-.18.576-.4-.14-.226.196-.399.776-.399.562 0 1.024-.135 1.025-.3.004-.359 1.939-1.299 2.674-1.299.286 0 .52-.168.52-.373 0-.206.629-.602 1.399-.88.769-.278 1.398-.649 1.398-.825 0-.176.36-.319.799-.319.44 0 .8-.18.8-.4 0-.22.282-.399.628-.399.623 0 1.769-.907 1.769-1.399 0-.493-1.146-1.399-1.77-1.399-.345 0-.627-.18-.627-.399 0-.22-.36-.4-.8-.4-.44 0-.8-.18-.8-.399 0-.22-.27-.4-.598-.4-.33 0-.6-.18-.6-.4 0-.219-.45-.399-1-.399-.548 0-.998-.147-.998-.325 0-.179-.63-.572-1.398-.874-.77-.302-1.4-.695-1.4-.874 0-.179-.358-.325-.798-.325-.44 0-.8-.18-.8-.399 0-.22-.36-.4-.798-.4-.44 0-.8-.18-.8-.4 0-.219-.252-.399-.561-.399-.666 0-3.975-1.667-4.167-2.098-.074-.165-.444-.3-.824-.3-.38 0-1.054-.339-1.5-.753-.443-.414-1.411-.885-2.15-1.047-.738-.163-1.571-.498-1.85-.746-1.431-1.269-1.796-1.45-2.93-1.45-.722 0-1.322-.246-1.458-.599-.126-.33-.57-.6-.986-.6-.416 0-.756-.18-.756-.399 0-.22-.36-.4-.8-.4-.44 0-.8-.18-.8-.4 0-.219-.36-.399-.798-.399-.44 0-.8-.18-.8-.4 0-.219-.233-.399-.52-.399-.734 0-2.67-.94-2.673-1.299-.002-.165-.27-.3-.593-.3-.603 0-4.897-2.18-5.584-2.835-.21-.199-.804-.362-1.322-.362-.527 0-.834-.176-.696-.399.136-.22-.033-.4-.376-.4-.343 0-.623-.18-.623-.399 0-.22-.473-.4-1.052-.4-.58 0-1.364-.36-1.745-.799-.381-.44-1.167-.839-1.745-.887-.58-.047-1.052-.194-1.052-.325 0-.344-3.17-1.985-3.834-1.985-.31 0-.562-.18-.562-.4 0-.219-.273-.399-.607-.399-.334 0-1.32-.45-2.19-.999-.87-.55-1.856-.999-2.19-.999-.334 0-.607-.18-.607-.4 0-.22-.234-.399-.52-.399-.735 0-2.67-.94-2.674-1.299-.002-.165-.255-.3-.562-.3-.307 0-1.584-.539-2.838-1.199-1.253-.659-2.457-1.198-2.675-1.198-.217 0-.853-.36-1.411-.8-.56-.439-1.27-.799-1.58-.799-.308 0-.947-.359-1.42-.799-.471-.439-1.146-.799-1.501-.799-.354 0-.814-.156-1.023-.346-.69-.627-4.788-2.727-6.294-3.224-.813-.269-1.478-.673-1.478-.899 0-.227-.257-.313-.571-.193-.313.12-.785-.04-1.047-.357-.263-.316-.726-.576-1.03-.576-.301 0-.55-.142-.55-.316 0-.174-.818-.536-1.818-.804-1.253-.335-1.731-.64-1.535-.982.157-.272.144-.368-.028-.212-.172.155-1.003-.07-1.846-.5-.844-.43-1.81-.782-2.15-.782-.337 0-.614-.18-.614-.4 0-.219-.36-.399-.8-.399-.44 0-.8-.18-.8-.4 0-.22-.358-.399-.798-.399-.44 0-.8-.135-.802-.3-.004-.359-1.94-1.299-2.674-1.299-.286 0-.52-.146-.52-.325 0-.179-.63-.572-1.398-.874-.77-.3-1.4-.695-1.4-.873 0-.179-.36-.325-.798-.325-.44 0-.8-.18-.8-.4 0-.22-.46-.4-1.022-.4-.58 0-.916-.173-.776-.399.136-.22-.123-.4-.575-.4-.453 0-.823-.18-.823-.399 0-.22-.36-.4-.8-.4-.44 0-.8-.18-.8-.4 0-.219-.358-.399-.798-.399-.44 0-.8-.18-.8-.4 0-.22-.45-.399-.998-.399-.55 0-1-.159-1-.353 0-.357-1.295-.91-2.397-1.022-.33-.034-.554-.278-.5-.542.056-.265-.248-.48-.675-.48-.426 0-.888-.184-1.026-.407-.138-.223-.42-.303-.623-.176-.205.126-.372-.05-.372-.393a.62.62 0 0 0-.613-.623c-.337 0-1.5-.45-2.584-.999-1.084-.55-2.247-.999-2.584-.999-.337 0-.613-.18-.613-.4 0-.22-.36-.4-.8-.4-.44 0-.798-.179-.798-.399 0-.22-.27-.4-.6-.4-.33 0-.6-.16-.6-.355 0-.196-.808-.595-1.797-.887-.99-.292-1.8-.638-1.8-.768s-.628-.485-1.397-.787c-.77-.302-1.4-.695-1.4-.874 0-.179-.233-.325-.52-.325-.734 0-2.67-.94-2.672-1.298-.002-.165-.363-.3-.803-.3-.44 0-.8-.18-.8-.4 0-.22-.233-.399-.52-.399-.734 0-2.67-.94-2.673-1.299-.001-.165-.352-.3-.778-.3-.427 0-.887-.18-1.023-.399-.136-.22-.596-.4-1.023-.4-.426 0-.775-.18-.775-.4 0-.219-.277-.399-.616-.399-.34 0-1.003-.36-1.474-.8-.472-.439-1.14-.754-1.482-.699-.343.055-.58-.125-.524-.399.055-.275-.26-.5-.7-.5-.44 0-.8-.19-.8-.423 0-.233-.15-.33-.333-.217-.184.114-1.165-.235-2.18-.775-1.014-.54-2.101-.982-2.413-.982-.313 0-.793-.27-1.067-.6-.867-1.045-3.537-.715-6.541.807M0 181.446c0 88.6-.091 84.295 1.769 84.295.346 0 .628.18.628.4 0 .22.36.4.8.4.439 0 .799.18.799.4 0 .22.415.398.923.398.509 0 1.31.36 1.782.8.472.44 1.236.8 1.697.8.462 0 .729.18.593.398-.136.22.108.4.542.4.435 0 .852.188.929.417.076.23.533.448 1.015.484.482.036.79.151.686.256-.206.206 3.35 1.98 4.045 2.017.233.013.814.386 1.29.83.478.445.967.792 1.088.772.379-.063 2.595.942 6.874 3.116 2.27 1.154 4.366 2.098 4.657 2.098.29 0 .824.327 1.185.726.36.4 1.558.971 2.659 1.271 1.102.3 2.003.692 2.003.873 0 .18.36.327.799.327.44 0 .8.135.8.3 0 .164.99.75 2.197 1.298 1.207.55 2.196 1.134 2.196 1.3 0 .164.362.3.8.3.44 0 .8.18.8.398 0 .22.36.4.799.4.44 0 .8.18.8.4 0 .22.359.4.799.4.439 0 .799.18.799.4 0 .218.36.398.799.398.44 0 .799.18.799.4 0 .22.45.4.999.4.55 0 .999.18.999.4 0 .22.27.4.6.4.33 0 .599.18.599.398 0 .22.345.4.766.4.42 0 .826.136.899.301.074.166 1.392.93 2.93 1.697 1.539.767 2.858 1.531 2.93 1.696.074.166.449.302.834.302.384 0 .834.135.999.3.164.164.419.307.566.316.146.01.842.324 1.545.7.703.375 1.557.682 1.898.682.34 0 .619.18.619.4 0 .22.36.4.8.4.439 0 .799.18.799.4 0 .22.344.398.766.398.42 0 .825.136.899.302.073.166 1.392.93 2.93 1.696 1.539.768 2.857 1.531 2.93 1.697.074.166.478.301.9.301.42 0 .766.18.766.4 0 .22.46.4 1.022.4.58 0 .916.172.776.4-.136.22-.003.4.296.4.754 0 2.694.933 2.698 1.297 0 .165.362.3.802.3.439 0 .799.18.799.4 0 .22.36.4.799.4.44 0 .8.18.8.4 0 .22.269.4.599.4.33 0 .599.178.599.398 0 .22.377.4.838.4.46 0 1.314.321 1.898.713.583.393 1.6.977 2.259 1.3.66.32 1.289.674 1.399.785.453.46 3.222 1.23 3.594 1 .22-.137.402.031.402.374 0 .343.135.636.3.653 1.302.13 2.319.455 2.43.781.074.213.388.388.7.388.31 0 .566.18.566.4 0 .22.27.4.599.4.33 0 .6.18.6.4 0 .218.275.398.612.398.896 0 6.2 2.645 5.902 2.943-.14.14.316.254 1.012.254s1.266.135 1.266.3c0 .164.99.75 2.197 1.298 1.207.55 2.195 1.134 2.196 1.3 0 .164.27.3.6.3.33 0 .6.18.6.398 0 .22.324.4.72.4.395 0 .89.165 1.099.368.854.827 4.976 2.71 5.002 2.283.014-.249.225-.04.468.462.252.524.674.826.987.706.3-.115.648.056.772.381.125.325.396.486.602.36.207-.129.672.007 1.034.301.562.455.609.446.323-.066-.184-.33.062-.19.547.31.485.498 1.05.802 1.257.674.207-.127.376-.03.376.215 0 .246.16.348.354.228.195-.12.577.05.849.376.27.327.74.595 1.044.595.303 0 .55.21.55.466s.117.35.259.207c.27-.27 3.44 1.304 3.67 1.824.074.165.535.3 1.024.3.49 0 1.277.36 1.749.8.47.44 1.129.798 1.46.798.333 0 1.24.36 2.016.8l2.822 1.598c.775.44 1.675.8 1.998.8.323 0 .588.134.59.3.003.337 1.92 1.298 2.594 1.298.242 0 .665.224.939.5.275.274.626.523.779.552 1.045.201 2.078.694 2.078.992 0 .194.265.353.588.353.323 0 1.223.357 2 .794.778.437 1.458.795 1.51.796.524.012 2.696 1.056 2.696 1.295 0 .172.269.312.599.312.33 0 .6.135.6.3 0 .751 3.29.514 3.984-.287.388-.447.973-.812 1.3-.812.329 0 1.238-.434 2.02-.965.782-.53 1.526-.86 1.654-.733.128.128.232.023.232-.234 0-.256.315-.467.7-.467.384 0 1.288-.36 2.007-.8.72-.438 1.624-.797 2.01-.797.386 0 .96-.36 1.277-.799.317-.44.806-.8 1.087-.8.282 0 .512-.14.512-.312s.494-.353 1.099-.403c.604-.05 1.158-.269 1.232-.487.073-.218.388-.396.699-.396.31 0 .566-.18.566-.4 0-.219.435-.399.966-.399.53 0 1.025-.135 1.099-.3.19-.432 3.5-2.098 4.167-2.098.308 0 .56-.18.56-.399 0-.22.36-.4.8-.4.44 0 .8-.18.8-.4 0-.219.359-.399.799-.399.439 0 .799-.18.799-.4 0-.22.37-.399.823-.399.452 0 .71-.18.576-.4-.136-.22.123-.4.575-.4.453 0 .823-.163.823-.362 0-.199.36-.268.799-.153.44.115.8.03.8-.189 0-.415 2.375-1.554 2.897-1.389.165.053.299-.084.299-.304 0-.22.283-.4.628-.4.346 0 .898-.269 1.227-.599.329-.329 1.08-.716 1.67-.86.589-.144 1.16-.369 1.27-.5.396-.472 2-1.238 2.593-1.238.332 0 .604-.179.604-.399 0-.22.34-.4.757-.4.416 0 .86-.27.988-.603.127-.332.37-.582.542-.556.608.092 2.109-.538 2.109-.885 0-.195.36-.353.799-.353.44 0 .8-.135.803-.3.003-.359 1.938-1.299 2.674-1.299.285 0 .519-.18.519-.399 0-.22.345-.4.766-.4.42 0 .826-.135.899-.3.188-.423 5.127-2.897 5.784-2.897.299 0 .543-.18.543-.399 0-.22.36-.4.799-.4.44 0 .8-.172.8-.382 0-.209.629-.499 1.398-.643.769-.145 1.399-.418 1.399-.607 0-.334 3.726-2.104 4.192-1.992.128.031.51-.222.849-.56.34-.34.783-.516.985-.392.202.125.367.037.367-.196 0-.232.36-.423.8-.423.439 0 .8-.135.802-.3.004-.358 1.939-1.298 2.674-1.298.286 0 .52-.15.52-.336 0-.443 1.828-1.263 2.816-1.263.429 0 .78-.179.78-.399 0-.22.255-.4.566-.4.312 0 .626-.135.699-.3.074-.164 1.752-1.08 3.73-2.035 1.978-.954 3.956-1.932 4.396-2.172 1.965-1.076 5.443-2.686 5.8-2.686a.396.396 0 0 0 .393-.399c0-.22.36-.4.8-.4.439 0 .799-.19.799-.423 0-.233.159-.325.354-.204.195.12.569-.04.83-.356.264-.316 1.138-.79 1.945-1.056.806-.265 2.137-.903 2.957-1.419.82-.516 1.659-.937 1.865-.937.205 0 .465-.225.575-.5.155-.382.209-.375.234.027.022.374.368.287 1.192-.299.638-.455 1.357-.827 1.598-.827.24 0 .438-.18.438-.399 0-.22.349-.4.776-.4.426 0 .886-.18 1.022-.4.136-.219.556-.399.934-.399.379 0 .947-.36 1.264-.799.317-.44.996-.8 1.51-.8.52 0 .825-.176.688-.399-.136-.22.123-.4.576-.4.452 0 .822-.19.822-.423 0-.233.166-.32.368-.196.202.125.66-.067 1.02-.426.359-.359 1.082-.653 1.607-.653.525 0 1.053-.259 1.175-.575.12-.316.4-.463.623-.326.22.137.404.103.405-.075.004-.377 1.915-1.322 2.674-1.322.286 0 .52-.18.52-.399 0-.22.449-.4.999-.4.549 0 .999-.18.999-.4 0-.219.27-.399.599-.399.33 0 .6-.18.6-.4 0-.22.344-.399.766-.399.42 0 .835-.209.92-.463.085-.255.586-.529 1.115-.61.528-.08 1.097-.367 1.264-.636.167-.269.534-.51.817-.537 1.852-.174 3.135-.709 2.936-1.226-.12-.31-.044-.459.167-.329.21.13.905-.033 1.543-.363.638-.33 1.272-.517 1.41-.416.138.101.164.068.059-.074-.222-.3 3.265-2.14 4.055-2.14.293 0 .532-.18.532-.399 0-.22.36-.4.799-.4.44 0 .8-.18.8-.399 0-.22.359-.4.799-.4.439 0 .799-.18.799-.4 0-.219.36-.399.799-.399.44 0 .799-.18.799-.4 0-.22.36-.4.8-.4.439 0 .799-.179.799-.399 0-.22.359-.4.799-.4.44 0 .8-.135.8-.299 0-.165.99-.75 2.197-1.299 1.207-.55 2.196-1.134 2.196-1.299 0-.165.27-.3.6-.3.33 0 .6-.179.6-.399 0-.22.45-.4 1-.4.549 0 .999-.18.999-.399 0-.22.282-.4.628-.4 1.86 0 1.769 4.305 1.769-84.287 0-73.64-.068-83.145-.6-83.145-.33 0-.6.19-.6.423 0 .232-.164.321-.366.196-.202-.125-.642.047-.978.383-.335.336-.754.571-.931.522-.177-.048-1.085.312-2.02.8-.933.49-1.698.782-1.698.652s-.284.048-.631.395c-.348.348-.797.53-1 .405-.201-.125-.367-.037-.367.196s-.36.423-.8.423c-.438 0-.798.158-.798.351 0 .193-.54.575-1.2.848-.658.273-1.198.616-1.198.763 0 .146-.402.296-.893.333-.491.037-.956.255-1.032.485-.077.23-.495.417-.93.417-.433 0-.677.18-.541.4.139.225-.185.4-.743.4-.544 0-1.05.145-1.122.324-.073.18-1.662 1.092-3.53 2.028-1.868.936-3.567 1.87-3.776 2.072-.21.204-.804.37-1.322.37-.527 0-.834.177-.696.4.136.22-.033.4-.376.4-.343 0-.623.18-.623.4 0 .22-.36.4-.8.4-.44 0-.798.18-.798.398 0 .22-.36.4-.8.4-.44 0-.8.18-.8.4 0 .22-.25.4-.556.4-1.025 0-1.041 1.033-1.047 64.867-.004 34.982-.14 63.798-.3 64.035-.162.238-.865.68-1.564.984-.698.304-1.165.722-1.037.93.128.206.057.267-.16.133-.215-.133-1.262.2-2.326.738-1.065.54-2.175.98-2.467.98-.293 0-.532.18-.532.4 0 .22-.35.4-.775.4-.427 0-.89.181-1.027.405-.138.223-.386.323-.55.221-.165-.102-.784.264-1.376.813-.592.55-1.256.888-1.474.753-.22-.135-.498.015-.621.335-.132.343-.538.498-.996.378-.425-.11-.773-.002-.773.244 0 .245-.27.446-.6.446-.33 0-.6.18-.6.4 0 .22-.348.4-.775.4-.426 0-.886.18-1.022.4-.136.22-.52.398-.852.398-.332 0-.875.272-1.207.604-.332.331-.768.5-.971.376-.202-.125-.367-.037-.367.196 0 .232-.36.423-.8.423-.44 0-.798.18-.798.4 0 .22-.36.4-.8.4-.44 0-.8.18-.8.4 0 .218-.34.398-.755.398-.416 0-.86.267-.984.593-.13.337-.492.491-.842.357-.338-.13-.614-.037-.614.206 0 .244-.27.443-.6.443-.33 0-.6.18-.6.4 0 .22-.36.4-.8.4-.438 0-.798.18-.798.398 0 .22-.36.4-.8.4-.438 0-.798.18-.798.4 0 .22-.36.4-.8.4-.44 0-.8.18-.8.4 0 .22-.358.398-.798.398-.44 0-.8.18-.8.4 0 .22-.36.4-.798.4-.44 0-.8.18-.8.4 0 .22-.36.4-.8.4-.438 0-.8.134-.801.3-.004.357-1.94 1.297-2.674 1.297-.286 0-.52.18-.52.4 0 .22-.344.4-.765.4-.422 0-.826.134-.9.3-.182.41-3.02 1.697-3.743 1.697-.322 0-.586.18-.586.4 0 .22-.344.4-.765.4-.422 0-.826.15-.9.334-.164.413-8.365 4.461-9.037 4.461-.268 0-.486.18-.486.4 0 .22-.27.4-.6.4-.33 0-.6.18-.6.4 0 .218-.36.398-.798.398-.44 0-.8.18-.8.4 0 .22-.36.4-.8.4-.438 0-.798.18-.798.4 0 .22-.345.4-.766.4-.421 0-.833.201-.916.448-.082.248-.636.45-1.232.45-.595 0-1.082.157-1.082.35 0 .192-.27.35-.6.35-.33 0-.6.18-.6.4 0 .218-.233.398-.518.398-.736 0-2.671.94-2.674 1.3-.002.164-.363.3-.803.3-.44 0-.8.18-.8.398 0 .22-.448.4-.998.4s-1 .145-1 .323c0 .36-3.225 1.898-3.695 1.762-.165-.048-.3.073-.3.27 0 .195-.45.468-1 .606-.548.138-.998.438-.998.667 0 .228-.161.316-.358.194-.196-.122-.46.045-.584.37-.13.335-.492.488-.841.354-.338-.13-.615-.037-.615.206 0 .244-.134.414-.3.378-.491-.106-2.515.822-3.82 1.752-.703.5-1.076.623-.882.29.185-.319-.11-.174-.653.32-.544.495-1.433.9-1.974.9-.542 0-1.245.36-1.561.8-.317.438-.997.798-1.511.798-.521 0-.825.177-.687.4.136.22-.123.4-.576.4-.453 0-.823.18-.823.4 0 .218-.37.398-.823.398-.452 0-.711.18-.575.4.135.22.002.4-.297.4-.753 0-2.693.934-2.697 1.298-.002.165-.46.3-1.02.3-.558 0-1.401.36-1.873.8-.471.44-1.183.798-1.581.798-.398 0-.724.18-.724.4 0 .22-.45.4-1 .4s-.998.18-.998.4c0 .22-.36.4-.8.4-.44 0-.8.135-.8.301 0 .166-.54.541-1.2.833-.66.293-1.1.694-.978.893.123.198-.055.254-.394.123-.37-.142-.72.033-.875.438-.18.465-.348.53-.545.212-.206-.334-.461-.288-.915.166-.346.346-.901.63-1.233.63-.333 0-.716.18-.852.4-.135.22-.685.398-1.222.398-.536 0-.975.18-.975.4 0 .22-.234.4-.52.4-.286 0-.744.224-1.02.5-.274.274-.624.506-.778.515-.592.036-3.092 1.515-3.376 2-.164.278-.66.412-1.1.297-.446-.117-.8-.012-.8.237 0 .246-.343.447-.765.447-.421 0-.856.224-.967.5-.161.4-.208.4-.233 0-.018-.276-.391-.5-.831-.5-.44 0-.8-.18-.8-.4 0-.22-.27-.4-.6-.4-.328 0-.598-.179-.598-.399 0-.22-.253-.4-.562-.4-.667 0-3.975-1.667-4.167-2.1-.074-.166-.284-.21-.468-.096-.183.113-.617-.079-.965-.426-.347-.348-.631-.525-.631-.395s-.764-.163-1.7-.652c-.933-.488-1.837-.85-2.008-.804-.171.047-.415-.186-.542-.518-.127-.332-.527-.609-.888-.616-.361-.007-1.005-.277-1.432-.599-.427-.323-1.101-.587-1.5-.587-.396 0-.721-.18-.721-.4 0-.219-.36-.399-.8-.399-.44 0-.8-.18-.8-.4 0-.22-.358-.399-.798-.399-.44 0-.8-.18-.8-.4 0-.22-.233-.4-.52-.4-.734 0-2.67-.94-2.673-1.298-.002-.165-.363-.3-.802-.3-.44 0-.8-.18-.8-.4 0-.219-.45-.399-.998-.399-.55 0-1-.18-1-.4 0-.22-.37-.399-.822-.399-.453 0-.712-.18-.576-.4.136-.22-.123-.4-.576-.4-.452 0-.823-.18-.823-.399 0-.22-.37-.4-.822-.4-.453 0-.712-.18-.576-.399.136-.22-.124-.4-.576-.4-.453 0-.823-.18-.823-.4 0-.219-.36-.399-.8-.399-.44 0-.798-.18-.798-.4 0-.22-.272-.399-.605-.399-.676 0-2.253-.808-2.652-1.357-.142-.197-.521-.258-.841-.135-.32.123-1.05-.21-1.621-.74-.572-.53-1.317-.965-1.656-.965-.34 0-.617-.18-.617-.4 0-.22-.135-.357-.3-.304-.49.154-2.897-.96-2.897-1.343 0-.193-.35-.35-.776-.35-.426 0-.888-.184-1.026-.407-.138-.223-.42-.303-.623-.176-.205.126-.372.04-.372-.194 0-.232-.36-.423-.8-.423-.44 0-.8-.18-.8-.399 0-.22-.358-.4-.798-.4-.44 0-.8-.18-.8-.399 0-.22-.271-.4-.604-.4-.333 0-.917-.159-1.3-.353a61.362 61.362 0 0 0-1.891-.899c-.66-.3-1.29-.635-1.4-.745-.11-.11-1.14-.65-2.29-1.2-1.151-.549-2.095-1.134-2.098-1.299-.004-.164-.422-.299-.93-.299s-1.31-.36-1.782-.799c-.471-.44-1.045-.8-1.274-.8a.41.41 0 0 1-.416-.399c0-.22-.416-.4-.924-.4s-1.31-.36-1.781-.799c-.472-.44-1.215-.799-1.65-.799-.436 0-.904-.18-1.04-.4-.136-.22-.52-.4-.851-.4-.332 0-.874-.269-1.203-.598-.33-.33-1.081-.718-1.67-.863-.59-.146-1.362-.596-1.717-1-.356-.404-.94-.735-1.3-.735-.358 0-.651-.174-.651-.387 0-.213-.252-.29-.56-.173-.307.118-.68.02-.826-.219-.147-.238-.435-.33-.64-.203-.204.126-.372.052-.372-.164 0-.445-2.235-1.652-3.058-1.652-.296 0-.538-.179-.538-.399 0-.22-.272-.4-.605-.4-.333 0-.917-.165-1.3-.366-.38-.2-1.277-.583-1.991-.848-.715-.264-1.3-.639-1.3-.832 0-.193-.27-.35-.598-.35-.33 0-.6-.18-.6-.4 0-.22-.141-.356-.314-.3-.331.105-5.738-2.503-6.08-2.933-.11-.139-.882-.496-1.715-.794-.834-.299-1.861-.863-2.281-1.255-.421-.392-1.186-.713-1.701-.713-.515 0-1.137-.2-1.382-.446-.532-.532-1.807-1.27-3.696-2.143-.761-.35-1.484-.8-1.606-.997-.121-.197-.672-.418-1.224-.492-.552-.074-1.717-.569-2.59-1.1-.873-.53-1.798-.927-2.056-.88a.76.76 0 0 1-.723-.325c-.14-.226-.525-.41-.858-.41-.332 0-.876-.272-1.207-.603-.332-.332-.77-.5-.971-.376-.202.125-.367.036-.367-.196 0-.233-.234-.424-.52-.424-.735 0-2.67-.939-2.674-1.298-.002-.165-.237-.3-.523-.3-.735 0-2.67-.94-2.674-1.299-.001-.164-.317-.299-.702-.299-.664 0-.694-3.31-.596-64.736.092-57.697.038-64.735-.504-64.735-.76 0-4.347-1.648-4.528-2.079-.073-.175-.388-.318-.7-.318-.31 0-.565-.18-.565-.4 0-.22-.5-.4-1.111-.4-.652 0-1.348-.33-1.686-.799-.317-.439-.771-.799-1.008-.799-.666 0-2.582-.962-2.586-1.299-.001-.165-.362-.299-.802-.299-.44 0-.8-.18-.8-.4 0-.22-.27-.4-.6-.4-.328 0-.598-.179-.598-.399 0-.22-.36-.4-.8-.4-.44 0-.798-.18-.798-.399 0-.22-.457-.4-1.016-.4-.56 0-1.395-.353-1.86-.785-.462-.432-.996-.69-1.184-.575-.188.117-.45-.069-.581-.413-.132-.344-.46-.625-.726-.625-.267 0-1.6-.539-2.961-1.198-1.361-.66-2.651-1.199-2.868-1.199a.398.398 0 0 1-.393-.4c0-.22-.257-.399-.571-.399-.314 0-.808-.235-1.1-.522-.592-.587-1.687-1.065-3.024-1.32l-.9-.172v83.153"/><path fill="#4484fc" d="M240.16 37.58c0 .347 1.552.97 1.8.721.077-.077-.296-.347-.83-.598-.533-.252-.97-.307-.97-.123m-58.714 9.412c.259.312.755.567 1.1.567.81 0-.011-.905-.945-1.043-.497-.072-.53.025-.155.476M111.09 63c0 .214-.495.597-1.1.851-1 .42-1.008.441-.1.232 1.185-.272 1.854-.818 1.473-1.199-.15-.15-.273-.098-.273.116m186.214 3.34c0 .22.269.4.599.4.33 0 .599-.18.599-.4 0-.219-.27-.399-.6-.399-.33 0-.598.18-.598.4M64.68 86.31l-.943.79 1.096-.49c.603-.27 1.097-.625 1.099-.79.005-.459-.226-.368-1.252.49m-15.892 8.031c-2.094 1.134-2.471 1.746-.436.707 2.206-1.126 2.169-1.1 1.965-1.29-.091-.086-.78.176-1.53.583m194.365 101.07c0 30.22.048 42.582.106 27.472.058-15.11.058-39.835 0-54.945s-.106-2.747-.106 27.472m-196.196 54.35c.35.565 2.968 1.962 3.14 1.674.094-.153-.62-.664-1.583-1.135-.964-.47-1.665-.714-1.557-.54m33.764 17.203c0 .233.168.32.372.194.205-.127.485-.047.623.176.138.223.455.406.703.406.249 0 .104-.264-.323-.587-.928-.7-1.375-.763-1.375-.189m-57.94 9.445c.004.328 2.04 1.41 2.254 1.196.065-.064-.417-.432-1.07-.818-.652-.385-1.185-.555-1.183-.378m6.824 3.465c.805.705 2.116 1.126 1.616.52-.302-.367-.826-.666-1.166-.666-.34 0-.542.066-.45.146m149.916 19.18c-1.014.501-1.13.874-.4 1.294.275.158.373.146.218-.026-.156-.172.114-.645.599-1.05.987-.824.898-.87-.417-.219m-82.417 14.232c0 .174.359.41.799.525.439.115.799.067.799-.107 0-.173-.36-.409-.8-.524-.44-.115-.798-.067-.798.106m97.502 16.726c0 .257-.404.487-.9.513-.74.038-.767.08-.156.237.797.205 1.78-.492 1.329-.943-.15-.15-.273-.063-.273.193"/><path fill="#4884f4" d="M82.513 195.212c0 30.11.047 42.368.105 27.241a8612.1 8612.1 0 0 0 0-54.745c-.058-14.983-.105-2.606-.105 27.504"/><path fill="#4884f4" d="M82.513 195.212c0 30.11.047 42.368.105 27.241a8612.1 8612.1 0 0 0 0-54.745c-.058-14.983-.105-2.606-.105 27.504"/></g></svg>