<?xml version="1.0" encoding="UTF-8" standalone="no"?>
<svg
   id="svg"
   version="1.1"
   width="325.67545"
   height="345.61694"
   viewBox="0 0 325.67545 345.61694"
   sodipodi:docname="alloydb.svg"
   inkscape:version="1.2.1 (9c6d41e410, 2022-07-14, custom)"
   xmlns:inkscape="http://www.inkscape.org/namespaces/inkscape"
   xmlns:sodipodi="http://sodipodi.sourceforge.net/DTD/sodipodi-0.dtd"
   xmlns="http://www.w3.org/2000/svg"
   xmlns:svg="http://www.w3.org/2000/svg">
  <defs
     id="defs316" />
  <sodipodi:namedview
     id="namedview314"
     pagecolor="#ffffff"
     bordercolor="#666666"
     borderopacity="1.0"
     inkscape:showpageshadow="2"
     inkscape:pageopacity="0.0"
     inkscape:pagecheckerboard="0"
     inkscape:deskcolor="#d1d1d1"
     showgrid="false"
     inkscape:zoom="2.5725146"
     inkscape:cx="163.07002"
     inkscape:cy="172.20505"
     inkscape:window-width="3840"
     inkscape:window-height="2083"
     inkscape:window-x="0"
     inkscape:window-y="40"
     inkscape:window-maximized="1"
     inkscape:current-layer="svg" />
  <g
     id="svgg"
     transform="translate(-37.162277,-27.165907)">
    <path
       id="path0"
       d="m 199.401,81.119 c 0,0.22 -0.36,0.399 -0.8,0.399 -0.439,0 -0.799,0.18 -0.799,0.4 0,0.22 -0.359,0.4 -0.799,0.4 -0.44,0 -0.799,0.18 -0.799,0.399 0,0.22 -0.36,0.4 -0.799,0.4 -0.44,0 -0.8,0.136 -0.8,0.302 0,0.386 -2.104,1.324 -3.145,1.402 -0.437,0.033 -0.707,0.203 -0.6,0.377 0.173,0.279 -0.877,0.475 -1.159,0.217 -0.06,-0.055 -0.539,0.3 -1.064,0.789 -0.525,0.49 -1.555,1.088 -2.289,1.33 -0.733,0.242 -1.333,0.606 -1.333,0.809 0,0.202 -0.234,0.368 -0.52,0.368 -0.735,0 -2.67,0.94 -2.674,1.299 -0.001,0.165 -0.362,0.3 -0.802,0.3 -0.44,0 -0.799,0.18 -0.799,0.399 0,0.22 -0.36,0.4 -0.799,0.4 -0.44,0 -0.8,0.18 -0.8,0.399 0,0.22 -0.46,0.4 -1.022,0.4 -0.563,0 -0.926,0.157 -0.807,0.35 0.119,0.192 -0.48,0.461 -1.331,0.597 -0.858,0.137 -1.655,0.527 -1.788,0.874 -0.133,0.345 -0.401,0.528 -0.596,0.408 -0.196,-0.121 -0.781,0.104 -1.302,0.501 -1.06,0.808 -3.583,1.906 -4.043,1.761 -0.165,-0.053 -0.299,0.085 -0.299,0.304 0,0.22 -0.278,0.4 -0.617,0.4 -0.338,0 -1.002,0.36 -1.473,0.799 -0.472,0.44 -1.274,0.799 -1.782,0.799 -0.508,0 -0.924,0.18 -0.924,0.4 0,0.22 -0.359,0.399 -0.799,0.399 -0.439,0 -0.799,0.18 -0.799,0.4 0,0.22 -0.36,0.4 -0.799,0.4 -0.44,0 -0.8,0.135 -0.801,0.299 -0.001,0.165 -0.989,0.75 -2.196,1.299 -1.207,0.55 -2.196,1.134 -2.197,1.299 0,0.165 -0.451,0.3 -1,0.3 -0.549,0 -0.999,0.179 -0.999,0.399 0,0.22 -0.27,0.4 -0.599,0.4 -0.33,0 -0.6,0.18 -0.6,0.399 0,0.22 -0.359,0.4 -0.799,0.4 -0.44,0 -0.799,0.18 -0.799,0.4 0,0.219 -0.36,0.399 -0.799,0.399 -0.44,0 -0.8,0.18 -0.8,0.4 0,0.219 -0.359,0.399 -0.799,0.399 -0.439,0 -0.799,0.136 -0.799,0.302 0,0.318 -1.512,1.031 -3.197,1.508 -0.549,0.156 -1.314,0.559 -1.698,0.897 -0.385,0.338 -0.699,0.468 -0.699,0.29 0,-0.178 -0.36,0.002 -0.8,0.4 -0.439,0.398 -0.799,0.583 -0.799,0.413 0,-0.171 -0.225,-0.127 -0.499,0.098 -1.065,0.873 -10.077,5.308 -10.93,5.378 -0.495,0.041 -0.813,0.216 -0.706,0.389 0.165,0.268 -0.175,0.35 -1.259,0.307 -0.114,-0.005 -0.598,0.355 -1.075,0.799 -0.476,0.444 -1.003,0.808 -1.17,0.808 -0.167,0 -1.958,0.899 -3.98,1.998 -2.023,1.099 -3.928,1.998 -4.234,1.998 -0.306,0 -0.942,0.359 -1.414,0.799 -0.472,0.439 -1.273,0.799 -1.781,0.799 -0.508,0 -0.924,0.18 -0.924,0.4 0,0.22 -0.27,0.399 -0.599,0.399 -0.33,0 -0.6,0.191 -0.6,0.424 0,0.232 -0.165,0.321 -0.367,0.196 -0.202,-0.125 -0.607,0.012 -0.899,0.304 -0.293,0.293 -0.665,0.569 -0.827,0.614 -0.163,0.046 -0.523,0.157 -0.8,0.248 -0.277,0.091 -0.863,0.232 -1.302,0.313 -0.44,0.08 -0.75,0.374 -0.69,0.652 0.06,0.278 -0.06,0.401 -0.267,0.272 -0.208,-0.128 -0.621,-0.006 -0.919,0.27 -0.298,0.277 -0.798,0.561 -1.113,0.631 -0.614,0.136 -3.42,1.446 -4.404,2.056 -0.33,0.204 -2.038,1.054 -3.796,1.888 -4.092,1.942 -4.864,2.596 -4.037,3.423 0.331,0.331 0.491,0.714 0.355,0.85 -0.136,0.136 -0.007,0.247 0.287,0.247 0.769,0 5.992,2.515 5.992,2.885 0,0.172 0.36,0.312 0.799,0.312 0.44,0 0.799,0.169 0.799,0.376 0,0.208 0.36,0.308 0.8,0.223 0.439,-0.085 0.799,0.016 0.799,0.223 0,0.207 0.36,0.377 0.799,0.377 0.44,0 0.799,0.179 0.799,0.399 0,0.22 0.36,0.4 0.8,0.4 0.439,0 0.799,0.18 0.799,0.399 0,0.22 0.37,0.4 0.822,0.4 0.453,0 0.712,0.18 0.576,0.4 -0.136,0.219 0.079,0.405 0.476,0.412 0.883,0.015 2.209,0.966 1.849,1.325 -0.143,0.143 0.13,0.261 0.606,0.261 0.476,0 0.866,0.179 0.866,0.399 0,0.22 0.134,0.378 0.299,0.352 0.875,-0.138 1.636,0.13 2.406,0.847 0.471,0.44 1.152,0.799 1.512,0.799 0.36,0 1.131,0.321 1.715,0.714 0.583,0.392 1.6,0.955 2.259,1.251 1.506,0.676 3.587,1.727 5.387,2.721 l 1.391,0.769 2.146,-1.129 c 1.181,-0.621 2.398,-1.129 2.705,-1.129 0.308,0 0.559,-0.18 0.559,-0.4 0,-0.219 0.36,-0.399 0.799,-0.399 0.44,0 0.801,-0.135 0.803,-0.3 0.003,-0.365 1.944,-1.299 2.697,-1.299 0.299,0 0.432,-0.179 0.297,-0.399 -0.136,-0.22 0.123,-0.4 0.575,-0.4 0.453,0 0.823,-0.18 0.823,-0.399 0,-0.22 0.36,-0.4 0.799,-0.4 0.44,0 0.8,-0.18 0.8,-0.4 0,-0.219 0.323,-0.399 0.719,-0.399 0.893,0 2.87,-0.893 2.874,-1.299 0.002,-0.165 0.237,-0.3 0.523,-0.3 0.735,0 2.67,-0.939 2.674,-1.298 0.001,-0.165 0.463,-0.3 1.025,-0.3 0.58,0 0.916,-0.173 0.776,-0.4 -0.219,-0.354 0.621,-0.594 1.528,-0.437 0.181,0.032 0.216,-0.127 0.076,-0.352 -0.139,-0.225 -0.066,-0.409 0.162,-0.409 0.228,0 1.812,-0.655 3.52,-1.454 1.708,-0.8 3.106,-1.385 3.106,-1.301 0,0.085 0.567,-0.25 1.26,-0.744 0.693,-0.493 1.637,-0.897 2.098,-0.897 0.461,0 0.837,-0.18 0.837,-0.4 0,-0.219 0.36,-0.399 0.8,-0.399 0.439,0 0.8,-0.135 0.802,-0.3 0.004,-0.35 1.931,-1.299 2.641,-1.299 0.267,0 0.546,-0.143 0.619,-0.319 0.202,-0.484 6.201,-3.677 6.908,-3.677 0.34,0 0.618,-0.179 0.618,-0.399 0,-0.22 0.36,-0.4 0.799,-0.4 0.44,0 0.799,-0.18 0.799,-0.399 0,-0.22 0.36,-0.4 0.8,-0.4 0.439,0 0.799,-0.18 0.799,-0.4 0,-0.219 0.344,-0.399 0.766,-0.399 0.421,0 0.826,-0.141 0.899,-0.314 0.161,-0.378 6.417,-3.501 6.788,-3.388 0.144,0.044 0.48,-0.184 0.748,-0.507 0.268,-0.322 0.655,-0.586 0.86,-0.586 0.205,0 1.428,-0.524 2.717,-1.164 1.29,-0.639 2.449,-1.059 2.575,-0.932 0.127,0.127 0.231,0.021 0.231,-0.235 0,-0.257 0.36,-0.467 0.799,-0.467 0.44,0 0.8,-0.179 0.8,-0.399 0,-0.22 0.359,-0.4 0.799,-0.4 0.439,0 0.8,-0.135 0.802,-0.3 0.004,-0.364 1.944,-1.298 2.698,-1.298 0.298,0 0.432,-0.18 0.296,-0.4 -0.136,-0.22 0.113,-0.399 0.552,-0.399 0.44,0 0.911,-0.18 1.046,-0.4 0.136,-0.22 0.607,-0.4 1.047,-0.4 0.439,0 0.688,-0.18 0.552,-0.399 -0.14,-0.227 0.195,-0.4 0.775,-0.4 0.563,0 1.023,0.18 1.023,0.4 0,0.219 0.36,0.399 0.799,0.399 0.44,0 0.799,0.18 0.799,0.4 0,0.22 0.36,0.4 0.8,0.4 0.439,0 0.799,0.179 0.799,0.399 0,0.22 0.359,0.4 0.799,0.4 0.44,0 0.799,0.18 0.799,0.399 0,0.22 0.27,0.4 0.6,0.4 0.329,0 0.599,0.18 0.599,0.4 0,0.219 0.36,0.399 0.799,0.399 0.44,0 0.799,0.18 0.799,0.4 0,0.22 0.36,0.399 0.8,0.399 0.439,0 0.799,0.18 0.799,0.4 0,0.22 0.265,0.4 0.589,0.4 0.803,0 4.206,1.68 4.206,2.077 0,0.176 0.315,0.321 0.699,0.323 0.385,10e-4 1.215,0.271 1.844,0.599 0.63,0.328 1.394,0.597 1.698,0.597 0.305,0 0.554,0.18 0.554,0.4 0,0.219 0.287,0.399 0.638,0.399 0.351,0 1.115,0.332 1.698,0.737 0.584,0.405 1.645,0.988 2.36,1.296 0.714,0.308 1.298,0.696 1.298,0.862 0,0.166 0.36,0.302 0.799,0.302 0.44,0 0.8,0.18 0.8,0.4 0,0.219 0.359,0.399 0.799,0.399 0.439,0 0.799,0.18 0.799,0.4 0,0.22 0.259,0.399 0.575,0.399 0.546,0 4.997,2.27 5.419,2.763 0.11,0.129 0.47,0.292 0.799,0.363 0.33,0.071 2.257,0.938 4.282,1.927 2.025,0.989 3.795,1.773 3.932,1.743 0.138,-0.031 0.498,0.271 0.801,0.67 0.303,0.399 0.556,0.563 0.563,0.365 0.007,-0.199 0.372,-0.037 0.812,0.361 0.439,0.398 0.799,0.599 0.799,0.448 0,-0.152 0.405,-0.052 0.899,0.222 0.495,0.275 1.034,0.461 1.199,0.414 0.165,-0.047 0.3,0.095 0.3,0.315 0,0.22 0.181,0.399 0.404,0.399 0.607,0 4.171,1.714 4.324,2.079 0.074,0.176 0.478,0.319 0.899,0.319 0.422,0 0.766,0.18 0.766,0.4 0,0.219 0.45,0.399 0.999,0.399 0.55,0 0.999,0.18 0.999,0.4 0,0.22 0.36,0.399 0.799,0.399 0.44,0 0.8,0.18 0.8,0.4 0,0.22 0.359,0.4 0.799,0.4 0.439,0 0.799,0.179 0.799,0.399 0,0.22 0.36,0.4 0.799,0.4 0.44,0 0.799,0.18 0.799,0.399 0,0.22 0.36,0.4 0.8,0.4 0.439,0 0.799,0.18 0.799,0.4 0,0.219 0.37,0.399 0.823,0.399 0.452,0 0.711,0.18 0.575,0.4 -0.135,0.22 0.017,0.399 0.339,0.399 0.683,0 3.995,1.658 4.19,2.098 0.074,0.165 0.478,0.3 0.899,0.3 0.422,0 0.766,0.18 0.766,0.4 0,0.219 0.36,0.399 0.799,0.399 0.44,0 0.8,0.18 0.8,0.4 0,0.22 0.344,0.399 0.766,0.399 0.421,0 0.825,0.171 0.899,0.379 0.073,0.209 0.987,-0.055 2.031,-0.585 1.044,-0.531 1.898,-0.885 1.898,-0.788 0,0.098 0.844,-0.358 1.877,-1.012 1.032,-0.655 2.11,-1.19 2.397,-1.19 0.287,0 0.521,-0.18 0.521,-0.4 0,-0.22 0.349,-0.4 0.776,-0.4 0.426,0 0.887,-0.179 1.022,-0.399 0.136,-0.22 0.596,-0.4 1.023,-0.4 0.427,0 0.776,-0.18 0.776,-0.399 0,-0.22 0.37,-0.4 0.822,-0.4 0.453,0 0.712,-0.18 0.576,-0.4 -0.136,-0.219 0.124,-0.399 0.576,-0.399 0.453,0 0.823,-0.18 0.823,-0.4 0,-0.22 0.36,-0.399 0.799,-0.399 0.44,0 0.799,-0.18 0.799,-0.4 0,-0.22 0.338,-0.4 0.751,-0.4 0.412,0 0.972,-0.267 1.244,-0.595 0.271,-0.327 0.653,-0.496 0.848,-0.376 0.195,0.121 0.354,0.029 0.354,-0.204 0,-0.233 0.28,-0.423 0.623,-0.423 0.343,0 0.512,-0.18 0.376,-0.4 -0.136,-0.219 0.123,-0.399 0.576,-0.399 0.452,0 0.823,-0.158 0.823,-0.35 0,-0.192 0.517,-0.453 1.15,-0.58 0.633,-0.126 1.402,-0.463 1.708,-0.749 0.307,-0.285 0.823,-0.579 1.147,-0.652 0.815,-0.184 6.764,-3.15 7.436,-3.707 1.055,-0.876 0.517,-1.454 -2.95,-3.168 -1.923,-0.951 -3.586,-1.831 -3.696,-1.956 -0.11,-0.125 -0.47,-0.285 -0.799,-0.357 -0.33,-0.071 -0.66,-0.296 -0.733,-0.499 -0.073,-0.204 -0.467,-0.37 -0.875,-0.37 -0.409,0 -0.845,-0.166 -0.971,-0.369 -0.125,-0.203 -0.765,-0.487 -1.422,-0.631 -0.657,-0.144 -1.194,-0.424 -1.194,-0.622 0,-0.199 -0.45,-0.473 -0.999,-0.611 -0.55,-0.138 -0.999,-0.423 -0.999,-0.633 0,-0.209 -0.332,-0.325 -0.738,-0.256 -0.406,0.069 -1.035,-0.122 -1.399,-0.423 -0.363,-0.302 -0.66,-0.424 -0.66,-0.271 0,0.152 -0.285,-0.007 -0.632,-0.355 -0.347,-0.347 -0.797,-0.529 -0.999,-0.404 -0.202,0.125 -0.367,0.036 -0.367,-0.196 0,-0.233 -0.27,-0.424 -0.6,-0.424 -0.329,0 -0.599,-0.179 -0.599,-0.399 0,-0.22 -0.36,-0.4 -0.799,-0.4 -0.44,0 -0.8,-0.18 -0.8,-0.399 0,-0.22 -0.46,-0.4 -1.022,-0.4 -0.58,0 -0.916,-0.173 -0.776,-0.4 0.136,-0.219 -0.123,-0.399 -0.576,-0.399 -0.452,0 -0.822,-0.18 -0.822,-0.4 0,-0.22 -0.36,-0.399 -0.8,-0.399 -0.439,0 -0.799,-0.18 -0.799,-0.4 0,-0.22 -0.359,-0.4 -0.799,-0.4 -0.439,0 -0.799,-0.179 -0.799,-0.399 0,-0.22 -0.176,-0.4 -0.391,-0.4 -0.805,0 -7.563,-3.502 -7.288,-3.776 0.157,-0.158 0.106,-0.25 -0.113,-0.206 -0.941,0.19 -1.826,-0.045 -1.593,-0.423 0.14,-0.226 0.105,-0.384 -0.076,-0.353 -0.887,0.154 -1.655,-0.109 -2.435,-0.836 -0.472,-0.44 -1.13,-0.799 -1.462,-0.799 -0.738,0 -3.514,-1.519 -3.919,-2.145 -0.161,-0.249 -0.296,-0.313 -0.299,-0.143 -0.004,0.171 -0.591,-0.001 -1.305,-0.382 -0.715,-0.38 -1.434,-0.655 -1.599,-0.609 -0.164,0.045 -0.299,-0.086 -0.299,-0.291 0,-0.429 -1.556,-1.029 -2.298,-0.887 -0.275,0.053 -0.5,-0.092 -0.5,-0.321 0,-0.23 -0.449,-0.417 -0.999,-0.417 -0.549,0 -0.999,-0.18 -0.999,-0.4 0,-0.22 -0.359,-0.399 -0.799,-0.399 -0.439,0 -0.799,-0.18 -0.799,-0.4 0,-0.22 -0.36,-0.4 -0.799,-0.4 -0.44,0 -0.799,-0.18 -0.799,-0.399 0,-0.22 -0.36,-0.4 -0.8,-0.4 -0.439,0 -0.799,-0.18 -0.799,-0.399 0,-0.22 -0.359,-0.4 -0.799,-0.4 -0.44,0 -0.799,-0.18 -0.799,-0.4 0,-0.219 -0.37,-0.399 -0.823,-0.399 -0.452,0 -0.712,-0.18 -0.576,-0.4 0.136,-0.22 0.003,-0.399 -0.296,-0.399 -0.754,0 -2.694,-0.935 -2.698,-1.299 -10e-4,-0.165 -0.362,-0.3 -0.802,-0.3 -0.44,0 -0.799,-0.18 -0.799,-0.399 0,-0.22 -0.36,-0.4 -0.799,-0.4 -0.44,0 -0.8,-0.18 -0.8,-0.4 0,-0.219 -0.359,-0.399 -0.799,-0.399 -0.439,0 -0.799,-0.18 -0.799,-0.4 0,-0.22 -0.36,-0.4 -0.799,-0.4 -0.44,0 -0.799,-0.179 -0.799,-0.399 0,-0.22 -0.216,-0.4 -0.48,-0.4 -0.668,0 -10.229,-4.741 -10.524,-5.219 -0.132,-0.213 -0.393,-0.294 -0.58,-0.178 -0.187,0.115 -0.589,-0.04 -0.894,-0.345 -0.305,-0.304 -1.129,-0.68 -1.831,-0.834 -0.702,-0.154 -1.276,-0.446 -1.276,-0.648 0,-0.203 -0.359,-0.368 -0.799,-0.368 -0.44,0 -0.799,-0.18 -0.799,-0.4 0,-0.219 -0.36,-0.399 -0.799,-0.399 -0.44,0 -0.8,-0.18 -0.8,-0.4 0,-0.22 -0.359,-0.4 -0.799,-0.4 -0.439,0 -0.8,-0.134 -0.802,-0.299 -0.004,-0.359 -1.939,-1.299 -2.674,-1.299 -0.286,0 -0.52,-0.18 -0.52,-0.4 0,-0.219 -0.359,-0.399 -0.799,-0.399 -0.44,0 -0.8,-0.135 -0.801,-0.3 0,-0.165 -0.989,-0.749 -2.196,-1.299 -1.207,-0.549 -2.196,-1.133 -2.196,-1.298 -0.001,-0.165 -0.34,-0.3 -0.752,-0.3 -0.413,0 -2.1,-0.719 -3.749,-1.598 -3.084,-1.644 -3.892,-1.893 -3.892,-1.199 m -0.8,51.548 c 0,0.22 -0.359,0.4 -0.799,0.4 -0.439,0 -0.799,0.18 -0.799,0.4 0,0.219 -0.36,0.399 -0.799,0.399 -0.44,0 -0.799,0.18 -0.799,0.4 0,0.22 -0.36,0.399 -0.8,0.399 -0.439,0 -0.799,0.18 -0.799,0.4 0,0.22 -0.359,0.4 -0.799,0.4 -0.44,0 -0.799,0.179 -0.799,0.399 0,0.22 -0.36,0.4 -0.799,0.4 -0.44,0 -0.8,0.18 -0.8,0.399 0,0.22 -0.359,0.4 -0.799,0.4 -0.439,0 -0.799,0.18 -0.799,0.4 0,0.219 -0.362,0.399 -0.805,0.399 -0.767,0 -2.366,0.716 -2.791,1.25 -0.11,0.138 -1.639,0.91 -3.397,1.717 -4.36,1.999 -15.895,7.826 -16.364,8.266 -0.208,0.195 -0.793,0.356 -1.298,0.356 -0.506,0 -0.919,0.179 -0.919,0.399 0,0.22 -0.36,0.4 -0.8,0.4 -0.439,0 -0.8,0.135 -0.802,0.299 -0.004,0.359 -1.939,1.299 -2.674,1.299 -0.286,0 -0.52,0.135 -0.521,0.3 -10e-4,0.165 -0.989,0.749 -2.196,1.299 -1.208,0.549 -2.196,1.133 -2.197,1.298 -0.001,0.165 -0.235,0.3 -0.521,0.3 -0.735,0 -2.67,0.94 -2.674,1.299 -0.002,0.164 -0.363,0.299 -0.802,0.299 -0.44,0 -0.799,0.18 -0.799,0.4 0,0.22 -0.36,0.4 -0.8,0.4 -0.439,0 -0.799,0.179 -0.799,0.399 0,0.22 -0.315,0.401 -0.699,0.402 -0.385,0.002 -1.215,0.271 -1.844,0.6 -0.63,0.328 -1.317,0.597 -1.527,0.597 -0.21,0 -0.654,0.271 -0.986,0.603 -0.331,0.331 -0.749,0.512 -0.928,0.402 -0.179,-0.111 -0.428,0.064 -0.552,0.389 -0.129,0.335 -0.492,0.488 -0.841,0.354 -0.338,-0.129 -0.615,-0.036 -0.615,0.207 0,0.243 -0.37,0.442 -0.823,0.442 -0.452,0 -0.711,0.18 -0.575,0.4 0.135,0.22 -0.109,0.399 -0.543,0.399 -0.434,0 -0.857,0.203 -0.939,0.45 -0.083,0.247 -0.637,0.449 -1.232,0.449 h -1.083 v 15.705 15.705 l 2.198,1.075 c 1.209,0.592 2.198,1.235 2.198,1.428 0,0.194 0.225,0.352 0.499,0.35 0.632,-0.004 7.247,3.288 7.426,3.696 0.074,0.167 0.352,0.303 0.62,0.303 0.709,0 2.637,0.948 2.641,1.299 10e-4,0.165 0.255,0.3 0.564,0.3 0.573,0 3.872,1.595 4.234,2.047 0.11,0.138 0.784,0.377 1.498,0.532 0.715,0.155 1.299,0.447 1.299,0.649 0,0.202 0.257,0.368 0.571,0.368 0.314,0 0.847,0.276 1.185,0.614 0.337,0.337 0.71,0.604 0.829,0.592 0.641,-0.064 2.21,0.529 2.21,0.835 0,0.196 0.36,0.357 0.8,0.357 0.439,0 0.799,0.179 0.799,0.399 0,0.22 0.359,0.4 0.799,0.4 0.44,0 0.799,0.18 0.799,0.399 0,0.22 0.36,0.4 0.799,0.4 0.44,0 0.8,0.18 0.8,0.4 0,0.219 0.254,0.399 0.566,0.399 0.311,0 0.626,0.146 0.699,0.324 0.073,0.178 1.069,0.785 2.213,1.35 1.143,0.565 1.953,1.154 1.798,1.308 -0.155,0.155 -0.102,0.245 0.118,0.201 1.011,-0.204 1.827,0.045 1.56,0.475 -0.161,0.262 -0.111,0.354 0.117,0.213 0.433,-0.267 5.827,2.38 6.049,2.968 0.073,0.195 0.433,0.355 0.799,0.356 0.366,0.001 1.385,0.445 2.264,0.987 0.88,0.541 1.869,0.994 2.198,1.005 0.33,0.012 1.049,0.373 1.599,0.803 0.549,0.43 1.231,0.786 1.514,0.791 0.284,0.004 1.018,0.38 1.631,0.833 0.614,0.454 1.371,0.885 1.683,0.958 1.501,0.353 2.364,0.74 2.364,1.061 0,0.194 0.36,0.353 0.8,0.353 0.439,0 0.799,0.18 0.799,0.4 0,0.22 0.359,0.399 0.799,0.399 0.44,0 0.799,0.18 0.799,0.4 0,0.22 0.345,0.4 0.766,0.4 0.421,0 0.834,0.204 0.918,0.455 0.171,0.514 3.111,-0.369 3.111,-0.935 0,-0.176 0.326,-0.32 0.724,-0.32 0.398,0 1.11,-0.359 1.582,-0.799 0.472,-0.439 1.124,-0.799 1.45,-0.799 0.326,0 0.699,-0.172 0.829,-0.382 0.13,-0.21 0.5,-0.281 0.823,-0.157 0.322,0.124 0.586,0.026 0.586,-0.217 0,-0.244 0.36,-0.443 0.8,-0.443 0.444,0 0.799,-0.266 0.799,-0.599 0,-0.33 0.135,-0.57 0.3,-0.534 0.669,0.146 2.72,-0.642 3.458,-1.329 0.433,-0.404 1.114,-0.735 1.512,-0.735 0.398,0 0.724,-0.179 0.724,-0.399 0,-0.22 0.344,-0.4 0.766,-0.4 0.421,0 0.826,-0.135 0.899,-0.299 0.188,-0.424 5.127,-2.898 5.784,-2.898 0.298,0 0.543,-0.179 0.543,-0.399 0,-0.22 0.27,-0.4 0.599,-0.4 0.33,0 0.6,-0.18 0.6,-0.399 0,-0.22 0.449,-0.4 0.999,-0.4 0.549,0 0.999,-0.18 0.999,-0.4 0,-0.219 0.37,-0.399 0.822,-0.399 0.453,0 0.712,-0.18 0.576,-0.4 -0.136,-0.22 0.079,-0.413 0.476,-0.429 0.398,-0.016 1.262,-0.369 1.922,-0.785 1.746,-1.1 5.935,-3.173 6.349,-3.141 0.195,0.015 0.465,-0.122 0.599,-0.306 0.239,-0.327 3.047,-1.725 3.452,-1.719 0.112,0.002 0.595,-0.36 1.072,-0.804 0.476,-0.444 1.263,-0.808 1.747,-0.808 0.485,0 0.989,-0.281 1.121,-0.625 0.132,-0.343 0.4,-0.525 0.597,-0.404 0.196,0.122 0.577,-0.045 0.847,-0.369 0.27,-0.325 0.65,-0.492 0.845,-0.372 0.194,0.12 0.354,0.029 0.354,-0.204 0,-0.233 0.359,-0.423 0.799,-0.423 0.44,0 0.799,-0.136 0.799,-0.302 0,-0.323 2.193,-1.395 2.64,-1.291 0.148,0.035 0.378,-0.092 0.512,-0.281 0.346,-0.486 6.929,-3.728 7.561,-3.724 0.288,0.002 0.412,-0.177 0.276,-0.396 -0.136,-0.22 0.029,-0.4 0.366,-0.4 0.336,0 1.381,-0.432 2.321,-0.96 l 1.709,-0.96 0.104,-15.388 0.105,-15.388 -1.203,-0.533 c -0.662,-0.293 -1.204,-0.668 -1.204,-0.835 0,-0.166 -0.199,-0.302 -0.443,-0.302 -0.725,0 -4.352,-1.766 -4.352,-2.119 0,-0.179 -0.165,-0.223 -0.368,-0.098 -0.202,0.125 -0.653,-0.059 -1.002,-0.408 -0.349,-0.35 -0.858,-0.56 -1.131,-0.469 -0.273,0.092 -0.676,-0.075 -0.896,-0.372 -0.22,-0.296 -0.848,-0.625 -1.397,-0.73 -0.549,-0.105 -1.058,-0.373 -1.132,-0.595 -0.074,-0.222 -0.479,-0.403 -0.901,-0.403 -0.421,0 -0.766,-0.18 -0.766,-0.4 0,-0.22 -0.359,-0.4 -0.799,-0.4 -0.439,0 -0.8,-0.135 -0.802,-0.299 -0.004,-0.365 -1.944,-1.299 -2.698,-1.299 -0.298,0 -0.432,-0.18 -0.296,-0.4 0.139,-0.225 -0.185,-0.399 -0.742,-0.399 -0.544,0 -1.049,-0.135 -1.123,-0.3 -0.192,-0.432 -3.501,-2.098 -4.167,-2.098 -0.309,0 -0.561,-0.18 -0.561,-0.399 0,-0.22 -0.27,-0.4 -0.6,-0.4 -0.329,0 -0.599,-0.21 -0.599,-0.466 0,-0.257 -0.112,-0.355 -0.249,-0.218 -0.233,0.233 -4.113,-1.529 -4.546,-2.066 -0.11,-0.136 -0.47,-0.3 -0.8,-0.364 -0.98,-0.19 -3.996,-1.853 -3.996,-2.204 0,-0.178 -0.191,-0.205 -0.426,-0.06 -0.234,0.145 -0.697,-0.07 -1.028,-0.476 -0.332,-0.407 -0.465,-0.47 -0.297,-0.14 0.338,0.661 -0.918,-0.154 -1.539,-0.999 -0.162,-0.22 -0.296,-0.264 -0.3,-0.098 -0.003,0.165 -0.86,-0.136 -1.904,-0.669 -3.963,-2.025 -7.918,-3.828 -8.395,-3.828 -0.273,0 -0.496,-0.18 -0.496,-0.4 0,-0.22 -0.36,-0.4 -0.799,-0.4 -0.44,0 -0.8,-0.179 -0.8,-0.399 0,-0.22 -0.233,-0.4 -0.519,-0.4 -0.735,0 -2.671,-0.94 -2.674,-1.299 -0.002,-0.164 -0.363,-0.299 -0.803,-0.299 -0.439,0 -0.799,-0.18 -0.799,-0.4 0,-0.22 -0.359,-0.399 -0.799,-0.399 -0.44,0 -0.799,-0.18 -0.799,-0.4 0,-0.22 -0.36,-0.4 -0.799,-0.4 -0.44,0 -0.8,-0.179 -0.8,-0.399 0,-0.22 -0.359,-0.4 -0.799,-0.4 -0.439,0 -0.799,-0.18 -0.799,-0.399 0,-0.22 -0.36,-0.4 -0.799,-0.4 -0.44,0 -0.799,-0.18 -0.799,-0.4 0,-0.219 -0.63,-0.399 -1.399,-0.399 -0.769,0 -1.399,0.18 -1.399,0.399"
       stroke="none"
       fill="#acccfc"
       fill-rule="evenodd" />
    <path
       id="path1"
       d="m 86.314,206.222 c 0,59.539 -0.075,57.115 1.769,57.115 0.346,0 0.628,0.179 0.628,0.399 0,0.22 0.36,0.4 0.799,0.4 0.44,0 0.8,0.18 0.8,0.399 0,0.22 0.359,0.4 0.799,0.4 0.439,0 0.799,0.18 0.799,0.4 0,0.219 0.263,0.399 0.584,0.399 0.681,0 7.145,3.254 7.341,3.697 0.074,0.164 0.362,0.299 0.64,0.299 0.279,0 1.298,0.415 2.265,0.922 0.966,0.506 2.387,1.17 3.156,1.474 0.769,0.304 2.073,0.97 2.897,1.481 0.824,0.511 1.499,0.8 1.499,0.644 0,-0.157 0.215,-0.069 0.479,0.195 0.264,0.263 0.803,0.479 1.199,0.479 0.396,0 0.719,0.18 0.719,0.4 0,0.219 0.36,0.399 0.8,0.399 0.439,0 0.799,0.18 0.799,0.4 0,0.22 0.359,0.399 0.799,0.399 0.439,0 0.799,0.18 0.799,0.4 0,0.22 0.36,0.4 0.799,0.4 0.44,0 0.8,0.191 0.8,0.426 0,0.234 0.453,0.369 1.007,0.3 l 1.007,-0.127 -0.005,-55.345 c -0.005,-52.329 -0.044,-55.373 -0.708,-55.872 -0.386,-0.29 -3.399,-1.865 -6.696,-3.499 -3.297,-1.634 -6.444,-3.228 -6.993,-3.542 -0.55,-0.313 -1.584,-0.806 -2.298,-1.094 -0.714,-0.288 -1.298,-0.659 -1.298,-0.825 0,-0.167 -0.36,-0.302 -0.8,-0.302 -0.439,0 -0.799,-0.18 -0.799,-0.4 0,-0.22 -0.36,-0.4 -0.799,-0.4 -0.44,0 -0.799,-0.179 -0.799,-0.399 0,-0.22 -0.36,-0.4 -0.8,-0.4 -0.439,0 -0.799,-0.146 -0.799,-0.325 0,-0.179 -0.629,-0.572 -1.398,-0.874 -0.77,-0.301 -1.399,-0.695 -1.399,-0.873 0,-0.179 -0.254,-0.325 -0.565,-0.325 -0.311,0 -1.923,-0.72 -3.583,-1.599 -1.659,-0.879 -3.113,-1.598 -3.23,-1.598 -0.118,0 -0.214,25.187 -0.214,55.972 M 312.887,150.62 c 0,0.236 -0.449,0.429 -0.999,0.429 -0.549,0 -0.999,0.18 -0.999,0.4 0,0.219 -0.36,0.399 -0.799,0.399 -0.44,0 -0.799,0.136 -0.799,0.302 0,0.166 -0.585,0.554 -1.299,0.862 -0.714,0.308 -1.776,0.891 -2.359,1.297 -0.584,0.405 -1.266,0.736 -1.516,0.736 -0.25,0 -0.84,0.36 -1.312,0.799 -0.472,0.44 -1.184,0.799 -1.582,0.799 -0.398,0 -0.723,0.18 -0.723,0.4 0,0.22 -0.243,0.4 -0.539,0.4 -0.701,0 -3.047,1.14 -4.026,1.956 -0.422,0.353 -0.636,0.416 -0.476,0.141 0.418,-0.714 0.105,-0.618 -0.944,0.292 -0.501,0.435 -1.068,0.694 -1.26,0.576 -0.191,-0.119 -0.348,-0.06 -0.348,0.131 0,0.19 -1.304,0.965 -2.897,1.721 -1.593,0.757 -2.987,1.486 -3.097,1.62 -0.11,0.134 -0.874,0.484 -1.698,0.779 -0.824,0.295 -1.499,0.68 -1.499,0.856 0,0.175 -0.325,0.319 -0.724,0.319 -0.398,0 -1.118,0.367 -1.599,0.816 l -0.876,0.816 0.101,55.228 0.101,55.228 0.899,0.128 c 0.495,0.07 0.899,-0.065 0.899,-0.3 0,-0.235 0.253,-0.427 0.562,-0.427 0.309,0 1.253,-0.346 2.098,-0.769 0.845,-0.423 2.121,-1.007 2.835,-1.297 0.714,-0.29 1.299,-0.682 1.299,-0.872 0,-0.189 0.256,-0.246 0.57,-0.126 0.313,0.121 0.785,-0.04 1.048,-0.357 0.263,-0.316 0.725,-0.575 1.028,-0.575 0.303,0 0.55,-0.21 0.55,-0.467 0,-0.256 0.101,-0.365 0.225,-0.241 0.123,0.123 1.607,-0.449 3.297,-1.271 1.689,-0.822 4.69,-2.278 6.668,-3.235 1.978,-0.958 3.657,-1.885 3.73,-2.06 0.073,-0.175 0.478,-0.319 0.899,-0.319 0.421,0 0.766,-0.14 0.766,-0.312 0,-0.172 0.809,-0.551 1.798,-0.843 0.989,-0.292 1.798,-0.658 1.798,-0.812 0,-0.155 0.63,-0.528 1.4,-0.83 l 1.4,-0.55 -0.101,-55.963 c -0.096,-52.935 -0.139,-55.971 -0.801,-56.098 -0.384,-0.074 -0.699,0.058 -0.699,0.294 m -50.675,62.22 c -0.949,0.489 -2.156,1.171 -2.684,1.517 -0.527,0.345 -1.234,0.628 -1.572,0.628 -0.337,0 -0.613,0.18 -0.613,0.4 0,0.219 -0.225,0.399 -0.5,0.398 -0.489,-10e-4 -3.901,1.595 -4.296,2.009 -0.109,0.116 -1.638,0.94 -3.396,1.832 -3.789,1.922 -4.403,2.236 -6.038,3.086 -0.683,0.355 -1.358,0.53 -1.498,0.39 -0.141,-0.141 -0.256,-0.067 -0.256,0.163 0,0.415 -4.215,2.674 -4.542,2.435 -0.093,-0.068 -0.548,0.219 -1.011,0.638 -0.462,0.418 -0.847,0.598 -0.854,0.399 -0.007,-0.199 -0.284,-0.002 -0.616,0.438 -0.332,0.439 -0.656,0.709 -0.719,0.599 -0.155,-0.268 -4.368,1.682 -4.74,2.194 -0.161,0.222 -0.296,0.257 -0.299,0.077 -0.004,-0.18 -0.529,0.045 -1.167,0.499 -0.638,0.455 -1.403,0.831 -1.698,0.836 -0.296,0.004 -0.988,0.36 -1.537,0.79 -0.55,0.43 -1.224,0.785 -1.499,0.79 -0.274,0.005 -0.499,0.189 -0.499,0.409 0,0.219 -0.283,0.399 -0.628,0.399 -0.345,0 -0.899,0.272 -1.231,0.603 -0.332,0.332 -0.769,0.501 -0.971,0.376 -0.202,-0.125 -0.367,-0.036 -0.367,0.196 0,0.233 -0.234,0.424 -0.52,0.424 -0.735,0 -2.67,0.939 -2.674,1.298 -0.001,0.165 -0.362,0.3 -0.802,0.3 -0.44,0 -0.801,0.135 -0.802,0.3 -0.004,0.359 -1.939,1.298 -2.674,1.298 -0.286,0 -0.52,0.158 -0.52,0.352 0,0.381 -2.408,1.497 -2.897,1.342 -0.165,-0.052 -0.3,0.085 -0.3,0.304 0,0.22 -0.37,0.4 -0.823,0.4 -0.452,0 -0.711,0.18 -0.575,0.4 0.135,0.219 -0.124,0.399 -0.576,0.399 -0.453,0 -0.823,0.18 -0.823,0.4 0,0.22 -0.239,0.399 -0.532,0.399 -0.292,0 -1.381,0.431 -2.419,0.956 -1.786,0.904 -3.188,0.979 -3.672,0.195 -0.12,-0.193 -0.566,-0.351 -0.993,-0.351 -0.427,0 -0.776,-0.151 -0.776,-0.336 0,-0.185 -0.713,-0.571 -1.585,-0.859 -0.872,-0.288 -1.49,-0.676 -1.375,-0.863 0.116,-0.187 -0.16,-0.34 -0.612,-0.34 -0.453,0 -0.823,-0.18 -0.823,-0.4 0,-0.219 -0.135,-0.356 -0.3,-0.304 -0.489,0.155 -2.897,-0.961 -2.897,-1.342 0,-0.194 -0.135,-0.311 -0.3,-0.262 -0.448,0.133 -2.897,-1.038 -2.897,-1.386 0,-0.166 -0.359,-0.302 -0.799,-0.302 -0.44,0 -0.799,-0.157 -0.799,-0.35 0,-0.192 -0.518,-0.453 -1.151,-0.579 -0.633,-0.127 -1.42,-0.501 -1.75,-0.831 -0.33,-0.33 -0.684,-0.516 -0.786,-0.414 -0.101,0.101 -0.85,-0.267 -1.663,-0.819 -0.814,-0.551 -1.585,-1.003 -1.714,-1.003 -0.13,0 -3.089,-1.44 -6.576,-3.199 -3.487,-1.76 -6.346,-3.063 -6.352,-2.897 -0.007,0.166 -0.192,-0.006 -0.411,-0.381 -0.219,-0.376 -1.023,-0.801 -1.786,-0.944 -0.763,-0.143 -1.388,-0.387 -1.388,-0.541 0,-0.154 -0.629,-0.527 -1.398,-0.829 -0.769,-0.302 -1.399,-0.695 -1.399,-0.874 0,-0.179 -0.253,-0.325 -0.561,-0.325 -0.666,0 -3.976,-1.666 -4.167,-2.098 -0.074,-0.165 -0.371,-0.3 -0.662,-0.3 -0.641,0 -3.947,-1.678 -4.134,-2.097 -0.073,-0.165 -0.34,-0.3 -0.592,-0.3 -0.763,0 -5.468,-2.463 -5.468,-2.861 0,-0.204 -0.225,-0.332 -0.5,-0.284 -0.704,0.122 -2.697,-0.899 -2.697,-1.382 0,-0.221 -0.113,-0.289 -0.251,-0.151 -0.137,0.138 -0.758,-0.012 -1.378,-0.333 -2.963,-1.532 -2.767,-2.821 -2.767,18.118 0,19.479 0.016,19.66 1.679,19.66 0.395,0 0.719,0.146 0.719,0.325 0,0.179 0.629,0.572 1.399,0.874 0.769,0.302 1.398,0.651 1.398,0.776 0,0.125 0.585,0.469 1.299,0.765 0.714,0.296 1.928,0.798 2.697,1.116 0.769,0.318 1.711,0.749 2.093,0.959 0.381,0.209 0.966,0.38 1.298,0.38 0.333,0 0.605,0.18 0.605,0.399 0,0.22 0.234,0.4 0.52,0.4 0.285,0 0.744,0.225 1.019,0.5 0.274,0.274 0.625,0.514 0.779,0.532 1.023,0.119 2.477,0.712 2.477,1.009 0,0.196 0.36,0.357 0.8,0.357 0.439,0 0.799,0.179 0.799,0.399 0,0.22 0.359,0.4 0.799,0.4 0.44,0 0.799,0.146 0.799,0.325 0,0.179 0.63,0.572 1.399,0.874 0.769,0.301 1.398,0.695 1.398,0.873 0,0.179 0.276,0.325 0.614,0.325 0.337,0 1.971,0.72 3.63,1.599 1.66,0.879 3.282,1.598 3.606,1.598 0.324,0 0.478,0.18 0.342,0.4 -0.136,0.22 0.123,0.399 0.576,0.399 0.453,0 0.823,0.21 0.823,0.467 0,0.256 0.116,0.349 0.258,0.207 0.219,-0.218 2.568,0.907 5.936,2.843 0.715,0.411 3.687,1.727 4.195,1.857 0.693,0.178 3.487,1.677 3.929,2.107 0.292,0.286 0.697,0.417 0.899,0.292 0.202,-0.125 0.367,-0.037 0.367,0.196 0,0.233 0.36,0.423 0.799,0.423 0.44,0 0.8,0.18 0.8,0.4 0,0.219 0.233,0.399 0.519,0.399 0.735,0 2.671,0.94 2.674,1.299 0.002,0.165 0.374,0.3 0.826,0.3 0.453,0 0.712,0.179 0.576,0.399 -0.14,0.227 0.196,0.4 0.776,0.4 0.562,0 1.022,0.18 1.022,0.399 0,0.22 0.36,0.4 0.799,0.4 0.44,0 0.8,0.18 0.8,0.4 0,0.219 0.349,0.399 0.775,0.399 0.427,0 0.887,0.18 1.023,0.4 0.136,0.22 0.596,0.399 1.022,0.399 0.427,0 0.777,0.135 0.779,0.3 0.013,1.261 4.146,1.631 5.591,0.5 0.55,-0.43 1.188,-0.786 1.419,-0.791 0.672,-0.014 2.571,-0.979 2.574,-1.307 0.002,-0.165 0.363,-0.3 0.803,-0.3 0.439,0 0.799,-0.18 0.799,-0.4 0,-0.219 0.46,-0.399 1.022,-0.399 0.58,0 0.916,-0.173 0.776,-0.4 -0.136,-0.22 0.123,-0.399 0.576,-0.399 0.452,0 0.823,-0.18 0.823,-0.4 0,-0.22 0.344,-0.4 0.766,-0.4 0.421,0 0.825,-0.141 0.899,-0.314 0.147,-0.348 4.014,-2.249 5.428,-2.669 0.494,-0.147 0.899,-0.435 0.899,-0.64 0,-0.205 0.224,-0.37 0.499,-0.367 0.61,0.008 6.029,-2.578 9.708,-4.631 0.923,-0.516 1.792,-0.825 1.929,-0.687 0.138,0.138 0.251,0.041 0.251,-0.215 0,-0.257 0.36,-0.467 0.799,-0.467 0.44,0 0.8,-0.179 0.8,-0.399 0,-0.22 0.359,-0.4 0.799,-0.4 0.439,0 0.8,-0.135 0.802,-0.299 0.004,-0.351 1.932,-1.299 2.641,-1.299 0.267,0 0.546,-0.136 0.619,-0.302 0.074,-0.165 1.392,-0.929 2.931,-1.696 1.538,-0.767 2.857,-1.531 2.93,-1.697 0.074,-0.165 0.478,-0.301 0.899,-0.301 0.422,0 0.766,-0.18 0.766,-0.4 0,-0.22 0.36,-0.399 0.799,-0.399 0.44,0 0.8,-0.18 0.8,-0.4 0,-0.22 0.277,-0.4 0.615,-0.4 0.338,0 1.327,-0.363 2.198,-0.807 0.87,-0.444 1.585,-0.669 1.588,-0.499 0.004,0.169 0.139,0.108 0.3,-0.135 0.257,-0.387 3.758,-2.11 4.312,-2.122 0.113,-0.002 0.491,-0.289 0.839,-0.638 0.349,-0.348 1.151,-0.737 1.784,-0.863 0.633,-0.127 1.151,-0.388 1.151,-0.58 0,-0.192 0.36,-0.35 0.799,-0.35 0.44,0 0.799,-0.179 0.799,-0.399 0,-0.22 0.27,-0.4 0.6,-0.4 0.329,0 0.599,-0.18 0.599,-0.399 0,-0.22 0.283,-0.4 0.628,-0.4 1.777,0 1.783,-0.077 1.674,-20.017 -0.116,-21.093 0.115,-19.711 -3.027,-18.092"
       stroke="none"
       fill="#649cf4"
       fill-rule="evenodd" />
    <path
       id="path2"
       d="m 196.056,28.579 c -1.51,0.765 -2.994,1.391 -3.297,1.391 -0.303,0 -0.551,0.18 -0.551,0.4 0,0.219 -0.36,0.399 -0.799,0.399 -0.44,0 -0.8,0.159 -0.8,0.353 0,0.194 -0.404,0.485 -0.899,0.646 -0.494,0.161 -0.989,0.324 -1.099,0.363 -0.11,0.039 -0.761,0.37 -1.447,0.737 -0.687,0.367 -1.361,0.554 -1.499,0.416 -0.138,-0.138 -0.25,-0.041 -0.25,0.216 0,0.256 -0.36,0.466 -0.8,0.466 -0.439,0 -0.799,0.146 -0.799,0.325 0,0.179 -0.629,0.572 -1.398,0.874 -0.77,0.302 -1.399,0.695 -1.399,0.874 0,0.178 -0.272,0.325 -0.605,0.325 -0.653,0 -2.244,0.798 -2.628,1.318 -0.129,0.176 -0.619,0.349 -1.088,0.384 -0.469,0.036 -0.946,0.308 -1.06,0.605 -0.114,0.297 -0.389,0.429 -0.61,0.292 -0.222,-0.137 -0.403,-0.058 -0.403,0.174 0,0.233 -0.359,0.423 -0.799,0.423 -0.439,0 -0.799,0.18 -0.799,0.4 0,0.22 -0.315,0.404 -0.699,0.409 -0.385,0.004 -1.149,0.36 -1.699,0.79 -0.549,0.43 -1.313,0.785 -1.698,0.79 -0.385,0.005 -0.699,0.167 -0.699,0.36 0,0.293 -2.138,1.403 -2.797,1.453 -0.11,0.008 -0.693,0.345 -1.296,0.748 -0.603,0.403 -1.376,0.625 -1.719,0.494 -0.358,-0.138 -0.519,-0.072 -0.379,0.155 0.225,0.365 -0.332,0.574 -1.143,0.429 -0.188,-0.034 -0.668,0.317 -1.069,0.778 -0.4,0.462 -0.839,0.809 -0.975,0.772 -0.481,-0.132 -2.61,0.917 -2.61,1.286 0,0.206 -0.154,0.28 -0.341,0.164 -0.187,-0.116 -0.682,0.048 -1.099,0.363 -0.417,0.316 -1.073,0.58 -1.457,0.587 -0.385,0.007 -0.7,0.192 -0.7,0.412 0,0.22 -0.269,0.4 -0.599,0.4 -0.33,0 -0.599,0.179 -0.599,0.399 0,0.22 -0.27,0.4 -0.6,0.4 -0.33,0 -0.602,0.225 -0.605,0.499 -0.005,0.392 -0.074,0.394 -0.318,0.009 -0.229,-0.36 -0.463,-0.281 -0.881,0.3 -0.323,0.448 -1.032,0.79 -1.638,0.79 -0.587,0 -1.171,0.27 -1.298,0.6 -0.126,0.329 -0.46,0.605 -0.742,0.613 -0.877,0.023 -3.537,1.424 -3.249,1.711 0.15,0.15 -0.117,0.273 -0.593,0.273 -0.476,0 -0.866,0.18 -0.866,0.4 0,0.219 -0.46,0.399 -1.022,0.399 -0.58,0 -0.916,0.173 -0.776,0.4 0.14,0.226 -0.196,0.399 -0.775,0.399 -0.563,0 -1.023,0.18 -1.023,0.4 0,0.22 -0.36,0.4 -0.799,0.4 -0.44,0 -0.799,0.179 -0.799,0.399 0,0.22 -0.36,0.4 -0.8,0.4 -0.439,0 -0.799,0.18 -0.799,0.399 0,0.22 -0.347,0.4 -0.771,0.4 -0.423,0 -1.04,0.27 -1.37,0.599 -0.329,0.33 -1.061,0.6 -1.627,0.6 -0.565,0 -1.027,0.18 -1.027,0.399 0,0.22 -0.236,0.4 -0.524,0.4 -0.288,0 -0.91,0.36 -1.382,0.799 -0.472,0.44 -1.233,0.799 -1.69,0.799 -0.458,0 -1.219,0.36 -1.691,0.8 -0.472,0.439 -1.184,0.799 -1.582,0.799 -0.398,0 -0.723,0.18 -0.723,0.399 0,0.22 -0.36,0.4 -0.8,0.4 -0.439,0 -0.799,0.18 -0.799,0.4 0,0.219 -0.36,0.399 -0.799,0.399 -0.44,0 -0.799,0.18 -0.799,0.4 0,0.22 -0.36,0.399 -0.799,0.399 -0.44,0 -0.8,0.18 -0.8,0.4 0,0.22 -0.359,0.4 -0.799,0.4 -0.439,0 -0.799,0.179 -0.799,0.399 0,0.22 -0.36,0.4 -0.799,0.4 -0.44,0 -0.799,0.18 -0.799,0.399 0,0.22 -0.36,0.4 -0.8,0.4 -0.439,0 -0.8,0.135 -0.802,0.3 -0.004,0.359 -1.939,1.298 -2.674,1.298 -0.286,0 -0.52,0.18 -0.52,0.4 0,0.22 -0.269,0.4 -0.599,0.4 -0.33,0 -0.601,0.135 -0.603,0.299 -0.003,0.359 -1.938,1.299 -2.674,1.299 -0.285,0 -0.519,0.18 -0.519,0.4 0,0.219 -0.36,0.399 -0.799,0.399 -0.44,0 -0.8,0.18 -0.8,0.4 0,0.22 -0.359,0.399 -0.799,0.399 -0.439,0 -0.799,0.18 -0.799,0.4 0,0.22 -0.349,0.4 -0.776,0.4 -0.426,0 -0.888,0.182 -1.026,0.406 -0.138,0.223 -0.419,0.302 -0.623,0.176 -0.205,-0.126 -0.372,-0.039 -0.372,0.193 0,0.233 -0.166,0.423 -0.369,0.423 -0.899,0 -4.426,1.85 -4.426,2.322 0,0.287 -0.169,0.419 -0.374,0.292 -0.324,-0.2 -3.868,1.228 -4.422,1.782 -0.477,0.477 -2.037,1.199 -2.592,1.199 -0.332,0 -0.605,0.18 -0.605,0.399 0,0.22 -0.359,0.4 -0.799,0.4 -0.439,0 -0.8,0.135 -0.802,0.3 -0.004,0.359 -1.939,1.298 -2.674,1.298 -0.286,0 -0.52,0.18 -0.52,0.4 0,0.22 -0.37,0.4 -0.823,0.4 -0.452,0 -0.711,0.18 -0.575,0.399 0.136,0.22 -0.124,0.4 -0.576,0.4 -0.453,0 -0.824,0.135 -0.826,0.3 -0.004,0.358 -1.939,1.298 -2.674,1.298 -0.286,0 -0.52,0.18 -0.52,0.4 0,0.22 -0.344,0.399 -0.766,0.399 -0.421,0 -0.825,0.179 -0.899,0.397 -0.073,0.218 -0.614,0.435 -1.203,0.484 -0.589,0.049 -0.983,0.23 -0.876,0.403 0.107,0.173 -0.042,0.315 -0.331,0.315 -0.289,0 -3.214,1.349 -6.501,2.997 -3.286,1.648 -6.215,2.997 -6.507,2.997 -0.293,0 -0.919,0.36 -1.39,0.799 -0.747,0.696 -1.11,0.832 -2.114,0.791 -0.193,-0.008 -0.708,0.381 -1.908,1.439 -0.269,0.237 -0.712,0.357 -0.985,0.266 -0.273,-0.091 -0.496,0.03 -0.496,0.268 0,0.238 -0.367,0.433 -0.816,0.433 -0.448,0 -1.202,0.36 -1.673,0.799 -0.472,0.44 -1.094,0.799 -1.382,0.799 -0.289,0 -0.524,0.18 -0.524,0.4 0,0.22 -0.45,0.4 -0.999,0.4 -0.55,0 -0.999,0.179 -0.999,0.399 0,0.22 -0.27,0.4 -0.6,0.4 -0.329,0 -0.599,0.18 -0.599,0.399 0,0.22 -0.45,0.4 -0.999,0.4 -0.55,0 -1.001,0.135 -1.002,0.3 -0.004,0.314 -1.901,1.298 -2.503,1.298 -0.404,0 -1.49,1.02 -1.49,1.399 0,0.492 1.146,1.399 1.769,1.399 0.346,0 0.628,0.179 0.628,0.399 0,0.22 0.36,0.4 0.8,0.4 0.439,0 0.799,0.18 0.799,0.399 0,0.22 0.449,0.4 0.999,0.4 0.549,0 0.999,0.18 0.999,0.4 0,0.219 0.404,0.402 0.899,0.405 0.727,0.005 0.784,0.08 0.3,0.394 -0.467,0.302 -0.357,0.388 0.499,0.393 0.605,0.004 1.099,0.186 1.099,0.406 0,0.22 0.36,0.4 0.799,0.4 0.44,0 0.799,0.179 0.799,0.399 0,0.22 0.27,0.4 0.6,0.4 0.33,0 0.599,0.18 0.599,0.399 0,0.22 0.36,0.4 0.799,0.4 0.44,0 0.8,0.18 0.8,0.4 0,0.219 0.234,0.399 0.519,0.399 0.736,0 2.671,0.94 2.674,1.299 0.002,0.165 0.363,0.3 0.803,0.3 0.439,0 0.799,0.179 0.799,0.399 0,0.22 0.345,0.4 0.766,0.4 0.421,0 0.826,0.135 0.899,0.299 0.073,0.165 1.032,0.724 2.131,1.243 1.099,0.519 2.358,1.136 2.797,1.372 2.723,1.463 5.043,2.444 5.524,2.335 0.182,-0.041 0.233,0.083 0.114,0.275 -0.221,0.357 0.552,0.811 2.854,1.677 0.714,0.268 1.298,0.646 1.298,0.839 0,0.193 0.36,0.351 0.8,0.351 0.439,0 0.799,0.18 0.799,0.4 0,0.22 0.27,0.4 0.599,0.4 0.33,0 0.6,-0.18 0.6,-0.4 0,-0.22 0.359,-0.4 0.799,-0.4 0.439,0 0.799,-0.179 0.799,-0.399 0,-0.22 0.36,-0.4 0.799,-0.4 0.44,0 0.799,-0.18 0.799,-0.399 0,-0.22 0.315,-0.403 0.7,-0.407 0.384,-0.004 1.666,-0.54 2.847,-1.192 1.182,-0.651 2.293,-1.094 2.47,-0.985 0.177,0.109 0.423,0.035 0.547,-0.166 0.32,-0.518 3.336,-2.046 4.038,-2.046 0.323,0 0.587,-0.151 0.587,-0.335 0,-0.185 0.72,-0.573 1.599,-0.863 0.879,-0.291 1.598,-0.64 1.598,-0.776 0,-0.136 0.495,-0.461 1.099,-0.721 0.604,-0.26 1.369,-0.639 1.698,-0.843 0.33,-0.204 1.499,-0.793 2.598,-1.308 1.099,-0.515 2.088,-1.029 2.197,-1.142 0.11,-0.113 0.409,-0.245 0.665,-0.294 0.255,-0.048 1.12,-0.533 1.922,-1.077 0.801,-0.544 1.716,-0.89 2.033,-0.768 0.316,0.121 0.575,0.022 0.575,-0.222 0,-0.243 0.371,-0.442 0.823,-0.442 0.453,0 0.712,-0.18 0.576,-0.399 -0.215,-0.348 0.595,-0.59 1.498,-0.447 0.165,0.026 0.3,-0.133 0.3,-0.353 0,-0.219 0.36,-0.399 0.799,-0.399 0.44,0 0.8,-0.158 0.8,-0.351 0,-0.194 0.584,-0.576 1.298,-0.85 2.88,-1.106 3.497,-1.405 3.497,-1.694 0,-0.166 0.28,-0.302 0.623,-0.302 0.369,0 0.507,-0.188 0.338,-0.461 -0.182,-0.294 -0.109,-0.353 0.2,-0.162 0.536,0.332 2.923,-0.509 2.659,-0.937 -0.092,-0.148 0.315,-0.308 0.904,-0.357 0.588,-0.048 1.13,-0.266 1.203,-0.484 0.073,-0.218 0.478,-0.396 0.899,-0.396 0.421,0 0.766,-0.27 0.766,-0.6 0,-0.329 0.135,-0.566 0.3,-0.525 0.449,0.111 3.433,-1.247 3.705,-1.686 0.129,-0.21 0.72,-0.422 1.312,-0.471 0.592,-0.049 1.077,-0.23 1.077,-0.402 0,-0.172 0.389,-0.312 0.866,-0.312 0.476,0 0.742,-0.123 0.592,-0.274 -0.281,-0.281 3.137,-2.059 4.036,-2.101 0.275,-0.013 0.5,-0.203 0.5,-0.423 0,-0.219 0.37,-0.399 0.823,-0.399 0.452,0 0.711,-0.18 0.575,-0.4 -0.14,-0.226 0.196,-0.399 0.776,-0.399 0.562,0 1.023,-0.18 1.023,-0.4 0,-0.22 0.344,-0.4 0.765,-0.4 0.422,0 0.826,-0.134 0.9,-0.299 0.191,-0.432 3.501,-2.098 4.167,-2.098 0.308,0 0.561,-0.18 0.561,-0.4 0,-0.219 0.36,-0.399 0.799,-0.399 0.44,0 0.8,-0.168 0.8,-0.374 0,-0.206 0.629,-0.601 1.398,-0.88 0.769,-0.278 1.399,-0.66 1.399,-0.848 0,-0.189 0.158,-0.245 0.351,-0.126 0.426,0.263 2.846,-0.893 2.846,-1.361 0,-0.183 0.359,-0.238 0.799,-0.123 0.564,0.147 0.799,0.012 0.799,-0.461 0,-0.368 0.139,-0.584 0.309,-0.479 0.17,0.105 1.379,-0.334 2.687,-0.975 1.308,-0.642 2.608,-1.167 2.888,-1.167 0.28,0 0.51,-0.179 0.51,-0.399 0,-0.22 0.359,-0.4 0.799,-0.4 0.439,0 0.799,-0.18 0.799,-0.399 0,-0.22 0.36,-0.4 0.799,-0.4 0.44,0 0.799,-0.18 0.799,-0.4 0,-0.219 0.27,-0.399 0.6,-0.399 0.329,0 0.599,-0.18 0.599,-0.4 0,-0.219 0.36,-0.399 0.799,-0.399 0.44,0 0.8,-0.18 0.8,-0.4 0,-0.22 0.359,-0.4 0.799,-0.4 0.439,0 0.799,-0.179 0.799,-0.399 0,-0.22 0.36,-0.4 0.799,-0.4 0.44,0 0.799,-0.18 0.799,-0.399 0,-0.22 0.36,-0.4 0.8,-0.4 0.439,0 0.799,-0.18 0.799,-0.4 0,-0.219 0.282,-0.399 0.628,-0.399 0.345,0 0.899,-0.272 1.231,-0.603 0.331,-0.332 0.768,-0.501 0.97,-0.376 0.202,0.125 0.368,0.036 0.368,-0.196 0,-0.233 0.359,-0.424 0.799,-0.424 0.439,0 0.799,-0.179 0.799,-0.399 0,-0.22 0.37,-0.4 0.823,-0.4 0.452,0 0.711,-0.18 0.576,-0.399 -0.14,-0.227 0.195,-0.4 0.775,-0.4 0.563,0 1.023,-0.18 1.023,-0.4 0,-0.219 0.293,-0.399 0.652,-0.399 0.669,0 3.449,-1.547 3.663,-2.039 0.065,-0.15 0.47,-0.182 0.899,-0.07 0.429,0.112 0.78,0.004 0.78,-0.242 0,-0.246 0.359,-0.446 0.799,-0.446 0.44,0 0.799,-0.18 0.799,-0.4 0,-0.22 0.197,-0.4 0.438,-0.4 0.241,0 0.918,-0.342 1.506,-0.76 0.587,-0.418 1.424,-0.823 1.86,-0.899 0.435,-0.076 1.038,-0.372 1.339,-0.658 0.301,-0.285 1.066,-0.623 1.699,-0.749 0.632,-0.127 1.15,-0.354 1.15,-0.505 0,-0.152 0.63,-0.522 1.399,-0.824 0.769,-0.302 1.398,-0.695 1.398,-0.874 0,-0.179 0.36,-0.325 0.8,-0.325 0.439,0 0.799,-0.18 0.799,-0.4 0,-0.219 0.344,-0.399 0.766,-0.399 0.421,0 0.856,-0.225 0.967,-0.5 0.161,-0.399 0.208,-0.399 0.233,0 0.018,0.275 0.391,0.5 0.831,0.5 0.44,0 0.799,0.18 0.799,0.399 0,0.22 0.448,0.4 0.996,0.4 0.563,0 1.212,0.347 1.495,0.799 0.274,0.44 0.691,0.799 0.927,0.799 0.235,0 1.172,0.36 2.082,0.8 0.91,0.439 1.854,0.799 2.097,0.799 0.243,0 0.314,0.207 0.157,0.461 -0.158,0.256 -0.111,0.354 0.105,0.22 0.215,-0.132 0.892,0.02 1.506,0.338 0.614,0.319 1.288,0.579 1.499,0.579 0.21,0 0.653,0.272 0.985,0.603 0.332,0.332 0.769,0.501 0.971,0.376 0.202,-0.125 0.367,-0.036 0.367,0.196 0,0.233 0.27,0.424 0.599,0.424 0.33,0 0.6,0.199 0.6,0.443 0,0.271 0.424,0.355 1.099,0.215 0.604,-0.125 0.874,-0.129 0.599,-0.01 -0.685,0.298 -0.636,1.088 0.051,0.824 0.303,-0.116 0.779,0 1.058,0.257 0.396,0.366 0.444,0.338 0.218,-0.131 -0.159,-0.33 0.068,-0.195 0.505,0.3 0.437,0.494 1.08,0.899 1.429,0.899 0.349,0 0.635,0.18 0.635,0.399 0,0.22 0.36,0.4 0.799,0.4 0.44,0 0.8,0.136 0.8,0.302 0,0.167 0.752,0.537 1.671,0.824 0.919,0.287 2.161,0.87 2.759,1.296 0.598,0.426 1.475,0.775 1.949,0.775 0.473,0 0.768,0.149 0.655,0.332 -0.113,0.183 0.416,0.576 1.176,0.874 0.759,0.298 1.38,0.707 1.38,0.909 0,0.202 0.244,0.275 0.541,0.16 0.298,-0.114 1.009,0.226 1.581,0.757 0.572,0.53 1.508,0.964 2.08,0.964 0.572,0 0.941,0.161 0.819,0.357 -0.121,0.196 0.215,0.466 0.748,0.6 0.533,0.134 1.206,0.474 1.496,0.756 0.29,0.283 1.32,0.748 2.289,1.034 0.969,0.286 2.018,0.775 2.33,1.088 0.312,0.312 0.733,0.466 0.935,0.341 0.203,-0.125 0.368,-0.059 0.368,0.147 0,0.207 0.539,0.599 1.199,0.872 0.659,0.273 1.198,0.633 1.198,0.801 0,0.167 0.405,0.401 0.9,0.518 1.549,0.369 3.689,1.25 4.799,1.978 0.586,0.384 1.253,0.699 1.48,0.699 0.228,0 0.414,0.18 0.414,0.399 0,0.22 0.349,0.4 0.775,0.4 0.427,0 0.887,0.18 1.023,0.399 0.136,0.22 0.596,0.4 1.023,0.4 0.426,0 0.775,0.18 0.775,0.4 0,0.219 0.371,0.399 0.823,0.399 0.453,0 0.712,0.18 0.576,0.4 -0.144,0.233 0.262,0.399 0.975,0.399 0.673,0 1.223,0.18 1.223,0.4 0,0.22 0.359,0.4 0.799,0.4 0.439,0 0.799,0.18 0.799,0.399 0,0.22 0.36,0.4 0.799,0.4 0.44,0 0.799,0.18 0.799,0.399 0,0.22 0.36,0.4 0.8,0.4 0.439,0 0.8,0.135 0.802,0.3 0.004,0.359 1.939,1.298 2.674,1.298 0.286,0 0.52,0.18 0.52,0.4 0,0.22 0.269,0.4 0.599,0.4 0.33,0 0.599,0.18 0.599,0.399 0,0.22 0.211,0.4 0.468,0.4 0.722,0 5.926,2.534 5.926,2.885 0,0.172 0.36,0.312 0.799,0.312 0.44,0 0.799,0.18 0.799,0.399 0,0.22 0.252,0.4 0.559,0.4 0.582,0 4.838,2.135 5.726,2.872 0.28,0.233 0.509,0.275 0.509,0.094 0,-0.181 0.215,-0.113 0.479,0.151 0.264,0.264 0.803,0.479 1.199,0.479 0.396,0 0.719,0.18 0.719,0.4 0,0.22 0.36,0.4 0.799,0.4 0.44,0 0.8,0.179 0.8,0.399 0,0.22 0.359,0.4 0.799,0.4 0.439,0 0.799,0.18 0.799,0.399 0,0.22 0.36,0.4 0.799,0.4 0.44,0 0.799,0.18 0.799,0.4 0,0.219 0.36,0.399 0.8,0.399 0.439,0 0.799,0.18 0.799,0.4 0,0.219 0.36,0.399 0.799,0.399 0.44,0 0.799,0.18 0.799,0.4 0,0.22 0.345,0.4 0.766,0.4 0.421,0 0.826,0.135 0.899,0.301 0.074,0.166 1.392,0.929 2.931,1.697 1.538,0.767 2.857,1.53 2.93,1.696 0.073,0.166 0.478,0.302 0.899,0.302 0.421,0 0.766,0.179 0.766,0.399 0,0.22 0.36,0.4 0.799,0.4 0.44,0 0.8,0.18 0.8,0.399 0,0.22 0.143,0.355 0.318,0.3 0.395,-0.124 4.227,1.786 4.41,2.198 0.073,0.165 0.467,0.3 0.876,0.3 0.408,0 0.861,0.192 1.006,0.426 0.145,0.235 0.524,0.327 0.843,0.205 0.319,-0.123 0.482,-0.064 0.362,0.13 -0.264,0.426 0.898,0.932 1.411,0.615 0.2,-0.124 0.364,0.055 0.364,0.398 0,0.343 0.135,0.585 0.3,0.538 0.164,-0.046 0.708,0.142 1.207,0.418 0.499,0.277 1.111,0.377 1.36,0.223 0.278,-0.171 0.343,-0.101 0.168,0.182 -0.18,0.291 0.018,0.461 0.538,0.461 0.452,0 0.823,0.18 0.823,0.4 0,0.219 0.359,0.399 0.799,0.399 0.439,0 0.799,0.136 0.799,0.302 0,0.596 2.566,1.113 3.496,0.703 0.495,-0.217 0.9,-0.532 0.9,-0.7 0,-0.168 0.359,-0.305 0.799,-0.305 0.439,0 0.799,-0.18 0.799,-0.399 0,-0.22 0.36,-0.4 0.799,-0.4 0.44,0 0.799,-0.191 0.799,-0.423 0,-0.233 0.18,-0.312 0.4,-0.176 0.22,0.135 0.4,0.056 0.4,-0.177 0,-0.232 0.359,-0.423 0.799,-0.423 0.439,0 0.799,-0.156 0.799,-0.348 0,-0.191 0.854,-0.583 1.898,-0.87 1.044,-0.288 2.168,-0.807 2.498,-1.154 0.329,-0.347 1.138,-0.878 1.798,-1.18 0.659,-0.302 1.852,-0.885 2.652,-1.296 0.799,-0.41 1.743,-0.746 2.097,-0.746 0.355,0 0.645,-0.168 0.645,-0.374 0,-0.206 0.63,-0.601 1.399,-0.879 0.769,-0.279 1.399,-0.65 1.399,-0.826 0,-0.175 0.269,-0.319 0.599,-0.319 0.33,0 0.599,-0.18 0.599,-0.399 0,-0.22 0.371,-0.4 0.823,-0.4 0.453,0 0.712,-0.18 0.576,-0.4 -0.14,-0.226 0.196,-0.399 0.776,-0.399 0.562,0 1.024,-0.135 1.025,-0.3 0.004,-0.359 1.939,-1.299 2.674,-1.299 0.286,0 0.52,-0.168 0.52,-0.373 0,-0.206 0.629,-0.602 1.399,-0.88 0.769,-0.278 1.398,-0.649 1.398,-0.825 0,-0.176 0.36,-0.319 0.799,-0.319 0.44,0 0.8,-0.18 0.8,-0.4 0,-0.22 0.282,-0.399 0.628,-0.399 0.623,0 1.769,-0.907 1.769,-1.399 0,-0.493 -1.146,-1.399 -1.769,-1.399 -0.346,0 -0.628,-0.18 -0.628,-0.399 0,-0.22 -0.36,-0.4 -0.8,-0.4 -0.439,0 -0.799,-0.18 -0.799,-0.399 0,-0.22 -0.27,-0.4 -0.599,-0.4 -0.33,0 -0.6,-0.18 -0.6,-0.4 0,-0.219 -0.449,-0.399 -0.999,-0.399 -0.549,0 -0.999,-0.147 -0.999,-0.325 0,-0.179 -0.629,-0.572 -1.398,-0.874 -0.769,-0.302 -1.399,-0.695 -1.399,-0.874 0,-0.179 -0.359,-0.325 -0.799,-0.325 -0.44,0 -0.799,-0.18 -0.799,-0.399 0,-0.22 -0.36,-0.4 -0.799,-0.4 -0.44,0 -0.8,-0.18 -0.8,-0.4 0,-0.219 -0.252,-0.399 -0.561,-0.399 -0.666,0 -3.975,-1.667 -4.167,-2.098 -0.074,-0.165 -0.444,-0.3 -0.824,-0.3 -0.38,0 -1.054,-0.339 -1.499,-0.753 -0.444,-0.414 -1.412,-0.885 -2.15,-1.047 -0.739,-0.163 -1.572,-0.498 -1.851,-0.746 -1.431,-1.269 -1.796,-1.45 -2.929,-1.45 -0.723,0 -1.323,-0.246 -1.459,-0.599 -0.126,-0.33 -0.57,-0.6 -0.986,-0.6 -0.416,0 -0.756,-0.18 -0.756,-0.399 0,-0.22 -0.36,-0.4 -0.8,-0.4 -0.439,0 -0.799,-0.18 -0.799,-0.4 0,-0.219 -0.36,-0.399 -0.799,-0.399 -0.44,0 -0.799,-0.18 -0.799,-0.4 0,-0.219 -0.234,-0.399 -0.52,-0.399 -0.735,0 -2.67,-0.94 -2.674,-1.299 -0.002,-0.165 -0.269,-0.3 -0.593,-0.3 -0.603,0 -4.897,-2.18 -5.584,-2.835 -0.209,-0.199 -0.804,-0.362 -1.322,-0.362 -0.527,0 -0.834,-0.176 -0.696,-0.399 0.136,-0.22 -0.033,-0.4 -0.376,-0.4 -0.343,0 -0.623,-0.18 -0.623,-0.399 0,-0.22 -0.473,-0.4 -1.052,-0.4 -0.579,0 -1.364,-0.36 -1.745,-0.799 -0.381,-0.44 -1.167,-0.839 -1.745,-0.887 -0.579,-0.047 -1.052,-0.194 -1.052,-0.325 0,-0.344 -3.169,-1.985 -3.834,-1.985 -0.309,0 -0.562,-0.18 -0.562,-0.4 0,-0.219 -0.273,-0.399 -0.607,-0.399 -0.334,0 -1.32,-0.45 -2.19,-0.999 -0.87,-0.55 -1.856,-0.999 -2.19,-0.999 -0.334,0 -0.607,-0.18 -0.607,-0.4 0,-0.22 -0.234,-0.399 -0.52,-0.399 -0.735,0 -2.67,-0.94 -2.674,-1.299 -0.002,-0.165 -0.255,-0.3 -0.562,-0.3 -0.307,0 -1.584,-0.539 -2.838,-1.199 -1.253,-0.659 -2.457,-1.198 -2.675,-1.198 -0.217,0 -0.853,-0.36 -1.411,-0.8 -0.559,-0.439 -1.269,-0.799 -1.579,-0.799 -0.309,0 -0.948,-0.359 -1.42,-0.799 -0.472,-0.439 -1.147,-0.799 -1.502,-0.799 -0.354,0 -0.814,-0.156 -1.023,-0.346 -0.689,-0.627 -4.788,-2.727 -6.294,-3.224 -0.813,-0.269 -1.478,-0.673 -1.478,-0.899 0,-0.227 -0.257,-0.313 -0.571,-0.193 -0.313,0.12 -0.785,-0.04 -1.047,-0.357 -0.263,-0.316 -0.726,-0.576 -1.029,-0.576 -0.302,0 -0.55,-0.142 -0.55,-0.316 0,-0.174 -0.819,-0.536 -1.819,-0.804 -1.253,-0.335 -1.731,-0.64 -1.535,-0.982 0.157,-0.272 0.144,-0.368 -0.028,-0.212 -0.172,0.155 -1.003,-0.07 -1.846,-0.5 -0.844,-0.43 -1.81,-0.782 -2.149,-0.782 -0.338,0 -0.615,-0.18 -0.615,-0.4 0,-0.219 -0.36,-0.399 -0.799,-0.399 -0.44,0 -0.8,-0.18 -0.8,-0.4 0,-0.22 -0.359,-0.399 -0.799,-0.399 -0.439,0 -0.8,-0.135 -0.802,-0.3 -0.004,-0.359 -1.939,-1.299 -2.674,-1.299 -0.286,0 -0.52,-0.146 -0.52,-0.325 0,-0.179 -0.629,-0.572 -1.398,-0.874 -0.77,-0.301 -1.399,-0.695 -1.399,-0.873 0,-0.179 -0.36,-0.325 -0.799,-0.325 -0.44,0 -0.799,-0.18 -0.799,-0.4 0,-0.22 -0.461,-0.4 -1.023,-0.4 -0.58,0 -0.916,-0.173 -0.776,-0.399 0.136,-0.22 -0.123,-0.4 -0.575,-0.4 -0.453,0 -0.823,-0.18 -0.823,-0.399 0,-0.22 -0.36,-0.4 -0.799,-0.4 -0.44,0 -0.8,-0.18 -0.8,-0.4 0,-0.219 -0.359,-0.399 -0.799,-0.399 -0.439,0 -0.799,-0.18 -0.799,-0.4 0,-0.22 -0.45,-0.399 -0.999,-0.399 -0.549,0 -0.999,-0.159 -0.999,-0.353 0,-0.357 -1.296,-0.91 -2.398,-1.022 -0.329,-0.034 -0.554,-0.278 -0.499,-0.542 0.055,-0.265 -0.249,-0.481 -0.676,-0.481 -0.426,0 -0.888,-0.183 -1.026,-0.406 -0.138,-0.223 -0.419,-0.303 -0.623,-0.176 -0.205,0.126 -0.372,-0.051 -0.372,-0.393 0,-0.343 -0.276,-0.623 -0.613,-0.623 -0.337,0 -1.5,-0.45 -2.584,-0.999 -1.084,-0.55 -2.247,-0.999 -2.584,-0.999 -0.337,0 -0.613,-0.18 -0.613,-0.4 0,-0.22 -0.36,-0.4 -0.799,-0.4 -0.44,0 -0.799,-0.179 -0.799,-0.399 0,-0.22 -0.27,-0.4 -0.6,-0.4 -0.329,0 -0.599,-0.16 -0.599,-0.355 0,-0.196 -0.809,-0.595 -1.798,-0.887 -0.989,-0.292 -1.799,-0.638 -1.799,-0.768 0,-0.131 -0.629,-0.485 -1.398,-0.787 -0.769,-0.302 -1.399,-0.695 -1.399,-0.874 0,-0.179 -0.234,-0.325 -0.52,-0.325 -0.735,0 -2.67,-0.94 -2.673,-1.298 -0.002,-0.165 -0.363,-0.3 -0.803,-0.3 -0.439,0 -0.799,-0.18 -0.799,-0.4 0,-0.22 -0.234,-0.399 -0.52,-0.399 -0.735,0 -2.67,-0.94 -2.674,-1.299 -0.001,-0.165 -0.352,-0.3 -0.778,-0.3 -0.427,0 -0.887,-0.18 -1.023,-0.399 -0.136,-0.22 -0.596,-0.4 -1.023,-0.4 -0.426,0 -0.775,-0.18 -0.775,-0.4 0,-0.219 -0.277,-0.399 -0.616,-0.399 -0.339,0 -1.003,-0.36 -1.474,-0.8 -0.472,-0.439 -1.139,-0.754 -1.482,-0.699 -0.343,0.055 -0.579,-0.125 -0.524,-0.399 0.055,-0.275 -0.26,-0.5 -0.699,-0.5 -0.44,0 -0.8,-0.19 -0.8,-0.423 0,-0.233 -0.15,-0.33 -0.334,-0.217 -0.184,0.114 -1.165,-0.235 -2.179,-0.775 -1.015,-0.54 -2.102,-0.982 -2.414,-0.982 -0.313,0 -0.793,-0.27 -1.067,-0.6 -0.867,-1.045 -3.537,-0.715 -6.541,0.807 M 37.163,208.612 c 0,88.6 -0.091,84.295 1.769,84.295 0.346,0 0.628,0.18 0.628,0.4 0,0.219 0.36,0.399 0.8,0.399 0.439,0 0.799,0.18 0.799,0.4 0,0.22 0.415,0.399 0.923,0.399 0.509,0 1.31,0.36 1.782,0.8 0.472,0.439 1.236,0.799 1.697,0.799 0.462,0 0.729,0.18 0.593,0.399 -0.136,0.22 0.108,0.4 0.542,0.4 0.435,0 0.852,0.188 0.929,0.417 0.076,0.23 0.533,0.448 1.015,0.484 0.482,0.036 0.791,0.151 0.686,0.256 -0.206,0.206 3.35,1.979 4.045,2.017 0.233,0.013 0.814,0.386 1.291,0.83 0.477,0.445 0.966,0.792 1.087,0.772 0.379,-0.063 2.595,0.942 6.874,3.116 2.27,1.154 4.366,2.098 4.657,2.098 0.29,0 0.824,0.327 1.185,0.726 0.361,0.399 1.558,0.971 2.659,1.271 1.102,0.3 2.003,0.692 2.003,0.873 0,0.18 0.36,0.327 0.799,0.327 0.44,0 0.8,0.135 0.801,0.3 0,0.164 0.989,0.749 2.196,1.298 1.207,0.55 2.196,1.134 2.196,1.299 0.001,0.165 0.362,0.3 0.801,0.3 0.44,0 0.799,0.18 0.799,0.399 0,0.22 0.36,0.4 0.799,0.4 0.44,0 0.8,0.18 0.8,0.4 0,0.219 0.359,0.399 0.799,0.399 0.439,0 0.799,0.18 0.799,0.4 0,0.219 0.36,0.399 0.799,0.399 0.44,0 0.799,0.18 0.799,0.4 0,0.22 0.45,0.4 0.999,0.4 0.55,0 0.999,0.179 0.999,0.399 0,0.22 0.27,0.4 0.6,0.4 0.33,0 0.599,0.18 0.599,0.399 0,0.22 0.345,0.4 0.766,0.4 0.421,0 0.826,0.136 0.899,0.301 0.074,0.166 1.392,0.93 2.931,1.697 1.538,0.767 2.857,1.531 2.93,1.696 0.073,0.166 0.448,0.302 0.833,0.302 0.384,0 0.834,0.135 0.999,0.3 0.164,0.164 0.419,0.307 0.566,0.316 0.146,0.009 0.842,0.324 1.545,0.699 0.703,0.376 1.557,0.683 1.898,0.683 0.341,0 0.619,0.18 0.619,0.4 0,0.219 0.36,0.399 0.8,0.399 0.439,0 0.799,0.18 0.799,0.4 0,0.22 0.344,0.399 0.766,0.399 0.421,0 0.825,0.136 0.899,0.302 0.073,0.166 1.392,0.929 2.93,1.696 1.539,0.768 2.857,1.531 2.931,1.697 0.073,0.166 0.477,0.301 0.899,0.301 0.421,0 0.766,0.18 0.766,0.4 0,0.22 0.46,0.4 1.022,0.4 0.58,0 0.916,0.172 0.776,0.399 -0.136,0.22 -0.003,0.4 0.296,0.4 0.754,0 2.694,0.934 2.698,1.298 0.001,0.165 0.362,0.3 0.802,0.3 0.439,0 0.799,0.18 0.799,0.4 0,0.22 0.36,0.399 0.799,0.399 0.44,0 0.8,0.18 0.8,0.4 0,0.22 0.269,0.4 0.599,0.4 0.33,0 0.599,0.179 0.599,0.399 0,0.22 0.377,0.4 0.838,0.4 0.46,0 1.314,0.321 1.898,0.713 0.583,0.393 1.6,0.977 2.259,1.299 0.66,0.321 1.289,0.675 1.399,0.786 0.453,0.46 3.222,1.229 3.594,0.999 0.221,-0.136 0.402,0.032 0.402,0.375 0,0.343 0.135,0.636 0.3,0.653 1.302,0.129 2.319,0.455 2.431,0.781 0.073,0.213 0.387,0.388 0.699,0.388 0.311,0 0.566,0.18 0.566,0.399 0,0.22 0.27,0.4 0.599,0.4 0.33,0 0.6,0.18 0.6,0.4 0,0.219 0.275,0.399 0.612,0.399 0.896,0 6.2,2.645 5.902,2.943 -0.14,0.14 0.316,0.254 1.012,0.254 0.696,0 1.266,0.135 1.266,0.3 0.001,0.164 0.99,0.749 2.197,1.298 1.207,0.55 2.195,1.134 2.196,1.299 0.001,0.165 0.271,0.3 0.601,0.3 0.33,0 0.599,0.18 0.599,0.399 0,0.22 0.324,0.4 0.72,0.4 0.395,0 0.89,0.165 1.099,0.368 0.854,0.827 4.976,2.709 5.002,2.283 0.014,-0.249 0.225,-0.041 0.468,0.462 0.252,0.524 0.674,0.826 0.987,0.706 0.3,-0.115 0.648,0.056 0.772,0.381 0.125,0.325 0.396,0.486 0.602,0.359 0.207,-0.128 0.672,0.008 1.034,0.302 0.562,0.455 0.609,0.446 0.323,-0.066 -0.184,-0.33 0.062,-0.191 0.547,0.309 0.485,0.499 1.051,0.803 1.257,0.675 0.207,-0.127 0.376,-0.031 0.376,0.215 0,0.246 0.16,0.348 0.354,0.228 0.195,-0.121 0.577,0.049 0.849,0.376 0.271,0.327 0.741,0.595 1.044,0.595 0.303,0 0.55,0.21 0.55,0.466 0,0.256 0.117,0.35 0.259,0.207 0.271,-0.27 3.44,1.304 3.671,1.824 0.073,0.165 0.534,0.3 1.023,0.3 0.49,0 1.277,0.36 1.749,0.799 0.471,0.44 1.129,0.799 1.461,0.799 0.332,0 1.239,0.36 2.015,0.8 0.776,0.439 2.046,1.158 2.822,1.598 0.775,0.44 1.675,0.799 1.998,0.799 0.323,0 0.588,0.135 0.59,0.3 0.003,0.338 1.921,1.299 2.594,1.299 0.242,0 0.665,0.224 0.939,0.499 0.275,0.275 0.626,0.524 0.779,0.553 1.045,0.201 2.078,0.694 2.078,0.992 0,0.194 0.265,0.353 0.588,0.353 0.323,0 1.223,0.357 2.001,0.794 0.777,0.437 1.457,0.795 1.51,0.796 0.523,0.012 2.695,1.056 2.695,1.295 0,0.172 0.269,0.312 0.599,0.312 0.33,0 0.6,0.135 0.6,0.3 0.001,0.751 3.29,0.514 3.984,-0.287 0.388,-0.447 0.973,-0.812 1.301,-0.812 0.328,0 1.237,-0.434 2.019,-0.965 0.782,-0.531 1.526,-0.86 1.654,-0.733 0.128,0.128 0.232,0.023 0.232,-0.234 0,-0.256 0.315,-0.467 0.7,-0.467 0.384,-10e-4 1.288,-0.361 2.007,-0.8 0.72,-0.438 1.624,-0.797 2.01,-0.797 0.386,0 0.96,-0.36 1.277,-0.799 0.317,-0.44 0.806,-0.8 1.087,-0.8 0.282,0 0.512,-0.14 0.512,-0.312 0,-0.172 0.494,-0.353 1.099,-0.403 0.604,-0.05 1.158,-0.269 1.232,-0.487 0.073,-0.218 0.388,-0.396 0.699,-0.396 0.311,0 0.566,-0.18 0.566,-0.4 0,-0.219 0.435,-0.399 0.966,-0.399 0.531,0 1.025,-0.135 1.099,-0.3 0.191,-0.432 3.501,-2.098 4.167,-2.098 0.308,0 0.561,-0.18 0.561,-0.399 0,-0.22 0.36,-0.4 0.799,-0.4 0.44,0 0.8,-0.18 0.8,-0.4 0,-0.219 0.359,-0.399 0.799,-0.399 0.439,0 0.799,-0.18 0.799,-0.4 0,-0.22 0.37,-0.399 0.823,-0.399 0.452,0 0.711,-0.18 0.576,-0.4 -0.136,-0.22 0.123,-0.4 0.575,-0.4 0.453,0 0.823,-0.163 0.823,-0.362 0,-0.199 0.36,-0.268 0.799,-0.153 0.44,0.115 0.8,0.03 0.8,-0.189 0,-0.415 2.375,-1.554 2.897,-1.389 0.165,0.053 0.299,-0.084 0.299,-0.304 0,-0.22 0.283,-0.4 0.628,-0.4 0.346,0 0.898,-0.269 1.227,-0.599 0.329,-0.329 1.081,-0.716 1.67,-0.86 0.589,-0.144 1.161,-0.369 1.271,-0.5 0.395,-0.472 1.999,-1.238 2.592,-1.238 0.332,0 0.604,-0.179 0.604,-0.399 0,-0.22 0.341,-0.4 0.757,-0.4 0.416,0 0.86,-0.271 0.988,-0.603 0.127,-0.332 0.371,-0.582 0.542,-0.556 0.608,0.092 2.109,-0.538 2.109,-0.885 0,-0.195 0.36,-0.353 0.799,-0.353 0.44,0 0.801,-0.135 0.803,-0.3 0.003,-0.359 1.938,-1.299 2.674,-1.299 0.285,0 0.519,-0.18 0.519,-0.399 0,-0.22 0.345,-0.4 0.766,-0.4 0.421,0 0.826,-0.135 0.899,-0.3 0.188,-0.423 5.127,-2.897 5.784,-2.897 0.299,0 0.543,-0.18 0.543,-0.399 0,-0.22 0.36,-0.4 0.799,-0.4 0.44,0 0.8,-0.172 0.8,-0.382 0,-0.209 0.629,-0.499 1.398,-0.643 0.769,-0.145 1.399,-0.418 1.399,-0.607 0,-0.334 3.726,-2.104 4.192,-1.992 0.128,0.031 0.51,-0.222 0.849,-0.561 0.34,-0.34 0.783,-0.515 0.985,-0.391 0.202,0.125 0.367,0.037 0.367,-0.196 0,-0.232 0.36,-0.423 0.8,-0.423 0.439,0 0.8,-0.135 0.802,-0.3 0.004,-0.358 1.939,-1.298 2.674,-1.298 0.286,0 0.52,-0.151 0.52,-0.336 0,-0.443 1.828,-1.263 2.816,-1.263 0.429,0 0.78,-0.179 0.78,-0.399 0,-0.22 0.255,-0.4 0.566,-0.4 0.312,0 0.626,-0.135 0.699,-0.3 0.074,-0.164 1.752,-1.08 3.73,-2.035 1.978,-0.954 3.956,-1.932 4.396,-2.172 1.965,-1.076 5.443,-2.686 5.8,-2.686 0.217,0 0.393,-0.179 0.393,-0.399 0,-0.22 0.36,-0.4 0.8,-0.4 0.439,0 0.799,-0.19 0.799,-0.423 0,-0.233 0.159,-0.325 0.354,-0.204 0.195,0.12 0.569,-0.04 0.831,-0.356 0.263,-0.316 1.137,-0.791 1.944,-1.056 0.806,-0.265 2.137,-0.903 2.957,-1.419 0.82,-0.516 1.659,-0.937 1.865,-0.937 0.205,0 0.465,-0.225 0.575,-0.5 0.155,-0.382 0.209,-0.375 0.234,0.027 0.022,0.374 0.368,0.287 1.192,-0.299 0.638,-0.455 1.357,-0.827 1.598,-0.827 0.241,0 0.438,-0.18 0.438,-0.399 0,-0.22 0.349,-0.4 0.776,-0.4 0.426,0 0.886,-0.18 1.022,-0.4 0.136,-0.219 0.556,-0.399 0.934,-0.399 0.379,0 0.947,-0.36 1.264,-0.799 0.317,-0.44 0.996,-0.8 1.51,-0.8 0.521,0 0.825,-0.176 0.688,-0.399 -0.136,-0.22 0.123,-0.4 0.576,-0.4 0.452,0 0.822,-0.19 0.822,-0.423 0,-0.233 0.166,-0.321 0.368,-0.196 0.202,0.125 0.661,-0.067 1.02,-0.426 0.359,-0.359 1.082,-0.653 1.607,-0.653 0.525,0 1.053,-0.259 1.175,-0.575 0.121,-0.316 0.401,-0.463 0.623,-0.326 0.221,0.137 0.404,0.103 0.405,-0.075 0.004,-0.377 1.915,-1.322 2.674,-1.322 0.286,0 0.52,-0.18 0.52,-0.399 0,-0.22 0.449,-0.4 0.999,-0.4 0.549,0 0.999,-0.18 0.999,-0.4 0,-0.219 0.27,-0.399 0.599,-0.399 0.33,0 0.6,-0.18 0.6,-0.4 0,-0.22 0.344,-0.399 0.766,-0.399 0.421,0 0.835,-0.209 0.92,-0.463 0.085,-0.255 0.586,-0.529 1.115,-0.61 0.528,-0.081 1.097,-0.367 1.264,-0.636 0.167,-0.269 0.534,-0.511 0.817,-0.537 1.852,-0.174 3.135,-0.709 2.936,-1.226 -0.119,-0.311 -0.044,-0.459 0.167,-0.329 0.21,0.13 0.905,-0.033 1.543,-0.363 0.638,-0.33 1.272,-0.517 1.41,-0.416 0.138,0.101 0.164,0.068 0.059,-0.074 -0.222,-0.3 3.265,-2.14 4.055,-2.14 0.293,0 0.532,-0.18 0.532,-0.399 0,-0.22 0.36,-0.4 0.799,-0.4 0.44,0 0.8,-0.18 0.8,-0.399 0,-0.22 0.359,-0.4 0.799,-0.4 0.439,0 0.799,-0.18 0.799,-0.4 0,-0.219 0.36,-0.399 0.799,-0.399 0.44,0 0.799,-0.18 0.799,-0.4 0,-0.22 0.36,-0.4 0.8,-0.4 0.439,0 0.799,-0.179 0.799,-0.399 0,-0.22 0.359,-0.4 0.799,-0.4 0.44,0 0.8,-0.135 0.801,-0.299 0,-0.165 0.989,-0.75 2.196,-1.299 1.207,-0.55 2.196,-1.134 2.196,-1.299 0.001,-0.165 0.271,-0.3 0.601,-0.3 0.33,0 0.6,-0.179 0.6,-0.399 0,-0.22 0.449,-0.4 0.999,-0.4 0.549,0 0.999,-0.18 0.999,-0.399 0,-0.22 0.282,-0.4 0.628,-0.4 1.86,0 1.769,4.305 1.769,-84.287 0,-73.641 -0.068,-83.145 -0.599,-83.145 -0.33,0 -0.6,0.19 -0.6,0.423 0,0.232 -0.165,0.321 -0.367,0.196 -0.202,-0.125 -0.642,0.047 -0.978,0.383 -0.335,0.336 -0.754,0.571 -0.931,0.522 -0.177,-0.048 -1.085,0.312 -2.019,0.8 -0.934,0.489 -1.699,0.782 -1.699,0.652 0,-0.13 -0.284,0.048 -0.631,0.395 -0.348,0.348 -0.797,0.53 -0.999,0.405 -0.202,-0.125 -0.368,-0.037 -0.368,0.196 0,0.233 -0.359,0.423 -0.799,0.423 -0.439,0 -0.799,0.158 -0.799,0.351 0,0.193 -0.54,0.575 -1.199,0.848 -0.659,0.273 -1.199,0.616 -1.199,0.763 0,0.146 -0.402,0.296 -0.893,0.333 -0.491,0.037 -0.956,0.255 -1.032,0.485 -0.077,0.229 -0.495,0.417 -0.929,0.417 -0.434,0 -0.678,0.18 -0.542,0.4 0.139,0.225 -0.185,0.399 -0.743,0.399 -0.544,0 -1.049,0.146 -1.122,0.325 -0.073,0.179 -1.662,1.092 -3.53,2.028 -1.868,0.936 -3.567,1.869 -3.776,2.072 -0.209,0.204 -0.804,0.37 -1.322,0.37 -0.527,0 -0.834,0.177 -0.696,0.4 0.136,0.22 -0.033,0.4 -0.376,0.4 -0.343,0 -0.623,0.179 -0.623,0.399 0,0.22 -0.36,0.4 -0.799,0.4 -0.44,0 -0.799,0.18 -0.799,0.399 0,0.22 -0.36,0.4 -0.8,0.4 -0.439,0 -0.799,0.18 -0.799,0.4 0,0.219 -0.25,0.399 -0.557,0.399 -1.025,0 -1.041,1.034 -1.047,64.868 -0.004,34.982 -0.139,63.798 -0.3,64.035 -0.162,0.238 -0.865,0.68 -1.564,0.984 -0.698,0.304 -1.165,0.722 -1.037,0.929 0.128,0.207 0.057,0.268 -0.159,0.134 -0.216,-0.133 -1.263,0.199 -2.327,0.738 -1.065,0.539 -2.175,0.979 -2.467,0.979 -0.293,0 -0.532,0.18 -0.532,0.4 0,0.22 -0.349,0.4 -0.775,0.4 -0.427,0 -0.889,0.182 -1.027,0.406 -0.138,0.223 -0.386,0.323 -0.55,0.221 -0.165,-0.102 -0.784,0.264 -1.376,0.813 -0.592,0.549 -1.256,0.888 -1.474,0.753 -0.219,-0.135 -0.498,0.015 -0.621,0.335 -0.132,0.343 -0.538,0.498 -0.996,0.378 -0.425,-0.111 -0.773,-0.002 -0.773,0.244 0,0.245 -0.27,0.446 -0.6,0.446 -0.329,0 -0.599,0.18 -0.599,0.4 0,0.219 -0.349,0.399 -0.776,0.399 -0.426,0 -0.886,0.18 -1.022,0.4 -0.136,0.22 -0.519,0.399 -0.852,0.399 -0.332,0 -0.875,0.272 -1.207,0.604 -0.332,0.331 -0.768,0.5 -0.971,0.376 -0.202,-0.125 -0.367,-0.037 -0.367,0.196 0,0.232 -0.36,0.423 -0.799,0.423 -0.44,0 -0.799,0.18 -0.799,0.399 0,0.22 -0.36,0.4 -0.799,0.4 -0.44,0 -0.8,0.18 -0.8,0.4 0,0.219 -0.34,0.399 -0.756,0.399 -0.416,0 -0.859,0.267 -0.984,0.593 -0.129,0.337 -0.492,0.491 -0.842,0.357 -0.338,-0.13 -0.614,-0.037 -0.614,0.206 0,0.244 -0.27,0.443 -0.6,0.443 -0.33,0 -0.599,0.18 -0.599,0.399 0,0.22 -0.36,0.4 -0.8,0.4 -0.439,0 -0.799,0.18 -0.799,0.399 0,0.22 -0.359,0.4 -0.799,0.4 -0.439,0 -0.799,0.18 -0.799,0.4 0,0.219 -0.36,0.399 -0.799,0.399 -0.44,0 -0.8,0.18 -0.8,0.4 0,0.22 -0.359,0.399 -0.799,0.399 -0.439,0 -0.799,0.18 -0.799,0.4 0,0.22 -0.36,0.4 -0.799,0.4 -0.44,0 -0.799,0.18 -0.799,0.399 0,0.22 -0.36,0.4 -0.8,0.4 -0.439,0 -0.8,0.135 -0.802,0.3 -0.004,0.358 -1.939,1.298 -2.674,1.298 -0.286,0 -0.52,0.18 -0.52,0.4 0,0.22 -0.344,0.399 -0.765,0.399 -0.422,0 -0.826,0.135 -0.9,0.3 -0.182,0.411 -3.02,1.698 -3.743,1.698 -0.322,0 -0.586,0.18 -0.586,0.4 0,0.22 -0.344,0.4 -0.765,0.4 -0.422,0 -0.826,0.15 -0.9,0.334 -0.164,0.413 -8.365,4.461 -9.037,4.461 -0.268,0 -0.486,0.18 -0.486,0.4 0,0.219 -0.27,0.399 -0.6,0.399 -0.329,0 -0.599,0.18 -0.599,0.4 0,0.219 -0.36,0.399 -0.799,0.399 -0.44,0 -0.8,0.18 -0.8,0.4 0,0.22 -0.359,0.4 -0.799,0.4 -0.439,0 -0.799,0.179 -0.799,0.399 0,0.22 -0.345,0.4 -0.766,0.4 -0.421,0 -0.833,0.202 -0.916,0.449 -0.082,0.248 -0.636,0.45 -1.232,0.45 -0.595,0 -1.082,0.157 -1.082,0.349 0,0.193 -0.27,0.35 -0.599,0.35 -0.33,0 -0.6,0.18 -0.6,0.4 0,0.219 -0.234,0.399 -0.519,0.399 -0.736,0 -2.671,0.94 -2.674,1.299 -0.002,0.165 -0.363,0.3 -0.803,0.3 -0.439,0 -0.799,0.18 -0.799,0.399 0,0.22 -0.449,0.4 -0.999,0.4 -0.549,0 -0.999,0.145 -0.999,0.323 0,0.36 -3.226,1.898 -3.696,1.762 -0.165,-0.048 -0.3,0.073 -0.3,0.269 0,0.196 -0.45,0.469 -0.999,0.607 -0.549,0.138 -0.999,0.438 -0.999,0.667 0,0.228 -0.161,0.316 -0.358,0.194 -0.196,-0.122 -0.459,0.045 -0.584,0.369 -0.129,0.336 -0.492,0.489 -0.841,0.355 -0.338,-0.13 -0.615,-0.037 -0.615,0.206 0,0.244 -0.134,0.414 -0.299,0.378 -0.492,-0.106 -2.516,0.822 -3.821,1.752 -0.703,0.5 -1.076,0.623 -0.882,0.289 0.185,-0.318 -0.109,-0.173 -0.653,0.321 -0.544,0.495 -1.433,0.9 -1.974,0.9 -0.542,0 -1.245,0.359 -1.561,0.799 -0.317,0.439 -0.997,0.799 -1.511,0.799 -0.521,0 -0.825,0.177 -0.687,0.4 0.136,0.219 -0.123,0.399 -0.576,0.399 -0.453,0 -0.823,0.18 -0.823,0.4 0,0.219 -0.37,0.399 -0.823,0.399 -0.452,0 -0.711,0.18 -0.575,0.4 0.135,0.22 0.002,0.4 -0.297,0.4 -0.753,0 -2.693,0.934 -2.697,1.298 -0.002,0.165 -0.46,0.3 -1.019,0.3 -0.559,0 -1.402,0.36 -1.874,0.799 -0.471,0.44 -1.183,0.799 -1.581,0.799 -0.398,0 -0.724,0.18 -0.724,0.4 0,0.22 -0.45,0.4 -0.999,0.4 -0.55,0 -0.999,0.179 -0.999,0.399 0,0.22 -0.36,0.4 -0.799,0.4 -0.44,0 -0.8,0.136 -0.8,0.302 0,0.166 -0.54,0.541 -1.201,0.833 -0.66,0.293 -1.1,0.694 -0.978,0.893 0.123,0.198 -0.055,0.254 -0.394,0.123 -0.37,-0.142 -0.72,0.033 -0.875,0.438 -0.179,0.465 -0.348,0.53 -0.545,0.212 -0.206,-0.334 -0.461,-0.288 -0.915,0.166 -0.346,0.346 -0.901,0.629 -1.233,0.629 -0.333,0 -0.716,0.18 -0.852,0.4 -0.135,0.22 -0.685,0.399 -1.222,0.399 -0.536,0 -0.975,0.18 -0.975,0.4 0,0.22 -0.234,0.4 -0.52,0.4 -0.286,0 -0.744,0.224 -1.019,0.499 -0.275,0.275 -0.625,0.507 -0.779,0.516 -0.592,0.036 -3.092,1.515 -3.376,1.999 -0.164,0.279 -0.659,0.413 -1.099,0.298 -0.447,-0.117 -0.8,-0.012 -0.8,0.237 0,0.246 -0.344,0.447 -0.766,0.447 -0.421,0 -0.856,0.224 -0.967,0.499 -0.161,0.4 -0.208,0.4 -0.233,0 -0.018,-0.275 -0.391,-0.499 -0.831,-0.499 -0.44,0 -0.799,-0.18 -0.799,-0.4 0,-0.22 -0.27,-0.4 -0.6,-0.4 -0.329,0 -0.599,-0.179 -0.599,-0.399 0,-0.22 -0.253,-0.4 -0.562,-0.4 -0.667,0 -3.975,-1.667 -4.167,-2.1 -0.074,-0.166 -0.284,-0.21 -0.468,-0.096 -0.183,0.113 -0.617,-0.079 -0.965,-0.426 -0.347,-0.348 -0.631,-0.525 -0.631,-0.395 0,0.13 -0.764,-0.163 -1.699,-0.652 -0.934,-0.488 -1.838,-0.85 -2.009,-0.804 -0.171,0.047 -0.415,-0.186 -0.542,-0.518 -0.127,-0.332 -0.527,-0.609 -0.888,-0.616 -0.361,-0.007 -1.005,-0.277 -1.432,-0.599 -0.427,-0.323 -1.101,-0.587 -1.499,-0.587 -0.397,0 -0.722,-0.18 -0.722,-0.4 0,-0.219 -0.36,-0.399 -0.8,-0.399 -0.439,0 -0.799,-0.18 -0.799,-0.4 0,-0.22 -0.359,-0.399 -0.799,-0.399 -0.44,0 -0.799,-0.18 -0.799,-0.4 0,-0.22 -0.234,-0.4 -0.52,-0.4 -0.735,0 -2.67,-0.94 -2.674,-1.298 -0.002,-0.165 -0.363,-0.3 -0.802,-0.3 -0.44,0 -0.799,-0.18 -0.799,-0.4 0,-0.219 -0.45,-0.399 -0.999,-0.399 -0.55,0 -0.999,-0.18 -0.999,-0.4 0,-0.22 -0.371,-0.399 -0.823,-0.399 -0.453,0 -0.712,-0.18 -0.576,-0.4 0.136,-0.22 -0.123,-0.4 -0.576,-0.4 -0.452,0 -0.823,-0.18 -0.823,-0.399 0,-0.22 -0.37,-0.4 -0.822,-0.4 -0.453,0 -0.712,-0.18 -0.576,-0.399 0.136,-0.22 -0.124,-0.4 -0.576,-0.4 -0.453,0 -0.823,-0.18 -0.823,-0.4 0,-0.219 -0.359,-0.399 -0.799,-0.399 -0.44,0 -0.799,-0.18 -0.799,-0.4 0,-0.22 -0.272,-0.399 -0.605,-0.399 -0.676,0 -2.253,-0.808 -2.652,-1.357 -0.142,-0.197 -0.521,-0.258 -0.841,-0.135 -0.319,0.123 -1.049,-0.211 -1.621,-0.741 -0.572,-0.53 -1.317,-0.964 -1.656,-0.964 -0.34,0 -0.617,-0.18 -0.617,-0.4 0,-0.22 -0.135,-0.357 -0.3,-0.304 -0.489,0.154 -2.897,-0.961 -2.897,-1.343 0,-0.193 -0.349,-0.351 -0.776,-0.351 -0.426,0 -0.888,-0.183 -1.026,-0.406 -0.138,-0.223 -0.419,-0.303 -0.623,-0.176 -0.205,0.126 -0.372,0.039 -0.372,-0.194 0,-0.232 -0.36,-0.423 -0.799,-0.423 -0.44,0 -0.8,-0.18 -0.8,-0.399 0,-0.22 -0.359,-0.4 -0.799,-0.4 -0.439,0 -0.799,-0.18 -0.799,-0.399 0,-0.22 -0.272,-0.4 -0.605,-0.4 -0.333,0 -0.917,-0.159 -1.299,-0.353 -0.381,-0.194 -1.233,-0.599 -1.892,-0.899 -0.66,-0.3 -1.289,-0.635 -1.399,-0.745 -0.11,-0.111 -1.141,-0.65 -2.291,-1.2 -1.151,-0.549 -2.095,-1.134 -2.098,-1.299 -0.004,-0.164 -0.422,-0.299 -0.93,-0.299 -0.508,0 -1.31,-0.36 -1.782,-0.799 -0.471,-0.44 -1.045,-0.8 -1.274,-0.8 -0.229,0 -0.416,-0.18 -0.416,-0.399 0,-0.22 -0.416,-0.4 -0.924,-0.4 -0.508,0 -1.309,-0.36 -1.781,-0.799 -0.472,-0.44 -1.215,-0.799 -1.65,-0.799 -0.436,0 -0.904,-0.18 -1.04,-0.4 -0.136,-0.22 -0.519,-0.4 -0.851,-0.4 -0.332,0 -0.874,-0.269 -1.203,-0.598 -0.33,-0.33 -1.081,-0.718 -1.67,-0.863 -0.589,-0.146 -1.362,-0.596 -1.717,-1 -0.356,-0.404 -0.94,-0.735 -1.299,-0.735 -0.359,0 -0.652,-0.174 -0.652,-0.387 0,-0.213 -0.252,-0.291 -0.559,-0.173 -0.308,0.118 -0.68,0.02 -0.827,-0.219 -0.147,-0.238 -0.435,-0.33 -0.64,-0.203 -0.204,0.126 -0.372,0.052 -0.372,-0.164 0,-0.445 -2.235,-1.652 -3.058,-1.652 -0.296,0 -0.538,-0.179 -0.538,-0.399 0,-0.22 -0.272,-0.4 -0.605,-0.4 -0.333,0 -0.917,-0.165 -1.299,-0.366 -0.381,-0.201 -1.278,-0.583 -1.992,-0.848 -0.715,-0.264 -1.299,-0.639 -1.299,-0.832 0,-0.193 -0.27,-0.351 -0.599,-0.351 -0.33,0 -0.6,-0.18 -0.6,-0.4 0,-0.22 -0.141,-0.355 -0.314,-0.3 -0.331,0.106 -5.738,-2.502 -6.079,-2.932 -0.11,-0.139 -0.883,-0.496 -1.716,-0.794 -0.834,-0.299 -1.861,-0.863 -2.281,-1.255 -0.421,-0.392 -1.186,-0.713 -1.701,-0.713 -0.515,0 -1.137,-0.201 -1.382,-0.446 -0.532,-0.532 -1.807,-1.271 -3.696,-2.143 -0.761,-0.351 -1.484,-0.8 -1.606,-0.997 -0.121,-0.197 -0.672,-0.418 -1.224,-0.492 -0.552,-0.074 -1.717,-0.569 -2.59,-1.1 -0.873,-0.531 -1.798,-0.927 -2.056,-0.88 -0.258,0.047 -0.584,-0.099 -0.723,-0.325 -0.139,-0.226 -0.525,-0.41 -0.858,-0.41 -0.332,0 -0.876,-0.272 -1.207,-0.603 -0.332,-0.332 -0.769,-0.501 -0.971,-0.376 -0.202,0.125 -0.367,0.036 -0.367,-0.196 0,-0.233 -0.234,-0.424 -0.52,-0.424 -0.735,0 -2.67,-0.939 -2.674,-1.298 -0.002,-0.165 -0.237,-0.3 -0.523,-0.3 -0.735,0 -2.67,-0.94 -2.674,-1.299 -0.001,-0.164 -0.317,-0.299 -0.702,-0.299 -0.664,0 -0.694,-3.31 -0.596,-64.736 0.092,-57.697 0.038,-64.735 -0.504,-64.735 -0.759,0 -4.347,-1.648 -4.528,-2.079 -0.073,-0.175 -0.388,-0.318 -0.699,-0.318 -0.311,0 -0.566,-0.18 -0.566,-0.4 0,-0.22 -0.5,-0.4 -1.111,-0.4 -0.652,0 -1.348,-0.33 -1.686,-0.799 -0.317,-0.439 -0.771,-0.799 -1.008,-0.799 -0.666,0 -2.582,-0.962 -2.586,-1.299 -10e-4,-0.165 -0.362,-0.299 -0.802,-0.299 -0.44,0 -0.799,-0.18 -0.799,-0.4 0,-0.22 -0.27,-0.4 -0.6,-0.4 -0.329,0 -0.599,-0.179 -0.599,-0.399 0,-0.22 -0.36,-0.4 -0.799,-0.4 -0.44,0 -0.799,-0.18 -0.799,-0.399 0,-0.22 -0.457,-0.4 -1.016,-0.4 -0.559,0 -1.395,-0.353 -1.859,-0.785 -0.463,-0.432 -0.997,-0.691 -1.185,-0.575 -0.188,0.117 -0.449,-0.069 -0.581,-0.413 -0.132,-0.344 -0.459,-0.625 -0.726,-0.625 -0.267,0 -1.599,-0.539 -2.961,-1.198 -1.361,-0.66 -2.651,-1.199 -2.868,-1.199 -0.216,0 -0.393,-0.18 -0.393,-0.4 0,-0.22 -0.257,-0.399 -0.571,-0.399 -0.314,0 -0.808,-0.235 -1.099,-0.522 -0.593,-0.587 -1.688,-1.065 -3.025,-1.32 l -0.899,-0.172 v 83.153"
       stroke="none"
       fill="#4484f4"
       fill-rule="evenodd" />
    <path
       id="path3"
       d=""
       stroke="none"
       fill="#94d0f8"
       fill-rule="evenodd" />
    <path
       id="path4"
       d=""
       stroke="none"
       fill="#608cf8"
       fill-rule="evenodd" />
    <path
       id="path5"
       d=""
       stroke="none"
       fill="#4490f8"
       fill-rule="evenodd" />
    <path
       id="path6"
       d="m 277.323,64.746 c 0,0.347 1.551,0.969 1.799,0.721 0.077,-0.077 -0.296,-0.347 -0.829,-0.598 -0.534,-0.252 -0.97,-0.307 -0.97,-0.123 m -58.715,9.412 c 0.259,0.312 0.755,0.567 1.101,0.567 0.81,0 -0.012,-0.905 -0.946,-1.043 -0.497,-0.072 -0.529,0.025 -0.155,0.476 m -70.356,16.008 c 0,0.214 -0.495,0.597 -1.099,0.851 -1,0.42 -1.009,0.441 -0.1,0.232 1.184,-0.272 1.853,-0.818 1.472,-1.199 -0.15,-0.15 -0.273,-0.098 -0.273,0.116 m 186.214,3.34 c 0,0.22 0.269,0.4 0.599,0.4 0.33,0 0.599,-0.18 0.599,-0.4 0,-0.219 -0.269,-0.399 -0.599,-0.399 -0.33,0 -0.599,0.18 -0.599,0.399 m -232.624,19.971 -0.943,0.79 1.096,-0.49 c 0.603,-0.27 1.097,-0.625 1.099,-0.79 0.005,-0.459 -0.226,-0.368 -1.252,0.49 m -15.892,8.031 c -2.094,1.134 -2.471,1.746 -0.436,0.707 2.206,-1.126 2.169,-1.101 1.965,-1.291 -0.091,-0.085 -0.78,0.177 -1.529,0.584 m 194.364,101.069 c 0,30.22 0.048,42.583 0.106,27.473 0.058,-15.11 0.058,-39.835 0,-54.945 -0.058,-15.11 -0.106,-2.747 -0.106,27.472 M 84.118,276.926 c 0.35,0.566 2.968,1.963 3.141,1.675 0.093,-0.153 -0.62,-0.664 -1.584,-1.135 -0.964,-0.471 -1.665,-0.714 -1.557,-0.54 m 33.764,17.203 c 0,0.233 0.168,0.32 0.372,0.194 0.205,-0.127 0.485,-0.047 0.623,0.176 0.138,0.223 0.455,0.406 0.703,0.406 0.249,0 0.104,-0.264 -0.323,-0.587 -0.928,-0.701 -1.375,-0.763 -1.375,-0.189 m -57.939,9.445 c 0.003,0.328 2.04,1.409 2.253,1.196 0.065,-0.064 -0.417,-0.432 -1.069,-0.818 -0.653,-0.385 -1.186,-0.555 -1.184,-0.378 m 6.824,3.465 c 0.805,0.705 2.116,1.126 1.616,0.519 -0.302,-0.366 -0.826,-0.665 -1.166,-0.665 -0.339,0 -0.542,0.066 -0.45,0.146 m 149.916,19.179 c -1.014,0.502 -1.129,0.875 -0.399,1.295 0.274,0.158 0.372,0.146 0.217,-0.026 -0.156,-0.172 0.114,-0.645 0.599,-1.05 0.987,-0.824 0.898,-0.871 -0.417,-0.219 m -82.417,14.232 c 0,0.174 0.359,0.41 0.799,0.525 0.439,0.115 0.799,0.067 0.799,-0.107 0,-0.173 -0.36,-0.409 -0.799,-0.524 -0.44,-0.115 -0.799,-0.067 -0.799,0.106 m 97.502,16.726 c 0,0.257 -0.404,0.487 -0.899,0.513 -0.74,0.038 -0.768,0.08 -0.157,0.237 0.797,0.205 1.78,-0.492 1.329,-0.943 -0.15,-0.15 -0.273,-0.063 -0.273,0.193"
       stroke="none"
       fill="#4484fc"
       fill-rule="evenodd" />
    <path
       id="path7"
       d="m 119.675,222.378 c 0,30.11 0.047,42.368 0.105,27.241 0.058,-15.127 0.058,-39.762 0,-54.745 -0.058,-14.983 -0.105,-2.606 -0.105,27.504"
       stroke="none"
       fill="#4884f4"
       fill-rule="evenodd" />
    <path
       id="path8"
       d="m 119.675,222.378 c 0,30.11 0.047,42.368 0.105,27.241 0.058,-15.127 0.058,-39.762 0,-54.745 -0.058,-14.983 -0.105,-2.606 -0.105,27.504"
       stroke="none"
       fill="#4884f4"
       fill-rule="evenodd" />
  </g>
</svg>
