<svg id="svg" version="1.1" xmlns="http://www.w3.org/2000/svg" xmlns:xlink="http://www.w3.org/1999/xlink" width="400" height="399.2202729044834" viewBox="0, 0, 400,399.2202729044834"><g id="svgg"><path id="path0" d="M199.401 81.119 C 199.401 81.339,199.041 81.518,198.601 81.518 C 198.162 81.518,197.802 81.698,197.802 81.918 C 197.802 82.138,197.443 82.318,197.003 82.318 C 196.563 82.318,196.204 82.498,196.204 82.717 C 196.204 82.937,195.844 83.117,195.405 83.117 C 194.965 83.117,194.605 83.253,194.605 83.419 C 194.605 83.805,192.501 84.743,191.460 84.821 C 191.023 84.854,190.753 85.024,190.860 85.198 C 191.033 85.477,189.983 85.673,189.701 85.415 C 189.641 85.360,189.162 85.715,188.637 86.204 C 188.112 86.694,187.082 87.292,186.348 87.534 C 185.615 87.776,185.015 88.140,185.015 88.343 C 185.015 88.545,184.781 88.711,184.495 88.711 C 183.760 88.711,181.825 89.651,181.821 90.010 C 181.820 90.175,181.459 90.310,181.019 90.310 C 180.579 90.310,180.220 90.490,180.220 90.709 C 180.220 90.929,179.860 91.109,179.421 91.109 C 178.981 91.109,178.621 91.289,178.621 91.508 C 178.621 91.728,178.161 91.908,177.599 91.908 C 177.036 91.908,176.673 92.065,176.792 92.258 C 176.911 92.450,176.312 92.719,175.461 92.855 C 174.603 92.992,173.806 93.382,173.673 93.729 C 173.540 94.074,173.272 94.257,173.077 94.137 C 172.881 94.016,172.296 94.241,171.775 94.638 C 170.715 95.446,168.192 96.544,167.732 96.399 C 167.567 96.346,167.433 96.484,167.433 96.703 C 167.433 96.923,167.155 97.103,166.816 97.103 C 166.478 97.103,165.814 97.463,165.343 97.902 C 164.871 98.342,164.069 98.701,163.561 98.701 C 163.053 98.701,162.637 98.881,162.637 99.101 C 162.637 99.321,162.278 99.500,161.838 99.500 C 161.399 99.500,161.039 99.680,161.039 99.900 C 161.039 100.120,160.679 100.300,160.240 100.300 C 159.800 100.300,159.440 100.435,159.439 100.599 C 159.438 100.764,158.450 101.349,157.243 101.898 C 156.036 102.448,155.047 103.032,155.046 103.197 C 155.046 103.362,154.595 103.497,154.046 103.497 C 153.497 103.497,153.047 103.676,153.047 103.896 C 153.047 104.116,152.777 104.296,152.448 104.296 C 152.118 104.296,151.848 104.476,151.848 104.695 C 151.848 104.915,151.489 105.095,151.049 105.095 C 150.609 105.095,150.250 105.275,150.250 105.495 C 150.250 105.714,149.890 105.894,149.451 105.894 C 149.011 105.894,148.651 106.074,148.651 106.294 C 148.651 106.513,148.292 106.693,147.852 106.693 C 147.413 106.693,147.053 106.829,147.053 106.995 C 147.053 107.313,145.541 108.026,143.856 108.503 C 143.307 108.659,142.542 109.062,142.158 109.400 C 141.773 109.738,141.459 109.868,141.459 109.690 C 141.459 109.512,141.099 109.692,140.659 110.090 C 140.220 110.488,139.860 110.673,139.860 110.503 C 139.860 110.332,139.635 110.376,139.361 110.601 C 138.296 111.474,129.284 115.909,128.431 115.979 C 127.936 116.020,127.618 116.195,127.725 116.368 C 127.890 116.636,127.550 116.718,126.466 116.675 C 126.352 116.670,125.868 117.030,125.391 117.474 C 124.915 117.918,124.388 118.282,124.221 118.282 C 124.054 118.282,122.263 119.181,120.241 120.280 C 118.218 121.379,116.313 122.278,116.007 122.278 C 115.701 122.278,115.065 122.637,114.593 123.077 C 114.121 123.516,113.320 123.876,112.812 123.876 C 112.304 123.876,111.888 124.056,111.888 124.276 C 111.888 124.496,111.618 124.675,111.289 124.675 C 110.959 124.675,110.689 124.866,110.689 125.099 C 110.689 125.331,110.524 125.420,110.322 125.295 C 110.120 125.170,109.715 125.307,109.423 125.599 C 109.130 125.892,108.758 126.168,108.596 126.213 C 108.433 126.259,108.073 126.370,107.796 126.461 C 107.519 126.552,106.933 126.693,106.494 126.774 C 106.054 126.854,105.744 127.148,105.804 127.426 C 105.864 127.704,105.744 127.827,105.537 127.698 C 105.329 127.570,104.916 127.692,104.618 127.968 C 104.320 128.245,103.820 128.529,103.505 128.599 C 102.891 128.735,100.085 130.045,99.101 130.655 C 98.771 130.859,97.063 131.709,95.305 132.543 C 91.213 134.485,90.441 135.139,91.268 135.966 C 91.599 136.297,91.759 136.680,91.623 136.816 C 91.487 136.952,91.616 137.063,91.910 137.063 C 92.679 137.063,97.902 139.578,97.902 139.948 C 97.902 140.120,98.262 140.260,98.701 140.260 C 99.141 140.260,99.500 140.429,99.500 140.636 C 99.500 140.844,99.860 140.944,100.300 140.859 C 100.739 140.774,101.099 140.875,101.099 141.082 C 101.099 141.289,101.459 141.459,101.898 141.459 C 102.338 141.459,102.697 141.638,102.697 141.858 C 102.697 142.078,103.057 142.258,103.497 142.258 C 103.936 142.258,104.296 142.438,104.296 142.657 C 104.296 142.877,104.666 143.057,105.118 143.057 C 105.571 143.057,105.830 143.237,105.694 143.457 C 105.558 143.676,105.773 143.862,106.170 143.869 C 107.053 143.884,108.379 144.835,108.019 145.194 C 107.876 145.337,108.149 145.455,108.625 145.455 C 109.101 145.455,109.491 145.634,109.491 145.854 C 109.491 146.074,109.625 146.232,109.790 146.206 C 110.665 146.068,111.426 146.336,112.196 147.053 C 112.667 147.493,113.348 147.852,113.708 147.852 C 114.068 147.852,114.839 148.173,115.423 148.566 C 116.006 148.958,117.023 149.521,117.682 149.817 C 119.188 150.493,121.269 151.544,123.069 152.538 L 124.460 153.307 126.606 152.178 C 127.787 151.557,129.004 151.049,129.311 151.049 C 129.619 151.049,129.870 150.869,129.870 150.649 C 129.870 150.430,130.230 150.250,130.669 150.250 C 131.109 150.250,131.470 150.115,131.472 149.950 C 131.475 149.585,133.416 148.651,134.169 148.651 C 134.468 148.651,134.601 148.472,134.466 148.252 C 134.330 148.032,134.589 147.852,135.041 147.852 C 135.494 147.852,135.864 147.672,135.864 147.453 C 135.864 147.233,136.224 147.053,136.663 147.053 C 137.103 147.053,137.463 146.873,137.463 146.653 C 137.463 146.434,137.786 146.254,138.182 146.254 C 139.075 146.254,141.052 145.361,141.056 144.955 C 141.058 144.790,141.293 144.655,141.579 144.655 C 142.314 144.655,144.249 143.716,144.253 143.357 C 144.254 143.192,144.716 143.057,145.278 143.057 C 145.858 143.057,146.194 142.884,146.054 142.657 C 145.835 142.303,146.675 142.063,147.582 142.220 C 147.763 142.252,147.798 142.093,147.658 141.868 C 147.519 141.643,147.592 141.459,147.820 141.459 C 148.048 141.459,149.632 140.804,151.340 140.005 C 153.048 139.205,154.446 138.620,154.446 138.704 C 154.446 138.789,155.013 138.454,155.706 137.960 C 156.399 137.467,157.343 137.063,157.804 137.063 C 158.265 137.063,158.641 136.883,158.641 136.663 C 158.641 136.444,159.001 136.264,159.441 136.264 C 159.880 136.264,160.241 136.129,160.243 135.964 C 160.247 135.614,162.174 134.665,162.884 134.665 C 163.151 134.665,163.430 134.522,163.503 134.346 C 163.705 133.862,169.704 130.669,170.411 130.669 C 170.751 130.669,171.029 130.490,171.029 130.270 C 171.029 130.050,171.389 129.870,171.828 129.870 C 172.268 129.870,172.627 129.690,172.627 129.471 C 172.627 129.251,172.987 129.071,173.427 129.071 C 173.866 129.071,174.226 128.891,174.226 128.671 C 174.226 128.452,174.570 128.272,174.992 128.272 C 175.413 128.272,175.818 128.131,175.891 127.958 C 176.052 127.580,182.308 124.457,182.679 124.570 C 182.823 124.614,183.159 124.386,183.427 124.063 C 183.695 123.741,184.082 123.477,184.287 123.477 C 184.492 123.477,185.715 122.953,187.004 122.313 C 188.294 121.674,189.453 121.254,189.579 121.381 C 189.706 121.508,189.810 121.402,189.810 121.146 C 189.810 120.889,190.170 120.679,190.609 120.679 C 191.049 120.679,191.409 120.500,191.409 120.280 C 191.409 120.060,191.768 119.880,192.208 119.880 C 192.647 119.880,193.008 119.745,193.010 119.580 C 193.014 119.216,194.954 118.282,195.708 118.282 C 196.006 118.282,196.140 118.102,196.004 117.882 C 195.868 117.662,196.117 117.483,196.556 117.483 C 196.996 117.483,197.467 117.303,197.602 117.083 C 197.738 116.863,198.209 116.683,198.649 116.683 C 199.088 116.683,199.337 116.503,199.201 116.284 C 199.061 116.057,199.396 115.884,199.976 115.884 C 200.539 115.884,200.999 116.064,200.999 116.284 C 200.999 116.503,201.359 116.683,201.798 116.683 C 202.238 116.683,202.597 116.863,202.597 117.083 C 202.597 117.303,202.957 117.483,203.397 117.483 C 203.836 117.483,204.196 117.662,204.196 117.882 C 204.196 118.102,204.555 118.282,204.995 118.282 C 205.435 118.282,205.794 118.462,205.794 118.681 C 205.794 118.901,206.064 119.081,206.394 119.081 C 206.723 119.081,206.993 119.261,206.993 119.481 C 206.993 119.700,207.353 119.880,207.792 119.880 C 208.232 119.880,208.591 120.060,208.591 120.280 C 208.591 120.500,208.951 120.679,209.391 120.679 C 209.830 120.679,210.190 120.859,210.190 121.079 C 210.190 121.299,210.455 121.479,210.779 121.479 C 211.582 121.479,214.985 123.159,214.985 123.556 C 214.985 123.732,215.300 123.877,215.684 123.879 C 216.069 123.880,216.899 124.150,217.528 124.478 C 218.158 124.806,218.922 125.075,219.226 125.075 C 219.531 125.075,219.780 125.255,219.780 125.475 C 219.780 125.694,220.067 125.874,220.418 125.874 C 220.769 125.874,221.533 126.206,222.116 126.611 C 222.700 127.016,223.761 127.599,224.476 127.907 C 225.190 128.215,225.774 128.603,225.774 128.769 C 225.774 128.935,226.134 129.071,226.573 129.071 C 227.013 129.071,227.373 129.251,227.373 129.471 C 227.373 129.690,227.732 129.870,228.172 129.870 C 228.611 129.870,228.971 130.050,228.971 130.270 C 228.971 130.490,229.230 130.669,229.546 130.669 C 230.092 130.669,234.543 132.939,234.965 133.432 C 235.075 133.561,235.435 133.724,235.764 133.795 C 236.094 133.866,238.021 134.733,240.046 135.722 C 242.071 136.711,243.841 137.495,243.978 137.465 C 244.116 137.434,244.476 137.736,244.779 138.135 C 245.082 138.534,245.335 138.698,245.342 138.500 C 245.349 138.301,245.714 138.463,246.154 138.861 C 246.593 139.259,246.953 139.460,246.953 139.309 C 246.953 139.157,247.358 139.257,247.852 139.531 C 248.347 139.806,248.886 139.992,249.051 139.945 C 249.216 139.898,249.351 140.040,249.351 140.260 C 249.351 140.480,249.532 140.659,249.755 140.659 C 250.362 140.659,253.926 142.373,254.079 142.738 C 254.153 142.914,254.557 143.057,254.978 143.057 C 255.400 143.057,255.744 143.237,255.744 143.457 C 255.744 143.676,256.194 143.856,256.743 143.856 C 257.293 143.856,257.742 144.036,257.742 144.256 C 257.742 144.476,258.102 144.655,258.541 144.655 C 258.981 144.655,259.341 144.835,259.341 145.055 C 259.341 145.275,259.700 145.455,260.140 145.455 C 260.579 145.455,260.939 145.634,260.939 145.854 C 260.939 146.074,261.299 146.254,261.738 146.254 C 262.178 146.254,262.537 146.434,262.537 146.653 C 262.537 146.873,262.897 147.053,263.337 147.053 C 263.776 147.053,264.136 147.233,264.136 147.453 C 264.136 147.672,264.506 147.852,264.959 147.852 C 265.411 147.852,265.670 148.032,265.534 148.252 C 265.399 148.472,265.551 148.651,265.873 148.651 C 266.556 148.651,269.868 150.309,270.063 150.749 C 270.137 150.914,270.541 151.049,270.962 151.049 C 271.384 151.049,271.728 151.229,271.728 151.449 C 271.728 151.668,272.088 151.848,272.527 151.848 C 272.967 151.848,273.327 152.028,273.327 152.248 C 273.327 152.468,273.671 152.647,274.093 152.647 C 274.514 152.647,274.918 152.818,274.992 153.026 C 275.065 153.235,275.979 152.971,277.023 152.441 C 278.067 151.910,278.921 151.556,278.921 151.653 C 278.921 151.751,279.765 151.295,280.798 150.641 C 281.830 149.986,282.908 149.451,283.195 149.451 C 283.482 149.451,283.716 149.271,283.716 149.051 C 283.716 148.831,284.065 148.651,284.492 148.651 C 284.918 148.651,285.379 148.472,285.514 148.252 C 285.650 148.032,286.110 147.852,286.537 147.852 C 286.964 147.852,287.313 147.672,287.313 147.453 C 287.313 147.233,287.683 147.053,288.135 147.053 C 288.588 147.053,288.847 146.873,288.711 146.653 C 288.575 146.434,288.835 146.254,289.287 146.254 C 289.740 146.254,290.110 146.074,290.110 145.854 C 290.110 145.634,290.470 145.455,290.909 145.455 C 291.349 145.455,291.708 145.275,291.708 145.055 C 291.708 144.835,292.046 144.655,292.459 144.655 C 292.871 144.655,293.431 144.388,293.703 144.060 C 293.974 143.733,294.356 143.564,294.551 143.684 C 294.746 143.805,294.905 143.713,294.905 143.480 C 294.905 143.247,295.185 143.057,295.528 143.057 C 295.871 143.057,296.040 142.877,295.904 142.657 C 295.768 142.438,296.027 142.258,296.480 142.258 C 296.932 142.258,297.303 142.100,297.303 141.908 C 297.303 141.716,297.820 141.455,298.453 141.328 C 299.086 141.202,299.855 140.865,300.161 140.579 C 300.468 140.294,300.984 140.000,301.308 139.927 C 302.123 139.743,308.072 136.777,308.744 136.220 C 309.799 135.344,309.261 134.766,305.794 133.052 C 303.871 132.101,302.208 131.221,302.098 131.096 C 301.988 130.971,301.628 130.811,301.299 130.739 C 300.969 130.668,300.639 130.443,300.566 130.240 C 300.493 130.036,300.099 129.870,299.691 129.870 C 299.282 129.870,298.846 129.704,298.720 129.501 C 298.595 129.298,297.955 129.014,297.298 128.870 C 296.641 128.726,296.104 128.446,296.104 128.248 C 296.104 128.049,295.654 127.775,295.105 127.637 C 294.555 127.499,294.106 127.214,294.106 127.004 C 294.106 126.795,293.774 126.679,293.368 126.748 C 292.962 126.817,292.333 126.626,291.969 126.325 C 291.606 126.023,291.309 125.901,291.309 126.054 C 291.309 126.206,291.024 126.047,290.677 125.699 C 290.330 125.352,289.880 125.170,289.678 125.295 C 289.476 125.420,289.311 125.331,289.311 125.099 C 289.311 124.866,289.041 124.675,288.711 124.675 C 288.382 124.675,288.112 124.496,288.112 124.276 C 288.112 124.056,287.752 123.876,287.313 123.876 C 286.873 123.876,286.513 123.696,286.513 123.477 C 286.513 123.257,286.053 123.077,285.491 123.077 C 284.911 123.077,284.575 122.904,284.715 122.677 C 284.851 122.458,284.592 122.278,284.139 122.278 C 283.687 122.278,283.317 122.098,283.317 121.878 C 283.317 121.658,282.957 121.479,282.517 121.479 C 282.078 121.479,281.718 121.299,281.718 121.079 C 281.718 120.859,281.359 120.679,280.919 120.679 C 280.480 120.679,280.120 120.500,280.120 120.280 C 280.120 120.060,279.944 119.880,279.729 119.880 C 278.924 119.880,272.166 116.378,272.441 116.104 C 272.598 115.946,272.547 115.854,272.328 115.898 C 271.387 116.088,270.502 115.853,270.735 115.475 C 270.875 115.249,270.840 115.091,270.659 115.122 C 269.772 115.276,269.004 115.013,268.224 114.286 C 267.752 113.846,267.094 113.487,266.762 113.487 C 266.024 113.487,263.248 111.968,262.843 111.342 C 262.682 111.093,262.547 111.029,262.544 111.199 C 262.540 111.370,261.953 111.198,261.239 110.817 C 260.524 110.437,259.805 110.162,259.640 110.208 C 259.476 110.253,259.341 110.122,259.341 109.917 C 259.341 109.488,257.785 108.888,257.043 109.030 C 256.768 109.083,256.543 108.938,256.543 108.709 C 256.543 108.479,256.094 108.292,255.544 108.292 C 254.995 108.292,254.545 108.112,254.545 107.892 C 254.545 107.672,254.186 107.493,253.746 107.493 C 253.307 107.493,252.947 107.313,252.947 107.093 C 252.947 106.873,252.587 106.693,252.148 106.693 C 251.708 106.693,251.349 106.513,251.349 106.294 C 251.349 106.074,250.989 105.894,250.549 105.894 C 250.110 105.894,249.750 105.714,249.750 105.495 C 249.750 105.275,249.391 105.095,248.951 105.095 C 248.511 105.095,248.152 104.915,248.152 104.695 C 248.152 104.476,247.782 104.296,247.329 104.296 C 246.877 104.296,246.617 104.116,246.753 103.896 C 246.889 103.676,246.756 103.497,246.457 103.497 C 245.703 103.497,243.763 102.562,243.759 102.198 C 243.758 102.033,243.397 101.898,242.957 101.898 C 242.517 101.898,242.158 101.718,242.158 101.499 C 242.158 101.279,241.798 101.099,241.359 101.099 C 240.919 101.099,240.559 100.919,240.559 100.699 C 240.559 100.480,240.200 100.300,239.760 100.300 C 239.321 100.300,238.961 100.120,238.961 99.900 C 238.961 99.680,238.601 99.500,238.162 99.500 C 237.722 99.500,237.363 99.321,237.363 99.101 C 237.363 98.881,237.147 98.701,236.883 98.701 C 236.215 98.701,226.654 93.960,226.359 93.482 C 226.227 93.269,225.966 93.188,225.779 93.304 C 225.592 93.419,225.190 93.264,224.885 92.959 C 224.580 92.655,223.756 92.279,223.054 92.125 C 222.352 91.971,221.778 91.679,221.778 91.477 C 221.778 91.274,221.419 91.109,220.979 91.109 C 220.539 91.109,220.180 90.929,220.180 90.709 C 220.180 90.490,219.820 90.310,219.381 90.310 C 218.941 90.310,218.581 90.130,218.581 89.910 C 218.581 89.690,218.222 89.510,217.782 89.510 C 217.343 89.510,216.982 89.376,216.980 89.211 C 216.976 88.852,215.041 87.912,214.306 87.912 C 214.020 87.912,213.786 87.732,213.786 87.512 C 213.786 87.293,213.427 87.113,212.987 87.113 C 212.547 87.113,212.187 86.978,212.186 86.813 C 212.186 86.648,211.197 86.064,209.990 85.514 C 208.783 84.965,207.794 84.381,207.794 84.216 C 207.793 84.051,207.454 83.916,207.042 83.916 C 206.629 83.916,204.942 83.197,203.293 82.318 C 200.209 80.674,199.401 80.425,199.401 81.119 M198.601 132.667 C 198.601 132.887,198.242 133.067,197.802 133.067 C 197.363 133.067,197.003 133.247,197.003 133.467 C 197.003 133.686,196.643 133.866,196.204 133.866 C 195.764 133.866,195.405 134.046,195.405 134.266 C 195.405 134.486,195.045 134.665,194.605 134.665 C 194.166 134.665,193.806 134.845,193.806 135.065 C 193.806 135.285,193.447 135.465,193.007 135.465 C 192.567 135.465,192.208 135.644,192.208 135.864 C 192.208 136.084,191.848 136.264,191.409 136.264 C 190.969 136.264,190.609 136.444,190.609 136.663 C 190.609 136.883,190.250 137.063,189.810 137.063 C 189.371 137.063,189.011 137.243,189.011 137.463 C 189.011 137.682,188.649 137.862,188.206 137.862 C 187.439 137.862,185.840 138.578,185.415 139.112 C 185.305 139.250,183.776 140.022,182.018 140.829 C 177.658 142.828,166.123 148.655,165.654 149.095 C 165.446 149.290,164.861 149.451,164.356 149.451 C 163.850 149.451,163.437 149.630,163.437 149.850 C 163.437 150.070,163.077 150.250,162.637 150.250 C 162.198 150.250,161.837 150.385,161.835 150.549 C 161.831 150.908,159.896 151.848,159.161 151.848 C 158.875 151.848,158.641 151.983,158.640 152.148 C 158.639 152.313,157.651 152.897,156.444 153.447 C 155.236 153.996,154.248 154.580,154.247 154.745 C 154.246 154.910,154.012 155.045,153.726 155.045 C 152.991 155.045,151.056 155.985,151.052 156.344 C 151.050 156.508,150.689 156.643,150.250 156.643 C 149.810 156.643,149.451 156.823,149.451 157.043 C 149.451 157.263,149.091 157.443,148.651 157.443 C 148.212 157.443,147.852 157.622,147.852 157.842 C 147.852 158.062,147.537 158.243,147.153 158.244 C 146.768 158.246,145.938 158.515,145.309 158.844 C 144.679 159.172,143.992 159.441,143.782 159.441 C 143.572 159.441,143.128 159.712,142.796 160.044 C 142.465 160.375,142.047 160.556,141.868 160.446 C 141.689 160.335,141.440 160.510,141.316 160.835 C 141.187 161.170,140.824 161.323,140.475 161.189 C 140.137 161.060,139.860 161.153,139.860 161.396 C 139.860 161.639,139.490 161.838,139.037 161.838 C 138.585 161.838,138.326 162.018,138.462 162.238 C 138.597 162.458,138.353 162.637,137.919 162.637 C 137.485 162.637,137.062 162.840,136.980 163.087 C 136.897 163.334,136.343 163.536,135.748 163.536 L 134.665 163.536 134.665 179.241 L 134.665 194.946 136.863 196.021 C 138.072 196.613,139.061 197.256,139.061 197.449 C 139.061 197.643,139.286 197.801,139.560 197.799 C 140.192 197.795,146.807 201.087,146.986 201.495 C 147.060 201.662,147.338 201.798,147.606 201.798 C 148.315 201.798,150.243 202.746,150.247 203.097 C 150.248 203.262,150.502 203.397,150.811 203.397 C 151.384 203.397,154.683 204.992,155.045 205.444 C 155.155 205.582,155.829 205.821,156.543 205.976 C 157.258 206.131,157.842 206.423,157.842 206.625 C 157.842 206.827,158.099 206.993,158.413 206.993 C 158.727 206.993,159.260 207.269,159.598 207.607 C 159.935 207.944,160.308 208.211,160.427 208.199 C 161.068 208.135,162.637 208.728,162.637 209.034 C 162.637 209.230,162.997 209.391,163.437 209.391 C 163.876 209.391,164.236 209.570,164.236 209.790 C 164.236 210.010,164.595 210.190,165.035 210.190 C 165.475 210.190,165.834 210.370,165.834 210.589 C 165.834 210.809,166.194 210.989,166.633 210.989 C 167.073 210.989,167.433 211.169,167.433 211.389 C 167.433 211.608,167.687 211.788,167.999 211.788 C 168.310 211.788,168.625 211.934,168.698 212.112 C 168.771 212.290,169.767 212.897,170.911 213.462 C 172.054 214.027,172.864 214.616,172.709 214.770 C 172.554 214.925,172.607 215.015,172.827 214.971 C 173.838 214.767,174.654 215.016,174.387 215.446 C 174.226 215.708,174.276 215.800,174.504 215.659 C 174.937 215.392,180.331 218.039,180.553 218.627 C 180.626 218.822,180.986 218.982,181.352 218.983 C 181.718 218.984,182.737 219.428,183.616 219.970 C 184.496 220.511,185.485 220.964,185.814 220.975 C 186.144 220.987,186.863 221.348,187.413 221.778 C 187.962 222.208,188.644 222.564,188.927 222.569 C 189.211 222.573,189.945 222.949,190.558 223.402 C 191.172 223.856,191.929 224.287,192.241 224.360 C 193.742 224.713,194.605 225.100,194.605 225.421 C 194.605 225.615,194.965 225.774,195.405 225.774 C 195.844 225.774,196.204 225.954,196.204 226.174 C 196.204 226.394,196.563 226.573,197.003 226.573 C 197.443 226.573,197.802 226.753,197.802 226.973 C 197.802 227.193,198.147 227.373,198.568 227.373 C 198.989 227.373,199.402 227.577,199.486 227.828 C 199.657 228.342,202.597 227.459,202.597 226.893 C 202.597 226.717,202.923 226.573,203.321 226.573 C 203.719 226.573,204.431 226.214,204.903 225.774 C 205.375 225.335,206.027 224.975,206.353 224.975 C 206.679 224.975,207.052 224.803,207.182 224.593 C 207.312 224.383,207.682 224.312,208.005 224.436 C 208.327 224.560,208.591 224.462,208.591 224.219 C 208.591 223.975,208.951 223.776,209.391 223.776 C 209.835 223.776,210.190 223.510,210.190 223.177 C 210.190 222.847,210.325 222.607,210.490 222.643 C 211.159 222.789,213.210 222.001,213.948 221.314 C 214.381 220.910,215.062 220.579,215.460 220.579 C 215.858 220.579,216.184 220.400,216.184 220.180 C 216.184 219.960,216.528 219.780,216.950 219.780 C 217.371 219.780,217.776 219.645,217.849 219.481 C 218.037 219.057,222.976 216.583,223.633 216.583 C 223.931 216.583,224.176 216.404,224.176 216.184 C 224.176 215.964,224.446 215.784,224.775 215.784 C 225.105 215.784,225.375 215.604,225.375 215.385 C 225.375 215.165,225.824 214.985,226.374 214.985 C 226.923 214.985,227.373 214.805,227.373 214.585 C 227.373 214.366,227.743 214.186,228.195 214.186 C 228.648 214.186,228.907 214.006,228.771 213.786 C 228.635 213.566,228.850 213.373,229.247 213.357 C 229.645 213.341,230.509 212.988,231.169 212.572 C 232.915 211.472,237.104 209.399,237.518 209.431 C 237.713 209.446,237.983 209.309,238.117 209.125 C 238.356 208.798,241.164 207.400,241.569 207.406 C 241.681 207.408,242.164 207.046,242.641 206.602 C 243.117 206.158,243.904 205.794,244.388 205.794 C 244.873 205.794,245.377 205.513,245.509 205.169 C 245.641 204.826,245.909 204.644,246.106 204.765 C 246.302 204.887,246.683 204.720,246.953 204.396 C 247.223 204.071,247.603 203.904,247.798 204.024 C 247.992 204.144,248.152 204.053,248.152 203.820 C 248.152 203.587,248.511 203.397,248.951 203.397 C 249.391 203.397,249.750 203.261,249.750 203.095 C 249.750 202.772,251.943 201.700,252.390 201.804 C 252.538 201.839,252.768 201.712,252.902 201.523 C 253.248 201.037,259.831 197.795,260.463 197.799 C 260.751 197.801,260.875 197.622,260.739 197.403 C 260.603 197.183,260.768 197.003,261.105 197.003 C 261.441 197.003,262.486 196.571,263.426 196.043 L 265.135 195.083 265.239 179.695 L 265.344 164.307 264.141 163.774 C 263.479 163.481,262.937 163.106,262.937 162.939 C 262.937 162.773,262.738 162.637,262.494 162.637 C 261.769 162.637,258.142 160.871,258.142 160.518 C 258.142 160.339,257.977 160.295,257.774 160.420 C 257.572 160.545,257.121 160.361,256.772 160.012 C 256.423 159.662,255.914 159.452,255.641 159.543 C 255.368 159.635,254.965 159.468,254.745 159.171 C 254.525 158.875,253.897 158.546,253.348 158.441 C 252.799 158.336,252.290 158.068,252.216 157.846 C 252.142 157.624,251.737 157.443,251.315 157.443 C 250.894 157.443,250.549 157.263,250.549 157.043 C 250.549 156.823,250.190 156.643,249.750 156.643 C 249.311 156.643,248.950 156.508,248.948 156.344 C 248.944 155.979,247.004 155.045,246.250 155.045 C 245.952 155.045,245.818 154.865,245.954 154.645 C 246.093 154.420,245.769 154.246,245.212 154.246 C 244.668 154.246,244.163 154.111,244.089 153.946 C 243.897 153.514,240.588 151.848,239.922 151.848 C 239.613 151.848,239.361 151.668,239.361 151.449 C 239.361 151.229,239.091 151.049,238.761 151.049 C 238.432 151.049,238.162 150.839,238.162 150.583 C 238.162 150.326,238.050 150.228,237.913 150.365 C 237.680 150.598,233.800 148.836,233.367 148.299 C 233.257 148.163,232.897 147.999,232.567 147.935 C 231.587 147.745,228.571 146.082,228.571 145.731 C 228.571 145.553,228.380 145.526,228.145 145.671 C 227.911 145.816,227.448 145.601,227.117 145.195 C 226.785 144.788,226.652 144.725,226.820 145.055 C 227.158 145.716,225.902 144.901,225.281 144.056 C 225.119 143.836,224.985 143.792,224.981 143.958 C 224.978 144.123,224.121 143.822,223.077 143.289 C 219.114 141.264,215.159 139.461,214.682 139.461 C 214.409 139.461,214.186 139.281,214.186 139.061 C 214.186 138.841,213.826 138.661,213.387 138.661 C 212.947 138.661,212.587 138.482,212.587 138.262 C 212.587 138.042,212.354 137.862,212.068 137.862 C 211.333 137.862,209.397 136.922,209.394 136.563 C 209.392 136.399,209.031 136.264,208.591 136.264 C 208.152 136.264,207.792 136.084,207.792 135.864 C 207.792 135.644,207.433 135.465,206.993 135.465 C 206.553 135.465,206.194 135.285,206.194 135.065 C 206.194 134.845,205.834 134.665,205.395 134.665 C 204.955 134.665,204.595 134.486,204.595 134.266 C 204.595 134.046,204.236 133.866,203.796 133.866 C 203.357 133.866,202.997 133.686,202.997 133.467 C 202.997 133.247,202.637 133.067,202.198 133.067 C 201.758 133.067,201.399 132.887,201.399 132.667 C 201.399 132.448,200.769 132.268,200.000 132.268 C 199.231 132.268,198.601 132.448,198.601 132.667 " stroke="none" fill="#acccfc" fill-rule="evenodd"></path><path id="path1" d="M86.314 206.222 C 86.314 265.761,86.239 263.337,88.083 263.337 C 88.429 263.337,88.711 263.516,88.711 263.736 C 88.711 263.956,89.071 264.136,89.510 264.136 C 89.950 264.136,90.310 264.316,90.310 264.535 C 90.310 264.755,90.669 264.935,91.109 264.935 C 91.548 264.935,91.908 265.115,91.908 265.335 C 91.908 265.554,92.171 265.734,92.492 265.734 C 93.173 265.734,99.637 268.988,99.833 269.431 C 99.907 269.595,100.195 269.730,100.473 269.730 C 100.752 269.730,101.771 270.145,102.738 270.652 C 103.704 271.158,105.125 271.822,105.894 272.126 C 106.663 272.430,107.967 273.096,108.791 273.607 C 109.615 274.118,110.290 274.407,110.290 274.251 C 110.290 274.094,110.505 274.182,110.769 274.446 C 111.033 274.709,111.572 274.925,111.968 274.925 C 112.364 274.925,112.687 275.105,112.687 275.325 C 112.687 275.544,113.047 275.724,113.487 275.724 C 113.926 275.724,114.286 275.904,114.286 276.124 C 114.286 276.344,114.645 276.523,115.085 276.523 C 115.524 276.523,115.884 276.703,115.884 276.923 C 115.884 277.143,116.244 277.323,116.683 277.323 C 117.123 277.323,117.483 277.514,117.483 277.749 C 117.483 277.983,117.936 278.118,118.490 278.049 L 119.497 277.922 119.492 222.577 C 119.487 170.248,119.448 167.204,118.784 166.705 C 118.398 166.415,115.385 164.840,112.088 163.206 C 108.791 161.572,105.644 159.978,105.095 159.664 C 104.545 159.351,103.511 158.858,102.797 158.570 C 102.083 158.282,101.499 157.911,101.499 157.745 C 101.499 157.578,101.139 157.443,100.699 157.443 C 100.260 157.443,99.900 157.263,99.900 157.043 C 99.900 156.823,99.540 156.643,99.101 156.643 C 98.661 156.643,98.302 156.464,98.302 156.244 C 98.302 156.024,97.942 155.844,97.502 155.844 C 97.063 155.844,96.703 155.698,96.703 155.519 C 96.703 155.340,96.074 154.947,95.305 154.645 C 94.535 154.344,93.906 153.950,93.906 153.772 C 93.906 153.593,93.652 153.447,93.341 153.447 C 93.030 153.447,91.418 152.727,89.758 151.848 C 88.099 150.969,86.645 150.250,86.528 150.250 C 86.410 150.250,86.314 175.437,86.314 206.222 M312.887 150.620 C 312.887 150.856,312.438 151.049,311.888 151.049 C 311.339 151.049,310.889 151.229,310.889 151.449 C 310.889 151.668,310.529 151.848,310.090 151.848 C 309.650 151.848,309.291 151.984,309.291 152.150 C 309.291 152.316,308.706 152.704,307.992 153.012 C 307.278 153.320,306.216 153.903,305.633 154.309 C 305.049 154.714,304.367 155.045,304.117 155.045 C 303.867 155.045,303.277 155.405,302.805 155.844 C 302.333 156.284,301.621 156.643,301.223 156.643 C 300.825 156.643,300.500 156.823,300.500 157.043 C 300.500 157.263,300.257 157.443,299.961 157.443 C 299.260 157.443,296.914 158.583,295.935 159.399 C 295.513 159.752,295.299 159.815,295.459 159.540 C 295.877 158.826,295.564 158.922,294.515 159.832 C 294.014 160.267,293.447 160.526,293.255 160.408 C 293.064 160.289,292.907 160.348,292.907 160.539 C 292.907 160.729,291.603 161.504,290.010 162.260 C 288.417 163.017,287.023 163.746,286.913 163.880 C 286.803 164.014,286.039 164.364,285.215 164.659 C 284.391 164.954,283.716 165.339,283.716 165.515 C 283.716 165.690,283.391 165.834,282.992 165.834 C 282.594 165.834,281.874 166.201,281.393 166.650 L 280.517 167.466 280.618 222.694 L 280.719 277.922 281.618 278.050 C 282.113 278.120,282.517 277.985,282.517 277.750 C 282.517 277.515,282.770 277.323,283.079 277.323 C 283.388 277.323,284.332 276.977,285.177 276.554 C 286.022 276.131,287.298 275.547,288.012 275.257 C 288.726 274.967,289.311 274.575,289.311 274.385 C 289.311 274.196,289.567 274.139,289.881 274.259 C 290.194 274.380,290.666 274.219,290.929 273.902 C 291.192 273.586,291.654 273.327,291.957 273.327 C 292.260 273.327,292.507 273.117,292.507 272.860 C 292.507 272.604,292.608 272.495,292.732 272.619 C 292.855 272.742,294.339 272.170,296.029 271.348 C 297.718 270.526,300.719 269.070,302.697 268.113 C 304.675 267.155,306.354 266.228,306.427 266.053 C 306.500 265.878,306.905 265.734,307.326 265.734 C 307.747 265.734,308.092 265.594,308.092 265.422 C 308.092 265.250,308.901 264.871,309.890 264.579 C 310.879 264.287,311.688 263.921,311.688 263.767 C 311.688 263.612,312.318 263.239,313.088 262.937 L 314.488 262.387 314.387 206.424 C 314.291 153.489,314.248 150.453,313.586 150.326 C 313.202 150.252,312.887 150.384,312.887 150.620 M262.212 212.840 C 261.263 213.329,260.056 214.011,259.528 214.357 C 259.001 214.702,258.294 214.985,257.956 214.985 C 257.619 214.985,257.343 215.165,257.343 215.385 C 257.343 215.604,257.118 215.784,256.843 215.783 C 256.354 215.782,252.942 217.378,252.547 217.792 C 252.438 217.908,250.909 218.732,249.151 219.624 C 245.362 221.546,244.748 221.860,243.113 222.710 C 242.430 223.065,241.755 223.240,241.615 223.100 C 241.474 222.959,241.359 223.033,241.359 223.263 C 241.359 223.678,237.144 225.937,236.817 225.698 C 236.724 225.630,236.269 225.917,235.806 226.336 C 235.344 226.754,234.959 226.934,234.952 226.735 C 234.945 226.536,234.668 226.733,234.336 227.173 C 234.004 227.612,233.680 227.882,233.617 227.772 C 233.462 227.504,229.249 229.454,228.877 229.966 C 228.716 230.188,228.581 230.223,228.578 230.043 C 228.574 229.863,228.049 230.088,227.411 230.542 C 226.773 230.997,226.008 231.373,225.713 231.378 C 225.417 231.382,224.725 231.738,224.176 232.168 C 223.626 232.598,222.952 232.953,222.677 232.958 C 222.403 232.963,222.178 233.147,222.178 233.367 C 222.178 233.586,221.895 233.766,221.550 233.766 C 221.205 233.766,220.651 234.038,220.319 234.369 C 219.987 234.701,219.550 234.870,219.348 234.745 C 219.146 234.620,218.981 234.709,218.981 234.941 C 218.981 235.174,218.747 235.365,218.461 235.365 C 217.726 235.365,215.791 236.304,215.787 236.663 C 215.786 236.828,215.425 236.963,214.985 236.963 C 214.545 236.963,214.184 237.098,214.183 237.263 C 214.179 237.622,212.244 238.561,211.509 238.561 C 211.223 238.561,210.989 238.719,210.989 238.913 C 210.989 239.294,208.581 240.410,208.092 240.255 C 207.927 240.203,207.792 240.340,207.792 240.559 C 207.792 240.779,207.422 240.959,206.969 240.959 C 206.517 240.959,206.258 241.139,206.394 241.359 C 206.529 241.578,206.270 241.758,205.818 241.758 C 205.365 241.758,204.995 241.938,204.995 242.158 C 204.995 242.378,204.756 242.557,204.463 242.557 C 204.171 242.557,203.082 242.988,202.044 243.513 C 200.258 244.417,198.856 244.492,198.372 243.708 C 198.252 243.515,197.806 243.357,197.379 243.357 C 196.952 243.357,196.603 243.206,196.603 243.021 C 196.603 242.836,195.890 242.450,195.018 242.162 C 194.146 241.874,193.528 241.486,193.643 241.299 C 193.759 241.112,193.483 240.959,193.031 240.959 C 192.578 240.959,192.208 240.779,192.208 240.559 C 192.208 240.340,192.073 240.203,191.908 240.255 C 191.419 240.410,189.011 239.294,189.011 238.913 C 189.011 238.719,188.876 238.602,188.711 238.651 C 188.263 238.784,185.814 237.613,185.814 237.265 C 185.814 237.099,185.455 236.963,185.015 236.963 C 184.575 236.963,184.216 236.806,184.216 236.613 C 184.216 236.421,183.698 236.160,183.065 236.034 C 182.432 235.907,181.645 235.533,181.315 235.203 C 180.985 234.873,180.631 234.687,180.529 234.789 C 180.428 234.890,179.679 234.522,178.866 233.970 C 178.052 233.419,177.281 232.967,177.152 232.967 C 177.022 232.967,174.063 231.527,170.576 229.768 C 167.089 228.008,164.230 226.705,164.224 226.871 C 164.217 227.037,164.032 226.865,163.813 226.490 C 163.594 226.114,162.790 225.689,162.027 225.546 C 161.264 225.403,160.639 225.159,160.639 225.005 C 160.639 224.851,160.010 224.478,159.241 224.176 C 158.472 223.874,157.842 223.481,157.842 223.302 C 157.842 223.123,157.589 222.977,157.281 222.977 C 156.615 222.977,153.305 221.311,153.114 220.879 C 153.040 220.714,152.743 220.579,152.452 220.579 C 151.811 220.579,148.505 218.901,148.318 218.482 C 148.245 218.317,147.978 218.182,147.726 218.182 C 146.963 218.182,142.258 215.719,142.258 215.321 C 142.258 215.117,142.033 214.989,141.758 215.037 C 141.054 215.159,139.061 214.138,139.061 213.655 C 139.061 213.434,138.948 213.366,138.810 213.504 C 138.673 213.642,138.052 213.492,137.432 213.171 C 134.469 211.639,134.665 210.350,134.665 231.289 C 134.665 250.768,134.681 250.949,136.344 250.949 C 136.739 250.949,137.063 251.095,137.063 251.274 C 137.063 251.453,137.692 251.846,138.462 252.148 C 139.231 252.450,139.860 252.799,139.860 252.924 C 139.860 253.049,140.445 253.393,141.159 253.689 C 141.873 253.985,143.087 254.487,143.856 254.805 C 144.625 255.123,145.567 255.554,145.949 255.764 C 146.330 255.973,146.915 256.144,147.247 256.144 C 147.580 256.144,147.852 256.324,147.852 256.543 C 147.852 256.763,148.086 256.943,148.372 256.943 C 148.657 256.943,149.116 257.168,149.391 257.443 C 149.665 257.717,150.016 257.957,150.170 257.975 C 151.193 258.094,152.647 258.687,152.647 258.984 C 152.647 259.180,153.007 259.341,153.447 259.341 C 153.886 259.341,154.246 259.520,154.246 259.740 C 154.246 259.960,154.605 260.140,155.045 260.140 C 155.485 260.140,155.844 260.286,155.844 260.465 C 155.844 260.644,156.474 261.037,157.243 261.339 C 158.012 261.640,158.641 262.034,158.641 262.212 C 158.641 262.391,158.917 262.537,159.255 262.537 C 159.592 262.537,161.226 263.257,162.885 264.136 C 164.545 265.015,166.167 265.734,166.491 265.734 C 166.815 265.734,166.969 265.914,166.833 266.134 C 166.697 266.354,166.956 266.533,167.409 266.533 C 167.862 266.533,168.232 266.743,168.232 267.000 C 168.232 267.256,168.348 267.349,168.490 267.207 C 168.709 266.989,171.058 268.114,174.426 270.050 C 175.141 270.461,178.113 271.777,178.621 271.907 C 179.314 272.085,182.108 273.584,182.550 274.014 C 182.842 274.300,183.247 274.431,183.449 274.306 C 183.651 274.181,183.816 274.269,183.816 274.502 C 183.816 274.735,184.176 274.925,184.615 274.925 C 185.055 274.925,185.415 275.105,185.415 275.325 C 185.415 275.544,185.648 275.724,185.934 275.724 C 186.669 275.724,188.605 276.664,188.608 277.023 C 188.610 277.188,188.982 277.323,189.434 277.323 C 189.887 277.323,190.146 277.502,190.010 277.722 C 189.870 277.949,190.206 278.122,190.786 278.122 C 191.348 278.122,191.808 278.302,191.808 278.521 C 191.808 278.741,192.168 278.921,192.607 278.921 C 193.047 278.921,193.407 279.101,193.407 279.321 C 193.407 279.540,193.756 279.720,194.182 279.720 C 194.609 279.720,195.069 279.900,195.205 280.120 C 195.341 280.340,195.801 280.519,196.227 280.519 C 196.654 280.519,197.004 280.654,197.006 280.819 C 197.019 282.080,201.152 282.450,202.597 281.319 C 203.147 280.889,203.785 280.533,204.016 280.528 C 204.688 280.514,206.587 279.549,206.590 279.221 C 206.592 279.056,206.953 278.921,207.393 278.921 C 207.832 278.921,208.192 278.741,208.192 278.521 C 208.192 278.302,208.652 278.122,209.214 278.122 C 209.794 278.122,210.130 277.949,209.990 277.722 C 209.854 277.502,210.113 277.323,210.566 277.323 C 211.018 277.323,211.389 277.143,211.389 276.923 C 211.389 276.703,211.733 276.523,212.155 276.523 C 212.576 276.523,212.980 276.382,213.054 276.209 C 213.201 275.861,217.068 273.960,218.482 273.540 C 218.976 273.393,219.381 273.105,219.381 272.900 C 219.381 272.695,219.605 272.530,219.880 272.533 C 220.490 272.541,225.909 269.955,229.588 267.902 C 230.511 267.386,231.380 267.077,231.517 267.215 C 231.655 267.353,231.768 267.256,231.768 267.000 C 231.768 266.743,232.128 266.533,232.567 266.533 C 233.007 266.533,233.367 266.354,233.367 266.134 C 233.367 265.914,233.726 265.734,234.166 265.734 C 234.605 265.734,234.966 265.599,234.968 265.435 C 234.972 265.084,236.900 264.136,237.609 264.136 C 237.876 264.136,238.155 264.000,238.228 263.834 C 238.302 263.669,239.620 262.905,241.159 262.138 C 242.697 261.371,244.016 260.607,244.089 260.441 C 244.163 260.276,244.567 260.140,244.988 260.140 C 245.410 260.140,245.754 259.960,245.754 259.740 C 245.754 259.520,246.114 259.341,246.553 259.341 C 246.993 259.341,247.353 259.161,247.353 258.941 C 247.353 258.721,247.630 258.541,247.968 258.541 C 248.306 258.541,249.295 258.178,250.166 257.734 C 251.036 257.290,251.751 257.065,251.754 257.235 C 251.758 257.404,251.893 257.343,252.054 257.100 C 252.311 256.713,255.812 254.990,256.366 254.978 C 256.479 254.976,256.857 254.689,257.205 254.340 C 257.554 253.992,258.356 253.603,258.989 253.477 C 259.622 253.350,260.140 253.089,260.140 252.897 C 260.140 252.705,260.500 252.547,260.939 252.547 C 261.379 252.547,261.738 252.368,261.738 252.148 C 261.738 251.928,262.008 251.748,262.338 251.748 C 262.667 251.748,262.937 251.568,262.937 251.349 C 262.937 251.129,263.220 250.949,263.565 250.949 C 265.342 250.949,265.348 250.872,265.239 230.932 C 265.123 209.839,265.354 211.221,262.212 212.840 " stroke="none" fill="#649cf4" fill-rule="evenodd"></path><path id="path2" d="M196.056 28.579 C 194.546 29.344,193.062 29.970,192.759 29.970 C 192.456 29.970,192.208 30.150,192.208 30.370 C 192.208 30.589,191.848 30.769,191.409 30.769 C 190.969 30.769,190.609 30.928,190.609 31.122 C 190.609 31.316,190.205 31.607,189.710 31.768 C 189.216 31.929,188.721 32.092,188.611 32.131 C 188.501 32.170,187.850 32.501,187.164 32.868 C 186.477 33.235,185.803 33.422,185.665 33.284 C 185.527 33.146,185.415 33.243,185.415 33.500 C 185.415 33.756,185.055 33.966,184.615 33.966 C 184.176 33.966,183.816 34.112,183.816 34.291 C 183.816 34.470,183.187 34.863,182.418 35.165 C 181.648 35.467,181.019 35.860,181.019 36.039 C 181.019 36.217,180.747 36.364,180.414 36.364 C 179.761 36.364,178.170 37.162,177.786 37.682 C 177.657 37.858,177.167 38.031,176.698 38.066 C 176.229 38.102,175.752 38.374,175.638 38.671 C 175.524 38.968,175.249 39.100,175.028 38.963 C 174.806 38.826,174.625 38.905,174.625 39.137 C 174.625 39.370,174.266 39.560,173.826 39.560 C 173.387 39.560,173.027 39.740,173.027 39.960 C 173.027 40.180,172.712 40.364,172.328 40.369 C 171.943 40.373,171.179 40.729,170.629 41.159 C 170.080 41.589,169.316 41.944,168.931 41.949 C 168.546 41.954,168.232 42.116,168.232 42.309 C 168.232 42.602,166.094 43.712,165.435 43.762 C 165.325 43.770,164.742 44.107,164.139 44.510 C 163.536 44.913,162.763 45.135,162.420 45.004 C 162.062 44.866,161.901 44.932,162.041 45.159 C 162.266 45.524,161.709 45.733,160.898 45.588 C 160.710 45.554,160.230 45.905,159.829 46.366 C 159.429 46.828,158.990 47.175,158.854 47.138 C 158.373 47.006,156.244 48.055,156.244 48.424 C 156.244 48.630,156.090 48.704,155.903 48.588 C 155.716 48.472,155.221 48.636,154.804 48.951 C 154.387 49.267,153.731 49.531,153.347 49.538 C 152.962 49.545,152.647 49.730,152.647 49.950 C 152.647 50.170,152.378 50.350,152.048 50.350 C 151.718 50.350,151.449 50.529,151.449 50.749 C 151.449 50.969,151.179 51.149,150.849 51.149 C 150.519 51.149,150.247 51.374,150.244 51.648 C 150.239 52.040,150.170 52.042,149.926 51.657 C 149.697 51.297,149.463 51.376,149.045 51.957 C 148.722 52.405,148.013 52.747,147.407 52.747 C 146.820 52.747,146.236 53.017,146.109 53.347 C 145.983 53.676,145.649 53.952,145.367 53.960 C 144.490 53.983,141.830 55.384,142.118 55.671 C 142.268 55.821,142.001 55.944,141.525 55.944 C 141.049 55.944,140.659 56.124,140.659 56.344 C 140.659 56.563,140.199 56.743,139.637 56.743 C 139.057 56.743,138.721 56.916,138.861 57.143 C 139.001 57.369,138.665 57.542,138.086 57.542 C 137.523 57.542,137.063 57.722,137.063 57.942 C 137.063 58.162,136.703 58.342,136.264 58.342 C 135.824 58.342,135.465 58.521,135.465 58.741 C 135.465 58.961,135.105 59.141,134.665 59.141 C 134.226 59.141,133.866 59.321,133.866 59.540 C 133.866 59.760,133.519 59.940,133.095 59.940 C 132.672 59.940,132.055 60.210,131.725 60.539 C 131.396 60.869,130.664 61.139,130.098 61.139 C 129.533 61.139,129.071 61.319,129.071 61.538 C 129.071 61.758,128.835 61.938,128.547 61.938 C 128.259 61.938,127.637 62.298,127.165 62.737 C 126.693 63.177,125.932 63.536,125.475 63.536 C 125.017 63.536,124.256 63.896,123.784 64.336 C 123.312 64.775,122.600 65.135,122.202 65.135 C 121.804 65.135,121.479 65.315,121.479 65.534 C 121.479 65.754,121.119 65.934,120.679 65.934 C 120.240 65.934,119.880 66.114,119.880 66.334 C 119.880 66.553,119.520 66.733,119.081 66.733 C 118.641 66.733,118.282 66.913,118.282 67.133 C 118.282 67.353,117.922 67.532,117.483 67.532 C 117.043 67.532,116.683 67.712,116.683 67.932 C 116.683 68.152,116.324 68.332,115.884 68.332 C 115.445 68.332,115.085 68.511,115.085 68.731 C 115.085 68.951,114.725 69.131,114.286 69.131 C 113.846 69.131,113.487 69.311,113.487 69.530 C 113.487 69.750,113.127 69.930,112.687 69.930 C 112.248 69.930,111.887 70.065,111.885 70.230 C 111.881 70.589,109.946 71.528,109.211 71.528 C 108.925 71.528,108.691 71.708,108.691 71.928 C 108.691 72.148,108.422 72.328,108.092 72.328 C 107.762 72.328,107.491 72.463,107.489 72.627 C 107.486 72.986,105.551 73.926,104.815 73.926 C 104.530 73.926,104.296 74.106,104.296 74.326 C 104.296 74.545,103.936 74.725,103.497 74.725 C 103.057 74.725,102.697 74.905,102.697 75.125 C 102.697 75.345,102.338 75.524,101.898 75.524 C 101.459 75.524,101.099 75.704,101.099 75.924 C 101.099 76.144,100.750 76.324,100.323 76.324 C 99.897 76.324,99.435 76.506,99.297 76.730 C 99.159 76.953,98.878 77.032,98.674 76.906 C 98.469 76.780,98.302 76.867,98.302 77.099 C 98.302 77.332,98.136 77.522,97.933 77.522 C 97.034 77.522,93.507 79.372,93.507 79.844 C 93.507 80.131,93.338 80.263,93.133 80.136 C 92.809 79.936,89.265 81.364,88.711 81.918 C 88.234 82.395,86.674 83.117,86.119 83.117 C 85.787 83.117,85.514 83.297,85.514 83.516 C 85.514 83.736,85.155 83.916,84.715 83.916 C 84.276 83.916,83.915 84.051,83.913 84.216 C 83.909 84.575,81.974 85.514,81.239 85.514 C 80.953 85.514,80.719 85.694,80.719 85.914 C 80.719 86.134,80.349 86.314,79.896 86.314 C 79.444 86.314,79.185 86.494,79.321 86.713 C 79.457 86.933,79.197 87.113,78.745 87.113 C 78.292 87.113,77.921 87.248,77.919 87.413 C 77.915 87.771,75.980 88.711,75.245 88.711 C 74.959 88.711,74.725 88.891,74.725 89.111 C 74.725 89.331,74.381 89.510,73.959 89.510 C 73.538 89.510,73.134 89.689,73.060 89.907 C 72.987 90.125,72.446 90.342,71.857 90.391 C 71.268 90.440,70.874 90.621,70.981 90.794 C 71.088 90.967,70.939 91.109,70.650 91.109 C 70.361 91.109,67.436 92.458,64.149 94.106 C 60.863 95.754,57.934 97.103,57.642 97.103 C 57.349 97.103,56.723 97.463,56.252 97.902 C 55.505 98.598,55.142 98.734,54.138 98.693 C 53.945 98.685,53.430 99.074,52.230 100.132 C 51.961 100.369,51.518 100.489,51.245 100.398 C 50.972 100.307,50.749 100.428,50.749 100.666 C 50.749 100.904,50.382 101.099,49.933 101.099 C 49.485 101.099,48.731 101.459,48.260 101.898 C 47.788 102.338,47.166 102.697,46.878 102.697 C 46.589 102.697,46.354 102.877,46.354 103.097 C 46.354 103.317,45.904 103.497,45.355 103.497 C 44.805 103.497,44.356 103.676,44.356 103.896 C 44.356 104.116,44.086 104.296,43.756 104.296 C 43.427 104.296,43.157 104.476,43.157 104.695 C 43.157 104.915,42.707 105.095,42.158 105.095 C 41.608 105.095,41.157 105.230,41.156 105.395 C 41.152 105.709,39.255 106.693,38.653 106.693 C 38.249 106.693,37.163 107.713,37.163 108.092 C 37.163 108.584,38.309 109.491,38.932 109.491 C 39.278 109.491,39.560 109.670,39.560 109.890 C 39.560 110.110,39.920 110.290,40.360 110.290 C 40.799 110.290,41.159 110.470,41.159 110.689 C 41.159 110.909,41.608 111.089,42.158 111.089 C 42.707 111.089,43.157 111.269,43.157 111.489 C 43.157 111.708,43.561 111.891,44.056 111.894 C 44.783 111.899,44.840 111.974,44.356 112.288 C 43.889 112.590,43.999 112.676,44.855 112.681 C 45.460 112.685,45.954 112.867,45.954 113.087 C 45.954 113.307,46.314 113.487,46.753 113.487 C 47.193 113.487,47.552 113.666,47.552 113.886 C 47.552 114.106,47.822 114.286,48.152 114.286 C 48.482 114.286,48.751 114.466,48.751 114.685 C 48.751 114.905,49.111 115.085,49.550 115.085 C 49.990 115.085,50.350 115.265,50.350 115.485 C 50.350 115.704,50.584 115.884,50.869 115.884 C 51.605 115.884,53.540 116.824,53.543 117.183 C 53.545 117.348,53.906 117.483,54.346 117.483 C 54.785 117.483,55.145 117.662,55.145 117.882 C 55.145 118.102,55.490 118.282,55.911 118.282 C 56.332 118.282,56.737 118.417,56.810 118.581 C 56.883 118.746,57.842 119.305,58.941 119.824 C 60.040 120.343,61.299 120.960,61.738 121.196 C 64.461 122.659,66.781 123.640,67.262 123.531 C 67.444 123.490,67.495 123.614,67.376 123.806 C 67.155 124.163,67.928 124.617,70.230 125.483 C 70.944 125.751,71.528 126.129,71.528 126.322 C 71.528 126.515,71.888 126.673,72.328 126.673 C 72.767 126.673,73.127 126.853,73.127 127.073 C 73.127 127.293,73.397 127.473,73.726 127.473 C 74.056 127.473,74.326 127.293,74.326 127.073 C 74.326 126.853,74.685 126.673,75.125 126.673 C 75.564 126.673,75.924 126.494,75.924 126.274 C 75.924 126.054,76.284 125.874,76.723 125.874 C 77.163 125.874,77.522 125.694,77.522 125.475 C 77.522 125.255,77.837 125.072,78.222 125.068 C 78.606 125.064,79.888 124.528,81.069 123.876 C 82.251 123.225,83.362 122.782,83.539 122.891 C 83.716 123.000,83.962 122.926,84.086 122.725 C 84.406 122.207,87.422 120.679,88.124 120.679 C 88.447 120.679,88.711 120.528,88.711 120.344 C 88.711 120.159,89.431 119.771,90.310 119.481 C 91.189 119.190,91.908 118.841,91.908 118.705 C 91.908 118.569,92.403 118.244,93.007 117.984 C 93.611 117.724,94.376 117.345,94.705 117.141 C 95.035 116.937,96.204 116.348,97.303 115.833 C 98.402 115.318,99.391 114.804,99.500 114.691 C 99.610 114.578,99.909 114.446,100.165 114.397 C 100.420 114.349,101.285 113.864,102.087 113.320 C 102.888 112.776,103.803 112.430,104.120 112.552 C 104.436 112.673,104.695 112.574,104.695 112.330 C 104.695 112.087,105.066 111.888,105.518 111.888 C 105.971 111.888,106.230 111.708,106.094 111.489 C 105.879 111.141,106.689 110.899,107.592 111.042 C 107.757 111.068,107.892 110.909,107.892 110.689 C 107.892 110.470,108.252 110.290,108.691 110.290 C 109.131 110.290,109.491 110.132,109.491 109.939 C 109.491 109.745,110.075 109.363,110.789 109.089 C 113.669 107.983,114.286 107.684,114.286 107.395 C 114.286 107.229,114.566 107.093,114.909 107.093 C 115.278 107.093,115.416 106.905,115.247 106.632 C 115.065 106.338,115.138 106.279,115.447 106.470 C 115.983 106.802,118.370 105.961,118.106 105.533 C 118.014 105.385,118.421 105.225,119.010 105.176 C 119.598 105.128,120.140 104.910,120.213 104.692 C 120.286 104.474,120.691 104.296,121.112 104.296 C 121.533 104.296,121.878 104.026,121.878 103.696 C 121.878 103.367,122.013 103.130,122.178 103.171 C 122.627 103.282,125.611 101.924,125.883 101.485 C 126.012 101.275,126.603 101.063,127.195 101.014 C 127.787 100.965,128.272 100.784,128.272 100.612 C 128.272 100.440,128.661 100.300,129.138 100.300 C 129.614 100.300,129.880 100.177,129.730 100.026 C 129.449 99.745,132.867 97.967,133.766 97.925 C 134.041 97.912,134.266 97.722,134.266 97.502 C 134.266 97.283,134.636 97.103,135.089 97.103 C 135.541 97.103,135.800 96.923,135.664 96.703 C 135.524 96.477,135.860 96.304,136.440 96.304 C 137.002 96.304,137.463 96.124,137.463 95.904 C 137.463 95.684,137.807 95.504,138.228 95.504 C 138.650 95.504,139.054 95.370,139.128 95.205 C 139.319 94.773,142.629 93.107,143.295 93.107 C 143.603 93.107,143.856 92.927,143.856 92.707 C 143.856 92.488,144.216 92.308,144.655 92.308 C 145.095 92.308,145.455 92.140,145.455 91.934 C 145.455 91.728,146.084 91.333,146.853 91.054 C 147.622 90.776,148.252 90.394,148.252 90.206 C 148.252 90.017,148.410 89.961,148.603 90.080 C 149.029 90.343,151.449 89.187,151.449 88.719 C 151.449 88.536,151.808 88.481,152.248 88.596 C 152.812 88.743,153.047 88.608,153.047 88.135 C 153.047 87.767,153.186 87.551,153.356 87.656 C 153.526 87.761,154.735 87.322,156.043 86.681 C 157.351 86.039,158.651 85.514,158.931 85.514 C 159.211 85.514,159.441 85.335,159.441 85.115 C 159.441 84.895,159.800 84.715,160.240 84.715 C 160.679 84.715,161.039 84.535,161.039 84.316 C 161.039 84.096,161.399 83.916,161.838 83.916 C 162.278 83.916,162.637 83.736,162.637 83.516 C 162.637 83.297,162.907 83.117,163.237 83.117 C 163.566 83.117,163.836 82.937,163.836 82.717 C 163.836 82.498,164.196 82.318,164.635 82.318 C 165.075 82.318,165.435 82.138,165.435 81.918 C 165.435 81.698,165.794 81.518,166.234 81.518 C 166.673 81.518,167.033 81.339,167.033 81.119 C 167.033 80.899,167.393 80.719,167.832 80.719 C 168.272 80.719,168.631 80.539,168.631 80.320 C 168.631 80.100,168.991 79.920,169.431 79.920 C 169.870 79.920,170.230 79.740,170.230 79.520 C 170.230 79.301,170.512 79.121,170.858 79.121 C 171.203 79.121,171.757 78.849,172.089 78.518 C 172.420 78.186,172.857 78.017,173.059 78.142 C 173.261 78.267,173.427 78.178,173.427 77.946 C 173.427 77.713,173.786 77.522,174.226 77.522 C 174.665 77.522,175.025 77.343,175.025 77.123 C 175.025 76.903,175.395 76.723,175.848 76.723 C 176.300 76.723,176.559 76.543,176.424 76.324 C 176.284 76.097,176.619 75.924,177.199 75.924 C 177.762 75.924,178.222 75.744,178.222 75.524 C 178.222 75.305,178.515 75.125,178.874 75.125 C 179.543 75.125,182.323 73.578,182.537 73.086 C 182.602 72.936,183.007 72.904,183.436 73.016 C 183.865 73.128,184.216 73.020,184.216 72.774 C 184.216 72.528,184.575 72.328,185.015 72.328 C 185.455 72.328,185.814 72.148,185.814 71.928 C 185.814 71.708,186.011 71.528,186.252 71.528 C 186.493 71.528,187.170 71.186,187.758 70.768 C 188.345 70.350,189.182 69.945,189.618 69.869 C 190.053 69.793,190.656 69.497,190.957 69.211 C 191.258 68.926,192.023 68.588,192.656 68.462 C 193.288 68.335,193.806 68.108,193.806 67.957 C 193.806 67.805,194.436 67.435,195.205 67.133 C 195.974 66.831,196.603 66.438,196.603 66.259 C 196.603 66.080,196.963 65.934,197.403 65.934 C 197.842 65.934,198.202 65.754,198.202 65.534 C 198.202 65.315,198.546 65.135,198.968 65.135 C 199.389 65.135,199.824 64.910,199.935 64.635 C 200.096 64.236,200.143 64.236,200.168 64.635 C 200.186 64.910,200.559 65.135,200.999 65.135 C 201.439 65.135,201.798 65.315,201.798 65.534 C 201.798 65.754,202.246 65.934,202.794 65.934 C 203.357 65.934,204.006 66.281,204.289 66.733 C 204.563 67.173,204.980 67.532,205.216 67.532 C 205.451 67.532,206.388 67.892,207.298 68.332 C 208.208 68.771,209.152 69.131,209.395 69.131 C 209.638 69.131,209.709 69.338,209.552 69.592 C 209.394 69.848,209.441 69.946,209.657 69.812 C 209.872 69.680,210.549 69.832,211.163 70.150 C 211.777 70.469,212.451 70.729,212.662 70.729 C 212.872 70.729,213.315 71.001,213.647 71.332 C 213.979 71.664,214.416 71.833,214.618 71.708 C 214.820 71.583,214.985 71.672,214.985 71.904 C 214.985 72.137,215.255 72.328,215.584 72.328 C 215.914 72.328,216.184 72.527,216.184 72.771 C 216.184 73.042,216.608 73.126,217.283 72.986 C 217.887 72.861,218.157 72.857,217.882 72.976 C 217.197 73.274,217.246 74.064,217.933 73.800 C 218.236 73.684,218.712 73.800,218.991 74.057 C 219.387 74.423,219.435 74.395,219.209 73.926 C 219.050 73.596,219.277 73.731,219.714 74.226 C 220.151 74.720,220.794 75.125,221.143 75.125 C 221.492 75.125,221.778 75.305,221.778 75.524 C 221.778 75.744,222.138 75.924,222.577 75.924 C 223.017 75.924,223.377 76.060,223.377 76.226 C 223.377 76.393,224.129 76.763,225.048 77.050 C 225.967 77.337,227.209 77.920,227.807 78.346 C 228.405 78.772,229.282 79.121,229.756 79.121 C 230.229 79.121,230.524 79.270,230.411 79.453 C 230.298 79.636,230.827 80.029,231.587 80.327 C 232.346 80.625,232.967 81.034,232.967 81.236 C 232.967 81.438,233.211 81.511,233.508 81.396 C 233.806 81.282,234.517 81.622,235.089 82.153 C 235.661 82.683,236.597 83.117,237.169 83.117 C 237.741 83.117,238.110 83.278,237.988 83.474 C 237.867 83.670,238.203 83.940,238.736 84.074 C 239.269 84.208,239.942 84.548,240.232 84.830 C 240.522 85.113,241.552 85.578,242.521 85.864 C 243.490 86.150,244.539 86.639,244.851 86.952 C 245.163 87.264,245.584 87.418,245.786 87.293 C 245.989 87.168,246.154 87.234,246.154 87.440 C 246.154 87.647,246.693 88.039,247.353 88.312 C 248.012 88.585,248.551 88.945,248.551 89.113 C 248.551 89.280,248.956 89.514,249.451 89.631 C 251.000 90.000,253.140 90.881,254.250 91.609 C 254.836 91.993,255.503 92.308,255.730 92.308 C 255.958 92.308,256.144 92.488,256.144 92.707 C 256.144 92.927,256.493 93.107,256.919 93.107 C 257.346 93.107,257.806 93.287,257.942 93.506 C 258.078 93.726,258.538 93.906,258.965 93.906 C 259.391 93.906,259.740 94.086,259.740 94.306 C 259.740 94.525,260.111 94.705,260.563 94.705 C 261.016 94.705,261.275 94.885,261.139 95.105 C 260.995 95.338,261.401 95.504,262.114 95.504 C 262.787 95.504,263.337 95.684,263.337 95.904 C 263.337 96.124,263.696 96.304,264.136 96.304 C 264.575 96.304,264.935 96.484,264.935 96.703 C 264.935 96.923,265.295 97.103,265.734 97.103 C 266.174 97.103,266.533 97.283,266.533 97.502 C 266.533 97.722,266.893 97.902,267.333 97.902 C 267.772 97.902,268.133 98.037,268.135 98.202 C 268.139 98.561,270.074 99.500,270.809 99.500 C 271.095 99.500,271.329 99.680,271.329 99.900 C 271.329 100.120,271.598 100.300,271.928 100.300 C 272.258 100.300,272.527 100.480,272.527 100.699 C 272.527 100.919,272.738 101.099,272.995 101.099 C 273.717 101.099,278.921 103.633,278.921 103.984 C 278.921 104.156,279.281 104.296,279.720 104.296 C 280.160 104.296,280.519 104.476,280.519 104.695 C 280.519 104.915,280.771 105.095,281.078 105.095 C 281.660 105.095,285.916 107.230,286.804 107.967 C 287.084 108.200,287.313 108.242,287.313 108.061 C 287.313 107.880,287.528 107.948,287.792 108.212 C 288.056 108.476,288.595 108.691,288.991 108.691 C 289.387 108.691,289.710 108.871,289.710 109.091 C 289.710 109.311,290.070 109.491,290.509 109.491 C 290.949 109.491,291.309 109.670,291.309 109.890 C 291.309 110.110,291.668 110.290,292.108 110.290 C 292.547 110.290,292.907 110.470,292.907 110.689 C 292.907 110.909,293.267 111.089,293.706 111.089 C 294.146 111.089,294.505 111.269,294.505 111.489 C 294.505 111.708,294.865 111.888,295.305 111.888 C 295.744 111.888,296.104 112.068,296.104 112.288 C 296.104 112.507,296.464 112.687,296.903 112.687 C 297.343 112.687,297.702 112.867,297.702 113.087 C 297.702 113.307,298.047 113.487,298.468 113.487 C 298.889 113.487,299.294 113.622,299.367 113.788 C 299.441 113.954,300.759 114.717,302.298 115.485 C 303.836 116.252,305.155 117.015,305.228 117.181 C 305.301 117.347,305.706 117.483,306.127 117.483 C 306.548 117.483,306.893 117.662,306.893 117.882 C 306.893 118.102,307.253 118.282,307.692 118.282 C 308.132 118.282,308.492 118.462,308.492 118.681 C 308.492 118.901,308.635 119.036,308.810 118.981 C 309.205 118.857,313.037 120.767,313.220 121.179 C 313.293 121.344,313.687 121.479,314.096 121.479 C 314.504 121.479,314.957 121.671,315.102 121.905 C 315.247 122.140,315.626 122.232,315.945 122.110 C 316.264 121.987,316.427 122.046,316.307 122.240 C 316.043 122.666,317.205 123.172,317.718 122.855 C 317.918 122.731,318.082 122.910,318.082 123.253 C 318.082 123.596,318.217 123.838,318.382 123.791 C 318.546 123.745,319.090 123.933,319.589 124.209 C 320.088 124.486,320.700 124.586,320.949 124.432 C 321.227 124.261,321.292 124.331,321.117 124.614 C 320.937 124.905,321.135 125.075,321.655 125.075 C 322.107 125.075,322.478 125.255,322.478 125.475 C 322.478 125.694,322.837 125.874,323.277 125.874 C 323.716 125.874,324.076 126.010,324.076 126.176 C 324.076 126.772,326.642 127.289,327.572 126.879 C 328.067 126.662,328.472 126.347,328.472 126.179 C 328.472 126.011,328.831 125.874,329.271 125.874 C 329.710 125.874,330.070 125.694,330.070 125.475 C 330.070 125.255,330.430 125.075,330.869 125.075 C 331.309 125.075,331.668 124.884,331.668 124.652 C 331.668 124.419,331.848 124.340,332.068 124.476 C 332.288 124.611,332.468 124.532,332.468 124.299 C 332.468 124.067,332.827 123.876,333.267 123.876 C 333.706 123.876,334.066 123.720,334.066 123.528 C 334.066 123.337,334.920 122.945,335.964 122.658 C 337.008 122.370,338.132 121.851,338.462 121.504 C 338.791 121.157,339.600 120.626,340.260 120.324 C 340.919 120.022,342.112 119.439,342.912 119.028 C 343.711 118.618,344.655 118.282,345.009 118.282 C 345.364 118.282,345.654 118.114,345.654 117.908 C 345.654 117.702,346.284 117.307,347.053 117.029 C 347.822 116.750,348.452 116.379,348.452 116.203 C 348.452 116.028,348.721 115.884,349.051 115.884 C 349.381 115.884,349.650 115.704,349.650 115.485 C 349.650 115.265,350.021 115.085,350.473 115.085 C 350.926 115.085,351.185 114.905,351.049 114.685 C 350.909 114.459,351.245 114.286,351.825 114.286 C 352.387 114.286,352.849 114.151,352.850 113.986 C 352.854 113.627,354.789 112.687,355.524 112.687 C 355.810 112.687,356.044 112.519,356.044 112.314 C 356.044 112.108,356.673 111.712,357.443 111.434 C 358.212 111.156,358.841 110.785,358.841 110.609 C 358.841 110.433,359.201 110.290,359.640 110.290 C 360.080 110.290,360.440 110.110,360.440 109.890 C 360.440 109.670,360.722 109.491,361.068 109.491 C 361.691 109.491,362.837 108.584,362.837 108.092 C 362.837 107.599,361.691 106.693,361.068 106.693 C 360.722 106.693,360.440 106.513,360.440 106.294 C 360.440 106.074,360.080 105.894,359.640 105.894 C 359.201 105.894,358.841 105.714,358.841 105.495 C 358.841 105.275,358.571 105.095,358.242 105.095 C 357.912 105.095,357.642 104.915,357.642 104.695 C 357.642 104.476,357.193 104.296,356.643 104.296 C 356.094 104.296,355.644 104.149,355.644 103.971 C 355.644 103.792,355.015 103.399,354.246 103.097 C 353.477 102.795,352.847 102.402,352.847 102.223 C 352.847 102.044,352.488 101.898,352.048 101.898 C 351.608 101.898,351.249 101.718,351.249 101.499 C 351.249 101.279,350.889 101.099,350.450 101.099 C 350.010 101.099,349.650 100.919,349.650 100.699 C 349.650 100.480,349.398 100.300,349.089 100.300 C 348.423 100.300,345.114 98.633,344.922 98.202 C 344.848 98.037,344.478 97.902,344.098 97.902 C 343.718 97.902,343.044 97.563,342.599 97.149 C 342.155 96.735,341.187 96.264,340.449 96.102 C 339.710 95.939,338.877 95.604,338.598 95.356 C 337.167 94.087,336.802 93.906,335.669 93.906 C 334.946 93.906,334.346 93.660,334.210 93.307 C 334.084 92.977,333.640 92.707,333.224 92.707 C 332.808 92.707,332.468 92.527,332.468 92.308 C 332.468 92.088,332.108 91.908,331.668 91.908 C 331.229 91.908,330.869 91.728,330.869 91.508 C 330.869 91.289,330.509 91.109,330.070 91.109 C 329.630 91.109,329.271 90.929,329.271 90.709 C 329.271 90.490,329.037 90.310,328.751 90.310 C 328.016 90.310,326.081 89.370,326.077 89.011 C 326.075 88.846,325.808 88.711,325.484 88.711 C 324.881 88.711,320.587 86.531,319.900 85.876 C 319.691 85.677,319.096 85.514,318.578 85.514 C 318.051 85.514,317.744 85.338,317.882 85.115 C 318.018 84.895,317.849 84.715,317.506 84.715 C 317.163 84.715,316.883 84.535,316.883 84.316 C 316.883 84.096,316.410 83.916,315.831 83.916 C 315.252 83.916,314.467 83.556,314.086 83.117 C 313.705 82.677,312.919 82.278,312.341 82.230 C 311.762 82.183,311.289 82.036,311.289 81.905 C 311.289 81.561,308.120 79.920,307.455 79.920 C 307.146 79.920,306.893 79.740,306.893 79.520 C 306.893 79.301,306.620 79.121,306.286 79.121 C 305.952 79.121,304.966 78.671,304.096 78.122 C 303.226 77.572,302.240 77.123,301.906 77.123 C 301.572 77.123,301.299 76.943,301.299 76.723 C 301.299 76.503,301.065 76.324,300.779 76.324 C 300.044 76.324,298.109 75.384,298.105 75.025 C 298.103 74.860,297.850 74.725,297.543 74.725 C 297.236 74.725,295.959 74.186,294.705 73.526 C 293.452 72.867,292.248 72.328,292.030 72.328 C 291.813 72.328,291.177 71.968,290.619 71.528 C 290.060 71.089,289.350 70.729,289.040 70.729 C 288.731 70.729,288.092 70.370,287.620 69.930 C 287.148 69.491,286.473 69.131,286.118 69.131 C 285.764 69.131,285.304 68.975,285.095 68.785 C 284.406 68.158,280.307 66.058,278.801 65.561 C 277.988 65.292,277.323 64.888,277.323 64.662 C 277.323 64.435,277.066 64.349,276.752 64.469 C 276.439 64.589,275.967 64.429,275.705 64.112 C 275.442 63.796,274.979 63.536,274.676 63.536 C 274.374 63.536,274.126 63.394,274.126 63.220 C 274.126 63.046,273.307 62.684,272.307 62.416 C 271.054 62.081,270.576 61.776,270.772 61.434 C 270.929 61.162,270.916 61.066,270.744 61.222 C 270.572 61.377,269.741 61.152,268.898 60.722 C 268.054 60.292,267.088 59.940,266.749 59.940 C 266.411 59.940,266.134 59.760,266.134 59.540 C 266.134 59.321,265.774 59.141,265.335 59.141 C 264.895 59.141,264.535 58.961,264.535 58.741 C 264.535 58.521,264.176 58.342,263.736 58.342 C 263.297 58.342,262.936 58.207,262.934 58.042 C 262.930 57.683,260.995 56.743,260.260 56.743 C 259.974 56.743,259.740 56.597,259.740 56.418 C 259.740 56.239,259.111 55.846,258.342 55.544 C 257.572 55.243,256.943 54.849,256.943 54.671 C 256.943 54.492,256.583 54.346,256.144 54.346 C 255.704 54.346,255.345 54.166,255.345 53.946 C 255.345 53.726,254.884 53.546,254.322 53.546 C 253.742 53.546,253.406 53.373,253.546 53.147 C 253.682 52.927,253.423 52.747,252.971 52.747 C 252.518 52.747,252.148 52.567,252.148 52.348 C 252.148 52.128,251.788 51.948,251.349 51.948 C 250.909 51.948,250.549 51.768,250.549 51.548 C 250.549 51.329,250.190 51.149,249.750 51.149 C 249.311 51.149,248.951 50.969,248.951 50.749 C 248.951 50.529,248.501 50.350,247.952 50.350 C 247.403 50.350,246.953 50.191,246.953 49.997 C 246.953 49.640,245.657 49.087,244.555 48.975 C 244.226 48.941,244.001 48.697,244.056 48.433 C 244.111 48.168,243.807 47.952,243.380 47.952 C 242.954 47.952,242.492 47.769,242.354 47.546 C 242.216 47.323,241.935 47.243,241.731 47.370 C 241.526 47.496,241.359 47.319,241.359 46.977 C 241.359 46.634,241.083 46.354,240.746 46.354 C 240.409 46.354,239.246 45.904,238.162 45.355 C 237.078 44.805,235.915 44.356,235.578 44.356 C 235.241 44.356,234.965 44.176,234.965 43.956 C 234.965 43.736,234.605 43.556,234.166 43.556 C 233.726 43.556,233.367 43.377,233.367 43.157 C 233.367 42.937,233.097 42.757,232.767 42.757 C 232.438 42.757,232.168 42.597,232.168 42.402 C 232.168 42.206,231.359 41.807,230.370 41.515 C 229.381 41.223,228.571 40.877,228.571 40.747 C 228.571 40.616,227.942 40.262,227.173 39.960 C 226.404 39.658,225.774 39.265,225.774 39.086 C 225.774 38.907,225.540 38.761,225.254 38.761 C 224.519 38.761,222.584 37.821,222.581 37.463 C 222.579 37.298,222.218 37.163,221.778 37.163 C 221.339 37.163,220.979 36.983,220.979 36.763 C 220.979 36.543,220.745 36.364,220.459 36.364 C 219.724 36.364,217.789 35.424,217.785 35.065 C 217.784 34.900,217.433 34.765,217.007 34.765 C 216.580 34.765,216.120 34.585,215.984 34.366 C 215.848 34.146,215.388 33.966,214.961 33.966 C 214.535 33.966,214.186 33.786,214.186 33.566 C 214.186 33.347,213.909 33.167,213.570 33.167 C 213.231 33.167,212.567 32.807,212.096 32.367 C 211.624 31.928,210.957 31.613,210.614 31.668 C 210.271 31.723,210.035 31.543,210.090 31.269 C 210.145 30.994,209.830 30.769,209.391 30.769 C 208.951 30.769,208.591 30.579,208.591 30.346 C 208.591 30.113,208.441 30.016,208.257 30.129 C 208.073 30.243,207.092 29.894,206.078 29.354 C 205.063 28.814,203.976 28.372,203.664 28.372 C 203.351 28.372,202.871 28.102,202.597 27.772 C 201.730 26.727,199.060 27.057,196.056 28.579 M37.163 208.612 C 37.163 297.212,37.072 292.907,38.932 292.907 C 39.278 292.907,39.560 293.087,39.560 293.307 C 39.560 293.526,39.920 293.706,40.360 293.706 C 40.799 293.706,41.159 293.886,41.159 294.106 C 41.159 294.326,41.574 294.505,42.082 294.505 C 42.591 294.505,43.392 294.865,43.864 295.305 C 44.336 295.744,45.100 296.104,45.561 296.104 C 46.023 296.104,46.290 296.284,46.154 296.503 C 46.018 296.723,46.262 296.903,46.696 296.903 C 47.131 296.903,47.548 297.091,47.625 297.320 C 47.701 297.550,48.158 297.768,48.640 297.804 C 49.122 297.840,49.431 297.955,49.326 298.060 C 49.120 298.266,52.676 300.039,53.371 300.077 C 53.604 300.090,54.185 300.463,54.662 300.907 C 55.139 301.352,55.628 301.699,55.749 301.679 C 56.128 301.616,58.344 302.621,62.623 304.795 C 64.893 305.949,66.989 306.893,67.280 306.893 C 67.570 306.893,68.104 307.220,68.465 307.619 C 68.826 308.018,70.023 308.590,71.124 308.890 C 72.226 309.190,73.127 309.582,73.127 309.763 C 73.127 309.943,73.487 310.090,73.926 310.090 C 74.366 310.090,74.726 310.225,74.727 310.390 C 74.727 310.554,75.716 311.139,76.923 311.688 C 78.130 312.238,79.119 312.822,79.119 312.987 C 79.120 313.152,79.481 313.287,79.920 313.287 C 80.360 313.287,80.719 313.467,80.719 313.686 C 80.719 313.906,81.079 314.086,81.518 314.086 C 81.958 314.086,82.318 314.266,82.318 314.486 C 82.318 314.705,82.677 314.885,83.117 314.885 C 83.556 314.885,83.916 315.065,83.916 315.285 C 83.916 315.504,84.276 315.684,84.715 315.684 C 85.155 315.684,85.514 315.864,85.514 316.084 C 85.514 316.304,85.964 316.484,86.513 316.484 C 87.063 316.484,87.512 316.663,87.512 316.883 C 87.512 317.103,87.782 317.283,88.112 317.283 C 88.442 317.283,88.711 317.463,88.711 317.682 C 88.711 317.902,89.056 318.082,89.477 318.082 C 89.898 318.082,90.303 318.218,90.376 318.383 C 90.450 318.549,91.768 319.313,93.307 320.080 C 94.845 320.847,96.164 321.611,96.237 321.776 C 96.310 321.942,96.685 322.078,97.070 322.078 C 97.454 322.078,97.904 322.213,98.069 322.378 C 98.233 322.542,98.488 322.685,98.635 322.694 C 98.781 322.703,99.477 323.018,100.180 323.393 C 100.883 323.769,101.737 324.076,102.078 324.076 C 102.419 324.076,102.697 324.256,102.697 324.476 C 102.697 324.695,103.057 324.875,103.497 324.875 C 103.936 324.875,104.296 325.055,104.296 325.275 C 104.296 325.495,104.640 325.674,105.062 325.674 C 105.483 325.674,105.887 325.810,105.961 325.976 C 106.034 326.142,107.353 326.905,108.891 327.672 C 110.430 328.440,111.748 329.203,111.822 329.369 C 111.895 329.535,112.299 329.670,112.721 329.670 C 113.142 329.670,113.487 329.850,113.487 330.070 C 113.487 330.290,113.947 330.470,114.509 330.470 C 115.089 330.470,115.425 330.642,115.285 330.869 C 115.149 331.089,115.282 331.269,115.581 331.269 C 116.335 331.269,118.275 332.203,118.279 332.567 C 118.280 332.732,118.641 332.867,119.081 332.867 C 119.520 332.867,119.880 333.047,119.880 333.267 C 119.880 333.487,120.240 333.666,120.679 333.666 C 121.119 333.666,121.479 333.846,121.479 334.066 C 121.479 334.286,121.748 334.466,122.078 334.466 C 122.408 334.466,122.677 334.645,122.677 334.865 C 122.677 335.085,123.054 335.265,123.515 335.265 C 123.975 335.265,124.829 335.586,125.413 335.978 C 125.996 336.371,127.013 336.955,127.672 337.277 C 128.332 337.598,128.961 337.952,129.071 338.063 C 129.524 338.523,132.293 339.292,132.665 339.062 C 132.886 338.926,133.067 339.094,133.067 339.437 C 133.067 339.780,133.202 340.073,133.367 340.090 C 134.669 340.219,135.686 340.545,135.798 340.871 C 135.871 341.084,136.185 341.259,136.497 341.259 C 136.808 341.259,137.063 341.439,137.063 341.658 C 137.063 341.878,137.333 342.058,137.662 342.058 C 137.992 342.058,138.262 342.238,138.262 342.458 C 138.262 342.677,138.537 342.857,138.874 342.857 C 139.770 342.857,145.074 345.502,144.776 345.800 C 144.636 345.940,145.092 346.054,145.788 346.054 C 146.484 346.054,147.054 346.189,147.054 346.354 C 147.055 346.518,148.044 347.103,149.251 347.652 C 150.458 348.202,151.446 348.786,151.447 348.951 C 151.448 349.116,151.718 349.251,152.048 349.251 C 152.378 349.251,152.647 349.431,152.647 349.650 C 152.647 349.870,152.971 350.050,153.367 350.050 C 153.762 350.050,154.257 350.215,154.466 350.418 C 155.320 351.245,159.442 353.127,159.468 352.701 C 159.482 352.452,159.693 352.660,159.936 353.163 C 160.188 353.687,160.610 353.989,160.923 353.869 C 161.223 353.754,161.571 353.925,161.695 354.250 C 161.820 354.575,162.091 354.736,162.297 354.609 C 162.504 354.481,162.969 354.617,163.331 354.911 C 163.893 355.366,163.940 355.357,163.654 354.845 C 163.470 354.515,163.716 354.654,164.201 355.154 C 164.686 355.653,165.252 355.957,165.458 355.829 C 165.665 355.702,165.834 355.798,165.834 356.044 C 165.834 356.290,165.994 356.392,166.188 356.272 C 166.383 356.151,166.765 356.321,167.037 356.648 C 167.308 356.975,167.778 357.243,168.081 357.243 C 168.384 357.243,168.631 357.453,168.631 357.709 C 168.631 357.965,168.748 358.059,168.890 357.916 C 169.161 357.646,172.330 359.220,172.561 359.740 C 172.634 359.905,173.095 360.040,173.584 360.040 C 174.074 360.040,174.861 360.400,175.333 360.839 C 175.804 361.279,176.462 361.638,176.794 361.638 C 177.126 361.638,178.033 361.998,178.809 362.438 C 179.585 362.877,180.855 363.596,181.631 364.036 C 182.406 364.476,183.306 364.835,183.629 364.835 C 183.952 364.835,184.217 364.970,184.219 365.135 C 184.222 365.473,186.140 366.434,186.813 366.434 C 187.055 366.434,187.478 366.658,187.752 366.933 C 188.027 367.208,188.378 367.457,188.531 367.486 C 189.576 367.687,190.609 368.180,190.609 368.478 C 190.609 368.672,190.874 368.831,191.197 368.831 C 191.520 368.831,192.420 369.188,193.198 369.625 C 193.975 370.062,194.655 370.420,194.708 370.421 C 195.231 370.433,197.403 371.477,197.403 371.716 C 197.403 371.888,197.672 372.028,198.002 372.028 C 198.332 372.028,198.602 372.163,198.602 372.328 C 198.603 373.079,201.892 372.842,202.586 372.041 C 202.974 371.594,203.559 371.229,203.887 371.229 C 204.215 371.229,205.124 370.795,205.906 370.264 C 206.688 369.733,207.432 369.404,207.560 369.531 C 207.688 369.659,207.792 369.554,207.792 369.297 C 207.792 369.041,208.107 368.830,208.492 368.830 C 208.876 368.829,209.780 368.469,210.499 368.030 C 211.219 367.592,212.123 367.233,212.509 367.233 C 212.895 367.233,213.469 366.873,213.786 366.434 C 214.103 365.994,214.592 365.634,214.873 365.634 C 215.155 365.634,215.385 365.494,215.385 365.322 C 215.385 365.150,215.879 364.969,216.484 364.919 C 217.088 364.869,217.642 364.650,217.716 364.432 C 217.789 364.214,218.104 364.036,218.415 364.036 C 218.726 364.036,218.981 363.856,218.981 363.636 C 218.981 363.417,219.416 363.237,219.947 363.237 C 220.478 363.237,220.972 363.102,221.046 362.937 C 221.237 362.505,224.547 360.839,225.213 360.839 C 225.521 360.839,225.774 360.659,225.774 360.440 C 225.774 360.220,226.134 360.040,226.573 360.040 C 227.013 360.040,227.373 359.860,227.373 359.640 C 227.373 359.421,227.732 359.241,228.172 359.241 C 228.611 359.241,228.971 359.061,228.971 358.841 C 228.971 358.621,229.341 358.442,229.794 358.442 C 230.246 358.442,230.505 358.262,230.370 358.042 C 230.234 357.822,230.493 357.642,230.945 357.642 C 231.398 357.642,231.768 357.479,231.768 357.280 C 231.768 357.081,232.128 357.012,232.567 357.127 C 233.007 357.242,233.367 357.157,233.367 356.938 C 233.367 356.523,235.742 355.384,236.264 355.549 C 236.429 355.602,236.563 355.465,236.563 355.245 C 236.563 355.025,236.846 354.845,237.191 354.845 C 237.537 354.845,238.089 354.576,238.418 354.246 C 238.747 353.917,239.499 353.530,240.088 353.386 C 240.677 353.242,241.249 353.017,241.359 352.886 C 241.754 352.414,243.358 351.648,243.951 351.648 C 244.283 351.648,244.555 351.469,244.555 351.249 C 244.555 351.029,244.896 350.849,245.312 350.849 C 245.728 350.849,246.172 350.578,246.300 350.246 C 246.427 349.914,246.671 349.664,246.842 349.690 C 247.450 349.782,248.951 349.152,248.951 348.805 C 248.951 348.610,249.311 348.452,249.750 348.452 C 250.190 348.452,250.551 348.317,250.553 348.152 C 250.556 347.793,252.491 346.853,253.227 346.853 C 253.512 346.853,253.746 346.673,253.746 346.454 C 253.746 346.234,254.091 346.054,254.512 346.054 C 254.933 346.054,255.338 345.919,255.411 345.754 C 255.599 345.331,260.538 342.857,261.195 342.857 C 261.494 342.857,261.738 342.677,261.738 342.458 C 261.738 342.238,262.098 342.058,262.537 342.058 C 262.977 342.058,263.337 341.886,263.337 341.676 C 263.337 341.467,263.966 341.177,264.735 341.033 C 265.504 340.888,266.134 340.615,266.134 340.426 C 266.134 340.092,269.860 338.322,270.326 338.434 C 270.454 338.465,270.836 338.212,271.175 337.873 C 271.515 337.533,271.958 337.358,272.160 337.482 C 272.362 337.607,272.527 337.519,272.527 337.286 C 272.527 337.054,272.887 336.863,273.327 336.863 C 273.766 336.863,274.127 336.728,274.129 336.563 C 274.133 336.205,276.068 335.265,276.803 335.265 C 277.089 335.265,277.323 335.114,277.323 334.929 C 277.323 334.486,279.151 333.666,280.139 333.666 C 280.568 333.666,280.919 333.487,280.919 333.267 C 280.919 333.047,281.174 332.867,281.485 332.867 C 281.797 332.867,282.111 332.732,282.184 332.567 C 282.258 332.403,283.936 331.487,285.914 330.532 C 287.892 329.578,289.870 328.600,290.310 328.360 C 292.275 327.284,295.753 325.674,296.110 325.674 C 296.327 325.674,296.503 325.495,296.503 325.275 C 296.503 325.055,296.863 324.875,297.303 324.875 C 297.742 324.875,298.102 324.685,298.102 324.452 C 298.102 324.219,298.261 324.127,298.456 324.248 C 298.651 324.368,299.025 324.208,299.287 323.892 C 299.550 323.576,300.424 323.101,301.231 322.836 C 302.037 322.571,303.368 321.933,304.188 321.417 C 305.008 320.901,305.847 320.480,306.053 320.480 C 306.258 320.480,306.518 320.255,306.628 319.980 C 306.783 319.598,306.837 319.605,306.862 320.007 C 306.884 320.381,307.230 320.294,308.054 319.708 C 308.692 319.253,309.411 318.881,309.652 318.881 C 309.893 318.881,310.090 318.701,310.090 318.482 C 310.090 318.262,310.439 318.082,310.866 318.082 C 311.292 318.082,311.752 317.902,311.888 317.682 C 312.024 317.463,312.444 317.283,312.822 317.283 C 313.201 317.283,313.769 316.923,314.086 316.484 C 314.403 316.044,315.082 315.684,315.596 315.684 C 316.117 315.684,316.421 315.508,316.284 315.285 C 316.148 315.065,316.407 314.885,316.860 314.885 C 317.312 314.885,317.682 314.695,317.682 314.462 C 317.682 314.229,317.848 314.141,318.050 314.266 C 318.252 314.391,318.711 314.199,319.070 313.840 C 319.429 313.481,320.152 313.187,320.677 313.187 C 321.202 313.187,321.730 312.928,321.852 312.612 C 321.973 312.296,322.253 312.149,322.475 312.286 C 322.696 312.423,322.879 312.389,322.880 312.211 C 322.884 311.834,324.795 310.889,325.554 310.889 C 325.840 310.889,326.074 310.709,326.074 310.490 C 326.074 310.270,326.523 310.090,327.073 310.090 C 327.622 310.090,328.072 309.910,328.072 309.690 C 328.072 309.471,328.342 309.291,328.671 309.291 C 329.001 309.291,329.271 309.111,329.271 308.891 C 329.271 308.671,329.615 308.492,330.037 308.492 C 330.458 308.492,330.872 308.283,330.957 308.029 C 331.042 307.774,331.543 307.500,332.072 307.419 C 332.600 307.338,333.169 307.052,333.336 306.783 C 333.503 306.514,333.870 306.272,334.153 306.246 C 336.005 306.072,337.288 305.537,337.089 305.020 C 336.970 304.709,337.045 304.561,337.256 304.691 C 337.466 304.821,338.161 304.658,338.799 304.328 C 339.437 303.998,340.071 303.811,340.209 303.912 C 340.347 304.013,340.373 303.980,340.268 303.838 C 340.046 303.538,343.533 301.698,344.323 301.698 C 344.616 301.698,344.855 301.518,344.855 301.299 C 344.855 301.079,345.215 300.899,345.654 300.899 C 346.094 300.899,346.454 300.719,346.454 300.500 C 346.454 300.280,346.813 300.100,347.253 300.100 C 347.692 300.100,348.052 299.920,348.052 299.700 C 348.052 299.481,348.412 299.301,348.851 299.301 C 349.291 299.301,349.650 299.121,349.650 298.901 C 349.650 298.681,350.010 298.501,350.450 298.501 C 350.889 298.501,351.249 298.322,351.249 298.102 C 351.249 297.882,351.608 297.702,352.048 297.702 C 352.488 297.702,352.848 297.567,352.849 297.403 C 352.849 297.238,353.838 296.653,355.045 296.104 C 356.252 295.554,357.241 294.970,357.241 294.805 C 357.242 294.640,357.512 294.505,357.842 294.505 C 358.172 294.505,358.442 294.326,358.442 294.106 C 358.442 293.886,358.891 293.706,359.441 293.706 C 359.990 293.706,360.440 293.526,360.440 293.307 C 360.440 293.087,360.722 292.907,361.068 292.907 C 362.928 292.907,362.837 297.212,362.837 208.620 C 362.837 134.979,362.769 125.475,362.238 125.475 C 361.908 125.475,361.638 125.665,361.638 125.898 C 361.638 126.130,361.473 126.219,361.271 126.094 C 361.069 125.969,360.629 126.141,360.293 126.477 C 359.958 126.813,359.539 127.048,359.362 126.999 C 359.185 126.951,358.277 127.311,357.343 127.799 C 356.409 128.288,355.644 128.581,355.644 128.451 C 355.644 128.321,355.360 128.499,355.013 128.846 C 354.665 129.194,354.216 129.376,354.014 129.251 C 353.812 129.126,353.646 129.214,353.646 129.447 C 353.646 129.680,353.287 129.870,352.847 129.870 C 352.408 129.870,352.048 130.028,352.048 130.221 C 352.048 130.414,351.508 130.796,350.849 131.069 C 350.190 131.342,349.650 131.685,349.650 131.832 C 349.650 131.978,349.248 132.128,348.757 132.165 C 348.266 132.202,347.801 132.420,347.725 132.650 C 347.648 132.879,347.230 133.067,346.796 133.067 C 346.362 133.067,346.118 133.247,346.254 133.467 C 346.393 133.692,346.069 133.866,345.511 133.866 C 344.967 133.866,344.462 134.012,344.389 134.191 C 344.316 134.370,342.727 135.283,340.859 136.219 C 338.991 137.155,337.292 138.088,337.083 138.291 C 336.874 138.495,336.279 138.661,335.761 138.661 C 335.234 138.661,334.927 138.838,335.065 139.061 C 335.201 139.281,335.032 139.461,334.689 139.461 C 334.346 139.461,334.066 139.640,334.066 139.860 C 334.066 140.080,333.706 140.260,333.267 140.260 C 332.827 140.260,332.468 140.440,332.468 140.659 C 332.468 140.879,332.108 141.059,331.668 141.059 C 331.229 141.059,330.869 141.239,330.869 141.459 C 330.869 141.678,330.619 141.858,330.312 141.858 C 329.287 141.858,329.271 142.892,329.265 206.726 C 329.261 241.708,329.126 270.524,328.965 270.761 C 328.803 270.999,328.100 271.441,327.401 271.745 C 326.703 272.049,326.236 272.467,326.364 272.674 C 326.492 272.881,326.421 272.942,326.205 272.808 C 325.989 272.675,324.942 273.007,323.878 273.546 C 322.813 274.085,321.703 274.525,321.411 274.525 C 321.118 274.525,320.879 274.705,320.879 274.925 C 320.879 275.145,320.530 275.325,320.104 275.325 C 319.677 275.325,319.215 275.507,319.077 275.731 C 318.939 275.954,318.691 276.054,318.527 275.952 C 318.362 275.850,317.743 276.216,317.151 276.765 C 316.559 277.314,315.895 277.653,315.677 277.518 C 315.458 277.383,315.179 277.533,315.056 277.853 C 314.924 278.196,314.518 278.351,314.060 278.231 C 313.635 278.120,313.287 278.229,313.287 278.475 C 313.287 278.720,313.017 278.921,312.687 278.921 C 312.358 278.921,312.088 279.101,312.088 279.321 C 312.088 279.540,311.739 279.720,311.312 279.720 C 310.886 279.720,310.426 279.900,310.290 280.120 C 310.154 280.340,309.771 280.519,309.438 280.519 C 309.106 280.519,308.563 280.791,308.231 281.123 C 307.899 281.454,307.463 281.623,307.260 281.499 C 307.058 281.374,306.893 281.462,306.893 281.695 C 306.893 281.927,306.533 282.118,306.094 282.118 C 305.654 282.118,305.295 282.298,305.295 282.517 C 305.295 282.737,304.935 282.917,304.496 282.917 C 304.056 282.917,303.696 283.097,303.696 283.317 C 303.696 283.536,303.356 283.716,302.940 283.716 C 302.524 283.716,302.081 283.983,301.956 284.309 C 301.827 284.646,301.464 284.800,301.114 284.666 C 300.776 284.536,300.500 284.629,300.500 284.872 C 300.500 285.116,300.230 285.315,299.900 285.315 C 299.570 285.315,299.301 285.495,299.301 285.714 C 299.301 285.934,298.941 286.114,298.501 286.114 C 298.062 286.114,297.702 286.294,297.702 286.513 C 297.702 286.733,297.343 286.913,296.903 286.913 C 296.464 286.913,296.104 287.093,296.104 287.313 C 296.104 287.532,295.744 287.712,295.305 287.712 C 294.865 287.712,294.505 287.892,294.505 288.112 C 294.505 288.332,294.146 288.511,293.706 288.511 C 293.267 288.511,292.907 288.691,292.907 288.911 C 292.907 289.131,292.547 289.311,292.108 289.311 C 291.668 289.311,291.309 289.491,291.309 289.710 C 291.309 289.930,290.949 290.110,290.509 290.110 C 290.070 290.110,289.709 290.245,289.707 290.410 C 289.703 290.768,287.768 291.708,287.033 291.708 C 286.747 291.708,286.513 291.888,286.513 292.108 C 286.513 292.328,286.169 292.507,285.748 292.507 C 285.326 292.507,284.922 292.642,284.848 292.807 C 284.666 293.218,281.828 294.505,281.105 294.505 C 280.783 294.505,280.519 294.685,280.519 294.905 C 280.519 295.125,280.175 295.305,279.754 295.305 C 279.332 295.305,278.928 295.455,278.854 295.639 C 278.690 296.052,270.489 300.100,269.817 300.100 C 269.549 300.100,269.331 300.280,269.331 300.500 C 269.331 300.719,269.061 300.899,268.731 300.899 C 268.402 300.899,268.132 301.079,268.132 301.299 C 268.132 301.518,267.772 301.698,267.333 301.698 C 266.893 301.698,266.533 301.878,266.533 302.098 C 266.533 302.318,266.174 302.498,265.734 302.498 C 265.295 302.498,264.935 302.677,264.935 302.897 C 264.935 303.117,264.590 303.297,264.169 303.297 C 263.748 303.297,263.336 303.499,263.253 303.746 C 263.171 303.994,262.617 304.196,262.021 304.196 C 261.426 304.196,260.939 304.353,260.939 304.545 C 260.939 304.738,260.669 304.895,260.340 304.895 C 260.010 304.895,259.740 305.075,259.740 305.295 C 259.740 305.514,259.506 305.694,259.221 305.694 C 258.485 305.694,256.550 306.634,256.547 306.993 C 256.545 307.158,256.184 307.293,255.744 307.293 C 255.305 307.293,254.945 307.473,254.945 307.692 C 254.945 307.912,254.496 308.092,253.946 308.092 C 253.397 308.092,252.947 308.237,252.947 308.415 C 252.947 308.775,249.721 310.313,249.251 310.177 C 249.086 310.129,248.951 310.250,248.951 310.446 C 248.951 310.642,248.501 310.915,247.952 311.053 C 247.403 311.191,246.953 311.491,246.953 311.720 C 246.953 311.948,246.792 312.036,246.595 311.914 C 246.399 311.792,246.136 311.959,246.011 312.283 C 245.882 312.619,245.519 312.772,245.170 312.638 C 244.832 312.508,244.555 312.601,244.555 312.844 C 244.555 313.088,244.421 313.258,244.256 313.222 C 243.764 313.116,241.740 314.044,240.435 314.974 C 239.732 315.474,239.359 315.597,239.553 315.263 C 239.738 314.945,239.444 315.090,238.900 315.584 C 238.356 316.079,237.467 316.484,236.926 316.484 C 236.384 316.484,235.681 316.843,235.365 317.283 C 235.048 317.722,234.368 318.082,233.854 318.082 C 233.333 318.082,233.029 318.259,233.167 318.482 C 233.303 318.701,233.044 318.881,232.591 318.881 C 232.138 318.881,231.768 319.061,231.768 319.281 C 231.768 319.500,231.398 319.680,230.945 319.680 C 230.493 319.680,230.234 319.860,230.370 320.080 C 230.505 320.300,230.372 320.480,230.073 320.480 C 229.320 320.480,227.380 321.414,227.376 321.778 C 227.374 321.943,226.916 322.078,226.357 322.078 C 225.798 322.078,224.955 322.438,224.483 322.877 C 224.012 323.317,223.300 323.676,222.902 323.676 C 222.504 323.676,222.178 323.856,222.178 324.076 C 222.178 324.296,221.728 324.476,221.179 324.476 C 220.629 324.476,220.180 324.655,220.180 324.875 C 220.180 325.095,219.820 325.275,219.381 325.275 C 218.941 325.275,218.581 325.411,218.581 325.577 C 218.581 325.743,218.041 326.118,217.380 326.410 C 216.720 326.703,216.280 327.104,216.402 327.303 C 216.525 327.501,216.347 327.557,216.008 327.426 C 215.638 327.284,215.288 327.459,215.133 327.864 C 214.954 328.329,214.785 328.394,214.588 328.076 C 214.382 327.742,214.127 327.788,213.673 328.242 C 213.327 328.588,212.772 328.871,212.440 328.871 C 212.107 328.871,211.724 329.051,211.588 329.271 C 211.453 329.491,210.903 329.670,210.366 329.670 C 209.830 329.670,209.391 329.850,209.391 330.070 C 209.391 330.290,209.157 330.470,208.871 330.470 C 208.585 330.470,208.127 330.694,207.852 330.969 C 207.577 331.244,207.227 331.476,207.073 331.485 C 206.481 331.521,203.981 333.000,203.697 333.484 C 203.533 333.763,203.038 333.897,202.598 333.782 C 202.151 333.665,201.798 333.770,201.798 334.019 C 201.798 334.265,201.454 334.466,201.032 334.466 C 200.611 334.466,200.176 334.690,200.065 334.965 C 199.904 335.365,199.857 335.365,199.832 334.965 C 199.814 334.690,199.441 334.466,199.001 334.466 C 198.561 334.466,198.202 334.286,198.202 334.066 C 198.202 333.846,197.932 333.666,197.602 333.666 C 197.273 333.666,197.003 333.487,197.003 333.267 C 197.003 333.047,196.750 332.867,196.441 332.867 C 195.774 332.867,192.466 331.200,192.274 330.767 C 192.200 330.601,191.990 330.557,191.806 330.671 C 191.623 330.784,191.189 330.592,190.841 330.245 C 190.494 329.897,190.210 329.720,190.210 329.850 C 190.210 329.980,189.446 329.687,188.511 329.198 C 187.577 328.710,186.673 328.348,186.502 328.394 C 186.331 328.441,186.087 328.208,185.960 327.876 C 185.833 327.544,185.433 327.267,185.072 327.260 C 184.711 327.253,184.067 326.983,183.640 326.661 C 183.213 326.338,182.539 326.074,182.141 326.074 C 181.744 326.074,181.419 325.894,181.419 325.674 C 181.419 325.455,181.059 325.275,180.619 325.275 C 180.180 325.275,179.820 325.095,179.820 324.875 C 179.820 324.655,179.461 324.476,179.021 324.476 C 178.581 324.476,178.222 324.296,178.222 324.076 C 178.222 323.856,177.988 323.676,177.702 323.676 C 176.967 323.676,175.032 322.736,175.028 322.378 C 175.026 322.213,174.665 322.078,174.226 322.078 C 173.786 322.078,173.427 321.898,173.427 321.678 C 173.427 321.459,172.977 321.279,172.428 321.279 C 171.878 321.279,171.429 321.099,171.429 320.879 C 171.429 320.659,171.058 320.480,170.606 320.480 C 170.153 320.480,169.894 320.300,170.030 320.080 C 170.166 319.860,169.907 319.680,169.454 319.680 C 169.002 319.680,168.631 319.500,168.631 319.281 C 168.631 319.061,168.261 318.881,167.809 318.881 C 167.356 318.881,167.097 318.701,167.233 318.482 C 167.369 318.262,167.109 318.082,166.657 318.082 C 166.204 318.082,165.834 317.902,165.834 317.682 C 165.834 317.463,165.475 317.283,165.035 317.283 C 164.595 317.283,164.236 317.103,164.236 316.883 C 164.236 316.663,163.964 316.484,163.631 316.484 C 162.955 316.484,161.378 315.676,160.979 315.127 C 160.837 314.930,160.458 314.869,160.138 314.992 C 159.819 315.115,159.089 314.781,158.517 314.251 C 157.945 313.721,157.200 313.287,156.861 313.287 C 156.521 313.287,156.244 313.107,156.244 312.887 C 156.244 312.667,156.109 312.530,155.944 312.583 C 155.455 312.737,153.047 311.622,153.047 311.240 C 153.047 311.047,152.698 310.889,152.271 310.889 C 151.845 310.889,151.383 310.706,151.245 310.483 C 151.107 310.260,150.826 310.180,150.622 310.307 C 150.417 310.433,150.250 310.346,150.250 310.113 C 150.250 309.881,149.890 309.690,149.451 309.690 C 149.011 309.690,148.651 309.510,148.651 309.291 C 148.651 309.071,148.292 308.891,147.852 308.891 C 147.413 308.891,147.053 308.711,147.053 308.492 C 147.053 308.272,146.781 308.092,146.448 308.092 C 146.115 308.092,145.531 307.933,145.149 307.739 C 144.768 307.545,143.916 307.140,143.257 306.840 C 142.597 306.540,141.968 306.205,141.858 306.095 C 141.748 305.984,140.717 305.445,139.567 304.895 C 138.416 304.346,137.472 303.761,137.469 303.596 C 137.465 303.432,137.047 303.297,136.539 303.297 C 136.031 303.297,135.229 302.937,134.757 302.498 C 134.286 302.058,133.712 301.698,133.483 301.698 C 133.254 301.698,133.067 301.518,133.067 301.299 C 133.067 301.079,132.651 300.899,132.143 300.899 C 131.635 300.899,130.834 300.539,130.362 300.100 C 129.890 299.660,129.147 299.301,128.712 299.301 C 128.276 299.301,127.808 299.121,127.672 298.901 C 127.536 298.681,127.153 298.501,126.821 298.501 C 126.489 298.501,125.947 298.232,125.618 297.903 C 125.288 297.573,124.537 297.185,123.948 297.040 C 123.359 296.894,122.586 296.444,122.231 296.040 C 121.875 295.636,121.291 295.305,120.932 295.305 C 120.573 295.305,120.280 295.131,120.280 294.918 C 120.280 294.705,120.028 294.627,119.721 294.745 C 119.413 294.863,119.041 294.765,118.894 294.526 C 118.747 294.288,118.459 294.196,118.254 294.323 C 118.050 294.449,117.882 294.375,117.882 294.159 C 117.882 293.714,115.647 292.507,114.824 292.507 C 114.528 292.507,114.286 292.328,114.286 292.108 C 114.286 291.888,114.014 291.708,113.681 291.708 C 113.348 291.708,112.764 291.543,112.382 291.342 C 112.001 291.141,111.104 290.759,110.390 290.494 C 109.675 290.230,109.091 289.855,109.091 289.662 C 109.091 289.469,108.821 289.311,108.492 289.311 C 108.162 289.311,107.892 289.131,107.892 288.911 C 107.892 288.691,107.751 288.556,107.578 288.611 C 107.247 288.717,101.840 286.109,101.499 285.679 C 101.389 285.540,100.616 285.183,99.783 284.885 C 98.949 284.586,97.922 284.022,97.502 283.630 C 97.081 283.238,96.316 282.917,95.801 282.917 C 95.286 282.917,94.664 282.716,94.419 282.471 C 93.887 281.939,92.612 281.200,90.723 280.328 C 89.962 279.977,89.239 279.528,89.117 279.331 C 88.996 279.134,88.445 278.913,87.893 278.839 C 87.341 278.765,86.176 278.270,85.303 277.739 C 84.430 277.208,83.505 276.812,83.247 276.859 C 82.989 276.906,82.663 276.760,82.524 276.534 C 82.385 276.308,81.999 276.124,81.666 276.124 C 81.334 276.124,80.790 275.852,80.459 275.521 C 80.127 275.189,79.690 275.020,79.488 275.145 C 79.286 275.270,79.121 275.181,79.121 274.949 C 79.121 274.716,78.887 274.525,78.601 274.525 C 77.866 274.525,75.931 273.586,75.927 273.227 C 75.925 273.062,75.690 272.927,75.404 272.927 C 74.669 272.927,72.734 271.987,72.730 271.628 C 72.729 271.464,72.413 271.329,72.028 271.329 C 71.364 271.329,71.334 268.019,71.432 206.593 C 71.524 148.896,71.470 141.858,70.928 141.858 C 70.169 141.858,66.581 140.210,66.400 139.779 C 66.327 139.604,66.012 139.461,65.701 139.461 C 65.390 139.461,65.135 139.281,65.135 139.061 C 65.135 138.841,64.635 138.661,64.024 138.661 C 63.372 138.661,62.676 138.331,62.338 137.862 C 62.021 137.423,61.567 137.063,61.330 137.063 C 60.664 137.063,58.748 136.101,58.744 135.764 C 58.743 135.599,58.382 135.465,57.942 135.465 C 57.502 135.465,57.143 135.285,57.143 135.065 C 57.143 134.845,56.873 134.665,56.543 134.665 C 56.214 134.665,55.944 134.486,55.944 134.266 C 55.944 134.046,55.584 133.866,55.145 133.866 C 54.705 133.866,54.346 133.686,54.346 133.467 C 54.346 133.247,53.889 133.067,53.330 133.067 C 52.771 133.067,51.935 132.714,51.471 132.282 C 51.008 131.850,50.474 131.591,50.286 131.707 C 50.098 131.824,49.837 131.638,49.705 131.294 C 49.573 130.950,49.246 130.669,48.979 130.669 C 48.712 130.669,47.380 130.130,46.018 129.471 C 44.657 128.811,43.367 128.272,43.150 128.272 C 42.934 128.272,42.757 128.092,42.757 127.872 C 42.757 127.652,42.500 127.473,42.186 127.473 C 41.872 127.473,41.378 127.238,41.087 126.951 C 40.494 126.364,39.399 125.886,38.062 125.631 L 37.163 125.459 37.163 208.612 " stroke="none" fill="#4484f4" fill-rule="evenodd"></path><path id="path3" d="" stroke="none" fill="#94d0f8" fill-rule="evenodd"></path><path id="path4" d="" stroke="none" fill="#608cf8" fill-rule="evenodd"></path><path id="path5" d="" stroke="none" fill="#4490f8" fill-rule="evenodd"></path><path id="path6" d="M277.323 64.746 C 277.323 65.093,278.874 65.715,279.122 65.467 C 279.199 65.390,278.826 65.120,278.293 64.869 C 277.759 64.617,277.323 64.562,277.323 64.746 M218.608 74.158 C 218.867 74.470,219.363 74.725,219.709 74.725 C 220.519 74.725,219.697 73.820,218.763 73.682 C 218.266 73.610,218.234 73.707,218.608 74.158 M148.252 90.166 C 148.252 90.380,147.757 90.763,147.153 91.017 C 146.153 91.437,146.144 91.458,147.053 91.249 C 148.237 90.977,148.906 90.431,148.525 90.050 C 148.375 89.900,148.252 89.952,148.252 90.166 M334.466 93.506 C 334.466 93.726,334.735 93.906,335.065 93.906 C 335.395 93.906,335.664 93.726,335.664 93.506 C 335.664 93.287,335.395 93.107,335.065 93.107 C 334.735 93.107,334.466 93.287,334.466 93.506 M101.842 113.477 L 100.899 114.267 101.995 113.777 C 102.598 113.507,103.092 113.152,103.094 112.987 C 103.099 112.528,102.868 112.619,101.842 113.477 M85.950 121.508 C 83.856 122.642,83.479 123.254,85.514 122.215 C 87.720 121.089,87.683 121.114,87.479 120.924 C 87.388 120.839,86.699 121.101,85.950 121.508 M280.314 222.577 C 280.314 252.797,280.362 265.160,280.420 250.050 C 280.478 234.940,280.478 210.215,280.420 195.105 C 280.362 179.995,280.314 192.358,280.314 222.577 M84.118 276.926 C 84.468 277.492,87.086 278.889,87.259 278.601 C 87.352 278.448,86.639 277.937,85.675 277.466 C 84.711 276.995,84.010 276.752,84.118 276.926 M117.882 294.129 C 117.882 294.362,118.050 294.449,118.254 294.323 C 118.459 294.196,118.739 294.276,118.877 294.499 C 119.015 294.722,119.332 294.905,119.580 294.905 C 119.829 294.905,119.684 294.641,119.257 294.318 C 118.329 293.617,117.882 293.555,117.882 294.129 M59.943 303.574 C 59.946 303.902,61.983 304.983,62.196 304.770 C 62.261 304.706,61.779 304.338,61.127 303.952 C 60.474 303.567,59.941 303.397,59.943 303.574 M66.767 307.039 C 67.572 307.744,68.883 308.165,68.383 307.558 C 68.081 307.192,67.557 306.893,67.217 306.893 C 66.878 306.893,66.675 306.959,66.767 307.039 M216.683 326.218 C 215.669 326.720,215.554 327.093,216.284 327.513 C 216.558 327.671,216.656 327.659,216.501 327.487 C 216.345 327.315,216.615 326.842,217.100 326.437 C 218.087 325.613,217.998 325.566,216.683 326.218 M134.266 340.450 C 134.266 340.624,134.625 340.860,135.065 340.975 C 135.504 341.090,135.864 341.042,135.864 340.868 C 135.864 340.695,135.504 340.459,135.065 340.344 C 134.625 340.229,134.266 340.277,134.266 340.450 M231.768 357.176 C 231.768 357.433,231.364 357.663,230.869 357.689 C 230.129 357.727,230.101 357.769,230.712 357.926 C 231.509 358.131,232.492 357.434,232.041 356.983 C 231.891 356.833,231.768 356.920,231.768 357.176 " stroke="none" fill="#4484fc" fill-rule="evenodd"></path><path id="path7" d="M119.675 222.378 C 119.675 252.488,119.722 264.746,119.780 249.619 C 119.838 234.492,119.838 209.857,119.780 194.874 C 119.722 179.891,119.675 192.268,119.675 222.378 " stroke="none" fill="#4884f4" fill-rule="evenodd"></path><path id="path8" d="M119.675 222.378 C 119.675 252.488,119.722 264.746,119.780 249.619 C 119.838 234.492,119.838 209.857,119.780 194.874 C 119.722 179.891,119.675 192.268,119.675 222.378 " stroke="none" fill="#4884f4" fill-rule="evenodd"></path></g></svg>