<svg width="204.000000pt" height="247.000000pt" viewBox="0 0 204.000000 247.000000" xmlns="http://www.w3.org/2000/svg">
  <g transform="translate(0.000000,247.000000) scale(0.100000,-0.100000)" fill="#d9a741" stroke="none">
    <path d="M1020 2215 l0 -244 35 -7 c19 -3 35 -10 35 -15 0 -5 10 -9 23 -9 27
0 200 -50 207 -60 3 -4 25 -10 49 -13 24 -3 47 -10 50 -15 3 -5 26 -12 50 -15
24 -3 47 -10 50 -15 3 -5 26 -12 50 -15 24 -3 47 -10 50 -15 3 -5 26 -12 50
-15 24 -3 47 -10 50 -15 3 -5 27 -12 54 -16 26 -4 47 -11 47 -15 0 -5 23 -11
50 -15 28 -4 50 -10 50 -15 0 -5 19 -11 43 -14 24 -3 51 -9 60 -13 l17 -6 0
146 0 146 -500 250 c-275 137 -504 250 -510 250 l-10 0 0 -245z" />
    <path d="M4 1805 c0 -82 2 -115 3 -72 2 43 2 110 0 150 -1 40 -3 5 -3 -78z" />
    <path d="M155 1703 l-30 -4 3 -466 c1 -257 4 -468 5 -470 2 -1 63 7 137 18 74
11 158 22 185 24 28 3 64 7 80 10 17 2 46 7 65 9 19 3 51 8 70 10 19 3 51 8
70 10 19 3 51 8 70 10 130 19 318 47 336 51 12 3 24 13 26 23 l5 18 136 17
c74 9 143 14 152 11 9 -4 20 -3 24 3 3 5 129 25 279 43 l272 33 0 184 c0 100
-3 183 -7 183 -25 -1 -679 85 -683 89 -3 3 -39 7 -80 8 l-75 3 -17 21 -18 21
-42 5 c-24 3 -48 10 -55 15 -7 5 -21 7 -32 3 -12 -3 -26 -3 -33 2 -7 4 -31 8
-53 9 -70 3 -709 94 -727 104 -10 6 -21 9 -25 8 -5 0 -21 -3 -38 -5z m860
-469 l0 -309 -20 3 c-11 2 -37 5 -57 8 -21 2 -55 6 -75 9 -21 2 -69 7 -108 10
-38 2 -80 10 -92 17 l-23 11 0 253 0 252 18 8 c9 4 31 9 47 11 29 2 67 7 155
18 22 3 58 6 79 8 22 1 43 6 47 10 4 4 13 6 18 4 l11 -4 0 -309z m-517 236
l12 0 0 -234 0 -233 -31 -7 c-17 -3 -36 -3 -43 1 -6 4 -29 9 -51 10 -22 2 -53
4 -70 6 -16 1 -36 6 -42 10 l-13 8 0 204 0 204 13 8 c12 8 21 9 114 16 23 1
45 6 50 10 4 5 17 6 28 3 11 -3 26 -6 33 -6z" />
    <path d="M1960 783 c-14 -2 -39 -11 -57 -19 -17 -8 -40 -14 -51 -14 -11 0 -33
-7 -48 -15 -16 -8 -40 -15 -54 -15 -15 0 -30 -4 -35 -9 -11 -10 -476 -151
-498 -151 -8 0 -28 -7 -43 -15 -16 -8 -41 -15 -56 -15 -15 0 -29 -4 -33 -9 -3
-5 -19 -12 -35 -16 l-30 -7 0 -244 0 -244 10 0 c6 0 235 113 510 250 l500 250
0 140 0 140 -27 -1 c-16 -1 -39 -4 -53 -6z" />
  </g>
  <g transform="translate(0.000000,247.000000) scale(0.100000,-0.100000)" fill="#fffefe" stroke="none">
    <path d="M0 2206 l0 -264 98 53 c53 29 280 144 505 256 224 112 407 207 407
211 0 5 -227 8 -505 8 l-505 0 0 -264z" />
    <path d="M1030 2463 c0 -7 991 -513 1004 -513 3 0 6 117 6 260 l0 260 -505 0
c-278 0 -505 -3 -505 -7z" />
    <path d="M1660 1630 c-162 -21 -339 -44 -392 -50 l-98 -12 0 -23 0 -23 63 -7
c34 -4 73 -9 87 -10 14 -2 167 -22 340 -44 173 -22 330 -43 348 -46 l32 -6 0
131 0 130 -42 -1 c-24 -1 -176 -18 -338 -39z" />
    <path d="M4 1530 c0 -74 1 -105 3 -67 2 37 2 97 0 135 -2 37 -3 6 -3 -68z" />
    <path d="M1755 1024 c-137 -18 -272 -36 -300 -39 -83 -9 -208 -25 -247 -31
l-38 -6 0 -24 c0 -13 3 -24 6 -24 11 0 810 -100 837 -105 l27 -4 0 134 0 135
-17 -1 c-10 -1 -130 -16 -268 -35z" />
    <path d="M4 915 c0 -77 2 -107 3 -67 2 40 2 103 0 140 -2 37 -3 4 -3 -73z" />
    <path d="M1875 443 c-88 -46 -314 -161 -502 -256 -189 -94 -343 -175 -343
-179 0 -5 227 -8 505 -8 l505 0 0 265 c0 146 -1 264 -2 264 -2 -1 -75 -40
-163 -86z" />
    <path d="M0 261 l0 -261 505 0 c278 0 505 3 505 8 0 4 -224 120 -497 257 -273
138 -500 252 -504 253 l-9 4 0 -261z" />
  </g>
  <g transform="translate(0.000000,247.000000) scale(0.100000,-0.100000)" fill="#876929" stroke="none">
    <path d="M498 2209 l-498 -249 0 -725 0 -725 500 -250 c275 -137 504 -250 510
-250 l10 0 0 244 0 244 -35 6 c-19 4 -35 11 -35 16 0 6 -11 10 -25 10 -27 0
-497 140 -505 150 -3 4 -25 10 -49 13 -24 3 -47 10 -50 15 -3 5 -26 12 -51 15
-24 3 -46 11 -48 16 -2 6 -18 11 -36 11 -18 0 -37 5 -44 12 l-12 12 0 462 0
463 10 6 c6 3 10 1 10 -4 0 -6 7 -11 15 -11 8 0 15 6 15 13 l0 12 418 125 417
126 3 247 2 247 -12 -1 c-7 0 -237 -112 -510 -250z" />
    <path d="M1400 1855 c0 -8 7 -15 15 -15 8 0 15 7 15 15 0 8 -7 15 -15 15 -8 0
-15 -7 -15 -15z" />
    <path d="M1500 1825 c0 -8 7 -15 15 -15 8 0 15 7 15 15 0 8 -7 15 -15 15 -8 0
-15 -7 -15 -15z" />
    <path d="M1600 1795 c0 -8 7 -15 15 -15 8 0 15 7 15 15 0 8 -7 15 -15 15 -8 0
-15 -7 -15 -15z" />
    <path d="M1700 1765 c0 -8 7 -15 15 -15 8 0 15 7 15 15 0 8 -7 15 -15 15 -8 0
-15 -7 -15 -15z" />
    <path d="M2030 1670 c0 -7 3 -10 7 -7 3 4 3 10 0 14 -4 3 -7 0 -7 -7z" />
    <path d="M790 1615 c0 -8 7 -15 15 -15 8 0 15 7 15 15 0 8 -7 15 -15 15 -8 0
-15 -7 -15 -15z" />
    <path d="M860 1605 c0 -8 7 -15 15 -15 8 0 15 7 15 15 0 8 -7 15 -15 15 -8 0
-15 -7 -15 -15z" />
    <path d="M930 1595 c0 -8 7 -15 15 -15 8 0 15 7 15 15 0 8 -7 15 -15 15 -8 0
-15 -7 -15 -15z" />
    <path d="M1000 1585 c0 -8 7 -15 15 -15 8 0 15 7 15 15 0 8 -7 15 -15 15 -8 0
-15 -7 -15 -15z" />
    <path d="M1000 1552 c0 -8 -103 -23 -190 -27 -19 -1 -43 -5 -53 -10 -9 -4 -26
-5 -37 -2 -11 3 -31 0 -45 -6 l-25 -12 0 -260 0 -260 26 -12 c14 -7 39 -10 54
-7 l28 6 6 -11 7 -11 25 6 c13 3 32 3 41 -1 10 -4 55 -9 101 -12 l82 -4 2 301
c0 165 1 305 2 312 1 6 -5 13 -11 16 -7 2 -13 -1 -13 -6z" />
    <path d="M360 1464 c-47 -7 -86 -13 -87 -13 -2 -1 -3 -97 -3 -214 l0 -212 19
-12 c10 -6 28 -9 40 -6 11 3 29 2 38 -2 10 -4 46 -9 81 -11 l62 -3 0 244 0
245 -32 -1 c-18 -1 -71 -7 -118 -15z" />
    <path d="M2034 1235 c0 -104 2 -146 3 -92 2 54 2 139 0 190 -1 51 -3 7 -3 -98z" />
    <path d="M2034 660 c0 -80 2 -112 3 -72 2 39 2 105 0 145 -1 39 -3 7 -3 -73z" />
  </g>
  <g transform="translate(0.000000,247.000000) scale(0.100000,-0.100000)" fill="#fad790" stroke="none">
    <path d="M1000 894 c-195 -30 -206 -32 -330 -49 -19 -3 -51 -7 -70 -10 -81
-12 -117 -17 -145 -20 -16 -1 -90 -11 -164 -21 l-133 -18 -5 -14 c-7 -16 -3
-20 27 -25 14 -2 37 -9 52 -15 15 -6 38 -13 50 -15 13 -2 35 -9 50 -15 15 -6
38 -13 50 -15 13 -2 30 -7 38 -10 17 -8 476 -146 500 -151 8 -2 28 -8 43 -14
36 -15 78 -15 114 0 15 6 38 13 51 15 12 2 35 9 50 15 15 6 35 13 45 15 30 5
491 145 502 151 6 4 20 8 33 10 12 1 35 8 50 14 15 6 37 13 50 15 12 2 35 9
50 15 32 13 27 12 75 21 l37 8 0 13 0 12 -412 52 c-227 29 -422 54 -433 56
-11 2 -90 -7 -175 -20z" />
  </g>
  <g transform="translate(0.000000,247.000000) scale(0.100000,-0.100000)" fill="#61491d" stroke="none">
    <path d="M635 1865 c-203 -62 -396 -121 -427 -130 -32 -9 -58 -21 -58 -26 0
-6 5 -7 10 -4 6 3 10 2 10 -4 0 -5 8 -10 18 -9 9 0 145 -19 302 -41 157 -23
293 -40 303 -37 9 2 17 0 17 -6 l0 -10 35 4 c19 2 35 0 35 -5 0 -5 16 -7 35
-5 19 2 35 1 35 -4 0 -4 16 -6 35 -4 19 1 35 -1 35 -5 0 -4 8 -8 18 -7 9 0 38
-3 64 -7 l47 -8 425 54 426 53 0 12 c0 7 -13 17 -30 23 -16 5 -30 7 -30 4 0
-3 -6 -1 -12 5 -7 5 -29 13 -48 18 -42 9 -41 9 -60 16 -42 16 -77 25 -93 22
-9 -1 -15 1 -12 6 5 8 -56 24 -87 23 -10 0 -15 3 -12 8 5 8 -57 24 -88 22 -10
0 -15 3 -12 8 5 8 -57 24 -88 22 -10 0 -15 3 -12 8 3 6 -37 19 -76 24 -3 0 -9
3 -15 6 -10 7 -187 60 -208 63 -7 1 -17 5 -23 8 -6 4 -28 9 -50 12 l-39 5
-370 -114z" />
  </g>
  <g transform="translate(0.000000,247.000000) scale(0.100000,-0.100000)" fill="#816425" stroke="none">
    <path d="M511 2220 c-443 -223 -531 -270 -508 -270 4 0 232 113 507 250 l501
250 -3 -240 -3 -240 13 0 12 0 0 250 0 250 -12 0 c-7 -1 -235 -113 -507 -250z" />
    <path d="M973 1963 c4 -3 10 -3 14 0 3 4 0 7 -7 7 -7 0 -10 -3 -7 -7z" />
    <path d="M943 1953 c4 -3 10 -3 14 0 3 4 0 7 -7 7 -7 0 -10 -3 -7 -7z" />
    <path d="M1110 1950 c0 -5 5 -10 10 -10 6 0 10 5 10 10 0 6 -4 10 -10 10 -5 0
-10 -4 -10 -10z" />
    <path d="M903 1943 c4 -3 10 -3 14 0 3 4 0 7 -7 7 -7 0 -10 -3 -7 -7z" />
    <path d="M873 1933 c4 -3 10 -3 14 0 3 4 0 7 -7 7 -7 0 -10 -3 -7 -7z" />
    <path d="M843 1923 c4 -3 10 -3 14 0 3 4 0 7 -7 7 -7 0 -10 -3 -7 -7z" />
    <path d="M1205 1920 c3 -5 10 -10 16 -10 5 0 9 5 9 10 0 6 -7 10 -16 10 l-15
0 6 -10z" />
    <path d="M803 1913 c4 -3 10 -3 14 0 3 4 0 7 -7 7 -7 0 -10 -3 -7 -7z" />
    <path d="M773 1903 c4 -3 10 -3 14 0 3 4 0 7 -7 7 -7 0 -10 -3 -7 -7z" />
    <path d="M743 1893 c4 -3 10 -3 14 0 3 4 0 7 -7 7 -7 0 -10 -3 -7 -7z" />
    <path d="M1305 1890 c3 -5 10 -10 16 -10 5 0 9 5 9 10 0 6 -7 10 -16 10 l-15
0 6 -10z" />
    <path d="M703 1883 c4 -3 10 -3 14 0 3 4 0 7 -7 7 -7 0 -10 -3 -7 -7z" />
    <path d="M673 1873 c4 -3 10 -3 14 0 3 4 0 7 -7 7 -7 0 -10 -3 -7 -7z" />
    <path d="M643 1863 c4 -3 10 -3 14 0 3 4 0 7 -7 7 -7 0 -10 -3 -7 -7z" />
    <path d="M573 1843 c4 -3 10 -3 14 0 3 4 0 7 -7 7 -7 0 -10 -3 -7 -7z" />
    <path d="M543 1833 c4 -3 10 -3 14 0 3 4 0 7 -7 7 -7 0 -10 -3 -7 -7z" />
    <path d="M473 1813 c4 -3 10 -3 14 0 3 4 0 7 -7 7 -7 0 -10 -3 -7 -7z" />
    <path d="M443 1803 c4 -3 10 -3 14 0 3 4 0 7 -7 7 -7 0 -10 -3 -7 -7z" />
    <path d="M373 1783 c4 -3 10 -3 14 0 3 4 0 7 -7 7 -7 0 -10 -3 -7 -7z" />
    <path d="M343 1773 c4 -3 10 -3 14 0 3 4 0 7 -7 7 -7 0 -10 -3 -7 -7z" />
    <path d="M273 1753 c4 -3 10 -3 14 0 3 4 0 7 -7 7 -7 0 -10 -3 -7 -7z" />
    <path d="M243 1743 c4 -3 10 -3 14 0 3 4 0 7 -7 7 -7 0 -10 -3 -7 -7z" />
    <path d="M1840 1730 c0 -5 5 -10 10 -10 6 0 10 5 10 10 0 6 -4 10 -10 10 -5 0
-10 -4 -10 -10z" />
    <path d="M173 1723 c4 -3 10 -3 14 0 3 4 0 7 -7 7 -7 0 -10 -3 -7 -7z" />
    <path d="M127 1713 c-4 -3 -7 -219 -7 -478 l0 -473 13 -9 c6 -6 24 -13 40 -17
l27 -6 0 10 c0 5 -8 10 -19 10 -10 0 -24 6 -30 13 l-11 14 0 458 c-1 251 2
460 5 463 8 8 6 22 -3 22 -5 0 -12 -3 -15 -7z" />
    <path d="M1940 1700 c0 -5 5 -10 10 -10 6 0 10 5 10 10 0 6 -4 10 -10 10 -5 0
-10 -4 -10 -10z" />
    <path d="M2000 1675 c0 -8 7 -15 15 -15 8 0 15 7 15 15 0 8 -7 15 -15 15 -8 0
-15 -7 -15 -15z" />
    <path d="M370 1670 c0 -5 7 -10 16 -10 l15 0 -6 10 c-3 6 -10 10 -16 10 -5 0
-9 -4 -9 -10z" />
    <path d="M440 1660 c0 -5 7 -10 16 -10 l15 0 -6 10 c-3 6 -10 10 -16 10 -5 0
-9 -4 -9 -10z" />
    <path d="M510 1650 c0 -5 7 -10 16 -10 l15 0 -6 10 c-3 6 -10 10 -16 10 -5 0
-9 -4 -9 -10z" />
    <path d="M580 1640 c0 -5 7 -10 15 -10 8 0 15 5 15 10 0 6 -7 10 -15 10 -8 0
-15 -4 -15 -10z" />
    <path d="M650 1630 c0 -5 7 -10 15 -10 8 0 15 5 15 10 0 6 -7 10 -15 10 -8 0
-15 -4 -15 -10z" />
    <path d="M720 1620 c0 -5 7 -10 15 -10 8 0 15 5 15 10 0 6 -7 10 -15 10 -8 0
-15 -4 -15 -10z" />
    <path d="M928 1545 c-2 -2 -28 -6 -58 -9 -30 -3 -64 -8 -75 -10 -11 -2 -47 -7
-80 -11 -33 -3 -63 -10 -68 -14 -4 -4 -6 -126 -5 -271 l3 -264 33 -7 c19 -4
64 -10 102 -13 37 -4 78 -9 91 -11 13 -3 54 -8 92 -11 l67 -6 0 314 0 315 -49
0 c-28 1 -51 -1 -53 -2z m82 -310 l0 -296 -72 5 c-40 2 -81 7 -91 11 -9 4 -29
5 -42 2 -14 -2 -28 0 -31 5 -3 5 -20 9 -38 8 -17 -1 -41 1 -53 5 l-23 7 0 253
0 253 23 7 c12 4 34 6 49 5 15 -1 32 1 38 5 6 4 41 9 77 11 37 2 69 6 71 9 3
3 25 5 49 5 l43 0 0 -295z" />
    <path d="M458 1485 c-1 -2 -30 -6 -63 -10 -33 -4 -69 -8 -80 -10 -11 -1 -28
-3 -37 -4 l-18 -1 0 -225 0 -225 23 -1 c12 0 29 -2 38 -4 30 -6 134 -18 164
-19 l30 -1 0 250 0 250 -27 2 c-14 1 -28 0 -30 -2z m42 -249 l0 -234 -55 3
c-30 2 -59 6 -65 10 -6 3 -23 5 -38 4 -15 -1 -35 2 -44 6 l-18 7 0 204 c0 112
1 204 3 205 9 3 176 27 195 28 l22 1 0 -234z" />
    <path d="M210 732 c0 -5 12 -13 28 -16 15 -4 35 -9 45 -12 9 -3 17 -1 17 4 0
5 -12 12 -27 15 -16 3 -36 9 -45 12 l-18 7 0 -10z" />
    <path d="M310 702 c0 -5 12 -13 28 -16 15 -4 35 -9 45 -12 9 -3 17 -1 17 4 0
5 -12 12 -27 15 -16 3 -36 9 -45 12 l-18 7 0 -10z" />
    <path d="M410 673 c0 -4 111 -41 248 -82 136 -41 253 -76 260 -79 6 -2 12 0
12 5 0 5 -111 42 -247 82 -137 41 -254 76 -260 78 -7 3 -13 1 -13 -4z" />
    <path d="M2031 524 l1 -19 5 13 c3 7 2 16 -1 19 -3 4 -6 -2 -5 -13z" />
    <path d="M13 506 c26 -20 993 -506 1006 -506 l11 0 0 249 0 249 -27 5 c-16 3
-36 9 -45 12 l-18 7 0 -10 c0 -6 16 -14 35 -18 l35 -6 0 -234 0 -234 -500 250
c-275 137 -503 250 -507 250 -5 0 0 -7 10 -14z" />
  </g>
  <g transform="translate(0.000000,247.000000) scale(0.100000,-0.100000)" fill="#ddaa42" stroke="none">
    <path d="M1015 2220 l0 -249 25 -6 c14 -3 33 -8 43 -11 9 -3 17 -1 17 4 0 5
-16 13 -35 16 l-36 7 3 245 3 244 -10 0 -10 0 0 -250z" />
    <path d="M1116 1951 c6 -7 34 -19 63 -27 28 -7 74 -20 101 -28 28 -8 50 -11
50 -7 0 4 -44 20 -97 35 -54 16 -105 31 -113 34 l-15 5 11 -12z" />
    <path d="M1340 1882 c0 -5 20 -13 45 -19 25 -6 45 -7 45 -3 0 4 -12 11 -27 14
-16 4 -36 9 -45 12 -10 3 -18 1 -18 -4z" />
    <path d="M1440 1852 c0 -5 20 -13 45 -19 25 -6 45 -7 45 -3 0 4 -12 11 -27 14
-16 4 -36 9 -45 12 -10 3 -18 1 -18 -4z" />
    <path d="M1540 1822 c0 -5 20 -13 45 -19 25 -6 45 -7 45 -3 0 4 -12 11 -27 14
-16 4 -36 9 -45 12 -10 3 -18 1 -18 -4z" />
    <path d="M1640 1791 c0 -6 3 -11 8 -11 4 0 24 -4 45 -9 20 -5 37 -5 37 -1 0 4
-12 11 -27 14 -16 4 -36 9 -45 12 l-18 5 0 -10z" />
    <path d="M1740 1762 c0 -5 12 -13 28 -16 15 -4 35 -9 45 -12 9 -3 17 -1 17 4
0 5 -12 12 -27 15 -16 3 -36 9 -45 12 l-18 7 0 -10z" />
    <path d="M1854 1726 c11 -9 25 -16 32 -16 7 0 19 -3 28 -6 9 -3 16 -2 16 4 0
5 -12 12 -27 15 -16 3 -37 9 -48 12 l-20 7 19 -16z" />
    <path d="M130 1700 c0 -5 14 -10 32 -10 35 0 30 12 -7 17 l-25 4 0 -11z" />
    <path d="M1940 1706 c0 -9 43 -29 73 -32 35 -5 27 11 -10 19 -16 3 -36 9 -45
12 -10 4 -18 5 -18 1z" />
    <path d="M206 1691 c11 -10 754 -114 762 -107 3 3 3 6 1 7 -2 0 -13 2 -24 4
-11 2 -42 7 -69 10 -27 4 -57 8 -66 10 -9 2 -41 6 -70 10 -29 4 -61 8 -70 10
-9 2 -41 6 -71 10 -30 3 -127 17 -217 31 -89 13 -168 24 -174 24 l-12 0 10 -9z" />
    <path d="M132 1223 c-1 -255 1 -463 6 -463 6 0 6 337 -1 760 -1 91 -4 -43 -5
-297z" />
    <path d="M985 1580 c3 -5 18 -10 32 -10 32 0 22 13 -13 18 l-26 3 7 -11z" />
    <path d="M1054 1572 c4 -7 20 -12 36 -12 16 0 40 -4 54 -10 l26 -10 0 15 0 15
-22 0 c-13 0 -41 3 -62 7 l-39 6 7 -11z" />
    <path d="M974 1549 l-7 -12 27 5 26 5 0 -308 0 -308 -27 -3 -28 -4 18 -8 c9
-5 24 -6 32 -2 l15 5 -2 318 -3 318 -22 3 c-11 2 -24 -2 -29 -9z" />
    <path d="M895 1540 l-6 -10 25 0 c14 0 28 5 31 10 l6 10 -25 0 c-14 0 -28 -4
-31 -10z" />
    <path d="M815 1530 l-6 -10 25 0 c14 0 28 5 31 10 l6 10 -25 0 c-14 0 -28 -4
-31 -10z" />
    <path d="M735 1520 l-6 -10 25 0 c14 0 28 5 31 10 l6 10 -25 0 c-14 0 -28 -4
-31 -10z" />
    <path d="M648 1506 l-18 -13 0 -260 0 -260 23 -11 c12 -6 48 -14 81 -17 l58
-7 -6 11 c-4 6 -19 11 -34 11 -15 0 -44 3 -64 6 l-38 7 0 263 0 264 24 0 c14
0 28 5 31 10 l6 10 -23 0 c-13 0 -31 -7 -40 -14z" />
    <path d="M496 1491 c-4 -6 -2 -11 4 -11 l11 0 -3 -249 c-2 -137 0 -247 5 -244
10 6 9 485 -2 502 l-8 13 -7 -11z" />
    <path d="M425 1480 l-6 -10 25 0 c14 0 28 5 31 10 l6 10 -25 0 c-14 0 -28 -4
-31 -10z" />
    <path d="M345 1470 l-6 -10 25 0 c14 0 28 5 31 10 l6 10 -25 0 c-14 0 -28 -4
-31 -10z" />
    <path d="M262 1458 l-12 -12 0 -211 0 -211 12 -12 c7 -7 23 -12 36 -12 l23 0
-6 10 c-3 6 -15 10 -26 10 l-19 0 0 215 0 215 19 0 c11 0 23 5 26 10 l6 10
-23 0 c-13 0 -29 -5 -36 -12z" />
    <path d="M1790 1446 c0 -2 7 -6 15 -10 8 -3 15 -1 15 4 0 6 -7 10 -15 10 -8 0
-15 -2 -15 -4z" />
    <path d="M2025 1410 c3 -5 8 -10 11 -10 2 0 4 5 4 10 0 6 -5 10 -11 10 -5 0
-7 -4 -4 -10z" />
    <path d="M1630 1010 l-15 -10 18 0 c9 0 17 5 17 10 0 12 -1 12 -20 0z" />
    <path d="M345 1000 c3 -5 17 -10 31 -10 l25 0 -6 10 c-3 6 -17 10 -31 10 l-25
0 6 -10z" />
    <path d="M1550 1000 l-15 -10 18 0 c9 0 17 5 17 10 0 12 -1 12 -20 0z" />
    <path d="M425 990 c3 -5 17 -10 31 -10 l25 0 -6 10 c-3 6 -17 10 -31 10 l-25
0 6 -10z" />
    <path d="M815 940 c3 -5 17 -10 31 -10 l25 0 -6 10 c-3 6 -17 10 -31 10 l-25
0 6 -10z" />
    <path d="M895 930 c3 -5 17 -10 31 -10 l25 0 -6 10 c-3 6 -17 10 -31 10 l-25
0 6 -10z" />
    <path d="M1108 903 c7 -3 16 -2 19 1 4 3 -2 6 -13 5 l-19 -1 13 -5z" />
    <path d="M1038 893 c7 -3 16 -2 19 1 4 3 -2 6 -13 5 l-19 -1 13 -5z" />
    <path d="M968 883 c7 -3 16 -2 19 1 4 3 -2 6 -13 5 l-19 -1 13 -5z" />
    <path d="M398 803 c7 -3 16 -2 19 1 4 3 -2 6 -13 5 l-19 -1 13 -5z" />
    <path d="M2020 796 c0 -9 5 -16 10 -16 6 0 10 4 10 9 0 6 -4 13 -10 16 l-10 6
0 -15z" />
    <path d="M328 793 c7 -3 16 -2 19 1 4 3 -2 6 -13 5 l-19 -1 13 -5z" />
    <path d="M258 783 c7 -3 16 -2 19 1 4 3 -2 6 -13 5 l-19 -1 13 -5z" />
    <path d="M188 773 c7 -3 16 -2 19 1 4 3 -2 6 -13 5 l-19 -1 13 -5z" />
    <path d="M1950 770 c0 -5 7 -7 15 -4 8 4 15 8 15 10 0 2 -7 4 -15 4 -8 0 -15
-4 -15 -10z" />
    <path d="M1850 740 c0 -5 7 -7 15 -4 8 4 15 8 15 10 0 2 -7 4 -15 4 -8 0 -15
-4 -15 -10z" />
    <path d="M1628 673 c7 -3 16 -2 19 1 4 3 -2 6 -13 5 l-19 -1 13 -5z" />
    <path d="M1528 643 c7 -3 16 -2 19 1 4 3 -2 6 -13 5 l-19 -1 13 -5z" />
    <path d="M1428 613 c7 -3 16 -2 19 1 4 3 -2 6 -13 5 l-19 -1 13 -5z" />
    <path d="M1328 583 c7 -3 16 -2 19 1 4 3 -2 6 -13 5 l-19 -1 13 -5z" />
    <path d="M1228 553 c7 -3 16 -2 19 1 4 3 -2 6 -13 5 l-19 -1 13 -5z" />
    <path d="M1120 520 c0 -5 7 -7 15 -4 8 4 15 8 15 10 0 2 -7 4 -15 4 -8 0 -15
-4 -15 -10z" />
    <path d="M2027 523 c-4 -3 -7 -11 -7 -17 l0 -10 12 12 c6 6 9 14 7 17 -3 3 -9
2 -12 -2z" />
    <path d="M1018 255 c1 -135 6 -245 10 -245 4 0 6 106 4 237 l-3 236 13 9 13 8
-20 0 -20 0 3 -245z" />
  </g>
  <g transform="translate(0.000000,247.000000) scale(0.100000,-0.100000)" fill="#d6a439" stroke="none">
    <path d="M1030 2455 c0 -8 1002 -507 1007 -502 7 7 -977 507 -997 507 -5 0
-10 -2 -10 -5z" />
    <path d="M1020 1976 c0 -2 7 -7 16 -10 l15 -6 -6 10 c-6 10 -25 14 -25 6z" />
    <path d="M1120 1946 c0 -2 7 -7 16 -10 l15 -6 -6 10 c-6 10 -25 14 -25 6z" />
    <path d="M1220 1916 c0 -2 7 -7 16 -10 l15 -6 -6 10 c-6 10 -25 14 -25 6z" />
    <path d="M1353 1873 c4 -3 10 -3 14 0 3 4 0 7 -7 7 -7 0 -10 -3 -7 -7z" />
    <path d="M1453 1843 c4 -3 10 -3 14 0 3 4 0 7 -7 7 -7 0 -10 -3 -7 -7z" />
    <path d="M1553 1813 c4 -3 10 -3 14 0 3 4 0 7 -7 7 -7 0 -10 -3 -7 -7z" />
    <path d="M1650 1786 c0 -2 7 -7 16 -10 l15 -6 -6 10 c-6 10 -25 14 -25 6z" />
    <path d="M1750 1756 c0 -2 7 -7 16 -10 l15 -6 -6 10 c-6 10 -25 14 -25 6z" />
    <path d="M1850 1726 c0 -2 7 -7 16 -10 l15 -6 -6 10 c-6 10 -25 14 -25 6z" />
    <path d="M1950 1696 c0 -2 7 -7 16 -10 l15 -6 -6 10 c-6 10 -25 14 -25 6z" />
    <path d="M343 1673 c4 -3 10 -3 14 0 3 4 0 7 -7 7 -7 0 -10 -3 -7 -7z" />
    <path d="M413 1663 c4 -3 10 -3 14 0 3 4 0 7 -7 7 -7 0 -10 -3 -7 -7z" />
    <path d="M483 1653 c4 -3 10 -3 14 0 3 4 0 7 -7 7 -7 0 -10 -3 -7 -7z" />
    <path d="M553 1643 c4 -3 10 -3 14 0 3 4 0 7 -7 7 -7 0 -10 -3 -7 -7z" />
    <path d="M623 1633 c4 -3 10 -3 14 0 3 4 0 7 -7 7 -7 0 -10 -3 -7 -7z" />
    <path d="M693 1623 c4 -3 10 -3 14 0 3 4 0 7 -7 7 -7 0 -10 -3 -7 -7z" />
    <path d="M763 1613 c4 -3 10 -3 14 0 3 4 0 7 -7 7 -7 0 -10 -3 -7 -7z" />
    <path d="M833 1603 c4 -3 10 -3 14 0 3 4 0 7 -7 7 -7 0 -10 -3 -7 -7z" />
    <path d="M903 1593 c4 -3 10 -3 14 0 3 4 0 7 -7 7 -7 0 -10 -3 -7 -7z" />
    <path d="M963 1543 c4 -3 10 -3 14 0 3 4 0 7 -7 7 -7 0 -10 -3 -7 -7z" />
    <path d="M883 1533 c4 -3 10 -3 14 0 3 4 0 7 -7 7 -7 0 -10 -3 -7 -7z" />
    <path d="M1169 1527 c14 -18 61 -23 61 -7 0 6 -9 10 -19 10 -11 0 -28 3 -38 7
l-18 7 14 -17z" />
    <path d="M803 1523 c4 -3 10 -3 14 0 3 4 0 7 -7 7 -7 0 -10 -3 -7 -7z" />
    <path d="M723 1513 c4 -3 10 -3 14 0 3 4 0 7 -7 7 -7 0 -10 -3 -7 -7z" />
    <path d="M1250 1510 c20 -13 60 -13 60 0 0 6 -17 10 -37 10 l-38 0 15 -10z" />
    <path d="M1340 1500 c0 -5 9 -10 20 -10 11 0 20 5 20 10 0 6 -9 10 -20 10 -11
0 -20 -4 -20 -10z" />
    <path d="M1415 1490 c3 -5 15 -10 26 -10 10 0 19 5 19 10 0 6 -12 10 -26 10
l-25 0 6 -10z" />
    <path d="M493 1483 c4 -3 10 -3 14 0 3 4 0 7 -7 7 -7 0 -10 -3 -7 -7z" />
    <path d="M1495 1480 c3 -5 15 -10 26 -10 10 0 19 5 19 10 0 6 -12 10 -26 10
l-25 0 6 -10z" />
    <path d="M413 1473 c4 -3 10 -3 14 0 3 4 0 7 -7 7 -7 0 -10 -3 -7 -7z" />
    <path d="M1575 1470 c3 -5 15 -10 26 -10 10 0 19 5 19 10 0 6 -12 10 -26 10
l-25 0 6 -10z" />
    <path d="M333 1463 c4 -3 10 -3 14 0 3 4 0 7 -7 7 -7 0 -10 -3 -7 -7z" />
    <path d="M1640 1460 c20 -13 60 -13 60 0 0 6 -17 10 -37 10 l-38 0 15 -10z" />
    <path d="M260 1449 c0 -5 5 -7 10 -4 6 3 10 8 10 11 0 2 -4 4 -10 4 -5 0 -10
-5 -10 -11z" />
    <path d="M1720 1450 c20 -13 50 -13 50 0 0 6 -15 10 -32 10 l-33 0 15 -10z" />
    <path d="M1810 1440 c0 -5 9 -10 20 -10 11 0 20 5 20 10 0 6 -9 10 -20 10 -11
0 -20 -4 -20 -10z" />
    <path d="M1885 1430 c3 -5 15 -10 26 -10 10 0 19 5 19 10 0 6 -12 10 -26 10
l-25 0 6 -10z" />
    <path d="M1965 1420 c3 -5 15 -10 26 -10 10 0 19 5 19 10 0 6 -12 10 -26 10
l-25 0 6 -10z" />
    <path d="M1955 1050 l-6 -10 25 0 c14 0 26 5 26 10 0 6 -9 10 -19 10 -11 0
-23 -4 -26 -10z" />
    <path d="M1875 1040 l-6 -10 25 0 c14 0 26 5 26 10 0 6 -9 10 -19 10 -11 0
-23 -4 -26 -10z" />
    <path d="M1795 1030 l-6 -10 25 0 c14 0 26 5 26 10 0 6 -9 10 -19 10 -11 0
-23 -4 -26 -10z" />
    <path d="M260 1020 c0 -5 5 -10 11 -10 5 0 7 5 4 10 -3 6 -8 10 -11 10 -2 0
-4 -4 -4 -10z" />
    <path d="M1715 1020 l-6 -10 25 0 c14 0 26 5 26 10 0 6 -9 10 -19 10 -11 0
-23 -4 -26 -10z" />
    <path d="M1640 1010 c0 -5 9 -10 20 -10 11 0 20 5 20 10 0 6 -9 10 -20 10 -11
0 -20 -4 -20 -10z" />
    <path d="M333 1003 c4 -3 10 -3 14 0 3 4 0 7 -7 7 -7 0 -10 -3 -7 -7z" />
    <path d="M1560 1000 c0 -5 9 -10 20 -10 11 0 20 5 20 10 0 6 -9 10 -20 10 -11
0 -20 -4 -20 -10z" />
    <path d="M413 993 c4 -3 10 -3 14 0 3 4 0 7 -7 7 -7 0 -10 -3 -7 -7z" />
    <path d="M1480 990 c0 -5 9 -10 20 -10 11 0 20 5 20 10 0 6 -9 10 -20 10 -11
0 -20 -4 -20 -10z" />
    <path d="M493 983 c4 -3 10 -3 14 0 3 4 0 7 -7 7 -7 0 -10 -3 -7 -7z" />
    <path d="M1390 980 l-15 -10 33 0 c17 0 32 5 32 10 0 13 -30 13 -50 0z" />
    <path d="M1310 970 l-15 -10 38 0 c20 0 37 5 37 10 0 13 -40 13 -60 0z" />
    <path d="M1230 960 l-15 -10 38 0 c20 0 37 5 37 10 0 13 -40 13 -60 0z" />
    <path d="M723 953 c4 -3 10 -3 14 0 3 4 0 7 -7 7 -7 0 -10 -3 -7 -7z" />
    <path d="M1163 943 c-4 -10 -14 -23 -22 -30 l-16 -12 17 -1 c10 0 22 9 28 20
6 11 17 20 25 20 8 0 15 5 15 10 0 6 -9 10 -20 10 l-21 0 -6 -17z" />
    <path d="M803 943 c4 -3 10 -3 14 0 3 4 0 7 -7 7 -7 0 -10 -3 -7 -7z" />
    <path d="M883 933 c4 -3 10 -3 14 0 3 4 0 7 -7 7 -7 0 -10 -3 -7 -7z" />
    <path d="M963 923 c4 -3 10 -3 14 0 3 4 0 7 -7 7 -7 0 -10 -3 -7 -7z" />
    <path d="M1065 900 c-8 -13 15 -13 35 0 l15 10 -22 0 c-12 0 -25 -4 -28 -10z" />
    <path d="M995 890 c-8 -13 15 -13 35 0 l15 10 -22 0 c-12 0 -25 -4 -28 -10z" />
    <path d="M890 883 c-19 -3 -39 -9 -45 -14 l-10 -10 55 7 c30 3 62 10 70 15
l15 8 -25 -1 c-14 -1 -41 -3 -60 -5z" />
    <path d="M775 860 l-6 -10 20 0 c11 0 23 5 26 10 l6 10 -20 0 c-11 0 -23 -4
-26 -10z" />
    <path d="M705 850 l-6 -10 20 0 c11 0 23 5 26 10 l6 10 -20 0 c-11 0 -23 -4
-26 -10z" />
    <path d="M635 840 l-6 -10 20 0 c11 0 23 5 26 10 l6 10 -20 0 c-11 0 -23 -4
-26 -10z" />
    <path d="M565 830 l-6 -10 20 0 c11 0 23 5 26 10 l6 10 -20 0 c-11 0 -23 -4
-26 -10z" />
    <path d="M495 820 l-6 -10 20 0 c11 0 23 5 26 10 l6 10 -20 0 c-11 0 -23 -4
-26 -10z" />
    <path d="M425 810 c-8 -13 15 -13 35 0 l15 10 -22 0 c-12 0 -25 -4 -28 -10z" />
    <path d="M355 800 c-8 -13 15 -13 35 0 l15 10 -22 0 c-12 0 -25 -4 -28 -10z" />
    <path d="M285 790 c-8 -13 15 -13 35 0 l15 10 -22 0 c-12 0 -25 -4 -28 -10z" />
    <path d="M1993 790 c-13 -5 -23 -11 -23 -13 0 -2 16 -3 35 -3 19 1 34 5 32 10
-5 14 -19 16 -44 6z" />
    <path d="M215 780 c-8 -13 15 -13 35 0 l15 10 -22 0 c-12 0 -25 -4 -28 -10z" />
    <path d="M145 770 c-8 -13 15 -13 35 0 l15 10 -22 0 c-12 0 -25 -4 -28 -10z" />
    <path d="M1940 770 c0 -5 5 -10 10 -10 6 0 10 5 10 10 0 6 -4 10 -10 10 -5 0
-10 -4 -10 -10z" />
    <path d="M1891 759 c-13 -5 -22 -12 -19 -14 6 -6 58 12 58 20 0 7 -11 5 -39
-6z" />
    <path d="M1840 740 c0 -5 5 -10 10 -10 6 0 10 5 10 10 0 6 -4 10 -10 10 -5 0
-10 -4 -10 -10z" />
    <path d="M1778 727 c-21 -6 -38 -15 -38 -19 l0 -9 23 7 c43 13 67 24 67 29 0
6 -4 5 -52 -8z" />
    <path d="M1683 697 c-17 -7 -35 -16 -40 -21 l-8 -8 25 7 c44 14 70 24 70 30 0
7 -10 5 -47 -8z" />
    <path d="M1583 667 c-17 -7 -35 -16 -40 -21 l-8 -8 25 7 c44 14 70 24 70 30 0
7 -10 5 -47 -8z" />
    <path d="M1483 637 c-17 -7 -35 -16 -40 -21 l-8 -8 25 7 c44 14 70 24 70 30 0
7 -10 5 -47 -8z" />
    <path d="M1383 607 c-17 -7 -35 -16 -40 -21 l-8 -8 25 7 c44 14 70 24 70 30 0
7 -10 5 -47 -8z" />
    <path d="M1283 577 c-17 -7 -35 -16 -40 -21 l-8 -8 25 7 c44 14 70 24 70 30 0
7 -10 5 -47 -8z" />
    <path d="M1210 549 c0 -5 5 -7 10 -4 6 3 10 8 10 11 0 2 -4 4 -10 4 -5 0 -10
-5 -10 -11z" />
    <path d="M1161 539 c-13 -5 -22 -12 -19 -14 6 -6 58 12 58 20 0 7 -11 5 -39
-6z" />
    <path d="M1110 520 c0 -5 5 -10 10 -10 6 0 10 5 10 10 0 6 -4 10 -10 10 -5 0
-10 -4 -10 -10z" />
    <path d="M1520 267 c-283 -143 -509 -262 -503 -264 17 -6 1011 497 1017 514 3
7 4 12 3 11 -1 0 -234 -118 -517 -261z" />
    <path d="M1061 509 c-13 -5 -22 -12 -19 -14 6 -6 58 12 58 20 0 7 -11 5 -39
-6z" />
  </g>
  <g transform="translate(0.000000,247.000000) scale(0.100000,-0.100000)" fill="#b48b37" stroke="none">
    <path d="M1013 1973 c4 -3 10 -3 14 0 3 4 0 7 -7 7 -7 0 -10 -3 -7 -7z" />
    <path d="M1053 1963 c4 -3 10 -3 14 0 3 4 0 7 -7 7 -7 0 -10 -3 -7 -7z" />
    <path d="M1083 1953 c4 -3 10 -3 14 0 3 4 0 7 -7 7 -7 0 -10 -3 -7 -7z" />
    <path d="M1153 1933 c4 -3 10 -3 14 0 3 4 0 7 -7 7 -7 0 -10 -3 -7 -7z" />
    <path d="M1183 1923 c4 -3 10 -3 14 0 3 4 0 7 -7 7 -7 0 -10 -3 -7 -7z" />
    <path d="M1253 1903 c4 -3 10 -3 14 0 3 4 0 7 -7 7 -7 0 -10 -3 -7 -7z" />
    <path d="M1283 1893 c4 -3 10 -3 14 0 3 4 0 7 -7 7 -7 0 -10 -3 -7 -7z" />
    <path d="M1383 1863 c4 -3 10 -3 14 0 3 4 0 7 -7 7 -7 0 -10 -3 -7 -7z" />
    <path d="M1483 1833 c4 -3 10 -3 14 0 3 4 0 7 -7 7 -7 0 -10 -3 -7 -7z" />
    <path d="M1543 1813 c4 -3 10 -3 14 0 3 4 0 7 -7 7 -7 0 -10 -3 -7 -7z" />
    <path d="M1583 1803 c4 -3 10 -3 14 0 3 4 0 7 -7 7 -7 0 -10 -3 -7 -7z" />
    <path d="M1643 1783 c4 -3 10 -3 14 0 3 4 0 7 -7 7 -7 0 -10 -3 -7 -7z" />
    <path d="M1683 1773 c4 -3 10 -3 14 0 3 4 0 7 -7 7 -7 0 -10 -3 -7 -7z" />
    <path d="M1743 1753 c4 -3 10 -3 14 0 3 4 0 7 -7 7 -7 0 -10 -3 -7 -7z" />
    <path d="M1783 1743 c4 -3 10 -3 14 0 3 4 0 7 -7 7 -7 0 -10 -3 -7 -7z" />
    <path d="M1813 1733 c4 -3 10 -3 14 0 3 4 0 7 -7 7 -7 0 -10 -3 -7 -7z" />
    <path d="M135 1710 l-6 -10 15 0 c9 0 16 5 16 10 0 6 -4 10 -9 10 -6 0 -13 -4
-16 -10z" />
    <path d="M1883 1713 c4 -3 10 -3 14 0 3 4 0 7 -7 7 -7 0 -10 -3 -7 -7z" />
    <path d="M1913 1703 c4 -3 10 -3 14 0 3 4 0 7 -7 7 -7 0 -10 -3 -7 -7z" />
    <path d="M208 1693 c7 -3 16 -2 19 1 4 3 -2 6 -13 5 l-19 -1 13 -5z" />
    <path d="M278 1683 c6 -2 18 -2 25 0 6 3 1 5 -13 5 -14 0 -19 -2 -12 -5z" />
    <path d="M1994 1675 c23 -18 46 -19 46 -4 l0 11 -15 -5 c-8 -4 -17 -2 -20 3
-4 6 -12 10 -18 10 l-12 -1 19 -14z" />
    <path d="M358 1673 c7 -3 16 -2 19 1 4 3 -2 6 -13 5 l-19 -1 13 -5z" />
    <path d="M428 1663 c7 -3 16 -2 19 1 4 3 -2 6 -13 5 l-19 -1 13 -5z" />
    <path d="M498 1653 c7 -3 16 -2 19 1 4 3 -2 6 -13 5 l-19 -1 13 -5z" />
    <path d="M568 1643 c7 -3 16 -2 19 1 4 3 -2 6 -13 5 l-19 -1 13 -5z" />
    <path d="M638 1633 c7 -3 16 -2 19 1 4 3 -2 6 -13 5 l-19 -1 13 -5z" />
    <path d="M708 1623 c7 -3 16 -2 19 1 4 3 -2 6 -13 5 l-19 -1 13 -5z" />
    <path d="M778 1613 c7 -3 16 -2 19 1 4 3 -2 6 -13 5 l-19 -1 13 -5z" />
    <path d="M848 1603 c7 -3 16 -2 19 1 4 3 -2 6 -13 5 l-19 -1 13 -5z" />
    <path d="M918 1593 c7 -3 16 -2 19 1 4 3 -2 6 -13 5 l-19 -1 13 -5z" />
    <path d="M988 1583 c7 -3 16 -2 19 1 4 3 -2 6 -13 5 l-19 -1 13 -5z" />
    <path d="M1058 1573 c7 -3 16 -2 19 1 4 3 -2 6 -13 5 l-19 -1 13 -5z" />
    <path d="M1128 1563 c6 -2 18 -2 25 0 6 3 1 5 -13 5 -14 0 -19 -2 -12 -5z" />
    <path d="M978 1543 c6 -2 18 -2 25 0 6 3 1 5 -13 5 -14 0 -19 -2 -12 -5z" />
    <path d="M898 1533 c6 -2 18 -2 25 0 6 3 1 5 -13 5 -14 0 -19 -2 -12 -5z" />
    <path d="M818 1523 c6 -2 18 -2 25 0 6 3 1 5 -13 5 -14 0 -19 -2 -12 -5z" />
    <path d="M738 1513 c6 -2 18 -2 25 0 6 3 1 5 -13 5 -14 0 -19 -2 -12 -5z" />
    <path d="M645 1497 c-3 -7 -4 -129 -3 -272 l3 -260 28 -1 27 -1 -25 4 -25 4 0
264 0 264 23 4 22 4 -23 2 c-12 0 -25 -5 -27 -12z" />
    <path d="M428 1473 c6 -2 18 -2 25 0 6 3 1 5 -13 5 -14 0 -19 -2 -12 -5z" />
    <path d="M348 1463 c6 -2 18 -2 25 0 6 3 1 5 -13 5 -14 0 -19 -2 -12 -5z" />
    <path d="M264 1447 c-2 -7 -3 -107 -2 -222 l3 -210 23 -1 22 -2 -20 5 -20 4 0
214 0 214 18 4 17 5 -18 1 c-10 0 -20 -5 -23 -12z" />
    <path d="M348 1003 c6 -2 18 -2 25 0 6 3 1 5 -13 5 -14 0 -19 -2 -12 -5z" />
    <path d="M428 993 c6 -2 18 -2 25 0 6 3 1 5 -13 5 -14 0 -19 -2 -12 -5z" />
    <path d="M738 953 c6 -2 18 -2 25 0 6 3 1 5 -13 5 -14 0 -19 -2 -12 -5z" />
    <path d="M818 943 c6 -2 18 -2 25 0 6 3 1 5 -13 5 -14 0 -19 -2 -12 -5z" />
    <path d="M898 933 c6 -2 18 -2 25 0 6 3 1 5 -13 5 -14 0 -19 -2 -12 -5z" />
    <path d="M978 923 c6 -2 18 -2 25 0 6 3 1 5 -13 5 -14 0 -19 -2 -12 -5z" />
    <path d="M135 760 c3 -5 10 -10 16 -10 5 0 9 5 9 10 0 6 -7 10 -16 10 l-15 0
6 -10z" />
    <path d="M213 733 c4 -3 10 -3 14 0 3 4 0 7 -7 7 -7 0 -10 -3 -7 -7z" />
    <path d="M243 723 c4 -3 10 -3 14 0 3 4 0 7 -7 7 -7 0 -10 -3 -7 -7z" />
    <path d="M343 693 c4 -3 10 -3 14 0 3 4 0 7 -7 7 -7 0 -10 -3 -7 -7z" />
    <path d="M443 663 c4 -3 10 -3 14 0 3 4 0 7 -7 7 -7 0 -10 -3 -7 -7z" />
    <path d="M473 653 c4 -3 10 -3 14 0 3 4 0 7 -7 7 -7 0 -10 -3 -7 -7z" />
    <path d="M543 633 c4 -3 10 -3 14 0 3 4 0 7 -7 7 -7 0 -10 -3 -7 -7z" />
    <path d="M573 623 c4 -3 10 -3 14 0 3 4 0 7 -7 7 -7 0 -10 -3 -7 -7z" />
    <path d="M643 603 c4 -3 10 -3 14 0 3 4 0 7 -7 7 -7 0 -10 -3 -7 -7z" />
    <path d="M673 593 c4 -3 10 -3 14 0 3 4 0 7 -7 7 -7 0 -10 -3 -7 -7z" />
    <path d="M743 573 c4 -3 10 -3 14 0 3 4 0 7 -7 7 -7 0 -10 -3 -7 -7z" />
    <path d="M773 563 c4 -3 10 -3 14 0 3 4 0 7 -7 7 -7 0 -10 -3 -7 -7z" />
    <path d="M843 543 c4 -3 10 -3 14 0 3 4 0 7 -7 7 -7 0 -10 -3 -7 -7z" />
    <path d="M873 533 c4 -3 10 -3 14 0 3 4 0 7 -7 7 -7 0 -10 -3 -7 -7z" />
    <path d="M943 513 c4 -3 10 -3 14 0 3 4 0 7 -7 7 -7 0 -10 -3 -7 -7z" />
    <path d="M973 503 c4 -3 10 -3 14 0 3 4 0 7 -7 7 -7 0 -10 -3 -7 -7z" />
  </g>
  <g transform="translate(0.000000,247.000000) scale(0.100000,-0.100000)" fill="#f6f1e9" stroke="none">
    <path d="M566 2249 c-241 -121 -436 -222 -433 -225 3 -3 203 94 446 215 l441
221 301 -151 c166 -82 303 -148 306 -145 6 6 -592 306 -609 305 -7 0 -210 -99
-452 -220z" />
    <path d="M2025 1670 c-3 -5 -1 -10 4 -10 6 0 11 5 11 10 0 6 -2 10 -4 10 -3 0
-8 -4 -11 -10z" />
    <path d="M1940 1660 c0 -5 4 -10 9 -10 6 0 13 5 16 10 l6 10 -15 0 c-9 0 -16
-4 -16 -10z" />
    <path d="M1860 1650 c0 -5 4 -10 9 -10 6 0 13 5 16 10 l6 10 -15 0 c-9 0 -16
-4 -16 -10z" />
    <path d="M1780 1640 c0 -5 4 -10 9 -10 6 0 13 5 16 10 l6 10 -15 0 c-9 0 -16
-4 -16 -10z" />
    <path d="M1700 1630 c0 -5 4 -10 9 -10 6 0 13 5 16 10 l6 10 -15 0 c-9 0 -16
-4 -16 -10z" />
    <path d="M1620 1620 c0 -5 4 -10 9 -10 6 0 13 5 16 10 l6 10 -15 0 c-9 0 -16
-4 -16 -10z" />
    <path d="M1540 1610 c0 -5 4 -10 9 -10 6 0 13 5 16 10 l6 10 -15 0 c-9 0 -16
-4 -16 -10z" />
    <path d="M1460 1600 c0 -5 4 -10 9 -10 6 0 13 5 16 10 l6 10 -15 0 c-9 0 -16
-4 -16 -10z" />
    <path d="M1380 1590 c0 -5 4 -10 9 -10 6 0 13 5 16 10 l6 10 -15 0 c-9 0 -16
-4 -16 -10z" />
    <path d="M1300 1580 c0 -5 4 -10 9 -10 6 0 13 5 16 10 l6 10 -15 0 c-9 0 -16
-4 -16 -10z" />
    <path d="M1220 1570 c0 -5 4 -10 9 -10 6 0 13 5 16 10 l6 10 -15 0 c-9 0 -16
-4 -16 -10z" />
    <path d="M1160 1551 c0 -10 6 -21 13 -24 l12 -4 0 23 0 24 -12 0 c-7 0 -13 -9
-13 -19z" />
    <path d="M1220 1520 c0 -5 7 -10 16 -10 l15 0 -6 10 c-3 6 -10 10 -16 10 -5 0
-9 -4 -9 -10z" />
    <path d="M1300 1510 c0 -5 7 -10 16 -10 l15 0 -6 10 c-3 6 -10 10 -16 10 -5 0
-9 -4 -9 -10z" />
    <path d="M1370 1500 c0 -5 9 -10 21 -10 l20 0 -6 10 c-3 6 -13 10 -21 10 -8 0
-14 -4 -14 -10z" />
    <path d="M1450 1490 c0 -5 7 -10 16 -10 l15 0 -6 10 c-3 6 -10 10 -16 10 -5 0
-9 -4 -9 -10z" />
    <path d="M1530 1480 c0 -5 7 -10 16 -10 l15 0 -6 10 c-3 6 -10 10 -16 10 -5 0
-9 -4 -9 -10z" />
    <path d="M1610 1470 c0 -5 7 -10 16 -10 l15 0 -6 10 c-3 6 -10 10 -16 10 -5 0
-9 -4 -9 -10z" />
    <path d="M1690 1460 c0 -5 7 -10 16 -10 l15 0 -6 10 c-3 6 -10 10 -16 10 -5 0
-9 -4 -9 -10z" />
    <path d="M1770 1450 c0 -5 7 -10 16 -10 l15 0 -6 10 c-3 6 -10 10 -16 10 -5 0
-9 -4 -9 -10z" />
    <path d="M1840 1440 c0 -5 9 -10 21 -10 l20 0 -6 10 c-3 6 -13 10 -21 10 -8 0
-14 -4 -14 -10z" />
    <path d="M1920 1430 c0 -5 7 -10 16 -10 l15 0 -6 10 c-3 6 -10 10 -16 10 -5 0
-9 -4 -9 -10z" />
    <path d="M2000 1420 c0 -5 7 -10 16 -10 l15 0 -6 10 c-3 6 -10 10 -16 10 -5 0
-9 -4 -9 -10z" />
    <path d="M1990 1050 c0 -5 4 -10 9 -10 6 0 13 5 16 10 l6 10 -15 0 c-9 0 -16
-4 -16 -10z" />
    <path d="M1910 1040 c0 -5 4 -10 9 -10 6 0 13 5 16 10 l6 10 -15 0 c-9 0 -16
-4 -16 -10z" />
    <path d="M1830 1030 c0 -5 4 -10 9 -10 6 0 13 5 16 10 l6 10 -15 0 c-9 0 -16
-4 -16 -10z" />
    <path d="M1750 1020 c0 -5 6 -10 14 -10 8 0 18 5 21 10 l6 10 -20 0 c-12 0
-21 -4 -21 -10z" />
    <path d="M1670 1010 c0 -5 6 -10 14 -10 8 0 18 5 21 10 l6 10 -20 0 c-12 0
-21 -4 -21 -10z" />
    <path d="M1590 1000 c0 -5 6 -10 14 -10 8 0 18 5 21 10 l6 10 -20 0 c-12 0
-21 -4 -21 -10z" />
    <path d="M1520 990 c0 -5 4 -10 9 -10 6 0 13 5 16 10 l6 10 -15 0 c-9 0 -16
-4 -16 -10z" />
    <path d="M1440 980 c0 -5 4 -10 9 -10 6 0 13 5 16 10 l6 10 -15 0 c-9 0 -16
-4 -16 -10z" />
    <path d="M1360 970 c0 -5 4 -10 9 -10 6 0 13 5 16 10 l6 10 -15 0 c-9 0 -16
-4 -16 -10z" />
    <path d="M1280 960 c0 -5 4 -10 9 -10 6 0 13 5 16 10 l6 10 -15 0 c-9 0 -16
-4 -16 -10z" />
    <path d="M1200 950 c0 -5 4 -10 9 -10 6 0 13 5 16 10 l6 10 -15 0 c-9 0 -16
-4 -16 -10z" />
    <path d="M1167 943 c-11 -11 -8 -30 6 -36 l12 -4 0 23 c0 24 -6 30 -18 17z" />
    <path d="M1208 903 c7 -3 16 -2 19 1 4 3 -2 6 -13 5 l-19 -1 13 -5z" />
    <path d="M1288 893 c7 -3 16 -2 19 1 4 3 -2 6 -13 5 l-19 -1 13 -5z" />
    <path d="M1368 883 c7 -3 16 -2 19 1 4 3 -2 6 -13 5 l-19 -1 13 -5z" />
    <path d="M1448 873 c7 -3 16 -2 19 1 4 3 -2 6 -13 5 l-19 -1 13 -5z" />
    <path d="M1528 863 c7 -3 16 -2 19 1 4 3 -2 6 -13 5 l-19 -1 13 -5z" />
    <path d="M1608 853 c7 -3 16 -2 19 1 4 3 -2 6 -13 5 l-19 -1 13 -5z" />
    <path d="M1688 843 c7 -3 16 -2 19 1 4 3 -2 6 -13 5 l-19 -1 13 -5z" />
    <path d="M1768 833 c7 -3 16 -2 19 1 4 3 -2 6 -13 5 l-19 -1 13 -5z" />
    <path d="M1848 823 c7 -3 16 -2 19 1 4 3 -2 6 -13 5 l-19 -1 13 -5z" />
    <path d="M1928 813 c7 -3 16 -2 19 1 4 3 -2 6 -13 5 l-19 -1 13 -5z" />
    <path d="M2005 800 c3 -5 10 -10 16 -10 5 0 9 5 9 10 0 6 -7 10 -16 10 l-15 0
6 -10z" />
    <path d="M174 423 c2 -5 194 -102 425 -218 l421 -210 366 183 c202 101 364
185 361 188 -3 3 -167 -76 -366 -175 l-361 -181 -420 210 c-231 115 -422 210
-426 210 -3 0 -3 -3 0 -7z" />
  </g>
  <g transform="translate(0.000000,247.000000) scale(0.100000,-0.100000)" fill="#d6a028" stroke="none">
    <path d="M1020 2465 c0 -7 1001 -507 1006 -503 1 2 -224 117 -502 256 -277
138 -504 250 -504 247z" />
    <path d="M2024 1668 l-7 -11 11 7 c7 4 12 9 12 12 0 8 -9 4 -16 -8z" />
    <path d="M1157 1550 c3 -11 7 -20 8 -20 1 0 5 9 8 20 l5 20 -13 0 -13 0 5 -20z" />
    <path d="M1215 1520 c3 -5 14 -10 23 -10 l17 0 -15 10 c-20 13 -33 13 -25 0z" />
    <path d="M1295 1510 c3 -5 14 -10 23 -10 l17 0 -15 10 c-20 13 -33 13 -25 0z" />
    <path d="M1365 1500 c3 -5 18 -10 32 -10 32 0 28 5 -10 14 l-29 7 7 -11z" />
    <path d="M1445 1490 c3 -5 18 -10 32 -10 32 0 28 5 -10 14 l-29 7 7 -11z" />
    <path d="M1525 1480 c3 -5 18 -10 32 -10 32 0 28 5 -10 14 l-29 7 7 -11z" />
    <path d="M1605 1470 c3 -5 14 -10 23 -10 l17 0 -15 10 c-20 13 -33 13 -25 0z" />
    <path d="M1685 1460 c3 -5 14 -10 23 -10 l17 0 -15 10 c-20 13 -33 13 -25 0z" />
    <path d="M1755 1450 c3 -5 16 -10 28 -10 l22 0 -15 10 c-20 13 -43 13 -35 0z" />
    <path d="M1835 1440 c3 -5 18 -10 32 -10 32 0 28 5 -10 14 l-29 7 7 -11z" />
    <path d="M1915 1430 c3 -5 18 -10 32 -10 32 0 28 5 -10 14 l-29 7 7 -11z" />
    <path d="M1994 1421 c3 -5 16 -11 28 -14 l23 -6 -19 14 c-22 17 -40 20 -32 6z" />
    <path d="M2015 1062 c-11 -2 -24 -8 -30 -14 l-10 -9 30 7 c17 4 32 8 34 10 8
7 -4 10 -24 6z" />
    <path d="M1905 1040 l-7 -11 29 7 c38 9 42 14 10 14 -14 0 -29 -5 -32 -10z" />
    <path d="M1825 1030 l-7 -11 29 7 c38 9 42 14 10 14 -14 0 -29 -5 -32 -10z" />
    <path d="M1745 1020 l-7 -11 29 7 c38 9 42 14 10 14 -14 0 -29 -5 -32 -10z" />
    <path d="M1665 1010 l-7 -11 29 7 c38 9 42 14 10 14 -14 0 -29 -5 -32 -10z" />
    <path d="M1585 1000 c-7 -12 2 -12 30 0 l20 9 -22 0 c-12 1 -25 -3 -28 -9z" />
    <path d="M1505 990 c-8 -13 15 -13 35 0 l15 10 -22 0 c-12 0 -25 -4 -28 -10z" />
    <path d="M1425 980 c-8 -13 15 -13 35 0 l15 10 -22 0 c-12 0 -25 -4 -28 -10z" />
    <path d="M1355 970 c-8 -13 5 -13 25 0 l15 10 -17 0 c-9 0 -20 -4 -23 -10z" />
    <path d="M1275 960 c-8 -13 5 -13 25 0 l15 10 -17 0 c-9 0 -20 -4 -23 -10z" />
    <path d="M1195 950 c-8 -13 5 -13 25 0 l15 10 -17 0 c-9 0 -20 -4 -23 -10z" />
    <path d="M1163 933 c-3 -10 -8 -22 -11 -27 -3 -5 0 -6 5 -3 11 7 25 47 17 47
-3 0 -7 -8 -11 -17z" />
    <path d="M1518 259 c-274 -137 -498 -251 -498 -254 0 -5 999 492 1009 501 19
17 -77 -29 -511 -247z" />
  </g>
  <g transform="translate(0.000000,247.000000) scale(0.100000,-0.100000)" fill="#ddaf54" stroke="none">
    <path d="M1183 1523 c4 -3 10 -3 14 0 3 4 0 7 -7 7 -7 0 -10 -3 -7 -7z" />
    <path d="M1263 1513 c4 -3 10 -3 14 0 3 4 0 7 -7 7 -7 0 -10 -3 -7 -7z" />
    <path d="M1413 1493 c4 -3 10 -3 14 0 3 4 0 7 -7 7 -7 0 -10 -3 -7 -7z" />
    <path d="M1493 1483 c4 -3 10 -3 14 0 3 4 0 7 -7 7 -7 0 -10 -3 -7 -7z" />
    <path d="M1573 1473 c4 -3 10 -3 14 0 3 4 0 7 -7 7 -7 0 -10 -3 -7 -7z" />
    <path d="M1653 1463 c4 -3 10 -3 14 0 3 4 0 7 -7 7 -7 0 -10 -3 -7 -7z" />
    <path d="M1733 1453 c4 -3 10 -3 14 0 3 4 0 7 -7 7 -7 0 -10 -3 -7 -7z" />
    <path d="M1883 1433 c4 -3 10 -3 14 0 3 4 0 7 -7 7 -7 0 -10 -3 -7 -7z" />
    <path d="M1963 1423 c4 -3 10 -3 14 0 3 4 0 7 -7 7 -7 0 -10 -3 -7 -7z" />
    <path d="M2034 1230 c0 -102 2 -143 3 -92 2 50 2 134 0 185 -1 50 -3 9 -3 -93z" />
    <path d="M1953 1043 c4 -3 10 -3 14 0 3 4 0 7 -7 7 -7 0 -10 -3 -7 -7z" />
    <path d="M1873 1033 c4 -3 10 -3 14 0 3 4 0 7 -7 7 -7 0 -10 -3 -7 -7z" />
    <path d="M1793 1023 c4 -3 10 -3 14 0 3 4 0 7 -7 7 -7 0 -10 -3 -7 -7z" />
    <path d="M1713 1013 c4 -3 10 -3 14 0 3 4 0 7 -7 7 -7 0 -10 -3 -7 -7z" />
    <path d="M1323 963 c4 -3 10 -3 14 0 3 4 0 7 -7 7 -7 0 -10 -3 -7 -7z" />
    <path d="M1243 953 c4 -3 10 -3 14 0 3 4 0 7 -7 7 -7 0 -10 -3 -7 -7z" />
    <path d="M1128 903 c7 -3 16 -2 19 1 4 3 -2 6 -13 5 l-19 -1 13 -5z" />
    <path d="M1058 893 c7 -3 16 -2 19 1 4 3 -2 6 -13 5 l-19 -1 13 -5z" />
    <path d="M988 883 c7 -3 16 -2 19 1 4 3 -2 6 -13 5 l-19 -1 13 -5z" />
    <path d="M908 873 c7 -3 16 -2 19 1 4 3 -2 6 -13 5 l-19 -1 13 -5z" />
    <path d="M838 863 c7 -3 16 -2 19 1 4 3 -2 6 -13 5 l-19 -1 13 -5z" />
    <path d="M768 853 c7 -3 16 -2 19 1 4 3 -2 6 -13 5 l-19 -1 13 -5z" />
    <path d="M698 843 c7 -3 16 -2 19 1 4 3 -2 6 -13 5 l-19 -1 13 -5z" />
    <path d="M628 833 c7 -3 16 -2 19 1 4 3 -2 6 -13 5 l-19 -1 13 -5z" />
    <path d="M558 823 c7 -3 16 -2 19 1 4 3 -2 6 -13 5 l-19 -1 13 -5z" />
    <path d="M488 813 c7 -3 16 -2 19 1 4 3 -2 6 -13 5 l-19 -1 13 -5z" />
    <path d="M418 803 c7 -3 16 -2 19 1 4 3 -2 6 -13 5 l-19 -1 13 -5z" />
    <path d="M348 793 c7 -3 16 -2 19 1 4 3 -2 6 -13 5 l-19 -1 13 -5z" />
    <path d="M2017 793 l12 -9 4 -134 3 -135 -1 139 0 139 -15 4 -15 5 12 -9z" />
    <path d="M278 783 c7 -3 16 -2 19 1 4 3 -2 6 -13 5 l-19 -1 13 -5z" />
    <path d="M1983 783 c4 -3 10 -3 14 0 3 4 0 7 -7 7 -7 0 -10 -3 -7 -7z" />
    <path d="M208 773 c7 -3 16 -2 19 1 4 3 -2 6 -13 5 l-19 -1 13 -5z" />
    <path d="M130 766 c0 -2 7 -6 15 -10 8 -3 15 -1 15 4 0 6 -7 10 -15 10 -8 0
-15 -2 -15 -4z" />
    <path d="M1913 763 c4 -3 10 -3 14 0 3 4 0 7 -7 7 -7 0 -10 -3 -7 -7z" />
    <path d="M1883 753 c4 -3 10 -3 14 0 3 4 0 7 -7 7 -7 0 -10 -3 -7 -7z" />
    <path d="M1813 733 c4 -3 10 -3 14 0 3 4 0 7 -7 7 -7 0 -10 -3 -7 -7z" />
    <path d="M1783 723 c4 -3 10 -3 14 0 3 4 0 7 -7 7 -7 0 -10 -3 -7 -7z" />
    <path d="M1753 713 c4 -3 10 -3 14 0 3 4 0 7 -7 7 -7 0 -10 -3 -7 -7z" />
    <path d="M1713 703 c4 -3 10 -3 14 0 3 4 0 7 -7 7 -7 0 -10 -3 -7 -7z" />
    <path d="M1683 693 c4 -3 10 -3 14 0 3 4 0 7 -7 7 -7 0 -10 -3 -7 -7z" />
    <path d="M1653 683 c4 -3 10 -3 14 0 3 4 0 7 -7 7 -7 0 -10 -3 -7 -7z" />
    <path d="M1613 673 c4 -3 10 -3 14 0 3 4 0 7 -7 7 -7 0 -10 -3 -7 -7z" />
    <path d="M1583 663 c4 -3 10 -3 14 0 3 4 0 7 -7 7 -7 0 -10 -3 -7 -7z" />
    <path d="M1553 653 c4 -3 10 -3 14 0 3 4 0 7 -7 7 -7 0 -10 -3 -7 -7z" />
    <path d="M1513 643 c4 -3 10 -3 14 0 3 4 0 7 -7 7 -7 0 -10 -3 -7 -7z" />
    <path d="M1483 633 c4 -3 10 -3 14 0 3 4 0 7 -7 7 -7 0 -10 -3 -7 -7z" />
    <path d="M1453 623 c4 -3 10 -3 14 0 3 4 0 7 -7 7 -7 0 -10 -3 -7 -7z" />
    <path d="M1413 613 c4 -3 10 -3 14 0 3 4 0 7 -7 7 -7 0 -10 -3 -7 -7z" />
    <path d="M1383 603 c4 -3 10 -3 14 0 3 4 0 7 -7 7 -7 0 -10 -3 -7 -7z" />
    <path d="M1353 593 c4 -3 10 -3 14 0 3 4 0 7 -7 7 -7 0 -10 -3 -7 -7z" />
    <path d="M1313 583 c4 -3 10 -3 14 0 3 4 0 7 -7 7 -7 0 -10 -3 -7 -7z" />
    <path d="M1283 573 c4 -3 10 -3 14 0 3 4 0 7 -7 7 -7 0 -10 -3 -7 -7z" />
    <path d="M1253 563 c4 -3 10 -3 14 0 3 4 0 7 -7 7 -7 0 -10 -3 -7 -7z" />
    <path d="M1213 553 c4 -3 10 -3 14 0 3 4 0 7 -7 7 -7 0 -10 -3 -7 -7z" />
    <path d="M1183 543 c4 -3 10 -3 14 0 3 4 0 7 -7 7 -7 0 -10 -3 -7 -7z" />
    <path d="M1153 533 c4 -3 10 -3 14 0 3 4 0 7 -7 7 -7 0 -10 -3 -7 -7z" />
    <path d="M1113 523 c4 -3 10 -3 14 0 3 4 0 7 -7 7 -7 0 -10 -3 -7 -7z" />
    <path d="M1083 513 c4 -3 10 -3 14 0 3 4 0 7 -7 7 -7 0 -10 -3 -7 -7z" />
    <path d="M1053 503 c4 -3 10 -3 14 0 3 4 0 7 -7 7 -7 0 -10 -3 -7 -7z" />
  </g>
  <g transform="translate(0.000000,247.000000) scale(0.100000,-0.100000)" fill="#eac47d" stroke="none">
    <path d="M1193 1523 c4 -3 10 -3 14 0 3 4 0 7 -7 7 -7 0 -10 -3 -7 -7z" />
    <path d="M1273 1513 c4 -3 10 -3 14 0 3 4 0 7 -7 7 -7 0 -10 -3 -7 -7z" />
    <path d="M1583 1473 c4 -3 10 -3 14 0 3 4 0 7 -7 7 -7 0 -10 -3 -7 -7z" />
    <path d="M1663 1463 c4 -3 10 -3 14 0 3 4 0 7 -7 7 -7 0 -10 -3 -7 -7z" />
    <path d="M1743 1453 c4 -3 10 -3 14 0 3 4 0 7 -7 7 -7 0 -10 -3 -7 -7z" />
    <path d="M1488 983 c7 -3 16 -2 19 1 4 3 -2 6 -13 5 l-19 -1 13 -5z" />
    <path d="M1408 973 c7 -3 16 -2 19 1 4 3 -2 6 -13 5 l-19 -1 13 -5z" />
    <path d="M1333 963 c4 -3 10 -3 14 0 3 4 0 7 -7 7 -7 0 -10 -3 -7 -7z" />
    <path d="M1253 953 c4 -3 10 -3 14 0 3 4 0 7 -7 7 -7 0 -10 -3 -7 -7z" />
    <path d="M1143 903 c4 -3 10 -3 14 0 3 4 0 7 -7 7 -7 0 -10 -3 -7 -7z" />
    <path d="M1073 893 c4 -3 10 -3 14 0 3 4 0 7 -7 7 -7 0 -10 -3 -7 -7z" />
    <path d="M1003 883 c4 -3 10 -3 14 0 3 4 0 7 -7 7 -7 0 -10 -3 -7 -7z" />
    <path d="M928 873 c7 -3 16 -2 19 1 4 3 -2 6 -13 5 l-19 -1 13 -5z" />
    <path d="M858 863 c7 -3 16 -2 19 1 4 3 -2 6 -13 5 l-19 -1 13 -5z" />
    <path d="M788 853 c7 -3 16 -2 19 1 4 3 -2 6 -13 5 l-19 -1 13 -5z" />
    <path d="M718 843 c7 -3 16 -2 19 1 4 3 -2 6 -13 5 l-19 -1 13 -5z" />
    <path d="M648 833 c7 -3 16 -2 19 1 4 3 -2 6 -13 5 l-19 -1 13 -5z" />
    <path d="M578 823 c7 -3 16 -2 19 1 4 3 -2 6 -13 5 l-19 -1 13 -5z" />
    <path d="M508 813 c7 -3 16 -2 19 1 4 3 -2 6 -13 5 l-19 -1 13 -5z" />
    <path d="M433 803 c4 -3 10 -3 14 0 3 4 0 7 -7 7 -7 0 -10 -3 -7 -7z" />
    <path d="M2005 800 c3 -5 8 -10 11 -10 3 0 2 5 -1 10 -3 6 -8 10 -11 10 -3 0
-2 -4 1 -10z" />
    <path d="M363 793 c4 -3 10 -3 14 0 3 4 0 7 -7 7 -7 0 -10 -3 -7 -7z" />
    <path d="M293 783 c4 -3 10 -3 14 0 3 4 0 7 -7 7 -7 0 -10 -3 -7 -7z" />
    <path d="M223 773 c4 -3 10 -3 14 0 3 4 0 7 -7 7 -7 0 -10 -3 -7 -7z" />
    <path d="M1943 773 c4 -3 10 -3 14 0 3 4 0 7 -7 7 -7 0 -10 -3 -7 -7z" />
    <path d="M150 759 c0 -5 5 -7 10 -4 6 3 10 8 10 11 0 2 -4 4 -10 4 -5 0 -10
-5 -10 -11z" />
    <path d="M183 743 c4 -3 10 -3 14 0 3 4 0 7 -7 7 -7 0 -10 -3 -7 -7z" />
    <path d="M1843 743 c4 -3 10 -3 14 0 3 4 0 7 -7 7 -7 0 -10 -3 -7 -7z" />
    <path d="M283 713 c4 -3 10 -3 14 0 3 4 0 7 -7 7 -7 0 -10 -3 -7 -7z" />
    <path d="M1743 713 c4 -3 10 -3 14 0 3 4 0 7 -7 7 -7 0 -10 -3 -7 -7z" />
    <path d="M383 683 c4 -3 10 -3 14 0 3 4 0 7 -7 7 -7 0 -10 -3 -7 -7z" />
    <path d="M490 650 c8 -5 22 -9 30 -9 l15 0 -20 9 c-27 12 -43 12 -25 0z" />
    <path d="M590 620 c8 -5 22 -9 30 -9 l15 0 -20 9 c-27 12 -43 12 -25 0z" />
    <path d="M690 590 c8 -5 22 -9 30 -9 l15 0 -20 9 c-27 12 -43 12 -25 0z" />
    <path d="M790 560 c8 -5 22 -9 30 -9 l15 0 -20 9 c-27 12 -43 12 -25 0z" />
    <path d="M890 530 c8 -5 22 -9 30 -9 l15 0 -20 9 c-27 12 -43 12 -25 0z" />
    <path d="M1013 493 c4 -3 10 -3 14 0 3 4 0 7 -7 7 -7 0 -10 -3 -7 -7z" />
    <path d="M1013 3 c4 -3 10 -3 14 0 3 4 0 7 -7 7 -7 0 -10 -3 -7 -7z" />
  </g>
  <g transform="translate(0.000000,247.000000) scale(0.100000,-0.100000)" fill="#7c5900" stroke="none">
    <path d="M510 2215 c-278 -140 -502 -254 -497 -254 10 -1 1007 498 1007 504 0
3 -1 5 -2 4 -2 0 -230 -114 -508 -254z" />
    <path d="M11 506 c10 -9 1009 -506 1009 -501 0 5 -996 505 -1007 505 -3 0 -4
-2 -2 -4z" />
  </g>
  <g transform="translate(0.000000,247.000000) scale(0.100000,-0.100000)" fill="#b39f7c" stroke="none">
    <path d="M173 743 c4 -3 10 -3 14 0 3 4 0 7 -7 7 -7 0 -10 -3 -7 -7z" />
    <path d="M273 713 c4 -3 10 -3 14 0 3 4 0 7 -7 7 -7 0 -10 -3 -7 -7z" />
    <path d="M313 703 c4 -3 10 -3 14 0 3 4 0 7 -7 7 -7 0 -10 -3 -7 -7z" />
    <path d="M373 683 c4 -3 10 -3 14 0 3 4 0 7 -7 7 -7 0 -10 -3 -7 -7z" />
    <path d="M413 673 c4 -3 10 -3 14 0 3 4 0 7 -7 7 -7 0 -10 -3 -7 -7z" />
    <path d="M503 643 c4 -3 10 -3 14 0 3 4 0 7 -7 7 -7 0 -10 -3 -7 -7z" />
    <path d="M603 613 c4 -3 10 -3 14 0 3 4 0 7 -7 7 -7 0 -10 -3 -7 -7z" />
    <path d="M703 583 c4 -3 10 -3 14 0 3 4 0 7 -7 7 -7 0 -10 -3 -7 -7z" />
    <path d="M803 553 c4 -3 10 -3 14 0 3 4 0 7 -7 7 -7 0 -10 -3 -7 -7z" />
    <path d="M903 523 c4 -3 10 -3 14 0 3 4 0 7 -7 7 -7 0 -10 -3 -7 -7z" />
    <path d="M1003 493 c4 -3 10 -3 14 0 3 4 0 7 -7 7 -7 0 -10 -3 -7 -7z" />
  </g>
  <g transform="translate(0.000000,247.000000) scale(0.100000,-0.100000)" fill="#967431" stroke="none">
    <path d="M1043 1963 c4 -3 10 -3 14 0 3 4 0 7 -7 7 -7 0 -10 -3 -7 -7z" />
    <path d="M1143 1933 c4 -3 10 -3 14 0 3 4 0 7 -7 7 -7 0 -10 -3 -7 -7z" />
    <path d="M1243 1903 c4 -3 10 -3 14 0 3 4 0 7 -7 7 -7 0 -10 -3 -7 -7z" />
    <path d="M1343 1873 c4 -3 10 -3 14 0 3 4 0 7 -7 7 -7 0 -10 -3 -7 -7z" />
    <path d="M1443 1843 c4 -3 10 -3 14 0 3 4 0 7 -7 7 -7 0 -10 -3 -7 -7z" />
    <path d="M1673 1773 c4 -3 10 -3 14 0 3 4 0 7 -7 7 -7 0 -10 -3 -7 -7z" />
    <path d="M1773 1743 c4 -3 10 -3 14 0 3 4 0 7 -7 7 -7 0 -10 -3 -7 -7z" />
    <path d="M145 1710 c3 -5 8 -10 11 -10 2 0 4 5 4 10 0 6 -5 10 -11 10 -5 0 -7
-4 -4 -10z" />
    <path d="M1873 1713 c4 -3 10 -3 14 0 3 4 0 7 -7 7 -7 0 -10 -3 -7 -7z" />
    <path d="M228 1693 c7 -3 16 -2 19 1 4 3 -2 6 -13 5 l-19 -1 13 -5z" />
    <path d="M303 1683 c4 -3 10 -3 14 0 3 4 0 7 -7 7 -7 0 -10 -3 -7 -7z" />
    <path d="M1980 1683 c5 -2 8 -9 4 -14 -3 -5 0 -9 6 -9 15 0 7 23 -8 26 l-12 3
10 -6z" />
    <path d="M1903 1653 c4 -3 10 -3 14 0 3 4 0 7 -7 7 -7 0 -10 -3 -7 -7z" />
    <path d="M1823 1643 c4 -3 10 -3 14 0 3 4 0 7 -7 7 -7 0 -10 -3 -7 -7z" />
    <path d="M1738 1633 c7 -3 16 -2 19 1 4 3 -2 6 -13 5 l-19 -1 13 -5z" />
    <path d="M1658 1623 c7 -3 16 -2 19 1 4 3 -2 6 -13 5 l-19 -1 13 -5z" />
    <path d="M1078 1573 c7 -3 16 -2 19 1 4 3 -2 6 -13 5 l-19 -1 13 -5z" />
    <path d="M1153 1563 c4 -3 10 -3 14 0 3 4 0 7 -7 7 -7 0 -10 -3 -7 -7z" />
    <path d="M923 1533 c4 -3 10 -3 14 0 3 4 0 7 -7 7 -7 0 -10 -3 -7 -7z" />
    <path d="M843 1523 c4 -3 10 -3 14 0 3 4 0 7 -7 7 -7 0 -10 -3 -7 -7z" />
    <path d="M763 1513 c4 -3 10 -3 14 0 3 4 0 7 -7 7 -7 0 -10 -3 -7 -7z" />
    <path d="M683 1503 c4 -3 10 -3 14 0 3 4 0 7 -7 7 -7 0 -10 -3 -7 -7z" />
    <path d="M453 1473 c4 -3 10 -3 14 0 3 4 0 7 -7 7 -7 0 -10 -3 -7 -7z" />
    <path d="M373 1463 c4 -3 10 -3 14 0 3 4 0 7 -7 7 -7 0 -10 -3 -7 -7z" />
    <path d="M293 1453 c4 -3 10 -3 14 0 3 4 0 7 -7 7 -7 0 -10 -3 -7 -7z" />
    <path d="M373 1003 c4 -3 10 -3 14 0 3 4 0 7 -7 7 -7 0 -10 -3 -7 -7z" />
    <path d="M453 993 c4 -3 10 -3 14 0 3 4 0 7 -7 7 -7 0 -10 -3 -7 -7z" />
    <path d="M763 953 c4 -3 10 -3 14 0 3 4 0 7 -7 7 -7 0 -10 -3 -7 -7z" />
    <path d="M843 943 c4 -3 10 -3 14 0 3 4 0 7 -7 7 -7 0 -10 -3 -7 -7z" />
    <path d="M923 933 c4 -3 10 -3 14 0 3 4 0 7 -7 7 -7 0 -10 -3 -7 -7z" />
    <path d="M1003 923 c4 -3 10 -3 14 0 3 4 0 7 -7 7 -7 0 -10 -3 -7 -7z" />
  </g>
  <g transform="translate(0.000000,247.000000) scale(0.100000,-0.100000)" fill="#e7c994" stroke="none">
    <path d="M1203 1523 c4 -3 10 -3 14 0 3 4 0 7 -7 7 -7 0 -10 -3 -7 -7z" />
    <path d="M1283 1513 c4 -3 10 -3 14 0 3 4 0 7 -7 7 -7 0 -10 -3 -7 -7z" />
    <path d="M1348 1503 c7 -3 16 -2 19 1 4 3 -2 6 -13 5 l-19 -1 13 -5z" />
    <path d="M1428 1493 c7 -3 16 -2 19 1 4 3 -2 6 -13 5 l-19 -1 13 -5z" />
    <path d="M1508 1483 c7 -3 16 -2 19 1 4 3 -2 6 -13 5 l-19 -1 13 -5z" />
    <path d="M1593 1473 c4 -3 10 -3 14 0 3 4 0 7 -7 7 -7 0 -10 -3 -7 -7z" />
    <path d="M1673 1463 c4 -3 10 -3 14 0 3 4 0 7 -7 7 -7 0 -10 -3 -7 -7z" />
    <path d="M1753 1453 c4 -3 10 -3 14 0 3 4 0 7 -7 7 -7 0 -10 -3 -7 -7z" />
    <path d="M1818 1443 c7 -3 16 -2 19 1 4 3 -2 6 -13 5 l-19 -1 13 -5z" />
    <path d="M1898 1433 c7 -3 16 -2 19 1 4 3 -2 6 -13 5 l-19 -1 13 -5z" />
    <path d="M1978 1423 c7 -3 16 -2 19 1 4 3 -2 6 -13 5 l-19 -1 13 -5z" />
    <path d="M1968 1043 c7 -3 16 -2 19 1 4 3 -2 6 -13 5 l-19 -1 13 -5z" />
    <path d="M1888 1033 c7 -3 16 -2 19 1 4 3 -2 6 -13 5 l-19 -1 13 -5z" />
    <path d="M1808 1023 c7 -3 16 -2 19 1 4 3 -2 6 -13 5 l-19 -1 13 -5z" />
    <path d="M1728 1013 c7 -3 16 -2 19 1 4 3 -2 6 -13 5 l-19 -1 13 -5z" />
    <path d="M1648 1003 c7 -3 16 -2 19 1 4 3 -2 6 -13 5 l-19 -1 13 -5z" />
    <path d="M1568 993 c7 -3 16 -2 19 1 4 3 -2 6 -13 5 l-19 -1 13 -5z" />
    <path d="M1423 973 c4 -3 10 -3 14 0 3 4 0 7 -7 7 -7 0 -10 -3 -7 -7z" />
    <path d="M1343 963 c4 -3 10 -3 14 0 3 4 0 7 -7 7 -7 0 -10 -3 -7 -7z" />
    <path d="M1263 953 c4 -3 10 -3 14 0 3 4 0 7 -7 7 -7 0 -10 -3 -7 -7z" />
    <path d="M1178 943 c7 -3 16 -2 19 1 4 3 -2 6 -13 5 l-19 -1 13 -5z" />
  </g>
  <g transform="translate(0.000000,247.000000) scale(0.100000,-0.100000)" fill="#705623" stroke="none">
    <path d="M913 1943 c4 -3 10 -3 14 0 3 4 0 7 -7 7 -7 0 -10 -3 -7 -7z" />
    <path d="M813 1913 c4 -3 10 -3 14 0 3 4 0 7 -7 7 -7 0 -10 -3 -7 -7z" />
    <path d="M713 1883 c4 -3 10 -3 14 0 3 4 0 7 -7 7 -7 0 -10 -3 -7 -7z" />
    <path d="M613 1853 c4 -3 10 -3 14 0 3 4 0 7 -7 7 -7 0 -10 -3 -7 -7z" />
    <path d="M513 1823 c4 -3 10 -3 14 0 3 4 0 7 -7 7 -7 0 -10 -3 -7 -7z" />
    <path d="M413 1793 c4 -3 10 -3 14 0 3 4 0 7 -7 7 -7 0 -10 -3 -7 -7z" />
    <path d="M313 1763 c4 -3 10 -3 14 0 3 4 0 7 -7 7 -7 0 -10 -3 -7 -7z" />
    <path d="M213 1733 c4 -3 10 -3 14 0 3 4 0 7 -7 7 -7 0 -10 -3 -7 -7z" />
    <path d="M143 1713 c4 -3 10 -3 14 0 3 4 0 7 -7 7 -7 0 -10 -3 -7 -7z" />
    <path d="M1723 1633 c4 -3 10 -3 14 0 3 4 0 7 -7 7 -7 0 -10 -3 -7 -7z" />
    <path d="M1643 1623 c4 -3 10 -3 14 0 3 4 0 7 -7 7 -7 0 -10 -3 -7 -7z" />
    <path d="M1568 1613 c7 -3 16 -2 19 1 4 3 -2 6 -13 5 l-19 -1 13 -5z" />
    <path d="M1488 1603 c7 -3 16 -2 19 1 4 3 -2 6 -13 5 l-19 -1 13 -5z" />
    <path d="M1408 1593 c7 -3 16 -2 19 1 4 3 -2 6 -13 5 l-19 -1 13 -5z" />
    <path d="M1328 1583 c7 -3 16 -2 19 1 4 3 -2 6 -13 5 l-19 -1 13 -5z" />
    <path d="M1248 1573 c7 -3 16 -2 19 1 4 3 -2 6 -13 5 l-19 -1 13 -5z" />
    <path d="M1168 1563 c7 -3 16 -2 19 1 4 3 -2 6 -13 5 l-19 -1 13 -5z" />
  </g>
  <g transform="translate(0.000000,247.000000) scale(0.100000,-0.100000)" fill="#dcb772" stroke="none">
    <path d="M1013 2463 c4 -3 10 -3 14 0 3 4 0 7 -7 7 -7 0 -10 -3 -7 -7z" />
  </g>
  <g transform="translate(0.000000,247.000000) scale(0.100000,-0.100000)" fill="#553900" stroke="none">
    <path d="M1990 1670 c0 -5 7 -10 16 -10 l15 0 -6 10 c-3 6 -10 10 -16 10 -5 0
-9 -4 -9 -10z" />
    <path d="M1915 1660 l-6 -10 18 0 c10 0 25 5 33 10 l15 10 -27 0 c-15 0 -30
-4 -33 -10z" />
    <path d="M1835 1650 l-6 -10 18 0 c10 0 25 5 33 10 l15 10 -27 0 c-15 0 -30
-4 -33 -10z" />
    <path d="M1755 1640 l-6 -10 18 0 c10 0 25 5 33 10 l15 10 -27 0 c-15 0 -30
-4 -33 -10z" />
    <path d="M1675 1630 l-6 -10 18 0 c10 0 25 5 33 10 l15 10 -27 0 c-15 0 -30
-4 -33 -10z" />
    <path d="M1595 1620 l-6 -10 18 0 c10 0 25 5 33 10 l15 10 -27 0 c-15 0 -30
-4 -33 -10z" />
    <path d="M1515 1610 l-6 -10 18 0 c10 0 25 5 33 10 l15 10 -27 0 c-15 0 -30
-4 -33 -10z" />
    <path d="M1435 1600 l-6 -10 18 0 c10 0 25 5 33 10 l15 10 -27 0 c-15 0 -30
-4 -33 -10z" />
    <path d="M1355 1590 l-6 -10 18 0 c10 0 25 5 33 10 l15 10 -27 0 c-15 0 -30
-4 -33 -10z" />
    <path d="M1275 1580 l-6 -10 18 0 c10 0 25 5 33 10 l15 10 -27 0 c-15 0 -30
-4 -33 -10z" />
    <path d="M1195 1570 l-6 -10 18 0 c10 0 25 5 33 10 l15 10 -27 0 c-15 0 -30
-4 -33 -10z" />
  </g>
  <g transform="translate(0.000000,247.000000) scale(0.100000,-0.100000)" fill="#9f8d6f" stroke="none">
    <path d="M1993 1663 c4 -3 10 -3 14 0 3 4 0 7 -7 7 -7 0 -10 -3 -7 -7z" />
    <path d="M1913 1653 c4 -3 10 -3 14 0 3 4 0 7 -7 7 -7 0 -10 -3 -7 -7z" />
    <path d="M1833 1643 c4 -3 10 -3 14 0 3 4 0 7 -7 7 -7 0 -10 -3 -7 -7z" />
    <path d="M1753 1633 c4 -3 10 -3 14 0 3 4 0 7 -7 7 -7 0 -10 -3 -7 -7z" />
    <path d="M1673 1623 c4 -3 10 -3 14 0 3 4 0 7 -7 7 -7 0 -10 -3 -7 -7z" />
    <path d="M1588 1613 c7 -3 16 -2 19 1 4 3 -2 6 -13 5 l-19 -1 13 -5z" />
    <path d="M1508 1603 c7 -3 16 -2 19 1 4 3 -2 6 -13 5 l-19 -1 13 -5z" />
    <path d="M1428 1593 c7 -3 16 -2 19 1 4 3 -2 6 -13 5 l-19 -1 13 -5z" />
    <path d="M1348 1583 c7 -3 16 -2 19 1 4 3 -2 6 -13 5 l-19 -1 13 -5z" />
    <path d="M1268 1573 c7 -3 16 -2 19 1 4 3 -2 6 -13 5 l-19 -1 13 -5z" />
    <path d="M1188 1563 c7 -3 16 -2 19 1 4 3 -2 6 -13 5 l-19 -1 13 -5z" />
  </g>
  <g transform="translate(0.000000,247.000000) scale(0.100000,-0.100000)" fill="#ede2ce" stroke="none">
    <path d="M2013 1663 c4 -3 10 -3 14 0 3 4 0 7 -7 7 -7 0 -10 -3 -7 -7z" />
    <path d="M1933 1653 c4 -3 10 -3 14 0 3 4 0 7 -7 7 -7 0 -10 -3 -7 -7z" />
    <path d="M1853 1643 c4 -3 10 -3 14 0 3 4 0 7 -7 7 -7 0 -10 -3 -7 -7z" />
    <path d="M1773 1633 c4 -3 10 -3 14 0 3 4 0 7 -7 7 -7 0 -10 -3 -7 -7z" />
    <path d="M1693 1623 c4 -3 10 -3 14 0 3 4 0 7 -7 7 -7 0 -10 -3 -7 -7z" />
    <path d="M1613 1613 c4 -3 10 -3 14 0 3 4 0 7 -7 7 -7 0 -10 -3 -7 -7z" />
    <path d="M1533 1603 c4 -3 10 -3 14 0 3 4 0 7 -7 7 -7 0 -10 -3 -7 -7z" />
    <path d="M1453 1593 c4 -3 10 -3 14 0 3 4 0 7 -7 7 -7 0 -10 -3 -7 -7z" />
    <path d="M1373 1583 c4 -3 10 -3 14 0 3 4 0 7 -7 7 -7 0 -10 -3 -7 -7z" />
    <path d="M1293 1573 c4 -3 10 -3 14 0 3 4 0 7 -7 7 -7 0 -10 -3 -7 -7z" />
    <path d="M1213 1563 c4 -3 10 -3 14 0 3 4 0 7 -7 7 -7 0 -10 -3 -7 -7z" />
    <path d="M1213 1523 c4 -3 10 -3 14 0 3 4 0 7 -7 7 -7 0 -10 -3 -7 -7z" />
    <path d="M1293 1513 c4 -3 10 -3 14 0 3 4 0 7 -7 7 -7 0 -10 -3 -7 -7z" />
    <path d="M1523 1483 c4 -3 10 -3 14 0 3 4 0 7 -7 7 -7 0 -10 -3 -7 -7z" />
    <path d="M1603 1473 c4 -3 10 -3 14 0 3 4 0 7 -7 7 -7 0 -10 -3 -7 -7z" />
    <path d="M1683 1463 c4 -3 10 -3 14 0 3 4 0 7 -7 7 -7 0 -10 -3 -7 -7z" />
    <path d="M1763 1453 c4 -3 10 -3 14 0 3 4 0 7 -7 7 -7 0 -10 -3 -7 -7z" />
    <path d="M1993 1423 c4 -3 10 -3 14 0 3 4 0 7 -7 7 -7 0 -10 -3 -7 -7z" />
    <path d="M1983 1043 c4 -3 10 -3 14 0 3 4 0 7 -7 7 -7 0 -10 -3 -7 -7z" />
    <path d="M1903 1033 c4 -3 10 -3 14 0 3 4 0 7 -7 7 -7 0 -10 -3 -7 -7z" />
    <path d="M1513 983 c4 -3 10 -3 14 0 3 4 0 7 -7 7 -7 0 -10 -3 -7 -7z" />
    <path d="M1433 973 c4 -3 10 -3 14 0 3 4 0 7 -7 7 -7 0 -10 -3 -7 -7z" />
    <path d="M1353 963 c4 -3 10 -3 14 0 3 4 0 7 -7 7 -7 0 -10 -3 -7 -7z" />
    <path d="M1273 953 c4 -3 10 -3 14 0 3 4 0 7 -7 7 -7 0 -10 -3 -7 -7z" />
    <path d="M1193 943 c4 -3 10 -3 14 0 3 4 0 7 -7 7 -7 0 -10 -3 -7 -7z" />
    <path d="M1193 903 c4 -3 10 -3 14 0 3 4 0 7 -7 7 -7 0 -10 -3 -7 -7z" />
    <path d="M1273 893 c4 -3 10 -3 14 0 3 4 0 7 -7 7 -7 0 -10 -3 -7 -7z" />
    <path d="M1353 883 c4 -3 10 -3 14 0 3 4 0 7 -7 7 -7 0 -10 -3 -7 -7z" />
    <path d="M1433 873 c4 -3 10 -3 14 0 3 4 0 7 -7 7 -7 0 -10 -3 -7 -7z" />
    <path d="M1513 863 c4 -3 10 -3 14 0 3 4 0 7 -7 7 -7 0 -10 -3 -7 -7z" />
    <path d="M1593 853 c4 -3 10 -3 14 0 3 4 0 7 -7 7 -7 0 -10 -3 -7 -7z" />
    <path d="M1673 843 c4 -3 10 -3 14 0 3 4 0 7 -7 7 -7 0 -10 -3 -7 -7z" />
    <path d="M1753 833 c4 -3 10 -3 14 0 3 4 0 7 -7 7 -7 0 -10 -3 -7 -7z" />
    <path d="M1833 823 c4 -3 10 -3 14 0 3 4 0 7 -7 7 -7 0 -10 -3 -7 -7z" />
    <path d="M1913 813 c4 -3 10 -3 14 0 3 4 0 7 -7 7 -7 0 -10 -3 -7 -7z" />
    <path d="M1993 803 c4 -3 10 -3 14 0 3 4 0 7 -7 7 -7 0 -10 -3 -7 -7z" />
  </g>
  <g transform="translate(0.000000,247.000000) scale(0.100000,-0.100000)" fill="#eed9b6" stroke="none">
    <path d="M1363 1503 c4 -3 10 -3 14 0 3 4 0 7 -7 7 -7 0 -10 -3 -7 -7z" />
    <path d="M1443 1493 c4 -3 10 -3 14 0 3 4 0 7 -7 7 -7 0 -10 -3 -7 -7z" />
    <path d="M1833 1443 c4 -3 10 -3 14 0 3 4 0 7 -7 7 -7 0 -10 -3 -7 -7z" />
    <path d="M1913 1433 c4 -3 10 -3 14 0 3 4 0 7 -7 7 -7 0 -10 -3 -7 -7z" />
    <path d="M1823 1023 c4 -3 10 -3 14 0 3 4 0 7 -7 7 -7 0 -10 -3 -7 -7z" />
    <path d="M1743 1013 c4 -3 10 -3 14 0 3 4 0 7 -7 7 -7 0 -10 -3 -7 -7z" />
    <path d="M1663 1003 c4 -3 10 -3 14 0 3 4 0 7 -7 7 -7 0 -10 -3 -7 -7z" />
    <path d="M1583 993 c4 -3 10 -3 14 0 3 4 0 7 -7 7 -7 0 -10 -3 -7 -7z" />
    <path d="M1503 983 c4 -3 10 -3 14 0 3 4 0 7 -7 7 -7 0 -10 -3 -7 -7z" />
  </g>
  <g transform="translate(0.000000,247.000000) scale(0.100000,-0.100000)" fill="#fbe3b4" stroke="none">
    <path d="M1183 903 c4 -3 10 -3 14 0 3 4 0 7 -7 7 -7 0 -10 -3 -7 -7z" />
    <path d="M1263 893 c4 -3 10 -3 14 0 3 4 0 7 -7 7 -7 0 -10 -3 -7 -7z" />
    <path d="M1343 883 c4 -3 10 -3 14 0 3 4 0 7 -7 7 -7 0 -10 -3 -7 -7z" />
    <path d="M1423 873 c4 -3 10 -3 14 0 3 4 0 7 -7 7 -7 0 -10 -3 -7 -7z" />
    <path d="M1503 863 c4 -3 10 -3 14 0 3 4 0 7 -7 7 -7 0 -10 -3 -7 -7z" />
    <path d="M1583 853 c4 -3 10 -3 14 0 3 4 0 7 -7 7 -7 0 -10 -3 -7 -7z" />
    <path d="M1663 843 c4 -3 10 -3 14 0 3 4 0 7 -7 7 -7 0 -10 -3 -7 -7z" />
    <path d="M1743 833 c4 -3 10 -3 14 0 3 4 0 7 -7 7 -7 0 -10 -3 -7 -7z" />
    <path d="M1823 823 c4 -3 10 -3 14 0 3 4 0 7 -7 7 -7 0 -10 -3 -7 -7z" />
    <path d="M1903 813 c4 -3 10 -3 14 0 3 4 0 7 -7 7 -7 0 -10 -3 -7 -7z" />
    <path d="M1983 803 c4 -3 10 -3 14 0 3 4 0 7 -7 7 -7 0 -10 -3 -7 -7z" />
  </g>
  <g transform="translate(0.000000,247.000000) scale(0.100000,-0.100000)" fill="#bab3a8" stroke="none">
    <path d="M2003 1663 c4 -3 10 -3 14 0 3 4 0 7 -7 7 -7 0 -10 -3 -7 -7z" />
    <path d="M1923 1653 c4 -3 10 -3 14 0 3 4 0 7 -7 7 -7 0 -10 -3 -7 -7z" />
    <path d="M1843 1643 c4 -3 10 -3 14 0 3 4 0 7 -7 7 -7 0 -10 -3 -7 -7z" />
    <path d="M1763 1633 c4 -3 10 -3 14 0 3 4 0 7 -7 7 -7 0 -10 -3 -7 -7z" />
    <path d="M1683 1623 c4 -3 10 -3 14 0 3 4 0 7 -7 7 -7 0 -10 -3 -7 -7z" />
    <path d="M1603 1613 c4 -3 10 -3 14 0 3 4 0 7 -7 7 -7 0 -10 -3 -7 -7z" />
    <path d="M1523 1603 c4 -3 10 -3 14 0 3 4 0 7 -7 7 -7 0 -10 -3 -7 -7z" />
    <path d="M1443 1593 c4 -3 10 -3 14 0 3 4 0 7 -7 7 -7 0 -10 -3 -7 -7z" />
    <path d="M1363 1583 c4 -3 10 -3 14 0 3 4 0 7 -7 7 -7 0 -10 -3 -7 -7z" />
    <path d="M1283 1573 c4 -3 10 -3 14 0 3 4 0 7 -7 7 -7 0 -10 -3 -7 -7z" />
    <path d="M1203 1563 c4 -3 10 -3 14 0 3 4 0 7 -7 7 -7 0 -10 -3 -7 -7z" />
  </g>
</svg>