<svg xmlns="http://www.w3.org/2000/svg" width="400" height="400"><g fill-rule="evenodd"><path fill="#221b20" d="M36.353 98.58c-.133.134-1.991.505-4.128.826-2.138.321-4.705.946-5.706 1.389-1.002.443-1.99.805-2.197.805-.206 0-.965.45-1.686 1-.722.55-1.492 1-1.713 1-1.448 0-5.944 6.974-6.6 10.24-.598 2.98-.309 3.205 4.877 3.793 6.689.757 7.972.266 9.232-3.536 1.876-5.661 15.004-5.595 16.159.082 1.781 8.75 1.556 9.037-7.905 10.054-3.127.337-6.676.942-7.886 1.347-1.21.404-2.74.856-3.4 1.004-5.392 1.21-10.005 5.713-12.89 12.584-1.733 4.127-.917 12.585 1.442 14.944.246.246.448.677.448.957 0 .281.837 1.347 1.859 2.369 6.672 6.672 20.078 6.121 27.941-1.147 1.994-1.844 2.919-1.854 4.522-.051 5.132 5.769 5.808 6.167 7.786 4.583 3.737-2.994 7.503-6.667 7.552-7.368.133-1.886-.164-3.295-.856-4.055-.4-.44-1.195-1.645-1.766-2.677l-1.038-1.877-.003-14.123c-.002-7.895-.187-15.259-.421-16.7-.511-3.149-1.758-6.95-2.344-7.146-.238-.079-.432-.385-.432-.679 0-.868-3.13-3.294-6.222-4.822-3.37-1.665-13.768-3.653-14.625-2.796m148.749.052c-.161.161-1.951.52-3.977.799-3.199.44-6.244 1.395-8.325 2.61-.33.193-1.242.699-2.026 1.125-1.237.672-5.174 4.766-5.174 5.38 0 .12-.428.85-.952 1.621-1.183 1.744-1.781 5.673-.983 6.468.313.312 2.229.692 4.621.917 2.248.211 4.246.482 4.442.603.989.612 2.886-.81 4.296-3.222 1.891-3.233 3.392-4.356 6.605-4.938 7.173-1.301 10.771 1.897 10.771 9.573 0 3.946.309 3.816-12 5.06-1.43.145-3.5.603-4.6 1.017-1.1.415-2.342.755-2.759.755-2.419 0-10.561 5.858-11.276 8.111-.149.468-.483 1.064-.743 1.324-.259.26-.7 1.528-.979 2.819-.28 1.29-.693 3.099-.92 4.019-.407 1.654-.362 2.396.439 7.163.877 5.222 3.699 8.86 8.406 10.841 3.877 1.631 12.982 1.623 16.544-.014 1.271-.585 2.408-1.063 2.527-1.063.308 0 2.877-1.979 4.54-3.498 2.082-1.902 2.628-1.716 6.157 2.104 4.3 4.654 3.791 4.77 12.183-2.795 1.975-1.78 2.181-3.753.58-5.55-.422-.474-1.289-1.851-1.926-3.061l-1.159-2.2-.121-15.8c-.067-8.69-.288-16.16-.491-16.6-.203-.44-.557-1.544-.788-2.453-.231-.91-.688-1.877-1.017-2.149-.328-.273-.597-.738-.597-1.033 0-1.215-3.557-4.025-7.049-5.57-3.323-1.469-13.462-3.151-14.249-2.363m-83.976.961c-3.833.499-6.846 2.355-9.605 5.918-2.034 2.626-3.121 2.211-3.121-1.192 0-3.285-1.061-3.891-6.846-3.906-4.106-.012-4.769.083-5.7.816l-1.054.829v28.597c0 28.676.048 29.763 1.36 30.639 1.068.713 10.513.337 11.496-.458l.944-.764.232-19.936.232-19.936 1.002-2.289c3.103-7.085 10.804-7.481 14.043-.722.85 1.773.871 2.244 1.006 22.302l.137 20.492 1.028.808c1.501 1.181 10.331 1.214 11.776.045l.944-.764.209-19.936c.206-19.56.226-19.973 1.102-21.874 2.873-6.235 9.435-7.574 13.589-2.773l1.3 1.502v42.538l1.231 1.035c1.662 1.399 10.388 1.596 12.025.272l.944-.764.211-21.536c.231-23.582.016-29.34-1.16-30.944-.406-.554-.863-1.4-1.015-1.88-.355-1.116-3.477-3.663-5.965-4.865-6.87-3.319-17.668-.384-20.636 5.609-1.334 2.693-4.504 1.56-5.474-1.956-.136-.495-.382-.9-.546-.9-.164 0-.764-.432-1.333-.959-2.709-2.511-7.466-3.684-12.356-3.048m192.658.001c-2.516.277-5.708 1.326-7.384 2.428-.33.217-1.165.655-1.856.973-3.838 1.769-9.312 10.313-10.509 16.405-.26 1.32-.758 3.621-1.106 5.113-.7 2.997-.589 12.029.171 13.887.225.55.609 2.08.854 3.4.455 2.459 1.946 6.516 2.75 7.484.247.298.649 1.067.893 1.709 4.763 12.526 24.984 15.197 36.403 4.808 2.294-2.087 2.435-2.265 3.894-4.92.492-.895 1.077-1.74 1.3-1.877.223-.138.406-.505.406-.816 0-.31.45-1.548 1-2.751.55-1.202 1.004-2.602 1.009-3.111.004-.509.364-2.537.8-4.506a31.23 31.23 0 0 0 0-13.64c-.436-1.969-.796-4.125-.8-4.791-.005-.666-.253-1.566-.552-2-.299-.434-.772-1.509-1.051-2.389-.279-.88-.733-1.87-1.009-2.2-.276-.33-.63-1.018-.786-1.529-.427-1.399-5.745-7.671-6.504-7.671-.127 0-.788-.412-1.469-.916-3.201-2.368-10.518-3.743-16.454-3.09m65.298.036c-3.408.508-6.814 2.752-8.817 5.806-1.831 2.793-2.459 3.418-3.162 3.148-.787-.302-1.312-3.143-.944-5.104.552-2.943-9.165-4.721-12.305-2.251l-1.054.829.006 28.671c.003 15.769.138 28.869.3 29.111 1.221 1.829 11.479 2.064 13.113.302l.981-1.059v-17.087c0-10.863.16-17.872.44-19.241l.734-3.587c1.026-5.004 7.284-8.439 10.96-6.015 4.359 2.874 4.666 4.698 4.666 27.71 0 22.571-.746 20.337 6.792 20.337 4.98 0 5.601-.079 6.567-.839l1.067-.839-.134-21.861c-.144-23.571-.388-26.68-2.423-30.836-2.653-5.418-9.379-8.301-16.787-7.195m-133.738 1.479c-1.489 1.203-1.609 8.087-.165 9.471l1.065 1.02h8.801c10.562 0 10.902.104 9.395 2.863-.521.956-1.153 1.917-1.404 2.137-.251.22-1.498 1.93-2.77 3.8-1.272 1.87-2.92 4.21-3.663 5.2-.742.99-1.362 2-1.376 2.245-.015.245-.441.875-.947 1.4-.506.525-1.582 1.945-2.393 3.155-.81 1.21-2.041 3.01-2.736 4-7.2 10.258-6.751 9.202-6.751 15.865 0 5.332.044 5.637.926 6.465.963.905 2.274 1.17 2.274.46 0-.225.495-.596 1.1-.824a29.647 29.647 0 0 0 2.24-.98c.627-.311 1.797-.678 2.6-.817.803-.139 2.686-.614 4.184-1.057 3.465-1.023 14.467-.877 17.426.232.963.361 2.228.656 2.811.656.584 0 1.418.25 1.853.555.436.305 1.558.784 2.494 1.065.936.28 1.901.75 2.146 1.045 1.937 2.334 3.546-.175 3.546-5.531 0-5.129-.681-6.776-3.126-7.564-.811-.261-1.675-.633-1.92-.827-.246-.193-1.776-.714-3.4-1.157L253.2 142.8c-.77-.21-2.795-.385-4.5-.39-3.197-.01-4.7-.706-4.7-2.176 0-.543 2.195-3.945 5.57-8.634.871-1.21 2.439-3.46 3.484-5s2.009-2.89 2.142-3c.263-.217 1.957-2.582 2.604-3.635.482-.784 1.79-2.696 4.765-6.965l2.23-3.2-.004-3.8c-.003-4.057-.109-4.426-1.465-5.14-1.605-.845-36.914-.614-37.982.249m77.008 10.312c2.981 2.508 4.062 5.904 4.898 15.379.596 6.76-.287 15.915-1.804 18.693a41.691 41.691 0 0 0-.983 1.922c-1.889 4.067-7.803 5.393-11.108 2.492-6.825-5.993-7.24-31.329-.619-37.807l1.737-1.7h3.333c2.989 0 3.458.105 4.546 1.021M44.4 132c1.406 1.406.813 10.517-.872 13.417-1.451 2.496-2.829 4.183-3.416 4.183-.295 0-.636.257-.757.572-.905 2.359-7.339 1.811-9.819-.836-5.745-6.135-.373-16.416 9.264-17.731 3.818-.521 4.75-.455 5.6.395m149.224.045c.89 1.663.251 11.046-.904 13.283-3.039 5.887-9.7 8.177-13.393 4.604-6.524-6.314-1.553-17.062 8.473-18.321 4.437-.557 5.329-.491 5.824.434"/><path fill="#fbfbfb" d="M0 200v200h400V0H0v200M47.8 98.618c4.457 1.512 9.152 4.37 9.624 5.857.126.399.383.725.57.725.186 0 .939 1.215 1.673 2.7L61 110.6l.115 16.2c.108 15.141.167 16.306.9 17.826.432.895.785 1.818.785 2.051 0 .234.273.651.606.928 3.841 3.188 3.036 6.507-2.763 11.395-1.043.88-2.362 2.005-2.929 2.5-.783.684-1.522.899-3.072.894-2.414-.007-2.269.083-4.984-3.094-2.197-2.57-4.151-3.366-4.706-1.918-.123.319-.866.994-1.651 1.5-4.634 2.981-5.713 3.518-7.063 3.518-.501 0-1.794.268-2.874.596-2.555.775-7.376.777-9.226.004-.789-.33-1.954-.6-2.587-.6-.633 0-1.511-.36-1.951-.8-.44-.44-.97-.8-1.178-.8-.711 0-4.822-4.098-4.822-4.807 0-.389-.252-.804-.56-.922-.308-.118-.785-.898-1.06-1.732s-.744-1.76-1.04-2.057c-.945-.944-.756-11.762.22-12.646.419-.379.879-1.316 1.022-2.083.144-.767.506-1.489.804-1.603.298-.114.649-.6.78-1.079.676-2.47 8.268-8.271 10.825-8.271.616 0 1.321-.265 1.565-.588.261-.346 1.927-.825 4.044-1.162 1.98-.316 4.32-.767 5.2-1.002.88-.236 2.89-.433 4.467-.438 4.16-.014 4.133.008 4.133-3.427 0-3.644-.317-4.489-2.456-6.545-2.073-1.992-6.436-2.424-8.453-.838-.56.44-1.174.8-1.365.8-.56 0-2.413 2.294-2.665 3.299-.127.507-.852 1.62-1.611 2.473l-1.38 1.552-4.359-.23c-7.12-.376-11.67-3.438-8.731-5.877.341-.283.62-1.024.62-1.647 0-1.246.751-3.17 1.237-3.17.17 0 .436-.405.592-.9.155-.495.662-1.283 1.127-1.751a57.53 57.53 0 0 0 1.938-2.1c.601-.687 1.248-1.249 1.437-1.249.19 0 .868-.45 1.507-1 .639-.549 1.455-.999 1.813-1 .358 0 .862-.254 1.12-.565.258-.311 1.405-.784 2.549-1.052s2.326-.684 2.627-.923c1.663-1.325 14.009-1.083 18.253.358m148.2-.381c.55.297 1.757.73 2.683.962.926.233 1.793.601 1.927.818.135.217.862.653 1.617.969.755.315 1.373.762 1.373.994 0 .231.236.42.525.42.607 0 2.538 1.921 3.29 3.274.283.51 1.025 1.916 1.649 3.126l1.135 2.2.2 16.439c.141 11.497.339 16.608.66 17 .252.309.685 1.326.963 2.261.278.935.624 1.7.77 1.7 1.994 0 2.802 4.97 1.106 6.803-7.278 7.868-10.469 8.823-14.698 4.397-2.89-3.025-3.943-3.416-5.386-2.002-1.367 1.34-3.308 2.802-3.718 2.802-.213 0-.834.351-1.379.78-2.292 1.803-12.522 3.014-15.379 1.82-.789-.33-1.929-.6-2.533-.6-.603 0-1.555-.36-2.114-.8-.56-.44-1.169-.8-1.354-.8-.495 0-3.383-2.781-4.57-4.4-.984-1.343-1.996-3.818-2.78-6.8-.582-2.216-.43-7.996.259-9.8.336-.88.807-2.32 1.047-3.2.24-.88.677-1.744.972-1.92.294-.176.535-.562.535-.858 0-.717 5.473-6.222 6.185-6.222.307 0 .827-.269 1.156-.598.736-.736 2.425-1.402 3.554-1.402.463 0 1.14-.27 1.504-.599.364-.33 2.178-.8 4.032-1.046 1.853-.245 3.58-.616 3.837-.823.257-.207 2.597-.502 5.2-.654L193 122.2l.117-3.11c.134-3.561-.702-5.508-3.133-7.302-1.816-1.34-6.636-1.456-7.784-.188-.398.44-.922.8-1.163.8-.657 0-2.637 2.232-2.637 2.973 0 .355-.765 1.475-1.7 2.49l-1.7 1.845-4.2-.239c-7.964-.454-11.286-2.958-8.613-6.493.323-.427.593-1.156.6-1.62.007-.464.463-1.507 1.013-2.318.55-.81 1-1.613 1-1.784 0-.17.405-.685.9-1.143a35.753 35.753 0 0 0 1.994-2.072c.601-.682 1.25-1.239 1.441-1.239.192 0 .834-.45 1.427-1 .594-.55 1.357-1 1.696-1 .338 0 1.073-.36 1.633-.8.559-.44 1.358-.8 1.776-.8.417 0 1.428-.303 2.246-.674 2.896-1.313 15.808-1.52 18.087-.289m-88.373-.096c.564.294 1.553.668 2.197.829 1.535.385 4.543 2.3 4.561 2.903.008.26.348.579.754.708.407.129.943.681 1.192 1.227.248.545.615.992.814.992.199 0 .456.36.571.8.252.962 1.257 1.043 1.968.159 2.067-2.571 4.549-4.959 5.154-4.959.397 0 .866-.234 1.042-.52.568-.925 5.039-2.401 7.797-2.575 4.017-.253 9.169 1.679 12.252 4.595.29.275.698.5.906.5.208 0 .69.675 1.071 1.5.382.825.912 1.64 1.178 1.811.266.171.604.981.751 1.8.146.819.559 1.823.916 2.231 1.159 1.325.695 49.216-.491 50.716-1.968 2.489-12.723 2.81-14.914.446l-.946-1.021V140.15c0-25.332-.105-25.757-6.375-25.743l-3.025.006-1.708 1.769c-2.275 2.356-2.468 4.413-2.482 26.494-.007 11.463-.146 16.961-.435 17.139-.233.145-.585.684-.781 1.2-.468 1.231-2.507 1.781-6.594 1.779-6.349-.002-7.318-.266-8.629-2.354l-1.156-1.84-.017-19.6c-.022-24.923.018-24.752-5.799-24.784-6.471-.035-6.66.673-6.885 25.884-.096 10.725-.321 19.5-.501 19.5-.179 0-.438.445-.574.988-.762 3.037-13.357 3.193-15.253.189l-.986-1.561v-57.159l1.347-1.429 1.347-1.428 5.553.013c6.74.015 7.656.479 8.099 4.106l.254 2.077 2.178-2.298c1.198-1.264 2.404-2.298 2.68-2.298.276 0 .65-.264.83-.586 1.003-1.792 9.799-3.294 12.139-2.073m195.237.254c1.395.437 2.93.797 3.412.8.482.003.999.203 1.149.446.15.242.869.69 1.598.994 2.547 1.065 8.177 5.805 8.177 6.885 0 .242.246.584.547.76.301.176 1.126 1.49 1.834 2.92.709 1.43 1.554 3.097 1.878 3.703.325.607.744 1.957.932 3 .188 1.044.657 2.707 1.041 3.697 1.025 2.64 1.025 16.16 0 18.8-.384.99-.851 2.642-1.037 3.67-.185 1.029-.602 2.289-.925 2.8-.322.512-.713 1.354-.868 1.871-.312 1.042-1.845 3.508-2.792 4.493-.336.348-.612.798-.614 1-.006.522-2.591 2.966-3.139 2.966-.251 0-.457.274-.457.61 0 .335-.431.774-.958.974-.527.2-1.022.522-1.1.714-.274.675-4.651 2.902-5.705 2.902-.586 0-1.546.315-2.133.7-1.535 1.005-10.498.995-12.384-.015-.704-.377-1.694-.688-2.2-.691-.506-.003-1.37-.268-1.92-.589-.55-.32-1.45-.813-2-1.094-1.377-.704-2.647-1.766-4.92-4.111-2.561-2.644-2.952-3.144-3.667-4.691-.333-.72-1.119-2.209-1.747-3.309-.629-1.1-1.276-2.714-1.439-3.586-.162-.873-.563-2.103-.889-2.735-1.328-2.568-1.372-20.411-.056-22.884.352-.663.769-2.06.925-3.105.157-1.045.439-1.995.628-2.111.188-.117.706-.97 1.151-1.896.445-.925 1.125-2.151 1.511-2.723l1.483-2.2c1.039-1.546 4.691-4.946 5.32-4.954.275-.003.5-.175.5-.381 0-.464 4.177-2.464 7.4-3.544 3.283-1.1 8.114-1.136 11.464-.086m64.462.035a71.45 71.45 0 0 1 3.47 1.5c2.727 1.309 6.137 4.967 6.616 7.097.144.645.547 1.803.895 2.573 1.05 2.328 1.319 9.158 1.203 30.499l-.11 20.371-1.122.965c-1.733 1.49-12.823 1.49-14.556 0l-1.122-.965-.2-21.193c-.19-20.15-.238-21.235-.964-22.038-.421-.465-.961-1.237-1.2-1.717-1.301-2.604-9.436-1.292-9.436 1.523 0 .246-.405.962-.9 1.591l-.9 1.144-.129 19.836-.129 19.836-1.351 1.474-1.35 1.474h-5.802c-6.445 0-7.584-.293-8.219-2.115-.278-.798-.42-10.917-.42-29.975v-28.772l1.169-1.169 1.169-1.169h5.577c7.212 0 7.685.273 7.685 4.429 0 1.524.114 2.771.254 2.771.305 0 2.146-1.945 2.146-2.268 0-.403 3.093-3.332 3.52-3.332.227 0 .487-.22.577-.49.685-2.055 9.987-3.338 13.629-1.88m-102.542 1.645c.732.786.815 1.392.81 5.9l-.006 5.025-1.399 2c-.77 1.1-2.062 2.99-2.871 4.2-.81 1.21-1.72 2.47-2.024 2.8-.496.54-.928 1.173-2.588 3.8-.278.44-.733.945-1.01 1.122-.277.177-.763.942-1.079 1.7-.317.758-.744 1.378-.948 1.378-.205 0-.596.54-.869 1.2-.273.66-.645 1.2-.827 1.2-.181 0-.564.425-.851.944-.287.52-1.062 1.718-1.722 2.664-.66.946-1.47 2.114-1.8 2.596-.33.482-.942 1.363-1.359 1.957-.989 1.406-.498 1.904 2.258 2.292 5.366.756 9.002 1.511 10.101 2.1.66.353 1.505.643 1.879.645.983.003 4.245 1.817 5.47 3.042 1.21 1.21 1.668 12.303.554 13.417-.866.866-4.356.621-5.421-.38-.514-.482-1.422-.877-2.02-.877-.597 0-2.155-.45-3.462-1-2.556-1.076-17.765-1.516-21.2-.613-2.64.694-5.402 1.668-7.4 2.611-4.592 2.167-6.313.115-6.091-7.265.171-5.707.485-7.193 2.016-9.533 1.048-1.602 1.446-2.157 3.158-4.403.504-.662 1.097-1.496 1.317-1.854.935-1.519 3.711-5.508 5.293-7.605.939-1.245 1.707-2.465 1.707-2.713 0-.248.27-.554.6-.68.33-.127.6-.449.6-.716 0-.267.54-1.09 1.2-1.829.66-.739 1.2-1.573 1.2-1.852 0-.28.246-.652.546-.828.3-.176.845-.905 1.21-1.62.366-.715.828-1.3 1.027-1.3.2 0 .491-.405.647-.9.157-.495.619-1.135 1.027-1.423.409-.287.743-.953.743-1.478v-.956l-9.041-.122-9.042-.121-1.352-1.6c-2.099-2.482-1.873-8.272.42-10.746l.977-1.054h38.807l.815.875m30.119 12.1c-3.18 1.759-4.364 4.622-4.872 11.784-1.19 16.76 1.662 26.441 7.79 26.441.997 0 2.03-.173 2.296-.385 2.119-1.691 3.483-3.105 3.484-3.612.001-.332.406-1.233.9-2.003 1.4-2.18 1.399-24.465-.001-27.084-.495-.926-.906-1.916-.913-2.2-.065-2.512-5.892-4.485-8.684-2.941M41.529 132.604c-.117.117-1.651.466-3.41.775-2.02.355-3.739.93-4.671 1.563-.811.55-1.603 1.058-1.761 1.129-.716.322-2.496 3.644-2.727 5.091-.614 3.838.242 6.279 2.996 8.538 1.213.995 4.718.937 6.044-.1.55-.43 1.231-.786 1.513-.791.281-.005.627-.324.768-.709.14-.385.675-1.209 1.187-1.831.513-.622.932-1.349.932-1.615 0-.267.36-1.191.8-2.054.822-1.612 1.174-8.213.494-9.246-.349-.53-1.861-1.054-2.165-.75m149.18.02c-.093.093-1.675.432-3.515.754-1.965.343-3.803.922-4.454 1.403-.609.45-1.264.819-1.456.819-.779 0-2.822 3.512-3.092 5.316-.625 4.162.158 6.482 2.964 8.784.917.753 5.244 1.022 5.244.327 0-.205.338-.48.751-.611 1.083-.344 4.449-3.869 4.449-4.659 0-.368.356-1.454.791-2.413.945-2.082 1.16-8.375.309-9.033-.663-.513-1.779-.898-1.991-.687m60.53 31.77c2.069.436 3.868.796 4 .8.21.005.94.558 2.661 2.014 1.125.953.466 10.762-.93 13.852-.314.694-.57 1.656-.57 2.139 0 .482-.334 1.355-.742 1.939-.408.584-.872 1.602-1.031 2.262-.159.66-.524 1.47-.811 1.8-.287.33-.65 1.022-.808 1.538-.802 2.628-7.455 10.062-9.005 10.062-.96 0-2.403-1.344-2.403-2.237 0-.35.36-1.094.8-1.654.44-.559.8-1.362.8-1.784 0-.421.349-1.432.775-2.246.896-1.708 3.225-8.967 3.225-10.05 0-.402.27-1.378.6-2.167 1.145-2.741.818-5.087-.9-6.462l-1.5-1.2-6.8-.117c-7.153-.122-11.943.269-14.08 1.15-1.135.468-1.373.443-2.1-.215-1.112-1.007-1.125-3.267-.02-3.618.44-.14.8-.421.8-.625 0-.204.812-.753 1.805-1.219.993-.467 1.904-1.008 2.024-1.202.12-.195.615-.354 1.101-.354.485 0 1.509-.334 2.276-.743.767-.408 3.284-1.056 5.594-1.438 2.31-.383 4.275-.769 4.367-.858.487-.471 7.602-.057 10.872.633m-184.616 4.053c.977.247 1.777.594 1.777.772 0 .178.72.641 1.6 1.029.88.388 1.6.837 1.6.998 0 .161.675.506 1.5.767s1.68.696 1.9.965c.22.269.926.62 1.568.781.643.16 1.612.639 2.154 1.066.542.426 1.278.775 1.635.775s1.495.45 2.528 1 2.225 1 2.648 1c.423 0 .996.274 1.274.608.278.335 1.284.805 2.237 1.045.952.24 1.939.686 2.193.991.253.306.896.556 1.428.556.532 0 1.663.355 2.514.789.851.435 2.329.903 3.284 1.04.955.138 2.225.593 2.821 1.011.596.418 1.499.76 2.006.76.507 0 1.549.334 2.316.743.767.409 2.294.874 3.394 1.035 1.1.16 2.54.53 3.2.822.66.292 2.8.815 4.756 1.163 1.956.348 3.756.796 4 .998.244.201 2.209.575 4.366.831 2.156.257 4.536.724 5.287 1.037.805.337 2.725.573 4.678.576 1.822.002 4.303.281 5.513.619 4.59 1.283 40.074 1.421 42.42.165.487-.26 2.983-.607 5.547-.771 2.563-.164 5.027-.494 5.475-.733.448-.24 2.421-.647 4.386-.905 1.965-.258 3.752-.614 3.973-.791.221-.178 2.201-.693 4.4-1.146 5.898-1.215 9.07-2.04 10.236-2.661.57-.304 1.83-.678 2.8-.832.969-.154 2.213-.594 2.763-.978.55-.383 1.673-.812 2.494-.952.822-.14 2.262-.603 3.2-1.028.939-.426 2.075-.778 2.526-.783.451-.005 1.036-.225 1.301-.49 3.196-3.196 9.657-1.875 8.738 1.787-.481 1.916-6.698 7.094-8.518 7.094-.298 0-.541.184-.541.409 0 .224-.495.622-1.1.884-.605.261-1.529.797-2.054 1.191-.525.394-1.219.716-1.542.716-.324 0-1.123.45-1.777 1-.654.55-1.453 1-1.776 1-.323 0-1.433.45-2.466 1-1.033.55-2.27 1-2.748 1-.479 0-.934.191-1.012.424-.145.437-4.004 2.184-6.125 2.774-.66.183-2.187.708-3.394 1.167-1.207.459-2.615.835-3.129.835-.514 0-1.184.249-1.488.554-.305.305-1.662.75-3.016.988-1.354.239-2.682.617-2.952.841-.27.224-1.872.599-3.559.834-1.688.234-3.658.673-4.38.974-.721.302-3.399.742-5.951.98-2.552.237-5.335.735-6.185 1.105-2.606 1.136-31.837 1-36.546-.169-1.87-.465-4.748-.964-6.396-1.109-1.647-.146-3.987-.593-5.2-.994-1.212-.401-3.086-.836-4.164-.967-1.077-.131-2.178-.419-2.445-.641-.267-.222-1.545-.597-2.84-.834-1.295-.238-2.639-.686-2.986-.997-.348-.311-.996-.565-1.441-.565-.907 0-2.896-.598-4.788-1.44-.694-.308-1.528-.56-1.856-.56-.757 0-6.04-2.443-6.217-2.875-.074-.179-.524-.327-1-.33-.477-.002-1.603-.426-2.503-.94-.9-.515-2.082-1.048-2.627-1.185-.544-.136-1.41-.613-1.924-1.059-.515-.446-1.257-.811-1.651-.811-.393 0-.813-.159-.933-.354-.12-.194-.986-.745-1.924-1.224a67.062 67.062 0 0 1-3.305-1.831c-.88-.529-2.242-1.315-3.027-1.747-.784-.432-1.662-1.069-1.949-1.415-.287-.346-.674-.629-.859-.629-.185 0-1.108-.545-2.051-1.211a399.078 399.078 0 0 0-4.314-2.983c-1.43-.974-3.32-2.399-4.2-3.166-.88-.767-2.05-1.755-2.6-2.196-5.798-4.652-6.626-6.845-2.877-7.619.067-.014.922.176 1.9.422m23.348 41.807c1.111 1.413 1.332 64.786.229 65.889-.33.33-.6.748-.601.928-.001.473-4.443 2.549-5.428 2.538-.456-.005-1.668.277-2.694.627-8.317 2.833-23.018-2.554-26.744-9.802-.292-.569-.647-1.124-.787-1.234-3.933-3.076-3.846-20.737.127-25.954.4-.525.727-1.171.727-1.437 0-1.102 5.634-6.856 7.5-7.66.715-.308 1.3-.729 1.3-.936 0-.207.665-.501 1.477-.654.813-.152 2.118-.655 2.9-1.117 1.264-.746 2.115-.847 7.623-.906 3.41-.036 6.425-.082 6.7-.101.385-.027.5-2.286.5-9.861 0-11.763-.123-11.374 3.585-11.374 2.502 0 2.834.097 3.586 1.054m156.146 2.813c.615.315 1.319 1.013 1.565 1.552.245.54.583.981.75.981 1.613 0-.071 5.141-2.163 6.607-4.167 2.919-10.249-3.068-7.376-7.261 1.825-2.663 4.387-3.329 7.224-1.879m50.789.622c.388.501.973 1.263 1.3 1.692 1.267 1.666.256 4.903-2.16 6.919-2.591 2.162-7.646-.943-7.646-4.696 0-4.325 6.036-7.103 8.506-3.915m-76.568 6.836c.244.295.485 2.619.549 5.3L221 230.6l5.492.2 5.493.2 1.257 1.257 1.257 1.257-1.05 2.22c-1.372 2.898-1.219 2.834-7.249 3.066l-5.2.2v32.646l1 .768c1.511 1.16 3.287.956 6.847-.79 3.744-1.835 3.813-1.825 5.255.74 1.376 2.448 1.373 2.506-.202 4.144-4.305 4.479-14.123 5.609-17.474 2.012-.429-.461-.934-.902-1.121-.979-.186-.078-.781-.861-1.322-1.741l-.983-1.6-.119-17.7-.12-17.7h-3.157c-3.345 0-3.469-.065-4.223-2.212-1.104-3.14.792-5.504 4.585-5.718l2.834-.16v-3.974c0-3.82.043-4.014 1.1-5.001 1.844-1.721 5.451-2.399 6.438-1.21m165.271 8.906c.789.789.787.801-.509 3.38l-1.3 2.589-2.3.12c-2.691.14-3.026.902-1.3 2.953.55.654 1 1.451 1 1.772 0 .321.304 1.047.676 1.615 1.113 1.699 1.263 9.562.226 11.812a61.64 61.64 0 0 0-1.286 2.999c-.269.699-.743 1.369-1.053 1.488-.309.119-.563.451-.563.739 0 .478-2.209 2.702-2.683 2.702-.111 0-.736.45-1.39 1-.654.55-1.468 1-1.81 1-.343 0-1.272.401-2.065.891-1.316.814-1.956.893-7.322.909-3.234.009-5.962.103-6.062.208-1.856 1.958-.647 5.992 1.796 5.992.411 0 2.045.36 3.633.8 1.588.44 3.971.804 5.295.81 1.324.005 3.038.177 3.808.382.77.206 2.555.662 3.967 1.014 4.123 1.029 7.395 2.757 9.111 4.811.837 1.001 2.107 2.166 2.822 2.589l1.3.767v4.04c0 4.099-.372 5.587-1.395 5.587-.312 0-.891.467-1.286 1.038-.669.966-3.142 3.542-4.519 4.707-4.386 3.71-20.463 6.041-25.2 3.654-.55-.278-1.81-.637-2.8-.799-1.776-.291-4.756-1.748-6.079-2.972-2.516-2.327-3.921-3.879-3.921-4.331 0-.289-.308-.995-.684-1.569-.926-1.414-.977-6.359-.079-7.745.35-.541.747-1.434.883-1.984.264-1.076 4.348-5.599 5.054-5.599.707 0 .474-2.12-.374-3.4-.938-1.417-1.085-4.806-.26-6.011.297-.434.653-1.251.789-1.815.137-.565.614-1.447 1.06-1.961 1.059-1.221 1.028-2.631-.089-4.005-3.582-4.407-4.355-6.661-4.188-12.208.132-4.403 1.42-8.911 2.664-9.325.233-.078.423-.352.421-.608-.005-.734 4.443-4.664 5.58-4.93.563-.132 1.638-.61 2.39-1.063 1.718-1.033 9.934-1.239 12.71-.318 1.747.58 3.793.031 5.226-1.402.287-.287 1.192-.634 2.01-.771.818-.137 1.667-.319 1.887-.405 1.213-.476 5.464.108 6.209.853m-346.732 2.425c1.998 1.024 2.855 1.633 4.028 2.863 1.428 1.498 1.822 2.077 2.91 4.281L47 241.4l.255 15.8c.145 8.985.454 16.9.717 18.35.637 3.517.151 4.05-3.69 4.05-3.015 0-3.844-.493-3.869-2.3-.015-1.046-1.347-1.246-2.382-.358-10.097 8.667-27.456 1.488-27.423-11.342.007-2.921 1.706-8 2.675-8 .174 0 .317-.253.317-.563 0-.924 3.91-4.153 6.544-5.404 2.562-1.217 8.754-2.033 15.429-2.033 3.527 0 3.766-.282 3.399-4.007-.495-5.022-3.431-7.585-8.703-7.596-2.415-.005-7.672.934-8.321 1.486-2.737 2.326-6.348 2.543-6.348.381 0-.227-.378-.814-.839-1.305-4.81-5.12 15.947-10.889 24.116-6.703m123.544-.304c.604.447 1.567.93 2.139 1.074.572.143 1.04.425 1.04.626s.405.553.9.782c.495.229 1.35 1.049 1.9 1.821.55.772 1.284 1.706 1.631 2.074.346.369.876 1.301 1.177 2.071.301.77.678 1.492.839 1.605.761.533 2.281 8.27 2.324 11.823.026 2.166-.09 2.532-1.071 3.395l-1.1.968-11.4-.095c-6.27-.052-12.48.042-13.8.209l-2.4.304.097 1.595c.246 4.041 5.245 11.796 7.603 11.796.292 0 1.238.36 2.1.8 3.053 1.558 11.88.433 14.431-1.838 1.971-1.754 5.35 3.281 3.795 5.655-.698 1.065-5.378 3.383-6.831 3.383-.492 0-1.66.27-2.595.6-.995.351-3.097.6-5.063.6-2.084 0-3.909-.228-4.799-.6-.789-.33-1.856-.6-2.369-.6-.513 0-1.597-.45-2.407-1-.811-.55-1.674-1.001-1.918-1.003-.499-.004-5.044-4.07-5.044-4.513 0-.156-.315-.616-.7-1.021-4.447-4.684-6.76-22.094-3.587-26.997.308-.476.686-1.377.84-2.001.363-1.473 2.617-5.465 3.085-5.465.199 0 .362-.24.362-.532 0-.293.641-1.058 1.425-1.7a80.548 80.548 0 0 0 2.16-1.829c.405-.363 1.159-.791 1.676-.952.516-.161 1.395-.613 1.952-1.004 2.076-1.461 11.644-1.483 13.608-.031m40.185-.347c1.2.996.478 5.254-1.172 6.903-.533.534-1.392.672-4.059.652-3.074-.022-3.501.071-4.679 1.025-.713.577-1.704 1.356-2.203 1.732a68.162 68.162 0 0 0-2.3 1.857l-1.393 1.173v16.711c0 16.676-.002 16.713-.875 17.526-1.093 1.018-5.913 1.194-6.701.245-.716-.863-.665-45.454.054-46.605 1.358-2.174 6.322-1.208 6.322 1.23 0 1.149 2.05.983 3.125-.254.478-.55 1.172-1 1.541-1s1.001-.298 1.404-.663c1.455-1.317 9.518-1.709 10.936-.532m77.15.592c2.608 1.193 3.044 1.849 3.044 4.577 0 2.96-1.863 4.565-3.569 3.074-2.419-2.116-13.471-1.795-15.231.443-2.75 3.496-.814 7.578 4.8 10.123a77.883 77.883 0 0 1 5.6 2.849c.33.186 1.008.515 1.506.73 1.834.793 5.694 3.991 5.694 4.719 0 .214.247.595.549.845 1.644 1.365 3.069 8.737 1.959 10.135-.222.279-.61 1.15-.863 1.935-1.278 3.974-5.026 6.985-11.099 8.919-2.651.844-8.444.874-10.408.054-.789-.33-1.932-.6-2.538-.6-.606 0-1.325-.269-1.598-.597-.272-.329-1.177-.781-2.011-1.005-1.557-.42-3.648-3.269-2.788-3.8.206-.127.718-1.009 1.139-1.959.872-1.973 2.516-2.658 3.742-1.558 1.647 1.478 5.961 2.569 9.516 2.406 11.702-.536 11.265-11.935-.568-14.849-.643-.158-1.612-.636-2.154-1.063-.542-.426-1.134-.775-1.314-.775-.454 0-3.152-1.812-4.364-2.931-2.299-2.122-3.674-5.003-4.289-8.992-.271-1.76.921-5.935 2.192-7.677 1.294-1.771 4.136-4.361 4.811-4.383.283-.009.987-.327 1.565-.706 2.546-1.668 12.959-1.614 16.677.086m51.313-1.039c.918.178 1.966.62 2.329.983.362.362.848.659 1.078.659 1.026 0 5.49 4.954 5.517 6.122.004.177.406 1.167.893 2.2.861 1.827.89 2.334 1.04 18.602.197 21.331.399 20.409-4.487 20.409-4.041 0-3.839.953-3.839-18.109 0-17.81-.084-18.5-2.647-21.729-1.619-2.041-9.007-2.171-11.145-.196-.436.403-1.201.835-1.7.96-.499.125-.908.349-.908.498 0 .149-.521.578-1.158.954-2.466 1.457-4.123 3.53-3.884 4.86.528 2.95.342 30.112-.215 31.273-.608 1.269-2.686 1.887-5.017 1.493-2.684-.455-2.558.731-2.55-23.955l.007-22.32 1.052-1.099c2.183-2.278 5.82-1.207 6.4 1.885.14.744.283 1.352.317 1.352.035 0 1.05-.538 2.256-1.195 1.206-.657 2.642-1.397 3.192-1.645.55-.248 1.54-.738 2.2-1.089 2.135-1.138 7.757-1.593 11.269-.913m-231.265.444c1.879.714 3.788 3.128 3.795 4.798.002.55.361 1.586.798 2.303.437.716.909 2.018 1.049 2.892.139.874.497 1.791.793 2.038.297.246.656 1.104.799 1.907.143.803.582 2 .977 2.66.395.66.846 1.92 1.002 2.8.156.88.509 1.87.783 2.2.274.33.716 1.53.981 2.667.266 1.138.733 2.398 1.038 2.8.306.403.567 1.093.581 1.533.014.44.468 1.7 1.009 2.8.541 1.1.985 2.405.987 2.9.009 2.058 2.043-.259 2.736-3.116.634-2.614 2.434-7.71 2.881-8.157.213-.213.393-.756.4-1.207.006-.451.455-1.72.996-2.82.541-1.1.985-2.406.987-2.901.002-.496.364-1.574.804-2.395.44-.82.801-1.765.802-2.098.002-.333.292-1.146.645-1.806.354-.66.891-2.235 1.193-3.501 1.234-5.155 4.332-7.573 8.045-6.279 2.334.814 2.481 2.724.506 6.597-.435.854-.797 1.829-.805 2.168-.007.338-.361 1.335-.786 2.215-.425.88-.779 1.849-.786 2.153-.008.304-.352 1.114-.765 1.8-.414.686-.871 1.916-1.016 2.734-.145.818-.5 1.723-.787 2.01-.288.288-.648 1.187-.8 1.998-.152.811-.72 2.476-1.261 3.701-.542 1.225-.985 2.571-.985 2.992 0 .421-.172.871-.383 1.001-.211.131-.684 1.311-1.053 2.624-.368 1.313-.811 2.387-.984 2.387-.172 0-.515.938-.761 2.084-.245 1.146-.687 2.361-.982 2.7-.295.339-.664 1.336-.82 2.216-.157.88-.523 1.87-.814 2.2-.291.33-.721 1.324-.957 2.208-.559 2.105-2.036 2.992-4.979 2.992-2.778 0-5.023-2.369-5.058-5.338-.005-.406-.277-1.216-.604-1.8-.327-.584-.883-1.872-1.237-2.862-1.777-4.976-2.133-5.891-2.724-7-.351-.66-.64-1.594-.642-2.076-.001-.482-.168-.98-.371-1.105-.204-.126-.67-1.171-1.036-2.324-.366-1.152-1.01-2.858-1.431-3.791-.42-.932-.764-1.927-.764-2.211 0-.283-.247-.87-.549-1.304-.302-.434-.679-1.419-.839-2.189-.159-.77-.631-1.994-1.049-2.72-.418-.727-.874-2.032-1.013-2.9-.139-.869-.402-1.58-.586-1.58-.183 0-.594-.855-.912-1.9-.319-1.045-.883-2.493-1.254-3.219-1.562-3.05 1.664-5.826 5.206-4.479m146.042.484c.635.488 1.286 1.073 1.448 1.3.632.89.356 45.307-.286 45.949-1.371 1.371-6.602 1.099-7.167-.372-.132-.346-.241-10.777-.241-23.181v-22.553l1.493-1.015c1.837-1.248 3.245-1.286 4.753-.128m50 0c.635.488 1.286 1.073 1.448 1.3.75 1.056.34 44.883-.428 45.832-1.084 1.338-5.245 1.381-6.559.067l-.907-.907-.116-21.689c-.13-24.36-.232-22.971 1.801-24.418 1.832-1.303 3.234-1.358 4.761-.185m-225.762 7.108c-.724.171-1.639.603-2.032.959s-.9.647-1.125.647c-.344 0-3.14 2.885-5.066 5.228-.284.345-.757 1.515-1.051 2.6-.294 1.085-.713 2.202-.931 2.484-.839 1.083-.509 9.286.484 12.031 1.873 5.179 3.565 6.769 10.278 9.659 2.955 1.273 8.937 1.065 10.859-.377l1.3-.975v-31.87l-1.026-.39c-1.197-.455-9.765-.452-11.69.004m81.341-.122c-1.132.315-4.954 4.549-5.235 5.8-.133.59-.5 1.287-.816 1.549-.339.282-.574 1.194-.574 2.228V250h20.492l-.284-2.273c-.34-2.722-1.792-5.558-3.9-7.618l-1.545-1.509-3.682-.071c-2.024-.04-4.03.025-4.456.143m209.02-.004c-5.761 1.218-7.781 11.529-3.141 16.026 2.631 2.549 2.765 2.618 5.516 2.815 10.729.767 15.752-9.705 8.2-17.095l-1.825-1.786-3.898-.081c-2.143-.044-4.327.01-4.852.121M35.6 257.2c-.55.176-2.386.338-4.08.36-3.358.044-7.005.68-7.863 1.371-.298.241-.911.625-1.361.853-2.686 1.364-3.526 6.95-1.496 9.948 2.101 3.102 6.729 4.337 10 2.668.862-.44 1.767-.8 2.011-.8.243 0 1.032-.45 1.753-1 .722-.55 1.41-1 1.531-1 1.742 0 2.908-2.616 3.039-6.815.181-5.804-.329-6.611-3.534-5.585m319.102 24.299c-3.148 3.161-4.392 6.464-2.902 7.701.33.274.6.75.6 1.058 0 .307.45.764 1 1.015.55.25 1 .592 1 .758 0 .167.855.619 1.9 1.005 1.045.386 2.153.896 2.461 1.133 1.243.954 12.367.537 15.194-.569 4.422-1.73 6.612-4.519 5.812-7.4-.28-1.007-3.388-3.4-4.417-3.4-.425 0-1.153-.267-1.618-.592-.529-.371-2.697-.754-5.789-1.022-2.719-.236-5.293-.623-5.721-.86-.429-.237-1.869-.499-3.2-.582l-2.422-.152-1.898 1.907"/><path fill="#fb991c" d="M237.6 165.566c-4.153.495-11.478 2.975-13.4 4.536-.22.179-.76.578-1.2.887-2.02 1.419-.095 1.777 6.2 1.151 10.551-1.05 10.883-1.057 14.423-.335 2.602.53 3.631.944 4.526 1.819l1.158 1.132-.184 4.142c-.121 2.72-.411 4.595-.843 5.462-.362.726-.776 1.977-.918 2.78-.143.803-.597 2.021-1.011 2.707-.413.686-.751 1.552-.751 1.925s-.438 1.611-.974 2.753c-1.401 2.984-1.62 4.115-.856 4.408 2.863 1.099 9.859-9.756 12.073-18.733.326-1.32.874-3.259 1.218-4.309.793-2.418.62-7.74-.27-8.309-3.008-1.924-12.016-2.87-19.191-2.016m-173.297 3.808c-1.122.821.451 2.87 4.319 5.626.618.44 2.035 1.576 3.151 2.524 2.724 2.317 8.72 6.456 10.495 7.246.477.212 1.017.635 1.2.94.182.305.872.826 1.532 1.158.66.331 2.37 1.239 3.8 2.016a858.683 858.683 0 0 0 7.8 4.187c2.386 1.254 5.356 2.529 5.891 2.529.336 0 .835.27 1.109.6.274.33.741.6 1.038.6.296 0 1.515.431 2.707.959 1.192.527 2.772 1.087 3.511 1.245.739.158 2.099.626 3.022 1.041.923.415 1.967.755 2.32.755.353 0 1.188.282 1.855.628.668.345 2.312.804 3.654 1.02 1.343.216 3.442.724 4.667 1.128 1.224.404 3.306.862 4.626 1.018 1.32.156 2.611.456 2.869.668.259.212 2.869.645 5.8.963 2.932.318 6.195.757 7.251.976 2.542.528 24.47.52 26.283-.009.768-.225 3.769-.662 6.669-.971 2.899-.31 5.613-.745 6.031-.969.417-.223 1.735-.524 2.928-.668 1.193-.143 3.159-.595 4.369-1.004 1.21-.408 3.19-.862 4.4-1.008 1.21-.146 2.988-.604 3.951-1.019.963-.414 2.043-.754 2.4-.755.357-.002 1.099-.231 1.649-.509s3.16-1.221 5.8-2.096c2.64-.875 5.038-1.816 5.329-2.092.29-.276.758-.501 1.04-.501.282 0 1.358-.45 2.393-1 1.034-.55 2.137-1 2.451-1 .314 0 1.529-.613 2.7-1.361 1.17-.749 2.79-1.638 3.598-1.976.809-.338 1.7-.811 1.98-1.05s2.166-1.513 4.19-2.83c7.101-4.618 6.505-9.118-.772-5.83-5.014 2.265-5.968 2.647-6.62 2.649-.379.002-1.154.246-1.723.542-.569.297-2.099.857-3.4 1.244-1.301.388-2.933.954-3.626 1.258-.694.305-1.781.554-2.416.554s-1.84.349-2.677.776c-.837.427-2.54.897-3.784 1.045-1.245.148-2.803.516-3.463.819-.66.302-2.64.818-4.4 1.147-1.76.329-4.01.779-5 1.001-.99.221-3.722.584-6.072.806-2.35.223-4.78.605-5.4.849-3.902 1.539-37.902 1.503-46.947-.05-2.541-.436-5.421-.8-6.4-.808-.98-.008-3.041-.28-4.581-.604-1.54-.324-4.33-.867-6.2-1.207-1.87-.34-3.94-.859-4.6-1.155-.66-.295-2.186-.668-3.39-.828-1.205-.16-2.555-.528-3-.818-.446-.29-1.979-.715-3.408-.944-1.429-.229-2.659-.599-2.733-.823-.075-.223-.449-.406-.831-.406-.798 0-4.041-1.011-5.898-1.838-.694-.309-1.506-.562-1.806-.562-.3 0-1.218-.36-2.038-.8-.821-.44-1.696-.8-1.945-.8-.416 0-1.405-.395-7.551-3.012-2.644-1.126-6.225-2.826-7.6-3.608-.55-.312-1.304-.571-1.676-.574-.372-.003-.797-.201-.944-.439-.148-.238-1.013-.776-1.924-1.196-1.715-.789-3.875-1.989-4.752-2.64-1.263-.938-2.541-1.24-3.201-.757M84.1 210.265c-.382.154-.5 2.645-.5 10.545 0 12.202.824 10.945-7.192 10.971-6.485.02-6.926.105-11.208 2.162-4.371 2.1-10 7.623-10 9.812 0 .21-.266.676-.591 1.035-1.007 1.113-2.609 8.127-2.609 11.426 0 8.703 4.564 17.255 10.8 20.235 5.584 2.669 4.868 2.525 12.6 2.537 7.558.013 11.909-.814 13.3-2.526.713-.877.732-65.27.02-65.982-.469-.469-3.626-.616-4.62-.215m156.567 4.635c-1.382 1.844-1.604 2.875-.908 4.221 2.459 4.755 9.173 2.019 7.416-3.022-.967-2.772-4.8-3.478-6.508-1.199m49.926-.018c-.922 1.095-1.049 1.543-.875 3.086.48 4.256 5.676 4.937 7.338.961 1.68-4.023-3.667-7.371-6.463-4.047m-73.613 6.281c-.209.2-1.01.711-1.78 1.137l-1.4.773v4.046c0 4.99-.21 5.283-3.91 5.465-1.445.071-2.821.25-3.058.396-.482.298-.603 4.593-.132 4.667.165.026 1.609.084 3.208.129 4.042.112 3.735-1.34 3.818 18.07L213.8 273l.991 1.798c2.343 4.248 9.695 6.035 14.247 3.464.639-.361 1.648-.83 2.241-1.041 2.19-.781 2.765-3.018 1.29-5.008-.573-.772-.631-.762-3.147.516-4.783 2.429-7.71 2.079-9.322-1.115-.887-1.758-.9-2.004-.9-17.288v-15.505l1.246-.645c.985-.509 2.196-.616 5.767-.51 2.486.074 4.599.044 4.695-.066 3.409-3.896 2.625-4.8-4.159-4.8-7.314 0-7.628-.295-7.502-7.041.085-4.59-.671-6.122-2.267-4.596m161.82 8.704c-1.581.536-4.753 2.133-4.986 2.51-.382.618-3.092.517-4.752-.177-1.962-.82-8.95-.811-10.038.013-.428.323-1.179.587-1.67.587-.491 0-1.427.45-2.081 1-.654.55-1.347 1-1.542 1-.958 0-4.862 5.393-5.391 7.448-1.03 4.002-1.226 5.85-.817 7.688 1.158 5.196 1.431 5.773 4.377 9.234 1.637 1.923 1.626 2.403-.121 5.035-1.915 2.886-2.353 6.849-1.035 9.378 1.135 2.176 1.079 3.057-.244 3.895-4.981 3.155-7.163 8.841-5.507 14.349.79 2.627 4.301 6.293 6.542 6.831.586.141 1.71.578 2.497.972.849.425 2.886.831 5 .996 1.963.153 3.794.458 4.071.678.277.22 1.267.292 2.2.16.933-.131 3.677-.501 6.097-.822 4.354-.578 7.692-1.667 9.938-3.243 1.781-1.251 4.262-3.839 4.262-4.446 0-.303.63-1.219 1.4-2.035 1.82-1.93 2.044-5.358.456-6.963-.52-.525-1.227-1.506-1.572-2.179-1.385-2.707-6.272-5.388-11.284-6.192-1.1-.176-2.54-.501-3.2-.721-.66-.221-3.236-.612-5.725-.869-2.489-.257-5.009-.72-5.6-1.028-.591-.309-1.279-.562-1.528-.564-1.086-.005-2.947-2.546-2.947-4.024 0-2.609 3.295-5.398 5.183-4.387 2.505 1.341 10.441-.171 14.067-2.68 7.076-4.897 9.03-16.152 3.922-22.588-2.258-2.844-1.295-4.323 2.814-4.323h1.934l.475-1.981c.262-1.09.359-2.17.217-2.4-.26-.42-4.288-.534-5.412-.152M24 232.2c-.77.307-2.165.755-3.1.995s-1.7.595-1.7.789c0 .194-.553.474-1.229.622-2.039.448-2.912 2.309-1.893 4.036.939 1.592 2.153 1.77 4.075.597.686-.419 2.057-.991 3.047-1.27.99-.28 2.014-.671 2.276-.868.262-.198 1.813-.46 3.447-.584 5.669-.428 9.656 2.355 11.062 7.723 1.633 6.233 1.484 6.371-7.227 6.669-7.111.243-12.208 1.249-13.784 2.72-.454.424-1.002.771-1.219.771-.783 0-3.273 3.055-4.401 5.4-3.13 6.509-.658 13.853 6.117 18.175 3.508 2.238 16.16.887 17.889-1.911.956-1.546 3.617-.789 4.043 1.151.269 1.225 1.761 1.814 3.845 1.52l.952-.135V243.379l-1.171-2.907c-2.531-6.285-6.952-8.888-15.037-8.851-2.951.013-5.092.22-5.992.579m127.019-.231c-.125.203-.752.485-1.393.625-2.752.605-7.55 4.703-8.904 7.606-.411.88-.907 1.87-1.104 2.2-1.938 3.256-3.237 18.222-1.741 20.063.24.295.646 1.558.902 2.806s.725 2.485 1.043 2.749c.318.264.578.714.578 1 0 .286.45 1.055 1 1.709.55.654 1 1.352 1 1.552 0 .959 4.431 4.255 7.8 5.802 6.125 2.814 23.892-.414 21.829-3.965-1.523-2.622-3.337-2.91-5.829-.926-.792.63-6.415 1.306-8.922 1.072-4.674-.437-9.991-4.045-11.584-7.862-.321-.77-.738-1.497-.927-1.616-.188-.119-.618-1.526-.955-3.126-1.189-5.653-2.267-5.258 14.368-5.258 11.77 0 13.794-.086 14.225-.606 1.588-1.913-.59-13.113-3.324-17.099-1.92-2.798-2.851-3.895-3.307-3.895-.262 0-.691-.259-.954-.576-1.585-1.91-12.874-3.754-13.801-2.255m42.581.231c-.55.314-1.309.578-1.687.586-.377.008-1.598.824-2.713 1.814-2.618 2.325-4.4 2.312-4.4-.031 0-1.199-.914-1.849-2.6-1.849-2.752 0-2.6-1.33-2.6 22.755 0 24.409-.13 23.325 2.8 23.325 2.887 0 2.8.542 2.8-17.426 0-19.075-.667-16.811 6.6-22.393 1.504-1.155 4.807-1.872 6.483-1.407.834.232 1.631.423 1.77.424.304.002 2.347-4.096 2.347-4.709 0-1.668-6.402-2.46-8.8-1.089m71.424.013c-.428.323-1.171.587-1.653.587-3.471 0-7.172 5.579-7.165 10.8.01 6.849 1.53 8.789 10.194 13.011 1.65.804 3.27 1.623 3.6 1.819.33.197 1.23.64 2 .984 3.437 1.537 6.066 5.855 5.241 8.608-1.775 5.923-11.532 8.338-18.569 4.596-1.513-.804-2.056-.917-2.798-.579-2.053.936-2.03 4.434.033 4.952.586.147 1.881.659 2.879 1.138 2.488 1.194 13.568 1.318 15.318.171.587-.385 1.27-.7 1.517-.7 1.006 0 4.164-2.734 5.418-4.692 2.269-3.541 2.544-9.847.549-12.592-.434-.596-.788-1.238-.788-1.428 0-.905-3.633-3.468-7.4-5.219-1.54-.716-3.16-1.508-3.6-1.761-.44-.253-1.61-.86-2.6-1.349-9.858-4.872-6.536-14.619 4.797-14.073 2.185.105 4.204.38 4.488.611 1.247 1.018 3.828 1.447 4.522.753 1.369-1.369-.032-5.033-1.936-5.064-.479-.008-1.321-.272-1.871-.586-1.441-.824-11.084-.814-12.176.013m56.576.05c-3.263 1.425-5.873 2.795-6.931 3.637-2.001 1.593-3.869.887-3.869-1.463 0-1.615-3.121-2.366-4.7-1.13-.651.509-.734 43.508-.086 44.719.483.903 3.885 1.115 4.706.294.358-.358.48-4.719.48-17.155v-16.674l2.718-2.224c2.839-2.323 6.879-4.667 8.043-4.667.373 0 .878-.199 1.121-.442 1.952-1.952 8.173.372 10.131 3.786l1.179 2.056.004 16.726c.005 19.302-.038 19.054 3.308 19.068 2.899.012 2.825.487 2.728-17.602-.111-20.548-.393-22.185-4.525-26.29-3.114-3.093-10.254-4.41-14.307-2.639m-225.1.72-1.301.579 1.029 2.719c.566 1.495 1.287 3.529 1.602 4.519.568 1.784.874 2.52 2.49 6 .46.99 1.029 2.52 1.265 3.4.235.88.695 1.949 1.021 2.376.327.428.594 1.24.594 1.806 0 .567.379 1.737.843 2.602.463.865 1.082 2.302 1.375 3.194 1.232 3.751 2.2 6.364 2.51 6.779.183.244.564 1.251.847 2.24.283.988.765 2.153 1.07 2.589.305.435.555 1.157.554 1.603-.001 2.062 2.14 5.4 3.468 5.406.697.003 1.547.112 1.888.243.828.318 2.936-2.011 3.268-3.61.141-.675.491-1.601.779-2.057.288-.456.752-1.626 1.031-2.6.279-.974.637-1.951.795-2.171.159-.22 1.052-2.56 1.985-5.2 3.073-8.697 3.258-9.196 3.554-9.6.161-.22.525-1.208.808-2.197.283-.988.765-2.153 1.07-2.589.305-.435.555-1.137.555-1.559 0-.422.345-1.507.767-2.411a40.129 40.129 0 0 0 1.4-3.544c1.492-4.481 2.011-5.755 2.715-6.672 1.072-1.396.182-2.191-2.409-2.152-3.434.052-4.431 1.327-5.697 7.281-.205.967-.53 1.957-.722 2.2-.459.584-1.964 4.688-2.713 7.398-.327 1.185-.835 2.535-1.129 3-.293.465-.659 1.475-.812 2.245-.153.77-.518 1.779-.81 2.242-.293.462-.655 1.542-.805 2.4-.151.857-.587 2.108-.97 2.781-.383.672-.822 1.888-.974 2.701-.282 1.501-1.567 3.076-2.509 3.076-.516 0-2.932-4.694-2.932-5.699 0-.292-.336-1.19-.746-1.994-.41-.805-.855-2.013-.99-2.685-.134-.672-.608-2.022-1.054-3-.445-.978-.81-1.954-.81-2.17 0-.35-1.889-5.389-2.794-7.452-.192-.44-.568-1.52-.835-2.4-.267-.88-.729-1.955-1.028-2.389-.299-.434-.543-1.177-.543-1.652 0-.88-1.826-5.204-2.329-5.515-.876-.542-3.218-.574-4.371-.061m145.567-.06-1.334.477.026 22.2c.029 24.826-.174 23.2 2.889 23.2 2.901 0 2.752 1.254 2.752-23.206v-21.949l-.889-.622c-1.042-.73-1.637-.748-3.444-.1m49.633.06-1.3.578v21.744c0 25.148-.216 23.771 3.667 23.398 1.073-.103 2.042-.279 2.155-.391.338-.338.233-44.818-.107-45.146-.67-.646-3.144-.749-4.415-.183M81.9 237.68l1.7.846v16.708c0 14.686-.076 16.785-.631 17.34-3.57 3.57-15.543 1.577-20.122-3.349-8.683-9.343-4.861-27.552 6.553-31.216.88-.282 1.784-.657 2.008-.834 1.203-.944 8.259-.605 10.492.505m77.661-.011c4.272 1.922 9.096 11.709 6.465 13.117-1.155.618-21.322.558-21.946-.066-.853-.853-.54-3.593.693-6.069 3.437-6.901 9.062-9.557 14.788-6.982m208.259-.533c.209.185.979.572 1.71.861 7.91 3.123 7.745 17.472-.23 20.02-.825.264-1.671.638-1.88.831-.712.659-4.887.381-6.839-.456-9.103-3.902-9.572-16.34-.781-20.71 1.684-.837 7.261-1.217 8.02-.546m-328.647 19.05c1.438.744 1.761 3.425 1.259 10.466-.039.544-3.09 3.748-3.57 3.748-.186 0-.645.34-1.021.755-4.427 4.892-13.602 3.797-16.541-1.975-3.631-7.132 1.366-12.475 12.3-13.152 2.75-.17 5.324-.336 5.72-.369.396-.032 1.23.205 1.853.527M363.8 279.189c8.968 1.315 10.343 1.612 12.529 2.706 6.327 3.165 6.055 9.173-.556 12.301-9.53 4.508-24.941.962-25.422-5.848-.227-3.215-.015-3.762 2.52-6.529 3.509-3.83 3.222-3.761 10.929-2.63"/><path fill="#9b9999" d="M32 97.992c-4.695 1.128-9.479 3.03-10.705 4.256-.304.304-.743.552-.976.552-.234 0-1.032.675-1.776 1.5-.743.825-1.597 1.77-1.898 2.1-.937 1.028-3.044 5.27-3.058 6.156-.007.464-.259 1.169-.559 1.565-2.032 2.68 2.527 5.002 10.103 5.146l2.965.056 1.339-1.561c.737-.859 1.46-1.922 1.607-2.362 1.004-2.997 3.761-4.6 7.91-4.6h3.316l1.818 1.792c1.803 1.778 1.82 1.821 2.103 5.215.363 4.358.302 4.428-4.092 4.695-1.923.116-4.577.496-5.897.843-1.32.347-3.435.74-4.7.872-1.265.132-2.558.498-2.872.812-.314.314-.989.572-1.499.573-1.099.001-4.955 1.86-6.223 2.998-4.048 3.637-6.138 6.275-6.676 8.43-.161.643-.593 1.503-.961 1.911-1.094 1.212-1.213 10.648-.153 12.153.428.608.91 1.528 1.07 2.044.362 1.162 2.258 3.991 3.393 5.062.467.44 1.153 1.115 1.524 1.5s.877.7 1.125.7c.247 0 .86.356 1.362.792.502.435 1.565.899 2.361 1.03.797.132 1.971.406 2.609.609 2.8.891 13.433-.367 14.82-1.754.373-.372.855-.677 1.072-.677.361 0 2.968-1.894 4.266-3.099.296-.275 1.006-.617 1.578-.761 1.089-.273.99-.354 4.358 3.535 2.364 2.73 4.591 3.068 7.121 1.083 4.22-3.312 7.825-7.086 7.825-8.191 0-1.116-1.368-4.377-2-4.767-1.968-1.216-2.189-3.095-2.4-20.4-.195-15.975-.223-16.449-1.1-18.278-.495-1.033-.9-2.023-.901-2.2 0-.177-.54-.952-1.199-1.722s-1.199-1.505-1.199-1.634c-.001-.304-4.157-3.166-4.599-3.166-.186 0-.623-.246-.971-.546C48.99 98.316 36.679 96.869 32 97.992m149 .011c-3.105.668-6.407 1.684-7 2.153-.33.262-1.23.791-2 1.176-2.398 1.2-2.997 1.625-4.33 3.068-.711.77-1.648 1.766-2.082 2.214-.433.448-.788.96-.788 1.138 0 .179-.331.802-.735 1.386-.695 1.004-1.855 3.964-2.342 5.976-.501 2.067 2.457 3.522 8.136 4.002 5.318.45 6.208.05 8.196-3.691 1.834-3.449 3.863-4.625 7.979-4.625 5.286 0 7.293 2.188 7.339 8l.027 3.4-3.6.268c-1.98.147-4.77.537-6.2.867-1.43.329-3.59.721-4.8.87-1.21.149-2.599.524-3.086.833-.487.309-1.23.562-1.651.562-2.399 0-8.069 4.004-10.282 7.262-.65.956-1.309 1.796-1.466 1.866-.156.071-.78 1.691-1.386 3.6-3.614 11.385 1.639 22.111 11.874 24.246 7.445 1.553 14.617-.023 19.902-4.374 2.908-2.393 3.259-2.33 6.632 1.2 3.312 3.466 4.756 3.879 6.99 2 .654-.55 1.27-1 1.37-1 .781 0 6.669-5.859 7.144-7.108.366-.964-.582-3.203-1.817-4.292-2.172-1.914-2.409-3.818-2.623-21-.196-15.766-.225-16.25-1.101-18.078-.495-1.033-.9-1.985-.9-2.116 0-.879-3.918-5.406-4.678-5.406-.287 0-.522-.176-.522-.391 0-.499-2.623-1.806-6.2-3.089-3.058-1.096-12.618-1.645-16-.917m-81.976.844c-1.307.422-2.671 1.034-3.032 1.36-.36.326-.821.594-1.023.595-.34.002-1.668 1.207-4.163 3.778-1.135 1.17-1.525.76-1.578-1.66-.02-.9-.413-1.646-1.328-2.517l-1.3-1.237-5.345.117-5.345.117-1.111 1.333c-1.625 1.947-1.599 1.45-1.599 30.894 0 33.695-.828 30.773 8.719 30.773 8.851 0 8.481 1.02 8.481-23.358 0-19.702.166-21.38 2.331-23.496 2.038-1.993 7.015-2.2 8.846-.369 1.772 1.772 1.802 2.122 2.017 23.423.26 25.731-.438 23.8 8.606 23.8 8.81 0 8.198 1.498 8.208-20.08.012-25.703.565-27.878 7.186-28.252 3.274-.185 4.257.278 5.807 2.734l.999 1.582v41.531l1.16 1.243 1.161 1.242h11.72l1.377-1.5 1.378-1.5.002-24.011c.002-19.702-.097-24.153-.547-24.8-.302-.434-.679-1.388-.838-2.119-.458-2.103-2.297-4.8-4.275-6.27l-1.938-1.436c-5.839-4.323-15.626-3.255-21.288 2.323-1.052 1.035-1.912 2.086-1.912 2.334 0 .248-.488.673-1.084.944-1.158.528-1.062.588-2.516-1.585-3.751-5.61-11.139-8.076-17.776-5.933m192.207-.014c-2.772.8-6.831 2.705-6.831 3.205 0 .17-.366.424-.814.566-.834.265-4.593 3.854-5.479 5.23-.271.421-.905 1.396-1.41 2.166-3.539 5.4-5.067 11.671-5.068 20.8-.001 8.893 1.039 13.311 4.785 20.321 1.507 2.822 5.683 7.679 6.601 7.679.275 0 .591.24.704.533 1.058 2.757 15.055 5.458 19.235 3.712.73-.305 2.078-.681 2.995-.836.917-.155 1.888-.493 2.159-.75.271-.258 1.032-.708 1.692-1 1.303-.577 1.244-.53 4.9-3.979 1.375-1.297 2.5-2.475 2.5-2.619 0-.144.281-.576.625-.961 1.079-1.209 2.555-3.68 2.814-4.711.136-.545.589-1.659 1.005-2.475.416-.816.756-1.994.756-2.618 0-.625.315-1.712.7-2.416 1.038-1.897 1.031-17.436-.009-19.36-.38-.704-.691-1.726-.691-2.27 0-1.203-2.264-6.971-3.041-7.749-.308-.307-.559-.8-.559-1.096 0-.771-4.92-6.213-7.3-8.074-4.346-3.398-14.31-5.019-20.269-3.298m65.941.108c-3.05.997-6.039 3.225-7.788 5.808-1.811 2.672-2.184 2.579-2.184-.546 0-2.412-.111-2.776-1.169-3.834l-1.169-1.169h-5.225c-5.14 0-5.244.018-6.433 1.1l-1.209 1.1-.013 29.376-.012 29.376 1.024 1.024c1.007 1.008 1.118 1.024 7.043 1.024h6.019l1.161-1.4 1.161-1.4.015-16.6c.014-16.991.379-23.264 1.421-24.415.322-.357.586-.904.586-1.218 0-2.034 4.659-3.916 7.761-3.135 4.29 1.08 4.612 3.002 4.61 27.515-.002 22.685-.721 21.007 8.898 20.781 5.149-.12 5.529-.185 6.5-1.098l1.031-.969v-23.343c0-21.752-.051-23.499-.751-25.631-.412-1.258-.876-2.827-1.031-3.487-1.645-7.043-11.972-11.562-20.246-8.859m-312.819.386c5.377.902 12.847 4.897 12.847 6.871 0 .294.194.6.432.679.586.196 1.833 3.997 2.344 7.146.234 1.441.419 8.805.421 16.7l.003 14.123 1.038 1.877c.571 1.032 1.366 2.237 1.766 2.677.692.76.989 2.169.856 4.055-.049.701-3.815 4.374-7.552 7.368-1.978 1.584-2.654 1.186-7.786-4.583-1.603-1.803-2.528-1.793-4.522.051-7.863 7.268-21.269 7.819-27.941 1.147-1.022-1.022-1.859-2.088-1.859-2.369 0-.28-.202-.711-.448-.957-2.359-2.359-3.175-10.817-1.442-14.944 2.885-6.871 7.498-11.374 12.89-12.584.66-.148 2.19-.6 3.4-1.004 1.21-.405 4.759-1.01 7.886-1.347 9.461-1.017 9.686-1.304 7.905-10.054-1.155-5.677-14.283-5.743-16.159-.082-1.26 3.802-2.543 4.293-9.232 3.536-5.186-.588-5.475-.813-4.877-3.793.656-3.266 5.152-10.24 6.6-10.24.221 0 .991-.45 1.713-1 .721-.55 1.48-1 1.686-1 .207 0 1.195-.362 2.197-.805 1.001-.443 3.568-1.068 5.706-1.389 2.137-.321 3.995-.692 4.128-.826.317-.317 3.331-.036 8 .747m149.075.004c6.049 1.082 12.972 4.942 12.972 7.234 0 .295.269.76.597 1.033.329.272.786 1.239 1.017 2.149.231.909.585 2.013.788 2.453.203.44.424 7.91.491 16.6l.121 15.8 1.159 2.2c.637 1.21 1.504 2.587 1.926 3.061 1.601 1.797 1.395 3.77-.58 5.55-8.392 7.565-7.883 7.449-12.183 2.795-3.529-3.82-4.075-4.006-6.157-2.104-1.663 1.519-4.232 3.498-4.54 3.498-.119 0-1.256.478-2.527 1.063-3.562 1.637-12.667 1.645-16.544.014-4.707-1.981-7.529-5.619-8.406-10.841-.801-4.767-.846-5.509-.439-7.163.227-.92.64-2.729.92-4.019.279-1.291.72-2.559.979-2.819.26-.26.594-.856.743-1.324.715-2.253 8.857-8.111 11.276-8.111.417 0 1.659-.34 2.759-.755 1.1-.414 3.17-.872 4.6-1.017 12.309-1.244 12-1.114 12-5.06 0-7.676-3.598-10.874-10.771-9.573-3.213.582-4.714 1.705-6.605 4.938-1.41 2.412-3.307 3.834-4.296 3.222-.196-.121-2.194-.392-4.442-.603-2.392-.225-4.308-.605-4.621-.917-.798-.795-.2-4.724.983-6.468.524-.771.952-1.501.952-1.621 0-.614 3.937-4.708 5.174-5.38.784-.426 1.696-.932 2.026-1.125 2.081-1.215 5.126-2.17 8.325-2.61 2.026-.279 3.816-.638 3.977-.799.39-.39 3.869-.098 8.326.699m-83.104 1.346c1.168.552 2.589 1.436 3.158 1.964.569.527 1.169.959 1.333.959.164 0 .41.405.546.9.97 3.516 4.14 4.649 5.474 1.956 2.968-5.993 13.766-8.928 20.636-5.609 2.488 1.202 5.61 3.749 5.965 4.865.152.48.609 1.326 1.015 1.88 1.176 1.604 1.391 7.362 1.16 30.944l-.211 21.536-.944.764c-1.637 1.324-10.363 1.127-12.025-.272l-1.231-1.035v-42.538l-1.3-1.502c-4.154-4.801-10.716-3.462-13.589 2.773-.876 1.901-.896 2.314-1.102 21.874L119 160.072l-.944.764c-1.445 1.169-10.275 1.136-11.776-.045l-1.028-.808-.137-20.492c-.135-20.058-.156-20.529-1.006-22.302-3.239-6.759-10.94-6.363-14.043.722l-1.002 2.289-.232 19.936-.232 19.936-.944.764c-.983.795-10.428 1.171-11.496.458-1.312-.876-1.36-1.963-1.36-30.639v-28.597l1.054-.829c.931-.733 1.594-.828 5.7-.816 5.785.015 6.846.621 6.846 3.906 0 3.403 1.087 3.818 3.121 1.192 4.542-5.866 12.372-7.879 18.803-4.834m114.786-.862c-2.381 1.31-2.909 9.055-.78 11.437l1.13 1.265 8.97.042 8.97.041-.121 1.2c-.066.66-.34 1.38-.608 1.6-.835.684-3.071 3.931-3.071 4.459 0 .276-.229.645-.51.821-.28.176-.814.77-1.187 1.32-.373.55-1.221 1.72-1.884 2.6-.663.88-1.331 1.87-1.485 2.2-.154.33-1.012 1.59-1.907 2.8-.895 1.21-1.807 2.489-2.027 2.843-.22.353-.94 1.417-1.6 2.364-.66.946-1.47 2.115-1.8 2.597l-1.397 2.036c-.438.638-1.111 1.507-1.495 1.931-.384.423-.803 1.098-.93 1.5-.128.401-.386.729-.574.729-1.695 0-2.081 14.012-.434 15.766 1.09 1.163 2.978 1.383 3.999.468 3.762-3.375 24.652-4.777 30.167-2.026.63.314 1.801.688 2.604.832.803.144 1.75.514 2.105.823 3.998 3.48 6.328.339 5.859-7.896-.251-4.398-3.554-7.967-7.372-7.967-.315 0-1.094-.27-1.733-.601-.639-.33-3.501-.944-6.361-1.364-7.554-1.109-7.523-.982-2.042-8.235.665-.88 1.319-1.915 1.453-2.3.135-.385.399-.7.587-.7.189 0 .637-.568.996-1.262.359-.695.994-1.629 1.411-2.076.416-.447.757-1.055.757-1.35 0-.295.284-.646.631-.779.346-.133.801-.623 1.01-1.088.209-.465.828-1.475 1.375-2.245.548-.77 1.219-1.729 1.49-2.132.272-.402 1.349-1.874 2.394-3.27 1.045-1.396 1.9-2.723 1.9-2.948 0-.226.244-.554.542-.73 1.73-1.022 2.185-10.213.6-12.12l-.832-1-18.855-.092c-16.125-.079-19.013-.006-19.945.507m80.69.894c1.76.583 3.757 1.471 4.438 1.975.681.504 1.342.916 1.469.916.759 0 6.077 6.272 6.504 7.671.156.511.51 1.199.786 1.529.276.33.73 1.32 1.009 2.2.279.88.752 1.955 1.051 2.389.299.434.547 1.334.552 2 .004.666.364 2.822.8 4.791a31.23 31.23 0 0 1 0 13.64c-.436 1.969-.796 3.997-.8 4.506-.005.509-.459 1.909-1.009 3.111-.55 1.203-1 2.441-1 2.751 0 .311-.183.678-.406.816-.223.137-.808.982-1.3 1.877-1.459 2.655-1.6 2.833-3.894 4.92-11.419 10.389-31.64 7.718-36.403-4.808-.244-.642-.646-1.411-.893-1.709-.804-.968-2.295-5.025-2.75-7.484-.245-1.32-.629-2.85-.854-3.4-.76-1.858-.871-10.89-.171-13.887.348-1.492.846-3.793 1.106-5.113.475-2.417 1.167-4.222 3.109-8.115 1.285-2.575 5.678-7.496 7.4-8.29.691-.318 1.526-.756 1.856-.973 4.403-2.894 12.887-3.468 19.4-1.313m63.6.097c8.042 3.758 8.707 6.514 8.892 36.855l.134 21.861-1.067.839c-.966.76-1.587.839-6.567.839-7.538 0-6.792 2.234-6.792-20.337 0-23.012-.307-24.836-4.666-27.71-3.676-2.424-9.934 1.011-10.96 6.015l-.734 3.587c-.28 1.369-.44 8.378-.44 19.241v17.087l-.981 1.059c-1.634 1.762-11.892 1.527-13.113-.302-.162-.242-.297-13.342-.3-29.111l-.006-28.671 1.054-.829c3.14-2.47 12.857-.692 12.305 2.251-.368 1.961.157 4.802.944 5.104.703.27 1.331-.355 3.162-3.148 3.782-5.768 12.294-7.828 19.135-4.63m-106.074.054c1.356.714 1.462 1.083 1.465 5.14l.004 3.8-2.23 3.2c-2.975 4.269-4.283 6.181-4.765 6.965-.647 1.053-2.341 3.418-2.604 3.635-.133.11-1.097 1.46-2.142 3a269.153 269.153 0 0 1-3.484 5c-3.375 4.689-5.57 8.091-5.57 8.634 0 1.47 1.503 2.166 4.7 2.176 1.705.005 3.73.18 4.5.39l4.354 1.186c1.624.443 3.154.964 3.4 1.157.245.194 1.109.566 1.92.827 2.445.788 3.126 2.435 3.126 7.564 0 5.356-1.609 7.865-3.546 5.531-.245-.295-1.21-.765-2.146-1.045-.936-.281-2.058-.76-2.494-1.065-.435-.305-1.269-.555-1.853-.555-.583 0-1.848-.295-2.811-.656-2.959-1.109-13.961-1.255-17.426-.232-1.498.443-3.381.918-4.184 1.057-.803.139-1.973.506-2.6.817-.627.311-1.635.752-2.24.98-.605.228-1.1.599-1.1.824 0 .71-1.311.445-2.274-.46-.882-.828-.926-1.133-.926-6.465 0-6.663-.449-5.607 6.751-15.865.695-.99 1.926-2.79 2.736-4 .811-1.21 1.887-2.63 2.393-3.155.506-.525.932-1.155.947-1.4.014-.245.634-1.255 1.376-2.245.743-.99 2.391-3.33 3.663-5.2 1.272-1.87 2.519-3.58 2.77-3.8.251-.22.883-1.181 1.404-2.137 1.507-2.759 1.167-2.863-9.395-2.863h-8.801l-1.065-1.02c-1.444-1.384-1.324-8.268.165-9.471 1.068-.863 36.377-1.094 37.982-.249m29.41 11.24c-6.621 6.478-6.206 31.814.619 37.807 3.305 2.901 9.219 1.575 11.108-2.492.208-.448.651-1.313.983-1.922 2.932-5.37 2.48-25.375-.7-30.972-1.992-3.507-3.026-4.121-6.94-4.121h-3.333l-1.737 1.7m7.79-.45c4.495 2.315 6.146 10.592 5.157 25.846-.699 10.781-5.56 15.849-11.322 11.804-6.753-4.74-6.834-32.268-.11-36.987 1.697-1.19 4.646-1.502 6.275-.663M38.8 131.605c-9.637 1.315-15.009 11.596-9.264 17.731 2.48 2.647 8.914 3.195 9.819.836.121-.315.462-.572.757-.572.587 0 1.965-1.687 3.416-4.183.97-1.669 1.663-5.955 1.669-10.317.005-3.75-.902-4.245-6.397-3.495m149 .006c-10.026 1.259-14.997 12.007-8.473 18.321 5.872 5.682 14.201-1.057 14.569-11.787.254-7.404.315-7.339-6.096-6.534M44.076 133.8c.934 3.401-.943 11.63-3.051 13.38-.344.285-.625.766-.625 1.069 0 .303-.187.551-.416.551-.229 0-.956.399-1.615.886-2.23 1.649-5.565 1.304-7.662-.792L29 147.188v-4.094c0-3.878.06-4.172 1.131-5.572 3.204-4.189 13.093-6.828 13.945-3.722m148.881-.767c1.201 3.13-.395 11.353-2.757 14.202-6.116 7.377-14.795 1.901-11.985-7.562.339-1.14.76-2.073.936-2.073.176 0 .526-.45.776-1 .251-.55.656-1 .901-1s.892-.351 1.437-.78c2.301-1.81 10.178-3.126 10.692-1.787"/><path fill="#fcd39c" d="M37.3 97.487a8.899 8.899 0 0 0 2.2 0c.605-.092.11-.167-1.1-.167-1.21 0-1.705.075-1.1.167m149.007.003c.719.089 1.799.087 2.4-.004s.013-.164-1.307-.162c-1.32.002-1.812.077-1.093.166M30.1 98.012c-.495.199-.9.477-.9.618 0 .141.315.122.7-.041.385-.163 1.33-.432 2.1-.597 1.367-.293 1.372-.3.2-.321-.66-.011-1.605.142-2.1.341m15.3.18c1.1.295 2.054.484 2.12.419.221-.217-2.427-1.011-3.28-.984-.462.015.06.269 1.16.565m54.8.012c-.66.334-.84.489-.4.343 1.542-.51 5.651-.626 7.184-.202 1.211.334 1.443.322 1.064-.057-.754-.754-6.407-.815-7.848-.084m30.2.038c-.55.337-.64.467-.2.288 1.002-.407 6.858-.431 8.2-.034.756.224.708.155-.2-.282-1.636-.788-6.499-.77-7.8.028m48.4 0c-.647.397-.718.513-.2.328.44-.157 1.52-.417 2.4-.578l1.6-.292-1.4-.036c-.77-.02-1.85.24-2.4.578m15-.251c.66.171 1.56.437 2 .592.789.278.789.273.024-.35-.428-.348-1.328-.615-2-.592l-1.224.041 1.2.309m98.8.223c-.908.437-.956.506-.2.282 1.275-.377 8.16-.385 10-.012 1.319.268 1.308.253-.2-.269-2.157-.746-8.051-.747-9.6-.001m66 0c-.908.437-.956.506-.2.282.55-.163 2.44-.296 4.2-.296 1.76 0 3.65.133 4.2.296.756.224.708.155-.2-.282-.695-.335-2.379-.578-4-.578s-3.305.243-4 .578M95.829 99.829c-.952.951-.753 1.199.271.337.495-.416.975-.804 1.067-.862.091-.057-.031-.104-.272-.104-.241 0-.721.283-1.066.629m103.349-.188c.539.215 1.177.519 1.419.675.243.156.097-.031-.322-.416-.42-.385-1.059-.689-1.419-.675-.415.016-.296.169.322.416m-124.991 1.34c-.583.765-.97 1.702-.866 2.1.17.657.19.653.233-.043.025-.419.505-1.364 1.066-2.1.562-.736.931-1.338.821-1.338-.11 0-.674.621-1.254 1.381m47.998 1.919L120.2 105l2.1-1.985c1.951-1.844 2.283-2.215 1.985-2.215-.063 0-1.008.945-2.1 2.1M331.79 130c0 15.73.049 22.165.11 14.3.06-7.865.06-20.735 0-28.6-.061-7.865-.11-1.43-.11 14.3M89.293 103.2c0 .77.082 1.085.183.7.1-.385.1-1.015 0-1.4-.101-.385-.183-.07-.183.7m133.407-.05c-.481 2.165-.359 6.303.2 6.769.486.404.536-1.384.191-6.719l-.091-1.4-.3 1.35m-17.075.681c.756.897 1.456 1.566 1.555 1.486.099-.079-.52-.813-1.375-1.63l-1.555-1.487 1.375 1.631m142.476 2.009c-.495.564-.69.956-.434.871.431-.144 1.813-1.92 1.482-1.904-.082.004-.554.469-1.048 1.033m-32.101.628c1.002.977 1.51 1.157 1.018.361-.145-.234-.658-.63-1.14-.88-.795-.413-.784-.364.122.519m-302.005 3.545c-.698 1.683-.339 1.794.454.141.358-.745.514-1.354.349-1.354-.166 0-.527.546-.803 1.213m363.618-1.193c.048.658 1.564 4.452 1.574 3.94.017-.816-.789-3.242-1.242-3.74-.19-.209-.339-.299-.332-.2m-345.157 2.793c-1.24 1.033-.681 1.022.635-.013.559-.44.858-.794.663-.787-.195.008-.779.368-1.298.8m157.521.17c.734.541 1.753 1.666 2.266 2.5 1.132 1.842 1.279 1.508.166-.379-.74-1.253-2.809-3.104-3.471-3.104-.161 0 .306.443 1.039.983m105.047.03c-.428.323-.573.587-.324.587.249 0 .564-.18.7-.4.381-.617 4.099-.473 5.42.21.649.336 1.18.521 1.18.411 0-1.209-5.591-1.857-6.976-.808m-252.56 1.336c1.384 2.451 1.524 2.64 1.516 2.051-.005-.33-.468-1.14-1.03-1.8-.746-.877-.877-.945-.486-.251m192.918-.454c5.414.088 7.682.264 7.93.614.253.356.304.326.185-.109-.138-.507-1.373-.602-7.93-.614l-7.767-.014 7.582.123m-84.029 5.505c0 2.64.065 3.668.144 2.284.078-1.383.077-3.543-.002-4.8-.079-1.256-.143-.124-.142 2.516m-24.662-3.911c.71.088 1.97.09 2.8.003.83-.087.249-.159-1.291-.161-1.54-.002-2.219.069-1.509.158M123 116c-.859.88-1.444 1.6-1.3 1.6.263 0 3.1-2.802 3.1-3.061 0-.316-.313-.062-1.8 1.461m180.626-.8c.007.587 1.524 3.649 1.557 3.144.009-.141-.339-1.041-.774-2-.435-.959-.788-1.474-.783-1.144m-291.18.651c-.025.468.269 1.098.654 1.4.609.477.64.471.243-.051-.251-.33-.545-.96-.654-1.4-.186-.76-.199-.757-.243.051M178 115.503c0 .239-.489 1.034-1.086 1.766-.893 1.095-.922 1.19-.163.535 1.078-.929 1.814-2.173 1.481-2.505-.127-.128-.232-.036-.232.204m-16.022 1.423c.638.823 2.521 1.882 3.302 1.858.286-.008-.105-.286-.868-.617-.764-.332-1.75-.909-2.193-1.285-.767-.65-.779-.648-.241.044m31.218 2.356c-.108 1.695-.052 2.937.124 2.76.175-.177.264-1.563.196-3.082l-.124-2.76-.196 3.082m-59.996-2.404c0 .126.263.836.584 1.576.405.932.586 1.1.588.546.001-.44-.262-1.149-.585-1.576-.323-.428-.587-.673-.587-.546m127.233 1.022a49.085 49.085 0 0 1-1.244 1.6c-.231.275-.265.5-.076.5.19 0 .816-.72 1.392-1.6 1.199-1.83 1.155-2.136-.072-.5m118.953 20.5c0 11.77.051 16.585.114 10.7.062-5.885.062-15.515 0-21.4-.063-5.885-.114-1.07-.114 10.7M44.114 119.8c.003 1.1.081 1.503.173.895.092-.609.09-1.509-.005-2-.095-.492-.171.005-.168 1.105m-27.714-.995c.33.211 1.125.386 1.767.389 1.547.008 1.21-.223-.767-.526-1.09-.167-1.409-.123-1 .137m10.18-.039c-.209.202-.83.447-1.38.546l-1 .179 1.051.055c.578.029 1.275-.216 1.549-.546.544-.656.389-.821-.22-.234m139.92.31c.385.1 1.015.1 1.4 0 .385-.101.07-.183-.7-.183s-1.085.082-.7.183m-146 .411a8.899 8.899 0 0 0 2.2 0c.605-.092.11-.167-1.1-.167-1.21 0-1.705.075-1.1.167m149.407.003c.719.089 1.799.087 2.4-.004s.013-.164-1.307-.162c-1.32.002-1.812.077-1.093.166m68.793.895c-1.018.992-.86 1.395.171.435.479-.446.794-.88.7-.964-.094-.084-.486.154-.871.529m83.728-.585c0 .22.258.85.572 1.4.314.55.572.82.572.6 0-.22-.258-.85-.572-1.4-.314-.55-.572-.82-.572-.6m-219.135 19.424c-.082 17.167-.02 19.513.537 20.2.346.427.481.506.3.176-.182-.33-.423-9.42-.537-20.2l-.208-19.6-.092 19.424M90.509 122c0 .99.078 1.395.173.9a5.661 5.661 0 0 0 0-1.8c-.095-.495-.173-.09-.173.9m30.224-.7c-.222.334-.482 38.609-.261 38.381.245-.252.67-38.482.428-38.481-.055 0-.13.045-.167.1m169.004 3.3c.002 1.76.072 2.43.156 1.489.085-.94.084-2.38-.002-3.2-.086-.819-.155-.049-.154 1.711m72.847 16c0 10.12.052 14.203.116 9.073.063-5.131.063-13.411 0-18.4-.064-4.99-.116-.793-.116 9.327M182.99 123.216c-.169.273.133.322.876.144 1.533-.368 1.678-.56.424-.56-.573 0-1.158.187-1.3.416m140.711.984c.004.88.086 1.193.182.695.096-.497.092-1.217-.008-1.6-.1-.382-.179.025-.174.905m24.795 17.769c-.087 15.72-.161 17.447-.781 18.2l-.685.831.889-.815.89-.816-.109-17.384-.109-17.385-.095 17.369M305.75 131.4c.001 2.42.066 3.358.146 2.085.08-1.273.079-3.253-.002-4.4-.08-1.147-.145-.105-.144 2.315m18.396-.4c.001 2.2.068 3.049.149 1.887.081-1.163.081-2.963-.002-4-.082-1.038-.148-.087-.147 2.113m-34.837-1.4c0 .99.078 1.395.173.9a5.661 5.661 0 0 0 0-1.8c-.095-.495-.173-.09-.173.9m.433 5.4c-.001 1.98.066 2.84.15 1.912.084-.928.085-2.548.003-3.6-.083-1.052-.152-.292-.153 1.688m-250.919-2.164c-.977.192-1.967.437-2.2.545-.694.322 3.508-.264 4.377-.611 1.028-.41.11-.382-2.177.066m149.038-.017c-1.067.179-2.042.429-2.168.555-.306.305 3.488-.207 4.507-.608.994-.392.205-.373-2.339.053m3.739-.134c.33.122.829.404 1.109.625.381.302.446.238.257-.253-.138-.362-.637-.643-1.109-.625-.585.021-.667.102-.257.253M44.109 136c0 .99.078 1.395.173.9a5.661 5.661 0 0 0 0-1.8c-.095-.495-.173-.09-.173.9m-14.034 1.584c-.981 1.327-1.197 2.266-.233 1.016.736-.955 1.442-2.2 1.247-2.2-.076 0-.532.533-1.014 1.184m241.773 1.816c.125 1.1.393 2.27.596 2.6.391.64.308.066-.436-3-.376-1.553-.381-1.541-.16.4m-260.827-.623c-.387.427-.609 1.012-.494 1.3.162.403.217.392.241-.046.018-.312.33-.897.694-1.3.364-.402.572-.731.462-.731-.11 0-.516.35-.903.777m311.844 2.24c-.67 1.471-.542 1.785.182.448.339-.625.541-1.211.449-1.302-.091-.092-.375.293-.631.854m-75.632-.073c.092.079 1.067.257 2.167.397 1.365.173 1.81.129 1.4-.138-.541-.353-3.964-.602-3.567-.259m-69.605 2.089c.016 1.082.176 2.327.357 2.767.193.47.241-.273.117-1.8-.254-3.145-.513-3.671-.474-.967m112.802-.233c-.002.576 1.127 2.866 1.156 2.346.008-.14-.249-.86-.57-1.6-.322-.74-.585-1.076-.586-.746m-69.387 4.633c-.351.913-.3 10.485.057 10.705.165.101.3-2.408.3-5.577s-.026-5.761-.057-5.761c-.032 0-.167.285-.3.633m-187.138 3.25c.497.096 1.217.092 1.6-.008.382-.1-.025-.179-.905-.174-.88.004-1.193.086-.695.182m31.108.048c.15.293.418 1.013.596 1.6.258.858.329.906.357.245.019-.452-.249-1.172-.596-1.6-.346-.427-.507-.537-.357-.245m117.887-.055c.385.1 1.015.1 1.4 0 .385-.101.07-.183-.7-.183s-1.085.082-.7.183m31.932 2.493c-.018.312-.34.942-.717 1.4-.646.784-.632.782.247-.027.513-.472.835-1.102.717-1.4-.175-.439-.222-.434-.247.027m101.351 1.94a10.07 10.07 0 0 0-1.393 1.491c-.316.44.095.17.913-.6.819-.77 1.49-1.445 1.493-1.5.008-.201-.213-.068-1.013.609M280.2 156.8c.859.88 1.652 1.6 1.762 1.6.11 0-.503-.72-1.362-1.6-.859-.88-1.652-1.6-1.762-1.6-.11 0 .503.72 1.362 1.6m-266.6-.536c0 .218.495.833 1.1 1.366l1.1.97-1-1.2c-.55-.66-1.045-1.275-1.1-1.367-.055-.091-.1.012-.1.231m33 .422c.44.107 1.25.581 1.8 1.054l1 .86-.97-1.1c-.533-.605-1.343-1.079-1.8-1.054-.804.045-.805.053-.03.24m116.806.626c.386.612.803 1.012.926.889s-.193-.623-.702-1.112l-.926-.889.702 1.112m32.194-.619c.55.101 1.27.391 1.6.645.522.402.529.371.051-.238-.303-.386-1.021-.676-1.6-.646l-1.051.055 1 .184m44.7.005c2.035.073 5.365.073 7.4 0s.37-.132-3.7-.132-5.735.059-3.7.132m-47.121 1.124c-.528.562-.691.919-.361.792.521-.199 1.816-1.814 1.455-1.814-.073 0-.566.46-1.094 1.022m38.221-.008c-.66.303-.93.552-.6.554.33.002 1.05-.254 1.6-.568 1.265-.723.589-.713-1 .014m24.2-.045c1.114.672 1.991.847 1.38.276-.209-.195-.83-.473-1.38-.617l-1-.261 1 .602m-165.698.831c-.105.55-.036 1 .153 1 .19 0 .345-.45.345-1s-.069-1-.153-1c-.085 0-.24.45-.345 1m136.842 1.024-.944.823 1.2-.702c1.579-.925 1.603-.945 1.111-.945-.232 0-.847.371-1.367.824m135.668-.146c-.007.262.393.901.888 1.419s.7.663.456.323c-.244-.341-.644-.98-.888-1.42-.244-.44-.449-.585-.456-.322M88.4 161.472c-.887.938-.903 1.006-.147.604.469-.25.958-.729 1.087-1.065.314-.817.228-.775-.94.461m117.878-.059c-1.472 1.294-.945 1.283.595-.013.654-.55 1.04-.994.858-.987-.182.007-.836.457-1.453 1M19.2 161.157c0 .555 1.522 1.345 2.122 1.101.27-.11.186-.209-.193-.226-.37-.018-.955-.315-1.3-.661-.346-.345-.629-.442-.629-.214m149.725.543c.42.385 1.059.689 1.419.675.415-.016.296-.169-.322-.416-.539-.215-1.177-.519-1.419-.675-.243-.156-.097.031.322.416M24.2 162.986c1.254.604 6.996.797 8.306.278.389-.153-1.141-.276-3.4-.272-2.258.005-4.556-.125-5.106-.288-.756-.224-.708-.155.2.282m54.9-.291c1.155.081 3.045.081 4.2 0 1.155-.081.21-.147-2.1-.147s-3.255.066-2.1.147m31.415.001c1.273.08 3.253.079 4.4-.002 1.147-.08.105-.145-2.315-.144-2.42.001-3.358.066-2.085.146m30.185-.001c1.155.081 3.045.081 4.2 0 1.155-.081.21-.147-2.1-.147s-3.255.066-2.1.147m32.7.303c1.267.597 6.427.745 8.2.235.559-.161-.762-.276-3-.261-2.2.016-4.54-.1-5.2-.256l-1.2-.283 1.2.565m129.6.016c-.66.303-.919.558-.576.568.342.01.972-.246 1.4-.569.948-.717.745-.717-.824.001m-11.4.168c.33.223.945.409 1.367.412 1.023.008.704-.221-.767-.55-.876-.196-1.038-.159-.6.138m-51.233.579c-.092.089-2.057.475-4.367.858-2.31.382-4.827 1.03-5.594 1.438-.767.409-1.791.743-2.276.743-.486 0-.981.159-1.101.354-.12.194-1.031.735-2.024 1.202-.993.466-1.805 1.015-1.805 1.219 0 .204-.36.485-.8.625-1.105.351-1.092 2.611.02 3.618.727.658.965.683 2.1.215 2.137-.881 6.927-1.272 14.08-1.15l6.8.117 1.5 1.2c1.718 1.375 2.045 3.721.9 6.462-.33.789-.6 1.765-.6 2.167 0 1.083-2.329 8.342-3.225 10.05-.426.814-.775 1.825-.775 2.246 0 .422-.36 1.225-.8 1.784-1.319 1.677-.407 3.891 1.603 3.891 1.55 0 8.203-7.434 9.005-10.062.158-.516.521-1.208.808-1.538.287-.33.652-1.14.811-1.8.159-.66.623-1.678 1.031-2.262.408-.584.742-1.457.742-1.939 0-.483.256-1.445.57-2.139 1.396-3.09 2.055-12.899.93-13.852-1.721-1.456-2.451-2.009-2.661-2.014-.132-.004-1.931-.364-4-.8-3.27-.69-10.385-1.104-10.872-.633m55.733.13c.825.087 2.175.087 3 0 .825-.086.15-.157-1.5-.157s-2.325.071-1.5.157m-42.1 2.478c1.21.459 2.466 1.005 2.791 1.213.89.569 1.063 5.891.27 8.309a73.521 73.521 0 0 0-1.218 4.309c-2.214 8.977-9.21 19.832-12.073 18.733-.764-.293-.545-1.424.856-4.408.536-1.142.974-2.38.974-2.753 0-.373.338-1.239.751-1.925.414-.686.868-1.904 1.011-2.707.142-.803.556-2.054.918-2.78.432-.867.722-2.742.843-5.462l.184-4.142-1.158-1.132c-.895-.875-1.924-1.289-4.526-1.819-3.54-.722-3.872-.715-14.423.335-6.295.626-8.22.268-6.2-1.151.44-.309.98-.708 1.2-.887 5.086-4.133 22.874-6.361 29.8-3.733m-190.214 2.012c-2.577 1.044-1.587 2.93 3.814 7.263.55.441 1.72 1.429 2.6 2.196.88.767 2.77 2.192 4.2 3.166 1.43.975 3.371 2.317 4.314 2.983.943.666 1.866 1.211 2.051 1.211.185 0 .572.283.859.629.287.346 1.165.983 1.949 1.415.785.432 2.147 1.218 3.027 1.747.88.528 2.367 1.352 3.305 1.831.938.479 1.804 1.03 1.924 1.224.12.195.54.354.933.354.394 0 1.136.365 1.651.811.514.446 1.38.923 1.924 1.059.545.137 1.727.67 2.627 1.185.9.514 2.026.938 2.503.94.476.003.926.151 1 .33.177.432 5.46 2.875 6.217 2.875.328 0 1.162.252 1.856.56 1.892.842 3.881 1.44 4.788 1.44.445 0 1.093.254 1.441.565.347.311 1.691.759 2.986.997 1.295.237 2.573.612 2.84.834.267.222 1.368.51 2.445.641 1.078.131 2.952.566 4.164.967 1.213.401 3.553.848 5.2.994 1.648.145 4.526.644 6.396 1.109 4.709 1.169 33.94 1.305 36.546.169.85-.37 3.633-.868 6.185-1.105 2.552-.238 5.23-.678 5.951-.98.722-.301 2.692-.74 4.38-.974 1.687-.235 3.289-.61 3.559-.834.27-.224 1.598-.602 2.952-.841 1.354-.238 2.711-.683 3.016-.988.304-.305.974-.554 1.488-.554s1.922-.376 3.129-.835c1.207-.459 2.734-.984 3.394-1.167 2.121-.59 5.98-2.337 6.125-2.774.078-.233.533-.424 1.012-.424.478 0 1.715-.45 2.748-1 1.033-.55 2.143-1 2.466-1 .323 0 1.122-.45 1.776-1 .654-.55 1.453-1 1.777-1 .323 0 1.017-.322 1.542-.716.525-.394 1.449-.93 2.054-1.191.605-.262 1.1-.66 1.1-.884 0-.225.243-.409.541-.409 1.82 0 8.037-5.178 8.518-7.094.919-3.662-5.542-4.983-8.738-1.787-.265.265-.85.485-1.301.49-.451.005-1.587.357-2.526.783-.938.425-2.378.888-3.2 1.028-.821.14-1.944.569-2.494.952-.55.384-1.794.824-2.763.978-.97.154-2.23.528-2.8.832-1.166.621-4.338 1.446-10.236 2.661-2.199.453-4.179.968-4.4 1.146-.221.177-2.008.533-3.973.791-1.965.258-3.938.665-4.386.905-.448.239-2.912.569-5.475.733-2.564.164-5.06.511-5.547.771-2.346 1.256-37.83 1.118-42.42-.165-1.21-.338-3.691-.617-5.513-.619-1.953-.003-3.873-.239-4.678-.576-.751-.313-3.131-.78-5.287-1.037-2.157-.256-4.122-.63-4.366-.831-.244-.202-2.044-.65-4-.998s-4.096-.871-4.756-1.163c-.66-.292-2.1-.662-3.2-.822-1.1-.161-2.627-.626-3.394-1.035-.767-.409-1.809-.743-2.316-.743-.507 0-1.41-.342-2.006-.76-.596-.418-1.866-.873-2.821-1.011-.955-.137-2.433-.605-3.284-1.04-.851-.434-1.982-.789-2.514-.789-.532 0-1.175-.25-1.428-.556-.254-.305-1.241-.751-2.193-.991-.953-.24-1.959-.71-2.237-1.045-.278-.334-.851-.608-1.274-.608-.423 0-1.615-.45-2.648-1-1.033-.55-2.171-1-2.528-1-.357 0-1.093-.349-1.635-.775-.542-.427-1.511-.906-2.154-1.066-.642-.161-1.348-.512-1.568-.781-.22-.269-1.075-.704-1.9-.965s-1.5-.606-1.5-.767c0-.161-.72-.61-1.6-.998-.88-.388-1.6-.851-1.6-1.029 0-.258-3.192-1.294-3.677-1.194-.068.014-.489.174-.937.356m3.718 1.75c.877.651 3.037 1.851 4.752 2.64.911.42 1.776.958 1.924 1.196.147.238.572.436.944.439.372.003 1.126.262 1.676.574 1.375.782 4.956 2.482 7.6 3.608 6.146 2.617 7.135 3.012 7.551 3.012.249 0 1.124.36 1.945.8.82.44 1.738.8 2.038.8.3 0 1.112.253 1.806.562 1.857.827 5.1 1.838 5.898 1.838.382 0 .756.183.831.406.074.224 1.304.594 2.733.823 1.429.229 2.962.654 3.408.944.445.29 1.795.658 3 .818 1.204.16 2.73.533 3.39.828.66.296 2.73.815 4.6 1.155 1.87.34 4.66.883 6.2 1.207 1.54.324 3.601.596 4.581.604.979.008 3.859.372 6.4.808 9.045 1.553 43.045 1.589 46.947.05.62-.244 3.05-.626 5.4-.849 2.35-.222 5.082-.585 6.072-.806.99-.222 3.24-.672 5-1.001 1.76-.329 3.74-.845 4.4-1.147.66-.303 2.218-.671 3.463-.819 1.244-.148 2.947-.618 3.784-1.045.837-.427 2.042-.776 2.677-.776.635 0 1.722-.249 2.416-.554.693-.304 2.325-.87 3.626-1.258 1.301-.387 2.831-.947 3.4-1.244.569-.296 1.344-.54 1.723-.542.652-.002 1.606-.384 6.62-2.649 7.277-3.288 7.873 1.212.772 5.83-2.024 1.317-3.91 2.591-4.19 2.83-.28.239-1.171.712-1.98 1.05-.808.338-2.428 1.227-3.598 1.976-1.171.748-2.386 1.361-2.7 1.361-.314 0-1.417.45-2.451 1-1.035.55-2.111 1-2.393 1-.282 0-.75.225-1.04.501-.291.276-2.689 1.217-5.329 2.092-2.64.875-5.25 1.818-5.8 2.096-.55.278-1.292.507-1.649.509-.357.001-1.437.341-2.4.755-.963.415-2.741.873-3.951 1.019-1.21.146-3.19.6-4.4 1.008-1.21.409-3.176.861-4.369 1.004-1.193.144-2.511.445-2.928.668-.418.224-3.132.659-6.031.969-2.9.309-5.901.746-6.669.971-1.813.529-23.741.537-26.283.009-1.056-.219-4.319-.658-7.251-.976-2.931-.318-5.541-.751-5.8-.963-.258-.212-1.549-.512-2.869-.668-1.32-.156-3.402-.614-4.626-1.018-1.225-.404-3.324-.912-4.667-1.128-1.342-.216-2.986-.675-3.654-1.02-.667-.346-1.502-.628-1.855-.628s-1.397-.34-2.32-.755c-.923-.415-2.283-.883-3.022-1.041-.739-.158-2.319-.718-3.511-1.245-1.192-.528-2.411-.959-2.707-.959-.297 0-.764-.27-1.038-.6-.274-.33-.773-.6-1.109-.6-.535 0-3.505-1.275-5.891-2.529a858.683 858.683 0 0 1-7.8-4.187c-1.43-.777-3.14-1.685-3.8-2.016-.66-.332-1.35-.853-1.532-1.158-.183-.305-.723-.728-1.2-.94-1.775-.79-7.771-4.929-10.495-7.246-1.116-.948-2.533-2.084-3.151-2.524-3.868-2.756-5.441-4.805-4.319-5.626.66-.483 1.938-.181 3.201.757m15.71 39.843c-.253.473-.414 4.591-.414 10.6 0 7.575-.115 9.834-.5 9.861-.275.019-3.29.065-6.7.101-5.508.059-6.359.16-7.623.906-.782.462-2.087.965-2.9 1.117-.812.153-1.477.447-1.477.654 0 .207-.585.628-1.3.936-1.866.804-7.5 6.558-7.5 7.66 0 .266-.327.912-.727 1.437-3.973 5.217-4.06 22.878-.127 25.954.14.11.495.665.787 1.234 3.726 7.248 18.427 12.635 26.744 9.802 1.026-.35 2.238-.632 2.694-.627.985.011 5.427-2.065 5.428-2.538.001-.18.271-.598.601-.928 1.103-1.103.882-64.476-.229-65.889-1.103-1.402-6.047-1.607-6.757-.28m5.506.506c.712.712.693 65.105-.02 65.982-1.391 1.712-5.742 2.539-13.3 2.526-7.732-.012-7.016.132-12.6-2.537-6.236-2.98-10.8-11.532-10.8-20.235 0-3.299 1.602-10.313 2.609-11.426.325-.359.591-.825.591-1.035 0-2.189 5.629-7.712 10-9.812 4.282-2.057 4.723-2.142 11.208-2.162 8.016-.026 7.192 1.231 7.192-10.971 0-7.9.118-10.391.5-10.545.994-.401 4.151-.254 4.62.215m152.473 2.372c-3.198 1.797-3.987 4.732-2.006 7.467 2.709 3.739 6.632 3.508 8.999-.531 1.017-1.736 1.162-4.188.246-4.188-.167 0-.505-.441-.75-.981-.928-2.036-4.351-2.968-6.489-1.767m49.896-.006c-2.189.844-3.335 4.744-2.097 7.139 1.295 2.504 5.266 3.807 7.054 2.315 2.416-2.016 3.427-5.253 2.16-6.919-1.957-2.571-2.001-2.602-4.006-2.783-1.1-.099-2.5.012-3.111.248m-45.305 1.38c3.141 2.059 1.584 7.374-2.16 7.374-2.377 0-4.784-2.591-4.198-4.52.942-3.104 3.93-4.445 6.358-2.854m49.794-.238c1.304.698 2.116 3.413 1.478 4.941-1.662 3.976-6.858 3.295-7.338-.961-.374-3.312 2.924-5.551 5.86-3.98M215.8 220.38c-2.482 1.021-3 2.117-3 6.356v3.974l-2.834.16c-3.793.214-5.689 2.578-4.585 5.718.754 2.147.878 2.212 4.223 2.212h3.157l.12 17.7.119 17.7.983 1.6c.541.88 1.136 1.663 1.322 1.741.187.077.692.518 1.121.979 3.351 3.597 13.169 2.467 17.474-2.012 1.575-1.638 1.578-1.696.202-4.144-1.442-2.565-1.511-2.575-5.255-.74-3.56 1.746-5.336 1.95-6.847.79l-1-.768V239l5.2-.2c6.03-.232 5.877-.168 7.249-3.066l1.05-2.22-1.257-1.257-1.257-1.257-5.493-.2-5.492-.2-.113-4.775c-.139-5.828-1.254-7.022-5.087-5.445m2.963.788c.434.275.544 1.322.484 4.591-.126 6.746.188 7.041 7.502 7.041 6.784 0 7.568.904 4.159 4.8-.096.11-2.209.14-4.695.066-3.571-.106-4.782.001-5.767.51l-1.246.645v15.505c0 15.284.013 15.53.9 17.288 1.612 3.194 4.539 3.544 9.322 1.115 2.516-1.278 2.574-1.288 3.147-.516 1.475 1.99.9 4.227-1.29 5.008-.593.211-1.602.68-2.241 1.041-4.552 2.571-11.904.784-14.247-3.464L213.8 273l-.074-17.154c-.083-19.41.224-17.958-3.818-18.07-1.599-.045-3.043-.103-3.208-.129-.471-.074-.35-4.369.132-4.667.237-.146 1.613-.325 3.058-.396 3.7-.182 3.91-.475 3.91-5.465v-4.046l1.4-.773c.77-.426 1.571-.937 1.78-1.137.476-.455 1.058-.453 1.783.005m160.637 7.41c-.22.086-1.069.268-1.887.405-.818.137-1.723.484-2.01.771-1.433 1.433-3.479 1.982-5.226 1.402-2.776-.921-10.992-.715-12.71.318-.752.453-1.827.931-2.39 1.063-1.137.266-5.585 4.196-5.58 4.93.002.256-.188.53-.421.608-1.244.414-2.532 4.922-2.664 9.325-.167 5.547.606 7.801 4.188 12.208 1.117 1.374 1.148 2.784.089 4.005-.446.514-.923 1.396-1.06 1.961-.136.564-.492 1.381-.789 1.815-.825 1.205-.678 4.594.26 6.011.848 1.28 1.081 3.4.374 3.4-.706 0-4.79 4.523-5.054 5.599-.136.55-.533 1.443-.883 1.984-.898 1.386-.847 6.331.079 7.745.376.574.684 1.28.684 1.569 0 .452 1.405 2.004 3.921 4.331 1.323 1.224 4.303 2.681 6.079 2.972.99.162 2.25.521 2.8.799 4.737 2.387 20.814.056 25.2-3.654 1.377-1.165 3.85-3.741 4.519-4.707.395-.571.974-1.038 1.286-1.038 1.023 0 1.395-1.488 1.395-5.587v-4.04l-1.3-.767c-.715-.423-1.985-1.588-2.822-2.589-1.716-2.054-4.988-3.782-9.111-4.811a314.037 314.037 0 0 1-3.967-1.014c-.77-.205-2.484-.377-3.808-.382-1.324-.006-3.707-.37-5.295-.81-1.588-.44-3.222-.8-3.633-.8-2.443 0-3.652-4.034-1.796-5.992.1-.105 2.828-.199 6.062-.208 5.366-.016 6.006-.095 7.322-.909.793-.49 1.722-.891 2.065-.891.342 0 1.156-.45 1.81-1 .654-.55 1.279-1 1.39-1 .474 0 2.683-2.224 2.683-2.702 0-.288.254-.62.563-.739.31-.119.784-.789 1.053-1.488a61.64 61.64 0 0 1 1.286-2.999c1.037-2.25.887-10.113-.226-11.812-.372-.568-.676-1.294-.676-1.615 0-.321-.45-1.118-1-1.772-1.726-2.051-1.391-2.813 1.3-2.953l2.3-.12 1.3-2.589c1.296-2.579 1.298-2.591.509-3.38-.745-.745-4.996-1.329-6.209-.853m4.812 1.441c.142.23.045 1.31-.217 2.4l-.475 1.981h-1.934c-4.109 0-5.072 1.479-2.814 4.323 5.108 6.436 3.154 17.691-3.922 22.588-3.626 2.509-11.562 4.021-14.067 2.68-1.888-1.011-5.183 1.778-5.183 4.387 0 1.478 1.861 4.019 2.947 4.024.249.002.937.255 1.528.564.591.308 3.111.771 5.6 1.028 2.489.257 5.065.648 5.725.869.66.22 2.1.545 3.2.721 5.012.804 9.899 3.485 11.284 6.192.345.673 1.052 1.654 1.572 2.179 1.588 1.605 1.364 5.033-.456 6.963-.77.816-1.4 1.732-1.4 2.035 0 .607-2.481 3.195-4.262 4.446-2.246 1.576-5.584 2.665-9.938 3.243-2.42.321-5.164.691-6.097.822-.933.132-1.923.06-2.2-.16-.277-.22-2.108-.525-4.071-.678-2.114-.165-4.151-.571-5-.996-.787-.394-1.911-.831-2.497-.972-2.241-.538-5.752-4.204-6.542-6.831-1.656-5.508.526-11.194 5.507-14.349 1.323-.838 1.379-1.719.244-3.895-1.318-2.529-.88-6.492 1.035-9.378 1.747-2.632 1.758-3.112.121-5.035-2.946-3.461-3.219-4.038-4.377-9.234-.409-1.838-.213-3.686.817-7.688.529-2.055 4.433-7.448 5.391-7.448.195 0 .888-.45 1.542-1s1.59-1 2.081-1c.491 0 1.242-.264 1.67-.587 1.088-.824 8.076-.833 10.038-.013 1.66.694 4.37.795 4.752.177.233-.377 3.405-1.974 4.986-2.51 1.124-.382 5.152-.268 5.412.152m-358.812.763c-7.351.968-13.093 5.165-10.639 7.777.461.491.839 1.078.839 1.305 0 2.162 3.611 1.945 6.348-.381.649-.552 5.906-1.491 8.321-1.486 5.272.011 8.208 2.574 8.703 7.596.367 3.725.128 4.007-3.399 4.007-6.675 0-12.867.816-15.429 2.033-2.634 1.251-6.544 4.48-6.544 5.404 0 .31-.143.563-.317.563-.969 0-2.668 5.079-2.675 8-.033 12.83 17.326 20.009 27.423 11.342 1.035-.888 2.367-.688 2.382.358.025 1.807.854 2.3 3.869 2.3 3.841 0 4.327-.533 3.69-4.05-.263-1.45-.572-9.365-.717-18.35L47 241.4l-1.185-2.4c-1.088-2.204-1.482-2.783-2.91-4.281-3.466-3.635-9.498-4.991-17.505-3.937m125.613-.114c-.653.111-1.643.523-2.2.915-.557.391-1.436.843-1.952 1.004-.517.161-1.271.589-1.676.952a80.548 80.548 0 0 1-2.16 1.829c-.784.642-1.425 1.407-1.425 1.7 0 .292-.163.532-.362.532-.468 0-2.722 3.992-3.085 5.465-.154.624-.532 1.525-.84 2.001-3.173 4.903-.86 22.313 3.587 26.997.385.405.7.865.7 1.021 0 .443 4.545 4.509 5.044 4.513.244.002 1.107.453 1.918 1.003.81.55 1.894 1 2.407 1 .513 0 1.58.27 2.369.6.89.372 2.715.6 4.799.6 1.966 0 4.068-.249 5.063-.6.935-.33 2.103-.6 2.595-.6 1.453 0 6.133-2.318 6.831-3.383 1.555-2.374-1.824-7.409-3.795-5.655-2.551 2.271-11.378 3.396-14.431 1.838-.862-.44-1.808-.8-2.1-.8-2.358 0-7.357-7.755-7.603-11.796l-.097-1.595 2.4-.304c1.32-.167 7.53-.261 13.8-.209l11.4.095 1.1-.968c.981-.863 1.097-1.229 1.071-3.395-.043-3.553-1.563-11.29-2.324-11.823-.161-.113-.538-.835-.839-1.605-.301-.77-.831-1.702-1.177-2.071-.347-.368-1.081-1.302-1.631-2.074-.55-.772-1.405-1.592-1.9-1.821-.495-.229-.9-.581-.9-.782 0-.201-.468-.483-1.04-.626-.572-.144-1.535-.627-2.139-1.074-1.124-.831-8.407-1.396-11.408-.884m42.888.09c-.824.173-1.828.614-2.231.979-.403.365-1.035.663-1.404.663s-1.063.45-1.541 1c-1.075 1.237-3.125 1.403-3.125.254 0-2.438-4.964-3.404-6.322-1.23-.719 1.151-.77 45.742-.054 46.605.788.949 5.608.773 6.701-.245.873-.813.875-.85.875-17.526v-16.711l1.393-1.173a68.162 68.162 0 0 1 2.3-1.857c.499-.376 1.49-1.155 2.203-1.732 1.178-.954 1.605-1.047 4.679-1.025 2.667.02 3.526-.118 4.059-.652 1.65-1.649 2.372-5.907 1.172-6.903-.712-.591-6.591-.893-8.705-.447m72.064-.022c-1.009.158-2.307.596-2.886.975-.578.379-1.282.697-1.565.706-.675.022-3.517 2.612-4.811 4.383-3.476 4.761-2.513 12.415 2.097 16.669 1.212 1.119 3.91 2.931 4.364 2.931.18 0 .772.349 1.314.775.542.427 1.511.905 2.154 1.063 11.833 2.914 12.27 14.313.568 14.849-3.555.163-7.869-.928-9.516-2.406-1.226-1.1-2.87-.415-3.742 1.558-.421.95-.933 1.832-1.139 1.959-.86.531 1.231 3.38 2.788 3.8.834.224 1.739.676 2.011 1.005.273.328.992.597 1.598.597.606 0 1.749.27 2.538.6.901.376 2.726.6 4.895.6 7.722 0 14.855-4.11 16.612-9.573.253-.785.641-1.656.863-1.935 1.11-1.398-.315-8.77-1.959-10.135-.302-.25-.549-.631-.549-.845 0-.728-3.86-3.926-5.694-4.719a19.69 19.69 0 0 1-1.506-.73 77.883 77.883 0 0 0-5.6-2.849c-5.614-2.545-7.55-6.627-4.8-10.123 1.76-2.238 12.812-2.559 15.231-.443 2.322 2.03 4.861-2.686 3.159-5.867-1.215-2.27-10.168-3.82-16.425-2.845m56.635.03c-.88.146-2.14.553-2.8.905-.66.351-1.65.841-2.2 1.089-.55.248-1.986.988-3.192 1.645-1.206.657-2.221 1.195-2.256 1.195-.034 0-.177-.608-.317-1.352-.58-3.092-4.217-4.163-6.4-1.885l-1.052 1.099-.007 22.32c-.008 24.686-.134 23.5 2.55 23.955 2.331.394 4.409-.224 5.017-1.493.557-1.161.743-28.323.215-31.273-.239-1.33 1.418-3.403 3.884-4.86.637-.376 1.158-.805 1.158-.954 0-.149.409-.373.908-.498.499-.125 1.264-.557 1.7-.96 2.138-1.975 9.526-1.845 11.145.196 2.563 3.229 2.647 3.919 2.647 21.729 0 19.062-.202 18.109 3.839 18.109 4.886 0 4.684.922 4.487-20.409-.15-16.268-.179-16.775-1.04-18.602-.487-1.033-.889-2.023-.893-2.2-.027-1.168-4.491-6.122-5.517-6.122-.23 0-.716-.297-1.078-.659-1.184-1.184-6.597-1.673-10.798-.975m-226.889.823c-1.624.99-1.998 2.364-1.113 4.092.371.726.935 2.174 1.254 3.219.318 1.045.729 1.9.912 1.9.184 0 .447.711.586 1.58.139.868.595 2.173 1.013 2.9.418.726.89 1.95 1.049 2.72.16.77.537 1.755.839 2.189.302.434.549 1.021.549 1.304 0 .284.344 1.279.764 2.211.421.933 1.065 2.639 1.431 3.791.366 1.153.832 2.198 1.036 2.324.203.125.37.623.371 1.105.002.482.291 1.416.642 2.076.591 1.109.947 2.024 2.724 7 .354.99.91 2.278 1.237 2.862.327.584.599 1.394.604 1.8.035 2.969 2.28 5.338 5.058 5.338 2.943 0 4.42-.887 4.979-2.992.236-.884.666-1.878.957-2.208.291-.33.657-1.32.814-2.2.156-.88.525-1.877.82-2.216.295-.339.737-1.554.982-2.7.246-1.146.589-2.084.761-2.084.173 0 .616-1.074.984-2.387.369-1.313.842-2.493 1.053-2.624.211-.13.383-.58.383-1.001 0-.421.443-1.767.985-2.992.541-1.225 1.109-2.89 1.261-3.701.152-.811.512-1.71.8-1.998.287-.287.642-1.192.787-2.01.145-.818.602-2.048 1.016-2.734.413-.686.757-1.496.765-1.8.007-.304.361-1.273.786-2.153.425-.88.779-1.877.786-2.215.008-.339.37-1.314.805-2.168 1.975-3.873 1.828-5.783-.506-6.597-3.713-1.294-6.811 1.124-8.045 6.279-.302 1.266-.839 2.841-1.193 3.501-.353.66-.643 1.473-.645 1.806-.001.333-.362 1.278-.802 2.098-.44.821-.802 1.899-.804 2.395-.002.495-.446 1.801-.987 2.901-.541 1.1-.99 2.369-.996 2.82-.007.451-.187.994-.4 1.207-.447.447-2.247 5.543-2.881 8.157-.693 2.857-2.727 5.174-2.736 3.116-.002-.495-.446-1.8-.987-2.9-.541-1.1-.995-2.36-1.009-2.8-.014-.44-.275-1.13-.581-1.533-.305-.402-.772-1.662-1.038-2.8-.265-1.137-.707-2.337-.981-2.667-.274-.33-.627-1.32-.783-2.2-.156-.88-.607-2.14-1.002-2.8-.395-.66-.834-1.857-.977-2.66-.143-.803-.502-1.661-.799-1.907-.296-.247-.654-1.164-.793-2.038-.14-.874-.612-2.176-1.049-2.892-.437-.717-.796-1.753-.798-2.303-.015-3.606-4.811-6.287-7.888-4.411m145.382.225-1.493 1.015v22.553c0 12.404.109 22.835.241 23.181.565 1.471 5.796 1.743 7.167.372.642-.642.918-45.059.286-45.949-1.578-2.221-3.987-2.676-6.201-1.172m49.992.057c-2.033 1.447-1.931.058-1.801 24.418l.116 21.689.907.907c1.314 1.314 5.475 1.271 6.559-.067.768-.949 1.178-44.776.428-45.832-1.597-2.248-4.008-2.681-6.209-1.115m-253.774.771c3.679 1.406 6.135 3.898 7.718 7.83l1.171 2.907V278.6l-.952.135c-2.084.294-3.576-.295-3.845-1.52-.426-1.94-3.087-2.697-4.043-1.151-1.729 2.798-14.381 4.149-17.889 1.911-6.775-4.322-9.247-11.666-6.117-18.175 1.128-2.345 3.618-5.4 4.401-5.4.217 0 .765-.347 1.219-.771 1.576-1.471 6.673-2.477 13.784-2.72 8.711-.298 8.86-.436 7.227-6.669-1.406-5.368-5.393-8.151-11.062-7.723-1.634.124-3.185.386-3.447.584-.262.197-1.286.588-2.276.868-.99.279-2.361.851-3.047 1.27-1.922 1.173-3.136.995-4.075-.597-1.019-1.727-.146-3.588 1.893-4.036.676-.148 1.229-.428 1.229-.622s.765-.549 1.7-.789c.935-.24 2.33-.688 3.1-.995 2.597-1.036 10.093-.787 13.311.442m124.351-.018c1.474.563 2.895 1.283 3.158 1.6.263.317.692.576.954.576.456 0 1.387 1.097 3.307 3.895 2.734 3.986 4.912 15.186 3.324 17.099-.431.52-2.455.606-14.225.606-16.635 0-15.557-.395-14.368 5.258.337 1.6.767 3.007.955 3.126.189.119.606.846.927 1.616 1.593 3.817 6.91 7.425 11.584 7.862 2.507.234 8.13-.442 8.922-1.072 2.492-1.984 4.306-1.696 5.829.926 2.063 3.551-15.704 6.779-21.829 3.965-3.369-1.547-7.8-4.843-7.8-5.802 0-.2-.45-.898-1-1.552s-1-1.423-1-1.709c0-.286-.26-.736-.578-1-.318-.264-.787-1.501-1.043-2.749-.256-1.248-.662-2.511-.902-2.806-1.496-1.841-.197-16.807 1.741-20.063.197-.33.693-1.32 1.104-2.2 1.354-2.903 6.152-7.001 8.904-7.606.641-.14 1.268-.422 1.393-.625.533-.861 7.854-.411 10.643.655m40.109-.395c.84.839-.631 5.778-1.718 5.769-.139-.001-.936-.192-1.77-.424-1.676-.465-4.979.252-6.483 1.407-7.267 5.582-6.6 3.318-6.6 22.393 0 17.968.087 17.426-2.8 17.426-1.54 0-2.063-.169-2.386-.774-.724-1.353-.557-44.21.175-44.817 1.489-1.236 4.611-.315 4.611 1.36 0 2.343 1.782 2.356 4.4.031 1.115-.99 2.336-1.806 2.713-1.814.378-.008 1.137-.272 1.687-.586 1.451-.829 7.334-.809 8.171.029m75.429-.029c.55.314 1.392.578 1.871.586 1.904.031 3.305 3.695 1.936 5.064-.694.694-3.275.265-4.522-.753-.284-.231-2.303-.506-4.488-.611-11.333-.546-14.655 9.201-4.797 14.073.99.489 2.16 1.096 2.6 1.349.44.253 2.06 1.045 3.6 1.761 3.767 1.751 7.4 4.314 7.4 5.219 0 .19.354.832.788 1.428 1.995 2.745 1.72 9.051-.549 12.592-1.254 1.958-4.412 4.692-5.418 4.692-.247 0-.93.315-1.517.7-1.75 1.147-12.83 1.023-15.318-.171-.998-.479-2.293-.991-2.879-1.138-2.063-.518-2.086-4.016-.033-4.952.742-.338 1.285-.225 2.798.579 7.037 3.742 16.794 1.327 18.569-4.596.825-2.753-1.804-7.071-5.241-8.608-.77-.344-1.67-.787-2-.984-.33-.196-1.95-1.015-3.6-1.819-8.664-4.222-10.184-6.162-10.194-13.011-.007-5.221 3.694-10.8 7.165-10.8.482 0 1.225-.264 1.653-.587 1.092-.827 10.735-.837 12.176-.013m55.289.402c7.076 3.359 7.821 6.042 7.943 28.59.097 18.089.171 17.614-2.728 17.602-3.346-.014-3.303.234-3.308-19.068L334.392 243l-1.179-2.056c-1.958-3.414-8.179-5.738-10.131-3.786-.243.243-.748.442-1.121.442-1.164 0-5.204 2.344-8.043 4.667l-2.718 2.224v16.674c0 12.436-.122 16.797-.48 17.155-.821.821-4.223.609-4.706-.294-.648-1.211-.565-44.21.086-44.719 1.579-1.236 4.7-.485 4.7 1.13 0 2.35 1.868 3.056 3.869 1.463 1.058-.842 3.668-2.212 6.931-3.637 2.423-1.059 8.332-.875 10.889.339m-231.618.442c.503.311 2.329 4.635 2.329 5.515 0 .475.244 1.218.543 1.652.299.434.761 1.509 1.028 2.389.267.88.643 1.96.835 2.4.905 2.063 2.794 7.102 2.794 7.452 0 .216.365 1.192.81 2.17.446.978.92 2.328 1.054 3 .135.672.58 1.88.99 2.685.41.804.746 1.702.746 1.994 0 1.005 2.416 5.699 2.932 5.699.942 0 2.227-1.575 2.509-3.076.152-.813.591-2.029.974-2.701.383-.673.819-1.924.97-2.781.15-.858.512-1.938.805-2.4.292-.463.657-1.472.81-2.242.153-.77.519-1.78.812-2.245.294-.465.802-1.815 1.129-3 .749-2.71 2.254-6.814 2.713-7.398.192-.243.517-1.233.722-2.2 1.266-5.954 2.263-7.229 5.697-7.281 2.591-.039 3.481.756 2.409 2.152-.704.917-1.223 2.191-2.715 6.672a40.129 40.129 0 0 1-1.4 3.544c-.422.904-.767 1.989-.767 2.411 0 .422-.25 1.124-.555 1.559-.305.436-.787 1.601-1.07 2.589-.283.989-.647 1.977-.808 2.197-.296.404-.481.903-3.554 9.6-.933 2.64-1.826 4.98-1.985 5.2-.158.22-.516 1.197-.795 2.171-.279.974-.743 2.144-1.031 2.6-.288.456-.638 1.382-.779 2.057-.332 1.599-2.44 3.928-3.268 3.61-.341-.131-1.191-.24-1.888-.243-1.328-.006-3.469-3.344-3.468-5.406.001-.446-.249-1.168-.554-1.603-.305-.436-.787-1.601-1.07-2.589-.283-.989-.664-1.996-.847-2.24-.31-.415-1.278-3.028-2.51-6.779-.293-.892-.912-2.329-1.375-3.194-.464-.865-.843-2.035-.843-2.602 0-.566-.267-1.378-.594-1.806-.326-.427-.786-1.496-1.021-2.376-.236-.88-.805-2.41-1.265-3.4-1.616-3.48-1.922-4.216-2.49-6-.315-.99-1.036-3.024-1.602-4.519l-1.029-2.719 1.301-.579c1.153-.513 3.495-.481 4.371.061m144.64-.021.889.622v21.949c0 24.46.149 23.206-2.752 23.206-3.063 0-2.86 1.626-2.889-23.2l-.026-22.2 1.334-.477c1.807-.648 2.402-.63 3.444.1m50.604.143c.34.328.445 44.808.107 45.146-.113.112-1.082.288-2.155.391-3.883.373-3.667 1.75-3.667-23.398v-21.744l1.3-.578c1.271-.566 3.745-.463 4.415.183m-222.507 3.562c-.986.07-1.976.271-2.2.447-.224.177-1.128.552-2.008.834-11.414 3.664-15.236 21.873-6.553 31.216 4.579 4.926 16.552 6.919 20.122 3.349.555-.555.631-2.654.631-17.34v-16.708l-1.7-.846c-1.711-.85-4.777-1.203-8.292-.952m80.192.064c-5.861 1.193-12.682 10.966-9.72 13.928.624.624 20.791.684 21.946.066 1.82-.974-.357-7.278-3.956-11.455-1.538-1.786-5.697-3.063-8.27-2.539m206 .89c-8.791 4.37-8.322 16.808.781 20.71 1.952.837 6.127 1.115 6.839.456.209-.193 1.055-.567 1.88-.831 7.975-2.548 8.14-16.897.23-20.02-.731-.289-1.501-.676-1.71-.861-.759-.671-6.336-.291-8.02.546M81.774 238.79l1.026.39v31.87l-1.3.975c-4.358 3.269-15.558.099-19.359-5.478-2.32-3.406-3.811-13.837-2.262-15.835.218-.282.637-1.399.931-2.484.294-1.085.767-2.255 1.051-2.6 1.926-2.343 4.722-5.228 5.066-5.228.225 0 .732-.291 1.125-.647 1.373-1.243 11.177-1.931 13.722-.963m79.334 1.319c2.108 2.06 3.56 4.896 3.9 7.618l.284 2.273H144.8v-1.751c0-1.034.235-1.946.574-2.228.316-.262.683-.959.816-1.549.281-1.251 4.103-5.485 5.235-5.8.426-.118 2.432-.183 4.456-.143l3.682.071 1.545 1.509m209.912.305c7.552 7.39 2.529 17.862-8.2 17.095-2.751-.197-2.885-.266-5.516-2.815-3.965-3.843-3.63-10.443.737-14.484 1.768-1.636 2.332-1.765 7.256-1.663l3.898.081 1.825 1.786M31.6 256.028c-10.934.677-15.931 6.02-12.3 13.152 2.939 5.772 12.114 6.867 16.541 1.975.376-.415.835-.755 1.021-.755.48 0 3.531-3.204 3.57-3.748.619-8.682-.106-11.241-3.112-10.993-.396.033-2.97.199-5.72.369m7.22 1.61c1.104 2.062.315 9.331-1.162 10.709-.739.689-1.442 1.253-1.563 1.253s-.809.45-1.531 1c-.721.55-1.51 1-1.753 1-.244 0-1.149.36-2.011.8-3.271 1.669-7.899.434-10-2.668-2.03-2.998-1.19-8.584 1.496-9.948.45-.228 1.063-.612 1.361-.853.858-.691 4.505-1.327 7.863-1.371 1.694-.022 3.53-.184 4.08-.36 1.771-.567 2.754-.434 3.22.438m317.351 21.148c-1.587.643-5.765 5.627-5.843 6.972-.457 7.908 8.415 12.109 20.838 9.866 12.67-2.286 12.979-13.114.434-15.233-10.288-1.738-14.117-2.136-15.429-1.605m6.051 1.54c.428.237 3.002.624 5.721.86 3.092.268 5.26.651 5.789 1.022.465.325 1.193.592 1.618.592 1.029 0 4.137 2.393 4.417 3.4.8 2.881-1.39 5.67-5.812 7.4-2.827 1.106-13.951 1.523-15.194.569-.308-.237-1.416-.747-2.461-1.133s-1.9-.838-1.9-1.005c0-.166-.45-.508-1-.758-.55-.251-1-.708-1-1.015 0-.308-.27-.784-.6-1.058-1.49-1.237-.246-4.54 2.902-7.701l1.898-1.907 2.422.152c1.331.083 2.771.345 3.2.582"/></g></svg>