<svg width="250" height="250" viewBox="0 0 250 250" fill="none" xmlns="http://www.w3.org/2000/svg">
<path fill-rule="evenodd" clip-rule="evenodd" d="M106.549 141.101C98.5005 146.86 86.8391 149.936 76.7875 149.936C62.6938 149.936 50.0309 144.892 40.4085 136.486C39.6573 135.842 40.337 134.912 41.2313 135.449C51.6048 141.28 64.4108 144.821 77.6103 144.821C86.5172 144.821 96.3542 143.032 105.368 139.312C106.764 138.704 107.908 140.135 106.549 141.101Z" fill="#FF9900"/>
<path fill-rule="evenodd" clip-rule="evenodd" d="M108.123 137.166C107.193 135.95 101.863 136.594 99.5018 136.88C98.7863 136.951 98.679 136.343 99.3229 135.878C103.544 132.873 110.483 133.732 111.27 134.733C112.093 135.771 111.056 142.818 107.085 146.18C106.477 146.681 105.905 146.431 106.155 145.751C107.085 143.462 109.088 138.382 108.123 137.166Z" fill="#FF9900"/>
<path fill-rule="evenodd" clip-rule="evenodd" d="M99.6806 111.161V107.905C99.6806 107.405 100.038 107.083 100.468 107.083H114.49C114.955 107.083 115.313 107.44 115.313 107.905V110.696C115.313 111.161 114.919 111.769 114.239 112.734L106.978 123.537C109.661 123.466 112.522 123.895 114.991 125.326C115.527 125.648 115.706 126.113 115.742 126.614V130.083C115.742 130.548 115.241 131.121 114.704 130.835C110.376 128.474 104.653 128.223 99.8595 130.87C99.3587 131.156 98.8579 130.584 98.8579 130.119V126.792C98.8579 126.256 98.8579 125.362 99.3945 124.539L107.836 111.947H100.503C100.074 111.983 99.7164 111.661 99.6806 111.161Z" fill="black"/>
<path fill-rule="evenodd" clip-rule="evenodd" d="M48.9934 132.373H44.844C44.4505 132.337 44.1285 132.015 44.0928 131.621V108.406C44.0928 107.941 44.4505 107.583 44.9155 107.583H48.8145C49.208 107.619 49.53 107.941 49.5657 108.37V111.411H49.6373C50.6388 108.478 52.5705 107.118 55.146 107.118C57.7573 107.118 59.4027 108.478 60.5474 111.411C61.549 108.478 63.8741 107.118 66.3065 107.118C68.0593 107.118 69.9551 107.905 71.1356 109.658C72.4591 111.626 72.1729 114.451 72.1729 116.92V131.55C72.1729 132.015 71.8152 132.373 71.386 132.373H67.2008C66.7715 132.337 66.4496 131.979 66.4496 131.55V119.245C66.4496 118.279 66.5211 115.811 66.3423 114.881C66.0203 113.307 65.0903 112.878 63.8741 112.878C62.8725 112.878 61.7994 113.593 61.3701 114.773C60.9409 115.954 60.9766 117.885 60.9766 119.209V131.514C60.9766 131.979 60.6189 132.337 60.1897 132.337H56.0045C55.5752 132.301 55.2533 131.943 55.2533 131.514V119.209C55.2533 116.633 55.6468 112.806 52.6778 112.806C49.673 112.806 49.7803 116.526 49.7803 119.209V131.514C49.8161 132.015 49.4584 132.373 48.9934 132.373Z" fill="black"/>
<path fill-rule="evenodd" clip-rule="evenodd" d="M128.369 111.733C125.185 111.733 124.971 116.204 124.971 118.959C124.971 121.749 124.935 127.687 128.333 127.687C131.696 127.687 131.839 122.893 131.839 119.96C131.839 118.029 131.767 115.739 131.195 113.915C130.73 112.341 129.728 111.733 128.369 111.733ZM128.333 107.083C134.772 107.083 138.242 112.734 138.242 119.924C138.242 126.864 134.379 132.373 128.333 132.373C122.002 132.373 118.568 126.721 118.568 119.674C118.568 112.591 122.038 107.083 128.333 107.083Z" fill="black"/>
<path fill-rule="evenodd" clip-rule="evenodd" d="M147.292 132.373H143.214C142.785 132.337 142.463 131.979 142.463 131.55V108.335C142.499 107.905 142.821 107.583 143.25 107.583H147.042C147.399 107.619 147.685 107.87 147.757 108.227V111.769H147.829C148.973 108.585 150.583 107.083 153.409 107.083C155.233 107.083 157.057 107.834 158.202 109.801C159.275 111.661 159.275 114.773 159.275 117.027V131.621C159.239 132.051 158.882 132.337 158.488 132.337H154.375C153.981 132.301 153.695 132.015 153.659 131.621V119.03C153.659 116.49 153.945 112.77 151.084 112.77C150.082 112.77 149.152 113.486 148.723 114.63C148.15 116.061 148.079 117.456 148.079 119.03V131.514C148.079 132.015 147.721 132.373 147.292 132.373Z" fill="black"/>
<path fill-rule="evenodd" clip-rule="evenodd" d="M93.8502 132.015C93.5641 132.265 93.1348 132.301 92.8129 132.122C91.3463 130.906 91.0959 130.334 90.2732 129.189C87.8407 131.657 86.1237 132.408 83.0117 132.408C79.2915 132.408 76.394 130.119 76.394 125.505C76.394 121.928 78.3257 119.459 81.08 118.279C83.4767 117.242 86.8034 117.027 89.3789 116.741V116.168C89.3789 115.131 89.4504 113.879 88.8423 112.949C88.3058 112.126 87.2684 111.804 86.3741 111.804C84.6929 111.804 83.1905 112.663 82.8328 114.451C82.7613 114.845 82.4751 115.238 82.0816 115.274L77.8249 114.809C77.4672 114.738 77.0737 114.451 77.181 113.879C78.1468 108.657 82.8328 107.118 87.0538 107.118C89.2 107.118 91.9902 107.691 93.7072 109.336C95.8534 111.339 95.6388 114.022 95.6388 116.955V123.859C95.6388 125.934 96.4973 126.828 97.32 127.973C97.6062 128.366 97.6777 128.867 97.32 129.153C96.3542 129.833 94.7445 131.228 93.8502 132.015ZM89.4146 121.212C89.4146 122.929 89.4504 124.36 88.5919 125.898C87.8765 127.15 86.7676 127.901 85.5514 127.901C83.8702 127.901 82.8686 126.614 82.8686 124.682C82.8686 120.926 86.231 120.211 89.4146 120.211V121.212Z" fill="black"/>
<path fill-rule="evenodd" clip-rule="evenodd" d="M37.6183 132.015C37.3321 132.265 36.9029 132.301 36.581 132.122C35.1143 130.906 34.8639 130.334 34.0412 129.189C31.6088 131.657 29.8918 132.408 26.7797 132.408C23.0596 132.408 20.1621 130.119 20.1621 125.505C20.1621 121.928 22.0937 119.459 24.8481 118.279C27.2447 117.242 30.5714 117.027 33.1469 116.741V116.168C33.1469 115.131 33.2185 113.879 32.6104 112.949C32.0738 112.126 31.0365 111.804 30.1422 111.804C28.461 111.804 26.9586 112.663 26.6009 114.451C26.5293 114.845 26.2432 115.238 25.8497 115.274L21.5929 114.809C21.2352 114.738 20.8418 114.451 20.9491 113.879C21.9149 108.657 26.6009 107.083 30.7861 107.083C32.9323 107.083 35.7225 107.655 37.4395 109.3C39.5857 111.304 39.3711 113.986 39.3711 116.92V123.823C39.3711 125.898 40.2296 126.792 41.0523 127.937C41.3385 128.331 41.41 128.831 41.0523 129.118C40.1223 129.833 38.5126 131.228 37.6183 132.015ZM33.1827 121.212C33.1827 122.929 33.2185 124.36 32.36 125.898C31.6446 127.15 30.5357 127.901 29.3195 127.901C27.6382 127.901 26.6366 126.614 26.6366 124.682C26.6366 120.926 29.9991 120.211 33.1827 120.211V121.212Z" fill="black"/>
<path fill-rule="evenodd" clip-rule="evenodd" d="M194.438 113.521C193.222 114.988 192.649 116.991 192.649 119.567C192.649 122.142 193.222 124.181 194.366 125.684C195.69 127.365 197.621 128.223 200.233 128.223C202.665 128.223 204.525 127.401 205.884 125.719C207.065 124.217 207.673 122.249 207.673 119.853V119.424C207.673 116.92 206.958 114.881 205.67 113.343C204.311 111.769 202.558 111.017 200.412 111.017C197.764 111.017 195.761 111.84 194.438 113.521ZM211.322 100.93V129.618C211.322 130.048 210.928 130.369 210.463 130.369H208.71C208.21 130.369 207.816 130.012 207.816 129.583V126.828C206.135 129.583 203.416 130.942 199.803 130.942C196.262 130.942 193.508 129.761 191.54 127.508C189.716 125.433 188.822 122.75 188.822 119.495C188.822 116.312 189.716 113.736 191.54 111.661C193.508 109.336 196.155 108.192 199.625 108.192C203.094 108.192 205.741 109.694 207.601 112.734V100.787C207.601 100.358 207.995 100 208.496 100H210.356C210.892 100.036 211.322 100.429 211.322 100.93Z" fill="black"/>
<path fill-rule="evenodd" clip-rule="evenodd" d="M182.562 121.427C182.562 123.18 181.74 124.753 180.13 126.113C178.484 127.508 176.624 128.223 174.514 128.223C173.119 128.223 172.01 127.866 171.151 127.222C170.293 126.506 169.899 125.684 169.899 124.646C169.899 121.355 172.403 119.71 177.411 119.602L182.562 119.531V121.427ZM184.029 109.622C182.455 107.905 180.13 107.083 176.946 107.083C175.98 107.083 175.122 107.154 174.299 107.297C172.01 107.583 169.899 108.621 168.325 109.587C168.039 109.765 167.932 110.123 168.075 110.409L168.719 111.733C168.862 112.055 169.291 112.198 169.613 112.019C171.116 111.196 173.154 110.481 174.943 110.087C175.48 109.98 176.088 109.944 176.732 109.944C180.631 109.944 182.562 111.84 182.562 115.632V116.812L177.197 116.884C173.834 116.92 171.223 117.385 169.399 118.637C167.324 119.96 166.322 122.071 166.322 124.646C166.322 126.47 167.002 128.009 168.397 129.189C169.72 130.334 171.509 130.906 173.763 130.906C175.837 130.906 177.697 130.441 179.343 129.511C180.738 128.724 181.883 127.722 182.741 126.47V129.439C182.741 129.904 183.135 130.298 183.6 130.298H185.138C185.603 130.298 185.996 129.904 185.996 129.439V115.739C186.032 113.164 185.352 111.125 184.029 109.622Z" fill="black"/>
<path fill-rule="evenodd" clip-rule="evenodd" d="M214.148 126.757C214.148 126.256 214.72 125.934 215.15 126.22C216.902 127.257 218.762 127.758 220.766 127.758C223.913 127.758 226.06 126.721 226.06 124.682C226.06 123.823 225.702 123.072 225.022 122.536C224.343 121.963 222.375 121.284 220.265 120.532C217.725 119.531 216.08 118.529 215.328 117.528C214.577 116.526 214.184 115.346 214.184 113.951C214.184 111.947 215.042 110.159 216.759 108.943C218.476 107.727 220.587 107.118 223.091 107.118C224.879 107.118 226.56 107.583 228.099 108.156C228.349 108.263 228.528 108.478 228.528 108.764V111.089C228.528 111.59 228.027 111.876 227.562 111.661C226.095 110.946 224.486 110.374 222.697 110.374C221.409 110.374 219.979 110.66 219.156 111.196C218.333 111.733 217.761 112.699 217.761 113.593C217.761 114.487 218.047 115.203 218.655 115.703C219.227 116.204 221.088 116.848 223.091 117.635C225.63 118.565 227.383 119.567 228.277 120.568C229.172 121.57 229.637 122.822 229.637 124.324C229.637 126.399 228.778 128.044 227.061 129.225C225.344 130.405 223.126 131.013 220.372 131.013C218.154 131.013 216.223 130.62 214.541 129.869C214.291 129.761 214.148 129.547 214.148 129.261V126.757Z" fill="black"/>
</svg>
