<svg xmlns="http://www.w3.org/2000/svg" width="250" height="250" fill="none"><path fill="#8C3123" d="m57.11 60.943-13.04 6.522v114.451l13.04 6.483.079-.094V61.033l-.078-.09Z"/><path fill="#E05243" d="m126.897 171.787-69.786 16.612V60.943l69.786 16.25v94.594Z"/><path fill="#8C3123" d="m95.397 145.78 29.601 3.768.185-.429.167-48.538-.352-.379-29.602 3.713v41.865"/><path fill="#8C3123" d="m124.998 171.974 67.886 16.46.107-.17-.002-127.207-.108-.114-67.883 16.436v94.595"/><path fill="#E05243" d="m154.607 145.78-29.609 3.768v-49.346l29.609 3.713v41.865Z"/><path fill="#5E1F18" d="m154.607 83.67-29.609 5.396-29.602-5.396 29.564-7.749 29.647 7.749Z"/><path fill="#F2B0A9" d="m154.607 165.971-29.609-5.432-29.602 5.432 29.565 8.253 29.646-8.253Z"/><path fill="#8C3123" d="m95.397 83.67 29.601-7.325.239-.074V27.198l-.239-.198-29.602 14.803V83.67Z"/><path fill="#E05243" d="m154.607 83.67-29.609-7.325V27l29.609 14.803V83.67Z"/><path fill="#8C3123" d="M124.998 222.638 95.394 207.84v-41.866l29.604 7.323.435.495-.118 47.992-.317.854Z"/><path fill="#E05243" d="m124.998 222.638 29.606-14.798v-41.866l-29.606 7.323v49.341Zm67.886-161.695 13.045 6.522v114.451l-13.045 6.518V60.944Z"/></svg>