<svg xmlns="http://www.w3.org/2000/svg" width="258" height="258" fill="none"><g filter="url(#a)"><path fill="#F8991D" d="M6.243 183.205a14.971 14.971 0 0 0 2.912 1.881c1.015.478 2.18.717 3.494.717 1.433 0 2.508-.328 3.225-.985.716-.657 1.075-1.464 1.075-2.419 0-.568-.15-1.06-.448-1.478a4.016 4.016 0 0 0-1.165-1.075 7.079 7.079 0 0 0-1.568-.852l-1.791-.716a37.73 37.73 0 0 1-2.33-.896 11.287 11.287 0 0 1-2.105-1.254 6.871 6.871 0 0 1-1.478-1.747c-.388-.657-.582-1.449-.582-2.374 0-.866.164-1.673.492-2.419a5.703 5.703 0 0 1 1.478-1.971c.657-.568 1.449-1.001 2.375-1.299.925-.329 1.97-.493 3.135-.493 1.374 0 2.628.239 3.763.717 1.165.477 2.165 1.06 3.001 1.747l-1.747 2.329a11.751 11.751 0 0 0-2.33-1.389c-.805-.358-1.686-.537-2.642-.537-1.374 0-2.389.313-3.046.94-.627.628-.94 1.359-.94 2.195 0 .508.134.956.402 1.344.27.359.628.687 1.075.986.449.268.956.522 1.524.761.597.209 1.209.433 1.836.672.776.299 1.553.612 2.33.941a8.446 8.446 0 0 1 2.15 1.254 5.536 5.536 0 0 1 1.522 1.792c.419.716.628 1.582.628 2.598a5.91 5.91 0 0 1-.538 2.508c-.328.777-.836 1.464-1.523 2.061-.657.597-1.493 1.06-2.508 1.388-.986.359-2.12.538-3.405.538-1.553 0-3.03-.284-4.434-.851-1.404-.568-2.628-1.284-3.674-2.15l1.837-2.464Zm17.737-5.913c0-1.792.268-3.389.805-4.793.568-1.433 1.3-2.643 2.195-3.628.926-.986 1.971-1.732 3.136-2.24a8.572 8.572 0 0 1 3.628-.806c1.374 0 2.598.239 3.673.717 1.105.477 2.016 1.164 2.733 2.06.746.896 1.314 1.971 1.702 3.225.388 1.255.582 2.658.582 4.211 0 .806-.044 1.478-.134 2.016H27.608c.149 2.359.866 4.225 2.15 5.599 1.314 1.374 3.016 2.061 5.106 2.061 1.045 0 2-.15 2.867-.448a13.519 13.519 0 0 0 2.553-1.255l1.3 2.419a18.501 18.501 0 0 1-3.181 1.568c-1.165.448-2.494.672-3.987.672-1.463 0-2.837-.254-4.12-.762a10.484 10.484 0 0 1-3.316-2.239c-.925-.986-1.657-2.18-2.195-3.584-.537-1.403-.806-3.001-.806-4.793Zm15.23-1.657c0-2.24-.479-3.942-1.434-5.107-.926-1.194-2.24-1.791-3.942-1.791-.777 0-1.523.164-2.24.492a5.768 5.768 0 0 0-1.881 1.344c-.568.567-1.045 1.284-1.434 2.15-.358.836-.597 1.807-.716 2.912h11.646Zm8.604-19.396h3.673v27.772c0 .598.105 1.016.313 1.255.21.239.449.358.717.358h.314c.12 0 .283-.03.492-.09l.493 2.778a3.16 3.16 0 0 1-.85.268c-.33.06-.747.09-1.255.09-1.404 0-2.404-.418-3.001-1.254-.598-.836-.896-2.061-.896-3.673v-27.504Zm11.417 0h3.673v27.772c0 .598.105 1.016.314 1.255.209.239.448.358.716.358h.314c.12 0 .284-.03.493-.09l.493 2.778a3.16 3.16 0 0 1-.852.268c-.328.06-.746.09-1.254.09-1.403 0-2.404-.418-3.001-1.254-.597-.836-.896-2.061-.896-3.673v-27.504Zm9.805 21.053c0-1.792.269-3.389.806-4.793.567-1.433 1.3-2.643 2.195-3.628.926-.986 1.971-1.732 3.136-2.24a8.572 8.572 0 0 1 3.628-.806c1.374 0 2.598.239 3.673.717 1.105.477 2.016 1.164 2.733 2.06.746.896 1.314 1.971 1.702 3.225.388 1.255.582 2.658.582 4.211 0 .806-.045 1.478-.134 2.016H72.664c.15 2.359.866 4.225 2.15 5.599 1.314 1.374 3.016 2.061 5.107 2.061 1.045 0 2-.15 2.867-.448a13.519 13.519 0 0 0 2.553-1.255l1.299 2.419a18.501 18.501 0 0 1-3.18 1.568c-1.165.448-2.494.672-3.987.672-1.463 0-2.837-.254-4.121-.762a10.483 10.483 0 0 1-3.315-2.239c-.926-.986-1.657-2.18-2.195-3.584-.537-1.403-.806-3.001-.806-4.793Zm15.23-1.657c0-2.24-.478-3.942-1.434-5.107-.925-1.194-2.24-1.791-3.941-1.791-.777 0-1.523.164-2.24.492a5.768 5.768 0 0 0-1.882 1.344c-.567.567-1.045 1.284-1.433 2.15-.358.836-.597 1.807-.717 2.912h11.647Zm8.604-9.273h3.047l.313 3.942h.135c.746-1.373 1.642-2.463 2.687-3.27 1.075-.806 2.24-1.209 3.494-1.209.866 0 1.643.149 2.329.448l-.716 3.225a8.45 8.45 0 0 0-.986-.269 5.91 5.91 0 0 0-1.12-.089c-.925 0-1.896.373-2.911 1.12-.986.746-1.852 2.045-2.598 3.897v13.975H92.87v-21.77Zm28.258 23.607v7.346h-3.673v-30.953h3.046l.313 2.509h.135a16.82 16.82 0 0 1 3.225-2.15 8.22 8.22 0 0 1 3.718-.896c1.403 0 2.643.269 3.718.806a6.954 6.954 0 0 1 2.688 2.24c.716.956 1.254 2.12 1.612 3.494.388 1.344.582 2.867.582 4.569 0 1.851-.253 3.509-.761 4.972-.508 1.433-1.195 2.658-2.061 3.673-.866 1.016-1.866 1.792-3.001 2.329a8.672 8.672 0 0 1-3.583.762c-1.016 0-2.031-.224-3.046-.672-.986-.448-1.986-1.06-3.002-1.836l.09 3.807Zm0-6.674c.985.836 1.941 1.433 2.867 1.791.926.329 1.747.493 2.464.493a5.26 5.26 0 0 0 2.463-.582 5.983 5.983 0 0 0 1.971-1.702c.568-.747 1.001-1.658 1.299-2.733.329-1.075.493-2.284.493-3.628 0-1.195-.105-2.285-.314-3.27-.209-.986-.552-1.822-1.03-2.509a4.557 4.557 0 0 0-1.792-1.657c-.716-.388-1.582-.582-2.598-.582-.925 0-1.866.254-2.822.761-.926.508-1.926 1.24-3.001 2.195v11.423Zm19.486-.807c0-2.389 1.06-4.21 3.181-5.465 2.15-1.284 5.554-2.18 10.213-2.687 0-.687-.075-1.359-.224-2.016a4.346 4.346 0 0 0-.717-1.747 3.499 3.499 0 0 0-1.344-1.209c-.567-.329-1.299-.493-2.195-.493-1.284 0-2.478.239-3.583.717a17.932 17.932 0 0 0-2.912 1.612l-1.478-2.553c1.015-.657 2.255-1.284 3.718-1.881 1.463-.628 3.076-.941 4.838-.941 2.657 0 4.584.821 5.778 2.464 1.195 1.612 1.792 3.777 1.792 6.495v13.348h-3.046l-.314-2.598h-.089a18.634 18.634 0 0 1-3.405 2.24 8.4 8.4 0 0 1-3.807.896c-1.852 0-3.39-.538-4.614-1.613-1.195-1.075-1.792-2.598-1.792-4.569Zm3.629-.268c0 1.254.358 2.15 1.075 2.687.746.538 1.657.807 2.732.807a6.35 6.35 0 0 0 2.956-.717c.956-.508 1.956-1.239 3.002-2.195v-6.047c-1.822.239-3.36.522-4.614.851-1.254.328-2.27.717-3.046 1.164-.747.448-1.284.971-1.613 1.568a3.695 3.695 0 0 0-.492 1.882Zm20.368-15.858h3.046l.314 3.942h.134c.747-1.373 1.643-2.463 2.688-3.27 1.075-.806 2.24-1.209 3.494-1.209.866 0 1.642.149 2.329.448l-.717 3.225a8.384 8.384 0 0 0-.985-.269 5.917 5.917 0 0 0-1.12-.089c-.926 0-1.896.373-2.911 1.12-.986.746-1.852 2.045-2.599 3.897v13.975h-3.673v-21.77Zm16.157 3.002h-3.225v-2.778l3.404-.224.448-6.092h3.091v6.092h5.868v3.002h-5.868v12.094c0 1.344.239 2.389.716 3.136.508.716 1.389 1.075 2.643 1.075.388 0 .806-.06 1.254-.179.448-.12.852-.254 1.21-.404l.717 2.778c-.598.209-1.255.388-1.971.537a8.146 8.146 0 0 1-2.061.269c-1.165 0-2.15-.179-2.956-.538a5.27 5.27 0 0 1-1.926-1.478c-.478-.627-.822-1.388-1.031-2.284-.209-.896-.313-1.882-.313-2.957v-12.049Zm14.508-3.002h3.046l.314 3.136h.134c1.045-1.045 2.135-1.911 3.27-2.598 1.165-.717 2.509-1.075 4.032-1.075 2.299 0 3.971.717 5.017 2.15 1.075 1.433 1.612 3.554 1.612 6.361v13.796h-3.673v-13.303c0-2.061-.329-3.539-.986-4.435-.656-.926-1.702-1.389-3.135-1.389-1.135 0-2.135.284-3.001.851-.866.568-1.852 1.404-2.957 2.509v15.767h-3.673v-21.77Zm22.884 10.93c0-1.792.269-3.389.807-4.793.567-1.433 1.299-2.643 2.195-3.628.925-.986 1.971-1.732 3.135-2.24a8.573 8.573 0 0 1 3.629-.806c1.373 0 2.598.239 3.673.717 1.105.477 2.015 1.164 2.732 2.06.747.896 1.314 1.971 1.702 3.225.389 1.255.583 2.658.583 4.211 0 .806-.045 1.478-.135 2.016h-14.692c.149 2.359.866 4.225 2.15 5.599 1.314 1.374 3.016 2.061 5.106 2.061 1.046 0 2.001-.15 2.867-.448a13.502 13.502 0 0 0 2.553-1.255l1.3 2.419a18.504 18.504 0 0 1-3.181 1.568c-1.165.448-2.493.672-3.987.672-1.463 0-2.837-.254-4.121-.762a10.475 10.475 0 0 1-3.314-2.239c-.926-.986-1.658-2.18-2.195-3.584-.538-1.403-.807-3.001-.807-4.793Zm15.23-1.657c0-2.24-.477-3.942-1.433-5.107-.926-1.194-2.24-1.791-3.942-1.791-.776 0-1.523.164-2.24.492a5.771 5.771 0 0 0-1.881 1.344c-.567.567-1.045 1.284-1.433 2.15-.359.836-.598 1.807-.717 2.912h11.646Zm8.605-9.273h3.046l.314 3.942h.134c.747-1.373 1.643-2.463 2.688-3.27 1.075-.806 2.239-1.209 3.494-1.209.866 0 1.642.149 2.329.448l-.717 3.225a8.437 8.437 0 0 0-.985-.269 5.917 5.917 0 0 0-1.12-.089c-.926 0-1.896.373-2.912 1.12-.985.746-1.851 2.045-2.598 3.897v13.975h-3.673v-21.77Z"/><path fill="#F90" fill-rule="evenodd" d="M157.651 122.16c-14.316 10.244-35.057 15.715-52.935 15.715-25.068 0-47.59-8.971-64.705-23.922-1.336-1.145-.127-2.799 1.463-1.845 18.451 10.37 41.228 16.669 64.705 16.669 15.842 0 33.339-3.181 49.372-9.798 2.481-1.081 4.517 1.464 2.1 3.181Z" clip-rule="evenodd"/><path fill="#F90" fill-rule="evenodd" d="M160.449 115.162c-1.654-2.163-11.134-1.018-15.333-.509-1.272.127-1.463-.954-.318-1.782 7.508-5.344 19.851-3.817 21.25-2.036 1.464 1.846-.381 14.379-7.444 20.36-1.081.891-2.099.445-1.654-.764 1.654-4.071 5.217-13.106 3.499-15.269Z" clip-rule="evenodd"/><path fill="#000" fill-rule="evenodd" d="M145.435 68.908v-5.79c0-.89.636-1.463 1.399-1.463h24.941a1.44 1.44 0 0 1 1.463 1.463v4.963c0 .827-.7 1.908-1.909 3.626l-12.915 19.214c4.771-.127 9.861.637 14.251 3.182.955.572 1.273 1.4 1.336 2.29v6.171c0 .828-.89 1.846-1.845 1.337-7.698-4.2-17.878-4.645-26.403.063-.891.509-1.782-.509-1.782-1.336v-5.917c0-.954 0-2.545.955-4.008l15.015-22.396h-13.043c-.764.064-1.4-.509-1.463-1.4ZM55.28 106.636H47.9a1.49 1.49 0 0 1-1.336-1.336V64.009a1.44 1.44 0 0 1 1.463-1.464h6.935c.7.064 1.273.637 1.336 1.4v5.408h.128c1.781-5.217 5.217-7.635 9.798-7.635 4.644 0 7.57 2.418 9.607 7.635 1.781-5.217 5.917-7.635 10.243-7.635 3.118 0 6.49 1.4 8.59 4.518 2.353 3.499 1.844 8.525 1.844 12.915v26.022c0 .827-.636 1.463-1.4 1.463h-7.443a1.457 1.457 0 0 1-1.337-1.463V83.287c0-1.718.128-6.108-.19-7.762-.573-2.8-2.227-3.563-4.39-3.563-1.782 0-3.69 1.272-4.454 3.372-.763 2.1-.7 5.535-.7 7.89v21.885c0 .828-.636 1.464-1.4 1.464H67.75a1.458 1.458 0 0 1-1.336-1.464V83.223c0-4.58.7-11.388-4.58-11.388-5.345 0-5.154 6.616-5.154 11.388v21.886c.064.891-.572 1.527-1.4 1.527Zm141.181-36.71c-5.663 0-6.045 7.953-6.045 12.852 0 4.962-.063 15.524 5.981 15.524 5.981 0 6.235-8.526 6.235-13.743 0-3.436-.127-7.507-1.145-10.752-.827-2.8-2.609-3.881-5.026-3.881Zm-.064-8.271c11.452 0 17.624 10.052 17.624 22.84 0 12.343-6.872 22.141-17.624 22.141-11.261 0-17.369-10.052-17.369-22.586 0-12.597 6.171-22.395 17.369-22.395Zm33.72 44.981h-7.253a1.458 1.458 0 0 1-1.336-1.463V63.882c.064-.764.637-1.337 1.4-1.337h6.744a1.42 1.42 0 0 1 1.273 1.146v6.298h.127c2.036-5.662 4.899-8.334 9.925-8.334 3.245 0 6.49 1.336 8.526 4.835 1.908 3.309 1.908 8.844 1.908 12.852V105.3c-.063.764-.7 1.273-1.399 1.273h-7.317a1.37 1.37 0 0 1-1.273-1.273V82.905c0-4.517.509-11.134-4.58-11.134-1.782 0-3.436 1.272-4.2 3.308-1.018 2.545-1.145 5.026-1.145 7.826v22.204c0 .891-.636 1.527-1.4 1.527ZM135.064 106a1.64 1.64 0 0 1-1.845.191c-2.608-2.163-3.054-3.181-4.517-5.217-4.326 4.39-7.38 5.726-12.916 5.726-6.616 0-11.77-4.072-11.77-12.28 0-6.362 3.436-10.752 8.335-12.851 4.263-1.845 10.18-2.227 14.76-2.736v-1.018c0-1.845.128-4.072-.954-5.726-.954-1.463-2.799-2.036-4.39-2.036-2.99 0-5.662 1.527-6.299 4.708-.127.7-.636 1.4-1.336 1.464l-7.571-.828c-.636-.127-1.336-.636-1.145-1.654 1.718-9.289 10.052-12.025 17.56-12.025 3.817 0 8.78 1.018 11.834 3.945 3.817 3.563 3.435 8.335 3.435 13.552v12.28c0 3.69 1.527 5.28 2.991 7.316.509.7.636 1.59 0 2.099-1.718 1.209-4.581 3.691-6.172 5.09Zm-7.889-19.214c0 3.054.064 5.599-1.463 8.335-1.273 2.226-3.245 3.563-5.408 3.563-2.991 0-4.772-2.29-4.772-5.727 0-6.68 5.981-7.953 11.643-7.953v1.782ZM35.048 106a1.642 1.642 0 0 1-1.845.191c-2.608-2.163-3.054-3.181-4.517-5.217-4.326 4.39-7.38 5.726-12.916 5.726C9.153 106.7 4 102.628 4 94.42c0-6.362 3.436-10.752 8.335-12.851 4.262-1.845 10.18-2.227 14.76-2.736v-1.018c0-1.845.128-4.072-.954-5.726-.954-1.463-2.8-2.036-4.39-2.036-2.99 0-5.663 1.527-6.299 4.708-.127.7-.636 1.4-1.336 1.463l-7.571-.827c-.636-.127-1.336-.636-1.145-1.654 1.718-9.289 10.052-12.088 17.496-12.088 3.817 0 8.78 1.018 11.834 3.944 3.818 3.563 3.436 8.335 3.436 13.552v12.28c0 3.69 1.527 5.28 2.99 7.316.509.7.636 1.591 0 2.1-1.654 1.272-4.517 3.753-6.108 5.153Zm-7.89-19.214c0 3.054.064 5.599-1.462 8.335-1.273 2.226-3.245 3.562-5.408 3.562-2.99 0-4.772-2.29-4.772-5.726 0-6.68 5.98-7.953 11.643-7.953v1.782Z" clip-rule="evenodd"/></g><defs><filter id="a" width="258" height="258" x="0" y="0" color-interpolation-filters="sRGB" filterUnits="userSpaceOnUse"><feFlood flood-opacity="0" result="BackgroundImageFix"/><feColorMatrix in="SourceAlpha" result="hardAlpha" values="0 0 0 0 0 0 0 0 0 0 0 0 0 0 0 0 0 0 127 0"/><feOffset dy="4"/><feGaussianBlur stdDeviation="2"/><feComposite in2="hardAlpha" operator="out"/><feColorMatrix values="0 0 0 0 0 0 0 0 0 0 0 0 0 0 0 0 0 0 0.25 0"/><feBlend in2="BackgroundImageFix" result="effect1_dropShadow_1789_6916"/><feBlend in="SourceGraphic" in2="effect1_dropShadow_1789_6916" result="shape"/></filter></defs></svg>