<svg width="258" height="258" viewBox="0 0 258 258" fill="none" xmlns="http://www.w3.org/2000/svg">
<g filter="url(#filter0_d_348_569)">
<path d="M34.7025 170.26C35.4278 170.849 36.1645 171.325 36.9125 171.688C37.6831 172.051 38.5671 172.232 39.5645 172.232C40.6525 172.232 41.4685 171.983 42.0125 171.484C42.5565 170.985 42.8285 170.373 42.8285 169.648C42.8285 169.217 42.7151 168.843 42.4885 168.526C42.2618 168.209 41.9671 167.937 41.6045 167.71C41.2645 167.461 40.8678 167.245 40.4145 167.064C39.9611 166.883 39.5078 166.701 39.0545 166.52C38.4651 166.316 37.8758 166.089 37.2865 165.84C36.6971 165.568 36.1645 165.251 35.6885 164.888C35.2351 164.503 34.8611 164.061 34.5665 163.562C34.2718 163.063 34.1245 162.463 34.1245 161.76C34.1245 161.103 34.2491 160.491 34.4985 159.924C34.7705 159.335 35.1445 158.836 35.6205 158.428C36.1191 157.997 36.7198 157.669 37.4225 157.442C38.1251 157.193 38.9185 157.068 39.8025 157.068C40.8451 157.068 41.7971 157.249 42.6585 157.612C43.5425 157.975 44.3018 158.417 44.9365 158.938L43.6105 160.706C43.0438 160.275 42.4545 159.924 41.8425 159.652C41.2305 159.38 40.5618 159.244 39.8365 159.244C38.7938 159.244 38.0231 159.482 37.5245 159.958C37.0485 160.434 36.8105 160.989 36.8105 161.624C36.8105 162.009 36.9125 162.349 37.1165 162.644C37.3205 162.916 37.5925 163.165 37.9325 163.392C38.2725 163.596 38.6578 163.789 39.0885 163.97C39.5418 164.129 40.0065 164.299 40.4825 164.48C41.0718 164.707 41.6611 164.945 42.2505 165.194C42.8625 165.443 43.4065 165.761 43.8825 166.146C44.3585 166.509 44.7438 166.962 45.0385 167.506C45.3558 168.05 45.5145 168.707 45.5145 169.478C45.5145 170.158 45.3785 170.793 45.1065 171.382C44.8571 171.971 44.4718 172.493 43.9505 172.946C43.4518 173.399 42.8171 173.751 42.0465 174C41.2985 174.272 40.4371 174.408 39.4625 174.408C38.2838 174.408 37.1618 174.193 36.0965 173.762C35.0311 173.331 34.1018 172.787 33.3085 172.13L34.7025 170.26Z" fill="#F8991D"/>
<path d="M48.1646 165.772C48.1646 164.412 48.3686 163.199 48.7766 162.134C49.2073 161.046 49.7626 160.128 50.4426 159.38C51.1453 158.632 51.9386 158.065 52.8226 157.68C53.7066 157.272 54.6246 157.068 55.5766 157.068C56.6193 157.068 57.5486 157.249 58.3646 157.612C59.2033 157.975 59.8946 158.496 60.4386 159.176C61.0053 159.856 61.4359 160.672 61.7306 161.624C62.0253 162.576 62.1726 163.641 62.1726 164.82C62.1726 165.432 62.1386 165.942 62.0706 166.35H50.9186C51.0319 168.141 51.5759 169.557 52.5506 170.6C53.5479 171.643 54.8399 172.164 56.4266 172.164C57.2199 172.164 57.9453 172.051 58.6026 171.824C59.2826 171.575 59.9286 171.257 60.5406 170.872L61.5266 172.708C60.8013 173.161 59.9966 173.558 59.1126 173.898C58.2286 174.238 57.2199 174.408 56.0866 174.408C54.9759 174.408 53.9333 174.215 52.9586 173.83C52.0066 173.422 51.1679 172.855 50.4426 172.13C49.7399 171.382 49.1846 170.475 48.7766 169.41C48.3686 168.345 48.1646 167.132 48.1646 165.772ZM59.7246 164.514C59.7246 162.814 59.3619 161.522 58.6366 160.638C57.9339 159.731 56.9366 159.278 55.6446 159.278C55.0553 159.278 54.4886 159.403 53.9446 159.652C53.4233 159.879 52.9473 160.219 52.5166 160.672C52.0859 161.103 51.7233 161.647 51.4286 162.304C51.1566 162.939 50.9753 163.675 50.8846 164.514H59.7246Z" fill="#F8991D"/>
<path d="M66.2558 149.792H69.0438V170.872C69.0438 171.325 69.1231 171.643 69.2818 171.824C69.4405 172.005 69.6218 172.096 69.8258 172.096C69.9165 172.096 69.9958 172.096 70.0638 172.096C70.1545 172.096 70.2791 172.073 70.4378 172.028L70.8118 174.136C70.6305 174.227 70.4151 174.295 70.1658 174.34C69.9165 174.385 69.5991 174.408 69.2138 174.408C68.1485 174.408 67.3891 174.091 66.9358 173.456C66.4825 172.821 66.2558 171.892 66.2558 170.668V149.792Z" fill="#F8991D"/>
<path d="M74.9218 149.792H77.7098V170.872C77.7098 171.325 77.7891 171.643 77.9478 171.824C78.1065 172.005 78.2878 172.096 78.4918 172.096C78.5825 172.096 78.6618 172.096 78.7298 172.096C78.8205 172.096 78.9451 172.073 79.1038 172.028L79.4778 174.136C79.2965 174.227 79.0812 174.295 78.8318 174.34C78.5825 174.385 78.2652 174.408 77.8798 174.408C76.8145 174.408 76.0551 174.091 75.6018 173.456C75.1485 172.821 74.9218 171.892 74.9218 170.668V149.792Z" fill="#F8991D"/>
<path d="M82.3638 165.772C82.3638 164.412 82.5678 163.199 82.9758 162.134C83.4065 161.046 83.9618 160.128 84.6418 159.38C85.3445 158.632 86.1378 158.065 87.0218 157.68C87.9058 157.272 88.8238 157.068 89.7758 157.068C90.8185 157.068 91.7478 157.249 92.5638 157.612C93.4025 157.975 94.0938 158.496 94.6378 159.176C95.2045 159.856 95.6352 160.672 95.9298 161.624C96.2245 162.576 96.3718 163.641 96.3718 164.82C96.3718 165.432 96.3378 165.942 96.2698 166.35H85.1178C85.2312 168.141 85.7752 169.557 86.7498 170.6C87.7472 171.643 89.0392 172.164 90.6258 172.164C91.4192 172.164 92.1445 172.051 92.8018 171.824C93.4818 171.575 94.1278 171.257 94.7398 170.872L95.7258 172.708C95.0005 173.161 94.1958 173.558 93.3118 173.898C92.4278 174.238 91.4192 174.408 90.2858 174.408C89.1752 174.408 88.1325 174.215 87.1578 173.83C86.2058 173.422 85.3672 172.855 84.6418 172.13C83.9392 171.382 83.3838 170.475 82.9758 169.41C82.5678 168.345 82.3638 167.132 82.3638 165.772ZM93.9238 164.514C93.9238 162.814 93.5612 161.522 92.8358 160.638C92.1332 159.731 91.1358 159.278 89.8438 159.278C89.2545 159.278 88.6878 159.403 88.1438 159.652C87.6225 159.879 87.1465 160.219 86.7158 160.672C86.2852 161.103 85.9225 161.647 85.6278 162.304C85.3558 162.939 85.1745 163.675 85.0838 164.514H93.9238Z" fill="#F8991D"/>
<path d="M100.455 157.476H102.767L103.005 160.468H103.107C103.674 159.425 104.354 158.598 105.147 157.986C105.963 157.374 106.847 157.068 107.799 157.068C108.456 157.068 109.046 157.181 109.567 157.408L109.023 159.856C108.751 159.765 108.502 159.697 108.275 159.652C108.048 159.607 107.765 159.584 107.425 159.584C106.722 159.584 105.986 159.867 105.215 160.434C104.467 161.001 103.81 161.987 103.243 163.392V174H100.455V157.476Z" fill="#F8991D"/>
<path d="M121.903 175.394V180.97H119.115V157.476H121.427L121.665 159.38H121.767C122.515 158.745 123.331 158.201 124.215 157.748C125.122 157.295 126.062 157.068 127.037 157.068C128.103 157.068 129.043 157.272 129.859 157.68C130.675 158.065 131.355 158.632 131.899 159.38C132.443 160.105 132.851 160.989 133.123 162.032C133.418 163.052 133.565 164.208 133.565 165.5C133.565 166.905 133.373 168.163 132.987 169.274C132.602 170.362 132.081 171.291 131.423 172.062C130.766 172.833 130.007 173.422 129.145 173.83C128.284 174.215 127.377 174.408 126.425 174.408C125.655 174.408 124.884 174.238 124.113 173.898C123.365 173.558 122.606 173.093 121.835 172.504L121.903 175.394ZM121.903 170.328C122.651 170.963 123.377 171.416 124.079 171.688C124.782 171.937 125.405 172.062 125.949 172.062C126.629 172.062 127.253 171.915 127.819 171.62C128.409 171.303 128.907 170.872 129.315 170.328C129.746 169.761 130.075 169.07 130.301 168.254C130.551 167.438 130.675 166.52 130.675 165.5C130.675 164.593 130.596 163.766 130.437 163.018C130.279 162.27 130.018 161.635 129.655 161.114C129.315 160.57 128.862 160.151 128.295 159.856C127.751 159.561 127.094 159.414 126.323 159.414C125.621 159.414 124.907 159.607 124.181 159.992C123.479 160.377 122.719 160.933 121.903 161.658V170.328Z" fill="#F8991D"/>
<path d="M136.694 169.716C136.694 167.903 137.498 166.52 139.108 165.568C140.74 164.593 143.324 163.913 146.86 163.528C146.86 163.007 146.803 162.497 146.69 161.998C146.599 161.499 146.418 161.057 146.146 160.672C145.896 160.287 145.556 159.981 145.126 159.754C144.695 159.505 144.14 159.38 143.46 159.38C142.485 159.38 141.578 159.561 140.74 159.924C139.924 160.287 139.187 160.695 138.53 161.148L137.408 159.21C138.178 158.711 139.119 158.235 140.23 157.782C141.34 157.306 142.564 157.068 143.902 157.068C145.919 157.068 147.381 157.691 148.288 158.938C149.194 160.162 149.648 161.805 149.648 163.868V174H147.336L147.098 172.028H147.03C146.236 172.685 145.375 173.252 144.446 173.728C143.539 174.181 142.576 174.408 141.556 174.408C140.15 174.408 138.983 174 138.054 173.184C137.147 172.368 136.694 171.212 136.694 169.716ZM139.448 169.512C139.448 170.464 139.72 171.144 140.264 171.552C140.83 171.96 141.522 172.164 142.338 172.164C143.131 172.164 143.879 171.983 144.582 171.62C145.307 171.235 146.066 170.679 146.86 169.954V165.364C145.477 165.545 144.31 165.761 143.358 166.01C142.406 166.259 141.635 166.554 141.046 166.894C140.479 167.234 140.071 167.631 139.822 168.084C139.572 168.515 139.448 168.991 139.448 169.512Z" fill="#F8991D"/>
<path d="M154.908 157.476H157.22L157.458 160.468H157.56C158.127 159.425 158.807 158.598 159.6 157.986C160.416 157.374 161.3 157.068 162.252 157.068C162.909 157.068 163.499 157.181 164.02 157.408L163.476 159.856C163.204 159.765 162.955 159.697 162.728 159.652C162.501 159.607 162.218 159.584 161.878 159.584C161.175 159.584 160.439 159.867 159.668 160.434C158.92 161.001 158.263 161.987 157.696 163.392V174H154.908V157.476Z" fill="#F8991D"/>
<path d="M167.171 159.754H164.723V157.646L167.307 157.476L167.647 152.852H169.993V157.476H174.447V159.754H169.993V168.934C169.993 169.954 170.175 170.747 170.537 171.314C170.923 171.858 171.591 172.13 172.543 172.13C172.838 172.13 173.155 172.085 173.495 171.994C173.835 171.903 174.141 171.801 174.413 171.688L174.957 173.796C174.504 173.955 174.005 174.091 173.461 174.204C172.94 174.34 172.419 174.408 171.897 174.408C171.013 174.408 170.265 174.272 169.653 174C169.064 173.728 168.577 173.354 168.191 172.878C167.829 172.402 167.568 171.824 167.409 171.144C167.251 170.464 167.171 169.716 167.171 168.9V159.754Z" fill="#F8991D"/>
<path d="M178.184 157.476H180.496L180.734 159.856H180.836C181.629 159.063 182.456 158.405 183.318 157.884C184.202 157.34 185.222 157.068 186.378 157.068C188.123 157.068 189.392 157.612 190.186 158.7C191.002 159.788 191.41 161.397 191.41 163.528V174H188.622V163.902C188.622 162.338 188.372 161.216 187.874 160.536C187.375 159.833 186.582 159.482 185.494 159.482C184.632 159.482 183.873 159.697 183.216 160.128C182.558 160.559 181.81 161.193 180.972 162.032V174H178.184V157.476Z" fill="#F8991D"/>
<path d="M195.553 165.772C195.553 164.412 195.757 163.199 196.165 162.134C196.596 161.046 197.151 160.128 197.831 159.38C198.534 158.632 199.327 158.065 200.211 157.68C201.095 157.272 202.013 157.068 202.965 157.068C204.008 157.068 204.937 157.249 205.753 157.612C206.592 157.975 207.283 158.496 207.827 159.176C208.394 159.856 208.825 160.672 209.119 161.624C209.414 162.576 209.561 163.641 209.561 164.82C209.561 165.432 209.527 165.942 209.459 166.35H198.307C198.421 168.141 198.965 169.557 199.939 170.6C200.937 171.643 202.229 172.164 203.815 172.164C204.609 172.164 205.334 172.051 205.991 171.824C206.671 171.575 207.317 171.257 207.929 170.872L208.915 172.708C208.19 173.161 207.385 173.558 206.501 173.898C205.617 174.238 204.609 174.408 203.475 174.408C202.365 174.408 201.322 174.215 200.347 173.83C199.395 173.422 198.557 172.855 197.831 172.13C197.129 171.382 196.573 170.475 196.165 169.41C195.757 168.345 195.553 167.132 195.553 165.772ZM207.113 164.514C207.113 162.814 206.751 161.522 206.025 160.638C205.323 159.731 204.325 159.278 203.033 159.278C202.444 159.278 201.877 159.403 201.333 159.652C200.812 159.879 200.336 160.219 199.905 160.672C199.475 161.103 199.112 161.647 198.817 162.304C198.545 162.939 198.364 163.675 198.273 164.514H207.113Z" fill="#F8991D"/>
<path d="M213.644 157.476H215.956L216.194 160.468H216.296C216.863 159.425 217.543 158.598 218.336 157.986C219.152 157.374 220.036 157.068 220.988 157.068C221.646 157.068 222.235 157.181 222.756 157.408L222.212 159.856C221.94 159.765 221.691 159.697 221.464 159.652C221.238 159.607 220.954 159.584 220.614 159.584C219.912 159.584 219.175 159.867 218.404 160.434C217.656 161.001 216.999 161.987 216.432 163.392V174H213.644V157.476Z" fill="#F8991D"/>
<path fill-rule="evenodd" clip-rule="evenodd" d="M149.625 123.925C138.759 131.7 123.016 135.853 109.446 135.853C90.419 135.853 73.3237 129.044 60.3332 117.696C59.3191 116.827 60.2366 115.571 61.4439 116.295C75.4485 124.167 92.737 128.948 110.557 128.948C122.581 128.948 135.862 126.533 148.031 121.511C149.914 120.69 151.46 122.622 149.625 123.925Z" fill="#FF9900"/>
<path fill-rule="evenodd" clip-rule="evenodd" d="M151.749 118.613C150.494 116.971 143.298 117.841 140.111 118.227C139.145 118.324 139 117.503 139.869 116.875C145.568 112.818 154.936 113.977 155.999 115.329C157.11 116.73 155.709 126.243 150.349 130.783C149.528 131.459 148.755 131.121 149.093 130.203C150.349 127.113 153.053 120.255 151.749 118.613Z" fill="#FF9900"/>
<path fill-rule="evenodd" clip-rule="evenodd" d="M140.352 83.5053V79.1107C140.352 78.4346 140.835 78 141.415 78H160.345C160.973 78 161.456 78.4829 161.456 79.1107V82.8775C161.456 83.5053 160.925 84.3262 160.007 85.6301L150.204 100.214C153.826 100.118 157.689 100.697 161.021 102.629C161.746 103.063 161.987 103.691 162.035 104.367V109.052C162.035 109.679 161.359 110.452 160.635 110.066C154.792 106.878 147.065 106.54 140.594 110.114C139.918 110.5 139.242 109.728 139.242 109.1V104.609C139.242 103.884 139.242 102.677 139.966 101.566L151.363 84.5677H141.463C140.884 84.616 140.401 84.1813 140.352 83.5053Z" fill="black"/>
<path fill-rule="evenodd" clip-rule="evenodd" d="M71.9231 112.142H66.3213C65.79 112.094 65.3554 111.659 65.3071 111.128V79.7868C65.3071 79.159 65.79 78.6761 66.4178 78.6761H71.6816C72.2129 78.7244 72.6475 79.159 72.6958 79.7385V83.8433H72.7924C74.1445 79.8834 76.7523 78.0483 80.2293 78.0483C83.7546 78.0483 85.976 79.8834 87.5213 83.8433C88.8735 79.8834 92.0125 78.0483 95.2963 78.0483C97.6626 78.0483 100.222 79.1107 101.816 81.477C103.603 84.133 103.216 87.9481 103.216 91.2802V111.032C103.216 111.659 102.733 112.142 102.154 112.142H96.5036C95.9241 112.094 95.4895 111.611 95.4895 111.032V94.4192C95.4895 93.1153 95.5861 89.7832 95.3446 88.5276C94.91 86.4028 93.6544 85.8232 92.0125 85.8232C90.6603 85.8232 89.2116 86.7891 88.6321 88.3827C88.0526 89.9763 88.1008 92.5841 88.1008 94.3709V110.983C88.1008 111.611 87.6179 112.094 87.0384 112.094H81.3883C80.8088 112.046 80.3742 111.563 80.3742 110.983V94.3709C80.3742 90.8939 80.9054 85.7267 76.8972 85.7267C72.8406 85.7267 72.9855 90.749 72.9855 94.3709V110.983C73.0338 111.659 72.5509 112.142 71.9231 112.142Z" fill="black"/>
<path fill-rule="evenodd" clip-rule="evenodd" d="M179.083 84.2779C174.785 84.2779 174.495 90.3144 174.495 94.0329C174.495 97.7996 174.447 105.816 179.034 105.816C183.574 105.816 183.767 99.345 183.767 95.385C183.767 92.7773 183.67 89.6866 182.898 87.2237C182.27 85.0989 180.918 84.2779 179.083 84.2779ZM179.034 78C187.727 78 192.411 85.6301 192.411 95.3367C192.411 104.705 187.196 112.142 179.034 112.142C170.487 112.142 165.851 104.512 165.851 94.9987C165.851 85.4369 170.535 78 179.034 78Z" fill="black"/>
<path fill-rule="evenodd" clip-rule="evenodd" d="M204.629 112.142H199.124C198.544 112.094 198.11 111.611 198.11 111.032V79.6902C198.158 79.1107 198.593 78.6761 199.172 78.6761H204.291C204.774 78.7244 205.16 79.0624 205.257 79.5453V84.3262H205.353C206.899 80.0283 209.072 78 212.887 78C215.35 78 217.813 79.0141 219.358 81.6702C220.807 84.1813 220.807 88.3827 220.807 91.4251V111.128C220.758 111.708 220.276 112.094 219.744 112.094H214.191C213.66 112.046 213.273 111.659 213.225 111.128V94.1294C213.225 90.7007 213.611 85.6784 209.748 85.6784C208.396 85.6784 207.14 86.6442 206.561 88.1896C205.788 90.1212 205.691 92.0046 205.691 94.1294V110.983C205.691 111.659 205.209 112.142 204.629 112.142Z" fill="black"/>
<path fill-rule="evenodd" clip-rule="evenodd" d="M132.481 111.659C132.095 111.997 131.515 112.046 131.081 111.804C129.101 110.162 128.763 109.39 127.652 107.844C124.368 111.176 122.05 112.191 117.849 112.191C112.826 112.191 108.915 109.1 108.915 102.87C108.915 98.0411 111.523 94.7089 115.241 93.1153C118.477 91.7148 122.968 91.4251 126.445 91.0388V90.2661C126.445 88.8656 126.541 87.1754 125.72 85.9198C124.996 84.8091 123.595 84.3745 122.388 84.3745C120.118 84.3745 118.09 85.5335 117.607 87.9481C117.511 88.4793 117.124 89.0105 116.593 89.0588L110.846 88.431C110.364 88.3344 109.832 87.9481 109.977 87.1754C111.281 80.1248 117.607 78.0483 123.306 78.0483C126.203 78.0483 129.97 78.8209 132.288 81.0424C135.186 83.7467 134.896 87.3686 134.896 91.3285V100.649C134.896 103.45 136.055 104.657 137.165 106.202C137.552 106.734 137.648 107.41 137.165 107.796C135.862 108.714 133.688 110.597 132.481 111.659ZM126.493 97.0752C126.493 99.3932 126.541 101.325 125.382 103.401C124.416 105.092 122.919 106.106 121.277 106.106C119.008 106.106 117.656 104.367 117.656 101.76C117.656 96.6889 122.195 95.7231 126.493 95.7231V97.0752Z" fill="black"/>
<path fill-rule="evenodd" clip-rule="evenodd" d="M56.5664 111.659C56.1801 111.997 55.6005 112.046 55.1659 111.804C53.186 110.162 52.8479 109.39 51.7372 107.844C48.4534 111.176 46.1354 112.191 41.934 112.191C36.9116 112.191 33 109.1 33 102.87C33 98.0411 35.6078 94.709 39.3262 93.1153C42.5618 91.7149 47.0529 91.4251 50.5299 91.0388V90.2661C50.5299 88.8656 50.6265 87.1754 49.8055 85.9198C49.0812 84.8091 47.6807 84.3745 46.4734 84.3745C44.2037 84.3745 42.1754 85.5335 41.6925 87.9481C41.5959 88.4793 41.2096 89.0105 40.6784 89.0588L34.9317 88.431C34.4488 88.3344 33.9175 87.9481 34.0624 87.1754C35.3663 80.1248 41.6925 78 47.3427 78C50.2402 78 54.0069 78.7727 56.3249 80.9941C59.2224 83.6984 58.9327 87.3203 58.9327 91.2802V100.601C58.9327 103.401 60.0917 104.609 61.2024 106.154C61.5887 106.685 61.6853 107.361 61.2024 107.748C59.9468 108.714 57.7737 110.597 56.5664 111.659ZM50.5782 97.0752C50.5782 99.3933 50.6265 101.325 49.4675 103.401C48.5017 105.092 47.0046 106.106 45.3627 106.106C43.093 106.106 41.7408 104.367 41.7408 101.76C41.7408 96.6889 46.2802 95.7231 50.5782 95.7231V97.0752Z" fill="black"/>
</g>
<defs>
<filter id="filter0_d_348_569" x="0" y="0" width="258" height="258" filterUnits="userSpaceOnUse" color-interpolation-filters="sRGB">
<feFlood flood-opacity="0" result="BackgroundImageFix"/>
<feColorMatrix in="SourceAlpha" type="matrix" values="0 0 0 0 0 0 0 0 0 0 0 0 0 0 0 0 0 0 127 0" result="hardAlpha"/>
<feOffset dy="4"/>
<feGaussianBlur stdDeviation="2"/>
<feComposite in2="hardAlpha" operator="out"/>
<feColorMatrix type="matrix" values="0 0 0 0 0 0 0 0 0 0 0 0 0 0 0 0 0 0 0.25 0"/>
<feBlend mode="normal" in2="BackgroundImageFix" result="effect1_dropShadow_348_569"/>
<feBlend mode="normal" in="SourceGraphic" in2="effect1_dropShadow_348_569" result="shape"/>
</filter>
</defs>
</svg>
