<svg xmlns="http://www.w3.org/2000/svg" width="250" height="250" fill="none"><path fill="#007FD2" d="M113.247 69.716a2.28 2.28 0 0 0-.754-.776 2.245 2.245 0 0 0-1.023-.336c-.492.024-.966.19-1.366.48-5.027 4.148-11.91 21.748-17.551 44.936l4.991.064c9.865.112 20.045.236 30.115.4-2.66-10.624-5.145-19.728-7.465-27.072a85.946 85.946 0 0 0-6.947-17.696Z"/><path fill="#007FD2" d="M124.45 25C72.287 25 30 69.464 30 124.312s42.287 99.304 94.45 99.304c52.163 0 94.45-44.46 94.45-99.304S176.609 25 124.45 25Zm67.897 101.108-.024.024c-.099.08-.202.168-.312.244l-.103.08-.222.136a4.76 4.76 0 0 1-2.529.728h-44.761c.364 1.556.756 3.328 1.187 5.256 2.451 11.14 8.962 40.732 15.881 40.732h.356c5.411 0 8.166-8.216 14.211-26.216l.075-.224c.974-2.892 2.066-6.152 3.258-9.6l.301-.884c.171-.477.502-.879.936-1.135.434-.256.943-.35 1.439-.265a2.23 2.23 0 0 1 1.275.781c.323.401.501.902.502 1.419 0 .221-.031.44-.091.652l-.254.884c-.629 2.144-1.298 5.064-2.074 8.44-3.602 15.704-9.048 39.424-23.013 39.424h-.103c-9.021-.076-14.409-15.244-16.728-21.724-4.315-12.108-7.588-25.02-10.723-37.516H89.664l-8.55 28.752-.13-.104a4.277 4.277 0 0 1-2.106 1.813 4.226 4.226 0 0 1-2.763.127 4.517 4.517 0 0 1-2.283-1.665 4.596 4.596 0 0 1-.864-2.707v-.156l.518-3.252a502.284 502.284 0 0 1 4.212-22.824H60.34l-.064-.068a6.861 6.861 0 0 1-3.968-2.354 6.99 6.99 0 0 1-1.61-4.355 6.992 6.992 0 0 1 1.468-4.406 6.866 6.866 0 0 1 3.889-2.485 14.811 14.811 0 0 1 2.03-.088h.847c5.514.1 11.38.188 17.773.272C89.771 75.068 100.3 55.36 111.97 55.32c12.512 0 21.795 29.964 29.221 59.272l.031.12c15.271.324 31.544.8 47.362 2l.665.064c.253.007.505.03.756.068h.214c.949.212 1.82.694 2.508 1.39a5.18 5.18 0 0 1 1.375 2.534 5.448 5.448 0 0 1-.132 2.92 5.385 5.385 0 0 1-1.622 2.42Z"/></svg>