<svg xmlns="http://www.w3.org/2000/svg" id="svg349" width="996" height="996" version="1.1"><style id="style345">.shp0{fill:#007fd2}</style><path id="Path 1" d="M438.96 224.17c-2.76-3.64-5.9-5.55-9.39-5.55-2.88 0-5.51 1.29-7.2 2.37-26.52 20.83-62.81 109.07-92.55 225.34l26.33.3c51.99.59 105.68 1.2 158.75 2.02-13.99-53.26-27.21-98.91-39.33-135.76-17.71-53.86-29.68-77.97-36.61-88.72z" class="shp0"/><path id="Path 2" fill-rule="evenodd" d="M996 498c0 275.03-222.96 498-498 498C222.96 996 0 773.03 0 498 0 222.96 222.96 0 498 0c275.04 0 498 222.96 498 498Zm-130.18-11.39c0-12.79-9.01-23.45-21.15-25.88-.07-.01-.14-.03-.22-.05-.14-.02-.28-.07-.42-.09l-.49-.05c-1.29-.21-2.6-.34-3.94-.36l-3.49-.33c-83.41-5.97-169.22-8.32-249.72-9.93l-.16-.59c-39.18-146.96-88.12-297.21-154.11-297.21-61.49.28-116.92 99-164.79 293.48-33.82-.43-64.65-.9-93.72-1.4-1.65-.03-3.13-.04-4.45-.04-6.2 0-9.23.26-10.73.46-16.37 2.9-28.25 17.18-28.25 33.97 0 17.12 12.78 31.8 29.43 34.2l.34.35h91.7c-8.51 38.91-15.97 77.39-22.2 114.46l-2.73 16.32-.03.78c.06 12.59 10.35 22.83 22.93 22.83 7.98 0 15.21-4.16 19.34-10.64l.65.52 45.08-144.27h217.14c16.59 62.68 33.8 127.4 56.54 188.14 12.16 32.48 40.63 108.55 88.21 108.93h.54c73.64 0 102.34-118.95 121.35-197.69 4.08-16.94 7.61-31.57 10.94-42.32l1.33-4.44h-.01c.32-1.04.49-2.14.49-3.29 0-6.3-5.11-11.41-11.41-11.41-4.89 0-9.05 3.07-10.68 7.39l-.02-.01-1.6 4.42c-6.25 17.3-12.03 33.66-17.15 48.16l-.39 1.09c-31.87 90.27-46.42 131.47-74.92 131.48l-.7-.01-.4.06-.71-.02c-36.48 0-70.83-148.3-83.76-204.12-2.24-9.67-4.29-18.55-6.18-26.36h235.89c4.43 0 8.6-1.11 12.26-3.03.03-.01.05-.02.07-.03.37-.19.72-.41 1.08-.62.4-.23.79-.46 1.17-.71.19-.12.37-.25.55-.38.57-.39 1.12-.8 1.66-1.24.04-.03.07-.06.11-.09 5.94-4.87 9.73-12.25 9.73-20.43z" class="shp0"/></svg>