<svg xmlns="http://www.w3.org/2000/svg" viewBox="0 0 5000 1000" width="5000" height="1000">
	<style>
		tspan { white-space:pre }
		.shp0 { fill: #007fd2 } 
	</style>
	<path id="Path 1" class="shp0" d="M438.95 228.64C436.19 225 433.05 223.09 429.56 223.09C426.68 223.09 424.05 224.38 422.36 225.46C395.84 246.29 359.55 334.53 329.81 450.8L356.14 451.1C408.13 451.69 461.82 452.3 514.89 453.12C500.9 399.86 487.68 354.21 475.56 317.36C457.85 263.5 445.88 239.39 438.95 228.64Z" />
	<path id="Path 2" fill-rule="evenodd" class="shp0" d="M995.99 502.47C995.99 777.5 773.03 1000.47 497.99 1000.47C222.95 1000.47 -0.01 777.5 -0.01 502.47C-0.01 227.43 222.95 4.47 497.99 4.47C773.03 4.47 995.99 227.43 995.99 502.47ZM865.81 491.08C865.81 478.29 856.8 467.63 844.66 465.2C844.59 465.19 844.52 465.17 844.44 465.15C844.3 465.13 844.16 465.08 844.02 465.06L843.53 465.01C842.24 464.8 840.93 464.67 839.59 464.65L836.1 464.32C752.69 458.35 666.88 456 586.38 454.39L586.22 453.8C547.04 306.84 498.1 156.59 432.11 156.59C370.62 156.87 315.19 255.59 267.32 450.07C233.5 449.64 202.67 449.17 173.6 448.67C171.95 448.64 170.47 448.63 169.15 448.63C162.95 448.63 159.92 448.89 158.42 449.09C142.05 451.99 130.17 466.27 130.17 483.06C130.17 500.18 142.95 514.86 159.6 517.26L159.94 517.61L251.64 517.61C243.13 556.52 235.67 595 229.44 632.07L226.71 648.39L226.68 649.17C226.74 661.76 237.03 672 249.61 672C257.59 672 264.82 667.84 268.95 661.36L269.6 661.88L314.68 517.61L531.82 517.61C548.41 580.29 565.62 645.01 588.36 705.75C600.52 738.23 628.99 814.3 676.57 814.68L677.11 814.68C750.75 814.68 779.45 695.73 798.46 616.99C802.54 600.05 806.07 585.42 809.4 574.67L810.73 570.23L810.72 570.23C811.04 569.19 811.21 568.09 811.21 566.94C811.21 560.64 806.1 555.53 799.8 555.53C794.91 555.53 790.75 558.6 789.12 562.92L789.1 562.91L787.5 567.33C781.25 584.63 775.47 600.99 770.35 615.49L769.96 616.58C738.09 706.85 723.54 748.05 695.04 748.06L694.34 748.05L693.94 748.11L693.23 748.09C656.75 748.09 622.4 599.79 609.47 543.97C607.23 534.3 605.18 525.42 603.29 517.61L839.18 517.61C843.61 517.61 847.78 516.5 851.44 514.58C851.47 514.57 851.49 514.56 851.51 514.55C851.88 514.36 852.23 514.14 852.59 513.93C852.99 513.7 853.38 513.47 853.76 513.22C853.95 513.1 854.13 512.97 854.31 512.84C854.88 512.45 855.43 512.04 855.97 511.6C856.01 511.57 856.04 511.54 856.08 511.51C862.02 506.64 865.81 499.26 865.81 491.08ZM1272.35 627.07L1232.87 724.64L1118.18 724.64L1336.4 215.21L1437.69 215.21L1655.16 724.64L1541.21 724.64L1501.74 627.07L1272.35 627.07ZM1386.3 344.05L1311.82 529.5L1462.27 529.5L1386.3 344.05ZM2301.63 528.76L2301.63 724.64L2198.11 724.64L2198.11 537.7C2198.11 481.09 2170.55 450.56 2122.14 450.56C2100.54 450.56 2076.71 460.24 2055.11 490.03C2056.6 502.69 2058.09 515.35 2058.09 528.76L2058.09 724.64L1954.56 724.64L1954.56 537.7C1954.56 481.09 1927.01 450.56 1877.85 450.56C1857.74 450.56 1835.4 462.47 1814.55 490.78L1814.55 724.64L1711.02 724.64L1711.02 367.89L1814.55 367.89L1814.55 389.49C1836.89 368.63 1860.72 356.72 1902.43 356.72C1947.86 356.72 1988.08 374.59 2016.38 407.36C2054.37 372.36 2090.11 356.72 2145.97 356.72C2233.11 356.72 2301.63 424.49 2301.63 528.76ZM2756.69 546.63C2756.69 650.16 2677.75 732.08 2579.43 732.08C2539.22 732.08 2505.7 721.66 2478.14 703.78L2478.14 896.68L2374.62 896.68L2374.62 367.89L2478.14 367.89L2478.14 388.74C2505.7 370.86 2539.22 360.44 2579.43 360.44C2677.75 360.44 2756.69 441.62 2756.69 546.63ZM2654.66 546.63C2654.66 493.75 2615.93 447.58 2562.3 447.58C2531.77 447.58 2501.23 458 2478.14 489.29L2478.14 603.24C2501.23 633.77 2531.77 644.2 2562.3 644.2C2615.93 644.2 2654.66 598.77 2654.66 546.63ZM2918.31 724.64L2814.78 724.64L2814.78 195.84L2918.31 195.84L2918.31 724.64ZM3126.09 724.64L3022.57 724.64L3022.57 367.89L3126.09 367.89L3126.09 724.64ZM3011.4 242.02C3011.4 207.01 3038.95 180.95 3073.96 180.95C3108.22 180.95 3135.78 207.01 3135.78 242.02C3135.78 276.28 3108.22 301.6 3073.96 301.6C3038.95 301.6 3011.4 276.28 3011.4 242.02ZM3502.2 719.42C3459.01 732.83 3439.64 735.81 3406.13 735.81C3319.73 735.81 3263.13 674.74 3263.13 582.38L3263.13 455.03L3187.91 455.03L3187.91 367.89L3263.13 367.89L3263.13 240.53L3365.91 240.53L3365.91 367.89L3494.76 367.89L3494.76 455.03L3365.91 455.03L3365.91 581.64C3365.91 621.86 3390.49 640.48 3428.47 640.48C3447.83 640.48 3468.69 636.01 3488.8 630.8L3502.2 719.42ZM3917.79 724.64L3814.26 724.64L3814.26 699.31C3785.22 722.4 3752.44 735.81 3712.23 735.81C3618.38 735.81 3555.82 668.03 3555.82 564.51L3555.82 367.89L3659.35 367.89L3659.35 554.83C3659.35 611.43 3687.65 641.97 3736.06 641.97C3762.13 641.97 3790.43 626.33 3814.26 597.28L3814.26 367.89L3917.79 367.89L3917.79 724.64ZM4357.21 724.64L4253.69 724.64L4253.69 703.78C4226.13 721.66 4192.62 732.08 4152.4 732.08C4054.09 732.08 3974.39 650.9 3974.39 545.89C3974.39 442.36 4054.09 360.44 4152.4 360.44C4192.62 360.44 4226.13 370.86 4253.69 388.74L4253.69 195.84L4357.21 195.84L4357.21 724.64ZM4253.69 603.24L4253.69 489.29C4230.6 458.75 4200.06 448.32 4169.53 448.32C4115.16 448.32 4077.17 493.75 4077.17 545.89C4077.17 598.77 4115.16 644.95 4169.53 644.95C4200.06 644.95 4230.6 634.52 4253.69 603.24ZM4777.27 572.7L4514.36 572.7C4522.55 614.41 4550.11 647.18 4606.71 647.18C4635.76 647.18 4655.87 638.24 4667.04 620.37L4775.03 620.37C4755.67 688.89 4688.64 735.81 4604.48 735.81C4489.78 735.81 4412.32 653.14 4412.32 546.63C4412.32 436.41 4489.04 356.71 4601.5 356.71C4703.53 356.71 4779.5 428.96 4779.5 539.18C4779.5 554.08 4778.76 562.27 4777.27 572.7ZM4515.1 511.63L4676.72 511.63C4670.76 466.94 4643.95 442.36 4602.24 442.36C4552.34 442.36 4524.79 471.41 4515.1 511.63Z" />
</svg>