<?xml version="1.0" standalone="no"?>
<!DOCTYPE svg PUBLIC "-//W3C//DTD SVG 20010904//EN"
 "http://www.w3.org/TR/2001/REC-SVG-20010904/DTD/svg10.dtd">
<svg version="1.0" xmlns="http://www.w3.org/2000/svg"
 width="225.000000pt" height="225.000000pt" viewBox="0 0 225.000000 225.000000"
 preserveAspectRatio="xMidYMid meet">

<g transform="translate(0.000000,225.000000) scale(0.100000,-0.100000)"
fill="#000000" stroke="none">
<path d="M998 2240 c-490 -56 -894 -436 -978 -920 -17 -96 -17 -294 0 -390 39
-226 144 -426 314 -596 221 -221 478 -327 791 -327 313 0 570 106 791 327 221
221 327 478 327 791 0 313 -106 570 -327 791 -165 165 -357 269 -571 309 -97
18 -255 25 -347 15z m15 -343 c95 -40 210 -272 292 -593 l19 -71 245 -7 c356
-10 380 -15 381 -77 0 -56 -11 -58 -312 -61 l-275 -3 33 -130 c54 -219 94
-323 139 -365 30 -28 66 -21 94 18 23 32 74 156 122 294 33 97 44 113 69 98
22 -13 -55 -309 -111 -424 -76 -157 -191 -199 -276 -102 -66 75 -116 195 -189
456 -19 69 -37 133 -40 143 -5 16 -26 17 -249 17 l-243 0 -11 -32 c-5 -18 -28
-93 -51 -165 -42 -138 -58 -161 -100 -148 -39 12 -41 36 -15 177 14 73 28 141
31 151 5 15 -4 17 -104 17 -95 0 -113 3 -136 21 -37 29 -37 89 1 119 26 20 37
22 152 18 l125 -3 22 84 c87 320 190 512 299 562 48 22 48 22 88 6z"/>
<path d="M926 1717 c-25 -33 -64 -114 -93 -192 -24 -66 -83 -259 -83 -272 0
-10 48 -13 206 -13 191 0 205 1 200 18 -2 9 -14 53 -26 97 -35 128 -80 265
-111 333 -33 73 -54 80 -93 29z"/>
</g>
</svg>
