<?xml version="1.0" encoding="UTF-8" standalone="no"?>
<svg
   viewBox="0 0 996 996"
   width="996"
   height="996"
   version="1.1"
   id="svg349"
   sodipodi:docname="amplitude.svg"
   inkscape:version="1.2.1 (9c6d41e410, 2022-07-14, custom)"
   xmlns:inkscape="http://www.inkscape.org/namespaces/inkscape"
   xmlns:sodipodi="http://sodipodi.sourceforge.net/DTD/sodipodi-0.dtd"
   xmlns="http://www.w3.org/2000/svg"
   xmlns:svg="http://www.w3.org/2000/svg">
  <defs
     id="defs353" />
  <sodipodi:namedview
     id="namedview351"
     pagecolor="#ffffff"
     bordercolor="#666666"
     borderopacity="1.0"
     inkscape:showpageshadow="2"
     inkscape:pageopacity="0.0"
     inkscape:pagecheckerboard="0"
     inkscape:deskcolor="#d1d1d1"
     showgrid="false"
     inkscape:zoom="0.2714"
     inkscape:cx="2500"
     inkscape:cy="497.42078"
     inkscape:window-width="3840"
     inkscape:window-height="2083"
     inkscape:window-x="0"
     inkscape:window-y="40"
     inkscape:window-maximized="1"
     inkscape:current-layer="svg349" />
  <style
     id="style345">
		tspan { white-space:pre }
		.shp0 { fill: #007fd2 } 
	</style>
  <path
     id="Path 1"
     class="shp0"
     d="m 438.96,224.17 c -2.76,-3.64 -5.9,-5.55 -9.39,-5.55 -2.88,0 -5.51,1.29 -7.2,2.37 -26.52,20.83 -62.81,109.07 -92.55,225.34 l 26.33,0.3 c 51.99,0.59 105.68,1.2 158.75,2.02 -13.99,-53.26 -27.21,-98.91 -39.33,-135.76 -17.71,-53.86 -29.68,-77.97 -36.61,-88.72 z" />
  <path
     id="Path 2"
     fill-rule="evenodd"
     class="shp0"
     d="M 996,498 C 996,773.03 773.04,996 498,996 222.96,996 0,773.03 0,498 0,222.96 222.96,0 498,0 773.04,0 996,222.96 996,498 Z M 865.82,486.61 c 0,-12.79 -9.01,-23.45 -21.15,-25.88 -0.07,-0.01 -0.14,-0.03 -0.22,-0.05 -0.14,-0.02 -0.28,-0.07 -0.42,-0.09 l -0.49,-0.05 c -1.29,-0.21 -2.6,-0.34 -3.94,-0.36 l -3.49,-0.33 c -83.41,-5.97 -169.22,-8.32 -249.72,-9.93 l -0.16,-0.59 C 547.05,302.37 498.11,152.12 432.12,152.12 c -61.49,0.28 -116.92,99 -164.79,293.48 -33.82,-0.43 -64.65,-0.9 -93.72,-1.4 -1.65,-0.03 -3.13,-0.04 -4.45,-0.04 -6.2,0 -9.23,0.26 -10.73,0.46 -16.37,2.9 -28.25,17.18 -28.25,33.97 0,17.12 12.78,31.8 29.43,34.2 l 0.34,0.35 h 91.7 c -8.51,38.91 -15.97,77.39 -22.2,114.46 l -2.73,16.32 -0.03,0.78 c 0.06,12.59 10.35,22.83 22.93,22.83 7.98,0 15.21,-4.16 19.34,-10.64 l 0.65,0.52 45.08,-144.27 h 217.14 c 16.59,62.68 33.8,127.4 56.54,188.14 12.16,32.48 40.63,108.55 88.21,108.93 h 0.54 c 73.64,0 102.34,-118.95 121.35,-197.69 4.08,-16.94 7.61,-31.57 10.94,-42.32 l 1.33,-4.44 h -0.01 c 0.32,-1.04 0.49,-2.14 0.49,-3.29 0,-6.3 -5.11,-11.41 -11.41,-11.41 -4.89,0 -9.05,3.07 -10.68,7.39 l -0.02,-0.01 -1.6,4.42 c -6.25,17.3 -12.03,33.66 -17.15,48.16 l -0.39,1.09 c -31.87,90.27 -46.42,131.47 -74.92,131.48 l -0.7,-0.01 -0.4,0.06 -0.71,-0.02 c -36.48,0 -70.83,-148.3 -83.76,-204.12 -2.24,-9.67 -4.29,-18.55 -6.18,-26.36 h 235.89 c 4.43,0 8.6,-1.11 12.26,-3.03 0.03,-0.01 0.05,-0.02 0.07,-0.03 0.37,-0.19 0.72,-0.41 1.08,-0.62 0.4,-0.23 0.79,-0.46 1.17,-0.71 0.19,-0.12 0.37,-0.25 0.55,-0.38 0.57,-0.39 1.12,-0.8 1.66,-1.24 0.04,-0.03 0.07,-0.06 0.11,-0.09 5.94,-4.87 9.73,-12.25 9.73,-20.43 z"
     sodipodi:nodetypes="sssssscccccccccccscsccccccsccccscsccccsscccccccccscscccccccs" />
</svg>
