<svg width="250" height="250" viewBox="0 0 250 250" fill="none" xmlns="http://www.w3.org/2000/svg">
<path d="M117.33 89.0652C117.208 88.8598 117.04 88.6868 116.838 88.561C116.636 88.4352 116.407 88.3602 116.17 88.3424C115.849 88.3579 115.54 88.4663 115.279 88.6544C111.998 91.3506 107.505 102.791 103.824 117.863L107.082 117.904C113.519 117.977 120.164 118.058 126.736 118.164C125 111.259 123.377 105.341 121.864 100.568C120.783 96.5754 119.262 92.7173 117.33 89.0652Z" fill="#007FD2"/>
<path d="M124.641 60C90.5977 60 63 88.9016 63 124.553C63 160.204 90.5977 189.1 124.641 189.1C158.684 189.1 186.282 160.201 186.282 124.553C186.282 88.9042 158.681 60 124.641 60ZM168.953 125.72L168.937 125.736C168.873 125.788 168.806 125.845 168.733 125.894L168.666 125.946L168.521 126.035C168.477 126.064 168.431 126.091 168.384 126.115C167.921 126.373 167.4 126.508 166.871 126.508H137.658C137.896 127.519 138.152 128.671 138.433 129.924C140.032 137.165 144.282 156.4 148.798 156.4H149.03C152.562 156.4 154.36 151.06 158.304 139.36L158.353 139.214C158.989 137.334 159.702 135.215 160.479 132.974L160.676 132.4C160.787 132.089 161.004 131.828 161.287 131.662C161.57 131.496 161.902 131.435 162.226 131.49C162.553 131.558 162.847 131.737 163.058 131.997C163.269 132.258 163.385 132.583 163.386 132.92C163.386 133.063 163.366 133.206 163.326 133.343L163.161 133.918C162.75 135.312 162.314 137.21 161.807 139.404C159.456 149.612 155.902 165.03 146.788 165.03H146.721C140.833 164.98 137.317 155.121 135.803 150.909C132.988 143.039 130.851 134.646 128.805 126.524H101.939L96.3586 145.212L96.2733 145.145C95.958 145.68 95.4746 146.095 94.8992 146.323C94.3239 146.551 93.6894 146.581 93.0958 146.406C92.4973 146.214 91.9753 145.835 91.6059 145.324C91.2365 144.813 91.0389 144.196 91.0421 143.564V143.463L91.3805 141.349C92.1555 136.547 93.0726 131.555 94.1292 126.513H82.8012L82.7599 126.469C81.7478 126.273 80.8334 125.733 80.1704 124.939C79.5074 124.145 79.1362 123.145 79.1192 122.108C79.1022 121.071 79.4405 120.06 80.0772 119.244C80.7138 118.428 81.6101 117.858 82.6152 117.629C83.0552 117.58 83.498 117.56 83.9405 117.572H84.4933C88.0919 117.637 91.9204 117.694 96.0925 117.749C102.008 92.5442 108.88 79.734 116.496 79.708C124.662 79.708 130.719 99.1846 135.566 118.235L135.586 118.313C145.553 118.523 156.173 118.833 166.496 119.613L166.93 119.654C167.095 119.659 167.26 119.674 167.424 119.699H167.563C168.183 119.837 168.751 120.15 169.2 120.602C169.649 121.054 169.96 121.625 170.097 122.249C170.243 122.878 170.213 123.535 170.011 124.147C169.809 124.76 169.443 125.304 168.953 125.72Z" fill="#007FD2"/>
</svg>
