<svg xmlns="http://www.w3.org/2000/svg" width="78.773" height="79.165"><path fill="#45b77b" fill-rule="evenodd" d="M63.877.064c-.33.047-1.275.26-2.1.472-.825.212-2.85.492-4.5.623-1.65.13-3.112.326-3.25.434-.404.317-.308 1.82.151 2.348.22.254.49.796.6 1.204.11.41.393.988.63 1.288.235.3.505.958.6 1.464.094.506.34 1.105.545 1.331.206.227.488.772.627 1.212.14.44.406 1.025.593 1.3.187.275.498.993.691 1.596.193.603.51 1.323.702 1.6.193.277.495.934.671 1.46.176.525.504 1.19.73 1.476.225.287.41.741.41 1.008 0 .517.3 1.188.717 1.606.14.14.394.733.564 1.318.17.585.494 1.276.72 1.537.225.26.461.704.522.986.241 1.096.51 1.791.778 2.014.154.128.418.706.586 1.284.168.58.48 1.272.69 1.541.212.268.485.863.61 1.322.123.46.335.951.471 1.093.333.35.742 1.298.742 1.722 0 .19.216.662.481 1.051.264.39.624 1.19.8 1.78.174.59.446 1.215.604 1.39.157.173.438.766.624 1.316s.496 1.225.688 1.5c.193.275.414.725.492 1 .078.275.4 1.04.715 1.7.315.66.621 1.431.68 1.713.057.282.29.726.516.987.226.261.466.705.534.987.067.282.425 1.09.794 1.793.37.704.672 1.427.672 1.606 0 .587 1.403 2.614 1.808 2.614.407 0 .79-.549.795-1.137.002-.2.131-.588.288-.863.806-1.415.91-1.865.905-3.974-.006-2.763-.515-10.014-.803-11.426-.123-.605-.305-3.62-.403-6.7-.158-4.954-.394-7.822-.682-8.287-.05-.082-.233-2.57-.404-5.53-.36-6.222-.399-6.508-1.03-7.6-.26-.45-.474-.953-.474-1.118 0-1.2-3.647-4.574-5.455-5.045-.605-.157-1.402-.442-1.77-.633-.668-.345-2.69-.535-3.875-.363m-30.7 6.497c-.825.094-1.725.27-2 .393-.275.123-1.94.312-3.7.421-1.76.11-3.965.363-4.9.564-2.025.435-4.36.728-7.93.996-1.449.108-3.024.327-3.5.485-.479.158-1.563.397-2.41.53-.847.133-1.702.388-1.9.566-.198.178-.765.517-1.26.752-1.093.52-3.294 2.486-3.733 3.335-.175.34-.442.741-.593.891-.15.151-.328.515-.394.81a50.032 50.032 0 0 1-.5 1.858c-.477 1.66-.477 2.084.004 5.278.215 1.43.488 3.493.607 4.584.12 1.091.306 2.092.415 2.224.11.131.29 1.22.4 2.416.256 2.805.373 3.67.731 5.376.413 1.974.85 5.048.857 6.037.003.461.231 1.766.506 2.9.275 1.135.505 2.513.511 3.063.012 1.08.37 3.416.842 5.5.163.715.355 1.975.428 2.8.201 2.276.551 4.662.735 5.02.091.175.264 1.12.386 2.1.323 2.61 1.114 3.457 1.51 1.616.074-.35.387-1.13.695-1.736.308-.605.888-1.82 1.29-2.7.402-.88.83-1.78.952-2 .642-1.156 2.151-4.418 2.151-4.649 0-.095.21-.457.465-.804.256-.347.59-1.017.74-1.489.15-.472.43-1.066.622-1.319.191-.254.494-.9.672-1.435.177-.535.448-1.077.601-1.204.153-.127.43-.687.615-1.244.185-.558.55-1.329.811-1.713.261-.384.474-.823.474-.974 0-.15.26-.746.578-1.322.32-.576.683-1.377.811-1.78.127-.405.362-.843.521-.975.16-.132.424-.694.588-1.249.165-.555.433-1.157.596-1.336.162-.18.435-.723.606-1.207.171-.484.445-1.029.61-1.21.165-.183.455-.772.646-1.31.19-.539.548-1.306.795-1.704.247-.398.45-.858.45-1.022 0-.164.234-.644.521-1.067a7.258 7.258 0 0 0 .786-1.647c.145-.483.392-1.027.547-1.209.156-.182.438-.736.627-1.23.19-.496.552-1.219.806-1.609.254-.389.524-.992.601-1.34.076-.348.3-.84.496-1.093.197-.252.48-.819.627-1.259.147-.44.48-1.093.74-1.45.258-.36.601-1.09.76-1.627.16-.536.41-1.075.556-1.196.146-.122.388-.605.536-1.074.15-.469.436-1.095.637-1.39.202-.295.503-.92.668-1.39.166-.469.434-.999.595-1.178.162-.178.415-.723.563-1.21a7.34 7.34 0 0 1 .801-1.663c.293-.428.532-.932.532-1.12 0-.188.264-.735.587-1.217.947-1.41.413-1.593-3.387-1.164"/><path fill="#f2981d" fill-rule="evenodd" d="M44.888 18.985c-.17.244-.313.536-.315.65-.002.113-.272.601-.6 1.085-.328.484-.596 1.055-.596 1.27 0 .213-.193.66-.428.99-.235.33-.58 1.091-.765 1.692-.186.6-.484 1.261-.66 1.47-.179.206-.437.764-.575 1.237a7.635 7.635 0 0 1-.685 1.566c-.24.388-.498.991-.575 1.341a3.35 3.35 0 0 1-.534 1.136c-.216.276-.562.991-.768 1.59-.206.6-.512 1.3-.68 1.558-.168.26-.455.92-.638 1.47-.183.55-.495 1.18-.694 1.4-.199.22-.462.777-.584 1.237-.122.46-.444 1.225-.716 1.7-.27.475-.494 1.008-.496 1.185 0 .177-.223.648-.493 1.046a6.269 6.269 0 0 0-.72 1.576c-.127.47-.39 1.078-.586 1.354-.196.276-.508.952-.694 1.502-.186.55-.467 1.143-.624 1.317-.158.174-.43.804-.608 1.4-.177.596-.479 1.308-.672 1.583-.192.275-.463.85-.602 1.277a7.015 7.015 0 0 1-.727 1.478c-.262.386-.476.883-.476 1.105 0 .223-.222.784-.494 1.248a11.631 11.631 0 0 0-.81 1.773c-.174.512-.536 1.255-.806 1.653-.269.397-.49.891-.49 1.098 0 .207-.224.715-.498 1.13-.274.413-.636 1.217-.805 1.785-.169.57-.432 1.16-.584 1.312-.153.152-.392.674-.532 1.16-.139.484-.428 1.135-.64 1.445-.214.311-.514.98-.666 1.486-.152.507-.41 1.07-.574 1.25-.164.18-.475.843-.692 1.472-.216.63-.577 1.378-.8 1.663-.225.286-.409.683-.409.883 0 .483-.394 1.387-.82 1.882-.589.682-.704 2.191-.195 2.547.51.356 1.973.163 3.452-.455.515-.216 1.134-.392 1.375-.392.241 0 .947-.258 1.57-.574.62-.316 1.441-.64 1.823-.72.382-.082 1.145-.397 1.695-.7.55-.306 1.3-.61 1.667-.679a3.587 3.587 0 0 0 1.2-.503c.293-.209.983-.515 1.533-.68.55-.166 1.463-.536 2.03-.822.565-.287 1.16-.522 1.32-.522.16 0 .704-.22 1.21-.489a11.075 11.075 0 0 1 1.78-.734c.473-.135 1.01-.373 1.193-.527.183-.155.897-.457 1.585-.67.69-.215 1.54-.568 1.891-.785.351-.217.808-.395 1.015-.396.207 0 1.001-.315 1.765-.7.763-.384 1.52-.699 1.682-.699.162 0 .673-.222 1.136-.493a7.445 7.445 0 0 1 1.817-.707c.537-.118 1.21-.383 1.495-.59.285-.207.991-.516 1.567-.687.577-.172 1.333-.485 1.681-.696a5.008 5.008 0 0 1 1.333-.525c.385-.078 1.06-.345 1.5-.595a10.04 10.04 0 0 1 1.6-.704 8.129 8.129 0 0 0 1.463-.652c.365-.22 1.13-.503 1.7-.629.85-.189 1.05-.314 1.103-.695.072-.5-.319-1.627-.563-1.627-.08 0-.299-.48-.484-1.067-.185-.588-.464-1.25-.62-1.476-.158-.224-.434-.846-.614-1.382-.18-.536-.453-1.117-.607-1.292-.154-.174-.428-.759-.609-1.3-.18-.54-.486-1.209-.678-1.485-.192-.276-.449-.872-.57-1.324-.123-.452-.406-1.055-.63-1.339-.223-.285-.579-1.018-.789-1.628-.21-.61-.523-1.312-.697-1.559-.173-.246-.405-.78-.515-1.189-.11-.408-.327-.868-.482-1.023-.155-.155-.437-.766-.627-1.359-.19-.592-.498-1.302-.686-1.577-.187-.275-.46-.86-.608-1.3-.147-.44-.456-1.07-.688-1.4-.232-.33-.539-1.005-.683-1.5-.143-.495-.43-1.139-.639-1.43-.207-.293-.376-.653-.374-.8.002-.149-.325-.945-.726-1.77a239.542 239.542 0 0 1-1.426-3l-1.303-2.8c-.333-.715-.852-1.84-1.153-2.5-.3-.66-.819-1.785-1.15-2.5-.332-.715-.669-1.525-.749-1.8-.305-1.053-.705-1.24-1.185-.555m.69 1.346c0 1.16.31 1.954.83 2.12.237.074.37.307.37.652.002.963.387 1.987.787 2.092.283.074.414.35.511 1.072.18 1.341.247 1.496.693 1.613.29.076.422.34.514 1.031.175 1.312.223 1.412.79 1.627.396.151.505.332.507.847.004 1.065.213 1.551.721 1.68.435.108.476.222.476 1.31 0 1.358.245 1.965.795 1.965.3 0 .41.197.52.923.087.59.345 1.16.711 1.576.316.36.574.884.574 1.164 0 .8.366 1.566.802 1.68.31.081.398.273.398.867 0 1.062.313 1.79.77 1.79.386 0 .623.772.628 2.05.001.413.1.55.395.55.49 0 .807.568.807 1.447 0 .747.295 1.153.84 1.153.296 0 .36.17.361.95 0 .95.576 2.25.996 2.25.112 0 .203.226.203.503 0 .837.47 2.068.823 2.161.217.057.381.393.47.962.215 1.38.31 1.585.824 1.781.412.156.483.315.483 1.088 0 .626.118 1.023.385 1.29.49.49.222.615-1.31.615-1.005 0-1.12.048-1.434.6-.312.546-.433.598-1.408.6-.998 0-1.082.038-1.29.59-.213.564-.29.595-1.769.724-1.46.128-1.559.167-1.784.711-.222.534-.316.575-1.332.575-1.03 0-1.106.034-1.319.6-.2.53-.322.6-1.033.602-1.538.004-2.328.227-2.553.72-.173.382-.42.488-1.385.598-1.015.114-1.19.196-1.292.606-.08.321-.263.474-.564.474-1.014 0-2.753.474-2.866.781-.169.46-.46.612-1.183.616-.975.005-1.663.335-1.663.798 0 .347-.13.405-.906.405-1.047 0-2.169.413-2.44.897-.13.233-.559.37-1.41.446-1.125.102-1.24.157-1.423.684-.19.545-.259.573-1.407.573-1.112 0-1.216.038-1.329.488-.124.494-.19.521-1.98.816-1.002.165-1.505.43-1.505.791 0 .201-.394.32-1.384.417-1.205.12-1.399.194-1.496.58-.1.4-.304.462-2.179.666-2.37.26-2.685.35-2.806.81-.049.182-.099.05-.112-.295-.017-.458.107-.712.462-.945.378-.247.515-.562.623-1.423.111-.892.21-1.105.508-1.105.504 0 .784-.597.784-1.673 0-.776.061-.908.443-.963.441-.064.461-.112.872-2.114.051-.247.228-.45.394-.45.354 0 .604-.584.794-1.852.11-.727.231-.938.594-1.029.406-.102.471-.277.596-1.617.131-1.393.175-1.502.601-1.502.513 0 .7-.435.703-1.645.003-.624.1-.795.603-1.055.543-.28.6-.403.6-1.294 0-.876.06-1.013.55-1.248.48-.229.572-.424.717-1.51.115-.856.256-1.248.448-1.248.343 0 .885-1.24.885-2.024 0-.439.093-.576.393-.576.56 0 .807-.597.807-1.943 0-1.104.032-1.18.574-1.386.507-.19.59-.344.711-1.323.108-.859.226-1.13.526-1.209.44-.115.511-.277.682-1.56.094-.708.232-.972.594-1.137.372-.169.502-.432.613-1.24.091-.665.311-1.209.625-1.548.533-.575.644-.919.722-2.246.046-.768.123-.908.553-1.008.432-.099.525-.27.682-1.257.147-.916.257-1.143.555-1.143.467 0 .763-.744.763-1.913 0-.748.061-.887.393-.887.476 0 .807-.563.807-1.37 0-.802.183-1.23.526-1.23.338 0 .59-.6.778-1.857.11-.736.224-.933.567-.982.375-.053.45-.244.598-1.512.15-1.28.223-1.465.631-1.567.502-.126.693-.589.697-1.687.002-.532.151-.836.603-1.232.483-.424.6-.686.6-1.345 0-.45.09-.818.2-.818.11 0 .2.446.2.991"/><path fill="#f18c12" fill-rule="evenodd" d="M45.177 20.158c0 .66-.117.921-.6 1.345-.452.396-.6.7-.603 1.232-.004 1.098-.195 1.561-.697 1.687-.408.102-.482.286-.63 1.567-.149 1.268-.224 1.46-.599 1.512-.343.05-.457.246-.567.982-.188 1.256-.44 1.857-.778 1.857-.343 0-.526.428-.526 1.23 0 .807-.33 1.37-.807 1.37-.332 0-.393.14-.393.887 0 1.17-.296 1.913-.763 1.913-.298 0-.408.227-.555 1.143-.157.986-.25 1.158-.682 1.257-.43.1-.507.24-.553 1.008-.078 1.327-.189 1.671-.722 2.246-.314.34-.534.883-.625 1.548-.11.808-.24 1.071-.613 1.24-.362.165-.5.43-.594 1.136-.17 1.284-.242 1.446-.682 1.561-.3.08-.418.35-.526 1.21-.122.978-.204 1.131-.71 1.322-.543.205-.575.282-.575 1.386 0 1.346-.248 1.943-.807 1.943-.3 0-.393.137-.393.576 0 .784-.542 2.024-.885 2.024-.192 0-.333.392-.448 1.248-.145 1.086-.238 1.281-.717 1.51-.49.235-.55.372-.55 1.248 0 .891-.057 1.013-.6 1.294-.503.26-.6.431-.603 1.055-.004 1.21-.19 1.645-.703 1.645-.426 0-.47.11-.6 1.502-.126 1.34-.19 1.515-.597 1.617-.363.091-.485.302-.594 1.03-.19 1.267-.44 1.851-.794 1.851-.166 0-.343.203-.394.45-.41 2.002-.43 2.05-.872 2.114-.382.055-.443.187-.443.963 0 1.076-.28 1.673-.784 1.673-.299 0-.397.213-.508 1.105-.108.861-.245 1.176-.623 1.423-.355.233-.479.487-.462.945.013.345.063.477.112.294.121-.459.435-.55 2.806-.809 1.875-.204 2.08-.267 2.18-.667.096-.385.29-.46 1.495-.579.99-.097 1.384-.216 1.384-.417 0-.36.503-.626 1.504-.79 1.791-.296 1.857-.323 1.981-.817.113-.45.217-.488 1.33-.488 1.147 0 1.215-.028 1.406-.573.183-.527.298-.582 1.422-.684.852-.077 1.28-.213 1.411-.446.271-.484 1.393-.897 2.44-.897.776 0 .906-.058.906-.405 0-.463.688-.793 1.663-.798.722-.004 1.014-.156 1.183-.616.113-.307 1.852-.78 2.866-.78.301 0 .483-.154.564-.475.102-.41.277-.492 1.292-.606.965-.11 1.212-.216 1.385-.598.225-.493 1.015-.716 2.553-.72.711-.002.833-.073 1.033-.602.213-.566.288-.6 1.32-.6 1.015 0 1.11-.04 1.331-.575.225-.544.323-.583 1.784-.71 1.48-.13 1.556-.16 1.77-.725.207-.552.291-.59 1.29-.59.974-.002 1.095-.054 1.407-.6.313-.552.43-.6 1.433-.6 1.533 0 1.8-.126 1.311-.615-.267-.267-.385-.664-.385-1.29 0-.773-.07-.932-.483-1.088-.514-.196-.609-.402-.824-1.78-.089-.57-.253-.906-.47-.963-.354-.093-.823-1.324-.823-2.16 0-.278-.09-.504-.203-.504-.42 0-.996-1.3-.996-2.25 0-.78-.065-.95-.36-.95-.546 0-.84-.406-.84-1.153 0-.879-.318-1.447-.808-1.447-.295 0-.394-.137-.395-.55-.005-1.278-.242-2.05-.629-2.05-.456 0-.769-.728-.769-1.79 0-.594-.088-.786-.398-.867-.436-.114-.802-.88-.802-1.68 0-.28-.258-.804-.574-1.164a3.135 3.135 0 0 1-.712-1.576c-.109-.726-.22-.923-.519-.923-.55 0-.795-.607-.795-1.965 0-1.088-.04-1.202-.476-1.31-.508-.129-.717-.615-.72-1.68-.003-.515-.112-.696-.509-.847-.566-.215-.614-.315-.789-1.627-.092-.69-.224-.955-.514-1.03-.446-.118-.513-.273-.693-1.614-.097-.723-.228-.998-.51-1.072-.4-.105-.786-1.129-.788-2.092 0-.345-.133-.578-.37-.653-.52-.165-.83-.96-.83-2.119 0-.545-.09-.99-.2-.99-.11 0-.2.367-.2.817"/></svg>