<svg id="svg" version="1.1" xmlns="http://www.w3.org/2000/svg" xmlns:xlink="http://www.w3.org/1999/xlink" width="400" height="200" viewBox="0, 0, 400,200"><g id="svgg"><path id="path0" d="M171.282 79.174 C 171.127 79.545,171.000 79.900,171.000 79.962 C 171.000 80.024,170.834 80.260,170.632 80.487 C 170.430 80.714,170.151 81.440,170.014 82.100 C 169.876 82.760,169.556 83.615,169.303 84.000 C 169.049 84.385,168.783 85.121,168.711 85.636 C 168.639 86.151,168.405 86.794,168.191 87.066 C 167.977 87.338,167.657 88.126,167.480 88.817 C 167.303 89.508,166.985 90.307,166.774 90.592 C 166.563 90.878,166.319 91.559,166.233 92.106 C 166.146 92.653,165.844 93.505,165.562 94.000 C 165.279 94.495,164.991 95.345,164.922 95.889 C 164.852 96.444,164.628 97.058,164.411 97.289 C 164.199 97.515,163.917 98.150,163.785 98.700 C 163.462 100.049,163.182 100.800,163.002 100.800 C 162.863 100.800,162.599 101.659,162.296 103.100 C 162.227 103.430,161.997 103.886,161.785 104.113 C 161.573 104.340,161.305 105.060,161.189 105.713 C 161.072 106.366,160.800 107.147,160.584 107.449 C 160.367 107.750,160.101 108.470,159.993 109.049 C 159.884 109.627,159.602 110.363,159.366 110.685 C 159.130 111.006,158.820 111.827,158.677 112.508 C 158.534 113.189,158.189 114.177,157.909 114.703 C 157.629 115.229,157.400 115.877,157.400 116.143 C 157.400 116.664,157.099 117.330,156.669 117.760 C 156.521 117.907,156.354 118.269,156.297 118.564 C 156.010 120.050,155.751 120.924,155.516 121.197 C 154.021 122.940,154.579 123.200,159.808 123.200 L 164.336 123.200 164.568 122.691 C 164.696 122.410,164.800 121.928,164.800 121.618 C 164.800 121.308,164.984 120.820,165.209 120.533 C 165.435 120.247,165.754 119.367,165.918 118.577 C 166.083 117.787,166.384 116.930,166.586 116.672 C 166.789 116.414,167.012 115.897,167.083 115.522 C 167.318 114.265,167.017 114.306,176.629 114.242 C 186.151 114.179,186.012 114.164,186.493 115.314 C 186.654 115.699,186.912 116.141,187.067 116.295 C 187.222 116.450,187.444 117.223,187.561 118.012 C 187.697 118.927,187.917 119.601,188.167 119.873 C 188.383 120.108,188.669 120.840,188.802 121.500 C 188.935 122.160,189.135 122.813,189.246 122.950 C 189.549 123.323,198.462 123.308,198.772 122.934 C 199.020 122.635,198.406 120.051,198.032 119.820 C 197.752 119.647,197.400 118.684,197.400 118.090 C 197.400 117.824,197.130 117.087,196.800 116.453 C 196.470 115.819,196.121 114.869,196.024 114.343 C 195.928 113.816,195.720 113.231,195.563 113.043 C 195.131 112.524,194.800 111.647,194.800 111.018 C 194.800 110.709,194.583 110.136,194.318 109.745 C 194.053 109.354,193.732 108.537,193.606 107.929 C 193.480 107.322,193.213 106.616,193.014 106.362 C 192.814 106.108,192.536 105.360,192.397 104.700 C 192.258 104.040,191.941 103.185,191.693 102.800 C 191.446 102.415,191.181 101.740,191.104 101.300 C 191.028 100.860,190.703 99.961,190.383 99.303 C 190.062 98.645,189.800 97.888,189.800 97.621 C 189.800 97.354,189.585 96.767,189.323 96.318 C 189.060 95.868,188.700 94.929,188.522 94.230 C 188.344 93.532,188.027 92.743,187.817 92.477 C 187.608 92.210,187.372 91.526,187.294 90.955 C 187.215 90.384,186.943 89.599,186.689 89.209 C 186.435 88.819,186.166 88.140,186.091 87.700 C 186.016 87.260,185.751 86.540,185.502 86.100 C 185.253 85.660,184.945 84.807,184.817 84.205 C 184.689 83.602,184.418 82.927,184.215 82.705 C 184.011 82.482,183.705 81.678,183.534 80.917 C 182.997 78.518,183.169 78.579,176.876 78.536 L 171.563 78.500 171.282 79.174 M205.431 78.700 C 205.181 79.082,205.170 122.623,205.420 122.924 C 205.730 123.297,214.495 123.332,214.724 122.962 C 214.805 122.830,214.848 119.913,214.820 116.478 C 214.768 110.215,214.824 109.591,215.480 109.153 C 215.601 109.072,218.400 109.003,221.700 108.998 C 225.261 108.994,228.025 108.904,228.500 108.779 C 228.940 108.662,229.705 108.494,230.200 108.406 C 232.714 107.957,233.535 107.735,233.900 107.407 C 234.120 107.210,234.655 106.925,235.089 106.774 C 235.972 106.468,236.193 106.300,237.900 104.631 C 239.409 103.157,240.000 102.442,240.000 102.090 C 240.000 101.938,240.282 101.493,240.626 101.101 C 241.030 100.640,241.344 99.983,241.511 99.244 C 241.653 98.615,241.932 97.695,242.130 97.200 C 242.645 95.914,242.644 91.878,242.127 90.600 C 241.927 90.105,241.647 89.135,241.505 88.445 C 241.329 87.591,241.088 87.042,240.750 86.729 C 240.477 86.476,240.147 85.946,240.017 85.552 C 239.887 85.158,239.653 84.786,239.497 84.726 C 239.340 84.666,239.079 84.298,238.917 83.909 C 238.754 83.519,238.529 83.200,238.417 83.200 C 238.305 83.200,237.896 82.908,237.509 82.550 C 235.935 81.098,235.522 80.803,234.893 80.685 C 234.531 80.618,234.064 80.403,233.856 80.209 C 233.361 79.748,232.402 79.459,230.800 79.290 C 230.085 79.215,229.185 79.030,228.800 78.881 C 227.923 78.540,205.648 78.368,205.431 78.700 M249.431 78.700 C 249.181 79.082,249.170 122.623,249.420 122.924 C 249.756 123.329,258.445 123.328,258.781 122.923 C 259.011 122.645,259.030 78.961,258.800 78.735 C 258.594 78.534,249.562 78.500,249.431 78.700 M283.146 78.550 L 267.993 78.603 267.597 79.251 C 267.209 79.887,267.201 80.333,267.201 101.318 L 267.200 122.736 267.709 122.968 C 268.796 123.463,276.375 123.275,276.496 122.750 C 276.552 122.503,276.622 119.085,276.649 115.155 C 276.700 108.019,276.701 108.010,277.155 107.555 L 277.611 107.100 286.398 107.042 L 295.185 106.984 295.319 106.267 C 295.484 105.389,295.310 100.044,295.111 99.844 C 295.032 99.765,290.969 99.674,286.083 99.642 L 277.199 99.584 276.891 99.114 C 276.463 98.462,276.539 87.254,276.974 86.730 C 277.224 86.431,278.258 86.400,288.131 86.400 C 298.306 86.400,299.022 86.377,299.156 86.050 C 299.235 85.858,299.300 84.144,299.300 82.243 C 299.300 78.733,299.207 78.290,298.500 78.452 C 298.390 78.477,291.481 78.521,283.146 78.550 M306.164 78.502 C 305.993 78.674,306.159 79.147,306.633 79.831 C 306.835 80.123,307.000 80.493,307.000 80.653 C 307.000 80.813,307.314 81.339,307.698 81.822 C 308.082 82.305,308.397 82.806,308.398 82.935 C 308.399 83.064,308.619 83.430,308.887 83.748 C 309.155 84.066,309.525 84.703,309.709 85.163 C 309.893 85.624,310.113 86.000,310.197 86.000 C 310.282 86.000,310.536 86.428,310.763 86.950 C 310.989 87.473,311.355 88.052,311.577 88.239 C 311.798 88.425,312.076 88.941,312.196 89.385 C 312.316 89.830,312.580 90.282,312.784 90.391 C 312.987 90.500,313.207 90.802,313.272 91.062 C 313.338 91.321,313.657 91.868,313.982 92.277 C 314.307 92.686,314.630 93.279,314.699 93.596 C 314.768 93.912,315.022 94.300,315.263 94.457 C 315.503 94.615,315.826 95.094,315.980 95.522 C 316.134 95.950,316.419 96.413,316.614 96.550 C 316.809 96.688,317.023 97.050,317.090 97.356 C 317.157 97.661,317.479 98.224,317.806 98.606 C 318.132 98.988,318.399 99.445,318.400 99.622 C 318.400 99.800,318.672 100.287,319.005 100.706 C 319.337 101.124,319.664 101.699,319.732 101.983 C 319.799 102.267,320.112 102.758,320.427 103.074 C 320.742 103.389,321.000 103.765,321.000 103.908 C 321.000 104.052,321.248 104.463,321.550 104.823 L 322.100 105.476 322.156 114.075 C 322.194 119.914,322.283 122.758,322.431 122.937 C 322.731 123.299,331.400 123.320,331.760 122.960 C 331.939 122.781,332.000 120.599,332.000 114.375 L 332.000 106.031 332.473 105.465 C 332.733 105.154,333.011 104.692,333.090 104.437 C 333.170 104.182,333.485 103.687,333.791 103.337 C 334.096 102.987,334.414 102.481,334.498 102.214 C 334.582 101.946,334.909 101.370,335.225 100.934 C 335.541 100.497,335.800 100.018,335.800 99.868 C 335.800 99.718,335.985 99.439,336.211 99.248 C 336.437 99.057,336.783 98.540,336.982 98.100 C 337.180 97.660,337.535 97.129,337.771 96.919 C 338.007 96.709,338.200 96.379,338.200 96.184 C 338.200 95.990,338.412 95.576,338.672 95.265 C 338.931 94.954,339.304 94.385,339.500 94.000 C 339.696 93.615,340.069 93.046,340.328 92.735 C 340.588 92.424,340.800 92.044,340.800 91.892 C 340.800 91.739,341.058 91.318,341.373 90.957 C 341.688 90.596,342.014 90.075,342.096 89.800 C 342.178 89.525,342.411 89.119,342.613 88.897 C 342.816 88.676,343.114 88.181,343.276 87.797 C 343.439 87.414,343.758 86.943,343.986 86.752 C 344.214 86.561,344.400 86.226,344.400 86.009 C 344.400 85.792,344.658 85.318,344.973 84.957 C 345.288 84.596,345.607 84.105,345.681 83.868 C 345.755 83.630,346.082 83.100,346.408 82.690 C 346.734 82.280,347.000 81.794,347.000 81.610 C 347.000 81.426,347.274 81.012,347.609 80.691 C 348.397 79.937,348.424 78.490,347.650 78.514 C 347.403 78.522,345.368 78.545,343.130 78.564 L 339.060 78.600 338.380 79.634 C 338.006 80.202,337.573 80.900,337.418 81.184 C 336.790 82.331,336.208 83.290,335.662 84.072 C 335.421 84.417,335.053 85.062,334.843 85.504 C 334.634 85.947,334.331 86.442,334.170 86.604 C 333.867 86.910,333.420 87.702,332.477 89.600 C 332.177 90.205,331.767 90.818,331.565 90.961 C 331.364 91.105,331.200 91.339,331.200 91.481 C 331.200 91.851,330.601 93.000,330.407 93.000 C 330.318 93.000,330.045 93.428,329.802 93.950 C 329.558 94.473,329.225 95.051,329.061 95.236 C 328.897 95.421,328.614 95.871,328.431 96.236 C 328.249 96.600,327.933 96.930,327.728 96.968 C 327.294 97.049,325.800 95.683,325.800 95.205 C 325.800 95.032,325.543 94.578,325.230 94.196 C 324.916 93.813,324.552 93.172,324.421 92.771 C 324.290 92.370,323.971 91.795,323.711 91.493 C 323.451 91.191,323.189 90.693,323.127 90.387 C 323.066 90.082,322.799 89.622,322.533 89.366 C 322.267 89.110,321.996 88.667,321.929 88.383 C 321.863 88.099,321.537 87.524,321.205 87.106 C 320.872 86.687,320.597 86.200,320.594 86.022 C 320.591 85.845,320.321 85.346,319.994 84.914 C 319.667 84.482,319.400 83.977,319.400 83.792 C 319.400 83.607,319.124 83.107,318.786 82.682 C 318.448 82.257,318.121 81.657,318.060 81.348 C 317.998 81.039,317.789 80.701,317.595 80.597 C 317.402 80.494,317.076 80.002,316.872 79.505 L 316.500 78.601 312.100 78.599 C 309.680 78.597,307.385 78.544,307.000 78.480 C 306.615 78.417,306.239 78.427,306.164 78.502 M228.970 86.413 C 230.662 87.102,233.000 89.003,233.000 89.689 C 233.000 89.843,233.238 90.252,233.529 90.597 C 234.357 91.582,234.419 97.000,233.602 97.000 C 233.515 97.000,233.260 97.392,233.035 97.870 C 232.500 99.008,230.892 100.550,229.976 100.802 C 229.578 100.912,228.995 101.204,228.681 101.451 C 227.825 102.124,216.199 102.287,215.395 101.637 L 214.900 101.236 214.835 94.668 C 214.735 84.558,214.007 85.532,221.570 85.646 L 227.300 85.732 228.970 86.413 M177.342 88.250 C 177.447 88.388,177.655 88.815,177.805 89.200 C 177.955 89.585,178.162 89.958,178.265 90.028 C 178.369 90.099,178.578 90.815,178.730 91.619 C 178.883 92.428,179.173 93.264,179.379 93.491 C 179.584 93.717,179.865 94.526,180.006 95.300 C 180.147 96.070,180.460 97.060,180.702 97.500 C 180.945 97.940,181.202 98.746,181.274 99.292 C 181.345 99.838,181.619 100.603,181.882 100.992 C 182.159 101.403,182.456 102.279,182.591 103.082 C 182.719 103.842,182.953 104.715,183.111 105.022 C 184.052 106.841,183.549 107.000,176.860 107.000 C 170.904 107.000,170.291 106.888,170.509 105.844 C 171.066 103.177,171.387 102.008,171.700 101.514 C 171.844 101.287,172.078 100.560,172.219 99.900 C 172.361 99.240,172.639 98.475,172.839 98.200 C 173.038 97.925,173.338 97.040,173.507 96.234 C 173.675 95.427,173.956 94.548,174.131 94.281 C 174.307 94.013,174.574 93.201,174.726 92.477 C 174.878 91.753,175.172 90.945,175.378 90.682 C 175.585 90.419,175.818 89.867,175.895 89.455 C 176.149 88.102,176.809 87.552,177.342 88.250 " stroke="none" fill="#0c1f5f" fill-rule="evenodd"></path><path id="path1" d="M0.000 100.000 L 0.000 200.000 200.000 200.000 L 400.000 200.000 400.000 100.000 L 400.000 0.000 200.000 0.000 L 0.000 0.000 0.000 100.000 M117.374 60.887 C 117.743 61.078,118.540 61.363,119.145 61.520 C 120.953 61.991,124.600 65.364,124.600 66.565 C 124.600 66.730,124.813 67.233,125.073 67.682 C 125.705 68.775,125.744 69.061,126.104 75.282 C 126.275 78.242,126.457 80.731,126.508 80.813 C 126.796 81.278,127.032 84.146,127.190 89.100 C 127.288 92.180,127.470 95.195,127.593 95.800 C 127.881 97.212,128.390 104.463,128.396 107.226 C 128.400 109.335,128.297 109.785,127.491 111.200 C 127.334 111.475,127.205 111.863,127.203 112.063 C 127.198 112.651,126.815 113.200,126.408 113.200 C 126.003 113.200,124.600 111.173,124.600 110.586 C 124.600 110.407,124.298 109.684,123.928 108.980 C 123.559 108.276,123.201 107.469,123.134 107.187 C 123.066 106.905,122.826 106.461,122.600 106.200 C 122.374 105.939,122.141 105.495,122.083 105.213 C 122.025 104.931,121.719 104.160,121.404 103.500 C 121.089 102.840,120.767 102.075,120.689 101.800 C 120.611 101.525,120.390 101.075,120.197 100.800 C 120.005 100.525,119.695 99.850,119.509 99.300 C 119.323 98.750,119.042 98.157,118.885 97.983 C 118.727 97.809,118.455 97.184,118.280 96.594 C 118.105 96.004,117.745 95.204,117.481 94.814 C 117.216 94.425,117.000 93.952,117.000 93.763 C 117.000 93.339,116.591 92.390,116.258 92.041 C 116.122 91.899,115.910 91.407,115.786 90.948 C 115.662 90.489,115.389 89.894,115.177 89.626 C 114.966 89.357,114.655 88.664,114.487 88.085 C 114.319 87.507,114.055 86.929,113.901 86.801 C 113.632 86.578,113.364 85.883,113.123 84.787 C 113.062 84.505,112.826 84.061,112.600 83.801 C 112.375 83.540,112.051 82.849,111.881 82.264 C 111.711 81.679,111.457 81.086,111.317 80.946 C 110.900 80.528,110.600 79.857,110.600 79.340 C 110.600 79.073,110.415 78.619,110.190 78.332 C 109.964 78.045,109.636 77.381,109.460 76.855 C 109.284 76.330,108.982 75.673,108.789 75.396 C 108.596 75.119,108.280 74.399,108.087 73.796 C 107.894 73.193,107.583 72.475,107.396 72.200 C 107.209 71.925,106.942 71.340,106.803 70.900 C 106.664 70.460,106.382 69.915,106.176 69.688 C 105.971 69.462,105.725 68.863,105.630 68.357 C 105.536 67.851,105.266 67.192,105.030 66.893 C 104.794 66.593,104.511 66.014,104.401 65.605 C 104.291 65.197,104.021 64.655,103.801 64.401 C 103.342 63.872,103.246 62.370,103.650 62.053 C 103.788 61.945,105.250 61.749,106.900 61.619 C 108.550 61.488,110.575 61.208,111.400 60.996 C 114.049 60.315,116.193 60.276,117.374 60.887 M86.563 67.055 C 86.719 67.243,86.619 67.543,86.187 68.185 C 85.864 68.667,85.600 69.214,85.600 69.402 C 85.600 69.590,85.361 70.094,85.068 70.522 C 84.776 70.950,84.415 71.698,84.267 72.185 C 84.119 72.672,83.866 73.217,83.704 73.395 C 83.543 73.574,83.275 74.104,83.109 74.573 C 82.944 75.042,82.643 75.668,82.441 75.963 C 82.240 76.258,81.953 76.884,81.804 77.353 C 81.656 77.822,81.414 78.305,81.268 78.427 C 81.121 78.548,80.871 79.087,80.712 79.623 C 80.553 80.159,80.210 80.890,79.951 81.249 C 79.692 81.607,79.359 82.260,79.212 82.700 C 79.064 83.140,78.782 83.707,78.585 83.959 C 78.389 84.212,78.165 84.704,78.089 85.052 C 78.012 85.400,77.742 86.003,77.488 86.392 C 77.234 86.782,76.871 87.505,76.682 88.000 C 76.493 88.495,76.211 89.049,76.055 89.231 C 75.900 89.413,75.653 89.957,75.508 90.440 C 75.363 90.922,75.009 91.664,74.722 92.087 C 74.435 92.510,74.200 92.990,74.200 93.154 C 74.200 93.318,73.998 93.778,73.751 94.176 C 73.504 94.574,73.146 95.341,72.956 95.879 C 72.765 96.418,72.475 97.007,72.310 97.189 C 72.145 97.371,71.871 97.916,71.700 98.400 C 71.529 98.884,71.256 99.427,71.094 99.607 C 70.931 99.786,70.663 100.388,70.498 100.943 C 70.334 101.498,70.069 102.060,69.910 102.192 C 69.751 102.324,69.516 102.762,69.389 103.166 C 69.261 103.570,68.897 104.371,68.578 104.947 C 68.260 105.523,68.000 106.118,68.000 106.269 C 68.000 106.420,67.787 106.859,67.526 107.243 C 67.265 107.627,66.900 108.398,66.715 108.956 C 66.530 109.513,66.253 110.073,66.100 110.200 C 65.947 110.327,65.676 110.869,65.499 111.404 C 65.321 111.939,65.018 112.585,64.827 112.839 C 64.635 113.092,64.355 113.686,64.204 114.158 C 64.054 114.630,63.721 115.300,63.465 115.647 C 63.209 115.994,63.000 116.356,63.000 116.451 C 63.000 116.682,61.491 119.944,60.849 121.100 C 60.727 121.320,60.299 122.220,59.897 123.100 C 59.495 123.980,58.915 125.195,58.607 125.800 C 58.299 126.405,57.986 127.186,57.911 127.536 C 57.516 129.377,56.725 128.530,56.402 125.919 C 56.280 124.940,56.107 123.995,56.016 123.819 C 55.832 123.462,55.482 121.076,55.281 118.800 C 55.208 117.975,55.016 116.715,54.853 116.000 C 54.381 113.916,54.023 111.579,54.011 110.500 C 54.005 109.950,53.775 108.572,53.500 107.437 C 53.225 106.303,52.997 104.998,52.994 104.537 C 52.986 103.548,52.550 100.474,52.137 98.500 C 51.779 96.793,51.662 95.929,51.405 93.124 C 51.295 91.927,51.116 90.839,51.006 90.708 C 50.897 90.576,50.710 89.575,50.591 88.484 C 50.472 87.393,50.199 85.330,49.984 83.900 C 49.503 80.706,49.503 80.281,49.980 78.622 C 50.188 77.895,50.413 77.059,50.480 76.764 C 50.546 76.469,50.724 76.105,50.874 75.954 C 51.025 75.804,51.292 75.403,51.467 75.063 C 51.906 74.214,54.107 72.248,55.200 71.728 C 55.695 71.493,56.262 71.154,56.460 70.976 C 56.658 70.798,57.513 70.543,58.360 70.410 C 59.207 70.277,60.291 70.038,60.769 69.880 C 61.246 69.722,62.821 69.503,64.269 69.395 C 67.840 69.127,70.175 68.834,72.200 68.399 C 73.135 68.198,75.340 67.944,77.100 67.835 C 78.860 67.726,80.525 67.537,80.800 67.414 C 81.905 66.921,86.228 66.652,86.563 67.055 M183.091 78.450 C 183.412 78.731,183.713 79.321,183.892 80.022 C 184.051 80.639,184.356 81.449,184.570 81.822 C 184.785 82.195,185.061 82.982,185.183 83.572 C 185.305 84.161,185.582 84.868,185.797 85.142 C 186.013 85.416,186.248 85.969,186.319 86.370 C 186.389 86.772,186.699 87.685,187.007 88.400 C 187.315 89.115,187.632 90.060,187.711 90.500 C 187.790 90.940,188.021 91.536,188.224 91.825 C 188.427 92.114,188.728 92.871,188.893 93.506 C 189.059 94.141,189.342 94.886,189.522 95.162 C 189.702 95.437,189.975 96.199,190.128 96.855 C 190.281 97.511,190.572 98.284,190.775 98.574 C 190.978 98.863,191.261 99.595,191.403 100.200 C 191.545 100.805,191.828 101.622,192.032 102.015 C 192.236 102.408,192.539 103.251,192.706 103.889 C 192.872 104.527,193.175 105.286,193.379 105.575 C 193.584 105.864,193.816 106.486,193.894 106.957 C 193.973 107.428,194.299 108.304,194.619 108.903 C 194.938 109.502,195.200 110.206,195.200 110.468 C 195.200 110.730,195.462 111.435,195.782 112.035 C 196.102 112.635,196.428 113.548,196.505 114.065 C 196.583 114.582,196.813 115.217,197.017 115.476 C 197.221 115.735,197.489 116.386,197.612 116.924 C 197.736 117.461,198.052 118.350,198.314 118.900 C 198.577 119.450,198.893 120.304,199.016 120.798 C 199.140 121.292,199.404 121.925,199.604 122.205 C 199.954 122.698,199.954 122.731,199.594 123.207 L 199.223 123.700 194.242 123.700 C 188.799 123.700,188.736 123.687,188.521 122.541 C 188.454 122.187,188.173 121.471,187.897 120.951 C 187.620 120.431,187.338 119.577,187.271 119.053 C 187.203 118.529,186.977 117.785,186.767 117.400 C 186.557 117.015,186.266 116.295,186.121 115.800 L 185.856 114.900 176.798 114.900 L 167.741 114.900 167.392 116.175 C 167.200 116.876,166.952 117.506,166.840 117.575 C 166.728 117.644,166.504 118.331,166.342 119.100 C 166.180 119.870,165.811 120.963,165.523 121.529 C 165.236 122.095,165.000 122.692,165.000 122.855 C 165.000 123.603,164.467 123.698,159.887 123.766 C 155.153 123.837,154.699 123.766,154.487 122.918 C 154.360 122.414,154.807 120.881,155.298 120.131 C 155.462 119.881,155.688 119.187,155.800 118.588 C 155.913 117.990,156.182 117.258,156.398 116.963 C 156.615 116.668,156.887 116.003,157.003 115.486 C 157.119 114.969,157.429 114.086,157.693 113.523 C 157.956 112.960,158.237 112.140,158.317 111.700 C 158.397 111.260,158.677 110.575,158.939 110.178 C 159.201 109.781,159.471 109.106,159.538 108.678 C 159.604 108.250,159.907 107.360,160.211 106.700 C 160.514 106.040,160.828 105.185,160.907 104.800 C 160.986 104.415,161.262 103.695,161.519 103.200 C 161.776 102.705,162.089 101.805,162.215 101.200 C 162.342 100.595,162.572 99.956,162.727 99.779 C 162.882 99.603,163.176 98.857,163.380 98.123 C 163.583 97.388,163.883 96.632,164.046 96.443 C 164.210 96.255,164.497 95.470,164.686 94.700 C 164.875 93.930,165.157 93.159,165.313 92.986 C 165.469 92.813,165.686 92.202,165.795 91.628 C 165.904 91.054,166.213 90.205,166.481 89.742 C 166.750 89.279,167.035 88.540,167.114 88.100 C 167.193 87.660,167.514 86.815,167.829 86.222 C 168.143 85.629,168.400 84.981,168.400 84.781 C 168.400 84.362,168.771 83.435,169.113 83.000 C 169.243 82.835,169.457 82.205,169.590 81.600 C 169.895 80.203,170.200 79.400,170.424 79.400 C 170.521 79.400,170.600 79.307,170.600 79.193 C 170.600 79.079,170.745 78.764,170.923 78.493 L 171.246 78.000 176.912 78.000 C 182.502 78.000,182.585 78.006,183.091 78.450 M230.100 78.419 C 230.870 78.643,231.905 78.903,232.400 78.997 C 233.582 79.220,234.016 79.387,234.500 79.805 C 234.720 79.995,235.230 80.256,235.634 80.385 C 236.037 80.515,236.512 80.841,236.688 81.110 C 236.865 81.380,237.108 81.600,237.230 81.600 C 237.351 81.600,237.887 82.073,238.422 82.650 C 239.880 84.225,239.998 84.372,240.451 85.166 C 240.681 85.570,241.011 86.067,241.184 86.270 C 241.491 86.632,242.121 88.282,242.721 90.300 C 243.202 91.916,243.038 97.212,242.470 98.400 C 242.233 98.895,241.927 99.660,241.790 100.100 C 241.653 100.540,241.284 101.213,240.970 101.596 C 240.657 101.978,240.400 102.396,240.400 102.525 C 240.400 102.653,240.177 102.970,239.903 103.229 C 239.630 103.488,239.405 103.786,239.403 103.892 C 239.400 104.059,238.606 104.849,236.800 106.479 C 236.525 106.728,235.985 107.054,235.600 107.204 C 235.215 107.355,234.675 107.637,234.400 107.832 C 234.125 108.027,233.454 108.284,232.909 108.403 C 232.364 108.522,231.644 108.741,231.309 108.889 C 230.974 109.036,230.520 109.230,230.300 109.319 C 230.080 109.408,226.660 109.530,222.700 109.590 L 215.500 109.700 215.400 116.344 C 215.311 122.278,215.263 123.031,214.952 123.394 C 214.392 124.047,205.820 124.020,205.208 123.362 C 204.703 122.820,204.548 79.198,205.048 78.397 C 205.439 77.771,227.942 77.791,230.100 78.419 M259.034 78.331 C 259.634 78.874,259.601 122.799,259.000 123.400 C 258.624 123.776,258.336 123.800,254.150 123.797 C 249.519 123.794,249.406 123.778,249.030 123.063 C 248.699 122.434,248.701 79.236,249.032 78.509 L 249.264 78.000 253.966 78.000 C 258.061 78.000,258.716 78.043,259.034 78.331 M299.700 78.315 C 300.281 78.754,300.319 85.967,299.743 86.543 C 299.412 86.874,298.592 86.908,288.343 87.010 C 282.269 87.070,277.278 87.138,277.250 87.160 C 277.223 87.182,277.200 89.812,277.200 93.005 L 277.200 98.810 277.713 99.005 C 278.017 99.121,281.672 99.200,286.682 99.200 C 296.991 99.200,295.849 98.651,295.763 103.560 C 295.676 108.547,296.808 108.000,286.578 108.000 C 280.660 108.000,278.070 108.068,277.709 108.232 L 277.200 108.464 277.200 115.718 L 277.200 122.971 276.652 123.402 C 275.770 124.095,267.562 123.944,266.979 123.224 C 266.380 122.484,266.479 79.086,267.081 78.421 L 267.462 78.000 283.381 78.006 C 297.267 78.012,299.351 78.051,299.700 78.315 M316.834 78.331 C 317.035 78.513,317.200 78.752,317.200 78.862 C 317.200 78.972,317.425 79.357,317.700 79.718 C 317.975 80.078,318.651 81.251,319.202 82.323 C 319.752 83.395,320.323 84.413,320.471 84.586 C 320.618 84.759,320.940 85.328,321.187 85.850 C 321.434 86.373,321.700 86.800,321.778 86.800 C 321.856 86.800,322.038 87.138,322.184 87.550 C 322.329 87.963,322.613 88.481,322.814 88.703 C 323.016 88.924,323.329 89.464,323.510 89.903 C 323.690 90.341,323.999 90.880,324.195 91.100 C 324.390 91.320,324.656 91.830,324.786 92.234 C 324.915 92.638,325.165 93.088,325.343 93.234 C 325.520 93.380,325.829 93.870,326.029 94.321 C 326.229 94.773,326.704 95.481,327.084 95.896 L 327.774 96.650 328.087 95.900 C 328.259 95.488,328.400 95.088,328.400 95.010 C 328.400 94.933,328.625 94.658,328.900 94.400 C 329.175 94.142,329.400 93.788,329.400 93.615 C 329.401 93.442,329.668 92.988,329.994 92.606 C 330.321 92.224,330.641 91.668,330.707 91.370 C 330.772 91.071,330.969 90.709,331.145 90.564 C 331.321 90.419,331.670 89.836,331.922 89.268 C 332.173 88.701,332.471 88.180,332.584 88.110 C 332.696 88.040,332.961 87.594,333.172 87.118 C 333.382 86.641,333.655 86.190,333.778 86.114 C 333.901 86.038,334.181 85.582,334.400 85.100 C 334.619 84.618,334.897 84.164,335.016 84.090 C 335.135 84.016,335.409 83.546,335.623 83.046 C 335.838 82.545,336.173 81.992,336.368 81.818 C 336.563 81.643,336.846 81.185,336.998 80.800 C 337.149 80.415,337.459 79.858,337.687 79.562 C 337.914 79.267,338.262 78.794,338.459 78.512 L 338.819 78.000 343.596 78.000 C 349.093 78.000,350.244 78.251,349.100 79.200 C 348.935 79.337,348.800 79.605,348.800 79.796 C 348.800 79.987,348.486 80.539,348.102 81.022 C 347.718 81.505,347.403 82.006,347.402 82.135 C 347.401 82.264,347.191 82.624,346.935 82.935 C 346.679 83.246,346.266 83.928,346.017 84.450 C 345.768 84.973,345.498 85.400,345.418 85.400 C 345.337 85.400,345.068 85.850,344.819 86.400 C 344.571 86.950,344.296 87.400,344.208 87.400 C 344.121 87.400,343.854 87.828,343.615 88.350 C 343.375 88.873,342.982 89.583,342.740 89.928 C 342.196 90.704,341.617 91.659,341.126 92.588 C 340.920 92.978,340.590 93.410,340.392 93.548 C 340.194 93.687,339.977 94.050,339.910 94.356 C 339.843 94.661,339.521 95.224,339.194 95.606 C 338.868 95.988,338.600 96.435,338.599 96.600 C 338.597 96.765,338.282 97.295,337.898 97.778 C 337.514 98.261,337.200 98.768,337.200 98.904 C 337.200 99.040,337.054 99.272,336.877 99.419 C 336.699 99.567,336.328 100.163,336.053 100.744 C 335.778 101.325,335.483 101.800,335.398 101.800 C 335.313 101.800,335.106 102.143,334.939 102.561 C 334.771 102.980,334.490 103.442,334.313 103.589 C 334.137 103.735,333.841 104.180,333.657 104.578 C 333.472 104.975,333.136 105.555,332.910 105.866 C 332.514 106.413,332.498 106.725,332.447 114.766 C 332.395 122.948,332.386 123.106,331.975 123.450 C 331.405 123.926,322.928 123.984,322.288 123.516 C 321.917 123.245,321.896 122.853,321.800 114.666 L 321.700 106.100 321.150 105.381 C 320.848 104.986,320.600 104.561,320.600 104.438 C 320.600 104.315,320.344 103.918,320.030 103.557 C 319.717 103.196,319.404 102.667,319.335 102.383 C 319.266 102.099,318.937 101.524,318.605 101.106 C 318.272 100.687,318.000 100.239,318.000 100.110 C 318.000 99.981,317.825 99.688,317.611 99.458 C 317.397 99.229,317.084 98.709,316.914 98.303 C 316.744 97.896,316.385 97.303,316.117 96.983 C 315.848 96.664,315.566 96.199,315.491 95.951 C 315.415 95.703,315.156 95.230,314.915 94.900 C 314.673 94.570,314.358 94.008,314.213 93.650 C 314.069 93.293,313.885 93.000,313.804 93.000 C 313.722 93.000,313.441 92.582,313.178 92.070 C 312.915 91.559,312.498 90.916,312.250 90.641 C 312.003 90.366,311.800 90.006,311.800 89.840 C 311.800 89.674,311.557 89.219,311.260 88.829 C 310.709 88.107,310.149 87.150,309.415 85.676 C 309.189 85.223,308.859 84.732,308.681 84.584 C 308.503 84.437,308.157 83.862,307.911 83.308 C 307.666 82.754,307.315 82.176,307.132 82.026 C 306.950 81.875,306.800 81.634,306.800 81.491 C 306.800 81.348,306.570 80.957,306.288 80.622 C 305.639 79.851,305.346 78.875,305.614 78.374 C 305.903 77.833,316.240 77.793,316.834 78.331 M95.351 79.250 C 95.461 79.388,95.616 79.725,95.696 80.000 C 95.776 80.275,96.113 81.085,96.445 81.800 C 96.776 82.515,97.294 83.640,97.595 84.300 C 97.896 84.960,98.415 86.085,98.748 86.800 C 99.081 87.515,99.668 88.775,100.051 89.600 C 100.435 90.425,101.076 91.775,101.477 92.600 C 101.878 93.425,102.205 94.221,102.203 94.369 C 102.201 94.517,102.370 94.877,102.577 95.169 C 102.785 95.461,103.073 96.105,103.216 96.600 C 103.360 97.095,103.667 97.770,103.899 98.100 C 104.131 98.430,104.440 99.060,104.587 99.500 C 104.734 99.940,105.008 100.525,105.195 100.800 C 105.383 101.075,105.691 101.785,105.881 102.377 C 106.071 102.970,106.353 103.581,106.508 103.736 C 106.663 103.891,106.880 104.351,106.990 104.759 C 107.100 105.167,107.332 105.702,107.505 105.948 C 107.679 106.195,107.992 106.896,108.202 107.507 C 108.412 108.117,108.768 108.850,108.991 109.135 C 109.215 109.419,109.498 110.022,109.620 110.474 C 109.742 110.926,109.999 111.522,110.191 111.798 C 110.383 112.074,110.688 112.743,110.869 113.283 C 111.050 113.824,111.324 114.409,111.478 114.583 C 111.632 114.758,111.905 115.339,112.085 115.875 C 112.265 116.411,112.541 117.033,112.698 117.257 C 112.855 117.482,113.134 118.145,113.319 118.733 C 113.504 119.320,113.722 119.800,113.803 119.800 C 114.047 119.800,114.438 120.927,114.366 121.427 C 114.312 121.808,114.113 121.933,113.263 122.122 C 112.693 122.248,111.928 122.531,111.563 122.751 C 111.198 122.971,110.540 123.265,110.100 123.403 C 109.660 123.541,108.940 123.858,108.500 124.107 C 108.060 124.357,107.385 124.624,107.000 124.702 C 106.615 124.780,106.015 125.016,105.667 125.227 C 105.319 125.438,104.563 125.751,103.986 125.923 C 103.410 126.094,102.704 126.403,102.419 126.610 C 102.134 126.817,101.461 127.082,100.924 127.200 C 100.388 127.317,99.570 127.635,99.107 127.907 C 98.644 128.178,98.133 128.400,97.971 128.400 C 97.809 128.400,97.052 128.715,96.289 129.099 C 95.525 129.484,94.731 129.799,94.524 129.799 C 94.317 129.800,93.860 129.978,93.509 130.195 C 93.158 130.412,92.307 130.765,91.618 130.979 C 90.930 131.193,90.216 131.495,90.033 131.650 C 89.850 131.804,89.313 132.042,88.840 132.177 C 88.366 132.312,87.566 132.642,87.060 132.911 C 86.554 133.180,86.009 133.400,85.849 133.400 C 85.689 133.400,85.095 133.635,84.529 133.922 C 83.963 134.208,83.050 134.578,82.500 134.744 C 81.950 134.909,81.260 135.215,80.967 135.424 C 80.674 135.633,80.134 135.859,79.767 135.927 C 79.400 135.996,78.650 136.300,78.100 136.605 C 77.550 136.909,76.787 137.224,76.405 137.305 C 76.023 137.385,75.202 137.710,74.581 138.026 C 73.959 138.342,73.253 138.600,73.012 138.600 C 72.771 138.600,72.152 138.776,71.637 138.992 C 70.158 139.610,68.694 139.803,68.185 139.447 C 67.676 139.091,67.791 137.582,68.379 136.900 C 68.806 136.405,69.200 135.501,69.200 135.018 C 69.200 134.818,69.384 134.421,69.608 134.135 C 69.832 133.850,70.193 133.102,70.409 132.472 C 70.626 131.843,70.937 131.180,71.101 130.999 C 71.264 130.819,71.523 130.257,71.675 129.750 C 71.827 129.243,72.127 128.575,72.340 128.264 C 72.553 127.954,72.842 127.303,72.981 126.818 C 73.121 126.333,73.360 125.811,73.513 125.659 C 73.665 125.506,73.928 124.916,74.097 124.347 C 74.266 123.779,74.628 122.975,74.902 122.561 C 75.176 122.147,75.400 121.639,75.400 121.432 C 75.400 121.225,75.621 120.731,75.890 120.334 C 76.160 119.936,76.522 119.193,76.696 118.681 C 76.870 118.169,77.234 117.372,77.506 116.908 C 77.778 116.444,78.000 115.883,78.000 115.660 C 78.000 115.438,78.214 114.941,78.476 114.555 C 78.737 114.170,79.065 113.505,79.203 113.077 C 79.342 112.650,79.613 112.075,79.805 111.800 C 79.998 111.525,80.300 110.813,80.477 110.217 C 80.654 109.621,80.927 108.991,81.085 108.817 C 81.242 108.643,81.523 108.050,81.709 107.500 C 81.895 106.950,82.207 106.274,82.403 105.998 C 82.599 105.722,82.862 105.113,82.988 104.644 C 83.114 104.175,83.439 103.466,83.709 103.068 C 83.979 102.670,84.201 102.199,84.202 102.022 C 84.204 101.845,84.427 101.312,84.698 100.837 C 84.970 100.362,85.292 99.597,85.414 99.137 C 85.536 98.677,85.799 98.120,85.998 97.900 C 86.197 97.680,86.509 97.050,86.692 96.500 C 86.875 95.950,87.162 95.289,87.330 95.030 C 87.498 94.772,87.804 94.071,88.010 93.472 C 88.216 92.873,88.562 92.158,88.778 91.882 C 88.995 91.607,89.235 91.095,89.312 90.746 C 89.389 90.396,89.647 89.793,89.887 89.405 C 90.126 89.017,90.435 88.313,90.572 87.839 C 90.710 87.366,90.968 86.808,91.146 86.601 C 91.323 86.393,91.621 85.732,91.807 85.132 C 91.992 84.531,92.337 83.769,92.572 83.439 C 92.807 83.109,93.000 82.663,93.000 82.449 C 93.000 82.235,93.268 81.664,93.596 81.180 C 93.924 80.696,94.194 80.208,94.196 80.095 C 94.209 79.409,95.010 78.823,95.351 79.250 M215.650 86.824 C 215.349 87.132,215.285 100.411,215.581 100.964 C 215.903 101.566,226.382 101.420,228.400 100.785 C 232.001 99.653,234.240 96.052,233.576 92.459 C 233.458 91.822,233.292 91.255,233.208 91.200 C 233.123 91.145,232.866 90.740,232.636 90.300 C 231.859 88.814,230.410 87.541,228.904 87.023 C 227.757 86.629,216.013 86.452,215.650 86.824 M176.528 88.950 C 176.474 89.142,176.369 89.615,176.296 90.000 C 176.222 90.385,175.986 91.005,175.772 91.377 C 175.557 91.749,175.248 92.628,175.086 93.331 C 174.923 94.033,174.612 94.948,174.395 95.364 C 174.179 95.780,173.906 96.637,173.789 97.269 C 173.672 97.900,173.414 98.705,173.215 99.058 C 173.016 99.411,172.743 100.150,172.607 100.700 C 172.295 101.973,171.967 102.869,171.763 103.011 C 171.499 103.194,171.234 104.997,171.387 105.569 L 171.529 106.100 176.737 106.153 C 182.917 106.216,182.607 106.330,182.231 104.138 C 182.096 103.352,181.817 102.424,181.612 102.075 C 181.406 101.727,181.122 100.915,180.981 100.271 C 180.839 99.627,180.516 98.704,180.262 98.220 C 180.008 97.736,179.800 97.142,179.800 96.900 C 179.800 96.333,179.466 95.287,179.002 94.400 C 178.800 94.015,178.538 93.167,178.418 92.516 C 178.299 91.865,178.076 91.190,177.922 91.016 C 177.769 90.842,177.477 90.228,177.275 89.650 C 176.888 88.549,176.693 88.366,176.528 88.950 " stroke="none" fill="#fbfbfb" fill-rule="evenodd"></path><path id="path2" d="M113.500 60.524 C 113.170 60.571,112.225 60.784,111.400 60.996 C 110.575 61.208,108.550 61.488,106.900 61.619 C 105.250 61.749,103.788 61.945,103.650 62.053 C 103.246 62.370,103.342 63.872,103.801 64.401 C 104.021 64.655,104.291 65.197,104.401 65.605 C 104.511 66.014,104.794 66.593,105.030 66.893 C 105.266 67.192,105.536 67.851,105.630 68.357 C 105.725 68.863,105.971 69.462,106.176 69.688 C 106.382 69.915,106.664 70.460,106.803 70.900 C 106.942 71.340,107.209 71.925,107.396 72.200 C 107.583 72.475,107.894 73.193,108.087 73.796 C 108.280 74.399,108.596 75.119,108.789 75.396 C 108.982 75.673,109.284 76.330,109.460 76.855 C 109.636 77.381,109.964 78.045,110.190 78.332 C 110.415 78.619,110.600 79.073,110.600 79.340 C 110.600 79.857,110.900 80.528,111.317 80.946 C 111.457 81.086,111.711 81.679,111.881 82.264 C 112.051 82.849,112.375 83.540,112.600 83.801 C 112.826 84.061,113.062 84.505,113.123 84.787 C 113.364 85.883,113.632 86.578,113.901 86.801 C 114.055 86.929,114.319 87.507,114.487 88.085 C 114.655 88.664,114.966 89.357,115.177 89.626 C 115.389 89.894,115.662 90.489,115.786 90.948 C 115.910 91.407,116.122 91.899,116.258 92.041 C 116.591 92.390,117.000 93.339,117.000 93.763 C 117.000 93.952,117.216 94.425,117.481 94.814 C 117.745 95.204,118.105 96.004,118.280 96.594 C 118.455 97.184,118.727 97.809,118.885 97.983 C 119.042 98.157,119.323 98.750,119.509 99.300 C 119.695 99.850,120.005 100.525,120.197 100.800 C 120.390 101.075,120.611 101.525,120.689 101.800 C 120.767 102.075,121.089 102.840,121.404 103.500 C 121.719 104.160,122.025 104.931,122.083 105.213 C 122.141 105.495,122.374 105.939,122.600 106.200 C 122.826 106.461,123.066 106.905,123.134 107.187 C 123.201 107.469,123.559 108.276,123.928 108.980 C 124.298 109.684,124.600 110.407,124.600 110.586 C 124.600 111.173,126.003 113.200,126.408 113.200 C 126.815 113.200,127.198 112.651,127.203 112.063 C 127.205 111.863,127.334 111.475,127.491 111.200 C 128.297 109.785,128.400 109.335,128.396 107.226 C 128.390 104.463,127.881 97.212,127.593 95.800 C 127.470 95.195,127.288 92.180,127.190 89.100 C 127.032 84.146,126.796 81.278,126.508 80.813 C 126.457 80.731,126.275 78.242,126.104 75.282 C 125.744 69.061,125.705 68.775,125.073 67.682 C 124.813 67.233,124.600 66.730,124.600 66.565 C 124.600 65.364,120.953 61.991,119.145 61.520 C 118.540 61.363,117.743 61.078,117.374 60.887 C 116.707 60.542,114.684 60.352,113.500 60.524 M82.800 67.021 C 81.975 67.115,81.075 67.291,80.800 67.414 C 80.525 67.537,78.860 67.726,77.100 67.835 C 75.340 67.944,73.135 68.198,72.200 68.399 C 70.175 68.834,67.840 69.127,64.269 69.395 C 62.821 69.503,61.246 69.722,60.769 69.880 C 60.291 70.038,59.207 70.277,58.360 70.410 C 57.513 70.543,56.658 70.798,56.460 70.976 C 56.262 71.154,55.695 71.493,55.200 71.728 C 54.107 72.248,51.906 74.214,51.467 75.063 C 51.292 75.403,51.025 75.804,50.874 75.954 C 50.724 76.105,50.546 76.469,50.480 76.764 C 50.413 77.059,50.188 77.895,49.980 78.622 C 49.503 80.281,49.503 80.706,49.984 83.900 C 50.199 85.330,50.472 87.393,50.591 88.484 C 50.710 89.575,50.897 90.576,51.006 90.708 C 51.116 90.839,51.295 91.927,51.405 93.124 C 51.662 95.929,51.779 96.793,52.137 98.500 C 52.550 100.474,52.986 103.548,52.994 104.537 C 52.997 104.998,53.225 106.303,53.500 107.437 C 53.775 108.572,54.005 109.950,54.011 110.500 C 54.023 111.579,54.381 113.916,54.853 116.000 C 55.016 116.715,55.208 117.975,55.281 118.800 C 55.482 121.076,55.832 123.462,56.016 123.819 C 56.107 123.995,56.280 124.940,56.402 125.919 C 56.725 128.530,57.516 129.377,57.911 127.536 C 57.986 127.186,58.299 126.405,58.607 125.800 C 58.915 125.195,59.495 123.980,59.897 123.100 C 60.299 122.220,60.727 121.320,60.849 121.100 C 61.491 119.944,63.000 116.682,63.000 116.451 C 63.000 116.356,63.209 115.994,63.465 115.647 C 63.721 115.300,64.054 114.630,64.204 114.158 C 64.355 113.686,64.635 113.092,64.827 112.839 C 65.018 112.585,65.321 111.939,65.499 111.404 C 65.676 110.869,65.947 110.327,66.100 110.200 C 66.253 110.073,66.530 109.513,66.715 108.956 C 66.900 108.398,67.265 107.627,67.526 107.243 C 67.787 106.859,68.000 106.420,68.000 106.269 C 68.000 106.118,68.260 105.523,68.578 104.947 C 68.897 104.371,69.261 103.570,69.389 103.166 C 69.516 102.762,69.751 102.324,69.910 102.192 C 70.069 102.060,70.334 101.498,70.498 100.943 C 70.663 100.388,70.931 99.786,71.094 99.607 C 71.256 99.427,71.529 98.884,71.700 98.400 C 71.871 97.916,72.145 97.371,72.310 97.189 C 72.475 97.007,72.765 96.418,72.956 95.879 C 73.146 95.341,73.504 94.574,73.751 94.176 C 73.998 93.778,74.200 93.318,74.200 93.154 C 74.200 92.990,74.435 92.510,74.722 92.087 C 75.009 91.664,75.363 90.922,75.508 90.440 C 75.653 89.957,75.900 89.413,76.055 89.231 C 76.211 89.049,76.493 88.495,76.682 88.000 C 76.871 87.505,77.234 86.782,77.488 86.392 C 77.742 86.003,78.012 85.400,78.089 85.052 C 78.165 84.704,78.389 84.212,78.585 83.959 C 78.782 83.707,79.064 83.140,79.212 82.700 C 79.359 82.260,79.692 81.607,79.951 81.249 C 80.210 80.890,80.553 80.159,80.712 79.623 C 80.871 79.087,81.121 78.548,81.268 78.427 C 81.414 78.305,81.656 77.822,81.804 77.353 C 81.953 76.884,82.240 76.258,82.441 75.963 C 82.643 75.668,82.944 75.042,83.109 74.573 C 83.275 74.104,83.543 73.574,83.704 73.395 C 83.866 73.217,84.119 72.672,84.267 72.185 C 84.415 71.698,84.776 70.950,85.068 70.522 C 85.361 70.094,85.600 69.590,85.600 69.402 C 85.600 69.214,85.864 68.667,86.187 68.185 C 87.134 66.775,86.600 66.592,82.800 67.021 M170.923 78.493 C 170.745 78.764,170.600 79.079,170.600 79.193 C 170.600 79.307,170.521 79.400,170.424 79.400 C 170.200 79.400,169.895 80.203,169.590 81.600 C 169.457 82.205,169.243 82.835,169.113 83.000 C 168.771 83.435,168.400 84.362,168.400 84.781 C 168.400 84.981,168.143 85.629,167.829 86.222 C 167.514 86.815,167.193 87.660,167.114 88.100 C 167.035 88.540,166.750 89.279,166.481 89.742 C 166.213 90.205,165.904 91.054,165.795 91.628 C 165.686 92.202,165.469 92.813,165.313 92.986 C 165.157 93.159,164.875 93.930,164.686 94.700 C 164.497 95.470,164.210 96.255,164.046 96.443 C 163.883 96.632,163.583 97.388,163.380 98.123 C 163.176 98.857,162.882 99.603,162.727 99.779 C 162.572 99.956,162.342 100.595,162.215 101.200 C 162.089 101.805,161.776 102.705,161.519 103.200 C 161.262 103.695,160.986 104.415,160.907 104.800 C 160.828 105.185,160.514 106.040,160.211 106.700 C 159.907 107.360,159.604 108.250,159.538 108.678 C 159.471 109.106,159.201 109.781,158.939 110.178 C 158.677 110.575,158.397 111.260,158.317 111.700 C 158.237 112.140,157.956 112.960,157.693 113.523 C 157.429 114.086,157.119 114.969,157.003 115.486 C 156.887 116.003,156.615 116.668,156.398 116.963 C 156.182 117.258,155.913 117.990,155.800 118.588 C 155.688 119.187,155.462 119.881,155.298 120.131 C 154.807 120.881,154.360 122.414,154.487 122.918 C 154.699 123.766,155.153 123.837,159.887 123.766 C 164.467 123.698,165.000 123.603,165.000 122.855 C 165.000 122.692,165.236 122.095,165.523 121.529 C 165.811 120.963,166.180 119.870,166.342 119.100 C 166.504 118.331,166.728 117.644,166.840 117.575 C 166.952 117.506,167.200 116.876,167.392 116.175 L 167.741 114.900 176.798 114.900 L 185.856 114.900 186.121 115.800 C 186.266 116.295,186.557 117.015,186.767 117.400 C 186.977 117.785,187.203 118.529,187.271 119.053 C 187.338 119.577,187.620 120.431,187.897 120.951 C 188.173 121.471,188.454 122.187,188.521 122.541 C 188.736 123.687,188.799 123.700,194.242 123.700 L 199.223 123.700 199.594 123.207 C 199.954 122.731,199.954 122.698,199.604 122.205 C 199.404 121.925,199.140 121.292,199.016 120.798 C 198.893 120.304,198.577 119.450,198.314 118.900 C 198.052 118.350,197.736 117.461,197.612 116.924 C 197.489 116.386,197.221 115.735,197.017 115.476 C 196.813 115.217,196.583 114.582,196.505 114.065 C 196.428 113.548,196.102 112.635,195.782 112.035 C 195.462 111.435,195.200 110.730,195.200 110.468 C 195.200 110.206,194.938 109.502,194.619 108.903 C 194.299 108.304,193.973 107.428,193.894 106.957 C 193.816 106.486,193.584 105.864,193.379 105.575 C 193.175 105.286,192.872 104.527,192.706 103.889 C 192.539 103.251,192.236 102.408,192.032 102.015 C 191.828 101.622,191.545 100.805,191.403 100.200 C 191.261 99.595,190.978 98.863,190.775 98.574 C 190.572 98.284,190.281 97.511,190.128 96.855 C 189.975 96.199,189.702 95.437,189.522 95.162 C 189.342 94.886,189.059 94.141,188.893 93.506 C 188.728 92.871,188.427 92.114,188.224 91.825 C 188.021 91.536,187.790 90.940,187.711 90.500 C 187.632 90.060,187.315 89.115,187.007 88.400 C 186.699 87.685,186.389 86.772,186.319 86.370 C 186.248 85.969,186.013 85.416,185.797 85.142 C 185.582 84.868,185.305 84.161,185.183 83.572 C 185.061 82.982,184.785 82.195,184.570 81.822 C 184.356 81.449,184.051 80.639,183.892 80.022 C 183.364 77.961,183.499 78.000,176.912 78.000 L 171.246 78.000 170.923 78.493 M205.048 78.397 C 204.548 79.198,204.703 122.820,205.208 123.362 C 205.820 124.020,214.392 124.047,214.952 123.394 C 215.263 123.031,215.311 122.278,215.400 116.344 L 215.500 109.700 222.700 109.590 C 226.660 109.530,230.080 109.408,230.300 109.319 C 230.520 109.230,230.974 109.036,231.309 108.889 C 231.644 108.741,232.364 108.522,232.909 108.403 C 233.454 108.284,234.125 108.027,234.400 107.832 C 234.675 107.637,235.215 107.355,235.600 107.204 C 235.985 107.054,236.525 106.728,236.800 106.479 C 238.606 104.849,239.400 104.059,239.403 103.892 C 239.405 103.786,239.630 103.488,239.903 103.229 C 240.177 102.970,240.400 102.653,240.400 102.525 C 240.400 102.396,240.657 101.978,240.970 101.596 C 241.284 101.213,241.653 100.540,241.790 100.100 C 241.927 99.660,242.233 98.895,242.470 98.400 C 243.038 97.212,243.202 91.916,242.721 90.300 C 242.121 88.282,241.491 86.632,241.184 86.270 C 241.011 86.067,240.681 85.570,240.451 85.166 C 239.998 84.372,239.880 84.225,238.422 82.650 C 237.887 82.073,237.351 81.600,237.230 81.600 C 237.108 81.600,236.865 81.380,236.688 81.110 C 236.512 80.841,236.037 80.515,235.634 80.385 C 235.230 80.256,234.720 79.995,234.500 79.805 C 234.016 79.387,233.582 79.220,232.400 78.997 C 231.905 78.903,230.870 78.643,230.100 78.419 C 227.942 77.791,205.439 77.771,205.048 78.397 M249.032 78.509 C 248.701 79.236,248.699 122.434,249.030 123.063 C 249.406 123.778,249.519 123.794,254.150 123.797 C 258.336 123.800,258.624 123.776,259.000 123.400 C 259.601 122.799,259.634 78.874,259.034 78.331 C 258.716 78.043,258.061 78.000,253.966 78.000 L 249.264 78.000 249.032 78.509 M267.081 78.421 C 266.479 79.086,266.380 122.484,266.979 123.224 C 267.562 123.944,275.770 124.095,276.652 123.402 L 277.200 122.971 277.200 115.718 L 277.200 108.464 277.709 108.232 C 278.070 108.068,280.660 108.000,286.578 108.000 C 296.808 108.000,295.676 108.547,295.763 103.560 C 295.849 98.651,296.991 99.200,286.682 99.200 C 281.672 99.200,278.017 99.121,277.713 99.005 L 277.200 98.810 277.200 93.005 C 277.200 89.812,277.223 87.182,277.250 87.160 C 277.278 87.138,282.269 87.070,288.343 87.010 C 298.592 86.908,299.412 86.874,299.743 86.543 C 300.319 85.967,300.281 78.754,299.700 78.315 C 299.351 78.051,297.267 78.012,283.381 78.006 L 267.462 78.000 267.081 78.421 M305.614 78.374 C 305.346 78.875,305.639 79.851,306.288 80.622 C 306.570 80.957,306.800 81.348,306.800 81.491 C 306.800 81.634,306.950 81.875,307.132 82.026 C 307.315 82.176,307.666 82.754,307.911 83.308 C 308.157 83.862,308.503 84.437,308.681 84.584 C 308.859 84.732,309.189 85.223,309.415 85.676 C 310.149 87.150,310.709 88.107,311.260 88.829 C 311.557 89.219,311.800 89.674,311.800 89.840 C 311.800 90.006,312.003 90.366,312.250 90.641 C 312.498 90.916,312.915 91.559,313.178 92.070 C 313.441 92.582,313.722 93.000,313.804 93.000 C 313.885 93.000,314.069 93.293,314.213 93.650 C 314.358 94.008,314.673 94.570,314.915 94.900 C 315.156 95.230,315.415 95.703,315.491 95.951 C 315.566 96.199,315.848 96.664,316.117 96.983 C 316.385 97.303,316.744 97.896,316.914 98.303 C 317.084 98.709,317.397 99.229,317.611 99.458 C 317.825 99.688,318.000 99.981,318.000 100.110 C 318.000 100.239,318.272 100.687,318.605 101.106 C 318.937 101.524,319.266 102.099,319.335 102.383 C 319.404 102.667,319.717 103.196,320.030 103.557 C 320.344 103.918,320.600 104.315,320.600 104.438 C 320.600 104.561,320.848 104.986,321.150 105.381 L 321.700 106.100 321.800 114.666 C 321.896 122.853,321.917 123.245,322.288 123.516 C 322.928 123.984,331.405 123.926,331.975 123.450 C 332.386 123.106,332.395 122.948,332.447 114.766 C 332.498 106.725,332.514 106.413,332.910 105.866 C 333.136 105.555,333.472 104.975,333.657 104.578 C 333.841 104.180,334.137 103.735,334.313 103.589 C 334.490 103.442,334.771 102.980,334.939 102.561 C 335.106 102.143,335.313 101.800,335.398 101.800 C 335.483 101.800,335.778 101.325,336.053 100.744 C 336.328 100.163,336.699 99.567,336.877 99.419 C 337.054 99.272,337.200 99.040,337.200 98.904 C 337.200 98.768,337.514 98.261,337.898 97.778 C 338.282 97.295,338.597 96.765,338.599 96.600 C 338.600 96.435,338.868 95.988,339.194 95.606 C 339.521 95.224,339.843 94.661,339.910 94.356 C 339.977 94.050,340.194 93.687,340.392 93.548 C 340.590 93.410,340.920 92.978,341.126 92.588 C 341.617 91.659,342.196 90.704,342.740 89.928 C 342.982 89.583,343.375 88.873,343.615 88.350 C 343.854 87.828,344.121 87.400,344.208 87.400 C 344.296 87.400,344.571 86.950,344.819 86.400 C 345.068 85.850,345.337 85.400,345.418 85.400 C 345.498 85.400,345.768 84.973,346.017 84.450 C 346.266 83.928,346.679 83.246,346.935 82.935 C 347.191 82.624,347.401 82.264,347.402 82.135 C 347.403 82.006,347.718 81.505,348.102 81.022 C 348.486 80.539,348.800 79.987,348.800 79.796 C 348.800 79.605,348.935 79.337,349.100 79.200 C 350.244 78.251,349.093 78.000,343.596 78.000 L 338.819 78.000 338.459 78.512 C 338.262 78.794,337.914 79.267,337.687 79.562 C 337.459 79.858,337.149 80.415,336.998 80.800 C 336.846 81.185,336.563 81.643,336.368 81.818 C 336.173 81.992,335.838 82.545,335.623 83.046 C 335.409 83.546,335.135 84.016,335.016 84.090 C 334.897 84.164,334.619 84.618,334.400 85.100 C 334.181 85.582,333.901 86.038,333.778 86.114 C 333.655 86.190,333.382 86.641,333.172 87.118 C 332.961 87.594,332.696 88.040,332.584 88.110 C 332.471 88.180,332.173 88.701,331.922 89.268 C 331.670 89.836,331.321 90.419,331.145 90.564 C 330.969 90.709,330.772 91.071,330.707 91.370 C 330.641 91.668,330.321 92.224,329.994 92.606 C 329.668 92.988,329.401 93.442,329.400 93.615 C 329.400 93.788,329.175 94.142,328.900 94.400 C 328.625 94.658,328.400 94.933,328.400 95.010 C 328.400 95.088,328.259 95.488,328.087 95.900 L 327.774 96.650 327.084 95.896 C 326.704 95.481,326.229 94.773,326.029 94.321 C 325.829 93.870,325.520 93.380,325.343 93.234 C 325.165 93.088,324.915 92.638,324.786 92.234 C 324.656 91.830,324.390 91.320,324.195 91.100 C 323.999 90.880,323.690 90.341,323.510 89.903 C 323.329 89.464,323.016 88.924,322.814 88.703 C 322.613 88.481,322.329 87.963,322.184 87.550 C 322.038 87.138,321.856 86.800,321.778 86.800 C 321.700 86.800,321.434 86.373,321.187 85.850 C 320.940 85.328,320.618 84.759,320.471 84.586 C 320.323 84.413,319.752 83.395,319.202 82.323 C 318.651 81.251,317.975 80.078,317.700 79.718 C 317.425 79.357,317.200 78.972,317.200 78.862 C 317.200 77.906,306.114 77.440,305.614 78.374 M182.706 79.053 C 183.070 79.390,183.317 79.947,183.534 80.917 C 183.705 81.678,184.011 82.482,184.215 82.705 C 184.418 82.927,184.689 83.602,184.817 84.205 C 184.945 84.807,185.253 85.660,185.502 86.100 C 185.751 86.540,186.016 87.260,186.091 87.700 C 186.166 88.140,186.435 88.819,186.689 89.209 C 186.943 89.599,187.215 90.384,187.294 90.955 C 187.372 91.526,187.608 92.210,187.817 92.477 C 188.027 92.743,188.344 93.532,188.522 94.230 C 188.700 94.929,189.060 95.868,189.323 96.318 C 189.585 96.767,189.800 97.354,189.800 97.621 C 189.800 97.888,190.062 98.645,190.383 99.303 C 190.703 99.961,191.028 100.860,191.104 101.300 C 191.181 101.740,191.446 102.415,191.693 102.800 C 191.941 103.185,192.258 104.040,192.397 104.700 C 192.536 105.360,192.814 106.108,193.014 106.362 C 193.213 106.616,193.480 107.322,193.606 107.929 C 193.732 108.537,194.053 109.354,194.318 109.745 C 194.583 110.136,194.800 110.709,194.800 111.018 C 194.800 111.647,195.131 112.524,195.563 113.043 C 195.720 113.231,195.928 113.816,196.024 114.343 C 196.121 114.869,196.470 115.819,196.800 116.453 C 197.130 117.087,197.400 117.824,197.400 118.090 C 197.400 118.684,197.752 119.647,198.032 119.820 C 198.406 120.051,199.020 122.635,198.772 122.934 C 198.462 123.308,189.549 123.323,189.246 122.950 C 189.135 122.813,188.935 122.160,188.802 121.500 C 188.669 120.840,188.383 120.108,188.167 119.873 C 187.917 119.601,187.697 118.927,187.561 118.012 C 187.444 117.223,187.222 116.450,187.067 116.295 C 186.912 116.141,186.654 115.699,186.493 115.314 C 186.012 114.164,186.151 114.179,176.629 114.242 C 167.017 114.306,167.318 114.265,167.083 115.522 C 167.012 115.897,166.789 116.414,166.586 116.672 C 166.384 116.930,166.083 117.787,165.918 118.577 C 165.754 119.367,165.435 120.247,165.209 120.533 C 164.984 120.820,164.800 121.308,164.800 121.618 C 164.800 121.928,164.696 122.410,164.568 122.691 L 164.336 123.200 159.808 123.200 C 154.579 123.200,154.021 122.940,155.516 121.197 C 155.751 120.924,156.010 120.050,156.297 118.564 C 156.354 118.269,156.521 117.907,156.669 117.760 C 157.099 117.330,157.400 116.664,157.400 116.143 C 157.400 115.877,157.629 115.229,157.909 114.703 C 158.189 114.177,158.534 113.189,158.677 112.508 C 158.820 111.827,159.130 111.006,159.366 110.685 C 159.602 110.363,159.884 109.627,159.993 109.049 C 160.101 108.470,160.367 107.750,160.584 107.449 C 160.800 107.147,161.072 106.366,161.189 105.713 C 161.305 105.060,161.573 104.340,161.785 104.113 C 161.997 103.886,162.227 103.430,162.296 103.100 C 162.599 101.659,162.863 100.800,163.002 100.800 C 163.182 100.800,163.462 100.049,163.785 98.700 C 163.917 98.150,164.199 97.515,164.411 97.289 C 164.628 97.058,164.852 96.444,164.922 95.889 C 164.991 95.345,165.279 94.495,165.562 94.000 C 165.844 93.505,166.146 92.653,166.233 92.106 C 166.319 91.559,166.563 90.878,166.774 90.592 C 166.985 90.307,167.303 89.508,167.480 88.817 C 167.657 88.126,167.977 87.338,168.191 87.066 C 168.405 86.794,168.639 86.151,168.711 85.636 C 168.783 85.121,169.049 84.385,169.303 84.000 C 169.556 83.615,169.876 82.760,170.014 82.100 C 170.151 81.440,170.430 80.714,170.632 80.487 C 170.834 80.260,171.000 80.024,171.000 79.962 C 171.000 79.900,171.127 79.545,171.282 79.174 L 171.563 78.500 176.876 78.536 C 182.185 78.573,182.188 78.573,182.706 79.053 M228.800 78.881 C 229.185 79.030,230.085 79.215,230.800 79.290 C 232.402 79.459,233.361 79.748,233.856 80.209 C 234.064 80.403,234.531 80.618,234.893 80.685 C 235.522 80.803,235.935 81.098,237.509 82.550 C 237.896 82.908,238.305 83.200,238.417 83.200 C 238.529 83.200,238.754 83.519,238.917 83.909 C 239.079 84.298,239.340 84.666,239.497 84.726 C 239.653 84.786,239.887 85.158,240.017 85.552 C 240.147 85.946,240.477 86.476,240.750 86.729 C 241.088 87.042,241.329 87.591,241.505 88.445 C 241.647 89.135,241.927 90.105,242.127 90.600 C 242.644 91.878,242.645 95.914,242.130 97.200 C 241.932 97.695,241.653 98.615,241.511 99.244 C 241.344 99.983,241.030 100.640,240.626 101.101 C 240.282 101.493,240.000 101.938,240.000 102.090 C 240.000 102.442,239.409 103.157,237.900 104.631 C 236.193 106.300,235.972 106.468,235.089 106.774 C 234.655 106.925,234.120 107.210,233.900 107.407 C 233.535 107.735,232.714 107.957,230.200 108.406 C 229.705 108.494,228.940 108.662,228.500 108.779 C 228.025 108.904,225.261 108.994,221.700 108.998 C 218.400 109.003,215.601 109.072,215.480 109.153 C 214.824 109.591,214.768 110.215,214.820 116.478 C 214.848 119.913,214.805 122.830,214.724 122.962 C 214.495 123.332,205.730 123.297,205.420 122.924 C 205.170 122.623,205.181 79.082,205.431 78.700 C 205.648 78.368,227.923 78.540,228.800 78.881 M258.800 78.735 C 259.030 78.961,259.011 122.645,258.781 122.923 C 258.445 123.328,249.756 123.329,249.420 122.924 C 249.170 122.623,249.181 79.082,249.431 78.700 C 249.562 78.500,258.594 78.534,258.800 78.735 M299.000 78.596 C 299.323 78.800,299.460 85.310,299.156 86.050 C 299.022 86.377,298.306 86.400,288.131 86.400 C 278.258 86.400,277.224 86.431,276.974 86.730 C 276.539 87.254,276.463 98.462,276.891 99.114 L 277.199 99.584 286.083 99.642 C 290.969 99.674,295.032 99.765,295.111 99.844 C 295.310 100.044,295.484 105.389,295.319 106.267 L 295.185 106.984 286.398 107.042 L 277.611 107.100 277.155 107.555 C 276.701 108.010,276.700 108.019,276.649 115.155 C 276.622 119.085,276.552 122.503,276.496 122.750 C 276.375 123.275,268.796 123.463,267.709 122.968 L 267.200 122.736 267.201 101.318 C 267.201 80.333,267.209 79.887,267.597 79.251 L 267.993 78.603 283.146 78.550 C 291.481 78.521,298.390 78.477,298.500 78.452 C 298.610 78.427,298.835 78.491,299.000 78.596 M312.100 78.599 L 316.500 78.601 316.872 79.505 C 317.076 80.002,317.402 80.494,317.595 80.597 C 317.789 80.701,317.998 81.039,318.060 81.348 C 318.121 81.657,318.448 82.257,318.786 82.682 C 319.124 83.107,319.400 83.607,319.400 83.792 C 319.400 83.977,319.667 84.482,319.994 84.914 C 320.321 85.346,320.591 85.845,320.594 86.022 C 320.597 86.200,320.872 86.687,321.205 87.106 C 321.537 87.524,321.863 88.099,321.929 88.383 C 321.996 88.667,322.267 89.110,322.533 89.366 C 322.799 89.622,323.066 90.082,323.127 90.387 C 323.189 90.693,323.451 91.191,323.711 91.493 C 323.971 91.795,324.290 92.370,324.421 92.771 C 324.552 93.172,324.916 93.813,325.230 94.196 C 325.543 94.578,325.800 95.032,325.800 95.205 C 325.800 95.683,327.294 97.049,327.728 96.968 C 327.933 96.930,328.249 96.600,328.431 96.236 C 328.614 95.871,328.897 95.421,329.061 95.236 C 329.225 95.051,329.558 94.473,329.802 93.950 C 330.045 93.428,330.318 93.000,330.407 93.000 C 330.601 93.000,331.200 91.851,331.200 91.481 C 331.200 91.339,331.364 91.105,331.565 90.961 C 331.767 90.818,332.177 90.205,332.477 89.600 C 333.420 87.702,333.867 86.910,334.170 86.604 C 334.331 86.442,334.634 85.947,334.843 85.504 C 335.053 85.062,335.421 84.417,335.662 84.072 C 336.208 83.290,336.790 82.331,337.418 81.184 C 337.573 80.900,338.006 80.202,338.380 79.634 L 339.060 78.600 343.130 78.564 C 345.368 78.545,347.403 78.522,347.650 78.514 C 348.424 78.490,348.397 79.937,347.609 80.691 C 347.274 81.012,347.000 81.426,347.000 81.610 C 347.000 81.794,346.734 82.280,346.408 82.690 C 346.082 83.100,345.755 83.630,345.681 83.868 C 345.607 84.105,345.288 84.596,344.973 84.957 C 344.658 85.318,344.400 85.792,344.400 86.009 C 344.400 86.226,344.214 86.561,343.986 86.752 C 343.758 86.943,343.439 87.414,343.276 87.797 C 343.114 88.181,342.816 88.676,342.613 88.897 C 342.411 89.119,342.178 89.525,342.096 89.800 C 342.014 90.075,341.688 90.596,341.373 90.957 C 341.058 91.318,340.800 91.739,340.800 91.892 C 340.800 92.044,340.588 92.424,340.328 92.735 C 340.069 93.046,339.696 93.615,339.500 94.000 C 339.304 94.385,338.931 94.954,338.672 95.265 C 338.412 95.576,338.200 95.990,338.200 96.184 C 338.200 96.379,338.007 96.709,337.771 96.919 C 337.535 97.129,337.180 97.660,336.982 98.100 C 336.783 98.540,336.437 99.057,336.211 99.248 C 335.985 99.439,335.800 99.718,335.800 99.868 C 335.800 100.018,335.541 100.497,335.225 100.934 C 334.909 101.370,334.582 101.946,334.498 102.214 C 334.414 102.481,334.096 102.987,333.791 103.337 C 333.485 103.687,333.170 104.182,333.090 104.437 C 333.011 104.692,332.733 105.154,332.473 105.465 L 332.000 106.031 332.000 114.375 C 332.000 120.599,331.939 122.781,331.760 122.960 C 331.400 123.320,322.731 123.299,322.431 122.937 C 322.283 122.758,322.194 119.914,322.156 114.075 L 322.100 105.476 321.550 104.823 C 321.248 104.463,321.000 104.052,321.000 103.908 C 321.000 103.765,320.742 103.389,320.427 103.074 C 320.112 102.758,319.799 102.267,319.732 101.983 C 319.664 101.699,319.337 101.124,319.005 100.706 C 318.672 100.287,318.400 99.800,318.400 99.622 C 318.399 99.445,318.132 98.988,317.806 98.606 C 317.479 98.224,317.157 97.661,317.090 97.356 C 317.023 97.050,316.809 96.688,316.614 96.550 C 316.419 96.413,316.134 95.950,315.980 95.522 C 315.826 95.094,315.503 94.615,315.263 94.457 C 315.022 94.300,314.768 93.912,314.699 93.596 C 314.630 93.279,314.307 92.686,313.982 92.277 C 313.657 91.868,313.338 91.321,313.272 91.062 C 313.207 90.802,312.987 90.500,312.784 90.391 C 312.580 90.282,312.316 89.830,312.196 89.385 C 312.076 88.941,311.798 88.425,311.577 88.239 C 311.355 88.052,310.989 87.473,310.763 86.950 C 310.536 86.428,310.282 86.000,310.197 86.000 C 310.113 86.000,309.893 85.624,309.709 85.163 C 309.525 84.703,309.155 84.066,308.887 83.748 C 308.619 83.430,308.399 83.064,308.398 82.935 C 308.397 82.806,308.082 82.305,307.698 81.822 C 307.314 81.339,307.000 80.813,307.000 80.653 C 307.000 80.493,306.835 80.123,306.633 79.831 C 305.821 78.658,305.918 78.302,307.000 78.480 C 307.385 78.544,309.680 78.597,312.100 78.599 M215.434 85.966 C 214.828 86.572,214.764 87.500,214.835 94.668 L 214.900 101.236 215.395 101.637 C 216.199 102.287,227.825 102.124,228.681 101.451 C 228.995 101.204,229.578 100.912,229.976 100.802 C 230.892 100.550,232.500 99.008,233.035 97.870 C 233.260 97.392,233.515 97.000,233.602 97.000 C 234.419 97.000,234.357 91.582,233.529 90.597 C 233.238 90.252,233.000 89.843,233.000 89.689 C 233.000 89.003,230.662 87.102,228.970 86.413 L 227.300 85.732 221.570 85.646 C 216.021 85.563,215.827 85.573,215.434 85.966 M228.904 87.023 C 230.410 87.541,231.859 88.814,232.636 90.300 C 232.866 90.740,233.123 91.145,233.208 91.200 C 233.292 91.255,233.458 91.822,233.576 92.459 C 234.240 96.052,232.001 99.653,228.400 100.785 C 226.382 101.420,215.903 101.566,215.581 100.964 C 215.285 100.411,215.349 87.132,215.650 86.824 C 216.013 86.452,227.757 86.629,228.904 87.023 M176.225 88.354 C 176.121 88.548,175.972 89.044,175.895 89.455 C 175.818 89.867,175.585 90.419,175.378 90.682 C 175.172 90.945,174.878 91.753,174.726 92.477 C 174.574 93.201,174.307 94.013,174.131 94.281 C 173.956 94.548,173.675 95.427,173.507 96.234 C 173.338 97.040,173.038 97.925,172.839 98.200 C 172.639 98.475,172.361 99.240,172.219 99.900 C 172.078 100.560,171.844 101.287,171.700 101.514 C 171.387 102.008,171.066 103.177,170.509 105.844 C 170.291 106.888,170.904 107.000,176.860 107.000 C 183.549 107.000,184.052 106.841,183.111 105.022 C 182.953 104.715,182.719 103.842,182.591 103.082 C 182.456 102.279,182.159 101.403,181.882 100.992 C 181.619 100.603,181.345 99.838,181.274 99.292 C 181.202 98.746,180.945 97.940,180.702 97.500 C 180.460 97.060,180.147 96.070,180.006 95.300 C 179.865 94.526,179.584 93.717,179.379 93.491 C 179.173 93.264,178.883 92.428,178.730 91.619 C 178.578 90.815,178.369 90.099,178.265 90.028 C 178.162 89.958,177.955 89.585,177.805 89.200 C 177.319 87.950,176.637 87.584,176.225 88.354 M177.275 89.650 C 177.477 90.228,177.769 90.842,177.922 91.016 C 178.076 91.190,178.299 91.865,178.418 92.516 C 178.538 93.167,178.800 94.015,179.002 94.400 C 179.466 95.287,179.800 96.333,179.800 96.900 C 179.800 97.142,180.008 97.736,180.262 98.220 C 180.516 98.704,180.839 99.627,180.981 100.271 C 181.122 100.915,181.406 101.727,181.612 102.075 C 181.817 102.424,182.096 103.352,182.231 104.138 C 182.607 106.330,182.917 106.216,176.737 106.153 L 171.529 106.100 171.387 105.569 C 171.234 104.997,171.499 103.194,171.763 103.011 C 171.967 102.869,172.295 101.973,172.607 100.700 C 172.743 100.150,173.016 99.411,173.215 99.058 C 173.414 98.705,173.672 97.900,173.789 97.269 C 173.906 96.637,174.179 95.780,174.395 95.364 C 174.612 94.948,174.923 94.033,175.086 93.331 C 175.248 92.628,175.557 91.749,175.772 91.377 C 175.986 91.005,176.222 90.385,176.296 90.000 C 176.630 88.257,176.768 88.207,177.275 89.650 " stroke="none" fill="#45b77b" fill-rule="evenodd"></path><path id="path3" d="M94.511 79.445 C 94.340 79.689,94.198 79.981,94.196 80.095 C 94.194 80.208,93.924 80.696,93.596 81.180 C 93.268 81.664,93.000 82.235,93.000 82.449 C 93.000 82.663,92.807 83.109,92.572 83.439 C 92.337 83.769,91.992 84.531,91.807 85.132 C 91.621 85.732,91.323 86.393,91.146 86.601 C 90.968 86.808,90.710 87.366,90.572 87.839 C 90.435 88.313,90.126 89.017,89.887 89.405 C 89.647 89.793,89.389 90.396,89.312 90.746 C 89.235 91.095,88.995 91.607,88.778 91.882 C 88.562 92.158,88.216 92.873,88.010 93.472 C 87.804 94.071,87.498 94.772,87.330 95.030 C 87.162 95.289,86.875 95.950,86.692 96.500 C 86.509 97.050,86.197 97.680,85.998 97.900 C 85.799 98.120,85.536 98.677,85.414 99.137 C 85.292 99.597,84.970 100.362,84.698 100.837 C 84.427 101.312,84.204 101.845,84.202 102.022 C 84.201 102.199,83.979 102.670,83.709 103.068 C 83.439 103.466,83.114 104.175,82.988 104.644 C 82.862 105.113,82.599 105.722,82.403 105.998 C 82.207 106.274,81.895 106.950,81.709 107.500 C 81.523 108.050,81.242 108.643,81.085 108.817 C 80.927 108.991,80.654 109.621,80.477 110.217 C 80.300 110.813,79.998 111.525,79.805 111.800 C 79.613 112.075,79.342 112.650,79.203 113.077 C 79.065 113.505,78.737 114.170,78.476 114.555 C 78.214 114.941,78.000 115.438,78.000 115.660 C 78.000 115.883,77.778 116.444,77.506 116.908 C 77.234 117.372,76.870 118.169,76.696 118.681 C 76.522 119.193,76.160 119.936,75.890 120.334 C 75.621 120.731,75.400 121.225,75.400 121.432 C 75.400 121.639,75.176 122.147,74.902 122.561 C 74.628 122.975,74.266 123.779,74.097 124.347 C 73.928 124.916,73.665 125.506,73.513 125.659 C 73.360 125.811,73.121 126.333,72.981 126.818 C 72.842 127.303,72.553 127.954,72.340 128.264 C 72.127 128.575,71.827 129.243,71.675 129.750 C 71.523 130.257,71.264 130.819,71.101 130.999 C 70.937 131.180,70.626 131.843,70.409 132.472 C 70.193 133.102,69.832 133.850,69.608 134.135 C 69.384 134.421,69.200 134.818,69.200 135.018 C 69.200 135.501,68.806 136.405,68.379 136.900 C 67.791 137.582,67.676 139.091,68.185 139.447 C 68.694 139.803,70.158 139.610,71.637 138.992 C 72.152 138.776,72.771 138.600,73.012 138.600 C 73.253 138.600,73.959 138.342,74.581 138.026 C 75.202 137.710,76.023 137.385,76.405 137.305 C 76.787 137.224,77.550 136.909,78.100 136.605 C 78.650 136.300,79.400 135.996,79.767 135.927 C 80.134 135.859,80.674 135.633,80.967 135.424 C 81.260 135.215,81.950 134.909,82.500 134.744 C 83.050 134.578,83.963 134.208,84.529 133.922 C 85.095 133.635,85.689 133.400,85.849 133.400 C 86.009 133.400,86.554 133.180,87.060 132.911 C 87.566 132.642,88.366 132.312,88.840 132.177 C 89.313 132.042,89.850 131.804,90.033 131.650 C 90.216 131.495,90.930 131.193,91.618 130.979 C 92.307 130.765,93.158 130.412,93.509 130.195 C 93.860 129.978,94.317 129.800,94.524 129.799 C 94.731 129.799,95.525 129.484,96.289 129.099 C 97.052 128.715,97.809 128.400,97.971 128.400 C 98.133 128.400,98.644 128.178,99.107 127.907 C 99.570 127.635,100.388 127.317,100.924 127.200 C 101.461 127.082,102.134 126.817,102.419 126.610 C 102.704 126.403,103.410 126.094,103.986 125.923 C 104.563 125.751,105.319 125.438,105.667 125.227 C 106.015 125.016,106.615 124.780,107.000 124.702 C 107.385 124.624,108.060 124.357,108.500 124.107 C 108.940 123.858,109.660 123.541,110.100 123.403 C 110.540 123.265,111.198 122.971,111.563 122.751 C 111.928 122.531,112.693 122.248,113.263 122.122 C 114.113 121.933,114.312 121.808,114.366 121.427 C 114.438 120.927,114.047 119.800,113.803 119.800 C 113.722 119.800,113.504 119.320,113.319 118.733 C 113.134 118.145,112.855 117.482,112.698 117.257 C 112.541 117.033,112.265 116.411,112.085 115.875 C 111.905 115.339,111.632 114.758,111.478 114.583 C 111.324 114.409,111.050 113.824,110.869 113.283 C 110.688 112.743,110.383 112.074,110.191 111.798 C 109.999 111.522,109.742 110.926,109.620 110.474 C 109.498 110.022,109.215 109.419,108.991 109.135 C 108.768 108.850,108.412 108.117,108.202 107.507 C 107.992 106.896,107.679 106.195,107.505 105.948 C 107.332 105.702,107.100 105.167,106.990 104.759 C 106.880 104.351,106.663 103.891,106.508 103.736 C 106.353 103.581,106.071 102.970,105.881 102.377 C 105.691 101.785,105.383 101.075,105.195 100.800 C 105.008 100.525,104.734 99.940,104.587 99.500 C 104.440 99.060,104.131 98.430,103.899 98.100 C 103.667 97.770,103.360 97.095,103.216 96.600 C 103.073 96.105,102.785 95.461,102.577 95.169 C 102.370 94.877,102.201 94.517,102.203 94.369 C 102.205 94.221,101.878 93.425,101.477 92.600 C 101.076 91.775,100.435 90.425,100.051 89.600 C 99.668 88.775,99.081 87.515,98.748 86.800 C 98.415 86.085,97.896 84.960,97.595 84.300 C 97.294 83.640,96.776 82.515,96.445 81.800 C 96.113 81.085,95.776 80.275,95.696 80.000 C 95.391 78.947,94.991 78.760,94.511 79.445 M95.200 80.791 C 95.200 81.950,95.511 82.745,96.030 82.910 C 96.268 82.985,96.400 83.218,96.401 83.563 C 96.403 84.526,96.788 85.550,97.188 85.655 C 97.471 85.729,97.602 86.004,97.699 86.727 C 97.879 88.068,97.946 88.223,98.392 88.340 C 98.682 88.416,98.814 88.680,98.906 89.371 C 99.081 90.683,99.129 90.783,99.695 90.998 C 100.092 91.149,100.201 91.330,100.203 91.845 C 100.207 92.910,100.416 93.396,100.924 93.524 C 101.359 93.633,101.400 93.747,101.400 94.835 C 101.400 96.193,101.645 96.800,102.195 96.800 C 102.494 96.800,102.605 96.997,102.714 97.723 C 102.802 98.312,103.060 98.882,103.426 99.299 C 103.742 99.659,104.000 100.183,104.000 100.463 C 104.000 101.262,104.366 102.029,104.802 102.143 C 105.112 102.224,105.200 102.416,105.200 103.010 C 105.200 104.072,105.513 104.800,105.969 104.800 C 106.356 104.800,106.593 105.572,106.598 106.850 C 106.599 107.263,106.698 107.400,106.993 107.400 C 107.483 107.400,107.800 107.968,107.800 108.847 C 107.800 109.594,108.095 110.000,108.640 110.000 C 108.936 110.000,109.000 110.169,109.001 110.950 C 109.001 111.900,109.577 113.200,109.997 113.200 C 110.109 113.200,110.200 113.426,110.200 113.703 C 110.200 114.540,110.669 115.771,111.023 115.864 C 111.240 115.921,111.404 116.257,111.493 116.826 C 111.708 118.205,111.803 118.411,112.317 118.607 C 112.729 118.763,112.800 118.922,112.800 119.695 C 112.800 120.321,112.918 120.718,113.185 120.985 C 113.674 121.474,113.407 121.600,111.874 121.600 C 110.870 121.600,110.754 121.648,110.441 122.199 C 110.129 122.746,110.008 122.798,109.033 122.799 C 108.035 122.800,107.951 122.838,107.743 123.390 C 107.530 123.954,107.453 123.985,105.974 124.114 C 104.513 124.242,104.415 124.281,104.190 124.825 C 103.968 125.359,103.874 125.400,102.858 125.400 C 101.827 125.400,101.752 125.434,101.539 126.000 C 101.339 126.529,101.217 126.600,100.506 126.602 C 98.968 126.606,98.178 126.829,97.953 127.322 C 97.780 127.704,97.533 127.810,96.568 127.920 C 95.553 128.034,95.378 128.116,95.276 128.526 C 95.195 128.847,95.013 129.000,94.712 129.000 C 93.698 129.000,91.959 129.474,91.846 129.781 C 91.677 130.241,91.385 130.393,90.663 130.397 C 89.688 130.402,89.000 130.732,89.000 131.195 C 89.000 131.542,88.870 131.600,88.094 131.600 C 87.047 131.600,85.925 132.013,85.654 132.497 C 85.523 132.730,85.095 132.866,84.243 132.943 C 83.119 133.045,83.004 133.100,82.821 133.627 C 82.630 134.172,82.562 134.200,81.414 134.200 C 80.302 134.200,80.198 134.238,80.085 134.688 C 79.961 135.182,79.895 135.209,78.104 135.504 C 77.103 135.669,76.600 135.934,76.600 136.295 C 76.600 136.496,76.206 136.615,75.216 136.712 C 74.011 136.831,73.817 136.906,73.720 137.291 C 73.620 137.691,73.416 137.754,71.541 137.958 C 69.170 138.217,68.856 138.308,68.735 138.767 C 68.686 138.950,68.636 138.818,68.623 138.473 C 68.606 138.015,68.730 137.761,69.085 137.528 C 69.463 137.281,69.600 136.966,69.708 136.105 C 69.819 135.213,69.917 135.000,70.216 135.000 C 70.720 135.000,71.000 134.403,71.000 133.327 C 71.000 132.551,71.061 132.419,71.443 132.364 C 71.884 132.300,71.904 132.252,72.315 130.250 C 72.366 130.003,72.543 129.800,72.709 129.800 C 73.063 129.800,73.313 129.216,73.503 127.948 C 73.612 127.221,73.734 127.010,74.097 126.919 C 74.503 126.817,74.568 126.642,74.693 125.302 C 74.824 123.909,74.868 123.800,75.294 123.800 C 75.807 123.800,75.993 123.365,75.997 122.155 C 76.000 121.531,76.097 121.360,76.600 121.100 C 77.143 120.819,77.200 120.697,77.200 119.806 C 77.200 118.930,77.260 118.793,77.750 118.558 C 78.229 118.329,78.322 118.134,78.467 117.048 C 78.582 116.192,78.723 115.800,78.915 115.800 C 79.258 115.800,79.800 114.560,79.800 113.776 C 79.800 113.337,79.893 113.200,80.193 113.200 C 80.752 113.200,81.000 112.603,81.000 111.257 C 81.000 110.153,81.032 110.076,81.574 109.871 C 82.081 109.680,82.163 109.527,82.285 108.548 C 82.393 107.689,82.511 107.418,82.811 107.339 C 83.251 107.224,83.322 107.062,83.493 105.778 C 83.587 105.071,83.725 104.807,84.087 104.642 C 84.459 104.473,84.589 104.210,84.700 103.402 C 84.791 102.737,85.011 102.193,85.325 101.854 C 85.858 101.279,85.969 100.935,86.047 99.608 C 86.093 98.840,86.170 98.700,86.600 98.600 C 87.032 98.501,87.125 98.329,87.282 97.343 C 87.429 96.427,87.539 96.200,87.837 96.200 C 88.304 96.200,88.600 95.456,88.600 94.287 C 88.600 93.539,88.661 93.400,88.993 93.400 C 89.469 93.400,89.800 92.837,89.800 92.030 C 89.800 91.228,89.983 90.800,90.326 90.800 C 90.664 90.800,90.916 90.199,91.104 88.943 C 91.214 88.207,91.328 88.010,91.671 87.961 C 92.046 87.908,92.121 87.717,92.269 86.449 C 92.418 85.168,92.492 84.984,92.900 84.882 C 93.402 84.756,93.593 84.293,93.597 83.195 C 93.599 82.663,93.748 82.359,94.200 81.963 C 94.683 81.539,94.800 81.277,94.800 80.618 C 94.800 80.168,94.890 79.800,95.000 79.800 C 95.110 79.800,95.200 80.246,95.200 80.791 " stroke="none" fill="#f2981d" fill-rule="evenodd"></path><path id="path4" d="M94.800 80.618 C 94.800 81.277,94.683 81.539,94.200 81.963 C 93.748 82.359,93.599 82.663,93.597 83.195 C 93.593 84.293,93.402 84.756,92.900 84.882 C 92.492 84.984,92.418 85.168,92.269 86.449 C 92.121 87.717,92.046 87.908,91.671 87.961 C 91.328 88.010,91.214 88.207,91.104 88.943 C 90.916 90.199,90.664 90.800,90.326 90.800 C 89.983 90.800,89.800 91.228,89.800 92.030 C 89.800 92.837,89.469 93.400,88.993 93.400 C 88.661 93.400,88.600 93.539,88.600 94.287 C 88.600 95.456,88.304 96.200,87.837 96.200 C 87.539 96.200,87.429 96.427,87.282 97.343 C 87.125 98.329,87.032 98.501,86.600 98.600 C 86.170 98.700,86.093 98.840,86.047 99.608 C 85.969 100.935,85.858 101.279,85.325 101.854 C 85.011 102.193,84.791 102.737,84.700 103.402 C 84.589 104.210,84.459 104.473,84.087 104.642 C 83.725 104.807,83.587 105.071,83.493 105.778 C 83.322 107.062,83.251 107.224,82.811 107.339 C 82.511 107.418,82.393 107.689,82.285 108.548 C 82.163 109.527,82.081 109.680,81.574 109.871 C 81.032 110.076,81.000 110.153,81.000 111.257 C 81.000 112.603,80.752 113.200,80.193 113.200 C 79.893 113.200,79.800 113.337,79.800 113.776 C 79.800 114.560,79.258 115.800,78.915 115.800 C 78.723 115.800,78.582 116.192,78.467 117.048 C 78.322 118.134,78.229 118.329,77.750 118.558 C 77.260 118.793,77.200 118.930,77.200 119.806 C 77.200 120.697,77.143 120.819,76.600 121.100 C 76.097 121.360,76.000 121.531,75.997 122.155 C 75.993 123.365,75.807 123.800,75.294 123.800 C 74.868 123.800,74.824 123.909,74.693 125.302 C 74.568 126.642,74.503 126.817,74.097 126.919 C 73.734 127.010,73.612 127.221,73.503 127.948 C 73.313 129.216,73.063 129.800,72.709 129.800 C 72.543 129.800,72.366 130.003,72.315 130.250 C 71.904 132.252,71.884 132.300,71.443 132.364 C 71.061 132.419,71.000 132.551,71.000 133.327 C 71.000 134.403,70.720 135.000,70.216 135.000 C 69.917 135.000,69.819 135.213,69.708 136.105 C 69.600 136.966,69.463 137.281,69.085 137.528 C 68.730 137.761,68.606 138.015,68.623 138.473 C 68.636 138.818,68.686 138.950,68.735 138.767 C 68.856 138.308,69.170 138.217,71.541 137.958 C 73.416 137.754,73.620 137.691,73.720 137.291 C 73.817 136.906,74.011 136.831,75.216 136.712 C 76.206 136.615,76.600 136.496,76.600 136.295 C 76.600 135.934,77.103 135.669,78.104 135.504 C 79.895 135.209,79.961 135.182,80.085 134.688 C 80.198 134.238,80.302 134.200,81.414 134.200 C 82.562 134.200,82.630 134.172,82.821 133.627 C 83.004 133.100,83.119 133.045,84.243 132.943 C 85.095 132.866,85.523 132.730,85.654 132.497 C 85.925 132.013,87.047 131.600,88.094 131.600 C 88.870 131.600,89.000 131.542,89.000 131.195 C 89.000 130.732,89.688 130.402,90.663 130.397 C 91.385 130.393,91.677 130.241,91.846 129.781 C 91.959 129.474,93.698 129.000,94.712 129.000 C 95.013 129.000,95.195 128.847,95.276 128.526 C 95.378 128.116,95.553 128.034,96.568 127.920 C 97.533 127.810,97.780 127.704,97.953 127.322 C 98.178 126.829,98.968 126.606,100.506 126.602 C 101.217 126.600,101.339 126.529,101.539 126.000 C 101.752 125.434,101.827 125.400,102.858 125.400 C 103.874 125.400,103.968 125.359,104.190 124.825 C 104.415 124.281,104.513 124.242,105.974 124.114 C 107.453 123.985,107.530 123.954,107.743 123.390 C 107.951 122.838,108.035 122.800,109.033 122.799 C 110.008 122.798,110.129 122.746,110.441 122.199 C 110.754 121.648,110.870 121.600,111.874 121.600 C 113.407 121.600,113.674 121.474,113.185 120.985 C 112.918 120.718,112.800 120.321,112.800 119.695 C 112.800 118.922,112.729 118.763,112.317 118.607 C 111.803 118.411,111.708 118.205,111.493 116.826 C 111.404 116.257,111.240 115.921,111.023 115.864 C 110.669 115.771,110.200 114.540,110.200 113.703 C 110.200 113.426,110.109 113.200,109.997 113.200 C 109.577 113.200,109.001 111.900,109.001 110.950 C 109.000 110.169,108.936 110.000,108.640 110.000 C 108.095 110.000,107.800 109.594,107.800 108.847 C 107.800 107.968,107.483 107.400,106.993 107.400 C 106.698 107.400,106.599 107.263,106.598 106.850 C 106.593 105.572,106.356 104.800,105.969 104.800 C 105.513 104.800,105.200 104.072,105.200 103.010 C 105.200 102.416,105.112 102.224,104.802 102.143 C 104.366 102.029,104.000 101.262,104.000 100.463 C 104.000 100.183,103.742 99.659,103.426 99.299 C 103.060 98.882,102.802 98.312,102.714 97.723 C 102.605 96.997,102.494 96.800,102.195 96.800 C 101.645 96.800,101.400 96.193,101.400 94.835 C 101.400 93.747,101.359 93.633,100.924 93.524 C 100.416 93.396,100.207 92.910,100.203 91.845 C 100.201 91.330,100.092 91.149,99.695 90.998 C 99.129 90.783,99.081 90.683,98.906 89.371 C 98.814 88.680,98.682 88.416,98.392 88.340 C 97.946 88.223,97.879 88.068,97.699 86.727 C 97.602 86.004,97.471 85.729,97.188 85.655 C 96.788 85.550,96.403 84.526,96.401 83.563 C 96.400 83.218,96.268 82.985,96.030 82.910 C 95.511 82.745,95.200 81.950,95.200 80.791 C 95.200 80.246,95.110 79.800,95.000 79.800 C 94.890 79.800,94.800 80.168,94.800 80.618 " stroke="none" fill="#f18c12" fill-rule="evenodd"></path></g></svg>