<?xml version="1.0" encoding="UTF-8" standalone="no"?>
<svg
   id="svg"
   version="1.1"
   width="78.773361"
   height="79.165009"
   viewBox="0 0 78.773361 79.165009"
   sodipodi:docname="apify.svg"
   inkscape:version="1.2.1 (9c6d41e410, 2022-07-14, custom)"
   xmlns:inkscape="http://www.inkscape.org/namespaces/inkscape"
   xmlns:sodipodi="http://sodipodi.sourceforge.net/DTD/sodipodi-0.dtd"
   xmlns="http://www.w3.org/2000/svg"
   xmlns:svg="http://www.w3.org/2000/svg">
  <defs
     id="defs11" />
  <sodipodi:namedview
     id="namedview9"
     pagecolor="#ffffff"
     bordercolor="#666666"
     borderopacity="1.0"
     inkscape:showpageshadow="2"
     inkscape:pageopacity="0.0"
     inkscape:pagecheckerboard="0"
     inkscape:deskcolor="#d1d1d1"
     showgrid="false"
     inkscape:zoom="3.3925"
     inkscape:cx="150.479"
     inkscape:cy="39.498895"
     inkscape:window-width="3840"
     inkscape:window-height="2083"
     inkscape:window-x="0"
     inkscape:window-y="40"
     inkscape:window-maximized="1"
     inkscape:current-layer="svg" />
  <path
     id="path2"
     d="m 63.877252,0.06439691 c -0.33,0.047 -1.275,0.26 -2.1,0.472 -0.825,0.212 -2.85,0.49199999 -4.5,0.62299999 -1.65,0.13 -3.112,0.326 -3.25,0.434 -0.404,0.317 -0.308,1.819 0.151,2.348 0.22,0.254 0.49,0.796 0.6,1.204 0.11,0.409 0.393,0.988 0.629,1.288 0.236,0.299 0.506,0.958 0.6,1.464 0.095,0.506 0.341,1.105 0.546,1.331 0.206,0.227 0.488,0.7720001 0.627,1.2120001 0.139,0.44 0.406,1.025 0.593,1.3 0.187,0.275 0.498,0.993 0.691,1.596 0.193,0.603 0.509,1.323 0.702,1.6 0.193,0.277 0.495,0.934 0.671,1.459 0.176,0.526 0.504,1.19 0.73,1.477 0.225,0.287 0.41,0.741 0.41,1.008 0,0.517 0.3,1.188 0.717,1.606 0.14,0.14 0.394,0.733 0.564,1.318 0.17,0.585 0.494,1.276 0.719,1.537 0.226,0.26 0.462,0.704 0.523,0.986 0.241,1.096 0.509,1.791 0.778,2.014 0.154,0.128 0.418,0.706 0.586,1.284 0.168,0.579 0.479,1.272 0.69,1.541 0.212,0.268 0.485,0.863 0.609,1.322 0.124,0.459 0.336,0.951 0.472,1.093 0.333,0.349 0.742,1.298 0.742,1.722 0,0.189 0.216,0.662 0.481,1.051 0.264,0.39 0.624,1.19 0.799,1.78 0.175,0.59 0.447,1.215 0.605,1.389 0.157,0.174 0.438,0.767 0.624,1.317 0.186,0.55 0.496,1.225 0.688,1.5 0.193,0.275 0.414,0.725 0.492,1 0.078,0.275 0.4,1.04 0.715,1.7 0.315,0.66 0.621,1.431 0.679,1.713 0.058,0.282 0.291,0.726 0.517,0.987 0.226,0.261 0.466,0.705 0.534,0.987 0.067,0.282 0.425,1.089 0.794,1.793 0.37,0.704 0.672,1.427 0.672,1.606 0,0.587 1.403,2.614 1.808,2.614 0.407,0 0.79,-0.549 0.795,-1.137 0.002,-0.2 0.131,-0.588 0.288,-0.863 0.806,-1.415 0.909,-1.865 0.905,-3.974 -0.006,-2.763 -0.515,-10.014 -0.803,-11.426 -0.123,-0.605 -0.305,-3.62 -0.403,-6.7 -0.158,-4.954 -0.394,-7.822 -0.682,-8.287 -0.051,-0.082 -0.233,-2.571 -0.404,-5.531 -0.36,-6.2210001 -0.399,-6.5070001 -1.031,-7.6000001 -0.26,-0.449 -0.473,-0.952 -0.473,-1.117 0,-1.201 -3.647,-4.574 -5.455,-5.045 -0.605,-0.15699999 -1.402,-0.44199999 -1.771,-0.63299999 -0.667,-0.345 -2.69,-0.535 -3.874,-0.363 m -30.7,6.49699999 c -0.825,0.094 -1.725,0.27 -2,0.393 -0.275,0.123 -1.94,0.312 -3.7,0.421 -1.76,0.109 -3.965,0.363 -4.9,0.564 -2.025,0.435 -4.36,0.728 -7.931,0.996 -1.448,0.108 -3.023,0.327 -3.5,0.485 -0.478,0.158 -1.5620004,0.397 -2.4090004,0.53 -0.847,0.1330001 -1.702,0.3880001 -1.9,0.5660001 -0.198,0.178 -0.765,0.517 -1.26,0.752 -1.093,0.52 -3.294,2.486 -3.733,3.335 -0.175,0.34 -0.442,0.741 -0.593,0.891 -0.15,0.151 -0.32800003,0.515 -0.39400003,0.81 -0.067,0.295 -0.292,1.131 -0.5,1.858 -0.477,1.659 -0.477,2.084 0.004,5.278 0.215,1.43 0.488,3.493 0.607,4.584 0.11900003,1.091 0.30600003,2.092 0.41500003,2.224 0.11,0.131 0.289,1.219 0.399,2.416 0.257,2.805 0.374,3.669 0.732,5.376 0.413,1.974 0.849,5.048 0.857,6.037 0.003,0.461 0.231,1.766 0.506,2.9 0.275,1.135 0.505,2.513 0.511,3.063 0.012,1.079 0.37,3.416 0.842,5.5 0.163,0.715 0.355,1.975 0.428,2.8 0.201,2.276 0.551,4.662 0.735,5.019 0.091,0.176 0.264,1.121 0.386,2.1 0.323,2.611 1.114,3.458 1.509,1.617 0.075,-0.35 0.388,-1.131 0.696,-1.736 0.308,-0.605 0.888,-1.82 1.2900004,-2.7 0.402,-0.88 0.83,-1.78 0.952,-2 0.642,-1.156 2.151,-4.418 2.151,-4.649 0,-0.095 0.209,-0.457 0.465,-0.804 0.256,-0.347 0.589,-1.017 0.739,-1.489 0.151,-0.472 0.431,-1.066 0.623,-1.319 0.191,-0.254 0.494,-0.9 0.672,-1.435 0.177,-0.535 0.448,-1.077 0.601,-1.204 0.153,-0.127 0.43,-0.687 0.615,-1.244 0.185,-0.558 0.55,-1.329 0.811,-1.713 0.261,-0.384 0.474,-0.823 0.474,-0.974 0,-0.151 0.26,-0.746 0.578,-1.322 0.319,-0.576 0.683,-1.377 0.811,-1.781 0.127,-0.404 0.362,-0.842 0.521,-0.974 0.159,-0.132 0.424,-0.694 0.588,-1.249 0.165,-0.555 0.433,-1.157 0.596,-1.336 0.162,-0.18 0.435,-0.723 0.606,-1.207 0.171,-0.484 0.445,-1.029 0.61,-1.211 0.165,-0.182 0.455,-0.771 0.646,-1.31 0.19,-0.538 0.548,-1.305 0.795,-1.703 0.247,-0.398 0.449,-0.858 0.449,-1.022 0,-0.164 0.235,-0.644 0.522,-1.067 0.287,-0.423 0.641,-1.165 0.786,-1.647 0.145,-0.483 0.392,-1.027 0.547,-1.209 0.156,-0.182 0.438,-0.736 0.627,-1.231 0.189,-0.495 0.552,-1.218 0.806,-1.608 0.254,-0.389 0.524,-0.992 0.601,-1.34 0.076,-0.348 0.3,-0.84 0.496,-1.093 0.197,-0.252 0.479,-0.819 0.627,-1.259 0.147,-0.44 0.48,-1.093 0.739,-1.451 0.259,-0.359 0.602,-1.09 0.761,-1.626 0.159,-0.536 0.409,-1.075 0.556,-1.196 0.146,-0.122 0.388,-0.605 0.536,-1.074 0.149,-0.469 0.436,-1.095 0.637,-1.39 0.202,-0.295 0.503,-0.921 0.668,-1.39 0.166,-0.469 0.434,-0.999 0.595,-1.178 0.162,-0.178 0.415,-0.723 0.563,-1.21 0.148,-0.487 0.509,-1.235 0.801,-1.663 0.293,-0.4280001 0.532,-0.9320001 0.532,-1.1200001 0,-0.188 0.264,-0.735 0.587,-1.217 0.947,-1.41 0.413,-1.593 -3.387,-1.164"
     stroke="none"
     fill="#45b77b"
     fill-rule="evenodd"
     sodipodi:nodetypes="cscccccccssssccscscccccscscscscssssccssccccccccsccccsscccssccccccscccccccccccsscsscccscssccsccsscsssccscccccscccccscscc" />
  <path
     id="path3"
     d="m 44.888252,18.985397 c -0.171,0.244 -0.313,0.536 -0.315,0.65 -0.002,0.113 -0.272,0.601 -0.6,1.085 -0.328,0.484 -0.596,1.055 -0.596,1.269 0,0.214 -0.193,0.66 -0.428,0.99 -0.235,0.33 -0.58,1.092 -0.765,1.693 -0.186,0.6 -0.484,1.261 -0.661,1.469 -0.178,0.207 -0.436,0.765 -0.574,1.238 -0.137,0.474 -0.446,1.178 -0.685,1.566 -0.24,0.388 -0.498,0.991 -0.575,1.341 -0.077,0.349 -0.317,0.861 -0.534,1.136 -0.216,0.276 -0.562,0.991 -0.768,1.59 -0.206,0.599 -0.512,1.3 -0.68,1.558 -0.168,0.259 -0.455,0.92 -0.638,1.47 -0.183,0.55 -0.495,1.18 -0.694,1.4 -0.199,0.22 -0.462,0.777 -0.584,1.237 -0.122,0.46 -0.444,1.225 -0.716,1.7 -0.271,0.475 -0.494,1.008 -0.496,1.185 -10e-4,0.177 -0.223,0.648 -0.493,1.046 -0.27,0.398 -0.595,1.107 -0.721,1.576 -0.126,0.469 -0.389,1.078 -0.585,1.354 -0.196,0.276 -0.508,0.952 -0.694,1.502 -0.186,0.55 -0.467,1.143 -0.624,1.317 -0.158,0.174 -0.431,0.804 -0.608,1.4 -0.177,0.596 -0.479,1.308 -0.672,1.583 -0.192,0.275 -0.463,0.85 -0.602,1.277 -0.138,0.428 -0.466,1.093 -0.727,1.478 -0.262,0.386 -0.476,0.883 -0.476,1.105 0,0.223 -0.222,0.784 -0.494,1.248 -0.272,0.464 -0.636,1.261 -0.81,1.773 -0.174,0.512 -0.536,1.255 -0.806,1.653 -0.269,0.397 -0.49,0.891 -0.49,1.098 0,0.207 -0.224,0.715 -0.498,1.129 -0.274,0.414 -0.636,1.218 -0.805,1.786 -0.169,0.569 -0.432,1.159 -0.584,1.312 -0.153,0.152 -0.392,0.674 -0.532,1.159 -0.139,0.485 -0.428,1.136 -0.641,1.446 -0.213,0.311 -0.513,0.979 -0.665,1.486 -0.152,0.507 -0.411,1.069 -0.574,1.249 -0.164,0.181 -0.475,0.844 -0.692,1.473 -0.216,0.63 -0.577,1.378 -0.801,1.663 -0.224,0.286 -0.408,0.683 -0.408,0.883 0,0.483 -0.394,1.387 -0.821,1.882 -0.588,0.682 -0.703,2.191 -0.194,2.547 0.509,0.356 1.973,0.163 3.452,-0.455 0.515,-0.216 1.134,-0.392 1.375,-0.392 0.241,0 0.947,-0.258 1.569,-0.574 0.621,-0.316 1.442,-0.641 1.824,-0.721 0.382,-0.081 1.145,-0.396 1.695,-0.7 0.55,-0.305 1.3,-0.609 1.667,-0.678 0.367,-0.068 0.907,-0.294 1.2,-0.503 0.293,-0.209 0.983,-0.515 1.533,-0.68 0.55,-0.166 1.463,-0.536 2.029,-0.822 0.566,-0.287 1.16,-0.522 1.32,-0.522 0.16,0 0.705,-0.22 1.211,-0.489 0.506,-0.269 1.306,-0.599 1.78,-0.734 0.473,-0.135 1.01,-0.373 1.193,-0.527 0.183,-0.155 0.897,-0.457 1.585,-0.671 0.689,-0.214 1.54,-0.567 1.891,-0.784 0.351,-0.217 0.808,-0.395 1.015,-0.396 0.207,0 1.001,-0.315 1.765,-0.7 0.763,-0.384 1.52,-0.699 1.682,-0.699 0.162,0 0.673,-0.222 1.136,-0.493 0.463,-0.272 1.281,-0.59 1.817,-0.707 0.537,-0.118 1.21,-0.383 1.495,-0.59 0.285,-0.207 0.991,-0.516 1.567,-0.687 0.577,-0.172 1.333,-0.485 1.681,-0.696 0.348,-0.211 0.948,-0.447 1.333,-0.525 0.385,-0.078 1.06,-0.345 1.5,-0.595 0.44,-0.249 1.16,-0.566 1.6,-0.704 0.44,-0.138 1.098,-0.432 1.463,-0.652 0.365,-0.22 1.13,-0.503 1.7,-0.629 0.85,-0.189 1.049,-0.314 1.103,-0.695 0.072,-0.5 -0.319,-1.627 -0.563,-1.627 -0.081,0 -0.299,-0.48 -0.484,-1.067 -0.185,-0.588 -0.464,-1.251 -0.621,-1.476 -0.157,-0.224 -0.433,-0.846 -0.613,-1.382 -0.18,-0.536 -0.453,-1.117 -0.607,-1.292 -0.154,-0.174 -0.428,-0.759 -0.609,-1.3 -0.181,-0.54 -0.486,-1.209 -0.678,-1.485 -0.192,-0.276 -0.449,-0.872 -0.571,-1.324 -0.122,-0.452 -0.405,-1.055 -0.629,-1.339 -0.223,-0.285 -0.579,-1.018 -0.789,-1.628 -0.21,-0.611 -0.523,-1.312 -0.697,-1.559 -0.173,-0.246 -0.405,-0.781 -0.515,-1.189 -0.11,-0.408 -0.327,-0.868 -0.482,-1.023 -0.155,-0.155 -0.437,-0.766 -0.627,-1.359 -0.19,-0.592 -0.498,-1.302 -0.686,-1.577 -0.187,-0.275 -0.461,-0.86 -0.608,-1.3 -0.147,-0.44 -0.456,-1.07 -0.688,-1.4 -0.232,-0.33 -0.539,-1.005 -0.683,-1.5 -0.143,-0.495 -0.431,-1.139 -0.639,-1.431 -0.207,-0.292 -0.376,-0.652 -0.374,-0.8 0.002,-0.148 -0.325,-0.944 -0.726,-1.769 -0.401,-0.825 -1.042,-2.175 -1.426,-3 -0.383,-0.825 -0.97,-2.085 -1.303,-2.8 -0.333,-0.715 -0.852,-1.84 -1.153,-2.5 -0.301,-0.66 -0.819,-1.785 -1.15,-2.5 -0.332,-0.715 -0.669,-1.525 -0.749,-1.8 -0.305,-1.053 -0.705,-1.24 -1.185,-0.555 m 0.689,1.346 c 0,1.159 0.311,1.954 0.83,2.119 0.238,0.075 0.37,0.308 0.371,0.653 0.002,0.963 0.387,1.987 0.787,2.092 0.283,0.074 0.414,0.349 0.511,1.072 0.18,1.341 0.247,1.496 0.693,1.613 0.29,0.076 0.422,0.34 0.514,1.031 0.175,1.312 0.223,1.412 0.789,1.627 0.397,0.151 0.506,0.332 0.508,0.847 0.004,1.065 0.213,1.551 0.721,1.679 0.435,0.109 0.476,0.223 0.476,1.311 0,1.358 0.245,1.965 0.795,1.965 0.299,0 0.41,0.197 0.519,0.923 0.088,0.589 0.346,1.159 0.712,1.576 0.316,0.36 0.574,0.884 0.574,1.164 0,0.799 0.366,1.566 0.802,1.68 0.31,0.081 0.398,0.273 0.398,0.867 0,1.062 0.313,1.79 0.769,1.79 0.387,0 0.624,0.772 0.629,2.05 0.001,0.413 0.1,0.55 0.395,0.55 0.49,0 0.807,0.568 0.807,1.447 0,0.747 0.295,1.153 0.84,1.153 0.296,0 0.36,0.169 0.361,0.95 0,0.95 0.576,2.25 0.996,2.25 0.112,0 0.203,0.226 0.203,0.503 0,0.837 0.469,2.068 0.823,2.161 0.217,0.057 0.381,0.393 0.47,0.962 0.215,1.379 0.31,1.585 0.824,1.781 0.412,0.156 0.483,0.315 0.483,1.088 0,0.626 0.118,1.023 0.385,1.29 0.489,0.489 0.222,0.615 -1.311,0.615 -1.004,0 -1.12,0.048 -1.433,0.599 -0.312,0.547 -0.433,0.599 -1.408,0.6 -0.998,0.001 -1.082,0.039 -1.29,0.591 -0.213,0.564 -0.29,0.595 -1.769,0.724 -1.461,0.128 -1.559,0.167 -1.784,0.711 -0.222,0.534 -0.316,0.575 -1.332,0.575 -1.031,0 -1.106,0.034 -1.319,0.6 -0.2,0.529 -0.322,0.6 -1.033,0.602 -1.538,0.004 -2.328,0.227 -2.553,0.72 -0.173,0.382 -0.42,0.488 -1.385,0.598 -1.015,0.114 -1.19,0.196 -1.292,0.606 -0.081,0.321 -0.263,0.474 -0.564,0.474 -1.014,0 -2.753,0.474 -2.866,0.781 -0.169,0.46 -0.461,0.612 -1.183,0.616 -0.975,0.005 -1.663,0.335 -1.663,0.798 0,0.347 -0.13,0.405 -0.906,0.405 -1.047,0 -2.169,0.413 -2.44,0.897 -0.131,0.233 -0.559,0.369 -1.411,0.446 -1.124,0.102 -1.239,0.157 -1.422,0.684 -0.191,0.545 -0.259,0.573 -1.407,0.573 -1.112,0 -1.216,0.038 -1.329,0.488 -0.124,0.494 -0.19,0.521 -1.981,0.816 -1.001,0.165 -1.504,0.43 -1.504,0.791 0,0.201 -0.394,0.32 -1.384,0.417 -1.205,0.119 -1.399,0.194 -1.496,0.579 -0.1,0.4 -0.304,0.463 -2.179,0.667 -2.371,0.259 -2.685,0.35 -2.806,0.809 -0.049,0.183 -0.099,0.051 -0.112,-0.294 -0.017,-0.458 0.107,-0.712 0.462,-0.945 0.378,-0.247 0.515,-0.562 0.623,-1.423 0.111,-0.892 0.209,-1.105 0.508,-1.105 0.504,0 0.784,-0.597 0.784,-1.673 0,-0.776 0.061,-0.908 0.443,-0.963 0.441,-0.064 0.461,-0.112 0.872,-2.114 0.051,-0.247 0.228,-0.45 0.394,-0.45 0.354,0 0.604,-0.584 0.794,-1.852 0.109,-0.727 0.231,-0.938 0.594,-1.029 0.406,-0.102 0.471,-0.277 0.596,-1.617 0.131,-1.393 0.175,-1.502 0.601,-1.502 0.513,0 0.699,-0.435 0.703,-1.645 0.003,-0.624 0.1,-0.795 0.603,-1.055 0.543,-0.281 0.6,-0.403 0.6,-1.294 0,-0.876 0.06,-1.013 0.55,-1.248 0.479,-0.229 0.572,-0.424 0.717,-1.51 0.115,-0.856 0.256,-1.248 0.448,-1.248 0.343,0 0.885,-1.24 0.885,-2.024 0,-0.439 0.093,-0.576 0.393,-0.576 0.559,0 0.807,-0.597 0.807,-1.943 0,-1.104 0.032,-1.181 0.574,-1.386 0.507,-0.191 0.589,-0.344 0.711,-1.323 0.108,-0.859 0.226,-1.13 0.526,-1.209 0.44,-0.115 0.511,-0.277 0.682,-1.561 0.094,-0.707 0.232,-0.971 0.594,-1.136 0.372,-0.169 0.502,-0.432 0.613,-1.24 0.091,-0.665 0.311,-1.209 0.625,-1.548 0.533,-0.575 0.644,-0.919 0.722,-2.246 0.046,-0.768 0.123,-0.908 0.553,-1.008 0.432,-0.099 0.525,-0.271 0.682,-1.257 0.147,-0.916 0.257,-1.143 0.555,-1.143 0.467,0 0.763,-0.744 0.763,-1.913 0,-0.748 0.061,-0.887 0.393,-0.887 0.476,0 0.807,-0.563 0.807,-1.37 0,-0.802 0.183,-1.23 0.526,-1.23 0.338,0 0.59,-0.601 0.778,-1.857 0.11,-0.736 0.224,-0.933 0.567,-0.982 0.375,-0.053 0.45,-0.244 0.598,-1.512 0.149,-1.281 0.223,-1.465 0.631,-1.567 0.502,-0.126 0.693,-0.589 0.697,-1.687 0.002,-0.532 0.151,-0.836 0.603,-1.232 0.483,-0.424 0.6,-0.686 0.6,-1.345 0,-0.45 0.09,-0.818 0.2,-0.818 0.11,0 0.2,0.446 0.2,0.991"
     stroke="none"
     fill="#f2981d"
     fill-rule="evenodd" />
  <path
     id="path4"
     d="m 45.177252,20.158397 c 0,0.659 -0.117,0.921 -0.6,1.345 -0.452,0.396 -0.601,0.7 -0.603,1.232 -0.004,1.098 -0.195,1.561 -0.697,1.687 -0.408,0.102 -0.482,0.286 -0.631,1.567 -0.148,1.268 -0.223,1.459 -0.598,1.512 -0.343,0.049 -0.457,0.246 -0.567,0.982 -0.188,1.256 -0.44,1.857 -0.778,1.857 -0.343,0 -0.526,0.428 -0.526,1.23 0,0.807 -0.331,1.37 -0.807,1.37 -0.332,0 -0.393,0.139 -0.393,0.887 0,1.169 -0.296,1.913 -0.763,1.913 -0.298,0 -0.408,0.227 -0.555,1.143 -0.157,0.986 -0.25,1.158 -0.682,1.257 -0.43,0.1 -0.507,0.24 -0.553,1.008 -0.078,1.327 -0.189,1.671 -0.722,2.246 -0.314,0.339 -0.534,0.883 -0.625,1.548 -0.111,0.808 -0.241,1.071 -0.613,1.24 -0.362,0.165 -0.5,0.429 -0.594,1.136 -0.171,1.284 -0.242,1.446 -0.682,1.561 -0.3,0.079 -0.418,0.35 -0.526,1.209 -0.122,0.979 -0.204,1.132 -0.711,1.323 -0.542,0.205 -0.574,0.282 -0.574,1.386 0,1.346 -0.248,1.943 -0.807,1.943 -0.3,0 -0.393,0.137 -0.393,0.576 0,0.784 -0.542,2.024 -0.885,2.024 -0.192,0 -0.333,0.392 -0.448,1.248 -0.145,1.086 -0.238,1.281 -0.717,1.51 -0.49,0.235 -0.55,0.372 -0.55,1.248 0,0.891 -0.057,1.013 -0.6,1.294 -0.503,0.26 -0.6,0.431 -0.603,1.055 -0.004,1.21 -0.19,1.645 -0.703,1.645 -0.426,0 -0.47,0.109 -0.601,1.502 -0.125,1.34 -0.19,1.515 -0.596,1.617 -0.363,0.091 -0.485,0.302 -0.594,1.029 -0.19,1.268 -0.44,1.852 -0.794,1.852 -0.166,0 -0.343,0.203 -0.394,0.45 -0.411,2.002 -0.431,2.05 -0.872,2.114 -0.382,0.055 -0.443,0.187 -0.443,0.963 0,1.076 -0.28,1.673 -0.784,1.673 -0.299,0 -0.397,0.213 -0.508,1.105 -0.108,0.861 -0.245,1.176 -0.623,1.423 -0.355,0.233 -0.479,0.487 -0.462,0.945 0.013,0.345 0.063,0.477 0.112,0.294 0.121,-0.459 0.435,-0.55 2.806,-0.809 1.875,-0.204 2.079,-0.267 2.179,-0.667 0.097,-0.385 0.291,-0.46 1.496,-0.579 0.99,-0.097 1.384,-0.216 1.384,-0.417 0,-0.361 0.503,-0.626 1.504,-0.791 1.791,-0.295 1.857,-0.322 1.981,-0.816 0.113,-0.45 0.217,-0.488 1.329,-0.488 1.148,0 1.216,-0.028 1.407,-0.573 0.183,-0.527 0.298,-0.582 1.422,-0.684 0.852,-0.077 1.28,-0.213 1.411,-0.446 0.271,-0.484 1.393,-0.897 2.44,-0.897 0.776,0 0.906,-0.058 0.906,-0.405 0,-0.463 0.688,-0.793 1.663,-0.798 0.722,-0.004 1.014,-0.156 1.183,-0.616 0.113,-0.307 1.852,-0.781 2.866,-0.781 0.301,0 0.483,-0.153 0.564,-0.474 0.102,-0.41 0.277,-0.492 1.292,-0.606 0.965,-0.11 1.212,-0.216 1.385,-0.598 0.225,-0.493 1.015,-0.716 2.553,-0.72 0.711,-0.002 0.833,-0.073 1.033,-0.602 0.213,-0.566 0.288,-0.6 1.319,-0.6 1.016,0 1.11,-0.041 1.332,-0.575 0.225,-0.544 0.323,-0.583 1.784,-0.711 1.479,-0.129 1.556,-0.16 1.769,-0.724 0.208,-0.552 0.292,-0.59 1.29,-0.591 0.975,-10e-4 1.096,-0.053 1.408,-0.6 0.313,-0.551 0.429,-0.599 1.433,-0.599 1.533,0 1.8,-0.126 1.311,-0.615 -0.267,-0.267 -0.385,-0.664 -0.385,-1.29 0,-0.773 -0.071,-0.932 -0.483,-1.088 -0.514,-0.196 -0.609,-0.402 -0.824,-1.781 -0.089,-0.569 -0.253,-0.905 -0.47,-0.962 -0.354,-0.093 -0.823,-1.324 -0.823,-2.161 0,-0.277 -0.091,-0.503 -0.203,-0.503 -0.42,0 -0.996,-1.3 -0.996,-2.25 -0.001,-0.781 -0.065,-0.95 -0.361,-0.95 -0.545,0 -0.84,-0.406 -0.84,-1.153 0,-0.879 -0.317,-1.447 -0.807,-1.447 -0.295,0 -0.394,-0.137 -0.395,-0.55 -0.005,-1.278 -0.242,-2.05 -0.629,-2.05 -0.456,0 -0.769,-0.728 -0.769,-1.79 0,-0.594 -0.088,-0.786 -0.398,-0.867 -0.436,-0.114 -0.802,-0.881 -0.802,-1.68 0,-0.28 -0.258,-0.804 -0.574,-1.164 -0.366,-0.417 -0.624,-0.987 -0.712,-1.576 -0.109,-0.726 -0.22,-0.923 -0.519,-0.923 -0.55,0 -0.795,-0.607 -0.795,-1.965 0,-1.088 -0.041,-1.202 -0.476,-1.311 -0.508,-0.128 -0.717,-0.614 -0.721,-1.679 -0.002,-0.515 -0.111,-0.696 -0.508,-0.847 -0.566,-0.215 -0.614,-0.315 -0.789,-1.627 -0.092,-0.691 -0.224,-0.955 -0.514,-1.031 -0.446,-0.117 -0.513,-0.272 -0.693,-1.613 -0.097,-0.723 -0.228,-0.998 -0.511,-1.072 -0.4,-0.105 -0.785,-1.129 -0.787,-2.092 -0.001,-0.345 -0.133,-0.578 -0.371,-0.653 -0.519,-0.165 -0.83,-0.96 -0.83,-2.119 0,-0.545 -0.09,-0.991 -0.2,-0.991 -0.11,0 -0.2,0.368 -0.2,0.818"
     stroke="none"
     fill="#f18c12"
     fill-rule="evenodd" />
</svg>
