<svg width="250" height="250" viewBox="0 0 250 250" fill="none" xmlns="http://www.w3.org/2000/svg">
<path d="M68.3008 66.2564C65.4599 66.6419 62.723 67.5825 60.2471 69.0246C57.7712 70.4666 55.6048 72.3816 53.8721 74.6599C52.1393 76.9382 50.8742 79.5351 50.1493 82.3017C49.4243 85.0684 49.2537 87.9506 49.6472 90.7831V90.7831L62.5447 182.64L116.802 59.4962L68.3008 66.2564Z" fill="#97D700"/>
<path d="M199.182 142.792L194.107 72.1672C193.683 66.4246 190.994 61.0838 186.63 57.3145C182.265 53.5452 176.581 51.6545 170.822 52.0566C170.326 52.0741 169.833 52.1271 169.346 52.2151L148.421 55.0913L194.425 157.966C197.882 153.692 199.582 148.268 199.182 142.792Z" fill="#71C5E8"/>
<path d="M82.3335 204.981C86.0578 205.407 89.8292 204.861 93.2782 203.396L172.275 170.15L134.639 86.1517L82.3335 204.981Z" fill="#FF9013"/>
</svg>
