<svg xmlns="http://www.w3.org/2000/svg" width="250" height="250" fill="none"><path fill="#97D700" d="M53.413 45.96a27.696 27.696 0 0 0-10.187 3.486 27.513 27.513 0 0 0-8.063 7.1 27.312 27.312 0 0 0-4.71 9.626 27.21 27.21 0 0 0-.634 10.685l16.314 115.715 68.63-155.129-61.35 8.516Z"/><path fill="#71C5E8" d="m218.966 142.374-6.419-88.968a27.356 27.356 0 0 0-9.459-18.711 27.722 27.722 0 0 0-19.996-6.624c-.626.022-1.25.09-1.867.2l-26.467 3.623 58.191 129.595a27.165 27.165 0 0 0 6.017-19.115Z"/><path fill="#FF9013" d="M71.164 220.716a27.53 27.53 0 0 0 13.843-1.997l99.924-41.881-47.607-105.816-66.16 149.694Z"/></svg>