<svg xmlns="http://www.w3.org/2000/svg" width="114.1pt" height="86.933" preserveAspectRatio="xMidYMid" version="1.0" viewBox="0 0 114.1 65.2"><path d="M14.1 29.3C7.9 45.4 2.2 60.1 1.4 61.9L0 65.2l7.8-.3 7.8-.3 2.4-6.8 2.4-6.8 12.5.3 12.5.3 2.1 5.5c1.2 3 2.5 6.1 2.9 6.7.9 1.4 14.7 1.9 14.7.5 0-.4-5.5-14.9-12.3-32.2L40.6.6 33 .3 25.4 0zm23.4-1.7c2 6.1 3.6 11.6 3.6 12.3 0 .9-2.4 1.2-8.6 1.2-6.5 0-8.5-.3-8.1-1.3.2-.6 2.2-6.5 4.3-12.9 2.1-6.5 4.1-11.4 4.5-11 .4.4 2.3 5.7 4.3 11.7zM73.1 32.6v32.5h15v-25h22v-11h-22v-17h26V.1h-41z"/></svg>