<?xml version="1.0" standalone="no"?>
<!DOCTYPE svg PUBLIC "-//W3C//DTD SVG 20010904//EN"
 "http://www.w3.org/TR/2001/REC-SVG-20010904/DTD/svg10.dtd">
<svg version="1.0" xmlns="http://www.w3.org/2000/svg"
 width="180.000000pt" height="180.000000pt" viewBox="0 0 180.000000 180.000000"
 preserveAspectRatio="xMidYMid meet">

<g transform="translate(0.000000,180.000000) scale(0.100000,-0.100000)"
fill="#000000" stroke="none">
<path d="M460 948 c-62 -161 -119 -308 -127 -326 l-14 -33 78 3 78 3 24 68 24
68 125 -3 125 -3 21 -55 c12 -30 25 -61 29 -67 9 -14 147 -19 147 -5 0 4 -55
149 -123 322 l-122 315 -76 3 -76 3 -113 -293z m234 17 c20 -61 36 -116 36
-123 0 -9 -24 -12 -86 -12 -65 0 -85 3 -81 13 2 6 22 65 43 129 21 65 41 114
45 110 4 -4 23 -57 43 -117z"/>
<path d="M1050 915 l0 -325 75 0 75 0 0 125 0 125 110 0 110 0 0 55 0 55 -110
0 -110 0 0 85 0 85 130 0 130 0 0 60 0 60 -205 0 -205 0 0 -325z"/>
</g>
</svg>
