<svg width="250" height="250" viewBox="0 0 250 250" fill="none" xmlns="http://www.w3.org/2000/svg">
<path d="M59 89C59 72.4315 72.4315 59 89 59H161C177.569 59 191 72.4315 191 89V161C191 177.569 177.569 191 161 191H89C72.4315 191 59 177.569 59 161V89Z" fill="url(#paint0_linear_2_7339)"/>
<path d="M101.926 155.099L101.938 155.103L97.4849 162.817C95.8594 165.632 92.2589 166.597 89.4433 164.971C86.6279 163.346 85.6631 159.746 87.2886 156.93L90.5693 151.248L90.8841 150.703C91.4464 149.894 92.8339 148.5 95.6094 148.762C95.6094 148.762 102.141 149.471 102.613 152.865C102.613 152.865 102.678 153.982 101.926 155.099ZM165.09 135.398H151.203C150.257 135.335 149.844 134.997 149.682 134.801L149.671 134.783L134.806 109.035L134.786 109.048L133.895 107.769C132.434 105.535 130.113 111.25 130.113 111.25C127.343 117.618 130.507 124.858 131.61 127.046L152.257 162.809C153.883 165.624 157.483 166.589 160.299 164.963C163.114 163.338 164.079 159.738 162.453 156.922L157.29 147.979C157.19 147.763 157.016 147.174 158.075 147.172H165.09C168.341 147.172 170.977 144.536 170.977 141.285C170.977 138.034 168.341 135.398 165.09 135.398ZM138.116 143.401C138.116 143.401 138.858 147.172 135.989 147.172H133.121V147.172H84.6524C81.4012 147.172 78.7656 144.536 78.7656 141.285C78.7656 138.034 81.4012 135.398 84.6524 135.398H97.8506C99.9814 135.275 100.487 134.045 100.487 134.045L100.498 134.051L117.726 104.211L117.721 104.21C118.035 103.633 117.774 103.089 117.728 103.002L112.039 93.1479C110.413 90.3324 111.378 86.732 114.193 85.1065C117.009 83.4809 120.609 84.4456 122.235 87.2612L124.873 91.8317L127.508 87.2693C129.133 84.4537 132.733 83.489 135.549 85.1146C138.365 86.7402 139.329 90.3406 137.704 93.156L113.73 134.679C113.625 134.932 113.593 135.328 114.373 135.398H128.703L128.706 135.538C128.706 135.538 136.988 135.667 138.116 143.401Z" fill="white"/>
<defs>
<linearGradient id="paint0_linear_2_7339" x1="125" y1="191" x2="125" y2="59" gradientUnits="userSpaceOnUse">
<stop stop-color="#1D76F2"/>
<stop offset="1" stop-color="#1AC2FB"/>
</linearGradient>
</defs>
</svg>
