<svg width="250" height="250" viewBox="0 0 250 250" fill="none" xmlns="http://www.w3.org/2000/svg">
<g clip-path="url(#clip0_2_7332)">
<path d="M64.5967 100.83L84.8145 138.079C86.2158 140.668 89.6188 142.66 92.4212 142.66H133.658C136.46 142.66 137.661 140.668 136.26 138.079L115.842 100.631C114.441 98.0412 111.038 96.0493 108.235 96.0493H66.9988H66.7987C64.3965 96.2486 63.1955 98.2405 64.5967 100.83Z" fill="#7AD143"/>
<path d="M142.862 144.054L155.073 166.164C155.873 167.757 157.875 168.953 159.676 168.953L184.098 168.554C185.7 168.554 186.5 167.359 185.7 165.766L173.489 143.656C172.688 142.062 170.686 140.867 168.885 140.867L144.263 141.066C142.662 141.464 141.861 142.659 142.862 144.054Z" fill="#7AD143"/>
<path d="M142.87 60.3943L118.449 90.8705C116.847 92.8623 116.647 96.6471 118.048 99.2366L138.466 136.286C139.868 138.876 142.27 139.274 144.071 137.083L168.693 106.606C170.294 104.615 170.495 100.83 169.093 98.2406L148.475 61.1911C147.675 59.7968 146.474 59 145.273 59C144.472 59 143.671 59.3984 142.87 60.3943Z" fill="#00C2FF"/>
<path d="M137.261 144.453L122.648 162.579C121.647 163.774 121.447 165.965 122.447 167.559L134.658 189.669C135.459 191.263 137.06 191.462 138.061 190.067L152.674 171.941C153.675 170.746 153.875 168.555 152.874 166.961L140.664 144.851C140.263 144.054 139.463 143.457 138.862 143.656C138.061 143.656 137.661 143.855 137.261 144.453Z" fill="#00C2FF"/>
</g>
<defs>
<clipPath id="clip0_2_7332">
<rect width="123" height="132" fill="white" transform="translate(64 59)"/>
</clipPath>
</defs>
</svg>
