<?xml version="1.0" encoding="UTF-8" standalone="no"?>
<svg xmlns:dc="http://purl.org/dc/elements/1.1/" xmlns:cc="http://creativecommons.org/ns#" xmlns:rdf="http://www.w3.org/1999/02/22-rdf-syntax-ns#" xmlns:svg="http://www.w3.org/2000/svg" xmlns="http://www.w3.org/2000/svg" viewBox="0 0 591.74664 173.37334" height="173.37334" width="591.74664" xml:space="preserve" id="svg2" version="1.1"><metadata id="metadata8"><rdf:RDF><cc:Work rdf:about=""><dc:format>image/svg+xml</dc:format><dc:type rdf:resource="http://purl.org/dc/dcmitype/StillImage"/></cc:Work></rdf:RDF></metadata><defs id="defs6"/><g transform="matrix(1.3333333,0,0,-1.3333333,0,173.37333)" id="g10"><g transform="scale(0.1)" id="g12"><path id="path14" style="fill:#75b82c;fill-opacity:1;fill-rule:nonzero;stroke:none" d="M 5.53516,888.508 197.926,522.023 c 13.136,-24.968 45.515,-45.234 72.262,-45.168 v 0 l 392.476,0.829 c 26.793,0.054 37.848,20.371 24.723,45.382 v 0 l -192.41,366.465 c -13.125,25.016 -45.497,45.227 -72.27,45.168 v 0 L 30.2383,933.883 c -0.6055,0 -1.1914,-0.02 -1.7969,-0.02 v 0 C 2.98047,932.902 -7.3125,912.961 5.53516,888.508"/><path id="path16" style="fill:#75b82c;fill-opacity:1;fill-rule:nonzero;stroke:none" d="M 751.031,461.488 867.539,244.09 c 7.926,-14.828 27.309,-26.731 43.27,-26.551 v 0 l 233.841,2.473 c 15.97,0.16 22.41,12.32 14.49,27.16 v 0 l -116.47,217.379 c -7.94,14.84 -27.35,26.715 -43.272,26.547 v 0 l -233.847,-2.457 c -0.274,0 -0.531,0 -0.805,0 v 0 C 749.375,488.07 743.23,476.098 751.031,461.488"/><path id="path18" style="fill:#3d90d5;fill-opacity:1;fill-rule:nonzero;stroke:none" d="M 752.395,1286.95 518.582,986.836 c -15.98,-20.504 -18.098,-57.246 -4.754,-82.172 v 0 L 709.305,539.84 c 13.324,-24.883 37.093,-28.473 53.047,-8.02 v 0 l 233.839,300.172 c 15.949,20.465 18.089,57.25 4.719,82.153 v 0 L 805.461,1278.98 c -7.75,14.4 -18.953,21.66 -30.125,21.27 v 0 c -8.109,-0.33 -16.219,-4.68 -22.941,-13.3"/><path id="path20" style="fill:#3d90d5;fill-opacity:1;fill-rule:nonzero;stroke:none" d="M 697.633,457.848 558.277,279.02 c -9.539,-12.211 -10.769,-34.122 -2.836,-48.938 v 0 L 671.922,12.6914 c 7.969,-14.83984 22.113,-16.97265 31.633,-4.76171 v 0 L 842.871,186.738 c 9.5,12.231 10.77,34.16 2.844,48.953 v 0 L 729.227,453.09 c -4.586,8.586 -11.282,12.918 -17.954,12.699 v 0 c -4.812,-0.168 -9.668,-2.777 -13.64,-7.941"/><path id="path22" style="fill:#3d90d5;fill-opacity:1;fill-rule:nonzero;stroke:none" d="m 3254.03,394.188 h 78.0781 v 587.73 H 3254.03 Z"/><path id="path24" style="fill:#75b82c;fill-opacity:1;fill-rule:nonzero;stroke:none" d="m 1855.34,796.223 c -111.95,0 -202.71,-90.778 -202.71,-202.754 h -0.14 v -374.34 h 78.08 v 374.34 h 0.38 c 0,69.261 56.15,125.41 125.36,125.41 69.26,0 125.39,-56.149 125.39,-125.41 0,-69.239 -56.13,-125.387 -125.39,-125.387 -39.05,0 -73.95,17.891 -96.93,45.902 v -99.109 c 28.57,-15.387 61.28,-24.152 95.96,-24.152 112.02,0 202.8,90.797 202.8,202.746 0,111.976 -90.78,202.754 -202.8,202.754"/><path id="path26" style="fill:#75b82c;fill-opacity:1;fill-rule:nonzero;stroke:none" d="m 2295.38,796.223 c -111.99,0 -202.73,-90.778 -202.73,-202.754 h -0.14 v -374.34 h 78.06 v 374.34 h 0.41 c 0,69.261 56.11,125.41 125.34,125.41 69.29,0 125.42,-56.149 125.42,-125.41 0,-69.239 -56.13,-125.387 -125.42,-125.387 -39.06,0 -73.94,17.891 -96.93,45.902 v -99.109 c 28.55,-15.387 61.32,-24.152 95.99,-24.152 111.96,0 202.74,90.797 202.74,202.746 0,111.976 -90.78,202.754 -202.74,202.754"/><path id="path28" style="fill:#75b82c;fill-opacity:1;fill-rule:nonzero;stroke:none" d="m 1402.05,981.918 c -111.99,0 -202.74,-90.797 -202.74,-202.758 V 394.188 h 78.08 V 779.16 h 0.12 c 0,68.797 55.74,124.57 124.57,124.57 68.79,0 124.53,-55.773 124.53,-124.57 h 0.11 v -44.074 h -200.59 v -78.059 h 200.59 V 394.188 h 78.12 V 779.16 c 0,111.961 -90.79,202.758 -202.79,202.758"/><path id="path30" style="fill:#3d90d5;fill-opacity:1;fill-rule:nonzero;stroke:none" d="m 2993.33,779.16 c 0,68.813 55.8,124.617 124.66,124.617 v 0.039 h 98.3 v 78.102 h -98.32 C 3006.02,981.902 2915.24,891.121 2915.24,779.16 V 394.188 h 78.09 v 254.828 h 215.76 v 78.082 h -215.76 v 52.062"/><path id="path32" style="fill:#3d90d5;fill-opacity:1;fill-rule:nonzero;stroke:none" d="M 3658.95,793.668 V 548.242 h -0.04 c -1,-49.379 -41.19,-89.121 -90.9,-89.121 -49.58,0 -89.84,39.742 -90.79,89.121 h -0.1 v 245.426 h -78.05 V 547.996 h 0.12 c 0.93,-78.937 56.02,-144.726 129.84,-162.226 V 219.129 h 78.06 V 385.77 c 73.8,17.5 128.92,83.289 129.85,162.226 h 0.06 v 245.672 h -78.05"/><path id="path34" style="fill:#3d90d5;fill-opacity:1;fill-rule:nonzero;stroke:none" d="m 4097.87,562.754 c -7.94,-31.418 -28.04,-59.746 -58.36,-77.207 -59.61,-34.473 -135.83,-14.039 -170.25,45.555 -34.43,59.656 -13.97,135.828 45.62,170.265 47.77,27.582 106.2,19.871 145.2,-14.969 l -175.34,-101.222 39.05,-67.649 81.15,46.875 v 0 L 4169,659.121 c -4.19,12.188 -9.51,24.129 -16.2,35.703 -55.99,96.969 -180.04,130.192 -276.99,74.192 -96.99,-55.985 -130.18,-179.985 -74.19,-276.95 55.99,-96.957 179.94,-130.199 276.93,-74.226 55.46,32.008 90.01,86.234 98.99,144.914 h -79.67"/><path id="path36" style="fill:#3d90d5;fill-opacity:1;fill-rule:nonzero;stroke:none" d="m 4422.31,796.223 c -47.06,0 -90.26,-16.067 -124.61,-42.926 v 41.078 h -78.11 V 394.188 h 78.11 v 199.281 h 0.02 c 0,68.84 55.8,124.636 124.59,124.636 v 0.047 h 15.83 v 78.071 h -15.83"/><path id="path38" style="fill:#75b82c;fill-opacity:1;fill-rule:nonzero;stroke:none" d="m 2794.4,579.805 -194.2,90.558 0.06,0.071 c -9.36,4.652 -13.34,15.863 -8.93,25.351 3.24,6.985 10.18,11.012 17.4,11.039 v 0.16 h 221.58 v 78.078 h -221.58 v -0.101 c -36.67,-0.039 -71.74,-20.727 -88.26,-56.145 -22.69,-48.605 -1.72,-106.328 46.72,-129.203 v 0 l 194.22,-90.586 -0.02,-0.047 c 0,0 0.02,0 0.07,-0.042 9.66,-4.481 13.81,-15.918 9.31,-25.555 -3.24,-7.016 -10.25,-11.098 -17.5,-11.055 v -0.101 h -227.03 v -78.039 h 227.04 v 0.058 c 36.65,0.055 71.71,20.746 88.22,56.168 22.76,48.727 1.68,106.66 -47.1,129.391"/></g></g></svg>