<?xml version="1.0" standalone="yes"?>
<svg xmlns="http://www.w3.org/2000/svg" width="130" height="120">
<path style="fill:#fefdfd; stroke:none;" d="M0 0L0 85L1 85C8.04641 48.5614 64.9337 63.8358 55.7492 99C54.5731 103.503 51.9569 107.559 48.8156 110.96C44.9656 115.128 40.4669 117.689 35 119L35 120L96 120L96 119C58.2316 113.318 73.3206 53.809 110 64.7855C114.453 66.1182 118.608 68.7411 121.816 72.0934C125.33 75.7667 127.763 80.1045 129 85L130 85L130 0L72 0L72 1C104.1 10.2651 96.5844 58.3196 63 56.24C32.1285 54.3284 27.5025 7.99493 58 1L39 0L0 0z"/>
<path style="fill:#f7c0aa; stroke:none;" d="M58 0L58 1L61 1L58 0z"/>
<path style="fill:#fb8c49; stroke:none;" d="M61 0L62 1L61 0z"/>
<path style="fill:#f96671; stroke:none;" d="M62.6667 0.333336L63.3333 0.666664L62.6667 0.333336z"/>
<path style="fill:#f96189; stroke:none;" d="M37 32L38 32L38 29L39 29L39 32L40 32C48.1612 17.5188 84.7005 18.4559 91 34C97.8677 23.9474 87.0659 8.15906 77.9992 3.41743C56.7937 -7.6724 37.0576 11.1163 37 32z"/>
<path style="fill:#f96671; stroke:none;" d="M67 0L67 1L72 2L72 1L67 0z"/>
<path style="fill:#fb8c49; stroke:none;" d="M68 0L69 1L68 0z"/>
<path style="fill:#f7c0aa; stroke:none;" d="M69 0L69 1L72 1L69 0M53 3L56 2L53 3z"/>
<path style="fill:#f96671; stroke:none;" d="M56 1L57 2L56 1z"/>
<path style="fill:#fb8c49; stroke:none;" d="M73 1L74 2L73 1z"/>
<path style="fill:#f7c0aa; stroke:none;" d="M74 1L75 2L74 1z"/>
<path style="fill:#f96671; stroke:none;" d="M54 2L55 3L54 2z"/>
<path style="fill:#f7c0aa; stroke:none;" d="M76 2L77 3L76 2M51 3L52 4L51 3z"/>
<path style="fill:#f96671; stroke:none;" d="M52 3L53 4L52 3M59 3L59 4L64 4L59 3M74 3L75 4L74 3z"/>
<path style="fill:#f7c0aa; stroke:none;" d="M78 3L79 4L78 3M49 4L50 5L49 4z"/>
<path style="fill:#f96671; stroke:none;" d="M50 4L51 5L50 4M54 4L56 6L56 4L54 4M72 4L70 5L70 6L72 4M76.6667 4.33334L77.3333 4.66666L76.6667 4.33334z"/>
<path style="fill:#f7c0aa; stroke:none;" d="M80 4L81 5L80 4z"/>
<path style="fill:#f96671; stroke:none;" d="M48.6667 5.33334L49.3333 5.66666L48.6667 5.33334M74 5L75 6L74 5z"/>
<path style="fill:#f7c0aa; stroke:none;" d="M81 5L82 6L81 5M46 6L45 8L46 6z"/>
<path style="fill:#fb8c49; stroke:none;" d="M47 6L48 7L47 6z"/>
<path style="fill:#f96671; stroke:none;" d="M78 6L79 7L78 6z"/>
<path style="fill:#fb8c49; stroke:none;" d="M82 6L83 7L82 6z"/>
<path style="fill:#f7c0aa; stroke:none;" d="M83 6L85 8L83 6z"/>
<path style="fill:#f96671; stroke:none;" d="M46 7L47 8L46 7M83 7L84 8L83 7z"/>
<path style="fill:#f7c0aa; stroke:none;" d="M44 8L43 10L44 8z"/>
<path style="fill:#f96671; stroke:none;" d="M47 8L48 9L47 8z"/>
<path style="fill:#f7c0aa; stroke:none;" d="M85 8L88 11L85 8z"/>
<path style="fill:#f96671; stroke:none;" d="M44 9L45 10L44 9M85 9L86 10L85 9M43 10L44 11L43 10z"/>
<path style="fill:#fb8c49; stroke:none;" d="M86 10L87 11L86 10M42 11L43 12L42 11z"/>
<path style="fill:#f96671; stroke:none;" d="M87 11L88 12L87 11z"/>
<path style="fill:#f7c0aa; stroke:none;" d="M41 12L42 13L41 12M88 12L90 14L88 12z"/>
<path style="fill:#f96671; stroke:none;" d="M88 13L89 14L88 13z"/>
<path style="fill:#fb8c49; stroke:none;" d="M40 14L41 15L40 14M89 14L90 15L89 14z"/>
<path style="fill:#f96671; stroke:none;" d="M41 15L42 16L41 15z"/>
<path style="fill:#f7c0aa; stroke:none;" d="M90 15L91 16L90 15z"/>
<path style="fill:#f96671; stroke:none;" d="M90 16L91 17L90 16z"/>
<path style="fill:#f7c0aa; stroke:none;" d="M91.3333 17.6667L91.6667 18.3333L91.3333 17.6667M38 18L39 19L38 18z"/>
<path style="fill:#f96671; stroke:none;" d="M38 19L39 20L38 19z"/>
<path style="fill:#fb8c49; stroke:none;" d="M91 19L92 20L91 19z"/>
<path style="fill:#f7c0aa; stroke:none;" d="M37.3333 20.6667L37.6667 21.3333L37.3333 20.6667M92.3333 20.6667L92.6667 21.3333L92.3333 20.6667z"/>
<path style="fill:#fb8c49; stroke:none;" d="M37 22L38 23L37 22z"/>
<path style="fill:#f96671; stroke:none;" d="M40 32L39 32L39 29L38 29C37.395 35.1522 39.2663 40.9312 44 45L45 41L45 40L43 38C58.4875 33.8598 75.3021 27.7561 88 42C95.4285 35.0269 89.0758 28.8859 82 25.9167C71.8804 21.6702 44.8482 17.7107 40 32z"/>
<path style="fill:#fb8c49; stroke:none;" d="M92 22L93 23L92 22z"/>
<path style="fill:#f96671; stroke:none;" d="M37 23L38 24L37 23M92 23L93 24L92 23z"/>
<path style="fill:#f7c0aa; stroke:none;" d="M36 27L36 30L37 30L36 27M93.3333 27.6667L93.6667 28.3333L93.3333 27.6667z"/>
<path style="fill:#f96671; stroke:none;" d="M91.3333 30.6667L91.6667 31.3333L91.3333 30.6667z"/>
<path style="fill:#fb8c49; stroke:none;" d="M43 38L45 40L45 41L44 45L42 44L44 48L46 47C52.8714 60.4403 84.2291 59.1812 87 43L90 40L89 40L88 42C79.063 26.8568 55.7924 33.2304 43 38z"/>
<path style="fill:#f96671; stroke:none;" d="M92 32L93 33L92 32z"/>
<path style="fill:#fb8c49; stroke:none;" d="M37 33L38 34L37 33M92 33L93 34L92 33z"/>
<path style="fill:#f7c0aa; stroke:none;" d="M37.3333 34.6667L37.6667 35.3333L37.3333 34.6667M92.3333 34.6667L92.6667 35.3333L92.3333 34.6667z"/>
<path style="fill:#fb8c49; stroke:none;" d="M38 36L39 37L38 36M91 36L92 37L91 36z"/>
<path style="fill:#f7c0aa; stroke:none;" d="M38.3333 37.6667L38.6667 38.3333L38.3333 37.6667M91.3333 37.6667L91.6667 38.3333L91.3333 37.6667z"/>
<path style="fill:#fb8c49; stroke:none;" d="M39 39L40 40L39 39M41.6667 40.3333L42.3333 40.6667L41.6667 40.3333z"/>
<path style="fill:#f7c0aa; stroke:none;" d="M90 40L91 41L90 40z"/>
<path style="fill:#fb8c49; stroke:none;" d="M40 41L41 42L40 41z"/>
<path style="fill:#f96671; stroke:none;" d="M85 41L86 42L85 41z"/>
<path style="fill:#f7c0aa; stroke:none;" d="M40 42L41 43L40 42z"/>
<path style="fill:#f96671; stroke:none;" d="M45 42L46 43L45 42z"/>
<path style="fill:#f7c0aa; stroke:none;" d="M89 42L90 43L89 42M41.3333 43.6667L41.6667 44.3333L41.3333 43.6667z"/>
<path style="fill:#f96671; stroke:none;" d="M87 43L88 44L87 43z"/>
<path style="fill:#f7c0aa; stroke:none;" d="M88.3333 43.6667L88.6667 44.3333L88.3333 43.6667M42 45L43 46L42 45z"/>
<path style="fill:#f96671; stroke:none;" d="M85 45L86 46L85 45z"/>
<path style="fill:#f7c0aa; stroke:none;" d="M87 45L88 46L87 45M43 46L44 47L43 46M86 46L87 47L86 46z"/>
<path style="fill:#f96671; stroke:none;" d="M45 47L46 48L45 47z"/>
<path style="fill:#f7c0aa; stroke:none;" d="M85 47L86 48L85 47M45 48L46 49L45 48M84 48L85 49L84 48M46 49L47 50L46 49M83 49L84 50L83 49M47 50L48 51L47 50M82 50L83 51L82 50M48.6667 51.3333L49.3333 51.6667L48.6667 51.3333M80.6667 51.3333L81.3333 51.6667L80.6667 51.3333M50 52L51 53L50 52M78.6667 52.3333L79.3333 52.6667L78.6667 52.3333M52 53L53 54L52 53M77 53L78 54L77 53M54 54L55 55L54 54M74.6667 54.3333L75.3333 54.6667L74.6667 54.3333M57.6667 55.3333L58.3333 55.6667L57.6667 55.3333M72 55L73 56L72 55M63 56L63 57L66 57L63 56M25 63L25 64L32 64L25 63M99 63L99 64L104 64L99 63M20.6667 64.3333L21.3333 64.6667L20.6667 64.3333z"/>
<path style="fill:#fb8c49; stroke:none;" d="M22 64L23 65L22 64z"/>
<path style="fill:#f96671; stroke:none;" d="M19 65L15 69L15 70L19 69C20.0875 80.8892 26.3799 98.289 40 100C41.0939 103.202 44.9223 106.847 48 104L49 104L52 107L51 104C55.0001 103.505 54.6314 99.4219 54 96L49 97L38.9398 88.3333L32 80C31.8614 74.2658 26.7235 68.2732 33 65L19 65z"/>
<path style="fill:#fb8c49; stroke:none;" d="M32 80L38.9892 89.0077L49 97L54 96L55 99C58.8255 89.3564 53.8761 76.1398 45.9066 70.044C42.6712 67.5692 32.2452 60.9256 29.4622 67.2793C27.9992 70.6195 31.7959 76.2641 32 80z"/>
<path style="fill:#f7c0aa; stroke:none;" d="M35.6667 64.3333L36.3333 64.6667L35.6667 64.3333M93 64L93 65L96 65L93 64z"/>
<path style="fill:#f96671; stroke:none;" d="M95 65L95 66C98.709 65.8586 100.128 66.8189 102 70L91.8565 87.5316L80 96C75.282 96.2176 74.1287 100.251 78 103L78 107L85 107L84 104L88 105L103.889 89.8835L114 70L114 69L110 67L112 66C106.98 63.3311 100.359 63.416 95 65z"/>
<path style="fill:#f7c0aa; stroke:none;" d="M108.667 64.3333L109.333 64.6667L108.667 64.3333M17 65L18 66L17 65z"/>
<path style="fill:#fb8c49; stroke:none;" d="M18 65L19 66L18 65z"/>
<path style="fill:#f96189; stroke:none;" d="M20.6667 65.3333L21.3333 65.6667L20.6667 65.3333z"/>
<path style="fill:#f7c0aa; stroke:none;" d="M37 65L37 66L40 66L37 65M78 76L92 66C86.1585 65.0499 80.774 71.4572 78 76z"/>
<path style="fill:#fb8c49; stroke:none;" d="M74 98L80 96L91.8565 88.3164L102 70C98.7796 61.5845 89.1136 66.0589 84.0039 70.3287C74.8953 77.9398 74.2559 87.0129 74 98M104.333 65.6667L104.667 66.3333L104.333 65.6667z"/>
<path style="fill:#f7c0aa; stroke:none;" d="M112 65L113 66L112 65M12 69L16 67L12 69z"/>
<path style="fill:#f96189; stroke:none;" d="M49 104L48 104C44.3768 105.261 41.7837 103.141 40 100C26.4208 97.0527 21.2752 80.9293 19 69L15 70L15 69L20 67C9.43273 63.5709 1.6643 81.0403 0.657407 88.9992C-1.40285 105.285 11.0985 117.134 26.2855 119.265C34.073 120.358 54.1937 114.809 49 104z"/>
<path style="fill:#f7c0aa; stroke:none;" d="M40.6667 66.3333L41.3333 66.6667L40.6667 66.3333z"/>
<path style="fill:#f96189; stroke:none;" d="M110 66L110 67L114 69L114 70L103.889 89.1157L88 105L84 104L85 107L79 106C84.0432 120.504 116.05 126.374 121 109C126.371 107.969 128.582 99.9905 129.206 94.9992C130.799 82.2543 123.192 68.3807 110 66z"/>
<path style="fill:#f96671; stroke:none;" d="M113 66L114 67L113 66z"/>
<path style="fill:#f7c0aa; stroke:none;" d="M114 66L115 67L114 66z"/>
<path style="fill:#fb8c49; stroke:none;" d="M14 67L15 68L14 67z"/>
<path style="fill:#f7c0aa; stroke:none;" d="M42 67L43 68L42 67z"/>
<path style="fill:#fb8c49; stroke:none;" d="M115 67L116 68L115 67z"/>
<path style="fill:#f7c0aa; stroke:none;" d="M116 67L117 68L116 67z"/>
<path style="fill:#f96189; stroke:none;" d="M19 68L20 69L19 68z"/>
<path style="fill:#f7c0aa; stroke:none;" d="M43.6667 68.3333L44.3333 68.6667L43.6667 68.3333M117 68L118 69L117 68M10 69L11 70L10 69z"/>
<path style="fill:#f96671; stroke:none;" d="M11 69L12 70L11 69M32 69L33 70L32 69z"/>
<path style="fill:#f7c0aa; stroke:none;" d="M45 69L46 70L45 69z"/>
<path style="fill:#f96189; stroke:none;" d="M112 69L109 70L109 71L113 70L112 69z"/>
<path style="fill:#fb8c49; stroke:none;" d="M118 69L119 70L118 69z"/>
<path style="fill:#f7c0aa; stroke:none;" d="M119 69L120 70L119 69M9 70L10 71L9 70M46 70L47 71L46 70M120 70L121 71L120 70M8 71L9 72L8 71z"/>
<path style="fill:#f96671; stroke:none;" d="M12 71L13 72L12 71M32 71L33 72L32 71z"/>
<path style="fill:#f7c0aa; stroke:none;" d="M121 71L122 72L121 71M7 72L6 74L7 72M122 72L123 73L122 72z"/>
<path style="fill:#f96671; stroke:none;" d="M7 73L8 74L7 73z"/>
<path style="fill:#f7c0aa; stroke:none;" d="M49 73L50 74L49 73M123 73L124 74L123 73M50 74L51 75L50 74z"/>
<path style="fill:#fb8c49; stroke:none;" d="M5 75L6 76L5 75z"/>
<path style="fill:#f7c0aa; stroke:none;" d="M51.3333 75.6667L51.6667 76.3333L51.3333 75.6667z"/>
<path style="fill:#fb8c49; stroke:none;" d="M124 75L125 76L124 75z"/>
<path style="fill:#f7c0aa; stroke:none;" d="M4 76L5 77L4 76M125 76L126 77L125 76M52 77L53 78L52 77M77 77L78 78L77 77z"/>
<path style="fill:#f96671; stroke:none;" d="M125 77L126 78L125 77z"/>
<path style="fill:#fb8c49; stroke:none;" d="M3 78L4 79L3 78z"/>
<path style="fill:#f7c0aa; stroke:none;" d="M53.3333 78.6667L53.6667 79.3333L53.3333 78.6667M76.3333 78.6667L76.6667 79.3333L76.3333 78.6667z"/>
<path style="fill:#f96671; stroke:none;" d="M123 78L124 79L123 78z"/>
<path style="fill:#f7c0aa; stroke:none;" d="M126 78L127 79L126 78M2 79L3 80L2 79M127 79L128 80L127 79z"/>
<path style="fill:#f96671; stroke:none;" d="M2 80L3 81L2 80z"/>
<path style="fill:#f7c0aa; stroke:none;" d="M54 80L54 83L55 83L54 80M75.3333 80.6667L75.6667 81.3333L75.3333 80.6667z"/>
<path style="fill:#f96671; stroke:none;" d="M127 80L128 81L127 80z"/>
<path style="fill:#f7c0aa; stroke:none;" d="M1.33333 81.6667L1.66667 82.3333L1.33333 81.6667M128 82L129 83L128 82z"/>
<path style="fill:#fb8c49; stroke:none;" d="M1 83L2 84L1 83z"/>
<path style="fill:#f7c0aa; stroke:none;" d="M55.3333 83.6667L55.6667 84.3333L55.3333 83.6667M74 83L74 86L75 86L74 83z"/>
<path style="fill:#fb8c49; stroke:none;" d="M128 83L129 84L128 83z"/>
<path style="fill:#f96671; stroke:none;" d="M1 84L2 85L1 84z"/>
<path style="fill:#f7c0aa; stroke:none;" d="M0 85L0 88L1 88L0 85M129 85L129 88L130 88L129 85z"/>
<path style="fill:#f96671; stroke:none;" d="M4.33333 86.6667L4.66667 87.3333L4.33333 86.6667M0.333333 88.6667L0.666667 89.3333L0.333333 88.6667z"/>
<path style="fill:#f7c0aa; stroke:none;" d="M56 88L56 96L57 96L56 88M73 88L73 96L74 96L73 88z"/>
<path style="fill:#f96671; stroke:none;" d="M129 88L129 91L130 91L129 88M74 92L75 93L74 92M0 93L2 96L0 93M129 93L129 96L130 96L129 93z"/>
<path style="fill:#f7c0aa; stroke:none;" d="M0.333333 96.6667L0.666667 97.3333L0.333333 96.6667z"/>
<path style="fill:#f96671; stroke:none;" d="M3 96L7 108L8 108L8 104L3 96M6 96L7 97L6 96M55 96L56 97L55 96z"/>
<path style="fill:#fb8c49; stroke:none;" d="M77 96L79 98L77 96z"/>
<path style="fill:#f96671; stroke:none;" d="M124 96L125 97L124 96z"/>
<path style="fill:#f7c0aa; stroke:none;" d="M129 96L129 99L130 99L129 96z"/>
<path style="fill:#fb8c49; stroke:none;" d="M52.3333 97.6667L52.6667 98.3333L52.3333 97.6667z"/>
<path style="fill:#fefdfd; stroke:none;" d="M0 98L0 120L22 120L22 119C10.0447 117.134 5.3441 107.445 0 98z"/>
<path style="fill:#f7c0aa; stroke:none;" d="M74 98L74 101L75 101L74 98M55.3333 99.6667L55.6667 100.333L55.3333 99.6667z"/>
<path style="fill:#f96671; stroke:none;" d="M128 99L129 100L128 99z"/>
<path style="fill:#fefdfd; stroke:none;" d="M129 99C126.195 108.714 118.151 117.168 108 119L108 120L130 120L129 99z"/>
<path style="fill:#fb8c49; stroke:none;" d="M1 100L2 101L1 100M54.3333 100.667L54.6667 101.333L54.3333 100.667M128 100L129 101L128 100z"/>
<path style="fill:#f7c0aa; stroke:none;" d="M1 101L2 102L1 101z"/>
<path style="fill:#fb8c49; stroke:none;" d="M75 101L76 102L75 101z"/>
<path style="fill:#f7c0aa; stroke:none;" d="M128 101L129 102L128 101z"/>
<path style="fill:#fb8c49; stroke:none;" d="M2 102L3 103L2 102z"/>
<path style="fill:#f7c0aa; stroke:none;" d="M54.3333 102.667L54.6667 103.333L54.3333 102.667M75 102L76 103L75 102z"/>
<path style="fill:#f96671; stroke:none;" d="M126 102L126 105L127 105L128 102L126 102z"/>
<path style="fill:#f7c0aa; stroke:none;" d="M2 103L3 104L2 103z"/>
<path style="fill:#fb8c49; stroke:none;" d="M76.6667 103.333L77.3333 103.667L76.6667 103.333M127 103L128 104L127 103z"/>
<path style="fill:#f96189; stroke:none;" d="M51.3333 104.667L51.6667 105.333L51.3333 104.667z"/>
<path style="fill:#f7c0aa; stroke:none;" d="M53 104L54 105L53 104M76 104L77 105L76 104z"/>
<path style="fill:#f96671; stroke:none;" d="M124 104L122 108L124 104z"/>
<path style="fill:#f7c0aa; stroke:none;" d="M3 105L4 106L3 105z"/>
<path style="fill:#fb8c49; stroke:none;" d="M52 105L53 106L52 105M77 105L78 106L77 105z"/>
<path style="fill:#f7c0aa; stroke:none;" d="M126 105L127 106L126 105z"/>
<path style="fill:#f96671; stroke:none;" d="M4 106L5 107L4 106z"/>
<path style="fill:#f7c0aa; stroke:none;" d="M52 106L53 107L52 106M77 106L78 107L77 106z"/>
<path style="fill:#f96671; stroke:none;" d="M125 106L126 107L125 106M48 107L49 108L48 107z"/>
<path style="fill:#f7c0aa; stroke:none;" d="M51 107L52 108L51 107M78 107L80 110L78 107M125 107L126 108L125 107M5 108L6 109L5 108z"/>
<path style="fill:#f96671; stroke:none;" d="M79 108L80 109L79 108M120 108L121 109L120 108z"/>
<path style="fill:#f7c0aa; stroke:none;" d="M124 108L125 109L124 108z"/>
<path style="fill:#fb8c49; stroke:none;" d="M6 109L7 110L6 109z"/>
<path style="fill:#f7c0aa; stroke:none;" d="M50 109L51 110L50 109z"/>
<path style="fill:#f96671; stroke:none;" d="M121 109L121 112L123 111L123 110L121 109M123 109L124 110L123 109z"/>
<path style="fill:#fb8c49; stroke:none;" d="M7 110L8 111L7 110z"/>
<path style="fill:#f7c0aa; stroke:none;" d="M49 110L50 111L49 110M80 110L82 112L80 110z"/>
<path style="fill:#f96671; stroke:none;" d="M81 110L82 111L81 110z"/>
<path style="fill:#f7c0aa; stroke:none;" d="M7 111L8 112L7 111M48 111L49 112L48 111z"/>
<path style="fill:#fb8c49; stroke:none;" d="M9 112L10 113L9 112z"/>
<path style="fill:#f96671; stroke:none;" d="M12 112L12 113L15 115L18 113L18 112L12 112M20.6667 112.333L21.3333 112.667L20.6667 112.333z"/>
<path style="fill:#f7c0aa; stroke:none;" d="M47 112L48 113L47 112M82 112L83 113L82 112z"/>
<path style="fill:#f96671; stroke:none;" d="M110 113L112 115L109 116L109 117L114 116L113 112L110 113M117 112L118 113L117 112z"/>
<path style="fill:#f7c0aa; stroke:none;" d="M120.667 112.333L121.333 112.667L120.667 112.333z"/>
<path style="fill:#fb8c49; stroke:none;" d="M10 113L11 114L10 113z"/>
<path style="fill:#f7c0aa; stroke:none;" d="M46 113L47 114L46 113M83 113L85 115L83 113z"/>
<path style="fill:#f96671; stroke:none;" d="M84 113L85 114L84 113M114 113L116 115L116 113L114 113M118 113L119 114L118 113z"/>
<path style="fill:#fb8c49; stroke:none;" d="M119 113L120 114L119 113z"/>
<path style="fill:#f7c0aa; stroke:none;" d="M11 114L13 116L11 114z"/>
<path style="fill:#f96671; stroke:none;" d="M12 114L13 115L12 114M32.6667 114.333L33.3333 114.667L32.6667 114.333z"/>
<path style="fill:#fb8c49; stroke:none;" d="M44 114L45 115L44 114z"/>
<path style="fill:#f7c0aa; stroke:none;" d="M45 114L46 115L45 114z"/>
<path style="fill:#fb8c49; stroke:none;" d="M85 114L86 115L85 114z"/>
<path style="fill:#f96671; stroke:none;" d="M88.6667 114.333L89.3333 114.667L88.6667 114.333M100 114L101 115L100 114z"/>
<path style="fill:#f7c0aa; stroke:none;" d="M118 114L119 115L118 114z"/>
<path style="fill:#fb8c49; stroke:none;" d="M13 115L14 116L13 115z"/>
<path style="fill:#f96671; stroke:none;" d="M17 115L17 116L24 117L24 116L17 115M37 115L37 116L40 116L37 115z"/>
<path style="fill:#f7c0aa; stroke:none;" d="M43 115L44 116L43 115M86 115L87 116L86 115z"/>
<path style="fill:#f96671; stroke:none;" d="M116 115L117 116L116 115z"/>
<path style="fill:#f7c0aa; stroke:none;" d="M14 116L17 118L17 117L14 116z"/>
<path style="fill:#f96671; stroke:none;" d="M15 116L16 117L15 116z"/>
<path style="fill:#fb8c49; stroke:none;" d="M41 116L42 117L41 116z"/>
<path style="fill:#f7c0aa; stroke:none;" d="M42 116L43 117L42 116M87 116L88 117L87 116z"/>
<path style="fill:#f96671; stroke:none;" d="M88 116L89 117L88 116M94.6667 116.333L95.3333 116.667L94.6667 116.333M104 116L104 117L108 117L104 116z"/>
<path style="fill:#f7c0aa; stroke:none;" d="M115 116L116 117L115 116z"/>
<path style="fill:#fb8c49; stroke:none;" d="M17 117L18 118L17 117z"/>
<path style="fill:#f96671; stroke:none;" d="M18 117L19 118L18 117z"/>
<path style="fill:#f7c0aa; stroke:none;" d="M40 117L41 118L40 117M89.6667 117.333L90.3333 117.667L89.6667 117.333z"/>
<path style="fill:#f96671; stroke:none;" d="M91 117L92 118L91 117z"/>
<path style="fill:#f7c0aa; stroke:none;" d="M113 117L114 118L113 117M18.6667 118.333L19.3333 118.667L18.6667 118.333z"/>
<path style="fill:#f96671; stroke:none;" d="M20 118L21 119L20 118M24 118L27 120L27 119L24 118z"/>
<path style="fill:#fb8c49; stroke:none;" d="M36 118L37 119L36 118z"/>
<path style="fill:#f7c0aa; stroke:none;" d="M37 118L38 119L37 118M92 118L93 119L92 118z"/>
<path style="fill:#fb8c49; stroke:none;" d="M93 118L94 119L93 118z"/>
<path style="fill:#f96671; stroke:none;" d="M109 118L110 119L109 118z"/>
<path style="fill:#fb8c49; stroke:none;" d="M110 118L111 119L110 118z"/>
<path style="fill:#f7c0aa; stroke:none;" d="M111 118L112 119L111 118M22.6667 119.333L23.3333 119.667L22.6667 119.333z"/>
<path style="fill:#fb8c49; stroke:none;" d="M24 119L25 120L24 119z"/>
<path style="fill:#f96671; stroke:none;" d="M30.6667 119.333L31.3333 119.667L30.6667 119.333z"/>
<path style="fill:#f7c0aa; stroke:none;" d="M32 119L32 120L35 120L32 119M96 119L97 120L96 119z"/>
<path style="fill:#fb8c49; stroke:none;" d="M97.6667 119.333L98.3333 119.667L97.6667 119.333z"/>
<path style="fill:#f96671; stroke:none;" d="M99.6667 119.333L100.333 119.667L99.6667 119.333M102.667 119.333L103.333 119.667L102.667 119.333z"/>
<path style="fill:#fb8c49; stroke:none;" d="M104.667 119.333L105.333 119.667L104.667 119.333z"/>
<path style="fill:#f7c0aa; stroke:none;" d="M106.667 119.333L107.333 119.667L106.667 119.333z"/>
</svg>
