<svg width="250" height="250" viewBox="0 0 250 250" fill="none" xmlns="http://www.w3.org/2000/svg">
<g clip-path="url(#clip0_2_7340)">
<path d="M161.729 128.059C146.112 128.059 133.454 140.804 133.454 156.525C133.454 172.248 146.112 184.995 161.729 184.995C177.343 184.995 190 172.248 190 156.525C190 140.804 177.343 128.059 161.729 128.059ZM88.2728 128.06C72.6588 128.062 60 140.804 60 156.526C60 172.248 72.6588 184.994 88.2728 184.994C103.888 184.994 116.547 172.248 116.547 156.526C116.547 140.803 103.888 128.06 88.2714 128.06H88.2728ZM153.273 92.4743C153.273 108.196 140.615 120.945 125.001 120.945C109.385 120.945 96.7273 108.196 96.7273 92.4743C96.7273 76.7527 109.385 64.0067 125.001 64.0067C140.615 64.0067 153.271 76.7527 153.271 92.4743H153.273Z" fill="url(#paint0_radial_2_7340)"/>
</g>
<defs>
<radialGradient id="paint0_radial_2_7340" cx="0" cy="0" r="1" gradientUnits="userSpaceOnUse" gradientTransform="translate(125.018 130.205) scale(86.19 80.2155)">
<stop stop-color="#FFB900"/>
<stop offset="0.6" stop-color="#F95D8F"/>
<stop offset="0.999" stop-color="#F95353"/>
</radialGradient>
<clipPath id="clip0_2_7340">
<rect width="130" height="121" fill="white" transform="translate(60 64)"/>
</clipPath>
</defs>
</svg>
