<?xml version="1.0" encoding="UTF-8" standalone="no"?>
<svg
   width="23.705036"
   height="21.894354"
   viewBox="0 0 23.705036 21.894354"
   version="1.1"
   id="svg266"
   sodipodi:docname="asana.svg"
   inkscape:version="1.2.1 (9c6d41e410, 2022-07-14, custom)"
   xmlns:inkscape="http://www.inkscape.org/namespaces/inkscape"
   xmlns:sodipodi="http://sodipodi.sourceforge.net/DTD/sodipodi-0.dtd"
   xmlns="http://www.w3.org/2000/svg"
   xmlns:svg="http://www.w3.org/2000/svg">
  <sodipodi:namedview
     id="namedview268"
     pagecolor="#ffffff"
     bordercolor="#666666"
     borderopacity="1.0"
     inkscape:showpageshadow="2"
     inkscape:pageopacity="0.0"
     inkscape:pagecheckerboard="0"
     inkscape:deskcolor="#d1d1d1"
     showgrid="false"
     inkscape:zoom="12.225225"
     inkscape:cx="55.5"
     inkscape:cy="10.960943"
     inkscape:window-width="3840"
     inkscape:window-height="2083"
     inkscape:window-x="0"
     inkscape:window-y="40"
     inkscape:window-maximized="1"
     inkscape:current-layer="svg266" />
  <defs
     id="defs254">
    <radialGradient
       cx="11.390857"
       cy="12.354463"
       fx="11.390857"
       fy="12.354463"
       r="12.703601"
       gradientTransform="scale(1.0405291,0.9610495)"
       id="radialGradient-1"
       gradientUnits="userSpaceOnUse">
      <stop
         stop-color="#FFB900"
         offset="0%"
         id="stop247" />
      <stop
         stop-color="#FA5C86"
         offset="74.7090242%"
         id="stop249" />
      <stop
         stop-color="#F95353"
         offset="100%"
         id="stop251" />
    </radialGradient>
  </defs>
  <g
     id="dots-wrapper"
     style="fill:none;fill-rule:evenodd;stroke:none;stroke-width:1">
    <path
       d="m 17.007883,5.1514375 c 0,2.8453333 -2.308066,5.1520105 -5.155308,5.1520105 -2.847356,0 -5.1554221,-2.3066772 -5.1554221,-5.1520105 C 6.6971529,2.3066771 9.005219,0 11.852575,0 c 2.847242,0 5.155308,2.3066771 5.155308,5.1514375 z M 5.1554225,11.591479 C 2.3081808,11.591479 0,13.897469 0,16.742802 c 0,2.845104 2.3081808,5.151552 5.1554225,5.151552 2.8473564,0 5.1556515,-2.306448 5.1556515,-5.151552 0,-2.845333 -2.3082951,-5.151323 -5.1556515,-5.151323 z m 13.3941915,-4.58e-4 c -2.847242,0 -5.155423,2.306448 -5.155423,5.151781 0,2.845104 2.308181,5.151552 5.155423,5.151552 2.847241,0 5.155422,-2.306448 5.155422,-5.151552 0,-2.845333 -2.308181,-5.151781 -5.155422,-5.151781 z"
       id="dots"
       fill="url(#radialGradient-1)"
       style="fill:url(#radialGradient-1)" />
  </g>
</svg>
