<svg xmlns="http://www.w3.org/2000/svg" width="23.705" height="21.894"><defs><radialGradient id="a" cx="11.391" cy="12.354" r="12.704" fx="11.391" fy="12.354" gradientTransform="scale(1.04053 .96105)" gradientUnits="userSpaceOnUse"><stop offset="0%" stop-color="#FFB900"/><stop offset="74.709%" stop-color="#FA5C86"/><stop offset="100%" stop-color="#F95353"/></radialGradient></defs><g style="fill:none;fill-rule:evenodd;stroke:none;stroke-width:1"><path fill="url(#a)" d="M17.008 5.151a5.154 5.154 0 0 1-5.155 5.152 5.154 5.154 0 0 1-5.156-5.152A5.154 5.154 0 0 1 11.853 0a5.154 5.154 0 0 1 5.155 5.151zm-11.853 6.44A5.153 5.153 0 0 0 0 16.743a5.154 5.154 0 0 0 5.155 5.151 5.154 5.154 0 0 0 5.156-5.151 5.153 5.153 0 0 0-5.156-5.152zm13.395 0a5.154 5.154 0 0 0-5.156 5.152 5.154 5.154 0 0 0 5.156 5.151 5.154 5.154 0 0 0 5.155-5.151 5.154 5.154 0 0 0-5.155-5.152z" style="fill:url(#a)"/></g></svg>