<svg width="250" height="250" viewBox="0 0 250 250" fill="none" xmlns="http://www.w3.org/2000/svg">
<path d="M70.7261 100.976L67.1621 101.911V116.97H70.7261V100.976Z" fill="#456327"/>
<path d="M83.7061 117.487L70.7261 116.97V100.976L83.7061 102.208V117.487Z" fill="#689E2F"/>
<path d="M125 59.209V190.791L182.838 163.159V86.511L125 59.209Z" fill="#689E2F"/>
<path d="M88.524 86.511L78.877 89.778V115.441H88.524V86.511Z" fill="#456327"/>
<path d="M108.676 89.283L88.5239 86.511V115.441H108.676V89.283Z" fill="#689E2F"/>
<path d="M70.7261 133.426H67.1621V148.331L70.7261 148.947V133.426Z" fill="#456327"/>
<path d="M83.7061 132.964L70.7261 133.426V148.947L83.7061 148.023V132.964Z" fill="#689E2F"/>
<path d="M88.524 135.384L78.877 134.394V160.057L88.524 163.489V135.384Z" fill="#456327"/>
<path d="M108.676 160.596L88.5239 163.489V135.384L108.676 134.394V160.596Z" fill="#689E2F"/>
<path d="M78.877 134.394L98.611 133.426L108.676 134.141L88.524 135.384L78.877 134.394Z" fill="#B5CC9A"/>
<path d="M78.877 115.441L94.761 116.365H104.331L102.747 115.441H88.524H78.877Z" fill="#28381B"/>
<path d="M100.624 70.495L125 59.209V190.791L100.624 179.186V70.495Z" fill="#456327"/>
</svg>
