<svg xmlns="http://www.w3.org/2000/svg" xmlns:xlink="http://www.w3.org/1999/xlink" viewBox="0 0 74.375 85" fill="#fff" fill-rule="evenodd" stroke="#000" stroke-linecap="round" stroke-linejoin="round"><use xlink:href="#A" x="2.188" y="2.5"/><symbol id="A" overflow="visible"><g stroke="none"><path d="M9.966 35.493l-2.288.176L0 35.376l2.123-10.039 7.843 10.156z" fill="#3c4929"/><path d="M9.966 44.83l-2.288-.176L0 44.947l2.123 10.039L9.966 44.83z" fill="#b7ca9d"/><path d="M2.123 45.141L0 44.946v9.434l2.123.605v-9.844z" fill="#4b612c"/><path d="M9.966 54.019l-7.843.966v-9.834l7.843-.322v9.19z" fill="#759c3e"/><path d="M24.343 45.601l-6.307-.459-11.028.527 5.905 17.961 11.43-18.029z" fill="#b7ca9d"/><path d="M2.123 35.171L0 35.376v-9.434l2.123-.605v9.834z" fill="#4b612c"/><path d="M9.966 26.303l-7.843-.966v9.824l7.843.332v-9.19z" fill="#759c3e"/><path d="M24.343 34.722l-6.307.449-11.028-.517 5.905-17.932 11.43 18z" fill="#3c4929"/><path d="M7.008 18.624l5.905-1.902v17.366l-5.905.566V18.624z" fill="#4b612c"/><path d="M24.344 19.073l-11.43-2.351v17.366l11.43.634V19.073z" fill="#759c3e"/><path d="M7.008 61.561l5.905 2.068V46.234l-5.905-.566v15.893z" fill="#4b612c"/><path d="M24.344 61.395l-11.43 2.234V46.234l11.43-.634v15.795z" fill="#759c3e"/><path d="M20.2 72.995L34.989 80l34.66-40-34.66-40L20.2 7.005v65.99z" fill="#4b612c"/><path d="M70 63.434L34.99 80V0L70 16.566v46.868z" fill="#759c3e"/></g></symbol></svg>