<svg xmlns="http://www.w3.org/2000/svg" xmlns:xlink="http://www.w3.org/1999/xlink" fill="#fff" fill-rule="evenodd" stroke="#000" stroke-linecap="round" stroke-linejoin="round" viewBox="0 0 74.375 85"><use xlink:href="#a" x="2.188" y="2.5"/><symbol id="a" overflow="visible"><g stroke="none"><path fill="#3c4929" d="m9.966 35.493-2.288.176L0 35.376l2.123-10.039 7.843 10.156z"/><path fill="#b7ca9d" d="m9.966 44.83-2.288-.176L0 44.947l2.123 10.039L9.966 44.83z"/><path fill="#4b612c" d="M2.123 45.141 0 44.946v9.434l2.123.605v-9.844z"/><path fill="#759c3e" d="m9.966 54.019-7.843.966v-9.834l7.843-.322v9.19z"/><path fill="#b7ca9d" d="m24.343 45.601-6.307-.459-11.028.527 5.905 17.961 11.43-18.029z"/><path fill="#4b612c" d="M2.123 35.171 0 35.376v-9.434l2.123-.605v9.834z"/><path fill="#759c3e" d="m9.966 26.303-7.843-.966v9.824l7.843.332v-9.19z"/><path fill="#3c4929" d="m24.343 34.722-6.307.449-11.028-.517 5.905-17.932 11.43 18z"/><path fill="#4b612c" d="m7.008 18.624 5.905-1.902v17.366l-5.905.566v-16.03z"/><path fill="#759c3e" d="m24.344 19.073-11.43-2.351v17.366l11.43.634V19.073z"/><path fill="#4b612c" d="m7.008 61.561 5.905 2.068V46.234l-5.905-.566v15.893z"/><path fill="#759c3e" d="m24.344 61.395-11.43 2.234V46.234l11.43-.634v15.795z"/><path fill="#4b612c" d="M20.2 72.995 34.989 80l34.66-40-34.66-40L20.2 7.005v65.99z"/><path fill="#759c3e" d="M70 63.434 34.99 80V0L70 16.566v46.868z"/></g></symbol></svg>