<svg width="250" height="250" viewBox="0 0 250 250" fill="none" xmlns="http://www.w3.org/2000/svg">
<g clip-path="url(#clip0_2_7329)">
<path d="M179.996 101.133L178.229 101.103L125.037 85.3283L125.005 84.5983V58L180 85.5495L179.996 101.133Z" fill="#D9A741"/>
<path d="M125 86.1926L125.006 58L70.0073 85.5387L70 163.451L70.0275 163.465V163.466L124.994 191.001L125.177 190.747L125.106 164.547L124.998 164.401L121.562 161.947L79.0234 149.249L79.2383 99.966L125 86.1926Z" fill="#876929"/>
<path d="M133.225 142.06L77.0259 149.98L77.0297 99.0105L133.229 106.941L133.225 142.06Z" fill="#D9A741"/>
<path d="M104.746 138.839L124.998 141.421L125.002 107.565L104.75 110.145L104.746 138.839Z" fill="#876929"/>
<path d="M84.3452 136.238L97.4881 137.911L97.4919 111.069L84.3452 112.747V136.238Z" fill="#876929"/>
<path d="M77.0298 99.0105L125.006 84.5983L179.996 101.133L133.263 106.944L77.0298 99.0105Z" fill="#624A1E"/>
<path d="M179.968 134.346L124.998 141.295L125.001 107.565L179.968 114.579V134.346Z" fill="#D9A741"/>
<path d="M179.965 147.886L178.782 147.938L125.167 164.195L124.998 164.401L124.995 191.001L179.965 163.475V147.886Z" fill="#D9A741"/>
<path d="M77.0259 149.98L124.998 164.401L179.965 147.886L133.225 142.06L77.0259 149.98Z" fill="#FAD791"/>
</g>
<defs>
<clipPath id="clip0_2_7329">
<rect width="110" height="133" fill="white" transform="translate(70 58)"/>
</clipPath>
</defs>
</svg>
