<svg xmlns="http://www.w3.org/2000/svg" xml:space="preserve" id="katman_1" x="0" y="0" style="enable-background:new 0 0 3991 2834.2" version="1.1" viewBox="0 0 3991 2834.2"><style>.st0{fill:#d9a741}.st1{fill:#876929}</style><path d="m3030.9 977.9-33.3-.6-1001.4-296.4-.6-13.7v-500L3031 685l-.1 292.9" class="st0"/><path d="m1995.5 697.1.1-529.9L960.1 684.8l-.1 1464.4.5.3L1995.4 2667l3.4-4.8-1.3-492.4-2-2.7-64.7-46.1-800.9-238.7 4-926.3 861.6-258.9" class="st1"/><path d="m2150.3 1747.2-1058 148.8.1-958 1058.1 149-.2 660.2" class="st0"/><path d="m1614.2 1686.6 381.3 48.5.1-636.3-381.3 48.5-.1 539.3m-384.1-48.9 247.4 31.5.1-504.5-247.5 31.5v441.5" class="st1"/><path d="m1092.3 938 903.3-270.9 1035.3 310.8-879.9 109.2L1092.3 938" style="fill:#624a1e"/><path d="m3030.4 1602.2-1034.9 130.6.1-634 1034.9 131.8v371.6m-.2 254.5-22.3 1-1009.4 305.6-3.2 3.9-.1 500 1034.9-517.4v-293.1" class="st0"/><path d="m1092.3 1896 903.2 271.1 1034.9-310.4-880-109.5L1092.3 1896" style="fill:#fad791"/></svg>