<svg xmlns="http://www.w3.org/2000/svg" xmlns:xlink="http://www.w3.org/1999/xlink" fill="#fff" fill-rule="evenodd" stroke="#000" stroke-linecap="round" stroke-linejoin="round" viewBox="0 0 91 81"><use xlink:href="#a" x=".5" y=".5"/><symbol id="a" overflow="visible"><path fill="#0078d7" stroke="none" d="M67.558 0H22.441L0 40l22.441 40h45.117L90 40 67.558 0zm.234 57.964c0 3.353-2.805 6.227-6.078 6.227H28.52c-3.273 0-6.078-2.874-6.078-6.227V22.276c0-3.353 2.805-6.228 6.078-6.228H58.442l9.351 9.581v32.336zM41.61 46.467c0-.479-.234-.718-.234-.958s-.234-.479-.467-.718-.234-.24-.468-.24h-.701c-.468 0-.702 0-.935.24s-.468.479-.701.958-.234.958-.234 1.437v4.551c0 .719.234 1.197.468 1.437.234.479.468.719.701.719.234.24.468.24.935.24.234 0 .468 0 .701-.24a.51.51 0 0 0 .468-.479c.234-.24.234-.479.467-.718 0-.24.234-.479.234-.958 0-.239 0-.719.233-1.198v-3.113c-.467-.24-.467-.479-.467-.958zm10.52-18.683c0-.479-.234-.718-.234-.958s-.234-.479-.468-.719-.234-.24-.468-.24h-.701c-.467 0-.701 0-.935.24s-.468.479-.702.958-.233.958-.233 1.437v4.551c0 .719.233 1.198.467 1.437.234.479.468.719.701.719.234.24.467.24.935.24.234 0 .467 0 .701-.24a.51.51 0 0 0 .468-.479c.234-.24.234-.479.468-.719 0-.239.234-.479.234-.958 0-.239 0-.718.234-1.198v-3.114c-.234 0-.234-.479-.467-.958zm4.675-8.383H28.52c-1.636 0-2.805 1.198-2.805 2.874v35.689c0 1.677 1.169 2.874 2.805 2.874h33.195a2.88 2.88 0 0 0 2.805-2.874V27.305h-7.48v-7.904zM36 26.587v-.479l.234-.24 2.805-1.916h2.572V35.45h2.338l.233.24c.234.239 0 .239 0 .239v1.197s0 .24-.233.24h-7.715l-.234-.24V35.69s0-.24.234-.24h2.805v-8.862l-2.104 1.198c-.234 0-.234.239-.467.239h-.234s0-.239-.234-.239v-1.197zm8.182 25.629c-.233.958-.467 1.677-.935 2.156-.468.718-.935 1.198-1.403 1.437-.701.239-1.403.479-2.338.479s-1.636-.24-2.338-.479a2.13 2.13 0 0 1-1.403-1.437c-.234-.718-.701-1.437-.701-2.156-.234-.958-.234-1.916-.234-2.874 0-1.198 0-2.156.234-2.874.234-.958.467-1.677.935-2.156s.935-1.198 1.403-1.437c.701-.24 1.403-.479 2.338-.479s1.636.239 2.337.479a2.13 2.13 0 0 1 1.403 1.437c.234.719.701 1.437.701 2.156.234.958.234 1.916.234 2.874 0 1.198 0 2.156-.234 2.874zm10.52 3.353v.24s0 .239-.234.239h-7.715l-.234-.239V54.372s0-.239.234-.239h2.806v-8.862l-2.104 1.198c-.234 0-.234.239-.468.239h-.234s0-.239-.234-.239v-1.676l.234-.24 2.805-1.916h2.573v11.498h2.338l.234.239v1.197zm.234-22.036c-.234.958-.468 1.677-.935 2.156-.468.718-.935 1.198-1.403 1.437-.701.24-1.403.479-2.338.479s-1.636-.24-2.338-.479a2.13 2.13 0 0 1-1.403-1.437c-.234-.479-.701-1.437-.701-2.156s-.234-1.916-.234-2.874c0-1.198 0-2.156.234-2.874.234-.958.468-1.677.935-2.156.468-.718.935-1.198 1.403-1.437.701-.24 1.403-.479 2.338-.479s1.636.24 2.338.479a2.13 2.13 0 0 1 1.403 1.437c.234.718.701 1.437.701 2.156.234.958.234 1.916.234 2.874 0 1.198-.234 2.156-.234 2.874z"/></symbol></svg>