<svg xmlns="http://www.w3.org/2000/svg" width="250" height="250" fill="none"><path fill="#73C41D" fill-rule="evenodd" d="M119.812 29.066c-3.78.295-8.855.92-11.71 1.442-38.901 7.119-69.715 37.332-77.413 75.903-1.495 7.493-1.69 9.68-1.689 19.041 0 8.582.085 9.811 1.109 16.028 4.267 25.924 19.613 49.593 41.64 64.225 49.162 32.658 115.482 14.447 141.035-38.727 4.628-9.631 7.287-18.847 8.886-30.801.498-3.724.414-18.362-.129-22.415-6.019-44.935-40.633-79.115-85.305-84.235-3.201-.367-13.809-.665-16.424-.46Zm-.362 69.873c0 10.539.066 19.161.145 19.161.08 0 .922-.718 1.872-1.596 5.214-4.821 10.244-6.913 18.168-7.555 10.084-.817 19.188 2.689 26.273 10.12 17.112 17.944 8.565 47.674-15.455 53.759-16.739 4.242-33.763-4.264-38.86-19.415-1.752-5.211-1.644-2.71-1.737-40.073l-.084-33.563h9.678v19.162ZM84.067 83.056c5.96 3.93 10.397 8.913 13.06 14.666 1.437 3.103 7.877 23.065 7.547 23.394-.172.172-10.896-1.704-12.514-2.189-8.504-2.551-12.297-5.267-19.662-14.083-4.282-5.126-8.768-9.592-15.21-15.14-.509-.438-.87-.853-.802-.921.068-.069 1.433.098 3.033.369 4.887.828 12.034 3.363 18.752 6.651 6.664 3.262 10.448 6.201 17.621 13.686 1.987 2.073 3.652 3.731 3.7 3.683.048-.048-1.376-3.025-3.164-6.615-5.031-10.104-9.512-17.258-14.716-23.492-1.162-1.393-2.113-2.603-2.113-2.69 0-.198 1.134.483 4.468 2.681Zm55.188 35.061c-10.515 1.046-18.294 8.515-20.161 19.357-2.133 12.391 4.947 23.68 16.9 26.947 2.846.778 8.974.778 12.075.001 11.123-2.79 18.004-13.058 16.782-25.046-1.399-13.728-12.084-22.602-25.596-21.259Zm58.932 81.082c0 .848.004.851 1.087.851h1.086v6.267h1.933v-6.267h2.445l-.075-.783-.076-.784-3.2-.067-3.2-.067v.85Zm7.648-.676c-.089.089-.161 1.878-.161 3.977v3.817h1.691v-2.304c0-2.658.099-2.681 1.37-.332 1.233 2.279 1.738 2.256 3.046-.136 1.344-2.459 1.38-2.451 1.38.313v2.459h1.449v-7.954h-.584c-1.052 0-1.344.272-2.487 2.321-.622 1.114-1.233 1.991-1.359 1.949-.127-.042-.719-.938-1.316-1.992-.598-1.054-1.206-1.997-1.353-2.094-.335-.222-1.461-.238-1.676-.024Z" clip-rule="evenodd"/></svg>