<svg xmlns="http://www.w3.org/2000/svg" width="150" height="23"><path fill="#73C41D" fill-rule="nonzero" d="M149.743 9.442c.172.385.257.803.257 1.25 0 .46-.085.884-.257 1.273a3.237 3.237 0 0 1-.695 1.012 3.13 3.13 0 0 1-1.021.668 3.262 3.262 0 0 1-1.244.239c-.44 0-.856-.08-1.248-.239a3.163 3.163 0 0 1-1.728-1.68 3.114 3.114 0 0 1-.258-1.273c0-.447.086-.865.258-1.25a3.17 3.17 0 0 1 1.728-1.673 3.244 3.244 0 0 1 1.248-.242 3.213 3.213 0 0 1 2.96 1.915Zm-.527 2.335c.133-.331.2-.693.2-1.085 0-.38-.067-.734-.2-1.063a2.61 2.61 0 0 0-1.394-1.426 2.573 2.573 0 0 0-1.04-.208 2.619 2.619 0 0 0-1.89.778 2.616 2.616 0 0 0-.558.856 2.789 2.789 0 0 0-.202 1.063c0 .392.068.754.202 1.085a2.59 2.59 0 0 0 1.399 1.438c.322.14.673.21 1.05.21a2.586 2.586 0 0 0 2.433-1.648Zm-1.206-1.131a1.28 1.28 0 0 1-.704.276l1.073 1.643h-.626l-1.021-1.6h-.618v1.6h-.583v-3.72h1.45c.445 0 .776.089.99.264.215.177.322.443.322.8 0 .335-.094.58-.283.737Zm-1.287-.15c.131 0 .256-.004.373-.012a.948.948 0 0 0 .314-.073c.091-.04.164-.1.218-.182a.622.622 0 0 0 .081-.345.533.533 0 0 0-.073-.298.495.495 0 0 0-.188-.17.832.832 0 0 0-.266-.08 2.103 2.103 0 0 0-.296-.022h-.772v1.182h.61ZM42.281 9.436V7.418h2.327v14.003H42.28v-1.87h-.06c-1.03 1.227-2.77 2.367-5.157 2.367-3.829 0-7.249-2.953-7.249-7.514 0-4.327 3.182-7.453 7.397-7.453 2.564 0 4.065 1.344 5.038 2.483h.03Zm-4.893 10.437c2.653 0 5.099-2.222 5.099-5.38 0-3.332-2.27-5.524-5.04-5.524-3.536 0-5.216 2.748-5.216 5.436 0 2.69 1.68 5.468 5.157 5.468Zm25.409-12.92c3.183 0 5.393 2.191 5.393 6.314v8.155H65.86V13.09c0-2.162-1.001-4.062-3.388-4.062-1.975 0-3.831 1.403-3.831 4.62v7.775h-2.358V13.09c0-2.308-1.267-4.062-3.36-4.062-2.357 0-3.86 1.695-3.86 4.62v7.775h-2.329V7.42h2.33v1.754h.06c.94-1.256 2.385-2.22 4.212-2.22 2.21 0 4.007 1.255 4.597 2.893.708-1.404 2.417-2.894 4.863-2.894Zm31.236 0c4.39 0 7.544 3.215 7.544 7.453 0 4.122-3.183 7.513-7.544 7.513-4.273 0-7.544-3.275-7.544-7.513 0-4.329 3.3-7.454 7.544-7.454Zm0 12.861c2.976 0 5.127-2.34 5.127-5.408 0-2.953-2.033-5.38-5.127-5.38-3.005 0-5.128 2.281-5.128 5.38 0 3.156 2.417 5.408 5.128 5.408ZM110.61 6.952c4.393 0 7.545 3.216 7.545 7.454 0 4.122-3.184 7.513-7.545 7.513-4.27 0-7.543-3.275-7.543-7.513 0-4.329 3.3-7.454 7.543-7.454Zm0 12.862c2.976 0 5.13-2.34 5.13-5.408 0-2.953-2.034-5.38-5.13-5.38-3.004 0-5.125 2.281-5.125 5.38 0 3.156 2.416 5.408 5.125 5.408Zm18.595-6.392V7.468h1.712v13.954h-1.712v-6.445h-7.482v6.445h-1.71V7.468h1.71v5.954h7.482Zm13.16-1.862c0 1.984-1.487 3.519-3.258 3.867l4.434 5.995h-2.168l-4.247-5.83h-1.879v5.83h-1.712V7.468h4.065c3.505 0 4.764 2.169 4.764 4.092Zm-7.118 2.475h2.557c1.86 0 2.787-1.124 2.787-2.475 0-1.637-.99-2.537-2.806-2.537h-2.538v5.012ZM20.545 6.8c4.075 0 7.594 3.49 7.594 7.55 0 4.374-3.374 7.776-7.83 7.776-4.045 0-7.57-2.83-7.57-7.37V0h2.342v9.016l.279-.29C16.38 7.724 17.833 6.8 20.545 6.8Zm-.236 13.208c3.323 0 5.435-2.347 5.435-5.442 0-2.845-1.996-5.56-5.382-5.56-3.386 0-5.486 2.533-5.486 5.617 0 3.083 2.49 5.385 5.433 5.385ZM77.651 6.799c4.075 0 7.595 3.49 7.595 7.55 0 4.374-3.374 7.776-7.83 7.776-4.046 0-7.572-2.83-7.572-7.37V1.39h2.343l.001 7.627.278-.29C73.486 7.724 74.94 6.8 77.651 6.8Zm-.236 13.208c3.324 0 5.435-2.347 5.435-5.442 0-2.845-1.995-5.56-5.382-5.56-3.386 0-5.485 2.533-5.485 5.617 0 3.083 2.49 5.385 5.432 5.385ZM8.041 1.78c1.748 1.832 1.932 2.855 2.553 4.633l1.04 3.38s-1.026-.192-1.866-.317c-.975-.147-1.406-.29-2.645-.791-1.24-.501-2.36-1.727-3.46-3.093C2.566 4.225 0 2.077 0 2.077s.793.052 1.597.25c.66.164 2.375.716 4.144 1.628.393.202.61.333.998.57.588.361 1.207.9 1.8 1.496.696.7 1.306 1.263 1.826 1.89C9.798 6.875 8.33 3.148 5.457.072c-.282-.301 1.985 1.081 2.584 1.71Z"/></svg>