<?xml version="1.0" standalone="no"?>
<!DOCTYPE svg PUBLIC "-//W3C//DTD SVG 20010904//EN"
 "http://www.w3.org/TR/2001/REC-SVG-20010904/DTD/svg10.dtd">
<svg version="1.0" xmlns="http://www.w3.org/2000/svg"
 width="225.000000pt" height="225.000000pt" viewBox="0 0 225.000000 225.000000"
 preserveAspectRatio="xMidYMid meet">
<metadata>
Created by potrace 1.16, written by Peter Selinger 2001-2019
</metadata>
<g transform="translate(0.000000,225.000000) scale(0.100000,-0.100000)"
fill="#000000" stroke="none">
<path d="M1810 1833 l-423 -418 114 -7 c126 -7 160 -15 224 -52 110 -65 159
-188 123 -310 -12 -40 -84 -123 -138 -159 -21 -13 -23 -18 -10 -26 8 -5 31
-19 50 -31 52 -31 98 -105 112 -176 20 -113 -27 -234 -117 -296 -75 -52 -127
-58 -487 -58 l-328 0 0 327 0 328 -467 -467 c-320 -320 -464 -471 -457 -478 7
-7 371 -9 1125 -8 l1114 3 3 1114 c1 635 -2 1119 -7 1124 -5 5 -187 -168 -431
-410z"/>
<path d="M1170 1085 l0 -115 165 0 c186 0 224 9 249 59 20 37 20 62 2 105 -23
56 -60 66 -250 66 l-166 0 0 -115z"/>
<path d="M1172 638 l3 -123 160 -3 c91 -2 175 1 196 7 50 15 80 51 86 103 5
52 -11 85 -56 115 -32 22 -43 23 -213 23 l-179 0 3 -122z"/>
</g>
</svg>
