<svg width="250" height="250" viewBox="0 0 250 250" fill="none" xmlns="http://www.w3.org/2000/svg">
<g clip-path="url(#clip0_982_1673)">
<path d="M128.827 135.658H149.137C154.913 135.658 158.567 132.48 158.567 127.374C158.567 122.558 154.913 119.089 149.137 119.089H128.827C128.155 119.089 127.579 119.665 127.579 120.248V134.499C127.67 135.173 128.148 135.658 128.827 135.658ZM128.827 168.497H149.809C156.258 168.497 160.106 165.222 160.106 159.443C160.106 154.433 156.452 150.388 149.809 150.388H128.827C128.155 150.388 127.579 150.964 127.579 151.547V167.248C127.67 168.018 128.148 168.497 128.827 168.497Z" fill="#34313F"/>
<path d="M203.131 44.3561L143.07 104.262H152.888C168.191 104.262 177.24 113.892 177.24 124.39C177.24 132.674 171.658 138.739 165.688 141.438C164.724 141.826 164.724 143.172 165.785 143.554C172.712 146.253 177.621 153.476 177.621 161.948C177.621 173.889 169.634 183.422 154.136 183.422H111.597C110.924 183.422 110.348 182.846 110.348 182.264V136.901L44.4143 202.593C43.5475 203.46 44.1232 205 45.378 205H203.901C204.476 205 204.961 204.521 204.961 203.939V45.2234C205.246 44.1619 203.901 43.5859 203.131 44.3561Z" fill="#34313F"/>
</g>
<defs>
<clipPath id="clip0_982_1673">
<rect width="161" height="161" fill="white" transform="translate(44 44)"/>
</clipPath>
</defs>
</svg>
