<svg height="-80" viewBox="68.6 121.7 480.5 108.6" width="2500" xmlns="http://www.w3.org/2000/svg"><g fill="#34313f"><path d="m201.1 174.5c7.3 0 12.2 3.3 15.2 7.4v-58.4c0-1.1-1.3-1.8-2.2-1.1l-72.1 52.7h1.9c7.5 0 11.3 4.8 11.3 10 0 4.1-2.1 7.1-5 8.4-.5.2-.5.9 0 1.1 3.3 1.4 5.7 4.9 5.7 9.1 0 6-3.9 10.7-11.4 10.7h-20.5c-.4 0-.8-.3-.8-.8v-24.8l-53.7 39.3c-.9.8-.5 2.2.7 2.2h144.8c.7 0 1.2-.5 1.2-1.2v-19.9c-3.9 3.6-9 5.9-15.2 5.9-11.6 0-21-8-21-20.3.1-12.4 9.6-20.3 21.1-20.3zm-28.7 39.2c0 .4-.3.7-.7.7h-6.9c-.4 0-.7-.3-.7-.7v-37.9c0-.4.3-.7.7-.7h6.9c.4 0 .7.3.7.7z"/><path d="m132.4 190.7h9.7c2.8 0 4.6-1.6 4.6-4.1 0-2.4-1.8-4.1-4.6-4.1h-10.1c-.2 0-.4.2-.4.4v7.1c0 .4.4.7.8.7zm0 16.4h10.1c3.1 0 5-1.7 5-4.5 0-2.5-1.8-4.5-5-4.5h-10.1c-.4 0-.8.3-.8.8v7.4c0 .4.4.8.8.8zm77.6-20.7c-1.9-2.5-5.1-4.5-8.9-4.5-7.2 0-12.4 5.5-12.4 12.9s5.2 12.9 12.4 12.9c3.3 0 6.4-1.4 8.1-2.8.1-.1.2-.3.2-.5v-3.8c0-.3-.3-.6-.6-.6h-8.9c-.5 0-.8-.4-.8-.8v-5.6c0-.5.4-.8.8-.8h16.5v-8.9l-5.3 2.9c-.4.1-.9-.1-1.1-.4zm12.5 8.4c0-12.1 8.7-20.3 19.9-20.3 7.3 0 12 3.7 14.8 8.2.2.3.1.8-.3.9l-4.5 2.4c-.3.2-.7.1-.8-.2-1.9-3-5.4-5.2-9.2-5.2-7.5 0-13.1 5.9-13.1 14.2 0 8.2 5.6 14.2 13.1 14.2 3.8 0 7.3-2.2 9.2-5.2.2-.3.5-.4.8-.2l4.5 2.3c.4.2.5.6.3 1-2.9 4.5-7.6 8.3-14.8 8.3-11.2-.1-19.9-8.4-19.9-20.4zm38.6 0c0-9.8 5.6-17.4 14-19.6 14.3-3.8 27.4 9.6 24.3 24.5-1.9 9.2-9.2 15.5-18.9 15.5-11.4-.1-19.4-8.7-19.4-20.4zm31.9 0c0-8.1-5-14.2-12.6-14.2-7.7 0-12.6 6.1-12.6 14.2s4.9 14.2 12.6 14.2 12.6-6.2 12.6-14.2zm47.6 19.1v-29.9l-11.9 30.1c0 .1-.2.2-.3.2h-2.5c-.1 0-.3-.1-.3-.2l-12-30.1v29.9c0 .3-.2.5-.5.5h-6c-.3 0-.5-.2-.5-.5v-38.4c0-.3.2-.5.5-.5h8.6c.4 0 .7.2.9.6l10.5 27 10.4-27c.1-.4.5-.6.9-.6h8.6c.3 0 .5.2.5.5v38.4c0 .3-.2.5-.5.5h-6c-.1 0-.4-.2-.4-.5zm68-.2v-37.9c0-.4.3-.7.7-.7h25.5c.4 0 .7.3.7.7v4.6c0 .4-.3.7-.7.7h-18.6c-.4 0-.7.3-.7.7v8.7c0 .4.3.7.7.7h18.2c.4 0 .7.3.7.7v4.6c0 .4-.3.7-.7.7h-18.2c-.4 0-.7.3-.7.7v9.5c0 .4.3.7.7.7h18.6c.4 0 .7.3.7.7v4.6c0 .4-.3.7-.7.7h-25.5c-.4.3-.7 0-.7-.4zm58.9.3-8.3-14c-.1-.2-.4-.3-.6-.3h-5.8c-.4 0-.7.3-.7.7v13.3c0 .4-.3.7-.7.7h-5.4c-.4 0-.7-.3-.7-.7v-37.9c0-.4.3-.7.7-.7h16.6c7.8 0 12.9 5 12.9 12.3 0 6.5-4 10.2-8.4 11.3-.5.1-.7.6-.5 1.1 1.6 2.6 6.6 10.6 8.5 13.5.3.5 0 1.1-.6 1.1h-6.3c-.3 0-.5-.1-.7-.4zm.9-26.7c0-3.8-2.8-6.2-6.7-6.2h-8.8c-.4 0-.7.3-.7.7v11.1c0 .4.3.7.7.7h8.8c3.9 0 6.7-2.4 6.7-6.3zm53.7 26.4v-37.9c0-.4.3-.7.7-.7h25.6c.4 0 .7.3.7.7v4.7c0 .4-.3.7-.7.7h-18.7c-.4 0-.7.3-.7.7v8.8c0 .4.3.7.7.7h18.2c.4 0 .7.3.7.7v4.7c0 .4-.3.7-.7.7h-18.2c-.4 0-.7.3-.7.7v9.6c0 .4.3.7.7.7h18.7c.4 0 .7.3.7.7v4.7c0 .4-.3.7-.7.7h-25.6c-.4-.2-.7-.5-.7-.9zm-41.6-19.1c0-12.1 8.7-20.3 19.9-20.3 7.3 0 12 3.7 14.8 8.2.2.3.1.8-.3.9l-4.5 2.4c-.3.2-.7.1-.8-.2-1.9-3-5.4-5.2-9.2-5.2-7.5 0-13.1 5.9-13.1 14.2 0 8.2 5.6 14.2 13.1 14.2 3.8 0 7.3-2.2 9.2-5.2.2-.3.5-.4.8-.2l4.5 2.3c.4.2.5.6.3 1-2.9 4.5-7.6 8.3-14.8 8.3-11.2-.1-19.9-8.3-19.9-20.4zm-88.9 19.3v-29.9l-11.9 30.1c0 .1-.2.2-.3.2h-2.5c-.1 0-.3-.1-.3-.2l-12-30.1v29.9c0 .3-.2.5-.5.5h-6c-.3 0-.5-.2-.5-.5v-38.4c0-.3.2-.5.5-.5h8.6c.4 0 .7.2.9.6l10.5 27 10.4-27c.1-.4.5-.6.9-.6h8.6c.3 0 .5.2.5.5v38.4c0 .3-.2.5-.5.5h-6c-.2 0-.4-.2-.4-.5z"/></g></svg>