<svg width="250" height="250" viewBox="0 0 250 250" fill="none" xmlns="http://www.w3.org/2000/svg">
<path d="M83.0709 183.902L52.6745 131.252C51.5059 129.228 50.8906 126.932 50.8906 124.594C50.8906 122.257 51.5059 119.961 52.6745 117.937L83.0709 65.2879C84.2397 63.2634 85.9209 61.5823 87.9454 60.4135C89.9699 59.2447 92.2664 58.6295 94.6041 58.6296H155.397C157.734 58.6297 160.03 59.245 162.055 60.4138C164.079 61.5826 165.76 63.2636 166.929 65.2879L197.325 117.937C198.494 119.961 199.109 122.257 199.109 124.595C199.109 126.932 198.494 129.229 197.325 131.253L166.929 183.902C165.76 185.926 164.079 187.607 162.055 188.775C160.03 189.944 157.734 190.559 155.397 190.559H94.6041C92.2664 190.559 89.9698 189.944 87.9453 188.775C85.9208 187.607 84.2396 185.925 83.0709 183.901V183.902Z" fill="url(#paint0_linear_2_7295)"/>
<path opacity="0.07" fill-rule="evenodd" clip-rule="evenodd" d="M187.17 148.843L166.929 183.902C165.76 185.926 164.079 187.607 162.055 188.775C160.031 189.944 157.735 190.559 155.397 190.559H152.993L106.401 143.967L101.031 124.595L107.709 107.197L125.001 100.77L144.252 105.922L187.17 148.843Z" fill="black"/>
<path d="M125.001 97.7347C110.168 97.7347 98.1426 109.76 98.1426 124.595C98.1426 139.428 110.168 151.454 125.001 151.454C139.835 151.454 151.859 139.428 151.859 124.595C151.859 109.76 139.834 97.7347 125.001 97.7347ZM125.001 144.974C113.746 144.974 104.621 135.849 104.621 124.594C104.621 113.338 113.746 104.215 125.001 104.215C136.257 104.215 145.381 113.339 145.381 124.595C145.381 135.85 136.257 144.975 125.001 144.975" fill="white"/>
<path d="M112.252 123.557V131.906C113.487 134.027 115.23 135.807 117.324 137.088V123.557H112.252ZM122.309 116.519V138.996C123.171 139.155 124.054 139.251 124.961 139.251C125.787 139.251 126.593 139.164 127.384 139.032V116.519H122.309ZM132.836 127.026V136.941C134.963 135.588 136.709 133.715 137.91 131.498V127.028L132.836 127.026ZM144.328 141.138L141.546 143.923C141.31 144.159 141.178 144.48 141.178 144.813C141.178 145.147 141.31 145.467 141.546 145.703L152.101 156.254C152.337 156.49 152.657 156.622 152.991 156.622C153.324 156.622 153.644 156.49 153.88 156.254L156.663 153.473C156.897 153.236 157.029 152.917 157.029 152.584C157.029 152.251 156.897 151.931 156.663 151.694L146.107 141.138C145.871 140.904 145.551 140.772 145.218 140.772C144.885 140.772 144.565 140.904 144.328 141.138Z" fill="white"/>
<defs>
<linearGradient id="paint0_linear_2_7295" x1="125" y1="58.6308" x2="125" y2="190.354" gradientUnits="userSpaceOnUse">
<stop stop-color="#4387FD"/>
<stop offset="1" stop-color="#4683EA"/>
</linearGradient>
</defs>
</svg>
