<svg xmlns="http://www.w3.org/2000/svg" width="250" height="250" fill="none"><path fill="url(#a)" d="m69.278 203.278-40.396-69.969a17.698 17.698 0 0 1 0-17.696l40.396-69.967a17.697 17.697 0 0 1 15.327-8.849h80.79a17.697 17.697 0 0 1 15.325 8.849l40.395 69.967a17.69 17.69 0 0 1 0 17.697l-40.395 69.968a17.692 17.692 0 0 1-15.325 8.847h-80.79a17.702 17.702 0 0 1-15.327-8.849v.002Z"/><path fill="#000" fill-rule="evenodd" d="m207.621 156.686-26.9 46.592a17.692 17.692 0 0 1-15.325 8.847h-3.195l-61.919-61.919-7.135-25.744 8.874-23.121 22.98-8.541 25.584 6.846 57.036 57.04Z" clip-rule="evenodd" opacity=".07"/><path fill="#fff" d="M125.001 88.766c-19.713 0-35.694 15.981-35.694 35.695 0 19.713 15.981 35.694 35.694 35.694 19.712 0 35.692-15.981 35.692-35.694 0-19.714-15.981-35.695-35.692-35.695Zm0 62.778c-14.958 0-27.084-12.126-27.084-27.084S110.043 97.377 125 97.377c14.957 0 27.084 12.127 27.084 27.084 0 14.958-12.127 27.084-27.084 27.084"/><path fill="#fff" d="M108.059 123.083v11.095a19.681 19.681 0 0 0 6.74 6.886v-17.981h-6.74Zm13.365-9.354V143.6a19.41 19.41 0 0 0 3.524.339 19.55 19.55 0 0 0 3.22-.291v-29.919h-6.744Zm13.989 13.964v13.176a19.683 19.683 0 0 0 6.744-7.233v-5.941l-6.744-.002Zm15.274 18.754-3.698 3.701a1.675 1.675 0 0 0 0 2.365l14.026 14.022a1.674 1.674 0 0 0 2.366 0l3.698-3.696a1.681 1.681 0 0 0 0-2.364l-14.029-14.028a1.677 1.677 0 0 0-2.363 0Z"/><defs><linearGradient id="a" x1="125" x2="125" y1="36.799" y2="211.852" gradientUnits="userSpaceOnUse"><stop stop-color="#4387FD"/><stop offset="1" stop-color="#4683EA"/></linearGradient></defs></svg>