<?xml version="1.0" encoding="UTF-8"?>
<!-- Generator: Adobe Illustrator 19.2.0, SVG Export Plug-In . SVG Version: 6.00 Build 0)  -->
<svg version="1.1" id="Layer_1" xmlns="http://www.w3.org/2000/svg" xmlns:xlink="http://www.w3.org/1999/xlink" x="0px" y="0px" viewBox="0 0 350 76.8" style="enable-background:new 0 0 300 76.8;" xml:space="preserve">
<style type="text/css">
	.st0{fill:#008272;}
</style>
<title>bing-ads-logo-teal</title>
<path class="st0" d="M76.8,61.5V15.4h13.1c4,0,7.2,1,9.5,2.9c2.3,1.9,3.6,4.7,3.5,7.6c0.1,2.4-0.7,4.8-2.1,6.8  c-1.5,2-3.5,3.4-5.8,4.1V37c2.8,0.2,5.5,1.5,7.4,3.5c1.9,2.1,2.9,4.9,2.8,7.7c0.1,3.7-1.4,7.2-4.2,9.5c-3,2.5-6.8,3.8-10.7,3.7H76.8  z M82.2,20.3v14.9h5.5c2.5,0.1,5-0.6,7-2.1c1.7-1.5,2.7-3.7,2.5-6c0-4.5-2.9-6.7-8.8-6.7L82.2,20.3L82.2,20.3z M82.2,40v16.6h7.3  c3.2,0,5.6-0.8,7.4-2.2c1.8-1.5,2.7-3.8,2.6-6.2c0-5.4-3.7-8.2-11.1-8.2L82.2,40L82.2,40z M118.2,17.8c0-0.9-0.4-1.8-1-2.4  c-0.6-0.7-1.5-1-2.5-1c-0.9,0-1.8,0.3-2.4,1c-0.6,0.6-1,1.5-1,2.4c0,0.9,0.3,1.8,1,2.5c1.4,1.3,3.5,1.3,4.8,0  C117.8,19.6,118.2,18.7,118.2,17.8 M117.3,28.8h-5.2v32.6h5.2L117.3,28.8L117.3,28.8z M153.1,41.5c0-4.3-0.9-7.6-2.8-10  c-1.9-2.4-4.6-3.5-8.2-3.5c-4.5-0.1-8.6,2.3-10.7,6.2h-0.1v-5.5H126v32.7h5.2V42.8c-0.1-2.7,0.8-5.4,2.6-7.5c1.6-1.9,4-3,6.5-2.9  c5.1,0,7.6,3.5,7.6,10.4v18.6h5.2L153.1,41.5L153.1,41.5z M190.1,58.9c0,12-5.7,18-17.2,18c-3.7,0.1-7.3-0.7-10.6-2.3l1.4-4.6  c2.8,1.6,5.9,2.4,9.1,2.3c8.1,0,12.1-4.3,12.1-12.8V56h-0.1c-2.2,4.1-6.6,6.5-11.2,6.3c-5.1,0.1-9.8-2.9-11.8-7.6  c-1.2-2.7-1.8-5.6-1.7-8.5c0-5.6,1.4-10,4.1-13.3c2.7-3.3,6.7-5.1,10.9-4.9c4.4,0,7.7,1.8,9.8,5.3h0.1v-4.5h5.2L190.1,58.9  L190.1,58.9z M184.9,46.7v-4.9c0.1-2.5-0.9-4.9-2.7-6.7c-1.7-1.8-4-2.8-6.5-2.7c-3-0.1-5.8,1.2-7.6,3.6c-1.8,2.4-2.7,5.6-2.7,9.9  c-0.1,3.1,0.8,6.1,2.6,8.6c1.7,2.2,4.3,3.4,7,3.3c2.7,0.1,5.3-1.1,7.1-3.1C184.1,52.5,185,49.6,184.9,46.7"/>
<polygon class="st0" points="19.7,25.3 26.4,42 37,46.9 15.4,59.4 15.4,5.4 0,0 0,68.2 15.4,76.8 53.8,54.7 53.8,37.3 "/>
<path class="st0" d="M232.8,61.6V55h-0.1c-1,2.2-2.6,4.1-4.6,5.4c-2,1.3-4.3,2-6.6,2c-2.7,0.1-5.4-0.8-7.4-2.6  c-1.9-1.7-2.9-4.2-2.8-6.7c0-5.8,3.8-9.3,11.4-10.4l10.1-1.5c0-7.1-2.7-10.6-8-10.6c-3.6,0-7.2,1.5-10.6,4.4v-3.6  c1.5-1.1,3.2-1.9,5-2.5c1.9-0.6,3.9-1,5.9-1c3.4,0,6,1,7.9,3.1s2.8,5.2,2.8,9.2v21.4h-3H232.8z M214.3,53c-0.1,1.9,0.6,3.6,2,4.9  c1.5,1.3,3.4,1.9,5.4,1.8c3,0.1,6-1.2,7.9-3.6c2.1-2.5,3.3-5.8,3.1-9.1v-3.3l-9.1,1.3c-3.7,0.6-6.2,1.4-7.4,2.5  C215,48.8,214.3,50.6,214.3,53"/>
<path class="st0" d="M269.1,61.6v-6H269c-1.1,2.1-2.8,3.8-4.8,5c-2.1,1.2-4.6,1.9-7.1,1.8c-3.9,0.1-7.5-1.5-10-4.5  c-2.5-3-3.8-7.1-3.8-12.2c-0.1-3.2,0.6-6.3,1.9-9.2c1.1-2.6,3-4.8,5.4-6.4c2.3-1.5,5.1-2.3,7.9-2.3c4.9,0,8.5,2,10.6,6.1h0.1V12.7h3  v48.8H269.1L269.1,61.6z M269.1,41.5c0.1-2.9-1-5.8-3-7.9c-2-2.1-4.8-3.2-7.8-3.1c-3.3-0.1-6.5,1.4-8.6,4.1  c-2.2,2.7-3.4,6.3-3.4,10.9c0,4.4,1,7.8,2.9,10.4c1.9,2.5,4.9,4,8,3.9c3.2,0.1,6.3-1.1,8.6-3.3c2.2-2.3,3.4-5.5,3.2-8.7L269.1,41.5  L269.1,41.5z"/>
<path class="st0" d="M281,60.1v-3.6c1.2,1,2.5,1.7,3.9,2.2c1.4,0.6,2.8,0.9,4.3,0.9c5.2,0,7.8-2.1,7.8-6.3c0-1.4-0.6-2.7-1.6-3.6  c-1.7-1.4-3.6-2.5-5.7-3.3c-2.4-0.9-4.6-2.3-6.5-4.1c-1.4-1.5-2.1-3.5-2-5.6c-0.1-2.5,1-4.9,3-6.5c2.2-1.7,4.9-2.6,7.6-2.5  c2.5-0.1,5,0.5,7.2,1.7v3.4c-2.2-1.5-4.9-2.3-7.6-2.4c-1.9-0.1-3.8,0.5-5.2,1.7c-1.3,1.1-2,2.7-2,4.4c-0.1,1,0.1,2.1,0.6,3  c0.5,0.8,1.2,1.5,2,2c1.3,0.9,2.8,1.6,4.2,2.2c3.5,1.6,5.9,3,7.2,4.3c1.3,1.4,1.9,3.3,1.8,5.2c0.1,2.5-1,5-3,6.6  c-2.3,1.8-5.2,2.6-8.1,2.5C286.1,62.5,283.3,61.7,281,60.1"/>
</svg>