<?xml version="1.0" encoding="utf-8"?>
<!-- Generator: Adobe Illustrator 26.5.0, SVG Export Plug-In . SVG Version: 6.00 Build 0)  -->
<svg version="1.0" id="katman_1" xmlns="http://www.w3.org/2000/svg" xmlns:xlink="http://www.w3.org/1999/xlink" x="0px" y="0px"
	 viewBox="0 0 1190.55 841.89" style="enable-background:new 0 0 1190.55 841.89;" xml:space="preserve">
<style type="text/css">
	.st0{fill-rule:evenodd;clip-rule:evenodd;fill:#FBBC2B;}
	.st1{fill:#FBBC2B;}
</style>
<path class="st0" d="M274.9,293.84c-70.52,0-127.9,56.59-127.9,126.66c0,70.06,57.36,126.64,127.87,126.66h0.03
	c70.52,0,127.9-56.59,127.9-126.66c0-70.06-57.37-126.65-127.88-126.66C274.93,293.84,274.9,293.84,274.9,293.84z M274.94,520.17
	c55.81-0.03,100.83-44.75,100.83-99.67c0-8.58-1.1-16.92-3.17-24.87c0.03,1.02,0.05,2.04,0.05,3.07c0,52.27-42.92,94.48-95.67,94.48
	c-4.59,0.19-8.46-3.38-8.65-7.96c-0.19-4.59,3.38-8.46,7.96-8.65c0.23-0.01,0.46-0.01,0.68,0c43.74,0,79.03-34.95,79.03-77.87
	c0-1.23-0.03-2.46-0.09-3.68c-8.54,32.94-41.24,56.63-78.94,56.63c-4.59,0-8.32-3.72-8.32-8.3s3.72-8.3,8.32-8.3
	c36.45,0,64.47-26.37,64.47-57.1c0-27.43-22.33-51.39-53.05-56.21c-4.48-0.59-8.99-0.89-13.51-0.89h-0.03
	c-55.81,0.02-100.84,44.75-100.84,99.67c0,8.65,1.12,17.04,3.22,25.05c-0.07-1.42-0.09-2.85-0.09-4.29
	c0-52.93,43.95-95.51,97.74-95.51c4.59,0,8.3,3.72,8.3,8.3s-3.72,8.3-8.3,8.3c0,0,0,0,0,0c-44.98,0-81.11,35.51-81.11,78.9
	c0,1.58,0.05,3.15,0.14,4.71c8.78-33.05,42.46-56.61,80.97-56.61c4.59,0,8.3,3.72,8.3,8.3s-3.72,8.3-8.3,8.3
	c-37.83,0-66.55,26.58-66.55,57.1s28.72,57.1,66.55,57.1H274.94z M470.96,451.59c0,0.27,0.02,0.53,0.07,0.78
	c1.61,38,32.98,68.31,71.44,68.31c39.49,0,71.5-31.97,71.5-71.39c0-39.42-32.01-71.39-71.5-71.39c-14.48,0-27.96,4.3-39.22,11.68
	v-42.81c0-17.15-13.92-31.05-31.09-31.05c-0.66,0-1.19,0.53-1.2,1.19L470.96,451.59L470.96,451.59z M542.47,488.44
	c21.65,0,39.21-18.04,39.21-40.3c0-22.26-17.55-40.3-39.21-40.3c-21.66,0-39.22,18.04-39.22,40.3
	C503.25,470.39,520.81,488.44,542.47,488.44z"/>
<path class="st1" d="M651.57,353.76c10.97,0,19.15-7.77,19.15-18.92c0-10.96-8.18-19.12-19.15-19.12
	c-11.17,0-19.15,8.16-19.15,19.12C632.43,346,640.41,353.76,651.57,353.76z M634.73,515.8c0,2.54,2.06,4.61,4.61,4.61h23.16
	c2.55,0,4.61-2.06,4.61-4.61v-139c0-0.66-0.54-1.2-1.2-1.2c-17.22,0-31.18,13.94-31.18,31.13
	C634.73,406.73,634.73,515.8,634.73,515.8z M759.52,488.23c3.18-0.28,6.41,2.09,6.41,5.28v21.56c0,2.11-1.44,3.94-3.54,4.25
	c-3.11,0.47-8.2,1.01-15.01,1.01c-28.62,0-37.64-22.85-37.64-41.92v-65.86c-0.01-2.54-2.07-4.6-4.62-4.6H694.7
	c-2.55,0-4.61-2.06-4.62-4.61l0,0v-21.74c0-2.55,2.07-4.61,4.62-4.61h10.42c2.55,0,4.62-2.06,4.62-4.61v-54.63
	c0-1.11,0.9-2.02,2.02-2.02c0,0,0,0,0,0c16.77,0,30.36,13.57,30.36,30.31v27.11c0,2.12,1.72,3.83,3.83,3.83h15.64
	c2.55,0,4.61,2.06,4.61,4.61v21.74c0,2.54-2.06,4.61-4.61,4.61h-14.86c-2.54,0-4.61,2.06-4.61,4.6c0,0,0,0,0,0v61.73
	c0,9.67,4.43,14.09,14.67,14.09C757.76,488.35,758.67,488.31,759.52,488.23L759.52,488.23z M822.96,500.65
	c0,11.16-8.18,18.92-19.15,18.92c-11.17,0-19.15-7.77-19.15-18.92c0-10.95,7.98-19.12,19.15-19.12
	C814.78,481.53,822.96,489.69,822.96,500.65z M880.63,334.84c0,11.16-8.18,18.92-19.15,18.92c-11.17,0-19.15-7.77-19.15-18.92
	c0-10.96,7.98-19.12,19.15-19.12C872.45,315.72,880.63,323.89,880.63,334.84L880.63,334.84z M849.24,520.41
	c-2.54,0-4.61-2.06-4.61-4.6c0,0,0,0,0,0V406.73c0-17.19,13.96-31.13,31.19-31.13c0.66,0,1.2,0.53,1.2,1.2V515.8
	c0,2.54-2.06,4.61-4.61,4.61C872.4,520.41,849.24,520.41,849.24,520.41z"/>
<path class="st0" d="M1043,449.29c0,39.43-32.01,71.39-71.51,71.39c-39.49,0-71.5-31.96-71.5-71.39c0-39.42,32.01-71.39,71.5-71.39
	C1010.99,377.9,1043,409.87,1043,449.29z M1010.71,448.14c0,22.25-17.55,40.3-39.21,40.3c-21.65,0-39.21-18.04-39.21-40.3
	c0-22.26,17.55-40.3,39.21-40.3C993.15,407.84,1010.71,425.88,1010.71,448.14L1010.71,448.14z"/>
</svg>
