<svg xmlns="http://www.w3.org/2000/svg" width="387.811" height="387.811" viewBox="47.541 62.511 387.811 387.811"><g><path d="M47.54 256.416v193.906h387.812V62.511H47.541v193.905zm217.943-103.254c23.874 3.918 39.387 13.29 47.749 28.843 2.585 4.727 4.726 11.11 5.494 16.28.808 5.373.848 14.341.08 18.623-2.706 15.391-11.593 26.985-26.136 34.055-2.02 1.01-3.394 1.898-3.11 2.02.322.08 2.221.767 4.2 1.454 10.827 3.716 20.724 10.382 26.864 18.017 8.08 10.018 11.352 21.33 10.14 34.66-2.908 31.066-25.45 49.447-65.08 53.082-2.989.283-24.157.445-59.262.445h-54.657v-30.702h24.238V182.894h-24.238v-30.742l54.657.161c50.375.122 54.98.162 59.06.849z"/><path d="M209.129 211.212v28.318l22.945-.202c24.198-.202 25.248-.282 32.641-2.262 1.737-.485 4.928-1.737 7.03-2.747 3.11-1.494 4.402-2.424 6.947-4.969 4.929-4.888 7.15-10.584 7.191-18.097.04-16.24-10.705-25.693-31.59-27.955-2.182-.202-13.13-.404-24.562-.404H209.13v28.318zM209.129 299.44v30.58l26.783-.202c25.288-.162 26.985-.202 31.388-1.05 16.967-3.192 26.137-9.898 29.127-21.33.97-3.757 1.171-10.423.404-14.058-2.343-10.867-11.07-18.34-25.572-21.815-8.887-2.1-11.674-2.302-37.77-2.504l-24.36-.202v30.58z"/></g></svg>