<?xml version="1.0" encoding="utf-8"?>
<svg viewBox="47.541 62.511 387.811 387.811" width="387.811" height="387.811" xmlns="http://www.w3.org/2000/svg">
  <g transform="matrix(0.040397, 0, 0, -0.040397, 47.540756, 450.321991)" fill="#000000" stroke="none" style="">
    <path d="M0 4800 l0 -4800 4800 0 4800 0 0 4800 0 4800 -4800 0 -4800 0 0 -4800z m5395 2556 c591 -97 975 -329 1182 -714 64 -117 117 -275 136 -403 20 -133 21 -355 2 -461 -67 -381 -287 -668 -647 -843 -50 -25 -84 -47 -77 -50 8 -2 55 -19 104 -36 268 -92 513 -257 665 -446 200 -248 281 -528 251 -858 -72 -769 -630 -1224 -1611 -1314 -74 -7 -598 -11 -1467 -11 l-1353 0 0 380 0 380 300 0 300 0 0 1820 0 1820 -300 0 -300 0 0 380 0 381 1353 -4 c1247 -3 1361 -4 1462 -21z"/>
    <path d="M4000 5919 l0 -701 568 5 c599 5 625 7 808 56 43 12 122 43 174 68 77 37 109 60 172 123 122 121 177 262 178 448 1 402 -265 636 -782 692 -54 5 -325 10 -608 10 l-510 0 0 -701z"/>
    <path d="M4000 3735 l0 -757 663 5 c626 4 668 5 777 26 420 79 647 245 721 528 24 93 29 258 10 348 -58 269 -274 454 -633 540 -220 52 -289 57 -935 62 l-603 5 0 -757z"/>
  </g>
</svg>