<svg xmlns="http://www.w3.org/2000/svg" width="250" height="250" fill="none"><path fill="#000" fill-rule="evenodd" d="M41.548 222.366v-28.475h22.578v-137.4H41.548V28h90.318c41.458 0 66.728 19.101 66.728 52.274 0 21.777-12.802 35.187-28.977 41.552 23.248 6.372 39.768 22.787 39.768 45.242 0 35.513-27.636 55.291-72.795 55.291H41.548v.007ZM95.132 56.49v52.951h33.701c25.279 0 38.42-9.392 38.42-26.481 0-17.428-13.476-26.479-38.753-26.479H95.132v.01Zm0 137.401h38.424c29.664 0 44.491-9.721 44.491-28.49 0-18.434-15.849-28.481-46.851-28.481H95.132v56.971Z" clip-rule="evenodd"/></svg>