<svg width="250" height="250" viewBox="0 0 250 250" fill="none" xmlns="http://www.w3.org/2000/svg">
<path fill-rule="evenodd" clip-rule="evenodd" d="M69.9346 189.493V170.65H84.8754V79.726H69.9346V60.8725H129.702C157.137 60.8725 173.859 73.5127 173.859 95.4645C173.859 109.876 165.387 118.75 154.683 122.962C170.068 127.178 181 138.041 181 152.9C181 176.401 162.711 189.489 132.828 189.489H69.9346V189.493ZM105.393 79.726V114.766H127.695C144.423 114.766 153.119 108.551 153.119 97.2418C153.119 85.7091 144.201 79.7197 127.475 79.7197H105.393V79.726ZM105.393 170.65H130.82C150.45 170.65 160.262 164.217 160.262 151.797C160.262 139.598 149.774 132.95 129.258 132.95H105.393V170.65Z" fill="black"/>
</svg>
