<svg xmlns="http://www.w3.org/2000/svg" width="250" height="250" fill="none"><path fill="#000" fill-rule="evenodd" d="M37.23 227.366v-29.94h23.74V52.956H37.23V23h94.965c43.591 0 70.161 20.084 70.161 54.963 0 22.898-13.461 36.998-30.468 43.691 24.444 6.699 41.814 23.959 41.814 47.569 0 37.34-29.058 58.136-76.541 58.136h-99.93v.007Zm56.34-174.41v55.675h35.435c26.581 0 40.398-9.875 40.398-27.844 0-18.324-14.17-27.84-40.747-27.84H93.571v.01Zm0 144.47h40.402c31.19 0 46.78-10.222 46.78-29.956 0-19.382-16.664-29.947-49.262-29.947H93.57v59.903Z" clip-rule="evenodd"/></svg>