<?xml version="1.0" encoding="UTF-8"?><svg width="700pt" height="700pt" version="1.1" viewBox="0 0 700 700" xmlns="http://www.w3.org/2000/svg"><path d="m138.78 68.145c-23.469 0-42.555 19.293-42.555 42.809v254.04c0 23.52 19.086 42.758 42.555 42.758h143.59l-42.246 66.598-49.34 0.007813c-2.332-0.011719-4.5703 0.91406-6.2188 2.5625-1.6523 1.6484-2.5742 3.8867-2.5625 6.2188 0.015625 4.8359 3.9492 8.7344 8.7812 8.7188h318.44c4.8047-0.019531 8.6953-3.9102 8.7148-8.7188 0.007812-2.3203-0.90625-4.5469-2.5391-6.1953-1.6328-1.6484-3.8555-2.5781-6.1758-2.5859h-49.406l-42.195-66.598h143.54c23.469 0 42.621-19.242 42.621-42.758v-254.04c0-23.52-19.152-42.809-42.621-42.809zm0 17.5h422.38c14.027 0 25.121 11.133 25.121 25.309v254.04c0 14.176-11.098 25.258-25.121 25.258l-262.88 0.003906h-0.375-159.12c-14.027 0-25.055-11.082-25.055-25.258v-254.04c0-14.176 11.027-25.309 25.055-25.309zm120.72 65.301c-2.3125-0.011718-4.5352 0.89063-6.1875 2.5156-1.6602 1.6328-2.5977 3.8594-2.6133 6.1875-0.011719 2.3281 0.90625 4.5664 2.5469 6.2188l16.371 16.441-16.371 16.441v-0.003906c-3.375 3.4336-3.3438 8.9453 0.066406 12.34 3.4141 3.3945 8.9258 3.3945 12.34 0l16.305-16.371 16.305 16.371c3.4102 3.3945 8.9258 3.3945 12.336 0 3.4141-3.3945 3.4453-8.9062 0.070313-12.34l-16.371-16.441 16.371-16.441v0.003907c1.6406-1.6523 2.5586-3.8906 2.5469-6.2188-0.015625-2.3281-0.95703-4.5547-2.6172-6.1875-1.6523-1.6289-3.8828-2.5312-6.2031-2.5156-2.3047 0.019532-4.5078 0.94531-6.1328 2.582l-16.305 16.387-16.32-16.387c-1.625-1.6367-3.832-2.5625-6.1367-2.582zm136.04 0c-2.3203-0.015624-4.5508 0.88672-6.2031 2.5156-1.6602 1.6328-2.6016 3.8594-2.6133 6.1875-0.011719 2.3281 0.90234 4.5664 2.5469 6.2188l16.371 16.441-16.371 16.441v-0.003906c-3.375 3.4336-3.3477 8.9453 0.066406 12.34 3.4141 3.3945 8.9258 3.3945 12.34 0l16.305-16.371 16.32 16.371c3.4102 3.3945 8.9258 3.3945 12.336 0 3.4102-3.3984 3.4336-8.9102 0.054688-12.34l-16.355-16.441 16.371-16.441v0.003907c1.6445-1.6523 2.5586-3.8906 2.5469-6.2188-0.015625-2.3281-0.95312-4.5547-2.6133-6.1875-1.6367-1.6133-3.8398-2.5156-6.1367-2.5156-2.3281 0-4.5625 0.92969-6.2031 2.582l-16.32 16.391-16.305-16.391c-1.625-1.6367-3.832-2.5625-6.1367-2.582zm-45.527 119.36c-29.906 0-57.836 15.559-74.41 41.223-2.6133 4.0508-1.4609 9.4531 2.582 12.082 1.9531 1.2695 4.332 1.7109 6.6094 1.2227 2.2773-0.48828 4.2656-1.8633 5.5234-3.8242 13.48-20.875 35.844-33.258 59.695-33.258 23.852 0 46.199 12.383 59.676 33.258h0.003906c2.6211 4.0508 8.0273 5.2148 12.082 2.6016 4.043-2.6289 5.1953-8.0312 2.5781-12.082-16.574-25.664-44.434-41.223-74.34-41.223zm-46.895 137.45h93.773l42.195 66.598-178.21 0.003907z"/></svg>
