<svg width="250" height="250" viewBox="0 0 250 250" fill="none" xmlns="http://www.w3.org/2000/svg">
<path fill-rule="evenodd" clip-rule="evenodd" d="M112.985 136.522C112.988 136.522 112.99 136.522 112.992 136.522C116.428 136.522 119.279 135.408 121.561 133.137C123.828 130.867 124.941 127.956 124.941 124.404C124.941 120.852 123.828 117.94 121.561 115.67C119.279 113.385 116.428 112.285 112.992 112.285C112.99 112.285 112.988 112.285 112.985 112.285C112.983 112.285 112.981 112.285 112.978 112.285C109.543 112.285 106.691 113.399 104.466 115.67C102.24 117.94 101.141 120.852 101.141 124.404C101.141 127.956 102.254 130.867 104.466 133.137C106.691 135.408 109.543 136.522 112.978 136.522C112.981 136.522 112.983 136.522 112.985 136.522ZM153.163 51.8306L198.036 96.7116C202.223 100.946 203.906 107.089 202.348 112.926L196.158 135.951C193.891 136.007 190.497 136.007 189.287 135.951C187.854 135.84 186.741 135.464 186.004 134.781C185.267 134.085 184.891 132.97 184.891 131.494V113.552H194.614V102.855H184.891V88.2425L173.791 94.6501V131.354C173.791 137.275 175.377 141.412 178.493 143.682C181.442 145.841 186.421 146.593 193.446 145.953L189.444 160.874C189.146 160.051 188.712 159.327 188.146 158.702C186.96 157.403 185.36 156.765 183.394 156.765C181.125 156.765 179.406 157.61 178.284 159.252C177.289 157.586 175.713 156.765 173.595 156.765C171.422 156.765 169.814 157.554 168.788 159.101V157.252H164.338V174.549H168.788V164.824C168.788 163.549 169.09 162.584 169.663 161.915C170.236 161.253 171.024 160.918 172.019 160.918C172.959 160.918 173.651 161.221 174.168 161.795C174.686 162.369 174.925 163.19 174.925 164.219V174.549H179.374V164.824C179.374 163.549 179.645 162.584 180.218 161.915C180.759 161.253 181.547 160.918 182.574 160.918C183.513 160.918 184.206 161.221 184.723 161.795C185.241 162.369 185.479 163.19 185.479 164.219V174.549H185.769C184.083 180.162 179.671 184.478 174.056 185.972L112.784 202.437C107.025 203.969 100.891 202.326 96.6623 198.091L51.8316 153.196C47.5891 148.961 45.9617 142.819 47.4918 137.052L48.0203 135.088C49.0218 137.107 50.3989 138.904 52.0124 140.59C56.3522 144.978 61.7492 147.151 68.245 147.151C72.4735 147.151 76.2847 146.092 79.7204 144.086C83.1561 142.025 85.7989 139.322 87.7045 135.937L78.0791 130.435C77.2306 132.232 75.9092 133.611 74.1705 134.614C72.4318 135.673 70.4288 136.146 68.2032 136.146C64.8649 136.146 62.1247 135.046 59.9548 132.817C57.7849 130.602 56.6721 127.788 56.6721 124.404C56.6721 120.963 57.7849 118.149 59.9548 115.934C62.1247 113.72 64.8788 112.605 68.2032 112.605C70.4288 112.605 72.39 113.079 74.1287 114.138C75.8674 115.196 77.1888 116.575 78.0373 118.372L87.6072 112.814C85.8128 109.429 83.2256 106.727 79.7899 104.721C76.2986 102.701 72.4874 101.698 68.3145 101.698C63.6548 101.698 59.6488 102.799 56.1018 105.028L63.933 75.7476C65.5187 69.9251 70.0115 65.4258 75.7701 63.8936L137.042 47.4845C142.801 45.9523 148.935 47.582 153.163 51.8306ZM130.004 145.953H136.027V102.855H124.927V107.939C121.602 103.76 116.943 101.643 110.92 101.643C105.217 101.643 100.293 103.871 96.1755 108.259C92.1 112.647 90.0413 118.052 90.0413 124.404C90.0413 130.756 92.1 136.104 96.1755 140.548C100.237 144.992 105.161 147.165 110.92 147.165C113.938 147.165 116.637 146.635 118.959 145.577C121.282 144.518 123.23 142.986 124.927 140.868C124.927 143.682 127.208 145.953 130.004 145.953ZM158.338 116.464C161.036 114.667 164.054 113.984 167.435 114.402V102.005C164.472 102.005 161.829 102.687 159.45 104.066C157.072 105.445 155.375 107.507 154.318 110.265V102.855H143.218V145.953H154.318V125.351C154.318 121.228 155.695 118.261 158.338 116.464ZM127.763 172.389C129.522 174.151 131.695 175.028 134.298 175.028C135.993 175.028 137.506 174.637 138.891 173.792C140.252 172.979 141.342 171.887 142.099 170.524L138.23 168.316C137.896 169.009 137.347 169.591 136.654 169.982C135.961 170.372 135.173 170.588 134.266 170.588C132.937 170.588 131.814 170.133 130.939 169.256C130.063 168.348 129.641 167.224 129.641 165.861C129.641 164.474 130.063 163.318 130.939 162.441C131.814 161.564 132.937 161.11 134.266 161.11C135.142 161.11 135.922 161.325 136.622 161.747C137.323 162.17 137.864 162.72 138.198 163.445L142.043 161.205C141.319 159.842 140.292 158.758 138.899 157.937C137.506 157.116 135.993 156.725 134.298 156.725C131.663 156.725 129.514 157.61 127.763 159.364C126.035 161.118 125.16 163.302 125.16 165.877C125.16 168.451 126.012 170.635 127.763 172.389ZM158.926 159.428C157.143 157.674 154.962 156.789 152.423 156.789C149.884 156.789 147.703 157.666 145.951 159.428C144.2 161.189 143.317 163.366 143.317 165.908C143.317 168.451 144.192 170.635 145.951 172.389C147.703 174.143 149.884 175.028 152.423 175.028C154.994 175.028 157.143 174.151 158.926 172.389C160.709 170.635 161.585 168.451 161.585 165.908C161.585 163.366 160.709 161.189 158.926 159.428ZM155.782 169.336C154.874 170.245 153.752 170.699 152.423 170.699C151.093 170.699 149.971 170.245 149.096 169.336C148.22 168.427 147.766 167.303 147.766 165.916C147.766 164.529 148.22 163.405 149.096 162.497C149.971 161.588 151.093 161.134 152.423 161.134C153.752 161.134 154.874 161.588 155.782 162.497C156.689 163.405 157.143 164.529 157.143 165.916C157.143 167.303 156.689 168.427 155.782 169.336ZM120.814 174.82C122.437 174.82 123.752 173.503 123.752 171.879C123.752 170.254 122.437 168.938 120.814 168.938C119.192 168.938 117.877 170.254 117.877 171.879C117.877 173.503 119.192 174.82 120.814 174.82Z" fill="#0A8AEE"/>
</svg>
