<svg xmlns="http://www.w3.org/2000/svg" width="250" height="250" fill="none"><g clip-path="url(#a)"><path fill="#BBE6FB" d="M199.128 103.162c1.841 21.256-31.589 41.541-74.709 45.229-43.12 3.688-79.457-10.579-81.299-31.835-1.84-21.256 31.59-41.541 74.71-45.23 43.023-3.688 79.457 10.483 81.298 31.836Z"/><path fill="#fff" d="M118.993 73.753c-16.473-.291-35.66 6.309-50 12.424-1.454 4.27-2.326 8.832-2.326 13.588 0 25.235 22.771 45.714 50.872 45.714s50.969-20.382 50.969-45.714c0-7.96-2.326-15.53-6.298-22.033-11.434-1.747-27.229-3.688-43.217-3.979Z"/><path fill="#fff" d="M117.636 73.753c-9.109-.582-24.806 4.173-37.888 8.93-2.035 4.658-3.1 9.802-3.1 15.237 0 22.13 20.058 40.086 41.182 40.086 21.027 0 39.631-17.956 41.182-40.085.484-7.183-1.938-13.977-5.427-19.8-13.469-2.33-27.81-3.786-35.949-4.368Z"/><path fill="#373535" d="M94.283 95.106c1.162-2.524 2.81-3.688 4.457-5.727-.194-.485-.581-2.135-.581-2.62a4.45 4.45 0 0 1 4.457-4.465c.581 0 1.163.097 1.647.291 7.462-5.726 17.248-8.153 27.132-5.92.872.194 1.744.485 2.616.68-9.69-1.36-20.736 2.134-28.197 8.152.194.582.872 2.038.872 2.718 0 2.523-1.647 3.106-4.07 3.106-.581 0-1.066-.097-1.647-.292-1.647 2.233-3.78 6.6-4.748 9.318 4.166 3.688 7.849 5.047 12.694 6.891 0-.194.193-.485.193-.679 0-7.474 6.589-13.588 14.051-13.588 6.686 0 12.306 4.852 13.372 11.258 3.391-2.135 6.589-3.785 9.011-6.89-.581-.68-1.162-2.718-1.162-3.689 0-2.232 1.841-4.077 4.069-4.077.291 0 .582 0 .969.098 1.26-2.621 2.229-5.339 2.81-8.153-11.724-8.736-34.399-7.474-34.399-7.474s-18.023-.97-30.232 5.047c.872 5.63 3.197 11.259 6.686 16.015Z"/><path fill="#373535" d="M150.291 91.709c.872.776 1.26 1.359 1.647 2.038 1.066 1.941-1.066 3.785-3.391 3.785-.194 0-.485 0-.678-.097-2.52 3.98-6.977 9.027-10.95 11.647 6.105.971 11.822 3.397 16.279 7.183 3.295-5.921 5.814-14.559 5.814-21.838 0-5.533-2.423-9.61-6.105-12.618-.097 3.009-1.744 7.182-2.616 9.9Zm-49.226 37.659c2.035-5.63 6.977-9.9 11.725-13.686-.678-.97-1.744-3.3-2.132-4.367-5.717-1.747-10.755-5.047-14.728-9.318 0 .097-.097.291-.097.388-.775 3.3-.872 6.697-.485 9.9 2.714.486 4.845 2.912 4.845 5.824 0 1.747-1.55 4.173-2.713 5.338 1.163 2.524 2.035 3.882 3.585 5.921Z"/><path fill="#373535" d="M100.678 134.026c-2.422-2.426-4.07-7.182-5.62-10.191-.29 0-.581.097-.872.097-3.294 0-6.686-2.717-5.91-5.92.387-1.747 1.647-2.912 3.585-3.883-.485-3.688-.582-8.832.29-12.617.194-1.068.776-1.553 1.066-2.62-3.585-5.242-5.91-12.23-5.91-19.121v-.777c-6.105 3.106-10.66 7.862-10.66 15.433 0 16.791 9.69 33.291 24.031 39.697v-.098Zm35.369-23.197c-1.841 5.242-6.88 9.124-12.791 9.124-3.197 0-6.104-1.068-8.333-2.912-4.748 3.688-9.109 10.191-11.24 15.918.969 1.067 1.647 1.941 2.81 2.912 3.294.873 7.945 0 11.531 0 14.438 0 27.325-6.406 34.69-17.762-5.039-3.494-10.853-6.794-16.667-7.28Z"/><path fill="#1287B1" d="M93.896 97.047a35.233 35.233 0 0 1 4.166-6.891 4.403 4.403 0 0 1-.29-1.553 4.45 4.45 0 0 1 4.457-4.465c.581 0 1.163.097 1.647.291 7.461-5.726 17.248-8.153 27.132-5.92.872.194 1.744.485 2.616.68-9.69-1.36-19.767 1.65-27.228 7.667.193.582.387 1.165.387 1.747a4.45 4.45 0 0 1-4.457 4.465c-.582 0-1.066-.097-1.647-.291-1.648 2.232-3.101 4.755-4.07 7.473 3.585 3.785 7.945 6.891 12.79 8.638v-.679c0-7.474 6.105-13.588 13.566-13.588 6.686 0 12.307 4.853 13.372 11.258 3.392-2.135 6.299-4.853 8.818-8.056-.581-.679-.969-1.552-.969-2.523 0-2.232 1.841-4.076 4.07-4.076.291 0 .581 0 .969.097 1.26-2.621 2.229-5.339 2.81-8.153-11.725-8.736-34.399-7.474-34.399-7.474s-18.023-.97-30.233 5.047c.679 5.92 3.004 11.55 6.493 16.306Z"/><path fill="#1287B1" d="M150.872 92.388a3.983 3.983 0 0 1 1.356 3.01c0 2.231-1.841 4.076-4.069 4.076-.194 0-.485 0-.679-.098a32.079 32.079 0 0 1-9.883 9.9c5.814.874 11.337 3.398 15.891 7.183a41.342 41.342 0 0 0 5.233-20.091c0-5.533-2.423-9.61-6.105-12.618-.194 3.009-.775 5.92-1.744 8.638Zm-49.224 38.241c2.035-5.629 5.523-10.579 10.271-14.364-.678-.971-1.26-1.941-1.647-3.106-5.717-1.747-10.756-5.047-14.729-9.318 0 .097-.097.291-.097.388-.775 3.3-.872 6.697-.484 9.9 2.713.486 4.845 2.912 4.845 5.824 0 1.747-.776 3.3-1.938 4.368.969 2.232 2.325 4.367 3.779 6.308Z"/><path fill="#1287B1" d="M100.678 133.929c-2.422-2.426-4.457-5.144-6.007-8.153-.291 0-.582.098-.873.098a5.878 5.878 0 0 1-5.91-5.921 5.993 5.993 0 0 1 3.294-5.338c-.484-3.689-.29-7.377.582-11.162.193-1.068.581-2.135.872-3.203a32.787 32.787 0 0 1-5.717-18.538v-.777c-6.105 3.106-10.66 7.862-10.66 15.433 0 16.791 9.981 31.253 24.322 37.658.097 0 .097 0 .097-.097Zm34.981-21.158c-1.841 5.241-6.88 9.123-12.791 9.123-3.198 0-6.105-1.068-8.333-2.912-4.748 3.689-8.334 8.736-10.562 14.462.969 1.068 2.035 2.038 3.1 3.009a40.515 40.515 0 0 0 10.369 1.359c14.438 0 27.228-7.474 34.593-18.83-4.845-3.494-10.562-5.726-16.376-6.211Z"/><path fill="#fff" d="m136.144 109.276 12.5-3.008-12.597-.68 10.271-7.765-11.628 4.174 7.849-10.968-10.95 7.28 3.779-12.812-7.461 10.58-.194-13.395-4.942 11.939-4.069-12.036.193 14.17-7.073-12.714 3.876 13.491-11.531-8.347 9.011 11.356-14.34-5.241 11.24 8.347-14.438.485 14.825 3.786-14.825 3.203 14.631 1.067-12.306 7.862 12.694-4.562-8.818 11.162 11.144-9.027-3.973 14.948 8.624-12.23-1.163 14.365 4.845-13.103 4.167 13.685.969-13.782 6.201 11.744-3.682-13.394 11.24 8.735-7.267-11.162 12.403 4.853-9.496-9.317 12.694.97-12.403-4.659Z"/><path fill="#373535" fill-opacity=".35" d="M2.713 133.25c38.856-38.92 69.864-50.956 98.062-56.391 3.682-.68 4.457-8.93 4.457-8.93s.485 6.018 3.101 6.794c2.616.777 6.008-9.414 6.008-9.414s-3.101 9.123 0 9.706c3.101.485 8.915-8.93 8.915-8.93s-2.326 8.056-.776 8.639c1.551.485 9.4-11.745 9.4-11.745s-4.652 8.056-.291 8.93c4.457.776 10.949-5.533 10.949-5.533s-5.038 5.727-2.81 6.6c9.69 3.398 17.442-9.123 17.442-9.123s-1.841 5.532-6.492 11.55c10.174 2.62 17.733-12.715 17.733-12.715l-7.559 15.335c3.876 1.942 19.477-16.111 19.477-16.111s-8.042 14.073-12.791 16.985c2.617 2.135 12.016-6.309 12.016-6.309s-7.558 9.415-4.651 9.9c4.166 3.397 19.573-17.47 19.573-17.47s-6.007 12.326-14.825 21.935c7.364 3.785 25.775-19.994 25.775-19.994s-.484 7.57-13.857 19.606c9.884-1.262 22.675-20.091 22.675-20.091s-4.651 14.073-15.892 24.07c9.69-.97 25.291-25.041 25.291-25.041s-6.008 16.694-18.217 26.4c13.566 3.009 33.14-17.277 33.14-17.277s-7.655 14.365-17.733 20.286c11.24 4.27 26.647-13.491 26.647-13.491s-15.407 23.779-39.922 22.711c-8.043-.388-32.364-24.459-84.496-22.517-68.993 2.523-83.527 31.835-120.35 51.635Z"/><path fill="#373535" d="M4.264 130.338c38.856-38.92 69.864-50.956 98.062-56.391 3.682-.68 4.457-8.93 4.457-8.93s.485 6.018 3.101 6.795c2.616.776 6.008-9.415 6.008-9.415s-3.101 9.124 0 9.706c3.1.485 8.914-8.93 8.914-8.93s-2.325 8.056-.775 8.639c1.55.485 9.399-11.744 9.399-11.744s-4.651 8.056-.29 8.929c4.457.776 10.949-5.532 10.949-5.532s-5.038 5.726-2.81 6.6c9.69 3.397 17.442-9.124 17.442-9.124s-1.841 5.532-6.492 11.55c10.174 2.62 17.732-12.715 17.732-12.715l-7.558 15.336c3.876 2.135 19.574-15.918 19.574-15.918s-8.043 14.074-12.791 16.985c2.616 1.844 12.016-6.503 12.016-6.503s-7.558 9.415-4.652 9.9c4.167 3.398 19.574-17.47 19.574-17.47s-6.105 12.326-14.922 21.935c7.364 3.688 25.872-20.091 25.872-20.091s-.485 7.57-13.857 19.606c9.884-1.262 22.675-20.091 22.675-20.091S211.24 77.538 200 87.535c9.69-.97 25.291-25.04 25.291-25.04s-6.008 16.693-18.217 26.4c13.566 3.008 33.139-17.277 33.139-17.277s-7.655 14.364-17.732 20.285c11.24 4.27 26.647-13.491 26.647-13.491s-15.407 23.779-39.922 22.712c-8.043-.389-32.365-24.46-84.497-22.518-68.992 2.62-83.624 31.835-120.445 51.732Z"/><path fill="#373535" fill-opacity=".35" d="M1.744 137.521c20.543 10.288 39.341-1.553 62.985 5.144 18.023 5.047 39.922 11.356 69.67 6.988 29.748-4.271 55.136-17.277 67.345-40.377 3.779-10.288 19.186 2.33 19.186 2.33s-11.24-4.659-10.949-2.524c.29 2.233 16.86 9.9 16.86 9.9s-15.019-4.659-14.05-1.164c.872 3.494 18.798 17.664 18.798 17.664s-20.446-15.335-22.093-13.2c-1.744 2.136 8.624 10.58 8.624 10.58s-17.054-10.58-23.062-7.474c-4.36 2.233 17.733 16.694 17.733 16.694s-14.341-10.967-17.733-8.056c-3.391 2.912 16.182 26.4 16.182 26.4s-22.287-24.07-24.515-22.905c-2.229 1.164 6.104 12.714 6.104 12.714s-10.852-12.035-13.856-9.997c-3.004 2.135 15.697 33.291 15.697 33.291s-20.251-31.932-28.682-26.594c13.082 28.827 8.237 32.903 8.237 32.903s-1.648-29.409-18.024-28.632c-8.236.388 3.876 21.935 3.876 21.935s-11.143-19.703-18.604-19.315c13.663 26.012 8.818 36.495 8.818 36.495s2.228-22.227-16.279-34.553c7.073 6.308-4.458 34.553-4.458 34.553s10.078-41.639-7.461-33.68c-2.81 1.262-.194 20.771-.194 20.771s-3.488-22.324-8.818-21.159c-3.1.679-19.573 30.962-19.573 30.962s13.469-32.709 9.399-31.35c-3.004.97-8.624 14.461-8.624 14.461s2.713-13.297 0-14.073c-2.713-.777-18.023 14.073-18.023 14.073s11.337-13.297 9.399-16.111c-3.004-4.174-6.396-4.368-10.562-2.718-6.008 2.329-14.05 13.297-14.05 13.297s8.042-11.162 6.686-15.238c-2.23-6.697-25.388 12.909-25.388 12.909s13.663-12.909 10.562-15.724c-3.1-2.718-20.155-1.941-25.388-1.941-15.6.194-21.027-3.494-25.775-7.279Z"/><path fill="#373535" d="M.872 135.191c20.543 10.288 39.341-1.553 62.985 5.144 18.023 5.047 39.922 11.356 69.67 6.989 29.748-4.271 55.136-17.277 67.345-40.377 3.779-10.288 19.186 2.329 19.186 2.329s-11.24-4.658-10.949-2.523c.29 2.232 16.86 9.9 16.86 9.9s-15.019-4.659-14.05-1.165c.872 3.494 18.798 17.665 18.798 17.665s-20.252-15.432-21.899-13.297c-1.647 2.135 8.624 10.579 8.624 10.579s-17.054-10.579-23.062-7.473c-4.361 2.232 17.732 16.694 17.732 16.694s-14.341-10.968-17.732-8.056c-3.392 2.912 16.182 26.4 16.182 26.4s-22.19-24.071-24.419-22.906c-2.228 1.165 6.105 12.715 6.105 12.715s-11.046-11.938-14.05-9.9c-3.004 2.135 15.6 33.291 15.6 33.291s-20.252-32.029-28.585-26.691c13.178 28.923 8.237 33 8.237 33s-1.648-29.409-18.024-28.633c-8.236.389 3.876 21.936 3.876 21.936s-11.046-19.606-18.507-19.218c13.662 26.012 8.817 36.494 8.817 36.494s2.229-22.226-16.279-34.553c7.074 6.309-4.457 34.553-4.457 34.553s10.077-41.638-7.461-33.679c-2.81 1.262-.194 20.77-.194 20.77s-3.488-22.323-8.818-21.158c-3.101.679-19.574 30.961-19.574 30.961s13.469-32.708 9.4-31.35c-3.004.971-8.624 14.462-8.624 14.462s2.713-13.297 0-14.073c-2.714-.777-18.024 14.073-18.024 14.073s11.338-13.297 9.4-16.112c-3.004-4.173-6.396-4.367-10.562-2.717-6.008 2.329-14.05 13.297-14.05 13.297s8.042-11.162 6.685-15.238c-2.228-6.698-25.387 12.908-25.387 12.908s13.662-12.908 10.562-15.723c-3.101-2.718-20.155-1.941-25.388-1.941-15.795.097-21.22-3.592-25.969-7.377Z"/></g><defs><clipPath id="a"><path fill="#fff" d="M0 59h250v132H0z"/></clipPath></defs></svg>