<?xml version="1.0" encoding="UTF-8" standalone="no"?>
<svg width="256px" height="169px" viewBox="0 0 256 169" version="1.1" xmlns="http://www.w3.org/2000/svg" xmlns:xlink="http://www.w3.org/1999/xlink" preserveAspectRatio="xMidYMid">
	<g>
		<g transform="translate(15.000000, 129.000000)" fill="#373535">
			<path d="M15.9,13.2 C18.1,13.2 20.1,13.6999999 21.2,14.7 C21.4,16.3 19.9,18.9 19,18.9 C17.9,18.5 16.9,18.3 15.6,18.3 C10.4,18.3 7.8,23.7 7.8,29 C7.8,32.3 8.9,34.3 11.6,34.3 C14.4,34.3 17.2,32.4 18.8,31 C19.2,31.3 19.7,32.2 19.7,33.2 C19.7,34.3 19.4,35.4 18.3,36.5 C16.5,38.3 13.4,39.9 8.9,39.9 C3.8,39.9 0.2,37 0.2,30.2 C0.4,21.2 6.2,13.2 15.9,13.2 L15.9,13.2 L15.9,13.2 Z"></path>
			<path d="M32.7,34 C35.5,34 40.6,29.1 42,19.7 C42.1,19.1 42.1,19 42.2,18.4 C41.6,18.2 40.7,18 39.9,18 C37.8,18 35.6,18.6 33.7,21.3 C31.7,24.1 30.8,27.6 30.8,30.4 C30.8,32.7 31.5,34 32.7,34 L32.7,34 L32.7,34 Z M23.5,31.4 C23.5,28 24.6,22.2 28.9,17.9 C32.6,14.1 37,13.2 41.1,13.2 C43.8,13.2 47.4,14.1 49.7,14.5 C49.1,17 47.8,26.5 47.1,32 C46.8,34.3 46.7,37.6 46.8,38.8 C44.9,39.6 41.4,39.8 40.4,39.8 C39.9,39.8 39.8,37.5 39.9,35.2 C40,34.5 40.1,33.4 40.1,32.9 C37.9000001,36.6 33.5,39.7 28.9,39.7 C25.6,39.8 23.5,37 23.5,31.4 L23.5,31.4 L23.5,31.4 Z"></path>
			<path d="M63.9,13.2 C66.2,13.2 68.5,14.1 69.5,15.1 C69.4,16.7 68.2,19.4 66.2,18.6 C65.3,18.3 64.5,18.1 63.3,18.1 C61.8,18.1 60.4,18.8 60.4,20.2 C60.4,21.3 61.2,22.1 65,24.8 C67.7,26.8 68.8,28.6 68.8,31.1 C68.8,35.3 64.9,39.8 58,39.8 C55.2,39.8 52.7,38.7 52,37.6 C51,35.9 51.8,32.5 52.9,33.1 C54.4,33.8 56.8,34.6 58.8,34.6 C60.7,34.6 61.9,33.7 61.9,32.6 C61.9,31.6 61,30.8 57.6,28.3 C54.7,26.1 53.8,24.1 53.8,21.9 C53.8,17.1 57.9,13.2 63.9,13.2 L63.9,13.2 L63.9,13.2 Z"></path>
			<path d="M83.6,13.2 C85.9,13.2 88.2,14.1 89.2,15.1 C89.1,16.7 87.9,19.4 85.9,18.6 C85,18.3 84.2,18.1 83,18.1 C81.5,18.1 80.1,18.8 80.1,20.2 C80.1,21.3 80.9,22.1 84.7,24.8 C87.4,26.8 88.5,28.6 88.5,31.1 C88.5,35.3 84.6,39.8 77.7,39.8 C74.9,39.8 72.5,38.7 71.7,37.6 C70.7,35.9 71.5,32.5 72.6,33.1 C74.1,33.8 76.5,34.6 78.5,34.6 C80.4,34.6 81.6,33.7 81.6,32.6 C81.6,31.6 80.7,30.8 77.3,28.3 C74.4,26.1 73.5,24.1 73.5,21.9 C73.5,17.1 77.6,13.2 83.6,13.2 L83.6,13.2 L83.6,13.2 Z"></path>
			<path d="M101.5,34 C104.3,34 109.4,29.1 110.8,19.7 C110.9,19.1 110.9,19 111,18.4 C110.4,18.2 109.5,18 108.7,18 C106.6,18 104.4,18.6 102.5,21.3 C100.5,24.1 99.6,27.6 99.6,30.4 C99.7,32.7 100.3,34 101.5,34 L101.5,34 L101.5,34 Z M92.3,31.4 C92.3,28 93.4,22.2 97.7,17.9 C101.4,14.1 105.8,13.2 109.9,13.2 C112.6,13.2 116.2,14.1 118.5,14.5 C117.9,17 116.6,26.5 115.9,32 C115.6,34.3 115.5,37.6 115.6,38.8 C113.7,39.6 110.2,39.8 109.2,39.8 C108.7,39.8 108.6,37.5 108.7,35.2 C108.8,34.5 108.9,33.4 108.9,32.9 C106.7,36.6 102.3,39.7 97.7,39.7 C94.5,39.8 92.3,37 92.3,31.4 L92.3,31.4 L92.3,31.4 Z"></path>
			<path d="M131.4,20.6 C134,16.4 137.4,13.2 142.2,13.2 C146.3,13.2 147.6,17 146.800001,22.3 C146.4,24.8 145.7,28.4 145.3,31.7 C144.9,34.5 144.6,37 144.7,38.7 C143.2,39.4 138.9,39.7 137.9,39.7 C137.5,39.7 137.4,36.6 138,33.3 C138.5,30.6 139.4,25.6 139.9,22.7 C140.2,21 140.1,19 138.5,19 C136.4,19 131.4,22.4 128.9,36.2 C128.7,37.3 128.3,38 127.6,38.4 C126.7,38.9 124.9,39.4 121.2,39.4 C121.9,35.9 123,28.8 123.8,23.5 C124.5,18.7 124.8,15.6 124.7,14.4 C125.7,14.1 130.8,13 131.3,13 C131.9,13 132,14.8 131.5,19 C131.4,19.4 131.4,20 131.3,20.4 L131.4,20.4 L131.4,20.6 L131.4,20.6 Z"></path>
			<path d="M160.4,33.9 C162.9,33.9 168,29.2 169.4,20.9 C169.5,20.4 169.6,19.6 169.7,19.1 C169,18.4 168,18 166.4,18 C160.6,18 158.1,24.9 158.1,29.9 C158.2,32.5 159.1,33.9 160.4,33.9 L160.4,33.9 L160.4,33.9 Z M156.7,39.8 C153,39.8 150.8,36.5 150.8,31 C150.8,21.8 156.6,13.3 166.3,13.3 C168,13.3 169.6,13.8 170.5,14.3 C171,11.7 172.2,3.6 172.3,1.2 C173.9,0.9 177.3,0.4 178.9,0.4 C179.5,0.4 179.7,1 179.5,2.50000001 C178.1,11.1 175.7,27.5 175.2,31.1 C174.9,34.2 174.8,37.2 174.9,38.9 C173.1,39.7 169.4,39.9 168.4,39.9 C168,39.9 167.8,37.3 167.9,34.9 C168,34.2 168.1,33.1 168.1,32.9 C165,37.5 161.1,39.8 156.7,39.8 L156.7,39.8 L156.7,39.8 Z"></path>
			<path d="M190.1,21.4 C193.1,14.7 196.7,13.2 199.1,13.2 C199.8,13.2 201,13.7 201.5,14.2 C201.7,16.1 200.2,19.8 198.9,21.3 C198.2,21 197.4,20.6 196.4,20.6 C194.5,20.6 190.6,23.6 188.2,36.6 C188,37.7 187.7,38.1 187.1,38.4 C186.1,39 182.3,39.4 180.5,39.5 C181.4,34.8 182.8,25.3 183.4,19.7 C183.6,18.3 183.6,15.6 183.5,14.6 C184.6,14.1 188.9,13.1 189.8,13.1 C190.3,13.1 190.7,16.2 189.9,21.3 L190.1,21.3 L190.1,21.4 L190.1,21.4 Z"></path>
			<path d="M210.2,34 C213,34 218.1,29.1 219.5,19.7 C219.6,19.1 219.6,19 219.7,18.4 C219.1,18.2 218.2,18 217.4,18 C215.3,18 213.1,18.6 211.2,21.3 C209.2,24.1 208.3,27.6 208.3,30.4 C208.4,32.7 209,34 210.2,34 L210.2,34 L210.2,34 Z M201,31.4 C201,28 202.1,22.2 206.4,17.9 C210.1,14.1 214.5,13.2 218.6,13.2 C221.3,13.2 224.9,14.1 227.2,14.5 C226.6,17 225.3,26.5 224.6,32 C224.3,34.3 224.200001,37.6 224.3,38.8 C222.4,39.6 218.9,39.8 217.9,39.8 C217.4,39.8 217.3,37.5 217.4,35.2 C217.5,34.5 217.6,33.4 217.6,32.9 C215.4,36.6 211,39.7 206.4,39.7 C203.2,39.8 201,37 201,31.4 L201,31.4 L201,31.4 Z"></path>
		</g>
		<g>
			<path d="M205.5,45.5 C207.4,67.4 172.9,88.3 128.4,92.1 C83.9,95.9 46.4,81.2 44.5,59.3 C42.6,37.4 77.1,16.5 121.6,12.7 C166,8.9 203.6,23.5 205.5,45.5" fill="#BBE6FB"></path>
			<path d="M122.8,15.2 C105.8,14.9 86,21.7 71.2,28 C69.7,32.4 68.8,37.1 68.8,42 C68.8,68 92.3,89.1 121.3,89.1 C150.3,89.1 173.9,68.1 173.9,42 C173.9,33.8 171.5,26 167.4,19.3 C155.6,17.5 139.3,15.5 122.8,15.2" fill="#FFFFFF"></path>
			<path d="M121.4,15.2 C112,14.6 95.8,19.5 82.3,24.4 C80.2,29.2 79.1,34.5 79.1,40.1 C79.1,62.9 99.8,81.4 121.6,81.4 C143.3,81.4 162.5,62.9 164.1,40.1 C164.6,32.7 162.1,25.7 158.5,19.7 C144.6,17.3 129.8,15.8 121.4,15.2" fill="#FFFFFF"></path>
			<path d="M97.3,37.2 C98.5,34.6 100.2,33.4 101.9,31.3 C101.7,30.8 101.3,29.1 101.3,28.6 C101.3,26 103.4,24 105.9,24 C106.5,24 107.1,24.1 107.6,24.3 C115.3,18.4 125.4,15.9 135.6,18.2 C136.5,18.4 137.4,18.7 138.3,18.9 C128.3,17.5 116.9,21.1 109.2,27.3 C109.4,27.9 110.1,29.4 110.1,30.1 C110.1,32.7 108.4,33.3 105.9,33.3 C105.3,33.3 104.8,33.2 104.2,33 C102.5,35.3 100.3,39.8 99.3,42.6 C103.6,46.4 107.4,47.8 112.4,49.7 C112.4,49.5 112.6,49.2 112.6,49 C112.6,41.3 119.4,35 127.1,35 C134,35 139.8,40 140.9,46.6 C144.4,44.4 147.7,42.7 150.2,39.4999999 C149.6,38.8 149,36.7 149,35.7 C149,33.4 150.9,31.5 153.2,31.5 C153.5,31.5 153.8,31.5 154.2,31.6 C155.5,28.9 156.5,26.1 157.1,23.2 C145,14.2 121.6,15.5 121.6,15.5 C121.6,15.5 103,14.5 90.4,20.7 C91.3,26.5 93.7,32.3 97.3,37.2" fill="#373535"></path>
			<path d="M155.1,33.7 C156,34.5 156.4,35.1 156.8,35.8 C157.9,37.8 155.7,39.7 153.3,39.7 C153.1,39.7 152.8,39.7 152.6,39.6 C150,43.7 145.4,48.9 141.3,51.6 C147.6,52.6 153.5,55.1 158.1,59 C161.5,52.9 164.1,44 164.1,36.5 C164.1,30.8 161.6,26.5999999 157.8,23.5 C157.7,26.5999999 156,30.9 155.1,33.7" fill="#373535"></path>
			<path d="M104.3,72.5 C106.4,66.7 111.5,62.3 116.4,58.4 C115.7,57.4 114.6,55 114.2,53.9 C108.3,52.1 103.1,48.7 99,44.3 C99,44.4 98.9,44.6 98.9,44.7 C98.1,48.1 98,51.6 98.4,54.9 C101.2,55.4 103.4,57.9 103.4,60.9 C103.4,62.7 101.8,65.2 100.6,66.4 C101.8,69 102.7,70.4 104.3,72.5" fill="#373535"></path>
			<path d="M103.9,77.3 C101.4,74.8 99.7,69.9 98.1,66.8 C97.8,66.8 97.5,66.9 97.2,66.9 C93.8,66.9 90.3,64.1 91.0999999,60.8 C91.5,59 92.8,57.8 94.8,56.8 C94.3,53 94.2,47.7 95.1,43.8 C95.3,42.7 95.9,42.2 96.2,41.1 C92.5,35.7 90.1,28.5 90.1,21.4 L90.1,20.6 C83.8,23.8 79.1,28.7 79.1,36.5 C79.1,53.8 89.1,70.8 103.9,77.4 L103.9,77.3" fill="#373535"></path>
			<path d="M140.4,53.4 C138.5,58.8 133.3,62.8 127.2,62.8 C123.9,62.8 120.9,61.7 118.6,59.8 C113.7,63.6 109.2,70.3 107,76.2 C108,77.3 108.7,78.2 109.9,79.2 C113.3,80.1 118.1,79.2 121.8,79.2 C136.7,79.2 150,72.6 157.6,60.9 C152.4,57.3 146.4,53.9 140.4,53.4" fill="#373535"></path>
			<path d="M96.9,39.2 C98.1,36.6 99.5,34.3 101.2,32.1 C101,31.6 100.9,31 100.9,30.5 C100.9,27.9 103,25.9 105.5,25.9 C106.1,25.9 106.7,26 107.2,26.2 C114.9,20.3 125,17.8 135.2,20.1 C136.1,20.3 137,20.6 137.9,20.8 C127.9,19.4 117.5,22.5 109.8,28.7 C110,29.3 110.2,29.9 110.2,30.5 C110.2,33.1 108.100001,35.1 105.6,35.1 C105,35.1 104.5,35 103.9,34.8 C102.2,37.1 100.7,39.7 99.7,42.5 C103.4,46.4 107.9,49.6 112.9,51.4 L112.9,50.7 C112.9,43 119.2,36.7 126.9,36.7 C133.8,36.7 139.6,41.7 140.7,48.3 C144.2,46.1 147.2,43.3 149.8,40 C149.2,39.3 148.8,38.4 148.8,37.4 C148.8,35.1 150.7,33.2 153,33.2 C153.3,33.2 153.6,33.2 154,33.3 C155.3,30.6 156.3,27.8 156.9,24.9 C144.8,15.9 121.4,17.2 121.4,17.2 C121.4,17.2 102.8,16.2 90.2,22.4 C90.9,28.5 93.3,34.3 96.9,39.2" fill="#1287B1"></path>
			<path d="M155.7,34.4 C156.6,35.2 157.1,36.3 157.1,37.5 C157.1,39.8 155.2,41.7 152.9,41.7 C152.7,41.7 152.4,41.7 152.2,41.6 C149.6,45.7 146.1,49.2 142,51.8 C148,52.7 153.7,55.3 158.4,59.2 C161.8,53.1 163.8,46 163.8,38.5 C163.8,32.8 161.3,28.6 157.5,25.5 C157.3,28.6 156.7,31.6 155.7,34.4" fill="#1287B1"></path>
			<path d="M104.9,73.8 C107,68 110.6,62.9 115.5,59 C114.8,58 114.2,57 113.8,55.8 C107.9,54 102.7,50.6 98.6,46.2 C98.6,46.3 98.5,46.5 98.5,46.6 C97.7,50 97.6,53.5 98,56.8 C100.8,57.3 103,59.8 103,62.8 C103,64.6 102.2,66.2 101,67.3 C102,69.6 103.4,71.8 104.9,73.8" fill="#1287B1"></path>
			<path d="M103.9,77.2 C101.4,74.7 99.3,71.9 97.7,68.8 C97.4,68.8 97.1,68.9 96.8,68.9 C93.4,68.9 90.7,66.2 90.7,62.8 C90.7,60.4 92.1,58.3 94.1,57.3 C93.6,53.5 93.8,49.7 94.7,45.8 C94.9,44.7 95.3,43.6 95.6,42.5 C91.9,37.1 89.7,30.5 89.7,23.4 L89.7,22.6 C83.4,25.8 78.7,30.7 78.7,38.5 C78.7,55.8 89,70.7 103.8,77.3 C103.9,77.3 103.9,77.3 103.9,77.2" fill="#1287B1"></path>
			<path d="M140,55.4 C138.1,60.8 132.9,64.8 126.8,64.8 C123.5,64.8 120.5,63.7 118.2,61.8 C113.3,65.6 109.6,70.8 107.3,76.7 C108.3,77.8 109.4,78.8 110.5,79.8 C113.9,80.7 117.5,81.2 121.2,81.2 C136.1,81.2 149.3,73.5 156.9,61.8 C151.9,58.2 146,55.9 140,55.4" fill="#1287B1"></path>
			<path d="M140.5,51.8 L153.4,48.7 L140.4,48 L151,40 L139,44.3 L147.1,33 L135.8,40.5 L139.7,27.3 L132,38.2 L131.8,24.4 L126.7,36.7 L122.5,24.3 L122.7,38.9 L115.4,25.8 L119.4,39.7 L107.5,31.1 L116.8,42.8 L102,37.4 L113.6,46 L98.7,46.5 L114,50.4 L98.7,53.7 L113.8,54.8 L101.1,62.9 L114.2,58.2 L105.1,69.7 L116.6,60.4 L112.5,75.8 L121.4,63.2 L120.2,78 L125.2,64.5 L129.5,78.6 L130.5,64.4 L136.9,76.5 L133.1,62.7 L144.7,71.7 L137.2,60.2 L150,65.2 L140.2,55.6 L153.3,56.6 L140.5,51.8 L140.5,51.8 Z" fill="#FFFFFF"></path>
			<path d="M2.8,76.5 C42.9,36.4 74.9,24 104,18.4 C107.8,17.7 108.6,9.2 108.6,9.2 C108.6,9.2 109.1,15.4 111.8,16.2 C114.5,17 118,6.5 118,6.5 C118,6.5 114.8,15.9 118,16.5 C121.2,17 127.2,7.3 127.2,7.3 C127.2,7.3 124.8,15.6 126.4,16.2 C128,16.7 136.1,4.1 136.1,4.1 C136.1,4.1 131.3,12.4 135.8,13.3 C140.4,14.1 147.1,7.6 147.1,7.6 C147.1,7.6 141.9,13.5 144.2,14.4 C154.2,17.9 162.2,5 162.2,5 C162.2,5 160.3,10.7 155.5,16.9 C166,19.6 173.8,3.8 173.8,3.8 L166,19.6 C170,21.6 186.1,3 186.1,3 C186.1,3 177.8,17.5 172.9,20.5 C175.6,22.7 185.3,14 185.3,14 C185.3,14 177.5,23.7 180.5,24.2 C184.8,27.7 200.7,6.2 200.7,6.2 C200.7,6.2 194.5,18.9 185.4,28.8 C193,32.7 212,8.2 212,8.2 C212,8.2 211.5,16 197.7,28.4 C207.9,27.1 221.1,7.7 221.1,7.7 C221.1,7.7 216.3,22.2 204.7,32.5 C214.7,31.5 230.8,6.7 230.8,6.7 C230.8,6.7 224.6,23.9 212,33.9 C226,37 246.2,16.1 246.2,16.1 C246.2,16.1 238.3,30.9 227.9,37 C239.5,41.4 255.4,23.1 255.4,23.1 C255.4,23.1 239.5,47.6 214.2,46.5 C205.9,46.1 180.8,21.3 127,23.3 C55.8,25.9 40.8,56.1 2.8,76.5" fill-opacity="0.35" fill="#373535"></path>
			<path d="M4.4,73.5 C44.5,33.4 76.5,21 105.6,15.4 C109.4,14.7 110.2,6.2 110.2,6.2 C110.2,6.2 110.7,12.4 113.4,13.2 C116.1,14 119.6,3.5 119.6,3.5 C119.6,3.5 116.4,12.9 119.6,13.5 C122.8,14 128.8,4.3 128.8,4.3 C128.8,4.3 126.4,12.6 128,13.2 C129.6,13.7 137.7,1.1 137.7,1.1 C137.7,1.1 132.9,9.4 137.4,10.3 C142,11.1 148.7,4.6 148.7,4.6 C148.7,4.6 143.5,10.5 145.8,11.4 C155.8,14.9 163.8,2 163.8,2 C163.8,2 161.9,7.7 157.1,13.9 C167.6,16.6 175.4,0.8 175.4,0.8 L167.6,16.6 C171.6,18.8 187.8,0.2 187.8,0.2 C187.8,0.2 179.5,14.7 174.6,17.7 C177.3,19.6 187,11 187,11 C187,11 179.2,20.7 182.2,21.2 C186.5,24.7 202.4,3.2 202.4,3.2 C202.4,3.2 196.1,15.9 187,25.8 C194.6,29.6 213.7,5.1 213.7,5.1 C213.7,5.1 213.2,12.9 199.4,25.3 C209.6,24 222.8,4.6 222.8,4.6 C222.8,4.6 218,19.1 206.4,29.4 C216.4,28.4 232.5,3.6 232.5,3.6 C232.5,3.6 226.3,20.8 213.7,30.8 C227.7,33.9 247.9,13 247.9,13 C247.9,13 240,27.8 229.6,33.9 C241.2,38.3 257.1,20 257.1,20 C257.1,20 241.2,44.5 215.9,43.4 C207.6,43 182.5,18.2 128.7,20.2 C57.5,22.9 42.4,53 4.4,73.5" fill="#373535"></path>
			<path d="M1.8,80.9 C23,91.5 42.4,79.3 66.8,86.2 C85.4,91.4 108,97.9 138.7,93.4 C169.4,89 195.6,75.6 208.2,51.8 C212.1,41.2 228,54.2 228,54.2 C228,54.2 216.4,49.4 216.7,51.6 C217,53.9 234.1,61.8 234.1,61.8 C234.1,61.8 218.6,57 219.6,60.6 C220.5,64.2 239,78.8 239,78.8 C239,78.8 217.9,63 216.2,65.2 C214.4,67.4 225.1,76.1 225.1,76.1 C225.1,76.1 207.5,65.2 201.3,68.4 C196.8,70.7 219.6,85.6 219.6,85.6 C219.6,85.6 204.8,74.3 201.3,77.3 C197.8,80.3 218,104.5 218,104.5 C218,104.5 195,79.7 192.7,80.9 C190.4,82.1 199,94 199,94 C199,94 187.8,81.6 184.7,83.7 C181.6,85.9 200.9,118 200.9,118 C200.9,118 180,85.1 171.3,90.6 C184.8,120.3 179.8,124.5 179.8,124.5 C179.8,124.5 178.1,94.2 161.2,95 C152.7,95.4 165.2,117.6 165.2,117.6 C165.2,117.6 153.7,97.3 146,97.7 C160.1,124.5 155.1,135.3 155.1,135.3 C155.1,135.3 157.4,112.4 138.3,99.7 C145.6,106.2 133.7,135.3 133.7,135.3 C133.7,135.3 144.1,92.4 126,100.6 C123.1,101.9 125.8,122 125.8,122 C125.8,122 122.2,99 116.7,100.2 C113.5,100.9 96.5,132.1 96.5,132.1 C96.5,132.1 110.4,98.4 106.2,99.8 C103.1,100.8 97.3,114.7 97.3,114.7 C97.3,114.7 100.1,101 97.3,100.2 C94.5,99.4 78.7,114.7 78.7,114.7 C78.7,114.7 90.4,101 88.4,98.1 C85.3,93.8 81.8,93.6 77.5,95.3 C71.3,97.7 63,109 63,109 C63,109 71.3,97.5 69.9,93.3 C67.6,86.4 43.7,106.6 43.7,106.6 C43.7,106.6 57.8,93.3 54.6,90.4 C51.4,87.6 33.8,88.4 28.4,88.4 C12.3,88.6 6.7,84.8 1.8,80.9" fill-opacity="0.35" fill="#373535"></path>
			<path d="M0.9,78.5 C22.1,89.1 41.5,76.9 65.9,83.8 C84.5,89 107.1,95.5 137.8,91 C168.5,86.6 194.7,73.2 207.3,49.4 C211.2,38.8 227.1,51.8 227.1,51.8 C227.1,51.8 215.5,47 215.8,49.2 C216.1,51.5 233.2,59.4 233.2,59.4 C233.2,59.4 217.7,54.6 218.7,58.2 C219.6,61.8 238.1,76.4 238.1,76.4 C238.1,76.4 217.2,60.5 215.5,62.7 C213.8,64.9 224.4,73.6 224.4,73.6 C224.4,73.6 206.8,62.7 200.6,65.9 C196.1,68.2 218.9,83.1 218.9,83.1 C218.9,83.1 204.1,71.8 200.6,74.8 C197.1,77.8 217.3,102 217.3,102 C217.3,102 194.4,77.2 192.1,78.4 C189.8,79.6 198.400001,91.5 198.400001,91.5 C198.400001,91.5 187,79.2 183.9,81.3 C180.8,83.5 200,115.6 200,115.6 C200,115.6 179.1,82.6 170.5,88.1 C184.1,117.9 179,122.1 179,122.1 C179,122.1 177.3,91.8 160.4,92.6 C151.9,93 164.4,115.2 164.4,115.2 C164.4,115.2 153,95 145.3,95.4 C159.4,122.2 154.4,133 154.4,133 C154.4,133 156.7,110.1 137.6,97.4 C144.9,103.9 133,133 133,133 C133,133 143.4,90.1 125.3,98.3 C122.4,99.6 125.1,119.7 125.1,119.7 C125.1,119.7 121.5,96.7 116,97.9 C112.8,98.6 95.8,129.8 95.8,129.8 C95.8,129.8 109.7,96.1 105.5,97.5 C102.4,98.5 96.6,112.4 96.6,112.4 C96.6,112.4 99.4,98.7 96.6,97.9 C93.8,97.1 78,112.4 78,112.4 C78,112.4 89.7,98.7 87.7,95.8 C84.6,91.5 81.1,91.3 76.8,93 C70.6,95.4 62.3,106.7 62.3,106.7 C62.3,106.7 70.6,95.2 69.2,91 C66.9,84.1 43,104.3 43,104.3 C43,104.3 57.1,91 53.9,88.1 C50.7,85.3 33.1,86.1 27.7,86.1 C11.4,86.2 5.8,82.4 0.9,78.5" fill="#373535"></path>
		</g>
	</g>
</svg>
