<svg xmlns="http://www.w3.org/2000/svg" width="208" height="420" fill="none"><path fill="#2CA760" fill-rule="evenodd" d="M190.009 204.321a16.842 16.842 0 0 0 16.88-16.88V9.868a10.447 10.447 0 0 0-14.931-8.85L14.931 97.114a28.185 28.185 0 0 0-14.93 24.95v82.803c0 7.485 8.186.779 14.657-2.924l87.675-56.41a9.785 9.785 0 0 1 13.294 3.547 10.022 10.022 0 0 1 1.326 4.873v33.488a16.837 16.837 0 0 0 16.88 16.88h56.176Z" clip-rule="evenodd"/><path fill="#07F" fill-rule="evenodd" d="M17.036 215.664a16.802 16.802 0 0 0-16.88 16.88V410a10.446 10.446 0 0 0 14.892 8.811l177.066-96.096a28.812 28.812 0 0 0 14.892-24.911v-61.049c0-21.481-9.239-18.479-15.828-14.619l-86.467 52.316a9.824 9.824 0 0 1-13.332-3.547 10.487 10.487 0 0 1-1.326-4.873v-33.488a16.84 16.84 0 0 0-16.88-16.88H17.036Z" clip-rule="evenodd"/></svg>