<svg xmlns="http://www.w3.org/2000/svg" width="512" height="158" preserveAspectRatio="xMidYMid"><path fill="#222" d="M509.4 80.327c-2.688-1.74-6.167-1.107-8.065 1.581-.316.474-7.273 10.594-19.449 10.594-4.743 0-8.38-1.423-10.752-4.427-.158-.158-.316-.475-.475-.633 0 0 .159 0 .159-.158 28.778-16.445 28.462-30.518 27.197-35.736-1.74-6.325-7.274-10.436-14.39-10.436-16.444 0-27.355 18.342-27.355 35.42 0 2.214.158 4.27.475 6.325-5.851 4.27-14.864 9.645-22.77 9.645-4.586 0-8.064-1.423-10.278-4.111-.79-.949-1.423-2.056-1.898-3.162 21.98-6.325 30.36-20.398 28.779-31.625-.949-7.274-6.483-12.492-13.283-12.492-15.338 0-26.406 16.129-28.146 31.941-3.004-.316-5.534-1.107-7.906-2.688.317-2.53.633-5.06.633-7.432 0-5.218-.949-9.645-2.846-13.124-2.53-4.586-6.8-7.116-11.702-7.116-2.688 0-5.06 1.423-6.483 3.953-2.846 5.219-.948 15.338 4.27 23.403.948 1.581 2.055 3.004 3.32 4.427-2.846 9.171-8.855 17.868-16.445 17.868-3.478 0-6.008-1.107-8.222-3.32-3.004-3.321-5.06-9.172-5.692-16.603 21.504-26.881 32.099-53.288 26.09-65.78C382.11 2.371 378.316 0 373.73 0c-14.864 0-23.719 19.291-27.197 58.98-.159 2.372-.317 5.376-.317 8.539-7.906 10.752-21.03 24.825-32.731 24.825-3.32 0-5.85-1.107-7.432-3.479-.158-.158-.316-.474-.474-.632.158 0 .316-.158.474-.316 28.937-18.659 28.462-32.732 27.039-37.792-1.581-5.534-6.641-9.171-13.124-9.171-16.761 0-28.146 19.291-28.146 37.317 0 1.581.158 3.163.316 4.744-5.376 3.795-9.645 7.274-13.915 10.594.633-4.902 1.581-11.227 2.688-20.556.317-1.897.475-3.479.633-4.27.949-6.799-10.278-8.222-11.543-.632-1.265 7.906-4.586 24.193-13.915 24.193-5.534 0-8.539-6.167-7.906-15.18.79-14.23 8.538-25.774 18.026-25.774 3.32 0 4.902 3.479 4.902 3.479 3.004 5.376 12.333.79 10.278-4.902-.95-2.53-3.953-9.013-14.864-9.013-22.137 0-29.095 22.454-30.043 37.317-.159 2.372-.159 4.744.158 7.116-3.163 3.795-6.8 6.957-10.436 6.957-3.48 0-5.693-3.953-4.428-12.966 1.265-8.697 2.214-15.812 2.688-19.924 2.688-18.816-20.872-18.342-20.872-18.342s-.316-11.069-9.33-11.069c-4.585 0-8.854 3.637-8.854 10.437 0 6.325 5.218 9.487 5.218 9.487-1.107 9.804-5.693 42.377-15.97 42.377-4.586 0-4.903-4.902-4.428-8.38.632-4.744 1.423-12.967 1.74-15.022.948-6.8-10.279-8.223-11.544-.633-1.265 7.907-4.585 24.193-13.915 24.193-5.534 0-8.538-6.957-8.064-15.496.79-14.39 8.539-25.458 18.026-25.458 3.32 0 4.902 3.479 4.902 3.479 2.53 5.376 12.175 1.581 10.278-4.902-.79-2.846-3.953-9.013-14.864-9.013-22.137 0-29.094 22.454-30.043 37.317-.158 2.372-.158 4.586 0 6.641-3.163 4.27-6.958 7.432-10.594 7.432-3.321 0-5.851-1.74-5.219-9.17.317-3.48 4.27-27.356 4.112-31.626-.475-7.273-3.795-10.436-11.86-10.436-8.538 0-14.863 4.428-17.551 7.116 0 0 3.953-30.044 4.743-35.894.791-6.009-10.91-6.167-11.543 0-.316 2.688-3.478 26.406-6.325 48.544C65.864 75.583 52.74 97.72 33.29 97.72c-36.843 0-19.924-80.326 14.705-80.326 8.065 0 4.428 12.966-.948 20.714-3.795 5.692 5.85 12.017 11.226 3.004 14.864-25.142 2.372-34.47-9.487-34.47-51.232 0-70.207 102.147-16.92 102.147 17.552 0 29.412-9.804 37.002-20.556-.791 6.009-1.265 10.12-1.423 10.91-.95 6.325 10.91 5.851 11.543.475.474-3.32 2.213-17.394 3.636-28.304.791-6.167 8.38-17.552 16.92-17.552 2.055 0 3.32 2.056 3.162 3.795-.316 2.056-3.953 28.778-3.795 32.732.633 11.226 8.697 13.756 16.287 13.756 6.009 0 10.91-2.846 14.863-7.273 2.689 4.427 6.8 7.273 12.492 7.273 12.808 0 17.236-9.17 17.236-9.17s1.58 9.17 12.65 9.17c22.453 0 27.671-39.056 28.778-52.18 1.265 0 9.171.474 10.594 4.901 1.265 4.27-2.688 17.868-3.004 31.941-.158 7.432 2.53 15.338 14.231 15.338 7.116 0 12.808-3.32 16.761-6.957 2.688 4.27 6.8 6.957 12.334 6.957 6.325 0 10.594-2.055 13.282-4.11-.158 1.264-.316 2.37-.474 3.636v.158c0-.158-29.57 21.189-29.57 41.27 0 7.906 3.638 12.966 12.967 12.966 18.5 0 24.35-24.825 27.039-45.223.158-.949.316-1.897.316-2.688 2.846-2.214 5.535-4.27 8.223-6.325 3.795-3.004 7.59-5.85 11.859-9.013.158.316.474.632.632.949 3.953 5.376 9.804 8.222 16.92 8.222 13.44 0 25.932-10.278 34.787-20.398 1.423 4.902 3.478 9.646 6.957 13.44 4.27 4.586 10.12 7.116 16.761 7.116 12.808 0 21.663-10.278 26.407-22.137 3.479 1.581 7.432 2.53 11.543 2.846.949 4.111 2.53 7.906 5.06 10.91 3.162 3.796 9.013 8.381 19.291 8.381s20.398-5.534 27.197-10.12l.949 1.423c3.162 3.954 9.33 8.697 19.765 8.697 18.5 0 28.779-15.18 29.253-15.812 1.423-2.53.633-6.167-1.897-7.906Zm-259.64 66.412c-1.738 0-3.003-1.107-3.003-3.321 0-10.12 15.654-23.877 15.812-23.877-1.898 13.599-7.432 27.198-12.808 27.198Zm69.892-94.874c1.423 0 1.739 1.106 2.055 1.739.633 2.214-1.581 10.594-18.5 22.295.948-11.068 7.748-24.034 16.445-24.034Zm53.762-40.006c4.901 0 .948 16.761-14.706 40.164 3.637-31.15 8.697-40.164 14.706-40.164Zm62.616 40.006c2.53 0 2.689 2.53 2.847 3.478.632 4.744-3.795 13.283-18.343 18.184 1.582-10.278 8.38-21.662 15.496-21.662Zm47.437 0c1.74 0 2.689 1.265 3.163 2.846.949 3.32-3.479 11.7-18.975 21.188.316-11.068 6.958-24.034 15.812-24.034Z"/></svg>