<?xml version="1.0" ?><!DOCTYPE svg  PUBLIC '-//W3C//DTD SVG 1.1//EN'  'http://www.w3.org/Graphics/SVG/1.1/DTD/svg11.dtd'><svg enable-background="new 0 0 128 128" height="128px" id="Layer_1" version="1.1" viewBox="0 0 128 128" width="128px" xml:space="preserve" xmlns="http://www.w3.org/2000/svg" xmlns:xlink="http://www.w3.org/1999/xlink"><path d="M127.17,100.854c0,2.243-1.818,4.061-4.062,4.061H5.23c-2.242,0-4.061-1.817-4.061-4.061V24.797  c0-2.243,1.818-4.061,4.061-4.061h117.878c2.243,0,4.062,1.818,4.062,4.061V100.854z" fill="#808080"/><g><path clip-rule="evenodd" d="M35.268,78.134c1.62-1.131,3.335-1.988,5.388-1.887   c1.948,0.097,2.884,1.332,2.411,3.23c-0.379,1.523-1.278,2.8-2.048,4.133c-0.625,1.079-1.306,2.136-1.546,3.382   c-0.195,1.005,0.217,1.489,1.238,1.116c1.316-0.481,2.373-1.058,2.788-2.724c1.225-4.927,6.661-9.203,11.712-9.487   c0.957-0.053,1.897-0.002,2.729,0.566c1.048,0.717,1.08,1.671,0.723,2.775c-0.34,1.055-0.908,1.241-2.014,1.07   c-3.206-0.498-7.522,2.788-8.133,6.021c-0.078,0.411-0.126,0.814,0.215,1.11c0.43,0.372,0.864,0.113,1.233-0.123   c1.871-1.191,3.226-2.875,3.95-4.922c0.499-1.409,1.252-1.488,2.375-1.048c1.263,0.495,1.854,1.608,1.406,2.698   c-0.493,1.195-1.176,2.312-1.465,3.589c-0.076,0.329-0.25,0.733,0.085,0.974c0.314,0.226,0.669-0.003,0.981-0.155   c0.696-0.336,1.192-0.827,1.486-1.581c1.489-3.8,3.54-7.368,4.679-11.309c0.221-0.765,0.671-0.615,1.136-0.47   c1.709,0.537,2.238,1.973,2.583,3.668c1.006-0.771,1.874-1.572,2.867-2.16c1.149-0.682,2.506-1.47,3.729-0.393   c1.175,1.033,0.761,2.503,0.296,3.78c-0.771,2.121-2.271,3.555-4.661,4.445c0.385-1.016,0.81-1.801,0.887-2.676   c0.108-1.216-0.354-1.613-1.483-1.13c-1.815,0.776-3.085,2.16-3.958,3.905c-1.049,2.097-1.873,4.289-2.648,6.499   c-0.665,1.894-1.792,2.339-3.446,1.071c-0.839-0.644-1.219-0.601-2.03,0.012c-2.135,1.617-3.874,0.999-5.213-1.77   c-1.477,1.362-2.98,2.763-5.173,2.398c-2.408-0.398-3.034-2.299-3.335-4.685c-0.419,0.754-0.673,1.256-0.971,1.73   c-0.693,1.109-1.515,2.109-2.646,2.801c-1.313,0.801-2.712,1.104-4.093,0.258c-1.306-0.801-1.291-2.188-1.17-3.484   c0.231-2.476,1.302-4.686,2.37-6.886c0.26-0.535,0.527-1.067,0.791-1.603c0.017-0.115,0.088-0.3,0.042-0.336   c-0.166-0.132-0.324-0.052-0.439,0.114c-1.177,0.313-1.935,1.192-2.673,2.054c-2.266,2.646-3.834,5.689-4.752,9.029   c-0.351,1.277-0.99,1.252-1.935,0.894c-1.293-0.491-1.966-1.654-1.83-3.244c0.125-1.455,0.635-2.814,1.195-4.141   c2.071-4.894,4.179-9.772,6.272-14.656c0.5-0.038,0.79-0.372,1.043-0.749c1.195-1.772,1.262-1.778,2.794-0.39   c0.591,0.537,0.714,1.127,0.38,1.86c-0.16,0.351-0.625,0.771,0.037,1.118c0.021,0.111-0.019,0.194-0.118,0.25   c-0.576,0.466-1.412,0.805-0.873,1.811c-0.489,1.144-0.977,2.289-1.464,3.433c-0.058,0.147-0.263,0.309-0.05,0.448   C35.147,78.521,35.179,78.261,35.268,78.134z" fill="#FFFFFF" fill-rule="evenodd"/><path clip-rule="evenodd" d="M42.009,59.555c-0.084-0.088-0.167-0.176-0.251-0.264   c0.021-0.606-0.312-0.89-0.877-0.962c-0.059-0.102-0.117-0.203-0.174-0.302c-0.481-1.024-1.049-2.034-0.608-3.234   c0.984-0.571,0.046-0.885-0.211-1.18c-2.783-3.177-4.948-6.601-4.665-11.071c0.015-0.225-0.14-0.461-0.215-0.692   c0.049-0.183,0.097-0.367,0.146-0.55c1.086-1.106,1.708-2.597,2.948-3.576c1.231-0.691,2.678-0.482,3.965-0.938   c0.181-0.157,0.431-0.28,0.529-0.477c1.347-2.733,3.579-4.436,6.346-5.535c2.763-1.099,5.288-2.881,8.416-2.926   c0.315,0.054,0.387,0.828,0.897,0.302c0.095-0.039,0.187-0.03,0.271,0.029c0.126,0.624,0.754,0.715,1.137,1.066   c1.457,1.339,2.775,2.758,3.046,4.839c-1.945,0.756-3.984,1.283-5.793,2.373c-1.774,1.068-2.515,2.915-1.931,4.825   c0.429,1.964,1.99,3.115,3.233,4.495c-0.291,0.786-1.101,0.515-1.643,0.791c-0.492,0.252-1.379,0.024-1.453,0.713   c-0.059,0.544,0.556,0.985,1.124,1.234c0.263,0.211,0.5,0.561,0.792,0.612c1.515,0.262,1.419,1.082,0.699,2.026   c-0.545,0.716-0.317,1.252,0.161,1.82c0.616,0.871,0.721,1.525-0.647,1.608c-0.182,0.01-0.355,0.159-0.532,0.246   c-0.302,0.016-0.604,0.032-0.905,0.048c-0.234-0.112-0.435-0.046-0.62,0.112c-1.146-0.041-2.323,0.29-3.414-0.402   c-0.219,3.053-0.219,3.053,1.389,3.143l-0.032-0.017c0.074,0.131,0.165,0.188,0.294,0.064c0.141-0.018,0.29-0.054,0.316,0.156   c0.287,0.253,0.572,0.507,0.859,0.759c0.186,0.579,0.83,0.992,0.625,1.714c-0.093,0.096-0.184,0.193-0.275,0.291   c-0.506,0.105-1.01,0.209-1.515,0.313c-1.491,0.242-2.583-0.123-2.866-1.814c-0.034-0.203-0.302-0.366-0.461-0.547   c-0.528-0.855-1.318-1.464-2.049-2.115c-1.485-1.318-1.533-1.319-0.19-2.684c0.555-0.564,0.5-0.819-0.252-0.906   c-1.215-0.14-2.234-0.711-3.244-1.34c-0.365-0.228-0.728-0.66-1.298-0.335c0.188,0.289,0.345,0.53,0.503,0.771   c-0.028,1.498,0.37,3.11-1.377,4.065c-0.483,0.266-0.086,0.749,0.188,0.983c0.521,0.449,1.09,0.858,1.682,1.207   c0.947,0.556,1.467,1.298,1.29,2.43c-0.396,0-0.793,0-1.189-0.001C43.484,60.276,42.867,59.691,42.009,59.555z" fill="#FFFFFF" fill-rule="evenodd"/><path clip-rule="evenodd" d="M27.041,81.636c-0.445,5.832-6.621,11.326-12.199,11.09   c-2.265-0.097-3.839-1.312-4.494-3.49c-0.5-1.662-0.51-3.361-0.114-5.027c1.561-6.575,5.083-11.842,10.722-15.612   c2.209-1.475,4.672-2.222,7.37-1.914c2.453,0.279,3.639,1.736,3.327,4.19c-0.26,2.038-1.193,3.757-2.808,5.251   c-0.43-0.813-0.749-1.575-1.204-2.243c-0.948-1.387-2.135-1.666-3.629-0.886c-0.523,0.272-1.035,0.614-1.46,1.021   c-2.761,2.649-4.625,5.853-5.601,9.537c-0.517,1.951,0.312,2.846,2.346,2.643c2.659-0.266,4.731-1.715,6.627-3.469   C26.244,82.43,26.548,82.117,27.041,81.636z" fill="#FFFFFF" fill-rule="evenodd"/><path clip-rule="evenodd" d="M70.062,91.613c1.731,1.872,3.462,3.766,6.252,2.826   c1.984-0.666,2.854-2.411,3.285-4.461c-0.742,0.522-1.454,1.096-2.233,1.556c-1.374,0.809-2.832,1.396-4.33,0.337   c-1.577-1.116-1.989-2.751-1.488-4.515c1.367-4.821,4.293-8.508,8.61-11.003c2.237-1.293,3.594-0.7,4.749,1.769   c0.411-0.167,0.587-0.566,0.624-0.897c0.176-1.574,1.026-1.695,2.318-1.266c1.595,0.53,2.402,1.543,2.147,2.93   c-0.052,0.288-0.16,0.576-0.29,0.841c-1.982,4.071-3.933,8.161-5.979,12.201c-1.02,2.013-2.372,3.833-4.255,5.13   c-2.063,1.421-4.332,2.22-6.717,0.867c-2.204-1.251-3.026-3.333-2.878-5.821C69.887,91.981,69.968,91.86,70.062,91.613z    M84.142,80.188c-3.464,0.979-5.426,3.184-6.988,5.839c-0.203,0.344-0.587,0.808-0.126,1.2c0.391,0.333,0.874,0.106,1.258-0.097   C81.042,85.669,83.08,83.581,84.142,80.188z" fill="#FFFFFF" fill-rule="evenodd"/><path clip-rule="evenodd" d="M113.864,76.128c1.917,0.565,2.379,1.231,1.718,3.003   c-0.695,1.857-1.63,3.624-2.398,5.458c-0.246,0.592-0.948,1.392-0.27,1.872c0.701,0.494,1.375-0.312,1.897-0.799   c2.58-2.41,4.639-5.216,5.864-8.535c0.379-1.028,0.801-1.147,1.716-0.898c2.335,0.636,2.956,1.907,2.009,4.081   c-1.63,3.737-3.174,7.513-4.83,11.237c-0.912,2.054-2.101,3.956-3.786,5.497c-1.127,1.03-2.415,1.752-3.938,1.996   c-3.902,0.628-6.59-1.764-6.464-6.081c1.798,1.878,3.5,3.82,6.249,2.289c1.747-0.974,2.616-2.6,3.309-4.588   c-0.863,0.034-1.179,0.613-1.636,0.901c-1.323,0.836-2.717,1.442-4.191,0.579c-1.479-0.866-1.665-2.397-1.518-3.947   c0.188-1.961,1.051-3.722,1.756-5.527c0.324-0.83,0.63-1.667,0.943-2.501c0.633-0.967,0.943-2.077,1.074-3.182   c0.133-1.113,0.657-1.282,1.566-1.08c0.183,0.318,0.441,0.353,0.749,0.197l0.063,0.005c-0.006,0.082-0.011,0.163-0.017,0.244   C113.775,76.275,113.819,76.202,113.864,76.128z" fill="#FFFFFF" fill-rule="evenodd"/><path clip-rule="evenodd" d="M113.685,76.101c-0.308,0.155-0.566,0.121-0.749-0.197   c-0.073-0.782-0.505-1.407-0.986-1.964c-0.628-0.727-1.382-1.35-2.455-1.025c-1.141,0.344-1.503,1.367-1.897,2.334   c-0.192,0.47,0.16,0.533,0.505,0.691c1.795,0.817,2.312,1.938,1.874,3.933c-4.532-0.093-4.565-0.107-6.314,3.937   c-1.202,2.779-2.566,5.517-2.85,8.6c-0.057,0.605-0.415,0.563-0.827,0.557c-2.026-0.033-3.605-1.934-3.216-3.962   c0.502-2.611,1.691-4.985,2.702-7.417c0.314-0.753,0.455-1.401,0.122-2.252c-0.655-1.674-0.21-2.544,1.456-3.206   c0.639-0.254,0.885-0.725,1.128-1.287c0.858-1.981,1.956-3.808,3.611-5.241c1.2-1.038,2.553-1.716,4.179-1.747   c1.806-0.034,3.393,0.466,4.348,2.091c0.961,1.635,0.541,3.244-0.331,4.813C113.77,75.139,112.955,75.48,113.685,76.101z" fill="#FFFFFF" fill-rule="evenodd"/><path clip-rule="evenodd" d="M59.628,59.832c-0.42,0.093-0.84,0.187-1.242,0.278   c-0.821,0.061-0.851-0.718-1.198-1.166c-0.143-0.616,0.063-1.182,0.249-1.75c0.073-0.028,0.148-0.046,0.227-0.053   c0.75,0.307,1.501,0.609,2.093-0.279c0.529-0.63,0.243-1.256-0.043-1.855c-0.172-0.361-0.118-0.521,0.287-0.539   c0.098,0.072,0.195,0.148,0.302,0.209c0.007,0.005,0.073-0.094,0.113-0.144c-0.119-0.045-0.238-0.089-0.357-0.134   c-0.604-0.692-1.21-1.384-1.815-2.076c0.041-1.87,0.899-3.123,2.883-3.548c-1.56,0.022-2.983,0.232-4.359-0.341   c-0.197-0.382-0.727-0.533-0.75-1.043c1.018-0.507,2.191-0.605,3.104-1.317c0.103-0.006,0.205-0.011,0.307-0.016   c0.382,0.083,0.76,0.189,1.146,0.247c2.358,0.355,3.552-1.194,2.723-3.525c0.201-0.432,0.64-0.281,0.971-0.396   c0.489,0.078,0.989,0.268,1.463,0.217c1.722-0.187,3.076,0.701,3.655,2.029c0.802,1.836,2.935,3.37,1.771,5.831   c-0.063,0.134,0.086,0.375,0.151,0.561c0.423,1.214,0.589,2.628,1.335,3.595c1.112,1.443,1.818,2.783,1.115,4.577   c-0.448,0.008-0.923,0.119-1.335,0.002c-0.672-0.188-2.041,0.23-1.302-1.428c0.225-0.505-0.501-1.031-0.99-1.372   c-0.45-0.315-0.74-0.099-0.856,0.398c-0.299,0.308-0.599,0.617-0.898,0.924c-0.383,0.509-0.895,1.023,0.04,1.499l-0.007-0.01   c-0.019,0.433-0.037,0.867-0.055,1.301c-1.142-0.937-2.524-1.7-2.165-3.586c0.075-0.398-0.328-0.808-0.778-0.996   c-0.096-0.046-0.193-0.091-0.289-0.138c-0.204-0.041-0.408-0.081-0.611-0.121c-0.684-0.339-1.587-0.644-2.081-0.167   c-0.503,0.484,0.327,1.186,0.446,1.825c0.008,0.042,0.063,0.073,0.097,0.109c0.018,1.084-0.4,1.712-1.585,1.852   C60.806,59.354,60.105,59.309,59.628,59.832z M64.525,49.335c-0.054,0.384-0.156,0.794,0.44,0.837   c0.981,0.41,1.318,0.296,1.675-0.565c-0.514-1.508-2.131-2.667-3.834-2.594c1.235,0.336,0.597,1.943,1.745,2.336L64.525,49.335z" fill="#FFFFFF" fill-rule="evenodd"/><path clip-rule="evenodd" d="M95.799,87.255c0.272,2.555-1.921,5.468-4.231,5.791   c-2.491,0.349-4.449-1.791-4.156-4.566c0.158-1.509,0.802-2.872,1.394-4.238c1.029-2.374,2.156-4.706,3.169-7.088   c0.723-1.702,1.977-0.876,3.015-0.658c1.148,0.241,1.708,1.082,1.193,2.252c-0.783,1.773-1.67,3.501-2.493,5.258   c-0.507,1.081-0.994,2.17-1.454,3.271c-0.207,0.493-0.48,1.06,0.092,1.493c0.509,0.386,1.034,0.157,1.549-0.07   C94.6,88.379,95.138,87.789,95.799,87.255z" fill="#FFFFFF" fill-rule="evenodd"/><path clip-rule="evenodd" d="M100.952,63.963c-0.196,3.331-1.378,6.379-2.779,9.349   c-0.447,0.948-2.213,1.504-3.155,1.064c-0.919-0.43-1.516-1.024-0.986-2.23c1.577-3.588,3.069-7.213,4.612-10.816   c0.162-0.381,0.197-0.964,0.774-0.965c0.511-0.003,0.749,0.479,0.948,0.857C100.814,62.069,101.011,62.99,100.952,63.963z" fill="#FFFFFF" fill-rule="evenodd"/><path clip-rule="evenodd" d="M94.415,65.782c-0.062,2.721-0.974,5.14-1.941,7.539   c-0.337,0.833-1.117,1.127-1.928,1.201c-1.134,0.104-1.889-0.833-1.493-1.863c1.214-3.151,2.487-6.279,3.706-9.428   c0.337-0.872,0.642-0.704,1.062-0.087C94.388,63.976,94.392,64.92,94.415,65.782z" fill="#FFFFFF" fill-rule="evenodd"/><path clip-rule="evenodd" d="M57.188,58.944c0.347,0.448,0.377,1.227,1.198,1.166   c0.065-0.014,0.148-0.031,0.23-0.048c-0.057,0-0.115-0.006-0.171,0.002c-0.479,0.069-0.957,0.141-1.582,0.232   c0.995,1.106,1.661,2.229,1.953,3.568c0.259,1.186-0.167,2.017-1.271,2.318c-3.282,0.899-5.981,0.366-6.281-3.614   c-0.115-1.513-1.072-2.64-1.663-3.937c0.169,0.005,0.34,0.01,0.511,0.015c0.159,0.182,0.427,0.344,0.461,0.547   c0.283,1.691,1.375,2.056,2.867,1.814c-0.07,1.021-0.299,2.047,0.18,3.042c0.502,1.042,1.528,1.288,2.466,1.335   c0.801,0.041,0.667-0.802,0.63-1.392c0.102-0.517-0.541-0.9-0.334-1.44c0.828-0.108,0.759,1.017,1.775,0.998   c-0.85-1.19-1.09-2.604-2.679-2.868c-0.074-0.005-0.15-0.013-0.225-0.023c-0.006-0.086-0.014-0.171-0.024-0.255   c0.206-0.723-0.439-1.135-0.625-1.715c0.013-0.19,0.026-0.379,0.04-0.569c0.349-0.15,0.24-0.51,0.356-0.767   c0.242-0.544,0.461-1.285,1.083-1.3c0.646-0.016,1.381,0.252,1.581,1.087c-0.079,0.007-0.154,0.025-0.228,0.053   c-0.705-0.414-1.475-0.579-1.815,0.328c-0.329,0.88,0.502,1.117,1.136,1.362C56.888,58.933,57.045,58.925,57.188,58.944z" fill="#FFFFFF" fill-rule="evenodd"/><path clip-rule="evenodd" d="M64.208,33.163c0.007-0.05-0.004-0.111,0.022-0.146   c0.34-0.451,0.032-1.513,0.675-1.433c0.833,0.106,1.166,1.062,1.08,1.878c-0.087,0.82-0.161,1.755-1.157,2.127   c-1.105,0.68-1.967,1.707-3.183,2.233c-0.321,0.139-0.619,0.319-0.504,0.76c-0.377-0.027-0.698,0.043-0.807,0.474   c-1.261,0.734-0.578,1.553-0.063,2.312c0.644,0.951,1.87,1.074,2.69,1.787c0.003,0.871,0.071,1.772-0.988,2.157   c-1.259-1.093-2.882-1.709-3.896-3.127c-1.139-1.589-0.988-2.98,0.529-4.155c1.26-0.978,2.765-1.504,4.121-2.301   c0.671-0.394,1.453-0.708,1.424-1.697l0.021,0.045c0.36-0.069,0.904,0.243,1.038-0.238c0.118-0.421-0.388-0.266-0.636-0.332   C64.454,33.392,64.331,33.278,64.208,33.163z" fill="#FFFFFF" fill-rule="evenodd"/><path clip-rule="evenodd" d="M61.141,38.583c-0.115-0.44,0.183-0.621,0.504-0.76   c1.216-0.526,2.078-1.553,3.183-2.233c0.585,3.389,1.536,6.55,5.058,8.108c0.042,0.169,0.084,0.338,0.126,0.507   c0.324,0.568,0.646,1.135,0.971,1.702c0.19,1.322,1.195,0.526,1.825,0.701c-0.104,0.204-0.208,0.406-0.313,0.608   c-0.618,0.026-1.367-0.026-0.475,0.852c0.343,0.337,0.42,0.729,0.303,1.216c-0.63,2.636,0.095,4.862,2.161,6.601   c0.501,0.42,0.68,0.894,0.75,1.478c-0.755,0.545-1.021,1.418-1.462,2.174c-0.005-0.114-0.01-0.228-0.014-0.342   c0.703-1.794-0.003-3.134-1.115-4.577c-0.746-0.967-0.912-2.38-1.335-3.595c-0.065-0.186-0.214-0.426-0.151-0.561   c1.164-2.461-0.969-3.995-1.771-5.831c-0.579-1.329-1.934-2.216-3.655-2.029c-0.475,0.05-0.975-0.139-1.464-0.216   c0.075-0.066,0.151-0.131,0.226-0.197c1.983-0.056,2.028-0.146,1.186-1.851c-0.395-0.8-0.746-1.628-1.038-2.47   c-0.263-0.756-0.571-0.965-1.278-0.437C62.695,37.931,62.033,38.491,61.141,38.583z" fill="#FFFFFF" fill-rule="evenodd"/><path clip-rule="evenodd" d="M88.96,67.199c-0.115,2.241-0.788,4.275-1.596,6.263   c-0.364,0.901-1.159,1.264-2.09,0.902c-1.016-0.396-0.644-1.166-0.375-1.882c0.821-2.191,1.625-4.39,2.46-6.575   c0.146-0.384,0.122-1.053,0.695-0.99c0.544,0.061,0.677,0.682,0.792,1.161C88.937,66.462,88.93,66.869,88.96,67.199z" fill="#FFFFFF" fill-rule="evenodd"/><path clip-rule="evenodd" d="M68.377,57.719c0.3-0.308,0.6-0.617,0.898-0.924   c0.213,0.069,0.427,0.138,0.64,0.208c-1.181,1.755-0.517,3.085,1.704,3.142c0.854,0.021,0.996,1.189,1.888,0.882   c0.279,0.573,0.562,1.146,0.837,1.708c0.759-0.25,1.214-0.618,0.968-1.432c0.472-0.177,0.566-0.624,0.629-1.085   c1.798,1.148,1.855,1.675,0.483,3.58c-0.48-0.12,0.465-1.033-0.451-0.858c-0.732,0.143-0.267,0.572-0.201,0.976   c0.143,0.874,0.282,1.863-1.108,1.88c-0.615-0.407-1.541-0.431-1.646-1.465c-0.029-0.296-0.465-0.338-0.753-0.299   c-1.33,0.181-1.285-0.651-1.168-1.549c0.26-0.606,0.812,0.518,1.057-0.178c0.168,0.07,0.399,0.217,0.413-0.106   c0.031-0.852-0.669-1.181-1.27-1.348c-1.119-0.313-2.044-0.883-2.887-1.642l0.007,0.01C68.403,58.718,68.392,58.218,68.377,57.719z   " fill="#FFFFFF" fill-rule="evenodd"/><path clip-rule="evenodd" d="M38.102,37.724c-1.241,0.979-1.863,2.47-2.949,3.576   c-0.235-0.745-0.863-1.019-1.501-1.323c-1.271-0.604-2.308-1.45-2.317-3.007c-0.009-1.533,0.967-2.459,2.205-3.115   c1.223-0.648,2.496-1.204,4.201-1.3c-1.089,0.97-2.303,1.145-3.254,1.793c-1.375,0.935-1.803,2.191-1.114,3.431   c0.73,1.314,1.869,1.533,3.038,0.6c0.346-0.276,0.729-0.502,1.096-0.751C37.704,37.661,37.903,37.692,38.102,37.724z" fill="#FFFFFF" fill-rule="evenodd"/><path clip-rule="evenodd" d="M57.357,27.849c-3.127,0.044-5.653,1.827-8.416,2.926   c-2.767,1.099-5,2.801-6.346,5.535c-0.098,0.197-0.349,0.32-0.529,0.477c-0.49-0.067-1.027,0.155-1.463-0.238   c0.867-0.094,1.383-0.566,1.801-1.345c0.684-1.282,1.63-2.409,2.847-3.215c2.785-1.846,5.863-3.095,8.992-4.225   c0.452,0.046,0.918,0.18,1.294-0.222c0.499,0.006,0.997,0.012,1.496,0.018C57.141,27.657,57.25,27.753,57.357,27.849z" fill="#FFFFFF" fill-rule="evenodd"/><path clip-rule="evenodd" d="M83.598,66.424c0.813,0.502,0.836,1.161,0.828,1.783   c-0.026,1.912-0.672,3.685-1.346,5.441c-0.233,0.608-0.731,0.998-1.409,0.763c-0.715-0.248-0.719-0.782-0.465-1.447   C82.024,70.815,82.788,68.647,83.598,66.424z" fill="#FFFFFF" fill-rule="evenodd"/><path clip-rule="evenodd" d="M80.667,69.813c-0.088,1.275-0.521,2.542-1.1,3.765   c-0.37,0.78-0.977,1.191-1.811,0.765c-0.822-0.419-0.274-0.995-0.051-1.522c0.543-1.284,1.043-2.586,1.623-3.853   c0.161-0.35,0.094-1.064,0.728-0.933c0.586,0.12,0.544,0.755,0.605,1.242C80.683,69.424,80.667,69.575,80.667,69.813z" fill="#FFFFFF" fill-rule="evenodd"/><path clip-rule="evenodd" d="M70.982,45.907c-0.324-0.567-0.646-1.134-0.971-1.702   c0.78-0.038,1.581,0.073,2.328-0.229c0.559-0.227,1.281-0.652,1.04-1.231c-0.499-1.199-0.355-2.423-0.503-3.631   c0.24-1.018,1.14-1.056,2.092-1.34c-1.188,1.531-0.179,2.752,0.317,4.038c-0.098,0.023-0.199,0.046-0.297,0.069   c-0.432-0.456-0.862-0.913-1.344-1.424c-0.257,0.7,0.119,1.169,0.273,1.658c0.563,1.79,0.145,2.618-1.645,3.211   C71.83,45.472,71.249,45.358,70.982,45.907z" fill="#FFFFFF" fill-rule="evenodd"/><path clip-rule="evenodd" d="M44.174,60.723c0.396,0.001,0.793,0.001,1.189,0.001   c0.303-0.063,0.347-0.303,0.378-0.551c0.151-0.014,0.304-0.029,0.456-0.043c0.183,0.177,0.367,0.353,0.55,0.529   c-0.455,0.215-0.908,0.429-1.362,0.643c-0.188-0.187-0.425-0.319-0.544,0.01c-0.151,0.422,0.155,0.593,0.517,0.673l-0.012,0.133   c-0.292,0.803-0.084,1.123,0.667,1.026c0.503-0.298,0.358-1.206,1.153-1.231c0.094,0.347-0.221,0.887,0.272,1.017   c0.414,0.108,0.246-0.57,0.585-0.697c0.69,0.698,0.478,1.177-0.345,1.562c-1.077,0.502-2.189,0.502-3.329,0.331   c-0.634-0.096-0.74-0.581-0.809-1.078c-0.11-0.773-0.191-1.551-0.284-2.327C43.561,60.722,43.867,60.723,44.174,60.723z" fill="#FFFFFF" fill-rule="evenodd"/><path clip-rule="evenodd" d="M40.153,30.796l0.02-0.12l0.122-0.001   c-0.003-0.162-0.004-0.325-0.007-0.487l-0.024,0.03c0.283-0.156,0.566-0.312,0.851-0.466c-0.179-0.063-0.359-0.126-0.537-0.188   c0.057-0.245,0.165-0.582,0.434-0.485c1.168,0.424,2.073-0.239,3.042-0.651C44.445,28.614,44.793,28,45,28.217   c0.255,0.269,0.027,0.735-0.051,1.118c-0.141,0.691-0.877,1.062-0.927,1.79l0.021-0.017c-1.266,0.029-2.48,0.614-3.773,0.36   C40.23,31.244,40.191,31.021,40.153,30.796z" fill="#FFFFFF" fill-rule="evenodd"/><path clip-rule="evenodd" d="M35.007,41.851c0.076,0.231,0.23,0.467,0.215,0.692   c-0.283,4.47,1.882,7.894,4.665,11.071c0.258,0.294,1.196,0.609,0.21,1.18c-0.139-0.02-0.278-0.038-0.417-0.058   c0.295-0.566-0.192-0.785-0.485-1.089c-2.134-2.219-3.703-4.77-4.436-7.775C34.431,44.529,34.364,43.156,35.007,41.851z" fill="#FFFFFF" fill-rule="evenodd"/><path clip-rule="evenodd" d="M77.068,70.603c-0.126,1.17-0.445,2.266-0.984,3.28   c-0.283,0.532-0.798,0.791-1.385,0.514c-0.664-0.313-0.335-0.799-0.136-1.26c0.413-0.957,0.752-1.949,1.22-2.877   c0.21-0.419,0.191-1.295,0.863-1.108C77.182,69.302,77.042,70.085,77.068,70.603z" fill="#FFFFFF" fill-rule="evenodd"/><path clip-rule="evenodd" d="M50.112,58.646c-0.171-0.005-0.341-0.01-0.511-0.015   c-0.707-0.581-1.408-1.168-2.121-1.742c-1.605-1.29-1.638-1.532-0.424-3.212c-0.963-0.45-1.927-0.9-2.891-1.348   c-0.124-0.239-0.355-0.263-0.584-0.292c-0.158-0.241-0.314-0.483-0.503-0.771c0.57-0.325,0.933,0.107,1.298,0.335   c1.009,0.629,2.028,1.201,3.244,1.34c0.751,0.087,0.807,0.342,0.252,0.906c-1.342,1.364-1.295,1.365,0.19,2.684   C48.794,57.182,49.584,57.791,50.112,58.646z" fill="#FFFFFF" fill-rule="evenodd"/><path clip-rule="evenodd" d="M37.424,72.431c-0.662-0.347-0.196-0.768-0.037-1.118   c0.334-0.733,0.211-1.323-0.38-1.86c-1.532-1.389-1.599-1.383-2.794,0.39c-0.254,0.377-0.544,0.711-1.043,0.749   c0.045-0.191,0.08-0.386,0.138-0.573c0.638-2.106,1.571-2.643,3.459-1.994c1.396,0.479,1.756,1.703,1.052,3.621   C37.718,71.917,37.557,72.169,37.424,72.431z" fill="#FFFFFF" fill-rule="evenodd"/><path clip-rule="evenodd" d="M64.208,33.163c0.122,0.115,0.245,0.229,0.366,0.344   c-0.134,0.19-0.268,0.38-0.402,0.57l-0.021-0.045c-0.354,0.135-0.708,0.27-1.063,0.405c-0.127-0.118-0.252-0.235-0.379-0.352   c-0.271-2.081-1.59-3.5-3.046-4.839c-0.383-0.351-1.011-0.442-1.137-1.066c2.469,0.488,3.545,2.428,4.587,4.401   C63.351,33.03,63.439,33.728,64.208,33.163z" fill="#FFFFFF" fill-rule="evenodd"/><path clip-rule="evenodd" d="M43.582,52.038c0.229,0.029,0.46,0.052,0.584,0.292   c-0.065,1.43,0.25,2.9-1.236,4.001c-0.624,0.462,0.366,0.847,0.712,1.032c1.068,0.571,2.099,1.112,2.266,2.481   c-0.056,0.109-0.111,0.219-0.167,0.328c-0.031,0.249-0.075,0.489-0.378,0.551c0.178-1.132-0.343-1.874-1.29-2.43   c-0.592-0.349-1.16-0.757-1.682-1.207c-0.273-0.235-0.671-0.718-0.188-0.983C43.952,55.148,43.554,53.536,43.582,52.038z" fill="#FFFFFF" fill-rule="evenodd"/><path clip-rule="evenodd" d="M65.412,55.926c0.45,0.188,0.854,0.598,0.778,0.996   c-0.359,1.886,1.023,2.649,2.165,3.586l0.009-0.006c-0.671-0.084-1.297-0.244-1.914-0.587c-0.722-0.398-1.154-0.753-0.966-1.693   c0.169-0.834,0.049-1.698-0.969-2.051c-0.001-0.167-0.002-0.336-0.003-0.503c0.204,0.041,0.408,0.08,0.61,0.12   C65.219,55.833,65.316,55.879,65.412,55.926z" fill="#FFFFFF" fill-rule="evenodd"/><path clip-rule="evenodd" d="M72.877,39.113c0.147,1.208,0.004,2.433,0.503,3.631   c0.241,0.579-0.481,1.004-1.04,1.231c-0.747,0.302-1.548,0.191-2.328,0.229c-0.042-0.168-0.084-0.338-0.126-0.507   c0.439-0.025,0.881-0.044,1.319-0.076c1.521-0.108,1.792-0.491,1.267-1.949C72.129,40.719,72.067,39.861,72.877,39.113z" fill="#FFFFFF" fill-rule="evenodd"/><path clip-rule="evenodd" d="M68.364,60.502l-0.009,0.006c0.018-0.434,0.036-0.868,0.055-1.301   c0.843,0.759,1.768,1.329,2.887,1.642c0.601,0.167,1.301,0.497,1.27,1.348c-0.014,0.323-0.245,0.176-0.413,0.106   c-0.106-0.854-0.752-0.759-1.321-0.71C69.794,61.687,68.953,61.395,68.364,60.502z" fill="#FFFFFF" fill-rule="evenodd"/><path clip-rule="evenodd" d="M44.022,31.125c0.05-0.729,0.786-1.099,0.927-1.79   c0.078-0.383,0.306-0.849,0.051-1.118c-0.206-0.217-0.554,0.397-0.946,0.211c0.367-0.547,0.545-1.126,0.103-2.021   c1.193,0.518,1.435,1.36,1.417,2.185C45.55,29.674,45.279,30.737,44.022,31.125z" fill="#FFFFFF" fill-rule="evenodd"/><path clip-rule="evenodd" d="M71.097,62.482c-0.117,0.897-0.162,1.73,1.168,1.549   c0.288-0.039,0.724,0.003,0.753,0.299c0.104,1.034,1.03,1.058,1.646,1.465c-0.742,0.029-1.558,0.362-1.848-0.812   c-0.151-0.613-0.839-0.348-1.294-0.347c-0.874,0-0.857-0.688-0.97-1.225C70.467,63.009,70.158,62.34,71.097,62.482z" fill="#FFFFFF" fill-rule="evenodd"/><path clip-rule="evenodd" d="M69.915,57.002c-0.213-0.069-0.427-0.138-0.64-0.208   c0.116-0.498,0.406-0.714,0.856-0.398c0.489,0.341,1.215,0.867,0.99,1.372c-0.739,1.658,0.63,1.239,1.302,1.428   c0.412,0.117,0.887,0.006,1.335-0.002c0.004,0.114,0.009,0.228,0.014,0.342c-0.517,0.013-1.032,0.027-1.549,0.04   c-0.378-0.016-0.756-0.031-1.133-0.047c-0.586-0.353-1.306-0.59-0.613-1.533C70.813,57.538,70.248,57.26,69.915,57.002z" fill="#FFFFFF" fill-rule="evenodd"/><path clip-rule="evenodd" d="M59.628,59.832c0.477-0.523,1.178-0.478,1.761-0.546   c1.185-0.14,1.603-0.768,1.585-1.852c0.112-0.001,0.222-0.003,0.333-0.004C63.569,59.409,61.769,60.584,59.628,59.832z" fill="#FFFFFF" fill-rule="evenodd"/><path clip-rule="evenodd" d="M72.224,59.575c0.517-0.013,1.032-0.026,1.549-0.04   c0.441-0.755,0.707-1.629,1.462-2.174c0.82,0.581,0.172,1.105-0.111,1.586c-0.177,0.298-0.496,0.496-0.138,0.853   c-0.136,0.082-0.272,0.164-0.406,0.246c-0.725-0.316-1.498-0.205-2.251-0.251C72.289,59.723,72.256,59.651,72.224,59.575z" fill="#FFFFFF" fill-rule="evenodd"/><path clip-rule="evenodd" d="M75.312,61.302c0.246,0.814-0.209,1.181-0.968,1.432   c-0.275-0.562-0.558-1.135-0.837-1.708C74.254,60.171,74.727,61.102,75.312,61.302z" fill="#FFFFFF" fill-rule="evenodd"/><path clip-rule="evenodd" d="M45.346,62.117c0,0,0.012-0.133,0.012-0.134   c0.01-0.228,0.019-0.454,0.028-0.682c0.454-0.214,0.907-0.428,1.362-0.643c0.148,0.153,0.297,0.308,0.445,0.462   c-0.01,0.267-0.021,0.531-0.033,0.798l0.006-0.006c-0.795,0.026-0.649,0.933-1.154,1.231   C46.019,62.653,45.501,62.503,45.346,62.117z" fill="#FFFFFF" fill-rule="evenodd"/><path clip-rule="evenodd" d="M63.308,57.43c-0.111,0.001-0.221,0.003-0.333,0.004   c-0.034-0.036-0.089-0.067-0.097-0.109c-0.119-0.64-0.949-1.341-0.446-1.825c0.494-0.476,1.397-0.172,2.081,0.167   c0.001,0.167,0.002,0.336,0.003,0.503c-0.469-0.081-0.937-0.163-1.543-0.267C63.095,56.467,63.202,56.949,63.308,57.43z" fill="#FFFFFF" fill-rule="evenodd"/><path clip-rule="evenodd" d="M74.989,41.88c0.098-0.023,0.199-0.046,0.297-0.069   c1.008,1.25,1.125,2.5,0.005,3.752c-0.149-0.024-0.297-0.05-0.446-0.075C75.839,44.323,75.518,43.105,74.989,41.88z" fill="#FFFFFF" fill-rule="evenodd"/><path clip-rule="evenodd" d="M39.681,54.735c0.139,0.02,0.278,0.038,0.417,0.058   c-0.44,1.2,0.128,2.21,0.609,3.234C39.353,57.166,39.006,56.048,39.681,54.735z" fill="#FFFFFF" fill-rule="evenodd"/><path clip-rule="evenodd" d="M40.603,36.548c0.437,0.394,0.974,0.171,1.463,0.238   c-1.288,0.455-2.734,0.247-3.965,0.938c-0.197-0.032-0.396-0.063-0.596-0.095C38.412,36.907,39.464,36.605,40.603,36.548z" fill="#FFFFFF" fill-rule="evenodd"/><path clip-rule="evenodd" d="M74.845,45.488c0.149,0.025,0.297,0.051,0.446,0.075   c-0.787,0.796-1.449,1.804-2.796,1.653c0.104-0.202,0.209-0.404,0.313-0.608C73.435,46.139,74.021,45.597,74.845,45.488z" fill="#FFFFFF" fill-rule="evenodd"/><path clip-rule="evenodd" d="M40.27,31.468c1.293,0.254,2.507-0.331,3.773-0.36   c-1.121,1.039-2.369,1.26-3.755,0.583C40.244,31.62,40.238,31.545,40.27,31.468z" fill="#FFFFFF" fill-rule="evenodd"/><path clip-rule="evenodd" d="M44.174,60.723c-0.307,0-0.613-0.001-0.919-0.002   c-0.589-0.203-1.074-0.518-1.246-1.166C42.867,59.691,43.484,60.276,44.174,60.723z" fill="#FFFFFF" fill-rule="evenodd"/><path clip-rule="evenodd" d="M40.27,31.468c-0.032,0.077-0.026,0.152,0.018,0.223   c-0.618-0.163-1.077,0.662-2.016,0.167c0.985-0.05,1.001-1.143,1.881-1.061C40.191,31.021,40.23,31.244,40.27,31.468z" fill="#FFFFFF" fill-rule="evenodd"/><path clip-rule="evenodd" d="M36.433,74.491c-0.539-1.006,0.297-1.345,0.873-1.811   C37.143,73.345,36.875,73.959,36.433,74.491z" fill="#FFFFFF" fill-rule="evenodd"/><path clip-rule="evenodd" d="M48.022,62.232c-0.339,0.127-0.171,0.805-0.585,0.697   c-0.493-0.13-0.178-0.67-0.272-1.017l-0.006,0.006c0.191-0.041,0.382-0.08,0.572-0.121C47.829,61.942,47.926,62.086,48.022,62.232z   " fill="#FFFFFF" fill-rule="evenodd"/><path clip-rule="evenodd" d="M57.357,27.849c-0.107-0.096-0.216-0.192-0.325-0.29   c0.6-0.199,0.882,0.253,1.223,0.592C57.744,28.677,57.672,27.903,57.357,27.849z" fill="#FFFFFF" fill-rule="evenodd"/><path clip-rule="evenodd" d="M40.88,58.329c0.566,0.072,0.899,0.356,0.877,0.962   C41.409,59.022,41.009,58.799,40.88,58.329z" fill="#FFFFFF" fill-rule="evenodd"/><path clip-rule="evenodd" d="M40.577,29.564c0.178,0.062,0.358,0.125,0.537,0.188   c-0.285,0.155-0.568,0.311-0.851,0.466C39.951,29.801,40.345,29.722,40.577,29.564z" fill="#FFFFFF" fill-rule="evenodd"/><path clip-rule="evenodd" d="M55.536,27.542c-0.376,0.401-0.842,0.268-1.294,0.222   C54.635,27.467,55.084,27.497,55.536,27.542z" fill="#FFFFFF" fill-rule="evenodd"/><path clip-rule="evenodd" d="M72.224,59.575c0.032,0.076,0.065,0.148,0.104,0.22   c-0.441,0.039-0.897,0.156-1.237-0.268C71.468,59.544,71.846,59.56,72.224,59.575z" fill="#FFFFFF" fill-rule="evenodd"/><path clip-rule="evenodd" d="M47.732,61.797c-0.19,0.041-0.381,0.08-0.572,0.121   c0.012-0.267,0.023-0.531,0.033-0.798C47.373,61.346,47.553,61.571,47.732,61.797z" fill="#FFFFFF" fill-rule="evenodd"/><path clip-rule="evenodd" d="M45.741,60.172c0.055-0.109,0.111-0.219,0.167-0.328   c0.095,0.095,0.192,0.19,0.29,0.285C46.045,60.144,45.893,60.158,45.741,60.172z" fill="#FFFFFF" fill-rule="evenodd"/><path clip-rule="evenodd" d="M74.579,60.046c0.134-0.083,0.271-0.165,0.406-0.246   c0.11,0.07,0.237,0.189,0.077,0.269C74.936,60.133,74.743,60.059,74.579,60.046z" fill="#FFFFFF" fill-rule="evenodd"/><path clip-rule="evenodd" d="M40.288,30.189c0.003,0.162,0.004,0.325,0.007,0.487   c-0.251,0.042-0.446-0.02-0.41-0.315C39.915,30.125,40.108,30.142,40.288,30.189z" fill="#FFFFFF" fill-rule="evenodd"/><path clip-rule="evenodd" d="M113.864,76.128c-0.045,0.074-0.089,0.147-0.133,0.222   c0.006-0.081,0.011-0.162,0.017-0.244L113.864,76.128z" fill="#FFFFFF" fill-rule="evenodd"/><path clip-rule="evenodd" d="M35.268,78.134c-0.088,0.127-0.12,0.388-0.349,0.238   c-0.213-0.14-0.008-0.301,0.05-0.448C35.068,77.994,35.169,78.063,35.268,78.134z" fill="#FFFFFF" fill-rule="evenodd"/><path clip-rule="evenodd" d="M36.892,80.655c0.115-0.166,0.273-0.246,0.439-0.114   c0.046,0.036-0.026,0.221-0.042,0.336C37.157,80.804,37.025,80.729,36.892,80.655z" fill="#FFFFFF" fill-rule="evenodd"/><path clip-rule="evenodd" d="M55.253,60.659c0.075,0.011,0.151,0.019,0.225,0.023   c0.092,0.573-1.19,0.606-0.596,1.269c0.608,0.68,0.847,1.708,1.833,2.042c0.038,0.59,0.171,1.433-0.63,1.392   c-0.938-0.048-1.964-0.294-2.466-1.335c-0.479-0.994-0.25-2.02-0.18-3.042c0.504-0.104,1.008-0.208,1.514-0.312   C55.053,60.683,55.152,60.671,55.253,60.659z" fill="#FFFFFF" fill-rule="evenodd"/><path clip-rule="evenodd" d="M62.709,34.085c0.127,0.117,0.252,0.234,0.379,0.352   c-1.498,0.646-2.994,1.291-4.491,1.937c-0.636,0.161-1.229,0.396-1.633,0.956l0.005-0.026c-1.484,0.889-1.85,1.878-1.473,3.978   c-0.17,0-0.341,0.001-0.512,0.001c-0.584-1.91,0.157-3.756,1.931-4.825C58.725,35.368,60.765,34.841,62.709,34.085z" fill="#FFFFFF" fill-rule="evenodd"/><path clip-rule="evenodd" d="M56.767,48.434c1.376,0.573,2.8,0.364,4.359,0.341   c-1.984,0.425-2.842,1.678-2.883,3.548c-0.023,0.268-0.056,0.528-0.347,0.651c-0.478-0.569-0.706-1.105-0.161-1.821   c0.721-0.945,0.816-1.765-0.699-2.026c-0.292-0.051-0.529-0.401-0.791-0.612C56.421,48.488,56.595,48.461,56.767,48.434z" fill="#FFFFFF" fill-rule="evenodd"/><path clip-rule="evenodd" d="M56.729,55.274c-0.004-0.15-0.008-0.298-0.013-0.446   c0.177-0.086,0.35-0.236,0.532-0.246c1.368-0.083,1.263-0.738,0.647-1.608c0.292-0.123,0.324-0.382,0.347-0.65   c0.604,0.692,1.21,1.384,1.815,2.076L60,54.469c-0.404,0.016-0.458,0.177-0.286,0.538c0.286,0.6,0.573,1.225,0.043,1.855   C59.611,54.689,58.153,55.016,56.729,55.274z" fill="#FFFFFF" fill-rule="evenodd"/><path clip-rule="evenodd" d="M54.985,41.282c0.171,0,0.342-0.001,0.513-0.001   c0.344,0.542,0.489,1.209,1.035,1.621l0.03,0.031c0.141,0.168,0.28,0.337,0.42,0.505l-0.02-0.016   c0.212,0.4,0.507,0.718,0.927,0.905l-0.017-0.019c0.446,0.557,0.997,0.97,1.667,1.22c-0.039,0.177-0.076,0.353-0.113,0.529   c-0.102,0.005-0.204,0.01-0.307,0.016c-0.214-0.365-0.575-0.285-0.904-0.296C56.975,44.397,55.414,43.247,54.985,41.282z" fill="#FFFFFF" fill-rule="evenodd"/><path clip-rule="evenodd" d="M58.218,45.777c0.329,0.012,0.69-0.068,0.904,0.296   c-0.913,0.712-2.086,0.81-3.104,1.317c0.023,0.51,0.552,0.661,0.75,1.043c-0.172,0.027-0.346,0.054-0.521,0.082   c-0.569-0.249-1.184-0.69-1.125-1.234c0.074-0.689,0.961-0.461,1.453-0.713C57.117,46.292,57.927,46.563,58.218,45.777z" fill="#FFFFFF" fill-rule="evenodd"/><path clip-rule="evenodd" d="M53.746,57.931c0.362-0.234,0.633-0.038,0.899,0.189   c-0.014,0.189-0.026,0.379-0.04,0.569C54.317,58.438,54.032,58.184,53.746,57.931z" fill="#FFFFFF" fill-rule="evenodd"/><path clip-rule="evenodd" d="M55.812,54.875c-0.207,0.038-0.414,0.075-0.62,0.112   C55.376,54.83,55.578,54.763,55.812,54.875z" fill="#FFFFFF" fill-rule="evenodd"/><path clip-rule="evenodd" d="M53.135,57.71c0.098,0.022,0.195,0.043,0.294,0.064   C53.299,57.898,53.209,57.841,53.135,57.71z" fill="#FFFFFF" fill-rule="evenodd"/><path clip-rule="evenodd" d="M55.253,60.659c-0.101,0.012-0.2,0.023-0.299,0.037   c0.091-0.098,0.182-0.195,0.275-0.292C55.24,60.488,55.248,60.573,55.253,60.659z" fill="#FFFFFF" fill-rule="evenodd"/><path clip-rule="evenodd" d="M59.428,46.058c0.037-0.176,0.074-0.352,0.113-0.529   c0.528,0.37,1.103,0.307,1.686,0.181c0.307-0.001,0.6-0.03,0.702-0.396l0.045-0.001c1.06-0.385,0.991-1.286,0.988-2.157   c0.113-0.125,0.224-0.25,0.336-0.376c0.829,2.331-0.365,3.88-2.723,3.525C60.188,46.247,59.81,46.141,59.428,46.058z" fill="#FFFFFF" fill-rule="evenodd"/><path clip-rule="evenodd" d="M63.297,42.779c-0.112,0.126-0.223,0.251-0.336,0.376   c-0.821-0.713-2.046-0.836-2.69-1.787c-0.515-0.759-1.198-1.578,0.063-2.311c-0.024,2.215,0.815,2.967,3.094,2.821   c0.374-0.025,0.8-0.099,1.065,0.309c-0.075,0.066-0.151,0.131-0.226,0.197C63.937,42.498,63.499,42.347,63.297,42.779z" fill="#FFFFFF" fill-rule="evenodd"/><path clip-rule="evenodd" d="M64.551,49.349c-1.148-0.394-0.51-2-1.745-2.336   c1.703-0.072,3.32,1.086,3.833,2.594c-0.875-0.389-1.32-1.367-2.375-1.746C64.374,48.43,64.462,48.889,64.551,49.349z" fill="#FFFFFF" fill-rule="evenodd"/><path clip-rule="evenodd" d="M64.551,49.349c-0.088-0.46-0.177-0.919-0.288-1.488   c1.055,0.378,1.5,1.357,2.375,1.746c-0.355,0.862-0.692,0.976-1.674,0.567c-0.188-0.258-0.027-0.699-0.44-0.839L64.551,49.349z" fill="#FFFFFF" fill-rule="evenodd"/><path clip-rule="evenodd" d="M57.188,58.944c-0.144-0.019-0.3-0.011-0.431-0.061   c-0.634-0.245-1.465-0.481-1.136-1.362c0.34-0.907,1.11-0.742,1.815-0.328C57.252,57.762,57.046,58.328,57.188,58.944z" fill="#FFFFFF" fill-rule="evenodd"/><path clip-rule="evenodd" d="M68.377,57.719c0.015,0.5,0.026,0.999,0.04,1.499   C67.482,58.742,67.994,58.228,68.377,57.719z" fill="#FFFFFF" fill-rule="evenodd"/><path clip-rule="evenodd" d="M64.525,49.335c0.413,0.14,0.252,0.581,0.44,0.839   C64.369,50.129,64.471,49.719,64.525,49.335z" fill="#FFFFFF" fill-rule="evenodd"/><path clip-rule="evenodd" d="M60.059,54.399c0.119,0.044,0.238,0.088,0.357,0.134   c-0.04,0.05-0.106,0.149-0.113,0.144c-0.106-0.062-0.204-0.137-0.302-0.209C60,54.469,60.059,54.399,60.059,54.399z" fill="#FFFFFF" fill-rule="evenodd"/><path clip-rule="evenodd" d="M65.412,55.926c-0.096-0.047-0.193-0.093-0.29-0.139   C65.219,55.835,65.316,55.88,65.412,55.926z" fill="#FFFFFF" fill-rule="evenodd"/><path clip-rule="evenodd" d="M56.716,63.993c-0.986-0.334-1.225-1.361-1.833-2.042   c-0.594-0.663,0.688-0.696,0.596-1.269c1.588,0.264,1.829,1.678,2.679,2.868c-1.016,0.019-0.948-1.106-1.775-0.998   C56.175,63.093,56.818,63.477,56.716,63.993z" fill="#FFFFFF" fill-rule="evenodd"/><path clip-rule="evenodd" d="M64.493,42.188c-0.265-0.408-0.691-0.334-1.065-0.309   c-2.279,0.146-3.118-0.606-3.094-2.821c0.109-0.431,0.429-0.501,0.807-0.475c0.892-0.092,1.554-0.652,2.222-1.153   c0.707-0.528,1.015-0.32,1.278,0.437c0.292,0.842,0.644,1.67,1.038,2.47C66.521,42.041,66.477,42.132,64.493,42.188z" fill="#FFFFFF" fill-rule="evenodd"/><path clip-rule="evenodd" d="M58.597,36.374c1.497-0.646,2.993-1.292,4.491-1.937   c0.354-0.135,0.709-0.27,1.063-0.405c0.029,0.989-0.753,1.304-1.424,1.697c-1.356,0.797-2.861,1.324-4.121,2.301   c-1.517,1.175-1.667,2.565-0.529,4.155c1.015,1.417,2.637,2.034,3.896,3.127c0,0-0.045,0.001-0.046,0   c-0.282-0.155-0.521-0.125-0.695,0.167c-1.205-0.147-2.055-1.31-3.359-1.17l0.017,0.019c0.123-0.744-0.187-1.045-0.927-0.905   l0.02,0.016c0.016-0.297,0.029-0.594-0.42-0.505c0,0-0.03-0.031-0.029-0.032c0.041-0.089,0.137-0.204,0.109-0.263   c-0.868-1.841-0.993-3.631,0.326-5.335l-0.005,0.026C57.808,37.522,58.256,37.039,58.597,36.374z" fill="#FFFFFF" fill-rule="evenodd"/><path clip-rule="evenodd" d="M64.172,34.077c0.135-0.19,0.269-0.38,0.402-0.57   c0.248,0.066,0.754-0.089,0.636,0.332C65.076,34.32,64.532,34.008,64.172,34.077z" fill="#FFFFFF" fill-rule="evenodd"/><path clip-rule="evenodd" d="M74.845,45.488c-0.824,0.109-1.41,0.651-2.037,1.12   c-0.63-0.174-1.635,0.622-1.825-0.701c0.267-0.549,0.848-0.435,1.292-0.582c1.789-0.593,2.208-1.421,1.645-3.211   c-0.154-0.489-0.53-0.958-0.273-1.658c0.481,0.511,0.912,0.968,1.344,1.424C75.518,43.105,75.839,44.323,74.845,45.488z" fill="#FFFFFF" fill-rule="evenodd"/><path clip-rule="evenodd" d="M45.346,62.117c0.155,0.386,0.673,0.536,0.666,1.026   C45.261,63.24,45.054,62.92,45.346,62.117z" fill="#FFFFFF" fill-rule="evenodd"/><path clip-rule="evenodd" d="M45.385,61.301c-0.009,0.228-0.018,0.454-0.028,0.682   c-0.362-0.079-0.668-0.25-0.517-0.672C44.96,60.982,45.198,61.114,45.385,61.301z" fill="#FFFFFF" fill-rule="evenodd"/><path clip-rule="evenodd" d="M56.97,37.303c-1.319,1.704-1.194,3.495-0.326,5.335   c0.027,0.059-0.069,0.173-0.109,0.263c-0.547-0.411-0.692-1.079-1.036-1.62C55.12,39.182,55.485,38.192,56.97,37.303z" fill="#FFFFFF" fill-rule="evenodd"/><path clip-rule="evenodd" d="M58.597,36.374c-0.341,0.665-0.789,1.148-1.633,0.956   C57.368,36.771,57.961,36.535,58.597,36.374z" fill="#FFFFFF" fill-rule="evenodd"/><path clip-rule="evenodd" d="M57.874,44.309c1.304-0.14,2.154,1.023,3.359,1.17   c-0.001,0.077-0.003,0.154-0.006,0.231c-0.583,0.126-1.157,0.189-1.686-0.181C58.87,45.279,58.32,44.866,57.874,44.309z" fill="#FFFFFF" fill-rule="evenodd"/><path clip-rule="evenodd" d="M56.963,43.423c0.741-0.14,1.05,0.162,0.927,0.905   C57.47,44.141,57.176,43.823,56.963,43.423z" fill="#FFFFFF" fill-rule="evenodd"/><path clip-rule="evenodd" d="M56.563,42.933c0.449-0.088,0.436,0.208,0.42,0.505   C56.843,43.27,56.704,43.102,56.563,42.933z" fill="#FFFFFF" fill-rule="evenodd"/><path clip-rule="evenodd" d="M61.227,45.71c0.003-0.077,0.005-0.154,0.006-0.231   c0.174-0.292,0.413-0.321,0.695-0.167C61.826,45.68,61.534,45.709,61.227,45.71z" fill="#FFFFFF" fill-rule="evenodd"/></g></svg>