<svg xmlns="http://www.w3.org/2000/svg" width="250" height="250" fill="none"><path fill="#F38020" fill-rule="evenodd" d="M183.518 47.534c-13.874-4.65-33.994-7.79-56.909-7.79-22.914 0-43.034 3.14-56.894 7.776-7.016 2.34-11.607 4.807-14.145 6.819-.41.318-.801.661-1.17 1.027.286.984 1.113 2.254 3.209 3.824 2.994 2.254 7.814 4.465 14.616 6.39 13.503 3.796 32.682 5.836 54.384 5.836 21.703 0 40.882-2.04 54.385-5.85 6.802-1.911 11.636-4.137 14.616-6.377 2.096-1.569 2.909-2.853 3.208-3.823a12.51 12.51 0 0 0-1.169-1.027c-2.538-2.012-7.13-4.48-14.131-6.82v.015ZM68.075 79.604a73.84 73.84 0 0 1-13.831-5.264v25.066c0 1.127.556 2.939 3.565 5.379 3.051 2.468 7.928 4.95 14.687 7.133 13.46 4.365 32.568 6.99 54.113 6.99 21.532 0 40.639-2.625 54.1-6.99 6.759-2.183 11.65-4.665 14.687-7.133 3.023-2.44 3.579-4.252 3.579-5.379V74.355a73.844 73.844 0 0 1-13.831 5.264c-15.4 4.337-36.133 6.42-58.535 6.42-22.401 0-43.148-2.083-58.534-6.42v-.014Zm145.872 19.802V54.382c0-16.164-39.098-29.246-87.338-29.246-48.239 0-87.337 13.082-87.337 29.232v141.25c0 16.164 39.098 29.246 87.337 29.246 48.24 0 87.338-13.082 87.338-29.232V99.406Zm-14.972 20.658c-3.992 2.24-8.584 4.137-13.546 5.749-15.443 4.993-36.261 7.704-58.82 7.704-22.558 0-43.376-2.711-58.819-7.704a74.94 74.94 0 0 1-13.546-5.749v24.424c0 1.113.556 2.924 3.565 5.364 3.051 2.468 7.928 4.965 14.687 7.147 13.46 4.366 32.568 6.977 54.113 6.977 21.532 0 40.639-2.611 54.1-6.977 6.759-2.182 11.65-4.679 14.687-7.133 3.023-2.454 3.579-4.265 3.579-5.378v-24.424ZM67.79 170.866a74.928 74.928 0 0 1-13.546-5.749v29.36c.256.271.67.656 1.326 1.184 2.538 2.012 7.13 4.48 14.145 6.819 13.86 4.637 33.98 7.775 56.894 7.775 22.915 0 43.035-3.138 56.895-7.775 7.015-2.339 11.607-4.807 14.145-6.819.472-.36.915-.756 1.326-1.184v-29.36a74.86 74.86 0 0 1-13.546 5.749c-15.443 5.008-36.261 7.718-58.82 7.718-22.558 0-43.376-2.71-58.819-7.704v-.014Zm131.527 23.169s0 .028-.057.085a.45.45 0 0 1 .057-.085Zm-145.416 0 .057.085a.335.335 0 0 1-.056-.085ZM76.703 104.3c4.135 0 7.486-3.282 7.486-7.305a7.406 7.406 0 0 0-7.486-7.318c-4.135 0-7.486 3.28-7.486 7.318 0 4.023 3.35 7.305 7.486 7.305Zm7.486 38.961a7.406 7.406 0 0 1-4.647 6.788 7.397 7.397 0 0 1-2.839.53 7.396 7.396 0 0 1-7.486-7.318c0-4.023 3.35-7.304 7.486-7.304 4.135 0 7.486 3.281 7.486 7.304Zm-7.486 52.371c4.135 0 7.486-3.281 7.486-7.304a7.404 7.404 0 0 0-7.486-7.304c-4.135 0-7.486 3.281-7.486 7.304 0 4.037 3.35 7.304 7.486 7.304Z" clip-rule="evenodd"/></svg>