<svg width="250" height="250" viewBox="0 0 250 250" fill="none" xmlns="http://www.w3.org/2000/svg">
<g clip-path="url(#clip0_2_7347)">
<path d="M139.34 97.2532C134.638 98.3404 129.827 98.8857 125 98.8782C120.173 98.8832 115.362 98.3379 110.66 97.2532C114.505 91.1917 119.353 85.821 125 81.3688C130.643 85.8256 135.49 91.1955 139.34 97.2532ZM182.563 62.3157C176.683 60.7728 170.627 59.9944 164.546 60.0001C150.47 59.9867 136.706 64.1294 125 71.9032C113.296 64.1249 99.5308 59.9818 85.4534 60.0001C79.3315 59.9839 73.2336 60.7623 67.3143 62.3157C64.8346 62.9332 62.3929 63.6928 60.0015 64.5907C59.9583 64.6419 59.9346 64.7067 59.9346 64.7735C59.9346 64.8404 59.9583 64.9051 60.0015 64.9563C61.0214 67.1386 62.1531 69.2675 63.3924 71.3345C63.4403 71.3677 63.4973 71.3855 63.5558 71.3855C63.6142 71.3855 63.6712 71.3677 63.7192 71.3345C66.1396 70.4625 68.6085 69.73 71.1137 69.1407C87.2956 65.4794 104.275 68.2182 118.463 76.7782C112.324 81.9395 107.104 88.0922 103.021 94.9782C102.204 96.2782 101.509 97.6188 100.774 99.0407C100.038 100.463 99.8748 100.869 99.4255 101.844C98.9761 102.819 98.159 104.769 97.6279 106.231C92.7713 119.213 91.8429 133.324 94.9574 146.824C98.0719 160.324 105.093 172.622 115.154 182.2C116.216 183.216 117.319 184.191 118.463 185.166C119.607 186.141 120.261 186.669 121.201 187.359C122.14 188.05 123.611 189.147 124.837 189.959C124.885 189.993 124.942 190.01 125 190.01C125.058 190.01 125.115 189.993 125.163 189.959C126.389 189.106 127.615 188.253 128.799 187.359C129.984 186.466 130.638 185.938 131.537 185.166C132.435 184.394 133.784 183.216 134.846 182.2C141.798 175.579 147.329 167.627 151.107 158.822C154.884 150.018 156.829 140.544 156.825 130.972C156.84 122.527 155.332 114.147 152.372 106.231C151.8 104.728 151.187 103.266 150.534 101.803C149.88 100.341 149.635 99.8938 149.185 99.0001C148.736 98.1063 147.756 96.3188 146.938 94.9376C142.85 88.0556 137.63 81.9038 131.496 76.7376C145.718 68.2225 162.713 65.5418 178.886 69.2626C181.392 69.8496 183.861 70.5821 186.281 71.4563C186.329 71.4895 186.386 71.5073 186.444 71.5073C186.503 71.5073 186.56 71.4895 186.608 71.4563C187.806 69.398 188.923 67.2855 189.958 65.1188C190.001 65.0676 190.025 65.0029 190.025 64.936C190.025 64.8692 190.001 64.8044 189.958 64.7532C187.541 63.8029 185.072 62.9891 182.563 62.3157Z" fill="#151F34"/>
<path d="M149.144 130.972C149.169 147.126 142.953 162.672 131.781 174.4C129.838 168.247 128.846 161.837 128.84 155.388C128.811 139.233 135.027 123.685 146.203 111.959C148.149 118.111 149.141 124.523 149.144 130.972Z" fill="#348540"/>
<path d="M121.282 155.388C121.283 161.837 120.291 168.249 118.34 174.4C110.553 166.218 105.109 156.114 102.573 145.134C100.037 134.154 100.502 122.7 103.919 111.959C115.095 123.685 121.311 139.233 121.282 155.388Z" fill="#7DBC42"/>
</g>
<defs>
<clipPath id="clip0_2_7347">
<rect width="130" height="130" fill="white" transform="translate(60 60)"/>
</clipPath>
</defs>
</svg>
