<svg xmlns="http://www.w3.org/2000/svg" width="349.977" height="352" viewBox="0 0 31.778 32"><defs><path id="a" d="M85.946 0H0v34h171.892V0Z"/></defs><path fill="#151f34" d="M19.284 9.17a15.39 15.39 0 0 1-3.507.4 15.43 15.43 0 0 1-3.512-.4 15.633 15.633 0 0 1 3.512-3.913 15.708 15.708 0 0 1 3.508 3.913zM29.894.574A17.218 17.218 0 0 0 25.453 0a17.401 17.401 0 0 0-9.68 2.925A17.38 17.38 0 0 0 6.093 0C4.558 0 3.066.196 1.65.574a16.22 16.22 0 0 0-1.743.557.07.07 0 0 0-.038.093c.248.538.524 1.059.82 1.563.017.028.05.04.08.029a15.449 15.449 0 0 1 5.32-.932c2.956 0 5.72.826 8.08 2.25a17.517 17.517 0 0 0-3.775 4.48 16.89 16.89 0 0 0-1.325 2.768 17.424 17.424 0 0 0-1.094 6.09c0 4.948 2.07 9.422 5.387 12.606.258.254.526.493.808.727.22.19.44.368.67.54.289.23.59.441.893.643a.068.068 0 0 0 .077 0c.302-.207.6-.418.889-.643.234-.172.454-.35.674-.54.277-.234.555-.478.813-.727 3.312-3.184 5.383-7.663 5.383-12.605a17.386 17.386 0 0 0-1.544-7.176 19.591 19.591 0 0 0-.326-.693 19.917 19.917 0 0 0-.55-.99 17.614 17.614 0 0 0-3.776-4.48 15.594 15.594 0 0 1 8.079-2.25 15.449 15.449 0 0 1 5.32.932.069.069 0 0 0 .08-.03 18.7 18.7 0 0 0 .82-1.561.07.07 0 0 0-.037-.094c-.57-.214-1.15-.406-1.742-.557z" style="fill-rule:evenodd"/><path fill="#348540" d="M21.686 17.474c0 4.134-1.617 7.895-4.255 10.688a15.665 15.665 0 0 1-.716-4.682c0-4.134 1.617-7.902 4.255-10.688.464 1.479.716 3.052.716 4.682" style="fill-rule:evenodd"/><path fill="#7dbc42" d="M14.83 23.48c0 1.627-.25 3.2-.716 4.682a15.515 15.515 0 0 1-4.255-10.688c0-1.63.255-3.203.722-4.682A15.497 15.497 0 0 1 14.83 23.48" style="fill-rule:evenodd"/></svg>