<svg width="2500" height="374" viewBox="0 0 227 34" xmlns="http://www.w3.org/2000/svg" xmlns:xlink="http://www.w3.org/1999/xlink"><defs><path id="a" d="M85.946 0H0v34h171.892V0H85.946z"/></defs><g fill="none" fill-rule="evenodd"><path fill="#151F34" d="M53.275 27.117c-1.572.96-4.237 1.466-6.662 1.466-6.634 0-9.353-3.864-9.353-10.045 0-5.677 3.278-9.913 9.913-9.913 2.212 0 4.583.56 6.049 1.518v5.223l-2.932-.24-.425-2.61c-.054-.267-.16-.4-.427-.48-.586-.187-1.492-.32-2.372-.32-3.384 0-5.542 2.29-5.542 6.822 0 4.716 2.052 7.007 5.356 7.007.88 0 1.972-.133 2.664-.346.32-.08.4-.16.48-.56l.4-2.477h2.851v4.955m11.326-5.862c0-3.144-.96-4.264-2.691-4.264-1.76 0-2.932 1.094-2.932 4.29 0 3.225 1.04 4.504 2.825 4.504 1.732 0 2.798-1.2 2.798-4.53zm-9.833.16c0-4.424 2.319-7.301 7.195-7.301 4.929 0 6.848 2.931 6.848 7.008 0 4.53-2.292 7.46-7.195 7.46-4.876 0-6.848-2.984-6.848-7.167zm27.607 5.863c-1.226.746-3.118 1.305-5.063 1.305-4.823 0-6.981-3.01-6.981-7.062 0-4.982 3.038-7.407 7.301-7.407 2.078 0 3.917.586 4.743 1.12v4.183l-2.851-.134-.32-1.759c-.027-.186-.08-.345-.32-.426-.32-.107-.826-.186-1.359-.186-1.598 0-2.957 1.092-2.957 4.21 0 3.464 1.545 4.45 3.437 4.45 1.333 0 2.531-.427 3.331-.773l1.039 2.479m11.592.985l-3.384-6.794-1.439 1.572v2.398c0 .426.027.48.427.533l1.599.186v2.105h-7.808v-2.105l1.333-.186c.372-.053.425-.134.425-.533v-14.07c0-.293-.08-.48-.346-.56l-1.465-.505.293-2.16h5.542v11.379l4.877-5.143h3.677v2.106l-1.386.266c-.347.053-.426.133-.666.4l-1.892 1.998 3.41 6.368c.187.374.374.427.8.48l1.173.187v2.078h-5.17m6.397 0v-2.158l1.199-.16c.373-.053.426-.133.426-.533v-7.807c0-.294-.08-.48-.347-.56l-1.438-.506.292-2.159h4.69l.32 2.132h.16c.88-1.36 2.052-2.398 3.757-2.398.613 0 1.839.107 2.319.24v4.85l-3.198-.107-.266-1.413c-.053-.24-.134-.292-.347-.292-.693 0-1.52.585-1.918.932v7.061c0 .427.027.507.426.534l2.638.213v2.131h-8.713m22.41-7.008c0-3.144-.96-4.264-2.69-4.264-1.76 0-2.932 1.094-2.932 4.29 0 3.225 1.039 4.504 2.824 4.504 1.732 0 2.798-1.2 2.798-4.53zm-9.832.16c0-4.424 2.318-7.301 7.194-7.301 4.93 0 6.848 2.931 6.848 7.008 0 4.53-2.291 7.46-7.194 7.46-4.876 0-6.848-2.984-6.848-7.167zm23.21 1.119l-1.813.133c-1.572.107-2.131.507-2.131 1.572 0 1.067.64 1.466 1.519 1.466.906 0 1.812-.506 2.425-.959v-2.212zm.719 5.73l-.267-1.44-.133-.026c-1.012.985-2.344 1.785-4.477 1.785-3.357 0-3.89-2.292-3.89-3.944 0-2.665 1.652-3.89 4.983-4.103l3.065-.213v-1.466c0-1.252-.134-2.105-1.786-2.105-1.279 0-1.945.187-1.945 1.786l-3.757-.321c0-3.597 3.277-4.103 5.729-4.103 4.05 0 5.676 1.093 5.676 4.823v6.475c0 .426.026.48.426.533l1.28.213v2.105h-4.904zm17.534-.986c-1.225.746-3.117 1.305-5.062 1.305-4.824 0-6.982-3.01-6.982-7.062 0-4.982 3.038-7.407 7.302-7.407 2.078 0 3.917.586 4.742 1.12v4.183l-2.85-.134-.32-1.759c-.027-.186-.08-.345-.32-.426-.32-.107-.827-.186-1.36-.186-1.598 0-2.957 1.092-2.957 4.21 0 3.464 1.546 4.45 3.438 4.45 1.332 0 2.531-.427 3.33-.773l1.04 2.479"/><mask id="b" fill="#fff"><use xlink:href="#a"/></mask><path fill="#151F34" d="M166.11 28.263v-8.687c0-.8-.08-2.265-1.412-2.265-.986 0-2.106.507-2.772.987v7.141c0 .426.027.48.426.533l1.28.186v2.105h-7.355v-2.105l1.2-.186c.372-.053.425-.134.425-.533v-14.07c0-.293-.08-.48-.346-.56l-1.466-.505.294-2.16h5.488v7.542l.134.026c1.199-.985 2.585-1.598 4.263-1.598 2.825 0 3.864 1.545 3.864 4.316v7.009c0 .426.027.48.427.533l1.332.186v2.105h-5.783" mask="url(#b)"/><path fill="#348540" d="M179.475 14.408h3.053v11.037h5.655v2.818h-8.708V14.408M196.226 18.44l-1.683 4.304h3.386l-1.703-4.305zm-1.174-4.032h2.525l6.027 13.855h-3.444l-1.194-2.936h-5.382l-1.154 2.936h-3.366l5.988-13.855zM207.91 25.68h2.74c.235 0 .473-.026.714-.079a1.87 1.87 0 0 0 .656-.274c.196-.13.356-.299.48-.508a1.47 1.47 0 0 0 .186-.764c0-.326-.082-.59-.245-.791a1.556 1.556 0 0 0-.616-.46 3.211 3.211 0 0 0-.803-.217 6.015 6.015 0 0 0-.802-.058h-2.31v3.151zm0-5.734h2.212a3.1 3.1 0 0 0 .695-.078c.227-.052.434-.137.616-.254.182-.119.33-.274.44-.47.111-.196.167-.43.167-.705 0-.287-.062-.525-.186-.714a1.299 1.299 0 0 0-.48-.44 2.3 2.3 0 0 0-.665-.226 3.97 3.97 0 0 0-.724-.068h-2.075v2.955zm-3.053-5.538h5.167c.6 0 1.204.042 1.81.127a4.964 4.964 0 0 1 1.635.509c.482.254.873.61 1.173 1.066.3.457.45 1.064.45 1.82 0 .783-.218 1.432-.655 1.948-.437.516-1.014.884-1.731 1.105v.04c.456.065.87.192 1.242.381.372.19.691.43.959.724.267.294.473.636.616 1.027.144.392.216.81.216 1.253 0 .731-.157 1.34-.47 1.83-.314.49-.718.883-1.214 1.184-.495.3-1.053.515-1.673.645a8.915 8.915 0 0 1-1.85.196h-5.675V14.408zm19.63 3.385a2.18 2.18 0 0 0-1.008-.695 3.625 3.625 0 0 0-1.204-.224c-.222 0-.45.026-.685.078a2.616 2.616 0 0 0-.665.244 1.45 1.45 0 0 0-.509.44c-.13.183-.196.406-.196.666 0 .418.157.737.47.96.313.222.707.41 1.184.566.476.157.988.313 1.536.47.548.157 1.06.378 1.537.665.476.288.87.673 1.184 1.155.313.483.47 1.13.47 1.937 0 .77-.145 1.442-.431 2.017a4.099 4.099 0 0 1-1.165 1.429 4.956 4.956 0 0 1-1.703.84 7.467 7.467 0 0 1-2.045.275 7.41 7.41 0 0 1-2.504-.411c-.77-.274-1.488-.717-2.154-1.332l2.173-2.387c.313.418.708.74 1.184.97.476.227.969.341 1.477.341.248 0 .5-.029.754-.088s.483-.146.685-.264c.202-.118.365-.267.49-.45.123-.183.185-.398.185-.646 0-.417-.16-.747-.479-.988-.32-.242-.721-.447-1.204-.617a39.203 39.203 0 0 0-1.565-.509 6.99 6.99 0 0 1-1.566-.684 3.763 3.763 0 0 1-1.203-1.135c-.32-.47-.48-1.09-.48-1.86 0-.743.146-1.395.44-1.956a4.253 4.253 0 0 1 1.174-1.41 5.117 5.117 0 0 1 1.693-.851 6.936 6.936 0 0 1 1.977-.283c.783 0 1.54.11 2.27.332.73.222 1.39.594 1.977 1.115l-2.095 2.29"/><path fill="#151F34" d="M20.42 10.17a15.39 15.39 0 0 1-3.507.4c-1.205 0-2.382-.136-3.512-.4a15.633 15.633 0 0 1 3.512-3.913 15.708 15.708 0 0 1 3.508 3.913zm10.61-8.596A17.218 17.218 0 0 0 26.589 1a17.401 17.401 0 0 0-9.68 2.925A17.38 17.38 0 0 0 7.229 1c-1.535 0-3.027.196-4.442.574a16.22 16.22 0 0 0-1.743.557.07.07 0 0 0-.038.093c.248.538.524 1.059.821 1.563.016.028.05.04.08.029a15.449 15.449 0 0 1 5.32-.932c2.955 0 5.719.826 8.08 2.25a17.517 17.517 0 0 0-3.776 4.48 16.89 16.89 0 0 0-1.325 2.768 17.424 17.424 0 0 0-1.094 6.09c0 4.948 2.07 9.422 5.387 12.606.258.254.526.493.808.727.22.19.44.368.67.54.289.23.59.441.893.643a.068.068 0 0 0 .077 0c.302-.207.6-.418.889-.643.234-.172.454-.35.674-.54.277-.234.555-.478.813-.727 3.312-3.184 5.383-7.663 5.383-12.605a17.386 17.386 0 0 0-1.544-7.176 19.591 19.591 0 0 0-.326-.693 19.917 19.917 0 0 0-.55-.99 17.614 17.614 0 0 0-3.776-4.48 15.594 15.594 0 0 1 8.079-2.25 15.449 15.449 0 0 1 5.32.932c.031.01.065-.002.081-.03a18.7 18.7 0 0 0 .82-1.561.07.07 0 0 0-.038-.094c-.57-.214-1.15-.406-1.742-.557z"/><path fill="#348540" d="M22.822 18.474c0 4.134-1.617 7.895-4.255 10.688a15.665 15.665 0 0 1-.716-4.682c0-4.134 1.617-7.902 4.255-10.688.464 1.479.716 3.052.716 4.682"/><path fill="#7DBC42" d="M15.966 24.48c0 1.627-.25 3.2-.716 4.682a15.515 15.515 0 0 1-4.255-10.688c0-1.63.255-3.203.722-4.682a15.497 15.497 0 0 1 4.249 10.688"/></g></svg>