<?xml version="1.0" encoding="UTF-8" standalone="no"?>
<svg
   width="349.97729"
   height="351.99976"
   viewBox="0 0 31.777938 31.999978"
   version="1.1"
   id="svg321"
   sodipodi:docname="cockroachdb.svg"
   inkscape:version="1.2.1 (9c6d41e410, 2022-07-14, custom)"
   xmlns:inkscape="http://www.inkscape.org/namespaces/inkscape"
   xmlns:sodipodi="http://sodipodi.sourceforge.net/DTD/sodipodi-0.dtd"
   xmlns:xlink="http://www.w3.org/1999/xlink"
   xmlns="http://www.w3.org/2000/svg"
   xmlns:svg="http://www.w3.org/2000/svg">
  <sodipodi:namedview
     id="namedview323"
     pagecolor="#ffffff"
     bordercolor="#666666"
     borderopacity="1.0"
     inkscape:showpageshadow="2"
     inkscape:pageopacity="0.0"
     inkscape:pagecheckerboard="0"
     inkscape:deskcolor="#d1d1d1"
     showgrid="false"
     inkscape:zoom="0.5428"
     inkscape:cx="1237.1039"
     inkscape:cy="176.86072"
     inkscape:window-width="3840"
     inkscape:window-height="2083"
     inkscape:window-x="0"
     inkscape:window-y="40"
     inkscape:window-maximized="1"
     inkscape:current-layer="svg321" />
  <defs
     id="defs302">
    <path
       id="a"
       d="M 85.946,0 H 0 V 34 H 171.892 V 0 Z" />
    <mask
       id="b"
       fill="#ffffff">
      <use
         xlink:href="#a"
         id="use306" />
    </mask>
  </defs>
  <path
     fill="#151f34"
     d="m 19.283506,9.1700301 a 15.39,15.39 0 0 1 -3.507,0.4 c -1.205,0 -2.382,-0.136 -3.512,-0.4 a 15.633,15.633 0 0 1 3.512,-3.913 15.708,15.708 0 0 1 3.508,3.913 z m 10.61,-8.59600005 A 17.218,17.218 0 0 0 25.452506,3.0051782e-5 17.401,17.401 0 0 0 15.772506,2.9250301 17.38,17.38 0 0 0 6.0925064,3.0051782e-5 c -1.535,0 -3.027,0.195999998218 -4.442,0.573999998218 a 16.22,16.22 0 0 0 -1.74299996,0.55700005 0.07,0.07 0 0 0 -0.038,0.093 c 0.248,0.538 0.524,1.059 0.821,1.563 0.016,0.028 0.05,0.04 0.08,0.029 a 15.449,15.449 0 0 1 5.31999996,-0.932 c 2.955,0 5.7189996,0.826 8.0799996,2.25 a 17.517,17.517 0 0 0 -3.776,4.48 16.89,16.89 0 0 0 -1.3249996,2.7679999 17.424,17.424 0 0 0 -1.094,6.09 c 0,4.948 2.0699996,9.422 5.3869996,12.606 0.258,0.254 0.526,0.493 0.808,0.727 0.22,0.19 0.44,0.368 0.67,0.54 0.289,0.23 0.59,0.441 0.893,0.643 a 0.068,0.068 0 0 0 0.077,0 c 0.302,-0.207 0.6,-0.418 0.889,-0.643 0.234,-0.172 0.454,-0.35 0.674,-0.54 0.277,-0.234 0.555,-0.478 0.813,-0.727 3.312,-3.184 5.383,-7.663 5.383,-12.605 a 17.386,17.386 0 0 0 -1.544,-7.176 19.591,19.591 0 0 0 -0.326,-0.6929999 19.917,19.917 0 0 0 -0.55,-0.99 17.614,17.614 0 0 0 -3.776,-4.48 15.594,15.594 0 0 1 8.079,-2.25 15.449,15.449 0 0 1 5.32,0.932 c 0.031,0.01 0.065,-0.002 0.081,-0.03 a 18.7,18.7 0 0 0 0.82,-1.561 0.07,0.07 0 0 0 -0.038,-0.094 c -0.57,-0.21400005 -1.15,-0.40600005 -1.742,-0.55700005 z"
     id="path313"
     style="fill-rule:evenodd" />
  <path
     fill="#348540"
     d="m 21.685506,17.47403 c 0,4.134 -1.617,7.895 -4.255,10.688 a 15.665,15.665 0 0 1 -0.716,-4.682 c 0,-4.134 1.617,-7.902 4.255,-10.688 0.464,1.479 0.716,3.052 0.716,4.682"
     id="path315"
     style="fill-rule:evenodd" />
  <path
     fill="#7dbc42"
     d="m 14.829506,23.48003 c 0,1.627 -0.25,3.2 -0.716,4.682 a 15.515,15.515 0 0 1 -4.2549996,-10.688 c 0,-1.63 0.2549996,-3.203 0.7219996,-4.682 a 15.497,15.497 0 0 1 4.249,10.688"
     id="path317"
     style="fill-rule:evenodd" />
</svg>
