<svg xmlns="http://www.w3.org/2000/svg" xml:space="preserve" id="svg362" width="284.904" height="320.175" x="0" y="0" version="1.1"><style id="style342" type="text/css">.st0{fill:#fff}.st5{fill:#003037}</style><g id="Logo_RGB_Claim" transform="translate(-157.5 -157.925)"><g id="g358"><g id="g356"><g id="g346"><path id="path344" d="M161.5 403.7c-2.4 1.1-4 3.5-4 6.1 0 2.6 1.5 5 3.9 6.1l132.9 60.9c1.8.8 3.7 1.2 5.6 1.3V342c-2 0-4 .4-5.8 1.2z" style="fill:#ff761c"/></g><g id="g352"><path id="path348" d="M300 342v136c2.1 0 4.1-.4 6-1.3L438.5 416c2.4-1.1 4-3.5 3.9-6.1 0-2.6-1.5-5-4-6.1l-132.8-60.6c-1.7-.8-3.6-1.2-5.6-1.2" style="fill:#ff8c1e"/><path id="path350" d="M157.5 225.7c0 2.7 1.5 5 3.9 6.1l132.9 60.9c1.8.8 3.7 1.2 5.6 1.3 1.7 0 3.4-.3 5-.8 1.3-.6 1-.5 3.7-1.7 13.7-6.2 4.6-2.1 129.8-59.5 2.4-1.1 4-3.5 3.9-6.1 0-2.6-1.5-5-4-6.1l-132.8-60.6c-3.7-1.7-7.9-1.7-11.6 0l-132.7 60.4c-2.1 1.1-3.7 3.5-3.7 6.1" style="fill:#00c1ad"/></g><path id="path354" d="M300 301.6V342c-2 0-4 .4-5.8 1.2l-132.7 60.4c-2.4 1.1-4 3.5-4 6.1v-184c0 2.6 1.5 5 3.9 6.1l132.9 60.9c1.8.8 3.7 1.2 5.6 1.3 1.7 0 3.4-.3 5-.8l-.2.1c-4.1 1.8-4.7 3.7-4.7 8.3" style="fill:#d1d1d1"/></g></g></g></svg>