<?xml version="1.0" encoding="utf-8"?>
<!-- Generator: Adobe Illustrator 19.0.0, SVG Export Plug-In . SVG Version: 6.00 Build 0)  -->
<svg version="1.1" id="layer" xmlns="http://www.w3.org/2000/svg" xmlns:xlink="http://www.w3.org/1999/xlink" x="0px" y="0px"
	 viewBox="-153 -46 652 652" style="enable-background:new -153 -46 652 652;" xml:space="preserve">
<style type="text/css">
	.st0{fill:#2A3F49;}
	.st1{fill:#F27A23;}
	.st2{fill:#F6A82F;}
	.st3{fill:#22AD93;}
	.st4{fill:#D0D1D2;}
</style>
<g>
	<path class="st0" d="M-17.2,276.1c3.3,0,5.2-0.2,9.4-1.1l1,7c-3.2,0.9-6.8,1.3-10.4,1.3c-16.1,0-20.7-10.1-20.7-21.8
		c0.1-11.5,7-21.1,20.6-21.1c3.6,0,6.7,0.4,10.4,1.4l-1.4,7c-4-0.9-6.3-1-8.8-1c-8.5,0.1-12.7,6.5-12.9,13.8
		C-29.9,268.9-27.2,276.1-17.2,276.1L-17.2,276.1z"/>
	<path class="st0" d="M15.7,276.2c8.4-0.1,11.2-6.9,11.2-14.3c-0.1-6.8-2.9-14.4-11.2-14.4c-8.1,0.1-11.2,7.6-11.2,14.4
		C4.4,269.6,7.8,276.2,15.7,276.2z M15.7,240.5c13.2,0.1,19.1,9.9,19.1,21.4c0,11.2-5.1,21.3-19.2,21.4
		c-13.8-0.1-19.1-10.1-19.1-21.4C-3.5,250.4,2.5,240.6,15.7,240.5L15.7,240.5z"/>
	<path class="st0" d="M89.5,282.5v-26.4c0-6.7-2.5-8.5-6.7-8.5c-2.9,0-6.1,1.6-9,4c0.1,0.9,0.2,2.6,0.2,3.2v27.8h-8.2v-26.7
		c0-6.7-2-8.3-6.2-8.3c-2.6,0-6.3,1.8-9.5,4.1v30.9H42v-41.3h8.1v3.5c2.5-2,6.5-4.3,10.8-4.3c5.7-0.1,9,1.9,10.9,5
		c3.4-3.2,8.4-4.9,12.2-5c13.4-0.2,13.7,10.6,13.7,15.1v27H89.5L89.5,282.5z"/>
	<path class="st0" d="M154.1,282.5v-26.4c0-6.7-2.5-8.5-6.7-8.5c-2.9,0-6.1,1.6-9,4c0.1,0.9,0.2,2.6,0.2,3.2v27.8h-8.2v-26.7
		c0-6.7-2-8.3-6.2-8.3c-2.6,0-6.3,1.8-9.5,4.1v30.9h-8.1v-41.3h8.1v3.5c2.5-2,6.5-4.3,10.8-4.3c5.7-0.1,9,1.9,10.9,5
		c3.4-3.2,8.4-4.9,12.2-5c13.4-0.2,13.7,10.6,13.7,15.1v27H154.1L154.1,282.5z"/>
	<path class="st0" d="M176.9,257.1H195c-0.3-8.4-4.5-10.1-8.4-10.1C180.5,246.9,177.6,251.1,176.9,257.1z M200.3,275l1.2,6.7
		c-3.7,1.2-8.7,1.8-12.7,1.8c-16.3,0-20.3-10.9-20.3-21.9c0-10.9,4.8-21.1,18.5-21.1c8.4,0,15.5,5.2,15.6,18.5l-0.1,4.3h-26
		c0.1,8.1,4.5,13,12.6,13C192.4,276.4,195.8,276,200.3,275z"/>
	<path class="st0" d="M232.6,248.8c-2.1-0.5-4-0.6-5.3-0.6c-5.1-0.1-7.7,2.4-9.6,4.4v30h-8.1v-41.3h8.1v3.7c2.1-2.2,5.4-4.1,9.5-4.2
		c1.7-0.1,4.5,0.2,6.8,1.1C234,241.8,232.6,248.8,232.6,248.8z"/>
	<path class="st0" d="M256.4,276.1c3.3,0,5.2-0.2,9.4-1.1l1,7c-3.2,0.9-6.8,1.3-10.4,1.3c-16.1,0-20.7-10.1-20.7-21.8
		c0.1-11.5,7.1-21.1,20.6-21.1c3.6,0,6.7,0.4,10.4,1.4l-1.4,7c-4-0.9-6.3-1-8.8-1c-8.5,0.1-12.7,6.5-12.9,13.8
		C243.7,268.9,246.4,276.1,256.4,276.1z"/>
	<path class="st0" d="M278.5,257.1h18.1c-0.3-8.4-4.5-10.1-8.4-10.1C282.1,246.9,279.2,251.1,278.5,257.1z M301.9,275l1.2,6.7
		c-3.7,1.2-8.7,1.8-12.7,1.8c-16.3,0-20.3-10.9-20.3-21.9c0-10.9,4.8-21.1,18.5-21.1c8.4,0,15.5,5.2,15.6,18.5l-0.1,4.3h-26
		c0.1,8.1,4.5,13,12.6,13C294,276.4,297.4,276,301.9,275z"/>
	<path class="st0" d="M331.8,247.9h-11.2v20c0,4.2,0.5,7.1,4.8,7.7c2.4,0.2,4.8,0,7.1-0.3l0.5,7c-2.4,0.4-5.9,0.5-7.3,0.5
		c-9.6-0.4-13.2-5.3-13.2-13v-22h-5.9v-5.7l5.9-0.7V232h8.1v9.2h11.2V247.9z"/>
	<path class="st0" d="M355.5,276.2c8.4-0.1,11.2-6.9,11.2-14.3c-0.1-6.8-2.9-14.4-11.2-14.4c-8.1,0.1-11.2,7.6-11.2,14.4
		C344.2,269.6,347.6,276.2,355.5,276.2L355.5,276.2z M355.5,240.5c13.2,0.1,19.1,9.9,19.1,21.4c0,11.2-5.1,21.3-19.2,21.4
		c-13.8-0.1-19.1-10.1-19.1-21.4C336.4,250.4,342.3,240.6,355.5,240.5L355.5,240.5z"/>
	<path class="st0" d="M399.4,276.2c8.4-0.1,11.2-6.9,11.2-14.3c-0.1-6.8-2.9-14.4-11.2-14.4c-8.1,0.1-11.2,7.6-11.2,14.4
		C388.1,269.6,391.5,276.2,399.4,276.2L399.4,276.2z M399.4,240.5c13.2,0.1,19.1,9.9,19.1,21.4c0,11.2-5.1,21.3-19.2,21.4
		c-13.8-0.1-19.1-10.1-19.1-21.4C380.3,250.4,386.2,240.6,399.4,240.5L399.4,240.5z"/>
	<rect x="425" y="226.4" class="st0" width="7.9" height="56.1"/>
	<path class="st0" d="M441.1,274.5c4.6,1.2,9,1.8,11.7,1.8c3.2,0,6.5-0.7,6.8-4.6c0.2-4.1-4-5.4-8.9-7.4c-5.5-2.3-11.5-5.4-11.3-13
		c0.1-3.8,2.4-11.3,14.6-10.9c3.7,0.1,8.1,0.7,11.7,1.6l-1.4,6.8c-4.3-1-7.6-1.5-10.7-1.5c-3.5,0-6.2,1.1-6.4,4.4
		c-0.1,2.8,2.1,4.3,7.6,6.5c5.5,2.3,13.3,5.2,12.9,13.9c-0.2,5.5-3.8,11.5-14.9,11.4c-3.5-0.1-9.2-0.5-13.4-2L441.1,274.5z"/>
	<path class="st0" d="M134.7,309.4c0,2.6-0.9,4.6-2.6,6c-1.7,1.4-4.3,2.1-7.6,2.1h-2.1l-1.9,9.1h-2.7l4.9-23h5.2
		c2.2,0,4,0.5,5.1,1.5C134.1,306,134.7,307.5,134.7,309.4L134.7,309.4z M122.9,315.2h2.1c2.3,0,4-0.5,5.2-1.4c1.2-1,1.8-2.4,1.8-4.2
		c0-1.3-0.4-2.3-1.1-2.8c-0.7-0.6-1.9-0.9-3.4-0.9h-2.6L122.9,315.2L122.9,315.2z"/>
	<path class="st0" d="M138.2,326.6h-2.6l5.2-24.5h2.6L138.2,326.6z"/>
	<path class="st0" d="M153,309c1,0,1.8,0.3,2.6,0.8c0.8,0.5,1.3,1.3,1.8,2.2h0.2l1.1-2.7h2l-3.7,17.3h-2.1l0.4-3.3h-0.1
		c-1.9,2.4-3.9,3.6-5.9,3.6c-1.5,0-2.6-0.5-3.4-1.6c-0.8-1-1.2-2.5-1.2-4.3c0-2.2,0.4-4.2,1.1-6.1c0.7-1.9,1.8-3.3,3.1-4.4
		C150,309.5,151.4,309,153,309z M150,324.7c1,0,2-0.5,3-1.5c1-1,1.8-2.2,2.5-3.8c0.6-1.6,0.9-3.1,0.9-4.7c0-1.1-0.3-1.9-0.9-2.6
		c-0.6-0.6-1.4-1-2.3-1c-1.1,0-2.1,0.5-3.1,1.4c-0.9,0.9-1.7,2.1-2.2,3.7c-0.5,1.5-0.8,3.2-0.8,4.9c0,1.2,0.2,2.1,0.7,2.7
		C148.4,324.4,149.1,324.7,150,324.7L150,324.7z"/>
	<path class="st0" d="M167.4,324.7c0.6,0,1.3-0.1,2.3-0.4v2c-0.4,0.1-0.8,0.3-1.3,0.4c-0.5,0.1-0.9,0.2-1.3,0.2
		c-1.3,0-2.3-0.3-3-0.9c-0.7-0.6-1-1.6-1-2.8c0-0.7,0.1-1.5,0.3-2.4l2-9.5h-2.7l0.2-1.2l2.9-1.2l2-3.6h1.5l-0.9,4h4.3l-0.4,2h-4.3
		l-2,9.5c-0.2,0.9-0.3,1.6-0.3,2.1c0,0.6,0.2,1,0.5,1.4C166.4,324.6,166.8,324.7,167.4,324.7z"/>
	<path class="st0" d="M170,334.3c-0.7,0-1.4-0.1-2-0.3v-2.2c0.7,0.2,1.3,0.3,1.8,0.3c0.8,0,1.4-0.3,1.8-1c0.4-0.7,0.8-1.6,1-2.8
		l3.6-17.1h-3l0.2-1.1l3.2-1l0.4-1.6c0.5-2.1,1.2-3.6,2-4.5c0.9-0.9,2.1-1.3,3.8-1.3c0.4,0,0.9,0.1,1.5,0.2c0.6,0.1,1.1,0.3,1.4,0.4
		l-0.7,2c-0.8-0.3-1.5-0.5-2.2-0.5c-0.9,0-1.6,0.3-2.1,0.8s-0.9,1.4-1.2,2.8l-0.4,1.7h3.8l-0.4,2h-3.7l-3.7,17.3
		c-0.4,2-1,3.4-1.9,4.4C172.5,333.9,171.3,334.3,170,334.3L170,334.3z"/>
	<path class="st0" d="M191.8,309.1c2,0,3.6,0.6,4.7,1.8c1.2,1.2,1.7,2.8,1.7,4.9c0,2-0.4,3.8-1.1,5.6c-0.8,1.8-1.8,3.1-3.1,4.1
		c-1.3,1-2.8,1.4-4.4,1.4c-2,0-3.6-0.6-4.7-1.8c-1.1-1.2-1.7-2.8-1.7-4.9c0-2,0.4-3.9,1.2-5.6c0.8-1.8,1.8-3.1,3.1-4.1
		C188.8,309.5,190.3,309.1,191.8,309.1L191.8,309.1z M195.6,315.3c0-1.2-0.3-2.2-1-2.9c-0.7-0.8-1.5-1.1-2.7-1.1
		c-1.1,0-2.2,0.4-3.1,1.2c-0.9,0.8-1.6,1.9-2.1,3.2c-0.5,1.4-0.7,2.9-0.7,4.6c0,1.4,0.3,2.4,1,3.2c0.7,0.8,1.6,1.1,2.9,1.1
		c1.1,0,2.1-0.4,2.9-1.2c0.9-0.8,1.6-1.9,2-3.3C195.3,318.8,195.6,317.2,195.6,315.3L195.6,315.3z"/>
	<path class="st0" d="M211.7,309c0.7,0,1.4,0.1,1.9,0.2l-0.6,2.4c-0.6-0.1-1.1-0.2-1.7-0.2c-1,0-1.9,0.3-2.7,0.9
		c-0.8,0.6-1.6,1.5-2.2,2.6c-0.6,1.1-1.1,2.4-1.4,3.7l-1.7,7.9h-2.6l3.7-17.3h2.2l-0.3,3.2h0.2c0.8-1,1.4-1.7,1.9-2.2
		c0.5-0.4,1-0.8,1.6-1C210.4,309.1,211,309,211.7,309L211.7,309z"/>
	<path class="st0" d="M223.6,326.6l2.3-10.9c0.2-1,0.3-1.7,0.3-2.1c0-0.7-0.2-1.3-0.5-1.7c-0.3-0.4-0.9-0.6-1.7-0.6
		c-0.9,0-1.7,0.3-2.6,0.9c-0.8,0.6-1.6,1.5-2.2,2.7c-0.6,1.2-1.1,2.6-1.5,4.2l-1.6,7.5h-2.6l3.7-17.3h2.2l-0.3,3.2h0.2
		c0.9-1.3,1.8-2.1,2.7-2.7c0.9-0.5,1.8-0.8,2.8-0.8c1.2,0,2.1,0.3,2.7,1c0.6,0.7,1,1.6,1.1,2.9h0.1c0.9-1.3,1.9-2.3,2.9-2.9
		c1-0.6,2-1,3.1-1c1.3,0,2.4,0.4,3.1,1.1c0.7,0.7,1.1,1.8,1.1,3.1c0,0.7-0.1,1.6-0.3,2.8l-2.3,10.6h-2.7l2.3-10.9
		c0.2-1.1,0.3-1.9,0.3-2.3c0-0.7-0.2-1.2-0.5-1.6c-0.4-0.4-0.9-0.6-1.7-0.6c-0.9,0-1.7,0.3-2.5,0.9c-0.8,0.6-1.6,1.5-2.2,2.6
		c-0.6,1.1-1.1,2.4-1.4,4l-1.7,7.9H223.6L223.6,326.6z"/>
	<path class="st0" d="M269.6,312.7c0,2.7-0.6,5.2-1.7,7.3c-1.1,2.1-2.7,3.7-4.7,4.9c-2,1.1-4.5,1.7-7.2,1.7h-5.5l4.9-23h5.4
		c2.9,0,5.1,0.8,6.6,2.4S269.6,309.7,269.6,312.7L269.6,312.7z M256.2,324.2c2.1,0,4-0.5,5.6-1.4c1.6-1,2.8-2.3,3.7-4.1
		c0.9-1.8,1.3-3.8,1.3-6s-0.5-4-1.6-5.1c-1.1-1.2-2.7-1.7-4.8-1.7h-2.8l-3.9,18.4H256.2L256.2,324.2z"/>
	<path class="st0" d="M280.8,309.1c2,0,3.6,0.6,4.7,1.8c1.2,1.2,1.7,2.8,1.7,4.9c0,2-0.4,3.8-1.1,5.6c-0.8,1.8-1.8,3.1-3.1,4.1
		c-1.3,1-2.8,1.4-4.4,1.4c-2,0-3.6-0.6-4.7-1.8c-1.1-1.2-1.7-2.8-1.7-4.9c0-2,0.4-3.9,1.2-5.6c0.8-1.8,1.8-3.1,3.1-4.1
		C277.8,309.5,279.2,309.1,280.8,309.1L280.8,309.1z M284.5,315.3c0-1.2-0.3-2.2-1-2.9c-0.7-0.8-1.5-1.1-2.7-1.1
		c-1.1,0-2.2,0.4-3.1,1.2c-0.9,0.8-1.6,1.9-2.1,3.2c-0.5,1.4-0.7,2.9-0.7,4.6c0,1.4,0.3,2.4,1,3.2c0.7,0.8,1.6,1.1,2.9,1.1
		c1.1,0,2.1-0.4,2.9-1.2c0.9-0.8,1.6-1.9,2-3.3C284.3,318.8,284.5,317.2,284.5,315.3L284.5,315.3z"/>
	<path class="st0" d="M296.7,326.9c-2,0-3.6-0.6-4.7-1.7c-1.1-1.1-1.7-2.7-1.7-4.8c0-2.1,0.4-4,1.2-5.8c0.8-1.8,1.9-3.2,3.2-4.2
		c1.4-1,2.9-1.5,4.6-1.5c1.4,0,2.8,0.3,4.2,0.8l-0.7,2.2c-1.3-0.5-2.4-0.8-3.5-0.8c-1.2,0-2.3,0.4-3.2,1.2c-1,0.8-1.7,1.9-2.3,3.4
		c-0.6,1.4-0.8,3-0.8,4.7c0,1.3,0.3,2.4,1,3.1c0.7,0.7,1.7,1.1,2.9,1.1c0.8,0,1.5-0.1,2.1-0.3s1.3-0.5,2-0.7v2.3
		C299.8,326.5,298.3,326.9,296.7,326.9L296.7,326.9z"/>
	<path class="st0" d="M310.4,309.3l-2.4,11c-0.2,0.9-0.3,1.7-0.3,2.2c0,1.5,0.8,2.3,2.3,2.3c0.9,0,1.8-0.3,2.7-0.9
		c0.9-0.6,1.7-1.5,2.4-2.7c0.7-1.2,1.2-2.6,1.6-4.3l1.6-7.5h2.6l-3.6,17.3h-2.2l0.3-3.2h-0.2c-1,1.3-2,2.2-2.9,2.7
		c-0.9,0.5-1.9,0.8-2.9,0.8c-1.3,0-2.4-0.4-3.2-1.1c-0.8-0.7-1.2-1.8-1.2-3.1c0-0.7,0.1-1.6,0.3-2.7l2.3-10.7H310.4L310.4,309.3z"/>
	<path class="st0" d="M332.9,326.6l2.3-10.9c0.2-1,0.3-1.7,0.3-2.1c0-0.7-0.2-1.3-0.5-1.7s-0.9-0.6-1.7-0.6c-0.9,0-1.7,0.3-2.6,0.9
		c-0.8,0.6-1.6,1.5-2.2,2.7c-0.6,1.2-1.1,2.6-1.5,4.2l-1.6,7.5h-2.6l3.7-17.3h2.2l-0.3,3.2h0.2c0.9-1.3,1.8-2.1,2.7-2.7
		c0.9-0.5,1.8-0.8,2.8-0.8c1.2,0,2.1,0.3,2.7,1c0.6,0.7,1,1.6,1.1,2.9h0.1c0.9-1.3,1.9-2.3,2.9-2.9c1-0.6,2-1,3.1-1
		c1.3,0,2.4,0.4,3.1,1.1c0.7,0.7,1.1,1.8,1.1,3.1c0,0.7-0.1,1.6-0.3,2.8l-2.3,10.6H343l2.3-10.9c0.2-1.1,0.3-1.9,0.3-2.3
		c0-0.7-0.2-1.2-0.5-1.6c-0.4-0.4-0.9-0.6-1.7-0.6c-0.9,0-1.7,0.3-2.5,0.9c-0.8,0.6-1.6,1.5-2.2,2.6c-0.6,1.1-1.1,2.4-1.4,4
		l-1.7,7.9H332.9L332.9,326.6z"/>
	<path class="st0" d="M357.8,326.9c-1.9,0-3.5-0.6-4.6-1.7c-1.1-1.1-1.7-2.7-1.7-4.8c0-2,0.4-3.9,1.2-5.7c0.8-1.8,1.8-3.2,3.1-4.2
		c1.3-1,2.7-1.5,4.3-1.5c1.6,0,2.8,0.3,3.6,1c0.8,0.7,1.2,1.7,1.2,2.9c0,1.9-0.9,3.4-2.6,4.5c-1.7,1.1-4.2,1.6-7.5,1.6h-0.5
		l-0.1,1.3c0,1.4,0.3,2.5,1,3.2c0.6,0.8,1.6,1.2,3,1.2c0.7,0,1.3-0.1,2-0.3c0.7-0.2,1.6-0.5,2.6-1v2.3c-1,0.5-1.9,0.8-2.6,1
		C359.6,326.8,358.8,326.9,357.8,326.9L357.8,326.9z M360,311.2c-1.1,0-2.1,0.5-3.1,1.5c-1,1-1.7,2.4-2.2,4.1h0.2
		c2.4,0,4.2-0.3,5.5-0.9s1.9-1.5,1.9-2.7c0-0.6-0.2-1-0.6-1.4C361.5,311.4,360.9,311.2,360,311.2L360,311.2z"/>
	<path class="st0" d="M377.5,326.6l2.3-10.9c0.2-1.1,0.3-1.8,0.3-2.3c0-0.7-0.2-1.2-0.6-1.6c-0.4-0.4-1-0.6-1.8-0.6
		c-0.9,0-1.8,0.3-2.7,0.9c-0.9,0.6-1.7,1.5-2.3,2.7c-0.7,1.2-1.2,2.6-1.5,4.2l-1.6,7.5h-2.6l3.7-17.3h2.2l-0.3,3.2h0.2
		c1-1.3,2-2.2,2.9-2.7c0.9-0.5,1.9-0.8,2.9-0.8c1.3,0,2.4,0.4,3.2,1.1c0.8,0.7,1.2,1.8,1.2,3.1c0,0.8-0.1,1.8-0.4,2.8l-2.3,10.6
		H377.5L377.5,326.6z"/>
	<path class="st0" d="M390.9,324.7c0.6,0,1.3-0.1,2.3-0.4v2c-0.4,0.1-0.8,0.3-1.3,0.4c-0.5,0.1-0.9,0.2-1.3,0.2
		c-1.3,0-2.3-0.3-3-0.9c-0.7-0.6-1-1.6-1-2.8c0-0.7,0.1-1.5,0.3-2.4l2-9.5h-2.7l0.2-1.2l2.9-1.2l2-3.6h1.5l-0.9,4h4.3l-0.4,2h-4.3
		l-2,9.5c-0.2,0.9-0.3,1.6-0.3,2.1c0,0.6,0.2,1,0.5,1.4C389.9,324.6,390.3,324.7,390.9,324.7L390.9,324.7z"/>
	<path class="st0" d="M405.2,309c1,0,1.8,0.3,2.6,0.8c0.8,0.5,1.3,1.3,1.8,2.2h0.2l1.1-2.7h2l-3.7,17.3H407l0.4-3.3h-0.1
		c-1.9,2.4-3.9,3.6-5.9,3.6c-1.5,0-2.6-0.5-3.4-1.6c-0.8-1-1.2-2.5-1.2-4.3c0-2.2,0.4-4.2,1.1-6.1c0.7-1.9,1.8-3.3,3.1-4.4
		C402.2,309.5,403.6,309,405.2,309L405.2,309z M402.2,324.7c1,0,2-0.5,3-1.5c1-1,1.8-2.2,2.5-3.8c0.6-1.6,0.9-3.1,0.9-4.7
		c0-1.1-0.3-1.9-0.9-2.6c-0.6-0.6-1.4-1-2.3-1c-1.1,0-2.1,0.5-3.1,1.4c-0.9,0.9-1.7,2.1-2.2,3.7c-0.5,1.5-0.8,3.2-0.8,4.9
		c0,1.2,0.2,2.1,0.7,2.7C400.6,324.4,401.3,324.7,402.2,324.7L402.2,324.7z"/>
	<path class="st0" d="M419.6,324.7c0.6,0,1.3-0.1,2.3-0.4v2c-0.4,0.1-0.8,0.3-1.3,0.4c-0.5,0.1-0.9,0.2-1.3,0.2
		c-1.3,0-2.3-0.3-3-0.9c-0.7-0.6-1-1.6-1-2.8c0-0.7,0.1-1.5,0.3-2.4l2-9.5h-2.7l0.2-1.2l2.9-1.2l2-3.6h1.5l-0.9,4h4.3l-0.4,2h-4.3
		l-2,9.5c-0.2,0.9-0.3,1.6-0.3,2.1c0,0.6,0.2,1,0.5,1.4C418.6,324.6,419,324.7,419.6,324.7L419.6,324.7z"/>
	<path class="st0" d="M427.4,326.6h-2.6l3.7-17.3h2.6L427.4,326.6z M429.2,304.9c0-0.6,0.2-1.1,0.5-1.4c0.3-0.4,0.8-0.6,1.3-0.6
		c0.9,0,1.4,0.5,1.4,1.4c0,0.6-0.2,1.1-0.5,1.5c-0.4,0.4-0.8,0.6-1.2,0.6c-0.4,0-0.8-0.1-1-0.4C429.3,305.7,429.2,305.3,429.2,304.9
		z"/>
	<path class="st0" d="M442.2,309.1c2,0,3.6,0.6,4.7,1.8c1.2,1.2,1.7,2.8,1.7,4.9c0,2-0.4,3.8-1.1,5.6c-0.8,1.8-1.8,3.1-3.1,4.1
		c-1.3,1-2.8,1.4-4.4,1.4c-2,0-3.6-0.6-4.7-1.8c-1.1-1.2-1.7-2.8-1.7-4.9c0-2,0.4-3.9,1.2-5.6c0.8-1.8,1.8-3.1,3.1-4.1
		C439.1,309.5,440.6,309.1,442.2,309.1L442.2,309.1z M445.9,315.3c0-1.2-0.3-2.2-1-2.9c-0.7-0.8-1.5-1.1-2.7-1.1
		c-1.1,0-2.2,0.4-3.1,1.2c-0.9,0.8-1.6,1.9-2.1,3.2c-0.5,1.4-0.7,2.9-0.7,4.6c0,1.4,0.3,2.4,1,3.2c0.7,0.8,1.6,1.1,2.9,1.1
		c1.1,0,2.1-0.4,2.9-1.2s1.6-1.9,2-3.3C445.6,318.8,445.9,317.2,445.9,315.3L445.9,315.3z"/>
	<path class="st0" d="M461.6,326.6l2.3-10.9c0.2-1.1,0.3-1.8,0.3-2.3c0-0.7-0.2-1.2-0.6-1.6c-0.4-0.4-1-0.6-1.8-0.6
		c-0.9,0-1.8,0.3-2.7,0.9c-0.9,0.6-1.7,1.5-2.3,2.7c-0.7,1.2-1.2,2.6-1.5,4.2l-1.6,7.5h-2.6l3.7-17.3h2.2l-0.3,3.2h0.2
		c1-1.3,2-2.2,2.9-2.7c0.9-0.5,1.9-0.8,2.9-0.8c1.3,0,2.4,0.4,3.2,1.1c0.8,0.7,1.2,1.8,1.2,3.1c0,0.8-0.1,1.8-0.4,2.8l-2.3,10.6
		H461.6L461.6,326.6z"/>
	<g id="Layer-1">
		<path class="st1" d="M-131.2,282.1c-0.6,0.3-1,0.9-1,1.6c0,0.7,0.4,1.3,1,1.6l35,16.4c0.5,0.2,1,0.3,1.5,0.3v-36.5
			c-0.5,0-1,0.1-1.5,0.3L-131.2,282.1L-131.2,282.1z"/>
		<path class="st2" d="M-94.8,265.5v36.5c0.5,0,1.1-0.1,1.6-0.3l34.9-16.3c0.6-0.3,1-0.9,1-1.6c0-0.7-0.4-1.3-1-1.6l-34.9-16.3
			C-93.8,265.6-94.3,265.5-94.8,265.5"/>
		<path class="st3" d="M-132.3,234.3c0,0.7,0.4,1.3,1,1.6l35,16.4c0.5,0.2,1,0.3,1.5,0.3c0.4,0,0.9-0.1,1.3-0.2
			c0.3-0.2,0.3-0.1,1-0.5c3.6-1.7,1.2-0.6,34.2-16c0.6-0.3,1-0.9,1-1.6c0-0.7-0.4-1.3-1-1.6l-34.9-16.3c-1-0.4-2.1-0.4-3,0
			l-34.9,16.2C-131.9,232.9-132.3,233.6-132.3,234.3"/>
		<path class="st4" d="M-94.8,254.7v10.9c-0.5,0-1,0.1-1.5,0.3l-34.9,16.2c-0.6,0.3-1,0.9-1,1.6l0-48.2v-1.2c0,0.7,0.4,1.3,1,1.6
			l35,16.4c0.5,0.2,1,0.3,1.5,0.3c0.4,0,0.9-0.1,1.3-0.2l-0.1,0C-94.6,252.9-94.8,253.4-94.8,254.7"/>
	</g>
</g>
</svg>
