<?xml version="1.0" encoding="UTF-8" standalone="no"?>
<!-- Generator: Adobe Illustrator 25.4.1, SVG Export Plug-In . SVG Version: 6.00 Build 0)  -->

<svg
   version="1.1"
   x="0px"
   y="0px"
   viewBox="0 0 284.90445 320.17499"
   xml:space="preserve"
   id="svg362"
   sodipodi:docname="commercetools.svg"
   width="284.90445"
   height="320.17499"
   inkscape:version="1.2.1 (9c6d41e410, 2022-07-14, custom)"
   xmlns:inkscape="http://www.inkscape.org/namespaces/inkscape"
   xmlns:sodipodi="http://sodipodi.sourceforge.net/DTD/sodipodi-0.dtd"
   xmlns="http://www.w3.org/2000/svg"
   xmlns:svg="http://www.w3.org/2000/svg"><defs
   id="defs366" /><sodipodi:namedview
   id="namedview364"
   pagecolor="#ffffff"
   bordercolor="#666666"
   borderopacity="1.0"
   inkscape:showpageshadow="2"
   inkscape:pageopacity="0.0"
   inkscape:pagecheckerboard="0"
   inkscape:deskcolor="#d1d1d1"
   showgrid="false"
   inkscape:zoom="1.6147799"
   inkscape:cx="142.74391"
   inkscape:cy="159.7741"
   inkscape:window-width="3840"
   inkscape:window-height="2083"
   inkscape:window-x="0"
   inkscape:window-y="40"
   inkscape:window-maximized="1"
   inkscape:current-layer="svg362" />
<style
   type="text/css"
   id="style342">
	.st0{fill:#FFFFFF;}
	.st1{fill:#FF761C;}
	.st2{fill:#FF8C1E;}
	.st3{fill:#00C1AD;}
	.st4{fill:#D1D1D1;}
	.st5{fill:#003037;}
</style>
<g
   id="Logo_RGB_Claim"
   transform="translate(-157.5,-157.925)">
	<g
   id="g358">
		<g
   id="g356">
			<g
   id="g346">
				<path
   class="st1"
   d="m 161.5,403.7 c -2.4,1.1 -4,3.5 -4,6.1 0,2.6 1.5,5 3.9,6.1 l 132.9,60.9 c 1.8,0.8 3.7,1.2 5.6,1.3 V 342 c -2,0 -4,0.4 -5.8,1.2 z"
   id="path344" />
			</g>
			<g
   id="g352">
				<path
   class="st2"
   d="m 300,342 v 136 c 2.1,0 4.1,-0.4 6,-1.3 L 438.5,416 c 2.4,-1.1 4,-3.5 3.9,-6.1 0,-2.6 -1.5,-5 -4,-6.1 L 305.6,343.2 C 303.9,342.4 302,342 300,342"
   id="path348" />
				<path
   class="st3"
   d="m 157.5,225.7 c 0,2.7 1.5,5 3.9,6.1 l 132.9,60.9 c 1.8,0.8 3.7,1.2 5.6,1.3 1.7,0 3.4,-0.3 5,-0.8 1.3,-0.6 1,-0.5 3.7,-1.7 13.7,-6.2 4.6,-2.1 129.8,-59.5 2.4,-1.1 4,-3.5 3.9,-6.1 0,-2.6 -1.5,-5 -4,-6.1 L 305.5,159.2 c -3.7,-1.7 -7.9,-1.7 -11.6,0 l -132.7,60.4 c -2.1,1.1 -3.7,3.5 -3.7,6.1"
   id="path350" />
			</g>
			<path
   class="st4"
   d="M 300,301.6 V 342 c -2,0 -4,0.4 -5.8,1.2 l -132.7,60.4 c -2.4,1.1 -4,3.5 -4,6.1 v -179.5 -4.5 c 0,2.6 1.5,5 3.9,6.1 l 132.9,60.9 c 1.8,0.8 3.7,1.2 5.6,1.3 1.7,0 3.4,-0.3 5,-0.8 l -0.2,0.1 c -4.1,1.8 -4.7,3.7 -4.7,8.3"
   id="path354" />
		</g>
	</g>
</g>
<g
   id="Logo_RGB"
   transform="translate(-157.5,-157.925)">
</g>
</svg>
