<svg width="250" height="250" viewBox="0 0 250 250" fill="none" xmlns="http://www.w3.org/2000/svg">
<path d="M62.3353 159.262C60.944 161.536 59.3682 164.201 58.1245 166.312C57.8504 166.782 57.6765 167.306 57.5975 167.845C57.5224 168.387 57.551 168.938 57.6818 169.469C57.8083 170.003 58.0401 170.5 58.3564 170.945C58.6726 171.389 59.0731 171.77 59.5316 172.066L87.4791 189.355C87.9587 189.657 88.5015 189.858 89.0654 189.948C89.6241 190.038 90.2038 190.016 90.7571 189.879C91.3105 189.741 91.8322 189.498 92.2907 189.16C92.7492 188.821 93.134 188.393 93.4238 187.901C94.5516 186.018 95.9798 183.58 97.5134 180.978C108.591 162.747 119.817 164.979 139.869 174.546L167.59 187.737C168.109 187.987 168.673 188.129 169.248 188.155C169.823 188.182 170.397 188.092 170.937 187.89C171.474 187.689 171.97 187.382 172.386 186.986C172.808 186.589 173.14 186.113 173.372 185.584L186.679 155.475C186.905 154.967 187.032 154.422 187.048 153.867C187.069 153.317 186.979 152.761 186.789 152.243C186.6 151.725 186.315 151.244 185.946 150.831C185.577 150.419 185.135 150.085 184.634 149.837C178.789 147.076 167.158 141.644 156.734 136.525C118.815 118.167 86.8203 119.378 62.3353 159.262Z" fill="url(#paint0_linear_1238_2623)"/>
<path d="M187.644 90.8181C189.051 88.5439 190.627 85.8836 191.855 83.7734C192.134 83.2921 192.318 82.7579 192.397 82.2026C192.476 81.6525 192.445 81.0866 192.308 80.5471C192.168 80.0063 191.924 79.498 191.591 79.0504C191.258 78.6014 190.841 78.2223 190.363 77.9344L162.458 60.6451C161.973 60.3436 161.435 60.1426 160.871 60.0527C160.308 59.9628 159.733 59.9893 159.18 60.1215C158.626 60.259 158.105 60.5023 157.646 60.8408C157.188 61.1793 156.803 61.6077 156.508 62.0995C155.406 63.9824 153.952 66.4205 152.418 69.0227C141.298 87.3381 130.178 85.1062 110.104 75.5386L82.4097 62.3428C81.8932 62.0942 81.3346 61.9462 80.7654 61.9144C80.1962 61.8774 79.6218 61.962 79.0842 62.1524C78.5466 62.3428 78.0513 62.639 77.6296 63.0251C77.2028 63.4112 76.8655 63.8766 76.6231 64.3949L63.316 94.5891C62.8586 95.6133 62.8152 96.7755 63.1948 97.8312C63.3845 98.3548 63.6743 98.8361 64.0432 99.2486C64.4122 99.6611 64.8601 99.9996 65.3608 100.243C71.2264 103.009 82.8576 108.435 93.2609 113.56C131.079 131.913 163.174 130.707 187.644 90.8181Z" fill="url(#paint1_linear_1238_2623)"/>
<defs>
<linearGradient id="paint0_linear_1238_2623" x1="185.783" y1="198.308" x2="101.206" y2="149.874" gradientUnits="userSpaceOnUse">
<stop stop-color="#0052CC"/>
<stop offset="0.92" stop-color="#2380FB"/>
<stop offset="1" stop-color="#2684FF"/>
</linearGradient>
<linearGradient id="paint1_linear_1238_2623" x1="64.1924" y1="51.7545" x2="148.79" y2="100.189" gradientUnits="userSpaceOnUse">
<stop stop-color="#0052CC"/>
<stop offset="0.92" stop-color="#2380FB"/>
<stop offset="1" stop-color="#2684FF"/>
</linearGradient>
</defs>
</svg>
