<svg xmlns="http://www.w3.org/2000/svg" width="250" height="250" fill="none"><path fill="#ED1C24" d="M163.82 83.166V29l-54.132 54.166h-45.07l-36.054-36.29v117.93a54.604 54.604 0 0 0 4.102 20.818 54.383 54.383 0 0 0 11.72 17.653 54.068 54.068 0 0 0 17.553 11.797 53.841 53.841 0 0 0 20.708 4.142h81.319V83.166h-.146Z"/><path fill="#fff" d="M125.085 101.727h-57.64c-12.432 0-22.51 10.13-22.51 22.626v1.665c0 12.496 10.078 22.626 22.51 22.626h57.64c12.432 0 22.51-10.13 22.51-22.626v-1.665c0-12.496-10.078-22.626-22.51-22.626Z"/><path fill="#000" d="M122.259 143.306c9.956 0 18.027-8.113 18.027-18.12 0-10.008-8.071-18.121-18.027-18.121-9.957 0-18.028 8.113-18.028 18.121 0 10.007 8.071 18.12 18.028 18.12Z"/><path fill="#ED1C24" d="M69.93 110.934c2.89 0 5.717.862 8.12 2.476a14.678 14.678 0 0 1 5.384 6.594 14.764 14.764 0 0 1 .832 8.489 14.71 14.71 0 0 1-4 7.522 14.593 14.593 0 0 1-7.485 4.021 14.547 14.547 0 0 1-8.445-.836 14.634 14.634 0 0 1-6.56-5.411 14.747 14.747 0 0 1-2.463-8.163c0-3.896 1.54-7.633 4.28-10.389a14.58 14.58 0 0 1 10.337-4.303m0-3.624a18.003 18.003 0 0 0-10.051 3.035 18.147 18.147 0 0 0-6.68 8.136 18.256 18.256 0 0 0-1.056 10.495 18.203 18.203 0 0 0 4.922 9.317 18.05 18.05 0 0 0 9.242 4.997 17.99 17.99 0 0 0 10.447-1.005 18.105 18.105 0 0 0 8.13-6.67 18.239 18.239 0 0 0 3.073-10.087 18.266 18.266 0 0 0-5.291-12.816 18.08 18.08 0 0 0-12.736-5.353v-.049Z"/><path fill="#fff" d="M104.377 162.455a1.846 1.846 0 0 0-2.582 0l-5.506 5.534-5.554-5.534a1.804 1.804 0 0 0-2.534-.294 1.81 1.81 0 0 0-.67 1.213 1.823 1.823 0 0 0 .378 1.334.836.836 0 0 0 .292.294l6.285 6.317v12.342c0 .481.19.942.528 1.281a1.8 1.8 0 0 0 1.275.531c.47-.024.916-.222 1.249-.557.333-.335.53-.782.554-1.255v-12.342l6.285-6.317c.334-.339.52-.797.52-1.274 0-.476-.186-.934-.52-1.273Zm-82.05 6.954h36.396a1.41 1.41 0 0 0 .952-.415c.253-.254.4-.596.413-.956a1.373 1.373 0 0 0-1.267-1.371H22.327a1.251 1.251 0 0 0-.96.336 1.28 1.28 0 0 0-.404.937 1.38 1.38 0 0 0 .363 1.034 1.365 1.365 0 0 0 1.001.435Zm43.413 3.82H15.36a1.362 1.362 0 0 0-.934.419 1.375 1.375 0 0 0-.382.953 1.373 1.373 0 0 0 1.316 1.322h50.38a1.42 1.42 0 0 0 1.364-1.371 1.373 1.373 0 0 0-1.364-1.323Zm-7.017 6.563H22.327a1.268 1.268 0 0 0-1.364 1.273 1.377 1.377 0 0 0 .842 1.267c.165.069.343.105.522.105h36.396a1.422 1.422 0 0 0 1.364-1.372 1.373 1.373 0 0 0-1.266-1.371l-.098.098Zm75.181-11.754h36.591a1.362 1.362 0 0 0 1.364-1.371 1.362 1.362 0 0 0-1.364-1.371h-36.591c-.362 0-.709.144-.965.401a1.375 1.375 0 0 0 0 1.94c.256.257.603.401.965.401Zm43.51 3.82h-50.478a1.368 1.368 0 0 0-.996.384 1.373 1.373 0 0 0-.417.987 1.412 1.412 0 0 0 1.364 1.372h50.527c.361 0 .708-.145.964-.402a1.375 1.375 0 0 0 0-1.939 1.362 1.362 0 0 0-.964-.402Zm-6.919 6.563h-36.591c-.362 0-.709.144-.965.401a1.376 1.376 0 0 0 0 1.94c.256.257.603.401.965.401h36.591a1.362 1.362 0 0 0 1.364-1.371 1.362 1.362 0 0 0-1.364-1.371Z"/><path fill="#ED1C24" d="M230.327 119.113a18.284 18.284 0 0 0-8.046-9.28 18.139 18.139 0 0 0-12.072-2.065 18.198 18.198 0 0 0-10.647 6.082 18.368 18.368 0 0 0-4.413 11.483c.04 2.49.553 4.95 1.51 7.248a59.79 59.79 0 0 1 2.906 28.123A59.686 59.686 0 0 1 189.228 187a59.275 59.275 0 0 1-21.244 18.531 58.948 58.948 0 0 1-27.356 6.584 60.236 60.236 0 0 1-15.641-1.91 73.741 73.741 0 0 0 43.476 8.972 73.873 73.873 0 0 0 40.772-17.624 74.502 74.502 0 0 0 23.426-37.891 74.801 74.801 0 0 0-2.334-44.549Z"/></svg>