<?xml version="1.0" encoding="utf-8"?>
<!-- Generator: Adobe Illustrator 25.4.1, SVG Export Plug-In . SVG Version: 6.00 Build 0)  -->
<svg version="1.1" id="Layer_1" xmlns="http://www.w3.org/2000/svg" xmlns:xlink="http://www.w3.org/1999/xlink" x="0px" y="0px"
	 viewBox="0 0 600 150" style="enable-background:new 0 0 600 150;" xml:space="preserve">
<style type="text/css">
	.st0{fill:#F3B01C;}
	.st1{fill:#8D2676;}
	.st2{fill:#EE342F;}
</style>
<g>
	<path d="M512.51,75.13l-22.19-29.38h25.72l45.39,59.77h-25.97l-10.09-13.37l-10.09,13.37h-25.85L512.51,75.13z"/>
	<polygon points="534.89,45.75 560.49,45.75 540.84,71.92 527.84,55.15 	"/>
</g>
<path d="M159.9,98.9c-6.18-5.25-9.27-13.01-9.27-23.26c0-10.25,3.15-18.01,9.46-23.26c6.3-5.25,14.92-7.88,25.85-7.88
	c4.54,0,8.55,0.31,12.04,0.95c3.49,0.63,6.83,1.7,10.02,3.22V65.3c-4.96-2.35-10.59-3.53-16.89-3.53c-5.55,0-9.65,1.05-12.29,3.15
	c-2.65,2.1-3.97,5.67-3.97,10.72c0,4.88,1.3,8.41,3.91,10.59c2.6,2.19,6.72,3.28,12.36,3.28c5.97,0,11.64-1.39,17.02-4.16v17.4
	c-5.97,2.69-13.41,4.03-22.32,4.03C174.71,106.78,166.08,104.15,159.9,98.9z"/>
<path d="M213.52,75.63c0-10.17,2.9-17.9,8.7-23.2c5.8-5.3,14.54-7.94,26.23-7.94c11.77,0,20.57,2.65,26.42,7.94
	c5.84,5.29,8.76,13.03,8.76,23.2c0,20.76-11.73,31.14-35.18,31.14C225.16,106.78,213.52,96.4,213.52,75.63z M256.84,86.23
	c1.72-2.19,2.58-5.72,2.58-10.59c0-4.79-0.86-8.3-2.58-10.53c-1.72-2.23-4.52-3.34-8.39-3.34c-3.78,0-6.52,1.12-8.2,3.34
	c-1.68,2.23-2.52,5.74-2.52,10.53c0,4.88,0.84,8.41,2.52,10.59c1.68,2.19,4.41,3.28,8.2,3.28
	C252.32,89.51,255.11,88.41,256.84,86.23z"/>
<path d="M289.15,45.75h22.19l0.63,4.54c2.44-1.68,5.55-3.07,9.33-4.16c3.78-1.09,7.69-1.64,11.73-1.64c7.48,0,12.94,1.85,16.39,5.55
	c3.45,3.7,5.17,9.41,5.17,17.15v38.33h-23.7V69.58c0-2.69-0.61-4.62-1.83-5.8c-1.22-1.18-3.26-1.76-6.12-1.76
	c-1.76,0-3.57,0.4-5.42,1.2c-1.85,0.8-3.4,1.83-4.67,3.09v39.21h-23.7V45.75z"/>
<path d="M354.66,45.75h24.71l11.35,35.05l11.35-35.05h24.71l-23.58,59.77h-24.97L354.66,45.75z"/>
<path d="M434.24,100.38c-7.12-5.34-10.45-14.61-10.45-24.62c0-9.75,2.65-17.78,8.7-23.33c6.05-5.55,15.27-7.94,26.91-7.94
	c10.71,0,19.13,2.48,25.28,7.44c6.14,4.96,9.22,11.73,9.22,20.3V82.7h-45.07c1.12,3.11,2.54,5.36,6.03,6.75
	c3.49,1.39,8.36,2.08,14.59,2.08c3.72,0,7.52-0.29,11.38-0.88c1.36-0.21,3.6-0.54,4.78-0.79v14.53c-5.89,1.6-13.74,2.4-22.59,2.4
	C451.11,106.78,441.36,105.72,434.24,100.38z M469,69.84c0-2.96-3.41-9.33-10.26-9.33c-6.18,0-10.26,6.27-10.26,9.33H469z"/>
<path class="st0" d="M100.22,100.4L100.22,100.4c13.1-1.43,25.45-8.29,32.25-19.74c-3.22,28.32-34.73,46.22-60.45,35.23
	c-2.37-1.01-4.41-2.69-5.81-4.85c-5.78-8.92-7.68-20.27-4.95-30.57C69.06,93.7,84.92,101.81,100.22,100.4z"/>
<path class="st1" d="M60.78,72.16L60.78,72.16c-5.31,12.06-5.54,26.18,0.97,37.8C38.84,93.02,39.09,56.77,61.47,40
	c2.07-1.55,4.53-2.47,7.11-2.61c10.61-0.55,21.39,3.48,28.95,10.99C82.17,48.53,67.21,58.2,60.78,72.16z"/>
<path class="st2" d="M104.94,52.09L104.94,52.09c-7.75-10.62-19.88-17.85-33.17-18.07c25.69-11.46,57.29,7.12,60.73,34.59
	c0.32,2.55-0.1,5.15-1.25,7.45c-4.8,9.58-13.7,17.01-24.1,19.76C114.77,81.93,113.83,64.96,104.94,52.09z"/>
</svg>
