<svg version="1.2" xmlns="http://www.w3.org/2000/svg" viewBox="0 0 1605 1259" width="250" height="250">
	<title>crowdstrike-seeklogo</title>
	<style>
		.s0 { fill: #ff3c1a } 
	</style>
	<g id="1">
		<g id="&lt;Group&gt;">
			<path id="&lt;Path&gt;" class="s0" d="m1525.1 1011.5c-34.6-3.4-95.9-12-172.6 26.7-76.7 38.7-106.8 40.3-144.5 36.3 11.1 20.3 33.5 48 104 53 70.5 5 104.2 7.1 67.1 94.9 0.9-26.5-5.4-77.8-75.3-68.8-70 9-86.3 72-11.3 103.4-24.4 4.9-76.1 7.9-113-88.8-25.6 11.1-65.1 33.4-136.7-21.8q25 9 55.8 9.6c-63.5-30.3-124.2-86.7-163-140 30.8 23 64.8 45.8 99.2 50.1-40.7-49.5-134.6-148.7-249.6-250.5 73.9 48.3 163.1 124.5 309.1 107.4 146-17.2 244.1-50.6 430.8 88.5z"/>
			<path id="&lt;Path&gt;" class="s0" d="m900.2 977.1c-91.5-39.7-111.1-47.6-228.8-77.5-117.7-29.9-233.5-92.2-310.9-189.3 54.6 40 166 120.4 280.5 111.7-17.4-25.5-49.5-45.3-87.8-65.3 43.3 10.4 174.2 43.9 347 220.4z"/>
			<path id="&lt;Path&gt;" class="s0" d="m376.3 391.7c-302.6-189.1-362.7-334.8-376.3-390.8 190.1 207.9 334.5 289.3 432.8 354.3 202 128.8 244.6 215.4 268.2 283.1-96.9-136.8-225.2-178.7-324.7-246.6z"/>
			<path id="&lt;Path&gt;" class="s0" d="m413.9 541.6c-276.9-146.4-341.2-263.6-353.8-317 138.6 147.8 292.7 225.6 383 276.1 195.6 104.9 245.5 178.5 270.3 235.8-93.2-113.1-222.8-152.7-299.5-194.9z"/>
			<path id="&lt;Compound Path&gt;" fill-rule="evenodd" class="s0" d="m1310.1 731.2c-25.7 61.1 3.9 67.9 15.9 72.5 60.9 23.3 222 53.2 211.9 121.3 18.8 18.8 88.4 93.7 59.3 145.7-25-40.8-139.9-146.7-278.9-168.5-139-21.8-265.7 25.2-370.4-44.3-88.9-64-103.2-88.2-192.7-234.8-40.2-65.8-48-125.7-184.5-237.1-136.5-111.4-264.2-170.8-317.8-336.7 117.3 144.2 269 281.9 650.3 391 477.6 133.2 441.5 206.5 406.9 290.9zm212.9 209.1c-0.8-26.4 2.8-41.7-69.5-52.7q38.7 19.1 69.5 52.7z"/>
		</g>
	</g>
</svg>