<?xml version="1.0" encoding="UTF-8" standalone="no"?>
<svg
   id="Layer_1"
   data-name="Layer 1"
   viewBox="0 0 104.53 73.180002"
   version="1.1"
   sodipodi:docname="customer-io.svg"
   width="104.53"
   height="73.18"
   inkscape:version="1.2.1 (9c6d41e410, 2022-07-14, custom)"
   xmlns:inkscape="http://www.inkscape.org/namespaces/inkscape"
   xmlns:sodipodi="http://sodipodi.sourceforge.net/DTD/sodipodi-0.dtd"
   xmlns="http://www.w3.org/2000/svg"
   xmlns:svg="http://www.w3.org/2000/svg"
   xmlns:rdf="http://www.w3.org/1999/02/22-rdf-syntax-ns#"
   xmlns:cc="http://creativecommons.org/ns#"
   xmlns:dc="http://purl.org/dc/elements/1.1/">
  <sodipodi:namedview
     id="namedview399"
     pagecolor="#ffffff"
     bordercolor="#666666"
     borderopacity="1.0"
     inkscape:showpageshadow="2"
     inkscape:pageopacity="0.0"
     inkscape:pagecheckerboard="0"
     inkscape:deskcolor="#d1d1d1"
     showgrid="false"
     inkscape:zoom="3.3808361"
     inkscape:cx="200.69"
     inkscape:cy="36.677318"
     inkscape:window-width="3840"
     inkscape:window-height="2083"
     inkscape:window-x="0"
     inkscape:window-y="40"
     inkscape:window-maximized="1"
     inkscape:current-layer="Layer_1" />
  <defs
     id="defs384">
    <style
       id="style382">.cls-1{fill:#ffcd00;}.cls-2{fill:#00ecbb;}.cls-3{fill:#af64ff;}.cls-4{fill:#7131ff;}.cls-5{fill:#2f326a;fill-rule:evenodd;}</style>
  </defs>
  <title
     id="title386">Logo-Color-NEW</title>
  <path
     class="cls-1"
     d="M 52.2,41.82 A 20.91,20.91 0 1 0 31.29,20.92 20.9,20.9 0 0 0 52.2,41.82 Z"
     id="path388" />
  <path
     class="cls-2"
     d="M 52.33,52.27 H 52.26 A 31.38,31.38 0 0 1 21.86,28.64 C 20.81,24.46 17.41,20.92 13.1,20.92 H 0 a 52.26,52.26 0 0 0 52.26,52.26 h 0.07 z"
     id="path390" />
  <path
     class="cls-3"
     d="m 52.2,52.27 h 0.06 a 31.37,31.37 0 0 0 30.4,-23.63 c 1.06,-4.18 4.46,-7.72 8.77,-7.72 h 13.1 A 52.27,52.27 0 0 1 52.26,73.18 H 52.2 Z"
     id="path392" />
  <path
     class="cls-4"
     d="m 89.22,57.87 a 52.26,52.26 0 0 1 -73.91,0 L 30.09,43.09 a 31.37,31.37 0 0 0 44.35,0 z"
     id="path394" />
  <metadata
     id="metadata401">
    <rdf:RDF>
      <cc:Work
         rdf:about="">
        <dc:title>Logo-Color-NEW</dc:title>
      </cc:Work>
    </rdf:RDF>
  </metadata>
</svg>
