<svg xmlns="http://www.w3.org/2000/svg" id="Layer_1" width="104.53" height="73.18" data-name="Layer 1" version="1.1"><defs id="defs384"><style id="style382">.cls-5{fill:#2f326a;fill-rule:evenodd}</style></defs><path id="path388" d="M52.2 41.82a20.91 20.91 0 1 0-20.91-20.9 20.9 20.9 0 0 0 20.91 20.9Z" style="fill:#ffcd00"/><path id="path390" d="M52.33 52.27h-.07a31.38 31.38 0 0 1-30.4-23.63c-1.05-4.18-4.45-7.72-8.76-7.72H0a52.26 52.26 0 0 0 52.26 52.26h.07z" style="fill:#00ecbb"/><path id="path392" d="M52.2 52.27h.06a31.37 31.37 0 0 0 30.4-23.63c1.06-4.18 4.46-7.72 8.77-7.72h13.1a52.27 52.27 0 0 1-52.27 52.26h-.06Z" style="fill:#af64ff"/><path id="path394" d="M89.22 57.87a52.26 52.26 0 0 1-73.91 0l14.78-14.78a31.37 31.37 0 0 0 44.35 0z" style="fill:#7131ff"/></svg>