<svg width="250" height="250" viewBox="0 0 250 250" fill="none" xmlns="http://www.w3.org/2000/svg">
<path d="M125.176 131.768C130.853 131.768 136.402 130.085 141.122 126.931C145.842 123.777 149.52 119.293 151.692 114.049C153.864 108.804 154.431 103.032 153.323 97.4649C152.214 91.8974 149.48 86.7837 145.465 82.7705C141.45 78.7574 136.335 76.0251 130.767 74.9193C125.198 73.8135 119.428 74.3838 114.184 76.5581C108.94 78.7324 104.458 82.413 101.307 87.1344C98.1547 91.8558 96.4739 97.4059 96.4766 103.083C96.4766 106.851 97.219 110.582 98.6614 114.063C100.104 117.545 102.218 120.707 104.883 123.371C107.548 126.035 110.712 128.148 114.194 129.589C117.676 131.029 121.408 131.77 125.176 131.768Z" fill="#FFCD00"/>
<path d="M125.354 146.111H125.258C115.689 146.109 106.392 142.919 98.8369 137.046C91.2814 131.174 85.897 122.952 83.5336 113.678C82.0924 107.941 77.4258 103.083 71.5103 103.083H53.5303C53.5303 122.106 61.0873 140.35 74.5389 153.802C87.9905 167.253 106.235 174.811 125.258 174.811H125.354V146.111Z" fill="#00ECBB"/>
<path d="M125.176 146.111H125.258C134.828 146.111 144.126 142.923 151.682 137.049C159.238 131.176 164.621 122.953 166.983 113.678C168.438 107.941 173.104 103.083 179.02 103.083H197C196.996 122.107 189.436 140.352 175.982 153.803C162.528 167.254 144.283 174.811 125.258 174.811H125.176V146.111Z" fill="#AF64FF"/>
<path d="M175.986 153.797C169.325 160.458 161.418 165.742 152.715 169.348C144.012 172.953 134.684 174.808 125.264 174.808C115.844 174.808 106.517 172.953 97.8139 169.348C89.1111 165.742 81.2036 160.458 74.543 153.797L94.8288 133.511C102.903 141.58 113.85 146.113 125.264 146.113C136.679 146.113 147.626 141.58 155.7 133.511L175.986 153.797Z" fill="#7131FF"/>
</svg>
