<svg xmlns="http://www.w3.org/2000/svg" width="250" height="250" fill="none"><path fill="#FFCD00" d="M125.132 135.395a43.194 43.194 0 0 0 39.911-26.672 43.199 43.199 0 0 0-31.496-58.895 43.198 43.198 0 0 0-51.612 42.39 43.18 43.18 0 0 0 43.197 43.177Z"/><path fill="#00ECBB" d="M125.4 156.983h-.145a64.826 64.826 0 0 1-62.802-48.817c-2.17-8.635-9.193-15.948-18.097-15.948H17.293A107.964 107.964 0 0 0 125.255 200.18h.145v-43.197Z"/><path fill="#AF64FF" d="M125.131 156.983h.124a64.81 64.81 0 0 0 62.802-48.817c2.19-8.635 9.214-15.948 18.118-15.948h27.063A107.986 107.986 0 0 1 125.255 200.18h-.124v-43.197Z"/><path fill="#7131FF" d="M201.609 168.552a107.95 107.95 0 0 1-35.027 23.405 107.946 107.946 0 0 1-82.634 0 107.96 107.96 0 0 1-35.027-23.405l30.533-30.534a64.805 64.805 0 0 0 91.622 0l30.533 30.534Z"/></svg>