<?xml version="1.0" standalone="no"?><!-- Generator: Gravit.io --><svg xmlns="http://www.w3.org/2000/svg" xmlns:xlink="http://www.w3.org/1999/xlink" style="isolation:isolate" viewBox="250 -10 650 600" width="500" height="500"><g><path d=" M 704.623 43.343 C 685.744 34.322 665.774 27.223 644.962 22.302 L 644.962 90.273 C 648.174 91.268 651.357 92.33 654.509 93.458 C 666.424 97.72 677.891 102.924 688.822 108.981 C 760.544 148.737 809.105 225.211 809.105 313.006 C 809.105 418.972 738.352 508.434 641.526 536.756 C 634.822 548.307 622.319 556.079 608.003 556.079 C 586.616 556.079 569.27 538.733 569.27 517.343 C 569.27 495.956 586.616 478.61 608.003 478.61 C 616.13 478.61 623.67 481.112 629.901 485.392 C 703.296 462.46 756.581 393.947 756.581 313.006 C 756.581 239.542 712.685 176.307 649.698 148.106 L 644.962 152.842 L 609.721 188.085 L 609.721 189.439 C 622.349 192.878 634.204 198.205 644.962 205.094 C 680.495 227.853 704.054 267.684 704.054 313.006 C 704.054 372.664 663.236 422.811 608.006 437.026 C 602.062 438.555 595.951 439.671 589.709 440.336 L 542.279 487.766 L 542.279 490.441 L 542.279 543.687 L 542.279 609.829 C 553.347 611.073 564.6 611.711 575.999 611.711 C 586.813 611.711 597.49 611.138 608.006 610.017 C 757.905 594.04 874.704 467.136 874.704 313.006 C 874.704 207.197 819.663 114.218 736.652 61.152 C 726.386 54.587 715.691 48.634 704.623 43.343 Z " fill-rule="evenodd" fill="rgb(41,131,144)"/><path d=" M 447.377 582.668 C 466.256 591.69 486.226 598.788 507.038 603.709 L 507.038 535.739 C 503.826 534.743 500.643 533.681 497.491 532.554 C 485.576 528.292 474.109 523.087 463.178 517.03 C 391.456 477.274 342.895 400.8 342.895 313.006 C 342.895 207.039 413.648 117.577 510.474 89.255 C 517.179 77.704 529.681 69.932 543.997 69.932 C 565.384 69.932 582.73 87.278 582.73 108.668 C 582.73 130.056 565.384 147.402 543.997 147.402 C 535.87 147.402 528.33 144.899 522.099 140.619 C 448.704 163.552 395.419 232.065 395.419 313.006 C 395.419 386.47 439.316 449.704 502.302 477.906 L 507.038 473.17 L 542.279 437.926 L 542.279 436.572 C 529.651 433.133 517.796 427.807 507.038 420.917 C 471.505 398.158 447.947 358.327 447.947 313.006 C 447.947 253.347 488.765 203.201 543.994 188.986 C 549.938 187.456 556.049 186.341 562.291 185.676 L 609.721 138.245 L 609.721 135.57 L 609.721 82.324 L 609.721 16.182 C 598.653 14.938 587.4 14.3 576.001 14.3 C 565.187 14.3 554.51 14.873 543.994 15.994 C 394.095 31.971 277.296 158.875 277.296 313.006 C 277.296 418.815 332.337 511.793 415.348 564.86 C 425.614 571.424 436.309 577.377 447.377 582.668 Z " fill-rule="evenodd" fill="rgb(70,192,188)"/><path d=" M 500.471 313.006 C 500.471 354.713 534.295 388.537 576.001 388.537 C 617.708 388.537 651.532 354.713 651.532 313.006 C 651.532 271.299 617.708 237.475 576.001 237.475 C 534.295 237.475 500.471 271.299 500.471 313.006 Z  M 541.363 313.006 C 541.363 332.135 556.872 347.644 576.001 347.644 C 595.131 347.644 610.64 332.135 610.64 313.006 C 610.64 293.876 595.131 278.367 576.001 278.367 C 556.872 278.367 541.363 293.876 541.363 313.006 Z " fill-rule="evenodd" fill="rgb(70,192,188)"/></g></svg>