<?xml version="1.0" encoding="utf-8"?>
<!-- Generator: Adobe Illustrator 19.2.1, SVG Export Plug-In . SVG Version: 6.00 Build 0)  -->
<svg version="1.1" id="layer" xmlns="http://www.w3.org/2000/svg" xmlns:xlink="http://www.w3.org/1999/xlink" x="0px" y="0px"
	 viewBox="0 0 652 652" style="enable-background:new 0 0 652 652;" xml:space="preserve">
<style type="text/css">
	.st0{fill:#FF3621;}
</style>
<path d="M190.9,470.4v-30.5c0-0.8-0.5-1.3-1.3-1.3h-10v-11.9h10c0.8,0,1.3-0.5,1.3-1.3v-19.1h14.2v19.1c0,0.8,0.5,1.3,1.3,1.3h14
	v11.9h-14c-0.8,0-1.3,0.5-1.3,1.3v27c0,12.7,4.5,13.8,10.3,13.8c2.1,0,5.3-0.3,7.1-0.5v12.4c-2.4,0.3-6.3,0.8-10.8,0.8
	C206.2,493.1,190.9,493.1,190.9,470.4z M577.4,477.8l11.6-6.1c2.6,6.1,7.6,10.1,13.4,10.1c4.5,0,9.5-1.9,9.5-7.4
	c0-3.7-2.4-5.8-7.9-7.7l-7.9-2.6c-11.1-3.4-16.6-9.8-16.6-18.8c0-11.4,9.5-19.9,22.4-19.9c10.3,0,19,5.6,23.2,14.3l-11.6,6.4
	c-2.6-5.6-6.8-8.7-11.8-8.7c-5,0-8.4,2.6-8.4,6.6c0,3.4,2.6,6.1,7.9,7.7l7.9,2.6c11.6,3.7,17.1,10.1,17.1,18.8
	c0,13.8-11.8,20.9-23.7,20.9C590.6,493.7,581.1,487.6,577.4,477.8z M533.7,465.9c-0.3,0.3-0.5,0.5-0.5,0.8v25.4h-14.5v-94h14.5v51.4
	c0,0.5,0.3,1.1,0.8,1.1c0.5,0.3,1.1,0,1.3-0.3l23.4-23.8h17.6L549,454.2c-0.5,0.5-0.5,1.1,0,1.6l29.7,36.3h-17.6l-22.9-28.6
	c-0.3-0.3-0.5-0.5-0.8-0.5c-0.3,0-0.5,0-0.8,0.3L533.7,465.9z M511.6,435.4l-9.2,8.7c-5.3-4-10.5-5.8-16.3-5.8
	c-12.1,0-21.1,9-21.1,21.2c0,12.2,9,21.2,21.1,21.2c5.3,0,10.8-1.9,16.6-5.8l8.2,8.7c-11.8,8.7-18.2,10.3-26.3,10.3
	c-9.7,0-18.4-3.4-24.7-9.8c-6.1-6.1-9.5-15.1-9.5-24.6c0-19.9,14.5-34.4,34.5-34.4C491.3,425.1,501.1,426.1,511.6,435.4z
	 M443.7,407.1c0,4.8-3.9,8.7-8.7,8.7c-4.7,0-8.7-4-8.7-8.7c0-4.8,3.9-8.7,8.7-8.7C439.7,398.3,443.7,402.3,443.7,407.1z
	 M442.3,492.1h-14.5v-65.4h14.5V492.1z M396.3,463.5v28.9h-14.5v-65.4H396v7.9c0,0.5,0.3,1.1,0.8,1.3c0.5,0.3,1.1,0,1.3-0.5
	c3.7-6.1,10.5-10.1,17.9-10.1c1.1,0,1.8,0,2.4,0.3v14.8c-0.8-0.3-2.1-0.3-3.4-0.3C403.4,440.2,396.3,449.2,396.3,463.5z
	 M318.6,459.5c0-11.9,9-21.2,20.5-21.2c11.6,0,20.5,9.3,20.5,21.2c0,11.9-9,21.2-20.5,21.2C327.6,480.7,318.6,471.4,318.6,459.5z
	 M319.9,484.4c0.3,0,0.3,0,0.5,0c0.3,0,0.8,0.3,1.1,0.5c5,5.8,12.4,9,20.8,9c17.9,0,31.6-15.1,31.6-34.4c0-9.5-3.2-18-9.2-24.6
	c-5.8-6.4-14-9.8-22.6-9.8c-8.2,0-15.8,3.4-20.8,9.5c-0.3,0.3-0.8,0.5-1.3,0.3c-0.5-0.3-0.8-0.5-0.8-1.1v-35.5h-14.5v94h14.5v-6.6
	C319.1,484.9,319.4,484.7,319.9,484.4z M259.9,480.7c-11.3,0-20.5-9.3-20.5-21.2c0-11.9,9-21.2,20.5-21.2c11.6,0,20.5,9.3,20.5,21.2
	C280.4,471.4,271.2,480.7,259.9,480.7z M293.9,492.1v-65.4h-14.2v6.6c0,0.5-0.3,1.1-0.8,1.1c-0.5,0.3-1.1,0-1.3-0.3
	c-4.7-5.8-12.1-9-20.8-9c-17.9,0-31.6,15.1-31.6,34.4s14,34.4,31.6,34.4c8.2,0,15.8-3.4,20.8-9.5c0.3-0.5,0.8-0.5,1.3-0.3
	c0.5,0.3,0.8,0.5,0.8,1.1v7.2h14.2V492.1z M138,480.7c-11.3,0-20.5-9.3-20.5-21.2c0-11.9,9-21.2,20.5-21.2
	c11.3,0,20.5,9.3,20.5,21.2C158.5,471.4,149.3,480.7,138,480.7z M172,492.1v-65.4h-14.2v6.6c0,0.5-0.3,1.1-0.8,1.1
	c-0.5,0.3-1.1,0-1.3-0.3c-4.7-5.8-12.1-9-20.8-9c-17.9,0-31.6,15.1-31.6,34.4s14,34.4,31.6,34.4c8.2,0,15.8-3.4,20.8-9.5
	c0.3-0.5,0.8-0.5,1.3-0.3c0.5,0.3,0.8,0.5,0.8,1.1v7.2H172V492.1z M61.1,480.7c-11.6,0-20.5-9.3-20.5-21.2c0-11.9,9-21.2,20.5-21.2
	c11.3,0,20.5,9.3,20.5,21.2C81.7,471.4,72.4,480.7,61.1,480.7z M95.1,492.1v-93.8H80.6v35.2c0,0.5-0.3,1.1-0.8,1.1
	c-0.5,0.3-1.1,0-1.3-0.3c-5-5.8-12.4-9-20.8-9c-17.9,0-31.6,15.1-31.6,34.4c0,9.5,3.2,18,9.2,24.6c5.8,6.4,14,9.8,22.6,9.8
	c8.2,0,15.8-3.4,20.8-9.5c0.3-0.3,0.8-0.5,1.3-0.3c0.5,0.3,0.8,0.5,0.8,1.1v6.9h14.2V492.1z"/>
<path class="st0" d="M398.9,235.9l-78.5,44.5L237,233l-3.9,2.1v34.4l87.4,49.8l78.5-44.5v18.3l-78.5,44.5L237,290.2l-3.9,2.1v5.8
	l87.4,49.8l87.7-49.8v-34.4l-3.9-2.1L320.4,309l-78.2-44.5v-18l78.2,44.2l87.7-49.8v-33.9l-4.5-2.4l-83.2,47.1l-74-42.1l74-41.8
	l61.1,34.4l5.5-2.9v-4.2l-66.6-37.6L233,207.1v5.3l87.4,49.8l78.5-44.5V235.9z"/>
</svg>
