<svg width="250" height="250" viewBox="0 0 250 250" fill="none" xmlns="http://www.w3.org/2000/svg">
<path d="M191 158.37V133.377L188.241 131.848L125.494 167.291L65.9123 133.642L65.9251 119.149L125.494 152.418L191 115.788V91.1738L188.241 89.645L125.494 125.088L68.3663 92.8165L125.494 60.7474L171.623 86.6377L175.081 84.7044V81.8235L125.494 54L60 90.7569V94.3833L125.494 131.115L185.075 97.6812V112.338L125.494 145.987L62.7591 110.557L60 112.086V137.066L125.494 173.697L185.075 140.377V154.946L125.494 188.594L62.7591 153.152L60 154.68V158.37L125.494 195L191 158.37Z" fill="#FF3621"/>
</svg>
