<?xml version="1.0" encoding="UTF-8" standalone="no"?>
<!-- Generator: Adobe Illustrator 19.2.1, SVG Export Plug-In . SVG Version: 6.00 Build 0)  -->

<svg
   version="1.1"
   id="layer"
   x="0px"
   y="0px"
   viewBox="0 0 175.2 190.39999"
   xml:space="preserve"
   sodipodi:docname="databricks.svg"
   width="175.2"
   height="190.39999"
   inkscape:version="1.2.1 (9c6d41e410, 2022-07-14, custom)"
   xmlns:inkscape="http://www.inkscape.org/namespaces/inkscape"
   xmlns:sodipodi="http://sodipodi.sourceforge.net/DTD/sodipodi-0.dtd"
   xmlns="http://www.w3.org/2000/svg"
   xmlns:svg="http://www.w3.org/2000/svg"><defs
   id="defs422" /><sodipodi:namedview
   id="namedview420"
   pagecolor="#ffffff"
   bordercolor="#666666"
   borderopacity="1.0"
   inkscape:showpageshadow="2"
   inkscape:pageopacity="0.0"
   inkscape:pagecheckerboard="0"
   inkscape:deskcolor="#d1d1d1"
   showgrid="false"
   inkscape:zoom="1.5751534"
   inkscape:cx="93.006816"
   inkscape:cy="168.23759"
   inkscape:window-width="3840"
   inkscape:window-height="2083"
   inkscape:window-x="0"
   inkscape:window-y="40"
   inkscape:window-maximized="1"
   inkscape:current-layer="layer" />
<style
   type="text/css"
   id="style413">
	.st0{fill:#FF3621;}
</style>

<path
   class="st0"
   d="M 165.9,78.4 87.4,122.9 4,75.5 0.1,77.6 V 112 l 87.4,49.8 78.5,-44.5 v 18.3 L 87.5,180.1 4,132.7 0.1,134.8 v 5.8 l 87.4,49.8 87.7,-49.8 V 106.2 L 171.3,104.1 87.4,151.5 9.2,107 V 89 l 78.2,44.2 87.7,-49.8 V 49.5 l -4.5,-2.4 -83.2,47.1 -74,-42.1 74,-41.8 61.1,34.4 5.5,-2.9 V 37.6 L 87.4,0 0,49.6 v 5.3 l 87.4,49.8 78.5,-44.5 z"
   id="path417" />
</svg>
