<svg xmlns="http://www.w3.org/2000/svg" width="832pt" height="344" viewBox="0 0 832 258"><path d="M.066 257.984h417.055V.008H.066Zm0 0" style="stroke:none;fill-rule:evenodd;fill:#1b1918;fill-opacity:1"/><path d="M341.457 80.508h-48.543l2.988-8.367h45.555ZM212.047 72.137l45.07-.004 2.953 8.39c.02-.011-48.007.012-48.007 0 0-.011-.032-8.382-.016-8.382ZM176.25 72.137c7.43.715 13.887 3.363 19.387 8.386 0 0-81.696.008-81.696 0v-8.386ZM49.828 80.508h56.758v-8.371H49.828ZM341.457 96.215h-54.11s2.954-8.328 2.934-8.332h51.176ZM265.645 96.223h-53.602v-8.34h50.664ZM202 87.879c1.078 2.75 2.352 5.101 2.352 8.332h-90.395v-8.332ZM49.828 96.21h56.758V87.88H49.828ZM281.813 111.957l2.972-8.367 40.625.012v8.335ZM268.254 103.586l2.957 8.371h-43.184v-8.371ZM205.066 103.586c0 2.867-.359 5.86-1.195 8.371h-24.75v-8.371ZM65.648 111.953h24.395v-8.328H65.648ZM130.375 111.953h24.352v-8.367h-24.352ZM252.016 120.992s.004 6.336 0 6.348h-23.989v-8.328h45.715l2.84 7.765c.012.004 2.734-7.785 2.742-7.77h46.074v8.333h-23.875l-.011-6.344-2.211 6.344-45.082-.012ZM130.375 119.008h69.91c-1.531 2.789-4.305 6.18-6.937 8.332 0 0-62.973.012-62.973 0v-8.332ZM65.648 127.34h24.395v-8.332H65.648ZM301.523 143.043h23.875v-8.328h-23.875ZM252.016 134.715h-23.989v8.328c-.015-.004 23.993.004 23.993 0s.027-8.328-.004-8.328ZM296.703 134.715c-.11-.012-2.797 8.324-2.91 8.328l-34.004.016c-.027-.012-2.988-8.356-2.992-8.344ZM130.371 134.71h62.86c2.867 2.395 5.46 5.345 7.492 8.333.117-.004-70.348.004-70.348 0l-.004-8.332ZM90.04 143.043v-8.332H65.686s.008 8.328 0 8.328l24.352.004ZM301.523 158.75h23.872v-8.332h-23.872ZM228.023 158.746h23.993v-8.328h-23.993ZM288.21 158.79c.009-.04 2.946-8.38 2.99-8.372h-28.907c-.05-.004 2.965 8.332 2.965 8.332s22.945.074 22.953.04ZM130.375 158.746c0 .035-.004-8.328 0-8.328h24.715s.02 8.332 0 8.332c-.024 0-24.715-.008-24.715-.004ZM204.191 150.418c1.196 2.508 1.317 5.5 1.555 8.367H179.56v-8.367ZM65.688 158.746h24.351v-8.328H65.687ZM301.523 174.133h39.934V165.8h-39.934ZM212.043 174.133h39.973V165.8h-39.973ZM282.84 174.133h-12.192l-2.925-8.332h17.937ZM49.824 165.8v8.329h56.719c.023.016-.027-8.324 0-8.324l-56.719-.004ZM204.707 165.8c-.598 2.75-1.144 6.098-3.152 8.333l-.75-.004h-86.852V165.8ZM277.313 189.855h-1.122l-2.851-8.351h6.898ZM301.523 189.875h39.934v-8.371h-39.934ZM113.941 189.855v-8.335l82.176.011c-5.504 5.258-13.05 8.227-21.18 8.344l-60.984-.016ZM212.043 189.875h39.973v-8.371h-39.973ZM106.543 181.543s-.027 8.312 0 8.312c.023 0-56.7.036-56.719.016-.011-.016.016-8.351 0-8.351-.011 0 56.692.05 56.719.023ZM355.258 172.96c1.531 0 3.027.392 4.492 1.185a8.346 8.346 0 0 1 3.41 3.375c.817 1.464 1.223 2.992 1.223 4.582 0 1.57-.399 3.09-1.203 4.539a8.457 8.457 0 0 1-3.38 3.382c-1.448.805-2.964 1.207-4.542 1.207-1.582 0-3.098-.402-4.547-1.207a8.5 8.5 0 0 1-3.387-3.382c-.804-1.45-1.21-2.97-1.21-4.54 0-1.59.41-3.117 1.23-4.581.82-1.465 1.96-2.594 3.418-3.375 1.465-.793 2.96-1.184 4.496-1.184Zm0 1.513c-1.285 0-2.535.332-3.75.988a7.077 7.077 0 0 0-2.852 2.82c-.687 1.223-1.027 2.496-1.027 3.82 0 1.317.336 2.575 1.012 3.782a7.168 7.168 0 0 0 2.824 2.824c1.21.672 2.476 1.012 3.793 1.012 1.312 0 2.578-.34 3.789-1.012a7.133 7.133 0 0 0 2.82-2.824c.672-1.207 1.004-2.465 1.004-3.781 0-1.325-.344-2.598-1.023-3.82a7.029 7.029 0 0 0-2.852-2.821c-1.219-.656-2.465-.988-3.738-.988Zm-4.012 12.668v-9.817h3.379c1.156 0 1.992.09 2.508.274.52.18.93.496 1.238.949.309.45.461.93.461 1.437 0 .715-.258 1.344-.773 1.871-.512.536-1.196.833-2.043.899.343.144.625.316.832.52.398.382.882 1.03 1.457 1.945l1.195 1.922h-1.926l-.875-1.547c-.683-1.219-1.242-1.98-1.664-2.29-.289-.222-.71-.331-1.27-.327h-.933v4.164Zm1.586-5.528h1.926c.922 0 1.55-.136 1.883-.41a1.33 1.33 0 0 0 .504-1.082c0-.289-.082-.55-.243-.777a1.403 1.403 0 0 0-.668-.512c-.289-.113-.82-.168-1.597-.168h-1.805Zm0 0" style="stroke:none;fill-rule:evenodd;fill:#fff;fill-opacity:1"/><path d="M417.121 256.523h414.957V-.039H417.121Zm0 0" style="stroke:none;fill-rule:evenodd;fill:#09af05;fill-opacity:1"/><path d="M488.617 182.531V67.81h31.68c40.414 0 60.648 18.625 60.648 55.925 0 17.696-5.625 31.926-16.847 42.684-11.223 10.73-26.243 16.113-45.086 16.113Zm13.438-102.57v90.418h17.12c15.048 0 26.735-4.043 35.118-12.098 8.387-8.058 12.562-19.472 12.562-34.246 0-29.383-15.62-44.074-46.886-44.074Zm101.449 102.57V67.81h32.633c9.914 0 17.804 2.43 23.593 7.265 5.817 4.86 8.739 11.196 8.739 18.977 0 6.5-1.774 12.152-5.297 16.957-3.524 4.808-8.356 8.222-14.555 10.242v.328c7.727.902 13.926 3.824 18.57 8.738 4.641 4.942 6.961 11.36 6.961 19.254 0 9.801-3.523 17.75-10.566 23.84-7.047 6.086-15.922 9.121-26.652 9.121Zm13.433-102.57v37.059h13.766c7.344 0 13.133-1.778 17.367-5.329 4.207-3.55 6.309-8.546 6.309-15.02 0-11.14-7.32-16.71-22.012-16.71Zm0 49.125v41.293h18.243c7.894 0 14.011-1.887 18.351-5.598 4.371-3.742 6.528-8.879 6.528-15.375 0-13.547-9.23-20.32-27.692-20.32Zm142.25 53.445h-69.144V170.84l33.453-33.504c8.52-8.547 14.637-15.649 18.27-21.328 3.656-5.68 5.488-11.742 5.488-18.215 0-6.61-1.887-11.715-5.68-15.348-3.797-3.632-9.176-5.433-16.168-5.433-10.242 0-20.043 4.367-29.437 13.105V76.355c8.957-6.992 19.386-10.484 31.293-10.484 10.242 0 18.27 2.785 24.14 8.328 5.871 5.543 8.82 13 8.82 22.336 0 7.348-2.046 14.528-6.09 21.547-4.066 7.02-11.331 15.73-21.843 26.133l-26.488 26.164v.3h53.386ZM773.438 173.691c1.53 0 3.027.395 4.488 1.184a8.355 8.355 0 0 1 3.414 3.375c.812 1.465 1.222 2.996 1.222 4.582 0 1.574-.402 3.09-1.207 4.54a8.448 8.448 0 0 1-3.375 3.382c-1.449.809-2.964 1.207-4.543 1.207-1.582 0-3.097-.399-4.55-1.207a8.491 8.491 0 0 1-3.383-3.383c-.805-1.45-1.211-2.965-1.211-4.539 0-1.586.41-3.117 1.227-4.582a8.469 8.469 0 0 1 3.421-3.375c1.461-.79 2.957-1.184 4.496-1.184Zm0 1.512c-1.286 0-2.54.332-3.754.988a7.029 7.029 0 0 0-2.848 2.825c-.688 1.222-1.031 2.492-1.031 3.816 0 1.316.34 2.578 1.011 3.785a7.193 7.193 0 0 0 2.829 2.82c1.21.672 2.472 1.012 3.793 1.012 1.312 0 2.578-.34 3.789-1.012a7.149 7.149 0 0 0 2.82-2.82c.668-1.207 1.004-2.469 1.004-3.785 0-1.324-.344-2.594-1.024-3.816a7.014 7.014 0 0 0-2.851-2.825c-1.219-.656-2.465-.988-3.739-.988Zm-4.012 12.668v-9.816h3.379c1.156 0 1.992.09 2.508.273.519.18.93.496 1.238.95.304.449.46.929.46 1.437 0 .715-.257 1.344-.773 1.87-.511.536-1.195.833-2.047.9.348.144.63.316.836.519.395.383.88 1.035 1.453 1.945l1.2 1.922h-1.926l-.875-1.543c-.688-1.223-1.242-1.984-1.664-2.289-.29-.226-.711-.336-1.27-.332h-.933v4.164Zm1.586-5.527h1.926c.921 0 1.546-.137 1.882-.41a1.33 1.33 0 0 0 .504-1.082c0-.29-.082-.551-.242-.778a1.458 1.458 0 0 0-.672-.512c-.289-.109-.816-.167-1.594-.167h-1.804Zm0 0" style="stroke:none;fill-rule:evenodd;fill:#fff;fill-opacity:1"/></svg>