<?xml version="1.0" standalone="no"?>
<!DOCTYPE svg PUBLIC "-//W3C//DTD SVG 20010904//EN"
 "http://www.w3.org/TR/2001/REC-SVG-20010904/DTD/svg10.dtd">
<svg version="1.0" xmlns="http://www.w3.org/2000/svg"
 width="350.000000pt" height="131.000000pt" viewBox="0 0 350.000000 131.000000"
 preserveAspectRatio="xMidYMid meet">
<g transform="translate(0.000000,131.000000) scale(0.100000,-0.100000)"
fill="#000000" stroke="none">
<path d="M27 1102 c-15 -16 -17 -52 -17 -292 l0 -273 63 60 c34 33 77 68 95
77 46 24 130 23 179 -3 l40 -20 43 44 43 44 -19 43 c-24 53 -24 131 1 178 10
19 45 63 78 97 l60 63 -275 0 c-254 0 -276 -1 -291 -18z"/>
<path d="M735 1108 c-32 -17 -165 -150 -182 -182 -14 -27 -11 -96 4 -96 3 0
23 16 44 35 40 36 62 38 87 7 19 -24 15 -39 -23 -81 -39 -42 -34 -51 27 -51
25 0 47 16 119 86 92 91 115 128 105 169 -9 35 -65 95 -103 111 -39 17 -52 17
-78 2z"/>
<path d="M1127 1113 c-4 -3 -7 -141 -7 -305 l0 -298 110 0 110 0 0 206 0 206
134 -4 c131 -3 135 -4 177 -33 63 -45 92 -107 93 -203 1 -94 -16 -158 -57
-207 -52 -64 -74 -68 -334 -73 l-233 -4 0 -95 0 -95 268 4 c252 4 270 5 327
28 74 29 170 121 206 197 l24 52 29 -55 c60 -113 156 -188 274 -213 29 -6 149
-11 267 -11 l215 0 0 94 0 94 -212 4 c-204 3 -215 4 -258 28 -83 46 -114 121
-108 260 3 76 7 93 33 135 52 83 73 89 328 93 l217 3 0 101 0 100 -232 -4
c-209 -4 -240 -7 -297 -27 -113 -39 -180 -97 -229 -198 l-26 -52 -28 58 c-54
114 -162 187 -310 211 -69 11 -471 14 -481 3z"/>
<path d="M2840 1115 c0 -3 0 -206 0 -452 l0 -448 330 -3 330 -2 0 95 0 95
-225 0 -225 0 -2 357 -3 358 -102 3 c-57 1 -103 0 -103 -3z"/>
<path d="M850 725 c-76 -76 -128 -101 -195 -92 -25 4 -59 14 -77 23 l-31 16
-45 -45 -45 -45 19 -39 c24 -49 24 -127 1 -175 -10 -20 -44 -64 -75 -97 l-57
-61 272 0 c234 0 274 2 287 16 14 13 16 54 16 290 0 151 -1 274 -3 274 -1 0
-32 -29 -67 -65z"/>
<path d="M210 579 c-31 -12 -166 -144 -186 -181 -18 -35 -18 -52 3 -95 22 -48
86 -93 131 -93 31 0 46 11 129 93 74 73 95 99 99 127 2 19 0 41 -5 49 -8 12
-16 9 -46 -17 -42 -38 -68 -40 -89 -10 -22 30 -21 32 20 78 l36 40 -27 10
c-31 12 -32 12 -65 -1z"/>
</g>
</svg>
