<svg width="256px" height="256px" viewBox="0 0 256 256" version="1.1" xmlns="http://www.w3.org/2000/svg" xmlns:xlink="http://www.w3.org/1999/xlink" preserveAspectRatio="xMidYMid">
  <g>
    <path d="M128,0 C57.308,0 0,57.308 0,128 C0,198.692 57.308,256 128,256 C198.692,256 256,198.692 256,128 C256,57.308 198.692,0 128,0 L128,0 Z M82.264,189.391 C111.391,212.999 156.988,206.397 183.252,174.964 C157.775,171.587 127.693,163.607 103.29,154.091 C96.691,166.83 91.626,176.959 82.264,189.391 Z M157.161,60.675 C141.199,64.767 120.326,100.374 108.048,139.357 C137.822,152.863 161.151,158.388 193.381,162.276 C193.381,162.276 223.156,95.667 157.161,60.675 Z M146.417,224.384 C111.637,231.072 66.609,212.873 49.88,186.168 C49.88,186.168 73.815,159.629 80.422,144.115 C73.298,138.588 69.013,135.408 64.468,131.355 C38.24,107.969 38.706,75.783 65.467,52.928 C95.304,27.446 140.72,23.325 175.761,42.922 C211.144,62.71 231.327,103.424 224.918,142.085 C217.891,184.469 186.089,216.755 146.417,224.384 L146.417,224.384 Z M134.139,55.559 C114.082,55.269 98.922,59.294 84.833,69.253 C61.674,85.623 62.8,111.739 87.613,127.32 C99.453,100.067 109.036,75.278 134.139,55.559" fill="#4C4C4B"></path>
  </g>
</svg>