<svg xmlns="http://www.w3.org/2000/svg" width="400" height="471.186"><g fill-rule="evenodd"><path fill="#6574bc" d="M212.796 19.958c-.552.177-3.162.447-5.8.6-2.638.154-5.696.526-6.796.829-1.1.302-3.44.77-5.2 1.039-1.76.269-3.65.712-4.2.984-.55.273-1.764.622-2.698.778-.934.155-1.788.428-1.899.607-.11.178-1.146.551-2.302.828-1.155.277-2.691.835-3.413 1.24-.722.406-1.586.737-1.921.737-.335 0-1.274.341-2.088.758-.813.417-3.369 1.694-5.679 2.838-2.31 1.144-5.46 2.865-7 3.823-1.54.959-3.34 2.046-4 2.416-.66.371-1.344.919-1.52 1.219-.176.3-.507.546-.737.546-.229 0-.895.37-1.48.821-1.722 1.331-3.906 2.935-4.873 3.579-.496.33-1.371.965-1.946 1.411-.574.446-1.854 1.337-2.844 1.979-.99.643-1.98 1.362-2.2 1.599-.22.237-1.39 1.098-2.6 1.914-1.21.816-2.92 2.024-3.8 2.684-.88.659-1.87 1.321-2.2 1.471-.33.15-.87.517-1.2.817-.903.821-6.007 4.525-6.235 4.525-.109 0-.416.183-.682.407-1.682 1.417-5.914 4.393-6.245 4.393-.219 0-.542.225-.718.5-.313.49-3.961 3.1-4.332 3.1-.103 0-.503.281-.888.625-.781.698-3.132 2.457-4.51 3.375-.496.33-1.371.965-1.946 1.411-.574.446-1.85 1.346-2.835 2-.984.654-3.324 2.315-5.2 3.692a603.546 603.546 0 0 1-4.209 3.07 549.552 549.552 0 0 1-7.564 5.272c-1.519 1.04-3.358 2.414-4.086 3.052l-1.322 1.162 1.486 1.944a102.665 102.665 0 0 1 2.486 3.4c.55.801 1.279 1.758 1.62 2.126.569.615 1.569 2.017 2.58 3.616.35.553 1.496 2.082 4.586 6.118.448.585.814 1.251.814 1.48 0 .23.228.561.507.737.279.176.817.77 1.197 1.32.379.55 1.366 1.989 2.193 3.197s1.773 2.495 2.103 2.86c.33.364 1.016 1.265 1.524 2.003 2.049 2.97 6.08 8.576 6.562 9.125 1.008 1.147 2.714 3.613 2.714 3.923 0 .173.315.607.7.964.385.358 1.15 1.302 1.7 2.099a44.86 44.86 0 0 0 1.9 2.539c.494.6.899 1.225.9 1.39 0 .165.315.642.7 1.06.385.417 1.15 1.412 1.7 2.21.55.797 1.405 1.941 1.9 2.54.494.6.899 1.225.9 1.39 0 .165.315.642.7 1.06.385.417 1.15 1.425 1.7 2.238.55.814 1.315 1.772 1.7 2.13.385.357.7.809.7 1.003 0 .195.448.919.996 1.611 1.635 2.064 2.127 2.727 4.193 5.658 1.086 1.54 2.122 2.98 2.303 3.2.181.22 1.762 2.38 3.513 4.8 3.469 4.794 3.373 4.663 4.7 6.4.505.66 1.452 2.01 2.105 3 .653.99 1.278 1.89 1.389 2 .644.641 2.801 3.6 2.801 3.843 0 .159.275.575.61.923.945.981 4.59 6.035 4.59 6.363 0 .161.315.586.7.943.385.358 1.15 1.307 1.7 2.11 1.446 2.11 7.001 9.64 8.7 11.793.495.627.9 1.233.9 1.347 0 .262 4.982 7.066 5.792 7.912.335.348.608.786.608.974 0 .187.405.772.9 1.299l.9.958.072 27.867c.065 24.961.138 27.881.7 27.997.345.071.628-.035.628-.237 0-.201.63-.705 1.4-1.12.77-.415 1.4-.897 1.4-1.073 0-.175.405-.495.9-.71.495-.216 1.71-1.021 2.7-1.789.99-.768 2.186-1.566 2.658-1.773.472-.206.922-.522 1-.701.147-.338.651-.71 4.342-3.209 1.21-.819 2.29-1.586 2.4-1.703.515-.551 3.583-2.814 3.814-2.814.144 0 1.326-.81 2.628-1.8s2.526-1.8 2.72-1.8c.194 0 .456-.27.583-.6.126-.33.414-.6.638-.6.224 0 1.473-.81 2.775-1.8 1.302-.99 2.504-1.8 2.671-1.8.167 0 .589-.281.937-.624.349-.343 1.894-1.504 3.434-2.581 1.54-1.077 3.063-2.191 3.385-2.476.321-.286 1.581-1.196 2.8-2.023 2.575-1.748 4.17-2.877 7.215-5.106 1.21-.886 3.19-2.275 4.4-3.087 1.21-.811 2.29-1.583 2.4-1.716.11-.132 1.1-.844 2.2-1.583s2.47-1.717 3.044-2.174c.575-.456 1.455-1.1 1.956-1.43a38.13 38.13 0 0 0 1.956-1.411c.574-.446 1.854-1.346 2.844-2 .99-.654 2.149-1.504 2.575-1.889.427-.385.894-.7 1.039-.7.145 0 .646-.315 1.114-.7a44.687 44.687 0 0 1 2.289-1.7 59.699 59.699 0 0 0 2.568-1.9c.622-.495 1.321-.9 1.553-.9.232 0 .566-.228.742-.507.328-.519.707-.802 4.52-3.367 1.21-.814 2.47-1.714 2.8-2.001 1.432-1.244 3.134-2.525 3.353-2.525.131 0 1.303-.81 2.605-1.8s2.46-1.8 2.574-1.8c.419 0 9.258-6.839 9.578-7.41.181-.324.546-.594.81-.598.705-.013 12.68-12.311 12.68-13.023 0-.166.276-.587.613-.935 2.03-2.101 6.578-8.64 8.089-11.634.278-.55.944-1.72 1.481-2.6.537-.88 1.176-2.05 1.42-2.6 1.065-2.395 2.514-5.482 3.034-6.462.31-.584.563-1.306.563-1.606 0-.299.336-1.171.747-1.938.41-.767.878-2.024 1.039-2.794.161-.77.518-1.76.795-2.2.276-.44.627-1.642.781-2.671.153-1.03.629-2.87 1.058-4.09.429-1.221.78-2.821.78-3.556 0-.736.266-2.233.591-3.328 1.85-6.229 1.85-27.959 0-34.417-.325-1.133-.591-2.705-.591-3.491 0-.787-.284-2.141-.631-3.009-.348-.868-.872-2.627-1.166-3.908-.661-2.887-1.63-5.82-2.636-7.974-.422-.904-.767-1.866-.767-2.138 0-.272-.257-.972-.57-1.556-1.184-2.205-3.03-6.343-3.03-6.794 0-.257-.16-.468-.357-.468-.196 0-.651-.675-1.011-1.5-.359-.825-1.179-2.31-1.821-3.3-.642-.99-1.403-2.194-1.689-2.675-.993-1.663-5.082-7.53-6.083-8.725a65.524 65.524 0 0 1-1.722-2.151c-.699-.927-9.366-9.655-10.773-10.849-4.155-3.526-12.251-9.6-12.796-9.6-.146 0-1.234-.643-2.419-1.43-4.053-2.69-15.505-8.036-19.212-8.968-.926-.233-1.779-.578-1.896-.768-.117-.189-.889-.464-1.717-.61-.827-.147-2.224-.527-3.104-.843-.88-.317-3.19-.845-5.133-1.175-1.943-.329-3.723-.717-3.955-.861-1.262-.78-21.264-1.98-23.116-1.387M223.6 86.087c1.65.243 3.36.666 3.8.939.44.272 1.43.623 2.2.779.77.156 1.67.513 2 .792.33.28 1.024.638 1.541.796 1.028.313 3.449 1.791 4.559 2.782.385.344.803.625.928.625 1.752 0 9.27 9.052 11.629 14.002 2.105 4.419 2.51 5.531 2.767 7.598.15 1.21.521 3.183.824 4.384.702 2.78.703 6.048.002 8.832-.302 1.201-.659 3.042-.793 4.091-.134 1.049-.607 2.705-1.05 3.678-.444.974-.807 2.023-.807 2.332 0 .308-.36.976-.8 1.483-.44.507-.8 1.101-.8 1.32 0 1.754-7.481 10.031-11.6 12.835-1.21.824-2.92 2.035-3.8 2.691-.88.657-2.703 1.95-4.052 2.874a658.144 658.144 0 0 0-6.272 4.38c-4.784 3.381-5.288 3.338-8.076-.692a38.78 38.78 0 0 0-1.7-2.24c-.495-.596-.9-1.222-.9-1.392 0-.17-.275-.594-.61-.942-.762-.792-4.59-6.005-4.59-6.252 0-.1-.281-.497-.625-.882s-1.148-1.42-1.786-2.3c-.639-.88-1.438-1.96-1.776-2.4-.337-.44-1.863-2.51-3.391-4.6-1.527-2.09-2.927-3.98-3.111-4.2-.184-.22-.959-1.29-1.723-2.378-.763-1.087-1.658-2.28-1.988-2.649-.33-.37-1.41-1.882-2.4-3.361-.99-1.479-2.076-2.987-2.414-3.35-.337-.364-1.142-1.472-1.787-2.462-.645-.99-1.415-2.07-1.71-2.4-.295-.33-1.422-1.86-2.505-3.4-1.083-1.54-2.248-3.16-2.59-3.6-.342-.44-1.153-1.52-1.803-2.4a80.313 80.313 0 0 0-1.532-2.025c-1.513-1.835-1.494-3.813.046-4.623.492-.26.985-.592 1.095-.738.11-.147 1.19-.934 2.4-1.749 1.21-.815 3.82-2.649 5.8-4.076 3.825-2.756 6.165-4.411 7.621-5.389.491-.33 1.706-1.168 2.699-1.861.992-.694 2.227-1.391 2.742-1.549.516-.158 1.174-.477 1.463-.709 3.444-2.76 13.798-3.934 22.875-2.594M96.704 319.936c-1.808 1.094-1.904 2.019-1.904 18.314v15.332l-.966.632c-.859.563-1.708.581-7.646.161-9.266-.654-25.161-.304-28.388.626-1.32.38-3.162.844-4.094 1.032-.932.187-2.102.599-2.6.915-.498.315-1.479.693-2.178.838-.7.146-1.478.512-1.728.814-.25.302-.983.664-1.628.806-.644.142-1.172.419-1.172.616 0 .196-.548.641-1.219.988-1.902.983-5.886 4.637-7.685 7.047-.386.519-1.106 1.483-1.6 2.143-1.515 2.029-4.679 9.067-4.714 10.488-.009.392-.292 1.432-.628 2.312-1.987 5.202-2.194 35.959-.267 39.6.233.44.644 1.873.914 3.184.27 1.311.719 2.751.997 3.2.279.449.629 1.342.779 1.984.15.643.621 1.612 1.048 2.154.426.542.775 1.133.775 1.312 0 1.38 6.547 8.799 9.56 10.832 2.85 1.924 8.088 4.604 9.64 4.931.77.162 1.85.531 2.4.818 3.711 1.942 22.117 2.969 32.597 1.821 1.982-.218 6.393-.601 9.803-.852 3.41-.251 6.92-.693 7.8-.982.88-.29 2.636-.621 3.902-.736 3.205-.291 4.547-1.408 4.883-4.066.139-1.1.199-29.605.134-63.344l-.119-61.344-1.385-1.156-1.385-1.156-6.415.037c-5.22.029-6.619.16-7.511.699m46.64.082c-1.977 1.267-2.215 2.351-2.072 9.433l.128 6.349 1.2 1.2 1.2 1.2 6.804.125 6.804.124 1.459-1.124c1.801-1.388 1.935-2.003 1.927-8.875-.009-8.689-.617-9.253-9.953-9.243-5.564.006-6.377.094-7.497.811M316.6 354.433c-2.64.199-5.917.633-7.282.964-1.365.332-3.451.603-4.636.603-4.03 0-5.878 2.326-5.878 7.4 0 6.22 2.324 7.866 8.996 6.374 3.519-.786 31.424-1.308 34-.635 3.075.803 5.957 1.932 6.111 2.395.086.256.392.466.681.466.446 0 1.403.974 3.446 3.509.225.279.597 1.089.825 1.8.229.71.703 1.921 1.054 2.691.84 1.841.97 12.065.164 12.877-.399.402-3.827.578-14.8.76-8.356.139-15.028.424-16.081.686-.99.247-2.88.619-4.2.827-4.635.729-11.899 3.072-13.431 4.331-.348.286-.82.519-1.05.519-1.934 0-7.851 6.478-9.682 10.6-4.578 10.305-2.256 26.484 4.863 33.883 2.358 2.451 7.029 5.512 8.421 5.519.264.002 1.019.298 1.679.659 4.593 2.509 27.85 3.799 39.4 2.184 1.43-.2 5.21-.574 8.4-.831 3.19-.257 6.7-.722 7.8-1.033 1.1-.31 2.831-.666 3.846-.789 1.998-.243 3.088-1.137 3.899-3.198 1.462-3.717.134-69.679-1.458-72.394-.258-.44-.654-1.544-.881-2.453-.226-.91-.68-1.877-1.009-2.149-.328-.273-.597-.76-.597-1.084 0-3.585-10.894-11.506-18.107-13.166a161.153 161.153 0 0 1-4.093-.996c-2.094-.552-24.215-.784-30.4-.319m-172.762 1.168c-2.871 1.835-2.664-2.105-2.545 48.448l.107 45.351 1.138 1.2 1.137 1.2 6.469.126c7.444.144 8.134-.026 9.356-2.316l.9-1.686v-44.378c0-49.964.212-46.534-2.974-48.053-2.173-1.036-11.919-.959-13.588.108m43.059.047c-1.722 1.103-2.051 2.477-.948 3.968.468.633.851 1.25.851 1.369 0 .12 2.295 3.088 5.1 6.595 2.805 3.508 7.08 8.908 9.5 12.002 2.42 3.093 4.67 5.959 5 6.368.33.409 1.05 1.336 1.6 2.061.55.724 2.579 3.313 4.508 5.753 1.93 2.44 3.82 4.839 4.2 5.332a47.736 47.736 0 0 0 1.543 1.867c1.016 1.161.853 2.792-.411 4.115-1.924 2.01-2.24 2.41-2.24 2.836 0 .245-.238.59-.53.766-.291.176-1.497 1.58-2.681 3.12-1.183 1.54-4.734 6.04-7.89 10-3.156 3.96-6.135 7.717-6.619 8.349a58.792 58.792 0 0 1-1.68 2.081 62.98 62.98 0 0 0-1.519 1.851c-.396.505-2.646 3.361-5 6.345-6.177 7.831-6.146 7.781-6.004 9.489.111 1.34.279 1.537 1.723 2.013 2.328.767 14.592.51 15.603-.328.626-.519 4.419-5.131 6.51-7.916A82.304 82.304 0 0 1 209 441.78c.44-.543 1.111-1.391 1.492-1.884.38-.493 2.27-2.909 4.2-5.37a2754.43 2754.43 0 0 0 7.908-10.154c8.138-10.504 6.192-10.854 16.8 3.024 1.98 2.59 5.083 6.621 6.895 8.957a570 570 0 0 1 3.885 5.047c.324.44 1.497 1.906 2.605 3.259 1.108 1.352 2.015 2.613 2.015 2.803 0 .19.36.57.8.845.44.275.8.67.8.878 0 .592 1.985 2.429 3.071 2.842 1.253.476 13.827.47 15.888-.008 2.459-.57 3.042-2.778 1.341-5.083l-1.7-2.309a41.409 41.409 0 0 0-1.6-2.019 53.648 53.648 0 0 1-1.6-1.979c-.44-.577-.98-1.27-1.2-1.54-2.542-3.117-3.4-4.292-3.4-4.656 0-.238-.161-.433-.358-.433-.196 0-1.411-1.389-2.7-3.087-3.34-4.402-3.467-4.559-4.242-5.259-.385-.348-.7-.763-.7-.922 0-.321-9.865-12.83-11.177-14.174-.453-.463-.823-.983-.823-1.154 0-.172-.405-.707-.9-1.189-.495-.481-1.26-1.391-1.7-2.02a41.06 41.06 0 0 0-1.7-2.227c-.547-.659-.9-1.62-.9-2.454 0-.903.307-1.659.9-2.217a17.335 17.335 0 0 0 1.601-1.772c1.671-2.203 6.428-8.177 6.948-8.725.313-.33 1.101-1.32 1.751-2.2.65-.88 1.426-1.87 1.725-2.2.3-.33 2.494-3.12 4.878-6.2 2.383-3.08 4.618-5.906 4.965-6.281a20.95 20.95 0 0 0 1.032-1.2c.22-.286 2.172-2.74 4.338-5.454 5.063-6.344 5.706-8.486 2.959-9.856-1.768-.883-14.366-.89-15.097-.009-.274.33-.701.606-.949.612-.248.007-1.057.817-1.798 1.8-.74.984-1.505 1.788-1.7 1.788-.194 0-.353.178-.353.397 0 .357-2.016 3.183-3.293 4.615a27.29 27.29 0 0 0-1.189 1.478c-.375.5-1.545 2.02-2.6 3.376a191.967 191.967 0 0 0-2.718 3.567c-1.041 1.434-6.842 8.924-9.177 11.851-1.003 1.257-1.823 2.453-1.823 2.658 0 1.711-2.791.71-4.4-1.578-.77-1.095-1.76-2.409-2.2-2.92a22.81 22.81 0 0 1-1.4-1.832 46.786 46.786 0 0 0-1.6-2.192c-.55-.71-1.36-1.793-1.8-2.407a37.97 37.97 0 0 0-1.6-2.056 40.084 40.084 0 0 1-1.8-2.357c-.55-.78-1.36-1.847-1.8-2.371-.849-1.011-1.504-1.858-3.42-4.429-1.889-2.534-2.525-3.364-3.38-4.409-.44-.537-1.415-1.802-2.167-2.81-2.311-3.1-3.273-3.382-11.517-3.374-6.524.006-7.224.076-8.419.841m-95.348 13.925c.742.22 1.777.68 2.3 1.022l.951.623v32.363c0 37.294.538 33.421-4.692 33.8-1.929.141-5.384.427-7.677.637-8.142.746-20.345-.091-22.127-1.517-.277-.222-.954-.533-1.504-.692-2.488-.719-8.372-6.03-8.395-7.578-.003-.202-.248-.652-.544-1-4.655-5.45-4.499-41.454.207-47.585.403-.525.732-1.14.732-1.366 0-.227.27-.698.599-1.046 1.39-1.47 3.644-3.715 4.201-4.184 1.083-.912 4.767-2.65 5.619-2.65.458 0 1.227-.213 1.707-.474.481-.261 1.504-.614 2.274-.785 1.941-.431 24.692-.058 26.349.432m262.622 37.056c.894.893.957 29.4.068 30.139-.696.577-6.022 1.1-16.439 1.614-15.847.783-22.469-1.299-24.877-7.819-3.18-8.61-.43-18.967 5.593-21.062.706-.246 1.522-.684 1.813-.974.29-.29.933-.527 1.427-.527s1.876-.299 3.071-.664c4.365-1.333 28.145-1.907 29.344-.707"/><path fill="#fbfbfb" d="M0 235.4v235.4h400V0H0v235.4M227.8 18.801c4.659.511 12.462 1.851 14.987 2.573 1.203.344 2.558.626 3.011.626.453 0 1.179.243 1.613.539.434.297 1.413.66 2.176.808 1.325.256 5.26 1.688 7.813 2.843.66.298 2.37 1.031 3.8 1.628 1.43.597 2.87 1.311 3.2 1.587.33.275 1.05.633 1.6.795.55.162 1.27.531 1.601.819.33.289 1.05.721 1.6.961.549.24 1.809.969 2.799 1.62.99.651 2.16 1.352 2.6 1.557.44.206 1.16.658 1.6 1.006.44.347 2.6 1.967 4.8 3.598 2.2 1.632 4.965 3.883 6.145 5.003 1.18 1.12 2.232 2.036 2.337 2.036.231 0 5.287 5.245 7.518 7.799.88 1.007 1.828 2.085 2.107 2.394.959 1.066 3.293 4.214 3.293 4.443 0 .126.608.98 1.35 1.897.743.917 1.648 2.207 2.012 2.867.364.66 1.018 1.74 1.453 2.4.435.66 1.16 1.92 1.613 2.8.452.88 1.796 3.49 2.987 5.8 1.191 2.31 2.17 4.426 2.175 4.701.006.276.37 1.174.81 1.995.44.82.801 1.765.802 2.098.002.333.279 1.135.616 1.781.336.646.792 1.996 1.011 3 .219 1.004.644 2.365.944 3.025.3.66.674 2.172.832 3.361.158 1.189.527 2.737.821 3.44.294.703.731 3.241.971 5.639s.608 4.99.817 5.76c.494 1.815.482 16.516-.015 18.6-.21.88-.571 3.553-.802 5.94-.231 2.386-.664 4.924-.962 5.639-.299.714-.671 2.271-.827 3.46-.155 1.189-.539 2.69-.853 3.338-.314.647-.684 1.907-.823 2.8-.14.892-.586 2.25-.993 3.017-.406.767-.74 1.757-.74 2.2-.001.443-.361 1.395-.8 2.116-.44.72-.799 1.502-.799 1.738 0 .458-3.995 8.816-4.374 9.152-.124.11-.671 1.084-1.216 2.165-1.437 2.852-5.056 8.287-7.514 11.284a25.558 25.558 0 0 0-1.296 1.758c-2.073 3.144-15.095 16.042-16.953 16.793-.273.11-.754.427-1.071.705-.317.277-1.296 1.038-2.176 1.691-.88.652-1.87 1.42-2.2 1.708-.33.287-1.41 1.051-2.4 1.698-.99.646-2.27 1.541-2.844 1.987a39.14 39.14 0 0 1-1.8 1.315c-2.215 1.478-6.438 4.493-6.987 4.988-.346.313-.886.69-1.2.839-.313.148-1.379.898-2.369 1.667-.99.77-2.205 1.575-2.7 1.791-.495.215-.9.545-.9.734 0 .188-.495.592-1.1.897-.605.306-1.398.831-1.762 1.168-.363.336-1.871 1.422-3.35 2.412s-2.995 2.084-3.369 2.431c-.374.346-.936.754-1.25.907-.313.152-1.289.818-2.169 1.481-.88.663-2.05 1.515-2.6 1.893-.55.378-3.008 2.127-5.462 3.888-2.454 1.76-4.86 3.47-5.347 3.8-.487.33-2.042 1.455-3.456 2.5-1.415 1.045-2.683 1.9-2.82 1.9-.136 0-.533.281-.881.624-.544.535-4.59 3.471-6.99 5.072-.415.277-1.225.871-1.8 1.319-1.089.85-1.609 1.214-5.244 3.659-1.21.814-2.47 1.726-2.8 2.026-.519.473-4.694 3.476-6.947 4.996-.411.277-1.904 1.359-3.318 2.404-1.415 1.045-2.663 1.9-2.774 1.9-.111 0-1.591 1.045-3.289 2.322-1.698 1.277-3.354 2.447-3.68 2.6-.326.153-1.402.896-2.392 1.652-5.891 4.495-6.814 4.919-8.091 3.712-.05-.047-.185-12.967-.3-28.71l-.209-28.623-1-1.249a57.87 57.87 0 0 1-2-2.697c-.55-.797-1.72-2.426-2.6-3.62-.88-1.195-2.77-3.811-4.2-5.814-1.43-2.003-2.792-3.852-3.026-4.108-.235-.256-1.372-1.815-2.528-3.465s-2.719-3.81-3.474-4.8c-.755-.99-1.491-2.07-1.636-2.4-.145-.33-.55-.902-.9-1.271-.35-.368-1.055-1.268-1.567-2-2.373-3.385-6.511-8.991-7.06-9.563-.335-.348-.609-.745-.609-.881 0-.137-.902-1.472-2.005-2.967-2.725-3.694-3.051-4.128-4.199-5.576-.548-.692-.996-1.387-.996-1.544 0-.158-.681-1.122-1.512-2.142a55.79 55.79 0 0 1-2.7-3.648c-.654-.986-1.411-2.066-1.683-2.4-.272-.334-2.108-2.858-4.079-5.608-1.971-2.75-3.863-5.285-4.205-5.634-.341-.348-.621-.752-.621-.898 0-.24-4.406-6.225-6.381-8.668-.445-.55-.811-1.135-.814-1.3-.003-.165-.32-.642-.705-1.06-.385-.417-1.15-1.412-1.7-2.21a44.905 44.905 0 0 0-1.9-2.54c-.494-.6-.899-1.225-.9-1.39 0-.165-.315-.642-.7-1.06-.385-.417-1.15-1.426-1.7-2.24-.55-.814-1.315-1.823-1.7-2.24-.385-.418-.7-.869-.7-1.002s-.405-.741-.9-1.35a53.33 53.33 0 0 1-1.7-2.232 44.94 44.94 0 0 0-1.7-2.208c-.495-.596-.9-1.176-.9-1.29 0-.173-4.488-6.415-5.527-7.687-.184-.225-.963-1.322-1.731-2.439-.768-1.116-1.617-2.282-1.888-2.591-.27-.308-1.379-1.821-2.465-3.361-2.047-2.904-2.543-3.574-4.155-5.613-2.086-2.639-1.665-3.69 2.636-6.591 5.105-3.444 6.094-4.146 6.376-4.532.135-.185.605-.545 1.043-.8.917-.534 2.967-1.969 6.111-4.28 1.21-.889 2.65-1.921 3.2-2.294.91-.616 5.222-3.664 6.209-4.389.226-.166 1.306-.925 2.4-1.687 1.095-.762 2.217-1.605 2.493-1.874.277-.268.862-.602 1.3-.741.439-.139.798-.425.798-.636 0-.21.405-.562.9-.781.495-.22 1.62-.941 2.5-1.603.88-.662 2.05-1.512 2.6-1.888.55-.377 1.18-.823 1.4-.993 1.667-1.283 3.74-2.763 6.021-4.298 1.471-.99 2.963-2.115 3.316-2.5.352-.385.798-.7.99-.7.191 0 1.413-.81 2.715-1.8 1.302-.99 2.485-1.8 2.629-1.8.144 0 .547-.281.895-.624.349-.343 1.894-1.504 3.434-2.581 1.54-1.077 2.98-2.103 3.2-2.28.22-.176.85-.629 1.4-1.006.55-.376 1.72-1.226 2.6-1.888.88-.662 2.005-1.383 2.5-1.603.495-.219.9-.561.9-.76 0-.198.54-.585 1.2-.858.66-.273 1.2-.632 1.2-.797 0-.166 1.005-.909 2.232-1.652 1.228-.743 2.443-1.542 2.7-1.775.258-.233 1.008-.701 1.668-1.039 2.455-1.261 4.005-2.144 4.2-2.395.302-.391 8.747-4.34 9.31-4.355.269-.006 1.39-.455 2.49-.996 1.1-.541 2.279-.985 2.62-.987.341-.002.791-.17 1-.372.366-.354 2.722-1.079 7.38-2.27 1.21-.31 3.1-.83 4.2-1.156 2.059-.611 8.81-1.722 13.4-2.206 3.831-.404 16.113-.403 19.8.001m-18 68.419c-.66.186-2.293.588-3.629.895-1.337.306-2.957.835-3.6 1.176-.644.34-1.621.818-2.171 1.061-.55.243-1.36.664-1.8.935-2.93 1.806-4.125 2.588-5.044 3.302A38.13 38.13 0 0 1 191.6 96c-.501.33-1.381.969-1.956 1.421-.932.732-3.895 2.775-6.742 4.648-.559.368-1.126.818-1.259 1-.238.325-.725.661-2.954 2.042-1.256.779-1.785 2.184-1.116 2.966.489.57 5.434 7.32 6.911 9.433A71.917 71.917 0 0 0 186 119.6c.33.429 1.05 1.419 1.6 2.2.55.781 1.405 1.911 1.9 2.51.494.6.899 1.225.9 1.39 0 .165.36.705.8 1.2 1.595 1.795 1.948 2.255 2.425 3.17.267.511.738 1.2 1.046 1.53.308.33 1.806 2.31 3.329 4.4 1.523 2.09 3.01 4.07 3.304 4.4.504.566 1.318 1.726 2.696 3.84.33.507 1.607 2.235 2.837 3.84 4.544 5.929 7.163 9.553 7.163 9.912 0 .202.228.512.506.688.278.176 1.178 1.312 2 2.524 2.486 3.666 3.132 3.762 6.694.994.99-.769 2.07-1.52 2.4-1.669.33-.149.69-.374.8-.5.343-.393 3.317-2.585 5.2-3.834.99-.656 1.89-1.293 2-1.414.11-.122 1.1-.841 2.2-1.597 4.532-3.117 8.466-6.762 10.341-9.584 2.734-4.114 4.173-6.925 4.503-8.8.135-.77.541-1.85.901-2.4.965-1.473.972-16.812.008-18.6-.355-.66-.775-1.92-.933-2.8-.158-.88-.521-1.87-.807-2.2-.285-.33-.655-1.047-.822-1.592-.167-.546-.61-1.446-.985-2a209.26 209.26 0 0 1-1.841-2.808c-1.583-2.456-6.865-7.64-9.447-9.272l-2.918-1.841c-.44-.277-1.43-.774-2.2-1.105-.77-.331-1.716-.78-2.103-.997-.664-.374-3.725-1.212-7.297-1.998-2.01-.442-10.795-.419-12.4.033m-97.414 231.504c.558.413 1.416 1.454 1.907 2.314l.894 1.562-.002 61.8c-.002 59.12-.034 61.869-.737 63.4-1.349 2.938-3.349 3.89-9.661 4.597-2.083.233-5.227.68-6.987.992-9.949 1.765-35.186 1.63-40.702-.218-1.265-.424-2.716-.771-3.223-.771-.507 0-1.271-.264-1.699-.587-.427-.323-1.027-.593-1.334-.6-.492-.012-5.038-2.165-7.386-3.499-1.729-.983-6.857-5.572-8.433-7.549-5.446-6.827-7.816-13.166-9.482-25.365-1.541-11.291.753-33.808 4.019-39.442.242-.417.619-1.208.839-1.758.442-1.108.958-1.977 2.3-3.873.496-.701.905-1.421.909-1.6.01-.385 3.658-4.208 5.656-5.927 3.212-2.764 9.423-6.222 12.48-6.947A31.053 31.053 0 0 0 55 354.247c.88-.336 2.114-.62 2.742-.629.629-.01 2.249-.324 3.6-.699 3.558-.986 20.005-.954 25.483.048 2.104.385 4.354.64 5 .567L93 353.4l.2-15.8c.218-17.234.153-16.769 2.636-18.83 1.665-1.382 14.699-1.418 16.55-.046m46.741-.039c2.43 1.814 2.662 2.523 2.812 8.584.183 7.372-.048 8.769-1.759 10.636l-1.369 1.495H143.4l-1.458-1.167c-3.162-2.529-3.358-15.548-.281-18.695 2.031-2.078 14.978-2.71 17.466-.853m185.331 34.356c1.241.307 2.861.567 3.6.577.738.009 2.062.292 2.942.627.88.335 2.32.787 3.2 1.005.88.217 2.195.745 2.923 1.172.727.428 1.484.778 1.682.778.341 0 2.253 1.187 4.357 2.706 2.951 2.13 6.625 6.53 8.011 9.595l1.181 2.6c.426.935.901 2.419 1.057 3.299.156.88.533 2.583.836 3.784.449 1.771.553 8.472.553 35.456v33.272l-1.3 1.439c-1.458 1.615-5.22 3.043-8.052 3.057-.906.005-2.818.272-4.248.595-1.43.322-6.56.853-11.4 1.18-35.111 2.372-47.821-1.126-55.748-15.345-4.439-7.963-3.349-27.545 1.824-32.767.288-.29.524-.65.524-.8.001-.338 1.657-2.025 3.962-4.035 3.104-2.707 10.532-6.055 15.238-6.869a83.568 83.568 0 0 0 4.631-.975c3.072-.752 13.662-1.375 23.769-1.4 10.061-.024 9.774.146 9.194-5.457-.537-5.191-1.202-8.935-1.587-8.935-.17 0-.52-.495-.777-1.1-2.617-6.168-10.645-7.425-36.523-5.719-16.5 1.088-17.177.712-16.609-9.25.221-3.878 1.307-5.604 3.89-6.189a89.43 89.43 0 0 0 3.012-.779c1.1-.302 4.499-.736 7.553-.965 3.054-.229 5.752-.539 5.996-.69 1.495-.924 22.469-.818 26.309.133m-184.763 2.465 1.705 1.706v92.736l-1.147 1.197c-3.899 4.069-16.629 3.915-19.348-.235-.663-1.011-.705-3.849-.705-47.582V356.82l1.365-1.247c2.049-1.872 2.491-1.956 9.73-1.861l6.695.088 1.705 1.706m45.858-.608c1.218 1.026 3.916 4.193 5.258 6.171.324.478 2.147 2.908 4.051 5.4 1.904 2.492 4.825 6.331 6.491 8.531 1.666 2.2 3.31 4.36 3.654 4.8.343.44 1.636 2.105 2.872 3.7 2.837 3.662 2.979 3.646 6.336-.733 1.532-1.999 3.955-5.13 5.385-6.958 1.43-1.829 2.96-3.824 3.4-4.434.44-.61 2.01-2.654 3.488-4.542a708.633 708.633 0 0 0 3.4-4.366c3.612-4.734 6.351-7.86 7.338-8.374.712-.37 3.097-.477 8.862-.4l7.888.107 1.196 1.4c2.341 2.742 1.971 3.52-7.009 14.712-2.775 3.459-5.431 6.8-5.904 7.425a24.217 24.217 0 0 1-1.759 2.046c-.495.5-.9 1.053-.9 1.229 0 .177-.262.606-.581.954-1.191 1.298-2.056 2.333-3.39 4.06-.754.976-1.613 2.044-1.907 2.374-1.805 2.019-9.877 12.35-10.217 13.075-.457.974-.893.359 10.221 14.425 3.259 4.125 6.319 8.015 6.8 8.643 1.106 1.447 1.608 2.075 5.058 6.328 1.549 1.909 2.816 3.664 2.816 3.9 0 .236.155.429.345.429.189 0 1.396 1.395 2.683 3.1 1.286 1.705 2.571 3.37 2.856 3.7 5.278 6.118 5.984 8.931 2.819 11.224L275.48 454h-7.793c-9.799 0-9.382.231-16.4-9.116a82.304 82.304 0 0 0-1.487-1.904c-.44-.543-1.111-1.391-1.492-1.884-.88-1.14-4.459-5.802-5.396-7.029a94.73 94.73 0 0 0-3.29-4.12c-.672-.799-1.222-1.564-1.222-1.7 0-.136-.315-.594-.7-1.019a38.95 38.95 0 0 1-1.571-1.9 316.45 316.45 0 0 0-2.7-3.401c-1.006-1.25-1.829-2.465-1.829-2.7 0-.235-.167-.427-.371-.427-.205 0-.625-.253-.934-.562-.483-.483-.709-.385-1.601.7-1.045 1.269-7.655 9.655-8.982 11.395-.392.513-1.024 1.323-1.406 1.8-.382.477-1.96 2.487-3.506 4.467-1.546 1.98-3.051 3.87-3.343 4.2-.292.33-1.762 2.22-3.266 4.2-7.047 9.279-6.561 9-15.715 9h-6.756l-1.606-1.164c-3.408-2.468-2.797-4.107 5.317-14.256 3.508-4.389 7.088-8.925 7.956-10.08.868-1.155 1.72-2.1 1.895-2.1.175 0 .318-.268.318-.597 0-.328.36-.821.8-1.096.44-.275.8-.629.8-.788 0-.158 1.935-2.692 4.3-5.631 2.365-2.939 4.744-5.932 5.287-6.652a47.91 47.91 0 0 1 1.8-2.233 40.562 40.562 0 0 0 1.613-1.99 32.255 32.255 0 0 1 1.47-1.808c2.158-2.399 1.981-3.229-1.671-7.846a424.43 424.43 0 0 1-3.507-4.475 25.073 25.073 0 0 0-1.33-1.6c-.351-.376-1.871-2.304-3.378-4.284a390.465 390.465 0 0 0-5.361-6.861c-2.527-3.142-3.004-3.751-4.939-6.306-.486-.642-2.685-3.432-4.886-6.2-7.298-9.178-7.864-10.919-4.417-13.568 1.155-.888 1.369-.905 9.625-.786l8.443.121 1.304 1.098M69.4 370.28c-3.189.29-8.42 1.386-9.286 1.947-.487.315-1.103.573-1.368.573-.602 0-5.522 3.678-5.536 4.138-.006.186-.415.906-.91 1.6-1.283 1.799-2.622 4.814-2.915 6.563-.138.824-.547 2.399-.908 3.499-.86 2.616-.971 27.785-.13 29.322.277.507.679 2.003.892 3.325.212 1.322.741 3.065 1.174 3.872.433.808.787 1.623.787 1.812 0 2.364 6.568 7.326 11.8 8.914 4.501 1.366 28.948 1.11 29.85-.313.759-1.196.417-63.82-.35-64.123-.619-.245-20.087-1.473-21.1-1.331-.22.031-1.12.122-2 .202m270.2 37.194c-12.587.938-16.354 1.389-17.813 2.133-.856.436-1.807.793-2.114.793-.307 0-1.072.433-1.7.962-.629.529-1.285 1.024-1.458 1.1-2.319 1.018-3.818 8.069-3.006 14.138.671 5.016 1.931 6.86 6.091 8.914l2.2 1.086 14.6-.005c11.397-.003 14.885-.124 15.9-.548l1.3-.544-.003-13.652-.003-13.651-1.077-.5c-1.01-.469-8.008-.592-12.917-.226"/><path fill="#b6bddb" d="M208 18.8c-4.59.484-11.341 1.595-13.4 2.206-1.1.326-2.99.846-4.2 1.156-4.658 1.191-7.014 1.916-7.38 2.27-.209.202-.659.37-1 .372-.341.002-1.52.446-2.62.987-1.1.541-2.221.99-2.49.996-.563.015-9.008 3.964-9.31 4.355-.195.251-1.745 1.134-4.2 2.395-.66.338-1.41.806-1.668 1.039-.257.233-1.472 1.032-2.7 1.775-1.227.743-2.232 1.486-2.232 1.652 0 .165-.54.524-1.2.797-.66.273-1.2.66-1.2.858 0 .199-.405.541-.9.76-.495.22-1.62.941-2.5 1.603-.88.662-2.05 1.512-2.6 1.888-.55.377-1.18.83-1.4 1.006-.22.177-1.66 1.203-3.2 2.28-1.54 1.077-3.085 2.238-3.434 2.581-.348.343-.751.624-.895.624-.144 0-1.327.81-2.629 1.8s-2.524 1.8-2.715 1.8c-.192 0-.638.315-.99.7-.353.385-1.845 1.51-3.316 2.5-2.281 1.535-4.354 3.015-6.021 4.298-.22.17-.85.616-1.4.993-.55.376-1.72 1.226-2.6 1.888-.88.662-2.005 1.383-2.5 1.603-.495.219-.9.571-.9.781 0 .211-.359.497-.798.636-.438.139-1.023.473-1.3.741-.276.269-1.398 1.112-2.493 1.874a230.152 230.152 0 0 0-2.4 1.687c-.987.725-5.299 3.773-6.209 4.389-.55.373-1.99 1.405-3.2 2.294-3.144 2.311-5.194 3.746-6.111 4.28-.438.255-.908.615-1.043.8-.282.386-1.271 1.088-6.376 4.532-4.301 2.901-4.722 3.952-2.636 6.591 1.612 2.039 2.108 2.709 4.155 5.613 1.086 1.54 2.195 3.053 2.465 3.361.271.309 1.12 1.475 1.888 2.591.768 1.117 1.547 2.214 1.731 2.439 1.039 1.272 5.527 7.514 5.527 7.687 0 .114.405.694.9 1.29a44.94 44.94 0 0 1 1.7 2.208 53.33 53.33 0 0 0 1.7 2.232c.495.609.9 1.217.9 1.35s.315.584.7 1.002c.385.417 1.15 1.426 1.7 2.24.55.814 1.315 1.823 1.7 2.24.385.418.7.895.7 1.06.001.165.406.79.9 1.39.495.599 1.35 1.743 1.9 2.54.55.798 1.315 1.793 1.7 2.21.385.418.702.895.705 1.06.003.165.369.75.814 1.3 1.975 2.443 6.381 8.428 6.381 8.668 0 .146.28.55.621.898.342.349 2.234 2.884 4.205 5.634 1.971 2.75 3.807 5.274 4.079 5.608.272.334 1.029 1.414 1.683 2.4a55.79 55.79 0 0 0 2.7 3.648c.831 1.02 1.512 1.984 1.512 2.142 0 .157.448.852.996 1.544 1.148 1.448 1.474 1.882 4.199 5.576 1.103 1.495 2.005 2.83 2.005 2.967 0 .136.274.533.609.881.549.572 4.687 6.178 7.06 9.563.512.732 1.217 1.632 1.567 2 .35.369.755.941.9 1.271.145.33.881 1.41 1.636 2.4.755.99 2.318 3.15 3.474 4.8 1.156 1.65 2.293 3.209 2.528 3.465.234.256 1.596 2.105 3.026 4.108 1.43 2.003 3.32 4.619 4.2 5.814.88 1.194 2.05 2.823 2.6 3.62.55.796 1.45 2.01 2 2.697l1 1.249.209 28.623c.115 15.743.25 28.663.3 28.71 1.277 1.207 2.2.783 8.091-3.712.99-.756 2.066-1.499 2.392-1.652.326-.153 1.982-1.323 3.68-2.6 1.698-1.277 3.178-2.322 3.289-2.322.111 0 1.359-.855 2.774-1.9 1.414-1.045 2.907-2.127 3.318-2.404 2.253-1.52 6.428-4.523 6.947-4.996.33-.3 1.59-1.212 2.8-2.026 3.635-2.445 4.155-2.809 5.244-3.659a38.061 38.061 0 0 1 1.8-1.319c2.4-1.601 6.446-4.537 6.99-5.072.348-.343.745-.624.881-.624.137 0 1.405-.855 2.82-1.9 1.414-1.045 2.969-2.17 3.456-2.5.487-.33 2.893-2.04 5.347-3.8a618.378 618.378 0 0 1 5.462-3.888c.55-.378 1.72-1.23 2.6-1.893.88-.663 1.856-1.329 2.169-1.481.314-.153.876-.561 1.25-.907.374-.347 1.89-1.441 3.369-2.431 1.479-.99 2.987-2.076 3.35-2.412.364-.337 1.157-.862 1.762-1.168.605-.305 1.1-.709 1.1-.897 0-.189.405-.519.9-.734.495-.216 1.71-1.021 2.7-1.791.99-.769 2.056-1.519 2.369-1.667.314-.149.854-.526 1.2-.839.549-.495 4.772-3.51 6.987-4.988a39.14 39.14 0 0 0 1.8-1.315c.574-.446 1.854-1.341 2.844-1.987.99-.647 2.07-1.411 2.4-1.698.33-.288 1.32-1.056 2.2-1.708.88-.653 1.859-1.414 2.176-1.691.317-.278.798-.595 1.071-.705 1.858-.751 14.88-13.649 16.953-16.793.33-.5.913-1.291 1.296-1.758 2.458-2.997 6.077-8.432 7.514-11.284.545-1.081 1.092-2.055 1.216-2.165.379-.336 4.374-8.694 4.374-9.152 0-.236.359-1.018.799-1.738.439-.721.799-1.673.8-2.116 0-.443.334-1.433.74-2.2.407-.767.853-2.125.993-3.017.139-.893.509-2.153.823-2.8.314-.648.698-2.149.853-3.338.156-1.189.528-2.746.827-3.46.298-.715.731-3.253.962-5.639.231-2.387.592-5.06.802-5.94.497-2.084.509-16.785.015-18.6-.209-.77-.577-3.362-.817-5.76-.24-2.398-.677-4.936-.971-5.639-.294-.703-.663-2.251-.821-3.44-.158-1.189-.532-2.701-.832-3.361-.3-.66-.725-2.021-.944-3.025-.219-1.004-.675-2.354-1.011-3-.337-.646-.614-1.448-.616-1.781-.001-.333-.362-1.278-.802-2.098-.44-.821-.804-1.719-.81-1.995-.005-.275-.984-2.391-2.175-4.701-1.191-2.31-2.535-4.92-2.987-5.8-.453-.88-1.178-2.14-1.613-2.8a43.206 43.206 0 0 1-1.453-2.4c-.364-.66-1.269-1.95-2.012-2.867-.742-.917-1.35-1.771-1.35-1.897 0-.229-2.334-3.377-3.293-4.443A323.114 323.114 0 0 1 297 54.599c-2.231-2.554-7.287-7.799-7.518-7.799-.105 0-1.157-.916-2.337-2.036-1.18-1.12-3.945-3.371-6.145-5.003-2.2-1.631-4.36-3.251-4.8-3.598-.44-.348-1.16-.8-1.6-1.006-.44-.205-1.61-.906-2.6-1.557-.99-.651-2.25-1.38-2.799-1.62-.55-.24-1.27-.672-1.6-.961-.331-.288-1.051-.657-1.601-.819-.55-.162-1.27-.52-1.6-.795-.33-.276-1.77-.99-3.2-1.587-1.43-.597-3.14-1.33-3.8-1.628-2.553-1.155-6.488-2.587-7.813-2.843-.763-.148-1.742-.511-2.176-.808-.434-.296-1.16-.539-1.613-.539-.453 0-1.808-.282-3.011-.626-8.341-2.386-24.927-3.613-34.787-2.574m23.252 1.216c3.601.449 7.358 1.06 8.348 1.356.99.296 2.52.658 3.4.803 5.59.922 21.322 7.319 27.002 10.979 2.055 1.325 2.63 1.667 3.898 2.323.715.369 1.3.796 1.3.949 0 .152.54.501 1.2.774.66.273 1.2.625 1.2.781 0 .156.855.839 1.9 1.517 1.045.677 2.35 1.615 2.9 2.084.55.468 1.9 1.605 3 2.526 7.792 6.525 18.777 19.455 21.453 25.251.213.462.819 1.561 1.347 2.441.839 1.401 2.644 5.01 4.402 8.8 1.54 3.321 2.545 5.851 2.804 7.059.157.738.43 1.521.606 1.741.622.78 3.199 11.194 3.959 16 2.614 16.54.952 34.726-4.552 49.8-2.018 5.528-2.223 6.03-3.978 9.722-8.093 17.028-19.048 29.493-37.315 42.46-7.874 5.589-12.642 8.999-14.286 10.218-.742.55-1.755 1.27-2.25 1.6-.496.33-1.371.967-1.946 1.415a48.903 48.903 0 0 1-2.044 1.501c-3.261 2.233-6.477 4.494-8.4 5.905a247.21 247.21 0 0 1-3.461 2.496 1793.34 1793.34 0 0 0-10.911 7.803 199.527 199.527 0 0 1-4.028 2.812 234.59 234.59 0 0 0-5.459 3.88c-1.792 1.314-3.657 2.658-4.145 2.988-.488.33-1.489 1.05-2.225 1.6s-1.93 1.416-2.655 1.924c-.724.509-2.936 2.075-4.916 3.482-1.98 1.406-4.14 2.937-4.8 3.401-.66.465-3.81 2.712-7 4.993s-6.34 4.529-7 4.995c-.66.466-3.449 2.462-6.198 4.437-2.748 1.974-5.268 3.537-5.6 3.473-.527-.101-.627-3.606-.802-28.14l-.2-28.024-1.2-1.723c-.66-.948-1.47-2.114-1.8-2.592-.33-.477-2.49-3.447-4.8-6.601-2.31-3.153-4.903-6.743-5.761-7.979a138.615 138.615 0 0 0-3-4.128 111.385 111.385 0 0 1-2.439-3.321c-.55-.791-1.72-2.415-2.6-3.608-.88-1.193-2.05-2.815-2.6-3.603-.55-.789-1.192-1.648-1.426-1.91-.235-.262-1.101-1.458-1.925-2.657-.825-1.2-2.841-3.99-4.481-6.2-2.426-3.269-7.632-10.423-19.087-26.227A3205.696 3205.696 0 0 1 116 137.561a542.487 542.487 0 0 0-4.2-5.782 290.392 290.392 0 0 1-2.678-3.666c-.593-.832-2.522-3.493-4.287-5.913a2856.13 2856.13 0 0 1-6.322-8.708 3455.814 3455.814 0 0 0-4.113-5.682c-.55-.756-1.72-2.375-2.6-3.598-1.77-2.46-3.486-4.789-4.43-6.012-4.504-5.838-4.758-6.722-2.389-8.314 2.181-1.467 6.392-4.424 6.819-4.789.481-.412 16.16-11.517 19.715-13.965 1.384-.953 2.782-1.973 3.108-2.268.325-.295 1.533-1.182 2.684-1.971 1.151-.79 3.173-2.216 4.493-3.17 2.522-1.822 4.925-3.516 6.416-4.523.489-.33 2.261-1.59 3.938-2.8a3474.278 3474.278 0 0 1 15.762-11.274c.725-.509 1.919-1.376 2.655-1.926a78.628 78.628 0 0 1 2.084-1.508c.41-.279 1.645-1.15 2.745-1.936 7.988-5.708 15.511-9.909 23.162-12.936 4.584-1.814 12.293-4.314 14.238-4.617a31.77 31.77 0 0 0 3.6-.827c.99-.3 4.86-.911 8.6-1.358l8.2-.979c2.659-.318 11.525.162 18.052.977M210.2 86.37c-3.965.648-9.542 2.679-12.2 4.442-.55.364-1.81 1.186-2.8 1.825-.99.64-2.014 1.343-2.276 1.563-.262.22-1.072.816-1.8 1.324-10.106 7.054-14.539 10.439-14.649 11.187-.103.7 2.719 4.998 5.45 8.299.186.226.682.946 1.102 1.6.419.655.945 1.404 1.168 1.666.223.262.825 1.072 1.337 1.8.513.728 2.403 3.328 4.2 5.777 1.798 2.45 4.888 6.672 6.868 9.383 1.98 2.712 5.071 6.918 6.869 9.347a592.3 592.3 0 0 1 4.2 5.727c.512.72 1.651 2.276 2.531 3.459.88 1.182 2.86 3.901 4.4 6.042 4.883 6.789 3.488 6.807 13.344-.175 3.599-2.55 7.289-5.153 8.2-5.784 22.277-15.444 23.183-44.365 1.899-60.664-7.076-5.419-18.82-8.295-27.843-6.818m12 .817c3.572.786 6.633 1.624 7.297 1.998.387.217 1.333.666 2.103.997.77.331 1.76.828 2.2 1.105l2.918 1.841c2.582 1.632 7.864 6.816 9.447 9.272.638.99 1.467 2.253 1.841 2.808.375.554.818 1.454.985 2 .167.545.537 1.262.822 1.592.286.33.649 1.32.807 2.2.158.88.578 2.14.933 2.8.964 1.788.957 17.127-.008 18.6-.36.55-.766 1.63-.901 2.4-.33 1.875-1.769 4.686-4.503 8.8-1.875 2.822-5.809 6.467-10.341 9.584-1.1.756-2.09 1.475-2.2 1.597-.11.121-1.01.758-2 1.414-1.883 1.249-4.857 3.441-5.2 3.834-.11.126-.47.351-.8.5-.33.149-1.41.9-2.4 1.669-3.562 2.768-4.208 2.672-6.694-.994-.822-1.212-1.722-2.348-2-2.524-.278-.176-.506-.486-.506-.688 0-.359-2.619-3.983-7.163-9.912-1.23-1.605-2.507-3.333-2.837-3.84-1.378-2.114-2.192-3.274-2.696-3.84-.294-.33-1.781-2.31-3.304-4.4-1.523-2.09-3.021-4.07-3.329-4.4-.308-.33-.779-1.019-1.046-1.53-.477-.915-.83-1.375-2.425-3.17-.44-.495-.8-1.035-.8-1.2-.001-.165-.406-.79-.9-1.39a49.978 49.978 0 0 1-1.9-2.51 83.624 83.624 0 0 0-1.6-2.2 71.917 71.917 0 0 1-1.516-2.09c-1.477-2.113-6.422-8.863-6.911-9.433-.669-.782-.14-2.187 1.116-2.966 2.229-1.381 2.716-1.717 2.954-2.042.133-.182.7-.632 1.259-1 2.847-1.873 5.81-3.916 6.742-4.648A35.243 35.243 0 0 1 191.6 96a38.13 38.13 0 0 0 1.956-1.411c.919-.714 2.114-1.496 5.044-3.302.44-.271 1.25-.692 1.8-.935.55-.243 1.527-.721 2.171-1.061.643-.341 2.263-.87 3.6-1.176 1.336-.307 2.969-.709 3.629-.895 1.605-.452 10.39-.475 12.4-.033M98.554 317.934c-5.047.686-5.117.942-5.354 19.666l-.2 15.8-1.175.134c-.646.073-2.896-.182-5-.567-5.478-1.002-21.925-1.034-25.483-.048-1.351.375-2.971.689-3.6.699-.628.009-1.862.293-2.742.629-.88.337-2.345.79-3.256 1.006-3.057.725-9.268 4.183-12.48 6.947-1.998 1.719-5.646 5.542-5.656 5.927-.004.179-.413.899-.909 1.6-1.342 1.896-1.858 2.765-2.3 3.873-.22.55-.597 1.341-.839 1.758-3.266 5.634-5.56 28.151-4.019 39.442 1.666 12.199 4.036 18.538 9.482 25.365 1.576 1.977 6.704 6.566 8.433 7.549 2.348 1.334 6.894 3.487 7.386 3.499.307.007.907.277 1.334.6.428.323 1.192.587 1.699.587.507 0 1.958.347 3.223.771 5.516 1.848 30.753 1.983 40.702.218 1.76-.312 4.904-.759 6.987-.992 6.312-.707 8.312-1.659 9.661-4.597.703-1.531.735-4.28.737-63.4l.002-61.8-.894-1.562c-1.721-3.012-7.722-4.195-15.739-3.104m46.168.049c-3.825.701-5.122 3.428-5.122 10.77 0 5.806.554 8.05 2.342 9.48l1.458 1.167H158.811l1.369-1.495c1.711-1.867 1.942-3.264 1.759-10.636-.15-6.061-.382-6.77-2.812-8.584-1.172-.875-10.882-1.348-14.405-.702m-32.649 1.417c.59.44 1.265 1.213 1.5 1.719.631 1.358.598 125.668-.035 127.057-.933 2.048-3.97 3.013-12.738 4.045-2.53.298-6.04.752-7.8 1.008-6.574.958-29.409.71-34-.369-23.833-5.603-32.995-19.392-32.996-49.66-.001-38.083 17.466-53.503 56.432-49.817 8.553.809 10.207.845 10.938.238.548-.454.626-2.417.626-15.71 0-17.024.035-17.262 2.754-18.726 2.156-1.161 13.691-.999 15.319.215m46.793 0c2.158 1.619 2.334 2.351 2.334 9.714v6.791l-1.279 1.251c-3.059 2.99-15.324 2.964-18.201-.04l-1.12-1.169v-7.131c0-7.861.022-7.937 2.8-9.686 1.815-1.143 13.863-.933 15.466.27m166.33 32.98c-3.632.139-6.803.377-7.047.528-.244.151-2.942.461-5.996.69-3.054.229-6.453.663-7.553.965a89.43 89.43 0 0 1-3.012.779c-2.583.585-3.669 2.311-3.89 6.189-.568 9.962.109 10.338 16.609 9.25 25.878-1.706 33.906-.449 36.523 5.719.257.605.607 1.1.777 1.1.385 0 1.05 3.744 1.587 8.935.58 5.603.867 5.433-9.194 5.457-10.107.025-20.697.648-23.769 1.4a83.568 83.568 0 0 1-4.631.975c-4.706.814-12.134 4.162-15.238 6.869-2.305 2.01-3.961 3.697-3.962 4.035 0 .15-.236.51-.524.8-5.173 5.222-6.263 24.804-1.824 32.767 7.927 14.219 20.637 17.717 55.748 15.345 4.84-.327 9.97-.858 11.4-1.18 1.43-.323 3.342-.59 4.248-.595 2.832-.014 6.594-1.442 8.052-3.057l1.3-1.439V414.64c0-26.984-.104-33.685-.553-35.456-.303-1.201-.68-2.904-.836-3.784-.156-.88-.631-2.364-1.057-3.299l-1.181-2.6c-1.386-3.065-5.06-7.465-8.011-9.595-2.104-1.519-4.016-2.706-4.357-2.706-.198 0-.955-.35-1.682-.778-.728-.427-2.043-.955-2.923-1.172-.88-.218-2.32-.67-3.2-1.005-.88-.335-2.204-.618-2.942-.627-.739-.01-2.359-.27-3.6-.577-2.88-.714-10.82-.986-19.262-.661m19.601 1.471c5.262.71 11.419 2.541 14.003 4.164.33.207 1.32.762 2.2 1.233 5.88 3.147 10.695 10.902 12.406 19.982l.994 5.277v30.82c0 38.861 1.247 35.211-12.6 36.877-2.42.291-5.93.754-7.8 1.027-6.839 1.002-34.703.741-39.2-.367-15.92-3.92-22.961-12.969-22.926-29.464.032-15.351 7.38-24.291 23.126-28.139 7.64-1.866 10.393-2.137 24-2.357 16.353-.264 15 .189 15-5.03 0-17.29-8.131-20.623-43.007-17.628-11.993 1.03-12.393.81-12.393-6.804v-5.027l1.222-1.222c.995-.994 1.739-1.298 4-1.633 1.528-.226 3.318-.569 3.978-.762.994-.291 9.068-.978 20.6-1.753 3.62-.243 11.495.144 16.397.806m-201.032.124c-.459.193-1.449.912-2.2 1.598l-1.365 1.247v46.508c0 43.733.042 46.571.705 47.582 2.719 4.15 15.449 4.304 19.348.235l1.147-1.197v-92.736l-1.705-1.706-1.705-1.706-6.695-.088c-3.682-.048-7.071.07-7.53.263m42.416.49c-3.447 2.649-2.881 4.39 4.417 13.568 2.201 2.768 4.4 5.558 4.886 6.2 1.935 2.555 2.412 3.164 4.939 6.306a390.465 390.465 0 0 1 5.361 6.861c1.507 1.98 3.027 3.908 3.378 4.284.351.377.949 1.097 1.33 1.6.38.504 1.958 2.518 3.507 4.475 3.652 4.617 3.829 5.447 1.671 7.846a32.255 32.255 0 0 0-1.47 1.808 40.562 40.562 0 0 1-1.613 1.99 47.91 47.91 0 0 0-1.8 2.233c-.543.72-2.922 3.713-5.287 6.652-2.365 2.939-4.3 5.473-4.3 5.631 0 .159-.36.513-.8.788-.44.275-.8.768-.8 1.096 0 .329-.143.597-.318.597-.175 0-1.027.945-1.895 2.1-.868 1.155-4.448 5.691-7.956 10.08-8.114 10.149-8.725 11.788-5.317 14.256L185.72 454h6.756c9.154 0 8.668.279 15.715-9 1.504-1.98 2.974-3.87 3.266-4.2.292-.33 1.797-2.22 3.343-4.2s3.124-3.99 3.506-4.467c.382-.477 1.014-1.287 1.406-1.8 1.327-1.74 7.937-10.126 8.982-11.395.892-1.085 1.118-1.183 1.601-.7.309.309.729.562.934.562.204 0 .371.192.371.427s.823 1.45 1.829 2.7a316.45 316.45 0 0 1 2.7 3.401 38.95 38.95 0 0 0 1.571 1.9c.385.425.7.883.7 1.019 0 .136.55.901 1.222 1.7a94.73 94.73 0 0 1 3.29 4.12c.937 1.227 4.516 5.889 5.396 7.029.381.493 1.052 1.341 1.492 1.884.44.544 1.109 1.401 1.487 1.904 7.018 9.347 6.601 9.116 16.4 9.116h7.793l1.623-1.176c3.165-2.293 2.459-5.106-2.819-11.224-.285-.33-1.57-1.995-2.856-3.7-1.287-1.705-2.494-3.1-2.683-3.1-.19 0-.345-.193-.345-.429s-1.267-1.991-2.816-3.9c-3.45-4.253-3.952-4.881-5.058-6.328-.481-.628-3.541-4.518-6.8-8.643-11.114-14.066-10.678-13.451-10.221-14.425.34-.725 8.412-11.056 10.217-13.075.294-.33 1.153-1.398 1.907-2.374 1.334-1.727 2.199-2.762 3.39-4.06.319-.348.581-.777.581-.954 0-.176.405-.729.9-1.229a24.217 24.217 0 0 0 1.759-2.046c.473-.625 3.129-3.966 5.904-7.425 8.98-11.192 9.35-11.97 7.009-14.712l-1.196-1.4-7.888-.107c-5.765-.077-8.15.03-8.862.4-.987.514-3.726 3.64-7.338 8.374-.391.513-1.921 2.478-3.4 4.366-1.478 1.888-3.048 3.932-3.488 4.542-.44.61-1.97 2.605-3.4 4.434-1.43 1.828-3.853 4.959-5.385 6.958-3.357 4.379-3.499 4.395-6.336.733-1.236-1.595-2.529-3.26-2.872-3.7-.344-.44-1.988-2.6-3.654-4.8-1.666-2.2-4.587-6.039-6.491-8.531-1.904-2.492-3.727-4.922-4.051-5.4-1.342-1.978-4.04-5.145-5.258-6.171l-1.304-1.098-8.443-.121c-8.256-.119-8.47-.102-9.625.786m-27.869.672c2.647 1.885 2.481-1.352 2.491 48.508l.01 45.296-.961 1.453c-2.248 3.395-15.179 3.556-18.252.225l-1-1.083-.125-43.468c-.142-49.616-.202-48.087 1.954-50.14 1.87-1.781 2.324-1.869 9.177-1.784 4.951.062 5.515.146 6.706.993m46.527.066c.792.548 1.872 1.59 2.4 2.315.529.725 1.771 2.372 2.761 3.659.99 1.287 2.16 2.838 2.6 3.448.44.61 1.61 2.144 2.6 3.41s2.97 3.854 4.4 5.75c1.43 1.897 3.77 4.961 5.2 6.808 1.43 1.847 3.091 4.068 3.691 4.934 1.215 1.755 2.907 2.396 3.485 1.32.192-.356 1.851-2.573 3.686-4.926 1.836-2.353 5.228-6.731 7.538-9.729 15.024-19.495 13.125-17.992 22.732-17.992h7.333l1.167 1.306c1.836 2.054 1.419 3.791-1.859 7.743a243.16 243.16 0 0 0-2.096 2.551c-.173.22-1.295 1.659-2.495 3.199-1.2 1.539-5.152 6.506-8.782 11.038-3.63 4.533-7.05 8.832-7.6 9.555-.55.723-1.27 1.627-1.6 2.008a52.13 52.13 0 0 0-1.6 2.009c-1.795 2.36-3.261 4.181-3.535 4.388-.552.419-2.465 3.465-2.465 3.926 0 .264 2.295 3.344 5.1 6.845 2.805 3.5 7.762 9.755 11.015 13.898a5745.888 5745.888 0 0 0 12.439 15.773c10.57 13.346 10.248 14.761-3.354 14.761-7.977 0-9.383-.338-11.169-2.689a318.095 318.095 0 0 0-1.538-2.007c-1.061-1.372-1.665-2.155-4.693-6.079-1.54-1.996-4.24-5.488-6-7.759-1.76-2.271-5.18-6.717-7.6-9.88-7.21-9.424-6.26-9.08-10.473-3.786a1199.78 1199.78 0 0 1-3.237 4.054 51.65 51.65 0 0 0-1.49 1.972c-.44.616-1.622 2.121-2.627 3.346-1.005 1.226-3 3.758-4.432 5.628-13.948 18.207-12.586 17.128-21.657 17.17-7.494.036-9.246-.493-9.702-2.927-.398-2.121-2.15.289 20.818-28.642 11.091-13.97 14.074-17.827 14.333-18.536.282-.773.242-.829-9.533-13.208-4.45-5.636-12.22-15.506-18.725-23.787-5.498-6.999-6.087-8.563-3.975-10.561 2.024-1.915 16.284-2.145 18.939-.306M63 370.564c-8.041 2.239-12.243 6.61-14.647 15.236-1.17 4.199-1.605 27.052-.612 32.2 2.499 12.967 7.89 18.074 20.323 19.255 4.543.431 23.331-.094 24.9-.697.99-.379 1.025-1.519 1.031-33.449L94 371.618l-.9-.582c-2.53-1.637-24.672-1.984-30.1-.472m18.8.013c5.5.305 10.315.68 10.7.832.767.303 1.109 62.927.35 64.123-.902 1.423-25.349 1.679-29.85.313-5.232-1.588-11.8-6.55-11.8-8.914 0-.189-.354-1.004-.787-1.812-.433-.807-.962-2.55-1.174-3.872-.213-1.322-.615-2.818-.892-3.325-.841-1.537-.73-26.706.13-29.322.361-1.1.77-2.675.908-3.499.293-1.749 1.632-4.764 2.915-6.563.495-.694.904-1.414.91-1.6.014-.46 4.934-4.138 5.536-4.138.265 0 .881-.258 1.368-.573.866-.561 6.097-1.657 9.286-1.947.88-.08 1.78-.171 2-.202.22-.03 4.9.194 10.4.499m249.8 36.494c-14.422 1.475-19.296 5.453-19.262 15.723.029 8.751 3.43 13.204 11.014 14.425 7.394 1.191 30.247-.015 30.691-1.619.438-1.581.408-26.613-.033-27.774l-.39-1.026-10.31.064c-5.671.035-10.94.128-11.71.207m20.917.629 1.077.5.003 13.651.003 13.652-1.3.544c-1.015.424-4.503.545-15.9.548l-14.6.005-2.2-1.086c-4.16-2.054-5.42-3.898-6.091-8.914-.812-6.069.687-13.12 3.006-14.138.173-.076.829-.571 1.458-1.1.628-.529 1.393-.962 1.7-.962.307 0 1.258-.357 2.114-.793 1.459-.744 5.226-1.195 17.813-2.133 4.909-.366 11.907-.243 12.917.226"/><path fill="#a4acd4" d="M216.112 19.095c1.052.082 2.672.081 3.6-.003.928-.084.068-.151-1.912-.15-1.98.001-2.74.07-1.688.153m-9.007.788c.497.096 1.217.092 1.6-.008.382-.1-.025-.179-.905-.174-.88.004-1.193.086-.695.182m20.4 0c.497.096 1.217.092 1.6-.008.382-.1-.025-.179-.905-.174-.88.004-1.193.086-.695.182m-76.583 23.146-1.122 1.029 1.3-.904c.715-.497 1.3-.961 1.3-1.029 0-.316-.442-.045-1.478.904M143 48.65c-.719.612-.866.855-.367.607.733-.364 2.108-1.681 1.716-1.643-.082.008-.689.474-1.349 1.036m151 3.95c1.417 1.43 2.667 2.6 2.777 2.6.11 0-.96-1.17-2.377-2.6-1.417-1.43-2.667-2.6-2.777-2.6-.11 0 .96 1.17 2.377 2.6M87.185 88.429 85.8 89.658l1.5-1.077c1.326-.951 1.757-1.381 1.385-1.381-.063 0-.738.553-1.5 1.229m147.159 2.347c.52.453 1.135.824 1.367.824.492 0 .468-.02-1.111-.945l-1.2-.702.944.823M242.2 96.8c1.083 1.1 2.06 2 2.17 2 .11 0-.687-.9-1.77-2s-2.06-2-2.17-2c-.11 0 .687.9 1.77 2m-62 6.235-1.2 1.031 1.3-.86c.715-.473 1.3-.938 1.3-1.033 0-.3-.169-.195-1.4.862m139.893 4.165c0 .77.082 1.085.183.7.1-.385.1-1.015 0-1.4-.101-.385-.183-.07-.183.7m-140.529 5.133c.216.403.707.988 1.091 1.3.432.351.335.071-.254-.733-1.05-1.435-1.444-1.702-.837-.567m141.367 4.267c.002 1.54.074 2.121.161 1.291.087-.83.085-2.09-.003-2.8-.089-.71-.16-.031-.158 1.509m-67.597 6.6c0 1.65.071 2.325.157 1.5.087-.825.087-2.175 0-3-.086-.825-.157-.15-.157 1.5m67.603 2.2c.002 1.76.072 2.43.156 1.489.085-.94.084-2.38-.002-3.2-.086-.819-.155-.049-.154 1.711m-130.973 1.333c.216.403.707.988 1.091 1.3.432.351.335.071-.254-.733-1.05-1.435-1.444-1.702-.837-.567m62.929 1.667c0 .77.082 1.085.183.7.1-.385.1-1.015 0-1.4-.101-.385-.183-.07-.183.7m67.2 6.8c0 .77.082 1.085.183.7.1-.385.1-1.015 0-1.4-.101-.385-.183-.07-.183.7M196.8 136c.47.66.944 1.2 1.054 1.2.11 0-.184-.54-.654-1.2-.47-.66-.944-1.2-1.054-1.2-.11 0 .184.54.654 1.2m6.364 8.733c.216.403.707.988 1.091 1.3.432.351.335.071-.254-.733-1.05-1.435-1.444-1.702-.837-.567m2.435 3.167c.523.715 1.014 1.3 1.09 1.3.304 0-.688-1.5-1.344-2.033-.432-.351-.335-.071.254.733m4.365 6.033c.216.403.707.988 1.091 1.3.432.351.335.071-.254-.733-1.05-1.435-1.444-1.702-.837-.567M148.399 182.3c.523.715 1.014 1.3 1.09 1.3.304 0-.688-1.5-1.344-2.033-.432-.351-.335-.071.254.733m146.176 7.4L293.4 191l1.3-1.175c.715-.646 1.3-1.231 1.3-1.3 0-.309-.33-.037-1.425 1.175M251.8 223.05c-.719.612-.866.855-.367.607.733-.364 2.108-1.681 1.716-1.643-.082.008-.689.474-1.349 1.036m-150.681 95.648c1.825.074 4.705.074 6.4-.001 1.695-.075.201-.136-3.319-.135-3.52 0-4.906.062-3.081.136m43.017.008c-.255.162 1.905.245 4.8.186 8.201-.168 9.084-.346 2.064-.416-3.52-.035-6.609.068-6.864.23m-2.332 1.69c-.63.658-1.069 1.26-.975 1.338.094.078.684-.46 1.31-1.196 1.415-1.661 1.206-1.75-.335-.142m-1.243 8.404c0 3.41.061 4.805.136 3.1a85.45 85.45 0 0 0 0-6.2c-.075-1.705-.136-.31-.136 3.1m.239 7.058c0 .216.585.921 1.3 1.567l1.3 1.175-1.2-1.398c-.66-.769-1.245-1.474-1.3-1.567-.055-.092-.1.008-.1.223m7.1 3.239a73.8 73.8 0 0 0 5.8 0c1.595-.076.29-.138-2.9-.138s-4.495.062-2.9.138m-78.218 13.999c1.476.077 3.996.077 5.6.001 1.605-.076.398-.139-2.682-.139-3.08-.001-4.393.061-2.918.138m262.018-.005c.825.087 2.175.087 3 0 .825-.086.15-.157-1.5-.157s-2.325.071-1.5.157m-267.2.385c.385.1 1.015.1 1.4 0 .385-.101.07-.183-.7-.183s-1.085.082-.7.183m15.605.011c.609.092 1.509.09 2-.005.492-.095-.005-.171-1.105-.168-1.1.003-1.503.081-.895.173m243.786.002c.71.088 1.97.09 2.8.003.83-.087.249-.159-1.291-.161-1.54-.002-2.219.069-1.509.158m15.209-.007a5.661 5.661 0 0 0 1.8 0c.495-.095.09-.173-.9-.173s-1.395.078-.9.173m-254.2.394c.385.1 1.015.1 1.4 0 .385-.101.07-.183-.7-.183s-1.085.082-.7.183m233.805.007c.497.096 1.217.092 1.6-.008.382-.1-.025-.179-.905-.174-.88.004-1.193.086-.695.182m-228.8.4c.497.096 1.217.092 1.6-.008.382-.1-.025-.179-.905-.174-.88.004-1.193.086-.695.182m58.395.013c1.375.078 3.625.078 5 0s.25-.142-2.5-.142-3.875.064-2.5.142m43.8.002a111.9 111.9 0 0 0 7 0c1.925-.073.35-.133-3.5-.133s-5.425.06-3.5.133m70.8-.001a85.45 85.45 0 0 0 6.2 0c1.705-.075.31-.136-3.1-.136s-4.805.061-3.1.136m50.205-.014c.497.096 1.217.092 1.6-.008.382-.1-.025-.179-.905-.174-.88.004-1.193.086-.695.182m-40.272.217c.092.055.707.55 1.367 1.1l1.2 1-.97-1.1c-.533-.605-1.148-1.1-1.366-1.1-.219 0-.322.045-.231.1m34.967.3c-.504.217-.578.344-.2.344.33 0 .96-.155 1.4-.344.504-.217.578-.344.2-.344-.33 0-.96.155-1.4.344m-8.025 2.5-1.175 1.3 1.3-1.175c.715-.646 1.3-1.231 1.3-1.3 0-.309-.33-.037-1.425 1.175m-159.182 46.1c0 23.98.048 33.849.107 21.931.059-11.918.059-31.538 0-43.6-.059-12.062-.107-2.311-.107 21.669M38.575 363.7 37.4 365l1.3-1.175c1.212-1.095 1.484-1.425 1.175-1.425-.069 0-.654.585-1.3 1.3m32.936 5.793c.94.085 2.38.084 3.2-.002.819-.086.049-.155-1.711-.154-1.76.002-2.43.072-1.489.156m253.189.002c1.155.081 3.045.081 4.2 0 1.155-.081.21-.147-2.1-.147s-3.255.066-2.1.147m11.207-.005c.719.089 1.799.087 2.4-.004s.013-.164-1.307-.162c-1.32.002-1.812.077-1.093.166m-250.202.397c.609.092 1.509.09 2-.005.492-.095-.005-.171-1.105-.168-1.1.003-1.503.081-.895.173m227.6 0c.609.092 1.509.09 2-.005.492-.095-.005-.171-1.105-.168-1.1.003-1.503.081-.895.173m-283.433 6.332c-.94 1.97-.808 2.305.175.443.446-.846.74-1.608.654-1.695-.087-.086-.46.477-.829 1.252M235.6 382c-.697.88-1.177 1.6-1.067 1.6.11 0 .77-.72 1.467-1.6.697-.88 1.177-1.6 1.067-1.6-.11 0-.77.72-1.467 1.6m138.59 33c.001 17.38.05 24.432.11 15.67.06-8.761.06-22.981 0-31.6-.06-8.618-.11-1.45-.11 15.93M205.2 385.6c.697.88 1.357 1.6 1.467 1.6.11 0-.37-.72-1.067-1.6-.697-.88-1.357-1.6-1.467-1.6-.11 0 .37.72 1.067 1.6m148.94 2.4c0 1.87.069 2.635.153 1.7.084-.935.084-2.465 0-3.4s-.153-.17-.153 1.7m-327.247.8c0 .77.082 1.085.183.7.1-.385.1-1.015 0-1.4-.101-.385-.183-.07-.183.7m-.792 5.4c.004.88.086 1.193.182.695.096-.497.092-1.217-.008-1.6-.1-.382-.179.025-.174.905m310.375-1.101c2.792.068 7.472.069 10.4 0 2.928-.068.644-.124-5.076-.125-5.72 0-8.116.056-5.324.125m-118.444 10.07c-.018.312-.34.942-.717 1.4-.646.784-.632.782.247-.027.513-.472.835-1.102.717-1.4-.175-.439-.222-.434-.247.027m121.868 3.53c2.475.07 6.525.07 9 0 2.475-.071.45-.128-4.5-.128s-6.975.057-4.5.128m-9 .377c.385.1 1.015.1 1.4 0 .385-.101.07-.183-.7-.183s-1.085.082-.7.183M26.101 412.2c.004.88.086 1.193.182.695.096-.497.092-1.217-.008-1.6-.1-.382-.179.025-.174.905m266.549 3.05c-.333 1.667-.01 1.99.35.35.152-.691.193-1.341.091-1.442-.102-.102-.3.389-.441 1.092m-64.475 2.85L227 419.4l1.3-1.175c.715-.646 1.3-1.231 1.3-1.3 0-.309-.33-.037-1.425 1.175m84.081.784c-.135.504-.225 1.546-.201 2.316.034 1.069.12.88.363-.798.335-2.31.254-3.069-.162-1.518m-56.342.92c.227.443.834 1.162 1.349 1.598.904.764.902.75-.057-.405-1.593-1.918-1.727-2.042-1.292-1.193m35.81 3.596c.002 1.32.077 1.812.166 1.093.089-.719.087-1.799-.004-2.4s-.164-.013-.162 1.307m20.304 1.233c.016.862.181 1.927.368 2.367.212.498.255-.031.116-1.4-.268-2.635-.523-3.143-.484-.967M88.905 437.087c.609.092 1.509.09 2-.005.492-.095-.005-.171-1.105-.168-1.1.003-1.503.081-.895.173m-21.4.396c.497.096 1.217.092 1.6-.008.382-.1-.025-.179-.905-.174-.88.004-1.193.086-.695.182m12.786.006c.71.088 1.97.09 2.8.003.83-.087.249-.159-1.291-.161-1.54-.002-2.219.069-1.509.158m263.216.001c.719.089 1.799.087 2.4-.004s.013-.164-1.307-.162c-1.32.002-1.812.077-1.093.166m-13.79.407c1.494.077 3.834.077 5.2-.001 1.365-.078.143-.141-2.717-.141-2.86.001-3.978.065-2.483.142m-188.885 11.341c-.018.351.373.981.868 1.4.892.756.894.755.252-.038-.356-.44-.747-1.07-.868-1.4-.187-.509-.226-.504-.252.038M94.4 452.8c-.792.254-.833.32-.2.32.44 0 1.25-.144 1.8-.32.792-.254.833-.32.2-.32-.44 0-1.25.144-1.8.32m165.336.094c.255.162 3.884.263 8.064.226 8.218-.074 7.203-.244-2.464-.414-3.335-.058-5.855.026-5.6.188m-70.416.204c1.935.074 4.995.073 6.8-.001 1.804-.074.22-.134-3.52-.133-3.74 0-5.216.061-3.28.134m-101.42.391c.715.089 1.885.089 2.6 0 .715-.088.13-.161-1.3-.161-1.43 0-2.015.073-1.3.161m261.805-.002c.609.092 1.509.09 2-.005.492-.095-.005-.171-1.105-.168-1.1.003-1.503.081-.895.173m-282.598.403c.719.089 1.799.087 2.4-.004s.013-.164-1.307-.162c-1.32.002-1.812.077-1.093.166m9.593.005c1.155.081 3.045.081 4.2 0 1.155-.081.21-.147-2.1-.147s-3.255.066-2.1.147m245.4-.008a8.899 8.899 0 0 0 2.2 0c.605-.092.11-.167-1.1-.167-1.21 0-1.705.075-1.1.167m19.6 0a8.899 8.899 0 0 0 2.2 0c.605-.092.11-.167-1.1-.167-1.21 0-1.705.075-1.1.167"/><path fill="#9cacd4" d="M207.8 19.829c-9.163 1.158-14.889 2.355-21.685 4.532-5.392 1.728-8.863 3.194-7.627 3.223.378.009 1.278-.315 2-.721.722-.405 2.258-.963 3.413-1.24 1.156-.277 2.192-.65 2.302-.828.111-.179.965-.452 1.899-.607.934-.156 2.148-.507 2.698-.781.55-.274 2.53-.729 4.4-1.009 1.87-.281 3.85-.686 4.4-.899 4.648-1.805 33.446-1.924 36.315-.151.231.142 2.009.529 3.952.858 1.943.33 4.253.858 5.133 1.175.88.316 2.277.696 3.104.843.828.146 1.6.421 1.717.61.117.19.97.535 1.896.768 3.707.932 15.159 6.278 19.212 8.968 1.185.787 2.273 1.43 2.419 1.43.545 0 8.641 6.074 12.796 9.6 1.407 1.194 10.074 9.922 10.773 10.849a65.524 65.524 0 0 0 1.722 2.151c1.001 1.195 5.09 7.062 6.083 8.725.286.481 1.047 1.685 1.689 2.675.642.99 1.462 2.475 1.821 3.3.36.825.815 1.5 1.011 1.5.197 0 .357.211.357.468 0 .451 1.846 4.589 3.03 6.794.313.584.57 1.284.57 1.556s.345 1.234.767 2.138c1.019 2.183 1.98 5.102 2.655 8.067.564 2.474 2.003 6.17 1.627 4.177-.409-2.17-1.92-7.468-2.469-8.66-.319-.694-.581-1.504-.582-1.8-.002-.297-.252-1.018-.557-1.601-.304-.584-.776-1.754-1.049-2.6-.272-.847-.735-1.989-1.029-2.539-.293-.55-1.18-2.35-1.969-4-.79-1.65-1.867-3.72-2.394-4.6-.528-.88-1.136-1.985-1.353-2.456-2.465-5.356-13.257-18.376-19.846-23.944-1.042-.88-2.188-1.888-2.547-2.241-3.437-3.369-12.941-9.531-21.211-13.751-15.682-8.003-38.533-12.116-55.443-9.979M176 28.008c-.33.199-1.647.837-2.927 1.418-5.077 2.307-13.046 7.162-19.273 11.744-.88.648-2.5 1.815-3.6 2.593-1.1.779-2.99 2.135-4.2 3.013-1.21.878-3.28 2.354-4.6 3.28a785.62 785.62 0 0 0-10 7.101c-2.2 1.583-4.63 3.313-5.4 3.843-.77.531-2.39 1.682-3.6 2.559-1.21.877-3.37 2.413-4.8 3.413-1.43 1-3.32 2.349-4.2 2.997-.88.648-2.5 1.803-3.6 2.567-1.1.764-3.843 2.711-6.095 4.326A1212.705 1212.705 0 0 1 96.2 82.2a389.389 389.389 0 0 0-6.305 4.544c-1.592 1.179-3.562 2.571-4.378 3.094-2.03 1.301-2.484 2.235-1.605 3.304.378.46 1.107 1.427 1.619 2.148.513.72 2.181 3.02 3.708 5.11 1.527 2.09 3.031 4.16 3.342 4.6.312.44 2.064 2.833 3.893 5.317 1.829 2.485 3.506 4.827 3.726 5.206.22.379 1.795 2.53 3.5 4.782 1.705 2.251 3.1 4.169 3.1 4.262 0 .093 1.451 2.118 3.225 4.501 1.773 2.383 3.667 4.962 4.208 5.732.541.77 2.226 3.11 3.744 5.2 1.518 2.09 3.179 4.39 3.692 5.11a86.087 86.087 0 0 0 1.531 2.09c.33.429 1.05 1.418 1.6 2.199.55.781 1.72 2.398 2.6 3.593a724.69 724.69 0 0 1 2.4 3.276l5.884 8.118 7.8 10.762a794.759 794.759 0 0 0 4.316 5.901 472.91 472.91 0 0 1 3.2 4.37c.88 1.219 2.05 2.818 2.6 3.553.55.736 1.27 1.747 1.6 2.248.33.501 1.41 2.011 2.4 3.355.99 1.345 2.34 3.205 3 4.133.66.929 1.65 2.293 2.2 3.032.55.739 2.096 2.855 3.436 4.702 1.34 1.847 3.555 4.888 4.922 6.758 1.367 1.87 2.971 4.12 3.564 5l1.078 1.6.2 28c.23 32.17-.148 29.719 4.089 26.516a154.935 154.935 0 0 1 3.701-2.716c.787-.55 1.781-1.27 2.21-1.6a86.087 86.087 0 0 1 2.09-1.531l8.91-6.344c4.18-2.978 8.23-5.836 9-6.352.77-.516 2.39-1.666 3.6-2.556 2.598-1.911 5.06-3.656 5.957-4.224.354-.223 2.173-1.521 4.043-2.883a397.725 397.725 0 0 1 4.717-3.393c.725-.505 2.255-1.602 3.4-2.439 2.441-1.783 10.398-7.453 15.266-10.878a410.37 410.37 0 0 0 6.314-4.544c1.597-1.179 3.533-2.566 4.303-3.082s2.39-1.663 3.6-2.549c1.21-.886 3.19-2.288 4.4-3.115 1.21-.827 3.304-2.316 4.653-3.307a330.18 330.18 0 0 1 4.73-3.403c2.772-1.947 11.062-8.008 11.617-8.492.22-.193 1.66-1.402 3.2-2.687 9.7-8.096 19.721-21.172 25.152-32.821.616-1.32 1.264-2.681 1.44-3.025.736-1.433 2.723-6.67 2.986-7.87.156-.713.45-1.399.653-1.524.203-.126.369-.498.369-.828 0-1.132-.778-.119-1.202 1.564-.233.926-.778 2.423-1.211 3.327-.433.904-.787 1.866-.787 2.138 0 .272-.253.972-.563 1.556-.52.98-1.969 4.067-3.034 6.462-.244.55-.883 1.72-1.42 2.6-.537.88-1.203 2.05-1.481 2.6-1.511 2.994-6.059 9.533-8.089 11.634-.337.348-.613.769-.613.935 0 .712-11.975 13.01-12.68 13.023-.264.004-.629.274-.81.598-.32.571-9.159 7.41-9.578 7.41-.114 0-1.272.81-2.574 1.8-1.302.99-2.474 1.8-2.605 1.8-.219 0-1.921 1.281-3.353 2.525-.33.287-1.59 1.187-2.8 2.001-3.813 2.565-4.192 2.848-4.52 3.367-.176.279-.51.507-.742.507-.232 0-.931.405-1.553.9a59.699 59.699 0 0 1-2.568 1.9 44.687 44.687 0 0 0-2.289 1.7c-.468.385-.969.7-1.114.7-.145 0-.612.315-1.039.7-.426.385-1.585 1.235-2.575 1.889-.99.654-2.27 1.554-2.844 2a38.13 38.13 0 0 1-1.956 1.411c-.501.33-1.381.974-1.956 1.43-.574.457-1.944 1.435-3.044 2.174-1.1.739-2.09 1.451-2.2 1.583-.11.133-1.19.905-2.4 1.716-1.21.812-3.19 2.201-4.4 3.087-3.045 2.229-4.64 3.358-7.215 5.106-1.219.827-2.479 1.737-2.8 2.023-.322.285-1.845 1.399-3.385 2.476-1.54 1.077-3.085 2.238-3.434 2.581-.348.343-.77.624-.937.624-.167 0-1.369.81-2.671 1.8-1.302.99-2.551 1.8-2.775 1.8-.224 0-.512.27-.638.6-.127.33-.389.6-.583.6-.194 0-1.418.81-2.72 1.8-1.302.99-2.484 1.8-2.628 1.8-.231 0-3.299 2.263-3.814 2.814-.11.117-1.19.884-2.4 1.703-3.691 2.499-4.195 2.871-4.342 3.209-.078.179-.528.495-1 .701-.472.207-1.668 1.005-2.658 1.773s-2.205 1.573-2.7 1.789c-.495.215-.9.535-.9.71 0 .176-.63.658-1.4 1.073-.77.415-1.4.919-1.4 1.12 0 .202-.283.308-.628.237-.562-.116-.635-3.036-.7-27.997l-.072-27.867-.9-.958c-.495-.527-.9-1.112-.9-1.299 0-.188-.273-.626-.608-.974-.81-.846-5.792-7.65-5.792-7.912 0-.114-.405-.72-.9-1.347-1.699-2.153-7.254-9.683-8.7-11.793-.55-.803-1.315-1.752-1.7-2.11-.385-.357-.7-.782-.7-.943 0-.328-3.645-5.382-4.59-6.363-.335-.348-.61-.764-.61-.923 0-.243-2.157-3.202-2.801-3.843-.111-.11-.736-1.01-1.389-2s-1.6-2.34-2.105-3c-1.327-1.737-1.231-1.606-4.7-6.4-1.751-2.42-3.332-4.58-3.513-4.8-.181-.22-1.217-1.66-2.303-3.2-2.066-2.931-2.558-3.594-4.193-5.658-.548-.692-.996-1.416-.996-1.611 0-.194-.315-.646-.7-1.003-.385-.358-1.15-1.316-1.7-2.13-.55-.813-1.315-1.821-1.7-2.238-.385-.418-.7-.895-.7-1.06-.001-.165-.406-.79-.9-1.39a44.905 44.905 0 0 1-1.9-2.54c-.55-.798-1.315-1.793-1.7-2.21-.385-.418-.7-.895-.7-1.06-.001-.165-.406-.79-.9-1.39a44.86 44.86 0 0 1-1.9-2.539c-.55-.797-1.315-1.741-1.7-2.099-.385-.357-.7-.791-.7-.964 0-.31-1.706-2.776-2.714-3.923-.482-.549-4.513-6.155-6.562-9.125-.508-.738-1.194-1.639-1.524-2.003-.33-.365-1.276-1.652-2.103-2.86-.827-1.208-1.814-2.647-2.193-3.197-.38-.55-.918-1.144-1.197-1.32-.279-.176-.507-.507-.507-.737 0-.229-.366-.895-.814-1.48-3.09-4.036-4.236-5.565-4.586-6.118-1.011-1.599-2.011-3.001-2.58-3.616-.341-.368-1.07-1.325-1.62-2.126-.55-.801-1.669-2.331-2.486-3.4l-1.486-1.944 1.322-1.162c.728-.638 2.567-2.012 4.086-3.052a549.552 549.552 0 0 0 7.564-5.272c.44-.312 2.334-1.694 4.209-3.07 1.876-1.377 4.216-3.038 5.2-3.692.985-.654 2.261-1.554 2.835-2a40.454 40.454 0 0 1 1.946-1.411c1.378-.918 3.729-2.677 4.51-3.375.385-.344.785-.625.888-.625.371 0 4.019-2.61 4.332-3.1.176-.275.499-.5.718-.5.331 0 4.563-2.976 6.245-4.393.266-.224.573-.407.682-.407.228 0 5.332-3.704 6.235-4.525.33-.3.87-.667 1.2-.817.33-.15 1.32-.812 2.2-1.471.88-.66 2.59-1.868 3.8-2.684 1.21-.816 2.38-1.677 2.6-1.914.22-.237 1.21-.956 2.2-1.599.99-.642 2.27-1.533 2.844-1.979A38.13 38.13 0 0 1 151.2 43.6c.501-.33 1.381-.968 1.956-1.417 1.105-.865 2.911-2.118 4.012-2.783.364-.22.925-.633 1.247-.918 2.068-1.829 15.306-9.278 16.5-9.285.267-.001 1.025-.36 1.685-.797 1.16-.768.615-1.124-.6-.392m35.6 57.607c-4.238.47-9.48 1.948-10.875 3.066-.289.232-.947.551-1.463.709-.515.158-1.75.855-2.742 1.549-.993.693-2.208 1.531-2.699 1.861-1.456.978-3.796 2.633-7.621 5.389-1.98 1.427-4.59 3.261-5.8 4.076-1.21.815-2.29 1.602-2.4 1.749-.11.146-.603.478-1.095.738-1.54.81-1.559 2.788-.046 4.623.193.234.882 1.145 1.532 2.025.65.88 1.461 1.96 1.803 2.4.342.44 1.507 2.06 2.59 3.6s2.21 3.07 2.505 3.4c.295.33 1.065 1.41 1.71 2.4s1.45 2.098 1.787 2.462c.338.363 1.424 1.871 2.414 3.35.99 1.479 2.07 2.991 2.4 3.361.33.369 1.225 1.562 1.988 2.649.764 1.088 1.539 2.158 1.723 2.378.184.22 1.584 2.11 3.111 4.2 1.528 2.09 3.054 4.16 3.391 4.6.338.44 1.137 1.52 1.776 2.4.638.88 1.442 1.915 1.786 2.3.344.385.625.782.625.882 0 .247 3.828 5.46 4.59 6.252.335.348.61.772.61.942 0 .17.405.796.9 1.392a38.78 38.78 0 0 1 1.7 2.24c2.788 4.03 3.292 4.073 8.076.692a658.144 658.144 0 0 1 6.272-4.38 152.618 152.618 0 0 0 4.052-2.874c.88-.656 2.59-1.867 3.8-2.691 4.119-2.804 11.6-11.081 11.6-12.835 0-.219.36-.813.8-1.32.44-.507.8-1.175.8-1.483 0-.309.37-1.373.822-2.365.452-.993.903-2.738 1.002-3.878l.18-2.074-.584 2.538c-.322 1.396-.748 2.746-.947 3-.2.254-.488.986-.642 1.627-1.125 4.696-7.846 12.633-14.794 17.469a569.379 569.379 0 0 0-4.484 3.166c-13.491 9.63-12.625 9.311-15.216 5.604a371.968 371.968 0 0 0-3.937-5.421c-15.424-20.906-21.605-29.343-24.601-33.583-1.088-1.54-2.298-3.199-2.689-3.686-.39-.487-1.88-2.53-3.31-4.539-1.43-2.009-3.34-4.625-4.245-5.813-1.955-2.568-1.939-3.762.071-5.089.728-.48 3.595-2.493 6.371-4.473 6.612-4.715 10.263-7.299 11.003-7.789l2-1.321c9.811-6.484 25.071-6.892 36.375-.973 5.038 2.638 11.788 8.88 14.277 13.202 2.38 4.131 4.397 8.954 4.969 11.881.325 1.664.336 1.62.152-.583-.187-2.229-.542-3.25-2.716-7.815-2.359-4.95-9.877-14.002-11.629-14.002-.125 0-.543-.281-.928-.625-1.11-.991-3.531-2.469-4.559-2.782-.517-.158-1.211-.516-1.541-.796-.33-.279-1.23-.636-2-.792-.77-.156-1.76-.507-2.2-.779-1.784-1.106-11.073-1.935-15.8-1.411M318.451 100.6c-.023.88.22 2.464.54 3.52.993 3.271 1.534 11.923 1.332 21.28-.124 5.759-.076 7.763.14 5.8.79-7.183.215-24.274-.916-27.243-.218-.574-.545-1.924-.725-3L318.494 99l-.043 1.6m-65.069 22.6c0 4.195.115 5.73.384 5.101.211-.496.384-2.791.384-5.101s-.173-4.605-.384-5.101c-.269-.629-.384.906-.384 5.101m66.284 12.2c-.041.66-.343 2.084-.67 3.164-.328 1.08-.596 2.569-.596 3.31 0 .74-.351 2.344-.78 3.565-.429 1.22-.882 3.06-1.006 4.09-.319 2.633 1.233-2.535 2.021-6.729.31-1.65.755-3.47.99-4.045.234-.575.356-1.835.271-2.8-.105-1.182-.18-1.363-.23-.555M96.077 319.928c-1.971 1.841-2.113 3.145-2.057 18.889.058 16.121.16 15.542-2.769 15.653l-1.851.07 1.733.154c1.133.102 2.067-.064 2.7-.479l.967-.633V338.25c0-20.282-.618-19.05 9.548-19.05h6.282l1.385 1.156 1.385 1.156.119 61.344c.065 33.739.005 62.244-.134 63.344-.336 2.658-1.678 3.775-4.883 4.066-1.266.115-3.022.45-3.902.744-.88.294-3.13.638-5 .766-1.87.127-5.56.43-8.2.673-2.64.243-7.32.571-10.4.73l-5.6.287 5.2.025c12.722.059 29.624-2.23 31.976-4.332l1.224-1.093.116-62.133c.125-67.352.201-64.306-1.632-65.98l-1.262-1.153H97.285l-1.208 1.128m47.69-.74c-2.578 1.043-2.967 2.307-2.967 9.649v6.775l1.368 1.494 1.369 1.494 6.931.036 6.932.036-6.8-.236-6.8-.236-1.2-1.2-1.2-1.2-.128-6.349c-.2-9.914.116-10.251 9.616-10.251 9.284 0 9.897.572 9.906 9.25.008 6.849-.13 7.49-1.895 8.85-.785.605-1.222 1.1-.97 1.1s1.046-.525 1.765-1.166l1.306-1.166.127-6.603c.195-10.222-.236-10.675-10.127-10.638-3.52.013-6.775.175-7.233.361M63.8 353.65c-1.54.192-3.053.394-3.363.45-.31.055 6.08.1 14.2.1 14.189 0 14.545-.018 9.163-.467-6.516-.544-15.987-.583-20-.083m263.4-.244c-.55.078-4.6.348-9 .6-4.4.251-8.561.629-9.247.839-.686.21-2.639.538-4.34.729-3.543.397-5.848 1.995-5.777 4.004.035.984.05.978.405-.178.608-1.979 2.892-3.4 5.466-3.4 1.197 0 3.194-.256 4.435-.569 7.594-1.915 34.707-1.921 40.372-.009.943.318 2.113.572 2.6.565 1.752-.027-3.591-1.5-7.114-1.962-3.556-.466-15.862-.894-17.8-.619m-270.983 1.367c-.127.205-1.263.585-2.524.844-1.261.258-2.743.704-3.293.989-.55.285-2.08 1.026-3.4 1.646-5.475 2.574-14.6 11.036-14.6 13.54 0 .247-.202.65-.448.896-1.391 1.391-4.301 10.573-4.79 15.112a226.6 226.6 0 0 1-.74 6c-.515 3.647-.51 15.167.009 19 .223 1.65.566 4.484.763 6.298.556 5.145 2.644 11.248 5.564 16.27 6.095 10.483 19.031 17.574 32.842 18.006 2.31.072 3.48.062 2.6-.022-4.248-.404-12.911-1.872-13.8-2.337-.55-.287-1.63-.656-2.4-.818-1.552-.327-6.79-3.007-9.64-4.931-3.013-2.033-9.56-9.452-9.56-10.832 0-.179-.349-.77-.775-1.312-.427-.542-.898-1.511-1.048-2.154-.15-.642-.5-1.535-.779-1.984-.278-.449-.727-1.889-.997-3.2-.27-1.311-.681-2.744-.914-3.184-1.927-3.641-1.72-34.398.267-39.6.336-.88.619-1.92.628-2.312.035-1.421 3.199-8.459 4.714-10.488.494-.66 1.214-1.624 1.6-2.143 1.799-2.41 5.783-6.064 7.685-7.047.671-.347 1.219-.792 1.219-.988 0-.197.528-.474 1.172-.616.645-.142 1.378-.504 1.628-.806.25-.302 1.028-.668 1.728-.814.699-.145 1.678-.522 2.174-.836.497-.314 1.757-.748 2.8-.964a66.538 66.538 0 0 0 3.898-.962l2-.57-1.676-.027c-.922-.015-1.781.141-1.907.346m86.994.647c-2.581 1.822-2.431-1.322-2.316 48.465.103 44.801.118 45.532.905 46.603 1.252 1.702 3 2.112 9 2.112 6.711 0 7.944-.372 9.134-2.753l.866-1.735v-44.469c0-48.927.142-46.178-2.495-48.19-2.061-1.572-12.88-1.596-15.094-.033m43.089-.027c-.605.533-1.1 1.192-1.1 1.464 0 .329.168.288.5-.122 1.446-1.787 2.18-1.935 9.605-1.935 8.256 0 9.218.282 11.528 3.381a102.018 102.018 0 0 0 2.167 2.81c.855 1.045 1.491 1.875 3.38 4.409 1.916 2.571 2.571 3.418 3.42 4.429.44.524 1.25 1.591 1.8 2.371s1.36 1.841 1.8 2.357a37.97 37.97 0 0 1 1.6 2.056c.44.614 1.25 1.697 1.8 2.407.55.709 1.27 1.696 1.6 2.192.33.496.96 1.32 1.4 1.832.44.511 1.43 1.825 2.2 2.92 1.609 2.288 4.4 3.289 4.4 1.578 0-.205.82-1.401 1.823-2.658 2.335-2.927 8.136-10.417 9.177-11.851.44-.605 1.663-2.211 2.718-3.567a354.395 354.395 0 0 0 2.6-3.376 27.29 27.29 0 0 1 1.189-1.478c1.277-1.432 3.293-4.258 3.293-4.615 0-.219.159-.397.353-.397.195 0 .96-.804 1.7-1.788.741-.983 1.55-1.793 1.798-1.8.248-.006.675-.282.949-.612.731-.881 13.329-.874 15.097.009 2.747 1.37 2.104 3.512-2.959 9.856a1239.313 1239.313 0 0 0-4.338 5.454c-.22.286-.684.826-1.032 1.2-.347.375-2.582 3.201-4.965 6.281-2.384 3.08-4.578 5.87-4.878 6.2-.299.33-1.075 1.32-1.725 2.2-.65.88-1.438 1.87-1.751 2.2-.52.548-5.277 6.522-6.948 8.725a17.335 17.335 0 0 1-1.601 1.772c-.593.558-.9 1.314-.9 2.217 0 .834.353 1.795.9 2.454a41.06 41.06 0 0 1 1.7 2.227c.44.629 1.205 1.539 1.7 2.02.495.482.9 1.017.9 1.189 0 .171.37.691.823 1.154 1.312 1.344 11.177 13.853 11.177 14.174 0 .159.315.574.7.922.775.7.902.857 4.242 5.259 1.289 1.698 2.504 3.087 2.7 3.087.197 0 .358.195.358.433 0 .364.858 1.539 3.4 4.656.22.27.76.963 1.2 1.54.44.576 1.16 1.467 1.6 1.979.44.512 1.16 1.421 1.6 2.019l1.7 2.309c1.701 2.305 1.118 4.513-1.341 5.083-2.061.478-14.635.484-15.888.008-1.086-.413-3.071-2.25-3.071-2.842 0-.208-.36-.603-.8-.878-.44-.275-.8-.655-.8-.845 0-.19-.907-1.451-2.015-2.803-1.108-1.353-2.281-2.819-2.605-3.259a570 570 0 0 0-3.885-5.047 1951.77 1951.77 0 0 1-6.895-8.957c-10.608-13.878-8.662-13.528-16.8-3.024a2754.43 2754.43 0 0 1-7.908 10.154c-1.93 2.461-3.82 4.877-4.2 5.37-.381.493-1.052 1.341-1.492 1.884a82.304 82.304 0 0 0-1.487 1.904c-2.091 2.785-5.884 7.397-6.51 7.916-1.011.838-13.275 1.095-15.603.328-1.444-.476-1.612-.673-1.723-2.013-.142-1.708-.173-1.658 6.004-9.489 2.354-2.984 4.604-5.84 5-6.345a62.98 62.98 0 0 1 1.519-1.851 58.792 58.792 0 0 0 1.68-2.081c.484-.632 3.463-4.389 6.619-8.349 3.156-3.96 6.707-8.46 7.89-10 1.184-1.54 2.39-2.944 2.681-3.12.292-.176.53-.521.53-.766 0-.426.316-.826 2.24-2.836 1.264-1.323 1.427-2.954.411-4.115a47.736 47.736 0 0 1-1.543-1.867c-.38-.493-2.27-2.892-4.2-5.332a645.292 645.292 0 0 1-4.392-5.6c-.486-.64-1.161-1.524-1.5-1.964-1.47-1.908-9.621-12.212-14.216-17.972-5.132-6.432-5.95-7.554-7.02-9.628l-.62-1.2.245 1.168c.135.643.599 1.633 1.032 2.2 1.593 2.088 2.419 3.144 6.647 8.496 2.374 3.005 4.676 5.96 5.116 6.566.44.606.988 1.297 1.219 1.536.709.735 10.746 13.572 11.442 14.634.361.55.99 1.36 1.4 1.8 2.437 2.62 6.539 8.24 6.539 8.959 0 .503-3.608 5.364-8.9 11.991a3746.278 3746.278 0 0 0-14.3 18.014c-2.97 3.778-5.76 7.295-6.2 7.814a53.47 53.47 0 0 0-1.6 2.009c-.44.585-1.07 1.373-1.4 1.752-5.515 6.324-3.892 8.457 6.44 8.46 8.949.002 9.128-.097 14.96-8.219.784-1.092 5.383-6.937 7.12-9.05a94.474 94.474 0 0 0 1.68-2.116c.44-.575 1.16-1.486 1.6-2.025.44-.538 2.42-3.082 4.4-5.653 5.755-7.472 6.811-8.727 7.443-8.849.873-.168 3.329 2.612 8.757 9.913.55.74 2.126 2.797 3.502 4.573a1227.87 1227.87 0 0 1 3.112 4.027c.335.44 2.179 2.813 4.098 5.274a3496.47 3496.47 0 0 1 6.006 7.728c3.371 4.356 3.493 4.398 12.689 4.398 8.143 0 9.555-.313 10.034-2.222.617-2.458 1.116-1.727-15.441-22.61-3.63-4.578-6.96-8.816-7.4-9.417-.44-.601-2.251-2.906-4.024-5.122-6.408-8.008-8.576-10.998-8.576-11.827 0-.483 2.182-3.56 5.1-7.192 2.805-3.491 5.46-6.842 5.9-7.448.951-1.308 2.034-2.639 3.4-4.178.55-.62 1.36-1.618 1.8-2.22.44-.601 4.088-5.217 8.106-10.259 9.438-11.842 9.852-12.691 7.263-14.869-1.221-1.028-1.282-1.036-8.252-1.036-7.749 0-8.393.17-10.517 2.772-.55.674-1.36 1.658-1.8 2.188a66.72 66.72 0 0 0-1.512 1.901c-.391.517-2.281 2.956-4.2 5.422a805.422 805.422 0 0 0-6.088 7.931c-9.863 13.085-11.207 14.415-12.372 12.239-.219-.411-1.531-2.199-2.914-3.975a682.47 682.47 0 0 1-5.114-6.67c-1.43-1.893-3.41-4.495-4.4-5.783-.99-1.288-2.16-2.844-2.6-3.458a48.329 48.329 0 0 0-1.645-2.141c-.464-.564-2.137-2.736-3.718-4.826-4.253-5.623-4.192-5.598-13.637-5.585-7.675.01-7.818.026-8.9.978m-28.874.1c3.186 1.519 2.974-1.911 2.974 48.053v44.378l-.9 1.686c-1.222 2.29-1.912 2.46-9.356 2.316l-6.469-.126-1.137-1.2-1.138-1.2-.107-45.351c-.119-50.553-.326-46.613 2.545-48.448 1.669-1.067 11.415-1.144 13.588-.108m197.374 1.381c6.495 3.116 7.439 3.738 10.597 6.986 2.516 2.588 3.803 4.298 3.803 5.054 0 .324.269.811.597 1.084.329.272.783 1.239 1.009 2.149.227.909.623 2.013.881 2.453 1.4 2.387 1.631 7.452 1.793 39.4.191 37.59.48 35.556-5.17 36.356-2.714.384-4.953 1.206-3.356 1.232.414.007 1.404-.166 2.2-.383a154.1 154.1 0 0 1 3.141-.814c1.264-.313 1.951-.796 2.7-1.898l1.005-1.479.002-31.807c.002-36.679-.13-38.22-3.915-45.8-1.875-3.756-7.531-9.596-10.075-10.403-.447-.142-.812-.426-.812-.631 0-.205-.225-.375-.5-.377-.275-.002-1.4-.446-2.5-.987-1.1-.541-2.27-.987-2.6-.991-.33-.004.21.382 1.2.856m-56.269 6.526c.002 1.54.074 2.121.161 1.291.087-.83.085-2.09-.003-2.8-.089-.71-.16-.031-.158 1.509m.305 3.825c-.06 1.71 1.84 3.166 4.397 3.369 1.812.145 1.905.124.567-.126-2.34-.438-4.169-1.661-4.577-3.062-.336-1.155-.352-1.163-.387-.181M65.2 369.137c-.77.169-1.76.533-2.2.81-.72.452-.68.476.4.247 6.396-1.357 28.896-.765 30.191.795.605.729.602 64.497-.004 65.226-.245.295-.837.613-1.316.707-.731.142-.699.178.2.224 2.454.124 2.329 1.929 2.329-33.565v-32.363l-.951-.623c-.523-.342-1.558-.802-2.3-1.022-1.649-.488-24.398-.864-26.349-.436m247.2.104c-2.31.179-4.74.509-5.4.733-1.06.359-.967.388.8.245 16.24-1.313 31.998-1.236 36.567.18 6.813 2.112 10.492 9.093 9.955 18.894-.215 3.933.758 3.675-14.841 3.932l-13.681.225 13.881-.025c10.871-.02 13.993-.138 14.4-.548.806-.811.676-11.036-.164-12.877a30.353 30.353 0 0 1-1.054-2.691c-.228-.711-.6-1.521-.825-1.8-2.043-2.535-3-3.509-3.446-3.509-.289 0-.595-.21-.681-.466-.149-.449-2.991-1.577-5.911-2.346-1.686-.444-23.692-.405-29.6.053m-254.22 2.283c-2.238 1.192-2.815 1.633-4.813 3.676-2.382 2.436-2.567 2.658-2.567 3.08 0 .226-.329.841-.732 1.366-2.617 3.41-3.376 8.794-3.376 23.954 0 14.765.82 20.882 3.169 23.631.296.348.541.798.544 1 .019 1.314 6.407 7.369 7.773 7.369.184 0 1.074.347 1.978.771 3.093 1.451 9.966 2.187 17.188 1.842 12.185-.582 13.246-.857 2.595-.673-10.287.178-17.016-.243-18.718-1.17-.342-.187-1.615-.79-2.831-1.341-4.467-2.025-7.81-6.187-9.83-12.237l-1.132-3.392-.142-14.176c-.147-14.651.034-17.234 1.514-21.622 2.1-6.227 6.834-11.123 12.4-12.827l1-.306-1-.01c-.55-.006-1.909.474-3.02 1.065m264.02 22.492c-.88.175-2.77.525-4.2.777-12.928 2.278-23.149 10.018-24.601 18.629-.146.868-.535 2.432-.863 3.475-1.335 4.236-.177 15.642 2.116 20.848 2.599 5.899 7.842 10.932 13.181 12.654.862.278 1.76.658 1.997.844.379.299 2.475.82 7.97 1.983.88.187 2.86.317 4.4.29l2.8-.048-3-.288c-4.308-.414-10.799-1.754-12.2-2.519-.66-.361-1.415-.657-1.679-.659-.263-.001-1.287-.432-2.275-.957-9.053-4.814-13.232-12.944-13.183-25.645.04-10.271 2.581-16.319 9.014-21.461 1.334-1.067 2.613-1.939 2.842-1.939.23 0 .702-.233 1.05-.519 1.626-1.337 9.057-3.686 13.831-4.373 3.27-.471 6.915-1.428 5.4-1.418-.55.003-1.72.15-2.6.326m8.8 12.383c-2.2.151-4.978.572-6.173.937-1.195.365-2.577.664-3.071.664-.494 0-1.137.237-1.427.527-.291.29-1.107.728-1.813.974-8.644 3.007-9.46 21.112-1.19 26.39 4.334 2.766 16.486 3.425 31.674 1.716 3.032-.341 1.843-.318-12.6.238-18.395.708-24.4-2.998-24.4-15.059 0-12.648 7.561-16.371 33.271-16.383 10.262-.004 9.129-1.89 9.129 15.193 0 14.87-.027 15.179-1.343 15.25-.704.039-.729.08-.138.233 1.838.477 1.881.128 1.881-15.299 0-12.669-.08-14.603-.629-15.151-.681-.682-14.553-.82-23.171-.23m28.167 45.354c-.158.145-6.65.803-14.567 1.476-2.628.224-1.88.256 2.77.119 3.504-.102 7.194-.359 8.2-.569 1.007-.21 3.36-.538 5.23-.728 3.321-.337 3.343-.346.967-.398-1.339-.029-2.509.016-2.6.1m-287.66 2.137c.719.089 1.799.087 2.4-.004s.013-.164-1.307-.162c-1.32.002-1.812.077-1.093.166m257.614.009c2.267.071 5.867.071 8-.001 2.134-.072.279-.13-4.121-.13s-6.145.059-3.879.131"/></g></svg>