<svg xmlns="http://www.w3.org/2000/svg" width="250" height="250" fill="none"><path fill="#5A41E1" fill-rule="evenodd" d="m151.491 126.726-19.899 11.17c-1.764.997-3.921.398-4.901-1.297l-22.938-38.993c-1.078-1.695-.391-3.79 1.275-4.787l19.899-11.17c12.742-7.18 28.916-2.991 36.268 9.475 2.45 4.089 3.529 8.576 3.529 12.964 0 8.976-4.706 17.752-13.233 22.638Zm55.677-61.63C185.21 27.697 136.493 14.932 98.362 36.572L35.628 72.076c-3.431 1.995-4.607 6.283-2.647 9.674l54.403 92.346a12.626 12.626 0 0 1 1.764 6.483v38.394c0 1.396 1.569 2.294 2.843 1.596l17.056-9.673 11.665-6.583 57.343-32.51c25.486-14.461 39.797-40.789 39.797-67.715 0-13.264-3.431-26.727-10.684-38.993Z" clip-rule="evenodd"/></svg>