<svg xmlns="http://www.w3.org/2000/svg" width="400" height="342.249"><path fill="#2494ec" fill-rule="evenodd" d="M203.298.204c-1.28.34-1.457 2.286-1.358 14.994.106 13.609.034 12.722 1.074 13.117.431.164 1.024.516 1.317.781.293.265.532.358.532.206 0-.16 5.777-.272 13.83-.269 7.606.002 13.83-.096 13.83-.219s.191-.15.425-.06c.466.178.874-.313 1.016-1.223.05-.321.2-.731.334-.911.486-.654.138-25.404-.357-25.404-.167 0-.219-.085-.116-.188.889-.888-27.409-1.652-30.527-.824m-75.057 34.532c-.265.204-.634.656-.82 1.006-.422.791-.497 26.264-.078 26.264.152 0 .366.284.476.631.11.347.278.553.372.458.095-.094.356-.019.58.167.225.186.41.219.413.073.003-.146.139-.06.304.191.209.318.368.353.527.116.274-.407 27.432-.493 27.432-.086 0 .14.211.174.469.075.258-.099.393-.256.3-.35-.094-.093.173-.527.593-.965l.762-.795-.074-12.6c-.081-13.734-.044-13.278-1.138-14.041-.972-.677-29.247-.813-30.118-.144m37.49.047c-.375.208-.591.468-.481.578.11.111.033.201-.172.201s-.288.137-.184.304c.103.167.055.304-.108.304-.343 0-.298.57.094 1.198.178.286.144.481-.097.562-.287.095-.282.231.022.599.321.389.321.5 0 .608-.321.108-.321.219 0 .608.321.388.321.5 0 .608-.321.108-.321.219 0 .607.321.389.321.5 0 .608-.321.108-.321.219 0 .608s.321.5 0 .608c-.321.108-.321.219 0 .608s.321.5 0 .608c-.321.108-.321.219 0 .608s.321.5 0 .608c-.321.108-.321.219 0 .608s.321.5 0 .608c-.321.108-.321.219 0 .607.321.389.321.5 0 .608-.321.108-.321.219 0 .608s.321.5 0 .608c-.321.108-.321.219 0 .608s.321.5 0 .608c-.321.108-.321.219 0 .608s.321.5 0 .608c-.321.108-.321.219 0 .608s.321.5 0 .608c-.321.108-.321.219 0 .608.321.388.321.499 0 .607-.321.108-.321.219 0 .608s.321.5 0 .608c-.321.108-.321.219 0 .608s.321.5 0 .608c-.321.108-.321.219 0 .608s.321.5 0 .608c-.321.108-.321.219 0 .608s.321.5 0 .608c-.312.104-.316.224-.02.581s.292.5-.019.693c-.293.18-.303.298-.039.461.195.121.314.53.264.909-.061.465.206.934.818 1.439 1.017.839 1.972 1.268 1.972.886 0-.139 6.155-.253 13.678-.254 7.523-.002 13.678.112 13.678.252 0 .139.204.175.454.079.25-.095.378-.296.286-.446-.093-.15.068-.272.356-.272.289 0 .435-.09.325-.2-.11-.11-.03-.404.177-.654.485-.584.853-23.764.377-23.771-.167-.002-.098-.137.152-.299.304-.197.33-.296.076-.299-.209-.003-.363-.108-.344-.233a2.696 2.696 0 0 0-.782-2.369l-.746-.746-14.527.029c-10.951.023-14.696.123-15.21.407m37.183.551c-.553.544-.969 1.228-.923 1.52.045.293-.008.532-.118.532-.111 0-.164 5.334-.118 11.854.045 6.52.201 11.854.347 11.854.145 0 .346.328.447.729.17.68 2.314 2.287 2.314 1.734 0-.138 5.984-.26 13.298-.271 7.314-.01 13.755-.029 14.314-.041.75-.017 1.058-.183 1.176-.631.087-.334.271-.608.408-.608.316 0 .288.937.39-12.918.05-6.666-.031-12.014-.184-12.219-.15-.201-.225-.612-.167-.912.291-1.505-.757-1.61-16.027-1.61h-14.15l-1.007.987m99.264 6.878c-.224.141-.395.344-.38.451.082.613-.024.802-.448.802-.261 0-.389.137-.286.304.103.167.035.304-.152.304s-.261.127-.165.283c.096.156-.1.476-.436.711-.336.236-.521.519-.41.629.11.11.033.201-.172.201s-.294.127-.198.283c.096.155.04.366-.126.468-.165.103-.525.659-.799 1.237-.275.578-.62 1.051-.768 1.051-.148 0-.27.244-.27.541 0 .297-.266.733-.591.967-.326.235-.523.538-.438.675.084.137 0 .249-.186.249-.187 0-.256.137-.152.304.103.167.035.304-.152.304s-.256.136-.152.304c.103.167.051.304-.117.304-.167 0-.252.273-.187.607.07.366-.047.608-.293.608-.261 0-.352.222-.251.608.092.354.009.608-.199.608-.196 0-.279.126-.184.28.095.153-.027.479-.272.723-.244.245-.359.529-.256.633.104.103.037.188-.149.188-.185 0-.286.266-.223.592.125.648-.46 2.447-.795 2.447-.115 0-.137.274-.05.608.114.436.009.608-.37.608-.42 0-.455.088-.172.429.247.298.257.49.032.629-.178.11-.245.327-.149.483.096.156.022.283-.165.283s-.255.137-.152.304c.104.167.016.304-.195.304-.282 0-.293.089-.041.341.328.328.314.544-.108 1.711-.106.292-.241 1.146-.301 1.898s-.248 1.413-.418 1.47c-.169.057-.231.228-.136.381.094.153.018.278-.168.278-.198 0-.24.159-.1.38.327.516.398 2.133.111 2.507-.128.168-.203.817-.167 1.444.037.627-.067 1.14-.23 1.14-.171 0-.152.174.045.411.393.475.342 2.021-.067 2.021-.151 0-.134.171.039.38.522.631.8 2.659.365 2.659-.293 0-.291.101.01.463.211.255.297.55.191.656-.106.106-.031.387.166.624.276.333.267.487-.04.676-.307.191-.269.326.172.603.421.264.465.4.17.523-.319.132-.307.267.06.673.253.279.508.987.569 1.575.06.588.212 1.234.337 1.437.126.203.144.506.04.673-.103.167-.009.306.21.308.319.004.321.054.011.251-.296.187-.242.377.228.802.338.306.615.759.615 1.006s.482 1.396 1.072 2.553c.589 1.156.992 2.232.894 2.391-.098.158-.025.288.162.288s.254.137.15.306c-.104.168.008.381.248.474 2.831 1.086-3.212 3.845-12.437 5.677l-3.311.658-104.255.166-104.255.165-1.872 1.016c-1.965 1.065-3.144 2-3.144 2.492 0 .16-.201.292-.446.292-.271 0-.378.178-.272.453.095.25-.017.527-.25.616-.233.089-.446.464-.474.833-.027.368-.27.83-.538 1.026-.268.196-.372.428-.231.515.301.187.12 2.636-.195 2.636-.118 0-.093 1.045.055 2.323.197 1.694.175 2.382-.083 2.542-.49.302-.506.449-.103.939.469.571.881 3.922.482 3.922-.348 0-.276 1.553.1 2.162.14.225.301 1.165.358 2.087l.213 3.408c.061.951.209 1.889.33 2.085a.433.433 0 0 1-.155.589c-.284.175-.289.285-.018.452.196.122.285.408.198.636-.088.229-.02.503.151.608.172.106.274.625.229 1.154-.046.529.01 1.112.123 1.295.113.184.271.797.35 1.364.08.566.341 2.021.581 3.233.287 1.447.328 2.204.121 2.204-.174 0-.08.26.207.578.288.318.493.763.455.988-.037.225.036.647.163.937.127.289.251.973.276 1.519.025.546.182 1.094.349 1.216.193.142.175.225-.049.228-.371.005-.368.318.012 1.449.127.376.366.684.531.684.166 0 .214.142.106.317-.108.174-.068.482.09.684.479.614.652 1.733.269 1.744-.193.005-.109.193.186.417.344.261.463.601.331.946-.136.354-.008.685.373.963.492.36.512.465.134.699-.379.234-.364.307.095.484.297.114.469.395.381.624-.088.229.006.419.21.421.257.003.243.086-.046.269-.341.215-.323.316.098.551.298.167.586.819.684 1.549.093.694.288 1.188.434 1.098.145-.09.264-.019.264.158s-.171.326-.38.332c-.236.006-.183.159.14.404.713.542 1.232 1.94.776 2.092-.209.07-.078.383.33.791.372.372.582.829.466 1.016-.137.222-.07.254.193.091.295-.182.349-.109.202.273-.119.31-.078.446.101.336.165-.102.3.002.3.231 0 .386 1.129 3.001 1.842 4.267.168.299.212.696.097.883-.136.22-.069.252.193.089.288-.178.35-.112.219.232-.11.285.006.554.283.66a.486.486 0 0 1 .289.649c-.103.269-.052.39.12.284.282-.175.435.436.323 1.294-.027.209.177.38.453.38.302 0 .437.167.34.421-.089.231.175.714.588 1.072.412.359.667.785.567.947-.101.162-.03.295.157.295s.264.123.172.272c-.093.15.05.356.317.459.268.102.412.38.321.617-.096.248.152.638.586.923.414.27.714.658.668.86-.047.202.227.68.608 1.061.382.382.599.847.484 1.033-.125.202-.073.256.125.133.333-.205 1.087.811.809 1.09-.08.079.184.499.586.933.403.433.671.849.597.922-.073.074.42.573 1.096 1.109.677.535 1.23 1.167 1.23 1.404 0 .237.137.43.304.43.167 0 .304.228.304.507s.091.415.203.303c.25-.249 1.317.675 1.317 1.141 0 .185.307.472.683.637.377.165.684.505.684.756 0 .638.99 1.664 1.609 1.668.285.002.518.163.518.358.001.45.403.857.862.875.195.008.321.179.279.38-.042.202.089.332.29.29.201-.041.372.128.38.376.008.249.287.504.622.568.334.064 1.223.623 1.975 1.242.753.619 1.706 1.355 2.12 1.636.413.28.636.51.494.51-.141 0-.093.197.107.437.2.241.564.361.809.267.276-.106.413-.012.358.246-.055.259.125.381.474.321.314-.054.48.037.376.206-.173.279.559.656 1.637.843.246.042.622.315.835.606.212.292.662.55.998.575.337.025.943.355 1.347.735s.883.599 1.064.487c.181-.112.43.045.554.348.124.304.567.587.985.629.78.08 3.424 1.287 3.586 1.638.05.108.358.126.684.041.327-.086.594-.032.594.118 0 .503 1.755 1.368 1.905.939.1-.287.277-.259.71.111.317.27.747.43.956.354.209-.076.38.025.38.224 0 .202.208.282.472.181.259-.099.394-.055.299.099-.095.153-.019.374.17.491.188.117.462.023.608-.207.146-.23.267-.278.27-.106.003.173.415.469.917.658.501.189.911.226.911.082 0-.144.411-.118.912.057.502.174.912.428.912.563 0 .135.274.174.61.087.335-.088.817.013 1.071.223.254.211.538.307.631.213.094-.093.87.182 1.725.611 1.032.519 1.595.663 1.672.431.064-.193.25-.35.413-.35.164 0 .218.127.122.283-.271.438.421.721.864.353.217-.18.481-.241.585-.137.105.105.677.234 1.271.288.593.053 1.234.192 1.422.309.189.116.796.252 1.348.302.553.049 1.377.334 1.831.631.604.396.86.441.951.168.068-.206.326-.374.573-.374.247 0 .363.138.259.306-.104.169.039.394.317.501.278.106.606.032.728-.166.229-.371 2.756-.151 2.756.239 0 .107.844.194 1.876.194 1.217 0 1.92.132 2.001.375.164.491.985.487.991-.005.003-.235.09-.264.228-.076.123.167 1.657.348 3.41.401 1.752.054 3.26.216 3.349.361.09.145.571.219 1.069.163.498-.055 1.008.056 1.134.247.166.254.289.257.456.01.218-.324 1.428-.387 1.725-.09.078.079.902.114 1.83.078.955-.036 1.688.066 1.688.237 0 .165.135.217.3.115.667-.412 3.065-.514 3.505-.149.301.249.45.263.45.041 0-.392 8.923-.298 9.843.104.329.144.783.118 1.07-.061.273-.171 1.551-.281 2.838-.244 1.287.036 2.289-.016 2.227-.117-.062-.101.345-.218.904-.258.56-.041 1.106.069 1.214.244.131.211.441.159.917-.152.451-.296 1.333-.457 2.369-.434.907.021 1.815-.064 2.017-.189.202-.124.705-.046 1.118.175.524.281.813.303.959.074.357-.562 2.223-.828 2.531-.36.22.333.356.303.71-.16.327-.429.667-.527 1.35-.39.519.104.999.042 1.113-.142.111-.179.589-.247 1.064-.152.478.095.953.027 1.065-.154.136-.22.286-.192.459.086.208.335.371.341.872.031.339-.21 1.099-.444 1.689-.519.591-.076 1.18-.204 1.311-.284.256-.159 2.812-.554 3.926-.607.376-.018.683-.112.683-.21 0-.097.171-.191.38-.209 1.095-.09 2.075-.295 2.25-.47.108-.108.518-.116.911-.017.457.115.715.046.715-.19 0-.203.192-.296.426-.206.234.09.505.085.601-.011.302-.302 6.555-1.827 6.389-1.558-.283.459.402.267.812-.227.267-.322.68-.426 1.243-.314.57.114.926.021 1.098-.285.162-.29.797-.478 1.757-.522 1.062-.049 1.479-.187 1.42-.471-.046-.222.047-.322.207-.223.16.098.385.026.5-.16.121-.196.582-.266 1.085-.165.648.13.875.059.875-.273 0-.247.205-.466.456-.487.564-.047.771-.104 1.444-.4.292-.129.737-.156.988-.06.25.097.456.036.456-.135 0-.398 2.061-1.267 2.445-1.03.159.099.29.037.29-.137 0-.173.376-.405.836-.515.46-.11.995-.325 1.19-.478.194-.152.878-.316 1.52-.364.641-.048 1.136-.232 1.1-.408-.076-.373 1.605-1.133 2.377-1.075.29.022.603-.16.697-.403.116-.304.41-.382.936-.25.596.149.767.076.767-.329 0-.347.158-.461.471-.341.306.118.396.059.257-.167-.148-.239-.001-.292.469-.169.942.246 1.538-.034 1.314-.617-.139-.364-.055-.434.339-.283.289.111.45.081.359-.067-.214-.346.695-.701 1.12-.438.188.116.235.056.112-.142-.236-.384 1.113-.836 1.599-.536.164.101.376-.059.471-.358.192-.603 2.198-1.794 2.798-1.66.212.047.54-.203.728-.556.205-.382.525-.571.792-.469.252.097.367.041.263-.128-.163-.264.213-.425.809-.346.109.014.365-.175.569-.42.203-.246.49-.447.637-.447.146 0 .545-.278.886-.619.34-.34.751-.536.914-.436.162.1.38-.04.484-.31.104-.271.348-.432.542-.358.194.075.613-.054.931-.286.317-.232.448-.426.291-.432-.157-.005-.04-.196.26-.424.3-.227.824-.341 1.163-.252.478.125.594.032.517-.413-.071-.415.057-.546.464-.477.338.058.482-.033.362-.228-.113-.183.17-.466.647-.647.466-.178.942-.475 1.057-.661.115-.186.499-.383.852-.437.909-.138 2.172-1.021 1.958-1.368-.198-.32.813-1.185 1.146-.98.114.071.501-.283.86-.786.358-.504.833-.916 1.054-.916.222 0 .482-.206.579-.459.097-.252.283-.435.413-.407.422.091 1.301-.407 1.15-.651-.081-.131.083-.424.364-.652.422-.343.468-.344.263-.004-.201.335-.124.344.424.051.369-.197.602-.428.518-.512-.237-.236.783-1.307 1.074-1.127.142.087.22-.022.174-.244-.046-.221.087-.368.296-.326.209.042.346-.095.304-.304-.043-.217.298-.423.795-.48.55-.063.927-.314 1.023-.684.084-.321.348-.584.587-.584.242 0 .394-.23.344-.521-.055-.321.144-.566.519-.639.637-.124 1.665-.903 1.624-1.232-.088-.702.102-.995.537-.828.355.135.44.057.309-.283-.109-.287.026-.55.347-.673.289-.11.8-.528 1.134-.927 1.421-1.696 2.432-2.641 2.726-2.546.172.055.213.001.091-.122-.123-.123.151-.571.608-.996.457-.426.795-.887.752-1.025-.043-.138.284-.389.726-.557.443-.169.721-.39.619-.491-.285-.286.954-1.866 1.633-2.082.333-.105.523-.324.422-.487-.232-.377.458-1.229.816-1.007.149.091.287.021.308-.156.021-.177.055-.488.076-.692.021-.204.311-.516.646-.692.334-.177.651-.523.704-.769.054-.247.43-.738.836-1.091.407-.354.739-.755.739-.891 0-.483 1.982-3.162 2.345-3.17.461-.009.963-.942.78-1.451-.074-.209-.004-.38.158-.38s.369-.287.461-.639c.106-.406.302-.555.538-.409.238.148.293.103.153-.123-.122-.198-.007-.434.263-.538a.654.654 0 0 0 .399-.681c-.045-.274.085-.465.288-.425.202.039.296-.116.208-.346-.092-.24.235-.699.771-1.081.512-.364.931-.849.931-1.076 0-.228.181-.594.402-.815.433-.433.51-.627.51-1.278 0-.232.308-.505.684-.608.528-.145.589-.249.268-.456-.334-.215-.274-.409.298-.982.393-.393.73-.854.75-1.024.019-.17.056-.464.081-.654.026-.189.354-.429.731-.532.533-.146.591-.247.262-.458-.334-.216-.279-.347.269-.641.536-.287.598-.426.278-.624-.329-.204-.303-.297.128-.463.298-.114.473-.386.389-.605-.084-.218.265-.805.775-1.304s.838-1.052.729-1.229c-.265-.429.3-1.48 1.445-2.69.539-.57.761-.988.525-.988-.254 0-.157-.22.257-.578.478-.415.555-.623.274-.736-.317-.127-.316-.162.006-.182.218-.013.319-.151.223-.307-.234-.377.777-2.469 1.097-2.271.138.085.16-.08.05-.367-.137-.359-.086-.452.163-.297.2.123.344.111.32-.026-.119-.687.062-1.33.329-1.165.169.105.225-.011.127-.265-.095-.248.113-.838.463-1.311.35-.473.69-1.14.756-1.481.222-1.156 1.092-2.955 1.624-3.359.394-.299.42-.404.102-.411-.34-.008-.325-.123.076-.566.277-.306.413-.648.301-.76-.112-.112-.048-.204.142-.204.189 0 .266-.205.17-.455-.097-.251-.024-.456.161-.456s.337-.336.337-.745c0-.41.211-.863.47-1.008.259-.145.493-.562.521-.927.027-.365.153-.664.28-.664.126 0 .151-.205.054-.456-.107-.279.001-.456.278-.456.25 0 .525-.273.612-.608.088-.334.035-.607-.116-.607-.152 0-.276-.118-.276-.261 0-.143 1.915-.246 4.256-.228 2.34.018 4.255-.061 4.255-.174 0-.114.703-.155 1.563-.091 1.004.075 1.879-.047 2.447-.341.486-.251 1.15-.372 1.476-.268.335.106.593.047.593-.137 0-.178.539-.324 1.198-.324.659 0 1.282-.137 1.386-.304.103-.167.658-.304 1.233-.304.576 0 1.046-.137 1.046-.304 0-.167.411-.304.912-.304.502 0 .912-.146.912-.324 0-.193.263-.242.644-.12.803.254 2.291-.457 1.717-.822-.388-.246.309-.397 1.241-.269.226.031.329-.076.23-.237-.225-.363.664-.734 1.106-.462.183.113.235.057.12-.129-.209-.337.879-.852 1.537-.726.2.038.515-.213.699-.557.184-.345.462-.548.618-.452.378.234 1.571-.422 1.367-.752-.089-.143.136-.183.498-.088.515.135.619.066.473-.314-.137-.358.09-.578.864-.833.577-.191.978-.463.89-.605-.19-.307.423-.737 1.066-.749.251-.004.422-.179.38-.388-.042-.209.137-.38.398-.38.26 0 .389-.136.286-.304-.104-.167-.029-.304.166-.304.334 0 1.925-1.192 2.027-1.519.285-.917.536-1.225.885-1.091.23.088.434.027.455-.135l.076-.611c.021-.175.721-.927 1.556-1.672.835-.745 1.339-1.355 1.122-1.355-.218 0-.31-.139-.205-.308.105-.17.339-.218.521-.105.198.122.242.062.11-.152-.129-.209.219-.783.842-1.388.584-.567.981-1.112.882-1.21-.099-.099.014-.182.251-.185.36-.004.362-.047.014-.268-.336-.213-.293-.385.221-.9.35-.35.697-.969.771-1.377.188-1.034.706-1.929 1.328-2.291.29-.169.365-.312.165-.317-.392-.01-.349-.344.316-2.454l.436-1.381-2.17-1.736c-6.96-5.57-19.185-8.169-32.414-6.891-6.576.636-6.235.682-6.205-.845.013-.711-.066-1.292-.178-1.292-.111 0-.225-.205-.253-.456l-.101-.912c-.028-.25-.142-.456-.254-.456-.229 0-.32-.446-.4-1.975-.03-.585-.21-1.064-.4-1.064-.409 0-.721-1.026-.563-1.848.062-.321-.024-.584-.192-.584-.167 0-.22-.136-.116-.304.103-.167.045-.304-.13-.304-.302 0-1.33-1.937-1.371-2.583-.01-.167-.269-.554-.574-.86-.306-.305-.481-.75-.39-.987.091-.238.025-.433-.146-.433-.172 0-.228-.137-.125-.304.104-.167-.033-.304-.304-.304-.27 0-.416-.122-.323-.272.092-.149-.051-.356-.318-.458-.277-.107-.411-.382-.312-.64.096-.249.008-.457-.196-.461-.344-.008-2.295-2.602-2.335-3.105-.01-.123-.666-.891-1.458-1.705-.793-.815-1.8-1.876-2.24-2.359-1.129-1.241-4.566-4.374-4.798-4.374-.107 0-.644-.41-1.193-.911-.549-.502-1.126-.912-1.283-.912-.157 0-.285-.137-.285-.304 0-.167-.156-.304-.347-.304-.19 0-1.045-.431-1.899-.958-3.509-2.163-3.711-2.247-4.391-1.815M90.805 69.671c-.537.673-.653 1.227-.573 2.745.024.46-.11.836-.299.836-.223 0-.197.176.075.506.336.406.341.531.025.637-.321.108-.321.219 0 .608s.321.5 0 .608c-.321.108-.321.219 0 .608s.321.5 0 .608c-.321.108-.321.219 0 .608.321.388.321.5 0 .608-.321.107-.321.219 0 .607.321.389.321.5 0 .608-.321.108-.321.219 0 .608s.321.5 0 .608c-.321.108-.321.219 0 .608s.321.5 0 .608c-.321.108-.321.219 0 .608s.321.5 0 .608c-.321.108-.321.219 0 .608.321.388.321.5 0 .608-.321.108-.321.219 0 .607.321.389.321.5 0 .608-.321.108-.321.219 0 .608s.321.5 0 .608c-.321.108-.321.219 0 .608s.321.5 0 .608c-.321.108-.321.219 0 .608s.321.5 0 .608c-.321.108-.321.219 0 .608s.321.5 0 .608c-.321.108-.321.219 0 .607.321.389.321.5 0 .608-.321.108-.321.219 0 .608s.321.5 0 .608c-.321.108-.321.219 0 .608s.321.5 0 .608c-.321.108-.321.219 0 .608s.321.5 0 .608c-.275.092-.299.245-.082.506.171.206.36.706.421 1.11.076.505.341.769.842.842.402.057.868.206 1.035.33.167.124 6.528.21 14.134.191 14.655-.037 14.93-.063 15.373-1.462.093-.293.263-.532.377-.532.114-.001.207-5.882.207-13.07 0-7.189-.112-13.07-.249-13.07-.138 0-.455-.205-.706-.456-.393-.393-2.501-.455-15.252-.452l-14.796.004-.532.666m36.979.314-.884.988.152 12.462c.16 13.152.189 13.405 1.602 14.193 1.025.571 27.33.615 28.749.048.561-.224 1.142-.332 1.292-.24.149.093.282.058.294-.078.013-.135.115-.587.228-1.005.431-1.596.237-25.706-.212-26.246-.229-.276-.297-.512-.152-.524.146-.011-.008-.138-.342-.282-.335-.144-7.186-.271-15.225-.283l-14.617-.021-.885.988m37.922-.285c-.363.387-.66.934-.66 1.216 0 .282-.134.513-.298.513-.176 0-.146.331.073.811.295.648.291.838-.02.942-.315.105-.314.22.004.605.321.389.321.5 0 .608-.321.108-.321.219 0 .608s.321.5 0 .608c-.321.108-.321.219 0 .608s.321.5 0 .608c-.321.108-.321.219 0 .608.321.388.321.5 0 .608-.321.107-.321.219 0 .607.321.389.321.5 0 .608-.321.108-.321.219 0 .608s.321.5 0 .608c-.321.108-.321.219 0 .608s.321.5 0 .608c-.321.108-.321.219 0 .608s.321.5 0 .608c-.321.108-.321.219 0 .608.321.388.321.5 0 .608-.321.108-.321.219 0 .607.321.389.321.5 0 .608-.321.108-.321.219 0 .608s.321.5 0 .608c-.321.108-.321.219 0 .608s.321.5 0 .608c-.321.108-.321.219 0 .608s.321.5 0 .608c-.321.108-.321.219 0 .608s.321.5 0 .608c-.321.108-.321.219 0 .607.321.389.321.5 0 .608-.321.108-.321.219 0 .608s.321.5 0 .608c-.321.108-.321.219 0 .608s.321.5 0 .608c-.312.105-.316.225-.02.582.233.279.262.527.079.654-.421.293-.346.943.145 1.246.23.142.331.4.225.572-.702 1.135 27.177 1.844 29.892.76 2.237-.894 2.097.006 2.128-13.693.016-6.778.101-12.441.19-12.584.088-.143.025-.26-.141-.26-.297 0-.657-.787-.62-1.356.041-.648-1.672-.73-15.703-.751l-14.613-.021-.661.703m36.819.082c-.366.397-.542.797-.391.891.163.1.163.461.001.887-.15.395-.19.8-.089.901.101.101-.011.185-.248.188-.354.004-.35.057.026.299.331.214.347.296.058.3-.219.002-.325.123-.235.268.09.145.173 5.263.184 11.373.018 9.288.093 11.168.459 11.473.242.2.362.488.268.64-.095.153.01.24.231.194.221-.046.376.065.343.247-.086.475 1.03.514 15.485.55 7.169.017 12.994.15 12.994.296s.224.08.497-.147c.273-.227.65-.428.836-.447 1.26-.127 1.262-.128.838-.397-.287-.182-.31-.325-.076-.469.185-.115.337-.482.337-.816 0-.335.102-.545.228-.467.125.077.227-5.386.227-12.14 0-6.755-.102-12.281-.227-12.281-.126 0-.228-.206-.228-.456 0-1.679.039-1.675-16.034-1.64l-14.818.032-.666.721m38.073-.199c-1.083 1.196-1.721 23.966-.738 26.352.198.48.339.973.313 1.094-.18.853 3.379 1.079 15.906 1.012 12.155-.065 15.528-.242 15.186-.796-.084-.136.089-.383.385-.548.577-.323.75-1.579.264-1.917-.183-.127-.153-.375.079-.654.296-.357.292-.477-.02-.582-.321-.108-.321-.219 0-.608s.321-.5 0-.608c-.321-.108-.321-.219 0-.608s.321-.5 0-.608c-.321-.108-.321-.219 0-.607.321-.389.321-.5 0-.608-.321-.108-.321-.219 0-.608s.321-.5 0-.608c-.321-.108-.321-.219 0-.608s.321-.5 0-.608c-.321-.108-.321-.219 0-.608s.321-.5 0-.608c-.321-.108-.321-.219 0-.608s.321-.5 0-.608c-.321-.108-.321-.219 0-.608.321-.388.321-.499 0-.607-.321-.108-.321-.219 0-.608s.321-.5 0-.608c-.321-.108-.321-.219 0-.608s.321-.5 0-.608c-.321-.108-.321-.219 0-.608s.321-.5 0-.608c-.321-.108-.321-.219 0-.608s.321-.5 0-.608c-.321-.108-.321-.219 0-.608.321-.388.321-.499 0-.607-.321-.108-.321-.22 0-.608.321-.389.321-.5 0-.608-.321-.108-.321-.219 0-.608s.321-.5 0-.608c-.321-.108-.321-.219 0-.608s.321-.5 0-.608c-.316-.106-.311-.231.025-.637.229-.278.283-.506.119-.506-.164 0-.298-.612-.298-1.36 0-2.683.709-2.569-16.073-2.581-14.054-.01-14.639.013-15.148.576M58.587 245.685c-.627.175-1.14.432-1.14.569 0 .138-.213.251-.474.251s-.405.111-.32.248c.084.137-.173.601-.572 1.031-.399.431-.643.866-.541.968.101.101.038.184-.142.184-.179 0-.254.274-.167.608.088.334.041.608-.104.608-.147 0-.228 6.987-.182 15.706.08 15.415.07 15.694-.492 15.046-.315-.364-.728-.661-.917-.661-.19 0-.593-.248-.896-.552-.69-.689-5.381-2.979-8.111-3.959-6.049-2.171-17.22-1.811-23.215.749-2.489 1.063-5.037 2.36-5.154 2.622-.056.126-.295.228-.532.228-.237 0-.43.114-.43.253s-.352.441-.782.671c-.909.486-2.85 2.143-4.17 3.56-.507.543-1.104.987-1.328.987-.224 0-.373.16-.331.356.041.195-.198.506-.532.692-.335.185-.648.538-.697.784-.049.247-.357.675-.684.953-.327.277-.595.619-.595.76-.001.14-.342.652-.76 1.138-.418.486-.76 1.041-.76 1.234 0 .194-.251.622-.558.951-.307.33-.652.971-.766 1.425-.114.454-.418.826-.675.826-.258 0-.385.134-.284.298.202.327-.439 2.741-.728 2.742-.099 0-.202.372-.228.826-.027.455-.183.872-.348.926-.165.055-.23.367-.144.694.085.326.036.593-.109.593-.38 0-.457 1.195-.555 8.587-.052 3.987.027 6.611.199 6.611.157 0 .199.273.093.607-.11.348-.055.608.13.608.177 0 .273.308.212.684-.06.376.223 1.348.631 2.159.407.811.665 1.671.573 1.911-.093.24.043.517.3.616a.486.486 0 0 1 .292.639c-.103.269.084.642.451.899.419.293.566.632.442 1.021-.103.325-.041.582.14.582.178 0 .324.172.324.383 0 .21.259.544.575.742.317.197.888 1.051 1.27 1.897.383.845.786 1.537.897 1.537.378 0 2.729 2.478 2.729 2.876 0 .218.288.472.639.564.351.092.549.311.44.488-.115.185-.023.254.217.161.228-.087.667.12.974.46.308.34.454.618.324.618s-.073.197.127.438.526.376.724.3c.199-.077.802.264 1.34.755.539.492 1.253.981 1.587 1.087.334.106.576.356.537.554-.038.199.145.364.407.367.962.01 2.976 1.121 2.811 1.55-.146.382.875.625 1.852.441.152-.029.376.109.497.306.122.197.734.39 1.359.427.646.04 1.25.271 1.398.535.189.338.636.438 1.624.364.75-.056 1.43.006 1.511.137.213.344 9.132.399 11.116.07 1.16-.194 1.798-.175 2.084.059.315.258.514.201.836-.24.233-.318.423-.468.423-.332s.192.089.427-.106c.327-.272.464-.263.588.039.12.288.289.235.638-.198.261-.324.475-.436.475-.249 0 .488 1.876-.088 2.341-.717.202-.275.575-.415.836-.315.293.112.47.012.47-.266 0-.403.365-.581.988-.482.126.02.228-.084.228-.229 0-.146.513-.348 1.14-.448.789-.126 1.235-.395 1.447-.874.191-.432.517-.657.866-.597.308.053.48-.032.382-.19-.196-.318 1.708-1.707 2.776-2.024.376-.111.684-.398.684-.638 0-.239.185-.435.411-.435.48 0 2.344-1.704 2.114-1.933-.235-.236.776-1.561 1.204-1.577.206-.007.341-.176.3-.374-.041-.198.266-.583.682-.855.415-.272.682-.612.594-.756-.089-.143.104-.426.428-.629.324-.202.525-.536.446-.742-.079-.206.139-.464.486-.574.593-.188.751-.483.666-1.242-.02-.177.203-.593.496-.923.292-.331.576-.801.63-1.046.055-.244.211-.484.348-.534.137-.05.181-.35.098-.667-.094-.359.142-.869.627-1.353.427-.427.644-.777.481-.777-.437 0 .036-1.608.602-2.042.264-.204.334-.375.154-.38-.19-.006-.271-.393-.194-.919.073-.499.24-.842.371-.761.131.081.317-.057.413-.307.096-.25.007-.456-.196-.459-.235-.003-.203-.113.085-.299.335-.217.35-.296.056-.3-.25-.003-.334-.215-.224-.563.403-1.268.454-5.16.433-33.18-.026-34.523.013-31.915-.482-31.915-.215 0-.391-.141-.391-.313 0-2.067-5.065-3.62-8.586-2.634m158.282.37c-.836.412-1.411.749-1.279.751.132.001-.109.379-.535.838-.427.46-.852 1.076-.945 1.368-.093.293-.314.532-.49.532-.216 0-.21.133.018.408.186.224.263.483.171.576-.093.092-.176.729-.186 1.416-.009.686-.154 1.247-.322 1.247s-.118.228.112.506c.335.406.34.531.024.637-.321.108-.321.219 0 .608s.321.5 0 .608c-.321.108-.321.219 0 .608s.321.5 0 .608c-.321.108-.321.219 0 .608s.321.5 0 .608c-.321.108-.321.219 0 .608.321.388.321.5 0 .608-.321.107-.321.219 0 .607.321.389.321.5 0 .608-.321.108-.321.219 0 .608s.321.5 0 .608c-.321.108-.321.219 0 .608s.321.5 0 .608c-.321.108-.321.219 0 .608s.321.5 0 .608c-.321.108-.321.219 0 .608.321.388.321.5 0 .608-.321.108-.321.219 0 .607.321.389.321.5 0 .608-.321.108-.321.219 0 .608s.321.5 0 .608c-.321.108-.321.219 0 .608s.321.5 0 .608c-.321.108-.321.219 0 .608s.321.5 0 .608c-.321.108-.321.219 0 .608s.321.5 0 .608c-.321.108-.321.219 0 .607.321.389.321.5 0 .608-.321.108-.321.219 0 .608s.321.5 0 .608c-.321.108-.321.219 0 .608s.321.5 0 .608c-.321.108-.321.219 0 .608s.321.5 0 .608c-.321.108-.321.219 0 .608s.321.5 0 .608c-.321.108-.321.219 0 .608.321.388.321.499 0 .607-.321.108-.321.219 0 .608s.321.5 0 .608c-.321.108-.321.219 0 .608s.321.5 0 .608c-.321.108-.321.219 0 .608s.321.5 0 .608c-.321.108-.321.219 0 .608s.321.5 0 .608c-.321.108-.321.219 0 .608.321.388.321.499 0 .607-.321.108-.321.22 0 .608.321.389.321.5 0 .608-.321.108-.321.219 0 .608s.321.5 0 .608c-.321.108-.321.219 0 .608s.321.5 0 .608c-.321.108-.321.219 0 .608s.321.5 0 .608c-.321.108-.321.219 0 .608.321.388.321.5 0 .607-.321.108-.321.22 0 .608.321.389.321.5 0 .608-.321.108-.321.219 0 .608s.321.5 0 .608c-.321.108-.321.219 0 .608s.321.5 0 .608c-.321.108-.321.219 0 .608s.321.5 0 .608c-.321.108-.321.219 0 .608.321.388.321.5 0 .607-.321.108-.321.22 0 .608.321.389.321.5 0 .608-.321.108-.321.219 0 .608s.321.5 0 .608c-.321.108-.321.219 0 .608s.321.5 0 .608c-.321.108-.321.219 0 .608s.321.5 0 .608c-.321.108-.321.219 0 .608.321.388.321.5 0 .608-.321.107-.321.219 0 .607.321.389.321.5 0 .608-.321.108-.321.219 0 .608s.321.5 0 .608c-.321.108-.321.219 0 .608s.321.5 0 .608c-.321.108-.321.219 0 .608s.321.5 0 .608c-.321.108-.321.219 0 .608.321.388.321.5 0 .608-.321.108-.321.219 0 .607.321.389.321.5 0 .608-.321.108-.321.219 0 .608s.321.5 0 .608c-.321.108-.321.219 0 .608s.321.5 0 .608c-.321.108-.321.219 0 .608s.321.5 0 .608c-.321.108-.321.219 0 .608s.321.5 0 .608c-.321.108-.321.219 0 .607.321.389.321.5 0 .608-.321.108-.321.219 0 .608s.321.5 0 .608c-.321.108-.321.219 0 .608s.321.5 0 .608c-.321.108-.321.219 0 .608s.321.5 0 .608c-.321.108-.321.219 0 .608s.321.5 0 .608c-.321.108-.321.219 0 .608.321.388.321.499 0 .607-.321.108-.321.219 0 .608s.321.5 0 .608c-.321.108-.321.219 0 .608s.321.5 0 .608c-.321.108-.321.219 0 .608s.321.5 0 .608c-.321.108-.321.219 0 .608s.321.5 0 .608c-.321.108-.321.219 0 .608.321.388.321.499 0 .607-.321.108-.321.22 0 .608.321.389.321.5 0 .608-.321.108-.321.219 0 .608s.321.5 0 .608c-.321.108-.321.219 0 .608s.321.5 0 .608c-.321.108-.321.219 0 .608s.321.5 0 .608c-.321.108-.321.219 0 .608.321.388.321.5 0 .607-.294.099-.307.236-.052.543.235.283.246.58.034.958-.226.404-.18.687.175 1.08.372.41.388.532.073.532-.299 0-.276.103.083.38.271.209.537.722.59 1.14.054.418.255.76.448.76s.675.349 1.071.777c.973 1.05 3.175 1.633 5.187 1.375a79.86 79.86 0 0 1 2.182-.256c.564-.049 1.848-1.105 1.848-1.52 0-.113.239-.484.532-.826.292-.342.532-.698.532-.791 0-.094.215-.386.478-.649.389-.388.403-.526.076-.733-.26-.165-.278-.257-.051-.26.202-.003.284-.265.192-.614-.087-.336 0-.801.193-1.035.271-.325.261-.455-.04-.557-.32-.108-.32-.219 0-.607.321-.389.321-.5 0-.608-.32-.108-.32-.219 0-.608.321-.389.321-.5 0-.608-.32-.108-.32-.219 0-.608.321-.389.321-.5 0-.608-.32-.108-.32-.219 0-.608.321-.389.321-.5 0-.608-.32-.108-.32-.219 0-.608.321-.389.321-.5 0-.608-.32-.108-.32-.219 0-.608.321-.388.321-.499 0-.607-.32-.108-.32-.219 0-.608.321-.389.321-.5 0-.608-.32-.108-.32-.219 0-.608.321-.389.321-.5 0-.608-.32-.108-.32-.219 0-.608.321-.389.321-.5 0-.608-.32-.108-.32-.219 0-.608.321-.389.321-.5 0-.608-.32-.108-.32-.219 0-.608.321-.388.321-.499 0-.607-.32-.108-.32-.22 0-.608.321-.389.321-.5 0-.608-.32-.108-.32-.219 0-.608.321-.389.321-.5 0-.608-.32-.108-.32-.219 0-.608.321-.389.321-.5 0-.608-.32-.108-.32-.219 0-.608.321-.389.321-.5 0-.608-.315-.106-.311-.231.025-.637.284-.345.305-.505.065-.505-1.027 0-.087-1.688 1.215-2.18.738-.28 1.313-.642 1.277-.805-.036-.163.226-.22.583-.127.516.135.608.065.451-.345-.195-.509.995-1.272 1.793-1.15.182.028.499-.319.705-.771.3-.658.43-.734.653-.382.153.242.28.317.283.165.002-.151.278-.027.612.275.335.303.608.74.608.972 0 .52.874 1.446 1.615 1.713.304.109.466.336.362.505-.104.168.033.306.303.306s.416.122.324.272c-.093.15.036.35.286.446.249.096.454.427.454.735 0 .536 1.491 1.89 2.083 1.89.254 0 .749.893.653 1.179-.021.062.277.279.664.48.387.202.666.537.62.744-.046.208.049.296.212.195.163-.101.459.128.657.509s.832 1.132 1.408 1.669c.577.536.96 1.118.853 1.292-.108.174.14.444.552.601.833.316 1.783 1.494 1.533 1.899-.089.144.019.224.241.178.221-.046.367.092.323.305-.043.214.162.474.456.578.85.302 1.571 1.034 1.416 1.437-.144.376.994 1.612 1.355 1.472.107-.042.213.061.234.228l.076.616c.021.171.38.441.798.6.417.159.759.482.759.717s.288.503.639.595c.352.092.548.313.438.491-.11.179-.003.325.238.325.242 0 .663.342.937.76s.363.759.198.759c-.165 0 .003.317.373.704.37.387.775.652.901.59.125-.063.228.031.228.208s.19.322.423.322c.407 0 .941.82.841 1.292-.027.125.123.194.332.152.209-.042.345.095.304.304-.042.209.094.346.303.304.209-.042.343.105.297.326-.046.222.05.321.213.22.163-.101.459.128.659.509s.549.802.776.936c.226.133.411.41.411.614 0 1.156 7.346 1.558 7.937.434.198-.376.749-1.06 1.225-1.521.476-.46.854-.909.841-.997-.014-.088.139-.6.341-1.138.446-1.19.382-2.933-.164-4.482-.224-.634-.326-1.234-.228-1.333.099-.098-.071-.179-.377-.179-.307 0-.483-.075-.392-.166.091-.091-.705-1.064-1.77-2.161-1.066-1.097-1.862-2.116-1.77-2.265.093-.149-.068-.271-.356-.271-.289 0-.449-.076-.356-.169.093-.093-.842-1.2-2.078-2.46-1.235-1.26-2.17-2.415-2.076-2.567.094-.151-.065-.275-.354-.275-.288 0-.448-.076-.355-.169.093-.093-.842-1.2-2.078-2.46-1.236-1.26-2.17-2.415-2.076-2.567.094-.151-.065-.276-.354-.276-.288 0-.448-.076-.356-.168.093-.093-.842-1.2-2.077-2.46-1.236-1.26-2.17-2.415-2.076-2.567.094-.152-.066-.276-.354-.276-.289 0-.449-.076-.356-.169.093-.093-.842-1.199-2.077-2.459-1.236-1.26-2.17-2.415-2.076-2.567.093-.152-.066-.276-.354-.276-.289 0-.438-.086-.333-.192.106-.106-.44-.789-1.213-1.52-.926-.874-1.234-1.327-.902-1.327.278 0 .505-.145.505-.322 0-.177.13-.242.288-.144.159.098.438-.099.619-.438.181-.339.607-.616.945-.616.338 0 .53-.138.425-.308-.106-.171.228-.391.753-.496.518-.103 1.074-.435 1.236-.736.161-.301.669-.591 1.129-.644.459-.052.803-.262.763-.465-.04-.204.118-.296.353-.206.256.098.507-.096.632-.489.135-.425.368-.589.673-.472.526.201 1.38-.371 1.138-.763-.134-.217.616-.807 1.076-.845.331-.028 2.263-.936 2.015-.947-.54-.024.512-.924 1.08-.924.323 0 .51-.127.414-.282-.096-.155.135-.376.514-.491.379-.115.975-.47 1.325-.79.35-.32.965-.643 1.367-.718.403-.075 1.024-.499 1.382-.942.358-.444.803-.711.99-.596.402.249 1.316-.565 1.005-.894-.117-.124.115-.125.516-.001.603.186.696.137.536-.282-.115-.298-.071-.43.106-.321.165.102.3.041.3-.136 0-.177.196-.322.434-.322.239 0 .645-.21.901-.467.257-.257.54-.462.63-.456.618.041.771-.036.771-.392 0-.48 1.122-1.54 1.975-1.867.413-.158.48-.28.21-.38-.309-.115-.281-.279.123-.725.373-.412.408-.576.123-.576-.277 0-.231-.184.152-.608.303-.334.415-.608.25-.608-.165 0-.315-.445-.333-.988-.05-1.509-.488-2.805-1.185-3.51a9.942 9.942 0 0 1-.777-.926c-1.086-1.492-7.529-2.552-7.529-1.239 0 .154-.274.28-.608.28-.334 0-.608.121-.608.268 0 .306-7.439 5.203-7.903 5.203a.305.305 0 0 0-.304.304c0 .167-.205.304-.456.304-.25 0-.455.103-.455.229 0 .125-.645.57-1.434.987-.788.418-1.738 1.042-2.11 1.386-.372.345-1.194.892-1.827 1.216-.632.324-1.494.899-1.917 1.277-.422.378-1.03.77-1.352.873-.321.102-.836.42-1.145.708-.308.287-.934.714-1.391.95-.457.235-.899.507-.983.603-.083.096-.767.507-1.519.912-.753.406-1.505.885-1.672 1.066-.372.402-3.682 2.559-3.927 2.559-.097 0-.45.274-.784.608-.335.334-.813.608-1.064.608-.251 0-.456.137-.456.304 0 .167-.205.304-.456.304s-.456.113-.456.252-.376.447-.836.684c-.459.237-1.09.661-1.401.941-.311.28-.755.437-.988.347-.508-.195-.547-.592-.086-.877.237-.146.22-.279-.056-.45-.312-.193-.316-.336-.02-.693.296-.356.292-.476-.02-.581-.32-.108-.32-.219 0-.608.321-.389.321-.5 0-.608-.32-.108-.32-.219 0-.608.321-.389.321-.5 0-.608-.32-.108-.32-.219 0-.608.321-.389.321-.5 0-.608-.32-.108-.32-.219 0-.608.321-.388.321-.5 0-.607-.32-.108-.32-.22 0-.608.321-.389.321-.5 0-.608-.32-.108-.32-.219 0-.608.321-.389.321-.5 0-.608-.32-.108-.32-.219 0-.608.321-.389.321-.5 0-.608-.32-.108-.32-.219 0-.608.321-.389.321-.5 0-.608-.32-.108-.32-.219 0-.608.321-.388.321-.5 0-.608-.32-.107-.32-.219 0-.607.321-.389.321-.5 0-.608-.32-.108-.32-.219 0-.608.321-.389.321-.5 0-.608-.32-.108-.32-.219 0-.608.321-.389.321-.5 0-.608-.32-.108-.32-.219 0-.608.321-.389.321-.5 0-.608-.32-.108-.32-.219 0-.608.321-.388.321-.5 0-.608-.32-.107-.32-.219 0-.607.321-.389.321-.5 0-.608-.32-.108-.32-.219 0-.608.321-.389.321-.5 0-.608-.32-.108-.32-.219 0-.608.321-.389.321-.5 0-.608-.32-.108-.32-.219 0-.608.321-.389.321-.5 0-.608-.32-.108-.32-.219 0-.608.321-.388.321-.5 0-.608-.32-.108-.32-.219 0-.607.321-.389.321-.5 0-.608-.32-.108-.32-.219 0-.608.321-.389.321-.5 0-.608-.32-.108-.32-.219 0-.608.321-.389.321-.5 0-.608-.32-.108-.32-.219 0-.608.321-.389.321-.5 0-.608-.32-.108-.32-.219 0-.608.321-.389.321-.5 0-.608-.32-.108-.32-.219 0-.607.321-.389.321-.5 0-.608-.32-.108-.32-.219 0-.608.321-.389.321-.5 0-.608-.32-.108-.32-.219 0-.608.321-.389.321-.5 0-.608-.32-.108-.32-.219 0-.608.321-.389.321-.5 0-.608-.32-.108-.32-.219 0-.608.321-.389.321-.5 0-.608-.32-.108-.32-.219 0-.608.321-.388.321-.499 0-.607-.32-.108-.32-.219 0-.608.321-.389.321-.5 0-.608-.32-.108-.32-.219 0-.608.321-.389.321-.5 0-.608-.32-.108-.32-.219 0-.608.321-.389.321-.5 0-.608-.32-.108-.32-.219 0-.608.321-.389.321-.5 0-.608-.32-.108-.32-.219 0-.608.321-.388.321-.499 0-.607-.32-.108-.32-.22 0-.608.287-.348.298-.508.042-.593-.194-.065-.37-.761-.393-1.548-.023-.786-.144-1.431-.27-1.432-.126-.001-.741-.57-1.368-1.264-2.04-2.261-5.175-2.768-8.13-1.315m-113.147 28.444c-3.936.458-6.995 1.367-10.375 3.084-1.235.627-2.42 1.14-2.634 1.14-.214 0-.434.124-.49.275-.158.429-3.383 2.765-3.817 2.765-.213 0-.354.118-.312.261.09.311-2.456 2.778-2.867 2.778-.156 0-.2.137-.096.304.103.168-.048.304-.337.304-.288 0-.44.085-.336.188.228.228-.525 1.028-.968 1.028-.174 0-.25.173-.169.383.081.211-.253.822-.743 1.358-.489.536-1.2 1.595-1.578 2.352-.379.758-.877 1.378-1.108 1.378-.231 0-.336.137-.232.304.103.167.047.304-.125.304s-.234.204-.138.454a.485.485 0 0 1-.28.627c-.273.105-.393.409-.3.763.087.335 0 .588-.204.588-.196 0-.269.143-.161.317.108.175-.041.679-.33 1.121-.29.442-.549 1.017-.577 1.278-.183 1.742-.582 3.363-.828 3.363-.159 0-.203.273-.097.608.115.362.055.608-.149.608-.189 0-.258.136-.155.304.103.167.064.304-.087.304-.296 0-.312 1.173-.022 1.671.097.167.078 1.672-.043 3.344-.122 1.689-.098 3.276.053 3.571.183.357.157.532-.079.532-.26 0-.256.116.015.443.202.243.279.585.171.76-.108.174-.066.317.093.317.378 0 .606 1.994.292 2.556-.152.27-.062.619.235.916.36.36.379.481.078.488-.264.006-.227.111.107.307.483.281 1.152 1.853 1.354 3.18.226 1.481.342 1.757.856 2.045.404.226.448.366.169.538-.279.172-.21.398.268.876.354.354.643.804.643.999 0 .195.09.265.198.156.109-.109.371.039.582.328.283.386.293.581.039.738-.225.14-.137.293.254.439.854.322 1.404 1.112.964 1.384-.21.13-.015.338.5.533.464.177.765.448.669.604-.096.155.101.37.437.477.337.107.613.39.613.63 0 .239.145.435.322.435.177 0 .236.138.132.306-.104.168.027.389.29.49.603.231 2.599 2.211 2.599 2.578 0 .15.213.273.474.273s.398.123.306.273c-.192.31.67.719 1.037.492.245-.152.783.351.969.907.056.167.296.305.533.305.237.001.488.172.557.38.069.209.38.379.69.379.31 0 1.013.41 1.562.912.549.501 1.139.933 1.311.958.172.025.478.061.681.079.204.019.56.294.793.613.291.398.793.578 1.607.578.711-.001 1.341.191 1.581.481.298.36.44.386.557.103.202-.485 1.643-.176 2.15.461.303.38.456.394.836.078.256-.212.466-.254.466-.094 0 .419 12.175.451 12.677.034.214-.178.727-.259 1.14-.18.413.079.8-.004.861-.185.06-.18.564-.293 1.12-.251.706.054 1.19-.116 1.608-.565.385-.413.702-.537.892-.347.45.45 1.525.063 1.318-.474-.137-.358.005-.42.667-.288.879.175 1.905-.349 1.905-.972 0-.198.239-.32.532-.27.293.049.501-.074.462-.273-.038-.198.225-.454.585-.569.36-.114.937-.471 1.284-.794.346-.323.839-.532 1.096-.465.256.067.639-.062.849-.288.211-.225.284-.41.162-.41-.121 0 .168-.405.643-.901.475-.495.947-.849 1.05-.785.102.063.594-.374 1.093-.973.499-.598 1.658-1.851 2.577-2.785.919-.934 1.688-1.801 1.71-1.927.021-.125.056-.349.077-.497.021-.148.547-.763 1.169-1.368.622-.604.956-1.098.742-1.098-.214 0-.303-.139-.198-.309.105-.17.304-.239.442-.154.138.086.33-.049.425-.299.096-.249.034-.454-.137-.454-.263 0 .468-1.656.939-2.128.083-.083.197-.425.252-.759.055-.335.294-.911.532-1.281.237-.371.431-1.009.431-1.419 0-.41.145-.793.323-.853.177-.059.373-.788.436-1.621.063-.832.206-2.129.318-2.881.112-.752.224-1.71.248-2.128.024-.418.155-.931.29-1.14.141-.219.109-.38-.077-.38-.437 0-.408-1.008.043-1.458.284-.284.284-.365 0-.365-.201 0-.365-.246-.365-.547 0-.301.164-.712.365-.912.284-.284.281-.365-.011-.365-.281 0-.294-.152-.05-.608.233-.436.231-.608-.007-.608-.183 0-.255-.125-.161-.278.095-.153.01-.332-.188-.398-.232-.077-.263-.274-.086-.557.392-.629.436-1.198.093-1.198-.162 0-.21-.137-.107-.304.104-.167.027-.304-.169-.304-.208 0-.291-.255-.199-.608.088-.334.058-.608-.065-.608-.228 0-.3-.293-.415-1.672-.035-.418-.166-.76-.292-.76-.125 0-.228-.184-.228-.409 0-.225-.217-.846-.484-1.379-.266-.534-.407-1.17-.313-1.415.094-.244.042-.444-.116-.444-.331 0-1.33-1.809-1.117-2.022.078-.079-.193-.477-.602-.887-.409-.409-.669-.865-.577-1.013.092-.148-.038-.348-.288-.444-.25-.096-.454-.369-.454-.607s-.219-.517-.487-.62c-.279-.107-.413-.382-.314-.641.107-.277-.003-.453-.282-.453-.251 0-.546-.239-.655-.532-.11-.292-.58-.89-1.044-1.328-.464-.437-.758-.882-.652-.988.106-.105-.044-.192-.333-.192-.288 0-.44-.136-.336-.303.103-.168-.01-.304-.251-.304s-.933-.548-1.537-1.216c-.604-.669-1.235-1.216-1.403-1.216a.305.305 0 0 1-.305-.304c0-.167-.213-.304-.474-.304-.26 0-.389-.137-.286-.304.104-.167-.025-.304-.286-.304-.26 0-.716-.239-1.012-.532-.296-.292-1.219-.874-2.051-1.292-.833-.417-1.559-.862-1.615-.987-.056-.126-.297-.228-.536-.228-.239 0-.672-.132-.963-.292-3.635-2.008-12.092-3.127-18.234-2.413m74.242-.034c-6.614.813-14.05 4.248-18.073 8.348-.745.76-1.532 1.382-1.748 1.382-.216 0-.358.159-.316.355.042.195-.231.515-.606.711-.376.195-.618.42-.539.499.079.079-.435.766-1.142 1.528-.706.762-1.327 1.566-1.38 1.786-.052.221-.369.639-.703.929-.335.291-.566.584-.513.652.191.246-1.385 3.266-1.704 3.266-.181 0-.349.308-.375.684-.06.89-.804 2.963-1.063 2.963-.111 0-.135.254-.054.563.081.309-.034.754-.256.988-.222.234-.381.878-.354 1.432.029.582-.115 1.071-.34 1.158-.271.104-.351.609-.262 1.652.088 1.022.015 1.502-.229 1.502-.266 0-.261.116.019.453.252.304.3.826.144 1.596-.217 1.073-.287 2.416-.135 2.586.189.212.157 2.66-.034 2.66-.364 0-.115.94.32 1.209.23.142.331.523.235.887-.092.352-.043.716.109.809.406.251.335 1.35-.087 1.35-.199 0-.11.185.198.41.353.258.47.557.316.807-.163.262-.127.324.105.18.193-.119.351-.072.351.105s-.171.326-.38.332c-.221.005-.143.189.186.438.479.362.644.931.783 2.686.01.135.156.161.323.058.167-.104.304.082.304.412 0 .331.102.646.228.702.459.204 1.32 2.089 1.11 2.429-.14.227-.082.267.167.113.279-.172.331-.07.19.373-.129.408-.033.671.291.796.266.102.399.323.295.492-.104.168.024.306.284.306.261 0 .446.102.411.228-.034.125.373.683.904 1.239.532.556.955 1.104.939 1.216-.091.664.108.98.569.901.289-.049.529.048.534.215.021.757 1.44 2.488 2.491 3.04.637.334 1.516.968 1.952 1.409.436.441 1.074.891 1.418 1 .343.109.842.53 1.108.936.295.45.662.67.939.564.28-.108.456.001.456.281 0 .251.205.535.455.631.251.096.456.039.456-.126s.548-.021 1.216.32c.669.341 1.216.741 1.216.889 0 .148.253.203.563.123.309-.081.754.034.987.256.234.222.562.411.73.419.973.051 2.555.545 2.424.757-.085.137-.016.335.154.44.17.105.309.046.309-.131s.137-.322.304-.322c.167 0 .304.206.304.456 0 .486 1.096.644 1.267.183.059-.162.783-.16 1.773.004 2.086.348 10.908.267 11.136-.102.092-.15.582-.181 1.089-.07.579.127.852.091.734-.099-.102-.166.149-.366.559-.445.411-.078.793-.001.851.172.058.173.345.223.638.11.293-.112.448-.34.346-.507-.108-.175.012-.226.284-.122.26.1.472.034.472-.145 0-.18.191-.254.425-.164.234.09.517.015.629-.166.301-.487 2.303-1.259 2.673-1.031.175.108.23.053.121-.122-.214-.346.611-.785 1.011-.538.134.083.328-.067.431-.334.104-.271.382-.411.628-.316.255.097.692-.147 1.029-.577.36-.457.9-.746 1.393-.746.538 0 .776-.144.716-.436-.049-.24.047-.47.215-.511.167-.042.554-.394.86-.783.306-.389.672-.636.814-.548.141.088.347-.124.457-.47.11-.347.56-.767 1-.934.639-.243.71-.359.355-.579-.374-.231-.349-.346.162-.732.334-.252.463-.463.288-.468-.365-.011-.209-2.11.194-2.614.152-.19.066-.601-.205-.989-.256-.365-.381-.8-.278-.967.103-.167.035-.303-.152-.303s-.264-.123-.172-.272c.093-.15-.036-.351-.286-.447-.249-.096-.454-.375-.454-.62 0-.248-.883-.881-1.977-1.42-2.796-1.377-5.725-1.016-7.854.967-.34.317-.719.576-.843.576-.123 0-.41.171-.636.38-3.547 3.28-11.679 4.599-17.56 2.849-1.419-.423-2.627-.911-2.685-1.087-.059-.175-.334-.323-.613-.328-.682-.013-2.837-1.358-2.583-1.612.111-.111-.002-.202-.252-.202-.603 0-3.948-3.024-3.732-3.374.093-.15-.067-.273-.355-.273-.289 0-.444-.081-.346-.18.099-.098-.22-.597-.709-1.109-.489-.511-.888-1.114-.888-1.34 0-.226-.134-.411-.298-.411-.164 0-.391-.376-.504-.836-.114-.46-.384-1.111-.602-1.448-.52-.805-1.416-4.325-1.193-4.686.096-.156.036-.369-.134-.474-.424-.262-.389-1.473.056-1.918.201-.2.23-.364.065-.364s-.331-.753-.369-1.672c-.039-.92.056-1.672.21-1.672s.207-.28.118-.622c-.104-.396.044-.779.408-1.054.36-.273.424-.436.173-.442-.219-.005-.312-.149-.207-.319.105-.169.257-.673.338-1.118.081-.445.238-.956.35-1.135.112-.179.234-.524.271-.768.122-.811.807-1.837 1.227-1.837.454 0 .999-1.167.795-1.704-.142-.373 3.227-4.071 3.709-4.071.167 0 .478-.279.691-.619.213-.341.519-.539.68-.439.31.192 1.662-.621 1.662-.999 0-.122.162-.224.359-.226.197-.002.459-.105.583-.228.123-.124.418-.224.656-.224.238 0 .691-.308 1.007-.684.462-.55.629-.602.849-.268.223.338.335.31.591-.149.239-.427.702-.575 1.895-.608.869-.024 1.666-.17 1.771-.325.229-.334 5.511-.469 5.511-.14 0 .125.498.17 1.106.099.655-.077 1.032-.011.926.161-.099.16.122.264.49.232.368-.031.925.209 1.238.534.316.329.813.528 1.12.447.304-.079.624.044.712.273.088.23.371.337.628.238.306-.117.467-.003.467.33 0 .367.166.456.597.319.395-.125.776.021 1.131.436.294.343.733.624.974.624.242 0 .354.085.251.189-.28.279.586 1.041 1.351 1.189.367.07.745.249.841.398.096.149.482.366.858.484.376.117.685.306.686.42.001.292 3.155.32 3.347.03.141-.212 1.305-.488 2.35-.557.209-.014.346-.185.304-.38-.042-.195.231-.515.606-.711.376-.196.596-.443.49-.548-.106-.106.152-.323.572-.483.61-.232.734-.448.615-1.068-.081-.428.085-1.361.37-2.074.559-1.396.559-1.395-.063-2.017-.229-.229-.373-.639-.321-.912.053-.272-.487-1.11-1.199-1.862-.712-.753-1.295-1.471-1.296-1.596-.001-.125-.195-.228-.432-.228s-.476-.103-.532-.228c-.373-.839-6.867-4.363-10.132-5.499-3.311-1.151-10.954-1.788-15.197-1.267m126.899.039c-4.178.283-9.382 1.638-11.686 3.044-.51.311-1.167.566-1.46.566-.292.001-.532.138-.532.305 0 .168-.193.304-.43.304s-.476.103-.532.228c-.142.319-3.517 2.811-3.812 2.815-.132.001-.564.412-.959.912s-.916.909-1.158.909c-.241 0-.355.136-.251.304.103.167-.049.304-.337.304-.289 0-.443.082-.342.182.1.1-.253.637-.785 1.193-.533.555-1.447 1.67-2.032 2.477-1.015 1.399-1.197 1.636-2.033 2.64-.199.238-.279.517-.178.618.102.101.025.184-.17.184s-.338.103-.318.228c.097.617-.077.988-.464.988-.278 0-.372.213-.268.608.109.419.009.608-.323.608-.29 0-.417.171-.318.428.091.236-.032.817-.273 1.292-.24.475-.53 1.376-.643 2.003-.114.627-.324 1.14-.468 1.14-.144 0-.191.274-.103.608.114.436.009.608-.37.608-.457 0-.472.068-.111.505.327.396.334.534.035.634-.21.071-.304.254-.21.407.095.153.01.278-.187.278-.27 0-.273.103-.013.417.389.468.145 1.406-.365 1.406-.222 0-.212.121.032.365.401.401.5 1.459.137 1.459-.192 0-.26 4.406-.075 4.863.033.084.091.699.128 1.368.036.669.174 1.541.305 1.938.154.464.111.801-.12.943-.262.163-.224.357.141.722.311.311.363.5.138.5-.265 0-.253.133.041.487.495.598.629 1.337.241 1.337-.157 0 .062.625.489 1.388.426.764.683 1.537.57 1.719-.128.208-.061.242.179.094.283-.175.33-.067.179.409-.12.376-.073.645.112.645.174 0 .528.411.788.912.259.502.391.912.293.912-.099 0 .246.593.767 1.317.52.725.967 1.605.994 1.956.026.351.357.78.736.952.379.173.784.693.9 1.157.233.93.791 1.609 1.321 1.609.189 0 .259.137.156.304-.103.167.033.304.304.304.27 0 .407.137.304.304-.104.167-.035.304.152.304s.249.146.139.324c-.12.195.025.286.362.228.394-.067.536.064.473.436-.049.292.054.549.228.57.175.021.488.061.697.089a.35.35 0 0 1 .304.418c-.041.202.095.332.304.291.209-.042.351.078.316.268-.035.189.17.326.456.304.286-.022.486.13.444.339-.042.209.027.359.152.332.449-.095 1.285.421 1.119.69-.093.151.078.354.382.452 1.128.363 1.893.829 1.748 1.065-.198.32.824.837 1.31.662.209-.074.463.081.565.346.101.264.375.481.608.481.233 0 .423.151.423.337 0 .202.287.265.718.156.499-.125.97.036 1.543.529.542.466 1.077.66 1.562.567.405-.077.736-.017.736.134 0 .151.424.307.941.347.517.039 1.131.262 1.364.495.524.524 15.427.393 16.844-.148a.911.911 0 0 1 .38-.022c.126.02.228-.115.228-.3s.201-.26.446-.165c.246.094.527.04.626-.12.099-.16.59-.291 1.092-.291.53 0 .833-.127.724-.303-.172-.278.31-.422 1.288-.387.207.008.302-.107.21-.256-.091-.148.036-.269.283-.269.521 0 2.426-.956 2.575-1.292.056-.125.357-.228.669-.228.312 0 .694-.226.849-.503.168-.3.479-.427.77-.315.32.122.61-.045.837-.485.475-.918 1.822-2.016 2.491-2.03.303-.006.465-.147.362-.314-.103-.168.094-.304.438-.304s.61-.103.59-.228c-.116-.737.095-1.292.492-1.292.251 0 .456-.259.456-.576 0-.316.235-.665.523-.776.412-.158.437-.254.121-.45-.333-.205-.334-.375-.006-.971.511-.931.599-1.483.236-1.483-.168 0-.153-.251.038-.607.228-.427.229-.608.003-.608-.177 0-.459-.36-.626-.8-.168-.44-.584-1.192-.925-1.672-.342-.479-.521-.872-.397-.872.123 0-.449-.341-1.271-.758-2.916-1.48-6.303-.881-8.856 1.565-.764.732-1.711 1.412-2.105 1.511-.395.099-.717.272-.717.385 0 2.136-11.498 3.745-16.109 2.255-2.792-.903-5.472-2.132-5.472-2.509 0-.177-.205-.321-.455-.321-.251 0-.456-.137-.456-.304a.312.312 0 0 0-.317-.304c-.174 0-.482-.133-.684-.295-1.382-1.112-2.002-1.768-1.831-1.939.108-.109-.008-.198-.258-.198-.512 0-2.541-2.373-2.266-2.649.098-.097-.115-.43-.471-.739-.357-.31-.534-.563-.393-.563.141 0 .031-.171-.244-.38-.276-.209-.569-.77-.652-1.247-.083-.477-.366-1.197-.63-1.599l-.48-.733 24.326.08c13.379.044 24.362-.032 24.408-.167.045-.136.434-.113.864.05.646.246.931.17 1.637-.437.47-.404.743-.734.608-.734-.136 0-.002-.271.297-.601.299-.33.639-.542.756-.47.116.072.395-.335.619-.906.224-.571.582-1.105.796-1.187.24-.092.321-.419.212-.848-.098-.385-.218-1.825-.268-3.201-.049-1.375-.163-2.621-.254-2.769-.092-.147-.075-.359.037-.471.34-.34.355-1.097.022-1.097-.172 0-.241-.274-.154-.608.088-.335.043-.608-.099-.608-.142 0-.205-.274-.141-.608.065-.334-.004-.608-.152-.608s-.218-.263-.156-.584c.063-.327-.093-.663-.356-.763-.359-.138-.387-.277-.122-.597.267-.321.232-.46-.152-.608-.34-.13-.453-.432-.354-.947.079-.416.018-.756-.136-.756-.153 0-.195-.137-.091-.304.103-.167.039-.304-.142-.304s-.457-.335-.613-.745c-.155-.41-.654-1.333-1.107-2.05-.453-.718-.823-1.471-.823-1.674 0-.202-.183-.438-.406-.524-.222-.085-.405-.365-.405-.621s-.159-.465-.354-.465c-.195 0-.274-.081-.174-.181.099-.099-.289-.592-.862-1.095s-1.041-1.037-1.041-1.186c0-.318-2.878-3.167-3.873-3.834-.375-.252-.615-.565-.534-.696.081-.131-.16-.317-.535-.413-.375-.096-1.052-.521-1.504-.944-.453-.424-.883-.77-.957-.77-.074 0-1.035-.547-2.135-1.216-1.101-.668-2.096-1.215-2.211-1.215-.116 0-1.073-.346-2.128-.768-3.976-1.59-9.693-2.312-15.303-1.932m48.632-.142c-1.321.529-3.455 1.62-3.191 1.632.167.008.002.266-.367.574-.369.308-.586.646-.481.75.104.104.022.19-.183.19s-.288.136-.185.304c.103.167.072.304-.069.304-.141 0-.274.239-.296.531-.099 1.355-.242 1.9-.497 1.9-.152 0-.088.228.141.505.336.407.34.532.025.638-.321.108-.321.219 0 .608.32.389.32.5 0 .608-.321.108-.321.219 0 .608.32.388.32.5 0 .608-.321.108-.321.219 0 .607.32.389.32.5 0 .608-.321.108-.321.219 0 .608.32.389.32.5 0 .608-.321.108-.321.219 0 .608.32.389.32.5 0 .608-.321.108-.321.219 0 .608.32.389.32.5 0 .608-.321.108-.321.219 0 .608.32.389.32.5 0 .608-.321.108-.321.219 0 .607.32.389.32.5 0 .608-.321.108-.321.219 0 .608.32.389.32.5 0 .608-.321.108-.321.219 0 .608.32.389.32.5 0 .608-.321.108-.321.219 0 .608.32.389.32.5 0 .608-.321.108-.321.219 0 .608.32.389.32.5 0 .608-.321.108-.321.219 0 .607.32.389.32.5 0 .608-.321.108-.321.219 0 .608.32.389.32.5 0 .608-.321.108-.321.219 0 .608.32.389.32.5 0 .608-.321.108-.321.219 0 .608.32.389.32.5 0 .608-.321.108-.321.219 0 .608.32.389.32.5 0 .608-.321.108-.321.219 0 .608.32.388.32.499 0 .607-.321.108-.321.219 0 .608.32.389.32.5 0 .608-.321.108-.321.219 0 .608.32.389.32.5 0 .608-.321.108-.321.219 0 .608.32.389.32.5 0 .608-.321.108-.321.219 0 .608.32.389.32.5 0 .608-.321.108-.321.219 0 .608.32.388.32.499 0 .607-.321.108-.321.22 0 .608.32.389.32.5 0 .608-.321.108-.321.219 0 .608.32.389.32.5 0 .608-.321.108-.321.219 0 .608.32.389.32.5 0 .608-.321.108-.321.219 0 .608.32.389.32.5 0 .608-.321.108-.321.219 0 .608.32.388.32.5 0 .607-.321.108-.321.22 0 .608.32.389.32.5 0 .608-.321.108-.321.219 0 .608.32.389.32.5 0 .608-.321.108-.321.219 0 .608.32.389.32.5 0 .608-.321.108-.321.219 0 .608.32.389.32.5 0 .608-.321.108-.321.219 0 .608.32.388.32.5 0 .608-.321.107-.321.219 0 .607.32.389.32.5 0 .608-.321.108-.321.219 0 .608.32.389.32.5 0 .608-.321.108-.321.219 0 .608.32.389.32.5 0 .608-.321.108-.321.219 0 .608.32.389.32.5 0 .608-.321.108-.321.219 0 .608.32.388.32.5 0 .608-.321.107-.321.219 0 .607.32.389.32.5 0 .608-.321.108-.321.219 0 .608.32.389.32.5 0 .608-.321.108-.321.219 0 .608.32.389.32.5 0 .608-.321.108-.321.219 0 .608.32.389.32.5 0 .608-.321.108-.321.219 0 .608.32.388.32.5 0 .608-.321.108-.321.219 0 .607.309.375.312.503.015.603-.276.093-.293.285-.064.714.173.323.28.756.238.964-.042.207.095.687.305 1.066.21.38.299.824.198.988-.101.164-.031.298.156.298s.253.14.147.311c-.105.172-.011.274.21.228.222-.046.369.088.327.297-.042.209.095.345.304.304.209-.042.342.105.296.326-.046.221.04.327.19.234s.603.136 1.006.509c.865.801 6.649 1.28 6.173.511-.156-.253-.113-.307.128-.157.426.263 1.952-.645 1.719-1.022-.087-.141.114-.328.447-.415.403-.105.544-.32.42-.642-.116-.302-.024-.484.242-.484.282 0 .439-.367.459-1.073.017-.59.178-1.25.358-1.467.439-.53.624-27.246.188-27.252-.167-.003-.099-.137.152-.299.251-.163.308-.297.127-.3-.415-.006-.446-.944-.048-1.448.203-.258.186-.38-.053-.38-.495 0-.154-2.562.468-3.51.3-.459.358-.745.149-.745a.332.332 0 0 1-.339-.322c0-.177.135-.239.301-.137.172.107.222-.016.117-.289-.1-.262.002-.698.227-.969.225-.272.425-.646.444-.832.019-.187.055-.518.081-.737.025-.219.204-.3.397-.181.207.128.269.084.151-.106-.264-.428.093-1.334.442-1.119.149.092.272-.113.272-.456 0-.344.684-1.323 1.519-2.177.836-.853 1.52-1.678 1.52-1.832 0-.155.35-.414.778-.577.428-.163.698-.425.6-.584-.194-.315 1.871-1.84 2.492-1.84.212 0 .385-.152.385-.337 0-.185.207-.257.46-.16.607.233 1.972-.404 1.972-.92 0-.389.133-.46.988-.529.209-.016.47-.154.579-.306.11-.152.657-.302 1.216-.334.559-.032 1.26-.164 1.558-.292.297-.129.938-.155 1.422-.058.552.11.937.039 1.031-.192.11-.268.245-.245.501.088.196.255.407.322.479.152.071-.167.847-.274 1.725-.237 3.368.142 4.539.35 4.923.874.235.322.582.449.896.329.281-.108.746-.07 1.031.084 1.258.679 3.07.873 4.472.478.501-.141 1.134-.229 1.405-.196.272.034.565-.215.654-.556.089-.339.536-.759.993-.933.457-.174.746-.402.641-.506-.104-.105.097-.654.447-1.22.555-.898.613-1.329.452-3.373-.256-3.26-.281-3.407-.584-3.407-.148 0-.633-.376-1.079-.836-4.678-4.827-21.264-5.282-29.981-.822-2.604 1.333-4.846 2.66-4.964 2.939-.056.131-.246.239-.423.239-.176 0-.496.239-.709.531-.342.468-.381.413-.32-.456.037-.543-.051-.987-.196-.987-.145 0-.199-.41-.12-.912.09-.57.012-.915-.209-.92-.195-.004-.668-.518-1.052-1.142-1.03-1.672-4.966-3.013-6.749-2.299M37.01 287.421c.88.089 1.536.265 1.458.391-.078.127.159.201.528.166.368-.036 1.122.192 1.675.507.553.315 1.199.573 1.436.573.571 0 2.318 1.072 2.296 1.408-.01.145.219.271.51.281.787.025 1.9.71 1.816 1.118-.04.196.099.38.307.408.209.029.525.069.702.09.177.021.238.175.134.343-.104.167.162.437.59.6.699.266.921.62.814 1.299-.02.125.067.194.192.152a.25.25 0 0 1 .311.145c.046.121.422.56.836.974.414.414.753.95.753 1.19 0 .241.214.519.475.62.261.1.395.311.298.469-.098.159.03.404.284.547.63.352 1.73 3.51 1.314 3.767-.191.118-.097.318.236.505.389.217.557.678.568 1.554.009.685.119 1.246.244 1.246.126.001.228.343.228.761s-.145.76-.322.76c-.177 0-.237.136-.134.303.358.58.419 1.521.098 1.521-.212 0-.198.151.038.436.271.326.276.597.023 1.07-.186.349-.255.77-.152.935.23.374-.651 3.483-1.244 4.388-.24.366-.345.758-.233.87.112.112.036.203-.169.203-.205 0-.295.126-.2.28.095.153-.043.495-.307.76-.265.264-.401.48-.304.48.097 0-.323.752-.933 1.672-.611.919-1.296 1.671-1.523 1.671-.227 0-.379.112-.337.247.099.321-1.653 2.185-2.053 2.185-.17 0-.479.274-.688.608-.209.334-.572.608-.808.608-.235 0-.473.108-.529.241-1.286 3.059-13.47 4.52-18.642 2.235-2.165-.956-4.275-2.118-4.912-2.704-.408-.376-.852-.684-.987-.684-.482 0-3.995-4.08-3.847-4.467.084-.218-.019-.396-.229-.396-.487 0-1.519-1.728-1.271-2.128.103-.167.047-.304-.124-.304-.348 0-.881-.879-1.045-1.725a6.289 6.289 0 0 0-.334-1.076c-.125-.287-.168-.696-.097-.909.071-.213-.053-.57-.276-.792-.477-.477-.533-1.461-.098-1.73.193-.119.151-.345-.112-.608-.617-.617-.642-4.219-.034-4.826.569-.569.606-.814.164-1.088-.407-.251.464-3.322 1.088-3.841.221-.184.321-.415.222-.515-.176-.175.972-2.015 1.477-2.367.139-.097.172-.387.074-.644-.12-.31.041-.525.476-.639.36-.094.569-.311.464-.481-.105-.17.09-.459.434-.643s.545-.465.447-.623c-.098-.159-.026-.289.161-.289s.262-.125.168-.279c-.205-.331 2.196-2.457 2.774-2.457.221 0 .402-.136.402-.304 0-.167.162-.304.36-.304.198 0 .681-.301 1.073-.669.393-.369 1.085-.677 1.54-.684.519-.009.831-.184.84-.47.007-.251.2-.415.428-.364.228.05.509-.062.625-.25.22-.355 1.946-.884 3.438-1.055.472-.053.91-.15.974-.213.191-.192 4.437-.232 6.151-.059m72.64.245c.377.077.684.012.684-.145 0-.158.206-.287.456-.287.251 0 .456.105.456.233s.563.248 1.251.266c.687.018 1.349.193 1.47.389s.619.403 1.105.46c.487.056.996.118 1.131.137.136.019.171.157.078.307-.092.15.027.347.266.439.239.091.486.015.548-.171.063-.19.412-.016.798.397.377.404.848.741 1.047.749.649.025 1.75.769 1.569 1.061-.099.161.051.198.346.085.354-.136.451-.086.302.156-.132.213-.031.355.254.355.26 0 .473.14.473.311 0 .17.336.463.746.65s.962.797 1.228 1.357c.265.56.74 1.155 1.054 1.323.314.168.729.785.922 1.37.193.585.567 1.184.829 1.331.263.147.496.594.517.993.021.399.264 1.047.539 1.44.276.393.45.98.387 1.304-.063.326.088.667.337.763.28.107.382.388.269.744-.109.343-.036.572.183.572.25 0 .313.383.201 1.216-.089.669-.057 1.216.073 1.216.411 0 .179 3.355-.251 3.621-.458.283-.442.607.059 1.216.272.329.265.459-.028.557-.21.071-.308.247-.219.391.266.431-.515 3.069-.959 3.239-.227.087-.336.281-.244.43.093.15.031.272-.136.272s-.252.272-.188.605c.064.332-.063.783-.281 1.002-.219.218-.488.679-.597 1.024-.109.344-.753 1.227-1.431 1.961-.678.735-1.203 1.404-1.167 1.487.036.084-.227.301-.583.483-.356.183-.574.406-.484.496.49.49-6.168 4.425-8.59 5.077-4.04 1.087-9.725.898-12.725-.423-2.653-1.169-4.398-2.076-5.057-2.63-3.582-3.006-5.885-5.514-5.555-6.048.08-.129-.074-.318-.341-.421-.277-.106-.411-.381-.311-.64.095-.249.018-.453-.172-.453-.189 0-.265-.08-.167-.177.097-.098-.094-.448-.425-.779-.33-.331-.547-.763-.482-.96.066-.197-.073-.551-.308-.786-.236-.235-.362-.681-.281-.991.081-.309 0-.562-.179-.562-.18 0-.236-.09-.126-.2.11-.11.055-.375-.123-.589-.226-.272-.227-.567-.003-.985.246-.46.216-.637-.131-.77-.49-.188-.678-3.839-.197-3.839.14 0 .254-.205.254-.456s-.136-.456-.301-.456c-.165 0-.053-.274.25-.608.312-.345.398-.608.199-.608-.708 0 .143-3.436.996-4.023.179-.122.205-.225.06-.227-.146-.003-.113-.189.073-.413.186-.224.248-.498.138-.608-.11-.11-.033-.2.171-.2.391 0 1.405-2.041 1.302-2.622-.034-.189.333-.765.816-1.281.482-.517.803-1.012.714-1.101-.09-.09.073-.163.361-.163.289 0 .452-.118.364-.261-.205-.332 1.388-1.768 2.142-1.932.311-.067.531-.29.488-.493-.043-.204.162-.462.456-.573.294-.111.723-.389.954-.617.23-.228.606-.342.836-.254.24.092.416-.036.416-.305 0-.255.137-.38.304-.276.167.103.304.043.304-.134s.342-.322.76-.322 1.023-.263 1.344-.585c.407-.406.919-.558 1.68-.497.755.059 1.186-.066 1.386-.404.238-.402.339-.416.562-.078.318.484 1.68.175 1.379-.313-.183-.295 1.949-.193 3.755.181m199.155-.007c.58.086 1.127.046 1.216-.088.089-.134.982-.059 1.985.165 2.535.568 2.541.57 2.778.806.116.117.462.212.768.212.307 0 .523.171.481.38-.041.209.202.385.541.391.932.016 2.509.747 2.703 1.252.094.246.295.37.447.277.151-.094.697.224 1.213.706.516.482 1.154.959 1.418 1.061.264.101.393.325.286.497-.107.173-.024.276.184.231.208-.046.55.247.76.651.21.405.601.858.867 1.007.267.149.405.399.308.556-.096.157-.008.286.197.286.205 0 .282.09.172.2-.111.111.085.402.436.647.464.325.535.509.262.678-.262.162-.178.295.281.44.361.115.636.369.612.565-.092.74.037 1.147.31.979.276-.171.534.371.777 1.634l.122.632H308.18c-21.226 0-20.971.019-19.614-1.48.271-.3.402-.637.29-.749-.112-.111-.036-.203.169-.203.205 0 .275-.157.156-.35-.119-.192.036-.534.344-.76.309-.225.459-.41.334-.41-.497 0 .83-1.725 1.733-2.254.586-.343.808-.618.569-.704-.521-.186.116-.993.784-.993.258 0 .378-.092.266-.203-.311-.311.731-1.317 1.365-1.317.308 0 .561-.205.561-.456 0-.25.192-.456.427-.456s1.005-.482 1.71-1.072c.864-.721 1.47-1.013 1.853-.891.325.103.569.035.569-.159 0-.463 2.085-1.303 2.782-1.121.309.081.562.021.562-.132 0-.155.537-.193 1.21-.086.915.147 1.253.085 1.382-.252.171-.446.789-.469 3.173-.117m66.002 45.502c-1.126.342-1.634.751-1.942 1.565-.111.293-.338.532-.505.532-.168 0-.226.204-.13.454.099.26-.037.534-.322.643-.382.147-.416.285-.147.609.191.23.276.693.188 1.028-.088.335-.026.692.137.792.163.101.227.364.142.584-.201.523.799 1.665 1.458 1.665.283 0 .441.119.351.264-.176.285 1.943.648 3.782.648.883 0 1.252-.173 1.643-.769.277-.424.612-.703.744-.622.132.082.241-.016.243-.218.002-.201.282-.941.624-1.644s.506-1.319.365-1.368c-.141-.05-.29-.603-.332-1.23-.041-.627-.192-1.14-.335-1.14-.143 0-.175-.136-.072-.304.103-.167.018-.303-.19-.303s-.674-.278-1.035-.617c-.783-.736-3.164-1.026-4.667-.569m3.392 1.436c.464.192.919.59 1.01.885.092.295.281.754.421 1.019.139.266.146.657.015.87-.132.212-.171.647-.088.965.201.768-.716.445-1.176-.415-.236-.439-.233-.551.008-.402.209.129.334-.076.334-.546 0-.414.086-.975.19-1.246.104-.272.07-.468-.076-.436-.693.149-2.83-.457-2.979-.845-.194-.504.929-.432 2.341.151m-3.525 1.423c.03.584-.077 1.062-.238 1.062-.181 0-.173.226.021.588.426.796.397 1.316-.065 1.147-.209-.076-.346-.293-.304-.481.042-.188-.061-.342-.228-.342-.385 0-.381-.468.016-1.9.397-1.428.728-1.459.798-.074m2.551 2.936c.23.556.586.866 1.003.874.579.011.558.061-.194.468-.931.505-2.715.33-3.254-.319-.244-.294-.142-.349.445-.236.675.129.763.042.763-.751 0-1.168.759-1.19 1.237-.036"/></svg>