<svg width="250" height="250" viewBox="0 0 250 250" fill="none" xmlns="http://www.w3.org/2000/svg">
<path d="M128.161 87.2235H140.924C141.529 87.2235 142.066 86.7469 142.066 86.066V74.491C142.066 73.8782 141.529 73.3334 140.924 73.3334H128.161C127.557 73.3334 127.02 73.81 127.02 74.491V86.066C127.02 86.6788 127.557 87.2235 128.161 87.2235Z" fill="#0091E2"/>
<path d="M105.323 103.837H92.5599C91.9553 103.837 91.4851 103.292 91.418 102.68V91.1045C91.418 90.4237 91.9553 89.947 92.5599 89.947H105.323C105.994 89.947 106.465 90.4917 106.465 91.1045V102.68C106.465 103.292 105.927 103.837 105.323 103.837Z" fill="#0091E2"/>
<path d="M193.184 110.033C200.976 110.033 204.604 112.825 205.007 113.165L206.417 114.187L205.813 115.957C204.805 118.408 203.395 120.587 201.514 122.357C198.692 125.217 193.587 128.553 185.325 128.553H183.982C180.69 137.133 176.189 146.801 168.599 155.448C164.099 160.623 158.792 165.049 152.881 168.522C145.693 172.675 137.901 175.535 129.773 177.033C123.929 178.122 118.018 178.667 112.107 178.667C99.008 178.667 87.3871 176.147 80.2668 171.722C73.9525 167.772 69.0489 161.304 65.7575 152.589C62.869 144.622 61.4584 136.179 61.5928 127.736C61.5928 125.217 63.6079 123.174 66.0933 123.174H161.479C162.688 123.106 168.465 122.63 172.025 120.587C169.069 115.821 168.196 110.237 169.607 104.314C170.346 101.25 171.622 98.2538 173.301 95.5984L174.645 93.6239L176.727 94.8494C176.749 94.8675 176.808 94.9066 176.898 94.9667C178.164 95.8141 185.692 100.852 187.072 110.578C189.087 110.237 191.169 110.033 193.184 110.033Z" fill="#0091E2"/>
<path d="M87.723 120.383H74.9603C74.3557 120.383 73.8855 119.906 73.8184 119.225V107.65C73.8184 106.969 74.3557 106.493 74.9603 106.493H87.723C88.3949 106.493 88.8651 107.037 88.8651 107.65V119.225C88.8651 119.906 88.3277 120.383 87.723 120.383Z" fill="#0091E2"/>
<path d="M92.5599 120.383H105.323C105.927 120.383 106.465 119.906 106.465 119.225V107.65C106.465 107.037 105.994 106.493 105.323 106.493H92.5599C91.9553 106.493 91.418 106.969 91.418 107.65V119.225C91.4851 119.906 91.9553 120.383 92.5599 120.383Z" fill="#0091E2"/>
<path d="M123.258 120.383H110.495C109.824 120.383 109.354 119.906 109.354 119.225V107.65C109.354 106.969 109.891 106.493 110.495 106.493H123.258C123.93 106.493 124.4 107.037 124.4 107.65V119.225C124.4 119.906 123.863 120.383 123.258 120.383Z" fill="#0091E2"/>
<path d="M128.161 120.383H140.924C141.529 120.383 142.066 119.906 142.066 119.225V107.65C142.066 107.037 141.596 106.493 140.924 106.493H128.161C127.557 106.493 127.02 106.969 127.02 107.65V119.225C127.02 119.906 127.557 120.383 128.161 120.383Z" fill="#0091E2"/>
<path d="M110.495 103.837H123.258C123.863 103.837 124.4 103.292 124.4 102.68V91.1045C124.4 90.4917 123.93 89.947 123.258 89.947H110.495C109.891 89.947 109.354 90.4237 109.354 91.1045V102.68C109.354 103.292 109.824 103.837 110.495 103.837Z" fill="#0091E2"/>
<path d="M140.924 103.837H128.161C127.557 103.837 127.02 103.292 127.02 102.68V91.1045C127.02 90.4237 127.557 89.947 128.161 89.947H140.924C141.529 89.947 142.066 90.4917 142.066 91.1045V102.68C142.066 103.292 141.529 103.837 140.924 103.837Z" fill="#0091E2"/>
<path d="M158.725 120.383H145.962C145.358 120.383 144.887 119.906 144.82 119.225V107.65C144.82 106.969 145.358 106.493 145.962 106.493H158.725C159.397 106.493 159.867 107.037 159.867 107.65V119.225C159.867 119.906 159.33 120.383 158.725 120.383Z" fill="#0091E2"/>
</svg>
