<svg xmlns="http://www.w3.org/2000/svg" xml:space="preserve" style="enable-background:new 0 0 720 167.8" viewBox="0 0 720 167.8"><path d="M263.6 166.4 242 115.7h-18.5v50.8h-49.2V0H261c38 0 58.4 26 58.4 57.1 0 28.7-16.3 43.9-29.2 50.4l29.5 58.9h-56.1zm5.9-106.1c0-11.3-7.8-16.4-16.1-16.4h-29.9v33h29.9c8.3 0 16.1-5 16.1-16.6zM447.2 166.4V0h123.7v43.9h-74.3v22.3h72.6v43.9h-72.6v56.3h-49.4zM0 166.4V0h73c51.5 0 89.7 29.9 89.7 83.1 0 53.1-38.2 83.3-89.4 83.3H0zm112.5-83.3c0-22.5-12.7-39.2-39.2-39.2H49.5v78.6H73c24.8 0 39.5-18.4 39.5-39.4zM627.1 166.4V43.9h-43.8V0H720v43.9h-43.5v122.5h-49.4z"/><path d="M436.4.1c.7 0 1.3.1 1.9.2 2.4.6 3.5 2.8 2.3 4.7-.3.4-.6.7-.9 1.1l-41.6 47.3s-.8.8-1.1 1.3c-1.5 2.1 0 4.7 2.9 4.9H417c2.8.3 4.2 2.9 2.8 4.9-.3.5-1.2 1.4-1.2 1.4l-30.7 34.6c-.4.4-.7.8-1.1 1.3-1.3 2.1.2 4.5 3 4.7h11.1c1.5-.1 2.9.7 3.6 2 .6 1.2.2 2.7-.9 3.5-.3.3-.9.7-.9.7l-71 53.5s-.8.8-1.3 1.1c-.7.4-1.6.4-2.3 0-.6-.3-.9-1.1-.7-1.7.2-.5.6-1.3.6-1.3l19.6-40.3.6-1.2c1.3-2.6 0-4.9-2.9-5.2h-14.7c-.6 0-1.1 0-1.7-.1-2.4-.4-3.7-2.4-2.8-4.4.2-.4.7-1.3.7-1.3l24.3-40.7s.3-.5.4-.7c1.3-2.4-.3-4.7-3.3-4.8H332.3c-2.1 0-3.5-1.1-3.8-2.7-.1-.8.1-1.7.6-2.4l7.4-13 24.2-42.8.6-1c1.2-2.2 3.3-3.3 6.2-3.3l68.9-.3z" style="fill:#090909"/></svg>