<svg width="250" height="250" viewBox="0 0 250 250" fill="none" xmlns="http://www.w3.org/2000/svg">
<path d="M126.866 48.652C110.571 48.0539 94.6648 53.708 82.4036 64.4565C70.1423 75.2049 62.4542 90.2344 60.9138 106.467C59.3734 122.699 64.0973 138.907 74.1179 151.77C84.1386 164.633 98.6978 173.178 114.814 175.655C115.047 175.691 115.269 175.781 115.461 175.918C115.654 176.054 115.811 176.235 115.921 176.443C116.031 176.652 116.091 176.884 116.095 177.12C116.099 177.356 116.048 177.59 115.946 177.802L106.441 197.39C106.441 197.39 106.218 197.865 106.03 198.254C105.919 198.525 105.887 198.822 105.939 199.11C105.99 199.399 106.122 199.667 106.32 199.883C106.517 200.099 106.772 200.255 107.055 200.332C107.338 200.409 107.636 200.404 107.916 200.318C127.787 194.171 188.36 162.652 188.36 111.682C188.387 77.8841 160.63 49.8708 126.866 48.652Z" fill="#070707"/>
<path d="M150.004 78.3181C150.283 78.3199 150.562 78.3426 150.838 78.386C151.883 78.6312 152.347 79.5859 151.804 80.3934C151.683 80.5481 151.559 80.7028 151.427 80.8462L133.56 101.151C133.56 101.151 133.228 101.505 133.096 101.694C132.443 102.607 133.096 103.716 134.36 103.784H141.654C142.854 103.909 143.472 105.011 142.839 105.89C142.682 106.095 142.514 106.291 142.337 106.479L129.168 121.323C129.006 121.497 128.854 121.681 128.715 121.874C128.141 122.76 128.805 123.809 130.005 123.877H134.764C135.075 123.858 135.386 123.929 135.658 124.082C135.93 124.234 136.153 124.462 136.299 124.738C136.424 124.994 136.454 125.285 136.385 125.561C136.316 125.837 136.152 126.08 135.922 126.247C135.809 126.356 135.545 126.568 135.545 126.568L105.09 149.532C104.91 149.697 104.721 149.852 104.524 149.996C104.381 150.091 104.213 150.141 104.041 150.141C103.869 150.141 103.701 150.091 103.558 149.996C103.426 149.928 103.324 149.813 103.271 149.674C103.218 149.535 103.218 149.381 103.271 149.242C103.339 149.049 103.532 148.672 103.532 148.672L111.927 131.375L112.173 130.869C112.735 129.737 112.173 128.775 110.92 128.605H104.599C104.361 128.606 104.123 128.593 103.886 128.568C102.852 128.398 102.305 127.53 102.698 126.681C102.788 126.492 103.011 126.126 103.011 126.126L113.429 108.667C113.429 108.667 113.546 108.471 113.603 108.365C114.172 107.335 113.482 106.346 112.169 106.309H105.332C104.449 106.309 103.822 105.841 103.686 105.131C103.649 104.769 103.747 104.406 103.962 104.113L107.131 98.5281L117.538 80.1745L117.795 79.7444C118.327 78.7822 119.225 78.3181 120.436 78.3181H149.993H150.004Z" fill="white"/>
</svg>
