<?xml version="1.0" encoding="utf-8"?>
<!-- Generator: Adobe Illustrator 24.0.1, SVG Export Plug-In . SVG Version: 6.00 Build 0)  -->
<svg version="1.1" id="Layer_1" xmlns="http://www.w3.org/2000/svg" xmlns:xlink="http://www.w3.org/1999/xlink" x="0px" y="0px"
	 viewBox="0 0 720 167.8" style="enable-background:new 0 0 720 167.8;" xml:space="preserve">
<style type="text/css">
	.st0{fill:#090909;}
</style>
<path d="M263.6,166.4L242,115.7h-18.5v50.8h-49.2V0h86.7c38,0,58.4,26,58.4,57.1c0,28.7-16.3,43.9-29.2,50.4l29.5,58.9H263.6z
	 M269.5,60.3c0-11.3-7.8-16.4-16.1-16.4h-29.9v33h29.9C261.7,76.9,269.5,71.9,269.5,60.3z"/>
<path d="M447.2,166.4V0h123.7v43.9h-74.3v22.3h72.6v43.9h-72.6v56.3H447.2z"/>
<path d="M0,166.4V0h73c51.5,0,89.7,29.9,89.7,83.1c0,53.1-38.2,83.3-89.4,83.3H0z M112.5,83.1c0-22.5-12.7-39.2-39.2-39.2H49.5v78.6
	H73C97.8,122.5,112.5,104.1,112.5,83.1z"/>
<path d="M627.1,166.4V43.9h-43.8V0H720v43.9h-43.5v122.5H627.1z"/>
<path class="st0" d="M436.4,0.1c0.7,0,1.3,0.1,1.9,0.2c2.4,0.6,3.5,2.8,2.3,4.7c-0.3,0.4-0.6,0.7-0.9,1.1l-41.6,47.3
	c0,0-0.8,0.8-1.1,1.3c-1.5,2.1,0,4.7,2.9,4.9c0.5,0,1.4,0,1.4,0h14.3c0,0,0.9,0,1.4,0c2.8,0.3,4.2,2.9,2.8,4.9
	c-0.3,0.5-1.2,1.4-1.2,1.4l-30.7,34.6c-0.4,0.4-0.7,0.8-1.1,1.3c-1.3,2.1,0.2,4.5,3,4.7c0.8,0,10.3,0,11.1,0c1.5-0.1,2.9,0.7,3.6,2
	c0.6,1.2,0.2,2.7-0.9,3.5c-0.3,0.3-0.9,0.7-0.9,0.7l-71,53.5c0,0-0.8,0.8-1.3,1.1c-0.7,0.4-1.6,0.4-2.3,0c-0.6-0.3-0.9-1.1-0.7-1.7
	c0.2-0.5,0.6-1.3,0.6-1.3l19.6-40.3l0.6-1.2c1.3-2.6,0-4.9-2.9-5.2c-0.4,0-1.1,0-1.1,0h-13.6c-0.6,0-1.1,0-1.7-0.1
	c-2.4-0.4-3.7-2.4-2.8-4.4c0.2-0.4,0.7-1.3,0.7-1.3l24.3-40.7c0,0,0.3-0.5,0.4-0.7c1.3-2.4-0.3-4.7-3.3-4.8c-1.3,0-3.8,0-3.8,0
	s-6.5,0-10.8,0h-1.3c-2.1,0-3.5-1.1-3.8-2.7c-0.1-0.8,0.1-1.7,0.6-2.4l7.4-13l24.2-42.8l0.6-1c1.2-2.2,3.3-3.3,6.2-3.3L436.4,0.1
	L436.4,0.1z"/>
</svg>
