<svg xmlns="http://www.w3.org/2000/svg" width="250" height="250" fill="none"><g clip-path="url(#a)"><path fill="#070707" d="M127.819 17.916a89.567 89.567 0 0 0-62.385 22.209 89.832 89.832 0 0 0-30.152 59.034 89.881 89.881 0 0 0 18.527 63.661 89.627 89.627 0 0 0 57.1 33.565 2.119 2.119 0 0 1 1.589 3.017l-13.337 27.525s-.312.668-.577 1.214a2.177 2.177 0 0 0 1.439 2.92c.396.108.815.101 1.208-.02 27.88-8.637 112.871-52.928 112.871-124.553.037-47.494-38.908-86.86-86.283-88.572Z"/><path fill="#fff" d="M160.285 59.604c.392.002.783.034 1.17.095 1.466.345 2.118 1.686 1.355 2.821-.169.217-.344.435-.529.636L137.212 91.69s-.466.498-.651.763c-.916 1.283 0 2.842 1.773 2.938h10.234c1.684.175 2.552 1.723 1.663 2.959-.22.287-.455.563-.704.827l-18.478 20.859a8.397 8.397 0 0 0-.635.774c-.805 1.247.127 2.721 1.811 2.816h6.676a2.281 2.281 0 0 1 2.155 1.209 1.707 1.707 0 0 1-.53 2.121c-.159.154-.529.451-.529.451l-42.731 32.27a9.737 9.737 0 0 1-.794.652 1.228 1.228 0 0 1-1.356 0 .851.851 0 0 1-.402-1.06c.095-.271.365-.801.365-.801l11.78-24.306.344-.711c.789-1.59 0-2.942-1.757-3.181h-8.868a9.039 9.039 0 0 1-1.001-.053c-1.45-.239-2.218-1.458-1.668-2.651.127-.265.44-.78.44-.78l14.617-24.534s.165-.276.244-.424c.799-1.448-.169-2.837-2.012-2.89h-9.593c-1.24 0-2.118-.657-2.309-1.654a2.065 2.065 0 0 1 .387-1.432l4.447-7.847 14.602-25.792.36-.604c.747-1.352 2.007-2.004 3.706-2.004h41.487Z"/></g><defs><clipPath id="a"><path fill="#fff" d="M34 17h181v215H34z"/></clipPath></defs></svg>