<svg width="300" height="121" viewBox="0 0 300 121" fill="none" xmlns="http://www.w3.org/2000/svg">
<path d="M38.7919 26.2254C17.6328 26.2254 0 35.2034 0 62.2864C0 83.7417 11.8569 97.2538 39.3382 97.2538C71.6868 97.2538 73.7602 75.9455 73.7602 75.9455H58.0858C58.0858 75.9455 54.7265 87.4182 38.3826 87.4182C25.0717 87.4182 15.4973 78.4262 15.4973 65.8238H75.4003V57.9145C75.4003 45.4462 67.485 26.2244 38.7929 26.2244L38.7919 26.2254ZM38.2455 36.3341C50.917 36.3341 59.5547 44.0963 59.5547 55.7311H15.8456C15.8456 43.3798 27.1191 36.3341 38.2455 36.3341Z" fill="#E53238"/>
<path d="M75.3881 0V83.6528C75.3881 88.401 75.0488 95.0684 75.0488 95.0684H89.9988C89.9988 95.0684 90.5352 90.2802 90.5352 85.9033C90.5352 85.9033 97.9211 97.459 118.004 97.459C139.154 97.459 153.518 82.7762 153.518 61.7402C153.518 42.1701 140.323 26.4306 118.039 26.4306C97.1706 26.4306 90.6863 37.6992 90.6863 37.6992V0H75.3881ZM114.18 36.7775C128.542 36.7775 137.674 47.4367 137.674 61.7402C137.674 77.0774 127.127 87.1121 114.283 87.1121C98.9548 87.1121 90.6863 75.1441 90.6863 61.8763C90.6863 49.514 98.1052 36.7775 114.18 36.7775Z" fill="#0064D2"/>
<path d="M190.672 26.2256C158.839 26.2256 156.797 43.6572 156.797 46.4421H172.642C172.642 46.4421 173.472 36.2653 189.579 36.2653C200.046 36.2653 208.155 41.0565 208.155 50.2666V53.5448H189.579C164.918 53.5448 151.88 60.7596 151.88 75.3994C151.88 89.807 163.926 97.6472 180.206 97.6472C202.392 97.6472 209.538 85.3881 209.538 85.3881C209.538 90.2633 209.915 95.0685 209.915 95.0685H224C224 95.0685 223.454 89.1125 223.454 85.302V52.366C223.454 30.7716 206.035 26.2256 190.672 26.2256ZM208.155 63.3794V67.7503C208.155 73.4511 204.638 87.6236 183.927 87.6236C172.587 87.6236 167.724 81.9648 167.724 75.3994C167.724 63.4564 184.099 63.3794 208.155 63.3794Z" fill="#F5AF02"/>
<path d="M214.922 28.9602H232.747L258.329 80.2114L283.853 28.9602H300L253.509 120.204H236.572L249.987 94.7691L214.922 28.9602Z" fill="#86B817"/>
</svg>
