<?xml version="1.0" encoding="UTF-8" standalone="no"?>
<svg
   enable-background="new 0 0 550 250"
   viewBox="77 83 73.199997 80"
   version="1.1"
   id="svg471"
   sodipodi:docname="elasticsearch.svg"
   width="73.199997"
   height="80"
   inkscape:version="1.2.1 (9c6d41e410, 2022-07-14, custom)"
   xmlns:inkscape="http://www.inkscape.org/namespaces/inkscape"
   xmlns:sodipodi="http://sodipodi.sourceforge.net/DTD/sodipodi-0.dtd"
   xmlns="http://www.w3.org/2000/svg"
   xmlns:svg="http://www.w3.org/2000/svg">
  <defs
     id="defs475" />
  <sodipodi:namedview
     id="namedview473"
     pagecolor="#ffffff"
     bordercolor="#666666"
     borderopacity="1.0"
     inkscape:showpageshadow="2"
     inkscape:pageopacity="0.0"
     inkscape:pagecheckerboard="0"
     inkscape:deskcolor="#d1d1d1"
     showgrid="false"
     inkscape:zoom="3.3097561"
     inkscape:cx="195.33161"
     inkscape:cy="40.486367"
     inkscape:window-width="3840"
     inkscape:window-height="2083"
     inkscape:window-x="0"
     inkscape:window-y="40"
     inkscape:window-maximized="1"
     inkscape:current-layer="svg471" />
  <path
     d="m 132,111 h -20.9 c 0.1,0.5 0.3,1 0.4,1.4 0.7,2.4 1.1,4.9 1.3,7.5 0.1,1 0.1,2.1 0.1,3.1 0,1 0,2.1 -0.1,3.1 -0.2,2.6 -0.6,5.1 -1.3,7.5 -0.1,0.5 -0.3,1 -0.4,1.4 H 132 c 6.6,0 11.9,-5.4 11.9,-12 0,-6.6 -5.3,-12 -11.9,-12 z"
     fill="#00a9e5"
     id="path459" />
  <path
     d="m 112.8,126.1 c 0.1,-1 0.1,-2.1 0.1,-3.1 0,-1 0,-2.1 -0.1,-3.1 -0.2,-2.6 -0.6,-5.1 -1.3,-7.5 -0.1,-0.5 -0.3,-1 -0.4,-1.4 H 78.8 c -1.2,3.8 -1.8,7.8 -1.8,12 0,4.2 0.6,8.2 1.8,12 h 32.3 c 0.1,-0.5 0.3,-1 0.4,-1.4 0.7,-2.4 1.1,-4.9 1.3,-7.5 z"
     fill="#353535"
     id="path461" />
  <path
     d="m 135.6,139 h -26 c -0.8,1.8 -1.7,3.5 -2.7,5.1 -1.5,2.5 -3.3,4.7 -5.3,6.8 -0.7,0.7 -1.4,1.3 -2.1,2 -1.4,1.3 -3,2.4 -4.6,3.5 6.3,4.2 13.9,6.6 22,6.6 13.9,0 26.1,-7.1 33.3,-17.8 -3.7,-3.8 -8.9,-6.2 -14.6,-6.2 z"
     fill="#00bfb3"
     id="path463" />
  <path
     d="m 106.9,144.1 c 1,-1.6 1.9,-3.3 2.7,-5.1 H 80.3 c 3.1,7.1 8.2,13.2 14.7,17.4 1.6,-1.1 3.1,-2.2 4.6,-3.5 0.7,-0.6 1.4,-1.3 2.1,-2 1.9,-2 3.7,-4.3 5.2,-6.8 z"
     fill="#019b8f"
     id="path465" />
  <path
     d="m 101.6,95.1 c -0.7,-0.7 -1.4,-1.3 -2.1,-2 -1.4,-1.3 -3,-2.4 -4.6,-3.5 -6.4,4.2 -11.5,10.3 -14.7,17.4 h 29.3 c -0.8,-1.8 -1.7,-3.5 -2.7,-5.1 -1.4,-2.5 -3.2,-4.8 -5.2,-6.8 z"
     fill="#f9b110"
     id="path467" />
  <path
     d="m 116.9,83 c -8.1,0 -15.7,2.4 -22,6.6 1.6,1.1 3.1,2.2 4.6,3.5 0.7,0.6 1.4,1.3 2.1,2 2,2.1 3.8,4.3 5.3,6.8 1,1.6 1.9,3.3 2.7,5.1 h 26 c 5.7,0 10.9,-2.4 14.6,-6.2 C 143,90.1 130.8,83 116.9,83 Z"
     fill="#fed10a"
     id="path469" />
</svg>
