<svg xmlns="http://www.w3.org/2000/svg" width="250" height="250" fill="none"><path fill="#6A58CF" d="M200.657 156.938c-5.504-2.89-11.559.467-13.972 2.933a13.962 13.962 0 0 1-5.165 3.358 14.189 14.189 0 0 1-6.097.85c-2.075-.17-4.064-.808-5.885-1.828-1.821-1.02-3.344-2.465-4.572-4.166-.297-.424-.551-.85-.805-1.317 18.629-14.111 30.61-36.554 30.568-61.8-.042-42.675-34.844-77.315-77.351-77.017C75.124 18.248 41 52.719 41 95.18c0 27.627 14.48 51.897 36.199 65.541a17.4 17.4 0 0 1-.381 2.04c-.508 2.04-1.482 3.91-2.794 5.525a13.723 13.723 0 0 1-4.87 3.783c-.465.213-.93.425-1.439.596-.042 0-.042 0-.084.042-.17.042-.297.085-.466.128-1.948.552-4.022.722-6.055.424-3.386-.51-12.574-.85-15.03 5.441-2.243 5.781 2.456 10.201 7.325 11.731.89.298 1.778.51 2.71.722a11.62 11.62 0 0 0 2.032.468 33.1 33.1 0 0 0 5.038.383c3.133 0 6.224-.468 9.188-1.361.042 0 .042 0 .084-.042.043 0 .043 0 .085-.042.423-.128.889-.256 1.312-.426 4.065-1.402 7.79-3.612 11.008-6.46a18.594 18.594 0 0 0 1.99-2.083c.466-.51.89-.977 1.355-1.53.212-.255.38-.51.593-.765.042-.043.042-.085.084-.128.974-1.275 1.863-2.593 2.625-3.995 0 0 0-.043.043-.043.296-.552 1.143-.212.931.383-.042.085-.042.127-.085.213a62.087 62.087 0 0 1-8.467 16.916 64.566 64.566 0 0 1-10.373 11.391c-4.192 3.57-5.758 9.606-2.921 14.324 2.836 4.718 8.975 6.248 13.294 2.848 6.181-4.846 11.6-10.584 16.173-17.044a82.192 82.192 0 0 0 11.643-23.972c.211-.766.508-1.828.762-2.933.169-.765 1.313-.638 1.313.127.042.978.042 1.955.042 2.89a62.75 62.75 0 0 1-5.462 24.653 63.223 63.223 0 0 1-8.002 13.176c-3.43 4.293-3.768 10.541-.085 14.621 3.684 4.08 9.992 4.421 13.591.255 5.123-5.951 9.357-12.624 12.617-19.849a81.401 81.401 0 0 0 7.197-32.558v-2.55c0-.595.847-.723 1.016-.17.255.935.509 1.828.678 2.465a62.289 62.289 0 0 1 1.354 19.212 61.053 61.053 0 0 1-3.217 15.089c-1.821 5.185-.085 11.221 4.742 13.813 4.826 2.593 10.881.808 12.871-4.293 2.878-7.31 4.657-15.046 5.334-22.909.593-6.758.296-13.516-.762-20.147-.296-1.955-.72-3.868-1.143-5.781-.127-.467.466-.849.847-.51 1.524 1.318 3.175 2.466 4.911 3.486a32.391 32.391 0 0 0 13.548 4.207 32.953 32.953 0 0 0 14.056-1.954c4.488-1.701 8.553-4.336 11.897-7.779 1.186-1.232 2.286-2.507 3.26-3.91 3.006-4.038 2.075-9.521-2.455-11.901ZM90.705 106.996a9.607 9.607 0 0 1-10.839-8.246c-.72-5.313 2.922-10.158 8.214-10.881a9.608 9.608 0 0 1 10.838 8.246c.72 5.27-2.92 10.158-8.213 10.881Zm68.46-9.563a9.607 9.607 0 0 1-10.838-8.246c-.72-5.27 2.921-10.159 8.214-10.881a9.607 9.607 0 0 1 10.838 8.246c.72 5.313-2.964 10.158-8.214 10.88Z"/></svg>