<svg xmlns="http://www.w3.org/2000/svg" width="250" height="250" fill="none"><g clip-path="url(#a)"><path fill="#202BFF" d="M125 221c53.019 0 96-42.981 96-96 0-53.02-42.981-96-96-96-53.02 0-96 42.98-96 96 0 53.019 42.98 96 96 96Z"/><path fill="#fff" fill-rule="evenodd" d="M144.437 110.258c-.931 0-1.599-.468-2.052-1.24-.653-1.147-.159-2.582.875-3.116l27.684-14.308h-60.228l-35.625 18.417c-1.234.54-2.582.159-3.235-.993-.421-1.147-.077-2.582 1.106-3.116l36.185-18.7c.36-.077.535-.175.946-.175h70.529c.957 0 1.991.695 2.268 1.733.134 1.04-.262 2.12-1.316 2.603l-36.185 18.648c-.16.195-.556.247-.952.247Z" clip-rule="evenodd"/><path fill="#fff" fill-rule="evenodd" d="M89.594 110.258H73.908c-1.188 0-2.129-1.065-2.129-2.299 0-1.307.941-2.34 2.13-2.34h15.685c1.188 0 2.34 1.033 2.34 2.34 0 1.234-1.152 2.299-2.34 2.299Zm72.823-18.666h-35.151c-1.188 0-2.34-1.034-2.34-2.33 0-1.203 1.152-2.232 2.34-2.232h35.151c1.42 0 2.34 1.029 2.34 2.232 0 1.296-.92 2.33-2.34 2.33Zm-17.98 30.5h-18.231c-1.414 0-2.335-1.033-2.335-2.34 0-1.193.921-2.227 2.335-2.227h17.609l35.63-18.416c1.255-.54 2.587-.154 3.235.992.421 1.147.149 2.582-1.106 3.117l-36.185 18.591c-.154.186-.54.283-.952.283Zm-52.503 0H73.908c-1.188 0-2.129-1.033-2.129-2.34 0-1.193.941-2.227 2.13-2.227h18.025c1.188 0 2.34 1.034 2.34 2.227 0 1.307-1.152 2.34-2.34 2.34Zm52.503 11.801c-.931 0-1.6-.278-2.052-1.163-.653-1.033-.16-2.587.874-3.055l36.185-18.653c1.255-.658 2.587-.159 3.235.993.422 1.147.149 2.463-1.106 3.116l-36.185 18.705c-.159.036-.555.057-.951.057Zm-52.503 0H73.908a2.102 2.102 0 0 1-2.129-2.13c0-1.404.941-2.319 2.13-2.319h18.025c1.188 0 2.34.915 2.34 2.319 0 1.209-1.152 2.13-2.34 2.13Z" clip-rule="evenodd"/><path fill="#fff" fill-rule="evenodd" d="M144.005 133.893h-17.799c-1.414 0-2.335-.921-2.335-2.13 0-1.404.921-2.319 2.335-2.319h17.799c1.23 0 2.34.915 2.34 2.319 0 1.209-1.11 2.13-2.34 2.13Zm.432 12.018c-.931 0-1.6-.509-2.052-1.394-.653-1.034-.16-2.355.874-2.998l36.19-18.664c1.26-.57 2.582-.082 3.23 1.034.422 1.07.149 2.5-1.111 3.148l-36.185 18.586c-.154.195-.55.288-.946.288Zm-52.503 0H73.908c-1.188 0-2.129-1.152-2.129-2.34 0-1.301.941-2.34 2.13-2.34h18.025c1.188 0 2.34 1.039 2.34 2.34 0 1.188-1.152 2.34-2.34 2.34Z" clip-rule="evenodd"/><path fill="#fff" fill-rule="evenodd" d="M144.005 145.911h-17.799c-1.414 0-2.335-1.152-2.335-2.34 0-1.301.921-2.34 2.335-2.34h17.799c1.23 0 2.34 1.039 2.34 2.34 0 1.188-1.11 2.34-2.34 2.34Zm.432 11.802c-.931 0-1.6-.509-2.052-1.162-.653-1.265-.16-2.587.874-3.23l36.185-18.591c1.255-.648 2.587-.155 3.235 1.105.422 1.034.149 2.356-1.106 3.004l-36.185 18.586c-.159.196-.555.288-.951.288Zm-52.503 0H73.908c-1.188 0-2.129-.92-2.129-2.34 0-1.193.941-2.34 2.13-2.34h18.025c1.188 0 2.34 1.147 2.34 2.34 0 1.42-1.152 2.34-2.34 2.34Z" clip-rule="evenodd"/><path fill="#fff" fill-rule="evenodd" d="M144.005 157.713h-17.799c-1.414 0-2.335-.92-2.335-2.34 0-1.193.921-2.34 2.335-2.34h17.799c1.23 0 2.34 1.147 2.34 2.34 0 1.42-1.11 2.34-2.34 2.34Z" clip-rule="evenodd"/><path fill="#fff" fill-rule="evenodd" d="M126.206 161.47H91.934c-1.28 0-2.34-.92-2.34-2.34v-51.171c0-1.307 1.06-2.34 2.34-2.34 1.188 0 2.34 1.033 2.34 2.34v48.996h29.597v-48.996c0-1.307.92-2.34 2.335-2.34 1.193 0 2.237 1.033 2.237 2.34v51.171c0 1.42-1.044 2.34-2.237 2.34Z" clip-rule="evenodd"/><path fill="#fff" fill-rule="evenodd" d="M143.683 110.258h-15.459c-1.415 0-2.335-1.065-2.335-2.299 0-1.307.92-2.34 2.335-2.34h15.459c1.414 0 2.34 1.033 2.34 2.34 0 1.234-.926 2.299-2.34 2.299Z" clip-rule="evenodd"/><path fill="#fff" fill-rule="evenodd" d="M143.683 110.258h-15.459c-1.415 0-2.335-1.065-2.335-2.299 0-1.307.92-2.34 2.335-2.34h15.459c1.414 0 2.34 1.033 2.34 2.34 0 1.234-.926 2.299-2.34 2.299Zm-26.019 38.656c-9.309 0-16.715-7.4-16.715-16.709 0-9.19 7.406-16.699 16.715-16.699 1.188 0 2.334 1.049 2.334 2.335 0 1.306-1.146 2.345-2.334 2.345-6.702 0-12.261 5.436-12.261 12.019 0 6.706 5.559 12.153 12.261 12.153 1.188 0 2.334 1.023 2.334 2.216 0 1.42-1.146 2.34-2.334 2.34Z" clip-rule="evenodd"/><path fill="#fff" fill-rule="evenodd" d="M113.561 131.351H99.418c-1.188 0-2.34-1.152-2.34-2.34 0-1.306 1.152-2.34 2.34-2.34h14.143c1.193 0 2.283 1.034 2.283 2.34 0 1.188-1.09 2.34-2.283 2.34Zm0 6.619H99.418c-1.188 0-2.34-1.152-2.34-2.34 0-1.419 1.152-2.34 2.34-2.34h14.143c1.193 0 2.283.921 2.283 2.34 0 1.188-1.09 2.34-2.283 2.34Z" clip-rule="evenodd"/></g><defs><clipPath id="a"><path fill="#fff" d="M29 29h192v192H29z"/></clipPath></defs></svg>