<svg xmlns="http://www.w3.org/2000/svg" width="56" height="56"><g fill="none" fill-rule="evenodd"><circle cx="28" cy="28" r="28" fill="#202BFF"/><g fill="#FFF"><path d="M33.67 23.7c-.272 0-.467-.136-.6-.361a.667.667 0 0 1 .256-.91l8.074-4.172H23.834l-10.39 5.371c-.36.158-.754.047-.944-.29-.123-.334-.023-.752.322-.908l10.554-5.454c.105-.023.156-.051.276-.051h20.571c.28 0 .581.202.662.505.039.303-.077.618-.384.76l-10.554 5.438c-.047.057-.162.072-.278.072"/><path d="M17.673 23.7h-4.575c-.346 0-.62-.31-.62-.67 0-.381.274-.683.62-.683h4.575a.7.7 0 0 1 .683.683c0 .36-.336.67-.683.67M38.914 18.256H28.66a.7.7 0 0 1-.682-.68c0-.35.336-.65.682-.65h10.253c.414 0 .682.3.682.65 0 .378-.268.68-.682.68M33.67 27.152h-5.318c-.413 0-.681-.302-.681-.683 0-.348.268-.65.68-.65h5.137l10.392-5.37c.366-.158.754-.046.943.289.123.334.044.753-.322.909l-10.554 5.422c-.045.054-.158.083-.278.083M18.356 27.152h-5.258c-.346 0-.62-.302-.62-.683 0-.348.274-.65.62-.65h5.258c.346 0 .682.302.682.65a.7.7 0 0 1-.682.683M33.67 30.594c-.272 0-.467-.081-.6-.34-.19-.3-.046-.754.256-.89l10.554-5.44c.366-.193.754-.047.943.289.123.334.044.718-.322.909l-10.554 5.455a1.71 1.71 0 0 1-.278.017M18.356 30.594h-5.258a.613.613 0 0 1-.62-.621c0-.41.274-.677.62-.677h5.258c.346 0 .682.267.682.677 0 .352-.336.62-.682.62"/><path d="M33.543 30.594h-5.191c-.413 0-.681-.269-.681-.621 0-.41.268-.677.68-.677h5.192c.359 0 .683.267.683.677 0 .352-.324.62-.683.62M33.67 34.099c-.272 0-.467-.148-.6-.407-.19-.301-.046-.687.256-.874l10.555-5.444a.721.721 0 0 1 .942.302c.123.312.044.729-.324.918l-10.554 5.421c-.045.057-.16.084-.276.084M18.356 34.099h-5.258c-.346 0-.62-.336-.62-.682 0-.38.274-.683.62-.683h5.258c.346 0 .682.303.682.682 0 .347-.336.683-.682.683"/><path d="M33.543 34.099h-5.191a.677.677 0 0 1-.681-.682c0-.38.268-.683.68-.683h5.192c.359 0 .683.303.683.682 0 .347-.324.683-.683.683M33.67 37.541c-.272 0-.467-.148-.6-.339a.705.705 0 0 1 .256-.942l10.554-5.422c.366-.19.754-.045.943.322a.676.676 0 0 1-.322.876l-10.554 5.421c-.047.057-.162.084-.278.084M18.356 37.541h-5.258c-.346 0-.62-.268-.62-.682 0-.348.274-.683.62-.683h5.258c.346 0 .682.335.682.683a.678.678 0 0 1-.682.682"/><path d="M33.543 37.541h-5.191c-.413 0-.681-.268-.681-.682 0-.348.268-.683.68-.683h5.192c.359 0 .683.335.683.683a.67.67 0 0 1-.683.682"/><path d="M28.352 38.637h-9.996a.662.662 0 0 1-.682-.682V23.03c0-.381.309-.683.682-.683a.7.7 0 0 1 .683.683v14.29h8.632V23.03c0-.381.269-.683.681-.683.348 0 .653.302.653.683v14.925c0 .414-.305.682-.653.682"/><path d="M33.45 23.7h-4.51a.66.66 0 0 1-.68-.67c0-.381.268-.683.68-.683h4.51c.412 0 .682.302.682.683 0 .36-.27.67-.682.67"/><path d="M33.45 23.7h-4.51a.66.66 0 0 1-.68-.67c0-.381.268-.683.68-.683h4.51c.412 0 .682.302.682.683 0 .36-.27.67-.682.67M25.86 34.975a4.845 4.845 0 0 1-4.875-4.873c0-2.681 2.16-4.871 4.875-4.871.347 0 .681.306.681.681a.7.7 0 0 1-.68.684c-1.955 0-3.577 1.585-3.577 3.506 0 1.956 1.622 3.544 3.576 3.544.347 0 .681.299.681.647a.677.677 0 0 1-.68.682"/><path d="M24.664 29.852h-4.125c-.347 0-.683-.336-.683-.682a.7.7 0 0 1 .683-.683h4.125c.348 0 .666.302.666.683 0 .346-.318.682-.666.682M24.664 31.783h-4.125c-.347 0-.683-.336-.683-.683 0-.413.336-.682.683-.682h4.125c.348 0 .666.269.666.683 0 .346-.318.682-.666.682"/></g></g></svg>