<svg width="250" height="250" viewBox="0 0 250 250" fill="none" xmlns="http://www.w3.org/2000/svg">
<path fill-rule="evenodd" clip-rule="evenodd" d="M106.171 187.358V136.994H92.5V115.715H105.761C105.761 113.573 105.768 111.512 105.774 109.495C105.786 105.587 105.798 101.844 105.761 97.9936C105.761 81.2386 118.511 76.3772 129.974 76.3772H149.29H149.3V97.3968C148.194 97.4033 144.904 97.401 141.892 97.3988C140.485 97.3978 139.139 97.3968 138.104 97.3968C138.09 97.3968 138.068 97.3964 138.039 97.3958C137.228 97.3789 130.861 97.2469 130.861 103.639C130.902 106.343 130.861 115.656 130.861 115.656H149.375L147.875 136.59H131.293V189.827C164.239 186.661 190 158.903 190 125.127C190 89.2287 160.899 60.1272 125 60.1272C89.1015 60.1272 60 89.2287 60 125.127C60 154.478 79.4541 179.286 106.171 187.358Z" fill="url(#paint0_linear_2_7276)"/>
<defs>
<linearGradient id="paint0_linear_2_7276" x1="125" y1="60.1272" x2="125" y2="189.827" gradientUnits="userSpaceOnUse">
<stop stop-color="#53ABF8"/>
<stop offset="1" stop-color="#2C67D9"/>
</linearGradient>
</defs>
</svg>
