<?xml version="1.0" encoding="utf-8"?>
<svg x="0pt" y="0pt" width="4500pt" height="4500pt" viewBox="0 0 4500 4500" xmlns="http://www.w3.org/2000/svg" xmlns:xlink="http://www.w3.org/1999/xlink">
  <g id="1">
    <title>Layer 1</title>
    <g id="2">
      <title>Group</title>
      <g id="3">
        <title>Group</title>
        <defs>
          <title>Shape 272</title>
          <g id="4">
            <defs>
              <path id="5" d="M1015.12,1339.45 C1038.99,1319.61,1060.45,1312.78,1060.45,1312.78 C1057.95,1358.54,1063.71,1397.43,1074.11,1430.23 C1081.37,1453.82,1091.85,1476.31,1105.24,1497.04 C1144.82,1557.98,1195.79,1581.84,1195.79,1581.84 C1201.87,1464.62,1261.99,1425.02,1261.99,1425.02 C1252.02,1493.46,1252.67,1668.81,1312.54,1807.95 C1382.38,1969.98,1310.26,1962.71,1407.43,2165.94 C1529.76,2421.45,1876.47,2418.31,1876.47,2418.31 C1677.68,2475.56,1458.07,2406.26,1350.49,2228.29 C1308.09,2157.91,1290.95,2100.12,1283.25,2049.79 C1234.23,2033.31,1154.1,1963.9,1149.22,1959.57 C1153.11,1960.44,1216.78,1974.96,1276.63,1975.19 C1274.58,1931.47,1273.5,1892.7,1257.76,1853.63 C1199.86,1846.59,1137.17,1807.97,1137.17,1807.97 C1130.78,1920.33,1073.14,1976.28,1007.91,1995.73 C1007.91,1995.73,991.37,2080.81,991.37,2080.81 C1054.37,2165.29,1213.25,2289.68,1213.25,2289.68 C1213.25,2289.68,1079.76,2248.04,977.923,2149.35 C965.521,2212.9,953.12,2276.45,940.718,2340 C1005.69,2392.49,1073.45,2437.83,1138.25,2477.73 C1328.9,2595.18,1589.24,2648.58,1656.67,2645.33 C1721.52,2633.82,1788.43,2619.63,1854.9,2603.79 C1786.69,2588.07,1624.46,2547.36,1534.01,2497.63 C1600.82,2500.98,1859.89,2535.25,2108.14,2536.77 C2340.21,2469.75,2521.54,2403.38,2521.54,2403.38 C2521.54,2403.38,2426.03,2269.88,2493.77,2113.94 C2561.52,1957.99,2706.66,1920.89,2776.39,1910.98 C2835.5,1866.41,2914.45,1698.42,2923.99,1545.08 C2933.86,1385.11,2821.83,1329.91,2757.64,1246.84 C2693.44,1163.77,2651.89,1055.22,2568.39,948.067 C2646.48,986.563,2697.99,1056.09,2697.99,1056.09 C2709.05,1026.92,2766.96,862.718,2716.09,763.27 C2660.02,653.957,2533.37,604.716,2533.37,604.716 C2547.57,588.437,2584.11,571.755,2584.11,571.755 C2400.7,479.569,2232.85,599.735,2232.85,599.735 C2228.08,572.602,2231.44,543.45,2231.44,543.45 C2137.96,622.071,2111.5,768.48,2111.5,768.48 C2309.42,767.177,2379.9,843.746,2379.9,843.746 C2167.03,807.084,1928.01,826.609,1742.77,920.522 C1557.53,1014.43,1391.61,1209.76,1391.61,1209.76 C1414.07,1097.29,1472.96,1046.65,1472.96,1046.65 C1374.92,969.86,1270.81,982.45,1270.81,982.45 C1290.44,996.656,1312.56,1033.52,1312.56,1033.52 C1270.14,1036,1228.54,1046.22,1189.8,1063.67 C1172.6,1071.35,1156.06,1080.42,1140.34,1090.81 C1097.61,1118.68,1062.92,1154.26,1039.27,1191.88 C1006.41,1243.72,994.379,1299.33,1010.09,1343.93 C1011.75,1342.38,1013.49,1340.86,1015.12,1339.45 z M2013.27,1281.65 C2013.27,1281.65,2041.9,1184.48,2144.06,1140.67 C2246.22,1096.85,2450.44,1131.78,2566.37,1257.14 C2682.3,1382.51,2648.35,1515.9,2553.45,1566.98 C2409,1644.63,2356.4,1559.5,2237.12,1518.83 C2117.83,1478.17,1971.86,1445.63,2013.27,1281.65 z M2097.31,1612.75 C2167.48,1602.88,2191.12,1647.56,2164.77,1708.61 C2138.42,1769.66,2100.24,1798.69,2067.71,1806.43 C2002.96,1821.63,1925.53,1765.55,1923.57,1722.17 C1921.61,1678.79,2027.16,1622.51,2097.31,1612.75 z M2135.59,1866.84 C2185.04,1896.67,2295.01,1873.14,2302.17,1737.57 C2302.17,1737.57,2365.5,1820.42,2295.55,1892.32 C2314.97,1919.54,2346.09,2067.26,2235.59,2124.73 C2114.23,2187.95,2030.18,2060.85,2012.07,2025.4 C1929.97,2017.04,1915.01,1943.19,1915.01,1943.19 C2068.14,2017.04,2135.6,1866.84,2135.6,1866.84 z M1425.58,1673.37 C1441.86,1484.45,1582.4,1305.95,1748.87,1345.97 C1910.13,1384.79,1881.72,1533.04,1847.12,1628.69 C1812.52,1724.34,1824.13,1776.39,1797.46,1848.73 C1770.78,1921.06,1701.69,1977.57,1610.27,1971.92 C1492.79,1964.66,1411.17,1855.89,1425.59,1673.37 z"/>
            </defs>
            <use xlink:href="#5" style="fill:#797979;fill-opacity:1;fill-rule:evenodd;opacity:1;stroke:none;"/>
          </g>
        </defs>
        <use xlink:href="#4"/>
        <defs>
          <title>Shape 273</title>
          <g id="6">
            <defs>
              <path id="7" d="M2997.23,1863.15 C2997.23,1863.15,2960.13,1949.64,2806.46,1979.74 C2634.8,2013.38,2517.33,2137.31,2596.4,2244.55 C2677.3,2354.31,2879.45,2325.35,2879.45,2325.35 C2697.8,2425.01,2560.28,2309.85,2560.28,2309.85 C2624.6,2465.05,2859.83,2515.13,3049.61,2357.88 C3239.38,2200.63,3256.09,2001.41,3256.09,2001.41 C3233.43,2052.17,3186.15,2106.93,3183.22,2110.3 C3185.81,2104,3242.75,1964.54,3234.84,1858.59 C3226.7,1750.14,3142.32,1667.07,2993.43,1600.16 C2986.81,1752.2,2876.3,1899.48,2876.3,1899.48 C2925.33,1892.12,2997.23,1863.15,2997.23,1863.15 z"/>
            </defs>
            <use xlink:href="#7" style="fill:#797979;fill-opacity:1;fill-rule:evenodd;opacity:1;stroke:none;"/>
          </g>
        </defs>
        <use xlink:href="#6"/>
        <defs>
          <title>Shape 274</title>
          <g id="8">
            <defs>
              <path id="9" d="M1977.6,1743.43 C2029.87,1784.85,2069.45,1767.61,2104.05,1728.9 C2138.65,1690.18,2127.79,1657.76,2076.72,1672.93 C2025.64,1688.1,1999.83,1703.32,1976.4,1717.62 C1970.87,1720.99,1958.72,1728.46,1977.6,1743.43 z"/>
            </defs>
            <use xlink:href="#9" style="fill:#797979;fill-opacity:1;fill-rule:evenodd;opacity:1;stroke:none;"/>
          </g>
        </defs>
        <use xlink:href="#8"/>
        <defs>
          <title>Shape 275</title>
          <g id="10">
            <defs>
              <path id="11" d="M2736.31,2783.16 C2845.72,2841.84,3021.19,2985.97,3076.61,3270.85 C3070.87,3258.71,2888.85,2876.22,2486.2,2861.58 C2040.36,2991.16,1574.37,3078.9,1492.05,3076.95 C1490.64,3146.47,1624.36,3962.57,1680.43,4238.24 C1988.09,4399.61,2442.32,4332.48,2640.19,4283.68 C2983.22,4186.73,3214.1,3787.31,3214.1,3787.31 C3197.07,3987.51,3056.73,4147.25,3052.39,4152.25 C3254.85,4057.35,3529.45,3816.59,3569.68,3727.23 C3450.53,3342.66,3331.39,2958.1,3212.24,2573.53 C3097.76,2647.13,2926.85,2718.49,2736.31,2783.16 z"/>
            </defs>
            <use xlink:href="#11" style="fill:#797979;fill-opacity:1;fill-rule:evenodd;opacity:1;stroke:none;"/>
          </g>
        </defs>
        <use xlink:href="#10"/>
        <defs>
          <title>Shape 276</title>
          <g id="12">
            <defs>
              <path id="13" d="M860.796,1983.53 C841.26,1973.56,825.881,1960.44,816.872,1945.36 C816.872,1945.36,836.723,1952.08,865.354,1955.34 C881.623,1957.22,898.034,1957.54,914.366,1956.31 C933.989,1954.69,954.599,1950.35,974.34,1941.35 C994.328,1932.44,1012.05,1919.13,1026.17,1902.42 C1066.84,1854.37,1074.55,1792.23,1059.26,1732.58 C1052.71,1707.27,1042.59,1683.02,1029.21,1660.57 C1014.31,1635.25,995.624,1612.36,973.798,1592.69 C960.34,1580.4,945.616,1569.56,929.875,1560.37 C912.487,1550.13,893.815,1542.25,874.35,1536.94 C723.382,1496.27,543.144,1682.91,636.666,1939.07 C677.984,2052.4,743.7,2147.94,820.594,2229.39 z"/>
            </defs>
            <use xlink:href="#13" style="fill:#797979;fill-opacity:1;fill-rule:evenodd;opacity:1;stroke:none;"/>
          </g>
        </defs>
        <use xlink:href="#12"/>
        <defs>
          <title>Shape 277</title>
          <g id="14">
            <defs>
              <path id="15" d="M3308.04,1821.57 C3308.04,1821.57,3407.49,2077.3,3148.5,2360.67 C2980.41,2539.61,2712.11,2582.99,2571.11,2460.88 C2571.11,2460.88,2142.74,2620.94,1787.51,2690.03 C1432.44,2759.11,1173.69,2774.62,1233.87,2608.26 C1207.1,2596.87,1174.89,2579.84,1143.22,2561.85 C965.149,2624.09,921.117,2765.18,967.396,2866.91 C874.557,2816.27,828.79,2645.58,1051.12,2506.86 C1026.49,2491.47,1010.33,2480.82,1010.33,2480.82 C1010.33,2480.82,814.692,2561.72,728.8,2703.57 C642.908,2845.42,710.696,2986.4,893.323,3009.93 C1075.95,3033.46,1588.29,3020.85,2323.05,2825.63 C3057.81,2630.42,3618.92,2286.09,3694.89,2069.21 C3770.86,1852.33,3459.87,1802.64,3308.04,1821.57 z"/>
            </defs>
            <use xlink:href="#15" style="fill:#797979;fill-opacity:1;fill-rule:evenodd;opacity:1;stroke:none;"/>
          </g>
        </defs>
        <use xlink:href="#14"/>
        <defs>
          <title>Shape 278</title>
          <g id="16">
            <defs>
              <path id="17" d="M2100.24,1418.52 C2103.16,1425.17,2131.87,1449.7,2137.49,1456.06 C2143.1,1462.42,2155.37,1466.41,2155.37,1466.41 C2176.31,1472.89,2197.24,1479.37,2218.18,1485.84 C2239.11,1492.32,2285.96,1500.31,2288.23,1501.67 C2290.49,1503.02,2344.82,1516.4,2344.82,1516.4 C2344.82,1516.4,2449.99,1513.41,2451.79,1513.41 C2453.59,1513.41,2487.5,1503.02,2488.85,1502.11 C2490.19,1501.2,2524.54,1469.55,2524.54,1469.55 C2529.21,1444.54,2533.88,1419.54,2538.55,1394.53 C2538.55,1371.49,2538.55,1348.44,2538.55,1325.4 C2538.55,1302.35,2500.14,1244.52,2499.69,1242.71 C2499.23,1240.9,2482.71,1217.75,2482.71,1217.75 C2472.71,1209.81,2462.7,1201.87,2452.69,1193.93 C2452.69,1193.93,2377.68,1168.21,2377.68,1168.21 C2377.68,1168.21,2342.11,1158.21,2340.78,1157.9 C2339.44,1157.6,2293.6,1154.21,2292.24,1155.43 C2290.88,1156.64,2243.4,1155.43,2243.4,1155.43 C2228.05,1154.78,2212.69,1154.12,2197.34,1153.47 C2181.99,1152.82,2143.77,1167.41,2141.99,1168.21 C2140.21,1169.02,2097.05,1202.57,2096.14,1203.92 C2095.22,1205.27,2078.06,1251.17,2078.06,1251.17 C2078.06,1251.17,2070.84,1288.42,2070.38,1289.78 C2069.92,1291.14,2079.88,1369.31,2079.88,1369.31 C2079.88,1369.31,2097.31,1411.87,2100.24,1418.52 z"/>
            </defs>
            <use xlink:href="#17" style="fill:#797979;fill-opacity:1;fill-rule:evenodd;opacity:1;stroke:none;"/>
          </g>
        </defs>
        <use xlink:href="#16"/>
        <defs>
          <title>Shape 279</title>
          <g id="18">
            <defs>
              <path id="19" d="M1536.75,1845.54 C1556.18,1852.77,1575.61,1860.01,1595.04,1867.24 C1624.19,1867.24,1653.33,1867.24,1682.48,1867.24 C1684.52,1867.24,1731.96,1838.1,1731.96,1838.1 C1746.19,1828.4,1760.43,1818.7,1774.66,1808.99 C1788.9,1799.29,1797.71,1760.15,1798.39,1754.73 C1799.07,1749.3,1804.49,1687.3,1804.49,1687.3 C1804.49,1687.3,1819.46,1639.33,1820.82,1635.43 C1822.19,1631.53,1826.86,1606.29,1830.05,1602.87 C1833.24,1599.45,1840.47,1570.31,1840.47,1570.31 C1840.47,1570.31,1849.85,1535.05,1849.85,1535.05 C1849.4,1522.29,1848.95,1509.53,1848.5,1496.77 C1848.95,1483.55,1849.4,1470.33,1849.85,1457.11 C1841.72,1444.69,1833.59,1432.26,1825.46,1419.83 C1816.41,1409.47,1807.37,1399.12,1798.32,1388.76 C1780.93,1386.23,1763.53,1383.69,1746.13,1381.16 C1743.87,1410.08,1741.61,1439,1739.35,1467.92 C1704.56,1461.82,1669.77,1455.72,1634.97,1449.62 C1585.16,1473.86,1535.35,1498.1,1485.54,1522.34 C1485.54,1522.34,1474.06,1545.9,1474.06,1545.9 C1464.24,1580.02,1454.41,1614.13,1444.58,1648.25 C1449.77,1683.72,1454.97,1719.19,1460.16,1754.66 C1465.36,1790.13,1502.87,1821.08,1504.9,1822.44 C1506.93,1823.8,1536.75,1845.54,1536.75,1845.54 z"/>
            </defs>
            <use xlink:href="#19" style="fill:#797979;fill-opacity:1;fill-rule:evenodd;opacity:1;stroke:none;"/>
          </g>
        </defs>
        <use xlink:href="#18"/>
        <defs>
          <title>Shape 280</title>
          <g id="20">
            <defs>
              <path id="21" d="M3580.33,3608.5 C3561.12,3554.96,3541.92,3501.42,3522.72,3447.88 C3500.8,3376.48,3478.89,3305.08,3456.97,3233.68 C3456.97,3233.68,3374.95,2988.29,3374.95,2988.29 C3356.2,2920.73,3337.45,2853.17,3318.7,2785.62 C3289.55,2699.09,3260.4,2612.56,3231.26,2526.03 C3231.26,2526.03,2700.74,2756.94,2700.74,2756.94 C2601.62,2784.66,2502.49,2812.37,2403.37,2840.09 C2316.61,2865.69,2229.85,2891.3,2143.09,2916.91 C2143.09,2916.91,1875.64,2972.01,1875.64,2972.01 C1779.25,2992.49,1682.85,3012.98,1586.46,3033.46 C1556.03,3042.2,1525.61,3050.94,1495.18,3059.68 C1744.61,3172.65,2013.97,2971.1,2353.73,3086.81 C2693.5,3202.53,2915.85,3455.54,2923.08,3636.29 C2923.08,3636.29,3012.55,3535.06,3017.98,3425.74 C3116.48,3847.78,2885.13,4218.32,2116.95,4359.29 C2116.95,4359.29,2426.95,4381.89,2591.42,4343.93 C2755.89,4305.98,2898.69,4256.27,2898.69,4256.27 C2961.2,4230.14,3023.71,4204,3086.21,4177.87 C3131.85,4155.28,3177.49,4132.69,3223.13,4110.09 C3272.15,4071.68,3321.18,4033.27,3370.21,3994.86 C3423.98,3944.03,3477.76,3893.19,3531.53,3842.36 C3557.51,3805.76,3583.49,3769.15,3609.47,3732.55 z"/>
            </defs>
            <use xlink:href="#21" style="fill:#4b4b4b;fill-opacity:1;fill-rule:evenodd;opacity:1;stroke:none;"/>
          </g>
        </defs>
        <use xlink:href="#20"/>
        <defs>
          <title>Shape 281</title>
          <g id="22">
            <defs>
              <path id="23" d="M1954.28,2610.77 C1977.33,2599.47,2000.37,2588.18,2023.42,2576.88 C1954.28,2395.9,1885.14,2214.93,1816,2033.96 C1816,2033.96,1292.3,1915.13,1292.3,1915.13 C1292.3,1915.13,1201.92,1896.59,1116.47,1845.54 C1116.47,1845.54,1085.34,1771.65,1085.34,1771.65 C999.423,1618.93,839.968,1600.17,742.377,1713.14 C644.785,1826.11,688.111,2017.69,853.535,2174.94 C1018.96,2332.19,1393.97,2591.56,1835,2631.33 z"/>
            </defs>
            <use xlink:href="#23" style="fill:#4b4b4b;fill-opacity:1;fill-rule:evenodd;opacity:1;stroke:none;"/>
          </g>
        </defs>
        <use xlink:href="#22"/>
        <defs>
          <title>Shape 282</title>
          <g id="24">
            <defs>
              <path id="25" d="M2219.55,1462.33 C2308.54,1497.57,2440.23,1577.82,2526.99,1527.61 C2613.75,1477.41,2614.84,1363.86,2498.36,1264.85 C2477.1,1246.84,2361.61,1158.24,2237.55,1169.08 C2113.49,1179.92,2040.17,1277.54,2059.56,1352.58 C2078.95,1427.61,2136.9,1429.58,2219.55,1462.33 z M2191.02,1342.71 C2195.57,1287.62,2246.87,1246.74,2305.76,1251.54 C2364.65,1256.35,2408.69,1304.72,2404.23,1359.77 C2403.91,1364.56,2403.18,1369.31,2402.06,1373.98 C2386.77,1341.01,2352.93,1316.46,2311.98,1313.13 C2258.29,1308.79,2210.8,1342.31,2199.62,1390.03 C2192.73,1375.26,2189.77,1358.96,2191.02,1342.71 z"/>
            </defs>
            <use xlink:href="#25" style="fill:#4b4b4b;fill-opacity:1;fill-rule:evenodd;opacity:1;stroke:none;"/>
          </g>
        </defs>
        <use xlink:href="#24"/>
        <defs>
          <title>Shape 283</title>
          <g id="26">
            <defs>
              <path id="27" d="M1613.97,1926.16 C1744.86,1922.15,1761.78,1795.37,1782.07,1695.06 C1802.35,1594.74,1879.02,1489.23,1782.07,1413.74 C1678.49,1333.06,1494.89,1458.75,1476.45,1638.77 C1466.48,1735.94,1483.18,1930.28,1613.97,1926.16 z M1582.63,1608.95 C1608.98,1556.14,1670.47,1533.37,1719.92,1557.94 C1734.49,1565.25,1746.93,1576.2,1756.04,1589.72 C1709.37,1574.64,1656.19,1597.95,1632.09,1646.15 C1613.76,1682.91,1617.22,1724.56,1637.61,1754.68 C1633.02,1753.24,1628.56,1751.43,1624.27,1749.26 C1574.81,1724.56,1556.17,1661.77,1582.63,1608.95 z"/>
            </defs>
            <use xlink:href="#27" style="fill:#4b4b4b;fill-opacity:1;fill-rule:evenodd;opacity:1;stroke:none;"/>
          </g>
        </defs>
        <use xlink:href="#26"/>
        <defs>
          <title>Shape 284</title>
          <g id="28">
            <defs>
              <path id="29" d="M2020.25,1772.73 C2052.81,1784.93,2055.73,1790.36,2077.87,1772.73 C2100.01,1755.11,2131.19,1724.61,2131.19,1724.61 C2135.26,1715.95,2139.32,1707.3,2143.39,1698.64 C2143.39,1692.61,2143.39,1686.58,2143.39,1680.56 C2143.39,1679.66,2133.45,1655.03,2133.45,1655.03 C2133.45,1655.03,2121.51,1646.89,2120.79,1646.89 C2120.08,1646.89,2103.62,1646.45,2098.88,1647.8 C2094.14,1649.16,2083.28,1649.83,2076.28,1653.23 C2069.28,1656.63,2017.54,1683.27,2017.54,1683.27 C2017.54,1683.27,1987.69,1760.58,2020.25,1772.73 z"/>
            </defs>
            <use xlink:href="#29" style="fill:#4b4b4b;fill-opacity:1;fill-rule:evenodd;opacity:1;stroke:none;"/>
          </g>
        </defs>
        <use xlink:href="#28"/>
        <defs>
          <title>Shape 285</title>
          <g id="30">
            <defs>
              <path id="31" d="M1126,1415.12 C1132.44,1392.08,1170.74,1357.97,1170.74,1357.97 C1151.77,1470.94,1215.48,1537.81,1215.48,1537.81 C1355.1,1557.69,1413.85,1514.32,1413.85,1514.32 C1413.85,1514.32,1684.09,1142.88,1459.94,1083.23 C1235.79,1023.58,1129.39,1192.85,1129.39,1192.85 C1159.56,1180.99,1215.48,1182.68,1215.48,1182.68 C1101.61,1264.65,1126,1415.12,1126,1415.12 z"/>
            </defs>
            <use xlink:href="#31" style="fill:#4b4b4b;fill-opacity:1;fill-rule:evenodd;opacity:1;stroke:none;"/>
          </g>
        </defs>
        <use xlink:href="#30"/>
        <defs>
          <title>Shape 286</title>
          <g id="32">
            <defs>
              <path id="33" d="M2570.62,1062.45 C2598.04,1052.81,2625.45,1043.17,2652.86,1033.52 C2733.28,845.548,2602.93,762.402,2602.93,762.402 C2630.15,761.548,2657.4,762.454,2684.5,765.115 C2561.4,615.092,2378.13,671.571,2378.13,671.571 C2393.48,637.688,2431.44,603.349,2431.44,603.349 C2285.04,606.963,2175.24,709.536,2160.79,788.612 C2160.79,788.612,2221.79,908.822,2221.79,908.822 z"/>
            </defs>
            <use xlink:href="#33" style="fill:#4b4b4b;fill-opacity:1;fill-rule:evenodd;opacity:1;stroke:none;"/>
          </g>
        </defs>
        <use xlink:href="#32"/>
        <defs>
          <title>Shape 287</title>
          <g id="34">
            <defs>
              <path id="35" d="M2962.51,1894 C3039.1,1852.31,3013.92,1755.61,2958.79,1709.49 C2958.79,1709.49,2872.02,1853.63,2857.11,1899.42 C2842.21,1945.21,2885.92,1935.68,2962.51,1894 z"/>
            </defs>
            <use xlink:href="#35" style="fill:#4b4b4b;fill-opacity:1;fill-rule:evenodd;opacity:1;stroke:none;"/>
          </g>
        </defs>
        <use xlink:href="#34"/>
        <defs>
          <title>Shape 288</title>
          <g id="36">
            <defs>
              <path id="37" d="M2552.33,2649.41 C3101.56,2519.27,3546.66,2197.54,3581,2053.84 C3615.34,1910.15,3383.98,1911.05,3383.98,1911.05 C3365.01,1991.48,3300.41,2061.75,3300.41,2061.75 C3300.41,2061.75,3239.55,2155.88,3225.4,2186.15 C3237.9,2159.38,3250.4,2132.61,3262.9,2105.84 C3268.18,2087.31,3273.45,2068.79,3278.73,2050.26 C3282.79,2018.33,3286.86,1986.4,3290.93,1954.47 C3287.76,1923.89,3284.6,1893.32,3281.43,1862.74 C3271.19,1832.31,3260.95,1801.89,3250.72,1771.46 C3229.17,1738.78,3207.63,1706.09,3186.09,1673.41 C3167.71,1661.21,3149.34,1649.01,3130.96,1636.81 C3122.68,1639.67,3114.39,1642.54,3106.11,1645.4 C3097.83,1648.27,3238.05,1821.17,3141.82,2043.5 C3141.82,2043.5,3154.93,1952.67,3135.03,1898.89 C3135.03,1898.89,3080.38,2123.48,2884.26,2226.5 C2688.14,2329.53,2544.85,2144.07,2678.2,2008.7 C2678.2,2008.7,2602.28,2019.09,2589.74,2047.89 C2577.19,2076.7,2541.73,2088.24,2530.89,2138.84 C2524.33,2170.03,2521.6,2201.89,2522.74,2233.73 C2519.65,2258.96,2519.55,2284.46,2522.45,2309.7 C2527.27,2351.27,2567.03,2398.27,2567.03,2398.27 C2572.3,2402.57,2577.57,2406.88,2582.84,2411.18 C2551.36,2423.75,2519.89,2436.31,2488.41,2448.88 C2388.1,2484.33,2287.78,2519.78,2187.47,2555.24 C2091.23,2578.28,1995,2601.33,1898.77,2624.37 C1805.01,2645.61,1711.24,2666.85,1617.48,2688.09 C1560.09,2688.99,1502.7,2689.89,1445.32,2690.79 C1410.07,2684.24,1374.83,2677.69,1339.58,2671.14 C1326.03,2647.42,1312.47,2623.69,1298.91,2599.97 C1245.93,2573.2,1192.94,2546.43,1139.96,2519.66 C1119.52,2524.97,1099.07,2530.28,1078.62,2535.59 C1049.4,2553.68,1020.19,2571.77,990.97,2589.86 C961.754,2607.95,905.111,2707.33,920.479,2773.28 C936.292,2841.95,956.62,3001.92,1580.2,2900.7 C2203.78,2799.49,2552.33,2649.41,2552.33,2649.41 z M3152.23,2296.04 C3161.96,2283.27,3171.69,2270.51,3181.42,2257.74 C3168.53,2276.87,3154.41,2297.48,3140.49,2318.64 C3105.95,2371.14,3055.58,2388.7,3018.33,2417.25 C3040.37,2400.34,3062.41,2383.44,3084.46,2366.53 z M2923.14,2454.65 C2952.75,2443.72,2982.36,2432.79,3011.97,2421.86 C2980.49,2443.83,2938.57,2457.88,2879.93,2470.3 z M2629.01,2448.78 C2629.01,2448.78,2752.84,2486.23,2752.84,2486.23 C2720.39,2486.23,2693.72,2482.18,2672.03,2475.2 C2632.18,2462.38,2583.15,2411.47,2582.8,2411.12 z"/>
            </defs>
            <use xlink:href="#37" style="fill:#4b4b4b;fill-opacity:1;fill-rule:evenodd;opacity:1;stroke:none;"/>
          </g>
        </defs>
        <use xlink:href="#36"/>
        <defs>
          <title>Shape 289</title>
          <g id="38">
            <defs>
              <path id="39" d="M2116.95,1747.48 C2140.9,1736.18,2137.51,1712.23,2137.75,1711.1 C2137.99,1709.97,2143.61,1695.74,2146.1,1681.73 C2148.6,1667.72,2135.03,1664.1,2117.89,1654.85 C2100.74,1645.59,2067.28,1651.68,2067.28,1651.68 C2062.01,1657.1,2056.73,1662.53,2051.46,1667.96 C2102.53,1696.42,2039.27,1728.51,2034.74,1780.03 C2060.46,1789.73,2092.97,1758.78,2116.95,1747.48 z"/>
            </defs>
            <use xlink:href="#39" style="fill:#383838;fill-opacity:1;fill-rule:evenodd;opacity:1;stroke:none;"/>
          </g>
        </defs>
        <use xlink:href="#38"/>
        <defs>
          <title>Shape 290</title>
          <g id="40">
            <defs>
              <path id="41" d="M1397.8,1704.55 C1397.8,1707.26,1415.42,1827.91,1417.47,1850.64 C1419.51,1873.36,1453.38,1938.4,1455.45,1943.81 C1457.52,1949.23,1582.19,2030.57,1593.05,2035.32 C1603.9,2040.06,1679.8,2041.41,1681.84,2040.06 C1683.88,2038.7,1782.15,1980.37,1784.18,1978.38 C1786.21,1976.39,1839.09,1827.23,1839.09,1827.23 C1829.37,1776.62,1819.65,1726.01,1809.94,1675.4 C1776.73,1676.09,1693.59,1829.27,1613.6,1836.03 C1533.62,1842.79,1491.15,1765.54,1468.11,1660.71 C1468.07,1660.72,1397.8,1701.84,1397.8,1704.55 z"/>
            </defs>
            <use xlink:href="#41" style="fill:#383838;fill-opacity:1;fill-rule:evenodd;opacity:1;stroke:none;"/>
          </g>
        </defs>
        <use xlink:href="#40"/>
        <defs>
          <title>Shape 291</title>
          <g id="42">
            <defs>
              <path id="43" d="M2470.31,1660.72 C2473.02,1660.72,2597.74,1639.93,2625.76,1630.89 C2653.78,1621.85,2697.15,1557.69,2697.15,1557.69 C2711.62,1514.91,2726.09,1472.14,2740.56,1429.36 C2755.03,1386.59,2706.22,1339.89,2705.32,1337.17 C2704.42,1334.46,2575.15,1156.44,2499.23,1122.63 C2423.31,1088.82,2445.91,1104.06,2436.88,1101.35 C2427.85,1098.63,2386.26,1120.33,2384.46,1122.63 C2382.66,1124.93,2379.93,1185.39,2379.93,1185.39 C2509.17,1253.17,2536.51,1399.58,2465.34,1447.7 C2394.16,1495.83,2322.98,1454.49,2229.92,1482.27 C2229.92,1482.27,2244.38,1549.56,2246.2,1552.32 C2248.03,1555.07,2467.59,1660.72,2470.31,1660.72 z"/>
            </defs>
            <use xlink:href="#43" style="fill:#383838;fill-opacity:1;fill-rule:evenodd;opacity:1;stroke:none;"/>
          </g>
        </defs>
        <use xlink:href="#42"/>
        <defs>
          <title>Shape 292</title>
          <g id="44">
            <defs>
              <path id="45" d="M1243.04,1293.81 C1228.59,1339.39,1230.39,1409.71,1243.26,1459.52 C1243.26,1459.52,1243.94,1482.91,1243.94,1484.94 C1243.94,1486.97,1420.85,1407.67,1420.85,1407.67 C1455.42,1361.58,1489.99,1315.49,1524.55,1269.4 C1559.12,1223.31,1538.79,1175.86,1431.02,1142.65 C1323.25,1109.44,1263.78,1176.09,1263.78,1176.09 C1279.15,1175.18,1300.84,1180.61,1300.84,1180.61 C1216.79,1236.87,1205.04,1321.82,1205.04,1321.82 C1212.77,1310.07,1243.04,1293.81,1243.04,1293.81 z"/>
            </defs>
            <use xlink:href="#45" style="fill:#383838;fill-opacity:1;fill-rule:evenodd;opacity:1;stroke:none;"/>
          </g>
        </defs>
        <use xlink:href="#44"/>
        <defs>
          <title>Shape 293</title>
          <g id="46">
            <defs>
              <path id="47" d="M2527.7,1036.89 C2527.7,1036.89,2567.69,1053.83,2600.91,977.924 C2634.12,902.017,2554.64,826.946,2554.64,826.946 C2566.91,830.746,2578.96,835.213,2590.74,840.328 C2533.13,723.765,2413.13,741.39,2413.13,741.39 C2422.11,729.365,2446.35,716.309,2446.35,716.309 C2321.63,687.168,2245.27,797.197,2245.27,797.197 C2243.38,813.839,2241.5,830.48,2239.61,847.122 C2262.21,879.204,2284.8,911.286,2307.39,943.368 z"/>
            </defs>
            <use xlink:href="#47" style="fill:#383838;fill-opacity:1;fill-rule:evenodd;opacity:1;stroke:none;"/>
          </g>
        </defs>
        <use xlink:href="#46"/>
        <defs>
          <title>Shape 294</title>
          <g id="48">
            <defs>
              <path id="49" d="M2931.22,1773.23 C2902.9,1812.09,2874.58,1850.96,2846.26,1889.82 C2845.06,1904.88,2843.85,1919.94,2842.65,1935 C2875.33,1922.04,2908.02,1909.09,2940.71,1896.13 C2981.84,1842.37,2959.23,1794.44,2931.22,1773.23 z"/>
            </defs>
            <use xlink:href="#49" style="fill:#383838;fill-opacity:1;fill-rule:evenodd;opacity:1;stroke:none;"/>
          </g>
        </defs>
        <use xlink:href="#48"/>
        <defs>
          <title>Shape 295</title>
          <g id="50">
            <defs>
              <path id="51" d="M2600.57,2308.13 C2586.1,2300.22,2571.63,2292.31,2557.16,2284.41 C2549.59,2288.36,2542.03,2292.31,2534.46,2296.27 C2534.46,2306.66,2534.46,2317.06,2534.46,2327.45 C2534.46,2328.47,2548.01,2359.64,2548.01,2359.64 C2562.12,2378.85,2576.22,2398.05,2590.33,2417.26 C2613.72,2430.36,2637.1,2443.47,2660.49,2456.57 C2691.21,2463.57,2721.94,2470.58,2752.66,2477.58 C2773.11,2479.61,2793.56,2481.65,2814.01,2483.68 C2834.45,2485.71,2894.32,2469.79,2895.69,2468.77 C2897.05,2467.75,2963.47,2446.75,2964.81,2445.04 C2966.16,2443.34,3008.42,2430.7,3085.28,2402.23 C3162.14,2373.76,3220.85,2310.06,3241.63,2279.78 C3317.09,2240.92,3408.15,2122.75,3286.13,2089.54 C3286.13,2089.54,3259.92,2074.62,3268.77,2027.19 C3277.61,1979.75,3248.21,1940.43,3219.73,2033.29 C3191.25,2126.15,3089.37,2226.91,3089.37,2226.91 C3102.03,2200.71,3107.22,2111.86,3107.22,2111.86 C3050.29,2195.24,2940.25,2342.08,2792.04,2341.19 C2745.5,2336.49,2698.96,2331.78,2652.41,2327.08 z"/>
            </defs>
            <use xlink:href="#51" style="fill:#383838;fill-opacity:1;fill-rule:evenodd;opacity:1;stroke:none;"/>
          </g>
        </defs>
        <use xlink:href="#50"/>
        <defs>
          <title>Shape 296</title>
          <g id="52">
            <defs>
              <path id="53" d="M2796.79,2509.1 C2724.72,2484.02,2652.64,2458.94,2580.57,2433.86 C2570.17,2431.01,2559.78,2428.15,2549.38,2425.29 C2479.8,2453.15,2410.21,2481,2340.62,2508.86 C2276.61,2527.84,2212.59,2546.82,2148.58,2565.8 C2131.17,2570.18,2113.75,2574.57,2096.34,2578.96 C2123.11,2570.35,2149.88,2561.74,2176.65,2553.13 C2217.32,2540.25,2257.99,2527.38,2298.66,2514.5 C2298.66,2514.5,2568.33,2413.53,2568.33,2413.53 C2555.23,2389.8,2542.13,2366.08,2529.02,2342.36 C2521.57,2305.31,2514.11,2268.26,2506.66,2231.2 C2501.01,2224.42,2495.36,2217.64,2489.71,2210.86 C2496.79,2193.17,2503.87,2175.47,2510.94,2157.77 C2298.58,2168.01,2086.22,2178.25,1873.86,2188.5 C1661.5,2198.74,1323.48,2056.55,1234,1986.96 C1234,1986.96,1158.99,1966.63,1132.79,1952.62 C1132.79,1952.62,1160.57,2010.92,1197.52,2038.7 C1197.52,2038.7,1100.25,1996.01,1045.34,1950.25 C1054.94,1927.88,1064.55,1905.52,1074.15,1883.15 C1072.45,1876.03,1070.76,1868.91,1069.07,1861.79 C1067.38,1854.68,1036.51,1708.61,881.102,1741.15 C725.696,1773.69,761.349,1990.58,868.893,2063.78 C868.893,2063.78,924.483,2056.55,992.26,2122.52 C1060.04,2188.49,1095.17,2215.27,1095.17,2215.27 C1116.41,2228.71,1137.64,2242.16,1158.88,2255.6 C1242.76,2312.2,1399.16,2390.48,1523.88,2435.89 C1523.88,2435.89,1411.58,2443.35,1338.39,2431.55 C1338.39,2431.55,1567.48,2521.93,1745.51,2545.42 C1923.55,2568.92,1999.01,2600.55,1999.01,2600.55 C2010.06,2598.74,2021.11,2596.93,2032.16,2595.12 C2032.16,2595.12,1970.99,2610.6,1970.99,2610.6 C1911.19,2626.42,1851.4,2642.24,1791.61,2658.06 C1736.33,2667.55,1681.05,2677.04,1625.77,2686.53 C1562.21,2692.1,1498.64,2697.67,1435.08,2703.24 C1384.77,2664.98,1334.46,2626.73,1284.16,2588.47 C1247.25,2581.53,1210.35,2574.6,1173.45,2567.66 C1088.05,2622.81,1038.8,2766.04,1217.73,2824.77 C1396.67,2883.51,2057.3,2801.29,2588.69,2530.16 C2588.69,2530.11,2750.67,2545.02,2796.79,2509.1 z"/>
            </defs>
            <use xlink:href="#53" style="fill:#383838;fill-opacity:1;fill-rule:evenodd;opacity:1;stroke:none;"/>
          </g>
        </defs>
        <use xlink:href="#52"/>
        <defs>
          <title>Shape 297</title>
          <g id="54">
            <defs>
              <path id="55" d="M3562.48,3572.11 C3550.43,3529.04,3538.38,3485.97,3526.32,3442.89 C3526.32,3442.89,3463.07,3263.96,3463.07,3263.96 C3443.94,3201.6,3424.81,3139.24,3405.68,3076.88 C3391.52,3031.09,3377.36,2985.3,3363.2,2939.51 C3363.2,2939.51,3319.37,2786.32,3319.37,2786.32 C3302.96,2733.14,3286.54,2679.96,3270.12,2626.78 C3253.55,2594.4,3236.98,2562.02,3220.41,2529.63 C3190.14,2543.19,3159.87,2556.74,3129.6,2570.3 C3084.71,2592.73,3039.82,2615.16,2994.93,2637.59 C2926.55,2666.06,2858.18,2694.54,2789.8,2723.01 C2727.75,2740.63,2665.69,2758.25,2603.64,2775.87 C2541.59,2793.49,2741.91,2831,2779.86,2875.06 C2817.82,2919.11,2889.66,2944.86,2914.75,2986.9 C2939.83,3028.93,2973.71,3054,2986.59,3086.53 C2999.48,3119.06,3019.15,3133.86,3033.36,3176 C3092.33,3294.62,3144.52,3433.81,3147.23,3492.55 C3147.23,3492.55,3180.67,3377.76,3181.58,3244.01 C3181.58,3244.01,3342.88,3738.81,3107.48,3985.98 C2878.82,4227.27,2992.69,4219.59,3064.54,4186.15 C3136.39,4152.71,3267.43,4070.47,3267.43,4070.47 C3312.01,4035.38,3356.59,4000.28,3401.17,3965.19 C3439.73,3929.34,3478.3,3893.5,3516.86,3857.65 C3546.83,3820.44,3576.81,3783.24,3606.79,3746.03 C3607.84,3739.25,3608.88,3732.47,3609.93,3725.69 z"/>
            </defs>
            <use xlink:href="#55" style="fill:#383838;fill-opacity:1;fill-rule:evenodd;opacity:1;stroke:none;"/>
          </g>
        </defs>
        <use xlink:href="#54"/>
        <defs>
          <title>Shape 298</title>
          <g id="56">
            <defs>
              <path id="57" d="M2060.02,3779.98 C2000.32,3310.94,1616.73,3122.51,1464.9,3128.61 C1524.55,3502.38,1584.19,3876.16,1643.84,4249.94 C1647.31,4254.15,1650.77,4258.37,1654.24,4262.59 C1729.55,4288.79,1804.86,4315,1880.18,4341.2 C2364.57,4209.25,2160.33,3626.35,2105.2,3556.75 C2115.14,3690.49,2060.02,3779.98,2060.02,3779.98 z"/>
            </defs>
            <use xlink:href="#57" style="fill:#a7a5a5;fill-opacity:1;fill-rule:evenodd;opacity:1;stroke:none;"/>
          </g>
        </defs>
        <use xlink:href="#56"/>
        <defs>
          <title>Shape 299</title>
          <g id="58">
            <defs>
              <path id="59" d="M3735.21,1943.48 C3725.15,1927.32,3715.1,1911.17,3705.04,1895.02 C3688.55,1879.31,3672.05,1863.61,3655.56,1847.9 C3632.29,1837.74,3609.02,1827.57,3585.75,1817.41 C3545.88,1810.4,3506,1803.4,3466.12,1796.39 C3462.39,1800.57,3458.67,1804.75,3454.94,1808.93 C3655.56,1849.6,3701.61,2046.15,3553.89,2272.54 C3574.56,2263.62,3595.24,2254.69,3615.91,2245.77 C3629.24,2230.63,3642.57,2215.5,3655.9,2200.36 C3669.23,2185.22,3706.06,2137.32,3706.4,2136.33 C3706.73,2135.33,3732.84,2068.54,3732.84,2068.54 C3734.75,2049.11,3736.67,2029.68,3738.59,2010.24 z"/>
            </defs>
            <use xlink:href="#59" style="fill:#a7a5a5;fill-opacity:1;fill-rule:evenodd;opacity:1;stroke:none;"/>
          </g>
        </defs>
        <use xlink:href="#58"/>
        <defs>
          <title>Shape 300</title>
          <g id="60">
            <defs>
              <path id="61" d="M853.535,2928.67 C701.71,2805.75,785.757,2650.75,978.259,2474.53 C978.259,2474.53,883.837,2512.04,760.914,2608.3 C637.991,2704.55,647.943,2787.23,647.943,2787.23 C651.105,2822.32,654.267,2857.42,657.429,2892.51 C660.591,2927.6,701.254,2970.23,708.493,2977.47 C715.732,2984.71,808.342,3025.22,808.342,3025.22 C843.137,3030.83,877.933,3036.44,912.728,3042.04 C947.523,3047.65,1063.19,3066.9,1065,3066.9 C1098.14,3066.9,1131.27,3066.9,1164.41,3066.9 C1237.92,3051.98,1311.42,3037.07,1384.93,3022.15 C1458.43,3007.23,1005.36,3051.58,853.535,2928.67 z"/>
            </defs>
            <use xlink:href="#61" style="fill:#a7a5a5;fill-opacity:1;fill-rule:evenodd;opacity:1;stroke:none;"/>
          </g>
        </defs>
        <use xlink:href="#60"/>
        <defs>
          <title>Shape 301</title>
          <g id="62">
            <defs>
              <path id="63" d="M866.711,2248.1 C621.722,2013.59,595.382,1766.65,678.658,1656.26 C761.934,1545.87,878.845,1537.76,947.523,1559.46 C937.205,1545.9,926.888,1532.35,916.57,1518.79 C895.226,1513.59,873.881,1508.39,852.536,1503.2 C830.733,1503.2,808.928,1503.2,787.124,1503.2 C765.436,1510.07,743.748,1516.94,722.059,1523.82 C696.978,1544.94,671.896,1566.06,646.815,1587.19 C632.922,1611.82,619.03,1636.45,605.138,1661.08 C595.537,1687.62,585.935,1714.17,576.334,1740.72 C576.334,1761.62,576.334,1782.52,576.334,1803.42 C580.06,1836.4,583.786,1869.38,587.513,1902.36 C597.679,1930.61,607.844,1958.85,618.01,1987.09 C635.52,2022.79,653.03,2058.49,670.54,2094.19 C695.846,2134.52,721.152,2174.85,746.457,2215.17 C767.581,2238.33,788.705,2261.48,809.829,2284.63 C847.898,2316.72,885.968,2348.8,924.037,2380.89 C924.037,2380.89,1046.72,2462.33,1046.72,2462.33 C1081.96,2482.55,1117.21,2502.77,1152.45,2522.99 C1191.89,2542.76,1231.32,2562.53,1270.75,2582.3 C1326.56,2601.28,1382.36,2620.26,1438.16,2639.24 C1438.16,2639.24,1626.28,2662.96,1626.28,2662.96 C1388.21,2589.88,1111.71,2482.66,866.711,2248.1 z"/>
            </defs>
            <use xlink:href="#63" style="fill:#a7a5a5;fill-opacity:1;fill-rule:evenodd;opacity:1;stroke:none;"/>
          </g>
        </defs>
        <use xlink:href="#62"/>
        <defs>
          <title>Shape 302</title>
          <g id="64">
            <defs>
              <path id="65" d="M1019.36,1389.14 C1022.67,1381.76,1025.99,1374.38,1029.3,1367 C1035.48,1392.3,1041.65,1417.61,1047.83,1442.92 C1059.28,1465.21,1070.73,1487.5,1082.18,1509.79 C1093.63,1532.09,1127.36,1564.93,1128.72,1567.63 C1130.07,1570.33,1208.25,1619.15,1208.25,1619.15 C1208.85,1601.98,1209.45,1584.8,1210.05,1567.63 C1175.48,1549.33,1074.49,1441.56,1090.76,1288.38 C1090.76,1288.38,1060.94,1288.83,1036.5,1304.19 C1036.5,1304.19,1050.76,1097.23,1301.75,1029.91 C1297.77,1024.68,1293.79,1019.44,1289.81,1014.21 C1285.83,1008.97,1394.81,997.384,1484.73,1057.48 C1490,1054.01,1495.27,1050.55,1500.55,1047.08 C1497.54,1038.34,1494.53,1029.61,1491.52,1020.87 C1473.14,1008.97,1454.76,997.072,1436.38,985.174 C1410.93,977.193,1385.47,969.212,1360.02,961.232 C1339.54,959.271,1319.05,957.31,1298.57,955.349 C1279.89,957.458,1261.21,959.568,1242.53,961.677 C1237.71,965.895,1232.9,970.113,1228.08,974.331 C1229.89,980.959,1231.7,987.587,1233.5,994.214 C1233.5,994.214,1202.37,1024.95,1202.37,1024.95 C1180.68,1031.28,1158.99,1037.61,1137.3,1043.93 C1111.69,1064.87,1086.09,1085.8,1060.48,1106.74 C1047.68,1127.08,1034.88,1147.41,1022.07,1167.75 C1011.98,1189.45,1001.89,1211.16,991.803,1232.86 C987.133,1259.52,982.463,1286.18,977.792,1312.84 C981.558,1333.46,985.324,1354.08,989.09,1374.7 z"/>
            </defs>
            <use xlink:href="#65" style="fill:#a7a5a5;fill-opacity:1;fill-rule:evenodd;opacity:1;stroke:none;"/>
          </g>
        </defs>
        <use xlink:href="#64"/>
        <defs>
          <title>Shape 303</title>
          <g id="66">
            <defs>
              <path id="67" d="M1473.03,1552.95 C1471,1570.2,1468.97,1587.44,1466.93,1604.69 C1466.93,1614.93,1466.93,1625.17,1466.93,1635.41 C1525.23,1519.51,1588.26,1402.25,1788.89,1408.58 C1781.06,1397.36,1773.23,1386.15,1765.4,1374.93 C1753.2,1372.82,1741,1370.71,1728.8,1368.61 C1718.33,1366.95,1707.86,1365.29,1697.39,1363.63 C1678.11,1367.32,1658.83,1371.01,1639.55,1374.7 C1627.65,1381.11,1615.76,1387.51,1603.86,1393.91 C1590.83,1405.13,1577.81,1416.34,1564.79,1427.56 C1551.68,1441.26,1538.58,1454.97,1525.48,1468.67 C1517.19,1479.44,1508.91,1490.21,1500.62,1500.98 z"/>
            </defs>
            <use xlink:href="#67" style="fill:#a7a5a5;fill-opacity:1;fill-rule:evenodd;opacity:1;stroke:none;"/>
          </g>
        </defs>
        <use xlink:href="#66"/>
        <defs>
          <title>Shape 304</title>
          <g id="68">
            <defs>
              <path id="69" d="M2221.79,1159.15 C2221.79,1159.15,2185.41,1143.66,2127.11,1175.53 C2068.81,1207.39,2044.09,1269.4,2044.09,1269.4 C2037.99,1283.61,2031.89,1297.82,2025.78,1312.03 C2029.4,1329.33,2033.02,1346.64,2036.64,1363.95 C2040.26,1381.26,2060.71,1407.67,2062.06,1409.03 C2063.4,1410.4,2096.63,1435.08,2096.63,1435.08 C2114.93,1444.46,2133.23,1453.84,2151.53,1463.21 C2168.93,1465.02,2186.32,1466.83,2203.72,1468.64 C2059.12,1390,2060.02,1232.13,2221.79,1159.15 z"/>
            </defs>
            <use xlink:href="#69" style="fill:#a7a5a5;fill-opacity:1;fill-rule:evenodd;opacity:1;stroke:none;"/>
          </g>
        </defs>
        <use xlink:href="#68"/>
        <defs>
          <title>Shape 305</title>
          <g id="70">
            <defs>
              <path id="71" d="M2689.36,670.899 C2689.36,670.899,2661.23,638.708,2660.21,637.688 C2659.19,636.668,2608.02,593.972,2608.02,593.972 C2618.19,587.756,2628.36,581.541,2638.52,575.326 C2648.69,569.111,2613.44,553.62,2612.42,552.621 C2611.4,551.623,2568.7,527.55,2568.7,527.55 C2568.7,527.55,2497.88,512.681,2497.88,512.681 C2497.88,512.681,2391.43,512.681,2391.43,512.681 C2373.13,516.183,2354.82,519.685,2336.52,523.187 C2318.34,526.805,2300.15,530.423,2281.96,534.04 C2263.78,537.658,2253.5,530.307,2253.5,527.605 C2253.5,524.902,2251.12,505.236,2251.12,505.236 C2251.12,505.236,2228.11,511.596,2228.11,511.596 C2228.11,511.596,2189.47,531.251,2167.1,569.552 C2144.74,607.853,2122.71,642.073,2122.71,642.073 C2113,663.649,2103.28,685.225,2093.56,706.801 C2087.24,735.609,2080.92,764.417,2074.59,793.225 C2093.91,791.756,2113.22,790.287,2132.54,788.819 C2151.85,787.35,2162.36,665.462,2219.3,605.812 C2221.78,619.14,2224.27,632.468,2226.75,645.796 C2229.24,659.123,2367.06,513.626,2537.15,569.889 C2525.63,583.784,2514.11,597.68,2502.59,611.576 C2491.06,625.471,2678.17,658.483,2738.73,803.98 C2739.22,788.316,2739.71,772.651,2740.2,756.986 C2731.5,739.701,2722.8,722.415,2714.1,705.13 z"/>
            </defs>
            <use xlink:href="#71" style="fill:#a7a5a5;fill-opacity:1;fill-rule:evenodd;opacity:1;stroke:none;"/>
          </g>
        </defs>
        <use xlink:href="#70"/>
        <defs>
          <title>Shape 306</title>
          <g id="72">
            <defs>
              <path id="73" d="M3079.43,1771.88 C3056.39,1776.85,3060.82,1885.29,2987.7,1953.53 C2953.74,1985.23,2945.55,1983.52,2934.04,2008.2 C2914.79,2049.51,2957.42,2099.71,3036.72,2008.2 C3116.03,1916.7,3102.47,1766.91,3079.43,1771.88 z"/>
            </defs>
            <use xlink:href="#73" style="fill:#a7a5a5;fill-opacity:1;fill-rule:evenodd;opacity:1;stroke:none;"/>
          </g>
        </defs>
        <use xlink:href="#72"/>
        <defs>
          <title>Shape 307</title>
          <g id="74">
            <defs>
              <path id="75" d="M2866.94,2048.53 C2850.21,2048.53,2835.13,2058.61,2828.73,2074.06 C2822.33,2089.52,2825.87,2107.3,2837.7,2119.13 C2849.53,2130.95,2867.32,2134.49,2882.77,2128.08 C2898.22,2121.68,2908.29,2106.6,2908.29,2089.87 C2908.29,2078.91,2903.93,2068.39,2896.18,2060.64 C2888.42,2052.89,2877.9,2048.53,2866.94,2048.53 z"/>
            </defs>
            <use xlink:href="#75" style="fill:#a7a5a5;fill-opacity:1;fill-rule:evenodd;opacity:1;stroke:none;"/>
          </g>
        </defs>
        <use xlink:href="#74"/>
        <defs>
          <title>Shape 308</title>
          <g id="76">
            <defs>
              <path id="77" d="M2675.25,1070.73 C2661.14,1051.78,2647.03,1032.84,2632.92,1013.89 C2627.49,1006.52,2622.4,999.685,2617.85,993.509 C2575.12,941.685,2431.86,847.317,2304.65,821.4 C2268.97,814.605,2233.29,807.811,2197.61,801.017 C2197.61,801.017,2084.41,801.017,2084.41,801.017 C2084.41,801.017,1928.46,813.314,1926.51,813.911 C1924.56,814.508,1769.27,864.129,1767.21,865.409 C1765.15,866.69,1639.78,941.978,1639.78,941.978 C1658.98,978.597,1678.17,1015.22,1697.37,1051.83 C1697.37,1051.83,1820.55,1122.56,1820.55,1122.56 C1820.55,1122.56,1894.62,1254.01,1896.46,1259.42 C1898.29,1264.84,1941.58,1425.78,1941.58,1432.94 C1941.58,1440.11,1912.73,1579.34,1903.59,1611.34 C1894.45,1643.33,1856.63,1920.09,1822.8,1990.58 C1788.97,2061.07,1641.04,2187.19,1570.55,2218.32 C1500.06,2249.45,1515.02,2342.6,1515.89,2343.9 C1516.76,2345.21,1587.35,2382.41,1587.35,2382.41 C1613.09,2391.59,1638.83,2400.77,1664.57,2409.96 C1685.65,2410.24,1706.72,2410.53,1727.8,2410.81 C1848.72,2427.73,2056.06,2417.98,2232.47,2377.08 C2273.32,2351.56,2314.17,2326.04,2355.01,2300.52 C2373.67,2253.71,2392.32,2206.9,2410.97,2160.08 C2420.95,2106.73,2430.93,2053.37,2440.91,2000.02 C2462.13,1943.56,2483.35,1887.09,2504.57,1830.62 C2525.79,1774.16,2583.19,1711.33,2587.32,1700.48 C2591.44,1689.64,2656.4,1524.25,2656.4,1524.25 C2656.4,1524.25,2682.18,1235.5,2682.18,1235.5 z M2010.68,1782.5 C2009.37,1781.85,1998.85,1776.33,1997.34,1775.46 C1995.83,1774.59,1982.36,1768.08,1979.33,1762.98 C1976.31,1757.88,1966.43,1746.28,1965.44,1745.2 C1964.45,1744.11,1947.77,1730.23,1947.77,1730.23 C1947.77,1730.23,1950.16,1712.66,1950.59,1711.68 C1951.03,1710.71,1965.44,1695.09,1965.44,1695.09 C1966.24,1691.91,1967.04,1688.73,1967.84,1685.55 C1968.81,1685.55,1996.46,1678.83,1997.34,1678.17 C1998.22,1677.51,2049.43,1651.82,2049.43,1651.82 C2061.8,1649.98,2074.16,1648.14,2086.52,1646.29 C2094.55,1645.5,2102.58,1644.7,2110.6,1643.91 C2114.33,1644.92,2118.05,1645.93,2121.77,1646.95 C2123.47,1648.57,2125.16,1650.19,2126.86,1651.82 C2131.02,1655.4,2135.17,1658.97,2139.33,1662.55 C2138.74,1665.12,2138.74,1667.8,2139.33,1670.37 C2140.42,1674.71,2139.33,1685.56,2139.33,1685.56 C2139.67,1689.31,2139.81,1693.07,2139.77,1696.84 C2139.66,1700.53,2131.96,1718.54,2131.19,1719.82 C2130.42,1721.11,2117.65,1738.16,2117,1740.54 C2116.34,1742.93,2103.77,1755.4,2101.05,1758.11 C2098.34,1760.83,2084.14,1771.02,2082.72,1772.32 C2081.3,1773.62,2059.41,1781.54,2059.41,1781.54 C2059.41,1781.54,2034.69,1784.57,2033.6,1784.57 C2032.51,1784.57,2011.87,1783.01,2010.68,1782.5 z M2266.4,2048.85 C2259.24,2070.98,2231.8,2085.51,2231.15,2086.48 C2230.5,2087.44,2187.44,2105.89,2186.47,2106.22 C2185.49,2106.54,2149.81,2106.22,2149.15,2106.22 C2148.49,2106.22,2094.6,2085.83,2094.6,2085.83 C2094.6,2085.83,2062.73,2059.7,2062.05,2058.4 C2061.36,2057.1,2036.24,1999.72,2036.24,1999.72 C2040.65,1992.96,2045.06,1986.2,2049.47,1979.44 C2073.07,1965.09,2096.68,1950.74,2120.28,1936.39 C2126.39,1930.86,2132.5,1925.33,2138.6,1919.8 C2179.17,1917.31,2219.73,1914.81,2260.29,1912.32 C2300.85,1909.82,2273.85,1946.25,2277.52,1969.58 C2281.2,1992.9,2273.56,2026.81,2266.4,2048.82 z M2612.23,1456.51 C2608.98,1480.9,2595.96,1500.32,2575.15,1518 C2554.34,1535.68,2513.66,1561.81,2473.97,1568.53 C2434.28,1575.25,2375.38,1560.84,2323,1531.12 C2270.51,1501.19,2214.55,1480.47,2214.12,1478.62 C2214.12,1478.62,2127.36,1457.37,2105.24,1447.94 C2083.12,1438.51,2057.3,1402.28,2040.12,1376.04 C2022.94,1349.8,2024.73,1328.64,2031.56,1297.41 C2038.39,1266.17,2084.37,1209.36,2084.37,1209.36 C2102.3,1194.57,2120.23,1179.79,2138.16,1165 C2160.43,1160.66,2182.7,1156.32,2204.97,1151.98 C2229.08,1150.02,2253.19,1148.07,2277.31,1146.12 C2292.52,1148.65,2307.74,1151.18,2322.96,1153.71 C2347.5,1159.46,2372.05,1165.2,2396.59,1170.95 C2421.14,1176.69,2463.07,1204.35,2464.37,1204.79 C2465.68,1205.22,2524.89,1248.6,2524.89,1248.6 C2524.89,1248.6,2556.12,1282.11,2556.99,1284.28 C2557.86,1286.45,2596.79,1343.06,2595.49,1344.47 C2594.19,1345.88,2613.49,1402.27,2613.94,1404.55 C2614.39,1406.83,2615.37,1432.07,2612.23,1456.47 z"/>
            </defs>
            <use xlink:href="#77" style="fill:#c6cacd;fill-opacity:1;fill-rule:evenodd;opacity:1;stroke:none;"/>
          </g>
        </defs>
        <use xlink:href="#76"/>
        <defs>
          <title>Shape 309</title>
          <g id="78">
            <defs>
              <path id="79" d="M1145.66,442.82 C1142.61,447.454,1139.56,452.088,1136.51,456.723 C1103.3,656.16,1070.09,855.598,1036.88,1055.04 C1047.73,1056.79,1058.58,1058.54,1069.44,1060.3 C1084.46,1061.09,1099.48,1061.88,1114.51,1062.68 C1139.43,1052.18,1164.35,1041.69,1189.27,1031.2 C1214.18,1020.71,1196.07,884.467,1230.42,730.83 C1264.77,577.193,1281.93,467.847,1281.93,467.847 C1281.93,467.847,1213.45,426.551,1145.66,442.82 z"/>
            </defs>
            <use xlink:href="#79" style="fill:#c6cacd;fill-opacity:1;fill-rule:evenodd;opacity:1;stroke:none;"/>
          </g>
        </defs>
        <use xlink:href="#78"/>
        <defs>
          <title>Shape 310</title>
          <g id="80">
            <defs>
              <path id="81" d="M1009.74,1400.24 C1009.74,1400.24,985.932,1425.75,985.932,1425.75 C985.932,1425.75,956.553,1535.55,956.553,1535.55 C956.553,1535.55,1055.97,1606.04,1055.97,1606.04 C1055.97,1606.04,1080.37,1527.88,1080.37,1527.88 C1080.37,1527.88,1028.4,1397.28,1028.4,1397.28 C1028.4,1397.28,1009.74,1400.24,1009.74,1400.24 z"/>
            </defs>
            <use xlink:href="#81" style="fill:#c6cacd;fill-opacity:1;fill-rule:evenodd;opacity:1;stroke:none;"/>
          </g>
        </defs>
        <use xlink:href="#80"/>
        <defs>
          <title>Shape 311</title>
          <g id="82">
            <defs>
              <path id="83" d="M854.892,2155.88 C854.892,2155.88,824.72,2386.41,824.72,2386.41 C824.72,2386.41,847.099,2409.47,847.099,2409.47 C847.099,2409.47,900.974,2409.47,900.974,2409.47 C900.974,2409.47,987.278,1988.78,987.278,1988.78 C987.278,1988.78,892.845,1982,892.845,1982 C892.845,1982,854.892,2155.88,854.892,2155.88 z"/>
            </defs>
            <use xlink:href="#83" style="fill:#c6cacd;fill-opacity:1;fill-rule:evenodd;opacity:1;stroke:none;"/>
          </g>
        </defs>
        <use xlink:href="#82"/>
        <defs>
          <title>Shape 312</title>
          <g id="84">
            <defs>
              <path id="85" d="M2950.2,1456.47 C2934.83,1384.18,2898.69,1351.64,2898.69,1351.64 C2898.69,1351.64,2849.85,1298.32,2811.93,1255.84 C2774.01,1213.36,2745.06,1164.58,2745.06,1164.58 C2745.06,1164.58,2701.2,1105.71,2661.25,1051.99 C2659.08,1054.57,2656.91,1057.15,2654.74,1059.74 C2464.05,891.641,2258.9,896.156,2258.9,896.156 C2384.52,978.402,2370.06,1086.85,2370.06,1086.85 C2577.03,1188.06,2600.5,1320.57,2600.5,1320.57 C2600.5,1320.57,2584.69,1320.92,2593.72,1337.63 C2602.75,1354.34,2602.76,1392.31,2612.7,1426.2 C2622.64,1460.1,2600.5,1460.09,2593.26,1493.98 C2586.03,1527.88,2570.68,1514.76,2550.35,1536.92 C2530.02,1559.07,2491.16,1556.33,2448.22,1568.54 C2405.29,1580.75,2310.39,1533.29,2310.39,1533.29 C2355.57,1578.48,2364.65,1707.71,2305.08,1745.89 C2305.08,1745.89,2306.1,1757.08,2308.81,1773.34 C2311.53,1789.6,2294.24,1827.91,2282.77,1861.12 C2271.29,1894.33,2270.22,1895.69,2270.22,1895.69 C2270.22,1895.69,2273.83,1953.98,2281.52,1991.93 C2289.2,2029.89,2273.39,2061.98,2273.39,2061.98 C2373.7,2218.33,2232.67,2377.1,2232.67,2377.1 C2339.35,2352.42,2434.77,2316.33,2493,2268.04 C2492.09,2262.61,2491.19,2257.19,2490.28,2251.76 C2515.89,2181.27,2541.5,2110.78,2567.11,2040.29 C2587.01,2028.24,2606.9,2016.18,2626.8,2004.13 C2643.37,1997.51,2659.93,1990.89,2676.5,1984.26 C2701.8,1975.53,2727.11,1966.79,2752.41,1958.05 C2773.14,1949.79,2792.37,1938.19,2809.35,1923.71 C2836.48,1900.22,2844.59,1885.73,2867.2,1841.47 C2889.8,1797.21,2913.29,1767.36,2928.65,1715.85 C2944.01,1664.34,2944.93,1644.45,2950.35,1594.74 C2955.78,1545.03,2965.56,1528.77,2950.2,1456.47 z"/>
            </defs>
            <use xlink:href="#85" style="fill:#a1a5a8;fill-opacity:1;fill-rule:evenodd;opacity:1;stroke:none;"/>
          </g>
        </defs>
        <use xlink:href="#84"/>
        <defs>
          <title>Shape 313</title>
          <g id="86">
            <defs>
              <path id="87" d="M1127.36,1046.18 C1147.39,1037.37,1167.42,1028.55,1187.45,1019.74 C1189.19,997.072,1190.92,974.404,1192.65,951.735 C1193.41,943.074,1194.16,934.414,1194.91,925.753 C1195.66,917.092,1208.02,861.372,1208.25,860.46 C1208.48,859.549,1230.85,761.696,1230.85,761.696 C1233.4,738.876,1235.96,716.055,1238.52,693.235 C1245.52,668.081,1252.53,642.927,1259.53,617.773 C1262.92,591.414,1266.31,565.055,1269.7,538.696 C1272.49,519.342,1275.28,499.987,1278.07,480.632 C1279.04,471.671,1280.02,462.71,1281,453.749 C1260.74,449.306,1240.48,444.864,1220.22,440.421 C1246.66,511.596,1140.92,937.735,1127.36,1046.18 z"/>
            </defs>
            <use xlink:href="#87" style="fill:#a1a5a8;fill-opacity:1;fill-rule:evenodd;opacity:1;stroke:none;"/>
          </g>
        </defs>
        <use xlink:href="#86"/>
        <defs>
          <title>Shape 314</title>
          <g id="88">
            <defs>
              <path id="89" d="M1022.97,1584.36 C1022.97,1584.36,1050.1,1607.41,1050.1,1607.41 C1050.1,1607.41,1080.37,1529.68,1080.37,1529.68 C1080.37,1529.68,1046.93,1493.98,1046.93,1493.98 C1046.93,1493.98,1022.97,1584.36,1022.97,1584.36 z"/>
            </defs>
            <use xlink:href="#89" style="fill:#a1a5a8;fill-opacity:1;fill-rule:evenodd;opacity:1;stroke:none;"/>
          </g>
        </defs>
        <use xlink:href="#88"/>
        <defs>
          <title>Shape 315</title>
          <g id="90">
            <defs>
              <path id="91" d="M945.027,2122.07 C945.027,2122.07,985.943,1992.85,985.943,1992.85 C960.109,1991.4,934.275,1989.95,908.441,1988.51 C930.798,2008.25,948.424,2047.51,945.027,2122.07 z"/>
            </defs>
            <use xlink:href="#91" style="fill:#a1a5a8;fill-opacity:1;fill-rule:evenodd;opacity:1;stroke:none;"/>
          </g>
        </defs>
        <use xlink:href="#90"/>
        <defs>
          <title>Shape 316</title>
          <g id="92">
            <defs>
              <path id="93" d="M1984.75,1686.93 C2007.81,1670.88,2030.87,1654.82,2053.94,1638.77 C2198.29,1555.38,2147.21,1504.63,2102.53,1461.03 C1985.94,1280.25,2053.19,1274.82,2026.56,1149.24 C1974.07,885.281,1639.73,942,1639.73,942 C1594.83,986.823,1549.93,1031.65,1505.03,1076.47 C1422.83,1149.19,1289.33,1343.25,1238.46,1478.82 C1235.75,1501.92,1233.05,1525.02,1230.34,1548.12 C1233.04,1585.57,1235.75,1623.02,1238.46,1660.47 C1242.77,1682.63,1247.07,1704.79,1251.37,1726.94 C1255.67,1749.1,1283.15,1826.5,1283.93,1831.28 C1284.71,1836.05,1304.86,1884.85,1304.86,1884.85 C1309.63,1914.02,1314.4,1943.19,1319.17,1972.37 C1325.03,2012.78,1330.88,2053.19,1336.74,2093.61 C1342.6,2134.02,1355.72,2133.62,1401.86,2225.16 C1448,2316.69,1535.46,2333.6,1535.46,2333.6 C1803.76,2428.39,2121.74,2311.38,2076.3,2082.11 C2076.3,2082.11,2069.46,2066.5,2052.55,2027.13 C2035.64,1987.77,2046.47,1967.44,2046.47,1967.44 C2146.14,1862.46,2044.41,1798.69,2044.41,1798.69 C2044.41,1798.69,2048.21,1791.97,2024.79,1787.2 C2001.37,1782.44,1967.2,1755.97,1950.61,1735.36 C1934.01,1714.74,1984.75,1686.93,1984.75,1686.93 z M1846.81,1539.54 C1846.81,1541.17,1835.3,1594.43,1835.3,1594.43 C1829.56,1610.71,1823.81,1626.99,1818.07,1643.27 C1811.38,1664.95,1804.7,1686.64,1798.01,1708.33 C1795.08,1725.29,1792.15,1742.24,1789.22,1759.2 C1784.7,1780.18,1780.18,1801.16,1775.66,1822.15 C1763.34,1845.97,1751.01,1869.79,1738.69,1893.62 C1721.3,1907.17,1703.91,1920.73,1686.53,1934.28 C1673.98,1938.12,1661.43,1941.95,1648.89,1945.79 C1647.91,1946.21,1601.5,1945.79,1601.5,1945.79 C1601.5,1945.79,1566.58,1936.67,1564.84,1935.69 C1563.1,1934.72,1531.34,1918.01,1531.34,1918.01 C1518.58,1904.71,1505.82,1891.41,1493.06,1878.11 C1484.23,1861.95,1475.41,1845.79,1466.59,1829.64 C1461.74,1817.63,1456.9,1805.63,1452.05,1793.63 C1447.21,1781.62,1452.38,1736.04,1452.05,1731.7 C1451.73,1727.36,1447.6,1657.2,1447.6,1656.33 C1447.6,1655.46,1463.88,1593.75,1464.52,1592.03 C1465.16,1590.3,1478.84,1536.49,1478.84,1535.41 C1478.84,1534.32,1516.03,1466.34,1517.45,1464.59 C1518.88,1462.84,1569.18,1418.51,1570.63,1417.53 C1572.09,1416.55,1645.24,1370.03,1645.24,1370.03 C1645.24,1370.03,1675.06,1365.59,1676.8,1365.25 C1678.54,1364.91,1722.46,1365.25,1722.46,1365.25 C1739.41,1369.77,1756.37,1374.29,1773.32,1378.81 C1784.42,1387.05,1795.52,1395.3,1806.62,1403.54 C1816.99,1418.37,1827.37,1433.21,1837.74,1448.04 C1841.36,1464.32,1844.98,1480.6,1848.6,1496.88 C1852.21,1513.16,1846.81,1537.81,1846.81,1539.54 z"/>
            </defs>
            <use xlink:href="#93" style="fill:#f6fbfd;fill-opacity:1;fill-rule:evenodd;opacity:1;stroke:none;"/>
          </g>
        </defs>
        <use xlink:href="#92"/>
        <defs>
          <title>Shape 317</title>
          <g id="94">
            <defs>
              <path id="95" d="M1130.97,451.524 C1120.12,533.462,1109.27,615.399,1098.41,697.337 C1076.42,825.101,1054.43,952.864,1032.44,1080.63 C1010.45,1208.39,1049.38,1103.34,1050.4,1103.68 C1051.42,1104.02,1072.77,1105.71,1072.77,1105.71 C1085.98,1089.79,1099.2,1073.87,1112.41,1057.96 C1086.46,1023.79,1127.33,903.417,1144.97,794.972 C1162.62,686.527,1210.04,489.282,1178.86,439.802 z"/>
            </defs>
            <use xlink:href="#95" style="fill:#f6fbfd;fill-opacity:1;fill-rule:evenodd;opacity:1;stroke:none;"/>
          </g>
        </defs>
        <use xlink:href="#94"/>
        <defs>
          <title>Shape 318</title>
          <g id="96">
            <defs>
              <path id="97" d="M975.199,1422.93 C975.199,1422.93,962.989,1526.29,962.989,1526.29 C962.989,1526.29,1007.62,1556.33,1007.62,1556.33 C1007.62,1556.33,1033.37,1459.19,1033.37,1459.19 C1033.37,1459.19,1019.59,1393.77,1019.59,1393.77 C1019.59,1393.77,975.199,1422.93,975.199,1422.93 z"/>
            </defs>
            <use xlink:href="#97" style="fill:#f6fbfd;fill-opacity:1;fill-rule:evenodd;opacity:1;stroke:none;"/>
          </g>
        </defs>
        <use xlink:href="#96"/>
        <defs>
          <title>Shape 319</title>
          <g id="98">
            <defs>
              <path id="99" d="M889.231,2005.05 C889.231,2005.05,853.535,2161.84,853.535,2161.84 C848.716,2201.3,843.897,2240.77,839.078,2280.23 C834.26,2319.69,814.681,2321.35,836.365,2357.05 C858.05,2392.74,886.073,2320.68,895.559,2256.29 C905.044,2191.89,917.699,2078.29,899.628,2003.23 z"/>
            </defs>
            <use xlink:href="#99" style="fill:#f6fbfd;fill-opacity:1;fill-rule:evenodd;opacity:1;stroke:none;"/>
          </g>
        </defs>
        <use xlink:href="#98"/>
        <defs>
          <title>Shape 320</title>
          <g id="100">
            <defs>
              <path id="101" d="M1680.67,3194.57 C1593.25,3195,1522.44,3188.72,1475.27,3176.24 C1478.38,3201.26,1481.48,3226.28,1484.59,3251.29 C1484.7,3252.05,1484.81,3252.81,1484.92,3253.57 C1500.32,3350.13,1515.72,3446.69,1531.12,3543.24 C1688.68,3558.86,1844.96,3558.52,1996.25,3545.84 C1920.4,3373.29,1796.06,3259.1,1680.67,3194.57 z"/>
            </defs>
            <use xlink:href="#101" style="fill:#df6064;fill-opacity:1;fill-rule:evenodd;opacity:1;stroke:none;"/>
          </g>
        </defs>
        <use xlink:href="#100"/>
        <defs>
          <title>Shape 321</title>
          <g id="102">
            <defs>
              <path id="103" d="M2147.75,1948.61 C2147.75,1948.61,2118.69,1989.49,2068.58,2013.14 C2124.43,2142.09,2297.19,2086.23,2246.45,1934.29 C2201.98,1963.14,2147.75,1948.61,2147.75,1948.61 z"/>
            </defs>
            <use xlink:href="#103" style="fill:#aa282a;fill-opacity:1;fill-rule:evenodd;opacity:1;stroke:none;"/>
          </g>
        </defs>
        <use xlink:href="#102"/>
        <defs>
          <title>Shape 322</title>
          <g id="104">
            <defs>
              <path id="105" d="M1142.76,794.636 C1142.11,798.977,1141.35,803.318,1140.48,807.66 C1150.67,809.07,1164.49,814.389,1172.95,819.164 C1178.38,792.27,1183.92,764.453,1189.23,737.005 C1179.91,733.326,1165.99,729.983,1155.46,728.323 C1150.91,752.428,1145.91,775.002,1142.76,794.636 z"/>
            </defs>
            <use xlink:href="#105" style="fill:#aa282a;fill-opacity:1;fill-rule:evenodd;opacity:1;stroke:none;"/>
          </g>
        </defs>
        <use xlink:href="#104"/>
        <defs>
          <title>Shape 323</title>
          <g id="106">
            <defs>
              <path id="107" d="M3033.34,3176.05 C3019.14,3133.97,2999.5,3119.11,2986.6,3086.57 C2973.71,3054.04,2939.86,3029,2914.69,2986.92 C2904.72,2970.22,2887.47,2956.12,2867.85,2942.42 C2717.87,3007.93,2552.59,3059.99,2388.94,3099.47 C2556.93,3162.8,2693.8,3259.43,2786.83,3362.35 C2887.27,3322.98,2979.33,3279.6,3060.99,3234.38 C3052.1,3214.64,3042.78,3195.12,3033.34,3176.05 z"/>
            </defs>
            <use xlink:href="#107" style="fill:#aa282a;fill-opacity:1;fill-rule:evenodd;opacity:1;stroke:none;"/>
          </g>
        </defs>
        <use xlink:href="#106"/>
        <defs>
          <title>Shape 324</title>
          <g id="108">
            <defs>
              <path id="109" d="M3277.35,2685.48 C3171.94,2786.99,3028.56,2872.45,2867.85,2942.39 C2887.47,2956.06,2904.75,2970.16,2914.69,2986.89 C2939.86,3028.97,2973.69,3054.01,2986.6,3086.54 C2999.52,3119.07,3019.16,3133.94,3033.34,3176.01 C3042.78,3195.11,3052.1,3214.63,3060.99,3234.37 C3192.65,3161.48,3297.09,3083.73,3365.41,3009.98 z"/>
            </defs>
            <use xlink:href="#109" style="fill:#771c1c;fill-opacity:1;fill-rule:evenodd;opacity:1;stroke:none;"/>
          </g>
        </defs>
        <use xlink:href="#108"/>
        <defs>
          <title>Shape 325</title>
          <g id="110">
            <defs>
              <path id="111" d="M1187.44,736.257 C1182.12,763.693,1176.59,791.239,1171.16,818.133 C1183.02,824.847,1193.84,833.256,1203.27,843.095 C1208.9,817.323,1214.54,791.55,1220.18,765.777 C1215.21,751.56,1202.84,742.345,1187.44,736.257 z"/>
            </defs>
            <use xlink:href="#111" style="fill:#771c1c;fill-opacity:1;fill-rule:evenodd;opacity:1;stroke:none;"/>
          </g>
        </defs>
        <use xlink:href="#110"/>
        <defs>
          <title>Shape 326</title>
          <g id="112">
            <defs>
              <path id="113" d="M2208.45,2103.09 C2208.45,2103.09,2244.17,2092.32,2263.36,2060.4 C2282.55,2028.48,2277.83,2026.27,2282.62,1999.11 C2287.42,1971.94,2263.36,1945.17,2263.36,1945.17 C2203.04,1989.91,2172.53,2050.9,2208.45,2103.09 z"/>
            </defs>
            <use xlink:href="#113" style="fill:#771c1c;fill-opacity:1;fill-rule:evenodd;opacity:1;stroke:none;"/>
          </g>
        </defs>
        <use xlink:href="#112"/>
        <defs>
          <title>Shape 327</title>
          <g id="114">
            <defs>
              <path id="115" d="M2388.94,3099.47 C2125.41,3162.9,1866,3193.72,1680.67,3194.57 C1796.06,3259.1,1920.44,3373.29,1996.25,3545.84 C2286.24,3521.66,2558.12,3452.25,2786.83,3362.35 C2693.8,3259.43,2556.93,3162.8,2388.94,3099.47 z"/>
            </defs>
            <use xlink:href="#115" style="fill:#d63d3d;fill-opacity:1;fill-rule:evenodd;opacity:1;stroke:none;"/>
          </g>
        </defs>
        <use xlink:href="#114"/>
        <defs>
          <title>Shape 328</title>
          <g id="116">
            <defs>
              <path id="117" d="M1093.3,726.727 C1093.3,726.727,1087.96,757.854,1087.96,757.854 C1087.96,782.433,1087.96,807.012,1087.96,831.591 C1105.33,810.123,1124.86,805.239,1142.73,807.953 C1143.6,803.611,1144.36,799.27,1145.01,794.929 C1148.15,775.295,1152.38,752.602,1156.95,728.551 C1130.83,724.557,1104.24,725.859,1093.3,726.727 z"/>
            </defs>
            <use xlink:href="#117" style="fill:#d63d3d;fill-opacity:1;fill-rule:evenodd;opacity:1;stroke:none;"/>
          </g>
        </defs>
        <use xlink:href="#116"/>
        <defs>
          <title>Shape 329</title>
          <g id="118">
            <defs>
              <path id="119" d="M2123.72,2093.16 C2128.85,2093.16,2133.98,2093.16,2139.1,2093.16 C2130.51,2045.26,2178.63,1956.69,2230.82,1932.3 C2199.91,1927.85,2169,1923.4,2138.09,1918.96 C2104.31,1947.43,2070.53,1975.89,2036.75,2004.36 C2051.13,2024.92,2065.51,2045.48,2079.9,2066.04 z"/>
            </defs>
            <use xlink:href="#119" style="fill:#d63d3d;fill-opacity:1;fill-rule:evenodd;opacity:1;stroke:none;"/>
          </g>
        </defs>
        <use xlink:href="#118"/>
        <defs>
          <title>Shape 330</title>
          <g id="120">
            <defs>
              <path id="121" d="M3716.33,2181.78 C3856.01,1997.42,3785.51,1707.74,3278.51,1738.97 C3278.51,1738.97,3191.76,1570.98,3001.33,1518.82 C2996.56,1414.93,2936.04,1340.74,2879.1,1291.99 C2822.17,1243.24,2787.46,1168.8,2756.56,1138.65 C2756.56,1138.65,2814.89,1024.56,2804.92,885.313 C2794.95,746.067,2734.21,665.483,2675.23,613.984 C2691.45,612.573,2707.68,611.162,2723.91,609.752 C2652.88,523.208,2540.43,445.869,2299.12,493.384 C2306.78,473.573,2314.45,453.763,2322.11,433.952 C2188.61,451.523,2091.88,560.934,2034.94,770.584 C1912.94,764.724,1648.65,860.481,1521.65,990.187 C1462.55,943.877,1320.15,907.117,1213.66,933.36 C1244.05,777.664,1274.44,621.969,1304.83,466.273 C1274.25,408.686,1164.72,371.492,1109.95,447.725 C1072.17,679.009,1034.4,910.294,996.622,1141.58 C986.947,1154.53,978.039,1168.04,969.944,1182.03 C924.936,1259.9,935.214,1336.36,956.388,1388.09 C950.567,1423.66,944.747,1459.23,938.926,1494.79 C831.566,1448.13,658.588,1455.43,571.828,1650.85 C487.901,1839.77,595.705,2119.57,803.153,2326.48 C799.972,2346.02,796.793,2365.55,793.613,2385.09 C797.292,2424.55,870.67,2471.62,921.137,2427.81 C925.913,2431.39,930.797,2434.86,935.68,2438.34 C935.68,2438.34,749.798,2539.19,645.901,2679.28 C542.004,2819.36,572.696,3045.29,847.401,3082.37 C1122.11,3119.46,1402.33,3091.37,1402.33,3091.37 C1466.14,3485.8,1529.94,3880.23,1593.74,4274.66 C1657.54,4669.09,1798.17,4422.58,2147.91,4437.54 C2497.66,4452.51,3324.61,4316.8,3649.94,3736.6 C3649.94,3736.6,3281.66,2528.11,3281.66,2528.11 C3281.66,2528.11,3576.75,2366.14,3716.33,2181.78 z M3233.3,1858.6 C3241.21,1964.55,3184.27,2104.01,3181.68,2110.31 C3184.61,2106.95,3231.88,2052.18,3254.55,2001.42 C3254.55,2001.42,3237.85,2200.65,3048.06,2357.89 C2858.27,2515.13,2623.05,2465.05,2558.74,2309.86 C2558.74,2309.86,2696.26,2425.02,2877.91,2325.37 C2877.91,2325.37,2675.76,2354.32,2594.86,2244.56 C2515.79,2137.31,2633.26,2013.39,2804.92,1979.75 C2958.59,1949.6,2995.69,1863.16,2995.69,1863.16 C2995.69,1863.16,2923.79,1892.12,2874.76,1899.5 C2874.76,1899.5,2985.27,1752.22,2991.89,1600.18 C3140.78,1667.08,3225.16,1750.15,3233.3,1858.6 z M1157.49,458.969 C1157.49,458.969,1210.95,435.971,1258.42,477.506 C1227.62,635.336,1196.82,793.167,1166.02,950.997 C1155.79,956.2,1146.15,962.491,1137.28,969.762 C1145.5,971.219,1153.45,973.962,1160.82,977.891 C1158.76,988.411,1156.69,998.932,1154.63,1009.45 C1141.95,1015.52,1101.06,1036.78,1056.6,1076.47 z M1037.76,1191.86 C1061.4,1154.23,1096.1,1118.66,1138.83,1090.79 C1154.54,1080.4,1171.09,1071.32,1188.29,1063.65 C1227.04,1046.2,1268.65,1035.99,1311.08,1033.52 C1353.51,1031.06,1288.96,996.624,1269.33,982.449 C1269.33,982.449,1373.44,969.86,1471.48,1046.65 C1471.48,1046.65,1412.59,1097.29,1390.13,1209.76 C1390.13,1209.76,1556.07,1014.54,1741.29,920.521 C1926.51,826.5,2165.52,807.084,2378.39,843.702 C2378.39,843.702,2307.91,767.133,2109.99,768.436 C2109.99,768.436,2136.45,622.027,2229.93,543.406 C2229.93,543.406,2226.57,572.58,2231.34,599.691 C2231.34,599.691,2399.22,479.525,2582.6,571.711 C2582.6,571.711,2546.06,588.414,2531.85,604.672 C2531.85,604.672,2658.51,653.913,2714.58,763.226 C2765.45,862.674,2707.53,1026.87,2696.48,1056.04 C2696.48,1056.04,2644.97,986.519,2566.88,948.023 C2650.38,1055.18,2692.03,1163.62,2756.12,1246.8 C2820.22,1329.98,2932.35,1385.07,2922.48,1545.03 C2912.94,1698.38,2833.98,1866.36,2774.88,1910.94 C2705.15,1920.8,2560.04,1958.01,2492.26,2113.89 C2424.48,2269.78,2520.03,2403.3,2520.03,2403.3 C2520.03,2403.3,2338.7,2469.67,2106.63,2536.7 C1858.38,2535.18,1599.31,2500.88,1532.5,2497.55 C1622.95,2547.32,1785.18,2587.99,1853.39,2603.72 C1786.92,2619.55,1720.01,2633.75,1655.16,2645.25 C1587.7,2648.51,1327.32,2595.14,1136.66,2477.7 C1071.91,2437.79,1004.14,2392.46,939.132,2339.96 C939.132,2339.96,976.38,2149.34,976.38,2149.34 C1078.2,2248.03,1211.71,2289.67,1211.71,2289.67 C1211.71,2289.67,1052.83,2165.29,989.828,2080.81 C995.359,2052.43,1000.89,2024.06,1006.42,1995.68 C1071.69,1976.26,1129.29,1920.3,1135.68,1807.92 C1135.68,1807.92,1198.37,1846.53,1256.27,1853.58 C1272.01,1892.65,1273.09,1931.44,1275.15,1975.13 C1215.29,1974.91,1151.63,1960.38,1147.73,1959.52 C1152.6,1963.86,1232.74,2033.25,1281.77,2049.74 C1289.46,2100.06,1306.6,2157.86,1349,2228.24 C1456.58,2406.23,1676.19,2475.51,1874.98,2418.26 C1874.98,2418.26,1528.27,2421.39,1405.94,2165.89 C1308.77,1962.65,1380.89,1969.92,1311.05,1807.9 C1251.18,1668.76,1250.53,1493.41,1260.51,1424.97 C1260.51,1424.97,1200.32,1464.55,1194.3,1581.78 C1194.3,1581.78,1143.29,1557.91,1103.75,1496.99 C1090.36,1476.25,1079.88,1453.77,1072.63,1430.18 C1062.21,1397.42,1056.47,1358.49,1058.96,1312.72 C1058.96,1312.72,1037.48,1319.56,1013.63,1339.4 C1012,1340.81,1010.26,1342.33,1008.64,1343.85 C992.867,1299.33,1004.9,1243.7,1037.75,1191.86 z M1079,1624.13 C1081.57,1610.94,1084.13,1597.74,1086.7,1584.55 C1113.84,1618.93,1150.47,1651.35,1199.49,1672.4 C1199.49,1672.4,1207.62,1726.73,1223.67,1756.99 C1223.67,1756.99,1163.8,1738.11,1120.42,1706.56 C1120.39,1706.53,1107.49,1669.25,1078.96,1624.13 z M995.819,1448.56 C995.819,1448.56,1003.52,1434.89,1013.18,1425.77 C1013.18,1425.77,1021.75,1475.69,1052.66,1532.6 C1049.8,1547.2,1046.95,1561.81,1044.09,1576.41 C1026.44,1555.31,1006.3,1536.41,984.119,1520.13 z M635.124,1939.12 C541.635,1682.99,721.874,1496.31,872.808,1536.99 C892.274,1542.31,910.946,1550.19,928.333,1560.42 C944.075,1569.62,958.798,1580.45,972.256,1592.74 C994.083,1612.41,1012.77,1635.3,1027.67,1660.62 C1041.05,1683.08,1051.17,1707.32,1057.71,1732.63 C1073.01,1792.32,1065.31,1854.42,1024.63,1902.47 C1010.51,1919.18,992.787,1932.49,972.799,1941.4 C953.058,1950.4,932.447,1954.74,912.825,1956.37 C896.493,1957.6,880.082,1957.27,863.812,1955.39 C835.182,1952.14,815.331,1945.42,815.331,1945.42 C824.339,1960.49,839.729,1973.64,859.254,1983.59 C845.843,2065.54,832.432,2147.49,819.022,2229.45 C742.126,2147.94,676.41,2052.4,635.092,1939.07 z M901.255,2308.28 C895.365,2338.47,889.476,2368.65,883.586,2398.83 C883.586,2398.91,883.586,2398.98,883.586,2399.06 C868.393,2399.08,853.852,2392.89,843.343,2381.92 C844.175,2376.82,845.007,2371.73,845.839,2366.63 C851.008,2335.03,856.178,2303.43,861.348,2271.84 C876.18,2181.06,891.013,2090.29,905.846,1999.52 C923.874,2003.32,942.326,2004.71,960.72,2003.66 z M891.824,3010.05 C709.197,2986.52,641.409,2845.54,727.301,2703.68 C813.193,2561.83,1008.83,2480.93,1008.83,2480.93 C1008.83,2480.93,1024.99,2491.57,1049.62,2506.98 C827.291,2645.7,873.058,2816.38,965.897,2867.02 C919.586,2765.3,963.617,2624.21,1141.72,2561.96 C1173.39,2579.96,1205.6,2596.99,1232.37,2608.38 C1172.19,2774.74,1430.99,2759.24,1786.02,2690.15 C2141.28,2621.06,2569.61,2461,2569.61,2461 C2710.6,2583.11,2978.9,2539.73,3147,2360.79 C3405.98,2077.41,3306.54,1821.69,3306.54,1821.69 C3458.37,1802.72,3769.29,1852.38,3693.37,2069.29 C3617.45,2286.19,3056.29,2630.5,2321.53,2825.75 C1586.77,3021,1074.31,3033.52,891.791,3009.99 z M3568.21,3727.21 C3527.95,3816.52,3253.35,4057.32,3050.84,4152.18 C3055.18,4147.19,3195.5,3987.44,3212.56,3787.24 C3212.56,3787.24,2981.68,4186.64,2638.65,4283.61 C2440.73,4332.45,1986.55,4399.55,1678.88,4238.17 C1622.82,3962.5,1489.09,3146.43,1490.51,3076.88 C1572.83,3078.84,2038.82,2991.14,2484.66,2861.51 C2887.31,2876.15,3069.3,3258.64,3075.07,3270.78 C3019.65,2985.92,2844.18,2841.77,2734.77,2783.16 C2925.3,2718.53,3096.18,2647.17,3210.74,2573.53 z"/>
            </defs>
            <use xlink:href="#121" style="fill:#000000;fill-opacity:1;fill-rule:evenodd;opacity:1;stroke:none;"/>
          </g>
        </defs>
        <use xlink:href="#120"/>
        <defs>
          <title>Shape 331</title>
          <g id="122">
            <defs>
              <path id="123" d="M2012.08,2025.4 C2030.19,2060.85,2114.24,2187.95,2235.6,2124.73 C2346.1,2067.21,2314.98,1919.54,2295.56,1892.32 C2365.51,1820.42,2302.18,1737.57,2302.18,1737.57 C2295.02,1873.14,2185.06,1896.67,2135.6,1866.84 C2135.6,1866.84,2068.15,2017.04,1915.02,1943.19 C1914.97,1943.19,1929.98,2017.04,2012.08,2025.4 z M2147.74,1948.61 C2147.74,1948.61,2202.01,1963.14,2246.44,1934.29 C2297.18,2086.24,2124.42,2142.09,2068.57,2013.14 C2118.69,1989.49,2147.75,1948.61,2147.75,1948.61 z"/>
            </defs>
            <use xlink:href="#123" style="fill:#000000;fill-opacity:1;fill-rule:evenodd;opacity:1;stroke:none;"/>
          </g>
        </defs>
        <use xlink:href="#122"/>
        <defs>
          <title>Shape 332</title>
          <g id="124">
            <defs>
              <path id="125" d="M2067.72,1806.43 C2100.28,1798.74,2138.27,1769.67,2164.78,1708.61 C2191.3,1647.55,2167.49,1602.88,2097.32,1612.75 C2027.14,1622.61,1921.5,1678.69,1923.58,1722.17 C1925.66,1765.65,2002.97,1821.57,2067.72,1806.43 z M1976.4,1717.62 C1999.83,1703.3,2025.64,1688.01,2076.72,1672.93 C2127.79,1657.84,2138.64,1690.29,2104.05,1728.9 C2069.46,1767.5,2029.87,1784.85,1977.6,1743.43 C1958.72,1728.46,1970.87,1720.99,1976.4,1717.62 z"/>
            </defs>
            <use xlink:href="#125" style="fill:#000000;fill-opacity:1;fill-rule:evenodd;opacity:1;stroke:none;"/>
          </g>
        </defs>
        <use xlink:href="#124"/>
        <defs>
          <title>Shape 333</title>
          <g id="126">
            <defs>
              <path id="127" d="M2237.12,1518.83 C2356.4,1559.5,2409,1644.63,2553.45,1566.98 C2648.35,1515.9,2682.18,1382.62,2566.37,1257.14 C2450.56,1131.67,2246.2,1096.76,2144.06,1140.67 C2041.92,1184.58,2013.27,1281.65,2013.27,1281.65 C1971.86,1445.63,2117.82,1478.16,2237.12,1518.83 z M2237.55,1169.08 C2361.6,1158.23,2477.1,1246.84,2498.36,1264.85 C2614.84,1363.86,2613.75,1477.57,2526.99,1527.61 C2440.23,1577.66,2308.59,1497.57,2219.55,1462.33 C2136.9,1429.58,2079,1427.52,2059.58,1352.57 C2040.17,1277.63,2113.59,1179.93,2237.55,1169.08 z"/>
            </defs>
            <use xlink:href="#127" style="fill:#000000;fill-opacity:1;fill-rule:evenodd;opacity:1;stroke:none;"/>
          </g>
        </defs>
        <use xlink:href="#126"/>
        <defs>
          <title>Shape 334</title>
          <g id="128">
            <defs>
              <path id="129" d="M1610.28,1971.92 C1701.7,1977.57,1770.79,1920.91,1797.47,1848.73 C1824.14,1776.54,1812.66,1724.23,1847.13,1628.69 C1881.6,1533.15,1910.14,1384.79,1748.88,1345.97 C1582.41,1305.95,1441.86,1484.45,1425.59,1673.37 C1411.17,1855.89,1492.79,1964.66,1610.28,1971.92 z M1476.45,1638.73 C1494.9,1458.71,1678.49,1333.02,1782.07,1413.7 C1879.02,1489.18,1802.45,1594.7,1782.07,1695.01 C1761.68,1795.33,1744.86,1922.11,1613.97,1926.12 C1483.08,1930.14,1466.48,1735.94,1476.51,1638.77 z"/>
            </defs>
            <use xlink:href="#129" style="fill:#000000;fill-opacity:1;fill-rule:evenodd;opacity:1;stroke:none;"/>
          </g>
        </defs>
        <use xlink:href="#128"/>
        <defs>
          <title>Shape 335</title>
          <g id="130">
            <defs>
              <path id="131" d="M1624.27,1749.28 C1628.56,1751.45,1633.02,1753.26,1637.61,1754.71 C1617.22,1724.56,1613.73,1682.91,1632.09,1646.17 C1656.15,1598.02,1709.4,1574.71,1756.04,1589.74 C1746.93,1576.22,1734.49,1565.28,1719.92,1557.96 C1670.47,1533.35,1608.98,1556.12,1582.63,1608.97 C1556.28,1661.83,1574.81,1724.56,1624.27,1749.28 z"/>
            </defs>
            <use xlink:href="#131" style="fill:#040002;fill-opacity:1;fill-rule:evenodd;opacity:1;stroke:none;"/>
          </g>
        </defs>
        <use xlink:href="#130"/>
        <defs>
          <title>Shape 336</title>
          <g id="132">
            <defs>
              <path id="133" d="M2311.95,1313.1 C2352.93,1316.47,2386.77,1340.97,2402.03,1373.95 C2403.15,1369.28,2403.87,1364.53,2404.2,1359.74 C2408.65,1304.65,2364.51,1256.17,2305.73,1251.51 C2246.95,1246.85,2195.54,1287.62,2190.99,1342.68 C2189.73,1358.91,2192.68,1375.2,2199.55,1389.96 C2210.77,1342.28,2258.26,1308.76,2311.95,1313.1 z"/>
            </defs>
            <use xlink:href="#133" style="fill:#040002;fill-opacity:1;fill-rule:evenodd;opacity:1;stroke:none;"/>
          </g>
        </defs>
        <use xlink:href="#132"/>
        <defs>
          <title>Shape 337</title>
          <g id="134">
            <defs>
              <path id="135" d="M789.761,3239.15 C789.761,3239.15,755.031,3364.3,653.76,3446.5 C755.063,3528.71,789.761,3653.86,789.761,3653.86 C789.761,3653.86,824.578,3528.71,925.86,3446.5 C824.578,3364.3,789.761,3239.15,789.761,3239.15 z"/>
            </defs>
            <use xlink:href="#135" style="fill:#000000;fill-opacity:1;fill-rule:evenodd;opacity:1;stroke:none;"/>
          </g>
        </defs>
        <use xlink:href="#134"/>
        <defs>
          <title>Shape 338</title>
          <g id="136">
            <defs>
              <path id="137" d="M485.667,2315.51 C485.667,2315.51,458.534,2413.4,379.306,2477.71 C458.534,2542.02,485.667,2639.9,485.667,2639.9 C485.667,2639.9,512.897,2542.02,592.125,2477.71 C512.897,2413.4,485.667,2315.51,485.667,2315.51 z"/>
            </defs>
            <use xlink:href="#137" style="fill:#040002;fill-opacity:1;fill-rule:evenodd;opacity:1;stroke:none;"/>
            <use xlink:href="#137" style="fill:#000000;fill-opacity:1;fill-rule:evenodd;opacity:1;stroke:none;"/>
          </g>
        </defs>
        <use xlink:href="#136"/>
        <defs>
          <title>Shape 339</title>
          <g id="138">
            <defs>
              <path id="139" d="M1849.08,382.443 C1849.08,382.443,1881.19,267.064,1974.67,191.243 C1881.24,115.423,1849.14,-0.000244141,1849.14,-0.000244141 C1849.14,-0.000244141,1817.08,115.456,1723.65,191.243 C1817.08,267.064,1849.08,382.443,1849.08,382.443 z"/>
            </defs>
            <use xlink:href="#139" style="fill:#040002;fill-opacity:1;fill-rule:evenodd;opacity:1;stroke:none;"/>
            <use xlink:href="#139" style="fill:#000000;fill-opacity:1;fill-rule:evenodd;opacity:1;stroke:none;"/>
          </g>
        </defs>
        <use xlink:href="#138"/>
        <defs>
          <title>Shape 340</title>
          <g id="140">
            <defs>
              <path id="141" d="M3187.55,1162.89 C3187.55,1162.89,3216.62,1058.41,3301.18,989.776 C3216.62,921.14,3187.55,816.657,3187.55,816.657 C3187.55,816.657,3158.58,921.14,3074.03,989.776 C3158.58,1058.41,3187.55,1162.89,3187.55,1162.89 z"/>
            </defs>
            <use xlink:href="#141" style="fill:#040002;fill-opacity:1;fill-rule:evenodd;opacity:1;stroke:none;"/>
            <use xlink:href="#141" style="fill:#000000;fill-opacity:1;fill-rule:evenodd;opacity:1;stroke:none;"/>
          </g>
        </defs>
        <use xlink:href="#140"/>
        <defs>
          <title>Shape 341</title>
          <g id="142">
            <defs>
              <path id="143" d="M4040.47,1965.72 C4040.47,1965.72,4020.01,2039.53,3960.3,2087.95 C4019.99,2136.42,4040.47,2210.19,4040.47,2210.19 C4040.47,2210.19,4060.98,2136.39,4120.69,2087.95 C4060.98,2039.49,4040.47,1965.72,4040.47,1965.72 z"/>
            </defs>
            <use xlink:href="#143" style="fill:#040002;fill-opacity:1;fill-rule:evenodd;opacity:1;stroke:none;"/>
            <use xlink:href="#143" style="fill:#000000;fill-opacity:1;fill-rule:evenodd;opacity:1;stroke:none;"/>
          </g>
        </defs>
        <use xlink:href="#142"/>
        <defs>
          <title>Shape 342</title>
          <g id="144">
            <defs>
              <path id="145" d="M3838.35,2352.62 C3838.35,2352.62,3806.34,2468.04,3712.92,2543.87 C3806.34,2619.69,3838.35,2735.12,3838.35,2735.12 C3838.35,2735.12,3870.44,2619.69,3963.88,2543.87 C3870.44,2468.04,3838.35,2352.62,3838.35,2352.62 z"/>
            </defs>
            <use xlink:href="#145" style="fill:#000000;fill-opacity:1;fill-rule:evenodd;opacity:1;stroke:none;"/>
          </g>
        </defs>
        <use xlink:href="#144"/>
        <defs>
          <title>Shape 343</title>
          <g id="146">
            <defs>
              <path id="147" d="M1517.46,619.498 C1517.46,619.498,1544.69,525.369,1623.91,463.527 C1544.69,401.664,1517.46,307.546,1517.46,307.546 C1517.46,307.546,1490.32,401.675,1411.09,463.527 C1490.31,525.369,1517.46,619.498,1517.46,619.498 z"/>
            </defs>
            <use xlink:href="#147" style="fill:#000000;fill-opacity:1;fill-rule:evenodd;opacity:1;stroke:none;"/>
          </g>
        </defs>
        <use xlink:href="#146"/>
      </g>
    </g>
  </g>
</svg>
