<svg xmlns="http://www.w3.org/2000/svg" width="250" height="250" fill="none"><g fill-rule="evenodd" clip-path="url(#a)" clip-rule="evenodd"><path fill="#797979" d="M61.808 78.056c1.231-1.023 2.338-1.375 2.338-1.375-.129 2.36.168 4.364.705 6.055a13.866 13.866 0 0 0 1.605 3.445c2.042 3.142 4.67 4.372 4.67 4.372.314-6.044 3.415-8.085 3.415-8.085-.514 3.528-.48 12.568 2.607 19.742 3.602 8.353-.117 7.979 4.894 18.456 6.31 13.173 24.192 13.011 24.192 13.011-10.253 2.952-21.58-.621-27.129-9.796-2.187-3.629-3.07-6.608-3.468-9.203-2.528-.85-6.66-4.428-6.912-4.651.2.045 3.484.793 6.57.805-.105-2.254-.16-4.253-.972-6.267-2.987-.363-6.22-2.354-6.22-2.354-.33 5.793-3.302 8.677-6.667 9.68l-.853 4.386c3.25 4.356 11.444 10.769 11.444 10.769s-6.885-2.147-12.137-7.235l-1.92 9.829c3.352 2.706 6.847 5.044 10.189 7.101 9.833 6.055 23.26 8.808 26.738 8.64a180.78 180.78 0 0 0 10.224-2.141c-3.518-.811-11.885-2.909-16.55-5.473 3.446.172 16.808 1.939 29.611 2.018 11.97-3.456 21.322-6.877 21.322-6.877s-4.926-6.883-1.432-14.923 10.98-9.952 14.577-10.463c3.048-2.298 7.12-10.959 7.612-18.865.509-8.247-5.269-11.093-8.579-15.376-3.312-4.282-5.455-9.879-9.761-15.403 4.027 1.985 6.684 5.57 6.684 5.57.57-1.505 3.557-9.97.934-15.097-2.892-5.636-9.425-8.175-9.425-8.175.733-.839 2.617-1.699 2.617-1.699-9.459-4.753-18.116 1.443-18.116 1.443-.246-1.4-.073-2.902-.073-2.902-4.822 4.053-6.186 11.601-6.186 11.601 10.208-.067 13.843 3.88 13.843 3.88-10.979-1.89-23.307-.883-32.861 3.959C89.784 61.3 81.226 71.37 81.226 71.37c1.159-5.799 4.196-8.41 4.196-8.41-5.057-3.958-10.426-3.31-10.426-3.31 1.012.733 2.153 2.634 2.153 2.634a17.973 17.973 0 0 0-6.332 1.554c-.887.396-1.74.864-2.55 1.4-2.204 1.436-3.993 3.27-5.213 5.21-1.695 2.673-2.316 5.54-1.505 7.839.085-.08.175-.158.26-.23Zm51.481-2.98s1.477-5.01 6.746-7.268c5.269-2.26 15.802-.459 21.781 6.004 5.98 6.464 4.229 13.341-.666 15.975-7.45 4.003-10.163-.386-16.315-2.483-6.153-2.096-13.681-3.774-11.546-12.228Zm4.335 17.07c3.619-.509 4.838 1.795 3.479 4.942-1.359 3.148-3.328 4.644-5.006 5.043-3.339.784-7.333-2.107-7.434-4.344-.101-2.236 5.343-5.138 8.961-5.64Zm1.974 13.1c2.551 1.538 8.223.325 8.592-6.665 0 0 3.266 4.272-.342 7.979 1.002 1.403 2.607 9.019-3.092 11.982-6.259 3.259-10.594-3.294-11.528-5.121-4.235-.431-5.007-4.239-5.007-4.239 7.898 3.808 11.378-3.936 11.378-3.936h-.001Zm-36.62-9.974c.84-9.74 8.089-18.943 16.675-16.88 8.317 2.002 6.851 9.645 5.067 14.576-1.785 4.931-1.186 7.615-2.561 11.344-1.376 3.729-4.94 6.643-9.655 6.351-6.06-.374-10.269-5.982-9.525-15.391Z"/><path fill="#797979" d="M164.04 105.056s-1.913 4.459-9.839 6.011c-8.854 1.734-14.912 8.123-10.834 13.652 4.172 5.659 14.599 4.166 14.599 4.166-9.369 5.138-16.462-.799-16.462-.799 3.317 8.001 15.45 10.583 25.238 2.476s10.649-18.378 10.649-18.378c-1.168 2.617-3.607 5.44-3.758 5.614.134-.325 3.07-7.515 2.662-12.977-.419-5.592-4.771-9.874-12.451-13.324-.341 7.839-6.041 15.432-6.041 15.432 2.529-.38 6.237-1.873 6.237-1.873Zm-52.59-6.173c2.696 2.136 4.738 1.247 6.522-.749 1.785-1.996 1.225-3.667-1.409-2.885-2.635.782-3.966 1.567-5.174 2.304-.286.174-.912.559.061 1.33Zm39.132 53.604c5.643 3.026 14.693 10.456 17.552 25.144-.296-.626-9.684-20.346-30.452-21.101-22.995 6.681-47.029 11.204-51.275 11.104-.072 3.584 6.825 45.659 9.716 59.871 15.868 8.319 39.296 4.858 49.502 2.343 17.692-4.999 29.6-25.591 29.6-25.591-.878 10.321-8.117 18.557-8.34 18.815 10.442-4.893 24.605-17.306 26.68-21.913l-18.436-59.479c-5.904 3.794-14.719 7.473-24.547 10.807ZM53.85 111.262c-1.007-.514-1.8-1.19-2.265-1.968 0 0 1.024.347 2.5.515.84.097 1.686.113 2.528.05 1.012-.084 2.075-.308 3.093-.772a7.484 7.484 0 0 0 2.674-2.007c2.097-2.477 2.495-5.681 1.706-8.756a14.198 14.198 0 0 0-1.55-3.712 14.85 14.85 0 0 0-2.857-3.5 13.32 13.32 0 0 0-2.266-1.666 11.729 11.729 0 0 0-2.864-1.208c-7.786-2.097-17.082 7.525-12.259 20.732 2.131 5.843 5.52 10.768 9.487 14.967l2.073-12.675Z"/><path fill="#797979" d="M180.071 102.912s5.129 13.184-8.229 27.794c-8.67 9.225-22.508 11.461-29.78 5.166 0 0-22.094 8.252-40.415 11.814-18.314 3.561-31.66 4.361-28.555-4.216-1.381-.587-3.042-1.465-4.676-2.392-9.184 3.208-11.455 10.482-9.068 15.727-4.788-2.611-7.149-11.411 4.318-18.562-1.27-.794-2.104-1.343-2.104-1.343s-10.09 4.171-14.52 11.484-.934 14.582 8.485 15.795c9.42 1.213 35.844.563 73.741-9.502 37.896-10.064 66.837-27.816 70.755-38.998 3.918-11.181-12.122-13.743-19.952-12.767Zm-62.296-20.779c.151.342 1.632 1.607 1.921 1.935.29.328.923.534.923.534l3.239 1.001c1.08.334 3.496.746 3.613.816.117.07 2.919.76 2.919.76s5.424-.154 5.517-.154c.093 0 1.842-.536 1.911-.583.07-.047 1.841-1.679 1.841-1.679l.723-3.867v-3.564c0-1.189-1.981-4.17-2.004-4.263-.024-.094-.876-1.287-.876-1.287l-1.549-1.228-3.868-1.326s-1.835-.516-1.903-.532c-.07-.015-2.434-.19-2.504-.127-.07.062-2.519 0-2.519 0l-2.376-.101c-.791-.034-2.763.718-2.854.76-.092.041-2.318 1.771-2.365 1.84-.048.07-.933 2.437-.933 2.437s-.372 1.92-.396 1.99c-.024.07.49 4.1.49 4.1s.899 2.195 1.05 2.538Zm-29.062 22.015 3.006 1.119h4.51c.105 0 2.552-1.503 2.552-1.503l2.202-1.5c.735-.501 1.189-2.518 1.224-2.798.035-.28.315-3.476.315-3.476s.772-2.473.842-2.674c.071-.201.312-1.503.476-1.68.165-.175.538-1.678.538-1.678l.483-1.818-.069-1.973.069-2.045-1.257-1.922-1.4-1.602-2.692-.391-.35 4.473-5.383-.944-7.707 3.75-.593 1.214-1.52 5.276.803 5.487c.269 1.828 2.203 3.424 2.308 3.494.105.07 1.643 1.191 1.643 1.191Z"/><path fill="#4B4B4B" d="m194.114 195.038-2.972-8.281a46532.2 46532.2 0 0 0-3.391-11.043l-4.23-12.651-2.902-10.449-4.509-13.383-27.363 11.905-15.337 4.286-13.425 3.961-13.794 2.841-14.915 3.168-4.708 1.352c12.865 5.824 26.758-4.567 44.282 1.398 17.524 5.966 28.992 19.01 29.365 28.329 0 0 4.614-5.219 4.894-10.855 5.081 21.758-6.852 40.862-46.472 48.13 0 0 15.989 1.165 24.472-.792s15.848-4.52 15.848-4.52l9.671-4.042 7.062-3.494 7.586-5.941 8.321-7.862 4.019-5.661-1.502-6.396ZM110.248 143.6l3.566-1.747-10.698-27.991-27.01-6.126s-4.662-.956-9.07-3.588l-1.605-3.81c-4.431-7.873-12.655-8.84-17.689-3.016-5.033 5.824-2.799 15.701 5.733 23.808s27.874 21.479 50.621 23.53l6.152-1.06Zm13.681-59.209c4.59 1.817 11.382 5.954 15.857 3.366 4.474-2.588 4.531-8.442-1.477-13.547-1.097-.928-7.053-5.496-13.452-4.937-6.398.558-10.18 5.591-9.18 9.46 1 3.868 3.989 3.97 8.252 5.658Zm-1.472-6.167c.235-2.84 2.881-4.948 5.918-4.7 3.038.248 5.309 2.742 5.079 5.58a4.425 4.425 0 0 1-.112.732c-.789-1.7-2.534-2.965-4.646-3.137-2.769-.224-5.219 1.505-5.795 3.965a4.882 4.882 0 0 1-.444-2.44Z"/><path fill="#4B4B4B" d="M92.697 108.304c6.75-.206 7.623-6.743 8.67-11.914 1.046-5.172 5-10.612 0-14.504-5.343-4.16-14.812 2.32-15.763 11.602-.514 5.01.347 15.029 7.093 14.816ZM91.08 91.95c1.36-2.722 4.53-3.896 7.081-2.63a4.89 4.89 0 0 1 1.863 1.639c-2.407-.778-5.15.424-6.393 2.91-.945 1.894-.767 4.042.285 5.594a4.517 4.517 0 0 1-.688-.279c-2.551-1.273-3.512-4.51-2.148-7.234Zm22.57 8.444c1.679.629 1.83.909 2.971 0 1.142-.908 2.751-2.48 2.751-2.48l.629-1.34v-.932c0-.046-.513-1.316-.513-1.316s-.616-.42-.653-.42c-.036 0-.885-.022-1.13.047-.244.07-.804.105-1.166.28-.361.175-3.029 1.549-3.029 1.549s-1.54 3.986.14 4.612ZM67.527 81.957c.332-1.188 2.308-2.946 2.308-2.946-.979 5.824 2.307 9.272 2.307 9.272 7.201 1.025 10.232-1.211 10.232-1.211s13.938-19.15 2.377-22.225c-11.561-3.076-17.049 5.651-17.049 5.651 1.556-.611 4.44-.524 4.44-.524-5.873 4.226-4.615 11.983-4.615 11.983Zm74.509-18.182 4.242-1.491c4.148-9.691-2.575-13.978-2.575-13.978a32.617 32.617 0 0 1 4.207.14c-6.349-7.735-15.802-4.823-15.802-4.823.792-1.747 2.75-3.517 2.75-3.517-7.551.186-13.214 5.474-13.96 9.551l3.147 6.198 17.991 7.92Zm20.214 42.871c3.95-2.149 2.651-7.135-.192-9.512 0 0-4.476 7.431-5.245 9.792-.768 2.36 1.486 1.869 5.437-.28Z"/><path fill="#4B4B4B" d="M141.092 145.592c28.328-6.71 51.285-23.297 53.056-30.705 1.771-7.408-10.162-7.362-10.162-7.362-.978 4.147-4.31 7.77-4.31 7.77s-3.139 4.853-3.869 6.413l1.934-4.14.817-2.866.629-4.938-.49-4.729-1.584-4.706-3.333-5.055-2.844-1.887-1.281.442c-.428.149 6.805 9.062 1.841 20.525 0 0 .676-4.683-.35-7.456 0 0-2.819 11.579-12.934 16.89-10.115 5.312-17.505-4.249-10.628-11.228 0 0-3.915.535-4.562 2.02-.647 1.485-2.476 2.08-3.035 4.689a20.198 20.198 0 0 0-.421 4.892 16.663 16.663 0 0 0-.015 3.917c.249 2.143 2.3 4.566 2.3 4.566l.815.666-4.87 1.943-15.522 5.484-14.89 3.564-14.508 3.285-8.88.139-5.453-1.013-2.098-3.669-8.198-4.141-3.164.822-4.52 2.798c-1.507.932-4.429 6.056-3.636 9.456.816 3.54 1.864 11.788 34.026 6.569 32.162-5.218 50.139-12.955 50.139-12.955Zm30.941-18.218 1.506-1.975c-.665.986-1.393 2.049-2.111 3.14-1.782 2.706-4.38 3.612-6.301 5.084l3.411-2.615 3.495-3.634Zm-11.815 8.177 4.581-1.691c-1.624 1.133-3.786 1.857-6.81 2.498l2.229-.807Zm-15.171-.303 6.387 1.931c-1.674 0-3.049-.209-4.168-.569-2.055-.661-4.584-3.285-4.602-3.303l2.383 1.941Z"/><path fill="#383838" d="M118.639 99.092c1.235-.582 1.06-1.817 1.072-1.875.013-.058.303-.792.431-1.514.129-.723-.571-.91-1.455-1.386-.884-.478-2.61-.164-2.61-.164l-.816.84c2.634 1.467-.629 3.121-.863 5.777 1.327.501 3.004-1.095 4.241-1.678Zm-37.092-2.213c0 .14.909 6.36 1.014 7.532.106 1.171 1.852 4.524 1.96 4.803.106.28 6.536 4.473 7.096 4.718.56.244 4.474.314 4.58.244.105-.07 5.173-3.077 5.278-3.18.105-.102 2.832-7.792 2.832-7.792l-1.503-7.828c-1.713.036-6.001 7.933-10.127 8.282-4.125.348-6.315-3.635-7.504-9.04-.002.001-3.626 2.121-3.626 2.261Zm55.316-2.259c.14 0 6.573-1.073 8.018-1.539 1.445-.466 3.682-3.773 3.682-3.773l2.239-6.617c.746-2.205-1.771-4.612-1.818-4.752-.046-.14-6.713-9.318-10.629-11.061-3.916-1.743-2.75-.958-3.216-1.097-.466-.14-2.611.978-2.703 1.097-.093.118-.234 3.235-.234 3.235 6.666 3.495 8.076 11.043 4.405 13.524-3.671 2.481-7.342.35-12.142 1.782 0 0 .746 3.47.84 3.612.094.141 11.418 5.588 11.558 5.588Zm-63.3-18.917c-.745 2.35-.652 5.975.012 8.543 0 0 .035 1.206.035 1.31 0 .106 9.124-3.983 9.124-3.983l5.349-7.128c1.783-2.377.734-4.823-4.824-6.535-5.559-1.712-8.626 1.724-8.626 1.724.793-.047 1.912.233 1.912.233-4.335 2.9-4.942 7.28-4.942 7.28.4-.606 1.96-1.444 1.96-1.444Zm66.261-13.245s2.062.873 3.776-3.04c1.712-3.914-2.387-7.784-2.387-7.784.633.196 1.254.426 1.862.69-2.971-6.01-9.161-5.101-9.161-5.101.464-.62 1.714-1.293 1.714-1.293-6.433-1.503-10.371 4.17-10.371 4.17l-.292 2.574 3.496 4.962 11.363 4.822Zm20.811 37.962-4.382 6.011-.187 2.329 5.058-2.004c2.121-2.772.955-5.243-.489-6.336Zm-17.053 27.577-2.239-1.223-1.171.611v1.608c0 .053.699 1.66.699 1.66l2.182 2.97 3.619 2.027 4.754 1.083 3.164.314c1.054.105 4.142-.716 4.213-.768.07-.053 3.496-1.135 3.565-1.224.07-.087 2.249-.739 6.213-2.207 3.965-1.467 6.993-4.752 8.064-6.313 3.892-2.003 8.589-8.095 2.296-9.808 0 0-1.352-.769-.896-3.214.456-2.446-1.06-4.473-2.529.314-1.469 4.788-6.724 9.983-6.724 9.983.653-1.351.921-5.932.921-5.932-2.936 4.299-8.612 11.869-16.256 11.823l-7.202-.727-2.673-.977Z"/><path fill="#383838" d="m153.702 138.358-11.152-3.879-1.609-.442-10.767 4.309-9.905 2.935-2.694.679 4.142-1.332 6.293-1.992 13.909-5.205-2.028-3.669-1.153-5.731-.874-1.049 1.095-2.737-32.859 1.584c-10.953.528-28.387-6.802-33.002-10.39 0 0-3.868-1.048-5.22-1.771 0 0 1.433 3.006 3.339 4.438 0 0-5.017-2.201-7.85-4.56l1.487-3.459a731.45 731.45 0 0 1-.262-1.101c-.087-.367-1.68-7.898-9.695-6.22s-6.176 12.859-.63 16.633c0 0 2.867-.372 6.363 3.029 3.496 3.401 5.308 4.782 5.308 4.782l3.286 2.079c4.326 2.918 12.393 6.954 18.825 9.295 0 0-5.792.384-9.567-.224 0 0 11.816 4.66 20.998 5.871 9.183 1.211 13.075 2.842 13.075 2.842l1.71-.28-3.155.798-9.252 2.447-8.553 1.468-9.836.861-7.784-5.917-5.71-1.073c-4.404 2.843-6.944 10.228 2.284 13.256 9.23 3.028 43.302-1.211 70.71-15.189 0-.003 8.354.766 10.733-1.086Zm39.491 54.804-1.865-6.662-3.262-9.225-2.96-9.645-2.191-7.082-2.261-7.898-2.54-8.225-2.564-5.008-4.683 2.096a44868.69 44868.69 0 0 1-6.946 3.469c-3.527 1.468-7.053 2.937-10.58 4.404l-9.602 2.726c-3.2.908 7.132 2.842 9.089 5.113 1.958 2.271 5.663 3.599 6.957 5.766 1.294 2.167 3.041 3.46 3.706 5.137.664 1.677 1.679 2.44 2.412 4.612 3.041 6.116 5.733 13.292 5.873 16.32 0 0 1.725-5.918 1.772-12.813 0 0 8.319 25.509-3.822 38.252-11.794 12.44-5.921 12.044-2.215 10.32 3.706-1.724 10.464-5.964 10.464-5.964l6.898-5.427 5.967-5.545 4.638-5.754.162-1.049-2.447-7.918Z"/><path fill="#A7A5A5" d="M115.702 203.879c-3.079-24.182-22.863-33.896-30.694-33.582l9.229 57.811.536.652 11.654 4.053c24.983-6.803 14.449-36.855 11.605-40.443.513 6.895-2.33 11.509-2.33 11.509Zm86.4-94.682-1.556-2.498-2.552-2.429-3.601-1.572-6.17-1.084-.577.646c10.348 2.097 12.723 12.23 5.104 23.902l3.199-1.38 2.062-2.341c.688-.781 2.587-3.25 2.605-3.301.017-.052 1.364-3.495 1.364-3.495l.296-3.006-.174-3.442ZM53.475 159.989c-7.83-6.337-3.496-14.328 6.433-23.413 0 0-4.87 1.934-11.21 6.896-6.34 4.963-5.827 9.225-5.827 9.225l.49 5.428c.163 1.809 2.26 4.007 2.633 4.38.374.373 5.15 2.462 5.15 2.462l5.384.867c1.795.289 7.76 1.282 7.854 1.282h5.127l11.374-2.307c3.79-.77-19.577 1.517-27.408-4.82Zm.679-35.087c-12.635-12.09-13.994-24.821-9.699-30.513C48.75 88.7 54.78 88.28 58.322 89.4l-1.596-2.097-3.303-.804H50.05l-3.356 1.063-3.881 3.267-2.15 3.81-1.485 4.106v3.232l.576 5.101 1.573 4.369 2.71 5.521 3.915 6.237 3.269 3.581 5.89 4.963 6.328 4.199 5.453 3.127 6.101 3.058 8.635 2.935 9.703 1.223c-12.28-3.767-26.54-9.295-39.177-21.388Zm7.873-44.284.512-1.142c.32 1.305.637 2.61.956 3.915l1.772 3.447c.59 1.15 2.33 2.843 2.4 2.982.07.14 4.102 2.656 4.102 2.656l.093-2.656c-1.783-.943-6.992-6.5-6.153-14.397 0 0-1.538.023-2.798.815 0 0 .735-10.67 13.68-14.14l-.615-.81c-.206-.27 5.415-.867 10.053 2.231l.816-.536-.466-1.351-2.844-1.84-3.938-1.235-3.17-.303-2.89.326-.745.652.28 1.025-1.606 1.585-3.356.978-3.962 3.239-1.981 3.145-1.562 3.357-.722 4.123.582 3.19 1.562.744Zm23.399 8.445-.315 2.668v1.584c3.007-5.976 6.258-12.021 16.606-11.695l-1.212-1.735-1.887-.326-1.62-.256-2.984.57-1.84.99-2.015 1.736c-.677.706-1.352 1.413-2.028 2.12l-1.282 1.665-1.423 2.68Zm38.619-20.303s-1.876-.798-4.883.845-4.282 4.84-4.282 4.84l-.944 2.198.56 2.676c.186.893 1.241 2.254 1.311 2.324.069.071 1.783 1.343 1.783 1.343.944.484 1.887.968 2.831 1.45l2.692.28c-7.458-4.054-7.411-12.193.932-15.955Zm24.116-25.171s-1.451-1.66-1.504-1.713a591.923 591.923 0 0 0-2.691-2.253l1.573-.962c.524-.32-1.294-1.119-1.346-1.17-.053-.052-2.255-1.293-2.255-1.293l-3.653-.766h-5.49l-2.832.541-2.814.56c-.938.186-1.468-.193-1.468-.332 0-.14-.123-1.153-.123-1.153l-1.187.328s-1.993 1.013-3.147 2.988c-1.153 1.974-2.289 3.738-2.289 3.738l-1.503 3.338-.979 4.455 2.989-.227c.996-.076 1.538-6.36 4.475-9.435l.384 2.061c.128.688 7.237-6.814 16.009-3.913l-1.782 2.15c-.595.715 9.056 2.418 12.179 9.919l.076-2.423-1.346-2.674-1.276-1.764Zm20.117 56.761c-1.188.257-.959 5.847-4.731 9.365-1.751 1.635-2.174 1.546-2.767 2.819-.993 2.13 1.206 4.718 5.296 0 4.09-4.717 3.391-12.44 2.202-12.184Zm-10.957 14.263a2.13 2.13 0 1 0 .816 4.101 2.131 2.131 0 0 0-.816-4.101Z"/><path fill="#C6CACD" d="m147.433 64.202-2.183-2.93-.777-1.051c-2.204-2.672-9.593-7.537-16.154-8.873l-5.521-1.051h-5.838s-8.044.634-8.144.665c-.101.03-8.11 2.589-8.216 2.655-.107.066-6.573 3.947-6.573 3.947l2.97 5.664 6.354 3.646s3.82 6.777 3.915 7.056c.094.28 2.327 8.577 2.327 8.946 0 .37-1.488 7.548-1.959 9.197-.472 1.65-2.422 15.918-4.167 19.552-1.745 3.635-9.375 10.137-13.01 11.742-3.636 1.605-2.864 6.407-2.82 6.474.045.068 3.686 1.985 3.686 1.985l3.983 1.421 3.261.044c6.237.872 16.931.369 26.029-1.739l6.32-3.947 2.887-7.241 1.544-8.252 3.283-8.733c1.095-2.911 4.055-6.15 4.268-6.71.213-.559 3.563-9.085 3.563-9.085l1.33-14.887-.358-8.495Zm-34.276 36.696c-.068-.034-.61-.318-.688-.363-.078-.045-.773-.381-.929-.644-.156-.263-.665-.86-.716-.916a48.036 48.036 0 0 0-.912-.772s.124-.906.146-.956c.022-.05.766-.856.766-.856l.123-.492c.05 0 1.477-.346 1.522-.38.045-.034 2.687-1.359 2.687-1.359.638-.094 1.275-.19 1.913-.285l1.242-.122.576.156.262.251.643.554a.914.914 0 0 0 0 .403c.057.224 0 .783 0 .783.018.193.025.387.023.581-.006.19-.403 1.12-.442 1.185-.04.067-.699.946-.732 1.069-.034.123-.683.766-.823.905-.14.14-.872.666-.945.733-.074.067-1.203.475-1.203.475s-1.275.156-1.331.156c-.056 0-1.121-.08-1.182-.106Zm13.189 13.732c-.369 1.141-1.784 1.89-1.818 1.94-.033.049-2.254 1-2.304 1.017-.051.017-1.891 0-1.925 0-.034 0-2.814-1.051-2.814-1.051s-1.643-1.347-1.679-1.414a720.364 720.364 0 0 1-1.331-3.025l.683-1.046 3.652-2.219.945-.856 6.276-.385c2.092-.129.699 1.749.889 2.952.19 1.202-.205 2.95-.574 4.085v.002Zm17.837-30.539c-.168 1.258-.839 2.259-1.913 3.17-1.073.912-3.171 2.259-5.218 2.605-2.047.347-5.085-.396-7.787-1.928-2.707-1.543-5.593-2.612-5.615-2.707 0 0-4.475-1.096-5.616-1.582s-2.473-2.354-3.359-3.707c-.886-1.352-.793-2.443-.441-4.053.352-1.61 2.724-4.54 2.724-4.54l2.774-2.287 3.446-.671 3.731-.302 2.354.391 3.798.889c1.266.296 3.429 1.722 3.496 1.745.067.022 3.121 2.258 3.121 2.258s1.611 1.728 1.656 1.84c.045.112 2.053 3.03 1.986 3.103-.067.073.928 2.98.951 3.097.023.118.074 1.42-.088 2.677v.002ZM68.542 31.83l-.472.717-5.138 30.846 1.679.271 2.325.123 3.855-1.623c1.285-.54.351-7.565 2.123-15.486 1.772-7.92 2.656-13.558 2.656-13.558s-3.531-2.129-7.028-1.29Zm-7.01 49.36-1.228 1.315-1.515 5.661 5.128 3.634 1.258-4.03-2.68-6.733-.963.153Zm-7.988 38.958-1.556 11.885 1.154 1.189h2.78l4.45-21.689-4.87-.35-1.958 8.965Z"/><path fill="#A1A5A8" d="M161.613 84.09c-.792-3.728-2.656-5.405-2.656-5.405s-2.519-2.75-4.475-4.94c-1.956-2.19-3.449-4.704-3.449-4.704s-2.262-3.035-4.323-5.805l-.336.4c-9.835-8.667-20.416-8.435-20.416-8.435 6.479 4.241 5.734 9.832 5.734 9.832 10.674 5.218 11.885 12.05 11.885 12.05s-.816.018-.35.88c.466.86.466 2.818.979 4.566.513 1.747-.629 1.747-1.002 3.494-.373 1.748-1.165 1.071-2.214 2.214-1.048 1.142-3.052 1-5.267 1.63-2.214.63-7.109-1.817-7.109-1.817 2.33 2.33 2.799 8.992-.274 10.96 0 0 .053.577.193 1.416.14.838-.752 2.813-1.344 4.525-.592 1.712-.647 1.782-.647 1.782s.186 3.006.583 4.962c.396 1.957-.419 3.612-.419 3.612 5.173 8.06-2.101 16.246-2.101 16.246 5.503-1.273 10.424-3.133 13.427-5.623l-.14-.839 3.963-10.903 3.078-1.864 2.564-1.024 3.915-1.352a10.511 10.511 0 0 0 2.937-1.77c1.399-1.211 1.817-1.958 2.983-4.24 1.166-2.282 2.378-3.821 3.17-6.476.792-2.656.839-3.681 1.119-6.244.28-2.563.785-3.401-.008-7.129ZM67.598 62.936l3.099-1.363.268-3.506c.04-.446.078-.893.117-1.34.038-.446.676-3.319.688-3.365.012-.047 1.165-5.092 1.165-5.092l.396-3.53 1.084-3.89.524-4.077.432-2.994.15-1.386-3.134-.687c1.364 3.67-4.09 25.64-4.79 31.23Zm-5.385 27.747 1.4 1.188 1.56-4.007-1.724-1.841-1.236 4.66Zm-4.019 27.722 2.11-6.663-3.997-.223c1.153 1.017 2.062 3.042 1.887 6.886Z"/><path fill="#F6FBFD" d="m111.82 95.97 3.569-2.482c7.445-4.3 4.81-6.916 2.506-9.164-6.013-9.32-2.545-9.6-3.918-16.074-2.708-13.609-19.952-10.685-19.952-10.685l-6.947 6.933c-4.24 3.75-11.125 13.754-13.749 20.743l-.419 3.573.419 5.793.666 3.426c.222 1.143 1.639 5.133 1.68 5.38.04.246 1.079 2.761 1.079 2.761l.738 4.513.906 6.25c.302 2.084.979 2.063 3.359 6.782 2.38 4.719 6.89 5.591 6.89 5.591 13.838 4.887 30.239-1.146 27.895-12.966 0 0-.353-.804-1.225-2.834-.872-2.029-.314-3.078-.314-3.078 5.141-5.412-.106-8.7-.106-8.7s.196-.346-1.012-.592c-1.208-.245-2.97-1.61-3.826-2.672-.856-1.064 1.761-2.497 1.761-2.497Zm-7.114-7.598c0 .084-.594 2.83-.594 2.83l-.889 2.518-1.034 3.354-.454 2.623-.699 3.245-1.907 3.685-2.69 2.096-1.941.593c-.051.022-2.445 0-2.445 0s-1.8-.47-1.89-.52c-.09-.05-1.728-.912-1.728-.912l-1.975-2.057-1.365-2.499-.75-1.856c-.25-.62.017-2.97 0-3.193-.016-.224-.23-3.841-.23-3.886 0-.045.84-3.226.873-3.315.033-.09.739-2.863.739-2.92 0-.055 1.918-3.56 1.991-3.65.074-.09 2.668-2.376 2.743-2.426.076-.051 3.848-2.45 3.848-2.45s1.538-.228 1.628-.246c.09-.017 2.355 0 2.355 0l2.623.7 1.718 1.274 1.605 2.294.56 2.519c.186.839-.092 2.11-.092 2.199ZM67.784 32.279l-1.68 12.673-3.402 19.76c-1.134 6.587.874 1.171.926 1.189.053.017 1.154.104 1.154.104l2.045-2.461c-1.339-1.762.77-7.968 1.679-13.559.91-5.59 3.356-15.76 1.748-18.31l-2.47.604ZM59.75 82.36l-.629 5.329 2.302 1.548 1.328-5.008-.71-3.372-2.29 1.503Zm-4.435 30.011-1.84 8.084c-.25 2.034-.498 4.069-.747 6.104-.248 2.034-1.258 2.12-.14 3.96 1.119 1.84 2.564-1.875 3.054-5.195.489-3.32 1.141-9.177.21-13.046l-.537.093Z"/><path fill="#DF6064" d="M96.135 173.698c-4.509.022-8.161-.302-10.594-.945l.48 3.869.018.118 2.383 14.934c8.126.805 16.186.787 23.989.134-3.912-8.896-10.325-14.783-16.276-18.11Z"/><path fill="#AA282A" d="M120.226 109.462s-1.499 2.107-4.083 3.327c2.88 6.648 11.791 3.768 9.174-4.066-2.294 1.488-5.091.739-5.091.739ZM68.393 49.968c-.034.224-.073.447-.118.671.526.073 1.239.347 1.675.593.28-1.386.566-2.82.84-4.235-.48-.19-1.199-.362-1.742-.448-.235 1.243-.493 2.407-.655 3.419Zm97.509 122.775c-.732-2.169-1.745-2.936-2.411-4.613-.664-1.677-2.41-2.968-3.709-5.138-.514-.861-1.403-1.588-2.415-2.294-7.736 3.378-16.26 6.062-24.701 8.097 8.664 3.265 15.724 8.247 20.522 13.553 5.18-2.03 9.928-4.266 14.14-6.598a90.556 90.556 0 0 0-1.426-3.007Z"/><path fill="#771C1C" d="M178.488 147.451c-5.437 5.234-12.832 9.64-21.121 13.246 1.012.704 1.903 1.431 2.416 2.294 1.298 2.169 3.043 3.46 3.709 5.137.666 1.677 1.679 2.444 2.411 4.613.486.985.967 1.991 1.426 3.009 6.79-3.758 12.177-7.767 15.701-11.569l-4.542-16.73ZM70.697 46.958a534.79 534.79 0 0 1-.84 4.221 7.22 7.22 0 0 1 1.656 1.287l.873-3.986c-.257-.733-.895-1.208-1.689-1.522Zm52.659 70.468s1.842-.555 2.832-2.201c.99-1.646.746-1.76.994-3.16.247-1.401-.994-2.781-.994-2.781-3.111 2.307-4.685 5.451-2.832 8.142Z"/><path fill="#D63D3D" d="M132.667 168.795c-13.592 3.27-26.972 4.859-36.53 4.903 5.951 3.327 12.366 9.214 16.276 18.11 14.957-1.247 28.98-4.825 40.776-9.46-4.798-5.306-11.858-10.288-20.522-13.553ZM65.842 46.467l-.276 1.605v3.801c.896-1.107 1.904-1.358 2.825-1.218.045-.224.084-.448.118-.672.162-1.012.38-2.182.616-3.422-1.347-.206-2.719-.139-3.283-.094Zm53.146 70.447h.793c-.443-2.469 2.039-7.036 4.73-8.293l-4.782-.688-5.227 4.403 2.225 3.18 2.261 1.398Z"/><path fill="#000" d="M201.129 121.483c7.204-9.505 3.568-24.44-22.581-22.83 0 0-4.475-8.66-14.296-11.35-.246-5.355-3.368-9.18-6.305-11.694-2.936-2.513-4.726-6.35-6.32-7.905 0 0 3.009-5.882 2.495-13.061-.515-7.18-3.647-11.334-6.689-13.989l2.51-.218c-3.663-4.462-9.463-8.449-21.909-6l1.186-3.063c-6.886.905-11.875 6.546-14.812 17.355-6.292-.302-19.923 4.635-26.473 11.322-3.049-2.388-10.393-4.283-15.885-2.93l4.702-24.081c-1.577-2.969-7.227-4.887-10.051-.956l-5.845 35.772a21.35 21.35 0 0 0-1.377 2.085c-2.32 4.015-1.79 7.957-.699 10.624l-.9 5.5c-5.538-2.405-14.46-2.028-18.934 8.047-4.329 9.739 1.232 24.165 11.931 34.832l-.492 3.022c.19 2.034 3.974 4.461 6.577 2.202.246.185.498.364.75.543 0 0-9.587 5.199-14.946 12.422-5.358 7.222-3.775 18.87 10.393 20.781 14.169 1.913 28.622.464 28.622.464l9.872 61.005c3.29 20.336 10.544 7.627 28.582 8.398 18.039.772 60.69-6.225 77.47-36.138l-18.995-62.304s15.22-8.35 22.419-17.855Zm-24.913-16.662c.408 5.462-2.529 12.652-2.662 12.977.151-.173 2.589-2.997 3.758-5.614 0 0-.861 10.272-10.65 18.378-9.789 8.107-21.921 5.525-25.238-2.476 0 0 7.093 5.937 16.462.8 0 0-10.426 1.492-14.599-4.166-4.078-5.53 1.981-11.919 10.835-13.653 7.925-1.554 9.839-6.011 9.839-6.011s-3.709 1.493-6.237 1.874c0 0 5.699-7.593 6.041-15.432 7.679 3.45 12.031 7.732 12.451 13.323ZM69.152 32.662s2.758-1.185 5.206.956L69.592 58.03a8.207 8.207 0 0 0-1.482.968c.424.075.834.216 1.214.419l-.319 1.627c-.654.313-2.763 1.409-5.056 3.455l5.204-31.836Zm-6.175 37.785c1.22-1.94 3.01-3.774 5.213-5.21a17.672 17.672 0 0 1 2.551-1.4 17.97 17.97 0 0 1 6.333-1.553c2.189-.127-1.14-1.902-2.153-2.633 0 0 5.37-.65 10.426 3.31 0 0-3.037 2.61-4.196 8.409 0 0 8.559-10.065 18.112-14.912 9.553-4.847 21.88-5.848 32.86-3.96 0 0-3.636-3.948-13.844-3.88 0 0 1.365-7.549 6.186-11.602 0 0-.173 1.504.073 2.901 0 0 8.659-6.195 18.117-1.442 0 0-1.885.861-2.618 1.7 0 0 6.533 2.538 9.425 8.174 2.624 5.127-.364 13.592-.933 15.096 0 0-2.657-3.584-6.685-5.57 4.307 5.525 6.455 11.116 9.761 15.404 3.306 4.289 9.089 7.13 8.58 15.376-.492 7.906-4.565 16.566-7.613 18.865-3.596.508-11.081 2.426-14.576 10.463-3.496 8.037 1.432 14.92 1.432 14.92s-9.353 3.422-21.322 6.878c-12.804-.078-26.166-1.847-29.612-2.018 4.665 2.566 13.033 4.662 16.551 5.473-3.429.816-6.88 1.548-10.224 2.141-3.48.168-16.91-2.583-26.743-8.638-3.34-2.057-6.835-4.394-10.188-7.101l1.922-9.828c5.251 5.088 12.137 7.235 12.137 7.235s-8.194-6.412-11.444-10.768l.856-4.389c3.366-1.001 6.337-3.886 6.667-9.68 0 0 3.233 1.991 6.22 2.354.811 2.015.867 4.014.973 6.267-3.087-.011-6.37-.761-6.572-.805.251.224 4.385 3.801 6.913 4.651.397 2.595 1.281 5.575 3.468 9.203 5.549 9.177 16.875 12.748 27.128 9.797 0 0-17.882.161-24.191-13.011-5.012-10.478-1.292-10.104-4.894-18.457-3.088-7.173-3.122-16.213-2.607-19.742 0 0-3.104 2.04-3.415 8.085 0 0-2.63-1.231-4.67-4.372a13.854 13.854 0 0 1-1.605-3.444c-.538-1.69-.834-3.696-.705-6.056 0 0-1.108.353-2.338 1.376a8.78 8.78 0 0 0-.258.229c-.813-2.295-.193-5.163 1.502-7.836Zm2.127 22.286.397-2.04c1.4 1.772 3.29 3.443 5.818 4.529 0 0 .42 2.8 1.247 4.36 0 0-3.088-.973-5.325-2.6-.002 0-.667-1.923-2.139-4.25h.002Zm-4.29-9.052s.397-.704.895-1.175c0 0 .442 2.574 2.037 5.508l-.442 2.259a17.639 17.639 0 0 0-3.093-2.902l.603-3.69Zm-18.603 25.291C37.389 95.768 46.685 86.143 54.47 88.24c1.004.275 1.967.68 2.863 1.208a13.347 13.347 0 0 1 2.266 1.667 14.85 14.85 0 0 1 2.858 3.5 14.186 14.186 0 0 1 1.55 3.712c.788 3.077.391 6.279-1.707 8.756a7.496 7.496 0 0 1-2.673 2.007c-1.018.464-2.082.688-3.094.772-.842.063-1.688.046-2.527-.051-1.477-.167-2.5-.514-2.5-.514.464.777 1.257 1.455 2.264 1.968l-2.075 12.676c-3.966-4.203-7.355-9.128-9.486-14.971l.002.002Zm13.726 19.033-.912 4.668v.012a2.868 2.868 0 0 1-2.075-.884l.129-.788.8-4.887 2.294-14.04c.93.196 1.882.268 2.83.214l-3.066 15.705Zm-.487 36.18c-9.419-1.213-12.915-8.482-8.485-15.795 4.43-7.313 14.52-11.484 14.52-11.484s.834.548 2.104 1.343c-11.467 7.152-9.107 15.951-4.318 18.562-2.389-5.244-.118-12.518 9.068-15.728 1.634.928 3.295 1.806 4.676 2.393-3.104 8.577 10.244 7.778 28.555 4.216 18.323-3.562 40.415-11.814 40.415-11.814 7.272 6.296 21.11 4.059 29.78-5.166 13.357-14.61 8.228-27.794 8.228-27.794 7.831-.978 23.868 1.582 19.952 12.765-3.916 11.183-32.859 28.934-70.755 39-37.897 10.066-64.328 10.712-73.741 9.499l.001.003Zm138.04 36.973c-2.077 4.605-16.24 17.019-26.685 21.91.224-.257 7.461-8.493 8.341-18.815 0 0-11.908 20.592-29.6 25.591-10.208 2.518-33.633 5.977-49.502-2.343-2.891-14.212-9.789-56.285-9.716-59.871 4.246.101 28.281-4.42 51.276-11.103 20.767.755 30.153 20.474 30.451 21.1-2.858-14.686-11.909-22.118-17.552-25.14 9.827-3.332 18.641-7.011 24.549-10.807l18.438 59.478Z"/><path fill="#000" d="M113.229 113.421c.934 1.827 5.269 8.38 11.528 5.121 5.699-2.966 4.094-10.579 3.093-11.982 3.607-3.707.341-7.979.341-7.979-.369 6.99-6.041 8.203-8.592 6.665 0 0-3.478 7.744-11.376 3.936-.003 0 .771 3.808 5.006 4.239Zm6.997-3.959s2.799.749 5.09-.739c2.617 7.834-6.293 10.714-9.174 4.066 2.585-1.22 4.084-3.327 4.084-3.327Zm-4.128-7.33c1.679-.397 3.639-1.896 5.006-5.044 1.368-3.148.14-5.45-3.479-4.942-3.62.509-9.069 3.4-8.961 5.641.107 2.242 4.094 5.125 7.434 4.345Zm-4.71-4.58c1.208-.737 2.54-1.526 5.174-2.303 2.634-.778 3.194.895 1.41 2.885-1.784 1.99-3.826 2.885-6.522.75-.974-.772-.347-1.157-.062-1.331Zm13.448-10.248c6.152 2.097 8.865 6.486 16.315 2.483 4.895-2.634 6.64-9.505.667-15.974-5.974-6.47-16.514-8.269-21.782-6.005-5.268 2.264-6.746 7.268-6.746 7.268-2.135 8.454 5.393 10.131 11.546 12.228Zm.022-18.031c6.398-.56 12.355 4.009 13.452 4.937 6.007 5.105 5.951 10.967 1.476 13.547-4.474 2.58-11.264-1.549-15.856-3.366-4.263-1.688-7.249-1.794-8.251-5.659-1.001-3.863 2.786-8.9 9.179-9.46Zm-32.353 41.39c4.716.292 8.279-2.629 9.655-6.351 1.376-3.722.783-6.418 2.561-11.344 1.778-4.926 3.25-12.574-5.067-14.576-8.586-2.063-15.835 7.14-16.674 16.88-.744 9.409 3.466 15.017 9.525 15.391Zm-6.902-17.177c.951-9.281 10.42-15.761 15.763-11.602 5 3.891 1.051 9.332 0 14.503-1.052 5.172-1.92 11.708-8.67 11.915-6.751.207-7.607-9.805-7.09-14.814l-.003-.002Z"/><path fill="#040002" d="M93.227 99.185c.22.112.45.205.688.28-1.052-1.554-1.232-3.702-.285-5.596 1.24-2.482 3.987-3.684 6.393-2.91a4.898 4.898 0 0 0-1.863-1.638c-2.55-1.268-5.722-.094-7.081 2.63-1.36 2.726-.403 5.96 2.148 7.234Zm35.468-22.487c2.113.173 3.859 1.437 4.646 3.137.058-.24.095-.486.112-.733.229-2.84-2.047-5.34-5.079-5.58-3.032-.24-5.683 1.862-5.918 4.7a4.873 4.873 0 0 0 .442 2.438c.578-2.458 3.028-4.186 5.797-3.962Z"/><path fill="#000" d="M50.186 175.996s-1.79 6.452-7.014 10.69c5.225 4.239 7.014 10.691 7.014 10.691s1.796-6.452 7.02-10.691c-5.224-4.238-7.02-10.69-7.02-10.69Z"/><path fill="#040002" d="M34.501 128.377s-1.4 5.047-5.485 8.363c4.086 3.315 5.485 8.362 5.485 8.362s1.405-5.047 5.491-8.362c-4.086-3.316-5.49-8.363-5.49-8.363Z"/><path fill="#000" d="M34.501 128.377s-1.4 5.047-5.485 8.363c4.086 3.315 5.485 8.362 5.485 8.362s1.405-5.047 5.491-8.362c-4.086-3.316-5.49-8.363-5.49-8.363Z"/><path fill="#040002" d="M104.823 28.717s1.656-5.948 6.477-9.857c-4.819-3.91-6.474-9.86-6.474-9.86s-1.654 5.952-6.472 9.86c4.818 3.909 6.469 9.857 6.469 9.857Z"/><path fill="#000" d="M104.823 28.717s1.656-5.948 6.477-9.857c-4.819-3.91-6.474-9.86-6.474-9.86s-1.654 5.952-6.472 9.86c4.818 3.909 6.469 9.857 6.469 9.857Z"/><path fill="#040002" d="M173.855 68.954s1.499-5.387 5.861-8.925c-4.362-3.539-5.861-8.926-5.861-8.926s-1.494 5.387-5.855 8.925c4.361 3.539 5.855 8.926 5.855 8.926Z"/><path fill="#000" d="M173.855 68.954s1.499-5.387 5.861-8.925c-4.362-3.539-5.861-8.926-5.861-8.926s-1.494 5.387-5.855 8.925c4.361 3.539 5.855 8.926 5.855 8.926Z"/><path fill="#040002" d="M217.846 110.344s-1.055 3.805-4.135 6.301c3.079 2.499 4.135 6.303 4.135 6.303s1.058-3.805 4.137-6.303c-3.079-2.498-4.137-6.301-4.137-6.301Z"/><path fill="#000" d="M217.846 110.344s-1.055 3.805-4.135 6.301c3.079 2.499 4.135 6.303 4.135 6.303s1.058-3.805 4.137-6.303c-3.079-2.498-4.137-6.301-4.137-6.301Zm-10.424 19.947s-1.651 5.95-6.469 9.86c4.818 3.909 6.469 9.86 6.469 9.86s1.655-5.951 6.475-9.86c-4.82-3.91-6.475-9.86-6.475-9.86ZM87.719 40.939s1.404-4.853 5.49-8.042c-4.086-3.189-5.49-8.041-5.49-8.041s-1.4 4.853-5.487 8.041c4.086 3.189 5.487 8.042 5.487 8.042Z"/></g><defs><clipPath id="a"><path fill="#fff" d="M29 9h193v232H29z"/></clipPath></defs></svg>