<svg width="250" height="250" viewBox="0 0 250 250" fill="none" xmlns="http://www.w3.org/2000/svg">
<g clip-path="url(#clip0_981_1648)">
<path fill-rule="evenodd" clip-rule="evenodd" d="M74.3494 87.364C75.3382 86.5439 76.2271 86.2616 76.2271 86.2616C76.1235 88.153 76.3621 89.7605 76.7929 91.1162C77.0936 92.0913 77.5277 93.0209 78.0824 93.8777C79.7218 96.3965 81.8331 97.3828 81.8331 97.3828C82.0849 92.5377 84.5752 90.9009 84.5752 90.9009C84.1622 93.7297 84.1892 100.978 86.6691 106.729C89.562 113.426 86.5746 113.125 90.5996 121.526C95.6667 132.087 110.028 131.957 110.028 131.957C101.794 134.323 92.6972 131.459 88.241 124.103C86.4848 121.194 85.7748 118.805 85.4558 116.725C83.4253 116.044 80.1062 113.175 79.9041 112.996C80.0652 113.032 82.7025 113.632 85.1816 113.641C85.0967 111.834 85.052 110.232 84.4 108.617C82.0017 108.326 79.405 106.729 79.405 106.729C79.1403 111.374 76.7527 113.686 74.0508 114.49L73.3657 118.007C75.9752 121.499 82.5563 126.64 82.5563 126.64C82.5563 126.64 77.0269 124.919 72.8087 120.84C72.295 123.467 71.7813 126.093 71.2676 128.72C73.9588 130.89 76.7656 132.764 79.4497 134.413C87.3467 139.267 98.1305 141.475 100.924 141.34C103.61 140.865 106.381 140.278 109.135 139.623C106.309 138.974 99.5893 137.291 95.8427 135.235C98.6101 135.374 109.341 136.79 119.624 136.853C129.237 134.083 136.748 131.34 136.748 131.34C136.748 131.34 132.792 125.822 135.598 119.376C138.404 112.93 144.416 111.397 147.304 110.987C149.753 109.145 153.023 102.201 153.418 95.8633C153.827 89.2513 149.186 86.9697 146.528 83.5361C143.868 80.1025 142.147 75.6158 138.689 71.1868C141.923 72.778 144.057 75.6518 144.057 75.6518C144.515 74.4461 146.914 67.6591 144.807 63.5485C142.484 59.0303 137.238 56.995 137.238 56.995C137.826 56.3221 139.34 55.6326 139.34 55.6326C131.743 51.8222 124.79 56.7891 124.79 56.7891C124.592 55.6676 124.731 54.4626 124.731 54.4626C120.859 57.7123 119.763 63.7639 119.763 63.7639C127.962 63.71 130.881 66.8749 130.881 66.8749C122.064 65.3595 112.163 66.1665 104.49 70.0483C96.817 73.9298 89.9443 82.0035 89.9443 82.0035C90.8746 77.3547 93.3139 75.2616 93.3139 75.2616C89.253 72.0876 84.9406 72.608 84.9406 72.608C85.7537 73.1952 86.6699 74.7189 86.6699 74.7189C84.9128 74.8214 83.1897 75.2438 81.585 75.9651C80.8725 76.2825 80.1874 76.6574 79.5363 77.0868C77.7663 78.2388 76.3294 79.7095 75.3498 81.2644C73.9887 83.4071 73.4903 85.7057 74.1411 87.5491C74.2098 87.4851 74.2819 87.4223 74.3494 87.364ZM115.695 84.9749C115.695 84.9749 116.88 80.9585 121.112 79.1477C125.344 77.3365 133.803 78.7803 138.605 83.9618C143.407 89.1438 142.001 94.6572 138.07 96.7685C132.086 99.9781 129.908 96.4594 124.967 94.7783C120.026 93.0977 113.979 91.7527 115.695 84.9749ZM119.176 98.6604C122.082 98.2524 123.061 100.099 121.97 102.623C120.878 105.146 119.297 106.346 117.95 106.666C115.267 107.294 112.06 104.976 111.979 103.183C111.898 101.39 116.27 99.0638 119.176 98.6604ZM120.761 109.163C122.81 110.396 127.365 109.423 127.661 103.82C127.661 103.82 130.284 107.244 127.387 110.216C128.191 111.341 129.48 117.447 124.903 119.822C119.876 122.435 116.395 117.182 115.645 115.717C112.244 115.371 111.624 112.319 111.624 112.319C117.967 115.371 120.762 109.163 120.762 109.163H120.761ZM91.3514 101.166C92.0257 93.3573 97.8471 85.9793 104.743 87.6335C111.422 89.238 110.245 95.3657 108.812 99.3192C107.379 103.273 107.86 105.424 106.755 108.414C105.65 111.404 102.788 113.74 99.0016 113.506C94.1353 113.206 90.7545 108.71 91.3518 101.166H91.3514Z" fill="#797979"/>
<path fill-rule="evenodd" clip-rule="evenodd" d="M156.452 109.01C156.452 109.01 154.915 112.585 148.55 113.829C141.439 115.22 136.573 120.342 139.849 124.775C143.2 129.311 151.573 128.114 151.573 128.114C144.049 132.234 138.353 127.474 138.353 127.474C141.017 133.889 150.76 135.959 158.621 129.459C166.482 122.959 167.174 114.725 167.174 114.725C166.236 116.823 164.277 119.086 164.156 119.226C164.263 118.965 166.622 113.201 166.294 108.822C165.957 104.339 162.462 100.906 156.294 98.14C156.02 104.424 151.443 110.512 151.443 110.512C153.474 110.208 156.452 109.01 156.452 109.01Z" fill="#797979"/>
<path fill-rule="evenodd" clip-rule="evenodd" d="M114.217 104.062C116.382 105.774 118.022 105.061 119.455 103.461C120.888 101.861 120.438 100.521 118.323 101.148C116.207 101.775 115.138 102.404 114.168 102.995C113.938 103.134 113.435 103.443 114.217 104.062Z" fill="#797979"/>
<path fill-rule="evenodd" clip-rule="evenodd" d="M145.644 147.037C150.176 149.463 157.444 155.42 159.74 167.195C159.502 166.693 151.962 150.884 135.284 150.279C116.816 155.635 97.5143 159.261 94.104 159.181C94.046 162.054 99.5849 195.786 101.907 207.181C114.651 213.851 133.466 211.076 141.662 209.059C155.871 205.051 165.435 188.542 165.435 188.542C164.729 196.817 158.916 203.42 158.736 203.626C167.123 199.704 178.497 189.752 180.163 186.059C175.228 170.163 170.293 154.268 165.358 138.373C160.616 141.415 153.536 144.364 145.644 147.037Z" fill="#797979"/>
<path fill-rule="evenodd" clip-rule="evenodd" d="M67.9564 113.986C67.1472 113.574 66.5102 113.032 66.137 112.408C66.137 112.408 66.9593 112.686 68.1452 112.821C68.8191 112.898 69.4989 112.912 70.1754 112.861C70.9882 112.794 71.8419 112.614 72.6596 112.242C73.4875 111.874 74.2216 111.324 74.8065 110.633C76.4911 108.647 76.8105 106.079 76.1771 103.613C75.9058 102.567 75.4866 101.565 74.9324 100.637C74.3152 99.5903 73.5412 98.6442 72.6372 97.8312C72.0797 97.3232 71.4698 96.8752 70.8178 96.4953C70.0976 96.0721 69.3241 95.7463 68.5179 95.5269C62.2645 93.8458 54.7987 101.56 58.6726 112.148C60.384 116.833 63.1061 120.782 66.2912 124.148L67.9564 113.986Z" fill="#797979"/>
<path fill-rule="evenodd" clip-rule="evenodd" d="M169.326 107.292C169.326 107.292 173.445 117.862 162.717 129.574C155.755 136.971 144.641 138.764 138.801 133.716C138.801 133.716 121.057 140.332 106.343 143.188C91.6354 146.043 80.9175 146.684 83.4103 139.808C82.3014 139.337 80.9672 138.633 79.6554 137.89C72.2794 140.462 70.4555 146.294 72.3724 150.499C68.5269 148.406 66.6312 141.351 75.8404 135.617C74.8202 134.981 74.1508 134.541 74.1508 134.541C74.1508 134.541 66.0472 137.884 62.4894 143.748C58.9316 149.611 61.7395 155.438 69.3042 156.41C76.8689 157.383 98.0909 156.862 128.526 148.793C158.961 140.724 182.203 126.492 185.35 117.527C188.497 108.563 175.615 106.509 169.326 107.292Z" fill="#797979"/>
<path fill-rule="evenodd" clip-rule="evenodd" d="M119.297 90.6322C119.418 90.907 120.607 91.9209 120.84 92.1838C121.072 92.4467 121.581 92.6116 121.581 92.6116C122.448 92.8795 123.315 93.1473 124.182 93.4147C125.049 93.6826 126.99 94.0128 127.084 94.069C127.178 94.1248 129.428 94.6779 129.428 94.6779C129.428 94.6779 133.784 94.5543 133.859 94.5543C133.933 94.5543 135.338 94.1248 135.394 94.0872C135.449 94.0496 136.872 92.7414 136.872 92.7414C137.066 91.7077 137.259 90.6743 137.453 89.6406C137.453 88.6883 137.453 87.7355 137.453 86.7832C137.453 85.8305 135.862 83.4402 135.843 83.3654C135.824 83.2905 135.14 82.3337 135.14 82.3337C134.725 82.0055 134.311 81.6773 133.896 81.3491L130.789 80.286C130.789 80.286 129.316 79.8727 129.261 79.8599C129.205 79.8475 127.306 79.7074 127.25 79.7578C127.194 79.8078 125.227 79.7578 125.227 79.7578C124.591 79.7309 123.955 79.7036 123.319 79.6768C122.683 79.6499 121.1 80.253 121.026 80.286C120.953 80.3195 119.165 81.7062 119.127 81.762C119.089 81.8178 118.378 83.715 118.378 83.715C118.378 83.715 118.079 85.2547 118.06 85.3109C118.041 85.3671 118.454 88.5982 118.454 88.5982C118.454 88.5982 119.176 90.3573 119.297 90.6322Z" fill="#797979"/>
<path fill-rule="evenodd" clip-rule="evenodd" d="M95.9555 108.282C96.7604 108.581 97.5652 108.88 98.37 109.179C99.5774 109.179 100.784 109.179 101.992 109.179C102.076 109.179 104.041 107.975 104.041 107.975C104.631 107.574 105.221 107.173 105.81 106.772C106.4 106.371 106.765 104.753 106.793 104.529C106.821 104.304 107.046 101.742 107.046 101.742C107.046 101.742 107.666 99.759 107.722 99.5978C107.779 99.4366 107.972 98.3933 108.105 98.252C108.237 98.1106 108.536 96.9061 108.536 96.9061L108.925 95.4487C108.906 94.9213 108.887 94.3939 108.869 93.8665C108.887 93.3201 108.906 92.7736 108.925 92.2272C108.588 91.7139 108.251 91.2001 107.914 90.6863C107.54 90.2581 107.165 89.8303 106.79 89.4021C106.07 89.2975 105.349 89.1925 104.628 89.088C104.535 90.2833 104.441 91.4787 104.348 92.674C102.907 92.4219 101.465 92.1698 100.024 91.9176C97.9608 92.9196 95.8975 93.9215 93.8343 94.9234L93.3588 95.8972C92.952 97.3075 92.5449 98.7174 92.1377 100.128C92.3527 101.594 92.5681 103.06 92.783 104.526C92.9984 105.992 94.5522 107.271 94.6363 107.328C94.7203 107.384 95.9555 108.282 95.9555 108.282Z" fill="#797979"/>
<path fill-rule="evenodd" clip-rule="evenodd" d="M180.605 181.151C179.809 178.938 179.014 176.725 178.219 174.512C177.311 171.561 176.403 168.61 175.495 165.659L172.098 155.516C171.321 152.724 170.544 149.931 169.768 147.139C168.56 143.562 167.353 139.986 166.146 136.409L144.171 145.954C140.065 147.099 135.959 148.245 131.853 149.39C128.259 150.449 124.666 151.507 121.072 152.566L109.994 154.843C106.001 155.69 102.008 156.537 98.0153 157.383C96.7549 157.744 95.4948 158.106 94.2344 158.467C104.566 163.136 115.724 154.805 129.797 159.588C143.871 164.371 153.081 174.829 153.38 182.3C153.38 182.3 157.086 178.116 157.311 173.597C161.391 191.042 151.808 206.357 119.989 212.184C119.989 212.184 132.83 213.118 139.642 211.549C146.455 209.981 152.37 207.926 152.37 207.926C154.959 206.846 157.549 205.765 160.138 204.685C162.028 203.752 163.919 202.818 165.809 201.884C167.839 200.296 169.87 198.708 171.901 197.121C174.129 195.02 176.356 192.919 178.583 190.818C179.66 189.305 180.736 187.792 181.812 186.279L180.605 181.151Z" fill="#4B4B4B"/>
<path fill-rule="evenodd" clip-rule="evenodd" d="M113.251 139.912C114.206 139.445 115.16 138.978 116.115 138.511C113.251 131.031 110.387 123.55 107.523 116.07L85.8309 111.159C85.8309 111.159 82.0872 110.392 78.5477 108.282L77.2583 105.228C73.6994 98.9158 67.0945 98.1404 63.0522 102.81C59.0097 107.479 60.8044 115.398 67.6565 121.898C74.5087 128.397 90.0422 139.118 108.31 140.762L113.251 139.912Z" fill="#4B4B4B"/>
<path fill-rule="evenodd" clip-rule="evenodd" d="M124.239 92.443C127.925 93.8996 133.379 97.2166 136.973 95.1412C140.567 93.0663 140.612 88.3729 135.787 84.2805C134.907 83.5361 130.123 79.8739 124.984 80.322C119.845 80.77 116.808 84.805 117.611 87.9066C118.415 91.0079 120.815 91.0893 124.239 92.443ZM123.057 87.4987C123.245 85.2216 125.37 83.5319 127.809 83.7303C130.249 83.9291 132.073 85.9284 131.888 88.2038C131.875 88.4018 131.845 88.5982 131.798 88.7912C131.165 87.4284 129.763 86.4137 128.067 86.276C125.843 86.0967 123.876 87.4822 123.413 89.4546C123.128 88.8441 123.005 88.1704 123.057 87.4987Z" fill="#4B4B4B"/>
<path fill-rule="evenodd" clip-rule="evenodd" d="M99.1547 111.615C104.576 111.449 105.277 106.209 106.118 102.063C106.958 97.9159 110.134 93.5549 106.118 90.4346C101.827 87.0998 94.2222 92.295 93.4584 99.7359C93.0454 103.752 93.7372 111.785 99.1547 111.615ZM97.8566 98.5033C98.948 96.3205 101.495 95.3793 103.543 96.3949C104.147 96.697 104.662 97.1496 105.04 97.7085C103.106 97.0851 100.904 98.0486 99.9053 100.041C99.146 101.56 99.2894 103.282 100.134 104.527C99.9438 104.467 99.7591 104.392 99.5814 104.303C97.5327 103.282 96.7606 100.687 97.8566 98.5033Z" fill="#4B4B4B"/>
<path fill-rule="evenodd" clip-rule="evenodd" d="M115.983 105.273C117.332 105.777 117.453 106.002 118.37 105.273C119.287 104.545 120.579 103.284 120.579 103.284C120.747 102.926 120.916 102.568 121.084 102.21C121.084 101.961 121.084 101.712 121.084 101.463C121.084 101.426 120.672 100.408 120.672 100.408C120.672 100.408 120.178 100.071 120.148 100.071C120.119 100.071 119.437 100.053 119.24 100.109C119.044 100.165 118.594 100.193 118.304 100.333C118.014 100.474 115.871 101.575 115.871 101.575C115.871 101.575 114.635 104.771 115.983 105.273Z" fill="#4B4B4B"/>
<path fill-rule="evenodd" clip-rule="evenodd" d="M78.9424 90.4917C79.2092 89.5393 80.7956 88.1295 80.7956 88.1295C80.0099 92.7989 82.6488 95.5629 82.6488 95.5629C88.4321 96.3846 90.8657 94.5919 90.8657 94.5919C90.8657 94.5919 102.059 79.2391 92.7748 76.7735C83.4901 74.308 79.0829 81.3045 79.0829 81.3045C80.3325 80.8143 82.6488 80.8841 82.6488 80.8841C77.9322 84.2722 78.9424 90.4917 78.9424 90.4917Z" fill="#4B4B4B"/>
<path fill-rule="evenodd" clip-rule="evenodd" d="M138.781 75.9146C139.916 75.5161 141.052 75.1177 142.187 74.7188C145.518 66.9493 140.119 63.5126 140.119 63.5126C141.246 63.4773 142.375 63.5148 143.498 63.6247C138.399 57.4238 130.807 59.7583 130.807 59.7583C131.443 58.3578 133.015 56.9384 133.015 56.9384C126.951 57.0878 122.403 61.3275 121.805 64.596L124.331 69.5646L138.781 75.9146Z" fill="#4B4B4B"/>
<path fill-rule="evenodd" clip-rule="evenodd" d="M155.013 110.285C158.186 108.562 157.143 104.565 154.859 102.659C154.859 102.659 151.265 108.617 150.647 110.509C150.03 112.402 151.841 112.008 155.013 110.285Z" fill="#4B4B4B"/>
<path fill-rule="evenodd" clip-rule="evenodd" d="M138.023 141.509C160.773 136.13 179.21 122.832 180.632 116.892C182.055 110.953 172.471 110.99 172.471 110.99C171.685 114.314 169.01 117.219 169.01 117.219C169.01 117.219 166.489 121.11 165.903 122.361C166.42 121.254 166.938 120.148 167.456 119.041C167.675 118.275 167.893 117.51 168.112 116.744C168.28 115.424 168.448 114.105 168.617 112.785C168.486 111.521 168.355 110.257 168.223 108.993C167.799 107.735 167.375 106.478 166.951 105.22C166.059 103.87 165.167 102.518 164.274 101.168C163.513 100.663 162.752 100.159 161.991 99.6548C161.648 99.773 161.304 99.8916 160.961 100.01C160.618 100.128 166.427 107.275 162.441 116.465C162.441 116.465 162.984 112.71 162.159 110.487C162.159 110.487 159.896 119.77 151.772 124.029C143.648 128.287 137.713 120.622 143.237 115.026C143.237 115.026 140.092 115.456 139.572 116.646C139.053 117.837 137.584 118.314 137.135 120.405C136.863 121.695 136.75 123.011 136.797 124.327C136.669 125.37 136.665 126.424 136.785 127.468C136.985 129.186 138.632 131.128 138.632 131.128C138.85 131.306 139.068 131.484 139.287 131.662C137.983 132.182 136.679 132.701 135.375 133.22C131.22 134.686 127.065 136.151 122.91 137.617C118.923 138.569 114.937 139.522 110.951 140.474C107.068 141.352 103.183 142.23 99.2998 143.108C96.9226 143.145 94.5454 143.182 92.1686 143.219C90.7085 142.949 89.2488 142.678 87.7887 142.407C87.2274 141.427 86.6658 140.446 86.1041 139.465C83.9096 138.359 81.7146 137.252 79.5201 136.146C78.6735 136.365 77.8264 136.585 76.9793 136.804C75.769 137.552 74.559 138.3 73.3487 139.048C72.1385 139.795 69.7923 143.903 70.4288 146.629C71.0838 149.467 71.9259 156.079 97.7556 151.896C123.585 147.712 138.023 141.509 138.023 141.509ZM162.872 126.903C163.275 126.375 163.678 125.848 164.081 125.32C163.547 126.111 162.962 126.962 162.385 127.837C160.955 130.007 158.868 130.733 157.325 131.913C158.238 131.214 159.151 130.515 160.065 129.817L162.872 126.903ZM153.382 133.459C154.609 133.007 155.835 132.555 157.062 132.104C155.758 133.012 154.022 133.592 151.593 134.106L153.382 133.459ZM141.199 133.216L146.328 134.764C144.984 134.764 143.879 134.597 142.981 134.308C141.33 133.778 139.299 131.674 139.285 131.66L141.199 133.216Z" fill="#4B4B4B"/>
<path fill-rule="evenodd" clip-rule="evenodd" d="M119.989 104.229C120.981 103.762 120.841 102.772 120.851 102.725C120.861 102.679 121.094 102.091 121.197 101.512C121.3 100.932 120.738 100.783 120.028 100.4C119.318 100.018 117.932 100.269 117.932 100.269C117.714 100.493 117.495 100.718 117.277 100.942C119.392 102.119 116.772 103.445 116.584 105.575C117.649 105.976 118.996 104.696 119.989 104.229Z" fill="#383838"/>
<path fill-rule="evenodd" clip-rule="evenodd" d="M90.2002 102.455C90.2002 102.567 90.93 107.554 91.015 108.493C91.0995 109.432 92.5024 112.121 92.5882 112.344C92.6739 112.568 97.8379 115.93 98.2878 116.127C98.7372 116.322 101.881 116.378 101.966 116.322C102.05 116.266 106.121 113.855 106.205 113.773C106.289 113.691 108.479 107.526 108.479 107.526C108.077 105.434 107.674 103.342 107.272 101.25C105.896 101.278 102.452 107.61 99.139 107.889C95.8261 108.169 94.0669 104.976 93.1126 100.643C93.1109 100.643 90.2002 102.343 90.2002 102.455Z" fill="#383838"/>
<path fill-rule="evenodd" clip-rule="evenodd" d="M134.625 100.643C134.738 100.643 139.904 99.7838 141.064 99.4101C142.225 99.0365 144.021 96.3845 144.021 96.3845C144.621 94.6163 145.22 92.8485 145.82 91.0802C146.419 89.3124 144.397 87.3821 144.36 87.2697C144.323 87.1577 138.968 79.7995 135.823 78.402C132.679 77.0046 133.615 77.6345 133.241 77.5225C132.867 77.41 131.144 78.307 131.069 78.402C130.995 78.4971 130.882 80.9961 130.882 80.9961C136.235 83.7977 137.367 89.8493 134.419 91.8383C131.471 93.8276 128.523 92.1189 124.668 93.2672C124.668 93.2672 125.267 96.0485 125.342 96.1626C125.418 96.2762 134.513 100.643 134.625 100.643Z" fill="#383838"/>
<path fill-rule="evenodd" clip-rule="evenodd" d="M83.7898 85.4775C83.1913 87.3615 83.2659 90.268 83.799 92.3268C83.799 92.3268 83.8271 93.2936 83.8271 93.3775C83.8271 93.4614 91.155 90.1837 91.155 90.1837C92.587 88.2787 94.0189 86.3736 95.4505 84.4686C96.8824 82.5635 96.0403 80.6022 91.5763 79.2296C87.1123 77.8569 84.6489 80.6117 84.6489 80.6117C85.2856 80.5741 86.184 80.7986 86.184 80.7986C82.7025 83.124 82.2158 86.6352 82.2158 86.6352C82.536 86.1496 83.7898 85.4775 83.7898 85.4775Z" fill="#383838"/>
<path fill-rule="evenodd" clip-rule="evenodd" d="M137.003 74.8581C137.003 74.8581 138.659 75.5583 140.035 72.4209C141.411 69.2834 138.118 66.1805 138.118 66.1805C138.627 66.3375 139.126 66.5222 139.614 66.7336C137.227 61.9156 132.257 62.6441 132.257 62.6441C132.629 62.1471 133.633 61.6075 133.633 61.6075C128.467 60.403 125.304 64.9508 125.304 64.9508C125.225 65.6387 125.148 66.3265 125.069 67.0144C126.005 68.3405 126.941 69.6665 127.877 70.9926L137.003 74.8581Z" fill="#383838"/>
<path fill-rule="evenodd" clip-rule="evenodd" d="M153.718 105.294C152.544 106.9 151.371 108.506 150.198 110.113C150.149 110.735 150.099 111.358 150.049 111.98C151.402 111.444 152.757 110.909 154.111 110.373C155.814 108.151 154.878 106.17 153.718 105.294Z" fill="#383838"/>
<path fill-rule="evenodd" clip-rule="evenodd" d="M140.022 127.403C139.422 127.076 138.823 126.749 138.223 126.422C137.91 126.586 137.597 126.749 137.283 126.913C137.283 127.342 137.283 127.772 137.283 128.201C137.283 128.243 137.844 129.532 137.844 129.532C138.429 130.326 139.013 131.119 139.597 131.913C140.566 132.455 141.535 132.997 142.504 133.538C143.776 133.828 145.049 134.117 146.321 134.407C147.168 134.491 148.016 134.575 148.863 134.659C149.709 134.743 152.189 134.085 152.246 134.043C152.302 134 155.054 133.132 155.109 133.062C155.165 132.991 156.915 132.469 160.099 131.292C163.283 130.115 165.715 127.483 166.575 126.231C169.701 124.625 173.473 119.74 168.419 118.368C168.419 118.368 167.333 117.751 167.7 115.791C168.066 113.83 166.848 112.204 165.668 116.043C164.489 119.881 160.269 124.046 160.269 124.046C160.793 122.963 161.008 119.29 161.008 119.29C158.65 122.737 154.092 128.806 147.953 128.769C146.025 128.575 144.097 128.38 142.169 128.186L140.022 127.403Z" fill="#383838"/>
<path fill-rule="evenodd" clip-rule="evenodd" d="M148.149 135.709C145.163 134.673 142.178 133.636 139.192 132.6C138.762 132.482 138.331 132.364 137.9 132.245C135.018 133.397 132.136 134.548 129.253 135.7C126.602 136.484 123.95 137.269 121.299 138.053C120.577 138.234 119.856 138.416 119.135 138.597C120.244 138.241 121.352 137.885 122.461 137.529C124.146 136.997 125.831 136.465 127.515 135.933L138.685 131.759C138.143 130.778 137.6 129.798 137.057 128.818C136.748 127.286 136.439 125.755 136.131 124.223C135.897 123.943 135.663 123.662 135.429 123.382C135.722 122.651 136.015 121.919 136.308 121.188C127.512 121.611 118.716 122.034 109.919 122.458C101.123 122.881 87.1216 117.004 83.4151 114.128C83.4151 114.128 80.3081 113.287 79.2229 112.708C79.2229 112.708 80.3735 115.118 81.9041 116.266C81.9041 116.266 77.875 114.502 75.6005 112.61C75.9982 111.686 76.3962 110.762 76.7939 109.837C76.7235 109.543 76.6535 109.248 76.5835 108.954C76.5135 108.66 75.2348 102.623 68.7975 103.968C62.3603 105.313 63.8371 114.277 68.2918 117.303C68.2918 117.303 70.5944 117.004 73.4019 119.731C76.2094 122.458 77.6646 123.565 77.6646 123.565C78.5444 124.12 79.4237 124.676 80.3035 125.231C83.778 127.571 90.2563 130.807 95.4225 132.683C95.4225 132.683 90.7708 132.992 87.7392 132.504C87.7392 132.504 97.2285 136.24 104.603 137.211C111.977 138.182 115.103 139.489 115.103 139.489C115.561 139.415 116.019 139.34 116.476 139.265L113.943 139.905C111.465 140.559 108.989 141.213 106.512 141.866C104.223 142.259 101.933 142.651 99.6429 143.043C97.0102 143.273 94.377 143.504 91.7442 143.734C89.6603 142.153 87.5764 140.572 85.4929 138.99C83.964 138.703 82.4355 138.417 80.9071 138.13C77.3696 140.409 75.3296 146.33 82.7412 148.757C90.1532 151.185 117.518 147.787 139.529 136.58C139.529 136.578 146.238 137.194 148.149 135.709Z" fill="#383838"/>
<path fill-rule="evenodd" clip-rule="evenodd" d="M179.865 179.647C179.366 177.867 178.867 176.087 178.367 174.306L175.747 166.91C174.955 164.333 174.163 161.755 173.37 159.178C172.784 157.285 172.197 155.392 171.611 153.5L169.795 147.168C169.115 144.97 168.435 142.772 167.755 140.574C167.069 139.235 166.382 137.897 165.696 136.558C164.442 137.119 163.188 137.679 161.935 138.239C160.075 139.166 158.216 140.093 156.356 141.02C153.524 142.197 150.692 143.374 147.859 144.551C145.289 145.279 142.719 146.008 140.148 146.736C137.578 147.464 145.876 149.015 147.448 150.836C149.02 152.657 151.996 153.721 153.035 155.459C154.074 157.196 155.477 158.232 156.011 159.577C156.545 160.921 157.36 161.533 157.948 163.275C160.391 168.178 162.553 173.931 162.665 176.359C162.665 176.359 164.05 171.614 164.088 166.086C164.088 166.086 170.769 186.537 161.018 196.754C151.547 206.727 156.264 206.41 159.24 205.028C162.216 203.645 167.644 200.246 167.644 200.246C169.49 198.796 171.337 197.345 173.183 195.895C174.781 194.413 176.378 192.931 177.976 191.45C179.217 189.912 180.459 188.374 181.701 186.836C181.744 186.556 181.787 186.275 181.831 185.995L179.865 179.647Z" fill="#383838"/>
<path fill-rule="evenodd" clip-rule="evenodd" d="M117.63 188.239C115.157 168.852 99.2685 161.064 92.9795 161.316C95.4503 176.765 97.9207 192.215 100.391 207.664C100.535 207.838 100.679 208.013 100.822 208.187C103.942 209.27 107.061 210.353 110.181 211.436C130.245 205.982 121.785 181.889 119.502 179.012C119.914 184.54 117.63 188.239 117.63 188.239Z" fill="#A7A5A5"/>
<path fill-rule="evenodd" clip-rule="evenodd" d="M187.02 112.331C186.604 111.663 186.187 110.995 185.771 110.328C185.088 109.678 184.404 109.029 183.721 108.38C182.757 107.96 181.793 107.54 180.83 107.12C179.178 106.83 177.526 106.541 175.874 106.251C175.72 106.424 175.566 106.596 175.411 106.769C183.721 108.45 185.629 116.574 179.51 125.932C180.366 125.563 181.223 125.194 182.079 124.825C182.631 124.199 183.183 123.574 183.735 122.948C184.287 122.322 185.813 120.343 185.827 120.302C185.841 120.26 186.922 117.5 186.922 117.5C187.001 116.697 187.081 115.893 187.16 115.09L187.02 112.331Z" fill="#A7A5A5"/>
<path fill-rule="evenodd" clip-rule="evenodd" d="M67.6558 153.052C61.367 147.971 64.8483 141.564 72.8221 134.281C72.8221 134.281 68.911 135.831 63.8193 139.81C58.7276 143.788 59.1398 147.206 59.1398 147.206C59.2708 148.656 59.4018 150.107 59.5328 151.557C59.6637 153.007 61.3481 154.77 61.6479 155.069C61.9478 155.368 65.7838 157.042 65.7838 157.042C67.2251 157.274 68.6664 157.506 70.1077 157.738C71.549 157.97 76.3401 158.765 76.4151 158.765C77.7878 158.765 79.1601 158.765 80.5328 158.765C83.5777 158.149 86.6222 157.532 89.6671 156.916C92.7116 156.299 73.9447 158.132 67.6558 153.052Z" fill="#A7A5A5"/>
<path fill-rule="evenodd" clip-rule="evenodd" d="M68.2017 124.921C58.0539 115.228 56.9628 105.022 60.4123 100.459C63.8617 95.896 68.7043 95.5607 71.5491 96.4577C71.1217 95.8972 70.6944 95.3371 70.267 94.7767C69.3829 94.5617 68.4987 94.3468 67.6146 94.1323C66.7115 94.1323 65.8083 94.1323 64.9051 94.1323C64.0068 94.4162 63.1084 94.7002 62.21 94.9846C61.1711 95.8575 60.1322 96.7305 59.0933 97.6038C58.5178 98.6219 57.9424 99.6399 57.3669 100.658C56.9692 101.755 56.5715 102.852 56.1738 103.95C56.1738 104.814 56.1738 105.677 56.1738 106.541C56.3282 107.905 56.4825 109.268 56.6369 110.631C57.058 111.799 57.479 112.966 57.9001 114.133C58.6254 115.609 59.3507 117.084 60.076 118.56C61.1242 120.227 62.1724 121.894 63.2206 123.56C64.0956 124.518 64.9706 125.474 65.8456 126.431C67.4225 127.758 68.9994 129.084 70.5763 130.41L75.658 133.776C77.1177 134.612 78.5778 135.448 80.0375 136.284C81.6712 137.101 83.3045 137.918 84.9377 138.735C87.2495 139.52 89.5608 140.304 91.8721 141.089L99.6644 142.069C89.8031 139.048 78.35 134.617 68.2017 124.921Z" fill="#A7A5A5"/>
<path fill-rule="evenodd" clip-rule="evenodd" d="M74.5246 89.4178C74.6617 89.1128 74.7992 88.8077 74.9363 88.5027C75.1923 89.5484 75.4478 90.5946 75.7038 91.6407C76.1781 92.562 76.6524 93.4834 77.1267 94.4047C77.6009 95.3264 78.9981 96.6838 79.0544 96.7954C79.1103 96.907 82.3487 98.9249 82.3487 98.9249C82.3735 98.2152 82.3984 97.5051 82.4233 96.7954C80.9913 96.039 76.8081 91.5845 77.4821 85.2531C77.4821 85.2531 76.2469 85.2717 75.2345 85.9066C75.2345 85.9066 75.8252 77.3522 86.2216 74.5696C86.0568 74.3535 85.8919 74.1369 85.7271 73.9207C85.5622 73.7041 90.0763 73.2252 93.801 75.7092C94.0193 75.5658 94.2376 75.4228 94.4563 75.2793C94.3316 74.9181 94.2069 74.5572 94.0822 74.196C93.3209 73.7041 92.5596 73.2123 91.7982 72.7206C90.744 72.3907 89.6895 72.0608 88.6353 71.731C87.787 71.6499 86.9382 71.5688 86.0899 71.4878C85.3161 71.575 84.5424 71.6622 83.7686 71.7494C83.569 71.9237 83.3697 72.098 83.1701 72.2724C83.2451 72.5463 83.32 72.8203 83.3946 73.0942L82.1051 74.3646C81.2067 74.6263 80.3083 74.8879 79.4098 75.1491C78.349 76.0147 77.2886 76.8798 76.2278 77.7453C75.6976 78.586 75.1674 79.4263 74.6368 80.267C74.2189 81.164 73.8009 82.0613 73.3831 82.9582C73.1897 84.0602 72.9962 85.1621 72.8027 86.2641C72.9587 87.1164 73.1147 87.9687 73.2707 88.821L74.5246 89.4178Z" fill="#A7A5A5"/>
<path fill-rule="evenodd" clip-rule="evenodd" d="M93.3161 96.1886C93.2321 96.9016 93.148 97.6142 93.0635 98.3272C93.0635 98.7505 93.0635 99.1737 93.0635 99.597C95.4784 94.8064 98.0892 89.9597 106.4 90.2213C106.075 89.7576 105.751 89.2942 105.427 88.8305C104.921 88.7433 104.416 88.656 103.911 88.5692C103.477 88.5006 103.043 88.432 102.61 88.3634C101.811 88.5159 101.012 88.6684 100.214 88.821C99.7208 89.0859 99.2283 89.3504 98.7353 89.615C98.1956 90.0787 97.6563 90.5421 97.117 91.0058C96.574 91.5721 96.0313 92.1388 95.4887 92.7051C95.1453 93.1502 94.8024 93.5954 94.459 94.0405L93.3161 96.1886Z" fill="#A7A5A5"/>
<path fill-rule="evenodd" clip-rule="evenodd" d="M124.332 79.9115C124.332 79.9115 122.825 79.2713 120.41 80.5886C117.995 81.9055 116.971 84.4685 116.971 84.4685C116.719 85.0559 116.466 85.6432 116.213 86.2306C116.363 86.9457 116.513 87.6611 116.663 88.3766C116.813 89.0921 117.66 90.1837 117.716 90.2399C117.771 90.2965 119.148 91.3166 119.148 91.3166C119.906 91.7044 120.664 92.0921 121.422 92.4794C122.142 92.5542 122.863 92.629 123.583 92.7038C117.594 89.4533 117.631 82.9281 124.332 79.9115Z" fill="#A7A5A5"/>
<path fill-rule="evenodd" clip-rule="evenodd" d="M143.699 59.7305C143.699 59.7305 142.534 58.4 142.492 58.3578C142.45 58.3156 140.33 56.5509 140.33 56.5509C140.751 56.2939 141.172 56.0371 141.593 55.7802C142.015 55.5233 140.554 54.883 140.512 54.8417C140.47 54.8004 138.701 53.8054 138.701 53.8054L135.768 53.1908H131.358C130.6 53.3356 129.842 53.4803 129.084 53.6251C128.331 53.7746 127.577 53.9242 126.824 54.0737C126.071 54.2232 125.645 53.9194 125.645 53.8077C125.645 53.696 125.547 52.8831 125.547 52.8831L124.593 53.146C124.593 53.146 122.993 53.9584 122.066 55.5415C121.14 57.1246 120.228 58.539 120.228 58.539C119.825 59.4309 119.423 60.3227 119.02 61.2145C118.758 62.4052 118.497 63.5959 118.234 64.7867C119.035 64.7259 119.834 64.6652 120.635 64.6045C121.435 64.5438 121.87 59.5058 124.229 57.0403C124.331 57.5912 124.434 58.142 124.537 58.6929C124.64 59.2438 130.349 53.2299 137.394 55.5554C136.917 56.1298 136.44 56.7041 135.963 57.2785C135.485 57.8528 143.236 59.2173 145.744 65.2312C145.764 64.5838 145.785 63.9363 145.805 63.2888C145.445 62.5743 145.084 61.8599 144.724 61.1454L143.699 59.7305Z" fill="#A7A5A5"/>
<path fill-rule="evenodd" clip-rule="evenodd" d="M159.856 105.238C158.902 105.443 159.085 109.925 156.056 112.746C154.65 114.056 154.31 113.985 153.834 115.006C153.036 116.713 154.802 118.788 158.087 115.006C161.372 111.224 160.81 105.032 159.856 105.238Z" fill="#A7A5A5"/>
<path fill-rule="evenodd" clip-rule="evenodd" d="M151.055 116.673C150.362 116.673 149.737 117.089 149.472 117.728C149.207 118.367 149.354 119.102 149.844 119.591C150.334 120.079 151.071 120.226 151.711 119.961C152.351 119.696 152.768 119.073 152.768 118.381C152.768 117.928 152.587 117.493 152.266 117.173C151.945 116.853 151.509 116.673 151.055 116.673Z" fill="#A7A5A5"/>
<path fill-rule="evenodd" clip-rule="evenodd" d="M143.114 76.2568C142.53 75.4736 141.945 74.6907 141.361 73.9075C141.136 73.6028 140.925 73.3203 140.737 73.065C138.967 70.923 133.033 67.0224 127.763 65.9512C126.285 65.6703 124.808 65.3895 123.33 65.1087H118.641C118.641 65.1087 112.181 65.617 112.1 65.6417C112.019 65.6663 105.587 67.7173 105.502 67.7702C105.416 67.8232 100.223 70.9351 100.223 70.9351C101.019 72.4487 101.814 73.9624 102.609 75.4756L107.711 78.3991C107.711 78.3991 110.779 83.8324 110.856 84.056C110.931 84.2801 112.724 90.9322 112.724 91.2282C112.724 91.5245 111.529 97.2794 111.151 98.6021C110.772 99.9243 109.206 111.364 107.804 114.277C106.403 117.191 100.276 122.404 97.3558 123.691C94.4359 124.977 95.0556 128.827 95.0916 128.881C95.1277 128.935 98.0516 130.473 98.0516 130.473C99.1178 130.852 100.184 131.232 101.25 131.612C102.123 131.623 102.996 131.635 103.869 131.647C108.878 132.346 117.466 131.943 124.774 130.253C126.466 129.198 128.158 128.143 129.849 127.088C130.622 125.153 131.395 123.219 132.167 121.283C132.581 119.078 132.994 116.873 133.408 114.667C134.287 112.334 135.165 110 136.044 107.666C136.923 105.332 139.301 102.735 139.472 102.287C139.643 101.838 142.334 95.0023 142.334 95.0023L143.401 83.0673L143.114 76.2568ZM115.587 105.677C115.532 105.65 115.097 105.422 115.034 105.386C114.972 105.35 114.414 105.081 114.288 104.87C114.163 104.659 113.754 104.18 113.713 104.135C113.672 104.09 112.981 103.516 112.981 103.516C112.981 103.516 113.08 102.79 113.098 102.749C113.116 102.709 113.713 102.064 113.713 102.064C113.746 101.932 113.779 101.801 113.812 101.669C113.852 101.669 114.998 101.392 115.034 101.364C115.071 101.337 117.192 100.275 117.192 100.275C117.704 100.199 118.216 100.123 118.728 100.047C119.061 100.014 119.393 99.9809 119.726 99.9483C119.88 99.99 120.034 100.032 120.188 100.074C120.259 100.141 120.329 100.208 120.399 100.275C120.571 100.423 120.743 100.571 120.916 100.719C120.891 100.825 120.891 100.936 120.916 101.042C120.961 101.221 120.916 101.67 120.916 101.67C120.93 101.825 120.935 101.98 120.934 102.136C120.929 102.289 120.61 103.033 120.578 103.086C120.547 103.139 120.018 103.844 119.991 103.942C119.963 104.041 119.443 104.557 119.33 104.669C119.218 104.781 118.63 105.202 118.571 105.256C118.512 105.31 117.605 105.637 117.605 105.637C117.605 105.637 116.581 105.762 116.536 105.762C116.491 105.762 115.636 105.698 115.587 105.677ZM126.179 116.686C125.882 117.601 124.746 118.201 124.719 118.241C124.692 118.281 122.908 119.043 122.868 119.057C122.828 119.07 121.35 119.057 121.322 119.057C121.295 119.057 119.063 118.214 119.063 118.214C119.063 118.214 117.743 117.134 117.715 117.081C117.686 117.027 116.645 114.655 116.645 114.655C116.828 114.376 117.011 114.096 117.193 113.817C118.171 113.224 119.149 112.631 120.127 112.037C120.38 111.809 120.633 111.58 120.885 111.352C122.566 111.249 124.246 111.145 125.926 111.043C127.606 110.939 126.488 112.445 126.64 113.409C126.792 114.373 126.476 115.775 126.179 116.685V116.686ZM140.504 92.2024C140.369 93.2105 139.83 94.0132 138.968 94.744C138.106 95.4748 136.421 96.5548 134.777 96.8326C133.133 97.1103 130.693 96.5147 128.524 95.2863C126.349 94.0492 124.031 93.1928 124.014 93.1163C124.014 93.1163 120.42 92.238 119.504 91.8482C118.587 91.4584 117.518 89.9609 116.806 88.8763C116.095 87.7917 116.169 86.9171 116.452 85.6263C116.734 84.335 118.639 81.9869 118.639 81.9869C119.382 81.3756 120.124 80.7647 120.867 80.1533C121.79 79.9739 122.712 79.7946 123.635 79.6152C124.633 79.5342 125.632 79.4536 126.631 79.373C127.261 79.4775 127.891 79.5821 128.522 79.6867C129.538 79.9243 130.555 80.1616 131.572 80.3993C132.589 80.6365 134.325 81.7798 134.379 81.798C134.434 81.8158 136.886 83.6088 136.886 83.6088C136.886 83.6088 138.18 84.9939 138.216 85.0836C138.252 85.1733 139.864 87.5131 139.811 87.5714C139.757 87.6297 140.556 89.9605 140.575 90.0547C140.593 90.149 140.634 91.1922 140.504 92.2008V92.2024Z" fill="#C6CACD"/>
<path fill-rule="evenodd" clip-rule="evenodd" d="M79.7568 50.3032C79.6305 50.4948 79.5042 50.6863 79.3778 50.8779C78.0022 59.1213 76.6266 67.3647 75.251 75.6083C75.7004 75.6807 76.1498 75.753 76.5997 75.8258C77.2218 75.8584 77.844 75.8911 78.4665 75.9241C79.4988 75.4901 80.531 75.0565 81.5632 74.623C82.595 74.1894 81.8449 68.558 83.2677 62.2077C84.6906 55.8573 85.4014 51.3377 85.4014 51.3377C85.4014 51.3377 82.5648 49.6308 79.7568 50.3032Z" fill="#C6CACD"/>
<path fill-rule="evenodd" clip-rule="evenodd" d="M74.1259 89.8766L73.1398 90.931L71.9229 95.4694L76.0409 98.383L77.0516 95.1524L74.8989 89.7543L74.1259 89.8766Z" fill="#C6CACD"/>
<path fill-rule="evenodd" clip-rule="evenodd" d="M67.7127 121.11L66.4629 130.638L67.3899 131.591H69.6215L73.1963 114.203L69.2847 113.923L67.7127 121.11Z" fill="#C6CACD"/>
<path fill-rule="evenodd" clip-rule="evenodd" d="M154.504 92.2008C153.867 89.2128 152.37 87.8678 152.37 87.8678C152.37 87.8678 150.347 85.6639 148.776 83.9081C147.205 82.1522 146.006 80.136 146.006 80.136C146.006 80.136 144.19 77.7027 142.535 75.4823C142.445 75.5889 142.355 75.6955 142.265 75.8026C134.366 68.8545 125.869 69.0406 125.869 69.0406C131.072 72.4406 130.473 76.9231 130.473 76.9231C139.046 81.1065 140.018 86.5836 140.018 86.5836C140.018 86.5836 139.363 86.598 139.738 87.2887C140.112 87.9794 140.112 89.5488 140.524 90.9496C140.935 92.3508 140.018 92.3504 139.718 93.7512C139.419 95.1524 138.783 94.6101 137.941 95.526C137.099 96.4416 135.489 96.3283 133.711 96.833C131.932 97.3377 128.002 95.376 128.002 95.376C129.873 97.2439 130.249 102.585 127.782 104.163C127.782 104.163 127.824 104.626 127.936 105.298C128.049 105.97 127.333 107.554 126.857 108.926C126.382 110.299 126.338 110.355 126.338 110.355C126.338 110.355 126.487 112.765 126.806 114.333C127.124 115.902 126.469 117.229 126.469 117.229C130.624 123.691 124.782 130.253 124.782 130.253C129.201 129.233 133.154 127.742 135.566 125.746C135.528 125.521 135.491 125.297 135.453 125.073C136.514 122.159 137.574 119.246 138.635 116.332C139.46 115.834 140.283 115.335 141.108 114.837C141.794 114.564 142.48 114.29 143.166 114.016C144.214 113.655 145.263 113.294 146.311 112.933C147.169 112.591 147.966 112.112 148.669 111.513C149.793 110.542 150.129 109.944 151.066 108.114C152.002 106.285 152.975 105.051 153.611 102.922C154.247 100.793 154.285 99.9706 154.51 97.9159C154.735 95.8613 155.14 95.1892 154.504 92.2008Z" fill="#A1A5A8"/>
<path fill-rule="evenodd" clip-rule="evenodd" d="M78.998 75.2421C79.8277 74.878 80.6574 74.5134 81.4871 74.1493C81.5591 73.2123 81.6308 72.2754 81.7025 71.3384C81.7339 70.9804 81.765 70.6225 81.7961 70.2645C81.8271 69.9065 82.3391 67.6034 82.3486 67.5657C82.3582 67.5281 83.2848 63.4835 83.2848 63.4835C83.3904 62.5402 83.4964 61.597 83.6025 60.6537C83.8924 59.614 84.1828 58.5744 84.4728 57.5347C84.6132 56.4451 84.7536 55.3556 84.894 54.2661C85.0096 53.4662 85.1251 52.6662 85.2407 51.8662C85.2809 51.4958 85.3215 51.1254 85.3621 50.755C84.5229 50.5713 83.6837 50.3877 82.8445 50.2041C83.9397 53.146 79.5597 70.7597 78.998 75.2421Z" fill="#A1A5A8"/>
<path fill-rule="evenodd" clip-rule="evenodd" d="M74.6748 97.4869L75.7986 98.4396L77.0524 95.2268L75.6673 93.7512L74.6748 97.4869Z" fill="#A1A5A8"/>
<path fill-rule="evenodd" clip-rule="evenodd" d="M71.4461 119.712L73.1409 114.371C72.0708 114.311 71.0008 114.251 69.9307 114.192C70.8567 115.008 71.5868 116.63 71.4461 119.712Z" fill="#A1A5A8"/>
<path fill-rule="evenodd" clip-rule="evenodd" d="M114.513 101.726C115.468 101.063 116.423 100.399 117.379 99.7358C123.358 96.289 121.242 94.1914 119.391 92.3892C114.562 84.917 117.348 84.6926 116.244 79.5019C114.07 68.5916 100.221 70.936 100.221 70.936C98.3615 72.7887 96.5016 74.6415 94.6418 76.4941C91.2369 79.4998 85.7071 87.521 83.6 93.1246C83.4878 94.0794 83.3759 95.0342 83.2637 95.989C83.3755 97.5369 83.4878 99.0848 83.6 100.633C83.7785 101.549 83.9567 102.465 84.1348 103.38C84.3129 104.296 85.4512 107.495 85.4835 107.693C85.5158 107.89 86.3504 109.907 86.3504 109.907C86.548 111.113 86.7456 112.319 86.9432 113.525C87.1859 115.195 87.4282 116.865 87.6709 118.536C87.9137 120.206 88.4571 120.19 90.3683 123.973C92.2795 127.757 95.9023 128.455 95.9023 128.455C107.016 132.373 120.187 127.537 118.305 118.061C118.305 118.061 118.021 117.415 117.321 115.788C116.621 114.161 117.069 113.321 117.069 113.321C121.198 108.982 116.984 106.346 116.984 106.346C116.984 106.346 117.141 106.068 116.171 105.871C115.201 105.674 113.786 104.58 113.098 103.728C112.411 102.876 114.513 101.726 114.513 101.726ZM108.799 95.6343C108.799 95.7017 108.322 97.9031 108.322 97.9031C108.084 98.576 107.846 99.2489 107.608 99.9218C107.331 100.818 107.055 101.714 106.778 102.611C106.656 103.312 106.535 104.013 106.413 104.714C106.226 105.581 106.039 106.448 105.852 107.316C105.341 108.3 104.831 109.285 104.32 110.27C103.6 110.83 102.88 111.39 102.16 111.95C101.64 112.109 101.12 112.267 100.601 112.426C100.56 112.443 98.6377 112.426 98.6377 112.426C98.6377 112.426 97.1913 112.049 97.1192 112.009C97.0472 111.968 95.7316 111.278 95.7316 111.278C95.2031 110.728 94.6745 110.178 94.146 109.629C93.7802 108.961 93.4149 108.293 93.0496 107.625C92.8487 107.129 92.6482 106.633 92.4473 106.137C92.2468 105.64 92.4609 103.756 92.4473 103.577C92.434 103.398 92.2629 100.498 92.2629 100.462C92.2629 100.426 92.9373 97.875 92.9638 97.8039C92.9903 97.7324 93.557 95.5082 93.557 95.4636C93.557 95.4186 95.0974 92.6087 95.1563 92.5364C95.2155 92.464 97.299 90.6317 97.3591 90.5912C97.4195 90.5507 100.45 88.6279 100.45 88.6279C100.45 88.6279 101.685 88.4444 101.757 88.4303C101.829 88.4163 103.648 88.4303 103.648 88.4303C104.35 88.6172 105.053 88.804 105.755 88.9908C106.215 89.3314 106.674 89.6724 107.134 90.013C107.564 90.626 107.994 91.2393 108.423 91.8523C108.573 92.5252 108.723 93.1981 108.873 93.871C109.023 94.5439 108.799 95.5628 108.799 95.6343Z" fill="#F6FBFD"/>
<path fill-rule="evenodd" clip-rule="evenodd" d="M79.1477 50.663C78.6983 54.0497 78.2489 57.4365 77.799 60.8232C76.8882 66.1042 75.9773 71.385 75.0664 76.666C74.1556 81.9468 75.7681 77.6047 75.8104 77.6188C75.8526 77.6328 76.737 77.7027 76.737 77.7027C77.2842 77.0446 77.8318 76.3866 78.3789 75.729C77.304 74.3166 78.997 69.3412 79.7276 64.8588C80.4587 60.3764 82.4229 52.2236 81.1314 50.1785L79.1477 50.663Z" fill="#F6FBFD"/>
<path fill-rule="evenodd" clip-rule="evenodd" d="M72.6952 90.8145L72.1895 95.0867L74.0381 96.3283L75.1048 92.3132L74.534 89.6092L72.6952 90.8145Z" fill="#F6FBFD"/>
<path fill-rule="evenodd" clip-rule="evenodd" d="M69.1347 114.875L67.6561 121.356C67.4565 122.987 67.2569 124.618 67.0573 126.25C66.8577 127.881 66.0467 127.949 66.9449 129.425C67.8431 130.9 69.0039 127.921 69.3968 125.26C69.7897 122.598 70.3139 117.903 69.5654 114.8L69.1347 114.875Z" fill="#F6FBFD"/>
<path fill-rule="evenodd" clip-rule="evenodd" d="M101.917 164.042C98.2961 164.06 95.363 163.8 93.4092 163.285C93.538 164.319 93.6664 165.353 93.7952 166.387C93.7998 166.418 93.8043 166.45 93.8089 166.481C94.4468 170.472 95.0847 174.463 95.7226 178.454C102.249 179.1 108.722 179.086 114.989 178.561C111.847 171.429 106.697 166.709 101.917 164.042Z" fill="#DF6064"/>
<path fill-rule="evenodd" clip-rule="evenodd" d="M121.265 112.543C121.265 112.543 120.061 114.232 117.985 115.21C120.299 120.54 127.455 118.231 125.353 111.951C123.511 113.143 121.265 112.543 121.265 112.543Z" fill="#AA282A"/>
<path fill-rule="evenodd" clip-rule="evenodd" d="M79.6364 64.8449C79.6095 65.0244 79.578 65.2038 79.542 65.3833C79.9641 65.4415 80.5365 65.6614 80.887 65.8588C81.1119 64.7471 81.3414 63.5974 81.5613 62.4629C81.1752 62.3108 80.5987 62.1726 80.1625 62.104C79.974 63.1003 79.7669 64.0334 79.6364 64.8449Z" fill="#AA282A"/>
<path fill-rule="evenodd" clip-rule="evenodd" d="M157.947 163.277C157.359 161.537 156.545 160.923 156.011 159.578C155.477 158.234 154.075 157.199 153.032 155.459C152.619 154.769 151.905 154.186 151.092 153.62C144.88 156.328 138.034 158.48 131.255 160.111C138.213 162.729 143.883 166.723 147.736 170.977C151.897 169.35 155.71 167.557 159.092 165.688C158.724 164.872 158.338 164.065 157.947 163.277Z" fill="#AA282A"/>
<path fill-rule="evenodd" clip-rule="evenodd" d="M168.055 143C163.689 147.196 157.75 150.728 151.093 153.619C151.905 154.184 152.621 154.767 153.033 155.458C154.076 157.197 155.477 158.232 156.012 159.577C156.547 160.922 157.36 161.536 157.948 163.275C158.339 164.065 158.725 164.871 159.093 165.687C164.547 162.675 168.873 159.461 171.703 156.413L168.055 143Z" fill="#771C1C"/>
<path fill-rule="evenodd" clip-rule="evenodd" d="M81.4868 62.4319C81.2665 63.566 81.0374 64.7045 80.8125 65.8162C81.3038 66.0937 81.7519 66.4412 82.1426 66.8479C82.3758 65.7827 82.6094 64.7174 82.843 63.6521C82.6371 63.0645 82.1247 62.6836 81.4868 62.4319Z" fill="#771C1C"/>
<path fill-rule="evenodd" clip-rule="evenodd" d="M123.779 118.928C123.779 118.928 125.259 118.483 126.053 117.163C126.848 115.844 126.653 115.753 126.851 114.63C127.05 113.507 126.053 112.4 126.053 112.4C123.555 114.25 122.291 116.771 123.779 118.928Z" fill="#771C1C"/>
<path fill-rule="evenodd" clip-rule="evenodd" d="M131.255 160.111C120.339 162.733 109.594 164.007 101.917 164.042C106.697 166.709 111.849 171.429 114.989 178.561C127.001 177.562 138.262 174.693 147.736 170.977C143.883 166.723 138.213 162.729 131.255 160.111Z" fill="#D63D3D"/>
<path fill-rule="evenodd" clip-rule="evenodd" d="M77.5874 62.0381L77.3662 63.3247C77.3662 64.3406 77.3662 65.3565 77.3662 66.3724C78.0857 65.4851 78.8947 65.2832 79.6349 65.3954C79.6709 65.2159 79.7024 65.0365 79.7293 64.8571C79.8594 64.0455 80.0346 63.1076 80.2239 62.1135C79.142 61.9484 78.0406 62.0022 77.5874 62.0381Z" fill="#D63D3D"/>
<path fill-rule="evenodd" clip-rule="evenodd" d="M120.269 118.517C120.482 118.517 120.694 118.517 120.907 118.517C120.551 116.537 122.544 112.877 124.706 111.868C123.425 111.684 122.145 111.501 120.865 111.317C119.465 112.494 118.066 113.67 116.667 114.847C117.263 115.697 117.858 116.547 118.454 117.396L120.269 118.517Z" fill="#D63D3D"/>
<path fill-rule="evenodd" clip-rule="evenodd" d="M186.238 122.18C192.024 114.56 189.104 102.587 168.103 103.877C168.103 103.877 164.51 96.9339 156.622 94.7779C156.424 90.4838 153.917 87.4173 151.559 85.4023C149.201 83.3873 147.763 80.3104 146.483 79.0642C146.483 79.0642 148.899 74.3485 148.486 68.593C148.073 62.8375 145.557 59.5067 143.114 57.378C143.786 57.3197 144.458 57.2614 145.13 57.2031C142.188 53.626 137.53 50.4293 127.535 52.3932C127.852 51.5744 128.17 50.7556 128.487 49.9367C122.957 50.663 118.951 55.1853 116.592 63.8508C111.539 63.6086 100.591 67.5666 95.3308 72.9278C92.8828 71.0136 86.9843 69.4942 82.5733 70.5789C83.8321 64.1435 85.0909 57.7081 86.3497 51.2726C85.0831 48.8924 80.5462 47.355 78.2775 50.506C76.7126 60.0657 75.1481 69.6255 73.5832 79.1853C73.1825 79.7206 72.8135 80.279 72.4782 80.8573C70.6139 84.0759 71.0396 87.2362 71.9167 89.3744C71.6756 90.8446 71.4345 92.3149 71.1934 93.7847C66.7463 91.8561 59.5813 92.1578 55.9876 100.235C52.5112 108.044 56.9766 119.609 65.5694 128.161C65.4377 128.969 65.306 129.776 65.1743 130.584C65.3267 132.215 68.3661 134.16 70.4565 132.35C70.6544 132.497 70.8567 132.641 71.0589 132.785C71.0589 132.785 63.3594 136.953 59.0558 142.744C54.7522 148.534 56.0235 157.872 67.4023 159.405C78.7812 160.938 90.3884 159.777 90.3884 159.777C93.0315 176.08 95.6742 192.383 98.3169 208.686C100.96 224.989 106.785 214.8 121.272 215.418C135.759 216.037 170.012 210.428 183.488 186.446L168.233 136.495C168.233 136.495 180.457 129.8 186.238 122.18ZM166.23 108.822C166.558 113.201 164.199 118.966 164.092 119.226C164.213 119.087 166.171 116.823 167.11 114.725C167.11 114.725 166.419 122.96 158.557 129.459C150.696 135.959 140.953 133.889 138.289 127.474C138.289 127.474 143.985 132.234 151.509 128.115C151.509 128.115 143.136 129.312 139.785 124.775C136.51 120.342 141.376 115.22 148.486 113.83C154.851 112.583 156.388 109.011 156.388 109.011C156.388 109.011 153.41 110.208 151.379 110.513C151.379 110.513 155.956 104.425 156.231 98.1408C162.398 100.906 165.893 104.34 166.23 108.822ZM80.2467 50.9707C80.2467 50.9707 82.4611 50.0202 84.4274 51.7369C83.1516 58.2606 81.8758 64.7843 80.6 71.3079C80.1763 71.523 79.777 71.783 79.4095 72.0835C79.75 72.1437 80.0793 72.2571 80.3846 72.4195C80.2993 72.8543 80.2135 73.2892 80.1282 73.724C79.603 73.9749 77.9092 74.8536 76.0676 76.4941L80.2467 50.9707ZM75.2873 81.2636C76.2665 79.7082 77.7038 78.238 79.4737 77.086C80.1245 76.6566 80.81 76.2813 81.5225 75.9642C83.1276 75.243 84.8511 74.8209 86.6086 74.7189C88.3662 74.6172 85.6924 73.1938 84.8793 72.6079C84.8793 72.6079 89.1917 72.0876 93.2527 75.2616C93.2527 75.2616 90.8134 77.3547 89.883 82.0034C89.883 82.0034 96.7565 73.9343 104.429 70.0482C112.101 66.162 122.001 65.3595 130.818 66.873C130.818 66.873 127.899 63.7082 119.701 63.762C119.701 63.762 120.797 57.7105 124.669 54.4608C124.669 54.4608 124.53 55.6667 124.727 56.7873C124.727 56.7873 131.681 51.8204 139.277 55.6307C139.277 55.6307 137.764 56.3211 137.175 56.9931C137.175 56.9931 142.421 59.0284 144.744 63.5467C146.851 67.6572 144.452 74.444 143.994 75.6497C143.994 75.6497 141.861 72.7761 138.626 71.185C142.085 75.6141 143.81 80.0963 146.465 83.5344C149.12 86.9725 153.764 89.2496 153.356 95.8613C152.96 102.2 149.69 109.143 147.242 110.986C144.353 111.393 138.343 112.931 135.535 119.374C132.728 125.818 136.685 131.336 136.685 131.336C136.685 131.336 129.174 134.08 119.562 136.85C109.279 136.787 98.5476 135.37 95.7802 135.232C99.5268 137.289 106.247 138.97 109.072 139.62C106.319 140.275 103.547 140.862 100.861 141.337C98.0667 141.472 87.2813 139.266 79.3839 134.412C76.7018 132.762 73.8947 130.888 71.2019 128.718L72.7448 120.839C76.9623 124.919 82.4926 126.64 82.4926 126.64C82.4926 126.64 75.9115 121.499 73.3018 118.007C73.5309 116.834 73.76 115.661 73.9891 114.488C76.6927 113.685 79.0786 111.372 79.3433 106.727C79.3433 106.727 81.94 108.323 84.3383 108.615C84.9903 110.23 85.035 111.833 85.1204 113.639C82.6408 113.63 80.0039 113.029 79.8424 112.994C80.0441 113.173 83.3637 116.041 85.3946 116.723C85.7131 118.803 86.4231 121.192 88.1793 124.101C92.6355 131.458 101.732 134.321 109.966 131.955C109.966 131.955 95.605 132.084 90.5379 121.523C86.513 113.123 89.5003 113.423 86.6074 106.727C84.1275 100.975 84.1005 93.7276 84.5139 90.8988C84.5139 90.8988 82.0208 92.5348 81.7714 97.3803C81.7714 97.3803 79.6585 96.3936 78.0207 93.8756C77.466 93.0184 77.0319 92.0892 76.7316 91.1141C76.3 89.7601 76.0623 88.1509 76.1654 86.2591C76.1654 86.2591 75.2757 86.5418 74.2877 87.3619C74.2202 87.4202 74.1482 87.483 74.0811 87.5458C73.4277 85.7057 73.9261 83.4063 75.2868 81.2636H75.2873ZM76.9955 99.1307C77.1019 98.5855 77.208 98.04 77.3144 97.4948C78.4386 98.9158 79.9559 100.256 81.9864 101.126C81.9864 101.126 82.3231 103.372 82.988 104.622C82.988 104.622 80.508 103.842 78.7112 102.538C78.7099 102.537 78.1756 100.996 76.9938 99.1307H76.9955ZM73.55 91.8738C73.55 91.8738 73.869 91.3088 74.2691 90.9319C74.2691 90.9319 74.6241 92.9952 75.9044 95.3475C75.786 95.951 75.6679 96.5548 75.5495 97.1583C74.8184 96.2862 73.9841 95.505 73.0654 94.8321L73.55 91.8738ZM58.6094 112.15C54.7369 101.564 62.2027 93.8475 68.4547 95.5289C69.261 95.7488 70.0344 96.0746 70.7546 96.4974C71.4067 96.8777 72.0165 97.3253 72.574 97.8333C73.4781 98.6463 74.2521 99.5924 74.8693 100.639C75.4235 101.567 75.8427 102.569 76.1136 103.615C76.7474 106.083 76.4284 108.649 74.7434 110.635C74.1585 111.326 73.4244 111.876 72.5965 112.245C71.7788 112.617 70.925 112.796 70.1122 112.863C69.4357 112.914 68.756 112.901 68.082 112.823C66.8961 112.688 66.0739 112.411 66.0739 112.411C66.447 113.034 67.0845 113.577 67.8932 113.988C67.3377 117.376 66.7822 120.763 66.2268 124.151C63.0416 120.782 60.3195 116.833 58.6081 112.148L58.6094 112.15ZM69.633 127.409C69.389 128.657 69.1451 129.904 68.9011 131.152C68.9011 131.155 68.9011 131.158 68.9011 131.161C68.2718 131.162 67.6695 130.906 67.2342 130.453C67.2686 130.242 67.3031 130.032 67.3376 129.821C67.5517 128.515 67.7658 127.208 67.98 125.903C68.5943 122.151 69.2087 118.399 69.8232 114.647C70.5699 114.804 71.3342 114.861 72.0961 114.818L69.633 127.409ZM69.2423 156.415C61.6776 155.443 58.8697 149.616 62.4275 143.752C65.9853 137.889 74.0889 134.545 74.0889 134.545C74.0889 134.545 74.7583 134.985 75.7785 135.622C66.5693 141.356 68.465 148.41 72.3106 150.504C70.3923 146.299 72.2161 140.467 79.5935 137.894C80.9053 138.638 82.2395 139.342 83.3483 139.813C80.8556 146.689 91.5755 146.049 106.281 143.193C120.997 140.337 138.739 133.721 138.739 133.721C144.579 138.769 155.693 136.976 162.656 129.579C173.383 117.866 169.264 107.297 169.264 107.297C175.553 106.512 188.432 108.565 185.287 117.531C182.142 126.496 158.898 140.727 128.463 148.798C98.0282 156.868 76.8012 157.386 69.241 156.413L69.2423 156.415ZM180.103 186.058C178.435 189.75 167.061 199.703 158.672 203.623C158.852 203.417 164.665 196.814 165.371 188.539C165.371 188.539 155.808 205.048 141.599 209.056C133.401 211.075 114.588 213.848 101.844 207.178C99.5214 195.783 93.9821 162.052 94.0405 159.178C97.4508 159.259 116.753 155.634 135.22 150.276C151.899 150.881 159.437 166.69 159.676 167.192C157.381 155.418 150.112 149.46 145.58 147.037C153.472 144.366 160.551 141.416 165.296 138.373L180.103 186.058Z" fill="black"/>
<path fill-rule="evenodd" clip-rule="evenodd" d="M115.645 115.717C116.396 117.182 119.877 122.435 124.904 119.822C129.481 117.445 128.192 111.341 127.388 110.216C130.285 107.244 127.662 103.82 127.662 103.82C127.365 109.423 122.811 110.396 120.762 109.163C120.762 109.163 117.968 115.371 111.625 112.319C111.623 112.319 112.245 115.371 115.645 115.717ZM121.265 112.543C121.265 112.543 123.513 113.143 125.353 111.951C127.455 118.231 120.299 120.54 117.985 115.21C120.061 114.232 121.265 112.543 121.265 112.543H121.265Z" fill="black"/>
<path fill-rule="evenodd" clip-rule="evenodd" d="M117.949 106.666C119.298 106.348 120.872 105.146 121.97 102.623C123.068 100.099 122.082 98.2524 119.175 98.6604C116.268 99.0679 111.893 101.386 111.979 103.183C112.065 104.98 115.267 107.292 117.949 106.666ZM114.167 102.995C115.137 102.403 116.206 101.771 118.322 101.148C120.438 100.524 120.887 101.865 119.454 103.461C118.021 105.057 116.382 105.774 114.216 104.062C113.434 103.443 113.938 103.134 114.167 102.995Z" fill="black"/>
<path fill-rule="evenodd" clip-rule="evenodd" d="M124.966 94.7783C129.907 96.4593 132.086 99.978 138.069 96.7685C142 94.6572 143.401 89.1483 138.604 83.9618C133.807 78.7757 125.342 77.3327 121.112 79.1477C116.881 80.9626 115.694 84.9749 115.694 84.9749C113.979 91.7527 120.025 93.0973 124.966 94.7783ZM124.984 80.322C130.122 79.8735 134.907 83.536 135.787 84.2805C140.612 88.3729 140.567 93.0729 136.973 95.1412C133.379 97.2099 127.927 93.8995 124.239 92.443C120.815 91.0893 118.417 91.0041 117.612 87.9062C116.808 84.8087 119.849 80.7704 124.984 80.322Z" fill="black"/>
<path fill-rule="evenodd" clip-rule="evenodd" d="M99.0017 113.506C102.789 113.74 105.65 111.398 106.755 108.414C107.86 105.43 107.385 103.268 108.812 99.3192C110.24 95.3702 111.422 89.238 104.743 87.6335C97.8473 85.9793 92.0255 93.3573 91.3516 101.166C90.7543 108.71 94.1351 113.206 99.0017 113.506ZM93.4583 99.7342C94.2225 92.2934 101.827 87.0982 106.118 90.433C110.133 93.5528 106.962 97.9143 106.118 102.06C105.273 106.207 104.576 111.447 99.1546 111.613C93.7329 111.779 93.0453 103.752 93.4607 99.7359L93.4583 99.7342Z" fill="black"/>
<path fill-rule="evenodd" clip-rule="evenodd" d="M99.5815 104.304C99.7592 104.393 99.9439 104.468 100.134 104.528C99.2895 103.282 99.1449 101.56 99.9054 100.042C100.902 98.0515 103.108 97.088 105.04 97.7093C104.662 97.1504 104.147 96.6982 103.543 96.3957C101.495 95.3785 98.9481 96.3196 97.8567 98.5041C96.7652 100.689 97.5328 103.282 99.5815 104.304Z" fill="#040002"/>
<path fill-rule="evenodd" clip-rule="evenodd" d="M128.066 86.2748C129.764 86.4141 131.165 87.4268 131.797 88.79C131.844 88.5969 131.874 88.4006 131.887 88.2026C132.072 85.9256 130.243 83.9217 127.808 83.7291C125.374 83.5365 123.244 85.2217 123.056 87.4975C123.004 88.1683 123.126 88.8416 123.41 89.4517C123.875 87.4809 125.842 86.0954 128.066 86.2748Z" fill="#040002"/>
<path fill-rule="evenodd" clip-rule="evenodd" d="M65.0143 165.885C65.0143 165.885 63.5757 171.058 59.3809 174.455C63.577 177.853 65.0143 183.026 65.0143 183.026C65.0143 183.026 66.4564 177.853 70.6517 174.455C66.4564 171.058 65.0143 165.885 65.0143 165.885Z" fill="black"/>
<path fill-rule="evenodd" clip-rule="evenodd" d="M52.4183 127.708C52.4183 127.708 51.2945 131.754 48.0127 134.412C51.2945 137.07 52.4183 141.116 52.4183 141.116C52.4183 141.116 53.5463 137.07 56.828 134.412C53.5463 131.754 52.4183 127.708 52.4183 127.708Z" fill="#040002"/>
<path fill-rule="evenodd" clip-rule="evenodd" d="M52.4183 127.708C52.4183 127.708 51.2945 131.754 48.0127 134.412C51.2945 137.07 52.4183 141.116 52.4183 141.116C52.4183 141.116 53.5463 137.07 56.828 134.412C53.5463 131.754 52.4183 127.708 52.4183 127.708Z" fill="black"/>
<path fill-rule="evenodd" clip-rule="evenodd" d="M108.893 47.8077C108.893 47.8077 110.223 43.0387 114.095 39.9047C110.225 36.7708 108.895 32 108.895 32C108.895 32 107.567 36.7722 103.697 39.9047C107.567 43.0387 108.893 47.8077 108.893 47.8077Z" fill="#040002"/>
<path fill-rule="evenodd" clip-rule="evenodd" d="M108.893 47.8077C108.893 47.8077 110.223 43.0387 114.095 39.9047C110.225 36.7708 108.895 32 108.895 32C108.895 32 107.567 36.7722 103.697 39.9047C107.567 43.0387 108.893 47.8077 108.893 47.8077Z" fill="black"/>
<path fill-rule="evenodd" clip-rule="evenodd" d="M164.335 80.0662C164.335 80.0662 165.539 75.7476 169.042 72.9108C165.539 70.0738 164.335 65.7552 164.335 65.7552C164.335 65.7552 163.135 70.0738 159.633 72.9108C163.135 75.7476 164.335 80.0662 164.335 80.0662Z" fill="#040002"/>
<path fill-rule="evenodd" clip-rule="evenodd" d="M164.335 80.0662C164.335 80.0662 165.539 75.7476 169.042 72.9108C165.539 70.0738 164.335 65.7552 164.335 65.7552C164.335 65.7552 163.135 70.0738 159.633 72.9108C163.135 75.7476 164.335 80.0662 164.335 80.0662Z" fill="black"/>
<path fill-rule="evenodd" clip-rule="evenodd" d="M199.665 113.25C199.665 113.25 198.817 116.301 196.344 118.302C198.816 120.305 199.665 123.355 199.665 123.355C199.665 123.355 200.514 120.304 202.987 118.302C200.514 116.299 199.665 113.25 199.665 113.25Z" fill="#040002"/>
<path fill-rule="evenodd" clip-rule="evenodd" d="M199.665 113.25C199.665 113.25 198.817 116.301 196.344 118.302C198.816 120.305 199.665 123.355 199.665 123.355C199.665 123.355 200.514 120.304 202.987 118.302C200.514 116.299 199.665 113.25 199.665 113.25Z" fill="black"/>
<path fill-rule="evenodd" clip-rule="evenodd" d="M191.292 129.242C191.292 129.242 189.966 134.012 186.097 137.147C189.966 140.281 191.292 145.052 191.292 145.052C191.292 145.052 192.621 140.281 196.492 137.147C192.621 134.012 191.292 129.242 191.292 129.242Z" fill="black"/>
<path fill-rule="evenodd" clip-rule="evenodd" d="M95.157 57.6059C95.157 57.6059 96.2849 53.7153 99.5663 51.1591C96.2849 48.6021 95.157 44.7119 95.157 44.7119C95.157 44.7119 94.0328 48.6026 90.751 51.1591C94.0324 53.7153 95.157 57.6059 95.157 57.6059Z" fill="black"/>
</g>
<defs>
<clipPath id="clip0_981_1648">
<rect width="155" height="186" fill="white" transform="translate(48 32)"/>
</clipPath>
</defs>
</svg>
