<svg xmlns="http://www.w3.org/2000/svg" width="250" height="250" fill="none"><path fill="#3A1AB6" d="M173.595 64.934c-12.163 4.128-18.02 11.532-22.01 23.063-1.03 3.08-3.604 6.487-6.5 8.78l9.975 10.877-31.664-22.54L36 23s6.307 41.672 8.495 57.004c1.545 10.81 4.183 15.66 12.55 20.574l3.346 1.834 14.416 7.732-8.56-4.521 39.516 21.949-.257.59-42.54-20.049c2.252 7.862 6.628 22.997 8.495 29.681 1.995 7.207 4.247 9.828 11.133 12.384l12.679 4.717 7.851-3.145-9.975 6.749-49.877 64.407c33.144-31.319 61.203-42.458 81.734-51.565 26.193-11.532 41.96-18.936 52.257-45.538 7.337-18.673 13.064-42.588 20.338-51.827l15.51-20.18s-32.116 8.648-39.516 11.138Z"/></svg>