<?xml version="1.0" encoding="utf-8"?>
<!-- Generator: Adobe Illustrator 25.1.0, SVG Export Plug-In . SVG Version: 6.00 Build 0)  -->
<svg version="1.1" id="Layer_1" xmlns="http://www.w3.org/2000/svg" xmlns:xlink="http://www.w3.org/1999/xlink" x="0px" y="0px"
	 viewBox="0 0 37.7 40" style="enable-background:new 0 0 37.7 40;" xml:space="preserve">
<style type="text/css">
	.st0{fill:#3F00A5;}
</style>
<path class="st0" d="M26.6,11c-1.9,0.6-2.8,1.8-3.5,3.6c-0.2,0.5-0.6,1-1,1.4l1.6,1.7l-5-3.5L4.9,4.5c0,0,1,6.5,1.3,8.8
	c0.2,1.7,0.7,2.4,2,3.2l0.5,0.3L11,18l-1.3-0.7l6.2,3.4l0,0.1l-6.7-3.1c0.4,1.2,1,3.6,1.3,4.6c0.3,1.1,0.7,1.5,1.8,1.9l2,0.7
	l1.2-0.5l-1.6,1L6,35.5c5.2-4.9,9.6-6.6,12.9-8c4.1-1.8,6.6-2.9,8.2-7.1c1.2-2.9,2.1-6.6,3.2-8l2.4-3.1C32.8,9.3,27.7,10.6,26.6,11z
	"/>
</svg>
