<?xml version="1.0" encoding="UTF-8" standalone="no"?>
<!-- Generator: Adobe Illustrator 25.1.0, SVG Export Plug-In . SVG Version: 6.00 Build 0)  -->

<svg
   version="1.1"
   id="Layer_1"
   x="0px"
   y="0px"
   viewBox="0 0 27.80145 31"
   xml:space="preserve"
   sodipodi:docname="fauna.svg"
   width="27.801451"
   height="31"
   inkscape:version="1.2.1 (9c6d41e410, 2022-07-14, custom)"
   xmlns:inkscape="http://www.inkscape.org/namespaces/inkscape"
   xmlns:sodipodi="http://sodipodi.sourceforge.net/DTD/sodipodi-0.dtd"
   xmlns="http://www.w3.org/2000/svg"
   xmlns:svg="http://www.w3.org/2000/svg"><defs
   id="defs493" /><sodipodi:namedview
   id="namedview491"
   pagecolor="#ffffff"
   bordercolor="#666666"
   borderopacity="1.0"
   inkscape:showpageshadow="2"
   inkscape:pageopacity="0.0"
   inkscape:pagecheckerboard="0"
   inkscape:deskcolor="#d1d1d1"
   showgrid="false"
   inkscape:zoom="25.675"
   inkscape:cx="13.962999"
   inkscape:cy="15.462512"
   inkscape:window-width="3840"
   inkscape:window-height="2083"
   inkscape:window-x="0"
   inkscape:window-y="40"
   inkscape:window-maximized="1"
   inkscape:current-layer="Layer_1" />
<style
   type="text/css"
   id="style486">
	.st0{fill:#3F00A5;}
</style>
<path
   class="st0"
   d="m 21.7,6.5 c -1.9,0.6 -2.8,1.8 -3.5,3.6 -0.2,0.5 -0.6,1 -1,1.4 l 1.6,1.7 -5,-3.5 L 0,0 c 0,0 1,6.5 1.3,8.8 0.2,1.7 0.7,2.4 2,3.2 l 0.5,0.3 2.3,1.2 -1.3,-0.7 6.2,3.4 v 0.1 L 4.3,13.2 c 0.4,1.2 1,3.6 1.3,4.6 0.3,1.1 0.7,1.5 1.8,1.9 l 2,0.7 1.2,-0.5 L 9,20.9 1.1,31 c 5.2,-4.9 9.6,-6.6 12.9,-8 4.1,-1.8 6.6,-2.9 8.2,-7.1 1.2,-2.9 2.1,-6.6 3.2,-8 l 2.4,-3.1 c 0.1,0 -5,1.3 -6.1,1.7 z"
   id="path488" />
</svg>
