<svg xmlns="http://www.w3.org/2000/svg" width="250" height="250" fill="none"><g clip-path="url(#a)"><path fill="#615EFF" d="M200.745 218.706a12.051 12.051 0 0 1-3.483 8.475 11.837 11.837 0 0 1-8.4 3.514H62.072c-3.15 0-6.173-1.261-8.403-3.507a12.053 12.053 0 0 1-3.49-8.472V31.485a12.08 12.08 0 0 1 .903-4.593 11.996 11.996 0 0 1 2.578-3.894 11.875 11.875 0 0 1 3.86-2.6 11.791 11.791 0 0 1 4.552-.912h81.371l57.302 58.96v140.26Z"/><path fill="#1A194D" d="m149.748 76.907 50.997 49.177V78.101h-45.174a11.33 11.33 0 0 1-5.643-1.433l-.18.24Z" opacity=".3"/><path fill="#C5C4FF" d="M200.746 78.35h-45.297a11.836 11.836 0 0 1-8.399-3.514 12.055 12.055 0 0 1-3.484-8.475v-47.2l57.18 59.189Z"/><path fill="#fff" d="M79.739 176.441v-20.009h-3.7v-5.521h3.7v-.85c.047-3.397 1.162-6.001 3.346-7.81 2.073-1.699 4.971-2.548 8.694-2.548 2.341 0 5.106.456 8.295 1.369l-1.084 6.276-1.32-.354c-1.712-.456-3.519-.684-5.42-.684-3.031 0-4.547 1.384-4.547 4.153v.448h4.995v5.521h-4.995v20.009h-7.965Zm23.987 0h-7.988v-25.53h7.988v25.53Zm13.219 0h-7.964v-36.242h7.964v36.242Zm17.248.472c-3.911 0-7.076-1.164-9.496-3.492-2.419-2.344-3.628-5.388-3.628-9.132v-.66c0-2.611.479-4.916 1.437-6.914.974-1.997 2.388-3.539 4.241-4.624 1.854-1.101 4.053-1.652 6.598-1.652 3.582 0 6.409 1.117 8.483 3.35 2.073 2.218 3.11 5.317 3.11 9.297v3.091h-15.787c.283 1.432.903 2.556 1.861 3.374.959.818 2.2 1.227 3.723 1.227 2.514 0 4.477-.881 5.891-2.642l3.629 4.294c-.99 1.368-2.396 2.462-4.218 3.28-1.806.802-3.754 1.203-5.844 1.203Zm-.895-20.339c-2.325 0-3.707 1.541-4.147 4.624h8.011v-.613c.032-1.274-.29-2.257-.966-2.949-.675-.708-1.641-1.062-2.898-1.062Zm28.205 12.694c0-.676-.353-1.219-1.06-1.628-.707-.409-2.05-.834-4.029-1.274-1.98-.441-3.613-1.015-4.902-1.723-1.288-.723-2.269-1.596-2.945-2.619-.675-1.022-1.013-2.194-1.013-3.515 0-2.344.966-4.271 2.898-5.781 1.932-1.526 4.461-2.289 7.588-2.289 3.361 0 6.063.763 8.105 2.289 2.042 1.526 3.064 3.531 3.064 6.017h-7.965c0-2.045-1.076-3.068-3.228-3.068-.833 0-1.532.236-2.097.708-.566.456-.848 1.03-.848 1.722 0 .708.345 1.282 1.036 1.723.692.44 1.791.802 3.299 1.085 1.524.283 2.859.622 4.006 1.015 3.833 1.321 5.749 3.689 5.749 7.102 0 2.328-1.036 4.224-3.11 5.687-2.058 1.463-4.728 2.194-8.011 2.194-2.184 0-4.132-.393-5.844-1.18-1.712-.786-3.048-1.856-4.006-3.209-.958-1.353-1.437-2.776-1.437-4.27h7.422c.032 1.179.424 2.044 1.178 2.595.754.535 1.72.802 2.899.802 1.083 0 1.892-.22 2.427-.66.549-.441.824-1.015.824-1.723Z"/></g><defs><clipPath id="a"><path fill="#fff" d="M50 19h151v212H50z"/></clipPath></defs></svg>