<svg width="250" height="250" viewBox="0 0 250 250" fill="none" xmlns="http://www.w3.org/2000/svg">
<path d="M173.836 185.114C173.835 187.153 173.03 189.108 171.599 190.55C170.167 191.992 168.227 192.803 166.203 192.804H84.7546C82.7306 192.804 80.7894 191.995 79.3571 190.554C77.9247 189.114 77.1185 187.159 77.1152 185.12V65.009C77.1144 63.998 77.3115 62.9968 77.6951 62.0626C78.0788 61.1284 78.6414 60.2795 79.351 59.5647C80.0605 58.8498 80.903 58.2829 81.8302 57.8963C82.7574 57.5098 83.7512 57.3113 84.7546 57.3121H137.026L173.836 95.1347V185.114Z" fill="#615EFF"/>
<path opacity="0.3" d="M141.077 94.148L173.836 125.696V94.914H144.818C143.551 94.9285 142.302 94.6118 141.193 93.9948L141.077 94.148Z" fill="#1A194D"/>
<path d="M173.837 95.0734H144.739C142.715 95.0717 140.774 94.2609 139.343 92.819C137.912 91.377 137.107 89.4218 137.105 87.3826V57.1037L173.837 95.0734Z" fill="#C5C4FF"/>
<path d="M96.103 158V145.164H93.7266V141.622H96.103V141.077C96.1333 138.897 96.8498 137.227 98.2524 136.067C99.5845 134.977 101.446 134.432 103.838 134.432C105.341 134.432 107.118 134.725 109.166 135.31L108.47 139.336L107.622 139.109C106.522 138.817 105.362 138.67 104.141 138.67C102.193 138.67 101.219 139.558 101.219 141.334V141.622H104.428V145.164H101.219V158H96.103ZM111.512 158H106.381V141.622H111.512V158Z" fill="white"/>
<path d="M120.004 158H114.888V134.75H120.004V158Z" fill="white"/>
<path d="M131.084 158.303C128.571 158.303 126.538 157.556 124.984 156.062C123.43 154.559 122.653 152.606 122.653 150.205V149.781C122.653 148.106 122.961 146.627 123.576 145.346C124.202 144.064 125.11 143.075 126.301 142.379C127.492 141.673 128.904 141.319 130.539 141.319C132.84 141.319 134.656 142.036 135.988 143.469C137.32 144.892 137.986 146.88 137.986 149.433V151.416H127.845C128.026 152.334 128.425 153.055 129.041 153.58C129.656 154.105 130.453 154.367 131.432 154.367C133.047 154.367 134.308 153.802 135.216 152.672L137.547 155.427C136.912 156.305 136.008 157.006 134.838 157.531C133.677 158.045 132.426 158.303 131.084 158.303ZM130.509 145.255C129.015 145.255 128.127 146.244 127.845 148.222H132.991V147.828C133.011 147.011 132.805 146.38 132.371 145.936C131.937 145.482 131.316 145.255 130.509 145.255Z" fill="white"/>
<path d="M148.627 153.398C148.627 152.965 148.4 152.616 147.946 152.354C147.492 152.092 146.629 151.819 145.358 151.537C144.086 151.254 143.037 150.886 142.209 150.432C141.382 149.967 140.751 149.407 140.317 148.751C139.883 148.096 139.667 147.344 139.667 146.496C139.667 144.993 140.287 143.756 141.528 142.788C142.77 141.809 144.394 141.319 146.402 141.319C148.562 141.319 150.298 141.809 151.609 142.788C152.921 143.766 153.577 145.053 153.577 146.647H148.461C148.461 145.336 147.77 144.68 146.387 144.68C145.852 144.68 145.403 144.831 145.04 145.134C144.677 145.426 144.495 145.795 144.495 146.239C144.495 146.693 144.717 147.061 145.161 147.344C145.605 147.626 146.312 147.858 147.28 148.04C148.259 148.222 149.117 148.439 149.854 148.691C152.316 149.539 153.547 151.057 153.547 153.247C153.547 154.741 152.881 155.957 151.549 156.895C150.227 157.833 148.511 158.303 146.402 158.303C145 158.303 143.748 158.05 142.648 157.546C141.549 157.041 140.691 156.355 140.075 155.487C139.46 154.619 139.152 153.706 139.152 152.748H143.92C143.94 153.504 144.192 154.059 144.677 154.413C145.161 154.756 145.782 154.927 146.539 154.927C147.235 154.927 147.755 154.786 148.098 154.503C148.451 154.221 148.627 153.853 148.627 153.398Z" fill="white"/>
</svg>
