<?xml version="1.0" standalone="yes"?>
<svg xmlns="http://www.w3.org/2000/svg" width="200" height="200">
<path style="fill:#fefdfd; stroke:none;" d="M0 0L0 200L200 200L200 0L0 0z"/>
<path style="fill:#f5a4a3; stroke:none;" d="M31 31L32 31C37.5913 26.764 49.1722 29 56 29L116 29C111.39 26.3442 102.398 28 97 28L50 28C45.3292 28 32.1498 25.6341 31 31z"/>
<path style="fill:#c43f44; stroke:none;" d="M32 29C38.1495 50.5115 47.9342 76.5554 59 96L60 96L35 31L116 30L90 29L32 29z"/>
<path style="fill:#d76f73; stroke:none;" d="M116 29L116 30L120 30L116 29z"/>
<path style="fill:#f5a4a3; stroke:none;" d="M120 29L120 30L124 30L120 29z"/>
<path style="fill:#f52b32; stroke:none;" d="M35 31C39.0009 47.8441 47.933 63.7509 53.713 80C55.3815 84.6908 61.7245 92.8409 57.4761 97.5664C53.425 102.072 42.4305 99.1882 37 99C38.789 112.747 47.1903 126.216 52.1644 139C55.4998 147.573 59.1698 156.321 62.2022 165C63.5311 168.803 65.6158 175.793 69.2747 177.958C76.3005 182.113 93.8418 179.003 102 179C159.4 178.978 206.442 113.041 168.296 62.0895C160.919 52.2371 151.754 44.4391 141 38.4992C127.229 30.8932 114.376 30 99 30C78.3212 30 55.3445 27.223 35 31z"/>
<path style="fill:#c43f44; stroke:none;" d="M118 30L118 31C141.544 32.0265 154.553 51.8515 171 65C162.984 46.7475 137.966 30.1653 118 30z"/>
<path style="fill:#d76f73; stroke:none;" d="M125.667 30.3333L126.333 30.6667L125.667 30.3333z"/>
<path style="fill:#f5a4a3; stroke:none;" d="M127.667 30.3333L128.333 30.6667L127.667 30.3333z"/>
<path style="fill:#d76f73; stroke:none;" d="M32 31L33 32L32 31M129 31L130 32L129 31z"/>
<path style="fill:#f5a4a3; stroke:none;" d="M130.667 31.3333L131.333 31.6667L130.667 31.3333M32.3333 32.6667L32.6667 33.3333L32.3333 32.6667z"/>
<path style="fill:#d76f73; stroke:none;" d="M131.667 32.3333L132.333 32.6667L131.667 32.3333z"/>
<path style="fill:#f5a4a3; stroke:none;" d="M133 32L133 33L144 38L144 37L133 32z"/>
<path style="fill:#d76f73; stroke:none;" d="M33 33L34 37L35 37L33 33M134 33L135 34L134 33M136 34L137 35L136 34z"/>
<path style="fill:#f5a4a3; stroke:none;" d="M33.3333 35.6667L33.6667 36.3333L33.3333 35.6667z"/>
<path style="fill:#d76f73; stroke:none;" d="M138 35L139 36L138 35M140 36L141 37L140 36z"/>
<path style="fill:#f5a4a3; stroke:none;" d="M34.3333 37.6667L34.6667 38.3333L34.3333 37.6667z"/>
<path style="fill:#d76f73; stroke:none;" d="M142 37L143 38L142 37M35 38L38 46L39 46L35 38M144 38L145 39L144 38z"/>
<path style="fill:#f5a4a3; stroke:none;" d="M145 38L146 39L145 38z"/>
<path style="fill:#d76f73; stroke:none;" d="M146 39L154 45L146 39z"/>
<path style="fill:#f5a4a3; stroke:none;" d="M147 39L148 40L147 39M35 40L36 41L35 40M148 40L149 41L148 40M150 41L151 42L150 41M36 42L37 43L36 42M152 42L153 43L152 42M153 43L154 44L153 43M37.3333 44.6667L37.6667 45.3333L37.3333 44.6667M154 44L170 63L171 63C168.577 55.815 160.787 47.3062 154 44M38 46L40 52L41 52L38 46z"/>
<path style="fill:#d76f73; stroke:none;" d="M39 47L40 48L39 47M157 47L158 48L157 47M158 49L159 50L158 49M40 50L41 51L40 50M159 50L160 51L159 50M160 51L161 52L160 51M41.3333 52.6667L41.6667 53.3333L41.3333 52.6667M161 52L162 53L161 52M163 53L164 54L163 53z"/>
<path style="fill:#f5a4a3; stroke:none;" d="M41.3333 54.6667L41.6667 55.3333L41.3333 54.6667z"/>
<path style="fill:#d76f73; stroke:none;" d="M164 54L165 55L164 54M42.3333 56.6667L42.6667 57.3333L42.3333 56.6667M165 56L166 57L165 56M166 57L167 58L166 57z"/>
<path style="fill:#f5a4a3; stroke:none;" d="M42 58L43 59L42 58z"/>
<path style="fill:#c43f44; stroke:none;" d="M88 60L88 61L123 60L135.397 61.7423L137 79L109 79C109 83.1671 107.328 91.9875 110.028 95.3966C113.253 99.4682 128.14 97 133 97L133 96L111 95C111 91.3592 109.915 85.4846 112.028 82.3179C116.988 74.884 133.012 85.116 137.972 77.6821C140.956 73.2104 139.699 60.6966 133.945 58.912C130.258 57.7685 124.877 58.9998 121 59C110.631 59.0007 97.9631 57.0551 88 60z"/>
<path style="fill:#d76f73; stroke:none;" d="M167 58L168 59L167 58M43 59L44 60L43 59M168 59L169 60L168 59z"/>
<path style="fill:#f5a4a3; stroke:none;" d="M43 60L44 64L45 64L43 60z"/>
<path style="fill:#d76f73; stroke:none;" d="M89 152L90 152L89 120L89 61L135 61L100 60L89.0278 61.6034L88 84L88 128L89 152M44 61L45 62L44 61z"/>
<path style="fill:#f5a4a3; stroke:none;" d="M89 61L89 62L92 62L89 61z"/>
<path style="fill:#fefdfd; stroke:none;" d="M89 62L89 150L108 150C108 141.67 108.106 133.333 107.989 125.004C107.952 122.347 106.879 118.17 108.887 115.993C117.039 107.159 133.712 122.487 131.941 103.019C131.064 93.3738 116.079 100.665 110.318 96.821C105.916 93.8837 108 82.6397 108 78L136 78L134.972 62.7423L123 61L89 62z"/>
<path style="fill:#f5a4a3; stroke:none;" d="M93 61L94 62L93 61M95 61L96 62L95 61M134 61L134 62L136 78C129.53 78 112.347 75.0254 108 80C115.922 78.1139 127.552 81.9051 134.682 78.3966C139.426 76.0625 137.65 63.3665 134 61z"/>
<path style="fill:#d76f73; stroke:none;" d="M136 61L137 62L136 61M169 61L170 62L169 61z"/>
<path style="fill:#c43f44; stroke:none;" d="M87 62L87 151L88 151L88 89L87 62z"/>
<path style="fill:#d76f73; stroke:none;" d="M45 63L47 66L45 63M170 63L171 64L170 63M171 64L173 67L171 64z"/>
<path style="fill:#f5a4a3; stroke:none;" d="M45 65L46 66L45 65M172 65L173 66L172 65M46 66L47 70L48 70L46 66z"/>
<path style="fill:#c43f44; stroke:none;" d="M171 66C174.26 84.0662 184.776 97.1693 180.32 117C171.36 156.883 136.17 179 97 179C90.2482 179 74.8074 181.39 69.2747 177.357C63.8985 173.439 62.6114 163.684 59.8804 158C51.2052 139.944 41.4259 118.579 37 99L59 98L59 97L34 98C42.5192 118.489 49.4821 139.817 58.6914 160C60.7311 164.47 62.9834 177.177 67.4298 179.397C73.7732 182.563 86.9464 180 94 180C104.016 180 114.223 180.595 124 177.985C159.123 168.608 182 138.992 182 103C182 90.559 180.381 75.282 171 66z"/>
<path style="fill:#f5a4a3; stroke:none;" d="M173 67L178 78L179 78L173 67z"/>
<path style="fill:#d76f73; stroke:none;" d="M47 68L48 69L47 68M173 68L174 69L173 68M48 70L49 71L48 70M174 70L175 71L174 70z"/>
<path style="fill:#f5a4a3; stroke:none;" d="M48.3333 71.6667L48.6667 72.3333L48.3333 71.6667z"/>
<path style="fill:#d76f73; stroke:none;" d="M175 72L176 73L175 72M49 73L50 74L49 73z"/>
<path style="fill:#f5a4a3; stroke:none;" d="M49 74L50 75L49 74z"/>
<path style="fill:#d76f73; stroke:none;" d="M176 74L177 75L176 74M50 75L51 76L50 75z"/>
<path style="fill:#f5a4a3; stroke:none;" d="M50 76L51 77L50 76z"/>
<path style="fill:#d76f73; stroke:none;" d="M177 76L178 77L177 76M51 77L52 78L51 77z"/>
<path style="fill:#f5a4a3; stroke:none;" d="M51.3333 78.6667L51.6667 79.3333L51.3333 78.6667z"/>
<path style="fill:#d76f73; stroke:none;" d="M136 78L137 79L136 78M178.333 78.6667L178.667 79.3333L178.333 78.6667z"/>
<path style="fill:#f5a4a3; stroke:none;" d="M179.333 79.6667L179.667 80.3333L179.333 79.6667z"/>
<path style="fill:#d76f73; stroke:none;" d="M52.3333 80.6667L52.6667 81.3333L52.3333 80.6667M108 80L109 97L110 97L108 80M179 81L180 82L179 81z"/>
<path style="fill:#f5a4a3; stroke:none;" d="M52.3333 82.6667L52.6667 83.3333L52.3333 82.6667M180.333 82.6667L180.667 83.3333L180.333 82.6667z"/>
<path style="fill:#d76f73; stroke:none;" d="M53 84L54 85L53 84M180.333 84.6667L180.667 85.3333L180.333 84.6667z"/>
<path style="fill:#f5a4a3; stroke:none;" d="M53 85L55 91L56 91L53 85z"/>
<path style="fill:#d76f73; stroke:none;" d="M54 86L55 87L54 86z"/>
<path style="fill:#f5a4a3; stroke:none;" d="M181.333 86.6667L181.667 87.3333L181.333 86.6667z"/>
<path style="fill:#d76f73; stroke:none;" d="M55 88L56 89L55 88M181.333 88.6667L181.667 89.3333L181.333 88.6667z"/>
<path style="fill:#f5a4a3; stroke:none;" d="M182 90L182 96L183 96L182 90z"/>
<path style="fill:#d76f73; stroke:none;" d="M56 91L57 92L56 91z"/>
<path style="fill:#f5a4a3; stroke:none;" d="M56 92L57 93L56 92z"/>
<path style="fill:#d76f73; stroke:none;" d="M57 93L58 94L57 93z"/>
<path style="fill:#f5a4a3; stroke:none;" d="M57 94L56 97L57 94z"/>
<path style="fill:#d76f73; stroke:none;" d="M58.3333 95.6667L58.6667 96.3333L58.3333 95.6667z"/>
<path style="fill:#f5a4a3; stroke:none;" d="M108 96L109 97L108 96z"/>
<path style="fill:#d76f73; stroke:none;" d="M182 96L182 112L183 112L182 96z"/>
<path style="fill:#f5a4a3; stroke:none;" d="M33 97L34 101L35 101L33 97z"/>
<path style="fill:#d76f73; stroke:none;" d="M34 97L34 98L38 98L34 97M40 97L40 98L58 98L40 97z"/>
<path style="fill:#f5a4a3; stroke:none;" d="M110 97L110 98C124.057 98 132 95.7069 132 112C139.315 94.5668 121.218 97 110 97z"/>
<path style="fill:#d76f73; stroke:none;" d="M132.333 97.6667L132.667 98.3333L132.333 97.6667z"/>
<path style="fill:#c43f44; stroke:none;" d="M133 98L133 115L110.603 116.028L109 126L108 152L89 152L89 153C94.1611 153 103.276 155.303 107.771 152.678C117.093 147.234 105.517 127.179 111.678 119.318C116.903 112.652 131.929 122.25 134.682 111.956C135.264 109.78 135.031 107.232 134.995 105.001C134.949 102.109 134.724 100.276 133 98z"/>
<path style="fill:#d76f73; stroke:none;" d="M34 99L35 100L34 99M35 101L36 102L35 101z"/>
<path style="fill:#f5a4a3; stroke:none;" d="M35 102L37 109L38 109L35 102z"/>
<path style="fill:#d76f73; stroke:none;" d="M36 103L37 104L36 103M37.3333 105.667L37.6667 106.333L37.3333 105.667M38 108L40 113L41 113L38 108z"/>
<path style="fill:#f5a4a3; stroke:none;" d="M38 110L39 111L38 110M39 112L41 115L39 112z"/>
<path style="fill:#d76f73; stroke:none;" d="M132 112L133 113L132 112z"/>
<path style="fill:#f5a4a3; stroke:none;" d="M182 112L182 118L183 118L182 112M107 118L108 118C114.298 112.054 125.122 116.329 133 114C126.664 112.478 110.628 112.086 107 118z"/>
<path style="fill:#d76f73; stroke:none;" d="M132 114L133 115L132 114M41.3333 115.667L41.6667 116.333L41.3333 115.667M109 115L110 116L109 115z"/>
<path style="fill:#f5a4a3; stroke:none;" d="M41.3333 117.667L41.6667 118.333L41.3333 117.667z"/>
<path style="fill:#d76f73; stroke:none;" d="M108 117L107 152L108 152C110.457 143.687 111.369 125.029 108 117M181 118L181 121L182 121L181 118z"/>
<path style="fill:#f5a4a3; stroke:none;" d="M107 119L108 120L107 119z"/>
<path style="fill:#d76f73; stroke:none;" d="M42 120L43 121L42 120z"/>
<path style="fill:#f5a4a3; stroke:none;" d="M42 121L47 134L48 134L42 121M181.333 121.667L181.667 122.333L181.333 121.667z"/>
<path style="fill:#d76f73; stroke:none;" d="M43 122L44 123L43 122M180 123L181 124L180 123M44 124L45 125L44 124z"/>
<path style="fill:#f5a4a3; stroke:none;" d="M180.333 124.667L180.667 125.333L180.333 124.667z"/>
<path style="fill:#d76f73; stroke:none;" d="M45.3333 126.667L45.6667 127.333L45.3333 126.667M179 126L180 127L179 126z"/>
<path style="fill:#f5a4a3; stroke:none;" d="M179.333 127.667L179.667 128.333L179.333 127.667z"/>
<path style="fill:#d76f73; stroke:none;" d="M178.333 128.667L178.667 129.333L178.333 128.667M46 129L47 130L46 129z"/>
<path style="fill:#f5a4a3; stroke:none;" d="M178 130L176 136L177 136L178 130z"/>
<path style="fill:#d76f73; stroke:none;" d="M47.3333 131.667L47.6667 132.333L47.3333 131.667M177 131L178 132L177 131M48 134L49 137L50 137L48 134M176 134L177 135L176 134z"/>
<path style="fill:#f5a4a3; stroke:none;" d="M48 135L49 136L48 135M175 136L173 141L174 141L175 136M49 137L51 144L52 144L49 137z"/>
<path style="fill:#d76f73; stroke:none;" d="M174 137L175 138L174 137M50 138L51 139L50 138M173 139L174 140L173 139M51.3333 140.667L51.6667 141.333L51.3333 140.667M172 141L173 142L172 141z"/>
<path style="fill:#f5a4a3; stroke:none;" d="M172 142L173 143L172 142z"/>
<path style="fill:#d76f73; stroke:none;" d="M171 143L172 144L171 143M52.3333 144.667L52.6667 145.333L52.3333 144.667z"/>
<path style="fill:#f5a4a3; stroke:none;" d="M171 144L170 147L171 144z"/>
<path style="fill:#d76f73; stroke:none;" d="M170 145L171 146L170 145z"/>
<path style="fill:#f5a4a3; stroke:none;" d="M52.3333 146.667L52.6667 147.333L52.3333 146.667z"/>
<path style="fill:#d76f73; stroke:none;" d="M53 147L54 151L55 151L53 147M169 147L166 151L169 147z"/>
<path style="fill:#f5a4a3; stroke:none;" d="M169 148L170 149L169 148M53.3333 149.667L53.6667 150.333L53.3333 149.667M168 149L169 150L168 149M89 150L89 151L96 151L89 150M105 150L105 151L108 151L105 150M167 150L168 151L167 150M54.3333 151.667L54.6667 152.333L54.3333 151.667z"/>
<path style="fill:#c43f44; stroke:none;" d="M88 151L89 152L88 151z"/>
<path style="fill:#d76f73; stroke:none;" d="M91 151L91 152L105 152L91 151z"/>
<path style="fill:#f5a4a3; stroke:none;" d="M166 151L167 152L166 151M165 152L160 159L165 152z"/>
<path style="fill:#d76f73; stroke:none;" d="M55 153L56 154L55 153M164 153L165 154L164 153z"/>
<path style="fill:#f5a4a3; stroke:none;" d="M55 154L56 155L55 154z"/>
<path style="fill:#d76f73; stroke:none;" d="M163 154L164 155L163 154M56 155L57 156L56 155M162 155L163 156L162 155z"/>
<path style="fill:#f5a4a3; stroke:none;" d="M56 156L58 162L59 162L56 156z"/>
<path style="fill:#d76f73; stroke:none;" d="M161 156L162 157L161 156M57 157L58 158L57 157M160 157L161 158L160 157M158.667 158.333L159.333 158.667L158.667 158.333M58 159L59 160L58 159z"/>
<path style="fill:#f5a4a3; stroke:none;" d="M158 159L152 166L158 159z"/>
<path style="fill:#d76f73; stroke:none;" d="M157 160L158 161L157 160M59.3333 161.667L59.6667 162.333L59.3333 161.667z"/>
<path style="fill:#f5a4a3; stroke:none;" d="M59 163L63 174L64 174L59 163z"/>
<path style="fill:#d76f73; stroke:none;" d="M153 163L154 164L153 163M60 164L61 165L60 164M152 164L153 165L152 164M151 165L152 166L151 165M61.3333 166.667L61.6667 167.333L61.3333 166.667M149 166L145 169L145 170L149 166z"/>
<path style="fill:#f5a4a3; stroke:none;" d="M150 166L151 167L150 166M149 167L150 168L149 167M148 168L149 169L148 168z"/>
<path style="fill:#d76f73; stroke:none;" d="M62 169L63 170L62 169z"/>
<path style="fill:#f5a4a3; stroke:none;" d="M147 169L148 170L147 169z"/>
<path style="fill:#d76f73; stroke:none;" d="M143 170L144 171L143 170z"/>
<path style="fill:#f5a4a3; stroke:none;" d="M144.667 170.333L145.333 170.667L144.667 170.333z"/>
<path style="fill:#d76f73; stroke:none;" d="M63 171L64 172L63 171M140 171L141 172L140 171z"/>
<path style="fill:#f5a4a3; stroke:none;" d="M141.667 171.333L142.333 171.667L141.667 171.333z"/>
<path style="fill:#d76f73; stroke:none;" d="M138 172L139 173L138 172z"/>
<path style="fill:#f5a4a3; stroke:none;" d="M139.667 172.333L140.333 172.667L139.667 172.333z"/>
<path style="fill:#d76f73; stroke:none;" d="M134 175L137 173L134 175z"/>
<path style="fill:#f5a4a3; stroke:none;" d="M137.667 173.333L138.333 173.667L137.667 173.333z"/>
<path style="fill:#d76f73; stroke:none;" d="M64.3333 174.667L64.6667 175.333L64.3333 174.667z"/>
<path style="fill:#f5a4a3; stroke:none;" d="M136 174L137 175L136 174z"/>
<path style="fill:#d76f73; stroke:none;" d="M131.667 175.333L132.333 175.667L131.667 175.333z"/>
<path style="fill:#f5a4a3; stroke:none;" d="M133.667 175.333L134.333 175.667L133.667 175.333M64.3333 176.667L64.6667 177.333L64.3333 176.667z"/>
<path style="fill:#d76f73; stroke:none;" d="M129 176L130 177L129 176z"/>
<path style="fill:#f5a4a3; stroke:none;" d="M130.667 176.333L131.333 176.667L130.667 176.333z"/>
<path style="fill:#d76f73; stroke:none;" d="M125.667 177.333L126.333 177.667L125.667 177.333z"/>
<path style="fill:#f5a4a3; stroke:none;" d="M127.667 177.333L128.333 177.667L127.667 177.333z"/>
<path style="fill:#d76f73; stroke:none;" d="M65.3333 178.667L65.6667 179.333L65.3333 178.667M122 178L123 179L122 178z"/>
<path style="fill:#f5a4a3; stroke:none;" d="M123.667 178.333L124.333 178.667L123.667 178.333z"/>
<path style="fill:#d76f73; stroke:none;" d="M115.667 179.333L116.333 179.667L115.667 179.333z"/>
<path style="fill:#f5a4a3; stroke:none;" d="M117 179L117 180L120 180L117 179M65 180L65 181L115 181C102.11 175.591 79.0494 180 65 180z"/>
</svg>
