<svg xmlns="http://www.w3.org/2000/svg" xml:space="preserve" id="Layer_1" width="310.811" height="365.078" x="0" y="0" version="1.1"><style id="style512" type="text/css">.st7{fill-rule:evenodd;clip-rule:evenodd;fill:#fff}</style><g id="g534" transform="translate(-94.6 -67.447)"><path id="path514" d="m94.7 362.1 2.2-3.1 104.5-198.3.2-2.1L155.5 72c-3.9-7.3-14.7-5.4-16 2.7z" style="fill:#ffc24a"/><path id="path516" d="m235.2 224.1 34.3-35.1-34.3-65.5c-3.3-6.2-12.4-6.2-15.6 0l-18.3 35v3z" style="fill:#f4bd62"/><path id="polygon518" d="m99.3 359.6 133.8-133.2 1.6-4.6-33.3-63.6L94.7 362.1l1-1z" style="fill:#f6820c"/><path id="path520" d="m239.5 429.3 121-67.5-34.6-212.9c-1.1-6.7-9.3-9.3-14-4.5L94.7 362.1l120.4 67.2c7.5 4.3 16.8 4.3 24.4 0" style="fill:#fde068"/><path id="path522" d="M359.5 361.2 325.2 150c-1.1-6.6-7.9-9.3-12.6-4.6L96 361.7l119 66.5c7.5 4.2 16.7 4.2 24.3 0z" style="fill:#fcca3f"/><path id="path524" d="M239.5 427.3c-7.6 4.2-16.9 4.2-24.5 0L95.6 361.1l-1 1L215 429.3c7.6 4.2 16.9 4.2 24.5 0l121-67.5-.3-1.8z" style="fill:#eeab37"/><circle id="ellipse526" cx="326.7" cy="347.6" r="78.7" style="fill-rule:evenodd;clip-rule:evenodd;fill:#757575" transform="rotate(-80.805 326.662 347.578)"/><path id="polygon528" d="M362.1 326.2v18l-36-17.8-35 17.8v-18l35-17.7z" class="st7"/><path id="polygon530" d="M362.1 356.9v17.9l-36-17.8-35 17.8v-17.9l35-17.8z" class="st7"/><path id="polygon532" d="m354.4 377.9-28.2 13.5v-17l10.2-4.8z" class="st7"/></g></svg>