<svg width="250" height="250" viewBox="0 0 250 250" fill="none" xmlns="http://www.w3.org/2000/svg">
<path d="M59.2344 118.531L81.875 118.565L57.0781 57.0781C57.0781 57.0781 101.644 57.0781 125 57.0781C162.512 57.0781 192.922 87.4878 192.922 125C192.922 162.512 162.512 192.922 125 192.922C117.762 192.922 88.5366 192.922 88.5366 192.922L59.2344 118.531Z" fill="#F72A30"/>
<path d="M126.104 103.153V117.733C126.104 118.174 126.492 118.531 126.966 118.531H146.765C147.239 118.531 147.627 118.888 147.627 119.33V133.931C147.627 134.372 147.239 134.729 146.765 134.729H126.955C126.481 134.729 126.093 135.087 126.093 135.528V166.248C126.093 166.69 125.705 167.047 125.232 167.047H109.69C109.216 167.047 108.828 166.69 108.828 166.248V86.986C108.828 86.5447 109.216 86.1875 109.69 86.1875H151.091C151.565 86.1875 151.953 86.5447 151.953 86.986V101.556C151.953 101.998 151.565 102.355 151.091 102.355H126.966C126.481 102.355 126.104 102.712 126.104 103.153Z" fill="white"/>
<path d="M126.104 103.153V117.733C126.104 118.174 126.492 118.531 126.966 118.531H146.765C147.239 118.531 147.627 118.888 147.627 119.33V133.931C147.627 134.372 147.239 134.729 146.765 134.729H126.955C126.481 134.729 126.093 135.087 126.093 135.528V166.248C126.093 166.69 125.705 167.047 125.232 167.047H109.69C109.216 167.047 108.828 166.69 108.828 166.248V86.986C108.828 86.5447 109.216 86.1875 109.69 86.1875H151.091C151.565 86.1875 151.953 86.5447 151.953 86.986V101.556C151.953 101.998 151.565 102.355 151.091 102.355H126.966C126.481 102.355 126.104 102.712 126.104 103.153Z" fill="url(#paint0_linear_980_1471)"/>
<defs>
<linearGradient id="paint0_linear_980_1471" x1="130.391" y1="86.1875" x2="130.391" y2="167.047" gradientUnits="userSpaceOnUse">
<stop stop-color="white"/>
<stop offset="1" stop-color="white" stop-opacity="0"/>
</linearGradient>
</defs>
</svg>
