<svg xmlns="http://www.w3.org/2000/svg" viewBox="0 0 255.47 60" width="2500" height="587"><defs><style>.cls-1{fill:none}.cls-2{isolation:isolate}.cls-3{clip-path:url(#clip-path)}.cls-4,.cls-7{fill:#cf8a29}.cls-4,.cls-5,.cls-6{mix-blend-mode:soft-light}.cls-5{fill:#7d663d}.cls-6{fill:#f6b81a}.cls-8{fill:#fbf4d8}</style><clipPath id="clip-path"><path class="cls-1" d="M24.21 55.69c-9-1.12-16-7.81-17-17.84C6 26.91 13.4 16.31 26.79 16.31h22.09a2.07 2.07 0 0 1 2 2.13v16.1A25.46 25.46 0 1 1 25.46 9.07h29a4.71 4.71 0 0 1-4.52 4.27H25.46a21.19 21.19 0 0 0-1.25 42.35zm59.5-39.8c-2.64 0-5.28 2.48-7.07 5.6v-5.18H62.43V9.66A7.57 7.57 0 0 1 63.59 5a3.24 3.24 0 0 1 1.53-1 3.11 3.11 0 0 0 3 2.16 2.62 2.62 0 0 0 2.64-2.8c0-2.06-1.9-3.38-4.54-3.38a7.63 7.63 0 0 0-5.65 2.22c-2 1.9-2.64 4.43-2.64 8.29v5.81H54v3.91h4v15h-3.59v3.8h12.46v-3.8h-4.44v-15h9.87v15h-3.53v3.8H81v-3.8h-4.21V24.92a9.45 9.45 0 0 1 4.75-4.59 3.22 3.22 0 0 0 3 2 3 3 0 0 0 2.9-3.06c.02-1.85-1.25-3.38-3.73-3.38z"/></clipPath></defs><title>freshsales_logo_color</title><g class="cls-2"><g id="Layer_1" data-name="Layer 1"><g class="cls-3"><path class="cls-4" d="M68.77 35.27v3.8H81v-3.8h-4.21V24.92a9.45 9.45 0 0 1 4.75-4.59 3.22 3.22 0 0 0 3 2 3 3 0 0 0 2.9-3.06c0-1.8-1.27-3.33-3.75-3.33-2.64 0-5.28 2.48-7.07 5.6v-5.23H62.43V9.66a12.56 12.56 0 0 1 .15-2l-4.64 5.3v3.37H55l-1 1.15v2.76h4v15h-3.59v3.8h12.46v-3.8h-4.44v-15h9.87v15h-3.53zM50.93 21l-5.36 6.12a36.39 36.39 0 0 0-8.49 30.11 25.48 25.48 0 0 0 13.85-22.69V21zM65.34 4.49a3 3 0 0 0 2.79 1.69 2.62 2.62 0 0 0 2.64-2.8 3.11 3.11 0 0 0-2-2.86z"/><path class="cls-4" d="M50.93 34.54v-16.1a2.07 2.07 0 0 0-2-2.13h-4.2l-5.4 3.61a36.5 36.5 0 0 0-15.81 35.65l.69.11c-.23 0-.45-.05-.68-.07a36.24 36.24 0 0 0 .92 4.39h1a25.49 25.49 0 0 0 25.48-25.46zM81 16.71a13.19 13.19 0 0 0-4.37 4.77v-5.17h-14.2V9.66A7.57 7.57 0 0 1 63.59 5a3.24 3.24 0 0 1 1.53-1 3.11 3.11 0 0 0 3 2.16 2.62 2.62 0 0 0 2.64-2.8 3.19 3.19 0 0 0-2.3-3L58.17 7.28a20.87 20.87 0 0 0-.23 3.22v5.81H54v3.91h4v15h-3.59v3.8h12.46v-3.8h-4.44v-15h9.87v15h-3.53v3.8H81v-3.8h-4.21v-10.3a9.45 9.45 0 0 1 4.75-4.59 3.22 3.22 0 0 0 3 2h.16zM54.33 9.86l-5.21 3.49h.83a4.71 4.71 0 0 0 4.38-3.49z"/><path class="cls-4" d="M68.77 35.27v3.8H81v-3.8h-4.21V24.92a11 11 0 0 1 .9-1.44l-.81-2.39-.24.4v-1.11l-1.38-4.06H62.43V9.66A7.57 7.57 0 0 1 63.59 5a3.24 3.24 0 0 1 1.53-1 3.11 3.11 0 0 0 3 2.16 2.62 2.62 0 0 0 2.64-2.8 3.05 3.05 0 0 0 0-.34l-.44-1.21a3.87 3.87 0 0 0-2.39-1.6l-8 2.72c-1.46 1.81-2 4.18-2 7.57v5.81H54v3.91h4v15h-3.59v3.8h12.46v-3.8h-4.44v-15h9.87v15h-3.53zM50.93 18.44a2.07 2.07 0 0 0-2-2.13H25.48a36.6 36.6 0 0 0-15.09 30.88 19 19 0 0 0 13.81 8.5 21.11 21.11 0 0 1-13.65-6.13A36.3 36.3 0 0 0 11.8 56a25.44 25.44 0 0 0 39.13-21.46v-16.1zM49.95 13.34a4.71 4.71 0 0 0 4.52-4.27H41.89l-6.82 2.33a36.57 36.57 0 0 0-4.63 1.95h19.51z"/><path class="cls-4" d="M50.93 34.54v-16.1a2.07 2.07 0 0 0-2-2.13H26.79C13.4 16.31 6 26.91 7.18 37.85c1.05 10 8 16.71 17 17.84a21.19 21.19 0 0 1 1.26-42.35h24.51a4.71 4.71 0 0 0 4.52-4.27h-29a25.46 25.46 0 1 0 25.46 25.47zM72 36v-.75h-3.23v3.8h3.29c.01-.99 0-2.05-.06-3.05zM54.41 35.27v3.8h12.46v-3.8h-4.44v-15h8.51l-.26-3.91h-8.25v-6.7A7.57 7.57 0 0 1 63.59 5a3.24 3.24 0 0 1 1.53-1 3.11 3.11 0 0 0 3 2.16A2.6 2.6 0 0 0 70 5.45l-.33-4.37A5.31 5.31 0 0 0 66.23 0a7.63 7.63 0 0 0-5.65 2.22c-2 1.9-2.64 4.43-2.64 8.29v5.81H54v3.91h4v15h-3.59z"/><path class="cls-5" d="M65.51 20.22l.77-3.91h-3.85V9.66A7.57 7.57 0 0 1 63.59 5a3.24 3.24 0 0 1 1.53-1 3.11 3.11 0 0 0 3 2.16h.16L69.34.83A5.62 5.62 0 0 0 66.23 0a7.63 7.63 0 0 0-5.65 2.22c-2 1.9-2.64 4.43-2.64 8.29v5.81H54v3.91h4v15h-3.59v3.8h7.17a36.72 36.72 0 0 0 .92-3.66v-.14h-.07v-15h3.07zM4.27 34.54a21.22 21.22 0 0 1 21.19-21.2h24.49a4.71 4.71 0 0 0 4.52-4.27h-29a25.46 25.46 0 1 0 25.46 25.47v-16.1a2.07 2.07 0 0 0-2-2.13H26.79C13.4 16.31 6 26.91 7.18 37.85c1.05 10 8 16.71 17 17.84A21.22 21.22 0 0 1 4.27 34.54z"/><path class="cls-6" d="M62.43 14.18V9.66A7.57 7.57 0 0 1 63.59 5a3.24 3.24 0 0 1 1.53-1 3.4 3.4 0 0 0 1.44 1.77L69.07.66A5.83 5.83 0 0 0 66.23 0a7.63 7.63 0 0 0-5.65 2.22c-2 1.9-2.64 4.43-2.64 8.29v5.81H54v3.91h4v3.07zM50.93 18.44a2.07 2.07 0 0 0-2-2.13H26.79C13.4 16.31 6 26.91 7.18 37.85a19.73 19.73 0 0 0 8.09 14.44 36.55 36.55 0 0 0 35.54-15.38c.07-.78.11-1.57.11-2.37v-16.1z"/><path class="cls-6" d="M25.46 9.07A25.45 25.45 0 0 0 4.38 48.8l.31.2a36.38 36.38 0 0 0 8.77 3 21.17 21.17 0 0 1 12-38.62h24.49a4.71 4.71 0 0 0 4.52-4.27h-29z"/><path class="cls-6" d="M50.93 18.44a2.07 2.07 0 0 0-2-2.13H26.79c-13.38 0-20.74 10.58-19.61 21.5a36.5 36.5 0 0 0 38.39-10.74L50.93 21v-2.56z"/><path class="cls-6" d="M4.27 34.54a21.22 21.22 0 0 1 21.19-21.2h24.49a4.71 4.71 0 0 0 4.52-4.27h-29A25.49 25.49 0 0 0 0 34.54v.14a36.11 36.11 0 0 0 4.4 2.14 21.29 21.29 0 0 1-.13-2.28zM60.58 2.22c-2 1.9-2.64 4.43-2.64 8.29v2.43l4.64-5.3a5.92 5.92 0 0 1 1-2.63 3.24 3.24 0 0 1 1.53-1 4.4 4.4 0 0 0 .22.47l3.47-4A6.1 6.1 0 0 0 66.23 0a7.63 7.63 0 0 0-5.65 2.22zM53.98 16.31v1.15l1.01-1.15h-1.01z"/><path class="cls-6" d="M44.69 16.31h-17.9c-7.74 0-13.46 3.54-16.7 8.64a36.36 36.36 0 0 0 29.19-5zM60.58 2.22a8.5 8.5 0 0 0-2.41 5.07L68.47.4a6.29 6.29 0 0 0-2.24-.4 7.63 7.63 0 0 0-5.65 2.22z"/><path class="cls-6" d="M54.47 9.07h-29A25.48 25.48 0 0 0 3.08 22.4a36.58 36.58 0 0 0 4 1.65 21.2 21.2 0 0 1 18.4-10.7h23.64l5.2-3.48a4.68 4.68 0 0 0 .15-.8zM67.92.21A6.73 6.73 0 0 0 66.23 0a7.63 7.63 0 0 0-5.65 2.22 7.86 7.86 0 0 0-.65.71z"/><path class="cls-6" d="M13.62 12a36.23 36.23 0 0 0 21.45-.61l6.82-2.32H25.46A25.3 25.3 0 0 0 13.62 12z"/></g><path class="cls-7" d="M91.39 29.15c.63 4.32 3.8 6.43 8.23 6.43a15.79 15.79 0 0 0 8.07-2.43l-.37 4.17a15.77 15.77 0 0 1-8.39 2.16c-7.33 0-12.29-4.75-12.29-11.71 0-6.38 4.38-11.87 11.29-11.87s10.71 5 10.71 10.81a16.63 16.63 0 0 1-.21 2.43h-17zm0-3.38h12.71c-.21-3.64-2.43-6.12-6.28-6.12-3.05.01-5.82 2.01-6.43 6.13zM125.94 23.77a2.52 2.52 0 0 1-2.74-2.53 3 3 0 0 1 .21-1.16 9 9 0 0 0-3.64-.69c-2.9 0-4.48 1.42-4.48 2.9 0 1.69 1.74 2.37 5.38 3.32 4.9 1.27 8.49 2.58 8.49 6.86 0 4.54-4.32 7.07-9.28 7.07-3.43 0-6.91-1.16-8.44-2.69a4 4 0 0 1-1.27-3 2.63 2.63 0 0 1 2.58-2.74 2.56 2.56 0 0 1 2.69 2.64 2.84 2.84 0 0 1-.21 1.16 9.36 9.36 0 0 0 4.64 1.09c2.74 0 5-1.06 5-3.06 0-1.63-1.63-2.43-5-3.27-5.8-1.48-8.91-2.9-8.91-7 0-3.48 3.11-6.8 8.91-6.8 3 0 5.91.95 7.38 2.43a3.79 3.79 0 0 1 1.16 2.74 2.43 2.43 0 0 1-2.47 2.73zM129.68 4.36V.46h8.07v19.67c2.16-2.32 4.85-4.22 8.07-4.22a6.83 6.83 0 0 1 5.7 2.43 8.52 8.52 0 0 1 1.48 5.22v11.71h3.53v3.8h-11.4v-3.8h3.38v-10.7a5 5 0 0 0-.9-3.22 3.8 3.8 0 0 0-3.11-1.27c-2.48 0-4.85 1.48-6.75 3.43v11.76h3.38v3.8h-11.45v-3.8h3.53V4.36h-3.53zM172.67 23.77a2.52 2.52 0 0 1-2.74-2.53 3 3 0 0 1 .21-1.16 9 9 0 0 0-3.64-.69c-2.9 0-4.48 1.42-4.48 2.9 0 1.69 1.74 2.37 5.38 3.32 4.91 1.27 8.49 2.58 8.49 6.86 0 4.54-4.32 7.07-9.28 7.07-3.43 0-6.91-1.16-8.44-2.69a4 4 0 0 1-1.27-3 2.63 2.63 0 0 1 2.58-2.74 2.56 2.56 0 0 1 2.69 2.64A2.84 2.84 0 0 1 162 35a9.36 9.36 0 0 0 4.6 1c2.74 0 5-1.06 5-3.06 0-1.63-1.63-2.43-5-3.27-5.8-1.48-8.91-2.9-8.91-7 0-3.48 3.11-6.8 8.91-6.8 3 0 5.91.95 7.38 2.43a3.79 3.79 0 0 1 1.16 2.74 2.43 2.43 0 0 1-2.47 2.73zM177.47 33c0-4.17 3.69-6.86 8.91-6.86a24.52 24.52 0 0 1 6.22.9v-2.58a4.94 4.94 0 0 0-1-3.16q-1.42-1.74-4.75-1.74a5.78 5.78 0 0 0-3 .69 3.39 3.39 0 0 1 .26 1.27 2.54 2.54 0 0 1-2.64 2.58 2.58 2.58 0 0 1-2.69-2.69c0-2.69 3-5.49 8.76-5.49 3.53 0 6.12 1.06 7.65 2.85A7.9 7.9 0 0 1 197 24v11.27h3.53v3.8h-7.81v-2.74a11.8 11.8 0 0 1-7.81 3.16c-4.18 0-7.44-2.37-7.44-6.49zm15.14.37v-3.69a21.2 21.2 0 0 0-5.54-.79c-3.22 0-5 1.53-5 3.74 0 2.06 1.53 3.43 4.17 3.43a9.85 9.85 0 0 0 6.36-2.69z"/><path class="cls-7" d="M200.14 35.27h3.69V4.36h-3.69V.46h8.23v34.81H212v3.8h-11.86v-3.8zM217.71 29.15c.63 4.32 3.8 6.43 8.23 6.43a15.79 15.79 0 0 0 8.06-2.42l-.37 4.17a15.77 15.77 0 0 1-8.39 2.16c-7.33 0-12.29-4.75-12.29-11.71 0-6.38 4.38-11.87 11.29-11.87S235 20.93 235 26.73a16.65 16.65 0 0 1-.21 2.43h-17zm0-3.38h12.71c-.21-3.64-2.43-6.12-6.28-6.12-3.06.01-5.85 2.01-6.43 6.13zM252.25 23.77a2.52 2.52 0 0 1-2.74-2.53 3 3 0 0 1 .21-1.16 9 9 0 0 0-3.64-.69c-2.9 0-4.48 1.42-4.48 2.9 0 1.69 1.74 2.37 5.38 3.32 4.91 1.27 8.49 2.58 8.49 6.86 0 4.54-4.32 7.07-9.28 7.07-3.43 0-6.91-1.16-8.44-2.69a4 4 0 0 1-1.27-3 2.63 2.63 0 0 1 2.58-2.74 2.56 2.56 0 0 1 2.69 2.64 2.84 2.84 0 0 1-.21 1.16 9.36 9.36 0 0 0 4.65 1.09c2.74 0 5-1.06 5-3.06 0-1.63-1.63-2.43-5-3.27-5.8-1.48-8.91-2.9-8.91-7 0-3.48 3.11-6.8 8.91-6.8 3 0 5.91.95 7.38 2.43a3.79 3.79 0 0 1 1.16 2.74 2.43 2.43 0 0 1-2.48 2.73z"/><path class="cls-8" d="M19.56 35.8a9.26 9.26 0 0 1 7.92-8.9l2.19-2.2-2-2a13.47 13.47 0 0 0-12.31 13.09l2.09-2.1z"/><path class="cls-8" d="M28.53 45.31a9.26 9.26 0 0 1-8.88-7.94l-2.19-2.2-2 2a13.46 13.46 0 0 0 13.05 12.35l-2.09-2.1z"/><path class="cls-8" d="M40.13 38.44L38 36.33a9.26 9.26 0 0 1-7.92 8.9l-2.19 2.2 2 2a13.47 13.47 0 0 0 12.33-13.09z"/><path class="cls-8" d="M29 26.81a9.26 9.26 0 0 1 8.88 7.94l2.19 2.2 2-2a13.46 13.46 0 0 0-13.01-12.34l2.09 2.1zM27.27 35.89a2.11 2.11 0 0 1-.09.33l-.18.24a7.35 7.35 0 0 1-1.74.77 1.77 1.77 0 0 0-.76.52 5.43 5.43 0 0 0-.88 2.35c0 .6.27.66.27.66a14.82 14.82 0 0 0 4.72.86 14.55 14.55 0 0 0 5-.74.56.56 0 0 0 .32-.35 2.68 2.68 0 0 0-.7-2.53c-.28-.62-2-1.16-2-1.16a1.5 1.5 0 0 1-.89-.56 2.88 2.88 0 0 1-.08-.37 1.32 1.32 0 0 1 0-.18 3.28 3.28 0 0 0 .49-.89 1.67 1.67 0 0 0 .25-.68.74.74 0 0 0 0-.64 2.35 2.35 0 0 0-.11-1.75 1.53 1.53 0 0 0-1-1 2.86 2.86 0 0 0-1.88-.19 2.33 2.33 0 0 0-1.67 1.85 2.56 2.56 0 0 0 .12 1.22 1.52 1.52 0 0 0 .06.63.47.47 0 0 0 .22.38 3.19 3.19 0 0 0 .47 1 .91.91 0 0 1 0 .27z"/></g></g></svg>