<svg xmlns="http://www.w3.org/2000/svg" xml:space="preserve" width="64" height="64"><path d="M239.262 480h180.269a60.087 60.087 0 0 0 42.93-17.578c11.367-11.402 17.699-26.871 17.539-42.973V239.262C480 107.07 372.93 0 240.738 0h-1.359A239.325 239.325 0 0 0 70.121 69.96 239.272 239.272 0 0 0 0 239.18C0 371.719 106.91 478.629 239.262 480Z" style="fill:#25c16f;fill-opacity:1;fill-rule:nonzero;stroke:none" transform="matrix(.13333 0 0 -.13333 0 64)"/><path d="M239.262 373.09c-60.711 0-109.922-49.219-109.922-109.93v-74.719c.43-20 16.558-36.101 36.558-36.531h31.09v85.82h-42.027v24.032c2.578 45.187 39.961 80.539 85.238 80.539 45.27 0 82.61-35.313 85.153-80.539V237.73H282.73v-85.89h28.09v-1.371c-.269-18.559-15.23-33.52-33.75-33.75h-33.519c-2.731 0-5.742-1.367-5.742-4.059a5.978 5.978 0 0 1 5.742-5.75h33.75c24.027.16 43.48 19.61 43.64 43.641v2.73c16.52 3.707 28.239 18.481 28.079 35.43v73.051c1.371 61.91-47.731 111.25-109.918 111.25z" style="fill:#fff;fill-opacity:1;fill-rule:nonzero;stroke:none" transform="matrix(.13333 0 0 -.13333 0 64)"/></svg>