<svg width="250" height="250" viewBox="0 0 250 250" fill="none" xmlns="http://www.w3.org/2000/svg">
<path d="M147.751 62.9457C156.141 62.9457 164.533 62.9733 172.933 62.9457C177.172 62.9131 180.947 64.0551 184.153 66.8888C187.674 69.9912 189.716 73.8917 189.733 78.6004C189.806 95.7208 190 112.846 189.683 129.959C189.397 145.368 183.914 158.97 173.811 170.573C163.252 182.709 149.96 189.937 134.082 192.196C121.777 193.953 109.912 192.219 98.6243 186.991C82.864 179.692 71.7312 167.825 65.2511 151.671C61.354 141.949 60.0001 131.782 61.1046 121.312C62.5558 107.576 67.7868 95.5042 76.7977 85.0962C85.5244 75.0739 96.328 68.4074 109.119 65.0164C114.574 63.5976 120.19 62.9039 125.824 62.9532C133.128 62.9582 140.437 62.9557 147.751 62.9457V62.9457ZM135.269 120.763C130.347 120.763 125.425 120.748 120.503 120.778C119.648 120.778 119.379 120.63 119.693 119.706C120.905 116.122 122.047 112.515 123.216 108.913C124.421 105.209 125.625 101.504 126.826 97.7991C127.138 96.8378 126.826 96.0597 125.996 95.5878C125.166 95.1159 124.328 95.2891 123.702 96.0747C123.353 96.514 123.039 96.9808 122.705 97.4377C116.967 105.483 111.232 113.526 105.501 121.566C103.219 124.765 100.929 127.958 98.6318 131.144C98.3468 131.495 98.169 131.922 98.1199 132.373C98.0708 132.824 98.1525 133.279 98.3551 133.684C98.7814 134.608 99.5668 134.959 100.527 134.997C100.936 135.012 101.347 135.009 101.756 135.009H129.497C131.172 135.009 131.202 135.009 130.669 136.666C128.415 143.615 126.151 150.559 123.877 157.499C123.465 158.754 123.66 159.532 124.558 160.034C125.455 160.536 126.236 160.32 127.051 159.281C127.168 159.135 127.275 158.982 127.385 158.829C135.53 147.489 143.67 136.149 151.805 124.809C152.416 123.958 152.72 123.072 152.204 122.088C151.688 121.104 150.81 120.745 149.695 120.75C144.888 120.78 140.079 120.763 135.269 120.763V120.763Z" fill="#09C6FA"/>
<path d="M135.269 120.763C140.078 120.763 144.888 120.78 149.698 120.75C150.812 120.75 151.68 121.084 152.206 122.088C152.732 123.092 152.418 123.958 151.807 124.809C143.662 136.146 135.522 147.486 127.387 158.829C127.278 158.982 127.17 159.135 127.053 159.281C126.23 160.315 125.465 160.536 124.56 160.034C123.655 159.532 123.468 158.759 123.879 157.499C126.148 150.556 128.412 143.612 130.671 136.666C131.205 135.017 131.17 135.009 129.499 135.009H101.758C101.349 135.009 100.938 135.009 100.529 134.997C99.5692 134.959 98.7838 134.608 98.3574 133.684C98.1545 133.279 98.0724 132.824 98.1211 132.373C98.1697 131.922 98.3471 131.495 98.6317 131.144C100.931 127.965 103.223 124.773 105.508 121.568C111.248 113.537 116.983 105.494 122.712 97.4402C123.039 96.9833 123.353 96.5165 123.71 96.0772C124.335 95.2916 125.156 95.1084 126.004 95.5903C126.851 96.0722 127.145 96.8453 126.834 97.8016L123.223 108.916C122.054 112.515 120.912 116.122 119.7 119.709C119.386 120.632 119.655 120.785 120.511 120.78C125.425 120.748 130.347 120.763 135.269 120.763V120.763Z" fill="#FBFEFE"/>
</svg>
