<svg xmlns="http://www.w3.org/2000/svg" xml:space="preserve" id="layer" x="0" y="0" style="enable-background:new 0 0 652 652" version="1.1" viewBox="0 0 652 652"><style>.st0{fill:#4d4d4d}</style><path d="M155.4 268.7c-13.8 0-18.7 9.6-18.7 18.6v5.5h-2.9c-2.1 0-3.8 1.7-3.8 3.8s1.7 3.8 3.8 3.8h2.9v38c0 2.2 1.8 4 4 4s4-1.8 4-4v-38h8.8c2.1 0 3.8-1.7 3.8-3.8s-1.7-3.8-3.8-3.8h-8.8v-5.5c0-5 1.9-11 10.7-11 2.1 0 3.8-1.7 3.8-3.8 0-2.1-1.6-3.8-3.8-3.8M186.7 291.6c-5.9 0-11 2.4-13.9 6.5V296c0-2.2-1.8-4-4-4s-4 1.8-4 4v42.4c0 2.2 1.8 4 4 4s4-1.8 4-4V315c0-9.8 5.2-15.6 13.9-15.6 2.1 0 3.9-1.7 3.9-3.9-.1-2.2-1.8-3.9-3.9-3.9M235.6 312.4c0-2.3-.4-8.2-3.8-13.2-3.6-5.2-9.2-7.8-16.8-7.8-14.1 0-22.2 9.4-22.2 25.7 0 16.9 8 25.8 23.2 25.8 10.2 0 15.7-5 16.7-6 .7-.7 1.3-1.5 1.3-2.9 0-2-1.6-3.7-3.7-3.7-1.1 0-1.6.3-2.3.8-2.9 2.2-6.3 4.4-12.1 4.4-9.1 0-14.9-6-15.1-15.7h29.8c5-.1 5-4.5 5-7.4M215 298.7c8.2 0 12.5 4.7 12.7 13.8H201c.9-8.9 5.8-13.8 14-13.8M262.6 313c-6-2.1-11.1-3.8-11.1-8.3 0-4.9 5.4-5.6 8.6-5.6 5.8 0 8.7 2 10.9 4.2.8.7 1.6 1.1 2.7 1.1 2 0 3.7-1.6 3.7-3.7 0-1.1-.5-1.8-.9-2.4-3.4-4.5-9.2-6.9-16.4-6.9-10.3 0-16.6 5.1-16.6 13.3 0 10 8.8 13 16.5 15.6 5.9 2 10.9 3.7 10.9 8 0 5.9-6.5 6.8-10.4 6.8-5.3 0-9.5-1.6-12.8-4.9-1-1-2.1-1.2-2.8-1.2-2 0-3.7 1.7-3.7 3.7 0 .9.2 1.5.9 2.4 3 3.9 9.9 7.8 18.4 7.8 11.5 0 18.4-5.4 18.4-14.4 0-9.8-8.6-12.8-16.3-15.5M310.1 291.4c-5.5 0-10.5 2.2-13.2 5.7v-27.2c0-2.2-1.8-4-4-4s-4 1.8-4 4v68.5c0 2.2 1.8 4 4 4s4-1.8 4-4v-25.8c0-9.3 4.5-14 13.2-14 8.4 0 11.9 3.8 11.9 13.2v26.5c0 2.2 1.8 4 4 4s4-1.8 4-4v-27.9c0-12.6-6.7-19-19.9-19M359.2 313c-6-2.1-11.1-3.8-11.1-8.3 0-4.9 5.4-5.6 8.6-5.6 5.8 0 8.7 2 10.9 4.2.7.7 1.6 1.1 2.7 1.1 2 0 3.7-1.6 3.7-3.7 0-1.1-.5-1.8-.9-2.4-3.4-4.5-9.2-6.9-16.4-6.9-10.3 0-16.6 5.1-16.6 13.3 0 10 8.8 13 16.5 15.6 5.9 2 10.9 3.7 10.9 8 0 5.9-6.5 6.8-10.4 6.8-5.3 0-9.5-1.6-12.8-4.9-1-1-2.1-1.2-2.8-1.2-2 0-3.7 1.7-3.7 3.7 0 .9.2 1.5.9 2.4 3 3.9 9.9 7.8 18.4 7.8 11.5 0 18.4-5.4 18.4-14.4 0-9.8-8.7-12.8-16.3-15.5M425.1 312.4c0-2.3-.4-8.2-3.8-13.2-3.6-5.2-9.2-7.8-16.8-7.8-14.1 0-22.2 9.4-22.2 25.7 0 16.9 8 25.8 23.2 25.8 10.2 0 15.7-5 16.7-6 .7-.7 1.3-1.5 1.3-2.9 0-2-1.6-3.7-3.7-3.7-1 0-1.5.2-2.3.8-2.9 2.2-6.3 4.4-12.1 4.4-9.1 0-14.9-6-15.1-15.7h29.8c5-.1 5-4.5 5-7.4m-20.6-13.7c8.2 0 12.5 4.7 12.7 13.8h-26.7c.8-8.9 5.8-13.8 14-13.8M455.9 291.6c-5.9 0-11 2.4-13.9 6.5V296c0-2.2-1.8-4-4-4s-4 1.8-4 4v42.4c0 2.2 1.8 4 4 4s4-1.8 4-4V315c0-9.8 5.2-15.6 13.9-15.6 2.1 0 3.9-1.7 3.9-3.9s-1.7-3.9-3.9-3.9M504.6 292c-1.8 0-3.1.9-3.7 2.6l-14.1 34.5-14.1-34.5c-.9-2.1-2.5-2.6-3.7-2.6-2.2 0-4 1.8-4 4 0 .7.2 1.2.3 1.5l.1.2 17.7 42.2c.7 1.6 2.1 2.5 3.7 2.5s3-.9 3.7-2.5l17.8-42.2.1-.2c.1-.3.3-.8.3-1.5-.1-2.3-1.9-4-4.1-4M519.6 274c-3.1 0-4.6 1.6-4.6 4.8 0 2.8 1.8 4.6 4.6 4.6s4.6-1.8 4.6-4.6c0-3.1-1.5-4.8-4.6-4.8M519.6 292c-2.2 0-4 1.8-4 4v42.4c0 2.2 1.8 4 4 4s4-1.8 4-4V296c0-2.3-1.8-4-4-4M569 330.3c-.9 0-1.5.2-2.4.9-2.3 1.7-5.9 4.3-11.7 4.3-9.5 0-14.1-6-14.1-18.4 0-12.2 4.7-18.3 14.1-18.3 6.7 0 9.3 3 10.8 4.7.9 1 1.8 1.5 3 1.5 2.1 0 3.7-1.6 3.7-3.7 0-.9-.2-1.5-.9-2.4-.9-1.2-6-7.5-16.6-7.5-14.5 0-22.2 8.9-22.2 25.7 0 16.9 7.7 25.8 22.2 25.8 9.1 0 14.4-4.4 16.2-5.8 1.1-1 1.6-1.9 1.6-3.1 0-2-1.7-3.7-3.7-3.7M616.4 330.3c-1 0-1.5.2-2.3.8-2.9 2.2-6.3 4.4-12.1 4.4-9.1 0-14.9-6-15.1-15.7h29.8c4.8 0 4.8-4.4 4.8-7.3 0-2.3-.4-8.2-3.8-13.2-3.6-5.2-9.2-7.8-16.8-7.8-14.1 0-22.2 9.4-22.2 25.7 0 16.9 8 25.8 23.2 25.8 10.2 0 15.7-5 16.7-6 .7-.7 1.3-1.5 1.3-2.9.1-2.1-1.5-3.8-3.5-3.8m-15.5-31.6c8.2 0 12.5 4.7 12.7 13.8h-26.7c.8-8.9 5.8-13.8 14-13.8" class="st0"/><path d="M68.5 376.1c-25.9 0-47-21-47-47 0-25.9 21-47 47-47h35.2c6.5 0 11.7 5.3 11.7 11.7V329c0 26.1-21 47.1-46.9 47.1" style="fill:#08c7fb"/><path d="M67.8 352.4c.6.4 1.4.3 1.8-.3l14.8-20.6 3.4-4.8c.8-1.1 0-2.7-1.4-2.7H64.2l5.5-16.6c.2-.5 0-1.1-.5-1.5-.6-.4-1.4-.3-1.8.3l-14.8 20.6-3.4 4.8c-.8 1.1 0 2.7 1.4 2.7H72.9l-5.5 16.6c-.3.5-.1 1.1.4 1.5" style="fill:#fff"/></svg>