<?xml version="1.0" encoding="iso-8859-1"?>
<!-- Generator: Adobe Illustrator 19.0.0, SVG Export Plug-In . SVG Version: 6.00 Build 0)  -->
<svg version="1.1" id="Layer_1" xmlns="http://www.w3.org/2000/svg" xmlns:xlink="http://www.w3.org/1999/xlink" x="0px" y="0px"
	 viewBox="0 0 504 504" style="enable-background:new 0 0 504 504;" xml:space="preserve">
<circle style="fill:#FD8469;" cx="252" cy="252" r="252"/>
<path style="fill:#8BD7F8;" d="M379.4,236.8V289c0,9-7.3,16.3-16.3,16.3h-35l0,0v-193c0-5.7-4.6-10.3-10.3-10.3H145.9
	c-5.7,0-10.3,4.6-10.3,10.3v253.4h192.5V321l0,0h35c17.7,0,32-14.4,32-32v-52.1h-15.7V236.8z"/>
<rect x="159.8" y="125.9" style="fill:#FFFFFF;" width="144.2" height="100.2"/>
<rect x="117.1" y="365.7" style="fill:#324A5E;" width="229.6" height="26.1"/>
<path style="fill:#FFD05B;" d="M423.9,237.1h-36.6v-11.8h24.8l0.1-26.6c0-7.7-4.1-14.9-10.7-18.8l-17.2-10l6-10.2l17.2,10
	c10.3,6,16.6,17.1,16.6,29.1L423.9,237.1z"/>
<path style="fill:#324A5E;" d="M395.2,163l-17.7-38c-1.8-3.9-6.5-5.6-10.5-3.8c-3.9,1.8-5.7,6.5-3.8,10.5l16.2,34.8v70.4h15.8V163z"
	/>
<g>
</g>
<g>
</g>
<g>
</g>
<g>
</g>
<g>
</g>
<g>
</g>
<g>
</g>
<g>
</g>
<g>
</g>
<g>
</g>
<g>
</g>
<g>
</g>
<g>
</g>
<g>
</g>
<g>
</g>
</svg>
