<svg class="Genesys_logo g-icon" id="g-cw-logo-2017" data-url="g-cw-logo-2017" xmlns="http://www.w3.org/2000/svg" viewBox="0 0 200 39.9" style="enable-background:new 0 0 200 39.9;" xml:space="preserve">
<style type="text/css">.g-cw-icon{fill:#FF4F1F;}.g-cw-text{fill:#4E5054;}</style>
<path class="g-cw-small g-cw-icon" d="M20.3,2.3c1,0,1.8,0.8,1.8,1.8c0,1-0.8,1.8-1.8,1.8c0,0-0.1,0-0.1,0c-0.9,0-1.7-0.8-1.7-1.7   c0-0.5,0.2-1,0.5-1.3C19.3,2.5,19.8,2.3,20.3,2.3 M20.3,0c-2.3,0-4.2,2-4.1,4.3c0.1,2.1,1.8,3.8,3.9,3.9c0.1,0,0.1,0,0.2,0   c2.3,0,4.1-1.9,4.1-4.1S22.5,0,20.3,0L20.3,0z"></path>
<path d="M17.5,28.9c2.3,0,4.2,1.9,4.2,4.2s-1.9,4.2-4.2,4.2H13c-2.3,0-4.2-1.9-4.2-4.2s1.9-4.2,4.2-4.2H17.5 M17.5,26.1  H13c-3.8,0-6.9,3.1-6.9,6.9c0,3.8,3.1,6.9,6.9,6.9h4.5c3.8,0,6.9-3.1,6.9-6.9C24.4,29.2,21.3,26.1,17.5,26.1L17.5,26.1z" class="g-cw-large g-cw-icon"></path>
<path d="M17.5,12.7c2.3,0,4.2,1.9,4.2,4.2s-1.9,4.2-4.2,4.2H6.9c-2.3,0-4.2-1.9-4.2-4.2s1.9-4.2,4.2-4.2H17.5 M17.5,10  H6.9C3.1,10,0,13.1,0,16.9c0,3.8,3.1,6.9,6.9,6.9h10.6c3.8,0,6.9-3.1,6.9-6.9C24.4,13.1,21.3,10,17.5,10L17.5,10z" class="g-cw-mid g-cw-icon"></path>
<path class="g-cw-text" d="M195.1,10.4h-1V10h2.4v0.4h-1V13h-0.4V10.4z M198.3,13l-0.8-2.6V13H197v-3h0.7l0.8,2.5l0.8-2.5h0.7v3h-0.4v-2.6  l-0.8,2.6H198.3z M78.1,39.9v-3H64.3V26.2h12.4v-2.9H64.3V13h13.8v-3H61.3v29.9H78.1z M127.7,39.9v-3h-13.8V26.2h12.4v-2.9h-12.4V13  h13.8v-3h-16.8v29.9H127.7z M164.2,39.9V27.5L174.3,10H171l-8.2,14.3L154.5,10h-3.4l10.1,17.5v12.4H164.2z M104.7,39.9V10h-3v24.4  L86.9,10h-3h0l0,29.9h3l0-24.4l14.8,24.4H104.7z M45.5,27.1h7.2v2.4c0,5.9-3.7,7.9-7.2,7.9c-3.5,0-7.2-2.1-7.2-7.9l0-8.9  c0-5.9,3.7-7.9,7.2-7.9c3.8,0,6.4,2.3,7,6.1h3c-0.7-5.5-4.6-9.1-10-9.1c-6.1,0-10.2,4.4-10.2,10.9l0,9c0,6.5,4.1,10.9,10.2,10.9  c6.1,0,10.2-4.4,10.2-10.9l0-5.3H45.5V27.1z M131.4,30.9c0.1,4.3,2.9,9.5,9.7,9.5c5.5,0,8.9-3.1,8.9-8.2c0-4.6-3.1-7.1-6-7.9  l-5.2-1.4c-2.5-0.7-3.9-2.5-3.9-5.1c0-3.1,2.2-5.2,5.6-5.2c3.2,0,5.4,1.8,6.1,5.3h3c-0.6-4.1-3.2-8.2-9.1-8.2  c-5.1,0-8.6,3.3-8.6,8.1c0,4,2.2,7.1,5.9,8.1l5,1.4c2.6,0.7,4.1,2.5,4.1,5c0,3.4-2.1,5.2-5.9,5.2c-3.8,0-6.4-2.5-6.7-6.5L131.4,30.9  z M175.6,30.9c0.1,4.3,2.9,9.5,9.7,9.5c5.5,0,8.9-3.1,8.9-8.2c0-4.6-3.1-7.1-6-7.9l-5.2-1.4c-2.5-0.7-3.9-2.5-3.9-5.1  c0-3.1,2.2-5.2,5.6-5.2c3.2,0,5.4,1.8,6.1,5.3h3c-0.6-4.1-3.2-8.2-9.1-8.2c-5.1,0-8.6,3.3-8.6,8.1c0,4,2.2,7.1,5.9,8.1l5,1.4  c2.6,0.7,4.1,2.5,4.1,5c0,3.4-2.1,5.2-5.9,5.2c-3.8,0-6.4-2.5-6.7-6.5L175.6,30.9z"></path>
</svg>