<svg width="250" height="250" viewBox="0 0 250 250" fill="none" xmlns="http://www.w3.org/2000/svg">
<path d="M124.741 60C87.8857 60 58 89.799 58 126.559C58 155.967 77.1233 180.916 103.642 189.717C106.977 190.333 108.202 188.273 108.202 186.515C108.202 184.928 108.14 179.685 108.111 174.123C89.5434 178.149 85.6255 166.27 85.6255 166.27C82.5895 158.577 78.2152 156.531 78.2152 156.531C72.16 152.4 78.6716 152.485 78.6716 152.485C85.3737 152.955 88.9027 159.344 88.9027 159.344C94.8552 169.52 104.516 166.577 108.324 164.877C108.923 160.575 110.653 157.639 112.562 155.977C97.7378 154.293 82.154 148.586 82.154 123.083C82.154 115.817 84.7613 109.879 89.0309 105.218C88.3379 103.541 86.0536 96.7715 89.6774 87.6034C89.6774 87.6034 95.2818 85.8145 108.036 94.4261C113.359 92.9509 119.069 92.2117 124.741 92.1867C130.413 92.2117 136.127 92.9509 141.461 94.4261C154.199 85.8145 159.796 87.6034 159.796 87.6034C163.429 96.7715 161.143 103.541 160.45 105.218C164.729 109.879 167.319 115.816 167.319 123.083C167.319 148.647 151.706 154.276 136.844 155.924C139.238 157.989 141.371 162.04 141.371 168.249C141.371 177.155 141.294 184.323 141.294 186.515C141.294 188.286 142.495 190.362 145.878 189.708C172.382 180.897 191.481 155.957 191.481 126.559C191.481 89.799 161.6 60 124.741 60Z" fill="#161614"/>
<path d="M82.9965 154.815C82.85 155.145 82.3276 155.245 81.8528 155.018C81.3687 154.801 81.0965 154.35 81.2535 154.018C81.3974 153.678 81.9198 153.583 82.403 153.811C82.8882 154.028 83.1646 154.483 82.9965 154.815ZM86.2795 157.736C85.9613 158.031 85.3389 157.894 84.9165 157.429C84.48 156.965 84.3983 156.344 84.7213 156.045C85.0495 155.751 85.653 155.889 86.0906 156.353C86.5271 156.823 86.6119 157.439 86.279 157.737L86.2795 157.736ZM88.5319 161.474C88.1226 161.757 87.4536 161.491 87.0406 160.9C86.6318 160.308 86.6318 159.598 87.0495 159.314C87.4641 159.029 88.1226 159.285 88.5413 159.872C88.9496 160.474 88.9496 161.184 88.5314 161.474L88.5319 161.474ZM92.3404 165.803C91.9745 166.205 91.1957 166.097 90.6251 165.548C90.042 165.011 89.8792 164.25 90.2461 163.847C90.6162 163.444 91.3998 163.558 91.9745 164.102C92.554 164.638 92.7309 165.405 92.3409 165.803H92.3404ZM97.2628 167.264C97.1021 167.785 96.3515 168.022 95.5957 167.801C94.8409 167.573 94.3467 166.962 94.4991 166.435C94.6561 165.911 95.4098 165.664 96.1714 165.901C96.9252 166.128 97.4204 166.734 97.2633 167.264H97.2628ZM102.866 167.884C102.885 168.433 102.243 168.888 101.45 168.898C100.652 168.916 100.006 168.471 99.9978 167.932C99.9978 167.377 100.624 166.926 101.422 166.913C102.216 166.897 102.866 167.339 102.866 167.884ZM108.369 167.674C108.464 168.209 107.913 168.759 107.125 168.906C106.35 169.047 105.633 168.716 105.534 168.185C105.438 167.636 106 167.086 106.773 166.944C107.562 166.807 108.269 167.129 108.369 167.674Z" fill="#161614"/>
</svg>
