<svg xmlns="http://www.w3.org/2000/svg" xml:space="preserve" id="svg50" width="337.624" height="310.967" x="0" y="0" version="1.1"><style id="style2" type="text/css">.st3{fill:#e24329}.st4{fill:#fca326}.st5{fill:#fc6d26}.st15{opacity:.1;fill:#e828e3}.st15,.st16{display:inline}.st18{font-family:&quot;SourceSansPro-Semibold&quot;}.st19{font-size:24px}</style><g id="g26" transform="translate(-123.977 -123.925)"><path id="path50_5_" d="m292.778 434.892 62.199-191.322H230.669Z" class="st3"/><path id="path66_12_" d="m143.549 243.57-18.941 58.126c-1.714 5.278.137 11.104 4.661 14.394l163.509 118.801z" class="st4"/><path id="path74_5_" d="M143.549 243.57h87.12l-37.494-115.224c-1.919-5.895-10.282-5.895-12.27 0z" class="st3"/><path id="path82_12_" d="m442.097 243.57 18.873 58.126c1.714 5.278-.137 11.104-4.661 14.394L292.778 434.892Z" class="st4"/><path id="path86_5_" d="M442.097 243.57h-87.12l37.425-115.224c1.919-5.895 10.282-5.895 12.27 0z" class="st3"/><path id="polygon22" d="m292.778 434.892 62.199-191.322h87.12z" class="st5"/><path id="polygon24" d="M292.778 434.892 143.549 243.57h87.12z" class="st5"/></g></svg>