<svg width="250" height="250" viewBox="0 0 250 250" fill="none" xmlns="http://www.w3.org/2000/svg">
<g clip-path="url(#clip0_2_7302)">
<path d="M125.039 184.022L148.959 110.932H101.118L125.038 184.022H125.039Z" fill="#E24329"/>
<path d="M125.038 184.021L101.117 110.932H67.5947L125.038 184.021Z" fill="#FC6D26"/>
<path d="M67.5943 110.932L60.3254 133.143C60.0022 134.131 60.0022 135.195 60.3253 136.182C60.6484 137.169 61.2781 138.03 62.1241 138.64L125.037 184.022L67.5938 110.932L67.5943 110.932Z" fill="#FCA326"/>
<path d="M67.5947 110.932H101.117L86.7113 66.911C85.9699 64.6458 82.7423 64.6463 82.0014 66.911L67.5947 110.932Z" fill="#E24329"/>
<path d="M125.038 184.021L148.958 110.932H182.481L125.037 184.021H125.038Z" fill="#FC6D26"/>
<path d="M182.481 110.932L189.75 133.143C190.073 134.131 190.073 135.195 189.75 136.182C189.427 137.17 188.797 138.03 187.951 138.64L125.038 184.022L182.481 110.932V110.932Z" fill="#FCA326"/>
<path d="M182.481 110.932H148.958L163.365 66.911C164.106 64.6458 167.334 64.6463 168.075 66.911L182.481 110.932Z" fill="#E24329"/>
</g>
<defs>
<clipPath id="clip0_2_7302">
<rect width="130" height="119" fill="white" transform="translate(60 65)"/>
</clipPath>
</defs>
</svg>
