<svg xmlns="http://www.w3.org/2000/svg" width="512" height="512"><path d="m0 0 1 1-1-1z" style="fill:#859fa5;stroke:none"/><path d="M1.603 1.028C-1.6 3.565 0 12.368 0 16v475c0 4.705-2.01 15.561 1.028 19.397C4.628 514.942 23.479 512 29 512h454c6.223 0 22.43 2.906 27.397-1.028C513.6 508.435 512 499.632 512 496V21c0-4.705 2.01-15.561-1.028-19.397C507.372-2.942 488.521 0 483 0H29C22.777 0 6.57-2.906 1.603 1.028z" style="fill:#6cafbb;stroke:none"/><path d="m511 0 1 1-1-1z" style="fill:#859fa5;stroke:none"/><path d="M1 1v510h510V1H1z" style="fill:#1eb3c7;stroke:none"/><path d="m329.667 43.333.666.334-.666-.334z" style="fill:#a3d7e1;stroke:none"/><path d="M246 340c-15.52-.01-31.593-3.065-47 .211-5.959 1.267-14.659 3.199-14.787 10.79-.309 18.335 29.228 34.619 41.787 44.129 2.207 1.671 15.862 10.48 11.534 13.803-3.341 2.565-13.702-.826-17.534-1.544-5.073-.951-12.595-1.134-16.892-4.131-8.029-5.599-11.843-25.363-15.796-34.258-3.658-8.233-3.316-23.652-16.312-21.782-20.957 3.014-5.34 25.503-.492 34.782 1.644 3.147 5.337 10.298 1.17 12.957-3.637 2.321-9.279-1.407-12.678-2.753-11.881-4.707-17.626-13.606-28-20.234-3.589-2.293-9.596-4.448-13.581-1.791-5.786 3.858-1.609 13.56 1.381 17.82 7.142 10.176 19.325 12.339 29.2 18.701 2.774 1.787 8.941 5.239 8.369 9.246-.558 3.908-6.234 4.958-9.369 4.975-8.304.043-20.314-5.726-27.682.782-5.68 5.017-1.106 16.068 3.726 19.867 7.395 5.815 15.234 1.477 22.956-.849 14.566-4.387 30.856-9.949 46-11.547 13.022-1.374 27.546 4.936 40 8.066 7.691 1.933 16.142 1.556 24 3.021 15.522 2.892 31.025 7.815 47 5.3 19.149-3.014 20.474-14.852 9.079-28.561-12.397-14.916-30.458-30.547-49.079-37 6.643-6.272 20.548-2.698 28 .782 13.779 6.433 27.702 13.589 42 18.782 5.884 2.137 14.058 4.109 19.957.979 6.809-3.613 6.78-11.878 7.082-18.543.667-14.684 1.124-29.051 6.281-43 1.318-3.565 5.011-17.793 9.644-17.793 4.601 0 5.4 13.532 5.955 16.793 2.321 13.648 3.84 28.381 9.866 41 3.146 6.589 7.132 12.97 15.214 9.467 13.371-5.796 16.122-26.985 19.71-39.467 8.46-29.433 16.833-63.161 36.881-87 6.778-8.059 32.478-22.842 26.231-34.985-10.19-19.806-25.591 9.103-31.411 15.985-1.891 2.236-5.528 7.639-9.107 5.94-3.375-1.603-3.275-7.855-4.048-10.94-1.576-6.284-4.458-12.521-5.078-19-.519-5.433 1.594-10.593.034-16-2.04-7.067-9.488-13.904-17.167-9.821-3.722 1.979-5.243 5.794-4.511 9.821 2.366 13.003 7.656 25.837 10.267 39 2.784 14.032-3.862 13.924-12.8 5-2.318-2.315-4.683-4.596-6.91-7-4.227-4.563-7.015-11.778-12.183-15.258-5.686-3.827-17.899-1.813-18.574 6.262-.467 5.591 4.844 11.05 8.706 14.381 10.062 8.678 21.747 15.789 30.776 25.654 9.09 9.933 3.353 17.451 2.26 28.961-.726 7.642-2.817 15.089-9.075 20-.956-22.214-11.922-45.775-24.004-64-4.35-6.561-12.742-18.421-21.903-12.258C354.958 250.561 353.079 268.225 350 279c-.826 2.892-1.941 12.793-6.105 12.793-5.235 0-7.334-16.932-8.091-20.793-2.881-14.69-3.973-28.564-14.844-40-7.22-7.595-14.015-15.711-21.96-22.575-2.566-2.217-8.788-5.8-9.369-9.405-1.032-6.404 12.896-1.577 15.369-1.034 12.228 2.687 24.615 4.919 37 6.742 5.061.746 10.593 2.122 14.606-2.007 11.62-11.957 3.057-38.482 2.433-52.721-.662-15.12 7.073-31.013 14.273-44 5.394-9.729 24.155-16.94 23.535-28.996-.386-7.51-11.494-12.15-17.803-8.824-7.345 3.873-11.643 19.531-14.905 26.82-1.356 3.03-3.656 9.322-8.049 8.248-7.924-1.936-12.735-28.41-11.862-35.248.524-4.11 3.885-7.738 3.018-12-1.74-8.555-12.07-15.907-20.152-10.772-12.489 7.936 3.33 35.945 6.907 46.772 1.135 3.435 6.424 12.74 2.475 15.624-3.167 2.313-7.287-1.832-9.472-3.798-7.609-6.846-10.631-18.437-19.019-24.123-4.637-3.144-14.758-3.393-16.536 3.352-2.354 8.933 9.224 15.89 14.551 20.984C320.6 118 334.965 130.127 340.572 150c1.59 5.637 4.475 14.581.686 19.877-3.73 5.213-10.288 2.405-15.258.982-14.348-4.109-28.507-8.632-43-12.232-21.475-5.336-47.138-15.144-60.147-34.627-6.524-9.771-1.066-22.333-11.893-29.895-11.026-7.7-22.122-1.478-33.96-4.344-10.886-2.636-24.414-11.582-35.985-7.019-5.109 2.015-6.387 7.348-6.964 12.258-1.14 9.699-1.555 19.482-3.946 29-1.865 7.425-5.868 14.141-4.488 22 2.2 12.541 10.712 15.777 17.854 25.001 5.966 7.706 9.993 18.108 13.883 26.999 2.693 6.155.58 14.6-.615 21-2.894 15.507-7.098 30.319-9.163 46-.853 6.478 1.325 16.191-2.666 21.757-5.138 7.167-21.954-4.293-26.91-7.8-13.242-9.373-23.169-31.303-26.482-46.957-.882-4.166 1.166-8.996-.3-12.895-1.642-4.37-7.117-5.344-11.218-4.996-21.215 1.796-5.64 24.56.856 33.891 2.18 3.133 6.056 8.006 2.733 11.678-3.758 4.153-10.142.444-13.585-2.21-10.448-8.055-10.502-22.274-19.229-30.15-6.644-5.998-18.255.741-19.387 8.682C29.76 247.424 52.32 258.763 60 264.478c2.942 2.19 10.922 6.904 9.654 11.413-1.087 3.866-6.453 4.125-9.654 4.09-9.664-.105-17.494-7.015-27-6.898-6.505.079-12.4 4.934-10.563 11.913 2.883 10.949 22.159 6.813 30.563 7.019 25.527.625 47.12 7.025 71 14.985 10.529 3.51 24.801 11.295 35.996 6.852 12.493-4.959 12.779-31.488 15.853-42.852 1.195-4.419 1.677-11.711 6.259-14.11 6.687-3.5 11.005 12.941 12.691 17.11 4.811 11.893 9.262 26.553 18.294 35.961 9.885 10.296 26.23 17.177 32.907 30.039z" style="fill:#feffff;stroke:none"/><path d="m335.667 43.333.666.334-.666-.334M327 44l1 1-1-1m11 0 1 1-1-1m-12 1 1 1-1-1z" style="fill:#a3d7e1;stroke:none"/><path d="m340 45 1 1-1-1m1 1 1 1-1-1z" style="fill:#6cafbb;stroke:none"/><path d="m323 48 1 1-1-1z" style="fill:#a3d7e1;stroke:none"/><path d="m322 49 1 1-1-1z" style="fill:#6cafbb;stroke:none"/><path d="m344 50 1 1-1-1z" style="fill:#a3d7e1;stroke:none"/><path d="m321 51 1 1-1-1z" style="fill:#6cafbb;stroke:none"/><path d="m345 51 1 1-1-1m-23.667 1.667.334.666-.334-.666M346 53l1 1-1-1m1.333 1.667.334.666-.334-.666M321 55v3h1l-1-3z" style="fill:#a3d7e1;stroke:none"/><path d="m321 58 1 1-1-1z" style="fill:#6cafbb;stroke:none"/><path d="m347 59 1 1-1-1m-25 1 1 1-1-1z" style="fill:#a3d7e1;stroke:none"/><path d="m347 60 1 1-1-1z" style="fill:#6cafbb;stroke:none"/><path d="m346 61 1 1-1-1m-23 1 1 1-1-1m22 1 1 1-1-1m-21 1 1 1-1-1m20.333 1.667.334.666-.334-.666M325 66l1 1-1-1z" style="fill:#a3d7e1;stroke:none"/><path d="M381 66v1h4l-4-1m-37 1v4h1l-1-4m34 0 1 1-1-1z" style="fill:#6cafbb;stroke:none"/><path d="m379 67 1 1-1-1m7.667.333.666.334-.666-.334z" style="fill:#a3d7e1;stroke:none"/><path d="m388 67 1 1-1-1z" style="fill:#6cafbb;stroke:none"/><path d="m326 68 1 1-1-1m51 0 1 1-1-1m13 0 1 1-1-1z" style="fill:#a3d7e1;stroke:none"/><path d="m326 69 1 1-1-1z" style="fill:#6cafbb;stroke:none"/><path d="m376 69 1 1-1-1m16 0 1 1-1-1z" style="fill:#a3d7e1;stroke:none"/><path d="m375 70 1 1-1-1z" style="fill:#6cafbb;stroke:none"/><path d="m393 70 1 1-1-1m-66 1 1 1-1-1m17 0v3h1l-1-3z" style="fill:#a3d7e1;stroke:none"/><path d="m395 71 1 1-1-1z" style="fill:#6cafbb;stroke:none"/><path d="m374 72 1 1-1-1m-45.667 1.667.334.666-.334-.666M396 73l1 1-1-1z" style="fill:#a3d7e1;stroke:none"/><path d="m373 74 1 1-1-1z" style="fill:#6cafbb;stroke:none"/><path d="M397 74v5h1l-1-5z" style="fill:#a3d7e1;stroke:none"/><path d="m345 75 1 1-1-1z" style="fill:#6cafbb;stroke:none"/><path d="m373 75 1 1-1-1m-43.667 1.667.334.666-.334-.666m16 0 .334.666-.334-.666z" style="fill:#a3d7e1;stroke:none"/><path d="m372 76 1 1-1-1z" style="fill:#6cafbb;stroke:none"/><path d="M297 77v1h3l-3-1m6.667.333.666.334-.666-.334z" style="fill:#a3d7e1;stroke:none"/><path d="m305 77 1 1-1-1z" style="fill:#6cafbb;stroke:none"/><path d="m372 77 1 1-1-1m-77.333 1.333.666.334-.666-.334M306 78l1 1-1-1z" style="fill:#a3d7e1;stroke:none"/><path d="m307 78 1 1-1-1m22 0 1 1-1-1m42 0 1 1-1-1m-79 1 1 1-1-1z" style="fill:#6cafbb;stroke:none"/><path d="m308 79 1 1-1-1m38.333.667.334.666-.334-.666M371 79l1 1-1-1z" style="fill:#a3d7e1;stroke:none"/><path d="m397 79 1 1-1-1z" style="fill:#6cafbb;stroke:none"/><path d="m309 80 1 1-1-1m21 0 1 1-1-1z" style="fill:#a3d7e1;stroke:none"/><path d="m141 81 1 1-1-1z" style="fill:#6cafbb;stroke:none"/><path d="M142 81v1h9l-9-1z" style="fill:#a3d7e1;stroke:none"/><path d="m151 81 1 1-1-1z" style="fill:#6cafbb;stroke:none"/><path d="m291 81 1 1-1-1m19 0 1 1-1-1z" style="fill:#a3d7e1;stroke:none"/><path d="m330 81 1 1-1-1z" style="fill:#6cafbb;stroke:none"/><path d="m370 81 1 1-1-1m26 0 1 1-1-1z" style="fill:#a3d7e1;stroke:none"/><path d="m139 82 1 1-1-1z" style="fill:#6cafbb;stroke:none"/><path d="m140 82 1 1-1-1m14.667.333.666.334-.666-.334z" style="fill:#a3d7e1;stroke:none"/><path d="m156 82 1 1-1-1m134 0 1 1-1-1z" style="fill:#6cafbb;stroke:none"/><path d="m311 82 1 1-1-1z" style="fill:#a3d7e1;stroke:none"/><path d="m347 82 1 1-1-1z" style="fill:#6cafbb;stroke:none"/><path d="m138 83 1 1-1-1m20 0 1 1-1-1z" style="fill:#a3d7e1;stroke:none"/><path d="m159 83 1 1-1-1z" style="fill:#6cafbb;stroke:none"/><path d="M290 83v4h1l-1-4z" style="fill:#a3d7e1;stroke:none"/><path d="m312 83 1 1-1-1z" style="fill:#6cafbb;stroke:none"/><path d="m331.333 83.667.334.666-.334-.666M347 83v3h1l-1-3m22 0 1 1-1-1m26 0 1 1-1-1m-258 1 1 1-1-1m24.667.333.666.334-.666-.334M394 84l1 1-1-1z" style="fill:#a3d7e1;stroke:none"/><path d="m136 85 1 1-1-1z" style="fill:#6cafbb;stroke:none"/><path d="m164.667 85.333.666.334-.666-.334M313 85l1 1-1-1z" style="fill:#a3d7e1;stroke:none"/><path d="m331 85 1 1-1-1z" style="fill:#6cafbb;stroke:none"/><path d="m368 85 1 1-1-1m-201 1 1 1-1-1z" style="fill:#a3d7e1;stroke:none"/><path d="m168 86 1 1-1-1m146 0 1 1-1-1z" style="fill:#6cafbb;stroke:none"/><path d="m135 87 1 1-1-1m35 0 1 1-1-1m162 0 1 1-1-1z" style="fill:#a3d7e1;stroke:none"/><path d="m348.333 87.667.334.666-.334-.666z" style="fill:#6cafbb;stroke:none"/><path d="m367 87 1 1-1-1m-195 1 1 1-1-1z" style="fill:#a3d7e1;stroke:none"/><path d="m173 88 1 1-1-1z" style="fill:#6cafbb;stroke:none"/><path d="m291 88 1 1-1-1m24 0 1 1-1-1z" style="fill:#a3d7e1;stroke:none"/><path d="m332 88 1 1-1-1z" style="fill:#6cafbb;stroke:none"/><path d="m390 88 1 1-1-1z" style="fill:#a3d7e1;stroke:none"/><path d="m134 89 1 1-1-1z" style="fill:#6cafbb;stroke:none"/><path d="m175.667 89.333.666.334-.666-.334z" style="fill:#a3d7e1;stroke:none"/><path d="m177 89 1 1-1-1m12.667.333.666.334-.666-.334z" style="fill:#6cafbb;stroke:none"/><path d="M191 89v1h4l-4-1m7 0v1h4l-4-1z" style="fill:#a3d7e1;stroke:none"/><path d="m202 89 1 1-1-1m89 0 1 1-1-1z" style="fill:#6cafbb;stroke:none"/><path d="M348 89v3h1l-1-3m18 0 1 1-1-1m23 0 1 1-1-1m-254.667 1.667.334.666-.334-.666M180 90v1h7l-7-1m24 0 1 1-1-1m88 0 1 1-1-1m24 0 1 1-1-1m17.333.667.334.666-.334-.666M388 90l1 1-1-1m-182 1 1 1-1-1z" style="fill:#a3d7e1;stroke:none"/><path d="m207 91 1 1-1-1m158 0 1 1-1-1m22 0 1 1-1-1z" style="fill:#6cafbb;stroke:none"/><path d="m208 92 1 1-1-1m85 0 1 1-1-1m24 0 1 1-1-1m68 0 1 1-1-1z" style="fill:#a3d7e1;stroke:none"/><path d="m133.333 93.667.334.666-.334-.666z" style="fill:#6cafbb;stroke:none"/><path d="m210 93 1 1-1-1m84 0 1 1-1-1z" style="fill:#a3d7e1;stroke:none"/><path d="m318 93 1 1-1-1z" style="fill:#6cafbb;stroke:none"/><path d="m334.333 93.667.334.666-.334-.666z" style="fill:#a3d7e1;stroke:none"/><path d="m349 93 1 1-1-1m15 0 1 1-1-1z" style="fill:#6cafbb;stroke:none"/><path d="m384 93 1 1-1-1m-173 1 1 1-1-1m84 0 1 1-1-1m54 0 1 1-1-1m15 0 1 1-1-1z" style="fill:#a3d7e1;stroke:none"/><path d="m383 94 1 1-1-1z" style="fill:#6cafbb;stroke:none"/><path d="M133 95v5h1l-1-5m163 0 1 1-1-1m23 0 1 1-1-1z" style="fill:#a3d7e1;stroke:none"/><path d="m363 95 1 1-1-1z" style="fill:#6cafbb;stroke:none"/><path d="m297 96 1 1-1-1z" style="fill:#a3d7e1;stroke:none"/><path d="m320 96 1 1-1-1z" style="fill:#6cafbb;stroke:none"/><path d="m335 96 1 1-1-1m15 0 1 1-1-1m13 0 1 1-1-1m17 0 1 1-1-1m-82 1 1 1-1-1z" style="fill:#a3d7e1;stroke:none"/><path d="m335 97 1 1-1-1m27 0 1 1-1-1z" style="fill:#6cafbb;stroke:none"/><path d="m379 97 1 1-1-1m-164 1 1 1-1-1z" style="fill:#a3d7e1;stroke:none"/><path d="m299 98 1 1-1-1z" style="fill:#6cafbb;stroke:none"/><path d="m321 98 1 1-1-1m30 0 1 1-1-1m11 0 1 1-1-1m16 0 1 1-1-1z" style="fill:#a3d7e1;stroke:none"/><path d="m216 99 1 1-1-1z" style="fill:#6cafbb;stroke:none"/><path d="m322 99 1 1-1-1m14 0 1 1-1-1m41 0 1 1-1-1m-75 1 1 1-1-1m21 0 1 1-1-1z" style="fill:#a3d7e1;stroke:none"/><path d="m336 100 1 1-1-1m16 0 1 1-1-1z" style="fill:#6cafbb;stroke:none"/><path d="m361 100 1 1-1-1m15 0 1 1-1-1m-159 1 1 1-1-1m86 0 1 1-1-1m21 0 1 1-1-1m13.333.667.334.666-.334-.666M304 102l1 1-1-1m21 0 1 1-1-1m28 0 1 1-1-1m7 0 1 1-1-1z" style="fill:#a3d7e1;stroke:none"/><path d="m375 102 1 1-1-1m-243 1v3h1l-1-3m86 0 1 1-1-1z" style="fill:#6cafbb;stroke:none"/><path d="m305 103 1 1-1-1m21 0 1 1-1-1z" style="fill:#a3d7e1;stroke:none"/><path d="m337 103 1 1-1-1z" style="fill:#6cafbb;stroke:none"/><path d="m354 103 1 1-1-1z" style="fill:#a3d7e1;stroke:none"/><path d="m355 103 1 1-1-1z" style="fill:#6cafbb;stroke:none"/><path d="m359 103 1 1-1-1m15 0 1 1-1-1m-156 1 1 1-1-1z" style="fill:#a3d7e1;stroke:none"/><path d="m306 104 1 1-1-1z" style="fill:#6cafbb;stroke:none"/><path d="m327 104 1 1-1-1z" style="fill:#a3d7e1;stroke:none"/><path d="m307 105 1 1-1-1z" style="fill:#6cafbb;stroke:none"/><path d="m328 105 1 1-1-1m10 0 1 1-1-1m35 0 1 1-1-1m-241 1v5h1l-1-5z" style="fill:#a3d7e1;stroke:none"/><path d="m308 106 1 1-1-1m-88.667 1.667.334.666-.334-.666M309 107l1 1-1-1m22 0 1 1-1-1z" style="fill:#6cafbb;stroke:none"/><path d="m337 107 1 1-1-1z" style="fill:#a3d7e1;stroke:none"/><path d="m372 107 1 1-1-1z" style="fill:#6cafbb;stroke:none"/><path d="m332 108 1 1-1-1z" style="fill:#a3d7e1;stroke:none"/><path d="m336 108 1 1-1-1z" style="fill:#6cafbb;stroke:none"/><path d="M219 109v8h1l-1-8m115.667.333.666.334-.666-.334M371 109l1 1-1-1z" style="fill:#a3d7e1;stroke:none"/><path d="m312 110 1 1-1-1m1 1 1 1-1-1z" style="fill:#6cafbb;stroke:none"/><path d="m370 111 1 1-1-1z" style="fill:#a3d7e1;stroke:none"/><path d="m314 112 1 1-1-1m-182.667 1.667.334.666-.334-.666M315 113l1 1-1-1z" style="fill:#6cafbb;stroke:none"/><path d="m369 113 1 1-1-1z" style="fill:#a3d7e1;stroke:none"/><path d="m316 114 1 1-1-1z" style="fill:#6cafbb;stroke:none"/><path d="M131 115v3h1l-1-3m186 0 1 1-1-1m51 0 1 1-1-1m-50 1 1 1-1-1z" style="fill:#a3d7e1;stroke:none"/><path d="m368 116 1 1-1-1z" style="fill:#6cafbb;stroke:none"/><path d="m319 117 1 1-1-1m48 0 1 1-1-1z" style="fill:#a3d7e1;stroke:none"/><path d="m220 118 1 1-1-1z" style="fill:#6cafbb;stroke:none"/><path d="m320 118 1 1-1-1z" style="fill:#a3d7e1;stroke:none"/><path d="m367 118 1 1-1-1z" style="fill:#6cafbb;stroke:none"/><path d="m220 119 1 1-1-1m101 0 1 1-1-1z" style="fill:#a3d7e1;stroke:none"/><path d="m130 120 1 1-1-1z" style="fill:#6cafbb;stroke:none"/><path d="m322 120 1 1-1-1m44 0 1 1-1-1m-235.667 1.667.334.666-.334-.666z" style="fill:#a3d7e1;stroke:none"/><path d="m221 121 1 1-1-1z" style="fill:#6cafbb;stroke:none"/><path d="m323 121 1 1-1-1m-102 1 1 1-1-1m103 0 1 1-1-1m41 0 1 1-1-1z" style="fill:#a3d7e1;stroke:none"/><path d="m222 123 1 1-1-1z" style="fill:#6cafbb;stroke:none"/><path d="m325 123 1 1-1-1z" style="fill:#a3d7e1;stroke:none"/><path d="m365 123 1 1-1-1m-236 1 1 1-1-1z" style="fill:#6cafbb;stroke:none"/><path d="m326 124 1 1-1-1m-196.667 1.667.334.666-.334-.666M223 125l1 1-1-1m104 0 1 1-1-1m37 0 1 1-1-1m-140 1 1 1-1-1m104 0 1 1-1-1m-103 1 1 1-1-1m104 0 1 1-1-1m34 0 1 1-1-1z" style="fill:#a3d7e1;stroke:none"/><path d="m128 128 1 1-1-1m98 0 1 1-1-1z" style="fill:#6cafbb;stroke:none"/><path d="m330 128 1 1-1-1z" style="fill:#a3d7e1;stroke:none"/><path d="m363 128 1 1-1-1z" style="fill:#6cafbb;stroke:none"/><path d="m128 129 1 1-1-1m99 0 1 1-1-1m104 0 1 1-1-1m-103 1 1 1-1-1m104 0 1 1-1-1m30 0 1 1-1-1z" style="fill:#a3d7e1;stroke:none"/><path d="m127 131 1 1-1-1z" style="fill:#6cafbb;stroke:none"/><path d="m229 131 1 1-1-1m104 0 1 1-1-1z" style="fill:#a3d7e1;stroke:none"/><path d="m362 131 1 1-1-1z" style="fill:#6cafbb;stroke:none"/><path d="m127 132 1 1-1-1m104 0 1 1-1-1m1 1 1 1-1-1z" style="fill:#a3d7e1;stroke:none"/><path d="m334 133 1 1-1-1z" style="fill:#6cafbb;stroke:none"/><path d="m361 133 1 1-1-1m-235 1 1 1-1-1z" style="fill:#a3d7e1;stroke:none"/><path d="m234 134 1 1-1-1z" style="fill:#6cafbb;stroke:none"/><path d="m335.333 134.667.334.666-.334-.666M235 135l1 1-1-1m125.333.667.334.666-.334-.666z" style="fill:#a3d7e1;stroke:none"/><path d="m125 136 1 1-1-1z" style="fill:#6cafbb;stroke:none"/><path d="m125.333 137.667.334.666-.334-.666z" style="fill:#a3d7e1;stroke:none"/><path d="m238 137 1 1-1-1z" style="fill:#6cafbb;stroke:none"/><path d="m336.333 137.667.334.666-.334-.666z" style="fill:#a3d7e1;stroke:none"/><path d="m360 137 1 1-1-1z" style="fill:#6cafbb;stroke:none"/><path d="m239 138 1 1-1-1m1 1 1 1-1-1m119 0v3h1l-1-3m-118 1 1 1-1-1m96.333.667.334.666-.334-.666z" style="fill:#a3d7e1;stroke:none"/><path d="m243 141 1 1-1-1z" style="fill:#6cafbb;stroke:none"/><path d="m244 142 1 1-1-1z" style="fill:#a3d7e1;stroke:none"/><path d="m359.333 142.667.334.666-.334-.666z" style="fill:#6cafbb;stroke:none"/><path d="m245 143 1 1-1-1m93.333.667.334.666-.334-.666M246 144l1 1-1-1m-121 1v3h1l-1-3z" style="fill:#a3d7e1;stroke:none"/><path d="m248 145 1 1-1-1z" style="fill:#6cafbb;stroke:none"/><path d="m249 146 1 1-1-1m90.333.667.334.666-.334-.666z" style="fill:#a3d7e1;stroke:none"/><path d="m251 147 1 1-1-1m-126 1 1 1-1-1z" style="fill:#6cafbb;stroke:none"/><path d="m252 148 1 1-1-1m2 1 1 1-1-1m86.333.667.334.666-.334-.666m-214 1 .334.666-.334-.666M256 150l1 1-1-1z" style="fill:#a3d7e1;stroke:none"/><path d="m359.333 150.667.334.666-.334-.666z" style="fill:#6cafbb;stroke:none"/><path d="m258 151 1 1-1-1z" style="fill:#a3d7e1;stroke:none"/><path d="m340 151 1 1-1-1z" style="fill:#6cafbb;stroke:none"/><path d="m260 152 1 1-1-1z" style="fill:#a3d7e1;stroke:none"/><path d="m261 152 1 1-1-1z" style="fill:#6cafbb;stroke:none"/><path d="M359 152v3h1l-1-3m-232 1 1 1-1-1m136 0 1 1-1-1m78 0v3h1l-1-3z" style="fill:#a3d7e1;stroke:none"/><path d="m127 154 1 1-1-1z" style="fill:#6cafbb;stroke:none"/><path d="m265.667 154.333.666.334-.666-.334z" style="fill:#a3d7e1;stroke:none"/><path d="m267 154 1 1-1-1z" style="fill:#6cafbb;stroke:none"/><path d="m128 155 1 1-1-1m141 0 1 1-1-1z" style="fill:#a3d7e1;stroke:none"/><path d="m270 155 1 1-1-1m-142 1 1 1-1-1z" style="fill:#6cafbb;stroke:none"/><path d="M272 156v1h3l-3-1z" style="fill:#a3d7e1;stroke:none"/><path d="m275 156 1 1-1-1m66 0 1 1-1-1m19.333.667.334.666-.334-.666z" style="fill:#6cafbb;stroke:none"/><path d="m129 157 1 1-1-1m149.667.333.666.334-.666-.334z" style="fill:#a3d7e1;stroke:none"/><path d="m280 157 1 1-1-1z" style="fill:#6cafbb;stroke:none"/><path d="m282.667 158.333.666.334-.666-.334z" style="fill:#a3d7e1;stroke:none"/><path d="m284 158 1 1-1-1z" style="fill:#6cafbb;stroke:none"/><path d="M342 158v5h1l-1-5m18 0v3h1l-1-3z" style="fill:#a3d7e1;stroke:none"/><path d="m130 159 1 1-1-1z" style="fill:#6cafbb;stroke:none"/><path d="m286.667 159.333.666.334-.666-.334z" style="fill:#a3d7e1;stroke:none"/><path d="m288 159 1 1-1-1z" style="fill:#6cafbb;stroke:none"/><path d="m131 160 1 1-1-1m159.667.333.666.334-.666-.334z" style="fill:#a3d7e1;stroke:none"/><path d="m292 160 1 1-1-1m-160 1 1 1-1-1z" style="fill:#6cafbb;stroke:none"/><path d="m294.667 161.333.666.334-.666-.334z" style="fill:#a3d7e1;stroke:none"/><path d="m296 161 1 1-1-1z" style="fill:#6cafbb;stroke:none"/><path d="m134 162 1 1-1-1m164 0 1 1-1-1z" style="fill:#a3d7e1;stroke:none"/><path d="m299 162 1 1-1-1m62.333.667.334.666-.334-.666z" style="fill:#6cafbb;stroke:none"/><path d="m135 163 1 1-1-1m166.667.333.666.334-.666-.334z" style="fill:#a3d7e1;stroke:none"/><path d="M342 163v4h1l-1-4z" style="fill:#6cafbb;stroke:none"/><path d="m137 164 1 1-1-1m167.667.333.666.334-.666-.334z" style="fill:#a3d7e1;stroke:none"/><path d="m306 164 1 1-1-1z" style="fill:#6cafbb;stroke:none"/><path d="M361 164v6h1l-1-6m-223 1 1 1-1-1m170 0 1 1-1-1z" style="fill:#a3d7e1;stroke:none"/><path d="m309 165 1 1-1-1z" style="fill:#6cafbb;stroke:none"/><path d="m139 166 1 1-1-1m172.667.333.666.334-.666-.334z" style="fill:#a3d7e1;stroke:none"/><path d="m140 167 1 1-1-1z" style="fill:#6cafbb;stroke:none"/><path d="m314.667 167.333.666.334-.666-.334z" style="fill:#a3d7e1;stroke:none"/><path d="m316 167 1 1-1-1z" style="fill:#6cafbb;stroke:none"/><path d="m342.333 167.667.334.666-.334-.666M141 168l1 1-1-1m177 0 1 1-1-1z" style="fill:#a3d7e1;stroke:none"/><path d="m319 168 1 1-1-1z" style="fill:#6cafbb;stroke:none"/><path d="m142 169 1 1-1-1m179 0 1 1-1-1z" style="fill:#a3d7e1;stroke:none"/><path d="m322 169 1 1-1-1z" style="fill:#6cafbb;stroke:none"/><path d="m143 170 1 1-1-1m181.667.333.666.334-.666-.334z" style="fill:#a3d7e1;stroke:none"/><path d="m341 170 1 1-1-1z" style="fill:#6cafbb;stroke:none"/><path d="m328 171 1 1-1-1z" style="fill:#a3d7e1;stroke:none"/><path d="m329 171 1 1-1-1m-185 1 1 1-1-1z" style="fill:#6cafbb;stroke:none"/><path d="m331.667 172.333.666.334-.666-.334z" style="fill:#a3d7e1;stroke:none"/><path d="m333 172 1 1-1-1m6 0 1 1-1-1z" style="fill:#6cafbb;stroke:none"/><path d="m145 173 1 1-1-1m191.667.333.666.334-.666-.334z" style="fill:#a3d7e1;stroke:none"/><path d="m145 174 1 1-1-1z" style="fill:#6cafbb;stroke:none"/><path d="m146 175 1 1-1-1m1 2 1 1-1-1m1 2 1 1-1-1m1 2 1 1-1-1m1 2 1 1-1-1m211 0v5h1l-1-5m-210 2 1 1-1-1m1 2 1 1-1-1z" style="fill:#a3d7e1;stroke:none"/><path d="m152 188 1 1-1-1m209 0v3h1l-1-3z" style="fill:#6cafbb;stroke:none"/><path d="m153 190 1 1-1-1z" style="fill:#a3d7e1;stroke:none"/><path d="m426 191 1 1-1-1z" style="fill:#6cafbb;stroke:none"/><path d="m427 191 1 1-1-1z" style="fill:#a3d7e1;stroke:none"/><path d="m428.667 191.333.666.334-.666-.334z" style="fill:#6cafbb;stroke:none"/><path d="m154 192 1 1-1-1m206 0v3h1l-1-3m63 0 1 1-1-1m8.667.333.666.334-.666-.334z" style="fill:#a3d7e1;stroke:none"/><path d="m421 193 1 1-1-1m13 0 1 1-1-1z" style="fill:#6cafbb;stroke:none"/><path d="m155 194 1 1-1-1m265 0 1 1-1-1m15 0 1 1-1-1m-144 1v1h4l-4-1z" style="fill:#a3d7e1;stroke:none"/><path d="m360 195 1 1-1-1z" style="fill:#6cafbb;stroke:none"/><path d="m419 195 1 1-1-1m17 0 1 1-1-1m-280 1 1 1-1-1m133 0 1 1-1-1z" style="fill:#a3d7e1;stroke:none"/><path d="m297 196 1 1-1-1z" style="fill:#6cafbb;stroke:none"/><path d="m298.667 196.333.666.334-.666-.334z" style="fill:#a3d7e1;stroke:none"/><path d="m437 196 1 1-1-1z" style="fill:#6cafbb;stroke:none"/><path d="m157 197 1 1-1-1m131 0v3h1l-1-3m13.667.333.666.334-.666-.334M418 197l1 1-1-1z" style="fill:#a3d7e1;stroke:none"/><path d="m157 198 1 1-1-1m148 0 1 1-1-1z" style="fill:#6cafbb;stroke:none"/><path d="m306.667 198.333.666.334-.666-.334M359 198l1 1-1-1m79 0 1 1-1-1z" style="fill:#a3d7e1;stroke:none"/><path d="m309 199 1 1-1-1z" style="fill:#6cafbb;stroke:none"/><path d="M310 199v1h3l-3-1z" style="fill:#a3d7e1;stroke:none"/><path d="m359 199 1 1-1-1m80 0 1 1-1-1z" style="fill:#6cafbb;stroke:none"/><path d="M158 200v6h1l-1-6m131 0 1 1-1-1z" style="fill:#a3d7e1;stroke:none"/><path d="m314 200 1 1-1-1z" style="fill:#6cafbb;stroke:none"/><path d="M315 200v1h3l-3-1m43 0 1 1-1-1m81 0 1 1-1-1m-149 1 1 1-1-1z" style="fill:#a3d7e1;stroke:none"/><path d="m319 201 1 1-1-1z" style="fill:#6cafbb;stroke:none"/><path d="M320 201v1h3l-3-1z" style="fill:#a3d7e1;stroke:none"/><path d="m358 201 1 1-1-1m-33.333 1.333.666.334-.666-.334z" style="fill:#6cafbb;stroke:none"/><path d="M326 202v1h3l-3-1m31 0 1 1-1-1m83.333.667.334.666-.334-.666z" style="fill:#a3d7e1;stroke:none"/><path d="m293 203 1 1-1-1m37.667.333.666.334-.666-.334z" style="fill:#6cafbb;stroke:none"/><path d="M332 203v1h3l-3-1m24 0 1 1-1-1m62.333.667.334.666-.334-.666z" style="fill:#a3d7e1;stroke:none"/><path d="m294 204 1 1-1-1m42.667.333.666.334-.666-.334z" style="fill:#6cafbb;stroke:none"/><path d="M338 204v1h3l-3-1m17 0 1 1-1-1m-60 1 1 1-1-1z" style="fill:#a3d7e1;stroke:none"/><path d="m343.667 205.333.666.334-.666-.334z" style="fill:#6cafbb;stroke:none"/><path d="M345 205v1h3l-3-1m7.667.333.666.334-.666-.334z" style="fill:#a3d7e1;stroke:none"/><path d="m354 205 1 1-1-1z" style="fill:#6cafbb;stroke:none"/><path d="m296 206 1 1-1-1m123 0 1 1-1-1z" style="fill:#a3d7e1;stroke:none"/><path d="M441 206v5h1l-1-5z" style="fill:#6cafbb;stroke:none"/><path d="m297 207 1 1-1-1z" style="fill:#a3d7e1;stroke:none"/><path d="m419 207 1 1-1-1m-261.667 2.667.334.666-.334-.666z" style="fill:#6cafbb;stroke:none"/><path d="m420 209 1 1-1-1z" style="fill:#a3d7e1;stroke:none"/><path d="m420 210 1 1-1-1z" style="fill:#6cafbb;stroke:none"/><path d="M157 211v4h1l-1-4m264.333.667.334.666-.334-.666M440 212v3h1l-1-3z" style="fill:#a3d7e1;stroke:none"/><path d="m78 213 1 1-1-1z" style="fill:#6cafbb;stroke:none"/><path d="M79 213v1h5l-5-1z" style="fill:#a3d7e1;stroke:none"/><path d="m84 213 1 1-1-1m-9 1 1 1-1-1z" style="fill:#6cafbb;stroke:none"/><path d="m76 214 1 1-1-1m10 0 1 1-1-1z" style="fill:#a3d7e1;stroke:none"/><path d="m87 214 1 1-1-1z" style="fill:#6cafbb;stroke:none"/><path d="m422.333 214.667.334.666-.334-.666z" style="fill:#a3d7e1;stroke:none"/><path d="m73 215 1 1-1-1z" style="fill:#6cafbb;stroke:none"/><path d="m74 215 1 1-1-1m14 0 1 1-1-1z" style="fill:#a3d7e1;stroke:none"/><path d="M440 215v5h1l-1-5z" style="fill:#6cafbb;stroke:none"/><path d="m72 216 1 1-1-1z" style="fill:#a3d7e1;stroke:none"/><path d="m156.333 216.667.334.666-.334-.666M70 217l1 1-1-1z" style="fill:#6cafbb;stroke:none"/><path d="m423.333 217.667.334.666-.334-.666z" style="fill:#a3d7e1;stroke:none"/><path d="m69 218 1 1-1-1z" style="fill:#6cafbb;stroke:none"/><path d="m91 218 1 1-1-1m65 0v3h1l-1-3z" style="fill:#a3d7e1;stroke:none"/><path d="m68 219 1 1-1-1m24 0 1 1-1-1z" style="fill:#6cafbb;stroke:none"/><path d="m92 220 1 1-1-1m348.333.667.334.666-.334-.666M476 220v1h7l-7-1z" style="fill:#a3d7e1;stroke:none"/><path d="m67 221 1 1-1-1m25 0 1 1-1-1z" style="fill:#6cafbb;stroke:none"/><path d="m424 221 1 1-1-1m50 0 1 1-1-1m10 0 1 1-1-1z" style="fill:#a3d7e1;stroke:none"/><path d="m485 221 1 1-1-1z" style="fill:#6cafbb;stroke:none"/><path d="m67 222 1 1-1-1z" style="fill:#a3d7e1;stroke:none"/><path d="m155 222 1 1-1-1z" style="fill:#6cafbb;stroke:none"/><path d="m312 222 1 1-1-1m74 0v1h8l-8-1z" style="fill:#a3d7e1;stroke:none"/><path d="m424 222 1 1-1-1m48 0 1 1-1-1z" style="fill:#6cafbb;stroke:none"/><path d="m486 222 1 1-1-1z" style="fill:#a3d7e1;stroke:none"/><path d="m67 223 1 1-1-1z" style="fill:#6cafbb;stroke:none"/><path d="m91.333 223.667.334.666-.334-.666m64 0 .334.666-.334-.666M313 223l1 1-1-1z" style="fill:#a3d7e1;stroke:none"/><path d="m383 223 1 1-1-1z" style="fill:#6cafbb;stroke:none"/><path d="m384 223 1 1-1-1m11 0 1 1-1-1z" style="fill:#a3d7e1;stroke:none"/><path d="m396 223 1 1-1-1m45 0 1 1-1-1m30 0 1 1-1-1z" style="fill:#6cafbb;stroke:none"/><path d="m487 223 1 1-1-1m-445 1v1h5l-5-1z" style="fill:#a3d7e1;stroke:none"/><path d="m47 224 1 1-1-1z" style="fill:#6cafbb;stroke:none"/><path d="m314 224 1 1-1-1m68 0 1 1-1-1m15 0 1 1-1-1m28 0v3h1l-1-3m16.333.667.334.666-.334-.666M488 224l1 1-1-1z" style="fill:#a3d7e1;stroke:none"/><path d="m39 225 1 1-1-1z" style="fill:#6cafbb;stroke:none"/><path d="m40 225 1 1-1-1z" style="fill:#a3d7e1;stroke:none"/><path d="m49 225 1 1-1-1z" style="fill:#6cafbb;stroke:none"/><path d="m68 225 1 1-1-1z" style="fill:#a3d7e1;stroke:none"/><path d="M91 225v5h1l-1-5z" style="fill:#6cafbb;stroke:none"/><path d="m315 225 1 1-1-1z" style="fill:#a3d7e1;stroke:none"/><path d="m380 225 1 1-1-1z" style="fill:#6cafbb;stroke:none"/><path d="m398 225 1 1-1-1m72 0 1 1-1-1m19 0 1 1-1-1m-451 1 1 1-1-1m12 0 1 1-1-1z" style="fill:#a3d7e1;stroke:none"/><path d="m68 226 1 1-1-1m86 0 1 1-1-1z" style="fill:#6cafbb;stroke:none"/><path d="m316 226 1 1-1-1z" style="fill:#a3d7e1;stroke:none"/><path d="m379 226 1 1-1-1z" style="fill:#6cafbb;stroke:none"/><path d="m399 226 1 1-1-1z" style="fill:#a3d7e1;stroke:none"/><path d="m469 226 1 1-1-1m21 0 1 1-1-1m-454 1 1 1-1-1z" style="fill:#6cafbb;stroke:none"/><path d="m51 227 1 1-1-1m18 0 1 1-1-1m85.333.667.334.666-.334-.666M317 227l1 1-1-1z" style="fill:#a3d7e1;stroke:none"/><path d="m400 227 1 1-1-1m25 0 1 1-1-1z" style="fill:#6cafbb;stroke:none"/><path d="m442.333 227.667.334.666-.334-.666M469 227l1 1-1-1m21 0 1 1-1-1m-455 1 1 1-1-1z" style="fill:#a3d7e1;stroke:none"/><path d="m52 228 1 1-1-1z" style="fill:#6cafbb;stroke:none"/><path d="m318 228 1 1-1-1m60 0 1 1-1-1m22 0 1 1-1-1z" style="fill:#a3d7e1;stroke:none"/><path d="m468 228 1 1-1-1m23 0 1 1-1-1m-457 1 1 1-1-1z" style="fill:#6cafbb;stroke:none"/><path d="m70 229 1 1-1-1m249 0 1 1-1-1z" style="fill:#a3d7e1;stroke:none"/><path d="m377 229 1 1-1-1m24 0 1 1-1-1z" style="fill:#6cafbb;stroke:none"/><path d="M426 229v3h1l-1-3m42 0 1 1-1-1m23 0v4h1l-1-4z" style="fill:#a3d7e1;stroke:none"/><path d="m33 230 1 1-1-1z" style="fill:#6cafbb;stroke:none"/><path d="m53 230 1 1-1-1m38 0v3h1l-1-3z" style="fill:#a3d7e1;stroke:none"/><path d="m153 230 1 1-1-1z" style="fill:#6cafbb;stroke:none"/><path d="m320 230 1 1-1-1m57 0v3h1l-1-3z" style="fill:#a3d7e1;stroke:none"/><path d="m443 230 1 1-1-1m24 0 1 1-1-1z" style="fill:#6cafbb;stroke:none"/><path d="m71 231 1 1-1-1m82.333.667.334.666-.334-.666M321 231l1 1-1-1m81 0 1 1-1-1m41 0 1 1-1-1z" style="fill:#a3d7e1;stroke:none"/><path d="m54 232 1 1-1-1m268 0 1 1-1-1m104 0 1 1-1-1z" style="fill:#6cafbb;stroke:none"/><path d="m466 232 1 1-1-1m-434.667 1.667.334.666-.334-.666M54 233l1 1-1-1m18 0 1 1-1-1z" style="fill:#a3d7e1;stroke:none"/><path d="m323 233 1 1-1-1z" style="fill:#6cafbb;stroke:none"/><path d="m403 233 1 1-1-1z" style="fill:#a3d7e1;stroke:none"/><path d="m444 233 1 1-1-1m21 0 1 1-1-1m26 0 1 1-1-1z" style="fill:#6cafbb;stroke:none"/><path d="m92.333 234.667.334.666-.334-.666z" style="fill:#a3d7e1;stroke:none"/><path d="m152 234 1 1-1-1z" style="fill:#6cafbb;stroke:none"/><path d="m378 234 1 1-1-1m26 0 1 1-1-1m40.333.667.334.666-.334-.666z" style="fill:#a3d7e1;stroke:none"/><path d="m55 235 1 1-1-1z" style="fill:#6cafbb;stroke:none"/><path d="m73 235 1 1-1-1m79.333.667.334.666-.334-.666z" style="fill:#a3d7e1;stroke:none"/><path d="m405 235 1 1-1-1z" style="fill:#6cafbb;stroke:none"/><path d="M427 235v3h1l-1-3m37 0 1 1-1-1m26 0 1 1-1-1z" style="fill:#a3d7e1;stroke:none"/><path d="M30 236v3h1l-1-3z" style="fill:#6cafbb;stroke:none"/><path d="m55 236 1 1-1-1m270 0 1 1-1-1m54 0 1 1-1-1z" style="fill:#a3d7e1;stroke:none"/><path d="m463 236 1 1-1-1m27 0 1 1-1-1z" style="fill:#6cafbb;stroke:none"/><path d="m74 237 1 1-1-1m19.333.667.334.666-.334-.666z" style="fill:#a3d7e1;stroke:none"/><path d="m326 237 1 1-1-1z" style="fill:#6cafbb;stroke:none"/><path d="m406 237 1 1-1-1m39.333.667.334.666-.334-.666M489 237l1 1-1-1m-432.667 1.667.334.666-.334-.666z" style="fill:#a3d7e1;stroke:none"/><path d="m151 238 1 1-1-1m229 0 1 1-1-1z" style="fill:#6cafbb;stroke:none"/><path d="m407 238 1 1-1-1z" style="fill:#a3d7e1;stroke:none"/><path d="m427 238 1 1-1-1z" style="fill:#6cafbb;stroke:none"/><path d="m462 238 1 1-1-1z" style="fill:#a3d7e1;stroke:none"/><path d="m489 238 1 1-1-1z" style="fill:#6cafbb;stroke:none"/><path d="m75 239 1 1-1-1m76.333.667.334.666-.334-.666M327 239l1 1-1-1m54 0 1 1-1-1m27 0 1 1-1-1m53 0 1 1-1-1m27 0 1 1-1-1m-457 1 1 1-1-1z" style="fill:#a3d7e1;stroke:none"/><path d="m57 240 1 1-1-1z" style="fill:#6cafbb;stroke:none"/><path d="m94 240 1 1-1-1m288 0 1 1-1-1z" style="fill:#a3d7e1;stroke:none"/><path d="m409 240 1 1-1-1z" style="fill:#6cafbb;stroke:none"/><path d="M428 240v3h1l-1-3m32 0 1 1-1-1m27 0 1 1-1-1m-430 1 1 1-1-1m19 0 1 1-1-1m252 0 1 1-1-1z" style="fill:#a3d7e1;stroke:none"/><path d="m368 241 1 1-1-1z" style="fill:#6cafbb;stroke:none"/><path d="M369 241v1h3l-3-1z" style="fill:#a3d7e1;stroke:none"/><path d="m372 241 1 1-1-1m38 0 1 1-1-1m36 0 1 1-1-1m13 0 1 1-1-1z" style="fill:#6cafbb;stroke:none"/><path d="m486 241 1 1-1-1m-454 1 1 1-1-1z" style="fill:#a3d7e1;stroke:none"/><path d="m58 242 1 1-1-1m37 0 1 1-1-1m55 0 1 1-1-1m179 0 1 1-1-1z" style="fill:#6cafbb;stroke:none"/><path d="m366 242 1 1-1-1m8 0 1 1-1-1z" style="fill:#a3d7e1;stroke:none"/><path d="m411 242 1 1-1-1z" style="fill:#6cafbb;stroke:none"/><path d="M446 242v3h1l-1-3m39 0 1 1-1-1m-452 1 1 1-1-1m25 0 1 1-1-1z" style="fill:#a3d7e1;stroke:none"/><path d="m77 243 1 1-1-1z" style="fill:#6cafbb;stroke:none"/><path d="m95 243 1 1-1-1m55.333.667.334.666-.334-.666M329 243l1 1-1-1z" style="fill:#a3d7e1;stroke:none"/><path d="m364 243 1 1-1-1z" style="fill:#6cafbb;stroke:none"/><path d="m376 243 1 1-1-1z" style="fill:#a3d7e1;stroke:none"/><path d="m412 243 1 1-1-1m16 0 1 1-1-1z" style="fill:#6cafbb;stroke:none"/><path d="m483 243 1 1-1-1z" style="fill:#a3d7e1;stroke:none"/><path d="m484 243 1 1-1-1z" style="fill:#6cafbb;stroke:none"/><path d="m34 244 1 1-1-1z" style="fill:#a3d7e1;stroke:none"/><path d="m59 244 1 1-1-1z" style="fill:#6cafbb;stroke:none"/><path d="m78 244 1 1-1-1z" style="fill:#a3d7e1;stroke:none"/><path d="m363 244 1 1-1-1z" style="fill:#6cafbb;stroke:none"/><path d="m377 244 1 1-1-1z" style="fill:#a3d7e1;stroke:none"/><path d="m413 244 1 1-1-1z" style="fill:#6cafbb;stroke:none"/><path d="m457 244 1 1-1-1m24 0 1 1-1-1z" style="fill:#a3d7e1;stroke:none"/><path d="m482 244 1 1-1-1m-447 1 1 1-1-1z" style="fill:#6cafbb;stroke:none"/><path d="m59 245 1 1-1-1m37.333.667.334.666-.334-.666M330 245l1 1-1-1z" style="fill:#a3d7e1;stroke:none"/><path d="m362 245 1 1-1-1z" style="fill:#6cafbb;stroke:none"/><path d="m378 245 1 1-1-1m9 0 1 1-1-1z" style="fill:#a3d7e1;stroke:none"/><path d="m414 245 1 1-1-1z" style="fill:#6cafbb;stroke:none"/><path d="m429.333 245.667.334.666-.334-.666M456 245l1 1-1-1z" style="fill:#a3d7e1;stroke:none"/><path d="m480 245 1 1-1-1m-444 1 1 1-1-1z" style="fill:#6cafbb;stroke:none"/><path d="m60 246 1 1-1-1z" style="fill:#a3d7e1;stroke:none"/><path d="m79 246 1 1-1-1m70 0 1 1-1-1z" style="fill:#6cafbb;stroke:none"/><path d="m379 246 1 1-1-1m9 0 1 1-1-1m67 0 1 1-1-1m23 0 1 1-1-1m-398 1 1 1-1-1z" style="fill:#a3d7e1;stroke:none"/><path d="m97 247 1 1-1-1z" style="fill:#6cafbb;stroke:none"/><path d="M149 247v3h1l-1-3z" style="fill:#a3d7e1;stroke:none"/><path d="m331 247 1 1-1-1z" style="fill:#6cafbb;stroke:none"/><path d="m361 247 1 1-1-1m19 0 1 1-1-1m9 0 1 1-1-1z" style="fill:#a3d7e1;stroke:none"/><path d="m429.333 247.667.334.666-.334-.666M447 247l1 1-1-1m7 0 1 1-1-1m23 0 1 1-1-1z" style="fill:#6cafbb;stroke:none"/><path d="m39 248 1 1-1-1m22 0 1 1-1-1m20 0 1 1-1-1m16 0 1 1-1-1m234 0 1 1-1-1m29 0 1 1-1-1m21 0 1 1-1-1m66 0 1 1-1-1z" style="fill:#a3d7e1;stroke:none"/><path d="m453 248 1 1-1-1z" style="fill:#6cafbb;stroke:none"/><path d="m475 248 1 1-1-1m-435 1 1 1-1-1m22 0 1 1-1-1z" style="fill:#a3d7e1;stroke:none"/><path d="m382 249 1 1-1-1z" style="fill:#6cafbb;stroke:none"/><path d="m392 249 1 1-1-1m56 0 1 1-1-1z" style="fill:#a3d7e1;stroke:none"/><path d="m452 249 1 1-1-1z" style="fill:#6cafbb;stroke:none"/><path d="m474 249 1 1-1-1m-433 1 1 1-1-1z" style="fill:#a3d7e1;stroke:none"/><path d="m82 250 1 1-1-1z" style="fill:#6cafbb;stroke:none"/><path d="m98 250 1 1-1-1z" style="fill:#a3d7e1;stroke:none"/><path d="m332 250 1 1-1-1z" style="fill:#6cafbb;stroke:none"/><path d="m359 250 1 1-1-1z" style="fill:#a3d7e1;stroke:none"/><path d="m383 250 1 1-1-1z" style="fill:#6cafbb;stroke:none"/><path d="m393 250 1 1-1-1m57.667.333.666.334-.666-.334M473 250l1 1-1-1m-431 1 1 1-1-1m41 0 1 1-1-1z" style="fill:#a3d7e1;stroke:none"/><path d="m148.333 251.667.334.666-.334-.666z" style="fill:#6cafbb;stroke:none"/><path d="m332.333 251.667.334.666-.334-.666z" style="fill:#a3d7e1;stroke:none"/><path d="m358 251 1 1-1-1z" style="fill:#6cafbb;stroke:none"/><path d="m472 251 1 1-1-1z" style="fill:#a3d7e1;stroke:none"/><path d="m43 252 1 1-1-1z" style="fill:#6cafbb;stroke:none"/><path d="m64 252 1 1-1-1m35 0 1 1-1-1m259 0 1 1-1-1m26 0 1 1-1-1m12 0 1 1-1-1z" style="fill:#a3d7e1;stroke:none"/><path d="m429 252 1 1-1-1z" style="fill:#6cafbb;stroke:none"/><path d="m471 252 1 1-1-1m-406 1 1 1-1-1m19 0 1 1-1-1m64 0v3h1l-1-3m237 0 1 1-1-1m12 0 1 1-1-1m32 0 1 1-1-1m-383 1 1 1-1-1m20 0 1 1-1-1z" style="fill:#a3d7e1;stroke:none"/><path d="m84 254 1 1-1-1m16 0 1 1-1-1m233 0 1 1-1-1z" style="fill:#6cafbb;stroke:none"/><path d="m357 254 1 1-1-1z" style="fill:#a3d7e1;stroke:none"/><path d="m398 254 1 1-1-1z" style="fill:#6cafbb;stroke:none"/><path d="m423 254 1 1-1-1m5 0 1 1-1-1m-381 1 1 1-1-1m20 0 1 1-1-1m33 0 1 1-1-1m83 0 1 1-1-1z" style="fill:#a3d7e1;stroke:none"/><path d="m184 255 1 1-1-1z" style="fill:#6cafbb;stroke:none"/><path d="m185 255 1 1-1-1m148.333.667.334.666-.334-.666M386 255l1 1-1-1m14 0 1 1-1-1m25 0v1h3l-3-1m-377 1 1 1-1-1m20 0 1 1-1-1m17 0v3h1l-1-3z" style="fill:#a3d7e1;stroke:none"/><path d="m101 256 1 1-1-1z" style="fill:#6cafbb;stroke:none"/><path d="m181 256 1 1-1-1m175 0 1 1-1-1m31 0 1 1-1-1m14 0 1 1-1-1z" style="fill:#a3d7e1;stroke:none"/><path d="m468 256 1 1-1-1z" style="fill:#6cafbb;stroke:none"/><path d="m69 257 1 1-1-1m32 0 1 1-1-1z" style="fill:#a3d7e1;stroke:none"/><path d="m180 257 1 1-1-1m7 0 1 1-1-1z" style="fill:#6cafbb;stroke:none"/><path d="m402 257 1 1-1-1m65 0 1 1-1-1m-416 1 1 1-1-1z" style="fill:#a3d7e1;stroke:none"/><path d="m71 258 1 1-1-1m31 0 1 1-1-1m45.333.667.334.666-.334-.666z" style="fill:#6cafbb;stroke:none"/><path d="m179 258 1 1-1-1m9 0 1 1-1-1z" style="fill:#a3d7e1;stroke:none"/><path d="m334.333 258.667.334.666-.334-.666M355 258l1 1-1-1z" style="fill:#6cafbb;stroke:none"/><path d="m388 258 1 1-1-1z" style="fill:#a3d7e1;stroke:none"/><path d="m403 258 1 1-1-1z" style="fill:#6cafbb;stroke:none"/><path d="m466 258 1 1-1-1z" style="fill:#a3d7e1;stroke:none"/><path d="m52 259 1 1-1-1z" style="fill:#6cafbb;stroke:none"/><path d="m72 259 1 1-1-1z" style="fill:#a3d7e1;stroke:none"/><path d="m73 259 1 1-1-1m115 0 1 1-1-1z" style="fill:#6cafbb;stroke:none"/><path d="m355 259 1 1-1-1z" style="fill:#a3d7e1;stroke:none"/><path d="m389 259 1 1-1-1z" style="fill:#6cafbb;stroke:none"/><path d="m465 259 1 1-1-1m-411 1 1 1-1-1m20 0 1 1-1-1z" style="fill:#a3d7e1;stroke:none"/><path d="m75 260 1 1-1-1z" style="fill:#6cafbb;stroke:none"/><path d="m103 260 1 1-1-1m44 0v6h1l-1-6m31.333.667.334.666-.334-.666M334 260v4h1l-1-4m72 0 1 1-1-1m58 0 1 1-1-1z" style="fill:#a3d7e1;stroke:none"/><path d="m55 261 1 1-1-1z" style="fill:#6cafbb;stroke:none"/><path d="M77 261v1h6l-6-1m112 0 1 1-1-1z" style="fill:#a3d7e1;stroke:none"/><path d="m354 261 1 1-1-1z" style="fill:#6cafbb;stroke:none"/><path d="m390 261 1 1-1-1m17 0 1 1-1-1m-350 1 1 1-1-1m47 0 1 1-1-1z" style="fill:#a3d7e1;stroke:none"/><path d="m178 262 1 1-1-1z" style="fill:#6cafbb;stroke:none"/><path d="m354 262 1 1-1-1m54 0 1 1-1-1m-350 1 1 1-1-1m132 0 1 1-1-1m201 0 1 1-1-1z" style="fill:#a3d7e1;stroke:none"/><path d="m409 263 1 1-1-1m53 0 1 1-1-1z" style="fill:#6cafbb;stroke:none"/><path d="m60 264 1 1-1-1m45 0 1 1-1-1m72.333.667.334.666-.334-.666z" style="fill:#a3d7e1;stroke:none"/><path d="m190 264 1 1-1-1m163 0 1 1-1-1m39 0 1 1-1-1m18 0 1 1-1-1z" style="fill:#6cafbb;stroke:none"/><path d="m461 264 1 1-1-1m-400 1 1 1-1-1z" style="fill:#a3d7e1;stroke:none"/><path d="m106 265 1 1-1-1m229.333.667.334.666-.334-.666z" style="fill:#6cafbb;stroke:none"/><path d="m353 265 1 1-1-1m39 0 1 1-1-1m68 0 1 1-1-1z" style="fill:#a3d7e1;stroke:none"/><path d="m62 266 1 1-1-1z" style="fill:#6cafbb;stroke:none"/><path d="m106 266 1 1-1-1z" style="fill:#a3d7e1;stroke:none"/><path d="m177 266 1 1-1-1z" style="fill:#6cafbb;stroke:none"/><path d="m191 266 1 1-1-1m202 0 1 1-1-1m66 0 1 1-1-1m-352 1 1 1-1-1m228 0v3h1l-1-3m79 0 1 1-1-1m-349 1 1 1-1-1m111.333.667.334.666-.334-.666M192 268l1 1-1-1m160.333.667.334.666-.334-.666M394 268l1 1-1-1m21 0 1 1-1-1m43 0 1 1-1-1m-392 1 1 1-1-1m42 0 1 1-1-1z" style="fill:#a3d7e1;stroke:none"/><path d="m192 269 1 1-1-1z" style="fill:#6cafbb;stroke:none"/><path d="m416 269 1 1-1-1m41 0 1 1-1-1z" style="fill:#a3d7e1;stroke:none"/><path d="m67 270 1 1-1-1m42 0 1 1-1-1m67 0 1 1-1-1z" style="fill:#6cafbb;stroke:none"/><path d="m193.333 270.667.334.666-.334-.666M395 270l1 1-1-1m22 0 1 1-1-1z" style="fill:#a3d7e1;stroke:none"/><path d="M146 271v8h1l-1-8m190 0 1 1-1-1m15 0 1 1-1-1m45 0 1 1-1-1z" style="fill:#6cafbb;stroke:none"/><path d="m418 271 1 1-1-1z" style="fill:#a3d7e1;stroke:none"/><path d="m456 271 1 1-1-1z" style="fill:#6cafbb;stroke:none"/><path d="M30 272v1h4l-4-1z" style="fill:#a3d7e1;stroke:none"/><path d="m34.667 272.333.666.334-.666-.334z" style="fill:#6cafbb;stroke:none"/><path d="m110 272 1 1-1-1m65.333.667.334.666-.334-.666M336 272v3h1l-1-3m15.333.667.334.666-.334-.666M396 272l1 1-1-1m23 0 1 1-1-1m36 0 1 1-1-1z" style="fill:#a3d7e1;stroke:none"/><path d="m27 273 1 1-1-1z" style="fill:#6cafbb;stroke:none"/><path d="m28 273 1 1-1-1m9.667.333.666.334-.666-.334z" style="fill:#a3d7e1;stroke:none"/><path d="m39 273 1 1-1-1m31 0 1 1-1-1z" style="fill:#6cafbb;stroke:none"/><path d="m111 273 1 1-1-1m83 0 1 1-1-1z" style="fill:#a3d7e1;stroke:none"/><path d="m397 273 1 1-1-1z" style="fill:#6cafbb;stroke:none"/><path d="m26 274 1 1-1-1m15 0 1 1-1-1z" style="fill:#a3d7e1;stroke:none"/><path d="m112 274 1 1-1-1m82 0 1 1-1-1z" style="fill:#6cafbb;stroke:none"/><path d="m397 274 1 1-1-1m57 0 1 1-1-1z" style="fill:#a3d7e1;stroke:none"/><path d="m24 275 1 1-1-1z" style="fill:#6cafbb;stroke:none"/><path d="m43 275 1 1-1-1z" style="fill:#a3d7e1;stroke:none"/><path d="m44 275 1 1-1-1m69 0 1 1-1-1z" style="fill:#6cafbb;stroke:none"/><path d="m174.333 275.667.334.666-.334-.666M195 275l1 1-1-1z" style="fill:#a3d7e1;stroke:none"/><path d="m350 275 1 1-1-1m48 0 1 1-1-1z" style="fill:#6cafbb;stroke:none"/><path d="m421 275 1 1-1-1m32 0 1 1-1-1z" style="fill:#a3d7e1;stroke:none"/><path d="m23 276 1 1-1-1z" style="fill:#6cafbb;stroke:none"/><path d="m45 276 1 1-1-1z" style="fill:#a3d7e1;stroke:none"/><path d="m46 276 1 1-1-1z" style="fill:#6cafbb;stroke:none"/><path d="m70 276 1 1-1-1m44 0 1 1-1-1z" style="fill:#a3d7e1;stroke:none"/><path d="m195 276 1 1-1-1m142 0 1 1-1-1z" style="fill:#6cafbb;stroke:none"/><path d="m350.333 276.667.334.666-.334-.666M398 276l1 1-1-1z" style="fill:#a3d7e1;stroke:none"/><path d="m453 276 1 1-1-1m-431 1 1 1-1-1z" style="fill:#6cafbb;stroke:none"/><path d="m47.667 277.333.666.334-.666-.334z" style="fill:#a3d7e1;stroke:none"/><path d="m69 277 1 1-1-1z" style="fill:#6cafbb;stroke:none"/><path d="m115 277 1 1-1-1z" style="fill:#a3d7e1;stroke:none"/><path d="m174 277 1 1-1-1z" style="fill:#6cafbb;stroke:none"/><path d="m337.333 277.667.334.666-.334-.666z" style="fill:#a3d7e1;stroke:none"/><path d="m399 277 1 1-1-1z" style="fill:#6cafbb;stroke:none"/><path d="m422 277 1 1-1-1m30 0 1 1-1-1m-430 1 1 1-1-1m28.667.333.666.334-.666-.334z" style="fill:#a3d7e1;stroke:none"/><path d="m52 278 1 1-1-1z" style="fill:#6cafbb;stroke:none"/><path d="m68 278 1 1-1-1z" style="fill:#a3d7e1;stroke:none"/><path d="m117 278 1 1-1-1z" style="fill:#6cafbb;stroke:none"/><path d="m196 278 1 1-1-1m203 0 1 1-1-1z" style="fill:#a3d7e1;stroke:none"/><path d="m21 279 1 1-1-1z" style="fill:#6cafbb;stroke:none"/><path d="M54 279v1h3l-3-1z" style="fill:#a3d7e1;stroke:none"/><path d="M57 279v1h6l-6-1z" style="fill:#6cafbb;stroke:none"/><path d="M63 279v1h4l-4-1m55 0 1 1-1-1m28 0v5h1l-1-5m27.333.667.334.666-.334-.666m176 0 .334.666-.334-.666m74 0 .334.666-.334-.666M451 279l1 1-1-1m-430 1v4h1l-1-4z" style="fill:#a3d7e1;stroke:none"/><path d="m120 280 1 1-1-1z" style="fill:#6cafbb;stroke:none"/><path d="m197 280 1 1-1-1z" style="fill:#a3d7e1;stroke:none"/><path d="m338 280 1 1-1-1z" style="fill:#6cafbb;stroke:none"/><path d="m400 280 1 1-1-1m-279 1 1 1-1-1z" style="fill:#a3d7e1;stroke:none"/><path d="m173 281 1 1-1-1m24 0 1 1-1-1z" style="fill:#6cafbb;stroke:none"/><path d="m338.333 281.667.334.666-.334-.666z" style="fill:#a3d7e1;stroke:none"/><path d="M423 281v3h1l-1-3z" style="fill:#6cafbb;stroke:none"/><path d="m450 281 1 1-1-1m-327 1 1 1-1-1m75.333.667.334.666-.334-.666z" style="fill:#a3d7e1;stroke:none"/><path d="m348 282 1 1-1-1z" style="fill:#6cafbb;stroke:none"/><path d="m401.333 282.667.334.666-.334-.666M125 283l1 1-1-1m47 0v3h1l-1-3m176.333.667.334.666-.334-.666M449 283l1 1-1-1z" style="fill:#a3d7e1;stroke:none"/><path d="m21 284 1 1-1-1z" style="fill:#6cafbb;stroke:none"/><path d="m127 284 1 1-1-1z" style="fill:#a3d7e1;stroke:none"/><path d="m339 284 1 1-1-1m63 0 1 1-1-1z" style="fill:#6cafbb;stroke:none"/><path d="m423.333 284.667.334.666-.334-.666M129 285l1 1-1-1m70 0 1 1-1-1m140 0 1 1-1-1m63 0 1 1-1-1m46 0 1 1-1-1m-426 1 1 1-1-1m109 0 1 1-1-1z" style="fill:#a3d7e1;stroke:none"/><path d="m132 286 1 1-1-1z" style="fill:#6cafbb;stroke:none"/><path d="m145 286 1 1-1-1z" style="fill:#a3d7e1;stroke:none"/><path d="m172 286 1 1-1-1m175 0 1 1-1-1z" style="fill:#6cafbb;stroke:none"/><path d="m134 287 1 1-1-1m66 0 1 1-1-1z" style="fill:#a3d7e1;stroke:none"/><path d="m340 287 1 1-1-1z" style="fill:#6cafbb;stroke:none"/><path d="m347.333 287.667.334.666-.334-.666z" style="fill:#a3d7e1;stroke:none"/><path d="m403 287 1 1-1-1m19 0 1 1-1-1z" style="fill:#6cafbb;stroke:none"/><path d="m447 287 1 1-1-1z" style="fill:#a3d7e1;stroke:none"/><path d="m23 288 1 1-1-1z" style="fill:#6cafbb;stroke:none"/><path d="m136.667 288.333.666.334-.666-.334z" style="fill:#a3d7e1;stroke:none"/><path d="m138 288 1 1-1-1z" style="fill:#6cafbb;stroke:none"/><path d="m144 288 1 1-1-1z" style="fill:#a3d7e1;stroke:none"/><path d="m200 288 1 1-1-1z" style="fill:#6cafbb;stroke:none"/><path d="m340.333 288.667.334.666-.334-.666M403 288l1 1-1-1m19 0 1 1-1-1z" style="fill:#a3d7e1;stroke:none"/><path d="m447 288 1 1-1-1m-423 1 1 1-1-1z" style="fill:#6cafbb;stroke:none"/><path d="M140 289v1h3l-3-1m31.333.667.334.666-.334-.666M201 289l1 1-1-1m245 0 1 1-1-1z" style="fill:#a3d7e1;stroke:none"/><path d="m25 290 1 1-1-1m176 0 1 1-1-1z" style="fill:#6cafbb;stroke:none"/><path d="m346 290 1 1-1-1m58.333.667.334.666-.334-.666m17 0 .334.666-.334-.666z" style="fill:#a3d7e1;stroke:none"/><path d="m446 290 1 1-1-1z" style="fill:#6cafbb;stroke:none"/><path d="m27 291 1 1-1-1z" style="fill:#a3d7e1;stroke:none"/><path d="m171.333 291.667.334.666-.334-.666z" style="fill:#6cafbb;stroke:none"/><path d="m341 291 1 1-1-1z" style="fill:#a3d7e1;stroke:none"/><path d="m29 292 1 1-1-1z" style="fill:#6cafbb;stroke:none"/><path d="M30 292v1h13l-13-1z" style="fill:#a3d7e1;stroke:none"/><path d="M43 292v1h6l-6-1z" style="fill:#6cafbb;stroke:none"/><path d="M49 292v1h10l-10-1m153 0 1 1-1-1z" style="fill:#a3d7e1;stroke:none"/><path d="m342 292 1 1-1-1m2 0 1 1-1-1z" style="fill:#6cafbb;stroke:none"/><path d="m345 292 1 1-1-1m100 0 1 1-1-1z" style="fill:#a3d7e1;stroke:none"/><path d="M62 293v1h3l-3-1z" style="fill:#6cafbb;stroke:none"/><path d="M65 293v1h5l-5-1m340.333.667.334.666-.334-.666z" style="fill:#a3d7e1;stroke:none"/><path d="m420 293 1 1-1-1m-346.333 1.333.666.334-.666-.334z" style="fill:#6cafbb;stroke:none"/><path d="M75 294v1h5l-5-1m95.333.667.334.666-.334-.666M203 294l1 1-1-1m217 0v3h1l-1-3m24 0 1 1-1-1z" style="fill:#a3d7e1;stroke:none"/><path d="m82.667 295.333.666.334-.666-.334z" style="fill:#6cafbb;stroke:none"/><path d="M84 295v1h5l-5-1z" style="fill:#a3d7e1;stroke:none"/><path d="m444 295 1 1-1-1m-353 1 1 1-1-1z" style="fill:#6cafbb;stroke:none"/><path d="M92 296v1h3l-3-1z" style="fill:#a3d7e1;stroke:none"/><path d="m170.333 296.667.334.666-.334-.666z" style="fill:#6cafbb;stroke:none"/><path d="m204 296 1 1-1-1z" style="fill:#a3d7e1;stroke:none"/><path d="m406 296 1 1-1-1m-310 1 1 1-1-1z" style="fill:#6cafbb;stroke:none"/><path d="m97.667 297.333.666.334-.666-.334z" style="fill:#a3d7e1;stroke:none"/><path d="m204 297 1 1-1-1z" style="fill:#6cafbb;stroke:none"/><path d="m406 297 1 1-1-1m37 0 1 1-1-1z" style="fill:#a3d7e1;stroke:none"/><path d="m100 298 1 1-1-1z" style="fill:#6cafbb;stroke:none"/><path d="m101 298 1 1-1-1m104 0 1 1-1-1z" style="fill:#a3d7e1;stroke:none"/><path d="m443 298 1 1-1-1m-340 1 1 1-1-1z" style="fill:#6cafbb;stroke:none"/><path d="m104 299 1 1-1-1m65.333.667.334.666-.334-.666z" style="fill:#a3d7e1;stroke:none"/><path d="m205 299 1 1-1-1m202 0 1 1-1-1z" style="fill:#6cafbb;stroke:none"/><path d="m106 300 1 1-1-1m100 0 1 1-1-1m201.333.667.334.666-.334-.666M442 300l1 1-1-1z" style="fill:#a3d7e1;stroke:none"/><path d="m108 301 1 1-1-1z" style="fill:#6cafbb;stroke:none"/><path d="m109 301 1 1-1-1z" style="fill:#a3d7e1;stroke:none"/><path d="m169 301 1 1-1-1m37 0 1 1-1-1m213 0v3h1l-1-3m23 0 1 1-1-1m-332 1 1 1-1-1z" style="fill:#6cafbb;stroke:none"/><path d="m111 302 1 1-1-1m96 0 1 1-1-1z" style="fill:#a3d7e1;stroke:none"/><path d="m112 303 1 1-1-1z" style="fill:#6cafbb;stroke:none"/><path d="m113 303 1 1-1-1m55 0 1 1-1-1z" style="fill:#a3d7e1;stroke:none"/><path d="m408 303 1 1-1-1z" style="fill:#6cafbb;stroke:none"/><path d="m441 303 1 1-1-1z" style="fill:#a3d7e1;stroke:none"/><path d="m115 304 1 1-1-1z" style="fill:#6cafbb;stroke:none"/><path d="m116 304 1 1-1-1z" style="fill:#a3d7e1;stroke:none"/><path d="m168 304 1 1-1-1z" style="fill:#6cafbb;stroke:none"/><path d="m208 304 1 1-1-1m200.333.667.334.666-.334-.666m11 0 .334.666-.334-.666z" style="fill:#a3d7e1;stroke:none"/><path d="m441 304 1 1-1-1z" style="fill:#6cafbb;stroke:none"/><path d="m118.667 305.333.666.334-.666-.334M209 305l1 1-1-1z" style="fill:#a3d7e1;stroke:none"/><path d="m120 306 1 1-1-1z" style="fill:#6cafbb;stroke:none"/><path d="m121.667 306.333.666.334-.666-.334M167 306l1 1-1-1m273 0 1 1-1-1m-315.333 1.333.666.334-.666-.334z" style="fill:#a3d7e1;stroke:none"/><path d="m210 307 1 1-1-1m199 0 1 1-1-1m9 0 1 1-1-1m22 0 1 1-1-1z" style="fill:#6cafbb;stroke:none"/><path d="m127.667 308.333.666.334-.666-.334M166 308l1 1-1-1m45 0 1 1-1-1m198.333.667.334.666-.334-.666m9 0 .334.666-.334-.666z" style="fill:#a3d7e1;stroke:none"/><path d="m130 309 1 1-1-1z" style="fill:#6cafbb;stroke:none"/><path d="m131 309 1 1-1-1m81 0 1 1-1-1m227.333.667.334.666-.334-.666z" style="fill:#a3d7e1;stroke:none"/><path d="m133 310 1 1-1-1z" style="fill:#6cafbb;stroke:none"/><path d="m134 310 1 1-1-1z" style="fill:#a3d7e1;stroke:none"/><path d="m165 310 1 1-1-1z" style="fill:#6cafbb;stroke:none"/><path d="m213 310 1 1-1-1z" style="fill:#a3d7e1;stroke:none"/><path d="m136 311 1 1-1-1z" style="fill:#6cafbb;stroke:none"/><path d="m137 311 1 1-1-1z" style="fill:#a3d7e1;stroke:none"/><path d="m164 311 1 1-1-1z" style="fill:#6cafbb;stroke:none"/><path d="m214 311 1 1-1-1z" style="fill:#a3d7e1;stroke:none"/><path d="m410 311 1 1-1-1z" style="fill:#6cafbb;stroke:none"/><path d="m417 311 1 1-1-1z" style="fill:#a3d7e1;stroke:none"/><path d="m439 311 1 1-1-1m-300 1 1 1-1-1z" style="fill:#6cafbb;stroke:none"/><path d="m140 312 1 1-1-1z" style="fill:#a3d7e1;stroke:none"/><path d="m163 312 1 1-1-1m52 0 1 1-1-1z" style="fill:#6cafbb;stroke:none"/><path d="M410 312v3h1l-1-3z" style="fill:#a3d7e1;stroke:none"/><path d="m142 313 1 1-1-1z" style="fill:#6cafbb;stroke:none"/><path d="m143 313 1 1-1-1m18 0 1 1-1-1z" style="fill:#a3d7e1;stroke:none"/><path d="m216 313 1 1-1-1z" style="fill:#6cafbb;stroke:none"/><path d="m416 313 1 1-1-1m22.333.667.334.666-.334-.666m-292.666.666.666.334-.666-.334m13 0 .666.334-.666-.334M218 314l1 1-1-1z" style="fill:#a3d7e1;stroke:none"/><path d="m148.667 315.333.666.334-.666-.334z" style="fill:#6cafbb;stroke:none"/><path d="M150 315v1h5l-5-1z" style="fill:#a3d7e1;stroke:none"/><path d="m155.667 315.333.666.334-.666-.334z" style="fill:#6cafbb;stroke:none"/><path d="m219 315 1 1-1-1m196 0 1 1-1-1m-195 1 1 1-1-1z" style="fill:#a3d7e1;stroke:none"/><path d="m411 316 1 1-1-1z" style="fill:#6cafbb;stroke:none"/><path d="m437.333 316.667.334.666-.334-.666z" style="fill:#a3d7e1;stroke:none"/><path d="m221 317 1 1-1-1z" style="fill:#6cafbb;stroke:none"/><path d="M411 317v3h1l-1-3m3 0 1 1-1-1m-1 1 1 1-1-1m-189 1 1 1-1-1z" style="fill:#a3d7e1;stroke:none"/><path d="m412 319 1 1-1-1z" style="fill:#6cafbb;stroke:none"/><path d="m436.333 319.667.334.666-.334-.666M225 320l1 1-1-1z" style="fill:#a3d7e1;stroke:none"/><path d="m374 320 1 1-1-1z" style="fill:#6cafbb;stroke:none"/><path d="m377 320 1 1-1-1m-151 1 1 1-1-1m147 0 1 1-1-1m5.333.667.334.666-.334-.666z" style="fill:#a3d7e1;stroke:none"/><path d="m227 322 1 1-1-1z" style="fill:#6cafbb;stroke:none"/><path d="m435 322 1 1-1-1m-206 1 1 1-1-1m143 0 1 1-1-1z" style="fill:#a3d7e1;stroke:none"/><path d="m378 323 1 1-1-1z" style="fill:#6cafbb;stroke:none"/><path d="m230 324 1 1-1-1z" style="fill:#a3d7e1;stroke:none"/><path d="m372 324 1 1-1-1z" style="fill:#6cafbb;stroke:none"/><path d="m434 324 1 1-1-1z" style="fill:#a3d7e1;stroke:none"/><path d="m231 325 1 1-1-1z" style="fill:#6cafbb;stroke:none"/><path d="M379 325v3h1l-1-3z" style="fill:#a3d7e1;stroke:none"/><path d="m434 325 1 1-1-1m-202 1 1 1-1-1z" style="fill:#6cafbb;stroke:none"/><path d="m371 326 1 1-1-1m-137 1 1 1-1-1m199 0 1 1-1-1m-198 1 1 1-1-1m135 0 1 1-1-1z" style="fill:#a3d7e1;stroke:none"/><path d="m379 328 1 1-1-1m-143 1 1 1-1-1m134 0 1 1-1-1z" style="fill:#6cafbb;stroke:none"/><path d="m432 329 1 1-1-1m-52 1v3h1l-1-3z" style="fill:#a3d7e1;stroke:none"/><path d="m432 330 1 1-1-1z" style="fill:#6cafbb;stroke:none"/><path d="m239 331 1 1-1-1m130 0 1 1-1-1m-129 1 1 1-1-1m191 0 1 1-1-1z" style="fill:#a3d7e1;stroke:none"/><path d="m241 333 1 1-1-1z" style="fill:#6cafbb;stroke:none"/><path d="m368 333 1 1-1-1z" style="fill:#a3d7e1;stroke:none"/><path d="m380 333 1 1-1-1m51 0 1 1-1-1m-63 1 1 1-1-1m-125 1 1 1-1-1z" style="fill:#6cafbb;stroke:none"/><path d="m367.333 335.667.334.666-.334-.666M381 335v3h1l-1-3m49.333.667.334.666-.334-.666M244 336l1 1-1-1z" style="fill:#a3d7e1;stroke:none"/><path d="m430 337 1 1-1-1m-225 1v1h3l-3-1z" style="fill:#6cafbb;stroke:none"/><path d="M208 338v1h22l-22-1z" style="fill:#a3d7e1;stroke:none"/><path d="M230 338v1h4l-4-1z" style="fill:#6cafbb;stroke:none"/><path d="m245 338 1 1-1-1m121 0 1 1-1-1z" style="fill:#a3d7e1;stroke:none"/><path d="m381 338 1 1-1-1m-182 1 1 1-1-1z" style="fill:#6cafbb;stroke:none"/><path d="M200 339v1h3l-3-1m36 0v1h6l-6-1z" style="fill:#a3d7e1;stroke:none"/><path d="m242.667 339.333.666.334-.666-.334M245 339l1 1-1-1m121 0 1 1-1-1z" style="fill:#6cafbb;stroke:none"/><path d="m429 339 1 1-1-1z" style="fill:#a3d7e1;stroke:none"/><path d="m195 340 1 1-1-1z" style="fill:#6cafbb;stroke:none"/><path d="m196.667 340.333.666.334-.666-.334z" style="fill:#a3d7e1;stroke:none"/><path d="m429 340 1 1-1-1z" style="fill:#6cafbb;stroke:none"/><path d="m192.667 341.333.666.334-.666-.334M365 341l1 1-1-1m17.333.667.334.666-.334-.666z" style="fill:#a3d7e1;stroke:none"/><path d="m189 342 1 1-1-1z" style="fill:#6cafbb;stroke:none"/><path d="m190 342 1 1-1-1m238.333.667.334.666-.334-.666z" style="fill:#a3d7e1;stroke:none"/><path d="m187 343 1 1-1-1z" style="fill:#6cafbb;stroke:none"/><path d="m188 343 1 1-1-1m176.333.667.334.666-.334-.666z" style="fill:#a3d7e1;stroke:none"/><path d="m382.333 343.667.334.666-.334-.666z" style="fill:#6cafbb;stroke:none"/><path d="m186 344 1 1-1-1z" style="fill:#a3d7e1;stroke:none"/><path d="m428 344 1 1-1-1z" style="fill:#6cafbb;stroke:none"/><path d="m185 345 1 1-1-1z" style="fill:#a3d7e1;stroke:none"/><path d="m364 345 1 1-1-1m-194 1 1 1-1-1z" style="fill:#6cafbb;stroke:none"/><path d="M171 346v1h5l-5-1z" style="fill:#a3d7e1;stroke:none"/><path d="m176 346 1 1-1-1m8 0 1 1-1-1z" style="fill:#6cafbb;stroke:none"/><path d="M383 346v3h1l-1-3m44 0 1 1-1-1z" style="fill:#a3d7e1;stroke:none"/><path d="m167 347 1 1-1-1z" style="fill:#6cafbb;stroke:none"/><path d="m168 347 1 1-1-1m9 0 1 1-1-1z" style="fill:#a3d7e1;stroke:none"/><path d="m178 347 1 1-1-1z" style="fill:#6cafbb;stroke:none"/><path d="m184 347 1 1-1-1m179 0 1 1-1-1z" style="fill:#a3d7e1;stroke:none"/><path d="m427 347 1 1-1-1z" style="fill:#6cafbb;stroke:none"/><path d="m166 348 1 1-1-1m13 0 1 1-1-1z" style="fill:#a3d7e1;stroke:none"/><path d="m363.333 348.667.334.666-.334-.666M164 349l1 1-1-1z" style="fill:#6cafbb;stroke:none"/><path d="m180 349 1 1-1-1z" style="fill:#a3d7e1;stroke:none"/><path d="m183 349 1 1-1-1m200 0 1 1-1-1z" style="fill:#6cafbb;stroke:none"/><path d="m426.333 349.667.334.666-.334-.666M163 350l1 1-1-1z" style="fill:#a3d7e1;stroke:none"/><path d="m181 350 1 1-1-1z" style="fill:#6cafbb;stroke:none"/><path d="m183 350 1 1-1-1z" style="fill:#a3d7e1;stroke:none"/><path d="m162 351 1 1-1-1z" style="fill:#6cafbb;stroke:none"/><path d="m181 351 1 1-1-1z" style="fill:#a3d7e1;stroke:none"/><path d="m183 351-1 2 1-2z" style="fill:#6cafbb;stroke:none"/><path d="m362.333 351.667.334.666-.334-.666z" style="fill:#a3d7e1;stroke:none"/><path d="m426 351 1 1-1-1z" style="fill:#6cafbb;stroke:none"/><path d="m183.333 352.667.334.666-.334-.666z" style="fill:#1eb3c7;stroke:none"/><path d="M384 352v3h1l-1-3m-223 1 1 1-1-1m21 0 1 1-1-1z" style="fill:#a3d7e1;stroke:none"/><path d="m362.333 353.667.334.666-.334-.666z" style="fill:#6cafbb;stroke:none"/><path d="m425 353 1 1-1-1z" style="fill:#a3d7e1;stroke:none"/><path d="m160 354 1 1-1-1m23 0 1 1-1-1z" style="fill:#6cafbb;stroke:none"/><path d="m184 354-1 2 1-2z" style="fill:#a3d7e1;stroke:none"/><path d="m425 354 1 1-1-1z" style="fill:#6cafbb;stroke:none"/><path d="m160 355 1 1-1-1z" style="fill:#a3d7e1;stroke:none"/><path d="m184.333 355.667.334.666-.334-.666z" style="fill:#1eb3c7;stroke:none"/><path d="m384 355 1 1-1-1z" style="fill:#6cafbb;stroke:none"/><path d="m185 356-1 3h1v-3m239 0 1 1-1-1z" style="fill:#a3d7e1;stroke:none"/><path d="m159.333 357.667.334.666-.334-.666M185 357l1 1-1-1z" style="fill:#6cafbb;stroke:none"/><path d="M361 357v15h1l-1-15z" style="fill:#a3d7e1;stroke:none"/><path d="m424 357 1 1-1-1z" style="fill:#6cafbb;stroke:none"/><path d="M185 358c2.14 11.356 7.15 21.291 11.399 32 1.533 3.865 2.47 9.571 5.879 12.262 7.671 6.055 27.249 6.732 36.722 6.738-1.181-7.319-10.437-11.953-16-16.127-14.319-10.743-25.76-22.094-38-34.873z" style="fill:#1eb3c7;stroke:none"/><path d="m385.333 358.667.334.666-.334-.666m-226 1 .334.666-.334-.666z" style="fill:#a3d7e1;stroke:none"/><path d="m186 359 1 1-1-1z" style="fill:#6cafbb;stroke:none"/><path d="m423.333 359.667.334.666-.334-.666z" style="fill:#a3d7e1;stroke:none"/><path d="m185.333 360.667.334.666-.334-.666z" style="fill:#6cafbb;stroke:none"/><path d="m187 360 1 1-1-1z" style="fill:#a3d7e1;stroke:none"/><path d="m385 360 1 1-1-1m-225.667 1.667.334.666-.334-.666M423 361l1 1-1-1z" style="fill:#6cafbb;stroke:none"/><path d="M185 362v3h1l-1-3m3 0 1 1-1-1m198 0v3h1l-1-3m-197 1 1 1-1-1m233 0 1 1-1-1m-262 1 1 1-1-1z" style="fill:#a3d7e1;stroke:none"/><path d="m422 364 1 1-1-1m-262 1 1 1-1-1m30 0 1 1-1-1z" style="fill:#6cafbb;stroke:none"/><path d="m161 366 1 1-1-1z" style="fill:#a3d7e1;stroke:none"/><path d="m186 366 1 1-1-1z" style="fill:#6cafbb;stroke:none"/><path d="m191 366 1 1-1-1m230 0 1 1-1-1z" style="fill:#a3d7e1;stroke:none"/><path d="m161 367 1 1-1-1z" style="fill:#6cafbb;stroke:none"/><path d="m186 367 1 1-1-1m6 0 1 1-1-1m195 0 1 1-1-1z" style="fill:#a3d7e1;stroke:none"/><path d="m421 367 1 1-1-1m-303 1 1 1-1-1z" style="fill:#6cafbb;stroke:none"/><path d="M119 368v1h5l-5-1z" style="fill:#a3d7e1;stroke:none"/><path d="m124 368 1 1-1-1z" style="fill:#6cafbb;stroke:none"/><path d="m162 368 1 1-1-1m31 0 1 1-1-1z" style="fill:#a3d7e1;stroke:none"/><path d="m387 368 1 1-1-1z" style="fill:#6cafbb;stroke:none"/><path d="m117 369 1 1-1-1m9 0 1 1-1-1m61 0 1 1-1-1m7 0 1 1-1-1m226.333.667.334.666-.334-.666M128 370l1 1-1-1z" style="fill:#a3d7e1;stroke:none"/><path d="m129 370 1 1-1-1m34 0 1 1-1-1z" style="fill:#6cafbb;stroke:none"/><path d="m195 370 1 1-1-1m193.333.667.334.666-.334-.666M115 371l1 1-1-1m15 0 1 1-1-1m34 0 1 1-1-1m24 0 1 1-1-1m8 0 1 1-1-1z" style="fill:#a3d7e1;stroke:none"/><path d="m114 372 1 1-1-1m18 0 1 1-1-1z" style="fill:#6cafbb;stroke:none"/><path d="m197 372 1 1-1-1z" style="fill:#a3d7e1;stroke:none"/><path d="M361 372v3h1l-1-3z" style="fill:#6cafbb;stroke:none"/><path d="m419.333 372.667.334.666-.334-.666m-305 1 .334.666-.334-.666M133 373l1 1-1-1m32 0 1 1-1-1m24 0 1 1-1-1m9 0 1 1-1-1m191 0 1 1-1-1m-255 1 1 1-1-1z" style="fill:#a3d7e1;stroke:none"/><path d="m199 374 1 1-1-1m190 0 1 1-1-1z" style="fill:#6cafbb;stroke:none"/><path d="m135 375 1 1-1-1z" style="fill:#a3d7e1;stroke:none"/><path d="m166 375 1 1-1-1z" style="fill:#6cafbb;stroke:none"/><path d="m190 375 1 1-1-1z" style="fill:#a3d7e1;stroke:none"/><path d="m200 375 1 1-1-1z" style="fill:#6cafbb;stroke:none"/><path d="m418 375 1 1-1-1m-282 1 1 1-1-1m31 0 1 1-1-1m35 0 1 1-1-1m188 0 1 1-1-1z" style="fill:#a3d7e1;stroke:none"/><path d="m418 376 1 1-1-1z" style="fill:#6cafbb;stroke:none"/><path d="m114.333 377.667.334.666-.334-.666M137 377l1 1-1-1z" style="fill:#a3d7e1;stroke:none"/><path d="m191 377 1 1-1-1z" style="fill:#6cafbb;stroke:none"/><path d="m203 377 1 1-1-1m61.667.333.666.334-.666-.334z" style="fill:#a3d7e1;stroke:none"/><path d="m266.667 377.333.666.334-.666-.334z" style="fill:#6cafbb;stroke:none"/><path d="M268 377v1h13l-13-1m92 0v5h1l-1-5m57 0 1 1-1-1m-279 1 1 1-1-1m30 0 1 1-1-1m23 0 1 1-1-1m13 0 1 1-1-1z" style="fill:#a3d7e1;stroke:none"/><path d="m282.667 378.333.666.334-.666-.334z" style="fill:#6cafbb;stroke:none"/><path d="m284.667 378.333.666.334-.666-.334M391 378l1 1-1-1z" style="fill:#a3d7e1;stroke:none"/><path d="m417 378 1 1-1-1m-303 1 1 1-1-1m25 0 1 1-1-1z" style="fill:#6cafbb;stroke:none"/><path d="m205 379 1 1-1-1m58 0 1 1-1-1z" style="fill:#a3d7e1;stroke:none"/><path d="m287 379 1 1-1-1z" style="fill:#6cafbb;stroke:none"/><path d="m288 379 1 1-1-1m128 0 1 1-1-1m-247 1 1 1-1-1m23 0 1 1-1-1z" style="fill:#a3d7e1;stroke:none"/><path d="m206 380 1 1-1-1z" style="fill:#6cafbb;stroke:none"/><path d="m264 380 1 1-1-1z" style="fill:#a3d7e1;stroke:none"/><path d="m265 380 1 1-1-1z" style="fill:#6cafbb;stroke:none"/><path d="m290 380 1 1-1-1m102 0 1 1-1-1z" style="fill:#a3d7e1;stroke:none"/><path d="m416 380 1 1-1-1z" style="fill:#6cafbb;stroke:none"/><path d="m115 381 1 1-1-1m55 0 1 1-1-1m38 0 1 1-1-1m59 0 1 1-1-1m25 0 1 1-1-1m123 0 1 1-1-1z" style="fill:#a3d7e1;stroke:none"/><path d="m115 382 1 1-1-1m55 0 1 1-1-1m23 0 1 1-1-1z" style="fill:#6cafbb;stroke:none"/><path d="m209 382 1 1-1-1z" style="fill:#a3d7e1;stroke:none"/><path d="m269 382 1 1-1-1z" style="fill:#6cafbb;stroke:none"/><path d="m294 382 1 1-1-1z" style="fill:#a3d7e1;stroke:none"/><path d="M360 382v4h1l-1-4z" style="fill:#6cafbb;stroke:none"/><path d="m393 382 1 1-1-1m21 0 1 1-1-1m-243 1 1 1-1-1m22 0 1 1-1-1m17 0 1 1-1-1m60 0 1 1-1-1z" style="fill:#a3d7e1;stroke:none"/><path d="m271 383 1 1-1-1z" style="fill:#6cafbb;stroke:none"/><path d="m296 383 1 1-1-1m-180 1 1 1-1-1z" style="fill:#a3d7e1;stroke:none"/><path d="m171 384 1 1-1-1m40 0 1 1-1-1z" style="fill:#6cafbb;stroke:none"/><path d="m272 384 1 1-1-1z" style="fill:#a3d7e1;stroke:none"/><path d="m273 384 1 1-1-1z" style="fill:#6cafbb;stroke:none"/><path d="m298 384 1 1-1-1z" style="fill:#a3d7e1;stroke:none"/><path d="m394 384 1 1-1-1m-249 1 1 1-1-1z" style="fill:#6cafbb;stroke:none"/><path d="m194 385 1 1-1-1m19 0 1 1-1-1m61 0 1 1-1-1z" style="fill:#a3d7e1;stroke:none"/><path d="m300 385 1 1-1-1z" style="fill:#6cafbb;stroke:none"/><path d="m301 385 1 1-1-1m94 0 1 1-1-1z" style="fill:#a3d7e1;stroke:none"/><path d="m117 386 1 1-1-1z" style="fill:#6cafbb;stroke:none"/><path d="m146 386 1 1-1-1m26 0 1 1-1-1m42 0 1 1-1-1z" style="fill:#a3d7e1;stroke:none"/><path d="m276 386 1 1-1-1m26 0 1 1-1-1z" style="fill:#6cafbb;stroke:none"/><path d="m303 386 1 1-1-1m107 0 1 1-1-1m-292 1 1 1-1-1z" style="fill:#a3d7e1;stroke:none"/><path d="m148 387 1 1-1-1m24 0 1 1-1-1m23 0 1 1-1-1m20 0 1 1-1-1z" style="fill:#6cafbb;stroke:none"/><path d="m277 387 1 1-1-1z" style="fill:#a3d7e1;stroke:none"/><path d="m278 387 1 1-1-1m26 0 1 1-1-1z" style="fill:#6cafbb;stroke:none"/><path d="m305 387 1 1-1-1z" style="fill:#a3d7e1;stroke:none"/><path d="m396 387 1 1-1-1z" style="fill:#6cafbb;stroke:none"/><path d="m409 387 1 1-1-1m-260 1 1 1-1-1z" style="fill:#a3d7e1;stroke:none"/><path d="m150 388 1 1-1-1z" style="fill:#6cafbb;stroke:none"/><path d="m195 388 1 1-1-1m22 0 1 1-1-1m62 0 1 1-1-1m28 0 1 1-1-1m90 0 1 1-1-1m10 0 1 1-1-1z" style="fill:#a3d7e1;stroke:none"/><path d="m119 389 1 1-1-1z" style="fill:#6cafbb;stroke:none"/><path d="m151 389 1 1-1-1z" style="fill:#a3d7e1;stroke:none"/><path d="m152 389 1 1-1-1z" style="fill:#6cafbb;stroke:none"/><path d="m173.333 389.667.334.666-.334-.666M218 389l1 1-1-1m62 0 1 1-1-1z" style="fill:#a3d7e1;stroke:none"/><path d="m309 389 1 1-1-1z" style="fill:#6cafbb;stroke:none"/><path d="m310 389 1 1-1-1z" style="fill:#a3d7e1;stroke:none"/><path d="m398 389 1 1-1-1z" style="fill:#6cafbb;stroke:none"/><path d="m404.667 389.333.666.334-.666-.334M120 390l1 1-1-1m34 0 1 1-1-1z" style="fill:#a3d7e1;stroke:none"/><path d="m155 390 1 1-1-1z" style="fill:#6cafbb;stroke:none"/><path d="m196.333 390.667.334.666-.334-.666z" style="fill:#a3d7e1;stroke:none"/><path d="m219 390 1 1-1-1z" style="fill:#6cafbb;stroke:none"/><path d="m282 390 1 1-1-1z" style="fill:#a3d7e1;stroke:none"/><path d="m311 390 1 1-1-1z" style="fill:#6cafbb;stroke:none"/><path d="m312 390 1 1-1-1m47.333.667.334.666-.334-.666z" style="fill:#a3d7e1;stroke:none"/><path d="m400 390 1 1-1-1z" style="fill:#6cafbb;stroke:none"/><path d="m401 390 1 1-1-1z" style="fill:#a3d7e1;stroke:none"/><path d="m402 390 1 1-1-1z" style="fill:#6cafbb;stroke:none"/><path d="m121 391 1 1-1-1m36 0 1 1-1-1z" style="fill:#a3d7e1;stroke:none"/><path d="m173.333 391.667.334.666-.334-.666z" style="fill:#6cafbb;stroke:none"/><path d="m221 391 1 1-1-1m62 0 1 1-1-1m31 0 1 1-1-1m-192 1 1 1-1-1m37 0 1 1-1-1z" style="fill:#a3d7e1;stroke:none"/><path d="m160 392 1 1-1-1m37 0 1 1-1-1z" style="fill:#6cafbb;stroke:none"/><path d="m222 392 1 1-1-1z" style="fill:#a3d7e1;stroke:none"/><path d="m285 392 1 1-1-1z" style="fill:#6cafbb;stroke:none"/><path d="m316 392 1 1-1-1z" style="fill:#a3d7e1;stroke:none"/><path d="m359 392 1 1-1-1m-236 1 1 1-1-1z" style="fill:#6cafbb;stroke:none"/><path d="m162 393 1 1-1-1m11.333.667.334.666-.334-.666M197 393l1 1-1-1z" style="fill:#a3d7e1;stroke:none"/><path d="m223 393 1 1-1-1z" style="fill:#6cafbb;stroke:none"/><path d="m286 393 1 1-1-1z" style="fill:#a3d7e1;stroke:none"/><path d="m318 393 1 1-1-1z" style="fill:#6cafbb;stroke:none"/><path d="m319 393 1 1-1-1m-155 1 1 1-1-1z" style="fill:#a3d7e1;stroke:none"/><path d="m165 394 1 1-1-1z" style="fill:#6cafbb;stroke:none"/><path d="m225 394 1 1-1-1m62 0 1 1-1-1z" style="fill:#a3d7e1;stroke:none"/><path d="m320 394 1 1-1-1z" style="fill:#6cafbb;stroke:none"/><path d="m321 394 1 1-1-1m37 0 1 1-1-1m-232 1 1 1-1-1m40.667.333.666.334-.666-.334z" style="fill:#a3d7e1;stroke:none"/><path d="m168 395 1 1-1-1z" style="fill:#6cafbb;stroke:none"/><path d="m172 395 1 1-1-1z" style="fill:#a3d7e1;stroke:none"/><path d="m198 395 1 1-1-1z" style="fill:#6cafbb;stroke:none"/><path d="m226 395 1 1-1-1z" style="fill:#a3d7e1;stroke:none"/><path d="m289 395 1 1-1-1m33 0 1 1-1-1z" style="fill:#6cafbb;stroke:none"/><path d="m323 395 1 1-1-1z" style="fill:#a3d7e1;stroke:none"/><path d="m358 395 1 1-1-1m-231 1 1 1-1-1z" style="fill:#6cafbb;stroke:none"/><path d="m198 396 1 1-1-1z" style="fill:#a3d7e1;stroke:none"/><path d="m227 396 1 1-1-1z" style="fill:#6cafbb;stroke:none"/><path d="m290 396 1 1-1-1m35 0 1 1-1-1m32 0 1 1-1-1m-228 1 1 1-1-1m100 0 1 1-1-1m62 0 1 1-1-1m36 0 1 1-1-1z" style="fill:#a3d7e1;stroke:none"/><path d="m130 398 1 1-1-1z" style="fill:#6cafbb;stroke:none"/><path d="m131 398 1 1-1-1m68.333.667.334.666-.334-.666M230 398l1 1-1-1m62 0 1 1-1-1z" style="fill:#a3d7e1;stroke:none"/><path d="m329 398 1 1-1-1z" style="fill:#6cafbb;stroke:none"/><path d="m330 398 1 1-1-1z" style="fill:#a3d7e1;stroke:none"/><path d="m356 398 1 1-1-1m-224 1 1 1-1-1z" style="fill:#6cafbb;stroke:none"/><path d="m133 399 1 1-1-1m98 0 1 1-1-1z" style="fill:#a3d7e1;stroke:none"/><path d="m294 399 1 1-1-1z" style="fill:#6cafbb;stroke:none"/><path d="m332 399 1 1-1-1z" style="fill:#a3d7e1;stroke:none"/><path d="m355 399 1 1-1-1m-221 1 1 1-1-1z" style="fill:#6cafbb;stroke:none"/><path d="m135 400 1 1-1-1z" style="fill:#a3d7e1;stroke:none"/><path d="m232 400 1 1-1-1z" style="fill:#6cafbb;stroke:none"/><path d="m295 400 1 1-1-1z" style="fill:#a3d7e1;stroke:none"/><path d="m334 400 1 1-1-1z" style="fill:#6cafbb;stroke:none"/><path d="m335 400 1 1-1-1m18 0 1 1-1-1m-216 1 1 1-1-1m63 0 1 1-1-1m34 0 1 1-1-1m62 0 1 1-1-1z" style="fill:#a3d7e1;stroke:none"/><path d="m337 401 1 1-1-1z" style="fill:#6cafbb;stroke:none"/><path d="m338.667 401.333.666.334-.666-.334M351 401l1 1-1-1z" style="fill:#a3d7e1;stroke:none"/><path d="m352 401 1 1-1-1z" style="fill:#6cafbb;stroke:none"/><path d="m139 402 1 1-1-1m62 0 1 1-1-1m34 0 1 1-1-1m62 0 1 1-1-1z" style="fill:#a3d7e1;stroke:none"/><path d="m342 402 1 1-1-1z" style="fill:#6cafbb;stroke:none"/><path d="M343 402v1h6l-6-1z" style="fill:#a3d7e1;stroke:none"/><path d="m349 402 1 1-1-1m-208 1 1 1-1-1z" style="fill:#6cafbb;stroke:none"/><path d="m142 403 1 1-1-1m60 0 1 1-1-1z" style="fill:#a3d7e1;stroke:none"/><path d="m203 403 1 1-1-1m33 0 1 1-1-1m-93 1 1 1-1-1z" style="fill:#6cafbb;stroke:none"/><path d="m144 404 1 1-1-1m60 0v1h3l-3-1z" style="fill:#a3d7e1;stroke:none"/><path d="m207.667 404.333.666.334-.666-.334M145 405l1 1-1-1z" style="fill:#6cafbb;stroke:none"/><path d="m146 405 1 1-1-1m64 0v1h3l-3-1z" style="fill:#a3d7e1;stroke:none"/><path d="m213 405 1 1-1-1m-66 1 1 1-1-1z" style="fill:#6cafbb;stroke:none"/><path d="M215 406v1h3l-3-1z" style="fill:#a3d7e1;stroke:none"/><path d="m218 406 1 1-1-1z" style="fill:#6cafbb;stroke:none"/><path d="M239 406v3h1l-1-3z" style="fill:#a3d7e1;stroke:none"/><path d="m302 406 1 1-1-1z" style="fill:#6cafbb;stroke:none"/><path d="m149 407 1 1-1-1m71 0v1h3l-3-1z" style="fill:#a3d7e1;stroke:none"/><path d="m223 407 1 1-1-1m80 0 1 1-1-1m-153 1 1 1-1-1z" style="fill:#6cafbb;stroke:none"/><path d="M226 408v1h3l-3-1z" style="fill:#a3d7e1;stroke:none"/><path d="m229 408 1 1-1-1m75 0 1 1-1-1z" style="fill:#6cafbb;stroke:none"/><path d="m152 409 1 1-1-1m81 0v1h6l-6-1z" style="fill:#a3d7e1;stroke:none"/><path d="m305 409 1 1-1-1z" style="fill:#6cafbb;stroke:none"/><path d="m153 410 1 1-1-1z" style="fill:#a3d7e1;stroke:none"/><path d="m306 410 1 1-1-1m-152 1 1 1-1-1m153 0 1 1-1-1z" style="fill:#6cafbb;stroke:none"/><path d="m157 414 1 1-1-1z" style="fill:#a3d7e1;stroke:none"/><path d="m157 415 1 1-1-1z" style="fill:#6cafbb;stroke:none"/><path d="m310 415 1 1-1-1m-153 1 1 1-1-1m154 0 1 1-1-1m1 1 1 1-1-1z" style="fill:#a3d7e1;stroke:none"/><path d="m126.667 418.333.666.334-.666-.334z" style="fill:#6cafbb;stroke:none"/><path d="M128 418v1h7l-7-1z" style="fill:#a3d7e1;stroke:none"/><path d="m135.667 418.333.666.334-.666-.334M155 418l1 1-1-1m158 0 1 1-1-1z" style="fill:#6cafbb;stroke:none"/><path d="m122.667 419.333.666.334-.666-.334m16 0 .666.334-.666-.334z" style="fill:#a3d7e1;stroke:none"/><path d="m140 419 1 1-1-1m13 0 1 1-1-1z" style="fill:#6cafbb;stroke:none"/><path d="m154 419 1 1-1-1m-34 1 1 1-1-1m22 0 1 1-1-1z" style="fill:#a3d7e1;stroke:none"/><path d="m143.667 420.333.666.334-.666-.334m6 0 .666.334-.666-.334z" style="fill:#6cafbb;stroke:none"/><path d="m151 420 1 1-1-1z" style="fill:#a3d7e1;stroke:none"/><path d="m118 421 1 1-1-1z" style="fill:#6cafbb;stroke:none"/><path d="m315 421 1 1-1-1z" style="fill:#a3d7e1;stroke:none"/><path d="m117 422 1 1-1-1z" style="fill:#6cafbb;stroke:none"/><path d="m316 422 1 1-1-1z" style="fill:#a3d7e1;stroke:none"/><path d="m317 423 1 1-1-1z" style="fill:#6cafbb;stroke:none"/><path d="M116 424v7h1l-1-7m202 1 1 1-1-1z" style="fill:#a3d7e1;stroke:none"/><path d="m319 426 1 1-1-1z" style="fill:#6cafbb;stroke:none"/><path d="m319 427 1 1-1-1z" style="fill:#a3d7e1;stroke:none"/><path d="m320 428 1 1-1-1z" style="fill:#6cafbb;stroke:none"/><path d="M189 429v1h4l-4-1z" style="fill:#a3d7e1;stroke:none"/><path d="M193 429v1h5l-5-1z" style="fill:#6cafbb;stroke:none"/><path d="M198 429v1h3l-3-1m122.333.667.334.666-.334-.666m-134.666.666.666.334-.666-.334z" style="fill:#a3d7e1;stroke:none"/><path d="m187 430 1 1-1-1m15 0 1 1-1-1z" style="fill:#6cafbb;stroke:none"/><path d="m203.667 430.333.666.334-.666-.334z" style="fill:#a3d7e1;stroke:none"/><path d="m116 431 1 1-1-1z" style="fill:#6cafbb;stroke:none"/><path d="m181.667 431.333.666.334-.666-.334z" style="fill:#a3d7e1;stroke:none"/><path d="m183 431 1 1-1-1m24 0 1 1-1-1z" style="fill:#6cafbb;stroke:none"/><path d="m208.667 431.333.666.334-.666-.334m-31 1 .666.334-.666-.334z" style="fill:#a3d7e1;stroke:none"/><path d="m179 432 1 1-1-1m32 0 1 1-1-1z" style="fill:#6cafbb;stroke:none"/><path d="M212 432v1h3l-3-1m-94.667 1.667.334.666-.334-.666m56.334-.334.666.334-.666-.334z" style="fill:#a3d7e1;stroke:none"/><path d="m216 433 1 1-1-1z" style="fill:#6cafbb;stroke:none"/><path d="m217.667 433.333.666.334-.666-.334m-48 1 .666.334-.666-.334z" style="fill:#a3d7e1;stroke:none"/><path d="m220 434 1 1-1-1z" style="fill:#6cafbb;stroke:none"/><path d="m221.667 434.333.666.334-.666-.334m-56 1 .666.334-.666-.334z" style="fill:#a3d7e1;stroke:none"/><path d="m167 435 1 1-1-1m57 0 1 1-1-1z" style="fill:#6cafbb;stroke:none"/><path d="m225.667 435.333.666.334-.666-.334M320 435l1 1-1-1m-202 1 1 1-1-1m43.667.333.666.334-.666-.334z" style="fill:#a3d7e1;stroke:none"/><path d="m163 436 1 1-1-1m64 0 1 1-1-1z" style="fill:#6cafbb;stroke:none"/><path d="m228.667 436.333.666.334-.666-.334z" style="fill:#a3d7e1;stroke:none"/><path d="m320 436 1 1-1-1z" style="fill:#6cafbb;stroke:none"/><path d="m157.667 437.333.666.334-.666-.334z" style="fill:#a3d7e1;stroke:none"/><path d="m159 437 1 1-1-1z" style="fill:#6cafbb;stroke:none"/><path d="m231.667 437.333.666.334-.666-.334M119 438l1 1-1-1m35 0 1 1-1-1z" style="fill:#a3d7e1;stroke:none"/><path d="m155 438 1 1-1-1m80.667.333.666.334-.666-.334z" style="fill:#6cafbb;stroke:none"/><path d="M237 438v1h7l-7-1z" style="fill:#a3d7e1;stroke:none"/><path d="m319 438 1 1-1-1z" style="fill:#6cafbb;stroke:none"/><path d="m120 439 1 1-1-1m30.667.333.666.334-.666-.334z" style="fill:#a3d7e1;stroke:none"/><path d="m246.667 439.333.666.334-.666-.334z" style="fill:#6cafbb;stroke:none"/><path d="M248 439v1h4l-4-1m70 0 1 1-1-1m-197 1 1 1-1-1m25.667.333.666.334-.666-.334z" style="fill:#a3d7e1;stroke:none"/><path d="m148 440 1 1-1-1m105.667.333.666.334-.666-.334z" style="fill:#6cafbb;stroke:none"/><path d="M255 440v1h3l-3-1m62 0 1 1-1-1m-195 1 1 1-1-1m21 0 1 1-1-1z" style="fill:#a3d7e1;stroke:none"/><path d="m144 441 1 1-1-1m115 0 1 1-1-1z" style="fill:#6cafbb;stroke:none"/><path d="m260.667 441.333.666.334-.666-.334z" style="fill:#a3d7e1;stroke:none"/><path d="m316 441 1 1-1-1m-193 1 1 1-1-1z" style="fill:#6cafbb;stroke:none"/><path d="m140 442 1 1-1-1z" style="fill:#a3d7e1;stroke:none"/><path d="m141 442 1 1-1-1m123 0 1 1-1-1z" style="fill:#6cafbb;stroke:none"/><path d="m265.667 442.333.666.334-.666-.334M314 442l1 1-1-1m-189 1 1 1-1-1m13 0 1 1-1-1z" style="fill:#a3d7e1;stroke:none"/><path d="m268.667 443.333.666.334-.666-.334z" style="fill:#6cafbb;stroke:none"/><path d="m270.667 443.333.666.334-.666-.334m41 0 .666.334-.666-.334z" style="fill:#a3d7e1;stroke:none"/><path d="m127 444 1 1-1-1z" style="fill:#6cafbb;stroke:none"/><path d="m128.667 444.333.666.334-.666-.334m6 0 .666.334-.666-.334z" style="fill:#a3d7e1;stroke:none"/><path d="m136 444 1 1-1-1m137 0 1 1-1-1z" style="fill:#6cafbb;stroke:none"/><path d="M274 444v1h3l-3-1m34.667.333.666.334-.666-.334z" style="fill:#a3d7e1;stroke:none"/><path d="m310 444 1 1-1-1m-32 1 1 1-1-1z" style="fill:#6cafbb;stroke:none"/><path d="M279 445v1h3l-3-1m24 0v1h3l-3-1z" style="fill:#a3d7e1;stroke:none"/><path d="m306 445 1 1-1-1m-22.333 1.333.666.334-.666-.334z" style="fill:#6cafbb;stroke:none"/><path d="M285 446v1h15l-15-1z" style="fill:#a3d7e1;stroke:none"/><path d="m300.667 446.333.666.334-.666-.334z" style="fill:#6cafbb;stroke:none"/><path d="m0 511 1 1-1-1m511 0 1 1-1-1z" style="fill:#859fa5;stroke:none"/></svg>