<svg xmlns="http://www.w3.org/2000/svg" width="250" height="250" fill="none"><g clip-path="url(#a)"><path fill="#8039E9" d="M220.192 109.343H161.44c-3.357 0-5.915 3.427-4.716 6.615l14.149 36.499c.639 1.594-.64 3.347-2.398 3.268l-18.065-1.116c-.8-.08-1.599.319-2.079 1.036l-14.068 19.844a2.455 2.455 0 0 1-3.437.717L110.043 162.1a2.416 2.416 0 0 0-2.718 0l-28.776 19.445c-1.838 1.275-4.316-.478-3.677-2.63l7.994-28.61c.32-1.195-.24-2.39-1.439-2.868L66.16 141.22c-1.52-.637-1.999-2.47-.96-3.745l13.51-16.576c.639-.797.719-1.993.08-2.869l-11.351-16.337c-1.04-1.515-.08-3.587 1.838-3.746l17.585-1.355a2.41 2.41 0 0 0 2.239-2.55l-1.36-24.545c-.08-1.754 1.68-3.029 3.358-2.391l21.822 9.005c.959.399 2.078.16 2.718-.638l15.027-16.735c1.199-1.355 3.357-.956 4.077.638l9.032 23.19a4.825 4.825 0 0 0 7.354 1.993l35.331-26.22c3.996-2.948 1.438-9.324-3.517-8.606l-23.261 3.108a2.373 2.373 0 0 1-2.558-1.514l-12.23-31.32c-1.359-3.267-5.595-4.064-7.993-1.434l-26.618 28.769c-.719.717-1.759.956-2.718.558l-35.01-14.743a4.858 4.858 0 0 0-6.715 4.303l-1.279 36.02c-.08 1.275-1.04 2.232-2.238 2.311l-31.974 2.072c-3.756.24-5.755 4.463-3.677 7.492l21.263 31.239c.64.877.56 2.072-.16 2.949l-21.582 24.705a4.777 4.777 0 0 0 1.758 7.571l24.78 10.679c1.119.478 1.678 1.673 1.359 2.789L38.263 226.97c-1.12 4.383 3.837 7.731 7.514 5.101l59.47-42.556c.8-.558 1.919-.638 2.798 0l27.097 18.966c2.238 1.594 5.276.957 6.795-1.275l16.946-25.9c.479-.797 1.438-1.195 2.318-1.036l40.526 4.861c3.277.479 6.555-2.231 5.356-5.259l-16.866-43.513c-.48-1.195 0-2.47 1.438-3.188l30.775-14.504c4.556-2.311 2.957-9.324-2.238-9.324Z"/></g><defs><clipPath id="a"><path fill="#fff" d="M25 17h201v216H25z"/></clipPath></defs></svg>