<svg xmlns="http://www.w3.org/2000/svg" width="250" height="250" fill="none"><path fill="#4285F4" d="M3.15 98.743C3.15 81.82 17.38 68 34.362 68c9.37 0 16.045 3.69 21.08 8.49l-5.914 5.915c-3.572-3.396-8.49-5.973-15.166-5.973-12.356 0-22.018 9.955-22.018 22.311s9.662 22.311 22.018 22.311c8.022 0 12.59-3.221 15.518-6.149 2.4-2.401 3.982-5.856 4.567-10.54H34.362v-8.374h28.283c.293 1.522.469 3.279.469 5.27 0 6.324-1.698 14.112-7.261 19.617-5.388 5.621-12.298 8.608-21.433 8.608-17.04-.059-31.27-13.82-31.27-30.743Z"/><path fill="#DB4437" d="M85.892 89.9c-10.95 0-19.851 8.316-19.851 19.793 0 11.419 8.9 19.793 19.851 19.793 10.95 0 19.851-8.374 19.851-19.793 0-11.477-8.9-19.792-19.85-19.792Zm0 31.739c-5.973 0-11.184-4.919-11.184-12.004 0-7.144 5.153-12.005 11.184-12.005 5.973 0 11.185 4.861 11.185 12.005 0 7.085-5.212 12.004-11.185 12.004Z"/><path fill="#F4B400" d="M129.224 89.9c-10.95 0-19.851 8.316-19.851 19.793 0 11.419 8.901 19.793 19.851 19.793 10.951 0 19.851-8.374 19.851-19.793 0-11.477-8.9-19.792-19.851-19.792Zm0 31.739c-5.973 0-11.184-4.919-11.184-12.004 0-7.144 5.153-12.005 11.184-12.005 6.032 0 11.185 4.861 11.185 12.005 0 7.085-5.212 12.004-11.185 12.004Z"/><path fill="#4285F4" d="M182.398 91.072v3.22h-.293c-1.932-2.342-5.68-4.45-10.423-4.45-9.897 0-18.973 8.667-18.973 19.852 0 11.067 9.076 19.734 18.973 19.734 4.743 0 8.491-2.109 10.423-4.509h.293v2.869c0 7.554-4.041 11.594-10.541 11.594-5.328 0-8.608-3.806-9.954-7.027l-7.554 3.163c2.166 5.27 7.964 11.711 17.567 11.711 10.189 0 18.797-5.973 18.797-20.612V91.072h-8.315Zm-9.955 30.567c-5.973 0-11.009-5.036-11.009-11.945 0-6.969 5.036-12.063 11.009-12.063 5.914 0 10.54 5.094 10.54 12.063.059 6.968-4.626 11.945-10.54 11.945Z"/><path fill="#0F9D58" d="M205.352 70.108h-8.666v58.148h8.666V70.108Z"/><path fill="#DB4437" d="M229.183 121.639c-4.45 0-7.554-2.049-9.603-5.973l26.468-10.95-.878-2.225c-1.64-4.45-6.676-12.59-16.924-12.59-10.189 0-18.68 8.022-18.68 19.792 0 11.068 8.374 19.793 19.617 19.793 9.077 0 14.289-5.563 16.514-8.784l-6.734-4.509c-2.284 3.279-5.329 5.446-9.78 5.446Zm-.644-24.126c3.455 0 6.383 1.698 7.32 4.216l-17.685 7.32c-.234-7.612 5.915-11.536 10.365-11.536Z"/><path fill="#616161" d="M12.571 182.479c-1.972 0-3.886-.648-5.74-1.914-1.885-1.295-3.092-3.091-3.68-5.387l3.179-1.296c.383 1.472 1.148 2.738 2.326 3.739 1.177 1.031 2.473 1.531 3.944 1.531 1.502 0 2.797-.383 3.857-1.177 1.06-.795 1.59-1.855 1.59-3.209 0-1.502-.53-2.679-1.59-3.474-1.06-.825-2.767-1.59-5.064-2.267-2.384-.766-4.21-1.737-5.416-2.915-1.237-1.207-1.855-2.708-1.855-4.592 0-1.943.765-3.621 2.296-5.064 1.531-1.442 3.533-2.149 6.006-2.149 2.296 0 4.15.559 5.564 1.708 1.442 1.148 2.355 2.384 2.797 3.738l-3.18 1.325c-.235-.854-.795-1.648-1.678-2.384-.883-.736-2.031-1.09-3.444-1.09-1.325 0-2.473.383-3.415 1.119-.942.736-1.413 1.678-1.413 2.767 0 1.001.441 1.855 1.295 2.532.854.677 2.15 1.325 3.827 1.855 1.325.441 2.444.854 3.327 1.236a17.45 17.45 0 0 1 2.708 1.59c.913.677 1.62 1.501 2.061 2.473.471 1.001.707 2.149.707 3.444 0 1.296-.265 2.473-.825 3.504-.53 1.03-1.266 1.854-2.149 2.443a11.336 11.336 0 0 1-2.885 1.384c-1.03.383-2.09.53-3.15.53Zm20.342 0c-2.797 0-5.064-.942-6.8-2.797-1.738-1.855-2.62-4.21-2.62-7.036 0-2.679.853-5.005 2.531-6.948 1.707-1.943 3.857-2.914 6.506-2.914 2.738 0 4.917.883 6.565 2.679 1.649 1.796 2.473 4.18 2.473 7.154l-.03.647H26.967c.088 1.855.736 3.327 1.855 4.416 1.148 1.09 2.473 1.619 4.004 1.619 2.472 0 4.18-1.059 5.063-3.179l3.091 1.295c-.588 1.443-1.59 2.62-2.973 3.592-1.384 1.001-3.062 1.472-5.093 1.472Zm4.975-12.041c-.088-1.06-.56-2.061-1.442-3.003-.884-.942-2.208-1.442-3.975-1.442-1.295 0-2.384.412-3.326 1.207-.942.795-1.59 1.884-1.943 3.238h10.686Zm11.894 12.041c-1.973 0-3.592-.559-4.917-1.708-1.325-1.118-1.972-2.62-1.972-4.474 0-2.002.765-3.592 2.325-4.74 1.56-1.148 3.474-1.708 5.77-1.708 2.032 0 3.71.383 5.005 1.119v-.53c0-1.354-.47-2.443-1.384-3.268-.942-.824-2.06-1.236-3.414-1.236-1.001 0-1.914.235-2.738.706-.825.471-1.384 1.119-1.678 1.973l-3.18-1.354c.412-1.119 1.266-2.12 2.532-3.062 1.266-.942 2.914-1.413 4.975-1.413 2.355 0 4.328.677 5.888 2.061 1.56 1.383 2.326 3.326 2.326 5.829v11.216h-3.327v-2.561h-.147c-1.384 2.12-3.415 3.15-6.064 3.15Zm.559-3.15c1.442 0 2.738-.53 3.886-1.59 1.177-1.06 1.766-2.326 1.766-3.798-.971-.794-2.443-1.207-4.416-1.207-1.678 0-2.944.354-3.797 1.09-.854.736-1.296 1.589-1.296 2.561 0 .913.383 1.619 1.178 2.149.795.53 1.678.795 2.679.795Zm15.75 2.561h-3.474v-18.458h3.327v3.002h.147c.353-1.001 1.06-1.825 2.179-2.473 1.089-.647 2.149-.971 3.18-.971 1.03 0 1.883.147 2.59.442l-1.325 3.238c-.442-.177-1.06-.265-1.855-.265-1.266 0-2.355.5-3.326 1.501-.972 1.001-1.443 2.297-1.443 3.886v10.098Zm17.106.589c-2.768 0-5.035-.942-6.83-2.797-1.796-1.884-2.68-4.21-2.68-7.036 0-2.826.884-5.152 2.68-7.036 1.795-1.884 4.062-2.797 6.83-2.797 2.06 0 3.768.5 5.122 1.501s2.355 2.267 2.973 3.798l-3.18 1.325c-.941-2.326-2.678-3.474-5.151-3.474-1.53 0-2.885.618-4.063 1.884-1.177 1.266-1.766 2.856-1.766 4.799 0 1.943.589 3.533 1.766 4.798 1.178 1.266 2.532 1.885 4.063 1.885 2.59 0 4.357-1.149 5.358-3.474l3.091 1.325c-.618 1.501-1.648 2.767-3.032 3.797-1.413 1.001-3.12 1.502-5.181 1.502Zm13.777-27.556v8.508l-.147 2.561h.147c.5-.883 1.295-1.619 2.385-2.237a6.89 6.89 0 0 1 3.473-.913c2.297 0 4.034.707 5.241 2.12 1.207 1.413 1.795 3.297 1.795 5.652v11.276h-3.473v-10.775c0-3.415-1.531-5.123-4.564-5.123-1.442 0-2.59.56-3.503 1.708-.913 1.148-1.354 2.473-1.354 3.974v10.216H93.5v-26.967h3.474Zm33.68 27.556c-3.974 0-7.301-1.355-9.98-4.034-2.679-2.679-4.033-6.035-4.033-10.068 0-4.033 1.354-7.36 4.033-10.068 2.679-2.679 6.006-4.034 9.98-4.034 4.063 0 7.36 1.472 9.921 4.416l-2.414 2.326c-1.825-2.296-4.328-3.415-7.507-3.415-2.944 0-5.417 1.001-7.448 2.974-2.032 1.972-3.033 4.592-3.033 7.801 0 3.209 1.001 5.829 3.033 7.802 2.031 1.972 4.504 2.973 7.448 2.973 3.238 0 6.006-1.295 8.302-3.916l2.414 2.415c-1.237 1.471-2.767 2.649-4.622 3.532-1.884.883-3.916 1.296-6.094 1.296Zm14.718-16.84c1.796-1.884 4.063-2.796 6.83-2.796 2.768 0 5.035.942 6.83 2.796 1.796 1.884 2.679 4.21 2.679 7.036 0 2.827-.883 5.152-2.679 7.036-1.795 1.885-4.062 2.797-6.83 2.797-2.767 0-5.034-.942-6.83-2.797-1.795-1.884-2.679-4.209-2.679-7.036 0-2.826.884-5.181 2.679-7.036Zm2.562 11.865c1.207 1.207 2.62 1.825 4.239 1.825 1.619 0 3.032-.618 4.239-1.825 1.207-1.208 1.796-2.827 1.796-4.829 0-2.001-.589-3.621-1.796-4.828-1.207-1.207-2.62-1.825-4.239-1.825-1.619 0-3.032.618-4.239 1.825-1.207 1.207-1.796 2.827-1.796 4.828.029 2.002.618 3.592 1.796 4.829Zm19.52-14.073v2.562h.147c.5-.884 1.295-1.62 2.384-2.238a6.893 6.893 0 0 1 3.474-.912c2.297 0 4.034.706 5.241 2.119 1.207 1.413 1.795 3.297 1.795 5.653v11.275h-3.473v-10.775c0-3.415-1.531-5.122-4.564-5.122-1.442 0-2.59.559-3.503 1.707-.913 1.148-1.354 2.473-1.354 3.974v10.216h-3.474v-18.459h3.327Zm23.14 19.048c-2.061 0-3.769-.501-5.093-1.502a8.743 8.743 0 0 1-2.944-3.768l3.091-1.295c.971 2.325 2.649 3.474 5.005 3.474 1.089 0 1.972-.236 2.649-.707s1.03-1.119 1.03-1.884c0-1.207-.853-2.031-2.531-2.444l-3.739-.912c-1.178-.295-2.296-.883-3.356-1.708-1.06-.853-1.59-1.972-1.59-3.415 0-1.619.736-2.944 2.179-3.974 1.442-1.03 3.15-1.531 5.151-1.531 1.62 0 3.092.383 4.358 1.119 1.295.736 2.207 1.796 2.737 3.179l-3.002 1.237c-.678-1.619-2.091-2.444-4.21-2.444-1.031 0-1.884.206-2.591.648-.707.441-1.06 1.001-1.06 1.737 0 1.06.824 1.766 2.444 2.149l3.65.854c1.737.412 3.003 1.089 3.857 2.06.824.972 1.236 2.091 1.236 3.327 0 1.649-.677 3.032-2.031 4.151-1.354 1.119-3.121 1.649-5.24 1.649Zm11.245-16.84c1.796-1.884 4.063-2.796 6.83-2.796 2.767 0 5.034.942 6.83 2.796 1.796 1.884 2.679 4.21 2.679 7.036 0 2.827-.883 5.152-2.679 7.036-1.796 1.885-4.063 2.797-6.83 2.797-2.767 0-5.034-.942-6.83-2.797-1.796-1.884-2.679-4.209-2.679-7.036 0-2.826.883-5.181 2.679-7.036Zm2.591 11.865c1.207 1.207 2.62 1.825 4.239 1.825 1.619 0 3.032-.618 4.239-1.825 1.207-1.208 1.796-2.827 1.796-4.829 0-2.001-.589-3.621-1.796-4.828-1.207-1.207-2.62-1.825-4.239-1.825-1.619 0-3.032.618-4.239 1.825-1.207 1.207-1.796 2.827-1.796 4.828 0 2.002.589 3.592 1.796 4.829Zm19.696 4.386h-3.474v-26.967h3.474v26.967Zm11.922.589c-2.797 0-5.064-.943-6.801-2.797-1.737-1.855-2.62-4.21-2.62-7.036 0-2.679.854-5.005 2.532-6.948 1.707-1.943 3.856-2.915 6.506-2.915 2.738 0 4.916.884 6.565 2.679 1.649 1.796 2.473 4.181 2.473 7.154l-.03.648h-14.572c.088 1.855.736 3.327 1.855 4.416 1.148 1.089 2.472 1.619 4.003 1.619 2.473 0 4.181-1.06 5.064-3.179l3.091 1.295c-.589 1.442-1.59 2.62-2.973 3.592-1.384 1.001-3.091 1.472-5.093 1.472Zm4.975-12.041c-.088-1.06-.559-2.061-1.443-3.003-.883-.942-2.208-1.443-3.974-1.443-1.295 0-2.385.413-3.327 1.207-.942.795-1.589 1.885-1.943 3.239h10.687Z"/></svg>