<svg xmlns="http://www.w3.org/2000/svg" width="250" height="250" fill="none"><g clip-path="url(#a)"><path fill="url(#b)" d="m66.533 207.449-42.747-74.003a18.706 18.706 0 0 1 0-18.715l42.747-74.002a18.722 18.722 0 0 1 16.22-9.358h85.494a18.735 18.735 0 0 1 16.217 9.358l42.748 74.002a18.715 18.715 0 0 1 0 18.717l-42.748 74.001a18.73 18.73 0 0 1-16.217 9.357H82.753a18.724 18.724 0 0 1-16.22-9.358v.001Z"/><path fill="#000" d="m218.412 149.447-51.844-51.812-9.539 1.975-23.781-23.766-7.61 14.224-4.126 16.453 6.984 6.983-13.415 2.737-18.395-18.385-12.49 12 22.998 22.99-24.378 19.368 65.453 65.416 31.887-.309 38.256-67.874Z" opacity=".07"/><path fill="#fff" d="M160.543 112.534c4.788 0 8.67-3.88 8.67-8.666 0-4.785-3.882-8.665-8.67-8.665s-8.67 3.88-8.67 8.665c0 4.786 3.882 8.666 8.67 8.666Zm-70.086 0c4.788 0 8.67-3.88 8.67-8.666 0-4.785-3.882-8.665-8.67-8.665s-8.67 3.88-8.67 8.665c0 4.786 3.882 8.666 8.67 8.666Zm35.045 60.666c4.789 0 8.671-3.88 8.671-8.667 0-4.786-3.882-8.667-8.671-8.667-4.79 0-8.672 3.881-8.672 8.667 0 4.787 3.882 8.667 8.672 8.667Zm-.002-35.11c7.737 0 14.008-6.268 14.008-14.001 0-7.732-6.271-14-14.008-14-7.736 0-14.008 6.268-14.008 14 0 7.733 6.272 14.001 14.008 14.001Zm-35.044 17.22c6.078 0 11.005-4.925 11.005-10.999 0-6.075-4.927-11-11.005-11-6.078 0-11.005 4.925-11.005 11 0 6.074 4.927 10.999 11.005 10.999Zm70.088 0c6.078 0 11.005-4.925 11.005-10.999 0-6.075-4.927-11-11.005-11-6.078 0-11.005 4.925-11.005 11 0 6.074 4.927 10.999 11.005 10.999Zm-35.043-60.664c6.079 0 11.007-4.925 11.007-11 0-6.076-4.928-11.001-11.007-11.001s-11.007 4.925-11.007 11c0 6.076 4.928 11.001 11.007 11.001Z"/></g><defs><linearGradient id="b" x1="125.5" x2="125.5" y1="31.372" y2="216.518" gradientUnits="userSpaceOnUse"><stop stop-color="#4387FD"/><stop offset="1" stop-color="#4683EA"/></linearGradient><clipPath id="a"><path fill="#fff" d="M21 31h209v187H21z"/></clipPath></defs></svg>