<svg xmlns="http://www.w3.org/2000/svg" width="2500" height="2500" viewBox="0 0 512 520.331"><g fill="none" fill-rule="evenodd"><path fill="#def" d="M0 106.667h512v320H0z"/><path fill="#bdf" d="M512 106.667H0V42.56C0 19.055 19.137 0 42.772 0h426.456C492.85 0 512 19.032 512 42.56z"/><path fill="#fff" d="M128 74.667c-11.782 0-21.333-9.552-21.333-21.334S116.217 32 128 32s21.333 9.551 21.333 21.333c0 11.782-9.55 21.334-21.333 21.334zm-74.667 0C41.551 74.667 32 65.115 32 53.333S41.551 32 53.333 32c11.782 0 21.334 9.551 21.334 21.333 0 11.782-9.552 21.334-21.334 21.334z"/><path fill="#06f" d="M85.333 426.667H0c0-65.516 24.994-131.033 74.98-181.02 99.975-99.974 262.065-99.974 362.04 0l-60.34 60.34C345.795 275.103 303.128 256 256 256c-94.257 0-170.667 76.41-170.667 170.667z"/><path fill="#c6f" d="M426.667 426.667H512c0-65.516-24.994-131.033-74.98-181.02l-60.34 60.34c30.884 30.885 49.987 73.551 49.987 120.68z"/><path fill="#6cf" d="M195.66 487.006c-33.325-33.324-33.325-87.354 0-120.68 33.325-33.324 218.732-98.051 218.732-98.051s-64.727 185.407-98.052 218.731c-33.325 33.325-87.355 33.325-120.68 0z"/><path fill="#06f" d="M256 469.333c-23.564 0-42.667-19.102-42.667-42.666C213.333 403.103 232.436 384 256 384s42.667 19.103 42.667 42.667-19.103 42.666-42.667 42.666z"/></g></svg>