<svg xmlns="http://www.w3.org/2000/svg" width="2500" height="2500" viewBox="-1.633 7.033 131.266 114.439"><linearGradient id="a" x1="64" x2="64" y1="7.034" y2="120.789" gradientUnits="userSpaceOnUse"><stop offset="0" stop-color="#4387fd"/><stop offset="1" stop-color="#4683ea"/></linearGradient><path fill="url(#a)" d="M27.79 115.217 1.54 69.749a11.499 11.499 0 0 1 0-11.499l26.25-45.467a11.5 11.5 0 0 1 9.96-5.75h52.5a11.5 11.5 0 0 1 9.959 5.75l26.25 45.467a11.499 11.499 0 0 1 0 11.5l-26.25 45.467a11.5 11.5 0 0 1-9.959 5.749h-52.5a11.499 11.499 0 0 1-9.96-5.75z"/><path d="M121.054 79.58 89.218 47.746 83.36 48.96 68.757 34.358l-4.673 8.739-2.534 10.109 4.289 4.29-8.238 1.682-11.296-11.296-7.67 7.373L52.758 69.38l-14.97 11.9 40.193 40.192 19.581-.19z" opacity=".07"/><g fill="#fff"><circle cx="85.519" cy="51.576" r="5.324"/><circle cx="42.48" cy="51.576" r="5.324"/><circle cx="64" cy="88.849" r="5.325"/><circle cx="64" cy="64" r="8.602"/><circle cx="42.48" cy="76.424" r="6.758"/><circle cx="85.519" cy="76.424" r="6.758"/><circle cx="64" cy="39.151" r="6.759"/></g></svg>