<svg width="250" height="250" viewBox="0 0 250 250" fill="none" xmlns="http://www.w3.org/2000/svg">
<g clip-path="url(#clip0_2_7319)">
<path d="M61.7236 152.091L105.614 76.0026L143.645 97.9795L99.7606 174.068L61.7236 152.091Z" fill="#FBBC04"/>
<path d="M187.903 151.826L143.986 75.7106C138.317 64.979 125.032 60.879 114.31 66.5531C103.587 72.2271 99.4961 85.5225 105.16 96.254C105.409 96.7246 105.673 97.1844 105.955 97.6388L149.872 173.755C155.795 184.346 169.177 188.126 179.759 182.198C190.341 176.27 194.118 162.877 188.195 152.286C188.098 152.113 188.001 151.945 187.903 151.778V151.826Z" fill="#4285F4"/>
<path d="M80.9586 184.886C93.0859 184.886 102.917 175.047 102.917 162.91C102.917 150.772 93.0859 140.933 80.9586 140.933C68.8312 140.933 59 150.772 59 162.91C59 175.047 68.8312 184.886 80.9586 184.886Z" fill="#34A853"/>
</g>
<defs>
<clipPath id="clip0_2_7319">
<rect width="132" height="121" fill="white" transform="translate(59 64)"/>
</clipPath>
</defs>
</svg>
