<svg width="250" height="250" viewBox="0 0 250 250" fill="none" xmlns="http://www.w3.org/2000/svg">
<path d="M38.168 106.387C38.168 94.3432 48.2947 84.5082 60.3802 84.5082C67.048 84.5082 71.7988 87.1336 75.3828 90.5509L71.1737 94.76C68.6316 92.3429 65.131 90.5092 60.3802 90.5092C51.587 90.5092 44.7108 97.5938 44.7108 106.387C44.7108 115.18 51.587 122.265 60.3802 122.265C66.0895 122.265 69.3401 119.973 71.4238 117.889C73.1324 116.18 74.2576 113.722 74.6743 110.388H60.3802V104.428H80.5087C80.717 105.512 80.8421 106.762 80.8421 108.179C80.8421 112.68 79.6335 118.222 75.6745 122.14C71.8405 126.14 66.923 128.266 60.4218 128.266C48.2947 128.224 38.168 118.431 38.168 106.387Z" fill="#4285F4"/>
<path d="M97.0532 100.094C89.2602 100.094 82.9258 106.012 82.9258 114.18C82.9258 122.306 89.2602 128.266 97.0532 128.266C104.846 128.266 111.181 122.306 111.181 114.18C111.181 106.012 104.846 100.094 97.0532 100.094ZM97.0532 122.681C92.8025 122.681 89.0935 119.181 89.0935 114.138C89.0935 109.054 92.7608 105.595 97.0532 105.595C101.304 105.595 105.013 109.054 105.013 114.138C105.013 119.181 101.304 122.681 97.0532 122.681Z" fill="#DB4437"/>
<path d="M127.891 100.094C120.098 100.094 113.764 106.012 113.764 114.18C113.764 122.306 120.098 128.266 127.891 128.266C135.684 128.266 142.019 122.306 142.019 114.18C142.019 106.012 135.684 100.094 127.891 100.094ZM127.891 122.681C123.64 122.681 119.931 119.181 119.931 114.138C119.931 109.054 123.599 105.595 127.891 105.595C132.184 105.595 135.851 109.054 135.851 114.138C135.851 119.181 132.142 122.681 127.891 122.681Z" fill="#F4B400"/>
<path d="M165.732 100.928V103.22H165.524C164.149 101.553 161.481 100.053 158.106 100.053C151.063 100.053 144.604 106.22 144.604 114.18C144.604 122.056 151.063 128.224 158.106 128.224C161.481 128.224 164.149 126.724 165.524 125.015H165.732V127.057C165.732 132.433 162.857 135.309 158.231 135.309C154.439 135.309 152.105 132.6 151.146 130.308L145.77 132.558C147.312 136.309 151.438 140.893 158.273 140.893C165.524 140.893 171.65 136.642 171.65 126.224V100.928H165.732ZM158.648 122.682C154.397 122.682 150.813 119.098 150.813 114.18C150.813 109.221 154.397 105.595 158.648 105.595C162.857 105.595 166.149 109.221 166.149 114.18C166.191 119.139 162.857 122.682 158.648 122.682Z" fill="#4285F4"/>
<path d="M182.068 86.0083H175.9V127.391H182.068V86.0083Z" fill="#0F9D58"/>
<path d="M199.029 122.681C195.862 122.681 193.653 121.223 192.195 118.431L211.031 110.638L210.406 109.054C209.239 105.887 205.655 100.094 198.362 100.094C191.111 100.094 185.068 105.803 185.068 114.18C185.068 122.056 191.028 128.266 199.029 128.266C205.489 128.266 209.198 124.307 210.781 122.015L205.989 118.806C204.363 121.139 202.196 122.681 199.029 122.681ZM198.571 105.512C201.029 105.512 203.113 106.72 203.78 108.512L191.194 113.722C191.028 108.304 195.403 105.512 198.571 105.512Z" fill="#DB4437"/>
<path d="M44.8724 165.979C43.4686 165.979 42.1068 165.518 40.7869 164.617C39.446 163.695 38.587 162.417 38.168 160.783L40.4307 159.861C40.7031 160.909 41.2478 161.81 42.0859 162.522C42.9239 163.256 43.8458 163.612 44.8933 163.612C45.9618 163.612 46.8837 163.339 47.6379 162.774C48.3922 162.208 48.7693 161.454 48.7693 160.49C48.7693 159.421 48.3922 158.583 47.6379 158.018C46.8837 157.431 45.6685 156.886 44.0343 156.404C42.3373 155.86 41.0383 155.168 40.1793 154.33C39.2993 153.471 38.8594 152.403 38.8594 151.062C38.8594 149.679 39.4041 148.485 40.4936 147.458C41.583 146.432 43.0077 145.929 44.7676 145.929C46.4018 145.929 47.7217 146.327 48.7274 147.144C49.754 147.961 50.4035 148.841 50.7178 149.805L48.455 150.748C48.2874 150.14 47.8894 149.574 47.2608 149.051C46.6323 148.527 45.8152 148.275 44.8095 148.275C43.8667 148.275 43.0496 148.548 42.3792 149.072C41.7087 149.595 41.3735 150.266 41.3735 151.041C41.3735 151.753 41.6878 152.361 42.2954 152.843C42.903 153.325 43.8248 153.786 45.019 154.163C45.9618 154.477 46.758 154.77 47.3865 155.043C48.0151 155.336 48.6645 155.713 49.314 156.174C49.9635 156.656 50.4664 157.242 50.7806 157.934C51.1158 158.646 51.2835 159.463 51.2835 160.385C51.2835 161.307 51.0949 162.145 50.6968 162.878C50.3197 163.612 49.7959 164.198 49.1674 164.617C48.5388 165.036 47.8474 165.372 47.1142 165.602C46.3809 165.874 45.6266 165.979 44.8724 165.979Z" fill="#616161"/>
<path d="M59.3489 165.979C57.3586 165.979 55.7453 165.309 54.5092 163.989C53.2731 162.669 52.6445 160.993 52.6445 158.982C52.6445 157.075 53.2521 155.42 54.4463 154.037C55.6615 152.654 57.191 151.963 59.0766 151.963C61.025 151.963 62.5754 152.591 63.7487 153.869C64.922 155.147 65.5086 156.845 65.5086 158.961L65.4877 159.422H55.1168C55.1796 160.741 55.6406 161.789 56.4367 162.564C57.2538 163.339 58.1966 163.717 59.2861 163.717C61.046 163.717 62.2612 162.962 62.8897 161.454L65.0896 162.376C64.6706 163.402 63.9582 164.24 62.9735 164.932C61.9888 165.644 60.7946 165.979 59.3489 165.979ZM62.8897 157.41C62.8268 156.656 62.4916 155.944 61.8631 155.273C61.2345 154.603 60.2917 154.247 59.0347 154.247C58.1128 154.247 57.3376 154.54 56.6672 155.106C55.9967 155.671 55.5358 156.446 55.2844 157.41H62.8897Z" fill="#616161"/>
<path d="M71.3538 165.979C69.95 165.979 68.7977 165.581 67.8549 164.764C66.9121 163.968 66.4512 162.899 66.4512 161.58C66.4512 160.155 66.9959 159.023 68.1063 158.206C69.2167 157.389 70.5786 156.991 72.2128 156.991C73.6584 156.991 74.8526 157.264 75.7745 157.787V157.41C75.7745 156.446 75.4393 155.671 74.7898 155.085C74.1193 154.498 73.3232 154.205 72.3594 154.205C71.6471 154.205 70.9976 154.372 70.411 154.707C69.8243 155.043 69.4263 155.504 69.2167 156.111L66.954 155.147C67.2473 154.351 67.8549 153.639 68.7558 152.969C69.6567 152.298 70.83 151.963 72.2966 151.963C73.9727 151.963 75.3764 152.445 76.4868 153.429C77.5972 154.414 78.142 155.797 78.142 157.578V165.56H75.7745V163.737H75.6697C74.685 165.246 73.2394 165.979 71.3538 165.979ZM71.7518 163.737C72.7785 163.737 73.7003 163.36 74.5174 162.606C75.3555 161.852 75.7745 160.951 75.7745 159.903C75.0831 159.338 74.0355 159.044 72.6318 159.044C71.4376 159.044 70.5367 159.296 69.9291 159.82C69.3215 160.343 69.0072 160.951 69.0072 161.642C69.0072 162.292 69.2796 162.795 69.8453 163.172C70.411 163.549 71.0395 163.737 71.7518 163.737Z" fill="#616161"/>
<path d="M82.9605 165.56H80.4883V152.424H82.8558V154.561H82.9605C83.2119 153.849 83.7148 153.262 84.5109 152.801C85.2861 152.34 86.0404 152.11 86.7737 152.11C87.507 152.11 88.1145 152.214 88.6174 152.424L87.6746 154.729C87.3603 154.603 86.9203 154.54 86.3546 154.54C85.4537 154.54 84.6785 154.896 83.9871 155.608C83.2958 156.321 82.9605 157.243 82.9605 158.374V165.56Z" fill="#616161"/>
<path d="M95.1344 165.979C93.165 165.979 91.5518 165.309 90.2738 163.989C88.9957 162.648 88.3672 160.993 88.3672 158.981C88.3672 156.97 88.9957 155.315 90.2738 153.974C91.5518 152.633 93.165 151.984 95.1344 151.984C96.601 151.984 97.8162 152.34 98.78 153.052C99.7437 153.764 100.456 154.665 100.896 155.755L98.6333 156.698C97.9629 155.043 96.7267 154.225 94.9668 154.225C93.8774 154.225 92.9136 154.665 92.0756 155.566C91.2375 156.467 90.8185 157.599 90.8185 158.981C90.8185 160.364 91.2375 161.495 92.0756 162.396C92.9136 163.297 93.8774 163.737 94.9668 163.737C96.8105 163.737 98.0676 162.92 98.78 161.265L100.98 162.208C100.54 163.276 99.8066 164.177 98.8219 164.911C97.8162 165.623 96.601 165.979 95.1344 165.979Z" fill="#616161"/>
<path d="M104.939 146.369V152.424L104.834 154.246H104.939C105.295 153.618 105.861 153.094 106.636 152.654C107.411 152.214 108.228 152.005 109.108 152.005C110.743 152.005 111.979 152.507 112.838 153.513C113.697 154.519 114.116 155.86 114.116 157.536V165.56H111.643V157.892C111.643 155.462 110.554 154.246 108.396 154.246C107.369 154.246 106.552 154.644 105.903 155.462C105.253 156.279 104.939 157.221 104.939 158.29V165.56H102.467V146.369H104.939Z" fill="#616161"/>
<path d="M128.908 165.979C126.08 165.979 123.712 165.015 121.806 163.109C119.899 161.202 118.936 158.814 118.936 155.943C118.936 153.073 119.899 150.706 121.806 148.778C123.712 146.872 126.08 145.908 128.908 145.908C131.8 145.908 134.146 146.955 135.969 149.05L134.251 150.706C132.952 149.071 131.171 148.275 128.908 148.275C126.813 148.275 125.053 148.988 123.608 150.391C122.162 151.795 121.45 153.66 121.45 155.943C121.45 158.227 122.162 160.092 123.608 161.496C125.053 162.899 126.813 163.612 128.908 163.612C131.213 163.612 133.182 162.69 134.817 160.825L136.535 162.543C135.655 163.591 134.565 164.429 133.245 165.057C131.904 165.686 130.459 165.979 128.908 165.979Z" fill="#616161"/>
<path d="M139.383 153.995C140.661 152.654 142.274 152.005 144.244 152.005C146.213 152.005 147.826 152.675 149.105 153.995C150.383 155.336 151.011 156.991 151.011 159.002C151.011 161.014 150.383 162.669 149.105 164.01C147.826 165.351 146.213 166 144.244 166C142.274 166 140.661 165.33 139.383 164.01C138.105 162.669 137.477 161.014 137.477 159.002C137.477 156.991 138.105 155.315 139.383 153.995ZM141.206 162.438C142.065 163.297 143.071 163.737 144.223 163.737C145.375 163.737 146.381 163.297 147.24 162.438C148.099 161.579 148.518 160.427 148.518 159.002C148.518 157.578 148.099 156.425 147.24 155.566C146.381 154.707 145.375 154.267 144.223 154.267C143.071 154.267 142.065 154.707 141.206 155.566C140.347 156.425 139.928 157.578 139.928 159.002C139.949 160.427 140.368 161.558 141.206 162.438Z" fill="#616161"/>
<path d="M155.098 152.424V154.246H155.203C155.559 153.618 156.125 153.094 156.9 152.654C157.675 152.214 158.492 152.005 159.372 152.005C161.006 152.005 162.242 152.508 163.101 153.513C163.96 154.519 164.379 155.86 164.379 157.536V165.56H161.907V157.892C161.907 155.462 160.818 154.246 158.66 154.246C157.633 154.246 156.816 154.645 156.166 155.462C155.517 156.279 155.203 157.222 155.203 158.29V165.56H152.73V152.424H155.098Z" fill="#616161"/>
<path d="M171.565 165.979C170.099 165.979 168.884 165.623 167.941 164.911C166.977 164.198 166.286 163.297 165.846 162.229L168.046 161.307C168.737 162.962 169.931 163.779 171.607 163.779C172.382 163.779 173.011 163.612 173.493 163.276C173.975 162.941 174.226 162.48 174.226 161.936C174.226 161.077 173.619 160.49 172.424 160.197L169.764 159.547C168.926 159.338 168.129 158.919 167.375 158.332C166.621 157.724 166.244 156.928 166.244 155.902C166.244 154.749 166.768 153.806 167.794 153.073C168.821 152.34 170.036 151.984 171.461 151.984C172.613 151.984 173.661 152.256 174.561 152.78C175.483 153.304 176.133 154.058 176.51 155.043L174.373 155.923C173.891 154.77 172.885 154.184 171.377 154.184C170.644 154.184 170.036 154.33 169.533 154.644C169.03 154.959 168.779 155.357 168.779 155.881C168.779 156.635 169.366 157.138 170.518 157.41L173.116 158.018C174.352 158.311 175.253 158.793 175.86 159.484C176.447 160.176 176.74 160.972 176.74 161.852C176.74 163.025 176.258 164.01 175.295 164.806C174.331 165.602 173.074 165.979 171.565 165.979Z" fill="#616161"/>
<path d="M179.569 153.995C180.847 152.654 182.46 152.005 184.429 152.005C186.399 152.005 188.012 152.675 189.29 153.995C190.568 155.336 191.197 156.991 191.197 159.002C191.197 161.014 190.568 162.669 189.29 164.01C188.012 165.351 186.399 166 184.429 166C182.46 166 180.847 165.33 179.569 164.01C178.291 162.669 177.662 161.014 177.662 159.002C177.662 156.991 178.291 155.315 179.569 153.995ZM181.412 162.438C182.271 163.297 183.277 163.737 184.429 163.737C185.582 163.737 186.587 163.297 187.446 162.438C188.305 161.579 188.724 160.427 188.724 159.002C188.724 157.578 188.305 156.425 187.446 155.566C186.587 154.707 185.582 154.267 184.429 154.267C183.277 154.267 182.271 154.707 181.412 155.566C180.553 156.425 180.134 157.578 180.134 159.002C180.134 160.427 180.553 161.558 181.412 162.438Z" fill="#616161"/>
<path d="M195.429 165.56H192.957V146.369H195.429V165.56Z" fill="#616161"/>
<path d="M203.913 165.979C201.923 165.979 200.31 165.309 199.074 163.989C197.838 162.669 197.209 160.993 197.209 158.981C197.209 157.075 197.817 155.42 199.011 154.037C200.226 152.654 201.755 151.963 203.641 151.963C205.589 151.963 207.14 152.591 208.313 153.869C209.486 155.147 210.073 156.844 210.073 158.96L210.052 159.421H199.681C199.744 160.741 200.205 161.789 201.001 162.564C201.818 163.339 202.761 163.716 203.851 163.716C205.61 163.716 206.826 162.962 207.454 161.454L209.654 162.375C209.235 163.402 208.523 164.24 207.538 164.931C206.553 165.644 205.338 165.979 203.913 165.979ZM207.454 157.41C207.391 156.656 207.056 155.943 206.428 155.273C205.799 154.603 204.856 154.246 203.599 154.246C202.677 154.246 201.902 154.54 201.232 155.105C200.561 155.671 200.1 156.446 199.849 157.41H207.454Z" fill="#616161"/>
</svg>
