<svg width="250" height="250" viewBox="0 0 250 250" fill="none" xmlns="http://www.w3.org/2000/svg">
<path d="M173.836 185.114C173.835 187.153 173.03 189.108 171.599 190.55C170.167 191.992 168.227 192.803 166.203 192.804H84.7546C82.7306 192.804 80.7894 191.995 79.3571 190.554C77.9247 189.114 77.1185 187.159 77.1152 185.12V65.009C77.1144 63.998 77.3115 62.9968 77.6951 62.0626C78.0788 61.1284 78.6414 60.2795 79.351 59.5647C80.0605 58.8498 80.903 58.2829 81.8302 57.8963C82.7574 57.5098 83.7512 57.3113 84.7546 57.3121H137.026L173.836 95.1347V185.114Z" fill="#23A566"/>
<path d="M141.076 94.148L173.835 125.696V94.914H144.817C143.55 94.9285 142.301 94.6118 141.192 93.9948L141.076 94.148Z" fill="#1C8F5A"/>
<path d="M173.837 95.0734H144.739C142.715 95.0717 140.774 94.2609 139.343 92.819C137.912 91.377 137.107 89.4218 137.105 87.3826V57.1037L173.837 95.0734Z" fill="#8ED1B1"/>
<path fill-rule="evenodd" clip-rule="evenodd" d="M150.548 167.826H100.217V123.857H150.548V167.826ZM128.512 130.2V137.896H144.362V130.212L128.512 130.2ZM128.512 142.744V150.098H144.362V142.707L128.512 142.744ZM128.512 154.786V161.594H144.362V154.749L128.512 154.786ZM122.29 161.557V154.749H106.445V161.557H122.29ZM122.29 150.018V142.707H106.445V150.055L122.29 150.018ZM122.29 137.976V130.2H106.445V137.896L122.29 137.976Z" fill="white"/>
</svg>
