<svg xmlns="http://www.w3.org/2000/svg" width="224" height="24"><g fill="none" fill-rule="nonzero"><g fill="#616161"><path d="M84.23 18.53c-1.183 0-2.33-.389-3.442-1.148-1.13-.776-1.853-1.853-2.206-3.23l1.906-.776c.23.883.688 1.642 1.394 2.242.706.617 1.483.917 2.365.917.9 0 1.677-.23 2.312-.706.635-.476.953-1.111.953-1.923 0-.9-.318-1.606-.953-2.082-.635-.495-1.659-.953-3.035-1.36-1.43-.458-2.524-1.04-3.248-1.746-.74-.724-1.111-1.624-1.111-2.753 0-1.165.459-2.17 1.376-3.036.918-.864 2.118-1.288 3.6-1.288 1.377 0 2.488.335 3.335 1.024.865.688 1.412 1.43 1.677 2.24l-1.906.795c-.141-.512-.476-.988-1.006-1.43-.53-.44-1.217-.652-2.065-.652-.794 0-1.482.23-2.047.67-.564.441-.847 1.006-.847 1.66 0 .6.265 1.11.777 1.517.512.406 1.288.794 2.294 1.111.794.265 1.465.512 1.994.742.53.247 1.077.564 1.624.953.547.405.97.9 1.235 1.482.282.6.423 1.288.423 2.065 0 .776-.158 1.482-.494 2.1a3.86 3.86 0 0 1-1.288 1.464 6.795 6.795 0 0 1-1.73.83 5.376 5.376 0 0 1-1.888.317ZM96.424 18.53c-1.677 0-3.036-.565-4.077-1.677s-1.57-2.524-1.57-4.218c0-1.606.511-3 1.517-4.164 1.024-1.165 2.312-1.747 3.9-1.747 1.641 0 2.947.529 3.935 1.605.989 1.077 1.483 2.506 1.483 4.289l-.018.388H92.86c.053 1.112.441 1.994 1.112 2.647.688.653 1.482.97 2.4.97 1.482 0 2.505-.635 3.035-1.905l1.853.776c-.353.865-.953 1.57-1.783 2.153-.829.6-1.835.882-3.052.882Zm2.982-7.218c-.053-.636-.335-1.236-.865-1.8-.53-.565-1.323-.865-2.382-.865-.777 0-1.43.247-1.994.724-.565.476-.953 1.129-1.165 1.94h6.406ZM106.535 18.53c-1.182 0-2.153-.336-2.947-1.024-.794-.67-1.182-1.57-1.182-2.682 0-1.2.459-2.153 1.394-2.842.935-.688 2.082-1.023 3.459-1.023 1.217 0 2.223.23 3 .67v-.317c0-.812-.283-1.465-.83-1.96-.564-.493-1.235-.74-2.047-.74-.6 0-1.147.14-1.64.423-.495.283-.83.67-1.007 1.183l-1.906-.812c.247-.67.76-1.27 1.518-1.835.759-.565 1.747-.847 2.982-.847 1.412 0 2.595.405 3.53 1.235.935.83 1.394 1.994 1.394 3.494v6.723h-1.994v-1.535h-.088c-.83 1.27-2.047 1.888-3.636 1.888Zm.336-1.889c.864 0 1.64-.317 2.329-.953.706-.635 1.059-1.394 1.059-2.276-.583-.477-1.465-.724-2.647-.724-1.006 0-1.765.212-2.277.653-.511.441-.776.953-.776 1.535 0 .548.23.971.706 1.289a2.817 2.817 0 0 0 1.606.476ZM116.312 18.176h-2.083V7.112h1.995v1.8h.088c.212-.6.635-1.094 1.306-1.483.653-.388 1.288-.582 1.906-.582.617 0 1.129.088 1.552.265l-.794 1.94c-.264-.105-.635-.158-1.111-.158-.76 0-1.412.3-1.995.9-.582.6-.864 1.377-.864 2.33v6.052ZM126.565 18.53c-1.66 0-3.018-.565-4.094-1.677-1.077-1.13-1.606-2.524-1.606-4.218s.53-3.088 1.606-4.217c1.076-1.13 2.435-1.677 4.094-1.677 1.235 0 2.259.3 3.07.9a5.231 5.231 0 0 1 1.783 2.277l-1.906.794c-.565-1.394-1.606-2.083-3.088-2.083-.918 0-1.73.371-2.436 1.13-.706.759-1.059 1.712-1.059 2.876 0 1.165.353 2.118 1.06 2.877.705.759 1.517 1.13 2.435 1.13 1.552 0 2.611-.69 3.211-2.083l1.853.794c-.37.9-.988 1.659-1.817 2.276-.847.6-1.871.9-3.106.9ZM134.824 2.012v5.1l-.089 1.535h.089c.3-.53.776-.97 1.429-1.341a4.129 4.129 0 0 1 2.082-.547c1.377 0 2.418.423 3.141 1.27.724.847 1.077 1.977 1.077 3.389v6.758h-2.082v-6.458c0-2.047-.918-3.07-2.736-3.07-.864 0-1.553.334-2.1 1.023-.547.688-.811 1.482-.811 2.382v6.123h-2.083V2.012h2.083Z"/></g><g fill="#616161"><path d="M155.012 18.53c-2.383 0-4.377-.812-5.983-2.418-1.605-1.606-2.417-3.618-2.417-6.036 0-2.417.812-4.411 2.417-6.035 1.606-1.606 3.6-2.417 5.983-2.417 2.435 0 4.412.882 5.947 2.647l-1.447 1.394c-1.094-1.377-2.594-2.047-4.5-2.047-1.765 0-3.247.6-4.465 1.782s-1.818 2.753-1.818 4.676c0 1.924.6 3.495 1.818 4.677 1.218 1.182 2.7 1.782 4.465 1.782 1.94 0 3.6-.776 4.976-2.347l1.447 1.447a8.112 8.112 0 0 1-2.77 2.118c-1.13.53-2.347.776-3.653.776ZM163.835 8.435c1.077-1.13 2.436-1.676 4.094-1.676 1.66 0 3.018.565 4.095 1.676 1.076 1.13 1.605 2.524 1.605 4.218s-.529 3.088-1.605 4.218c-1.077 1.129-2.436 1.676-4.095 1.676-1.658 0-3.017-.565-4.094-1.676-1.076-1.13-1.606-2.524-1.606-4.218s.53-3.106 1.606-4.218Zm1.536 7.112c.723.724 1.57 1.094 2.54 1.094.971 0 1.818-.37 2.542-1.094.723-.723 1.076-1.694 1.076-2.894 0-1.2-.353-2.17-1.076-2.894-.724-.724-1.57-1.094-2.541-1.094-.97 0-1.818.37-2.541 1.094-.724.723-1.077 1.694-1.077 2.894.018 1.2.37 2.153 1.077 2.894ZM177.07 7.112v1.535h.089c.3-.53.776-.97 1.43-1.341a4.129 4.129 0 0 1 2.082-.547c1.376 0 2.417.423 3.14 1.27.724.847 1.077 1.977 1.077 3.389v6.758h-2.082v-6.458c0-2.047-.918-3.07-2.735-3.07-.865 0-1.553.334-2.1 1.023-.547.688-.812 1.482-.812 2.382v6.123h-2.083V7.112h1.995ZM190.941 18.53c-1.235 0-2.259-.3-3.053-.9a5.244 5.244 0 0 1-1.764-2.26l1.852-.776c.583 1.394 1.589 2.082 3 2.082.653 0 1.183-.14 1.589-.423.406-.282.617-.67.617-1.13 0-.723-.511-1.217-1.517-1.464l-2.241-.547c-.706-.177-1.377-.53-2.012-1.024-.636-.512-.953-1.182-.953-2.047 0-.97.441-1.765 1.306-2.382.864-.618 1.888-.918 3.088-.918.97 0 1.853.23 2.612.67a3.621 3.621 0 0 1 1.64 1.907l-1.8.74c-.405-.97-1.252-1.464-2.523-1.464-.617 0-1.13.124-1.553.388-.423.265-.635.6-.635 1.042 0 .635.494 1.058 1.465 1.288l2.188.512c1.041.247 1.8.652 2.312 1.235.494.582.741 1.253.741 1.994 0 .988-.406 1.818-1.218 2.488-.811.67-1.87.988-3.14.988ZM197.682 8.435c1.077-1.13 2.436-1.676 4.094-1.676 1.66 0 3.018.565 4.095 1.676 1.076 1.13 1.605 2.524 1.605 4.218s-.529 3.088-1.605 4.218c-1.077 1.129-2.436 1.676-4.095 1.676-1.658 0-3.017-.565-4.094-1.676-1.076-1.13-1.606-2.524-1.606-4.218s.53-3.106 1.606-4.218Zm1.553 7.112c.724.724 1.57 1.094 2.541 1.094.971 0 1.818-.37 2.542-1.094.723-.723 1.076-1.694 1.076-2.894 0-1.2-.353-2.17-1.076-2.894-.724-.724-1.57-1.094-2.542-1.094-.97 0-1.817.37-2.54 1.094-.724.723-1.077 1.694-1.077 2.894 0 1.2.353 2.153 1.076 2.894ZM211.041 18.176h-2.082V2.012h2.082zM218.188 18.53c-1.676 0-3.035-.565-4.076-1.677-1.041-1.112-1.57-2.524-1.57-4.218 0-1.606.51-3 1.517-4.164 1.023-1.165 2.312-1.747 3.9-1.747 1.641 0 2.947.529 3.935 1.605.988 1.077 1.482 2.506 1.482 4.289l-.017.388h-8.735c.052 1.112.44 1.994 1.111 2.647.689.653 1.483.97 2.4.97 1.483 0 2.506-.635 3.036-1.905l1.853.776c-.353.865-.953 1.57-1.783 2.153-.83.6-1.853.882-3.053.882Zm2.983-7.218c-.053-.636-.336-1.236-.865-1.8-.53-.565-1.324-.865-2.382-.865-.777 0-1.43.247-1.995.724-.564.476-.953 1.129-1.164 1.94h6.406Z"/></g><path fill="#4285F4" d="M.124 9.282c0-5.1 4.288-9.264 9.405-9.264 2.824 0 4.836 1.111 6.353 2.558L14.1 4.36c-1.076-1.024-2.559-1.8-4.57-1.8-3.724 0-6.636 3-6.636 6.723 0 3.724 2.912 6.724 6.635 6.724 2.418 0 3.795-.97 4.677-1.853.723-.724 1.2-1.765 1.376-3.177H9.53V8.453h8.524c.088.459.141.988.141 1.588 0 1.906-.512 4.253-2.188 5.912-1.624 1.694-3.706 2.594-6.459 2.594C4.412 18.53.124 14.382.124 9.282Z"/><path fill="#DB4437" d="M25.059 6.618c-3.3 0-5.983 2.506-5.983 5.964 0 3.442 2.683 5.965 5.983 5.965s5.982-2.523 5.982-5.965c0-3.458-2.682-5.964-5.982-5.964Zm0 9.564c-1.8 0-3.37-1.482-3.37-3.617 0-2.153 1.552-3.618 3.37-3.618 1.8 0 3.37 1.465 3.37 3.618 0 2.135-1.57 3.617-3.37 3.617Z"/><path fill="#F4B400" d="M38.118 6.618c-3.3 0-5.983 2.506-5.983 5.964 0 3.442 2.683 5.965 5.983 5.965s5.982-2.523 5.982-5.965c0-3.458-2.682-5.964-5.982-5.964Zm0 9.564c-1.8 0-3.37-1.482-3.37-3.617 0-2.153 1.552-3.618 3.37-3.618 1.817 0 3.37 1.465 3.37 3.618 0 2.135-1.57 3.617-3.37 3.617Z"/><path fill="#4285F4" d="M54.141 6.97v.971h-.088C53.47 7.235 52.34 6.6 50.912 6.6c-2.983 0-5.718 2.612-5.718 5.982 0 3.336 2.735 5.947 5.718 5.947 1.43 0 2.559-.635 3.14-1.358h.09v.864c0 2.277-1.218 3.494-3.177 3.494-1.606 0-2.594-1.147-3-2.117l-2.277.953c.653 1.588 2.4 3.53 5.294 3.53 3.07 0 5.665-1.8 5.665-6.213V6.971h-2.506Zm-3 9.212c-1.8 0-3.317-1.517-3.317-3.6 0-2.1 1.517-3.635 3.317-3.635 1.783 0 3.177 1.535 3.177 3.635.017 2.1-1.394 3.6-3.177 3.6Z"/><path fill="#0F9D58" d="M58.447.653h2.612v17.524h-2.612z"/><path fill="#DB4437" d="M68.241 16.182c-1.341 0-2.276-.617-2.894-1.8l7.977-3.3-.265-.67c-.494-1.341-2.012-3.794-5.1-3.794-3.07 0-5.63 2.417-5.63 5.964 0 3.336 2.524 5.965 5.912 5.965 2.735 0 4.306-1.676 4.977-2.647l-2.03-1.359c-.688.988-1.606 1.641-2.947 1.641Zm-.194-7.27c1.041 0 1.924.512 2.206 1.27l-5.33 2.206c-.07-2.294 1.783-3.476 3.124-3.476Z"/></g></svg>