<?xml version="1.0" encoding="UTF-8" standalone="no"?>
<!-- Generator: Adobe Illustrator 19.0.0, SVG Export Plug-In . SVG Version: 6.00 Build 0)  -->

<svg
   version="1.1"
   id="Layer_1"
   x="0px"
   y="0px"
   viewBox="-393 31 365.01373 333.55453"
   xml:space="preserve"
   sodipodi:docname="google-adwords.svg"
   width="365.01373"
   height="333.55453"
   inkscape:version="1.2.1 (9c6d41e410, 2022-07-14, custom)"
   xmlns:inkscape="http://www.inkscape.org/namespaces/inkscape"
   xmlns:sodipodi="http://sodipodi.sourceforge.net/DTD/sodipodi-0.dtd"
   xmlns="http://www.w3.org/2000/svg"
   xmlns:svg="http://www.w3.org/2000/svg"><defs
   id="defs19" /><sodipodi:namedview
   id="namedview17"
   pagecolor="#ffffff"
   bordercolor="#666666"
   borderopacity="1.0"
   inkscape:showpageshadow="2"
   inkscape:pageopacity="0.0"
   inkscape:pagecheckerboard="0"
   inkscape:deskcolor="#d1d1d1"
   showgrid="false"
   inkscape:zoom="2.054"
   inkscape:cx="182.08374"
   inkscape:cy="166.50438"
   inkscape:window-width="3840"
   inkscape:window-height="2083"
   inkscape:window-x="0"
   inkscape:window-y="40"
   inkscape:window-maximized="1"
   inkscape:current-layer="Layer_1" />
<style
   type="text/css"
   id="style2">
	.st0{fill:#3C8BD9;}
	.st1{fill:#FABC04;}
	.st2{fill:#34A852;}
	.st3{fill:#E1C025;}
</style>
<g
   id="g14"
   transform="translate(-67.521434,-83.20196)">
	<path
   class="st0"
   d="m -201.3,156.2 c 3.5,-9.3 8.4,-17.8 15.6,-24.7 28.8,-28.1 76.4,-21 96,14.3 14.7,26.8 30.3,52.9 45.4,79.4 25.3,44 50.9,87.9 75.9,132 21,36.9 -1.8,83.5 -43.5,89.8 -25.6,3.8 -49.5,-7.9 -62.8,-30.9 -22.2,-38.7 -44.5,-77.3 -66.7,-115.8 -0.4,-0.9 -1,-1.6 -1.6,-2.4 -2.4,-1.9 -3.4,-4.7 -4.9,-7.2 -9.8,-17.3 -20,-34.5 -29.8,-51.7 -6.3,-11.2 -12.9,-22.2 -19.3,-33.4 -5.7,-10 -8.4,-20.9 -8.1,-32.3 0.4,-5.9 1.2,-11.8 3.8,-17.1"
   id="path4" />
	<path
   class="st1"
   d="m -201.3,156.2 c -1.3,5.3 -2.5,10.6 -2.8,16.2 -0.4,12.3 2.6,23.8 8.8,34.5 16.2,27.8 32.3,55.7 48.4,83.6 1.5,2.5 2.6,5 4.1,7.3 -8.8,15.3 -17.6,30.4 -26.6,45.7 -12.3,21.3 -24.7,42.8 -37.2,64.1 -0.6,0 -0.7,-0.3 -0.9,-0.7 -0.1,-1.2 0.3,-2.2 0.6,-3.4 6,-22 1,-41.6 -14.1,-58.4 -9.3,-10.1 -21,-15.9 -34.5,-17.8 -17.6,-2.5 -33.2,2.1 -47.2,13.1 -2.5,1.9 -4.1,4.7 -7.1,6.2 -0.6,0 -0.9,-0.3 -1,-0.7 7.1,-12.2 14,-24.4 21,-36.6 29.1,-50.6 58.2,-101.1 87.5,-151.6 0.3,-0.4 0.7,-0.9 1,-1.5"
   id="path6" />
	<path
   class="st2"
   d="m -310.2,346.5 c 2.8,-2.5 5.4,-5.1 8.4,-7.5 35.7,-28.2 89.4,-7.8 97.2,36.9 1.9,10.7 0.9,21 -2.4,31.3 -0.1,0.9 -0.3,1.6 -0.6,2.5 -1.3,2.4 -2.5,4.9 -4,7.2 -13.1,21.6 -32.3,32.3 -57.6,30.7 -29,-2.1 -51.7,-23.8 -55.7,-52.6 -1.9,-14 0.9,-27 8.1,-39.1 1.5,-2.6 3.2,-5 4.9,-7.6 0.7,-0.7 0.4,-1.8 1.7,-1.8"
   id="path8" />
	<path
   class="st1"
   d="m -310.2,346.5 c -0.6,0.6 -0.6,1.6 -1.6,1.8 -0.1,-1 0.4,-1.6 1,-2.4 l 0.6,0.6"
   id="path10" />
	<path
   class="st3"
   d="m -207.6,409.7 c -0.6,-1 0,-1.8 0.6,-2.5 0.1,0.1 0.4,0.4 0.6,0.6 l -1.2,1.9"
   id="path12" />
</g>
</svg>
