<?xml version="1.0" encoding="UTF-8" standalone="no"?>
<svg
   version="1.1"
   x="0px"
   y="0px"
   width="192"
   height="192"
   viewBox="0 0 192 192"
   enable-background="new 0 0 192 192"
   xml:space="preserve"
   id="svg151"
   sodipodi:docname="google-analytics.svg"
   inkscape:version="1.2.1 (9c6d41e410, 2022-07-14, custom)"
   xmlns:inkscape="http://www.inkscape.org/namespaces/inkscape"
   xmlns:sodipodi="http://sodipodi.sourceforge.net/DTD/sodipodi-0.dtd"
   xmlns="http://www.w3.org/2000/svg"
   xmlns:svg="http://www.w3.org/2000/svg"><defs
   id="defs155" /><sodipodi:namedview
   id="namedview153"
   pagecolor="#ffffff"
   bordercolor="#666666"
   borderopacity="1.0"
   inkscape:showpageshadow="2"
   inkscape:pageopacity="0.0"
   inkscape:pagecheckerboard="0"
   inkscape:deskcolor="#d1d1d1"
   showgrid="false"
   inkscape:zoom="5.3489583"
   inkscape:cx="95.906524"
   inkscape:cy="95.906524"
   inkscape:window-width="3840"
   inkscape:window-height="2083"
   inkscape:window-x="0"
   inkscape:window-y="40"
   inkscape:window-maximized="1"
   inkscape:current-layer="svg151" />
<rect
   x="0"
   y="0"
   fill="none"
   width="192"
   height="192"
   id="rect135" />
<g
   id="g149">
	<g
   id="g139">
		<path
   fill="#f9ab00"
   d="m 130,29 v 132 c 0,14.77 10.19,23 21,23 10,0 21,-7 21,-23 V 30 C 172,16.46 162,8 151,8 140,8 130,17.33 130,29 Z"
   id="path137" />
	</g>
	<g
   id="g143">
		<path
   fill="#e37400"
   d="m 75,96 v 65 c 0,14.77 10.19,23 21,23 10,0 21,-7 21,-23 V 97 C 117,83.46 107,75 96,75 85,75 75,84.33 75,96 Z"
   id="path141" />
	</g>
	<g
   id="g147">
		<circle
   fill="#e37400"
   cx="41"
   cy="163"
   r="21"
   id="circle145" />
	</g>
</g>
</svg>
