<svg xmlns="http://www.w3.org/2000/svg" xml:space="preserve" id="Layer_1" width="365.014" height="333.555" x="0" y="0" version="1.1" viewBox="-393 31 365.014 333.555"><style id="style2" type="text/css">.st1{fill:#fabc04}</style><g id="g14" transform="translate(-67.521 -83.202)"><path id="path4" d="M-201.3 156.2c3.5-9.3 8.4-17.8 15.6-24.7 28.8-28.1 76.4-21 96 14.3 14.7 26.8 30.3 52.9 45.4 79.4 25.3 44 50.9 87.9 75.9 132 21 36.9-1.8 83.5-43.5 89.8-25.6 3.8-49.5-7.9-62.8-30.9-22.2-38.7-44.5-77.3-66.7-115.8-.4-.9-1-1.6-1.6-2.4-2.4-1.9-3.4-4.7-4.9-7.2-9.8-17.3-20-34.5-29.8-51.7-6.3-11.2-12.9-22.2-19.3-33.4-5.7-10-8.4-20.9-8.1-32.3.4-5.9 1.2-11.8 3.8-17.1" style="fill:#3c8bd9"/><path id="path6" d="M-201.3 156.2c-1.3 5.3-2.5 10.6-2.8 16.2-.4 12.3 2.6 23.8 8.8 34.5 16.2 27.8 32.3 55.7 48.4 83.6 1.5 2.5 2.6 5 4.1 7.3-8.8 15.3-17.6 30.4-26.6 45.7-12.3 21.3-24.7 42.8-37.2 64.1-.6 0-.7-.3-.9-.7-.1-1.2.3-2.2.6-3.4 6-22 1-41.6-14.1-58.4-9.3-10.1-21-15.9-34.5-17.8-17.6-2.5-33.2 2.1-47.2 13.1-2.5 1.9-4.1 4.7-7.1 6.2-.6 0-.9-.3-1-.7 7.1-12.2 14-24.4 21-36.6 29.1-50.6 58.2-101.1 87.5-151.6.3-.4.7-.9 1-1.5" class="st1"/><path id="path8" d="M-310.2 346.5c2.8-2.5 5.4-5.1 8.4-7.5 35.7-28.2 89.4-7.8 97.2 36.9 1.9 10.7.9 21-2.4 31.3-.1.9-.3 1.6-.6 2.5-1.3 2.4-2.5 4.9-4 7.2-13.1 21.6-32.3 32.3-57.6 30.7-29-2.1-51.7-23.8-55.7-52.6-1.9-14 .9-27 8.1-39.1 1.5-2.6 3.2-5 4.9-7.6.7-.7.4-1.8 1.7-1.8" style="fill:#34a852"/><path id="path10" d="M-310.2 346.5c-.6.6-.6 1.6-1.6 1.8-.1-1 .4-1.6 1-2.4l.6.6" class="st1"/><path id="path12" d="M-207.6 409.7c-.6-1 0-1.8.6-2.5l.6.6-1.2 1.9" style="fill:#e1c025"/></g></svg>