<svg width="250" height="250" viewBox="0 0 250 250" fill="none" xmlns="http://www.w3.org/2000/svg">
<g clip-path="url(#clip0_2_7256)">
<path d="M83.7184 182.809L53.8614 131.607C51.5254 127.596 51.5254 122.682 53.8614 118.671L83.7184 67.4681C86.0544 63.4571 90.3614 61 95.0334 61H154.747C159.419 61 163.726 63.4571 166.062 67.4681L195.919 118.671C198.255 122.682 198.255 127.596 195.919 131.607L166.062 182.809C163.726 186.784 159.419 189.277 154.747 189.277H95.0334C90.3614 189.277 86.0544 186.784 83.7184 182.809Z" fill="url(#paint0_linear_2_7256)"/>
<g opacity="0.07">
<path opacity="0.07" d="M189.779 142.669L153.571 106.823L146.891 108.196L130.284 91.7551L124.991 101.584L122.108 112.966L126.999 117.808L117.618 119.687L104.77 106.968L96.0467 115.279L112.107 131.178L95.0977 144.584L140.796 189.824L163.061 189.607L189.779 142.669Z" fill="black"/>
</g>
<path d="M149.352 117.137C152.698 117.137 155.411 114.452 155.411 111.139C155.411 107.826 152.698 105.141 149.352 105.141C146.006 105.141 143.293 107.826 143.293 111.139C143.293 114.452 146.006 117.137 149.352 117.137Z" fill="white"/>
<path d="M100.403 117.137C103.749 117.137 106.462 114.452 106.462 111.139C106.462 107.826 103.749 105.141 100.403 105.141C97.0565 105.141 94.3438 107.826 94.3438 111.139C94.3438 114.452 97.0565 117.137 100.403 117.137Z" fill="white"/>
<path d="M124.895 159.089C128.241 159.089 130.954 156.404 130.954 153.091C130.954 149.778 128.241 147.093 124.895 147.093C121.549 147.093 118.836 149.778 118.836 153.091C118.836 156.404 121.549 159.089 124.895 159.089Z" fill="white"/>
<path d="M126.284 122.723L123.492 127.511L147.958 141.495L150.75 136.707L126.284 122.723Z" fill="white"/>
<path d="M123.497 122.741L99.0312 136.725L101.824 141.513L126.289 127.529L123.497 122.741Z" fill="white"/>
<path d="M127.659 97.136H122.074V125.104H127.659V97.136Z" fill="white"/>
<path d="M124.895 134.807C130.298 134.807 134.677 130.471 134.677 125.123C134.677 119.775 130.298 115.439 124.895 115.439C119.493 115.439 115.113 119.775 115.113 125.123C115.113 130.471 119.493 134.807 124.895 134.807Z" fill="white"/>
<path d="M100.405 146.731C104.658 146.731 108.106 143.318 108.106 139.107C108.106 134.896 104.658 131.483 100.405 131.483C96.1512 131.483 92.7031 134.896 92.7031 139.107C92.7031 143.318 96.1512 146.731 100.405 146.731Z" fill="white"/>
<path d="M149.35 146.731C153.603 146.731 157.051 143.318 157.051 139.107C157.051 134.896 153.603 131.483 149.35 131.483C145.097 131.483 141.648 134.896 141.648 139.107C141.648 143.318 145.097 146.731 149.35 146.731Z" fill="white"/>
<path d="M124.897 104.779C129.15 104.779 132.598 101.366 132.598 97.1549C132.598 92.944 129.15 89.5305 124.897 89.5305C120.643 89.5305 117.195 92.944 117.195 97.1549C117.195 101.366 120.643 104.779 124.897 104.779Z" fill="white"/>
</g>
<defs>
<linearGradient id="paint0_linear_2_7256" x1="124.892" y1="60.9941" x2="124.892" y2="189.071" gradientUnits="userSpaceOnUse">
<stop stop-color="#4387FD"/>
<stop offset="1" stop-color="#4683EA"/>
</linearGradient>
<clipPath id="clip0_2_7256">
<rect width="146" height="129" fill="white" transform="translate(52 61)"/>
</clipPath>
</defs>
</svg>
