<?xml version="1.0" encoding="UTF-8"?>
<svg width="224px" height="24px" viewBox="0 0 224 24" version="1.1" xmlns="http://www.w3.org/2000/svg" xmlns:xlink="http://www.w3.org/1999/xlink">
    <!-- Generator: Sketch 51.2 (57519) - http://www.bohemiancoding.com/sketch -->
    <title>Artboard</title>
    <desc>Created with Sketch.</desc>
    <defs></defs>
    <g id="Artboard" stroke="none" stroke-width="1" fill="none" fill-rule="evenodd">
        <g id="sc_logo_lockup" fill-rule="nonzero">
            <g id="XMLID_41_" transform="translate(78.529412, 1.588235)" fill="#616161">
                <path d="M5.7,16.9411765 C4.51764706,16.9411765 3.37058824,16.5529412 2.25882353,15.7941176 C1.12941176,15.0176471 0.405882353,13.9411765 0.0529411765,12.5647059 L1.95882353,11.7882353 C2.18823529,12.6705882 2.64705882,13.4294118 3.35294118,14.0294118 C4.05882353,14.6470588 4.83529412,14.9470588 5.71764706,14.9470588 C6.61764706,14.9470588 7.39411765,14.7176471 8.02941176,14.2411765 C8.66470588,13.7647059 8.98235294,13.1294118 8.98235294,12.3176471 C8.98235294,11.4176471 8.66470588,10.7117647 8.02941176,10.2352941 C7.39411765,9.74117647 6.37058824,9.28235294 4.99411765,8.87647059 C3.56470588,8.41764706 2.47058824,7.83529412 1.74705882,7.12941176 C1.00588235,6.40588235 0.635294118,5.50588235 0.635294118,4.37647059 C0.635294118,3.21176471 1.09411765,2.20588235 2.01176471,1.34117647 C2.92941176,0.476470588 4.12941176,0.0529411765 5.61176471,0.0529411765 C6.98823529,0.0529411765 8.1,0.388235294 8.94705882,1.07647059 C9.81176471,1.76470588 10.3588235,2.50588235 10.6235294,3.31764706 L8.71764706,4.11176471 C8.57647059,3.6 8.24117647,3.12352941 7.71176471,2.68235294 C7.18235294,2.24117647 6.49411765,2.02941176 5.64705882,2.02941176 C4.85294118,2.02941176 4.16470588,2.25882353 3.6,2.7 C3.03529412,3.14117647 2.75294118,3.70588235 2.75294118,4.35882353 C2.75294118,4.95882353 3.01764706,5.47058824 3.52941176,5.87647059 C4.04117647,6.28235294 4.81764706,6.67058824 5.82352941,6.98823529 C6.61764706,7.25294118 7.28823529,7.5 7.81764706,7.72941176 C8.34705882,7.97647059 8.89411765,8.29411765 9.44117647,8.68235294 C9.98823529,9.08823529 10.4117647,9.58235294 10.6764706,10.1647059 C10.9588235,10.7647059 11.1,11.4529412 11.1,12.2294118 C11.1,13.0058824 10.9411765,13.7117647 10.6058824,14.3294118 C10.2882353,14.9470588 9.84705882,15.4411765 9.31764706,15.7941176 C8.78823529,16.1470588 8.20588235,16.4294118 7.58823529,16.6235294 C6.97058824,16.8529412 6.33529412,16.9411765 5.7,16.9411765 Z" id="Shape"></path>
                <path d="M17.8941176,16.9411765 C16.2176471,16.9411765 14.8588235,16.3764706 13.8176471,15.2647059 C12.7764706,14.1529412 12.2470588,12.7411765 12.2470588,11.0470588 C12.2470588,9.44117647 12.7588235,8.04705882 13.7647059,6.88235294 C14.7882353,5.71764706 16.0764706,5.13529412 17.6647059,5.13529412 C19.3058824,5.13529412 20.6117647,5.66470588 21.6,6.74117647 C22.5882353,7.81764706 23.0823529,9.24705882 23.0823529,11.0294118 L23.0647059,11.4176471 L14.3294118,11.4176471 C14.3823529,12.5294118 14.7705882,13.4117647 15.4411765,14.0647059 C16.1294118,14.7176471 16.9235294,15.0352941 17.8411765,15.0352941 C19.3235294,15.0352941 20.3470588,14.4 20.8764706,13.1294118 L22.7294118,13.9058824 C22.3764706,14.7705882 21.7764706,15.4764706 20.9470588,16.0588235 C20.1176471,16.6588235 19.1117647,16.9411765 17.8941176,16.9411765 Z M20.8764706,9.72352941 C20.8235294,9.08823529 20.5411765,8.48823529 20.0117647,7.92352941 C19.4823529,7.35882353 18.6882353,7.05882353 17.6294118,7.05882353 C16.8529412,7.05882353 16.2,7.30588235 15.6352941,7.78235294 C15.0705882,8.25882353 14.6823529,8.91176471 14.4705882,9.72352941 L20.8764706,9.72352941 Z" id="Shape"></path>
                <path d="M28.0058824,16.9411765 C26.8235294,16.9411765 25.8529412,16.6058824 25.0588235,15.9176471 C24.2647059,15.2470588 23.8764706,14.3470588 23.8764706,13.2352941 C23.8764706,12.0352941 24.3352941,11.0823529 25.2705882,10.3941176 C26.2058824,9.70588235 27.3529412,9.37058824 28.7294118,9.37058824 C29.9470588,9.37058824 30.9529412,9.6 31.7294118,10.0411765 L31.7294118,9.72352941 C31.7294118,8.91176471 31.4470588,8.25882353 30.9,7.76470588 C30.3352941,7.27058824 29.6647059,7.02352941 28.8529412,7.02352941 C28.2529412,7.02352941 27.7058824,7.16470588 27.2117647,7.44705882 C26.7176471,7.72941176 26.3823529,8.11764706 26.2058824,8.62941176 L24.3,7.81764706 C24.5470588,7.14705882 25.0588235,6.54705882 25.8176471,5.98235294 C26.5764706,5.41764706 27.5647059,5.13529412 28.8,5.13529412 C30.2117647,5.13529412 31.3941176,5.54117647 32.3294118,6.37058824 C33.2647059,7.2 33.7235294,8.36470588 33.7235294,9.86470588 L33.7235294,16.5882353 L31.7294118,16.5882353 L31.7294118,15.0529412 L31.6411765,15.0529412 C30.8117647,16.3235294 29.5941176,16.9411765 28.0058824,16.9411765 Z M28.3411765,15.0529412 C29.2058824,15.0529412 29.9823529,14.7352941 30.6705882,14.1 C31.3764706,13.4647059 31.7294118,12.7058824 31.7294118,11.8235294 C31.1470588,11.3470588 30.2647059,11.1 29.0823529,11.1 C28.0764706,11.1 27.3176471,11.3117647 26.8058824,11.7529412 C26.2941176,12.1941176 26.0294118,12.7058824 26.0294118,13.2882353 C26.0294118,13.8352941 26.2588235,14.2588235 26.7352941,14.5764706 C27.2117647,14.8941176 27.7411765,15.0529412 28.3411765,15.0529412 Z" id="Shape"></path>
                <path d="M37.7823529,16.5882353 L35.7,16.5882353 L35.7,5.52352941 L37.6941176,5.52352941 L37.6941176,7.32352941 L37.7823529,7.32352941 C37.9941176,6.72352941 38.4176471,6.22941176 39.0882353,5.84117647 C39.7411765,5.45294118 40.3764706,5.25882353 40.9941176,5.25882353 C41.6117647,5.25882353 42.1235294,5.34705882 42.5470588,5.52352941 L41.7529412,7.46470588 C41.4882353,7.35882353 41.1176471,7.30588235 40.6411765,7.30588235 C39.8823529,7.30588235 39.2294118,7.60588235 38.6470588,8.20588235 C38.0647059,8.80588235 37.7823529,9.58235294 37.7823529,10.5352941 L37.7823529,16.5882353 Z" id="Shape"></path>
                <path d="M48.0352941,16.9411765 C46.3764706,16.9411765 45.0176471,16.3764706 43.9411765,15.2647059 C42.8647059,14.1352941 42.3352941,12.7411765 42.3352941,11.0470588 C42.3352941,9.35294118 42.8647059,7.95882353 43.9411765,6.82941176 C45.0176471,5.7 46.3764706,5.15294118 48.0352941,5.15294118 C49.2705882,5.15294118 50.2941176,5.45294118 51.1058824,6.05294118 C51.9176471,6.65294118 52.5176471,7.41176471 52.8882353,8.32941176 L50.9823529,9.12352941 C50.4176471,7.72941176 49.3764706,7.04117647 47.8941176,7.04117647 C46.9764706,7.04117647 46.1647059,7.41176471 45.4588235,8.17058824 C44.7529412,8.92941176 44.4,9.88235294 44.4,11.0470588 C44.4,12.2117647 44.7529412,13.1647059 45.4588235,13.9235294 C46.1647059,14.6823529 46.9764706,15.0529412 47.8941176,15.0529412 C49.4470588,15.0529412 50.5058824,14.3647059 51.1058824,12.9705882 L52.9588235,13.7647059 C52.5882353,14.6647059 51.9705882,15.4235294 51.1411765,16.0411765 C50.2941176,16.6411765 49.2705882,16.9411765 48.0352941,16.9411765 Z" id="Shape"></path>
                <path d="M56.2941176,0.423529412 L56.2941176,5.52352941 L56.2058824,7.05882353 L56.2941176,7.05882353 C56.5941176,6.52941176 57.0705882,6.08823529 57.7235294,5.71764706 C58.3764706,5.34705882 59.0647059,5.17058824 59.8058824,5.17058824 C61.1823529,5.17058824 62.2235294,5.59411765 62.9470588,6.44117647 C63.6705882,7.28823529 64.0235294,8.41764706 64.0235294,9.82941176 L64.0235294,16.5882353 L61.9411765,16.5882353 L61.9411765,10.1294118 C61.9411765,8.08235294 61.0235294,7.05882353 59.2058824,7.05882353 C58.3411765,7.05882353 57.6529412,7.39411765 57.1058824,8.08235294 C56.5588235,8.77058824 56.2941176,9.56470588 56.2941176,10.4647059 L56.2941176,16.5882353 L54.2117647,16.5882353 L54.2117647,0.423529412 L56.2941176,0.423529412 Z" id="Shape"></path>
            </g>
            <g id="XMLID_39_" transform="translate(146.470588, 1.588235)" fill="#616161">
                <path d="M8.54117647,16.9411765 C6.15882353,16.9411765 4.16470588,16.1294118 2.55882353,14.5235294 C0.952941176,12.9176471 0.141176471,10.9058824 0.141176471,8.48823529 C0.141176471,6.07058824 0.952941176,4.07647059 2.55882353,2.45294118 C4.16470588,0.847058824 6.15882353,0.0352941176 8.54117647,0.0352941176 C10.9764706,0.0352941176 12.9529412,0.917647059 14.4882353,2.68235294 L13.0411765,4.07647059 C11.9470588,2.7 10.4470588,2.02941176 8.54117647,2.02941176 C6.77647059,2.02941176 5.29411765,2.62941176 4.07647059,3.81176471 C2.85882353,4.99411765 2.25882353,6.56470588 2.25882353,8.48823529 C2.25882353,10.4117647 2.85882353,11.9823529 4.07647059,13.1647059 C5.29411765,14.3470588 6.77647059,14.9470588 8.54117647,14.9470588 C10.4823529,14.9470588 12.1411765,14.1705882 13.5176471,12.6 L14.9647059,14.0470588 C14.2235294,14.9294118 13.3058824,15.6352941 12.1941176,16.1647059 C11.0647059,16.6941176 9.84705882,16.9411765 8.54117647,16.9411765 Z" id="Shape"></path>
                <path d="M17.3647059,6.84705882 C18.4411765,5.71764706 19.8,5.17058824 21.4588235,5.17058824 C23.1176471,5.17058824 24.4764706,5.73529412 25.5529412,6.84705882 C26.6294118,7.97647059 27.1588235,9.37058824 27.1588235,11.0647059 C27.1588235,12.7588235 26.6294118,14.1529412 25.5529412,15.2823529 C24.4764706,16.4117647 23.1176471,16.9588235 21.4588235,16.9588235 C19.8,16.9588235 18.4411765,16.3941176 17.3647059,15.2823529 C16.2882353,14.1529412 15.7588235,12.7588235 15.7588235,11.0647059 C15.7588235,9.37058824 16.2882353,7.95882353 17.3647059,6.84705882 Z M18.9,13.9588235 C19.6235294,14.6823529 20.4705882,15.0529412 21.4411765,15.0529412 C22.4117647,15.0529412 23.2588235,14.6823529 23.9823529,13.9588235 C24.7058824,13.2352941 25.0588235,12.2647059 25.0588235,11.0647059 C25.0588235,9.86470588 24.7058824,8.89411765 23.9823529,8.17058824 C23.2588235,7.44705882 22.4117647,7.07647059 21.4411765,7.07647059 C20.4705882,7.07647059 19.6235294,7.44705882 18.9,8.17058824 C18.1764706,8.89411765 17.8235294,9.86470588 17.8235294,11.0647059 C17.8411765,12.2647059 18.1941176,13.2176471 18.9,13.9588235 Z" id="Shape"></path>
                <path d="M30.6,5.52352941 L30.6,7.05882353 L30.6882353,7.05882353 C30.9882353,6.52941176 31.4647059,6.08823529 32.1176471,5.71764706 C32.7705882,5.34705882 33.4588235,5.17058824 34.2,5.17058824 C35.5764706,5.17058824 36.6176471,5.59411765 37.3411765,6.44117647 C38.0647059,7.28823529 38.4176471,8.41764706 38.4176471,9.82941176 L38.4176471,16.5882353 L36.3352941,16.5882353 L36.3352941,10.1294118 C36.3352941,8.08235294 35.4176471,7.05882353 33.6,7.05882353 C32.7352941,7.05882353 32.0470588,7.39411765 31.5,8.08235294 C30.9529412,8.77058824 30.6882353,9.56470588 30.6882353,10.4647059 L30.6882353,16.5882353 L28.6058824,16.5882353 L28.6058824,5.52352941 L30.6,5.52352941 Z" id="Shape"></path>
                <path d="M44.4705882,16.9411765 C43.2352941,16.9411765 42.2117647,16.6411765 41.4176471,16.0411765 C40.6058824,15.4411765 40.0235294,14.6823529 39.6529412,13.7823529 L41.5058824,13.0058824 C42.0882353,14.4 43.0941176,15.0882353 44.5058824,15.0882353 C45.1588235,15.0882353 45.6882353,14.9470588 46.0941176,14.6647059 C46.5,14.3823529 46.7117647,13.9941176 46.7117647,13.5352941 C46.7117647,12.8117647 46.2,12.3176471 45.1941176,12.0705882 L42.9529412,11.5235294 C42.2470588,11.3470588 41.5764706,10.9941176 40.9411765,10.5 C40.3058824,9.98823529 39.9882353,9.31764706 39.9882353,8.45294118 C39.9882353,7.48235294 40.4294118,6.68823529 41.2941176,6.07058824 C42.1588235,5.45294118 43.1823529,5.15294118 44.3823529,5.15294118 C45.3529412,5.15294118 46.2352941,5.38235294 46.9941176,5.82352941 C47.7705882,6.26470588 48.3176471,6.9 48.6352941,7.72941176 L46.8352941,8.47058824 C46.4294118,7.5 45.5823529,7.00588235 44.3117647,7.00588235 C43.6941176,7.00588235 43.1823529,7.12941176 42.7588235,7.39411765 C42.3352941,7.65882353 42.1235294,7.99411765 42.1235294,8.43529412 C42.1235294,9.07058824 42.6176471,9.49411765 43.5882353,9.72352941 L45.7764706,10.2352941 C46.8176471,10.4823529 47.5764706,10.8882353 48.0882353,11.4705882 C48.5823529,12.0529412 48.8294118,12.7235294 48.8294118,13.4647059 C48.8294118,14.4529412 48.4235294,15.2823529 47.6117647,15.9529412 C46.8,16.6235294 45.7411765,16.9411765 44.4705882,16.9411765 Z" id="Shape"></path>
                <path d="M51.2117647,6.84705882 C52.2882353,5.71764706 53.6470588,5.17058824 55.3058824,5.17058824 C56.9647059,5.17058824 58.3235294,5.73529412 59.4,6.84705882 C60.4764706,7.97647059 61.0058824,9.37058824 61.0058824,11.0647059 C61.0058824,12.7588235 60.4764706,14.1529412 59.4,15.2823529 C58.3235294,16.4117647 56.9647059,16.9588235 55.3058824,16.9588235 C53.6470588,16.9588235 52.2882353,16.3941176 51.2117647,15.2823529 C50.1352941,14.1529412 49.6058824,12.7588235 49.6058824,11.0647059 C49.6058824,9.37058824 50.1352941,7.95882353 51.2117647,6.84705882 Z M52.7647059,13.9588235 C53.4882353,14.6823529 54.3352941,15.0529412 55.3058824,15.0529412 C56.2764706,15.0529412 57.1235294,14.6823529 57.8470588,13.9588235 C58.5705882,13.2352941 58.9235294,12.2647059 58.9235294,11.0647059 C58.9235294,9.86470588 58.5705882,8.89411765 57.8470588,8.17058824 C57.1235294,7.44705882 56.2764706,7.07647059 55.3058824,7.07647059 C54.3352941,7.07647059 53.4882353,7.44705882 52.7647059,8.17058824 C52.0411765,8.89411765 51.6882353,9.86470588 51.6882353,11.0647059 C51.6882353,12.2647059 52.0411765,13.2176471 52.7647059,13.9588235 Z" id="Shape"></path>
                <polygon id="Shape" points="64.5705882 16.5882353 62.4882353 16.5882353 62.4882353 0.423529412 64.5705882 0.423529412"></polygon>
                <path d="M71.7176471,16.9411765 C70.0411765,16.9411765 68.6823529,16.3764706 67.6411765,15.2647059 C66.6,14.1529412 66.0705882,12.7411765 66.0705882,11.0470588 C66.0705882,9.44117647 66.5823529,8.04705882 67.5882353,6.88235294 C68.6117647,5.71764706 69.9,5.13529412 71.4882353,5.13529412 C73.1294118,5.13529412 74.4352941,5.66470588 75.4235294,6.74117647 C76.4117647,7.81764706 76.9058824,9.24705882 76.9058824,11.0294118 L76.8882353,11.4176471 L68.1529412,11.4176471 C68.2058824,12.5294118 68.5941176,13.4117647 69.2647059,14.0647059 C69.9529412,14.7176471 70.7470588,15.0352941 71.6647059,15.0352941 C73.1470588,15.0352941 74.1705882,14.4 74.7,13.1294118 L76.5529412,13.9058824 C76.2,14.7705882 75.6,15.4764706 74.7705882,16.0588235 C73.9411765,16.6588235 72.9176471,16.9411765 71.7176471,16.9411765 Z M74.7,9.72352941 C74.6470588,9.08823529 74.3647059,8.48823529 73.8352941,7.92352941 C73.3058824,7.35882353 72.5117647,7.05882353 71.4529412,7.05882353 C70.6764706,7.05882353 70.0235294,7.30588235 69.4588235,7.78235294 C68.8941176,8.25882353 68.5058824,8.91176471 68.2941176,9.72352941 L74.7,9.72352941 Z" id="Shape"></path>
            </g>
            <g id="XMLID_37_">
                <path d="M0.123529412,9.28235294 C0.123529412,4.18235294 4.41176471,0.0176470588 9.52941176,0.0176470588 C12.3529412,0.0176470588 14.3647059,1.12941176 15.8823529,2.57647059 L14.1,4.35882353 C13.0235294,3.33529412 11.5411765,2.55882353 9.52941176,2.55882353 C5.80588235,2.55882353 2.89411765,5.55882353 2.89411765,9.28235294 C2.89411765,13.0058824 5.80588235,16.0058824 9.52941176,16.0058824 C11.9470588,16.0058824 13.3235294,15.0352941 14.2058824,14.1529412 C14.9294118,13.4294118 15.4058824,12.3882353 15.5823529,10.9764706 L9.52941176,10.9764706 L9.52941176,8.45294118 L18.0529412,8.45294118 C18.1411765,8.91176471 18.1941176,9.44117647 18.1941176,10.0411765 C18.1941176,11.9470588 17.6823529,14.2941176 16.0058824,15.9529412 C14.3823529,17.6470588 12.3,18.5470588 9.54705882,18.5470588 C4.41176471,18.5294118 0.123529412,14.3823529 0.123529412,9.28235294 Z" id="Shape" fill="#4285F4"></path>
                <path d="M25.0588235,6.61764706 C21.7588235,6.61764706 19.0764706,9.12352941 19.0764706,12.5823529 C19.0764706,16.0235294 21.7588235,18.5470588 25.0588235,18.5470588 C28.3588235,18.5470588 31.0411765,16.0235294 31.0411765,12.5823529 C31.0411765,9.12352941 28.3588235,6.61764706 25.0588235,6.61764706 Z M25.0588235,16.1823529 C23.2588235,16.1823529 21.6882353,14.7 21.6882353,12.5647059 C21.6882353,10.4117647 23.2411765,8.94705882 25.0588235,8.94705882 C26.8588235,8.94705882 28.4294118,10.4117647 28.4294118,12.5647059 C28.4294118,14.7 26.8588235,16.1823529 25.0588235,16.1823529 Z" id="Shape" fill="#DB4437"></path>
                <path d="M38.1176471,6.61764706 C34.8176471,6.61764706 32.1352941,9.12352941 32.1352941,12.5823529 C32.1352941,16.0235294 34.8176471,18.5470588 38.1176471,18.5470588 C41.4176471,18.5470588 44.1,16.0235294 44.1,12.5823529 C44.1,9.12352941 41.4176471,6.61764706 38.1176471,6.61764706 Z M38.1176471,16.1823529 C36.3176471,16.1823529 34.7470588,14.7 34.7470588,12.5647059 C34.7470588,10.4117647 36.3,8.94705882 38.1176471,8.94705882 C39.9352941,8.94705882 41.4882353,10.4117647 41.4882353,12.5647059 C41.4882353,14.7 39.9176471,16.1823529 38.1176471,16.1823529 Z" id="Shape" fill="#F4B400"></path>
                <path d="M54.1411765,6.97058824 L54.1411765,7.94117647 L54.0529412,7.94117647 C53.4705882,7.23529412 52.3411765,6.6 50.9117647,6.6 C47.9294118,6.6 45.1941176,9.21176471 45.1941176,12.5823529 C45.1941176,15.9176471 47.9294118,18.5294118 50.9117647,18.5294118 C52.3411765,18.5294118 53.4705882,17.8941176 54.0529412,17.1705882 L54.1411765,17.1705882 L54.1411765,18.0352941 C54.1411765,20.3117647 52.9235294,21.5294118 50.9647059,21.5294118 C49.3588235,21.5294118 48.3705882,20.3823529 47.9647059,19.4117647 L45.6882353,20.3647059 C46.3411765,21.9529412 48.0882353,23.8941176 50.9823529,23.8941176 C54.0529412,23.8941176 56.6470588,22.0941176 56.6470588,17.6823529 L56.6470588,6.97058824 L54.1411765,6.97058824 Z M51.1411765,16.1823529 C49.3411765,16.1823529 47.8235294,14.6647059 47.8235294,12.5823529 C47.8235294,10.4823529 49.3411765,8.94705882 51.1411765,8.94705882 C52.9235294,8.94705882 54.3176471,10.4823529 54.3176471,12.5823529 C54.3352941,14.6823529 52.9235294,16.1823529 51.1411765,16.1823529 Z" id="Shape" fill="#4285F4"></path>
                <rect id="Rectangle-path" fill="#0F9D58" x="58.4470588" y="0.652941176" width="2.61176471" height="17.5235294"></rect>
                <path d="M68.2411765,16.1823529 C66.9,16.1823529 65.9647059,15.5647059 65.3470588,14.3823529 L73.3235294,11.0823529 L73.0588235,10.4117647 C72.5647059,9.07058824 71.0470588,6.61764706 67.9588235,6.61764706 C64.8882353,6.61764706 62.3294118,9.03529412 62.3294118,12.5823529 C62.3294118,15.9176471 64.8529412,18.5470588 68.2411765,18.5470588 C70.9764706,18.5470588 72.5470588,16.8705882 73.2176471,15.9 L71.1882353,14.5411765 C70.5,15.5294118 69.5823529,16.1823529 68.2411765,16.1823529 Z M68.0470588,8.91176471 C69.0882353,8.91176471 69.9705882,9.42352941 70.2529412,10.1823529 L64.9235294,12.3882353 C64.8529412,10.0941176 66.7058824,8.91176471 68.0470588,8.91176471 Z" id="Shape" fill="#DB4437"></path>
            </g>
        </g>
    </g>
</svg>