<svg width="250" height="250" viewBox="0 0 250 250" fill="none" xmlns="http://www.w3.org/2000/svg">
<path d="M83.7534 183.141L53.8525 131.526C52.7029 129.542 52.0977 127.291 52.0977 124.999C52.0977 122.708 52.7029 120.457 53.8525 118.473L83.7534 66.8595C84.9031 64.8749 86.5569 63.2268 88.5484 62.081C90.5399 60.9352 92.799 60.3321 95.0986 60.3322H154.9C157.2 60.3323 159.459 60.9355 161.45 62.0813C163.441 63.2271 165.095 64.875 166.244 66.8595L196.145 118.473C197.295 120.457 197.9 122.708 197.9 125C197.9 127.292 197.295 129.543 196.145 131.527L166.244 183.139C165.095 185.124 163.441 186.772 161.45 187.918C159.459 189.063 157.2 189.667 154.9 189.667H95.0986C92.799 189.667 90.5399 189.064 88.5483 187.918C86.5568 186.772 84.9031 185.124 83.7534 183.139V183.141Z" fill="url(#paint0_linear_2_7362)"/>
<path opacity="0.07" d="M108.27 113.506L100.285 121.441L107.071 128.204L100.352 140.097L151.195 190.767L163.516 190.769L187.576 147.703L149.477 109.732L108.27 113.506Z" fill="black"/>
<path d="M148.578 109.414H101.379C100.619 109.414 99.998 110.034 99.998 110.792V120.516C99.998 121.272 100.62 121.892 101.379 121.892H148.578C149.337 121.892 149.959 121.272 149.959 120.516V110.79C149.959 110.034 149.338 109.413 148.579 109.413L148.578 109.414ZM141.27 118.467C140.522 118.465 139.805 118.167 139.276 117.64C138.748 117.112 138.45 116.397 138.449 115.652C138.449 115.282 138.521 114.917 138.663 114.575C138.805 114.234 139.013 113.924 139.275 113.663C139.537 113.402 139.848 113.195 140.19 113.053C140.533 112.912 140.9 112.84 141.27 112.84C142.831 112.84 144.095 114.092 144.095 115.652C144.095 116.021 144.022 116.388 143.88 116.729C143.738 117.071 143.53 117.381 143.268 117.642C143.006 117.904 142.694 118.111 142.351 118.253C142.009 118.394 141.641 118.467 141.27 118.467ZM148.578 128.106L101.379 128.108C100.619 128.108 99.998 128.728 99.998 129.486V139.209C99.998 139.965 100.62 140.586 101.379 140.586H148.578C149.337 140.586 149.959 139.965 149.959 139.209V129.484C149.959 128.728 149.338 128.106 148.579 128.106H148.578ZM141.27 137.16C140.522 137.158 139.805 136.861 139.276 136.333C138.747 135.806 138.45 135.091 138.449 134.345C138.449 133.975 138.521 133.61 138.663 133.268C138.805 132.927 139.013 132.617 139.275 132.356C139.537 132.095 139.848 131.888 140.19 131.746C140.533 131.605 140.9 131.533 141.27 131.533C141.651 131.518 142.03 131.579 142.386 131.714C142.742 131.848 143.066 132.053 143.341 132.316C143.615 132.578 143.834 132.894 143.983 133.242C144.132 133.591 144.209 133.967 144.209 134.346C144.209 134.725 144.132 135.1 143.983 135.449C143.834 135.798 143.615 136.113 143.341 136.376C143.066 136.639 142.742 136.844 142.386 136.978C142.03 137.113 141.651 137.174 141.27 137.159" fill="white"/>
<defs>
<linearGradient id="paint0_linear_2_7362" x1="124.999" y1="60.3334" x2="124.999" y2="189.466" gradientUnits="userSpaceOnUse">
<stop stop-color="#4387FD"/>
<stop offset="1" stop-color="#4683EA"/>
</linearGradient>
</defs>
</svg>
