<svg width="250" height="250" viewBox="0 0 250 250" fill="none" xmlns="http://www.w3.org/2000/svg">
<path d="M150.285 76.3521V172.851C150.285 183.649 157.722 189.665 165.612 189.665C172.911 189.665 180.939 184.548 180.939 172.851V77.0831C180.939 67.1847 173.641 61 165.612 61C157.584 61 150.285 67.8207 150.285 76.3521Z" fill="#F9AB00"/>
<path d="M110.143 125.333V172.851C110.143 183.649 117.58 189.665 125.47 189.665C132.768 189.665 140.797 184.548 140.797 172.851V126.064C140.797 116.165 133.498 109.981 125.47 109.981C117.441 109.981 110.143 116.801 110.143 125.333Z" fill="#E37400"/>
<path d="M85.3272 189.665C93.7921 189.665 100.654 182.792 100.654 174.313C100.654 165.834 93.7921 158.961 85.3272 158.961C76.8622 158.961 70 165.834 70 174.313C70 182.792 76.8622 189.665 85.3272 189.665Z" fill="#E37400"/>
</svg>
