<svg width="250" height="250" viewBox="0 0 250 250" fill="none" xmlns="http://www.w3.org/2000/svg">
<path d="M147.133 97.4742C147.133 103.731 144.488 109.263 140.147 113.594C135.32 118.403 128.328 119.605 128.328 123.697C128.328 129.229 137.251 127.543 145.811 136.081C151.48 141.737 154.973 149.195 154.973 157.851C154.973 174.928 141.229 188.521 123.987 188.521C106.744 188.521 93 174.944 93 157.867C93 149.206 96.4987 141.747 102.163 136.097C110.723 127.554 119.645 129.24 119.645 123.707C119.645 119.616 112.659 118.414 107.832 113.604C103.491 109.274 100.84 103.741 100.84 97.2455C100.84 84.7435 111.085 74.6355 123.624 74.6355C126.04 74.6355 128.211 74.9972 130.019 74.9972C133.272 74.9972 134.963 73.5555 134.963 71.2679C134.963 69.9432 134.355 68.2621 134.355 66.4586C134.355 62.3676 137.853 59 142.072 59C146.296 59 149.672 62.4899 149.672 66.698C149.672 71.1456 146.173 73.1884 143.523 74.1567C141.352 74.8749 139.661 75.8378 139.661 78.003C139.661 82.0782 147.139 86.0522 147.139 97.4742H147.133ZM144.733 157.867C144.733 145.961 135.933 136.337 123.992 136.337C112.056 136.337 103.256 145.961 103.256 157.867C103.256 169.651 112.056 179.397 123.992 179.397C135.928 179.397 144.733 169.64 144.733 157.867ZM137.613 97.2348C137.613 89.6592 131.464 83.4028 123.987 83.4028C116.515 83.4028 110.365 89.6592 110.365 97.2348C110.365 104.811 116.515 111.067 123.987 111.067C131.464 111.067 137.613 104.811 137.613 97.2348Z" fill="#008561"/>
</svg>
