<svg xmlns="http://www.w3.org/2000/svg" width="200" height="118" fill="none"><g clip-path="url(#a)"><path fill="#FBAF17" d="M190.967 39.114 139.131 7.047l-19.277 11.858a17.255 17.255 0 0 0-6.086 23.875 17.255 17.255 0 0 0 6.549 6.23l8.543 5.215 43.013 26.956L190.7 69.499a17.247 17.247 0 0 0 9.212-15.113 17.247 17.247 0 0 0-8.945-15.272"/><path fill="#E53182" d="M171.892 81.24 128.88 54.284 100.205 71.93v46.064h.052a43.448 43.448 0 0 0 23.807-7.074l47.828-29.68Z"/><path fill="#9643DC" d="M100.081 71.976 78.432 58.619 27.554 27.45c-6.517 4.062-13.034 8.038-19.46 12.197A17.437 17.437 0 0 0 0 54.258a17.253 17.253 0 0 0 9.124 15.215L76.373 110.9a43.39 43.39 0 0 0 23.787 7.092V71.93"/><path fill="#17C0FF" d="M27.554 27.451 78.432 58.62l-7.397-4.564 21.011-12.627a17.254 17.254 0 0 0 8.06-14.602 17.26 17.26 0 0 0-8.06-14.603L72.17 0 27.736 27.34l-.182.111Z"/></g><defs><clipPath id="a"><path fill="#fff" d="M0 0h200v118H0z"/></clipPath></defs></svg>