<?xml version="1.0" encoding="UTF-8" standalone="no"?>
<svg
   width="31.800911"
   height="32"
   viewBox="0 0 31.800911 32"
   fill="none"
   version="1.1"
   id="svg206"
   sodipodi:docname="harness.svg"
   inkscape:version="1.2.1 (9c6d41e410, 2022-07-14, custom)"
   xmlns:inkscape="http://www.inkscape.org/namespaces/inkscape"
   xmlns:sodipodi="http://sodipodi.sourceforge.net/DTD/sodipodi-0.dtd"
   xmlns="http://www.w3.org/2000/svg"
   xmlns:svg="http://www.w3.org/2000/svg">
  <sodipodi:namedview
     id="namedview208"
     pagecolor="#ffffff"
     bordercolor="#666666"
     borderopacity="1.0"
     inkscape:showpageshadow="2"
     inkscape:pageopacity="0.0"
     inkscape:pagecheckerboard="0"
     inkscape:deskcolor="#d1d1d1"
     showgrid="false"
     inkscape:zoom="9.2945205"
     inkscape:cx="72.946205"
     inkscape:cy="16.030951"
     inkscape:window-width="3840"
     inkscape:window-height="2083"
     inkscape:window-x="0"
     inkscape:window-y="40"
     inkscape:window-maximized="1"
     inkscape:current-layer="svg206" />
  <path
     d="M 29.414,10.4764 21.4005,2.40469 C 20.4515,1.50213 19.3211,0.814856 18.0856,0.389233 15.3478,-0.527786 12.623,0.188012 10.4164,2.40469 L 2.38323,10.4764 c -0.89714,0.9548 -1.580297,2.092 -2.003365,3.335 -0.914796,2.7543 -0.203288,5.4955 2.003365,7.7122 l 8.02327,8.0717 c 0.9475,0.9029 2.0769,1.5902 3.3117,2.0155 0.748,0.2543 1.5318,0.3858 2.3214,0.3892 1.9247,0 3.7674,-0.8181 5.3478,-2.4047 l 8.02,-8.0717 c 0.8983,-0.9545 1.5826,-2.0917 2.0067,-3.335 0.9115,-2.7543 0.2,-5.4922 -2.0067,-7.7122 z M 16.515,4.74672 c 0.6061,0.1955 1.1647,0.51691 1.6394,0.94341 L 20.525,8.07834 15.9019,12.7261 11.2787,8.07503 13.6624,5.67363 C 14.3018,5.0337 15.2035,4.35418 16.5216,4.74342 Z M 4.71776,15.3749 c 0.19494,-0.6102 0.5156,-1.1722 0.94103,-1.6493 l 2.3706,-2.3849 4.62321,4.651 L 8.02611,20.6428 5.6424,18.2414 C 5.00303,17.6015 4.33086,16.6944 4.71449,15.3683 Z M 15.2822,27.2434 C 14.6753,27.0496 14.1164,26.728 13.6428,26.3 l -2.3641,-2.3586 4.6232,-4.6543 4.6231,4.651 -2.3837,2.4014 c -0.6394,0.64 -1.5378,1.3195 -2.8591,0.9303 z M 27.086,16.6383 c -0.1949,0.6095 -0.5143,1.1713 -0.9378,1.6493 l -2.3706,2.3552 -4.6231,-4.6511 4.6231,-4.651 2.3838,2.3981 c 0.6393,0.6399 1.3115,1.547 0.9279,2.8731"
     fill="#00abe4"
     id="path195"
     clip-path="url(#clipPath276)" />
  <defs
     id="defs204">
    <clipPath
       clipPathUnits="userSpaceOnUse"
       id="clipPath270">
      <g
         id="g274">
        <rect
           width="146"
           height="32"
           fill="#ffffff"
           id="rect272"
           x="0"
           y="0" />
      </g>
    </clipPath>
    <clipPath
       clipPathUnits="userSpaceOnUse"
       id="clipPath276">
      <g
         id="g280">
        <rect
           width="146"
           height="32"
           fill="#ffffff"
           id="rect278"
           x="0"
           y="0" />
      </g>
    </clipPath>
  </defs>
</svg>
