<svg xmlns="http://www.w3.org/2000/svg" width="146" height="32" fill="none"><g clip-path="url(#a)"><path fill="#00ABE4" d="M29.414 10.476 21.4 2.405A9.122 9.122 0 0 0 18.087.389c-2.738-.917-5.463-.201-7.67 2.016l-8.033 8.071A9.198 9.198 0 0 0 .38 13.811c-.915 2.755-.203 5.496 2.003 7.713l8.024 8.071a9.093 9.093 0 0 0 3.311 2.016A7.31 7.31 0 0 0 16.04 32c1.924 0 3.767-.818 5.347-2.405l8.02-8.071a9.2 9.2 0 0 0 2.007-3.335c.912-2.755.2-5.493-2.007-7.713h.007Zm-12.899-5.73a4.537 4.537 0 0 1 1.64.944l2.37 2.388-4.623 4.648-4.623-4.651 2.383-2.401c.64-.64 1.541-1.32 2.86-.93l-.007.003ZM4.718 15.376c.195-.61.515-1.172.94-1.65l2.371-2.384 4.624 4.65-4.627 4.652-2.384-2.402c-.639-.64-1.311-1.547-.928-2.873l.004.007Zm10.564 11.868a4.476 4.476 0 0 1-1.64-.943l-2.363-2.359 4.623-4.654 4.623 4.651-2.384 2.402c-.64.64-1.537 1.319-2.859.93v-.027Zm11.804-10.605a4.6 4.6 0 0 1-.938 1.65l-2.37 2.355-4.623-4.651 4.623-4.651 2.383 2.398c.64.64 1.312 1.547.928 2.873"/><path fill="#231F20" d="M46.72 27.365h4.141V15.803c0-3.565-2.154-6.198-5.83-6.198-1.79 0-3.708.799-4.705 2.266V3.295h-4.138v24.06h4.138v-9.12c0-2.131 1.063-4.797 3.545-4.797 2.187 0 2.85 1.23 2.85 3.233v10.694Zm16.722-6.838c0 2.543-1.806 3.932-4.367 3.932-1.282 0-2.433-.825-2.433-2.147 0-1.39 1.216-2.148 2.465-2.247l4.335-.33v.792Zm3.45 7.105a4.126 4.126 0 0 0 2.036-.462v-3.04c-.172.04-.348.062-.525.065-.689 0-.95-.297-.95-1.092v-6.376a9.498 9.498 0 0 0-.496-3.47c-.984-2.58-3.482-3.503-6.403-3.503-3.814 0-6.87 1.718-7.1 5.584h3.978c.098-1.586 1.213-2.444 3.121-2.444 2.332 0 2.89 1.089 2.89 2.708v1.06l-5.03.352c-3.253.23-5.781 2.114-5.781 5.387 0 2.81 2.102 5.386 6.177 5.386 2.43 0 4.4-1.187 5.19-2.576.132 1.29 1.115 2.411 2.89 2.411l.002.01Zm12.902-13.791c.219.001.438.016.656.043V9.99c-.178 0-.355-.04-.528-.04-2.007 0-4.043.825-4.83 2.808l-.364-2.576h-3.485v17.185h4.14V18.71c0-2.777 1.512-4.858 4.4-4.858l.01-.01Zm12.958 13.534h4.108V15.899c0-3.569-2.138-6.145-5.784-6.145-1.967 0-4.006.824-5.026 2.639l-.295-2.214h-3.44v17.186h4.105v-7.003c0-1.454-.032-3.24.56-4.595.558-1.257 1.513-2.18 2.952-2.18 2.167 0 2.823 1.224 2.823 3.239l-.003 10.549Zm17.591-10.311h-7.384a4.24 4.24 0 0 1 .888-2.679 3.49 3.49 0 0 1 2.859-1.32 3.416 3.416 0 0 1 2.594.99c.656.73 1.02 1.719 1.052 3.009h-.009Zm4.115 1.85c.065-2.147-.23-4.097-1.479-5.984-1.41-2.147-3.712-3.17-6.23-3.17a7.371 7.371 0 0 0-5.456 2.18c-1.64 1.686-2.462 4.13-2.462 6.875 0 2.81.918 5.222 2.623 6.874a7.445 7.445 0 0 0 2.483 1.605 7.41 7.41 0 0 0 2.907.51c2.167 0 4.302-.693 5.748-2.411.656-.795 1.348-2.148 1.446-3.174h-3.935a3.132 3.132 0 0 1-.823 1.455c-.59.594-1.311.825-2.495.825a3.595 3.595 0 0 1-2.531-1.056 4.563 4.563 0 0 1-1.249-3.371h11.42c0-.366.033-1.158.033-1.158Zm5.515-3.932a1.982 1.982 0 0 1 1.311-1.817 4.24 4.24 0 0 1 1.774-.264 3.29 3.29 0 0 1 2.233.791c.429.43.676 1.01.688 1.62h3.912a5.354 5.354 0 0 0-1.511-3.536c-1.246-1.36-3.315-2.019-5.352-2.019-2.137 0-3.934.627-5.19 1.719a4.883 4.883 0 0 0-1.741 3.866c0 2.18 1.577 4.097 3.908 4.595 1.512.33 3.22.428 4.732.66 1.049.164 1.708.824 1.708 1.817 0 1.883-2.102 2.18-3.482 2.18-1.184 0-1.938-.23-2.597-.758a2.751 2.751 0 0 1-.866-1.564h-3.869a5.81 5.81 0 0 0 1.778 3.546c1.413 1.356 3.351 1.98 5.521 1.98 2.331 0 4.466-.595 5.846-1.98a5.095 5.095 0 0 0 1.131-1.73 5.151 5.151 0 0 0 .355-2.04c0-2.712-1.968-4.43-4.666-4.86-1.676-.263-2.102-.296-3.646-.494-.918-.132-1.968-.498-1.968-1.718l-.009.006Zm21.768.323h3.898a5.354 5.354 0 0 0-1.511-3.536c-1.249-1.352-3.318-2.012-5.341-2.012-2.135 0-3.935.627-5.191 1.719a4.883 4.883 0 0 0-1.741 3.866c0 2.18 1.577 4.097 3.908 4.595 1.512.33 3.22.428 4.732.66 1.049.164 1.708.824 1.708 1.817 0 1.883-2.105 2.18-3.482 2.18-1.184 0-1.938-.23-2.597-.758a2.744 2.744 0 0 1-.865-1.564h-3.883a5.799 5.799 0 0 0 1.781 3.546c1.41 1.356 3.347 1.98 5.518 1.98 2.331 0 4.466-.595 5.846-1.98a5.128 5.128 0 0 0 1.479-3.77c0-2.712-1.967-4.43-4.666-4.86-1.675-.263-2.102-.296-3.646-.494-.918-.132-1.967-.498-1.967-1.718a1.983 1.983 0 0 1 1.311-1.818 4.24 4.24 0 0 1 1.774-.264 3.289 3.289 0 0 1 2.233.792c.43.43.678 1.01.692 1.62"/></g><defs><clipPath id="a"><path fill="#fff" d="M0 0h146v32H0z"/></clipPath></defs></svg>