<svg xmlns="http://www.w3.org/2000/svg" width="2500" height="2500" viewBox="0 0 192.756 192.756"><g fill-rule="evenodd" clip-rule="evenodd"><path fill="#fff" d="M0 0h192.756v192.756H0V0z"/><path d="M23.937 157.336h4.379v10.324H40.77v-10.324h4.379v26.223H40.77v-11.997H28.316v11.997h-4.379v-26.223z"/><path d="M56.721 161.748l-3.916 11.377h7.825l-3.909-11.377zm-2.452-4.412h4.934l9.667 26.223h-4.684l-2.354-6.781h-10.24l-2.305 6.781h-4.575l9.557-26.223z"/><path d="M72.666 161.018v8.07h6.27c1.835 0 3.153-.32 3.952-.959.799-.645 1.196-1.684 1.196-3.117 0-1.404-.391-2.42-1.171-3.053-.781-.625-2.068-.941-3.867-.941h-6.38zm-4.306-3.682h11.344c.348 0 .726.012 1.146.035.128.012.208.02.232.02 2.324 0 4.141.643 5.458 1.938s1.976 3.076 1.976 5.342c0 1.484-.33 2.754-.982 3.811-.659 1.059-1.586 1.818-2.793 2.279 1.074.348 1.848.889 2.317 1.629.47.742.75 1.951.83 3.623l.238 3.756v.035c.067 1.635.433 2.633 1.085 2.99v.766h-4.897a4.626 4.626 0 0 1-.439-1.221c-.098-.469-.171-1.209-.22-2.23l-.146-3.137c-.091-1.684-.445-2.807-1.061-3.359-.616-.561-1.653-.84-3.117-.84H72.702v10.787H68.36v-26.224zM87.452 157.336h4.715l6.636 20.935 6.629-20.935h4.677l-9.111 26.223h-4.397l-9.149-26.223z"/><path d="M109.6 157.336h18.871v3.846h-14.565v6.849h13.436v3.67h-13.436v7.926h15.045v3.932H109.6v-26.223z"/><path d="M148.775 164.986l-4.164.02c-.098-1.484-.66-2.645-1.689-3.49-1.031-.844-2.41-1.264-4.137-1.264-1.426 0-2.592.334-3.494.998-.908.662-1.359 1.488-1.359 2.473 0 .996.396 1.816 1.195 2.449.799.639 2.469 1.281 5.02 1.932 3.873.973 6.396 2.031 7.586 3.168 1.184 1.143 1.775 2.734 1.775 4.775 0 2.469-.928 4.449-2.781 5.951-1.848 1.5-4.324 2.254-7.422 2.254-3.264 0-5.801-.783-7.617-2.352-1.818-1.562-2.795-3.822-2.922-6.764h4.25c.123 1.695.764 3.014 1.922 3.955 1.158.936 2.738 1.404 4.727 1.404 1.5 0 2.732-.365 3.689-1.088s1.439-1.611 1.439-2.668c0-.42-.133-.887-.402-1.416a4.57 4.57 0 0 0-1.031-1.361c-.688-.633-2.225-1.234-4.609-1.816a42.82 42.82 0 0 0-1.16-.287c-2.939-.771-5.02-1.75-6.232-2.947-1.215-1.191-1.824-2.812-1.824-4.867 0-2.188.891-3.963 2.672-5.336 1.781-1.367 4.148-2.055 7.1-2.055 2.873 0 5.166.754 6.873 2.254 1.705 1.502 2.572 3.526 2.595 6.078zM148.254 157.336h20.566v3.846h-8.076v22.377h-4.359v-22.377h-8.131v-3.846zM116.184 11.255c38.207 10.909 60.471 50.966 49.561 89.172-10.908 38.207-50.965 60.469-89.172 49.561-38.206-10.908-60.469-50.967-49.56-89.172C37.92 22.61 77.978.346 116.184 11.255zm-.504 1.765c37.234 10.632 58.932 49.669 48.301 86.904-10.633 37.234-49.67 58.93-86.904 48.299-37.234-10.631-58.931-49.668-48.299-86.903 10.63-37.235 49.668-58.931 86.902-48.3z"/><path d="M113.086 25.71c9.246 2.64 14.633 12.334 11.994 21.58-2.641 9.246-12.334 14.633-21.58 11.994-9.246-2.64-14.633-12.334-11.993-21.58 2.639-9.246 12.335-14.633 21.579-11.994z"/><path d="M165.543 80.563c-.02-3.387-.873-6.593-1.475-9.935-.832-4.614-7.213-6.095-11.453-5.999-7.713.175-15.469-2.153-21.225-4.019-5.758-1.865-12.16 4.426-9.756 12.3 2.406 7.875 5.186 12.057 7.477 18.398 2.488 6.892.602 12.841-2.311 16.855-5.273 7.266-12.184 10.529-19.643 11.07-8.928.65-15.684-2.703-19.717-8.504-3.002-5.422-3.981-11.264-2.11-17.284 2.28-7.334 7.279-13.314 9.367-20.1 2.089-6.786-4.887-18.117-16.617-11.725-11.731 6.392-24.599 8.773-36.682 7.562-6.388-.64-11.659 1.525-13.507 5.455-.755 1.605-.981 3.653-.953 6.096.443 38.197 31.369 69.277 69.474 69.277 38.108.002 69.352-31.078 69.131-69.447z"/></g></svg>