<svg width="250" height="250" viewBox="0 0 250 250" fill="none" xmlns="http://www.w3.org/2000/svg">
<path d="M176.947 124.275C181.125 121.713 184.593 118.146 187.036 113.9C189.478 109.654 190.816 104.864 190.928 99.9686V94.2423C190.928 70.3224 174.456 58 144.39 58H93.0865C92.6737 58 92.2774 58.1621 91.9832 58.4514C91.6891 58.7407 91.5206 59.134 91.5143 59.5463V103.037C91.5206 103.449 91.6891 103.843 91.9832 104.132C92.2774 104.421 92.6737 104.584 93.0865 104.583H117.928C118.341 104.584 118.737 104.421 119.031 104.132C119.325 103.843 119.494 103.449 119.5 103.037V81.2917C119.5 80.8816 119.663 80.4883 119.954 80.1983C120.244 79.9083 120.638 79.7454 121.048 79.7454H144.777C157.234 79.7454 162.773 84.1428 162.773 96.6585V98.5673C162.773 110.648 157.403 115.964 149.373 115.964H64.9313C64.612 115.966 64.3007 116.064 64.0377 116.245C63.7746 116.426 63.572 116.681 63.4559 116.978L57.0943 133.867C57.0088 134.101 56.9808 134.351 57.0129 134.598C57.0449 134.845 57.136 135.08 57.2785 135.284C57.4209 135.488 57.6104 135.654 57.831 135.769C58.0516 135.884 58.2967 135.945 58.5456 135.945H151.09C160.765 135.945 166.038 142.251 166.038 151.819V155.468C166.038 164.263 161.056 170.569 149.107 170.569H121.048C120.839 170.569 120.631 170.527 120.438 170.444C120.246 170.362 120.072 170.242 119.927 170.09C119.782 169.939 119.67 169.76 119.596 169.564C119.523 169.368 119.49 169.159 119.5 168.95V148.896C119.5 148.479 119.334 148.08 119.04 147.785C118.745 147.491 118.345 147.325 117.928 147.325H93.0865C92.6695 147.325 92.2696 147.491 91.9748 147.785C91.6799 148.08 91.5143 148.479 91.5143 148.896V190.454C91.5206 190.866 91.6891 191.259 91.9832 191.549C92.2774 191.838 92.6737 192 93.0865 192H149.566C180.019 192 194 177.503 194 157.57V150.877C193.995 145.28 192.386 139.801 189.365 135.087C186.343 130.374 182.034 126.622 176.947 124.275Z" fill="#546AE4"/>
</svg>
