<?xml version="1.0" standalone="no"?>
<!DOCTYPE svg PUBLIC "-//W3C//DTD SVG 20010904//EN"
 "http://www.w3.org/TR/2001/REC-SVG-20010904/DTD/svg10.dtd">
<svg version="1.0" xmlns="http://www.w3.org/2000/svg"
 width="1501.000000pt" height="1501.000000pt" viewBox="0 0 1501.000000 1501.000000"
 preserveAspectRatio="xMidYMid meet">

<g transform="translate(0.000000,1501.000000) scale(0.100000,-0.100000)"
fill="#000000" stroke="none">
<path d="M0 7505 l0 -7495 7500 0 7500 0 0 7495 0 7495 -7500 0 -7500 0 0
-7495z m9300 4822 c625 -82 1245 -302 1589 -564 237 -180 447 -449 559 -718
17 -39 50 -113 75 -165 80 -170 139 -364 174 -575 27 -166 24 -596 -5 -790
-56 -362 -161 -660 -308 -872 -26 -37 -57 -81 -68 -98 -70 -102 -201 -239
-361 -380 -51 -45 -306 -211 -385 -250 -92 -46 -260 -114 -360 -145 -55 -18
-68 -25 -50 -28 66 -9 336 -84 425 -117 260 -95 538 -252 702 -393 44 -39 84
-68 89 -64 4 4 4 2 1 -4 -4 -7 14 -31 41 -55 235 -215 432 -560 532 -929 77
-284 93 -420 92 -780 -2 -478 -37 -732 -149 -1090 -46 -148 -71 -202 -187
-401 -107 -184 -353 -458 -545 -606 -176 -137 -365 -246 -556 -321 -423 -167
-877 -271 -1360 -312 -76 -6 -853 -10 -2118 -10 l-1997 0 2 1757 3 1758 793 3
792 2 0 -1151 0 -1150 933 4 c1007 4 1048 6 1362 62 379 69 644 173 873 345
89 66 99 76 169 156 135 155 189 279 242 556 79 412 34 924 -105 1206 -79 161
-269 364 -438 469 -105 65 -250 139 -292 149 -16 4 -33 10 -39 14 -17 13 -207
69 -326 96 -156 35 -377 62 -609 74 -122 6 -1285 10 -3107 10 l-2913 0 0 630
0 630 3023 0 c2056 0 3051 3 3112 10 302 36 610 108 747 177 152 76 303 201
407 338 60 79 187 331 225 445 98 297 98 664 0 957 -28 84 -141 310 -185 370
-40 55 -175 193 -189 193 -3 0 -22 14 -40 30 -18 17 -37 30 -41 30 -5 0 -27
13 -51 29 -144 97 -462 196 -758 235 -227 31 -405 36 -1197 36 l-803 0 -2
-1007 -3 -1008 -790 0 -790 0 -3 1618 -2 1617 2017 -3 c1859 -2 2029 -4 2153
-20z"/>
</g>
</svg>
