<svg xmlns="http://www.w3.org/2000/svg" xml:space="preserve" style="enable-background:new 0 0 512.002 512.002" viewBox="0 0 512.002 512.002"><path d="M437.333 213.334c5.888 0 10.667-4.779 10.667-10.667v-128c0-29.397-23.915-53.333-53.333-53.333H53.333C23.915 21.334 0 45.271 0 74.668v362.667c0 29.397 23.915 53.333 53.333 53.333h341.333c29.419 0 53.333-23.936 53.333-53.333v-64c0-5.888-4.779-10.667-10.667-10.667s-10.667 4.779-10.667 10.667v64c0 17.643-14.357 32-32 32H53.333c-17.643 0-32-14.357-32-32V128.001h405.333v74.667c.001 5.888 4.779 10.666 10.667 10.666zm-416-106.666v-32c0-17.643 14.357-32 32-32h341.333c17.643 0 32 14.357 32 32v32H21.333z"/><circle cx="53.333" cy="74.668" r="10.667"/><circle cx="96" cy="74.668" r="10.667"/><circle cx="138.667" cy="74.668" r="10.667"/><path d="M117.333 234.668c-5.888 0-10.667 4.779-10.667 10.667v32H64v-32c0-5.888-4.779-10.667-10.667-10.667s-10.667 4.779-10.667 10.667v85.333c0 5.888 4.779 10.667 10.667 10.667S64 336.556 64 330.668v-32h42.667v32c0 5.888 4.779 10.667 10.667 10.667S128 336.556 128 330.668v-85.333c0-5.889-4.779-10.667-10.667-10.667zM202.667 234.668H160c-5.888 0-10.667 4.779-10.667 10.667s4.779 10.667 10.667 10.667h10.667v74.667c0 5.888 4.779 10.667 10.667 10.667S192 336.556 192 330.668v-74.667h10.667c5.888 0 10.667-4.779 10.667-10.667s-4.779-10.666-10.667-10.666zM288 234.668h-42.667c-5.888 0-10.667 4.779-10.667 10.667s4.779 10.667 10.667 10.667H256v74.667c0 5.888 4.779 10.667 10.667 10.667s10.667-4.779 10.667-10.667v-74.667H288c5.888 0 10.667-4.779 10.667-10.667s-4.779-10.667-10.667-10.667zM352 234.668h-21.333c-5.888 0-10.667 4.779-10.667 10.667v85.333c0 5.888 4.779 10.667 10.667 10.667s10.667-4.779 10.667-10.667v-32H352c17.643 0 32-14.357 32-32s-14.357-32-32-32zm0 42.666h-10.667v-21.333H352c5.867 0 10.667 4.779 10.667 10.667s-4.8 10.666-10.667 10.666zM503.915 234.988c-5.803-1.493-11.52 2.027-12.928 7.765l-21.333 85.333a10.643 10.643 0 0 0 7.765 12.928c.875.213 1.728.32 2.581.32 4.8 0 9.152-3.221 10.347-8.085l21.333-85.333a10.643 10.643 0 0 0-7.765-12.928zM461.248 234.988c-5.824-1.493-11.52 2.027-12.928 7.765l-21.333 85.333a10.643 10.643 0 0 0 7.765 12.928c.875.213 1.728.32 2.581.32 4.8 0 9.152-3.221 10.347-8.085l21.333-85.333a10.641 10.641 0 0 0-7.765-12.928z"/><circle cx="416" cy="266.668" r="10.667"/><circle cx="416" cy="309.335" r="10.667"/></svg>