<svg xmlns="http://www.w3.org/2000/svg" width="250" height="250" fill="none"><g clip-path="url(#a)"><path fill="#615EFF" d="M200.745 218.706a12.051 12.051 0 0 1-3.483 8.475 11.837 11.837 0 0 1-8.4 3.514H62.072c-3.15 0-6.173-1.261-8.403-3.507a12.053 12.053 0 0 1-3.49-8.472V31.485a12.08 12.08 0 0 1 .903-4.593 11.996 11.996 0 0 1 2.578-3.894 11.875 11.875 0 0 1 3.86-2.6 11.791 11.791 0 0 1 4.552-.912h81.371l57.302 58.96v140.26Z"/><path fill="#1A194D" d="m149.748 76.907 50.997 49.177V78.101h-45.174a11.33 11.33 0 0 1-5.643-1.433l-.18.24Z" opacity=".3"/><path fill="#C5C4FF" d="M200.746 78.35h-45.297a11.836 11.836 0 0 1-8.399-3.514 12.055 12.055 0 0 1-3.484-8.475v-47.2l57.18 59.189Z"/><path fill="#fff" d="M92.249 176.441h-8.224v-14.346H71.843v14.346h-8.27v-34.355h8.27v13.638h12.182v-13.638h8.224v34.355Zm31.48-27.96h-10.297v27.96h-8.27v-27.96h-10.11v-6.395h28.677v6.395Zm30.821 0h-10.297v27.96h-8.271v-27.96h-10.108v-6.395h28.676v6.395Zm11.782 16.304v11.656h-8.271v-34.355h13.691c2.623 0 4.94.488 6.951 1.463 2.026.96 3.589 2.336 4.689 4.129 1.115 1.778 1.673 3.799 1.673 6.064 0 3.351-1.202 6.033-3.605 8.046-2.388 1.998-5.671 2.997-9.85 2.997h-5.278Zm0-6.394h5.42c1.602 0 2.819-.401 3.652-1.204.848-.802 1.272-1.935 1.272-3.397 0-1.605-.432-2.887-1.296-3.847-.864-.959-2.042-1.447-3.534-1.462h-5.514v9.91Z"/></g><defs><clipPath id="a"><path fill="#fff" d="M50 19h151v212H50z"/></clipPath></defs></svg>