<svg width="250" height="250" viewBox="0 0 250 250" fill="none" xmlns="http://www.w3.org/2000/svg">
<path d="M173.836 185.114C173.835 187.153 173.03 189.108 171.599 190.55C170.167 191.992 168.227 192.803 166.203 192.804H84.7546C82.7306 192.804 80.7894 191.995 79.3571 190.554C77.9247 189.114 77.1185 187.159 77.1152 185.12V65.009C77.1144 63.998 77.3115 62.9968 77.6951 62.0626C78.0788 61.1284 78.6414 60.2795 79.351 59.5647C80.0605 58.8498 80.903 58.2829 81.8302 57.8963C82.7574 57.5098 83.7512 57.3113 84.7546 57.3121H137.026L173.836 95.1347V185.114Z" fill="#615EFF"/>
<path opacity="0.3" d="M141.076 94.148L173.835 125.696V94.914H144.817C143.55 94.9285 142.301 94.6118 141.192 93.9948L141.076 94.148Z" fill="#1A194D"/>
<path d="M173.837 95.0734H144.739C142.715 95.0717 140.774 94.2609 139.343 92.819C137.912 91.377 137.107 89.4218 137.105 87.3826V57.1037L173.837 95.0734Z" fill="#C5C4FF"/>
<path d="M104.14 158H98.8574V148.797H91.0317V158H85.7188V135.961H91.0317V144.71H98.8574V135.961H104.14V158Z" fill="white"/>
<path d="M124.363 140.063H117.748V158H112.435V140.063H105.941V135.961H124.363V140.063Z" fill="white"/>
<path d="M144.162 140.063H137.547V158H132.234V140.063H125.74V135.961H144.162V140.063Z" fill="white"/>
<path d="M151.73 150.522V158H146.417V135.961H155.211C156.897 135.961 158.385 136.274 159.677 136.899C160.979 137.515 161.983 138.398 162.689 139.548C163.405 140.689 163.764 141.985 163.764 143.438C163.764 145.588 162.992 147.308 161.448 148.6C159.914 149.882 157.805 150.522 155.121 150.522H151.73ZM151.73 146.42H155.211C156.241 146.42 157.023 146.163 157.558 145.648C158.103 145.134 158.375 144.407 158.375 143.469C158.375 142.439 158.097 141.617 157.542 141.001C156.987 140.386 156.231 140.073 155.272 140.063H151.73V146.42Z" fill="white"/>
</svg>
