<svg xmlns="http://www.w3.org/2000/svg" xmlns:xlink="http://www.w3.org/1999/xlink" width="142.88" height="148.18" viewBox="52 48 146.884 152.176"><defs><path id="a" d="M156.8 155.78c-11.07 0-20.04-8.88-20.04-19.83 0-10.96 8.97-19.83 20.04-19.83 11.07 0 20.04 8.87 20.04 19.83 0 10.95-8.97 19.83-20.04 19.83m6-58.01V80.13c4.65-2.18 7.91-6.84 7.91-12.24v-.41c0-7.46-6.17-13.56-13.71-13.56h-.41c-7.54 0-13.71 6.1-13.71 13.56v.41c0 5.4 3.26 10.06 7.92 12.24v17.64c-6.93 1.06-13.26 3.89-18.48 8.05-4.9-3.77-44.05-33.91-48.95-37.68.33-1.23.55-2.49.55-3.82.01-8.45-6.9-15.31-15.44-15.32-8.54-.01-15.47 6.83-15.48 15.28-.01 8.45 6.9 15.31 15.44 15.32 2.78.01 5.36-.78 7.62-2.05 4.81 3.71 43.33 33.36 48.14 37.07-4.09 6.11-6.49 13.44-6.49 21.33 0 8.25 2.64 15.89 7.09 22.17-1.46 1.45-13.18 13.04-14.64 14.49-1.16-.34-2.36-.58-3.63-.58-7.02 0-12.71 5.63-12.71 12.57 0 6.95 5.69 12.58 12.71 12.58 7.02 0 12.71-5.63 12.71-12.58 0-1.25-.25-2.44-.59-3.59 1.44-1.43 13.03-12.9 14.48-14.33 6.57 4.96 14.76 7.95 23.67 7.95 21.59 0 39.08-17.32 39.08-38.68 0-19.34-14.35-35.32-33.08-38.18"/></defs><use xlink:href="#a" fill="#ff7a59"/><use xlink:href="#a" fill-opacity="0" stroke="#000" stroke-opacity="0"/></svg>