<svg width="250" height="250" viewBox="0 0 250 250" fill="none" xmlns="http://www.w3.org/2000/svg">
<path d="M157.619 104.006V88.739C159.636 87.7961 161.344 86.2995 162.545 84.4235C163.745 82.5475 164.387 80.3693 164.397 78.1423V77.792C164.397 71.2989 159.134 66.0352 152.641 66.0352H152.29C145.797 66.0352 140.534 71.2989 140.534 77.792V78.1423C140.544 80.3693 141.186 82.5475 142.386 84.4235C143.586 86.2995 145.295 87.7961 147.312 88.739V104.006C141.514 104.894 136.053 107.298 131.482 110.976L89.6117 78.3627C89.9103 77.2849 90.066 76.1766 90.0836 75.0642C90.0887 72.444 89.3167 69.8812 87.865 67.6999C86.4134 65.5186 84.3475 63.8168 81.9286 62.8098C79.5097 61.8027 76.8464 61.5357 74.2757 62.0425C71.705 62.5493 69.3424 63.8071 67.4866 65.6569C65.6309 67.5066 64.3654 69.8651 63.8503 72.4342C63.3352 75.0032 63.5936 77.6673 64.5927 80.0895C65.5919 82.5117 67.287 84.5831 69.4636 86.0418C71.6402 87.5005 74.2005 88.2809 76.8206 88.2842C79.1128 88.2734 81.362 87.6615 83.3437 86.5095L124.574 118.593C116.994 130.044 117.197 144.968 125.085 156.209L112.545 168.753C111.531 168.429 110.475 168.257 109.411 168.243C103.405 168.248 98.5398 173.118 98.5414 179.124C98.5429 185.129 103.411 189.997 109.416 189.998C115.422 190 120.293 185.135 120.298 179.129C120.284 178.065 120.111 177.009 119.787 175.996L132.192 163.585C143.277 172.119 158.501 172.854 170.357 165.428C182.212 158.002 188.195 143.983 185.354 130.286C182.513 116.589 171.449 106.105 157.619 104.006V104.006ZM152.477 154.218C150.185 154.28 147.904 153.881 145.768 153.047C143.633 152.212 141.686 150.959 140.043 149.359C138.401 147.76 137.095 145.848 136.203 143.736C135.312 141.623 134.852 139.354 134.852 137.061C134.852 134.769 135.312 132.499 136.203 130.387C137.095 128.275 138.401 126.363 140.043 124.763C141.686 123.164 143.633 121.91 145.768 121.076C147.904 120.241 150.185 119.843 152.477 119.905C161.713 120.228 169.034 127.807 169.039 137.049C169.043 146.29 161.73 153.876 152.494 154.209" fill="#FF7A59"/>
</svg>
