<?xml version="1.0" standalone="no"?>
<!DOCTYPE svg PUBLIC "-//W3C//DTD SVG 20010904//EN"
 "http://www.w3.org/TR/2001/REC-SVG-20010904/DTD/svg10.dtd">
<svg version="1.0" xmlns="http://www.w3.org/2000/svg"
 width="512.000000pt" height="512.000000pt" viewBox="0 0 512.000000 512.000000"
 preserveAspectRatio="xMidYMid meet">

<g transform="translate(0.000000,512.000000) scale(0.100000,-0.100000)"
fill="#000000" stroke="none">
<path d="M640 3665 c0 -547 2 -995 4 -995 2 0 107 44 233 99 345 149 519 198
674 189 133 -8 191 -57 277 -238 25 -52 46 -96 47 -98 1 -1 65 41 141 94 853
589 1643 917 2434 1008 74 9 141 16 148 16 9 0 12 99 12 460 l0 460 -1985 0
-1985 0 0 -995z"/>
<path d="M4215 3355 c-434 -61 -850 -212 -1333 -482 -190 -106 -362 -211 -727
-443 -675 -429 -1427 -880 -1575 -945 -52 -23 -137 -57 -188 -76 -51 -18 -88
-35 -81 -38 6 -2 84 -13 172 -25 l162 -21 3 -428 2 -427 1975 0 1975 0 0 515
c0 307 -4 515 -9 515 -5 0 -63 -24 -129 -54 -578 -261 -1169 -329 -1809 -205
-296 57 -546 193 -703 381 -156 188 -172 327 -53 459 50 55 116 93 149 85 14
-4 48 -27 74 -52 105 -98 345 -204 545 -238 50 -9 173 -21 273 -27 478 -27
909 55 1317 250 396 190 651 402 783 651 162 304 80 480 -273 586 -81 24 -109
27 -270 30 -118 2 -215 -2 -280 -11z"/>
<path d="M1200 2690 c-143 -18 -375 -92 -533 -171 -264 -131 -475 -330 -628
-591 -36 -61 -39 -72 -39 -140 l0 -74 65 -23 c65 -23 67 -23 153 -7 136 24
186 46 404 172 341 197 816 483 941 566 131 88 130 85 62 152 -93 94 -253 137
-425 116z"/>
</g>
</svg>
