<svg width="250" height="250" viewBox="0 0 250 250" fill="none" xmlns="http://www.w3.org/2000/svg">
<path d="M93.2182 189.537C85.4276 189.182 81.1955 187.886 78.3806 186.788C74.6507 185.336 71.9916 183.607 69.1922 180.812C66.3929 178.016 64.6604 175.357 63.2159 171.627C62.118 168.812 60.8215 164.58 60.4672 156.79C60.0779 148.368 60 145.841 60 124.506C60 103.17 60.0857 100.647 60.4633 92.2182C60.8176 84.4276 62.1219 80.2033 63.212 77.3806C64.6642 73.6507 66.3968 70.9916 69.1883 68.1883C71.9838 65.3929 74.6429 63.6565 78.3767 62.212C81.1916 61.1141 85.4237 59.8176 93.2143 59.4633C101.64 59.0779 104.17 59 125.498 59C146.834 59 149.357 59.0857 157.786 59.4633C165.576 59.8176 169.801 61.1219 172.623 62.212C176.353 63.6565 179.012 65.3929 181.812 68.1883C184.611 70.9838 186.336 73.6468 187.788 77.3767C188.886 80.1916 190.182 84.4237 190.537 92.2143C190.922 100.643 191 103.166 191 124.502C191 145.83 190.922 148.36 190.537 156.79C190.182 164.58 188.878 168.812 187.788 171.627C186.336 175.357 184.607 178.016 181.812 180.812C179.016 183.607 176.353 185.336 172.623 186.788C169.808 187.886 165.576 189.182 157.786 189.537C149.364 189.922 146.834 190 125.498 190C104.17 190 101.64 189.926 93.2182 189.537Z" fill="url(#paint0_radial_2_7284)"/>
<path d="M93.2182 189.537C85.4276 189.182 81.1955 187.886 78.3806 186.788C74.6507 185.336 71.9916 183.607 69.1922 180.812C66.3929 178.016 64.6604 175.357 63.2159 171.627C62.118 168.812 60.8215 164.58 60.4672 156.79C60.0779 148.368 60 145.841 60 124.506C60 103.17 60.0857 100.647 60.4633 92.2182C60.8176 84.4276 62.1219 80.2033 63.212 77.3806C64.6642 73.6507 66.3968 70.9916 69.1883 68.1883C71.9838 65.3929 74.6429 63.6565 78.3767 62.212C81.1916 61.1141 85.4237 59.8176 93.2143 59.4633C101.64 59.0779 104.17 59 125.498 59C146.834 59 149.357 59.0857 157.786 59.4633C165.576 59.8176 169.801 61.1219 172.623 62.212C176.353 63.6565 179.012 65.3929 181.812 68.1883C184.611 70.9838 186.336 73.6468 187.788 77.3767C188.886 80.1916 190.182 84.4237 190.537 92.2143C190.922 100.643 191 103.166 191 124.502C191 145.83 190.922 148.36 190.537 156.79C190.182 164.58 188.878 168.812 187.788 171.627C186.336 175.357 184.607 178.016 181.812 180.812C179.016 183.607 176.353 185.336 172.623 186.788C169.808 187.886 165.576 189.182 157.786 189.537C149.364 189.922 146.834 190 125.498 190C104.17 190 101.64 189.926 93.2182 189.537Z" fill="url(#paint1_radial_2_7284)"/>
<path d="M109.416 124.779C109.416 115.82 116.677 108.556 125.636 108.556C134.595 108.556 141.859 115.82 141.859 124.779C141.859 133.738 134.595 141.003 125.636 141.003C116.677 141.003 109.416 133.738 109.416 124.779ZM100.646 124.779C100.646 138.581 111.834 149.769 125.636 149.769C139.438 149.769 150.626 138.581 150.626 124.779C150.626 110.977 139.438 99.7893 125.636 99.7893C111.834 99.7893 100.646 110.976 100.646 124.779H100.646ZM145.775 98.7984C145.775 99.9534 146.117 101.083 146.758 102.043C147.4 103.004 148.311 103.753 149.378 104.195C150.445 104.638 151.62 104.754 152.752 104.529C153.885 104.304 154.926 103.748 155.743 102.932C156.56 102.115 157.117 101.075 157.343 99.9424C157.569 98.8096 157.453 97.6353 157.012 96.568C156.57 95.5007 155.822 94.5883 154.862 93.9462C153.902 93.3041 152.773 92.9611 151.618 92.9607H151.615C150.067 92.9614 148.582 93.5766 147.487 94.6712C146.393 95.7657 145.777 97.2501 145.775 98.7984ZM105.974 164.393C101.229 164.177 98.6505 163.387 96.9366 162.719C94.6645 161.835 93.0433 160.781 91.3388 159.079C89.6342 157.377 88.5791 155.757 87.6985 153.485C87.0304 151.772 86.24 149.192 86.0243 144.447C85.7884 139.317 85.7413 137.776 85.7413 124.78C85.7413 111.784 85.7923 110.247 86.0243 105.113C86.2404 100.368 87.0366 97.7931 87.6985 96.075C88.583 93.8028 89.6366 92.1816 91.3388 90.4771C93.0409 88.7726 94.6606 87.7175 96.9366 86.8368C98.6497 86.1687 101.229 85.3784 105.974 85.1627C111.104 84.9267 112.645 84.8796 125.636 84.8796C138.626 84.8796 140.169 84.9298 145.303 85.1634C150.048 85.3795 152.623 86.1757 154.341 86.8376C156.613 87.7183 158.234 88.7757 159.939 90.4779C161.643 92.1801 162.694 93.8036 163.579 96.0758C164.247 97.7888 165.037 100.369 165.253 105.113C165.489 110.248 165.536 111.784 165.536 124.781C165.536 137.777 165.489 139.314 165.253 144.448C165.037 149.193 164.243 151.772 163.579 153.486C162.694 155.758 161.641 157.379 159.939 159.08C158.236 160.78 156.613 161.835 154.341 162.72C152.628 163.388 150.048 164.178 145.303 164.394C140.173 164.63 138.632 164.677 125.636 164.677C112.639 164.677 111.103 164.63 105.974 164.394V164.393ZM105.571 76.4069C100.39 76.6428 96.8502 77.4643 93.7585 78.6674C90.5585 79.9097 87.846 81.5765 85.1374 84.2808C82.4288 86.9851 80.7663 89.698 79.524 92.9019C78.3209 95.9956 77.4994 99.5338 77.2635 104.715C77.0236 109.904 76.9688 111.563 76.9688 124.779C76.9688 137.996 77.0236 139.655 77.2635 144.844C77.4994 150.025 78.3209 153.563 79.524 156.657C80.7663 159.856 82.4292 162.574 85.1374 165.278C87.8456 167.981 90.5546 169.645 93.7585 170.891C96.856 172.094 100.39 172.916 105.571 173.152C110.763 173.387 112.419 173.446 125.636 173.446C138.852 173.446 140.511 173.391 145.7 173.152C150.882 172.916 154.419 172.094 157.513 170.891C160.713 169.645 163.426 167.982 166.134 165.278C168.843 162.573 170.502 159.856 171.748 156.657C172.951 153.563 173.776 150.025 174.008 144.844C174.244 139.651 174.299 137.996 174.299 124.779C174.299 111.563 174.244 109.904 174.008 104.715C173.772 99.5335 172.951 95.9936 171.748 92.9019C170.502 89.7019 168.838 86.9894 166.134 84.2808C163.43 81.5722 160.713 79.9097 157.517 78.6674C154.419 77.4643 150.881 76.6389 145.704 76.4069C140.514 76.1698 138.856 76.1122 125.642 76.1122C112.427 76.1122 110.765 76.167 105.573 76.4069" fill="white"/>
<defs>
<radialGradient id="paint0_radial_2_7284" cx="0" cy="0" r="1" gradientUnits="userSpaceOnUse" gradientTransform="translate(68.4782 187.13) scale(166.321)">
<stop offset="0.09" stop-color="#FA8F21"/>
<stop offset="0.78" stop-color="#D82D7E"/>
</radialGradient>
<radialGradient id="paint1_radial_2_7284" cx="0" cy="0" r="1" gradientUnits="userSpaceOnUse" gradientTransform="translate(150.739 182.924) scale(146.364)">
<stop offset="0.64" stop-color="#8C3AAA" stop-opacity="0"/>
<stop offset="1" stop-color="#8C3AAA"/>
</radialGradient>
</defs>
</svg>
