<svg width="250" height="250" viewBox="0 0 250 250" fill="none" xmlns="http://www.w3.org/2000/svg">
<path d="M172.394 62H77.0783C68.1901 62 61.123 69.0065 61.123 77.6813V172.181C61.123 180.993 68.1901 188 77.0783 188H172.394C181.144 188 188.211 180.993 188.211 172.319V77.8187C188.211 69.0065 181.144 62 172.394 62ZM141.612 85.1C141.612 82.7252 143.453 80.9 145.848 80.9C148.244 80.9 150.085 82.7252 150.085 85.1V141.231C150.085 143.606 148.244 145.431 145.848 145.431C143.453 145.431 141.612 143.606 141.612 141.231V85.1ZM120.431 83C120.431 80.6252 122.272 78.8 124.667 78.8C127.062 78.8 128.903 80.6252 128.903 83V143.9C128.903 146.275 127.062 148.1 124.667 148.1C122.272 148.1 120.431 146.275 120.431 143.9V83ZM99.2495 85.1C99.2495 82.7252 101.09 80.9 103.486 80.9C105.881 80.9 107.722 82.7252 107.722 85.1V141.231C107.722 143.606 105.881 145.431 103.486 145.431C101.09 145.431 99.2495 143.606 99.2495 141.231V85.1ZM78.0681 93.5C78.0681 91.1252 79.9091 89.3 82.3044 89.3C84.6997 89.3 86.5406 91.1252 86.5406 93.5V131.3C86.5406 133.675 84.6997 135.5 82.3044 135.5C79.9091 135.5 78.0681 133.675 78.0681 131.3V93.5ZM169.861 157.619C169.148 158.188 153.49 171.2 124.667 171.2C95.8446 171.2 80.1863 158.188 79.4736 157.619C77.6326 156.088 77.494 153.419 79.0579 151.731C80.602 149.906 83.2942 149.768 84.9966 151.319C85.2737 151.319 99.2495 162.8 124.667 162.8C150.362 162.8 164.199 151.319 164.199 151.181C166.04 149.65 168.712 149.925 170.138 151.593C171.82 153.419 171.543 156.088 169.861 157.619ZM171.266 131.3C171.266 133.675 169.425 135.5 167.03 135.5C164.634 135.5 162.793 133.675 162.793 131.3V93.5C162.793 91.1252 164.634 89.3 167.03 89.3C169.425 89.3 171.266 91.1252 171.266 93.5V131.3Z" fill="#1F8DED"/>
</svg>
