<svg xmlns="http://www.w3.org/2000/svg" width="250" height="250" fill="none"><path fill="#FFC500" fill-rule="evenodd" d="M79.143 25.143H63.857v15.286H48.571v15.285H33.286v45.857H48.57v61.143H33.286v30.572H18v15.285h15.286v15.286H48.57v-15.286H33.286v-15.285h30.571v15.285h15.286V178H63.857v-15.286H94.43V178h15.285v15.286H125V178h15.286v15.286h15.285V178h-15.285v-15.286h45.857V178h-15.286v30.571h15.286v-15.285h30.571v15.285h-15.285v15.286h15.285v-15.286H232v-15.285h-15.286v-30.572h-15.285v-61.143h15.285V55.714h-15.285V40.43h-15.286V25.143h-30.572v15.286h30.572V71h-15.286V55.714H79.143V71H63.857V40.429H94.43V25.143H79.143ZM125 178h-15.286v-15.286H125V178Zm45.857-45.857v-30.572h-15.286V86.286h-15.285v15.285h15.285v15.286h-15.285v15.286h30.571Zm-61.143-30.572V86.286H94.429v15.285H79.143v30.572h30.571v-15.286H94.429v-15.286h15.285Z" clip-rule="evenodd"/></svg>