<svg id="Layer_1" data-name="Layer 1" xmlns="http://www.w3.org/2000/svg" viewBox="0 0 245.4 95.7"><defs><style>.cls-1{opacity:0.7;}.cls-2{opacity:0.85;}</style></defs><title>Artboard 1</title><path class="cls-1" d="M10.84,75.45V32.25a1.35,1.35,0,0,1,.6-1.11L36.1,14.48a1.41,1.41,0,0,1,2.2,1.12V58.79a1.35,1.35,0,0,1-.6,1.12L13.05,76.56A1.41,1.41,0,0,1,10.84,75.45Zm4.76-40.8v32a1.4,1.4,0,0,0,2.2,1.12L33,57.51a1.37,1.37,0,0,0,.6-1.12v-32a1.41,1.41,0,0,0-2.21-1.12L16.2,33.54A1.33,1.33,0,0,0,15.6,34.65Z"/><path class="cls-2" d="M22.46,78.51V35.32a1.35,1.35,0,0,1,.6-1.12L47.71,17.55a1.41,1.41,0,0,1,2.21,1.11v43.2a1.35,1.35,0,0,1-.6,1.11L24.66,79.63A1.41,1.41,0,0,1,22.46,78.51Zm4.75-40.79v32a1.41,1.41,0,0,0,2.21,1.12L44.56,60.57a1.33,1.33,0,0,0,.6-1.11v-32A1.4,1.4,0,0,0,43,26.37L27.81,36.6A1.37,1.37,0,0,0,27.21,37.72Z"/><path d="M35.13,81.58V38.38a1.35,1.35,0,0,1,.6-1.11L60.39,20.62a1.4,1.4,0,0,1,2.2,1.11v43.2A1.33,1.33,0,0,1,62,66L37.34,82.69A1.41,1.41,0,0,1,35.13,81.58Zm4.76-40.8v32a1.4,1.4,0,0,0,2.2,1.11L57.24,63.64a1.35,1.35,0,0,0,.6-1.11v-32a1.41,1.41,0,0,0-2.21-1.11L40.48,39.67A1.34,1.34,0,0,0,39.89,40.78Z"/><path d="M80.83,29.8v7.92H72.92V29.8Zm0,10.17V66.79H72.92V40Z"/><path d="M98.45,39.42q6.14,0,9.56,4a14.91,14.91,0,0,1,3.44,10,14.28,14.28,0,0,1-3.57,9.92,12.15,12.15,0,0,1-9.48,4,11.58,11.58,0,0,1-9.17-3.93A14.78,14.78,0,0,1,85.8,53.33a15.64,15.64,0,0,1,1.55-7.26,12.89,12.89,0,0,1,4.26-4.82A11.93,11.93,0,0,1,98.45,39.42Zm.21,5.17a3.79,3.79,0,0,0-3.39,1.74q-1.12,1.74-1.13,6.92,0,4.76,1.08,6.82a3.58,3.58,0,0,0,3.39,2.07,3.83,3.83,0,0,0,3.26-1.76q1.25-1.77,1.24-6.73c0-3.53-.37-5.91-1.1-7.17A3.62,3.62,0,0,0,98.66,44.59Z"/><path d="M154.75,66.79h-7.91V52a26.16,26.16,0,0,0-.19-4.08,2.51,2.51,0,0,0-1-1.56,3.35,3.35,0,0,0-2.16-.63,4.66,4.66,0,0,0-2.65.93q-1.37.93-1.36,5.34V66.79H131.6V52a18.32,18.32,0,0,0-.29-4.16,3,3,0,0,0-1.1-1.52,3.46,3.46,0,0,0-2.06-.59,3.59,3.59,0,0,0-3,1.29c-.67.86-1,2.52-1,5V66.79h-7.67V40h7.43v4.09q1.89-4.65,7.56-4.64a7.71,7.71,0,0,1,7.42,4.64q2.22-4.65,7.78-4.64a9.1,9.1,0,0,1,4.56,1.08,6.42,6.42,0,0,1,2.74,2.85,15.45,15.45,0,0,1,.82,6Z"/><path d="M185.34,54.71H168.08c0,.48,0,.89,0,1.25a5.69,5.69,0,0,0,1.53,4.32,5.07,5.07,0,0,0,3.65,1.46c2.64,0,4.22-1.4,4.75-4.22l7.36,0c-1.86,7.22-6.25,9.87-12.38,9.87a13.51,13.51,0,0,1-6.81-1.61,12.76,12.76,0,0,1-4.62-4.69,14.27,14.27,0,0,1-1.81-7.38q0-6.39,3.65-10.32a12.9,12.9,0,0,1,18.26-.28Q185.33,46.72,185.34,54.71Zm-17.29-4.6h9.53c-.24-3.68-1.76-5.52-4.54-5.52Q168.58,44.59,168.05,50.11Z"/><path d="M199.25,46.13V57.47a4.51,4.51,0,0,0,.63,2.84c.43.48,1.42.72,3,.72h2.51v6.31l-5,0q-4.93,0-7-1.89t-2.07-6.87V46.13h-4.25V40h4.7V31.53h7.45V40H205v6.16Z"/><path d="M233.26,54.71H216c0,.48,0,.89,0,1.25a5.69,5.69,0,0,0,1.52,4.32,5.08,5.08,0,0,0,3.65,1.46c2.64,0,4.22-1.4,4.76-4.22l7.22,0c-2.07,7.57-6.12,9.87-12.24,9.87a13.51,13.51,0,0,1-6.81-1.61,12.61,12.61,0,0,1-4.62-4.69,14.27,14.27,0,0,1-1.82-7.38,14.57,14.57,0,0,1,3.65-10.32,12.91,12.91,0,0,1,18.27-.28Q233.25,46.72,233.26,54.71ZM216,50.11h9.53q-.37-5.52-4.54-5.52Q216.5,44.59,216,50.11Z"/></svg>