<svg width="250" height="250" viewBox="0 0 250 250" fill="none" xmlns="http://www.w3.org/2000/svg">
<path opacity="0.25" d="M137.505 184.569L184.629 137.366L160.873 113.571L113.749 160.773L137.505 184.569Z" fill="#59C1A7"/>
<path opacity="0.25" d="M160.58 137.076L184.336 113.281L137.212 66.0782L113.456 89.8736L160.58 137.076Z" fill="#36C3F2"/>
<path opacity="0.15" d="M112.726 184.699L136.482 160.903L89.358 113.701L65.602 137.496L112.726 184.699Z" fill="#EF3D55"/>
<path opacity="0.15" d="M90.4674 135.917L137.592 88.7141L113.836 64.9187L66.7114 112.121L90.4674 135.917Z" fill="#6A266D"/>
<path d="M125 94.515C134.342 94.515 141.915 86.929 141.915 77.5712C141.915 68.2135 134.342 60.6275 125 60.6275C115.657 60.6275 108.084 68.2135 108.084 77.5712C108.084 86.929 115.657 94.515 125 94.515Z" fill="#6A266D"/>
<path d="M172.769 142.522C182.111 142.522 189.685 134.936 189.685 125.578C189.685 116.221 182.111 108.635 172.769 108.635C163.427 108.635 155.854 116.221 155.854 125.578C155.854 134.936 163.427 142.522 172.769 142.522Z" fill="#36C3F2"/>
<path d="M125 190.372C134.342 190.372 141.915 182.786 141.915 173.429C141.915 164.071 134.342 156.485 125 156.485C115.657 156.485 108.084 164.071 108.084 173.429C108.084 182.786 115.657 190.372 125 190.372Z" fill="#59C1A7"/>
<path d="M77.3063 142.365C86.6485 142.365 94.2219 134.779 94.2219 125.422C94.2219 116.064 86.6485 108.478 77.3063 108.478C67.964 108.478 60.3906 116.064 60.3906 125.422C60.3906 134.779 67.964 142.365 77.3063 142.365Z" fill="#EF3D55"/>
</svg>
