<?xml version="1.0" encoding="utf-8"?>
<!-- Generator: Adobe Illustrator 19.0.0, SVG Export Plug-In . SVG Version: 6.00 Build 0)  -->
<svg version="1.1" id="layer" xmlns="http://www.w3.org/2000/svg" xmlns:xlink="http://www.w3.org/1999/xlink" x="0px" y="0px"
	 viewBox="-153 -46 652 652" style="enable-background:new -153 -46 652 652;" xml:space="preserve">
<style type="text/css">
	.st0{opacity:0.25;fill:#59C1A7;enable-background:new    ;}
	.st1{opacity:0.25;fill:#36C3F2;enable-background:new    ;}
	.st2{opacity:0.15;fill:#EF3D55;enable-background:new    ;}
	.st3{opacity:0.15;fill:#6A266D;enable-background:new    ;}
	.st4{fill:#6A266D;}
	.st5{fill:#36C3F2;}
	.st6{fill:#59C1A7;}
	.st7{fill:#EF3D55;}
	.st8{fill:#333332;}
</style>
<g id="Lines">
	
		<rect x="-60.7" y="283.2" transform="matrix(-0.7071 0.7071 -0.7071 -0.7071 184.4724 532.7988)" class="st0" width="85.1" height="42.9"/>
	
		<rect x="-39.9" y="201.4" transform="matrix(-0.7071 0.7071 -0.7071 -0.7071 140.9651 429.546)" class="st1" width="42.9" height="85.1"/>
	
		<rect x="-101" y="262.1" transform="matrix(-0.7071 0.7071 -0.7071 -0.7071 79.5763 576.3806)" class="st2" width="42.9" height="85.1"/>
	
		<rect x="-120.7" y="221.1" transform="matrix(-0.7071 0.7071 -0.7071 -0.7071 38.0733 469.2917)" class="st3" width="85.1" height="42.9"/>
</g>
<g id="Nodes">
	<circle class="st4" cx="-49" cy="213.4" r="21.6"/>
	<circle class="st5" cx="12" cy="274.6" r="21.6"/>
	<circle class="st6" cx="-49" cy="335.6" r="21.6"/>
	<circle class="st7" cx="-109.9" cy="274.4" r="21.6"/>
</g>
<path class="st8" d="M221.7,249h-26.3c-0.5,0-0.9,0.4-0.9,0.9v46.3c0,0.5,0.4,0.9,0.9,0.9h26.3c0.5,0,0.9-0.4,0.9-0.9v-7.4
	c0-0.5-0.4-0.9-0.9-0.9l0,0h-16.1c-1,0-1.7-0.7-1.7-1.7v-7.6c0-1,0.7-1.7,1.7-1.7h14.7c0.5,0,0.9-0.4,0.9-0.9v-6.6
	c0-0.5-0.4-0.9-0.9-0.9h-14.7c-1,0-1.7-0.7-1.7-1.7v-7c0-1,0.7-1.7,1.7-1.7h16.1c0.5,0,0.9-0.4,0.9-0.9V250
	C222.6,249.4,222.2,249,221.7,249L221.7,249z M330.9,297.1c0.3,0,0.6-0.2,0.7-0.4c0.2-0.2,0.2-0.6,0.1-0.8l-18.6-46.4
	c-0.2-0.3-0.5-0.6-0.8-0.6h-4.7c-0.3,0-0.6,0.2-0.8,0.6l-18.6,46.3c-0.1,0.2-0.1,0.6,0.1,0.8c0.2,0.2,0.5,0.4,0.7,0.4h8.5
	c0.4,0,0.6-0.2,0.8-0.6l2.3-6.4c0.2-0.6,0.9-1.1,1.6-1.1h15.6c0.7,0,1.4,0.5,1.6,1.1l2.2,6.4c0.2,0.3,0.4,0.6,0.8,0.6L330.9,297.1z
	 M315.1,280.1c-0.3,0.5-0.8,0.7-1.4,0.7h-7.3c-0.6,0-1-0.2-1.4-0.7c-0.3-0.5-0.4-1-0.2-1.5l3.6-10.2c0.3-0.9,1.3-1.4,2.2-1
	c0.5,0.2,0.9,0.6,1,1l3.6,10.2C315.5,279,315.4,279.6,315.1,280.1z M422.8,297.1c0.5,0,0.9-0.4,0.9-0.9v-7.4c0-0.5-0.4-0.9-0.9-0.9
	l0,0h-13.7c-1,0-1.7-0.7-1.7-1.7v-36.4c0-0.5-0.4-0.9-0.9-0.9h-7.7c-0.5,0-0.9,0.4-0.9,0.9v46.3c0,0.5,0.4,0.9,0.9,0.9L422.8,297.1
	L422.8,297.1z M348.1,297.1h18.2c2.8,0.1,5.6-0.6,8.1-1.9c2.2-1.2,3.9-3,5.1-5c1.1-2,1.8-4.3,1.8-6.6c0.2-5-2.7-9.7-7.3-11.9
	c-0.2-0.1-0.2-0.2-0.2-0.4v-0.2l0.2-0.2c2.7-2.2,4.2-5.6,4.2-9.1c0-2.2-0.6-4.4-1.6-6.3c-1.1-2-2.8-3.6-4.8-4.6
	c-2.5-1.2-5.2-1.8-8-1.8h-15.4c-0.6,0-1,0.4-1,1v46.2C347.1,296.7,347.6,297.1,348.1,297.1z M356.6,259.6c0-0.8,0.6-1.4,1.4-1.4h4.2
	c1.6-0.1,3.2,0.4,4.4,1.4c0.9,0.8,1.4,1.8,1.6,3c0.2,1.7-0.4,3.3-1.6,4.5c-1.2,1.1-2.9,1.7-4.5,1.6H358c-0.8,0-1.4-0.6-1.4-1.4
	L356.6,259.6z M356.6,278c0-0.8,0.6-1.4,1.4-1.4h6.4c1.7-0.1,3.4,0.5,4.6,1.7c1.2,1,1.8,2.5,1.8,4.1s-0.6,3.1-1.8,4.2
	c-1.3,1.2-3,1.8-4.7,1.7h-6.3c-0.8,0-1.5-0.7-1.5-1.5l0,0L356.6,278z M265.9,280.5c-0.5-0.8-0.2-1.8,0.6-2.2c2.1-1.3,3.8-3,5-5.1
	c1.4-2.5,2.2-5.4,2.2-8.3c0-2.7-0.7-5.4-2-7.8c-1.4-2.4-3.4-4.5-5.8-5.8c-2.6-1.5-5.6-2.2-8.6-2.2h-14.6c-0.5,0-0.9,0.4-0.9,0.9
	v46.3c0,0.5,0.4,0.9,0.9,0.9h7.7c0.5,0,0.9-0.4,0.9-0.9v-14c0-1,0.7-1.7,1.7-1.7h2.3c0.6,0,1.2,0.3,1.5,0.9l7.9,15.2
	c0.2,0.3,0.5,0.5,0.8,0.5h8.7c0.5,0,0.9-0.3,1-0.8c0-0.2,0-0.3-0.2-0.5L265.9,280.5z M262,269.7c-1.4,1.3-3.4,1.9-5.3,1.8h-3.8
	c-1,0-1.7-0.7-1.7-1.7v-10c0-1,0.7-1.7,1.7-1.7h3.8c1.9-0.1,3.8,0.6,5.3,1.9c2.6,2.6,2.7,6.8,0.2,9.4
	C262.1,269.5,262,269.6,262,269.7L262,269.7z M176.9,249h-30.3c-0.5,0-0.9,0.4-0.9,0.9l0,0v7.4c0,0.5,0.4,0.9,0.9,0.9l0,0h8.9
	c1,0,1.7,0.7,1.7,1.7l0,0v36.5c0,0.5,0.4,0.9,0.9,0.9h7.8c0.5,0,0.9-0.4,0.9-0.9l0,0v-36.6c0-1,0.7-1.7,1.7-1.7h8.6
	c0.5,0,0.9-0.4,0.9-0.9v-7.4C177.8,249.4,177.4,249,176.9,249L176.9,249z M467.5,288h-16.1c-1,0-1.7-0.7-1.7-1.7v-7.6
	c0-1,0.7-1.7,1.7-1.7h14.7c0.5,0,0.9-0.4,0.9-0.9v-6.6c0-0.5-0.4-0.9-0.9-0.9h-14.7c-1,0-1.7-0.7-1.7-1.7v-7c0-1,0.7-1.7,1.7-1.7
	h16.1c0.5,0,0.9-0.4,0.9-0.9V250c0-0.5-0.4-0.9-0.9-0.9h-26.3c-0.5,0-0.9,0.4-0.9,0.9v46.3c0,0.5,0.4,0.9,0.9,0.9h26.4
	c0.5,0,0.9-0.4,0.9-0.9v-7.4C468.4,288.4,468,288,467.5,288z M127.8,287.9h-7.6c-1,0-1.7-0.7-1.7-1.7l0,0v-26.5c0-1,0.7-1.7,1.7-1.7
	h7.7c0.5,0,0.9-0.4,0.9-0.9l0,0v-7.4c0-0.5-0.4-0.9-0.9-0.9l0,0H99.2c-0.5,0-0.9,0.4-0.9,0.9l0,0v7.4c0,0.5,0.4,0.9,0.9,0.9l0,0h8.1
	c1,0,1.7,0.7,1.7,1.7v26.6c0,0.9-0.8,1.6-1.7,1.6h-8.1c-0.5,0-0.9,0.4-0.9,0.9l0,0v7.4c0,0.5,0.4,0.9,0.9,0.9l0,0h10.4
	c0.1,0,0.2,0.1,0.2,0.1h7.8c0.1,0,0.2,0,0.2-0.1h10c0.5,0,0.9-0.4,0.9-0.9l0,0v-7.4C128.7,288.3,128.3,287.9,127.8,287.9
	L127.8,287.9z"/>
</svg>
