<svg xmlns="http://www.w3.org/2000/svg" width="250" height="250" fill="none"><g clip-path="url(#a)"><path fill="#D33833" d="M211.977 121.086c0 49.273-39.088 89.255-87.333 89.255S37.31 170.359 37.31 121.086c0-49.273 39.09-89.255 87.334-89.255 48.245 0 87.333 39.982 87.333 89.255Z"/><path fill="#EF3D3A" d="M40.902 143.188s-6.339-93.056 79.516-95.73l-5.987-9.996L67.877 53.09 54.566 68.364 42.945 90.606l-6.62 25.903 1.971 17.316"/><path fill="#231F20" d="M64.85 60.198c-15.284 15.697-24.792 37.307-24.792 61.24 0 23.932 9.508 45.542 24.791 61.239 15.354 15.697 36.413 25.341 59.796 25.341 23.382 0 44.441-9.644 59.795-25.341 15.283-15.697 24.791-37.307 24.791-61.239 0-23.933-9.508-45.543-24.791-61.24-15.354-15.627-36.413-25.34-59.795-25.34-23.313 0-44.442 9.643-59.796 25.34Zm-3.874 126.21c-16.27-16.612-26.341-39.63-26.341-64.97 0-25.34 10.071-48.358 26.34-65.04 16.27-16.613 38.808-26.96 63.67-26.96 24.861 0 47.399 10.347 63.668 26.96 16.27 16.611 26.341 39.629 26.341 65.04 0 25.34-10.071 48.358-26.341 64.97-16.269 16.682-38.807 26.959-63.668 26.959-24.862 0-47.4-10.277-63.67-26.959Z"/><path fill="#F0D6B7" d="m161.409 121.578-13.312 1.971-17.959 2.042-11.621.281-11.34-.352-8.663-2.674-7.676-8.307-5.987-16.964-1.338-3.66-7.959-2.675-4.648-7.672-3.31-10.981 3.662-9.644 8.663-3.026 6.973 3.308 3.31 7.32 4.014-.633 1.338-1.69-1.338-7.672-.352-9.643 1.972-13.304-.07-7.602 6.057-9.714 10.635-7.673 18.593-7.954 20.636 3.027 17.96 12.952 8.311 13.304 5.352 9.643 1.339 23.933-4.015 20.624-7.325 18.302-6.902 9.784"/><path fill="#335061" d="m150.139 179.087-47.54 1.971v7.954l4.014 27.945-1.972 2.323-33.243-11.333-2.324-4.012-3.31-37.588-7.818-22.525-1.69-5.35 26.623-18.301 8.31-3.309 7.325 9.01 6.339 5.631 7.324 2.323 3.311.986 4.014 17.316 3.029 3.66 7.677-2.675-5.353 10.348 28.876 13.655-3.592 1.971Z"/><path fill="#6D6B6D" d="m71.258 63.084 8.663-3.027 6.973 3.309 3.31 7.32 4.014-.633.986-4.012-1.972-7.673 1.972-18.301-1.69-9.996 5.987-6.968 12.959-10.277-3.663-4.998-18.311 9.01-7.677 5.983-4.297 9.291-6.62 9.01-1.972 10.63 1.338 11.332Z"/><path fill="#DCD9D8" d="M84.921 31.83s5-12.317 24.932-18.3c19.932-5.984.986-4.294.986-4.294l-21.622 8.306-8.31 8.306-3.663 6.616 7.677-.633ZM74.92 60.761s-6.972-23.299 19.65-26.607l-.985-4.012-18.312 4.293-5.353 17.316 1.338 11.333 3.663-2.323Z"/><path fill="#F7E4CD" d="m85.557 91.663 4.366-4.224s1.972.211 2.325 2.534c.352 2.323 1.338 23.299 15.635 34.562 1.338 1.056-10.635-1.689-10.635-1.689l-10.635-16.613m60.147-20.905s.774-10.066 3.521-9.292c2.747.774 2.747 3.52 2.747 3.52s-6.62 4.223-6.268 5.772Zm27.609-36.885s-5.494 1.126-5.987 5.983c-.493 4.857 5.987.986 6.973.634m-41.202-6.265s-7.325.985-7.325 5.631 8.311 4.294 10.635 2.323M88.936 70.405s-12.607-7.673-13.945-.352c-1.338 7.32-4.296 12.6 1.972 20.272l-4.296-1.337-4.014-10.277-1.339-9.995 7.677-7.955 8.663.634 5 4.012.282 4.998Zm5.987-20.977s5.634-29.282 34.229-34.913c23.524-4.646 35.919.985 40.568 6.335 0 0-20.989-24.918-40.92-17.316-19.932 7.673-34.582 21.61-34.23 30.55.564 15.344.353 15.344.353 15.344Zm77.121-25.27s-9.649-.352-10.001 8.306c0 0 0 1.338.634 2.675 0 0 7.677-8.658 12.325-4.012"/><path fill="#F7E4CD" d="M129.856 36.054s-1.69-13.233-12.959-5.56c-7.324 4.997-6.62 11.966-5.352 13.303 1.338 1.338.986 4.013 1.972 2.182.986-1.83.704-7.813 4.366-9.502 3.592-1.69 9.649-3.52 11.973-.423Z"/><path fill="#49728B" d="m98.586 125.872-31.27 13.938s12.958 51.525 6.338 67.504l-4.648-1.69-.353-19.638-8.663-37.166-3.662-10.277 32.61-21.962 9.648 9.291Zm3.168 28.508 4.438 5.42v19.921h-5.283s-.634-13.937-.634-15.627c0-1.689.634-7.672.634-7.672m.987 26.326-15.002.633 4.297 3.027 10.635 1.689"/><path fill="#335061" d="m153.098 179.439 12.325-.352 3.028 30.55-12.607 1.689-2.746-31.887Z"/><path fill="#335061" d="m156.408 179.439 18.594-.985s7.677-19.287 7.677-20.273c0-.985 6.62-27.944 6.62-27.944l-15.002-15.627-3.028-2.675-7.959 7.954v30.901l-6.902 28.649Z"/><path fill="#49728B" d="m164.719 177.116-11.621 2.323 1.69 9.292c4.296 1.971 11.621-3.309 11.621-3.309m-1.337-66.518 23.313 17.316.634-7.954-17.608-16.261-6.339 6.899Z"/><path fill="#fff" d="m113.446 244.902-6.902-27.945-3.451-20.624-.564-15.275 31.201-1.689h19.368l-1.761 34.913 3.029 26.96-.352 4.998-25.285 1.971-15.283-3.309Z"/><path fill="#DCD9D8" d="M148.801 179.087s-1.69 34.562 3.31 59.198c0 0-10.001 6.336-24.58 7.955l27.961-.986 3.31-1.971-4.014-54.482-1.057-11.685"/><path fill="#fff" d="m168.945 207.032 12.959-3.66 24.581-1.337 3.662-11.333-6.62-19.639-7.677-.986-10.635 3.309-10.142 4.997-5.423-.985-4.226 1.689"/><path fill="#DCD9D8" d="M168.734 200.345s8.663-4.012 10.001-3.66l-3.662-18.302 4.296-1.689s3.029 17.316 3.029 19.287c0 0 18.593.985 20.284.985 0 0 4.014-7.672 3.028-15.626l3.663 10.629.352 5.983-5.353 7.954-5.987 1.337-10.001-.352-3.31-4.293-11.621 1.689-3.662 1.337"/><path fill="#fff" d="m155.634 176.764-7.324-18.583-7.677-10.98s1.69-4.646 4.014-4.646h7.677l7.325 2.675-.634 12.318-3.381 19.216Z"/><path fill="#DCD9D8" d="M157.112 170.429s-9.296-17.949-9.296-20.624c0 0 1.69-4.012 4.014-3.027 2.324.986 7.325 3.661 7.325 3.661v-6.336l-11.339-2.322-7.677.985 12.959 30.69 2.676.352"/><path fill="#fff" d="m116.405 126.576-9.226-.985-8.663-2.675v3.027l4.225 4.645 13.312 5.984"/><path fill="#DCD9D8" d="M101.543 127.562s10.282 4.293 13.663 3.308l.352 4.012-9.297-1.971-5.634-4.012.916-1.337Z"/><path fill="#D33833" d="M168.946 143.681c-5.635-.141-10.776-.845-15.213-2.112.281-1.83-.282-3.59.211-4.927 1.268-.915 3.31-.915 5.212-1.126-1.62-.775-3.944-1.127-5.775-.634-.071-1.267-.634-2.041-.986-3.027 3.169-1.126 10.634-8.517 14.86-6.124 2.043 1.197 2.888 7.814 3.029 11.122.141 2.675-.282 5.35-1.338 6.828Z"/><path fill="#000" stroke="#D33833" stroke-width="2" d="M168.946 143.681c-5.635-.141-10.776-.845-15.213-2.112.281-1.83-.282-3.59.211-4.927 1.268-.915 3.31-.915 5.212-1.126-1.62-.775-3.944-1.127-5.775-.634-.071-1.267-.634-2.041-.986-3.027 3.169-1.126 10.634-8.517 14.86-6.124 2.043 1.197 2.888 7.814 3.029 11.122.141 2.675-.282 5.35-1.338 6.828Z"/><path fill="#D33833" d="M141.971 134.46c0 .422 0 .845-.07 1.267-1.761 1.126-4.578 1.126-6.55 2.112 2.817.14 5.071.844 7.043 1.759-.071 1.056-.071 2.183-.141 3.238-3.24 2.182-6.198 5.491-10.001 7.603-1.831.985-8.1 3.519-10.001 3.026-1.057-.281-1.198-1.619-1.62-2.886-.916-2.675-3.029-7.039-3.24-11.121-.211-5.139-.775-13.797 4.789-12.741 4.508.845 9.72 2.886 13.171 4.787 2.183 1.267 3.38 2.674 6.62 2.956Z"/><path fill="#000" stroke="#D33833" stroke-width="2" d="M141.971 134.46c0 .422 0 .845-.07 1.267-1.761 1.126-4.578 1.126-6.55 2.112 2.817.14 5.071.844 7.043 1.759-.071 1.056-.071 2.183-.141 3.238-3.24 2.182-6.198 5.491-10.001 7.603-1.831.985-8.1 3.519-10.001 3.026-1.057-.281-1.198-1.619-1.62-2.886-.916-2.675-3.029-7.039-3.24-11.121-.211-5.139-.775-13.797 4.789-12.741 4.508.845 9.72 2.886 13.171 4.787 2.183 1.267 3.38 2.674 6.62 2.956Z"/><path fill="#D33833" d="M145.139 140.584c-.493-2.816-1.057-3.59-.845-6.054 7.536-4.997 8.874 8.588.845 6.054Z"/><path fill="#000" stroke="#D33833" stroke-width="2" d="M145.139 140.584c-.493-2.816-1.057-3.59-.845-6.054 7.536-4.997 8.874 8.588.845 6.054Z"/><path fill="#EF3D3A" d="M155.986 142.836s-2.324-3.308-.634-4.294c1.691-.985 3.311 0 4.297-1.689.986-1.689 0-2.675.352-4.646s1.972-2.323 3.662-2.674c1.69-.352 6.339-.986 6.973.633l-1.972-5.983-4.015-1.338-12.607 7.321-.634 3.66v7.321m-30.355 12.67c-.423-5.209-.845-10.347-1.268-15.556-.704-7.743 1.831-6.406 8.592-6.406 1.057 0 6.339 1.197 6.691 1.971 1.832 3.731-3.028 2.886 2.113 5.702 4.296 2.323 11.973-1.408 10.213-6.687-.986-1.197-5.071-.352-6.55-1.126l-7.818-4.013c-3.31-1.689-10.917-4.223-14.438-1.83-8.945 6.054.563 21.258 3.732 27.593"/><path fill="#231F20" d="M129.857 36.054c-9.086-2.111-13.593 3.801-16.34 9.925-2.465-.563-1.479-3.941-.845-5.63 1.62-4.435 8.17-10.419 13.522-9.574 2.254.282 5.353 2.393 3.663 5.28Zm44.158 10.277h.423c2.042 4.224 3.803 8.729 6.409 12.53-1.761 4.082-13.1 7.602-12.959.422 2.465-1.056 6.691-.211 8.874-1.619-1.268-3.449-3.028-6.405-2.747-11.333Zm-39.58.141c1.972 3.59 2.606 7.32 5.353 9.995 1.267 1.197 3.662 2.675 2.465 6.054-.282.774-2.324 2.534-3.522 2.886-4.296 1.267-14.367.282-10.987-5.138 3.592.14 8.381 2.322 11.058-.282-2.043-3.238-5.705-9.714-4.367-13.515Zm37.961 36.181c-6.48 4.153-13.734 8.728-24.44 7.672-2.253-1.97-3.169-6.405-.915-9.291 1.127 1.97.422 5.63 3.662 6.194 6.057 1.056 13.1-3.73 17.467-5.35 2.676-4.575-.212-6.194-2.677-9.15-5-5.984-11.621-13.445-11.409-22.384 2.042-1.479 2.183 2.252 2.465 2.886 2.606 6.053 9.156 13.866 13.875 19.075 1.197 1.267 3.098 2.534 3.31 3.379.634 2.393-1.62 5.35-1.338 6.969Zm-85.783-4.365c-2.042-1.196-2.535-6.264-4.93-6.405-3.451-.211-2.817 6.617-2.817 10.629-2.324-2.112-2.747-8.728-1.057-12.107-1.972-.986-2.817 1.056-3.944 1.76 1.48-10.207 15.002-4.717 12.748 6.123Zm89.869 8.659c-3.029 5.772-7.325 12.107-16.199 12.318-.211-1.83-.352-4.716 0-5.843 6.832-.703 11.057-4.153 16.199-6.475Zm-42.541 3.73c5.635 2.956 16.058 3.308 23.806 3.097.422 1.69.422 3.801.422 5.843-9.93.422-21.622-2.042-24.228-8.94Zm-1.056 5.491c3.944 9.854 17.397 8.728 28.736 8.446-.493 1.267-1.55 2.816-2.958 3.309-3.663 1.478-13.664 2.604-18.735-.071-3.169-1.689-5.282-5.56-7.043-7.813-.774-1.056-5-3.801 0-3.871Z"/><path fill="#81B0C4" d="M171.903 150.438c-4.578 7.884-9.015 15.979-14.438 22.877 2.254-6.687 3.24-17.949 3.592-26.537 4.789-2.252 8.874.493 10.846 3.66Z"/><path fill="#231F20" d="M196.625 178.735c-5.142 1.056-8.734 6.054-13.805 5.702 2.818-3.872 7.607-5.561 13.805-5.702Zm2.253 8.025c-4.226.422-9.156 1.126-13.382.774 2.043-3.097 9.79-1.971 13.382-.774Zm1.479 6.968c-4.719.071-10.564 0-15.072-.351 2.677-2.886 12.044-1.056 15.072.351Z"/><path fill="#DCD9D8" d="M163.028 212.734c.704 5.913 3.028 11.896 2.747 18.372-2.606.844-4.085 1.619-7.607 1.619-.211-5.491-.986-13.938-.774-19.217 1.69.141 4.225-1.197 5.634-.774Z"/><path fill="#F0D6B7" d="M155.423 125.45c-2.395 1.549-4.367 3.449-6.691 5.138-5.071.282-7.818-.352-11.48-3.238.07-.211.423-.14.423-.422 5.423 2.393 12.325-.985 17.748-1.478Z"/><path fill="#81B0C4" d="M127.109 162.264c1.479-6.405 7.325-9.784 12.607-13.304 5.423 6.899 8.734 15.768 12.396 24.355-8.663-2.604-17.467-6.757-25.003-11.051Z"/><path fill="#231F20" d="M157.394 213.579c-.212 5.279.493 13.655.774 19.216 3.522 0 5.001-.774 7.607-1.619.282-6.476-2.043-12.459-2.747-18.372-1.409-.493-3.944.845-5.634.775Zm-54.372-29.846c2.324 21.188 5.634 38.926 11.761 57.72 13.593 4.153 29.933 4.505 41.977.774-2.184-10.558-1.268-23.44-2.536-34.772-.986-8.518-.493-17.035-1.831-25.693-14.579-3.027-35.145-.704-49.371 1.971Zm52.822-1.83c-.141 9.08.423 18.09 1.127 27.171 3.522-.493 5.846-.845 9.086-1.619-1.057-8.729-.916-18.654-3.099-26.397-2.465.071-4.649 0-7.114.845Zm17.678-1.478c-1.69-.352-3.592 0-5.141 0 .774 7.391 2.535 15.556 3.169 23.369 2.465.071 3.803-1.126 5.846-1.478.141-6.828-.564-16.26-3.874-21.891Zm26.834 24.496c5.212-1.268 8.452-7.603 6.973-14.149-.986-4.364-2.677-12.67-4.578-15.486-1.339-2.041-5.071-4.786-8.1-2.886-4.86 3.097-13.382 4.012-16.903 7.743 1.761 5.913 2.324 13.937 3.028 21.399 6.057.352 13.453-1.69 18.524.493-3.522 1.126-8.029 1.126-11.058 2.815 2.535 1.197 8.311.986 12.114.071Zm-48.315-31.606c-3.662-8.587-6.973-17.456-12.396-24.355-5.282 3.52-11.057 6.899-12.607 13.304 7.607 4.294 16.41 8.447 25.003 11.051Zm9.015-26.537c-.352 8.588-1.338 19.85-3.592 26.537 5.423-6.968 9.86-14.993 14.438-22.877-1.972-3.167-6.057-5.912-10.846-3.66Zm-10.212-3.59c-2.043-.211-3.804 2.394-6.48 1.267-.634.704-1.197 1.408-1.831 2.112 5.916 7.18 8.663 17.316 13.241 25.692 2.465-8.094 2.183-16.893 2.746-25.692-3.38.141-5.282-3.168-7.676-3.379Zm-6.55-8.658c-.212 2.464.352 3.238.845 6.054 8.029 2.534 6.691-11.051-.845-6.054Zm-8.945-2.956c-3.451-1.901-8.663-3.942-13.17-4.787-5.564-1.056-5.001 7.602-4.79 12.741.212 4.083 2.324 8.376 3.24 11.122.423 1.267.564 2.604 1.62 2.886 1.902.422 8.24-2.042 10.001-3.027 3.803-2.041 6.761-5.35 10.001-7.602.071-1.056.071-2.182.141-3.238-1.972-.986-4.155-1.619-7.043-1.76 1.902-.985 4.789-.985 6.55-2.112 0-.422 0-.844.07-1.267-3.239-.352-4.437-1.759-6.62-2.956Zm-33.102-5.983c-2.888 2.956 8.099 6.898 11.55 7.109 0-1.83 1.057-3.59.845-4.927-4.155-.704-9.578-.211-12.395-2.182Zm35.497 1.337c0 .282-.353.211-.423.422 3.733 2.886 6.48 3.52 11.48 3.238 2.254-1.619 4.296-3.589 6.691-5.138-5.494.493-12.396 3.871-17.748 1.478Zm32.538 9.855c-.141-3.238-.986-9.925-3.028-11.122-4.226-2.464-11.692 4.998-14.861 6.124.352.986.916 1.76.986 3.027 1.902-.493 4.155-.141 5.775.633-1.901.212-3.944.212-5.211 1.127-.423 1.337.14 3.097-.212 4.927 4.437 1.267 9.579 1.9 15.213 2.112 1.057-1.408 1.479-4.083 1.338-6.828Zm-72.895-8.377c-.915-.633-7.043-8.587-7.888-8.235-11.058 4.364-21.41 11.896-30.637 19.075 8.804 18.935 12.395 42.094 13.03 64.407 10.07 4.717 18.945 11.544 32.679 12.248-1.62-11.192-3.029-21.257-3.944-31.816-3.451-1.478-8.381.07-11.621-.422 0-3.872 4.93-1.69 5.353-4.294.281-1.971-2.747-2.112-1.761-5.209 2.535.915 3.874 2.956 6.55 3.731 2.465-5.35 0-14.853.352-19.358.07-.844.423-4.645 2.324-4.012 1.691.563-.07 10.207.071 14.43.14 3.942-.493 7.673 1.127 10.136 13.24-1.83 26.693-2.956 41.06-3.378-3.169-1.338-6.902-2.605-10.987-4.928-2.254-1.267-9.226-3.871-9.86-5.983-1.056-3.379 2.676-5.138 3.31-8.024-6.691 3.66-7.958-3.52-9.578-8.518-1.409-4.575-2.254-8.024-2.606-10.629-5.846-2.956-12.044-5.701-16.974-9.221Zm67.05-7.32c9.226-4.435 10.916 16.682 7.254 23.51.563 2.041 2.465 2.816 3.24 4.646-5.142 9.221-10.847 17.809-16.129 26.889 3.874-2.464 9.508-.422 14.086-2.253 1.691-.633 2.888-4.505 4.156-7.602 3.521-8.447 7.183-19.146 8.803-27.17.353-1.83 1.409-5.843 1.127-7.462-.422-2.956-4.366-5.138-6.409-6.898-3.733-3.379-6.057-6.265-10.001-9.432-1.479 2.323-4.86 3.871-6.127 5.772ZM76.328 39.363c-4.366 4.857-3.45 13.867-2.958 20.342 7.959-4.997 18.453.423 18.383 8.87 3.803-.07 1.408-4.717.704-7.743-2.254-9.785 3.803-20.343.282-29.283-6.832.563-12.396 3.309-16.41 7.814Zm31.412-28.086c-9.93 2.816-22.678 10.066-26.763 19.005 3.17-.492 5.353-2.041 8.451-2.252 1.198-.07 2.747.493 4.085.14 2.677-.703 5.001-6.757 7.043-9.01 1.973-2.181 4.367-3.167 5.987-5.138 1.056-.493 2.606-.493 2.676-2.041-.422-.493-.915-.845-1.479-.704Zm51.767 2.675c-10.354-5.843-27.82-10.207-38.808-4.716-8.874 4.434-20.847 11.755-24.932 20.976 3.803 8.94-1.127 17.105-1.479 26.185-.14 4.857 2.254 9.01 2.465 14.29-1.338 2.181-5.282 2.393-8.029 2.252-.915-4.646-2.535-9.855-7.325-10.418-6.76-.774-11.761 4.857-12.043 10.7-.352 6.898 5.282 18.3 13.311 17.526 3.1-.281 3.874-3.378 7.254-3.378 1.832 3.66-2.817 4.786-3.31 7.39-.14.705.352 3.31.705 4.576 1.479 5.983 4.718 13.797 7.888 18.372 4.085 5.842 12.043 6.687 20.636 7.25 1.549-3.308 7.184-3.027 10.846-2.182-4.437-1.76-8.522-5.983-11.903-9.714-3.873-4.294-7.817-8.869-8.029-14.5 7.395 10.206 13.452 19.146 26.834 23.651 10.142 3.379 21.974-1.549 29.792-7.039 3.24-2.253 5.142-5.913 7.466-9.151 8.592-12.389 12.607-29.986 11.762-47.09-.353-7.04-.353-14.079-2.747-18.795-2.465-4.927-10.846-9.432-15.777-4.927-.915-4.857 4.085-7.814 9.931-6.054-4.155-5.42-8.522-11.825-14.508-15.204Zm19.297 159.152c8.1-4.012 23.172-10.77 28.172 0 1.902 4.012 4.085 10.699 5.001 14.852 1.338 5.772-1.479 18.02-7.466 19.921-5.282 1.689-11.409 1.619-17.748.352-.775-.634-1.549-1.69-2.183-2.816-4.508-.141-8.804.211-12.326 2.112.353 3.379-1.901 3.871-4.085 4.575-1.549 6.265 3.17 14.43 2.043 20.062-.775 4.082-5.775 4.716-9.438 5.42-.141 2.252.141 4.153.423 6.053-.845 3.097-4.578 4.857-8.17 5.279-11.762 1.408-29.581 2.042-40.85-2.041-3.169-7.743-5.634-17.105-8.24-25.904-10.987 1.197-19.932-4.716-28.313-8.658-2.887-1.337-6.902-2.111-8.029-4.434-1.056-2.253-.634-6.546-.915-10.559-.634-10.347-1.268-20.342-3.945-30.901-1.197-4.786-3.38-8.94-4.86-13.515-1.408-4.223-3.802-9.503-4.436-13.726-.916-6.265 5-6.617 8.733-9.362 5.846-4.223 10.424-6.546 16.762-10.347 1.902-1.126 7.536-3.942 8.17-5.28 1.268-2.604-2.183-6.264-3.099-8.306-1.479-3.238-2.253-5.983-2.465-9.15-5.282-.845-9.367-4.012-11.762-7.532-4.014-5.913-6.831-16.823-3.31-25.059.282-.633 1.62-1.97 1.831-2.956.423-1.971-.774-4.576-.845-6.687-.352-10.77 1.832-20.062 9.086-23.3 2.958-11.755 13.522-15.626 23.453-21.469 3.733-2.182 7.818-3.59 12.044-5.138 15.142-5.56 38.454-4.505 51.061 4.998 5.353 4.012 13.875 12.53 16.904 18.723 8.099 16.26 7.465 43.502 1.831 63.352-.775 2.674-1.831 6.546-3.381 9.784-1.056 2.252-4.366 6.687-4.014 8.658.422 2.041 7.606 7.461 9.156 8.939 2.746 2.675 8.029 6.195 8.451 9.573.493 3.59-1.549 8.518-2.606 11.967-3.38 11.544-6.761 22.173-10.635 32.52Z"/><path fill="#F7E4CD" d="M124.925 93.14c.423-.562 2.818-1.477 6.198.142 0 0-4.014.633-3.662 7.32l-1.69-.352c.07.071-1.691-5.983-.846-7.11Z"/><path fill="#1D1919" d="M154.084 150.298c0 .985-.845 1.83-1.831 1.83s-1.831-.845-1.831-1.83c0-.986.845-1.83 1.831-1.83 1.057 0 1.831.844 1.831 1.83Zm1.832 8.517c0 .985-.845 1.83-1.831 1.83s-1.831-.845-1.831-1.83c0-.986.845-1.83 1.831-1.83 1.057 0 1.831.774 1.831 1.83Z"/></g><defs><clipPath id="a"><path fill="#fff" d="M34 1h181v249H34z"/></clipPath></defs></svg>