<svg width="250" height="250" viewBox="0 0 250 250" fill="none" xmlns="http://www.w3.org/2000/svg">
<g clip-path="url(#clip0_2_7358)">
<path d="M188.428 121.252L130.608 63.6301L125.006 58.0467L81.4807 101.423L61.5776 121.252C60.5835 122.248 60.0254 123.595 60.0254 125C60.0254 126.405 60.5835 127.752 61.5776 128.748L101.342 168.376L125.006 191.953L168.525 148.577L169.203 147.908L188.428 128.778C188.926 128.285 189.322 127.699 189.591 127.053C189.861 126.407 190 125.715 190 125.015C190 124.315 189.861 123.623 189.591 122.977C189.322 122.331 188.926 121.745 188.428 121.252ZM125.006 144.799L105.139 125L125.006 105.201L144.867 125L125.006 144.799Z" fill="#2684FF"/>
<path d="M125.006 105.201C118.758 98.9755 115.235 90.539 115.208 81.7341C115.181 72.9291 118.652 64.4713 124.862 58.2081L81.3906 101.512L105.049 125.09L125.006 105.201Z" fill="url(#paint0_linear_2_7358)"/>
<path d="M144.921 124.946L125.006 144.799C131.278 151.051 134.801 159.53 134.801 168.37C134.801 177.211 131.278 185.689 125.006 191.941L168.597 148.523L144.921 124.946Z" fill="url(#paint1_linear_2_7358)"/>
</g>
<defs>
<linearGradient id="paint0_linear_2_7358" x1="121.449" y1="85.1687" x2="93.8007" y2="112.906" gradientUnits="userSpaceOnUse">
<stop offset="0.18" stop-color="#0052CC"/>
<stop offset="1" stop-color="#2684FF"/>
</linearGradient>
<linearGradient id="paint1_linear_2_7358" x1="5122.74" y1="5871.12" x2="7949.84" y2="7710.21" gradientUnits="userSpaceOnUse">
<stop offset="0.18" stop-color="#0052CC"/>
<stop offset="1" stop-color="#2684FF"/>
</linearGradient>
<clipPath id="clip0_2_7358">
<rect width="130" height="134" fill="white" transform="translate(60 58)"/>
</clipPath>
</defs>
</svg>
