<svg xmlns="http://www.w3.org/2000/svg" xmlns:xlink="http://www.w3.org/1999/xlink" width="200" height="200" viewBox="132.903 266.806 2236.194 2236.194"><defs><path id="a" d="M1197.94 267.81c0 267.98 217.24 485.23 485.23 485.23h198.01v191.18c.18 267.74 217.17 484.75 484.92 484.93V361.05c0-51.48-41.74-93.24-93.25-93.24H1197.94Z"/><path id="b" d="M666.08 803.4c.17 267.74 217.17 484.75 484.92 484.92h198.01v191.8c.34 267.74 217.49 484.6 485.23 484.6V896.66c0-51.5-41.75-93.26-93.26-93.26H666.08Z"/><path id="d" d="M133.9 1338.68c0 267.98 217.26 485.23 485.23 485.23h198.64v191.17c.17 267.5 216.8 484.41 484.3 484.92V1431.94c0-51.51-41.75-93.26-93.26-93.26H133.9Z"/><linearGradient id="c" x1="1811.24" x2="1353.99" y1="805.26" y2="1276.82" gradientUnits="userSpaceOnUse"><stop offset="18%" style="stop-color:#0052cc;stop-opacity:1"/><stop offset="100%" style="stop-color:#2684ff;stop-opacity:1"/></linearGradient><linearGradient id="e" x1="1309.84" x2="781.09" y1="1343.96" y2="1858.1" gradientUnits="userSpaceOnUse"><stop offset="18%" style="stop-color:#0052cc;stop-opacity:1"/><stop offset="100%" style="stop-color:#2684ff;stop-opacity:1"/></linearGradient></defs><use xlink:href="#a" fill="#2684ff"/><use xlink:href="#a" fill-opacity="0" stroke="#000" stroke-opacity="0"/><use xlink:href="#b" fill="url(#c)"/><use xlink:href="#b" fill-opacity="0" stroke="#000" stroke-opacity="0"/><use xlink:href="#d" fill="url(#e)"/><use xlink:href="#d" fill-opacity="0" stroke="#000" stroke-opacity="0"/></svg>