<svg width="250" height="250" viewBox="0 0 250 250" fill="none" xmlns="http://www.w3.org/2000/svg">
<path d="M149.798 132.474C144.36 132.474 139.485 134.887 136.147 138.685L127.593 132.621C128.501 130.117 129.023 127.428 129.023 124.614C129.023 121.849 128.519 119.206 127.641 116.739L136.176 110.739C139.514 114.518 144.376 116.917 149.798 116.917C159.834 116.917 168 108.74 168 98.6879C168 88.6355 159.834 80.4584 149.798 80.4584C139.761 80.4584 131.595 88.6355 131.595 98.6879C131.595 100.487 131.867 102.222 132.354 103.865L123.813 109.869C120.245 105.436 115.109 102.341 109.256 101.397V91.0881C117.501 89.3538 123.714 82.0171 123.714 73.2505C123.714 63.1981 115.547 55.021 105.511 55.021C95.4751 55.021 87.3088 63.1981 87.3088 73.2505C87.3088 81.8997 93.3604 89.1459 101.441 91.004V101.446C90.4132 103.385 82 113.023 82 124.614C82 136.262 90.4965 145.936 101.604 147.808V158.835C93.4407 160.632 87.3088 167.922 87.3088 176.63C87.3088 186.683 95.4751 194.86 105.511 194.86C115.547 194.86 123.714 186.683 123.714 176.63C123.714 167.922 117.582 160.632 109.419 158.835V147.808C115.041 146.86 120.127 143.897 123.73 139.473L132.341 145.577C131.863 147.205 131.595 148.923 131.595 150.704C131.595 160.756 139.761 168.933 149.798 168.933C159.834 168.933 168 160.756 168 150.704C168 140.651 159.834 132.474 149.798 132.474ZM149.798 89.8493C154.664 89.8493 158.623 93.8153 158.623 98.6879C158.623 103.561 154.664 107.526 149.798 107.526C144.931 107.526 140.972 103.561 140.972 98.6879C140.972 93.8153 144.931 89.8493 149.798 89.8493ZM96.6858 73.2505C96.6858 68.3779 100.645 64.4123 105.511 64.4123C110.378 64.4123 114.336 68.3779 114.336 73.2505C114.336 78.1231 110.378 82.0887 105.511 82.0887C100.645 82.0887 96.6858 78.1231 96.6858 73.2505ZM114.336 176.63C114.336 181.503 110.378 185.469 105.511 185.469C100.645 185.469 96.6858 181.503 96.6858 176.63C96.6858 171.758 100.645 167.792 105.511 167.792C110.378 167.792 114.336 171.758 114.336 176.63ZM105.511 136.941C98.723 136.941 93.2012 131.412 93.2012 124.614C93.2012 117.817 98.723 112.287 105.511 112.287C112.298 112.287 117.82 117.817 117.82 124.614C117.82 131.412 112.298 136.941 105.511 136.941ZM149.798 159.542C144.931 159.542 140.972 155.576 140.972 150.704C140.972 145.831 144.931 141.866 149.798 141.866C154.664 141.866 158.623 145.831 158.623 150.704C158.623 155.576 154.664 159.542 149.798 159.542Z" fill="black"/>
</svg>
