<?xml version="1.0" standalone="yes"?>
<svg xmlns="http://www.w3.org/2000/svg" width="202" height="250">
<path style="fill:#fefefe; stroke:none;" d="M0 0L0 190L7 190L7 224C20.3119 214.623 31.667 190.061 49 190L31.0008 208L25.1921 216L31.6003 226L50 249C36.4724 248.952 27.4147 231.003 20 221L18 221C10.2303 232.03 7 235.155 7 249L0 249L0 250L71 250L71 249C67.2123 248.043 63.9718 246.567 61.1049 243.812C37.2197 220.86 80.0112 186.822 93.4707 217C95.3073 221.118 95.9075 225.541 96 230L61 230C63.268 244.532 80.2826 248.488 90 238L91 238C93.6411 244.617 87.7137 247.319 82 249L82 250L124 250L124 249C120.061 247.83 116.977 245.962 114.105 242.957C93.4572 221.349 129.408 188.259 146.005 215C148.821 219.535 149.047 224.886 150 230L115 230C116.474 244.295 134.034 248.742 143 238L144 238L148 241L136 249L136 250L202 250L202 249L195 249C195 239.982 197.818 225.191 193.682 217.019C189.456 208.669 176.641 209.499 172.09 217.043C167.213 225.126 170 239.861 170 249L163 249L163 206L170 206L170 212C180.731 204.693 195.756 200.623 201 217L202 217L202 0L0 0z"/>
<path style="fill:#e76f3a; stroke:none;" d="M100 1L92.713 17L110.011 48L153 122L120 122L106.379 123.028L97 139L182 139L157.011 95L102 1L100 1z"/>
<path style="fill:#98abaf; stroke:none;" d="M102 2L103 3L102 2M98 4L99 5L98 4M95 9L96 10L95 9M109 14L110 15L109 14M93 19L94 20L93 19M112 19L113 20L112 19M96 24L97 25L96 24M116 26L117 27L116 26M119 31L120 32L119 31M82 32L83 33L82 32z"/>
<path style="fill:#719e97; stroke:none;" d="M81 33C58.764 80.5697 21.2674 121.576 1 170C6.16886 170 15.3477 171.769 19.6211 168.397C27.5014 162.178 32.6594 147.568 37.8002 139C51.8174 115.637 71.6469 90.547 81 65L83 65L98.8002 93L106.379 103.972L125 105L83 33L81 33z"/>
<path style="fill:#98abaf; stroke:none;" d="M80 34L81 35L80 34M83 34L84 35L83 34M79 36L80 37L79 36M103 36L104 37L103 36M122 36L123 37L122 36M77 39L78 40L77 39M86 39L87 40L86 39M76 41L77 42L76 41M87 41L88 42L87 41M106 41L107 42L106 41M126 43L127 44L126 43M89 44L90 45L89 44M73 46L74 47L73 46M90 46L91 47L90 46M72 48L73 49L72 48M110 48L111 49L110 48M129 48L130 49L129 48M92 49L93 50L92 49M70 51L71 52L70 51M93 51L94 52L93 51M69 53L70 54L69 53M113 53L114 54L113 53M132 53L133 54L132 53M95 54L96 55L95 54M67 56L68 57L67 56M96 56L97 57L96 56M66 58L67 59L66 58M97 58L98 59L97 58M136 60L137 61L136 60M64 61L65 62L64 61M99 61L100 62L99 61M63 63L64 64L63 63M100 63L101 64L100 63M120 65L121 66L120 65M139 65L140 66L139 65M61 66L62 67L61 66M102 66L103 67L102 66M60 68L61 69L60 68M79 68L80 69L79 68M84 68L85 69L84 68M103 68L104 69L103 68M59 70L60 71L59 70M78 70L79 71L78 70M85 70L86 71L85 70M123 70L124 71L123 70M142 70L143 71L142 70M105 71L106 72L105 71M57 73L58 74L57 73M76 73L77 74L76 73M87 73L88 74L87 73M106 73L107 74L106 73M56 75L57 76L56 75M75 75L76 76L75 75M88 75L89 76L88 75M107 75L108 76L107 75M127 77L128 78L127 77M146 77L147 78L146 77M54 78L55 79L54 78M73 78L74 79L73 78M90 78L91 79L90 78M109 78L110 79L109 78M53 80L54 81L53 80M72 80L73 81L72 80M91 80L92 81L91 80M110 80L111 81L110 80M130 82L131 83L130 82M149 82L150 83L149 82M51 83L52 84L51 83M70 83L71 84L70 83M93 83L94 84L93 83M112 83L113 84L112 83M50 85L51 86L50 85M69 85L70 86L69 85M94 85L95 86L94 85M113 85L114 86L113 85M95 87L96 88L95 87M152 87L153 88L152 87M48 88L49 89L48 88M67 88L68 89L67 88M115 88L116 89L115 88M134 89L135 90L134 89M47 90L48 91L47 90M66 90L67 91L66 90M97 90L98 91L97 90M116 90L117 91L116 90M98 92L99 93L98 92M137 94L138 95L137 94M156 94L157 95L156 94M44 95L45 96L44 95M63 95L64 96L63 95M100 95L101 96L100 95M119 95L120 96L119 95M43 97L44 98L43 97M62 97L63 98L62 97M101 97L102 98L101 97M120 97L121 98L120 97z"/>
<path style="fill:#719e97; stroke:none;" d="M81 99L39 170L201 170C199.153 165.714 196.385 158.712 192.39 156.028C186.015 151.744 168.603 155 161 155L67 155C76.6871 137.534 99.5555 116.992 81 99z"/>
<path style="fill:#98abaf; stroke:none;" d="M140 99L141 100L140 99M159 99L160 100L159 99M41 100L42 101L41 100M60 100L61 101L60 100M103 100L104 101L103 100M122 100L123 101L122 100M83 101L84 102L83 101M40 102L41 103L40 102M59 102L60 103L59 102M79 102L80 103L79 102M104 102L105 103L104 102M123 102L124 103L123 102M84 103L85 104L84 103M78 104L79 105L78 104M105 104L106 105L105 104M38 105L39 106L38 105M57 105L58 106L57 105M86 106L87 107L86 106M144 106L145 107L144 106M163 106L164 107L163 106M37 107L38 108L37 107M56 107L57 108L56 107M76 107L77 108L76 107M87 108L88 109L87 108M75 109L76 110L75 109M35 110L36 111L35 110M54 110L55 111L54 110M89 111L90 112L89 111M147 111L148 112L147 111M166 111L167 112L166 111M34 112L35 113L34 112M53 112L54 113L53 112M73 112L74 113L73 112M90 113L91 114L90 113M72 114L73 115L72 114M51 115L52 116L51 115M71 115L72 116L71 115M90 115L91 116L90 115M169 116L170 117L169 116M31 117L32 118L31 117M50 117L51 118L50 117M70 117L71 118L70 117M89 117L90 118L89 117M151 118L152 119L151 118M30 119L31 120L30 119M48 120L49 121L48 120M68 120L69 121L68 120M87 120L88 121L87 120M28 122L29 123L28 122M47 122L48 123L47 122M67 122L68 123L67 122M86 122L87 123L86 122M173 123L174 124L173 123M27 124L28 125L27 124M65 125L66 126L65 125M84 125L85 126L84 125M103 126L104 127L103 126M25 127L26 128L25 127M44 127L45 128L44 127M64 127L65 128L64 127M83 127L84 128L83 127M176 128L177 129L176 128M24 129L25 130L24 129M43 129L44 130L43 129M62 130L63 131L62 130M81 130L82 131L81 130M100 131L101 132L100 131M22 132L23 133L22 132M41 132L42 133L41 132M61 132L62 133L61 132M80 132L81 133L80 132M179 133L180 134L179 133M21 134L22 135L21 134M40 134L41 135L40 134M59 135L60 136L59 135M78 135L79 136L78 135M19 137L20 138L19 137M38 137L39 138L38 137M58 137L59 138L58 137M77 137L78 138L77 137M18 139L19 140L18 139M37 139L38 140L37 139M56 140L57 141L56 140M75 140L76 141L75 140M17 141L18 142L17 141M35 142L36 143L35 142M55 142L56 143L55 142M74 142L75 143L74 142M15 144L16 145L15 144M34 144L35 145L34 144M53 145L54 146L53 145M72 145L73 146L72 145M14 146L15 147L14 146M32 147L33 148L32 147M52 147L53 148L52 147M71 147L72 148L71 147M12 149L13 150L12 149M31 149L32 150L31 149M50 150L51 151L50 150M69 150L70 151L69 150M11 151L12 152L11 151M49 152L50 153L49 152M68 152L69 153L68 152M67.3333 153.667L67.6667 154.333L67.3333 153.667M9 154L10 155L9 154M28 154L29 155L28 154M47 155L48 156L47 155M8 156L9 157L8 156M27 156L28 157L27 156M193 156L194 157L193 156M46 157L47 158L46 157M194 158L195 159L194 158M6 159L7 160L6 159M25 159L26 160L25 159M44 160L45 161L44 160M5 161L6 162L5 161M24 161L25 162L24 161M196 161L197 162L196 161M43 162L44 163L43 162M197 163L198 164L197 163M22 164L23 165L22 164M41 165L42 166L41 165M2 166L3 167L2 166M21 166L22 167L21 166M199 166L200 167L199 166M40 167L41 168L40 167M1 168L2 169L1 168M200 168L201 169L200 168M19 169L20 170L19 169M1 170L1 171L19 171L1 170z"/>
<path style="fill:#719e97; stroke:none;" d="M0 190L0 191L6 191L6 225C9.31246 217.106 10.4104 190.342 0 190z"/>
<path style="fill:#98abaf; stroke:none;" d="M6 190L7 191L6 190M40 190L41 191L40 190z"/>
<path style="fill:#719e97; stroke:none;" d="M41 190L41 191L48 191L41 190z"/>
<path style="fill:#98abaf; stroke:none;" d="M48 190L49 191L48 190z"/>
<path style="fill:#1a465d; stroke:none;" d="M0 191L0 249L6 249C6 245.365 5.74328 241.622 6.05864 238C6.47306 233.24 15.1706 220.501 20.8295 223.636C32.2973 229.989 33.8489 248.821 49 249L31.9969 226L25.885 216L48 191C30.0781 191.063 19.5027 215.488 6 225L6 191L0 191z"/>
<path style="fill:#719e97; stroke:none;" d="M39 191L40 192L39 191z"/>
<path style="fill:#98abaf; stroke:none;" d="M38 192L39 193L38 192M37 193L38 194L37 193M36 194L37 195L36 194M35 195L36 196L35 195M34 196L35 197L34 196M33 197L34 198L33 197M32 198L33 199L32 198M31 199L32 200L31 199M30 200L31 201L30 200M29 201L30 202L29 201M69 205L70 206L69 205z"/>
<path style="fill:#719e97; stroke:none;" d="M70 205L71 206L70 205z"/>
<path style="fill:#1a465d; stroke:none;" d="M61 230L95 230C94.9949 222.263 94.2692 214.746 87.9066 209.394C76.4229 199.734 58.6471 207.208 55.24 221C51.685 235.39 61.4202 250.212 77 249.74C80.2791 249.641 93.8077 246.869 91.6543 241.36C90.3932 238.134 80.6274 243.988 78 244.291C69.3227 245.291 62.2872 238.104 61 230z"/>
<path style="fill:#719e97; stroke:none;" d="M79 205L80 206L79 205z"/>
<path style="fill:#98abaf; stroke:none;" d="M80 205L81 206L80 205M123 205L124 206L123 205z"/>
<path style="fill:#719e97; stroke:none;" d="M124 205L125 206L124 205z"/>
<path style="fill:#1a465d; stroke:none;" d="M114 230L149 230C148.979 222.555 147.889 214.689 141.815 209.558C129.284 198.971 111.263 208.155 108.468 223C105.838 236.969 116.245 250.703 131 249.787C134.156 249.591 147.75 246.591 145.654 241.333C144.289 237.906 133.897 244.409 131 244.525C121.858 244.893 116.642 237.743 114 230z"/>
<path style="fill:#719e97; stroke:none;" d="M133 205L134 206L133 205z"/>
<path style="fill:#98abaf; stroke:none;" d="M134 205L135 206L134 205M179 205L180 206L179 205z"/>
<path style="fill:#719e97; stroke:none;" d="M180 205L181 206L180 205z"/>
<path style="fill:#1a465d; stroke:none;" d="M171 213L170 213L170 206L164 206L164 249L170 249C170 240.165 167.624 227.253 171.009 219.004C174.937 209.432 188.463 207.872 193.721 217.015C198.591 225.483 196 239.553 196 249L202 249C202 238.224 205.046 221.552 198.992 212.043C192.879 202.443 176.028 202.778 171 213z"/>
<path style="fill:#719e97; stroke:none;" d="M189 205L190 206L189 205z"/>
<path style="fill:#98abaf; stroke:none;" d="M190 205L191 206L190 205z"/>
<path style="fill:#719e97; stroke:none;" d="M67 206L68 207L67 206z"/>
<path style="fill:#98abaf; stroke:none;" d="M83 206L84 207L83 206M120 206L121 207L120 206z"/>
<path style="fill:#719e97; stroke:none;" d="M121 206L122 207L121 206M136 206L137 207L136 206z"/>
<path style="fill:#98abaf; stroke:none;" d="M137 206L138 207L137 206z"/>
<path style="fill:#719e97; stroke:none;" d="M163 206L163 249L164 249C164 236.781 167.71 217.226 163 206M177 206L178 207L177 206M192 206L193 207L192 206M65 207L66 208L65 207z"/>
<path style="fill:#98abaf; stroke:none;" d="M85 207L86 208L85 207M118 207L119 208L118 207M139 207L140 208L139 207M175 207L176 208L175 207z"/>
<path style="fill:#719e97; stroke:none;" d="M194 207L195 208L194 207z"/>
<path style="fill:#98abaf; stroke:none;" d="M63 208L64 209L63 208z"/>
<path style="fill:#719e97; stroke:none;" d="M117 208L118 209L117 208M140 208L141 209L140 208M62 209L63 210L62 209z"/>
<path style="fill:#98abaf; stroke:none;" d="M88 209L89 210L88 209M197 209L198 210L197 209z"/>
<path style="fill:#719e97; stroke:none;" d="M70 210L71 211L70 210z"/>
<path style="fill:#98abaf; stroke:none;" d="M71 210L72 211L71 210z"/>
<path style="fill:#fefefe; stroke:none;" d="M61 224L88 224C86.36 205.791 63.6967 206.721 61 224z"/>
<path style="fill:#98abaf; stroke:none;" d="M78 210L79 211L78 210z"/>
<path style="fill:#719e97; stroke:none;" d="M79 210L80 211L79 210z"/>
<path style="fill:#98abaf; stroke:none;" d="M89 210L90 211L89 210M114 210L115 211L114 210z"/>
<path style="fill:#719e97; stroke:none;" d="M124 210L125 211L124 210z"/>
<path style="fill:#98abaf; stroke:none;" d="M125 210L126 211L125 210z"/>
<path style="fill:#fefefe; stroke:none;" d="M115 224L143 224C138.252 207.633 118.364 205.139 115 224z"/>
<path style="fill:#98abaf; stroke:none;" d="M132 210L133 211L132 210z"/>
<path style="fill:#719e97; stroke:none;" d="M133 210L134 211L133 210M182 210L182 211L185 211L182 210M68 211L69 212L68 211z"/>
<path style="fill:#98abaf; stroke:none;" d="M81 211L82 212L81 211M90 211L91 212L90 211M113 211L114 212L113 211z"/>
<path style="fill:#719e97; stroke:none;" d="M122 211L123 212L122 211z"/>
<path style="fill:#98abaf; stroke:none;" d="M135 211L136 212L135 211M178 211L179 212L178 211M187 211L188 212L187 211z"/>
<path style="fill:#719e97; stroke:none;" d="M188 211L189 212L188 211M59 212L60 213L59 212M144 212L145 213L144 212z"/>
<path style="fill:#98abaf; stroke:none;" d="M170 212L171 213L170 212M176 212L177 213L176 212z"/>
<path style="fill:#719e97; stroke:none;" d="M190 212L191 213L190 212M199 212L200 213L199 212z"/>
<path style="fill:#98abaf; stroke:none;" d="M58 213L59 214L58 213z"/>
<path style="fill:#719e97; stroke:none;" d="M65 213L66 214L65 213M91 213L92 214L91 213z"/>
<path style="fill:#98abaf; stroke:none;" d="M145 213L146 214L145 213z"/>
<path style="fill:#719e97; stroke:none;" d="M174 213L175 214L174 213M191 213L192 214L191 213M17 214L18 215L17 214z"/>
<path style="fill:#98abaf; stroke:none;" d="M92 214L93 215L92 214z"/>
<path style="fill:#719e97; stroke:none;" d="M111 214L112 215L111 214M173 214L174 215L173 214M192 214L193 215L192 214z"/>
<path style="fill:#98abaf; stroke:none;" d="M200 214L201 215L200 214z"/>
<path style="fill:#719e97; stroke:none;" d="M16 215L17 216L16 215z"/>
<path style="fill:#98abaf; stroke:none;" d="M85 215L86 216L85 215M146 215L147 216L146 215z"/>
<path style="fill:#719e97; stroke:none;" d="M172 215L173 216L172 215M15 216L16 217L15 216z"/>
<path style="fill:#98abaf; stroke:none;" d="M56 216L57 217L56 216M63 216L64 217L63 216z"/>
<path style="fill:#719e97; stroke:none;" d="M86 216L87 217L86 216z"/>
<path style="fill:#98abaf; stroke:none;" d="M93 216L94 217L93 216z"/>
<path style="fill:#719e97; stroke:none;" d="M110 216L111 217L110 216z"/>
<path style="fill:#98abaf; stroke:none;" d="M117 216L118 217L117 216z"/>
<path style="fill:#719e97; stroke:none;" d="M140 216L141 217L140 216M14 217L15 218L14 217M62 217L63 218L62 217z"/>
<path style="fill:#98abaf; stroke:none;" d="M147 217L148 218L147 217M171 217L172 218L171 217z"/>
<path style="fill:#719e97; stroke:none;" d="M194 217L195 218L194 217z"/>
<path style="fill:#98abaf; stroke:none;" d="M201 217L202 218L201 217z"/>
<path style="fill:#719e97; stroke:none;" d="M13 218L14 219L13 218M87 218L88 219L87 218M109 218L110 219L109 218z"/>
<path style="fill:#98abaf; stroke:none;" d="M116 218L117 219L116 218z"/>
<path style="fill:#719e97; stroke:none;" d="M141 218L142 219L141 218z"/>
<path style="fill:#98abaf; stroke:none;" d="M194 218L195 219L194 218z"/>
<path style="fill:#719e97; stroke:none;" d="M201.333 218.667L201.667 219.333L201.333 218.667M12 219L13 220L12 219M26 219L27 220L26 219M55 219L56 220L55 219z"/>
<path style="fill:#98abaf; stroke:none;" d="M87 219L88 220L87 219M94 219L95 220L94 219z"/>
<path style="fill:#719e97; stroke:none;" d="M170 219L171 220L170 219M11 220L12 221L11 220z"/>
<path style="fill:#98abaf; stroke:none;" d="M27 220L28 221L27 220M61 220L62 221L61 220z"/>
<path style="fill:#719e97; stroke:none;" d="M94 220L95 221L94 220z"/>
<path style="fill:#98abaf; stroke:none;" d="M108.333 220.667L108.667 221.333L108.333 220.667z"/>
<path style="fill:#719e97; stroke:none;" d="M115 220L116 221L115 220z"/>
<path style="fill:#98abaf; stroke:none;" d="M148 220L149 221L148 220M170 220L171 221L170 220z"/>
<path style="fill:#719e97; stroke:none;" d="M10 221L11 222L10 221M88.3333 221.667L88.6667 222.333L88.3333 221.667M142 221L143 222L142 221M148 221L149 222L148 221M195 221L195 249L196 249L195 221M9 222L10 223L9 222z"/>
<path style="fill:#98abaf; stroke:none;" d="M17 222L18 223L17 222M54.3333 222.667L54.6667 223.333L54.3333 222.667z"/>
<path style="fill:#719e97; stroke:none;" d="M108 222L109 223L108 222z"/>
<path style="fill:#98abaf; stroke:none;" d="M142 222L143 223L142 222M8 223L9 224L8 223M16 223L17 224L16 223M21 223L22 224L21 223z"/>
<path style="fill:#719e97; stroke:none;" d="M60 223L61 224L60 223z"/>
<path style="fill:#98abaf; stroke:none;" d="M88 223L89 224L88 223M95.3333 223.667L95.6667 224.333L95.3333 223.667M7 224L8 225L7 224M15 224L16 225L15 224z"/>
<path style="fill:#719e97; stroke:none;" d="M22 224L23 225L22 224M30 224L31 225L30 224M54 224L55 225L54 224M61 224L61 225L89 225L61 224M115 224L115 225L143 225L115 224z"/>
<path style="fill:#98abaf; stroke:none;" d="M14 225L15 226L14 225M31 225L32 226L31 225z"/>
<path style="fill:#719e97; stroke:none;" d="M95 225L95 230L96 230L95 225z"/>
<path style="fill:#98abaf; stroke:none;" d="M13 226L14 227L13 226M12 227L13 228L12 227M149 227L149 230L150 230L149 227M11 228L12 229L11 228M25 228L26 229L25 228M10 229L11 230L10 229z"/>
<path style="fill:#719e97; stroke:none;" d="M26 229L27 230L26 229M34 229L35 230L34 229M54.3333 229.667L54.6667 230.333L54.3333 229.667z"/>
<path style="fill:#98abaf; stroke:none;" d="M9 230L10 231L9 230M35 230L36 231L35 230M114 230L115 231L114 230M8 231L9 232L8 231M54.3333 231.667L54.6667 232.333L54.3333 231.667z"/>
<path style="fill:#719e97; stroke:none;" d="M114 231L115 232L114 231z"/>
<path style="fill:#98abaf; stroke:none;" d="M7 232L8 233L7 232z"/>
<path style="fill:#719e97; stroke:none;" d="M108 232L109 233L108 232M6 233L6 249L7 249L6 233z"/>
<path style="fill:#98abaf; stroke:none;" d="M29 233L30 234L29 233z"/>
<path style="fill:#719e97; stroke:none;" d="M37 233L38 234L37 233z"/>
<path style="fill:#98abaf; stroke:none;" d="M61 233L62 234L61 233M108 233L109 234L108 233z"/>
<path style="fill:#719e97; stroke:none;" d="M30 234L31 235L30 234M38 234L39 235L38 234z"/>
<path style="fill:#98abaf; stroke:none;" d="M115 234L116 235L115 234M39 235L40 236L39 235M55 235L56 236L55 235z"/>
<path style="fill:#719e97; stroke:none;" d="M62 236L63 237L62 236z"/>
<path style="fill:#98abaf; stroke:none;" d="M109 236L110 237L109 236M116 236L117 237L116 236M32 237L33 238L32 237z"/>
<path style="fill:#719e97; stroke:none;" d="M56 237L57 238L56 237z"/>
<path style="fill:#98abaf; stroke:none;" d="M63 237L64 238L63 237M33 238L34 239L33 238z"/>
<path style="fill:#719e97; stroke:none;" d="M41 238L42 239L41 238z"/>
<path style="fill:#98abaf; stroke:none;" d="M90 238L91 239L90 238z"/>
<path style="fill:#719e97; stroke:none;" d="M110 238L111 239L110 238M117 238L118 239L117 238z"/>
<path style="fill:#98abaf; stroke:none;" d="M143 238L144 239L143 238z"/>
<path style="fill:#719e97; stroke:none;" d="M34 239L35 240L34 239M42 239L43 240L42 239M57 239L58 240L57 239z"/>
<path style="fill:#98abaf; stroke:none;" d="M91 239L92 240L91 239M118 239L119 240L118 239M142 239L143 240L142 239M43 240L44 241L43 240M87 240L88 241L87 240z"/>
<path style="fill:#719e97; stroke:none;" d="M92 240L93 241L92 240z"/>
<path style="fill:#98abaf; stroke:none;" d="M111 240L112 241L111 240M119 240L120 241L119 240z"/>
<path style="fill:#719e97; stroke:none;" d="M141 240L142 241L141 240z"/>
<path style="fill:#98abaf; stroke:none;" d="M58 241L59 242L58 241z"/>
<path style="fill:#719e97; stroke:none;" d="M86 241L87 242L86 241M93.3333 241.667L93.6667 242.333L93.3333 241.667M112 241L113 242L112 241M120 241L121 242L120 241z"/>
<path style="fill:#98abaf; stroke:none;" d="M139 241L140 242L139 241M147 241L148 242L147 241M36 242L37 243L36 242M59 242L60 243L59 242z"/>
<path style="fill:#719e97; stroke:none;" d="M68 242L69 243L68 242z"/>
<path style="fill:#98abaf; stroke:none;" d="M84 242L85 243L84 242M122 242L123 243L122 242z"/>
<path style="fill:#719e97; stroke:none;" d="M138 242L139 243L138 242z"/>
<path style="fill:#98abaf; stroke:none;" d="M37 243L38 244L37 243z"/>
<path style="fill:#719e97; stroke:none;" d="M45 243L46 244L45 243M60 243L61 244L60 243M70 243L71 244L70 243z"/>
<path style="fill:#98abaf; stroke:none;" d="M71 243L72 244L71 243M81 243L82 244L81 243z"/>
<path style="fill:#719e97; stroke:none;" d="M82 243L83 244L82 243M92 243L93 244L92 243z"/>
<path style="fill:#98abaf; stroke:none;" d="M124 243L125 244L124 243M135 243L136 244L135 243z"/>
<path style="fill:#719e97; stroke:none;" d="M136 243L137 244L136 243M38 244L39 245L38 244M46 244L47 245L46 244M61 244L62 245L61 244M74 244L74 245L78 245L74 244z"/>
<path style="fill:#98abaf; stroke:none;" d="M91 244L92 245L91 244z"/>
<path style="fill:#719e97; stroke:none;" d="M128 244L128 245L133 245L128 244z"/>
<path style="fill:#98abaf; stroke:none;" d="M47 245L48 246L47 245M62 245L63 246L62 245z"/>
<path style="fill:#719e97; stroke:none;" d="M116 245L117 246L116 245M143 245L144 246L143 245M64 246L65 247L64 246M88 246L89 247L88 246z"/>
<path style="fill:#98abaf; stroke:none;" d="M117 246L118 247L117 246M142 246L143 247L142 246M40 247L41 248L40 247M65 247L66 248L65 247z"/>
<path style="fill:#719e97; stroke:none;" d="M86 247L87 248L86 247z"/>
<path style="fill:#98abaf; stroke:none;" d="M119 247L120 248L119 247z"/>
<path style="fill:#719e97; stroke:none;" d="M140 247L141 248L140 247z"/>
<path style="fill:#98abaf; stroke:none;" d="M41 248L42 249L41 248z"/>
<path style="fill:#719e97; stroke:none;" d="M49 248L50 249L49 248M68 248L69 249L68 248M84 248L85 249L84 248z"/>
<path style="fill:#98abaf; stroke:none;" d="M121 248L122 249L121 248z"/>
<path style="fill:#719e97; stroke:none;" d="M122 248L123 249L122 248M137 248L138 249L137 248z"/>
<path style="fill:#98abaf; stroke:none;" d="M138 248L139 249L138 248M71 249L72 250L71 249z"/>
<path style="fill:#719e97; stroke:none;" d="M72.6667 249.333L73.3333 249.667L72.6667 249.333M79 249L80 250L79 249z"/>
<path style="fill:#98abaf; stroke:none;" d="M80.6667 249.333L81.3333 249.667L80.6667 249.333M124.667 249.333L125.333 249.667L124.667 249.333z"/>
<path style="fill:#719e97; stroke:none;" d="M126 249L127 250L126 249M133 249L134 250L133 249z"/>
<path style="fill:#98abaf; stroke:none;" d="M134.667 249.333L135.333 249.667L134.667 249.333z"/>
</svg>
