<svg xmlns="http://www.w3.org/2000/svg" width="250" height="250" fill="none"><g clip-path="url(#a)"><path fill="#FCBF92" d="m38.28 136.802 87.054 40.257 87.05-40.257-87.052-3.625-87.053 3.625Z"/><path fill="#9D5025" d="m125.598 19-87.28 43.73v61.702h104.658V27.726L125.598 19Z"/><path fill="#FCBF92" d="M38.318 167.931 125.651 230l87.065-62.069-87.258-12.757-87.14 12.757Z"/><path fill="#9D5025" d="M125.598 124.432h46.047v-65.84l-13.446-5.403L125.6 62.74l-.002 61.691Z"/><path fill="#9D5025" d="M158.199 124.432h35.592V81.726l-10.18-3.068-25.412 4.334v41.44Z"/><path fill="#9D5025" d="M183.611 75.31v49.122h28.771l.339-49.339-8.741-3.508-20.369 3.726Z"/><path fill="#F68534" d="M125.599 19v105.432h17.378V27.726L125.599 19Zm46.047 39.591L158.2 53.19v71.243h13.446v-65.84Zm22.146 23.135-10.18-3.068v45.776h10.18V81.726Zm10.189 42.706h8.738V75.091l-8.738-3.508v52.849Zm-78.647 21.115v31.512l87.05-21.799v-18.458l-87.05 8.745Zm0 53.339V230l87.383-43.892v-18.177l-87.383 30.955Z"/><path fill="#9D5025" d="M38.319 186.297 125.334 230v-31.342l-87.01-30.729-.005 18.368Zm-.04-31.037 87.055 21.799v-31.512L38.279 136.8v18.46Z"/></g><defs><clipPath id="a"><path fill="#fff" d="M38 19h175v211H38z"/></clipPath></defs></svg>