<?xml version="1.0" encoding="UTF-8" standalone="no"?>
<!-- Generator: Adobe Illustrator 19.2.1, SVG Export Plug-In . SVG Version: 6.00 Build 0)  -->

<svg
   version="1.1"
   id="layer"
   x="0px"
   y="0px"
   viewBox="0 0 204.82629 138.125"
   xml:space="preserve"
   sodipodi:docname="klaviyo.svg"
   width="204.82629"
   height="138.125"
   inkscape:version="1.2.1 (9c6d41e410, 2022-07-14, custom)"
   xmlns:inkscape="http://www.inkscape.org/namespaces/inkscape"
   xmlns:sodipodi="http://sodipodi.sourceforge.net/DTD/sodipodi-0.dtd"
   xmlns="http://www.w3.org/2000/svg"
   xmlns:svg="http://www.w3.org/2000/svg"><defs
   id="defs385" /><sodipodi:namedview
   id="namedview383"
   pagecolor="#ffffff"
   bordercolor="#666666"
   borderopacity="1.0"
   inkscape:showpageshadow="2"
   inkscape:pageopacity="0.0"
   inkscape:pagecheckerboard="0"
   inkscape:deskcolor="#d1d1d1"
   showgrid="false"
   inkscape:zoom="1.5751534"
   inkscape:cx="304.73223"
   inkscape:cy="73.008763"
   inkscape:window-width="1920"
   inkscape:window-height="1043"
   inkscape:window-x="3840"
   inkscape:window-y="1080"
   inkscape:window-maximized="1"
   inkscape:current-layer="layer" />
<style
   type="text/css"
   id="style363">
	.st0{fill:url(#SVGID_1_);}
	.st1{fill:#171A1D;}
</style>
<linearGradient
   id="SVGID_1_"
   gradientUnits="userSpaceOnUse"
   x1="153.74921"
   y1="-303.44461"
   x2="153.74921"
   y2="-108.1781"
   gradientTransform="matrix(0.7071,0,0,-0.7071,-6.3488674,-76.4762)">
	<stop
   offset="0"
   style="stop-color:#EFC119"
   id="stop365" />
	<stop
   offset="0.3314"
   style="stop-color:#92C84E"
   id="stop367" />
	<stop
   offset="0.4859"
   style="stop-color:#71BF5B"
   id="stop369" />
	<stop
   offset="0.7506"
   style="stop-color:#15B158"
   id="stop371" />
	<stop
   offset="0.903"
   style="stop-color:#23AC69"
   id="stop373" />
	<stop
   offset="1"
   style="stop-color:#23AC69"
   id="stop375" />
</linearGradient>
<path
   class="st0"
   d="M 4.1832326,62.525 95.983233,1.725 c 4,-2.3 8.899997,-2.3 12.899997,0 l 91.8,60.8 c 3.6,1.8 5.2,6.1 3.4,9.8 -0.7,1.5 -1.9,2.7 -3.4,3.4 l -12.3,8.1 c -30.1,-47.5 -92.899997,-61.6 -140.399997,-31.6 -12.7,8.1 -23.5,18.8 -31.6,31.6 l -12.4000004,-8.1 c -3.59999998,-1.9 -5,-6.3 -3.19999998,-9.9 0.79999998,-1.4 1.99999998,-2.6 3.39999998,-3.3 z m 98.0999974,-0.7 c -26.299997,0.1 -50.799997,13.6 -64.799997,35.9 l 21.1,14 c 14.5,-24.1 45.799997,-31.8 69.799997,-17.3 7.1,4.3 13,10.2 17.3,17.3 l 21.1,-14 c -13.8,-22.4 -38.2,-36 -64.5,-35.9 z m 0,50.8 c -9.299997,0.1 -17.799997,5.1 -22.399997,13.2 l 14.2,9.3 c 2.3,2 5.2,3 8.199997,3 3,0 6,-1.1 8.2,-3 l 14.2,-9.3 c -4.5,-8.2 -13.1,-13.2 -22.4,-13.2 z"
   id="path378"
   style="fill:url(#SVGID_1_)" />

</svg>
