<svg width="250" height="250" viewBox="0 0 250 250" fill="none" xmlns="http://www.w3.org/2000/svg">
<path d="M63.1555 121.306L121.088 83.2518C123.612 81.8123 126.704 81.8123 129.228 83.2518L187.16 121.306C189.432 122.433 190.442 125.124 189.306 127.44C188.864 128.379 188.107 129.13 187.16 129.568L179.398 134.638C160.403 104.908 120.772 96.0828 90.7963 114.86C82.7817 119.93 75.9662 126.627 70.8546 134.638L63.0293 129.568C60.7575 128.379 59.874 125.625 61.0099 123.372C61.5148 122.496 62.272 121.745 63.1555 121.306ZM125.063 120.868C108.466 120.931 93.005 129.381 84.1701 143.338L97.4856 152.101C106.636 137.017 126.389 132.197 141.534 141.273C146.015 143.964 149.738 147.657 152.452 152.101L165.767 143.338C157.058 129.318 141.66 120.806 125.063 120.868ZM125.063 152.664C119.194 152.727 113.83 155.856 110.927 160.926L119.889 166.747C121.34 167.999 123.17 168.624 125.063 168.624C126.957 168.624 128.85 167.936 130.238 166.747L139.199 160.926C136.359 155.794 130.932 152.664 125.063 152.664Z" fill="url(#paint0_linear_2_7338)"/>
<defs>
<linearGradient id="paint0_linear_2_7338" x1="125.116" y1="168.602" x2="125.116" y2="82.1825" gradientUnits="userSpaceOnUse">
<stop stop-color="#EFC119"/>
<stop offset="0.3314" stop-color="#92C84E"/>
<stop offset="0.4859" stop-color="#71BF5B"/>
<stop offset="0.7506" stop-color="#15B158"/>
<stop offset="0.903" stop-color="#23AC69"/>
<stop offset="1" stop-color="#23AC69"/>
</linearGradient>
</defs>
</svg>
