<svg xmlns="http://www.w3.org/2000/svg" xml:space="preserve" id="layer" width="204.826" height="138.125" x="0" y="0" version="1.1"><style id="style363" type="text/css">.st1{fill:#171a1d}</style><linearGradient id="SVGID_1_" x1="153.749" x2="153.749" y1="-303.445" y2="-108.178" gradientTransform="matrix(.7071 0 0 -.7071 -6.349 -76.476)" gradientUnits="userSpaceOnUse"><stop id="stop365" offset="0" style="stop-color:#efc119"/><stop id="stop367" offset=".331" style="stop-color:#92c84e"/><stop id="stop369" offset=".486" style="stop-color:#71bf5b"/><stop id="stop371" offset=".751" style="stop-color:#15b158"/><stop id="stop373" offset=".903" style="stop-color:#23ac69"/><stop id="stop375" offset="1" style="stop-color:#23ac69"/></linearGradient><path id="path378" d="m4.183 62.525 91.8-60.8c4-2.3 8.9-2.3 12.9 0l91.8 60.8c3.6 1.8 5.2 6.1 3.4 9.8-.7 1.5-1.9 2.7-3.4 3.4l-12.3 8.1c-30.1-47.5-92.9-61.6-140.4-31.6-12.7 8.1-23.5 18.8-31.6 31.6l-12.4-8.1c-3.6-1.9-5-6.3-3.2-9.9.8-1.4 2-2.6 3.4-3.3zm98.1-.7c-26.3.1-50.8 13.6-64.8 35.9l21.1 14c14.5-24.1 45.8-31.8 69.8-17.3 7.1 4.3 13 10.2 17.3 17.3l21.1-14c-13.8-22.4-38.2-36-64.5-35.9zm0 50.8c-9.3.1-17.8 5.1-22.4 13.2l14.2 9.3c2.3 2 5.2 3 8.2 3 3 0 6-1.1 8.2-3l14.2-9.3c-4.5-8.2-13.1-13.2-22.4-13.2z" style="fill:url(#SVGID_1_)"/></svg>