<?xml version="1.0" encoding="utf-8"?>
<!-- Generator: Adobe Illustrator 19.2.1, SVG Export Plug-In . SVG Version: 6.00 Build 0)  -->
<svg version="1.1" id="layer" xmlns="http://www.w3.org/2000/svg" xmlns:xlink="http://www.w3.org/1999/xlink" x="0px" y="0px"
	 viewBox="0 0 652 652" style="enable-background:new 0 0 652 652;" xml:space="preserve">
<style type="text/css">
	.st0{fill:url(#SVGID_1_);}
	.st1{fill:#171A1D;}
</style>
<linearGradient id="SVGID_1_" gradientUnits="userSpaceOnUse" x1="153.7492" y1="-303.4446" x2="153.7492" y2="-108.1781" gradientTransform="matrix(0.7071 0 0 -0.7071 14.4679 176.7988)">
	<stop  offset="0" style="stop-color:#EFC119"/>
	<stop  offset="0.3314" style="stop-color:#92C84E"/>
	<stop  offset="0.4859" style="stop-color:#71BF5B"/>
	<stop  offset="0.7506" style="stop-color:#15B158"/>
	<stop  offset="0.903" style="stop-color:#23AC69"/>
	<stop  offset="1" style="stop-color:#23AC69"/>
</linearGradient>
<path class="st0" d="M25,315.8l91.8-60.8c4-2.3,8.9-2.3,12.9,0l91.8,60.8c3.6,1.8,5.2,6.1,3.4,9.8c-0.7,1.5-1.9,2.7-3.4,3.4
	l-12.3,8.1c-30.1-47.5-92.9-61.6-140.4-31.6c-12.7,8.1-23.5,18.8-31.6,31.6L24.8,329c-3.6-1.9-5-6.3-3.2-9.9
	C22.4,317.7,23.6,316.5,25,315.8z M123.1,315.1c-26.3,0.1-50.8,13.6-64.8,35.9l21.1,14c14.5-24.1,45.8-31.8,69.8-17.3
	c7.1,4.3,13,10.2,17.3,17.3l21.1-14C173.8,328.6,149.4,315,123.1,315.1z M123.1,365.9c-9.3,0.1-17.8,5.1-22.4,13.2l14.2,9.3
	c2.3,2,5.2,3,8.2,3c3,0,6-1.1,8.2-3l14.2-9.3C141,370.9,132.4,365.9,123.1,365.9z"/>
<path class="st1" d="M282.5,322l23,33h-16.2l-17.4-25.6V355h-13.2v-65.4h13.2v26.1l16.5-26.1h15.2L282.5,322z M328.2,289.8H315v65.4
	h33.7V342h-20.8L328.2,289.8L328.2,289.8z M387.7,287.4l27.5,67.7h-14.8l-2.6-7.1h-21.7l-2.6,7.1h-14.9l27.5-67.7L387.7,287.4z
	 M393,335.8l-5.9-16.9l-6.1,16.9H393z M433.7,326.1l-13.5-36.3h-14.8l27.5,67.7h1.3l27.5-67.7h-14.9L433.7,326.1z M471.8,355.2h13.2
	v-65.4h-13.2L471.8,355.2z M537.2,289.8l-13.3,22.6l-13.3-22.6h-15.9l22.7,35.9v29.5h13v-29.5l22.9-35.9H537.2z M620.8,321.3
	c0,18.7-15.2,33.9-33.9,33.9c-18.7,0-33.9-15.2-33.9-33.9s15.2-33.9,33.9-33.9l0,0C605.7,287.5,620.8,302.6,620.8,321.3z
	 M608.1,321.3c0-11.7-9.5-21.1-21.1-21.1c-11.7,0-21.1,9.5-21.1,21.1s9.5,21.1,21.1,21.1c0,0,0,0,0,0c11.6,0,21.1-9.4,21.1-21
	C608.1,321.4,608.1,321.4,608.1,321.3L608.1,321.3z"/>
</svg>
