<svg id="svg" version="1.1" xmlns="http://www.w3.org/2000/svg" xmlns:xlink="http://www.w3.org/1999/xlink" width="400" height="398.2222222222222" viewBox="0, 0, 400,398.2222222222222"><g id="svgg"><path id="path0" d="M162.113 105.517 C 160.887 105.660,159.632 105.981,159.324 106.230 C 159.017 106.479,157.958 106.808,156.972 106.961 C 155.986 107.114,154.501 107.582,153.673 108.002 C 152.845 108.422,151.795 108.765,151.340 108.765 C 150.885 108.765,149.981 109.213,149.330 109.761 C 148.679 110.309,147.919 110.757,147.641 110.757 C 147.363 110.757,146.811 111.116,146.414 111.554 C 146.018 111.992,145.465 112.351,145.186 112.351 C 144.907 112.351,144.407 112.623,144.074 112.955 C 143.742 113.287,142.609 114.215,141.556 115.017 C 139.573 116.527,135.861 120.196,135.851 120.655 C 135.845 120.966,134.491 122.728,132.968 124.408 C 132.366 125.072,131.873 125.834,131.873 126.101 C 131.873 126.368,131.514 127.042,131.076 127.599 C 130.637 128.156,130.279 128.872,130.279 129.191 C 130.279 129.509,129.831 130.430,129.283 131.237 C 128.735 132.044,128.287 133.258,128.287 133.935 C 128.287 134.611,127.883 135.814,127.390 136.606 L 126.494 138.048 126.494 170.916 L 126.494 203.785 128.431 205.578 C 129.496 206.564,130.662 207.550,131.021 207.769 C 133.012 208.985,175.299 208.371,175.299 207.127 C 175.299 206.923,175.706 206.570,176.203 206.344 C 176.701 206.117,177.606 205.000,178.215 203.862 L 179.323 201.793 179.203 181.673 L 179.084 161.554 178.088 160.181 C 176.905 158.552,175.261 157.002,174.695 156.985 C 174.473 156.978,173.622 156.614,172.804 156.175 C 171.409 155.428,170.556 155.378,158.994 155.378 C 147.990 155.378,146.599 155.307,146.002 154.710 C 144.921 153.629,145.324 143.439,146.535 141.241 C 147.017 140.368,147.410 139.400,147.410 139.091 C 147.410 138.481,149.393 135.370,151.330 132.944 C 152.444 131.548,154.174 130.020,156.031 128.792 C 156.439 128.522,157.467 127.840,158.316 127.277 C 159.164 126.714,160.599 126.106,161.503 125.926 C 162.407 125.747,163.685 125.310,164.343 124.954 C 165.220 124.479,166.612 124.307,169.580 124.305 L 173.623 124.303 176.453 121.473 L 179.283 118.643 179.283 114.833 C 179.283 110.750,179.369 110.964,176.633 108.228 C 173.634 105.229,174.039 105.384,168.996 105.318 C 166.436 105.285,163.339 105.374,162.113 105.517 M256.727 105.521 C 255.607 105.668,254.423 106.010,254.098 106.280 C 253.772 106.551,252.627 106.880,251.553 107.012 C 250.480 107.144,249.116 107.592,248.522 108.008 C 247.928 108.425,247.101 108.765,246.683 108.765 C 246.266 108.765,245.482 109.112,244.943 109.537 C 244.403 109.962,243.495 110.426,242.926 110.569 C 242.357 110.712,241.581 111.171,241.203 111.590 C 240.824 112.008,240.307 112.351,240.054 112.351 C 238.794 112.351,227.888 123.191,227.888 124.444 C 227.888 124.746,227.530 125.448,227.092 126.005 C 226.653 126.562,226.295 127.179,226.295 127.376 C 226.295 127.573,225.847 128.341,225.299 129.084 C 224.751 129.826,224.303 130.823,224.303 131.299 C 224.303 131.774,223.972 132.591,223.567 133.114 C 223.162 133.636,222.715 134.932,222.573 135.992 C 222.432 137.053,221.956 138.734,221.517 139.728 C 220.287 142.507,220.262 201.306,221.489 202.866 C 221.914 203.406,222.376 204.282,222.517 204.812 C 222.830 205.995,225.007 207.452,227.228 207.965 C 229.412 208.469,265.017 208.482,267.665 207.980 C 270.673 207.410,273.224 204.744,273.732 201.640 C 274.162 199.020,274.181 165.692,273.755 162.711 C 273.424 160.394,270.904 157.254,268.992 156.777 C 268.407 156.631,267.656 156.266,267.323 155.966 C 266.843 155.534,264.061 155.396,253.937 155.300 C 243.828 155.205,241.019 155.065,240.499 154.632 C 239.526 153.824,239.589 147.534,240.603 144.165 C 241.022 142.773,241.482 141.063,241.625 140.366 C 241.767 139.669,242.130 138.895,242.430 138.645 C 242.731 138.396,243.087 137.690,243.222 137.077 C 243.857 134.186,253.808 125.896,256.644 125.896 C 257.059 125.896,257.874 125.585,258.454 125.205 C 259.232 124.695,260.679 124.458,263.953 124.302 C 267.440 124.137,268.544 123.943,269.086 123.401 C 269.466 123.021,270.213 122.601,270.745 122.467 C 271.277 122.334,271.713 122.031,271.713 121.795 C 271.713 121.559,272.077 120.979,272.522 120.505 C 273.675 119.277,274.225 115.408,273.708 112.167 C 272.776 106.337,267.181 104.147,256.727 105.521 M135.479 257.927 C 133.158 258.766,132.809 262.973,134.858 265.409 C 135.407 266.061,135.857 266.850,135.857 267.162 C 135.857 267.474,136.041 267.729,136.267 267.729 C 136.493 267.729,136.795 268.043,136.937 268.426 C 137.579 270.161,146.882 280.327,150.223 282.946 C 150.977 283.537,152.570 284.926,153.764 286.034 C 154.958 287.142,156.069 288.048,156.234 288.048 C 156.673 288.048,159.960 290.316,160.549 291.025 C 160.827 291.360,161.380 291.633,161.778 291.633 C 162.177 291.633,162.603 291.795,162.725 291.993 C 162.993 292.426,168.420 295.219,168.993 295.219 C 169.215 295.219,169.852 295.578,170.409 296.016 C 170.966 296.454,171.780 296.813,172.218 296.813 C 172.655 296.813,173.573 297.149,174.256 297.561 C 174.939 297.973,176.215 298.434,177.092 298.587 C 177.968 298.739,179.103 299.133,179.614 299.462 C 180.125 299.791,181.919 300.199,183.602 300.369 C 185.284 300.539,187.233 300.973,187.932 301.335 C 189.772 302.286,210.162 302.320,211.990 301.375 C 212.646 301.036,214.603 300.596,216.337 300.398 C 218.072 300.200,219.902 299.770,220.403 299.442 C 220.904 299.114,222.116 298.717,223.095 298.561 C 224.074 298.405,225.419 297.965,226.083 297.583 C 226.747 297.202,227.861 296.771,228.558 296.627 C 229.255 296.482,230.039 296.106,230.300 295.791 C 230.561 295.477,231.049 295.219,231.384 295.219 C 231.719 295.219,233.356 294.436,235.021 293.479 C 236.686 292.523,238.451 291.614,238.944 291.461 C 239.437 291.307,239.841 291.018,239.841 290.818 C 239.841 290.618,240.558 290.089,241.434 289.641 C 242.311 289.194,243.028 288.653,243.028 288.438 C 243.028 288.223,243.305 288.048,243.645 288.048 C 243.984 288.048,244.656 287.641,245.139 287.145 C 245.621 286.648,247.620 284.900,249.580 283.260 C 252.682 280.666,254.184 279.210,257.968 275.130 C 258.406 274.658,259.385 273.472,260.143 272.494 C 260.900 271.517,261.842 270.483,262.234 270.197 C 262.627 269.910,262.948 269.426,262.948 269.121 C 262.948 268.815,263.173 268.422,263.447 268.247 C 263.721 268.072,264.214 267.396,264.542 266.745 C 264.871 266.094,265.453 265.243,265.837 264.853 C 266.561 264.115,266.851 259.614,266.229 258.763 C 265.227 257.391,264.184 257.370,199.972 257.401 C 150.665 257.425,136.552 257.540,135.479 257.927 " stroke="none" fill="#070707" fill-rule="evenodd"></path><path id="path1" d="M113.363 18.616 C 112.934 18.725,112.217 19.055,111.770 19.347 C 111.322 19.639,109.253 20.006,107.171 20.162 C 104.755 20.343,103.242 20.639,102.988 20.981 C 102.769 21.275,101.294 21.677,99.711 21.875 C 98.128 22.072,96.573 22.493,96.256 22.811 C 95.939 23.128,94.778 23.494,93.677 23.625 C 92.436 23.772,91.365 24.172,90.858 24.680 C 90.316 25.221,89.522 25.498,88.508 25.498 C 87.509 25.498,86.738 25.761,86.291 26.255 C 85.914 26.672,84.945 27.136,84.137 27.287 C 83.330 27.437,82.349 27.903,81.957 28.322 C 81.565 28.741,80.719 29.084,80.078 29.084 C 79.344 29.084,78.764 29.362,78.511 29.834 C 78.290 30.247,77.494 30.700,76.742 30.841 C 75.991 30.982,75.287 31.327,75.180 31.609 C 75.072 31.890,74.266 32.335,73.389 32.597 C 72.513 32.860,71.693 33.342,71.568 33.669 C 71.442 33.996,71.041 34.263,70.676 34.263 C 70.311 34.263,69.596 34.711,69.089 35.259 C 68.581 35.807,67.805 36.255,67.364 36.255 C 66.923 36.255,66.370 36.614,66.135 37.052 C 65.901 37.490,65.491 37.852,65.225 37.855 C 64.959 37.859,64.319 38.307,63.803 38.852 C 63.287 39.396,62.537 39.841,62.136 39.841 C 61.736 39.841,61.294 40.199,61.155 40.637 C 61.016 41.076,60.631 41.434,60.300 41.434 C 59.969 41.434,58.918 42.196,57.965 43.127 C 57.012 44.059,55.386 45.538,54.352 46.414 C 53.318 47.291,51.889 48.591,51.176 49.303 C 50.464 50.015,49.683 50.598,49.442 50.598 C 49.201 50.598,49.004 50.750,49.004 50.937 C 49.004 51.124,48.511 51.809,47.908 52.459 C 46.515 53.964,43.101 57.799,41.932 59.173 C 41.439 59.753,41.036 60.391,41.036 60.592 C 41.036 60.792,40.786 60.956,40.481 60.956 C 40.177 60.956,39.815 61.404,39.677 61.952 C 39.540 62.500,39.181 62.948,38.880 62.948 C 38.579 62.948,38.229 63.366,38.101 63.876 C 37.973 64.386,37.415 65.291,36.862 65.888 C 36.309 66.485,35.857 67.233,35.857 67.550 C 35.857 67.868,35.673 68.127,35.450 68.127 C 35.226 68.127,34.833 68.621,34.577 69.223 C 34.321 69.826,33.810 70.677,33.442 71.116 C 32.743 71.947,31.956 73.338,30.848 75.697 C 30.488 76.464,29.943 77.235,29.638 77.410 C 29.333 77.585,29.084 78.168,29.084 78.705 C 29.084 79.242,28.735 80.030,28.308 80.457 C 27.881 80.884,27.341 81.941,27.108 82.807 C 26.875 83.672,26.418 84.483,26.091 84.608 C 25.730 84.747,25.498 85.355,25.498 86.165 C 25.498 86.958,25.096 88.040,24.502 88.845 C 23.868 89.704,23.506 90.723,23.506 91.649 C 23.506 92.567,23.229 93.354,22.757 93.781 C 22.253 94.238,21.947 95.189,21.823 96.692 C 21.699 98.185,21.410 99.091,20.950 99.427 C 20.445 99.796,20.201 100.742,20.032 102.984 C 19.883 104.950,19.581 106.259,19.185 106.655 C 18.730 107.110,18.489 108.619,18.264 112.428 C 18.070 115.715,17.737 118.030,17.346 118.814 C 16.412 120.686,16.412 277.720,17.346 279.593 C 17.739 280.380,18.071 282.706,18.269 286.059 C 18.492 289.840,18.732 291.392,19.133 291.639 C 19.492 291.861,19.788 293.146,19.971 295.275 C 20.176 297.664,20.438 298.703,20.924 299.059 C 21.355 299.374,21.698 300.423,21.884 301.999 C 22.042 303.347,22.406 304.594,22.693 304.771 C 22.979 304.947,23.356 305.995,23.530 307.099 C 23.713 308.256,24.197 309.456,24.673 309.932 C 25.179 310.437,25.498 311.273,25.498 312.090 C 25.498 312.893,25.799 313.694,26.255 314.108 C 26.672 314.485,27.121 315.370,27.253 316.074 C 27.385 316.779,27.851 317.662,28.289 318.037 C 28.726 318.411,29.084 319.139,29.084 319.655 C 29.084 320.171,29.432 320.909,29.858 321.294 C 30.284 321.680,30.743 322.499,30.878 323.116 C 31.014 323.732,31.359 324.326,31.646 324.437 C 31.933 324.547,32.294 325.136,32.447 325.747 C 32.600 326.357,33.071 327.099,33.494 327.395 C 33.917 327.691,34.263 328.284,34.263 328.712 C 34.263 329.140,34.622 329.797,35.060 330.172 C 35.498 330.547,35.857 331.057,35.857 331.304 C 35.857 331.552,36.394 332.317,37.052 333.005 C 37.709 333.693,38.247 334.483,38.247 334.761 C 38.247 335.039,38.606 335.490,39.044 335.764 C 39.482 336.038,39.841 336.486,39.841 336.760 C 39.841 337.034,40.199 337.482,40.637 337.756 C 41.076 338.030,41.434 338.421,41.434 338.625 C 41.434 338.830,42.196 339.793,43.127 340.767 C 44.059 341.740,45.717 343.562,46.813 344.816 C 49.211 347.560,49.157 347.506,52.019 350.000 C 53.276 351.096,55.070 352.754,56.006 353.685 C 56.941 354.617,57.893 355.378,58.122 355.378 C 58.351 355.378,58.730 355.737,58.964 356.175 C 59.199 356.614,59.643 356.972,59.952 356.972 C 60.260 356.972,60.747 357.289,61.033 357.675 C 61.320 358.062,62.052 358.599,62.661 358.867 C 63.269 359.136,63.871 359.626,63.998 359.957 C 64.125 360.287,64.471 360.558,64.768 360.558 C 65.065 360.558,65.628 360.894,66.020 361.305 C 66.412 361.716,67.181 362.190,67.729 362.358 C 68.277 362.527,68.959 362.997,69.246 363.404 C 69.532 363.811,70.018 364.143,70.326 364.143 C 70.634 364.143,71.206 364.478,71.598 364.887 C 71.990 365.297,72.967 365.843,73.770 366.102 C 74.572 366.361,75.328 366.833,75.450 367.151 C 75.572 367.469,76.119 367.729,76.665 367.729 C 77.211 367.729,77.979 368.067,78.371 368.479 C 78.763 368.892,79.648 369.351,80.337 369.498 C 81.027 369.646,81.906 370.115,82.291 370.541 C 82.706 370.999,83.510 371.315,84.263 371.315 C 85.000 371.315,85.818 371.629,86.211 372.063 C 86.597 372.490,87.696 372.918,88.775 373.061 C 89.930 373.214,90.928 373.620,91.344 374.106 C 91.835 374.680,92.519 374.900,93.805 374.900 C 95.024 374.900,95.811 375.135,96.299 375.644 C 96.775 376.141,97.874 376.482,99.602 376.671 C 101.026 376.826,102.486 377.218,102.846 377.543 C 103.269 377.925,104.887 378.241,107.433 378.438 C 110.254 378.657,111.697 378.960,112.538 379.511 C 113.678 380.258,115.164 380.282,167.465 380.405 C 221.062 380.532,224.271 380.462,220.792 379.249 C 220.093 379.006,219.522 378.657,219.522 378.474 C 219.522 378.291,219.158 378.026,218.712 377.884 C 218.267 377.743,217.434 377.193,216.861 376.662 C 216.289 376.132,215.589 375.697,215.307 375.697 C 215.025 375.697,214.681 375.339,214.542 374.900 C 214.401 374.457,213.939 374.104,213.500 374.104 C 213.066 374.104,212.296 373.655,211.788 373.108 C 211.280 372.560,210.663 372.112,210.416 372.112 C 210.169 372.112,209.743 371.753,209.469 371.315 C 209.196 370.876,208.729 370.518,208.433 370.518 C 207.850 370.518,206.063 369.262,204.605 367.829 C 204.104 367.336,203.500 366.932,203.264 366.932 C 203.027 366.932,202.600 366.603,202.313 366.200 C 202.027 365.797,201.305 365.347,200.709 365.199 C 200.112 365.052,199.434 364.574,199.201 364.139 C 198.968 363.703,198.516 363.347,198.197 363.347 C 197.877 363.347,197.392 362.988,197.119 362.550 C 196.845 362.112,196.409 361.753,196.150 361.753 C 195.891 361.753,195.146 361.305,194.495 360.757 C 193.844 360.209,193.145 359.761,192.943 359.761 C 192.740 359.761,192.184 359.313,191.708 358.765 C 191.232 358.217,190.572 357.769,190.242 357.769 C 189.912 357.769,189.641 357.500,189.641 357.171 C 189.641 356.835,189.285 356.574,188.826 356.574 C 188.377 356.574,187.594 356.125,187.087 355.578 C 186.579 355.030,185.970 354.582,185.734 354.582 C 185.498 354.582,185.059 354.232,184.759 353.804 C 184.459 353.376,183.777 352.833,183.243 352.598 C 181.903 352.009,179.551 350.265,179.164 349.575 C 178.989 349.261,178.495 349.004,178.068 349.004 C 177.640 349.004,177.291 348.749,177.291 348.437 C 177.291 348.126,176.662 347.663,175.893 347.409 C 175.125 347.156,174.312 346.604,174.087 346.183 C 173.861 345.763,173.416 345.418,173.097 345.418 C 172.778 345.418,172.293 345.060,172.019 344.622 C 171.745 344.183,171.279 343.825,170.983 343.825 C 170.400 343.825,168.612 342.569,167.155 341.135 C 166.653 340.642,165.956 340.239,165.606 340.239 C 165.255 340.239,164.793 339.912,164.579 339.512 C 163.784 338.026,161.690 337.849,144.971 337.849 C 135.188 337.849,128.334 337.689,127.487 337.442 C 126.722 337.218,123.536 336.921,120.407 336.781 C 115.882 336.580,114.559 336.390,113.938 335.851 C 113.491 335.463,112.120 335.066,110.729 334.920 C 109.214 334.762,107.917 334.366,107.283 333.867 C 106.724 333.427,105.692 333.068,104.988 333.068 C 104.242 333.068,103.427 332.755,103.031 332.319 C 102.659 331.907,101.653 331.458,100.797 331.321 C 99.941 331.184,99.098 330.830,98.923 330.533 C 98.749 330.236,97.949 329.780,97.147 329.519 C 96.344 329.258,95.588 328.785,95.466 328.467 C 95.344 328.149,94.889 327.888,94.455 327.888 C 94.022 327.888,93.183 327.440,92.592 326.892 C 92.001 326.345,91.281 325.896,90.992 325.896 C 90.703 325.896,90.274 325.538,90.040 325.100 C 89.805 324.661,89.370 324.303,89.072 324.303 C 88.774 324.303,88.108 323.858,87.592 323.314 C 87.076 322.770,86.436 322.321,86.169 322.318 C 85.903 322.314,85.500 321.964,85.273 321.541 C 85.047 321.118,84.503 320.657,84.064 320.518 C 83.626 320.379,83.267 320.029,83.267 319.741 C 83.267 319.452,82.895 319.119,82.441 319.000 C 81.986 318.881,81.521 318.429,81.408 317.995 C 81.294 317.560,80.859 317.116,80.441 317.006 C 80.023 316.897,79.681 316.534,79.681 316.200 C 79.681 315.865,79.323 315.478,78.884 315.339 C 78.446 315.200,78.088 314.933,78.088 314.746 C 78.088 314.559,77.281 313.599,76.295 312.613 C 75.309 311.627,74.502 310.658,74.502 310.459 C 74.502 310.261,74.054 309.678,73.506 309.163 C 72.958 308.649,72.510 307.907,72.510 307.514 C 72.510 307.122,72.172 306.620,71.759 306.399 C 71.346 306.178,70.885 305.507,70.735 304.909 C 70.585 304.310,70.116 303.578,69.693 303.282 C 69.270 302.986,68.924 302.402,68.924 301.985 C 68.924 301.568,68.587 300.906,68.174 300.514 C 67.761 300.122,67.295 299.200,67.137 298.465 C 66.980 297.731,66.511 296.790,66.095 296.374 C 65.679 295.958,65.339 295.104,65.339 294.476 C 65.339 293.848,65.006 292.907,64.601 292.384 C 64.195 291.862,63.736 290.460,63.581 289.270 C 63.416 287.999,63.032 286.910,62.652 286.631 C 62.159 286.271,61.961 285.267,61.826 282.444 C 61.698 279.764,61.442 278.393,60.905 277.513 C 59.782 275.671,59.735 122.690,60.857 121.105 C 61.347 120.412,61.617 119.035,61.766 116.462 C 61.924 113.731,62.157 112.606,62.687 112.021 C 63.104 111.560,63.492 110.305,63.630 108.970 C 63.764 107.667,64.084 106.618,64.381 106.504 C 64.665 106.395,65.096 105.350,65.339 104.183 C 65.581 103.016,66.016 101.970,66.305 101.859 C 66.595 101.748,66.954 101.005,67.104 100.208 C 67.253 99.411,67.724 98.460,68.150 98.096 C 68.576 97.731,68.924 97.030,68.924 96.539 C 68.924 96.048,69.262 95.465,69.675 95.244 C 70.088 95.023,70.548 94.355,70.698 93.760 C 70.847 93.165,71.234 92.485,71.557 92.249 C 71.880 92.013,72.361 91.444,72.626 90.986 C 74.001 88.609,75.543 86.610,77.504 84.665 C 78.701 83.477,79.681 82.330,79.681 82.116 C 79.681 81.902,80.040 81.613,80.478 81.474 C 80.916 81.335,81.275 80.960,81.275 80.641 C 81.275 80.321,81.723 79.890,82.271 79.681 C 82.819 79.473,83.267 79.029,83.267 78.695 C 83.267 78.361,83.485 78.088,83.751 78.088 C 84.017 78.088,84.600 77.732,85.046 77.297 C 87.136 75.257,88.685 74.104,89.332 74.104 C 89.721 74.104,90.040 73.838,90.040 73.514 C 90.040 73.189,90.493 72.810,91.046 72.671 C 91.600 72.532,92.230 72.088,92.446 71.684 C 92.662 71.281,93.464 70.833,94.228 70.690 C 95.000 70.545,95.618 70.190,95.618 69.891 C 95.618 69.595,96.314 69.166,97.165 68.937 C 98.016 68.708,98.919 68.271,99.171 67.967 C 99.423 67.663,100.261 67.296,101.032 67.151 C 101.804 67.006,102.783 66.539,103.209 66.113 C 103.670 65.653,104.528 65.339,105.325 65.339 C 106.062 65.339,107.093 65.007,107.616 64.601 C 108.165 64.175,109.549 63.766,110.898 63.630 C 112.304 63.489,113.543 63.112,114.019 62.682 C 114.667 62.095,115.852 61.918,120.651 61.691 C 123.865 61.539,127.120 61.222,127.886 60.986 C 129.845 60.383,270.155 60.383,272.114 60.986 C 272.880 61.222,276.135 61.539,279.349 61.691 C 284.097 61.916,285.337 62.099,285.965 62.667 C 286.454 63.110,287.703 63.456,289.374 63.612 C 291.207 63.783,292.215 64.084,292.681 64.598 C 293.103 65.065,293.894 65.339,294.821 65.339 C 295.789 65.339,296.539 65.613,297.017 66.141 C 297.417 66.583,298.446 67.057,299.305 67.194 C 300.163 67.331,300.958 67.685,301.071 67.980 C 301.184 68.276,301.976 68.705,302.830 68.935 C 303.735 69.179,304.382 69.596,304.382 69.936 C 304.382 70.294,304.773 70.518,305.398 70.518 C 305.968 70.518,306.816 70.954,307.336 71.514 C 307.843 72.062,308.546 72.510,308.896 72.510 C 309.247 72.510,309.726 72.869,309.960 73.307 C 310.195 73.745,310.657 74.104,310.988 74.104 C 311.319 74.104,312.038 74.552,312.586 75.100 C 313.134 75.647,313.749 76.096,313.953 76.096 C 314.157 76.096,314.618 76.544,314.977 77.092 C 315.336 77.639,315.780 78.088,315.965 78.088 C 316.441 78.088,320.717 82.389,320.717 82.868 C 320.717 83.088,320.992 83.267,321.327 83.267 C 321.663 83.267,322.046 83.550,322.179 83.897 C 322.312 84.243,323.158 85.310,324.059 86.268 C 326.101 88.438,327.490 90.249,327.490 90.742 C 327.490 90.949,327.938 91.602,328.486 92.193 C 329.034 92.785,329.482 93.500,329.482 93.783 C 329.482 94.067,329.841 94.623,330.279 95.020 C 330.717 95.417,331.076 96.046,331.076 96.418 C 331.076 96.790,331.524 97.578,332.072 98.170 C 332.620 98.761,333.068 99.655,333.068 100.158 C 333.068 100.661,333.405 101.377,333.817 101.749 C 334.228 102.122,334.682 103.154,334.824 104.042 C 334.966 104.930,335.335 105.910,335.645 106.220 C 335.954 106.529,336.329 107.632,336.477 108.670 C 336.626 109.708,337.085 111.117,337.497 111.800 C 338.039 112.697,338.247 113.805,338.247 115.790 C 338.247 117.780,338.468 118.949,339.047 120.030 C 340.119 122.030,340.131 277.814,339.059 278.477 C 338.644 278.733,338.416 279.906,338.262 282.575 C 338.107 285.280,337.868 286.493,337.399 286.962 C 337.042 287.318,336.624 288.616,336.471 289.845 C 336.307 291.157,335.965 292.168,335.645 292.291 C 335.344 292.406,334.976 293.316,334.826 294.312 C 334.677 295.308,334.220 296.457,333.811 296.866 C 333.402 297.275,333.068 297.954,333.068 298.376 C 333.068 298.797,332.620 299.675,332.072 300.326 C 331.524 300.977,331.076 301.885,331.076 302.345 C 331.076 302.805,330.717 303.404,330.279 303.678 C 329.841 303.952,329.482 304.392,329.482 304.657 C 329.482 304.922,329.034 305.622,328.486 306.213 C 327.938 306.804,327.490 307.442,327.490 307.631 C 327.490 308.143,325.130 311.306,324.473 311.673 C 324.160 311.848,323.904 312.180,323.904 312.409 C 323.904 312.639,322.739 313.964,321.315 315.353 C 319.890 316.743,318.725 318.070,318.725 318.303 C 318.725 318.535,318.555 318.725,318.347 318.725 C 318.139 318.725,317.486 319.173,316.895 319.721 C 316.304 320.269,315.679 320.717,315.507 320.717 C 315.334 320.717,315.079 321.076,314.940 321.514 C 314.801 321.952,314.462 322.311,314.186 322.311 C 313.910 322.311,313.264 322.759,312.749 323.307 C 312.234 323.855,311.469 324.303,311.049 324.303 C 310.619 324.303,310.193 324.652,310.076 325.100 C 309.961 325.538,309.600 325.896,309.274 325.896 C 308.948 325.896,308.148 326.345,307.497 326.892 C 306.846 327.440,305.975 327.888,305.561 327.888 C 305.147 327.888,304.621 328.239,304.392 328.668 C 304.162 329.098,303.363 329.563,302.612 329.703 C 301.863 329.844,301.158 330.200,301.045 330.495 C 300.931 330.790,300.157 331.155,299.324 331.306 C 298.490 331.457,297.488 331.915,297.096 332.324 C 296.680 332.758,295.832 333.068,295.058 333.068 C 294.329 333.068,293.282 333.422,292.732 333.855 C 292.135 334.325,290.785 334.749,289.391 334.904 C 288.104 335.048,286.730 335.446,286.336 335.789 C 285.799 336.256,284.154 336.493,279.762 336.734 C 276.540 336.910,273.385 337.234,272.749 337.452 C 272.073 337.684,266.118 337.849,258.387 337.849 C 250.581 337.849,245.024 338.003,244.801 338.227 C 244.569 338.459,244.464 346.619,244.529 359.326 L 244.636 380.046 246.081 380.317 C 249.542 380.967,286.345 380.243,287.473 379.503 C 288.180 379.041,289.885 378.688,292.532 378.458 C 295.073 378.238,296.761 377.897,297.175 377.522 C 297.533 377.198,299.027 376.810,300.494 376.660 C 302.334 376.471,303.369 376.156,303.833 375.644 C 304.308 375.120,305.057 374.900,306.375 374.900 C 307.723 374.900,308.439 374.684,308.948 374.121 C 309.339 373.689,310.455 373.222,311.454 373.072 C 312.444 372.923,313.588 372.467,313.997 372.058 C 314.406 371.649,315.281 371.315,315.940 371.315 C 316.645 371.315,317.420 370.987,317.820 370.520 C 318.194 370.082,319.114 369.610,319.863 369.469 C 320.612 369.329,321.559 368.880,321.967 368.471 C 322.375 368.063,323.040 367.729,323.444 367.729 C 323.849 367.729,324.501 367.374,324.893 366.940 C 325.286 366.506,326.210 366.038,326.947 365.900 C 327.684 365.761,328.287 365.411,328.287 365.122 C 328.287 364.832,328.690 364.473,329.183 364.324 C 329.676 364.174,330.438 363.727,330.876 363.330 C 331.315 362.934,332.166 362.487,332.769 362.337 C 333.372 362.187,333.865 361.833,333.865 361.550 C 333.865 361.266,334.402 360.847,335.060 360.617 C 335.717 360.388,336.255 360.024,336.255 359.807 C 336.255 359.591,336.882 359.187,337.649 358.910 C 338.416 358.633,339.044 358.173,339.044 357.888 C 339.044 357.603,339.208 357.371,339.408 357.371 C 339.776 357.371,341.215 356.261,342.780 354.773 C 344.965 352.693,348.560 349.801,348.958 349.801 C 349.203 349.801,349.402 349.595,349.402 349.343 C 349.402 349.091,350.254 348.051,351.295 347.031 C 352.336 346.012,354.084 344.126,355.179 342.841 C 356.275 341.556,357.575 340.110,358.068 339.629 C 358.561 339.147,358.964 338.556,358.964 338.315 C 358.964 338.074,359.323 337.685,359.761 337.450 C 360.199 337.216,360.558 336.767,360.558 336.454 C 360.558 336.141,360.916 335.693,361.355 335.458 C 361.793 335.224,362.151 334.778,362.151 334.469 C 362.151 334.159,362.600 333.422,363.147 332.831 C 363.695 332.240,364.143 331.525,364.143 331.244 C 364.143 330.962,364.502 330.617,364.940 330.478 C 365.450 330.316,365.737 329.875,365.737 329.253 C 365.737 328.713,366.180 327.897,366.733 327.416 C 367.281 326.939,367.729 326.245,367.729 325.873 C 367.729 325.501,367.989 324.982,368.306 324.718 C 368.624 324.455,369.081 323.642,369.322 322.912 C 369.563 322.182,369.997 321.493,370.288 321.382 C 370.578 321.270,370.938 320.528,371.087 319.732 C 371.237 318.936,371.600 318.192,371.894 318.079 C 372.188 317.967,372.624 317.100,372.862 316.153 C 373.101 315.207,373.545 314.337,373.849 314.220 C 374.153 314.103,374.522 313.207,374.669 312.229 C 374.816 311.249,375.286 310.133,375.715 309.745 C 376.231 309.278,376.494 308.522,376.494 307.508 C 376.494 306.543,376.770 305.700,377.238 305.232 C 377.698 304.772,378.094 303.590,378.273 302.144 C 378.458 300.645,378.836 299.544,379.321 299.088 C 379.912 298.533,380.080 297.818,380.080 295.855 C 380.080 293.938,380.270 293.092,380.876 292.322 C 381.423 291.627,381.674 290.702,381.676 289.379 C 381.681 286.118,382.417 280.822,382.956 280.174 C 383.841 279.107,383.692 119.799,382.804 117.928 C 382.381 117.039,382.040 114.874,381.860 111.952 C 381.661 108.710,381.399 107.166,380.963 106.669 C 380.590 106.244,380.252 104.807,380.106 103.017 C 379.947 101.076,379.633 99.811,379.189 99.319 C 378.814 98.905,378.390 97.529,378.238 96.236 C 378.068 94.792,377.683 93.619,377.229 93.165 C 376.807 92.744,376.494 91.861,376.494 91.097 C 376.494 90.353,376.155 89.373,375.728 88.880 C 375.307 88.394,374.839 87.272,374.690 86.386 C 374.540 85.501,374.078 84.437,373.663 84.022 C 373.248 83.607,372.908 82.933,372.908 82.524 C 372.908 82.115,372.548 81.323,372.108 80.763 C 371.668 80.204,371.197 79.194,371.062 78.518 C 370.927 77.843,370.653 77.291,370.454 77.291 C 370.254 77.291,369.731 76.529,369.291 75.598 C 368.004 72.872,367.297 71.679,366.492 70.875 C 366.077 70.459,365.737 69.767,365.737 69.337 C 365.737 68.906,365.378 68.362,364.940 68.127 C 364.502 67.893,364.143 67.437,364.143 67.115 C 364.143 66.792,363.695 66.139,363.147 65.663 C 362.600 65.186,362.151 64.477,362.151 64.086 C 362.151 63.695,361.793 63.183,361.355 62.948 C 360.916 62.714,360.558 62.325,360.558 62.083 C 360.558 61.842,360.154 61.249,359.661 60.765 C 359.168 60.281,357.958 58.927,356.972 57.757 C 353.983 54.210,353.278 53.430,350.929 51.072 C 348.828 48.963,346.010 46.421,343.276 44.171 C 342.646 43.652,341.749 42.855,341.284 42.401 C 340.819 41.946,340.125 41.459,339.741 41.317 C 339.358 41.176,339.044 40.786,339.044 40.451 C 339.044 40.102,338.695 39.841,338.229 39.841 C 337.781 39.841,336.966 39.392,336.418 38.845 C 335.870 38.297,335.167 37.849,334.856 37.849 C 334.545 37.849,334.110 37.511,333.889 37.098 C 333.668 36.685,332.997 36.224,332.399 36.073 C 331.800 35.923,331.068 35.454,330.772 35.032 C 330.476 34.609,329.982 34.263,329.674 34.263 C 329.366 34.263,328.794 33.925,328.402 33.513 C 328.010 33.100,327.122 32.641,326.428 32.492 C 325.734 32.344,325.080 31.998,324.975 31.724 C 324.870 31.451,324.067 31.012,323.190 30.749 C 322.314 30.486,321.494 30.004,321.368 29.678 C 321.237 29.335,320.638 29.084,319.955 29.084 C 319.230 29.084,318.558 28.781,318.224 28.303 C 317.907 27.851,316.985 27.412,316.028 27.259 C 315.121 27.114,314.074 26.659,313.702 26.247 C 313.265 25.764,312.486 25.498,311.508 25.498 C 310.497 25.498,309.740 25.228,309.238 24.689 C 308.753 24.169,307.742 23.793,306.403 23.634 C 305.258 23.499,304.061 23.127,303.743 22.809 C 303.424 22.491,301.991 22.085,300.556 21.907 C 299.122 21.729,297.648 21.322,297.281 21.003 C 296.857 20.634,295.231 20.323,292.829 20.150 C 290.298 19.969,288.714 19.654,288.048 19.202 C 287.079 18.545,115.883 17.970,113.363 18.616 " stroke="none" fill="#fc5352" fill-rule="evenodd"></path><path id="path2" d="M0.000 199.203 L 0.000 398.406 200.000 398.406 L 400.000 398.406 400.000 199.203 L 400.000 0.000 200.000 0.000 L 0.000 0.000 0.000 199.203 M284.272 17.446 C 287.126 17.695,290.214 18.166,291.136 18.491 C 292.057 18.816,293.936 19.205,295.310 19.355 C 296.684 19.505,298.257 19.853,298.805 20.127 C 299.353 20.402,300.876 20.846,302.191 21.116 C 303.506 21.385,305.066 21.853,305.658 22.157 C 306.249 22.461,307.063 22.709,307.466 22.709 C 307.868 22.709,308.908 23.074,309.776 23.520 C 310.644 23.966,312.111 24.524,313.036 24.760 C 313.960 24.995,314.924 25.437,315.176 25.741 C 315.429 26.046,315.922 26.295,316.272 26.295 C 316.879 26.295,323.747 29.668,327.784 31.949 C 328.827 32.538,330.264 33.333,330.976 33.716 C 331.688 34.098,332.271 34.535,332.271 34.687 C 332.271 34.839,332.796 35.181,333.438 35.446 C 334.079 35.712,334.701 36.182,334.819 36.491 C 334.938 36.799,335.287 37.052,335.595 37.052 C 335.903 37.052,337.688 38.262,339.561 39.741 C 341.434 41.220,343.554 42.878,344.272 43.426 C 344.990 43.974,346.050 44.871,346.629 45.418 C 347.207 45.966,348.291 46.967,349.039 47.643 C 350.900 49.325,356.928 55.703,358.251 57.389 C 363.789 64.449,364.940 65.968,364.940 66.212 C 364.940 66.367,365.523 67.321,366.235 68.332 C 367.777 70.522,369.047 72.597,370.012 74.502 C 370.400 75.269,370.831 75.986,370.971 76.096 C 371.111 76.205,371.511 76.922,371.860 77.689 C 372.208 78.456,372.659 79.353,372.860 79.681 C 373.657 80.982,375.299 84.562,375.299 85.000 C 375.299 85.256,375.747 86.306,376.295 87.336 C 376.843 88.365,377.291 89.533,377.291 89.933 C 377.291 90.332,377.558 91.041,377.885 91.507 C 378.211 91.973,378.682 93.313,378.932 94.484 C 379.182 95.655,379.631 96.967,379.932 97.399 C 380.232 97.832,380.478 98.678,380.478 99.280 C 380.478 99.881,380.926 101.747,381.474 103.425 C 382.022 105.103,382.470 107.193,382.470 108.069 C 382.470 108.945,382.874 111.298,383.367 113.297 L 384.263 116.932 384.263 199.203 L 384.263 281.474 383.367 285.109 C 382.874 287.108,382.470 289.488,382.470 290.398 C 382.470 291.308,382.121 293.046,381.693 294.262 C 381.266 295.477,380.792 297.304,380.639 298.322 C 380.487 299.340,380.033 300.896,379.632 301.780 C 379.230 302.663,378.898 303.748,378.893 304.189 C 378.888 304.631,378.552 305.617,378.146 306.380 C 377.740 307.144,377.287 308.423,377.139 309.223 C 376.992 310.023,376.621 310.885,376.315 311.138 C 376.010 311.392,375.642 312.296,375.498 313.147 C 375.354 313.999,374.991 314.899,374.690 315.148 C 374.390 315.398,373.930 316.260,373.668 317.064 C 373.405 317.868,372.858 318.953,372.452 319.476 C 372.046 319.999,371.713 320.584,371.713 320.777 C 371.713 321.094,370.690 322.943,368.254 327.028 C 367.775 327.830,367.023 329.114,366.583 329.880 C 365.919 331.038,363.324 334.639,360.411 338.446 C 355.354 345.057,347.189 353.057,339.771 358.669 C 339.261 359.054,338.307 359.792,337.649 360.308 C 336.992 360.823,336.051 361.372,335.558 361.526 C 335.065 361.680,334.661 361.944,334.661 362.111 C 334.661 362.474,330.932 364.940,330.385 364.940 C 330.175 364.940,329.679 365.299,329.283 365.737 C 328.886 366.175,328.383 366.534,328.165 366.534 C 327.946 366.534,326.369 367.341,324.659 368.327 C 322.950 369.313,321.298 370.120,320.989 370.120 C 320.679 370.120,319.992 370.461,319.462 370.878 C 318.932 371.295,317.787 371.836,316.918 372.080 C 316.049 372.323,314.991 372.789,314.565 373.114 C 314.140 373.439,313.512 373.707,313.171 373.709 C 312.829 373.711,311.653 374.153,310.558 374.692 C 309.462 375.231,308.113 375.678,307.559 375.685 C 307.005 375.692,306.168 375.966,305.700 376.294 C 305.231 376.622,303.712 377.143,302.324 377.451 C 300.936 377.760,299.263 378.200,298.606 378.429 C 297.476 378.823,293.057 379.734,288.645 380.483 C 280.146 381.926,244.565 382.259,243.839 380.903 C 243.195 379.700,243.277 337.794,243.924 336.967 C 244.363 336.407,246.606 336.306,262.749 336.121 C 274.746 335.984,281.626 335.753,282.669 335.454 C 283.546 335.202,285.608 334.686,287.251 334.307 C 288.894 333.928,290.631 333.405,291.109 333.144 C 291.588 332.883,292.305 332.668,292.703 332.666 C 293.101 332.664,294.323 332.221,295.418 331.682 C 296.514 331.143,297.700 330.697,298.054 330.690 C 298.408 330.683,299.125 330.343,299.647 329.935 C 300.170 329.527,301.042 329.054,301.586 328.883 C 302.129 328.713,303.026 328.278,303.578 327.916 C 304.849 327.084,305.862 326.478,307.371 325.646 C 308.028 325.284,309.036 324.609,309.611 324.147 C 310.186 323.685,311.164 322.948,311.783 322.510 C 313.708 321.148,317.582 317.869,318.676 316.675 C 320.077 315.148,320.582 314.628,321.196 314.081 C 321.480 313.827,322.035 313.199,322.427 312.686 C 322.820 312.173,323.583 311.215,324.123 310.558 C 324.663 309.900,325.205 309.049,325.328 308.665 C 325.451 308.282,325.689 307.968,325.856 307.968 C 326.122 307.968,327.031 306.644,329.410 302.795 C 330.640 300.803,332.271 297.515,332.271 297.025 C 332.271 296.748,332.606 296.094,333.016 295.572 C 333.426 295.049,333.898 293.994,334.065 293.227 C 334.232 292.460,334.704 291.208,335.113 290.444 C 335.522 289.680,335.857 288.650,335.857 288.155 C 335.857 287.659,336.203 286.223,336.626 284.962 C 338.570 279.172,338.647 275.910,338.647 199.203 C 338.647 122.450,338.569 119.193,336.613 113.560 C 336.197 112.362,335.856 110.928,335.855 110.372 C 335.854 109.817,335.506 108.793,335.082 108.097 C 334.657 107.401,334.184 106.146,334.030 105.308 C 333.875 104.470,333.417 103.357,333.010 102.835 C 332.604 102.312,332.271 101.658,332.271 101.381 C 332.271 100.787,329.968 96.321,329.508 96.022 C 329.334 95.909,329.072 95.435,328.926 94.968 C 328.781 94.501,328.353 93.743,327.976 93.285 C 327.599 92.826,326.843 91.804,326.295 91.013 C 324.451 88.352,321.019 84.154,319.226 82.366 C 316.188 79.339,310.440 74.711,307.633 73.033 C 304.783 71.329,303.365 70.545,301.737 69.773 C 300.830 69.342,299.976 68.810,299.840 68.590 C 299.704 68.369,299.012 68.066,298.302 67.916 C 297.593 67.766,296.474 67.326,295.817 66.938 C 295.159 66.550,293.923 66.108,293.069 65.956 C 292.215 65.804,291.140 65.445,290.679 65.158 C 290.218 64.872,289.010 64.532,287.994 64.404 C 286.979 64.276,285.365 63.887,284.409 63.540 C 283.226 63.110,280.076 62.779,274.569 62.507 C 263.281 61.947,120.778 62.286,118.327 62.878 C 112.811 64.209,111.240 64.617,110.159 64.995 C 109.502 65.225,107.933 65.688,106.673 66.023 C 105.413 66.358,104.382 66.770,104.382 66.938 C 104.382 67.107,103.889 67.362,103.287 67.505 C 102.333 67.732,100.463 68.615,95.072 71.382 C 94.360 71.747,93.542 72.330,93.254 72.677 C 92.966 73.023,92.562 73.307,92.355 73.307 C 91.987 73.307,89.566 75.004,88.515 75.999 C 88.224 76.274,87.660 76.674,87.262 76.887 C 84.925 78.137,77.019 86.228,74.753 89.688 C 74.286 90.401,73.635 91.372,73.307 91.847 C 70.498 95.903,67.729 100.834,67.729 101.780 C 67.729 102.056,67.396 102.711,66.990 103.233 C 66.583 103.756,66.134 104.821,65.990 105.600 C 65.847 106.379,65.373 107.717,64.937 108.573 C 64.500 109.428,64.142 110.673,64.141 111.339 C 64.140 112.005,63.869 113.067,63.539 113.699 C 60.624 119.289,60.426 280.743,63.330 284.243 C 63.539 284.495,63.831 285.499,63.980 286.474 C 64.128 287.449,64.674 289.272,65.192 290.526 C 65.711 291.779,66.135 293.144,66.135 293.560 C 66.135 293.975,66.494 294.771,66.932 295.328 C 67.371 295.885,67.730 296.581,67.731 296.876 C 67.732 297.170,68.175 298.127,68.715 299.004 C 69.255 299.880,69.702 300.911,69.709 301.295 C 69.716 301.678,69.903 301.992,70.126 301.992 C 70.349 301.992,70.842 302.659,71.222 303.474 C 71.602 304.289,72.149 305.230,72.437 305.565 C 72.726 305.901,74.070 307.699,75.424 309.562 C 77.883 312.943,83.481 318.833,86.028 320.717 C 89.222 323.080,90.280 323.891,90.936 324.477 C 91.320 324.819,91.740 325.100,91.871 325.100 C 92.001 325.100,92.673 325.503,93.364 325.996 C 94.054 326.489,95.704 327.439,97.029 328.108 C 98.355 328.776,99.874 329.628,100.406 330.000 C 100.937 330.373,101.700 330.677,102.101 330.677 C 102.502 330.677,103.493 331.027,104.304 331.454 C 106.174 332.439,108.904 333.323,112.948 334.252 C 114.701 334.655,116.763 335.202,117.530 335.467 C 118.524 335.810,125.100 336.004,140.438 336.142 C 164.772 336.361,161.956 335.972,167.172 339.834 C 168.509 340.824,170.111 341.992,170.732 342.430 C 171.353 342.869,172.347 343.630,172.940 344.124 C 173.534 344.617,174.131 345.020,174.267 345.020 C 174.548 345.020,180.001 348.916,180.805 349.692 C 181.095 349.971,181.464 350.199,181.627 350.199 C 181.789 350.199,182.269 350.514,182.694 350.900 C 183.414 351.553,184.499 352.339,186.676 353.785 C 189.255 355.498,192.674 357.965,193.377 358.620 C 193.815 359.028,194.400 359.363,194.677 359.363 C 194.953 359.363,195.323 359.590,195.498 359.868 C 195.835 360.402,196.228 360.692,200.498 363.560 C 201.977 364.553,203.187 365.539,203.187 365.751 C 203.187 365.962,203.443 366.135,203.756 366.135 C 204.069 366.135,204.567 366.360,204.862 366.633 C 206.257 367.929,211.972 371.995,214.079 373.191 C 214.545 373.455,215.109 373.915,215.332 374.211 C 215.555 374.508,216.006 374.877,216.335 375.032 C 216.663 375.186,217.649 375.857,218.526 376.523 C 219.402 377.188,220.696 378.096,221.401 378.539 C 222.624 379.309,224.133 381.553,223.573 381.769 C 223.427 381.826,199.731 381.763,170.916 381.629 C 120.112 381.392,111.836 381.186,109.197 380.094 C 108.631 379.860,106.733 379.409,104.980 379.092 C 101.025 378.377,95.310 376.846,94.150 376.189 C 93.671 375.919,92.947 375.697,92.541 375.697 C 92.134 375.697,91.119 375.349,90.284 374.924 C 89.450 374.498,88.202 374.027,87.511 373.878 C 86.820 373.728,85.627 373.294,84.861 372.913 C 83.250 372.114,79.363 370.292,78.486 369.926 C 78.157 369.788,76.992 369.160,75.896 368.530 C 74.801 367.900,73.232 367.084,72.410 366.717 C 71.589 366.349,70.916 365.916,70.916 365.754 C 70.916 365.592,70.199 365.136,69.323 364.741 C 68.446 364.346,67.726 363.915,67.722 363.784 C 67.717 363.653,66.812 363.008,65.708 362.351 C 63.908 361.278,60.026 358.405,55.580 354.856 C 49.488 349.994,39.699 338.975,34.629 331.273 C 30.904 325.615,30.569 325.070,29.829 323.456 C 29.465 322.661,28.969 321.888,28.727 321.739 C 28.485 321.589,28.287 321.143,28.287 320.747 C 28.287 320.352,27.953 319.600,27.545 319.078 C 27.137 318.555,26.665 317.679,26.497 317.131 C 26.328 316.584,25.855 315.660,25.446 315.078 C 25.036 314.496,24.701 313.685,24.701 313.274 C 24.701 312.864,24.452 312.173,24.148 311.739 C 23.844 311.305,23.362 310.144,23.075 309.160 C 22.789 308.176,22.339 307.012,22.074 306.574 C 21.810 306.135,21.394 304.819,21.151 303.647 C 20.908 302.476,20.442 301.137,20.116 300.670 C 19.789 300.204,19.522 299.341,19.522 298.752 C 19.522 298.163,19.163 296.544,18.723 295.155 C 18.284 293.766,17.750 290.992,17.536 288.991 C 17.322 286.989,16.919 284.838,16.641 284.210 C 15.660 281.995,15.713 119.122,16.696 114.343 C 17.124 112.261,17.575 109.429,17.697 108.049 C 17.820 106.670,18.111 105.184,18.345 104.747 C 18.578 104.311,19.031 102.586,19.351 100.915 C 19.670 99.244,20.104 97.670,20.313 97.417 C 20.523 97.164,20.902 95.984,21.156 94.794 C 21.409 93.603,21.863 92.276,22.163 91.844 C 22.463 91.411,22.711 90.784,22.713 90.449 C 22.715 90.114,23.157 88.944,23.696 87.849 C 24.235 86.753,24.682 85.567,24.689 85.213 C 24.696 84.859,25.032 84.142,25.437 83.619 C 25.842 83.097,26.301 82.146,26.458 81.506 C 26.615 80.865,27.090 79.900,27.515 79.360 C 27.939 78.820,28.287 78.158,28.287 77.888 C 28.287 77.619,28.621 76.971,29.029 76.448 C 29.437 75.926,29.903 75.076,30.065 74.561 C 30.334 73.701,31.749 71.332,32.621 70.281 C 32.820 70.042,33.276 69.280,33.633 68.588 C 33.991 67.897,34.458 67.331,34.672 67.331 C 34.885 67.331,35.060 67.149,35.060 66.928 C 35.060 66.378,38.023 62.077,39.465 60.533 C 40.110 59.843,40.637 59.187,40.637 59.076 C 40.637 57.462,56.391 42.458,62.310 38.435 C 62.946 38.003,63.865 37.380,64.353 37.052 C 64.841 36.723,66.223 35.782,67.423 34.960 C 68.623 34.138,69.801 33.466,70.041 33.466 C 70.282 33.466,70.622 33.217,70.797 32.911 C 70.972 32.606,71.743 32.069,72.510 31.716 C 73.277 31.364,75.070 30.450,76.494 29.684 C 77.918 28.918,79.235 28.291,79.421 28.289 C 79.606 28.288,80.244 27.940,80.839 27.517 C 81.434 27.093,82.448 26.621,83.092 26.467 C 83.736 26.313,84.532 25.963,84.861 25.688 C 85.189 25.413,86.086 25.061,86.853 24.906 C 87.620 24.750,88.646 24.371,89.133 24.062 C 89.620 23.754,91.031 23.238,92.268 22.915 C 93.505 22.593,94.720 22.166,94.968 21.965 C 95.216 21.764,96.466 21.385,97.747 21.123 C 99.027 20.860,100.641 20.416,101.332 20.136 C 102.024 19.856,103.593 19.515,104.820 19.379 C 106.047 19.242,107.835 18.854,108.794 18.516 C 109.790 18.164,113.270 17.721,116.922 17.482 C 120.433 17.251,123.385 16.985,123.480 16.891 C 123.901 16.473,279.282 17.009,284.272 17.446 M172.832 104.454 C 183.798 107.209,182.446 125.100,171.271 125.100 C 169.816 125.100,167.893 125.358,166.997 125.674 C 166.102 125.990,164.364 126.435,163.137 126.661 C 161.909 126.888,160.444 127.437,159.881 127.880 C 159.318 128.323,158.562 128.685,158.202 128.685 C 157.842 128.685,157.256 128.999,156.900 129.382 C 156.544 129.766,155.653 130.512,154.919 131.040 C 153.481 132.076,149.801 136.332,149.801 136.960 C 149.801 137.170,149.463 137.772,149.050 138.297 C 148.315 139.231,147.368 142.148,146.578 145.910 C 146.360 146.947,146.234 149.188,146.298 150.890 L 146.414 153.984 159.620 154.183 C 171.078 154.356,172.923 154.469,173.564 155.033 C 173.970 155.390,174.661 155.793,175.100 155.928 C 176.059 156.223,178.486 158.439,178.486 159.020 C 178.486 159.248,178.889 159.761,179.382 160.160 L 180.279 160.885 180.412 179.347 C 180.562 200.230,180.418 203.102,179.149 204.637 C 177.272 206.907,175.429 208.396,174.021 208.781 C 173.208 209.003,172.436 209.359,172.304 209.573 C 172.154 209.815,164.860 209.960,152.815 209.960 L 133.565 209.960 131.424 209.009 C 129.372 208.097,125.899 205.080,125.894 204.204 C 125.893 203.974,125.579 203.247,125.197 202.590 C 124.377 201.180,123.903 149.323,124.665 144.514 C 125.512 139.172,126.356 135.335,126.863 134.519 C 127.154 134.049,127.503 133.068,127.637 132.338 C 127.772 131.608,128.242 130.553,128.682 129.994 C 129.122 129.434,129.482 128.670,129.482 128.295 C 129.482 127.920,129.830 127.298,130.256 126.913 C 130.682 126.527,131.145 125.693,131.284 125.058 C 131.423 124.424,131.697 123.904,131.891 123.904 C 132.086 123.904,132.475 123.477,132.756 122.954 C 134.329 120.027,140.889 113.497,143.895 111.866 C 144.588 111.491,145.259 111.018,145.386 110.816 C 145.513 110.613,146.245 110.156,147.012 109.799 C 147.779 109.441,148.855 108.901,149.402 108.598 C 151.400 107.493,154.088 106.375,154.747 106.375 C 155.118 106.375,156.190 106.025,157.129 105.597 C 159.998 104.290,169.443 103.603,172.832 104.454 M269.223 104.793 C 269.935 105.048,270.518 105.425,270.518 105.630 C 270.518 105.834,270.861 106.130,271.281 106.288 C 272.165 106.619,274.502 109.435,274.502 110.169 C 274.502 110.442,274.770 111.179,275.097 111.807 C 275.840 113.231,275.874 116.297,275.159 117.342 C 274.863 117.774,274.496 118.641,274.343 119.268 C 274.042 120.506,272.143 123.108,271.540 123.108 C 271.335 123.108,270.763 123.487,270.269 123.951 C 269.580 124.598,268.566 124.877,265.931 125.144 C 264.039 125.336,261.564 125.748,260.429 126.060 C 259.295 126.373,257.712 126.737,256.913 126.870 C 256.113 127.004,255.239 127.377,254.971 127.700 C 254.703 128.023,254.298 128.287,254.070 128.287 C 253.374 128.287,249.669 130.801,248.495 132.070 C 247.886 132.729,247.133 133.542,246.822 133.879 C 243.183 137.812,241.151 144.502,241.502 151.394 L 241.633 153.984 254.621 154.183 C 265.246 154.346,267.736 154.489,268.313 154.968 C 268.700 155.290,269.609 155.828,270.332 156.163 C 271.992 156.933,274.502 159.941,274.502 161.160 C 274.502 161.669,274.726 162.160,275.000 162.251 C 275.797 162.516,275.932 199.958,275.143 201.709 C 274.825 202.412,274.454 203.378,274.317 203.854 C 273.896 205.323,271.013 207.935,268.668 208.973 L 266.435 209.960 247.185 209.960 C 235.792 209.960,227.842 209.809,227.707 209.591 C 227.582 209.388,226.809 209.001,225.990 208.731 C 224.401 208.207,221.912 206.420,221.912 205.803 C 221.912 205.598,221.509 205.000,221.016 204.476 L 220.120 203.521 220.120 171.183 C 220.120 141.036,220.167 138.752,220.824 137.474 C 221.212 136.720,221.641 135.375,221.778 134.486 C 221.915 133.596,222.334 132.420,222.709 131.873 C 223.083 131.325,223.506 130.396,223.648 129.809 C 223.790 129.221,224.161 128.486,224.473 128.174 C 224.785 127.862,225.329 126.997,225.682 126.253 C 226.822 123.848,227.475 122.810,228.604 121.601 C 229.213 120.949,230.128 119.811,230.636 119.072 C 232.128 116.905,238.817 111.513,241.665 110.182 C 242.340 109.866,243.120 109.333,243.398 108.998 C 243.677 108.662,244.508 108.274,245.245 108.136 C 245.982 107.998,246.785 107.644,247.028 107.351 C 247.272 107.057,248.481 106.607,249.716 106.351 C 250.950 106.095,252.326 105.646,252.773 105.354 C 254.638 104.136,266.280 103.739,269.223 104.793 M265.084 256.773 C 265.210 257.102,265.595 257.371,265.938 257.371 C 266.586 257.371,268.127 260.446,268.127 261.737 C 268.127 263.164,265.985 267.262,264.352 268.958 C 264.018 269.305,263.745 269.788,263.745 270.031 C 263.745 270.274,263.417 270.707,263.017 270.993 C 262.617 271.280,262.122 271.818,261.918 272.190 C 261.520 272.914,257.369 277.589,254.978 280.006 C 252.551 282.460,250.139 284.544,247.211 286.718 C 245.677 287.857,244.153 289.054,243.825 289.378 C 243.496 289.702,242.734 290.192,242.131 290.466 C 241.529 290.740,241.036 291.093,241.036 291.251 C 241.036 291.408,240.461 291.775,239.758 292.066 C 239.055 292.357,238.159 292.917,237.766 293.310 C 237.373 293.702,236.810 294.024,236.515 294.024 C 236.220 294.024,235.565 294.382,235.060 294.821 C 234.554 295.259,233.834 295.618,233.459 295.618 C 233.084 295.618,232.349 295.953,231.827 296.362 C 231.304 296.772,230.256 297.243,229.498 297.409 C 228.740 297.574,227.664 298.029,227.107 298.419 C 226.551 298.809,225.426 299.243,224.607 299.382 C 223.788 299.522,222.354 299.983,221.420 300.407 C 220.486 300.831,219.160 301.182,218.475 301.186 C 217.790 301.191,216.578 301.467,215.783 301.799 C 212.150 303.317,191.676 303.568,186.255 302.162 C 184.940 301.821,182.870 301.381,181.654 301.186 C 180.439 300.990,178.646 300.468,177.670 300.025 C 176.695 299.583,175.517 299.217,175.054 299.212 C 174.590 299.207,173.783 298.872,173.261 298.468 C 172.738 298.064,171.714 297.617,170.984 297.476 C 170.254 297.334,169.199 296.858,168.639 296.418 C 168.079 295.978,167.311 295.618,166.932 295.618 C 166.553 295.618,165.801 295.270,165.261 294.845 C 164.721 294.421,163.801 293.953,163.216 293.806 C 162.630 293.659,162.151 293.382,162.151 293.189 C 162.151 292.997,161.524 292.577,160.757 292.257 C 159.990 291.936,159.363 291.498,159.363 291.282 C 159.363 291.067,158.959 290.764,158.466 290.610 C 157.973 290.455,157.032 289.907,156.375 289.391 C 155.717 288.875,154.821 288.189,154.382 287.867 C 149.442 284.229,142.844 277.828,138.799 272.748 C 134.610 267.487,133.332 265.624,132.860 264.085 C 132.701 263.569,132.396 262.928,132.181 262.659 C 131.541 261.858,132.900 258.512,134.365 257.282 L 135.657 256.197 200.256 256.186 C 257.316 256.177,264.882 256.245,265.084 256.773 " stroke="none" fill="#fbfbfb" fill-rule="evenodd"></path><path id="path3" d="M162.386 104.455 C 160.434 104.655,158.068 105.169,157.129 105.597 C 156.190 106.025,155.118 106.375,154.747 106.375 C 154.088 106.375,151.400 107.493,149.402 108.598 C 148.855 108.901,147.779 109.441,147.012 109.799 C 146.245 110.156,145.513 110.613,145.386 110.816 C 145.259 111.018,144.588 111.491,143.895 111.866 C 140.889 113.497,134.329 120.027,132.756 122.954 C 132.475 123.477,132.086 123.904,131.891 123.904 C 131.697 123.904,131.423 124.424,131.284 125.058 C 131.145 125.693,130.682 126.527,130.256 126.913 C 129.830 127.298,129.482 127.920,129.482 128.295 C 129.482 128.670,129.122 129.434,128.682 129.994 C 128.242 130.553,127.772 131.608,127.637 132.338 C 127.503 133.068,127.154 134.049,126.863 134.519 C 126.356 135.335,125.512 139.172,124.665 144.514 C 123.903 149.323,124.377 201.180,125.197 202.590 C 125.579 203.247,125.893 203.974,125.894 204.204 C 125.899 205.080,129.372 208.097,131.424 209.009 L 133.565 209.960 152.815 209.960 C 164.860 209.960,172.154 209.815,172.304 209.573 C 172.436 209.359,173.208 209.003,174.021 208.781 C 175.429 208.396,177.272 206.907,179.149 204.637 C 180.418 203.102,180.562 200.230,180.412 179.347 L 180.279 160.885 179.382 160.160 C 178.889 159.761,178.486 159.248,178.486 159.020 C 178.486 158.439,176.059 156.223,175.100 155.928 C 174.661 155.793,173.970 155.390,173.564 155.033 C 172.923 154.469,171.078 154.356,159.620 154.183 L 146.414 153.984 146.298 150.890 C 146.234 149.188,146.360 146.947,146.578 145.910 C 147.368 142.148,148.315 139.231,149.050 138.297 C 149.463 137.772,149.801 137.170,149.801 136.960 C 149.801 136.332,153.481 132.076,154.919 131.040 C 155.653 130.512,156.544 129.766,156.900 129.382 C 157.256 128.999,157.842 128.685,158.202 128.685 C 158.562 128.685,159.318 128.323,159.881 127.880 C 160.444 127.437,161.909 126.888,163.137 126.661 C 164.364 126.435,166.102 125.990,166.997 125.674 C 167.893 125.358,169.816 125.100,171.271 125.100 C 180.430 125.100,183.937 111.604,176.227 106.027 C 173.455 104.022,170.209 103.654,162.386 104.455 M257.171 104.431 C 255.199 104.647,253.220 105.062,252.773 105.354 C 252.326 105.646,250.950 106.095,249.716 106.351 C 248.481 106.607,247.272 107.057,247.028 107.351 C 246.785 107.644,245.982 107.998,245.245 108.136 C 244.508 108.274,243.677 108.662,243.398 108.998 C 243.120 109.333,242.340 109.866,241.665 110.182 C 238.817 111.513,232.128 116.905,230.636 119.072 C 230.128 119.811,229.213 120.949,228.604 121.601 C 227.475 122.810,226.822 123.848,225.682 126.253 C 225.329 126.997,224.785 127.862,224.473 128.174 C 224.161 128.486,223.790 129.221,223.648 129.809 C 223.506 130.396,223.083 131.325,222.709 131.873 C 222.334 132.420,221.915 133.596,221.778 134.486 C 221.641 135.375,221.212 136.720,220.824 137.474 C 220.167 138.752,220.120 141.036,220.120 171.183 L 220.120 203.521 221.016 204.476 C 221.509 205.000,221.912 205.598,221.912 205.803 C 221.912 206.420,224.401 208.207,225.990 208.731 C 226.809 209.001,227.582 209.388,227.707 209.591 C 227.842 209.809,235.792 209.960,247.185 209.960 L 266.435 209.960 268.668 208.973 C 271.013 207.935,273.896 205.323,274.317 203.854 C 274.454 203.378,274.825 202.412,275.143 201.709 C 275.932 199.958,275.797 162.516,275.000 162.251 C 274.726 162.160,274.502 161.669,274.502 161.160 C 274.502 159.941,271.992 156.933,270.332 156.163 C 269.609 155.828,268.700 155.290,268.313 154.968 C 267.736 154.489,265.246 154.346,254.621 154.183 L 241.633 153.984 241.502 151.394 C 241.151 144.502,243.183 137.812,246.822 133.879 C 247.133 133.542,247.886 132.729,248.495 132.070 C 249.669 130.801,253.374 128.287,254.070 128.287 C 254.298 128.287,254.703 128.023,254.971 127.700 C 255.239 127.377,256.113 127.004,256.913 126.870 C 257.712 126.737,259.295 126.373,260.429 126.060 C 261.564 125.748,264.039 125.336,265.931 125.144 C 268.566 124.877,269.580 124.598,270.269 123.951 C 270.763 123.487,271.335 123.108,271.540 123.108 C 272.143 123.108,274.042 120.506,274.343 119.268 C 274.496 118.641,274.863 117.774,275.159 117.342 C 275.874 116.297,275.840 113.231,275.097 111.807 C 274.770 111.179,274.502 110.442,274.502 110.169 C 274.502 109.435,272.165 106.619,271.281 106.288 C 270.861 106.130,270.518 105.834,270.518 105.630 C 270.518 104.402,263.337 103.757,257.171 104.431 M174.374 106.037 C 175.335 106.909,178.021 109.598,178.724 110.392 C 179.121 110.840,179.283 112.130,179.283 114.833 L 179.283 118.643 176.453 121.473 L 173.623 124.303 169.580 124.305 C 166.612 124.307,165.220 124.479,164.343 124.954 C 163.685 125.310,162.407 125.747,161.503 125.926 C 160.599 126.106,159.164 126.714,158.316 127.277 C 157.467 127.840,156.439 128.522,156.031 128.792 C 154.174 130.020,152.444 131.548,151.330 132.944 C 149.393 135.370,147.410 138.481,147.410 139.091 C 147.410 139.400,147.017 140.368,146.535 141.241 C 145.324 143.439,144.921 153.629,146.002 154.710 C 146.599 155.307,147.990 155.378,158.994 155.378 C 170.556 155.378,171.409 155.428,172.804 156.175 C 173.622 156.614,174.473 156.978,174.695 156.985 C 175.261 157.002,176.905 158.552,178.088 160.181 L 179.084 161.554 179.203 181.673 L 179.323 201.793 178.215 203.862 C 177.606 205.000,176.701 206.117,176.203 206.344 C 175.706 206.570,175.299 206.923,175.299 207.127 C 175.299 208.371,133.012 208.985,131.021 207.769 C 130.662 207.550,129.496 206.564,128.431 205.578 L 126.494 203.785 126.494 170.916 L 126.494 138.048 127.390 136.606 C 127.883 135.814,128.287 134.611,128.287 133.935 C 128.287 133.258,128.735 132.044,129.283 131.237 C 129.831 130.430,130.279 129.509,130.279 129.191 C 130.279 128.872,130.637 128.156,131.076 127.599 C 131.514 127.042,131.873 126.368,131.873 126.101 C 131.873 125.834,132.366 125.072,132.968 124.408 C 134.491 122.728,135.845 120.966,135.851 120.655 C 135.861 120.196,139.573 116.527,141.556 115.017 C 142.609 114.215,143.742 113.287,144.074 112.955 C 144.407 112.623,144.907 112.351,145.186 112.351 C 145.465 112.351,146.018 111.992,146.414 111.554 C 146.811 111.116,147.363 110.757,147.641 110.757 C 147.919 110.757,148.679 110.309,149.330 109.761 C 149.981 109.213,150.885 108.765,151.340 108.765 C 151.795 108.765,152.845 108.422,153.673 108.002 C 154.501 107.582,155.986 107.114,156.972 106.961 C 157.958 106.808,159.017 106.479,159.324 106.230 C 160.762 105.065,173.128 104.907,174.374 106.037 M269.721 106.393 C 272.561 108.402,273.270 109.429,273.708 112.167 C 274.225 115.408,273.675 119.277,272.522 120.505 C 272.077 120.979,271.713 121.559,271.713 121.795 C 271.713 122.031,271.277 122.334,270.745 122.467 C 270.213 122.601,269.466 123.021,269.086 123.401 C 268.544 123.943,267.440 124.137,263.953 124.302 C 260.679 124.458,259.232 124.695,258.454 125.205 C 257.874 125.585,257.059 125.896,256.644 125.896 C 253.808 125.896,243.857 134.186,243.222 137.077 C 243.087 137.690,242.731 138.396,242.430 138.645 C 242.130 138.895,241.767 139.669,241.625 140.366 C 241.482 141.063,241.022 142.773,240.603 144.165 C 239.589 147.534,239.526 153.824,240.499 154.632 C 241.019 155.065,243.828 155.205,253.937 155.300 C 264.061 155.396,266.843 155.534,267.323 155.966 C 267.656 156.266,268.407 156.631,268.992 156.777 C 270.904 157.254,273.424 160.394,273.755 162.711 C 274.181 165.692,274.162 199.020,273.732 201.640 C 273.224 204.744,270.673 207.410,267.665 207.980 C 265.017 208.482,229.412 208.469,227.228 207.965 C 225.007 207.452,222.830 205.995,222.517 204.812 C 222.376 204.282,221.914 203.406,221.489 202.866 C 220.262 201.306,220.287 142.507,221.517 139.728 C 221.956 138.734,222.432 137.053,222.573 135.992 C 222.715 134.932,223.162 133.636,223.567 133.114 C 223.972 132.591,224.303 131.774,224.303 131.299 C 224.303 130.823,224.751 129.826,225.299 129.084 C 225.847 128.341,226.295 127.573,226.295 127.376 C 226.295 127.179,226.653 126.562,227.092 126.005 C 227.530 125.448,227.888 124.746,227.888 124.444 C 227.888 123.191,238.794 112.351,240.054 112.351 C 240.307 112.351,240.824 112.008,241.203 111.590 C 241.581 111.171,242.357 110.712,242.926 110.569 C 243.495 110.426,244.403 109.962,244.943 109.537 C 245.482 109.112,246.266 108.765,246.683 108.765 C 247.101 108.765,247.928 108.425,248.522 108.008 C 249.116 107.592,250.480 107.144,251.553 107.012 C 252.627 106.880,253.772 106.551,254.098 106.280 C 255.848 104.827,267.627 104.912,269.721 106.393 M134.365 257.282 C 132.900 258.512,131.541 261.858,132.181 262.659 C 132.396 262.928,132.701 263.569,132.860 264.085 C 133.332 265.624,134.610 267.487,138.799 272.748 C 142.844 277.828,149.442 284.229,154.382 287.867 C 154.821 288.189,155.717 288.875,156.375 289.391 C 157.032 289.907,157.973 290.455,158.466 290.610 C 158.959 290.764,159.363 291.067,159.363 291.282 C 159.363 291.498,159.990 291.936,160.757 292.257 C 161.524 292.577,162.151 292.997,162.151 293.189 C 162.151 293.382,162.630 293.659,163.216 293.806 C 163.801 293.953,164.721 294.421,165.261 294.845 C 165.801 295.270,166.553 295.618,166.932 295.618 C 167.311 295.618,168.079 295.978,168.639 296.418 C 169.199 296.858,170.254 297.334,170.984 297.476 C 171.714 297.617,172.738 298.064,173.261 298.468 C 173.783 298.872,174.590 299.207,175.054 299.212 C 175.517 299.217,176.695 299.583,177.670 300.025 C 178.646 300.468,180.439 300.990,181.654 301.186 C 182.870 301.381,184.940 301.821,186.255 302.162 C 191.676 303.568,212.150 303.317,215.783 301.799 C 216.578 301.467,217.790 301.191,218.475 301.186 C 219.160 301.182,220.486 300.831,221.420 300.407 C 222.354 299.983,223.788 299.522,224.607 299.382 C 225.426 299.243,226.551 298.809,227.107 298.419 C 227.664 298.029,228.740 297.574,229.498 297.409 C 230.256 297.243,231.304 296.772,231.827 296.362 C 232.349 295.953,233.084 295.618,233.459 295.618 C 233.834 295.618,234.554 295.259,235.060 294.821 C 235.565 294.382,236.220 294.024,236.515 294.024 C 236.810 294.024,237.373 293.702,237.766 293.310 C 238.159 292.917,239.055 292.357,239.758 292.066 C 240.461 291.775,241.036 291.408,241.036 291.251 C 241.036 291.093,241.529 290.740,242.131 290.466 C 242.734 290.192,243.496 289.702,243.825 289.378 C 244.153 289.054,245.677 287.857,247.211 286.718 C 250.139 284.544,252.551 282.460,254.978 280.006 C 257.369 277.589,261.520 272.914,261.918 272.190 C 262.122 271.818,262.617 271.280,263.017 270.993 C 263.417 270.707,263.745 270.274,263.745 270.031 C 263.745 269.788,264.018 269.305,264.352 268.958 C 265.985 267.262,268.127 263.164,268.127 261.737 C 268.127 260.446,266.586 257.371,265.938 257.371 C 265.595 257.371,265.210 257.102,265.084 256.773 C 264.882 256.245,257.316 256.177,200.256 256.186 L 135.657 256.197 134.365 257.282 M264.514 257.866 C 266.402 258.525,266.521 258.748,266.528 261.653 C 266.532 263.495,266.352 264.328,265.837 264.853 C 265.453 265.243,264.871 266.094,264.542 266.745 C 264.214 267.396,263.721 268.072,263.447 268.247 C 263.173 268.422,262.948 268.815,262.948 269.121 C 262.948 269.426,262.627 269.910,262.234 270.197 C 261.842 270.483,260.900 271.517,260.143 272.494 C 259.385 273.472,258.406 274.658,257.968 275.130 C 254.184 279.210,252.682 280.666,249.580 283.260 C 247.620 284.900,245.621 286.648,245.139 287.145 C 244.656 287.641,243.984 288.048,243.645 288.048 C 243.305 288.048,243.028 288.223,243.028 288.438 C 243.028 288.653,242.311 289.194,241.434 289.641 C 240.558 290.089,239.841 290.618,239.841 290.818 C 239.841 291.018,239.437 291.307,238.944 291.461 C 238.451 291.614,236.686 292.523,235.021 293.479 C 233.356 294.436,231.719 295.219,231.384 295.219 C 231.049 295.219,230.561 295.477,230.300 295.791 C 230.039 296.106,229.255 296.482,228.558 296.627 C 227.861 296.771,226.747 297.202,226.083 297.583 C 225.419 297.965,224.074 298.405,223.095 298.561 C 222.116 298.717,220.904 299.114,220.403 299.442 C 219.902 299.770,218.072 300.200,216.337 300.398 C 214.603 300.596,212.646 301.036,211.990 301.375 C 210.162 302.320,189.772 302.286,187.932 301.335 C 187.233 300.973,185.284 300.539,183.602 300.369 C 181.919 300.199,180.125 299.791,179.614 299.462 C 179.103 299.133,177.968 298.739,177.092 298.587 C 176.215 298.434,174.939 297.973,174.256 297.561 C 173.573 297.149,172.655 296.813,172.218 296.813 C 171.780 296.813,170.966 296.454,170.409 296.016 C 169.852 295.578,169.215 295.219,168.993 295.219 C 168.420 295.219,162.993 292.426,162.725 291.993 C 162.603 291.795,162.177 291.633,161.778 291.633 C 161.380 291.633,160.827 291.360,160.549 291.025 C 159.960 290.316,156.673 288.048,156.234 288.048 C 156.069 288.048,154.958 287.142,153.764 286.034 C 152.570 284.926,150.977 283.537,150.223 282.946 C 146.882 280.327,137.579 270.161,136.937 268.426 C 136.795 268.043,136.493 267.729,136.267 267.729 C 136.041 267.729,135.857 267.474,135.857 267.162 C 135.857 266.850,135.407 266.061,134.858 265.409 C 132.809 262.973,133.158 258.766,135.479 257.927 C 137.487 257.202,262.438 257.143,264.514 257.866 " stroke="none" fill="#878787" fill-rule="evenodd"></path><path id="path4" d="M123.480 16.891 C 123.385 16.985,120.433 17.251,116.922 17.482 C 113.270 17.721,109.790 18.164,108.794 18.516 C 107.835 18.854,106.047 19.242,104.820 19.379 C 103.593 19.515,102.024 19.856,101.332 20.136 C 100.641 20.416,99.027 20.860,97.747 21.123 C 96.466 21.385,95.216 21.764,94.968 21.965 C 94.720 22.166,93.505 22.593,92.268 22.915 C 91.031 23.238,89.620 23.754,89.133 24.062 C 88.646 24.371,87.620 24.750,86.853 24.906 C 86.086 25.061,85.189 25.413,84.861 25.688 C 84.532 25.963,83.736 26.313,83.092 26.467 C 82.448 26.621,81.434 27.093,80.839 27.517 C 80.244 27.940,79.606 28.288,79.421 28.289 C 79.235 28.291,77.918 28.918,76.494 29.684 C 75.070 30.450,73.277 31.364,72.510 31.716 C 71.743 32.069,70.972 32.606,70.797 32.911 C 70.622 33.217,70.282 33.466,70.041 33.466 C 69.801 33.466,68.623 34.138,67.423 34.960 C 66.223 35.782,64.841 36.723,64.353 37.052 C 63.865 37.380,62.946 38.003,62.310 38.435 C 56.391 42.458,40.637 57.462,40.637 59.076 C 40.637 59.187,40.110 59.843,39.465 60.533 C 38.023 62.077,35.060 66.378,35.060 66.928 C 35.060 67.149,34.885 67.331,34.672 67.331 C 34.458 67.331,33.991 67.897,33.633 68.588 C 33.276 69.280,32.820 70.042,32.621 70.281 C 31.749 71.332,30.334 73.701,30.065 74.561 C 29.903 75.076,29.437 75.926,29.029 76.448 C 28.621 76.971,28.287 77.619,28.287 77.888 C 28.287 78.158,27.939 78.820,27.515 79.360 C 27.090 79.900,26.615 80.865,26.458 81.506 C 26.301 82.146,25.842 83.097,25.437 83.619 C 25.032 84.142,24.696 84.859,24.689 85.213 C 24.682 85.567,24.235 86.753,23.696 87.849 C 23.157 88.944,22.715 90.114,22.713 90.449 C 22.711 90.784,22.463 91.411,22.163 91.844 C 21.863 92.276,21.409 93.603,21.156 94.794 C 20.902 95.984,20.523 97.164,20.313 97.417 C 20.104 97.670,19.670 99.244,19.351 100.915 C 19.031 102.586,18.578 104.311,18.345 104.747 C 18.111 105.184,17.820 106.670,17.697 108.049 C 17.575 109.429,17.124 112.261,16.696 114.343 C 15.713 119.122,15.660 281.995,16.641 284.210 C 16.919 284.838,17.322 286.989,17.536 288.991 C 17.750 290.992,18.284 293.766,18.723 295.155 C 19.163 296.544,19.522 298.163,19.522 298.752 C 19.522 299.341,19.789 300.204,20.116 300.670 C 20.442 301.137,20.908 302.476,21.151 303.647 C 21.394 304.819,21.810 306.135,22.074 306.574 C 22.339 307.012,22.789 308.176,23.075 309.160 C 23.362 310.144,23.844 311.305,24.148 311.739 C 24.452 312.173,24.701 312.864,24.701 313.274 C 24.701 313.685,25.036 314.496,25.446 315.078 C 25.855 315.660,26.328 316.584,26.497 317.131 C 26.665 317.679,27.137 318.555,27.545 319.078 C 27.953 319.600,28.287 320.352,28.287 320.747 C 28.287 321.143,28.485 321.589,28.727 321.739 C 28.969 321.888,29.465 322.661,29.829 323.456 C 30.569 325.070,30.904 325.615,34.629 331.273 C 39.699 338.975,49.488 349.994,55.580 354.856 C 60.026 358.405,63.908 361.278,65.708 362.351 C 66.812 363.008,67.717 363.653,67.722 363.784 C 67.726 363.915,68.446 364.346,69.323 364.741 C 70.199 365.136,70.916 365.592,70.916 365.754 C 70.916 365.916,71.589 366.349,72.410 366.717 C 73.232 367.084,74.801 367.900,75.896 368.530 C 76.992 369.160,78.157 369.788,78.486 369.926 C 79.363 370.292,83.250 372.114,84.861 372.913 C 85.627 373.294,86.820 373.728,87.511 373.878 C 88.202 374.027,89.450 374.498,90.284 374.924 C 91.119 375.349,92.134 375.697,92.541 375.697 C 92.947 375.697,93.671 375.919,94.150 376.189 C 95.310 376.846,101.025 378.377,104.980 379.092 C 106.733 379.409,108.631 379.860,109.197 380.094 C 111.836 381.186,120.112 381.392,170.916 381.629 C 199.731 381.763,223.427 381.826,223.573 381.769 C 224.133 381.553,222.624 379.309,221.401 378.539 C 220.696 378.096,219.402 377.188,218.526 376.523 C 217.649 375.857,216.663 375.186,216.335 375.032 C 216.006 374.877,215.555 374.508,215.332 374.211 C 215.109 373.915,214.545 373.455,214.079 373.191 C 211.972 371.995,206.257 367.929,204.862 366.633 C 204.567 366.360,204.069 366.135,203.756 366.135 C 203.443 366.135,203.187 365.962,203.187 365.751 C 203.187 365.539,201.977 364.553,200.498 363.560 C 196.228 360.692,195.835 360.402,195.498 359.868 C 195.323 359.590,194.953 359.363,194.677 359.363 C 194.400 359.363,193.815 359.028,193.377 358.620 C 192.674 357.965,189.255 355.498,186.676 353.785 C 184.499 352.339,183.414 351.553,182.694 350.900 C 182.269 350.514,181.789 350.199,181.627 350.199 C 181.464 350.199,181.095 349.971,180.805 349.692 C 180.001 348.916,174.548 345.020,174.267 345.020 C 174.131 345.020,173.534 344.617,172.940 344.124 C 172.347 343.630,171.353 342.869,170.732 342.430 C 170.111 341.992,168.509 340.824,167.172 339.834 C 161.956 335.972,164.772 336.361,140.438 336.142 C 125.100 336.004,118.524 335.810,117.530 335.467 C 116.763 335.202,114.701 334.655,112.948 334.252 C 108.904 333.323,106.174 332.439,104.304 331.454 C 103.493 331.027,102.502 330.677,102.101 330.677 C 101.700 330.677,100.937 330.373,100.406 330.000 C 99.874 329.628,98.355 328.776,97.029 328.108 C 95.704 327.439,94.054 326.489,93.364 325.996 C 92.673 325.503,92.001 325.100,91.871 325.100 C 91.740 325.100,91.320 324.819,90.936 324.477 C 90.280 323.891,89.222 323.080,86.028 320.717 C 83.481 318.833,77.883 312.943,75.424 309.562 C 74.070 307.699,72.726 305.901,72.437 305.565 C 72.149 305.230,71.602 304.289,71.222 303.474 C 70.842 302.659,70.349 301.992,70.126 301.992 C 69.903 301.992,69.716 301.678,69.709 301.295 C 69.702 300.911,69.255 299.880,68.715 299.004 C 68.175 298.127,67.732 297.170,67.731 296.876 C 67.730 296.581,67.371 295.885,66.932 295.328 C 66.494 294.771,66.135 293.975,66.135 293.560 C 66.135 293.144,65.711 291.779,65.192 290.526 C 64.674 289.272,64.128 287.449,63.980 286.474 C 63.831 285.499,63.539 284.495,63.330 284.243 C 60.426 280.743,60.624 119.289,63.539 113.699 C 63.869 113.067,64.140 112.005,64.141 111.339 C 64.142 110.673,64.500 109.428,64.937 108.573 C 65.373 107.717,65.847 106.379,65.990 105.600 C 66.134 104.821,66.583 103.756,66.990 103.233 C 67.396 102.711,67.729 102.056,67.729 101.780 C 67.729 100.834,70.498 95.903,73.307 91.847 C 73.635 91.372,74.286 90.401,74.753 89.688 C 77.019 86.228,84.925 78.137,87.262 76.887 C 87.660 76.674,88.224 76.274,88.515 75.999 C 89.566 75.004,91.987 73.307,92.355 73.307 C 92.562 73.307,92.966 73.023,93.254 72.677 C 93.542 72.330,94.360 71.747,95.072 71.382 C 100.463 68.615,102.333 67.732,103.287 67.505 C 103.889 67.362,104.382 67.107,104.382 66.938 C 104.382 66.770,105.413 66.358,106.673 66.023 C 107.933 65.688,109.502 65.225,110.159 64.995 C 111.240 64.617,112.811 64.209,118.327 62.878 C 120.778 62.286,263.281 61.947,274.569 62.507 C 280.076 62.779,283.226 63.110,284.409 63.540 C 285.365 63.887,286.979 64.276,287.994 64.404 C 289.010 64.532,290.218 64.872,290.679 65.158 C 291.140 65.445,292.215 65.804,293.069 65.956 C 293.923 66.108,295.159 66.550,295.817 66.938 C 296.474 67.326,297.593 67.766,298.302 67.916 C 299.012 68.066,299.704 68.369,299.840 68.590 C 299.976 68.810,300.830 69.342,301.737 69.773 C 303.365 70.545,304.783 71.329,307.633 73.033 C 310.440 74.711,316.188 79.339,319.226 82.366 C 321.019 84.154,324.451 88.352,326.295 91.013 C 326.843 91.804,327.599 92.826,327.976 93.285 C 328.353 93.743,328.781 94.501,328.926 94.968 C 329.072 95.435,329.334 95.909,329.508 96.022 C 329.968 96.321,332.271 100.787,332.271 101.381 C 332.271 101.658,332.604 102.312,333.010 102.835 C 333.417 103.357,333.875 104.470,334.030 105.308 C 334.184 106.146,334.657 107.401,335.082 108.097 C 335.506 108.793,335.854 109.817,335.855 110.372 C 335.856 110.928,336.197 112.362,336.613 113.560 C 338.569 119.193,338.647 122.450,338.647 199.203 C 338.647 275.910,338.570 279.172,336.626 284.962 C 336.203 286.223,335.857 287.659,335.857 288.155 C 335.857 288.650,335.522 289.680,335.113 290.444 C 334.704 291.208,334.232 292.460,334.065 293.227 C 333.898 293.994,333.426 295.049,333.016 295.572 C 332.606 296.094,332.271 296.748,332.271 297.025 C 332.271 297.515,330.640 300.803,329.410 302.795 C 327.031 306.644,326.122 307.968,325.856 307.968 C 325.689 307.968,325.451 308.282,325.328 308.665 C 325.205 309.049,324.663 309.900,324.123 310.558 C 323.583 311.215,322.820 312.173,322.427 312.686 C 322.035 313.199,321.480 313.827,321.196 314.081 C 320.582 314.628,320.077 315.148,318.676 316.675 C 317.582 317.869,313.708 321.148,311.783 322.510 C 311.164 322.948,310.186 323.685,309.611 324.147 C 309.036 324.609,308.028 325.284,307.371 325.646 C 305.862 326.478,304.849 327.084,303.578 327.916 C 303.026 328.278,302.129 328.713,301.586 328.883 C 301.042 329.054,300.170 329.527,299.647 329.935 C 299.125 330.343,298.408 330.683,298.054 330.690 C 297.700 330.697,296.514 331.143,295.418 331.682 C 294.323 332.221,293.101 332.664,292.703 332.666 C 292.305 332.668,291.588 332.883,291.109 333.144 C 290.631 333.405,288.894 333.928,287.251 334.307 C 285.608 334.686,283.546 335.202,282.669 335.454 C 281.626 335.753,274.746 335.984,262.749 336.121 C 246.606 336.306,244.363 336.407,243.924 336.967 C 243.277 337.794,243.195 379.700,243.839 380.903 C 244.565 382.259,280.146 381.926,288.645 380.483 C 293.057 379.734,297.476 378.823,298.606 378.429 C 299.263 378.200,300.936 377.760,302.324 377.451 C 303.712 377.143,305.231 376.622,305.700 376.294 C 306.168 375.966,307.005 375.692,307.559 375.685 C 308.113 375.678,309.462 375.231,310.558 374.692 C 311.653 374.153,312.829 373.711,313.171 373.709 C 313.512 373.707,314.140 373.439,314.565 373.114 C 314.991 372.789,316.049 372.323,316.918 372.080 C 317.787 371.836,318.932 371.295,319.462 370.878 C 319.992 370.461,320.679 370.120,320.989 370.120 C 321.298 370.120,322.950 369.313,324.659 368.327 C 326.369 367.341,327.946 366.534,328.165 366.534 C 328.383 366.534,328.886 366.175,329.283 365.737 C 329.679 365.299,330.175 364.940,330.385 364.940 C 330.932 364.940,334.661 362.474,334.661 362.111 C 334.661 361.944,335.065 361.680,335.558 361.526 C 336.051 361.372,336.992 360.823,337.649 360.308 C 338.307 359.792,339.261 359.054,339.771 358.669 C 347.189 353.057,355.354 345.057,360.411 338.446 C 363.324 334.639,365.919 331.038,366.583 329.880 C 367.023 329.114,367.775 327.830,368.254 327.028 C 370.690 322.943,371.713 321.094,371.713 320.777 C 371.713 320.584,372.046 319.999,372.452 319.476 C 372.858 318.953,373.405 317.868,373.668 317.064 C 373.930 316.260,374.390 315.398,374.690 315.148 C 374.991 314.899,375.354 313.999,375.498 313.147 C 375.642 312.296,376.010 311.392,376.315 311.138 C 376.621 310.885,376.992 310.023,377.139 309.223 C 377.287 308.423,377.740 307.144,378.146 306.380 C 378.552 305.617,378.888 304.631,378.893 304.189 C 378.898 303.748,379.230 302.663,379.632 301.780 C 380.033 300.896,380.487 299.340,380.639 298.322 C 380.792 297.304,381.266 295.477,381.693 294.262 C 382.121 293.046,382.470 291.308,382.470 290.398 C 382.470 289.488,382.874 287.108,383.367 285.109 L 384.263 281.474 384.263 199.203 L 384.263 116.932 383.367 113.297 C 382.874 111.298,382.470 108.945,382.470 108.069 C 382.470 107.193,382.022 105.103,381.474 103.425 C 380.926 101.747,380.478 99.881,380.478 99.280 C 380.478 98.678,380.232 97.832,379.932 97.399 C 379.631 96.967,379.182 95.655,378.932 94.484 C 378.682 93.313,378.211 91.973,377.885 91.507 C 377.558 91.041,377.291 90.332,377.291 89.933 C 377.291 89.533,376.843 88.365,376.295 87.336 C 375.747 86.306,375.299 85.256,375.299 85.000 C 375.299 84.562,373.657 80.982,372.860 79.681 C 372.659 79.353,372.208 78.456,371.860 77.689 C 371.511 76.922,371.111 76.205,370.971 76.096 C 370.831 75.986,370.400 75.269,370.012 74.502 C 369.047 72.597,367.777 70.522,366.235 68.332 C 365.523 67.321,364.940 66.367,364.940 66.212 C 364.940 65.968,363.789 64.449,358.251 57.389 C 356.928 55.703,350.900 49.325,349.039 47.643 C 348.291 46.967,347.207 45.966,346.629 45.418 C 346.050 44.871,344.990 43.974,344.272 43.426 C 343.554 42.878,341.434 41.220,339.561 39.741 C 337.688 38.262,335.903 37.052,335.595 37.052 C 335.287 37.052,334.938 36.799,334.819 36.491 C 334.701 36.182,334.079 35.712,333.438 35.446 C 332.796 35.181,332.271 34.839,332.271 34.687 C 332.271 34.535,331.688 34.098,330.976 33.716 C 330.264 33.333,328.827 32.538,327.784 31.949 C 323.747 29.668,316.879 26.295,316.272 26.295 C 315.922 26.295,315.429 26.046,315.176 25.741 C 314.924 25.437,313.960 24.995,313.036 24.760 C 312.111 24.524,310.644 23.966,309.776 23.520 C 308.908 23.074,307.868 22.709,307.466 22.709 C 307.063 22.709,306.249 22.461,305.658 22.157 C 305.066 21.853,303.506 21.385,302.191 21.116 C 300.876 20.846,299.353 20.402,298.805 20.127 C 298.257 19.853,296.684 19.505,295.310 19.355 C 293.936 19.205,292.057 18.816,291.136 18.491 C 287.253 17.121,280.246 16.993,201.368 16.855 C 158.624 16.781,123.575 16.797,123.480 16.891 M288.048 19.202 C 288.714 19.654,290.298 19.969,292.829 20.150 C 295.231 20.323,296.857 20.634,297.281 21.003 C 297.648 21.322,299.122 21.729,300.556 21.907 C 301.991 22.085,303.424 22.491,303.743 22.809 C 304.061 23.127,305.258 23.499,306.403 23.634 C 307.742 23.793,308.753 24.169,309.238 24.689 C 309.740 25.228,310.497 25.498,311.508 25.498 C 312.486 25.498,313.265 25.764,313.702 26.247 C 314.074 26.659,315.121 27.114,316.028 27.259 C 316.985 27.412,317.907 27.851,318.224 28.303 C 318.558 28.781,319.230 29.084,319.955 29.084 C 320.638 29.084,321.237 29.335,321.368 29.678 C 321.494 30.004,322.314 30.486,323.190 30.749 C 324.067 31.012,324.870 31.451,324.975 31.724 C 325.080 31.998,325.734 32.344,326.428 32.492 C 327.122 32.641,328.010 33.100,328.402 33.513 C 328.794 33.925,329.366 34.263,329.674 34.263 C 329.982 34.263,330.476 34.609,330.772 35.032 C 331.068 35.454,331.800 35.923,332.399 36.073 C 332.997 36.224,333.668 36.685,333.889 37.098 C 334.110 37.511,334.545 37.849,334.856 37.849 C 335.167 37.849,335.870 38.297,336.418 38.845 C 336.966 39.392,337.781 39.841,338.229 39.841 C 338.695 39.841,339.044 40.102,339.044 40.451 C 339.044 40.786,339.358 41.176,339.741 41.317 C 340.125 41.459,340.819 41.946,341.284 42.401 C 341.749 42.855,342.646 43.652,343.276 44.171 C 346.010 46.421,348.828 48.963,350.929 51.072 C 353.278 53.430,353.983 54.210,356.972 57.757 C 357.958 58.927,359.168 60.281,359.661 60.765 C 360.154 61.249,360.558 61.842,360.558 62.083 C 360.558 62.325,360.916 62.714,361.355 62.948 C 361.793 63.183,362.151 63.695,362.151 64.086 C 362.151 64.477,362.600 65.186,363.147 65.663 C 363.695 66.139,364.143 66.792,364.143 67.115 C 364.143 67.437,364.502 67.893,364.940 68.127 C 365.378 68.362,365.737 68.906,365.737 69.337 C 365.737 69.767,366.077 70.459,366.492 70.875 C 367.297 71.679,368.004 72.872,369.291 75.598 C 369.731 76.529,370.254 77.291,370.454 77.291 C 370.653 77.291,370.927 77.843,371.062 78.518 C 371.197 79.194,371.668 80.204,372.108 80.763 C 372.548 81.323,372.908 82.115,372.908 82.524 C 372.908 82.933,373.248 83.607,373.663 84.022 C 374.078 84.437,374.540 85.501,374.690 86.386 C 374.839 87.272,375.307 88.394,375.728 88.880 C 376.155 89.373,376.494 90.353,376.494 91.097 C 376.494 91.861,376.807 92.744,377.229 93.165 C 377.683 93.619,378.068 94.792,378.238 96.236 C 378.390 97.529,378.814 98.905,379.189 99.319 C 379.633 99.811,379.947 101.076,380.106 103.017 C 380.252 104.807,380.590 106.244,380.963 106.669 C 381.399 107.166,381.661 108.710,381.860 111.952 C 382.040 114.874,382.381 117.039,382.804 117.928 C 383.692 119.799,383.841 279.107,382.956 280.174 C 382.417 280.822,381.681 286.118,381.676 289.379 C 381.674 290.702,381.423 291.627,380.876 292.322 C 380.270 293.092,380.080 293.938,380.080 295.855 C 380.080 297.818,379.912 298.533,379.321 299.088 C 378.836 299.544,378.458 300.645,378.273 302.144 C 378.094 303.590,377.698 304.772,377.238 305.232 C 376.770 305.700,376.494 306.543,376.494 307.508 C 376.494 308.522,376.231 309.278,375.715 309.745 C 375.286 310.133,374.816 311.249,374.669 312.229 C 374.522 313.207,374.153 314.103,373.849 314.220 C 373.545 314.337,373.101 315.207,372.862 316.153 C 372.624 317.100,372.188 317.967,371.894 318.079 C 371.600 318.192,371.237 318.936,371.087 319.732 C 370.938 320.528,370.578 321.270,370.288 321.382 C 369.997 321.493,369.563 322.182,369.322 322.912 C 369.081 323.642,368.624 324.455,368.306 324.718 C 367.989 324.982,367.729 325.501,367.729 325.873 C 367.729 326.245,367.281 326.939,366.733 327.416 C 366.180 327.897,365.737 328.713,365.737 329.253 C 365.737 329.875,365.450 330.316,364.940 330.478 C 364.502 330.617,364.143 330.962,364.143 331.244 C 364.143 331.525,363.695 332.240,363.147 332.831 C 362.600 333.422,362.151 334.159,362.151 334.469 C 362.151 334.778,361.793 335.224,361.355 335.458 C 360.916 335.693,360.558 336.141,360.558 336.454 C 360.558 336.767,360.199 337.216,359.761 337.450 C 359.323 337.685,358.964 338.074,358.964 338.315 C 358.964 338.556,358.561 339.147,358.068 339.629 C 357.575 340.110,356.275 341.556,355.179 342.841 C 354.084 344.126,352.336 346.012,351.295 347.031 C 350.254 348.051,349.402 349.091,349.402 349.343 C 349.402 349.595,349.203 349.801,348.958 349.801 C 348.560 349.801,344.965 352.693,342.780 354.773 C 341.215 356.261,339.776 357.371,339.408 357.371 C 339.208 357.371,339.044 357.603,339.044 357.888 C 339.044 358.173,338.416 358.633,337.649 358.910 C 336.882 359.187,336.255 359.591,336.255 359.807 C 336.255 360.024,335.717 360.388,335.060 360.617 C 334.402 360.847,333.865 361.266,333.865 361.550 C 333.865 361.833,333.372 362.187,332.769 362.337 C 332.166 362.487,331.315 362.934,330.876 363.330 C 330.438 363.727,329.676 364.174,329.183 364.324 C 328.690 364.473,328.287 364.832,328.287 365.122 C 328.287 365.411,327.684 365.761,326.947 365.900 C 326.210 366.038,325.286 366.506,324.893 366.940 C 324.501 367.374,323.849 367.729,323.444 367.729 C 323.040 367.729,322.375 368.063,321.967 368.471 C 321.559 368.880,320.612 369.329,319.863 369.469 C 319.114 369.610,318.194 370.082,317.820 370.520 C 317.420 370.987,316.645 371.315,315.940 371.315 C 315.281 371.315,314.406 371.649,313.997 372.058 C 313.588 372.467,312.444 372.923,311.454 373.072 C 310.455 373.222,309.339 373.689,308.948 374.121 C 308.439 374.684,307.723 374.900,306.375 374.900 C 305.057 374.900,304.308 375.120,303.833 375.644 C 303.369 376.156,302.334 376.471,300.494 376.660 C 299.027 376.810,297.533 377.198,297.175 377.522 C 296.761 377.897,295.073 378.238,292.532 378.458 C 289.885 378.688,288.180 379.041,287.473 379.503 C 286.345 380.243,249.542 380.967,246.081 380.317 L 244.636 380.046 244.529 359.326 C 244.464 346.619,244.569 338.459,244.801 338.227 C 245.024 338.003,250.581 337.849,258.387 337.849 C 266.118 337.849,272.073 337.684,272.749 337.452 C 273.385 337.234,276.540 336.910,279.762 336.734 C 284.154 336.493,285.799 336.256,286.336 335.789 C 286.730 335.446,288.104 335.048,289.391 334.904 C 290.785 334.749,292.135 334.325,292.732 333.855 C 293.282 333.422,294.329 333.068,295.058 333.068 C 295.832 333.068,296.680 332.758,297.096 332.324 C 297.488 331.915,298.490 331.457,299.324 331.306 C 300.157 331.155,300.931 330.790,301.045 330.495 C 301.158 330.200,301.863 329.844,302.612 329.703 C 303.363 329.563,304.162 329.098,304.392 328.668 C 304.621 328.239,305.147 327.888,305.561 327.888 C 305.975 327.888,306.846 327.440,307.497 326.892 C 308.148 326.345,308.948 325.896,309.274 325.896 C 309.600 325.896,309.961 325.538,310.076 325.100 C 310.193 324.652,310.619 324.303,311.049 324.303 C 311.469 324.303,312.234 323.855,312.749 323.307 C 313.264 322.759,313.910 322.311,314.186 322.311 C 314.462 322.311,314.801 321.952,314.940 321.514 C 315.079 321.076,315.334 320.717,315.507 320.717 C 315.679 320.717,316.304 320.269,316.895 319.721 C 317.486 319.173,318.139 318.725,318.347 318.725 C 318.555 318.725,318.725 318.535,318.725 318.303 C 318.725 318.070,319.890 316.743,321.315 315.353 C 322.739 313.964,323.904 312.639,323.904 312.409 C 323.904 312.180,324.160 311.848,324.473 311.673 C 325.130 311.306,327.490 308.143,327.490 307.631 C 327.490 307.442,327.938 306.804,328.486 306.213 C 329.034 305.622,329.482 304.922,329.482 304.657 C 329.482 304.392,329.841 303.952,330.279 303.678 C 330.717 303.404,331.076 302.805,331.076 302.345 C 331.076 301.885,331.524 300.977,332.072 300.326 C 332.620 299.675,333.068 298.797,333.068 298.376 C 333.068 297.954,333.402 297.275,333.811 296.866 C 334.220 296.457,334.677 295.308,334.826 294.312 C 334.976 293.316,335.344 292.406,335.645 292.291 C 335.965 292.168,336.307 291.157,336.471 289.845 C 336.624 288.616,337.042 287.318,337.399 286.962 C 337.868 286.493,338.107 285.280,338.262 282.575 C 338.416 279.906,338.644 278.733,339.059 278.477 C 340.131 277.814,340.119 122.030,339.047 120.030 C 338.468 118.949,338.247 117.780,338.247 115.790 C 338.247 113.805,338.039 112.697,337.497 111.800 C 337.085 111.117,336.626 109.708,336.477 108.670 C 336.329 107.632,335.954 106.529,335.645 106.220 C 335.335 105.910,334.966 104.930,334.824 104.042 C 334.682 103.154,334.228 102.122,333.817 101.749 C 333.405 101.377,333.068 100.661,333.068 100.158 C 333.068 99.655,332.620 98.761,332.072 98.170 C 331.524 97.578,331.076 96.790,331.076 96.418 C 331.076 96.046,330.717 95.417,330.279 95.020 C 329.841 94.623,329.482 94.067,329.482 93.783 C 329.482 93.500,329.034 92.785,328.486 92.193 C 327.938 91.602,327.490 90.949,327.490 90.742 C 327.490 90.249,326.101 88.438,324.059 86.268 C 323.158 85.310,322.312 84.243,322.179 83.897 C 322.046 83.550,321.663 83.267,321.327 83.267 C 320.992 83.267,320.717 83.088,320.717 82.868 C 320.717 82.389,316.441 78.088,315.965 78.088 C 315.780 78.088,315.336 77.639,314.977 77.092 C 314.618 76.544,314.157 76.096,313.953 76.096 C 313.749 76.096,313.134 75.647,312.586 75.100 C 312.038 74.552,311.319 74.104,310.988 74.104 C 310.657 74.104,310.195 73.745,309.960 73.307 C 309.726 72.869,309.247 72.510,308.896 72.510 C 308.546 72.510,307.843 72.062,307.336 71.514 C 306.816 70.954,305.968 70.518,305.398 70.518 C 304.773 70.518,304.382 70.294,304.382 69.936 C 304.382 69.596,303.735 69.179,302.830 68.935 C 301.976 68.705,301.184 68.276,301.071 67.980 C 300.958 67.685,300.163 67.331,299.305 67.194 C 298.446 67.057,297.417 66.583,297.017 66.141 C 296.539 65.613,295.789 65.339,294.821 65.339 C 293.894 65.339,293.103 65.065,292.681 64.598 C 292.215 64.084,291.207 63.783,289.374 63.612 C 287.703 63.456,286.454 63.110,285.965 62.667 C 285.337 62.099,284.097 61.916,279.349 61.691 C 276.135 61.539,272.880 61.222,272.114 60.986 C 270.155 60.383,129.845 60.383,127.886 60.986 C 127.120 61.222,123.865 61.539,120.651 61.691 C 115.852 61.918,114.667 62.095,114.019 62.682 C 113.543 63.112,112.304 63.489,110.898 63.630 C 109.549 63.766,108.165 64.175,107.616 64.601 C 107.093 65.007,106.062 65.339,105.325 65.339 C 104.528 65.339,103.670 65.653,103.209 66.113 C 102.783 66.539,101.804 67.006,101.032 67.151 C 100.261 67.296,99.423 67.663,99.171 67.967 C 98.919 68.271,98.016 68.708,97.165 68.937 C 96.314 69.166,95.618 69.595,95.618 69.891 C 95.618 70.190,95.000 70.545,94.228 70.690 C 93.464 70.833,92.662 71.281,92.446 71.684 C 92.230 72.088,91.600 72.532,91.046 72.671 C 90.493 72.810,90.040 73.189,90.040 73.514 C 90.040 73.838,89.721 74.104,89.332 74.104 C 88.685 74.104,87.136 75.257,85.046 77.297 C 84.600 77.732,84.017 78.088,83.751 78.088 C 83.485 78.088,83.267 78.361,83.267 78.695 C 83.267 79.029,82.819 79.473,82.271 79.681 C 81.723 79.890,81.275 80.321,81.275 80.641 C 81.275 80.960,80.916 81.335,80.478 81.474 C 80.040 81.613,79.681 81.902,79.681 82.116 C 79.681 82.330,78.701 83.477,77.504 84.665 C 75.543 86.610,74.001 88.609,72.626 90.986 C 72.361 91.444,71.880 92.013,71.557 92.249 C 71.234 92.485,70.847 93.165,70.698 93.760 C 70.548 94.355,70.088 95.023,69.675 95.244 C 69.262 95.465,68.924 96.048,68.924 96.539 C 68.924 97.030,68.576 97.731,68.150 98.096 C 67.724 98.460,67.253 99.411,67.104 100.208 C 66.954 101.005,66.595 101.748,66.305 101.859 C 66.016 101.970,65.581 103.016,65.339 104.183 C 65.096 105.350,64.665 106.395,64.381 106.504 C 64.084 106.618,63.764 107.667,63.630 108.970 C 63.492 110.305,63.104 111.560,62.687 112.021 C 62.157 112.606,61.924 113.731,61.766 116.462 C 61.617 119.035,61.347 120.412,60.857 121.105 C 59.735 122.690,59.782 275.671,60.905 277.513 C 61.442 278.393,61.698 279.764,61.826 282.444 C 61.961 285.267,62.159 286.271,62.652 286.631 C 63.032 286.910,63.416 287.999,63.581 289.270 C 63.736 290.460,64.195 291.862,64.601 292.384 C 65.006 292.907,65.339 293.848,65.339 294.476 C 65.339 295.104,65.679 295.958,66.095 296.374 C 66.511 296.790,66.980 297.731,67.137 298.465 C 67.295 299.200,67.761 300.122,68.174 300.514 C 68.587 300.906,68.924 301.568,68.924 301.985 C 68.924 302.402,69.270 302.986,69.693 303.282 C 70.116 303.578,70.585 304.310,70.735 304.909 C 70.885 305.507,71.346 306.178,71.759 306.399 C 72.172 306.620,72.510 307.122,72.510 307.514 C 72.510 307.907,72.958 308.649,73.506 309.163 C 74.054 309.678,74.502 310.261,74.502 310.459 C 74.502 310.658,75.309 311.627,76.295 312.613 C 77.281 313.599,78.088 314.559,78.088 314.746 C 78.088 314.933,78.446 315.200,78.884 315.339 C 79.323 315.478,79.681 315.865,79.681 316.200 C 79.681 316.534,80.023 316.897,80.441 317.006 C 80.859 317.116,81.294 317.560,81.408 317.995 C 81.521 318.429,81.986 318.881,82.441 319.000 C 82.895 319.119,83.267 319.452,83.267 319.741 C 83.267 320.029,83.626 320.379,84.064 320.518 C 84.503 320.657,85.047 321.118,85.273 321.541 C 85.500 321.964,85.903 322.314,86.169 322.318 C 86.436 322.321,87.076 322.770,87.592 323.314 C 88.108 323.858,88.774 324.303,89.072 324.303 C 89.370 324.303,89.805 324.661,90.040 325.100 C 90.274 325.538,90.703 325.896,90.992 325.896 C 91.281 325.896,92.001 326.345,92.592 326.892 C 93.183 327.440,94.022 327.888,94.455 327.888 C 94.889 327.888,95.344 328.149,95.466 328.467 C 95.588 328.785,96.344 329.258,97.147 329.519 C 97.949 329.780,98.749 330.236,98.923 330.533 C 99.098 330.830,99.941 331.184,100.797 331.321 C 101.653 331.458,102.659 331.907,103.031 332.319 C 103.427 332.755,104.242 333.068,104.988 333.068 C 105.692 333.068,106.724 333.427,107.283 333.867 C 107.917 334.366,109.214 334.762,110.729 334.920 C 112.120 335.066,113.491 335.463,113.938 335.851 C 114.559 336.390,115.882 336.580,120.407 336.781 C 123.536 336.921,126.722 337.218,127.487 337.442 C 128.334 337.689,135.188 337.849,144.971 337.849 C 161.690 337.849,163.784 338.026,164.579 339.512 C 164.793 339.912,165.255 340.239,165.606 340.239 C 165.956 340.239,166.653 340.642,167.155 341.135 C 168.612 342.569,170.400 343.825,170.983 343.825 C 171.279 343.825,171.745 344.183,172.019 344.622 C 172.293 345.060,172.778 345.418,173.097 345.418 C 173.416 345.418,173.861 345.763,174.087 346.183 C 174.312 346.604,175.125 347.156,175.893 347.409 C 176.662 347.663,177.291 348.126,177.291 348.437 C 177.291 348.749,177.640 349.004,178.068 349.004 C 178.495 349.004,178.989 349.261,179.164 349.575 C 179.551 350.265,181.903 352.009,183.243 352.598 C 183.777 352.833,184.459 353.376,184.759 353.804 C 185.059 354.232,185.498 354.582,185.734 354.582 C 185.970 354.582,186.579 355.030,187.087 355.578 C 187.594 356.125,188.377 356.574,188.826 356.574 C 189.285 356.574,189.641 356.835,189.641 357.171 C 189.641 357.500,189.912 357.769,190.242 357.769 C 190.572 357.769,191.232 358.217,191.708 358.765 C 192.184 359.313,192.740 359.761,192.943 359.761 C 193.145 359.761,193.844 360.209,194.495 360.757 C 195.146 361.305,195.891 361.753,196.150 361.753 C 196.409 361.753,196.845 362.112,197.119 362.550 C 197.392 362.988,197.877 363.347,198.197 363.347 C 198.516 363.347,198.968 363.703,199.201 364.139 C 199.434 364.574,200.112 365.052,200.709 365.199 C 201.305 365.347,202.027 365.797,202.313 366.200 C 202.600 366.603,203.027 366.932,203.264 366.932 C 203.500 366.932,204.104 367.336,204.605 367.829 C 206.063 369.262,207.850 370.518,208.433 370.518 C 208.729 370.518,209.196 370.876,209.469 371.315 C 209.743 371.753,210.169 372.112,210.416 372.112 C 210.663 372.112,211.280 372.560,211.788 373.108 C 212.296 373.655,213.066 374.104,213.500 374.104 C 213.939 374.104,214.401 374.457,214.542 374.900 C 214.681 375.339,215.025 375.697,215.307 375.697 C 215.589 375.697,216.289 376.132,216.861 376.662 C 217.434 377.193,218.267 377.743,218.712 377.884 C 219.158 378.026,219.522 378.291,219.522 378.474 C 219.522 378.657,220.093 379.006,220.792 379.249 C 224.271 380.462,221.062 380.532,167.465 380.405 C 115.164 380.282,113.678 380.258,112.538 379.511 C 111.697 378.960,110.254 378.657,107.433 378.438 C 104.887 378.241,103.269 377.925,102.846 377.543 C 102.486 377.218,101.026 376.826,99.602 376.671 C 97.874 376.482,96.775 376.141,96.299 375.644 C 95.811 375.135,95.024 374.900,93.805 374.900 C 92.519 374.900,91.835 374.680,91.344 374.106 C 90.928 373.620,89.930 373.214,88.775 373.061 C 87.696 372.918,86.597 372.490,86.211 372.063 C 85.818 371.629,85.000 371.315,84.263 371.315 C 83.510 371.315,82.706 370.999,82.291 370.541 C 81.906 370.115,81.027 369.646,80.337 369.498 C 79.648 369.351,78.763 368.892,78.371 368.479 C 77.979 368.067,77.211 367.729,76.665 367.729 C 76.119 367.729,75.572 367.469,75.450 367.151 C 75.328 366.833,74.572 366.361,73.770 366.102 C 72.967 365.843,71.990 365.297,71.598 364.887 C 71.206 364.478,70.634 364.143,70.326 364.143 C 70.018 364.143,69.532 363.811,69.246 363.404 C 68.959 362.997,68.277 362.527,67.729 362.358 C 67.181 362.190,66.412 361.716,66.020 361.305 C 65.628 360.894,65.065 360.558,64.768 360.558 C 64.471 360.558,64.125 360.287,63.998 359.957 C 63.871 359.626,63.269 359.136,62.661 358.867 C 62.052 358.599,61.320 358.062,61.033 357.675 C 60.747 357.289,60.260 356.972,59.952 356.972 C 59.643 356.972,59.199 356.614,58.964 356.175 C 58.730 355.737,58.351 355.378,58.122 355.378 C 57.893 355.378,56.941 354.617,56.006 353.685 C 55.070 352.754,53.276 351.096,52.019 350.000 C 49.157 347.506,49.211 347.560,46.813 344.816 C 45.717 343.562,44.059 341.740,43.127 340.767 C 42.196 339.793,41.434 338.830,41.434 338.625 C 41.434 338.421,41.076 338.030,40.637 337.756 C 40.199 337.482,39.841 337.034,39.841 336.760 C 39.841 336.486,39.482 336.038,39.044 335.764 C 38.606 335.490,38.247 335.039,38.247 334.761 C 38.247 334.483,37.709 333.693,37.052 333.005 C 36.394 332.317,35.857 331.552,35.857 331.304 C 35.857 331.057,35.498 330.547,35.060 330.172 C 34.622 329.797,34.263 329.140,34.263 328.712 C 34.263 328.284,33.917 327.691,33.494 327.395 C 33.071 327.099,32.600 326.357,32.447 325.747 C 32.294 325.136,31.933 324.547,31.646 324.437 C 31.359 324.326,31.014 323.732,30.878 323.116 C 30.743 322.499,30.284 321.680,29.858 321.294 C 29.432 320.909,29.084 320.171,29.084 319.655 C 29.084 319.139,28.726 318.411,28.289 318.037 C 27.851 317.662,27.385 316.779,27.253 316.074 C 27.121 315.370,26.672 314.485,26.255 314.108 C 25.799 313.694,25.498 312.893,25.498 312.090 C 25.498 311.273,25.179 310.437,24.673 309.932 C 24.197 309.456,23.713 308.256,23.530 307.099 C 23.356 305.995,22.979 304.947,22.693 304.771 C 22.406 304.594,22.042 303.347,21.884 301.999 C 21.698 300.423,21.355 299.374,20.924 299.059 C 20.438 298.703,20.176 297.664,19.971 295.275 C 19.788 293.146,19.492 291.861,19.133 291.639 C 18.732 291.392,18.492 289.840,18.269 286.059 C 18.071 282.706,17.739 280.380,17.346 279.593 C 16.412 277.720,16.412 120.686,17.346 118.814 C 17.737 118.030,18.070 115.715,18.264 112.428 C 18.489 108.619,18.730 107.110,19.185 106.655 C 19.581 106.259,19.883 104.950,20.032 102.984 C 20.201 100.742,20.445 99.796,20.950 99.427 C 21.410 99.091,21.699 98.185,21.823 96.692 C 21.947 95.189,22.253 94.238,22.757 93.781 C 23.229 93.354,23.506 92.567,23.506 91.649 C 23.506 90.723,23.868 89.704,24.502 88.845 C 25.096 88.040,25.498 86.958,25.498 86.165 C 25.498 85.355,25.730 84.747,26.091 84.608 C 26.418 84.483,26.875 83.672,27.108 82.807 C 27.341 81.941,27.881 80.884,28.308 80.457 C 28.735 80.030,29.084 79.242,29.084 78.705 C 29.084 78.168,29.333 77.585,29.638 77.410 C 29.943 77.235,30.488 76.464,30.848 75.697 C 31.956 73.338,32.743 71.947,33.442 71.116 C 33.810 70.677,34.321 69.826,34.577 69.223 C 34.833 68.621,35.226 68.127,35.450 68.127 C 35.673 68.127,35.857 67.868,35.857 67.550 C 35.857 67.233,36.309 66.485,36.862 65.888 C 37.415 65.291,37.973 64.386,38.101 63.876 C 38.229 63.366,38.579 62.948,38.880 62.948 C 39.181 62.948,39.540 62.500,39.677 61.952 C 39.815 61.404,40.177 60.956,40.481 60.956 C 40.786 60.956,41.036 60.792,41.036 60.592 C 41.036 60.391,41.439 59.753,41.932 59.173 C 43.101 57.799,46.515 53.964,47.908 52.459 C 48.511 51.809,49.004 51.124,49.004 50.937 C 49.004 50.750,49.201 50.598,49.442 50.598 C 49.683 50.598,50.464 50.015,51.176 49.303 C 51.889 48.591,53.318 47.291,54.352 46.414 C 55.386 45.538,57.012 44.059,57.965 43.127 C 58.918 42.196,59.969 41.434,60.300 41.434 C 60.631 41.434,61.016 41.076,61.155 40.637 C 61.294 40.199,61.736 39.841,62.136 39.841 C 62.537 39.841,63.287 39.396,63.803 38.852 C 64.319 38.307,64.959 37.859,65.225 37.855 C 65.491 37.852,65.901 37.490,66.135 37.052 C 66.370 36.614,66.923 36.255,67.364 36.255 C 67.805 36.255,68.581 35.807,69.089 35.259 C 69.596 34.711,70.311 34.263,70.676 34.263 C 71.041 34.263,71.442 33.996,71.568 33.669 C 71.693 33.342,72.513 32.860,73.389 32.597 C 74.266 32.335,75.072 31.890,75.180 31.609 C 75.287 31.327,75.991 30.982,76.742 30.841 C 77.494 30.700,78.290 30.247,78.511 29.834 C 78.764 29.362,79.344 29.084,80.078 29.084 C 80.719 29.084,81.565 28.741,81.957 28.322 C 82.349 27.903,83.330 27.437,84.137 27.287 C 84.945 27.136,85.914 26.672,86.291 26.255 C 86.738 25.761,87.509 25.498,88.508 25.498 C 89.522 25.498,90.316 25.221,90.858 24.680 C 91.365 24.172,92.436 23.772,93.677 23.625 C 94.778 23.494,95.939 23.128,96.256 22.811 C 96.573 22.493,98.128 22.072,99.711 21.875 C 101.294 21.677,102.769 21.275,102.988 20.981 C 103.242 20.639,104.755 20.343,107.171 20.162 C 109.253 20.006,111.322 19.639,111.770 19.347 C 112.217 19.055,112.934 18.725,113.363 18.616 C 115.883 17.970,287.079 18.545,288.048 19.202 " stroke="none" fill="#fc7c74" fill-rule="evenodd"></path></g></svg>