<svg xmlns="http://www.w3.org/2000/svg" width="3300" height="3300" viewBox="0 0 3300 3300">
  <defs>
    <linearGradient id="logo-flared-logo-a" x1="96.049%" x2="23.002%" y1="2.727%" y2="91.239%">
      <stop offset="0%" stop-color="#5D75FF"/>
      <stop offset="100%" stop-color="#2F008E"/>
    </linearGradient>
    <linearGradient id="logo-flared-logo-b" x1="96.049%" x2="23.002%" y1="2.727%" y2="91.239%">
      <stop offset="0%" stop-color="#3B5AFF"/>
      <stop offset="100%" stop-color="#5400FF"/>
    </linearGradient>
  </defs>
  <g fill="none" transform="translate(930 930.004)">
    <path fill="url(#logo-flared-logo-a)" d="M1276.23664,34.755871 L1279.18579,36.2362639 L1282.12561,37.7461943 L1286.52686,40.0662941 C1335.41574,66.212358 1373.78403,104.580644 1399.93009,153.469533 L1402.25019,157.870776 L1403.76012,160.810601 L1405.24052,163.759751 L1406.5907,166.514432 L1407.9152,169.28404 L1409.85366,173.473671 L1411.11366,176.29506 L1412.34776,179.142947 L1413.55587,182.020639 L1414.73794,184.93144 L1415.8939,187.878659 L1417.02368,190.865599 L1418.12722,193.895569 L1419.20446,196.971874 L1420.25532,200.097819 C1420.42826,200.623131 1420.6001,201.150648 1420.77084,201.680441 L1421.78201,204.887047 L1422.76665,208.151559 L1423.72469,211.477285 L1424.65606,214.867528 L1425.56069,218.325597 L1426.43852,221.854796 L1427.28949,225.458433 L1428.11353,229.139812 C1428.24862,229.760038 1428.38259,230.383641 1428.51543,231.010689 L1429.29894,234.814883 L1430.05536,238.705084 L1430.78462,242.684601 L1431.48665,246.756738 L1432.16139,250.924803 L1432.80876,255.1921 L1433.42872,259.561936 L1434.02118,264.037618 L1434.58609,268.622451 L1435.12338,273.319742 L1435.63298,278.132796 L1436.34532,285.576667 L1436.78542,290.693595 L1437.1976,295.937858 L1437.58179,301.312763 L1437.93794,306.821615 L1438.26597,312.46772 L1438.56582,318.254385 L1438.83743,324.184916 L1439.08072,330.262619 L1439.29564,336.4908 L1439.48212,342.872765 L1439.64009,349.411821 L1439.82344,359.522181 C1439.84023,360.666017 1439.85583,361.816743 1439.87023,362.974428 L1439.96752,373.583334 L1440,384.579169 L1440,1059.12257 L1439.94228,1069.98819 L1439.87023,1077.01835 L1439.70836,1087.25149 C1439.68679,1088.36804 1439.66404,1089.47784 1439.64009,1090.58096 L1439.48212,1097.12001 L1439.29564,1103.50198 L1439.08072,1109.73016 L1438.70516,1118.79132 L1438.26597,1127.52506 L1437.93794,1133.17116 L1437.58179,1138.68001 L1437.1976,1144.05492 L1436.78542,1149.29918 L1436.34532,1154.41611 L1435.87738,1159.40901 L1435.38164,1164.28119 L1434.85819,1169.03594 L1434.30709,1173.67659 L1433.72839,1178.20644 L1433.12217,1182.62878 L1432.4885,1186.94694 L1431.82743,1191.1642 L1431.13904,1195.28389 L1430.42339,1199.30931 C1430.30184,1199.97254 1430.17917,1200.63197 1430.05536,1201.28769 L1429.29894,1205.17789 L1428.51543,1208.98209 L1427.70488,1212.70358 L1426.86737,1216.34567 L1426.00296,1219.91168 C1425.85666,1220.49986 1425.70923,1221.085 1425.56069,1221.66718 L1424.65606,1225.12525 L1423.72469,1228.51549 L1422.76665,1231.84122 L1421.78201,1235.10573 L1420.77084,1238.31234 L1419.73319,1241.46434 L1418.66913,1244.56505 C1418.48959,1245.07775 1418.30896,1245.58844 1418.12722,1246.09721 L1417.02368,1249.12718 L1415.8939,1252.11412 L1414.73794,1255.06134 L1413.55587,1257.97214 L1412.34776,1260.84983 L1411.11366,1263.69772 L1409.85366,1266.51911 L1408.5678,1269.3173 L1406.5907,1273.47835 L1405.24052,1276.23303 L1403.76012,1279.18218 L1402.25019,1282.122 L1399.93009,1286.52324 C1373.78403,1335.41213 1335.41574,1373.78042 1286.52686,1399.92648 L1282.12561,1402.24658 L1279.18579,1403.75651 L1276.23664,1405.23691 L1273.48196,1406.58709 L1270.71235,1407.91159 L1266.52272,1409.85005 L1263.70133,1411.11005 L1260.85344,1412.34415 L1257.97575,1413.55226 L1255.06495,1414.73433 L1252.11773,1415.89029 L1249.13079,1417.02007 L1246.10082,1418.12361 L1243.02451,1419.20084 L1239.89857,1420.2517 C1239.37326,1420.42465 1238.84574,1420.59649 1238.31595,1420.76722 L1235.10934,1421.7784 L1231.84483,1422.76304 L1228.5191,1423.72108 L1225.12886,1424.65245 L1221.67079,1425.55708 L1218.14159,1426.43491 L1214.53796,1427.28588 L1210.85658,1428.10992 C1210.23635,1428.24501 1209.61275,1428.37897 1208.9857,1428.51181 L1205.18151,1429.29533 L1201.2913,1430.05175 L1197.31179,1430.78101 L1193.23965,1431.48304 L1189.07159,1432.15777 L1184.80429,1432.80515 L1180.43445,1433.42511 L1175.95877,1434.01757 L1171.37394,1434.58248 L1166.67665,1435.11977 L1161.86359,1435.62937 L1154.41972,1436.34171 L1149.30279,1436.78181 L1144.05853,1437.19398 L1138.68363,1437.57818 L1133.17477,1437.93433 L1127.52867,1438.26236 L1121.742,1438.56221 L1115.81147,1438.83382 L1109.73377,1439.07711 L1103.50559,1439.29203 L1097.12362,1439.47851 L1090.58457,1439.63648 L1080.47421,1439.81983 C1079.33037,1439.83662 1078.17965,1439.85222 1077.02196,1439.86662 L1066.41305,1439.96391 L1055.41722,1439.99639 L720,1439.99639 C322.35498,1439.99639 0,1117.64141 0,719.996389 L0,380.87021 L0.0577175098,370.004591 L0.12976585,362.974428 L0.291640566,352.741291 C0.313206616,351.624738 0.33596462,350.514938 0.35991321,349.411821 L0.517880835,342.872765 L0.704356824,336.4908 L0.919275481,330.262619 L1.29483975,321.201461 L1.73403047,312.46772 L2.06206282,306.821615 L2.41820934,301.312763 L2.80240434,295.937858 L3.21458212,290.693595 L3.65467699,285.576667 L4.12262323,280.583768 L4.61835517,275.711592 L5.14180709,270.956833 L5.69291331,266.316184 L6.27160812,261.78634 L6.87782582,257.363994 L7.51150072,253.04584 L8.17256711,248.828573 L8.86095931,244.708885 L9.57661161,240.683472 C9.69815501,240.020242 9.82083152,239.360802 9.94463976,238.705084 L10.701059,234.814883 L11.4845742,231.010689 L12.2951194,227.289198 L13.1326292,223.647103 L13.9970377,220.081099 C14.1433437,219.492922 14.2907677,218.907777 14.4393085,218.325597 L15.3439419,214.867528 L16.2753099,211.477285 L17.2333467,208.151559 L18.2179866,204.887047 L19.229164,201.680441 L20.2668131,198.528435 L21.3308682,195.427723 C21.5104075,194.915028 21.6910444,194.404333 21.8727774,193.895569 L22.9763184,190.865599 L24.1061012,187.878659 L25.26206,184.93144 L26.4441292,182.020639 L27.6522431,179.142947 L28.886336,176.29506 L30.1463422,173.473671 L31.4321959,170.675474 L33.4092971,166.514432 L34.7594825,163.759751 L36.2398754,160.810601 L37.7498058,157.870776 L40.0699056,153.469533 C66.2159695,104.580644 104.584256,66.212358 153.473144,40.0662941 L157.874387,37.7461943 L160.814212,36.2362639 L163.763362,34.755871 L166.48835,33.4200673 L169.22791,32.1093969 L173.371575,30.1906554 L176.161569,28.9430965 L178.977339,27.7208935 L181.822083,26.52411 L184.699004,25.3528096 L187.611301,24.207056 L190.562176,23.0869126 L193.554828,21.9924431 L196.592459,20.9237112 L199.678269,19.8807803 L202.815459,18.8637142 C203.342784,18.6963621 203.872383,18.5300904 204.404322,18.3649003 L207.624583,17.3867505 L210.904225,16.4346244 L214.246449,15.5085856 L217.654456,14.6086978 L221.131446,13.7350245 L224.68062,12.8876293 C225.278342,12.7485901 225.879205,12.6106485 226.483276,12.4738059 L230.146727,11.6659471 L233.890363,10.8845255 L237.717385,10.1296046 L241.630994,9.40124798 L245.63439,8.69951933 L249.730775,8.02448222 L253.923347,7.37620025 L258.215309,6.75473701 L262.609861,6.1601561 L267.110203,5.59252114 L271.719536,5.05189572 L276.441061,4.53834343 L281.277978,4.0519279 L286.233488,3.5927127 L291.310792,3.16076145 L296.513089,2.75613775 L301.843582,2.3789052 L307.30547,2.0291274 L315.75167,1.55607749 L321.556049,1.27521482 L330.530989,0.905835737 L336.697863,0.694285712 L343.015337,0.510572046 L349.48661,0.354758341 L359.488897,0.173489339 L369.855236,0.0553530071 L380.59643,0 L1059.12618,0 L1069.9918,0.0541060593 L1077.02196,0.126154399 L1087.2551,0.288029115 C1088.37165,0.309595165 1089.48145,0.332353169 1090.58457,0.35630176 L1097.12362,0.514269384 L1103.50559,0.700745374 L1109.73377,0.91566403 L1118.79493,1.2912283 L1127.52867,1.73041902 L1133.17477,2.05845137 L1138.68363,2.41459789 L1144.05853,2.79879289 L1149.30279,3.21097067 L1154.41972,3.65106554 L1159.41262,4.11901178 L1164.2848,4.61474372 L1169.03956,5.13819564 L1173.6802,5.68930186 L1178.21005,6.26799667 L1182.63239,6.87421437 L1186.95055,7.50788926 L1191.16782,8.16895566 L1195.2875,8.85734786 L1199.31292,9.57300016 C1199.97615,9.69454356 1200.63559,9.81722007 1201.2913,9.94102831 L1205.18151,10.6974476 L1208.9857,11.4809627 L1212.70719,12.291508 L1216.34929,13.1290177 L1219.91529,13.9934262 C1220.50347,14.1397322 1221.08861,14.2871563 1221.67079,14.435697 L1225.12886,15.3403305 L1228.5191,16.2716985 L1231.84483,17.2297353 L1235.10934,18.2143752 L1238.31595,19.2255525 L1241.46795,20.2632016 L1244.56867,21.3272567 C1245.08136,21.5067961 1245.59206,21.687433 1246.10082,21.869166 L1249.13079,22.972707 L1252.11773,24.1024897 L1255.06495,25.2584485 L1257.97575,26.4405177 L1260.85344,27.6486316 L1263.70133,28.8827245 L1266.52272,30.1427307 L1269.32091,31.4285845 L1273.48196,33.4056857 L1276.23664,34.755871 Z"/>
    <path fill="url(#logo-flared-logo-b)" d="M1055.41728,9.99638855 L380.617509,9.99638855 L369.620444,10.0551921 L359.004684,10.1728581 C357.845883,10.1894828 356.693915,10.2072994 355.548705,10.2263161 L348.757923,10.354885 L342.125671,10.5126567 L335.648303,10.7000298 L329.322171,10.9174028 L323.14363,11.1651744 L317.109032,11.4437433 L311.214732,11.7535079 L305.457083,12.094867 L299.832438,12.468219 L294.337151,12.8739628 L288.967576,13.3124967 L283.720065,13.7842196 L278.590973,14.2895299 L273.576654,14.8288262 C272.750295,14.9215633 271.928567,15.015733 271.111394,15.1113437 L266.262395,15.7023666 C265.463134,15.8037745 264.668276,15.9066401 263.877744,16.0109716 L259.185861,16.6546178 L254.594165,17.3338445 L250.099008,18.0490504 L245.696744,18.800634 C244.970572,18.9289515 244.248118,19.0588014 243.529307,19.190192 L239.259546,19.9970895 L235.073562,20.8413613 L230.967708,21.723406 C229.61204,22.0237606 228.269119,22.3304772 226.938338,22.6436221 L222.981805,23.6024083 L219.094464,24.6001631 L215.272667,25.6372853 C214.64096,25.8134417 214.011833,25.9912551 213.385208,26.1707337 L209.654891,27.2676542 C209.037975,27.4538268 208.42341,27.6416813 207.811121,27.8312259 L204.164078,28.9888416 C203.560586,29.18518 202.959216,29.383225 202.359895,29.5829852 L198.787923,30.8021929 C198.196486,31.0088465 197.606945,31.2172316 197.019223,31.4273568 L193.514117,32.7090535 C192.933369,32.9261716 192.354288,33.1450464 191.776799,33.365686 L188.330354,34.7107685 L184.918459,36.0986064 L181.537467,37.5295985 L178.183731,39.0041432 L174.853605,40.5226392 L171.543442,42.0854851 L168.249597,43.6930795 L165.382955,45.1315765 L162.482383,46.6212364 L158.189133,48.8844261 C111.042929,74.098492 74.1021034,111.039317 48.8880375,158.185522 L46.6451184,162.439519 L45.1770839,165.296836 L43.7182518,168.202773 L42.1274317,171.461674 C41.8659458,172.006077 41.6062799,172.551154 41.3484263,173.09698 L39.822988,176.381506 L38.3406642,179.687515 L36.9010763,183.018531 L35.5038455,186.378074 L34.1485931,189.769667 L32.8349405,193.19683 C32.619444,193.771184 32.405665,194.347166 32.1935957,194.924851 L30.9416326,198.411973 L29.7303224,201.943469 C29.5318041,202.535945 29.3349639,203.130417 29.1397939,203.726958 L27.9887532,207.331618 L26.8774187,210.989456 L25.8054118,214.703994 C25.6300002,215.328005 25.4562115,215.954524 25.2840378,216.583626 L24.2703121,220.389816 L23.2949672,224.26151 L22.3576244,228.202228 L21.457905,232.215492 L20.5954303,236.304824 L19.7698216,240.473746 L18.9807002,244.725778 C18.8521995,245.441571 18.7252033,246.160974 18.5997038,246.884061 L17.8646033,251.267361 L17.1650434,255.742577 C17.0513907,256.496301 16.9392032,257.254002 16.8284728,258.015753 L16.1815136,262.635443 L15.5691482,267.355851 L14.990998,272.180498 C14.8974698,272.993489 14.8053515,273.810969 14.7146352,274.633013 L14.1870975,279.620623 L13.6928283,284.721276 L13.2314486,289.938494 L12.80258,295.275799 L12.2194067,303.514621 L11.7072529,312.043446 L11.4046412,317.896311 L11.132647,323.88687 L10.8908915,330.018644 L10.6789961,336.295155 L10.4965821,342.719925 L10.3432708,349.296474 L10.2186834,356.028324 L10.0848315,366.424993 L10,377.190898 L10,384.579169 L10,719.996389 C10,1108.19734 321.552059,1423.63141 708.258852,1429.90127 L720,1429.99639 L1059.13275,1429.99639 L1070.02437,1429.94222 L1077.07738,1429.87395 L1083.96804,1429.77772 L1090.69986,1429.65315 L1100.50748,1429.41232 L1106.85761,1429.21525 L1113.06122,1428.98852 L1119.12184,1428.73174 L1125.04297,1428.44456 L1130.82814,1428.12658 L1136.48087,1427.77743 L1142.00468,1427.39673 L1147.40307,1426.98411 L1152.67959,1426.53919 L1157.83773,1426.06159 L1162.88102,1425.55093 L1167.81299,1425.00684 L1172.63714,1424.42894 L1177.35699,1423.81685 L1181.97608,1423.17019 L1186.4979,1422.48859 L1190.92599,1421.77167 L1195.26386,1421.01905 C1195.97952,1420.89062 1196.69156,1420.76069 1197.40007,1420.62924 L1201.60921,1419.82237 L1205.73693,1418.97886 L1209.78675,1418.09833 L1213.76218,1417.1804 C1214.41875,1417.02428 1215.07236,1416.86658 1215.7231,1416.7073 L1219.59356,1415.73257 L1223.39842,1414.71951 L1227.14122,1413.66772 L1230.82547,1412.57685 L1234.45469,1411.4465 C1235.05517,1411.2548 1235.6535,1411.06144 1236.24976,1410.86641 L1239.80303,1409.67615 L1243.31007,1408.44547 L1246.77439,1407.17401 C1247.34841,1406.95868 1247.9208,1406.74163 1248.49163,1406.52286 L1251.89847,1405.1895 C1252.46335,1404.96381 1253.02682,1404.73637 1253.58895,1404.50719 L1256.94624,1403.11109 C1257.5033,1402.87489 1258.05917,1402.63693 1258.61392,1402.3972 L1261.92957,1400.9375 C1262.48013,1400.69065 1263.02972,1400.44202 1263.57841,1400.1916 L1266.86033,1398.66746 L1270.12417,1397.09989 L1271.7504,1396.2997 L1274.61704,1394.8612 L1277.51762,1393.37154 L1281.81087,1391.10835 C1328.95707,1365.89429 1365.8979,1328.95346 1391.11196,1281.80726 L1393.35488,1277.55326 L1394.82292,1274.69594 L1396.28175,1271.79 L1397.87257,1268.5311 C1398.13405,1267.9867 1398.39372,1267.44162 1398.65157,1266.8958 L1400.17701,1263.61127 L1401.65934,1260.30526 L1403.09892,1256.97425 L1404.49615,1253.6147 L1405.85141,1250.22311 L1407.16506,1246.79595 C1407.38056,1246.22159 1407.59434,1245.64561 1407.8064,1245.06793 L1409.05837,1241.5808 L1410.26968,1238.04931 C1410.4682,1237.45683 1410.66504,1236.86236 1410.86021,1236.26582 L1412.01125,1232.66116 L1413.12258,1229.00332 L1414.19459,1225.28878 C1414.37,1224.66477 1414.54379,1224.03825 1414.71596,1223.40915 L1415.72969,1219.60296 L1416.70503,1215.73127 L1417.64238,1211.79055 L1418.5421,1207.77729 L1419.40457,1203.68795 L1420.23018,1199.51903 L1421.0193,1195.267 C1421.1478,1194.55121 1421.2748,1193.8318 1421.4003,1193.10872 L1422.1354,1188.72542 L1422.83496,1184.2502 C1422.94861,1183.49648 1423.0608,1182.73877 1423.17153,1181.97702 L1423.81849,1177.35733 L1424.43085,1172.63693 L1425.009,1167.81228 C1425.10253,1166.99929 1425.19465,1166.18181 1425.28536,1165.35976 L1425.8129,1160.37215 L1426.30717,1155.2715 L1426.76855,1150.05428 L1427.19742,1144.71698 L1427.78059,1136.47816 L1428.29275,1127.94933 L1428.59536,1122.09647 L1428.86735,1116.10591 L1429.10911,1109.97413 L1429.321,1103.69762 L1429.50342,1097.27285 L1429.65673,1090.6963 L1429.78132,1083.96445 L1429.91517,1073.56778 L1430,1062.80188 L1430,1055.41361 L1430,380.86364 L1429.94584,369.972018 L1429.87756,362.91901 L1429.78133,356.028353 L1429.65676,349.296531 L1429.41594,339.488914 L1429.21886,333.138781 L1428.99213,326.935167 L1428.73536,320.874552 L1428.44817,314.953418 L1428.13019,309.168246 L1427.78104,303.515517 L1427.40034,297.991713 L1426.98772,292.593314 L1426.5428,287.316803 L1426.0652,282.15866 L1425.55454,277.115366 L1425.01045,272.183403 L1424.43255,267.359252 L1423.82046,262.639395 L1423.1738,258.020312 L1422.4922,253.498485 L1421.77528,249.070395 L1421.02267,244.732524 C1420.89423,244.016868 1420.7643,243.304825 1420.63285,242.59632 L1419.82598,238.387179 L1418.98247,234.259459 L1418.10194,230.209642 L1417.18401,226.234209 C1417.02789,225.57764 1416.87019,224.924024 1416.71091,224.273287 L1415.73618,220.402832 L1414.72312,216.597965 L1413.67133,212.855166 L1412.58046,209.170917 L1411.45011,205.541698 C1411.25841,204.941219 1411.06505,204.342886 1410.87002,203.746626 L1409.67976,200.193357 L1408.44909,196.686322 L1407.17762,193.222002 C1406.96229,192.64798 1406.74524,192.07559 1406.52647,191.504761 L1405.19311,188.097917 C1404.96742,187.533034 1404.73998,186.969564 1404.5108,186.407434 L1403.1147,183.050148 C1402.8785,182.493085 1402.64054,181.937215 1402.40081,181.382465 L1400.94111,178.066821 C1400.69427,177.516258 1400.44564,176.966668 1400.19521,176.417979 L1398.67107,173.136058 L1397.1035,169.872222 L1396.30331,168.245986 L1394.86481,165.379344 L1393.37515,162.478772 L1391.11196,158.185522 C1365.8979,111.039317 1328.95707,74.098492 1281.81087,48.8844261 L1277.55687,46.641507 L1274.69955,45.1734724 L1271.7504,43.6930795 L1270.16597,42.9137463 C1269.07972,42.3834782 1267.99106,41.8605221 1266.89941,41.3448148 L1263.61488,39.8193765 L1260.30887,38.3370528 L1256.97786,36.8974649 L1253.61831,35.500234 L1250.22672,34.1449817 L1246.79956,32.831329 C1246.22521,32.6158325 1245.64922,32.4020535 1245.07154,32.1899842 L1241.58442,30.9380211 L1238.05292,29.726711 C1237.46044,29.5281927 1236.86597,29.3313525 1236.26943,29.1361824 L1232.66477,27.9851417 L1229.00693,26.8738072 L1225.2924,25.8018003 C1224.66839,25.6263887 1224.04187,25.4526 1223.41276,25.2804263 L1219.60657,24.2667006 L1215.73488,23.2913557 L1211.79416,22.3540129 L1207.7809,21.4542935 L1203.69157,20.5918188 L1199.52265,19.7662101 L1195.27062,18.9770887 C1194.55482,18.848588 1193.83542,18.7215919 1193.11233,18.5960924 L1188.72903,17.8609919 L1184.25382,17.1614319 C1183.5001,17.0477793 1182.7424,16.9355917 1181.98064,16.8248613 L1177.36096,16.1779021 L1172.64055,15.5655368 L1167.8159,14.9873865 C1167.00291,14.8938584 1166.18543,14.8017401 1165.36339,14.7110237 L1160.37578,14.1834861 L1155.27513,13.6892168 L1150.05791,13.2278372 L1144.72061,12.7989686 L1136.48179,12.2157953 L1127.95297,11.7036415 L1122.10011,11.4010298 L1116.10955,11.1290355 L1109.97778,10.88728 L1103.70127,10.6753846 L1097.2765,10.4929706 L1090.69996,10.3396593 L1083.96811,10.215072 L1073.57145,10.08122 L1062.80555,9.99638855 L1055.41728,9.99638855 Z"/>
    <path fill="#FFF" d="M480,419.996389 C513.137085,419.996389 540,446.859304 540,479.996389 L540,779.996389 C540,846.270559 593.72583,899.996389 660,899.996389 L960,899.996389 C993.137085,899.996389 1020,926.859304 1020,959.996389 C1020,993.133474 993.137085,1019.99639 960,1019.99639 L660,1019.99639 C527.45166,1019.99639 420,912.544729 420,779.996389 L420,479.996389 C420,446.859304 446.862915,419.996389 480,419.996389 Z M900,659.996389 C933.137085,659.996389 960,686.859304 960,719.996389 C960,753.133474 933.137085,779.996389 900,779.996389 L720,779.996389 C686.862915,779.996389 660,753.133474 660,719.996389 C660,686.859304 686.862915,659.996389 720,659.996389 L900,659.996389 Z M960,419.996389 C993.137085,419.996389 1020,446.859304 1020,479.996389 C1020,513.133474 993.137085,539.996389 960,539.996389 L720,539.996389 C686.862915,539.996389 660,513.133474 660,479.996389 C660,446.859304 686.862915,419.996389 720,419.996389 L960,419.996389 Z"/>
  </g>
</svg>
