<svg xmlns="http://www.w3.org/2000/svg" width="130.458" height="130.178" preserveAspectRatio="xMidYMid" version="1.0" viewBox="0 0 97.843 97.633"><path d="M17.457.62c-7.5 1.4-11.6 4.4-15.1 11.1-2.2 4.5-3.2 32.5-1.5 44 3.1 20.7 19.7 37.6 40.3 41 4.3.8 13.6 1.1 24.2.8 21.1-.5 25-2 29.9-11.3 2-3.7 2.2-5.8 2.5-31.5.5-40.4-.9-46.9-11.5-52.1-4.7-2.3-5.5-2.4-34.8-2.6-16.5-.1-31.8.2-34 .6zm17.9 28.7c1.3 1.2 1.6 4 1.6 14 0 11.9.1 12.6 2.5 14.9 2.3 2.4 3 2.5 14.7 2.5 6.8 0 12.8.4 13.4.8 2.2 1.5 2.4 4.2.3 6.3-2 2-3 2.1-14.8 1.7-21.2-.7-25-4.7-25.1-26.6 0-9.9.2-11.4 2-13.2 2.4-2.4 3.4-2.5 5.4-.4zm32.6.4c2 2 1.8 4.7-.4 6.2-1.9 1.3-20.1.9-21.4-.4-1.8-1.8-1.5-5.5.6-6.7.9-.6 5.6-1.1 10.5-1.1 7.4 0 9 .3 10.7 2zm-3.5 19v3.5l-8.3.3c-8.7.3-11.2-.5-11.2-3.7 0-3.4 2.2-4.2 11-3.9l8.5.3z"/></svg>