<?xml version="1.0" encoding="UTF-8" standalone="no"?>
<svg
   version="1.0"
   width="97.843399pt"
   height="97.633492pt"
   viewBox="0 0 97.843399 97.633492"
   preserveAspectRatio="xMidYMid"
   id="svg403"
   sodipodi:docname="lemlist.svg"
   inkscape:version="1.2.1 (9c6d41e410, 2022-07-14, custom)"
   xmlns:inkscape="http://www.inkscape.org/namespaces/inkscape"
   xmlns:sodipodi="http://sodipodi.sourceforge.net/DTD/sodipodi-0.dtd"
   xmlns="http://www.w3.org/2000/svg"
   xmlns:svg="http://www.w3.org/2000/svg">
  <defs
     id="defs407" />
  <sodipodi:namedview
     id="namedview405"
     pagecolor="#ffffff"
     bordercolor="#666666"
     borderopacity="1.0"
     inkscape:showpageshadow="2"
     inkscape:pageopacity="0.0"
     inkscape:pagecheckerboard="0"
     inkscape:deskcolor="#d1d1d1"
     inkscape:document-units="pt"
     showgrid="false"
     inkscape:zoom="3.4386161"
     inkscape:cx="65.142486"
     inkscape:cy="64.851672"
     inkscape:window-width="3840"
     inkscape:window-height="2083"
     inkscape:window-x="0"
     inkscape:window-y="40"
     inkscape:window-maximized="1"
     inkscape:current-layer="svg403" />
  <g
     transform="matrix(0.1,0,0,-0.1,-63.042924,160.71938)"
     fill="#000000"
     stroke="none"
     id="g401">
    <path
       d="m 805,1601 c -75,-14 -116,-44 -151,-111 -22,-45 -32,-325 -15,-440 31,-207 197,-376 403,-410 43,-8 136,-11 242,-8 211,5 250,20 299,113 20,37 22,58 25,315 5,404 -9,469 -115,521 -47,23 -55,24 -348,26 -165,1 -318,-2 -340,-6 z m 179,-287 c 13,-12 16,-40 16,-140 0,-119 1,-126 25,-149 23,-24 30,-25 147,-25 68,0 128,-4 134,-8 22,-15 24,-42 3,-63 -20,-20 -30,-21 -148,-17 -212,7 -250,47 -251,266 0,99 2,114 20,132 24,24 34,25 54,4 z m 326,-4 c 20,-20 18,-47 -4,-62 -19,-13 -201,-9 -214,4 -18,18 -15,55 6,67 9,6 56,11 105,11 74,0 90,-3 107,-20 z m -35,-190 v -35 l -83,-3 c -87,-3 -112,5 -112,37 0,34 22,42 110,39 l 85,-3 z"
       id="path399" />
  </g>
</svg>
