<svg xmlns="http://www.w3.org/2000/svg" width="250" height="250" fill="none"><g clip-path="url(#a)"><path fill="#000" d="M62.613 30.224c-14.87 2.768-23 8.698-29.94 21.943-4.362 8.895-6.344 64.245-2.974 86.978 6.147 40.919 39.06 74.327 79.906 81.048 8.525 1.581 26.965 2.174 47.982 1.581 41.837-.988 49.569-3.953 59.285-22.337 3.965-7.314 4.362-11.466 4.957-62.269.991-79.862-1.785-92.71-22.802-102.99-9.319-4.547-10.905-4.744-69-5.14-32.715-.197-63.052.396-67.414 1.186Zm35.492 56.734c2.577 2.372 3.172 7.907 3.172 27.675 0 23.524.198 24.907 4.957 29.454 4.56 4.744 5.948 4.942 29.146 4.942 13.483 0 25.38.791 26.569 1.581 4.363 2.965 4.759 8.303.595 12.454-3.965 3.954-5.948 4.151-29.345 3.361-42.034-1.384-49.569-9.291-49.767-52.583 0-19.57.397-22.535 3.966-26.093 4.758-4.745 6.741-4.942 10.707-.791Zm64.638.79c3.965 3.954 3.569 9.292-.794 12.257-3.767 2.57-39.853 1.779-42.431-.791-3.569-3.558-2.974-10.872 1.19-13.244 1.785-1.186 11.104-2.175 20.819-2.175 14.672 0 17.845.593 21.216 3.954Zm-6.94 37.56v6.918l-16.457.593c-17.25.593-22.207-.988-22.207-7.314 0-6.721 4.362-8.302 21.81-7.709l16.854.593v6.919Z"/></g><defs><clipPath id="a"><path fill="#fff" d="M28 29h194v193H28z"/></clipPath></defs></svg>