<?xml version="1.0" encoding="UTF-8" standalone="no"?>
<svg
   id="svg"
   version="1.1"
   width="98.680916"
   height="98.923431"
   viewBox="0 0 98.680916 98.923434"
   sodipodi:docname="leverhiring.svg"
   inkscape:version="1.2.1 (9c6d41e410, 2022-07-14, custom)"
   xmlns:inkscape="http://www.inkscape.org/namespaces/inkscape"
   xmlns:sodipodi="http://sodipodi.sourceforge.net/DTD/sodipodi-0.dtd"
   xmlns="http://www.w3.org/2000/svg"
   xmlns:svg="http://www.w3.org/2000/svg">
  <defs
     id="defs435" />
  <sodipodi:namedview
     id="namedview433"
     pagecolor="#ffffff"
     bordercolor="#666666"
     borderopacity="1.0"
     inkscape:showpageshadow="2"
     inkscape:pageopacity="0.0"
     inkscape:pagecheckerboard="0"
     inkscape:deskcolor="#d1d1d1"
     showgrid="false"
     inkscape:zoom="3.3925"
     inkscape:cx="199.55785"
     inkscape:cy="49.226234"
     inkscape:window-width="3840"
     inkscape:window-height="2083"
     inkscape:window-x="0"
     inkscape:window-y="40"
     inkscape:window-maximized="1"
     inkscape:current-layer="svg" />
  <path
     id="path1"
     d="m 69.646773,0.22008526 c -1.83,0.448 -2.217,0.78600004 -10.442,9.12300004 -4.33,4.3879997 -9.411,9.5359997 -11.29,11.4389997 -1.879,1.903 -7.316,7.423 -12.083,12.268 -4.767,4.844 -10.204,10.365 -12.083,12.269 -1.88,1.904 -5.517,5.591 -8.084,8.195 -2.566,2.604 -6.735,6.829 -9.262,9.389 -2.528,2.56 -4.731,4.918 -4.897,5.239 -1.607,3.122 -1.503,1.99 -1.50500000079,16.416 -0.001999999,13.486 0.0290000008,14.023 0.83100000079,13.994 0.092,-0.003 2.942,-2.815 6.333,-6.25 10.795,-10.931 19.476,-19.723 26.245,-26.58 3.619,-3.665 9.432,-9.551 12.919,-13.08 3.487,-3.53 9.299,-9.417 12.915,-13.084 3.617,-3.666 9.577,-9.704 13.246,-13.416 23.514,-23.7979997 20.725,-20.8749997 20.32,-21.2939997 -0.582,-0.602 -1.973,-1.178 -3.686,-1.526 -0.94,-0.191 -2.477,-0.501 -3.417,-0.689 -1.617,-0.324 -2.324,-0.468 -6.417,-1.307 -1.575,-0.324 -3.64,-0.73900004 -5.846,-1.17500004 -1.136,-0.225 -2.712,-0.196 -3.797,0.069 m 2.517,77.13699974 c -0.367,0.203 -0.823,0.518 -1.013,0.701 -0.19,0.184 -0.714,0.675 -1.165,1.092 -1.136,1.05 -5.78,5.364 -6.786,6.303 -0.455,0.424 -1.18,1.109 -1.612,1.522 -0.431,0.412 -1.153,1.091 -1.603,1.509 -1.685,1.56 -5.985,5.556 -6.722,6.246 -0.42,0.394 -1.033,0.966 -1.362,1.272 -1.081,1.006 -1.177,2.115 -0.215,2.481 0.786,0.299 43.988,0.206 44.571,-0.096 1.344,-0.695 0.893,-1.306 -4.925,-6.673 -1.375,-1.268 -2.875,-2.66 -3.333,-3.094 -0.459,-0.433 -1.096,-1.03 -1.417,-1.326 -0.321,-0.296 -1.071,-0.998 -1.667,-1.561 -0.596,-0.562 -2.096,-1.956 -3.333,-3.096 -2.626,-2.42 -3.819,-3.531 -4.622,-4.301 -1.431,-1.372 -3.364,-1.767 -4.796,-0.979"
     stroke="none"
     fill="#acacac"
     fill-rule="evenodd" />
  <path
     id="path2"
     d="m 92.040773,6.3250853 c -0.598,0.65 -3.93,4.0439997 -7.403,7.5409997 -3.474,3.497 -12.085,12.209 -19.137,19.359 -7.051,7.15 -15.676,15.887 -19.167,19.417 -3.49,3.529 -9.305,9.415 -12.924,13.08 -15.84,16.045 -20.285,20.543 -26.222,26.532 -4.1,4.135 -6.264,6.433 -6.183,6.565 0.12,0.194 22.793,0.094 24.41,-0.108 1.661,-0.207 2.724,-0.512 4.086,-1.171 1.713,-0.83 -0.115,0.901 19.112,-18.102 5.93,-5.861 11.855,-11.707 13.167,-12.991 1.312,-1.285 6.909,-6.81 12.438,-12.279 25.087,-24.812 23.531,-23.185 24.095,-25.193 0.43,-1.53 0.472,-2.352 0.185,-3.675 -0.148,-0.683 -0.33,-1.617 -0.405,-2.075 -0.075,-0.458 -0.264,-1.433 -0.421,-2.167 -0.454,-2.126 -0.884,-4.199 -1.263,-6.083 -0.194,-0.963 -0.497,-2.425 -0.674,-3.25 -0.177,-0.825 -0.321,-1.638 -0.321,-1.8059997 0.005,-1.188 -0.956,-3.379 -1.929,-4.402 l -0.357,-0.375 -1.087,1.183"
     stroke="none"
     fill="#dbdbdb"
     fill-rule="evenodd" />
  <path
     id="path4"
     d=""
     stroke="none"
     fill="#a878c8"
     fill-rule="evenodd" />
</svg>
