<svg xmlns="http://www.w3.org/2000/svg" width="250" height="250" fill="none"><path fill="#C3C6CC" d="m218.219 209.997-35.769-35.774a6.043 6.043 0 0 0-8.461 0l-35.768 35.774a5.8 5.8 0 0 0-1.341 6.46 5.814 5.814 0 0 0 2.232 2.638 5.81 5.81 0 0 0 3.336.901h71.543a5.835 5.835 0 0 0 4.228-9.999Z"/><path fill="#E1E3E6" d="M219.404 81.509 208.2 48.247a11.693 11.693 0 0 0-2.369-4.073L31.359 218.636a5.35 5.35 0 0 0 3.735 1.36H84.65a10.518 10.518 0 0 0 7.47-3.058L217.028 92.03a10.024 10.024 0 0 0 2.375-10.521Z"/><path fill="#C3C6CC" d="m201.755 41.792-33.263-11.198a10.024 10.024 0 0 0-10.521 2.375L33.055 157.877a10.57 10.57 0 0 0-3.052 7.469v49.555a5.347 5.347 0 0 0 1.36 3.735l174.47-174.462a11.778 11.778 0 0 0-4.079-2.382Z"/></svg>