<svg width="250" height="250" viewBox="0 0 250 250" fill="none" xmlns="http://www.w3.org/2000/svg">
<path d="M189.763 184.05L164.913 159.197C164.128 158.428 163.073 157.997 161.974 157.997C160.875 157.997 159.82 158.428 159.035 159.197L134.185 184.05C133.593 184.615 133.186 185.347 133.02 186.149C132.853 186.951 132.935 187.784 133.254 188.538C133.573 189.293 134.114 189.932 134.805 190.371C135.496 190.81 136.304 191.029 137.122 190.997H186.826C187.639 191.017 188.44 190.792 189.124 190.351C189.808 189.91 190.343 189.273 190.66 188.524C190.977 187.774 191.06 186.947 190.9 186.149C190.74 185.351 190.344 184.62 189.763 184.05Z" fill="#C3C6CC"/>
<path d="M190.587 94.7851L182.803 71.6767C182.452 70.6316 181.892 69.6689 181.157 68.8469L59.9453 190.052C60.6567 190.689 61.5858 191.027 62.54 190.997H96.9681C97.9303 191.002 98.884 190.817 99.7745 190.452C100.665 190.087 101.475 189.551 102.157 188.873L188.937 102.095C189.88 101.16 190.537 99.9757 190.829 98.6807C191.121 97.3856 191.037 96.034 190.587 94.7851V94.7851Z" fill="#E1E3E6"/>
<path d="M178.324 67.1926L155.216 59.4128C153.967 58.9625 152.615 58.8786 151.32 59.1709C150.025 59.4633 148.84 60.1197 147.906 61.0628L61.1222 147.841C59.757 149.222 58.9946 151.088 59.0019 153.03V187.457C58.9716 188.412 59.3099 189.341 59.9465 190.052L181.158 68.8469C180.335 68.1097 179.371 67.5469 178.324 67.1926V67.1926Z" fill="#C3C6CC"/>
</svg>
