<svg xmlns="http://www.w3.org/2000/svg" width="98.681" height="98.923"><path fill="#acacac" fill-rule="evenodd" d="M69.647.22c-1.83.448-2.217.786-10.442 9.123l-11.29 11.44c-1.88 1.902-7.316 7.422-12.083 12.267a18071.991 18071.991 0 0 1-20.167 20.464 18489.13 18489.13 0 0 1-9.262 9.39c-2.528 2.56-4.731 4.917-4.897 5.238C-.101 71.264.003 70.132 0 84.558-.001 98.044.03 98.581.83 98.552c.093-.003 2.943-2.815 6.334-6.25C17.96 81.372 26.64 72.58 33.41 65.722l12.919-13.08c3.487-3.53 9.299-9.417 12.915-13.084 3.617-3.666 9.577-9.704 13.246-13.416C96.004 2.344 93.215 5.267 92.81 4.848c-.582-.602-1.973-1.178-3.686-1.526l-3.417-.689c-1.617-.324-2.324-.468-6.417-1.307-1.575-.324-3.64-.739-5.846-1.175-1.136-.225-2.712-.196-3.797.07m2.517 77.136c-.367.203-.823.518-1.013.701-.19.184-.714.675-1.165 1.092-1.136 1.05-5.78 5.364-6.786 6.303-.455.424-1.18 1.11-1.612 1.522-.431.412-1.153 1.091-1.603 1.51a3485.561 3485.561 0 0 0-8.084 7.517c-1.081 1.006-1.177 2.115-.215 2.481.786.3 43.988.206 44.57-.096 1.345-.695.894-1.306-4.924-6.673a522.683 522.683 0 0 1-3.333-3.094c-.46-.433-1.096-1.03-1.417-1.326-.321-.296-1.071-.998-1.667-1.56a529.513 529.513 0 0 0-3.333-3.097c-2.626-2.42-3.82-3.53-4.622-4.3-1.431-1.373-3.364-1.768-4.796-.98"/><path fill="#dbdbdb" fill-rule="evenodd" d="M92.04 6.325c-.597.65-3.93 4.044-7.402 7.541A10281.719 10281.719 0 0 0 65.5 33.226c-7.051 7.15-15.676 15.886-19.167 19.416-3.49 3.53-9.305 9.415-12.924 13.08C17.57 81.767 13.125 86.265 7.188 92.254c-4.1 4.135-6.264 6.433-6.183 6.565.12.194 22.793.094 24.41-.108 1.66-.207 2.724-.512 4.086-1.17 1.713-.83-.115.9 19.112-18.103a7192.089 7192.089 0 0 1 13.167-12.99c1.312-1.286 6.909-6.81 12.438-12.28 25.087-24.812 23.53-23.185 24.095-25.193.43-1.53.472-2.352.185-3.675a51.836 51.836 0 0 1-.405-2.075 57.76 57.76 0 0 0-.421-2.167 530.351 530.351 0 0 1-1.263-6.083c-.194-.963-.497-2.425-.674-3.25-.177-.825-.321-1.638-.321-1.806.005-1.188-.956-3.379-1.93-4.402l-.356-.375-1.087 1.183"/></svg>