<?xml version="1.0" standalone="yes"?>
<svg xmlns="http://www.w3.org/2000/svg" width="224" height="224">
<path style="fill:#272935; stroke:none;" d="M0 0L0 224L224 224L224 0L0 0z"/>
<path style="fill:#45454e; stroke:none;" d="M132 49L133 50L132 49M128 50L129 51L128 50M135 50L136 51L135 50z"/>
<path style="fill:#bcbcc1; stroke:none;" d="M134 51L134 52L139 51L134 51z"/>
<path style="fill:#6c6c74; stroke:none;" d="M139 50L140 51L139 50z"/>
<path style="fill:#45454e; stroke:none;" d="M140 50L141 51L140 50M131 51L132 52L131 51z"/>
<path style="fill:#f5f5f6; stroke:none;" d="M51 172C61.6871 166.829 70.6683 154.332 79 146L134 91C143.397 81.6026 158.362 71.0891 164 59C156.522 56.5666 143.943 49.3889 136.09 51.5872C128.38 53.7452 120.543 65.4744 115 70.9992L71 115C65.071 120.929 54.7884 128.026 51.7423 136C48.0139 145.76 51 161.582 51 172z"/>
<path style="fill:#bcbcc1; stroke:none;" d="M141 51L142 52L141 51z"/>
<path style="fill:#6c6c74; stroke:none;" d="M142 51L143 52L142 51z"/>
<path style="fill:#45454e; stroke:none;" d="M143 51L144 52L143 51M132 52L133 53L132 52z"/>
<path style="fill:#bcbcc1; stroke:none;" d="M144 52L145 53L144 52z"/>
<path style="fill:#6c6c74; stroke:none;" d="M145 52L146 53L145 52z"/>
<path style="fill:#45454e; stroke:none;" d="M146 52L147 53L146 52z"/>
<path style="fill:#bcbcc1; stroke:none;" d="M132 53L133 54L132 53M147 53L148 54L147 53z"/>
<path style="fill:#6c6c74; stroke:none;" d="M148 53L149 54L148 53z"/>
<path style="fill:#45454e; stroke:none;" d="M149 53L150 54L149 53z"/>
<path style="fill:#bcbcc1; stroke:none;" d="M131 54L132 55L131 54M150 54L151 55L150 54z"/>
<path style="fill:#6c6c74; stroke:none;" d="M151 54L152 55L151 54z"/>
<path style="fill:#45454e; stroke:none;" d="M152 54L153 55L152 54z"/>
<path style="fill:#bcbcc1; stroke:none;" d="M130 55L131 56L130 55M153 55L154 56L153 55z"/>
<path style="fill:#6c6c74; stroke:none;" d="M154 55L155 56L154 55z"/>
<path style="fill:#45454e; stroke:none;" d="M128 56L126 59L128 56z"/>
<path style="fill:#bcbcc1; stroke:none;" d="M129 56L130 57L129 56M156 56L157 57L156 56z"/>
<path style="fill:#6c6c74; stroke:none;" d="M157 56L158 57L157 56z"/>
<path style="fill:#45454e; stroke:none;" d="M158 56L159 57L158 56M163 56L164 57L163 56M166 56L167 57L166 56M124 57L123 59L124 57z"/>
<path style="fill:#bcbcc1; stroke:none;" d="M128 57L129 58L128 57M159 57L160 58L159 57z"/>
<path style="fill:#6c6c74; stroke:none;" d="M160 57L161 58L160 57z"/>
<path style="fill:#45454e; stroke:none;" d="M161 57L162 58L161 57M164 57L165 58L164 57z"/>
<path style="fill:#bcbcc1; stroke:none;" d="M127 58L128 59L127 58M162 58L163 59L162 58z"/>
<path style="fill:#6c6c74; stroke:none;" d="M163 58L164 59L163 58z"/>
<path style="fill:#bcbcc1; stroke:none;" d="M126 59L127 60L126 59z"/>
<path style="fill:#45454e; stroke:none;" d="M164 59L166 61L164 59M124 60L122 63L124 60z"/>
<path style="fill:#bcbcc1; stroke:none;" d="M125 60L126 61L125 60M164 60L90 134L51 172L51 173C61.8013 173 78.855 176.264 88.9105 172.262C96.5202 169.233 104.428 158.192 110.039 152.251C123.169 138.35 136.864 124.804 150.711 111.615C157.02 105.606 169.085 96.9711 172.272 88.8295C174.951 81.9849 168.337 65.4266 164 60z"/>
<path style="fill:#45454e; stroke:none;" d="M120 61L121 62L120 61z"/>
<path style="fill:#bcbcc1; stroke:none;" d="M124 61L125 62L124 61z"/>
<path style="fill:#6c6c74; stroke:none;" d="M165 61L166 62L165 61z"/>
<path style="fill:#bcbcc1; stroke:none;" d="M123 62L124 63L123 62z"/>
<path style="fill:#45454e; stroke:none;" d="M166 62L167 63L166 62z"/>
<path style="fill:#bcbcc1; stroke:none;" d="M122 63L123 64L122 63z"/>
<path style="fill:#6c6c74; stroke:none;" d="M166 63L167 64L166 63z"/>
<path style="fill:#45454e; stroke:none;" d="M120 64L121 65L120 64z"/>
<path style="fill:#bcbcc1; stroke:none;" d="M121 64L122 65L121 64z"/>
<path style="fill:#45454e; stroke:none;" d="M114 65L113 67L114 65z"/>
<path style="fill:#bcbcc1; stroke:none;" d="M120 65L121 66L120 65z"/>
<path style="fill:#45454e; stroke:none;" d="M167 65L168 66L167 65z"/>
<path style="fill:#bcbcc1; stroke:none;" d="M119 66L120 67L119 66z"/>
<path style="fill:#6c6c74; stroke:none;" d="M167.333 66.6667L167.667 67.3333L167.333 66.6667z"/>
<path style="fill:#bcbcc1; stroke:none;" d="M118 67L119 68L118 67M117 68L118 69L117 68M116 69L117 70L116 69z"/>
<path style="fill:#6c6c74; stroke:none;" d="M168 69L169 70L168 69z"/>
<path style="fill:#bcbcc1; stroke:none;" d="M115 70L116 71L115 70z"/>
<path style="fill:#45454e; stroke:none;" d="M113 71L112 73L113 71z"/>
<path style="fill:#bcbcc1; stroke:none;" d="M114 71L115 72L114 71M113 72L114 73L113 72z"/>
<path style="fill:#6c6c74; stroke:none;" d="M169.333 72.6667L169.667 73.3333L169.333 72.6667z"/>
<path style="fill:#45454e; stroke:none;" d="M110 73L111 74L110 73z"/>
<path style="fill:#bcbcc1; stroke:none;" d="M112 73L113 74L112 73M111 74L112 75L111 74z"/>
<path style="fill:#45454e; stroke:none;" d="M170 74L171 75L170 74z"/>
<path style="fill:#bcbcc1; stroke:none;" d="M110 75L111 76L110 75z"/>
<path style="fill:#6c6c74; stroke:none;" d="M170 75L171 76L170 75z"/>
<path style="fill:#bcbcc1; stroke:none;" d="M109 76L110 77L109 76M108 77L109 78L108 77z"/>
<path style="fill:#45454e; stroke:none;" d="M171 77L172 78L171 77z"/>
<path style="fill:#6c6c74; stroke:none;" d="M171.333 78.6667L171.667 79.3333L171.333 78.6667z"/>
<path style="fill:#bcbcc1; stroke:none;" d="M106 79L107 80L106 79z"/>
<path style="fill:#45454e; stroke:none;" d="M104 80L102 83L104 80z"/>
<path style="fill:#bcbcc1; stroke:none;" d="M105 80L106 81L105 80z"/>
<path style="fill:#45454e; stroke:none;" d="M98 81L100 83L98 81z"/>
<path style="fill:#bcbcc1; stroke:none;" d="M104 81L105 82L104 81z"/>
<path style="fill:#6c6c74; stroke:none;" d="M172 81L173 82L172 81z"/>
<path style="fill:#bcbcc1; stroke:none;" d="M103 82L104 83L103 82M102 83L103 84L102 83z"/>
<path style="fill:#45454e; stroke:none;" d="M173 83L174 84L173 83z"/>
<path style="fill:#bcbcc1; stroke:none;" d="M101 84L102 85L101 84z"/>
<path style="fill:#6c6c74; stroke:none;" d="M173 84L173 88L174 88L173 84z"/>
<path style="fill:#bcbcc1; stroke:none;" d="M100 85L101 86L100 85z"/>
<path style="fill:#45454e; stroke:none;" d="M98 86L99 87L98 86z"/>
<path style="fill:#bcbcc1; stroke:none;" d="M99 86L100 87L99 86M98 87L99 88L98 87z"/>
<path style="fill:#45454e; stroke:none;" d="M91 88L91 91L92 91L91 88M96 88L94 91L96 88z"/>
<path style="fill:#bcbcc1; stroke:none;" d="M97 88L98 89L97 88M96 89L97 90L96 89z"/>
<path style="fill:#6c6c74; stroke:none;" d="M172 89L173 90L172 89z"/>
<path style="fill:#45454e; stroke:none;" d="M174 89L175 90L174 89z"/>
<path style="fill:#bcbcc1; stroke:none;" d="M95 90L96 91L95 90M94 91L95 92L94 91z"/>
<path style="fill:#6c6c74; stroke:none;" d="M170 91L171 92L170 91z"/>
<path style="fill:#45454e; stroke:none;" d="M92 92L90 95L92 92z"/>
<path style="fill:#bcbcc1; stroke:none;" d="M93 92L94 93L93 92z"/>
<path style="fill:#6c6c74; stroke:none;" d="M169 92L170 93L169 92z"/>
<path style="fill:#bcbcc1; stroke:none;" d="M92 93L93 94L92 93M91 94L92 95L91 94z"/>
<path style="fill:#45454e; stroke:none;" d="M171 94L172 95L171 94M174 94L175 95L174 94z"/>
<path style="fill:#bcbcc1; stroke:none;" d="M90 95L91 96L90 95z"/>
<path style="fill:#6c6c74; stroke:none;" d="M166 95L167 96L166 95z"/>
<path style="fill:#45454e; stroke:none;" d="M167 95L168 96L167 95M88 96L89 97L88 96z"/>
<path style="fill:#bcbcc1; stroke:none;" d="M89 96L90 97L89 96z"/>
<path style="fill:#6c6c74; stroke:none;" d="M165 96L163 99L165 96z"/>
<path style="fill:#45454e; stroke:none;" d="M82 97L81 99L82 97z"/>
<path style="fill:#bcbcc1; stroke:none;" d="M88 97L89 98L88 97z"/>
<path style="fill:#45454e; stroke:none;" d="M165 97L166 98L165 97z"/>
<path style="fill:#bcbcc1; stroke:none;" d="M87 98L88 99L87 98z"/>
<path style="fill:#45454e; stroke:none;" d="M164 98L165 99L164 98z"/>
<path style="fill:#bcbcc1; stroke:none;" d="M86 99L87 100L86 99z"/>
<path style="fill:#45454e; stroke:none;" d="M163 99L164 100L163 99z"/>
<path style="fill:#bcbcc1; stroke:none;" d="M85 100L86 101L85 100z"/>
<path style="fill:#6c6c74; stroke:none;" d="M161 100L160 102L161 100z"/>
<path style="fill:#45454e; stroke:none;" d="M162 100L163 101L162 100z"/>
<path style="fill:#bcbcc1; stroke:none;" d="M84 101L85 102L84 101z"/>
<path style="fill:#45454e; stroke:none;" d="M161 101L162 102L161 101M82 102L80 105L82 102z"/>
<path style="fill:#bcbcc1; stroke:none;" d="M83 102L84 103L83 102M82 103L83 104L82 103M81 104L82 105L81 104z"/>
<path style="fill:#6c6c74; stroke:none;" d="M157 104L158 105L157 104z"/>
<path style="fill:#bcbcc1; stroke:none;" d="M80 105L81 106L80 105z"/>
<path style="fill:#6c6c74; stroke:none;" d="M156 105L157 106L156 105z"/>
<path style="fill:#bcbcc1; stroke:none;" d="M79 106L80 107L79 106M78 107L79 108L78 107M77 108L78 109L77 108z"/>
<path style="fill:#6c6c74; stroke:none;" d="M153 108L154 109L153 108z"/>
<path style="fill:#bcbcc1; stroke:none;" d="M76 109L77 110L76 109z"/>
<path style="fill:#6c6c74; stroke:none;" d="M152 109L153 110L152 109z"/>
<path style="fill:#bcbcc1; stroke:none;" d="M75 110L76 111L75 110z"/>
<path style="fill:#45454e; stroke:none;" d="M155 110L156 111L155 110z"/>
<path style="fill:#bcbcc1; stroke:none;" d="M74 111L75 112L74 111z"/>
<path style="fill:#45454e; stroke:none;" d="M72 112L73 113L72 112z"/>
<path style="fill:#bcbcc1; stroke:none;" d="M73 112L74 113L73 112z"/>
<path style="fill:#6c6c74; stroke:none;" d="M149 112L148 114L149 112z"/>
<path style="fill:#45454e; stroke:none;" d="M66 113L65 115L66 113z"/>
<path style="fill:#bcbcc1; stroke:none;" d="M72 113L73 114L72 113z"/>
<path style="fill:#45454e; stroke:none;" d="M149 113L150 114L149 113z"/>
<path style="fill:#bcbcc1; stroke:none;" d="M71 114L72 115L71 114z"/>
<path style="fill:#6c6c74; stroke:none;" d="M147 114L145 117L147 114z"/>
<path style="fill:#bcbcc1; stroke:none;" d="M70 115L71 116L70 115z"/>
<path style="fill:#45454e; stroke:none;" d="M147 115L148 116L147 115z"/>
<path style="fill:#bcbcc1; stroke:none;" d="M69 116L70 117L69 116z"/>
<path style="fill:#45454e; stroke:none;" d="M146 116L147 117L146 116z"/>
<path style="fill:#bcbcc1; stroke:none;" d="M68 117L69 118L68 117z"/>
<path style="fill:#6c6c74; stroke:none;" d="M144 117L145 118L144 117z"/>
<path style="fill:#45454e; stroke:none;" d="M64 118L65 119L64 118M66 118L67 119L66 118z"/>
<path style="fill:#bcbcc1; stroke:none;" d="M67 118L68 119L67 118z"/>
<path style="fill:#45454e; stroke:none;" d="M144 118L145 119L144 118z"/>
<path style="fill:#bcbcc1; stroke:none;" d="M66 119L67 120L66 119z"/>
<path style="fill:#45454e; stroke:none;" d="M59 120L58 121L58 122L59 123L60 123L61 122L61 121L59 120M64 120L62 123L64 120z"/>
<path style="fill:#bcbcc1; stroke:none;" d="M65 120L66 121L65 120z"/>
<path style="fill:#6c6c74; stroke:none;" d="M141 120L140 122L141 120z"/>
<path style="fill:#272935; stroke:none;" d="M59 121L60 122L59 121z"/>
<path style="fill:#bcbcc1; stroke:none;" d="M64 121L65 122L64 121z"/>
<path style="fill:#45454e; stroke:none;" d="M141 121L142 122L141 121z"/>
<path style="fill:#bcbcc1; stroke:none;" d="M63 122L64 123L63 122z"/>
<path style="fill:#6c6c74; stroke:none;" d="M139 122L140 123L139 122z"/>
<path style="fill:#bcbcc1; stroke:none;" d="M62 123L63 124L62 123z"/>
<path style="fill:#6c6c74; stroke:none;" d="M138 123L137 125L138 123z"/>
<path style="fill:#45454e; stroke:none;" d="M60 124L59 126L60 124z"/>
<path style="fill:#bcbcc1; stroke:none;" d="M61 124L62 125L61 124z"/>
<path style="fill:#45454e; stroke:none;" d="M138 124L139 125L138 124z"/>
<path style="fill:#bcbcc1; stroke:none;" d="M60 125L61 126L60 125z"/>
<path style="fill:#6c6c74; stroke:none;" d="M136 125L137 126L136 125z"/>
<path style="fill:#bcbcc1; stroke:none;" d="M59 126L60 127L59 126M58 127L59 128L58 127z"/>
<path style="fill:#6c6c74; stroke:none;" d="M134 127L135 128L134 127z"/>
<path style="fill:#45454e; stroke:none;" d="M135 127L136 128L135 127M56 128L57 129L56 128z"/>
<path style="fill:#bcbcc1; stroke:none;" d="M57 128L58 129L57 128z"/>
<path style="fill:#6c6c74; stroke:none;" d="M133 128L134 129L133 128z"/>
<path style="fill:#45454e; stroke:none;" d="M50 129L49 131L50 129z"/>
<path style="fill:#bcbcc1; stroke:none;" d="M56 129L57 130L56 129z"/>
<path style="fill:#6c6c74; stroke:none;" d="M132 129L133 130L132 129z"/>
<path style="fill:#bcbcc1; stroke:none;" d="M55 130L56 131L55 130z"/>
<path style="fill:#f5f5f6; stroke:none;" d="M130 130L131 131L130 130z"/>
<path style="fill:#6c6c74; stroke:none;" d="M131 130L130 132L131 130z"/>
<path style="fill:#bcbcc1; stroke:none;" d="M54 131L55 132L54 131z"/>
<path style="fill:#45454e; stroke:none;" d="M131 131L132 132L131 131M52 132L53 133L52 132z"/>
<path style="fill:#bcbcc1; stroke:none;" d="M53 132L54 133L53 132z"/>
<path style="fill:#6c6c74; stroke:none;" d="M129 132L130 133L129 132z"/>
<path style="fill:#bcbcc1; stroke:none;" d="M52 133L53 134L52 133z"/>
<path style="fill:#6c6c74; stroke:none;" d="M128 133L129 134L128 133z"/>
<path style="fill:#bcbcc1; stroke:none;" d="M51 134L50 171L51 171L51 134z"/>
<path style="fill:#45454e; stroke:none;" d="M131 134L132 135L131 134M134 134L135 135L134 134M50 135L51 136L50 135z"/>
<path style="fill:#6c6c74; stroke:none;" d="M124 137L125 138L124 137M123 138L124 139L123 138M121 140L120 142L121 140z"/>
<path style="fill:#45454e; stroke:none;" d="M121 141L122 142L121 141M149 141L150 142L149 141M120 142L121 143L120 142z"/>
<path style="fill:#6c6c74; stroke:none;" d="M145.667 142.333L146.333 142.667L145.667 142.333z"/>
<path style="fill:#45454e; stroke:none;" d="M147 142L148 143L147 142z"/>
<path style="fill:#bcbcc1; stroke:none;" d="M144 143L136 152L144 143z"/>
<path style="fill:#f5f5f6; stroke:none;" d="M145 144.176C137.862 146.632 130.137 157.649 125.019 163C123.26 164.839 119.173 168.471 121.086 171.397C122.957 174.257 130.112 173 133 173C142.709 173 162.025 176.76 170.677 172.397C174.287 170.576 171.287 166.396 169.517 164.424C165.594 160.055 151.43 141.963 145 144.176z"/>
<path style="fill:#bcbcc1; stroke:none;" d="M148 143L149 144L148 143z"/>
<path style="fill:#6c6c74; stroke:none;" d="M117 144L113 149L117 144z"/>
<path style="fill:#bcbcc1; stroke:none;" d="M149 144L152 147L149 144z"/>
<path style="fill:#45454e; stroke:none;" d="M150 144L151 145L150 144M117 145L118 146L117 145M141 145L142 146L141 145M151 145L152 146L151 145M153 145L154 146L153 145M116 146L117 147L116 146M115 147L116 148L115 147z"/>
<path style="fill:#bcbcc1; stroke:none;" d="M152 147L153 148L152 147z"/>
<path style="fill:#45454e; stroke:none;" d="M114 148L115 149L114 148M138 148L139 149L138 148z"/>
<path style="fill:#bcbcc1; stroke:none;" d="M153 148L155 150L153 148z"/>
<path style="fill:#45454e; stroke:none;" d="M154 148L155 149L154 148z"/>
<path style="fill:#6c6c74; stroke:none;" d="M112 149L113 150L112 149z"/>
<path style="fill:#45454e; stroke:none;" d="M137 149L138 150L137 149M159 149L160 150L159 149z"/>
<path style="fill:#6c6c74; stroke:none;" d="M111 150L112 151L111 150z"/>
<path style="fill:#bcbcc1; stroke:none;" d="M156 151L157 152L156 151z"/>
<path style="fill:#6c6c74; stroke:none;" d="M109 152L110 153L109 152z"/>
<path style="fill:#bcbcc1; stroke:none;" d="M157 152L160 155L157 152z"/>
<path style="fill:#45454e; stroke:none;" d="M158 152L159 153L158 152M110 153L111 154L110 153M131 153L132 154L131 153M133 153L134 154L133 153z"/>
<path style="fill:#bcbcc1; stroke:none;" d="M134 153L135 154L134 153z"/>
<path style="fill:#45454e; stroke:none;" d="M159 153L160 154L159 153M162 153L163 154L162 153z"/>
<path style="fill:#6c6c74; stroke:none;" d="M107 154L108 155L107 154z"/>
<path style="fill:#bcbcc1; stroke:none;" d="M133 154L134 155L133 154z"/>
<path style="fill:#45454e; stroke:none;" d="M164 154L165 155L164 154z"/>
<path style="fill:#bcbcc1; stroke:none;" d="M132 155L133 156L132 155M160 155L161 156L160 155M131 156L132 157L131 156M161 156L162 157L161 156z"/>
<path style="fill:#45454e; stroke:none;" d="M163 156L164 157L163 156M166 156L168 158L166 156z"/>
<path style="fill:#6c6c74; stroke:none;" d="M104 157L105 158L104 157z"/>
<path style="fill:#45454e; stroke:none;" d="M129 157L128 159L129 157z"/>
<path style="fill:#bcbcc1; stroke:none;" d="M130 157L131 158L130 157M162 157L163 158L162 157z"/>
<path style="fill:#45454e; stroke:none;" d="M107 158L108 159L107 158z"/>
<path style="fill:#bcbcc1; stroke:none;" d="M129 158L130 159L129 158M163 158L164 159L163 158z"/>
<path style="fill:#6c6c74; stroke:none;" d="M102 159L103 160L102 159z"/>
<path style="fill:#45454e; stroke:none;" d="M103 159L104 160L103 159z"/>
<path style="fill:#bcbcc1; stroke:none;" d="M128 159L129 160L128 159M164 159L165 160L164 159z"/>
<path style="fill:#6c6c74; stroke:none;" d="M101 160L99 163L101 160z"/>
<path style="fill:#bcbcc1; stroke:none;" d="M127 160L128 161L127 160M165 160L168 163L165 160z"/>
<path style="fill:#45454e; stroke:none;" d="M166 160L167 161L166 160M101 161L102 162L101 161M125 161L126 162L125 161z"/>
<path style="fill:#bcbcc1; stroke:none;" d="M126 161L127 162L126 161z"/>
<path style="fill:#45454e; stroke:none;" d="M167 161L168 162L167 161M100 162L101 163L100 162z"/>
<path style="fill:#bcbcc1; stroke:none;" d="M125 162L126 163L125 162z"/>
<path style="fill:#45454e; stroke:none;" d="M173 162L174 163L173 162M99 163L100 164L99 163z"/>
<path style="fill:#bcbcc1; stroke:none;" d="M124 163L125 164L124 163M168 163L169 164L168 163z"/>
<path style="fill:#6c6c74; stroke:none;" d="M97 164L96 166L97 164z"/>
<path style="fill:#45454e; stroke:none;" d="M98 164L99 165L98 164M122 164L120 167L122 164z"/>
<path style="fill:#bcbcc1; stroke:none;" d="M123 164L124 165L123 164z"/>
<path style="fill:#45454e; stroke:none;" d="M170 164L172 166L170 164M97 165L98 166L97 165z"/>
<path style="fill:#bcbcc1; stroke:none;" d="M122 165L123 166L122 165M170 165L171 166L170 165z"/>
<path style="fill:#45454e; stroke:none;" d="M175 165L174 167L175 165z"/>
<path style="fill:#bcbcc1; stroke:none;" d="M121 166L122 167L121 166M171 166L172 167L171 166M120 167L121 168L120 167M172 167L173 168L172 167z"/>
<path style="fill:#6c6c74; stroke:none;" d="M93 168L94 169L93 168z"/>
<path style="fill:#45454e; stroke:none;" d="M117 168L118 169L117 168z"/>
<path style="fill:#6c6c74; stroke:none;" d="M119 168L120 169L119 168M173 168L174 169L173 168z"/>
<path style="fill:#f5f5f6; stroke:none;" d="M90 169L91 170L90 169z"/>
<path style="fill:#6c6c74; stroke:none;" d="M92 169L93 170L92 169z"/>
<path style="fill:#bcbcc1; stroke:none;" d="M119.333 169.667L119.667 170.333L119.333 169.667M173.333 169.667L173.667 170.333L173.333 169.667z"/>
<path style="fill:#6c6c74; stroke:none;" d="M50 171L51 172L50 171z"/>
<path style="fill:#45454e; stroke:none;" d="M94 171L93 173L94 171M119 171L120 172L119 171M173 171L174 172L173 171z"/>
<path style="fill:#6c6c74; stroke:none;" d="M89 172L90 173L89 172z"/>
<path style="fill:#bcbcc1; stroke:none;" d="M120 172L121 173L120 172z"/>
<path style="fill:#6c6c74; stroke:none;" d="M172 172L173 173L172 172z"/>
<path style="fill:#45454e; stroke:none;" d="M51 173L52 174L51 173z"/>
<path style="fill:#6c6c74; stroke:none;" d="M52 173L52 174L88 174C78.4404 169.989 62.3869 173 52 173z"/>
<path style="fill:#45454e; stroke:none;" d="M88 173L89 174L88 173z"/>
<path style="fill:#6c6c74; stroke:none;" d="M121 173L122 174L121 173z"/>
<path style="fill:#bcbcc1; stroke:none;" d="M122 173L122 174L171 174C158.348 168.691 135.788 173 122 173z"/>
<path style="fill:#6c6c74; stroke:none;" d="M171 173L172 174L171 173z"/>
<path style="fill:#45454e; stroke:none;" d="M91 174L92 175L91 174M51 175L52 176L51 175M113 175L114 176L113 175z"/>
</svg>
