<?xml version="1.0" standalone="no"?>
<!DOCTYPE svg PUBLIC "-//W3C//DTD SVG 20010904//EN"
 "http://www.w3.org/TR/2001/REC-SVG-20010904/DTD/svg10.dtd">
<svg version="1.0" xmlns="http://www.w3.org/2000/svg"
 width="512.000000pt" height="512.000000pt" viewBox="0 0 512.000000 512.000000"
 preserveAspectRatio="xMidYMid meet">

<g transform="translate(0.000000,512.000000) scale(0.100000,-0.100000)"
fill="#000000" stroke="none">
<path d="M395 5110 c-176 -28 -312 -145 -371 -320 -18 -53 -19 -130 -19 -2230
0 -2100 1 -2177 19 -2230 49 -146 148 -247 294 -303 l57 -22 2185 0 2185 0 57
22 c146 56 245 157 294 303 18 53 19 130 19 2230 0 2100 -1 2177 -19 2230 -49
146 -148 247 -294 303 l-57 22 -2150 1 c-1182 1 -2172 -2 -2200 -6z m880 -565
c207 -44 382 -218 424 -423 78 -376 -262 -724 -634 -649 -200 41 -355 175
-421 366 -31 89 -35 228 -9 318 42 148 150 276 289 343 124 60 222 72 351 45z
m2625 -1298 c169 -44 276 -104 383 -215 166 -170 253 -399 288 -757 9 -91 13
-353 14 -875 0 -702 -1 -747 -18 -773 -10 -16 -32 -37 -50 -47 -30 -19 -53
-20 -365 -20 -363 0 -370 1 -411 58 -19 28 -20 46 -24 763 -3 623 -6 744 -19
799 -38 154 -98 254 -188 308 -78 46 -121 57 -235 56 -131 0 -192 -23 -279
-105 -72 -67 -123 -159 -159 -287 -21 -75 -22 -97 -27 -792 -5 -668 -6 -717
-23 -742 -38 -55 -56 -58 -404 -58 -356 0 -368 2 -405 71 -17 32 -18 92 -18
1267 0 1368 -4 1281 64 1323 29 18 56 19 361 19 310 0 332 -1 362 -20 52 -31
63 -64 63 -192 l1 -113 22 30 c74 102 202 206 309 253 141 61 271 82 488 78
147 -3 190 -8 270 -29z m-2379 -30 c19 -12 42 -38 52 -57 16 -33 17 -109 15
-1272 -3 -1233 -3 -1237 -24 -1265 -45 -61 -58 -63 -402 -63 -338 0 -341 0
-392 55 l-25 27 -3 1250 c-2 1206 -2 1252 16 1280 11 16 32 38 48 49 27 18 51
19 355 19 322 0 326 0 360 -23z"/>
</g>
</svg>
