<svg width="250" height="250" viewBox="0 0 250 250" fill="none" xmlns="http://www.w3.org/2000/svg">
<rect width="250" height="250" fill="white"/>
<g clip-path="url(#clip0_721_976)">
<path d="M165.045 50H83.9554C79.0095 50 75 54.0095 75 58.9554V140.044C75 144.991 79.0095 149 83.9554 149H165.044C169.991 149 174 144.991 174 140.044V58.9554C174 54.0095 169.991 50 165.045 50ZM105.635 135.483C105.635 136.923 104.468 138.089 103.029 138.089H91.935C90.4956 138.089 89.3288 136.923 89.3288 135.483V88.9788C89.3288 87.5394 90.4956 86.3727 91.935 86.3727H103.029C104.468 86.3727 105.635 87.5394 105.635 88.9788V135.483ZM97.4818 81.9889C91.6613 81.9889 86.9427 77.2704 86.9427 71.4498C86.9427 65.6293 91.6613 60.9107 97.4818 60.9107C103.302 60.9107 108.021 65.6293 108.021 71.4498C108.021 77.2704 103.303 81.9889 97.4818 81.9889ZM163.61 135.693C163.61 137.016 162.537 138.089 161.214 138.089H149.31C147.986 138.089 146.913 137.016 146.913 135.693V113.88C146.913 110.626 147.868 99.6205 138.41 99.6205C131.073 99.6205 129.585 107.153 129.286 110.534V135.693C129.286 137.016 128.213 138.089 126.89 138.089H115.376C114.053 138.089 112.98 137.016 112.98 135.693V88.7689C112.98 87.4456 114.053 86.3727 115.376 86.3727H126.89C128.213 86.3727 129.286 87.4456 129.286 88.7689V92.8261C132.006 88.7435 136.049 85.5923 144.657 85.5923C163.719 85.5923 163.61 103.401 163.61 113.186V135.693Z" fill="#0077B7"/>
</g>
<path d="M88.7345 199C86.1643 199 84.056 198.201 82.4095 196.604C80.8032 195.007 80 192.931 80 190.376C80 187.222 81.3855 184.786 84.1564 183.07C86.9273 181.313 91.3448 180.115 97.4087 179.476C97.3686 177.919 96.9469 176.582 96.1437 175.464C95.3807 174.306 93.9953 173.727 91.9873 173.727C90.5416 173.727 89.116 174.007 87.7104 174.565C86.345 175.124 84.9997 175.803 83.6745 176.602L81.1445 171.99C82.791 170.952 84.6383 170.054 86.6864 169.295C88.7746 168.537 90.9834 168.157 93.3126 168.157C97.0071 168.157 99.758 169.255 101.565 171.451C103.412 173.607 104.336 176.741 104.336 180.854V198.281H98.6135L98.1316 195.047H97.8906C96.5654 196.165 95.1398 197.104 93.6137 197.862C92.1279 198.621 90.5015 199 88.7345 199ZM90.9633 193.61C92.168 193.61 93.2523 193.331 94.2161 192.772C95.2201 192.173 96.2843 191.374 97.4087 190.376V183.788C93.3929 184.307 90.6019 185.086 89.0357 186.124C87.4695 187.122 86.6864 188.36 86.6864 189.837C86.6864 191.155 87.088 192.113 87.8912 192.712C88.6943 193.311 89.7184 193.61 90.9633 193.61Z" fill="#989692"/>
<path d="M124.794 199C121.1 199 118.148 197.643 115.939 194.928C113.731 192.213 112.626 188.44 112.626 183.609C112.626 180.415 113.209 177.66 114.373 175.344C115.578 173.028 117.144 171.252 119.072 170.014C120.999 168.776 123.027 168.157 125.156 168.157C126.842 168.157 128.268 168.457 129.433 169.056C130.637 169.615 131.802 170.393 132.926 171.391L132.685 166.66V156H139.613V198.281H133.89L133.408 195.107H133.167C132.083 196.185 130.818 197.104 129.372 197.862C127.927 198.621 126.401 199 124.794 199ZM126.481 193.311C128.69 193.311 130.758 192.213 132.685 190.017V176.302C131.682 175.384 130.678 174.745 129.674 174.386C128.67 174.026 127.666 173.847 126.662 173.847C124.774 173.847 123.148 174.705 121.782 176.422C120.457 178.099 119.795 180.474 119.795 183.549C119.795 186.703 120.377 189.118 121.542 190.795C122.706 192.472 124.353 193.311 126.481 193.311Z" fill="#989692"/>
<path d="M158.495 199C156.487 199 154.479 198.621 152.471 197.862C150.463 197.064 148.736 196.085 147.29 194.928L150.543 190.496C151.868 191.494 153.194 192.292 154.519 192.891C155.844 193.49 157.25 193.79 158.736 193.79C160.342 193.79 161.527 193.45 162.29 192.772C163.053 192.093 163.434 191.254 163.434 190.256C163.434 189.418 163.113 188.739 162.47 188.22C161.868 187.661 161.085 187.182 160.121 186.783C159.157 186.344 158.153 185.924 157.109 185.525C155.824 185.046 154.539 184.467 153.254 183.788C152.009 183.07 150.985 182.171 150.182 181.093C149.379 179.975 148.977 178.598 148.977 176.961C148.977 174.366 149.941 172.25 151.868 170.613C153.796 168.976 156.406 168.157 159.699 168.157C161.788 168.157 163.655 168.517 165.301 169.235C166.948 169.954 168.374 170.773 169.578 171.691L166.386 175.883C165.342 175.124 164.277 174.526 163.193 174.086C162.149 173.607 161.045 173.368 159.88 173.368C158.394 173.368 157.29 173.687 156.567 174.326C155.844 174.925 155.483 175.683 155.483 176.602C155.483 177.76 156.085 178.638 157.29 179.237C158.495 179.836 159.9 180.415 161.506 180.974C162.872 181.453 164.197 182.052 165.482 182.77C166.767 183.449 167.831 184.347 168.675 185.465C169.558 186.583 170 188.06 170 189.897C170 192.412 169.016 194.568 167.048 196.365C165.081 198.122 162.229 199 158.495 199Z" fill="#989692"/>
<defs>
<clipPath id="clip0_721_976">
<rect width="99" height="99" fill="white" transform="translate(75 50)"/>
</clipPath>
</defs>
</svg>
