<svg width="250" height="250" viewBox="0 0 250 250" fill="none" xmlns="http://www.w3.org/2000/svg">
<path d="M178.06 59H69.9405C63.346 59 58 64.346 58 70.9405V179.059C58 185.654 63.346 191 69.9405 191H178.059C184.654 191 190 185.654 190 179.059V70.9405C190 64.346 184.654 59 178.06 59ZM98.8464 172.978C98.8464 174.897 97.2907 176.452 95.3715 176.452H80.5799C78.6608 176.452 77.1051 174.897 77.1051 172.978V110.972C77.1051 109.053 78.6608 107.497 80.5799 107.497H95.3715C97.2907 107.497 98.8464 109.053 98.8464 110.972V172.978ZM87.9757 101.652C80.215 101.652 73.9236 95.3605 73.9236 87.5998C73.9236 79.8391 80.215 73.5476 87.9757 73.5476C95.7365 73.5476 102.028 79.8391 102.028 87.5998C102.028 95.3605 95.7368 101.652 87.9757 101.652ZM176.147 173.257C176.147 175.022 174.716 176.452 172.952 176.452H157.079C155.315 176.452 153.885 175.022 153.885 173.257V144.173C153.885 139.834 155.157 125.161 142.546 125.161C132.764 125.161 130.78 135.204 130.381 139.712V173.257C130.381 175.022 128.951 176.452 127.186 176.452H111.835C110.071 176.452 108.64 175.022 108.64 173.257V110.692C108.64 108.927 110.071 107.497 111.835 107.497H127.186C128.951 107.497 130.381 108.927 130.381 110.692V116.101C134.008 110.658 139.399 106.456 150.877 106.456C176.292 106.456 176.147 130.201 176.147 143.248V173.257Z" fill="#0077B7"/>
</svg>
