<svg xmlns="http://www.w3.org/2000/svg" xml:space="preserve" style="fill-rule:evenodd;clip-rule:evenodd;stroke-linejoin:round;stroke-miterlimit:2" viewBox="0 0 924 226"><path d="M1048.57 498.296h.04c2.27 0 4.14-1.869 4.14-4.14 0-.08 0-.159-.01-.239 0-3.105-1.87-4.589-5.72-4.589h-6.21v16.26h2.34V498.5h2.87l.06.086 4.46 7.002h2.5l-4.79-7.247.32-.045Zm-2.71-1.629h-2.71v-5.496h3.44c1.77 0 3.79.289 3.79 2.612 0 2.671-2.04 2.884-4.53 2.884M138.462 320.509h34.482v125.606h63.839v31.822h-98.321V320.509Zm113.566 50.687h33.127v106.682h-33.127V371.196Zm16.563-53.037c10.541.002 19.214 8.676 19.214 19.217 0 10.542-8.675 19.217-19.217 19.217-10.542 0-19.217-8.675-19.217-19.217 0-10.542 8.675-19.217 19.217-19.217h.003m155.137 2.326h33.127v94.083l37.544-43.42h40.615l-43.479 49.39 42.564 57.385h-41.636l-35.166-52.734h-.435v52.727h-33.127l-.007-157.431Zm-120.205 50.722h31.812v14.579h.452a34.842 34.842 0 0 1 31.367-17.233c33.593 0 39.776 22.102 39.776 50.815v58.503h-33.127v-51.867c0-12.381-.227-28.296-17.253-28.296-17.219 0-19.876 13.482-19.876 27.395v52.755h-33.127l-.024-106.651Z" style="fill:#0a66c2;fill-rule:nonzero" transform="translate(-138.462 -287.425)"/><path d="M604.777 412.129c.003-.156.005-.313.005-.469 0-10.896-8.966-19.862-19.862-19.862-.161 0-.321.002-.482.006-11.965-.745-22.467 8.373-23.409 20.325h43.748Zm28.061 47.274a58.383 58.383 0 0 1-45.301 21.226c-33.127 0-59.649-22.113-59.649-56.354s26.519-56.343 59.649-56.343c30.963 0 50.38 22.084 50.38 56.343v10.387h-76.888c1.97 12.124 12.685 21.038 24.965 20.77a28.299 28.299 0 0 0 23.641-13.037l23.203 17.008Zm74.128-62.42c-16.563 0-26.501 11.06-26.501 27.175 0 16.115 9.934 27.184 26.501 27.184s26.526-11.042 26.526-27.184c0-16.143-9.942-27.175-26.526-27.175m57.023 80.875h-30.497V463.71h-.452a41.684 41.684 0 0 1-32.934 16.798c-31.829 0-52.796-22.972-52.796-55.457 0-29.834 18.555-57.23 49.055-57.23 13.71 0 26.516 3.751 34.028 14.148h.435v-61.495h33.157l.004 157.384Zm223.637.062h-33.127v-51.878c0-12.371-.221-28.296-17.229-28.296-17.254 0-19.894 13.478-19.894 27.395v52.775H884.25V371.234h31.801v14.579h.446a34.893 34.893 0 0 1 31.377-17.232c33.575 0 39.766 22.084 39.766 50.815l-.014 58.524ZM846.872 356.651h-.004c-10.546 0-19.224-8.677-19.224-19.223s8.678-19.224 19.224-19.224c10.545 0 19.222 8.676 19.224 19.22v.004c0 10.544-8.676 19.222-19.22 19.223m16.563 121.269h-33.161V371.234h33.161V477.92Zm140.705-190.479H813.627c-8.943-.101-16.388 7.171-16.497 16.114v191.304c.105 8.948 7.549 16.228 16.497 16.132h190.513c8.97.113 16.44-7.166 16.56-16.132V303.542c-.12-8.962-7.6-16.233-16.56-16.115m42.01 194.658c-8.31.08-15.1 6.936-15.1 15.244 0 8.364 6.88 15.246 15.24 15.246 8.37 0 15.25-6.882 15.25-15.246 0-8.308-6.79-15.164-15.1-15.244h-.29m0 28.744-.23.002c-7.33 0-13.36-6.034-13.36-13.368 0-7.333 6.03-13.368 13.36-13.368 7.25 0 13.25 5.897 13.37 13.145v.225c.15 7.173-5.62 13.202-12.79 13.357h-.35" style="fill:#0a66c2;fill-rule:nonzero" transform="translate(-138.462 -287.425)"/></svg>