<svg id="svg" version="1.1" xmlns="http://www.w3.org/2000/svg" xmlns:xlink="http://www.w3.org/1999/xlink" width="400" height="257.59999999999997" viewBox="0, 0, 400,257.59999999999997"><g id="svgg"><path id="path0" d="M185.116 0.459 C 183.521 0.500,182.216 0.635,182.216 0.760 C 182.216 0.885,181.434 1.056,180.477 1.140 C 177.062 1.441,176.788 1.477,176.625 1.639 C 176.535 1.730,175.958 1.804,175.344 1.804 C 174.729 1.804,174.227 1.909,174.227 2.037 C 174.227 2.164,173.531 2.350,172.680 2.449 C 171.829 2.547,171.076 2.721,171.005 2.835 C 170.935 2.949,170.181 3.123,169.330 3.222 C 168.480 3.320,167.784 3.493,167.784 3.604 C 167.784 3.716,167.245 3.888,166.586 3.987 C 165.927 4.086,165.202 4.265,164.975 4.384 C 164.480 4.645,163.630 4.976,163.273 5.048 C 162.539 5.196,161.856 5.495,161.856 5.667 C 161.856 5.774,161.392 5.936,160.825 6.027 C 160.258 6.117,159.794 6.291,159.794 6.413 C 159.794 6.535,159.330 6.709,158.763 6.800 C 158.196 6.891,157.732 7.067,157.732 7.191 C 157.732 7.315,157.326 7.493,156.830 7.586 C 156.334 7.679,155.928 7.853,155.928 7.973 C 155.928 8.092,155.522 8.266,155.026 8.359 C 154.530 8.452,154.124 8.613,154.124 8.717 C 154.124 8.820,153.603 9.134,152.966 9.414 C 152.330 9.694,151.808 10.000,151.807 10.096 C 151.805 10.191,151.456 10.345,151.031 10.438 C 150.606 10.532,150.258 10.715,150.258 10.845 C 150.258 10.976,150.092 11.082,149.890 11.082 C 149.687 11.082,149.363 11.241,149.169 11.435 C 148.975 11.629,148.532 11.878,148.184 11.987 C 147.836 12.097,147.357 12.410,147.120 12.683 C 146.883 12.955,146.651 13.163,146.605 13.145 C 146.380 13.055,145.466 13.532,145.284 13.834 C 145.170 14.022,144.909 14.175,144.704 14.175 C 144.498 14.175,144.330 14.283,144.330 14.416 C 144.330 14.548,144.078 14.736,143.770 14.834 C 143.180 15.021,142.860 15.243,141.873 16.145 C 141.540 16.449,141.203 16.633,141.124 16.553 C 141.044 16.474,140.979 16.544,140.979 16.710 C 140.979 16.875,140.848 17.010,140.687 17.010 C 140.526 17.010,140.125 17.300,139.797 17.655 C 139.469 18.009,139.087 18.299,138.950 18.299 C 138.812 18.299,138.352 18.647,137.926 19.072 C 137.501 19.497,137.054 19.845,136.934 19.845 C 136.813 19.845,136.223 20.367,135.623 21.005 C 135.022 21.643,134.416 22.165,134.275 22.165 C 133.973 22.165,127.835 28.362,127.835 28.667 C 127.835 28.781,127.313 29.375,126.675 29.986 C 126.037 30.597,125.515 31.298,125.515 31.543 C 125.515 31.788,125.428 31.937,125.322 31.872 C 125.216 31.808,124.979 31.917,124.797 32.115 C 124.614 32.312,124.522 32.474,124.592 32.474 C 124.662 32.474,124.426 32.793,124.068 33.183 C 123.710 33.573,123.252 34.075,123.049 34.300 C 122.846 34.524,122.680 34.908,122.680 35.153 C 122.680 35.397,122.573 35.531,122.441 35.450 C 122.310 35.368,122.128 35.535,122.037 35.821 C 121.947 36.107,121.764 36.340,121.632 36.340 C 121.500 36.340,121.392 36.502,121.392 36.699 C 121.392 36.897,121.218 37.125,121.005 37.207 C 120.793 37.288,120.619 37.533,120.619 37.750 C 120.619 37.967,120.510 38.144,120.378 38.144 C 120.246 38.144,120.057 38.400,119.958 38.712 C 119.858 39.025,119.619 39.439,119.425 39.633 C 119.231 39.827,119.072 40.139,119.072 40.326 C 119.072 40.513,118.898 40.733,118.686 40.815 C 118.473 40.896,118.299 41.141,118.299 41.358 C 118.299 41.575,118.196 41.753,118.069 41.753 C 117.943 41.753,117.767 42.043,117.678 42.397 C 117.589 42.751,117.402 43.041,117.263 43.041 C 117.124 43.041,117.010 43.215,117.010 43.428 C 117.010 43.640,116.882 43.814,116.725 43.814 C 116.568 43.814,116.506 43.988,116.588 44.201 C 116.670 44.414,116.624 44.588,116.487 44.588 C 116.349 44.588,116.237 44.762,116.237 44.974 C 116.237 45.187,116.126 45.361,115.991 45.361 C 115.856 45.361,115.669 45.766,115.576 46.261 C 115.483 46.756,115.317 47.104,115.206 47.036 C 114.898 46.845,114.646 48.599,114.837 49.613 C 114.930 50.110,115.109 50.515,115.235 50.515 C 115.361 50.515,115.464 50.738,115.464 51.010 C 115.464 51.351,115.705 51.558,116.237 51.675 C 116.662 51.769,117.010 51.943,117.010 52.062 C 117.010 52.181,117.358 52.355,117.784 52.448 C 118.209 52.542,118.557 52.710,118.557 52.823 C 118.557 52.935,119.021 53.101,119.588 53.192 C 120.155 53.282,120.619 53.459,120.619 53.583 C 120.619 53.708,120.936 53.890,121.325 53.987 C 121.713 54.085,122.090 54.242,122.162 54.337 C 122.405 54.656,123.915 55.412,124.310 55.412 C 124.524 55.412,124.748 55.557,124.807 55.735 C 124.892 55.988,125.049 55.991,125.538 55.750 C 125.880 55.581,126.531 55.370,126.986 55.281 C 127.512 55.178,127.874 54.922,127.984 54.577 C 128.078 54.278,128.378 53.796,128.650 53.504 C 128.921 53.213,129.210 52.711,129.290 52.389 C 129.371 52.067,129.532 51.804,129.647 51.804 C 129.762 51.804,129.932 51.456,130.026 51.031 C 130.119 50.606,130.300 50.258,130.428 50.258 C 130.556 50.258,130.733 49.968,130.822 49.613 C 130.911 49.259,131.087 48.969,131.214 48.969 C 131.340 48.969,131.443 48.791,131.443 48.574 C 131.443 48.357,131.617 48.113,131.830 48.031 C 132.043 47.950,132.216 47.660,132.216 47.387 C 132.216 47.114,132.390 46.824,132.603 46.743 C 132.816 46.661,132.990 46.433,132.990 46.235 C 132.990 46.038,133.077 45.875,133.183 45.875 C 133.289 45.874,133.666 45.439,134.020 44.908 C 134.374 44.377,134.809 43.790,134.987 43.603 C 135.164 43.415,135.309 43.158,135.309 43.031 C 135.309 42.905,135.686 42.404,136.147 41.918 C 138.436 39.507,139.414 38.353,139.562 37.885 C 139.652 37.602,139.825 37.371,139.946 37.371 C 140.152 37.371,140.509 37.027,142.349 35.055 C 142.747 34.628,143.187 34.278,143.326 34.278 C 143.465 34.278,144.202 33.640,144.963 32.861 C 145.724 32.081,146.424 31.443,146.518 31.443 C 146.612 31.443,147.037 31.095,147.462 30.670 C 147.888 30.245,148.358 29.897,148.508 29.897 C 148.658 29.897,149.050 29.607,149.378 29.253 C 149.707 28.898,150.097 28.608,150.245 28.608 C 150.394 28.608,150.515 28.500,150.515 28.368 C 150.515 28.236,150.776 28.046,151.095 27.947 C 151.414 27.847,151.733 27.694,151.804 27.607 C 152.081 27.266,153.602 26.289,153.856 26.289 C 154.003 26.289,154.124 26.175,154.124 26.036 C 154.124 25.897,154.414 25.710,154.768 25.621 C 155.122 25.532,155.412 25.356,155.412 25.230 C 155.412 25.103,155.586 25.000,155.799 25.000 C 156.012 25.000,156.186 24.886,156.186 24.747 C 156.186 24.608,156.476 24.422,156.830 24.333 C 157.184 24.244,157.474 24.077,157.474 23.962 C 157.474 23.846,157.822 23.676,158.247 23.582 C 158.673 23.489,159.021 23.315,159.021 23.196 C 159.021 23.077,159.369 22.903,159.794 22.809 C 160.219 22.716,160.567 22.542,160.567 22.423 C 160.567 22.303,160.915 22.129,161.340 22.036 C 161.765 21.943,162.113 21.769,162.113 21.649 C 162.113 21.530,162.460 21.357,162.884 21.264 C 163.307 21.170,163.720 20.987,163.801 20.856 C 163.882 20.726,164.173 20.619,164.448 20.619 C 164.723 20.619,164.948 20.504,164.948 20.364 C 164.948 20.224,165.412 20.035,165.979 19.944 C 166.546 19.854,167.010 19.693,167.010 19.588 C 167.010 19.482,167.474 19.322,168.041 19.231 C 168.608 19.140,169.072 18.955,169.072 18.820 C 169.072 18.685,169.655 18.497,170.367 18.403 C 171.079 18.308,171.721 18.134,171.795 18.015 C 171.868 17.896,172.504 17.722,173.206 17.629 C 173.909 17.536,174.485 17.358,174.485 17.235 C 174.485 17.111,174.890 17.010,175.387 17.010 C 175.883 17.010,176.289 16.906,176.289 16.779 C 176.289 16.651,177.130 16.464,178.157 16.361 C 179.185 16.259,180.088 16.077,180.164 15.958 C 180.240 15.838,181.893 15.660,183.837 15.563 C 185.781 15.465,187.371 15.287,187.371 15.167 C 187.371 15.047,189.343 14.948,191.753 14.948 C 194.162 14.948,196.134 15.047,196.134 15.168 C 196.134 15.288,197.667 15.468,199.541 15.567 C 201.416 15.666,203.010 15.843,203.085 15.961 C 203.160 16.079,204.178 16.259,205.348 16.362 C 206.517 16.465,207.474 16.652,207.474 16.779 C 207.474 16.906,207.822 17.010,208.247 17.010 C 208.673 17.010,209.021 17.118,209.021 17.249 C 209.021 17.381,209.659 17.568,210.438 17.666 C 211.218 17.763,211.856 17.938,211.856 18.055 C 211.856 18.172,212.378 18.346,213.015 18.441 C 213.653 18.537,214.175 18.707,214.175 18.820 C 214.175 18.932,214.755 19.104,215.464 19.201 C 216.173 19.299,216.694 19.473,216.623 19.589 C 216.551 19.705,216.957 19.878,217.525 19.974 C 218.092 20.070,218.557 20.235,218.557 20.342 C 218.557 20.448,219.195 20.752,219.974 21.017 C 220.754 21.282,221.392 21.581,221.392 21.682 C 221.392 21.784,221.740 21.943,222.165 22.036 C 222.590 22.129,222.938 22.313,222.938 22.443 C 222.938 22.574,223.083 22.684,223.260 22.689 C 223.437 22.694,224.046 22.922,224.613 23.196 C 225.180 23.470,225.777 23.698,225.939 23.703 C 226.101 23.707,226.300 23.885,226.382 24.098 C 226.463 24.311,226.708 24.485,226.925 24.485 C 227.142 24.485,227.320 24.601,227.320 24.742 C 227.320 24.884,227.539 25.000,227.807 25.000 C 228.076 25.000,228.362 25.174,228.444 25.387 C 228.525 25.599,228.770 25.773,228.987 25.773 C 229.204 25.773,229.381 25.877,229.381 26.003 C 229.381 26.129,229.671 26.306,230.026 26.394 C 230.380 26.483,230.670 26.670,230.670 26.809 C 230.670 26.948,230.848 27.062,231.065 27.062 C 231.282 27.062,231.526 27.236,231.608 27.448 C 231.689 27.661,231.893 27.835,232.059 27.835 C 232.365 27.835,233.303 28.508,234.485 29.575 C 234.838 29.894,235.222 30.155,235.338 30.155 C 235.454 30.155,235.905 30.503,236.340 30.928 C 236.775 31.353,237.301 31.701,237.509 31.701 C 237.717 31.701,237.887 31.816,237.887 31.956 C 237.887 32.097,238.420 32.706,239.072 33.309 C 240.444 34.579,242.094 36.205,243.094 37.272 C 243.477 37.681,244.115 38.330,244.511 38.714 C 245.457 39.631,245.876 40.141,245.876 40.374 C 245.876 40.478,246.317 40.975,246.857 41.480 C 247.396 41.984,247.914 42.600,248.008 42.848 C 248.103 43.096,248.292 43.299,248.428 43.299 C 248.565 43.299,248.759 43.560,248.859 43.879 C 248.959 44.198,249.301 44.702,249.619 44.998 C 249.937 45.295,250.277 45.788,250.374 46.094 C 250.471 46.399,250.658 46.649,250.791 46.649 C 250.923 46.649,251.031 46.823,251.031 47.036 C 251.031 47.249,251.145 47.423,251.284 47.423 C 251.423 47.423,251.609 47.713,251.698 48.067 C 251.787 48.421,251.963 48.711,252.090 48.711 C 252.216 48.711,252.320 48.889,252.320 49.106 C 252.320 49.323,252.486 49.565,252.690 49.643 C 252.894 49.721,253.136 50.124,253.226 50.537 C 253.317 50.950,253.496 51.289,253.624 51.289 C 253.752 51.289,253.929 51.579,254.018 51.933 C 254.107 52.287,254.274 52.577,254.389 52.577 C 254.504 52.577,254.675 52.925,254.768 53.351 C 254.861 53.776,255.031 54.124,255.145 54.124 C 255.259 54.124,255.409 54.340,255.478 54.604 C 255.561 54.921,255.944 55.148,256.603 55.272 C 257.153 55.374,257.757 55.586,257.945 55.741 C 258.193 55.946,258.335 55.945,258.463 55.738 C 258.560 55.582,258.958 55.373,259.348 55.275 C 259.738 55.178,260.120 54.994,260.198 54.868 C 260.276 54.742,260.565 54.639,260.840 54.639 C 261.115 54.639,261.340 54.532,261.340 54.402 C 261.340 54.271,261.688 54.088,262.113 53.995 C 262.539 53.901,262.887 53.731,262.887 53.616 C 262.887 53.502,263.293 53.332,263.789 53.239 C 264.285 53.146,264.691 52.968,264.691 52.844 C 264.691 52.720,265.039 52.542,265.464 52.448 C 265.889 52.355,266.237 52.172,266.237 52.041 C 266.237 51.911,266.406 51.804,266.612 51.804 C 267.643 51.804,268.279 51.210,268.447 50.092 C 268.539 49.474,268.718 48.969,268.844 48.969 C 268.969 48.969,269.072 48.737,269.072 48.454 C 269.072 48.170,268.956 47.938,268.814 47.938 C 268.673 47.938,268.557 47.816,268.557 47.666 C 268.557 47.164,267.516 45.103,267.262 45.103 C 267.123 45.103,267.010 44.929,267.010 44.716 C 267.010 44.504,266.904 44.330,266.773 44.330 C 266.643 44.330,266.461 43.990,266.370 43.575 C 266.279 43.159,266.037 42.681,265.834 42.512 C 265.630 42.343,265.464 42.045,265.464 41.850 C 265.464 41.655,265.348 41.495,265.206 41.495 C 265.064 41.495,264.948 41.329,264.948 41.127 C 264.948 40.924,264.803 40.600,264.626 40.407 C 264.240 39.986,263.721 39.192,263.484 38.660 C 263.390 38.447,263.158 38.180,262.970 38.067 C 262.783 37.954,262.629 37.693,262.629 37.487 C 262.629 37.282,262.521 37.113,262.389 37.113 C 262.256 37.113,262.066 36.852,261.966 36.534 C 261.866 36.215,261.510 35.698,261.176 35.386 C 260.841 35.074,260.567 34.705,260.567 34.567 C 260.567 34.429,260.277 34.088,259.923 33.809 C 259.568 33.530,259.278 33.182,259.278 33.035 C 259.278 32.889,258.872 32.338,258.376 31.812 C 257.880 31.286,257.474 30.785,257.474 30.698 C 257.474 30.414,255.221 28.113,255.080 28.253 C 255.005 28.328,254.868 28.149,254.774 27.854 C 254.681 27.560,254.493 27.320,254.356 27.320 C 254.219 27.320,254.031 27.117,253.938 26.869 C 253.769 26.419,251.652 24.227,251.387 24.227 C 251.310 24.227,250.564 23.560,249.729 22.745 C 247.920 20.979,247.503 20.619,247.265 20.619 C 247.166 20.619,246.669 20.170,246.159 19.622 C 245.649 19.074,244.982 18.547,244.676 18.452 C 244.370 18.357,244.055 18.110,243.975 17.903 C 243.896 17.695,243.681 17.526,243.497 17.526 C 243.314 17.526,242.946 17.236,242.680 16.881 C 242.414 16.527,242.038 16.237,241.845 16.237 C 241.653 16.237,241.495 16.129,241.495 15.997 C 241.495 15.865,241.239 15.675,240.927 15.576 C 240.615 15.477,240.200 15.237,240.006 15.043 C 239.813 14.849,239.501 14.691,239.313 14.691 C 239.126 14.691,238.906 14.517,238.824 14.304 C 238.743 14.091,238.552 13.918,238.399 13.918 C 238.247 13.918,237.878 13.690,237.579 13.411 C 237.280 13.132,236.937 12.965,236.817 13.040 C 236.696 13.114,236.598 13.052,236.598 12.902 C 236.598 12.752,236.424 12.629,236.211 12.629 C 235.999 12.629,235.825 12.515,235.825 12.376 C 235.825 12.237,235.535 12.050,235.180 11.962 C 234.826 11.873,234.536 11.706,234.536 11.590 C 234.536 11.475,234.188 11.305,233.763 11.211 C 233.338 11.118,232.990 10.937,232.990 10.809 C 232.990 10.681,232.700 10.504,232.345 10.415 C 231.991 10.326,231.700 10.179,231.699 10.088 C 231.697 9.997,231.175 9.694,230.539 9.414 C 229.902 9.134,229.381 8.816,229.381 8.708 C 229.381 8.600,228.918 8.437,228.351 8.346 C 227.784 8.256,227.320 8.090,227.320 7.977 C 227.320 7.865,226.972 7.696,226.546 7.603 C 226.121 7.510,225.773 7.328,225.773 7.199 C 225.773 7.070,225.309 6.891,224.742 6.800 C 224.175 6.709,223.711 6.539,223.711 6.422 C 223.711 6.305,223.305 6.133,222.809 6.040 C 222.313 5.947,221.907 5.767,221.907 5.641 C 221.907 5.515,221.617 5.412,221.263 5.412 C 220.909 5.412,220.619 5.312,220.619 5.190 C 220.619 5.068,220.329 5.000,219.974 5.039 C 219.620 5.077,219.330 5.003,219.330 4.874 C 219.330 4.745,219.098 4.639,218.814 4.639 C 218.531 4.639,218.299 4.534,218.299 4.406 C 218.299 4.277,217.719 4.092,217.010 3.995 C 216.302 3.897,215.722 3.724,215.722 3.609 C 215.722 3.495,215.026 3.320,214.175 3.222 C 213.325 3.123,212.629 2.945,212.629 2.825 C 212.629 2.706,211.817 2.529,210.825 2.431 C 209.832 2.333,209.021 2.152,209.021 2.029 C 209.021 1.905,208.557 1.804,207.990 1.804 C 207.423 1.804,206.959 1.699,206.959 1.571 C 206.959 1.443,206.510 1.398,205.961 1.472 C 205.365 1.551,204.892 1.490,204.786 1.318 C 204.686 1.156,203.897 1.031,202.970 1.031 C 202.069 1.031,201.292 0.913,201.244 0.768 C 201.156 0.503,191.065 0.310,185.116 0.459 M218.879 64.088 C 218.702 64.160,218.557 64.383,218.557 64.583 C 218.557 64.784,218.412 64.948,218.235 64.948 C 217.983 64.948,217.930 66.413,217.992 71.627 C 218.070 78.080,218.055 78.311,217.565 78.467 C 217.286 78.555,216.993 78.797,216.913 79.005 C 216.792 79.322,215.722 79.381,210.176 79.381 L 203.584 79.381 202.952 80.063 C 201.962 81.132,201.962 91.291,202.952 92.359 L 203.584 93.041 209.975 93.045 L 216.366 93.049 217.217 93.799 L 218.067 94.549 217.990 100.940 L 217.912 107.332 218.612 108.047 L 219.313 108.763 224.816 108.763 L 230.319 108.763 230.881 108.117 C 231.427 107.489,231.443 107.281,231.443 100.938 L 231.443 94.405 232.075 93.723 L 232.707 93.041 239.289 93.041 C 247.768 93.041,246.907 93.786,246.907 86.449 C 246.907 80.752,246.906 80.745,246.275 80.063 L 245.643 79.381 239.123 79.377 L 232.603 79.373 232.023 78.761 C 231.453 78.160,231.443 78.036,231.443 71.665 L 231.443 65.182 230.761 64.550 C 230.107 63.943,220.193 63.558,218.879 64.088 M137.036 79.973 C 136.782 80.286,136.464 80.715,136.332 80.928 C 136.199 81.140,136.089 83.579,136.086 86.347 L 136.082 91.380 136.841 92.211 L 137.600 93.041 158.768 93.041 L 179.937 93.041 180.690 92.288 L 181.443 91.534 181.443 86.211 L 181.443 80.888 180.690 80.135 L 179.937 79.381 158.718 79.393 L 137.500 79.405 137.036 79.973 M124.227 117.268 C 124.227 117.410,123.984 117.526,123.687 117.526 C 123.144 117.526,121.591 118.273,121.440 118.607 C 121.395 118.705,121.192 118.722,120.989 118.644 C 120.785 118.565,120.619 118.630,120.619 118.787 C 120.619 118.944,120.445 119.072,120.232 119.072 C 120.019 119.072,119.845 119.179,119.845 119.309 C 119.845 119.440,119.497 119.623,119.072 119.716 C 118.647 119.810,118.299 119.978,118.299 120.091 C 118.299 120.203,117.835 120.369,117.268 120.460 C 116.701 120.550,116.237 120.739,116.237 120.879 C 116.237 121.019,116.063 121.134,115.851 121.134 C 115.638 121.134,115.464 121.298,115.464 121.499 C 115.464 121.700,115.352 121.903,115.215 121.950 C 114.736 122.115,114.589 124.861,115.035 125.307 C 115.257 125.529,115.515 126.015,115.608 126.386 C 115.701 126.758,115.881 127.062,116.007 127.062 C 116.134 127.062,116.237 127.236,116.237 127.448 C 116.237 127.661,116.366 127.835,116.522 127.835 C 116.679 127.835,116.741 128.009,116.659 128.222 C 116.578 128.434,116.623 128.608,116.761 128.608 C 116.898 128.608,117.010 128.782,117.010 128.995 C 117.010 129.207,117.124 129.381,117.263 129.381 C 117.402 129.381,117.589 129.671,117.678 130.026 C 117.767 130.380,117.930 130.670,118.041 130.670 C 118.152 130.670,118.316 130.960,118.405 131.314 C 118.494 131.669,118.680 131.959,118.819 131.959 C 118.958 131.959,119.072 132.136,119.072 132.353 C 119.072 132.571,119.246 132.815,119.459 132.896 C 119.671 132.978,119.845 133.198,119.845 133.385 C 119.845 133.573,119.990 133.884,120.168 134.078 C 120.554 134.499,121.072 135.292,121.310 135.825 C 121.404 136.037,121.635 136.304,121.823 136.417 C 122.011 136.531,122.165 136.749,122.165 136.903 C 122.165 137.057,122.455 137.452,122.809 137.780 C 123.164 138.109,123.454 138.495,123.454 138.639 C 123.454 138.782,123.802 139.256,124.227 139.691 C 124.652 140.126,125.000 140.545,125.000 140.621 C 125.000 140.698,125.349 141.129,125.775 141.579 C 126.201 142.029,126.723 142.581,126.935 142.805 C 127.146 143.030,127.320 143.295,127.320 143.394 C 127.320 143.648,134.472 150.773,134.727 150.773 C 134.843 150.773,135.117 150.976,135.338 151.224 C 136.001 151.971,137.352 153.093,137.588 153.093 C 137.710 153.093,138.076 153.441,138.402 153.866 C 138.728 154.291,139.216 154.639,139.487 154.639 C 139.757 154.639,139.912 154.747,139.831 154.878 C 139.750 155.010,139.917 155.192,140.202 155.282 C 140.488 155.373,140.722 155.555,140.722 155.687 C 140.722 155.820,140.899 155.928,141.116 155.928 C 141.333 155.928,141.574 156.091,141.650 156.291 C 141.727 156.491,142.071 156.725,142.416 156.812 C 142.760 156.898,143.041 157.082,143.041 157.221 C 143.041 157.360,143.215 157.474,143.428 157.474 C 143.640 157.474,143.814 157.588,143.814 157.727 C 143.814 157.866,144.096 158.051,144.440 158.137 C 144.784 158.223,145.129 158.457,145.205 158.657 C 145.282 158.857,145.522 159.021,145.739 159.021 C 145.956 159.021,146.134 159.134,146.134 159.273 C 146.134 159.412,146.424 159.599,146.778 159.688 C 147.133 159.777,147.423 159.941,147.423 160.052 C 147.423 160.163,147.713 160.326,148.067 160.415 C 148.421 160.504,148.711 160.691,148.711 160.830 C 148.711 160.969,148.885 161.082,149.098 161.082 C 149.311 161.082,149.485 161.189,149.485 161.320 C 149.485 161.450,149.832 161.633,150.258 161.727 C 150.683 161.820,151.031 161.994,151.031 162.113 C 151.031 162.233,151.379 162.407,151.804 162.500 C 152.229 162.593,152.577 162.767,152.577 162.887 C 152.577 163.006,152.925 163.180,153.351 163.273 C 153.776 163.367,154.124 163.545,154.124 163.669 C 154.124 163.793,154.530 163.970,155.026 164.063 C 155.522 164.156,155.928 164.336,155.928 164.462 C 155.928 164.588,156.102 164.691,156.314 164.691 C 156.527 164.691,156.701 164.801,156.701 164.937 C 156.701 165.072,157.107 165.259,157.603 165.352 C 158.099 165.445,158.505 165.614,158.505 165.728 C 158.505 165.841,158.969 166.012,159.536 166.108 C 160.103 166.204,160.567 166.387,160.567 166.514 C 160.567 166.642,161.031 166.821,161.598 166.911 C 162.165 167.002,162.629 167.164,162.629 167.272 C 162.629 167.379,163.151 167.546,163.789 167.641 C 164.427 167.737,164.948 167.924,164.948 168.057 C 164.948 168.190,165.232 168.299,165.578 168.299 C 165.924 168.299,166.272 168.404,166.351 168.533 C 166.430 168.661,167.075 168.846,167.784 168.943 C 168.492 169.041,169.072 169.214,169.072 169.329 C 169.072 169.443,169.768 169.618,170.619 169.716 C 171.469 169.815,172.165 169.987,172.165 170.098 C 172.165 170.209,173.064 170.384,174.162 170.487 C 175.261 170.589,176.219 170.768,176.291 170.883 C 176.364 170.999,177.582 171.177,178.998 171.279 C 180.414 171.382,181.655 171.594,181.756 171.751 C 182.026 172.170,201.494 172.152,201.753 171.732 C 201.864 171.552,202.984 171.362,204.509 171.264 C 205.921 171.173,207.195 171.001,207.340 170.881 C 207.485 170.761,208.444 170.580,209.472 170.478 C 210.499 170.377,211.340 170.205,211.340 170.095 C 211.340 169.986,212.036 169.815,212.887 169.716 C 213.738 169.618,214.494 169.439,214.568 169.319 C 214.642 169.200,215.223 169.024,215.860 168.928 C 216.496 168.833,217.080 168.652,217.158 168.527 C 217.235 168.402,217.582 168.299,217.928 168.299 C 218.274 168.299,218.557 168.196,218.557 168.071 C 218.557 167.945,219.079 167.764,219.716 167.668 C 220.354 167.572,220.876 167.396,220.876 167.275 C 220.876 167.154,221.340 166.977,221.907 166.881 C 222.474 166.786,222.938 166.603,222.938 166.475 C 222.938 166.348,223.402 166.169,223.969 166.078 C 224.536 165.988,225.000 165.836,225.000 165.742 C 225.000 165.648,225.638 165.354,226.418 165.089 C 227.197 164.824,227.835 164.519,227.835 164.412 C 227.835 164.304,228.183 164.140,228.608 164.046 C 229.034 163.953,229.381 163.779,229.381 163.660 C 229.381 163.541,229.729 163.367,230.155 163.273 C 230.580 163.180,230.928 163.006,230.928 162.887 C 230.928 162.767,231.276 162.593,231.701 162.500 C 232.126 162.407,232.474 162.247,232.474 162.145 C 232.474 162.043,232.888 161.810,233.393 161.627 C 233.899 161.444,234.372 161.138,234.446 160.947 C 234.519 160.755,234.917 160.524,235.331 160.433 C 235.744 160.343,236.082 160.164,236.082 160.036 C 236.082 159.908,236.372 159.731,236.727 159.642 C 237.081 159.553,237.371 159.389,237.371 159.278 C 237.371 159.167,237.661 159.004,238.015 158.915 C 238.370 158.826,238.660 158.639,238.660 158.500 C 238.660 158.361,238.837 158.247,239.054 158.247 C 239.272 158.247,239.516 158.073,239.598 157.861 C 239.679 157.648,239.880 157.474,240.043 157.474 C 240.207 157.474,240.629 157.207,240.982 156.881 C 241.335 156.555,241.827 156.211,242.075 156.116 C 242.323 156.021,242.526 155.824,242.526 155.678 C 242.526 155.532,242.691 155.412,242.893 155.412 C 243.094 155.412,243.607 155.064,244.033 154.639 C 244.458 154.214,244.882 153.866,244.974 153.866 C 245.067 153.866,245.491 153.518,245.916 153.093 C 246.341 152.668,246.801 152.320,246.938 152.320 C 247.075 152.320,247.810 151.682,248.571 150.902 C 249.333 150.122,250.032 149.485,250.127 149.485 C 250.343 149.485,254.897 144.972,254.897 144.758 C 254.897 144.670,255.535 143.961,256.314 143.181 C 257.094 142.402,257.737 141.616,257.743 141.436 C 257.749 141.256,258.097 140.824,258.516 140.476 C 258.935 140.128,259.278 139.746,259.278 139.627 C 259.278 139.507,259.568 139.120,259.923 138.765 C 260.277 138.411,260.567 138.005,260.567 137.863 C 260.567 137.720,260.857 137.336,261.211 137.007 C 261.566 136.679,261.856 136.275,261.856 136.109 C 261.856 135.944,262.019 135.746,262.219 135.669 C 262.419 135.592,262.653 135.248,262.739 134.904 C 262.826 134.560,263.010 134.278,263.149 134.278 C 263.288 134.278,263.402 134.104,263.402 133.892 C 263.402 133.679,263.516 133.505,263.655 133.505 C 263.794 133.505,263.980 133.215,264.069 132.861 C 264.158 132.506,264.337 132.216,264.467 132.216 C 264.597 132.216,264.816 131.956,264.954 131.637 C 265.244 130.966,265.779 130.084,266.009 129.897 C 266.096 129.826,266.255 129.487,266.363 129.144 C 266.470 128.800,266.780 128.280,267.052 127.989 C 267.323 127.697,267.612 127.195,267.693 126.874 C 267.773 126.552,267.934 126.289,268.049 126.289 C 268.164 126.289,268.334 125.941,268.428 125.515 C 268.521 125.090,268.704 124.742,268.835 124.742 C 268.965 124.742,269.072 124.452,269.072 124.098 C 269.072 123.744,268.971 123.454,268.847 123.454 C 268.724 123.454,268.549 122.992,268.458 122.427 C 268.328 121.614,268.161 121.367,267.652 121.239 C 267.299 121.151,267.010 120.984,267.010 120.869 C 267.010 120.754,266.662 120.583,266.237 120.490 C 265.812 120.396,265.464 120.218,265.464 120.094 C 265.464 119.970,265.058 119.793,264.562 119.699 C 264.066 119.606,263.660 119.427,263.660 119.301 C 263.660 119.175,263.486 119.072,263.273 119.072 C 263.061 119.072,262.887 118.949,262.887 118.799 C 262.887 118.649,262.787 118.588,262.665 118.663 C 262.408 118.822,261.087 118.258,261.084 117.988 C 261.083 117.889,260.677 117.731,260.180 117.638 C 259.684 117.545,259.278 117.365,259.278 117.239 C 259.278 117.113,258.698 117.010,257.990 117.010 C 257.281 117.010,256.701 117.126,256.701 117.268 C 256.701 117.410,256.545 117.526,256.354 117.526 C 255.802 117.526,254.947 118.396,254.757 119.152 C 254.662 119.533,254.492 119.845,254.381 119.845 C 254.270 119.845,254.107 120.135,254.018 120.490 C 253.929 120.844,253.752 121.134,253.624 121.134 C 253.496 121.134,253.315 121.482,253.222 121.907 C 253.128 122.332,252.958 122.680,252.843 122.680 C 252.727 122.680,252.560 122.970,252.471 123.325 C 252.383 123.679,252.196 123.969,252.057 123.969 C 251.918 123.969,251.804 124.147,251.804 124.364 C 251.804 124.581,251.630 124.825,251.418 124.907 C 251.205 124.988,251.031 125.217,251.031 125.414 C 251.031 125.612,250.923 125.773,250.791 125.773 C 250.658 125.773,250.468 126.034,250.368 126.353 C 250.268 126.672,249.912 127.188,249.578 127.501 C 249.243 127.813,248.969 128.173,248.969 128.301 C 248.969 128.428,248.677 128.848,248.321 129.233 C 247.964 129.618,247.750 130.069,247.846 130.237 C 247.942 130.404,247.933 130.462,247.825 130.365 C 247.614 130.176,246.134 131.565,246.134 131.953 C 246.134 132.082,245.264 133.052,244.201 134.108 C 243.138 135.164,242.268 136.157,242.268 136.313 C 242.268 136.470,242.147 136.598,241.998 136.598 C 241.850 136.598,240.805 137.526,239.675 138.660 C 238.546 139.794,237.516 140.722,237.386 140.722 C 237.257 140.722,236.910 141.027,236.617 141.401 C 236.323 141.774,236.082 141.988,236.082 141.877 C 236.082 141.765,235.866 141.923,235.601 142.229 C 235.337 142.534,235.014 142.784,234.885 142.784 C 234.756 142.784,234.452 143.015,234.209 143.299 C 233.967 143.582,233.593 143.814,233.379 143.814 C 233.165 143.814,232.990 143.933,232.990 144.079 C 232.990 144.224,232.697 144.454,232.339 144.590 C 231.981 144.726,231.621 145.013,231.539 145.227 C 231.456 145.441,231.303 145.562,231.198 145.497 C 231.092 145.432,230.785 145.583,230.516 145.834 C 230.246 146.084,229.823 146.366,229.575 146.461 C 229.327 146.556,229.124 146.753,229.124 146.899 C 229.124 147.045,228.907 147.165,228.643 147.165 C 228.379 147.165,227.867 147.397,227.507 147.680 C 227.147 147.964,226.725 148.196,226.570 148.196 C 226.415 148.196,226.289 148.312,226.289 148.454 C 226.289 148.595,226.115 148.711,225.902 148.711 C 225.689 148.711,225.515 148.832,225.515 148.980 C 225.515 149.128,225.370 149.232,225.193 149.210 C 224.709 149.151,223.711 149.516,223.711 149.752 C 223.711 149.866,223.363 150.035,222.938 150.129 C 222.513 150.222,222.165 150.396,222.165 150.515 C 222.165 150.635,221.817 150.809,221.392 150.902 C 220.966 150.995,220.619 151.169,220.619 151.289 C 220.619 151.408,220.263 151.584,219.828 151.679 C 219.393 151.775,218.726 152.015,218.346 152.213 C 217.966 152.412,217.531 152.575,217.381 152.576 C 217.230 152.577,216.506 152.867,215.771 153.222 C 215.037 153.576,214.203 153.866,213.919 153.866 C 213.635 153.866,213.402 153.969,213.402 154.094 C 213.402 154.219,212.764 154.402,211.985 154.499 C 211.205 154.597,210.567 154.771,210.567 154.886 C 210.567 155.001,209.900 155.178,209.085 155.280 C 208.270 155.382,207.539 155.568,207.460 155.695 C 207.381 155.822,206.424 156.001,205.333 156.094 C 204.243 156.186,203.351 156.360,203.351 156.481 C 203.351 156.602,202.713 156.701,201.933 156.701 C 201.061 156.701,200.515 156.812,200.515 156.989 C 200.515 157.189,200.014 157.223,198.866 157.100 C 197.790 156.985,197.158 157.019,197.047 157.199 C 196.817 157.571,186.693 157.579,186.464 157.208 C 186.358 157.037,185.612 157.003,184.387 157.114 C 183.027 157.237,182.474 157.203,182.474 156.994 C 182.474 156.819,182.010 156.701,181.314 156.701 C 180.677 156.701,180.155 156.602,180.155 156.480 C 180.155 156.359,179.322 156.182,178.305 156.088 C 177.288 155.993,176.331 155.817,176.179 155.696 C 176.027 155.575,175.235 155.395,174.420 155.297 C 173.605 155.198,172.938 155.025,172.938 154.912 C 172.938 154.798,172.331 154.625,171.590 154.527 C 170.848 154.428,170.181 154.268,170.108 154.171 C 169.928 153.934,167.435 153.093,166.911 153.093 C 166.682 153.093,166.495 152.982,166.495 152.847 C 166.495 152.711,166.089 152.525,165.593 152.431 C 165.097 152.338,164.691 152.164,164.691 152.045 C 164.691 151.925,164.285 151.751,163.789 151.658 C 163.293 151.565,162.887 151.391,162.887 151.272 C 162.887 151.152,162.481 150.978,161.985 150.885 C 161.488 150.792,161.082 150.622,161.082 150.507 C 161.082 150.393,160.706 150.216,160.245 150.115 C 159.784 150.014,159.254 149.712,159.067 149.446 C 158.881 149.179,158.620 149.027,158.488 149.109 C 158.355 149.190,158.247 149.134,158.247 148.984 C 158.247 148.834,158.073 148.711,157.861 148.711 C 157.648 148.711,157.474 148.601,157.474 148.465 C 157.474 148.330,157.069 148.143,156.574 148.050 C 156.080 147.958,155.736 147.782,155.812 147.660 C 155.887 147.538,155.654 147.364,155.294 147.273 C 154.934 147.183,154.639 147.018,154.639 146.907 C 154.639 146.796,154.349 146.633,153.995 146.544 C 153.640 146.455,153.351 146.268,153.351 146.129 C 153.351 145.990,153.177 145.876,152.964 145.876 C 152.751 145.876,152.577 145.768,152.577 145.636 C 152.577 145.504,152.327 145.316,152.022 145.219 C 151.716 145.122,151.223 144.787,150.926 144.474 C 150.629 144.161,150.184 143.830,149.936 143.739 C 149.688 143.648,149.485 143.453,149.485 143.307 C 149.485 143.161,149.312 143.041,149.100 143.041 C 148.889 143.041,148.383 142.693,147.977 142.268 C 147.571 141.843,147.159 141.495,147.063 141.495 C 146.967 141.495,146.344 140.973,145.678 140.335 C 145.012 139.697,144.387 139.175,144.288 139.175 C 144.037 139.175,138.918 134.078,138.918 133.828 C 138.918 133.716,138.396 133.080,137.758 132.415 C 137.120 131.749,136.598 131.133,136.598 131.046 C 136.598 130.959,136.250 130.540,135.825 130.115 C 135.399 129.690,135.052 129.229,135.052 129.092 C 135.052 128.954,134.791 128.585,134.472 128.272 C 133.812 127.624,133.300 126.874,133.086 126.242 C 133.005 126.004,132.776 125.746,132.578 125.670 C 132.379 125.594,132.216 125.354,132.216 125.137 C 132.216 124.920,132.103 124.742,131.964 124.742 C 131.825 124.742,131.638 124.452,131.549 124.098 C 131.460 123.744,131.284 123.454,131.158 123.454 C 131.031 123.454,130.928 123.288,130.928 123.085 C 130.928 122.883,130.783 122.564,130.606 122.377 C 130.428 122.189,130.014 121.485,129.686 120.812 C 129.357 120.139,128.980 119.588,128.848 119.588 C 128.716 119.588,128.608 119.349,128.608 119.057 C 128.608 118.765,128.501 118.593,128.369 118.674 C 128.237 118.756,128.092 118.559,128.047 118.238 C 127.987 117.819,127.764 117.632,127.255 117.573 C 126.865 117.528,126.546 117.383,126.546 117.251 C 126.546 117.119,126.024 117.010,125.387 117.010 C 124.749 117.010,124.227 117.126,124.227 117.268 M227.642 214.605 C 227.039 214.669,226.546 214.814,226.546 214.928 C 226.546 215.043,226.048 215.204,225.440 215.288 C 224.831 215.371,223.990 215.618,223.571 215.837 C 223.152 216.055,222.664 216.235,222.487 216.236 C 222.310 216.236,222.165 216.340,222.165 216.465 C 222.165 216.590,221.962 216.761,221.714 216.844 C 221.083 217.056,220.362 217.554,219.704 218.235 C 219.395 218.553,219.039 218.816,218.914 218.819 C 218.621 218.825,217.526 219.974,217.526 220.276 C 217.526 220.402,217.300 220.667,217.024 220.866 C 216.748 221.065,216.581 221.323,216.653 221.439 C 216.724 221.555,216.660 221.649,216.510 221.649 C 216.360 221.649,216.237 221.811,216.237 222.009 C 216.237 222.206,216.063 222.434,215.851 222.516 C 215.638 222.597,215.464 222.842,215.464 223.059 C 215.464 223.276,215.357 223.454,215.227 223.454 C 215.096 223.454,214.913 223.802,214.820 224.227 C 214.726 224.652,214.553 225.000,214.435 225.000 C 214.317 225.000,214.142 225.464,214.046 226.031 C 213.951 226.598,213.766 227.062,213.637 227.062 C 213.508 227.062,213.402 227.345,213.402 227.691 C 213.402 228.037,213.292 228.388,213.157 228.471 C 213.023 228.554,212.956 228.966,213.009 229.385 C 213.063 229.805,212.999 230.214,212.867 230.295 C 212.736 230.376,212.629 231.132,212.629 231.974 C 212.629 232.823,212.514 233.505,212.371 233.505 C 212.216 233.505,212.113 234.536,212.113 236.082 C 212.113 237.629,212.216 238.660,212.371 238.660 C 212.517 238.660,212.629 239.390,212.629 240.335 C 212.629 241.404,212.734 242.010,212.919 242.010 C 213.104 242.010,213.153 242.291,213.054 242.784 C 212.967 243.220,213.009 243.557,213.151 243.557 C 213.289 243.557,213.402 243.905,213.402 244.330 C 213.402 244.755,213.517 245.103,213.657 245.103 C 213.797 245.103,213.986 245.567,214.076 246.134 C 214.167 246.701,214.333 247.165,214.445 247.165 C 214.558 247.165,214.726 247.513,214.820 247.938 C 214.913 248.363,215.084 248.711,215.199 248.711 C 215.314 248.711,215.481 249.001,215.570 249.356 C 215.659 249.710,215.845 250.000,215.984 250.000 C 216.123 250.000,216.237 250.141,216.237 250.314 C 216.237 250.673,217.474 251.804,217.867 251.804 C 218.010 251.804,218.055 251.876,217.967 251.965 C 217.739 252.193,219.878 254.275,220.563 254.493 C 220.877 254.592,221.134 254.773,221.134 254.894 C 221.134 255.015,221.482 255.190,221.907 255.284 C 222.332 255.377,222.680 255.560,222.680 255.691 C 222.680 255.821,222.854 255.928,223.067 255.928 C 223.280 255.928,223.454 256.039,223.454 256.174 C 223.454 256.309,223.889 256.500,224.420 256.598 C 224.952 256.695,225.450 256.873,225.528 256.991 C 226.058 257.802,238.350 257.841,238.881 257.034 C 238.972 256.895,239.451 256.703,239.946 256.607 C 241.056 256.390,242.268 255.869,242.268 255.607 C 242.268 255.500,242.446 255.412,242.663 255.412 C 242.880 255.412,243.120 255.249,243.197 255.049 C 243.274 254.849,243.618 254.615,243.962 254.529 C 244.306 254.442,244.588 254.258,244.588 254.119 C 244.588 253.980,244.733 253.866,244.910 253.866 C 245.087 253.866,245.580 253.513,246.005 253.083 C 246.430 252.652,246.981 252.105,247.229 251.866 C 247.477 251.627,247.680 251.309,247.680 251.159 C 247.680 251.010,247.912 250.720,248.196 250.515 C 248.479 250.311,248.711 250.043,248.711 249.919 C 248.711 249.796,248.943 249.400,249.227 249.039 C 249.510 248.679,249.742 248.168,249.742 247.903 C 249.742 247.639,249.853 247.423,249.988 247.423 C 250.124 247.423,250.311 247.017,250.404 246.521 C 250.497 246.024,250.668 245.619,250.783 245.619 C 250.899 245.619,251.074 244.981,251.171 244.201 C 251.268 243.421,251.451 242.784,251.576 242.784 C 251.702 242.784,251.804 242.320,251.804 241.753 C 251.804 241.186,251.920 240.722,252.062 240.722 C 252.224 240.722,252.320 239.009,252.320 236.098 C 252.320 233.293,252.218 231.411,252.062 231.314 C 251.920 231.227,251.804 230.698,251.804 230.139 C 251.804 229.581,251.702 229.124,251.576 229.124 C 251.451 229.124,251.268 228.486,251.171 227.706 C 251.074 226.927,250.895 226.289,250.775 226.289 C 250.655 226.289,250.480 225.941,250.387 225.515 C 250.293 225.090,250.119 224.742,250.000 224.742 C 249.881 224.742,249.707 224.394,249.613 223.969 C 249.520 223.544,249.349 223.196,249.234 223.196 C 249.119 223.196,248.952 222.906,248.863 222.552 C 248.774 222.197,248.588 221.907,248.449 221.907 C 248.310 221.907,248.196 221.784,248.196 221.634 C 248.196 221.275,244.990 218.041,244.634 218.041 C 244.483 218.041,244.208 217.826,244.022 217.563 C 243.837 217.300,243.425 217.002,243.106 216.901 C 242.787 216.800,242.526 216.615,242.526 216.489 C 242.526 216.363,242.119 216.184,241.621 216.091 C 241.123 215.997,240.659 215.828,240.589 215.715 C 240.519 215.602,239.969 215.426,239.367 215.326 C 238.766 215.225,238.197 215.023,238.104 214.876 C 237.929 214.599,229.715 214.387,227.642 214.605 M359.795 214.610 C 359.299 214.677,358.772 214.834,358.622 214.958 C 358.473 215.082,357.864 215.261,357.268 215.357 C 356.673 215.452,356.186 215.618,356.186 215.727 C 356.186 215.835,355.872 216.002,355.490 216.098 C 355.107 216.194,354.533 216.555,354.214 216.899 C 353.894 217.244,353.560 217.526,353.472 217.526 C 353.193 217.526,351.804 219.019,351.804 219.318 C 351.804 219.475,351.630 219.671,351.418 219.752 C 351.205 219.834,351.031 220.012,351.031 220.149 C 351.031 220.286,350.857 220.572,350.644 220.784 C 350.432 220.997,350.258 221.453,350.258 221.797 C 350.258 222.141,350.129 222.423,349.971 222.423 C 349.798 222.423,349.729 222.732,349.797 223.196 C 349.860 223.621,349.811 223.969,349.688 223.969 C 349.345 223.969,349.616 229.726,349.964 229.842 C 350.126 229.896,350.258 230.225,350.258 230.574 C 350.258 230.923,350.548 231.499,350.902 231.853 C 351.256 232.208,351.546 232.600,351.546 232.725 C 351.546 233.061,353.149 234.676,353.673 234.869 C 353.921 234.961,354.124 235.150,354.124 235.290 C 354.124 235.429,354.530 235.620,355.026 235.713 C 355.522 235.806,355.928 235.976,355.928 236.091 C 355.928 236.205,356.276 236.376,356.701 236.469 C 357.126 236.562,357.474 236.746,357.474 236.876 C 357.474 237.007,357.822 237.113,358.247 237.113 C 358.673 237.113,359.021 237.221,359.021 237.353 C 359.021 237.484,359.688 237.672,360.503 237.771 C 361.318 237.870,362.101 238.040,362.242 238.150 C 362.384 238.260,363.631 238.433,365.013 238.535 C 366.395 238.637,367.526 238.808,367.526 238.915 C 367.526 239.022,368.101 239.185,368.804 239.278 C 369.507 239.372,370.143 239.547,370.219 239.669 C 370.294 239.791,370.762 239.966,371.260 240.060 C 371.758 240.153,372.165 240.315,372.165 240.420 C 372.165 240.525,372.513 240.816,372.938 241.067 C 373.363 241.318,373.711 241.666,373.711 241.839 C 373.711 242.012,373.943 242.321,374.226 242.525 C 374.547 242.757,374.686 243.069,374.595 243.355 C 374.513 243.615,374.579 243.814,374.748 243.814 C 374.957 243.814,375.003 244.297,374.904 245.425 C 374.827 246.311,374.751 247.239,374.737 247.487 C 374.722 247.735,374.601 247.938,374.469 247.938 C 374.336 247.938,374.227 248.060,374.227 248.209 C 374.227 248.580,372.570 250.258,372.203 250.258 C 372.040 250.258,371.907 250.363,371.907 250.491 C 371.907 250.620,371.327 250.805,370.619 250.902 C 369.910 251.000,369.330 251.184,369.330 251.313 C 369.330 251.442,367.654 251.546,365.593 251.546 C 363.531 251.546,361.856 251.442,361.856 251.313 C 361.856 251.184,361.276 251.000,360.567 250.902 C 359.858 250.805,359.278 250.632,359.278 250.519 C 359.278 250.406,358.991 250.241,358.639 250.153 C 357.879 249.962,356.186 248.339,356.186 247.801 C 356.186 247.593,356.063 247.423,355.913 247.423 C 355.763 247.423,355.706 247.315,355.788 247.183 C 355.870 247.051,355.818 246.870,355.674 246.781 C 355.530 246.692,355.412 246.278,355.412 245.861 C 355.412 245.444,355.303 245.103,355.169 245.103 C 355.036 245.103,354.891 244.610,354.847 244.008 L 354.768 242.912 352.062 242.837 C 348.226 242.731,348.196 242.743,348.196 244.464 C 348.196 245.241,348.295 245.876,348.416 245.876 C 348.538 245.876,348.709 246.651,348.798 247.597 C 348.886 248.544,349.067 249.386,349.201 249.469 C 349.334 249.551,349.523 249.936,349.621 250.325 C 349.718 250.713,349.902 251.031,350.028 251.031 C 350.154 251.031,350.258 251.207,350.258 251.423 C 350.258 251.902,352.991 254.639,353.469 254.639 C 353.657 254.639,353.878 254.813,353.959 255.026 C 354.041 255.238,354.285 255.412,354.502 255.412 C 354.719 255.412,354.897 255.528,354.897 255.670 C 354.897 255.812,355.129 255.928,355.412 255.928 C 355.696 255.928,355.928 256.035,355.928 256.165 C 355.928 256.296,356.305 256.483,356.765 256.581 C 357.226 256.680,357.719 256.854,357.862 256.967 C 358.980 257.862,372.347 257.873,372.933 256.980 C 373.007 256.868,373.502 256.695,374.034 256.598 C 374.565 256.500,375.000 256.309,375.000 256.174 C 375.000 256.039,375.174 255.928,375.387 255.928 C 375.599 255.928,375.773 255.824,375.773 255.698 C 375.773 255.572,376.078 255.392,376.451 255.298 C 376.823 255.205,377.470 254.786,377.888 254.368 C 378.306 253.950,378.762 253.608,378.901 253.608 C 379.040 253.608,379.090 253.504,379.012 253.378 C 378.933 253.251,379.044 253.080,379.258 252.998 C 379.472 252.915,379.758 252.555,379.894 252.197 C 380.031 251.839,380.255 251.546,380.394 251.546 C 380.533 251.546,380.727 251.111,380.824 250.580 C 380.922 250.048,381.130 249.531,381.287 249.429 C 381.677 249.177,381.681 241.547,381.291 241.292 C 381.136 241.191,380.935 240.729,380.845 240.266 C 380.664 239.336,380.649 239.312,379.107 237.564 C 378.513 236.891,377.880 236.340,377.701 236.340 C 377.522 236.340,377.308 236.166,377.226 235.954 C 377.145 235.741,376.900 235.567,376.683 235.567 C 376.466 235.567,376.289 235.456,376.289 235.321 C 376.289 235.186,375.883 234.999,375.387 234.906 C 374.890 234.813,374.485 234.639,374.485 234.519 C 374.485 234.400,374.079 234.226,373.582 234.132 C 373.086 234.039,372.680 233.872,372.680 233.760 C 372.680 233.649,371.869 233.476,370.876 233.376 C 369.884 233.277,369.072 233.091,369.072 232.964 C 369.072 232.836,368.434 232.732,367.655 232.732 C 366.875 232.732,366.237 232.628,366.237 232.501 C 366.237 232.374,365.309 232.188,364.175 232.088 C 363.041 231.987,362.113 231.816,362.113 231.708 C 362.113 231.600,361.633 231.447,361.045 231.368 C 360.458 231.289,359.907 231.116,359.821 230.982 C 359.735 230.849,359.379 230.650,359.031 230.541 C 358.175 230.274,357.024 229.086,356.815 228.255 C 356.722 227.882,356.542 227.577,356.415 227.577 C 356.289 227.577,356.186 226.939,356.186 226.160 C 356.186 225.380,356.289 224.742,356.415 224.742 C 356.542 224.742,356.722 224.437,356.815 224.065 C 356.996 223.344,358.280 221.907,358.743 221.907 C 358.896 221.907,359.021 221.804,359.021 221.677 C 359.021 221.551,359.338 221.368,359.727 221.270 C 360.115 221.173,360.517 220.957,360.619 220.791 C 360.865 220.395,368.249 220.385,368.508 220.782 C 368.606 220.932,369.125 221.124,369.662 221.208 C 370.199 221.293,370.991 221.659,371.421 222.021 C 371.852 222.384,372.312 222.680,372.442 222.680 C 372.573 222.680,372.680 222.846,372.680 223.049 C 372.680 223.251,372.868 223.605,373.098 223.834 C 373.362 224.098,373.566 224.884,373.653 225.973 C 373.838 228.281,373.938 228.351,377.043 228.351 C 380.268 228.351,380.670 228.081,380.670 225.917 C 380.670 225.146,380.570 224.453,380.448 224.378 C 380.326 224.303,380.157 223.745,380.073 223.138 C 379.888 221.817,378.988 219.876,378.467 219.676 C 378.261 219.597,378.093 219.388,378.093 219.211 C 378.093 218.810,376.924 217.526,376.559 217.526 C 376.410 217.526,376.289 217.418,376.289 217.285 C 376.289 217.153,376.033 216.964,375.721 216.865 C 375.408 216.766,374.994 216.526,374.800 216.332 C 374.606 216.138,374.234 215.979,373.972 215.979 C 373.711 215.979,373.455 215.856,373.405 215.705 C 373.355 215.554,372.794 215.363,372.159 215.280 C 371.525 215.197,370.925 215.005,370.827 214.854 C 370.642 214.571,361.552 214.369,359.795 214.610 M0.414 215.098 C 0.328 215.323,0.258 224.891,0.258 236.361 L 0.258 257.216 13.789 257.216 L 27.320 257.216 27.316 254.446 C 27.313 252.922,27.220 251.532,27.109 251.356 C 26.955 251.113,24.505 251.021,16.868 250.970 L 6.830 250.902 6.764 233.163 C 6.708 218.236,6.639 215.365,6.331 215.057 C 5.771 214.497,0.631 214.533,0.414 215.098 M38.465 215.078 C 38.210 215.368,38.155 219.848,38.207 236.267 L 38.273 257.088 41.430 257.160 L 44.588 257.232 44.588 236.330 C 44.588 218.558,44.532 215.372,44.219 215.059 C 43.698 214.538,38.927 214.553,38.465 215.078 M59.472 215.179 C 58.897 215.761,58.759 256.336,59.330 256.907 C 59.839 257.416,65.366 257.329,65.565 256.809 C 65.651 256.585,65.722 249.626,65.722 241.345 C 65.722 233.064,65.788 226.289,65.869 226.289 C 66.197 226.289,66.775 227.075,66.625 227.318 C 66.537 227.460,66.587 227.577,66.737 227.577 C 66.887 227.577,67.010 227.739,67.010 227.936 C 67.010 228.134,67.184 228.362,67.397 228.444 C 67.610 228.525,67.784 228.770,67.784 228.987 C 67.784 229.204,67.892 229.381,68.024 229.381 C 68.156 229.381,68.345 229.637,68.444 229.949 C 68.544 230.262,68.783 230.676,68.977 230.870 C 69.171 231.064,69.330 231.376,69.330 231.563 C 69.330 231.750,69.504 231.970,69.716 232.052 C 69.929 232.134,70.103 232.328,70.103 232.483 C 70.103 232.789,71.397 234.610,71.714 234.751 C 71.820 234.798,71.907 235.005,71.907 235.210 C 71.907 235.415,72.081 235.650,72.294 235.732 C 72.506 235.813,72.680 236.033,72.680 236.221 C 72.680 236.408,72.839 236.720,73.033 236.914 C 73.227 237.108,73.475 237.551,73.585 237.899 C 73.695 238.246,74.018 238.734,74.303 238.982 C 74.588 239.230,74.716 239.437,74.588 239.442 C 74.460 239.446,74.602 239.656,74.902 239.907 C 75.203 240.158,75.530 240.618,75.628 240.929 C 75.727 241.240,75.904 241.495,76.020 241.495 C 76.137 241.495,76.306 241.785,76.394 242.139 C 76.483 242.494,76.670 242.784,76.809 242.784 C 76.948 242.784,77.062 242.961,77.062 243.178 C 77.062 243.395,77.225 243.636,77.425 243.712 C 77.625 243.789,77.859 244.133,77.946 244.477 C 78.032 244.822,78.216 245.103,78.355 245.103 C 78.494 245.103,78.608 245.277,78.608 245.490 C 78.608 245.702,78.722 245.876,78.861 245.876 C 79.000 245.876,79.187 246.166,79.276 246.521 C 79.365 246.875,79.538 247.165,79.661 247.165 C 79.784 247.165,80.122 247.687,80.412 248.325 C 80.703 248.963,81.041 249.485,81.164 249.485 C 81.287 249.485,81.460 249.774,81.549 250.129 C 81.638 250.483,81.825 250.773,81.964 250.773 C 82.103 250.773,82.216 250.947,82.216 251.160 C 82.216 251.372,82.335 251.546,82.481 251.546 C 82.626 251.546,82.858 251.807,82.995 252.126 C 83.299 252.828,83.779 253.592,84.214 254.067 C 84.391 254.260,84.536 254.572,84.536 254.759 C 84.536 254.946,84.710 255.166,84.923 255.248 C 85.135 255.329,85.309 255.553,85.309 255.744 C 85.309 257.094,92.258 258.037,93.446 256.848 C 93.999 256.296,93.999 215.611,93.446 215.059 C 92.884 214.496,87.488 214.531,87.270 215.098 C 87.184 215.323,87.113 222.361,87.113 230.740 C 87.113 245.655,87.103 245.963,86.629 245.454 C 86.363 245.168,86.065 244.681,85.967 244.371 C 85.868 244.061,85.680 243.873,85.548 243.955 C 85.417 244.036,85.309 243.860,85.309 243.564 C 85.309 243.268,85.146 242.962,84.946 242.886 C 84.746 242.809,84.512 242.465,84.426 242.121 C 84.339 241.776,84.155 241.495,84.016 241.495 C 83.877 241.495,83.763 241.317,83.763 241.100 C 83.763 240.883,83.589 240.639,83.376 240.557 C 83.164 240.476,82.990 240.202,82.990 239.948 C 82.990 239.695,82.816 239.421,82.603 239.340 C 82.390 239.258,82.216 239.014,82.216 238.797 C 82.216 238.580,82.103 238.402,81.964 238.402 C 81.825 238.402,81.638 238.112,81.549 237.758 C 81.460 237.403,81.297 237.113,81.186 237.113 C 81.075 237.113,80.911 236.823,80.822 236.469 C 80.733 236.115,80.547 235.825,80.407 235.825 C 80.268 235.825,80.155 235.647,80.155 235.430 C 80.155 235.213,79.991 234.973,79.791 234.896 C 79.591 234.819,79.357 234.475,79.271 234.131 C 79.185 233.787,79.000 233.505,78.861 233.505 C 78.722 233.505,78.608 233.331,78.608 233.119 C 78.608 232.906,78.494 232.732,78.355 232.732 C 78.216 232.732,78.032 232.450,77.946 232.106 C 77.859 231.762,77.625 231.418,77.425 231.341 C 77.225 231.264,77.062 231.024,77.062 230.807 C 77.062 230.590,76.948 230.412,76.809 230.412 C 76.670 230.412,76.486 230.131,76.399 229.787 C 76.313 229.443,76.079 229.098,75.879 229.022 C 75.679 228.945,75.515 228.711,75.515 228.502 C 75.515 228.293,75.292 227.965,75.018 227.774 C 74.745 227.582,74.442 227.112,74.346 226.728 C 74.250 226.345,74.075 226.031,73.958 226.031 C 73.842 226.031,73.665 225.770,73.565 225.451 C 73.466 225.132,73.313 224.813,73.226 224.742 C 72.954 224.521,71.907 222.968,71.907 222.786 C 71.907 222.690,71.692 222.424,71.429 222.195 C 71.165 221.966,70.868 221.517,70.767 221.198 C 70.666 220.880,70.476 220.619,70.343 220.619 C 70.211 220.619,70.103 220.441,70.103 220.224 C 70.103 220.007,69.940 219.766,69.740 219.690 C 69.540 219.613,69.306 219.269,69.219 218.925 C 69.133 218.581,68.949 218.299,68.810 218.299 C 68.670 218.299,68.557 218.133,68.557 217.931 C 68.557 217.728,68.412 217.409,68.235 217.222 C 68.057 217.035,67.751 216.568,67.553 216.185 C 67.340 215.771,66.896 215.423,66.458 215.327 C 66.053 215.238,65.722 215.058,65.722 214.928 C 65.722 214.445,59.968 214.675,59.472 215.179 M108.404 215.098 C 108.318 215.323,108.247 224.891,108.247 236.361 L 108.247 257.216 111.289 257.216 C 113.310 257.216,114.434 257.113,114.639 256.907 C 114.873 256.674,114.948 252.944,114.948 241.701 C 114.948 227.528,115.041 225.620,115.647 227.255 C 115.739 227.503,116.036 227.903,116.307 228.144 C 116.578 228.384,116.737 228.682,116.661 228.805 C 116.585 228.929,116.748 229.193,117.024 229.391 C 117.300 229.590,117.526 229.905,117.526 230.091 C 117.526 230.277,117.693 230.493,117.897 230.571 C 118.101 230.649,118.342 231.051,118.433 231.465 C 118.523 231.878,118.697 232.216,118.818 232.216 C 118.938 232.216,119.119 232.477,119.218 232.796 C 119.318 233.115,119.471 233.434,119.558 233.505 C 119.645 233.576,120.116 234.214,120.605 234.923 C 121.094 235.631,121.571 236.269,121.666 236.340 C 121.760 236.411,121.919 236.730,122.019 237.049 C 122.118 237.368,122.308 237.629,122.440 237.629 C 122.572 237.629,122.680 237.806,122.680 238.024 C 122.680 238.241,122.844 238.481,123.044 238.558 C 123.244 238.634,123.478 238.979,123.564 239.323 C 123.650 239.667,123.835 239.948,123.974 239.948 C 124.113 239.948,124.227 240.122,124.227 240.335 C 124.227 240.548,124.341 240.722,124.480 240.722 C 124.619 240.722,124.805 241.012,124.894 241.366 C 124.983 241.720,125.159 242.010,125.286 242.010 C 125.412 242.010,125.515 242.188,125.515 242.405 C 125.515 242.622,125.689 242.866,125.902 242.948 C 126.115 243.030,126.289 243.250,126.289 243.437 C 126.289 243.624,126.447 243.936,126.641 244.130 C 126.835 244.324,127.075 244.738,127.174 245.051 C 127.273 245.363,127.462 245.619,127.595 245.619 C 127.727 245.619,127.835 245.796,127.835 246.013 C 127.835 246.230,128.009 246.475,128.222 246.556 C 128.434 246.638,128.608 246.866,128.608 247.064 C 128.608 247.261,128.716 247.423,128.849 247.423 C 128.981 247.423,129.170 247.678,129.269 247.991 C 129.368 248.303,129.608 248.717,129.802 248.911 C 129.996 249.105,130.155 249.417,130.155 249.604 C 130.155 249.792,130.329 250.012,130.541 250.093 C 130.754 250.175,130.928 250.419,130.928 250.636 C 130.928 250.853,131.042 251.031,131.181 251.031 C 131.320 251.031,131.506 251.321,131.595 251.675 C 131.684 252.030,131.860 252.320,131.987 252.320 C 132.113 252.320,132.216 252.494,132.216 252.706 C 132.216 252.919,132.330 253.093,132.469 253.093 C 132.608 253.093,132.793 253.374,132.879 253.718 C 132.966 254.063,133.200 254.407,133.400 254.484 C 133.599 254.560,133.763 254.801,133.763 255.018 C 133.763 255.235,133.877 255.412,134.016 255.412 C 134.155 255.412,134.341 255.702,134.430 256.057 C 134.519 256.411,134.753 256.701,134.951 256.701 C 135.148 256.701,135.309 256.817,135.309 256.959 C 135.309 257.118,136.684 257.216,138.918 257.216 L 142.526 257.216 142.526 236.361 C 142.526 224.891,142.455 215.323,142.369 215.098 C 142.176 214.595,137.046 214.493,136.523 214.981 C 136.285 215.204,136.227 218.933,136.280 230.836 C 136.347 246.174,136.341 246.392,135.854 245.906 C 135.582 245.634,135.283 245.168,135.188 244.871 C 135.094 244.573,134.921 244.330,134.804 244.330 C 134.688 244.330,134.519 244.040,134.430 243.686 C 134.341 243.331,134.155 243.041,134.016 243.041 C 133.877 243.041,133.763 242.864,133.763 242.647 C 133.763 242.429,133.589 242.185,133.376 242.104 C 133.164 242.022,132.990 241.794,132.990 241.596 C 132.990 241.399,132.874 241.237,132.732 241.237 C 132.590 241.237,132.474 241.071,132.474 240.869 C 132.474 240.666,132.316 240.342,132.122 240.148 C 131.928 239.954,131.688 239.540,131.589 239.228 C 131.490 238.915,131.300 238.660,131.168 238.660 C 131.036 238.660,130.928 238.482,130.928 238.265 C 130.928 238.048,130.754 237.804,130.541 237.722 C 130.329 237.640,130.155 237.420,130.155 237.233 C 130.155 237.046,130.010 236.734,129.832 236.541 C 129.369 236.036,128.874 235.248,128.704 234.747 C 128.624 234.509,128.395 234.252,128.196 234.175 C 127.998 234.099,127.835 233.859,127.835 233.642 C 127.835 233.425,127.727 233.247,127.595 233.247 C 127.462 233.247,127.273 232.992,127.174 232.680 C 127.075 232.367,126.835 231.953,126.641 231.759 C 126.447 231.565,126.289 231.241,126.289 231.038 C 126.289 230.836,126.173 230.670,126.031 230.670 C 125.889 230.670,125.773 230.502,125.773 230.296 C 125.773 230.091,125.628 229.830,125.451 229.716 C 125.127 229.509,124.633 228.809,124.304 228.093 C 124.207 227.880,123.975 227.553,123.790 227.366 C 123.605 227.178,123.454 226.859,123.454 226.657 C 123.454 226.454,123.335 226.289,123.189 226.289 C 123.044 226.289,122.813 226.028,122.675 225.709 C 122.327 224.904,121.851 224.176,121.374 223.715 C 121.151 223.500,120.894 223.122,120.802 222.874 C 120.710 222.626,120.515 222.423,120.369 222.423 C 120.223 222.423,120.103 222.187,120.103 221.899 C 120.103 221.611,119.940 221.313,119.740 221.236 C 119.540 221.159,119.299 220.787,119.204 220.409 C 119.109 220.031,118.947 219.663,118.844 219.590 C 118.741 219.518,118.267 218.850,117.790 218.106 C 117.314 217.361,116.840 216.753,116.737 216.753 C 116.635 216.753,116.478 216.464,116.390 216.112 C 116.291 215.717,115.984 215.410,115.589 215.311 C 115.237 215.223,114.948 215.047,114.948 214.921 C 114.948 214.469,108.579 214.642,108.404 215.098 M153.966 215.359 C 153.716 216.356,154.005 222.447,154.312 222.641 C 154.457 222.734,154.660 223.418,154.761 224.162 C 154.862 224.907,155.050 225.515,155.179 225.515 C 155.307 225.515,155.412 225.863,155.412 226.289 C 155.412 226.714,155.519 227.062,155.650 227.062 C 155.780 227.062,155.968 227.816,156.066 228.737 C 156.165 229.659,156.333 230.412,156.440 230.412 C 156.547 230.412,156.711 230.988,156.804 231.690 C 156.897 232.393,157.075 233.031,157.199 233.108 C 157.322 233.184,157.504 233.943,157.603 234.793 C 157.702 235.644,157.876 236.340,157.990 236.340 C 158.104 236.340,158.278 237.036,158.376 237.887 C 158.475 238.737,158.660 239.433,158.788 239.433 C 158.916 239.433,159.021 239.723,159.021 240.077 C 159.021 240.432,159.146 240.722,159.299 240.722 C 159.474 240.722,159.514 241.008,159.407 241.495 C 159.300 241.981,159.341 242.268,159.516 242.268 C 159.669 242.268,159.794 242.616,159.794 243.041 C 159.794 243.466,159.896 243.814,160.022 243.814 C 160.147 243.814,160.330 244.568,160.429 245.490 C 160.527 246.411,160.701 247.165,160.816 247.165 C 160.930 247.165,161.103 247.803,161.200 248.582 C 161.298 249.362,161.474 250.000,161.591 250.000 C 161.709 250.000,161.886 250.696,161.985 251.546 C 162.083 252.397,162.269 253.093,162.396 253.093 C 162.524 253.093,162.629 253.441,162.629 253.866 C 162.629 254.291,162.753 254.639,162.905 254.639 C 163.057 254.639,163.145 254.914,163.101 255.250 C 162.900 256.783,163.754 257.216,166.977 257.216 C 170.247 257.216,170.876 256.919,170.876 255.373 C 170.876 254.969,170.992 254.639,171.134 254.639 C 171.276 254.639,171.392 254.414,171.392 254.139 C 171.392 253.864,171.494 253.575,171.619 253.498 C 171.745 253.421,171.930 252.689,172.032 251.872 C 172.134 251.055,172.325 250.320,172.456 250.238 C 172.587 250.157,172.765 249.490,172.852 248.756 C 172.939 248.023,173.106 247.423,173.223 247.423 C 173.340 247.423,173.513 246.843,173.607 246.134 C 173.701 245.425,173.870 244.845,173.984 244.845 C 174.097 244.845,174.269 244.207,174.367 243.428 C 174.464 242.648,174.647 242.010,174.772 242.010 C 174.897 242.010,175.000 241.727,175.000 241.381 C 175.000 241.035,175.105 240.687,175.234 240.608 C 175.362 240.528,175.547 239.884,175.644 239.175 C 175.742 238.466,175.913 237.887,176.025 237.887 C 176.138 237.887,176.309 237.249,176.406 236.469 C 176.504 235.689,176.678 235.052,176.793 235.052 C 176.908 235.052,177.082 234.414,177.180 233.634 C 177.277 232.854,177.453 232.216,177.571 232.216 C 177.688 232.216,177.865 231.521,177.964 230.670 C 178.063 229.820,178.248 229.124,178.376 229.124 C 178.504 229.124,178.608 228.834,178.608 228.479 C 178.608 228.125,178.724 227.835,178.866 227.835 C 179.008 227.835,179.125 227.516,179.128 227.126 C 179.138 225.336,179.737 225.511,180.009 227.384 C 180.106 228.057,180.279 228.608,180.392 228.608 C 180.506 228.608,180.669 229.208,180.756 229.942 C 180.843 230.675,181.019 231.342,181.148 231.424 C 181.276 231.505,181.464 232.181,181.565 232.925 C 181.666 233.669,181.854 234.278,181.983 234.278 C 182.111 234.278,182.216 234.532,182.216 234.841 C 182.216 235.552,183.020 238.488,183.262 238.660 C 183.361 238.731,183.526 239.398,183.627 240.142 C 183.728 240.886,183.903 241.495,184.015 241.495 C 184.127 241.495,184.299 242.133,184.396 242.912 C 184.493 243.692,184.667 244.330,184.783 244.330 C 184.898 244.330,185.072 244.968,185.169 245.747 C 185.267 246.527,185.454 247.165,185.586 247.165 C 185.717 247.165,185.825 247.513,185.825 247.938 C 185.825 248.363,185.954 248.711,186.113 248.711 C 186.273 248.711,186.341 248.939,186.266 249.227 C 186.191 249.510,186.236 249.807,186.364 249.886 C 186.493 249.965,186.598 250.372,186.598 250.788 C 186.598 251.205,186.706 251.546,186.837 251.546 C 186.969 251.546,187.156 252.184,187.253 252.964 C 187.351 253.744,187.523 254.381,187.636 254.381 C 187.749 254.381,187.923 254.868,188.024 255.462 C 188.307 257.140,188.481 257.216,192.010 257.216 C 195.656 257.216,195.749 257.167,196.011 255.068 C 196.111 254.265,196.280 253.608,196.386 253.608 C 196.491 253.608,196.649 253.008,196.736 252.275 C 196.823 251.541,197.004 250.873,197.138 250.790 C 197.273 250.706,197.465 249.915,197.565 249.030 C 197.665 248.146,197.848 247.423,197.971 247.423 C 198.095 247.423,198.196 247.075,198.196 246.649 C 198.196 246.224,198.298 245.876,198.424 245.876 C 198.549 245.876,198.732 245.238,198.829 244.459 C 198.926 243.679,199.102 243.041,199.220 243.041 C 199.338 243.041,199.515 242.345,199.613 241.495 C 199.712 240.644,199.888 239.948,200.005 239.948 C 200.121 239.948,200.297 239.195,200.396 238.273 C 200.495 237.352,200.663 236.598,200.770 236.598 C 200.877 236.598,201.041 236.023,201.134 235.320 C 201.227 234.617,201.416 233.972,201.554 233.887 C 201.692 233.802,201.804 233.391,201.804 232.974 C 201.804 232.558,201.909 232.216,202.037 232.216 C 202.164 232.216,202.350 231.521,202.448 230.670 C 202.547 229.820,202.719 229.124,202.831 229.124 C 202.942 229.124,203.113 228.486,203.210 227.706 C 203.308 226.927,203.484 226.289,203.601 226.289 C 203.719 226.289,203.896 225.593,203.995 224.742 C 204.094 223.892,204.292 223.196,204.435 223.196 C 204.581 223.196,204.649 222.799,204.590 222.294 C 204.532 221.798,204.578 221.392,204.691 221.392 C 204.929 221.392,204.974 215.707,204.740 215.098 C 204.258 213.841,199.485 214.811,199.485 216.166 C 199.485 216.488,199.380 216.753,199.252 216.753 C 199.124 216.753,198.939 217.448,198.840 218.299 C 198.741 219.149,198.556 219.845,198.428 219.845 C 198.300 219.845,198.196 220.244,198.196 220.732 C 198.196 221.220,198.079 221.691,197.937 221.779 C 197.795 221.867,197.750 222.222,197.836 222.567 C 197.932 222.950,197.882 223.196,197.708 223.196 C 197.551 223.196,197.423 223.544,197.423 223.969 C 197.423 224.394,197.318 224.742,197.190 224.742 C 197.062 224.742,196.877 225.438,196.778 226.289 C 196.680 227.139,196.508 227.835,196.396 227.835 C 196.285 227.835,196.113 228.589,196.015 229.510 C 195.916 230.432,195.742 231.186,195.628 231.186 C 195.514 231.186,195.341 231.823,195.243 232.603 C 195.146 233.383,194.983 234.021,194.882 234.021 C 194.721 234.021,194.430 235.130,193.904 237.758 C 193.819 238.183,193.659 238.647,193.549 238.789 C 193.439 238.930,193.266 239.713,193.165 240.528 C 193.064 241.343,192.891 242.010,192.779 242.010 C 192.668 242.010,192.496 242.706,192.397 243.557 C 192.162 245.579,191.511 245.439,191.498 243.363 C 191.496 243.044,191.392 242.784,191.266 242.784 C 191.141 242.784,190.960 242.264,190.865 241.630 C 190.770 240.995,190.583 240.408,190.449 240.326 C 190.315 240.243,190.206 239.835,190.206 239.418 C 190.206 239.001,190.094 238.660,189.957 238.660 C 189.820 238.660,189.631 238.077,189.537 237.365 C 189.442 236.653,189.271 236.013,189.156 235.942 C 189.041 235.871,188.869 235.294,188.774 234.659 C 188.679 234.024,188.512 233.505,188.402 233.505 C 188.293 233.505,188.124 232.867,188.027 232.088 C 187.929 231.308,187.757 230.670,187.644 230.670 C 187.530 230.670,187.361 230.095,187.268 229.392 C 187.175 228.689,186.986 228.044,186.848 227.959 C 186.711 227.874,186.598 227.580,186.598 227.304 C 186.598 227.029,186.495 226.804,186.370 226.804 C 186.244 226.804,186.062 226.166,185.965 225.387 C 185.867 224.607,185.693 223.969,185.578 223.969 C 185.463 223.969,185.289 223.331,185.192 222.552 C 185.094 221.772,184.915 221.134,184.794 221.134 C 184.672 221.134,184.493 220.496,184.396 219.716 C 184.299 218.937,184.127 218.299,184.015 218.299 C 183.903 218.299,183.733 217.732,183.638 217.039 C 183.356 214.990,182.811 214.691,179.361 214.691 C 176.128 214.691,175.884 214.806,175.619 216.469 C 175.526 217.050,175.348 217.526,175.225 217.526 C 175.101 217.526,175.000 217.809,175.000 218.155 C 175.000 218.501,174.900 218.846,174.777 218.922 C 174.654 218.998,174.610 219.353,174.678 219.710 C 174.751 220.092,174.683 220.361,174.515 220.361 C 174.356 220.361,174.227 220.651,174.227 221.005 C 174.227 221.360,174.126 221.649,174.002 221.649 C 173.879 221.649,173.701 222.229,173.607 222.938 C 173.513 223.647,173.332 224.227,173.206 224.227 C 173.079 224.227,172.896 224.865,172.798 225.644 C 172.701 226.424,172.527 227.062,172.412 227.062 C 172.296 227.062,172.122 227.700,172.025 228.479 C 171.928 229.259,171.745 229.897,171.620 229.897 C 171.494 229.897,171.392 230.180,171.392 230.526 C 171.392 230.872,171.279 231.225,171.141 231.310 C 171.004 231.395,170.815 232.040,170.722 232.743 C 170.628 233.445,170.455 234.021,170.336 234.021 C 170.218 234.021,170.044 234.603,169.949 235.315 C 169.855 236.027,169.683 236.668,169.569 236.739 C 169.454 236.810,169.282 237.387,169.187 238.021 C 169.091 238.656,168.924 239.175,168.815 239.175 C 168.706 239.175,168.536 239.813,168.439 240.593 C 168.342 241.372,168.168 242.010,168.052 242.010 C 167.937 242.010,167.763 242.648,167.666 243.428 C 167.393 245.610,166.620 245.456,166.375 243.170 C 166.277 242.249,166.101 241.495,165.984 241.495 C 165.868 241.495,165.691 240.799,165.593 239.948 C 165.494 239.098,165.309 238.402,165.181 238.402 C 165.053 238.402,164.948 238.054,164.948 237.629 C 164.948 237.204,164.849 236.856,164.726 236.856 C 164.604 236.856,164.560 236.565,164.628 236.210 C 164.696 235.855,164.635 235.420,164.492 235.243 C 164.350 235.067,164.151 234.314,164.051 233.570 C 163.951 232.826,163.764 232.152,163.636 232.073 C 163.507 231.993,163.402 231.587,163.402 231.170 C 163.402 230.753,163.297 230.412,163.170 230.412 C 163.042 230.412,162.854 229.687,162.752 228.802 C 162.650 227.916,162.462 227.124,162.333 227.042 C 162.205 226.961,162.029 226.294,161.942 225.560 C 161.855 224.827,161.695 224.227,161.587 224.227 C 161.479 224.227,161.310 223.531,161.211 222.680 C 161.113 221.830,160.939 221.134,160.825 221.134 C 160.711 221.134,160.537 220.438,160.438 219.588 C 160.339 218.737,160.154 218.041,160.026 218.041 C 159.898 218.041,159.794 217.635,159.794 217.139 C 159.794 216.643,159.692 216.237,159.568 216.237 C 159.444 216.237,159.273 215.889,159.188 215.464 L 159.034 214.691 156.584 214.691 C 154.162 214.691,154.132 214.698,153.966 215.359 M263.080 215.179 C 262.505 215.761,262.367 256.336,262.938 256.907 C 263.144 257.113,264.267 257.216,266.289 257.216 L 269.330 257.216 269.330 248.693 C 269.330 241.649,269.394 240.105,269.698 239.801 C 270.146 239.354,279.381 239.248,279.381 239.691 C 279.381 239.832,279.555 239.948,279.768 239.948 C 279.981 239.948,280.155 240.113,280.155 240.314 C 280.155 240.514,280.242 240.717,280.348 240.765 C 280.641 240.895,281.701 242.468,281.701 242.773 C 281.701 242.921,281.817 243.041,281.959 243.041 C 282.101 243.041,282.216 243.215,282.216 243.428 C 282.216 243.640,282.325 243.814,282.457 243.814 C 282.589 243.814,282.778 244.070,282.877 244.382 C 282.977 244.695,283.216 245.109,283.410 245.303 C 283.604 245.497,283.763 245.809,283.763 245.996 C 283.763 246.183,283.937 246.403,284.149 246.485 C 284.362 246.567,284.536 246.811,284.536 247.028 C 284.536 247.245,284.650 247.423,284.789 247.423 C 284.928 247.423,285.114 247.713,285.203 248.067 C 285.292 248.421,285.455 248.711,285.565 248.711 C 285.675 248.711,285.833 248.914,285.916 249.162 C 286.132 249.804,286.672 250.609,287.049 250.850 C 287.226 250.964,287.371 251.225,287.371 251.430 C 287.371 251.636,287.479 251.804,287.611 251.804 C 287.744 251.804,287.933 252.060,288.032 252.372 C 288.131 252.684,288.371 253.099,288.565 253.292 C 288.759 253.486,288.918 253.811,288.918 254.013 C 288.918 254.216,289.034 254.381,289.175 254.381 C 289.317 254.381,289.433 254.559,289.433 254.776 C 289.433 254.993,289.596 255.233,289.794 255.309 C 289.993 255.386,290.216 255.681,290.291 255.965 C 290.365 256.249,290.666 256.544,290.960 256.621 C 291.254 256.698,291.495 256.864,291.495 256.989 C 291.495 257.385,295.097 257.259,295.508 256.848 C 295.905 256.451,296.062 251.546,295.677 251.546 C 295.568 251.546,295.250 251.111,294.971 250.580 C 294.692 250.048,294.318 249.521,294.139 249.407 C 293.961 249.294,293.814 249.033,293.814 248.827 C 293.814 248.622,293.706 248.454,293.574 248.454 C 293.442 248.454,293.253 248.198,293.153 247.886 C 293.054 247.573,292.815 247.159,292.621 246.965 C 292.427 246.771,292.268 246.447,292.268 246.244 C 292.268 246.042,292.152 245.876,292.010 245.876 C 291.869 245.876,291.753 245.699,291.753 245.482 C 291.753 245.265,291.589 245.024,291.389 244.947 C 291.189 244.871,290.955 244.527,290.869 244.182 C 290.782 243.838,290.598 243.557,290.459 243.557 C 290.320 243.557,290.206 243.383,290.206 243.170 C 290.206 242.957,290.098 242.784,289.966 242.784 C 289.834 242.784,289.644 242.523,289.544 242.204 C 289.445 241.885,289.292 241.566,289.205 241.495 C 288.975 241.308,288.440 240.426,288.150 239.755 C 288.012 239.436,287.781 239.175,287.635 239.175 C 286.854 239.175,287.539 238.693,288.531 238.544 C 289.169 238.449,289.691 238.271,289.691 238.149 C 289.691 238.027,290.044 237.850,290.476 237.755 C 290.908 237.660,291.400 237.361,291.569 237.090 C 291.738 236.819,292.014 236.598,292.181 236.598 C 292.577 236.598,294.072 235.103,294.072 234.707 C 294.072 234.539,294.294 234.264,294.564 234.095 C 294.835 233.926,295.140 233.405,295.241 232.938 C 295.343 232.470,295.556 232.005,295.715 231.904 C 296.115 231.650,296.120 222.735,295.720 222.478 C 295.563 222.377,295.360 221.884,295.268 221.383 C 295.176 220.883,294.869 220.306,294.586 220.102 C 294.304 219.898,294.072 219.630,294.072 219.505 C 294.072 218.649,290.293 215.979,289.082 215.979 C 288.873 215.979,288.663 215.859,288.614 215.712 C 288.565 215.566,287.598 215.381,286.466 215.302 C 285.334 215.223,284.369 215.053,284.321 214.925 C 284.137 214.422,263.584 214.668,263.080 215.179 M308.826 215.078 C 308.571 215.368,308.516 219.848,308.568 236.267 L 308.634 257.088 311.673 257.160 C 315.782 257.259,315.464 257.837,315.464 250.270 L 315.464 244.060 318.251 241.263 L 321.037 238.466 321.859 239.329 C 322.311 239.804,322.680 240.293,322.680 240.417 C 322.680 240.541,322.912 240.852,323.196 241.108 C 323.479 241.365,323.711 241.688,323.711 241.827 C 323.711 241.965,324.103 242.447,324.581 242.898 C 325.059 243.349,325.531 243.972,325.629 244.282 C 325.727 244.592,325.920 244.845,326.056 244.845 C 326.193 244.845,326.380 245.048,326.471 245.296 C 326.562 245.544,327.017 246.111,327.481 246.555 C 327.945 247.000,328.253 247.434,328.167 247.520 C 328.080 247.607,328.318 247.943,328.695 248.267 C 329.073 248.591,329.381 248.956,329.381 249.077 C 329.381 249.198,329.671 249.565,330.026 249.894 C 330.380 250.222,330.670 250.603,330.670 250.741 C 330.670 250.879,331.018 251.339,331.443 251.764 C 331.869 252.190,332.216 252.620,332.216 252.721 C 332.216 252.822,332.506 253.174,332.861 253.502 C 333.215 253.830,333.505 254.212,333.505 254.349 C 333.505 254.487,333.853 254.947,334.278 255.373 C 334.704 255.798,335.052 256.271,335.052 256.423 C 335.052 256.576,335.226 256.701,335.438 256.701 C 335.651 256.701,335.825 256.817,335.825 256.959 C 335.825 257.378,339.407 257.280,339.838 256.848 C 340.261 256.425,340.379 251.546,339.966 251.546 C 339.834 251.546,339.646 251.296,339.549 250.991 C 339.452 250.685,339.096 250.179,338.759 249.866 C 338.421 249.553,338.144 249.171,338.144 249.017 C 338.144 248.863,337.997 248.644,337.816 248.531 C 337.635 248.417,337.271 247.985,337.007 247.571 C 336.743 247.156,336.273 246.576,335.963 246.282 C 335.653 245.988,335.325 245.544,335.234 245.296 C 335.142 245.048,334.956 244.845,334.819 244.845 C 334.683 244.845,334.489 244.584,334.389 244.265 C 334.288 243.947,333.840 243.338,333.392 242.912 C 332.944 242.487,332.500 241.936,332.405 241.688 C 332.310 241.440,332.121 241.237,331.984 241.237 C 331.848 241.237,331.654 240.981,331.555 240.667 C 331.455 240.354,331.042 239.765,330.635 239.359 C 330.229 238.952,329.897 238.508,329.897 238.370 C 329.897 238.232,329.607 237.851,329.253 237.523 C 328.898 237.194,328.608 236.836,328.608 236.727 C 328.608 236.618,328.332 236.272,327.994 235.959 C 327.656 235.646,327.304 235.150,327.211 234.858 C 327.118 234.565,326.873 234.261,326.665 234.181 C 325.830 233.861,326.542 232.990,332.603 226.920 L 338.918 220.596 338.918 218.051 C 338.918 214.701,338.912 214.691,337.215 214.691 C 336.450 214.691,335.825 214.794,335.825 214.921 C 335.825 215.047,335.521 215.226,335.151 215.319 C 334.732 215.425,330.910 219.056,325.035 224.932 L 315.593 234.375 315.525 225.045 C 315.443 213.785,315.769 214.686,311.791 214.701 C 309.837 214.708,309.065 214.806,308.826 215.078 M388.918 215.979 C 388.918 216.691,388.989 216.753,389.820 216.753 L 390.722 216.753 390.722 218.943 L 390.722 221.134 391.495 221.134 L 392.268 221.134 392.268 218.943 L 392.268 216.753 393.041 216.753 C 393.729 216.753,393.814 216.667,393.814 215.979 L 393.814 215.206 391.366 215.206 L 388.918 215.206 388.918 215.979 M394.330 218.170 L 394.330 221.134 395.103 221.134 C 395.797 221.134,395.879 221.049,395.906 220.296 C 395.923 219.836,395.989 219.662,396.054 219.910 C 396.119 220.158,396.279 220.361,396.411 220.361 C 396.542 220.361,396.649 220.535,396.649 220.747 C 396.649 221.554,398.094 221.210,398.544 220.296 L 398.957 219.459 398.963 220.296 C 398.968 220.960,399.076 221.134,399.485 221.134 C 399.970 221.134,400.000 220.962,400.000 218.170 L 400.000 215.206 399.356 215.206 C 398.955 215.206,398.711 215.352,398.711 215.593 C 398.711 215.805,398.595 215.979,398.454 215.979 C 398.312 215.979,398.196 216.204,398.196 216.480 C 398.196 216.755,398.072 217.056,397.921 217.150 C 397.769 217.244,397.708 217.482,397.784 217.681 C 397.871 217.909,397.748 218.041,397.448 218.041 C 397.093 218.041,396.931 217.780,396.808 217.010 C 396.718 216.443,396.529 215.979,396.389 215.979 C 396.249 215.979,396.134 215.805,396.134 215.593 C 396.134 215.323,395.862 215.206,395.232 215.206 L 394.330 215.206 394.330 218.170 M263.080 246.070 C 263.041 251.562,263.009 247.068,263.009 236.082 C 263.009 225.097,263.041 220.602,263.080 226.095 C 263.119 231.588,263.119 240.577,263.080 246.070 M235.818 220.858 C 235.893 220.975,236.447 221.153,237.049 221.254 C 237.651 221.355,238.144 221.543,238.144 221.672 C 238.144 221.801,238.318 221.907,238.531 221.907 C 238.744 221.907,238.918 222.015,238.918 222.148 C 238.918 222.280,239.174 222.469,239.488 222.569 C 240.439 222.871,242.507 225.083,243.206 226.546 C 243.307 226.759,243.465 226.991,243.556 227.062 C 243.826 227.273,244.588 229.352,244.588 229.881 C 244.588 230.149,244.733 230.418,244.910 230.477 C 245.154 230.559,245.232 231.939,245.232 236.212 C 245.232 240.484,245.154 241.864,244.910 241.946 C 244.733 242.005,244.588 242.217,244.588 242.417 C 244.588 242.913,243.735 244.845,243.516 244.845 C 243.419 244.845,243.266 245.184,243.175 245.597 C 243.084 246.010,242.843 246.413,242.639 246.491 C 242.435 246.569,242.268 246.876,242.268 247.172 C 242.268 247.468,242.152 247.639,242.010 247.552 C 241.869 247.464,241.753 247.498,241.753 247.628 C 241.753 248.035,240.507 249.227,240.082 249.227 C 239.858 249.227,239.611 249.394,239.532 249.598 C 239.454 249.802,239.052 250.043,238.638 250.134 C 238.225 250.224,237.887 250.392,237.887 250.507 C 237.887 250.621,237.367 250.793,236.733 250.888 C 236.098 250.983,235.511 251.170,235.429 251.304 C 235.226 251.632,229.456 251.618,229.253 251.289 C 229.165 251.147,228.853 251.031,228.560 251.031 C 226.913 251.031,222.517 247.908,222.037 246.396 C 221.947 246.110,221.764 245.876,221.632 245.876 C 221.500 245.876,221.392 245.702,221.392 245.490 C 221.392 245.277,221.285 245.103,221.154 245.103 C 221.024 245.103,220.841 244.755,220.747 244.330 C 220.654 243.905,220.482 243.557,220.365 243.557 C 220.247 243.557,220.069 242.948,219.967 242.204 C 219.866 241.459,219.652 240.768,219.492 240.667 C 219.081 240.407,219.086 231.495,219.498 231.241 C 219.661 231.139,219.877 230.506,219.978 229.832 C 220.079 229.159,220.252 228.608,220.361 228.608 C 220.471 228.608,220.637 228.202,220.730 227.706 C 220.823 227.210,220.985 226.804,221.090 226.804 C 221.195 226.804,221.492 226.447,221.750 226.010 C 222.372 224.957,224.961 222.423,225.415 222.423 C 225.612 222.423,225.773 222.307,225.773 222.165 C 225.773 222.023,225.947 221.907,226.160 221.907 C 226.372 221.907,226.546 221.793,226.546 221.653 C 226.546 221.512,227.010 221.324,227.577 221.233 C 228.144 221.142,228.608 220.973,228.608 220.857 C 228.608 220.376,235.510 220.377,235.818 220.858 M286.276 221.585 C 286.335 221.762,286.527 221.907,286.702 221.907 C 287.300 221.907,288.655 223.365,288.819 224.183 C 288.908 224.633,289.083 225.000,289.207 225.000 C 289.332 225.000,289.433 226.044,289.433 227.320 C 289.433 228.595,289.330 229.639,289.203 229.639 C 289.077 229.639,288.898 229.939,288.806 230.305 C 288.619 231.050,287.484 232.216,286.947 232.216 C 286.755 232.216,286.598 232.332,286.598 232.474 C 286.598 232.616,286.308 232.732,285.954 232.732 C 285.599 232.732,285.309 232.848,285.309 232.990 C 285.309 233.438,270.150 233.331,269.698 232.879 C 269.193 232.375,269.150 221.512,269.652 221.296 C 270.384 220.982,286.166 221.256,286.276 221.585 " stroke="none" fill="#242c34" fill-rule="evenodd"></path><path id="path1" d="M189.744 0.449 C 190.695 0.498,192.318 0.498,193.352 0.449 C 194.386 0.400,193.608 0.360,191.624 0.359 C 189.639 0.359,188.793 0.399,189.744 0.449 M217.895 72.036 C 217.895 75.580,217.931 77.065,217.976 75.337 C 218.020 73.609,218.021 70.709,217.976 68.894 C 217.932 67.078,217.895 68.492,217.895 72.036 M217.895 100.515 C 217.895 103.988,217.931 105.409,217.976 103.673 C 218.021 101.936,218.021 99.095,217.976 97.358 C 217.931 95.622,217.895 97.043,217.895 100.515 M183.570 157.136 C 183.818 157.201,184.224 157.201,184.472 157.136 C 184.720 157.072,184.517 157.019,184.021 157.019 C 183.524 157.019,183.322 157.072,183.570 157.136 M199.034 157.136 C 199.282 157.201,199.687 157.201,199.936 157.136 C 200.184 157.072,199.981 157.019,199.485 157.019 C 198.988 157.019,198.785 157.072,199.034 157.136 M136.203 231.186 C 136.203 239.620,136.236 243.070,136.276 238.853 C 136.315 234.636,136.315 227.735,136.276 223.518 C 136.236 219.301,136.203 222.751,136.203 231.186 M263.009 236.082 C 263.009 247.068,263.041 251.562,263.080 246.070 C 263.119 240.577,263.119 231.588,263.080 226.095 C 263.041 220.602,263.009 225.097,263.009 236.082 " stroke="none" fill="#242c3c" fill-rule="evenodd"></path><path id="path2" d="" stroke="none" fill="#282c34" fill-rule="evenodd"></path><path id="path3" d="" stroke="none" fill="#282c34" fill-rule="evenodd"></path><path id="path4" d="" stroke="none" fill="#282c34" fill-rule="evenodd"></path></g></svg>