<svg xmlns="http://www.w3.org/2000/svg" width="400" height="257.6"><g fill-rule="evenodd"><path fill="#242c34" d="M185.116.459c-1.595.041-2.9.176-2.9.301s-.782.296-1.739.38c-3.415.301-3.689.337-3.852.499-.09.091-.667.165-1.281.165-.615 0-1.117.105-1.117.233 0 .127-.696.313-1.547.412-.851.098-1.604.272-1.675.386-.07.114-.824.288-1.675.387-.85.098-1.546.271-1.546.382 0 .112-.539.284-1.198.383-.659.099-1.384.278-1.611.397-.495.261-1.345.592-1.702.664-.734.148-1.417.447-1.417.619 0 .107-.464.269-1.031.36-.567.09-1.031.264-1.031.386s-.464.296-1.031.387c-.567.091-1.031.267-1.031.391s-.406.302-.902.395c-.496.093-.902.267-.902.387 0 .119-.406.293-.902.386-.496.093-.902.254-.902.358 0 .103-.521.417-1.158.697-.636.28-1.158.586-1.159.682-.002.095-.351.249-.776.342-.425.094-.773.277-.773.407 0 .131-.166.237-.368.237-.203 0-.527.159-.721.353-.194.194-.637.443-.985.552a2.77 2.77 0 0 0-1.064.696c-.237.272-.469.48-.515.462-.225-.09-1.139.387-1.321.689-.114.188-.375.341-.58.341-.206 0-.374.108-.374.241 0 .132-.252.32-.56.418-.59.187-.91.409-1.897 1.311-.333.304-.67.488-.749.408-.08-.079-.145-.009-.145.157 0 .165-.131.3-.292.3-.161 0-.562.29-.89.645-.328.354-.71.644-.847.644-.138 0-.598.348-1.024.773-.425.425-.872.773-.992.773-.121 0-.711.522-1.311 1.16-.601.638-1.207 1.16-1.348 1.16-.302 0-6.44 6.197-6.44 6.502 0 .114-.522.708-1.16 1.319-.638.611-1.16 1.312-1.16 1.557 0 .245-.087.394-.193.329-.106-.064-.343.045-.525.243-.183.197-.275.359-.205.359.07 0-.166.319-.524.709-.358.39-.816.892-1.019 1.117-.203.224-.369.608-.369.853 0 .244-.107.378-.239.297-.131-.082-.313.085-.404.371-.09.286-.273.519-.405.519s-.24.162-.24.359c0 .198-.174.426-.387.508-.212.081-.386.326-.386.543 0 .217-.109.394-.241.394s-.321.256-.42.568c-.1.313-.339.727-.533.921-.194.194-.353.506-.353.693 0 .187-.174.407-.386.489-.213.081-.387.326-.387.543 0 .217-.103.395-.23.395-.126 0-.302.29-.391.644-.089.354-.276.644-.415.644-.139 0-.253.174-.253.387 0 .212-.128.386-.285.386-.157 0-.219.174-.137.387.082.213.036.387-.101.387-.138 0-.25.174-.25.386 0 .213-.111.387-.246.387s-.322.405-.415.9c-.093.495-.259.843-.37.775-.308-.191-.56 1.563-.369 2.577.093.497.272.902.398.902s.229.223.229.495c0 .341.241.548.773.665.425.094.773.268.773.387s.348.293.774.386c.425.094.773.262.773.375 0 .112.464.278 1.031.369.567.09 1.031.267 1.031.391 0 .125.317.307.706.404.388.098.765.255.837.35.243.319 1.753 1.075 2.148 1.075.214 0 .438.145.497.323.085.253.242.256.731.015.342-.169.993-.38 1.448-.469.526-.103.888-.359.998-.704.094-.299.394-.781.666-1.073.271-.291.56-.793.64-1.115.081-.322.242-.585.357-.585.115 0 .285-.348.379-.773.093-.425.274-.773.402-.773s.305-.29.394-.645c.089-.354.265-.644.392-.644.126 0 .229-.178.229-.395 0-.217.174-.461.387-.543.213-.081.386-.371.386-.644s.174-.563.387-.644c.213-.082.387-.31.387-.508 0-.197.087-.36.193-.36.106-.001.483-.436.837-.967.354-.531.789-1.118.967-1.305.177-.188.322-.445.322-.572 0-.126.377-.627.838-1.113 2.289-2.411 3.267-3.565 3.415-4.033.09-.283.263-.514.384-.514.206 0 .563-.344 2.403-2.316.398-.427.838-.777.977-.777s.876-.638 1.637-1.417c.761-.78 1.461-1.418 1.555-1.418.094 0 .519-.348.944-.773.426-.425.896-.773 1.046-.773.15 0 .542-.29.87-.644.329-.355.719-.645.867-.645.149 0 .27-.108.27-.24s.261-.322.58-.421c.319-.1.638-.253.709-.34.277-.341 1.798-1.318 2.052-1.318.147 0 .268-.114.268-.253s.29-.326.644-.415c.354-.089.644-.265.644-.391 0-.127.174-.23.387-.23.213 0 .387-.114.387-.253s.29-.325.644-.414c.354-.089.644-.256.644-.371 0-.116.348-.286.773-.38.426-.093.774-.267.774-.386s.348-.293.773-.387c.425-.093.773-.267.773-.386 0-.12.348-.294.773-.387.425-.093.773-.267.773-.387 0-.119.347-.292.771-.385.423-.094.836-.277.917-.408.081-.13.372-.237.647-.237s.5-.115.5-.255.464-.329 1.031-.42c.567-.09 1.031-.251 1.031-.356 0-.106.464-.266 1.031-.357.567-.091 1.031-.276 1.031-.411 0-.135.583-.323 1.295-.417.712-.095 1.354-.269 1.428-.388.073-.119.709-.293 1.411-.386.703-.093 1.279-.271 1.279-.394 0-.124.405-.225.902-.225.496 0 .902-.104.902-.231 0-.128.841-.315 1.868-.418 1.028-.102 1.931-.284 2.007-.403.076-.12 1.729-.298 3.673-.395 1.944-.098 3.534-.276 3.534-.396s1.972-.219 4.382-.219c2.409 0 4.381.099 4.381.22 0 .12 1.533.3 3.407.399 1.875.099 3.469.276 3.544.394.075.118 1.093.298 2.263.401 1.169.103 2.126.29 2.126.417s.348.231.773.231c.426 0 .774.108.774.239 0 .132.638.319 1.417.417.78.097 1.418.272 1.418.389 0 .117.522.291 1.159.386.638.096 1.16.266 1.16.379 0 .112.58.284 1.289.381.709.098 1.23.272 1.159.388-.072.116.334.289.902.385.567.096 1.032.261 1.032.368 0 .106.638.41 1.417.675.78.265 1.418.564 1.418.665 0 .102.348.261.773.354.425.093.773.277.773.407 0 .131.145.241.322.246.177.005.786.233 1.353.507s1.164.502 1.326.507c.162.004.361.182.443.395.081.213.326.387.543.387.217 0 .395.116.395.257 0 .142.219.258.487.258.269 0 .555.174.637.387.081.212.326.386.543.386.217 0 .394.104.394.23s.29.303.645.391c.354.089.644.276.644.415 0 .139.178.253.395.253.217 0 .461.174.543.386.081.213.285.387.451.387.306 0 1.244.673 2.426 1.74.353.319.737.58.853.58.116 0 .567.348 1.002.773.435.425.961.773 1.169.773.208 0 .378.115.378.255 0 .141.533.75 1.185 1.353 1.372 1.27 3.022 2.896 4.022 3.963a50.85 50.85 0 0 0 1.417 1.442c.946.917 1.365 1.427 1.365 1.66 0 .104.441.601.981 1.106.539.504 1.057 1.12 1.151 1.368.095.248.284.451.42.451.137 0 .331.261.431.58.1.319.442.823.76 1.119.318.297.658.79.755 1.096.097.305.284.555.417.555.132 0 .24.174.24.387 0 .213.114.387.253.387s.325.29.414.644c.089.354.265.644.392.644.126 0 .23.178.23.395a.62.62 0 0 0 .37.537c.204.078.446.481.536.894.091.413.27.752.398.752s.305.29.394.644c.089.354.256.644.371.644.115 0 .286.348.379.774.093.425.263.773.377.773.114 0 .264.216.333.48.083.317.466.544 1.125.668.55.102 1.154.314 1.342.469.248.205.39.204.518-.003.097-.156.495-.365.885-.463.39-.097.772-.281.85-.407.078-.126.367-.229.642-.229s.5-.107.5-.237c0-.131.348-.314.773-.407.426-.094.774-.264.774-.379 0-.114.406-.284.902-.377.496-.093.902-.271.902-.395s.348-.302.773-.396c.425-.093.773-.276.773-.407 0-.13.169-.237.375-.237 1.031 0 1.667-.594 1.835-1.712.092-.618.271-1.123.397-1.123.125 0 .228-.232.228-.515 0-.284-.116-.516-.258-.516-.141 0-.257-.122-.257-.272 0-.502-1.041-2.563-1.295-2.563-.139 0-.252-.174-.252-.387 0-.212-.106-.386-.237-.386-.13 0-.312-.34-.403-.755-.091-.416-.333-.894-.536-1.063-.204-.169-.37-.467-.37-.662s-.116-.355-.258-.355c-.142 0-.258-.166-.258-.368 0-.203-.145-.527-.322-.72-.386-.421-.905-1.215-1.142-1.747a1.529 1.529 0 0 0-.514-.593c-.187-.113-.341-.374-.341-.58 0-.205-.108-.374-.24-.374-.133 0-.323-.261-.423-.579-.1-.319-.456-.836-.79-1.148-.335-.312-.609-.681-.609-.819 0-.138-.29-.479-.644-.758-.355-.279-.645-.627-.645-.774 0-.146-.406-.697-.902-1.223-.496-.526-.902-1.027-.902-1.114 0-.284-2.253-2.585-2.394-2.445-.075.075-.212-.104-.306-.399-.093-.294-.281-.534-.418-.534-.137 0-.325-.203-.418-.451-.169-.45-2.286-2.642-2.551-2.642-.077 0-.823-.667-1.658-1.482-1.809-1.766-2.226-2.126-2.464-2.126-.099 0-.596-.449-1.106-.997-.51-.548-1.177-1.075-1.483-1.17-.306-.095-.621-.342-.701-.549-.079-.208-.294-.377-.478-.377-.183 0-.551-.29-.817-.645-.266-.354-.642-.644-.835-.644-.192 0-.35-.108-.35-.24s-.256-.322-.568-.421c-.312-.099-.727-.339-.921-.533-.193-.194-.505-.352-.693-.352-.187 0-.407-.174-.489-.387-.081-.213-.272-.386-.425-.386-.152 0-.521-.228-.82-.507-.299-.279-.642-.446-.762-.371-.121.074-.219.012-.219-.138 0-.15-.174-.273-.387-.273-.212 0-.386-.114-.386-.253s-.29-.326-.645-.414c-.354-.089-.644-.256-.644-.372 0-.115-.348-.285-.773-.379-.425-.093-.773-.274-.773-.402s-.29-.305-.645-.394c-.354-.089-.645-.236-.646-.327-.002-.091-.524-.394-1.16-.674-.637-.28-1.158-.598-1.158-.706 0-.108-.463-.271-1.03-.362-.567-.09-1.031-.256-1.031-.369 0-.112-.348-.281-.774-.374-.425-.093-.773-.275-.773-.404s-.464-.308-1.031-.399c-.567-.091-1.031-.261-1.031-.378 0-.117-.406-.289-.902-.382-.496-.093-.902-.273-.902-.399s-.29-.229-.644-.229c-.354 0-.644-.1-.644-.222s-.29-.19-.645-.151c-.354.038-.644-.036-.644-.165s-.232-.235-.516-.235c-.283 0-.515-.105-.515-.233 0-.129-.58-.314-1.289-.411-.708-.098-1.288-.271-1.288-.386 0-.114-.696-.289-1.547-.387-.85-.099-1.546-.277-1.546-.397 0-.119-.812-.296-1.804-.394-.993-.098-1.804-.279-1.804-.402 0-.124-.464-.225-1.031-.225s-1.031-.105-1.031-.233-.449-.173-.998-.099c-.596.079-1.069.018-1.175-.154-.1-.162-.889-.287-1.816-.287-.901 0-1.678-.118-1.726-.263-.088-.265-10.179-.458-16.128-.309m33.763 63.629a.574.574 0 0 0-.322.495c0 .201-.145.365-.322.365-.252 0-.305 1.465-.243 6.679.078 6.453.063 6.684-.427 6.84-.279.088-.572.33-.652.538-.121.317-1.191.376-6.737.376h-6.592l-.632.682c-.99 1.069-.99 11.228 0 12.296l.632.682 6.391.004 6.391.004.851.75.85.75-.077 6.391-.078 6.392.7.715.701.716h11.006l.562-.646c.546-.628.562-.836.562-7.179v-6.533l.632-.682.632-.682h6.582c8.479 0 7.618.745 7.618-6.592 0-5.697-.001-5.704-.632-6.386l-.632-.682-6.52-.004-6.52-.004-.58-.612c-.57-.601-.58-.725-.58-7.096v-6.483l-.682-.632c-.654-.607-10.568-.992-11.882-.462m-81.843 15.885c-.254.313-.572.742-.704.955-.133.212-.243 2.651-.246 5.419l-.004 5.033.759.831.759.83h42.337l.753-.753.753-.754V80.888l-.753-.753-.753-.754-21.219.012-21.218.012-.464.568m-12.809 37.295c0 .142-.243.258-.54.258-.543 0-2.096.747-2.247 1.081-.045.098-.248.115-.451.037-.204-.079-.37-.014-.37.143s-.174.285-.387.285c-.213 0-.387.107-.387.237 0 .131-.348.314-.773.407-.425.094-.773.262-.773.375 0 .112-.464.278-1.031.369-.567.09-1.031.279-1.031.419 0 .14-.174.255-.386.255-.213 0-.387.164-.387.365 0 .201-.112.404-.249.451-.479.165-.626 2.911-.18 3.357.222.222.48.708.573 1.079.093.372.273.676.399.676.127 0 .23.174.23.386 0 .213.129.387.285.387.157 0 .219.174.137.387-.081.212-.036.386.102.386.137 0 .249.174.249.387 0 .212.114.386.253.386s.326.29.415.645c.089.354.252.644.363.644.111 0 .275.29.364.644.089.355.275.645.414.645.139 0 .253.177.253.394 0 .218.174.462.387.543.212.082.386.302.386.489 0 .188.145.499.323.693.386.421.904 1.214 1.142 1.747.094.212.325.479.513.592.188.114.342.332.342.486 0 .154.29.549.644.877.355.329.645.715.645.859 0 .143.348.617.773 1.052.425.435.773.854.773.93 0 .077.349.508.775.958l1.16 1.226c.211.225.385.49.385.589 0 .254 7.152 7.379 7.407 7.379.116 0 .39.203.611.451.663.747 2.014 1.869 2.25 1.869.122 0 .488.348.814.773.326.425.814.773 1.085.773.27 0 .425.108.344.239-.081.132.086.314.371.404.286.091.52.273.52.405 0 .133.177.241.394.241.217 0 .458.163.534.363.077.2.421.434.766.521.344.086.625.27.625.409 0 .139.174.253.387.253.212 0 .386.114.386.253s.282.324.626.41c.344.086.689.32.765.52.077.2.317.364.534.364.217 0 .395.113.395.252s.29.326.644.415c.355.089.645.253.645.364 0 .111.29.274.644.363.354.089.644.276.644.415 0 .139.174.252.387.252.213 0 .387.107.387.238 0 .13.347.313.773.407.425.093.773.267.773.386 0 .12.348.294.773.387.425.093.773.267.773.387 0 .119.348.293.774.386.425.094.773.272.773.396s.406.301.902.394c.496.093.902.273.902.399s.174.229.386.229c.213 0 .387.11.387.246 0 .135.406.322.902.415.496.093.902.262.902.376 0 .113.464.284 1.031.38.567.096 1.031.279 1.031.406 0 .128.464.307 1.031.397.567.091 1.031.253 1.031.361 0 .107.522.274 1.16.369.638.096 1.159.283 1.159.416s.284.242.63.242c.346 0 .694.105.773.234.079.128.724.313 1.433.41.708.098 1.288.271 1.288.386 0 .114.696.289 1.547.387.85.099 1.546.271 1.546.382 0 .111.899.286 1.997.389 1.099.102 2.057.281 2.129.396.073.116 1.291.294 2.707.396 1.416.103 2.657.315 2.758.472.27.419 19.738.401 19.997-.019.111-.18 1.231-.37 2.756-.468 1.412-.091 2.686-.263 2.831-.383.145-.12 1.104-.301 2.132-.403 1.027-.101 1.868-.273 1.868-.383 0-.109.696-.28 1.547-.379.851-.098 1.607-.277 1.681-.397.074-.119.655-.295 1.292-.391.636-.095 1.22-.276 1.298-.401.077-.125.424-.228.77-.228.346 0 .629-.103.629-.228 0-.126.522-.307 1.159-.403.638-.096 1.16-.272 1.16-.393s.464-.298 1.031-.394c.567-.095 1.031-.278 1.031-.406 0-.127.464-.306 1.031-.397.567-.09 1.031-.242 1.031-.336 0-.094.638-.388 1.418-.653.779-.265 1.417-.57 1.417-.677 0-.108.348-.272.773-.366.426-.093.773-.267.773-.386s.348-.293.774-.387c.425-.093.773-.267.773-.386 0-.12.348-.294.773-.387.425-.093.773-.253.773-.355 0-.102.414-.335.919-.518.506-.183.979-.489 1.053-.68.073-.192.471-.423.885-.514.413-.09.751-.269.751-.397s.29-.305.645-.394c.354-.089.644-.253.644-.364 0-.111.29-.274.644-.363.355-.089.645-.276.645-.415 0-.139.177-.253.394-.253.218 0 .462-.174.544-.386.081-.213.282-.387.445-.387.164 0 .586-.267.939-.593.353-.326.845-.67 1.093-.765.248-.095.451-.292.451-.438 0-.146.165-.266.367-.266.201 0 .714-.348 1.14-.773.425-.425.849-.773.941-.773.093 0 .517-.348.942-.773.425-.425.885-.773 1.022-.773s.872-.638 1.633-1.418c.762-.78 1.461-1.417 1.556-1.417.216 0 4.77-4.513 4.77-4.727 0-.088.638-.797 1.417-1.577.78-.779 1.423-1.565 1.429-1.745.006-.18.354-.612.773-.96.419-.348.762-.73.762-.849 0-.12.29-.507.645-.862.354-.354.644-.76.644-.902 0-.143.29-.527.644-.856.355-.328.645-.732.645-.898 0-.165.163-.363.363-.44.2-.077.434-.421.52-.765.087-.344.271-.626.41-.626.139 0 .253-.174.253-.386 0-.213.114-.387.253-.387s.325-.29.414-.644c.089-.355.268-.645.398-.645s.349-.26.487-.579c.29-.671.825-1.553 1.055-1.74.087-.071.246-.41.354-.753.107-.344.417-.864.689-1.155.271-.292.56-.794.641-1.115.08-.322.241-.585.356-.585.115 0 .285-.348.379-.774.093-.425.276-.773.407-.773.13 0 .237-.29.237-.644 0-.354-.101-.644-.225-.644-.123 0-.298-.462-.389-1.027-.13-.813-.297-1.06-.806-1.188-.353-.088-.642-.255-.642-.37 0-.115-.348-.286-.773-.379-.425-.094-.773-.272-.773-.396s-.406-.301-.902-.395c-.496-.093-.902-.272-.902-.398s-.174-.229-.387-.229c-.212 0-.386-.123-.386-.273 0-.15-.1-.211-.222-.136-.257.159-1.578-.405-1.581-.675-.001-.099-.407-.257-.904-.35-.496-.093-.902-.273-.902-.399s-.58-.229-1.288-.229c-.709 0-1.289.116-1.289.258 0 .142-.156.258-.347.258-.552 0-1.407.87-1.597 1.626-.095.381-.265.693-.376.693-.111 0-.274.29-.363.645-.089.354-.266.644-.394.644s-.309.348-.402.773c-.094.425-.264.773-.379.773-.116 0-.283.29-.372.645-.088.354-.275.644-.414.644-.139 0-.253.178-.253.395 0 .217-.174.461-.386.543-.213.081-.387.31-.387.507 0 .198-.108.359-.24.359-.133 0-.323.261-.423.58-.1.319-.456.835-.79 1.148-.335.312-.609.672-.609.8 0 .127-.292.547-.648.932-.357.385-.571.836-.475 1.004.096.167.087.225-.021.128-.211-.189-1.691 1.2-1.691 1.588 0 .129-.87 1.099-1.933 2.155-1.063 1.056-1.933 2.049-1.933 2.205a.278.278 0 0 1-.27.285c-.148 0-1.193.928-2.323 2.062-1.129 1.134-2.159 2.062-2.289 2.062-.129 0-.476.305-.769.679-.294.373-.535.587-.535.476 0-.112-.216.046-.481.352-.264.305-.587.555-.716.555s-.433.231-.676.515c-.242.283-.616.515-.83.515-.214 0-.389.119-.389.265 0 .145-.293.375-.651.511-.358.136-.718.423-.8.637-.083.214-.236.335-.341.27-.106-.065-.413.086-.682.337-.27.25-.693.532-.941.627-.248.095-.451.292-.451.438 0 .146-.217.266-.481.266s-.776.232-1.136.515c-.36.284-.782.516-.937.516-.155 0-.281.116-.281.258 0 .141-.174.257-.387.257-.213 0-.387.121-.387.269 0 .148-.145.252-.322.23-.484-.059-1.482.306-1.482.542 0 .114-.348.283-.773.377-.425.093-.773.267-.773.386 0 .12-.348.294-.773.387-.426.093-.773.267-.773.387 0 .119-.356.295-.791.39a7.238 7.238 0 0 0-1.482.534c-.38.199-.815.362-.965.363-.151.001-.875.291-1.61.646-.734.354-1.568.644-1.852.644-.284 0-.517.103-.517.228s-.638.308-1.417.405c-.78.098-1.418.272-1.418.387 0 .115-.667.292-1.482.394-.815.102-1.546.288-1.625.415-.079.127-1.036.306-2.127.399-1.09.092-1.982.266-1.982.387s-.638.22-1.418.22c-.872 0-1.418.111-1.418.288 0 .2-.501.234-1.649.111-1.076-.115-1.708-.081-1.819.099-.23.372-10.354.38-10.583.009-.106-.171-.852-.205-2.077-.094-1.36.123-1.913.089-1.913-.12 0-.175-.464-.293-1.16-.293-.637 0-1.159-.099-1.159-.221 0-.121-.833-.298-1.85-.392-1.017-.095-1.974-.271-2.126-.392-.152-.121-.944-.301-1.759-.399-.815-.099-1.482-.272-1.482-.385 0-.114-.607-.287-1.348-.385-.742-.099-1.409-.259-1.482-.356-.18-.237-2.673-1.078-3.197-1.078-.229 0-.416-.111-.416-.246 0-.136-.406-.322-.902-.416-.496-.093-.902-.267-.902-.386 0-.12-.406-.294-.902-.387-.496-.093-.902-.267-.902-.386 0-.12-.406-.294-.902-.387-.497-.093-.903-.263-.903-.378 0-.114-.376-.291-.837-.392-.461-.101-.991-.403-1.178-.669-.186-.267-.447-.419-.579-.337-.133.081-.241.025-.241-.125s-.174-.273-.386-.273c-.213 0-.387-.11-.387-.246 0-.135-.405-.322-.9-.415-.494-.092-.838-.268-.762-.39.075-.122-.158-.296-.518-.387-.36-.09-.655-.255-.655-.366 0-.111-.29-.274-.644-.363-.355-.089-.644-.276-.644-.415 0-.139-.174-.253-.387-.253-.213 0-.387-.108-.387-.24s-.25-.32-.555-.417c-.306-.097-.799-.432-1.096-.745-.297-.313-.742-.644-.99-.735-.248-.091-.451-.286-.451-.432 0-.146-.173-.266-.385-.266-.211 0-.717-.348-1.123-.773-.406-.425-.818-.773-.914-.773-.096 0-.719-.522-1.385-1.16-.666-.638-1.291-1.16-1.39-1.16-.251 0-5.37-5.097-5.37-5.347 0-.112-.522-.748-1.16-1.413-.638-.666-1.16-1.282-1.16-1.369 0-.087-.348-.506-.773-.931-.426-.425-.773-.886-.773-1.023 0-.138-.261-.507-.58-.82-.66-.648-1.172-1.398-1.386-2.03-.081-.238-.31-.496-.508-.572a.613.613 0 0 1-.362-.533c0-.217-.113-.395-.252-.395s-.326-.29-.415-.644c-.089-.354-.265-.644-.391-.644-.127 0-.23-.166-.23-.369 0-.202-.145-.521-.322-.708-.178-.188-.592-.892-.92-1.565-.329-.673-.706-1.224-.838-1.224s-.24-.239-.24-.531c0-.292-.107-.464-.239-.383-.132.082-.277-.115-.322-.436-.06-.419-.283-.606-.792-.665-.39-.045-.709-.19-.709-.322s-.522-.241-1.159-.241c-.638 0-1.16.116-1.16.258m103.415 97.337c-.603.064-1.096.209-1.096.323 0 .115-.498.276-1.106.36-.609.083-1.45.33-1.869.549-.419.218-.907.398-1.084.399-.177 0-.322.104-.322.229s-.203.296-.451.379c-.631.212-1.352.71-2.01 1.391-.309.318-.665.581-.79.584-.293.006-1.388 1.155-1.388 1.457 0 .126-.226.391-.502.59-.276.199-.443.457-.371.573.071.116.007.21-.143.21s-.273.162-.273.36c0 .197-.174.425-.386.507-.213.081-.387.326-.387.543 0 .217-.107.395-.237.395-.131 0-.314.348-.407.773-.094.425-.267.773-.385.773s-.293.464-.389 1.031c-.095.567-.28 1.031-.409 1.031-.129 0-.235.283-.235.629 0 .346-.11.697-.245.78-.134.083-.201.495-.148.914.054.42-.01.829-.142.91-.131.081-.238.837-.238 1.679 0 .849-.115 1.531-.258 1.531-.155 0-.258 1.031-.258 2.577 0 1.547.103 2.578.258 2.578.146 0 .258.73.258 1.675 0 1.069.105 1.675.29 1.675s.234.281.135.774c-.087.436-.045.773.097.773.138 0 .251.348.251.773 0 .425.115.773.255.773s.329.464.419 1.031c.091.567.257 1.031.369 1.031.113 0 .281.348.375.773.093.425.264.773.379.773.115 0 .282.29.371.645.089.354.275.644.414.644.139 0 .253.141.253.314 0 .359 1.237 1.49 1.63 1.49.143 0 .188.072.1.161-.228.228 1.911 2.31 2.596 2.528.314.099.571.28.571.401s.348.296.773.39c.425.093.773.276.773.407 0 .13.174.237.387.237.213 0 .387.111.387.246s.435.326.966.424c.532.097 1.03.275 1.108.393.53.811 12.822.85 13.353.043.091-.139.57-.331 1.065-.427 1.11-.217 2.322-.738 2.322-1 0-.107.178-.195.395-.195a.615.615 0 0 0 .534-.363c.077-.2.421-.434.765-.52.344-.087.626-.271.626-.41 0-.139.145-.253.322-.253.177 0 .67-.353 1.095-.783.425-.431.976-.978 1.224-1.217.248-.239.451-.557.451-.707 0-.149.232-.439.516-.644.283-.204.515-.472.515-.596 0-.123.232-.519.516-.88.283-.36.515-.871.515-1.136 0-.264.111-.48.246-.48.136 0 .323-.406.416-.902.093-.497.264-.902.379-.902.116 0 .291-.638.388-1.418.097-.78.28-1.417.405-1.417.126 0 .228-.464.228-1.031s.116-1.031.258-1.031c.162 0 .258-1.713.258-4.624 0-2.805-.102-4.687-.258-4.784-.142-.087-.258-.616-.258-1.175 0-.558-.102-1.015-.228-1.015-.125 0-.308-.638-.405-1.418-.097-.779-.276-1.417-.396-1.417s-.295-.348-.388-.774c-.094-.425-.268-.773-.387-.773s-.293-.348-.387-.773c-.093-.425-.264-.773-.379-.773-.115 0-.282-.29-.371-.644-.089-.355-.275-.645-.414-.645-.139 0-.253-.123-.253-.273 0-.359-3.206-3.593-3.562-3.593-.151 0-.426-.215-.612-.478-.185-.263-.597-.561-.916-.662-.319-.101-.58-.286-.58-.412s-.407-.305-.905-.398c-.498-.094-.962-.263-1.032-.376-.07-.113-.62-.289-1.222-.389-.601-.101-1.17-.303-1.263-.45-.175-.277-8.389-.489-10.462-.271m132.153.005c-.496.067-1.023.224-1.173.348-.149.124-.758.303-1.354.399-.595.095-1.082.261-1.082.37 0 .108-.314.275-.696.371-.383.096-.957.457-1.276.801-.32.345-.654.627-.742.627-.279 0-1.668 1.493-1.668 1.792 0 .157-.174.353-.386.434-.213.082-.387.26-.387.397s-.174.423-.387.635c-.212.213-.386.669-.386 1.013 0 .344-.129.626-.287.626-.173 0-.242.309-.174.773.063.425.014.773-.109.773-.343 0-.072 5.757.276 5.873.162.054.294.383.294.732s.29.925.644 1.279c.354.355.644.747.644.872 0 .336 1.603 1.951 2.127 2.144.248.092.451.281.451.421 0 .139.406.33.902.423.496.093.902.263.902.378 0 .114.348.285.773.378.425.093.773.277.773.407 0 .131.348.237.773.237.426 0 .774.108.774.24 0 .131.667.319 1.482.418.815.099 1.598.269 1.739.379.142.11 1.389.283 2.771.385 1.382.102 2.513.273 2.513.38 0 .107.575.27 1.278.363.703.094 1.339.269 1.415.391.075.122.543.297 1.041.391.498.093.905.255.905.36 0 .105.348.396.773.647.425.251.773.599.773.772 0 .173.232.482.515.686.321.232.46.544.369.83-.082.26-.016.459.153.459.209 0 .255.483.156 1.611-.077.886-.153 1.814-.167 2.062-.015.248-.136.451-.268.451-.133 0-.242.122-.242.271 0 .371-1.657 2.049-2.024 2.049-.163 0-.296.105-.296.233 0 .129-.58.314-1.288.411-.709.098-1.289.282-1.289.411s-1.676.233-3.737.233c-2.062 0-3.737-.104-3.737-.233s-.58-.313-1.289-.411c-.709-.097-1.289-.27-1.289-.383 0-.113-.287-.278-.639-.366-.76-.191-2.453-1.814-2.453-2.352 0-.208-.123-.378-.273-.378-.15 0-.207-.108-.125-.24.082-.132.03-.313-.114-.402-.144-.089-.262-.503-.262-.92 0-.417-.109-.758-.243-.758-.133 0-.278-.493-.322-1.095l-.079-1.096-2.706-.075c-3.836-.106-3.866-.094-3.866 1.627 0 .777.099 1.412.22 1.412.122 0 .293.775.382 1.721.088.947.269 1.789.403 1.872.133.082.322.467.42.856.097.388.281.706.407.706.126 0 .23.176.23.392 0 .479 2.733 3.216 3.211 3.216.188 0 .409.174.49.387.082.212.326.386.543.386.217 0 .395.116.395.258 0 .142.232.258.515.258.284 0 .516.107.516.237 0 .131.377.318.837.416.461.099.954.273 1.097.386 1.118.895 14.485.906 15.071.013.074-.112.569-.285 1.101-.382.531-.098.966-.289.966-.424s.174-.246.387-.246c.212 0 .386-.104.386-.23s.305-.306.678-.4c.372-.093 1.019-.512 1.437-.93.418-.418.874-.76 1.013-.76.139 0 .189-.104.111-.23-.079-.127.032-.298.246-.38.214-.083.5-.443.636-.801.137-.358.361-.651.5-.651s.333-.435.43-.966c.098-.532.306-1.049.463-1.151.39-.252.394-7.882.004-8.137-.155-.101-.356-.563-.446-1.026-.181-.93-.196-.954-1.738-2.702-.594-.673-1.227-1.224-1.406-1.224-.179 0-.393-.174-.475-.386-.081-.213-.326-.387-.543-.387-.217 0-.394-.111-.394-.246s-.406-.322-.902-.415c-.497-.093-.902-.267-.902-.387 0-.119-.406-.293-.903-.387-.496-.093-.902-.26-.902-.372 0-.111-.811-.284-1.804-.384-.992-.099-1.804-.285-1.804-.412 0-.128-.638-.232-1.417-.232-.78 0-1.418-.104-1.418-.231s-.928-.313-2.062-.413c-1.134-.101-2.062-.272-2.062-.38 0-.108-.48-.261-1.068-.34-.587-.079-1.138-.252-1.224-.386-.086-.133-.442-.332-.79-.441-.856-.267-2.007-1.455-2.216-2.286-.093-.373-.273-.678-.4-.678-.126 0-.229-.638-.229-1.417 0-.78.103-1.418.229-1.418.127 0 .307-.305.4-.677.181-.721 1.465-2.158 1.928-2.158.153 0 .278-.103.278-.23 0-.126.317-.309.706-.407.388-.097.79-.313.892-.479.246-.396 7.63-.406 7.889-.009.098.15.617.342 1.154.426.537.085 1.329.451 1.759.813.431.363.891.659 1.021.659.131 0 .238.166.238.369 0 .202.188.556.418.785.264.264.468 1.05.555 2.139.185 2.308.285 2.378 3.39 2.378 3.225 0 3.627-.27 3.627-2.434 0-.771-.1-1.464-.222-1.539-.122-.075-.291-.633-.375-1.24-.185-1.321-1.085-3.262-1.606-3.462-.206-.079-.374-.288-.374-.465 0-.401-1.169-1.685-1.534-1.685-.149 0-.27-.108-.27-.241 0-.132-.256-.321-.568-.42-.313-.099-.727-.339-.921-.533-.194-.194-.566-.353-.828-.353-.261 0-.517-.123-.567-.274-.05-.151-.611-.342-1.246-.425-.634-.083-1.234-.275-1.332-.426-.185-.283-9.275-.485-11.032-.244m-359.381.488c-.086.225-.156 9.793-.156 21.263v20.855H27.32l-.004-2.77c-.003-1.524-.096-2.914-.207-3.09-.154-.243-2.604-.335-10.241-.386l-10.038-.068-.066-17.739c-.056-14.927-.125-17.798-.433-18.106-.56-.56-5.7-.524-5.917.041m38.051-.02c-.255.29-.31 4.77-.258 21.189l.066 20.821 3.157.072 3.158.072V236.33c0-17.772-.056-20.958-.369-21.271-.521-.521-5.292-.506-5.754.019m21.007.101c-.575.582-.713 41.157-.142 41.728.509.509 6.036.422 6.235-.098.086-.224.157-7.183.157-15.464s.066-15.056.147-15.056c.328 0 .906.786.756 1.029-.088.142-.038.259.112.259s.273.162.273.359c0 .198.174.426.387.508.213.081.387.326.387.543 0 .217.108.394.24.394s.321.256.42.568c.1.313.339.727.533.921.194.194.353.506.353.693 0 .187.174.407.386.489.213.082.387.276.387.431 0 .306 1.294 2.127 1.611 2.268.106.047.193.254.193.459 0 .205.174.44.387.522.212.081.386.301.386.489 0 .187.159.499.353.693.194.194.442.637.552.985.11.347.433.835.718 1.083s.413.455.285.46c-.128.004.014.214.314.465.301.251.628.711.726 1.022.099.311.276.566.392.566.117 0 .286.29.374.644.089.355.276.645.415.645.139 0 .253.177.253.394 0 .217.163.458.363.534.2.077.434.421.521.765.086.345.27.626.409.626.139 0 .253.174.253.387 0 .212.114.386.253.386s.326.29.415.645c.089.354.262.644.385.644s.461.522.751 1.16c.291.638.629 1.16.752 1.16s.296.289.385.644c.089.354.276.644.415.644.139 0 .252.174.252.387 0 .212.119.386.265.386.145 0 .377.261.514.58.304.702.784 1.466 1.219 1.941.177.193.322.505.322.692 0 .187.174.407.387.489.212.081.386.305.386.496 0 1.35 6.949 2.293 8.137 1.104.553-.552.553-41.237 0-41.789-.562-.563-5.958-.528-6.176.039-.086.225-.157 7.263-.157 15.642 0 14.915-.01 15.223-.484 14.714-.266-.286-.564-.773-.662-1.083-.099-.31-.287-.498-.419-.416-.131.081-.239-.095-.239-.391 0-.296-.163-.602-.363-.678-.2-.077-.434-.421-.52-.765-.087-.345-.271-.626-.41-.626-.139 0-.253-.178-.253-.395 0-.217-.174-.461-.387-.543-.212-.081-.386-.355-.386-.609 0-.253-.174-.527-.387-.608-.213-.082-.387-.326-.387-.543 0-.217-.113-.395-.252-.395s-.326-.29-.415-.644c-.089-.355-.252-.645-.363-.645-.111 0-.275-.29-.364-.644-.089-.354-.275-.644-.415-.644-.139 0-.252-.178-.252-.395a.616.616 0 0 0-.364-.534c-.2-.077-.434-.421-.52-.765-.086-.344-.271-.626-.41-.626-.139 0-.253-.174-.253-.386 0-.213-.114-.387-.253-.387s-.323-.282-.409-.626c-.087-.344-.321-.688-.521-.765a.615.615 0 0 1-.363-.534c0-.217-.114-.395-.253-.395s-.323-.281-.41-.625c-.086-.344-.32-.689-.52-.765a.606.606 0 0 1-.364-.52c0-.209-.223-.537-.497-.728-.273-.192-.576-.662-.672-1.046-.096-.383-.271-.697-.388-.697-.116 0-.293-.261-.393-.58-.099-.319-.252-.638-.339-.709-.272-.221-1.319-1.774-1.319-1.956 0-.096-.215-.362-.478-.591-.264-.229-.561-.678-.662-.997-.101-.318-.291-.579-.424-.579-.132 0-.24-.178-.24-.395a.614.614 0 0 0-.363-.534c-.2-.077-.434-.421-.521-.765-.086-.344-.27-.626-.409-.626-.14 0-.253-.166-.253-.368 0-.203-.145-.522-.322-.709-.178-.187-.484-.654-.682-1.037-.213-.414-.657-.762-1.095-.858-.405-.089-.736-.269-.736-.399 0-.483-5.754-.253-6.25.251m48.932-.081c-.086.225-.157 9.793-.157 21.263v20.855h3.042c2.021 0 3.145-.103 3.35-.309.234-.233.309-3.963.309-15.206 0-14.173.093-16.081.699-14.446.092.248.389.648.66.889.271.24.43.538.354.661-.076.124.087.388.363.586.276.199.502.514.502.7 0 .186.167.402.371.48.204.078.445.48.536.894.09.413.264.751.385.751.12 0 .301.261.4.58.1.319.253.638.34.709.087.071.558.709 1.047 1.418.489.708.966 1.346 1.061 1.417.094.071.253.39.353.709.099.319.289.58.421.58s.24.177.24.395c0 .217.164.457.364.534.2.076.434.421.52.765.086.344.271.625.41.625.139 0 .253.174.253.387 0 .213.114.387.253.387s.325.29.414.644c.089.354.265.644.392.644.126 0 .229.178.229.395 0 .217.174.461.387.543.213.082.387.302.387.489s.158.499.352.693c.194.194.434.608.533.921.099.312.288.568.421.568.132 0 .24.177.24.394 0 .217.174.462.387.543.212.082.386.31.386.508 0 .197.108.359.241.359.132 0 .321.255.42.568.099.312.339.726.533.92.194.194.353.506.353.693 0 .188.174.408.386.489.213.082.387.326.387.543 0 .217.114.395.253.395s.325.29.414.644c.089.355.265.645.392.645.126 0 .229.174.229.386 0 .213.114.387.253.387s.324.281.41.625c.087.345.321.689.521.766a.616.616 0 0 1 .363.534c0 .217.114.394.253.394s.325.29.414.645c.089.354.323.644.521.644.197 0 .358.116.358.258 0 .159 1.375.257 3.609.257h3.608v-20.855c0-11.47-.071-21.038-.157-21.263-.193-.503-5.323-.605-5.846-.117-.238.223-.296 3.952-.243 15.855.067 15.338.061 15.556-.426 15.07-.272-.272-.571-.738-.666-1.035-.094-.298-.267-.541-.384-.541-.116 0-.285-.29-.374-.644-.089-.355-.275-.645-.414-.645-.139 0-.253-.177-.253-.394 0-.218-.174-.462-.387-.543-.212-.082-.386-.31-.386-.508 0-.197-.116-.359-.258-.359-.142 0-.258-.166-.258-.368 0-.203-.158-.527-.352-.721-.194-.194-.434-.608-.533-.92-.099-.313-.289-.568-.421-.568s-.24-.178-.24-.395c0-.217-.174-.461-.387-.543-.212-.082-.386-.302-.386-.489s-.145-.499-.323-.692c-.463-.505-.958-1.293-1.128-1.794-.08-.238-.309-.495-.508-.572a.614.614 0 0 1-.361-.533c0-.217-.108-.395-.24-.395-.133 0-.322-.255-.421-.567-.099-.313-.339-.727-.533-.921-.194-.194-.352-.518-.352-.721 0-.202-.116-.368-.258-.368-.142 0-.258-.168-.258-.374a.775.775 0 0 0-.322-.58c-.324-.207-.818-.907-1.147-1.623a3.056 3.056 0 0 0-.514-.727c-.185-.188-.336-.507-.336-.709 0-.203-.119-.368-.265-.368-.145 0-.376-.261-.514-.58-.348-.805-.824-1.533-1.301-1.994-.223-.215-.48-.593-.572-.841-.092-.248-.287-.451-.433-.451-.146 0-.266-.236-.266-.524 0-.288-.163-.586-.363-.663-.2-.077-.441-.449-.536-.827-.095-.378-.257-.746-.36-.819-.103-.072-.577-.74-1.054-1.484-.476-.745-.95-1.353-1.053-1.353-.102 0-.259-.289-.347-.641a1.1 1.1 0 0 0-.801-.801c-.352-.088-.641-.264-.641-.39 0-.452-6.369-.279-6.544.177m45.562.261c-.25.997.039 7.088.346 7.282.145.093.348.777.449 1.521.101.745.289 1.353.418 1.353.128 0 .233.348.233.774 0 .425.107.773.238.773.13 0 .318.754.416 1.675.099.922.267 1.675.374 1.675.107 0 .271.576.364 1.278.093.703.271 1.341.395 1.418.123.076.305.835.404 1.685.099.851.273 1.547.387 1.547.114 0 .288.696.386 1.547.099.85.284 1.546.412 1.546s.233.29.233.644c0 .355.125.645.278.645.175 0 .215.286.108.773-.107.486-.066.773.109.773.153 0 .278.348.278.773 0 .425.102.773.228.773.125 0 .308.754.407 1.676.098.921.272 1.675.387 1.675.114 0 .287.638.384 1.417.098.78.274 1.418.391 1.418.118 0 .295.696.394 1.546.098.851.284 1.547.411 1.547.128 0 .233.348.233.773 0 .425.124.773.276.773.152 0 .24.275.196.611-.201 1.533.653 1.966 3.876 1.966 3.27 0 3.899-.297 3.899-1.843 0-.404.116-.734.258-.734.142 0 .258-.225.258-.5s.102-.564.227-.641c.126-.077.311-.809.413-1.626.102-.817.293-1.552.424-1.634.131-.081.309-.748.396-1.482.087-.733.254-1.333.371-1.333.117 0 .29-.58.384-1.289.094-.709.263-1.289.377-1.289.113 0 .285-.638.383-1.417.097-.78.28-1.418.405-1.418s.228-.283.228-.629c0-.346.105-.694.234-.773.128-.08.313-.724.41-1.433.098-.709.269-1.288.381-1.288.113 0 .284-.638.381-1.418.098-.78.272-1.417.387-1.417.115 0 .289-.638.387-1.418.097-.78.273-1.418.391-1.418.117 0 .294-.695.393-1.546.099-.85.284-1.546.412-1.546s.232-.29.232-.645c0-.354.116-.644.258-.644.142 0 .259-.319.262-.709.01-1.79.609-1.615.881.258.097.673.27 1.224.383 1.224.114 0 .277.6.364 1.334.087.733.263 1.4.392 1.482.128.081.316.757.417 1.501.101.744.289 1.353.418 1.353.128 0 .233.254.233.563 0 .711.804 3.647 1.046 3.819.099.071.264.738.365 1.482.101.744.276 1.353.388 1.353.112 0 .284.638.381 1.417.097.78.271 1.418.387 1.418.115 0 .289.638.386 1.417.098.78.285 1.418.417 1.418.131 0 .239.348.239.773 0 .425.129.773.288.773.16 0 .228.228.153.516-.075.283-.03.58.098.659.129.079.234.486.234.902 0 .417.108.758.239.758.132 0 .319.638.416 1.418.098.78.27 1.417.383 1.417.113 0 .287.487.388 1.081.283 1.678.457 1.754 3.986 1.754 3.646 0 3.739-.049 4.001-2.148.1-.803.269-1.46.375-1.46.105 0 .263-.6.35-1.333.087-.734.268-1.402.402-1.485.135-.084.327-.875.427-1.76.1-.884.283-1.607.406-1.607.124 0 .225-.348.225-.774 0-.425.102-.773.228-.773.125 0 .308-.638.405-1.417.097-.78.273-1.418.391-1.418s.295-.696.393-1.546c.099-.851.275-1.547.392-1.547.116 0 .292-.753.391-1.675.099-.921.267-1.675.374-1.675.107 0 .271-.575.364-1.278.093-.703.282-1.348.42-1.433.138-.085.25-.496.25-.913 0-.416.105-.758.233-.758.127 0 .313-.695.411-1.546.099-.85.271-1.546.383-1.546.111 0 .282-.638.379-1.418.098-.779.274-1.417.391-1.417.118 0 .295-.696.394-1.547.099-.85.297-1.546.44-1.546.146 0 .214-.397.155-.902-.058-.496-.012-.902.101-.902.238 0 .283-5.685.049-6.294-.482-1.257-5.255-.287-5.255 1.068 0 .322-.105.587-.233.587s-.313.695-.412 1.546c-.099.85-.284 1.546-.412 1.546s-.232.399-.232.887-.117.959-.259 1.047c-.142.088-.187.443-.101.788.096.383.046.629-.128.629-.157 0-.285.348-.285.773 0 .425-.105.773-.233.773s-.313.696-.412 1.547c-.098.85-.27 1.546-.382 1.546-.111 0-.283.754-.381 1.675-.099.922-.273 1.676-.387 1.676-.114 0-.287.637-.385 1.417-.097.78-.26 1.418-.361 1.418-.161 0-.452 1.109-.978 3.737-.085.425-.245.889-.355 1.031-.11.141-.283.924-.384 1.739-.101.815-.274 1.482-.386 1.482-.111 0-.283.696-.382 1.547-.235 2.022-.886 1.882-.899-.194-.002-.319-.106-.579-.232-.579-.125 0-.306-.52-.401-1.154-.095-.635-.282-1.222-.416-1.304-.134-.083-.243-.491-.243-.908 0-.417-.112-.758-.249-.758s-.326-.583-.42-1.295c-.095-.712-.266-1.352-.381-1.423-.115-.071-.287-.648-.382-1.283-.095-.635-.262-1.154-.372-1.154-.109 0-.278-.638-.375-1.417-.098-.78-.27-1.418-.383-1.418-.114 0-.283-.575-.376-1.278-.093-.703-.282-1.348-.42-1.433-.137-.085-.25-.379-.25-.655 0-.275-.103-.5-.228-.5-.126 0-.308-.638-.405-1.417-.098-.78-.272-1.418-.387-1.418-.115 0-.289-.638-.386-1.417-.098-.78-.277-1.418-.398-1.418-.122 0-.301-.638-.398-1.418-.097-.779-.269-1.417-.381-1.417-.112 0-.282-.567-.377-1.26-.282-2.049-.827-2.348-4.277-2.348-3.233 0-3.477.115-3.742 1.778-.093.581-.271 1.057-.394 1.057-.124 0-.225.283-.225.629 0 .346-.1.691-.223.767-.123.076-.167.431-.099.788.073.382.005.651-.163.651-.159 0-.288.29-.288.644 0 .355-.101.644-.225.644-.123 0-.301.58-.395 1.289-.094.709-.275 1.289-.401 1.289-.127 0-.31.638-.408 1.417-.097.78-.271 1.418-.386 1.418-.116 0-.29.638-.387 1.417-.097.78-.28 1.418-.405 1.418-.126 0-.228.283-.228.629 0 .346-.113.699-.251.784-.137.085-.326.73-.419 1.433-.094.702-.267 1.278-.386 1.278-.118 0-.292.582-.387 1.294-.094.712-.266 1.353-.38 1.424-.115.071-.287.648-.382 1.282-.096.635-.263 1.154-.372 1.154-.109 0-.279.638-.376 1.418-.097.779-.271 1.417-.387 1.417-.115 0-.289.638-.386 1.418-.273 2.182-1.046 2.028-1.291-.258-.098-.921-.274-1.675-.391-1.675-.116 0-.293-.696-.391-1.547-.099-.85-.284-1.546-.412-1.546s-.233-.348-.233-.773c0-.425-.099-.773-.222-.773-.122 0-.166-.291-.098-.646.068-.355.007-.79-.136-.967-.142-.176-.341-.929-.441-1.673-.1-.744-.287-1.418-.415-1.497-.129-.08-.234-.486-.234-.903 0-.417-.105-.758-.232-.758-.128 0-.316-.725-.418-1.61-.102-.886-.29-1.678-.419-1.76-.128-.081-.304-.748-.391-1.482-.087-.733-.247-1.333-.355-1.333-.108 0-.277-.696-.376-1.547-.098-.85-.272-1.546-.386-1.546-.114 0-.288-.696-.387-1.546-.099-.851-.284-1.547-.412-1.547s-.232-.406-.232-.902-.102-.902-.226-.902c-.124 0-.295-.348-.38-.773l-.154-.773h-2.45c-2.422 0-2.452.007-2.618.668m109.114-.18c-.575.582-.713 41.157-.142 41.728.206.206 1.329.309 3.351.309h3.041v-8.523c0-7.044.064-8.588.368-8.892.448-.447 9.683-.553 9.683-.11 0 .141.174.257.387.257.213 0 .387.165.387.366 0 .2.087.403.193.451.293.13 1.353 1.703 1.353 2.008 0 .148.116.268.258.268.142 0 .257.174.257.387 0 .212.109.386.241.386s.321.256.42.568c.1.313.339.727.533.921.194.194.353.506.353.693 0 .187.174.407.386.489.213.082.387.326.387.543 0 .217.114.395.253.395s.325.29.414.644c.089.354.252.644.362.644.11 0 .268.203.351.451.216.642.756 1.447 1.133 1.688a.775.775 0 0 1 .322.58c0 .206.108.374.24.374.133 0 .322.256.421.568.099.312.339.727.533.92.194.194.353.519.353.721 0 .203.116.368.257.368.142 0 .258.178.258.395 0 .217.163.457.361.533.199.077.422.372.497.656.074.284.375.579.669.656.294.077.535.243.535.368 0 .396 3.602.27 4.013-.141.397-.397.554-5.302.169-5.302-.109 0-.427-.435-.706-.966-.279-.532-.653-1.059-.832-1.173a.772.772 0 0 1-.325-.58c0-.205-.108-.373-.24-.373s-.321-.256-.421-.568c-.099-.313-.338-.727-.532-.921-.194-.194-.353-.518-.353-.721 0-.202-.116-.368-.258-.368-.141 0-.257-.177-.257-.394a.618.618 0 0 0-.364-.535c-.2-.076-.434-.42-.52-.765-.087-.344-.271-.625-.41-.625-.139 0-.253-.174-.253-.387 0-.213-.108-.386-.24-.386s-.322-.261-.422-.58c-.099-.319-.252-.638-.339-.709-.23-.187-.765-1.069-1.055-1.74-.138-.319-.369-.58-.515-.58-.781 0-.096-.482.896-.631.638-.095 1.16-.273 1.16-.395s.353-.299.785-.394c.432-.095.924-.394 1.093-.665.169-.271.445-.492.612-.492.396 0 1.891-1.495 1.891-1.891 0-.168.222-.443.492-.612.271-.169.576-.69.677-1.157.102-.468.315-.933.474-1.034.4-.254.405-9.169.005-9.426-.157-.101-.36-.594-.452-1.095-.092-.5-.399-1.077-.682-1.281-.282-.204-.514-.472-.514-.597 0-.856-3.779-3.526-4.99-3.526-.209 0-.419-.12-.468-.267-.049-.146-1.016-.331-2.148-.41-1.132-.079-2.097-.249-2.145-.377-.184-.503-20.737-.257-21.241.254m45.746-.101c-.255.29-.31 4.77-.258 21.189l.066 20.821 3.039.072c4.109.099 3.791.677 3.791-6.89v-6.21l2.787-2.797 2.786-2.797.822.863c.452.475.821.964.821 1.088 0 .124.232.435.516.691.283.257.515.58.515.719 0 .138.392.62.87 1.071.478.451.95 1.074 1.048 1.384.098.31.291.563.427.563.137 0 .324.203.415.451.091.248.546.815 1.01 1.259.464.445.772.879.686.965-.087.087.151.423.528.747.378.324.686.689.686.81 0 .121.29.488.645.817.354.328.644.709.644.847s.348.598.773 1.023c.426.426.773.856.773.957 0 .101.29.453.645.781.354.328.644.71.644.847 0 .138.348.598.773 1.024.426.425.774.898.774 1.05 0 .153.174.278.386.278.213 0 .387.116.387.258 0 .419 3.582.321 4.013-.111.423-.423.541-5.302.128-5.302-.132 0-.32-.25-.417-.555-.097-.306-.453-.812-.79-1.125-.338-.313-.615-.695-.615-.849 0-.154-.147-.373-.328-.486-.181-.114-.545-.546-.809-.96a8.21 8.21 0 0 0-1.044-1.289c-.31-.294-.638-.738-.729-.986-.092-.248-.278-.451-.415-.451-.136 0-.33-.261-.43-.58-.101-.318-.549-.927-.997-1.353-.448-.425-.892-.976-.987-1.224-.095-.248-.284-.451-.421-.451-.136 0-.33-.256-.429-.57-.1-.313-.513-.902-.92-1.308-.406-.407-.738-.851-.738-.989s-.29-.519-.644-.847c-.355-.329-.645-.687-.645-.796 0-.109-.276-.455-.614-.768-.338-.313-.69-.809-.783-1.101-.093-.293-.338-.597-.546-.677-.835-.32-.123-1.191 5.938-7.261l6.315-6.324v-2.545c0-3.35-.006-3.36-1.703-3.36-.765 0-1.39.103-1.39.23 0 .126-.304.305-.674.398-.419.106-4.241 3.737-10.116 9.613l-9.442 9.443-.068-9.33c-.082-11.26.244-10.359-3.734-10.344-1.954.007-2.726.105-2.965.377m80.092.901c0 .712.071.774.902.774h.902v4.381h1.546v-4.381h.773c.688 0 .773-.086.773-.774v-.773h-4.896v.773m5.412 2.191v2.964h.773c.694 0 .776-.085.803-.838.017-.46.083-.634.148-.386.065.248.225.451.357.451.131 0 .238.174.238.386 0 .807 1.445.463 1.895-.451l.413-.837.006.837c.005.664.113.838.522.838.485 0 .515-.172.515-2.964v-2.964h-.644c-.401 0-.645.146-.645.387 0 .212-.116.386-.257.386-.142 0-.258.225-.258.501 0 .275-.124.576-.275.67-.152.094-.213.332-.137.531.087.228-.036.36-.336.36-.355 0-.517-.261-.64-1.031-.09-.567-.279-1.031-.419-1.031-.14 0-.255-.174-.255-.386 0-.27-.272-.387-.902-.387h-.902v2.964m-131.25 27.9c-.039 5.492-.071.998-.071-9.988 0-10.985.032-15.48.071-9.987.039 5.493.039 14.482 0 19.975m-27.262-25.212c.075.117.629.295 1.231.396.602.101 1.095.289 1.095.418s.174.235.387.235c.213 0 .387.108.387.241 0 .132.256.321.57.421.951.302 3.019 2.514 3.718 3.977.101.213.259.445.35.516.27.211 1.032 2.29 1.032 2.819 0 .268.145.537.322.596.244.082.322 1.462.322 5.735 0 4.272-.078 5.652-.322 5.734-.177.059-.322.271-.322.471 0 .496-.853 2.428-1.072 2.428-.097 0-.25.339-.341.752-.091.413-.332.816-.536.894-.204.078-.371.385-.371.681 0 .296-.116.467-.258.38-.141-.088-.257-.054-.257.076 0 .407-1.246 1.599-1.671 1.599a.633.633 0 0 0-.55.371c-.078.204-.48.445-.894.536-.413.09-.751.258-.751.373 0 .114-.52.286-1.154.381-.635.095-1.222.282-1.304.416-.203.328-5.973.314-6.176-.015-.088-.142-.4-.258-.693-.258-1.647 0-6.043-3.123-6.523-4.635-.09-.286-.273-.52-.405-.52s-.24-.174-.24-.386c0-.213-.107-.387-.238-.387-.13 0-.313-.348-.407-.773-.093-.425-.265-.773-.382-.773-.118 0-.296-.609-.398-1.353-.101-.745-.315-1.436-.475-1.537-.411-.26-.406-9.172.006-9.426.163-.102.379-.735.48-1.409.101-.673.274-1.224.383-1.224.11 0 .276-.406.369-.902.093-.496.255-.902.36-.902.105 0 .402-.357.66-.794.622-1.053 3.211-3.587 3.665-3.587.197 0 .358-.116.358-.258 0-.142.174-.258.387-.258.212 0 .386-.114.386-.254 0-.141.464-.329 1.031-.42.567-.091 1.031-.26 1.031-.376 0-.481 6.902-.48 7.21.001m50.458.727a.49.49 0 0 0 .426.322c.598 0 1.953 1.458 2.117 2.276.089.45.264.817.388.817.125 0 .226 1.044.226 2.32 0 1.275-.103 2.319-.23 2.319-.126 0-.305.3-.397.666-.187.745-1.322 1.911-1.859 1.911-.192 0-.349.116-.349.258 0 .142-.29.258-.644.258-.355 0-.645.116-.645.258 0 .448-15.159.341-15.611-.111-.505-.504-.548-11.367-.046-11.583.732-.314 16.514-.04 16.624.289"/><path fill="#242c3c" d="M189.744.449c.951.049 2.574.049 3.608 0 1.034-.049.256-.089-1.728-.09-1.985 0-2.831.04-1.88.09m28.151 71.587c0 3.544.036 5.029.081 3.301.044-1.728.045-4.628 0-6.443-.044-1.816-.081-.402-.081 3.142m0 28.479c0 3.473.036 4.894.081 3.158.045-1.737.045-4.578 0-6.315-.045-1.736-.081-.315-.081 3.157m-34.325 56.621c.248.065.654.065.902 0 .248-.064.045-.117-.451-.117-.497 0-.699.053-.451.117m15.464 0c.248.065.653.065.902 0 .248-.064.045-.117-.451-.117-.497 0-.7.053-.451.117m-62.831 74.05c0 8.434.033 11.884.073 7.667.039-4.217.039-11.118 0-15.335-.04-4.217-.073-.767-.073 7.668m126.806 4.896c0 10.986.032 15.48.071 9.988.039-5.493.039-14.482 0-19.975-.039-5.493-.071-.998-.071 9.987"/></g></svg>