<svg xmlns="http://www.w3.org/2000/svg" xmlns:xlink="http://www.w3.org/1999/xlink" width="105.46" height="170.01" viewBox="-0.991 234.02 109.456 174.008"><defs><path id="a" d="M37.52 249.89c0 2.95.88 5.84 2.53 8.29.63-.64 5.71-5.71 6.34-6.34-.21-.64-.31-1.3-.31-1.96 0-3.47 2.81-6.27 6.27-6.27 3.46 0 6.27 2.8 6.27 6.27 0 3.46-2.81 6.26-6.27 6.26-.66.01-1.32-.1-1.95-.31-.64.63-5.71 5.71-6.34 6.34 6.79 4.61 16.03 2.83 20.63-3.96 4.61-6.79 2.83-16.02-3.96-20.63a14.864 14.864 0 0 0-8.35-2.56c-8.21 0-14.87 6.66-14.86 14.87Z"/><path id="b" d="M41.84 264.4c-.83.82-7.42 7.41-8.24 8.23a11.823 11.823 0 0 1-2.26 14.26c.45 1.09 4.03 9.84 4.48 10.94a23.242 23.242 0 0 0 10.65-19.51c.01-5.02-1.62-9.91-4.63-13.92Z"/><path id="c" d="M23.44 290.13h-.21c-6.53 0-11.82-5.29-11.82-11.82s5.29-11.82 11.82-11.82c2.3 0 4.56.67 6.49 1.94l8.16-8.16c-9.97-8.08-24.59-6.55-32.67 3.42-8.08 9.96-6.55 24.59 3.41 32.67 4.13 3.35 9.29 5.18 14.61 5.18 1.57.01 3.15-.15 4.69-.46-.6-1.46-2.09-5.11-4.48-10.95Z"/><path id="d" d="M37.47 301.82c.65 1.6 5.87 14.36 6.52 15.95 2.85-.7 5.76-1.06 8.69-1.06 19.64.01 35.55 15.93 35.55 35.57-.01 19.64-15.93 35.56-35.57 35.55-19.64 0-35.55-15.93-35.55-35.57 0-9.43 3.75-18.47 10.42-25.13 2.5-2.5 5.36-4.61 8.48-6.27-.65-1.59-5.81-14.31-6.46-15.9-26.15 12.8-36.96 44.38-24.16 70.53 12.81 26.14 44.39 36.96 70.53 24.15 26.15-12.8 36.97-44.38 24.16-70.53a52.723 52.723 0 0 0-47.35-29.53c-5.2.01-10.33.76-15.26 2.24Z"/></defs><use xlink:href="#a" fill="#34a853"/><use xlink:href="#a" fill-opacity="0" stroke="#000" stroke-opacity="0"/><use xlink:href="#b" fill="#fbbc04"/><use xlink:href="#b" fill-opacity="0" stroke="#000" stroke-opacity="0"/><use xlink:href="#c" fill="#ea4335"/><use xlink:href="#c" fill-opacity="0" stroke="#000" stroke-opacity="0"/><use xlink:href="#d" fill="#4285f4"/><use xlink:href="#d" fill-opacity="0" stroke="#000" stroke-opacity="0"/></svg>