<svg width="250" height="250" viewBox="0 0 250 250" fill="none" xmlns="http://www.w3.org/2000/svg">
<path d="M125.227 59.0029C123.114 59.0038 121.041 59.573 119.231 60.6496C117.42 61.7262 115.938 63.2698 114.946 65.1151C113.953 66.9605 113.485 69.0382 113.593 71.1261C113.702 73.214 114.381 75.2335 115.56 76.9687L120.537 72.05C120.373 71.5593 120.29 71.0455 120.291 70.5285C120.291 69.5667 120.58 68.6264 121.12 67.8267C121.66 67.027 122.427 66.4036 123.325 66.0356C124.223 65.6675 125.211 65.5712 126.164 65.7588C127.118 65.9465 127.993 66.4096 128.68 67.0898C129.368 67.7699 129.836 68.6364 130.025 69.5798C130.215 70.5231 130.118 71.5009 129.746 72.3895C129.374 73.2782 128.744 74.0377 127.936 74.5721C127.128 75.1064 126.178 75.3916 125.206 75.3916C124.686 75.3928 124.169 75.3107 123.675 75.1485L118.705 80.0672C120.213 81.0796 121.941 81.7276 123.748 81.9589C125.556 82.1903 127.393 81.9985 129.112 81.3991C130.832 80.7997 132.385 79.8093 133.646 78.5077C134.908 77.2061 135.844 75.6296 136.378 73.905C136.912 72.1804 137.029 70.3558 136.721 68.5781C136.412 66.8003 135.687 65.119 134.602 63.6695C133.517 62.2199 132.104 61.0425 130.475 60.232C128.847 59.4215 127.049 59.0005 125.227 59.0029Z" fill="#34A853"/>
<path d="M120.594 92.5932C120.601 88.6999 119.327 84.91 116.964 81.7971L110.505 88.1817C111.488 89.9594 111.847 92.0091 111.527 94.0103C111.207 96.0114 110.225 97.8512 108.736 99.2418L112.246 107.731C114.806 106.1 116.911 103.86 118.369 101.215C119.828 98.5703 120.592 95.606 120.594 92.5932Z" fill="#FBBC04"/>
<path d="M102.544 101.757H102.375C100.931 101.757 99.5069 101.423 98.2164 100.781C96.9258 100.14 95.8045 99.2094 94.942 98.0631C94.0795 96.9169 93.4996 95.5871 93.2487 94.1797C92.9977 92.7723 93.0826 91.3264 93.4966 89.9573C93.9106 88.5881 94.6421 87.3337 95.633 86.294C96.6238 85.2543 97.8465 84.4582 99.2034 83.9692C100.56 83.4802 102.014 83.3117 103.448 83.4774C104.883 83.643 106.258 84.1381 107.465 84.9231L113.86 78.5941C111.597 76.7782 108.926 75.5263 106.072 74.9435C103.219 74.3607 100.265 74.4642 97.4605 75.2451C94.6556 76.026 92.081 77.4615 89.9529 79.4312C87.8248 81.4009 86.2054 83.8472 85.2307 86.5647C84.256 89.2821 83.9545 92.1914 84.3514 95.048C84.7484 97.9047 85.8322 100.625 87.5119 102.982C89.1916 105.338 91.4181 107.261 94.0044 108.589C96.5908 109.917 99.4614 110.612 102.375 110.614C103.61 110.615 104.843 110.494 106.054 110.253L102.544 101.757Z" fill="#EA4335"/>
<path d="M125.473 109.1C121.43 109.096 117.41 109.679 113.538 110.83L118.656 123.203C120.884 122.657 123.171 122.381 125.466 122.383C131.915 122.385 138.164 124.6 143.148 128.65C148.133 132.7 151.544 138.335 152.8 144.595C154.057 150.855 153.082 157.352 150.041 162.981C146.999 168.609 142.08 173.019 136.122 175.461C130.163 177.902 123.533 178.223 117.362 176.37C111.19 174.517 105.859 170.603 102.277 165.296C98.6944 159.989 97.082 153.617 97.7146 147.265C98.3471 140.914 101.185 134.976 105.746 130.463C107.708 128.527 109.948 126.888 112.394 125.6L107.332 113.261C98.2187 117.678 91.0657 125.259 87.2366 134.56C83.4075 143.86 83.1699 154.229 86.5692 163.692C89.9684 173.154 96.7668 181.048 105.669 185.869C114.571 190.691 124.954 192.102 134.84 189.835C144.726 187.568 153.424 181.78 159.275 173.575C165.127 165.37 167.723 155.322 166.57 145.344C165.417 135.366 160.595 126.158 153.022 119.472C145.449 112.787 135.656 109.092 125.508 109.093L125.473 109.1Z" fill="#4285F4"/>
</svg>
