<?xml version="1.0" encoding="UTF-8" standalone="no"?>
<!-- Generator: Adobe Illustrator 21.0.0, SVG Export Plug-In . SVG Version: 6.00 Build 0)  -->

<svg
   version="1.1"
   id="Layer_1"
   x="0px"
   y="0px"
   viewBox="0 0 448.29999 123.3"
   xml:space="preserve"
   sodipodi:docname="Mailgun_Primary.svg"
   width="448.29999"
   height="123.3"
   inkscape:version="1.2.1 (9c6d41e410, 2022-07-14, custom)"
   xmlns:inkscape="http://www.inkscape.org/namespaces/inkscape"
   xmlns:sodipodi="http://sodipodi.sourceforge.net/DTD/sodipodi-0.dtd"
   xmlns="http://www.w3.org/2000/svg"
   xmlns:svg="http://www.w3.org/2000/svg"><defs
   id="defs61" /><sodipodi:namedview
   id="namedview59"
   pagecolor="#ffffff"
   bordercolor="#666666"
   borderopacity="1.0"
   inkscape:showpageshadow="2"
   inkscape:pageopacity="0.0"
   inkscape:pagecheckerboard="0"
   inkscape:deskcolor="#d1d1d1"
   showgrid="false"
   inkscape:zoom="1.4135417"
   inkscape:cx="226.028"
   inkscape:cy="62.254974"
   inkscape:window-width="3840"
   inkscape:window-height="2083"
   inkscape:window-x="0"
   inkscape:window-y="40"
   inkscape:window-maximized="1"
   inkscape:current-layer="Layer_1" />
<style
   type="text/css"
   id="style2">
	.st0{fill:#C02126;}
	.st1{fill:#646569;}
</style>
<g
   id="g56"
   transform="translate(-254,-217.89999)">
	<g
   id="g34">
		<path
   class="st0"
   d="m 374.3,323.6 h -7 v 4.3 h 6.8 v 2.5 h -6.8 v 6 h 7 v 2.5 h -9.6 v -18 h 9.6 z"
   id="path4" />
		<path
   class="st0"
   d="m 376.7,327.7 h 2.5 v 1 c 0.5,-0.5 0.9,-0.9 1.3,-1.1 0.4,-0.2 0.8,-0.3 1.4,-0.3 1.2,0 2.2,0.6 2.9,1.7 0.8,-1.1 1.9,-1.7 3.2,-1.7 2.5,0 3.7,1.5 3.7,4.6 v 7 h -2.5 v -6.3 c 0,-1.1 -0.1,-1.9 -0.4,-2.3 -0.3,-0.5 -0.7,-0.7 -1.3,-0.7 -0.7,0 -1.2,0.3 -1.5,0.8 -0.3,0.5 -0.5,1.4 -0.5,2.6 v 5.8 H 383 v -6.3 c 0,-2 -0.6,-3 -1.7,-3 -0.7,0 -1.2,0.3 -1.6,0.8 -0.3,0.5 -0.5,1.4 -0.5,2.6 v 5.8 h -2.5 z"
   id="path6" />
		<path
   class="st0"
   d="m 402.6,327.7 h 2.5 V 339 h -2.5 v -1.2 c -1,1 -2.2,1.5 -3.4,1.5 -1.5,0 -2.8,-0.6 -3.8,-1.7 -1,-1.2 -1.5,-2.6 -1.5,-4.3 0,-1.7 0.5,-3.1 1.5,-4.2 1,-1.1 2.2,-1.7 3.7,-1.7 1.3,0 2.4,0.5 3.4,1.6 z m -6.1,5.6 c 0,1.1 0.3,2 0.8,2.7 0.6,0.7 1.3,1 2.2,1 0.9,0 1.7,-0.3 2.3,-1 0.6,-0.7 0.9,-1.6 0.9,-2.6 0,-1 -0.3,-1.9 -0.9,-2.6 -0.6,-0.7 -1.3,-1 -2.3,-1 -0.9,0 -1.6,0.3 -2.2,1 -0.5,0.6 -0.8,1.5 -0.8,2.5 z"
   id="path8" />
		<path
   class="st0"
   d="m 407.4,323 c 0,-0.5 0.2,-0.9 0.5,-1.2 0.3,-0.3 0.7,-0.5 1.2,-0.5 0.5,0 0.8,0.2 1.2,0.5 0.3,0.3 0.5,0.7 0.5,1.2 0,0.5 -0.2,0.9 -0.5,1.2 -0.3,0.3 -0.7,0.5 -1.2,0.5 -0.5,0 -0.8,-0.2 -1.2,-0.5 -0.3,-0.3 -0.5,-0.8 -0.5,-1.2 z m 2.9,4.7 V 339 h -2.5 v -11.3 z"
   id="path10" />
		<path
   class="st0"
   d="M 415.5,319.4 V 339 H 413 v -19.6 z"
   id="path12" />
		<path
   class="st0"
   d="M 435.5,334.6 H 428 l -1.9,4.4 h -2.8 l 8.6,-19.1 8.3,19.1 h -2.9 z m -1,-2.5 -2.6,-6.1 -2.7,6.1 z"
   id="path14" />
		<path
   class="st0"
   d="m 443.9,327.7 v 6.5 c 0,1.9 0.7,2.8 2.2,2.8 1.4,0 2.2,-0.9 2.2,-2.8 v -6.5 h 2.5 v 6.6 c 0,0.9 -0.1,1.7 -0.3,2.3 -0.2,0.6 -0.6,1.1 -1.1,1.6 -0.9,0.8 -1.9,1.2 -3.3,1.2 -1.3,0 -2.4,-0.4 -3.3,-1.2 -0.5,-0.5 -0.9,-1 -1.1,-1.6 -0.2,-0.5 -0.3,-1.3 -0.3,-2.3 v -6.6 z"
   id="path16" />
		<path
   class="st0"
   d="m 456,330.1 v 8.9 h -2.5 v -8.9 h -1.1 v -2.4 h 1.1 v -4.2 h 2.5 v 4.2 h 2 v 2.4 z"
   id="path18" />
		<path
   class="st0"
   d="m 458.8,333.3 c 0,-1.6 0.6,-3 1.7,-4.2 1.1,-1.1 2.5,-1.7 4.1,-1.7 1.6,0 3,0.6 4.2,1.7 1.1,1.2 1.7,2.6 1.7,4.3 0,1.7 -0.6,3.1 -1.7,4.3 -1.1,1.1 -2.5,1.7 -4.2,1.7 -1.6,0 -3,-0.6 -4.1,-1.7 -1.1,-1.3 -1.7,-2.7 -1.7,-4.4 z m 2.6,0 c 0,1.1 0.3,2 0.9,2.7 0.6,0.7 1.4,1 2.4,1 1,0 1.8,-0.3 2.4,-1 0.6,-0.7 0.9,-1.5 0.9,-2.6 0,-1.1 -0.3,-2 -0.9,-2.6 -0.6,-0.7 -1.4,-1 -2.4,-1 -1,0 -1.8,0.3 -2.4,1 -0.6,0.6 -0.9,1.4 -0.9,2.5 z"
   id="path20" />
		<path
   class="st0"
   d="m 472.7,327.7 h 2.5 v 1 c 0.5,-0.5 0.9,-0.9 1.3,-1.1 0.4,-0.2 0.8,-0.3 1.4,-0.3 1.2,0 2.2,0.6 2.9,1.7 0.8,-1.1 1.9,-1.7 3.2,-1.7 2.5,0 3.7,1.5 3.7,4.6 v 7 h -2.5 v -6.3 c 0,-1.1 -0.1,-1.9 -0.4,-2.3 -0.3,-0.5 -0.7,-0.7 -1.3,-0.7 -0.7,0 -1.2,0.3 -1.5,0.8 -0.3,0.5 -0.5,1.4 -0.5,2.6 v 5.8 H 479 v -6.3 c 0,-2 -0.6,-3 -1.7,-3 -0.7,0 -1.2,0.3 -1.6,0.8 -0.3,0.5 -0.5,1.4 -0.5,2.6 v 5.8 h -2.5 z"
   id="path22" />
		<path
   class="st0"
   d="M 498.5,327.7 H 501 V 339 h -2.5 v -1.2 c -1,1 -2.2,1.5 -3.4,1.5 -1.5,0 -2.8,-0.6 -3.8,-1.7 -1,-1.2 -1.5,-2.6 -1.5,-4.3 0,-1.7 0.5,-3.1 1.5,-4.2 1,-1.1 2.2,-1.7 3.7,-1.7 1.3,0 2.4,0.5 3.4,1.6 z m -6,5.6 c 0,1.1 0.3,2 0.8,2.7 0.6,0.7 1.3,1 2.2,1 0.9,0 1.7,-0.3 2.3,-1 0.6,-0.7 0.9,-1.6 0.9,-2.6 0,-1 -0.3,-1.9 -0.9,-2.6 -0.6,-0.7 -1.3,-1 -2.3,-1 -0.9,0 -1.6,0.3 -2.2,1 -0.5,0.6 -0.8,1.5 -0.8,2.5 z"
   id="path24" />
		<path
   class="st0"
   d="m 506.4,330.1 v 8.9 h -2.5 v -8.9 h -1.1 v -2.4 h 1.1 v -4.2 h 2.5 v 4.2 h 2 v 2.4 z"
   id="path26" />
		<path
   class="st0"
   d="m 509.2,323 c 0,-0.5 0.2,-0.9 0.5,-1.2 0.3,-0.3 0.7,-0.5 1.2,-0.5 0.5,0 0.8,0.2 1.2,0.5 0.3,0.3 0.5,0.7 0.5,1.2 0,0.5 -0.2,0.9 -0.5,1.2 -0.3,0.3 -0.7,0.5 -1.2,0.5 -0.5,0 -0.8,-0.2 -1.2,-0.5 -0.4,-0.3 -0.5,-0.8 -0.5,-1.2 z m 2.9,4.7 V 339 h -2.5 v -11.3 z"
   id="path28" />
		<path
   class="st0"
   d="m 514.2,333.3 c 0,-1.6 0.6,-3 1.7,-4.2 1.1,-1.1 2.5,-1.7 4.1,-1.7 1.6,0 3,0.6 4.2,1.7 1.1,1.2 1.7,2.6 1.7,4.3 0,1.7 -0.6,3.1 -1.7,4.3 -1.1,1.1 -2.5,1.7 -4.2,1.7 -1.6,0 -3,-0.6 -4.1,-1.7 -1.1,-1.3 -1.7,-2.7 -1.7,-4.4 z m 2.6,0 c 0,1.1 0.3,2 0.9,2.7 0.6,0.7 1.4,1 2.4,1 1,0 1.8,-0.3 2.4,-1 0.6,-0.7 0.9,-1.5 0.9,-2.6 0,-1.1 -0.3,-2 -0.9,-2.6 -0.6,-0.7 -1.4,-1 -2.4,-1 -1,0 -1.8,0.3 -2.4,1 -0.6,0.6 -0.9,1.4 -0.9,2.5 z"
   id="path30" />
		<path
   class="st0"
   d="m 528.1,327.7 h 2.5 v 1 c 0.9,-0.9 1.9,-1.4 3,-1.4 1.3,0 2.3,0.4 3,1.2 0.6,0.7 0.9,1.9 0.9,3.5 v 6.9 H 535 v -6.3 c 0,-1.1 -0.2,-1.9 -0.5,-2.3 -0.3,-0.4 -0.8,-0.7 -1.6,-0.7 -0.8,0 -1.4,0.3 -1.8,0.9 -0.3,0.6 -0.5,1.6 -0.5,3 v 5.5 h -2.5 z"
   id="path32" />
	</g>
	<g
   id="g54">
		<g
   id="g50">
			<path
   class="st0"
   d="m 597.3,260.3 h -12.1 v 6 c -4.2,-4.7 -9.9,-7.3 -16.4,-7.3 -14.2,0 -24.5,11.8 -24.5,28.1 0,15.7 10.3,27.2 24.4,27.2 6.6,0 11.6,-2.2 16.5,-7.5 v 7.3 c 0,10.9 -4.3,16.3 -13.3,16.3 -4.8,0 -9.6,-2.4 -11.7,-6.1 -1.2,-2.1 -1.6,-4.1 -2,-8.6 h -11.8 c 0.1,15.7 9.8,25.5 25.4,25.5 8.9,0 16.7,-3.6 21,-10.1 3.5,-5 4.5,-9.6 4.5,-19.8 z m -26.3,9.4 c 8.7,0 14.7,6.8 14.7,16.7 0,10.2 -5.8,17 -14.5,17 -8.8,0 -14.5,-6.6 -14.5,-16.8 -0.1,-10.2 5.6,-16.9 14.3,-16.9 z"
   id="path36" />
			<path
   class="st1"
   d="m 364.5,260.3 v 52.3 h 12 v -27 c 0,-11.1 3,-15.9 9.7,-15.9 5.4,0 8,4.5 8,13.9 v 29 h 12 v -27 c 0,-11.2 3,-15.9 9.7,-15.9 5.8,0 8,3.9 8,13.8 v 29.1 h 12 v -32.3 c 0,-14 -6,-21.4 -17.6,-21.4 -6.4,0 -11.7,2.7 -15.4,7.7 -3.2,-5 -8.1,-7.7 -13.9,-7.7 -5.2,0 -7.9,1.4 -12.4,6.2 v -4.8 z"
   id="path38" />
			<path
   class="st1"
   d="m 481.1,260.3 v 6.1 c -5.2,-5.3 -9.7,-7.5 -16.3,-7.5 -14,0 -24.7,11.7 -24.7,27.2 0,16.4 10.4,28.1 25,28.1 6.3,0 10.4,-1.9 16,-7.1 v 5.5 h 12.1 v -52.3 z m -14.2,9.4 c 8.8,0 14.9,7 14.9,16.8 0,10.1 -6.1,16.9 -14.9,16.9 -8.5,0 -14.5,-7.1 -14.5,-16.9 0,-9.7 6.2,-16.8 14.5,-16.8 z"
   id="path40" />
			<path
   class="st1"
   d="m 514.8,260.3 h -12.1 v 52.3 h 12.1 z m -5.9,-29.1 c -4.5,0 -8,3.5 -8,7.8 0,4.3 3.6,8 7.8,8 4.4,0 8,-3.6 8,-8 0,-4.4 -3.5,-7.8 -7.8,-7.8 z"
   id="path42" />
			<rect
   x="525.90002"
   y="217.89999"
   class="st1"
   width="12.1"
   height="94.699997"
   id="rect44" />
			<path
   class="st0"
   d="m 616.6,260.3 h -12.1 v 30.3 c 0,8.2 1.5,12.7 5.5,17 4.2,4.3 9.9,6.6 16.8,6.6 7,0 12.7,-2.2 16.9,-6.6 4,-4.3 5.5,-8.8 5.5,-17 v -30.3 h -12.1 v 30.1 c 0,8.9 -3.2,13 -10.3,13 -7,0 -10.2,-4.1 -10.2,-13 z"
   id="path46" />
			<path
   class="st0"
   d="m 657.2,260.3 v 52.3 h 12.1 v -25.2 c 0,-12.9 3,-17.6 11.1,-17.6 7.5,0 9.8,3.4 9.8,13.7 v 29.2 h 12.1 v -32.1 c 0,-14.7 -6.1,-21.6 -18.9,-21.6 -5.7,0 -9.3,1.6 -14,6.2 v -4.8 h -12.2 z"
   id="path48" />
		</g>
		<path
   class="st0"
   d="m 302.9,264.4 c -10.2,0 -18.5,8.3 -18.5,18.5 0,10.2 8.3,18.5 18.5,18.5 10.2,0 18.5,-8.3 18.5,-18.5 0,-10.2 -8.3,-18.5 -18.5,-18.5 z m -28.8,18.5 c 0,-15.9 12.9,-28.8 28.8,-28.8 15.9,0 28.8,12.9 28.8,28.8 0,1.1 -0.1,2.1 -0.2,3.1 -0.2,2.8 1.8,4.9 4.6,4.9 4.7,0 5.2,-6.1 5.2,-8.1 0,-21.3 -17.2,-38.5 -38.5,-38.5 -21.3,0 -38.5,17.2 -38.5,38.5 0,21.3 17.2,38.5 38.5,38.5 11.3,0 21.4,-4.9 28.5,-12.6 l 7.9,6.6 c -8.9,10 -21.9,16.3 -36.4,16.3 -27,0 -48.8,-21.9 -48.8,-48.8 0,-27 21.9,-48.8 48.8,-48.8 27,0 48.8,21.9 48.8,48.8 0,10.8 -5.2,19.6 -15.5,19.6 -4.6,0 -7.3,-2.1 -8.9,-4.4 -5.1,8.2 -14.1,13.6 -24.5,13.6 -15.7,0.1 -28.6,-12.8 -28.6,-28.7 z m 28.8,-8.5 c 4.7,0 8.5,3.8 8.5,8.4 0,4.7 -3.8,8.5 -8.5,8.5 -4.7,0 -8.5,-3.8 -8.5,-8.5 0.1,-4.6 3.8,-8.4 8.5,-8.4 z"
   id="path52" />
	</g>
</g>
</svg>
