<svg xmlns="http://www.w3.org/2000/svg" width="250" height="250" fill="none"><g clip-path="url(#a)"><path fill="#AF252A" d="M124.998 108.04c9.37 0 16.964 7.593 16.964 16.959 0 9.369-7.594 16.963-16.964 16.963-9.366 0-16.96-7.596-16.96-16.963 0-9.366 7.594-16.959 16.96-16.959Zm-57.793 16.959c0-31.919 25.875-57.793 57.793-57.793 31.923 0 57.796 25.874 57.796 57.793 0 2.113-.113 4.197-.334 6.248-.439 5.634 3.696 9.934 9.294 9.934 9.501 0 10.513-12.25 10.513-16.182 0-42.676-34.593-77.268-77.269-77.268-42.675 0-77.267 34.593-77.267 77.268 0 42.673 34.592 77.267 77.267 77.267 22.664 0 43.049-9.752 57.183-25.292l15.885 13.338c-17.943 20.057-44.031 32.691-73.068 32.691-54.123 0-97.998-43.879-97.998-98.004C27 70.875 70.875 27 124.998 27 179.125 27 223 70.875 223 125c0 21.755-10.359 39.422-31.166 39.422-9.156 0-14.723-4.196-17.762-8.878-10.206 16.36-28.365 27.253-49.074 27.253-31.918 0-57.793-25.879-57.793-57.797v-.001Zm57.793-37.064c-20.468 0-37.063 16.594-37.063 37.064 0 20.471 16.595 37.066 37.063 37.066 20.47 0 37.067-16.595 37.067-37.066 0-20.47-16.597-37.064-37.067-37.064Z"/></g><defs><clipPath id="a"><path fill="#fff" d="M27 27h196v196H27z"/></clipPath></defs></svg>