<svg xmlns="http://www.w3.org/2000/svg" xml:space="preserve" id="Layer_1" width="97.6" height="97.6" x="0" y="0" version="1.1"><style id="style2" type="text/css">.st1{fill:#646569}</style><path id="path52" d="M48.9 30.4c-10.2 0-18.5 8.3-18.5 18.5s8.3 18.5 18.5 18.5 18.5-8.3 18.5-18.5-8.3-18.5-18.5-18.5zM20.1 48.9C20.1 33 33 20.1 48.9 20.1S77.7 33 77.7 48.9c0 1.1-.1 2.1-.2 3.1-.2 2.8 1.8 4.9 4.6 4.9 4.7 0 5.2-6.1 5.2-8.1 0-21.3-17.2-38.5-38.5-38.5S10.3 27.5 10.3 48.8s17.2 38.5 38.5 38.5c11.3 0 21.4-4.9 28.5-12.6l7.9 6.6c-8.9 10-21.9 16.3-36.4 16.3C21.8 97.6 0 75.7 0 48.8 0 21.8 21.9 0 48.8 0c27 0 48.8 21.9 48.8 48.8 0 10.8-5.2 19.6-15.5 19.6-4.6 0-7.3-2.1-8.9-4.4-5.1 8.2-14.1 13.6-24.5 13.6-15.7.1-28.6-12.8-28.6-28.7Zm28.8-8.5c4.7 0 8.5 3.8 8.5 8.4 0 4.7-3.8 8.5-8.5 8.5s-8.5-3.8-8.5-8.5c.1-4.6 3.8-8.4 8.5-8.4z" style="fill:#c02126"/></svg>