<svg width="184px" height="45px" viewBox="0 0 184 45" version="1.1" xmlns="http://www.w3.org/2000/svg" xmlns:xlink="http://www.w3.org/1999/xlink">
  <g id="Logos___ECvPRJu7" stroke="none" stroke-width="1" fill="none" fill-rule="evenodd">
    <g id="Mailgun___ECvPRJu7" transform="translate(-331.000000, -258.000000)" fill-rule="nonzero">
      <g id="logo-mailgun-pathwire___ECvPRJu7" transform="translate(331.000000, 258.000000)">
          <path d="M46.6368,9.648 L50.4768,9.648 L50.4768,11.856 C50.8512,11.3472 51.2832,10.8864 51.7632,10.4832 C52.1952,10.1376 52.6752,9.8592 53.1936,9.6768 C53.76,9.4848 54.3552,9.3888 54.9504,9.3984 C56.3616,9.3984 57.6096,9.7152 58.7136,10.3584 C59.8464,11.0304 60.7968,11.952 61.4976,13.0656 C62.2368,11.8848 63.168,10.9824 64.2816,10.3488 C65.3952,9.7152 66.6432,9.3984 68.0256,9.3984 C69.6288,9.3984 71.0592,9.8016 72.3264,10.6176 C73.5936,11.4336 74.6112,12.576 75.2832,13.92 C75.9936,15.3312 76.3584,16.896 76.3392,18.48 L76.3392,28.848 L72.4992,28.848 L72.4992,18.48 C72.5088,17.568 72.3264,16.6656 71.952,15.8304 C71.616,15.072 71.0688,14.4096 70.3872,13.9392 C69.696,13.4688 68.8704,13.2192 68.0256,13.2384 C67.1808,13.2288 66.3456,13.4688 65.6448,13.9392 C64.9344,14.4096 64.368,15.072 64.0032,15.84 C63.6096,16.6656 63.408,17.568 63.4176,18.48 L63.4176,28.848 L59.5776,28.848 L59.5776,18.48 C59.5872,17.568 59.3856,16.6656 58.9824,15.84 C58.608,15.072 58.0416,14.4096 57.3312,13.9392 C56.6304,13.4688 55.7952,13.2288 54.9504,13.2384 C54.1248,13.2288 53.328,13.488 52.6656,13.9776 C51.9744,14.4864 51.4176,15.168 51.0624,15.9552 C50.6688,16.8 50.4672,17.7216 50.4768,18.6528 L50.4768,28.848 L46.6368,28.848 L46.6368,9.648 Z" id="Path___ECvPRJu7" fill="#FFFFFF"></path>
          <path d="M98.976,9.648 L98.976,28.848 L95.136,28.848 L95.136,25.9296 C94.5024,26.9568 93.6288,27.8208 92.5824,28.4352 C91.5456,29.04 90.3648,29.347344 89.0304,29.347344 C87.2544,29.3568 85.5072,28.8864 83.9712,27.984 C82.4448,27.0912 81.1872,25.8336 80.2944,24.3072 C78.48,21.168 78.48,17.2992 80.2944,14.16 C81.1776,12.6336 82.4448,11.3664 83.9712,10.4736 C85.4976,9.5712 87.2544,9.1008 89.0304,9.11025595 C90.3648,9.11025595 91.5456,9.4176 92.5824,10.0224 C93.6288,10.6368 94.5024,11.5008 95.136,12.528 L95.136,9.648 L98.976,9.648 L98.976,9.648 Z M89.0688,25.6416 C90.192,25.6416 91.1904,25.3536 92.064,24.7776 C92.9376,24.2016 93.6288,23.4048 94.0896,22.464 C94.5792,21.4656 94.8192,20.3616 94.8096,19.248 C94.8288,18.1248 94.5792,17.0112 94.0896,16.0032 C93.6384,15.0624 92.9376,14.2656 92.064,13.6896 C91.1904,13.1232 90.192,12.8352 89.0688,12.8352 C87.9744,12.8256 86.8896,13.1232 85.9584,13.6992 C84.0288,14.88 82.8576,16.9824 82.8672,19.248 C82.8576,20.3712 83.1456,21.4848 83.712,22.4544 C84.2592,23.4144 85.0464,24.2112 85.9872,24.7776 C86.9184,25.344 87.984,25.6416 89.0688,25.6416 L89.0688,25.6416 Z" id="Shape___ECvPRJu7" fill="#FFFFFF"></path>
          <polygon id="Path___ECvPRJu7" fill="#FFFFFF" points="107.616 9.648 107.616 28.848 103.776 28.848 103.776 9.648"></polygon>
          <polygon id="Path___ECvPRJu7" fill="#FFFFFF" points="112.416 0.048 116.2368 0.048 116.2368 28.8288 112.416 28.8288"></polygon>
          <path d="M135.0528,9.648 L135.0528,12.4704 C134.4288,11.4624 133.5648,10.6176 132.5472,10.0224 C131.5296,9.4272 130.3776,9.12945595 129.1008,9.12945595 C127.3536,9.12 125.6448,9.5904 124.1472,10.4928 C122.6496,11.3856 121.4112,12.6624 120.5472,14.1792 C118.7712,17.3184 118.7712,21.168 120.5472,24.3072 C121.4112,25.824 122.6496,27.0912 124.1472,27.984 C125.6448,28.8864 127.3536,29.3568 129.1008,29.3472 C130.3776,29.3472 131.5296,29.0496 132.5472,28.4544 C133.5648,27.8592 134.4288,27.0144 135.0528,26.0064 L135.0528,29.3664 C135.0624,30.336 134.7456,31.2768 134.1696,32.0448 C133.5648,32.8512 132.768,33.504 131.8464,33.9168 C130.8864,34.368 129.84,34.5984 128.7744,34.5888 C127.9392,34.5888 127.1232,34.3968 126.3744,34.0416 C125.5968,33.6768 124.9056,33.168 124.3296,32.5248 C124.1664,32.3424 124.0128,32.16 123.8784,31.9584 L119.5584,31.9584 C120.0384,33.1872 120.7488,34.3104 121.6608,35.2608 C122.592,36.2496 123.696,37.0464 124.9344,37.6032 C126.1344,38.16 127.4496,38.4481675 128.7744,38.4481675 C130.5024,38.4576 132.2112,38.0544 133.7472,37.2672 C135.2544,36.5184 136.5408,35.3952 137.4816,34.0032 C138.4128,32.64 138.912,31.0176 138.8928,29.3664 L138.8928,9.648 L135.0528,9.648 Z M134.0928,22.4448 C133.6512,23.3856 132.9504,24.192 132.0864,24.7776 C131.2128,25.3536 130.1856,25.6608 129.1392,25.6416 C128.0832,25.6416 127.0368,25.3536 126.144,24.7872 C125.2224,24.2208 124.464,23.4144 123.9552,22.464 C123.4176,21.4752 123.1392,20.3712 123.1488,19.248 C123.1392,18.1248 123.408,17.0208 123.9456,16.032 C124.4544,15.072 125.2032,14.2752 126.1248,13.6992 C127.0272,13.1328 128.0736,12.8256 129.1392,12.8352 C130.176,12.8256 131.2032,13.1232 132.0672,13.6992 C132.9408,14.2848 133.632,15.0912 134.0832,16.032 C135.0432,18.0576 135.0432,20.4096 134.0928,22.4448 L134.0928,22.4448 Z" id="Shape___ECvPRJu7" fill="#FFFFFF"></path>
          <path d="M142.4448,9.648 L146.2848,9.648 L146.2848,19.632 C146.2752,20.6784 146.5056,21.7152 146.976,22.656 C147.408,23.5392 148.0704,24.288 148.8864,24.8352 C149.6928,25.3728 150.6336,25.6512 151.6032,25.6416 C152.544,25.6512 153.4656,25.3728 154.2432,24.8352 C155.0304,24.288 155.6544,23.5296 156.048,22.656 C156.48,21.7056 156.7008,20.6784 156.6912,19.632 L156.6912,9.648 L160.5312,9.648 L160.5312,28.848 L156.6912,28.848 L156.6912,26.16 C156.0384,27.12 155.184,27.9264 154.1856,28.5216 C153.2256,29.088 152.1216,29.376 151.008,29.3664 C149.328,29.3664 147.8496,28.9344 146.5536,28.0704 C145.248,27.1968 144.2112,25.9872 143.5392,24.5664 C142.8192,23.0976 142.4544,21.4752 142.4448,19.7088 L142.4448,9.648 Z" id="Path___ECvPRJu7" fill="#FFFFFF"></path>
          <path d="M183.4176,28.848 L179.5776,28.848 L179.5776,18.8256 C179.5872,17.7792 179.3472,16.752 178.8864,15.8112 C178.4544,14.9184 177.792,14.1696 176.9664,13.6224 C176.16,13.0944 175.2192,12.8064 174.2592,12.816 C173.3184,12.8064 172.3968,13.0848 171.6192,13.6224 C170.832,14.1696 170.208,14.928 169.8144,15.8016 C169.3824,16.752 169.1616,17.7792 169.1712,18.8256 L169.1712,28.848 L165.3312,28.848 L165.3312,9.648 L169.1712,9.648 L169.1712,12.3168 C169.8144,11.3568 170.6592,10.5408 171.6576,9.9552 C172.6272,9.3888 173.7312,9.1008 174.8544,9.1104 C176.5344,9.1104 178.0128,9.5424 179.3088,10.4064 C180.6144,11.28 181.6512,12.4896 182.3136,13.9104 C183.0336,15.4176 183.408,17.0784 183.4176,18.7488 L183.4176,28.848 Z" id="Path___ECvPRJu7" fill="#FFFFFF"></path>
          <circle id="Oval___ECvPRJu7" fill="#FFFFFF" cx="105.696" cy="4.9248" r="2.0352"></circle>
          <path d="M18.4608,21.12 C17.0016,21.12 15.8208,19.9392 15.8208,18.48 C15.8208,17.0208 17.0016,15.84 18.4608,15.84 C19.92,15.84 21.1008,17.0208 21.1008,18.48 C21.1008,19.9392 19.92,21.12 18.4608,21.12 Z" id="Path___ECvPRJu7" fill="#C02126"></path>
          <path d="M18.4608,36.912 C8.304,36.912 0.0288,28.6464 0.0288,18.48 C0.0288,8.3136 8.2944,0.048 18.4608,0.048 C28.6272,0.048 36.8928,8.3136 36.8928,18.48 C36.8928,21.7632 34.2336,24.4224 30.9504,24.432 C29.8464,24.432 28.7616,24.1248 27.8208,23.5488 L27.7344,23.5008 L27.6864,23.5872 C24.864,28.6848 18.4512,30.528 13.3632,27.7056 C8.2656,24.8832 6.4224,18.4704 9.2448,13.3824 C12.0672,8.2944 18.48,6.4416 23.568,9.264 C26.928,11.1168 29.0016,14.6592 29.0016,18.4896 C29.0016,19.5552 29.8656,20.4288 30.9408,20.4288 C32.016,20.4288 32.88,19.5648 32.88,18.4896 C32.88,10.5408 26.4096,4.0704 18.4608,4.0704 C10.512,4.0704 4.0416,10.5312 4.0416,18.48 C4.0416,26.4288 10.512,32.8992 18.4608,32.8992 C22.6944,32.8992 26.7072,31.0464 29.4432,27.8208 L32.5152,30.4032 C29.0208,34.5312 23.8752,36.912 18.4608,36.912 Z M18.4608,11.952 C14.8512,11.952 11.9232,14.88 11.9232,18.4896 C11.9232,22.0992 14.8512,25.0272 18.4608,25.0272 C22.0704,25.0272 24.9984,22.0992 24.9984,18.4896 C24.9888,14.8704 22.0704,11.952 18.4608,11.952 L18.4608,11.952 Z" id="Shape___ECvPRJu7" fill="#C02126"></path>
          <path d="M49.1232,36.8064 C49.5744,36.8064 50.0064,36.9216 50.3904,37.1424 C50.7744,37.3632 51.0912,37.68 51.312,38.064 C51.7632,38.8512 51.7632,39.8112 51.312,40.5984 C51.0912,40.9824 50.7744,41.2992 50.3904,41.52 C50.0064,41.7504 49.5648,41.8656 49.1232,41.856 C48.816,41.8656 48.5088,41.7792 48.24,41.6256 C47.9808,41.472 47.76,41.2608 47.6064,41.0016 L47.6064,41.7312 L46.6464,41.7312 L46.6464,34.5312 L47.6064,34.5312 L47.6064,37.6512 C47.7696,37.392 47.9808,37.1808 48.24,37.0272 C48.5088,36.8736 48.8064,36.7968 49.1232,36.8064 Z M49.1136,40.9344 C49.392,40.9344 49.6608,40.8576 49.8912,40.7232 C50.1312,40.5792 50.3232,40.3776 50.4576,40.1376 C50.736,39.6384 50.736,39.0336 50.4576,38.5344 C50.3232,38.2944 50.1216,38.0928 49.8816,37.9488 C49.6512,37.8048 49.3824,37.728 49.104,37.7376 C48.8352,37.7376 48.576,37.8048 48.3552,37.9488 C48.1344,38.0928 47.9616,38.2944 47.8464,38.5248 C47.6064,39.0336 47.6064,39.6288 47.8464,40.1376 C47.9616,40.368 48.1344,40.5696 48.3552,40.7136 C48.5856,40.8576 48.8448,40.9344 49.1136,40.9344 Z" id="Shape___ECvPRJu7" fill="#FFFFFF"></path>
          <polygon id="Path___ECvPRJu7" fill="#FFFFFF" points="56.4672 36.9408 53.8368 44.1408 52.8192 44.1408 53.6832 41.7408 51.9552 36.9408 53.0112 36.9408 54.1632 40.4256 55.44 36.9408"></polygon>
          <path d="M59.4048,41.7312 L59.4048,34.6272 L61.8048,34.6272 C62.5632,34.6176 63.1296,34.7232 63.504,34.896 C64.272,35.2512 64.752,36.0672 64.752,37.0272 C64.752,38.3424 64.0224,39.504 61.9872,39.504 L61.1424,39.504 L61.1424,41.7312 L59.4048,41.7312 Z M61.92,37.9104 C62.6496,37.9104 63.0144,37.6608 63.0144,37.056 C63.0144,36.48 62.6592,36.2208 61.8528,36.2208 L61.1424,36.2208 L61.1424,37.9104 L61.92,37.9104 L61.92,37.9104 Z" id="Shape___ECvPRJu7" fill="#FFFFFF"></path>
          <path d="M70.2336,41.7312 L69.888,40.704 L67.4208,40.704 L67.0464,41.7312 L65.0976,41.7312 L67.9488,34.6272 L69.3792,34.6272 L72.2016,41.7312 L70.2336,41.7312 Z M68.6784,36.8448 L68.6496,36.8352 L67.92,39.264 L69.408,39.264 L68.6784,36.8448 Z" id="Shape___ECvPRJu7" fill="#FFFFFF"></path>
          <polygon id="Path___ECvPRJu7" fill="#FFFFFF" points="74.2656 41.7312 74.2656 36.2208 72.384 36.2208 72.384 34.6272 77.952 34.6272 77.952 36.2208 76.08 36.2208 76.08 41.7312"></polygon>
          <polygon id="Path___ECvPRJu7" fill="#FFFFFF" points="83.7792 41.7312 83.7792 38.8896 81.456 38.8896 81.456 41.7312 79.6416 41.7312 79.6416 34.6272 81.456 34.6272 81.456 37.296 83.7792 37.296 83.7792 34.6272 85.5936 34.6272 85.5936 41.7312"></polygon>
          <polygon id="Path___ECvPRJu7" fill="#FFFFFF" points="98.2176 41.7312 98.2176 34.6272 100.032 34.6272 100.032 41.7312"></polygon>
          <polygon id="Path___ECvPRJu7" fill="#FFFFFF" points="109.5072 41.7312 109.5072 34.6272 114.1728 34.6272 114.1728 36.2208 111.2448 36.2208 111.2448 37.3248 113.3856 37.3248 113.3856 38.9184 111.2448 38.9184 111.2448 40.1376 114.1728 40.1376 114.1728 41.7312"></polygon>
          <polygon id="Path___ECvPRJu7" fill="#FFFFFF" points="94.8 34.6272 93.7728 38.6016 92.7072 34.6272 91.0656 34.6272 90.0096 38.6016 88.9824 34.6272 87.3408 34.6272 89.1744 41.7312 90.816 41.7312 91.8912 37.6992 92.9664 41.7312 92.9664 41.7312 94.608 41.7312 94.608 41.7312 96.4416 34.6272"></polygon>
          <path d="M105.6768,41.7504 L104.5152,39.456 L104.016,39.456 L104.016,41.7504 L102.2784,41.7504 L102.2784,34.6464 L104.6016,34.6464 C105.3408,34.6464 105.9072,34.7424 106.2816,34.9056 C107.0496,35.2512 107.5872,36.0864 107.5872,37.0944 C107.5872,38.2176 106.9152,39.1392 105.8208,39.3312 L106.0224,38.9856 L107.7504,41.7504 L105.6768,41.7504 Z M104.688,38.2176 C105.408,38.2176 105.8496,37.8816 105.8496,37.2 C105.8496,36.5856 105.3888,36.24 104.7072,36.24 L104.016,36.24 L104.016,38.2176 L104.688,38.2176 Z" id="Shape___ECvPRJu7" fill="#FFFFFF"></path>
      </g>
    </g>
  </g>
</svg>