<svg width="250" height="250" viewBox="0 0 250 250" fill="none" xmlns="http://www.w3.org/2000/svg">
<path d="M181.539 155.091C181.539 154.858 181.539 154.626 181.539 154.393C181.539 154.16 181.539 154.16 181.539 153.927C181.539 153.695 181.309 153.462 181.309 152.996C181.078 152.531 180.847 151.833 180.386 151.367C179.925 150.902 179.464 150.669 179.003 150.204C178.541 149.971 178.08 149.738 177.619 149.738C177.388 149.738 177.388 149.738 177.158 149.738C177.619 147.411 176.927 145.549 176.466 144.618C177.158 143.92 177.619 143.455 178.08 142.989C178.311 142.524 178.541 142.058 178.772 141.593C179.003 141.127 179.003 140.895 179.003 140.429V140.196C179.003 139.964 179.003 139.964 179.003 139.731C179.003 139.033 178.772 138.102 178.311 136.938C178.08 136.473 177.619 135.775 177.388 135.309C176.927 134.844 176.466 134.378 175.774 133.913C175.774 133.913 175.774 133.913 175.543 133.913C174.16 132.051 172.776 130.422 171.392 129.258C170.701 128.56 170.009 128.095 169.547 127.629C169.086 127.164 168.625 126.931 168.164 126.698C167.472 126.233 167.241 126 167.011 125.767C166.549 125.535 166.088 125.302 165.858 125.069V124.836C165.858 124.836 165.858 124.836 165.858 124.604C165.858 124.371 165.858 124.138 165.858 123.906C165.858 123.44 165.858 122.742 165.858 121.578C165.858 119.949 166.088 117.855 166.319 114.829C166.319 113.898 166.319 112.967 166.319 112.036C166.319 110.64 166.088 109.476 165.858 108.313C165.858 108.08 165.627 107.847 165.627 107.615C165.627 107.382 165.627 107.382 165.396 107.149C165.396 106.916 165.396 106.916 165.166 106.684C165.166 106.684 165.166 106.451 164.935 106.451C164.935 106.218 164.705 105.986 164.474 105.753V105.52C164.243 105.055 164.013 104.589 163.552 104.356C163.321 103.658 163.09 102.727 162.629 101.564C162.168 100.633 161.707 99.4691 161.015 98.3055C160.784 97.8401 160.554 97.6073 160.092 97.1419C160.323 96.9091 163.782 93.1855 166.549 88.531C171.623 79.4546 170.009 74.1019 167.703 71.0764C165.396 68.5164 162.398 67.1201 158.478 66.6546C150.637 65.7237 141.643 69.4473 139.337 70.611L135.186 65.9564C134.725 65.491 134.494 65.2582 134.033 64.7928C133.572 64.5601 133.111 64.0946 132.649 63.8619C131.727 63.3964 130.574 63.1637 129.421 62.931C127.115 62.6982 124.347 62.931 121.58 63.6291C117.198 64.7928 112.356 66.8873 107.282 69.9128C102.209 72.9382 96.9046 76.8946 91.8311 81.7819C85.6046 87.6001 80.3005 93.651 76.6107 99.4691C74.7658 102.262 73.1515 105.287 71.9985 107.847C70.8454 110.64 70.1536 112.967 69.923 115.527C69.6924 117.156 69.6924 118.786 70.1536 120.415C70.3842 121.113 70.6148 121.578 70.8454 122.276C70.8454 122.509 71.3066 123.207 71.7679 123.906L76.6107 129.026C76.6107 129.026 76.6107 129.258 76.3801 129.258C76.3801 129.491 76.1495 129.491 76.1495 129.724C76.1495 129.724 76.1495 129.956 75.9189 129.956C75.9189 130.189 75.6883 130.189 75.6883 130.422C75.6883 130.422 75.6883 130.655 75.4577 130.655C75.4577 130.887 75.227 130.887 75.227 131.12C75.227 131.12 75.227 131.353 74.9964 131.353C74.9964 131.586 74.9964 131.586 74.7658 131.818V132.051C74.7658 132.284 74.7658 132.284 74.5352 132.516C74.5352 132.516 74.5352 132.516 74.5352 132.749C74.5352 132.749 74.5352 132.749 74.5352 132.982C74.5352 133.215 74.5352 133.215 74.3046 133.447V133.68V133.913V134.146V134.378C74.3046 134.611 74.3046 134.844 74.3046 135.076V135.309C74.3046 135.542 74.3046 135.542 74.3046 135.775C74.3046 136.007 74.3046 136.24 74.3046 136.473V136.706V136.938C74.3046 137.171 74.3046 137.171 74.3046 137.404V137.636C74.3046 137.636 74.3046 137.636 74.3046 137.869V138.102V138.335V138.567V138.8V139.033C74.3046 139.266 74.3046 139.266 74.3046 139.498C74.3046 139.498 74.3046 139.498 74.3046 139.731C74.3046 139.964 74.3046 139.964 74.3046 140.196C74.3046 140.196 74.3046 140.429 74.3046 140.662C74.3046 140.662 74.3046 140.662 74.3046 140.895V141.127C74.3046 141.127 74.3046 141.36 74.3046 141.593V141.826C74.3046 141.826 74.3046 141.826 74.3046 142.058V142.291C74.3046 142.291 74.3046 142.524 74.5352 142.756C74.5352 142.989 74.5352 142.989 74.5352 142.989C74.5352 142.989 74.5352 143.222 74.7658 143.455V143.687C74.7658 143.687 74.7658 143.687 74.7658 143.92V144.153V144.386C74.7658 144.386 74.7658 144.386 74.7658 144.618C74.7658 144.618 74.7658 144.851 74.9964 144.851C74.9964 144.851 74.9964 144.851 74.9964 145.084V145.316C74.9964 145.316 74.9964 145.549 75.227 145.549C75.227 145.549 75.227 145.549 75.227 145.782C75.227 145.782 75.227 146.015 75.4577 146.015C75.4577 146.015 75.4577 146.247 75.6883 146.247C75.6883 146.247 75.6883 146.247 75.6883 146.48C75.6883 146.48 75.6883 146.713 75.9189 146.713C75.9189 146.713 75.9189 146.946 76.1495 146.946C76.1495 146.946 76.1495 146.946 76.3801 147.178C76.3801 147.178 76.3801 147.411 76.6107 147.411C76.6107 147.411 76.6107 147.644 76.8413 147.644C76.8413 147.644 76.8413 147.876 77.0719 147.876L77.3026 148.109C77.3026 148.109 77.3026 148.109 77.5332 148.342L77.7638 148.575C77.7638 148.575 77.7638 148.575 77.9944 148.807L78.225 149.04C78.225 149.04 78.225 149.04 78.4556 149.273C78.4556 149.273 78.4556 149.273 78.6862 149.506C78.6862 149.506 78.9168 149.738 79.1475 149.738C79.1475 149.738 79.1475 149.738 79.3781 149.971C79.6087 150.204 79.6087 150.204 79.8393 150.436C80.0699 150.436 80.0699 150.669 80.3005 150.669L80.5311 150.902L80.7617 151.135H80.9924C81.223 151.135 81.4536 151.367 81.4536 151.367C81.6842 151.367 81.9148 151.6 82.1454 151.6C82.1454 151.6 82.376 151.6 82.376 151.833C82.376 151.833 82.376 151.833 82.6066 151.833H82.8372C82.8372 151.833 83.0679 151.833 83.0679 152.066C83.0679 152.066 83.2985 152.066 83.2985 152.298C83.2985 152.298 83.2985 152.298 83.5291 152.298C83.7597 152.298 83.7597 152.298 83.9903 152.531C84.2209 152.531 84.4515 152.764 84.6821 152.764C84.9128 152.764 85.1434 152.764 85.374 152.996C85.6046 152.996 85.8352 152.996 86.0658 153.229H86.2964C86.527 153.229 86.527 153.229 86.7577 153.229C86.7577 153.229 86.7577 153.229 86.7577 153.462C86.9883 154.393 87.4495 155.324 87.9107 156.255C93.9066 172.778 110.049 185.578 128.729 187.906C147.409 190.233 167.241 177.666 175.313 160.909C175.774 160.211 176.005 159.513 176.235 159.047C176.927 158.116 177.619 157.418 178.08 156.487C181.309 157.186 181.539 156.022 181.539 155.091Z" fill="#59473C"/>
<path d="M165.627 72.7055C164.705 71.7745 163.782 70.8436 162.629 70.3782C162.399 70.3782 162.168 70.1455 161.937 70.1455L161.707 69.9127C160.784 69.4473 159.631 69.2146 158.478 69.2146C153.174 68.5164 146.948 70.6109 143.258 72.0073C143.027 72.0073 142.797 72.24 142.566 72.24C142.335 72.4727 141.874 72.4727 141.643 72.7055C141.182 72.9382 140.721 73.1709 140.029 73.4036H139.799L138.415 71.7745L138.184 71.0764L137.954 70.8436L134.494 66.6545L134.264 66.1891L133.572 65.7236L132.65 65.9564L131.497 66.1891C130.805 65.9564 130.113 65.7236 129.19 65.4909C127.345 65.2582 125.039 65.4909 122.503 66.1891C119.966 66.8873 116.968 68.0509 113.739 69.68C107.513 72.7055 100.594 77.5927 93.9067 83.6436C91.6006 85.7382 89.5251 88.0655 87.4496 90.16C85.6047 92.2546 83.7598 94.3491 82.1455 96.4436C78.9169 100.633 76.3802 104.822 74.7659 108.545C73.6128 111.105 73.1516 113.2 72.921 115.295C72.6904 116.691 72.6904 117.855 72.921 119.018C72.921 119.251 73.1516 119.716 73.1516 119.949C73.3822 120.647 73.6128 121.113 74.0741 121.578L78.2251 126L78.6863 126.465C78.9169 126.233 78.9169 126.233 79.1475 126C79.1475 126 79.1475 126 79.3781 125.767C79.6088 125.535 79.6088 125.535 79.8394 125.302L80.07 125.069L80.3006 124.836L80.5312 124.604C80.7618 124.604 80.7618 124.371 80.9924 124.371L81.223 124.138C81.4537 124.138 81.4537 123.905 81.6843 123.905L81.9149 123.673C82.1455 123.673 82.1455 123.44 82.3761 123.44C82.3761 123.44 82.6067 123.44 82.6067 123.207C82.8373 123.207 82.8373 122.975 83.0679 122.975C83.0679 122.975 83.2986 122.975 83.2986 122.742C83.5292 122.742 83.5292 122.509 83.7598 122.509C83.7598 122.509 83.9904 122.509 83.9904 122.276C84.221 122.276 84.221 122.044 84.4516 122.044H84.6822C84.6822 122.044 84.9128 122.044 84.9128 121.811C84.9128 121.811 85.1435 121.811 85.1435 121.578C85.3741 121.578 85.6047 121.345 85.8353 121.345H86.0659H86.2965C86.2965 121.345 86.2965 121.345 86.5271 121.345H86.7577C86.9884 121.345 86.9884 121.345 87.219 121.345C87.4496 121.345 87.4496 121.345 87.6802 121.345C87.9108 121.345 87.9108 121.345 88.1414 121.345H88.372H88.6026C88.8333 121.345 88.8333 121.345 89.0639 121.345C89.2945 121.345 89.2945 121.345 89.5251 121.345H89.7557C89.7557 121.345 89.7557 121.345 89.9863 121.345C89.9863 121.345 89.9863 121.345 90.2169 121.345C90.6781 121.345 91.37 121.345 91.8312 121.345C92.523 121.345 93.2149 121.578 93.9067 121.578C94.1373 121.578 94.1373 121.578 94.3679 121.578V121.345C94.8292 120.647 95.0598 119.949 95.521 119.251C97.8271 115.527 100.133 112.036 102.67 109.244C103.592 108.313 104.284 107.382 105.207 106.451C108.666 102.727 112.356 99.9346 115.584 97.6073C116.276 97.1418 116.968 96.6764 117.66 96.2109C118.582 95.5127 119.505 95.0473 120.427 94.5818C121.119 94.1164 121.811 93.8836 122.503 93.4182C123.656 92.9527 124.578 92.4873 125.27 92.0218C125.501 92.0218 125.731 91.7891 125.962 91.7891C126.423 91.5564 126.654 91.5564 126.884 91.3236C126.654 91.3236 126.423 91.3236 125.962 91.3236C125.731 91.3236 125.501 91.3236 125.27 91.3236H125.039C124.809 91.3236 124.578 91.3236 124.117 91.3236C123.656 91.3236 122.964 91.3236 122.503 91.5564C122.272 91.5564 122.041 91.5564 122.041 91.5564C123.425 90.8582 124.809 90.3927 125.962 89.9273C126.884 89.6946 127.576 89.4618 128.499 89.2291C129.652 88.9964 130.574 88.9964 131.497 88.7636C132.188 88.7636 132.65 88.7636 133.341 88.7636C133.803 88.7636 134.494 88.7636 134.956 88.7636C136.57 88.9964 137.492 89.2291 137.492 89.2291C137.262 88.9964 137.031 88.5309 136.57 88.2982C135.878 87.8327 135.417 87.6 134.725 87.3673C134.494 87.3673 134.264 87.1346 134.033 87.1346C133.803 87.1346 133.803 87.1346 133.572 86.9018C133.803 86.9018 134.033 86.9018 134.494 86.6691C134.725 86.6691 134.956 86.6691 135.417 86.6691C137.723 86.4364 139.799 86.6691 141.413 86.9018C143.258 87.1346 144.411 87.8327 144.411 87.8327C144.18 87.3673 143.719 86.9018 143.258 86.4364C143.027 86.2036 142.566 85.9709 142.335 85.7382C143.027 85.9709 143.488 85.9709 144.18 86.2036C145.564 86.6691 146.948 87.1346 147.87 87.6C148.101 87.8327 148.562 87.8327 148.792 88.0655C148.792 88.0655 149.023 88.0655 149.023 88.2982C149.946 88.7636 150.407 89.2291 150.407 89.2291C150.176 88.7636 149.946 88.0655 149.484 87.6L149.254 87.3673C149.254 87.3673 149.254 87.3673 149.484 87.3673H149.715C150.176 87.6 150.637 87.8327 151.329 88.0655C151.329 88.0655 151.56 88.0655 151.56 88.2982C151.79 88.5309 152.021 88.5309 152.252 88.7636C152.482 88.9964 152.713 88.9964 152.943 89.2291C153.174 89.2291 153.174 89.4618 153.405 89.4618C153.635 89.6946 153.866 89.9273 154.327 90.16C154.558 90.3927 154.788 90.6255 155.25 90.8582C155.25 90.8582 155.25 90.8582 155.48 91.0909C155.711 91.3236 155.941 91.5564 155.941 91.7891C156.172 92.2546 156.633 92.72 156.864 93.1855C157.094 93.6509 157.556 94.3491 157.786 95.0473C158.017 94.8146 158.248 94.5818 158.478 94.1164C162.168 90.3927 170.701 79.4546 165.627 72.7055Z" fill="#141B26"/>
<path d="M178.541 155.556C178.541 155.556 178.541 154.858 178.311 154.16C178.311 154.16 178.311 153.927 178.08 153.927C178.08 153.927 177.85 153.695 177.619 153.695C177.619 153.695 177.388 153.695 177.388 153.462C177.158 153.462 176.927 153.229 176.466 153.229C176.235 153.229 176.005 153.229 175.774 153.229C175.543 153.229 175.543 153.229 175.313 153.229V153.462C175.313 153.462 175.313 153.462 175.313 153.695C175.313 153.927 175.313 154.16 175.543 154.393C175.543 154.393 175.543 154.393 175.543 154.626C175.313 154.858 175.082 155.789 174.16 156.72C173.929 156.953 173.929 157.186 173.699 157.186C171.162 159.746 165.858 163.469 154.327 165.564C150.407 166.029 146.948 166.029 143.95 165.796C139.568 165.331 136.109 163.702 134.494 161.84C134.264 161.607 134.264 161.607 134.033 161.375C134.033 161.142 133.803 161.142 133.803 160.909C133.803 160.909 133.803 160.909 133.803 160.676C133.111 159.513 132.88 158.116 132.88 156.953C132.88 155.324 133.341 153.927 134.264 152.764C134.956 151.833 135.878 151.135 136.801 150.902C137.031 150.436 137.492 150.436 138.184 150.436C138.184 150.436 138.415 150.436 138.645 150.436C139.107 150.436 139.568 150.669 140.26 150.669H140.49C142.566 150.902 146.025 151.367 150.176 150.902C157.556 150.436 167.472 148.109 176.466 139.964C176.466 139.266 176.466 138.102 175.543 137.171C175.313 136.938 175.313 136.938 175.082 136.706C175.082 136.706 174.852 136.473 174.621 136.473C174.39 136.473 174.39 136.24 174.16 136.24C173.929 136.24 173.929 136.007 173.699 136.007L173.468 135.775C171.162 132.284 167.933 130.189 166.78 129.258C166.088 128.793 165.858 128.56 165.858 128.56C163.09 126.931 162.629 126.233 162.86 121.578C162.86 119.949 163.09 117.855 163.321 114.829C163.321 114.364 163.321 114.131 163.321 113.666V113.433C163.321 113.2 163.321 112.735 163.321 112.502C163.321 112.269 163.321 112.036 163.321 111.804V111.571C163.321 111.338 163.321 111.106 163.321 110.873C163.321 110.64 163.321 110.64 163.321 110.407C163.321 110.175 163.321 110.175 163.321 109.942C163.321 109.709 163.321 109.709 163.321 109.476C163.321 109.244 163.321 109.244 163.09 109.011C163.09 109.011 163.09 109.011 163.09 108.778C163.09 108.778 163.09 108.778 163.09 108.546V108.313C163.09 108.313 163.09 108.08 162.86 108.08V107.847C162.86 107.615 162.629 107.382 162.629 107.382V107.149C162.629 106.916 162.399 106.916 162.399 106.684L162.168 106.451V106.218C162.168 105.986 161.937 105.986 161.937 105.753C161.937 105.52 161.937 105.287 161.707 105.055V104.822V104.589C161.707 104.356 161.476 104.124 161.476 103.891V103.658C161.476 103.426 161.476 103.426 161.245 103.193V102.96C161.245 102.727 161.015 102.727 161.015 102.495C161.015 102.495 161.015 102.262 160.784 102.262C160.784 102.029 160.554 102.029 160.554 101.796C160.554 101.796 160.554 101.564 160.323 101.564C160.323 101.331 160.092 101.331 160.092 101.098C160.092 101.098 160.092 100.866 159.862 100.866C159.862 100.633 159.631 100.633 159.631 100.4C159.631 100.4 159.631 100.167 159.401 100.167C159.401 100.167 159.401 99.9347 159.17 99.9347C158.939 99.7019 158.939 99.7019 158.709 99.4692C158.478 99.2365 158.248 99.0038 158.248 99.0038L158.017 98.771L157.786 98.5383C157.786 98.5383 157.556 98.3056 157.325 98.3056H157.094C155.48 97.1419 155.019 96.9092 154.327 96.9092C154.327 96.9092 154.327 96.9092 154.096 96.9092C153.635 96.6765 152.943 96.6765 152.252 96.4438C152.021 96.4438 151.79 96.4438 151.56 96.4438H151.329C151.329 96.4438 151.329 96.4438 151.099 96.4438C150.637 96.4438 149.945 96.4438 149.484 96.4438C148.792 96.4438 148.101 96.4438 147.409 96.6765C147.639 96.4438 148.101 96.211 148.331 95.9783C148.792 95.7456 149.484 95.5128 149.484 95.5128C149.254 95.5128 148.792 95.5128 148.562 95.7456H148.331H148.101C148.101 95.7456 148.101 95.7456 147.87 95.7456C146.256 95.9783 144.872 96.6765 143.95 96.9092C143.719 96.9092 143.719 96.9092 143.719 97.1419H143.488C144.18 95.9783 145.103 95.2801 145.794 95.0474C146.025 95.0474 146.025 95.0474 146.025 94.8147H146.256C146.486 94.8147 146.486 94.8147 146.486 94.8147H146.256H146.025H145.794C145.794 94.8147 145.794 94.8147 145.564 94.8147C143.95 95.0474 142.335 95.5128 140.952 96.211C140.029 96.6765 139.337 97.3747 138.645 97.8401C138.415 97.8401 138.184 97.8401 138.184 98.0728C136.339 98.5383 134.264 99.0038 131.958 99.7019C131.035 99.9347 130.343 100.167 129.421 100.633C128.729 100.866 128.037 101.098 127.345 101.331C126.884 101.564 126.423 101.796 125.962 102.029C122.503 103.658 119.043 105.753 116.276 108.546L116.045 108.778C115.815 109.011 115.584 109.244 115.354 109.476L115.123 109.709C114.892 109.942 114.892 109.942 114.662 110.175C114.201 110.873 113.509 111.571 113.048 112.036C112.586 112.502 112.356 113.2 112.125 113.666C111.433 114.829 110.972 115.993 110.511 117.389C110.28 118.087 110.05 118.786 109.819 119.484C109.819 119.716 109.819 119.949 109.588 119.949C109.358 120.647 109.358 121.578 109.127 122.276C109.127 122.509 109.127 122.509 109.127 122.742C109.127 123.207 109.127 123.673 108.896 123.906C108.896 124.371 108.896 124.604 108.896 125.069C108.896 125.302 108.896 125.535 108.896 125.767C108.896 126 108.896 126.233 108.896 126.466C108.896 126.466 108.896 126.466 108.896 126.698C108.896 127.164 108.896 127.629 108.896 128.095C108.896 128.56 108.896 129.026 108.896 129.491C108.896 129.724 108.896 129.956 108.896 130.189C108.896 130.189 108.896 130.189 108.896 130.422V130.655C108.896 131.12 109.127 131.818 109.127 132.284C109.127 132.516 109.127 132.516 109.127 132.749C109.127 133.215 109.358 133.68 109.358 134.146C109.358 134.146 109.358 133.447 109.358 132.516C109.358 132.284 109.358 132.051 109.358 131.818C109.358 131.353 109.588 130.655 109.819 130.189C109.819 129.956 109.819 129.956 110.05 129.724V129.491C110.05 129.258 110.28 129.026 110.511 128.793C110.511 129.026 110.511 129.258 110.511 129.258C110.511 129.491 110.511 129.491 110.511 129.724C110.511 129.956 110.511 130.422 110.511 130.655C110.511 131.12 110.511 131.353 110.511 131.818C110.511 133.447 110.741 135.542 110.972 137.404C110.972 137.404 110.972 134.146 111.664 133.913C111.664 133.913 112.586 139.731 113.509 142.058C113.509 142.291 113.739 142.524 113.739 142.756V142.058L113.509 138.8V138.567C114.201 139.964 114.892 141.36 115.815 142.756C116.045 143.222 116.276 143.455 116.507 143.92C114.892 145.316 113.509 147.411 112.356 149.738C112.125 150.204 112.125 150.436 111.894 150.902C111.894 151.135 111.664 151.367 111.664 151.6V151.833C111.664 152.066 111.664 152.066 111.433 152.298V152.531C111.433 152.764 111.433 152.764 111.203 152.996V153.229C111.203 153.462 111.203 153.695 110.972 153.927C110.972 154.16 110.972 154.393 110.741 154.626V154.858C110.741 155.091 110.741 155.324 110.741 155.324V155.556C110.741 155.789 110.741 156.022 110.741 156.022V156.255C110.741 156.487 110.741 156.72 110.741 157.186C110.741 157.418 110.741 157.651 110.741 157.884C110.741 158.116 110.741 158.349 110.741 158.582C110.741 158.815 110.741 159.047 110.741 159.28V159.513C110.741 159.746 110.741 159.978 110.741 159.978V160.211C110.741 160.444 110.741 160.444 110.741 160.676V160.909C110.741 161.142 110.741 161.142 110.972 161.375V161.607C110.972 161.84 110.972 161.84 111.203 162.073V162.306C111.203 162.538 111.203 162.538 111.433 162.771V163.004C111.433 163.236 111.664 163.469 111.664 163.469V163.702C111.894 164.167 112.125 164.866 112.356 165.331C112.356 165.331 112.356 165.564 112.586 165.564C112.586 165.796 112.817 166.029 112.817 166.029L113.048 166.262C113.048 166.495 113.278 166.727 113.278 166.727L113.509 166.96C113.509 167.193 113.739 167.193 113.739 167.426L113.97 167.658C114.201 167.891 114.201 167.891 114.431 168.124L114.662 168.356C114.892 168.589 114.892 168.589 115.123 168.822L115.354 169.055C115.584 169.287 115.584 169.52 115.815 169.52L116.045 169.753C116.276 169.986 116.507 170.218 116.737 170.451C116.737 170.451 116.507 170.218 116.276 169.753C116.276 169.753 116.276 169.52 116.045 169.52C116.045 169.52 116.045 169.287 115.815 169.287C115.815 169.287 115.815 169.055 115.584 169.055C115.123 168.124 114.892 166.727 114.892 165.331C115.123 165.564 115.123 165.796 115.354 166.029C115.584 166.495 115.815 166.727 116.045 167.426C116.045 167.658 116.276 167.658 116.276 167.891C116.737 168.589 117.199 169.287 117.66 170.218C118.352 171.149 118.813 172.08 119.505 173.011C119.505 173.011 118.813 171.382 118.582 170.451C118.582 170.218 118.582 169.986 118.582 169.753L118.813 169.986L119.043 170.218C119.274 170.451 119.274 170.684 119.505 170.916C119.505 170.916 119.735 171.149 119.735 171.382C119.735 171.615 119.966 171.615 119.966 171.847C121.119 173.244 122.503 175.106 123.425 176.036C123.656 176.269 124.117 176.502 124.348 176.735L122.964 174.175C126.192 176.967 140.029 180.458 153.405 176.502C155.019 176.036 156.633 175.338 158.248 174.64C159.17 174.175 160.092 173.709 161.015 173.244H161.245C161.937 172.778 162.629 172.546 163.321 172.08C163.782 171.847 164.243 171.382 164.705 171.149C165.396 170.684 166.319 169.986 167.011 169.287C167.011 169.287 167.011 169.287 167.241 169.055C167.933 168.356 168.625 167.658 169.317 166.96C170.239 166.029 170.931 165.098 171.623 164.167C171.854 163.935 172.084 163.702 172.084 163.469C172.084 163.469 172.084 163.236 172.315 163.236C172.545 163.004 172.776 162.538 173.007 162.306C173.007 162.306 173.007 162.073 173.237 162.073C173.237 161.84 173.468 161.607 173.468 161.607C173.468 161.375 173.699 161.375 173.699 161.142C173.699 160.909 173.929 160.909 173.929 160.676C174.16 160.444 174.16 160.211 174.39 159.978C174.39 159.978 174.39 159.746 174.621 159.746C174.621 159.513 174.852 159.28 174.852 159.047C174.852 159.047 174.852 158.815 175.082 158.815C175.313 158.582 175.313 158.349 175.543 158.116C176.005 157.651 176.235 157.418 176.696 156.953C176.696 156.953 176.696 156.953 176.927 156.72C178.311 156.953 178.541 156.255 178.541 155.556Z" fill="#856249"/>
<path d="M98.0577 145.549C97.8271 144.385 97.8271 143.687 97.5965 142.756V142.524C97.3659 142.524 97.3659 142.756 97.1352 142.989L96.9046 143.222C96.4434 144.153 95.9822 145.316 95.9822 145.316C95.9822 144.851 95.9822 144.618 96.2128 144.153C96.2128 144.153 96.2128 144.153 96.2128 143.92C96.2128 143.455 96.2128 142.989 96.4434 142.756C96.4434 142.756 96.4434 142.756 96.4434 142.524C96.4434 142.058 96.674 141.593 96.674 141.127V140.895C96.674 140.895 96.674 140.895 96.674 140.662V140.429C96.674 139.964 96.9046 139.731 96.9046 139.265C96.9046 139.033 97.1352 138.567 97.1352 138.335C97.1352 138.335 97.1352 138.335 97.1352 138.102C97.1352 138.102 97.1352 138.102 97.1352 137.869V137.636V137.404V137.171V136.938V136.705C97.1352 136.705 97.1352 136.705 97.1352 136.473V136.24L96.9046 136.473L96.674 136.705C96.674 136.938 96.4434 136.938 96.4434 137.171C96.4434 137.171 96.4434 137.404 96.2128 137.404C96.2128 137.636 95.9822 137.636 95.9822 137.869C95.7516 138.335 95.7516 138.567 95.521 139.033C95.521 139.265 95.521 139.265 95.521 139.265C95.521 139.498 95.521 139.731 95.2903 139.731C95.2903 139.498 95.2903 139.498 95.2903 139.265C95.2903 139.033 95.2903 138.8 95.2903 138.567C95.2903 138.335 95.2903 138.102 95.2903 137.869V137.636V137.404V137.171V136.938C95.2903 136.938 95.2903 136.938 95.2903 136.705C95.2903 136.705 95.2903 136.705 95.2903 136.473C95.2903 136.24 95.2903 136.24 95.521 136.007C95.521 135.775 95.521 135.775 95.521 135.542C95.521 135.309 95.7516 135.076 95.7516 134.844V134.611C95.7516 134.611 95.7516 134.611 95.7516 134.378C95.9822 133.913 95.9822 133.68 96.2128 133.215C96.2128 132.982 96.4434 132.516 96.674 132.284C96.674 132.051 96.674 132.051 96.9046 131.818C96.9046 131.585 97.1352 131.353 97.1352 131.12C97.1352 131.12 97.1352 130.887 97.3659 130.887V130.655C97.3659 130.655 97.3659 130.422 97.5965 130.422L98.9801 129.491V129.258C98.9801 129.025 99.2107 129.025 99.2107 128.793C99.4414 128.56 99.4414 128.327 99.672 128.095C99.9026 127.629 100.133 127.164 100.364 126.931C100.364 126.698 100.594 126.698 100.594 126.698C100.594 126.698 100.364 126.465 99.9026 126.233C99.4414 126 98.7495 125.535 97.8271 125.069C97.5965 124.836 97.3659 124.836 96.9046 124.604C96.4434 124.371 96.2128 124.371 95.7516 124.138H95.521C95.2903 124.138 94.8291 123.905 94.5985 123.905C94.3679 123.905 94.1373 123.673 93.9067 123.673C93.6761 123.673 93.4454 123.673 93.2148 123.673H92.9842H92.7536C92.523 123.673 92.2924 123.673 92.0618 123.673C91.8312 123.673 91.8312 123.673 91.6005 123.673C90.9087 123.673 90.4475 123.673 89.9863 123.905C89.0638 124.138 87.9108 124.371 86.9883 124.604C86.7577 124.836 86.2965 124.836 86.0659 125.069C86.0659 125.069 85.8352 125.069 85.8352 125.302C85.8352 125.302 85.6046 125.302 85.6046 125.535C84.6822 126 83.7597 126.698 83.0679 127.164C82.3761 127.629 81.6842 128.327 81.223 129.025C80.5312 128.793 80.5312 129.025 80.3005 129.258C80.0699 129.491 79.8393 129.724 79.8393 129.956C79.6087 130.422 79.1475 130.887 78.9169 131.353C78.9169 131.585 78.6863 131.818 78.6863 131.818C78.225 132.982 77.7638 134.378 77.5332 135.542C77.5332 135.775 77.5332 136.007 77.5332 136.24C77.5332 136.473 77.5332 136.705 77.5332 136.938C77.5332 137.171 77.5332 137.404 77.5332 137.636C77.5332 137.636 77.5332 137.636 77.5332 137.869C77.5332 138.102 77.5332 138.335 77.5332 138.567C77.5332 138.567 77.5332 138.567 77.5332 138.8C77.5332 139.033 77.5332 139.033 77.5332 139.265V139.498C77.5332 139.731 77.5332 139.731 77.5332 139.964V140.196C77.5332 140.429 77.5332 140.429 77.5332 140.662V140.895V141.127V141.36C77.5332 141.36 77.5332 141.593 77.7638 141.593V141.825C77.7638 141.825 77.7638 142.058 77.9944 142.058C77.9944 142.058 77.9944 142.291 78.225 142.291C78.225 142.291 78.225 142.291 78.225 142.524C78.225 142.524 78.225 142.524 78.225 142.756C78.225 142.756 78.225 142.989 78.4557 142.989L78.6863 143.222C78.6863 143.222 78.6863 143.455 78.9169 143.455L79.1475 143.687C79.1475 143.687 79.1475 143.92 79.3781 143.92C79.3781 144.153 79.6087 144.153 79.6087 144.153C79.6087 144.153 79.6087 144.385 79.8393 144.385C79.8393 144.618 80.0699 144.618 80.0699 144.618C80.0699 144.618 80.0699 144.851 80.3005 144.851C80.3005 145.084 80.5312 145.084 80.5312 145.084C80.5312 145.084 80.5312 145.316 80.7618 145.316C80.7618 145.549 80.9924 145.549 80.9924 145.549C80.9924 145.549 80.9924 145.549 81.223 145.782C81.223 146.015 81.4536 146.015 81.4536 146.015C81.4536 146.015 81.4536 146.015 81.6842 146.247C81.9148 146.247 81.9148 146.48 82.1454 146.48C82.1454 146.48 82.1454 146.48 82.3761 146.713C82.6067 146.713 82.6067 146.945 82.8373 146.945C82.8373 146.945 82.8373 146.945 83.0679 146.945C83.2985 146.945 83.2985 147.178 83.5291 147.178C83.5291 147.178 83.5291 147.178 83.7597 147.178C83.9903 147.178 83.9903 147.411 84.221 147.411C84.4516 147.411 84.4516 147.644 84.6822 147.644C84.9128 147.644 84.9128 147.876 85.1434 147.876C85.374 147.876 85.6046 148.109 85.6046 148.109C85.8352 148.109 86.0659 148.342 86.0659 148.342C86.2965 148.342 86.5271 148.575 86.5271 148.575C86.7577 148.575 86.9883 148.807 87.2189 148.807H87.4495H87.6801C87.9108 148.807 88.1414 148.807 88.372 149.04C88.6026 149.04 88.8332 149.04 89.0638 149.273C89.7556 149.273 90.4475 149.505 91.1393 149.505C91.3699 149.505 91.3699 149.505 91.6005 149.505C91.8312 149.505 92.0618 149.505 92.2924 149.505C92.523 149.505 92.9842 149.505 93.2148 149.505C93.4454 149.505 93.9067 149.505 94.1373 149.273C94.5985 149.273 95.0597 149.04 95.521 149.04C96.9046 148.575 97.8271 148.109 98.5189 147.644C98.5189 147.644 98.0577 145.549 97.5965 143.687C98.0577 146.015 98.0577 145.782 98.0577 145.549Z" fill="#856249"/>
<path d="M130.113 70.6109L129.882 68.5164L130.805 66.1891H131.266C130.574 65.9564 129.882 65.7236 128.96 65.4909C127.115 65.2582 124.809 65.4909 122.272 66.1891C119.735 66.8873 116.737 68.0509 113.509 69.68C107.282 72.7055 100.364 77.5927 93.6763 83.6436C91.3701 85.7382 89.2946 88.0655 87.2191 90.16C85.3742 92.2546 83.5293 94.3491 81.915 96.4436C78.6865 100.633 76.1497 104.822 74.5354 108.545C73.3824 111.105 72.9211 113.2 72.6905 115.295C72.4599 116.691 72.4599 117.855 72.6905 119.018C72.6905 119.251 72.9211 119.716 72.9211 119.949C73.1518 120.647 73.3824 121.113 73.8436 121.578L78.2252 126L78.6865 126.465C78.9171 126.233 78.9171 126.233 79.1477 126C79.1477 126 79.1477 126 79.3783 125.767C79.6089 125.535 79.6089 125.535 79.8395 125.302L80.0701 125.069L80.3007 124.836L80.5314 124.604C80.762 124.604 80.762 124.371 80.9926 124.371L81.2232 124.138C81.4538 124.138 81.4538 123.905 81.6844 123.905L81.915 123.673C82.1456 123.673 82.1456 123.44 82.3763 123.44C82.3763 123.44 82.6069 123.44 82.6069 123.207C82.8375 123.207 82.8375 122.975 83.0681 122.975C83.0681 122.975 83.2987 122.975 83.2987 122.742C83.5293 122.742 83.5293 122.509 83.7599 122.509C83.7599 122.509 83.9905 122.509 83.9905 122.276C84.913 119.484 86.2967 116.691 88.3722 113.665C90.6783 109.942 93.6763 105.985 97.1354 102.029C99.4416 99.4691 101.748 97.1418 104.284 94.8146C107.744 91.7891 111.203 88.9964 114.431 86.6691C116.737 85.04 119.044 83.6436 121.119 82.2473C121.35 82.0146 121.58 82.0146 121.811 81.7818C122.503 81.5491 122.964 81.0836 123.656 80.8509C124.809 80.1527 126.193 79.6873 127.346 78.9891L126.423 78.2909V78.0582L121.58 72.0073V68.2836L124.348 67.8182L130.113 70.6109Z" fill="#3578AD"/>
<path d="M178.542 155.556C178.542 155.556 178.542 154.858 178.311 154.16C178.311 154.16 178.311 153.927 178.081 153.927C178.081 153.927 177.85 153.695 177.62 153.695C177.62 153.695 177.389 153.695 177.389 153.462C177.158 153.462 176.928 153.229 176.466 153.229C176.236 153.229 176.005 153.229 175.775 153.229C175.544 153.229 175.544 153.229 175.313 153.229V153.462C175.313 153.462 175.313 153.462 175.313 153.695C175.313 153.927 175.313 154.16 175.544 154.393C175.544 154.393 175.544 154.393 175.544 154.625C175.313 154.858 175.083 155.789 174.16 156.72C173.93 156.953 173.93 157.186 173.699 157.186C171.162 159.746 165.858 163.469 154.328 165.564C150.407 166.029 146.948 166.029 143.95 165.796C139.569 165.331 136.109 163.702 134.495 161.84C134.264 161.607 134.264 161.607 134.034 161.375C134.034 161.142 133.803 161.142 133.803 160.909C133.803 160.909 133.803 160.909 133.803 160.676C133.111 159.513 132.881 158.116 132.881 156.953C132.881 155.324 133.342 153.927 134.264 152.764C134.956 151.833 135.879 151.135 136.801 150.902C137.032 150.436 137.493 150.436 138.185 150.436C138.185 150.436 138.415 150.436 138.646 150.436C139.107 150.436 139.569 150.669 140.26 150.669H140.491C142.567 150.902 146.026 151.367 150.177 150.902C157.556 150.436 167.473 148.109 176.466 139.964C176.466 139.266 176.467 138.102 175.544 137.171C175.313 136.938 175.313 136.938 175.083 136.705C175.083 136.705 174.852 136.473 174.622 136.473C174.391 136.473 174.391 136.24 174.16 136.24C173.93 136.24 173.93 136.007 173.699 136.007L173.469 135.775C171.162 132.284 167.934 130.189 166.781 129.258C166.089 128.793 165.858 128.56 165.858 128.56C163.091 126.931 162.63 126.233 162.86 121.578C162.86 119.949 163.091 117.855 163.322 114.829C163.322 114.364 163.322 114.131 163.322 113.666V113.433C163.322 113.2 163.322 112.735 163.322 112.502C163.322 112.269 163.322 112.036 163.322 111.804V111.571C163.322 111.338 163.322 111.106 163.322 110.873C163.322 110.64 163.322 110.64 163.322 110.407C163.322 110.175 163.322 110.175 163.322 109.942C163.322 109.709 163.322 109.709 163.322 109.476C163.322 109.244 163.322 109.244 163.091 109.011C163.091 109.011 163.091 109.011 163.091 108.778C163.091 108.778 163.091 108.778 163.091 108.546V108.313C163.091 108.313 163.091 108.08 162.86 108.08V107.847C162.86 107.615 162.63 107.382 162.63 107.382V107.149C162.63 106.916 162.399 106.916 162.399 106.684L162.169 106.451V106.218C162.169 105.986 161.938 105.986 161.938 105.753C161.707 105.52 161.707 105.52 161.477 105.287C161.246 105.287 161.246 105.055 161.015 105.055C161.015 105.055 161.015 105.055 160.785 105.055C160.785 105.055 160.554 105.055 160.554 104.822C160.554 104.822 160.554 104.822 160.324 104.822H160.093H159.862H159.632H159.401H159.171H158.94H158.709C158.709 104.822 158.709 104.822 158.479 104.822H158.248C158.248 104.822 158.248 104.822 158.018 104.822C158.018 104.822 158.018 104.822 157.787 104.822H157.556C157.326 104.822 157.095 105.055 156.634 105.055C156.634 105.055 156.403 105.055 156.403 105.287H156.173C156.173 105.287 155.942 105.287 155.942 105.52H155.711C155.711 105.52 155.481 105.52 155.481 105.753H155.25L155.02 105.986C154.789 105.986 154.789 106.218 154.558 106.218C154.328 106.218 154.328 106.451 154.097 106.451C153.867 106.684 153.636 106.684 153.405 106.916C153.175 107.149 152.944 107.149 152.713 107.382C152.483 107.615 152.252 107.615 152.022 107.847C151.791 108.08 151.56 108.08 151.33 108.313H151.099C150.869 108.546 150.638 108.546 150.407 108.778C150.177 108.778 149.946 109.011 149.715 109.011C149.485 109.011 149.254 109.244 149.024 109.244C148.793 109.244 148.562 109.476 148.101 109.476C147.64 109.476 147.179 109.476 146.718 109.476C146.026 109.476 145.103 109.476 144.411 109.244C144.181 109.244 143.95 109.244 143.72 109.011H143.489C142.797 108.778 142.105 108.778 141.413 108.546C141.183 108.546 140.952 108.313 140.491 108.313C140.03 108.313 139.569 108.08 139.107 108.08H138.877H138.646H138.415H138.185H137.954C137.724 108.08 137.493 108.08 137.262 108.08H137.032C136.801 108.08 136.801 108.08 136.571 108.08H136.34C136.109 108.08 136.109 108.08 135.879 108.08H135.648C135.648 108.08 135.648 108.08 135.418 108.08H135.187H134.956C134.726 108.08 134.726 108.08 134.495 108.08C134.495 108.08 134.495 108.08 134.264 108.08C134.264 108.08 134.264 108.08 134.034 108.08C133.803 108.08 133.573 108.08 133.573 108.08C133.573 108.08 133.573 108.08 133.342 108.08C133.111 108.08 132.881 108.08 132.65 108.08H132.42C132.189 108.08 132.189 108.08 131.958 108.08H131.728C131.497 108.08 131.497 108.08 131.267 108.08H131.036C130.805 108.08 130.805 108.08 130.575 108.313H130.344C130.113 108.313 130.113 108.313 129.883 108.546H129.652C129.422 108.546 129.191 108.778 128.96 108.778C127.115 109.942 125.501 111.338 124.118 113.2C123.656 113.898 123.195 114.364 122.964 115.062C122.503 115.76 122.273 116.458 122.042 117.156C122.042 117.389 121.811 117.622 121.811 117.855C121.581 118.32 121.581 118.553 121.581 119.018C121.581 119.018 121.581 119.018 121.581 119.251C121.581 119.716 121.35 120.182 121.35 120.415C121.35 120.88 121.12 121.346 121.12 121.811C121.12 122.044 121.12 122.276 121.12 122.509C121.12 123.207 121.12 123.906 121.12 124.371V124.604C121.12 124.836 121.12 124.836 121.12 125.069C121.12 125.535 121.12 126 121.35 126.466C121.35 126.698 121.35 126.698 121.581 126.931C121.581 127.164 121.581 127.164 121.581 127.396C121.811 128.56 122.273 129.491 122.964 130.655C125.04 134.146 128.499 136.473 130.805 137.636C131.728 138.102 132.65 138.335 133.803 138.8C133.803 138.8 133.803 138.8 133.573 138.8C133.342 138.8 133.111 138.8 132.881 139.033C132.42 139.033 132.189 139.265 131.728 139.498C131.267 139.731 130.575 139.964 130.113 140.196C128.499 140.895 126.654 141.826 125.04 143.222C124.809 143.455 124.579 143.455 124.348 143.687C124.118 143.92 123.656 144.386 123.426 144.618C123.426 144.618 123.426 144.618 123.195 144.851C123.195 145.084 122.964 145.084 122.964 145.316C122.964 145.316 122.964 145.316 122.734 145.549C122.503 145.782 122.503 146.015 122.273 146.247C122.042 146.48 122.042 146.713 121.811 146.945C120.889 148.575 120.428 150.669 120.428 152.996C120.428 152.996 120.428 152.996 120.428 152.764V152.531V152.298V152.066V151.833V151.6C120.428 151.6 120.428 151.367 120.658 151.367C120.658 151.135 120.658 151.135 120.889 150.902C120.889 150.669 121.12 150.436 121.12 150.436C121.12 150.436 121.12 150.204 121.35 150.204C121.35 149.971 121.581 149.971 121.581 149.738C121.581 149.506 121.811 149.506 121.811 149.273L122.042 149.04C122.042 149.04 122.273 148.807 122.503 148.807C122.503 148.807 120.428 153.695 121.35 157.651C121.35 157.651 121.35 157.651 121.35 157.418V157.186V156.953V156.72V156.487C121.35 156.487 121.35 156.255 121.35 156.022C121.35 155.789 121.35 155.789 121.35 155.556C121.35 155.324 121.35 155.324 121.581 155.091C121.581 155.091 121.581 155.091 121.581 154.858C121.581 154.858 121.581 154.625 121.811 154.625C121.811 154.393 122.042 154.393 122.042 154.16C122.042 154.16 122.042 154.16 122.042 153.927C122.042 153.695 122.273 153.695 122.273 153.462C122.273 153.462 122.042 154.626 122.273 156.022C122.273 156.255 122.273 156.487 122.273 156.72C122.273 156.953 122.273 156.953 122.273 157.186C122.273 155.556 122.734 154.16 122.964 152.764C122.503 154.16 122.273 155.556 122.273 157.186C122.273 158.116 122.273 159.28 122.273 160.211C122.503 162.073 122.964 163.935 123.656 165.796C123.656 165.796 122.964 163.469 123.887 161.142C123.887 161.375 124.118 161.607 124.118 161.84C124.118 162.538 124.348 163.469 124.579 164.633C124.809 166.495 125.501 171.615 129.191 175.338C129.191 175.338 127.807 173.476 128.038 171.382C128.269 171.615 128.269 171.847 128.499 172.08C129.191 173.244 130.344 175.338 131.728 176.967C131.728 176.967 130.575 174.873 130.805 174.407C130.805 174.407 134.264 178.829 135.418 179.295L134.034 176.967C139.107 180.691 146.026 182.087 154.558 179.527C155.942 179.062 157.556 178.596 159.171 177.898C160.093 177.433 161.015 176.967 161.938 176.502H162.169C162.86 176.036 163.552 175.804 164.244 175.338C164.705 175.105 165.167 174.64 165.628 174.407C166.32 173.942 167.242 173.244 167.934 172.545C167.934 172.545 167.934 172.546 168.164 172.313C168.856 171.615 169.548 170.916 170.24 170.218C171.162 169.287 171.854 168.356 172.546 167.425C172.777 167.193 173.007 166.96 173.007 166.727C173.007 166.727 173.007 166.495 173.238 166.495C173.469 166.262 173.699 165.796 173.93 165.564C173.93 165.564 173.93 165.331 174.16 165.331C174.16 165.098 174.391 164.866 174.391 164.866C174.391 164.633 174.622 164.633 174.622 164.4C174.622 164.167 174.852 164.167 174.852 163.935C175.083 163.702 175.083 163.469 175.313 163.236C175.313 163.236 175.313 163.004 175.544 163.004C175.544 162.771 175.775 162.538 175.775 162.305C175.775 162.305 175.775 162.073 176.005 162.073C176.236 161.84 176.236 161.607 176.466 161.375C176.928 160.909 177.158 160.676 177.62 160.211C177.62 160.211 177.62 160.211 177.85 159.978C178.311 156.953 178.542 156.255 178.542 155.556Z" fill="#FCE9C8"/>
<path d="M97.5966 142.524C97.366 142.524 97.366 142.757 97.1354 142.989L96.9048 143.222C96.4435 144.153 95.9823 145.317 95.9823 145.317C95.9823 144.851 95.9823 144.618 96.2129 144.153C96.2129 144.153 96.2129 144.153 96.2129 143.92C96.2129 143.455 96.2129 142.989 96.4435 142.757C96.4435 142.757 96.4435 142.757 96.4435 142.524C96.4435 142.058 96.6741 141.593 96.6741 141.127V140.895C96.6741 140.895 96.6741 140.895 96.6741 140.662V140.429C96.6741 139.964 96.9048 139.731 96.9048 139.266C96.9048 139.033 97.1354 138.567 97.1354 138.335C97.1354 138.335 97.1354 138.335 97.1354 138.102C97.1354 138.102 97.1354 138.102 97.1354 137.869V137.637V137.404V137.171V136.938V136.706C97.1354 136.706 97.1354 136.706 97.1354 136.473V136.24L96.9048 136.473L96.6741 136.706C96.6741 136.938 96.4435 136.938 96.4435 137.171C96.4435 137.171 96.4435 137.404 96.2129 137.404C96.2129 137.637 95.9823 137.636 95.9823 137.869C95.7517 138.335 95.7517 138.567 95.5211 139.033C95.5211 139.266 95.5211 139.266 95.5211 139.266C95.5211 139.498 95.5211 139.731 95.2905 139.731C95.2905 139.498 95.2905 139.498 95.2905 139.266C95.2905 139.033 95.2905 138.8 95.2905 138.567C95.2905 138.335 95.2905 138.102 95.2905 137.869V137.637V137.404V137.171V136.938C95.2905 136.938 95.2905 136.938 95.2905 136.706C95.2905 136.706 95.2905 136.706 95.2905 136.473C95.2905 136.24 95.2905 136.24 95.5211 136.007C95.5211 135.775 95.5211 135.775 95.5211 135.542C95.5211 135.309 95.7517 135.076 95.7517 134.844V134.611C95.7517 134.611 95.7517 134.611 95.7517 134.378C95.9823 133.913 95.9823 133.68 96.2129 133.215C96.2129 132.982 96.4435 132.516 96.6741 132.284C96.6741 132.051 96.6741 132.051 96.9048 131.818C96.9048 131.586 97.1354 131.353 97.1354 131.12C97.1354 131.12 97.1354 130.887 97.366 130.887V130.655C97.366 130.655 97.366 130.422 97.5966 130.422H97.366C96.9048 130.189 96.4435 129.956 95.9823 129.956C95.7517 129.956 95.2905 129.724 95.0599 129.724C94.8292 129.724 94.5986 129.724 94.368 129.724C94.1374 129.724 94.1374 129.724 93.9068 129.724C93.6762 129.724 93.4456 129.724 93.215 129.724H92.9843C92.7537 129.724 92.7537 129.724 92.5231 129.724C92.5231 129.724 92.5231 129.724 92.2925 129.724H92.0619C91.8313 129.724 91.8313 129.724 91.6007 129.956H91.3701C91.1394 129.956 90.9088 130.189 90.6782 130.189C90.6782 130.189 90.4476 130.189 90.4476 130.422C90.4476 130.422 90.217 130.422 90.217 130.655L89.9864 130.887L89.7558 131.12L89.5252 131.353C89.5252 131.353 89.2945 131.353 89.2945 131.586C89.0639 131.818 89.0639 131.818 88.8333 132.051L88.6027 132.284C88.3721 132.516 88.3721 132.516 88.1415 132.749L87.9109 132.982C87.9109 132.982 87.9109 132.982 87.6803 133.215C87.4497 133.68 87.219 134.146 87.219 134.611V134.844C87.219 135.076 86.9884 135.309 86.9884 135.542V135.775C86.9884 136.007 86.7578 136.24 86.7578 136.473C86.7578 136.706 86.7578 136.706 86.7578 136.938V137.171V137.404V137.637C86.7578 137.869 86.7578 138.102 86.7578 138.335C86.7578 138.567 86.7578 138.8 86.7578 139.033V139.266C86.7578 139.731 86.9884 139.964 86.9884 140.429C86.9884 140.662 87.219 140.895 87.219 141.36C87.4496 141.826 87.6803 142.291 87.9109 142.757C88.6027 143.687 89.2945 144.386 90.217 145.084C90.6782 145.317 91.3701 145.782 91.8313 146.015C92.2925 146.247 92.9843 146.48 93.6762 146.48C93.9068 146.48 93.9068 146.48 94.1374 146.48C94.368 146.48 94.5986 146.48 94.8292 146.48C95.0599 146.48 95.2905 146.48 95.5211 146.48H95.7517C95.9823 146.48 96.2129 146.48 96.6741 146.247H96.9048C97.1354 146.247 97.5966 146.015 97.8272 145.782C97.8272 145.782 98.0578 145.782 98.0578 145.549C97.8272 144.618 97.8272 143.687 97.5966 142.524C97.5966 142.757 97.5966 142.524 97.5966 142.524Z" fill="#FCE9C8"/>
<path d="M175.313 153.462C175.313 153.229 175.313 153.229 175.313 153.462C175.313 153.229 175.313 153.229 175.313 153.229C175.083 152.531 174.852 151.833 174.391 151.367C173.93 150.902 173.699 150.437 173.699 150.437C173.699 150.204 173.699 149.971 173.93 149.738C173.93 149.506 173.93 149.273 174.16 149.04C174.391 147.178 173.93 145.782 173.469 145.084C173.469 144.851 173.238 144.851 173.238 144.851C173.007 145.084 172.777 145.317 172.315 145.549C167.011 149.273 160.785 151.6 154.328 152.531C149.715 153.229 145.103 153.229 140.03 152.764C140.03 152.764 137.032 153.229 136.34 156.022L136.109 157.884C136.109 160.444 137.493 162.073 138.646 163.004C140.03 163.469 141.644 163.935 143.72 164.167C146.948 164.633 150.638 164.4 154.558 163.935C159.632 163.237 166.781 160.444 172.085 156.953C173.238 156.255 174.391 155.324 175.313 154.393C175.544 153.695 175.544 153.462 175.313 153.462Z" fill="white"/>
<path d="M165.627 128.56C162.859 126.931 162.398 126.233 162.629 121.578C162.629 119.949 162.859 117.855 163.09 114.829C163.09 114.364 163.09 114.131 163.09 113.666V113.433C163.09 113.2 163.09 112.735 163.09 112.502C163.09 112.269 163.09 112.036 163.09 111.804V111.571C163.09 111.338 163.09 111.106 163.09 110.873C163.09 110.64 163.09 110.64 163.09 110.407C163.09 110.175 163.09 110.175 163.09 109.942C163.09 109.709 163.09 109.709 163.09 109.476C162.629 108.778 162.168 108.313 161.706 107.847L161.476 107.615L161.245 107.382C160.323 106.916 159.631 106.451 158.478 106.451C158.017 106.451 157.325 106.451 156.863 106.451C156.633 106.451 156.402 106.451 156.172 106.451C155.48 106.451 154.788 106.684 154.096 106.916C153.866 107.149 153.635 107.149 153.404 107.382C153.174 107.615 152.943 107.615 152.712 107.847C152.482 108.08 152.251 108.08 152.021 108.313C151.79 108.546 151.559 108.546 151.329 108.778H151.098C150.868 109.011 150.637 109.011 150.406 109.244C150.176 109.244 149.945 109.476 149.714 109.476C149.484 109.476 149.253 109.709 149.023 109.709C148.792 109.709 148.561 109.942 148.1 109.942C147.639 109.942 147.178 109.942 146.717 109.942C146.025 109.942 145.102 109.942 144.41 109.709C144.18 109.709 143.949 109.709 143.719 109.476H143.488C142.796 109.244 142.104 109.244 141.412 109.011C141.182 109.011 140.951 108.778 140.49 108.778C140.029 108.778 139.568 108.546 139.106 108.546H138.876C138.414 108.546 138.184 108.546 137.723 108.546C136.57 108.778 135.417 109.011 134.263 109.476H134.033C133.802 109.476 133.572 109.709 133.572 109.709C133.341 109.709 133.11 109.942 132.88 109.942C131.266 110.64 129.651 111.571 128.268 112.967C127.576 113.433 127.114 114.131 126.653 114.596C125.961 115.527 125.039 116.458 124.578 117.389C124.578 117.389 124.578 117.389 124.578 117.622C124.347 118.087 123.886 118.553 123.655 119.251C123.655 119.484 123.425 119.716 123.425 119.716C123.194 120.415 122.963 120.88 122.733 121.578V121.811C122.733 122.044 122.502 122.509 122.502 122.742C122.502 122.975 122.272 123.44 122.272 123.673V123.906C122.272 124.138 122.272 124.371 122.272 124.371C122.272 125.069 122.041 125.767 122.041 126.466C122.041 126.698 122.041 126.931 122.041 126.931C122.272 128.095 122.733 129.026 123.425 130.189C125.5 133.68 128.959 136.007 131.266 137.171C132.188 137.636 133.11 137.869 134.263 138.335C134.494 138.335 134.494 138.102 134.725 138.102C134.725 138.102 134.725 138.102 134.955 138.102C135.186 138.102 135.186 137.869 135.417 137.869C135.417 137.869 135.417 137.869 135.647 137.869C135.878 137.869 135.878 137.636 136.108 137.636C136.108 137.636 136.108 137.636 136.339 137.636C136.57 137.636 136.57 137.404 136.8 137.404C136.8 137.404 136.8 137.404 137.031 137.404C137.261 137.404 137.261 137.171 137.492 137.171H137.723C137.953 137.171 137.953 136.938 138.184 136.938H138.414C138.645 136.938 138.645 136.706 138.876 136.706H139.106C139.337 136.706 139.568 136.473 139.568 136.473C139.568 136.473 139.798 136.473 139.798 136.24C140.029 136.24 140.259 136.007 140.259 136.007C140.259 136.007 140.49 136.007 140.49 135.775C140.721 135.775 140.951 135.542 140.951 135.542C140.951 135.542 141.182 135.542 141.182 135.309C141.412 135.309 141.643 135.076 141.643 135.076C141.643 135.076 141.874 135.076 141.874 134.844C142.104 134.844 142.335 134.611 142.335 134.611C142.566 134.611 142.566 134.611 142.796 134.378C143.027 134.378 143.257 134.146 143.257 134.146C143.488 134.146 143.488 134.146 143.719 133.913C143.949 133.913 144.18 133.68 144.18 133.68C144.41 133.68 144.41 133.68 144.641 133.447C144.872 133.447 144.872 133.215 145.102 133.215C145.333 133.215 145.333 133.215 145.563 132.982C145.794 132.982 145.794 132.982 146.025 132.749C146.255 132.749 146.486 132.749 146.486 132.516C146.717 132.516 146.717 132.516 146.947 132.284C147.178 132.284 147.408 132.051 147.639 132.051H147.87C148.792 129.956 151.098 124.836 155.249 124.371C155.71 124.371 156.172 124.371 156.402 124.371H156.633C156.633 124.138 156.633 123.673 156.633 123.44C156.402 121.113 157.094 119.484 158.247 119.251C158.939 119.251 159.631 120.182 159.631 120.647C159.861 121.346 160.092 122.276 160.092 123.207C160.092 124.138 160.092 124.836 159.861 125.535L160.092 125.767C161.014 126.931 161.245 128.56 161.245 129.724C161.706 129.724 161.937 129.724 162.398 129.724H162.629C162.629 129.724 162.629 129.724 162.859 129.724C163.321 129.724 163.782 129.724 164.243 129.724C165.396 129.724 166.549 129.491 167.702 129.491C166.088 128.56 165.627 128.56 165.627 128.56Z" fill="#EFCFA5"/>
<path d="M176.235 159.513C174.391 161.142 172.546 162.538 170.701 163.469C169.778 163.935 168.856 164.4 167.933 164.866C165.858 165.796 164.013 166.495 162.168 166.727C158.248 167.658 155.711 167.658 155.711 167.658C157.786 168.822 160.554 168.822 162.168 168.589C163.321 168.356 164.244 168.356 164.244 168.356C164.244 169.055 164.013 169.753 164.013 170.451C163.782 171.149 163.552 171.847 163.321 172.546C163.091 173.244 162.629 173.942 162.168 174.64C162.168 174.64 162.168 174.873 161.937 174.873H162.168C162.86 174.407 163.552 174.175 164.244 173.709C164.705 173.476 165.166 173.011 165.627 172.778C166.319 172.313 167.242 171.615 167.933 170.916C167.933 170.916 167.933 170.916 168.164 170.684C168.856 169.986 169.548 169.287 170.24 168.589C171.162 167.658 171.854 166.727 172.546 165.796C172.776 165.564 173.007 165.331 173.007 165.098C173.007 165.098 173.007 164.866 173.237 164.866C173.468 164.633 173.699 164.167 173.929 163.935C173.929 163.935 173.929 163.702 174.16 163.702C174.16 163.469 174.391 163.236 174.391 163.236C174.391 163.004 174.621 163.004 174.621 162.771C174.621 162.538 174.852 162.538 174.852 162.306C175.082 162.073 175.082 161.84 175.313 161.607C175.313 161.607 175.313 161.375 175.544 161.375C175.544 161.142 175.774 160.909 175.774 160.676C175.774 160.676 175.774 160.444 176.005 160.444C176.235 160.211 176.235 159.978 176.466 159.746C176.466 159.28 176.235 159.28 176.235 159.513Z" fill="#EFCFA5"/>
<path d="M130.573 139.265C130.112 139.498 129.42 139.731 128.959 139.964C127.345 140.662 125.5 141.593 123.886 142.989C123.655 143.222 123.424 143.222 123.194 143.455C122.963 143.687 122.502 144.153 122.271 144.385C122.271 144.385 122.271 144.385 122.041 144.618C122.041 144.851 121.81 144.851 121.81 145.084C121.81 145.084 121.81 145.084 121.58 145.316C121.349 145.549 121.349 145.782 121.118 146.015C120.888 146.247 120.888 146.48 120.657 146.713C119.735 148.342 119.273 150.436 119.273 152.764C119.273 152.764 119.273 152.764 119.273 152.531V152.298V152.065V151.833V151.6V151.367C119.273 151.367 119.273 151.135 119.504 151.135C119.504 150.902 119.504 150.902 119.735 150.669C119.735 150.436 119.965 150.204 119.965 150.204C119.965 150.204 119.965 149.971 120.196 149.971C120.196 149.738 120.426 149.738 120.426 149.505C120.426 149.273 120.657 149.273 120.657 149.04L120.888 148.807C120.888 148.807 121.118 148.575 121.349 148.575C121.349 148.575 119.273 153.462 120.196 157.418C120.196 157.418 120.196 157.418 120.196 157.185V156.953V156.72V156.487V156.255C120.196 156.255 120.196 156.022 120.196 155.789C120.196 155.556 120.196 155.556 120.196 155.324C120.196 155.091 120.196 155.091 120.426 154.858C120.426 154.858 120.426 154.858 120.426 154.625C120.426 154.625 120.426 154.393 120.657 154.393C120.657 154.16 120.888 154.16 120.888 153.927C120.888 153.927 120.888 153.927 120.888 153.695C120.888 153.462 121.118 153.462 121.118 153.229C121.118 153.229 120.888 154.393 121.118 155.789C121.118 156.022 121.118 156.255 121.118 156.487C121.118 156.72 121.118 156.72 121.118 156.953C121.118 155.324 121.58 153.927 121.81 152.531C121.81 152.065 122.041 151.833 122.271 151.367C122.271 151.367 122.271 151.367 122.271 151.135C122.502 150.902 122.502 150.436 122.733 150.204V149.971C122.963 149.738 122.963 149.273 123.194 149.04C123.194 149.04 123.194 149.04 123.194 148.807C123.424 148.109 123.886 147.644 124.347 146.945C124.347 146.945 124.347 146.945 124.347 146.713C124.578 146.48 124.578 146.247 124.808 146.015C124.808 146.015 124.808 146.015 124.808 145.782C124.808 145.782 124.808 145.782 124.808 145.549C125.039 145.316 125.269 145.084 125.269 144.851C125.5 144.618 125.731 144.385 125.961 144.153C126.192 143.92 126.422 143.687 126.653 143.222C126.884 142.989 127.114 142.756 127.114 142.756L127.345 142.524C127.806 142.058 128.267 141.825 128.498 141.36C129.651 140.429 130.573 139.731 130.804 139.498C130.573 139.498 130.343 139.498 130.112 139.731C131.496 138.8 131.035 139.033 130.573 139.265Z" fill="#EFCFA5"/>
<path d="M159.401 128.327V128.095C159.171 127.396 158.479 125.767 155.712 126C152.714 126.233 151.791 128.56 151.561 129.491C151.561 129.724 151.561 129.724 151.561 129.724C152.022 129.491 152.714 129.491 153.175 129.956C153.405 130.189 153.636 130.422 153.867 130.655C154.097 131.12 154.097 131.353 154.097 131.818C154.097 131.818 154.097 132.051 153.867 132.051C153.867 132.051 153.867 132.051 154.097 132.051C155.02 132.284 157.095 132.749 158.248 131.12L158.479 130.887C158.248 130.655 158.018 130.422 158.018 129.956C158.018 129.724 158.018 129.491 158.018 129.258C158.479 128.56 158.94 128.095 159.401 128.327Z" fill="#EFCFA5"/>
<path d="M144.872 149.738C143.027 150.204 141.413 150.436 140.029 150.669H140.26C142.335 150.902 145.795 151.367 149.946 150.902C157.325 150.436 167.242 148.109 176.235 139.964C176.235 139.266 176.235 138.102 175.313 137.171C175.082 136.938 175.082 136.938 174.852 136.706C174.621 136.473 174.391 136.473 174.16 136.24C173.929 136.24 173.929 136.007 173.699 136.007C173.237 136.706 172.546 137.636 171.854 138.335C171.623 138.567 171.393 138.8 171.162 139.033C168.625 141.36 165.397 143.222 162.168 144.618C156.172 147.178 149.715 148.807 144.872 149.738Z" fill="#EFCFA5"/>
<path d="M97.5964 136.706L97.3658 136.938L97.1352 137.171C97.1352 137.404 96.9046 137.404 96.9046 137.636C96.9046 137.636 96.9046 137.869 96.674 137.869C96.674 138.102 96.4434 138.102 96.4434 138.335C96.2128 138.8 96.2128 139.033 95.9822 139.498C95.9822 139.731 95.9822 139.731 95.9822 139.731C95.9822 139.964 95.9822 140.196 95.7515 140.196C95.7515 139.964 95.7515 139.964 95.7515 139.731C95.7515 139.498 95.7515 139.266 95.7515 139.033C95.7515 138.8 95.7515 138.567 95.7515 138.335V138.102V137.869V137.636V137.404C95.7515 137.404 95.7515 137.404 95.7515 137.171C95.7515 137.171 95.7515 137.171 95.7515 136.938C95.7515 136.706 95.7515 136.706 95.9822 136.473C95.9822 136.24 95.9822 136.24 95.9822 136.007C95.9822 135.775 96.2128 135.542 96.2128 135.309V135.076C96.2128 135.076 96.2128 135.076 96.2128 134.844C96.4434 134.378 96.4434 134.146 96.674 133.68C96.674 133.447 96.9046 132.982 97.1352 132.749C97.1352 132.516 97.1352 132.516 97.3658 132.284C97.3658 132.051 97.5964 131.818 97.5964 131.586C97.5964 131.586 97.5964 131.353 97.8271 131.353V131.12C97.8271 131.12 97.8271 130.887 98.0577 130.887H97.8271C97.3658 130.655 96.9046 130.422 96.4434 130.422C96.2128 130.422 95.7515 130.189 95.5209 130.189C95.2903 130.189 95.0597 130.189 94.8291 130.189C94.5985 130.189 94.5985 130.189 94.3679 130.189C94.1373 130.189 93.9066 130.189 93.676 130.189H93.4454C93.2148 130.189 93.2148 130.189 92.9842 130.189C92.9842 130.189 92.9842 130.189 92.7536 130.189H92.523C92.2924 130.189 92.2924 130.189 92.0617 130.422H91.8311C91.6005 130.422 91.3699 130.655 91.1393 130.655C91.1393 130.655 90.9087 130.655 90.9087 130.887C90.9087 130.887 90.6781 130.887 90.6781 131.12L90.4475 131.353L90.2169 131.586L89.9862 131.818C89.9862 131.818 89.7556 131.818 89.7556 132.051C89.525 132.284 89.525 132.284 89.2944 132.516L89.0638 132.749C88.8332 132.982 88.8332 132.982 88.6026 133.215L88.372 133.447C88.372 133.447 88.372 133.447 88.1413 133.68C87.4495 133.68 87.2189 134.146 87.2189 134.611C87.2189 134.611 87.2189 134.611 87.2189 134.844C87.2189 135.076 86.9883 135.309 86.9883 135.542V135.775C86.9883 135.775 86.9883 135.775 86.9883 136.007C86.9883 136.24 86.9883 136.473 87.2189 136.473C87.2189 136.706 87.4495 136.706 87.4495 136.938C87.6801 137.404 87.9107 137.869 88.1413 138.335V138.567C88.372 138.8 88.372 139.033 88.6026 139.266C88.8332 139.731 89.0638 139.964 89.0638 139.964V139.731C88.8332 139.033 88.8332 138.567 88.8332 137.869C88.8332 137.404 88.8332 137.171 88.8332 136.706C88.8332 136.938 88.8332 136.938 89.0638 137.171C89.0638 137.404 89.2944 137.636 89.2944 137.869C89.7556 138.8 89.9862 139.498 90.4475 140.196C90.9087 140.895 91.1393 141.36 91.3699 141.593C91.3699 141.593 91.3699 141.593 91.3699 141.826C91.1393 141.127 91.1393 140.429 91.1393 139.731C91.1393 139.498 91.1393 139.266 91.1393 139.033C91.1393 138.8 91.1393 138.567 91.1393 138.102C91.3699 138.567 91.3699 139.033 91.6005 139.498C92.0618 140.895 92.7536 142.058 93.2148 142.756L93.4454 142.989C93.4454 142.989 93.4454 142.989 93.676 143.222C93.676 143.222 93.676 143.222 93.676 143.455V143.222C93.676 142.989 93.676 142.524 93.4454 142.291C93.4454 142.058 93.4454 141.826 93.4454 141.593C93.4454 141.36 93.4454 141.127 93.4454 140.895V140.662C93.4454 140.429 93.4454 140.196 93.4454 139.964C93.4454 140.196 93.4454 140.196 93.676 140.429C93.676 140.662 93.676 140.662 93.9066 140.895C93.9066 141.127 93.9066 141.127 94.1373 141.36C94.1373 141.593 94.3679 141.826 94.3679 142.058C94.5985 142.291 94.5985 142.524 94.8291 142.756C94.8291 142.989 95.0597 142.989 95.0597 143.222C95.0597 143.455 95.2903 143.455 95.2903 143.687C95.2903 143.92 95.5209 143.92 95.5209 143.92L95.7515 144.153C95.7515 144.153 95.7515 144.153 95.7515 144.386L95.9822 144.618C95.9822 144.618 95.9822 144.618 95.9822 144.386C95.9822 143.92 95.9822 143.455 96.2128 143.222C96.2128 143.222 96.2128 143.222 96.2128 142.989C96.2128 142.524 96.4434 142.058 96.4434 141.593V141.36C96.4434 141.36 96.4434 141.36 96.4434 141.127V140.895C96.4434 140.429 96.674 140.196 96.674 139.731C96.674 139.498 96.9046 139.033 96.9046 138.8C96.9046 138.8 96.9046 138.8 96.9046 138.567C96.9046 138.567 96.9046 138.567 96.9046 138.335V138.102V137.869V137.636V137.404V137.171C96.9046 137.171 96.9046 137.171 96.9046 136.938C97.5964 136.938 97.5964 136.938 97.5964 136.706Z" fill="#EFCFA5"/>
<path d="M158.017 157.884C158.709 157.651 159.401 157.418 159.862 157.185C160.784 156.72 161.246 156.487 161.246 156.487C161.246 156.487 160.554 156.487 159.631 156.72C159.17 156.953 158.478 156.953 157.786 157.185C157.325 157.185 157.095 157.418 156.633 157.418C156.172 157.418 155.711 157.651 155.25 157.651C154.327 157.884 153.405 157.884 152.252 158.116C151.79 158.116 151.099 158.116 150.637 158.349C150.176 158.349 149.484 158.349 148.793 158.349C146.486 158.349 143.719 158.349 140.952 157.884C139.568 157.651 137.723 156.953 136.339 156.255C137.031 153.462 140.029 152.996 140.029 152.996C140.029 152.996 140.029 152.996 139.799 152.996C139.337 152.996 138.876 152.996 138.646 152.764C138.415 152.764 138.184 152.764 137.954 152.764C137.723 152.764 137.723 152.764 137.493 152.764C135.648 152.531 134.725 154.16 134.495 154.858C134.495 154.858 134.495 155.091 134.264 155.091C134.033 155.789 133.803 156.487 133.803 157.185C133.803 158.582 134.033 159.978 135.186 161.375C135.878 162.305 137.031 163.004 138.646 163.469C137.262 162.538 136.109 160.909 136.109 158.349C137.723 159.047 139.337 159.513 140.721 159.745C143.488 160.211 146.256 160.444 148.793 160.211C149.484 160.211 149.946 160.211 150.637 159.978C151.329 159.978 151.79 159.745 152.252 159.745C153.405 159.513 154.327 159.28 155.25 159.28C155.711 159.28 156.172 159.047 156.633 159.047C157.325 157.884 157.786 157.884 158.017 157.884Z" fill="#EFCFA5"/>
<path d="M155.711 124.138C157.095 124.138 158.248 124.604 158.94 125.302C159.17 124.604 159.17 123.905 159.17 122.975C159.17 122.044 158.94 121.113 158.709 120.415C158.709 119.949 158.017 119.018 157.325 119.018C156.403 119.018 155.711 120.88 155.711 123.207C155.711 123.44 155.711 123.673 155.711 124.138Z" fill="#59473C"/>
<path d="M158.248 129.724C158.248 130.189 158.479 130.422 158.709 130.655C159.17 130.887 159.401 130.422 159.632 129.724C159.632 129.724 159.632 129.724 159.632 129.491C159.862 128.793 159.632 128.327 159.401 128.095C158.94 127.862 158.709 128.327 158.479 129.026C158.248 129.258 158.248 129.491 158.248 129.724Z" fill="#59473C"/>
<path d="M151.561 130.887C151.791 131.12 152.022 131.353 152.252 131.585C152.944 132.051 153.636 132.051 153.867 131.585C153.867 131.585 153.867 131.585 154.097 131.353C154.328 131.12 154.097 130.655 153.867 130.189C153.636 129.956 153.405 129.724 153.175 129.491C152.483 129.025 151.791 129.025 151.561 129.258C151.561 129.258 151.561 129.258 151.33 129.491C151.099 130.189 151.33 130.422 151.561 130.887Z" fill="#59473C"/>
<path d="M175.544 154.16C174.622 155.091 173.469 156.022 172.316 156.72C167.242 160.211 160.093 163.004 154.789 163.702C150.869 164.4 147.179 164.4 143.95 163.935C142.105 163.702 140.491 163.236 138.877 162.771C137.262 162.073 136.109 161.375 135.418 160.676C134.495 159.513 134.034 157.884 134.034 156.487C134.034 155.789 134.265 155.091 134.495 154.393C134.495 154.393 134.495 154.16 134.726 154.16C134.956 153.462 136.109 152.065 137.954 152.065C137.954 152.065 138.185 152.065 138.416 152.065C138.646 152.065 138.877 152.065 139.107 152.065C139.338 152.065 139.799 152.065 140.26 152.298C140.26 152.298 140.26 152.298 140.491 152.298C145.334 152.996 150.177 152.764 154.789 152.065C161.246 151.135 167.473 148.807 172.777 145.084C173.007 144.851 173.238 144.618 173.699 144.385L176.697 139.964C167.703 148.109 158.018 150.436 150.407 150.902C146.256 151.135 142.797 150.902 140.722 150.669H140.491C139.799 150.669 139.338 150.436 138.877 150.436C138.646 150.436 138.646 150.436 138.416 150.436C137.954 150.436 137.262 150.436 136.801 150.669C135.879 150.902 134.956 151.6 134.265 152.531C133.573 153.695 132.881 155.091 132.881 156.72C132.881 157.884 133.111 159.28 133.803 160.444C133.803 160.444 133.803 160.444 133.803 160.676C133.803 160.909 134.034 160.909 134.034 161.142C134.265 161.375 134.265 161.375 134.495 161.607C136.109 163.469 139.338 165.098 143.95 165.564C146.948 166.029 150.638 166.029 154.328 165.331C165.628 163.236 171.162 159.513 173.699 156.953C173.93 156.72 174.16 156.487 174.16 156.487C174.852 155.324 175.314 154.625 175.544 154.16C175.544 154.16 175.544 153.927 175.544 154.16Z" fill="#59473C"/>
<path d="M139.337 114.364C138.876 114.131 138.645 114.131 138.184 113.898C137.953 113.898 137.723 113.898 137.492 113.666H137.261C135.878 113.433 134.725 113.666 134.725 113.666C134.494 113.666 134.263 113.898 134.033 113.898C132.188 114.364 131.035 115.295 130.112 116.458C129.421 117.389 128.959 118.32 128.729 119.251V119.484C128.729 119.716 128.498 119.949 128.498 120.182C128.268 120.88 128.268 121.811 128.268 122.276C128.268 122.975 128.268 123.673 128.268 123.673C128.498 122.975 128.959 122.276 129.19 121.811C130.112 120.415 131.035 119.251 131.957 118.087C133.802 116.226 135.647 115.295 137.031 114.829C138.184 114.364 139.337 114.364 139.337 114.364Z" fill="#E1B27E"/>
<path d="M160.783 111.571C160.553 111.338 160.322 111.106 160.091 110.873C159.4 110.407 158.477 110.175 157.093 110.407C157.093 110.407 155.479 110.873 154.557 111.804C154.557 111.804 157.324 110.64 160.091 112.735C160.322 112.967 160.553 113.2 160.783 113.433C161.014 113.666 161.244 113.898 161.475 114.364C161.936 114.131 161.706 112.967 160.783 111.571C161.014 111.804 161.014 111.804 160.783 111.571Z" fill="#E1B27E"/>
<path d="M139.569 131.818C140.722 131.586 141.644 131.12 143.028 130.887C143.259 129.956 143.259 128.793 143.028 127.396C142.797 124.371 141.414 122.276 140.03 122.276C138.646 122.509 137.955 125.069 138.416 127.862C138.646 129.491 139.108 130.887 139.569 131.818Z" fill="#59473C"/>
<path d="M133.572 65.7238L130.805 66.422L131.497 71.3092L124.348 67.8183L121.35 68.7492L130.113 78.7565C130.574 78.291 131.035 78.291 131.266 78.0583L131.497 77.8256C131.958 77.5929 132.188 77.3601 132.65 77.1274L128.96 72.9383L134.956 75.9638C135.186 75.9638 135.417 75.731 135.417 75.731L134.956 71.542L137.723 74.8001C137.954 74.5674 138.184 74.5674 138.415 74.5674C138.415 74.5674 138.415 74.5674 138.646 74.5674C138.646 74.5674 138.876 74.5674 138.876 74.3347C139.107 74.102 139.568 74.102 139.799 73.8692L133.572 65.7238Z" fill="#FACE55"/>
<path d="M131.035 66.4219H131.496C130.804 66.1891 130.112 65.9564 129.19 65.7237C127.345 65.4909 125.039 65.7237 122.502 66.4219C119.966 67.12 116.968 68.2837 113.739 69.9128C107.512 72.9382 100.594 77.8255 93.9064 83.8764C91.6002 85.9709 89.5247 88.2982 87.4492 90.3928L95.5206 100.4C97.5962 98.0728 100.133 95.5128 102.67 93.1855C106.129 89.9273 109.588 87.1346 113.047 84.8073C116.506 82.48 119.735 80.3855 122.964 78.7564L121.58 72.4728V68.7491L124.347 67.8182L130.112 70.8437L129.882 68.7491L131.035 66.4219Z" fill="#4D94C3"/>
<path d="M131.036 66.4218L130.113 68.7491L130.344 70.8437L131.497 71.3091L131.036 66.4218Z" fill="#141B26"/>
<path d="M128.959 72.9382L134.955 75.9637L132.649 77.3601L128.959 72.9382Z" fill="#141B26"/>
<path d="M134.955 71.0764L135.416 75.2655L137.492 74.1018L134.955 71.0764Z" fill="#141B26"/>
<path d="M157.556 69.68C158.018 69.68 158.248 69.68 158.709 69.68C159.632 69.68 160.554 69.9127 161.477 70.1454C161.477 70.1454 161.477 70.1454 161.707 70.1454L161.477 69.9127C160.554 69.4473 159.401 69.2145 158.248 69.2145C152.944 68.5163 146.717 70.6109 143.028 72.0073C142.797 72.0073 142.566 72.24 142.336 72.24C142.105 72.4727 141.644 72.4727 141.413 72.7054C140.952 72.9382 140.491 73.1709 139.799 73.4036H139.569C139.338 73.6363 138.877 73.6363 138.646 73.8691C138.646 73.8691 138.415 73.8691 138.415 74.1018C138.415 74.1018 138.415 74.1018 138.185 74.1018C137.954 74.1018 137.724 74.3345 137.493 74.3345C137.493 74.3345 137.493 74.3345 137.262 74.3345C137.262 74.3345 137.262 74.3345 137.032 74.3345C136.571 74.5673 136.34 74.8 135.879 74.8C135.648 75.0327 135.417 75.0327 135.187 75.2654C134.956 75.2654 134.726 75.4982 134.726 75.4982C134.034 75.7309 133.573 76.1963 132.881 76.4291H132.65C132.65 76.4291 132.65 76.4291 132.42 76.4291C132.42 76.4291 132.42 76.4291 132.189 76.4291C131.728 76.6618 131.497 76.8945 131.036 77.1273L130.805 77.36C131.036 78.2909 130.575 78.2909 130.344 78.5236C129.652 78.9891 128.73 79.4545 128.038 79.92C126.654 81.0836 125.501 81.7818 124.348 82.7127C124.117 82.9454 124.117 82.9454 123.887 83.1782C120.658 85.5054 117.66 88.0654 114.893 90.8582C111.895 93.6509 108.897 96.6763 106.13 99.4691C104.746 100.865 103.362 102.262 102.209 103.425C100.134 105.753 98.9808 107.149 98.9808 107.149C98.9808 107.149 99.2114 106.916 99.442 106.684C99.2114 106.916 98.9808 107.382 98.5195 107.615C103.132 102.727 108.205 97.6073 113.509 92.9527C116.738 90.16 120.197 87.3673 123.887 84.8073C125.501 83.6436 127.115 82.48 128.73 81.5491C129.191 81.3163 129.652 80.8509 130.344 80.6182C130.575 80.3854 130.805 80.3854 131.036 80.1527C131.266 80.1527 131.266 79.92 131.497 79.92C131.728 79.6873 131.958 79.6873 132.42 79.4545C132.65 79.2218 132.881 79.2218 133.342 78.9891C133.573 78.5236 133.573 78.5236 133.803 78.2909C134.034 78.0582 134.495 77.8254 134.956 77.5927C135.187 77.5927 135.417 77.36 135.648 77.36C136.34 76.8945 137.032 76.6618 137.724 76.1963C137.724 76.1963 137.724 76.1963 137.954 76.1963C137.954 76.1963 138.185 76.1963 138.185 75.9636C137.954 75.9636 138.185 75.9636 138.185 75.9636C138.185 75.9636 138.185 75.9636 138.415 75.9636C138.415 75.9636 138.646 75.9636 138.646 75.7309C138.877 75.4982 139.338 75.4982 139.569 75.2654C139.569 75.2654 139.569 75.2654 139.799 75.2654C139.799 75.2654 140.03 75.2654 140.03 75.0327C140.26 74.8 140.722 74.8 140.952 74.5673C140.952 74.5673 141.183 74.5673 141.183 74.3345C141.183 74.3345 141.183 74.3345 141.413 74.3345C141.413 74.3345 141.644 74.3345 141.644 74.1018C142.105 73.8691 142.336 73.8691 142.797 73.6363C143.028 73.4036 143.489 73.4036 143.72 73.1709C145.564 72.4727 147.409 71.7745 149.024 71.0763C152.483 70.1454 155.25 69.68 157.556 69.68Z" fill="white"/>
</svg>
