<svg width="250" height="250" viewBox="0 0 250 250" fill="none" xmlns="http://www.w3.org/2000/svg">
<g clip-path="url(#clip0_977_1403)">
<path d="M124.999 112.366C131.978 112.366 137.635 118.022 137.635 124.999C137.635 131.978 131.978 137.635 124.999 137.635C118.022 137.635 112.365 131.977 112.365 124.999C112.365 118.022 118.022 112.366 124.999 112.366V112.366ZM81.9488 124.999C81.9488 101.223 101.223 81.9494 124.999 81.9494C148.778 81.9494 168.051 101.223 168.051 124.999C168.051 126.574 167.967 128.126 167.802 129.653C167.475 133.85 170.555 137.054 174.725 137.054C181.802 137.054 182.556 127.929 182.556 124.999C182.556 93.2102 156.788 67.4424 124.999 67.4424C93.2102 67.4424 67.4424 93.2108 67.4424 124.999C67.4424 156.786 93.2102 182.555 124.998 182.555C141.881 182.555 157.065 175.291 167.594 163.715L179.427 173.651C166.061 188.592 146.628 198.002 124.999 198.002C84.6823 198.002 52 165.317 52 124.999C52 84.6823 84.6823 52 124.999 52C165.318 52 198 84.6823 198 125C198 141.205 190.284 154.365 174.785 154.365C167.964 154.365 163.818 151.24 161.554 147.752C153.951 159.938 140.425 168.053 124.999 168.053C101.223 168.053 81.9488 148.776 81.9488 125V124.999ZM124.999 97.3906C109.752 97.3906 97.39 109.751 97.39 124.999C97.39 140.248 109.752 152.609 124.999 152.609C140.247 152.609 152.609 140.248 152.609 124.999C152.609 109.751 140.247 97.3906 124.999 97.3906Z" fill="#AF252A"/>
</g>
<defs>
<clipPath id="clip0_977_1403">
<rect width="146" height="146" fill="white" transform="translate(52 52)"/>
</clipPath>
</defs>
</svg>
