<?xml version="1.0" standalone="yes"?>
<svg xmlns="http://www.w3.org/2000/svg" width="92" height="92">
<path style="fill:#fefdfd; stroke:none;" d="M0 0L0 38L1 38C3.69063 19.781 19.6785 3.47928 38 1C27.9641 -3.21126 10.9106 0 0 0z"/>
<path style="fill:#d49e9f; stroke:none;" d="M38 0L38 1L41 1L38 0z"/>
<path style="fill:#bf6163; stroke:none;" d="M41.6667 0.333336L42.3333 0.666664L41.6667 0.333336z"/>
<path style="fill:#af252b; stroke:none;" d="M29 3L21 7L20 10L18 9L9 18L10 20L7 21L3 29L0.28858 46L3 63L7 71L10 72L9 74L18 83L20 82L21 85L29 89L46 91.7917L63 89L71 85L72 82L74 83C77.3043 78.1027 77.0572 75.9523 74 71L58 80C52.634 84.3343 39.366 84.3343 34 80C24.815 79.8419 12.1691 67.1902 12 58C7.66566 52.634 7.66566 39.366 12 34C12.5832 24.5014 24.5134 12.6226 34 12C39.366 7.66566 52.634 7.66566 58 12C67.4279 12.5853 79.3824 24.589 80 34C84.4634 39.5257 82.611 47.6513 81 54C71.8851 53.5712 70.6881 43.1867 71 35L69 31L61 23L57 21L35 21L31 23L23 31L21 35L21 57L23 61L31 69L35 71L57 71L61 69L70 60L82 64L86 62L88 60L87 58L90 57L91 54L89 29L85 21L82 20L83 18L74 9L72 10L71 7L63 3L46 0.288582L29 3z"/>
<path style="fill:#bf6163; stroke:none;" d="M48 0L48 1L51 1L48 0z"/>
<path style="fill:#d49e9f; stroke:none;" d="M51 0L51 1L54 1L51 0z"/>
<path style="fill:#fefdfd; stroke:none;" d="M54 0L54 1C72.279 3.47353 88.3176 19.8363 91 38L92 38L92 0L54 0z"/>
<path style="fill:#d49e9f; stroke:none;" d="M34 1L35 2L34 1z"/>
<path style="fill:#bf6163; stroke:none;" d="M35 1L36 2L35 1z"/>
<path style="fill:#ab0a10; stroke:none;" d="M37 1L37 2L41 2L37 1M51 1L51 2L55 2L51 1z"/>
<path style="fill:#bf6163; stroke:none;" d="M56 1L57 2L56 1z"/>
<path style="fill:#d49e9f; stroke:none;" d="M57 1L58 2L57 1M30 2L31 3L30 2z"/>
<path style="fill:#bf6163; stroke:none;" d="M31 2L32 3L31 2z"/>
<path style="fill:#ab0a10; stroke:none;" d="M32 2L32 3L35 3L32 2M57 2L57 3L62 4L62 3L57 2z"/>
<path style="fill:#bf6163; stroke:none;" d="M60 2L61 3L60 2z"/>
<path style="fill:#d49e9f; stroke:none;" d="M61 2L62 3L61 2M28 3L29 4L28 3z"/>
<path style="fill:#ab0a10; stroke:none;" d="M30.6667 3.33334L31.3333 3.66666L30.6667 3.33334z"/>
<path style="fill:#d49e9f; stroke:none;" d="M63 3L64 4L63 3z"/>
<path style="fill:#bf6163; stroke:none;" d="M26 4L27 5L26 4z"/>
<path style="fill:#ab0a10; stroke:none;" d="M27.6667 4.33334L28.3333 4.66666L27.6667 4.33334M63 4L63 5L70 8L70 7L63 4z"/>
<path style="fill:#bf6163; stroke:none;" d="M65 4L66 5L65 4M24 5L25 6L24 5z"/>
<path style="fill:#ab0a10; stroke:none;" d="M25.6667 5.33334L26.3333 5.66666L25.6667 5.33334z"/>
<path style="fill:#d49e9f; stroke:none;" d="M67 5L68 6L67 5M22 6L23 7L22 6z"/>
<path style="fill:#ab0a10; stroke:none;" d="M23.6667 6.33334L24.3333 6.66666L23.6667 6.33334z"/>
<path style="fill:#d49e9f; stroke:none;" d="M69 6L70 7L69 6M20 7L19 9L20 7z"/>
<path style="fill:#ab0a10; stroke:none;" d="M22 7L23 8L22 7M20 8L21 9L20 8M71 8L73 10L71 8z"/>
<path style="fill:#d49e9f; stroke:none;" d="M72 8L73 9L72 8z"/>
<path style="fill:#ab0a10; stroke:none;" d="M19 9L20 10L19 9M38 9L38 10L41 10L38 9z"/>
<path style="fill:#bf6163; stroke:none;" d="M42 9L42 10L50 10L42 9z"/>
<path style="fill:#ab0a10; stroke:none;" d="M51 9L51 10L54 10L51 9M34 10L34 11L37 11L34 10z"/>
<path style="fill:#bf6163; stroke:none;" d="M37 10L38 11L37 10z"/>
<path style="fill:#d49e9f; stroke:none;" d="M38 10L39 11L38 10z"/>
<path style="fill:#fefdfd; stroke:none;" d="M54 91L54 92L92 92L92 52L91 52C88.3523 65.1225 77.8073 64.9153 68 61C54.7374 79.6699 23.5657 75.1194 19.3287 51C15.7726 30.7567 37.7842 11.7702 57 21.3781C71.2035 28.4798 68.4637 38.0985 73.6034 49.8519C74.928 52.8809 78.8951 53.5435 80.821 50.6813C88.6827 38.9976 73.2449 19.7664 64 14.5255C33.9252 -2.52386 -0.724959 29.7047 13.0432 61C16.2569 68.3048 21.9193 74.3328 29 78.0154C38.5031 82.9579 50.1075 83.4158 60 79.3735C64.4759 77.5445 72.1637 69.42 76.7037 74.2824C83.679 81.7531 58.9489 90.3303 54 91z"/>
<path style="fill:#d49e9f; stroke:none;" d="M53 10L54 11L53 10z"/>
<path style="fill:#bf6163; stroke:none;" d="M54 10L55 11L54 10z"/>
<path style="fill:#ab0a10; stroke:none;" d="M55 10L55 11L58 11L55 10z"/>
<path style="fill:#d49e9f; stroke:none;" d="M15 11L11 16L15 11z"/>
<path style="fill:#ab0a10; stroke:none;" d="M16 11L17 12L16 11M32 11L33 12L32 11z"/>
<path style="fill:#d49e9f; stroke:none;" d="M34 11L35 12L34 11M57 11L58 12L57 11z"/>
<path style="fill:#ab0a10; stroke:none;" d="M59 11L60 12L59 11M75 11L81 17L75 11z"/>
<path style="fill:#d49e9f; stroke:none;" d="M76 11L77 12L76 11z"/>
<path style="fill:#ab0a10; stroke:none;" d="M15 12L16 13L15 12M30 12L31 13L30 12z"/>
<path style="fill:#bf6163; stroke:none;" d="M31 12L32 13L31 12z"/>
<path style="fill:#d49e9f; stroke:none;" d="M32 12L33 13L32 12M59 12L60 13L59 12z"/>
<path style="fill:#bf6163; stroke:none;" d="M60 12L61 13L60 12z"/>
<path style="fill:#ab0a10; stroke:none;" d="M61 12L62 13L61 12z"/>
<path style="fill:#d49e9f; stroke:none;" d="M77 12L78 13L77 12z"/>
<path style="fill:#ab0a10; stroke:none;" d="M14 13L15 14L14 13M28 13L29 14L28 13z"/>
<path style="fill:#bf6163; stroke:none;" d="M29 13L30 14L29 13M62 13L63 14L62 13z"/>
<path style="fill:#ab0a10; stroke:none;" d="M63 13L64 14L63 13z"/>
<path style="fill:#d49e9f; stroke:none;" d="M78 13L79 14L78 13z"/>
<path style="fill:#ab0a10; stroke:none;" d="M13 14L14 15L13 14M26 14L21 19L27 15L26 14z"/>
<path style="fill:#bf6163; stroke:none;" d="M27 14L28 15L27 14M64 14L65 15L64 14z"/>
<path style="fill:#ab0a10; stroke:none;" d="M65 14L67 16L65 14z"/>
<path style="fill:#d49e9f; stroke:none;" d="M79 14L80 15L79 14z"/>
<path style="fill:#ab0a10; stroke:none;" d="M12 15L13 16L12 15z"/>
<path style="fill:#d49e9f; stroke:none;" d="M26 15L27 16L26 15M65 15L66 16L65 15M80 15L81 16L80 15z"/>
<path style="fill:#ab0a10; stroke:none;" d="M11 16L12 17L11 16z"/>
<path style="fill:#bf6163; stroke:none;" d="M24 16L25 17L24 16M67 16L68 17L67 16z"/>
<path style="fill:#ab0a10; stroke:none;" d="M68 16L71 19L68 16z"/>
<path style="fill:#d49e9f; stroke:none;" d="M23 17L24 18L23 17M68 17L69 18L68 17M22 18L23 19L22 18M69 18L70 19L69 18M8 19L9 20L8 19z"/>
<path style="fill:#ab0a10; stroke:none;" d="M9 19L10 20L9 19M20 19L21 20L20 19z"/>
<path style="fill:#d49e9f; stroke:none;" d="M39.6667 19.3333L40.3333 19.6667L39.6667 19.3333z"/>
<path style="fill:#bf6163; stroke:none;" d="M41.6667 19.3333L42.3333 19.6667L41.6667 19.3333z"/>
<path style="fill:#ab0a10; stroke:none;" d="M45.6667 19.3333L46.3333 19.6667L45.6667 19.3333z"/>
<path style="fill:#bf6163; stroke:none;" d="M49.6667 19.3333L50.3333 19.6667L49.6667 19.3333z"/>
<path style="fill:#d49e9f; stroke:none;" d="M51.6667 19.3333L52.3333 19.6667L51.6667 19.3333z"/>
<path style="fill:#ab0a10; stroke:none;" d="M71 19L72 20L71 19M82 19L84 21L82 19z"/>
<path style="fill:#d49e9f; stroke:none;" d="M83 19L84 20L83 19z"/>
<path style="fill:#ab0a10; stroke:none;" d="M8 20L9 21L8 20M19 20L20 21L19 20z"/>
<path style="fill:#d49e9f; stroke:none;" d="M36 20L37 21L36 20z"/>
<path style="fill:#bf6163; stroke:none;" d="M37 20L38 21L37 20z"/>
<path style="fill:#ab0a10; stroke:none;" d="M38 20L38 21L41 21L38 20M51 20L51 21L54 21L51 20z"/>
<path style="fill:#bf6163; stroke:none;" d="M54 20L55 21L54 20z"/>
<path style="fill:#d49e9f; stroke:none;" d="M55 20L56 21L55 20z"/>
<path style="fill:#ab0a10; stroke:none;" d="M72 20L73 21L72 20M18 21L14 27L15 27L18 21z"/>
<path style="fill:#d49e9f; stroke:none;" d="M34 21L35 22L34 21z"/>
<path style="fill:#ab0a10; stroke:none;" d="M36 21L37 22L36 21M55 21L56 22L55 21z"/>
<path style="fill:#d49e9f; stroke:none;" d="M57 21L58 22L57 21z"/>
<path style="fill:#ab0a10; stroke:none;" d="M73 21L77 27L78 27L73 21z"/>
<path style="fill:#d49e9f; stroke:none;" d="M6 22L7 23L6 22z"/>
<path style="fill:#ab0a10; stroke:none;" d="M7 22L8 23L7 22z"/>
<path style="fill:#d49e9f; stroke:none;" d="M18 22L19 23L18 22M32 22L33 23L32 22z"/>
<path style="fill:#ab0a10; stroke:none;" d="M33.6667 22.3333L34.3333 22.6667L33.6667 22.3333M57 22L57 23L60 24L57 22z"/>
<path style="fill:#d49e9f; stroke:none;" d="M59 22L60 23L59 22M73 22L74 23L73 22z"/>
<path style="fill:#ab0a10; stroke:none;" d="M84 22L87 29L88 29L84 22z"/>
<path style="fill:#d49e9f; stroke:none;" d="M85 22L86 23L85 22z"/>
<path style="fill:#ab0a10; stroke:none;" d="M6 23L4 29L5 29L6 23z"/>
<path style="fill:#d49e9f; stroke:none;" d="M17 23L18 24L17 23z"/>
<path style="fill:#ab0a10; stroke:none;" d="M32 23L33 24L32 23z"/>
<path style="fill:#d49e9f; stroke:none;" d="M74 23L75 24L74 23z"/>
<path style="fill:#bf6163; stroke:none;" d="M5 24L6 25L5 24M16 24L17 25L16 24z"/>
<path style="fill:#d49e9f; stroke:none;" d="M29 24L30 25L29 24z"/>
<path style="fill:#ab0a10; stroke:none;" d="M30 24L31 25L30 24M61 24L68 31L61 24z"/>
<path style="fill:#d49e9f; stroke:none;" d="M62 24L63 25L62 24z"/>
<path style="fill:#bf6163; stroke:none;" d="M75 24L76 25L75 24M86 24L87 25L86 24M28 25L25 29L28 25z"/>
<path style="fill:#ab0a10; stroke:none;" d="M29 25L30 26L29 25z"/>
<path style="fill:#bf6163; stroke:none;" d="M63 25L64 26L63 25M4 26L5 27L4 26z"/>
<path style="fill:#d49e9f; stroke:none;" d="M15 26L16 27L15 26z"/>
<path style="fill:#ab0a10; stroke:none;" d="M28 26L29 27L28 26z"/>
<path style="fill:#bf6163; stroke:none;" d="M64 26L65 27L64 26z"/>
<path style="fill:#d49e9f; stroke:none;" d="M76 26L77 27L76 26z"/>
<path style="fill:#bf6163; stroke:none;" d="M87 26L88 27L87 26M14 27L15 28L14 27z"/>
<path style="fill:#ab0a10; stroke:none;" d="M27 27L28 28L27 27M44 27L44 28L48 28L44 27z"/>
<path style="fill:#bf6163; stroke:none;" d="M65 27L66 28L65 27M77 27L78 28L77 27z"/>
<path style="fill:#d49e9f; stroke:none;" d="M3 28L4 29L3 28z"/>
<path style="fill:#ab0a10; stroke:none;" d="M13 28L14 29L13 28M26 28L27 29L26 28M40 28L40 29L43 29L40 28z"/>
<path style="fill:#bf6163; stroke:none;" d="M43 28L44 29L43 28z"/>
<path style="fill:#d49e9f; stroke:none;" d="M44 28L44 29L48 29L44 28z"/>
<path style="fill:#bf6163; stroke:none;" d="M48 28L49 29L48 28z"/>
<path style="fill:#ab0a10; stroke:none;" d="M49 28L49 29L52 29L49 28z"/>
<path style="fill:#bf6163; stroke:none;" d="M66 28L67 29L66 28z"/>
<path style="fill:#ab0a10; stroke:none;" d="M78 28L79 29L78 28z"/>
<path style="fill:#d49e9f; stroke:none;" d="M88 28L89 29L88 28z"/>
<path style="fill:#bf6163; stroke:none;" d="M13 29L14 30L13 29z"/>
<path style="fill:#d49e9f; stroke:none;" d="M24 29L25 30L24 29z"/>
<path style="fill:#ab0a10; stroke:none;" d="M25 29L26 30L25 29M38 29L39 30L38 29z"/>
<path style="fill:#bf6163; stroke:none;" d="M39 29L40 30L39 29z"/>
<path style="fill:#d49e9f; stroke:none;" d="M40 29L41 30L40 29z"/>
<path style="fill:#fefdfd; stroke:none;" d="M41 29.5579C19.6067 35.1711 29.4977 68.084 51 62.4421C72.3932 56.8289 62.5023 23.916 41 29.5579z"/>
<path style="fill:#d49e9f; stroke:none;" d="M51 29L52 30L51 29z"/>
<path style="fill:#bf6163; stroke:none;" d="M52 29L53 30L52 29z"/>
<path style="fill:#ab0a10; stroke:none;" d="M53 29L54 30L53 29z"/>
<path style="fill:#d49e9f; stroke:none;" d="M67 29L68 30L67 29z"/>
<path style="fill:#bf6163; stroke:none;" d="M78 29L79 30L78 29z"/>
<path style="fill:#ab0a10; stroke:none;" d="M3 30L2 35L3 35L3 30M12 30L13 31L12 30M24 30L25 31L24 30M36 30L35 32L36 30z"/>
<path style="fill:#bf6163; stroke:none;" d="M37 30L38 31L37 30M54 30L55 31L54 30z"/>
<path style="fill:#ab0a10; stroke:none;" d="M55 30L57 32L55 30M79 30L80 31L79 30M88 30L89 35L90 35L88 30z"/>
<path style="fill:#bf6163; stroke:none;" d="M2 31L3 32L2 31M12 31L13 32L12 31z"/>
<path style="fill:#d49e9f; stroke:none;" d="M36 31L37 32L36 31M55 31L56 32L55 31z"/>
<path style="fill:#bf6163; stroke:none;" d="M79 31L80 32L79 31M89 31L90 32L89 31z"/>
<path style="fill:#ab0a10; stroke:none;" d="M11 32L12 33L11 32z"/>
<path style="fill:#d49e9f; stroke:none;" d="M12 32L13 33L12 32M22 32L23 33L22 32z"/>
<path style="fill:#ab0a10; stroke:none;" d="M23 32L24 33L23 32M33 32L32 34L33 32M58 32L60 34L58 32M68 32L69 35L70 35L68 32z"/>
<path style="fill:#d49e9f; stroke:none;" d="M69 32L70 33L69 32M79 32L80 33L79 32z"/>
<path style="fill:#ab0a10; stroke:none;" d="M80 32L81 33L80 32M22.3333 33.6667L22.6667 34.3333L22.3333 33.6667z"/>
<path style="fill:#bf6163; stroke:none;" d="M33 33L34 34L33 33M58 33L59 34L58 33z"/>
<path style="fill:#d49e9f; stroke:none;" d="M1 34L2 35L1 34z"/>
<path style="fill:#ab0a10; stroke:none;" d="M10 34L10 37L11 37L10 34z"/>
<path style="fill:#d49e9f; stroke:none;" d="M11 34L12 35L11 34M21 34L22 35L21 34M70 34L71 35L70 34M80 34L81 35L80 34z"/>
<path style="fill:#ab0a10; stroke:none;" d="M81 34L81 37L82 37L81 34z"/>
<path style="fill:#d49e9f; stroke:none;" d="M90 34L91 35L90 34z"/>
<path style="fill:#bf6163; stroke:none;" d="M1 35L2 36L1 35z"/>
<path style="fill:#ab0a10; stroke:none;" d="M31 35L30 37L31 35M60 35L62 37L60 35z"/>
<path style="fill:#bf6163; stroke:none;" d="M90 35L91 36L90 35z"/>
<path style="fill:#d49e9f; stroke:none;" d="M20 36L21 37L20 36z"/>
<path style="fill:#ab0a10; stroke:none;" d="M21 36L22 37L21 36z"/>
<path style="fill:#d49e9f; stroke:none;" d="M31 36L32 37L31 36M60 36L61 37L60 36z"/>
<path style="fill:#ab0a10; stroke:none;" d="M70 36L71 37L70 36z"/>
<path style="fill:#d49e9f; stroke:none;" d="M71 36L72 37L71 36z"/>
<path style="fill:#ab0a10; stroke:none;" d="M1 37L1 41L2 41L1 37z"/>
<path style="fill:#bf6163; stroke:none;" d="M10 37L11 38L10 37M20 37L21 38L20 37M30 37L31 38L30 37M61 37L62 38L61 37M71 37L72 38L71 37M81 37L82 38L81 37z"/>
<path style="fill:#ab0a10; stroke:none;" d="M90 37L90 41L91 41L90 37z"/>
<path style="fill:#d49e9f; stroke:none;" d="M0 38L0 41L1 41L0 38z"/>
<path style="fill:#ab0a10; stroke:none;" d="M9 38L9 41L10 41L9 38z"/>
<path style="fill:#d49e9f; stroke:none;" d="M10 38L11 39L10 38z"/>
<path style="fill:#ab0a10; stroke:none;" d="M20 38L20 41L21 41L20 38M29 38L30 39L29 38z"/>
<path style="fill:#d49e9f; stroke:none;" d="M43 38L44 39L43 38z"/>
<path style="fill:#bf6163; stroke:none;" d="M44 38L45 39L44 38z"/>
<path style="fill:#ab0a10; stroke:none;" d="M45.6667 38.3333L46.3333 38.6667L45.6667 38.3333z"/>
<path style="fill:#bf6163; stroke:none;" d="M47 38L48 39L47 38z"/>
<path style="fill:#d49e9f; stroke:none;" d="M48 38L49 39L48 38z"/>
<path style="fill:#ab0a10; stroke:none;" d="M62 38L63 39L62 38M71 38L71 41L72 41L71 38z"/>
<path style="fill:#d49e9f; stroke:none;" d="M81 38L82 39L81 38z"/>
<path style="fill:#ab0a10; stroke:none;" d="M82 38L82 41L83 41L82 38z"/>
<path style="fill:#d49e9f; stroke:none;" d="M91 38L91 41L92 41L91 38M19.3333 39.6667L19.6667 40.3333L19.3333 39.6667z"/>
<path style="fill:#bf6163; stroke:none;" d="M29 39L30 40L29 39z"/>
<path style="fill:#d49e9f; stroke:none;" d="M41 39L42 40L41 39z"/>
<path style="fill:#ab0a10; stroke:none;" d="M39 44L40 44L44 40L39 44z"/>
<path style="fill:#af252b; stroke:none;" d="M44.044 39.7863C36.0517 42.5148 40.0794 54.9028 47.956 52.2137C55.9482 49.4852 51.9206 37.0972 44.044 39.7863z"/>
<path style="fill:#ab0a10; stroke:none;" d="M48 39L48 40L52 44L53 44L48 39z"/>
<path style="fill:#d49e9f; stroke:none;" d="M50 39L51 40L50 39z"/>
<path style="fill:#bf6163; stroke:none;" d="M62 39L63 40L62 39z"/>
<path style="fill:#d49e9f; stroke:none;" d="M72.3333 39.6667L72.6667 40.3333L72.3333 39.6667z"/>
<path style="fill:#ab0a10; stroke:none;" d="M28 40L28 43L29 43L28 40z"/>
<path style="fill:#d49e9f; stroke:none;" d="M29 40L30 41L29 40z"/>
<path style="fill:#bf6163; stroke:none;" d="M40 40L41 41L40 40M51 40L52 41L51 40z"/>
<path style="fill:#d49e9f; stroke:none;" d="M62 40L63 41L62 40z"/>
<path style="fill:#ab0a10; stroke:none;" d="M63 40L63 43L64 43L63 40z"/>
<path style="fill:#bf6163; stroke:none;" d="M0.333333 41.6667L0.666667 42.3333L0.333333 41.6667M19.3333 41.6667L19.6667 42.3333L19.3333 41.6667z"/>
<path style="fill:#d49e9f; stroke:none;" d="M39 41L40 42L39 41M52 41L53 42L52 41z"/>
<path style="fill:#bf6163; stroke:none;" d="M72.3333 41.6667L72.6667 42.3333L72.3333 41.6667M91.3333 41.6667L91.6667 42.3333L91.3333 41.6667M9 42L9 50L10 50L9 42M82 42L82 48L83 48L82 42M28 43L29 44L28 43z"/>
<path style="fill:#d49e9f; stroke:none;" d="M38 43L39 44L38 43M53 43L54 44L53 43z"/>
<path style="fill:#bf6163; stroke:none;" d="M63 43L64 44L63 43z"/>
<path style="fill:#ab0a10; stroke:none;" d="M27 44L27 48L28 48L27 44z"/>
<path style="fill:#d49e9f; stroke:none;" d="M28 44L28 48L29 48L28 44z"/>
<path style="fill:#bf6163; stroke:none;" d="M38 44L39 45L38 44M53 44L54 45L53 44z"/>
<path style="fill:#d49e9f; stroke:none;" d="M63 44L63 48L64 48L63 44z"/>
<path style="fill:#ab0a10; stroke:none;" d="M64 44L64 48L65 48L64 44M19.3333 45.6667L19.6667 46.3333L19.3333 45.6667M38.3333 45.6667L38.6667 46.3333L38.3333 45.6667M53.3333 45.6667L53.6667 46.3333L53.3333 45.6667M72.3333 45.6667L72.6667 46.3333L72.3333 45.6667z"/>
<path style="fill:#bf6163; stroke:none;" d="M38 47L39 48L38 47M53 47L54 48L53 47M0 48L0 51L1 51L0 48M28 48L29 49L28 48z"/>
<path style="fill:#d49e9f; stroke:none;" d="M38 48L39 49L38 48z"/>
<path style="fill:#ab0a10; stroke:none;" d="M39 48L44 53L44 52L39 48M52 48L48 52L48 53L52 48z"/>
<path style="fill:#d49e9f; stroke:none;" d="M53 48L54 49L53 48z"/>
<path style="fill:#bf6163; stroke:none;" d="M63 48L64 49L63 48M91.3333 48.6667L91.6667 49.3333L91.3333 48.6667M19.3333 49.6667L19.6667 50.3333L19.3333 49.6667z"/>
<path style="fill:#ab0a10; stroke:none;" d="M28 49L28 52L29 52L28 49M63 49L63 52L64 52L63 49M82 49L81 52L82 49z"/>
<path style="fill:#d49e9f; stroke:none;" d="M39 50L40 51L39 50M52 50L53 51L52 50z"/>
<path style="fill:#ab0a10; stroke:none;" d="M72 50L75 54L72 50z"/>
<path style="fill:#d49e9f; stroke:none;" d="M81 50L82 51L81 50z"/>
<path style="fill:#ab0a10; stroke:none;" d="M90 50L90 53L91 53L90 50z"/>
<path style="fill:#d49e9f; stroke:none;" d="M91.3333 50.6667L91.6667 51.3333L91.3333 50.6667M0 51L0 54L1 54L0 51z"/>
<path style="fill:#ab0a10; stroke:none;" d="M1 51L1 55L2 55L1 51M9 51L9 54L10 54L9 51z"/>
<path style="fill:#d49e9f; stroke:none;" d="M19.3333 51.6667L19.6667 52.3333L19.3333 51.6667z"/>
<path style="fill:#ab0a10; stroke:none;" d="M20 51L20 54L21 54L20 51z"/>
<path style="fill:#d49e9f; stroke:none;" d="M29 51L30 52L29 51z"/>
<path style="fill:#bf6163; stroke:none;" d="M40 51L41 52L40 51M51 51L52 52L51 51z"/>
<path style="fill:#d49e9f; stroke:none;" d="M62 51L63 52L62 51M73 51L74 52L73 51z"/>
<path style="fill:#bf6163; stroke:none;" d="M29 52L30 53L29 52z"/>
<path style="fill:#d49e9f; stroke:none;" d="M41 52L42 53L41 52M50 52L51 53L50 52z"/>
<path style="fill:#bf6163; stroke:none;" d="M62 52L63 53L62 52z"/>
<path style="fill:#d49e9f; stroke:none;" d="M74 52L75 53L74 52z"/>
<path style="fill:#bf6163; stroke:none;" d="M80 52L81 53L80 52z"/>
<path style="fill:#d49e9f; stroke:none;" d="M10 53L11 54L10 53z"/>
<path style="fill:#ab0a10; stroke:none;" d="M29 53L30 54L29 53z"/>
<path style="fill:#d49e9f; stroke:none;" d="M43 53L44 54L43 53z"/>
<path style="fill:#bf6163; stroke:none;" d="M44 53L45 54L44 53z"/>
<path style="fill:#ab0a10; stroke:none;" d="M45.6667 53.3333L46.3333 53.6667L45.6667 53.3333z"/>
<path style="fill:#bf6163; stroke:none;" d="M47 53L48 54L47 53z"/>
<path style="fill:#d49e9f; stroke:none;" d="M48 53L49 54L48 53z"/>
<path style="fill:#ab0a10; stroke:none;" d="M62 53L63 54L62 53z"/>
<path style="fill:#bf6163; stroke:none;" d="M75 53L76 54L75 53z"/>
<path style="fill:#d49e9f; stroke:none;" d="M76 53L76 54L79 54L76 53z"/>
<path style="fill:#ab0a10; stroke:none;" d="M80 53L81 54L80 53z"/>
<path style="fill:#fefdfd; stroke:none;" d="M0 54L0 92L38 92L38 91C15.9156 88.0115 9.1184 71.0207 0 54z"/>
<path style="fill:#bf6163; stroke:none;" d="M10 54L11 55L10 54M20 54L21 55L20 54M30 54L31 55L30 54M61 54L62 55L61 54z"/>
<path style="fill:#ab0a10; stroke:none;" d="M76 54L76 55L79 55L76 54M89.3333 54.6667L89.6667 55.3333L89.3333 54.6667z"/>
<path style="fill:#bf6163; stroke:none;" d="M90 54L91 55L90 54z"/>
<path style="fill:#ab0a10; stroke:none;" d="M10 55L10 58L11 58L10 55z"/>
<path style="fill:#d49e9f; stroke:none;" d="M20 55L21 56L20 55z"/>
<path style="fill:#ab0a10; stroke:none;" d="M21 55L22 56L21 55M30 55L32 57L30 55z"/>
<path style="fill:#d49e9f; stroke:none;" d="M31 55L32 56L31 55M60 55L61 56L60 55z"/>
<path style="fill:#ab0a10; stroke:none;" d="M61 55L62 56L61 55z"/>
<path style="fill:#d49e9f; stroke:none;" d="M90 55L91 56L90 55z"/>
<path style="fill:#bf6163; stroke:none;" d="M1 56L2 57L1 56z"/>
<path style="fill:#ab0a10; stroke:none;" d="M60 56L61 57L60 56z"/>
<path style="fill:#d49e9f; stroke:none;" d="M1 57L2 58L1 57z"/>
<path style="fill:#ab0a10; stroke:none;" d="M2 57L3 62L4 62L2 57z"/>
<path style="fill:#d49e9f; stroke:none;" d="M11 57L12 58L11 57M21 57L22 58L21 57z"/>
<path style="fill:#ab0a10; stroke:none;" d="M22 57L24 60L22 57M88 57L87 59L88 57z"/>
<path style="fill:#d49e9f; stroke:none;" d="M89 57L90 58L89 57z"/>
<path style="fill:#ab0a10; stroke:none;" d="M32 58L34 60L32 58z"/>
<path style="fill:#bf6163; stroke:none;" d="M33 58L34 59L33 58M58 58L59 59L58 58z"/>
<path style="fill:#ab0a10; stroke:none;" d="M59 58L60 59L59 58z"/>
<path style="fill:#bf6163; stroke:none;" d="M88 58L89 59L88 58z"/>
<path style="fill:#ab0a10; stroke:none;" d="M11 59L12 60L11 59z"/>
<path style="fill:#d49e9f; stroke:none;" d="M12 59L13 60L12 59M22 59L23 60L22 59z"/>
<path style="fill:#ab0a10; stroke:none;" d="M58 59L59 60L58 59z"/>
<path style="fill:#bf6163; stroke:none;" d="M2 60L3 61L2 60M12 60L13 61L12 60z"/>
<path style="fill:#ab0a10; stroke:none;" d="M35 60L37 62L35 60z"/>
<path style="fill:#d49e9f; stroke:none;" d="M36 60L37 61L36 60M55 60L56 61L55 60z"/>
<path style="fill:#ab0a10; stroke:none;" d="M56 60L57 61L56 60z"/>
<path style="fill:#bf6163; stroke:none;" d="M68.6667 60.3333L69.3333 60.6667L68.6667 60.3333z"/>
<path style="fill:#ab0a10; stroke:none;" d="M86 60L87 61L86 60z"/>
<path style="fill:#d49e9f; stroke:none;" d="M2 61L3 62L2 61z"/>
<path style="fill:#ab0a10; stroke:none;" d="M12 61L14 64L12 61M24 61L31 68L24 61z"/>
<path style="fill:#bf6163; stroke:none;" d="M37 61L38 62L37 61M54 61L55 62L54 61z"/>
<path style="fill:#ab0a10; stroke:none;" d="M55 61L56 62L55 61M67 61L61 68L67 61M84 61L82 62L82 63L84 61z"/>
<path style="fill:#bf6163; stroke:none;" d="M13 62L14 63L13 62z"/>
<path style="fill:#d49e9f; stroke:none;" d="M24 62L25 63L24 62z"/>
<path style="fill:#ab0a10; stroke:none;" d="M38 62L39 63L38 62z"/>
<path style="fill:#bf6163; stroke:none;" d="M39 62L40 63L39 62z"/>
<path style="fill:#d49e9f; stroke:none;" d="M40 62L41 63L40 62M51 62L52 63L51 62z"/>
<path style="fill:#bf6163; stroke:none;" d="M52 62L53 63L52 62z"/>
<path style="fill:#ab0a10; stroke:none;" d="M53 62L54 63L53 62z"/>
<path style="fill:#d49e9f; stroke:none;" d="M67 62L68 63L67 62z"/>
<path style="fill:#bf6163; stroke:none;" d="M71 62L72 63L71 62z"/>
<path style="fill:#ab0a10; stroke:none;" d="M72 62L73 63L72 62z"/>
<path style="fill:#bf6163; stroke:none;" d="M84 62L85 63L84 62z"/>
<path style="fill:#d49e9f; stroke:none;" d="M3 63L4 64L3 63z"/>
<path style="fill:#ab0a10; stroke:none;" d="M4 63L7 70L8 70L4 63z"/>
<path style="fill:#bf6163; stroke:none;" d="M25 63L26 64L25 63z"/>
<path style="fill:#ab0a10; stroke:none;" d="M40.6667 63.3333L41.3333 63.6667L40.6667 63.3333z"/>
<path style="fill:#bf6163; stroke:none;" d="M43 63L44 64L43 63z"/>
<path style="fill:#d49e9f; stroke:none;" d="M44 63L44 64L48 64L44 63z"/>
<path style="fill:#bf6163; stroke:none;" d="M48 63L49 64L48 63z"/>
<path style="fill:#ab0a10; stroke:none;" d="M49 63L49 64L52 64L49 63z"/>
<path style="fill:#bf6163; stroke:none;" d="M66 63L67 64L66 63z"/>
<path style="fill:#d49e9f; stroke:none;" d="M72 63L73 64L72 63z"/>
<path style="fill:#bf6163; stroke:none;" d="M73 63L74 64L73 63z"/>
<path style="fill:#ab0a10; stroke:none;" d="M74 63L74 64L81 64L74 63z"/>
<path style="fill:#d49e9f; stroke:none;" d="M82 63L83 64L82 63z"/>
<path style="fill:#bf6163; stroke:none;" d="M14 64L15 65L14 64M26 64L27 65L26 64z"/>
<path style="fill:#ab0a10; stroke:none;" d="M44 64L44 65L48 65L44 64z"/>
<path style="fill:#bf6163; stroke:none;" d="M65 64L66 65L65 64z"/>
<path style="fill:#d49e9f; stroke:none;" d="M75 64L75 65L80 65L75 64z"/>
<path style="fill:#bf6163; stroke:none;" d="M4 65L5 66L4 65z"/>
<path style="fill:#ab0a10; stroke:none;" d="M14 65L19 71L14 65z"/>
<path style="fill:#d49e9f; stroke:none;" d="M15 65L16 66L15 65z"/>
<path style="fill:#bf6163; stroke:none;" d="M27 65L28 66L27 65M64 65L65 66L64 65M28 66L29 67L28 66M63 66L64 67L63 66M5 67L6 68L5 67M16 67L17 68L16 67z"/>
<path style="fill:#d49e9f; stroke:none;" d="M29 67L30 68L29 67M62 67L63 68L62 67M17 68L18 69L17 68z"/>
<path style="fill:#ab0a10; stroke:none;" d="M32 68L35 70L35 69L32 68M59 68L57 69L57 70L59 68z"/>
<path style="fill:#d49e9f; stroke:none;" d="M6 69L7 70L6 69M18 69L19 70L18 69M32 69L33 70L32 69M59 69L60 70L59 69M34 70L35 71L34 70z"/>
<path style="fill:#ab0a10; stroke:none;" d="M36 70L37 71L36 70M55 70L56 71L55 70z"/>
<path style="fill:#d49e9f; stroke:none;" d="M57 70L58 71L57 70z"/>
<path style="fill:#ab0a10; stroke:none;" d="M8 71L10 73L8 71M19 71L20 72L19 71z"/>
<path style="fill:#d49e9f; stroke:none;" d="M36 71L37 72L36 71z"/>
<path style="fill:#bf6163; stroke:none;" d="M37 71L38 72L37 71z"/>
<path style="fill:#ab0a10; stroke:none;" d="M38 71L38 72L41 72L38 71M51 71L51 72L54 72L51 71z"/>
<path style="fill:#bf6163; stroke:none;" d="M54 71L55 72L54 71z"/>
<path style="fill:#d49e9f; stroke:none;" d="M55 71L56 72L55 71z"/>
<path style="fill:#ab0a10; stroke:none;" d="M72 71L73 72L72 71z"/>
<path style="fill:#d49e9f; stroke:none;" d="M8 72L9 73L8 72z"/>
<path style="fill:#ab0a10; stroke:none;" d="M20 72L21 73L20 72z"/>
<path style="fill:#d49e9f; stroke:none;" d="M39.6667 72.3333L40.3333 72.6667L39.6667 72.3333z"/>
<path style="fill:#bf6163; stroke:none;" d="M41.6667 72.3333L42.3333 72.6667L41.6667 72.3333z"/>
<path style="fill:#ab0a10; stroke:none;" d="M45.6667 72.3333L46.3333 72.6667L45.6667 72.3333z"/>
<path style="fill:#bf6163; stroke:none;" d="M49.6667 72.3333L50.3333 72.6667L49.6667 72.3333z"/>
<path style="fill:#d49e9f; stroke:none;" d="M51.6667 72.3333L52.3333 72.6667L51.6667 72.3333z"/>
<path style="fill:#ab0a10; stroke:none;" d="M71 72L72 73L71 72M74 72L75 81C78.9785 77.5544 77.9165 75.0219 74 72z"/>
<path style="fill:#d49e9f; stroke:none;" d="M75 72L76 73L75 72z"/>
<path style="fill:#ab0a10; stroke:none;" d="M21 73L27 78L27 77L21 73z"/>
<path style="fill:#d49e9f; stroke:none;" d="M22 73L23 74L22 73M69 73L68 75L69 73z"/>
<path style="fill:#ab0a10; stroke:none;" d="M70 73L71 74L70 73z"/>
<path style="fill:#d49e9f; stroke:none;" d="M76 73L77 74L76 73M23 74L24 75L23 74z"/>
<path style="fill:#ab0a10; stroke:none;" d="M69 74L70 75L69 74z"/>
<path style="fill:#bf6163; stroke:none;" d="M77 74L78 75L77 74z"/>
<path style="fill:#ab0a10; stroke:none;" d="M11 75L17 81L11 75z"/>
<path style="fill:#bf6163; stroke:none;" d="M24 75L25 76L24 75M67 75L68 76L67 75z"/>
<path style="fill:#ab0a10; stroke:none;" d="M68 75L69 76L68 75z"/>
<path style="fill:#bf6163; stroke:none;" d="M78 75L79 76L78 75z"/>
<path style="fill:#d49e9f; stroke:none;" d="M11 76L12 77L11 76M26 76L27 77L26 76M65 76L66 77L65 76z"/>
<path style="fill:#ab0a10; stroke:none;" d="M66.6667 76.3333L67.3333 76.6667L66.6667 76.3333z"/>
<path style="fill:#af252b; stroke:none;" d="M79 76L80 77L79 76z"/>
<path style="fill:#d49e9f; stroke:none;" d="M12 77L13 78L12 77z"/>
<path style="fill:#bf6163; stroke:none;" d="M27 77L28 78L27 77M64 77L65 78L64 77z"/>
<path style="fill:#ab0a10; stroke:none;" d="M65 77L66 78L65 77z"/>
<path style="fill:#d49e9f; stroke:none;" d="M79 77L80 78L79 77M13 78L14 79L13 78z"/>
<path style="fill:#ab0a10; stroke:none;" d="M28 78L31 80L31 79L28 78z"/>
<path style="fill:#bf6163; stroke:none;" d="M29 78L30 79L29 78M62 78L63 79L62 78z"/>
<path style="fill:#ab0a10; stroke:none;" d="M63 78L64 79L63 78z"/>
<path style="fill:#d49e9f; stroke:none;" d="M78 78L79 79L78 78M14 79L15 80L14 79z"/>
<path style="fill:#bf6163; stroke:none;" d="M31 79L32 80L31 79z"/>
<path style="fill:#d49e9f; stroke:none;" d="M32 79L33 80L32 79M59 79L60 80L59 79z"/>
<path style="fill:#bf6163; stroke:none;" d="M60 79L61 80L60 79z"/>
<path style="fill:#ab0a10; stroke:none;" d="M61 79L62 80L61 79z"/>
<path style="fill:#d49e9f; stroke:none;" d="M77 79L78 80L77 79M15 80L16 81L15 80z"/>
<path style="fill:#ab0a10; stroke:none;" d="M32 80L33 81L32 80z"/>
<path style="fill:#d49e9f; stroke:none;" d="M34 80L35 81L34 80M57 80L58 81L57 80z"/>
<path style="fill:#ab0a10; stroke:none;" d="M59 80L60 81L59 80z"/>
<path style="fill:#d49e9f; stroke:none;" d="M76 80L77 81L76 80z"/>
<path style="fill:#ab0a10; stroke:none;" d="M34 81L34 82L37 82L34 81z"/>
<path style="fill:#bf6163; stroke:none;" d="M37 81L38 82L37 81z"/>
<path style="fill:#d49e9f; stroke:none;" d="M38 81L39 82L38 81M53 81L54 82L53 81z"/>
<path style="fill:#bf6163; stroke:none;" d="M54 81L55 82L54 81z"/>
<path style="fill:#ab0a10; stroke:none;" d="M55 81L55 82L58 82L55 81M19 82L21 84L19 82M38 82L38 83L41 83L38 82z"/>
<path style="fill:#bf6163; stroke:none;" d="M42 82L42 83L50 83L42 82z"/>
<path style="fill:#ab0a10; stroke:none;" d="M51 82L51 83L54 83L51 82M72 82L71 84L72 82z"/>
<path style="fill:#d49e9f; stroke:none;" d="M19 83L20 84L19 83M72 83L73 84L72 83M20 84L21 85L20 84z"/>
<path style="fill:#ab0a10; stroke:none;" d="M22 84L22 85L29 88L29 87L22 84M69 84L63 87L63 88L70 85L69 84z"/>
<path style="fill:#d49e9f; stroke:none;" d="M71 84L72 85L71 84M22 85L23 86L22 85M69 85L70 86L69 85z"/>
<path style="fill:#bf6163; stroke:none;" d="M24 86L25 87L24 86M67 86L68 87L67 86M26 87L27 88L26 87M65 87L66 88L65 87z"/>
<path style="fill:#d49e9f; stroke:none;" d="M28 88L29 89L28 88z"/>
<path style="fill:#ab0a10; stroke:none;" d="M30 88L30 89L35 90L35 89L30 88M57 89L57 90L62 89L57 89z"/>
<path style="fill:#d49e9f; stroke:none;" d="M63 88L64 89L63 88M30 89L31 90L30 89z"/>
<path style="fill:#bf6163; stroke:none;" d="M31 89L32 90L31 89M60 89L61 90L60 89z"/>
<path style="fill:#d49e9f; stroke:none;" d="M61 89L62 90L61 89M34 90L35 91L34 90z"/>
<path style="fill:#bf6163; stroke:none;" d="M35 90L36 91L35 90z"/>
<path style="fill:#ab0a10; stroke:none;" d="M37 90L37 91L41 91L37 90M51 90L51 91L55 91L51 90z"/>
<path style="fill:#bf6163; stroke:none;" d="M56 90L57 91L56 90z"/>
<path style="fill:#d49e9f; stroke:none;" d="M57 90L58 91L57 90M38 91L38 92L41 92L38 91z"/>
<path style="fill:#bf6163; stroke:none;" d="M41.6667 91.3333L42.3333 91.6667L41.6667 91.3333M49.6667 91.3333L50.3333 91.6667L49.6667 91.3333z"/>
<path style="fill:#d49e9f; stroke:none;" d="M51 91L51 92L54 92L51 91z"/>
</svg>
