<?xml version="1.0" encoding="UTF-8" standalone="no"?>
<!-- Generator: Adobe Illustrator 21.0.0, SVG Export Plug-In . SVG Version: 6.00 Build 0)  -->

<svg
   version="1.1"
   id="Layer_1"
   x="0px"
   y="0px"
   viewBox="0 0 97.599999 97.599996"
   xml:space="preserve"
   sodipodi:docname="mailgun.svg"
   width="97.599998"
   height="97.599998"
   inkscape:version="1.2.1 (9c6d41e410, 2022-07-14, custom)"
   xmlns:inkscape="http://www.inkscape.org/namespaces/inkscape"
   xmlns:sodipodi="http://sodipodi.sourceforge.net/DTD/sodipodi-0.dtd"
   xmlns="http://www.w3.org/2000/svg"
   xmlns:svg="http://www.w3.org/2000/svg"><defs
   id="defs61">
	
	

		
		
	</defs><sodipodi:namedview
   id="namedview59"
   pagecolor="#ffffff"
   bordercolor="#666666"
   borderopacity="1.0"
   inkscape:showpageshadow="2"
   inkscape:pageopacity="0.0"
   inkscape:pagecheckerboard="0"
   inkscape:deskcolor="#d1d1d1"
   showgrid="false"
   inkscape:zoom="1.4135417"
   inkscape:cx="226.38172"
   inkscape:cy="46.69123"
   inkscape:window-width="3840"
   inkscape:window-height="2083"
   inkscape:window-x="0"
   inkscape:window-y="40"
   inkscape:window-maximized="1"
   inkscape:current-layer="Layer_1" />
<style
   type="text/css"
   id="style2">
	.st0{fill:#C02126;}
	.st1{fill:#646569;}
</style>
<path
   class="st0"
   d="m 48.9,30.4 c -10.2,0 -18.5,8.3 -18.5,18.5 0,10.2 8.3,18.5 18.5,18.5 10.2,0 18.5,-8.3 18.5,-18.5 0,-10.2 -8.3,-18.5 -18.5,-18.5 z M 20.1,48.9 C 20.1,33 33,20.1 48.9,20.1 c 15.9,0 28.8,12.9 28.8,28.8 0,1.1 -0.1,2.1 -0.2,3.1 -0.2,2.8 1.8,4.9 4.6,4.9 4.7,0 5.2,-6.1 5.2,-8.1 0,-21.3 -17.2,-38.5 -38.5,-38.5 -21.3,0 -38.5,17.2 -38.5,38.5 0,21.3 17.2,38.5 38.5,38.5 11.3,0 21.4,-4.9 28.5,-12.6 l 7.9,6.6 C 76.3,91.3 63.3,97.6 48.8,97.6 21.8,97.6 0,75.7 0,48.8 0,21.8 21.9,0 48.8,0 c 27,0 48.8,21.9 48.8,48.8 0,10.8 -5.2,19.6 -15.5,19.6 -4.6,0 -7.3,-2.1 -8.9,-4.4 C 68.1,72.2 59.1,77.6 48.7,77.6 33,77.7 20.1,64.8 20.1,48.9 Z m 28.8,-8.5 c 4.7,0 8.5,3.8 8.5,8.4 0,4.7 -3.8,8.5 -8.5,8.5 -4.7,0 -8.5,-3.8 -8.5,-8.5 0.1,-4.6 3.8,-8.4 8.5,-8.4 z"
   id="path52" />
</svg>
