<svg xmlns="http://www.w3.org/2000/svg" xmlns:xlink="http://www.w3.org/1999/xlink" width="120" height="60" viewBox="0 0 84.422 41.453"><defs><clipPath id="A"><use xlink:href="#B"/></clipPath><path id="B" d="M0 0h191.356v57.344H0z"/></defs><g transform="translate(0 .28)"><path d="M152.528 27.115c-1.522-2.088-3.507-3.13-5.95-3.13-2.125 0-3.948.78-5.472 2.34-1.523 1.542-2.285 3.403-2.285 5.584 0 2.163.752 4.034 2.257 5.613 1.523 1.56 3.386 2.342 5.584 2.342s4.156-1.025 5.867-3.075v2.567h1.9V24.38h-1.9zm-1.635 9.223c-1.166 1.166-2.567 1.75-4.203 1.75-1.617 0-3.008-.602-4.174-1.806-1.166-1.222-1.75-2.66-1.75-4.315a6 6 0 0 1 1.721-4.287 5.54 5.54 0 0 1 4.202-1.834c1.674 0 3.084.593 4.23 1.777 1.146 1.166 1.72 2.605 1.72 4.316 0 1.768-.583 3.234-1.75 4.4M135 24.38h1.946v14.977H135zM84.33 39.356h1.947l1.974-14.6 7.25 14.6h.507l7.164-14.497 1.975 14.497h2.002l-2.905-20.25h-.3l-8.18 16.613-8.237-16.613h-.3zm37.534-12.24c-1.52-2.088-3.506-3.13-5.95-3.13-2.124 0-3.947.78-5.47 2.34-1.524 1.542-2.285 3.403-2.285 5.584a7.86 7.86 0 0 0 2.256 5.613c1.523 1.56 3.386 2.342 5.585 2.342s4.156-1.025 5.866-3.075v2.567h1.9V24.38h-1.9zm-1.635 9.223c-1.166 1.166-2.567 1.75-4.203 1.75-1.617 0-3.008-.602-4.174-1.806-1.166-1.222-1.75-2.66-1.75-4.315a6 6 0 0 1 1.72-4.287c1.148-1.222 2.548-1.834 4.203-1.834 1.674 0 3.084.593 4.23 1.777 1.146 1.166 1.72 2.605 1.72 4.316.001 1.768-.58 3.234-1.748 4.4m50.428-14.584c-.978-.92-2.143-1.6-3.497-2.002-1.335-.432-3.44-.65-6.318-.65h-4.202v20.252h6.46c2.633 0 4.644-.396 6.035-1.185 1.4-.8 2.52-1.956 3.328-3.498a10.44 10.44 0 0 0 1.241-4.964c0-1.77-.263-3.3-.8-4.625s-1.28-2.426-2.257-3.33m.367 11.225c-.434 1.034-1.063 1.918-1.9 2.65-.826.715-1.796 1.193-2.904 1.438-1.1.245-2.858.367-5.304.367h-2.34V21.08h1.438c2.426 0 4.26.132 5.5.395 1.26.245 2.35.734 3.27 1.467s1.627 1.664 2.116 2.792c.508 1.128.76 2.36.76 3.695s-.215 2.52-.647 3.553m12.686-4.682c.847-.45 1.484-1.043 1.918-1.777.45-.752.677-1.57.677-2.454 0-1.598-.555-2.82-1.664-3.667-1.1-.865-2.698-1.297-4.823-1.297H175.8v20.252h5.584c1.938 0 3.517-.546 4.74-1.636 1.222-1.1 1.833-2.5 1.833-4.175 0-1.24-.367-2.313-1.1-3.216-.715-.9-1.768-1.578-3.16-2.03m-5.895-7.22h2.342c2.708 0 4.062.996 4.062 3 0 1.204-.432 2.088-1.297 2.652s-2.182.846-3.95.846h-1.157V21.08zm7.4 14.524c-.434.602-.996 1.053-1.693 1.354-.676.282-1.74.424-3.186.424h-2.512v-7.785h1.128c1.824 0 3.065.094 3.725.282.677.188 1.25.47 1.72.847.5.376.855.8 1.1 1.297s.366 1.053.366 1.692-.216 1.27-.65 1.9m-49.228-16.5a1.37 1.37 0 0 0-.99.42c-.264.28-.396.6-.396 1a1.37 1.37 0 0 0 .396.966c.28.28.6.42 1 .42a1.37 1.37 0 0 0 1-.396c.28-.28.42-.612.42-1a1.3 1.3 0 0 0-.421-.991 1.3 1.3 0 0 0-.991-.421m-3.593 5.043a6.91 6.91 0 0 0-4.07 2.076l-.2.23V24.4h-.336v-.03h-1.5v14.983h1.965v-8.88a4.07 4.07 0 0 1 .712-2.34c.806-1.286 2.22-2.148 3.84-2.18V24.06l-.4.085" clip-path="url(#A)" transform="matrix(.499154 0 0 .499154 -25.748318 17.774144)" fill="#444b5e"/><path d="M75.198 5.328c-1.872.047-2.977.863-3.34 2.42.48.418 1.126.6 1.77.572 1.415-.06 2.817-1.138 2.42-2.965-.298-.025-.582-.035-.85-.027M84.84 0h-.167c-1.335.043-1.542.767-4.425 1.477-2.912.717-5.725.028-8.86 1.344C62.025 6.748 60.03 20.293 51.52 25.1c-6.36 3.593-12.512 5.188-18.28 6.995-3.792 1.188-7.552 2.556-10.988 5.516-2.667 2.3-3.4 4.085-6.177 6.97-2.835 2.933-11.553-2.258-15.8 1.54a.84.84 0 0 0 .014 1.253c.92.805 2.67 2.722 4.336 3.314-.528 1-3.513 3.946-2.904 5.42.64 1.55 8.04.497 14.88-3.633 3.185-1.924 5.723-4.696 10.685-5.357 6.42-.855 13.817.55 21.25 1.62-1.103 3.286-3.315 5.473-5.088 8.1-.55.592 1.103.658 2.986.3 3.4-.838 5.832-1.513 8.4-3 3.143-1.83 3.62-6.52 7.474-7.534 1.864 2.865 6.5 3.83 10.074 2.3.198-.084.392-.177.582-.275.43-.375.178-.813-.086-1.135a6.21 6.21 0 0 1-.362-.364c-2.012-2.162-2.472-7.266-1.58-9.748 1.017-2.824 2.022-7.343 3.046-11.075 1.1-4 1.506-9.063 2.837-11.106 2.002-3.072 4.215-4.127 6.136-5.86s3.68-3.42 3.62-7.384C86.547.734 85.946.03 84.84 0m.204 4.163C84.647 6.897 82.9 8.4 80.836 9.85c-1.8 1.27-3.794 2.493-5.07 4.477-1.305 2.03-2.134 8.985-4.16 15.852-1.68 5.698-4.184 11.335-8.467 14.05-.278.176-.645.015-.704-.3-.3-1.592-.24-4.5-.734-3.56-.62 1.77-1.322 3.458-2.143 5.027-2.52 4.816-6.166 8.505-12.057 9.95a.53.53 0 0 1-.552-.82c2.718-3.77 5.15-7.825 5.447-14.014.025-.534-.646-.778-.983-.364-1.284 1.583-1.6 5.347-3.477 6.506-1.474.16-2.967.16-4.47.07-6.17-.37-12.502-2.226-18.274-.373-3.93 1.262-8.057 4.85-11.386 6.293C9.894 54.33 8.04 55.93 3.1 55.82c-.505-.68 2.062-3.623 2.934-4.893.278-.407-.317-.835-.874-1.1-1.338-.614-2.68-2.28-4.107-2.93.183-.337.83-.674 1.187-.88 3.24-1.88 11.832 2.124 14.14-.143 1.425-1.398 2.385-2.626 3.353-4.05.94-1.38 2.368-2.838 3.847-4.047a31.3 31.3 0 0 1 1.94-1.435c2.52-1.724 3.907-1.852 7.17-3.064 4.152-1.544 9.293-2.898 13.747-4.6 2.752-1.053 5.744-2.35 8.183-4.17.58-.432 1.127-.893 1.634-1.386 6.964-6.8 8.345-18.766 19.2-19.882 1.314-.135 2.248-.192 3.228-.223 1.096-.03 2.18-.3 3.263-.818.334-.146 2.324-1.35 2.996-.768.448.388.115 2.492.086 2.72" clip-path="url(#A)" transform="matrix(.402475 0 0 .402475 24.790133 2.092202)" fill="#444b5e"/></g></svg>