<svg xmlns="http://www.w3.org/2000/svg" width="250" height="250" fill="none"><g clip-path="url(#a)"><path fill="#002B64" d="M239.721 46.004c-3.703.118-2.532 1.175-10.533 3.127-8.079 1.971-17.948 1.366-26.648 4.985-25.972 10.8-31.183 47.709-54.794 60.931-17.649 9.883-35.455 10.671-51.463 15.646-10.52 3.27-22.03 9.978-31.56 18.122-7.399 6.323-7.592 11.884-15.323 19.815-8.268 8.483-32.863.143-44.01 13.127 3.59 3.6 5.166 4.608 12.241 3.674-1.464 2.753-10.1 5.073-8.41 9.123 1.78 4.262 22.657 7.15 41.637-4.21 8.839-5.291 15.88-12.918 29.645-14.738 17.813-2.354 38.335 1.51 58.957 4.459-3.058 9.039-9.197 15.051-14.114 22.25-1.524 1.626 3.058 1.809 8.285.826 9.403-2.305 16.178-4.162 23.274-8.257 8.718-5.032 10.04-17.931 20.736-20.723 5.959 9.082 22.169 11.228 32.226 3.963-8.825-2.477-11.265-21.102-8.285-29.309 2.821-7.77 5.61-20.196 8.452-30.466 3.051-11.028 4.176-24.93 7.869-30.548 5.556-8.452 11.694-11.354 17.023-16.12 5.33-4.767 10.209-9.406 10.048-20.313-.051-3.513-1.884-5.47-5.253-5.364Z"/><path fill="#fff" d="M13.055 193.776c13.515 1.921 21.735 0 32.588-4.665 9.235-3.972 18.154-12.158 29.06-15.628 16.015-5.095 33.579.006 50.7 1.024 4.169.248 8.312.251 12.401-.191 6.377-3.886 6.246-18.423 12.453-19.755-.183 20.396-8.616 32.617-17.437 44.45 18.589-3.255 29.714-13.915 37.227-28.153 2.28-4.317 4.226-8.961 5.947-13.83 2.661 2.026 1.153 8.187 2.491 11.525 12.804-7.072 20.135-23.21 24.991-39.532 5.617-18.891 7.916-38.019 11.539-43.608 3.536-5.456 9.039-8.819 14.062-12.311 5.708-3.972 10.799-8.11 11.678-15.677-6.019-.552-7.411-1.933-8.302-4.94-3.014 1.684-5.785 2.044-8.916 2.137-2.716.082-5.701-.038-9.346.333-30.148 3.07-33.979 36.015-53.302 54.69a45.088 45.088 0 0 1-4.532 3.814c-6.768 5.001-15.07 8.573-22.704 11.467-12.358 4.681-24.107 5.014-35.7 9.055-8.512 2.966-17.16 7.268-24.151 12.012a71.49 71.49 0 0 0-4.91 3.627c-4.102 3.327-6.796 7.02-9.4 10.818-2.686 3.913-5.28 7.94-9.234 11.787-6.406 6.237-30.344 1.819-38.772 7.603-.939.643-1.685 1.415-2.193 2.343 4.599 2.072 7.67.8 12.96 1.38.693 4.977-10.914 7.934-9.198 10.226v-.001ZM195.7 157.925c.36 5.71 3.703 17.036 6.654 19.79-5.78 1.394-15.737-.909-18.291-4.951 1.312-5.836 8.142-11.171 11.637-14.839Z"/><path fill="#002B64" d="M204.172 67.316c4.267 3.673 13.222.725 11.622-6.584-6.631-.545-10.473 1.687-11.622 6.584Zm29.752-8.542c-1.134 2.36-3.308 5.404-3.308 11.413-.009 1.032-.79 1.739-.803.149.059-5.874 1.626-8.412 3.292-11.749.774-1.367 1.24-.803.819.187Z"/><path fill="#002B64" d="M232.779 57.885c-1.339 2.252-4.563 6.361-5.096 12.348-.099 1.026-.94 1.661-.813.075.581-5.844 3.158-9.503 5.114-12.682.887-1.293 1.304-.69.795.26Zm-1.042-1.178c-1.525 2.132-6.489 7.066-7.526 12.988-.187 1.013-1.079 1.579-.817.008 1.074-5.777 5.353-10.317 7.571-13.32.993-1.217 1.357-.58.772.324Zm-.93-1.314c-1.812 1.898-7.729 8.19-9.594 13.907-.33.977-1.294 1.413-.81-.106 1.881-5.569 7.063-11.568 9.685-14.23 1.158-1.067 1.427-.386.719.429Z"/></g><defs><clipPath id="a"><path fill="#fff" d="M5 46h240v158H5z"/></clipPath></defs></svg>