<svg width="250" height="250" viewBox="0 0 250 250" fill="none" xmlns="http://www.w3.org/2000/svg">
<g clip-path="url(#clip0_977_1388)">
<path d="M211.996 65.0028C209.188 65.0924 210.075 65.8957 204.008 67.3781C197.881 68.8753 190.397 68.4157 183.8 71.1637C164.104 79.3661 160.152 107.399 142.248 117.441C128.864 124.947 115.361 125.546 103.222 129.324C95.2435 131.808 86.5162 136.902 79.2881 143.088C73.6779 147.89 73.5314 152.113 67.6689 158.137C61.399 164.579 42.7479 158.246 34.2949 168.107C37.0176 170.841 38.2118 171.607 43.5775 170.897C42.4671 172.988 35.9178 174.75 37.1995 177.826C38.5488 181.063 54.3813 183.256 68.7743 174.628C75.4771 170.61 80.8164 164.817 91.2548 163.435C104.764 161.647 120.326 164.582 135.964 166.821C133.645 173.687 128.99 178.252 125.261 183.72C124.106 184.955 127.58 185.094 131.544 184.348C138.674 182.597 143.812 181.187 149.194 178.077C155.805 174.255 156.807 164.458 164.918 162.338C169.437 169.236 181.729 170.865 189.356 165.347C182.664 163.466 180.814 149.32 183.073 143.088C185.213 137.186 187.328 127.749 189.483 119.949C191.797 111.573 192.65 101.015 195.45 96.7477C199.663 90.3284 204.318 88.124 208.359 84.5042C212.401 80.8837 216.101 77.3607 215.979 69.0772C215.94 66.4089 214.55 64.9223 211.996 65.0028V65.0028Z" fill="#002B64"/>
<path d="M40.1086 177.235C50.3579 178.694 56.5908 177.235 64.8213 173.692C71.8248 170.676 78.588 164.458 86.8583 161.822C99.0035 157.953 112.322 161.827 125.306 162.6C128.468 162.789 131.609 162.791 134.71 162.456C139.546 159.504 139.446 148.463 144.154 147.451C144.015 162.942 137.619 172.224 130.931 181.211C145.027 178.739 153.463 170.642 159.161 159.829C160.89 156.55 162.366 153.023 163.671 149.325C165.689 150.864 164.545 155.543 165.559 158.078C175.269 152.707 180.829 140.45 184.511 128.054C188.771 113.707 190.515 99.1788 193.262 94.9336C195.944 90.7901 200.116 88.2362 203.925 85.5835C208.254 82.5673 212.114 79.424 212.781 73.6774C208.217 73.2581 207.161 72.2092 206.486 69.9249C204.2 71.204 202.099 71.4779 199.725 71.5485C197.665 71.6106 195.401 71.5195 192.637 71.8012C169.775 74.1327 166.87 99.1541 152.216 113.338C151.136 114.377 149.988 115.345 148.779 116.235C143.647 120.033 137.351 122.746 131.562 124.944C122.191 128.499 113.281 128.752 104.489 131.821C98.0346 134.073 91.4761 137.341 86.1751 140.944C84.8949 141.809 83.6526 142.728 82.4516 143.699C79.3408 146.226 77.2985 149.03 75.3237 151.915C73.2863 154.887 71.3194 157.946 68.3209 160.867C63.4628 165.604 45.31 162.249 38.9193 166.641C38.207 167.13 37.6412 167.716 37.2559 168.421C40.7434 169.994 43.0722 169.029 47.0836 169.469C47.6097 173.249 38.8077 175.495 40.1086 177.236V177.235ZM178.615 150.007C178.888 154.343 181.423 162.945 183.661 165.037C179.278 166.096 171.728 164.347 169.791 161.277C170.786 156.844 175.965 152.792 178.615 150.007Z" fill="white"/>
<path d="M185.037 81.1894C188.273 83.9791 195.064 81.74 193.85 76.189C188.822 75.7753 185.909 77.4701 185.037 81.1894ZM207.599 74.7017C206.739 76.4946 205.091 78.8064 205.091 83.3699C205.084 84.1534 204.492 84.6906 204.482 83.4828C204.526 79.0217 205.715 77.0939 206.978 74.5598C207.565 73.5214 207.919 73.9499 207.599 74.7017V74.7017Z" fill="#002B64"/>
<path d="M206.733 74.0268C205.717 75.7372 203.272 78.8579 202.868 83.4045C202.793 84.1838 202.155 84.6666 202.251 83.4616C202.692 79.0231 204.646 76.2447 206.129 73.8299C206.802 72.848 207.119 73.3054 206.733 74.0268ZM205.942 73.1318C204.786 74.7511 201.022 78.4986 200.235 82.9965C200.093 83.7659 199.417 84.1951 199.616 83.0021C200.43 78.6151 203.675 75.1668 205.357 72.8861C206.11 71.9614 206.386 72.4449 205.942 73.1318V73.1318ZM205.237 72.1336C203.863 73.5751 199.376 78.3539 197.961 82.6965C197.711 83.4384 196.98 83.7694 197.347 82.616C198.774 78.3864 202.704 73.8299 204.692 71.8075C205.57 70.9979 205.774 71.5146 205.237 72.1336Z" fill="#002B64"/>
</g>
<defs>
<clipPath id="clip0_977_1388">
<rect width="182" height="120" fill="white" transform="translate(34 65)"/>
</clipPath>
</defs>
</svg>
