<svg width="250" height="250" viewBox="0 0 250 250" fill="none" xmlns="http://www.w3.org/2000/svg">
<g clip-path="url(#clip0_2_7350)">
<path d="M163.328 77.6439L133.191 64.8465C111.28 55.5424 85.9739 65.7594 76.6683 87.6667L63.8504 117.843C54.5449 139.75 64.7635 165.052 86.6743 174.356L116.812 187.153C138.723 196.458 164.029 186.241 173.334 164.333L186.152 134.157C195.458 112.25 185.239 86.9479 163.328 77.6439Z" fill="url(#paint0_linear_2_7350)"/>
<path fill-rule="evenodd" clip-rule="evenodd" d="M74.2301 148.312C67.6492 132.802 64.3574 125.047 64.1541 117.869C64.0047 112.618 64.9435 107.393 66.9114 102.522C68.8793 97.6517 71.8338 93.2409 75.5891 89.5671C80.7218 84.5466 88.4723 81.2553 103.968 74.6755C119.466 68.0929 127.217 64.8016 134.394 64.5956C139.643 64.4455 144.866 65.3836 149.735 67.3508C154.603 69.318 159.012 72.2717 162.683 76.026C167.704 81.1579 170.996 88.9127 177.577 104.425C184.158 119.935 187.45 127.693 187.653 134.871C187.802 140.121 186.863 145.345 184.895 150.215C182.927 155.084 179.973 159.494 176.218 163.167C171.085 168.191 163.335 171.479 147.839 178.062C132.341 184.641 124.59 187.933 117.414 188.139C112.164 188.289 106.941 187.352 102.071 185.385C97.2022 183.418 92.7929 180.465 89.1212 176.711C84.1027 171.577 80.8109 163.819 74.2301 148.309V148.312Z" fill="url(#paint1_linear_2_7350)"/>
<path fill-rule="evenodd" clip-rule="evenodd" d="M143.205 104.946C153.139 104.946 160.505 112.23 160.505 124.056V147.791H146.544V126.284C146.544 120.372 143.717 117.543 139.092 117.543C136.95 117.543 134.808 118.484 132.753 120.968C132.839 121.998 132.926 123.029 132.926 124.056V147.791H119.048V126.284C119.048 120.372 116.138 117.543 111.598 117.543C109.454 117.543 107.399 118.573 105.343 121.227V147.791H91.4688V106.232H105.343V108.716C108.17 106.319 111.083 104.946 115.709 104.946C120.934 104.946 125.387 106.917 128.47 110.515C132.839 106.661 137.036 104.946 143.202 104.946H143.205Z" fill="white"/>
</g>
<defs>
<linearGradient id="paint0_linear_2_7350" x1="23.3575" y1="79.0209" x2="79.9014" y2="232.261" gradientUnits="userSpaceOnUse">
<stop stop-color="#E41359"/>
<stop offset="1" stop-color="#F23C79"/>
</linearGradient>
<linearGradient id="paint1_linear_2_7350" x1="52.2957" y1="96.6203" x2="96.1942" y2="199.995" gradientUnits="userSpaceOnUse">
<stop stop-color="#24222F"/>
<stop offset="1" stop-color="#2B2937"/>
</linearGradient>
<clipPath id="clip0_2_7350">
<rect width="156" height="156" fill="white" transform="translate(47 48)"/>
</clipPath>
</defs>
</svg>
