<svg xmlns="http://www.w3.org/2000/svg" width="56" height="57" fill="none" viewBox="0 0 300 300"><path fill="url(#a)" d="M0 237 55.426 96.768C63.236 77.006 82.499 64 103.955 64h33.416L81.945 204.232C74.135 223.993 54.872 237 33.415 237H0z"/><path fill="url(#b)" d="m81.312 237 55.426-140.232C144.549 77.007 163.811 64 185.267 64h33.416l-55.426 140.232C155.446 223.994 136.184 237 114.728 237H81.312z"/><path fill="url(#c)" d="m162.629 237 55.426-140.232C225.866 77.007 245.128 64 266.584 64H300l-55.426 140.232C236.763 223.994 217.501 237 196.045 237h-33.416z"/><defs><linearGradient id="a" x1="300.001" x2="1.635" y1="50.786" y2="221.244" gradientUnits="userSpaceOnUse"><stop stop-color="#FF5CAA"/><stop offset="1" stop-color="#FF4E62"/></linearGradient><linearGradient id="b" x1="300.001" x2="1.635" y1="50.786" y2="221.244" gradientUnits="userSpaceOnUse"><stop stop-color="#FF5CAA"/><stop offset="1" stop-color="#FF4E62"/></linearGradient><linearGradient id="c" x1="300.001" x2="1.635" y1="50.786" y2="221.244" gradientUnits="userSpaceOnUse"><stop stop-color="#FF5CAA"/><stop offset="1" stop-color="#FF4E62"/></linearGradient></defs></svg>