<svg xmlns="http://www.w3.org/2000/svg" width="250" height="250" fill="none"><g clip-path="url(#a)"><path fill="url(#b)" d="m23 183.477 37.69-95.063c5.31-13.396 18.41-22.213 33-22.213h22.722l-37.69 95.063c-5.31 13.395-18.409 22.213-33 22.213H23Z"/><path fill="url(#c)" d="m78.293 183.477 37.69-95.063c5.311-13.396 18.409-22.213 32.999-22.213h22.723l-37.689 95.063c-5.312 13.396-18.41 22.213-33 22.213H78.293Z"/><path fill="url(#d)" d="m133.586 183.477 37.69-95.063c5.311-13.396 18.409-22.213 32.999-22.213h22.723l-37.689 95.063c-5.312 13.396-18.41 22.213-33 22.213h-22.723Z"/></g><defs><linearGradient id="b" x1="227.001" x2="24.422" y1="57.243" y2="173.337" gradientUnits="userSpaceOnUse"><stop stop-color="#FF5CAA"/><stop offset="1" stop-color="#FF4E62"/></linearGradient><linearGradient id="c" x1="227.001" x2="24.423" y1="57.243" y2="173.337" gradientUnits="userSpaceOnUse"><stop stop-color="#FF5CAA"/><stop offset="1" stop-color="#FF4E62"/></linearGradient><linearGradient id="d" x1="226.999" x2="24.42" y1="57.243" y2="173.337" gradientUnits="userSpaceOnUse"><stop stop-color="#FF5CAA"/><stop offset="1" stop-color="#FF4E62"/></linearGradient><clipPath id="a"><path fill="#fff" d="M23 66h204v118H23z"/></clipPath></defs></svg>