<svg width="250" height="250" viewBox="0 0 250 250" fill="none" xmlns="http://www.w3.org/2000/svg">
<path d="M78.6304 97.8135C83.1541 97.8135 86.8213 94.0877 86.8213 89.4917C86.8213 84.8957 83.1541 81.1699 78.6304 81.1699C74.1066 81.1699 70.4395 84.8957 70.4395 89.4917C70.4395 94.0877 74.1066 97.8135 78.6304 97.8135Z" fill="#509EE3"/>
<path d="M78.6304 121.115C83.1541 121.115 86.8213 117.389 86.8213 112.793C86.8213 108.197 83.1541 104.471 78.6304 104.471C74.1066 104.471 70.4395 108.197 70.4395 112.793C70.4395 117.389 74.1066 121.115 78.6304 121.115Z" fill="#509EE3"/>
<path opacity="0.2" d="M101.564 97.8135C106.088 97.8135 109.755 94.0877 109.755 89.4917C109.755 84.8957 106.088 81.1699 101.564 81.1699C97.0402 81.1699 93.373 84.8957 93.373 89.4917C93.373 94.0877 97.0402 97.8135 101.564 97.8135Z" fill="#509EE3"/>
<path d="M101.564 121.341C106.088 121.341 109.755 117.615 109.755 113.019C109.755 108.423 106.088 104.697 101.564 104.697C97.0402 104.697 93.373 108.423 93.373 113.019C93.373 117.615 97.0402 121.341 101.564 121.341Z" fill="#509EE3"/>
<path opacity="0.2" d="M124.5 97.8135C129.023 97.8135 132.69 94.0877 132.69 89.4917C132.69 84.8957 129.023 81.1699 124.5 81.1699C119.976 81.1699 116.309 84.8957 116.309 89.4917C116.309 94.0877 119.976 97.8135 124.5 97.8135Z" fill="#509EE3"/>
<path opacity="0.2" d="M124.5 71.1836C129.023 71.1836 132.69 67.4578 132.69 62.8618C132.69 58.2658 129.023 54.54 124.5 54.54C119.976 54.54 116.309 58.2658 116.309 62.8618C116.309 67.4578 119.976 71.1836 124.5 71.1836Z" fill="#509EE3"/>
<path opacity="0.2" d="M124.5 121.341C129.023 121.341 132.69 117.615 132.69 113.019C132.69 108.423 129.023 104.697 124.5 104.697C119.976 104.697 116.309 108.423 116.309 113.019C116.309 117.615 119.976 121.341 124.5 121.341Z" fill="#509EE3"/>
<path opacity="0.2" d="M147.433 97.8135C151.957 97.8135 155.624 94.0877 155.624 89.4917C155.624 84.8957 151.957 81.1699 147.433 81.1699C142.909 81.1699 139.242 84.8957 139.242 89.4917C139.242 94.0877 142.909 97.8135 147.433 97.8135Z" fill="#509EE3"/>
<path d="M170.369 97.8135C174.892 97.8135 178.56 94.0877 178.56 89.4917C178.56 84.8957 174.892 81.1699 170.369 81.1699C165.845 81.1699 162.178 84.8957 162.178 89.4917C162.178 94.0877 165.845 97.8135 170.369 97.8135Z" fill="#509EE3"/>
<path d="M147.433 121.341C151.957 121.341 155.624 117.615 155.624 113.019C155.624 108.423 151.957 104.697 147.433 104.697C142.909 104.697 139.242 108.423 139.242 113.019C139.242 117.615 142.909 121.341 147.433 121.341Z" fill="#509EE3"/>
<path d="M170.369 121.341C174.892 121.341 178.56 117.615 178.56 113.019C178.56 108.423 174.892 104.697 170.369 104.697C165.845 104.697 162.178 108.423 162.178 113.019C162.178 117.615 165.845 121.341 170.369 121.341Z" fill="#509EE3"/>
<path d="M78.6304 144.416C83.1541 144.416 86.8213 140.69 86.8213 136.094C86.8213 131.498 83.1541 127.772 78.6304 127.772C74.1066 127.772 70.4395 131.498 70.4395 136.094C70.4395 140.69 74.1066 144.416 78.6304 144.416Z" fill="#509EE3"/>
<path opacity="0.2" d="M101.564 144.642C106.088 144.642 109.755 140.916 109.755 136.32C109.755 131.724 106.088 127.998 101.564 127.998C97.0402 127.998 93.373 131.724 93.373 136.32C93.373 140.916 97.0402 144.642 101.564 144.642Z" fill="#509EE3"/>
<path d="M124.5 144.642C129.023 144.642 132.69 140.916 132.69 136.32C132.69 131.724 129.023 127.998 124.5 127.998C119.976 127.998 116.309 131.724 116.309 136.32C116.309 140.916 119.976 144.642 124.5 144.642Z" fill="#509EE3"/>
<path opacity="0.2" d="M147.433 144.642C151.957 144.642 155.624 140.916 155.624 136.32C155.624 131.724 151.957 127.998 147.433 127.998C142.909 127.998 139.242 131.724 139.242 136.32C139.242 140.916 142.909 144.642 147.433 144.642Z" fill="#509EE3"/>
<path d="M170.369 144.642C174.892 144.642 178.56 140.916 178.56 136.32C178.56 131.724 174.892 127.998 170.369 127.998C165.845 127.998 162.178 131.724 162.178 136.32C162.178 140.916 165.845 144.642 170.369 144.642Z" fill="#509EE3"/>
<path d="M78.6304 167.717C83.1541 167.717 86.8213 163.991 86.8213 159.395C86.8213 154.799 83.1541 151.073 78.6304 151.073C74.1066 151.073 70.4395 154.799 70.4395 159.395C70.4395 163.991 74.1066 167.717 78.6304 167.717Z" fill="#509EE3"/>
<path opacity="0.2" d="M101.564 167.943C106.088 167.943 109.755 164.217 109.755 159.621C109.755 155.025 106.088 151.3 101.564 151.3C97.0402 151.3 93.373 155.025 93.373 159.621C93.373 164.217 97.0402 167.943 101.564 167.943Z" fill="#509EE3"/>
<path opacity="0.2" d="M124.5 167.943C129.023 167.943 132.69 164.217 132.69 159.621C132.69 155.025 129.023 151.3 124.5 151.3C119.976 151.3 116.309 155.025 116.309 159.621C116.309 164.217 119.976 167.943 124.5 167.943Z" fill="#509EE3"/>
<path opacity="0.2" d="M124.5 191.244C129.023 191.244 132.69 187.519 132.69 182.923C132.69 178.327 129.023 174.601 124.5 174.601C119.976 174.601 116.309 178.327 116.309 182.923C116.309 187.519 119.976 191.244 124.5 191.244Z" fill="#509EE3"/>
<path opacity="0.2" d="M147.433 167.943C151.957 167.943 155.624 164.217 155.624 159.621C155.624 155.025 151.957 151.3 147.433 151.3C142.909 151.3 139.242 155.025 139.242 159.621C139.242 164.217 142.909 167.943 147.433 167.943Z" fill="#509EE3"/>
<path d="M170.369 167.943C174.892 167.943 178.56 164.217 178.56 159.621C178.56 155.025 174.892 151.3 170.369 151.3C165.845 151.3 162.178 155.025 162.178 159.621C162.178 164.217 165.845 167.943 170.369 167.943Z" fill="#509EE3"/>
</svg>
