<svg width="250" height="250" viewBox="0 0 250 250" fill="none" xmlns="http://www.w3.org/2000/svg">
<path d="M128.723 103.335C139.176 103.335 147.651 94.8461 147.651 84.375C147.651 73.9038 139.176 65.4153 128.723 65.4153C118.269 65.4153 109.795 73.9038 109.795 84.375C109.795 94.8461 118.269 103.335 128.723 103.335Z" fill="#7B83EB"/>
<path opacity="0.1" d="M127.372 88.4375H110.229L110.314 88.8153L110.322 88.8478L110.411 89.1972C111.657 93.9288 114.679 97.9955 118.847 100.548C123.015 103.101 128.006 103.942 132.778 102.896V93.8528C132.774 92.4179 132.203 91.043 131.19 90.0283C130.177 89.0137 128.804 88.4418 127.372 88.4375Z" fill="black"/>
<path opacity="0.2" d="M123.318 92.5H111.621C113.156 95.742 115.578 98.481 118.606 100.399C121.633 102.317 125.142 103.335 128.724 103.335V97.9153C128.72 96.4804 128.149 95.1055 127.136 94.0908C126.123 93.0762 124.75 92.5043 123.318 92.5Z" fill="black"/>
<path d="M171.308 104.688C179.148 104.688 185.503 98.3215 185.503 90.4688C185.503 82.616 179.148 76.25 171.308 76.25C163.469 76.25 157.113 82.616 157.113 90.4688C157.113 98.3215 163.469 104.688 171.308 104.688Z" fill="#5059C9"/>
<path d="M183.475 108.75H151.593C150.905 108.75 150.245 109.024 149.758 109.512C149.271 109.999 148.998 110.66 148.998 111.35V144.297C148.91 149.065 150.46 153.719 153.389 157.479C156.318 161.239 160.448 163.877 165.087 164.951C168.041 165.572 171.097 165.525 174.031 164.814C176.965 164.102 179.704 162.745 182.048 160.839C184.393 158.934 186.283 156.529 187.582 153.8C188.882 151.07 189.557 148.085 189.559 145.061V114.844C189.559 113.228 188.918 111.678 187.777 110.535C186.636 109.392 185.089 108.75 183.475 108.75Z" fill="#5059C9"/>
<path d="M161.169 114.844V153.437C161.173 160.59 158.82 167.543 154.475 173.219C150.13 178.895 144.037 182.975 137.14 184.827C130.243 186.679 122.929 186.199 116.332 183.462C109.736 180.724 104.226 175.882 100.658 169.687C99.8771 168.388 99.1991 167.03 98.6297 165.625C98.0988 164.3 97.6518 162.943 97.2913 161.562C96.6226 158.906 96.2821 156.177 96.2773 153.437V114.844C96.2763 114.043 96.4329 113.25 96.7383 112.51C97.0436 111.771 97.4917 111.098 98.0568 110.532C98.6219 109.966 99.293 109.517 100.032 109.212C100.77 108.906 101.562 108.749 102.361 108.75H155.085C155.884 108.749 156.676 108.906 157.414 109.212C158.153 109.517 158.824 109.966 159.389 110.532C159.954 111.098 160.402 111.771 160.708 112.51C161.013 113.25 161.17 114.043 161.169 114.844Z" fill="#7B83EB"/>
<path opacity="0.2" d="M123.318 92.5H111.621C113.156 95.742 115.578 98.481 118.606 100.399C121.633 102.317 125.142 103.335 128.724 103.335V97.9153C128.72 96.4804 128.149 95.1055 127.136 94.0908C126.123 93.0762 124.75 92.5043 123.318 92.5Z" fill="black"/>
<path opacity="0.1" d="M132.779 108.75V160.222C132.779 161.446 132.36 162.634 131.593 163.588C130.825 164.541 129.755 165.203 128.561 165.462C128.179 165.576 127.783 165.631 127.385 165.625H98.6297C98.0988 164.3 97.6518 162.943 97.2913 161.562C96.6226 158.906 96.2821 156.177 96.2773 153.437V114.844C96.2763 114.043 96.4329 113.25 96.7383 112.51C97.0436 111.771 97.4917 111.098 98.0568 110.532C98.6219 109.966 99.293 109.517 100.032 109.212C100.77 108.906 101.562 108.749 102.361 108.75H132.779Z" fill="black"/>
<path opacity="0.2" d="M128.723 108.75V164.284C128.729 164.683 128.674 165.08 128.561 165.462C128.301 166.659 127.641 167.731 126.689 168.5C125.737 169.268 124.551 169.687 123.329 169.687H100.657C99.8771 168.388 99.1991 167.03 98.6297 165.625C98.0988 164.3 97.6518 162.943 97.2913 161.562C96.6226 158.906 96.2821 156.177 96.2773 153.437V114.844C96.2763 114.043 96.4329 113.25 96.7383 112.51C97.0436 111.771 97.4917 111.098 98.0568 110.532C98.6219 109.966 99.293 109.517 100.032 109.212C100.77 108.906 101.562 108.749 102.361 108.75H128.723Z" fill="black"/>
<path opacity="0.2" d="M128.723 108.75V156.159C128.716 157.59 128.146 158.961 127.136 159.973C126.126 160.985 124.757 161.556 123.329 161.562H97.2913C96.6226 158.906 96.2821 156.177 96.2773 153.437V114.844C96.2763 114.043 96.4329 113.25 96.7383 112.51C97.0436 111.771 97.4917 111.098 98.0568 110.532C98.6219 109.966 99.293 109.517 100.032 109.212C100.77 108.906 101.562 108.749 102.361 108.75H128.723Z" fill="black"/>
<path opacity="0.2" d="M102.361 108.75C101.562 108.749 100.77 108.906 100.032 109.212C99.293 109.517 98.6219 109.966 98.0568 110.532C97.4917 111.098 97.0436 111.771 96.7383 112.51C96.4329 113.25 96.2763 114.043 96.2773 114.844V153.437C96.2821 156.177 96.6226 158.906 97.2913 161.562H119.273C120.702 161.556 122.07 160.985 123.08 159.973C124.09 158.961 124.661 157.59 124.667 156.159V108.75H102.361Z" fill="black"/>
<path d="M65.1836 92.5H119.262C120.696 92.5 122.071 93.0705 123.085 94.0861C124.099 95.1017 124.669 96.4791 124.669 97.9153V152.085C124.669 153.521 124.099 154.898 123.085 155.914C122.071 156.929 120.696 157.5 119.262 157.5H65.1836C63.7498 157.5 62.3747 156.929 61.3608 155.914C60.3469 154.898 59.7773 153.521 59.7773 152.085V97.9153C59.7773 96.4791 60.3469 95.1017 61.3608 94.0861C62.3747 93.0705 63.7498 92.5 65.1836 92.5Z" fill="#4B53BC"/>
<path d="M108.363 112.711H96.2369V145.292H88.2796V112.711H76.0801V104.708H108.363V112.711Z" fill="white"/>
</svg>
