<svg clip-rule="evenodd" fill-rule="evenodd" stroke-linejoin="round" stroke-miterlimit="1.41421" viewBox="0 0 560 400" xmlns="http://www.w3.org/2000/svg"><circle cx="286.875" cy="131.25" fill="#7b83eb" r="32.086"/><path d="m284.586 138.125h-29.054l.144.639.014.055.144.592c4.362 16.534 21.203 26.834 37.909 23.182v-15.304c-.015-5.021-4.142-9.149-9.164-9.164z" fill-opacity=".098039" fill-rule="nonzero"/><path d="m277.711 145h-19.828c5.302 11.18 16.618 18.336 28.992 18.336v-9.165c-.015-5.022-4.143-9.149-9.164-9.164z" fill-opacity=".2" fill-rule="nonzero"/><circle cx="359.063" cy="141.563" fill="#5059c9" r="24.063"/><g fill-rule="nonzero"><path d="m379.688 172.5h-54.045c-2.41 0-4.393 1.983-4.393 4.393v55.756c-.31 16.57 11.12 31.225 27.266 34.96 2.325.488 4.693.733 7.068.733 18.872 0 34.404-15.521 34.416-34.393v-51.137c0-5.657-4.655-10.312-10.312-10.312z" fill="#5059c9"/><path d="m341.875 182.813v65.343c0 30.153-24.812 54.965-54.966 54.965-19.618 0-37.804-10.503-47.609-27.496-1.323-2.199-2.472-4.498-3.438-6.875-.9-2.242-1.657-4.538-2.268-6.875-1.134-4.496-1.711-9.114-1.719-13.75v-65.313c0-.004 0-.009 0-.013 0-5.65 4.649-10.299 10.299-10.299h89.402c5.65 0 10.299 4.649 10.299 10.299z" fill="#7b83eb"/><path d="m277.711 145h-19.828c5.302 11.18 16.618 18.336 28.992 18.336v-9.165c-.015-5.022-4.143-9.149-9.164-9.164z" fill-opacity=".2"/><path d="m293.75 172.5v87.106c0 4.255-2.992 7.966-7.15 8.869-.647.192-1.319.285-1.994.275h-48.744c-.9-2.242-1.657-4.538-2.268-6.875-1.134-4.496-1.711-9.114-1.719-13.75v-65.313c0-.004 0-.009 0-.013 0-5.65 4.649-10.299 10.299-10.299z" fill-opacity=".098039"/><path d="m286.875 172.5v93.981c.01.675-.083 1.347-.275 1.994-.903 4.158-4.614 7.15-8.869 7.15h-38.431c-1.323-2.199-2.472-4.498-3.437-6.875-.901-2.242-1.658-4.538-2.269-6.875-1.134-4.496-1.711-9.114-1.719-13.75v-65.313c0-.004 0-.009 0-.013 0-5.65 4.649-10.299 10.299-10.299zm0 0v80.231c-.023 5.008-4.136 9.121-9.144 9.144h-44.137c-1.134-4.496-1.711-9.114-1.719-13.75v-65.313c0-.004 0-.009 0-.013 0-5.65 4.649-10.299 10.299-10.299zm-44.688 0c-.004 0-.009 0-.013 0-5.65 0-10.299 4.649-10.299 10.299v65.326c.008 4.636.585 9.254 1.719 13.75h37.262c5.008-.023 9.121-4.136 9.144-9.144v-80.231z" fill-opacity=".2"/><path d="m179.164 145h91.665c5.027 0 9.164 4.137 9.164 9.164v91.665c0 5.027-4.137 9.164-9.164 9.164h-91.665c-5.027 0-9.164-4.137-9.164-9.164v-91.665c0-5.027 4.137-9.164 9.164-9.164z" fill="#4b53bc"/><path d="m252.363 179.203h-20.55v55.138h-13.502v-55.138h-20.667v-13.544h54.719z" fill="#fff"/></g><path d="m170 90h220v220h-220z" fill="none"/></svg>