<svg width="250" height="250" viewBox="0 0 250 250" fill="none" xmlns="http://www.w3.org/2000/svg">
<path d="M78.4902 144.183C89.5361 144.183 98.4902 135.229 98.4902 124.183C98.4902 113.137 89.5361 104.183 78.4902 104.183C67.4445 104.183 58.4902 113.137 58.4902 124.183C58.4902 135.229 67.4445 144.183 78.4902 144.183Z" fill="#7856FF"/>
<path d="M138.322 138.136C146.137 138.136 152.472 131.802 152.472 123.989C152.472 116.175 146.137 109.841 138.322 109.841C130.507 109.841 124.172 116.175 124.172 123.989C124.172 131.802 130.507 138.136 138.322 138.136Z" fill="#7856FF"/>
<path d="M184.994 131.006C188.805 131.006 191.895 127.916 191.895 124.105C191.895 120.294 188.805 117.205 184.994 117.205C181.183 117.205 178.094 120.294 178.094 124.105C178.094 127.916 181.183 131.006 184.994 131.006Z" fill="#7856FF"/>
</svg>
