<?xml version="1.0" encoding="UTF-8"?> <svg xmlns="http://www.w3.org/2000/svg" xmlns:xlink="http://www.w3.org/1999/xlink" width="200px" height="31px" viewBox="0 0 200 31" version="1.1"><title>95149C6F-D42B-4AEE-B8F1-6F4992B52207</title><g id="Symbols" stroke="none" stroke-width="1" fill="none" fill-rule="evenodd"><g id="navigation-main" transform="translate(-135.000000, -310.000000)" fill="#00237C" fill-rule="nonzero"><g id="NAV-xl-desktop-light" transform="translate(0.000000, 223.000000)"><g id="moengage-logo-white" transform="translate(135.000000, 87.000000)"><path d="M24.98375,0.0524619228 C22.15875,0.0524619228 19.87875,1.01051656 18.19375,3.62486905 C17.10625,1.29530986 14.74625,0.0524619228 11.81875,0.0524619228 C9.46,0.0524619228 6.7125,1.1916351 5.54625,3.28886292 L5.54625,1.03674752 C5.54625,0.830647111 5.365,0.649528568 5.1575,0.649528568 L0.38875,0.649528568 C0.18125,0.647030381 0,0.828148924 0,1.03424934 L0,21.7017487 C0,21.9090982 0.18125,22.0889677 0.38875,22.0889677 L5.41625,22.0889677 C5.62375,22.0889677 5.805,21.9090982 5.805,21.7017487 L5.805,9.53058264 C5.805,7.1735434 7.2825,5.30864695 9.8225,5.30864695 C12.44,5.30864695 13.60625,7.04488678 13.60625,9.3494641 L13.60625,21.6767669 C13.60625,21.8841164 13.7875,22.0639858 13.995,22.0639858 L18.97,22.0639858 C19.17875,22.0639858 19.36,21.8841164 19.36,21.6767669 L19.36,9.50435168 C19.36,7.19977436 20.8375,5.28241599 23.325,5.28241599 C25.995,5.28241599 27.10875,7.01865581 27.10875,9.32323314 L27.10875,21.651785 C27.10875,21.8578854 27.29,22.0390039 27.4975,22.0390039 L32.34375,22.0390039 C32.55125,22.0390039 32.7326349,21.8578854 32.7326349,21.651785 L32.7326349,8.18281086 C32.75875,2.43323394 28.94875,0.0512128294 24.98375,0.0512128294 L24.98375,0.0524619228 Z M47.16875,18.1031106 C44.34375,18.1031106 41.6475,19.2422838 40.68875,20.822387 C42.50375,22.0652349 44.70625,22.7384963 47.16875,22.7384963 C49.605,22.7384963 51.83375,22.0390039 53.6475,20.822387 C52.68875,19.2422838 49.89,18.1031106 47.16875,18.1031106 L47.16875,18.1031106 Z M71.66,0 C66.16625,0 61.1125,4.45426706 61.1125,11.2918043 C61.1125,18.5165606 66.295,22.7384963 72.17875,22.7384963 C77.12875,22.7384963 80.44625,19.992989 81.71625,16.6004513 C81.79375,16.3931018 81.69,16.1607704 81.45625,16.0833266 L77.25875,14.9691353 C77.07625,14.9179225 76.89625,14.9941172 76.8175,15.1764848 C76.04,16.730357 74.58875,17.7920864 72.205,17.7920864 C69.3275,17.7920864 66.9175,15.7460714 66.7875,12.9231203 L81.7675,12.9231203 C81.975,12.9231203 82.13,12.7682327 82.15625,12.5608832 C82.18125,12.223628 82.20875,11.6540414 82.20875,11.1369168 C82.26,4.22193569 78.295,0 71.66,0 Z M66.94375,8.93476509 C67.0725,6.96619389 68.73125,4.7128294 71.7375,4.7128294 C74.58875,4.7128294 76.455,6.81130631 76.5325,8.93476509 L66.94375,8.93476509 Z" id="Shape"></path><path d="M47.16875,0 C40.7675,0 35.92,4.73906036 35.92,11.3692481 C35.92,14.243412 36.85375,16.8078008 38.43375,18.750141 C39.73,17.5847369 41.67375,16.4967765 43.955,16.0570957 C42.685,15.0728101 41.83,13.4414941 41.83,11.1618986 C41.83,7.19977436 44.36875,5.4123217 47.1425,5.4123217 C49.915,5.4123217 52.455,7.22600532 52.455,11.1618986 C52.455,13.4414941 51.6,15.071561 50.355,16.0570957 C52.63625,16.4967765 54.58,17.5847369 55.87625,18.7239101 C57.4575,16.7815698 58.3901067,14.243412 58.3901067,11.3430172 C58.41625,4.73906036 53.595,0 47.16875,0 Z M189.4,0 C183.90625,0 178.8525,4.45426706 178.8525,11.2918043 C178.8525,18.5165606 184.035,22.7384963 189.91875,22.7384963 C194.895,22.7384963 198.18625,19.992989 199.45625,16.6004513 C199.53375,16.3931018 199.40375,16.1607704 199.19625,16.0833266 L194.9975,14.9691353 C194.81625,14.9179225 194.635,14.9941172 194.5575,15.1764848 C193.78,16.730357 192.32875,17.7920864 189.94375,17.7920864 C187.0675,17.7920864 184.6575,15.7460714 184.5275,12.9231203 L199.56,12.9231203 C199.76625,12.9231203 199.9225,12.7682327 199.94875,12.5608832 C199.97375,12.223628 200,11.6540414 200,11.1369168 C200,4.22193569 196.035,0 189.4,0 Z M184.70875,8.93476509 C184.83875,6.96619389 186.4975,4.7128294 189.50375,4.7128294 C192.355,4.7128294 194.22,6.81130631 194.29875,8.93476509 L184.70875,8.93476509 L184.70875,8.93476509 Z M175.53375,0.647030381 L170.71375,0.647030381 C170.50625,0.647030381 170.325,0.828148924 170.325,1.03549843 L170.325,3.18518817 C169.59875,1.73623983 167.655,0.258562334 164.235,0.258562334 C158.35125,0.258562334 154.25625,5.05008462 154.25625,10.7222177 C154.25625,16.730357 158.5325,21.1321621 164.235,21.1321621 C167.31875,21.1321621 169.34,19.7856395 170.22125,18.3879039 L170.22125,19.966758 C170.22125,24.1112499 168.17375,25.9249335 164.52,25.9249335 C161.9275,25.9249335 160.11375,24.3960432 159.595,22.2463535 C159.54375,22.0390039 159.33625,21.9090982 159.12875,21.9615602 L154.62,23.1531953 C154.4125,23.2044081 154.30875,23.4117576 154.33375,23.5928761 C155.11125,27.5300185 158.97375,31 164.70125,31 C172.76125,31 175.94875,25.6388911 175.94875,19.7606576 L175.94875,1.03674752 C175.9225,0.828148924 175.7675,0.647030381 175.53375,0.647030381 L175.53375,0.647030381 Z M165.245,16.1607704 C162.23875,16.1607704 160.0875,14.0622935 160.0875,10.7222177 C160.0875,7.40712386 162.3425,5.30864695 165.245,5.30864695 C168.04375,5.30864695 170.29875,7.40712386 170.29875,10.7222177 C170.29875,14.0373116 168.2,16.1607704 165.245,16.1607704 L165.245,16.1607704 Z M96.7475,0.0774437908 C94.44,0.0774437908 91.875,1.08796035 90.5525,3.31509388 L90.5525,1.03549843 C90.5525,0.829398018 90.37125,0.648279475 90.165,0.648279475 L85.3175,0.648279475 C85.11,0.648279475 84.93,0.829398018 84.93,1.03549843 L84.93,21.7029978 C84.93,21.9103473 85.11,22.0902168 85.3175,22.0902168 L90.34625,22.0902168 C90.5525,22.0902168 90.73375,21.9103473 90.73375,21.7029978 L90.73375,9.76416311 C90.73375,7.27846724 92.21125,5.30864695 94.75125,5.30864695 C97.55125,5.30864695 98.71625,7.1735434 98.71625,9.58179547 L98.71625,21.7029978 C98.71625,21.9103473 98.89875,22.0902168 99.105,22.0902168 L104.13375,22.0902168 C104.34125,22.0902168 104.52125,21.9103473 104.52125,21.7029978 L104.52125,8.572528 C104.52125,3.88468047 102.08625,0.0786928842 96.74625,0.0786928842 L96.7475,0.0774437908 Z M141.9725,0 C136.3225,0 133.23875,3.57365622 132.7975,6.8887501 C132.77125,6.99242485 132.85,7.06986864 132.95375,7.09609961 L137.7225,8.10661617 C137.82625,8.13159803 137.92875,8.05415424 137.955,7.95047949 C138.21375,6.16427593 139.5875,4.66161657 142.02375,4.66161657 C144.46,4.66161657 145.6525,5.93069546 145.6525,7.45958578 C145.6525,8.20904182 145.26375,8.80485938 144.04625,8.98722701 L138.75875,9.76416311 C135.1825,10.2812878 132.3575,12.4309775 132.3575,16.2644452 C132.3575,19.6307519 135.15625,22.7122653 139.7175,22.7122653 C142.88,22.7122653 144.90125,21.2633169 146.015,19.579539 L146.015,21.7029978 C146.015,21.9103473 146.19625,22.0902168 146.40375,22.0902168 L150.94,22.0902168 C151.14625,22.0902168 151.32875,21.9103473 151.32875,21.7029978 L151.32875,8.1565799 C151.3025,3.83346764 148.78875,0 141.9725,0 Z M145.6525,13.4152631 C145.6525,17.1962688 143.3975,18.3866548 140.93625,18.3866548 C139.07,18.3866548 138.13625,17.1700379 138.13625,15.900959 C138.13625,14.243412 139.3025,13.4152631 140.80625,13.2079136 L145.6525,12.4572085 L145.6525,13.4152631 L145.6525,13.4152631 Z M128.885,0.647030381 L124.06375,0.647030381 C123.85625,0.647030381 123.67625,0.828148924 123.67625,1.03549843 L123.67625,3.18518817 C122.95,1.73623983 120.97875,0.258562334 117.58375,0.258562334 C111.7,0.258562334 107.605,5.05008462 107.605,10.7222177 C107.605,16.730357 111.8825,21.1321621 117.58375,21.1321621 C120.6675,21.1321621 122.68875,19.7856395 123.57125,18.3879039 L123.57125,19.966758 C123.57125,24.1112499 121.5225,25.9249335 117.86875,25.9249335 C115.2775,25.9249335 113.4625,24.3960432 112.94375,22.2463535 C112.89375,22.0390039 112.685,21.9090982 112.4775,21.9615602 L107.96875,23.1531953 C107.76125,23.2044081 107.65625,23.4117576 107.68375,23.5928761 C108.46125,27.5300185 112.32125,31 118.05,31 C126.11,31 129.2975,25.6388911 129.2975,19.7606576 L129.2975,1.03674752 C129.2725,0.828148924 129.09125,0.647030381 128.88375,0.647030381 L128.885,0.647030381 Z M118.595,16.1607704 C115.58875,16.1607704 113.4375,14.0622935 113.4375,10.7222177 C113.4375,7.40712386 115.6925,5.30864695 118.595,5.30864695 C121.395,5.30864695 123.64875,7.40712386 123.64875,10.7222177 C123.64875,14.0373116 121.55,16.1607704 118.595,16.1607704 L118.595,16.1607704 Z" id="Shape"></path></g></g></g></g></svg> 