<svg id="svg" version="1.1" xmlns="http://www.w3.org/2000/svg" xmlns:xlink="http://www.w3.org/1999/xlink" width="400" height="400" viewBox="0, 0, 400,400"><g id="svgg"><path id="path0" d="M0.000 10.400 L 0.000 20.800 0.939 20.800 C 1.666 20.800,2.039 20.416,2.587 19.100 C 2.977 18.165,3.492 16.950,3.732 16.400 C 4.979 13.540,9.849 8.113,13.492 5.524 C 15.381 4.181,15.792 3.966,19.100 2.587 C 20.416 2.039,20.800 1.666,20.800 0.939 L 20.800 0.000 10.400 0.000 L 0.000 0.000 0.000 10.400 M379.600 1.009 C 379.600 1.733,379.910 2.144,380.700 2.468 C 386.027 4.653,386.853 5.208,391.011 9.402 C 393.440 11.852,395.536 14.351,395.975 15.321 C 396.392 16.245,397.098 17.855,397.544 18.900 C 398.136 20.288,398.577 20.800,399.178 20.800 C 399.986 20.800,400.000 20.628,400.000 10.400 L 400.000 0.000 389.800 0.000 L 379.600 0.000 379.600 1.009 M288.038 222.416 C 287.509 222.638,285.465 223.172,283.496 223.602 C 279.613 224.449,279.222 224.696,274.090 229.537 C 271.420 232.055,271.059 232.561,268.914 236.800 C 266.665 241.241,267.149 249.886,269.875 253.993 C 270.384 254.759,270.800 255.637,270.800 255.944 C 270.800 256.735,277.287 263.264,278.877 264.073 C 290.891 270.187,307.185 267.035,311.963 257.672 C 312.377 256.863,313.112 255.840,313.598 255.401 C 317.039 252.289,317.353 237.296,314.050 233.800 C 311.356 230.947,306.785 226.514,305.490 225.498 C 302.828 223.409,290.749 221.276,288.038 222.416 M0.000 389.800 L 0.000 400.000 10.400 400.000 C 20.628 400.000,20.800 399.986,20.800 399.178 C 20.800 398.577,20.288 398.136,18.900 397.544 C 17.855 397.098,16.245 396.392,15.321 395.975 C 14.351 395.536,11.852 393.440,9.402 391.011 C 5.208 386.853,4.653 386.027,2.468 380.700 C 2.144 379.910,1.733 379.600,1.009 379.600 L 0.000 379.600 0.000 389.800 M397.675 380.700 C 397.443 381.305,397.125 382.250,396.968 382.800 C 396.715 383.689,396.008 384.874,394.000 387.774 C 393.670 388.251,392.329 389.712,391.021 391.021 C 389.712 392.329,388.251 393.670,387.774 394.000 C 384.874 396.008,383.689 396.715,382.800 396.968 C 380.208 397.708,379.600 398.103,379.600 399.049 L 379.600 400.000 389.800 400.000 L 400.000 400.000 400.000 389.800 L 400.000 379.600 399.049 379.600 C 398.379 379.600,397.972 379.926,397.675 380.700 " stroke="none" fill="#0c8f53" fill-rule="evenodd"></path><path id="path1" d="M22.800 0.971 C 22.800 1.986,20.725 3.217,17.000 4.412 C 13.433 5.557,5.557 13.433,4.412 17.000 C 3.217 20.725,1.986 22.800,0.971 22.800 L 0.000 22.800 0.000 200.200 L 0.000 377.600 0.992 377.600 C 2.092 377.600,3.223 379.404,4.232 382.763 C 4.535 383.773,5.237 385.123,5.792 385.762 C 6.346 386.401,6.800 387.031,6.800 387.162 C 6.801 387.422,7.907 388.554,11.030 391.491 C 14.129 394.406,15.279 395.273,16.594 395.687 C 20.431 396.894,22.585 398.092,22.728 399.100 L 22.856 400.000 200.228 400.000 C 376.644 400.000,377.600 399.996,377.600 399.209 C 377.600 398.217,378.661 397.517,382.160 396.201 C 387.606 394.151,394.151 387.606,396.201 382.160 C 397.517 378.661,398.217 377.600,399.209 377.600 C 399.996 377.600,400.000 376.644,400.000 200.228 L 400.000 22.856 399.100 22.728 C 398.092 22.585,396.894 20.431,395.687 16.594 C 395.273 15.279,394.406 14.129,391.491 11.030 C 388.554 7.907,387.422 6.801,387.162 6.800 C 387.031 6.800,386.401 6.346,385.762 5.792 C 385.123 5.237,383.773 4.535,382.763 4.232 C 379.404 3.223,377.600 2.092,377.600 0.992 L 377.600 0.000 200.200 0.000 L 22.800 0.000 22.800 0.971 M173.700 132.217 C 177.041 132.774,179.717 133.757,183.798 135.924 C 185.744 136.958,189.643 140.258,190.412 141.523 C 190.804 142.168,191.666 143.250,192.329 143.927 C 192.991 144.605,193.656 145.573,193.807 146.080 C 193.958 146.586,194.738 148.350,195.541 150.000 L 197.000 153.000 196.999 159.000 L 196.998 165.000 195.664 167.600 C 194.931 169.030,194.095 170.960,193.808 171.889 C 193.520 172.818,192.723 174.287,192.037 175.153 C 191.350 176.020,190.520 177.372,190.192 178.157 C 189.864 178.942,189.148 179.877,188.602 180.236 C 188.031 180.610,187.430 181.547,187.190 182.436 C 186.961 183.288,186.170 184.643,185.434 185.447 C 184.697 186.251,183.885 187.606,183.630 188.456 C 183.373 189.315,182.714 190.300,182.148 190.671 C 181.587 191.038,180.685 192.343,180.143 193.569 C 179.600 194.796,178.726 196.250,178.199 196.800 C 177.673 197.350,176.957 198.483,176.609 199.317 C 176.260 200.152,175.686 200.946,175.333 201.081 C 174.981 201.216,174.190 202.435,173.575 203.790 C 172.961 205.145,172.161 206.500,171.798 206.802 C 171.435 207.103,170.705 208.203,170.177 209.245 C 169.649 210.288,168.744 211.649,168.167 212.271 C 167.589 212.892,166.845 214.078,166.512 214.907 C 166.179 215.737,165.507 216.730,165.018 217.115 C 164.528 217.499,163.641 218.899,163.046 220.225 C 162.451 221.551,161.432 223.138,160.782 223.752 C 160.132 224.366,159.600 225.098,159.600 225.379 C 159.600 225.660,159.042 226.590,158.359 227.445 C 157.677 228.300,156.601 230.022,155.968 231.271 C 155.336 232.520,154.624 233.661,154.388 233.808 C 154.151 233.954,153.539 235.019,153.028 236.175 C 152.517 237.331,151.846 238.374,151.537 238.492 C 151.228 238.611,150.460 239.764,149.832 241.054 C 149.203 242.344,148.263 243.909,147.744 244.531 C 147.225 245.153,146.800 245.833,146.800 246.042 C 146.800 247.624,139.760 256.270,136.662 258.492 C 136.036 258.941,135.065 259.734,134.503 260.255 C 133.942 260.775,132.744 261.377,131.841 261.592 C 130.939 261.808,129.390 262.275,128.400 262.630 C 125.841 263.549,120.433 264.779,118.906 264.790 C 115.857 264.813,106.538 261.664,104.486 259.918 C 103.763 259.303,103.005 258.800,102.801 258.800 C 102.296 258.800,97.600 254.131,97.600 253.629 C 97.600 253.408,97.086 252.637,96.457 251.914 C 95.829 251.191,95.085 249.880,94.805 249.000 C 94.525 248.120,93.739 246.230,93.057 244.800 C 91.407 241.336,91.167 232.842,92.650 230.400 C 93.118 229.630,93.900 227.779,94.388 226.287 C 94.875 224.794,95.683 223.084,96.183 222.487 C 96.683 221.889,97.549 220.500,98.107 219.400 C 98.664 218.300,99.589 216.964,100.160 216.430 C 100.732 215.897,101.200 215.164,101.200 214.802 C 101.200 214.440,101.820 213.420,102.577 212.535 C 103.335 211.650,104.398 209.923,104.940 208.697 C 105.482 207.471,106.281 206.278,106.715 206.046 C 107.149 205.813,107.788 204.913,108.136 204.044 C 108.483 203.175,109.316 201.840,109.986 201.077 C 110.656 200.314,111.468 198.941,111.791 198.026 C 112.114 197.110,112.991 195.605,113.739 194.681 C 114.488 193.756,115.397 192.415,115.760 191.700 C 116.124 190.985,116.555 190.400,116.719 190.400 C 116.883 190.400,117.463 189.548,118.008 188.506 C 118.554 187.464,119.653 185.619,120.451 184.406 C 121.250 183.193,122.199 181.615,122.562 180.900 C 122.924 180.185,123.400 179.600,123.619 179.600 C 123.838 179.600,124.232 179.105,124.495 178.500 C 124.758 177.895,125.834 176.118,126.887 174.552 C 127.939 172.985,128.800 171.517,128.800 171.289 C 128.800 171.062,129.430 170.122,130.200 169.200 C 130.970 168.278,131.612 167.316,131.627 167.062 C 131.641 166.808,132.268 165.790,133.020 164.800 C 133.771 163.810,134.769 162.280,135.238 161.400 C 135.707 160.520,136.421 159.438,136.826 158.995 C 137.231 158.552,137.851 157.498,138.203 156.654 C 138.556 155.809,139.017 154.912,139.227 154.659 C 140.846 152.715,142.000 151.004,142.000 150.546 C 142.000 150.247,142.598 149.327,143.328 148.501 C 144.059 147.676,144.907 146.370,145.214 145.600 C 146.268 142.950,152.196 137.210,155.623 135.521 C 159.660 133.531,161.817 132.766,164.445 132.394 C 166.044 132.167,167.438 131.896,167.543 131.791 C 167.886 131.447,169.936 131.589,173.700 132.217 M266.200 133.394 C 270.016 134.703,273.807 136.513,275.200 137.691 C 278.663 140.620,280.899 142.936,281.404 144.118 C 281.706 144.823,282.567 146.343,283.318 147.495 C 286.673 152.646,286.254 166.269,282.568 171.821 C 281.816 172.955,281.200 174.075,281.200 174.311 C 281.200 174.546,280.774 175.247,280.254 175.869 C 279.733 176.491,278.808 177.990,278.198 179.200 C 277.588 180.410,276.738 181.850,276.309 182.400 C 275.880 182.950,274.960 184.248,274.265 185.285 C 273.569 186.321,272.060 188.522,270.912 190.175 C 269.763 191.828,268.359 194.040,267.792 195.091 C 266.630 197.242,265.617 198.808,263.643 201.504 C 262.896 202.523,261.947 204.123,261.532 205.061 C 261.117 205.998,260.331 207.296,259.784 207.946 C 259.237 208.597,258.504 209.820,258.156 210.664 C 257.808 211.509,257.136 212.619,256.662 213.131 C 255.487 214.399,252.633 218.946,251.423 221.478 C 250.877 222.621,250.049 223.760,249.584 224.008 C 249.120 224.257,248.241 225.572,247.631 226.930 C 247.022 228.289,246.211 229.659,245.830 229.975 C 245.449 230.291,244.710 231.394,244.187 232.425 C 243.665 233.456,242.966 234.404,242.634 234.532 C 242.302 234.659,241.469 235.874,240.784 237.232 C 240.099 238.589,239.201 240.062,238.789 240.504 C 238.377 240.946,237.928 241.819,237.791 242.443 C 237.653 243.068,237.005 244.153,236.349 244.854 C 235.694 245.556,234.688 246.956,234.113 247.965 C 233.539 248.974,232.658 250.250,232.157 250.800 C 231.655 251.350,230.998 252.385,230.698 253.100 C 230.179 254.336,226.344 258.000,225.568 258.000 C 225.367 258.000,224.495 258.639,223.631 259.420 C 222.631 260.323,221.139 261.115,219.530 261.597 C 218.138 262.014,216.190 262.664,215.200 263.042 C 212.272 264.160,205.820 264.282,203.373 263.265 C 202.288 262.814,200.232 262.158,198.805 261.807 C 196.063 261.132,194.537 260.336,193.677 259.132 C 193.390 258.729,192.902 258.400,192.592 258.400 C 191.726 258.400,187.074 254.095,186.400 252.669 C 186.070 251.971,185.395 250.951,184.899 250.403 C 181.542 246.688,181.455 230.912,184.760 225.200 C 185.588 223.770,186.500 222.008,186.787 221.285 C 187.075 220.561,187.627 219.799,188.016 219.591 C 188.404 219.384,189.135 218.356,189.639 217.307 C 190.495 215.528,193.021 211.496,194.719 209.200 C 195.126 208.650,196.599 206.310,197.993 204.000 C 199.388 201.690,201.129 198.925,201.864 197.855 C 202.599 196.785,203.200 195.734,203.200 195.518 C 203.200 195.302,203.836 194.288,204.613 193.263 C 207.110 189.972,208.757 187.450,209.748 185.400 C 210.279 184.300,211.177 182.969,211.744 182.443 C 212.310 181.916,213.056 180.637,213.400 179.600 C 213.744 178.563,214.488 177.284,215.052 176.757 C 215.616 176.231,216.418 175.137,216.834 174.326 C 217.249 173.516,218.001 172.408,218.504 171.866 C 219.007 171.323,219.850 170.006,220.376 168.939 C 220.903 167.873,221.582 166.851,221.885 166.670 C 222.188 166.488,222.855 165.408,223.365 164.270 C 223.876 163.131,224.702 161.750,225.201 161.200 C 225.700 160.650,226.534 159.282,227.056 158.161 C 227.577 157.039,228.369 155.790,228.816 155.385 C 229.263 154.981,229.959 153.919,230.361 153.025 C 230.764 152.131,231.495 150.950,231.986 150.400 C 232.477 149.850,233.319 148.537,233.856 147.481 C 234.393 146.426,235.111 145.456,235.450 145.325 C 235.790 145.195,236.548 144.330,237.134 143.403 C 238.336 141.502,243.373 136.896,245.319 135.918 C 252.306 132.406,260.451 131.422,266.200 133.394 M299.743 223.352 C 304.939 224.601,306.303 225.597,314.050 233.800 C 317.353 237.296,317.039 252.289,313.598 255.401 C 313.112 255.840,312.377 256.863,311.963 257.672 C 307.185 267.035,290.891 270.187,278.877 264.073 C 277.287 263.264,270.800 256.735,270.800 255.944 C 270.800 255.637,270.384 254.759,269.875 253.993 C 267.149 249.886,266.665 241.241,268.914 236.800 C 271.059 232.561,271.420 232.055,274.090 229.537 C 279.222 224.696,279.613 224.449,283.496 223.602 C 285.465 223.172,287.509 222.638,288.038 222.416 C 289.557 221.777,295.006 222.213,299.743 223.352 " stroke="none" fill="#fbfbfb" fill-rule="evenodd"></path><path id="path2" d="M253.800 132.668 C 252.561 132.873,247.576 134.783,245.319 135.918 C 243.373 136.896,238.336 141.502,237.134 143.403 C 236.548 144.330,235.790 145.195,235.450 145.325 C 235.111 145.456,234.393 146.426,233.856 147.481 C 233.319 148.537,232.477 149.850,231.986 150.400 C 231.495 150.950,230.764 152.131,230.361 153.025 C 229.959 153.919,229.263 154.981,228.816 155.385 C 228.369 155.790,227.577 157.039,227.056 158.161 C 226.534 159.282,225.700 160.650,225.201 161.200 C 224.702 161.750,223.876 163.131,223.365 164.270 C 222.855 165.408,222.188 166.488,221.885 166.670 C 221.582 166.851,220.903 167.873,220.376 168.939 C 219.850 170.006,219.007 171.323,218.504 171.866 C 218.001 172.408,217.249 173.516,216.834 174.326 C 216.418 175.137,215.616 176.231,215.052 176.757 C 214.488 177.284,213.744 178.563,213.400 179.600 C 213.056 180.637,212.310 181.916,211.744 182.443 C 211.177 182.969,210.279 184.300,209.748 185.400 C 208.757 187.450,207.110 189.972,204.613 193.263 C 203.836 194.288,203.200 195.302,203.200 195.518 C 203.200 195.734,202.599 196.785,201.864 197.855 C 201.129 198.925,199.388 201.690,197.993 204.000 C 196.599 206.310,195.126 208.650,194.719 209.200 C 193.021 211.496,190.495 215.528,189.639 217.307 C 189.135 218.356,188.404 219.384,188.016 219.591 C 187.627 219.799,187.075 220.561,186.787 221.285 C 186.500 222.008,185.588 223.770,184.760 225.200 C 181.455 230.912,181.542 246.688,184.899 250.403 C 185.395 250.951,186.070 251.971,186.400 252.669 C 187.074 254.095,191.726 258.400,192.592 258.400 C 192.902 258.400,193.390 258.729,193.677 259.132 C 194.537 260.336,196.063 261.132,198.805 261.807 C 200.232 262.158,202.288 262.814,203.373 263.265 C 205.820 264.282,212.272 264.160,215.200 263.042 C 216.190 262.664,218.138 262.014,219.530 261.597 C 221.139 261.115,222.631 260.323,223.631 259.420 C 224.495 258.639,225.367 258.000,225.568 258.000 C 226.344 258.000,230.179 254.336,230.698 253.100 C 230.998 252.385,231.655 251.350,232.157 250.800 C 232.658 250.250,233.539 248.974,234.113 247.965 C 234.688 246.956,235.694 245.556,236.349 244.854 C 237.005 244.153,237.653 243.068,237.791 242.443 C 237.928 241.819,238.377 240.946,238.789 240.504 C 239.201 240.062,240.099 238.589,240.784 237.232 C 241.469 235.874,242.302 234.659,242.634 234.532 C 242.966 234.404,243.665 233.456,244.187 232.425 C 244.710 231.394,245.449 230.291,245.830 229.975 C 246.211 229.659,247.022 228.289,247.631 226.930 C 248.241 225.572,249.120 224.257,249.584 224.008 C 250.049 223.760,250.877 222.621,251.423 221.478 C 252.633 218.946,255.487 214.399,256.662 213.131 C 257.136 212.619,257.808 211.509,258.156 210.664 C 258.504 209.820,259.237 208.597,259.784 207.946 C 260.331 207.296,261.117 205.998,261.532 205.061 C 261.947 204.123,262.896 202.523,263.643 201.504 C 265.617 198.808,266.630 197.242,267.792 195.091 C 268.359 194.040,269.763 191.828,270.912 190.175 C 272.060 188.522,273.569 186.321,274.265 185.285 C 274.960 184.248,275.880 182.950,276.309 182.400 C 276.738 181.850,277.588 180.410,278.198 179.200 C 278.808 177.990,279.733 176.491,280.254 175.869 C 280.774 175.247,281.200 174.546,281.200 174.311 C 281.200 174.075,281.816 172.955,282.568 171.821 C 286.254 166.269,286.673 152.646,283.318 147.495 C 282.567 146.343,281.706 144.823,281.404 144.118 C 280.899 142.936,278.663 140.620,275.200 137.691 C 273.807 136.513,270.016 134.703,266.200 133.394 C 264.192 132.705,256.347 132.246,253.800 132.668 " stroke="none" fill="#fccc0b" fill-rule="evenodd"></path><path id="path3" d="M166.800 133.873 C 166.470 134.011,165.643 134.546,164.963 135.061 C 164.011 135.783,162.911 136.081,160.178 136.358 C 156.760 136.705,154.814 137.752,154.802 139.251 C 154.801 139.389,153.920 139.880,152.845 140.342 C 151.441 140.947,150.820 141.467,150.637 142.193 C 150.498 142.749,149.766 143.607,149.010 144.102 C 148.018 144.751,147.413 145.612,146.831 147.206 C 146.275 148.729,145.664 149.626,144.859 150.102 C 143.943 150.643,143.635 151.176,143.423 152.584 C 143.230 153.875,142.852 154.604,142.077 155.185 C 140.128 156.644,140.008 156.812,139.750 158.422 C 139.585 159.456,139.113 160.338,138.411 160.930 C 137.814 161.431,136.993 162.732,136.585 163.821 C 136.176 164.909,135.588 165.955,135.276 166.145 C 134.043 166.897,133.200 168.048,133.200 168.980 C 133.200 169.620,132.738 170.312,131.865 170.978 C 131.009 171.631,130.347 172.607,130.023 173.698 C 129.143 176.657,128.867 177.135,127.965 177.269 C 127.325 177.364,126.953 177.844,126.607 179.021 C 126.345 179.913,125.483 181.290,124.691 182.082 C 123.877 182.896,123.061 184.232,122.811 185.158 C 122.496 186.327,122.032 186.970,121.185 187.408 C 120.427 187.800,120.000 188.332,120.000 188.884 C 120.000 190.258,118.510 192.963,117.513 193.400 C 116.941 193.651,116.398 194.439,116.059 195.511 C 115.686 196.689,115.156 197.409,114.359 197.821 C 113.721 198.151,113.199 198.731,113.198 199.110 C 113.192 201.011,112.327 202.764,111.013 203.539 C 110.008 204.132,109.527 204.786,109.199 206.002 C 108.863 207.250,108.483 207.752,107.654 208.041 C 106.720 208.367,106.484 208.770,106.079 210.731 C 105.567 213.210,105.049 214.000,103.935 214.000 C 103.442 214.000,103.099 214.510,102.792 215.700 C 102.550 216.635,102.262 217.710,102.153 218.090 C 102.043 218.469,101.446 219.140,100.826 219.582 C 100.074 220.117,99.546 220.991,99.241 222.205 C 98.919 223.482,98.494 224.156,97.818 224.465 C 95.828 225.371,94.423 233.919,95.200 240.400 C 95.450 242.490,95.741 244.949,95.847 245.864 C 95.983 247.049,96.436 247.951,97.419 248.993 C 98.227 249.849,98.800 250.868,98.800 251.447 C 98.800 252.439,100.388 254.400,101.192 254.400 C 101.427 254.400,101.786 254.838,101.989 255.372 C 102.215 255.965,103.055 256.652,104.140 257.132 C 105.119 257.565,106.034 258.278,106.173 258.716 C 106.473 259.662,108.996 260.400,111.927 260.400 C 113.012 260.400,114.687 260.684,115.650 261.032 C 117.493 261.698,121.365 261.574,123.446 260.783 C 124.016 260.566,126.001 260.304,127.856 260.201 C 131.146 260.018,132.800 259.550,132.800 258.802 C 132.800 258.132,134.939 256.433,136.105 256.177 C 136.766 256.032,137.389 255.555,137.582 255.047 C 138.007 253.931,138.727 253.334,140.052 253.001 C 140.932 252.780,141.139 252.453,141.344 250.953 C 141.659 248.658,142.213 247.651,143.413 247.195 C 143.997 246.973,144.474 246.389,144.621 245.714 C 145.108 243.489,145.734 242.351,146.764 241.819 C 147.453 241.463,148.057 240.602,148.517 239.321 C 149.047 237.849,149.505 237.260,150.378 236.931 C 151.373 236.555,151.574 236.218,151.802 234.547 C 152.212 231.537,152.392 231.161,153.629 230.730 C 154.701 230.356,155.590 228.642,155.598 226.933 C 155.599 226.677,156.074 226.121,156.654 225.699 C 157.234 225.276,158.099 223.956,158.576 222.765 C 159.163 221.302,159.793 220.431,160.521 220.079 C 161.337 219.684,161.660 219.164,161.857 217.931 C 162.060 216.664,162.401 216.136,163.396 215.549 C 164.401 214.957,164.829 214.285,165.395 212.416 C 165.986 210.466,166.318 209.967,167.243 209.645 C 168.012 209.377,168.447 208.892,168.607 208.126 C 168.928 206.585,170.073 204.347,170.653 204.124 C 170.916 204.023,171.528 202.964,172.012 201.770 C 172.594 200.337,173.247 199.429,173.934 199.099 C 174.676 198.743,175.128 198.054,175.512 196.693 C 175.877 195.402,176.446 194.499,177.275 193.893 C 177.949 193.402,178.831 192.235,179.236 191.300 C 179.641 190.365,180.220 189.600,180.524 189.600 C 181.503 189.600,182.293 188.250,182.511 186.205 C 182.653 184.869,182.959 184.076,183.436 183.805 C 184.753 183.057,185.952 181.542,186.077 180.470 C 186.156 179.781,186.578 179.226,187.270 178.896 C 187.965 178.564,188.438 177.937,188.621 177.106 C 188.775 176.402,189.039 175.550,189.208 175.213 C 189.376 174.876,189.709 174.105,189.948 173.500 C 190.187 172.895,190.653 172.400,190.984 172.400 C 191.617 172.400,191.648 172.309,192.586 167.645 C 193.174 164.719,194.055 162.800,194.809 162.800 C 195.655 162.800,195.273 155.529,194.377 154.575 C 193.507 153.650,192.413 150.160,192.405 148.287 C 192.402 147.550,191.923 146.696,190.991 145.764 C 190.216 144.989,189.124 143.630,188.564 142.744 C 188.005 141.858,186.981 140.833,186.289 140.466 C 185.597 140.100,184.321 139.125,183.452 138.300 C 182.583 137.475,181.676 136.796,181.436 136.792 C 178.793 136.744,175.270 135.843,174.032 134.899 C 172.601 133.808,168.384 133.210,166.800 133.873 " stroke="none" fill="#f42852" fill-rule="evenodd"></path><path id="path4" d="M20.800 0.939 C 20.800 1.666,20.416 2.039,19.100 2.587 C 15.792 3.966,15.381 4.181,13.492 5.524 C 9.849 8.113,4.979 13.540,3.732 16.400 C 3.492 16.950,2.977 18.165,2.587 19.100 C 2.039 20.416,1.666 20.800,0.939 20.800 C 0.204 20.800,0.000 21.017,0.000 21.800 C 0.000 25.072,2.799 22.027,4.412 17.000 C 5.557 13.433,13.433 5.557,17.000 4.412 C 22.027 2.799,25.072 0.000,21.800 0.000 C 21.017 0.000,20.800 0.204,20.800 0.939 M377.600 0.992 C 377.600 2.092,379.404 3.223,382.763 4.232 C 383.773 4.535,385.123 5.237,385.762 5.792 C 386.401 6.346,387.031 6.800,387.162 6.800 C 387.422 6.801,388.554 7.907,391.491 11.030 C 394.406 14.129,395.273 15.279,395.687 16.594 C 397.319 21.783,400.000 25.036,400.000 21.828 C 400.000 21.057,399.794 20.800,399.178 20.800 C 398.577 20.800,398.136 20.288,397.544 18.900 C 397.098 17.855,396.392 16.245,395.975 15.321 C 395.536 14.351,393.440 11.852,391.011 9.402 C 386.853 5.208,386.027 4.653,380.700 2.468 C 379.910 2.144,379.600 1.733,379.600 1.009 C 379.600 0.199,379.402 0.000,378.600 0.000 C 377.802 0.000,377.600 0.201,377.600 0.992 M167.543 131.791 C 167.438 131.896,166.044 132.167,164.445 132.394 C 161.817 132.766,159.660 133.531,155.623 135.521 C 152.196 137.210,146.268 142.950,145.214 145.600 C 144.907 146.370,144.059 147.676,143.328 148.501 C 142.598 149.327,142.000 150.247,142.000 150.546 C 142.000 151.004,140.846 152.715,139.227 154.659 C 139.017 154.912,138.556 155.809,138.203 156.654 C 137.851 157.498,137.231 158.552,136.826 158.995 C 136.421 159.438,135.707 160.520,135.238 161.400 C 134.769 162.280,133.771 163.810,133.020 164.800 C 132.268 165.790,131.641 166.808,131.627 167.062 C 131.612 167.316,130.970 168.278,130.200 169.200 C 129.430 170.122,128.800 171.062,128.800 171.289 C 128.800 171.517,127.939 172.985,126.887 174.552 C 125.834 176.118,124.758 177.895,124.495 178.500 C 124.232 179.105,123.838 179.600,123.619 179.600 C 123.400 179.600,122.924 180.185,122.562 180.900 C 122.199 181.615,121.250 183.193,120.451 184.406 C 119.653 185.619,118.554 187.464,118.008 188.506 C 117.463 189.548,116.883 190.400,116.719 190.400 C 116.555 190.400,116.124 190.985,115.760 191.700 C 115.397 192.415,114.488 193.756,113.739 194.681 C 112.991 195.605,112.114 197.110,111.791 198.026 C 111.468 198.941,110.656 200.314,109.986 201.077 C 109.316 201.840,108.483 203.175,108.136 204.044 C 107.788 204.913,107.149 205.813,106.715 206.046 C 106.281 206.278,105.482 207.471,104.940 208.697 C 104.398 209.923,103.335 211.650,102.577 212.535 C 101.820 213.420,101.200 214.440,101.200 214.802 C 101.200 215.164,100.732 215.897,100.160 216.430 C 99.589 216.964,98.664 218.300,98.107 219.400 C 97.549 220.500,96.683 221.889,96.183 222.487 C 95.683 223.084,94.875 224.794,94.388 226.287 C 93.900 227.779,93.118 229.630,92.650 230.400 C 91.167 232.842,91.407 241.336,93.057 244.800 C 93.739 246.230,94.525 248.120,94.805 249.000 C 95.085 249.880,95.829 251.191,96.457 251.914 C 97.086 252.637,97.600 253.408,97.600 253.629 C 97.600 254.131,102.296 258.800,102.801 258.800 C 103.005 258.800,103.763 259.303,104.486 259.918 C 106.538 261.664,115.857 264.813,118.906 264.790 C 120.433 264.779,125.841 263.549,128.400 262.630 C 129.390 262.275,130.939 261.808,131.841 261.592 C 132.744 261.377,133.942 260.775,134.503 260.255 C 135.065 259.734,136.036 258.941,136.662 258.492 C 139.760 256.270,146.800 247.624,146.800 246.042 C 146.800 245.833,147.225 245.153,147.744 244.531 C 148.263 243.909,149.203 242.344,149.832 241.054 C 150.460 239.764,151.228 238.611,151.537 238.492 C 151.846 238.374,152.517 237.331,153.028 236.175 C 153.539 235.019,154.151 233.954,154.388 233.808 C 154.624 233.661,155.336 232.520,155.968 231.271 C 156.601 230.022,157.677 228.300,158.359 227.445 C 159.042 226.590,159.600 225.660,159.600 225.379 C 159.600 225.098,160.132 224.366,160.782 223.752 C 161.432 223.138,162.451 221.551,163.046 220.225 C 163.641 218.899,164.528 217.499,165.018 217.115 C 165.507 216.730,166.179 215.737,166.512 214.907 C 166.845 214.078,167.589 212.892,168.167 212.271 C 168.744 211.649,169.649 210.288,170.177 209.245 C 170.705 208.203,171.435 207.103,171.798 206.802 C 172.161 206.500,172.961 205.145,173.575 203.790 C 174.190 202.435,174.981 201.216,175.333 201.081 C 175.686 200.946,176.260 200.152,176.609 199.317 C 176.957 198.483,177.673 197.350,178.199 196.800 C 178.726 196.250,179.600 194.796,180.143 193.569 C 180.685 192.343,181.587 191.038,182.148 190.671 C 182.714 190.300,183.373 189.315,183.630 188.456 C 183.885 187.606,184.697 186.251,185.434 185.447 C 186.170 184.643,186.961 183.288,187.190 182.436 C 187.430 181.547,188.031 180.610,188.602 180.236 C 189.148 179.877,189.864 178.942,190.192 178.157 C 190.520 177.372,191.350 176.020,192.037 175.153 C 192.723 174.287,193.520 172.818,193.808 171.889 C 194.095 170.960,194.931 169.030,195.664 167.600 L 196.998 165.000 196.999 159.000 L 197.000 153.000 195.541 150.000 C 194.738 148.350,193.958 146.586,193.807 146.080 C 193.656 145.573,192.991 144.605,192.329 143.927 C 191.666 143.250,190.804 142.168,190.412 141.523 C 187.371 136.523,170.142 129.191,167.543 131.791 M174.032 134.899 C 175.270 135.843,178.793 136.744,181.436 136.792 C 181.676 136.796,182.583 137.475,183.452 138.300 C 184.321 139.125,185.597 140.100,186.289 140.466 C 186.981 140.833,188.005 141.858,188.564 142.744 C 189.124 143.630,190.216 144.989,190.991 145.764 C 191.923 146.696,192.402 147.550,192.405 148.287 C 192.413 150.160,193.507 153.650,194.377 154.575 C 195.273 155.529,195.655 162.800,194.809 162.800 C 194.055 162.800,193.174 164.719,192.586 167.645 C 191.648 172.309,191.617 172.400,190.984 172.400 C 190.653 172.400,190.187 172.895,189.948 173.500 C 189.709 174.105,189.376 174.876,189.208 175.213 C 189.039 175.550,188.775 176.402,188.621 177.106 C 188.438 177.937,187.965 178.564,187.270 178.896 C 186.578 179.226,186.156 179.781,186.077 180.470 C 185.952 181.542,184.753 183.057,183.436 183.805 C 182.959 184.076,182.653 184.869,182.511 186.205 C 182.293 188.250,181.503 189.600,180.524 189.600 C 180.220 189.600,179.641 190.365,179.236 191.300 C 178.831 192.235,177.949 193.402,177.275 193.893 C 176.446 194.499,175.877 195.402,175.512 196.693 C 175.128 198.054,174.676 198.743,173.934 199.099 C 173.247 199.429,172.594 200.337,172.012 201.770 C 171.528 202.964,170.916 204.023,170.653 204.124 C 170.073 204.347,168.928 206.585,168.607 208.126 C 168.447 208.892,168.012 209.377,167.243 209.645 C 166.318 209.967,165.986 210.466,165.395 212.416 C 164.829 214.285,164.401 214.957,163.396 215.549 C 162.401 216.136,162.060 216.664,161.857 217.931 C 161.660 219.164,161.337 219.684,160.521 220.079 C 159.793 220.431,159.163 221.302,158.576 222.765 C 158.099 223.956,157.234 225.276,156.654 225.699 C 156.074 226.121,155.599 226.677,155.598 226.933 C 155.590 228.642,154.701 230.356,153.629 230.730 C 152.392 231.161,152.212 231.537,151.802 234.547 C 151.574 236.218,151.373 236.555,150.378 236.931 C 149.505 237.260,149.047 237.849,148.517 239.321 C 148.057 240.602,147.453 241.463,146.764 241.819 C 145.734 242.351,145.108 243.489,144.621 245.714 C 144.474 246.389,143.997 246.973,143.413 247.195 C 142.213 247.651,141.659 248.658,141.344 250.953 C 141.139 252.453,140.932 252.780,140.052 253.001 C 138.727 253.334,138.007 253.931,137.582 255.047 C 137.389 255.555,136.766 256.032,136.105 256.177 C 134.939 256.433,132.800 258.132,132.800 258.802 C 132.800 259.550,131.146 260.018,127.856 260.201 C 126.001 260.304,124.016 260.566,123.446 260.783 C 121.365 261.574,117.493 261.698,115.650 261.032 C 114.687 260.684,113.012 260.400,111.927 260.400 C 108.996 260.400,106.473 259.662,106.173 258.716 C 106.034 258.278,105.119 257.565,104.140 257.132 C 103.055 256.652,102.215 255.965,101.989 255.372 C 101.786 254.838,101.427 254.400,101.192 254.400 C 100.388 254.400,98.800 252.439,98.800 251.447 C 98.800 250.868,98.227 249.849,97.419 248.993 C 96.436 247.951,95.983 247.049,95.847 245.864 C 95.741 244.949,95.450 242.490,95.200 240.400 C 94.423 233.919,95.828 225.371,97.818 224.465 C 98.494 224.156,98.919 223.482,99.241 222.205 C 99.546 220.991,100.074 220.117,100.826 219.582 C 101.446 219.140,102.043 218.469,102.153 218.090 C 102.262 217.710,102.550 216.635,102.792 215.700 C 103.099 214.510,103.442 214.000,103.935 214.000 C 105.049 214.000,105.567 213.210,106.079 210.731 C 106.484 208.770,106.720 208.367,107.654 208.041 C 108.483 207.752,108.863 207.250,109.199 206.002 C 109.527 204.786,110.008 204.132,111.013 203.539 C 112.327 202.764,113.192 201.011,113.198 199.110 C 113.199 198.731,113.721 198.151,114.359 197.821 C 115.156 197.409,115.686 196.689,116.059 195.511 C 116.398 194.439,116.941 193.651,117.513 193.400 C 118.510 192.963,120.000 190.258,120.000 188.884 C 120.000 188.332,120.427 187.800,121.185 187.408 C 122.032 186.970,122.496 186.327,122.811 185.158 C 123.061 184.232,123.877 182.896,124.691 182.082 C 125.483 181.290,126.345 179.913,126.607 179.021 C 126.953 177.844,127.325 177.364,127.965 177.269 C 128.867 177.135,129.143 176.657,130.023 173.698 C 130.347 172.607,131.009 171.631,131.865 170.978 C 132.738 170.312,133.200 169.620,133.200 168.980 C 133.200 168.048,134.043 166.897,135.276 166.145 C 135.588 165.955,136.176 164.909,136.585 163.821 C 136.993 162.732,137.814 161.431,138.411 160.930 C 139.113 160.338,139.585 159.456,139.750 158.422 C 140.008 156.812,140.128 156.644,142.077 155.185 C 142.852 154.604,143.230 153.875,143.423 152.584 C 143.635 151.176,143.943 150.643,144.859 150.102 C 145.664 149.626,146.275 148.729,146.831 147.206 C 147.413 145.612,148.018 144.751,149.010 144.102 C 149.766 143.607,150.498 142.749,150.637 142.193 C 150.820 141.467,151.441 140.947,152.845 140.342 C 153.920 139.880,154.801 139.389,154.802 139.251 C 154.814 137.752,156.760 136.705,160.178 136.358 C 162.911 136.081,164.011 135.783,164.963 135.061 C 167.481 133.154,171.646 133.079,174.032 134.899 M0.000 378.600 C 0.000 379.402,0.199 379.600,1.009 379.600 C 1.733 379.600,2.144 379.910,2.468 380.700 C 4.653 386.027,5.208 386.853,9.402 391.011 C 11.852 393.440,14.351 395.536,15.321 395.975 C 16.245 396.392,17.855 397.098,18.900 397.544 C 20.288 398.136,20.800 398.577,20.800 399.178 C 20.800 399.794,21.057 400.000,21.828 400.000 C 25.036 400.000,21.783 397.319,16.594 395.687 C 15.279 395.273,14.129 394.406,11.030 391.491 C 7.907 388.554,6.801 387.422,6.800 387.162 C 6.800 387.031,6.346 386.401,5.792 385.762 C 5.237 385.123,4.535 383.773,4.232 382.763 C 2.880 378.260,0.000 375.427,0.000 378.600 M397.829 378.500 C 397.505 378.995,396.772 380.642,396.201 382.160 C 394.151 387.606,387.606 394.151,382.160 396.201 C 377.762 397.856,375.753 400.000,378.600 400.000 C 379.386 400.000,379.600 399.797,379.600 399.049 C 379.600 398.103,380.208 397.708,382.800 396.968 C 383.689 396.715,384.874 396.008,387.774 394.000 C 388.897 393.223,393.223 388.897,394.000 387.774 C 396.008 384.874,396.715 383.689,396.968 382.800 C 397.708 380.208,398.103 379.600,399.049 379.600 C 399.797 379.600,400.000 379.386,400.000 378.600 C 400.000 377.301,398.655 377.239,397.829 378.500 " stroke="none" fill="#f4546c" fill-rule="evenodd"></path></g></svg>