<svg xmlns="http://www.w3.org/2000/svg" width="250" height="250" fill="none"><path fill="#FFCB00" d="M125.379 200.181c-10.759-.265-19.635-5.03-25.303-14.976-5.81-10.282-5.557-20.807.637-30.835 14.747-23.865 29.686-47.598 44.534-71.393 3.037-4.866 6.002-9.804 9.18-14.579A29.76 29.76 0 0 1 172.8 55.522a29.663 29.663 0 0 1 22.113 3.64c13.977 8.647 18.654 26.63 9.949 40.803a6020.184 6020.184 0 0 1-54.139 86.845c-5.638 8.91-14.19 13.208-25.344 13.371Z"/><path fill="#FF3D57" d="M32.972 200.18c-10.86-.264-19.686-5.242-25.243-15.148-5.728-10.281-5.364-20.827.85-30.855a16952.315 16952.315 0 0 1 47.804-76.534c2.024-3.291 4.048-6.665 6.214-9.855A29.76 29.76 0 0 1 81.27 55.457a29.675 29.675 0 0 1 21.959 4.19 29.878 29.878 0 0 1 12.863 18.348 29.98 29.98 0 0 1-3.485 22.162c-17.733 28.742-35.708 57.383-53.694 85.993-5.84 9.276-14.433 13.868-25.941 14.03Z"/><path fill="#00D647" d="M218.386 141.924c16.367.082 29.615 13.137 29.585 29.149 0 16.255-13.603 29.361-30.121 29.158-16.518-.203-29.534-13.116-29.514-29.199.02-16.317 13.32-29.209 30.05-29.108Z"/></svg>