<?xml version="1.0" encoding="UTF-8" standalone="no"?>
<svg
   xmlns:dc="http://purl.org/dc/elements/1.1/"
   xmlns:cc="http://creativecommons.org/ns#"
   xmlns:rdf="http://www.w3.org/1999/02/22-rdf-syntax-ns#"
   xmlns:svg="http://www.w3.org/2000/svg"
   xmlns="http://www.w3.org/2000/svg"
   xmlns:sodipodi="http://sodipodi.sourceforge.net/DTD/sodipodi-0.dtd"
   xmlns:inkscape="http://www.inkscape.org/namespaces/inkscape"
   width="467.00812"
   height="85"
   viewBox="0 0 467.00813 46.547619"
   class="jsx-2259896579 jsx-261554344"
   version="1.1"
   id="svg855"
   sodipodi:docname="mondaycom logo.svg"
   inkscape:version="0.92.4 (5da689c313, 2019-01-14)">
  <metadata
     id="metadata861">
    <rdf:RDF>
      <cc:Work
         rdf:about="">
        <dc:format>image/svg+xml</dc:format>
        <dc:type
           rdf:resource="http://purl.org/dc/dcmitype/StillImage" />
      </cc:Work>
    </rdf:RDF>
  </metadata>
  <defs
     id="defs859" />
  <sodipodi:namedview
     pagecolor="#ffffff"
     bordercolor="#666666"
     borderopacity="1"
     objecttolerance="10"
     gridtolerance="10"
     guidetolerance="10"
     inkscape:pageopacity="0"
     inkscape:pageshadow="2"
     inkscape:window-width="1920"
     inkscape:window-height="1017"
     id="namedview857"
     showgrid="false"
     showguides="true"
     inkscape:guide-bbox="true"
     inkscape:zoom="2.742126"
     inkscape:cx="152.96218"
     inkscape:cy="49.124021"
     inkscape:window-x="-8"
     inkscape:window-y="176"
     inkscape:window-maximized="1"
     inkscape:current-layer="svg855" />
  <title
     id="title839">Logo / monday.com</title>
  <g
     id="g853"
     style="fill:none;fill-rule:evenodd"
     transform="matrix(3.6956523,0,0,3.6956523,-3.7266276e-4,-19.226192)">
    <g
       transform="translate(0,5.552)"
       id="g847"
       style="fill-rule:nonzero">
      <path
         d="M 2.62,12.627 A 2.63,2.63 0 0 1 0.328,11.297 2.543,2.543 0 0 1 0.4,8.679 L 5.12,1.267 a 2.632,2.632 0 0 1 2.33,-1.266 2.627,2.627 0 0 1 2.255,1.39 c 0.44,0.832 0.385,1.833 -0.142,2.614 l -4.717,7.412 a 2.631,2.631 0 0 1 -2.226,1.21 z"
         id="path841"
         inkscape:connector-curvature="0"
         style="fill:#f62b54" />
      <path
         d="M 10.716,12.627 C 9.764,12.627 8.888,12.118 8.428,11.3 A 2.535,2.535 0 0 1 8.5,8.689 l 4.711,-7.395 a 2.628,2.628 0 0 1 2.332,-1.293 c 0.96,0.021 1.83,0.558 2.27,1.398 0.437,0.84 0.373,1.847 -0.17,2.626 l -4.71,7.395 a 2.627,2.627 0 0 1 -2.217,1.207 z"
         id="path843"
         inkscape:connector-curvature="0"
         style="fill:#ffcc00" />
      <ellipse
         cx="18.631001"
         cy="10.31"
         rx="2.4300001"
         ry="2.3789999"
         id="ellipse845"
         style="fill:#00ca72" />
    </g>
    <path
       d="m 124.197,13.621 c 0.734,0 1.173,0.522 1.173,1.377 v 2.93 h 0.997 v -2.997 c 0,-1.454 -0.685,-2.297 -1.973,-2.297 -0.504,0 -1.304,0.138 -1.781,1.065 a 1.633,1.633 0 0 0 -1.337,-1.01 2.3,2.3 0 0 0 -0.56,-0.033 c -0.41,0.033 -1.14,0.288 -1.413,0.866 v -0.777 h -0.998 v 5.183 h 0.998 v -2.797 c 0,-1.088 0.712,-1.51 1.425,-1.51 0.668,0 1.107,0.511 1.107,1.366 v 2.941 h 0.992 v -2.797 c 0,-0.866 0.52,-1.52 1.37,-1.51 z m -9.555,3.441 c 0.456,0.01 0.896,-0.172 1.215,-0.502 0.32,-0.33 0.49,-0.779 0.473,-1.24 0,-1.044 -0.768,-1.699 -1.688,-1.699 -0.921,0 -1.688,0.655 -1.688,1.699 -0.018,0.46 0.152,0.908 0.47,1.237 0.318,0.33 0.756,0.513 1.21,0.505 z m 0,0.972 c -1.458,0 -2.675,-1.077 -2.675,-2.72 0,-1.643 1.217,-2.686 2.675,-2.686 1.458,0 2.685,1.043 2.685,2.686 0,1.643 -1.234,2.725 -2.692,2.725 z m -7.81,-2.72 -0.01,0.006 c 0,-1.643 1.249,-2.686 2.717,-2.692 a 2.635,2.635 0 0 1 1.973,0.832 l -0.756,0.644 a 1.704,1.704 0 0 0 -1.217,-0.488 c -0.92,0 -1.72,0.655 -1.72,1.698 0,0.705 0.419,1.34 1.062,1.61 0.643,0.27 1.383,0.12 1.875,-0.378 l 0.767,0.644 a 2.651,2.651 0 0 1 -1.984,0.844 c -1.457,0 -2.707,-1.077 -2.707,-2.72 z m -3.193,1.619 a 0.69,0.69 0 0 1 0.682,-0.698 0.69,0.69 0 0 1 0.682,0.698 0.69,0.69 0 0 1 -0.682,0.655 0.69,0.69 0 0 1 -0.682,-0.655 z"
       id="path849"
       inkscape:connector-curvature="0"
       style="fill:#333333;fill-rule:nonzero" />
    <path
       d="m 106.367,6.156 h -3.551 l -2.489,6.417 -2.476,-6.417 H 94.3 L 98.617,16.296 95.932,23 h 3.525 z m -21.596,5.64 c 0,1.62 1.416,2.686 2.807,2.686 1.367,0 2.71,-0.992 2.71,-2.687 0,-1.695 -1.343,-2.688 -2.71,-2.688 -1.391,0 -2.807,1.067 -2.807,2.688 z m 5.517,5.662 v -1.283 c -0.72,1.09 -2.4,1.502 -3.262,1.502 -2.854,0 -5.709,-2.25 -5.709,-5.882 0,-3.631 2.854,-5.881 5.709,-5.881 0.719,0 2.399,0.24 3.262,1.5 V 6.16 h 3.31 v 11.3 l -3.31,-0.001 z m -9.913,0 h -3.31 v -1.404 c -0.553,1.04 -1.894,1.646 -3.286,1.646 -2.879,0 -5.422,-2.299 -5.422,-5.859 0,-3.627 2.543,-5.929 5.422,-5.929 1.39,0 2.735,0.58 3.286,1.621 V 0 h 3.31 z M 76.993,11.77 c 0,-1.694 -1.223,-2.687 -2.59,-2.687 -1.416,0 -2.592,1.065 -2.592,2.687 0,1.674 1.176,2.734 2.591,2.734 1.393,0.002 2.591,-1.112 2.591,-2.734 z m -16.82,-0.292 c 0,-1.718 0.888,-2.299 2.063,-2.299 1.127,0 1.943,0.75 1.943,2.25 v 6.027 h 3.334 v -6.752 c 0,-3.218 -1.584,-4.792 -4.103,-4.792 -1.319,0 -2.638,0.75 -3.238,1.888 V 6.156 H 56.84 v 11.3 h 3.333 z M 50.07,17.65 c -3.166,0 -5.807,-2.323 -5.807,-5.881 0,-3.56 2.638,-5.86 5.807,-5.86 3.169,0 5.83,2.3 5.83,5.86 0,3.56 -2.664,5.882 -5.83,5.882 z m 0,-3.29 c 1.39,0 2.543,-1.018 2.543,-2.59 0,-1.525 -1.152,-2.566 -2.543,-2.566 a 2.468,2.468 0 0 0 -1.802,0.741 2.513,2.513 0 0 0 -0.717,1.825 c 10e-4,1.574 1.152,2.59 2.519,2.59 z M 38.286,9.18 c 0.983,0 1.847,0.775 1.847,2.25 v 6.028 h 3.31 V 11.04 c 0,-3.412 -1.659,-5.13 -4.318,-5.13 -0.79,0 -2.278,0.24 -3.358,2.008 C 35.143,6.611 33.944,5.933 32.172,5.933 A 3.203,3.203 0 0 0 29.246,7.797 V 6.157 H 25.91 v 11.3 h 3.333 v -5.979 c 0,-1.718 0.936,-2.299 1.943,-2.299 0.96,0 1.822,0.75 1.847,2.178 v 6.1 h 3.334 v -5.979 c 0,-1.643 0.864,-2.297 1.919,-2.297 z"
       id="path851"
       inkscape:connector-curvature="0"
       style="fill:#333333" />
  </g>
</svg>
