<svg width="250" height="250" viewBox="0 0 250 250" fill="none" xmlns="http://www.w3.org/2000/svg">
<path d="M125.257 175.775C117.997 175.597 112.007 172.39 108.182 165.694C104.262 158.772 104.432 151.686 108.612 144.935C118.563 128.869 128.644 112.892 138.664 96.8736C140.713 93.5974 142.714 90.2734 144.858 87.0588C147.705 82.662 152.154 79.5519 157.257 78.3906C162.359 77.2294 167.713 78.1088 172.178 80.8416C181.61 86.6621 184.765 98.7682 178.892 108.309C166.885 127.893 154.707 147.382 142.359 166.774C138.555 172.773 132.783 175.666 125.257 175.775V175.775Z" fill="#FFCB00"/>
<path d="M62.8999 175.775C55.5715 175.597 49.6158 172.246 45.8662 165.577C42.0005 158.656 42.2464 151.556 46.4399 144.805C57.1446 127.606 67.8971 110.432 78.6974 93.2828C80.0634 91.0668 81.4294 88.796 82.8909 86.6484C85.8548 82.3471 90.3738 79.3697 95.4914 78.3466C100.609 77.3236 105.923 78.3351 110.309 81.1672C114.695 83.9992 117.808 88.4294 118.989 93.5197C120.17 98.61 119.327 103.961 116.637 108.439C104.671 127.789 92.5416 147.069 80.4049 166.33C76.464 172.574 70.6655 175.666 62.8999 175.775V175.775Z" fill="#FF3D57"/>
<path d="M188.016 136.557C199.06 136.612 208 145.401 207.98 156.18C207.98 167.123 198.801 175.946 187.654 175.809C176.508 175.673 167.725 166.979 167.738 156.152C167.752 145.168 176.726 136.489 188.016 136.557Z" fill="#00D647"/>
</svg>
