<svg width="250" height="250" viewBox="0 0 250 250" fill="none" xmlns="http://www.w3.org/2000/svg">
<path d="M118.076 60.6218L121.847 67.7044C122.695 69.0114 123.613 70.1683 124.695 71.2457C127.867 74.3777 130.823 77.7205 133.544 81.2513C139.933 89.6408 144.243 98.9576 147.321 109.034C149.166 115.189 150.169 121.503 150.244 127.888C150.553 146.977 144.009 163.367 130.815 176.989C128.669 179.149 126.351 181.131 123.883 182.915C122.576 182.915 121.958 181.913 121.419 180.99C120.438 179.278 119.785 177.399 119.494 175.448C119.03 173.139 118.725 170.83 118.876 168.445V167.368C118.77 167.138 117.617 61.165 118.076 60.6218Z" fill="#599636"/>
<path d="M118.077 60.3877C117.922 60.0786 117.768 60.3127 117.613 60.4628C117.688 62.0082 117.149 63.3859 116.306 64.7017C115.379 66.0087 114.151 67.0111 112.919 68.0884C106.075 74.0141 100.688 81.1717 96.3741 89.1771C90.6339 99.951 87.6755 111.498 86.8365 123.654C86.4524 128.038 88.223 143.51 89.6051 147.974C93.376 159.826 100.149 169.756 108.923 178.376C111.078 180.451 113.383 182.376 115.767 184.226C116.461 184.226 116.536 183.608 116.695 183.149C116.998 182.166 117.23 181.163 117.388 180.146L118.933 168.604L118.077 60.3877Z" fill="#6CAC48"/>
<path d="M121.848 187.604C122.002 185.838 122.85 184.372 123.773 182.91C122.846 182.526 122.157 181.762 121.618 180.91C121.154 180.103 120.769 179.253 120.47 178.371C119.393 175.139 119.163 171.748 118.854 168.445V166.445C118.47 166.754 118.39 169.368 118.39 169.756C118.166 173.247 117.702 176.719 117.004 180.146C116.774 181.533 116.62 182.915 115.768 184.147C115.768 184.301 115.768 184.456 115.843 184.685C117.229 188.765 117.609 192.92 117.843 197.155V198.7C117.843 200.546 117.768 200.158 119.3 200.776C119.918 201.005 120.607 201.085 121.225 201.544C121.689 201.544 121.764 201.16 121.764 200.851L121.534 198.312V191.229C121.459 189.993 121.689 188.765 121.843 187.609L121.848 187.604Z" fill="#C2BFBF"/>
</svg>
