<svg xmlns="http://www.w3.org/2000/svg" xmlns:xlink="http://www.w3.org/1999/xlink" width="280.136" height="622.53" preserveAspectRatio="xMidYMid"><defs><path id="a" d="M454.48 258.27C421.69 113.73 344.25 66.21 335.9 48.07a224.557 224.557 0 0 1-17.97-35.94c-.21-.58-.45-1.15-.72-1.7a38.512 38.512 0 0 1-13.47 30.72c-18.78 14.64-114.99 95.31-122.89 259.61-7.28 152.72 110.67 244.34 126.66 256.02.18.13 1.62 1.13 1.8 1.26 4.58-10.42 8.98-40.33 12.39-81.39.72 33.06 5.48 68.54 21.92 76 .09-.06.81-.57.9-.63 7.06-5.01 13.78-10.47 20.12-16.35 39.98-36.83 115.44-128.01 89.84-277.4"/><path id="b" d="M321.43 477.01c-3.23 40.97-7.9 70.79-12.39 80.85 0 0 5.03 35.93 8.98 74.38h12.49a745.88 745.88 0 0 1 13.11-79.59c-16.26-7.55-21.02-42.94-21.74-76"/><path id="c" d="M454.48 258.27C421.69 113.73 344.25 66.21 335.9 48.07a216.527 216.527 0 0 1-17.97-35.94c7.73 30.28 6.47 272.01 7.28 300.94 1.71 54.55.54 109.15-3.51 163.58.72 33.06 5.48 68.54 21.83 76.09.1-.07.89-.65.99-.72a192.71 192.71 0 0 0 20.12-16.26c.08-.06.65-.56.72-.63 39.17-35.93 114.72-127.47 89.12-276.86"/></defs><g transform="translate(-180.027 -10.21)"><use xlink:href="#a" fill="#12a950"/><use xlink:href="#a" fill-opacity="0" stroke="#000" stroke-opacity="0"/></g><g transform="translate(-180.027 -10.21)"><use xlink:href="#b" fill="#b8c5c2"/><use xlink:href="#b" fill-opacity="0" stroke="#000" stroke-opacity="0"/></g><g transform="translate(-180.027 -10.21)"><use xlink:href="#c" fill="#13994f"/><use xlink:href="#c" fill-opacity="0" stroke="#000" stroke-opacity="0"/></g></svg>