<?xml version="1.0" encoding="UTF-8" standalone="no"?>
<svg
   version="1.1"
   preserveAspectRatio="xMidYMid"
   viewBox="0 0 280.13626 622.53033"
   width="280.13626"
   height="622.53033"
   id="svg646"
   sodipodi:docname="mongodb.svg"
   inkscape:version="1.2.1 (9c6d41e410, 2022-07-14, custom)"
   xmlns:inkscape="http://www.inkscape.org/namespaces/inkscape"
   xmlns:sodipodi="http://sodipodi.sourceforge.net/DTD/sodipodi-0.dtd"
   xmlns:xlink="http://www.w3.org/1999/xlink"
   xmlns="http://www.w3.org/2000/svg"
   xmlns:svg="http://www.w3.org/2000/svg">
  <sodipodi:namedview
     id="namedview648"
     pagecolor="#ffffff"
     bordercolor="#666666"
     borderopacity="1.0"
     inkscape:showpageshadow="2"
     inkscape:pageopacity="0.0"
     inkscape:pagecheckerboard="0"
     inkscape:deskcolor="#d1d1d1"
     showgrid="false"
     inkscape:zoom="1.6046875"
     inkscape:cx="139.59104"
     inkscape:cy="309.71762"
     inkscape:window-width="3840"
     inkscape:window-height="2083"
     inkscape:window-x="0"
     inkscape:window-y="40"
     inkscape:window-maximized="1"
     inkscape:current-layer="svg646" />
  <defs
     id="defs616">
    <path
       d="M 454.48,258.27 C 421.69,113.73 344.25,66.21 335.9,48.07 328.85,36.65 322.83,24.62 317.93,12.13 c -0.21,-0.58 -0.45,-1.15 -0.72,-1.7 0.44,11.76 -4.52,23.07 -13.47,30.72 -18.78,14.64 -114.99,95.31 -122.89,259.61 -7.28,152.72 110.67,244.34 126.66,256.02 0.18,0.13 1.62,1.13 1.8,1.26 4.58,-10.42 8.98,-40.33 12.39,-81.39 0.72,33.06 5.48,68.54 21.92,76 0.09,-0.06 0.81,-0.57 0.9,-0.63 7.06,-5.01 13.78,-10.47 20.12,-16.35 39.98,-36.83 115.44,-128.01 89.84,-277.4"
       id="b3m9u0RT9j" />
    <path
       d="m 321.43,477.01 c -3.23,40.97 -7.9,70.79 -12.39,80.85 0,0 5.03,35.93 8.98,74.38 1.25,0 11.24,0 12.49,0 2.93,-26.75 7.31,-53.32 13.11,-79.59 -16.26,-7.55 -21.02,-42.94 -21.74,-76"
       id="aevBvhJN5" />
    <path
       d="M 454.48,258.27 C 421.69,113.73 344.25,66.21 335.9,48.07 328.81,36.67 322.79,24.64 317.93,12.13 c 7.73,30.28 6.47,272.01 7.28,300.94 1.71,54.55 0.54,109.15 -3.51,163.58 0.72,33.06 5.48,68.54 21.83,76.09 0.1,-0.07 0.89,-0.65 0.99,-0.72 7.06,-4.96 13.79,-10.4 20.12,-16.26 0.08,-0.06 0.65,-0.56 0.72,-0.63 39.17,-35.93 114.72,-127.47 89.12,-276.86"
       id="akHagKvoh" />
  </defs>
  <g
     id="g644"
     transform="translate(-180.02666,-10.209663)">
    <g
       id="g642">
      <g
         id="g624">
        <use
           xlink:href="#b3m9u0RT9j"
           opacity="1"
           fill="#12a950"
           fill-opacity="1"
           id="use618" />
        <g
           id="g622">
          <use
             xlink:href="#b3m9u0RT9j"
             opacity="1"
             fill-opacity="0"
             stroke="#000000"
             stroke-width="1"
             stroke-opacity="0"
             id="use620" />
        </g>
      </g>
      <g
         id="g632">
        <use
           xlink:href="#aevBvhJN5"
           opacity="1"
           fill="#b8c5c2"
           fill-opacity="1"
           id="use626" />
        <g
           id="g630">
          <use
             xlink:href="#aevBvhJN5"
             opacity="1"
             fill-opacity="0"
             stroke="#000000"
             stroke-width="1"
             stroke-opacity="0"
             id="use628" />
        </g>
      </g>
      <g
         id="g640">
        <use
           xlink:href="#akHagKvoh"
           opacity="1"
           fill="#13994f"
           fill-opacity="1"
           id="use634" />
        <g
           id="g638">
          <use
             xlink:href="#akHagKvoh"
             opacity="1"
             fill-opacity="0"
             stroke="#000000"
             stroke-width="1"
             stroke-opacity="0"
             id="use636" />
        </g>
      </g>
    </g>
  </g>
</svg>
