<?xml version="1.0" encoding="UTF-8" standalone="no"?>
<svg
   viewBox="0 0 202.90004 202.90004"
   overflow="visible"
   version="1.1"
   id="svg772"
   sodipodi:docname="mqtt.svg"
   width="202.90004"
   height="202.90004"
   inkscape:version="1.2.1 (9c6d41e410, 2022-07-14, custom)"
   xmlns:inkscape="http://www.inkscape.org/namespaces/inkscape"
   xmlns:sodipodi="http://sodipodi.sourceforge.net/DTD/sodipodi-0.dtd"
   xmlns="http://www.w3.org/2000/svg"
   xmlns:svg="http://www.w3.org/2000/svg">
  <defs
     id="defs776" />
  <sodipodi:namedview
     id="namedview774"
     pagecolor="#ffffff"
     bordercolor="#666666"
     borderopacity="1.0"
     inkscape:showpageshadow="2"
     inkscape:pageopacity="0.0"
     inkscape:pagecheckerboard="0"
     inkscape:deskcolor="#d1d1d1"
     showgrid="false"
     inkscape:zoom="1.2336364"
     inkscape:cx="503.38983"
     inkscape:cy="119.15991"
     inkscape:window-width="3840"
     inkscape:window-height="2083"
     inkscape:window-x="0"
     inkscape:window-y="40"
     inkscape:window-maximized="1"
     inkscape:current-layer="svg772" />
  <path
     d="m 0.1,20.000045 v 31 h 0.6 c 84.4,0 153.2,67.999995 153.9,151.799995 h 30.1 C 183.9,102.10004 101.5,20.300045 0.1,20.000045 Z m 0,64 v 30.999995 h 0.6 c 48.9,0 88.8,39.3 89.5,87.8 h 30.1 C 119.6,137.40004 66,84.300045 0.1,84.000045 Z M 202.9,122.60004 V 60.100045 c -7.7,-10.5 -17.2,-22.5 -26.7,-31.8 -10.6,-10.5 -23,-20.0000002 -35,-28.300000179083 H 74.8 C 133,20.900045 179.7,65.800045 202.9,122.60004 Z"
     fill="#ffffff"
     id="path768" />
  <path
     d="M 0.6,115.00004 H 0 v 77.6 c 0,5.6 4.6,10.2 10.2,10.2 h 79.9 c -0.7,-48.5 -40.5,-87.8 -89.5,-87.8 z m 0,-63.999995 H 0 v 33 c 65.9,0.3 119.5,53.299995 120.2,118.799995 h 34.2 C 153.8,119.00004 85.1,51.000045 0.6,51.000045 Z M 202.9,192.70004 v -70.1 C 179.7,65.800045 133,20.900045 74.9,4.4820917e-5 H 10.2 C 4.6,4.4820917e-5 0,4.6000448 0,10.200045 v 9.9 c 101.4,0.3 183.9,81.999995 184.5,182.799995 h 8.2 c 5.7,-0.1 10.2,-4.6 10.2,-10.2 z M 176.2,28.300045 c 9.4,9.4 19,21.3 26.7,31.8 v -50 A 10.07,10.07 0 0 0 192.8,4.4820917e-5 H 141.3 C 153.3,8.3000448 165.7,17.800045 176.2,28.300045 Z"
     fill="#660066"
     id="path770" />
</svg>
