<?xml version="1.0" encoding="utf-8"?>
<!-- Generator: Adobe Illustrator 26.0.3, SVG Export Plug-In . SVG Version: 6.00 Build 0)  -->
<svg version="1.0" id="katman_1" xmlns="http://www.w3.org/2000/svg" xmlns:xlink="http://www.w3.org/1999/xlink" x="0px" y="0px"
	 viewBox="0 0 32.2 21.9" style="enable-background:new 0 0 32.2 21.9;" xml:space="preserve">
<style type="text/css">
	.st0{fill:#1B93EB;}
	.st1{fill:url(#SVGID_1_);}
	.st2{fill:#C3F1FF;}
	.st3{fill:#FFFFFF;}
</style>
<path class="st0" d="M23.1,10.4c0,4.6-5.5,8.2-6.7,9c-0.1,0.1-0.3,0.1-0.5,0c-1.2-0.7-6.8-4.4-6.8-9V4.9c0-0.2,0.2-0.4,0.4-0.4
	c4.3-0.1,3.4-2,6.6-2s2.2,1.9,6.5,2c0.2,0,0.4,0.2,0.4,0.4L23.1,10.4z"/>
<linearGradient id="SVGID_1_" gradientUnits="userSpaceOnUse" x1="16.113" y1="5.7159" x2="16.113" y2="21.3059" gradientTransform="matrix(1 0 0 -1 0 23.8519)">
	<stop  offset="0" style="stop-color:#1B93EB"/>
	<stop  offset="0.21" style="stop-color:#2095EB"/>
	<stop  offset="0.44" style="stop-color:#2E9CED"/>
	<stop  offset="0.69" style="stop-color:#45A7EF"/>
	<stop  offset="0.95" style="stop-color:#64B6F1"/>
	<stop  offset="1" style="stop-color:#6BB9F2"/>
</linearGradient>
<path class="st1" d="M22.5,10.4c0,4.2-5.1,7.6-6.2,8.2c-0.1,0.1-0.3,0.1-0.4,0c-1.1-0.7-6.2-4.1-6.2-8.2v-5c0-0.2,0.1-0.4,0.3-0.5
	c0,0,0,0,0,0c3.9-0.1,3-1.8,6-1.8s2.1,1.8,6,1.8c0.2,0,0.4,0.2,0.4,0.4L22.5,10.4z"/>
<path class="st2" d="M16.1,8.5c1.4,0,2.6,1.1,2.8,2.5c0,0.2,0.3,0.4,0.5,0.4h1.4c0.3,0,0.5-0.2,0.5-0.5c0,0,0,0,0-0.1
	c-0.3-2.9-2.9-5-5.8-4.7c-2.5,0.3-4.4,2.2-4.7,4.7c0,0.3,0.2,0.5,0.4,0.5c0,0,0,0,0.1,0h1.4c0.2,0,0.4-0.2,0.5-0.4
	C13.5,9.5,14.7,8.5,16.1,8.5z"/>
<circle class="st3" cx="16.1" cy="11.3" r="1.9"/>
</svg>
