<svg width="250" height="250" viewBox="0 0 250 250" fill="none" xmlns="http://www.w3.org/2000/svg">
<path d="M140.811 120.998L114.536 129.641L91.6775 139.804L85.2825 141.505C83.6538 143.065 81.9461 144.646 80.0991 146.246C78.0734 148.007 76.1867 149.608 74.7367 150.768C73.1281 152.048 70.7449 154.449 69.5336 155.969C67.7262 158.25 66.2964 160.671 65.6806 162.532C64.5883 165.893 65.1247 169.294 67.2298 172.435C69.9308 176.436 75.3129 180.518 81.5884 183.299C84.7861 184.719 90.1681 186.54 94.2194 187.56C100.952 189.281 113.98 191.141 121.149 191.422C122.599 191.482 124.545 191.482 124.625 191.422C124.784 191.321 125.896 189.181 127.187 186.52C131.596 177.457 134.773 168.954 136.501 161.692C137.534 157.29 138.348 151.428 138.884 144.486C139.023 142.545 139.082 136.043 138.963 133.842C138.784 130.241 138.467 127.32 137.971 124.459C137.891 124.039 137.871 123.659 137.911 123.639C137.99 123.579 138.228 123.499 141.466 122.559L140.811 120.998V120.998H140.811V120.998ZM134.813 124.539C135.052 124.539 135.687 130.681 135.846 134.563C135.886 135.383 135.865 135.923 135.826 135.923C135.667 135.923 132.469 134.022 130.186 132.582C128.2 131.322 124.427 128.801 123.831 128.32C123.632 128.181 123.652 128.161 125.28 127.6C128.041 126.66 134.595 124.539 134.813 124.539ZM121.428 128.981C121.606 128.981 122.063 129.24 123.155 129.921C127.246 132.502 132.807 135.623 135.19 136.663C135.925 136.983 136.004 136.863 134.317 138.024C130.702 140.505 126.194 142.945 120.672 145.406C119.7 145.846 118.885 146.186 118.866 146.186C118.826 146.186 118.945 145.686 119.104 145.086C120.434 140.104 121.189 135.062 121.229 131.021C121.249 129.02 121.249 129.02 121.428 128.961C121.388 128.981 121.407 128.981 121.428 128.981ZM118.667 130.041C118.786 130.161 118.707 134.642 118.548 135.863C118.19 138.784 117.634 141.505 116.721 144.566C116.502 145.306 116.304 145.926 116.264 145.966C116.184 146.066 113.464 143.385 112.57 142.345C111.021 140.544 109.81 138.744 108.916 136.983C108.459 136.083 107.744 134.322 107.804 134.262C108.121 134.042 118.588 129.961 118.667 130.041ZM105.679 135.183C105.698 135.183 105.718 135.183 105.738 135.202C105.778 135.242 105.917 135.563 106.036 135.923C106.672 137.663 108.101 140.224 109.333 141.865C110.683 143.665 112.451 145.586 113.92 146.846C114.397 147.246 114.834 147.626 114.893 147.687C115.013 147.807 115.052 147.787 111.815 149.027C108.062 150.468 103.971 151.908 99.2835 153.428C98.1638 153.792 97.0452 154.159 95.9276 154.529C95.7486 154.589 95.8083 154.489 96.3246 153.669C98.6482 150.007 102.183 142.825 104.169 137.743C104.507 136.863 104.844 135.983 104.904 135.783C104.984 135.502 105.083 135.403 105.341 135.262C105.48 135.223 105.619 135.183 105.679 135.183ZM101.707 136.843C101.766 136.883 100.753 139.024 99.7604 140.984C97.8339 144.766 95.7288 148.487 92.9087 153.009C92.4322 153.789 91.9755 154.509 91.9158 154.589C91.8166 154.729 91.7767 154.689 91.459 154.069C90.7838 152.728 90.2275 151.008 89.9297 149.427C89.6317 147.867 89.6914 145.146 90.0291 143.465C90.287 142.225 90.2674 142.245 90.8632 141.945C93.4052 140.644 101.627 136.763 101.707 136.843ZM135.965 138.244V139.084C135.965 143.545 135.488 149.667 134.793 154.129C134.674 154.909 134.574 155.549 134.555 155.57C134.555 155.57 133.979 155.41 133.304 155.209C130.325 154.269 127.088 152.888 124.168 151.268C122.241 150.208 119.441 148.467 119.521 148.387C119.54 148.367 120.375 147.927 121.348 147.407C125.241 145.366 128.974 143.165 132.211 140.985C133.423 140.164 135.25 138.844 135.647 138.484L135.965 138.244ZM86.7123 144.165C86.7917 144.165 86.7719 144.325 86.6527 145.046C86.5732 145.566 86.474 146.526 86.4346 147.186C86.2753 150.107 86.7523 152.268 88.1821 155.229C88.5793 156.049 88.8973 156.73 88.8771 156.749C88.738 156.87 75.591 160.751 71.4599 161.891C70.2287 162.231 69.1564 162.531 69.0766 162.551C68.9378 162.591 68.9179 162.572 68.9774 162.231C69.4341 159.29 71.6585 155.449 74.7566 152.208C76.8221 150.047 78.4706 148.787 81.2906 147.166C83.3163 146.006 86.4343 144.266 86.6726 144.185C86.6728 144.165 86.6926 144.165 86.7123 144.165ZM117.694 149.747C117.714 149.727 118.19 149.988 118.766 150.328C123.016 152.808 128.934 155.109 133.979 156.29L134.436 156.39L133.8 156.749C131.159 158.23 122.48 161.871 113.603 165.212C112.312 165.692 111.041 166.173 110.802 166.273C110.564 166.373 110.345 166.433 110.345 166.413C110.345 166.393 110.703 165.692 111.159 164.832C113.642 160.151 116.145 154.449 117.415 150.487C117.575 150.107 117.674 149.767 117.694 149.747ZM114.536 150.788C114.556 150.808 114.397 151.228 114.199 151.708C112.471 155.929 110.206 160.531 107.307 165.693C106.572 167.013 105.957 168.074 105.936 168.074C105.917 168.074 105.321 167.713 104.606 167.273C100.396 164.672 96.662 161.471 94.2195 158.37L93.8618 157.93L95.6689 157.43C102.143 155.65 107.644 153.729 113.106 151.368C113.881 151.048 114.516 150.788 114.536 150.788ZM134.158 157.69C134.158 157.69 134.178 157.71 134.158 157.69C134.178 158.15 133.165 162.272 132.33 165.252C131.635 167.753 131.039 169.714 129.947 173.175C129.471 174.696 129.054 175.956 129.034 175.956C129.014 175.956 128.895 175.936 128.776 175.896C122.877 174.815 117.595 173.315 112.63 171.314C111.239 170.754 109.253 169.854 109.134 169.754C109.095 169.713 110.286 169.154 111.796 168.493C120.832 164.512 130.206 159.99 133.423 158.05C133.8 157.81 134.098 157.69 134.158 157.69ZM88.8574 159.251C88.8971 159.29 86.3749 162.952 82.8396 167.933C81.6084 169.674 80.1785 171.715 79.6424 172.475C79.1061 173.235 78.292 174.436 77.8352 175.156L77.0007 176.456L76.1069 175.696C75.0543 174.816 73.2274 172.935 72.4132 171.895C70.7051 169.754 69.5534 167.493 69.0966 165.433C68.8781 164.472 68.8781 163.992 69.0765 163.932C69.3743 163.852 74.677 162.592 79.6422 161.431C82.4028 160.791 85.6 160.031 86.7519 159.751C87.9039 159.47 88.8376 159.251 88.8574 159.251ZM91.3993 160.231L92.0346 160.951C94.8948 164.172 97.8141 166.553 101.349 168.634C101.985 168.994 102.461 169.314 102.421 169.334C102.283 169.434 90.148 173.775 84.5278 175.736C81.3702 176.856 78.7684 177.756 78.7488 177.756C78.729 177.756 78.5501 177.637 78.3512 177.496L77.994 177.236L78.5698 176.396C80.4365 173.675 82.7804 170.694 87.8843 164.492L91.3993 160.231ZM107.248 171.655C107.267 171.635 108.141 171.955 109.213 172.355C111.796 173.335 113.841 173.955 116.582 174.656C119.958 175.516 124.843 176.356 127.723 176.596C128.16 176.636 128.398 176.676 128.319 176.736C128.18 176.817 125.261 177.797 123.116 178.477C119.7 179.557 109.273 182.658 100.773 185.119C99.2043 185.579 97.8538 185.96 97.7744 185.979C97.576 186.02 96.9204 185.839 96.9204 185.759C96.9204 185.719 97.397 185.099 97.973 184.419C100.833 180.978 103.673 177.137 106.036 173.495C106.691 172.495 107.248 171.675 107.248 171.655ZM103.752 171.755C103.772 171.775 102.362 174.055 99.8996 177.977C98.8468 179.637 97.675 181.518 97.2579 182.178C96.8607 182.818 96.2649 183.819 95.9275 184.379L95.3514 185.399L95.0536 185.319C94.3384 185.119 89.314 183.338 87.9833 182.798C86.3348 182.138 84.6269 181.338 83.3558 180.658C81.7672 179.797 79.7814 178.517 79.9401 178.477C79.9797 178.457 82.7006 177.716 85.9773 176.816C94.6761 174.435 99.5019 173.055 102.66 172.055C103.236 171.875 103.732 171.735 103.752 171.755ZM128.478 177.596H128.497C128.577 177.797 125.36 186.8 124.188 189.64C123.93 190.281 123.831 190.441 123.692 190.421C123.354 190.401 118.687 189.741 115.847 189.32C110.902 188.56 102.6 187.099 100.515 186.62L100.039 186.52L102.997 185.839C109.353 184.399 112.411 183.618 115.509 182.658C119.422 181.458 123.294 179.957 127.207 178.117C127.822 177.836 128.339 177.616 128.478 177.596Z" fill="url(#paint0_linear_2_7277)"/>
<path d="M113.723 59.2972C113.286 59.2375 106.235 61.7983 101.687 63.6587C95.5506 66.1798 90.7845 68.5807 87.8451 70.661C86.753 71.4416 85.3824 72.8218 85.1643 73.3619C85.0848 73.562 85.0449 73.8021 85.0449 74.0421L87.7063 76.583L94.0414 78.6237L109.115 81.3446L126.353 84.3257L126.532 82.8252C126.473 82.8252 126.433 82.8052 126.374 82.8052L124.109 82.445L123.653 81.6248C121.309 77.4633 118.727 72.3016 117.218 68.8204C116.047 66.1195 114.934 62.9988 114.318 60.7579C113.981 59.3975 113.941 59.3175 113.723 59.2976V59.2971H113.723V59.2972ZM113.404 60.3178H113.425C113.444 60.3376 113.524 60.8981 113.604 61.558C113.941 64.3593 114.557 67.0598 115.53 69.9808C116.265 72.1817 116.265 72.0617 115.411 71.8015C113.385 71.2415 104.309 69.6609 97.7355 68.7406C96.6829 68.6005 95.7892 68.4605 95.7892 68.4406C95.7098 68.3606 100.536 65.8195 102.661 64.8195C105.381 63.5588 112.849 60.4177 113.404 60.3178ZM94.2597 69.2807L95.0345 69.5405C99.2445 70.9812 109.83 73.0219 115.669 73.502C116.324 73.5621 116.88 73.6223 116.9 73.6223C116.92 73.6422 116.364 73.9423 115.649 74.2823C112.829 75.7028 109.731 77.4434 107.586 78.7839C106.95 79.1838 106.374 79.5042 106.295 79.5042C106.215 79.5042 105.799 79.4241 105.362 79.364L104.567 79.2438L102.581 77.2831C99.0861 73.8621 96.3453 71.2213 95.2927 70.2208L94.2597 69.2807ZM93.4656 69.9008L96.2658 73.4221C97.7948 75.3627 99.3439 77.2632 99.6818 77.6832C100.019 78.1036 100.297 78.4438 100.278 78.4638C100.198 78.5237 96.2264 77.7433 94.1209 77.2634C91.9562 76.7631 91.0626 76.523 89.732 76.1031L88.6396 75.7428V75.4625C88.6594 74.122 90.3477 72.1215 93.2074 70.081L93.4656 69.9008ZM117.258 74.7024C117.337 74.7024 117.436 74.8824 117.674 75.4226C118.35 76.923 120.455 80.9645 120.971 81.7447C121.13 82.005 121.408 82.0249 118.608 81.5647C111.876 80.4641 109.711 80.1044 109.711 80.0644C109.711 80.0444 109.909 79.9043 110.168 79.7641C112.253 78.604 114.358 77.1234 116.225 75.5428C116.682 75.1626 117.099 74.8025 117.178 74.7424C117.198 74.7024 117.238 74.6825 117.258 74.7024Z" fill="url(#paint1_linear_2_7277)"/>
<path d="M85.3021 73.0817C85.3021 73.0817 84.8655 73.7823 85.2824 74.8226C85.5409 75.4626 86.2954 76.2428 87.1492 77.0432C87.1492 77.0432 95.9868 85.726 97.0593 86.9666C101.945 92.6483 104.07 98.2502 104.268 105.973C104.388 110.934 103.454 115.296 101.131 120.358C96.9996 129.441 88.281 139.464 74.8359 150.588L76.8024 149.927C78.0733 148.967 79.8012 147.947 83.8525 145.706C93.2063 140.544 103.732 135.803 116.641 130.921C135.23 123.879 165.794 115.636 183.191 112.955L184.999 112.675L184.72 112.235C183.132 109.754 182.039 108.213 180.728 106.573C176.916 101.811 172.289 97.9502 166.628 94.749C158.843 90.3677 148.774 86.9466 136.024 84.4058C133.621 83.9254 128.338 83.0052 124.049 82.345C114.953 80.9249 109.074 79.9444 102.6 78.824C100.277 78.4237 96.8009 77.8236 94.4972 77.3236C93.3056 77.0632 91.0219 76.5231 89.2345 75.903C87.8047 75.3425 85.7391 74.7823 85.3021 73.0817ZM90.4263 78.0836C90.4459 78.0639 90.7636 78.1835 91.1809 78.3237C91.9356 78.5835 92.9086 78.8837 94.0608 79.204C94.9324 79.4455 95.8063 79.6789 96.6822 79.9041C97.8738 80.2041 98.8666 80.4842 98.8864 80.4842C99.0257 80.6244 101.032 87.086 101.707 89.5669C101.965 90.5075 102.164 91.3076 102.144 91.3076C102.123 91.3279 101.905 90.9875 101.647 90.5274C99.3234 86.406 95.6494 82.2247 91.3993 78.8635C90.8434 78.4637 90.4263 78.1035 90.4263 78.0836ZM100.197 80.8045C100.297 80.8045 100.734 80.8645 101.27 80.9845C104.646 81.7447 110.703 82.9051 114.576 83.5654C115.231 83.6653 115.748 83.7856 115.748 83.8254C115.748 83.8656 115.509 84.0054 115.211 84.1656C114.556 84.5056 111.914 86.086 111.041 86.6863C108.836 88.1668 106.85 89.7672 105.42 91.2077C104.845 91.788 104.348 92.2681 104.348 92.2681C104.348 92.2681 104.229 91.9281 104.129 91.5077C103.415 88.7268 101.925 84.6053 100.575 81.7045C100.356 81.2445 100.177 80.8243 100.177 80.7845C100.177 80.8244 100.177 80.8045 100.197 80.8045ZM117.396 84.1056C117.515 84.1454 117.714 84.8257 118.111 86.3261C118.846 89.2273 119.183 92.4683 119.064 95.4893C119.024 96.3295 118.985 97.1097 118.945 97.21L118.885 97.4098L117.853 97.0698C115.728 96.3896 112.272 95.3691 109.313 94.5289C107.625 94.0688 106.255 93.6486 106.255 93.6087C106.255 93.4885 108.717 91.0077 109.77 90.0675C111.775 88.2867 117.217 84.0454 117.396 84.1056ZM118.766 84.3054C118.826 84.2457 126.988 85.6658 130.702 86.3862C133.463 86.9262 137.474 87.7666 137.713 87.8668C137.832 87.9067 137.414 88.1467 136.084 88.7469C130.841 91.1279 126.948 93.2682 123.076 95.8694C122.063 96.5496 121.209 97.1097 121.189 97.1097C121.169 97.1097 121.15 96.5297 121.15 95.8293C121.15 92.0282 120.395 88.1869 119.004 84.9458C118.865 84.6257 118.746 84.3257 118.766 84.3054ZM139.877 88.507C139.937 88.567 139.678 90.1877 139.44 91.1478C138.725 94.1288 136.799 98.5506 134.436 102.712C134.018 103.452 133.641 104.052 133.601 104.072C133.562 104.092 133.026 103.792 132.41 103.432C130.106 102.071 127.485 100.791 124.625 99.5904C123.831 99.2504 123.135 98.9702 123.116 98.9305C122.976 98.8103 129.371 94.5489 132.748 92.5082C135.429 90.8678 139.798 88.4268 139.877 88.507ZM141.386 88.747C141.565 88.747 145.18 89.7474 147.066 90.3076C151.733 91.7082 157.095 93.6887 160.591 95.2892L162.04 95.9496L161.028 96.1895C152.488 98.17 145.18 100.451 138.129 103.332C137.553 103.572 137.037 103.772 136.998 103.772C136.958 103.772 137.156 103.312 137.415 102.752C139.54 98.2102 140.91 93.4686 141.247 89.4271C141.268 89.0469 141.327 88.747 141.386 88.747ZM105.401 97.0698C105.46 97.0097 108.221 97.6701 109.71 98.0898C111.974 98.7303 116.78 100.351 116.78 100.471C116.78 100.491 116.244 100.951 115.609 101.511C113.007 103.692 110.505 105.992 107.505 108.914C106.612 109.774 105.857 110.474 105.818 110.474C105.778 110.474 105.758 110.354 105.778 110.194C106.235 106.833 106.136 102.511 105.5 98.1301C105.44 97.5697 105.381 97.0898 105.401 97.0698ZM163.411 97.13C163.451 97.1697 162.14 99.2504 161.306 100.431C160.115 102.151 158.366 104.432 154.414 109.434C152.329 112.075 149.986 115.056 149.211 116.056C148.417 117.056 147.762 117.896 147.741 117.896C147.722 117.896 147.464 117.537 147.186 117.096C144.961 113.735 142.3 110.794 139.142 108.153C138.546 107.653 137.891 107.113 137.673 106.953C137.454 106.793 137.275 106.633 137.275 106.613C137.275 106.553 140.651 105.092 143.214 104.052C147.702 102.211 153.818 100.011 158.406 98.5901C160.809 97.83 163.371 97.0898 163.411 97.13ZM164.94 97.5298C165.02 97.51 165.496 97.75 166.072 98.0898C170.898 100.871 175.625 104.452 179.359 108.133C180.411 109.174 183.013 111.895 182.973 111.915C182.973 111.915 182.059 111.995 180.987 112.075C172.626 112.715 161.922 114.495 151.634 116.996C150.939 117.156 150.324 117.296 150.284 117.296C150.245 117.296 151.019 116.516 151.992 115.576C158.029 109.714 160.79 106.013 164.047 99.4103C164.503 98.4303 164.901 97.59 164.94 97.5298C164.921 97.5298 164.921 97.5298 164.94 97.5298ZM120.712 102.092C120.991 102.151 123.572 103.372 125.519 104.352C127.306 105.252 129.987 106.693 130.126 106.813C130.146 106.833 129.192 107.333 128.021 107.913C124.287 109.794 121.09 111.574 117.753 113.615C116.8 114.195 116.006 114.676 115.986 114.676C115.906 114.676 115.926 114.595 116.463 113.615C118.25 110.334 119.68 106.413 120.494 102.591C120.573 102.291 120.653 102.092 120.712 102.092ZM118.13 102.572C118.19 102.632 117.515 105.092 117.098 106.433C116.284 108.974 114.913 112.155 113.583 114.555C113.265 115.115 112.788 115.936 112.53 116.396L112.034 117.196L110.922 116.116C109.631 114.856 108.578 114.075 107.228 113.375C106.691 113.095 106.274 112.855 106.274 112.815C106.274 112.655 109.67 109.554 112.272 107.313C114.139 105.693 118.071 102.512 118.13 102.572ZM133.919 109.114L134.893 109.754C137.116 111.215 139.738 113.155 141.744 114.856C142.876 115.796 145.06 117.777 145.498 118.257L145.736 118.517L144.127 118.977C135.031 121.518 128.001 123.778 119.799 126.82C118.885 127.16 118.111 127.44 118.051 127.44C117.932 127.44 117.833 127.54 119.878 125.639C125.122 120.778 129.768 115.416 133.224 110.194L133.919 109.114ZM129.769 110.154C129.808 110.194 127.088 114.055 125.459 116.236C123.513 118.837 120.057 123.198 117.674 126.039C116.681 127.22 115.827 128.2 115.787 128.22C115.728 128.24 115.708 127.94 115.708 127.48C115.708 125.059 115.092 122.478 114.02 120.277C113.563 119.357 113.483 119.137 113.583 119.037C113.96 118.697 119.739 115.376 123.393 113.395C125.856 112.075 129.709 110.114 129.769 110.154ZM104.666 116.356C104.725 116.356 105.182 116.596 105.698 116.876C106.969 117.576 108.102 118.357 109.114 119.197C109.154 119.237 108.638 119.657 107.962 120.157C106.076 121.518 103.216 123.699 101.548 125.039C99.7999 126.44 99.7408 126.479 99.9391 126.179C101.25 124.159 101.905 123.018 102.6 121.558C103.216 120.258 103.832 118.717 104.268 117.377C104.427 116.796 104.626 116.356 104.666 116.356ZM111.359 121.638C111.458 121.618 111.577 121.798 112.113 122.598C113.245 124.298 114.119 126.58 114.338 128.42L114.377 128.82L111.657 129.881C106.791 131.781 102.303 133.662 99.2636 135.062C98.4099 135.463 96.9203 136.183 95.9474 136.663C94.9741 137.163 94.1798 137.543 94.1798 137.523C94.1798 137.503 94.7953 137.043 95.5499 136.483C101.488 132.142 106.632 127.38 110.485 122.618C110.902 122.118 111.279 121.658 111.319 121.638L111.359 121.638ZM108.28 122.398C108.36 122.478 106.096 125.059 104.547 126.639C100.714 130.581 96.9205 133.662 92.2136 136.663C91.6179 137.043 91.0817 137.383 91.022 137.423C90.8829 137.503 91.0616 137.303 93.1271 135.042C94.438 133.622 95.4309 132.421 96.5629 130.941C97.3175 129.961 97.4566 129.821 98.5491 129.04C101.469 126.92 108.201 122.318 108.28 122.398Z" fill="url(#paint2_radial_2_7277)"/>
<defs>
<linearGradient id="paint0_linear_2_7277" x1="84.8964" y1="178.392" x2="94.4334" y2="172.798" gradientUnits="userSpaceOnUse">
<stop stop-color="#909CA9"/>
<stop offset="1" stop-color="#EDEDEE"/>
</linearGradient>
<linearGradient id="paint1_linear_2_7277" x1="85.1146" y1="71.7723" x2="92.7593" y2="71.7723" gradientUnits="userSpaceOnUse">
<stop stop-color="#939FAB"/>
<stop offset="1" stop-color="#DCDEE1"/>
</linearGradient>
<radialGradient id="paint2_radial_2_7277" cx="0" cy="0" r="1" gradientUnits="userSpaceOnUse" gradientTransform="translate(123.689 107.092) rotate(-171.395) scale(9.85771 19.8595)">
<stop stop-color="#EE352C"/>
<stop offset="1" stop-color="#A91D22"/>
</radialGradient>
</defs>
</svg>
