<svg xmlns="http://www.w3.org/2000/svg" width="133.72" height="133.72" fill="none"><path fill="#2db67e" d="M133.72 66.86A66.861 66.861 0 0 0 19.58 19.586 66.86 66.86 0 0 0 66.87 133.72a66.84 66.84 0 0 0 66.85-66.86zM66.87 14.92c4.45 0 8.883.567 13.19 1.69L71.91 35.8c-13.45-5-26.55-7.86-37.46-8.1h-1.64a51.65 51.65 0 0 1 34.06-12.78zm0 103.88a51.575 51.575 0 0 1-13.28-1.7l6-14.14c-2.3-.847-4.607-1.763-6.92-2.75-2.32-1-4.59-2-6.8-3.07l-6 14.12a52.084 52.084 0 0 1-24.89-41.7l1.18 1.21c9.1 9 22.82 17.66 38.65 24.42 15.83 6.76 31.61 10.59 44.4 10.87h1.77a51.47 51.47 0 0 1-34.11 12.74zm17.67-61c9.15 4.84 16.9 10.27 22.46 15.78 6.39 6.34 8.36 11.47 7.48 13.54-.88 2.07-5.94 4.22-14.94 4-10.94-.25-24.73-3.68-38.89-9.69S34.44 67.89 26.67 60.19c-6.39-6.35-8.35-11.47-7.47-13.54.88-2.07 5.92-4.22 14.93-4 9.01.22 20.28 2.64 31.95 6.93l-10.1 23.75a.641.641 0 0 0-.08.14c2.2 1.06 4.47 2.1 6.79 3.09 2.32.99 4.64 1.89 6.94 2.74l16.01-37.68 8.17-19.19a52.322 52.322 0 0 1 9.81 7.7 51.58 51.58 0 0 1 15.12 34.06c-.4-.42-.81-.83-1.24-1.27-6.79-6.73-16.18-13.27-27.12-19z"/></svg>