<svg xmlns="http://www.w3.org/2000/svg" width="250" height="250" fill="none"><g clip-path="url(#a)"><path fill="#2DB67E" d="M221 125A96.002 96.002 0 0 0 57.113 57.123 96 96 0 0 0 125.014 221a95.987 95.987 0 0 0 36.738-7.304 95.987 95.987 0 0 0 51.95-51.957A95.99 95.99 0 0 0 221 125Zm-95.986-74.577a75.024 75.024 0 0 1 18.939 2.426l-11.702 27.554c-19.312-7.18-38.122-11.286-53.786-11.63H76.11a74.161 74.161 0 0 1 48.904-18.35Zm0 149.154a74.01 74.01 0 0 1-19.068-2.441l8.615-20.302a211.963 211.963 0 0 1-9.935-3.949c-3.332-1.436-6.591-2.872-9.764-4.408l-8.615 20.274a74.786 74.786 0 0 1-35.738-59.874l1.694 1.737c13.066 12.923 32.766 25.357 55.495 35.063 22.729 9.706 45.387 15.206 63.751 15.608h2.542a73.904 73.904 0 0 1-48.977 18.292Zm25.372-87.586c13.137 6.95 24.265 14.746 32.248 22.658 9.175 9.103 12.004 16.469 10.741 19.441-1.264 2.972-8.529 6.059-21.452 5.743-15.708-.359-35.508-5.283-55.84-13.913-20.331-8.629-37.633-19.441-48.79-30.497-9.174-9.118-11.989-16.469-10.725-19.441 1.264-2.972 8.5-6.06 21.437-5.744 12.937.316 29.119 3.791 45.875 9.951l-14.502 34.101a.91.91 0 0 0-.115.201 235.144 235.144 0 0 0 9.75 4.437c3.331 1.421 6.662 2.713 9.964 3.934l22.988-54.102 11.731-27.554a75.12 75.12 0 0 1 14.085 11.056 74.06 74.06 0 0 1 21.71 48.904c-.574-.603-1.163-1.191-1.78-1.823-9.75-9.663-23.232-19.054-38.94-27.281l-8.385 19.929Z"/></g><defs><clipPath id="a"><path fill="#fff" d="M29 29h192v192H29z"/></clipPath></defs></svg>