<svg xmlns="http://www.w3.org/2000/svg" xmlns:xlink="http://www.w3.org/1999/xlink" width="223.71" height="151.93" viewBox="42.888 39.075 227.712 155.932"><defs><path id="a" d="M196.81 55.48c-1.06 0-1.8.13-2.55.32v.12h.12c.5 1 1.37 1.69 1.99 2.56.5 1 .94 1.99 1.44 2.99.06-.06.12-.13.12-.13.88-.62 1.31-1.62 1.31-3.11-.37-.44-.43-.88-.75-1.31-.37-.63-1.18-.94-1.68-1.44"/><path id="b" d="M260.37 109.64c-4.99-.13-8.85.37-12.09 1.74-.93.38-2.43.38-2.55 1.56.5.5.56 1.31 1 1.99.74 1.25 2.05 2.93 3.23 3.81 1.31.99 2.62 1.99 4 2.86 2.42 1.5 5.17 2.37 7.53 3.87 1.38.87 2.74 1.99 4.12 2.92.68.5 1.11 1.31 1.99 1.62v-.19c-.44-.56-.56-1.37-1-1.99-.62-.62-1.24-1.19-1.87-1.81-1.81-2.43-4.05-4.54-6.48-6.29-1.99-1.37-6.36-3.24-7.16-5.54l-.13-.13c1.37-.12 3-.62 4.3-1 2.12-.56 4.05-.43 6.23-.99 1-.25 2-.57 3-.87v-.57c-1.13-1.12-1.94-2.62-3.12-3.67-3.18-2.75-6.67-5.42-10.28-7.67-1.94-1.25-4.43-2.05-6.49-3.11-.74-.38-1.99-.56-2.42-1.19-1.13-1.37-1.75-3.17-2.56-4.8-1.81-3.42-3.55-7.22-5.11-10.84-1.12-2.43-1.81-4.86-3.18-7.1-6.42-10.6-13.39-17.01-24.11-23.31-2.31-1.31-5.05-1.87-7.98-2.55-1.56-.07-3.11-.19-4.67-.25-1-.44-2-1.62-2.87-2.18-3.55-2.25-12.71-7.11-15.33-.69-1.68 4.05 2.5 8.04 3.93 10.1 1.06 1.43 2.43 3.05 3.17 4.67.44 1.06.57 2.18 1 3.3 1 2.74 1.93 5.8 3.25 8.35.68 1.31 1.43 2.69 2.3 3.86.5.69 1.37 1 1.56 2.13-.87 1.24-.94 3.11-1.44 4.67-2.24 7.04-1.37 15.76 1.81 20.94.99 1.55 3.37 4.98 6.54 3.67 2.81-1.12 2.19-4.67 2.99-7.79.19-.75.07-1.24.44-1.74v.13c.87 1.74 1.75 3.42 2.55 5.17 1.94 3.05 5.3 6.23 8.11 8.34 1.49 1.13 2.67 3.06 4.54 3.74v-.18H217c-.37-.56-.93-.81-1.43-1.25-1.12-1.12-2.37-2.49-3.24-3.74-2.62-3.49-4.93-7.35-6.98-11.34-1-1.94-1.87-4.05-2.68-5.98-.37-.75-.37-1.87-1-2.24-.94 1.36-2.3 2.55-2.99 4.23-1.18 2.68-1.31 5.98-1.75 9.41-.24.07-.12 0-.24.12-2-.49-2.68-2.55-3.43-4.29-1.87-4.43-2.18-11.53-.56-16.64.43-1.31 2.31-5.42 1.56-6.67-.38-1.19-1.63-1.86-2.31-2.8-.81-1.19-1.69-2.68-2.24-3.99-1.5-3.49-2.25-7.35-3.86-10.84-.75-1.63-2.06-3.31-3.12-4.8-1.19-1.68-2.49-2.87-3.43-4.86-.31-.69-.74-1.81-.25-2.55.12-.5.38-.69.88-.82.8-.68 3.11.19 3.92.56 2.31.93 4.24 1.81 6.17 3.12.87.62 1.81 1.81 2.92 2.12h1.32c1.99.43 4.23.12 6.1.68 3.31 1.06 6.3 2.62 8.98 4.3 8.16 5.18 14.89 12.53 19.43 21.32.75 1.43 1.07 2.74 1.75 4.23 1.31 3.06 2.93 6.17 4.24 9.16 1.31 2.93 2.56 5.92 4.43 8.35.93 1.31 4.67 2 6.35 2.68 1.25.56 3.18 1.06 4.3 1.74 2.12 1.31 4.24 2.81 6.23 4.24 1 .75 4.11 2.31 4.3 3.56"/><path id="c" d="M255.91 178.48h1.36v-5.25h1.79v-1.07h-5.01v1.07h1.86v5.25Zm10.4 0h1.29v-6.32h-1.94l-1.58 4.31-1.71-4.31h-1.87v6.32h1.22v-4.81h.07l1.8 4.81h.92l1.8-4.81v4.81"/><path id="d" d="M250.02 178.49h-24.53v-51.58h8.25v45.23h16.28v6.35"/><path id="e" d="M187.82 168.24c-2.09-3.36-3.13-8.75-3.13-16.19 0-12.99 3.95-19.49 11.84-19.49 4.13 0 7.16 1.56 9.09 4.66 2.09 3.37 3.14 8.71 3.14 16.05 0 13.09-3.95 19.64-11.85 19.64-4.12 0-7.15-1.55-9.09-4.67m30.72 11.56c-5.69-2.8-8.85-4.36-9.48-4.67.84-.69 1.64-1.44 2.37-2.3 4.02-4.74 6.04-11.74 6.04-21.01 0-17.06-6.7-25.6-20.1-25.6-6.57 0-11.69 2.17-15.35 6.5-4.03 4.74-6.04 11.71-6.04 20.93 0 9.07 1.78 15.72 5.35 19.94 3.26 3.82 8.17 5.73 14.74 5.73 2.46 0 4.71-.3 6.76-.9.82.48 4.93 2.87 12.34 7.18l3.37-5.8"/><path id="f" d="M172.92 164.19c0 4.37-1.61 7.96-4.81 10.77-3.2 2.8-7.51 4.2-12.91 4.2-5.04 0-9.93-1.61-14.66-4.81.22-.45 1.99-3.99 2.21-4.43 4.08 2.03 7.76 3.05 11.08 3.05 3.1 0 5.53-.69 7.29-2.05 1.76-1.38 2.81-3.3 2.81-5.73 0-3.06-2.14-5.68-6.06-7.88-3.61-1.98-10.84-6.13-10.84-6.13-3.92-2.86-5.88-5.92-5.88-10.97 0-4.18 1.46-7.56 4.39-10.13 2.93-2.57 6.71-3.86 11.34-3.86 4.79 0 9.14 1.28 13.06 3.83-.19.44-1.79 3.98-1.99 4.42-3.35-1.42-6.66-2.13-9.92-2.13-2.65 0-4.69.63-6.11 1.91-1.43 1.27-2.32 2.9-2.32 4.89 0 3.05 2.19 5.7 6.22 7.94 3.66 1.98 11.07 6.21 11.07 6.21 4.02 2.85 6.03 5.89 6.03 10.9"/><path id="g" d="M135.11 140.44c-3.52 19.07-8.15 32.93-13.91 41.57-4.48 6.67-9.39 10-14.74 10-1.43 0-3.19-.43-5.27-1.29v-4.59c1.02.15 2.21.23 3.59.23 2.49 0 4.51-.69 6.04-2.07 1.83-1.68 2.74-3.56 2.74-5.65 0-1.43-.71-4.36-2.13-8.79-.64-1.96-3.79-11.76-9.48-29.41h8.48c4.08 13.2 6.35 20.53 6.8 22 1.53 4.99 2.17 8.48 1.91 10.47 3.72-9.94 6.32-20.76 7.8-32.47h8.17"/><path id="h" d="M97.67 178.49h-8.63c-.3-14.57-1.14-28.27-2.52-41.11h-.08L73.3 178.49h-6.57l-13.06-41.11h-.08c-.97 12.33-1.58 26.03-1.83 41.11h-7.87c.51-18.34 1.78-35.53 3.82-51.58H58.4l12.46 37.9h.07l12.53-37.9H93.7c2.24 18.79 3.57 35.99 3.97 51.58"/></defs><use xlink:href="#a" fill="#5b85a4"/><use xlink:href="#a" fill-opacity="0" stroke="#000" stroke-opacity="0"/><use xlink:href="#b" fill="#2c7493"/><use xlink:href="#b" fill-opacity="0" stroke="#000" stroke-opacity="0"/><use xlink:href="#c" fill="#f18513"/><use xlink:href="#c" fill-opacity="0" stroke="#000" stroke-opacity="0"/><use xlink:href="#d" fill="#f18513"/><use xlink:href="#d" fill-opacity="0" stroke="#000" stroke-opacity="0"/><use xlink:href="#e" fill="#f18513"/><use xlink:href="#e" fill-opacity="0" stroke="#000" stroke-opacity="0"/><use xlink:href="#f" fill="#f18513"/><use xlink:href="#f" fill-opacity="0" stroke="#000" stroke-opacity="0"/><use xlink:href="#g" fill="#2c7493"/><use xlink:href="#g" fill-opacity="0" stroke="#000" stroke-opacity="0"/><use xlink:href="#h" fill="#2c7493"/><use xlink:href="#h" fill-opacity="0" stroke="#000" stroke-opacity="0"/></svg>