<svg width="250" height="250" viewBox="0 0 250 250" fill="none" xmlns="http://www.w3.org/2000/svg">
<path d="M28.6016 163.063H34.9203V138.19L44.7021 159.873C45.8564 162.497 47.4363 163.426 50.5347 163.426C53.6336 163.426 55.1525 162.498 56.3073 159.873L66.089 138.19V163.062H72.4078V138.231C72.4078 135.808 71.4355 134.637 69.431 134.032C64.6311 132.538 61.4107 133.83 59.9523 137.06L50.3526 158.46L41.057 137.06C39.6596 133.83 36.3787 132.538 31.5789 134.032C29.5738 134.637 28.6016 135.809 28.6016 138.231V163.063ZM77.6618 142.818H83.9786V156.521C83.9195 157.266 84.2182 159.013 87.6797 159.067C89.4456 159.094 101.309 159.067 101.42 159.067V142.751H107.751C107.78 142.751 107.745 165.001 107.746 165.096C107.78 170.583 100.915 171.775 97.7507 171.867H77.7986V167.63C77.834 167.63 97.736 167.634 97.7862 167.629C101.853 167.201 101.373 165.186 101.372 164.508V162.856H87.9415C81.6926 162.799 77.7139 160.08 77.6647 156.953C77.6598 156.663 77.7995 142.955 77.6613 142.818L77.6618 142.818Z" fill="#00618A"/>
<path d="M112.622 163.063H130.788C132.914 163.063 134.98 162.619 136.621 161.851C139.355 160.6 140.691 158.905 140.691 156.683V152.081C140.691 150.263 139.172 148.567 136.195 147.437C134.615 146.831 132.671 146.508 130.788 146.508H123.132C120.581 146.508 119.365 145.741 119.062 144.046C119.001 143.844 119.001 143.682 119.001 143.48V140.614C119.001 140.452 119.001 140.29 119.062 140.089C119.365 138.797 120.034 138.433 122.282 138.231C122.464 138.231 122.707 138.19 122.889 138.19H140.934V133.992H123.193C120.641 133.992 119.304 134.153 118.09 134.516C114.323 135.688 112.682 137.545 112.682 140.775V144.449C112.682 147.276 115.902 149.698 121.31 150.263C121.918 150.304 122.525 150.344 123.132 150.344H129.694C129.937 150.344 130.18 150.344 130.363 150.385C132.368 150.546 133.218 150.909 133.826 151.636C134.19 151.999 134.312 152.363 134.312 152.767V156.44C134.312 156.885 134.008 157.451 133.401 157.935C132.854 158.42 131.942 158.743 130.727 158.824C130.484 158.824 130.302 158.864 130.059 158.864H112.621V163.062L112.622 163.063ZM180.11 155.755C180.11 160.075 183.33 162.498 189.831 162.982C190.438 163.023 191.046 163.063 191.653 163.063H208.119V158.864H191.532C187.826 158.864 186.428 157.935 186.428 155.715V133.992H180.11V155.755ZM144.724 155.975V141.004C144.724 137.201 147.403 134.894 152.7 134.166C153.264 134.086 153.834 134.045 154.405 134.045H166.398C167.007 134.045 167.556 134.086 168.164 134.166C173.461 134.894 176.14 137.201 176.14 141.004V155.975C176.14 159.06 175.002 160.712 172.38 161.788L178.604 167.388H171.268L166.232 162.857L161.163 163.177H154.405C153.248 163.177 152.03 163.015 150.691 162.651C146.673 161.559 144.724 159.454 144.724 155.975V155.975ZM151.544 155.611C151.544 155.814 151.605 156.016 151.666 156.259C152.031 157.998 153.675 158.969 156.171 158.969H161.912L156.638 154.224H163.975L168.574 158.363C169.422 157.912 169.98 157.224 170.174 156.339C170.235 156.137 170.235 155.935 170.235 155.733V141.369C170.235 141.207 170.235 141.005 170.174 140.802C169.809 139.184 168.165 138.254 165.73 138.254H156.171C153.371 138.254 151.544 139.468 151.544 141.369V155.611H151.544Z" fill="#E48E00"/>
<path d="M213.678 127.026C209.795 126.921 206.828 127.281 204.291 128.347C203.57 128.65 202.421 128.658 202.303 129.559C202.699 129.973 202.761 130.591 203.076 131.1C203.681 132.077 204.704 133.386 205.616 134.072C206.613 134.823 207.64 135.625 208.709 136.275C210.61 137.43 212.732 138.089 214.562 139.247C215.641 139.929 216.713 140.789 217.765 141.559C218.285 141.939 218.635 142.531 219.311 142.77V142.66C218.956 142.209 218.864 141.589 218.538 141.118L217.102 139.687C215.698 137.83 213.916 136.198 212.022 134.843C210.511 133.762 207.13 132.302 206.5 130.549L206.389 130.439C207.46 130.319 208.714 129.932 209.703 129.669C211.364 129.225 212.847 129.339 214.562 128.898C215.335 128.678 216.108 128.457 216.882 128.237V127.797C216.015 126.91 215.397 125.737 214.451 124.934C211.979 122.835 209.279 120.738 206.5 118.989C204.958 118.019 203.053 117.389 201.42 116.567C200.87 116.291 199.904 116.147 199.541 115.686C198.683 114.596 198.216 113.213 197.554 111.943C196.167 109.282 194.806 106.375 193.578 103.575C192.74 101.666 192.193 99.784 191.148 98.0707C186.133 89.8519 180.735 84.8917 172.373 80.0154C170.594 78.9785 168.451 78.5685 166.188 78.0339L162.543 77.8132C161.802 77.5042 161.03 76.6002 160.334 76.1617C157.564 74.4176 150.459 70.6228 148.407 75.6114C147.111 78.7603 150.343 81.8331 151.499 83.4286C152.31 84.5479 153.349 85.8025 153.928 87.0615C154.31 87.889 154.376 88.7184 154.702 89.5939C155.505 91.7505 156.203 94.0964 157.242 96.0892C157.767 97.0976 158.345 98.16 159.009 99.0615C159.416 99.6152 160.113 99.859 160.224 100.713C159.542 101.665 159.503 103.141 159.119 104.346C157.393 109.772 158.044 116.515 160.555 120.531C161.326 121.763 163.14 124.407 165.635 123.393C167.818 122.507 167.331 119.76 167.955 117.338C168.096 116.789 168.009 116.385 168.286 116.017V116.127L170.274 120.09C171.745 122.452 174.357 124.92 176.57 126.586C177.717 127.45 178.62 128.943 180.104 129.448V129.338H179.993C179.706 128.892 179.256 128.706 178.889 128.347C178.025 127.503 177.064 126.452 176.349 125.485C174.336 122.761 172.557 119.781 170.937 116.677C170.163 115.196 169.491 113.561 168.838 112.053C168.587 111.472 168.59 110.593 168.066 110.291C167.351 111.396 166.299 112.29 165.746 113.595C164.862 115.68 164.748 118.223 164.421 120.861C164.227 120.93 164.313 120.882 164.2 120.97C162.662 120.601 162.121 119.022 161.55 117.668C160.103 114.244 159.835 108.729 161.107 104.787C161.436 103.767 162.924 100.554 162.322 99.6128C162.035 98.6725 161.086 98.1286 160.555 97.4105C159.898 96.5223 159.242 95.353 158.788 94.3274C157.604 91.6573 157.052 88.66 155.806 85.9609C155.211 84.6705 154.203 83.3648 153.376 82.2176C152.461 80.9473 151.435 80.0105 150.726 78.4738C150.473 77.9279 150.13 77.0539 150.504 76.4923C150.624 76.1137 150.792 75.9553 151.168 75.8317C151.808 75.3397 153.592 75.9955 154.26 76.2721C156.031 77.0054 157.509 77.7038 159.009 78.6941C159.73 79.1703 160.458 80.0909 161.328 80.346H162.322C163.877 80.7021 165.619 80.4563 167.071 80.8963C169.639 81.6742 171.939 82.8837 174.029 84.1991C180.395 88.2058 185.6 93.9095 189.16 100.713C189.733 101.809 189.981 102.854 190.485 104.016C191.503 106.36 192.786 108.771 193.798 111.062C194.809 113.348 195.794 115.656 197.222 117.558C197.974 118.558 200.874 119.095 202.192 119.65C203.117 120.039 204.631 120.445 205.506 120.97C207.178 121.976 208.798 123.173 210.366 124.274C211.15 124.824 213.559 126.031 213.679 127.026H213.678Z" fill="#00618A"/>
<path fill-rule="evenodd" clip-rule="evenodd" d="M164.311 85.08C163.501 85.0653 162.928 85.1683 162.322 85.2997V85.4101H162.433C162.819 86.2012 163.501 86.7104 163.979 87.3916C164.347 88.1625 164.715 88.9332 165.084 89.7037L165.194 89.5939C165.878 89.1132 166.191 88.3446 166.188 87.1719C165.914 86.8845 165.873 86.5235 165.636 86.1806C165.32 85.7235 164.709 85.4645 164.311 85.08Z" fill="#00618A"/>
<path fill-rule="evenodd" clip-rule="evenodd" d="M211.084 158.744C211.084 161.517 213.282 163.386 215.741 163.386C218.2 163.386 220.398 161.517 220.398 158.744C220.398 155.972 218.2 154.103 215.741 154.103C213.282 154.103 211.084 155.972 211.084 158.744H211.084ZM219.355 158.744C219.355 160.848 217.741 162.421 215.741 162.421C213.717 162.421 212.128 160.848 212.128 158.744C212.128 156.64 213.717 155.068 215.741 155.068C217.741 155.068 219.355 156.64 219.355 158.744ZM216.996 161.393H218.038L216.512 159.067C217.331 158.98 217.951 158.583 217.951 157.618C217.951 156.541 217.269 156.096 215.953 156.096H213.879V161.393H214.773V159.103H215.604L216.996 161.393V161.393ZM214.773 158.361V156.838H215.803C216.337 156.838 216.983 156.937 216.983 157.556C216.983 158.298 216.399 158.361 215.728 158.361H214.773Z" fill="#E48E00"/>
</svg>
