<?xml version="1.0" encoding="UTF-8" standalone="no"?>
<svg
   height="80.279999"
   viewBox="0 0 98.101997 80.279999"
   width="98.101997"
   version="1.1"
   id="svg879"
   sodipodi:docname="nasa.svg"
   inkscape:version="1.2.1 (9c6d41e410, 2022-07-14, custom)"
   xmlns:inkscape="http://www.inkscape.org/namespaces/inkscape"
   xmlns:sodipodi="http://sodipodi.sourceforge.net/DTD/sodipodi-0.dtd"
   xmlns="http://www.w3.org/2000/svg"
   xmlns:svg="http://www.w3.org/2000/svg">
  <defs
     id="defs883" />
  <sodipodi:namedview
     id="namedview881"
     pagecolor="#ffffff"
     bordercolor="#666666"
     borderopacity="1.0"
     inkscape:showpageshadow="2"
     inkscape:pageopacity="0.0"
     inkscape:pagecheckerboard="0"
     inkscape:deskcolor="#d1d1d1"
     showgrid="false"
     inkscape:zoom="11.163043"
     inkscape:cx="50.523856"
     inkscape:cy="41.117819"
     inkscape:window-width="3840"
     inkscape:window-height="2083"
     inkscape:window-x="0"
     inkscape:window-y="40"
     inkscape:window-maximized="1"
     inkscape:current-layer="svg879" />
  <circle
     cx="45.600998"
     cy="40.139999"
     fill="#0b3d91"
     r="40.139999"
     id="circle783" />
  <g
     fill="#ffffff"
     id="g877"
     transform="translate(-4.448,-4.8600006)">
    <circle
       cx="47.679001"
       cy="12.57"
       r="0.44999999"
       id="circle785" />
    <circle
       cx="52.299"
       cy="13.17"
       r="0.44999999"
       id="circle787" />
    <circle
       cx="58.359001"
       cy="21.33"
       r="0.44999999"
       id="circle789" />
    <circle
       cx="25.118999"
       cy="63.330002"
       r="0.44999999"
       id="circle791" />
    <circle
       cx="26.289"
       cy="66.93"
       r="0.44999999"
       id="circle793" />
    <circle
       cx="20.709"
       cy="63.869999"
       r="0.33700001"
       id="circle795" />
    <circle
       cx="39.008999"
       cy="70.942001"
       r="0.338"
       id="circle797" />
    <circle
       cx="67.710999"
       cy="64.980003"
       r="0.33700001"
       id="circle799" />
    <circle
       cx="76.052002"
       cy="55.919998"
       r="0.338"
       id="circle801" />
    <circle
       cx="35.168999"
       cy="23.962"
       r="0.33700001"
       id="circle803" />
    <circle
       cx="44.348999"
       cy="17.219999"
       r="0.33700001"
       id="circle805" />
    <circle
       cx="43.352001"
       cy="16.559999"
       r="0.33700001"
       id="circle807" />
    <circle
       cx="42.452"
       cy="15.9"
       r="0.33700001"
       id="circle809" />
    <circle
       cx="36.609001"
       cy="25.702999"
       r="0.33700001"
       id="circle811" />
    <circle
       cx="50.131001"
       cy="8.1599998"
       r="0.33700001"
       id="circle813" />
    <circle
       cx="52.352001"
       cy="17.879999"
       r="0.33700001"
       id="circle815" />
    <circle
       cx="48.848999"
       cy="15.982"
       r="0.33700001"
       id="circle817" />
    <circle
       cx="42.848999"
       cy="18.563"
       r="0.33700001"
       id="circle819" />
    <circle
       cx="69.308998"
       cy="73.883003"
       r="0.33700001"
       id="circle821" />
    <circle
       cx="24.549"
       cy="65.610001"
       r="0.338"
       id="circle823" />
    <circle
       cx="48.008999"
       cy="69.959999"
       r="0.338"
       id="circle825" />
    <circle
       cx="31.531"
       cy="65.339996"
       r="0.338"
       id="circle827" />
    <circle
       cx="34.449001"
       cy="70.102997"
       r="0.338"
       id="circle829" />
    <circle
       cx="55.929001"
       cy="67.102997"
       r="0.33700001"
       id="circle831" />
    <circle
       cx="67.771004"
       cy="60.419998"
       r="0.33700001"
       id="circle833" />
    <circle
       cx="76.749001"
       cy="64.522003"
       r="0.33700001"
       id="circle835" />
    <circle
       cx="79.808998"
       cy="66.480003"
       r="0.33700001"
       id="circle837" />
    <circle
       cx="80.311996"
       cy="61.139999"
       r="0.33700001"
       id="circle839" />
    <circle
       cx="35.671001"
       cy="53.580002"
       r="0.33700001"
       id="circle841" />
    <circle
       cx="35.799"
       cy="61.32"
       r="0.44999999"
       id="circle843" />
    <circle
       cx="38.499001"
       cy="67.019997"
       r="0.44999999"
       id="circle845" />
    <circle
       cx="70.838997"
       cy="61.080002"
       r="0.44999999"
       id="circle847" />
    <circle
       cx="82.478996"
       cy="60.419998"
       r="0.44999999"
       id="circle849" />
    <circle
       cx="76.719002"
       cy="57.959999"
       r="0.44999999"
       id="circle851" />
    <circle
       cx="70.838997"
       cy="58.200001"
       r="0.44999999"
       id="circle853" />
    <path
       d="m 58.71,12.288 1.119,-0.107 -1.117,-0.063 c -0.035,-0.216 -0.208,-0.385 -0.426,-0.413 l -0.107,-1.114 -0.064,1.123 c -0.202,0.045 -0.357,0.214 -0.382,0.424 l -1.144,0.104 1.152,0.062 c 0.042,0.193 0.198,0.344 0.394,0.38 l 0.104,1.148 0.061,-1.146 c 0.207,-0.035 0.371,-0.194 0.41,-0.398 z"
       id="path855" />
    <path
       d="m 39.824,24.746 1.119,-0.107 -1.117,-0.063 C 39.792,24.36 39.618,24.191 39.4,24.163 l -0.107,-1.114 -0.063,1.123 c -0.203,0.045 -0.358,0.214 -0.383,0.424 l -1.144,0.104 1.152,0.062 c 0.042,0.193 0.198,0.344 0.394,0.38 l 0.104,1.148 0.062,-1.146 c 0.207,-0.034 0.371,-0.194 0.409,-0.398 z"
       id="path857" />
    <path
       d="m 81.659,57.684 1.119,-0.107 -1.117,-0.063 c -0.034,-0.216 -0.208,-0.385 -0.426,-0.413 l -0.107,-1.114 -0.063,1.123 c -0.202,0.045 -0.357,0.214 -0.382,0.424 l -1.144,0.104 1.152,0.062 c 0.042,0.193 0.198,0.344 0.394,0.38 l 0.104,1.148 0.062,-1.146 c 0.205,-0.034 0.369,-0.193 0.408,-0.398 z"
       id="path859" />
    <path
       d="m 36.044,74.906 1.119,-0.107 -1.117,-0.063 C 36.011,74.52 35.838,74.351 35.62,74.323 L 35.513,73.21 35.45,74.332 c -0.203,0.045 -0.358,0.214 -0.383,0.424 l -1.144,0.104 1.152,0.062 c 0.042,0.193 0.198,0.345 0.394,0.38 l 0.104,1.148 0.062,-1.146 c 0.206,-0.034 0.371,-0.194 0.409,-0.398 z"
       id="path861" />
    <path
       d="m 78.104,66.506 1.119,-0.107 -1.117,-0.063 C 78.072,66.12 77.898,65.951 77.68,65.923 l -0.107,-1.114 -0.063,1.122 c -0.202,0.045 -0.357,0.214 -0.382,0.424 l -1.144,0.104 1.152,0.062 c 0.042,0.193 0.198,0.344 0.394,0.38 l 0.104,1.148 0.062,-1.146 c 0.205,-0.033 0.37,-0.193 0.408,-0.397 z"
       id="path863" />
    <path
       d="m 59.568,35.385 c -4.667,1.814 -9.219,3.433 -13.06,4.635 -7.805,2.444 -29.16,9.06 -42.06,17.4 l 1.08,0.42 c 7.86,-4.44 12.969,-5.835 17.88,-7.38 5.34,-1.68 22.603,-5.72 30.42,-7.92 2.641,-0.743 5.734,-1.716 9.01,-2.9 -0.762,-1.063 -1.566,-2.129 -2.412,-3.193 -0.283,-0.359 -0.57,-0.713 -0.858,-1.062 z m 5.702,7.859 C 64.14,44.007 63.193,44.616 62.53,45 58.69,47.22 39.969,60 35.71,62.94 31.451,65.88 19.63,77.04 16.15,80.28 l -0.12,1.319 C 27.25,71.519 30.77,69.033 35.23,65.64 40.75,61.44 52.169,53.67 56.05,51.18 59.76,48.8 63.106,46.611 66.109,44.608 66.06,44.526 66.011,44.444 65.962,44.361 65.736,43.99 65.505,43.618 65.27,43.244 Z M 82.809,24.72 c -5.466,3.204 -14.081,7.071 -22.439,10.352 0.2,0.245 0.399,0.492 0.597,0.741 0.934,1.176 1.815,2.36 2.644,3.545 6.57,-2.42 13.779,-5.668 19.499,-9.599 -2.725,2.582 -11.734,9.315 -17.227,13.068 0.283,0.461 0.557,0.922 0.822,1.381 8.322,-5.569 13.922,-9.668 17.185,-12.409 4.5,-3.78 14.76,-12.24 18.66,-23.58 -6.841,8.701 -14.929,13.68 -19.741,16.501 z"
       fill="#fc3d21"
       id="path865" />
    <path
       d="m 44.884,54.939 c -0.885,-1.114 -2.109,-2.606 -3.028,-3.763 -1.229,-1.547 -2.366,-3.11 -3.408,-4.671 -0.34,0.085 -0.679,0.17 -1.018,0.255 1.258,1.963 2.655,3.923 4.177,5.839 1.112,1.4 2.123,2.527 2.641,3.228 0.105,0.142 0.313,0.456 0.594,0.874 0.324,-0.22 0.651,-0.442 0.981,-0.666 -0.319,-0.347 -0.634,-0.712 -0.939,-1.096 z m 6.46,5.864 c -0.727,-0.688 -2.49,-1.837 -4.325,-3.561 -0.405,0.278 -0.814,0.56 -1.224,0.844 1.185,1.67 2.799,3.721 4.063,4.319 1.904,0.902 2.417,-0.72 1.486,-1.602 z m 9.623,-24.99 C 50.475,22.607 37.658,15.352 32.132,19.743 c -4.292,3.41 -2.53,13.376 3.386,23.845 0.306,-0.105 0.609,-0.208 0.909,-0.31 -5.971,-10.2 -7.605,-19.679 -3.557,-22.896 5.087,-4.042 17.37,3.241 27.558,16.064 2.109,2.654 3.963,5.318 5.533,7.915 6.012,9.95 7.857,18.948 3.703,22.621 -1.271,1.124 -5.155,1.565 -10.243,-0.725 -0.071,0.089 0.043,0.33 0.132,0.389 4.392,1.766 8.599,2.439 10.723,0.752 5.104,-4.056 1.183,-18.379 -9.309,-31.585 z"
       id="path867" />
    <path
       d="m 15.969,37.38 h 6.72 l 5.64,9.57 c 0,0 0,-6.93 0,-7.47 0,-0.84 -1.065,-1.935 -1.44,-2.1 0.45,0 4.38,0 4.65,0 -0.285,0.075 -1.2,1.185 -1.2,2.1 0,0.45 0,10.5 0,10.98 0,0.675 0.975,1.605 1.44,1.965 h -6.48 l -5.73,-9.615 c 0,0 0,7.17 0,7.56 0,0.75 0.735,1.47 1.5,2.085 h -4.95 c 0.705,-0.3 1.38,-1.245 1.44,-1.995 0.06,-0.75 0,-10.425 0,-10.845 0,-0.915 -0.885,-1.665 -1.59,-2.235 z"
       id="path869" />
    <path
       d="m 77.439,52.425 h 8.94 c -0.495,-0.12 -1.05,-0.705 -1.35,-1.485 -0.3,-0.78 -5.04,-13.56 -5.04,-13.56 H 76.59 c -0.964,0.694 -1.997,1.426 -3.1,2.197 -0.003,0.028 -0.006,0.056 -0.011,0.083 -0.148,0.9 -2.808,10.534 -2.97,11.01 -0.225,0.66 -1.38,1.395 -1.845,1.785 h 4.815 c -0.48,-0.54 -0.87,-1.065 -0.78,-1.665 0.09,-0.6 0.36,-1.8 0.36,-1.8 h 4.98 c 0.225,0.6 0.393,1.139 0.48,1.65 0.105,0.615 -0.525,1.305 -1.08,1.785 z m -3.93,-5.355 1.68,-5.49 2.22,5.49 z m -0.757,-9.142 c 0.247,-0.182 0.495,-0.365 0.742,-0.548 h -1.305 c 0.13,0.12 0.345,0.309 0.563,0.548 z"
       id="path871" />
    <path
       d="m 38.559,50.79 c 0.09,-0.6 0.36,-1.8 0.36,-1.8 h 4.98 c 0.225,0.6 0.393,1.139 0.48,1.65 0.105,0.615 -0.525,1.305 -1.08,1.785 h 7.871 c 0.164,-0.11 0.327,-0.22 0.49,-0.329 -0.305,-0.27 -0.586,-0.675 -0.771,-1.156 -0.3,-0.78 -5.04,-13.56 -5.04,-13.56 h -7.8 c 0.375,0.345 1.455,1.275 1.29,2.28 -0.147,0.9 -2.808,10.534 -2.97,11.01 -0.225,0.66 -1.38,1.395 -1.845,1.785 h 4.815 c -0.48,-0.54 -0.87,-1.065 -0.78,-1.665 z m 2.49,-9.21 2.22,5.49 h -3.9 z"
       id="path873" />
    <path
       d="m 65.748,44.848 c -1.468,0.978 -3.017,1.999 -4.649,3.065 0.732,0.355 1.315,0.801 1.371,1.377 0.104,1.082 -2.07,1.605 -4.035,1.38 -0.393,-0.045 -0.779,-0.148 -1.147,-0.286 -0.408,0.263 -0.82,0.528 -1.238,0.796 -0.425,0.273 -0.941,0.609 -1.53,0.997 v 1.553 c 0.39,-0.765 1.243,-1.45 1.905,-1.485 0.285,-0.015 1.275,0.9 5.355,0.675 1.98,-0.109 5.805,-2.22 5.745,-4.65 -0.036,-1.436 -0.786,-2.556 -1.777,-3.422 z M 54.519,48.6 v 1.582 c 0.361,-0.241 0.717,-0.478 1.066,-0.709 -0.549,-0.382 -0.938,-0.739 -1.066,-0.873 z m 9.834,-4.745 c -0.38,-0.225 -0.765,-0.422 -1.134,-0.596 -1.92,-0.9 -3.93,-1.065 -4.35,-2.28 -0.296,-0.857 0.54,-1.65 2.58,-1.62 2.04,0.03 3.93,1.245 4.44,1.68 v -3.87 c -0.15,0.15 -0.808,0.905 -1.41,0.78 -1.155,-0.24 -3.12,-0.553 -5.37,-0.54 -2.58,0.015 -4.8,2.009 -4.875,4.53 -0.105,3.525 2.715,4.485 4.305,5.04 0.164,0.057 0.351,0.118 0.554,0.183 1.525,-0.992 2.731,-1.756 3.437,-2.163 0.474,-0.273 1.095,-0.665 1.823,-1.144 z"
       id="path875" />
  </g>
</svg>
