<svg xmlns="http://www.w3.org/2000/svg" width="250" height="250" fill="none"><g clip-path="url(#a)"><path fill="#0B3D91" d="M124.982 218c51.522 0 93.29-41.638 93.29-93s-41.768-93-93.29-93c-51.523 0-93.29 41.638-93.29 93s41.767 93 93.29 93Z"/><path fill="#fff" d="M119.474 50.906a1.044 1.044 0 1 0 0-2.085 1.043 1.043 0 1 0 0 2.085Zm10.737 1.39c.578 0 1.046-.467 1.046-1.043 0-.575-.468-1.042-1.046-1.042-.577 0-1.046.467-1.046 1.042 0 .576.469 1.043 1.046 1.043Zm14.084 18.906a1.043 1.043 0 1 0 0-2.085c-.577 0-1.046.466-1.046 1.042 0 .576.469 1.043 1.046 1.043Zm-77.253 97.309c.577 0 1.046-.467 1.046-1.042 0-.576-.469-1.043-1.046-1.043-.578 0-1.046.467-1.046 1.043 0 .575.468 1.042 1.046 1.042Zm2.718 8.341c.578 0 1.047-.467 1.047-1.043 0-.575-.469-1.042-1.046-1.042-.578 0-1.046.467-1.046 1.042 0 .576.468 1.043 1.046 1.043Zm-12.968-7.351c.433 0 .783-.35.783-.781a.782.782 0 0 0-1.566 0c0 .431.35.781.783.781Zm42.532 16.387a.784.784 0 1 0 0-1.566.784.784 0 1 0 0 1.566Zm66.706-13.816a.782.782 0 0 0 .784-.78.782.782 0 0 0-.784-.781.782.782 0 1 0 0 1.561Zm19.386-20.988a.784.784 0 1 0 0-1.567.785.785 0 0 0-.786.783c0 .433.352.784.786.784ZM90.399 77.038a.782.782 0 1 0 0-1.561.782.782 0 1 0 0 1.561Zm21.335-15.621a.782.782 0 0 0 .784-.78.782.782 0 0 0-.784-.781.782.782 0 0 0-.783.78c0 .432.351.781.783.781Zm-2.317-1.528a.782.782 0 1 0 0-1.562.782.782 0 0 0-.783.78c0 .432.351.782.783.782Zm-2.092-1.529a.782.782 0 1 0-.783-.78c0 .43.351.78.783.78ZM93.746 81.072a.782.782 0 1 0 0-1.562.782.782 0 1 0 0 1.562Zm31.426-40.645c.433 0 .784-.35.784-.781a.782.782 0 0 0-1.567 0c0 .431.351.78.783.78Zm5.162 22.52a.781.781 0 1 0 0-1.562.782.782 0 0 0-.783.781c0 .431.351.78.783.78Zm-8.141-4.397c.432 0 .783-.35.783-.781a.782.782 0 0 0-1.566 0c0 .43.35.78.783.78Zm-13.945 5.98a.782.782 0 1 0-.783-.78c0 .43.351.78.783.78Zm61.496 128.17a.782.782 0 1 0 .002-1.564.782.782 0 0 0-.002 1.564ZM65.717 173.534a.784.784 0 1 0 0-1.566.784.784 0 1 0 0 1.566Zm54.524 10.079a.784.784 0 1 0 0-1.566.784.784 0 1 0 0 1.566Zm-38.297-10.704a.784.784 0 1 0 0-1.566.784.784 0 1 0 0 1.566Zm6.782 11.035a.784.784 0 1 0 0-1.566.784.784 0 1 0 0 1.566Zm49.922-6.953c.432 0 .783-.35.783-.781a.782.782 0 0 0-1.566 0c0 .431.35.781.783.781Zm27.522-15.484a.782.782 0 1 0 0-1.561.782.782 0 0 0-.784.781c0 .431.351.78.784.78Zm20.866 9.504a.782.782 0 1 0 0-1.561.782.782 0 0 0-.784.78c0 .432.351.781.784.781Zm7.111 4.537c.433 0 .784-.35.784-.781a.783.783 0 0 0-1.567 0c0 .431.351.781.783.781Zm1.169-12.373a.782.782 0 0 0 .784-.78.782.782 0 0 0-.784-.781.782.782 0 1 0 0 1.561ZM91.566 145.66c.432 0 .783-.35.783-.781a.782.782 0 0 0-1.567 0c0 .431.351.781.784.781Zm.297 18.194c.578 0 1.046-.467 1.046-1.042 0-.576-.468-1.043-1.046-1.043-.577 0-1.046.467-1.046 1.043 0 .575.469 1.042 1.046 1.042Zm6.275 13.207c.578 0 1.046-.467 1.046-1.043 0-.576-.468-1.043-1.046-1.043-.577 0-1.046.467-1.046 1.043 0 .576.469 1.043 1.046 1.043Zm75.162-13.763a1.043 1.043 0 1 0 0-2.085 1.043 1.043 0 1 0 0 2.085Zm27.053-1.529c.577 0 1.046-.467 1.046-1.043 0-.575-.469-1.042-1.046-1.042-.578 0-1.046.467-1.046 1.042 0 .576.468 1.043 1.046 1.043Zm-13.387-5.699c.577 0 1.046-.467 1.046-1.043 0-.576-.469-1.043-1.046-1.043-.578 0-1.046.467-1.046 1.043 0 .576.468 1.043 1.046 1.043Zm-13.666.556a1.043 1.043 0 1 0 0-2.085 1.043 1.043 0 1 0 0 2.085ZM145.111 49.21l2.601-.248-2.597-.146a1.151 1.151 0 0 0-.99-.957l-.248-2.58-.149 2.6c-.469.105-.83.497-.888.983l-2.659.241 2.678.144c.097.447.46.797.915.88l.242 2.66.142-2.655c.481-.081.862-.45.953-.922Zm-43.893 28.864 2.6-.248-2.596-.146a1.15 1.15 0 0 0-.99-.957l-.248-2.58-.147 2.601a1.146 1.146 0 0 0-.89.982l-2.659.241 2.678.144c.097.447.46.797.915.88l.242 2.66.144-2.655c.481-.079.862-.45.951-.922Zm97.229 76.314 2.601-.248-2.596-.146a1.15 1.15 0 0 0-.991-.957l-.248-2.581-.147 2.602a1.144 1.144 0 0 0-.887.982l-2.659.241 2.677.144c.098.447.46.797.916.88l.242 2.66.144-2.655c.476-.079.857-.447.948-.922ZM92.433 194.289l2.6-.248-2.596-.146a1.153 1.153 0 0 0-.99-.957l-.249-2.578-.146 2.599a1.146 1.146 0 0 0-.89.983l-2.659.24 2.678.144c.097.447.46.799.915.881l.242 2.659.144-2.655c.479-.079.862-.449.95-.922Zm97.752-19.462 2.6-.248-2.596-.146a1.15 1.15 0 0 0-.99-.957l-.248-2.581-.147 2.6c-.469.104-.83.496-.888.982l-2.658.241 2.677.144c.098.447.46.797.916.88l.241 2.66.144-2.655c.477-.077.86-.447.949-.92Z"/><path fill="#FC3D21" d="M147.105 102.723c-10.847 4.203-21.426 7.954-30.353 10.739-18.14 5.662-67.771 20.991-97.752 40.314l2.51.973c18.268-10.287 30.141-13.519 41.555-17.099 12.41-3.892 52.532-13.252 70.7-18.35a307.714 307.714 0 0 0 20.94-6.718 186.246 186.246 0 0 0-5.606-7.398 145.239 145.239 0 0 0-1.994-2.461Zm13.252 18.209c-2.626 1.767-4.827 3.178-6.368 4.068-8.925 5.144-52.434 34.753-62.333 41.565-9.898 6.812-37.371 32.668-45.46 40.175l-.278 3.056c26.076-23.354 34.257-29.114 44.623-36.975 12.829-9.731 39.368-27.734 48.388-33.503a1567.227 1567.227 0 0 0 23.378-15.226l-.342-.572c-.525-.86-1.062-1.722-1.608-2.588Zm40.763-42.919c-12.704 7.424-32.726 16.383-52.151 23.985a168.031 168.031 0 0 1 7.532 9.93c15.27-5.607 32.024-13.132 45.318-22.24-6.333 5.983-27.271 21.582-40.037 30.277a140.332 140.332 0 0 1 1.91 3.2c19.341-12.903 32.357-22.4 39.94-28.75 10.459-8.758 34.304-28.359 43.368-54.633-15.899 20.16-34.697 31.696-45.88 38.231Z"/><path fill="#fff" d="M112.978 148.028c-2.057-2.581-4.902-6.038-7.038-8.719a161.945 161.945 0 0 1-7.92-10.822l-2.366.591a164.342 164.342 0 0 0 9.708 13.528c2.584 3.244 4.934 5.855 6.138 7.479.244.329.727 1.056 1.38 2.025l2.28-1.543a46.902 46.902 0 0 1-2.182-2.539Zm15.013 13.586c-1.689-1.594-5.787-4.256-10.051-8.251-.942.644-1.892 1.298-2.845 1.956 2.754 3.869 6.505 8.621 9.443 10.006 4.425 2.09 5.617-1.668 3.453-3.711Zm22.365-57.899c-24.384-30.597-54.172-47.406-67.015-37.233-9.975 7.9-5.88 30.991 7.87 55.247.71-.244 1.415-.482 2.112-.719-13.878-23.632-17.675-45.594-8.267-53.047 11.823-9.365 40.37 7.509 64.048 37.218 4.901 6.149 9.21 12.322 12.859 18.338 13.973 23.054 18.261 43.901 8.606 52.411-2.954 2.604-11.981 3.626-23.806-1.68-.165.206.1.765.307.901 10.208 4.092 19.985 5.651 24.922 1.743 11.862-9.398 2.749-42.582-21.636-73.179Zm-104.58 3.63h15.618l13.108 22.173v-17.307c0-1.947-2.475-4.483-3.347-4.866h10.808c-.663.174-2.79 2.746-2.79 4.866v25.439c0 1.564 2.267 3.719 3.347 4.553H67.46l-13.317-22.277v17.516c0 1.737 1.708 3.405 3.486 4.83H46.125c1.638-.695 3.207-2.884 3.346-4.622.14-1.738 0-24.153 0-25.127 0-2.119-2.056-3.857-3.695-5.178Z"/><path fill="#fff" d="M188.639 142.203h20.778c-1.151-.278-2.441-1.634-3.138-3.441-.697-1.807-11.713-31.417-11.713-31.417h-7.9a623.48 623.48 0 0 1-7.205 5.09c-.007.065-.014.13-.025.193-.344 2.085-6.526 24.406-6.903 25.509-.523 1.529-3.207 3.232-4.288 4.135h11.191c-1.116-1.251-2.022-2.467-1.813-3.857.209-1.39.837-4.171.837-4.171h11.574c.523 1.39.913 2.639 1.115 3.823.244 1.425-1.22 3.024-2.51 4.136Zm-9.134-12.407 3.905-12.72 5.159 12.72h-9.064Zm-1.759-21.181c.574-.422 1.151-.846 1.725-1.27h-3.033c.302.278.801.716 1.308 1.27Zm-79.468 29.8c.209-1.39.836-4.171.836-4.171h11.574c.523 1.39.914 2.639 1.116 3.823.244 1.425-1.22 3.024-2.51 4.136h18.293c.381-.255.76-.51 1.139-.762-.709-.626-1.362-1.564-1.792-2.679-.697-1.807-11.714-31.417-11.714-31.417H97.092c.872.8 3.382 2.954 2.999 5.283-.342 2.085-6.527 24.406-6.903 25.509-.523 1.529-3.207 3.232-4.288 4.135h11.191c-1.116-1.251-2.022-2.467-1.813-3.857Zm5.787-21.339 5.159 12.72h-9.064l3.905-12.72Zm57.403 7.572a1436.456 1436.456 0 0 1-10.805 7.101c1.702.823 3.057 1.856 3.187 3.19.241 2.507-4.811 3.719-9.378 3.198a11.292 11.292 0 0 1-2.666-.663c-.948.609-1.906 1.223-2.877 1.844a383.74 383.74 0 0 0-3.556 2.31v3.598c.906-1.772 2.889-3.359 4.427-3.44.663-.035 2.964 2.085 12.446 1.564 4.602-.253 13.492-5.144 13.352-10.774-.084-3.327-1.827-5.922-4.13-7.928Zm-26.097 8.693v3.665c.839-.558 1.666-1.107 2.477-1.643-1.276-.885-2.18-1.712-2.477-2.022Zm22.855-10.994a31.773 31.773 0 0 0-2.636-1.381c-4.462-2.085-9.133-2.467-10.109-5.282-.688-1.986 1.255-3.823 5.996-3.754 4.741.07 9.134 2.885 10.319 3.893v-8.967c-.349.348-1.878 2.097-3.277 1.808-2.685-.556-7.251-1.282-12.481-1.251-5.996.034-11.155 4.654-11.33 10.495-.244 8.167 6.31 10.391 10.006 11.677.381.132.815.274 1.287.424 3.544-2.298 6.347-4.068 7.988-5.011 1.102-.633 2.545-1.541 4.237-2.651Z"/></g><defs><clipPath id="a"><path fill="#fff" d="M19 32h228v186H19z"/></clipPath></defs></svg>