<svg xmlns="http://www.w3.org/2000/svg" width="250" height="250" fill="none"><g clip-path="url(#a)"><path fill="#0B3D91" d="M116.209 227c56.495 0 102.292-45.667 102.292-102S172.704 23 116.209 23C59.715 23 13.918 68.667 13.918 125s45.797 102 102.291 102Z"/><path fill="#fff" d="M110.17 43.736a1.145 1.145 0 1 0 0-2.287c-.633 0-1.147.511-1.147 1.143s.514 1.144 1.147 1.144Zm11.774 1.524a1.145 1.145 0 1 0 0-2.287 1.145 1.145 0 1 0 0 2.287Zm15.441 20.736c.633 0 1.147-.512 1.147-1.144a1.146 1.146 0 0 0-2.294 0c0 .632.514 1.144 1.147 1.144ZM52.678 172.722c.633 0 1.147-.512 1.147-1.144 0-.631-.514-1.143-1.147-1.143s-1.147.512-1.147 1.143c0 .632.514 1.144 1.147 1.144Zm2.98 9.148c.634 0 1.147-.512 1.147-1.144 0-.631-.513-1.143-1.147-1.143a1.145 1.145 0 1 0 0 2.287Zm-14.218-8.063a.857.857 0 1 0 0-1.713.857.857 0 1 0 0 1.713Zm46.632 17.973a.86.86 0 1 0 0-1.718.86.86 0 1 0 0 1.718Zm73.146-15.152a.858.858 0 1 0 0-1.713.858.858 0 1 0 0 1.713Zm21.257-23.02a.86.86 0 0 0 .861-.859.86.86 0 0 0-1.723 0 .86.86 0 0 0 .862.859ZM78.288 72.397a.858.858 0 1 0-.858-.857c0 .473.384.856.858.856Zm23.395-17.133a.858.858 0 0 0 .859-.856.858.858 0 0 0-1.718 0c0 .473.385.856.859.856Zm-2.543-1.677a.857.857 0 1 0 0-1.712.858.858 0 0 0-.859.856c0 .473.385.856.86.856Zm-2.293-1.677a.858.858 0 1 0-.859-.856c0 .473.385.856.86.856Zm-14.89 24.91a.858.858 0 1 0-.86-.856c0 .473.385.857.86.857Zm34.46-44.578a.857.857 0 1 0-.858-.856c0 .473.384.856.858.856Zm5.661 24.7a.857.857 0 1 0 0-1.713.857.857 0 1 0 0 1.713Zm-8.926-4.823a.858.858 0 0 0 .859-.857.858.858 0 0 0-.859-.856.857.857 0 1 0 0 1.713Zm-15.293 6.558a.858.858 0 1 0-.859-.856c0 .473.385.856.859.856Zm67.429 140.574a.857.857 0 1 0 0-1.713.858.858 0 1 0 0 1.713Zm-114.063-21.02a.86.86 0 1 0 0-1.718.86.86 0 1 0 0 1.718Zm59.785 11.054a.86.86 0 0 0 .861-.859.86.86 0 0 0-1.723 0 .86.86 0 0 0 .862.859Zm-41.992-11.74a.86.86 0 0 0 .86-.859.86.86 0 0 0-1.722 0 .86.86 0 0 0 .862.859Zm7.437 12.103a.86.86 0 1 0 0-1.717.86.86 0 1 0 0 1.717Zm54.736-7.626a.858.858 0 0 0 .859-.856.858.858 0 0 0-.859-.856.858.858 0 0 0-.859.856c0 .473.385.856.859.856Zm30.18-16.982a.857.857 0 1 0 0-1.712.857.857 0 1 0 0 1.712Zm22.878 10.424a.857.857 0 1 0 0-1.713.857.857 0 1 0 0 1.713Zm7.797 4.975a.857.857 0 1 0 0-1.712.857.857 0 1 0 0 1.712Zm1.282-13.569a.858.858 0 1 0 0-1.715.858.858 0 0 0 0 1.715ZM79.566 147.659a.857.857 0 1 0 0-1.713.857.857 0 1 0 0 1.713Zm.327 19.955c.633 0 1.147-.512 1.147-1.143 0-.632-.514-1.144-1.147-1.144s-1.147.512-1.147 1.144c0 .631.514 1.143 1.147 1.143Zm6.883 14.485a1.145 1.145 0 1 0 0-2.287c-.634 0-1.147.512-1.147 1.143 0 .632.513 1.144 1.147 1.144Zm82.414-15.094a1.144 1.144 0 1 0 0-2.287 1.144 1.144 0 1 0 0 2.287Zm29.66-1.678c.633 0 1.147-.512 1.147-1.143 0-.632-.514-1.144-1.147-1.144s-1.147.512-1.147 1.144c0 .631.514 1.143 1.147 1.143Zm-14.676-6.251c.633 0 1.147-.512 1.147-1.143 0-.632-.514-1.144-1.147-1.144s-1.147.512-1.147 1.144c0 .631.514 1.143 1.147 1.143Zm-14.984.61a1.145 1.145 0 1 0 0-2.287c-.634 0-1.147.512-1.147 1.144 0 .631.513 1.143 1.147 1.143ZM138.28 41.875l2.852-.272-2.847-.16a1.263 1.263 0 0 0-1.085-1.05l-.273-2.83-.163 2.854c-.515.114-.91.544-.974 1.077l-2.915.264 2.936.158c.107.49.504.874 1.004.966l.265 2.917.155-2.912a1.275 1.275 0 0 0 1.045-1.012ZM90.151 73.532l2.852-.271-2.847-.16a1.261 1.261 0 0 0-1.085-1.05l-.273-2.83-.16 2.853a1.256 1.256 0 0 0-.977 1.077l-2.915.265 2.936.157c.107.49.504.874 1.004.966l.265 2.917.158-2.912a1.267 1.267 0 0 0 1.042-1.011Zm106.611 83.699 2.852-.271-2.847-.161a1.261 1.261 0 0 0-1.086-1.049l-.272-2.831-.161 2.854c-.515.114-.91.544-.973 1.077l-2.916.265 2.936.157c.107.491.505.874 1.004.966l.265 2.917.158-2.912a1.27 1.27 0 0 0 1.04-1.012ZM80.518 200.994l2.852-.272-2.847-.16a1.263 1.263 0 0 0-1.085-1.049l-.273-2.828-.16 2.851a1.255 1.255 0 0 0-.976 1.077l-2.916.264 2.936.158c.107.49.505.877 1.004.966l.265 2.917.158-2.912a1.27 1.27 0 0 0 1.042-1.012Zm107.185-21.345 2.852-.272-2.847-.16a1.26 1.26 0 0 0-1.085-1.049l-.273-2.831-.16 2.851c-.515.114-.91.544-.974 1.077l-2.915.265 2.936.157a1.26 1.26 0 0 0 1.004.966l.265 2.917.158-2.912a1.265 1.265 0 0 0 1.039-1.009Z"/><path fill="#FC3D21" d="M140.466 100.567c-11.893 4.61-23.493 8.724-33.282 11.778C87.294 118.556 32.874 135.368 0 156.56l2.752 1.068c20.03-11.283 33.05-14.828 45.565-18.754 13.608-4.269 57.601-14.535 77.521-20.125a337.647 337.647 0 0 0 22.961-7.369 204.878 204.878 0 0 0-6.146-8.114 160.504 160.504 0 0 0-2.187-2.699Zm14.531 19.971c-2.88 1.939-5.293 3.486-6.983 4.462-9.785 5.641-57.493 38.117-68.347 45.587-10.853 7.471-40.978 35.83-49.846 44.063l-.306 3.352c28.593-25.614 37.563-31.932 48.929-40.554 14.067-10.672 43.167-30.417 53.057-36.744a1725.164 1725.164 0 0 0 25.634-16.7l-.375-.628a234.848 234.848 0 0 0-1.763-2.838Zm44.696-47.072c-13.93 8.142-35.884 17.969-57.183 26.306a184.724 184.724 0 0 1 8.259 10.891c16.743-6.149 35.114-14.403 49.691-24.392-6.945 6.561-29.903 23.67-43.901 33.207a156.557 156.557 0 0 1 2.095 3.509c21.207-14.151 35.478-24.567 43.793-31.532 11.468-9.606 37.614-31.103 47.553-59.92-17.433 22.11-38.045 34.763-50.307 41.931Z"/><path fill="#fff" d="M103.045 150.256c-2.256-2.831-5.375-6.622-7.717-9.562a177.699 177.699 0 0 1-8.685-11.87l-2.594.648a180.356 180.356 0 0 0 10.644 14.838c2.834 3.557 5.411 6.421 6.731 8.203.267.36.797 1.158 1.513 2.221l2.5-1.693a51.182 51.182 0 0 1-2.392-2.785Zm16.462 14.901c-1.853-1.748-6.345-4.668-11.022-9.049a956.629 956.629 0 0 0-3.119 2.145c3.02 4.244 7.133 9.455 10.354 10.975 4.852 2.292 6.16-1.83 3.787-4.071Zm24.523-63.502c-26.738-33.558-59.4-51.994-73.482-40.836-10.938 8.665-6.448 33.99 8.629 60.593.78-.267 1.551-.529 2.316-.788-15.216-25.919-19.38-50.006-9.065-58.18 12.964-10.272 44.266 8.235 70.228 40.819 5.375 6.744 10.1 13.514 14.1 20.113 15.321 25.284 20.023 48.149 9.437 57.483-3.239 2.856-13.137 3.976-26.103-1.843-.181.226.11.839.337.989 11.192 4.487 21.913 6.198 27.326 1.911 13.007-10.307 3.014-46.703-23.723-80.261Zm-114.67 3.982h17.124l14.373 24.318v-18.982c0-2.134-2.714-4.917-3.67-5.336h11.85c-.726.19-3.058 3.011-3.058 5.336v27.901c0 1.716 2.485 4.079 3.67 4.994H53.136l-14.603-24.433v19.211c0 1.906 1.874 3.735 3.823 5.298H29.742c1.796-.762 3.516-3.164 3.67-5.07.152-1.905 0-26.491 0-27.558 0-2.325-2.256-4.231-4.053-5.679Z"/><path fill="#fff" d="M186.006 143.868h22.783c-1.262-.305-2.676-1.792-3.44-3.774-.765-1.982-12.844-34.457-12.844-34.457h-8.662a717.628 717.628 0 0 1-7.9 5.583c-.008.071-.015.142-.028.21-.377 2.287-7.156 26.768-7.569 27.978-.573 1.677-3.516 3.545-4.701 4.536h12.27c-1.223-1.372-2.217-2.706-1.988-4.231.23-1.525.918-4.574.918-4.574h12.69c.574 1.525 1.002 2.894 1.224 4.193.267 1.563-1.338 3.316-2.753 4.536Zm-10.015-13.608 4.282-13.951 5.657 13.951h-9.939Zm-1.929-23.231c.63-.462 1.262-.927 1.891-1.392h-3.325c.331.305.879.785 1.434 1.392Zm-87.135 32.684c.23-1.525.918-4.574.918-4.574h12.69c.574 1.525 1.002 2.894 1.224 4.193.267 1.563-1.338 3.316-2.752 4.536h20.058l1.248-.836c-.777-.686-1.493-1.716-1.964-2.938-.765-1.982-12.844-34.457-12.844-34.457H85.628c.955.876 3.707 3.24 3.287 5.793-.375 2.287-7.156 26.768-7.569 27.978-.573 1.677-3.517 3.545-4.702 4.536h12.27c-1.222-1.372-2.216-2.706-1.987-4.231Zm6.346-23.404 5.657 13.951h-9.939l4.282-13.951Zm62.943 8.305a1577.864 1577.864 0 0 1-11.847 7.788c1.865.902 3.351 2.036 3.494 3.499.265 2.75-5.275 4.079-10.283 3.507a12.38 12.38 0 0 1-2.923-.727c-1.04.669-2.089 1.342-3.155 2.023a419.828 419.828 0 0 0-3.899 2.534v3.946c.994-1.944 3.168-3.685 4.855-3.774.726-.038 3.249 2.287 13.646 1.716 5.046-.277 14.794-5.642 14.641-11.817-.092-3.649-2.003-6.495-4.529-8.695Zm-28.615 9.534v4.02c.92-.612 1.827-1.215 2.716-1.802-1.399-.97-2.39-1.878-2.716-2.218Zm25.06-12.058a35.025 35.025 0 0 0-2.889-1.514c-4.893-2.287-10.016-2.706-11.086-5.794-.754-2.178 1.376-4.193 6.575-4.116 5.199.076 10.015 3.163 11.315 4.269v-9.834c-.383.381-2.059 2.299-3.594 1.982-2.943-.61-7.95-1.406-13.684-1.373-6.575.039-12.232 5.106-12.424 11.512-.267 8.957 6.919 11.397 10.971 12.807.418.145.895.3 1.412.465 3.886-2.521 6.96-4.462 8.759-5.497 1.208-.693 2.79-1.689 4.645-2.907Z"/></g><defs><clipPath id="a"><path fill="#fff" d="M0 23h250v204H0z"/></clipPath></defs></svg>