<?xml version="1.0" encoding="UTF-8" standalone="no"?>
<svg
   version="1.1"
   id="Layer_1"
   x="0px"
   y="0px"
   width="359.50598"
   viewBox="0 0 359.50598 358.89941"
   enable-background="new 0 0 500 500"
   xml:space="preserve"
   sodipodi:docname="newsdata.svg"
   height="358.89941"
   inkscape:version="1.2.1 (9c6d41e410, 2022-07-14, custom)"
   xmlns:inkscape="http://www.inkscape.org/namespaces/inkscape"
   xmlns:sodipodi="http://sodipodi.sourceforge.net/DTD/sodipodi-0.dtd"
   xmlns="http://www.w3.org/2000/svg"
   xmlns:svg="http://www.w3.org/2000/svg"><defs
   id="defs894" /><sodipodi:namedview
   id="namedview892"
   pagecolor="#ffffff"
   bordercolor="#666666"
   borderopacity="1.0"
   inkscape:showpageshadow="2"
   inkscape:pageopacity="0.0"
   inkscape:pagecheckerboard="0"
   inkscape:deskcolor="#d1d1d1"
   showgrid="false"
   inkscape:zoom="2.054"
   inkscape:cx="178.67575"
   inkscape:cy="177.21519"
   inkscape:window-width="3840"
   inkscape:window-height="2083"
   inkscape:window-x="0"
   inkscape:window-y="40"
   inkscape:window-maximized="1"
   inkscape:current-layer="Layer_1" />

<path
   fill="#1b6fd8"
   opacity="1"
   stroke="none"
   d="m 179.96189,346.86604 c -9.54782,5.84922 -19.45969,10.90357 -30.86189,11.63553 -5.18802,0.33307 -10.58124,0.42758 -15.63391,-0.59384 -23.72789,-4.79669 -39.929657,-18.44754 -47.802107,-41.66492 -0.5213,-1.53741 -2.82839,-3.37057 -4.43581,-3.50543 -32.627181,-2.73721 -56.715381,-30.03396 -55.113121,-62.83053 0.17658,-3.61451 1.25281,-7.20456 1.23153,-10.80192 -0.0128,-2.15515 -0.71273,-4.98965 -2.18445,-6.34817 C 8.4398318,217.32079 2.0613818,198.39851 6.0375318,176.15587 c 0.97771,-5.46939 3.26013,-10.81217 5.6419702,-15.88484 1.48276,-3.15787 1.37273,-5.34565 -0.58458,-8.10916 C 3.9088118,142.01567 -0.33998815,130.46053 0.02134185,118.21373 0.82034185,91.132399 16.640442,68.339339 44.252982,60.357349 c 3.24518,-0.9381 5.55398,-2.06818 6.89208,-5.45811 12.13813,-30.750604 47.314101,-46.193002 79.214058,-32.940438 0.59548,0.247383 1.22652,0.409134 1.91606,0.63549 C 144.64106,8.220695 160.18423,0.442848 179.4777,0 c 0.42178,17.710456 0.42013,34.867909 0.42355,52.025369 0.0195,98.280221 0.0403,196.560461 0.0606,294.840671 z"
   id="path887" />
<path
   fill="#044ba2"
   opacity="1"
   stroke="none"
   d="m 180.28461,347.06129 c -0.34308,-98.47546 -0.36381,-196.7557 -0.38336,-295.035921 -0.003,-17.15746 -0.002,-34.314913 0.002,-51.93683 15.75049,0.0081 30.0325,5.236541 40.92389,16.306816 5.58258,5.674316 9.72016,5.271293 16.12711,3.378853 29.04809,-8.579995 59.99212,6.732704 71.34991,34.991501 1.14646,2.85239 2.63358,4.5454 5.7435,5.41674 24.67038,6.91212 40.39829,24.8277 44.71543,49.564831 2.79458,16.01297 -2.61377,30.01986 -10.88862,43.34479 -0.97155,1.5645 -1.32534,4.51346 -0.50717,6.03795 11.69117,21.78374 9.1225,48.08496 -6.91626,67.19974 -1.89611,2.25976 -4.01107,4.3909 -6.28769,6.2615 -2.45797,2.01969 -2.46505,4.27515 -1.91775,7.10318 4.77606,24.67768 -2.88867,45.0423 -22.20963,60.75989 -9.03915,7.35336 -19.78485,11.63852 -31.59613,11.98523 -3.54739,0.10413 -4.05944,1.98291 -4.8507,4.34521 -5.07279,15.14472 -14.27277,27.01978 -28.4874,34.46637 -16.01865,8.39167 -32.72995,10.41147 -49.83539,3.37561 -5.04349,-2.07449 -9.78107,-4.89279 -14.98157,-7.56546 z"
   id="path889" />
</svg>
