<svg xmlns="http://www.w3.org/2000/svg" xml:space="preserve" width="359.506" height="358.899"><path fill="#1b6fd8" d="M179.962 346.866c-9.548 5.85-19.46 10.904-30.862 11.636-5.188.333-10.581.427-15.634-.594-23.728-4.797-39.93-18.448-47.802-41.665-.521-1.538-2.828-3.37-4.436-3.506-32.627-2.737-56.715-30.034-55.113-62.83.177-3.615 1.253-7.205 1.232-10.802-.013-2.155-.713-4.99-2.185-6.348-16.722-15.436-23.1-34.358-19.124-56.601.977-5.47 3.26-10.812 5.642-15.885 1.482-3.158 1.372-5.346-.585-8.11C3.909 142.017-.34 130.462.02 118.215c.8-27.082 16.62-49.875 44.232-57.857 3.245-.938 5.554-2.068 6.892-5.458C63.283 24.15 98.46 8.706 130.36 21.96c.596.247 1.227.409 1.916.635C144.641 8.221 160.185.443 179.478 0c.421 17.71.42 34.868.423 52.025l.06 294.841z"/><path fill="#044ba2" d="M180.285 347.061c-.343-98.475-.364-196.755-.384-295.036-.003-17.157-.002-34.315.002-51.936 15.75.008 30.033 5.236 40.924 16.306 5.583 5.675 9.72 5.272 16.127 3.38 29.048-8.58 59.992 6.732 71.35 34.99 1.147 2.853 2.634 4.546 5.744 5.417 24.67 6.913 40.398 24.828 44.715 49.565 2.795 16.013-2.614 30.02-10.889 43.345-.971 1.565-1.325 4.514-.507 6.038 11.691 21.784 9.123 48.085-6.916 67.2-1.896 2.26-4.011 4.39-6.288 6.261-2.458 2.02-2.465 4.275-1.917 7.103 4.776 24.678-2.89 45.043-22.21 60.76-9.04 7.354-19.785 11.639-31.596 11.986-3.548.104-4.06 1.982-4.85 4.345-5.074 15.144-14.274 27.02-28.488 34.466-16.019 8.392-32.73 10.412-49.836 3.376-5.043-2.075-9.78-4.893-14.981-7.566z"/></svg>