<svg xmlns="http://www.w3.org/2000/svg" width="250" height="250" fill="none"><g clip-path="url(#a)"><path fill="#1B6FD8" d="M125.123 223.925c-5.63 3.439-11.475 6.411-18.199 6.841-3.059.196-6.24.251-9.22-.349-13.992-2.82-23.546-10.845-28.188-24.495-.308-.904-1.668-1.982-2.616-2.061-19.24-1.609-33.445-17.657-32.5-36.939.104-2.125.739-4.235.726-6.35-.007-1.267-.42-2.934-1.288-3.732-9.861-9.075-13.622-20.2-11.278-33.276.577-3.216 1.923-6.357 3.327-9.339.875-1.857.81-3.143-.344-4.768-4.238-5.965-6.744-12.758-6.53-19.958.47-15.921 9.8-29.322 26.083-34.014 1.914-.552 3.275-1.216 4.064-3.21C56.318 34.198 77.061 25.12 95.873 32.91c.35.145.723.24 1.13.373 7.292-8.45 16.457-13.023 27.835-13.283.248 10.412.247 20.5.249 30.586l.036 173.339Z"/><path fill="#044BA2" d="M125.313 224.04c-.202-57.894-.215-115.674-.226-173.454-.002-10.087-.001-20.174.001-30.534 9.288.005 17.71 3.079 24.133 9.587 3.292 3.336 5.732 3.099 9.51 1.986 17.13-5.044 35.377 3.959 42.075 20.572.676 1.677 1.553 2.672 3.387 3.185 14.548 4.063 23.823 14.596 26.368 29.14 1.648 9.413-1.541 17.648-6.421 25.482-.572.92-.781 2.654-.299 3.55 6.895 12.807 5.38 28.269-4.078 39.507a28.343 28.343 0 0 1-3.708 3.681c-1.449 1.188-1.454 2.514-1.131 4.176 2.817 14.509-1.703 26.481-13.097 35.722-5.33 4.323-11.667 6.842-18.632 7.046-2.092.061-2.394 1.166-2.86 2.554-2.992 8.904-8.417 15.886-16.799 20.263-9.447 4.934-19.301 6.121-29.388 1.985-2.974-1.22-5.768-2.877-8.835-4.448Z"/></g><defs><clipPath id="a"><path fill="#fff" d="M19 20h212v211H19z"/></clipPath></defs></svg>