<svg xmlns="http://www.w3.org/2000/svg" width="48" height="48" fill="none"><path fill="#fff" d="M24 48c13.255 0 24-10.745 24-24S37.255 0 24 0 0 10.745 0 24s10.745 24 24 24Z"/><path fill="#000" fill-rule="evenodd" d="m28.46 9.068-16.65 1.226c-1.342.116-1.81.991-1.81 2.04v18.198c0 .817.292 1.516.993 2.45l3.914 5.074c.643.817 1.227.992 2.455.934l19.335-1.167c1.635-.116 2.103-.875 2.103-2.158V15.193c0-.664-.263-.855-1.037-1.42a46.72 46.72 0 0 1-.132-.097l-5.315-3.733c-1.285-.932-1.811-1.05-3.856-.875ZM17.8 14.857c-1.579.106-1.937.13-2.834-.597l-2.28-1.808c-.232-.234-.115-.526.468-.584l16.007-1.166c1.343-.117 2.044.35 2.57.758l2.746 1.983c.117.059.408.408.058.408l-16.531.992-.204.014ZM15.959 35.49V18.11c0-.759.233-1.109.934-1.168l18.985-1.108c.644-.058.936.35.936 1.108v17.264c0 .759-.117 1.401-1.17 1.459l-18.167 1.05c-1.051.058-1.518-.291-1.518-1.225Zm17.935-16.448c.116.525 0 1.05-.527 1.11l-.876.173v12.832c-.76.408-1.46.641-2.044.641-.935 0-1.17-.292-1.87-1.166l-5.726-8.982v8.69l1.812.409s0 1.05-1.462 1.05l-4.03.233c-.116-.234 0-.816.41-.933l1.05-.291v-11.49l-1.46-.118c-.116-.525.175-1.283.994-1.341l4.323-.292 5.959 9.1v-8.05l-1.52-.174c-.116-.643.35-1.109.935-1.167l4.032-.234Z" clip-rule="evenodd"/></svg>