<svg width="250" height="250" viewBox="0 0 250 250" fill="none" xmlns="http://www.w3.org/2000/svg">
<path fill-rule="evenodd" clip-rule="evenodd" d="M79.985 78.6265C84.4408 82.2466 86.1124 81.9704 94.4797 81.4121L173.361 76.6757C175.034 76.6757 173.643 75.0066 173.085 74.7293L159.985 65.2586C157.474 63.3097 154.13 61.0779 147.72 61.6362L71.3392 67.2072C68.5536 67.4834 67.9973 68.8762 69.1066 69.9925L79.985 78.6265ZM84.7209 97.0099V180.007C84.7209 184.468 86.95 186.136 91.9669 185.861L178.658 180.844C183.677 180.568 184.236 177.5 184.236 173.877V91.4364C184.236 87.8188 182.845 85.8679 179.772 86.1464L89.1793 91.4364C85.8359 91.7174 84.7207 93.3897 84.7207 97.0099H84.7209ZM170.302 101.462C170.858 103.971 170.302 106.478 167.788 106.76L163.611 107.592V168.866C159.985 170.815 156.64 171.93 153.854 171.93C149.392 171.93 148.275 170.536 144.933 166.361L117.611 123.469V164.968L126.256 166.919C126.256 166.919 126.256 171.93 119.281 171.93L100.052 173.045C99.4929 171.93 100.052 169.147 102.002 168.59L107.02 167.199V112.329L100.053 111.77C99.4941 109.261 100.886 105.643 104.791 105.363L125.42 103.972L153.854 147.422V108.985L146.604 108.153C146.048 105.086 148.275 102.858 151.062 102.582L170.302 101.462ZM64.9261 59.6876L144.375 53.8368C154.131 53 156.642 53.5606 162.774 58.0149L188.135 75.84C192.319 78.9052 193.714 79.7397 193.714 83.0812V180.844C193.714 186.971 191.482 190.595 183.679 191.149L91.4148 196.721C85.5569 197 82.769 196.165 79.7012 192.264L61.025 168.032C57.6788 163.572 56.2871 160.235 56.2871 156.331V69.4323C56.2871 64.4218 58.5198 60.2423 64.9261 59.6876Z" fill="black"/>
</svg>
