<svg xmlns="http://www.w3.org/2000/svg" width="250" height="250" fill="none"><g clip-path="url(#a)"><path fill="#000" d="M209 43.839C209 19.968 186.173 14 168.151 14v3.58c10.813 0 19.223 3.581 19.223 11.936a12.582 12.582 0 0 1-1.315 5.038 12.657 12.657 0 0 1-3.248 4.084 12.751 12.751 0 0 1-4.629 2.437 12.802 12.802 0 0 1-5.225.377 156.543 156.543 0 0 1-39.648-9.549 160.388 160.388 0 0 0-42.05-9.548 39.529 39.529 0 0 0-15.32 2.439 39.333 39.333 0 0 0-13.175 8.14 39.04 39.04 0 0 0-8.976 12.571 38.82 38.82 0 0 0-3.378 15.043 27.535 27.535 0 0 0 4.837 15.957 27.82 27.82 0 0 0 13.185 10.302l1.201-2.388a12.631 12.631 0 0 1-5.418-4.886 12.512 12.512 0 0 1-1.79-7.05 15.086 15.086 0 0 1 5.694-9.998 15.281 15.281 0 0 1 11.126-3.13 178.504 178.504 0 0 1 44.453 10.742 341.427 341.427 0 0 0 44.453 9.548v37l-18.022 15.516v1.194l18.022 15.516v51.323a55.785 55.785 0 0 1-30.036 7.161 59.572 59.572 0 0 1-25.587-4.321 59.236 59.236 0 0 1-21.269-14.776l49.259-23.871V80.839l-60.072 26.258c6.724-14.362 17.598-26.411 31.237-34.613l-1.201-2.387C91.647 74.639 74.799 85.116 62.455 99.96A88.837 88.837 0 0 0 42 152.452c.062 22.139 8.942 43.354 24.7 59.009 15.76 15.656 37.115 24.478 59.401 24.539a78.608 78.608 0 0 0 30.244-5.577 78.202 78.202 0 0 0 25.735-16.739 77.615 77.615 0 0 0 17.241-25.308 77.223 77.223 0 0 0 6.075-29.957h-2.403c-6.324 15.238-17.235 28.161-31.238 37v-48.935l19.223-15.516v-1.194l-18.021-15.516V78.452a34.54 34.54 0 0 0 13.784-2.136 34.365 34.365 0 0 0 11.792-7.407 34.104 34.104 0 0 0 7.851-11.457A33.907 33.907 0 0 0 209 43.84Zm-104.525 131.29-14.417 7.161a70.471 70.471 0 0 1-13.216-45.355 84.307 84.307 0 0 1 3.604-25.064l25.23-10.742-1.201 74Z"/></g><defs><clipPath id="a"><path fill="#fff" d="M42 14h167v222H42z"/></clipPath></defs></svg>