<svg xmlns="http://www.w3.org/2000/svg" width="250" height="250" fill="none"><g clip-path="url(#a)"><path fill="#000" d="M214 38.72C214 13.344 189.806 7 170.705 7v3.806c11.46 0 20.374 3.807 20.374 12.689a13.394 13.394 0 0 1-1.394 5.355 13.45 13.45 0 0 1-3.442 4.341 13.504 13.504 0 0 1-10.444 2.992 165.499 165.499 0 0 1-42.022-10.15 169.558 169.558 0 0 0-44.568-10.151 41.781 41.781 0 0 0-16.237 2.592 41.67 41.67 0 0 0-13.964 8.653 41.499 41.499 0 0 0-9.514 13.365 41.37 41.37 0 0 0-3.58 15.992 29.333 29.333 0 0 0 5.126 16.963 29.498 29.498 0 0 0 13.974 10.95l1.274-2.537a13.402 13.402 0 0 1-5.742-5.195 13.333 13.333 0 0 1-1.898-7.493 16.05 16.05 0 0 1 6.035-10.629 16.162 16.162 0 0 1 11.792-3.328 188.713 188.713 0 0 1 47.115 11.42c15.46 4.428 31.2 7.82 47.115 10.15v39.333l-19.101 16.495v1.269l19.101 16.494v54.56a58.968 58.968 0 0 1-31.835 7.612 62.964 62.964 0 0 1-27.118-4.593 62.766 62.766 0 0 1-22.543-15.708l52.208-25.376V78.054l-63.669 27.914a84.927 84.927 0 0 1 33.108-36.796l-1.273-2.538A95.185 95.185 0 0 0 58.68 98.381 94.604 94.604 0 0 0 37 154.183c.066 23.536 9.478 46.089 26.18 62.731 16.702 16.642 39.336 26.021 62.957 26.086a83.098 83.098 0 0 0 32.055-5.929 82.86 82.86 0 0 0 27.276-17.794 82.507 82.507 0 0 0 18.273-26.904 82.295 82.295 0 0 0 6.439-31.846h-2.547a85.048 85.048 0 0 1-33.108 39.333v-52.021l20.374-16.495v-1.269l-19.1-16.494V75.516a36.506 36.506 0 0 0 14.609-2.27 36.41 36.41 0 0 0 12.498-7.875 36.27 36.27 0 0 0 8.322-12.178A36.145 36.145 0 0 0 214 38.72ZM103.216 178.29l-15.28 7.613a75.077 75.077 0 0 1-14.008-48.215 89.865 89.865 0 0 1 3.82-26.645l26.741-11.42-1.273 78.667Z"/></g><defs><clipPath id="a"><path fill="#fff" d="M37 7h177v236H37z"/></clipPath></defs></svg>