<svg width="250" height="250" viewBox="0 0 250 250" fill="none" xmlns="http://www.w3.org/2000/svg">
<path d="M84.4459 124.855C84.4459 114.986 84.4611 105.11 84.4231 95.2482C84.4231 93.8764 85.3262 93.0229 86.6921 93.0229C89.2191 93.0076 91.7613 93 94.2882 93.0229C95.7225 93.0381 96.5572 93.9145 96.542 95.2634C96.5041 103.997 96.5193 112.746 96.5193 121.479V121.959C96.5344 122.927 96.9594 123.636 97.8473 124.017C98.7048 124.383 99.5091 124.192 100.207 123.445C102.757 120.702 105.299 117.951 107.834 115.2C109.389 113.508 110.968 111.839 112.508 110.139C113.093 109.499 113.768 109.194 114.641 109.21C117.82 109.232 121.015 109.232 124.195 109.21C125.136 109.21 125.879 109.499 126.274 110.376C126.676 111.282 126.486 112.09 125.811 112.829C121.038 118.134 116.28 123.445 111.514 128.749C111.135 129.176 110.763 129.618 110.467 130.106C109.936 130.967 109.936 131.813 110.429 132.689C110.96 133.634 111.712 134.397 112.455 135.166C118.23 141.126 124.02 147.085 129.81 153.03C130.508 153.754 130.713 154.546 130.364 155.476C130.03 156.345 129.37 156.741 128.285 156.741C124.749 156.741 121.205 156.726 117.669 156.741C116.872 156.741 116.257 156.489 115.688 155.88C110.55 150.461 105.375 145.073 100.215 139.678C99.4788 138.9 98.6592 138.702 97.8093 139.06C96.9518 139.403 96.5041 140.135 96.5041 141.194V154.477C96.5041 155.91 95.7832 156.649 94.3717 156.657H86.6011C85.0454 156.657 84.4383 156.04 84.4383 154.5L84.4459 124.855ZM132.663 114.925C132.663 108.394 132.686 101.855 132.641 95.3244C132.626 93.8459 133.483 93 134.978 93C137.437 93.0152 139.88 93 142.331 93C143.765 93 144.585 93.8078 144.585 95.2405C144.6 99.051 144.6 102.869 144.608 106.679C144.608 108.326 145.45 109.179 147.074 109.179H157.281C158.358 109.179 159.064 109.766 159.276 110.825C159.383 111.336 159.345 111.846 159.36 112.372V118.69C159.36 120.344 158.624 121.083 156.977 121.083C153.714 121.083 150.451 121.068 147.188 121.068C145.518 121.068 144.661 121.914 144.646 123.567C144.631 126.928 144.577 130.274 144.623 133.634C144.691 138.756 148.599 143.473 153.676 144.677C155.171 145.035 156.689 145.096 158.206 144.883C159.443 144.708 160.339 145.371 160.483 146.62C160.794 149.28 161.075 151.947 161.348 154.607C161.454 155.621 160.718 156.55 159.679 156.718C156.878 157.198 154.078 157.03 151.324 156.406C141.489 154.196 134.265 146.3 132.853 136.294C132.709 135.303 132.663 134.313 132.663 133.33V114.925ZM219.985 146.133C219.985 145.226 219.294 144.593 218.391 144.548C217.776 144.525 217.169 144.502 216.555 144.448C213.413 144.212 211.797 142.734 211.228 139.624C210.787 137.254 210.803 134.846 210.787 132.438C210.765 125.526 210.772 118.614 210.772 111.702C210.772 111.496 210.772 111.305 210.757 111.107C210.674 109.987 209.869 109.187 208.738 109.187C206.09 109.171 203.434 109.171 200.786 109.187C199.587 109.187 198.737 110.048 198.684 111.237C198.669 111.526 198.684 111.824 198.684 112.166C198.456 112.045 198.281 111.961 198.115 111.877C193.334 109.354 188.265 108.539 182.937 109.431C169.377 111.717 160.536 125.358 163.905 138.74C168.185 155.72 188.454 162.479 202.015 151.429C202.334 151.17 202.463 151.178 202.713 151.528C204.109 153.533 205.953 154.98 208.245 155.857C210.772 156.825 213.405 156.954 216.077 156.764C217.025 156.695 217.966 156.558 218.831 156.124C219.446 155.811 219.947 155.346 219.962 154.638C220.015 151.803 220 148.968 219.985 146.133ZM186.99 144.906C180.395 144.883 175.152 139.495 175.174 132.743C175.197 126.357 180.585 121.052 187.05 121.068C193.683 121.083 198.919 126.433 198.904 133.2C198.881 139.579 193.455 144.913 186.99 144.906ZM54.8279 109.088C42.2309 109.111 31.2882 118.88 31.0075 132.453C30.7191 146.491 41.7908 156.535 54.1525 156.848C67.3717 157.183 78.322 146.704 78.5496 133.467C78.7697 119.993 68.2596 109.24 54.8279 109.088ZM54.7444 144.906C48.241 144.906 42.9063 139.541 42.8911 132.987C42.8759 126.425 48.2031 121.068 54.7672 121.045C61.3161 121.03 66.6204 126.372 66.6204 132.971C66.6204 139.571 61.3161 144.906 54.7444 144.906Z" fill="#00297A"/>
</svg>
