<svg fill="none" viewBox="0 0 64 64" xmlns="http://www.w3.org/2000/svg"><path d="m61.7374 23.5c-1.2496 0-2.2626 1.013-2.2626 2.2626 0 18.6187-15.0935 33.7122-33.7122 33.7122-1.2496 0-2.2626 1.013-2.2626 2.2626s1.013 2.2626 2.2626 2.2626c21.1179 0 38.2374-17.1195 38.2374-38.2374 0-1.2496-1.013-2.2626-2.2626-2.2626z" fill="#005eb8"/><path d="m48.0814 38c2.1758-3.5495 4.2801-8.2822 3.8661-14.9079-.8576-13.72485-13.2886-24.13673-25.0269-23.0083673-4.5953.4417323-9.3138 4.1874673-8.8946 10.8967673.1822 2.9156 1.6092 4.6364 3.9284 5.9594 2.2074 1.2593 5.0434 2.057 8.2584 2.9612 3.8834 1.0923 8.3881 2.3192 11.8502 4.8706 4.1495 3.0578 6.9861 6.6026 6.0184 13.2283z" fill="#003b5c"/><path d="m3.91861 14c-2.17585 3.5495-4.280116 8.2822-3.8661169 14.9079.8575789 13.7248 13.2886069 24.1367 25.0269069 23.0084 4.5953-.4418 9.3138-4.1875 8.8946-10.8968-.1822-2.9156-1.6093-4.6364-3.9284-5.9594-2.2074-1.2593-5.0434-2.057-8.2584-2.9612-3.8834-1.0923-8.3881-2.3192-11.85026-4.8706-4.14948-3.0579-6.98602-6.6026-6.01833-13.2283z" fill="#005eb8"/></svg>