<svg width="250" height="250" viewBox="0 0 250 250" fill="none" xmlns="http://www.w3.org/2000/svg">
<g clip-path="url(#clip0_2_7262)">
<path d="M111.895 111.158H124.576L117.871 100.419L105.564 119.835H99.9635L114.932 96.5116C115.583 95.5694 116.668 95 117.871 95C119.034 95 120.119 95.5496 120.75 96.4724L135.778 119.835H130.178L127.535 115.497H114.696L111.895 111.158H111.895ZM170.075 115.496V95.2354H165.322V117.479C165.322 118.088 165.559 118.677 166.012 119.129C166.466 119.58 167.077 119.835 167.748 119.835H189.422L192.223 115.497H170.075L170.075 115.496ZM91.4432 111.864C96.0585 111.864 99.8057 108.154 99.8057 103.56C99.8057 98.9653 96.0585 95.2351 91.4432 95.2351H70.6503V119.836H75.4016V99.5746H91.128C93.3369 99.5746 95.1117 101.362 95.1117 103.56C95.1117 105.759 93.3369 107.546 91.128 107.546L77.7289 107.526L91.9166 119.836H98.8195L89.2741 111.865H91.4436L91.4432 111.864ZM41.4031 119.835C34.5812 119.836 29.0449 114.338 29.0449 107.546C29.0449 100.752 34.5812 95.2358 41.4031 95.2358H55.7665C62.5899 95.2358 68.1221 100.752 68.1221 107.546C68.1221 114.338 62.5899 119.835 55.7662 119.835H41.4031ZM55.4472 115.497C59.8668 115.497 63.4464 111.943 63.4464 107.545C63.4464 103.148 59.8668 99.5746 55.4472 99.5746H41.7209C37.3028 99.5746 33.7213 103.148 33.7213 107.546C33.7213 111.943 37.3028 115.497 41.7205 115.497H55.4468H55.4472ZM145.699 119.835C138.875 119.835 133.333 114.338 133.333 107.546C133.333 100.752 138.875 95.2358 145.699 95.2358H162.759L159.977 99.5746H146.014C141.597 99.5746 138.007 103.148 138.007 107.546C138.007 111.943 141.597 115.497 146.014 115.497H163.153L160.352 119.835H145.699ZM203.82 115.497C200.171 115.497 197.075 113.062 196.128 109.705H216.442L219.242 105.366H196.128C197.075 102.028 200.171 99.5746 203.82 99.5746H217.764L220.583 95.2351H203.504C196.68 95.2351 191.138 100.752 191.138 107.545C191.138 114.338 196.68 119.835 203.504 119.835H218.157L220.958 115.497H203.819H203.82Z" fill="#EA1B22"/>
</g>
<path d="M35.7422 156C41.5036 156 44.9936 152.436 44.9936 146.527C44.9936 140.636 41.5036 137.091 35.7976 137.091H29.0391V156H35.7422ZM33.0369 152.575V140.516H35.5852C39.1307 140.516 41.005 142.326 41.005 146.527C41.005 150.746 39.1307 152.575 35.576 152.575H33.0369Z" fill="black"/>
<path d="M57.9479 156L59.3513 151.688H66.1745L67.5779 156H71.862L65.3435 137.091H60.1915L53.6638 156H57.9479ZM60.3669 148.567L62.6936 141.412H62.8414L65.1681 148.567H60.3669Z" fill="black"/>
<path d="M78.8818 140.387H84.6708V156H88.6225V140.387H94.4116V137.091H78.8818V140.387Z" fill="black"/>
<path d="M105.692 156L107.096 151.688H113.919L115.322 156H119.607L113.088 137.091H107.936L101.408 156H105.692ZM108.111 148.567L110.438 141.412H110.586L112.913 148.567H108.111Z" fill="black"/>
<path d="M129.682 156H137.761C142.008 156 144.27 153.784 144.27 150.774C144.27 147.977 142.267 146.287 140.116 146.185V146.001C142.082 145.558 143.532 144.163 143.532 141.938C143.532 139.104 141.427 137.091 137.253 137.091H129.682V156ZM133.68 152.732V147.709H137.032C138.952 147.709 140.143 148.817 140.143 150.377C140.143 151.799 139.174 152.732 136.94 152.732H133.68ZM133.68 145.004V140.322H136.718C138.491 140.322 139.497 141.237 139.497 142.603C139.497 144.099 138.278 145.004 136.644 145.004H133.68Z" fill="black"/>
<path d="M157.931 156L159.335 151.688H166.158L167.561 156H171.845L165.327 137.091H160.175L153.647 156H157.931ZM160.35 148.567L162.677 141.412H162.825L165.151 148.567H160.35Z" fill="black"/>
<path d="M191.747 142.529H195.579C195.524 139.159 192.754 136.832 188.543 136.832C184.398 136.832 181.36 139.122 181.379 142.557C181.369 145.345 183.336 146.942 186.531 147.709L188.59 148.226C190.649 148.724 191.793 149.315 191.803 150.589C191.793 151.974 190.482 152.916 188.451 152.916C186.374 152.916 184.878 151.956 184.749 150.063H180.88C180.982 154.153 183.908 156.268 188.497 156.268C193.114 156.268 195.828 154.061 195.837 150.599C195.828 147.45 193.455 145.779 190.168 145.04L188.47 144.634C186.826 144.256 185.45 143.646 185.478 142.289C185.478 141.07 186.558 140.175 188.516 140.175C190.427 140.175 191.6 141.043 191.747 142.529Z" fill="black"/>
<path d="M206.327 156H219.105V152.704H210.324V148.189H218.413V144.893H210.324V140.387H219.068V137.091H206.327V156Z" fill="black"/>
<defs>
<clipPath id="clip0_2_7262">
<rect width="192" height="25" fill="white" transform="translate(29 95)"/>
</clipPath>
</defs>
</svg>
