<svg xmlns="http://www.w3.org/2000/svg" width="256" height="256" fill="none"><g filter="url(#a)"><rect width="206" height="206" x="25" y="25" fill="#061D27" rx="46"/></g><g filter="url(#b)"><path fill="url(#c)" d="M80.862 167.824c-.96-.631-2.091.511-1.345 1.384 10.657 12.482 26.045 20.801 43.393 22.175.093.008.183.016.276.02.37.028.743.049 1.117.069.341.02.678.037 1.019.049.255.012.515.02.775.028.633.016 1.271.033 1.912.033.642 0 1.275-.013 1.912-.033.26-.008.516-.02.776-.028.341-.012.682-.033 1.019-.049.373-.02.743-.045 1.116-.069.094-.008.183-.016.276-.02 17.349-1.374 32.739-9.691 43.396-22.176.745-.874-.386-2.015-1.345-1.385-12.98 8.526-29.353 13.614-47.146 13.614-17.792 0-34.17-5.087-47.151-13.612Z"/><path fill="#fff" d="M80.862 167.824c-.96-.631-2.091.511-1.345 1.384 10.657 12.482 26.045 20.801 43.393 22.175.093.008.183.016.276.02.37.028.743.049 1.117.069.341.02.678.037 1.019.049.255.012.515.02.775.028.633.016 1.271.033 1.912.033.642 0 1.275-.013 1.912-.033.26-.008.516-.02.776-.028.341-.012.682-.033 1.019-.049.373-.02.743-.045 1.116-.069.094-.008.183-.016.276-.02 17.349-1.374 32.739-9.691 43.396-22.176.745-.874-.386-2.015-1.345-1.385-12.98 8.526-29.353 13.614-47.146 13.614-17.792 0-34.17-5.087-47.151-13.612Z"/><path fill="url(#d)" d="M81.594 101.048c8.897-15.407 21.488-27.042 35.362-34.021 1.026-.516.603-2.066-.527-1.857-16.14 2.987-31.038 12.155-40.9 26.492l-.16.227a61.203 61.203 0 0 0-1.17 1.79c-.136.22-.275.435-.412.654a64.85 64.85 0 0 0-.983 1.64c-.32.553-.625 1.113-.93 1.67a36.19 36.19 0 0 0-.361.685c-.158.3-.313.605-.467.91-.166.333-.337.666-.495 1.003-.04.081-.077.166-.118.247-7.485 15.711-7.977 33.198-2.496 48.668.384 1.083 1.938.674 1.872-.472-.893-15.504 2.886-32.224 11.785-47.636Z"/><path fill="#fff" d="M81.594 101.048c8.897-15.407 21.488-27.042 35.362-34.021 1.026-.516.603-2.066-.527-1.857-16.14 2.987-31.038 12.155-40.9 26.492l-.16.227a61.203 61.203 0 0 0-1.17 1.79c-.136.22-.275.435-.412.654a64.85 64.85 0 0 0-.983 1.64c-.32.553-.625 1.113-.93 1.67a36.19 36.19 0 0 0-.361.685c-.158.3-.313.605-.467.91-.166.333-.337.666-.495 1.003-.04.081-.077.166-.118.247-7.485 15.711-7.977 33.198-2.496 48.668.384 1.083 1.938.674 1.872-.472-.893-15.504 2.886-32.224 11.785-47.636Z"/><path fill="url(#e)" d="M185.577 100.488c-.04-.081-.077-.167-.118-.248a77.527 77.527 0 0 0-1.323-2.598 56.804 56.804 0 0 0-.93-1.669c-.321-.552-.649-1.1-.982-1.64-.134-.219-.276-.438-.414-.653-.183-.289-.366-.573-.552-.861a53.157 53.157 0 0 0-.618-.93c-.052-.077-.105-.15-.158-.227-9.863-14.337-24.763-23.504-40.901-26.492-1.129-.21-1.552 1.34-.526 1.857 13.874 6.978 26.464 18.613 35.358 34.021 8.898 15.412 12.677 32.132 11.784 47.635-.066 1.147 1.488 1.555 1.872.473 5.482-15.47 4.993-32.958-2.492-48.668Z"/><path fill="#fff" d="M185.577 100.488c-.04-.081-.077-.167-.118-.248a77.527 77.527 0 0 0-1.323-2.598 56.804 56.804 0 0 0-.93-1.669c-.321-.552-.649-1.1-.982-1.64-.134-.219-.276-.438-.414-.653-.183-.289-.366-.573-.552-.861a53.157 53.157 0 0 0-.618-.93c-.052-.077-.105-.15-.158-.227-9.863-14.337-24.763-23.504-40.901-26.492-1.129-.21-1.552 1.34-.526 1.857 13.874 6.978 26.464 18.613 35.358 34.021 8.898 15.412 12.677 32.132 11.784 47.635-.066 1.147 1.488 1.555 1.872.473 5.482-15.47 4.993-32.958-2.492-48.668Z"/></g><defs><linearGradient id="c" x1="128.004" x2="128.004" y1="65.15" y2="191.582" gradientUnits="userSpaceOnUse"><stop stop-color="#fff"/><stop offset="1" stop-color="#fff" stop-opacity="0"/></linearGradient><linearGradient id="d" x1="128.004" x2="128.004" y1="65.15" y2="191.582" gradientUnits="userSpaceOnUse"><stop stop-color="#fff"/><stop offset="1" stop-color="#fff" stop-opacity="0"/></linearGradient><linearGradient id="e" x1="128.004" x2="128.004" y1="65.15" y2="191.582" gradientUnits="userSpaceOnUse"><stop stop-color="#fff"/><stop offset="1" stop-color="#fff" stop-opacity="0"/></linearGradient><filter id="a" width="217" height="217" x="19.5" y="22.25" color-interpolation-filters="sRGB" filterUnits="userSpaceOnUse"><feFlood flood-opacity="0" result="BackgroundImageFix"/><feColorMatrix in="SourceAlpha" result="hardAlpha" values="0 0 0 0 0 0 0 0 0 0 0 0 0 0 0 0 0 0 127 0"/><feOffset dy="2.75"/><feGaussianBlur stdDeviation="2.75"/><feColorMatrix values="0 0 0 0 0 0 0 0 0 0 0 0 0 0 0 0 0 0 0.28 0"/><feBlend in2="BackgroundImageFix" result="effect1_dropShadow"/><feBlend in="SourceGraphic" in2="effect1_dropShadow" result="shape"/></filter><filter id="b" width="169.971" height="173.63" x="43.019" y="65.15" color-interpolation-filters="sRGB" filterUnits="userSpaceOnUse"><feFlood flood-opacity="0" result="BackgroundImageFix"/><feColorMatrix in="SourceAlpha" result="hardAlpha" values="0 0 0 0 0 0 0 0 0 0 0 0 0 0 0 0 0 0 127 0"/><feOffset dy=".718"/><feGaussianBlur stdDeviation=".294"/><feColorMatrix values="0 0 0 0 0 0 0 0 0 0 0 0 0 0 0 0 0 0 0.0253031 0"/><feBlend in2="BackgroundImageFix" result="effect1_dropShadow"/><feColorMatrix in="SourceAlpha" result="hardAlpha" values="0 0 0 0 0 0 0 0 0 0 0 0 0 0 0 0 0 0 127 0"/><feOffset dy="1.726"/><feGaussianBlur stdDeviation=".706"/><feColorMatrix values="0 0 0 0 0 0 0 0 0 0 0 0 0 0 0 0 0 0 0.0363503 0"/><feBlend in2="effect1_dropShadow" result="effect2_dropShadow"/><feColorMatrix in="SourceAlpha" result="hardAlpha" values="0 0 0 0 0 0 0 0 0 0 0 0 0 0 0 0 0 0 127 0"/><feOffset dy="3.251"/><feGaussianBlur stdDeviation="1.33"/><feColorMatrix values="0 0 0 0 0 0 0 0 0 0 0 0 0 0 0 0 0 0 0.045 0"/><feBlend in2="effect2_dropShadow" result="effect3_dropShadow"/><feColorMatrix in="SourceAlpha" result="hardAlpha" values="0 0 0 0 0 0 0 0 0 0 0 0 0 0 0 0 0 0 127 0"/><feOffset dy="5.798"/><feGaussianBlur stdDeviation="2.372"/><feColorMatrix values="0 0 0 0 0 0 0 0 0 0 0 0 0 0 0 0 0 0 0.0536497 0"/><feBlend in2="effect3_dropShadow" result="effect4_dropShadow"/><feColorMatrix in="SourceAlpha" result="hardAlpha" values="0 0 0 0 0 0 0 0 0 0 0 0 0 0 0 0 0 0 127 0"/><feOffset dy="10.845"/><feGaussianBlur stdDeviation="4.437"/><feColorMatrix values="0 0 0 0 0 0 0 0 0 0 0 0 0 0 0 0 0 0 0.0646969 0"/><feBlend in2="effect4_dropShadow" result="effect5_dropShadow"/><feColorMatrix in="SourceAlpha" result="hardAlpha" values="0 0 0 0 0 0 0 0 0 0 0 0 0 0 0 0 0 0 127 0"/><feOffset dy="25.959"/><feGaussianBlur stdDeviation="10.62"/><feColorMatrix values="0 0 0 0 0 0 0 0 0 0 0 0 0 0 0 0 0 0 0.09 0"/><feBlend in2="effect5_dropShadow" result="effect6_dropShadow"/><feBlend in="SourceGraphic" in2="effect6_dropShadow" result="shape"/></filter></defs></svg>