<svg version="1.1" id="Layer_1" xmlns="http://www.w3.org/2000/svg" xmlns:xlink="http://www.w3.org/1999/xlink" x="0px" y="0px"
	 width="100%" viewBox="0 0 200 200" enable-background="new 0 0 200 200" xml:space="preserve">
<path fill="#FFFFFF" opacity="1.000000" stroke="none" 
	d="
M120.000000,201.000000 
	C80.024696,201.000000 40.549400,201.000000 1.037050,201.000000 
	C1.037050,134.399734 1.037050,67.799454 1.037050,1.099581 
	C67.558464,1.099581 134.117126,1.099581 200.837891,1.099581 
	C200.837891,67.666351 200.837891,134.333145 200.837891,201.000000 
	C174.133072,201.000000 147.316528,201.000000 120.000000,201.000000 
M35.363152,171.454468 
	C35.768387,171.554489 36.173622,171.654526 36.818527,171.685608 
	C36.818527,171.685608 36.991936,171.864822 37.371456,172.433289 
	C37.806499,172.504929 38.241543,172.576553 39.454834,172.530396 
	C42.750072,171.778244 46.566814,171.836441 49.239304,170.116592 
	C56.263035,165.596542 56.885178,160.553131 52.713932,149.916626 
	C52.351990,149.713364 51.990051,149.510086 51.768528,149.369644 
	C51.768528,149.369644 51.615189,149.381882 51.826530,148.598846 
	C51.225826,144.699554 48.595711,145.391464 45.171520,146.027573 
	C44.094284,145.837769 43.017052,145.647949 41.759415,145.254883 
	C41.473888,145.133743 41.240490,145.200729 40.316887,145.697220 
	C39.544487,145.795456 38.772091,145.893692 37.773888,145.639816 
	C37.531563,145.863678 37.289242,146.087555 36.866184,146.422211 
	C36.866184,146.422211 36.665504,146.353912 35.911289,146.170822 
	C35.274128,146.781616 34.636967,147.392410 33.831329,148.250748 
	C33.831329,148.250748 33.532269,148.235687 32.715435,148.174423 
	C32.221935,148.962540 31.728434,149.750671 31.201641,150.845871 
	C31.201641,150.845871 30.926954,150.987152 30.282873,150.963425 
	C29.853260,150.977615 29.423647,150.991821 28.924940,150.439896 
	C28.624489,150.117294 28.324036,149.794693 28.023588,149.472092 
	C27.843067,149.680008 27.662548,149.887924 27.482023,150.095840 
	C27.989975,150.395233 28.497929,150.694641 29.021364,151.803604 
	C29.078384,152.340164 29.135405,152.876724 29.256945,153.734909 
	C29.256945,153.734909 29.085402,154.014526 28.374718,154.119415 
	C25.489447,157.258484 25.463005,160.235199 29.101562,163.515869 
	C29.122120,163.876144 29.142677,164.236435 29.208431,165.214020 
	C29.506550,165.477997 29.804668,165.741974 30.581388,166.364532 
	C31.440763,167.429520 32.300137,168.494492 33.301521,170.227020 
	C33.900536,170.456253 34.499554,170.685486 35.028309,170.984787 
	C35.028309,170.984787 35.052769,170.888611 35.363152,171.454468 
M62.067043,133.819046 
	C62.067043,133.819046 62.245865,133.740036 62.096825,134.529526 
	C63.119820,135.326279 64.142815,136.123047 65.792511,137.139008 
	C73.045082,143.770279 81.347641,148.351273 91.151390,149.843033 
	C103.251953,151.684311 114.675804,150.012192 125.669029,142.827011 
	C127.962364,141.158386 130.255692,139.489761 133.093567,137.396973 
	C137.066177,131.600662 141.038773,125.804337 145.621140,119.626762 
	C146.291351,117.284866 146.961563,114.942970 147.612610,112.033493 
	C147.675781,111.661499 147.738953,111.289505 148.193726,110.842598 
	C148.274460,110.739044 148.442596,110.570175 148.421875,110.542442 
	C148.278397,110.350449 148.095612,110.187828 147.954697,109.095238 
	C147.951126,105.731865 147.947540,102.368492 148.139496,98.338387 
	C148.044449,97.892868 147.949387,97.447342 148.097198,96.377205 
	C148.122787,95.931129 148.148376,95.485054 148.711014,94.683609 
	C149.046112,93.520203 149.381210,92.356804 150.419464,90.856834 
	C151.201767,89.142563 152.831085,87.311409 152.613541,85.735123 
	C151.845276,80.167969 146.827148,79.112068 142.545090,77.146454 
	C142.545090,77.146454 142.610977,77.372559 142.808456,76.680046 
	C142.206650,76.119873 141.604843,75.559700 140.647095,74.639305 
	C140.439896,74.180084 140.232681,73.720863 139.812469,72.688934 
	C139.491425,72.452812 139.170395,72.216690 138.331619,71.639832 
	C137.769730,70.797607 137.207855,69.955383 137.304047,68.881172 
	C139.114517,69.348976 140.924973,69.816788 142.873947,70.320374 
	C145.769974,68.070793 144.724442,65.656273 142.077103,64.279488 
	C139.224045,62.795696 135.855438,61.262451 132.818893,61.453552 
	C129.524384,61.660885 129.092819,60.569305 128.974243,58.054173 
	C128.933319,57.186348 128.625458,56.331108 128.374252,55.167789 
	C125.368233,58.390762 122.532997,58.057095 119.523849,55.013454 
	C118.350830,53.826984 116.518578,53.290279 114.981934,52.466312 
	C114.360474,52.133072 113.320000,51.958218 113.161522,51.481480 
	C111.664291,46.977470 108.343445,49.347168 105.711273,49.485195 
	C102.732742,49.641384 99.748497,50.459026 96.806053,50.292835 
	C94.386612,50.156185 92.466354,49.861465 91.280983,53.106785 
	C90.539146,53.158684 89.797318,53.210579 89.022675,52.470551 
	C88.563202,46.112968 83.640594,51.616268 81.305862,49.781242 
	C82.252792,51.348305 83.199730,52.915363 84.016891,54.623943 
	C84.016891,54.623943 83.827568,54.656010 83.073250,54.365665 
	C80.972580,55.068649 78.871910,55.771629 76.515068,56.560337 
	C76.515068,55.500912 76.515068,54.455517 76.515068,53.439278 
	C70.202507,52.731087 68.905701,54.272552 70.332138,60.519146 
	C65.302147,60.020466 64.816498,63.248066 64.835258,67.567444 
	C64.091324,68.386246 63.347389,69.205055 62.217712,70.217598 
	C62.217712,70.217598 62.026611,70.604660 61.525822,70.931305 
	C59.335361,74.915382 57.144901,78.899467 54.399151,83.198143 
	C53.925919,84.129143 53.452690,85.060143 52.274399,86.143784 
	C51.841770,88.760941 51.409142,91.378105 51.040028,94.858093 
	C51.000748,99.578354 50.961464,104.298622 50.383110,109.477150 
	C51.183170,111.671303 51.983227,113.865448 52.991974,116.832581 
	C54.329556,120.215279 55.667141,123.597969 57.007965,127.764503 
	C57.949619,129.828308 56.944069,133.575455 61.308735,132.837936 
	C61.308735,132.837936 61.255180,132.717285 61.298656,133.291138 
	C61.619518,133.459625 61.940380,133.628098 62.067043,133.819046 
M161.590439,56.724033 
	C162.638809,56.299061 163.687164,55.874084 165.113785,56.125721 
	C170.803543,57.020237 175.936813,52.921391 174.871765,47.862888 
	C173.676132,48.843216 172.660095,49.676277 171.254639,50.828655 
	C171.596146,47.533062 171.590714,44.893333 172.185135,42.396400 
	C173.518311,36.796135 171.377075,33.611759 165.106339,33.083469 
	C164.715225,32.773769 164.324097,32.464069 163.936981,31.529196 
	C163.277283,31.388542 162.617569,31.247889 161.194016,31.114882 
	C160.746674,30.878193 160.299332,30.641502 159.471405,30.172340 
	C159.176819,30.073364 158.880524,30.068045 157.857147,30.319769 
	C156.621704,30.351110 155.386276,30.382452 153.845703,29.814964 
	C152.228424,30.839050 150.611145,31.863138 148.831909,33.163445 
	C148.831909,33.163445 148.513718,33.199303 147.749481,33.035652 
	C146.137650,31.979099 144.608994,30.742664 142.878616,29.942453 
	C142.022980,29.546766 140.795517,29.955103 139.736282,29.999659 
	C139.793274,31.221880 139.351044,33.014473 139.989044,33.572876 
	C143.856750,36.958076 143.110764,40.944527 141.837814,45.000549 
	C140.713928,48.581547 142.474197,50.170929 145.804672,51.582737 
	C145.852951,51.776138 145.901230,51.969543 145.962662,52.912083 
	C145.180878,54.399597 144.579605,56.024582 143.575714,57.342972 
	C142.001678,59.410126 141.579178,61.829117 144.113831,62.565384 
	C146.743744,63.329330 149.816620,62.568420 152.926392,62.466869 
	C152.038742,59.597172 151.522766,57.929108 151.565720,56.211266 
	C152.040955,56.485096 152.516190,56.758930 153.366104,57.687359 
	C156.053940,59.237999 158.730392,60.647587 161.590439,56.724033 
M149.514557,27.984989 
	C150.539764,27.376644 151.564987,26.768299 152.590195,26.159956 
	C150.921707,25.281147 149.325882,24.962475 147.982437,25.406855 
	C147.238144,25.653049 146.915955,27.175358 146.403503,28.122459 
	C147.246017,28.222944 148.088531,28.323431 149.514557,27.984989 
M157.604614,24.144331 
	C156.592514,24.600243 155.580429,25.056154 153.917114,25.805420 
	C158.004166,26.936794 158.004166,26.936794 157.604614,24.144331 
M25.705757,167.560806 
	C25.987328,167.292145 26.268896,167.023499 26.550468,166.754837 
	C26.439100,166.638351 26.237070,166.414459 26.229435,166.420883 
	C25.932499,166.671478 25.653301,166.943085 25.705757,167.560806 
z"/>
<path fill="#404389" opacity="1.000000" stroke="none" 
	d="
M147.854324,97.001823 
	C147.949387,97.447342 148.044449,97.892868 147.662399,98.752357 
	C146.853653,99.512146 146.266953,99.831352 146.227692,100.207672 
	C145.248795,109.591560 144.062851,118.903442 138.190079,126.804123 
	C136.132858,129.571701 134.053314,132.322708 131.741928,135.230774 
	C131.348465,135.917938 131.197037,136.455612 130.779510,137.013290 
	C130.336105,137.047073 130.158752,137.060867 129.633011,137.060547 
	C128.540588,137.693420 127.796539,138.340393 126.698082,138.996246 
	C125.871040,139.001114 125.398407,138.997116 124.831833,138.795700 
	C124.382164,138.524597 124.026436,138.450897 123.670708,138.377182 
	C123.808159,138.588623 123.945610,138.800064 124.068924,139.262787 
	C124.052673,139.681870 124.050568,139.849655 123.756523,140.220581 
	C121.739426,141.658981 120.174812,143.348114 118.253159,144.027878 
	C115.006599,145.176346 111.486916,145.524170 108.164574,146.491867 
	C93.105324,150.878174 81.021164,145.236664 69.741646,135.781403 
	C66.769463,133.289902 65.836105,127.600861 60.079700,128.511200 
	C61.350552,123.833168 58.788471,120.811089 56.640007,117.605614 
	C55.615170,116.076576 54.206367,114.410004 54.096806,112.732254 
	C53.672253,106.230896 53.724628,99.699181 53.507553,93.181831 
	C53.492092,92.717575 52.735565,92.278000 52.355389,91.516785 
	C52.520142,90.814056 52.653118,90.421494 53.069645,89.881729 
	C53.571026,89.156158 53.788849,88.577797 54.368488,87.933037 
	C56.816437,84.076820 59.077171,80.368820 60.909103,76.459862 
	C61.726151,74.716461 61.680645,72.568832 62.026611,70.604660 
	C62.026611,70.604660 62.217712,70.217598 62.721600,70.355164 
	C66.738327,70.151413 68.634445,68.234451 68.959839,64.442856 
	C69.593323,63.725502 70.137947,63.265350 71.086121,62.828583 
	C79.668968,60.137978 87.854637,57.442642 96.010849,54.660976 
	C96.471672,54.503815 96.690666,53.637543 97.388977,53.033493 
	C98.497749,53.008327 99.239761,53.050972 100.011032,53.498436 
	C100.323792,54.468204 100.637444,55.539291 100.886414,55.524464 
	C108.078773,55.096146 114.654808,57.444855 121.223694,59.870609 
	C121.502640,59.973621 121.876305,59.820145 122.165459,59.890839 
	C122.125076,59.995529 122.172234,59.776230 122.167694,60.143398 
	C124.495689,61.625866 126.828232,62.741165 129.087036,63.891708 
	C129.013321,63.926949 129.134186,63.816948 129.125198,64.179703 
	C134.003357,72.525764 138.958527,80.468666 143.739532,88.515038 
	C145.339737,91.208138 146.495438,94.165344 147.854324,97.001823 
M77.221413,81.025284 
	C74.945122,83.807732 72.299522,86.368546 70.469093,89.418571 
	C66.606544,95.854675 68.690437,102.940247 69.133331,109.768501 
	C69.206947,110.903580 71.000015,111.927132 72.028008,113.798935 
	C71.792274,121.928436 78.101952,124.862892 83.680527,128.248642 
	C87.154938,130.357330 90.871964,133.639038 94.479271,133.637924 
	C102.711555,133.635391 110.807816,131.377029 117.821892,126.635719 
	C120.675697,124.706642 124.378532,122.723351 125.573143,119.874840 
	C130.990021,106.958435 133.976669,93.533020 121.206398,78.966133 
	C115.158180,72.067009 107.459572,71.437263 99.683670,70.159882 
	C97.819275,69.853622 95.495071,72.029640 93.708092,71.625092 
	C86.921379,70.088684 83.787209,76.322891 78.666977,78.202843 
	C78.159302,78.389229 78.177315,80.007378 77.221413,81.025284 
z"/>
<path fill="#464B88" opacity="1.000000" stroke="none" 
	d="
M30.926952,150.987152 
	C30.926954,150.987152 31.201641,150.845871 31.528027,150.562469 
	C32.413700,149.597946 32.972984,148.916824 33.532272,148.235687 
	C33.532269,148.235687 33.831329,148.250748 34.242699,148.110931 
	C35.324551,147.432037 35.995029,146.892975 36.665504,146.353912 
	C36.665504,146.353912 36.866184,146.422211 37.225388,146.378540 
	C37.722958,146.220566 37.861324,146.106247 37.999691,145.991928 
	C38.772091,145.893692 39.544487,145.795456 40.907906,145.701080 
	C41.645885,145.622681 41.792850,145.540405 41.939816,145.458145 
	C43.017052,145.647949 44.094284,145.837769 45.800388,146.273224 
	C48.157902,147.473221 49.886547,148.427551 51.615189,149.381866 
	C51.615189,149.381882 51.768528,149.369644 51.787720,149.623703 
	C52.122189,150.113251 52.437462,150.348755 52.752735,150.584244 
	C56.885178,160.553131 56.263035,165.596542 49.239304,170.116592 
	C46.566814,171.836441 42.750072,171.778244 38.854015,172.335709 
	C37.832775,172.048950 37.412357,171.956894 36.991936,171.864822 
	C36.991936,171.864822 36.818527,171.685608 36.515114,171.467743 
	C35.825390,171.129456 35.439079,171.009033 35.052769,170.888611 
	C35.052769,170.888611 35.028309,170.984787 34.925652,170.671661 
	C34.268497,170.092194 33.714008,169.825821 33.159515,169.559464 
	C32.300137,168.494492 31.440763,167.429520 30.304482,165.886414 
	C29.739460,165.137772 29.451347,164.867233 29.163235,164.596710 
	C29.142677,164.236435 29.122120,163.876144 29.036320,162.816528 
	C29.009186,159.416306 29.047295,156.715408 29.085402,154.014526 
	C29.085402,154.014526 29.256945,153.734909 29.518635,153.444962 
	C30.162535,152.432388 30.544743,151.709778 30.926952,150.987152 
z"/>
<path fill="#454886" opacity="1.000000" stroke="none" 
	d="
M163.932983,32.154369 
	C164.324097,32.464069 164.715225,32.773769 165.510605,33.446877 
	C172.199265,41.238796 171.880676,47.084530 164.735535,55.449112 
	C163.687164,55.874084 162.638809,56.299061 160.853333,56.858810 
	C157.741287,57.006649 155.366364,57.019707 152.991425,57.032761 
	C152.516190,56.758930 152.040955,56.485096 151.072418,55.979027 
	C149.035919,54.552170 147.492722,53.357555 145.949509,52.162941 
	C145.901230,51.969543 145.852951,51.776138 145.618988,50.898224 
	C144.017273,44.099972 143.712036,38.187340 148.513718,33.199303 
	C148.513718,33.199303 148.831909,33.163445 149.241943,33.005894 
	C151.151596,32.036827 152.651215,31.225307 154.150833,30.413792 
	C155.386276,30.382452 156.621704,30.351110 158.399551,30.416565 
	C159.245300,30.477179 159.548645,30.440994 159.851990,30.404812 
	C160.299332,30.641502 160.746674,30.878193 161.752823,31.343754 
	C162.852081,31.766542 163.392532,31.960457 163.932983,32.154369 
z"/>
<path fill="#515486" opacity="1.000000" stroke="none" 
	d="
M60.122311,128.885620 
	C65.836105,127.600861 66.769463,133.289902 69.741646,135.781403 
	C81.021164,145.236664 93.105324,150.878174 108.164574,146.491867 
	C111.486916,145.524170 115.006599,145.176346 118.253159,144.027878 
	C120.174812,143.348114 121.739426,141.658981 123.936539,140.354370 
	C124.598923,141.172089 124.789360,142.059174 124.979790,142.946274 
	C114.675804,150.012192 103.251953,151.684311 91.151390,149.843033 
	C81.347641,148.351273 73.045082,143.770279 65.399445,136.710327 
	C64.086212,135.434448 63.166039,134.587250 62.245865,133.740036 
	C62.245865,133.740036 62.067043,133.819046 62.103077,133.546021 
	C61.844467,133.087753 61.549824,132.902512 61.255180,132.717285 
	C61.255180,132.717285 61.308735,132.837936 61.236809,132.454865 
	C60.720715,131.096329 60.276550,130.120895 59.904934,129.080566 
	C59.977482,129.015686 60.122311,128.885620 60.122311,128.885620 
z"/>
<path fill="#F5F5F8" opacity="1.000000" stroke="none" 
	d="
M99.981766,53.093620 
	C99.239761,53.050972 98.497749,53.008327 96.976837,52.943333 
	C94.795418,52.906971 93.392906,52.892963 91.990387,52.878952 
	C92.466354,49.861465 94.386612,50.156185 96.806053,50.292835 
	C99.748497,50.459026 102.732742,49.641384 105.711273,49.485195 
	C108.343445,49.347168 111.664291,46.977470 113.161522,51.481480 
	C113.320000,51.958218 114.360474,52.133072 114.981934,52.466312 
	C116.518578,53.290279 118.350830,53.826984 119.523849,55.013454 
	C122.532997,58.057095 125.368233,58.390762 128.374252,55.167789 
	C128.625458,56.331108 128.933319,57.186348 128.974243,58.054173 
	C129.092819,60.569305 129.524384,61.660885 132.818893,61.453552 
	C135.855438,61.262451 139.224045,62.795696 142.077103,64.279488 
	C144.724442,65.656273 145.769974,68.070793 142.873947,70.320374 
	C140.924973,69.816788 139.114517,69.348976 136.669830,68.898941 
	C133.735123,67.216789 131.434662,65.516869 129.134186,63.816948 
	C129.134186,63.816948 129.013321,63.926949 128.966766,63.582989 
	C126.670883,62.084763 124.421562,60.930496 122.172234,59.776230 
	C122.172234,59.776230 122.125076,59.995529 122.018738,59.566826 
	C115.334351,54.466854 108.075050,52.267319 99.981766,53.093620 
z"/>
<path fill="#535586" opacity="1.000000" stroke="none" 
	d="
M129.125198,64.179703 
	C131.434662,65.516869 133.735123,67.216789 136.340790,69.014938 
	C137.207855,69.955383 137.769730,70.797607 138.643738,72.128479 
	C139.312408,72.831970 139.668945,73.046806 140.025482,73.261642 
	C140.232681,73.720863 140.439896,74.180084 140.829681,75.135963 
	C141.545166,76.212601 142.078079,76.792580 142.610977,77.372559 
	C142.610977,77.372559 142.545090,77.146454 142.563507,77.620102 
	C144.295471,82.794228 146.009048,87.494705 147.672150,92.559677 
	C147.805771,93.629112 147.989868,94.334045 148.173981,95.038979 
	C148.148376,95.485054 148.122787,95.931129 147.975769,96.689514 
	C146.495438,94.165344 145.339737,91.208138 143.739532,88.515038 
	C138.958527,80.468666 134.003357,72.525764 129.125198,64.179703 
z"/>
<path fill="#535586" opacity="1.000000" stroke="none" 
	d="
M131.983948,135.081284 
	C134.053314,132.322708 136.132858,129.571701 138.190079,126.804123 
	C144.062851,118.903442 145.248795,109.591560 146.227692,100.207672 
	C146.266953,99.831352 146.853653,99.512146 147.564636,99.085724 
	C147.947540,102.368492 147.951126,105.731865 147.823090,109.769173 
	C147.691467,110.443108 147.802124,110.917511 147.802124,110.917511 
	C147.738953,111.289505 147.675781,111.661499 147.330048,112.530212 
	C146.368790,115.353966 145.690079,117.680992 145.011383,120.008018 
	C141.038773,125.804337 137.066177,131.600662 132.696167,137.387390 
	C132.192886,137.245605 132.087021,137.113434 131.988403,136.664124 
	C131.991745,135.925095 131.987839,135.503189 131.983948,135.081284 
z"/>
<path fill="#515486" opacity="1.000000" stroke="none" 
	d="
M52.323616,91.826950 
	C52.735565,92.278000 53.492092,92.717575 53.507553,93.181831 
	C53.724628,99.699181 53.672253,106.230896 54.096806,112.732254 
	C54.206367,114.410004 55.615170,116.076576 56.640007,117.605614 
	C58.788471,120.811089 61.350552,123.833168 60.079700,128.511200 
	C60.122311,128.885620 59.977482,129.015686 59.616760,128.959991 
	C58.505600,128.263077 57.755165,127.621872 57.004726,126.980667 
	C55.667141,123.597969 54.329556,120.215279 52.925377,116.064774 
	C52.213249,113.204269 51.567715,111.111572 50.922180,109.018883 
	C50.961464,104.298622 51.000748,99.578354 51.242306,94.302299 
	C51.737595,93.106659 52.030605,92.466805 52.323616,91.826950 
z"/>
<path fill="#F5F5F8" opacity="1.000000" stroke="none" 
	d="
M164.924652,55.787415 
	C171.880676,47.084530 172.199265,41.238796 165.770691,33.478920 
	C171.377075,33.611759 173.518311,36.796135 172.185135,42.396400 
	C171.590714,44.893333 171.596146,47.533062 171.254639,50.828655 
	C172.660095,49.676277 173.676132,48.843216 174.871765,47.862888 
	C175.936813,52.921391 170.803543,57.020237 164.924652,55.787415 
z"/>
<path fill="#F5F5F8" opacity="1.000000" stroke="none" 
	d="
M148.131592,33.117477 
	C143.712036,38.187340 144.017273,44.099972 145.503143,50.622566 
	C142.474197,50.170929 140.713928,48.581547 141.837814,45.000549 
	C143.110764,40.944527 143.856750,36.958076 139.989044,33.572876 
	C139.351044,33.014473 139.793274,31.221880 139.736298,29.999659 
	C140.795517,29.955103 142.022980,29.546766 142.878616,29.942453 
	C144.608994,30.742664 146.137650,31.979099 148.131592,33.117477 
z"/>
<path fill="#F5F5F8" opacity="1.000000" stroke="none" 
	d="
M70.682571,62.805202 
	C70.137947,63.265350 69.593323,63.725502 68.625175,64.479553 
	C67.137146,65.523224 66.072647,66.273010 65.008148,67.022797 
	C64.816498,63.248066 65.302147,60.020466 70.332138,60.519146 
	C68.905701,54.272552 70.202507,52.731087 76.515068,53.439278 
	C76.515068,54.455517 76.515068,55.500912 76.515068,56.560337 
	C78.871910,55.771629 80.972580,55.068649 83.202209,54.753098 
	C79.114967,57.695423 74.898766,60.250313 70.682571,62.805202 
z"/>
<path fill="#F5F5F8" opacity="1.000000" stroke="none" 
	d="
M147.722626,92.195175 
	C146.009048,87.494705 144.295471,82.794228 142.578156,77.737038 
	C146.827148,79.112068 151.845276,80.167969 152.613541,85.735123 
	C152.831085,87.311409 151.201767,89.142563 149.832016,91.157959 
	C148.737244,91.704453 148.229935,91.949806 147.722626,92.195175 
z"/>
<path fill="#F5F5F8" opacity="1.000000" stroke="none" 
	d="
M145.956085,52.537514 
	C147.492722,53.357555 149.035919,54.552170 150.792969,56.003914 
	C151.522766,57.929108 152.038742,59.597172 152.926392,62.466869 
	C149.816620,62.568420 146.743744,63.329330 144.113831,62.565384 
	C141.579178,61.829117 142.001678,59.410126 143.575714,57.342972 
	C144.579605,56.024582 145.180878,54.399597 145.956085,52.537514 
z"/>
<path fill="#63668F" opacity="1.000000" stroke="none" 
	d="
M71.086121,62.828583 
	C74.898766,60.250313 79.114967,57.695423 83.579361,54.898270 
	C83.827568,54.656010 84.016891,54.623943 84.450806,54.570652 
	C86.274971,54.099068 87.665222,53.680771 89.055481,53.262474 
	C89.797318,53.210579 90.539146,53.158684 91.635681,52.992867 
	C93.392906,52.892963 94.795418,52.906971 96.610077,53.011147 
	C96.690666,53.637543 96.471672,54.503815 96.010849,54.660976 
	C87.854637,57.442642 79.668968,60.137978 71.086121,62.828583 
z"/>
<path fill="#4F5286" opacity="1.000000" stroke="none" 
	d="
M61.776218,70.767982 
	C61.680645,72.568832 61.726151,74.716461 60.909103,76.459862 
	C59.077171,80.368820 56.816437,84.076820 54.406651,87.560257 
	C54.373478,85.797096 54.663960,84.340317 54.954441,82.883545 
	C57.144901,78.899467 59.335361,74.915382 61.776218,70.767982 
z"/>
<path fill="#F5F5F8" opacity="1.000000" stroke="none" 
	d="
M89.039078,52.866512 
	C87.665222,53.680771 86.274971,54.099068 84.515686,54.499893 
	C83.199730,52.915363 82.252792,51.348305 81.305862,49.781242 
	C83.640594,51.616268 88.563202,46.112968 89.039078,52.866512 
z"/>
<path fill="#535586" opacity="1.000000" stroke="none" 
	d="
M125.324409,142.886642 
	C124.789360,142.059174 124.598923,141.172089 124.228470,140.151215 
	C124.050568,139.849655 124.052673,139.681870 124.279099,139.258606 
	C124.503410,139.003113 124.925774,138.993103 124.925774,138.993103 
	C125.398407,138.997116 125.871040,139.001114 127.008919,138.975250 
	C128.443237,138.321793 129.212311,137.698227 129.981384,137.074661 
	C130.158752,137.060867 130.336105,137.047073 131.013168,137.013885 
	C131.512894,136.994492 131.981155,136.981247 131.981155,136.981247 
	C132.087021,137.113434 132.192886,137.245605 132.423889,137.599457 
	C130.255692,139.489761 127.962364,141.158386 125.324409,142.886642 
z"/>
<path fill="#EAECF3" opacity="1.000000" stroke="none" 
	d="
M28.730061,154.066971 
	C29.047295,156.715408 29.009186,159.416306 28.925549,162.566757 
	C25.463005,160.235199 25.489447,157.258484 28.730061,154.066971 
z"/>
<path fill="#F5F5F8" opacity="1.000000" stroke="none" 
	d="
M149.222809,28.204453 
	C148.088531,28.323431 147.246017,28.222944 146.403503,28.122459 
	C146.915955,27.175358 147.238144,25.653049 147.982437,25.406855 
	C149.325882,24.962475 150.921707,25.281147 152.590195,26.159956 
	C151.564987,26.768299 150.539764,27.376644 149.222809,28.204453 
z"/>
<path fill="#D9D9E9" opacity="1.000000" stroke="none" 
	d="
M52.355392,91.516785 
	C52.030605,92.466805 51.737595,93.106659 51.210548,93.870880 
	C51.409142,91.378105 51.841770,88.760941 52.663017,86.470970 
	C52.963123,87.875084 52.874611,88.952011 52.786095,90.028938 
	C52.653118,90.421494 52.520142,90.814056 52.355392,91.516785 
z"/>
<path fill="#4F5286" opacity="1.000000" stroke="none" 
	d="
M64.921707,67.295120 
	C66.072647,66.273010 67.137146,65.523224 68.536316,64.736755 
	C68.634445,68.234451 66.738327,70.151413 62.914474,70.258301 
	C63.347389,69.205055 64.091324,68.386246 64.921707,67.295120 
z"/>
<path fill="#F5F5F8" opacity="1.000000" stroke="none" 
	d="
M153.178772,57.360062 
	C155.366364,57.019707 157.741287,57.006649 160.559967,57.031807 
	C158.730392,60.647587 156.053940,59.237999 153.178772,57.360062 
z"/>
<path fill="#EAECF3" opacity="1.000000" stroke="none" 
	d="
M51.720863,148.990356 
	C49.886547,148.427551 48.157902,147.473221 46.211327,146.269684 
	C48.595711,145.391464 51.225826,144.699554 51.720863,148.990356 
z"/>
<path fill="#D9D9E9" opacity="1.000000" stroke="none" 
	d="
M50.652645,109.248016 
	C51.567715,111.111572 52.213249,113.204269 52.821037,115.678284 
	C51.983227,113.865448 51.183170,111.671303 50.652645,109.248016 
z"/>
<path fill="#E3E6F3" opacity="1.000000" stroke="none" 
	d="
M57.006348,127.372589 
	C57.755165,127.621872 58.505600,128.263077 59.544212,129.024872 
	C60.276550,130.120895 60.720715,131.096329 61.222130,132.388641 
	C56.944069,133.575455 57.949619,129.828308 57.006348,127.372589 
z"/>
<path fill="#F5F5F8" opacity="1.000000" stroke="none" 
	d="
M157.930634,24.252081 
	C158.004166,26.936794 158.004166,26.936794 153.917114,25.805420 
	C155.580429,25.056154 156.592514,24.600243 157.930634,24.252081 
z"/>
<path fill="#F5F5F8" opacity="1.000000" stroke="none" 
	d="
M153.998260,30.114376 
	C152.651215,31.225307 151.151596,32.036827 149.322906,32.867783 
	C150.611145,31.863138 152.228424,30.839050 153.998260,30.114376 
z"/>
<path fill="#CBCCE4" opacity="1.000000" stroke="none" 
	d="
M145.316254,119.817390 
	C145.690079,117.680992 146.368790,115.353966 147.339630,112.814011 
	C146.961563,114.942970 146.291351,117.284866 145.316254,119.817390 
z"/>
<path fill="#515486" opacity="1.000000" stroke="none" 
	d="
M53.069649,89.881729 
	C52.874611,88.952011 52.963123,87.875084 53.015549,86.394653 
	C53.452690,85.060143 53.925919,84.129143 54.676796,83.040848 
	C54.663960,84.340317 54.373478,85.797096 54.044838,87.626648 
	C53.788849,88.577797 53.571026,89.156158 53.069649,89.881729 
z"/>
<path fill="#E3E6F3" opacity="1.000000" stroke="none" 
	d="
M62.171345,134.134781 
	C63.166039,134.587250 64.086212,135.434448 65.086090,136.600739 
	C64.142815,136.123047 63.119820,135.326279 62.171345,134.134781 
z"/>
<path fill="#CBCCE4" opacity="1.000000" stroke="none" 
	d="
M147.672150,92.559677 
	C148.229935,91.949806 148.737244,91.704453 149.480438,91.326248 
	C149.381210,92.356804 149.046112,93.520203 148.442505,94.861298 
	C147.989868,94.334045 147.805771,93.629112 147.672150,92.559677 
z"/>
<path fill="#F5F5F8" opacity="1.000000" stroke="none" 
	d="
M163.934982,31.841782 
	C163.392532,31.960457 162.852081,31.766542 162.134750,31.339931 
	C162.617569,31.247889 163.277283,31.388542 163.934982,31.841782 
z"/>
<path fill="#EAECF3" opacity="1.000000" stroke="none" 
	d="
M36.288399,146.262360 
	C35.995029,146.892975 35.324551,147.432037 34.326939,147.987152 
	C34.636967,147.392410 35.274128,146.781616 36.288399,146.262360 
z"/>
<path fill="#EAECF3" opacity="1.000000" stroke="none" 
	d="
M33.123856,148.205048 
	C32.972984,148.916824 32.413700,149.597946 31.544674,150.408936 
	C31.728434,149.750671 32.221935,148.962540 33.123856,148.205048 
z"/>
<path fill="#EAECF3" opacity="1.000000" stroke="none" 
	d="
M29.005882,150.994034 
	C28.497929,150.694641 27.989975,150.395233 27.482025,150.095840 
	C27.662548,149.887924 27.843067,149.680008 28.023586,149.472092 
	C28.324036,149.794693 28.624489,150.117294 28.962471,150.719940 
	C29.000000,151.000000 29.005882,150.994034 29.005882,150.994034 
z"/>
<path fill="#EAECF3" opacity="1.000000" stroke="none" 
	d="
M30.604912,150.975281 
	C30.544743,151.709778 30.162535,152.432388 29.486376,153.284149 
	C29.135405,152.876724 29.078384,152.340164 29.013622,151.398819 
	C29.005882,150.994034 29.000000,151.000000 28.997017,151.003021 
	C29.423647,150.991821 29.853260,150.977615 30.604912,150.975281 
z"/>
<path fill="#F5F5F8" opacity="1.000000" stroke="none" 
	d="
M142.709717,77.026306 
	C142.078079,76.792580 141.545166,76.212601 141.007660,75.316071 
	C141.604843,75.559700 142.206650,76.119873 142.709717,77.026306 
z"/>
<path fill="#EAECF3" opacity="1.000000" stroke="none" 
	d="
M25.538765,167.386368 
	C25.653301,166.943085 25.932499,166.671478 26.229435,166.420883 
	C26.237070,166.414459 26.439100,166.638351 26.550467,166.754837 
	C26.268896,167.023499 25.987328,167.292145 25.538765,167.386368 
z"/>
<path fill="#EAECF3" opacity="1.000000" stroke="none" 
	d="
M33.230518,169.893250 
	C33.714008,169.825821 34.268497,170.092194 34.960781,170.636627 
	C34.499554,170.685486 33.900536,170.456253 33.230518,169.893250 
z"/>
<path fill="#EAECF3" opacity="1.000000" stroke="none" 
	d="
M37.181694,172.149048 
	C37.412357,171.956894 37.832775,172.048950 38.464890,172.394592 
	C38.241543,172.576553 37.806499,172.504929 37.181694,172.149048 
z"/>
<path fill="#EAECF3" opacity="1.000000" stroke="none" 
	d="
M35.207962,171.171539 
	C35.439079,171.009033 35.825390,171.129456 36.395279,171.502228 
	C36.173622,171.654526 35.768387,171.554489 35.207962,171.171539 
z"/>
<path fill="#F5F5F8" opacity="1.000000" stroke="none" 
	d="
M139.918976,72.975281 
	C139.668945,73.046806 139.312408,72.831970 138.902618,72.298851 
	C139.170395,72.216690 139.491425,72.452812 139.918976,72.975281 
z"/>
<path fill="#F5F5F8" opacity="1.000000" stroke="none" 
	d="
M159.661697,30.288574 
	C159.548645,30.440994 159.245300,30.477179 158.762238,30.334869 
	C158.880524,30.068045 159.176819,30.073364 159.661697,30.288574 
z"/>
<path fill="#EAECF3" opacity="1.000000" stroke="none" 
	d="
M29.185833,164.905365 
	C29.451347,164.867233 29.739460,165.137772 30.065180,165.707123 
	C29.804668,165.741974 29.506550,165.477997 29.185833,164.905365 
z"/>
<path fill="#CBCCE4" opacity="1.000000" stroke="none" 
	d="
M147.997925,110.880051 
	C147.802124,110.917511 147.691467,110.443108 147.808456,110.229446 
	C148.095612,110.187828 148.278397,110.350449 148.421875,110.542442 
	C148.442596,110.570175 148.274460,110.739044 147.997925,110.880051 
z"/>
<path fill="#EAECF3" opacity="1.000000" stroke="none" 
	d="
M52.733334,150.250427 
	C52.437462,150.348755 52.122189,150.113251 51.717514,149.592285 
	C51.990051,149.510086 52.351990,149.713364 52.733334,150.250427 
z"/>
<path fill="#E3E6F3" opacity="1.000000" stroke="none" 
	d="
M61.276917,133.004211 
	C61.549824,132.902512 61.844467,133.087753 62.200172,133.534775 
	C61.940380,133.628098 61.619518,133.459625 61.276917,133.004211 
z"/>
<path fill="#EAECF3" opacity="1.000000" stroke="none" 
	d="
M41.849617,145.356506 
	C41.792850,145.540405 41.645885,145.622681 41.279068,145.580383 
	C41.240490,145.200729 41.473888,145.133743 41.849617,145.356506 
z"/>
<path fill="#EAECF3" opacity="1.000000" stroke="none" 
	d="
M37.886787,145.815872 
	C37.861324,146.106247 37.722958,146.220566 37.315754,146.323151 
	C37.289242,146.087555 37.531563,145.863678 37.886787,145.815872 
z"/>
<path fill="#535687" opacity="1.000000" stroke="none" 
	d="
M77.951347,80.961006 
	C78.177315,80.007378 78.159302,78.389229 78.666977,78.202843 
	C83.787209,76.322891 86.921379,70.088684 93.708092,71.625092 
	C95.495071,72.029640 97.819275,69.853622 99.683670,70.159882 
	C107.459572,71.437263 115.158180,72.067009 121.206398,78.966133 
	C133.976669,93.533020 130.990021,106.958435 125.573143,119.874840 
	C124.378532,122.723351 120.675697,124.706642 117.821892,126.635719 
	C110.807816,131.377029 102.711555,133.635391 94.479271,133.637924 
	C90.871964,133.639038 87.154938,130.357330 83.680527,128.248642 
	C78.101952,124.862892 71.792274,121.928436 72.246078,113.400307 
	C72.464157,113.001678 72.929779,113.002655 73.093994,113.180939 
	C73.380463,113.678383 73.597092,113.908829 73.928047,114.382126 
	C74.521187,115.361595 75.094345,116.009499 75.710365,116.948105 
	C76.418442,118.192101 77.083649,119.145393 77.851990,120.368065 
	C78.305588,120.773224 78.656059,120.908997 79.165787,121.276314 
	C79.881401,122.004532 80.437767,122.501198 81.080971,123.315613 
	C82.098755,124.150574 83.029709,124.667793 84.036438,125.271179 
	C84.112213,125.357330 84.341339,125.344566 84.530045,125.643967 
	C86.822617,126.878479 88.926483,127.813606 91.430267,128.884155 
	C96.885147,129.003998 101.940109,128.988419 107.348618,129.012238 
	C108.695930,128.544647 109.689697,128.037659 110.919937,127.533020 
	C111.473312,127.479889 111.760574,127.355797 112.335678,127.154388 
	C112.939140,126.847923 113.225128,126.550140 113.660416,126.234329 
	C113.809731,126.216301 113.987488,125.973648 114.271973,125.953964 
	C114.833862,125.685249 115.111282,125.436203 115.707001,125.102303 
	C118.705589,122.053963 121.385864,119.090477 124.338844,115.963348 
	C124.747337,115.197815 124.883133,114.595932 125.194099,113.709694 
	C125.771530,112.181320 126.173790,110.937309 126.861496,109.467529 
	C127.372314,107.815681 127.597687,106.389587 127.957375,104.538467 
	C127.937256,101.762611 127.782822,99.411789 127.709442,96.773750 
	C127.546043,95.986549 127.301605,95.486549 127.054108,94.666870 
	C126.756104,93.554741 126.461174,92.762299 126.159592,91.693695 
	C126.033737,91.277199 125.914520,91.136848 125.782928,90.717056 
	C125.504951,89.962982 125.239357,89.488342 124.964111,88.683685 
	C124.339134,87.503151 123.723801,86.652618 122.968292,85.499634 
	C116.110596,76.006416 106.945183,71.347237 95.812073,73.393951 
	C89.956955,74.470352 84.624725,78.391060 78.780182,81.009933 
	C78.319763,80.981972 78.135559,80.971489 77.951347,80.961006 
z"/>
<path fill="#595B89" opacity="1.000000" stroke="none" 
	d="
M72.929779,113.002655 
	C72.929779,113.002655 72.464157,113.001678 72.231331,113.001953 
	C71.000015,111.927132 69.206947,110.903580 69.133331,109.768501 
	C68.690437,102.940247 66.606544,95.854675 70.469093,89.418571 
	C72.299522,86.368546 74.945122,83.807732 77.586380,80.993149 
	C78.135559,80.971489 78.319763,80.981972 78.628525,81.317596 
	C70.692101,90.959633 69.672935,101.584129 72.929779,113.002655 
z"/>
<path fill="#5C5D90" opacity="1.000000" stroke="none" 
	d="
M100.011032,53.498436 
	C108.075050,52.267319 115.334351,54.466854 122.059120,59.462135 
	C121.876305,59.820145 121.502640,59.973621 121.223694,59.870609 
	C114.654808,57.444855 108.078773,55.096146 100.886414,55.524464 
	C100.637444,55.539291 100.323792,54.468204 100.011032,53.498436 
z"/>
<path fill="#535586" opacity="1.000000" stroke="none" 
	d="
M122.167694,60.143398 
	C124.421562,60.930496 126.670883,62.084763 129.040497,63.547745 
	C126.828232,62.741165 124.495689,61.625866 122.167694,60.143398 
z"/>
<path fill="#515486" opacity="1.000000" stroke="none" 
	d="
M129.633011,137.060547 
	C129.212311,137.698227 128.443237,138.321793 127.363327,138.966370 
	C127.796539,138.340393 128.540588,137.693420 129.633011,137.060547 
z"/>
<path fill="#515486" opacity="1.000000" stroke="none" 
	d="
M131.988403,136.664124 
	C131.981155,136.981247 131.512894,136.994492 131.279236,136.993896 
	C131.197037,136.455612 131.348465,135.917938 131.741928,135.230774 
	C131.987839,135.503189 131.991745,135.925095 131.988403,136.664124 
z"/>
<path fill="#515486" opacity="1.000000" stroke="none" 
	d="
M124.831833,138.795700 
	C124.925774,138.993103 124.503410,139.003113 124.293236,139.007309 
	C123.945610,138.800064 123.808159,138.588623 123.670708,138.377182 
	C124.026436,138.450897 124.382164,138.524597 124.831833,138.795700 
z"/>
<path fill="#FCFCFD" opacity="1.000000" stroke="none" 
	d="
M73.093994,113.180939 
	C69.672935,101.584129 70.692101,90.959633 78.904724,81.335075 
	C84.624725,78.391060 89.956955,74.470352 95.812073,73.393951 
	C106.945183,71.347237 116.110596,76.006416 122.921539,85.866760 
	C123.011635,87.028198 123.008293,87.520073 122.632515,88.003342 
	C120.632484,88.167801 119.004890,88.340866 117.377304,88.513939 
	C117.579391,89.600372 117.519165,90.853996 118.069931,91.718208 
	C118.480644,92.362656 120.230621,93.008675 120.437469,92.783669 
	C121.472244,91.658073 122.194702,90.245369 123.351227,88.952690 
	C124.108238,88.985741 124.541000,88.999718 124.973763,89.013695 
	C125.239357,89.488342 125.504951,89.962982 125.636475,90.846176 
	C125.723679,91.493103 125.944954,91.731476 126.166237,91.969849 
	C126.461174,92.762299 126.756104,93.554741 126.817795,94.798508 
	C126.932495,95.853546 127.280441,96.457253 127.628387,97.060959 
	C127.782822,99.411789 127.937256,101.762611 127.578140,104.643898 
	C126.901741,106.680664 126.738899,108.186981 126.576050,109.693291 
	C126.173790,110.937309 125.771530,112.181320 124.935379,113.889359 
	C124.356369,114.944588 124.211250,115.535789 124.066132,116.126991 
	C121.385864,119.090477 118.705589,122.053963 115.411285,125.099365 
	C114.527328,125.445412 114.257408,125.709526 113.987488,125.973648 
	C113.987488,125.973648 113.809731,126.216301 113.338120,126.239655 
	C112.583733,126.563034 112.300957,126.863052 112.018188,127.163086 
	C111.760574,127.355797 111.473312,127.479889 110.561966,127.388191 
	C108.976707,127.818291 107.985886,128.395554 106.995071,128.972839 
	C101.940109,128.988419 96.885147,129.003998 91.353394,128.546829 
	C88.698166,127.164246 86.519753,126.254410 84.341339,125.344574 
	C84.341339,125.344566 84.112213,125.357330 84.052605,124.905579 
	C83.994064,123.968254 83.995132,123.482674 84.133728,122.943436 
	C84.181824,122.927780 84.092384,122.965790 83.626892,123.003242 
	C82.498596,123.001083 81.746368,122.999474 80.994141,122.997864 
	C80.437767,122.501198 79.881401,122.004532 79.035347,121.027115 
	C78.413391,120.397133 78.081123,120.247910 77.748863,120.098679 
	C77.083649,119.145393 76.418442,118.192101 75.787338,116.562820 
	C75.183662,115.274734 74.545868,114.662643 73.908073,114.050552 
	C73.597092,113.908829 73.380463,113.678383 73.093994,113.180939 
z"/>
<path fill="#E7EBF4" opacity="1.000000" stroke="none" 
	d="
M84.530045,125.643967 
	C86.519753,126.254410 88.698166,127.164246 90.953461,128.411407 
	C88.926483,127.813606 86.822617,126.878479 84.530045,125.643967 
z"/>
<path fill="#DCDFEF" opacity="1.000000" stroke="none" 
	d="
M126.861496,109.467529 
	C126.738899,108.186981 126.901741,106.680664 127.443825,105.068924 
	C127.597687,106.389587 127.372314,107.815681 126.861496,109.467529 
z"/>
<path fill="#DCDFEF" opacity="1.000000" stroke="none" 
	d="
M107.348618,129.012238 
	C107.985886,128.395554 108.976707,127.818291 110.325500,127.385849 
	C109.689697,128.037659 108.695930,128.544647 107.348618,129.012238 
z"/>
<path fill="#E7EBF4" opacity="1.000000" stroke="none" 
	d="
M81.080971,123.315605 
	C81.746368,122.999474 82.498596,123.001083 83.625412,123.001343 
	C84.000000,123.000000 83.996208,122.997093 83.996208,122.997093 
	C83.995132,123.482674 83.994064,123.968254 83.976830,124.819427 
	C83.029709,124.667793 82.098755,124.150574 81.080971,123.315605 
z"/>
<path fill="#DCDFEF" opacity="1.000000" stroke="none" 
	d="
M123.004959,88.011948 
	C123.008293,87.520073 123.011635,87.028198 123.061722,86.169205 
	C123.723801,86.652618 124.339134,87.503151 124.964111,88.683685 
	C124.541000,88.999718 124.108238,88.985741 123.348175,88.722603 
	C123.020866,88.473434 123.004959,88.011948 123.004959,88.011948 
z"/>
<path fill="#E7EBF4" opacity="1.000000" stroke="none" 
	d="
M73.928047,114.382126 
	C74.545868,114.662643 75.183662,115.274734 75.744476,116.272110 
	C75.094345,116.009499 74.521187,115.361595 73.928047,114.382126 
z"/>
<path fill="#DCDFEF" opacity="1.000000" stroke="none" 
	d="
M127.709442,96.773750 
	C127.280441,96.457253 126.932495,95.853546 126.820862,95.118195 
	C127.301605,95.486549 127.546043,95.986549 127.709442,96.773750 
z"/>
<path fill="#DCDFEF" opacity="1.000000" stroke="none" 
	d="
M124.338837,115.963348 
	C124.211250,115.535789 124.356369,114.944588 124.760208,114.173721 
	C124.883133,114.595932 124.747337,115.197815 124.338837,115.963348 
z"/>
<path fill="#DCDFEF" opacity="1.000000" stroke="none" 
	d="
M126.159592,91.693695 
	C125.944954,91.731476 125.723679,91.493103 125.648849,91.125610 
	C125.914520,91.136848 126.033737,91.277199 126.159592,91.693695 
z"/>
<path fill="#E7EBF4" opacity="1.000000" stroke="none" 
	d="
M77.851990,120.368073 
	C78.081123,120.247910 78.413391,120.397133 78.876099,120.795563 
	C78.656059,120.908997 78.305588,120.773224 77.851990,120.368073 
z"/>
<path fill="#DCDFEF" opacity="1.000000" stroke="none" 
	d="
M114.271965,125.953964 
	C114.257408,125.709526 114.527328,125.445412 115.092972,125.184227 
	C115.111282,125.436203 114.833862,125.685249 114.271965,125.953964 
z"/>
<path fill="#DCDFEF" opacity="1.000000" stroke="none" 
	d="
M112.335678,127.154388 
	C112.300957,126.863052 112.583733,126.563034 113.188805,126.257690 
	C113.225128,126.550140 112.939140,126.847923 112.335678,127.154388 
z"/>
<path fill="#FCFDF1" opacity="1.000000" stroke="none" 
	d="
M122.632515,88.003342 
	C123.004959,88.011948 123.020866,88.473434 123.023926,88.703522 
	C122.194702,90.245369 121.472244,91.658073 120.437469,92.783669 
	C120.230621,93.008675 118.480644,92.362656 118.069931,91.718208 
	C117.519165,90.853996 117.579391,89.600372 117.377304,88.513939 
	C119.004890,88.340866 120.632484,88.167801 122.632515,88.003342 
z"/>
<path fill="#E7EBF4" opacity="1.000000" stroke="none" 
	d="
M84.001480,123.001900 
	C84.092384,122.965790 84.181824,122.927780 84.133728,122.943436 
	C83.996208,122.997093 84.000000,123.000000 84.001480,123.001900 
z"/>
</svg>