<svg width="250" height="250" viewBox="0 0 250 250" fill="none" xmlns="http://www.w3.org/2000/svg">
<g clip-path="url(#clip0_977_1352)">
<path fill-rule="evenodd" clip-rule="evenodd" d="M116.57 54C139.495 54 174.135 61.0747 190.26 77.2985C194.345 81.412 199.69 89.4688 199.69 101.268C199.69 122.247 182.89 154.434 164.34 173.103C154.75 182.753 139.495 195.364 118.975 195.364C98.915 195.364 83.595 181.656 79.16 177.191C62.17 160.096 50 134.147 50 109.951C50 94.6846 54.325 81.3319 65.36 70.2338C75.58 59.9524 93.19 54 116.57 54ZM144.945 137.664C152.685 129.873 154.77 120.278 154.77 114.997C154.77 111.169 153.77 105.552 149.01 100.767C141.71 93.422 133.625 91.3477 124.83 91.3477C113.69 91.3477 106.205 94.8901 101.22 99.9105C97.31 103.844 93.93 109.891 93.93 118.484C93.93 127.072 98.48 135.369 103.44 140.355C108.02 144.964 115.22 148.376 122.47 148.376C129.72 148.376 137.205 145.455 144.945 137.664Z" fill="#5952FF"/>
</g>
<defs>
<clipPath id="clip0_977_1352">
<rect width="150" height="142" fill="white" transform="translate(50 54)"/>
</clipPath>
</defs>
</svg>
