<svg xmlns="http://www.w3.org/2000/svg" width="348.455" height="201.365" viewBox="0 0 348.455 201.365"><g transform="translate(-548 -1417)"><path d="M58.44,101.274a9.116,9.116,0,0,1-9.086,9.331c-5.4,0-9.086-3.929-9.086-9.331V77.7H30.2v23.329c0,13.752,9.331,18.663,18.909,18.663s18.908-4.911,18.908-18.663V77.7H57.949v23.574Z" transform="translate(582.138 1498.18)" fill="#5952ff"/><path d="M71.768,86.14v-8.1H61.7v41.746H71.768V99.646a11.843,11.843,0,0,1,3.683-9.086c2.456-2.456,5.894-3.438,10.314-3.192V77.3a15.707,15.707,0,0,0-8.349,2.21A14.7,14.7,0,0,0,71.768,86.14Z" transform="translate(627.993 1497.594)" fill="#5952ff"/><path d="M63.543,117.156a3.771,3.771,0,0,1-3.192-1.228c-.737-.737-.982-2.21-.982-3.929V93.336H71.155V85.969H59.368V73.2L49.3,74.428v39.536a12.809,12.809,0,0,0,3.438,9.332,12.059,12.059,0,0,0,8.595,3.192A21.023,21.023,0,0,0,71.646,123.3l-2.456-7.858A15.908,15.908,0,0,1,63.543,117.156Z" transform="translate(609.945 1491.627)" fill="#5952ff"/><path d="M93.473,77.3a22.025,22.025,0,0,0-10.8,2.7c-3.192,1.473-5.648,4.42-7.367,7.367a21.982,21.982,0,0,0-2.7,11.3,21.933,21.933,0,0,0,2.456,10.8,16.449,16.449,0,0,0,7.367,7.367c3.192,1.965,6.876,2.7,11.3,2.7a27.235,27.235,0,0,0,10.068-1.965,22.889,22.889,0,0,0,7.367-5.4l-5.648-5.157c-1.228,1.473-3.192,2.456-4.911,3.438a13.738,13.738,0,0,1-6.139,1.228,13.588,13.588,0,0,1-7.858-2.456,10.158,10.158,0,0,1-3.929-6.876h30.7V99.155c0-6.876-1.473-12.033-4.911-15.962C105.015,79.756,99.858,77.791,93.473,77.3Zm-11.3,18.172A14.905,14.905,0,0,1,85.861,88.1a10.566,10.566,0,0,1,7.367-2.7,10.023,10.023,0,0,1,7.367,2.7,10.208,10.208,0,0,1,3.192,7.367Z" transform="translate(643.86 1497.594)" fill="#5952ff"/><path d="M124.942,84.912a17.874,17.874,0,0,0-5.894-5.4,16.478,16.478,0,0,0-8.1-1.965,21.535,21.535,0,0,0-10.314,2.7c-2.7,1.965-5.4,4.42-6.876,7.367a25,25,0,0,0-2.456,10.8,26.427,26.427,0,0,0,2.456,11.3,15.388,15.388,0,0,0,6.876,7.367c2.7,1.965,6.139,2.7,10.314,2.7a17.188,17.188,0,0,0,8.1-1.965,15.613,15.613,0,0,0,5.894-5.4v6.63h10.068V77.3H124.942Zm0,15.716a11.925,11.925,0,0,1-3.683,8.1c-2.21,1.964-4.911,3.192-8.1,2.456a10.436,10.436,0,0,1-8.349-3.438,12.615,12.615,0,0,1-3.438-9.086,13.035,13.035,0,0,1,3.438-9.086,11.287,11.287,0,0,1,8.349-3.438,10.552,10.552,0,0,1,8.1,3.192,11.443,11.443,0,0,1,3.683,8.1Z" transform="translate(671.076 1497.594)" fill="#5952ff"/><path d="M132.964,111.434a10.741,10.741,0,0,1-8.1-3.438c-2.21-2.21-3.192-5.4-3.192-9.086s.982-6.876,3.192-9.086a10.37,10.37,0,0,1,8.1-3.438c4.666,0,8.1,1.473,10.8,4.42l6.139-5.894a16.284,16.284,0,0,0-7.121-5.648A28.541,28.541,0,0,0,132.473,77.3a22.025,22.025,0,0,0-10.8,2.7,21.149,21.149,0,0,0-7.367,7.367,21.4,21.4,0,0,0-2.7,11.3,21.932,21.932,0,0,0,2.456,10.8,21.149,21.149,0,0,0,7.367,7.367,20.221,20.221,0,0,0,10.8,2.7,24.632,24.632,0,0,0,10.559-2.21,15.158,15.158,0,0,0,7.367-6.139l-6.139-5.4C141.8,109.96,138.121,111.434,132.964,111.434Z" transform="translate(700.628 1497.594)" fill="#5952ff"/><path d="M47.711,75.783A29.822,29.822,0,0,0,32.977,72.1a29.822,29.822,0,0,0-14.734,3.683A24.565,24.565,0,0,0,7.683,85.852,28.639,28.639,0,0,0,4,100.094a27.984,27.984,0,0,0,3.683,14.243,28.35,28.35,0,0,0,10.559,10.314,29.821,29.821,0,0,0,14.734,3.683,29.821,29.821,0,0,0,14.734-3.683,29.618,29.618,0,0,0,10.314-10.314,28.639,28.639,0,0,0,3.683-14.243,29.562,29.562,0,0,0-3.683-14.488A28.363,28.363,0,0,0,47.711,75.783Zm1.228,33.151a16.256,16.256,0,0,1-6.63,6.876,19.334,19.334,0,0,1-9.086,2.456,19.538,19.538,0,0,1-9.331-2.456,16.856,16.856,0,0,1-6.876-6.876,18.958,18.958,0,0,1,0-18.663c1.965-2.456,3.929-4.911,6.876-6.63a22.967,22.967,0,0,1,9.331-2.7A20.141,20.141,0,0,1,42.308,83.4a22.158,22.158,0,0,1,6.63,6.876A19.538,19.538,0,0,1,51.394,99.6,20.314,20.314,0,0,1,48.938,108.935Z" transform="translate(544 1490.03)" fill="#5952ff"/><path d="M165.989,91.136a15.927,15.927,0,0,0-11.542-4.42c-7.121.246-12.033,2.7-14.979,8.349V71H129.4v58.2h10.068V108.571c0-3.683.982-6.63,2.7-8.595a10.74,10.74,0,0,1,8.1-3.438,10.165,10.165,0,0,1,6.876,2.456,9.715,9.715,0,0,1,2.456,6.876v23.083h10.314v-26.03C169.918,98.012,168.69,93.838,165.989,91.136Z" transform="translate(726.537 1488.426)" fill="#5952ff"/><path d="M102.823,13c-18.172,0-31.678,4.666-39.29,12.769C54.938,34.364,51.5,44.678,51.5,56.219c0,18.417,9.331,38.554,21.855,51.569,3.438,3.438,15.471,13.752,30.7,13.752,15.716,0,27.749-9.577,35.116-16.944,14.243-14.243,27.258-38.8,27.258-55.007,0-9.331-4.175-15.471-7.367-18.417C147.025,18.4,120.5,13,102.823,13Zm22.1,64.338c-6.139,6.139-12.033,8.595-17.435,8.595a22.863,22.863,0,0,1-14.734-6.139c-3.929-3.929-7.367-10.314-7.367-16.944a19.217,19.217,0,0,1,5.894-14.243c3.929-3.929,9.577-6.63,18.172-6.63,6.63,0,12.769,1.473,18.417,7.367a13.66,13.66,0,0,1,4.666,10.8C132.536,63.832,130.572,71.2,124.924,77.338Z" transform="translate(613.145 1404)" fill="#5952ff"/></g></svg>