<svg xmlns="http://www.w3.org/2000/svg" width="2500" height="2500" viewBox="0 0 192.756 192.756"><g fill-rule="evenodd" clip-rule="evenodd"><path fill="#fff" d="M0 0h192.756v192.756H0V0z"/><path fill="#cd3131" d="M67.888 95.577h-4.469l1.153-5.536h14.693l-1.154 5.536h-4.439l-3.987 19.14h-5.786l3.989-19.14zM15.31 98.095c.705-5.324 4.796-11.056 10.948-11.056 6.388 0 8.613 6.297 7.965 11.208-.641 4.859-4.518 11.104-10.814 11.104-5.963.001-8.867-5.424-8.099-11.256zm-6.806 4.849v-4.486c.292-2.216.914-4.7 2.145-7.141 2.19-4.337 7.787-10.619 16.372-10.619 9.459 0 15.157 8.043 13.93 17.351-1.227 9.31-9.005 17.351-18.545 17.351-7.956 0-12.997-5.665-13.902-12.456zm42.008-13.121-2.767 14.906c-.311 1.668-.783 4.702 2.064 4.702 2.877 0 3.384-2.736 3.749-4.702l2.769-14.906h5.786l-2.769 14.906c-.768 4.135-1.936 5.969-3.669 7.568-1.775 1.635-4.018 2.667-6.834 2.667-1.651 0-4.572-.431-6.029-2.634-1.451-2.231-1.529-3.967-.855-7.602l2.769-14.906h5.786v.001zm35.863 5.536h2.112c2.236 0 3.53 1.1 3.114 3.334-.222 1.198-1.052 3.534-4.452 3.534h-2.051l1.277-6.868zM77.28 114.5h5.541l1.479-7.97h.06l3.754 7.97h6.612l-4.591-8.405c4.428-.766 6.549-4.935 7.075-7.769.473-2.535.033-5.136-1.535-6.734-1.24-1.235-2.671-1.769-6.65-1.769h-7.163L77.28 114.5zm24.57-24.677h15.191l-1.025 5.536h-9.653l-.713 3.832h9.438l-1.031 5.538h-9.434l-.783 4.235h9.285l-1.027 5.554h-14.83l4.582-24.695zm58.978 15.44c-2.398 5.835-7.77 9.702-13.25 9.702-7.1 0-10.791-6.168-9.553-12.837 1.172-6.304 6.84-12.772 14.248-12.772 7.102 0 9.789 5.969 9.684 9.836h-6.061c-.303-1.831-1.559-4.3-4.682-4.3-3.885 0-6.748 3.702-7.4 7.204-.691 3.734.967 7.336 4.73 7.336 3.613 0 5.695-3.302 6.225-4.169h6.059zm4.633-15.44h5.789l-1.723 9.271h7.409l1.72-9.271h5.596v1.01l-4.395 23.667h-5.785l1.834-9.871H168.5l-1.836 9.871h-5.783l4.58-24.677z"/><path fill="#cd3131" d="M155.703 73.029c-.037-.178-.285-.372-.406-.416h-.512c-.205.091-.35.25-.35.25-13.24 15.088-21.486 14.575-21.486 14.575-6.955.794-11.363-6.014-11.363-6.014-.264-.328-.539-.465-.863-.328-.449.188-.355.783-.355.783 1.307 6.443 4.51 9.16 7.123 10.302l-13.609 22.374h6.318l11.746-19.391-4.133 19.341h5.928l4.332-23.189c8.842-4.394 16.383-15.945 16.867-16.581.597-.796.857-1.284.763-1.706z"/><path fill="#cd3131" d="M133.477 86.278c1.709.169 3.629-1.547 4.271-3.833.65-2.286-.217-4.276-1.934-4.448-1.711-.169-3.627 1.549-4.273 3.835s.217 4.276 1.936 4.446z"/></g></svg>