<svg xmlns="http://www.w3.org/2000/svg" width="250" height="250" fill="none"><g clip-path="url(#a)"><path fill="#5952FF" fill-rule="evenodd" d="M113.985 32c29.955 0 75.218 9.267 96.288 30.518 5.338 5.388 12.322 15.941 12.322 31.397 0 27.479-21.952 69.639-46.191 94.093-12.531 12.64-32.464 29.159-59.277 29.159-26.211 0-46.23-17.956-52.025-23.804C42.902 170.97 27 136.981 27 105.288c0-19.997 5.651-37.487 20.07-52.024C60.425 39.797 83.435 32 113.985 32Zm37.076 109.588c10.114-10.205 12.838-22.773 12.838-29.691 0-5.014-1.306-12.37-7.526-18.638-9.539-9.622-20.103-12.339-31.595-12.339-14.556 0-24.337 4.64-30.85 11.216-5.11 5.152-9.526 13.074-9.526 24.329 0 11.249 5.945 22.117 12.426 28.647 5.985 6.038 15.393 10.508 24.866 10.508 9.473 0 19.254-3.826 29.367-14.032Z" clip-rule="evenodd"/></g><defs><clipPath id="a"><path fill="#fff" d="M27 32h196v186H27z"/></clipPath></defs></svg>