<?xml version="1.0" encoding="utf-8"?>
<!-- Generator: Adobe Illustrator 19.2.1, SVG Export Plug-In . SVG Version: 6.00 Build 0)  -->
<svg version="1.1" id="layer" xmlns="http://www.w3.org/2000/svg" xmlns:xlink="http://www.w3.org/1999/xlink" x="0px" y="0px"
	 viewBox="0 0 652 652" style="enable-background:new 0 0 652 652;" xml:space="preserve">
<style type="text/css">
	.st0{fill:#5952FF;}
</style>
<path class="st0" d="M615.6,318.1c3.5,3.7,5.3,8.7,5.3,15.1v33.5h-13.1V337c0-3.7-1.1-6.7-3.2-8.9c-2.1-2.2-5-3.3-8.7-3.3
	c-4.3,0.1-7.8,1.5-10.3,4.4c-2.5,2.9-3.8,6.5-3.8,11v26.4h-13v-74.4h13v31c3.7-7,10.1-10.6,19.3-10.7
	C607.2,312.6,612,314.4,615.6,318.1L615.6,318.1z M540,324.1c-4.3,0-7.8,1.5-10.5,4.4c-2.7,2.9-4,6.8-4,11.4c0,4.8,1.4,8.7,4,11.6
	c2.7,2.9,6.2,4.4,10.5,4.4c6.4,0,11.2-2.1,14.4-6.3l8.1,6.7c-2.4,3.5-5.7,6.2-9.5,8c-3.9,1.9-8.5,2.8-13.7,2.8
	c-5.3,0-9.9-1.1-14-3.4c-4-2.2-7.3-5.5-9.5-9.6c-2.3-4.1-3.4-8.8-3.4-14.2c0-5.4,1.2-10.2,3.4-14.3c2.2-4.1,5.5-7.4,9.6-9.6
	c4.1-2.3,8.8-3.4,14.1-3.4c4.9,0,9.2,0.8,13,2.6s6.9,4.1,9.3,7.3L554,330C550.4,326.1,545.7,324.1,540,324.1L540,324.1z
	 M504.1,313.1v53.6h-13v-8.5c-1.8,2.9-4.4,5.2-7.4,6.8c-3,1.6-6.5,2.4-10.4,2.4c-5.1,0-9.5-1.2-13.3-3.5c-3.8-2.3-6.8-5.5-8.9-9.7
	c-2.1-4.2-3.2-9-3.2-14.4c0-5.3,1.1-10.1,3.2-14.2c2.1-4.1,5.1-7.3,8.9-9.6c3.8-2.3,8.2-3.4,13.2-3.4c3.9,0,7.4,0.8,10.5,2.4
	c3,1.6,5.6,3.9,7.5,6.8v-8.6L504.1,313.1L504.1,313.1z M486.4,352.4c2.7-2.6,4.3-6.1,4.7-10.5v-3.8c-0.4-4.3-2-7.8-4.7-10.5
	c-2.7-2.6-6.2-4-10.4-4c-4.5,0-8.1,1.5-10.9,4.6c-2.8,3-4.2,7-4.3,11.8c0.1,4.8,1.5,8.7,4.3,11.8c2.8,3,6.4,4.6,10.9,4.6
	C480.2,356.4,483.7,355.1,486.4,352.4z M434.7,320c4.3,4.9,6.4,11.7,6.4,20.6c0,1.7,0,3-0.1,3.9h-39.4c0.9,3.8,2.6,6.8,5.3,9
	c2.7,2.2,6,3.3,9.9,3.3c2.7,0,5.4-0.5,7.8-1.6c2.5-1,4.7-2.5,6.5-4.5l7,7.3c-2.7,3-6,5.3-9.7,6.8c-3.8,1.6-8.1,2.4-12.7,2.4
	c-5.5,0-10.3-1.1-14.4-3.4c-4.1-2.2-7.4-5.5-9.6-9.6c-2.3-4.1-3.4-8.8-3.4-14.2c0-5.3,1.1-10.1,3.4-14.2c2.2-4.1,5.6-7.4,9.6-9.7
	c4.1-2.3,8.8-3.5,14.1-3.5C424,312.7,430.4,315.1,434.7,320z M429.3,335.7c-0.1-3.9-1.4-7.1-3.9-9.4c-2.5-2.3-5.7-3.5-9.8-3.5
	c-3.8,0-7,1.2-9.5,3.5c-2.6,2.3-4.1,5.5-4.7,9.5H429.3z M374.3,315.4c3.1-1.8,6.7-2.8,10.8-2.9v12.6c-5.5-0.3-9.9,0.9-13.2,3.9
	c-3.3,2.9-4.9,6.8-4.9,11.8v25.9h-13v-53.6h13v10.3C368.7,319.9,371.2,317.3,374.3,315.4L374.3,315.4z M344.2,363.4
	c-4.3,2.6-8.7,3.9-13.4,3.9c-4.6,0-8.4-1.4-11.3-4.1c-2.9-2.7-4.4-6.7-4.4-12v-50.7L328,299v16.3h15.3v9.5H328V349
	c0,2.5,0.5,4.2,1.4,5.3c0.9,1,2.3,1.6,4.2,1.6c2,0,4.5-0.7,7.6-2.2L344.2,363.4L344.2,363.4z M291.1,313.1H304v30.1
	c0,17.5-12.2,24.1-24.6,24.1c-12.4,0-24.6-6.5-24.6-24.1v-30.1h12.9v30.5c0,6.7,5,12.2,11.7,12.2s11.7-5.5,11.7-12.2L291.1,313.1
	L291.1,313.1z M228.2,300.3c5.6,3,10.2,7.5,13.4,12.9c3.3,5.5,4.9,11.6,4.9,18.2c0,6.7-1.6,12.8-4.9,18.3c-3.2,5.5-7.9,10-13.4,13.1
	c-5.7,3.2-12,4.8-18.9,4.8c-6.9,0-13.2-1.6-18.9-4.8c-5.6-3.1-10.2-7.6-13.4-13.1c-3.3-5.5-4.9-11.6-4.9-18.3
	c0-6.7,1.6-12.8,4.9-18.2c3.2-5.4,7.9-9.9,13.4-12.9c5.7-3.1,12-4.7,18.9-4.7C216.2,295.6,222.5,297.2,228.2,300.3z M197.5,310.8
	c-3.6,2.1-6.6,5-8.7,8.6c-2.1,3.6-3.2,7.7-3.2,12.1c0,4.4,1.1,8.5,3.2,12.1c2.1,3.6,5.1,6.6,8.7,8.7c3.6,2.1,7.6,3.2,11.8,3.2
	c4.1,0,8.2-1.1,11.7-3.2c3.6-2.1,6.5-5.1,8.5-8.7c2.1-3.7,3.2-7.9,3.1-12.1c0-4.4-1.1-8.4-3.1-12.1c-2-3.6-5-6.6-8.5-8.6
	c-3.5-2.1-7.6-3.2-11.7-3.2C205.3,307.6,201.2,308.7,197.5,310.8L197.5,310.8z M74.2,265.6c18.4,0,46.1,5.7,59.1,18.6
	c3.3,3.3,7.6,9.7,7.6,19.2c0,16.8-13.5,42.5-28.3,57.5c-7.7,7.7-19.9,17.8-36.4,17.8c-16.1,0-28.4-11-31.9-14.5
	c-13.6-13.7-23.4-34.4-23.4-53.8c0-12.2,3.5-22.9,12.3-31.8C41.4,270.3,55.5,265.6,74.2,265.6z M97,332.5c6.2-6.2,7.9-13.9,7.9-18.1
	c0-3.1-0.8-7.6-4.6-11.4c-5.9-5.9-12.3-7.5-19.4-7.5c-8.9,0-14.9,2.8-18.9,6.8c-3.1,3.1-5.8,8-5.8,14.9c0,6.9,3.6,13.5,7.6,17.5
	c3.7,3.7,9.4,6.4,15.3,6.4S90.8,338.7,97,332.5z"/>
</svg>
