<?xml version="1.0" standalone="yes"?>
<svg xmlns="http://www.w3.org/2000/svg" width="225" height="225">
<path style="fill:#ffffff; stroke:none;" d="M0 0L0 225L225 225L225 0L0 0z"/>
<path style="fill:#a3bfdf; stroke:none;" d="M69 32L70 33L69 32z"/>
<path style="fill:#012880; stroke:none;" d="M70.0579 32.7423C61.532 36.2911 61.8374 61.8644 60.5756 70C56.7476 94.6823 52.783 119.35 48.7539 144C47.6005 151.056 42.3651 166.072 45.6034 172.682C46.9229 175.375 50.488 174.982 53 174.999C59.4844 175.044 71.7444 177.35 77.5664 174.397C80.9772 172.666 80.7075 165.296 81.2461 162C82.7188 152.987 81.9043 133.038 88.4336 126.318C93.5349 121.068 107.251 124.473 114 123.83C130.967 122.214 147.23 116.844 157.11 102C168.838 84.378 174.287 50.2433 152 38.3989C136.81 30.3263 117.608 32 101 32C92.2004 32 78.2296 29.3409 70.0579 32.7423z"/>
<path style="fill:#2263a9; stroke:none;" d="M127 32L127 33L130 33L127 32z"/>
<path style="fill:#a3bfdf; stroke:none;" d="M130 32L130 33L134 33L130 32M67 33L68 34L67 33z"/>
<path style="fill:#2263a9; stroke:none;" d="M136.667 33.3333L137.333 33.6667L136.667 33.3333z"/>
<path style="fill:#a3bfdf; stroke:none;" d="M138.667 33.3333L139.333 33.6667L138.667 33.3333M66 34L67 35L66 34z"/>
<path style="fill:#2263a9; stroke:none;" d="M141 34L142 35L141 34z"/>
<path style="fill:#a3bfdf; stroke:none;" d="M142 34L143 35L142 34M145 35L146 36L145 35M65 36L66 37L65 36z"/>
<path style="fill:#2263a9; stroke:none;" d="M147 36L148 37L147 36z"/>
<path style="fill:#a3bfdf; stroke:none;" d="M148 36L149 37L148 36z"/>
<path style="fill:#2263a9; stroke:none;" d="M65.3333 37.6667L65.6667 38.3333L65.3333 37.6667z"/>
<path style="fill:#a3bfdf; stroke:none;" d="M150 37L151 38L150 37M152 38L153 39L152 38M154 39L155 40L154 39M155 40L156 41L155 40M64 41L64 44L65 44L64 41z"/>
<path style="fill:#2263a9; stroke:none;" d="M156 41L157 42L156 41M64 44L65 45L64 44M161 46L162 47L161 46z"/>
<path style="fill:#a3bfdf; stroke:none;" d="M63 47L63 50L64 50L63 47M162 47L163 48L162 47M163 49L164 50L163 49z"/>
<path style="fill:#2263a9; stroke:none;" d="M63 50L64 51L63 50z"/>
<path style="fill:#a3bfdf; stroke:none;" d="M164 51L165 52L164 51M165 53L166 54L165 53M62.3333 54.6667L62.6667 55.3333L62.3333 54.6667z"/>
<path style="fill:#2263a9; stroke:none;" d="M165 54L166 55L165 54M62.3333 56.6667L62.6667 57.3333L62.3333 56.6667z"/>
<path style="fill:#a3bfdf; stroke:none;" d="M166.333 56.6667L166.667 57.3333L166.333 56.6667z"/>
<path style="fill:#2263a9; stroke:none;" d="M166.333 58.6667L166.667 59.3333L166.333 58.6667z"/>
<path style="fill:#a3bfdf; stroke:none;" d="M61 60L61 63L62 63L61 60M167 62L167 71L168 71L167 62z"/>
<path style="fill:#2263a9; stroke:none;" d="M61 63L62 64L61 63z"/>
<path style="fill:#a3bfdf; stroke:none;" d="M60 66L60 69L61 69L60 66z"/>
<path style="fill:#2263a9; stroke:none;" d="M60.3333 69.6667L60.6667 70.3333L60.3333 69.6667z"/>
<path style="fill:#a3bfdf; stroke:none;" d="M59.3333 73.6667L59.6667 74.3333L59.3333 73.6667z"/>
<path style="fill:#029be1; stroke:none;" d="M167 73C163.452 100.47 146.46 119.13 119 123.41C111.464 124.584 94.3228 120.471 88.564 125.742C83.4244 130.447 84.0197 146.346 82.9198 153C81.4915 161.64 74.7143 181.672 78.6042 189.682C80.8665 194.341 104.265 192.984 108.892 191.566C113.784 190.068 113.773 184.187 114.424 180C115.631 172.239 115.403 156.455 120.728 150.434C126.344 144.082 144.882 146.852 153 143.546C175.603 134.343 196.044 86.8581 167 73z"/>
<path style="fill:#a3bfdf; stroke:none;" d="M168 73L169 74L168 73M170 74L171 75L170 74z"/>
<path style="fill:#2263a9; stroke:none;" d="M59.3333 75.6667L59.6667 76.3333L59.3333 75.6667M166.333 75.6667L166.667 76.3333L166.333 75.6667z"/>
<path style="fill:#a3bfdf; stroke:none;" d="M171 75L172 76L171 75M58 79L58 82L59 82L58 79M175 79L176 80L175 79z"/>
<path style="fill:#2263a9; stroke:none;" d="M165 81L166 82L165 81M58 82L59 83L58 82z"/>
<path style="fill:#a3bfdf; stroke:none;" d="M177 82L178 83L177 82M178 84L179 85L178 84M57 85L57 88L58 88L57 85z"/>
<path style="fill:#2263a9; stroke:none;" d="M164 85L165 86L164 85z"/>
<path style="fill:#a3bfdf; stroke:none;" d="M179 87L180 88L179 87z"/>
<path style="fill:#2263a9; stroke:none;" d="M57 88L58 89L57 88M163 88L164 89L163 88M162 91L163 92L162 91z"/>
<path style="fill:#a3bfdf; stroke:none;" d="M180 91L180 95L181 95L180 91M56.3333 92.6667L56.6667 93.3333L56.3333 92.6667z"/>
<path style="fill:#2263a9; stroke:none;" d="M161 93L162 94L161 93M56.3333 94.6667L56.6667 95.3333L56.3333 94.6667z"/>
<path style="fill:#a3bfdf; stroke:none;" d="M55 98L55 101L56 101L55 98z"/>
<path style="fill:#2263a9; stroke:none;" d="M158 99L159 100L158 99z"/>
<path style="fill:#a3bfdf; stroke:none;" d="M180 99L180 103L181 103L180 99z"/>
<path style="fill:#2263a9; stroke:none;" d="M55 101L56 102L55 101M157 101L158 102L157 101z"/>
<path style="fill:#a3bfdf; stroke:none;" d="M54 104L54 107L55 107L54 104z"/>
<path style="fill:#2263a9; stroke:none;" d="M154 105L155 106L154 105M153 106L154 107L153 106M54 107L55 108L54 107z"/>
<path style="fill:#a3bfdf; stroke:none;" d="M179.333 107.667L179.667 108.333L179.333 107.667M53.3333 111.667L53.6667 112.333L53.3333 111.667z"/>
<path style="fill:#2263a9; stroke:none;" d="M148 111L149 112L148 111z"/>
<path style="fill:#a3bfdf; stroke:none;" d="M178.333 111.667L178.667 112.333L178.333 111.667z"/>
<path style="fill:#2263a9; stroke:none;" d="M147 112L148 113L147 112M53.3333 113.667L53.6667 114.333L53.3333 113.667M144 114L145 115L144 114z"/>
<path style="fill:#a3bfdf; stroke:none;" d="M177 115L178 116L177 115z"/>
<path style="fill:#2263a9; stroke:none;" d="M141 116L142 117L141 116z"/>
<path style="fill:#a3bfdf; stroke:none;" d="M52 117L52 120L53 120L52 117z"/>
<path style="fill:#2263a9; stroke:none;" d="M139 117L140 118L139 117M137 118L138 119L137 118z"/>
<path style="fill:#a3bfdf; stroke:none;" d="M176 118L177 119L176 118z"/>
<path style="fill:#2263a9; stroke:none;" d="M135 119L136 120L135 119M52 120L53 121L52 120M132 120L133 121L132 120M128.667 121.333L129.333 121.667L128.667 121.333z"/>
<path style="fill:#a3bfdf; stroke:none;" d="M175 121L176 122L175 121z"/>
<path style="fill:#2263a9; stroke:none;" d="M124 122L125 123L124 122z"/>
<path style="fill:#a3bfdf; stroke:none;" d="M51 123L51 126L52 126L51 123z"/>
<path style="fill:#2263a9; stroke:none;" d="M116 123L116 124L119 124L116 123z"/>
<path style="fill:#a3bfdf; stroke:none;" d="M174 123L175 124L174 123z"/>
<path style="fill:#2263a9; stroke:none;" d="M89 124L90 125L89 124z"/>
<path style="fill:#a3bfdf; stroke:none;" d="M173 125L174 126L173 125z"/>
<path style="fill:#2263a9; stroke:none;" d="M51.3333 126.667L51.6667 127.333L51.3333 126.667M86.3333 128.667L86.6667 129.333L86.3333 128.667z"/>
<path style="fill:#a3bfdf; stroke:none;" d="M171 128L172 129L171 128M50.3333 130.667L50.6667 131.333L50.3333 130.667M169 131L170 132L169 131z"/>
<path style="fill:#2263a9; stroke:none;" d="M50.3333 132.667L50.6667 133.333L50.3333 132.667z"/>
<path style="fill:#a3bfdf; stroke:none;" d="M168 132L169 133L168 132z"/>
<path style="fill:#2263a9; stroke:none;" d="M85 134L85 137L86 137L85 134z"/>
<path style="fill:#a3bfdf; stroke:none;" d="M49 136L49 139L50 139L49 136M164 136L165 137L164 136M163 137L164 138L163 137M162 138L163 139L162 138z"/>
<path style="fill:#2263a9; stroke:none;" d="M49 139L50 140L49 139z"/>
<path style="fill:#a3bfdf; stroke:none;" d="M160 139L161 140L160 139z"/>
<path style="fill:#2263a9; stroke:none;" d="M84 140L84 143L85 143L84 140z"/>
<path style="fill:#a3bfdf; stroke:none;" d="M159 140L160 141L159 140M157 141L158 142L157 141M48 142L48 145L49 145L48 142M155 142L156 143L155 142M153 143L154 144L153 143M150 144L151 145L150 144z"/>
<path style="fill:#2263a9; stroke:none;" d="M48 145L49 146L48 145z"/>
<path style="fill:#a3bfdf; stroke:none;" d="M147 145L148 146L147 145M142.667 146.333L143.333 146.667L142.667 146.333z"/>
<path style="fill:#2263a9; stroke:none;" d="M83 147L83 150L84 150L83 147z"/>
<path style="fill:#a3bfdf; stroke:none;" d="M130 147L130 148L137 148L130 147M47.3333 149.667L47.6667 150.333L47.3333 149.667M120 149L121 150L120 149z"/>
<path style="fill:#2263a9; stroke:none;" d="M47.3333 151.667L47.6667 152.333L47.3333 151.667z"/>
<path style="fill:#a3bfdf; stroke:none;" d="M119 151L120 152L119 151z"/>
<path style="fill:#2263a9; stroke:none;" d="M82 153L82 156L83 156L82 153z"/>
<path style="fill:#a3bfdf; stroke:none;" d="M46 155L46 158L47 158L46 155M118 155L118 158L119 158L118 155z"/>
<path style="fill:#2263a9; stroke:none;" d="M46 158L47 159L46 158M81.3333 160.667L81.6667 161.333L81.3333 160.667z"/>
<path style="fill:#a3bfdf; stroke:none;" d="M45 161L45 164L46 164L45 161M117 161L117 164L118 164L117 161z"/>
<path style="fill:#2263a9; stroke:none;" d="M45 164L46 165L45 164M80 166L80 169L81 169L80 166z"/>
<path style="fill:#a3bfdf; stroke:none;" d="M116 167L116 170L117 170L116 167M44.3333 168.667L44.6667 169.333L44.3333 168.667z"/>
<path style="fill:#2263a9; stroke:none;" d="M44 170L44 173L45 173L44 170z"/>
<path style="fill:#a3bfdf; stroke:none;" d="M44 173L45 174L44 173z"/>
<path style="fill:#2263a9; stroke:none;" d="M79.3333 173.667L79.6667 174.333L79.3333 173.667z"/>
<path style="fill:#a3bfdf; stroke:none;" d="M115 173L115 176L116 176L115 173M45 174L46 175L45 174M47 175L47 176L80 176L47 175M114 179L114 182L115 182L114 179M78 180L78 183L79 183L78 180M77 186L77 190L78 190L77 186M113.333 186.667L113.667 187.333L113.333 186.667M112 189L113 190L112 189M78 191L79 192L78 191M110 191L111 192L110 191M80 192L80 193L109 193L80 192z"/>
</svg>
