<svg width="250" height="250" viewBox="0 0 250 250" fill="none" xmlns="http://www.w3.org/2000/svg">
<path d="M101.372 185.559L103.615 171.257L98.6173 171.14H74.752L91.3372 65.6031C91.3865 65.2807 91.5497 64.9868 91.797 64.775C92.0443 64.5632 92.3591 64.4476 92.6842 64.4493H132.925C146.284 64.4493 155.503 67.2392 160.316 72.7457C162.573 75.3289 164.01 78.0284 164.705 80.9991C165.434 84.1162 165.447 87.8403 164.735 92.3825L164.684 92.714V95.6244L166.94 96.9074C168.663 97.7833 170.211 98.9681 171.509 100.403C173.44 102.612 174.688 105.419 175.216 108.747C175.76 112.17 175.58 116.243 174.688 120.854C173.658 126.158 171.994 130.778 169.746 134.558C167.762 137.944 165.096 140.877 161.917 143.169C158.931 145.295 155.383 146.91 151.372 147.943C147.485 148.959 143.053 149.472 138.193 149.472H135.061C132.822 149.472 130.647 150.281 128.939 151.732C127.234 153.198 126.103 155.224 125.747 157.449L125.511 158.737L121.547 183.945L121.367 184.87C121.32 185.163 121.239 185.309 121.118 185.408C121.002 185.504 120.857 185.557 120.707 185.559H101.372Z" fill="#253B80"/>
<path d="M169.074 93.0497C168.954 93.8203 168.817 94.6082 168.662 95.4176C163.356 122.761 145.2 132.207 122.013 132.207H110.207C107.371 132.207 104.981 134.274 104.54 137.081L98.4949 175.553L96.7832 186.459C96.715 186.891 96.741 187.334 96.8595 187.755C96.978 188.177 97.186 188.567 97.4694 188.9C97.7528 189.234 98.1047 189.501 98.5009 189.685C98.8972 189.868 99.3284 189.963 99.7648 189.963H120.704C123.184 189.963 125.29 188.155 125.681 185.701L125.887 184.633L129.829 159.524L130.082 158.147C130.468 155.684 132.579 153.876 135.059 153.876H138.19C158.478 153.876 174.36 145.61 179.001 121.689C180.94 111.696 179.937 103.352 174.806 97.4842C173.18 95.6689 171.237 94.1662 169.074 93.0497Z" fill="#179BD7"/>
<path d="M163.524 90.8283C161.83 90.3364 160.106 89.9524 158.364 89.6787C154.92 89.1476 151.44 88.8928 147.956 88.9167H116.416C115.215 88.9158 114.054 89.3458 113.142 90.1291C112.231 90.9124 111.628 91.9973 111.444 93.1876L104.734 135.837L104.541 137.081C104.75 135.723 105.436 134.485 106.476 133.591C107.515 132.697 108.839 132.206 110.208 132.207H122.014C145.202 132.207 163.357 122.757 168.664 95.4178C168.823 94.6084 168.956 93.8205 169.076 93.0498C167.675 92.3129 166.216 91.6951 164.713 91.2028C164.319 91.0716 163.923 90.9467 163.524 90.8283Z" fill="#222D65"/>
<path d="M111.443 93.1873C111.626 91.9967 112.228 90.9113 113.14 90.1284C114.053 89.3455 115.215 88.917 116.415 88.9207H147.955C151.692 88.9207 155.18 89.1661 158.363 89.6828C160.517 90.0225 162.641 90.5307 164.716 91.2026C166.282 91.7235 167.737 92.3392 169.079 93.0496C170.658 82.9449 169.067 76.0649 163.623 69.8351C157.621 62.9766 146.788 60.0404 132.927 60.0404H92.6871C89.8557 60.0404 87.4404 62.1069 87.0028 64.9183L70.2417 171.541C70.1637 172.036 70.1934 172.542 70.3288 173.024C70.4642 173.507 70.7022 173.954 71.0263 174.335C71.3504 174.716 71.7529 175.023 72.2062 175.233C72.6596 175.443 73.1529 175.553 73.6523 175.553H98.4958L104.733 135.836L111.443 93.1873Z" fill="#253B80"/>
</svg>
