<svg xmlns="http://www.w3.org/2000/svg" width="250" height="250" fill="none"><g clip-path="url(#a)"><path fill="#07A081" d="M189.886 29.234H59.645C42.72 29.234 29 42.954 29 59.88v130.242c0 16.925 13.72 30.645 30.645 30.645h130.241c16.925 0 30.645-13.72 30.645-30.645V59.879c0-16.924-13.72-30.645-30.645-30.645Z"/><path fill="#fff" d="M100.521 158.441h27.163v-26.029h8.19a21.67 21.67 0 0 0 0-43.34h-35.353v69.369Zm41.229 13.875H86.459V75.202h49.415a35.512 35.512 0 0 1 28.378 57.516 35.512 35.512 0 0 1-22.517 13.101l.015 26.497Z"/></g><defs><clipPath id="a"><path fill="#fff" d="M29 29h192v192H29z"/></clipPath></defs></svg>