<svg xmlns="http://www.w3.org/2000/svg" width="250" height="250" fill="none"><g clip-path="url(#a)"><path fill="#000" d="m131.123 85.034-1.02-17.857h-10.204l-1.051 17.857m12.275 79.932-1.02 17.857h-10.204l-1.051-17.857m46.115-33.844 17.857-1.02v-10.204l-17.857-1.051m-79.93 12.275-17.857-1.02v-10.204l17.857-1.051m72.555-17.778 11.906-13.349-7.216-7.215-13.37 11.884m-47.839 65.2L87.72 169.495l-7.215-7.216 11.884-13.37m56.542 8.68 13.349 11.906 7.215-7.216-11.884-13.37m-65.199-47.84L80.506 87.72l7.216-7.215 13.37 11.884m44.857-1.969 5.891-16.89-9.428-3.904-7.804 16.096m-19.25 78.545-7.776 16.107-9.427-3.905 5.862-16.9m55.561-13.618 16.888 5.891 3.905-9.428-16.095-7.804M85.73 115.362l-16.108-7.776 3.906-9.428 16.9 5.863m73.838 11.341 16.108-7.776-3.905-9.428-16.9 5.863m-69.151 41.93-16.888 5.891-3.905-9.428 16.096-7.804m48.912 29.656 7.78 16.106 9.428-3.903-5.866-16.898M104.047 90.42l-5.89-16.89 9.427-3.904 7.804 16.096m9.611 58.836c10.802 0 19.558-8.757 19.558-19.558 0-10.802-8.756-19.558-19.558-19.558-10.801 0-19.558 8.756-19.558 19.558 0 10.801 8.757 19.558 19.558 19.558Z"/><path stroke="#000" stroke-width="5.714" d="M124.999 198.98c-56.123 0-99.49-45.919-117.772-73.98 18.282-28.061 61.65-73.98 117.772-73.98 56.122 0 99.489 45.919 117.772 73.98-18.283 28.061-61.65 73.98-117.772 73.98Z"/><path stroke="#000" stroke-width="7.755" d="M125.001 165.391c22.307 0 40.391-18.084 40.391-40.391s-18.084-40.391-40.391-40.391c-22.308 0-40.392 18.084-40.392 40.391s18.084 40.391 40.392 40.391Z"/></g><defs><clipPath id="a"><path fill="#fff" d="M0 0h250v250H0z"/></clipPath></defs></svg>