<svg xmlns="http://www.w3.org/2000/svg" width="250" height="250" fill="none"><path fill="#CA2127" d="M218.174 124.733c0 51.627-41.867 93.494-93.493 93.494-51.627 0-93.493-41.867-93.493-93.494 0-51.626 41.866-93.493 93.493-93.493 51.626 0 93.493 41.867 93.493 93.493Z"/><path fill="#fff" d="M116.838 62.547c-26.346 2.826-52.586 23.093-53.653 52.106-.693 17.707 6.72 30.987 24.427 34.72 2.026-8.373 2.4-12.906 2.4-12.906s-7.787-7.467-8.587-12.214c-6.507-38.186 46.24-64.266 73.92-37.6 19.093 18.507 6.507 75.414-24.32 69.494-29.547-5.654 14.453-50.934-9.12-59.84-19.147-7.254-29.333 22.133-20.267 36.693-5.333 25.067-16.8 48.693-12.16 80.107 15.094-10.4 20.16-30.347 24.32-51.147 7.574 4.373 11.627 8.96 21.28 9.653 35.627 2.614 55.52-33.866 50.667-67.573-4.373-29.867-35.627-45.067-68.907-41.493Z"/></svg>