<svg width="250" height="250" viewBox="0 0 250 250" fill="none" xmlns="http://www.w3.org/2000/svg">
<path d="M195.85 124.797C195.85 164.055 164.014 195.891 124.756 195.891C85.4982 195.891 53.6621 164.055 53.6621 124.797C53.6621 85.5394 85.4982 53.7033 124.756 53.7033C164.014 53.7033 195.85 85.5394 195.85 124.797Z" fill="#CA2127"/>
<path d="M118.795 77.5095C98.761 79.6589 78.8077 95.07 77.9966 117.132C77.4694 130.597 83.1066 140.695 96.571 143.534C98.1121 137.167 98.396 133.719 98.396 133.719C98.396 133.719 92.4749 128.042 91.8666 124.432C86.9188 95.3945 127.028 75.5628 148.077 95.8406C162.595 109.913 153.024 153.186 129.583 148.684C107.115 144.386 140.574 109.954 122.648 103.181C108.089 97.6656 100.343 120.012 107.237 131.083C103.182 150.144 94.4621 168.111 97.9905 191.998C109.468 184.089 113.32 168.922 116.484 153.105C122.243 156.431 125.325 159.918 132.665 160.446C159.757 162.433 174.884 134.693 171.193 109.062C167.868 86.3506 144.102 74.7922 118.795 77.5095Z" fill="white"/>
</svg>
