<svg xmlns="http://www.w3.org/2000/svg" xml:space="preserve" width="1278.75" height="312.5"><defs><clipPath id="a" clipPathUnits="userSpaceOnUse"><path d="M0 250h1023V0H0v250Z"/></clipPath></defs><path d="M402.996 159.887h32.312V58.394h-32.312v101.493z" style="fill:#e60023;fill-opacity:1;fill-rule:nonzero;stroke:none" transform="matrix(1.25 0 0 -1.25 0 312.5)"/><g clip-path="url(#a)" transform="matrix(1.25 0 0 -1.25 0 312.5)"><path d="M0 0h31.122v-13.876h.594C39.249-2.973 48.962 2.973 63.037 2.973c22.201 0 35.284-15.858 35.284-38.456v-66.01H66.01v59.468c0 10.705-5.352 18.04-15.858 18.04-10.704 0-17.841-8.921-17.841-21.409v-56.099H0V0Z" style="fill:#e60023;fill-opacity:1;fill-rule:nonzero;stroke:none" transform="translate(442.055 159.887)"/><path d="M0 0c0 10.705-8.678 19.382-19.382 19.382S-38.764 10.705-38.764 0c0-10.704 8.678-19.381 19.382-19.381S0-10.704 0 0" style="fill:#e60023;fill-opacity:1;fill-rule:nonzero;stroke:none" transform="translate(438.533 187.04)"/><path d="M0 0c-.922.083-1.979.12-3.216.12-12.29 0-20.615-5.352-27.752-17.444h-.594v15.858h-30.924v-101.492h32.311v45.592c0 21.125 11.699 30.914 30.175 29.206V0Z" style="fill:#e60023;fill-opacity:1;fill-rule:nonzero;stroke:none" transform="translate(767.626 161.353)"/><path d="M0 0c-12.885 2.378-24.382 3.369-24.382 10.505 0 6.344 6.146 9.317 14.074 9.317 8.92 0 15.066-2.775 16.255-11.894h29.735c-1.586 20.021-17.048 32.51-45.79 32.51-23.987 0-43.81-11.101-43.81-32.51 0-23.786 18.832-28.544 36.475-31.518 13.479-2.379 25.769-3.37 25.769-12.488 0-6.542-6.145-10.11-15.858-10.11-9.745 0-16.19 4.123-18.166 12.488h-30.789c2.266-20.864 20.58-33.5 49.153-33.5 26.563 0 46.187 11.497 46.187 33.698C38.853-7.533 17.841-2.974 0 0" style="fill:#e60023;fill-opacity:1;fill-rule:nonzero;stroke:none" transform="translate(926.19 122.423)"/><path d="M0 0c10.506 0 18.038-7.731 19.228-19.824h-40.042C-18.634-7.731-12.29 0 0 0m1.784-61.252c-13.282 0-20.814 8.523-22.797 22.201h72.949c.198 20.615-5.748 38.258-17.841 49.358-8.722 7.929-20.219 12.687-34.691 12.687-30.923 0-52.133-23.192-52.133-53.522 0-30.724 20.616-53.918 54.116-53.918 12.884 0 23.193 3.37 31.717 9.317 8.92 6.145 14.867 14.867 17.047 23.985H18.633c-2.776-6.343-8.325-10.108-16.849-10.108" style="fill:#e60023;fill-opacity:1;fill-rule:nonzero;stroke:none" transform="translate(817.75 139.867)"/><path d="M0 0c-1.497-.059-3.507-.146-5.354-.146-6.939 0-11.299 1.983-11.299 9.912v47.575H0V77.56h-16.653v32.113h-31.519V77.56h-9.917V57.341h9.917V2.828c0-21.806 13.48-27.95 32.312-27.95 7.185 0 12.616.538 15.86 1.171V0Z" style="fill:#e60023;fill-opacity:1;fill-rule:nonzero;stroke:none" transform="translate(1021.95 82.327)"/><path d="M0 0c-1.289-.05-2.777-.1-4.167-.1-6.937 0-11.299 1.983-11.299 9.912v47.575H0v20.219h-15.466v32.113h-31.518V77.606h-10.51V57.387h10.51V2.874c0-21.806 13.479-27.95 32.311-27.95 6.372 0 11.361.424 14.673.961V0Z" style="fill:#e60023;fill-opacity:1;fill-rule:nonzero;stroke:none" transform="translate(598.078 82.281)"/><path d="M0 0c-1.189 12.092-8.723 19.824-19.229 19.824-12.29 0-18.633-7.732-20.814-19.824H0Zm-71.957-10.704c0 30.329 21.21 53.521 52.134 53.521 14.47 0 25.968-4.757 34.69-12.686C26.959 19.03 32.905 1.388 32.707-19.228H-40.24c1.981-13.677 9.514-22.201 22.796-22.201 8.523 0 14.074 3.766 16.848 10.109h31.519c-2.181-9.118-8.127-17.84-17.048-23.986-8.523-5.946-18.831-9.316-31.716-9.316-33.501 0-54.116 23.193-54.116 53.918" style="fill:#e60023;fill-opacity:1;fill-rule:nonzero;stroke:none" transform="translate(668.458 120.043)"/><path d="M0 0c12.687 0 19.823 7.533 19.823 18.833 0 11.298-7.335 18.236-19.823 18.236h-24.78V0H0Zm-57.492 66.605h56.11c17.245 0 29.932-4.757 38.654-13.083 9.119-8.523 14.273-20.616 14.273-34.888 0-27.157-18.832-46.386-47.972-46.386H-24.78v-47.376h-32.712V66.605z" style="fill:#e60023;fill-opacity:1;fill-rule:nonzero;stroke:none" transform="translate(346.882 133.522)"/><path d="M0 0c0-67.374-54.618-121.992-121.992-121.992S-243.984-67.374-243.984 0c0 67.375 54.618 121.992 121.992 121.992S0 67.375 0 0" style="fill:#fff;fill-opacity:1;fill-rule:nonzero;stroke:none" transform="translate(245.034 125)"/><path d="M0 0c-67.374 0-121.992-54.618-121.992-121.992 0-51.682 32.155-95.863 77.535-113.638-1.066 9.652-2.03 24.496.423 35.033 2.217 9.521 14.305 60.638 14.305 60.638s-3.649 7.308-3.649 18.112c0 16.963 9.832 29.627 22.074 29.627 10.408 0 15.435-7.814 15.435-17.184 0-10.467-6.664-26.116-10.103-40.618-2.874-12.142 6.089-22.044 18.065-22.044 21.682 0 38.349 22.862 38.349 55.863 0 29.209-20.988 49.631-50.957 49.631-34.711 0-55.085-26.035-55.085-52.941 0-10.485 4.039-21.728 9.079-27.84.997-1.208 1.143-2.266.846-3.499-.926-3.853-2.984-12.139-3.388-13.835-.532-2.233-1.768-2.707-4.08-1.631-15.236 7.092-24.762 29.368-24.762 47.26 0 38.482 27.96 73.823 80.605 73.823 42.319 0 75.206-30.156 75.206-70.457 0-42.043-26.509-75.879-63.303-75.879-12.362 0-23.983 6.422-27.961 14.008 0 0-6.117-23.292-7.6-29-2.754-10.596-10.189-23.878-15.162-31.981 11.414-3.534 23.544-5.44 36.12-5.44 67.375 0 121.993 54.618 121.993 121.992S67.375 0 0 0" style="fill:#e60023;fill-opacity:1;fill-rule:nonzero;stroke:none" transform="translate(123.042 246.992)"/></g></svg>