<?xml version="1.0" standalone="yes"?>
<svg xmlns="http://www.w3.org/2000/svg" width="133" height="133">
<path style="fill:#fffdfe; stroke:none;" d="M0 0L0 56L1 56C3.16941 29.4393 29.4393 3.16946 56 1L38 0L0 0z"/>
<path style="fill:#e9a3a5; stroke:none;" d="M56 0L56 1L59 1L56 0z"/>
<path style="fill:#df7275; stroke:none;" d="M59.6667 0.333328L60.3333 0.666672L59.6667 0.333328z"/>
<path style="fill:#d94d52; stroke:none;" d="M61.6667 0.333328L62.3333 0.666672L61.6667 0.333328z"/>
<path style="fill:#cb1d26; stroke:none;" d="M39 126C39.0444 109.902 45.7868 94.7524 48.2948 79C49.3211 72.5534 45.8918 66.5667 47.7894 60C49.6543 53.5461 56.4611 45.2244 63.956 49.1798C75.7759 55.4176 64.0125 73.8204 63.6134 83C63.3075 90.0385 69.1829 94.7625 76 93.7824C85.5514 92.4091 90.115 82.1806 92.4205 74C97.6112 55.5821 91.8974 37.0036 71 34.2894C51.7044 31.7831 34.5985 46.4697 35.0154 66C35.1492 72.2664 42.2805 81.1563 38.061 86.7469C34.2881 91.7458 27.923 84.0493 25.8032 80.9992C14.7683 65.1211 23.846 42.4181 38.0008 31.9244C56.0007 18.58 83.2417 18.093 99.7106 34.3002C121.673 55.9132 108.17 113.707 71 105.61C66.4423 104.617 62.8105 101.486 59 99L48 130C75.212 135.127 101.985 129.007 119.475 106C147.557 69.0572 126.843 12.7809 82 2.23611C52.9185 -4.60231 21.1814 8.87421 7.60802 36C-7.51152 66.2158 2.84196 115.36 39 126z"/>
<path style="fill:#d94d52; stroke:none;" d="M70.6667 0.333328L71.3333 0.666672L70.6667 0.333328z"/>
<path style="fill:#df7275; stroke:none;" d="M72.6667 0.333328L73.3333 0.666672L72.6667 0.333328z"/>
<path style="fill:#e9a3a5; stroke:none;" d="M74 0L74 1L77 1L74 0z"/>
<path style="fill:#fffdfe; stroke:none;" d="M77 0L77 1C104.069 3.36037 130.811 30.7298 132 58L133 58L133 0L77 0z"/>
<path style="fill:#e9a3a5; stroke:none;" d="M51 1L52 2L51 1z"/>
<path style="fill:#df7275; stroke:none;" d="M52.6667 1.33333L53.3333 1.66667L52.6667 1.33333z"/>
<path style="fill:#d94d52; stroke:none;" d="M54 1L55 2L54 1M78 1L79 2L78 1z"/>
<path style="fill:#df7275; stroke:none;" d="M79 1L80 2L79 1z"/>
<path style="fill:#e9a3a5; stroke:none;" d="M80.6667 1.33333L81.3333 1.66667L80.6667 1.33333M47 2L48 3L47 2z"/>
<path style="fill:#df7275; stroke:none;" d="M48 2L49 3L48 2z"/>
<path style="fill:#d94d52; stroke:none;" d="M49 2L50 3L49 2M83 2L84 3L83 2z"/>
<path style="fill:#e9a3a5; stroke:none;" d="M84 2L85 3L84 2M44 3L45 4L44 3z"/>
<path style="fill:#df7275; stroke:none;" d="M45 3L46 4L45 3z"/>
<path style="fill:#d94d52; stroke:none;" d="M86 3L87 4L86 3z"/>
<path style="fill:#df7275; stroke:none;" d="M87 3L88 4L87 3z"/>
<path style="fill:#e9a3a5; stroke:none;" d="M88 3L89 4L88 3z"/>
<path style="fill:#df7275; stroke:none;" d="M42 4L43 5L42 4z"/>
<path style="fill:#d94d52; stroke:none;" d="M43 4L44 5L43 4M89 4L90 5L89 4z"/>
<path style="fill:#e9a3a5; stroke:none;" d="M90 4L91 5L90 4M39 5L40 6L39 5z"/>
<path style="fill:#df7275; stroke:none;" d="M40 5L41 6L40 5M92 5L93 6L92 5z"/>
<path style="fill:#e9a3a5; stroke:none;" d="M93 5L94 6L93 5M37 6L38 7L37 6z"/>
<path style="fill:#d94d52; stroke:none;" d="M38 6L39 7L38 6z"/>
<path style="fill:#df7275; stroke:none;" d="M94 6L95 7L94 6z"/>
<path style="fill:#e9a3a5; stroke:none;" d="M95 6L96 7L95 6M35 7L36 8L35 7z"/>
<path style="fill:#d94d52; stroke:none;" d="M96 7L97 8L96 7z"/>
<path style="fill:#e9a3a5; stroke:none;" d="M97 7L98 8L97 7M33 8L34 9L33 8z"/>
<path style="fill:#d94d52; stroke:none;" d="M34 8L35 9L34 8z"/>
<path style="fill:#df7275; stroke:none;" d="M98 8L99 9L98 8z"/>
<path style="fill:#d94d52; stroke:none;" d="M32 9L33 10L32 9z"/>
<path style="fill:#df7275; stroke:none;" d="M100 9L101 10L100 9z"/>
<path style="fill:#e9a3a5; stroke:none;" d="M30 10L31 11L30 10z"/>
<path style="fill:#d94d52; stroke:none;" d="M101 10L102 11L101 10z"/>
<path style="fill:#e9a3a5; stroke:none;" d="M102 10L103 11L102 10z"/>
<path style="fill:#d94d52; stroke:none;" d="M29 11L30 12L29 11z"/>
<path style="fill:#df7275; stroke:none;" d="M103 11L104 12L103 11z"/>
<path style="fill:#e9a3a5; stroke:none;" d="M27 12L28 13L27 12z"/>
<path style="fill:#d94d52; stroke:none;" d="M104 12L105 13L104 12z"/>
<path style="fill:#e9a3a5; stroke:none;" d="M105 12L106 13L105 12z"/>
<path style="fill:#d94d52; stroke:none;" d="M26 13L27 14L26 13z"/>
<path style="fill:#df7275; stroke:none;" d="M106 13L107 14L106 13z"/>
<path style="fill:#d94d52; stroke:none;" d="M25 14L26 15L25 14z"/>
<path style="fill:#df7275; stroke:none;" d="M107 14L108 15L107 14z"/>
<path style="fill:#e9a3a5; stroke:none;" d="M23 15L24 16L23 15z"/>
<path style="fill:#d94d52; stroke:none;" d="M108 15L109 16L108 15z"/>
<path style="fill:#e9a3a5; stroke:none;" d="M22 16L23 17L22 16M110 16L111 17L110 16z"/>
<path style="fill:#df7275; stroke:none;" d="M21 17L22 18L21 17z"/>
<path style="fill:#e9a3a5; stroke:none;" d="M111 17L112 18L111 17z"/>
<path style="fill:#df7275; stroke:none;" d="M20 18L21 19L20 18z"/>
<path style="fill:#e9a3a5; stroke:none;" d="M112 18L113 19L112 18z"/>
<path style="fill:#df7275; stroke:none;" d="M19 19L20 20L19 19z"/>
<path style="fill:#e9a3a5; stroke:none;" d="M113 19L114 20L113 19z"/>
<path style="fill:#df7275; stroke:none;" d="M18 20L19 21L18 20z"/>
<path style="fill:#e9a3a5; stroke:none;" d="M114 20L115 21L114 20z"/>
<path style="fill:#df7275; stroke:none;" d="M17 21L18 22L17 21z"/>
<path style="fill:#e9a3a5; stroke:none;" d="M115 21L116 22L115 21M16 22L17 23L16 22z"/>
<path style="fill:#d94d52; stroke:none;" d="M61 22L62 23L61 22z"/>
<path style="fill:#df7275; stroke:none;" d="M62.6667 22.3333L63.3333 22.6667L62.6667 22.3333z"/>
<path style="fill:#e9a3a5; stroke:none;" d="M64 22L64 23L74 23L64 22z"/>
<path style="fill:#df7275; stroke:none;" d="M74 22L75 23L74 22z"/>
<path style="fill:#d94d52; stroke:none;" d="M75 22L76 23L75 22z"/>
<path style="fill:#e9a3a5; stroke:none;" d="M15 23L16 24L15 23z"/>
<path style="fill:#d94d52; stroke:none;" d="M55 23L56 24L55 23z"/>
<path style="fill:#df7275; stroke:none;" d="M56 23L57 24L56 23z"/>
<path style="fill:#e9a3a5; stroke:none;" d="M57 23L58 24L57 23z"/>
<path style="fill:#fffdfe; stroke:none;" d="M38 89C41.258 73.1561 28.0614 61.4492 41.213 46.0008C54.2815 30.6498 81.9121 27.6766 92.3156 48C97.9482 59.0034 94.5288 75.0781 88.034 84.9992C82.4784 93.4856 65.5894 100.022 63.2431 85C61.8334 75.9746 68.9728 67.1074 68.8164 58C68.742 53.6717 66.4022 49.6716 61.9954 48.6127C55.0646 46.9472 49.4362 53.8705 48.3295 60C47.1706 66.4183 49.7656 72.7247 48.7762 79C46.209 95.2829 40 110.337 40 127C20.4207 118.846 2.89229 98.7014 1 77L0 77L0 133L58 133L58 132L48 131L58 98C62.2577 100.897 65.7999 103.944 71 104.97C113.45 113.341 124.71 41.4685 88 26.4537C66.8118 17.7874 38.1266 23.8881 26.7955 45C19.9207 57.809 18.1647 86.791 38 89z"/>
<path style="fill:#e9a3a5; stroke:none;" d="M78.6667 23.3333L79.3333 23.6667L78.6667 23.3333z"/>
<path style="fill:#df7275; stroke:none;" d="M80 23L81 24L80 23z"/>
<path style="fill:#d94d52; stroke:none;" d="M81 23L82 24L81 23z"/>
<path style="fill:#df7275; stroke:none;" d="M52 24L53 25L52 24z"/>
<path style="fill:#e9a3a5; stroke:none;" d="M53 24L54 25L53 24M82 24L83 25L82 24z"/>
<path style="fill:#df7275; stroke:none;" d="M83 24L84 25L83 24z"/>
<path style="fill:#d94d52; stroke:none;" d="M84 24L85 25L84 24M117 24L118 25L117 24M14 25L15 26L14 25z"/>
<path style="fill:#df7275; stroke:none;" d="M49 25L50 26L49 25z"/>
<path style="fill:#e9a3a5; stroke:none;" d="M50 25L51 26L50 25M85 25L86 26L85 25z"/>
<path style="fill:#df7275; stroke:none;" d="M86 25L87 26L86 25M118 25L119 26L118 25z"/>
<path style="fill:#d94d52; stroke:none;" d="M13 26L14 27L13 26M46 26L47 27L46 26z"/>
<path style="fill:#e9a3a5; stroke:none;" d="M47 26L48 27L47 26M88 26L89 27L88 26z"/>
<path style="fill:#d94d52; stroke:none;" d="M89 26L90 27L89 26z"/>
<path style="fill:#e9a3a5; stroke:none;" d="M119 26L120 27L119 26M12 27L13 28L12 27z"/>
<path style="fill:#d94d52; stroke:none;" d="M44 27L45 28L44 27z"/>
<path style="fill:#e9a3a5; stroke:none;" d="M45 27L46 28L45 27M90 27L91 28L90 27M43 28L44 29L43 28z"/>
<path style="fill:#df7275; stroke:none;" d="M92 28L93 29L92 28z"/>
<path style="fill:#d94d52; stroke:none;" d="M120 28L121 29L120 28M11 29L12 30L11 29z"/>
<path style="fill:#df7275; stroke:none;" d="M41 29L42 30L41 29M121 29L122 30L121 29z"/>
<path style="fill:#e9a3a5; stroke:none;" d="M10 30L11 31L10 30z"/>
<path style="fill:#d94d52; stroke:none;" d="M39 30L40 31L39 30z"/>
<path style="fill:#df7275; stroke:none;" d="M95 30L96 31L95 30z"/>
<path style="fill:#e9a3a5; stroke:none;" d="M122 30L123 31L122 30z"/>
<path style="fill:#df7275; stroke:none;" d="M38 31L39 32L38 31z"/>
<path style="fill:#e9a3a5; stroke:none;" d="M96 31L97 32L96 31z"/>
<path style="fill:#d94d52; stroke:none;" d="M122 31L123 32L122 31M9 32L10 33L9 32z"/>
<path style="fill:#e9a3a5; stroke:none;" d="M37 32L38 33L37 32M97 32L98 33L97 32M123 32L124 33L123 32M8 33L9 34L8 33z"/>
<path style="fill:#d94d52; stroke:none;" d="M35 33L36 34L35 33z"/>
<path style="fill:#e9a3a5; stroke:none;" d="M65 33L65 34L70 34L65 33z"/>
<path style="fill:#d94d52; stroke:none;" d="M99 33L100 34L99 33M8 34L9 35L8 34M34 34L35 35L34 34z"/>
<path style="fill:#e9a3a5; stroke:none;" d="M58 34L59 35L58 34z"/>
<path style="fill:#df7275; stroke:none;" d="M59.6667 34.3333L60.3333 34.6667L59.6667 34.3333z"/>
<path style="fill:#d94d52; stroke:none;" d="M61 34L62 35L61 34M72.6667 34.3333L73.3333 34.6667L72.6667 34.3333z"/>
<path style="fill:#df7275; stroke:none;" d="M74 34L75 35L74 34z"/>
<path style="fill:#e9a3a5; stroke:none;" d="M75 34L76 35L75 34z"/>
<path style="fill:#d94d52; stroke:none;" d="M100 34L101 35L100 34z"/>
<path style="fill:#df7275; stroke:none;" d="M124 34L125 35L124 34z"/>
<path style="fill:#e9a3a5; stroke:none;" d="M7 35L8 36L7 35z"/>
<path style="fill:#d94d52; stroke:none;" d="M33 35L34 36L33 35z"/>
<path style="fill:#e9a3a5; stroke:none;" d="M55 35L56 36L55 35z"/>
<path style="fill:#d94d52; stroke:none;" d="M56 35L57 36L56 35M77 35L78 36L77 35z"/>
<path style="fill:#df7275; stroke:none;" d="M78 35L79 36L78 35z"/>
<path style="fill:#e9a3a5; stroke:none;" d="M79 35L80 36L79 35z"/>
<path style="fill:#d94d52; stroke:none;" d="M32 36L33 37L32 36z"/>
<path style="fill:#e9a3a5; stroke:none;" d="M52 36L53 37L52 36z"/>
<path style="fill:#d94d52; stroke:none;" d="M53 36L54 37L53 36M80 36L81 37L80 36z"/>
<path style="fill:#e9a3a5; stroke:none;" d="M81 36L82 37L81 36z"/>
<path style="fill:#df7275; stroke:none;" d="M125 36L126 37L125 36z"/>
<path style="fill:#e9a3a5; stroke:none;" d="M6 37L7 38L6 37z"/>
<path style="fill:#d94d52; stroke:none;" d="M31 37L32 38L31 37z"/>
<path style="fill:#e9a3a5; stroke:none;" d="M50 37L51 38L50 37z"/>
<path style="fill:#d94d52; stroke:none;" d="M51 37L52 38L51 37M82 37L83 38L82 37z"/>
<path style="fill:#e9a3a5; stroke:none;" d="M83 37L84 38L83 37M102 37L103 38L102 37z"/>
<path style="fill:#d94d52; stroke:none;" d="M6 38L7 39L6 38z"/>
<path style="fill:#df7275; stroke:none;" d="M49 38L50 39L49 38M84 38L85 39L84 38M103 38L104 39L103 38M126 38L127 39L126 38z"/>
<path style="fill:#e9a3a5; stroke:none;" d="M5 39L6 40L5 39M30 39L31 40L30 39M47 39L48 40L47 39z"/>
<path style="fill:#d94d52; stroke:none;" d="M85 39L86 40L85 39M104 39L105 40L104 39M5 40L6 41L5 40z"/>
<path style="fill:#e9a3a5; stroke:none;" d="M29 40L30 41L29 40z"/>
<path style="fill:#df7275; stroke:none;" d="M46 40L47 41L46 40z"/>
<path style="fill:#e9a3a5; stroke:none;" d="M127 40L128 41L127 40z"/>
<path style="fill:#d94d52; stroke:none;" d="M28 41L29 42L28 41M45 41L46 42L45 41z"/>
<path style="fill:#e9a3a5; stroke:none;" d="M105 41L106 42L105 41z"/>
<path style="fill:#d94d52; stroke:none;" d="M127 41L128 42L127 41z"/>
<path style="fill:#df7275; stroke:none;" d="M4 42L5 43L4 42z"/>
<path style="fill:#d94d52; stroke:none;" d="M44 42L45 43L44 42M106 42L107 43L106 42z"/>
<path style="fill:#e9a3a5; stroke:none;" d="M128 42L129 43L128 42z"/>
<path style="fill:#d94d52; stroke:none;" d="M4 43L5 44L4 43z"/>
<path style="fill:#e9a3a5; stroke:none;" d="M27 43L28 44L27 43z"/>
<path style="fill:#d94d52; stroke:none;" d="M43 43L44 44L43 43M89 43L90 44L89 43z"/>
<path style="fill:#e9a3a5; stroke:none;" d="M106 43L107 44L106 43z"/>
<path style="fill:#df7275; stroke:none;" d="M128 43L129 44L128 43z"/>
<path style="fill:#e9a3a5; stroke:none;" d="M3 44L4 45L3 44z"/>
<path style="fill:#d94d52; stroke:none;" d="M26 44L27 45L26 44M42 44L43 45L42 44z"/>
<path style="fill:#df7275; stroke:none;" d="M90 44L91 45L90 44z"/>
<path style="fill:#d94d52; stroke:none;" d="M107 44L108 45L107 44z"/>
<path style="fill:#df7275; stroke:none;" d="M3 45L4 46L3 45z"/>
<path style="fill:#e9a3a5; stroke:none;" d="M26 45L27 46L26 45z"/>
<path style="fill:#df7275; stroke:none;" d="M41 45L42 46L41 45z"/>
<path style="fill:#e9a3a5; stroke:none;" d="M107 45L108 46L107 45M129 45L130 46L129 45z"/>
<path style="fill:#d94d52; stroke:none;" d="M25 46L26 47L25 46z"/>
<path style="fill:#df7275; stroke:none;" d="M40 46L41 47L40 46z"/>
<path style="fill:#d94d52; stroke:none;" d="M91 46L92 47L91 46M108 46L109 47L108 46z"/>
<path style="fill:#df7275; stroke:none;" d="M129 46L130 47L129 46z"/>
<path style="fill:#e9a3a5; stroke:none;" d="M2 47L3 48L2 47M25 47L26 48L25 47M39 47L40 48L39 47M92 47L93 48L92 47z"/>
<path style="fill:#df7275; stroke:none;" d="M108 47L109 48L108 47M2 48L3 49L2 48z"/>
<path style="fill:#d94d52; stroke:none;" d="M24 48L25 49L24 48z"/>
<path style="fill:#df7275; stroke:none;" d="M56 48L57 49L56 48z"/>
<path style="fill:#e9a3a5; stroke:none;" d="M57 48L58 49L57 48M62 48L63 49L62 48z"/>
<path style="fill:#df7275; stroke:none;" d="M63 48L64 49L63 48M92 48L93 49L92 48z"/>
<path style="fill:#e9a3a5; stroke:none;" d="M130 48L131 49L130 48z"/>
<path style="fill:#d94d52; stroke:none;" d="M2 49L3 50L2 49z"/>
<path style="fill:#e9a3a5; stroke:none;" d="M24 49L25 50L24 49M38 49L39 50L38 49z"/>
<path style="fill:#d94d52; stroke:none;" d="M54 49L55 50L54 49z"/>
<path style="fill:#df7275; stroke:none;" d="M65 49L66 50L65 49M109 49L110 50L109 49M130 49L131 50L130 49z"/>
<path style="fill:#d94d52; stroke:none;" d="M23 50L24 51L23 50M38 50L39 51L38 50z"/>
<path style="fill:#e9a3a5; stroke:none;" d="M53 50L54 51L53 50z"/>
<path style="fill:#df7275; stroke:none;" d="M66 50L67 51L66 50z"/>
<path style="fill:#e9a3a5; stroke:none;" d="M93 50L94 51L93 50M109 50L110 51L109 50z"/>
<path style="fill:#d94d52; stroke:none;" d="M130 50L131 51L130 50z"/>
<path style="fill:#e9a3a5; stroke:none;" d="M1 51L2 52L1 51z"/>
<path style="fill:#df7275; stroke:none;" d="M23 51L24 52L23 51z"/>
<path style="fill:#e9a3a5; stroke:none;" d="M37 51L38 52L37 51M52 51L53 52L52 51z"/>
<path style="fill:#d94d52; stroke:none;" d="M67 51L68 52L67 51M93 51L94 52L93 51z"/>
<path style="fill:#df7275; stroke:none;" d="M1.33333 52.6667L1.66667 53.3333L1.33333 52.6667z"/>
<path style="fill:#e9a3a5; stroke:none;" d="M23 52L24 53L23 52z"/>
<path style="fill:#d94d52; stroke:none;" d="M37 52L38 53L37 52z"/>
<path style="fill:#e9a3a5; stroke:none;" d="M51 52L52 53L51 52M131.333 52.6667L131.667 53.3333L131.333 52.6667M36 53L37 54L36 53z"/>
<path style="fill:#df7275; stroke:none;" d="M50 53L51 54L50 53z"/>
<path style="fill:#d94d52; stroke:none;" d="M68 53L69 54L68 53M110 53L111 54L110 53M1 54L2 55L1 54M22 54L23 55L22 54z"/>
<path style="fill:#df7275; stroke:none;" d="M36 54L37 55L36 54z"/>
<path style="fill:#e9a3a5; stroke:none;" d="M68 54L69 55L68 54M94.3333 54.6667L94.6667 55.3333L94.3333 54.6667z"/>
<path style="fill:#df7275; stroke:none;" d="M110 54L111 55L110 54M131 54L132 55L131 54z"/>
<path style="fill:#e9a3a5; stroke:none;" d="M22.3333 55.6667L22.6667 56.3333L22.3333 55.6667M49 55L50 56L49 55M110.333 55.6667L110.667 56.3333L110.333 55.6667z"/>
<path style="fill:#d94d52; stroke:none;" d="M131.333 55.6667L131.667 56.3333L131.333 55.6667z"/>
<path style="fill:#e9a3a5; stroke:none;" d="M0 56L0 59L1 59L0 56M35 56L36 57L35 56z"/>
<path style="fill:#df7275; stroke:none;" d="M94 56L94 64L95 64L94 56M35 57L36 58L35 57M48 57L49 58L48 57z"/>
<path style="fill:#d94d52; stroke:none;" d="M21 58L22 59L21 58M35 58L36 59L35 58z"/>
<path style="fill:#e9a3a5; stroke:none;" d="M48 58L49 59L48 58M132 58L132 62L133 62L132 58z"/>
<path style="fill:#df7275; stroke:none;" d="M0.333333 59.6667L0.666667 60.3333L0.333333 59.6667M21 59L21 62L22 62L21 59z"/>
<path style="fill:#e9a3a5; stroke:none;" d="M34 60L34 64L35 64L34 60z"/>
<path style="fill:#d94d52; stroke:none;" d="M47 60L48 61L47 60M0.333333 61.6667L0.666667 62.3333L0.333333 61.6667z"/>
<path style="fill:#df7275; stroke:none;" d="M47 61L48 62L47 61z"/>
<path style="fill:#e9a3a5; stroke:none;" d="M68.3333 61.6667L68.6667 62.3333L68.3333 61.6667M21 62L21 65L22 65L21 62M47 62L47 69L48 69L47 62z"/>
<path style="fill:#df7275; stroke:none;" d="M132 62L132 70L133 70L132 62M68 63L69 64L68 63M34.3333 64.6667L34.6667 65.3333L34.3333 64.6667z"/>
<path style="fill:#e9a3a5; stroke:none;" d="M94 64L94 67L95 67L94 64z"/>
<path style="fill:#df7275; stroke:none;" d="M21 65L21 69L22 69L21 65z"/>
<path style="fill:#e9a3a5; stroke:none;" d="M110 65L110 68L111 68L110 65M34 66L34 70L35 70L34 66M67 66L68 67L67 66z"/>
<path style="fill:#df7275; stroke:none;" d="M67 67L68 68L67 67M110.333 68.6667L110.667 69.3333L110.333 68.6667z"/>
<path style="fill:#d94d52; stroke:none;" d="M21.3333 69.6667L21.6667 70.3333L21.3333 69.6667z"/>
<path style="fill:#df7275; stroke:none;" d="M47 69L48 70L47 69z"/>
<path style="fill:#e9a3a5; stroke:none;" d="M66 69L67 70L66 69z"/>
<path style="fill:#d94d52; stroke:none;" d="M0.333333 70.6667L0.666667 71.3333L0.333333 70.6667M47 70L48 71L47 70z"/>
<path style="fill:#df7275; stroke:none;" d="M66 70L67 71L66 70M93 70L94 71L93 70z"/>
<path style="fill:#e9a3a5; stroke:none;" d="M132 70L132 75L133 75L132 70M22.3333 71.6667L22.6667 72.3333L22.3333 71.6667z"/>
<path style="fill:#d94d52; stroke:none;" d="M35 71L36 72L35 71M66 71L67 72L66 71z"/>
<path style="fill:#e9a3a5; stroke:none;" d="M93.3333 71.6667L93.6667 72.3333L93.3333 71.6667z"/>
<path style="fill:#df7275; stroke:none;" d="M0.333333 72.6667L0.666667 73.3333L0.333333 72.6667M35 72L36 73L35 72z"/>
<path style="fill:#e9a3a5; stroke:none;" d="M48 72L49 73L48 72M65.3333 72.6667L65.6667 73.3333L65.3333 72.6667z"/>
<path style="fill:#df7275; stroke:none;" d="M22 73L23 74L22 73M48 73L49 74L48 73z"/>
<path style="fill:#d94d52; stroke:none;" d="M92 73L93 74L92 73z"/>
<path style="fill:#e9a3a5; stroke:none;" d="M109 73L110 74L109 73M0 74L0 77L1 77L0 74z"/>
<path style="fill:#d94d52; stroke:none;" d="M36 74L37 75L36 74M48 74L49 75L48 74M65 74L66 75L65 74z"/>
<path style="fill:#df7275; stroke:none;" d="M92 74L93 75L92 74M109 74L110 75L109 74z"/>
<path style="fill:#e9a3a5; stroke:none;" d="M23 75L24 76L23 75M36 75L37 76L36 75M49.3333 75.6667L49.6667 76.3333L49.3333 75.6667M92 75L93 76L92 75z"/>
<path style="fill:#d94d52; stroke:none;" d="M109 75L110 76L109 75z"/>
<path style="fill:#fffdfe; stroke:none;" d="M132 75C129.683 103.372 103.372 129.683 75 132L75 133L133 133L133 94L132 75z"/>
<path style="fill:#df7275; stroke:none;" d="M23 76L24 77L23 76M37 76L38 77L37 76z"/>
<path style="fill:#e9a3a5; stroke:none;" d="M64 76L65 77L64 76z"/>
<path style="fill:#d94d52; stroke:none;" d="M131.333 76.6667L131.667 77.3333L131.333 76.6667M23 77L24 78L23 77z"/>
<path style="fill:#df7275; stroke:none;" d="M64 77L65 78L64 77z"/>
<path style="fill:#d94d52; stroke:none;" d="M91 77L92 78L91 77z"/>
<path style="fill:#e9a3a5; stroke:none;" d="M108 77L109 78L108 77z"/>
<path style="fill:#d94d52; stroke:none;" d="M1 78L2 79L1 78z"/>
<path style="fill:#e9a3a5; stroke:none;" d="M24 78L25 79L24 78z"/>
<path style="fill:#df7275; stroke:none;" d="M48.3333 78.6667L48.6667 79.3333L48.3333 78.6667z"/>
<path style="fill:#e9a3a5; stroke:none;" d="M91 78L92 79L91 78z"/>
<path style="fill:#d94d52; stroke:none;" d="M108 78L109 79L108 78z"/>
<path style="fill:#df7275; stroke:none;" d="M131 78L132 79L131 78M1 79L2 80L1 79z"/>
<path style="fill:#d94d52; stroke:none;" d="M24 79L25 80L24 79z"/>
<path style="fill:#e9a3a5; stroke:none;" d="M39 79L40 80L39 79M63.3333 79.6667L63.6667 80.3333L63.3333 79.6667M131 79L132 80L131 79M1.33333 80.6667L1.66667 81.3333L1.33333 80.6667M25 80L26 81L25 80M48 80L49 81L48 80z"/>
<path style="fill:#df7275; stroke:none;" d="M90 80L91 81L90 80z"/>
<path style="fill:#e9a3a5; stroke:none;" d="M107 80L108 81L107 80z"/>
<path style="fill:#d94d52; stroke:none;" d="M63.3333 81.6667L63.6667 82.3333L63.3333 81.6667M107 81L108 82L107 81z"/>
<path style="fill:#df7275; stroke:none;" d="M26 82L27 83L26 82z"/>
<path style="fill:#e9a3a5; stroke:none;" d="M39 82L40 83L39 82z"/>
<path style="fill:#d94d52; stroke:none;" d="M47 82L48 83L47 82z"/>
<path style="fill:#df7275; stroke:none;" d="M89 82L90 83L89 82M130 82L131 83L130 82M2 83L3 84L2 83z"/>
<path style="fill:#e9a3a5; stroke:none;" d="M27 83L28 84L27 83z"/>
<path style="fill:#df7275; stroke:none;" d="M39 83L40 84L39 83M47 83L48 84L47 83z"/>
<path style="fill:#e9a3a5; stroke:none;" d="M106 83L107 84L106 83M130 83L131 84L130 83M2 84L3 85L2 84M28 84L29 85L28 84M47 84L48 85L47 84z"/>
<path style="fill:#df7275; stroke:none;" d="M88 84L89 85L88 84z"/>
<path style="fill:#d94d52; stroke:none;" d="M106 84L107 85L106 84z"/>
<path style="fill:#e9a3a5; stroke:none;" d="M29 85L30 86L29 85z"/>
<path style="fill:#d94d52; stroke:none;" d="M63.3333 85.6667L63.6667 86.3333L63.3333 85.6667M87 85L88 86L87 85z"/>
<path style="fill:#e9a3a5; stroke:none;" d="M105 85L106 86L105 85z"/>
<path style="fill:#d94d52; stroke:none;" d="M3 86L4 87L3 86z"/>
<path style="fill:#e9a3a5; stroke:none;" d="M30 86L31 87L30 86M38 86L39 87L38 86z"/>
<path style="fill:#d94d52; stroke:none;" d="M46 86L47 87L46 86z"/>
<path style="fill:#e9a3a5; stroke:none;" d="M87 86L88 87L87 86z"/>
<path style="fill:#d94d52; stroke:none;" d="M105 86L106 87L105 86z"/>
<path style="fill:#df7275; stroke:none;" d="M129 86L130 87L129 86M3 87L4 88L3 87z"/>
<path style="fill:#d94d52; stroke:none;" d="M31 87L32 88L31 87z"/>
<path style="fill:#df7275; stroke:none;" d="M38 87L39 88L38 87M46 87L47 88L46 87M63 87L64 88L63 87z"/>
<path style="fill:#e9a3a5; stroke:none;" d="M86 87L87 88L86 87M104 87L105 88L104 87M129 87L130 88L129 87M3 88L4 89L3 88z"/>
<path style="fill:#df7275; stroke:none;" d="M33 88L34 89L33 88z"/>
<path style="fill:#e9a3a5; stroke:none;" d="M46 88L47 89L46 88z"/>
<path style="fill:#df7275; stroke:none;" d="M85 88L86 89L85 88z"/>
<path style="fill:#d94d52; stroke:none;" d="M128 88L129 89L128 88M4 89L5 90L4 89z"/>
<path style="fill:#df7275; stroke:none;" d="M35.6667 89.3333L36.3333 89.6667L35.6667 89.3333M64 89L65 90L64 89M84 89L85 90L84 89M103 89L104 90L103 89M128 89L129 90L128 89z"/>
<path style="fill:#e9a3a5; stroke:none;" d="M4 90L5 91L4 90z"/>
<path style="fill:#d94d52; stroke:none;" d="M65 90L66 91L65 90z"/>
<path style="fill:#df7275; stroke:none;" d="M83 90L84 91L83 90z"/>
<path style="fill:#e9a3a5; stroke:none;" d="M102 90L103 91L102 90M128 90L129 91L128 90z"/>
<path style="fill:#df7275; stroke:none;" d="M45 91L46 92L45 91z"/>
<path style="fill:#d94d52; stroke:none;" d="M66 91L67 92L66 91z"/>
<path style="fill:#e9a3a5; stroke:none;" d="M82 91L83 92L82 91z"/>
<path style="fill:#d94d52; stroke:none;" d="M102 91L103 92L102 91M127 91L128 92L127 91z"/>
<path style="fill:#df7275; stroke:none;" d="M5 92L6 93L5 92z"/>
<path style="fill:#e9a3a5; stroke:none;" d="M45.3333 92.6667L45.6667 93.3333L45.3333 92.6667z"/>
<path style="fill:#df7275; stroke:none;" d="M67 92L68 93L67 92M80 92L81 93L80 92z"/>
<path style="fill:#d94d52; stroke:none;" d="M101 92L102 93L101 92z"/>
<path style="fill:#e9a3a5; stroke:none;" d="M127 92L128 93L127 92M5 93L6 94L5 93M68 93L69 94L68 93z"/>
<path style="fill:#df7275; stroke:none;" d="M69 93L70 94L69 93z"/>
<path style="fill:#e9a3a5; stroke:none;" d="M78 93L79 94L78 93M100 93L101 94L100 93z"/>
<path style="fill:#df7275; stroke:none;" d="M6 94L7 95L6 94z"/>
<path style="fill:#e9a3a5; stroke:none;" d="M72 94L72 95L76 95L72 94M99 94L100 95L99 94M126 94L127 95L126 94M6 95L7 96L6 95z"/>
<path style="fill:#d94d52; stroke:none;" d="M44 95L45 96L44 95z"/>
<path style="fill:#e9a3a5; stroke:none;" d="M98 95L99 96L98 95z"/>
<path style="fill:#d94d52; stroke:none;" d="M7 96L8 97L7 96z"/>
<path style="fill:#df7275; stroke:none;" d="M44 96L45 97L44 96z"/>
<path style="fill:#e9a3a5; stroke:none;" d="M97 96L98 97L97 96z"/>
<path style="fill:#df7275; stroke:none;" d="M125 96L126 97L125 96z"/>
<path style="fill:#e9a3a5; stroke:none;" d="M7 97L8 98L7 97M44 97L45 98L44 97M96 97L97 98L96 97z"/>
<path style="fill:#d94d52; stroke:none;" d="M124 97L125 98L124 97z"/>
<path style="fill:#df7275; stroke:none;" d="M8 98L9 99L8 98z"/>
<path style="fill:#e9a3a5; stroke:none;" d="M58.6667 98.3333L59.3333 98.6667L58.6667 98.3333M95 98L96 99L95 98M124 98L125 99L124 98z"/>
<path style="fill:#d94d52; stroke:none;" d="M43 99L44 100L43 99z"/>
<path style="fill:#df7275; stroke:none;" d="M58 99L59 100L58 99z"/>
<path style="fill:#e9a3a5; stroke:none;" d="M60 99L61 100L60 99z"/>
<path style="fill:#df7275; stroke:none;" d="M94 99L95 100L94 99z"/>
<path style="fill:#d94d52; stroke:none;" d="M123 99L124 100L123 99z"/>
<path style="fill:#df7275; stroke:none;" d="M9 100L10 101L9 100M43 100L44 101L43 100z"/>
<path style="fill:#d94d52; stroke:none;" d="M58 100L59 101L58 100z"/>
<path style="fill:#e9a3a5; stroke:none;" d="M61 100L62 101L61 100M92 100L93 101L92 100z"/>
<path style="fill:#d94d52; stroke:none;" d="M93 100L94 101L93 100z"/>
<path style="fill:#e9a3a5; stroke:none;" d="M123 100L124 101L123 100z"/>
<path style="fill:#d94d52; stroke:none;" d="M10 101L11 102L10 101z"/>
<path style="fill:#e9a3a5; stroke:none;" d="M43 101L44 102L43 101M62 101L63 102L62 101z"/>
<path style="fill:#df7275; stroke:none;" d="M91 101L92 102L91 101M122 101L123 102L122 101z"/>
<path style="fill:#e9a3a5; stroke:none;" d="M10 102L11 103L10 102M57 102L58 103L57 102z"/>
<path style="fill:#df7275; stroke:none;" d="M63 102L64 103L63 102z"/>
<path style="fill:#e9a3a5; stroke:none;" d="M89 102L90 103L89 102z"/>
<path style="fill:#d94d52; stroke:none;" d="M90 102L91 103L90 102z"/>
<path style="fill:#df7275; stroke:none;" d="M11 103L12 104L11 103z"/>
<path style="fill:#d94d52; stroke:none;" d="M42 103L43 104L42 103z"/>
<path style="fill:#df7275; stroke:none;" d="M57 103L58 104L57 103z"/>
<path style="fill:#e9a3a5; stroke:none;" d="M65 103L66 104L65 103z"/>
<path style="fill:#df7275; stroke:none;" d="M87 103L88 104L87 103z"/>
<path style="fill:#e9a3a5; stroke:none;" d="M121 103L122 104L121 103z"/>
<path style="fill:#d94d52; stroke:none;" d="M12 104L13 105L12 104z"/>
<path style="fill:#df7275; stroke:none;" d="M42 104L43 105L42 104z"/>
<path style="fill:#d94d52; stroke:none;" d="M57 104L58 105L57 104z"/>
<path style="fill:#df7275; stroke:none;" d="M67 104L68 105L67 104z"/>
<path style="fill:#e9a3a5; stroke:none;" d="M68 104L69 105L68 104M83 104L84 105L83 104z"/>
<path style="fill:#df7275; stroke:none;" d="M84 104L85 105L84 104z"/>
<path style="fill:#d94d52; stroke:none;" d="M85 104L86 105L85 104z"/>
<path style="fill:#df7275; stroke:none;" d="M120 104L121 105L120 104z"/>
<path style="fill:#e9a3a5; stroke:none;" d="M12 105L13 106L12 105M42 105L43 106L42 105z"/>
<path style="fill:#d94d52; stroke:none;" d="M69 105L70 106L69 105z"/>
<path style="fill:#df7275; stroke:none;" d="M70 105L71 106L70 105z"/>
<path style="fill:#e9a3a5; stroke:none;" d="M71 105L71 106L74 106L71 105M76 105L76 106L80 106L76 105z"/>
<path style="fill:#df7275; stroke:none;" d="M80 105L81 106L80 105z"/>
<path style="fill:#d94d52; stroke:none;" d="M81.6667 105.333L82.3333 105.667L81.6667 105.333z"/>
<path style="fill:#df7275; stroke:none;" d="M13 106L14 107L13 106z"/>
<path style="fill:#e9a3a5; stroke:none;" d="M56 106L57 107L56 106M119 106L120 107L119 106z"/>
<path style="fill:#df7275; stroke:none;" d="M14 107L15 108L14 107M56 107L57 108L56 107z"/>
<path style="fill:#e9a3a5; stroke:none;" d="M118 107L119 108L118 107z"/>
<path style="fill:#d94d52; stroke:none;" d="M15 108L16 109L15 108z"/>
<path style="fill:#df7275; stroke:none;" d="M41 108L42 109L41 108z"/>
<path style="fill:#d94d52; stroke:none;" d="M56 108L57 109L56 108z"/>
<path style="fill:#df7275; stroke:none;" d="M117 108L118 109L117 108z"/>
<path style="fill:#e9a3a5; stroke:none;" d="M41.3333 109.667L41.6667 110.333L41.3333 109.667z"/>
<path style="fill:#d94d52; stroke:none;" d="M116 109L117 110L116 109z"/>
<path style="fill:#e9a3a5; stroke:none;" d="M55 110L56 111L55 110z"/>
<path style="fill:#d94d52; stroke:none;" d="M115 110L116 111L115 110z"/>
<path style="fill:#e9a3a5; stroke:none;" d="M17 111L18 112L17 111z"/>
<path style="fill:#d94d52; stroke:none;" d="M40.3333 111.667L40.6667 112.333L40.3333 111.667z"/>
<path style="fill:#df7275; stroke:none;" d="M55 111L56 112L55 111z"/>
<path style="fill:#d94d52; stroke:none;" d="M114 111L115 112L114 111z"/>
<path style="fill:#e9a3a5; stroke:none;" d="M18 112L19 113L18 112M19 113L20 114L19 113z"/>
<path style="fill:#df7275; stroke:none;" d="M40 113L41 114L40 113z"/>
<path style="fill:#e9a3a5; stroke:none;" d="M20 114L21 115L20 114M40 114L41 115L40 114M54 114L55 115L54 114z"/>
<path style="fill:#d94d52; stroke:none;" d="M111 114L112 115L111 114z"/>
<path style="fill:#e9a3a5; stroke:none;" d="M21 115L22 116L21 115z"/>
<path style="fill:#df7275; stroke:none;" d="M54 115L55 116L54 115z"/>
<path style="fill:#d94d52; stroke:none;" d="M110 115L111 116L110 115M54 116L55 117L54 116M109 116L110 117L109 116M24 117L25 118L24 117M39.3333 117.667L39.6667 118.333L39.3333 117.667z"/>
<path style="fill:#e9a3a5; stroke:none;" d="M53 117L54 118L53 117z"/>
<path style="fill:#df7275; stroke:none;" d="M108 117L109 118L108 117M25 118L26 119L25 118M53 118L54 119L53 118z"/>
<path style="fill:#e9a3a5; stroke:none;" d="M107 118L108 119L107 118M26 119L27 120L26 119z"/>
<path style="fill:#df7275; stroke:none;" d="M39 119L38 127L39 119z"/>
<path style="fill:#e9a3a5; stroke:none;" d="M106 119L107 120L106 119z"/>
<path style="fill:#d94d52; stroke:none;" d="M28 120L29 121L28 120z"/>
<path style="fill:#e9a3a5; stroke:none;" d="M52 120L53 121L52 120z"/>
<path style="fill:#df7275; stroke:none;" d="M104 120L105 121L104 120M29 121L30 122L29 121z"/>
<path style="fill:#d94d52; stroke:none;" d="M52 121L53 122L52 121z"/>
<path style="fill:#e9a3a5; stroke:none;" d="M103 121L104 122L103 121M30 122L31 123L30 122z"/>
<path style="fill:#d94d52; stroke:none;" d="M31 122L32 123L31 122z"/>
<path style="fill:#e9a3a5; stroke:none;" d="M51 122L52 123L51 122z"/>
<path style="fill:#df7275; stroke:none;" d="M101 122L102 123L101 122z"/>
<path style="fill:#e9a3a5; stroke:none;" d="M32 123L33 124L32 123z"/>
<path style="fill:#d94d52; stroke:none;" d="M51 123L52 124L51 123M99 123L100 124L99 123z"/>
<path style="fill:#e9a3a5; stroke:none;" d="M100 123L101 124L100 123z"/>
<path style="fill:#df7275; stroke:none;" d="M34 124L35 125L34 124z"/>
<path style="fill:#e9a3a5; stroke:none;" d="M50 124L51 125L50 124z"/>
<path style="fill:#d94d52; stroke:none;" d="M97 124L98 125L97 124z"/>
<path style="fill:#e9a3a5; stroke:none;" d="M98 124L99 125L98 124z"/>
<path style="fill:#df7275; stroke:none;" d="M36 125L37 126L36 125M50 125L51 126L50 125M96 125L97 126L96 125z"/>
<path style="fill:#e9a3a5; stroke:none;" d="M49 126L50 127L49 126M94 126L95 127L94 126z"/>
<path style="fill:#d94d52; stroke:none;" d="M49 127L50 128L49 127M91 127L92 128L91 127z"/>
<path style="fill:#e9a3a5; stroke:none;" d="M92 127L93 128L92 127M48 128L49 129L48 128z"/>
<path style="fill:#d94d52; stroke:none;" d="M88 128L89 129L88 128z"/>
<path style="fill:#df7275; stroke:none;" d="M89 128L90 129L89 128z"/>
<path style="fill:#e9a3a5; stroke:none;" d="M90 128L91 129L90 128z"/>
<path style="fill:#df7275; stroke:none;" d="M86 129L87 130L86 129z"/>
<path style="fill:#e9a3a5; stroke:none;" d="M87 129L88 130L87 129M48 130L49 131L48 130z"/>
<path style="fill:#df7275; stroke:none;" d="M49 130L50 131L49 130z"/>
<path style="fill:#d94d52; stroke:none;" d="M50 130L51 131L50 130z"/>
<path style="fill:#df7275; stroke:none;" d="M82 130L83 131L82 130z"/>
<path style="fill:#e9a3a5; stroke:none;" d="M83 130L84 131L83 130M52.6667 131.333L53.3333 131.667L52.6667 131.333z"/>
<path style="fill:#df7275; stroke:none;" d="M54 131L55 132L54 131z"/>
<path style="fill:#d94d52; stroke:none;" d="M55.6667 131.333L56.3333 131.667L55.6667 131.333M76.6667 131.333L77.3333 131.667L76.6667 131.333z"/>
<path style="fill:#df7275; stroke:none;" d="M78 131L79 132L78 131z"/>
<path style="fill:#e9a3a5; stroke:none;" d="M79 131L80 132L79 131M58 132L58 133L62 133L58 132z"/>
<path style="fill:#df7275; stroke:none;" d="M62 132L62 133L70 133L62 132z"/>
<path style="fill:#e9a3a5; stroke:none;" d="M70 132L70 133L75 133L70 132z"/>
</svg>
