<svg xmlns="http://www.w3.org/2000/svg" width="250" height="250" fill="none"><g clip-path="url(#a)"><path fill="#231F1F" d="M141.953 18.2c-23.916 0-37.747 10.665-44.419 18.033-.792-6.35-5.007-14.586-21.449-14.586H40.38v37.15h14.633c2.476 0 3.273.785 3.273 3.241v169.626h42.564V168c0-1.719-.035-3.325-.079-4.762 6.649 6.07 19.346 14.425 39.179 14.425 41.602 0 70.687-32.778 70.687-79.725 0-47.69-27.616-79.739-68.683-79.739Zm-8.647 122.614c-22.914 0-33.324-21.808-33.324-42.012 0-31.824 17.509-43.167 33.893-43.167 20.092 0 33.605 17.22 33.605 42.87 0 29.249-17.179 42.309-34.172 42.309"/><path fill="#3B3B3C" d="M141.953 18.2c-23.916 0-37.752 10.665-44.419 18.031-.797-6.347-5.007-14.585-21.449-14.585H40.38v37.15h14.633c2.476 0 3.273.786 3.273 3.24v94.527a1800.23 1800.23 0 0 1 60.024-19.553c-12.506-7.114-18.327-23.101-18.327-38.212 0-31.817 17.509-43.163 33.893-43.163 20.092 0 33.605 17.22 33.605 42.87 0 10.771-2.353 19.316-6.151 25.846a2043.188 2043.188 0 0 1 48.385-12.993c.53-4.332.922-8.794.922-13.42 0-47.69-27.616-79.739-68.683-79.739Z"/></g><defs><clipPath id="a"><path fill="#fff" d="M40 18h171v214H40z"/></clipPath></defs></svg>