<svg xmlns="http://www.w3.org/2000/svg" width="250" height="250" fill="none"><g clip-path="url(#a)"><path fill="#231F1F" d="M141.182 23.19c-22.796 0-35.981 10.167-42.34 17.191-.756-6.053-4.773-13.905-20.446-13.905H44.36V61.89h13.95c2.359 0 3.119.749 3.119 3.09v161.7h40.573v-60.689c0-1.639-.034-3.17-.076-4.54 6.338 5.786 18.441 13.751 37.346 13.751 39.656 0 67.38-31.246 67.38-76 0-45.462-26.324-76.012-65.47-76.012Zm-8.243 116.885c-21.841 0-31.764-20.789-31.764-40.049 0-30.337 16.69-41.15 32.307-41.15 19.152 0 32.033 16.415 32.033 40.866 0 27.883-16.375 40.333-32.573 40.333"/><path fill="#3B3B3C" d="M141.182 23.19c-22.796 0-35.985 10.167-42.34 17.189-.76-6.05-4.773-13.903-20.446-13.903H44.36V61.89h13.95c2.359 0 3.119.749 3.119 3.088v90.11a1713.844 1713.844 0 0 1 57.216-18.639c-11.921-6.782-17.47-22.022-17.47-36.427 0-30.33 16.69-41.145 32.307-41.145 19.152 0 32.033 16.414 32.033 40.865 0 10.269-2.243 18.414-5.863 24.639a1951.33 1951.33 0 0 1 46.121-12.386c.505-4.13.879-8.383.879-12.793 0-45.462-26.324-76.012-65.47-76.012Z"/></g><defs><clipPath id="a"><path fill="#fff" d="M44 23h163v204H44z"/></clipPath></defs></svg>