<?xml version="1.0" standalone="yes"?>
<svg xmlns="http://www.w3.org/2000/svg" width="275" height="183">
<path style="fill:#ffffff; stroke:none;" d="M0 0L0 183L275 183L275 0L198 0L198 1C212.109 3.08366 224.722 14.1425 228.51 28C232.214 41.5502 231 56.1112 231 70C231 105.871 244.464 176.68 193 181.829C162.959 184.835 131.203 182 101 182C83.4878 182 67.1106 180.398 55.9282 165C46.3137 151.761 48 135.424 48 120L48 64C48 53.1772 46.7622 41.563 49.4784 31C53.3544 15.9263 65.3154 3.31635 81 1L56 0L0 0z"/>
<path style="fill:#adadaf; stroke:none;" d="M81 0L81 1L84 1L81 0z"/>
<path style="fill:#707173; stroke:none;" d="M84.6667 0.333328L85.3333 0.666672L84.6667 0.333328z"/>
<path style="fill:#434649; stroke:none;" d="M86.6667 0.333328L87.3333 0.666672L86.6667 0.333328z"/>
<path style="fill:#26282c; stroke:none;" d="M88 0.424377C34.8329 7.49077 49 73.738 49 113C49 130.571 45.9411 152.116 57.5293 166.996C67.0174 179.179 81.7076 181 96 181C128.511 181 164.91 185.614 197 180.561C213.652 177.939 225.182 166.064 229.24 150C231.585 140.716 230 129.536 230 120L230 62C230 46.1954 232.007 29.6181 222.211 16.0008C214.279 4.9736 202.153 1.71635 189.424 0.320984C171.973 -1.59206 153.554 0 136 0C120.304 0 103.562 -1.64392 88 0.424377z"/>
<path style="fill:#434649; stroke:none;" d="M189 0L190 1L189 0M191.667 0.333328L192.333 0.666672L191.667 0.333328z"/>
<path style="fill:#707173; stroke:none;" d="M193.667 0.333328L194.333 0.666672L193.667 0.333328z"/>
<path style="fill:#adadaf; stroke:none;" d="M195 0L195 1L198 1L195 0M77 1L78 2L77 1z"/>
<path style="fill:#707173; stroke:none;" d="M78 1L79 2L78 1z"/>
<path style="fill:#434649; stroke:none;" d="M79 1L80 2L79 1M199 1L200 2L199 1z"/>
<path style="fill:#707173; stroke:none;" d="M200 1L201 2L200 1z"/>
<path style="fill:#adadaf; stroke:none;" d="M201 1L202 2L201 1M74 2L75 3L74 2z"/>
<path style="fill:#707173; stroke:none;" d="M75 2L76 3L75 2z"/>
<path style="fill:#434649; stroke:none;" d="M76 2L77 3L76 2z"/>
<path style="fill:#707173; stroke:none;" d="M203 2L204 3L203 2z"/>
<path style="fill:#adadaf; stroke:none;" d="M204 2L205 3L204 2M71.6667 3.33333L72.3333 3.66667L71.6667 3.33333z"/>
<path style="fill:#434649; stroke:none;" d="M73 3L74 4L73 3M205 3L206 4L205 3z"/>
<path style="fill:#adadaf; stroke:none;" d="M206.667 3.33333L207.333 3.66667L206.667 3.33333M69 4L70 5L69 4z"/>
<path style="fill:#707173; stroke:none;" d="M70 4L71 5L70 4M208 4L209 5L208 4z"/>
<path style="fill:#adadaf; stroke:none;" d="M209 4L210 5L209 4M67 5L66 7L67 5z"/>
<path style="fill:#707173; stroke:none;" d="M68 5L69 6L68 5z"/>
<path style="fill:#adadaf; stroke:none;" d="M210 5L210 6L213 7L210 5z"/>
<path style="fill:#434649; stroke:none;" d="M67 6L68 7L67 6M211 6L212 7L211 6z"/>
<path style="fill:#adadaf; stroke:none;" d="M64 7L63 9L64 7z"/>
<path style="fill:#707173; stroke:none;" d="M65 7L66 8L65 7M213 7L214 8L213 7z"/>
<path style="fill:#adadaf; stroke:none;" d="M214 7L216 9L214 7z"/>
<path style="fill:#434649; stroke:none;" d="M64 8L65 9L64 8M214 8L215 9L214 8z"/>
<path style="fill:#adadaf; stroke:none;" d="M62 9L63 10L62 9z"/>
<path style="fill:#707173; stroke:none;" d="M216 9L217 10L216 9M61 10L62 11L61 10M217 10L218 11L217 10M60 11L61 12L60 11z"/>
<path style="fill:#434649; stroke:none;" d="M218 11L219 12L218 11z"/>
<path style="fill:#adadaf; stroke:none;" d="M59 12L60 13L59 12z"/>
<path style="fill:#707173; stroke:none;" d="M219 12L220 13L219 12M58 13L59 14L58 13M220 13L221 14L220 13z"/>
<path style="fill:#adadaf; stroke:none;" d="M57 14L58 15L57 14M221 14L222 15L221 14M56 15L57 16L56 15M222 15L223 16L222 15z"/>
<path style="fill:#434649; stroke:none;" d="M222 16L223 17L222 16z"/>
<path style="fill:#707173; stroke:none;" d="M55 17L56 18L55 17M223 17L224 18L223 17z"/>
<path style="fill:#adadaf; stroke:none;" d="M54 18L55 19L54 18M224 18L225 19L224 18z"/>
<path style="fill:#434649; stroke:none;" d="M54 19L55 20L54 19z"/>
<path style="fill:#707173; stroke:none;" d="M224 19L225 20L224 19z"/>
<path style="fill:#adadaf; stroke:none;" d="M53 20L54 21L53 20M225 20L226 21L225 20z"/>
<path style="fill:#434649; stroke:none;" d="M53 21L54 22L53 21M225 21L226 22L225 21z"/>
<path style="fill:#707173; stroke:none;" d="M52.3333 22.6667L52.6667 23.3333L52.3333 22.6667z"/>
<path style="fill:#adadaf; stroke:none;" d="M226 22L227 23L226 22z"/>
<path style="fill:#707173; stroke:none;" d="M226 23L227 24L226 23z"/>
<path style="fill:#adadaf; stroke:none;" d="M51 24L52 25L51 24z"/>
<path style="fill:#434649; stroke:none;" d="M52 24L53 25L52 24z"/>
<path style="fill:#adadaf; stroke:none;" d="M227.333 24.6667L227.667 25.3333L227.333 24.6667z"/>
<path style="fill:#707173; stroke:none;" d="M51.3333 25.6667L51.6667 26.3333L51.3333 25.6667z"/>
<path style="fill:#434649; stroke:none;" d="M227 26L228 27L227 26z"/>
<path style="fill:#adadaf; stroke:none;" d="M50.3333 27.6667L50.6667 28.3333L50.3333 27.6667M228 27L229 28L228 27z"/>
<path style="fill:#707173; stroke:none;" d="M228 28L229 29L228 28M50 29L51 30L50 29z"/>
<path style="fill:#434649; stroke:none;" d="M228 29L229 30L228 29z"/>
<path style="fill:#adadaf; stroke:none;" d="M49 30L49 34L50 34L49 30z"/>
<path style="fill:#434649; stroke:none;" d="M50 30L51 31L50 30M142 31L143 32L142 31z"/>
<path style="fill:#707173; stroke:none;" d="M143 31L144 32L143 31z"/>
<path style="fill:#adadaf; stroke:none;" d="M144.667 31.3333L145.333 31.6667L144.667 31.3333z"/>
<path style="fill:#ffffff; stroke:none;" d="M126 42C122.014 30.5577 104.672 34 95 34L95 57C108.899 53.7309 106 67.3783 106 77L106 147L128 147L128 110C134.813 113.585 141.075 116.971 149 116.971C204.313 116.971 192.829 15.5767 140 32.7855C134.623 34.5371 130.111 38.2477 126 42z"/>
<path style="fill:#adadaf; stroke:none;" d="M153.667 31.3333L154.333 31.6667L153.667 31.3333z"/>
<path style="fill:#707173; stroke:none;" d="M155.667 31.3333L156.333 31.6667L155.667 31.3333M139 32L140 33L139 32z"/>
<path style="fill:#adadaf; stroke:none;" d="M140 32L141 33L140 32M159 32L160 33L159 32z"/>
<path style="fill:#707173; stroke:none;" d="M160 32L161 33L160 32M229 32L230 33L229 32z"/>
<path style="fill:#434649; stroke:none;" d="M94 33L94 34L116 34L94 33M136 33L137 34L136 33z"/>
<path style="fill:#707173; stroke:none;" d="M137 33L138 34L137 33z"/>
<path style="fill:#adadaf; stroke:none;" d="M162 33L163 34L162 33z"/>
<path style="fill:#707173; stroke:none;" d="M163 33L164 34L163 33M49 34L50 35L49 34z"/>
<path style="fill:#adadaf; stroke:none;" d="M94 34L94 57L95 57L94 34M117.667 34.3333L118.333 34.6667L117.667 34.3333z"/>
<path style="fill:#707173; stroke:none;" d="M119.667 34.3333L120.333 34.6667L119.667 34.3333z"/>
<path style="fill:#434649; stroke:none;" d="M134 34L135 35L134 34z"/>
<path style="fill:#adadaf; stroke:none;" d="M135 34L136 35L135 34M164 34L165 35L164 34z"/>
<path style="fill:#707173; stroke:none;" d="M165 34L166 35L165 34z"/>
<path style="fill:#434649; stroke:none;" d="M166 34L167 35L166 34z"/>
<path style="fill:#adadaf; stroke:none;" d="M48 35L48 147L49 147L49 69L48 35z"/>
<path style="fill:#434649; stroke:none;" d="M49 35L50 36L49 35z"/>
<path style="fill:#adadaf; stroke:none;" d="M121 35L122 36L121 35z"/>
<path style="fill:#707173; stroke:none;" d="M122 35L123 36L122 35M133 35L134 36L133 35z"/>
<path style="fill:#adadaf; stroke:none;" d="M134 35L135 36L134 35M166 35L167 36L166 35z"/>
<path style="fill:#707173; stroke:none;" d="M167 35L168 36L167 35z"/>
<path style="fill:#adadaf; stroke:none;" d="M123 36L125 38L123 36z"/>
<path style="fill:#434649; stroke:none;" d="M124 36L125 37L124 36M131 36L132 37L131 36z"/>
<path style="fill:#adadaf; stroke:none;" d="M132 36L133 37L132 36M168 36L170 38L168 36z"/>
<path style="fill:#434649; stroke:none;" d="M169 36L170 37L169 36z"/>
<path style="fill:#707173; stroke:none;" d="M130 37L131 38L130 37z"/>
<path style="fill:#adadaf; stroke:none;" d="M131 37L132 38L131 37z"/>
<path style="fill:#707173; stroke:none;" d="M170 37L171 38L170 37M125 38L126 39L125 38M129 38L130 39L129 38z"/>
<path style="fill:#adadaf; stroke:none;" d="M171 38L172 39L171 38M125 39L126 40L125 39z"/>
<path style="fill:#707173; stroke:none;" d="M128 39L129 40L128 39z"/>
<path style="fill:#adadaf; stroke:none;" d="M172 39L173 40L172 39M230 39L230 143L231 143L231 71L230 39z"/>
<path style="fill:#707173; stroke:none;" d="M126.667 40.3333L127.333 40.6667L126.667 40.3333z"/>
<path style="fill:#adadaf; stroke:none;" d="M173 40L174 41L173 40M126 41L127 42L126 41M174 41L175 42L174 41M175 42L176 43L175 42z"/>
<path style="fill:#707173; stroke:none;" d="M176 43L177 44L176 43M177 44L178 45L177 44z"/>
<path style="fill:#434649; stroke:none;" d="M178 45L179 46L178 45z"/>
<path style="fill:#adadaf; stroke:none;" d="M178 46L179 47L178 46z"/>
<path style="fill:#707173; stroke:none;" d="M179 47L180 48L179 47z"/>
<path style="fill:#434649; stroke:none;" d="M180 48L181 49L180 48z"/>
<path style="fill:#adadaf; stroke:none;" d="M180 49L181 50L180 49z"/>
<path style="fill:#707173; stroke:none;" d="M181 50L182 51L181 50z"/>
<path style="fill:#adadaf; stroke:none;" d="M142 51L143 52L142 51z"/>
<path style="fill:#707173; stroke:none;" d="M143 51L143 52L150 52L143 51z"/>
<path style="fill:#adadaf; stroke:none;" d="M150.667 51.3333L151.333 51.6667L150.667 51.3333M181.333 51.6667L181.667 52.3333L181.333 51.6667M139 52L140 53L139 52z"/>
<path style="fill:#707173; stroke:none;" d="M140 52L141 53L140 52z"/>
<path style="fill:#434649; stroke:none;" d="M141 52L142 53L141 52z"/>
<path style="fill:#26282c; stroke:none;" d="M142 52.5332C120.361 57.7917 126.347 101.268 151 95.6057C174.078 90.3052 167.495 46.3376 142 52.5332z"/>
<path style="fill:#434649; stroke:none;" d="M152 52L153 53L152 52z"/>
<path style="fill:#707173; stroke:none;" d="M153 52L154 53L153 52z"/>
<path style="fill:#adadaf; stroke:none;" d="M137 53L138 54L137 53z"/>
<path style="fill:#707173; stroke:none;" d="M138 53L139 54L138 53M155 53L156 54L155 53M182 53L183 54L182 53z"/>
<path style="fill:#adadaf; stroke:none;" d="M136 54L137 55L136 54z"/>
<path style="fill:#434649; stroke:none;" d="M156 54L157 55L156 54z"/>
<path style="fill:#adadaf; stroke:none;" d="M157 54L158 55L157 54M182 54L183 55L182 54z"/>
<path style="fill:#707173; stroke:none;" d="M135 55L136 56L135 55z"/>
<path style="fill:#adadaf; stroke:none;" d="M158 55L159 56L158 55z"/>
<path style="fill:#707173; stroke:none;" d="M183.333 55.6667L183.667 56.3333L183.333 55.6667z"/>
<path style="fill:#adadaf; stroke:none;" d="M96 56L96 57L104 57L96 56z"/>
<path style="fill:#707173; stroke:none;" d="M134 56L135 57L134 56z"/>
<path style="fill:#adadaf; stroke:none;" d="M159 56L161 58L159 56M105 57L105 123C105 128.467 102.538 141.991 106.028 146.397C109.173 150.368 123.282 148 128 148L128 147L106 147L106 85L105 57z"/>
<path style="fill:#707173; stroke:none;" d="M133 57L134 58L133 57z"/>
<path style="fill:#434649; stroke:none;" d="M159 57L160 58L159 57z"/>
<path style="fill:#adadaf; stroke:none;" d="M183 57L184 58L183 57M132 58L133 59L132 58z"/>
<path style="fill:#707173; stroke:none;" d="M160 58L161 59L160 58z"/>
<path style="fill:#434649; stroke:none;" d="M184 58L185 59L184 58z"/>
<path style="fill:#707173; stroke:none;" d="M161 59L162 60L161 59M184.333 59.6667L184.667 60.3333L184.333 59.6667M131 60L132 61L131 60M162 61L163 62L162 61z"/>
<path style="fill:#adadaf; stroke:none;" d="M184 61L185 62L184 61z"/>
<path style="fill:#707173; stroke:none;" d="M130 62L131 63L130 62z"/>
<path style="fill:#434649; stroke:none;" d="M185.333 62.6667L185.667 63.3333L185.333 62.6667M130 63L131 64L130 63z"/>
<path style="fill:#707173; stroke:none;" d="M163 63L164 64L163 63z"/>
<path style="fill:#adadaf; stroke:none;" d="M129 64L130 65L129 64z"/>
<path style="fill:#434649; stroke:none;" d="M163 64L164 65L163 64z"/>
<path style="fill:#707173; stroke:none;" d="M185.333 64.6667L185.667 65.3333L185.333 64.6667M129.333 65.6667L129.667 66.3333L129.333 65.6667z"/>
<path style="fill:#adadaf; stroke:none;" d="M164.333 65.6667L164.667 66.3333L164.333 65.6667M185 66L185 69L186 69L185 66z"/>
<path style="fill:#434649; stroke:none;" d="M129.333 67.6667L129.667 68.3333L129.333 67.6667M164 67L165 68L164 67z"/>
<path style="fill:#adadaf; stroke:none;" d="M128.333 68.6667L128.667 69.3333L128.333 68.6667z"/>
<path style="fill:#707173; stroke:none;" d="M128 70L128 78L129 78L128 70z"/>
<path style="fill:#adadaf; stroke:none;" d="M165 72L165 76L166 76L165 72M128.333 78.6667L128.667 79.3333L128.333 78.6667z"/>
<path style="fill:#434649; stroke:none;" d="M129 79L130 80L129 79z"/>
<path style="fill:#adadaf; stroke:none;" d="M185 79L185 82L186 82L185 79z"/>
<path style="fill:#707173; stroke:none;" d="M129 80L129 83L130 83L129 80z"/>
<path style="fill:#434649; stroke:none;" d="M164 80L165 81L164 80z"/>
<path style="fill:#707173; stroke:none;" d="M164 81L165 82L164 81z"/>
<path style="fill:#adadaf; stroke:none;" d="M164 82L165 83L164 82z"/>
<path style="fill:#707173; stroke:none;" d="M185.333 82.6667L185.667 83.3333L185.333 82.6667z"/>
<path style="fill:#adadaf; stroke:none;" d="M129 83L130 84L129 83z"/>
<path style="fill:#434649; stroke:none;" d="M163 83L164 84L163 83M130 84L131 85L130 84z"/>
<path style="fill:#707173; stroke:none;" d="M163 84L164 85L163 84z"/>
<path style="fill:#434649; stroke:none;" d="M185 84L186 85L185 84z"/>
<path style="fill:#adadaf; stroke:none;" d="M130 85L131 86L130 85M184.333 85.6667L184.667 86.3333L184.333 85.6667z"/>
<path style="fill:#707173; stroke:none;" d="M162 86L163 87L162 86z"/>
<path style="fill:#adadaf; stroke:none;" d="M131 87L132 88L131 87z"/>
<path style="fill:#707173; stroke:none;" d="M184.333 87.6667L184.667 88.3333L184.333 87.6667z"/>
<path style="fill:#434649; stroke:none;" d="M132 88L133 89L132 88z"/>
<path style="fill:#707173; stroke:none;" d="M161 88L162 89L161 88z"/>
<path style="fill:#adadaf; stroke:none;" d="M132 89L133 90L132 89z"/>
<path style="fill:#707173; stroke:none;" d="M160 89L161 90L160 89z"/>
<path style="fill:#adadaf; stroke:none;" d="M183 89L184 90L183 89z"/>
<path style="fill:#434649; stroke:none;" d="M184 89L185 90L184 89z"/>
<path style="fill:#adadaf; stroke:none;" d="M133 90L134 91L133 90z"/>
<path style="fill:#434649; stroke:none;" d="M159 90L157 93L159 90z"/>
<path style="fill:#adadaf; stroke:none;" d="M160 90L161 91L160 90z"/>
<path style="fill:#707173; stroke:none;" d="M183.333 90.6667L183.667 91.3333L183.333 90.6667z"/>
<path style="fill:#adadaf; stroke:none;" d="M134 91L135 92L134 91M159 91L160 92L159 91M135 92L136 93L135 92M158 92L159 93L158 92M182.333 92.6667L182.667 93.3333L182.333 92.6667z"/>
<path style="fill:#434649; stroke:none;" d="M183 92L184 93L183 92z"/>
<path style="fill:#adadaf; stroke:none;" d="M136 93L137 94L136 93z"/>
<path style="fill:#434649; stroke:none;" d="M137 93L138 94L137 93z"/>
<path style="fill:#707173; stroke:none;" d="M156 93L157 94L156 93M138 94L139 95L138 94z"/>
<path style="fill:#434649; stroke:none;" d="M154 94L155 95L154 94z"/>
<path style="fill:#adadaf; stroke:none;" d="M155 94L156 95L155 94z"/>
<path style="fill:#434649; stroke:none;" d="M182 94L183 95L182 94z"/>
<path style="fill:#adadaf; stroke:none;" d="M139 95L140 96L139 95z"/>
<path style="fill:#707173; stroke:none;" d="M140 95L141 96L140 95M152 95L153 96L152 95z"/>
<path style="fill:#adadaf; stroke:none;" d="M153 95L154 96L153 95M181 95L182 96L181 95M142.667 96.3333L143.333 96.6667L142.667 96.3333z"/>
<path style="fill:#707173; stroke:none;" d="M144 96L144 97L149 97L144 96z"/>
<path style="fill:#adadaf; stroke:none;" d="M149.667 96.3333L150.333 96.6667L149.667 96.3333z"/>
<path style="fill:#707173; stroke:none;" d="M181 96L182 97L181 96z"/>
<path style="fill:#adadaf; stroke:none;" d="M180 97L181 98L180 97z"/>
<path style="fill:#434649; stroke:none;" d="M181 97L182 98L181 97z"/>
<path style="fill:#707173; stroke:none;" d="M180 98L181 99L180 98z"/>
<path style="fill:#adadaf; stroke:none;" d="M179 99L180 100L179 99z"/>
<path style="fill:#434649; stroke:none;" d="M179 100L180 101L179 100z"/>
<path style="fill:#adadaf; stroke:none;" d="M178 101L179 102L178 101M177 102L178 103L177 102z"/>
<path style="fill:#434649; stroke:none;" d="M177 103L178 104L177 103M176 104L177 105L176 104z"/>
<path style="fill:#707173; stroke:none;" d="M175 105L176 106L175 105M174 106L175 107L174 106M173 107L174 108L173 107M172 108L173 109L172 108M171 109L172 110L171 109M128 110L128 147L129 147C129 136.351 132.111 119.798 128 110z"/>
<path style="fill:#adadaf; stroke:none;" d="M129 110L130 111L129 110M169 110L170 111L169 110z"/>
<path style="fill:#434649; stroke:none;" d="M170 110L171 111L170 110z"/>
<path style="fill:#707173; stroke:none;" d="M130 111L131 112L130 111z"/>
<path style="fill:#adadaf; stroke:none;" d="M168 111L169 112L168 111z"/>
<path style="fill:#434649; stroke:none;" d="M131 112L132 113L131 112z"/>
<path style="fill:#adadaf; stroke:none;" d="M132 112L133 113L132 112M166 112L167 113L166 112z"/>
<path style="fill:#434649; stroke:none;" d="M167 112L168 113L167 112z"/>
<path style="fill:#707173; stroke:none;" d="M133 113L134 114L133 113z"/>
<path style="fill:#adadaf; stroke:none;" d="M134 113L135 114L134 113M164 113L165 114L164 113z"/>
<path style="fill:#707173; stroke:none;" d="M165 113L166 114L165 113z"/>
<path style="fill:#434649; stroke:none;" d="M134 114L135 115L134 114z"/>
<path style="fill:#707173; stroke:none;" d="M135 114L136 115L135 114z"/>
<path style="fill:#adadaf; stroke:none;" d="M136 114L137 115L136 114M162 114L163 115L162 114z"/>
<path style="fill:#707173; stroke:none;" d="M163 114L164 115L163 114z"/>
<path style="fill:#434649; stroke:none;" d="M136 115L137 116L136 115z"/>
<path style="fill:#707173; stroke:none;" d="M137 115L138 116L137 115z"/>
<path style="fill:#adadaf; stroke:none;" d="M138 115L139 116L138 115M159 115L160 116L159 115z"/>
<path style="fill:#707173; stroke:none;" d="M160 115L161 116L160 115z"/>
<path style="fill:#434649; stroke:none;" d="M161 115L162 116L161 115M139 116L140 117L139 116z"/>
<path style="fill:#707173; stroke:none;" d="M140.667 116.333L141.333 116.667L140.667 116.333z"/>
<path style="fill:#adadaf; stroke:none;" d="M142.667 116.333L143.333 116.667L142.667 116.333M154.667 116.333L155.333 116.667L154.667 116.333z"/>
<path style="fill:#707173; stroke:none;" d="M156.667 116.333L157.333 116.667L156.667 116.333z"/>
<path style="fill:#434649; stroke:none;" d="M158 116L159 117L158 116M144 117L144 118L153 118L144 117M49 146L50 147L49 146z"/>
<path style="fill:#707173; stroke:none;" d="M49 147L50 148L49 147M105 147L106 148L105 147z"/>
<path style="fill:#434649; stroke:none;" d="M128 147L129 148L128 147z"/>
<path style="fill:#adadaf; stroke:none;" d="M49 148L49 152L50 152L49 148M229 149L230 150L229 149z"/>
<path style="fill:#434649; stroke:none;" d="M50 151L51 152L50 151z"/>
<path style="fill:#707173; stroke:none;" d="M50 152L51 153L50 152z"/>
<path style="fill:#434649; stroke:none;" d="M228 152L229 153L228 152z"/>
<path style="fill:#adadaf; stroke:none;" d="M50.3333 153.667L50.6667 154.333L50.3333 153.667M228 153L229 154L228 153z"/>
<path style="fill:#434649; stroke:none;" d="M51 154L52 155L51 154z"/>
<path style="fill:#707173; stroke:none;" d="M51.3333 155.667L51.6667 156.333L51.3333 155.667z"/>
<path style="fill:#434649; stroke:none;" d="M227 155L228 156L227 155z"/>
<path style="fill:#adadaf; stroke:none;" d="M227.333 156.667L227.667 157.333L227.333 156.667z"/>
<path style="fill:#434649; stroke:none;" d="M52 157L53 158L52 157z"/>
<path style="fill:#707173; stroke:none;" d="M52 158L53 159L52 158z"/>
<path style="fill:#adadaf; stroke:none;" d="M226.333 158.667L226.667 159.333L226.333 158.667M52 159L53 160L52 159z"/>
<path style="fill:#434649; stroke:none;" d="M53 160L54 161L53 160z"/>
<path style="fill:#707173; stroke:none;" d="M225 160L226 161L225 160z"/>
<path style="fill:#adadaf; stroke:none;" d="M53 161L54 162L53 161M225 161L226 162L225 161z"/>
<path style="fill:#434649; stroke:none;" d="M54 162L55 163L54 162z"/>
<path style="fill:#707173; stroke:none;" d="M224 162L225 163L224 162z"/>
<path style="fill:#adadaf; stroke:none;" d="M54 163L55 164L54 163M224 163L225 164L224 163z"/>
<path style="fill:#707173; stroke:none;" d="M55 164L56 165L55 164M223 164L224 165L223 164z"/>
<path style="fill:#434649; stroke:none;" d="M56 165L57 166L56 165M222 165L221 167L222 165z"/>
<path style="fill:#adadaf; stroke:none;" d="M222 166L223 167L222 166M57 167L58 168L57 167M221 167L222 168L221 167M58 168L59 169L58 168M220 168L221 169L220 168M59 169L60 170L59 169M219 169L220 170L219 169M60 170L61 171L60 170M218 170L219 171L218 170M61 171L62 172L61 171M217 171L218 172L217 171M62 172L63 173L62 172M216 172L217 173L216 172M63 173L64 174L63 173z"/>
<path style="fill:#434649; stroke:none;" d="M64 173L65 174L64 173M214 173L215 174L214 173z"/>
<path style="fill:#707173; stroke:none;" d="M65 174L66 175L65 174z"/>
<path style="fill:#434649; stroke:none;" d="M212 174L213 175L212 174z"/>
<path style="fill:#707173; stroke:none;" d="M213 174L214 175L213 174z"/>
<path style="fill:#adadaf; stroke:none;" d="M66 175L67 176L66 175z"/>
<path style="fill:#707173; stroke:none;" d="M67 175L68 176L67 175M211 175L212 176L211 175z"/>
<path style="fill:#adadaf; stroke:none;" d="M212 175L213 176L212 175M68 176L69 177L68 176z"/>
<path style="fill:#434649; stroke:none;" d="M69 176L70 177L69 176M209 176L210 177L209 176z"/>
<path style="fill:#adadaf; stroke:none;" d="M210 176L211 177L210 176M70 177L71 178L70 177z"/>
<path style="fill:#707173; stroke:none;" d="M71 177L72 178L71 177z"/>
<path style="fill:#434649; stroke:none;" d="M207 177L208 178L207 177z"/>
<path style="fill:#adadaf; stroke:none;" d="M208.667 177.333L209.333 177.667L208.667 177.333M72 178L73 179L72 178z"/>
<path style="fill:#707173; stroke:none;" d="M73 178L74 179L73 178z"/>
<path style="fill:#434649; stroke:none;" d="M74 178L75 179L74 178z"/>
<path style="fill:#707173; stroke:none;" d="M205 178L206 179L205 178z"/>
<path style="fill:#adadaf; stroke:none;" d="M206 178L207 179L206 178M75 179L76 180L75 179z"/>
<path style="fill:#707173; stroke:none;" d="M76 179L77 180L76 179M202 179L203 180L202 179z"/>
<path style="fill:#adadaf; stroke:none;" d="M203 179L204 180L203 179M78 180L79 181L78 180z"/>
<path style="fill:#707173; stroke:none;" d="M79.6667 180.333L80.3333 180.667L79.6667 180.333z"/>
<path style="fill:#434649; stroke:none;" d="M81 180L82 181L81 180M197 180L198 181L197 180z"/>
<path style="fill:#707173; stroke:none;" d="M198.667 180.333L199.333 180.667L198.667 180.333z"/>
<path style="fill:#adadaf; stroke:none;" d="M200 180L201 181L200 180M83 181L83 182L86 182L83 181z"/>
<path style="fill:#707173; stroke:none;" d="M86.6667 181.333L87.3333 181.667L86.6667 181.333z"/>
<path style="fill:#434649; stroke:none;" d="M88 181L88 182L191 182L160 181L88 181z"/>
<path style="fill:#707173; stroke:none;" d="M191.667 181.333L192.333 181.667L191.667 181.333z"/>
<path style="fill:#adadaf; stroke:none;" d="M193 181L193 182L196 182L193 181z"/>
</svg>
