<svg xmlns="http://www.w3.org/2000/svg" width="512" height="117" preserveAspectRatio="xMidYMid"><path fill="#525254" d="M80.214.286h16.323V17.48H80.214V.286ZM365.996.286h16.323V17.48h-16.323V.286Z"/><path fill="#231F1F" d="M44.138 23.65c-10.288 0-16.238 4.616-19.108 7.805-.341-2.748-2.154-6.313-9.227-6.313H.443V41.22h6.295c1.065 0 1.408.34 1.408 1.403v73.412h18.31V88.482c0-.744-.015-1.439-.034-2.061 2.86 2.627 8.322 6.243 16.854 6.243 17.896 0 30.408-14.186 30.408-34.504 0-20.64-11.88-34.51-29.546-34.51m-3.72 53.066c-9.857 0-14.335-9.438-14.335-18.182 0-13.773 7.532-18.682 14.58-18.682 8.643 0 14.456 7.452 14.456 18.553 0 12.659-7.39 18.311-14.7 18.311"/><path fill="#231F1F" d="M97.788 73.817V34.918c0-6.577-3.17-9.776-9.661-9.776H71.768V41.22h6.302c1.061 0 1.402.34 1.402 1.402v38.77c0 6.67 3.072 9.774 9.645 9.774h16.38V75.23h-6.304c-1.014 0-1.405-.404-1.405-1.412"/><path fill="#231F1F" d="M145.614 23.65c-10.291 0-16.233 4.616-19.116 7.805-.34-2.748-2.144-6.313-9.216-6.313h-15.37V41.22h6.302c1.061 0 1.405.34 1.405 1.403v73.412h18.318V88.482c0-.744-.02-1.439-.043-2.061 2.848 2.627 8.328 6.243 16.857 6.243 17.898 0 30.404-14.186 30.404-34.504 0-20.64-11.873-34.51-29.54-34.51m-3.736 53.066c-9.83 0-14.324-9.438-14.324-18.182 0-13.773 7.53-18.682 14.584-18.682 8.642 0 14.453 7.452 14.453 18.553 0 12.659-7.381 18.311-14.713 18.311M208.905 23.65c-19.724 0-33.516 14.193-33.516 34.51 0 19.988 14.882 34.504 35.388 34.504 16.132 0 25.988-9.549 26.404-9.953l.736-.726-7.973-13.237-1.186 1.122c-.076.057-7.313 6.727-16.872 6.727-9.175 0-15.891-5.6-17.474-14.385h43.414l.104-1.2c.028-.164.391-4.06.391-5.964 0-18.778-11.822-31.399-29.416-31.399m-13.813 24.98c1.987-6.479 6.953-10.15 13.813-10.15 5.51 0 9.758 4.192 10.503 10.15h-24.316M304.908 73.817V10.06c0-6.572-3.213-9.774-9.788-9.774h-16.364v16.077h6.3c1.06 0 1.41.343 1.41 1.407v11.525c-2.702-2.44-7.98-5.646-17.064-5.646-17.767 0-30.165 14.194-30.165 34.51 0 20.641 11.88 34.505 29.547 34.505 10.103 0 15.923-4.69 18.767-7.955.37 2.85 2.215 6.457 9.067 6.457h15.862V75.231h-6.169c-1.015 0-1.403-.406-1.403-1.414m-32.65 2.9c-8.707 0-14.34-7.287-14.34-18.557 0-10.955 5.861-18.308 14.59-18.308 9.895 0 14.33 9.125 14.33 18.188 0 13.776-7.538 18.676-14.58 18.676M353.316 24.268c-7.62 0-14.636 4.399-18.794 11.406v-1.509c0-5.983-3.304-9.024-9.785-9.024h-15.74V41.22h6.295c1.06 0 1.411.338 1.411 1.403v48.545h18.306V64.743c0-3.48.444-6.831 1.31-9.926 2.754-9.113 10.079-12.357 16.002-12.357 2.1 0 3.63.223 3.653.23l1.53.23V24.721l-1.114-.189c-.056-.01-1.606-.264-3.074-.264M383.562 73.817V34.918c0-6.577-3.152-9.776-9.648-9.776h-14.801V41.22h4.731c1.068 0 1.407.34 1.407 1.402v38.77c0 6.67 3.073 9.774 9.658 9.774h16.365V75.23h-6.304c-1.015 0-1.408-.404-1.408-1.412"/><path fill="#231F1F" d="M452.359 41.22V25.142h-9.77c-5.705 0-8.767 1.978-10.575 6.84l-11.935 33.335a53.339 53.339 0 0 0-1.13 3.951c-.348-1.336-.758-2.738-1.211-3.976L405.803 31.97c-1.832-4.912-4.788-6.829-10.574-6.829h-10.384V41.22h2.695c1.428 0 1.887.484 2.228 1.378l18.474 48.568h20.586l18.477-48.568c.338-.894.81-1.378 2.242-1.378h2.812"/><path fill="#231F1F" d="M511.196 61.013c.016-.165.387-4.062.387-5.965 0-18.778-11.827-31.399-29.426-31.399-19.724 0-33.506 14.194-33.506 34.51 0 19.99 14.865 34.505 35.377 34.505 16.134 0 25.996-9.549 26.406-9.953l.745-.726-7.959-13.237-1.21 1.122c-.063.057-7.337 6.727-16.862 6.727-9.18 0-15.9-5.6-17.487-14.385h43.428l.107-1.2Zm-42.85-12.383c2.003-6.48 6.953-10.152 13.811-10.152 5.525 0 9.757 4.193 10.507 10.152h-24.317Z"/><path fill="#3B3B3C" d="M353.316 24.268c-5.918 0-11.43 2.677-15.567 7.132 3.495-.031 7.012-.06 10.529-.06 3.09 0 6.154.029 9.227.047v-6.666l-1.115-.189c-.056-.01-1.606-.264-3.074-.264M432.014 31.982l-.753 2.119c7.08.487 14.103 1.024 21.098 1.625V25.142h-9.768c-5.706 0-8.77 1.978-10.577 6.84M44.138 23.65c-10.288 0-16.24 4.616-19.108 7.804-.343-2.747-2.154-6.312-9.227-6.312H.443V41.22h6.295c1.065 0 1.408.34 1.408 1.402v40.91a771.153 771.153 0 0 1 25.821-8.462c-5.38-3.079-7.884-9.998-7.884-16.538 0-13.77 7.532-18.68 14.58-18.68 8.643 0 14.456 7.452 14.456 18.553 0 4.662-1.012 8.36-2.646 11.186a875.816 875.816 0 0 1 20.814-5.623c.228-1.875.397-3.806.397-5.808 0-20.64-11.88-34.51-29.546-34.51M88.127 25.142H71.768V41.22h6.302c1.06 0 1.4.34 1.4 1.403v19.803a913.214 913.214 0 0 1 18.318-4.367V34.918c0-6.575-3.17-9.776-9.661-9.776M80.214.286h16.323V17.48H80.214V.286ZM145.616 23.65c-10.292 0-16.233 4.616-19.116 7.804-.343-2.747-2.144-6.312-9.218-6.312h-15.368V41.22h6.3c1.061 0 1.407.34 1.407 1.402v12.825a1103.24 1103.24 0 0 1 18.78-3.81c2.098-8.498 8.043-11.785 13.738-11.785 5.155 0 9.263 2.688 11.768 7.18 6.32-1.053 12.68-2.068 19.097-3.029-4.17-12.571-14.158-20.354-27.388-20.354M208.905 23.65c-14.411 0-25.622 7.587-30.63 19.593 7.782-1.121 15.645-2.168 23.577-3.14 2.029-1.057 4.391-1.623 7.053-1.623 1.009 0 1.946.188 2.854.448 7.196-.814 14.458-1.564 21.777-2.251-5.031-8.166-13.718-13.028-24.631-13.028M295.12.286h-16.364v16.077h6.3c1.058 0 1.41.343 1.41 1.407v11.525c-2.702-2.44-7.98-5.646-17.064-5.646-9.944 0-18.203 4.447-23.552 11.935a1211.155 1211.155 0 0 1 59.058-3.499V10.06c0-6.572-3.213-9.774-9.788-9.774M324.739 25.142h-15.743v6.829c8.353-.266 16.744-.456 25.207-.552-.927-4.151-4.079-6.277-9.464-6.277M365.996.286h16.323V17.48h-16.323V.286ZM373.915 25.142h-14.8v6.256c8.084.073 16.13.22 24.133.439-.91-4.472-3.962-6.695-9.333-6.695M395.229 25.142h-10.384v6.744c7.108.21 14.173.47 21.198.79l-.24-.705c-1.832-4.912-4.788-6.829-10.574-6.829M482.157 23.65c-11.247 0-20.543 4.625-26.48 12.357 8.598.755 17.145 1.602 25.595 2.534 1.302.143 2.58.275 3.86.425 8.156.922 16.223 1.936 24.22 3.027-4.189-11.333-14.09-18.344-27.195-18.344"/></svg>