<svg width="250" height="250" viewBox="0 0 250 250" fill="none" xmlns="http://www.w3.org/2000/svg">
<path d="M135.794 58.1246C120.83 58.1246 112.175 64.8032 108 69.4171C107.504 65.4413 104.867 60.2833 94.5788 60.2833H72.2363V83.5454H81.393C82.9421 83.5454 83.441 84.0373 83.441 85.5753V191.79H110.074V151.925C110.074 150.849 110.053 149.843 110.025 148.943C114.185 152.744 122.13 157.976 134.541 157.976C160.572 157.976 178.772 137.451 178.772 108.055C178.772 78.1921 161.491 58.1246 135.794 58.1246ZM130.383 134.902C116.046 134.902 109.532 121.247 109.532 108.596C109.532 88.6686 120.488 81.5661 130.74 81.5661C143.312 81.5661 151.767 92.3479 151.767 108.409C151.767 126.724 141.018 134.902 130.385 134.902" fill="#231F1F"/>
<path d="M135.794 58.1246C120.83 58.1246 112.172 64.8032 108 69.4157C107.501 65.4413 104.867 60.2833 94.5788 60.2833H72.2363V83.5454H81.393C82.9421 83.5454 83.441 84.0373 83.441 85.5739V144.764C95.8874 140.463 108.409 136.382 121 132.52C113.174 128.066 109.532 118.055 109.532 108.593C109.532 88.6701 120.488 81.5661 130.74 81.5661C143.312 81.5661 151.767 92.3479 151.767 108.409C151.767 115.154 150.295 120.505 147.918 124.593C157.976 121.758 168.069 119.046 178.194 116.458C178.526 113.745 178.772 110.951 178.772 108.055C178.772 78.1921 161.491 58.1246 135.794 58.1246Z" fill="#3B3B3C"/>
</svg>
