<svg version="1.1" id="Layer_1" xmlns="http://www.w3.org/2000/svg" xmlns:xlink="http://www.w3.org/1999/xlink" x="0px" y="0px"
	 width="100%" viewBox="0 0 230 230" enable-background="new 0 0 230 230" xml:space="preserve">
<path fill="#426581" opacity="1.000000" stroke="none" 
	d="
M126.000000,231.000000 
	C84.000000,231.000000 42.500004,231.000000 1.000005,231.000000 
	C1.000004,154.333344 1.000004,77.666679 1.000002,1.000016 
	C77.666656,1.000011 154.333313,1.000011 230.999969,1.000005 
	C230.999985,77.666649 230.999985,154.333298 231.000000,230.999969 
	C196.166672,231.000000 161.333328,231.000000 126.000000,231.000000 
M192.616821,136.057510 
	C196.398087,120.994331 196.119934,106.028343 191.067398,91.314911 
	C177.008728,50.374832 134.423996,28.342533 93.386696,40.661156 
	C52.395004,52.966087 29.024420,95.446907 40.149338,137.430969 
	C49.070076,171.096741 81.093674,195.283066 116.514236,195.106735 
	C152.088440,194.929626 183.784668,170.567169 192.616821,136.057510 
z"/>
<path fill="#FCFDFD" opacity="1.000000" stroke="none" 
	d="
M192.477356,136.442215 
	C183.784668,170.567169 152.088440,194.929626 116.514236,195.106735 
	C81.093674,195.283066 49.070076,171.096741 40.149338,137.430969 
	C29.024420,95.446907 52.395004,52.966087 93.386696,40.661156 
	C134.423996,28.342533 177.008728,50.374832 191.067398,91.314911 
	C196.119934,106.028343 196.398087,120.994331 192.477356,136.442215 
M60.785721,86.366631 
	C54.523163,98.364410 52.125252,111.001541 53.850464,124.514908 
	C57.133751,150.232468 76.232208,171.377991 102.131599,177.607559 
	C127.024002,183.594940 154.085846,172.869644 168.506393,151.301559 
	C182.955612,129.690613 182.616653,100.819122 167.677490,79.950378 
	C140.584412,42.103683 84.216034,44.935051 60.785721,86.366631 
z"/>
<path fill="#456883" opacity="1.000000" stroke="none" 
	d="
M60.945614,86.032196 
	C84.216034,44.935051 140.584412,42.103683 167.677490,79.950378 
	C182.616653,100.819122 182.955612,129.690613 168.506393,151.301559 
	C154.085846,172.869644 127.024002,183.594940 102.131599,177.607559 
	C76.232208,171.377991 57.133751,150.232468 53.850464,124.514908 
	C52.125252,111.001541 54.523163,98.364410 60.945614,86.032196 
M128.166824,120.334862 
	C122.460724,125.652931 124.852753,130.680069 128.713669,135.657364 
	C128.813721,135.786346 128.893127,135.940765 128.945908,136.095688 
	C130.824478,141.608429 134.590057,143.277695 140.354584,142.875702 
	C148.044495,142.339447 155.799957,142.743179 163.618576,142.743179 
	C163.618576,134.654282 163.618576,127.401115 163.618576,119.798210 
	C151.864258,119.798210 140.315506,119.798210 128.166824,120.334862 
M86.642876,153.990219 
	C88.290634,155.134247 89.663582,155.804703 91.027473,153.373734 
	C95.987106,144.533859 101.182426,135.826065 106.128365,126.978737 
	C107.683258,124.197319 103.434860,117.302391 100.294533,117.243530 
	C96.136551,117.165588 91.972343,117.128685 87.818863,117.286339 
	C86.640205,117.331078 84.917877,117.772392 84.414619,118.612640 
	C79.408028,126.971832 74.604866,135.452866 69.615448,144.123260 
	C75.377731,147.475143 80.676605,150.557480 86.642876,153.990219 
M105.828110,67.323273 
	C102.438782,69.335030 99.049461,71.346794 95.395508,73.515633 
	C99.811729,81.199928 104.418480,88.329361 108.102623,95.907341 
	C111.037560,101.944252 114.754646,105.370712 122.103073,103.720497 
	C124.474373,99.657173 127.176849,95.278236 129.571915,90.737167 
	C130.138550,89.662827 130.180008,87.761551 129.600937,86.719994 
	C125.019508,78.479614 120.229340,70.355293 115.334953,61.904552 
	C112.190529,63.706600 109.333046,65.344200 105.828110,67.323273 
M126.267952,140.228577 
	C122.799530,134.108841 120.671715,126.265472 110.308525,128.711060 
	C107.995979,132.702759 105.281944,137.249695 102.742920,141.892349 
	C102.264374,142.767365 102.015373,144.285843 102.451599,145.063721 
	C107.213219,153.554581 112.132263,161.957138 117.103989,170.548767 
	C124.081955,166.511597 130.498840,162.799057 137.086594,158.987656 
	C133.426849,152.605148 130.052811,146.720901 126.267952,140.228577 
M137.533859,115.064972 
	C139.366013,115.064949 141.215530,115.220932 143.025269,115.019577 
	C144.721939,114.830795 147.265610,114.814659 147.908951,113.776192 
	C153.035004,105.501877 157.797180,97.002129 162.831970,88.292953 
	C155.877823,84.284073 149.453842,80.580841 142.802200,76.746353 
	C138.232147,84.651031 134.385056,92.458824 129.439331,99.494324 
	C125.489159,105.113625 125.644073,109.787018 129.750168,115.064972 
	C131.928329,115.064972 134.254562,115.064972 137.533859,115.064972 
M68.792725,103.471176 
	C68.792725,106.547661 68.792725,109.624138 68.792725,112.963837 
	C77.997665,112.963837 86.481331,112.444359 94.867264,113.126396 
	C101.712708,113.683136 106.066940,111.519585 108.476562,105.040344 
	C106.059296,100.850739 103.643021,96.502884 101.039955,92.269897 
	C100.431190,91.279953 99.200699,90.018417 98.236931,90.001778 
	C88.520653,89.834061 78.800362,89.899620 68.792717,89.899620 
	C68.792717,94.555481 68.792717,98.520035 68.792725,103.471176 
z"/>
<path fill="#F7F9FA" opacity="1.000000" stroke="none" 
	d="
M128.466782,120.066536 
	C140.315506,119.798210 151.864258,119.798210 163.618576,119.798210 
	C163.618576,127.401115 163.618576,134.654282 163.618576,142.743179 
	C155.799957,142.743179 148.044495,142.339447 140.354584,142.875702 
	C134.590057,143.277695 130.824478,141.608429 128.945908,136.095688 
	C128.893127,135.940765 128.813721,135.786346 128.713669,135.657364 
	C124.852753,130.680069 122.460724,125.652931 128.466782,120.066536 
z"/>
<path fill="#FBFCFD" opacity="1.000000" stroke="none" 
	d="
M86.309174,153.815002 
	C80.676605,150.557480 75.377731,147.475143 69.615448,144.123260 
	C74.604866,135.452866 79.408028,126.971832 84.414619,118.612640 
	C84.917877,117.772392 86.640205,117.331078 87.818863,117.286339 
	C91.972343,117.128685 96.136551,117.165588 100.294533,117.243530 
	C103.434860,117.302391 107.683258,124.197319 106.128365,126.978737 
	C101.182426,135.826065 95.987106,144.533859 91.027473,153.373734 
	C89.663582,155.804703 88.290634,155.134247 86.309174,153.815002 
z"/>
<path fill="#FCFCFD" opacity="1.000000" stroke="none" 
	d="
M106.151840,67.152542 
	C109.333046,65.344200 112.190529,63.706600 115.334953,61.904552 
	C120.229340,70.355293 125.019508,78.479614 129.600937,86.719994 
	C130.180008,87.761551 130.138550,89.662827 129.571915,90.737167 
	C127.176849,95.278236 124.474373,99.657173 122.103073,103.720497 
	C114.754646,105.370712 111.037560,101.944252 108.102623,95.907341 
	C104.418480,88.329361 99.811729,81.199928 95.395508,73.515633 
	C99.049461,71.346794 102.438782,69.335030 106.151840,67.152542 
z"/>
<path fill="#FCFDFD" opacity="1.000000" stroke="none" 
	d="
M126.473358,140.532623 
	C130.052811,146.720901 133.426849,152.605148 137.086594,158.987656 
	C130.498840,162.799057 124.081955,166.511597 117.103989,170.548767 
	C112.132263,161.957138 107.213219,153.554581 102.451599,145.063721 
	C102.015373,144.285843 102.264374,142.767365 102.742920,141.892349 
	C105.281944,137.249695 107.995979,132.702759 110.308525,128.711060 
	C120.671715,126.265472 122.799530,134.108841 126.473358,140.532623 
z"/>
<path fill="#FCFDFD" opacity="1.000000" stroke="none" 
	d="
M137.057343,115.064972 
	C134.254562,115.064972 131.928329,115.064972 129.750168,115.064972 
	C125.644073,109.787018 125.489159,105.113625 129.439331,99.494324 
	C134.385056,92.458824 138.232147,84.651031 142.802200,76.746353 
	C149.453842,80.580841 155.877823,84.284073 162.831970,88.292953 
	C157.797180,97.002129 153.035004,105.501877 147.908951,113.776192 
	C147.265610,114.814659 144.721939,114.830795 143.025269,115.019577 
	C141.215530,115.220932 139.366013,115.064949 137.057343,115.064972 
z"/>
<path fill="#FEFEFE" opacity="1.000000" stroke="none" 
	d="
M68.792725,102.977882 
	C68.792717,98.520035 68.792717,94.555481 68.792717,89.899620 
	C78.800362,89.899620 88.520653,89.834061 98.236931,90.001778 
	C99.200699,90.018417 100.431190,91.279953 101.039955,92.269897 
	C103.643021,96.502884 106.059296,100.850739 108.476562,105.040344 
	C106.066940,111.519585 101.712708,113.683136 94.867264,113.126396 
	C86.481331,112.444359 77.997665,112.963837 68.792725,112.963837 
	C68.792725,109.624138 68.792725,106.547661 68.792725,102.977882 
z"/>
</svg>