<svg width="250" height="250" viewBox="0 0 250 250" fill="none" xmlns="http://www.w3.org/2000/svg">
<path d="M105.616 85.5606L121.9 113.764C124.559 113.054 127.383 113.306 129.874 114.475L138.435 99.6479L124.126 74.8701L105.448 85.6564H105.449L105.616 85.5606ZM81.0671 122.045H113.643C113.903 121.054 114.293 120.102 114.802 119.213C115.658 117.731 116.831 116.456 118.237 115.48L109.677 100.658H81.0586V122.229H81.0671V122.045ZM135.056 130.907C134.202 132.386 133.031 133.659 131.629 134.634L140.195 149.469H168.806V128.085H136.217C135.953 129.072 135.563 130.021 135.056 130.908V130.907ZM133.186 116.796C135.137 118.741 136.337 121.312 136.574 124.056H153.69L167.999 99.2772L149.481 88.5827L133.187 116.796H133.186ZM100.381 161.547L116.675 133.322C114.733 131.377 113.535 128.812 113.29 126.075H96.1656L81.8565 150.842L100.53 161.636L100.381 161.547ZM144.25 164.561L127.969 136.357C125.309 137.075 122.481 136.825 119.99 135.651L111.427 150.482L125.727 175.254L144.406 164.472L144.25 164.561Z" fill="#ED7D1A"/>
<path d="M124.937 52.1329C84.72 52.1329 52 84.8443 52 125.055C52 165.277 84.72 198 124.937 198C165.15 198 197.863 165.277 197.863 125.055C197.863 84.8443 165.15 52.1329 124.937 52.1329H124.937ZM124.937 66.8983C157.057 66.8983 183.095 92.933 183.095 125.055C183.095 157.185 157.057 183.233 124.937 183.233C92.8121 183.233 66.7694 157.185 66.7694 125.055C66.7694 92.933 92.8121 66.8977 124.937 66.8977V66.8983Z" fill="#5282B0"/>
</svg>
