<svg xmlns="http://www.w3.org/2000/svg" width="250" height="250" fill="none"><path fill="#111" fill-rule="evenodd" d="M103.325 28 44.53 43.399l-16.203 59.125 20.265 20.807L28 143.794l15.25 59.384 58.539 16.357 20.596-20.467 20.265 20.802 58.794-15.399 16.199-59.129-20.261-20.799 20.592-20.463-15.249-59.388-58.547-16.357-20.589 20.463L103.325 28Zm-36.08 26.772 30.97-8.116L111.76 60.56 92.008 80.186 67.245 54.772Zm67.988 5.974 13.762-13.673 30.838 8.617-25.167 25.005-19.433-19.95ZM46.883 97.67l8.532-31.14L80.17 91.942 60.422 111.57l-13.54-13.904v.004Zm119.419-5.023 25.167-25.014 8.027 31.282-13.758 13.677-19.436-19.945Zm-62.654-.514 19.751-19.626 19.429 19.95-19.748 19.626-19.432-19.95Zm-31.582 31.384 19.748-19.627 19.44 19.95-19.755 19.626-19.433-19.949Zm62.658.513 19.748-19.626 19.432 19.949-19.751 19.627-19.429-19.95ZM46.47 148.955l13.766-13.681 19.429 19.954-25.16 25.001-8.035-31.274Zm56.669 6.459 19.751-19.627 19.433 19.95-19.748 19.626-19.436-19.949Zm62.654.517 19.751-19.626 13.544 13.899-8.528 31.141-24.767-25.414Zm-99.652 36.254 25.164-25.014 19.44 19.949-13.766 13.681-30.838-8.616Zm68.074-4.875 19.748-19.626 24.759 25.418-30.967 8.112-13.54-13.904Z" clip-rule="evenodd"/></svg>