<svg xmlns="http://www.w3.org/2000/svg" width="96" height="96"><path fill="#111" d="M88.33 88.33 96 58.39 85.61 48 96 37.61 88.33 7.67 58.39 0 48 10.39 37.61 0 7.67 7.67 0 37.61 10.4 48 0 58.39l7.67 29.94L37.61 96 48 85.61 58.39 96Zm-34.39-8.66 9.9-9.9 12.59 12.6-15.76 4zm-15.83-47.5 9.89-9.9 9.9 9.89-9.9 9.9zm4 15.83-9.89 9.9-9.95-9.9 9.9-9.9zm21.78-9.9 9.84 9.9-9.89 9.9-9.9-9.9ZM57.9 63.84 48 73.73l-9.89-9.9L48 53.94ZM35.33 86.4l-15.72-4.03 12.6-12.6 9.89 9.9zm-19-32.46 9.9 9.89-12.62 12.6-4-15.76zm-2.72-34.37 12.59 12.6-9.9 9.89-6.69-6.73Zm28.42-3.24-9.89 9.9-12.53-12.6 15.75-4zM60.67 9.6l15.76 4-12.59 12.63-9.9-9.9zm19 32.46-9.89-9.89 12.59-12.6 4 15.76zm2.7 34.37L69.78 63.84l9.89-9.9 6.73 6.73z"/></svg>