<svg width="250" height="250" viewBox="0 0 250 250" fill="none" xmlns="http://www.w3.org/2000/svg">
<path fill-rule="evenodd" clip-rule="evenodd" d="M110.475 60L71.0771 70.3187L60.2194 109.939L73.799 123.881L60 137.594L70.2185 177.387L109.446 188.348L123.248 174.633L136.827 188.573L176.225 178.254L187.08 138.631L173.504 124.694L187.302 110.982L177.084 71.1854L137.851 60.2248L124.055 73.9371L110.475 60ZM86.2979 77.94L107.052 72.5017L116.128 81.8183L102.892 94.97L86.2979 77.94ZM131.857 81.9429L141.079 72.7806L161.744 78.5548L144.879 95.3112L131.857 81.9429ZM72.6533 106.686L78.3706 85.8185L94.9592 102.849L81.7262 116L72.6533 106.684V106.686ZM152.676 103.32L169.541 86.5579L174.92 107.52L165.701 116.685L152.676 103.32ZM110.692 102.976L123.927 89.8242L136.946 103.192L123.714 116.344L110.692 102.976ZM89.529 124.006L102.762 110.854L115.789 124.223L102.551 137.374L89.529 124.006ZM131.516 124.35L144.749 111.198L157.771 124.567L144.535 137.718L131.516 124.35ZM72.3771 141.052L81.6017 131.885L94.6206 145.256L77.7612 162.009L72.3771 141.052ZM110.351 145.38L123.586 132.229L136.608 145.597L123.375 158.749L110.351 145.38ZM152.335 145.727L165.571 132.575L174.646 141.889L168.932 162.757L152.335 145.727ZM85.5585 170.021L102.421 153.259L115.448 166.627L106.223 175.795L85.5585 170.021ZM131.175 166.754L144.408 153.603L160.999 170.635L140.248 176.071L131.175 166.754Z" fill="#111111"/>
</svg>
