<?xml version="1.0" encoding="UTF-8" standalone="no"?>
<svg
   viewBox="0 0 96 96"
   version="1.1"
   id="svg954"
   sodipodi:docname="plaid.svg"
   width="96"
   height="96"
   inkscape:version="1.2.1 (9c6d41e410, 2022-07-14, custom)"
   xmlns:inkscape="http://www.inkscape.org/namespaces/inkscape"
   xmlns:sodipodi="http://sodipodi.sourceforge.net/DTD/sodipodi-0.dtd"
   xmlns="http://www.w3.org/2000/svg"
   xmlns:svg="http://www.w3.org/2000/svg">
  <defs
     id="defs958" />
  <sodipodi:namedview
     id="namedview956"
     pagecolor="#ffffff"
     bordercolor="#666666"
     borderopacity="1.0"
     inkscape:showpageshadow="2"
     inkscape:pageopacity="0.0"
     inkscape:pagecheckerboard="0"
     inkscape:deskcolor="#d1d1d1"
     showgrid="false"
     inkscape:zoom="10.27"
     inkscape:cx="48.588121"
     inkscape:cy="47.906524"
     inkscape:window-width="3840"
     inkscape:window-height="2083"
     inkscape:window-x="0"
     inkscape:window-y="40"
     inkscape:window-maximized="1"
     inkscape:current-layer="svg954" />
  <path
     d="M 88.33,88.33 96,58.39 85.61,48 96,37.61 88.33,7.67 58.39,0 48,10.39 37.61,0 7.67,7.67 0,37.61 10.4,48 0,58.39 7.67,88.33 37.61,96 48,85.61 58.39,96 Z m -34.39,-8.66 9.9,-9.9 12.59,12.6 -15.76,4 z m -15.83,-47.5 9.89,-9.9 9.9,9.89 -9.9,9.9 z m 4,15.83 -9.89,9.9 -9.95,-9.9 9.9,-9.9 z M 63.89,38.1 73.73,48 63.84,57.9 53.94,48 Z M 57.9,63.84 48,73.73 38.11,63.83 48,53.94 Z M 35.33,86.4 19.61,82.37 l 12.6,-12.6 9.89,9.9 z m -19,-32.46 9.9,9.89 -12.62,12.6 -4,-15.76 z M 13.61,19.57 26.2,32.17 16.3,42.06 9.61,35.33 Z m 28.42,-3.24 -9.89,9.9 -12.53,-12.6 15.75,-4 z m 18.64,-6.73 15.76,4 -12.59,12.63 -9.9,-9.9 z m 19,32.46 -9.89,-9.89 12.59,-12.6 4,15.76 z m 2.7,34.37 -12.59,-12.59 9.89,-9.9 6.73,6.73 z"
     fill="#111111"
     id="path952" />
</svg>
