<svg xmlns="http://www.w3.org/2000/svg" xml:space="preserve" viewBox="0 0 512 512"><path fill="#E84352" d="M1 465c0-138.357 0-276.713.306-415.204.734-.622 1.4-1.044 1.555-1.607C9.317 24.732 24.364 9.81 47.59 2.912c.606-.18.946-1.255 1.409-1.912 138.357 0 276.713 0 415.205.305.783.754 1.373 1.43 2.09 1.62 10.602 2.787 19.825 8.073 27.69 15.615 8.397 8.053 13.98 17.845 17.107 29.063.167.596 1.251.937 1.908 1.397 0 138.357 0 276.713-.305 415.205-.734.622-1.4 1.043-1.555 1.605-6.455 23.459-21.509 38.376-44.732 45.278-.605.18-.945 1.255-1.408 1.912-138.357 0-276.713 0-415.205-.306-.622-.733-1.043-1.4-1.605-1.554-23.459-6.456-38.374-21.511-45.278-44.732-.18-.606-1.255-.945-1.912-1.408m104.915-103.413c12.782 15.03 28.102 26.936 45.345 36.367 37.574 20.553 78.017 28.223 120.452 25.66 37.9-2.289 73.336-12.812 105.014-34.292 26.525-17.987 46.371-41.24 56.035-72.396 4.832-15.58 4.162-31.584 4.2-47.529.105-43.815.113-87.631.008-131.447-.065-27.366-20.795-47.998-48.158-48.013-87.465-.046-174.93-.042-262.396-.006-29.114.012-49.367 20.249-49.404 49.297-.047 37.652-.03 75.304.002 112.955.007 8.656.723 17.345.192 25.962-1.946 31.578 8.166 58.905 28.71 83.442z"/><path d="M513 48.531c-.657.01-1.741-.332-1.908-.928-3.127-11.218-8.71-21.01-17.107-29.063-7.865-7.542-17.088-12.828-27.69-15.615-.717-.19-1.307-.866-1.625-1.62C480.927 1 496.853 1 513 1v47.531zM48.531 1c.006.657-.334 1.732-.94 1.912-23.227 6.897-38.274 21.82-44.73 45.277-.155.563-.821.985-1.555 1.142C1 33.073 1 17.147 1 1h47.531zM1 465.469c.657-.006 1.732.333 1.912.939 6.904 23.22 21.82 38.276 45.278 44.732.562.154.983.82 1.14 1.554C33.073 513 17.147 513 1 513v-47.531zM465.469 513c-.006-.657.334-1.732.94-1.912 23.222-6.902 38.276-21.82 44.73-45.278.156-.562.822-.983 1.556-1.14.305 16.257.305 32.183.305 48.33h-47.531z"/><path fill="#FFF" d="M105.686 361.317c-20.315-24.267-30.427-51.594-28.48-83.172.53-8.617-.186-17.306-.193-25.962-.032-37.651-.05-75.303-.002-112.955.037-29.048 20.29-49.285 49.404-49.297 87.465-.036 174.93-.04 262.396.006 27.363.015 48.093 20.647 48.158 48.013.105 43.816.097 87.632-.008 131.447-.038 15.945.632 31.949-4.2 47.53-9.664 31.155-29.51 54.408-56.035 72.395-31.678 21.48-67.113 32.003-105.014 34.292-42.435 2.563-82.878-5.107-120.452-25.66-17.243-9.431-32.563-21.336-45.574-36.637M238.12 246.38c-19.212-19.202-38.346-38.483-57.67-57.572-9.68-9.564-24.321-9.493-33.691-.237-9.371 9.256-9.732 24.093-.209 33.693a17190.633 17190.633 0 0 0 93.318 93.327c9.403 9.333 24.566 9.522 33.929.25 31.494-31.19 62.8-62.572 94.043-94.014 6.39-6.43 7.983-14.541 5.412-23.16-5.257-17.623-26.784-22.73-40.14-9.473-24.125 23.949-48.1 48.05-72.145 72.08-1.26 1.26-2.602 2.44-4.22 3.95a54026.956 54026.956 0 0 0-18.627-18.844z"/><path fill="#E84352" d="M238.371 246.629c6.21 6.28 12.17 12.312 18.377 18.594 1.618-1.51 2.96-2.69 4.22-3.95 24.046-24.03 48.02-48.131 72.146-72.08 13.355-13.258 34.882-8.15 40.14 9.473 2.57 8.619.977 16.73-5.413 23.16-31.243 31.442-62.549 62.823-94.043 94.014-9.363 9.272-24.526 9.083-33.929-.25a17190.633 17190.633 0 0 1-93.318-93.327c-9.523-9.6-9.162-24.437.209-33.693 9.37-9.256 24.01-9.327 33.691.237 19.324 19.089 38.458 38.37 57.92 57.822z"/></svg>