<svg width="250" height="250" viewBox="0 0 250 250" fill="none" xmlns="http://www.w3.org/2000/svg">
<path d="M26 115.677L34.7718 130.463L38.2805 127.112L28.7046 112.909L26 115.677Z" fill="url(#paint0_linear_133_490)"/>
<path d="M156.553 104.023L156.188 105.99L160.354 104.606L159.842 102.202L156.553 104.023Z" fill="#0071B9"/>
<path d="M131.992 90.6944L118.469 106.136L122.416 105.043L135.281 89.0192L131.992 90.6944Z" fill="url(#paint1_linear_133_490)"/>
<path d="M204.434 111.817L207.723 110.069L206.773 118.372L204.434 111.817Z" fill="#1D2C5E"/>
<path d="M183.746 117.134L186.743 117.789L190.471 115.968L187.182 114.73L183.746 117.134Z" fill="#1D2C5E"/>
<path d="M81.9941 108.393L82.4327 117.935L86.5993 116.333L85.3567 106.573L81.9941 108.393Z" fill="url(#paint2_linear_133_490)"/>
<path d="M186.963 105.48L183.674 107.301L183.747 117.134L187.109 115.459L188.133 110.651L186.963 105.48Z" fill="url(#paint3_linear_133_490)"/>
<path d="M186.524 117.789L182.869 150.128L188.717 148.963L189.813 116.041L186.524 117.789Z" fill="#312370"/>
<path d="M193.615 151.658L193.761 156.028L204.945 159.597L208.307 157.849L197.27 149.327L186.159 148.38L182.869 150.128L193.615 151.658Z" fill="#21386E"/>
<path d="M152.095 143.937L154.799 142.481L156.627 145.685L159.185 144.301L159.697 148.526L175.998 151.439L179.214 149.618L156.773 135.998L140.838 138.693L137.768 141.679L152.095 143.937Z" fill="#21386E"/>
<path d="M146.905 104.169L143.615 105.99L137.768 141.679L141.057 139.931L146.686 119.902L146.905 104.169Z" fill="url(#paint4_linear_133_490)"/>
<path d="M120.882 108.976L118.25 110.36L118.469 111.234L124.683 107.301L121.978 104.388L118.469 106.136L120.882 108.976Z" fill="#1D2C5E"/>
<path d="M127.972 151.148L101.438 138.038L104.727 135.488L131.262 149.327L127.972 151.148Z" fill="#21386E"/>
<path d="M103.923 102.348L99.9023 109.923L104.142 108.685L107.212 100.527L103.923 102.348Z" fill="#1D2C5E"/>
<path d="M67.3742 133.74L64.0117 136.071C64.0117 136.071 64.7427 139.858 65.693 142.481C66.6433 145.103 68.8362 147.215 68.8362 147.215C70.2982 148.599 71.9794 149.618 73.9531 150.201C77.6811 151.294 81.9208 150.565 85.5757 148.235C86.526 147.652 87.8418 146.705 88.6459 145.904C85.064 148.089 67.3742 133.74 67.3742 133.74Z" fill="url(#paint5_linear_133_490)"/>
<path d="M85.5749 117.207L88.645 151.221L101.364 149.4L104.727 147.652L89.0105 115.167L85.7942 116.26L82.4316 117.935L85.5749 117.207Z" fill="#1D2C5E"/>
<path d="M38.0609 129.006L52.242 160.981L65.6921 156.684L68.9815 154.498L41.0579 125.364L37.5492 127.476L34.7715 130.463L38.0609 129.006Z" fill="url(#paint6_linear_133_490)"/>
<path d="M178.336 144.083L178.555 145.685C179.725 145.54 180.894 145.394 181.991 145.03C183.234 144.593 185.865 143.427 186.815 142.553C186.377 142.699 180.236 144.301 178.336 144.083Z" fill="#1D2C5E"/>
<path d="M130.75 135.925L131.262 138.475C133.966 138.038 136.305 137.091 138.645 135.707C140.107 134.833 141.642 133.595 142.153 133.23C141.788 133.449 130.75 135.925 130.75 135.925Z" fill="#1D2C5E"/>
<path d="M55.9326 157.932L54.9092 155.601L41.4591 125.739L41.1667 125.156L40.5819 125.447L40.1433 125.666L37.7311 126.831C37.3656 126.248 36.7808 125.229 36.4153 124.573L31.0061 115.469L29.6172 113.065L31.9563 111.608C34.1493 110.225 36.6346 108.914 39.4124 107.748C44.8216 105.49 50.304 104.252 55.3478 104.252C57.0291 104.252 58.6372 104.398 60.0992 104.616C62.5845 104.908 64.9237 105.709 66.8242 107.02C69.6751 108.622 71.9411 111.099 73.1838 114.012C74.2072 116.416 74.4265 119.256 73.7686 122.17L73.4031 123.918L74.8651 122.898C75.8153 122.17 76.8387 121.587 77.9352 121.15C79.8357 120.349 81.8094 119.912 83.783 119.912C85.6836 119.912 87.438 120.276 89.0461 121.004L90.0695 121.441L89.9964 120.276L89.5578 115.396L89.4847 114.595L88.7537 114.813L86.4877 115.396L86.1222 107.093L102.789 101.776L102.642 108.258L103.885 108.549L107.54 101.63L118.432 111.244L118.87 111.681L119.309 111.244C120.771 109.86 122.598 108.695 124.572 107.894L125.376 107.53L124.791 106.801L122.818 104.398L135.317 90.0491L141.896 99.8091L131.882 105.199L129.689 106.364L132.247 106.437C136.999 106.51 141.238 108.549 144.089 112.045L145.113 113.356L145.77 114.158L144.674 115.323L143.943 116.124L141.458 118.819L141.019 119.329L141.531 119.766L143.87 121.878L144.747 122.679L144.966 121.514L145.844 115.979L146.063 114.522L146.282 113.065L147.598 104.835H160.025L160.098 104.252L160.317 102.868H171.136L173.767 119.329L173.913 120.422L174.79 119.766C175.887 118.965 177.057 118.382 178.299 117.872C179.98 117.217 181.662 116.925 183.416 116.925C185.463 116.925 187.436 117.362 189.118 118.309C189.191 118.309 189.191 118.382 189.337 118.455L190.141 118.746L190.214 117.872L190.434 116.051L190.507 115.469L189.922 115.323L187.729 114.813L187.656 106.219L204.395 109.86L205.638 116.051H206.954L208.27 110.734L222.231 114.085L207.904 156.985L197.743 153.78L197.67 149.847V149.265L197.085 149.192L186.925 147.735L187.51 142.564L187.656 141.325L186.559 141.908C186.048 142.199 185.536 142.418 185.024 142.564C183.343 143.219 181.662 143.51 179.98 143.51C179.469 143.51 179.03 143.51 178.518 143.438L177.641 143.365L177.788 144.239L178.518 148.755L163.68 146.133L162.875 139.432L162.656 137.247L161.633 139.14L159.952 142.418L156.808 136.664L155.858 134.916L155.566 136.882L154.908 141.325L141.896 139.286L142.92 133.168L143.139 131.784L141.896 132.512C139.776 133.751 137.291 134.77 134.44 135.426C133.417 135.644 132.393 135.863 131.297 135.936L130.712 136.008V148.245L105.128 135.644L104.177 135.207V147.079L92.701 148.755L92.1894 143.583L92.0432 142.199L91.0198 143.146C89.4847 144.603 87.8035 145.768 85.976 146.57C84.0754 147.371 82.1018 147.808 80.2012 147.808C78.2276 147.808 76.4001 147.371 74.7189 146.642C71.6487 145.186 69.3827 142.491 68.4324 139.068C67.9938 137.465 67.8476 135.79 68.0669 134.042L68.2862 132.221L66.9704 133.532C66.0202 134.406 64.9968 135.28 63.9003 136.081L63.5348 136.373L63.681 136.81L67.5552 151.522L68.2131 154.145L65.6547 154.946L58.4179 157.276L55.9326 157.932ZM59.1489 118.382C58.7834 118.382 58.4179 118.382 57.9793 118.455L57.4676 118.528L56.7367 118.674L56.956 119.402L57.1022 119.839L59.1489 126.613L59.3682 127.268L59.6606 128.215L60.3916 127.559L60.9033 127.122C62.95 125.302 63.6079 123.481 63.1693 121.15C62.8769 119.766 61.8535 119.111 61.1957 118.819C60.7571 118.528 59.953 118.382 59.1489 118.382ZM114.85 118.601L113.534 119.839L110.098 123.116L109.367 123.845L110.318 124.209L113.973 125.593L115.069 126.03L114.85 124.865C114.557 123.335 114.484 121.805 114.631 120.349L114.85 118.601ZM129.762 114.813C128.373 114.813 126.984 115.396 126.034 116.488C124.572 118.091 124.28 120.494 125.303 122.388L125.595 122.898L126.034 123.699L126.692 122.971L127.13 122.534L132.174 116.853L132.54 116.416L133.198 115.687L132.32 115.323L131.736 115.105C131.005 114.959 130.42 114.813 129.762 114.813Z" fill="#FFCB05"/>
<path d="M137.402 123.252L137.256 123.398C137.329 123.398 137.402 123.325 137.402 123.252Z" fill="#7D7F68"/>
<path d="M141.788 119.319L144.273 116.624L143.396 117.498V117.425L142.665 118.226L140.18 120.848L142.519 122.961L142.957 120.339L144.127 121.358L141.788 119.319Z" fill="#7D7F68"/>
<path d="M141.787 119.319L144.126 121.358L145.003 115.823L144.272 116.624L141.787 119.319Z" fill="#7D7F68"/>
<path d="M124.464 125.947C124.684 126.165 124.464 126.02 124.684 126.165L126.219 125.073C125.999 124.927 125.78 124.709 125.561 124.563C123.368 122.524 123.953 118.008 125.342 115.531C121.54 118.59 121.76 123.252 124.464 125.947Z" fill="#C7A008"/>
<path d="M142.957 128.496C140.399 130.608 137.548 131.919 133.747 132.866C132.943 133.085 132.065 133.23 131.334 133.23C125.267 133.813 120.224 131.045 118.323 126.602C118.104 126.093 117.884 125.51 117.738 124.927C116.861 121.14 117.592 117.789 119.493 115.094C119.712 114.803 119.858 114.584 120.077 114.366C120.004 114.439 119.858 114.512 119.785 114.584C119.054 115.24 118.396 115.896 117.884 116.697C115.984 119.319 115.253 122.742 116.13 126.53C116.276 127.112 116.422 127.695 116.715 128.205C118.615 132.721 123.732 135.488 129.726 134.906C130.53 134.833 131.334 134.687 132.212 134.469C136.013 133.522 138.937 132.211 141.422 130.098C142.007 129.589 142.665 129.006 143.249 128.423L143.176 128.35C143.03 128.423 142.957 128.423 142.957 128.496Z" fill="#C7A008"/>
<path d="M100.341 117.061L107.066 107.592L106.773 107.374L100.268 116.478L100.341 117.061Z" fill="#C7A008"/>
<path d="M145.004 115.823L144.127 121.358L142.957 120.339L142.519 122.961L140.18 120.848L142.665 118.226L143.396 117.425V117.498L144.273 116.624L145.004 115.823Z" fill="#C7A008"/>
<path d="M136.671 100.236L139.01 99.2162L134.697 93.6807L133.309 95.7201L136.671 100.236Z" fill="#C7A008"/>
<path d="M71.1749 113.929C60.2102 100.673 40.5467 107.811 33.5293 114.002L33.8217 114.512C35.4299 113.565 37.1842 112.764 38.9386 111.962C45.956 108.976 52.6811 108.102 58.0172 109.049C59.9178 109.267 61.8914 109.85 63.6458 111.016C66.0581 112.399 67.8855 114.293 68.982 116.77C70.8825 121.14 69.2013 126.967 64.7423 131.774C70.3709 126.602 74.2451 121.65 71.1749 113.929Z" fill="#C7A008"/>
<path d="M93.4701 129.37C93.397 129.152 93.397 128.86 93.3239 128.642C92.7391 126.457 91.4233 124.709 89.669 123.543C86.8912 121.65 82.9439 121.285 79.0697 122.888C77.023 123.762 75.2686 125.146 73.8066 126.748C74.9031 125.801 76.1458 125.073 77.4616 124.49C81.3358 122.815 85.2831 123.252 88.0608 125.146C89.8152 126.311 91.1309 128.059 91.7157 130.244C91.7888 130.463 91.8619 130.754 91.8619 130.973C92.0081 131.847 92.0812 132.648 92.0812 133.522C92.0081 136.071 91.0578 138.62 89.5228 140.805C89.3035 141.17 89.0111 141.461 88.7187 141.825C89.5959 141.024 90.4 140.223 91.0578 139.276C92.666 137.091 93.5432 134.541 93.6894 131.992C93.6894 131.118 93.6163 130.244 93.4701 129.37Z" fill="#C7A008"/>
<path d="M82.7248 126.165C82.7248 126.165 84.333 124.563 84.2599 124.563C82.2862 124.49 81.409 126.384 81.3359 126.53C81.7745 126.311 82.2131 126.238 82.7248 126.165Z" fill="#C7A008"/>
<path d="M86.4528 128.423C86.5259 128.715 86.599 128.933 86.599 129.224C86.599 129.661 86.5259 130.026 86.3066 130.39C86.599 130.244 88.9382 129.079 88.061 126.748C88.1341 126.894 86.3797 128.423 86.4528 128.423Z" fill="#C7A008"/>
<path d="M77.3875 129.807C77.3875 128.86 79.0687 126.457 79.5804 125.656C76.9489 127.331 75.7793 129.589 75.7793 131.337C75.7793 134.396 78.4839 136.872 81.7003 136.872C83.2353 136.872 86.0131 136.071 87.8405 133.158C86.8902 133.813 84.478 135.27 83.1622 135.27C79.9459 135.27 77.3875 132.866 77.3875 129.807Z" fill="#C7A008"/>
<path d="M99.9746 132.575L100.048 144.884L102.021 145.03L101.583 130.973L99.9746 132.575Z" fill="#C7A008"/>
<path d="M88.7188 109.049V110.141L98.0753 107.374L98.7332 119.246L100.341 117.061L99.9759 105.189L88.7188 109.049Z" fill="#C7A008"/>
<path d="M116.862 113.273L108.163 105.262L107.066 107.592L114.815 114.803L116.862 113.273Z" fill="#C7A008"/>
<path d="M115.546 128.205L105.239 124.781L103.777 126.384L114.011 130.463C115.181 132.648 116.935 134.541 119.128 135.853C121.248 137.164 123.733 137.965 126.292 138.183V143.209L127.9 144.01L128.411 136.435L115.546 128.205Z" fill="#C7A008"/>
<path d="M132.066 126.821C134.624 126.238 136.013 124.927 137.329 123.47C136.379 124.272 131.7 125.291 130.896 125.51L129.361 127.185C130.019 127.185 131.189 127.039 132.066 126.821Z" fill="#C7A008"/>
<path d="M127.46 109.34C122.782 109.923 120.369 113.856 120.004 114.293C121.758 112.836 123.878 111.744 126.29 111.234C132.065 109.85 137.109 111.598 140.252 115.458L142.226 113.856C139.083 110.069 133.235 107.956 127.46 109.34Z" fill="#C7A008"/>
<path d="M143.104 128.35C143.689 127.913 144.639 127.404 145.224 126.821L139.011 121.285C138.499 121.868 138.134 122.815 137.549 123.252L143.104 128.35Z" fill="#C7A008"/>
<path d="M175.047 143.209C168.541 137.819 168.907 126.384 172.123 122.742L169.272 104.752L162.986 105.553L162.693 107.155H167.445L170.003 123.47C166.787 127.112 165.252 131.992 166.275 136.508C167.079 140.004 169.272 142.772 172.342 144.374C172.635 144.52 173 144.666 173.293 144.811L173.366 145.03L175.266 145.321C175.193 145.394 175.412 143.355 175.047 143.209Z" fill="#C7A008"/>
<path d="M149.974 107.374L149.682 108.976H156.845L158.965 120.557L160.573 118.955L158.892 106.718L149.974 107.374Z" fill="#C7A008"/>
<path d="M162.255 129.807L159.916 135.78L160.501 137.382L163.79 128.278L162.255 129.807Z" fill="#C7A008"/>
<path d="M155.384 126.093L153.776 127.695L152.021 138.475L153.703 139.057L155.384 126.093Z" fill="#C7A008"/>
<path d="M187.62 122.596C188.571 123.252 189.375 124.126 189.959 125.146C190.471 125.947 190.764 126.748 191.056 127.768C191.86 131.045 190.91 134.541 188.863 137.309C188.644 137.601 188.424 137.892 188.205 138.11C189.009 137.382 199.243 129.88 189.302 120.047C178.337 116.478 174.17 123.543 173.805 124.053C174.974 123.106 176.29 122.232 177.752 121.722C181.407 120.266 185.062 120.776 187.62 122.596Z" fill="#C7A008"/>
<path d="M182.138 123.325C182.138 123.398 183.746 121.722 183.746 121.722C181.772 121.795 180.822 122.742 180.968 123.179C180.822 123.325 180.749 123.543 180.676 123.689C181.041 123.47 181.845 123.325 182.138 123.325Z" fill="#C7A008"/>
<path d="M185.794 125.801C185.867 126.093 185.867 126.311 185.867 126.602C185.867 126.967 185.72 127.331 185.574 127.622C185.867 127.476 188.206 126.748 187.329 124.126C187.402 124.272 185.72 125.801 185.794 125.801Z" fill="#C7A008"/>
<path d="M180.603 134.032C182.796 134.104 185.282 132.793 187.036 130.39C182.577 131.337 177.826 123.835 178.264 123.106C176.583 124.344 175.048 126.675 174.975 128.35C174.829 131.41 177.387 133.886 180.603 134.032Z" fill="#C7A008"/>
<path d="M205.236 153.479L206.26 154.134L219.125 115.677L209.476 113.492L209.403 115.75L217.151 117.425L205.236 153.479Z" fill="#C7A008"/>
<path d="M189.959 109.34L190.032 111.525L200.266 113.565L204.213 132.211L205.821 130.608L202.02 111.744L189.959 109.34Z" fill="#C7A008"/>
<path d="M197.855 130.608L195.004 146.487L196.612 146.996L199.463 129.006L197.855 130.608Z" fill="#C7A008"/>
<path d="M65.035 152.313L60.2837 134.979L58.5293 136.217L62.9883 152.75L65.035 152.313Z" fill="#C7A008"/>
<path d="M63.7918 126.311C62.6953 127.476 60.21 129.734 58.8211 130.608L57.9439 127.913L56.1165 121.941L54.9469 117.935L53.7773 119.392L54.9469 123.398L56.7744 129.297L57.6516 131.992C59.6252 130.9 62.4029 128.569 63.7918 126.311Z" fill="#C7A008"/>
<path d="M131.626 116.041C130.091 115.458 127.971 115.604 126.802 116.915C126.509 117.207 125.998 117.935 125.852 118.299C126.948 117.425 128.995 117.207 130.237 117.716L131.626 116.041Z" fill="#7D7F68"/>
<path d="M62.4755 121.431C62.3293 120.557 61.4521 119.829 61.0135 119.61C60.2825 119.246 58.8936 119.173 57.9434 119.392C58.0896 119.974 58.3088 120.703 58.3819 120.994C58.7474 121.067 59.4053 121.14 59.7708 121.285C60.2094 121.504 60.9404 121.941 61.0866 122.888C61.3059 124.053 61.2328 125.219 60.7211 126.093C62.11 124.781 62.7678 123.325 62.4755 121.431Z" fill="#7D7F68"/>
<path d="M64.8507 121.368C64.1928 117.872 59.5876 115.906 54.9824 118.382L56.152 122.388L57.9795 128.361L58.8566 131.056C62.2923 128.943 65.7279 126.248 64.8507 121.368ZM60.3186 126.831C59.8069 125.229 58.7104 121.733 58.7104 121.733C58.7104 121.733 58.4911 121.004 58.1987 120.13C59.149 119.985 60.0993 120.057 60.8303 120.422C61.2689 120.64 61.9999 121.077 62.1461 122.024C62.5847 123.918 61.9268 125.374 60.3186 126.831Z" fill="#3C5AA6"/>
<path d="M134.002 115.833C131.443 113.502 127.496 113.648 125.157 116.197C122.818 118.746 122.964 122.679 125.522 125.01C125.742 125.229 125.961 125.374 126.18 125.52L134.44 116.197C134.294 116.124 134.148 115.979 134.002 115.833ZM126.253 122.388C125.449 120.931 125.595 119.038 126.838 117.727C128.008 116.488 129.762 116.124 131.297 116.707L126.253 122.388Z" fill="#3567B0"/>
<path d="M145.005 114.803L140.473 119.173L144.785 123.033L145.005 114.803Z" fill="#1E2D5F"/>
<path d="M187.327 124.199C187.401 124.49 187.401 124.781 187.401 125.073C187.327 126.821 185.719 128.132 183.746 128.059C181.772 127.986 180.237 126.53 180.31 124.781C180.383 123.179 181.845 121.868 183.599 121.795C183.234 121.722 182.868 121.65 182.503 121.65C179.214 121.504 176.582 123.835 176.436 126.675C176.29 129.734 178.775 132.284 181.991 132.356C185.281 132.502 187.912 130.171 188.058 127.112C188.278 126.093 187.912 125.073 187.327 124.199Z" fill="#3466AF"/>
<path d="M88.2064 127.695C88.2064 129.443 86.5982 130.827 84.6977 130.827C82.724 130.827 81.189 129.443 81.189 127.695C81.189 126.093 82.5778 124.709 84.4053 124.563C84.0398 124.49 83.6743 124.49 83.3088 124.49C80.0194 124.49 77.4609 126.894 77.4609 129.807C77.4609 132.866 80.0194 135.27 83.2357 135.27C86.5251 135.27 89.0836 132.866 89.0836 129.807C89.0836 128.715 88.7181 127.768 88.1333 126.894C88.1333 127.112 88.2064 127.404 88.2064 127.695Z" fill="url(#paint7_linear_133_490)"/>
<path d="M207.686 110.079L206.224 116.051L204.908 109.423L186.926 105.49L187.072 115.469L189.777 116.051L189.557 117.872C189.557 117.872 189.484 117.872 189.484 117.799C186.122 116.051 181.955 115.833 178.081 117.362C176.765 117.872 175.523 118.528 174.426 119.329L171.721 102.285H159.806L159.514 104.252H146.941L145.479 112.992L144.456 111.681C141.386 107.967 137 105.927 132.102 105.782L142.774 100.1L135.318 89.0294L121.868 104.471L124.207 107.311C122.088 108.185 120.26 109.351 118.725 110.807L107.176 100.61L103.155 108.258L103.301 100.829L85.2461 106.583L85.7578 116.197L88.8279 115.396L89.2665 120.276C85.7578 118.673 81.5181 118.746 77.6438 120.422C76.4743 120.931 75.3778 121.514 74.4275 122.242C75.0854 119.256 74.9392 116.343 73.7696 113.721C72.4539 110.662 70.0416 108.039 67.1908 106.437C65.144 105.053 62.7318 104.252 60.1733 103.961C53.96 102.868 46.4309 103.961 39.0479 107.093C36.3433 108.258 33.7849 109.569 31.5188 111.026L28.668 112.847L30.4223 115.76L35.8316 124.937L37.5129 127.705L40.4368 126.248L40.8754 126.03L54.3255 155.893L55.6413 158.733L58.6383 157.786L65.875 155.456L69.0913 154.436L68.2873 151.231L64.4131 136.518C65.5095 135.717 66.5329 134.843 67.4832 133.896C67.2639 135.644 67.4101 137.465 67.8487 139.14C68.872 142.709 71.2112 145.55 74.5006 147.079C78.0093 148.755 82.3221 148.755 86.2695 147.079C88.2431 146.205 90.0706 145.04 91.5325 143.51L92.0442 149.41L104.763 147.516V136.154L131.298 149.264V136.664C132.394 136.591 133.418 136.373 134.514 136.154C137.438 135.426 139.924 134.479 142.19 133.168L141.093 139.942L155.42 142.199L156.225 137.028L159.953 143.947L162.219 139.577L163.023 146.788L179.251 149.629L178.373 144.166C180.566 144.385 182.905 144.093 185.171 143.292C185.683 143.073 186.268 142.855 186.707 142.564L186.049 148.39L196.867 149.92L196.94 154.363L208.197 157.859L222.89 113.794L207.686 110.079ZM144.236 116.634L144.967 115.833L144.09 121.368L141.751 119.256L144.236 116.634ZM134.734 93.9094L138.681 99.2264L127.424 104.762L126.62 103.597C126.62 103.669 134.734 93.9094 134.734 93.9094ZM60.2464 134.989L64.7054 152.178L57.4687 154.509L42.5567 121.296C41.7526 121.733 40.2175 122.461 38.9017 123.116L33.4925 114.012C35.6123 112.628 38.0246 111.463 40.5099 110.37C47.5273 107.384 54.2524 106.51 59.5886 107.457C61.4891 107.675 63.4628 108.258 65.2171 109.423C67.6294 110.807 69.4568 112.701 70.5533 115.177C73.1849 121.15 68.872 129.745 60.2464 134.989ZM93.6524 131.93C93.5793 134.479 92.629 137.028 91.0208 139.213C89.4858 141.325 87.439 143.001 84.9537 144.093C78.6672 146.788 72.3808 144.093 70.6995 138.121C69.0913 132.367 72.8925 125.52 78.9596 122.898C82.8338 121.223 86.7811 121.66 89.5589 123.553C91.3132 124.719 92.629 126.467 93.2138 128.652C93.2869 128.87 93.36 129.162 93.36 129.38C93.6524 130.254 93.6524 131.128 93.6524 131.93ZM127.935 144.093L101.547 130.983L101.62 144.749L94.822 145.696L94.3103 140.014C96.4301 136.445 97.1611 132.148 96.0646 128.288C95.4798 126.176 94.3834 124.282 92.8483 122.825L91.898 111.244L88.8279 112.045L88.6817 109.132L99.6464 105.854L100.304 117.071L108.345 105.782L116.313 113.284L105.275 124.865L115.655 128.943C116.825 131.128 118.579 132.949 120.772 134.333C122.892 135.644 125.377 136.445 127.935 136.664V144.093ZM114.266 125.01L110.611 123.626L114.047 120.349C113.828 121.878 113.901 123.408 114.266 125.01ZM142.921 128.506C140.362 130.619 137.511 131.93 133.71 132.876C132.906 133.095 132.029 133.241 131.298 133.241C125.231 133.823 120.187 131.056 118.287 126.613C118.067 126.103 117.848 125.52 117.702 124.937C116.825 121.15 117.556 117.799 119.456 115.105C119.968 114.303 120.626 113.648 121.357 112.992C123.111 111.39 125.377 110.297 127.935 109.642C133.71 108.258 138.754 110.006 141.897 113.794L130.933 125.447C131.664 125.593 132.833 125.374 133.71 125.156C136.342 124.5 137.804 123.116 139.046 121.66L143.432 125.593L144.748 126.758C144.163 127.414 143.579 127.996 142.921 128.506ZM166.239 144.02L163.827 128.288L160.464 136.955L155.42 126.103H155.347L153.374 138.703L144.967 137.247L146.137 130.254C146.429 129.963 146.795 129.672 147.087 129.308L149.792 126.54L147.16 124.136L150.011 107.384H158.491L160.61 118.965L163.023 105.563H169.09L171.648 121.878C168.432 125.52 166.897 130.4 167.92 134.916C168.724 138.412 170.917 141.18 173.987 142.855C174.28 143.001 174.645 143.146 174.938 143.292L175.23 145.404L166.239 144.02ZM187.218 138.849C186.268 139.505 185.245 140.087 184.148 140.451C181.955 141.253 179.835 141.471 177.862 141.034C176.546 140.743 175.303 140.233 174.207 139.505C172.525 138.266 171.283 136.518 170.698 134.26C170.04 131.565 170.625 128.652 172.087 126.103C172.818 124.865 173.768 123.699 174.865 122.679C176.107 121.587 177.569 120.64 179.104 120.057C182.832 118.673 186.487 119.183 189.046 121.004C189.996 121.66 190.8 122.534 191.385 123.553C191.823 124.355 192.189 125.229 192.408 126.176C193.212 129.453 192.262 132.949 190.215 135.717C189.557 136.955 188.461 137.975 187.218 138.849ZM206.224 153.707L200.01 151.887L199.499 129.016L196.356 146.642L189.557 145.55L190.069 140.451C194.528 136.737 196.867 130.837 195.551 125.447C194.967 123.116 193.797 121.004 192.043 119.475L192.628 113.502L190.069 112.847L190.142 109.642L201.838 111.973L205.785 130.546L209.806 113.866L218.724 115.833L206.224 153.707Z" fill="url(#paint8_linear_133_490)"/>
<path d="M214.594 151.148H214.886C215.252 151.148 215.544 151.002 215.544 150.638C215.544 150.42 215.325 150.128 214.886 150.128H214.594V151.148ZM214.594 152.678H214.155V149.91C214.374 149.837 214.594 149.837 214.959 149.837C215.398 149.837 215.69 149.91 215.836 150.055C215.983 150.201 216.129 150.347 216.129 150.638C216.129 151.002 215.909 151.221 215.617 151.294C215.836 151.367 216.056 151.585 216.056 151.949C216.129 152.386 216.202 152.532 216.202 152.605H215.763C215.69 152.532 215.617 152.241 215.544 151.876C215.471 151.512 215.325 151.367 214.959 151.367H214.594V152.678ZM215.105 149.109C214.009 149.109 213.132 150.055 213.132 151.221C213.132 152.386 214.009 153.333 215.178 153.333C216.275 153.333 217.152 152.386 217.152 151.221C217.079 150.055 216.202 149.109 215.105 149.109ZM215.105 148.744C216.494 148.744 217.518 149.837 217.518 151.221C217.518 152.605 216.421 153.697 215.032 153.697C213.643 153.697 212.547 152.605 212.547 151.221C212.62 149.837 213.716 148.744 215.105 148.744Z" fill="black"/>
<defs>
<linearGradient id="paint0_linear_133_490" x1="35.7221" y1="128.004" x2="28.4399" y2="114.385" gradientUnits="userSpaceOnUse">
<stop stop-color="#0070B6"/>
<stop offset="1" stop-color="#1D2C5E"/>
</linearGradient>
<linearGradient id="paint1_linear_133_490" x1="125.029" y1="100.226" x2="134.288" y2="90.2693" gradientUnits="userSpaceOnUse">
<stop stop-color="#0070B6"/>
<stop offset="1" stop-color="#1D2C5E"/>
</linearGradient>
<linearGradient id="paint2_linear_133_490" x1="84.4809" y1="116.77" x2="83.3806" y2="107.491" gradientUnits="userSpaceOnUse">
<stop stop-color="#0070B6"/>
<stop offset="1" stop-color="#1D2C5E"/>
</linearGradient>
<linearGradient id="paint3_linear_133_490" x1="186.01" y1="114.984" x2="185.571" y2="106.609" gradientUnits="userSpaceOnUse">
<stop stop-color="#125D9E"/>
<stop offset="1" stop-color="#1D2C5E"/>
</linearGradient>
<linearGradient id="paint4_linear_133_490" x1="154.99" y1="102.913" x2="145.286" y2="118.406" gradientUnits="userSpaceOnUse">
<stop stop-color="#125D9E"/>
<stop offset="1" stop-color="#1D2C5E"/>
</linearGradient>
<linearGradient id="paint5_linear_133_490" x1="68.6681" y1="127.712" x2="75.2806" y2="140.763" gradientUnits="userSpaceOnUse">
<stop stop-color="#105FA1"/>
<stop offset="1" stop-color="#1D2C5E"/>
</linearGradient>
<linearGradient id="paint6_linear_133_490" x1="43.5733" y1="123.264" x2="51.2239" y2="141.063" gradientUnits="userSpaceOnUse">
<stop stop-color="#105FA1"/>
<stop offset="1" stop-color="#1D2C5E"/>
</linearGradient>
<linearGradient id="paint7_linear_133_490" x1="77.3549" y1="129.868" x2="88.9988" y2="129.868" gradientUnits="userSpaceOnUse">
<stop stop-color="#3C5AA6"/>
<stop offset="0.933" stop-color="#2B73B9"/>
<stop offset="1" stop-color="#2A75BB"/>
</linearGradient>
<linearGradient id="paint8_linear_133_490" x1="28.7243" y1="123.897" x2="222.978" y2="123.897" gradientUnits="userSpaceOnUse">
<stop stop-color="#3C5AA6"/>
<stop offset="0.933" stop-color="#2B73B9"/>
<stop offset="1" stop-color="#2A75BB"/>
</linearGradient>
</defs>
</svg>
