<svg width="250" height="250" viewBox="0 0 250 250" fill="none" xmlns="http://www.w3.org/2000/svg">
<path d="M52 142.394L76.2666 166.551H52V142.394ZM52 136.354L82.3333 166.551H106.6L52 112.197V136.354ZM52 106.157L112.666 166.551H136.933L52 82V106.157ZM82.3333 106.157L143 166.551V142.394L82.3333 82V106.157ZM112.666 82V106.157L143 136.354V112.197L112.666 82Z" fill="#F0BD4E"/>
<path d="M197.599 156.888C191.382 156.888 185.422 154.429 181.029 150.056L147.289 116.468V166.551H197.599V156.888Z" fill="black"/>
<path d="M161.85 156.888C164.53 156.888 166.703 154.725 166.703 152.057C166.703 149.388 164.53 147.225 161.85 147.225C159.169 147.225 156.996 149.388 156.996 152.057C156.996 154.725 159.169 156.888 161.85 156.888Z" fill="white"/>
<path d="M52 166.551H76.2666L52 142.394V166.551Z" fill="#2A4FF2"/>
<path d="M82.3333 112.197L52 82V106.157L82.3333 136.354V112.197Z" fill="#2A4FF2"/>
<path d="M52 112.197V136.354L82.3333 166.551V142.393L52 112.197Z" fill="#2A4FF2"/>
<path d="M112.665 112.197L82.332 82V106.157L112.665 136.354V112.197Z" fill="#E15B28"/>
<path d="M82.332 166.551H106.598L82.332 142.394V166.551Z" fill="#E15B28"/>
<path d="M82.332 112.197V136.354L112.665 166.551V142.393L82.332 112.197Z" fill="#E15B28"/>
</svg>
