<svg xmlns="http://www.w3.org/2000/svg" width="250" height="250" fill="none"><path fill="#F0BD4E" d="m3 154.124 40.555 40.45H3v-40.45Zm0-10.113 50.694 50.563h40.555L3 103.562v40.449ZM3 93.45l101.388 101.124h40.555L3 53v40.45Zm50.694 0 101.388 101.124v-40.45L53.694 53v40.45ZM104.388 53v40.45l50.694 50.561v-40.449L104.388 53Z"/><path fill="#000" d="M246.329 178.394a39.215 39.215 0 0 1-27.691-11.439l-56.388-56.242v83.86h84.079v-16.179Z"/><path fill="#fff" d="M186.584 178.394c4.48 0 8.111-3.622 8.111-8.09s-3.631-8.09-8.111-8.09-8.111 3.622-8.111 8.09 3.631 8.09 8.111 8.09Z"/><path fill="#2A4FF2" d="M3 194.574h40.555L3 154.124v40.45Zm50.694-91.012L3 53v40.45l50.694 50.561v-40.449Zm-50.694 0v40.449l50.694 50.562v-40.449L3 103.562Z"/><path fill="#E15B28" d="M104.385 103.562 53.691 53v40.45l50.694 50.561v-40.449Zm-50.694 91.012h40.555l-40.555-40.45v40.45Zm0-91.012v40.449l50.694 50.562v-40.449l-50.694-50.562Z"/></svg>