<svg xmlns="http://www.w3.org/2000/svg" width="157" height="30" fill="none"><g clip-path="url(#a)"><path fill="#1D4AFF" d="M10.891 17.206a1 1 0 0 1-1.788 0l-.882-1.763a1 1 0 0 1 0-.894l.882-1.763a1 1 0 0 1 1.788 0l.882 1.763a1 1 0 0 1 0 .894l-.882 1.763zm0 9.997a1 1 0 0 1-1.788 0L8.22 25.44a1 1 0 0 1 0-.894l.882-1.763a1 1 0 0 1 1.788 0l.882 1.763a1 1 0 0 1 0 .894l-.882 1.763z"/><path fill="#F9BD2B" d="M0 23.408c0-.89 1.077-1.337 1.707-.707l4.583 4.583c.63.63.184 1.708-.707 1.708H1a1 1 0 0 1-1-1v-4.584zm0-4.828a1 1 0 0 0 .293.708l9.411 9.41a1 1 0 0 0 .707.294h5.17c.89 0 1.337-1.077.707-1.707l-14.58-14.58C1.077 12.074 0 12.52 0 13.41v5.17zm0-9.997a1 1 0 0 0 .293.707L19.7 28.7a1 1 0 0 0 .707.293h5.17c.89 0 1.337-1.078.707-1.708L1.707 2.707C1.077 2.077 0 2.523 0 3.414v5.17zm9.997 0a1 1 0 0 0 .293.707l17.994 17.995c.63.63 1.707.183 1.707-.708v-5.169a1 1 0 0 0-.293-.707L11.704 2.707c-.63-.63-1.707-.184-1.707.707v5.17zm11.704-5.876c-.63-.63-1.707-.184-1.707.707v5.17a1 1 0 0 0 .293.706l7.997 7.998c.63.63 1.707.183 1.707-.708v-5.169a1 1 0 0 0-.293-.707l-7.997-7.997z"/><path fill="#000" d="m42.525 23.53-9.413-9.412c-.63-.63-1.707-.184-1.707.707v13.167a1 1 0 0 0 1 1h14.58a1 1 0 0 0 1-1v-1.2c0-.552-.449-.993-.997-1.064a7.723 7.723 0 0 1-4.463-2.197zm-6.321 2.263a1.6 1.6 0 1 1 0-3.2 1.6 1.6 0 0 1 0 3.2z"/><path fill="#1D4AFF" d="M0 27.992a1 1 0 0 0 1 1h4.583c.891 0 1.337-1.078.707-1.708l-4.583-4.583c-.63-.63-1.707-.184-1.707.707v4.584zm9.997-16.995-8.29-8.29C1.077 2.077 0 2.523 0 3.414v5.17a1 1 0 0 0 .293.706l9.704 9.705v-7.998zm-8.29 1.707c-.63-.63-1.707-.184-1.707.707v5.17a1 1 0 0 0 .293.706l9.704 9.705v-7.998l-8.29-8.29z"/><path fill="#F54E00" d="M19.994 11.411a1 1 0 0 0-.293-.707l-7.997-7.997c-.63-.63-1.707-.184-1.707.707v5.17a1 1 0 0 0 .293.706l9.704 9.705V11.41zm-9.997 17.58h5.583c.891 0 1.337-1.077.707-1.707l-6.29-6.29v7.998zm0-17.994v7.583a1 1 0 0 0 .293.708l9.704 9.704v-7.584a1 1 0 0 0-.293-.707l-9.704-9.704z"/><path fill="#000" d="M59.65 25h4.108v-6.812h3.432c3.77 0 6.188-2.236 6.188-5.694 0-3.458-2.418-5.694-6.188-5.694h-7.54V25zm4.108-10.322V10.31h3.016c1.56 0 2.496.832 2.496 2.184 0 1.352-.936 2.184-2.496 2.184h-3.016zm17.051 10.53c4.005 0 6.917-2.86 6.917-6.76s-2.913-6.76-6.917-6.76c-4.055 0-6.915 2.86-6.915 6.76s2.86 6.76 6.915 6.76zm-3.12-6.76c0-2.08 1.249-3.51 3.12-3.51 1.847 0 3.095 1.43 3.095 3.51s-1.249 3.51-3.095 3.51c-1.871 0-3.12-1.43-3.12-3.51zm16.61 6.76c3.068 0 5.148-1.924 5.148-4.186 0-5.304-7.046-3.588-7.046-5.668 0-.572.598-.936 1.456-.936.884 0 1.95.546 2.288 1.742l3.068-1.274c-.598-1.898-2.808-3.198-5.486-3.198-2.886 0-4.68 1.716-4.68 3.77 0 4.966 6.942 3.588 6.942 5.642 0 .728-.676 1.222-1.69 1.222-1.456 0-2.47-1.014-2.782-2.236l-3.067 1.196c.675 1.976 2.651 3.926 5.85 3.926zm15.031-.338-.26-3.302c-.442.234-1.014.312-1.482.312-.936 0-1.56-.676-1.56-1.846v-4.966h3.172v-3.172h-3.172V8.1h-3.822v3.796h-2.08v3.172h2.08v5.46c0 3.172 2.158 4.68 4.992 4.68.78 0 1.508-.13 2.132-.338zM122.656 6.8v7.072h-7.228V6.8h-4.108V25h4.108v-7.618h7.228V25h4.134V6.8h-4.134zm13.252 18.408c4.004 0 6.916-2.86 6.916-6.76s-2.912-6.76-6.916-6.76c-4.056 0-6.916 2.86-6.916 6.76s2.86 6.76 6.916 6.76zm-3.12-6.76c0-2.08 1.248-3.51 3.12-3.51 1.846 0 3.094 1.43 3.094 3.51s-1.248 3.51-3.094 3.51c-1.872 0-3.12-1.43-3.12-3.51zm17.413 6.136c1.43 0 2.704-.494 3.38-1.352v1.248c0 1.456-1.17 2.47-2.964 2.47-1.274 0-2.392-.624-2.574-1.69l-3.484.546c.468 2.47 2.99 4.134 6.058 4.134 4.03 0 6.708-2.366 6.708-5.876V11.896h-3.77v1.118c-.702-.806-1.898-1.326-3.432-1.326-3.64 0-5.928 2.496-5.928 6.448 0 3.952 2.288 6.448 6.006 6.448zm-2.288-6.448c0-1.95 1.144-3.198 2.912-3.198 1.794 0 2.938 1.248 2.938 3.198s-1.144 3.198-2.938 3.198c-1.768 0-2.912-1.248-2.912-3.198z"/></g><defs><clipPath id="a"><path fill="#fff" d="M0 0h157v30H0z"/></clipPath></defs></svg>