<svg id="svg" version="1.1" xmlns="http://www.w3.org/2000/svg" xmlns:xlink="http://www.w3.org/1999/xlink" width="400" height="400" viewBox="0, 0, 400,400"><g id="svgg"><path id="path0" d="M45.225 136.933 C 45.208 153.495,45.332 161.223,45.613 161.129 C 46.153 160.949,46.168 114.891,45.629 113.545 C 45.385 112.935,45.242 121.215,45.225 136.933 M57.600 173.000 C 57.600 173.330,57.892 173.600,58.249 173.600 C 58.780 173.600,58.808 173.491,58.400 173.000 C 58.126 172.670,57.834 172.400,57.751 172.400 C 57.668 172.400,57.600 172.670,57.600 173.000 M108.719 198.848 C 108.828 219.554,108.785 221.354,108.155 222.050 C 107.779 222.465,107.545 222.855,107.636 222.916 C 107.726 222.977,108.115 223.267,108.500 223.562 C 109.165 224.071,109.200 222.900,109.200 200.249 C 109.200 187.132,109.065 176.400,108.900 176.400 C 108.735 176.400,108.653 186.501,108.719 198.848 M45.254 201.124 C 45.218 217.385,45.335 225.564,45.600 225.400 C 45.859 225.240,46.000 217.272,46.000 202.805 C 46.000 183.474,46.081 180.376,46.600 179.857 C 47.426 179.031,47.351 178.400,46.428 178.400 C 45.945 178.400,45.591 178.063,45.482 177.500 C 45.387 177.005,45.284 187.636,45.254 201.124 M249.048 185.315 C 248.324 185.845,248.202 289.584,248.924 290.700 C 249.180 291.096,260.277 291.200,302.200 291.200 C 344.123 291.200,355.220 291.096,355.476 290.700 C 355.994 289.900,356.140 271.651,355.634 271.041 C 355.363 270.715,353.747 270.431,351.301 270.280 C 349.129 270.145,346.269 269.675,344.848 269.219 C 343.444 268.769,341.952 268.400,341.532 268.400 C 341.112 268.400,340.100 268.066,339.284 267.657 C 338.468 267.248,337.274 266.787,336.632 266.632 C 335.989 266.477,335.020 266.002,334.478 265.575 C 333.936 265.149,333.169 264.800,332.775 264.800 C 332.380 264.800,331.810 264.553,331.509 264.252 C 331.208 263.950,330.385 263.406,329.680 263.042 C 328.976 262.677,328.400 262.204,328.400 261.990 C 328.400 261.775,328.139 261.600,327.821 261.600 C 326.633 261.600,321.743 256.867,286.156 221.278 C 254.537 189.656,249.624 184.894,249.048 185.315 M73.600 189.000 C 73.600 189.330,73.892 189.600,74.249 189.600 C 74.780 189.600,74.808 189.491,74.400 189.000 C 74.126 188.670,73.834 188.400,73.751 188.400 C 73.668 188.400,73.600 188.670,73.600 189.000 M89.600 205.000 C 89.600 205.330,89.892 205.600,90.249 205.600 C 90.780 205.600,90.808 205.491,90.400 205.000 C 90.126 204.670,89.834 204.400,89.751 204.400 C 89.668 204.400,89.600 204.670,89.600 205.000 M105.600 221.000 C 105.600 221.330,105.892 221.600,106.249 221.600 C 106.780 221.600,106.808 221.491,106.400 221.000 C 106.126 220.670,105.834 220.400,105.751 220.400 C 105.668 220.400,105.600 220.670,105.600 221.000 M108.256 241.500 C 108.444 241.885,108.643 251.560,108.699 263.000 C 108.755 274.440,108.856 284.790,108.924 286.000 C 108.993 287.210,109.083 277.535,109.124 264.500 C 109.193 242.967,109.141 240.800,108.557 240.800 C 108.082 240.800,108.003 240.982,108.256 241.500 M45.225 265.733 C 45.208 281.658,45.333 289.222,45.611 289.130 C 45.883 289.039,46.051 281.741,46.111 267.430 C 46.180 250.599,46.310 245.830,46.700 245.700 C 47.396 245.468,47.326 244.534,46.590 244.252 C 46.255 244.123,45.817 243.609,45.616 243.109 C 45.389 242.545,45.241 251.123,45.225 265.733 M282.327 249.980 C 282.399 250.197,283.042 250.484,283.755 250.618 C 288.890 251.581,291.743 260.689,288.380 265.380 C 283.284 272.490,272.431 271.855,270.019 264.306 C 269.756 263.484,269.375 262.708,269.171 262.582 C 267.636 261.633,269.783 254.877,272.417 252.369 C 275.109 249.804,281.736 248.207,282.327 249.980 " stroke="none" fill="#112e97" fill-rule="evenodd"></path><path id="path1" d="M109.991 112.700 C 109.986 112.865,109.990 123.788,110.000 136.974 L 110.018 160.948 110.959 162.174 C 112.319 163.945,124.027 175.600,124.447 175.600 C 124.641 175.600,124.800 175.751,124.800 175.936 C 124.800 176.120,132.633 184.085,142.206 193.636 C 151.780 203.186,159.792 211.180,160.012 211.400 C 160.232 211.620,163.042 214.455,166.256 217.700 C 169.469 220.945,172.229 223.600,172.388 223.600 C 172.548 223.600,172.866 224.005,173.095 224.500 C 174.248 226.983,174.425 223.297,174.312 199.194 L 174.200 175.303 142.719 143.851 C 114.950 116.109,110.029 111.425,109.991 112.700 M109.140 199.984 C 109.107 213.413,109.062 224.572,109.040 224.782 C 109.001 225.158,113.988 230.287,126.864 243.109 C 130.459 246.690,133.616 249.840,133.881 250.109 C 134.145 250.379,134.595 250.816,134.881 251.081 C 135.166 251.345,135.604 251.795,135.853 252.081 C 136.102 252.366,139.252 255.529,142.853 259.109 C 146.454 262.690,149.616 265.840,149.881 266.109 C 150.145 266.379,150.595 266.811,150.881 267.068 C 151.166 267.326,156.341 272.507,162.379 278.581 C 168.787 285.027,173.575 289.542,173.879 289.425 C 175.202 288.917,174.475 238.800,173.145 238.800 C 172.680 238.800,168.400 234.463,168.400 233.991 C 168.400 233.776,168.235 233.600,168.034 233.600 C 167.526 233.600,157.600 223.716,157.600 223.210 C 157.600 222.984,157.424 222.800,157.209 222.800 C 156.699 222.800,152.400 218.501,152.400 217.991 C 152.400 217.776,152.228 217.600,152.019 217.600 C 151.512 217.600,145.200 211.300,145.200 210.794 C 145.200 210.577,145.014 210.400,144.787 210.400 C 144.249 210.400,141.600 207.751,141.600 207.213 C 141.600 206.986,141.416 206.800,141.191 206.800 C 140.707 206.800,136.400 202.429,136.400 201.938 C 136.400 201.752,136.228 201.600,136.019 201.600 C 135.512 201.600,129.200 195.300,129.200 194.794 C 129.200 194.577,129.009 194.400,128.774 194.400 C 128.540 194.400,124.320 190.395,119.396 185.500 C 114.472 180.605,110.163 176.368,109.821 176.084 C 109.261 175.619,109.194 177.958,109.140 199.984 M109.200 265.205 L 109.200 290.020 110.226 290.410 C 112.177 291.152,159.376 290.919,158.629 290.171 C 158.283 289.826,158.000 289.405,158.000 289.237 C 158.000 288.958,114.582 245.392,110.819 241.895 L 109.200 240.390 109.200 265.205 " stroke="none" fill="#f44b04" fill-rule="evenodd"></path><path id="path2" d="M108.942 110.508 C 108.754 110.779,108.650 122.340,108.711 136.200 L 108.823 161.400 149.311 201.741 C 171.580 223.929,195.165 247.419,201.722 253.941 C 208.279 260.463,214.247 266.430,214.984 267.200 C 225.060 277.728,237.644 289.662,238.191 289.208 C 238.724 288.765,238.800 285.619,238.800 263.860 L 238.800 239.018 206.700 206.862 C 104.349 104.334,109.622 109.531,108.942 110.508 M174.405 111.190 C 174.118 111.728,174.017 119.897,174.091 136.726 L 174.200 161.471 205.757 192.954 C 225.680 212.829,237.552 224.391,237.957 224.313 C 238.539 224.201,238.600 221.816,238.600 198.994 L 238.600 173.800 206.821 142.100 C 189.343 124.665,174.994 110.400,174.935 110.400 C 174.876 110.400,174.638 110.756,174.405 111.190 M142.719 143.851 L 174.200 175.303 174.312 199.194 C 174.425 223.297,174.248 226.983,173.095 224.500 C 172.866 224.005,172.548 223.600,172.388 223.600 C 172.229 223.600,169.469 220.945,166.256 217.700 C 163.042 214.455,160.232 211.620,160.012 211.400 C 159.792 211.180,151.780 203.186,142.206 193.636 C 132.633 184.085,124.800 176.120,124.800 175.936 C 124.800 175.751,124.641 175.600,124.447 175.600 C 124.027 175.600,112.319 163.945,110.959 162.174 L 110.018 160.948 110.000 136.974 C 109.990 123.788,109.986 112.865,109.991 112.700 C 110.029 111.425,114.950 116.109,142.719 143.851 M109.200 175.175 C 109.200 175.391,109.480 175.801,109.821 176.084 C 110.163 176.368,114.472 180.605,119.396 185.500 C 124.320 190.395,128.540 194.400,128.774 194.400 C 129.009 194.400,129.200 194.577,129.200 194.794 C 129.200 195.300,135.512 201.600,136.019 201.600 C 136.228 201.600,136.400 201.752,136.400 201.938 C 136.400 202.429,140.707 206.800,141.191 206.800 C 141.416 206.800,141.600 206.986,141.600 207.213 C 141.600 207.751,144.249 210.400,144.787 210.400 C 145.014 210.400,145.200 210.577,145.200 210.794 C 145.200 211.300,151.512 217.600,152.019 217.600 C 152.228 217.600,152.400 217.776,152.400 217.991 C 152.400 218.501,156.699 222.800,157.209 222.800 C 157.424 222.800,157.600 222.984,157.600 223.210 C 157.600 223.716,167.526 233.600,168.034 233.600 C 168.235 233.600,168.400 233.776,168.400 233.991 C 168.400 234.463,172.680 238.800,173.145 238.800 C 174.475 238.800,175.202 288.917,173.879 289.425 C 173.575 289.542,168.787 285.028,162.379 278.585 C 151.307 267.452,150.845 266.990,149.914 266.119 C 149.631 265.855,149.196 265.405,148.947 265.119 C 148.698 264.834,145.548 261.671,141.947 258.091 C 138.346 254.510,135.184 251.360,134.919 251.091 C 134.655 250.821,134.205 250.384,133.919 250.119 C 133.634 249.855,133.193 249.405,132.940 249.119 C 130.254 246.090,108.800 225.177,108.800 225.589 C 108.800 226.218,172.545 290.040,173.872 290.739 C 174.575 291.109,206.748 291.413,224.100 291.213 C 226.363 291.187,231.099 296.052,142.953 207.834 C 113.247 178.104,109.200 174.188,109.200 175.175 M109.200 239.954 C 109.200 240.194,109.929 241.067,110.819 241.895 C 114.582 245.392,158.000 288.958,158.000 289.237 C 158.000 289.405,158.283 289.826,158.629 290.171 C 159.540 291.083,111.645 291.132,109.900 290.221 C 108.961 289.731,108.800 289.730,108.800 290.210 C 108.800 290.519,109.151 290.960,109.579 291.189 C 110.799 291.842,160.081 291.559,160.301 290.898 C 160.393 290.621,149.571 279.508,136.253 266.202 C 111.105 241.077,109.200 239.228,109.200 239.954 " stroke="none" fill="#fbbc2b" fill-rule="evenodd"></path><path id="path3" d="M0.000 200.000 L 0.000 400.000 200.000 400.000 L 400.000 400.000 400.000 200.000 L 400.000 0.000 200.000 0.000 L 0.000 0.000 0.000 200.000 M142.662 142.747 C 160.228 160.325,189.045 189.177,206.700 206.862 L 238.800 239.018 238.800 263.860 C 238.800 285.619,238.724 288.765,238.191 289.208 C 237.644 289.662,225.060 277.728,214.984 267.200 C 214.247 266.430,208.279 260.463,201.722 253.941 C 195.165 247.419,171.580 223.929,149.311 201.741 L 108.823 161.400 108.711 136.200 C 108.650 122.340,108.754 110.779,108.942 110.508 C 109.547 109.638,110.180 110.243,142.662 142.747 M77.258 142.212 C 94.716 159.709,109.360 174.390,109.800 174.838 C 110.240 175.286,125.000 190.019,142.600 207.579 C 198.455 263.307,225.200 290.228,225.200 290.721 C 225.200 290.984,224.705 291.206,224.100 291.213 C 206.784 291.412,174.574 291.109,173.872 290.740 C 173.392 290.488,158.240 275.546,140.200 257.537 C 122.160 239.527,93.135 210.603,75.700 193.260 L 44.000 161.729 44.000 136.697 C 44.000 111.608,44.046 110.400,45.001 110.400 C 45.284 110.400,59.800 124.715,77.258 142.212 M206.821 142.100 L 238.600 173.800 238.600 198.994 C 238.600 221.816,238.539 224.201,237.957 224.313 C 237.552 224.391,225.680 212.829,205.757 192.954 L 174.200 161.471 174.091 136.726 C 173.991 114.070,174.109 110.400,174.935 110.400 C 174.994 110.400,189.343 124.665,206.821 142.100 M103.085 233.011 C 134.641 264.587,160.386 290.642,160.296 290.911 C 159.968 291.895,110.455 291.791,109.119 290.803 C 108.521 290.361,107.917 290.000,107.777 290.000 C 107.636 290.000,96.307 278.795,82.601 265.100 C 68.896 251.405,57.078 239.625,56.341 238.922 C 55.603 238.219,54.793 237.409,54.540 237.122 C 54.287 236.835,51.857 234.440,49.140 231.800 L 44.200 227.000 44.091 201.812 C 43.977 175.466,43.972 175.600,45.043 175.600 C 45.411 175.600,71.530 201.435,103.085 233.011 M287.261 221.723 C 307.797 242.250,324.870 259.170,325.200 259.323 C 325.530 259.475,326.610 260.229,327.600 260.998 C 328.590 261.768,329.850 262.590,330.399 262.826 C 330.949 263.062,331.669 263.492,331.999 263.781 C 332.330 264.069,333.050 264.441,333.600 264.608 C 334.150 264.774,335.029 265.245,335.554 265.655 C 336.079 266.065,336.891 266.400,337.360 266.400 C 337.828 266.400,338.873 266.754,339.681 267.187 C 340.488 267.620,342.196 268.145,343.475 268.354 C 344.754 268.562,346.288 268.921,346.885 269.151 C 347.482 269.381,349.642 269.690,351.685 269.838 C 356.786 270.207,356.400 269.328,356.400 280.573 C 356.400 287.683,356.267 290.427,355.900 290.927 C 355.292 291.754,249.449 292.009,248.626 291.186 C 248.000 290.560,247.821 185.697,248.445 184.946 C 248.694 184.646,249.128 184.400,249.410 184.400 C 249.691 184.400,266.724 201.195,287.261 221.723 M94.489 289.337 C 95.490 290.582,95.619 290.943,95.163 291.231 C 94.249 291.810,45.062 291.702,44.480 291.120 C 43.595 290.235,43.809 240.950,44.700 240.437 C 45.364 240.055,90.513 284.398,94.489 289.337 M276.044 250.630 C 271.774 251.971,267.761 259.353,269.749 262.211 C 270.051 262.645,270.427 263.596,270.586 264.324 C 270.892 265.730,273.249 268.400,274.185 268.400 C 274.492 268.400,275.023 268.680,275.366 269.023 C 276.177 269.834,281.031 270.248,282.400 269.622 C 284.958 268.454,287.139 266.705,287.916 265.200 C 288.200 264.650,288.704 263.750,289.036 263.200 C 289.934 261.713,289.582 257.212,288.456 255.780 C 287.985 255.182,287.600 254.468,287.600 254.194 C 287.600 251.679,280.086 249.362,276.044 250.630 " stroke="none" fill="#fbfbfb" fill-rule="evenodd"></path><path id="path4" d="M44.243 111.033 C 44.109 111.381,44.000 122.929,44.000 136.697 L 44.000 161.728 75.500 193.109 C 92.825 210.369,107.382 224.746,107.850 225.058 C 109.084 225.883,109.516 224.267,108.291 223.409 C 107.496 222.852,107.489 222.786,108.146 222.059 C 108.787 221.351,108.829 219.657,108.719 198.848 C 108.653 186.501,108.735 176.400,108.900 176.400 C 109.065 176.400,109.200 175.861,109.200 175.202 C 109.200 173.951,46.240 110.400,45.001 110.400 C 44.717 110.400,44.376 110.685,44.243 111.033 M46.017 137.741 C 46.023 153.378,45.891 161.036,45.613 161.129 C 45.332 161.223,45.208 153.495,45.225 136.933 C 45.242 121.215,45.385 112.935,45.629 113.545 C 45.851 114.100,46.011 124.084,46.017 137.741 M58.400 173.000 C 58.808 173.491,58.780 173.600,58.249 173.600 C 57.892 173.600,57.600 173.330,57.600 173.000 C 57.600 172.670,57.668 172.400,57.751 172.400 C 57.834 172.400,58.126 172.670,58.400 173.000 M44.179 176.112 C 44.071 176.393,44.031 187.958,44.091 201.812 L 44.200 227.000 49.140 231.800 C 51.857 234.440,54.287 236.835,54.540 237.122 C 54.793 237.409,55.603 238.219,56.341 238.922 C 57.078 239.625,68.868 251.372,82.541 265.026 C 106.013 288.468,108.776 291.082,108.817 289.887 C 109.111 281.269,108.638 242.417,108.228 241.500 C 108.001 240.994,108.092 240.800,108.557 240.800 C 110.721 240.800,108.409 238.314,77.454 207.352 C 47.766 177.658,44.692 174.773,44.179 176.112 M46.428 178.400 C 47.351 178.400,47.426 179.031,46.600 179.857 C 46.081 180.376,46.000 183.474,46.000 202.805 C 46.000 217.272,45.859 225.240,45.600 225.400 C 45.335 225.564,45.218 217.385,45.254 201.124 C 45.284 187.636,45.387 177.005,45.482 177.500 C 45.591 178.063,45.945 178.400,46.428 178.400 M248.445 184.946 C 247.821 185.697,248.000 290.560,248.626 291.186 C 249.449 292.009,355.292 291.754,355.900 290.927 C 356.267 290.427,356.400 287.683,356.400 280.573 C 356.400 269.332,356.782 270.207,351.712 269.840 C 349.684 269.693,347.276 269.309,346.362 268.987 C 345.448 268.664,344.227 268.411,343.650 268.425 C 341.179 268.484,347.650 270.052,351.301 270.279 C 353.746 270.431,355.363 270.715,355.634 271.041 C 356.140 271.651,355.994 289.900,355.476 290.700 C 355.001 291.434,249.399 291.434,248.924 290.700 C 248.202 289.584,248.324 185.845,249.048 185.315 C 249.624 184.894,254.537 189.656,286.156 221.278 C 321.743 256.867,326.633 261.600,327.821 261.600 C 328.139 261.600,328.400 261.775,328.400 261.990 C 328.400 262.204,328.976 262.677,329.680 263.042 C 330.385 263.406,331.208 263.950,331.509 264.252 C 331.810 264.553,332.380 264.800,332.775 264.800 C 333.169 264.800,333.936 265.149,334.478 265.575 C 335.020 266.002,335.989 266.477,336.632 266.632 C 337.274 266.787,338.468 267.248,339.284 267.657 C 340.100 268.066,341.180 268.385,341.684 268.366 C 342.578 268.332,342.576 268.324,341.600 268.012 C 341.050 267.836,340.060 267.403,339.400 267.049 C 338.740 266.695,337.819 266.404,337.354 266.402 C 336.889 266.401,336.079 266.065,335.554 265.655 C 335.029 265.245,334.150 264.774,333.600 264.608 C 333.050 264.441,332.330 264.069,331.999 263.781 C 331.669 263.492,330.949 263.062,330.399 262.826 C 329.850 262.590,328.590 261.768,327.600 260.998 C 326.610 260.229,325.530 259.475,325.200 259.323 C 324.870 259.170,307.797 242.250,287.261 221.723 C 266.724 201.195,249.691 184.400,249.410 184.400 C 249.128 184.400,248.694 184.646,248.445 184.946 M74.400 189.000 C 74.808 189.491,74.780 189.600,74.249 189.600 C 73.892 189.600,73.600 189.330,73.600 189.000 C 73.600 188.670,73.668 188.400,73.751 188.400 C 73.834 188.400,74.126 188.670,74.400 189.000 M90.400 205.000 C 90.808 205.491,90.780 205.600,90.249 205.600 C 89.892 205.600,89.600 205.330,89.600 205.000 C 89.600 204.670,89.668 204.400,89.751 204.400 C 89.834 204.400,90.126 204.670,90.400 205.000 M106.400 221.000 C 106.808 221.491,106.780 221.600,106.249 221.600 C 105.892 221.600,105.600 221.330,105.600 221.000 C 105.600 220.670,105.668 220.400,105.751 220.400 C 105.834 220.400,106.126 220.670,106.400 221.000 M44.700 240.437 C 43.809 240.950,43.595 290.235,44.480 291.120 C 45.062 291.702,94.249 291.810,95.163 291.231 C 96.058 290.665,94.971 289.517,69.326 263.917 C 49.075 243.703,45.292 240.097,44.700 240.437 M46.590 244.252 C 47.326 244.534,47.396 245.468,46.700 245.700 C 46.310 245.830,46.180 250.599,46.111 267.430 C 46.051 281.741,45.883 289.039,45.611 289.130 C 45.333 289.222,45.208 281.658,45.225 265.733 C 45.241 251.123,45.389 242.545,45.616 243.109 C 45.817 243.609,46.255 244.123,46.590 244.252 M276.015 250.089 C 273.922 250.934,270.400 253.881,270.400 254.786 C 270.400 255.024,271.259 254.318,272.309 253.218 C 275.240 250.144,278.893 249.279,282.748 250.744 C 284.981 251.592,287.600 253.454,287.600 254.194 C 287.600 254.468,287.938 255.122,288.352 255.648 C 288.765 256.173,289.194 256.963,289.305 257.402 C 289.491 258.137,289.511 258.131,289.554 257.318 C 289.655 255.388,285.870 251.015,283.755 250.618 C 283.042 250.484,282.399 250.197,282.327 249.980 C 282.038 249.115,278.263 249.180,276.015 250.089 M269.489 256.982 C 268.758 258.516,268.548 262.197,269.171 262.582 C 269.375 262.708,269.756 263.484,270.019 264.306 C 273.141 274.077,289.334 271.237,289.828 260.831 L 289.953 258.200 289.642 260.654 C 289.447 262.188,289.006 263.521,288.465 264.208 C 287.989 264.813,287.600 265.475,287.600 265.680 C 287.600 266.372,284.695 268.574,282.400 269.622 C 281.031 270.248,276.177 269.834,275.366 269.023 C 275.023 268.680,274.492 268.400,274.185 268.400 C 273.249 268.400,270.892 265.730,270.586 264.324 C 270.427 263.596,270.051 262.645,269.749 262.211 C 269.029 261.176,269.054 259.647,269.821 257.812 C 270.646 255.836,270.368 255.139,269.489 256.982 " stroke="none" fill="#5c7cfc" fill-rule="evenodd"></path></g></svg>