<svg xmlns="http://www.w3.org/2000/svg" width="250" height="250" fill="none"><g fill="#000" clip-path="url(#a)"><g fill-rule="evenodd" clip-rule="evenodd" opacity=".2"><path d="M249.028 92.221c-13.33 12.703-38.93 21.325-68.467 21.325-21.964 0-41.808-4.84-56.047-12.553-16.359-8.923-38.93-21.325-68.469-21.325-21.962 0-41.806 4.84-56.045 12.553v-6.05C14.24 78.46 34.083 73.62 56.047 73.62c29.537 0 52.109 12.402 68.469 21.323 14.237 7.713 34.081 12.552 56.045 12.552 29.537 0 55.137-8.62 68.467-21.323v6.05Z"/><path d="M249.028 117.932c-13.33 12.703-38.93 21.323-68.467 21.323-21.964 0-41.808-4.839-56.047-12.553-16.359-8.923-38.93-21.324-68.469-21.324-21.962 0-41.806 4.839-56.045 12.554v-6.052c14.24-7.712 34.083-12.553 56.047-12.553 29.537 0 52.109 12.402 68.469 21.325 14.237 7.713 34.081 12.552 56.045 12.552 29.537 0 55.137-8.621 68.467-21.325v6.053Z"/><path d="M249.028 143.642c-13.33 12.703-38.93 21.324-68.467 21.324-21.964 0-41.808-4.841-56.047-12.554-16.359-8.923-38.93-21.323-68.469-21.323-21.962 0-41.806 4.839-56.045 12.551v-6.048c14.24-7.714 34.083-12.553 56.047-12.553 29.537 0 52.109 12.402 68.469 21.325 14.237 7.713 34.081 12.552 56.045 12.552 29.537 0 55.137-8.621 68.467-21.325v6.051Z"/><path d="M249.028 169.351c-13.33 12.704-38.93 21.323-68.467 21.323-21.964 0-41.808-4.839-56.047-12.551-16.359-8.924-38.93-21.326-68.469-21.326-21.962 0-41.806 4.841-56.045 12.554v-6.05c14.24-7.713 34.083-12.552 56.047-12.552 29.537 0 52.109 12.402 68.469 21.325 14.237 7.712 34.081 12.552 56.045 12.552 29.537 0 55.137-8.62 68.467-21.325v6.05Z"/></g><path d="M57 199.162h11.284a8.692 8.692 0 0 0 6.847-2.506 8.655 8.655 0 0 0 2.51-6.833V60.18a8.64 8.64 0 0 0-2.51-6.833 8.676 8.676 0 0 0-6.847-2.506H57V22h82.012C183.049 22 218 44.25 218 86.821c0 42.575-34.951 65.096-78.988 65.096h-28.069v37.906a8.716 8.716 0 0 0 2.628 6.917 8.76 8.76 0 0 0 7.004 2.422h22.84V228H57v-28.838Zm79.54-77.456c29.169 0 45.96-12.087 45.96-34.608 0-22.798-16.791-34.61-45.96-34.61h-25.597v69.215h25.593l.004.003Z"/></g><defs><clipPath id="a"><path fill="#fff" d="M0 22h250v206H0z"/></clipPath></defs></svg>