<svg width="250" height="250" viewBox="0 0 250 250" fill="none" xmlns="http://www.w3.org/2000/svg">
<path d="M187.51 137.837C186.754 135.548 184.775 133.954 182.216 133.572C181.009 133.391 179.627 133.468 177.991 133.805C175.141 134.394 173.026 134.618 171.482 134.661C177.308 124.821 182.046 113.6 184.773 103.037C189.183 85.9569 186.826 78.1759 184.072 74.6564C176.785 65.3407 166.152 60.3362 153.325 60.1831C146.482 60.0994 140.474 61.4509 137.341 62.4229C134.423 61.9079 131.286 61.6203 127.994 61.5671C121.824 61.4687 116.372 62.8143 111.713 65.58C109.134 64.7075 104.995 63.4776 100.215 62.6927C88.972 60.8463 79.9109 62.285 73.2831 66.969C65.2575 72.6402 61.537 82.4936 62.2251 96.2555C62.4437 100.625 64.8869 113.919 68.7338 126.527C70.9447 133.773 73.3023 139.791 75.7411 144.415C79.1997 150.971 82.9004 154.831 87.055 156.218C89.3835 156.994 93.6144 157.537 98.0642 153.83C98.6283 154.513 99.3808 155.192 100.379 155.823C101.648 156.623 103.199 157.277 104.748 157.664C110.33 159.06 115.558 158.711 120.019 156.755C120.046 157.548 120.067 158.307 120.085 158.961C120.115 160.023 120.144 161.065 120.183 162.039C120.447 168.624 120.895 173.744 122.222 177.326C122.295 177.523 122.393 177.824 122.496 178.142C123.158 180.17 124.265 183.564 127.082 186.223C129.998 188.977 133.525 189.821 136.756 189.821C138.376 189.821 139.922 189.608 141.278 189.318C146.111 188.281 151.601 186.703 155.572 181.046C159.326 175.699 161.151 167.645 161.482 154.955C161.524 154.596 161.564 154.254 161.602 153.927L161.68 153.257L162.565 153.335L162.793 153.35C167.716 153.574 173.735 152.53 177.432 150.812C180.353 149.456 189.714 144.512 187.51 137.837Z" fill="black"/>
<path d="M179.095 139.136C164.457 142.156 163.45 137.199 163.45 137.199C178.905 114.257 185.366 85.1368 179.791 78.0096C164.58 58.5682 138.251 67.7628 137.811 68.0011L137.67 68.0267C134.778 67.426 131.542 67.0686 127.904 67.009C121.281 66.9007 116.257 68.7461 112.444 71.6383C112.444 71.6383 65.475 52.2811 67.6599 95.9833C68.1245 105.28 80.9804 166.33 96.314 147.89C101.919 141.147 107.334 135.446 107.334 135.446C110.023 137.233 113.243 138.145 116.619 137.818L116.881 137.595C116.799 138.432 116.837 139.251 116.986 140.221C113.036 144.636 114.197 145.411 106.3 147.037C98.3094 148.685 103.003 151.617 106.068 152.384C109.784 153.313 118.379 154.63 124.187 146.497L123.956 147.425C125.503 148.665 126.59 155.491 126.408 161.68C126.226 167.868 126.104 172.117 127.323 175.435C128.543 178.754 129.759 186.221 140.14 183.996C148.814 182.136 153.309 177.317 153.934 169.279C154.378 163.564 155.382 164.409 155.445 159.3L156.251 156.881C157.18 149.135 156.399 146.635 161.742 147.798L163.042 147.912C166.974 148.091 172.123 147.279 175.144 145.874C181.65 142.854 185.509 137.811 179.094 139.136H179.095Z" fill="#336791"/>
<path d="M115.195 100.141C113.876 99.9573 112.681 100.127 112.077 100.585C111.737 100.843 111.632 101.141 111.604 101.346C111.528 101.89 111.909 102.492 112.143 102.802C112.805 103.681 113.773 104.284 114.731 104.417C114.87 104.437 115.008 104.446 115.145 104.446C116.742 104.446 118.195 103.202 118.323 102.283C118.483 101.133 116.814 100.367 115.195 100.141V100.141ZM158.893 100.177C158.767 99.2759 157.164 99.0189 155.642 99.2306C154.122 99.4423 152.649 100.129 152.772 101.032C152.87 101.735 154.138 102.934 155.64 102.934C155.767 102.934 155.895 102.926 156.023 102.908C157.026 102.769 157.761 102.132 158.11 101.765C158.642 101.206 158.95 100.583 158.893 100.177Z" fill="white"/>
<path d="M183.965 138.792C183.407 137.104 181.61 136.561 178.626 137.177C169.764 139.007 166.59 137.74 165.548 136.972C172.436 126.475 178.103 113.785 181.16 101.946C182.608 96.3379 183.408 91.1296 183.473 86.8843C183.545 82.225 182.752 78.801 181.116 76.7094C174.52 68.2774 164.838 63.7545 153.119 63.6304C145.063 63.5398 138.256 65.6024 136.936 66.1824C134.157 65.4911 131.128 65.0667 127.83 65.0125C121.782 64.9145 116.554 66.3631 112.225 69.3159C110.345 68.6157 105.486 66.947 99.5442 65.9894C89.2712 64.335 81.1078 65.5886 75.2823 69.7172C68.3311 74.6439 65.122 83.4505 65.7437 95.8918C65.9529 100.077 68.337 112.954 72.0993 125.286C77.0517 141.516 82.4352 150.704 88.0993 152.595C88.7623 152.816 89.5267 152.97 90.3698 152.97C92.436 152.97 94.9693 152.039 97.605 148.869C100.82 145.011 104.145 141.247 107.577 137.581C109.804 138.776 112.25 139.444 114.752 139.511C114.757 139.576 114.763 139.642 114.769 139.707C114.338 140.221 113.917 140.742 113.504 141.27C111.771 143.471 111.41 143.93 105.83 145.079C104.243 145.407 100.027 146.276 99.965 149.232C99.8981 152.462 104.948 153.819 105.524 153.963C107.529 154.465 109.461 154.712 111.303 154.712C115.783 154.712 119.726 153.239 122.877 150.389C122.78 161.904 123.26 173.25 124.642 176.707C125.774 179.537 128.539 186.453 137.274 186.453C138.556 186.453 139.966 186.304 141.518 185.971C150.634 184.016 154.592 179.986 156.124 171.1C156.943 166.351 158.349 155.011 159.011 148.928C160.407 149.364 162.204 149.563 164.146 149.563C168.198 149.563 172.873 148.701 175.805 147.34C179.099 145.81 185.043 142.055 183.965 138.792ZM162.256 97.689C162.226 99.4847 161.979 101.115 161.717 102.817C161.435 104.647 161.144 106.539 161.071 108.836C160.998 111.071 161.277 113.395 161.547 115.643C162.092 120.183 162.652 124.856 160.486 129.468C160.126 128.83 159.806 128.171 159.526 127.494C159.257 126.841 158.672 125.792 157.863 124.341C154.713 118.69 147.338 105.458 151.113 100.059C152.238 98.4517 155.092 96.7993 162.256 97.689ZM153.572 67.2666C164.073 67.4985 172.379 71.4282 178.259 78.9457C182.77 84.7119 177.803 110.949 163.425 133.584C163.28 133.4 163.135 133.217 162.989 133.034L162.807 132.807C166.522 126.668 165.796 120.595 165.149 115.21C164.883 113 164.632 110.913 164.696 108.953C164.762 106.875 165.037 105.092 165.302 103.369C165.629 101.245 165.961 99.0479 165.869 96.4575C165.938 96.1857 165.965 95.8647 165.93 95.4836C165.696 92.9996 162.861 85.5652 157.082 78.8364C153.922 75.1559 149.312 71.0372 143.019 68.2592C145.726 67.6979 149.427 67.1745 153.572 67.2666ZM94.8157 146.549C91.9118 150.042 89.9067 149.372 89.2471 149.152C84.9503 147.719 79.9645 138.633 75.5687 124.227C71.7651 111.761 69.5424 99.2252 69.3662 95.7101C68.811 84.5933 71.5047 76.8458 77.3731 72.6822C86.9235 65.9072 102.625 69.9624 108.935 72.019C108.844 72.1086 108.75 72.1923 108.66 72.2834C98.3063 82.7434 98.5519 100.615 98.5775 101.707C98.5766 102.129 98.612 102.725 98.6602 103.546C98.8384 106.552 99.1701 112.147 98.2842 118.482C97.4613 124.369 99.2755 130.132 103.261 134.292C103.67 134.718 104.1 135.123 104.549 135.507C102.775 137.407 98.9196 141.61 94.8157 146.549ZM105.88 131.781C102.668 128.428 101.209 123.764 101.877 118.984C102.812 112.292 102.467 106.463 102.281 103.332C102.255 102.893 102.232 102.509 102.219 102.207C103.731 100.865 110.74 97.108 115.739 98.2537C118.02 98.7761 119.41 100.33 119.988 103.003C122.978 116.84 120.383 122.607 118.299 127.242C117.869 128.197 117.463 129.099 117.116 130.033L116.848 130.754C116.167 132.579 115.534 134.276 115.142 135.887C111.727 135.877 108.406 134.418 105.88 131.781V131.781ZM106.404 150.442C105.407 150.193 104.51 149.76 103.984 149.401C104.423 149.194 105.205 148.913 106.562 148.633C113.126 147.281 114.14 146.327 116.354 143.515C116.861 142.87 117.437 142.14 118.234 141.249L118.235 141.248C119.421 139.919 119.964 140.144 120.948 140.553C121.746 140.883 122.523 141.884 122.838 142.985C122.988 143.504 123.155 144.491 122.607 145.259C117.983 151.737 111.244 151.654 106.404 150.442ZM140.758 182.423C132.728 184.144 129.884 180.045 128.01 175.359C126.801 172.334 126.207 158.692 126.628 143.627C126.634 143.427 126.605 143.233 126.55 143.051C126.501 142.691 126.426 142.335 126.326 141.986C125.699 139.794 124.17 137.961 122.337 137.201C121.608 136.899 120.272 136.345 118.665 136.756C119.008 135.344 119.602 133.749 120.246 132.022L120.516 131.296C120.82 130.477 121.202 129.629 121.606 128.731C123.788 123.882 126.776 117.24 123.533 102.236C122.318 96.6161 118.262 93.8716 112.112 94.5092C108.426 94.8908 105.053 96.3788 103.37 97.232C103.009 97.4152 102.678 97.5925 102.369 97.7648C102.838 92.1025 104.612 81.5204 111.248 74.825C115.426 70.6103 120.99 68.5286 127.77 68.6408C141.128 68.8594 149.694 75.7172 154.528 81.4322C158.694 86.3565 160.95 91.3172 161.85 93.9927C155.08 93.3039 150.475 94.6407 148.141 97.979C143.063 105.241 150.919 119.334 154.695 126.108C155.387 127.349 155.985 128.422 156.173 128.878C157.402 131.859 158.994 133.849 160.156 135.301C160.513 135.747 160.858 136.178 161.121 136.556C159.07 137.147 155.387 138.513 155.723 145.343C155.452 148.77 153.527 164.814 152.549 170.483C151.258 177.972 148.504 180.761 140.758 182.423V182.423ZM174.278 144.049C172.181 145.022 168.673 145.753 165.339 145.91C161.658 146.082 159.784 145.497 159.343 145.137C159.136 140.881 160.719 140.436 162.395 139.966C162.658 139.892 162.915 139.82 163.163 139.733C163.317 139.858 163.486 139.983 163.671 140.105C166.63 142.059 171.908 142.27 179.359 140.731L179.441 140.715C178.436 141.655 176.716 142.916 174.278 144.049Z" fill="white"/>
</svg>
