<svg xmlns="http://www.w3.org/2000/svg" width="250" height="250" fill="none"><g clip-path="url(#a)"><path fill="#A5DBE8" d="M90.882 176.846a85.828 85.828 0 0 1 4.703-1.918 86.146 86.146 0 0 1 5.418-1.855c2.274-.685 4.567-1.305 6.892-1.798a85.54 85.54 0 0 1 9.498-1.468 296.712 296.712 0 0 1-5.917 16.799c.088 1.082.145 2.165.17 3.25A68.897 68.897 0 0 1 125 188.547c4.57 0 9.033.456 13.354 1.309.025-1.085.082-2.168.17-3.25a295.93 295.93 0 0 1-5.917-16.799c3.194.31 6.365.803 9.498 1.468 2.324.493 4.617 1.113 6.891 1.798a85.838 85.838 0 0 1 5.419 1.855 85.51 85.51 0 0 1 4.704 1.919 84.178 84.178 0 0 1 29.229 21.576C208.945 180.636 222 154.351 222 125c0-53.571-43.429-97-97-97s-97 43.429-97 97c0 29.351 13.055 55.636 33.652 73.423a84.183 84.183 0 0 1 29.23-21.577"/><path fill="#525353" d="m159.118 176.847 6.021 20.706 1.708.08c1.109 0 1.889.292 1.889 1.401 0 1.843.095 3.914.272 5.722 1.5 1.274 3.327 2.711 4.713 4.107a97.197 97.197 0 0 0 14.625-10.44 84.174 84.174 0 0 0-29.228-21.576m-11.775-.207 7.071-1.712a86.056 86.056 0 0 0-5.419-1.855c-2.275-.685-4.568-1.305-6.891-1.798a85.52 85.52 0 0 0-9.499-1.468 296.712 296.712 0 0 0 5.917 16.799 55.986 55.986 0 0 0-.169 3.25c5.01.988 9.935 2.705 14.49 4.72l-5.5-17.936"/><path fill="#000" d="M76.277 208.863a96.133 96.133 0 0 0 3.42 1.908c.405-1.944 1.052-4.637 1.248-6.637-1.5 1.274-3.282 3.333-4.668 4.729Zm76.448-14.466a68.049 68.049 0 0 0-14.371-4.541 68.907 68.907 0 0 0-13.355-1.309c-4.571 0-9.033.456-13.354 1.309-5.009.987-10.236 2.485-14.788 4.499l-.485 3.017h57.256l-.903-2.975"/><path fill="#525353" d="M80.768 204.708c.177-1.808.306-3.42.306-5.264 0-1.107.76-1.818 1.868-1.818l1.818-.063 6.123-20.717a84.184 84.184 0 0 0-29.23 21.577 97.234 97.234 0 0 0 14.625 10.44 68.917 68.917 0 0 1 4.329-4.009"/><path fill="#000" d="M169.749 208.393c.393 1.971.482 2.363.553 2.378a96.763 96.763 0 0 0 3.42-1.908 70.417 70.417 0 0 0-4.374-4.054l.401 3.584"/><path fill="#AA9678" d="m152.725 194.397.903 2.975h11.711l-6.221-20.525a85.655 85.655 0 0 0-4.704-1.919l-7.07 1.712 5.381 17.757Z"/><path fill="#C4B6A1" d="M84.867 201.517c.062-.043.124-.086.184-.13h-.175l-.009.13Z"/><path fill="#AA9678" d="M165.126 201.387h-.177l.184.13c-.001-.043-.006-.087-.007-.13Z"/><path fill="#AA9678" d="m164.926 201.087-40.008.046.083 20.867c14.89 0 28.991-3.364 41.599-9.36-.823-3.616-.906-7.511-1.04-11.302-.06-.044-.634-.251-.634-.251"/><path fill="#C4B6A1" d="M124.937 201.219s-40.229-.051-40.29-.007c-.134 3.791-.916 8.289-1.245 11.428 12.608 5.996 26.709 9.36 41.599 9.36l.023-20.713-.087-.068Z"/><path fill="#AA9678" d="m155.005 185.746.021.063-.021-.063s-.983-.78-2.232-2.216c1.249 1.436 2.232 2.216 2.232 2.216Z"/><path fill="#fff" d="M184.645 97.983v.004-.004Zm3.903 27.927.001-.029-.001.029Z"/><path fill="#676A6A" d="M188.438 124.37c.003.026.011.049.014.075l.009.045v.006c.046.371.064.758.072 1.148.002.072.014.14.014.211l.001.026-.001.029c-.001.077-.014.149-.015.226-.005.376-.028.752-.07 1.126v.005l-.011.056c-.003.029-.012.056-.016.085-.051.386-.123.769-.217 1.148l-.002.005v.001l.014-.015.005-.018v.001l2.539-2.658-2.559-2.679.001.006c.095.373.168.766.222 1.171Z"/><path fill="#000" d="M188.436 127.408c.006-.05.019-.095.026-.146.045-.364.061-.743.07-1.126.001-.086.015-.168.015-.255 0-.081-.012-.157-.014-.237a11.003 11.003 0 0 0-.072-1.148c-.006-.044-.017-.083-.022-.126a10.373 10.373 0 0 0-.223-1.171c-.034-.131-.08-.247-.118-.372a7.515 7.515 0 0 0-.914-1.987 6.104 6.104 0 0 0-.466-.607 4.02 4.02 0 0 0-.501-.466c-.067-.05-.138-.086-.206-.13a2.844 2.844 0 0 0-.673-.325 2.342 2.342 0 0 0-.695-.12c-.238 0-.468.05-.695.12a2.825 2.825 0 0 0-.673.325c-.067.044-.138.079-.204.13a4.003 4.003 0 0 0-.814.855 6.59 6.59 0 0 0-.154.218 7.498 7.498 0 0 0-.914 1.987l-.028.091a10.18 10.18 0 0 0-.247 1.092c-.019.115-.046.226-.062.344-.061.422-.092.861-.099 1.311-.001.063-.011.122-.011.184h.015c0 3.695 1.749 6.69 3.905 6.69.371 0 .728-.097 1.068-.263.204-.1.397-.222.575-.363.073-.059.142-.131.212-.197.173-.161.336-.343.492-.545.107-.142.213-.284.312-.442.063-.101.12-.21.179-.317.109-.202.212-.412.305-.635.035-.08.07-.158.102-.241a8.92 8.92 0 0 0 .311-.98c.093-.366.163-.751.218-1.148Zm-3.652-2.417c-.809 0-1.464-1.124-1.464-2.509 0-1.385.655-2.509 1.464-2.509.808 0 1.463 1.124 1.463 2.509 0 1.385-.655 2.509-1.463 2.509Z"/><path fill="#fff" d="M184.784 119.973c-.808 0-1.464 1.124-1.464 2.509 0 1.385.656 2.509 1.464 2.509.809 0 1.464-1.124 1.464-2.509 0-1.385-.655-2.509-1.464-2.509"/><path fill="#909393" d="M181.192 122.827c.229-.759.543-1.43.914-1.987a5.68 5.68 0 0 1 .154-.218c.227-.324.501-.613.814-.855.066-.051.137-.086.204-.13.209-.138.435-.247.673-.325.226-.071.457-.12.695-.12.238 0 .469.049.695.12.238.078.464.188.673.325.068.044.139.08.205.13.175.134.342.291.502.466.168.192.323.395.465.607.372.557.685 1.227.914 1.987v.001l-3.454-15.821-3.455 15.82h.001"/><path fill="#000" d="M138.867 125.734a9.412 9.412 0 0 0-.06-.942l-.003-.013a8.869 8.869 0 0 0-.152-.901l-.006-.022a9.199 9.199 0 0 0-.237-.86l-.008-.019a8.657 8.657 0 0 0-.319-.824l-.008-.017a9.19 9.19 0 0 0-4.881-4.729l-.027-.009a9.06 9.06 0 0 0-1.635-.494l-.042-.006a9.138 9.138 0 0 0-1.753-.172c-.591 0-1.164.061-1.723.168l-.059.009a9.071 9.071 0 0 0-1.606.479l-.041.016a9.13 9.13 0 0 0-2.815 1.807l-.01.031-.034.008a9.25 9.25 0 0 0-1.659 2.117l-.016.028c-.137.24-.26.49-.374.745-.012.027-.027.053-.039.08-.103.236-.193.48-.276.725-.016.049-.037.094-.052.142-.073.23-.132.466-.188.701-.015.068-.037.134-.051.201a9.182 9.182 0 0 0-.113.712c-.009.073-.025.144-.033.217a9.087 9.087 0 0 0 .125 2.719c.001.011.002.024.005.036.114.571.283 1.121.499 1.648.003.008.004.015.008.022a9.227 9.227 0 0 0 3.984 4.497l.012.007c.245.138.499.262.758.377.021.009.041.021.063.03.24.105.488.195.737.279.042.015.083.033.126.046.23.074.468.133.706.188.064.015.126.036.192.05.231.047.469.08.708.111.072.008.143.025.217.033a9.13 9.13 0 0 0 8.527-3.98 9.114 9.114 0 0 0 1.561-5.11c0-.022-.003-.042-.003-.062l-.005-.069Zm-9.131-1.071a3.423 3.423 0 0 1-2.428-1.006 3.435 3.435 0 0 1 2.428-5.861 3.433 3.433 0 0 1 0 6.867Z"/><path fill="#fff" d="M129.734 117.796a3.433 3.433 0 1 0 0 6.867 3.433 3.433 0 0 0 0-6.867"/><path fill="#BBBCBD" d="m123.449 119.244.034-.008.01-.031 6.294-19.25V95.4a53.644 53.644 0 0 0-10.799-1.115 53.7 53.7 0 0 0-3.667.135l-.532.036c-6.317.48-12.539 2.127-18.3 4.756-4.94 2.256-9.53 5.228-13.657 8.751v.001l-.006.006a59.953 59.953 0 0 0-3.207 2.953c-.194.189-.39.377-.582.57-.977.984-1.921 2-2.832 3.045-.198.228-.393.461-.588.692a66.637 66.637 0 0 0-2.654 3.321c-.07.095-.137.196-.206.291a67.737 67.737 0 0 0-2.316 3.371c-.145.223-.294.444-.435.67a70.9 70.9 0 0 0-1.71 2.902H96.97l26.479-6.541Z"/><path fill="#E3DDDB" d="M147.654 117.078a94.333 94.333 0 0 0 .252-5.306c.015-.791.013-1.582.009-2.372 0-.228.005-.457.003-.685a122.41 122.41 0 0 0-.225-6.118l-.017-.012-.008-.014c-.758-.435-1.516-.869-2.276-1.3l-.053-.031-.593-.335-.011-.006-.411-.231-.081-.045c-.1-.055-.199-.11-.3-.163a56.242 56.242 0 0 0-4.03-1.894c-3.261-1.377-7.654-2.584-10.128-3.167v4.556l6.239 19.281.007.016a9.193 9.193 0 0 1 1.642 2.097v.001c.146.254.279.517.4.786l.007.017c.121.268.227.543.32.824l.008.019c.092.282.172.568.237.86l.006.022c.065.295.116.596.152.901l.002.013c.036.309.056.623.061.942l.024.051h7.639a83.3 83.3 0 0 0 1.104-8.473c.005-.078.015-.156.021-.234"/><path fill="#FCB03F" d="M157.647 110.261c-.006.008-.01.018-.014.027l.014-.027"/><path fill="#909393" d="M123.492 119.205a9.314 9.314 0 0 1 1.329-1.036c.47-.302.968-.561 1.486-.771.014-.006.029-.01.041-.016a9.095 9.095 0 0 1 1.606-.479l.059-.009a9.147 9.147 0 0 1 1.723-.168c.6 0 1.185.061 1.753.172l.042.006a9.023 9.023 0 0 1 1.662.504 9.187 9.187 0 0 1 2.839 1.844l-.006-.016-6.239-19.28-6.295 19.249"/><path fill="#676A6A" d="M121.275 129.315a8.947 8.947 0 0 1-.499-1.648c-.003-.012-.004-.025-.005-.036a9.054 9.054 0 0 1-.124-2.719c.007-.073.023-.144.032-.217.031-.24.065-.479.113-.712.014-.067.036-.133.051-.201.056-.235.115-.471.188-.701.016-.048.035-.093.052-.141.083-.246.173-.49.277-.726.011-.027.026-.053.038-.08.114-.255.238-.505.374-.745l.017-.028a9.246 9.246 0 0 1 1.658-2.117l-26.478 6.541h-.051l26.226 6.401a9.17 9.17 0 0 1-1.861-2.849c-.004-.007-.005-.014-.008-.022"/><path fill="#E3DDDB" d="M180.854 124.354c.016-.118.041-.229.062-.344.066-.376.145-.743.246-1.092.011-.039.016-.084.028-.122l3.455-15.821-.001-9.02c-2.823-2.332-5.845-3.606-8.993-3.606-3.977 0-7.685 2.196-10.458 4.908-3.034 2.968-5.378 6.703-7.274 10.472-.088.173-.177.34-.263.514a84.05 84.05 0 0 1 1.733 1.542 139.64 139.64 0 0 1 3.801 3.623c.58.573 1.15 1.158 1.722 1.74.606.618 1.213 1.234 1.81 1.861a180.187 180.187 0 0 1 3.23 3.485c.91 1.004 1.811 2.017 2.701 3.039l.002.002c.149.156.254.268.294.314h7.792c0-.063.013-.121.013-.184.008-.45.039-.889.1-1.311m-23.199-14.069-.009-.024-.013.026.034.033-.012-.035"/><path fill="#525353" d="m63.599 135.74.07-.174a73.397 73.397 0 0 1 3.613-7.936c.21-.401.417-.802.635-1.199.12-.219.257-.428.38-.646a70.123 70.123 0 0 1 1.708-2.902c.142-.227.29-.447.435-.67a67.737 67.737 0 0 1 2.316-3.371c.07-.096.136-.196.206-.291a67.125 67.125 0 0 1 2.654-3.322c.196-.23.39-.462.588-.691a64.572 64.572 0 0 1 2.832-3.045c.193-.193.389-.381.583-.57a59.991 59.991 0 0 1 3.206-2.953l.007-.007c4.358-14.599 18.431-23.57 34.209-23.57 6.351 0 12.666 1.83 18.079 5.141 5.551 3.396 9.337 6.714 12.275 12.513l.044.087c.075.148.158.288.231.437l.007.014.018.012a58.451 58.451 0 0 1 7.033 5.111 64.904 64.904 0 0 1 2.192 1.936c.236.216.479.423.713.643l.013-.026c.003-.007.005-.013.009-.019.08-.164.159-.332.24-.494 2.223-14.032 9.288-21.684 16.588-21.684 5.504 0 9.504 3.282 12.526 12.115l.031.094.007.011a32.87 32.87 0 0 1 2.491 3.068l-.001-.001.048.063-.001-.001.001.001c.043.128.08.26.122.388v-.001l-.114-.46c-9.082-26.889-34.514-46.248-64.469-46.248-37.572 0-68.03 30.458-68.03 68.03 0 7.407 1.184 14.538 3.381 21.174l.01-.039a72.93 72.93 0 0 1 3.114-10.518"/><path fill="#fff" d="m190.61 125.875-2.373 2.655v-.001l-.005.018c-.09.349-.201.675-.323.989-.032.083-.067.161-.102.241a7.116 7.116 0 0 1-.305.635c-.059.107-.116.216-.179.317a5.697 5.697 0 0 1-.313.442 4.372 4.372 0 0 1-.491.545c-.07.066-.138.138-.213.197-.177.141-.37.263-.574.363-.34.166-.697.263-1.068.263-2.156 0-3.905-2.995-3.905-6.69h-7.833l.004.006a248.537 248.537 0 0 1 4.346 5.162 323.03 323.03 0 0 1 4.057 5.061l.197.25a435.247 435.247 0 0 1 3.762 4.873l.362.472a667.445 667.445 0 0 1 3.934 5.232 67.942 67.942 0 0 0 3.568-21.056l-2.203-.084-.343.11"/><path fill="#000" d="m114.789 94.456.531-.036a54.016 54.016 0 0 1 3.667-.135c3.689 0 7.293.395 10.799 1.114h.001c2.474.583 6.866 1.79 10.127 3.167a56.265 56.265 0 0 1 4.031 1.894l.299.163.081.045c.122.068.256.142.412.231l.011.006.593.335.053.031c.838.475 1.766 1.008 2.12 1.211l.091.052.065.037c-.073-.148-.156-.289-.231-.436l-.044-.088c-2.938-5.8-7.463-10.773-13.014-14.17-5.413-3.31-11.728-5.14-18.079-5.14-15.778 0-29.112 10.627-33.47 25.226 4.126-3.523 8.716-6.495 13.657-8.75 5.76-2.63 11.982-4.277 18.3-4.757"/><path fill="#BBBCBD" d="m189.585 103.414-.001-.001.001.001-.049-.063.002.001a33.032 33.032 0 0 0-2.491-3.068l-.022-.027c-.38-.412-.772-.812-1.176-1.2-.149-.144-.303-.269-.454-.406-.25-.227-.497-.46-.75-.668v9.024l3.454 15.822v-.001c.038.123.084.238.117.365l2.393 2.682.024-.026h2.504c.003-.232.018-.461.018-.694v-.003a67.911 67.911 0 0 0-3.448-21.351v.001c-.042-.128-.079-.26-.122-.388"/><path fill="#000" d="M165.192 99.257c2.773-2.712 6.481-4.908 10.458-4.908 3.147 0 6.17 1.274 8.993 3.606l.001.028v.004-.004c.253.207.501.441.75.668.151.137.306.262.455.405.404.389.796.79 1.175 1.201l.022.027a.055.055 0 0 0-.007-.009v-.001l-.031-.095c-3.022-8.834-7.897-14.572-13.399-14.572-7.301 0-13.492 10.109-15.715 24.141l.023-.019c1.896-3.769 4.241-7.504 7.275-10.472m-9.866 86.244s-.982-.779-2.231-2.215a22.744 22.744 0 0 1-2.094-2.811c-.472-.747-.849-1.655-1.264-2.553-.481-1.04-.482-1.732-.758-2.7a18.685 18.685 0 0 1-.712-5.753c.021-.692.092-1.408.196-2.137.103-.724.244-1.442.422-2.151.55-2.2 1.501-4.543 2.985-7.017l.377-.847c.485-.808.593-.772 1.054-1.551 6.49-10.952 9.991-19.234 8.278-31.987a103.184 103.184 0 0 0-.639-3.907c-.15.941-.308 1.88-.474 2.818-.065.291-.241.607-.308.805-2.819 8.343-7.257 14.481-13.642 21.411-.889.961-1.789 1.913-2.699 2.853a346.531 346.531 0 0 1-4.93 4.994c-.691.688-1.396 1.385-2.113 2.096-.658.651-1.477 2.045-2.455 3.072-.603 1.689-1.289 3.594-1.869 5.598-.261-.099-.51-.188-.776-.291-12.404-4.798-20.709-11.208-20.709-11.208s6.39 8.32 17.155 16.13c.99.717 2.017 1.382 3.076 1.991-.444 7.03 2.657 13.778 16.655 15.791 2.366.34 4.79.324 7.231.049-.025-.073.136-.071.123-.111-.013-.041.131-.149.131-.149"/><path fill="#9F2254" d="M147.838 167.406c12.426 2.006 30.818 1.677 49.91-7.262.46-.216.967.351 1.427.125 0 0-13.049 13.328-28.632 20.863-.456.22-.905.454-1.365.663a59.278 59.278 0 0 1-4.575 1.841c-3.015 1.083-6.071 1.906-9.104 2.285-.14.018-.279.045-.419.06a34.79 34.79 0 0 1-.057-.172l-.02-.063s-.984-.78-2.232-2.216a22.116 22.116 0 0 1-1.62-2.089 21.72 21.72 0 0 1-1.82-3.19 19.952 19.952 0 0 1-1.081-2.908 18.734 18.734 0 0 1-.713-5.753 19.64 19.64 0 0 1 .196-2.137l.105-.047"/><path fill="#FCB03F" d="M138.934 153.259a346.465 346.465 0 0 0 4.93-4.994c.91-.941 1.81-1.892 2.7-2.853 6.384-6.93 11.071-13.416 13.891-21.759a7.69 7.69 0 0 0 .197-.752l.03-.136c.066-.311.131-.658.195-1.048.026-.269.869-.811.893-1.064-.707-3.633-2.337-7.452-4.115-10.368l.012.035-.034-.033c-.234-.22-.477-.427-.713-.643a64.904 64.904 0 0 0-2.192-1.936 58.56 58.56 0 0 0-7.033-5.111c.124 2.041.204 4.081.225 6.118.003.228-.003.457-.003.685.004.79.006 1.581-.009 2.372a97.173 97.173 0 0 1-.108 3.053 84.852 84.852 0 0 1-.144 2.253c-.007.078-.016.156-.021.234a83.584 83.584 0 0 1-1.104 8.473l-.897 4.243c-1.874 7.598-5.681 14.489-8.811 21.605-.829 1.887-1.617 3.795-2.307 5.739l-.196.549c.822-.867 1.656-1.723 2.501-2.567.718-.71 1.423-1.408 2.113-2.095"/><path fill="#525353" d="M97.87 194.122c4.554-2.014 8.768-3.279 13.777-4.266a55.988 55.988 0 0 0-.17-3.25 296.712 296.712 0 0 0 5.917-16.799 85.54 85.54 0 0 0-9.498 1.468c-2.324.493-4.618 1.113-6.892 1.798a86.184 86.184 0 0 0-5.418 1.855l7.071 1.712-5.69 17.859.903-.377"/><path fill="#DF0067" d="M185.29 141.201a412.736 412.736 0 0 0-3.762-4.873l-.197-.25a325.23 325.23 0 0 0-4.108-5.123 251.566 251.566 0 0 0-4.294-5.1c-.092-.107-.184-.215-.277-.321a201.557 201.557 0 0 0-5.931-6.524 167.533 167.533 0 0 0-1.811-1.862c-.571-.582-1.141-1.167-1.722-1.74a141.266 141.266 0 0 0-3.801-3.623 87.554 87.554 0 0 0-1.734-1.543l-.008.019c1.229 3.532 2.632 7.109 3.334 10.794.183.958.334 1.891.457 2.801 1.712 12.752-2.374 21.078-8.863 32.031-.475.8-.952 1.6-1.432 2.398-1.483 2.475-2.434 4.817-2.985 7.017a21.506 21.506 0 0 0-.422 2.151c12.726 2.054 31.863 2.437 51.442-7.184 0 0-3.84-5.643-9.617-13.401a677.157 677.157 0 0 0-4.269-5.667"/><path fill="#AA9678" d="m96.29 197.691 6.366-21.051-7.071-1.712a85.024 85.024 0 0 0-4.703 1.919l-6.304 20.844 7.038.11 4.674-.11"/><path fill="#fff" d="M100.766 188.584c.621.238 1.253.453 1.884.674a67.804 67.804 0 0 0 22.475 3.825 67.8 67.8 0 0 0 25.408-4.925c.415-.166.822-.35 1.233-.525a68.794 68.794 0 0 0 1.985-.88c.586-.272 1.173-.543 1.75-.832-.139.019-.279.045-.418.06-2.441.275-4.865.291-7.231-.049-13.998-2.013-17.099-8.761-16.655-15.791a34.944 34.944 0 0 1-3.076-1.991c-10.765-7.81-17.155-16.13-17.155-16.13s8.305 6.41 20.709 11.208c.266.103.515.192.777.291.579-2.004 1.265-3.909 1.868-5.598l.196-.549c.69-1.944 1.478-3.852 2.307-5.739 3.13-7.116 6.937-14.007 8.811-21.605l.897-4.243h-7.655l-.001.001.001.015-.004.002c0 .02.004.04.004.062a9.115 9.115 0 0 1-1.562 5.11 9.183 9.183 0 0 1-4.021 3.31 9.098 9.098 0 0 1-4.505.67c-.074-.008-.144-.024-.217-.033a9.984 9.984 0 0 1-.709-.111c-.065-.015-.127-.035-.191-.05a8.852 8.852 0 0 1-.707-.188c-.042-.014-.083-.031-.126-.046a8.913 8.913 0 0 1-.736-.279c-.022-.009-.043-.02-.064-.03a9.376 9.376 0 0 1-.758-.377l-.011-.007a9.23 9.23 0 0 1-2.123-1.648l-26.227-6.401H68.297c-.123.218-.26.428-.38.647-.218.396-.424.798-.635 1.198a73.49 73.49 0 0 0-3.613 7.936l-.07.174a72.93 72.93 0 0 0-3.115 10.518c4.506 13.744 13.273 25.554 24.734 33.877.333.242.685.457 1.023.694a68.188 68.188 0 0 0 6.02 3.773 67.317 67.317 0 0 0 8.505 3.982"/><path fill="#8B7460" d="M169.394 204.854a56.232 56.232 0 0 1-.285-5.475 2.004 2.004 0 0 0-2.007-2.007H82.9a2.009 2.009 0 0 0-2.007 2.007c0 1.843-.109 3.667-.285 5.475a55.551 55.551 0 0 1-.909 5.917 97.89 97.89 0 0 0 3.704 1.869 59.488 59.488 0 0 0 1.464-11.123c.002-.043.007-.087.008-.13h80.252l.008.13c.137 3.746.628 7.47 1.465 11.123a98.659 98.659 0 0 0 3.703-1.869 55.757 55.757 0 0 1-.909-5.917"/></g><defs><clipPath id="a"><path fill="#fff" d="M28 28h194v194H28z"/></clipPath></defs></svg>