<?xml version="1.0" ?><svg id="Calque_1" style="enable-background:new 0 0 507 435;" version="1.1" viewBox="0 0 507 435" xml:space="preserve" xmlns="http://www.w3.org/2000/svg" xmlns:xlink="http://www.w3.org/1999/xlink"><style type="text/css">
	.st0{fill:#27245D;}
	.st1{fill:#E2066F;}
	.st2{fill:#A0DBE8;}
	.st3{fill:#525353;}
	.st4{fill:#AA9678;}
	.st5{fill:#C0B098;}
	.st6{fill:#786453;}
	.st7{fill:#8B7460;}
	.st8{fill:none;}
	.st9{fill:#FFFFFF;}
	.st10{fill:#BBBCBD;}
	.st11{fill:#676A6A;}
	.st12{fill:#909393;}
	.st13{fill:#E2DDDB;}
	.st14{fill:#FBB040;}
	.st15{fill:#9F2255;}
</style><g id="XMLID_141_"><g id="XMLID_142_"><path class="st0" d="M106.3,383.4c-0.1-0.4-0.1-1-0.1-1.8c0-5.1,1.7-9.1,5.1-11.9c3.4-2.9,7.1-4.3,11.2-4.3    c5.4,0,9.2,2,11.3,6.1L106.3,383.4z M145.7,376.2c-0.1-6-2.3-10.9-6.8-14.7c-4.5-3.8-10.1-5.6-16.9-5.6c-4.3,0-8.4,0.9-12.2,2.8    c-3.9,1.9-7.1,4.8-9.7,8.9c-2.6,4-3.9,8.6-3.9,13.9c0,7.6,2.5,13.8,7.5,18.4c5,4.7,11.1,7,18.1,7c8,0,15-3,20.9-9.1l-6.1-6.8    c-3.6,4.3-8.2,6.5-13.7,6.5c-5.6,0-10-2-13.2-6l36.1-15.2L145.7,376.2z" id="XMLID_160_"/><path class="st0" d="M84.2,358.9c-2.9,2-5.2,4.5-6.8,7.6v-10H66.9v49.6h10.4v-21.2c0-5.6,1.3-10.2,3.9-13.5    c2.6-3.4,6.5-5,11.6-5h0.6l-0.1-10.5C90.2,355.9,87.1,356.9,84.2,358.9" id="XMLID_138_"/><path class="st0" d="M183,380.9c-1.7-1.1-3.2-2-4.7-2.6c-1.5-0.6-3-1.2-4.5-1.7c-1.6-0.5-3.3-1-5.4-1.5    c-2-0.5-3.6-1-4.7-1.6c-1.6-0.7-2.4-1.9-2.4-3.5c0-1.8,0.8-3.2,2.3-4.1c1.6-0.9,3.6-1.4,6.1-1.4c4.7,0,9.1,1.3,13.1,4l3.9-7.7    c-5.1-3.4-10.5-5-16.2-5c-5.7,0-10.4,1.4-13.9,4.1c-3.6,2.8-5.4,6.4-5.4,11c0,6.5,5.2,11.2,15.5,14c0.2,0.1,0.6,0.2,1.1,0.4    c6.6,2,9.9,4.2,9.9,6.7c0,1.7-0.7,3.1-2,4.1c-1.4,1.1-3.2,1.6-5.6,1.6c-5.4,0-11-2.2-16.8-6.5l-5,8.1c3,2.4,6.4,4.2,10.3,5.5    c3.9,1.3,7.6,2,11.2,2c5.3,0,9.7-1.4,13.1-4.2c3.4-2.8,5.1-6.6,5.1-11.3C188.1,386.6,186.4,383.2,183,380.9" id="XMLID_137_"/><path class="st0" d="M45,373.6c-2.2,2.3-6.4,3.5-12.4,3.5H19.8V351H31c6,0,10.3,0.9,13.1,2.8    c2.8,1.9,4.2,5,4.2,9.5C48.3,367.9,47.2,371.3,45,373.6 M52.8,346.7c-4.5-3.8-11.7-5.7-21.6-5.7H8.8v65.1h11v-19.1h11.6    c9.6,0,16.7-1.8,21.3-5.5c4.6-3.7,6.9-9.4,6.9-17.3C59.6,356.4,57.3,350.5,52.8,346.7" id="XMLID_155_"/><path class="st0" d="M212.5,397.9c-2.2,0-4-0.7-5.2-2.1c-1.2-1.4-1.9-3.3-1.9-5.6V365h13v-8.4h-13V341H195v48.8    c0,5.2,1.6,9.4,4.7,12.4c3.1,3.1,6.9,4.6,11.4,4.6c4.4,0,8.5-1.6,12.2-4.9l-4.3-7.4C216.9,396.8,214.7,397.9,212.5,397.9" id="XMLID_134_"/><path class="st0" d="M260.2,393.2c-2.9,3-6.3,4.5-10.4,4.5c-4.1,0-7.7-1.5-10.7-4.5c-3-3-4.6-6.8-4.6-11.6    c0-4.8,1.5-8.7,4.5-11.9c3-3.2,6.5-4.8,10.7-4.8c4.2,0,7.7,1.6,10.5,4.8c2.9,3.2,4.3,7.1,4.3,11.8    C264.5,386.3,263.1,390.2,260.2,393.2 M264.3,365.2c-4.2-6.2-9.6-9.3-16.1-9.3c-6.5,0-12.2,2.3-17,6.9c-4.8,4.6-7.2,10.7-7.2,18.4    c0,7.7,2.3,13.9,7,18.6c4.7,4.7,10.1,7.1,16.4,7.1c3.1,0,6.2-0.8,9.3-2.3c3.1-1.5,5.6-3.7,7.6-6.6v8.1h10.4v-49.6h-10.4V365.2z" id="XMLID_151_"/><path class="st1" d="M429.4,393.1c-3,3-6.7,4.5-11.2,4.5c-4.5,0-8.3-1.5-11.2-4.5c-3-3-4.4-6.9-4.4-11.7    s1.5-8.7,4.4-11.7c2.9-3,6.7-4.5,11.2-4.5c4.5,0,8.3,1.5,11.2,4.5c2.9,3,4.4,6.9,4.4,11.7S432.4,390.1,429.4,393.1 M418.2,355.9    c-7.5,0-13.7,2.5-18.6,7.4c-5,4.9-7.5,11-7.5,18.1c0,7.1,2.5,13.2,7.5,18.1c5,4.9,11.2,7.4,18.6,7.4s13.7-2.5,18.6-7.4    c5-4.9,7.5-11,7.5-18.1s-2.5-13.2-7.5-18.1C431.8,358.3,425.6,355.9,418.2,355.9" id="XMLID_148_"/><path class="st1" d="M486.1,393.1c-3,3-6.6,4.5-10.7,4.5s-7.6-1.5-10.4-4.5c-2.9-3-4.3-6.9-4.3-11.6    c0-4.7,1.4-8.6,4.3-11.8c2.9-3.1,6.4-4.7,10.5-4.7c4.2,0,7.7,1.6,10.7,4.7c3,3.1,4.5,7.1,4.5,11.8    C490.6,386.3,489.1,390.1,486.1,393.1 M494,362.8c-4.7-4.6-10.4-6.9-17-6.9c-6.6,0-12,3.1-16.1,9.4v-8.7h-10.4v67.6h10.4v-25.5    c5,5.5,10.6,8.2,16.8,8.2s11.7-2.4,16.4-7.2c4.7-4.8,7-11,7-18.6S498.7,367.3,494,362.8" id="XMLID_145_"/><path class="st1" d="M367.8,355.9c-3.5,0-6.7,0.9-9.7,2.6c-3,1.7-5.3,4.1-6.8,7.2v-28.5h-10.4v69h10.4v-26.8    c0-4.6,1.3-8.1,4-10.5c2.7-2.4,5.8-3.6,9.4-3.6c7.6,0,11.4,4.6,11.4,13.7v27.2h10.4v-30.4c0-6.5-1.7-11.4-5.2-14.8    C377.9,357.6,373.4,355.9,367.8,355.9" id="XMLID_127_"/><path class="st1" d="M328.4,374.9c-3.4-2.9-8.4-5.2-15.1-6.8c-6.7-1.6-11-3.1-13.1-4.5c-2-1.4-3.1-3.4-3.1-6.1    c0-2.6,1-4.6,3.1-5.9c2-1.3,4.7-2,7.9-2c3.2,0,6.4,0.6,9.7,1.7c3.3,1.1,5.9,2.5,7.8,4.3l5.9-8.3c-3-2.5-6.5-4.4-10.6-5.8    c-4.1-1.4-8.2-2-12.4-2c-6.5,0-11.9,1.6-16.3,4.9c-4.4,3.3-6.6,7.9-6.6,13.9c0,6,1.9,10.5,5.8,13.4c1.9,1.6,4.1,2.8,6.6,3.8    c2.5,1,6.1,2,10.9,3.2c4.8,1.1,8.1,2.4,10.1,3.8c2,1.4,2.9,3.4,2.9,5.9s-1,4.5-3.1,6.1c-2.1,1.5-4.9,2.3-8.4,2.3    c-7.1,0-13.9-2.9-20.5-8.6l-6.9,8.3c7.9,7,16.9,10.5,27.1,10.5c7,0,12.6-1.8,16.9-5.3c4.3-3.5,6.4-8.1,6.4-13.8    S331.8,377.8,328.4,374.9" id="XMLID_126_"/></g><g><path class="st2" d="M202.1,241.7c2.4-1.1,4.8-2,7.3-3c2.8-1,5.6-2,8.4-2.9c3.5-1.1,7.1-2,10.7-2.8    c4.9-1,9.8-1.8,14.7-2.3c-2.8,8.7-5.8,17.4-9.2,26c0.1,1.7,0.2,3.3,0.3,5c6.7-1.3,13.6-2,20.7-2s14,0.7,20.7,2    c0-1.7,0.1-3.4,0.3-5c-3.3-8.6-6.4-17.3-9.2-26c4.9,0.5,9.9,1.2,14.7,2.3c3.6,0.8,7.1,1.7,10.7,2.8c2.8,0.9,5.6,1.8,8.4,2.9    c2.5,0.9,4.9,1.9,7.3,3c17,7.6,32.5,18.8,45.2,33.4c31.9-27.5,52.1-68.2,52.1-113.7c0-82.9-67.2-150.2-150.2-150.2    c-82.9,0-150.2,67.2-150.2,150.2c0,45.4,20.2,86.1,52.1,113.7C169.6,260.5,185.1,249.3,202.1,241.7z" id="XMLID_125_"/><path class="st3" d="M212,268.9c7-3.1,14.5-5.5,22.2-7c0-1.7-0.1-3.4-0.3-5c3.3-8.6,6.4-17.3,9.2-26    c-4.9,0.5-9.9,1.2-14.7,2.3c-3.6,0.8-7.1,1.7-10.7,2.8c-2.8,0.9-5.6,1.8-8.4,2.9l10.9,2.7L212,268.9z" id="XMLID_124_"/><path class="st3" d="M186.2,285c0.3-2.8,0.4-5.6,0.4-8.5c0-1.7,1.4-3.1,3.1-3.1h2.7l9.6-31.8    c-17,7.6-32.5,18.8-45.2,33.4c7,6.1,14.6,11.5,22.6,16.2C181.7,289.1,183.9,287,186.2,285z" id="XMLID_123_"/><path class="st3" d="M307.8,241.7l9.6,31.8h2.7c1.7,0,3.1,1.4,3.1,3.1c0,2.9,0.2,5.7,0.4,8.5c2.3,2,4.6,4,6.7,6.2    c8.1-4.7,15.6-10.1,22.6-16.2C340.3,260.5,324.8,249.3,307.8,241.7z" id="XMLID_122_"/><path class="st3" d="M289.5,241.4l10.9-2.7c-2.8-1-5.6-2-8.4-2.9c-3.5-1.1-7.1-2-10.7-2.8    c-4.9-1-9.8-1.8-14.7-2.3c2.8,8.7,5.8,17.4,9.2,26c-0.1,1.7-0.2,3.3-0.3,5c7.8,1.5,15.2,3.9,22.2,7L289.5,241.4z" id="XMLID_121_"/><path d="M254.9,273.5h21.2c-0.4-3.9-0.6-7.8-0.5-11.6c-6.7-1.3-13.6-2-20.7-2s-14,0.7-20.7,2    c0.1,3.9-0.1,7.7-0.5,11.6H254.9z" id="XMLID_120_"/><path d="M179.5,291.2c1.7,1,3.5,2,5.3,3c0.6-3,1.1-6.1,1.4-9.2C183.9,287,181.7,289.1,179.5,291.2z" id="XMLID_119_"/><path d="M210.6,273.5h23.2c0.4-3.9,0.6-7.8,0.5-11.6c-7.8,1.5-15.2,3.9-22.2,7L210.6,273.5z" id="XMLID_118_"/><path d="M323.7,285c0.3,3.1,0.8,6.2,1.4,9.2c1.8-0.9,3.5-1.9,5.3-3C328.2,289.1,326,287,323.7,285z" id="XMLID_117_"/><path d="M299.3,273.5l-1.4-4.6c-7-3.1-14.5-5.5-22.2-7c-0.1,3.9,0.1,7.7,0.5,11.6L299.3,273.5L299.3,273.5z" id="XMLID_116_"/><path class="st4" d="M210.6,273.5l1.4-4.6l8.3-27.5l-10.9-2.7c-2.5,0.9-4.9,1.9-7.3,3l-9.6,31.8h10.3L210.6,273.5    L210.6,273.5z" id="XMLID_115_"/><path class="st4" d="M297.9,268.9l1.4,4.6h7.8h10.3l-9.6-31.8c-2.4-1.1-4.8-2-7.3-3l-10.9,2.7L297.9,268.9z" id="XMLID_114_"/><path class="st5" d="M192.8,279.9c0.1-0.1,0.2-0.1,0.3-0.2h-0.3C192.8,279.7,192.8,279.8,192.8,279.9z" id="XMLID_113_"/><path class="st5" d="M254.9,279.7h-22.1h-24.1h-15.6c-0.1,0.1-0.2,0.1-0.3,0.2c-0.2,5.9-1,11.6-2.3,17.2    c19.5,9.3,41.3,14.5,64.4,14.5L254.9,279.7L254.9,279.7z" id="XMLID_112_"/><path class="st4" d="M317.1,279.7h-0.3c0.1,0.1,0.2,0.1,0.3,0.2C317.1,279.8,317.1,279.7,317.1,279.7z" id="XMLID_111_"/><path class="st4" d="M316.8,279.7h-15.6H277h-22.1h0v31.9c23,0,44.9-5.2,64.4-14.5c-1.3-5.6-2.1-11.4-2.3-17.2    C317,279.8,316.9,279.7,316.8,279.7z" id="XMLID_110_"/><rect class="st6" height="3.1" id="XMLID_109_" width="0" x="254.9" y="276.6"/><path class="st7" d="M323.7,285c-0.3-2.8-0.4-5.6-0.4-8.5c0-1.7-1.4-3.1-3.1-3.1h-2.7H307h-7.8h-23.2h-21.2h-21.2    h-23.2h-7.8h-10.3h-2.7c-1.7,0-3.1,1.4-3.1,3.1c0,2.9-0.2,5.7-0.4,8.5c-0.3,3.1-0.8,6.2-1.4,9.2c1.9,1,3.8,2,5.7,2.9    c1.3-5.6,2.1-11.4,2.3-17.2c0-0.1,0-0.1,0-0.2h0.3h15.6h24.1h22.1h0H277h24.1h15.6h0.3c0,0.1,0,0.1,0,0.2c0.2,5.9,1,11.6,2.3,17.2    c1.9-0.9,3.8-1.9,5.7-2.9C324.4,291.2,324,288.1,323.7,285z" id="XMLID_108_"/><g><path class="st8" d="M305.5,138.6L305.5,138.6C305.5,138.6,305.5,138.6,305.5,138.6c1.9,5.4,4,10.9,5.1,16.5     c0,0.4-0.1,0.8-0.1,1.2c-0.1,0.6-0.2,1.1-0.3,1.6c0.2-0.7,0.3-1.6,0.5-2.6C309.6,149.6,307.4,144.1,305.5,138.6     C305.5,138.6,305.5,138.6,305.5,138.6C305.5,138.6,305.5,138.6,305.5,138.6L305.5,138.6z" id="XMLID_107_"/><path class="st8" d="M349.2,172.6c-0.1,0-0.2,0.1-0.3,0.1C349,172.6,349.1,172.6,349.2,172.6z" id="XMLID_106_"/><path class="st8" d="M350.2,171.8c-0.1,0.1-0.2,0.2-0.3,0.3C350,172,350.1,171.9,350.2,171.8z" id="XMLID_105_"/><path class="st8" d="M301,134.7c-3.5-2.9-7.1-5.6-10.9-7.9l0,0C293.9,129.1,297.5,131.7,301,134.7z" id="XMLID_104_"/><path class="st8" d="M335.8,170.6C335.8,170.7,335.8,170.7,335.8,170.6C335.8,170.7,335.8,170.7,335.8,170.6z" id="XMLID_103_"/><path class="st8" d="M342.1,178.6c0.1,0.1,0.2,0.3,0.3,0.4C342.4,178.8,342.2,178.7,342.1,178.6z" id="XMLID_102_"/><path class="st8" d="M310.1,158.2c-0.1,0.5-0.2,0.9-0.3,1.2C309.9,159,310,158.6,310.1,158.2z" id="XMLID_101_"/><path class="st8" d="M295.4,213c-2.3,3.8-3.8,7.5-4.6,10.9C291.6,220.4,293.1,216.8,295.4,213     c0.8-1.3,1.5-2.5,2.2-3.7C296.9,210.4,296.2,211.7,295.4,213C295.4,212.9,295.4,212.9,295.4,213z" id="XMLID_100_"/><path class="st8" d="M305.5,138.6c0.1-0.3,0.3-0.5,0.4-0.8l0,0C305.7,138.1,305.6,138.3,305.5,138.6     c0.9,0.8,1.8,1.6,2.7,2.4C307.3,140.2,306.4,139.4,305.5,138.6z" id="XMLID_99_"/><path class="st8" d="M275.7,158.3C275.7,158.3,275.7,158.3,275.7,158.3C275.7,158.3,275.7,158.3,275.7,158.3z" id="XMLID_98_"/><path class="st8" d="M274.6,155.8L274.6,155.8L274.6,155.8z" id="XMLID_97_"/><path class="st8" d="M284.7,123.7c-0.2-0.1-0.4-0.2-0.5-0.3C284.4,123.5,284.5,123.6,284.7,123.7z" id="XMLID_96_"/><path class="st8" d="M285.5,124.1c-0.2-0.1-0.4-0.3-0.6-0.4C285,123.9,285.3,124,285.5,124.1z" id="XMLID_95_"/><path class="st8" d="M290.4,136.2c0,0.4,0,0.7,0,1.1C290.4,136.9,290.4,136.6,290.4,136.2z" id="XMLID_94_"/><path class="st8" d="M275.2,157C275.2,157,275.2,157,275.2,157C275.2,157,275.2,157,275.2,157z" id="XMLID_93_"/><path class="st8" d="M348.3,186.5c0.2,0.2,0.4,0.5,0.6,0.7C348.7,187,348.5,186.7,348.3,186.5z" id="XMLID_92_"/><path class="st8" d="M290.4,140.9c0,1.6-0.1,3.2-0.2,4.7C290.3,144.1,290.4,142.5,290.4,140.9z" id="XMLID_91_"/><path class="st8" d="M276.1,159.7C276.1,159.7,276.1,159.7,276.1,159.7C276.1,159.7,276.1,159.7,276.1,159.7z" id="XMLID_90_"/><path class="st8" d="M289.8,126.6c-0.5-0.3-2-1.1-3.3-1.9C287.8,125.4,289.2,126.2,289.8,126.6z" id="XMLID_89_"/><path class="st8" d="M286.4,124.6c-0.3-0.2-0.6-0.4-0.9-0.5C285.8,124.3,286.1,124.5,286.4,124.6z" id="XMLID_88_"/><path class="st8" d="M290,126.7L290,126.7C290,126.7,290,126.7,290,126.7C290,126.7,290,126.7,290,126.7z" id="XMLID_87_"/><path class="st8" d="M353.3,163.2c0-0.1,0-0.2,0-0.3c0,0,0,0,0,0c0,0,0,0,0,0c0-0.1,0-0.2,0-0.3     c0,0.1,0,0.2,0,0.4C353.3,162.9,353.3,163.1,353.3,163.2z" id="XMLID_86_"/><path class="st8" d="M328.7,162.3c0.1,0.2,0.3,0.3,0.4,0.5c0,0,0,0,0,0h0C329.1,162.7,328.9,162.5,328.7,162.3     L328.7,162.3z" id="XMLID_85_"/><path class="st8" d="M308.2,141c2,1.8,4,3.7,5.9,5.6C312.1,144.7,310.2,142.8,308.2,141z" id="XMLID_84_"/><path class="st8" d="M347.3,152.4c0.4,0,0.7,0.1,1.1,0.2C348,152.5,347.6,152.4,347.3,152.4z" id="XMLID_83_"/><path class="st8" d="M341.5,159.9c0,0.2-0.1,0.3-0.1,0.5C341.4,160.2,341.5,160.1,341.5,159.9z" id="XMLID_82_"/><path class="st8" d="M348.7,152.7c0.2,0.1,0.5,0.2,0.7,0.4C349.2,153,348.9,152.8,348.7,152.7z" id="XMLID_81_"/><path class="st8" d="M351,154.7c0.1,0.1,0.2,0.2,0.2,0.3C351.1,154.9,351.1,154.8,351,154.7z" id="XMLID_80_"/><path class="st8" d="M353.2,160.6C353.2,160.6,353.2,160.6,353.2,160.6c0-0.1,0-0.1,0-0.2     C353.2,160.5,353.2,160.6,353.2,160.6C353.2,160.6,353.2,160.6,353.2,160.6z" id="XMLID_79_"/><path class="st8" d="M353.2,165C353.2,165,353.2,165,353.2,165C353.2,164.9,353.2,164.9,353.2,165     c0,0,0,0.1,0,0.1C353.2,165.1,353.2,165.1,353.2,165z" id="XMLID_78_"/><path class="st8" d="M343.3,155c0.1-0.1,0.2-0.2,0.2-0.3C343.5,154.8,343.4,154.9,343.3,155z" id="XMLID_77_"/><path class="st8" d="M346.2,152.6c0.3-0.1,0.7-0.2,1.1-0.2C346.9,152.4,346.5,152.5,346.2,152.6z" id="XMLID_76_"/><path class="st8" d="M319.5,152.2c-0.9-1-1.9-1.9-2.8-2.9C317.7,150.2,318.6,151.2,319.5,152.2z" id="XMLID_75_"/><path class="st8" d="M347.3,119.6L347.3,119.6C347.3,119.6,347.3,119.6,347.3,119.6v13.9l-5.3,24.5     c0,0.1,0,0.1,0,0.2c0,0,0-0.1,0-0.1l0,0h0l5.3-24.5V119.6L347.3,119.6L347.3,119.6L347.3,119.6z" id="XMLID_74_"/><path class="st8" d="M324.5,157.5c-0.5-0.5-1-1.1-1.5-1.6C323.6,156.5,324,157,324.5,157.5z" id="XMLID_73_"/><path class="st8" d="M352.6,158.1c0.1,0.2,0.1,0.4,0.2,0.6c0,0,0,0,0,0C352.8,158.4,352.7,158.3,352.6,158.1     L352.6,158.1L352.6,158.1z" id="XMLID_72_"/><path class="st8" d="M341.2,162.7L341.2,162.7c0-0.1,0-0.2,0-0.3C341.3,162.6,341.2,162.6,341.2,162.7z" id="XMLID_71_"/><path class="st8" d="M345.2,153.1c0.2-0.2,0.5-0.3,0.7-0.4C345.6,152.8,345.4,153,345.2,153.1z" id="XMLID_70_"/><path class="st8" d="M344.1,154c0.2-0.3,0.5-0.5,0.8-0.7C344.6,153.5,344.3,153.8,344.1,154z" id="XMLID_69_"/><path class="st8" d="M352.8,166.9C352.8,166.9,352.8,166.9,352.8,166.9c-0.1,0.5-0.3,1-0.5,1.5     C352.5,168,352.7,167.5,352.8,166.9L352.8,166.9L352.8,166.9z" id="XMLID_68_"/><path class="st8" d="M169.8,158.1c0.2-0.3,0.5-0.7,0.7-1C170.3,157.5,170,157.8,169.8,158.1z" id="XMLID_67_"/><path class="st8" d="M349.7,153.3c0.3,0.2,0.5,0.5,0.8,0.7C350.2,153.8,350,153.5,349.7,153.3z" id="XMLID_66_"/><path class="st8" d="M174.1,151.9c0.1-0.1,0.2-0.3,0.3-0.4C174.3,151.6,174.2,151.7,174.1,151.9z" id="XMLID_65_"/><path class="st8" d="M276.4,162.7L276.4,162.7C276.4,162.7,276.4,162.7,276.4,162.7L276.4,162.7L276.4,162.7     l0-0.1C276.4,162.6,276.4,162.6,276.4,162.7z" id="XMLID_64_"/><path class="st8" d="M163.3,170.1c-0.3,0.5-0.5,1.1-0.8,1.6C162.8,171.2,163,170.7,163.3,170.1z" id="XMLID_63_"/><path class="st8" d="M160,177.8c0,0.1-0.1,0.2-0.1,0.3C159.9,178,160,177.9,160,177.8z" id="XMLID_62_"/><path class="st8" d="M351,123.2C351,123.2,351,123.2,351,123.2L351,123.2C351,123.2,351,123.2,351,123.2z" id="XMLID_61_"/><path class="st8" d="M189.7,135.1L189.7,135.1L189.7,135.1z" id="XMLID_60_"/><path class="st8" d="M183.8,140.5c0.3-0.3,0.6-0.6,0.9-0.9C184.4,139.9,184.1,140.2,183.8,140.5z" id="XMLID_59_"/><path class="st8" d="M178.5,146.3c0.3-0.4,0.6-0.7,0.9-1.1C179.1,145.6,178.8,145.9,178.5,146.3z" id="XMLID_58_"/><polygon class="st8" id="XMLID_57_" points="352.6,158.1 347.3,133.6 352.6,158.1    "/><path class="st8" d="M259.4,176.6c-0.1,0-0.2-0.1-0.3-0.1C259.2,176.6,259.3,176.6,259.4,176.6z" id="XMLID_56_"/><path class="st8" d="M260.8,176.8c-0.1,0-0.2,0-0.3-0.1C260.6,176.8,260.7,176.8,260.8,176.8z" id="XMLID_55_"/><path class="st8" d="M166.6,163.6c-0.3,0.6-0.7,1.2-1,1.9C165.9,164.9,166.2,164.3,166.6,163.6z" id="XMLID_54_"/><path class="st8" d="M255.4,175.1C255.4,175.1,255.4,175.1,255.4,175.1C255.4,175.1,255.4,175.1,255.4,175.1z" id="XMLID_53_"/><path class="st8" d="M258,176.2c-0.1,0-0.1,0-0.2-0.1C257.9,176.2,257.9,176.2,258,176.2z" id="XMLID_52_"/><path class="st8" d="M256.6,175.7C256.6,175.7,256.6,175.7,256.6,175.7C256.6,175.7,256.6,175.7,256.6,175.7z" id="XMLID_51_"/><path class="st8" d="M249.2,168.1C249.2,168.1,249.2,168.1,249.2,168.1C249.2,168.1,249.2,168.1,249.2,168.1z" id="XMLID_50_"/><path class="st8" d="M248.5,159.5c0,0.1-0.1,0.2-0.1,0.3C248.5,159.7,248.5,159.6,248.5,159.5z" id="XMLID_49_"/><path class="st8" d="M250,155.8C250,155.8,250,155.8,250,155.8C250,155.8,250,155.8,250,155.8z" id="XMLID_48_"/><path class="st8" d="M254.7,150.9C254.7,150.9,254.7,150.9,254.7,150.9C254.7,150.9,254.7,150.9,254.7,150.9z" id="XMLID_47_"/><path class="st8" d="M248.9,158.2c0,0.1-0.1,0.1-0.1,0.2C248.8,158.4,248.9,158.3,248.9,158.2z" id="XMLID_46_"/><path class="st8" d="M249.4,157c0,0,0,0.1-0.1,0.1C249.3,157.1,249.4,157,249.4,157z" id="XMLID_45_"/><path class="st8" d="M265.1,148.9C265,148.9,265,148.9,265.1,148.9C265,148.9,265,148.9,265.1,148.9z" id="XMLID_44_"/><path class="st8" d="M267.6,149.7C267.6,149.7,267.6,149.7,267.6,149.7C267.6,149.7,267.6,149.7,267.6,149.7z" id="XMLID_43_"/><path class="st8" d="M257,149.6C257,149.6,257,149.6,257,149.6C257,149.6,257,149.6,257,149.6z" id="XMLID_42_"/><path class="st8" d="M259.6,148.9C259.6,148.9,259.5,148.9,259.6,148.9C259.5,148.9,259.6,148.9,259.6,148.9z" id="XMLID_41_"/><path class="st8" d="M276.3,161.1C276.3,161.1,276.3,161.1,276.3,161.1C276.3,161.1,276.3,161.1,276.3,161.1z" id="XMLID_40_"/><path class="st8" d="M262.4,117.2c0-0.2,0-0.4,0-0.6C262.4,116.8,262.4,117,262.4,117.2z" id="XMLID_39_"/><path class="st8" d="M262.4,116.3c0-0.1,0-0.3,0-0.4C262.4,116,262.4,116.1,262.4,116.3z" id="XMLID_38_"/><path class="st8" d="M262.4,115.7C262.4,115.6,262.4,115.6,262.4,115.7C262.4,115.6,262.4,115.6,262.4,115.7z" id="XMLID_37_"/><path class="st8" d="M262.4,119.1v-0.2v-0.6c0-0.2,0-0.4,0-0.6C262.4,118.1,262.4,118.6,262.4,119.1z" id="XMLID_36_"/><path class="st8" d="M351.4,170.3c-0.2,0.2-0.3,0.5-0.5,0.7C351.1,170.8,351.3,170.5,351.4,170.3z" id="XMLID_35_"/><path class="st8" d="M248.3,161c0,0.1,0,0.2-0.1,0.3C248.2,161.2,248.2,161.1,248.3,161z" id="XMLID_34_"/><path class="st8" d="M248.4,165.5C248.4,165.5,248.4,165.5,248.4,165.5C248.4,165.5,248.4,165.5,248.4,165.5z" id="XMLID_33_"/><path class="st8" d="M352.2,168.8c-0.1,0.3-0.3,0.7-0.5,1C351.9,169.5,352,169.2,352.2,168.8z" id="XMLID_32_"/><path class="st3" d="M297.9,252c-0.5-0.5-0.9-1.1-1.4-1.7C297,251,297.5,251.5,297.9,252L297.9,252z" id="XMLID_31_"/><path class="st4" d="M301.4,255.5C301.4,255.5,301.4,255.5,301.4,255.5C301.4,255.5,301.4,255.5,301.4,255.5     s-1.5-1.2-3.5-3.4l0,0C299.9,254.3,301.4,255.5,301.4,255.5z" id="XMLID_30_"/><ellipse class="st9" cx="347.3" cy="119.6" id="XMLID_29_" rx="0" ry="0" transform="matrix(0.9968 -7.970150e-002 7.970150e-002 0.9968 -8.4294 28.0575)"/><path class="st9" d="M353.3,162.8C353.3,162.8,353.3,162.8,353.3,162.8L353.3,162.8     C353.3,162.8,353.3,162.8,353.3,162.8z" id="XMLID_28_"/><path class="st10" d="M354.9,128L354.9,128L354.9,128C354.9,128,354.9,127.9,354.9,128L354.9,128     c-1.3-1.8-2.6-3.4-3.9-4.8c0,0,0,0,0,0c0,0,0,0,0,0c0,0,0,0,0,0v0c-0.6-0.7-1.2-1.3-1.8-1.9c-0.2-0.2-0.5-0.4-0.7-0.6     c-0.4-0.4-0.8-0.7-1.2-1v0v14l5.3,24.5v0c0.1,0.2,0.1,0.4,0.2,0.6l3.7,4.2l0,0h3.9c0-0.4,0-0.7,0-1.1v0c0-11.6-1.9-22.7-5.3-33.1     v0C355,128.4,355,128.2,354.9,128z" id="XMLID_27_"/><path class="st10" d="M353.3,162.8C353.3,162.8,353.3,162.8,353.3,162.8C353.3,162.8,353.3,162.8,353.3,162.8     L353.3,162.8z" id="XMLID_26_"/><path class="st11" d="M353.2,160.5c0,0,0,0.1,0,0.1c0,0,0,0,0,0.1c0,0,0,0,0,0c0.1,0.6,0.1,1.2,0.1,1.8     c0,0.1,0,0.2,0,0.3c0,0,0,0,0,0c0,0,0,0,0,0c0,0.1,0,0.2,0,0.3c0,0.6,0,1.2-0.1,1.7c0,0,0,0,0,0c0,0,0,0.1,0,0.1c0,0,0,0.1,0,0.1     c-0.1,0.6-0.2,1.2-0.3,1.8c0,0,0,0,0,0v0l0,0c0,0,0,0,0,0v0l3.7-4.1l-3.7-4.2c0,0,0,0,0,0C353,159.2,353.1,159.8,353.2,160.5z" id="XMLID_25_"/><path d="M353.1,165.2c0-0.1,0-0.1,0-0.2c0.1-0.6,0.1-1.2,0.1-1.7c0-0.1,0-0.3,0-0.4c0-0.1,0-0.2,0-0.4c0-0.6,0-1.2-0.1-1.8     c0-0.1,0-0.1,0-0.2c-0.1-0.6-0.2-1.2-0.3-1.8c-0.1-0.2-0.1-0.4-0.2-0.6c-0.4-1.2-0.8-2.2-1.4-3.1c-0.1-0.1-0.2-0.2-0.2-0.3     c-0.2-0.2-0.3-0.4-0.5-0.6c-0.2-0.3-0.5-0.5-0.8-0.7c-0.1-0.1-0.2-0.1-0.3-0.2c-0.2-0.2-0.5-0.3-0.7-0.4c-0.1,0-0.2-0.1-0.3-0.1     c-0.3-0.1-0.7-0.2-1.1-0.2s-0.7,0.1-1.1,0.2c-0.1,0-0.2,0.1-0.3,0.1c-0.2,0.1-0.5,0.2-0.7,0.4c-0.1,0.1-0.2,0.1-0.3,0.2     c-0.3,0.2-0.5,0.5-0.8,0.7c-0.2,0.2-0.3,0.4-0.5,0.6c-0.1,0.1-0.2,0.2-0.2,0.3c-0.6,0.9-1.1,1.9-1.4,3.1c0,0,0,0.1,0,0.1     c-0.2,0.5-0.3,1.1-0.4,1.7c0,0.2-0.1,0.3-0.1,0.5c-0.1,0.7-0.1,1.3-0.2,2c0,0.1,0,0.2,0,0.3h0c0,5.7,2.7,10.4,6,10.4     c0.6,0,1.1-0.2,1.7-0.4c0.1,0,0.2-0.1,0.3-0.1c0.2-0.1,0.4-0.3,0.6-0.4c0.1-0.1,0.2-0.2,0.3-0.3c0.3-0.2,0.5-0.5,0.8-0.8     c0.2-0.2,0.3-0.4,0.5-0.7c0.1-0.2,0.2-0.3,0.3-0.5c0.2-0.3,0.3-0.6,0.5-1c0.1-0.1,0.1-0.2,0.2-0.4c0.2-0.5,0.3-1,0.5-1.5     C353,166.4,353.1,165.8,353.1,165.2z M347.5,161.4c-1.3,0-2.3-1.7-2.3-3.9c0-2.1,1-3.9,2.3-3.9c1.3,0,2.3,1.7,2.3,3.9     C349.8,159.7,348.7,161.4,347.5,161.4z"/><ellipse class="st9" cx="347.5" cy="157.5" id="XMLID_22_" rx="2.3" ry="3.9"/><path class="st12" d="M341.9,158.1L341.9,158.1c0.4-1.2,0.8-2.2,1.4-3.1c0.1-0.1,0.2-0.2,0.2-0.3     c0.2-0.2,0.3-0.4,0.5-0.6c0.2-0.3,0.5-0.5,0.8-0.7c0.1-0.1,0.2-0.1,0.3-0.2c0.2-0.2,0.5-0.3,0.7-0.4c0.1,0,0.2-0.1,0.3-0.1     c0.3-0.1,0.7-0.2,1.1-0.2c0.4,0,0.7,0.1,1.1,0.2c0.1,0,0.2,0.1,0.3,0.1c0.2,0.1,0.5,0.2,0.7,0.4c0.1,0.1,0.2,0.1,0.3,0.2     c0.3,0.2,0.5,0.5,0.8,0.7c0.2,0.2,0.3,0.4,0.5,0.6c0.1,0.1,0.2,0.2,0.2,0.3c0.6,0.9,1.1,1.9,1.4,3.1l0,0h0l-5.3-24.5L341.9,158.1     L341.9,158.1L341.9,158.1z" id="XMLID_21_"/><path d="M276.4,162.6c0-0.5,0-1-0.1-1.5c0,0,0,0,0,0c-0.1-0.5-0.1-0.9-0.2-1.4c0,0,0,0,0,0c-0.1-0.5-0.2-0.9-0.4-1.3c0,0,0,0,0,0     c-0.1-0.4-0.3-0.9-0.5-1.3c0,0,0,0,0,0c-0.2-0.4-0.4-0.8-0.6-1.2l0,0c-0.7-1.2-1.5-2.3-2.5-3.2c-1.3-1.2-2.8-2.2-4.4-2.9     c0,0,0,0,0,0c-0.8-0.3-1.7-0.6-2.5-0.8c0,0,0,0-0.1,0c-0.9-0.2-1.8-0.3-2.7-0.3c-0.9,0-1.8,0.1-2.7,0.3c0,0-0.1,0-0.1,0     c-0.9,0.2-1.7,0.4-2.5,0.7c0,0,0,0-0.1,0c-0.8,0.3-1.6,0.7-2.3,1.2c0,0,0,0,0,0c-0.7,0.5-1.4,1-2,1.6l0,0l-0.1,0     c-1,1-1.9,2.1-2.6,3.3c0,0,0,0,0,0c-0.2,0.4-0.4,0.8-0.6,1.2c0,0,0,0.1-0.1,0.1c-0.2,0.4-0.3,0.7-0.4,1.1c0,0.1-0.1,0.1-0.1,0.2     c-0.1,0.4-0.2,0.7-0.3,1.1c0,0.1-0.1,0.2-0.1,0.3c-0.1,0.4-0.1,0.7-0.2,1.1c0,0.1,0,0.2-0.1,0.3c0,0.5-0.1,1-0.1,1.5     c0,0.9,0.1,1.8,0.3,2.7c0,0,0,0,0,0.1c0.2,0.9,0.4,1.7,0.8,2.6c0,0,0,0,0,0c0.7,1.6,1.7,3.1,2.9,4.4c1,1,2.1,1.9,3.3,2.6     c0,0,0,0,0,0c0.4,0.2,0.8,0.4,1.2,0.6c0,0,0.1,0,0.1,0c0.4,0.2,0.8,0.3,1.1,0.4c0.1,0,0.1,0,0.2,0.1c0.4,0.1,0.7,0.2,1.1,0.3     c0.1,0,0.2,0.1,0.3,0.1c0.4,0.1,0.7,0.1,1.1,0.2c0.1,0,0.2,0,0.3,0.1c0.5,0,1,0.1,1.5,0.1c2,0,3.8-0.4,5.5-1.1     c0.8-0.4,1.6-0.8,2.4-1.3c1.5-1,2.8-2.3,3.8-3.8c0.5-0.8,0.9-1.6,1.3-2.4c0.7-1.7,1.1-3.6,1.1-5.5c0,0,0-0.1,0-0.1l0,0     C276.4,162.6,276.4,162.6,276.4,162.6L276.4,162.6z M262.3,160.9c-2.9,0-5.3-2.4-5.3-5.3c0-2.9,2.4-5.3,5.3-5.3s5.3,2.4,5.3,5.3     C267.6,158.5,265.2,160.9,262.3,160.9z"/><circle class="st9" cx="262.3" cy="155.6" id="XMLID_18_" r="5.3"/><path class="st10" d="M252.5,152.5L252.5,152.5L252.5,152.5L252.5,152.5L252.5,152.5l9.8-29.9c0,0,0-1.8,0-3.5     c0-0.5,0-1,0-1.4c0-0.2,0-0.3,0-0.4c0-0.2,0-0.4,0-0.6c0-0.1,0-0.3,0-0.4c0-0.1,0-0.3,0-0.4c0-0.1,0-0.2,0-0.2c0-0.1,0-0.1,0-0.1     c-5.4-1.1-11-1.7-16.7-1.7c-1.9,0-3.8,0.1-5.7,0.2c-0.3,0-0.5,0-0.8,0.1c-9.8,0.7-19.4,3.3-28.3,7.4c-7.6,3.5-14.8,8.1-21.1,13.5     l0,0c0,0,0,0,0,0c-1.7,1.5-3.4,3-5,4.6c-0.3,0.3-0.6,0.6-0.9,0.9c-1.5,1.5-3,3.1-4.4,4.7c-0.3,0.4-0.6,0.7-0.9,1.1     c-1.4,1.7-2.8,3.4-4.1,5.1c-0.1,0.1-0.2,0.3-0.3,0.4c-1.2,1.7-2.4,3.4-3.6,5.2c-0.2,0.3-0.5,0.7-0.7,1c-0.9,1.5-1.8,3-2.6,4.5     h44.3h0.1L252.5,152.5z" id="XMLID_17_"/><path class="st13" d="M290,149.2c0.1-1.2,0.2-2.3,0.2-3.5c0.1-1.6,0.1-3.1,0.2-4.7c0-1.2,0-2.4,0-3.7     c0-0.4,0-0.7,0-1.1c0-3.2-0.2-6.3-0.3-9.5l0,0l0,0c0,0,0,0,0,0c0,0,0,0,0,0c0,0-0.1,0-0.1-0.1c0,0-0.1,0-0.1-0.1     c-0.6-0.3-2-1.1-3.3-1.9c0,0-0.1,0-0.1,0c-0.3-0.2-0.6-0.4-0.9-0.5c0,0,0,0,0,0c-0.2-0.1-0.4-0.3-0.6-0.4c0,0-0.1-0.1-0.1-0.1     c-0.2-0.1-0.4-0.2-0.5-0.3c-2-1.1-4.1-2-6.2-2.9c-5-2.1-11.8-4-15.7-4.9v2.7v0.6v0.2c0,1.8,0,3.5,0,3.5l9.7,29.8l0,0     c1,0.9,1.9,2,2.5,3.2l0,0c0.2,0.4,0.4,0.8,0.6,1.2c0,0,0,0,0,0c0.2,0.4,0.4,0.8,0.5,1.3c0,0,0,0,0,0c0.1,0.4,0.3,0.9,0.4,1.3     c0,0,0,0,0,0c0.1,0.5,0.2,0.9,0.2,1.4c0,0,0,0,0,0c0.1,0.5,0.1,1,0.1,1.5l0,0l0,0.1h11.8c0.8-4.3,1.4-8.7,1.7-13.1     C290,149.4,290,149.3,290,149.2z" id="XMLID_16_"/><path class="st14" d="M305.5,138.6C305.5,138.6,305.5,138.6,305.5,138.6C305.5,138.6,305.5,138.6,305.5,138.6     L305.5,138.6z" id="XMLID_15_"/><path class="st14" d="M276.5,205.2c2.7-2.7,5.2-5.2,7.6-7.7c1.4-1.5,2.8-3,4.2-4.4c9.9-10.7,17.1-20.8,21.5-33.7     c0.1-0.3,0.2-0.7,0.3-1.2c0-0.1,0-0.1,0-0.2c0.1-0.5,0.2-1,0.3-1.6c0-0.4,0.1-0.8,0.1-1.2c-1.1-5.6-3.2-11.1-5.1-16.5     c0,0,0,0,0,0.1c0,0,0,0-0.1-0.1c-0.4-0.3-0.7-0.7-1.1-1c-1.1-1-2.2-2-3.4-3c-3.5-2.9-7.1-5.6-10.9-7.9l0,0     c0.2,3.2,0.3,6.3,0.3,9.5c0,0.4,0,0.7,0,1.1c0,1.2,0,2.4,0,3.7c0,1.6-0.1,3.2-0.2,4.7c-0.1,1.2-0.1,2.3-0.2,3.5     c0,0.1,0,0.2,0,0.4c-0.4,4.4-0.9,8.8-1.7,13.1l-1.4,6.6c-2.9,11.8-8.8,22.4-13.6,33.4c-1.3,2.9-2.5,5.9-3.6,8.9     c-0.1,0.3-0.2,0.6-0.3,0.9c1.5-1.6,2.9-3,3.9-4C274.4,207.3,275.4,206.2,276.5,205.2z" id="XMLID_14_"/><path class="st12" d="M252.6,152.5L252.6,152.5c0.6-0.6,1.3-1.1,2-1.6c0,0,0,0,0,0c0.7-0.5,1.5-0.9,2.3-1.2     c0,0,0,0,0.1,0c0.8-0.3,1.6-0.6,2.5-0.7c0,0,0.1,0,0.1,0c0.9-0.2,1.8-0.3,2.7-0.3c0.9,0,1.8,0.1,2.7,0.3c0,0,0,0,0.1,0     c0.9,0.2,1.7,0.4,2.5,0.8c0,0,0,0,0,0c1.6,0.7,3.1,1.6,4.4,2.9l0,0l-9.7-29.8L252.6,152.5z" id="XMLID_13_"/><path class="st11" d="M249.2,168.1c-0.3-0.8-0.6-1.7-0.8-2.6c0,0,0,0,0-0.1c-0.2-0.9-0.3-1.8-0.3-2.7     c0-0.5,0-1,0.1-1.5c0-0.1,0-0.2,0.1-0.3c0-0.4,0.1-0.7,0.2-1.1c0-0.1,0.1-0.2,0.1-0.3c0.1-0.4,0.2-0.7,0.3-1.1     c0-0.1,0.1-0.1,0.1-0.2c0.1-0.4,0.3-0.8,0.4-1.1c0,0,0-0.1,0.1-0.1c0.2-0.4,0.4-0.8,0.6-1.2c0,0,0,0,0,0c0.7-1.2,1.6-2.3,2.6-3.3     l0,0l-41,10.1h-0.1l40.6,9.9C250.9,171.3,249.9,169.8,249.2,168.1C249.2,168.1,249.2,168.1,249.2,168.1z" id="XMLID_12_"/><path class="st13" d="M341.4,160.4c0-0.2,0.1-0.4,0.1-0.5c0.1-0.6,0.2-1.2,0.4-1.7c0-0.1,0-0.1,0-0.2l5.3-24.5     l0-14c-4.4-3.6-9-5.6-13.9-5.6c-6.2,0-11.9,3.4-16.2,7.6c-4.7,4.6-8.3,10.4-11.3,16.2c-0.1,0.3-0.3,0.5-0.4,0.8     c0.9,0.8,1.8,1.6,2.7,2.4c2,1.8,4,3.7,5.9,5.6c0.9,0.9,1.8,1.8,2.7,2.7c0.9,1,1.9,1.9,2.8,2.9c1.2,1.3,2.4,2.5,3.5,3.8     c0.5,0.5,1,1.1,1.5,1.6c1.4,1.6,2.8,3.1,4.2,4.7l0,0c0.2,0.2,0.4,0.4,0.5,0.5h12.1c0-0.1,0-0.2,0-0.3     C341.3,161.8,341.3,161.1,341.4,160.4z" id="XMLID_11_"/><path class="st13" d="M305.5,138.6C305.5,138.6,305.5,138.6,305.5,138.6L305.5,138.6     C305.5,138.6,305.5,138.6,305.5,138.6C305.5,138.7,305.5,138.7,305.5,138.6C305.5,138.7,305.5,138.7,305.5,138.6z" id="XMLID_10_"/><path class="st3" d="M159.9,178.1c0-0.1,0.1-0.2,0.1-0.3c0.8-2,1.6-4,2.5-6c0.2-0.6,0.5-1.1,0.8-1.6     c0.7-1.6,1.5-3.1,2.3-4.6c0.3-0.6,0.6-1.2,1-1.9c0.2-0.3,0.4-0.7,0.6-1c0.9-1.5,1.7-3,2.6-4.5c0.2-0.3,0.5-0.7,0.7-1     c1.1-1.8,2.3-3.5,3.6-5.2c0.1-0.1,0.2-0.3,0.3-0.4c1.3-1.8,2.7-3.5,4.1-5.1c0.3-0.4,0.6-0.7,0.9-1.1c1.4-1.6,2.9-3.2,4.4-4.7     c0.3-0.3,0.6-0.6,0.9-0.9c1.6-1.6,3.2-3.1,5-4.6c0,0,0,0,0,0c6.7-22.6,27.4-39.1,51.8-39.1c9.8,0,19.6,2.8,28,8     c8.6,5.3,15.6,13,20.1,21.9c0,0,0,0.1,0.1,0.1c0.1,0.2,0.2,0.4,0.4,0.7l0,0l0,0c0,0,0,0,0,0c0,0,0,0,0,0c3.8,2.3,7.4,5,10.9,7.9     c1.2,1,2.3,2,3.4,3c0.4,0.3,0.7,0.7,1.1,1c0,0,0,0,0,0c0,0,0,0,0,0c0.1-0.3,0.2-0.5,0.4-0.8c3.4-21.7,13-37.4,24.3-37.4     c8.5,0,16.1,8.9,20.7,22.6l0,0.1c0,0,0,0,0,0c1.3,1.4,2.6,3,3.9,4.7l0,0c0,0,0,0.1,0.1,0.1l0,0l0,0c0.1,0.2,0.1,0.4,0.2,0.6v0     l-0.2-0.7c-14.1-41.6-53.4-71.6-99.8-71.6c-58.2,0-105.3,47.1-105.3,105.3c0,11.5,1.8,22.5,5.2,32.8c0,0,0,0,0-0.1     c0.7-3.1,1.5-6.2,2.4-9.2C158.2,182.7,159,180.4,159.9,178.1z" id="XMLID_9_"/><path class="st9" d="M356.5,162.8l-3.7,4.1v0c0,0,0,0,0,0c-0.1,0.5-0.3,1-0.5,1.5c0,0.1-0.1,0.2-0.2,0.4     c-0.1,0.3-0.3,0.7-0.5,1c-0.1,0.2-0.2,0.3-0.3,0.5c-0.2,0.2-0.3,0.5-0.5,0.7c-0.2,0.3-0.5,0.6-0.8,0.8c-0.1,0.1-0.2,0.2-0.3,0.3     c-0.2,0.2-0.4,0.3-0.6,0.4c-0.1,0-0.2,0.1-0.3,0.1c-0.5,0.3-1.1,0.4-1.7,0.4c-3.3,0-6-4.6-6-10.4h0h0h-12.1h0c0,0,0,0,0,0     c2.3,2.6,4.5,5.2,6.6,7.9c0,0,0.1,0.1,0.1,0.1c2.1,2.6,4.2,5.2,6.3,7.8c0.1,0.1,0.2,0.3,0.3,0.4c2,2.5,3.9,5,5.8,7.5     c0.2,0.2,0.4,0.5,0.6,0.7c2,2.7,4,5.4,6,8c0,0,0,0,0,0.1c3.5-10.3,5.4-21.2,5.5-32.6h0L356.5,162.8L356.5,162.8z" id="XMLID_8_"/><path d="M239.1,114.1c0.3,0,0.5,0,0.8-0.1c1.9-0.1,3.8-0.2,5.7-0.2c5.7,0,11.3,0.6,16.7,1.7c0,0,0,0,0,0.1     c0,0,0,0.1,0,0.2c0,0.1,0,0.2,0,0.4c0,0.1,0,0.2,0,0.4c0,0.2,0,0.4,0,0.6c0,0.1,0,0.3,0,0.4c0,0.2,0,0.4,0,0.6v-2.7     c3.8,0.9,10.6,2.8,15.7,4.9c2.1,0.9,4.2,1.9,6.2,2.9c0.1,0,0.3,0.1,0.5,0.3c0,0,0.1,0,0.1,0.1c0.2,0.1,0.4,0.2,0.6,0.4     c0,0,0,0,0,0c0.3,0.2,0.6,0.3,0.9,0.5c0,0,0.1,0,0.1,0c1.3,0.7,2.7,1.6,3.3,1.9c0.1,0,0.1,0.1,0.1,0.1c0,0,0.1,0.1,0.1,0.1l0,0     c-0.1-0.2-0.2-0.4-0.4-0.7c0,0,0-0.1-0.1-0.1c-4.5-9-11.6-16.7-20.1-21.9c-8.4-5.1-18.2-8-28-8c-24.4,0-45.1,16.5-51.8,39.1     c6.4-5.5,13.5-10.1,21.1-13.5C219.7,117.4,229.4,114.9,239.1,114.1z" id="XMLID_7_"/><line class="st8" id="XMLID_6_" x1="262.4" x2="262.4" y1="118.3" y2="118.9"/><path d="M317.2,121.6c4.3-4.2,10-7.6,16.2-7.6c4.9,0,9.6,2,13.9,5.6c0,0,0,0,0,0l0,0v0c0.4,0.3,0.8,0.7,1.2,1     c0.2,0.2,0.5,0.4,0.7,0.6c0.6,0.6,1.2,1.2,1.8,1.9v0c0,0,0,0,0,0c0,0,0,0,0,0l0,0l0-0.1c-4.7-13.7-12.2-22.6-20.7-22.6     c-11.3,0-20.9,15.6-24.3,37.4l0,0C308.8,132,312.5,126.2,317.2,121.6z" id="XMLID_5_"/><path class="st9" d="M217.4,259.9c1,0.4,1.9,0.7,2.9,1c10.9,3.8,22.6,5.9,34.8,5.9c13.9,0,27.2-2.7,39.3-7.6     c0.6-0.3,1.3-0.5,1.9-0.8c1-0.4,2.1-0.9,3.1-1.4c0.9-0.4,1.8-0.8,2.7-1.3c-0.2,0-0.4,0.1-0.6,0.1l0,0c-3.8,0.4-7.5,0.5-11.2-0.1     c-21.7-3.1-26.5-13.6-25.8-24.4c-1.6-0.9-3.1-1.9-4.8-3.1c-16.7-12.1-26.6-25-26.6-25s12.9,9.9,32.1,17.4     c0.4,0.2,0.8,0.3,1.2,0.5c0.9-3.1,2-6.1,2.9-8.7l0,0c0.1-0.3,0.2-0.6,0.3-0.9c1.1-3,2.3-6,3.6-8.9c4.8-11,10.7-21.7,13.6-33.4     l1.4-6.6h-11.8h0h0c0,0,0,0,0,0l0,0l0,0c0,0,0,0.1,0,0.1c0,2-0.4,3.8-1.1,5.5c-0.4,0.8-0.8,1.7-1.3,2.4c-1,1.5-2.3,2.8-3.8,3.8     c-0.8,0.5-1.6,0.9-2.4,1.3c-1.7,0.7-3.6,1.1-5.5,1.1c-0.5,0-1,0-1.5-0.1c-0.1,0-0.2,0-0.3-0.1c-0.4,0-0.7-0.1-1.1-0.2     c-0.1,0-0.2-0.1-0.3-0.1c-0.4-0.1-0.7-0.2-1.1-0.3c-0.1,0-0.1,0-0.2-0.1c-0.4-0.1-0.8-0.3-1.1-0.4c0,0-0.1,0-0.1,0     c-0.4-0.2-0.8-0.4-1.2-0.6c0,0,0,0,0,0c-1.2-0.7-2.3-1.5-3.3-2.6l-40.6-9.9h-44.3c-0.2,0.3-0.4,0.7-0.6,1c-0.3,0.6-0.7,1.2-1,1.9     c-0.8,1.5-1.6,3.1-2.3,4.6c-0.3,0.5-0.5,1.1-0.8,1.6c-0.9,2-1.7,4-2.5,6c0,0.1-0.1,0.2-0.1,0.3c-0.9,2.3-1.7,4.7-2.4,7.1     c-0.9,3-1.7,6.1-2.4,9.2c7,21.3,20.5,39.6,38.3,52.4c0.5,0.4,1.1,0.7,1.6,1.1c3,2.1,6.1,4.1,9.3,5.8     C208.5,256,212.9,258.1,217.4,259.9z" id="XMLID_4_"/><path class="st15" d="M290.1,227.1c-0.2,1.1-0.3,2.2-0.3,3.3c-0.1,1.9,0.1,3.8,0.4,5.5c0.2,1.2,0.4,2.3,0.7,3.4     c0.5,1.6,1,3.1,1.7,4.5s1.4,2.7,2.1,3.8c0.2,0.4,0.5,0.8,0.7,1.1c0.4,0.5,0.7,1,1.1,1.5c0.5,0.6,1,1.2,1.4,1.7     c1.9,2.2,3.5,3.4,3.5,3.4s0,0,0,0.1c0,0.1,0,0.2,0.1,0.3l0,0c0.2,0,0.4-0.1,0.6-0.1c4.7-0.6,9.4-1.9,14.1-3.5     c2.4-0.9,4.8-1.8,7.1-2.8c0.7-0.3,1.4-0.7,2.1-1c24.1-11.7,44.3-32.3,44.3-32.3C339.5,230.9,309.8,230.3,290.1,227.1z" id="XMLID_3_"/><path class="st1" d="M348.3,186.5c-1.9-2.5-3.9-5-5.8-7.5c-0.1-0.1-0.2-0.3-0.3-0.4c-2.1-2.6-4.2-5.2-6.3-7.8     c0,0-0.1-0.1-0.1-0.1c-2.2-2.7-4.4-5.3-6.6-7.9c-0.1-0.2-0.3-0.3-0.4-0.5c-1.4-1.6-2.8-3.1-4.2-4.7c-0.5-0.5-1-1.1-1.5-1.6     c-1.2-1.3-2.3-2.5-3.5-3.8c-0.9-1-1.9-1.9-2.8-2.9c-0.9-0.9-1.8-1.8-2.7-2.7c-1.9-1.9-3.9-3.8-5.9-5.6c-0.9-0.8-1.8-1.6-2.7-2.4     c0,0,0,0,0,0c1.9,5.5,4.1,11,5.2,16.7c0.3,1.5,0.5,2.9,0.7,4.3c2.7,19.7-3.7,32.6-13.7,49.6c-0.7,1.2-1.5,2.5-2.2,3.7     c-2.3,3.8-3.8,7.5-4.6,10.9c-0.3,1.1-0.5,2.2-0.7,3.3c19.7,3.2,49.3,3.8,79.6-11.1c0,0-5.9-8.7-14.9-20.7c-2-2.7-4-5.4-6-8     C348.7,187,348.5,186.7,348.3,186.5z" id="XMLID_2_"/><path d="M301.4,255.5c0,0-1.5-1.2-3.5-3.4c-0.5-0.5-0.9-1.1-1.4-1.7c-0.4-0.5-0.7-1-1.1-1.5     c-0.2-0.4-0.5-0.7-0.7-1.1c-0.7-1.2-1.4-2.4-2.1-3.8c-0.6-1.4-1.2-2.9-1.7-4.5c-0.3-1.1-0.6-2.2-0.7-3.4     c-0.3-1.7-0.4-3.6-0.4-5.5c0-1.1,0.1-2.2,0.3-3.3c0.2-1.1,0.4-2.2,0.7-3.3c0.9-3.4,2.3-7,4.6-10.9c0,0,0,0,0,0     c0.7-1.3,1.5-2.5,2.2-3.7c10-17,16.4-29.8,13.7-49.6c-0.2-1.4-0.4-2.9-0.7-4.3c-0.1,1-0.3,1.9-0.5,2.6c0,0.1,0,0.1,0,0.2     c-0.1,0.5-0.2,0.9-0.3,1.2c-4.4,12.9-11.6,23-21.5,33.7c-1.3,1.5-2.7,2.9-4.2,4.4c-2.4,2.5-5,5.1-7.6,7.7     c-1.1,1.1-2.2,2.1-3.3,3.2c-1,1-2.4,2.4-3.9,4l0,0c-0.9,2.6-2,5.6-2.9,8.7c-0.4-0.2-0.8-0.3-1.2-0.5     c-19.2-7.4-32.1-17.4-32.1-17.4s9.9,12.9,26.6,25c1.6,1.2,3.2,2.2,4.8,3.1c-0.7,10.9,4.1,21.3,25.8,24.4     c3.7,0.5,7.4,0.5,11.2,0.1C301.5,255.7,301.4,255.6,301.4,255.5C301.4,255.5,301.4,255.5,301.4,255.5z" id="XMLID_1_"/></g></g></g></svg>