<svg width="250" height="250" viewBox="0 0 250 250" fill="none" xmlns="http://www.w3.org/2000/svg">
<g clip-path="url(#clip0_973_1267)">
<path d="M98.6205 165.088C99.8182 164.554 101.032 164.064 102.256 163.604C103.639 163.084 105.033 162.596 106.446 162.17C108.204 161.64 109.977 161.161 111.774 160.78C114.199 160.264 116.651 159.885 119.118 159.645C117.724 164.019 116.198 168.351 114.543 172.634C114.612 173.47 114.655 174.308 114.675 175.146C118.075 174.474 121.533 174.135 125 174.134C128.534 174.134 131.984 174.487 135.325 175.146C135.345 174.308 135.388 173.47 135.457 172.634C133.802 168.351 132.276 164.019 130.882 159.645C133.351 159.884 135.803 160.265 138.226 160.78C140.022 161.161 141.795 161.64 143.554 162.17C144.967 162.596 146.361 163.084 147.744 163.604C148.969 164.064 150.183 164.555 151.381 165.088C160.038 168.937 167.751 174.631 173.98 181.77C189.906 168.018 200 147.694 200 125C200 83.5789 166.421 50 125 50C83.5789 50 50 83.5789 50 125C50 147.694 60.0939 168.017 76.0197 181.77C82.2491 174.63 89.9623 168.937 98.6205 165.088" fill="#A5DBE8"/>
<path d="M151.382 165.088L156.038 181.098L157.358 181.16C158.216 181.16 158.819 181.385 158.819 182.243C158.819 183.668 158.892 185.269 159.029 186.667C160.189 187.652 161.602 188.763 162.673 189.842C166.683 187.506 170.469 184.804 173.981 181.77C167.752 174.631 160.04 168.937 151.382 165.088M142.278 164.928L147.745 163.604C146.362 163.084 144.968 162.596 143.555 162.17C141.796 161.64 140.023 161.161 138.227 160.78C135.802 160.264 133.35 159.885 130.883 159.645C132.277 164.019 133.803 168.351 135.458 172.634C135.39 173.47 135.346 174.308 135.327 175.146C139.2 175.91 143.009 177.238 146.53 178.796L142.278 164.928" fill="#525353"/>
<path d="M87.3281 189.842C88.1988 190.35 89.0783 190.845 89.9725 191.318C90.2854 189.815 90.7857 187.732 90.9369 186.186C89.7768 187.171 88.3992 188.763 87.3281 189.842ZM146.438 178.657C142.875 177.079 139.148 175.902 135.325 175.146C131.924 174.474 128.466 174.135 125 174.134C121.465 174.134 118.015 174.487 114.674 175.146C110.801 175.91 106.76 177.068 103.24 178.625L102.865 180.958H147.135L146.438 178.657" fill="black"/>
<path d="M90.7998 186.63C90.9369 185.232 91.0359 183.986 91.0359 182.56C91.0359 181.704 91.6236 181.155 92.4809 181.155L93.8865 181.105L98.6203 165.088C89.9621 168.937 82.2489 174.63 76.0195 181.77C79.5318 184.804 83.3175 187.506 87.3281 189.842C88.3992 188.762 89.5158 187.728 90.675 186.743" fill="#525353"/>
<path d="M159.6 189.479C159.903 191.003 159.972 191.306 160.027 191.318C160.918 190.844 161.8 190.352 162.671 189.842C161.588 188.75 160.46 187.705 159.289 186.708L159.6 189.479" fill="black"/>
<path d="M146.438 178.657L147.136 180.958H156.191L151.381 165.088C150.184 164.557 148.971 164.063 147.744 163.604L142.277 164.928L146.438 178.657Z" fill="#AA9678"/>
<path d="M93.9688 184.163C94.0162 184.129 94.0643 184.096 94.1111 184.062H93.9752C93.974 184.095 93.9705 184.129 93.9688 184.163Z" fill="#C4B6A1"/>
<path d="M156.027 184.062H155.891L156.033 184.163C156.032 184.129 156.028 184.095 156.027 184.062Z" fill="#AA9678"/>
<path d="M155.871 183.83L124.938 183.866L125.002 200C136.514 200 147.418 197.399 157.166 192.763C156.529 189.967 156.466 186.955 156.362 184.024C156.315 183.99 155.871 183.83 155.871 183.83" fill="#AA9678"/>
<path d="M124.95 183.932C124.95 183.932 93.8455 183.893 93.798 183.927C93.6949 186.858 93.0902 190.336 92.8359 192.763C102.584 197.399 113.487 200 125 200L125.017 183.985L124.95 183.932Z" fill="#C4B6A1"/>
<path d="M148.198 171.969L148.214 172.017L148.198 171.969C148.198 171.969 147.438 171.366 146.473 170.255C147.438 171.366 148.198 171.969 148.198 171.969Z" fill="#AA9678"/>
<path d="M171.117 104.11V104.114V104.11ZM174.135 125.704L174.136 125.681L174.135 125.704Z" fill="white"/>
<path d="M174.052 124.513C174.054 124.533 174.06 124.551 174.062 124.571C174.064 124.583 174.068 124.594 174.069 124.606V124.61C174.105 124.897 174.119 125.196 174.125 125.498C174.126 125.554 174.136 125.606 174.136 125.661L174.136 125.681L174.136 125.704C174.135 125.764 174.125 125.819 174.124 125.878C174.12 126.169 174.102 126.46 174.07 126.749V126.753L174.062 126.796C174.059 126.819 174.052 126.839 174.049 126.862C174.01 127.16 173.954 127.457 173.881 127.749L173.88 127.753V127.754L173.891 127.742L173.895 127.729V127.729L175.858 125.674L173.879 123.603L173.879 123.607C173.953 123.896 174.01 124.2 174.052 124.513Z" fill="#676A6A"/>
<path d="M174.05 126.862C174.055 126.823 174.065 126.788 174.071 126.749C174.105 126.468 174.118 126.174 174.125 125.878C174.126 125.812 174.136 125.749 174.136 125.681C174.136 125.619 174.127 125.56 174.126 125.498C174.122 125.201 174.104 124.905 174.07 124.61C174.065 124.576 174.056 124.547 174.052 124.513C174.013 124.208 173.955 123.906 173.88 123.607C173.854 123.506 173.819 123.417 173.789 123.32C173.611 122.732 173.369 122.214 173.082 121.783C172.972 121.62 172.852 121.463 172.722 121.314C172.604 121.183 172.474 121.063 172.334 120.954C172.283 120.915 172.228 120.887 172.176 120.853C172.014 120.747 171.839 120.663 171.655 120.602C171.482 120.544 171.301 120.513 171.118 120.509C170.934 120.509 170.756 120.548 170.581 120.602C170.397 120.662 170.221 120.747 170.06 120.853C170.008 120.887 169.953 120.914 169.902 120.954C169.661 121.142 169.449 121.365 169.273 121.615C169.232 121.67 169.192 121.727 169.154 121.784C168.867 122.214 168.624 122.733 168.447 123.32L168.425 123.39C168.346 123.66 168.286 123.944 168.235 124.235C168.219 124.324 168.199 124.409 168.187 124.501C168.14 124.827 168.116 125.166 168.11 125.514C168.109 125.563 168.102 125.608 168.102 125.656H168.113C168.113 128.513 169.465 130.829 171.132 130.829C171.419 130.829 171.695 130.754 171.958 130.626C172.116 130.548 172.265 130.454 172.402 130.345C172.459 130.299 172.513 130.244 172.567 130.193C172.7 130.068 172.827 129.928 172.947 129.771C173.03 129.662 173.112 129.552 173.188 129.43C173.237 129.352 173.281 129.267 173.326 129.184C173.411 129.028 173.49 128.866 173.563 128.694C173.589 128.632 173.617 128.571 173.642 128.507C173.734 128.268 173.814 128.015 173.882 127.749C173.954 127.466 174.008 127.169 174.05 126.862V126.862ZM171.226 124.993C170.601 124.993 170.094 124.124 170.094 123.053C170.094 121.982 170.601 121.113 171.226 121.113C171.852 121.113 172.358 121.982 172.358 123.053C172.358 124.124 171.852 124.993 171.226 124.993Z" fill="black"/>
<path d="M171.226 121.114C170.601 121.114 170.094 121.982 170.094 123.053C170.094 124.124 170.601 124.993 171.226 124.993C171.851 124.993 172.357 124.124 172.357 123.053C172.357 121.982 171.851 121.114 171.226 121.114" fill="white"/>
<path d="M168.446 123.32C168.623 122.733 168.865 122.214 169.153 121.784C169.191 121.725 169.23 121.671 169.271 121.615C169.447 121.364 169.659 121.141 169.901 120.954C169.952 120.914 170.007 120.887 170.058 120.853C170.22 120.747 170.395 120.662 170.579 120.602C170.754 120.547 170.933 120.509 171.117 120.509C171.301 120.509 171.479 120.547 171.654 120.602C171.838 120.663 172.013 120.747 172.174 120.853C172.227 120.887 172.281 120.915 172.333 120.954C172.468 121.057 172.597 121.179 172.721 121.314C172.851 121.463 172.971 121.62 173.081 121.783C173.368 122.214 173.61 122.732 173.787 123.32V123.321L171.117 111.088L168.445 123.32H168.446" fill="#909393"/>
<path d="M135.724 125.567C135.72 125.321 135.704 125.078 135.677 124.839C135.676 124.836 135.675 124.832 135.675 124.829C135.647 124.595 135.608 124.363 135.557 124.133L135.553 124.115C135.502 123.891 135.441 123.669 135.369 123.451L135.363 123.436C135.292 123.22 135.209 123.007 135.116 122.799C135.115 122.795 135.112 122.79 135.11 122.786C134.366 121.129 133.015 119.821 131.336 119.13L131.316 119.122C130.907 118.955 130.484 118.828 130.051 118.74C130.04 118.739 130.03 118.738 130.018 118.736C129.572 118.648 129.118 118.603 128.663 118.603C128.207 118.603 127.763 118.65 127.331 118.732L127.286 118.739C126.856 118.825 126.442 118.95 126.044 119.11L126.012 119.122C125.61 119.285 125.224 119.485 124.859 119.72C124.494 119.956 124.151 120.223 123.836 120.519L123.828 120.543L123.802 120.549C123.297 121.03 122.865 121.581 122.519 122.186L122.506 122.208C122.401 122.394 122.305 122.587 122.217 122.784C122.208 122.805 122.196 122.825 122.187 122.846C122.107 123.028 122.038 123.217 121.974 123.407C121.961 123.444 121.945 123.48 121.933 123.516C121.877 123.694 121.831 123.876 121.788 124.058C121.777 124.111 121.76 124.162 121.749 124.214C121.711 124.394 121.685 124.579 121.661 124.764C121.654 124.821 121.642 124.875 121.636 124.932C121.562 125.634 121.595 126.342 121.732 127.034C121.733 127.043 121.734 127.053 121.736 127.063C121.825 127.504 121.955 127.929 122.122 128.336C122.124 128.342 122.125 128.348 122.128 128.353C122.466 129.171 122.954 129.918 123.567 130.556C124.048 131.057 124.601 131.487 125.209 131.83L125.218 131.836C125.408 131.942 125.604 132.038 125.804 132.127C125.82 132.134 125.836 132.144 125.853 132.151C126.038 132.232 126.23 132.301 126.423 132.366C126.455 132.378 126.487 132.392 126.52 132.402C126.698 132.459 126.882 132.505 127.066 132.547C127.116 132.559 127.164 132.575 127.214 132.586C127.393 132.623 127.577 132.648 127.762 132.672C127.818 132.678 127.873 132.691 127.93 132.697C129.58 132.871 131.238 132.457 132.614 131.529C133.366 131.02 134.014 130.372 134.523 129.62C135.311 128.453 135.731 127.077 135.73 125.669C135.73 125.652 135.727 125.636 135.727 125.621C135.727 125.602 135.724 125.585 135.724 125.567V125.567ZM128.663 124.739C128.315 124.739 127.969 124.671 127.647 124.537C127.325 124.404 127.033 124.208 126.786 123.962C126.54 123.715 126.344 123.422 126.211 123.1C126.077 122.778 126.009 122.433 126.009 122.084C126.009 121.736 126.078 121.391 126.211 121.069C126.345 120.747 126.54 120.454 126.787 120.207C127.033 119.961 127.326 119.765 127.648 119.632C127.97 119.499 128.315 119.43 128.664 119.43C129.368 119.43 130.043 119.71 130.541 120.208C131.039 120.706 131.318 121.381 131.318 122.085C131.318 122.789 131.038 123.464 130.54 123.962C130.042 124.46 129.367 124.739 128.663 124.739V124.739Z" fill="black"/>
<path d="M128.662 119.43C127.958 119.43 127.283 119.71 126.785 120.207C126.287 120.705 126.008 121.38 126.008 122.084C126.008 122.788 126.287 123.463 126.785 123.961C127.283 124.459 127.958 124.739 128.662 124.739C129.366 124.739 130.041 124.459 130.539 123.961C131.037 123.463 131.316 122.788 131.316 122.084C131.316 121.38 131.037 120.705 130.539 120.207C130.041 119.71 129.366 119.43 128.662 119.43" fill="white"/>
<path d="M123.8 120.549L123.826 120.543L123.834 120.519L128.7 105.635V102.152L128.7 102.113C125.953 101.544 123.155 101.255 120.35 101.251C119.398 101.251 118.454 101.292 117.515 101.356C117.378 101.365 117.241 101.373 117.104 101.384C112.219 101.755 107.409 103.028 102.954 105.061C99.1346 106.805 95.5855 109.103 92.3951 111.827V111.828L92.3898 111.832C91.5362 112.563 90.7093 113.325 89.9107 114.116C89.7607 114.262 89.6084 114.407 89.4602 114.556C88.7053 115.318 87.975 116.103 87.2705 116.911C87.1176 117.087 86.967 117.267 86.8158 117.445C86.1048 118.28 85.4205 119.136 84.7639 120.014C84.7094 120.087 84.6584 120.165 84.6045 120.239C83.9816 121.089 83.3845 121.958 82.8139 122.845C82.702 123.018 82.5871 123.188 82.4775 123.363C82.0146 124.097 81.584 124.851 81.1562 125.607H103.326L123.8 120.549Z" fill="#BBBCBD"/>
<path d="M142.515 118.875C142.56 118.294 142.597 117.714 142.627 117.133C142.667 116.346 142.695 115.559 142.71 114.772C142.722 114.161 142.72 113.549 142.717 112.938C142.717 112.761 142.721 112.585 142.72 112.408C142.701 110.83 142.643 109.253 142.546 107.678L142.532 107.669L142.526 107.658C141.94 107.321 141.354 106.986 140.767 106.653L140.726 106.629L140.267 106.37L140.259 106.365L139.94 106.187L139.878 106.152C139.801 106.109 139.724 106.067 139.646 106.026C138.627 105.497 137.587 105.008 136.53 104.561C134.008 103.497 130.612 102.563 128.699 102.113V105.635L133.523 120.543L133.529 120.556C134.027 121.03 134.455 121.576 134.798 122.177V122.178C134.911 122.374 135.014 122.578 135.107 122.786C135.109 122.79 135.112 122.795 135.113 122.799C135.206 123.006 135.288 123.219 135.36 123.436L135.366 123.451C135.438 123.668 135.499 123.89 135.549 124.115L135.554 124.133C135.604 124.361 135.644 124.593 135.672 124.829C135.672 124.832 135.673 124.836 135.674 124.839C135.701 125.078 135.717 125.321 135.721 125.567L135.739 125.607H141.646C142.042 123.439 142.327 121.253 142.499 119.056C142.503 118.995 142.51 118.935 142.515 118.875" fill="#E3DDDB"/>
<path d="M150.241 113.604C150.237 113.61 150.234 113.618 150.23 113.625L150.241 113.604" fill="#FCB03F"/>
<path d="M123.836 120.519C124.153 120.222 124.497 119.954 124.863 119.718C125.227 119.484 125.612 119.285 126.013 119.122C126.023 119.117 126.034 119.114 126.044 119.11C126.446 118.948 126.862 118.824 127.286 118.739L127.332 118.732C127.77 118.647 128.216 118.604 128.663 118.603C129.128 118.603 129.58 118.65 130.019 118.736C130.03 118.738 130.04 118.739 130.052 118.74C130.491 118.829 130.922 118.959 131.337 119.13C132.15 119.465 132.895 119.949 133.532 120.556L133.527 120.543L128.703 105.635L123.836 120.519" fill="#909393"/>
<path d="M122.122 128.336C121.953 127.925 121.824 127.498 121.736 127.062C121.734 127.053 121.733 127.043 121.732 127.034C121.595 126.342 121.562 125.634 121.636 124.932C121.642 124.875 121.654 124.821 121.661 124.764C121.685 124.579 121.711 124.394 121.748 124.214C121.76 124.161 121.777 124.111 121.788 124.058C121.831 123.876 121.877 123.694 121.933 123.516C121.945 123.479 121.961 123.444 121.973 123.407C122.038 123.217 122.107 123.028 122.187 122.846C122.196 122.825 122.208 122.805 122.217 122.784C122.305 122.587 122.401 122.394 122.506 122.208L122.519 122.186C122.865 121.581 123.297 121.03 123.802 120.549L103.328 125.607H103.289L123.567 130.556C122.954 129.918 122.466 129.171 122.128 128.353C122.125 128.348 122.124 128.342 122.122 128.336" fill="#676A6A"/>
<path d="M168.185 124.501C168.198 124.409 168.217 124.324 168.233 124.235C168.284 123.944 168.345 123.66 168.423 123.39C168.432 123.36 168.436 123.325 168.445 123.295L171.116 111.063L171.116 104.089C168.933 102.286 166.596 101.301 164.162 101.301C161.087 101.301 158.22 102.999 156.076 105.096C153.73 107.391 151.917 110.278 150.451 113.192C150.384 113.326 150.315 113.455 150.248 113.59C150.7 113.981 151.147 114.378 151.588 114.782C152.585 115.697 153.565 116.631 154.527 117.583C154.976 118.026 155.417 118.478 155.858 118.929C156.327 119.407 156.796 119.883 157.258 120.368C158.103 121.255 158.935 122.153 159.755 123.062C160.459 123.839 161.156 124.622 161.844 125.412L161.846 125.414C161.961 125.534 162.042 125.621 162.073 125.656H168.097C168.097 125.608 168.107 125.563 168.108 125.514C168.114 125.166 168.138 124.827 168.185 124.501M150.247 113.622L150.241 113.604L150.23 113.624L150.257 113.65C150.254 113.64 150.251 113.631 150.247 113.622" fill="#E3DDDB"/>
<path d="M77.5258 133.305L77.5797 133.17C78.3886 131.071 79.3215 129.022 80.3734 127.033C80.5363 126.724 80.6957 126.413 80.8645 126.107C80.9576 125.938 81.0631 125.776 81.158 125.607C81.5857 124.851 82.0164 124.097 82.4793 123.363C82.5889 123.188 82.7037 123.018 82.8156 122.845C83.3862 121.958 83.9834 121.089 84.6062 120.239C84.6602 120.165 84.7111 120.088 84.7656 120.014C85.4223 119.136 86.1066 118.28 86.8176 117.446C86.9688 117.267 87.1188 117.088 87.2723 116.911C87.9768 116.103 88.707 115.318 89.4619 114.556C89.6107 114.407 89.7625 114.262 89.9125 114.116C90.7111 113.325 91.538 112.563 92.3916 111.832L92.3969 111.827C95.7666 100.539 106.647 93.6032 118.847 93.6032C123.757 93.6032 128.641 95.0182 132.825 97.5781C137.118 100.204 140.045 102.769 142.317 107.253L142.351 107.321C142.408 107.434 142.473 107.543 142.529 107.658L142.535 107.669L142.548 107.678C144.457 108.859 146.274 110.18 147.987 111.63C148.562 112.116 149.127 112.615 149.681 113.127C149.864 113.294 150.052 113.454 150.232 113.624C150.236 113.617 150.239 113.61 150.243 113.604C150.245 113.599 150.247 113.594 150.249 113.589C150.312 113.462 150.372 113.333 150.435 113.207C152.154 102.358 157.616 96.4414 163.261 96.4414C167.516 96.4414 170.61 98.9785 172.946 105.808L172.97 105.881L172.976 105.89C173.664 106.641 174.308 107.433 174.902 108.262L174.9 108.261C174.913 108.277 174.926 108.293 174.938 108.31L174.937 108.309L174.938 108.31C174.971 108.409 175 108.511 175.032 108.61V108.609L174.944 108.253C167.922 87.4631 148.258 72.4948 125.097 72.4948C96.0461 72.4948 72.4961 96.0447 72.4961 125.096C72.4961 130.822 73.4113 136.336 75.1105 141.467L75.1176 141.437C75.715 138.669 76.52 135.951 77.5258 133.305" fill="#525353"/>
<path d="M175.728 125.677L173.894 127.729V127.729L173.889 127.742C173.82 128.012 173.734 128.264 173.64 128.507C173.615 128.571 173.588 128.632 173.561 128.694C173.49 128.861 173.412 129.025 173.325 129.184C173.279 129.267 173.235 129.352 173.186 129.43C173.11 129.552 173.028 129.662 172.945 129.771C172.83 129.922 172.703 130.063 172.565 130.193C172.511 130.244 172.458 130.299 172.401 130.345C172.263 130.454 172.114 130.548 171.956 130.626C171.693 130.754 171.417 130.829 171.13 130.829C169.463 130.829 168.112 128.513 168.112 125.656H162.055L162.058 125.661C163.196 126.976 164.316 128.307 165.418 129.652C166.477 130.946 167.523 132.251 168.555 133.566L168.707 133.759C169.686 135.008 170.655 136.263 171.616 137.526L171.896 137.892C172.917 139.235 173.93 140.583 174.938 141.937C176.71 136.689 177.641 131.195 177.696 125.656L175.994 125.592L175.728 125.677" fill="white"/>
<path d="M117.104 101.384C117.241 101.373 117.378 101.365 117.514 101.356C118.458 101.289 119.404 101.254 120.35 101.251C123.202 101.251 125.989 101.557 128.699 102.113H128.7C130.613 102.563 134.009 103.497 136.53 104.561C137.588 105.008 138.628 105.497 139.647 106.026L139.878 106.152L139.941 106.187C140.035 106.239 140.138 106.296 140.259 106.365L140.267 106.37L140.726 106.629L140.767 106.653C141.415 107.02 142.132 107.432 142.407 107.589L142.477 107.629L142.527 107.658C142.471 107.543 142.406 107.434 142.349 107.321L142.315 107.253C140.042 102.769 136.544 98.9228 132.252 96.2973C128.067 93.7373 123.184 92.3223 118.273 92.3223C106.074 92.3223 95.7643 100.539 92.3945 111.827C95.585 109.103 99.134 106.805 102.954 105.061C107.408 103.028 112.219 101.755 117.104 101.384" fill="black"/>
<path d="M174.937 108.31L174.936 108.309L174.937 108.31C174.925 108.293 174.912 108.277 174.899 108.261L174.901 108.261C174.307 107.433 173.663 106.641 172.975 105.89L172.958 105.869C172.664 105.55 172.361 105.241 172.049 104.94C171.933 104.83 171.814 104.733 171.697 104.627C171.504 104.452 171.313 104.271 171.117 104.11V111.088L173.788 123.321V123.321C173.818 123.416 173.853 123.505 173.879 123.603L175.729 125.677L175.747 125.656H177.684C177.686 125.477 177.697 125.3 177.697 125.12V125.117C177.696 119.507 176.796 113.934 175.031 108.609V108.61C174.999 108.51 174.97 108.409 174.937 108.31" fill="#BBBCBD"/>
<path d="M156.077 105.096C158.221 102.999 161.088 101.301 164.163 101.301C166.596 101.301 168.934 102.286 171.116 104.089L171.117 104.11V104.114V104.11C171.312 104.271 171.504 104.452 171.697 104.627C171.813 104.733 171.933 104.83 172.048 104.94C172.361 105.241 172.664 105.55 172.957 105.869L172.974 105.89C172.973 105.887 172.971 105.885 172.969 105.883L172.968 105.882L172.944 105.808C170.608 98.9786 166.839 94.5413 162.585 94.5413C156.939 94.5413 152.153 102.358 150.434 113.207L150.452 113.192C151.918 110.278 153.731 107.391 156.077 105.096M148.449 171.779C148.449 171.779 147.689 171.177 146.724 170.066C146.275 169.553 145.856 169.013 145.47 168.451C145.347 168.272 145.225 168.085 145.104 167.893C144.739 167.316 144.448 166.613 144.127 165.919C143.755 165.115 143.754 164.58 143.541 163.831C143.384 163.28 143.259 162.72 143.168 162.154C143.02 161.238 142.96 160.31 142.99 159.383C143.006 158.848 143.062 158.295 143.142 157.731C143.222 157.171 143.33 156.616 143.468 156.068C143.894 154.367 144.629 152.555 145.776 150.642L146.068 149.987C146.443 149.363 146.526 149.39 146.882 148.789C151.9 140.32 154.607 133.916 153.283 124.056C153.138 123.046 152.973 122.039 152.789 121.035C152.673 121.762 152.551 122.489 152.422 123.214C152.373 123.439 152.236 123.683 152.185 123.836C150.005 130.288 146.574 135.033 141.637 140.391C140.949 141.135 140.253 141.87 139.549 142.598C138.292 143.897 137.021 145.185 135.738 146.459C135.204 146.99 134.659 147.529 134.104 148.079C133.595 148.583 132.962 149.66 132.206 150.454C131.739 151.76 131.209 153.233 130.761 154.783C130.559 154.706 130.366 154.637 130.16 154.558C120.57 150.848 114.148 145.892 114.148 145.892C114.148 145.892 119.089 152.325 127.413 158.363C128.178 158.918 128.972 159.432 129.791 159.903C129.448 165.338 131.846 170.556 142.668 172.112C144.498 172.375 146.372 172.363 148.259 172.15C148.241 172.094 148.365 172.095 148.355 172.064C148.344 172.033 148.456 171.949 148.456 171.949" fill="black"/>
<path d="M142.658 157.788C152.266 159.339 166.486 159.085 181.248 152.173C181.604 152.006 181.996 152.445 182.352 152.27C182.352 152.27 172.262 162.575 160.213 168.401C159.861 168.571 159.514 168.752 159.158 168.914C157.994 169.446 156.81 169.909 155.621 170.337C153.289 171.175 150.927 171.811 148.581 172.104C148.473 172.118 148.366 172.139 148.258 172.15C148.243 172.106 148.228 172.062 148.214 172.017L148.198 171.969C148.198 171.969 147.437 171.366 146.472 170.255C146.023 169.742 145.605 169.203 145.22 168.64C144.682 167.859 144.211 167.034 143.813 166.173C143.476 165.447 143.197 164.695 142.977 163.925C142.563 162.48 142.377 160.979 142.425 159.477C142.446 158.924 142.496 158.372 142.577 157.825L142.658 157.788" fill="#9F2254"/>
<path d="M135.774 146.85C137.058 145.576 138.329 144.288 139.586 142.988C140.29 142.261 140.986 141.525 141.673 140.782C146.61 135.424 150.234 130.409 152.414 123.958C152.465 123.805 152.517 123.604 152.567 123.377L152.59 123.272C152.641 123.031 152.691 122.764 152.741 122.462C152.761 122.254 153.413 121.834 153.431 121.639C152.884 118.83 151.624 115.877 150.249 113.622C150.253 113.631 150.256 113.641 150.259 113.65L150.232 113.624C150.052 113.454 149.864 113.294 149.681 113.127C149.127 112.615 148.562 112.116 147.986 111.63C146.274 110.18 144.456 108.859 142.548 107.678C142.644 109.256 142.706 110.833 142.722 112.408C142.725 112.585 142.72 112.762 142.72 112.938C142.723 113.549 142.725 114.161 142.713 114.772C142.698 115.559 142.67 116.346 142.63 117.133C142.6 117.714 142.563 118.294 142.518 118.875C142.513 118.935 142.506 118.995 142.502 119.056C142.329 121.253 142.045 123.439 141.648 125.607L140.954 128.888C139.505 134.762 136.562 140.091 134.142 145.593C133.501 147.052 132.892 148.527 132.358 150.03L132.207 150.454C132.842 149.784 133.487 149.122 134.141 148.47C134.696 147.921 135.24 147.381 135.774 146.85" fill="#FCB03F"/>
<path d="M104.024 178.445C107.545 176.888 110.803 175.91 114.676 175.146C114.657 174.308 114.613 173.47 114.545 172.634C116.199 168.351 117.725 164.019 119.12 159.645C116.653 159.885 114.201 160.264 111.776 160.78C109.979 161.161 108.206 161.64 106.447 162.17C105.035 162.596 103.641 163.084 102.258 163.604L107.725 164.928L103.326 178.736L104.024 178.445" fill="#525353"/>
<path d="M171.616 137.526C170.655 136.263 169.686 135.008 168.707 133.759L168.555 133.566C167.51 132.235 166.451 130.914 165.379 129.604C164.29 128.275 163.183 126.961 162.058 125.661C161.987 125.578 161.916 125.495 161.844 125.413C160.918 124.348 159.977 123.296 159.022 122.257C158.44 121.622 157.852 120.992 157.258 120.368C156.795 119.885 156.329 119.405 155.858 118.929C155.417 118.479 154.976 118.026 154.527 117.583C153.565 116.632 152.585 115.698 151.588 114.782C151.146 114.379 150.7 113.981 150.247 113.589C150.245 113.594 150.243 113.599 150.241 113.604C151.191 116.335 152.276 119.101 152.819 121.95C152.96 122.691 153.077 123.412 153.172 124.116C154.496 133.975 151.337 140.413 146.319 148.882C145.952 149.501 145.583 150.119 145.212 150.736C144.065 152.649 143.33 154.46 142.904 156.161C142.767 156.71 142.658 157.265 142.578 157.825C152.418 159.413 167.214 159.709 182.353 152.27C182.353 152.27 179.384 147.907 174.917 141.908C173.916 140.565 172.909 139.226 171.896 137.892C171.804 137.769 171.709 137.647 171.616 137.526" fill="#DF0067"/>
<path d="M102.802 181.204L107.724 164.928L102.256 163.604C101.032 164.064 99.8182 164.554 98.6205 165.087L93.7461 181.204L99.1877 181.289L102.802 181.204" fill="#AA9678"/>
<path d="M106.263 174.163C106.743 174.347 107.232 174.514 107.719 174.684C113.303 176.644 119.179 177.644 125.097 177.641C131.829 177.645 138.499 176.352 144.742 173.834C145.063 173.705 145.378 173.563 145.696 173.428C146.211 173.209 146.722 172.982 147.23 172.747C147.684 172.537 148.137 172.327 148.584 172.104C148.476 172.118 148.368 172.139 148.26 172.15C146.373 172.363 144.499 172.375 142.669 172.112C131.846 170.556 129.449 165.338 129.792 159.903C128.973 159.432 128.179 158.918 127.414 158.363C119.09 152.325 114.149 145.892 114.149 145.892C114.149 145.892 120.571 150.848 130.161 154.558C130.367 154.637 130.56 154.706 130.762 154.783C131.21 153.233 131.74 151.76 132.207 150.454L132.358 150.03C132.892 148.527 133.501 147.052 134.142 145.593C136.562 140.091 139.505 134.762 140.954 128.888L141.648 125.607H135.729L135.728 125.608L135.729 125.619L135.727 125.621C135.727 125.636 135.729 125.652 135.729 125.669C135.73 127.077 135.31 128.453 134.522 129.62C133.754 130.755 132.674 131.644 131.413 132.18C130.314 132.645 129.115 132.823 127.929 132.697C127.872 132.691 127.818 132.679 127.761 132.672C127.576 132.648 127.392 132.622 127.213 132.586C127.163 132.574 127.115 132.559 127.065 132.547C126.881 132.505 126.697 132.459 126.519 132.402C126.486 132.391 126.455 132.378 126.422 132.366C126.229 132.301 126.037 132.232 125.852 132.151C125.835 132.144 125.82 132.135 125.803 132.127C125.603 132.039 125.408 131.942 125.217 131.836L125.208 131.83C124.602 131.488 124.049 131.059 123.567 130.556L103.288 125.607H81.1576C81.0627 125.776 80.9572 125.938 80.8641 126.107C80.6953 126.413 80.5359 126.724 80.373 127.033C79.8292 128.061 79.3172 129.104 78.8379 130.163C78.3897 131.153 77.97 132.156 77.5793 133.17L77.5254 133.305C76.5196 135.951 75.7146 138.669 75.1172 141.437C78.6012 152.063 85.3799 161.195 94.241 167.63C94.4988 167.817 94.7707 167.984 95.032 168.167C96.5315 169.219 98.085 170.193 99.6861 171.084C101.804 172.262 104.002 173.291 106.263 174.163" fill="white"/>
<path d="M159.324 186.743C159.182 185.336 159.109 183.923 159.104 182.51C159.104 182.098 158.94 181.704 158.65 181.412C158.359 181.121 157.964 180.958 157.552 180.958H92.4477C92.036 180.958 91.6413 181.121 91.3503 181.412C91.0592 181.703 90.8957 182.098 90.8955 182.51C90.8955 183.935 90.8117 185.345 90.6752 186.743C90.5234 188.279 90.2889 189.806 89.9727 191.318C90.9166 191.817 91.8682 192.303 92.8361 192.763C93.4835 189.938 93.8625 187.059 93.9682 184.163C93.9699 184.129 93.9734 184.095 93.9746 184.062H156.025C156.027 184.095 156.03 184.129 156.031 184.163C156.137 187.059 156.517 189.938 157.164 192.763C158.128 192.302 159.083 191.82 160.027 191.318C159.711 189.806 159.476 188.279 159.324 186.743" fill="#8B7460"/>
</g>
<defs>
<clipPath id="clip0_973_1267">
<rect width="150" height="150" fill="white" transform="translate(50 50)"/>
</clipPath>
</defs>
</svg>
