<svg xmlns="http://www.w3.org/2000/svg" xml:space="preserve" id="Calque_1" style="enable-background:new 0 0 507 435" version="1.1" viewBox="0 0 507 435"><style>.st0{fill:#27245d}.st1{fill:#e2066f}.st3{fill:#525353}.st4{fill:#aa9678}.st5{fill:#c0b098}.st8{fill:none}.st9{fill:#fff}.st10{fill:#bbbcbd}.st11{fill:#676a6a}.st12{fill:#909393}.st13{fill:#e2dddb}.st14{fill:#fbb040}</style><g id="XMLID_141_"><g id="XMLID_142_"><path id="XMLID_160_" d="M106.3 383.4c-.1-.4-.1-1-.1-1.8 0-5.1 1.7-9.1 5.1-11.9 3.4-2.9 7.1-4.3 11.2-4.3 5.4 0 9.2 2 11.3 6.1l-27.5 11.9zm39.4-7.2c-.1-6-2.3-10.9-6.8-14.7-4.5-3.8-10.1-5.6-16.9-5.6-4.3 0-8.4.9-12.2 2.8-3.9 1.9-7.1 4.8-9.7 8.9-2.6 4-3.9 8.6-3.9 13.9 0 7.6 2.5 13.8 7.5 18.4 5 4.7 11.1 7 18.1 7 8 0 15-3 20.9-9.1l-6.1-6.8c-3.6 4.3-8.2 6.5-13.7 6.5-5.6 0-10-2-13.2-6l36.1-15.2-.1-.1z" class="st0"/><path id="XMLID_138_" d="M84.2 358.9c-2.9 2-5.2 4.5-6.8 7.6v-10H66.9v49.6h10.4v-21.2c0-5.6 1.3-10.2 3.9-13.5 2.6-3.4 6.5-5 11.6-5h.6l-.1-10.5c-3.1 0-6.2 1-9.1 3" class="st0"/><path id="XMLID_137_" d="M183 380.9c-1.7-1.1-3.2-2-4.7-2.6-1.5-.6-3-1.2-4.5-1.7-1.6-.5-3.3-1-5.4-1.5-2-.5-3.6-1-4.7-1.6-1.6-.7-2.4-1.9-2.4-3.5 0-1.8.8-3.2 2.3-4.1 1.6-.9 3.6-1.4 6.1-1.4 4.7 0 9.1 1.3 13.1 4l3.9-7.7c-5.1-3.4-10.5-5-16.2-5-5.7 0-10.4 1.4-13.9 4.1-3.6 2.8-5.4 6.4-5.4 11 0 6.5 5.2 11.2 15.5 14 .2.1.6.2 1.1.4 6.6 2 9.9 4.2 9.9 6.7 0 1.7-.7 3.1-2 4.1-1.4 1.1-3.2 1.6-5.6 1.6-5.4 0-11-2.2-16.8-6.5l-5 8.1c3 2.4 6.4 4.2 10.3 5.5 3.9 1.3 7.6 2 11.2 2 5.3 0 9.7-1.4 13.1-4.2 3.4-2.8 5.1-6.6 5.1-11.3.1-4.7-1.6-8.1-5-10.4" class="st0"/><path id="XMLID_155_" d="M45 373.6c-2.2 2.3-6.4 3.5-12.4 3.5H19.8V351H31c6 0 10.3.9 13.1 2.8 2.8 1.9 4.2 5 4.2 9.5 0 4.6-1.1 8-3.3 10.3m7.8-26.9c-4.5-3.8-11.7-5.7-21.6-5.7H8.8v65.1h11V387h11.6c9.6 0 16.7-1.8 21.3-5.5 4.6-3.7 6.9-9.4 6.9-17.3 0-7.8-2.3-13.7-6.8-17.5" class="st0"/><path id="XMLID_134_" d="M212.5 397.9c-2.2 0-4-.7-5.2-2.1-1.2-1.4-1.9-3.3-1.9-5.6V365h13v-8.4h-13V341H195v48.8c0 5.2 1.6 9.4 4.7 12.4 3.1 3.1 6.9 4.6 11.4 4.6 4.4 0 8.5-1.6 12.2-4.9l-4.3-7.4c-2.1 2.3-4.3 3.4-6.5 3.4" class="st0"/><path id="XMLID_151_" d="M260.2 393.2c-2.9 3-6.3 4.5-10.4 4.5-4.1 0-7.7-1.5-10.7-4.5-3-3-4.6-6.8-4.6-11.6s1.5-8.7 4.5-11.9c3-3.2 6.5-4.8 10.7-4.8 4.2 0 7.7 1.6 10.5 4.8 2.9 3.2 4.3 7.1 4.3 11.8 0 4.8-1.4 8.7-4.3 11.7m4.1-28c-4.2-6.2-9.6-9.3-16.1-9.3-6.5 0-12.2 2.3-17 6.9-4.8 4.6-7.2 10.7-7.2 18.4 0 7.7 2.3 13.9 7 18.6 4.7 4.7 10.1 7.1 16.4 7.1 3.1 0 6.2-.8 9.3-2.3 3.1-1.5 5.6-3.7 7.6-6.6v8.1h10.4v-49.6h-10.4v8.7z" class="st0"/><path id="XMLID_148_" d="M429.4 393.1c-3 3-6.7 4.5-11.2 4.5-4.5 0-8.3-1.5-11.2-4.5-3-3-4.4-6.9-4.4-11.7s1.5-8.7 4.4-11.7c2.9-3 6.7-4.5 11.2-4.5 4.5 0 8.3 1.5 11.2 4.5 2.9 3 4.4 6.9 4.4 11.7s-1.4 8.7-4.4 11.7m-11.2-37.2c-7.5 0-13.7 2.5-18.6 7.4-5 4.9-7.5 11-7.5 18.1 0 7.1 2.5 13.2 7.5 18.1 5 4.9 11.2 7.4 18.6 7.4s13.7-2.5 18.6-7.4c5-4.9 7.5-11 7.5-18.1s-2.5-13.2-7.5-18.1c-5-5-11.2-7.4-18.6-7.4" class="st1"/><path id="XMLID_145_" d="M486.1 393.1c-3 3-6.6 4.5-10.7 4.5s-7.6-1.5-10.4-4.5c-2.9-3-4.3-6.9-4.3-11.6 0-4.7 1.4-8.6 4.3-11.8 2.9-3.1 6.4-4.7 10.5-4.7 4.2 0 7.7 1.6 10.7 4.7 3 3.1 4.5 7.1 4.5 11.8-.1 4.8-1.6 8.6-4.6 11.6m7.9-30.3c-4.7-4.6-10.4-6.9-17-6.9s-12 3.1-16.1 9.4v-8.7h-10.4v67.6h10.4v-25.5c5 5.5 10.6 8.2 16.8 8.2s11.7-2.4 16.4-7.2c4.7-4.8 7-11 7-18.6s-2.4-13.8-7.1-18.3" class="st1"/><path id="XMLID_127_" d="M367.8 355.9c-3.5 0-6.7.9-9.7 2.6-3 1.7-5.3 4.1-6.8 7.2v-28.5h-10.4v69h10.4v-26.8c0-4.6 1.3-8.1 4-10.5 2.7-2.4 5.8-3.6 9.4-3.6 7.6 0 11.4 4.6 11.4 13.7v27.2h10.4v-30.4c0-6.5-1.7-11.4-5.2-14.8-3.4-3.4-7.9-5.1-13.5-5.1" class="st1"/><path id="XMLID_126_" d="M328.4 374.9c-3.4-2.9-8.4-5.2-15.1-6.8-6.7-1.6-11-3.1-13.1-4.5-2-1.4-3.1-3.4-3.1-6.1 0-2.6 1-4.6 3.1-5.9 2-1.3 4.7-2 7.9-2s6.4.6 9.7 1.7c3.3 1.1 5.9 2.5 7.8 4.3l5.9-8.3c-3-2.5-6.5-4.4-10.6-5.8-4.1-1.4-8.2-2-12.4-2-6.5 0-11.9 1.6-16.3 4.9-4.4 3.3-6.6 7.9-6.6 13.9s1.9 10.5 5.8 13.4c1.9 1.6 4.1 2.8 6.6 3.8s6.1 2 10.9 3.2c4.8 1.1 8.1 2.4 10.1 3.8s2.9 3.4 2.9 5.9-1 4.5-3.1 6.1c-2.1 1.5-4.9 2.3-8.4 2.3-7.1 0-13.9-2.9-20.5-8.6l-6.9 8.3c7.9 7 16.9 10.5 27.1 10.5 7 0 12.6-1.8 16.9-5.3 4.3-3.5 6.4-8.1 6.4-13.8s-1.6-10.1-5-13" class="st1"/></g><path id="XMLID_125_" d="M202.1 241.7c2.4-1.1 4.8-2 7.3-3 2.8-1 5.6-2 8.4-2.9 3.5-1.1 7.1-2 10.7-2.8 4.9-1 9.8-1.8 14.7-2.3-2.8 8.7-5.8 17.4-9.2 26 .1 1.7.2 3.3.3 5 6.7-1.3 13.6-2 20.7-2s14 .7 20.7 2c0-1.7.1-3.4.3-5-3.3-8.6-6.4-17.3-9.2-26 4.9.5 9.9 1.2 14.7 2.3 3.6.8 7.1 1.7 10.7 2.8 2.8.9 5.6 1.8 8.4 2.9 2.5.9 4.9 1.9 7.3 3 17 7.6 32.5 18.8 45.2 33.4 31.9-27.5 52.1-68.2 52.1-113.7C405.2 78.5 338 11.2 255 11.2c-82.9 0-150.2 67.2-150.2 150.2 0 45.4 20.2 86.1 52.1 113.7 12.7-14.6 28.2-25.8 45.2-33.4z" style="fill:#a0dbe8"/><path id="XMLID_124_" d="M212 268.9c7-3.1 14.5-5.5 22.2-7 0-1.7-.1-3.4-.3-5 3.3-8.6 6.4-17.3 9.2-26-4.9.5-9.9 1.2-14.7 2.3-3.6.8-7.1 1.7-10.7 2.8-2.8.9-5.6 1.8-8.4 2.9l10.9 2.7-8.2 27.3z" class="st3"/><path id="XMLID_123_" d="M186.2 285c.3-2.8.4-5.6.4-8.5 0-1.7 1.4-3.1 3.1-3.1h2.7l9.6-31.8c-17 7.6-32.5 18.8-45.2 33.4 7 6.1 14.6 11.5 22.6 16.2 2.3-2.1 4.5-4.2 6.8-6.2z" class="st3"/><path id="XMLID_122_" d="m307.8 241.7 9.6 31.8h2.7c1.7 0 3.1 1.4 3.1 3.1 0 2.9.2 5.7.4 8.5 2.3 2 4.6 4 6.7 6.2 8.1-4.7 15.6-10.1 22.6-16.2-12.6-14.6-28.1-25.8-45.1-33.4z" class="st3"/><path id="XMLID_121_" d="m289.5 241.4 10.9-2.7c-2.8-1-5.6-2-8.4-2.9-3.5-1.1-7.1-2-10.7-2.8-4.9-1-9.8-1.8-14.7-2.3 2.8 8.7 5.8 17.4 9.2 26-.1 1.7-.2 3.3-.3 5 7.8 1.5 15.2 3.9 22.2 7l-8.2-27.3z" class="st3"/><path id="XMLID_120_" d="M254.9 273.5h21.2c-.4-3.9-.6-7.8-.5-11.6-6.7-1.3-13.6-2-20.7-2s-14 .7-20.7 2c.1 3.9-.1 7.7-.5 11.6h21.2z"/><path id="XMLID_119_" d="M179.5 291.2c1.7 1 3.5 2 5.3 3 .6-3 1.1-6.1 1.4-9.2-2.3 2-4.5 4.1-6.7 6.2z"/><path id="XMLID_118_" d="M210.6 273.5h23.2c.4-3.9.6-7.8.5-11.6-7.8 1.5-15.2 3.9-22.2 7l-1.5 4.6z"/><path id="XMLID_117_" d="M323.7 285c.3 3.1.8 6.2 1.4 9.2 1.8-.9 3.5-1.9 5.3-3-2.2-2.1-4.4-4.2-6.7-6.2z"/><path id="XMLID_116_" d="m299.3 273.5-1.4-4.6c-7-3.1-14.5-5.5-22.2-7-.1 3.9.1 7.7.5 11.6h23.1z"/><path id="XMLID_115_" d="m210.6 273.5 1.4-4.6 8.3-27.5-10.9-2.7c-2.5.9-4.9 1.9-7.3 3l-9.6 31.8h18.1z" class="st4"/><path id="XMLID_114_" d="m297.9 268.9 1.4 4.6h18.1l-9.6-31.8c-2.4-1.1-4.8-2-7.3-3l-10.9 2.7 8.3 27.5z" class="st4"/><path id="XMLID_113_" d="M192.8 279.9c.1-.1.2-.1.3-.2h-.3v.2z" class="st5"/><path id="XMLID_112_" d="M254.9 279.7H193.1c-.1.1-.2.1-.3.2-.2 5.9-1 11.6-2.3 17.2 19.5 9.3 41.3 14.5 64.4 14.5v-31.9z" class="st5"/><path id="XMLID_111_" d="M317.1 279.7h-.3c.1.1.2.1.3.2v-.2z" class="st4"/><path id="XMLID_110_" d="M316.8 279.7h-61.9v31.9c23 0 44.9-5.2 64.4-14.5-1.3-5.6-2.1-11.4-2.3-17.2 0-.1-.1-.2-.2-.2z" class="st4"/><path id="XMLID_108_" d="M323.7 285c-.3-2.8-.4-5.6-.4-8.5 0-1.7-1.4-3.1-3.1-3.1H189.6c-1.7 0-3.1 1.4-3.1 3.1 0 2.9-.2 5.7-.4 8.5-.3 3.1-.8 6.2-1.4 9.2 1.9 1 3.8 2 5.7 2.9 1.3-5.6 2.1-11.4 2.3-17.2v-.2H317v.2c.2 5.9 1 11.6 2.3 17.2 1.9-.9 3.8-1.9 5.7-2.9-.6-3-1-6.1-1.3-9.2z" style="fill:#8b7460"/><path id="XMLID_107_" d="M305.5 138.6c1.9 5.4 4 10.9 5.1 16.5 0 .4-.1.8-.1 1.2-.1.6-.2 1.1-.3 1.6.2-.7.3-1.6.5-2.6-1.1-5.7-3.3-11.2-5.2-16.7z" class="st8"/><path id="XMLID_106_" d="M349.2 172.6c-.1 0-.2.1-.3.1.1-.1.2-.1.3-.1z" class="st8"/><path id="XMLID_105_" d="m350.2 171.8-.3.3.3-.3z" class="st8"/><path id="XMLID_104_" d="M301 134.7c-3.5-2.9-7.1-5.6-10.9-7.9 3.8 2.3 7.4 4.9 10.9 7.9z" class="st8"/><path id="XMLID_103_" d="M335.8 170.6c0 .1 0 .1 0 0 0 .1 0 .1 0 0z" class="st8"/><path id="XMLID_102_" d="M342.1 178.6c.1.1.2.3.3.4 0-.2-.2-.3-.3-.4z" class="st8"/><path id="XMLID_101_" d="M310.1 158.2c-.1.5-.2.9-.3 1.2l.3-1.2z" class="st8"/><path id="XMLID_100_" d="M295.4 213c-2.3 3.8-3.8 7.5-4.6 10.9.8-3.5 2.3-7.1 4.6-10.9.8-1.3 1.5-2.5 2.2-3.7-.7 1.1-1.4 2.4-2.2 3.7 0-.1 0-.1 0 0z" class="st8"/><path id="XMLID_99_" d="M305.5 138.6c.1-.3.3-.5.4-.8-.2.3-.3.5-.4.8l2.7 2.4-2.7-2.4z" class="st8"/><path id="XMLID_98_" d="M275.7 158.3z" class="st8"/><path id="XMLID_97_" d="M274.6 155.8z" class="st8"/><path id="XMLID_96_" d="M284.7 123.7c-.2-.1-.4-.2-.5-.3.2.1.3.2.5.3z" class="st8"/><path id="XMLID_95_" d="M285.5 124.1c-.2-.1-.4-.3-.6-.4.1.2.4.3.6.4z" class="st8"/><path id="XMLID_94_" d="M290.4 136.2v1.1-1.1z" class="st8"/><path id="XMLID_93_" d="M275.2 157z" class="st8"/><path id="XMLID_92_" d="M348.3 186.5c.2.2.4.5.6.7-.2-.2-.4-.5-.6-.7z" class="st8"/><path id="XMLID_91_" d="M290.4 140.9c0 1.6-.1 3.2-.2 4.7.1-1.5.2-3.1.2-4.7z" class="st8"/><path id="XMLID_90_" d="M276.1 159.7z" class="st8"/><path id="XMLID_89_" d="M289.8 126.6c-.5-.3-2-1.1-3.3-1.9 1.3.7 2.7 1.5 3.3 1.9z" class="st8"/><path id="XMLID_88_" d="M286.4 124.6c-.3-.2-.6-.4-.9-.5.3.2.6.4.9.5z" class="st8"/><path id="XMLID_87_" d="M290 126.7z" class="st8"/><path id="XMLID_86_" d="M353.3 163.2v-.6V163.2z" class="st8"/><path id="XMLID_85_" d="M328.7 162.3c.1.2.3.3.4.5 0-.1-.2-.3-.4-.5z" class="st8"/><path id="XMLID_84_" d="M308.2 141c2 1.8 4 3.7 5.9 5.6-2-1.9-3.9-3.8-5.9-5.6z" class="st8"/><path id="XMLID_83_" d="M347.3 152.4c.4 0 .7.1 1.1.2-.4-.1-.8-.2-1.1-.2z" class="st8"/><path id="XMLID_82_" d="M341.5 159.9c0 .2-.1.3-.1.5 0-.2.1-.3.1-.5z" class="st8"/><path id="XMLID_81_" d="M348.7 152.7c.2.1.5.2.7.4-.2-.1-.5-.3-.7-.4z" class="st8"/><path id="XMLID_80_" d="M351 154.7c.1.1.2.2.2.3-.1-.1-.1-.2-.2-.3z" class="st8"/><path id="XMLID_79_" d="M353.2 160.6v-.2.2z" class="st8"/><path id="XMLID_78_" d="M353.2 165c0-.1 0-.1 0 0v.1-.1z" class="st8"/><path id="XMLID_77_" d="M343.3 155c.1-.1.2-.2.2-.3 0 .1-.1.2-.2.3z" class="st8"/><path id="XMLID_76_" d="M346.2 152.6z" class="st8"/><path id="XMLID_75_" d="M319.5 152.2c-.9-1-1.9-1.9-2.8-2.9 1 .9 1.9 1.9 2.8 2.9z" class="st8"/><path id="XMLID_74_" d="M347.3 119.6v13.9L342 158v.2-.1l5.3-24.5v-14z" class="st8"/><path id="XMLID_73_" d="M324.5 157.5c-.5-.5-1-1.1-1.5-1.6.6.6 1 1.1 1.5 1.6z" class="st8"/><path id="XMLID_72_" d="M352.6 158.1c.1.2.1.4.2.6 0-.3-.1-.4-.2-.6z" class="st8"/><path id="XMLID_71_" d="M341.2 162.7v-.3c.1.2 0 .2 0 .3z" class="st8"/><path id="XMLID_70_" d="M345.2 153.1c.2-.2.5-.3.7-.4-.3.1-.5.3-.7.4z" class="st8"/><path id="XMLID_69_" d="M344.1 154c.2-.3.5-.5.8-.7-.3.2-.6.5-.8.7z" class="st8"/><path id="XMLID_68_" d="M352.8 166.9c-.1.5-.3 1-.5 1.5.2-.4.4-.9.5-1.5z" class="st8"/><path id="XMLID_67_" d="M169.8 158.1c.2-.3.5-.7.7-1-.2.4-.5.7-.7 1z" class="st8"/><path id="XMLID_66_" d="M349.7 153.3c.3.2.5.5.8.7-.3-.2-.5-.5-.8-.7z" class="st8"/><path id="XMLID_65_" d="M174.1 151.9c.1-.1.2-.3.3-.4-.1.1-.2.2-.3.4z" class="st8"/><path id="XMLID_64_" d="M276.4 162.7v-.1.1z" class="st8"/><path id="XMLID_63_" d="M163.3 170.1c-.3.5-.5 1.1-.8 1.6.3-.5.5-1 .8-1.6z" class="st8"/><path id="XMLID_62_" d="M160 177.8c0 .1-.1.2-.1.3 0-.1.1-.2.1-.3z" class="st8"/><path id="XMLID_61_" d="M351 123.2z" class="st8"/><path id="XMLID_60_" d="M189.7 135.1z" class="st8"/><path id="XMLID_59_" d="m183.8 140.5.9-.9-.9.9z" class="st8"/><path id="XMLID_58_" d="M178.5 146.3c.3-.4.6-.7.9-1.1-.3.4-.6.7-.9 1.1z" class="st8"/><path id="XMLID_57_" d="m352.6 158.1-5.3-24.5 5.3 24.5z" class="st8"/><path id="XMLID_56_" d="M259.4 176.6c-.1 0-.2-.1-.3-.1.1.1.2.1.3.1z" class="st8"/><path id="XMLID_55_" d="M260.8 176.8c-.1 0-.2 0-.3-.1.1.1.2.1.3.1z" class="st8"/><path id="XMLID_54_" d="M166.6 163.6c-.3.6-.7 1.2-1 1.9.3-.6.6-1.2 1-1.9z" class="st8"/><path id="XMLID_53_" d="M255.4 175.1z" class="st8"/><path id="XMLID_52_" d="M258 176.2c-.1 0-.1 0-.2-.1.1.1.1.1.2.1z" class="st8"/><path id="XMLID_51_" d="M256.6 175.7z" class="st8"/><path id="XMLID_50_" d="M249.2 168.1z" class="st8"/><path id="XMLID_49_" d="M248.5 159.5c0 .1-.1.2-.1.3.1-.1.1-.2.1-.3z" class="st8"/><path id="XMLID_48_" d="M250 155.8z" class="st8"/><path id="XMLID_47_" d="M254.7 150.9z" class="st8"/><path id="XMLID_46_" d="M248.9 158.2c0 .1-.1.1-.1.2 0 0 .1-.1.1-.2z" class="st8"/><path id="XMLID_45_" d="M249.4 157s0 .1-.1.1l.1-.1z" class="st8"/><path id="XMLID_44_" d="M265.1 148.9c-.1 0-.1 0 0 0-.1 0-.1 0 0 0z" class="st8"/><path id="XMLID_43_" d="M267.6 149.7z" class="st8"/><path id="XMLID_42_" d="M257 149.6z" class="st8"/><path id="XMLID_41_" d="M259.6 148.9s-.1 0 0 0c-.1 0 0 0 0 0z" class="st8"/><path id="XMLID_40_" d="M276.3 161.1z" class="st8"/><path id="XMLID_39_" d="M262.4 117.2v-.6.6z" class="st8"/><path id="XMLID_38_" d="M262.4 116.3v-.4.4z" class="st8"/><path id="XMLID_37_" d="M262.4 115.7c0-.1 0-.1 0 0 0-.1 0-.1 0 0z" class="st8"/><path id="XMLID_36_" d="M262.4 119.1v-1.4 1.4z" class="st8"/><path id="XMLID_35_" d="M351.4 170.3c-.2.2-.3.5-.5.7.2-.2.4-.5.5-.7z" class="st8"/><path id="XMLID_34_" d="M248.3 161c0 .1 0 .2-.1.3 0-.1 0-.2.1-.3z" class="st8"/><path id="XMLID_33_" d="M248.4 165.5z" class="st8"/><path id="XMLID_32_" d="M352.2 168.8c-.1.3-.3.7-.5 1 .2-.3.3-.6.5-1z" class="st8"/><path id="XMLID_31_" d="M297.9 252c-.5-.5-.9-1.1-1.4-1.7.5.7 1 1.2 1.4 1.7z" class="st3"/><path id="XMLID_30_" d="M301.4 255.5s-1.5-1.2-3.5-3.4c2 2.2 3.5 3.4 3.5 3.4z" class="st4"/><path id="XMLID_28_" d="M353.3 162.8z" class="st9"/><path id="XMLID_27_" d="M354.9 128s0-.1 0 0c-1.3-1.8-2.6-3.4-3.9-4.8-.6-.7-1.2-1.3-1.8-1.9-.2-.2-.5-.4-.7-.6-.4-.4-.8-.7-1.2-1v14l5.3 24.5c.1.2.1.4.2.6l3.7 4.2h3.9v-1.1c0-11.6-1.9-22.7-5.3-33.1-.1-.4-.1-.6-.2-.8z" class="st10"/><path id="XMLID_26_" d="M353.3 162.8z" class="st10"/><path id="XMLID_25_" d="M353.2 160.5v.2c.1.6.1 1.2.1 1.8v.6c0 .6 0 1.2-.1 1.7v.2l-.3 1.8 3.7-4.1-3.7-4.2c.1.7.2 1.3.3 2z" class="st11"/><path d="M353.1 165.2v-.2c.1-.6.1-1.2.1-1.7v-.8c0-.6 0-1.2-.1-1.8v-.2l-.3-1.8c-.1-.2-.1-.4-.2-.6-.4-1.2-.8-2.2-1.4-3.1-.1-.1-.2-.2-.2-.3-.2-.2-.3-.4-.5-.6-.2-.3-.5-.5-.8-.7-.1-.1-.2-.1-.3-.2-.2-.2-.5-.3-.7-.4-.1 0-.2-.1-.3-.1-.3-.1-.7-.2-1.1-.2s-.7.1-1.1.2c-.1 0-.2.1-.3.1-.2.1-.5.2-.7.4-.1.1-.2.1-.3.2-.3.2-.5.5-.8.7-.2.2-.3.4-.5.6-.1.1-.2.2-.2.3-.6.9-1.1 1.9-1.4 3.1v.1c-.2.5-.3 1.1-.4 1.7 0 .2-.1.3-.1.5-.1.7-.1 1.3-.2 2v.3c0 5.7 2.7 10.4 6 10.4.6 0 1.1-.2 1.7-.4.1 0 .2-.1.3-.1.2-.1.4-.3.6-.4l.3-.3c.3-.2.5-.5.8-.8.2-.2.3-.4.5-.7.1-.2.2-.3.3-.5.2-.3.3-.6.5-1 .1-.1.1-.2.2-.4.2-.5.3-1 .5-1.5 0-.6.1-1.2.1-1.8zm-5.6-3.8c-1.3 0-2.3-1.7-2.3-3.9 0-2.1 1-3.9 2.3-3.9 1.3 0 2.3 1.7 2.3 3.9s-1.1 3.9-2.3 3.9z"/><ellipse id="XMLID_22_" cx="347.5" cy="157.5" class="st9" rx="2.3" ry="3.9"/><path id="XMLID_21_" d="M341.9 158.1c.4-1.2.8-2.2 1.4-3.1.1-.1.2-.2.2-.3.2-.2.3-.4.5-.6.2-.3.5-.5.8-.7.1-.1.2-.1.3-.2.2-.2.5-.3.7-.4.1 0 .2-.1.3-.1.3-.1.7-.2 1.1-.2.4 0 .7.1 1.1.2.1 0 .2.1.3.1.2.1.5.2.7.4.1.1.2.1.3.2.3.2.5.5.8.7.2.2.3.4.5.6.1.1.2.2.2.3.6.9 1.1 1.9 1.4 3.1l-5.3-24.5-5.3 24.5z" class="st12"/><path d="M276.4 162.6c0-.5 0-1-.1-1.5s-.1-.9-.2-1.4c-.1-.5-.2-.9-.4-1.3-.1-.4-.3-.9-.5-1.3l-.6-1.2c-.7-1.2-1.5-2.3-2.5-3.2-1.3-1.2-2.8-2.2-4.4-2.9-.8-.3-1.7-.6-2.5-.8h-.1c-.9-.2-1.8-.3-2.7-.3-.9 0-1.8.1-2.7.3h-.1c-.9.2-1.7.4-2.5.7h-.1c-.8.3-1.6.7-2.3 1.2-.7.5-1.4 1-2 1.6h-.1c-1 1-1.9 2.1-2.6 3.3l-.6 1.2s0 .1-.1.1c-.2.4-.3.7-.4 1.1 0 .1-.1.1-.1.2-.1.4-.2.7-.3 1.1 0 .1-.1.2-.1.3-.1.4-.1.7-.2 1.1 0 .1 0 .2-.1.3 0 .5-.1 1-.1 1.5 0 .9.1 1.8.3 2.7v.1c.2.9.4 1.7.8 2.6.7 1.6 1.7 3.1 2.9 4.4 1 1 2.1 1.9 3.3 2.6l1.2.6h.1c.4.2.8.3 1.1.4.1 0 .1 0 .2.1.4.1.7.2 1.1.3.1 0 .2.1.3.1.4.1.7.1 1.1.2.1 0 .2 0 .3.1.5 0 1 .1 1.5.1 2 0 3.8-.4 5.5-1.1.8-.4 1.6-.8 2.4-1.3 1.5-1 2.8-2.3 3.8-3.8.5-.8.9-1.6 1.3-2.4.7-1.7 1.1-3.6 1.1-5.5v-.1l.1-.2zm-14.1-1.7c-2.9 0-5.3-2.4-5.3-5.3s2.4-5.3 5.3-5.3 5.3 2.4 5.3 5.3-2.4 5.3-5.3 5.3z"/><circle id="XMLID_18_" cx="262.3" cy="155.6" r="5.3" class="st9"/><path id="XMLID_17_" d="m252.5 152.5 9.8-29.9V115.6c-5.4-1.1-11-1.7-16.7-1.7-1.9 0-3.8.1-5.7.2-.3 0-.5 0-.8.1-9.8.7-19.4 3.3-28.3 7.4-7.6 3.5-14.8 8.1-21.1 13.5-1.7 1.5-3.4 3-5 4.6l-.9.9c-1.5 1.5-3 3.1-4.4 4.7-.3.4-.6.7-.9 1.1-1.4 1.7-2.8 3.4-4.1 5.1-.1.1-.2.3-.3.4-1.2 1.7-2.4 3.4-3.6 5.2-.2.3-.5.7-.7 1-.9 1.5-1.8 3-2.6 4.5h44.4l40.9-10.1z" class="st10"/><path id="XMLID_16_" d="M290 149.2c.1-1.2.2-2.3.2-3.5.1-1.6.1-3.1.2-4.7V136.2c0-3.2-.2-6.3-.3-9.5 0 0-.1 0-.1-.1 0 0-.1 0-.1-.1-.6-.3-2-1.1-3.3-1.9h-.1c-.3-.2-.6-.4-.9-.5-.2-.1-.4-.3-.6-.4l-.1-.1c-.2-.1-.4-.2-.5-.3-2-1.1-4.1-2-6.2-2.9-5-2.1-11.8-4-15.7-4.9v7l9.7 29.8c1 .9 1.9 2 2.5 3.2l.6 1.2c.2.4.4.8.5 1.3.1.4.3.9.4 1.3.1.5.2.9.2 1.4.1.5.1 1 .1 1.5v.1h11.8c.8-4.3 1.4-8.7 1.7-13.1 0 .2 0 .1 0 0z" class="st13"/><path id="XMLID_15_" d="M305.5 138.6z" class="st14"/><path id="XMLID_14_" d="M276.5 205.2c2.7-2.7 5.2-5.2 7.6-7.7 1.4-1.5 2.8-3 4.2-4.4 9.9-10.7 17.1-20.8 21.5-33.7.1-.3.2-.7.3-1.2v-.2c.1-.5.2-1 .3-1.6 0-.4.1-.8.1-1.2-1.1-5.6-3.2-11.1-5.1-16.5v.1l-.1-.1c-.4-.3-.7-.7-1.1-1-1.1-1-2.2-2-3.4-3-3.5-2.9-7.1-5.6-10.9-7.9.2 3.2.3 6.3.3 9.5V141.1c0 1.6-.1 3.2-.2 4.7-.1 1.2-.1 2.3-.2 3.5v.4c-.4 4.4-.9 8.8-1.7 13.1l-1.4 6.6c-2.9 11.8-8.8 22.4-13.6 33.4-1.3 2.9-2.5 5.9-3.6 8.9l-.3.9c1.5-1.6 2.9-3 3.9-4 1.3-1.3 2.3-2.4 3.4-3.4z" class="st14"/><path id="XMLID_13_" d="M252.6 152.5c.6-.6 1.3-1.1 2-1.6s1.5-.9 2.3-1.2h.1c.8-.3 1.6-.6 2.5-.7h.1c.9-.2 1.8-.3 2.7-.3.9 0 1.8.1 2.7.3h.1c.9.2 1.7.4 2.5.8 1.6.7 3.1 1.6 4.4 2.9l-9.7-29.8-9.7 29.6z" class="st12"/><path id="XMLID_12_" d="M249.2 168.1c-.3-.8-.6-1.7-.8-2.6v-.1c-.2-.9-.3-1.8-.3-2.7 0-.5 0-1 .1-1.5 0-.1 0-.2.1-.3 0-.4.1-.7.2-1.1 0-.1.1-.2.1-.3.1-.4.2-.7.3-1.1 0-.1.1-.1.1-.2.1-.4.3-.8.4-1.1 0 0 0-.1.1-.1l.6-1.2c.7-1.2 1.6-2.3 2.6-3.3l-41 10.1h-.1l40.6 9.9c-1.3-1.2-2.3-2.7-3-4.4z" class="st11"/><path id="XMLID_11_" d="M341.4 160.4c0-.2.1-.4.1-.5.1-.6.2-1.2.4-1.7v-.2l5.3-24.5v-14c-4.4-3.6-9-5.6-13.9-5.6-6.2 0-11.9 3.4-16.2 7.6-4.7 4.6-8.3 10.4-11.3 16.2-.1.3-.3.5-.4.8l2.7 2.4c2 1.8 4 3.7 5.9 5.6l2.7 2.7c.9 1 1.9 1.9 2.8 2.9 1.2 1.3 2.4 2.5 3.5 3.8.5.5 1 1.1 1.5 1.6 1.4 1.6 2.8 3.1 4.2 4.7l.5.5h12.1v-.3c0-.6 0-1.3.1-2z" class="st13"/><path id="XMLID_10_" d="M305.5 138.6c0 .1 0 .1 0 0 0 .1 0 .1 0 0z" class="st13"/><path id="XMLID_9_" d="M159.9 178.1c0-.1.1-.2.1-.3.8-2 1.6-4 2.5-6 .2-.6.5-1.1.8-1.6.7-1.6 1.5-3.1 2.3-4.6.3-.6.6-1.2 1-1.9.2-.3.4-.7.6-1 .9-1.5 1.7-3 2.6-4.5.2-.3.5-.7.7-1 1.1-1.8 2.3-3.5 3.6-5.2.1-.1.2-.3.3-.4 1.3-1.8 2.7-3.5 4.1-5.1.3-.4.6-.7.9-1.1 1.4-1.6 2.9-3.2 4.4-4.7l.9-.9c1.6-1.6 3.2-3.1 5-4.6 6.7-22.6 27.4-39.1 51.8-39.1 9.8 0 19.6 2.8 28 8 8.6 5.3 15.6 13 20.1 21.9 0 0 0 .1.1.1.1.2.2.4.4.7 3.8 2.3 7.4 5 10.9 7.9 1.2 1 2.3 2 3.4 3 .4.3.7.7 1.1 1 .1-.3.2-.5.4-.8 3.4-21.7 13-37.4 24.3-37.4 8.5 0 16.1 8.9 20.7 22.6v.1c1.3 1.4 2.6 3 3.9 4.7 0 0 0 .1.1.1.1.2.1.4.2.6l-.2-.7c-14.1-41.6-53.4-71.6-99.8-71.6-58.2 0-105.3 47.1-105.3 105.3 0 11.5 1.8 22.5 5.2 32.8v-.1c.7-3.1 1.5-6.2 2.4-9.2.8-2.4 1.6-4.7 2.5-7z" class="st3"/><path id="XMLID_8_" d="m356.5 162.8-3.7 4.1c-.1.5-.3 1-.5 1.5 0 .1-.1.2-.2.4-.1.3-.3.7-.5 1-.1.2-.2.3-.3.5-.2.2-.3.5-.5.7-.2.3-.5.6-.8.8l-.3.3c-.2.2-.4.3-.6.4-.1 0-.2.1-.3.1-.5.3-1.1.4-1.7.4-3.3 0-6-4.6-6-10.4H329c2.3 2.6 4.5 5.2 6.6 7.9l.1.1 6.3 7.8c.1.1.2.3.3.4 2 2.5 3.9 5 5.8 7.5.2.2.4.5.6.7 2 2.7 4 5.4 6 8v.1c3.5-10.3 5.4-21.2 5.5-32.6l-3.7.3z" class="st9"/><path id="XMLID_7_" d="M239.1 114.1c.3 0 .5 0 .8-.1 1.9-.1 3.8-.2 5.7-.2 5.7 0 11.3.6 16.7 1.7v2.7-2.7c3.8.9 10.6 2.8 15.7 4.9 2.1.9 4.2 1.9 6.2 2.9.1 0 .3.1.5.3 0 0 .1 0 .1.1.2.1.4.2.6.4.3.2.6.3.9.5h.1c1.3.7 2.7 1.6 3.3 1.9.1 0 .1.1.1.1l.1.1c-.1-.2-.2-.4-.4-.7 0 0 0-.1-.1-.1-4.5-9-11.6-16.7-20.1-21.9-8.4-5.1-18.2-8-28-8-24.4 0-45.1 16.5-51.8 39.1 6.4-5.5 13.5-10.1 21.1-13.5 9.1-4.2 18.8-6.7 28.5-7.5z"/><path id="XMLID_6_" d="M262.4 118.3v.6" class="st8"/><path id="XMLID_5_" d="M317.2 121.6c4.3-4.2 10-7.6 16.2-7.6 4.9 0 9.6 2 13.9 5.6.4.3.8.7 1.2 1 .2.2.5.4.7.6.6.6 1.2 1.2 1.8 1.9v-.1c-4.7-13.7-12.2-22.6-20.7-22.6-11.3 0-20.9 15.6-24.3 37.4 2.8-5.8 6.5-11.6 11.2-16.2z"/><path id="XMLID_4_" d="M217.4 259.9c1 .4 1.9.7 2.9 1 10.9 3.8 22.6 5.9 34.8 5.9 13.9 0 27.2-2.7 39.3-7.6.6-.3 1.3-.5 1.9-.8 1-.4 2.1-.9 3.1-1.4.9-.4 1.8-.8 2.7-1.3-.2 0-.4.1-.6.1-3.8.4-7.5.5-11.2-.1-21.7-3.1-26.5-13.6-25.8-24.4-1.6-.9-3.1-1.9-4.8-3.1-16.7-12.1-26.6-25-26.6-25s12.9 9.9 32.1 17.4c.4.2.8.3 1.2.5.9-3.1 2-6.1 2.9-8.7l.3-.9c1.1-3 2.3-6 3.6-8.9 4.8-11 10.7-21.7 13.6-33.4l1.4-6.6h-11.8v.1c0 2-.4 3.8-1.1 5.5-.4.8-.8 1.7-1.3 2.4-1 1.5-2.3 2.8-3.8 3.8-.8.5-1.6.9-2.4 1.3-1.7.7-3.6 1.1-5.5 1.1-.5 0-1 0-1.5-.1-.1 0-.2 0-.3-.1-.4 0-.7-.1-1.1-.2-.1 0-.2-.1-.3-.1-.4-.1-.7-.2-1.1-.3-.1 0-.1 0-.2-.1-.4-.1-.8-.3-1.1-.4h-.1l-1.2-.6c-1.2-.7-2.3-1.5-3.3-2.6l-40.6-9.9h-44.3c-.2.3-.4.7-.6 1-.3.6-.7 1.2-1 1.9-.8 1.5-1.6 3.1-2.3 4.6-.3.5-.5 1.1-.8 1.6-.9 2-1.7 4-2.5 6 0 .1-.1.2-.1.3-.9 2.3-1.7 4.7-2.4 7.1-.9 3-1.7 6.1-2.4 9.2 7 21.3 20.5 39.6 38.3 52.4.5.4 1.1.7 1.6 1.1 3 2.1 6.1 4.1 9.3 5.8 4.2 2.6 8.6 4.7 13.1 6.5z" class="st9"/><path id="XMLID_3_" d="M290.1 227.1c-.2 1.1-.3 2.2-.3 3.3-.1 1.9.1 3.8.4 5.5.2 1.2.4 2.3.7 3.4.5 1.6 1 3.1 1.7 4.5s1.4 2.7 2.1 3.8c.2.4.5.8.7 1.1.4.5.7 1 1.1 1.5.5.6 1 1.2 1.4 1.7 1.9 2.2 3.5 3.4 3.5 3.4v.1c0 .1 0 .2.1.3.2 0 .4-.1.6-.1 4.7-.6 9.4-1.9 14.1-3.5 2.4-.9 4.8-1.8 7.1-2.8.7-.3 1.4-.7 2.1-1 24.1-11.7 44.3-32.3 44.3-32.3-30.2 14.9-59.9 14.3-79.6 11.1z" style="fill:#9f2255"/><path id="XMLID_2_" d="M348.3 186.5c-1.9-2.5-3.9-5-5.8-7.5-.1-.1-.2-.3-.3-.4l-6.3-7.8-.1-.1c-2.2-2.7-4.4-5.3-6.6-7.9-.1-.2-.3-.3-.4-.5-1.4-1.6-2.8-3.1-4.2-4.7-.5-.5-1-1.1-1.5-1.6-1.2-1.3-2.3-2.5-3.5-3.8-.9-1-1.9-1.9-2.8-2.9l-2.7-2.7c-1.9-1.9-3.9-3.8-5.9-5.6l-2.7-2.4c1.9 5.5 4.1 11 5.2 16.7.3 1.5.5 2.9.7 4.3 2.7 19.7-3.7 32.6-13.7 49.6-.7 1.2-1.5 2.5-2.2 3.7-2.3 3.8-3.8 7.5-4.6 10.9-.3 1.1-.5 2.2-.7 3.3 19.7 3.2 49.3 3.8 79.6-11.1 0 0-5.9-8.7-14.9-20.7-2-2.7-4-5.4-6-8-.2-.3-.4-.6-.6-.8z" class="st1"/><path id="XMLID_1_" d="M301.4 255.5s-1.5-1.2-3.5-3.4c-.5-.5-.9-1.1-1.4-1.7-.4-.5-.7-1-1.1-1.5-.2-.4-.5-.7-.7-1.1-.7-1.2-1.4-2.4-2.1-3.8-.6-1.4-1.2-2.9-1.7-4.5-.3-1.1-.6-2.2-.7-3.4-.3-1.7-.4-3.6-.4-5.5 0-1.1.1-2.2.3-3.3.2-1.1.4-2.2.7-3.3.9-3.4 2.3-7 4.6-10.9.7-1.3 1.5-2.5 2.2-3.7 10-17 16.4-29.8 13.7-49.6-.2-1.4-.4-2.9-.7-4.3-.1 1-.3 1.9-.5 2.6v.2c-.1.5-.2.9-.3 1.2-4.4 12.9-11.6 23-21.5 33.7-1.3 1.5-2.7 2.9-4.2 4.4-2.4 2.5-5 5.1-7.6 7.7-1.1 1.1-2.2 2.1-3.3 3.2-1 1-2.4 2.4-3.9 4-.9 2.6-2 5.6-2.9 8.7-.4-.2-.8-.3-1.2-.5-19.2-7.4-32.1-17.4-32.1-17.4s9.9 12.9 26.6 25c1.6 1.2 3.2 2.2 4.8 3.1-.7 10.9 4.1 21.3 25.8 24.4 3.7.5 7.4.5 11.2.1 0-.2-.1-.3-.1-.4z"/></g></svg>