<svg xmlns="http://www.w3.org/2000/svg" width="2500" height="2500" viewBox="0 0 192.756 192.756"><g fill-rule="evenodd" clip-rule="evenodd"><path fill="#fff" d="M0 0h192.756v192.756H0V0z"/><path d="M187.559 79.123c-1.287 0-2.375.99-2.375 2.332 0 1.354 1.088 2.344 2.375 2.344 1.273 0 2.363-.99 2.363-2.344 0-1.342-1.09-2.332-2.363-2.332zm0 4.287c-1.07 0-1.906-.829-1.906-1.955 0-1.107.836-1.942 1.906-1.942 1.057 0 1.893.835 1.893 1.942-.001 1.126-.837 1.955-1.893 1.955z"/><path d="M187.936 81.622c.396-.05.699-.26.699-.742 0-.532-.314-.767-.953-.767h-1.025v2.697h.408v-1.169h.469l.713 1.169h.457l-.768-1.188zm-.872-.328v-.835h.557c.283 0 .586.062.586.396 0 .415-.309.439-.654.439h-.489zM28.336 80.89c-2.983-1.918-6.394-2.416-13.142-2.416H2.834c1.776 1.705 2.344 2.629 2.344 5.043v22.021c0 5.398-.071 6.394-1.917 7.956h10.371c-1.848-.853-2.913-2.202-2.913-5.398v-25.43c2.273-.427 3.694-.64 5.825-.64 6.393 0 10.797 2.06 10.797 8.24 0 4.973-4.333 8.879-9.661 8.879-1.705 0-2.913-.354-5.186-1.136l.284 1.42c.284 1.137 4.262 2.061 6.89 2.061 7.317 0 13.568-3.765 13.568-11.437.002-3.551-1.845-7.174-4.9-9.163zm30.617 2.987v18.043c0 4.333-1.989 8.595-8.382 8.595-6.322 0-8.382-4.12-8.382-8.595V83.877c0-2.771.426-3.765 1.989-5.328h-9.661c1.35 1.136 2.131 2.415 2.131 4.972v18.683c0 8.879 4.901 12.573 14.278 12.573 9.021 0 13.568-4.404 13.568-12.573V83.521c0-2.557.71-3.836 2.131-4.972h-9.661c1.562 1.563 1.989 2.557 1.989 5.328zm17.393 25.072V82.808c0-2.273.568-3.055 2.273-4.262h-9.945c1.848 1.918 2.061 2.913 2.061 7.672v21.523c0 2.771-.355 4.333-2.061 5.754h22.163l2.841-6.961c-3.197 1.989-6.18 3.125-10.939 3.125-2.131 0-3.906-.213-6.393-.71zm43.478-5.113c0-9.732-19.32-10.442-19.32-17.333 0-2.841 2.912-4.901 7.104-4.901 3.41 0 5.682 1.065 8.951 3.268v-5.754c-3.553-.782-5.756-1.137-8.596-1.137-7.672 0-13.426 3.481-13.426 9.376 0 10.798 19.18 10.016 19.18 18.043 0 3.268-3.623 5.043-7.529 5.043-4.191 0-7.176-1.349-11.011-4.119l1.35 7.104c2.699.781 4.759 1.136 7.742 1.136 9.02 0 15.555-4.121 15.555-10.726zm54.957-6.537c5.611-1.42 9.52-4.972 9.52-10.3 0-6.109-5.328-8.524-11.793-8.524h-15.344c1.635 1.278 2.416 2.557 2.416 5.186v25.644c0 1.917-.781 3.125-1.775 4.19h10.371c-2.699-2.202-2.912-2.771-2.912-8.169V82.453c1.918-.497 2.84-.71 4.83-.71 4.76 0 8.24 2.344 8.24 6.819 0 4.688-4.404 7.246-10.018 8.168 9.662 16.125 13.213 16.836 17.191 16.836.498 0 2.273 0 3.693-.071-5.823-4.546-9.091-8.24-14.419-16.196z"/><path d="M145.189 113.495h11.012c-2.842-1.776-3.197-2.415-4.902-6.535l-11.934-28.485h-8.383c.994 1.065 1.422 1.562 1.422 2.344 0 .355-.072.782-.428 1.705L121.89 106.96c-1.775 4.333-3.125 5.398-4.83 6.535h9.803c-1.35-.71-1.848-1.278-1.848-2.486 0-.568.143-1.421.781-2.983l3.055-7.672h13.852l3.553 8.596c.568 1.35.711 1.917.711 2.485 0 .852-.498 1.42-1.778 2.06zm-15.058-16.551 5.541-13.923 5.682 13.923h-11.223z"/></g></svg>