<svg xmlns="http://www.w3.org/2000/svg" width="105.682" height="105.882"><ellipse cx="52.841" cy="52.941" fill="#2ca01c" rx="52.841" ry="52.941" style="fill-rule:evenodd;stroke:none;stroke-width:1"/><path fill="#fff" d="M14.673 52.939c0 11.37 9.2 20.588 20.55 20.588h2.935V65.88h-2.935c-7.123 0-12.917-5.805-12.917-12.941 0-7.135 5.794-12.941 12.917-12.941h7.053v40c0 4.223 3.417 7.647 7.633 7.647V32.35H35.223c-11.35 0-20.55 9.218-20.55 20.588zm55.789-20.585h-2.936v7.647h2.936c7.12 0 12.916 5.806 12.916 12.941 0 7.136-5.796 12.942-12.916 12.942h-7.058v-40c0-4.224-3.417-7.648-7.632-7.648v55.295h14.69c11.347 0 20.549-9.218 20.549-20.589 0-11.37-9.202-20.588-20.55-20.588z" style="fill-rule:evenodd;stroke:none;stroke-width:1"/></svg>