<?xml version="1.0" encoding="UTF-8" standalone="no"?> <svg xmlns="http://www.w3.org/2000/svg" xmlns:xlink="http://www.w3.org/1999/xlink" width="620px" height="120px" viewBox="0 0 620 120"><!-- Generator: Sketch 40.3 (33839) - http://www.bohemiancoding.com/sketch --><title>qb-logo</title><desc>Created with Sketch.</desc><defs></defs><g id="Page-1" stroke="none" stroke-width="1" fill="none" fill-rule="evenodd"><g id="Logotype" transform="translate(-210.000000, -363.000000)"><g id="qb-logo" transform="translate(210.000000, 363.000000)"><g id="Group"><path d="M616.422083,90.9529412 C616.422083,89.6905882 615.346477,89.2305882 614.246212,89.2305882 L612.185417,89.2305882 L612.185417,95.1047059 L613.239886,95.1047059 L613.239886,92.6482353 L613.994924,92.6482353 L615.368788,95.1035294 L616.651061,95.1035294 L615.07053,92.5317647 C615.894848,92.3482353 616.420909,91.7976471 616.420909,90.9494118 L616.422083,90.9529412 Z M613.239886,91.8 L613.239886,90.1258824 L614.200417,90.1258824 C614.752311,90.1258824 615.369962,90.2858824 615.369962,90.9282353 C615.369962,91.6388235 614.68303,91.7988235 614.087689,91.7988235 L613.242235,91.7988235 L613.239886,91.8 Z M614.222727,86.9823529 C611.337614,86.9823529 609.00322,89.3 609.00322,92.1905882 C609.00322,95.0811765 611.337614,97.3529412 614.222727,97.3529412 C617.107841,97.3529412 619.444583,95.0823529 619.444583,92.1905882 C619.444583,89.2988235 617.107841,86.9823529 614.222727,86.9823529 L614.222727,86.9823529 Z M614.222727,96.5941176 C611.796742,96.5941176 609.826364,94.5988235 609.826364,92.1905882 C609.826364,89.7588235 611.796742,87.7858824 614.222727,87.7858824 C616.651061,87.7858824 618.620265,89.7588235 618.620265,92.1905882 C618.620265,94.5988235 616.651061,96.5952941 614.222727,96.5952941 L614.222727,96.5941176 Z M278.345947,87.8623529 C270.709848,87.8623529 266.859508,81.0270588 266.859508,74.4152941 C266.859508,67.8058824 271.037462,61.26 277.979583,61.26 C281.232235,61.26 285.342083,62.8952941 286.956667,65.1929412 L295.041326,57.1223529 C291.12875,52.9905882 284.89,50.5247059 277.979583,50.5247059 C263.920379,50.5247059 253.715038,60.6341176 253.715038,74.5623529 C253.715038,88.7152941 263.806477,98.6011765 278.256705,98.6011765 C285.13072,98.6011765 291.484545,96.5847059 295.251515,92.5270588 L287.387614,84.0717647 C285.571061,86.2882353 281.762992,87.8635294 278.345947,87.8635294 L278.345947,87.8623529 Z M233.130568,97.3176471 L245.675,97.3176471 L245.675,51.8047059 L233.130568,51.8047059 L233.130568,97.3176471 L233.130568,97.3176471 Z M210.320909,76.7576471 C210.320909,82.1058824 206.841629,87.8635294 200.356288,87.8635294 C195.356364,87.8635294 192.688485,84.2905882 192.688485,76.9411765 L192.688485,51.8047059 L180.14053,51.8047059 L180.14053,80.0517647 C180.14053,89.4517647 184.822235,98.6 197.339659,98.6 C203.242576,98.6 208.187311,93.9435294 210.679053,90.5058824 L210.866932,90.5058824 L210.866932,97.3176471 L222.861818,97.3176471 L222.861818,51.8047059 L210.317386,51.8047059 L210.317386,76.7576471 L210.320909,76.7576471 Z M157.512879,57.5835294 L157.234583,57.5835294 C155.461477,55.6188235 150.662348,50.5247059 142.866553,50.5247059 C130.076705,50.5247059 120.221288,60.5552941 120.221288,74.3788235 C120.221288,88.4141176 129.315795,98.6 142.265341,98.6 C148.144773,98.6 153.667235,95.4776471 156.869394,91.8470588 L157.054924,91.8470588 L157.054924,119.729412 L169.599356,119.729412 L169.599356,51.8047059 L157.512879,51.8047059 L157.512879,57.5835294 L157.512879,57.5835294 Z M145.333636,87.8623529 C137.576591,87.8623529 133.168485,81.0788235 133.168485,74.38 C133.168485,67.9717647 137.216098,61.0764706 145.333636,61.0764706 C152.79947,61.0764706 157.420114,68.0764706 157.420114,74.5611765 C157.420114,81.0988235 152.89928,87.8623529 145.334811,87.8623529 L145.333636,87.8623529 Z M431.062045,50.5235294 C416.787955,50.5235294 406.428788,60.5552941 406.428788,74.3788235 C406.428788,88.6823529 417.018106,98.7223529 431.060871,98.7223529 C445.102462,98.7223529 455.692955,88.5858824 455.692955,74.3788235 C455.692955,60.5552941 445.333788,50.5235294 431.060871,50.5235294 L431.062045,50.5235294 Z M431.062045,87.8623529 C422.881098,87.8623529 419.155227,80.8741176 419.155227,74.38 C419.155227,67.9717647 422.881098,61.0764706 431.062045,61.0764706 C439.241818,61.0764706 442.966515,67.9705882 442.966515,74.3788235 C442.966515,80.8729412 439.241818,87.8611765 431.059697,87.8611765 L431.062045,87.8623529 Z M587.887992,69.3047059 C581.432008,67.76 579.1575,66.9282353 579.1575,64.3105882 C579.1575,60.6988235 583.725303,59.9058824 585.79197,59.9058824 C589.684583,59.9058824 594.082121,62.2352941 595.735455,64.4470588 L603.133182,57.3364706 C599.711439,53.0305882 592.985379,50.5247059 585.883561,50.5247059 C576.804318,50.5247059 567.271818,55.0976471 567.271818,65.3176471 C567.271818,74.0941176 574.137614,76.7411765 580.855455,78.3529412 C587.936136,80.0058824 590.460758,81.2117647 590.460758,84.0705882 C590.460758,88.2823529 585.689811,88.9705882 584.049394,88.9705882 C579.945417,88.9705882 575.189735,86.6176471 572.624015,83.5658824 L565.009053,91.3011765 C569.16822,95.9247059 576.288826,98.7047059 583.591439,98.7047059 C595.854053,98.7047059 603.130833,92.8482353 603.130833,83.1835294 C603.130833,73.9364706 594.224205,70.8270588 587.886818,69.3058824 L587.887992,69.3047059 Z M564.172992,51.8035294 L547.995455,51.8035294 L531.800303,70.6894118 L531.520833,70.6894118 L531.520833,26.7223529 L518.977576,26.7223529 L518.977576,97.3164706 L531.520833,97.3164706 L531.520833,74.8694118 L531.800303,74.8694118 L548.603712,97.3164706 L565.110038,97.3164706 L545.582386,72.4435294 L564.172992,51.8035294 L564.172992,51.8035294 Z M378.16125,50.5211765 C372.423902,50.5211765 368.197803,53.0341176 364.206553,56.78 L363.971705,56.78 L363.971705,26.7211765 L351.430795,26.7211765 L351.430795,97.3164706 L363.424508,97.3164706 L363.424508,90.8835294 L363.612386,90.8835294 C366.439962,95.5305882 372.059886,98.5988235 377.887652,98.5988235 C390.836023,98.5988235 400.652689,88.4105882 400.652689,74.3776471 C400.652689,60.5541176 390.953447,50.5223529 378.162424,50.5223529 L378.16125,50.5211765 Z M375.695341,87.8623529 C368.128523,87.8623529 363.606515,81.0976471 363.606515,74.56 C363.606515,68.0752941 368.228333,61.0752941 375.695341,61.0752941 C383.811705,61.0752941 387.84875,67.9694118 387.84875,74.3776471 C387.84875,81.0776471 383.451212,87.86 375.695341,87.86 L375.695341,87.8623529 Z M346.710341,51.8035294 L330.531629,51.8035294 L314.336477,70.6894118 L314.057008,70.6894118 L314.057008,26.7223529 L301.51375,26.7223529 L301.51375,97.3164706 L314.057008,97.3164706 L314.057008,74.8694118 L314.336477,74.8694118 L331.139886,97.3164706 L347.646212,97.3164706 L328.118561,72.4435294 L346.710341,51.8035294 L346.710341,51.8035294 Z M486.182159,50.5211765 C471.908068,50.5211765 461.548902,60.5541176 461.548902,74.3776471 C461.548902,88.6811765 472.13822,98.7211765 486.180985,98.7211765 C500.221402,98.7211765 510.811894,88.5847059 510.811894,74.3776471 C510.811894,60.5541176 500.452727,50.5223529 486.179811,50.5223529 L486.182159,50.5211765 Z M486.182159,87.8623529 C478.001212,87.8623529 474.275341,80.8717647 474.275341,74.3776471 C474.275341,67.9705882 478.001212,61.0752941 486.182159,61.0752941 C494.360758,61.0752941 498.086629,67.9694118 498.086629,74.3776471 C498.086629,80.8717647 494.360758,87.86 486.179811,87.86 L486.182159,87.8623529 Z" id="Shape" fill="#000000"></path><ellipse id="Oval" fill="#2CA01C" cx="53.2753788" cy="53.2070588" rx="52.8409091" ry="52.9411765"></ellipse><path d="M15.107803,53.2047059 C15.107803,64.5752941 24.3079924,73.7929412 35.6570455,73.7929412 L38.5926515,73.7929412 L38.5926515,66.1458824 L35.6570455,66.1458824 C28.5340909,66.1458824 22.7403788,60.3411765 22.7403788,53.2047059 C22.7403788,46.0694118 28.5340909,40.2635294 35.6570455,40.2635294 L42.7107197,40.2635294 L42.7107197,80.2635294 C42.7107197,84.4870588 46.1277652,87.9105882 50.3432955,87.9105882 L50.3432955,32.6164706 L35.6570455,32.6164706 C24.3079924,32.6164706 15.107803,41.8352941 15.107803,53.2047059 L15.107803,53.2047059 Z M70.8960606,32.62 L67.9604545,32.62 L67.9604545,40.2670588 L70.8960606,40.2670588 C78.0166667,40.2670588 83.8127273,46.0729412 83.8127273,53.2082353 C83.8127273,60.3435294 78.0166667,66.1494118 70.8960606,66.1494118 L63.8388636,66.1494118 L63.8388636,26.1494118 C63.8388636,21.9258824 60.4218182,18.5023529 56.2062879,18.5023529 L56.2062879,73.7964706 L70.8960606,73.7964706 C82.2439394,73.7964706 91.445303,64.5788235 91.445303,53.2082353 C91.445303,41.8376471 82.2439394,32.62 70.8960606,32.62 L70.8960606,32.62 Z" id="Shape" fill="#FFFFFF"></path><path d="M171.956061,12.3211765 C173.884167,12.3211765 175.447083,10.7541176 175.447083,8.82352941 C175.447083,6.89176471 173.885341,5.32470588 171.956061,5.32470588 C170.027955,5.32470588 168.463864,6.89176471 168.463864,8.82352941 C168.463864,10.7529412 170.027955,12.3211765 171.956061,12.3211765 L171.956061,12.3211765 Z M151.120303,14.6776471 C147.703258,14.6776471 144.957879,16.7529412 143.94803,19.0682353 L143.850568,19.0682353 L143.850568,15.3541176 L138.363333,15.3541176 L138.363333,38.5117647 L144.140606,38.5117647 L144.140606,25.7752941 C144.140606,22.6882353 145.873788,19.5047059 149.530379,19.5047059 C153.240985,19.5047059 153.866856,22.9282353 153.866856,25.6788235 L153.866856,38.5117647 L159.644129,38.5117647 L159.644129,24.0388235 C159.644129,19.3094118 157.140644,14.6788235 151.119129,14.6788235 L151.120303,14.6776471 Z M126.663182,38.5105882 L132.440455,38.5105882 L132.440455,15.3529412 L126.663182,15.3529412 L126.663182,38.5105882 L126.663182,38.5105882 Z M231.737917,12.3223529 C233.667197,12.3223529 235.230114,10.7541176 235.230114,8.82352941 C235.230114,6.89176471 233.668371,5.32470588 231.739091,5.32470588 C229.813333,5.32470588 228.249242,6.89176471 228.249242,8.82352941 C228.249242,10.7529412 229.810985,12.3211765 231.740265,12.3211765 L231.737917,12.3223529 Z M222.370985,15.34 L222.370985,20.4694118 L228.850455,20.4694118 L228.850455,38.5094118 L234.630076,38.5094118 L234.630076,20.4705882 L241.108371,20.4705882 L241.108371,15.3411765 L222.370985,15.3411765 L222.370985,15.34 Z M212.544924,38.5094118 L218.322197,38.5094118 L218.322197,15.3529412 L212.544924,15.3529412 L212.544924,38.5105882 L212.544924,38.5094118 Z M162.587955,20.4705882 L169.06625,20.4705882 L169.06625,38.5105882 L174.843523,38.5105882 L174.843523,20.4705882 L181.321818,20.4705882 L181.321818,15.3411765 L162.58678,15.3411765 L162.58678,20.4705882 L162.587955,20.4705882 Z M200.850644,28.0905882 C200.850644,31.1776471 199.116288,34.3611765 195.458523,34.3611765 C191.750265,34.3611765 191.125568,30.9376471 191.125568,28.1847059 L191.125568,15.3541176 L185.345947,15.3541176 L185.345947,29.8270588 C185.345947,34.5564706 187.849432,39.1870588 193.870947,39.1870588 C197.287992,39.1870588 200.033371,37.1129412 201.04322,34.7964706 L201.140682,34.7964706 L201.140682,38.5117647 L206.630265,38.5117647 L206.630265,15.3529412 L200.852992,15.3529412 L200.852992,28.0905882 L200.850644,28.0905882 Z" id="Shape" fill="#000000"></path></g></g></g></g></svg> 