<?xml version="1.0" encoding="UTF-8" standalone="no"?>
<svg
   width="105.68182"
   height="105.88235"
   viewBox="0 0 105.68182 105.88235"
   version="1.1"
   id="svg1075"
   sodipodi:docname="qb.svg"
   inkscape:version="1.2.1 (9c6d41e410, 2022-07-14, custom)"
   xmlns:inkscape="http://www.inkscape.org/namespaces/inkscape"
   xmlns:sodipodi="http://sodipodi.sourceforge.net/DTD/sodipodi-0.dtd"
   xmlns="http://www.w3.org/2000/svg"
   xmlns:svg="http://www.w3.org/2000/svg"
   xmlns:rdf="http://www.w3.org/1999/02/22-rdf-syntax-ns#"
   xmlns:cc="http://creativecommons.org/ns#"
   xmlns:dc="http://purl.org/dc/elements/1.1/">
  <sodipodi:namedview
     id="namedview1077"
     pagecolor="#ffffff"
     bordercolor="#666666"
     borderopacity="1.0"
     inkscape:showpageshadow="2"
     inkscape:pageopacity="0.0"
     inkscape:pagecheckerboard="0"
     inkscape:deskcolor="#d1d1d1"
     showgrid="false"
     inkscape:zoom="2.1887097"
     inkscape:cx="309.31466"
     inkscape:cy="59.395726"
     inkscape:window-width="3840"
     inkscape:window-height="2083"
     inkscape:window-x="0"
     inkscape:window-y="40"
     inkscape:window-maximized="1"
     inkscape:current-layer="svg1075" />
  <!-- Generator: Sketch 40.3 (33839) - http://www.bohemiancoding.com/sketch -->
  <title
     id="title1059">qb-logo</title>
  <desc
     id="desc1061">Created with Sketch.</desc>
  <defs
     id="defs1063" />
  <ellipse
     id="Oval"
     fill="#2ca01c"
     cx="52.840908"
     cy="52.941177"
     rx="52.840908"
     ry="52.941177"
     style="fill-rule:evenodd;stroke:none;stroke-width:1" />
  <path
     d="m 14.673332,52.938825 c 0,11.370588 9.200189,20.588235 20.549243,20.588235 h 2.935606 v -7.647059 h -2.935606 c -7.122955,0 -12.916667,-5.804705 -12.916667,-12.941176 0,-7.135294 5.793712,-12.941177 12.916667,-12.941177 h 7.053674 v 40 c 0,4.22353 3.417045,7.647059 7.632576,7.647059 V 32.35059 h -14.68625 c -11.349054,0 -20.549243,9.218823 -20.549243,20.588235 z M 70.46159,32.354119 h -2.935607 v 7.647059 h 2.935607 c 7.120606,0 12.916666,5.805882 12.916666,12.941176 0,7.135294 -5.79606,12.941177 -12.916666,12.941177 h -7.057197 v -40 c 0,-4.22353 -3.417046,-7.647059 -7.632576,-7.647059 V 73.53059 H 70.46159 c 11.347878,0 20.549242,-9.217648 20.549242,-20.588236 0,-11.370588 -9.201364,-20.588235 -20.549242,-20.588235 z"
     id="path1067"
     fill="#ffffff"
     style="fill-rule:evenodd;stroke:none;stroke-width:1" />
  <metadata
     id="metadata1079">
    <rdf:RDF>
      <cc:Work
         rdf:about="">
        <dc:title>qb-logo</dc:title>
      </cc:Work>
    </rdf:RDF>
  </metadata>
</svg>
