<svg xmlns="http://www.w3.org/2000/svg" width="250" height="250" fill="none"><path fill="#000" d="M118.952 28.242a136.44 136.44 0 0 0-6.036.681c-1.022.146-2.774.39-3.894.536-6.279.924-16.84 3.845-16.84 4.672 0 .292-.196.39-.439.195-.487-.292-4.234 1.022-5.354 1.898-.34.244-.925.536-1.265.584-.341.049-2.288.925-4.332 1.947-2.532 1.266-3.505 1.996-3.067 2.288.39.292.292.34-.34.146-.78-.292-4.187 1.314-4.187 1.947 0 .146.195.146.439 0 .194-.146.389.243.34.827-.048 1.217-1.314 1.46-1.606.341-.195-.633-.146-.633.292 0 .243.39.633.535.876.34.682-.73-1.022-1.313-1.947-.68-.486.34-.827.73-.73.875.292.584-1.265 1.947-1.947 1.655-.681-.243-3.456 1.704-7.593 5.257-1.363 1.217-1.8 1.898-1.557 2.531.243.682.194.73-.341.34-.487-.437-1.217.05-3.31 2.191-1.46 1.509-2.336 2.58-1.995 2.385.291-.195.584-.243.584-.049 0 .146-.585.487-1.266.73-.681.293-1.07.73-.925.974.195.292.146.438-.097.39-.243-.098-1.217.778-2.24 1.849-1.265 1.412-1.703 2.288-1.508 2.92.195.682.146.73-.195.244-.632-.925-1.995 1.12-1.703 2.53.146.73.097.877-.195.439-.34-.487-.633-.438-1.168.243-.876 1.071-3.359 4.916-3.359 5.208 0 .146-.584 1.168-1.362 2.337-1.51 2.385-5.5 10.756-6.182 13.044a50.61 50.61 0 0 1-.779 1.947c-1.314 3.018-2.92 8.859-2.677 9.589.146.389.098.584-.146.438-.243-.146-.535.535-.73 1.557-1.558 8.762-1.558 8.762-2.19 16.111-.487 5.452-.146 14.651.486 13.629.195-.341.244.243.098 1.363-.438 3.455 3.31 20.929 4.38 20.248.244-.146.341-.098.195.195-.438.681.584 4.137 1.12 3.796.194-.146.292.243.097.828-.195.778-.097.924.39.632.438-.243.535-.194.291.195-.34.535.487 3.358 1.12 3.943.146.146.827 1.314 1.46 2.677 2.337 4.916 2.677 5.548 3.067 5.305.194-.146.243.049.097.438s.049 1.022.39 1.412c.34.34.973 1.314 1.362 2.093.438.827 1.022 1.46 1.314 1.46.292 0 .73.194.974.438.243.243.146.292-.195.097-.973-.535-.73.341.487 2.044.633.828 1.363 1.363 1.557 1.169.244-.195.244-.098.098.194-.39.682 1.022 2.726 1.655 2.385.243-.146.292 0 .146.39-.195.632 10.27 11.681 14.942 15.721 2.24 1.947 10.465 7.496 11.147 7.496.243 0 .486.195.486.487 0 .243.293.486.682.486.34 0 .925.292 1.217.682.34.389 1.8 1.168 3.358 1.801 1.509.584 2.872 1.265 3.018 1.411.535.73 11.925 4.916 12.752 4.722.487-.146.78-.049.633.146-.39.681 9.637 3.066 15.235 3.65 8.907.925 13.775 1.12 18.253.73 10.026-.973 18.641-2.433 17.717-3.066-.39-.292-.146-.341.632-.146 1.315.292 11.682-2.969 11.682-3.699 0-.244.195-.341.389-.195.195.097 1.023-.049 1.801-.438.828-.341 2.337-1.022 3.408-1.509 4.039-1.752 9.929-5.257 9.637-5.695-.146-.292-.049-.341.243-.195.584.39 6.766-3.65 9.881-6.424 1.168-1.071 2.823-2.483 3.602-3.213.925-.827 1.119-1.217.584-1.022-.536.195-.779.097-.584-.243.194-.292.633-.39.973-.244.73.244 2.337-1.314 2.483-2.433.048-.438.292-.925.486-1.071.195-.195.195.097 0 .633-.34 1.119 5.062-4.332 7.253-7.302.827-1.07 1.849-2.385 2.336-2.92.487-.487.73-1.265.584-1.703a7.656 7.656 0 0 1-.389-.974c-.049-.146.146-.243.389-.243.292 0 .39.292.341.681-.146.633-.049.633.584.097.487-.438.681-1.07.535-1.703-.194-.682-.146-.828.146-.39.341.487.633.341 1.266-.632.438-.682.681-1.509.487-1.801-.195-.341-.146-.39.194-.195.536.292 2.823-3.407 2.629-4.186-.049-.194.243-.779.632-1.217.39-.486.731-1.07.682-1.314 0-.243.146-.584.389-.73.779-.584 3.164-5.987 3.261-7.35 0-.778.195-1.265.39-1.168.535.341 2.385-5.159 2.093-6.133-.146-.535 0-1.07.389-1.314.828-.487 2.044-5.208 1.509-6.035-.195-.341-.146-.438.146-.292.584.389 1.947-7.545 2.531-15.333.487-5.5-.049-16.889-.779-18.057-.194-.292-.34-1.509-.389-2.726-.146-3.505-2.239-11.78-3.261-12.801-.487-.487-.876-1.266-.876-1.752.048-.536.292-.293.73.632.34.779.681 1.314.681 1.12.049-.438-1.752-5.208-2.385-6.328-.292-.487-.487-1.217-.487-1.606 0-1.314-5.402-11.974-7.009-13.775-.827-.973-1.216-1.557-.876-1.363.779.487-1.071-2.433-4.721-7.495-3.699-5.062-16.938-18.155-17.961-17.766-.438.146-.632.146-.438-.049.487-.486-2.239-2.677-2.969-2.385-.34.146-.486 0-.34-.243.34-.535-6.377-5.014-7.642-5.11-.487-.05-1.022-.244-1.217-.488-.243-.194-.097-.243.243-.048.292.195.584.243.584.097 0-.438-12.363-6.133-13.287-6.133-.341 0-.828-.194-1.12-.486-.243-.244-.876-.536-1.411-.633-.536-.098-1.607-.438-2.434-.779-1.801-.73-10.757-2.774-14.115-3.212a1042.1 1042.1 0 0 0-3.651-.536c-.681-.097-2.726-.292-4.624-.438-1.85-.146-4.624-.34-6.084-.438-1.46-.097-4.527-.049-6.814.195Zm36.505 6.327c-.39.244-.925.487-1.217.487-.243 0-.146-.243.243-.487.39-.243.974-.486 1.217-.486.292 0 .146.243-.243.486Zm7.787 4.38a.487.487 0 0 1-.486.488c-.244 0-.487-.244-.487-.487 0-.292.243-.487.487-.487.292 0 .486.195.486.487Zm4.138 0c.146.244-.049.488-.487.488s-.633-.244-.487-.487c.146-.292.39-.487.487-.487.097 0 .341.195.487.487Zm-84.108.293c-.146.146-.584.195-.925.049-.39-.146-.243-.292.292-.292.535-.05.828.097.633.243Zm-7.398 3.602c-.147.243-.585.486-.877.486-.34 0-.292-.194.146-.486.925-.584 1.12-.584.73 0Zm100.17 1.217c-.146.389 0 .73.292.73s.535-.195.535-.487c0-.243.341-.34.828-.146.681.243.632.39-.293.73-1.362.487-1.946.146-1.849-1.07.049-.487.243-.828.438-.682.195.146.243.535.049.925ZM65.897 50.34c-.34.34-.632.34-.973 0-.292-.293-.146-.487.487-.487.632 0 .778.194.486.486Zm119.105.145c0 .39-.293.439-.925.098-.487-.243-.876-.536-.876-.584 0-.098.389-.146.876-.146.486 0 .925.292.925.633Zm3.601 2.483c-.34.097-.876-.049-1.119-.292-.39-.39-.195-.438.633-.244.632.195.876.39.486.536Zm-.535 1.557c0 .244-.097.487-.195.487-.146 0-.389-.243-.535-.487-.146-.292-.049-.486.195-.486.292 0 .535.194.535.486ZM50.03 66.207c-.292.292-.487.146-.487-.487 0-.632.195-.778.487-.486.34.34.34.632 0 .973Zm149.914-.195c.146.39.098.584-.194.438a.926.926 0 0 1-.487-.778c0-.682.341-.536.681.34Zm-157.07 9.054c-.145.389-.291.243-.291-.292-.049-.536.097-.828.243-.633.146.146.195.584.049.925Zm-4.185 7.836c-.487.438-.535.39-.243-.292.146-.487.438-.73.584-.584.146.146 0 .535-.341.876Zm172.742.146c0 .39-.194.584-.486.438-.244-.146-.487-.633-.487-1.022 0-.39.243-.584.487-.438.292.146.486.633.486 1.022Zm-27.598 6.036c.682.535 1.461.973 1.801.973.292 0 .39.243.244.535-.195.244 0 .877.389 1.315.389.438.876 1.314 1.071 1.947.146.584.487.973.73.827.195-.146.292.243.097.828-.146.584-.048.924.244.73.243-.195.389.292.243 1.168-.292 1.8-.681 1.8-1.509-.146-.389-.876-1.995-2.872-3.553-4.478-1.558-1.606-2.823-3.067-2.823-3.213 0-.39 1.071-1.46 1.509-1.46.146 0 .876.438 1.557.974Zm-7.301 1.168c.73.048 1.315.194 1.315.39 0 .145.973.827 2.141 1.508 1.655.925 2.288 1.07 2.775.633.535-.438.535-.39.048.243-.487.633-.438.925.244 1.46.632.584.827.584 1.022.049.146-.438.486-.243 1.119.681.487.73.779 1.51.633 1.704-.535.876 1.801 3.505 3.991 4.527 2.677 1.265 5.5 4.088 7.058 7.203.584 1.168 1.265 2.239 1.509 2.385.243.146.438.438.389.633-.146.633 1.168 5.695 1.558 5.938 1.46.925-1.217 1.46-3.31.633-1.022-.341-1.46-.341-1.801.146-.292.438-.341.389-.146-.195.146-.535-.097-1.07-.681-1.363-.487-.292-1.315-1.119-1.753-1.946-.486-.779-1.071-1.266-1.363-1.12-.243.195-.34-.049-.146-.584.584-1.412-1.801-4.137-3.601-4.137-2.045 0-4.965 1.314-4.527 1.995.195.341.146.438-.195.292-.73-.486-2.093.146-1.703.779.146.292.048.341-.244.146-.292-.195-1.557 0-2.774.438-2.775.925-8.518.974-10.708.049-.876-.389-1.704-.633-1.801-.487-.098.098-3.359-1.557-7.204-3.699-5.354-3.018-7.106-3.748-7.642-3.358-.389.389-.632.389-.632.048 0-.292.292-.584.632-.73.487-.195-.73-.876-4.283-2.336-6.863-2.872-14.31-3.407-19.372-1.46-1.655.681-2.677 1.314-2.482 1.606.194.34.097.389-.244.194-.486-.34-5.256 2.191-5.889 3.116-.146.194-1.168.924-2.288 1.654-1.168.682-2.093 1.509-2.093 1.753 0 .292-.194.438-.389.34-.244-.048-1.12.633-1.996 1.461-.876.876-1.849 1.606-2.141 1.606-.39 0-.341.146.048.438.536.341.536.438-.097.681-.438.195-.779.098-.779-.146 0-.243-.973.195-2.19 1.022-1.217.828-2.044 1.704-1.898 1.996.194.341.097.389-.195.195-.292-.195-2.239.535-4.332 1.655-2.044 1.071-4.04 1.947-4.43 1.947-.34 0-.486.243-.291.584.194.292.146.389-.146.243-.293-.195-2.142.097-4.089.584-2.58.682-3.261.974-2.385 1.12.681.097-2.823.194-7.788.146-9.102-.049-10.075-.195-14.456-2.288-.779-.389-1.265-.389-1.8.049-.39.34-1.12.535-1.607.389-.681-.195-.681-.243.195-.292.584 0 1.217-.292 1.363-.535.389-.584-1.655-1.412-2.677-1.12-.584.195-.584.146-.05-.243.488-.39.293-.73-1.07-1.655-.973-.633-2.239-1.752-2.774-2.482-.584-.731-1.266-1.169-1.558-1.023-.292.195-.39.146-.243-.146.195-.243-.098-.924-.536-1.411-.486-.487-1.363-1.801-1.995-2.872-.633-1.071-1.655-2.336-2.19-2.823-.585-.487-.73-.779-.39-.584.828.438.73.146-.584-2.19-.73-1.266-1.265-1.801-1.412-1.363-.194.389-.292.438-.292.048-.048-.292.146-.681.39-.876.292-.146.195-1.07-.146-2.336-1.753-5.646-2.093-7.155-1.704-7.155.244 0 .682.584.974 1.314 1.314 3.505 2.53 5.403 3.31 5.16.632-.195.632-.146.097.243-.536.39-.438.73.438 1.947.633.827 1.363 1.363 1.606 1.217.292-.146.34-.098.195.194-.195.292.194.974.827 1.558.876.827 1.217.925 1.46.438.147-.341.195-.195.05.341-.39 1.801 6.96 6.084 13.384 7.836 5.111 1.363 17.912 1.168 18.399-.292.097-.292.34-.389.584-.243.779.487 9.345-3.456 11.098-5.111.584-.535 1.265-.973 1.557-.973.292 0 .389-.244.195-.585-.195-.292-.146-.389.146-.243.292.195 2.58-1.168 5.062-2.969 5.403-3.894 9.102-6.328 12.12-7.934 1.216-.633 2.287-1.314 2.336-1.557.097-.195.341-.244.584-.098.243.146 1.46-.146 2.774-.584 1.753-.632 3.846-.876 8.178-.876 6.668 0 11.535 1.12 15.818 3.65 1.363.78 2.629 1.46 2.823 1.46.195 0 1.12.682 2.045 1.51.925.827 3.018 2.336 4.624 3.407 1.606 1.022 3.261 2.142 3.699 2.434.487.34.973.535 1.168.486.195-.097.536.049.682.292.681.925 5.305 2.677 7.641 2.921 3.261.34 4.478 0 6.425-1.704l1.558-1.411-2.191-1.558c-1.216-.876-2.677-2.239-3.261-3.018-.681-.924-1.363-1.314-1.849-1.168-.536.244-.584.146-.146-.243.389-.438.389-.974-.146-2.19-.682-1.704-1.266-5.841-.876-6.23.146-.147 1.168 0 2.287.291 1.12.292 2.629.536 3.407.536Zm-6.619.39c-.146.389-.292.243-.292-.293-.049-.535.097-.827.243-.633.146.146.195.584.049.925ZM33.14 96.481c-.146.39-.292.243-.292-.292-.048-.535.098-.828.244-.633.145.146.194.584.048.925Zm77.537 2.093c0 .097-.292.243-.633.39-.389.145-.681-.05-.681-.39s.292-.535.681-.39c.341.147.633.293.633.39Zm67.17 5.305c0 1.071-1.412 1.996-2.045 1.363-.389-.389-.389-.73.098-1.314.778-.925 1.947-.973 1.947-.049Zm-79.338 2.239c-.584.39-.584.487-.049.487.39 0 .584.146.39.292-.439.438-1.363-.292-1.071-.827.194-.244.584-.438.876-.438.34 0 .292.194-.146.486Zm75.444 0c.535.39.34.438-.73.195-1.801-.389-2.191-.681-.925-.681.486 0 1.265.243 1.655.486Zm22.876 0c0 .244-.097.487-.195.487-.146 0-.389-.243-.535-.487-.146-.292-.049-.486.195-.486.292 0 .535.194.535.486ZM93.155 109.72c0 .097-.341.341-.78.487-.389.146-.583.097-.437-.195.292-.487 1.217-.681 1.217-.292Zm96.081 6.717c-.243.341 1.509 1.071 2.726 1.12.389.048.681.292.633.584-.049.292.34.924.827 1.363 1.363 1.265 1.217 1.849-.341 1.46-.778-.195-1.801-.438-2.336-.584-4.77-1.217-7.398-.682-10.367 2.093-4.381 4.137-5.89 4.77-12.51 5.11-6.23.341-7.787.828-8.177 2.677-.194 1.12.828 3.797 1.899 4.916.438.438.681.438 1.216 0 .536-.486.536-.438 0 .244-.486.681-.389 1.217.633 3.261 1.46 2.823 1.704 6.863.584 9.54-.389.876-.535 1.752-.389 1.947.195.195.146.292-.146.243-1.071-.243-1.217.049-.682 1.071.438.925.438 1.022-.097.535-.487-.535-.876-.389-1.996.682-1.606 1.557-2.141 1.217-1.411-.876.73-2.142.681-6.328-.146-8.275-.389-.925-1.801-3.164-3.115-4.964-4.673-6.328-5.111-10.222-1.558-13.726 1.071-1.023 1.752-2.093 1.606-2.337-.146-.292-.048-.34.244-.146.292.146 1.752-.048 3.31-.438 1.557-.389 4.916-.73 7.495-.73 3.115 0 5.014-.243 5.841-.73.682-.389 1.558-.827 1.947-1.022.389-.195 1.363-.779 2.142-1.314 2.433-1.704 4.721-2.288 8.664-2.142 2.044.049 3.601.243 3.504.438Zm-70.869 1.704c-.486.097-1.362.097-1.946 0-.633-.098-.244-.195.827-.195 1.071-.049 1.558.049 1.119.195Zm3.262 2.628c3.504.584 8.128 2.336 8.761 3.31.243.438.535.438 1.119-.049.633-.535.73-.535.487.146-.195.536.292 1.363 1.412 2.434 1.606 1.557 4.186 5.403 4.332 6.522.048.243.292 1.363.584 2.434.292 1.071.632 3.358.827 5.111.633 7.106 2.482 10.659 6.668 13.044 2.677 1.509 7.155 2.726 10.124 2.677 1.363-.049 1.509.049.731.341-.536.243-.682.438-.341.438.292.048.633 0 .73-.049.146-.146 2.288 1.655 3.991 3.359 1.071 1.07 1.704 1.411 2.093 1.119.438-.341.438-.341.146.049-.341.389-.049 1.411.779 3.018.681 1.362 1.363 3.455 1.46 4.672.243 2.434-.195 6.376-.779 6.376-.194 0-.73-.73-1.119-1.654-1.071-2.191-3.748-5.744-5.208-6.863-.925-.731-1.217-.731-1.606-.195-.39.535-.438.487-.195-.195.243-.681-.195-1.119-1.898-1.849-1.217-.536-3.408-1.217-4.916-1.558-2.239-.487-2.775-.438-3.213.146-.389.633-.438.584-.243-.097.292-.828-.828-1.314-3.067-1.363-.681 0-2.287-.536-3.602-1.217-1.314-.633-2.628-1.022-2.92-.876-.292.146-.389.146-.195-.049.195-.243-.292-1.022-1.07-1.752-2.677-2.58-4.04-6.279-4.916-13.142-.244-2.19-.877-4.575-1.315-5.257-.535-.827-.584-1.119-.146-.876.73.438.536-.438-.778-3.602-.536-1.362-.779-1.557-1.169-.973-.34.535-.389.438-.194-.487.194-.925-.195-1.752-1.753-3.553-1.898-2.19-4.478-4.186-3.601-2.726.243.39.194.487-.146.244-.341-.195-.584-.633-.584-1.022 0-.731-1.315-1.363-2.045-.877-.292.146-.389.049-.243-.194.195-.292-.633-.779-1.996-1.12-3.018-.779-12.022-1.265-11.633-.633.195.293-.146.39-.925.244-2.871-.536 1.655-2.58 7.302-3.261 1.508-.195 2.823-.487 2.969-.682.243-.389 2.628-.243 7.301.487Zm65.465-.049c0 .244-.097.487-.194.487-.146 0-.39-.243-.536-.487-.146-.292-.048-.486.195-.486.292 0 .535.194.535.486Zm-84.448 3.894c.146.292-.049.341-.438.195-.876-.341-1.022-.681-.341-.681.292 0 .633.194.779.486Zm31.881 1.947c0 .292-.438.098-.973-.341-.536-.486-.974-.924-.974-1.022 0-.048.438.098.974.39.535.292.973.73.973.973Zm28.377 7.058c-.146.438-.39.681-.487.535-.146-.146-.097-.438.097-.73.438-.779.73-.633.39.195Zm2.531 14.359c.146.243.048.486-.195.486-.292 0-.535-.243-.535-.486 0-.293.097-.487.194-.487.146 0 .39.194.536.487Zm-21.757 3.65c-.146.146-.438-.097-.584-.584-.292-.681-.244-.73.243-.292.341.341.487.73.341.876Zm-8.664 7.836c0 .779-.779.925-1.217.195-.389-.633.195-1.557.779-1.217.243.195.438.633.438 1.022Zm76.223 7.788c-.195.438-.439.73-.536.584-.146-.146-.146-.632.049-1.07.195-.439.438-.731.535-.585.146.146.146.633-.048 1.071Zm-172.11.195a.488.488 0 0 1-.487.487c-.243 0-.486-.244-.486-.487 0-.292.243-.487.486-.487.292 0 .487.195.487.487Zm121.83 4.77c-.341.779-.438.681-.828-1.12-.34-1.362-.292-1.411.341-.486.389.486.584 1.217.487 1.606ZM49.933 185.262c-.438.779-.487.682-.438-.389.048-.73.291-1.119.535-.876.195.195.195.779-.098 1.265Zm150.109-.778c0 .584-.195.778-.438.535-.244-.243-.292-.681-.146-.973.486-.731.584-.682.584.438Zm-147.14 3.748c-.146.34-.292.632-.39.632-.097 0-.243-.292-.39-.632-.145-.39.05-.682.39-.682s.536.292.39.682Zm1.508.34c-.145.438-.486.779-.73.779-.243 0-.194-.438.146-.973.682-1.071 1.023-.974.584.194Zm141.884.438c.389.536.292.876-.487 1.607-1.071.924-1.071.924-.584-.049.292-.536.389-1.266.292-1.606-.292-.779.097-.73.779.048Zm-140.083 3.115c.633.779.584.828-.146.195-.827-.633-1.07-1.022-.681-1.022.097 0 .487.389.827.827Zm8.956 7.642c.341-.146.73-.049.925.195.146.243-.243.389-.779.341-.584-.049-1.12-.341-1.168-.682-.048-.292 0-.341.098-.097.146.292.535.389.924.243Zm120.175.244c-.389.389-2.093.389-1.849 0 .097-.195.632-.341 1.168-.293.487.049.827.146.681.293Zm-116.037 3.455c0 .244-.098.487-.195.487-.146 0-.39-.243-.535-.487-.147-.292-.05-.486.194-.486.292 0 .536.194.536.486Zm1.216-.048c.147.243.098.584-.146.73-.243.146-.438-.049-.438-.438 0-.828.146-.925.584-.292Zm110.441.146c-.098.146-.633.292-1.169.243-1.168-.097-.876-.633.439-.633.535 0 .876.195.73.39Zm-13.337 7.69c.633.438.633.487 0 .487-.389 0-1.071-.244-1.46-.487-.633-.438-.633-.487 0-.487.389 0 1.071.244 1.46.487Zm-84.351.292c-.146.146-.584.195-.925.049-.39-.146-.243-.292.292-.292.535-.049.828.097.633.243Z"/><path fill="#000" d="M184.176 95.362c0 .244.34.73.827 1.071.73.633.73.584.195-.438-.584-1.12-1.022-1.363-1.022-.633Zm-7.644 8.664c-.73.244-.827 1.12-.194 1.12.243 0 .535-.341.73-.73.146-.39.194-.73.146-.682-.049 0-.39.146-.682.292ZM69.06 45.764c-.146.243-.097.487.195.487.243 0 .633-.243.779-.487.146-.292.097-.487-.195-.487-.243 0-.633.195-.779.487Z"/></svg>