<svg xmlns="http://www.w3.org/2000/svg" width="533.333" height="533.333" version="1.0" viewBox="0 0 400 400"><path d="M188 1c-4.7.4-10.2 1.1-12.4 1.4-2.1.3-5.7.8-8 1.1-12.9 1.9-34.6 7.9-34.6 9.6 0 .6-.4.8-.9.4-1-.6-8.7 2.1-11 3.9-.7.5-1.9 1.1-2.6 1.2-.7.1-4.7 1.9-8.9 4-5.2 2.6-7.2 4.1-6.3 4.7.8.6.6.7-.7.3-1.6-.6-8.6 2.7-8.6 4 0 .3.4.3.9 0 .4-.3.8.5.7 1.7-.1 2.5-2.7 3-3.3.7-.4-1.3-.3-1.3.6 0 .5.8 1.3 1.1 1.8.7 1.4-1.5-2.1-2.7-4-1.4-1 .7-1.7 1.5-1.5 1.8.6 1.2-2.6 4-4 3.4-1.4-.5-7.1 3.5-15.6 10.8-2.8 2.5-3.7 3.9-3.2 5.2.5 1.4.4 1.5-.7.7-1-.9-2.5.1-6.8 4.5-3 3.1-4.8 5.3-4.1 4.9.6-.4 1.2-.5 1.2-.1 0 .3-1.2 1-2.6 1.5-1.4.6-2.2 1.5-1.9 2 .4.6.3.9-.2.8-.5-.2-2.5 1.6-4.6 3.8-2.6 2.9-3.5 4.7-3.1 6 .4 1.4.3 1.5-.4.5-1.3-1.9-4.1 2.3-3.5 5.2.3 1.5.2 1.8-.4.9-.7-1-1.3-.9-2.4.5-1.8 2.2-6.9 10.1-6.9 10.7 0 .3-1.2 2.4-2.8 4.8-3.1 4.9-11.3 22.1-12.7 26.8-.1.3-.8 2.1-1.6 4-2.7 6.2-6 18.2-5.5 19.7.3.8.2 1.2-.3.9-.5-.3-1.1 1.1-1.5 3.2-3.2 18-3.2 18-4.5 33.1-1 11.2-.3 30.1 1 28 .4-.7.5.5.2 2.8-.9 7.1 6.8 43 9 41.6.5-.3.7-.2.4.4-.9 1.4 1.2 8.5 2.3 7.8.4-.3.6.5.2 1.7-.4 1.6-.2 1.9.8 1.3.9-.5 1.1-.4.6.4-.7 1.1 1 6.9 2.3 8.1.3.3 1.7 2.7 3 5.5 4.8 10.1 5.5 11.4 6.3 10.9.4-.3.5.1.2.9s.1 2.1.8 2.9c.7.7 2 2.7 2.8 4.3.9 1.7 2.1 3 2.7 3 .6 0 1.5.4 2 .9s.3.6-.4.2c-2-1.1-1.5.7 1 4.2 1.3 1.7 2.8 2.8 3.2 2.4.5-.4.5-.2.2.4-.8 1.4 2.1 5.6 3.4 4.9.5-.3.6 0 .3.8-.4 1.3 21.1 24 30.7 32.3 4.6 4 21.5 15.4 22.9 15.4.5 0 1 .4 1 1 0 .5.6 1 1.4 1 .7 0 1.9.6 2.5 1.4.7.8 3.7 2.4 6.9 3.7 3.1 1.2 5.9 2.6 6.2 2.9 1.1 1.5 24.5 10.1 26.2 9.7 1-.3 1.6-.1 1.3.3-.8 1.4 19.8 6.3 31.3 7.5 18.3 1.9 28.3 2.3 37.5 1.5 20.6-2 38.3-5 36.4-6.3-.8-.6-.3-.7 1.3-.3 2.7.6 24-6.1 24-7.6 0-.5.4-.7.8-.4.4.2 2.1-.1 3.7-.9 1.7-.7 4.8-2.1 7-3.1 8.3-3.6 20.4-10.8 19.8-11.7-.3-.6-.1-.7.5-.4 1.2.8 13.9-7.5 20.3-13.2 2.4-2.2 5.8-5.1 7.4-6.6 1.9-1.7 2.3-2.5 1.2-2.1-1.1.4-1.6.2-1.2-.5.4-.6 1.3-.8 2-.5 1.5.5 4.8-2.7 5.1-5 .1-.9.6-1.9 1-2.2.4-.4.4.2 0 1.3-.7 2.3 10.4-8.9 14.9-15 1.7-2.2 3.8-4.9 4.8-6 1-1 1.5-2.6 1.2-3.5-.4-.8-.7-1.7-.8-2-.1-.3.3-.5.8-.5.6 0 .8.6.7 1.4-.3 1.3-.1 1.3 1.2.2 1-.9 1.4-2.2 1.1-3.5-.4-1.4-.3-1.7.3-.8.7 1 1.3.7 2.6-1.3.9-1.4 1.4-3.1 1-3.7-.4-.7-.3-.8.4-.4 1.1.6 5.8-7 5.4-8.6-.1-.4.5-1.6 1.3-2.5.8-1 1.5-2.2 1.4-2.7 0-.5.3-1.2.8-1.5 1.6-1.2 6.5-12.3 6.7-15.1 0-1.6.4-2.6.8-2.4 1.1.7 4.9-10.6 4.3-12.6-.3-1.1 0-2.2.8-2.7 1.7-1 4.2-10.7 3.1-12.4-.4-.7-.3-.9.3-.6 1.2.8 4-15.5 5.2-31.5 1-11.3-.1-34.7-1.6-37.1-.4-.6-.7-3.1-.8-5.6-.3-7.2-4.6-24.2-6.7-26.3-1-1-1.8-2.6-1.8-3.6.1-1.1.6-.6 1.5 1.3.7 1.6 1.4 2.7 1.4 2.3.1-.9-3.6-10.7-4.9-13-.6-1-1-2.5-1-3.3 0-2.7-11.1-24.6-14.4-28.3-1.7-2-2.5-3.2-1.8-2.8 1.6 1-2.2-5-9.7-15.4-7.6-10.4-34.8-37.3-36.9-36.5-.9.3-1.3.3-.9-.1 1-1-4.6-5.5-6.1-4.9-.7.3-1 0-.7-.5.7-1.1-13.1-10.3-15.7-10.5-1-.1-2.1-.5-2.5-1-.5-.4-.2-.5.5-.1.6.4 1.2.5 1.2.2 0-.9-25.4-12.6-27.3-12.6-.7 0-1.7-.4-2.3-1-.5-.5-1.8-1.1-2.9-1.3-1.1-.2-3.3-.9-5-1.6-3.7-1.5-22.1-5.7-29-6.6-2.7-.4-6.1-.9-7.5-1.1-1.4-.2-5.6-.6-9.5-.9-3.8-.3-9.5-.7-12.5-.9-3-.2-9.3-.1-14 .4zm75 13c-.8.5-1.9 1-2.5 1-.5 0-.3-.5.5-1s2-1 2.5-1c.6 0 .3.5-.5 1zm16 9c0 .5-.4 1-1 1-.5 0-1-.5-1-1 0-.6.5-1 1-1 .6 0 1 .4 1 1zm8.5 0c.3.5-.1 1-1 1s-1.3-.5-1-1c.3-.6.8-1 1-1 .2 0 .7.4 1 1zm-172.8.6c-.3.3-1.2.4-1.9.1-.8-.3-.5-.6.6-.6 1.1-.1 1.7.2 1.3.5zM99.5 31c-.3.5-1.2 1-1.8 1-.7 0-.6-.4.3-1 1.9-1.2 2.3-1.2 1.5 0zm205.8 2.5c-.3.8 0 1.5.6 1.5s1.1-.4 1.1-1c0-.5.7-.7 1.7-.3 1.4.5 1.3.8-.6 1.5-2.8 1-4 .3-3.8-2.2.1-1 .5-1.7.9-1.4.4.3.5 1.1.1 1.9zM79 46.4c-.7.7-1.3.7-2 0-.6-.6-.3-1 1-1s1.6.4 1 1zm244.7.3c0 .8-.6.9-1.9.2-1-.5-1.8-1.1-1.8-1.2 0-.2.8-.3 1.8-.3s1.9.6 1.9 1.3zm7.4 5.1c-.7.2-1.8-.1-2.3-.6-.8-.8-.4-.9 1.3-.5 1.3.4 1.8.8 1 1.1zM330 55c0 .5-.2 1-.4 1-.3 0-.8-.5-1.1-1-.3-.6-.1-1 .4-1 .6 0 1.1.4 1.1 1zM46.4 79c-.6.6-1 .3-1-1s.4-1.6 1-1c.7.7.7 1.3 0 2zm308-.4c.3.8.2 1.2-.4.9-.6-.3-1-1-1-1.6 0-1.4.7-1.1 1.4.7zM31.7 97.2c-.3.8-.6.5-.6-.6-.1-1.1.2-1.7.5-1.3.3.3.4 1.2.1 1.9zm-8.6 16.1c-1 .9-1.1.8-.5-.6.3-1 .9-1.5 1.2-1.2.3.3 0 1.1-.7 1.8zm354.9.3c0 .8-.4 1.2-1 .9-.5-.3-1-1.3-1-2.1s.5-1.2 1-.9c.6.3 1 1.3 1 2.1zM321.3 126c1.4 1.1 3 2 3.7 2 .6 0 .8.5.5 1.1-.4.5 0 1.8.8 2.7.8.9 1.8 2.7 2.2 4 .3 1.2 1 2 1.5 1.7.4-.3.6.5.2 1.7-.3 1.2-.1 1.9.5 1.5.5-.4.8.6.5 2.4-.6 3.7-1.4 3.7-3.1-.3-.8-1.8-4.1-5.9-7.3-9.2-3.2-3.3-5.8-6.3-5.8-6.6 0-.8 2.2-3 3.1-3 .3 0 1.8.9 3.2 2zm-15 2.4c1.5.1 2.7.4 2.7.8 0 .3 2 1.7 4.4 3.1 3.4 1.9 4.7 2.2 5.7 1.3 1.1-.9 1.1-.8.1.5s-.9 1.9.5 3c1.3 1.2 1.7 1.2 2.1.1.3-.9 1-.5 2.3 1.4 1 1.5 1.6 3.1 1.3 3.5-1.1 1.8 3.7 7.2 8.2 9.3 5.5 2.6 11.3 8.4 14.5 14.8 1.2 2.4 2.6 4.6 3.1 4.9.5.3.9.9.8 1.3-.3 1.3 2.4 11.7 3.2 12.2 3 1.9-2.5 3-6.8 1.3-2.1-.7-3-.7-3.7.3-.6.9-.7.8-.3-.4.3-1.1-.2-2.2-1.4-2.8-1-.6-2.7-2.3-3.6-4-1-1.6-2.2-2.6-2.8-2.3-.5.4-.7-.1-.3-1.2 1.2-2.9-3.7-8.5-7.4-8.5-4.2 0-10.2 2.7-9.3 4.1.4.7.3.9-.4.6-1.5-1-4.3.3-3.5 1.6.3.6.1.7-.5.3-.6-.4-3.2 0-5.7.9-5.7 1.9-17.5 2-22 .1-1.8-.8-3.5-1.3-3.7-1-.2.2-6.9-3.2-14.8-7.6-11-6.2-14.6-7.7-15.7-6.9-.8.8-1.3.8-1.3.1 0-.6.6-1.2 1.3-1.5 1-.4-1.5-1.8-8.8-4.8-14.1-5.9-29.4-7-39.8-3-3.4 1.4-5.5 2.7-5.1 3.3.4.7.2.8-.5.4-1-.7-10.8 4.5-12.1 6.4-.3.4-2.4 1.9-4.7 3.4-2.4 1.4-4.3 3.1-4.3 3.6 0 .6-.4.9-.8.7-.5-.1-2.3 1.3-4.1 3-1.8 1.8-3.8 3.3-4.4 3.3-.8 0-.7.3.1.9 1.1.7 1.1.9-.2 1.4-.9.4-1.6.2-1.6-.3s-2 .4-4.5 2.1c-2.5 1.7-4.2 3.5-3.9 4.1.4.7.2.8-.4.4-.6-.4-4.6 1.1-8.9 3.4-4.2 2.2-8.3 4-9.1 4-.7 0-1 .5-.6 1.2.4.6.3.8-.3.5-.6-.4-4.4.2-8.4 1.2-5.3 1.4-6.7 2-4.9 2.3 1.4.2-5.8.4-16 .3-18.7-.1-20.7-.4-29.7-4.7-1.6-.8-2.6-.8-3.7.1-.8.7-2.3 1.1-3.3.8-1.4-.4-1.4-.5.4-.6 1.2 0 2.5-.6 2.8-1.1.8-1.2-3.4-2.9-5.5-2.3-1.2.4-1.2.3-.1-.5 1-.8.6-1.5-2.2-3.4-2-1.3-4.6-3.6-5.7-5.1-1.2-1.5-2.6-2.4-3.2-2.1-.6.4-.8.3-.5-.3.4-.5-.2-1.9-1.1-2.9-1-1-2.8-3.7-4.1-5.9-1.3-2.2-3.4-4.8-4.5-5.8-1.2-1-1.5-1.6-.8-1.2 1.7.9 1.5.3-1.2-4.5-1.5-2.6-2.6-3.7-2.9-2.8-.4.8-.6.9-.6.1-.1-.6.3-1.4.8-1.8.6-.3.4-2.2-.3-4.8-3.6-11.6-4.3-14.7-3.5-14.7.5 0 1.4 1.2 2 2.7 2.7 7.2 5.2 11.1 6.8 10.6 1.3-.4 1.3-.3.2.5s-.9 1.5.9 4c1.3 1.7 2.8 2.8 3.3 2.5.6-.3.7-.2.4.4-.4.6.4 2 1.7 3.2 1.8 1.7 2.5 1.9 3 .9.3-.7.4-.4.1.7-.8 3.7 14.3 12.5 27.5 16.1 10.5 2.8 36.8 2.4 37.8-.6.2-.6.7-.8 1.2-.5 1.6 1 19.2-7.1 22.8-10.5 1.2-1.1 2.6-2 3.2-2 .6 0 .8-.5.4-1.2-.4-.6-.3-.8.3-.5.6.4 5.3-2.4 10.4-6.1 11.1-8 18.7-13 24.9-16.3 2.5-1.3 4.7-2.7 4.8-3.2.2-.4.7-.5 1.2-.2s3-.3 5.7-1.2c3.6-1.3 7.9-1.8 16.8-1.8 13.7 0 23.7 2.3 32.5 7.5 2.8 1.6 5.4 3 5.8 3 .4 0 2.3 1.4 4.2 3.1 1.9 1.7 6.2 4.8 9.5 7 3.3 2.1 6.7 4.4 7.6 5 1 .7 2 1.1 2.4 1 .4-.2 1.1.1 1.4.6 1.4 1.9 10.9 5.5 15.7 6 6.7.7 9.2 0 13.2-3.5l3.2-2.9-4.5-3.2c-2.5-1.8-5.5-4.6-6.7-6.2-1.4-1.9-2.8-2.7-3.8-2.4-1.1.5-1.2.3-.3-.5.8-.9.8-2-.3-4.5-1.4-3.5-2.6-12-1.8-12.8.3-.3 2.4 0 4.7.6 2.3.6 5.4 1.1 7 1.1zm-13.6.8c-.3.8-.6.5-.6-.6-.1-1.1.2-1.7.5-1.3.3.3.4 1.2.1 1.9zm-281 12c-.3.8-.6.5-.6-.6-.1-1.1.2-1.7.5-1.3.3.3.4 1.2.1 1.9zm159.3 4.3c0 .2-.6.5-1.3.8-.8.3-1.4-.1-1.4-.8 0-.7.6-1.1 1.4-.8.7.3 1.3.6 1.3.8zm138 10.9c0 2.2-2.9 4.1-4.2 2.8-.8-.8-.8-1.5.2-2.7 1.6-1.9 4-2 4-.1zM146 161c-1.2.8-1.2 1-.1 1 .8 0 1.2.3.8.6-.9.9-2.8-.6-2.2-1.7.4-.5 1.2-.9 1.8-.9.7 0 .6.4-.3 1zm155 0c1.1.8.7.9-1.5.4-3.7-.8-4.5-1.4-1.9-1.4 1 0 2.6.5 3.4 1zm47 0c0 .5-.2 1-.4 1-.3 0-.8-.5-1.1-1-.3-.6-.1-1 .4-1 .6 0 1.1.4 1.1 1zm-213 7.4c0 .2-.7.7-1.6 1-.8.3-1.2.2-.9-.4.6-1 2.5-1.4 2.5-.6zm197.4 13.8c-.5.7 3.1 2.2 5.6 2.3.8.1 1.4.6 1.3 1.2-.1.6.7 1.9 1.7 2.8 2.8 2.6 2.5 3.8-.7 3-1.6-.4-3.7-.9-4.8-1.2-9.8-2.5-15.2-1.4-21.3 4.3-9 8.5-12.1 9.8-25.7 10.5-12.8.7-16 1.7-16.8 5.5-.4 2.3 1.7 7.8 3.9 10.1.9.9 1.4.9 2.5 0 1.1-1 1.1-.9 0 .5-1 1.4-.8 2.5 1.3 6.7 3 5.8 3.5 14.1 1.2 19.6-.8 1.8-1.1 3.6-.8 4 .4.4.3.6-.3.5-2.2-.5-2.5.1-1.4 2.2.9 1.9.9 2.1-.2 1.1-1-1.1-1.8-.8-4.1 1.4-3.3 3.2-4.4 2.5-2.9-1.8 1.5-4.4 1.4-13-.3-17-.8-1.9-3.7-6.5-6.4-10.2-9.6-13-10.5-21-3.2-28.2 2.2-2.1 3.6-4.3 3.3-4.8-.3-.6-.1-.7.5-.3.6.3 3.6-.1 6.8-.9 3.2-.8 10.1-1.5 15.4-1.5 6.4 0 10.3-.5 12-1.5 1.4-.8 3.2-1.7 4-2.1.8-.4 2.8-1.6 4.4-2.7 5-3.5 9.7-4.7 17.8-4.4 4.2.1 7.4.5 7.2.9zm-145.6 3.5c-1 .2-2.8.2-4 0-1.3-.2-.5-.4 1.7-.4 2.2-.1 3.2.1 2.3.4zm6.7 5.4c7.2 1.2 16.7 4.8 18 6.8.5.9 1.1.9 2.3-.1 1.3-1.1 1.5-1.1 1 .3-.4 1.1.6 2.8 2.9 5 3.3 3.2 8.6 11.1 8.9 13.4.1.5.6 2.8 1.2 5s1.3 6.9 1.7 10.5c1.3 14.6 5.1 21.9 13.7 26.8 5.5 3.1 14.7 5.6 20.8 5.5 2.8-.1 3.1.1 1.5.7-1.1.5-1.4.9-.7.9.6.1 1.3 0 1.5-.1.3-.3 4.7 3.4 8.2 6.9 2.2 2.2 3.5 2.9 4.3 2.3.9-.7.9-.7.3.1-.7.8-.1 2.9 1.6 6.2 1.4 2.8 2.8 7.1 3 9.6.5 5-.4 13.1-1.6 13.1-.4 0-1.5-1.5-2.3-3.4-2.2-4.5-7.7-11.8-10.7-14.1-1.9-1.5-2.5-1.5-3.3-.4-.8 1.1-.9 1-.4-.4s-.4-2.3-3.9-3.8c-2.5-1.1-7-2.5-10.1-3.2-4.6-1-5.7-.9-6.6.3-.8 1.3-.9 1.2-.5-.2.6-1.7-1.7-2.7-6.3-2.8-1.4 0-4.7-1.1-7.4-2.5-2.7-1.3-5.4-2.1-6-1.8-.6.3-.8.3-.4-.1.4-.5-.6-2.1-2.2-3.6-5.5-5.3-8.3-12.9-10.1-27-.5-4.5-1.8-9.4-2.7-10.8-1.1-1.7-1.2-2.3-.3-1.8 1.5.9 1.1-.9-1.6-7.4-1.1-2.8-1.6-3.2-2.4-2-.7 1.1-.8.9-.4-1s-.4-3.6-3.6-7.3c-3.9-4.5-9.2-8.6-7.4-5.6.5.8.4 1-.3.5-.7-.4-1.2-1.3-1.2-2.1 0-1.5-2.7-2.8-4.2-1.8-.6.3-.8.1-.5-.4.4-.6-1.3-1.6-4.1-2.3-6.2-1.6-24.7-2.6-23.9-1.3.4.6-.3.8-1.9.5-5.9-1.1 3.4-5.3 15-6.7 3.1-.4 5.8-1 6.1-1.4.5-.8 5.4-.5 15 1zM328 191c0 .5-.2 1-.4 1-.3 0-.8-.5-1.1-1-.3-.6-.1-1 .4-1 .6 0 1.1.4 1.1 1zm-173.5 8c.3.6-.1.7-.9.4-1.8-.7-2.1-1.4-.7-1.4.6 0 1.3.4 1.6 1zm65.5 4c0 .6-.9.2-2-.7-1.1-1-2-1.9-2-2.1 0-.1.9.2 2 .8 1.1.6 2 1.5 2 2zm58.3 14.5c-.3.9-.8 1.4-1 1.1-.3-.3-.2-.9.2-1.5.9-1.6 1.5-1.3.8.4zm5.2 29.5c.3.5.1 1-.4 1-.6 0-1.1-.5-1.1-1 0-.6.2-1 .4-1 .3 0 .8.4 1.1 1zm-44.7 7.5c-.3.3-.9-.2-1.2-1.2-.6-1.4-.5-1.5.5-.6.7.7 1 1.5.7 1.8zM221 270.6c0 1.6-1.6 1.9-2.5.4-.8-1.3.4-3.2 1.6-2.5.5.4.9 1.3.9 2.1zm156.6 16c-.4.9-.9 1.5-1.1 1.2-.3-.3-.3-1.3.1-2.2.4-.9.9-1.5 1.1-1.2.3.3.3 1.3-.1 2.2zM24 287c0 .5-.4 1-1 1-.5 0-1-.5-1-1 0-.6.5-1 1-1 .6 0 1 .4 1 1zm250.3 9.8c-.7 1.6-.9 1.4-1.7-2.3-.7-2.8-.6-2.9.7-1 .8 1 1.2 2.5 1 3.3zM46.2 323.6c-.9 1.6-1 1.4-.9-.8.1-1.5.6-2.3 1.1-1.8.4.4.4 1.6-.2 2.6zm308.4-1.6c0 1.2-.4 1.6-.9 1.1s-.6-1.4-.3-2c1-1.5 1.2-1.4 1.2.9zm-302.3 7.7c-.3.7-.6 1.3-.8 1.3-.2 0-.5-.6-.8-1.3-.3-.8.1-1.4.8-1.4.7 0 1.1.6.8 1.4zm3.1.7c-.3.9-1 1.6-1.5 1.6s-.4-.9.3-2c1.4-2.2 2.1-2 1.2.4zm291.5.9c.8 1.1.6 1.8-1 3.3-2.2 1.9-2.2 1.9-1.2-.1.6-1.1.8-2.6.6-3.3-.6-1.6.2-1.5 1.6.1zm-287.8 6.4c1.3 1.6 1.2 1.7-.3.4-1.7-1.3-2.2-2.1-1.4-2.1.2 0 1 .8 1.7 1.7zm18.4 15.7c.7-.3 1.5-.1 1.9.4.3.5-.5.8-1.6.7-1.2-.1-2.3-.7-2.4-1.4-.1-.6 0-.7.2-.2.3.6 1.1.8 1.9.5zm246.9.5c-.8.8-4.3.8-3.8 0 .2-.4 1.3-.7 2.4-.6 1 .1 1.7.3 1.4.6zM86 361c0 .5-.2 1-.4 1-.3 0-.8-.5-1.1-1-.3-.6-.1-1 .4-1 .6 0 1.1.4 1.1 1zm2.5-.1c.3.5.2 1.2-.3 1.5-.5.3-.9-.1-.9-.9 0-1.7.3-1.9 1.2-.6zm226.9.3c-.2.3-1.3.6-2.4.5-2.4-.2-1.8-1.3.9-1.3 1.1 0 1.8.4 1.5.8zM288 377c1.3.9 1.3 1 0 1-.8 0-2.2-.5-3-1-1.3-.9-1.3-1 0-1 .8 0 2.2.5 3 1zm-173.3.6c-.3.3-1.2.4-1.9.1-.8-.3-.5-.6.6-.6 1.1-.1 1.7.2 1.3.5z"/><path d="M322 138.9c0 .5.7 1.5 1.7 2.2 1.5 1.3 1.5 1.2.4-.9-1.2-2.3-2.1-2.8-2.1-1.3zM306.3 156.7c-1.5.5-1.7 2.3-.4 2.3.5 0 1.1-.7 1.5-1.5.3-.8.4-1.5.3-1.4-.1 0-.8.3-1.4.6zM85.5 37c-.3.5-.2 1 .4 1 .5 0 1.3-.5 1.6-1 .3-.6.2-1-.4-1-.5 0-1.3.4-1.6 1z"/></svg>