<?xml version="1.0" standalone="yes"?>
<svg xmlns="http://www.w3.org/2000/svg" width="225" height="225">
<path style="fill:#ffffff; stroke:none;" d="M0 0L0 99L1 99C1.99598 51.0024 52.3394 1.9837 100 1L69 0L0 0z"/>
<path style="fill:#cfe6cd; stroke:none;" d="M100.667 0.333328L101.333 0.666672L100.667 0.333328z"/>
<path style="fill:#a2d09e; stroke:none;" d="M102 0L102 1L105 1L102 0z"/>
<path style="fill:#5db354; stroke:none;" d="M105 0L105 1L108 1L105 0z"/>
<path style="fill:#2ca11c; stroke:none;" d="M108 0.424377C76.5024 4.5479 48.7835 13.9355 27.3002 39C-25.1615 100.207 4.22711 198.628 82 220.572C96.5648 224.681 112.062 225.554 127 223.714C181.798 216.963 226.021 167.753 224.946 112C223.814 53.2993 170.856 -7.80447 108 0.424377z"/>
<path style="fill:#5db354; stroke:none;" d="M117 0L117 1L120 1L117 0z"/>
<path style="fill:#a2d09e; stroke:none;" d="M120 0L120 1L123 1L120 0z"/>
<path style="fill:#cfe6cd; stroke:none;" d="M123.667 0.333328L124.333 0.666672L123.667 0.333328z"/>
<path style="fill:#ffffff; stroke:none;" d="M125 0L125 1C172.66 1.9837 223.004 51.0024 224 99L225 99L225 0L125 0z"/>
<path style="fill:#cfe6cd; stroke:none;" d="M93 1L94 2L93 1z"/>
<path style="fill:#a2d09e; stroke:none;" d="M94.6667 1.33333L95.3333 1.66667L94.6667 1.33333z"/>
<path style="fill:#5db354; stroke:none;" d="M96 1L97 2L96 1M128 1L129 2L128 1z"/>
<path style="fill:#a2d09e; stroke:none;" d="M129.667 1.33333L130.333 1.66667L129.667 1.33333z"/>
<path style="fill:#cfe6cd; stroke:none;" d="M131 1L132 2L131 1M88 2L89 3L88 2z"/>
<path style="fill:#a2d09e; stroke:none;" d="M89 2L90 3L89 2z"/>
<path style="fill:#5db354; stroke:none;" d="M90 2L91 3L90 2M134 2L135 3L134 2z"/>
<path style="fill:#a2d09e; stroke:none;" d="M135 2L136 3L135 2z"/>
<path style="fill:#cfe6cd; stroke:none;" d="M136 2L137 3L136 2z"/>
<path style="fill:#a2d09e; stroke:none;" d="M84 3L85 4L84 3z"/>
<path style="fill:#5db354; stroke:none;" d="M85 3L86 4L85 3z"/>
<path style="fill:#a2d09e; stroke:none;" d="M139 3L140 4L139 3z"/>
<path style="fill:#cfe6cd; stroke:none;" d="M140 3L141 4L140 3M80 4L81 5L80 4z"/>
<path style="fill:#a2d09e; stroke:none;" d="M81 4L82 5L81 4M143 4L144 5L143 4z"/>
<path style="fill:#cfe6cd; stroke:none;" d="M144 4L145 5L144 4M77 5L78 6L77 5z"/>
<path style="fill:#5db354; stroke:none;" d="M78 5L79 6L78 5M146 5L147 6L146 5z"/>
<path style="fill:#cfe6cd; stroke:none;" d="M147 5L148 6L147 5M74 6L75 7L74 6z"/>
<path style="fill:#5db354; stroke:none;" d="M75 6L76 7L75 6M149 6L150 7L149 6z"/>
<path style="fill:#cfe6cd; stroke:none;" d="M150 6L151 7L150 6M71 7L72 8L71 7z"/>
<path style="fill:#a2d09e; stroke:none;" d="M72 7L73 8L72 7M152 7L153 8L152 7z"/>
<path style="fill:#cfe6cd; stroke:none;" d="M153 7L154 8L153 7z"/>
<path style="fill:#a2d09e; stroke:none;" d="M69 8L70 9L69 8z"/>
<path style="fill:#5db354; stroke:none;" d="M154 8L155 9L154 8z"/>
<path style="fill:#a2d09e; stroke:none;" d="M155 8L156 9L155 8M67 9L68 10L67 9M157 9L158 10L157 9z"/>
<path style="fill:#cfe6cd; stroke:none;" d="M64 10L65 11L64 10z"/>
<path style="fill:#5db354; stroke:none;" d="M65 10L66 11L65 10M159 10L160 11L159 10z"/>
<path style="fill:#cfe6cd; stroke:none;" d="M160 10L161 11L160 10M62 11L63 12L62 11z"/>
<path style="fill:#5db354; stroke:none;" d="M63 11L64 12L63 11M161 11L162 12L161 11z"/>
<path style="fill:#cfe6cd; stroke:none;" d="M162 11L163 12L162 11M60 12L61 13L60 12z"/>
<path style="fill:#5db354; stroke:none;" d="M61 12L62 13L61 12M163 12L164 13L163 12z"/>
<path style="fill:#cfe6cd; stroke:none;" d="M164 12L165 13L164 12z"/>
<path style="fill:#5db354; stroke:none;" d="M59 13L60 14L59 13M165 13L166 14L165 13z"/>
<path style="fill:#a2d09e; stroke:none;" d="M57 14L58 15L57 14M167 14L168 15L167 14M55 15L56 16L55 15M169 15L170 16L169 15z"/>
<path style="fill:#cfe6cd; stroke:none;" d="M53 16L54 17L53 16M171 16L172 17L171 16z"/>
<path style="fill:#a2d09e; stroke:none;" d="M52 17L53 18L52 17M172 17L173 18L172 17z"/>
<path style="fill:#cfe6cd; stroke:none;" d="M50 18L51 19L50 18M174 18L175 19L174 18z"/>
<path style="fill:#5db354; stroke:none;" d="M49 19L50 20L49 19z"/>
<path style="fill:#a2d09e; stroke:none;" d="M175 19L176 20L175 19z"/>
<path style="fill:#cfe6cd; stroke:none;" d="M47 20L48 21L47 20M177 20L178 21L177 20z"/>
<path style="fill:#a2d09e; stroke:none;" d="M46 21L47 22L46 21M178 21L179 22L178 21z"/>
<path style="fill:#5db354; stroke:none;" d="M45 22L46 23L45 22M179 22L180 23L179 22z"/>
<path style="fill:#cfe6cd; stroke:none;" d="M43 23L44 24L43 23M181 23L182 24L181 23z"/>
<path style="fill:#a2d09e; stroke:none;" d="M42 24L43 25L42 24M182 24L183 25L182 24z"/>
<path style="fill:#5db354; stroke:none;" d="M41 25L42 26L41 25M183 25L184 26L183 25z"/>
<path style="fill:#cfe6cd; stroke:none;" d="M38 27L39 28L38 27M186 27L187 28L186 27M37 28L38 29L37 28M187 28L188 29L187 28z"/>
<path style="fill:#a2d09e; stroke:none;" d="M36 29L37 30L36 29M188 29L189 30L188 29M35 30L36 31L35 30M189 30L190 31L189 30M34 31L35 32L34 31M190 31L191 32L190 31M33 32L34 33L33 32M191 32L192 33L191 32M32 33L33 34L32 33M192 33L193 34L192 33M31 34L32 35L31 34z"/>
<path style="fill:#ffffff; stroke:none;" d="M119 34L119 159C142.029 159 167.419 163.214 184.96 144.996C202.782 126.486 201.498 94.6579 181.91 77.8079C171.722 69.0436 159.125 66.2709 146 66L146 83C155.992 82.9989 164.884 80.98 174 86.4792C194.552 98.8777 193.978 126.221 174 138.867C163.685 145.395 147.646 142 136 142L136 62C136 48.6292 134.814 36.3703 119 34z"/>
<path style="fill:#cfe6cd; stroke:none;" d="M122 34L123 35L122 34z"/>
<path style="fill:#a2d09e; stroke:none;" d="M123 34L124 35L123 34M193 34L194 35L193 34M30 35L31 36L30 35z"/>
<path style="fill:#cfe6cd; stroke:none;" d="M125 35L126 36L125 35z"/>
<path style="fill:#5db354; stroke:none;" d="M126 35L127 36L126 35z"/>
<path style="fill:#a2d09e; stroke:none;" d="M194 35L195 36L194 35M29 36L30 37L29 36z"/>
<path style="fill:#cfe6cd; stroke:none;" d="M127 36L128 37L127 36z"/>
<path style="fill:#5db354; stroke:none;" d="M128 36L129 37L128 36z"/>
<path style="fill:#a2d09e; stroke:none;" d="M195 36L196 37L195 36z"/>
<path style="fill:#cfe6cd; stroke:none;" d="M28 37L29 38L28 37z"/>
<path style="fill:#a2d09e; stroke:none;" d="M129 37L130 38L129 37z"/>
<path style="fill:#cfe6cd; stroke:none;" d="M196 37L197 38L196 37M27 38L28 39L27 38z"/>
<path style="fill:#a2d09e; stroke:none;" d="M130 38L131 39L130 38z"/>
<path style="fill:#cfe6cd; stroke:none;" d="M197 38L198 39L197 38z"/>
<path style="fill:#a2d09e; stroke:none;" d="M131 39L132 40L131 39M132 40L133 41L132 40z"/>
<path style="fill:#5db354; stroke:none;" d="M25 41L26 42L25 41M133 41L134 42L133 41M199 41L200 42L199 41z"/>
<path style="fill:#a2d09e; stroke:none;" d="M24 42L25 43L24 42z"/>
<path style="fill:#cfe6cd; stroke:none;" d="M133 42L134 43L133 42z"/>
<path style="fill:#a2d09e; stroke:none;" d="M200 42L201 43L200 42z"/>
<path style="fill:#cfe6cd; stroke:none;" d="M23 43L24 44L23 43z"/>
<path style="fill:#a2d09e; stroke:none;" d="M134 43L135 44L134 43z"/>
<path style="fill:#cfe6cd; stroke:none;" d="M201 43L202 44L201 43z"/>
<path style="fill:#5db354; stroke:none;" d="M22 45L23 46L22 45M135 45L136 46L135 45M202 45L203 46L202 45z"/>
<path style="fill:#a2d09e; stroke:none;" d="M21 46L22 47L21 46M135 46L136 47L135 46M203 46L204 47L203 46z"/>
<path style="fill:#cfe6cd; stroke:none;" d="M20 47L21 48L20 47M135 47L136 48L135 47M204 47L205 48L204 47z"/>
<path style="fill:#5db354; stroke:none;" d="M19 49L20 50L19 49M205 49L206 50L205 49z"/>
<path style="fill:#cfe6cd; stroke:none;" d="M18 50L19 51L18 50z"/>
<path style="fill:#5db354; stroke:none;" d="M136 50L136 141L137 141L137 78L136 50z"/>
<path style="fill:#cfe6cd; stroke:none;" d="M206 50L207 51L206 50z"/>
<path style="fill:#a2d09e; stroke:none;" d="M17 52L18 53L17 52M207 52L208 53L207 52z"/>
<path style="fill:#cfe6cd; stroke:none;" d="M16 53L17 54L16 53M208 53L209 54L208 53z"/>
<path style="fill:#a2d09e; stroke:none;" d="M15 55L16 56L15 55M209 55L210 56L209 55M14 57L15 58L14 57M210 57L211 58L210 57z"/>
<path style="fill:#5db354; stroke:none;" d="M13 59L14 60L13 59M211 59L212 60L211 59z"/>
<path style="fill:#cfe6cd; stroke:none;" d="M12 60L13 61L12 60M212 60L213 61L212 60z"/>
<path style="fill:#5db354; stroke:none;" d="M12 61L13 62L12 61M212 61L213 62L212 61z"/>
<path style="fill:#cfe6cd; stroke:none;" d="M11 62L12 63L11 62M213 62L214 63L213 62z"/>
<path style="fill:#5db354; stroke:none;" d="M11 63L12 64L11 63M213 63L214 64L213 63z"/>
<path style="fill:#cfe6cd; stroke:none;" d="M10 64L11 65L10 64M214 64L215 65L214 64z"/>
<path style="fill:#5db354; stroke:none;" d="M10 65L11 66L10 65M69 65L69 66L106 66C96.2022 61.8887 79.6488 65 69 65M145 65L145 66L152 66L145 65M214 65L215 66L214 65M63 66L64 67L63 66z"/>
<path style="fill:#a2d09e; stroke:none;" d="M64 66L65 67L64 66z"/>
<path style="fill:#cfe6cd; stroke:none;" d="M65.6667 66.3333L66.3333 66.6667L65.6667 66.3333z"/>
<path style="fill:#ffffff; stroke:none;" d="M79 159L79 142C68.9917 142.083 60.2797 144.412 51 139.045C31.2236 127.606 30.7606 100.656 49 87.6381C59.7885 79.9381 76.4468 83 89 83L89 165C89 177.489 91.0466 189.685 106 191L106 66C82.5742 66 56.7034 62.0555 39.0934 81.0039C22.3436 99.0266 23.8182 130.074 42.0895 146.56C52.3154 155.787 65.5946 158.723 79 159z"/>
<path style="fill:#a2d09e; stroke:none;" d="M145 66L145 84L146 84L145 66z"/>
<path style="fill:#cfe6cd; stroke:none;" d="M152 66L152 67L156 67L152 66z"/>
<path style="fill:#a2d09e; stroke:none;" d="M156.667 66.3333L157.333 66.6667L156.667 66.3333z"/>
<path style="fill:#5db354; stroke:none;" d="M158 66L159 67L158 66z"/>
<path style="fill:#a2d09e; stroke:none;" d="M9 67L10 68L9 67z"/>
<path style="fill:#5db354; stroke:none;" d="M59 67L60 68L59 67z"/>
<path style="fill:#a2d09e; stroke:none;" d="M60 67L61 68L60 67z"/>
<path style="fill:#cfe6cd; stroke:none;" d="M61 67L62 68L61 67M161 67L162 68L161 67z"/>
<path style="fill:#a2d09e; stroke:none;" d="M162 67L163 68L162 67z"/>
<path style="fill:#5db354; stroke:none;" d="M163 67L164 68L163 67z"/>
<path style="fill:#a2d09e; stroke:none;" d="M215 67L216 68L215 67z"/>
<path style="fill:#5db354; stroke:none;" d="M56 68L57 69L56 68z"/>
<path style="fill:#a2d09e; stroke:none;" d="M57 68L58 69L57 68M165 68L166 69L165 68z"/>
<path style="fill:#5db354; stroke:none;" d="M166 68L167 69L166 68z"/>
<path style="fill:#a2d09e; stroke:none;" d="M8 69L9 70L8 69M54 69L55 70L54 69z"/>
<path style="fill:#cfe6cd; stroke:none;" d="M55 69L56 70L55 69z"/>
<path style="fill:#a2d09e; stroke:none;" d="M168 69L169 70L168 69M216 69L217 70L216 69z"/>
<path style="fill:#5db354; stroke:none;" d="M8 70L9 71L8 70z"/>
<path style="fill:#a2d09e; stroke:none;" d="M52 70L53 71L52 70z"/>
<path style="fill:#cfe6cd; stroke:none;" d="M170 70L171 71L170 70z"/>
<path style="fill:#5db354; stroke:none;" d="M171 70L172 71L171 70M216 70L217 71L216 70z"/>
<path style="fill:#cfe6cd; stroke:none;" d="M7 71L8 72L7 71z"/>
<path style="fill:#5db354; stroke:none;" d="M50 71L51 72L50 71z"/>
<path style="fill:#cfe6cd; stroke:none;" d="M51 71L52 72L51 71M172 71L173 72L172 71z"/>
<path style="fill:#5db354; stroke:none;" d="M173 71L174 72L173 71z"/>
<path style="fill:#cfe6cd; stroke:none;" d="M217 71L218 72L217 71z"/>
<path style="fill:#a2d09e; stroke:none;" d="M7 72L8 73L7 72z"/>
<path style="fill:#cfe6cd; stroke:none;" d="M49 72L50 73L49 72M174 72L175 73L174 72z"/>
<path style="fill:#a2d09e; stroke:none;" d="M217 72L218 73L217 72M47 73L48 74L47 73M176 73L177 74L176 73z"/>
<path style="fill:#cfe6cd; stroke:none;" d="M6 74L7 75L6 74M46 74L47 75L46 74M177 74L178 75L177 74M218 74L219 75L218 74z"/>
<path style="fill:#5db354; stroke:none;" d="M6 75L7 76L6 75M44 75L45 76L44 75M179 75L180 76L179 75M218 75L219 76L218 75z"/>
<path style="fill:#a2d09e; stroke:none;" d="M43 76L44 77L43 76M180 76L181 77L180 76z"/>
<path style="fill:#cfe6cd; stroke:none;" d="M5 77L6 78L5 77z"/>
<path style="fill:#a2d09e; stroke:none;" d="M42 77L43 78L42 77z"/>
<path style="fill:#cfe6cd; stroke:none;" d="M181 77L182 78L181 77M219 77L220 78L219 77z"/>
<path style="fill:#5db354; stroke:none;" d="M5 78L6 79L5 78z"/>
<path style="fill:#a2d09e; stroke:none;" d="M41 78L42 79L41 78z"/>
<path style="fill:#cfe6cd; stroke:none;" d="M182 78L183 79L182 78z"/>
<path style="fill:#5db354; stroke:none;" d="M219 78L220 79L219 78z"/>
<path style="fill:#cfe6cd; stroke:none;" d="M40 79L41 80L40 79M4 80L5 81L4 80z"/>
<path style="fill:#a2d09e; stroke:none;" d="M39 80L40 81L39 80z"/>
<path style="fill:#cfe6cd; stroke:none;" d="M220 80L221 81L220 80z"/>
<path style="fill:#a2d09e; stroke:none;" d="M4 81L5 82L4 81M38 81L39 82L38 81z"/>
<path style="fill:#cfe6cd; stroke:none;" d="M185 81L186 82L185 81z"/>
<path style="fill:#a2d09e; stroke:none;" d="M220 81L221 82L220 81z"/>
<path style="fill:#5db354; stroke:none;" d="M37 82L38 83L37 82z"/>
<path style="fill:#cfe6cd; stroke:none;" d="M156 82L156 83L159 83L156 82z"/>
<path style="fill:#a2d09e; stroke:none;" d="M159.667 82.3333L160.333 82.6667L159.667 82.3333z"/>
<path style="fill:#cfe6cd; stroke:none;" d="M161 82L161 83L164 83L161 82M186 82L187 83L186 82z"/>
<path style="fill:#5db354; stroke:none;" d="M36 83L37 84L36 83z"/>
<path style="fill:#a2d09e; stroke:none;" d="M57 83L57 84L62 84L57 83z"/>
<path style="fill:#5db354; stroke:none;" d="M62 83L63 84L62 83M70.6667 83.3333L71.3333 83.6667L70.6667 83.3333z"/>
<path style="fill:#a2d09e; stroke:none;" d="M72 83L72 84L88 84L72 83z"/>
<path style="fill:#cfe6cd; stroke:none;" d="M88 83L89 84L88 83M146 83L146 84L152 84L146 83z"/>
<path style="fill:#a2d09e; stroke:none;" d="M152 83L153 84L152 83z"/>
<path style="fill:#5db354; stroke:none;" d="M153 83L154 84L153 83M165 83L166 84L165 83z"/>
<path style="fill:#a2d09e; stroke:none;" d="M166 83L167 84L166 83z"/>
<path style="fill:#cfe6cd; stroke:none;" d="M167 83L168 84L167 83z"/>
<path style="fill:#a2d09e; stroke:none;" d="M187 83L188 84L187 83M3 84L4 85L3 84M54 84L55 85L54 84z"/>
<path style="fill:#5db354; stroke:none;" d="M55 84L56 85L55 84M169 84L170 85L169 84z"/>
<path style="fill:#cfe6cd; stroke:none;" d="M170 84L171 85L170 84z"/>
<path style="fill:#5db354; stroke:none;" d="M188 84L189 85L188 84z"/>
<path style="fill:#a2d09e; stroke:none;" d="M221 84L222 85L221 84z"/>
<path style="fill:#5db354; stroke:none;" d="M3 85L4 86L3 85z"/>
<path style="fill:#cfe6cd; stroke:none;" d="M35 85L36 86L35 85z"/>
<path style="fill:#a2d09e; stroke:none;" d="M52 85L53 86L52 85z"/>
<path style="fill:#5db354; stroke:none;" d="M88 85L88 175L89 175L89 113L88 85z"/>
<path style="fill:#a2d09e; stroke:none;" d="M172 85L173 86L172 85z"/>
<path style="fill:#5db354; stroke:none;" d="M221 85L222 86L221 85M34 86L35 87L34 86z"/>
<path style="fill:#a2d09e; stroke:none;" d="M50 86L51 87L50 86M174 86L175 87L174 86z"/>
<path style="fill:#cfe6cd; stroke:none;" d="M189 86L190 87L189 86M48 87L49 88L48 87z"/>
<path style="fill:#5db354; stroke:none;" d="M175 87L176 88L175 87z"/>
<path style="fill:#a2d09e; stroke:none;" d="M190 87L191 88L190 87z"/>
<path style="fill:#cfe6cd; stroke:none;" d="M2 88L3 89L2 88z"/>
<path style="fill:#a2d09e; stroke:none;" d="M33 88L34 89L33 88M47 88L48 89L47 88M177 88L178 89L177 88z"/>
<path style="fill:#cfe6cd; stroke:none;" d="M222 88L223 89L222 88z"/>
<path style="fill:#a2d09e; stroke:none;" d="M2 89L3 90L2 89z"/>
<path style="fill:#5db354; stroke:none;" d="M46 89L47 90L46 89M178 89L179 90L178 89z"/>
<path style="fill:#cfe6cd; stroke:none;" d="M191 89L192 90L191 89z"/>
<path style="fill:#a2d09e; stroke:none;" d="M222 89L223 90L222 89z"/>
<path style="fill:#5db354; stroke:none;" d="M2 90L3 91L2 90z"/>
<path style="fill:#cfe6cd; stroke:none;" d="M32 90L33 91L32 90z"/>
<path style="fill:#5db354; stroke:none;" d="M45 90L46 91L45 90M179 90L180 91L179 90M192 90L193 91L192 90M222 90L223 91L222 90M31 91L32 92L31 91M44 91L45 92L44 91M180 91L181 92L180 91z"/>
<path style="fill:#cfe6cd; stroke:none;" d="M192 91L193 92L192 91M1.33333 92.6667L1.66667 93.3333L1.33333 92.6667M31 92L32 93L31 92z"/>
<path style="fill:#5db354; stroke:none;" d="M43 92L44 93L43 92M181 92L182 93L181 92M193 92L194 93L193 92z"/>
<path style="fill:#cfe6cd; stroke:none;" d="M223.333 92.6667L223.667 93.3333L223.333 92.6667z"/>
<path style="fill:#a2d09e; stroke:none;" d="M42 93L43 94L42 93z"/>
<path style="fill:#5db354; stroke:none;" d="M182 93L183 94L182 93z"/>
<path style="fill:#cfe6cd; stroke:none;" d="M193 93L194 94L193 93z"/>
<path style="fill:#a2d09e; stroke:none;" d="M1 94L2 95L1 94M30 94L31 95L30 94M41 94L42 95L41 94M183 94L184 95L183 94M223 94L224 95L223 94z"/>
<path style="fill:#5db354; stroke:none;" d="M1.33333 95.6667L1.66667 96.3333L1.33333 95.6667z"/>
<path style="fill:#cfe6cd; stroke:none;" d="M184 95L185 96L184 95z"/>
<path style="fill:#a2d09e; stroke:none;" d="M194 95L195 96L194 95z"/>
<path style="fill:#5db354; stroke:none;" d="M223.333 95.6667L223.667 96.3333L223.333 95.6667M29 96L30 97L29 96M40 96L41 97L40 96M184 96L185 97L184 96z"/>
<path style="fill:#cfe6cd; stroke:none;" d="M29 97L30 98L29 97M39 97L40 98L39 97z"/>
<path style="fill:#a2d09e; stroke:none;" d="M185 97L186 98L185 97z"/>
<path style="fill:#5db354; stroke:none;" d="M195 97L196 98L195 97z"/>
<path style="fill:#cfe6cd; stroke:none;" d="M195 98L196 99L195 98M0 99L0 102L1 102L0 99z"/>
<path style="fill:#5db354; stroke:none;" d="M28 99L29 100L28 99z"/>
<path style="fill:#a2d09e; stroke:none;" d="M38 99L39 100L38 99M186 99L187 100L186 99z"/>
<path style="fill:#cfe6cd; stroke:none;" d="M224 99L224 102L225 102L224 99z"/>
<path style="fill:#a2d09e; stroke:none;" d="M28 100L29 101L28 100z"/>
<path style="fill:#5db354; stroke:none;" d="M196 100L197 101L196 100z"/>
<path style="fill:#cfe6cd; stroke:none;" d="M28 101L29 102L28 101M37 101L38 102L37 101M187 101L188 102L187 101z"/>
<path style="fill:#a2d09e; stroke:none;" d="M196 101L197 102L196 101M0 102L0 105L1 105L0 102z"/>
<path style="fill:#5db354; stroke:none;" d="M37 102L38 103L37 102z"/>
<path style="fill:#a2d09e; stroke:none;" d="M187 102L188 103L187 102z"/>
<path style="fill:#cfe6cd; stroke:none;" d="M196 102L197 103L196 102z"/>
<path style="fill:#a2d09e; stroke:none;" d="M224 102L224 105L225 105L224 102z"/>
<path style="fill:#5db354; stroke:none;" d="M27 103L28 104L27 103z"/>
<path style="fill:#a2d09e; stroke:none;" d="M27.3333 104.667L27.6667 105.333L27.3333 104.667z"/>
<path style="fill:#cfe6cd; stroke:none;" d="M36 104L37 105L36 104M188 104L189 105L188 104z"/>
<path style="fill:#5db354; stroke:none;" d="M197.333 104.667L197.667 105.333L197.333 104.667M0 105L0 108L1 108L0 105z"/>
<path style="fill:#a2d09e; stroke:none;" d="M36 105L37 106L36 105M188 105L189 106L188 105z"/>
<path style="fill:#5db354; stroke:none;" d="M224 105L224 108L225 108L224 105z"/>
<path style="fill:#cfe6cd; stroke:none;" d="M27.3333 106.667L27.6667 107.333L27.3333 106.667z"/>
<path style="fill:#5db354; stroke:none;" d="M188 106L189 107L188 106z"/>
<path style="fill:#a2d09e; stroke:none;" d="M197.333 106.667L197.667 107.333L197.333 106.667z"/>
<path style="fill:#cfe6cd; stroke:none;" d="M35 108L35 111L36 111L35 108M197.333 108.667L197.667 109.333L197.333 108.667M189 109L189 112L190 112L189 109z"/>
<path style="fill:#a2d09e; stroke:none;" d="M35 111L35 114L36 114L35 111M189 112L190 113L189 112z"/>
<path style="fill:#cfe6cd; stroke:none;" d="M189 113L189 117L190 117L189 113M35 114L35 117L36 117L35 114M27 115L27 118L28 118L27 115M197 116L197 119L198 119L197 116z"/>
<path style="fill:#5db354; stroke:none;" d="M0 117L0 120L1 120L0 117M224 117L224 120L225 120L224 117z"/>
<path style="fill:#a2d09e; stroke:none;" d="M27.3333 118.667L27.6667 119.333L27.3333 118.667M36 119L37 120L36 119M188 119L189 120L188 119M197 119L198 120L197 119M0 120L0 123L1 123L0 120z"/>
<path style="fill:#5db354; stroke:none;" d="M27 120L28 121L27 120z"/>
<path style="fill:#cfe6cd; stroke:none;" d="M36 120L37 121L36 120M188 120L189 121L188 120z"/>
<path style="fill:#5db354; stroke:none;" d="M197.333 120.667L197.667 121.333L197.333 120.667z"/>
<path style="fill:#a2d09e; stroke:none;" d="M224 120L224 123L225 123L224 120z"/>
<path style="fill:#cfe6cd; stroke:none;" d="M28 122L29 123L28 122z"/>
<path style="fill:#5db354; stroke:none;" d="M37 122L38 123L37 122M187 122L188 123L187 122z"/>
<path style="fill:#cfe6cd; stroke:none;" d="M0 123L0 126L1 126L0 123z"/>
<path style="fill:#a2d09e; stroke:none;" d="M28 123L29 124L28 123M37 123L38 124L37 123z"/>
<path style="fill:#cfe6cd; stroke:none;" d="M187 123L188 124L187 123M196 123L197 124L196 123M224 123L224 126L225 126L224 123z"/>
<path style="fill:#5db354; stroke:none;" d="M28 124L29 125L28 124z"/>
<path style="fill:#a2d09e; stroke:none;" d="M196 124L197 125L196 124M38 125L39 126L38 125M186 125L187 126L186 125z"/>
<path style="fill:#5db354; stroke:none;" d="M196 125L197 126L196 125z"/>
<path style="fill:#ffffff; stroke:none;" d="M0 126L0 225L100 225L100 224C62.7605 223.231 27.3686 193.997 11.3704 162C5.59556 150.45 4.94228 137.457 0 126z"/>
<path style="fill:#cfe6cd; stroke:none;" d="M29 126L30 127L29 126z"/>
<path style="fill:#ffffff; stroke:none;" d="M224 126C223.004 173.998 172.661 223.016 125 224L125 225L225 225L225 156L224 126z"/>
<path style="fill:#a2d09e; stroke:none;" d="M29 127L30 128L29 127M39 127L40 128L39 127M185 127L186 128L185 127z"/>
<path style="fill:#cfe6cd; stroke:none;" d="M195 127L196 128L195 127z"/>
<path style="fill:#5db354; stroke:none;" d="M1.33333 128.667L1.66667 129.333L1.33333 128.667M195 128L196 129L195 128M223.333 128.667L223.667 129.333L223.333 128.667z"/>
<path style="fill:#cfe6cd; stroke:none;" d="M30 129L31 130L30 129M40 129L41 130L40 129M184 129L185 130L184 129z"/>
<path style="fill:#a2d09e; stroke:none;" d="M1 130L2 131L1 130z"/>
<path style="fill:#5db354; stroke:none;" d="M30 130L31 131L30 130M41 130L42 131L41 130z"/>
<path style="fill:#a2d09e; stroke:none;" d="M183 130L184 131L183 130M194 130L195 131L194 130M223 130L224 131L223 130z"/>
<path style="fill:#cfe6cd; stroke:none;" d="M1.33333 131.667L1.66667 132.333L1.33333 131.667M31 131L32 132L31 131z"/>
<path style="fill:#5db354; stroke:none;" d="M182 131L183 132L182 131z"/>
<path style="fill:#cfe6cd; stroke:none;" d="M223.333 131.667L223.667 132.333L223.333 131.667z"/>
<path style="fill:#5db354; stroke:none;" d="M31 132L32 133L31 132z"/>
<path style="fill:#cfe6cd; stroke:none;" d="M193 132L194 133L193 132M43 133L44 134L43 133z"/>
<path style="fill:#5db354; stroke:none;" d="M193 133L194 134L193 133M2 134L3 135L2 134M32 134L33 135L32 134z"/>
<path style="fill:#cfe6cd; stroke:none;" d="M44 134L45 135L44 134M192 134L193 135L192 134z"/>
<path style="fill:#5db354; stroke:none;" d="M222 134L223 135L222 134z"/>
<path style="fill:#a2d09e; stroke:none;" d="M2 135L3 136L2 135z"/>
<path style="fill:#cfe6cd; stroke:none;" d="M33 135L34 136L33 135M45 135L46 136L45 135z"/>
<path style="fill:#a2d09e; stroke:none;" d="M222 135L223 136L222 135z"/>
<path style="fill:#cfe6cd; stroke:none;" d="M2 136L3 137L2 136z"/>
<path style="fill:#5db354; stroke:none;" d="M33 136L34 137L33 136M47 136L48 137L47 136M177 136L178 137L177 136z"/>
<path style="fill:#a2d09e; stroke:none;" d="M191 136L192 137L191 136z"/>
<path style="fill:#cfe6cd; stroke:none;" d="M222 136L223 137L222 136z"/>
<path style="fill:#a2d09e; stroke:none;" d="M34 137L35 138L34 137M48 137L49 138L48 137M176 137L177 138L176 137z"/>
<path style="fill:#cfe6cd; stroke:none;" d="M49 138L50 139L49 138z"/>
<path style="fill:#5db354; stroke:none;" d="M50 138L51 139L50 138M174 138L175 139L174 138M190 138L191 139L190 138M3 139L4 140L3 139M35 139L36 140L35 139z"/>
<path style="fill:#cfe6cd; stroke:none;" d="M51 139L52 140L51 139z"/>
<path style="fill:#5db354; stroke:none;" d="M172 139L173 140L172 139z"/>
<path style="fill:#cfe6cd; stroke:none;" d="M173 139L174 140L173 139M189 139L190 140L189 139z"/>
<path style="fill:#5db354; stroke:none;" d="M221 139L222 140L221 139z"/>
<path style="fill:#a2d09e; stroke:none;" d="M3 140L4 141L3 140M36 140L37 141L36 140z"/>
<path style="fill:#cfe6cd; stroke:none;" d="M53 140L54 141L53 140z"/>
<path style="fill:#5db354; stroke:none;" d="M54 140L55 141L54 140z"/>
<path style="fill:#a2d09e; stroke:none;" d="M170 140L171 141L170 140z"/>
<path style="fill:#cfe6cd; stroke:none;" d="M171 140L172 141L171 140z"/>
<path style="fill:#a2d09e; stroke:none;" d="M221 140L222 141L221 140z"/>
<path style="fill:#cfe6cd; stroke:none;" d="M37 141L38 142L37 141z"/>
<path style="fill:#a2d09e; stroke:none;" d="M56 141L57 142L56 141z"/>
<path style="fill:#5db354; stroke:none;" d="M57 141L58 142L57 141M73 141L73 142L79 142L73 141z"/>
<path style="fill:#a2d09e; stroke:none;" d="M136 141L136 142L152 142L136 141z"/>
<path style="fill:#5db354; stroke:none;" d="M152 141L153 142L152 141M163 141L164 142L163 141z"/>
<path style="fill:#a2d09e; stroke:none;" d="M164 141L164 142L168 142L164 141z"/>
<path style="fill:#cfe6cd; stroke:none;" d="M168 141L169 142L168 141z"/>
<path style="fill:#5db354; stroke:none;" d="M188 141L189 142L188 141z"/>
<path style="fill:#cfe6cd; stroke:none;" d="M38 142L39 143L38 142M59 142L60 143L59 142z"/>
<path style="fill:#a2d09e; stroke:none;" d="M60.6667 142.333L61.3333 142.667L60.6667 142.333z"/>
<path style="fill:#5db354; stroke:none;" d="M62 142L62 143L68 143L62 142z"/>
<path style="fill:#a2d09e; stroke:none;" d="M68.6667 142.333L69.3333 142.667L68.6667 142.333z"/>
<path style="fill:#cfe6cd; stroke:none;" d="M70.6667 142.333L71.3333 142.667L70.6667 142.333M79 142L79 158L80 158L79 142M156 142L156 143L161 143L156 142z"/>
<path style="fill:#a2d09e; stroke:none;" d="M187 142L188 143L187 142M4 143L5 144L4 143M186 143L187 144L186 143M220 143L221 144L220 143z"/>
<path style="fill:#cfe6cd; stroke:none;" d="M4 144L5 145L4 144M185 144L186 145L185 144M220 144L221 145L220 144M184 145L185 146L184 145z"/>
<path style="fill:#5db354; stroke:none;" d="M5 146L6 147L5 146z"/>
<path style="fill:#cfe6cd; stroke:none;" d="M183 146L184 147L183 146z"/>
<path style="fill:#5db354; stroke:none;" d="M219 146L220 147L219 146z"/>
<path style="fill:#cfe6cd; stroke:none;" d="M5 147L6 148L5 147M43 147L44 148L43 147M182 147L183 148L182 147M219 147L220 148L219 147M44 148L45 149L44 148z"/>
<path style="fill:#a2d09e; stroke:none;" d="M181 148L182 149L181 148z"/>
<path style="fill:#5db354; stroke:none;" d="M6 149L7 150L6 149z"/>
<path style="fill:#a2d09e; stroke:none;" d="M45 149L46 150L45 149M180 149L181 150L180 149z"/>
<path style="fill:#5db354; stroke:none;" d="M218 149L219 150L218 149z"/>
<path style="fill:#cfe6cd; stroke:none;" d="M6 150L7 151L6 150z"/>
<path style="fill:#5db354; stroke:none;" d="M46 150L47 151L46 150M179 150L180 151L179 150z"/>
<path style="fill:#cfe6cd; stroke:none;" d="M218 150L219 151L218 150z"/>
<path style="fill:#a2d09e; stroke:none;" d="M48 151L49 152L48 151z"/>
<path style="fill:#cfe6cd; stroke:none;" d="M177 151L178 152L177 151z"/>
<path style="fill:#a2d09e; stroke:none;" d="M7 152L8 153L7 152z"/>
<path style="fill:#5db354; stroke:none;" d="M49 152L50 153L49 152z"/>
<path style="fill:#cfe6cd; stroke:none;" d="M50 152L51 153L50 152z"/>
<path style="fill:#5db354; stroke:none;" d="M176 152L177 153L176 152z"/>
<path style="fill:#a2d09e; stroke:none;" d="M217 152L218 153L217 152z"/>
<path style="fill:#cfe6cd; stroke:none;" d="M7 153L8 154L7 153z"/>
<path style="fill:#5db354; stroke:none;" d="M51 153L52 154L51 153z"/>
<path style="fill:#cfe6cd; stroke:none;" d="M52 153L53 154L52 153z"/>
<path style="fill:#a2d09e; stroke:none;" d="M174 153L175 154L174 153z"/>
<path style="fill:#cfe6cd; stroke:none;" d="M217 153L218 154L217 153z"/>
<path style="fill:#5db354; stroke:none;" d="M8 154L9 155L8 154M53 154L54 155L53 154z"/>
<path style="fill:#cfe6cd; stroke:none;" d="M54 154L55 155L54 154z"/>
<path style="fill:#a2d09e; stroke:none;" d="M172 154L173 155L172 154z"/>
<path style="fill:#5db354; stroke:none;" d="M216 154L217 155L216 154z"/>
<path style="fill:#a2d09e; stroke:none;" d="M8 155L9 156L8 155z"/>
<path style="fill:#5db354; stroke:none;" d="M55 155L56 156L55 155z"/>
<path style="fill:#cfe6cd; stroke:none;" d="M56 155L57 156L56 155z"/>
<path style="fill:#a2d09e; stroke:none;" d="M170 155L171 156L170 155M216 155L217 156L216 155z"/>
<path style="fill:#5db354; stroke:none;" d="M58 156L59 157L58 156z"/>
<path style="fill:#cfe6cd; stroke:none;" d="M59 156L60 157L59 156M167 156L168 157L167 156z"/>
<path style="fill:#a2d09e; stroke:none;" d="M168 156L169 157L168 156M9 157L10 158L9 157z"/>
<path style="fill:#5db354; stroke:none;" d="M61 157L62 158L61 157z"/>
<path style="fill:#a2d09e; stroke:none;" d="M62 157L63 158L62 157z"/>
<path style="fill:#cfe6cd; stroke:none;" d="M63 157L64 158L63 157M164 157L165 158L164 157z"/>
<path style="fill:#a2d09e; stroke:none;" d="M165 157L166 158L165 157M215 157L216 158L215 157z"/>
<path style="fill:#5db354; stroke:none;" d="M66 158L67 159L66 158z"/>
<path style="fill:#a2d09e; stroke:none;" d="M67.6667 158.333L68.3333 158.667L67.6667 158.333z"/>
<path style="fill:#cfe6cd; stroke:none;" d="M69 158L69 159L73 159L69 158z"/>
<path style="fill:#a2d09e; stroke:none;" d="M79 158L80 159L79 158z"/>
<path style="fill:#cfe6cd; stroke:none;" d="M160 158L161 159L160 158z"/>
<path style="fill:#a2d09e; stroke:none;" d="M161 158L162 159L161 158z"/>
<path style="fill:#5db354; stroke:none;" d="M162 158L163 159L162 158M10 159L11 160L10 159z"/>
<path style="fill:#cfe6cd; stroke:none;" d="M119 159L119 160L155 160C145.44 155.989 129.387 159 119 159z"/>
<path style="fill:#a2d09e; stroke:none;" d="M155.667 159.333L156.333 159.667L155.667 159.333z"/>
<path style="fill:#5db354; stroke:none;" d="M157 159L158 160L157 159M214 159L215 160L214 159z"/>
<path style="fill:#cfe6cd; stroke:none;" d="M10 160L11 161L10 160M214 160L215 161L214 160z"/>
<path style="fill:#5db354; stroke:none;" d="M11 161L12 162L11 161M213 161L214 162L213 161z"/>
<path style="fill:#cfe6cd; stroke:none;" d="M11 162L12 163L11 162M213 162L214 163L213 162z"/>
<path style="fill:#5db354; stroke:none;" d="M12 163L13 164L12 163M212 163L213 164L212 163z"/>
<path style="fill:#cfe6cd; stroke:none;" d="M12 164L13 165L12 164M212 164L213 165L212 164z"/>
<path style="fill:#5db354; stroke:none;" d="M13 165L14 166L13 165M211 165L212 166L211 165z"/>
<path style="fill:#a2d09e; stroke:none;" d="M14 167L15 168L14 167M210 167L211 168L210 167M15 169L16 170L15 169M209 169L210 170L209 169z"/>
<path style="fill:#cfe6cd; stroke:none;" d="M16 171L17 172L16 171M208 171L209 172L208 171z"/>
<path style="fill:#a2d09e; stroke:none;" d="M17 172L18 173L17 172M207 172L208 173L207 172z"/>
<path style="fill:#cfe6cd; stroke:none;" d="M18 174L19 175L18 174M206 174L207 175L206 174z"/>
<path style="fill:#5db354; stroke:none;" d="M19 175L20 176L19 175M205 175L206 176L205 175z"/>
<path style="fill:#cfe6cd; stroke:none;" d="M20 177L21 178L20 177M89 177L90 178L89 177M204 177L205 178L204 177z"/>
<path style="fill:#a2d09e; stroke:none;" d="M21 178L22 179L21 178M89 178L90 179L89 178M203 178L204 179L203 178z"/>
<path style="fill:#5db354; stroke:none;" d="M22 179L23 180L22 179M89 179L90 180L89 179M202 179L203 180L202 179z"/>
<path style="fill:#cfe6cd; stroke:none;" d="M23 181L24 182L23 181z"/>
<path style="fill:#a2d09e; stroke:none;" d="M90 181L91 182L90 181z"/>
<path style="fill:#cfe6cd; stroke:none;" d="M201 181L202 182L201 181z"/>
<path style="fill:#a2d09e; stroke:none;" d="M24 182L25 183L24 182M200 182L201 183L200 182z"/>
<path style="fill:#5db354; stroke:none;" d="M25 183L26 184L25 183M91 183L92 184L91 183M199 183L200 184L199 183z"/>
<path style="fill:#cfe6cd; stroke:none;" d="M92 184L93 185L92 184M93 185L94 186L93 185M27 186L28 187L27 186M94 186L95 187L94 186M197 186L198 187L197 186M28 187L29 188L28 187M95 187L96 188L95 187M196 187L197 188L196 187z"/>
<path style="fill:#a2d09e; stroke:none;" d="M29 188L30 189L29 188z"/>
<path style="fill:#5db354; stroke:none;" d="M96 188L97 189L96 188z"/>
<path style="fill:#a2d09e; stroke:none;" d="M195 188L196 189L195 188M30 189L31 190L30 189M98 189L99 190L98 189M194 189L195 190L194 189M31 190L32 191L31 190z"/>
<path style="fill:#5db354; stroke:none;" d="M100 190L101 191L100 190z"/>
<path style="fill:#cfe6cd; stroke:none;" d="M101 190L102 191L101 190z"/>
<path style="fill:#a2d09e; stroke:none;" d="M193 190L194 191L193 190M32 191L33 192L32 191z"/>
<path style="fill:#5db354; stroke:none;" d="M104.667 191.333L105.333 191.667L104.667 191.333z"/>
<path style="fill:#a2d09e; stroke:none;" d="M192 191L193 192L192 191M33 192L34 193L33 192M191 192L192 193L191 192M34 193L35 194L34 193M190 193L191 194L190 193M35 194L36 195L35 194M189 194L190 195L189 194M36 195L37 196L36 195z"/>
<path style="fill:#cfe6cd; stroke:none;" d="M188 195L189 196L188 195M37 196L38 197L37 196M187 196L188 197L187 196M38 197L39 198L38 197M186 197L187 198L186 197z"/>
<path style="fill:#5db354; stroke:none;" d="M41 199L42 200L41 199M183 199L184 200L183 199z"/>
<path style="fill:#a2d09e; stroke:none;" d="M42 200L43 201L42 200M182 200L183 201L182 200z"/>
<path style="fill:#cfe6cd; stroke:none;" d="M43 201L44 202L43 201M181 201L182 202L181 201z"/>
<path style="fill:#5db354; stroke:none;" d="M179 202L180 203L179 202z"/>
<path style="fill:#a2d09e; stroke:none;" d="M46 203L47 204L46 203M178 203L179 204L178 203z"/>
<path style="fill:#cfe6cd; stroke:none;" d="M47 204L48 205L47 204M177 204L178 205L177 204z"/>
<path style="fill:#5db354; stroke:none;" d="M49 205L50 206L49 205M175 205L176 206L175 205z"/>
<path style="fill:#cfe6cd; stroke:none;" d="M50 206L51 207L50 206M174 206L175 207L174 206z"/>
<path style="fill:#a2d09e; stroke:none;" d="M52 207L53 208L52 207M172 207L173 208L172 207z"/>
<path style="fill:#cfe6cd; stroke:none;" d="M53 208L54 209L53 208M171 208L172 209L171 208z"/>
<path style="fill:#a2d09e; stroke:none;" d="M55 209L56 210L55 209M169 209L170 210L169 209M57 210L58 211L57 210M167 210L168 211L167 210z"/>
<path style="fill:#5db354; stroke:none;" d="M59 211L60 212L59 211M165 211L166 212L165 211z"/>
<path style="fill:#cfe6cd; stroke:none;" d="M60 212L61 213L60 212z"/>
<path style="fill:#5db354; stroke:none;" d="M61 212L62 213L61 212M163 212L164 213L163 212z"/>
<path style="fill:#cfe6cd; stroke:none;" d="M164 212L165 213L164 212M62 213L63 214L62 213z"/>
<path style="fill:#5db354; stroke:none;" d="M63 213L64 214L63 213M161 213L162 214L161 213z"/>
<path style="fill:#cfe6cd; stroke:none;" d="M162 213L163 214L162 213M64 214L65 215L64 214z"/>
<path style="fill:#5db354; stroke:none;" d="M65 214L66 215L65 214M159 214L160 215L159 214z"/>
<path style="fill:#cfe6cd; stroke:none;" d="M160 214L161 215L160 214z"/>
<path style="fill:#a2d09e; stroke:none;" d="M67 215L68 216L67 215M157 215L158 216L157 215M69 216L70 217L69 216z"/>
<path style="fill:#5db354; stroke:none;" d="M70 216L71 217L70 216M154 216L155 217L154 216z"/>
<path style="fill:#a2d09e; stroke:none;" d="M155 216L156 217L155 216z"/>
<path style="fill:#cfe6cd; stroke:none;" d="M71 217L72 218L71 217z"/>
<path style="fill:#a2d09e; stroke:none;" d="M72 217L73 218L72 217M152 217L153 218L152 217z"/>
<path style="fill:#cfe6cd; stroke:none;" d="M153 217L154 218L153 217M74 218L75 219L74 218z"/>
<path style="fill:#5db354; stroke:none;" d="M75 218L76 219L75 218M149 218L150 219L149 218z"/>
<path style="fill:#cfe6cd; stroke:none;" d="M150 218L151 219L150 218M77 219L78 220L77 219z"/>
<path style="fill:#5db354; stroke:none;" d="M78 219L79 220L78 219M146 219L147 220L146 219z"/>
<path style="fill:#cfe6cd; stroke:none;" d="M147 219L148 220L147 219M80 220L81 221L80 220z"/>
<path style="fill:#a2d09e; stroke:none;" d="M81 220L82 221L81 220M143 220L144 221L143 220z"/>
<path style="fill:#cfe6cd; stroke:none;" d="M144 220L145 221L144 220z"/>
<path style="fill:#a2d09e; stroke:none;" d="M84 221L85 222L84 221z"/>
<path style="fill:#5db354; stroke:none;" d="M85 221L86 222L85 221M139 221L140 222L139 221z"/>
<path style="fill:#cfe6cd; stroke:none;" d="M140 221L141 222L140 221M88 222L89 223L88 222z"/>
<path style="fill:#a2d09e; stroke:none;" d="M89 222L90 223L89 222z"/>
<path style="fill:#5db354; stroke:none;" d="M90 222L91 223L90 222M134 222L135 223L134 222z"/>
<path style="fill:#a2d09e; stroke:none;" d="M135 222L136 223L135 222z"/>
<path style="fill:#cfe6cd; stroke:none;" d="M136 222L137 223L136 222M93 223L94 224L93 223z"/>
<path style="fill:#a2d09e; stroke:none;" d="M94 223L95 224L94 223z"/>
<path style="fill:#5db354; stroke:none;" d="M95.6667 223.333L96.3333 223.667L95.6667 223.333M128.667 223.333L129.333 223.667L128.667 223.333z"/>
<path style="fill:#a2d09e; stroke:none;" d="M130 223L131 224L130 223z"/>
<path style="fill:#cfe6cd; stroke:none;" d="M131 223L132 224L131 223M100.667 224.333L101.333 224.667L100.667 224.333z"/>
<path style="fill:#a2d09e; stroke:none;" d="M102 224L102 225L105 225L102 224z"/>
<path style="fill:#5db354; stroke:none;" d="M105 224L105 225L108 225L105 224M117 224L117 225L120 225L117 224z"/>
<path style="fill:#a2d09e; stroke:none;" d="M120 224L120 225L123 225L120 224z"/>
<path style="fill:#cfe6cd; stroke:none;" d="M123.667 224.333L124.333 224.667L123.667 224.333z"/>
</svg>
