<svg width="250" height="250" viewBox="0 0 250 250" fill="none" xmlns="http://www.w3.org/2000/svg">
<path d="M190 125C190 160.896 160.896 190 125 190C89.1037 190 60 160.896 60 125C60 89.1037 89.1037 60 125 60C160.896 60 190 89.1037 190 125Z" fill="#2CA01C"/>
<path d="M122.057 163.364H112.965V108.155H104.831C95.5714 108.155 88.0339 115.693 88.0339 124.952C88.0339 134.212 95.5714 141.75 104.831 141.75H107.204V150.843H104.831C90.5558 150.843 78.9414 139.227 78.9414 124.952C78.9414 110.678 90.5566 99.0618 104.831 99.0618H122.057V163.363V163.364ZM145.076 150.843H127.842V86.5411H136.943V141.75H145.076C154.336 141.75 161.865 134.212 161.865 124.952C161.865 115.693 154.336 108.155 145.076 108.155H142.703V99.0618H145.076C159.35 99.0618 170.966 110.678 170.966 124.952C170.966 139.228 159.35 150.843 145.076 150.843Z" fill="white"/>
</svg>
