<svg
        width="133px"
        height="44px"
        viewBox="0 0 133 44"
        version="1.1"
        xmlns="http://www.w3.org/2000/svg"
        xmlnsXlink="http://www.w3.org/1999/xlink"
>
    <title>Logo-Group@2x</title>
    <g id="Symbols" stroke="none" stroke-width="1" fill="none" fill-rule="evenodd">
        <g id="Header" transform="translate(-50.000000, -28.000000)">
            <g id="Logo-Group">
                <g transform="translate(50.000000, 28.000000)">
                    <g id="Logo-Group-6" transform="translate(51.595840, 10.228163)" fill="#222222">
                        <path
                                d="M5.29920026,3.95386579 L5.29920026,10.5997253 C8.64409962,10.3126853 11.2608005,10.0501541 11.2608005,6.80461473 C11.2608005,4.72666583 10.0587653,3.95386579 6.82536993,3.95386579 L5.29920026,3.95386579 Z M16.8287144,23.4048011 L10.8638021,23.4048011 L9.29258925,18.0594537 C8.68627242,15.9596456 7.77436838,14.5195879 7.16076515,13.9031143 L5.26078106,14.0565703 L5.26078106,23.4048011 L6.1186259e-14,23.4048011 L6.1186259e-14,0 L7.02232354,0 C11.9037702,0 16.4208968,0.807907239 16.4208968,6.66816033 C16.4208968,9.93202608 15.0119719,11.9474886 11.9914278,12.9929766 C12.8397414,13.5935527 13.6807687,14.8883239 14.3257255,16.59842 L16.8287144,23.4048011 Z"
                                id="Logo-Group-6-Fill-1"
                        ></path>
                        <path
                                d="M25.2372204,15.5701544 L30.4783503,15.5701544 L29.1486926,9.93048048 C28.6390862,7.81013798 28.0866446,5.16495385 27.856571,4.0448354 C27.6264973,5.14000345 27.0725101,7.75140518 26.5668781,9.93003888 L25.2372204,15.5701544 Z M38.0515699,23.4048011 L32.4690832,23.4048011 L31.4213871,18.9004809 L24.5149836,18.9004809 L23.4672875,23.4048011 L17.8848009,23.4048011 L24.7421868,0 L31.1941839,0 L38.0515699,23.4048011 Z"
                                id="Logo-Group-6-Fill-3"
                        ></path>
                        <polygon
                                id="Logo-Group-6-Fill-5"
                                points="40.627202 23.4048011 45.9264022 23.4048011 45.9264022 0 40.627202 0"
                        ></polygon>
                        <polygon
                                id="Logo-Group-6-Fill-7"
                                points="63.9896095 23.4048011 51.4464025 23.4048011 51.4464025 0 56.7462652 0 56.7462652 19.2427209 64.4877343 19.2427209"
                        ></polygon>
                        <polygon
                                id="Logo-Group-6-Fill-8"
                                points="80.4414183 23.4048011 66.0192032 23.4048011 66.0192032 19.753873 66.0342176 19.7280394 75.1219045 4.1620802 66.0192032 4.1620802 66.0192032 0 80.7041703 0 80.7041703 3.65092818 80.6891559 3.67676178 71.6012483 19.2427209 80.8231815 19.2427209"
                        ></polygon>
                    </g>
                    <g id="Logo-Group-7">
                        <polygon
                                id="Logo-Group-7-Fill-1"
                                fill="#38D88C"
                                points="0 10.8926703 0 32.672198 18.864105 21.7810701 0.0024132557 10.8913063"
                        ></polygon>
                        <polygon
                                id="Logo-Group-7-Fill-2"
                                fill="#A6FFD5"
                                points="18.8666127 21.7797061 37.7283045 10.8899423 18.8666127 0.000178371073"
                        ></polygon>
                        <polygon
                                id="Logo-Group-7-Fill-3"
                                fill="#69F2B1"
                                points="18.8664239 6.29544965e-05 0.00231882395 10.8914007 18.8641155 21.7811646 18.8666337 21.7796956 18.8666337 0.000167878657"
                        ></polygon>
                        <polygon
                                id="Logo-Group-7-Fill-4"
                                fill="#6DDDA8"
                                points="23.2827133 19.23071 23.2827133 19.2329135 37.7331835 27.5758532 37.7331835 10.8919673 37.7294062 10.8899737"
                        ></polygon>
                        <polygon
                                id="Logo-Group-7-Fill-5"
                                fill="#19564A"
                                points="0 32.672219 0 32.6779899 18.8664134 43.5704818 18.8666232 43.5703768 18.8666232 21.7825601 18.864105 21.7810911"
                        ></polygon>
                    </g>
                </g>
            </g>
        </g>
    </g>
</svg>
