<svg xmlns="http://www.w3.org/2000/svg" width="99.664" height="50.177"><path fill="#06e375" fill-rule="evenodd" d="M40.786.182c-.057.091-.342.168-.635.171-.292.002-1.17.157-1.948.344-.78.187-1.604.383-1.834.435-.23.052-.491.146-.583.209-.092.063-.504.218-.917.345C30.597 3 24.619 7.961 22.27 12.143c-2.678 4.767-3.454 7.673-3.46 12.955-.004 3.476.498 7.061 1.073 7.659.084.087.152.294.152.46 0 .167.066.433.147.592.08.159.222.477.312.706 3 7.59 10.539 13.836 18.29 15.155.643.109 1.53.269 1.972.355 1.113.217 2.34.196 2.579-.043.212-.212.309-49.155.099-49.703-.117-.306-2.467-.392-2.65-.097M71.87.19c-.23.077-1.056.254-1.837.394-6.414 1.148-12.306 5.145-16.114 10.931-.87 1.323-2.382 4.329-2.382 4.738 0 .133-.066.283-.147.333-.08.05-.188.261-.238.468-.051.208-.178.678-.283 1.044-4.007 14.002 5.137 29.129 19.085 31.57.64.113 1.573.274 2.069.359 1.166.2 4.59.199 5.626 0 .443-.086 1.292-.24 1.888-.343 5.173-.894 10.263-3.854 14.083-8.19 5.667-6.43 7.578-16.265 4.756-24.479C95.517 8.691 87.974 2.089 79.619.598c-.825-.147-1.73-.339-2.011-.425-.622-.192-5.156-.178-5.74.017M11.536 4.021c-.228.176-.503.322-.61.324-.107.002-.22.064-.25.139-.031.074-.486.451-1.012.837-3.266 2.396-6.278 6.446-8.14 10.944-2.156 5.214-2.007 13.227.347 18.521.54 1.215 1.658 3.388 1.833 3.562.046.046.189.289.318.539.129.251.354.588.5.75.146.162.486.595.756.961 1.9 2.583 6.414 6.281 6.883 5.64.3-.412.296-41.629-.005-42.171-.202-.363-.206-.363-.62-.046"/></svg>