<?xml version="1.0" encoding="UTF-8" standalone="no"?>
<svg
   id="svg"
   version="1.1"
   width="99.663818"
   height="50.176655"
   viewBox="0 0 99.663818 50.176655"
   sodipodi:docname="recharge.svg"
   inkscape:version="1.2.1 (9c6d41e410, 2022-07-14, custom)"
   xmlns:inkscape="http://www.inkscape.org/namespaces/inkscape"
   xmlns:sodipodi="http://sodipodi.sourceforge.net/DTD/sodipodi-0.dtd"
   xmlns="http://www.w3.org/2000/svg"
   xmlns:svg="http://www.w3.org/2000/svg">
  <defs
     id="defs1122" />
  <sodipodi:namedview
     id="namedview1120"
     pagecolor="#ffffff"
     bordercolor="#666666"
     borderopacity="1.0"
     inkscape:showpageshadow="2"
     inkscape:pageopacity="0.0"
     inkscape:pagecheckerboard="0"
     inkscape:deskcolor="#d1d1d1"
     showgrid="false"
     inkscape:zoom="3.3925"
     inkscape:cx="190.42004"
     inkscape:cy="27.118644"
     inkscape:window-width="3840"
     inkscape:window-height="2083"
     inkscape:window-x="0"
     inkscape:window-y="40"
     inkscape:window-maximized="1"
     inkscape:current-layer="svg" />
  <path
     id="path0"
     d="m 40.785715,0.18203002 c -0.057,0.091 -0.342,0.168 -0.635,0.171 -0.292,0.002 -1.169,0.157 -1.948,0.344 -0.78,0.187 -1.604,0.38299998 -1.834,0.43499998 -0.229,0.052 -0.491,0.146 -0.583,0.209 -0.092,0.063 -0.504,0.218 -0.917,0.345 -4.272,1.314 -10.249,6.275 -12.598,10.457 -2.678,4.767 -3.454,7.673 -3.46,12.955 -0.004,3.476 0.498,7.061 1.073,7.659 0.084,0.087 0.152,0.294 0.152,0.46 0,0.167 0.066,0.433 0.147,0.592 0.081,0.159 0.222,0.477 0.312,0.706 3,7.59 10.539,13.836 18.291,15.155 0.642,0.109 1.529,0.269 1.971,0.355 1.113,0.217 2.34,0.196 2.579,-0.043 0.212,-0.212 0.309,-49.15499998 0.099,-49.70299998 -0.117,-0.306 -2.467,-0.392 -2.649,-0.097 m 31.083,0.008 c -0.229,0.077 -1.056,0.254 -1.837,0.394 -6.414,1.14799998 -12.306,5.14499998 -16.114,10.93099998 -0.87,1.323 -2.382,4.329 -2.382,4.738 0,0.133 -0.066,0.283 -0.147,0.333 -0.08,0.05 -0.188,0.261 -0.238,0.468 -0.051,0.208 -0.178,0.678 -0.283,1.044 -4.007,14.002 5.137,29.129 19.085,31.57 0.641,0.113 1.573,0.274 2.069,0.359 1.166,0.2 4.59,0.199 5.626,0 0.443,-0.086 1.292,-0.24 1.888,-0.343 5.173,-0.894 10.263,-3.854 14.083,-8.19 5.667,-6.43 7.578005,-16.265 4.756,-24.479 -2.858,-8.324 -10.401,-14.926 -18.756,-16.41699998 -0.825,-0.147 -1.73,-0.339 -2.011,-0.425 -0.622,-0.192 -5.156,-0.178 -5.739,0.017 M 11.534715,4.02103 c -0.228,0.176 -0.503,0.322 -0.61,0.324 -0.107,0.002 -0.22,0.064 -0.25,0.139 -0.031,0.074 -0.486,0.451 -1.0119998,0.837 -3.266,2.396 -6.278,6.446 -8.139,10.944 -2.15700004,5.214 -2.00800004,13.227 0.346,18.521 0.54,1.215 1.658,3.388 1.833,3.562 0.046,0.046 0.189,0.289 0.318,0.539 0.129,0.251 0.354,0.588 0.5,0.75 0.146,0.162 0.486,0.595 0.756,0.961 1.9,2.583 6.4139998,6.281 6.8829998,5.64 0.301,-0.412 0.296,-41.629 -0.005,-42.171 -0.202,-0.363 -0.206,-0.363 -0.62,-0.046"
     stroke="none"
     fill="#06e375"
     fill-rule="evenodd" />
</svg>
