<svg width="250" height="250" viewBox="0 0 250 250" fill="none" xmlns="http://www.w3.org/2000/svg">
<path fill-rule="evenodd" clip-rule="evenodd" d="M135.316 90.4672L107.043 105.207L115.682 110.065L142.552 94.2918L135.316 90.4672ZM163.645 105.179L151.191 98.7026L124.096 114.755L135.316 121.203L163.645 105.179ZM132.791 125.614L121.291 119.166V130.807L112.877 126.145V114.503L104.462 109.562V143.258L132.904 159.17L132.791 125.614ZM166.45 143.146V109.478L138.121 125.614V159.393L166.45 143.146ZM99.1328 103.532L135.316 84.7164L171.499 103.56V146.105L135.624 166.624L99.1609 146.245L99.1328 103.532Z" fill="#53BAD3"/>
<path fill-rule="evenodd" clip-rule="evenodd" d="M171.331 69.7252C170.181 66.9335 169.087 64.3372 167.966 61.6293L173.295 59.4239L181.906 80.0264L160.168 81.8131C160.168 79.9427 159.859 78.0443 159.691 76.0902L168.975 75.3085C161.353 69.976 152.529 66.5917 143.283 65.4539C135.168 64.298 126.9 64.8407 119.008 67.0471C111.116 69.2536 103.774 73.0752 97.4509 78.2677C91.1099 83.3555 85.8697 89.6684 82.046 96.8261C78.2223 103.984 75.8943 111.838 75.2023 119.915C74.5103 127.992 75.4687 136.125 78.0196 143.824C80.5706 151.523 84.6613 158.627 90.0452 164.71C95.4291 170.793 101.995 175.728 109.346 179.218C116.698 182.707 124.684 184.679 132.821 185.014C140.959 185.349 149.081 184.041 156.697 181.169C164.314 178.296 171.267 173.918 177.137 168.299L181.12 172.458C169.511 183.62 154.199 190.167 138.073 190.863C121.948 191.56 106.123 186.358 93.5862 176.24C81.0491 166.121 72.6664 151.786 70.0196 135.938C67.3729 120.091 70.6452 103.827 79.2192 90.216C83.7625 82.7243 89.8085 76.245 96.9798 71.1824C104.151 66.1199 112.294 62.5828 120.9 60.7918C129.483 58.8071 138.382 58.573 147.059 60.1035C155.736 61.634 164.012 64.8975 171.387 69.6972" fill="#53BAD3"/>
</svg>
