<svg width="250" height="250" viewBox="0 0 250 250" fill="none" xmlns="http://www.w3.org/2000/svg">
<g clip-path="url(#clip0_2_7252)">
<path d="M125 60C112.144 60 99.5772 63.8122 88.888 70.9545C78.1988 78.0968 69.8676 88.2484 64.9479 100.126C60.0282 112.003 58.7409 125.072 61.249 137.681C63.757 150.29 69.9477 161.872 79.0381 170.962C88.1285 180.052 99.7104 186.243 112.319 188.751C124.928 191.259 137.997 189.972 149.874 185.052C161.752 180.132 171.903 171.801 179.046 161.112C186.188 150.423 190 137.856 190 125C190 107.761 183.152 91.2279 170.962 79.0381C158.772 66.8482 142.239 60 125 60ZM139.534 162.646L126.265 141.25C120.758 133.125 117.597 131.86 114.258 131.86H114.167V162.646H99.2712V121.75H122.924C133.576 121.75 138 115.343 138 106.945C138 101.167 134.75 94.216 125.271 94.216C114.076 94.216 114.076 103.063 114.076 103.063H122.562L106.763 115.703L91.8686 103.063H99.3622C101.438 90.7859 110.106 83.6544 125.091 83.6544C142.154 83.6544 152.896 91.148 152.896 106.856C152.896 119.67 143.597 127.529 134.21 129.884C136.106 131.329 138.724 135.03 142.335 140.628L156.057 162.566L139.534 162.646Z" fill="#723080"/>
</g>
<defs>
<clipPath id="clip0_2_7252">
<rect width="130" height="130" fill="white" transform="translate(60 60)"/>
</clipPath>
</defs>
</svg>
