<svg xmlns="http://www.w3.org/2000/svg" xml:space="preserve" width="192" height="192"><path d="m715.637 1177.56 5.078-.01v.01h-5.078" style="fill:#fff;fill-opacity:1;fill-rule:nonzero;stroke:none" transform="matrix(.13333 0 0 -.13333 0 192)"/><path d="M720 1440C322.355 1440 0 1117.64 0 720 0 322.352 322.355 0 720 0c397.65 0 720 322.352 720 720 0 397.64-322.35 720-720 720" style="fill:#6a2783;fill-opacity:1;fill-rule:nonzero;stroke:none" transform="matrix(.13333 0 0 -.13333 0 192)"/><path d="m715.637 1177.56 5.078-.01v.01h-5.078M822.352 665.367c103.933 26.309 206.658 113.324 206.658 255.238 0 173.915-119.283 256.885-308.092 256.945h-.203c-166.641-.05-262.934-78.68-285.434-214.987h-82.668l165.231-140.489 174.633 140.489h-93.821s.75 97.597 124.254 97.597c105.403 0 141.41-76.816 141.41-140.719 0-93.113-49.23-163.625-167.203-163.625H435.063l-.102-453.054h165.297V643.75h.527c36.375 0 71.727-13.492 132.746-103.848l147.157-237.14h183.952L912.781 545.949c-39.941 62.141-69.707 103.141-90.429 119.418" style="fill:#fff;fill-opacity:1;fill-rule:nonzero;stroke:none" transform="matrix(.13333 0 0 -.13333 0 192)"/></svg>