<svg width="250" height="250" viewBox="0 0 250 250" fill="none" xmlns="http://www.w3.org/2000/svg">
<path d="M190.409 157.687C182.832 161.635 143.584 177.772 135.228 182.128C126.872 186.485 122.23 186.443 115.629 183.287C109.029 180.132 67.2615 163.261 59.7376 159.665C55.9776 157.868 54 156.351 54 154.918V140.569C54 140.569 108.376 128.732 117.154 125.583C125.932 122.434 128.978 122.32 136.448 125.056C143.919 127.793 188.588 135.852 195.971 138.556L195.968 152.702C195.969 154.121 194.265 155.677 190.409 157.687Z" fill="#912626"/>
<path d="M190.406 143.422C182.83 147.369 143.583 163.507 135.227 167.862C126.872 172.219 122.23 172.176 115.629 169.021C109.028 165.868 67.2625 148.995 59.7392 145.401C52.2158 141.804 52.0583 139.329 59.4486 136.436C66.8388 133.541 108.375 117.246 117.155 114.097C125.933 110.948 128.978 110.834 136.448 113.571C143.919 116.307 182.932 131.835 190.314 134.538C197.698 137.245 197.982 139.474 190.406 143.422Z" fill="#C6302B"/>
<path d="M190.409 134.468C182.832 138.418 143.584 154.554 135.228 158.912C126.872 163.266 122.23 163.224 115.629 160.069C109.028 156.915 67.2615 140.043 59.7376 136.447C55.9776 134.65 54 133.135 54 131.702V117.351C54 117.351 108.376 105.514 117.154 102.365C125.932 99.2159 128.978 99.1016 136.448 101.838C143.92 104.575 188.589 112.632 195.971 115.337L195.968 129.485C195.969 130.903 194.265 132.459 190.409 134.468Z" fill="#912626"/>
<path d="M190.406 120.204C182.83 124.152 143.583 140.288 135.227 144.645C126.872 149.001 122.23 148.958 115.629 145.803C109.028 142.649 67.2625 125.777 59.7392 122.182C52.2158 118.587 52.0583 116.112 59.4486 113.217C66.8388 110.324 108.376 94.0275 117.155 90.8788C125.933 87.7301 128.978 87.6158 136.448 90.3525C143.919 93.0887 182.932 108.615 190.314 111.32C197.698 114.026 197.982 116.255 190.406 120.204Z" fill="#C6302B"/>
<path d="M190.409 110.389C182.832 114.338 143.584 130.475 135.228 134.833C126.872 139.188 122.23 139.145 115.629 135.99C109.028 132.836 67.2615 115.964 59.7376 112.369C55.9776 110.571 54 109.055 54 107.623V93.2717C54 93.2717 108.376 81.4361 117.154 78.2873C125.932 75.1375 128.978 75.0244 136.448 77.7605C143.92 80.4972 188.589 88.5542 195.971 91.2587L195.968 105.406C195.969 106.823 194.265 108.379 190.409 110.389Z" fill="#912626"/>
<path d="M190.406 96.1248C182.829 100.073 143.582 116.21 135.226 120.566C126.871 124.921 122.229 124.879 115.629 121.725C109.028 118.569 67.2622 101.698 59.7394 98.1029C52.2155 94.5083 52.0586 92.0323 59.4483 89.1381C66.8386 86.2445 108.376 69.9503 117.155 66.8004C125.932 63.6512 128.978 63.538 136.448 66.2747C143.918 69.0114 182.932 84.5381 190.313 87.2426C197.698 89.9466 197.982 92.1764 190.406 96.1248Z" fill="#C6302B"/>
<path d="M142.334 82.1652L130.128 83.4324L127.395 90.007L122.982 82.6704L108.888 81.4038L119.405 77.6113L116.249 71.7897L126.095 75.6404L135.378 72.6015L132.869 78.6211L142.334 82.1652ZM126.667 114.062L103.886 104.614L136.529 99.6035L126.667 114.062ZM95.0836 85.8197C104.719 85.8197 112.531 88.8475 112.531 92.5818C112.531 96.3172 104.719 99.3445 95.0836 99.3445C85.4479 99.3445 77.6367 96.3167 77.6367 92.5818C77.6367 88.8475 85.4479 85.8197 95.0836 85.8197Z" fill="white"/>
<path d="M156.762 83.9625L176.081 91.5963L156.778 99.223L156.762 83.9619" fill="#621B1C"/>
<path d="M135.387 92.4166L156.76 83.9625L156.777 99.2231L154.681 100.043L135.387 92.4166Z" fill="#9A2928"/>
</svg>
