<?xml version="1.0" encoding="UTF-8" standalone="no"?>
<!-- Generator: Adobe Illustrator 15.0.0, SVG Export Plug-In . SVG Version: 6.00 Build 0)  -->

<svg
   enable-background="new 0 0 800 600"
   xml:space="preserve"
   height="145.80391"
   viewBox="0 0 170.11645 145.80205"
   width="170.11748"
   version="1.1"
   y="0px"
   x="0px"
   id="svg243"
   sodipodi:docname="redis.svg"
   inkscape:version="1.2.1 (9c6d41e410, 2022-07-14, custom)"
   xmlns:inkscape="http://www.inkscape.org/namespaces/inkscape"
   xmlns:sodipodi="http://sodipodi.sourceforge.net/DTD/sodipodi-0.dtd"
   xmlns="http://www.w3.org/2000/svg"
   xmlns:svg="http://www.w3.org/2000/svg"
   xmlns:rdf="http://www.w3.org/1999/02/22-rdf-syntax-ns#"
   xmlns:cc="http://creativecommons.org/ns#"
   xmlns:dc="http://purl.org/dc/elements/1.1/"><defs
     id="defs247" /><sodipodi:namedview
     id="namedview245"
     pagecolor="#ffffff"
     bordercolor="#666666"
     borderopacity="1.0"
     inkscape:showpageshadow="2"
     inkscape:pageopacity="0.0"
     inkscape:pagecheckerboard="0"
     inkscape:deskcolor="#d1d1d1"
     showgrid="false"
     inkscape:zoom="2.9035434"
     inkscape:cx="228.51389"
     inkscape:cy="72.669828"
     inkscape:window-width="3840"
     inkscape:window-height="2083"
     inkscape:window-x="0"
     inkscape:window-y="40"
     inkscape:window-maximized="1"
     inkscape:current-layer="svg243" /><metadata
     id="metadata207"><rdf:RDF><cc:Work
         rdf:about=""><dc:format>image/svg+xml</dc:format><dc:type
           rdf:resource="http://purl.org/dc/dcmitype/StillImage" /></cc:Work></rdf:RDF></metadata><path
     fill="#a41e11"
     d="m 163.44814,112.42653 c -9.078,4.732 -56.106,24.068 -66.118002,29.287 -10.012,5.221 -15.574,5.17 -23.483,1.389 -7.909,-3.781 -57.955,-23.996 -66.9700003,-28.305 -4.506,-2.154 -6.87500003,-3.971 -6.87500003,-5.688 V 91.914534 c 0,0 65.15300033,-14.184 75.67200033,-17.957 10.518,-3.774 14.167,-3.91 23.118,-0.631 8.952002,3.279 62.474002,12.936 71.321002,16.176 0,0 -0.004,15.356996 -0.004,16.950996 0.001,1.7 -2.04,3.565 -6.661,5.973 z"
     id="path219" /><path
     fill="#d82c20"
     d="m 163.44814,95.226534 c -9.078,4.73 -56.106,24.067996 -66.118002,29.286996 -10.012,5.221 -15.574,5.17 -23.483,1.389 -7.91,-3.779 -57.955,-23.998 -66.9700003,-28.304996 -9.015,-4.309 -9.204,-7.275 -0.348,-10.742 8.8550003,-3.469 58.6260003,-22.996 69.1460003,-26.77 10.518,-3.772 14.167,-3.91 23.118,-0.63 8.952002,3.279 55.699002,21.886 64.545002,25.126 8.848,3.243 9.188,5.913 0.11,10.645 z"
     id="path221" /><path
     fill="#a41e11"
     d="m 163.44814,84.386534 c -9.078,4.732 -56.106,24.067996 -66.118002,29.288996 -10.012,5.219 -15.574,5.168 -23.483,1.387 -7.91,-3.779 -57.955,-23.995996 -66.9700003,-28.304996 -4.506,-2.154 -6.87500003,-3.969 -6.87500003,-5.686 v -17.197 c 0,0 65.15300033,-14.183 75.67200033,-17.957 10.518,-3.773 14.167,-3.91 23.118,-0.631 8.952002,3.279 62.474002,12.934 71.321002,16.175 0,0 -0.004,15.357 -0.004,16.953 0.001,1.699 -2.04,3.564 -6.661,5.972 z"
     id="path223" /><path
     fill="#d82c20"
     d="m 163.44814,67.186534 c -9.078,4.732 -56.106,24.068 -66.118002,29.289 -10.012,5.218996 -15.574,5.167996 -23.483,1.387 -7.91,-3.779 -57.955,-23.997 -66.9700003,-28.305 -9.015,-4.308 -9.204,-7.274 -0.348,-10.743 8.8550003,-3.467 58.6260003,-22.995 69.1460003,-26.768 10.518,-3.773 14.167,-3.91 23.118,-0.631 8.952002,3.279 55.699002,21.885 64.545002,25.126 8.848,3.242 9.188,5.913 0.11,10.645 z"
     id="path225" /><path
     fill="#a41e11"
     d="m 163.44814,55.306534 c -9.078,4.732 -56.106,24.069 -66.118002,29.29 -10.012,5.219 -15.574,5.168 -23.483,1.387 -7.91,-3.779 -57.955,-23.997 -66.9700003,-28.305 -4.506,-2.154 -6.87500003,-3.97 -6.87500003,-5.686 v -17.197 c 0,0 65.15300033,-14.183 75.67200033,-17.956 10.518,-3.774 14.167,-3.91 23.118,-0.631 8.952002,3.279 62.474002,12.934 71.321002,16.175 0,0 -0.004,15.357 -0.004,16.952 0.001,1.698 -2.04,3.563 -6.661,5.971 z"
     id="path227" /><path
     fill="#d82c20"
     d="m 163.44814,38.106534 c -9.078,4.732 -56.106,24.069 -66.118002,29.289 -10.012,5.219 -15.574,5.168 -23.483,1.388 -7.909,-3.78 -57.955,-23.997 -66.9700003,-28.305 -9.015,-4.308 -9.204,-7.275 -0.348,-10.743 8.8550003,-3.468 58.6260003,-22.9940003 69.1460003,-26.7680003 10.518,-3.774 14.167,-3.91 23.118,-0.63 8.952002,3.279 55.699002,21.8850003 64.545002,25.1260003 8.848,3.24 9.188,5.912 0.11,10.643 z"
     id="path229" /><polygon
     points="238.28,247.74 250.98,243.16 247.17,236.13 259.06,240.78 270.27,237.11 267.24,244.38 278.67,248.66 263.93,250.19 260.63,258.13 255.3,249.27 "
     fill="#ffffff"
     id="polygon231"
     transform="translate(-171.32186,-227.11347)" /><polygon
     points="232.24,275.77 271.66,269.72 259.75,287.18 "
     fill="#ffffff"
     id="polygon233"
     transform="translate(-171.32186,-227.11347)" /><ellipse
     cx="50.288139"
     rx="21.069"
     ry="8.1669998"
     cy="34.126526"
     fill="#ffffff"
     id="ellipse235" /><polygon
     points="319.42,260.05 296.11,269.26 296.09,250.83 "
     fill="#7a0c00"
     id="polygon237"
     transform="translate(-171.32186,-227.11347)" /><polygon
     points="270.28,261.04 296.09,250.83 296.11,269.26 293.58,270.25 "
     fill="#ad2115"
     id="polygon239"
     transform="translate(-171.32186,-227.11347)" /></svg>
