<svg xmlns="http://www.w3.org/2000/svg" width="250" height="250" fill="none"><g clip-path="url(#a)"><path fill="#912626" d="M235.55 180.192c-12.806 6.668-79.141 33.915-93.263 41.27-14.123 7.356-21.968 7.285-33.125 1.957-11.156-5.328-81.748-33.814-94.465-39.886C8.342 180.499 5 177.937 5 175.518v-24.23s91.903-19.986 106.74-25.304c14.836-5.317 19.983-5.509 32.609-.889 12.627 4.621 88.124 18.229 100.602 22.794l-.005 23.887c.001 2.395-2.878 5.023-9.396 8.416"/><path fill="#C6302B" d="M235.545 156.106c-12.805 6.665-79.138 33.913-93.26 41.267-14.122 7.357-21.967 7.285-33.123 1.957-11.157-5.324-81.746-33.814-94.462-39.883-12.716-6.072-12.982-10.251-.491-15.137 12.49-4.888 82.693-32.403 97.532-37.721 14.835-5.316 19.982-5.509 32.608-.887 12.626 4.62 78.564 30.839 91.04 35.403 12.482 4.571 12.961 8.334.156 15.001"/><path fill="#912626" d="M235.55 140.987c-12.806 6.669-79.141 33.916-93.263 41.274-14.123 7.353-21.968 7.282-33.125 1.954-11.157-5.325-81.748-33.814-94.465-39.887C8.342 141.295 5 138.736 5 136.316v-24.232S96.903 92.098 111.74 86.78c14.836-5.317 19.983-5.51 32.609-.89 12.628 4.622 88.125 18.226 100.602 22.793l-.005 23.889c.001 2.395-2.878 5.022-9.396 8.415Z"/><path fill="#C6302B" d="M235.545 116.901c-12.805 6.667-79.138 33.914-93.26 41.271-14.122 7.354-21.967 7.282-33.123 1.954-11.157-5.324-81.746-33.814-94.462-39.884-12.716-6.07-12.982-10.25-.491-15.138 12.49-4.885 82.694-32.402 97.532-37.718 14.835-5.317 19.982-5.51 32.608-.889 12.626 4.62 78.564 30.837 91.04 35.404 12.482 4.569 12.961 8.334.156 15"/><path fill="#912626" d="M235.55 100.33c-12.806 6.667-79.141 33.915-93.263 41.273-14.123 7.354-21.968 7.282-33.125 1.954-11.157-5.325-81.748-33.815-94.465-39.885C8.342 100.636 5 98.077 5 95.659V71.426s91.903-19.985 106.74-25.302c14.836-5.318 19.983-5.509 32.609-.889 12.628 4.62 88.125 18.225 100.602 22.792l-.005 23.888c.001 2.393-2.878 5.02-9.396 8.415Z"/><path fill="#C6302B" d="M235.545 76.244c-12.805 6.666-79.138 33.915-93.261 41.269-14.121 7.354-21.967 7.282-33.122 1.957-11.156-5.328-81.747-33.816-94.462-39.886-12.716-6.07-12.981-10.25-.492-15.138C26.7 59.56 96.903 32.047 111.74 26.73c14.836-5.318 19.983-5.509 32.608-.888 12.627 4.62 78.564 30.838 91.041 35.405 12.481 4.565 12.96 8.33.156 14.998"/><path fill="#fff" d="m154.297 52.672-20.631 2.14-4.618 11.102-7.459-12.389-23.822-2.138 17.776-6.404-5.334-9.83 16.642 6.502 15.689-5.131-4.24 10.164 15.997 5.984m-26.48 53.858L89.315 90.577l55.17-8.46-16.668 24.413m-53.38-47.687c16.286 0 29.488 5.113 29.488 11.418 0 6.307-13.202 11.419-29.488 11.419s-29.488-5.113-29.488-11.419c0-6.305 13.202-11.418 29.488-11.418Z"/><path fill="#621B1C" d="m178.68 55.707 32.652 12.89-32.624 12.878-.028-25.769"/><path fill="#9A2928" d="m142.555 69.982 36.124-14.275.028 25.768-3.542 1.384-32.61-12.877Z"/></g><defs><clipPath id="a"><path fill="#fff" d="M5 22h240v206H5z"/></clipPath></defs></svg>