<svg xmlns="http://www.w3.org/2000/svg" xml:space="preserve" width="170.117" height="145.804" viewBox="0 0 170.116 145.802"><path fill="#a41e11" d="M163.448 112.427c-9.078 4.732-56.106 24.068-66.118 29.287-10.012 5.22-15.574 5.17-23.483 1.389-7.909-3.781-57.955-23.996-66.97-28.305-4.506-2.154-6.875-3.971-6.875-5.688V91.915S65.155 77.73 75.674 73.958c10.518-3.774 14.167-3.91 23.118-.631 8.952 3.279 62.474 12.936 71.321 16.176l-.004 16.95c.001 1.7-2.04 3.566-6.66 5.974z"/><path fill="#d82c20" d="M163.448 95.227c-9.078 4.73-56.106 24.068-66.118 29.287-10.012 5.22-15.574 5.17-23.483 1.389-7.91-3.78-57.955-23.998-66.97-28.305-9.015-4.31-9.204-7.275-.348-10.742 8.855-3.47 58.626-22.996 69.146-26.77 10.518-3.772 14.167-3.91 23.118-.63 8.952 3.279 55.7 21.886 64.545 25.126 8.848 3.243 9.188 5.913.11 10.645z"/><path fill="#a41e11" d="M163.448 84.387c-9.078 4.732-56.106 24.068-66.118 29.289-10.012 5.219-15.574 5.168-23.483 1.387-7.91-3.78-57.955-23.996-66.97-28.305-4.506-2.154-6.875-3.97-6.875-5.686V63.875s65.153-14.183 75.672-17.957c10.518-3.773 14.167-3.91 23.118-.631 8.952 3.279 62.474 12.934 71.321 16.175l-.004 16.953c.001 1.699-2.04 3.564-6.66 5.972z"/><path fill="#d82c20" d="M163.448 67.187c-9.078 4.732-56.106 24.068-66.118 29.289-10.012 5.219-15.574 5.168-23.483 1.387-7.91-3.78-57.955-23.997-66.97-28.305s-9.204-7.274-.348-10.743c8.855-3.467 58.626-22.995 69.146-26.768 10.518-3.773 14.167-3.91 23.118-.631 8.952 3.279 55.7 21.885 64.545 25.126 8.848 3.242 9.188 5.913.11 10.645z"/><path fill="#a41e11" d="M163.448 55.307c-9.078 4.732-56.106 24.069-66.118 29.29-10.012 5.219-15.574 5.168-23.483 1.387-7.91-3.78-57.955-23.997-66.97-28.305-4.506-2.154-6.875-3.97-6.875-5.686V34.796S65.155 20.613 75.674 16.84c10.518-3.774 14.167-3.91 23.118-.631 8.952 3.279 62.474 12.934 71.321 16.175l-.004 16.952c.001 1.698-2.04 3.563-6.66 5.97z"/><path fill="#d82c20" d="M163.448 38.107c-9.078 4.732-56.106 24.069-66.118 29.289-10.012 5.219-15.574 5.168-23.483 1.388-7.909-3.78-57.955-23.997-66.97-28.305s-9.204-7.275-.348-10.743c8.855-3.468 58.626-22.994 69.146-26.768 10.518-3.774 14.167-3.91 23.118-.63 8.952 3.279 55.7 21.885 64.545 25.126 8.848 3.24 9.188 5.912.11 10.643z"/><path fill="#fff" d="m66.958 20.627 12.7-4.58-3.81-7.03 11.89 4.65 11.21-3.67-3.03 7.27 11.43 4.28-14.74 1.53-3.3 7.94-5.33-8.86zM60.918 48.657l39.42-6.05-11.91 17.46z"/><ellipse cx="50.288" cy="34.127" fill="#fff" rx="21.069" ry="8.167"/><path fill="#7a0c00" d="m148.098 32.937-23.31 9.21-.02-18.43z"/><path fill="#ad2115" d="m98.958 33.927 25.81-10.21.02 18.43-2.53.99z"/></svg>