<?xml version="1.0" standalone="yes"?>
<svg xmlns="http://www.w3.org/2000/svg" width="242" height="208">
<path style="fill:#fffefe; stroke:none;" d="M0 0L0 48C24.6225 33.1912 55.1501 24.7893 82 14.5756C94.8143 9.70105 109.142 1.63326 123 1C113.211 -3.10771 96.634 0 86 0L0 0z"/>
<path style="fill:#dca3a1; stroke:none;" d="M123 0L123 1L128 1L123 0z"/>
<path style="fill:#fffefe; stroke:none;" d="M128 0L128 1C142.067 1.64278 157.044 10.258 170 15.3989C193.638 24.7783 220.196 31.8864 242 45L242 0L128 0z"/>
<path style="fill:#dca3a1; stroke:none;" d="M117.667 1.33333L118.333 1.66667L117.667 1.33333z"/>
<path style="fill:#c45f5d; stroke:none;" d="M119 1L120 2L119 1z"/>
<path style="fill:#c4302a; stroke:none;" d="M120 1.46373C89.0548 6.93169 58.3895 24.4412 29 35.3187C22.8983 37.577 1.86653 42.4477 0.921296 50.0008C-0.0517159 57.7759 22.4501 64.1355 28 66.3966C49.3959 75.1134 70.6435 84.1974 92 93.0108C103.132 97.6047 113.485 103.893 126 101.532C137.32 99.3974 148.549 92.0163 159 87.3056C177.195 79.1041 195.69 71.518 214 63.5756C220.399 60.7999 239.257 55.4834 241.029 47.8418C242.767 40.3486 219.164 34.8263 214 32.7971C194.332 25.0688 174.642 17.3948 155 9.60107C144.128 5.28714 131.98 -0.653122 120 1.46373z"/>
<path style="fill:#c45f5d; stroke:none;" d="M131 1L132 2L131 1z"/>
<path style="fill:#dca3a1; stroke:none;" d="M132.667 1.33333L133.333 1.66667L132.667 1.33333M114 2L115 3L114 2z"/>
<path style="fill:#c45f5d; stroke:none;" d="M115 2L116 3L115 2M135 2L136 3L135 2z"/>
<path style="fill:#dca3a1; stroke:none;" d="M136 2L137 3L136 2M111 3L112 4L111 3z"/>
<path style="fill:#c45f5d; stroke:none;" d="M138 3L139 4L138 3z"/>
<path style="fill:#dca3a1; stroke:none;" d="M139 3L140 4L139 3M108 4L109 5L108 4z"/>
<path style="fill:#c45f5d; stroke:none;" d="M141 4L142 5L141 4z"/>
<path style="fill:#dca3a1; stroke:none;" d="M142 4L143 5L142 4M105 5L106 6L105 5z"/>
<path style="fill:#c45f5d; stroke:none;" d="M106 5L107 6L106 5z"/>
<path style="fill:#dca3a1; stroke:none;" d="M144 5L145 6L144 5M102 6L103 7L102 6z"/>
<path style="fill:#c45f5d; stroke:none;" d="M103 6L104 7L103 6M146 6L147 7L146 6z"/>
<path style="fill:#dca3a1; stroke:none;" d="M147 6L148 7L147 6M100 7L101 8L100 7z"/>
<path style="fill:#c45f5d; stroke:none;" d="M149 7L150 8L149 7z"/>
<path style="fill:#dca3a1; stroke:none;" d="M97 8L98 9L97 8z"/>
<path style="fill:#c45f5d; stroke:none;" d="M98 8L99 9L98 8z"/>
<path style="fill:#dca3a1; stroke:none;" d="M152 8L153 9L152 8M95 9L96 10L95 9z"/>
<path style="fill:#c45f5d; stroke:none;" d="M154 9L155 10L154 9z"/>
<path style="fill:#dca3a1; stroke:none;" d="M155 9L156 10L155 9M92 10L93 11L92 10M157 10L158 11L157 10M89 11L90 12L89 11z"/>
<path style="fill:#c45f5d; stroke:none;" d="M90 11L91 12L90 11M159 11L160 12L159 11z"/>
<path style="fill:#dca3a1; stroke:none;" d="M160 11L161 12L160 11M87 12L88 13L87 12M162 12L163 13L162 12M84 13L85 14L84 13z"/>
<path style="fill:#c45f5d; stroke:none;" d="M85 13L86 14L85 13z"/>
<path style="fill:#dca3a1; stroke:none;" d="M106 13L107 14L106 13z"/>
<path style="fill:#c45f5d; stroke:none;" d="M107 13L106 15L107 13M164 13L165 14L164 13z"/>
<path style="fill:#dca3a1; stroke:none;" d="M165 13L166 14L165 13M82 14L83 15L82 14z"/>
<path style="fill:#fffefe; stroke:none;" d="M107 14L111 24L95 29L95 30C108.452 30.0089 117.275 30.3678 124 43L126 43L129 33L149 31L149 30L134 25L138 15C124.968 19.2404 119.802 17.5015 107 14z"/>
<path style="fill:#dca3a1; stroke:none;" d="M109 14L110 15L109 14z"/>
<path style="fill:#c45f5d; stroke:none;" d="M138 14L139 15L138 14z"/>
<path style="fill:#dca3a1; stroke:none;" d="M167 14L168 15L167 14M79 15L80 16L79 15M111 15L112 16L111 15z"/>
<path style="fill:#c45f5d; stroke:none;" d="M112 15L113 16L112 15M135 15L136 16L135 15z"/>
<path style="fill:#dca3a1; stroke:none;" d="M136 15L137 16L136 15M138 15L139 16L138 15M170 15L171 16L170 15M76 16L77 17L76 16z"/>
<path style="fill:#c45f5d; stroke:none;" d="M77 16L78 17L77 16M107 16L108 17L107 16z"/>
<path style="fill:#dca3a1; stroke:none;" d="M114 16L115 17L114 16z"/>
<path style="fill:#c45f5d; stroke:none;" d="M132 16L133 17L132 16z"/>
<path style="fill:#dca3a1; stroke:none;" d="M133 16L134 17L133 16z"/>
<path style="fill:#c45f5d; stroke:none;" d="M172 16L173 17L172 16z"/>
<path style="fill:#dca3a1; stroke:none;" d="M74 17L75 18L74 17M108 17L109 18L108 17M116 17L117 18L116 17z"/>
<path style="fill:#c45f5d; stroke:none;" d="M117 17L118 18L117 17z"/>
<path style="fill:#dca3a1; stroke:none;" d="M129.667 17.3333L130.333 17.6667L129.667 17.3333M137 17L138 18L137 17M175 17L176 18L175 17M71 18L72 19L71 18z"/>
<path style="fill:#c45f5d; stroke:none;" d="M72 18L73 19L72 18z"/>
<path style="fill:#dca3a1; stroke:none;" d="M119 18L120 19L119 18M126.667 18.3333L127.333 18.6667L126.667 18.3333z"/>
<path style="fill:#c45f5d; stroke:none;" d="M177 18L178 19L177 18z"/>
<path style="fill:#dca3a1; stroke:none;" d="M178 18L179 19L178 18M69 19L70 20L69 19M109 19L110 20L109 19z"/>
<path style="fill:#c45f5d; stroke:none;" d="M122 19L123 20L122 19z"/>
<path style="fill:#dca3a1; stroke:none;" d="M123 19L124 20L123 19M180 19L181 20L180 19M66 20L67 21L66 20z"/>
<path style="fill:#c45f5d; stroke:none;" d="M136 20L137 21L136 20M182 20L183 21L182 20z"/>
<path style="fill:#dca3a1; stroke:none;" d="M183 20L184 21L183 20z"/>
<path style="fill:#c45f5d; stroke:none;" d="M64 21L65 22L64 21z"/>
<path style="fill:#dca3a1; stroke:none;" d="M110 21L111 22L110 21M185 21L186 22L185 21M61 22L62 23L61 22M135 22L136 23L135 22z"/>
<path style="fill:#c45f5d; stroke:none;" d="M187 22L188 23L187 22z"/>
<path style="fill:#dca3a1; stroke:none;" d="M188 22L189 23L188 22M58 23L59 24L58 23z"/>
<path style="fill:#c45f5d; stroke:none;" d="M59 23L60 24L59 23z"/>
<path style="fill:#dca3a1; stroke:none;" d="M110 23L111 24L110 23M190 23L191 24L190 23M56 24L57 25L56 24M107 24L108 25L107 24M134 24L135 25L134 24z"/>
<path style="fill:#c45f5d; stroke:none;" d="M192 24L193 25L192 24z"/>
<path style="fill:#dca3a1; stroke:none;" d="M193 24L194 25L193 24M53 25L54 26L53 25z"/>
<path style="fill:#c45f5d; stroke:none;" d="M54 25L55 26L54 25M104 25L105 26L104 25z"/>
<path style="fill:#dca3a1; stroke:none;" d="M105 25L106 26L105 25M135 25L136 26L135 25z"/>
<path style="fill:#c45f5d; stroke:none;" d="M136 25L137 26L136 25z"/>
<path style="fill:#dca3a1; stroke:none;" d="M195 25L196 26L195 25M51 26L52 27L51 26z"/>
<path style="fill:#c45f5d; stroke:none;" d="M101 26L102 27L101 26z"/>
<path style="fill:#dca3a1; stroke:none;" d="M102 26L103 27L102 26M138 26L139 27L138 26z"/>
<path style="fill:#c45f5d; stroke:none;" d="M139 26L140 27L139 26z"/>
<path style="fill:#dca3a1; stroke:none;" d="M198 26L199 27L198 26M48 27L49 28L48 27M99 27L100 28L99 27M141 27L142 28L141 27z"/>
<path style="fill:#c45f5d; stroke:none;" d="M200 27L201 28L200 27M46 28L47 29L46 28z"/>
<path style="fill:#dca3a1; stroke:none;" d="M96 28L97 29L96 28M143 28L144 29L143 28z"/>
<path style="fill:#c45f5d; stroke:none;" d="M144 28L145 29L144 28z"/>
<path style="fill:#dca3a1; stroke:none;" d="M203 28L204 29L203 28M43 29L44 30L43 29M94 29L95 30L94 29M146 29L147 30L146 29z"/>
<path style="fill:#c45f5d; stroke:none;" d="M147 29L148 30L147 29M205 29L206 30L205 29z"/>
<path style="fill:#dca3a1; stroke:none;" d="M206 29L207 30L206 29M40 30L41 31L40 30z"/>
<path style="fill:#c45f5d; stroke:none;" d="M41 30L42 31L41 30M99 30L100 31L99 30z"/>
<path style="fill:#dca3a1; stroke:none;" d="M100 30L100 31L105 31L100 30M149 30L150 31L149 30M208 30L209 31L208 30M38 31L39 32L38 31z"/>
<path style="fill:#c45f5d; stroke:none;" d="M110.667 31.3333L111.333 31.6667L110.667 31.3333z"/>
<path style="fill:#dca3a1; stroke:none;" d="M112 31L112 32L116 32L112 31M144 31L144 32L147 32L144 31z"/>
<path style="fill:#c45f5d; stroke:none;" d="M147.667 31.3333L148.333 31.6667L147.667 31.3333M210 31L211 32L210 31z"/>
<path style="fill:#dca3a1; stroke:none;" d="M211 31L212 32L211 31M35 32L36 33L35 32z"/>
<path style="fill:#c45f5d; stroke:none;" d="M36 32L37 33L36 32z"/>
<path style="fill:#dca3a1; stroke:none;" d="M134 32L134 33L138 33L134 32z"/>
<path style="fill:#c45f5d; stroke:none;" d="M138 32L139 33L138 32z"/>
<path style="fill:#dca3a1; stroke:none;" d="M213 32L214 33L213 32M33 33L34 34L33 33M118 33L119 34L118 33M129 33L130 34L129 33z"/>
<path style="fill:#c45f5d; stroke:none;" d="M215 33L216 34L215 33z"/>
<path style="fill:#dca3a1; stroke:none;" d="M216 33L217 34L216 33M30 34L31 35L30 34z"/>
<path style="fill:#c45f5d; stroke:none;" d="M31 34L32 35L31 34M129 34L130 35L129 34z"/>
<path style="fill:#902626; stroke:none;" d="M139 48L139 49L172 60.6296L192 53.6813L207 46L176 34.7045L139 48z"/>
<path style="fill:#dca3a1; stroke:none;" d="M218 34L219 35L218 34M28 35L29 36L28 35z"/>
<path style="fill:#c45f5d; stroke:none;" d="M119 35L120 36L119 35z"/>
<path style="fill:#dca3a1; stroke:none;" d="M221 35L222 36L221 35M25 36L26 37L25 36M120 36L121 37L120 36M128 36L129 37L128 36z"/>
<path style="fill:#c45f5d; stroke:none;" d="M223 36L224 37L223 36z"/>
<path style="fill:#dca3a1; stroke:none;" d="M224 36L225 37L224 36z"/>
<path style="fill:#c45f5d; stroke:none;" d="M23 37L24 38L23 37M60 37L61 38L60 37z"/>
<path style="fill:#dca3a1; stroke:none;" d="M61 37L61 38L66 38L61 37z"/>
<path style="fill:#fffefe; stroke:none;" d="M66 37.4244C59.7369 38.2391 38.8929 39.3689 41.1219 49.9599C43.5442 61.4693 69.5176 60.7555 78 59.7137C81.0051 59.3447 84.061 58.8292 87 58.1011C95.0627 56.1035 104.936 48.6508 93.9846 42.0856C86.6166 37.6687 74.3751 36.335 66 37.4244z"/>
<path style="fill:#dca3a1; stroke:none;" d="M74 37L74 38L79 38L74 37z"/>
<path style="fill:#c45f5d; stroke:none;" d="M79 37L80 38L79 37z"/>
<path style="fill:#dca3a1; stroke:none;" d="M226 37L227 38L226 37M20 38L21 39L20 38M55.6667 38.3333L56.3333 38.6667L55.6667 38.3333M83.6667 38.3333L84.3333 38.6667L83.6667 38.3333M121 38L122 39L121 38M127 38L128 39L127 38z"/>
<path style="fill:#c45f5d; stroke:none;" d="M228 38L229 39L228 38z"/>
<path style="fill:#dca3a1; stroke:none;" d="M229 38L230 39L229 38M17 39L18 40L17 39z"/>
<path style="fill:#c45f5d; stroke:none;" d="M18 39L19 40L18 39M51 39L52 40L51 39z"/>
<path style="fill:#dca3a1; stroke:none;" d="M52 39L53 40L52 39M87 39L88 40L87 39z"/>
<path style="fill:#c45f5d; stroke:none;" d="M88 39L89 40L88 39z"/>
<path style="fill:#dca3a1; stroke:none;" d="M231 39L232 40L231 39M15 40L16 41L15 40z"/>
<path style="fill:#c45f5d; stroke:none;" d="M48 40L49 41L48 40z"/>
<path style="fill:#dca3a1; stroke:none;" d="M49 40L50 41L49 40M90 40L91 41L90 40z"/>
<path style="fill:#c45f5d; stroke:none;" d="M91 40L92 41L91 40M122 40L123 41L122 40z"/>
<path style="fill:#dca3a1; stroke:none;" d="M234 40L235 41L234 40M12 41L13 42L12 41z"/>
<path style="fill:#c45f5d; stroke:none;" d="M13 41L14 42L13 41z"/>
<path style="fill:#dca3a1; stroke:none;" d="M46 41L47 42L46 41M93 41L94 42L93 41M123 41L124 42L123 41z"/>
<path style="fill:#c45f5d; stroke:none;" d="M126 41L127 42L126 41z"/>
<path style="fill:#dca3a1; stroke:none;" d="M236 41L237 42L236 41M10 42L11 43L10 42z"/>
<path style="fill:#c45f5d; stroke:none;" d="M44 42L45 43L44 42M95 42L96 43L95 42z"/>
<path style="fill:#dca3a1; stroke:none;" d="M238 42L239 43L238 42M7 43L8 44L7 43z"/>
<path style="fill:#c45f5d; stroke:none;" d="M8 43L9 44L8 43z"/>
<path style="fill:#dca3a1; stroke:none;" d="M43 43L44 44L43 43M96 43L97 44L96 43M124.667 43.3333L125.333 43.6667L124.667 43.3333M5 44L6 45L5 44M42 44L43 45L42 44M97 44L98 45L97 44M3 45L4 46L3 45M41 45L42 46L41 45M98 45L99 46L98 45M241 45L242 46L241 45z"/>
<path style="fill:#c45f5d; stroke:none;" d="M2 46L3 47L2 46M40 46L41 47L40 46M99 46L100 47L99 46M1 47L2 48L1 47z"/>
<path style="fill:#dca3a1; stroke:none;" d="M40 47L41 48L40 47M99 47L100 48L99 47M0 48L1 49L0 48z"/>
<path style="fill:#902626; stroke:none;" d="M241 48C229.915 60.4448 207.864 65.4495 193 72.2307C178.458 78.8651 163.534 84.6526 149 91.3086C140.466 95.2166 131.567 101.22 122 101.91C108.825 102.859 94.8192 93.8844 83 88.8503C55.3991 77.0944 25.5556 67.7565 0 52C0 58.7416 -2.36955 71.1039 1.74228 76.7901C7.38172 84.5889 22.489 88.0498 31 91.7191C50.2284 100.009 69.7359 107.644 89 115.85C100.691 120.831 111.841 127.454 125 125.815C133.153 124.799 140.672 119.674 148 116.309C160.223 110.696 172.641 105.455 185 100.15C206.452 90.9432 254.665 80.5652 241 48z"/>
<path style="fill:#dca3a1; stroke:none;" d="M40.3333 49.6667L40.6667 50.3333L40.3333 49.6667M99 50L100 51L99 50z"/>
<path style="fill:#c45f5d; stroke:none;" d="M41 52L42 53L41 52M98 52L99 53L98 52M42 53L43 54L42 53M97 53L98 54L97 53z"/>
<path style="fill:#dca3a1; stroke:none;" d="M44 54L45 55L44 54z"/>
<path style="fill:#c45f5d; stroke:none;" d="M45 55L46 56L45 55M94 55L95 56L94 55M47 56L48 57L47 56M92 56L93 57L92 56z"/>
<path style="fill:#dca3a1; stroke:none;" d="M50 57L51 58L50 57M89 57L90 58L89 57M53.6667 58.3333L54.3333 58.6667L53.6667 58.3333M85.6667 58.3333L86.3333 58.6667L85.6667 58.3333z"/>
<path style="fill:#c45f5d; stroke:none;" d="M57 59L58 60L57 59z"/>
<path style="fill:#dca3a1; stroke:none;" d="M58 59L58 60L61 60L58 59M79 59L79 60L82 60L79 59z"/>
<path style="fill:#c45f5d; stroke:none;" d="M82 59L83 60L82 59M65 60L65 61L75 61L65 60M139 60L141 62L141 60L139 60M133 61L134 62L133 61z"/>
<path style="fill:#dca3a1; stroke:none;" d="M134 61L134 62L137 62L134 61z"/>
<path style="fill:#fffefe; stroke:none;" d="M86 69L86 70C94.8074 72.9795 103.426 76.8264 112 80.4244C115.06 81.7085 119.459 84.6504 122.907 84.0177C129.08 82.885 137.452 66.3633 140 61L86 69z"/>
<path style="fill:#c45f5d; stroke:none;" d="M127 62L128 63L127 62z"/>
<path style="fill:#dca3a1; stroke:none;" d="M128.667 62.3333L129.333 62.6667L128.667 62.3333M139 62L140 63L139 62z"/>
<path style="fill:#c45f5d; stroke:none;" d="M120 63L121 64L120 63z"/>
<path style="fill:#dca3a1; stroke:none;" d="M121 63L121 64L124 64L121 63z"/>
<path style="fill:#c45f5d; stroke:none;" d="M114 64L115 65L114 64z"/>
<path style="fill:#dca3a1; stroke:none;" d="M115.667 64.3333L116.333 64.6667L115.667 64.3333z"/>
<path style="fill:#c45f5d; stroke:none;" d="M107 65L108 66L107 65z"/>
<path style="fill:#dca3a1; stroke:none;" d="M108 65L108 66L111 66L108 65M137 65L138 66L137 65z"/>
<path style="fill:#c45f5d; stroke:none;" d="M101 66L102 67L101 66z"/>
<path style="fill:#dca3a1; stroke:none;" d="M102.667 66.3333L103.333 66.6667L102.667 66.3333z"/>
<path style="fill:#c45f5d; stroke:none;" d="M94 67L95 68L94 67z"/>
<path style="fill:#dca3a1; stroke:none;" d="M95.6667 67.3333L96.3333 67.6667L95.6667 67.3333z"/>
<path style="fill:#c45f5d; stroke:none;" d="M87 68L88 69L87 68z"/>
<path style="fill:#dca3a1; stroke:none;" d="M88 68L88 69L91 69L88 68M135 68L136 69L135 68M85 69L86 70L85 69M134 69L135 70L134 69z"/>
<path style="fill:#c45f5d; stroke:none;" d="M87 70L88 71L87 70z"/>
<path style="fill:#dca3a1; stroke:none;" d="M90 71L91 72L90 71z"/>
<path style="fill:#c45f5d; stroke:none;" d="M133 71L134 72L133 71M241 71L242 72L241 71z"/>
<path style="fill:#dca3a1; stroke:none;" d="M92 72L93 73L92 72M132 72L133 73L132 72M241 72L238 76L241 72z"/>
<path style="fill:#c45f5d; stroke:none;" d="M94 73L95 74L94 73z"/>
<path style="fill:#dca3a1; stroke:none;" d="M95 73L96 74L95 73z"/>
<path style="fill:#fffefe; stroke:none;" d="M241 73L232 81L242 86L241 73z"/>
<path style="fill:#dca3a1; stroke:none;" d="M97 74L98 75L97 74z"/>
<path style="fill:#c45f5d; stroke:none;" d="M131 74L132 75L131 74M0 75L1 76L0 75M99 75L100 76L99 75z"/>
<path style="fill:#dca3a1; stroke:none;" d="M130 75L131 76L130 75z"/>
<path style="fill:#fffefe; stroke:none;" d="M0 76L0 89L10 83L0 76z"/>
<path style="fill:#dca3a1; stroke:none;" d="M102 76L103 77L102 76z"/>
<path style="fill:#c45f5d; stroke:none;" d="M236 76L237 77L236 76z"/>
<path style="fill:#dca3a1; stroke:none;" d="M1 77L2 78L1 77M104 77L105 78L104 77z"/>
<path style="fill:#c45f5d; stroke:none;" d="M129 77L130 78L129 77z"/>
<path style="fill:#dca3a1; stroke:none;" d="M235 77L236 78L235 77z"/>
<path style="fill:#c45f5d; stroke:none;" d="M106 78L107 79L106 78z"/>
<path style="fill:#dca3a1; stroke:none;" d="M107 78L108 79L107 78M128 78L129 79L128 78M233 78L234 79L233 78M4 79L5 80L4 79M109 79L110 80L109 79M231.333 79.6667L231.667 80.3333L231.333 79.6667z"/>
<path style="fill:#c45f5d; stroke:none;" d="M6 80L7 81L6 80M111 80L112 81L111 80z"/>
<path style="fill:#dca3a1; stroke:none;" d="M112 80L113 81L112 80z"/>
<path style="fill:#c45f5d; stroke:none;" d="M127 80L128 81L127 80z"/>
<path style="fill:#c4302a; stroke:none;" d="M229 80.8472C220.857 81.9839 211.586 88.3417 204 91.5787C185.286 99.5638 166.583 107.579 148 115.861C140.039 119.409 131.891 125.181 123 125.907C112.394 126.772 103.453 121.612 94 117.579C78.399 110.922 62.7485 104.301 47 98C36.5393 93.8149 24.1208 85.5502 13 83.9985C8.94614 83.4328 1.50428 86.3423 0.921296 91.0008C0.305232 95.9236 8.50274 99.0407 12 100.575C25.2517 106.388 38.6589 111.826 52 117.424C65.6618 123.157 79.3716 128.764 93 134.579C100.247 137.671 108.031 142.264 116 142.907C129.571 144.002 140.089 136.606 152 131.424C171.653 122.874 191.396 114.521 211 105.86C219.885 101.935 231.469 98.6932 238.768 92.0725C245.405 86.0524 234.841 80.0318 229 80.8472z"/>
<path style="fill:#dca3a1; stroke:none;" d="M7 81L8 82L7 81M114 81L115 82L114 81M126 81L127 82L126 81z"/>
<path style="fill:#c45f5d; stroke:none;" d="M233 81L234 82L233 81z"/>
<path style="fill:#dca3a1; stroke:none;" d="M234 81L235 82L234 81M9 82L11 84L9 82z"/>
<path style="fill:#c45f5d; stroke:none;" d="M10 82L11 83L10 82M116 82L117 83L116 82z"/>
<path style="fill:#dca3a1; stroke:none;" d="M236 82L237 83L236 82M119 83L120 84L119 83M238 83L239 84L238 83M7 84L8 85L7 84z"/>
<path style="fill:#c45f5d; stroke:none;" d="M8 84L9 85L8 84z"/>
<path style="fill:#dca3a1; stroke:none;" d="M121 84L122 85L121 84M124 84L125 85L124 84M5 85L6 86L5 85z"/>
<path style="fill:#c45f5d; stroke:none;" d="M123 85L124 86L123 85z"/>
<path style="fill:#dca3a1; stroke:none;" d="M241 86L242 87L241 86M2 87L3 88L2 87z"/>
<path style="fill:#c45f5d; stroke:none;" d="M1 88L2 89L1 88z"/>
<path style="fill:#dca3a1; stroke:none;" d="M0 89L1 90L0 89z"/>
<path style="fill:#902626; stroke:none;" d="M241 89C229.316 102.117 204.89 108.242 189 115C175.642 120.681 162.191 126.253 149 132.309C140.36 136.275 131.731 142.208 122 142.91C108.712 143.868 94.8872 134.914 83 129.85C55.3728 118.081 25.5905 108.778 0 93C0 99.8134 -2.3428 112.03 1.74228 117.815C7.25725 125.624 22.4655 129.348 31 132.799C51.4181 141.057 71.5842 149.937 92 158.201C102.218 162.337 111.563 168.235 123 167.09C132.133 166.177 139.84 161.055 148 157.309C160.211 151.702 172.663 146.605 185 141.281C206.437 132.03 254.633 121.49 241 89z"/>
<path style="fill:#c45f5d; stroke:none;" d="M241 112L242 113L241 112z"/>
<path style="fill:#dca3a1; stroke:none;" d="M241 113L242 114L241 113z"/>
<path style="fill:#c45f5d; stroke:none;" d="M240 114L239 116L240 114z"/>
<path style="fill:#fffefe; stroke:none;" d="M241 114L233 120L242 125L241 114z"/>
<path style="fill:#c45f5d; stroke:none;" d="M0 116L1 117L0 116z"/>
<path style="fill:#dca3a1; stroke:none;" d="M238 116L239 117L238 116z"/>
<path style="fill:#fffefe; stroke:none;" d="M0 117L0 129L9 124L9 123L0 117z"/>
<path style="fill:#c45f5d; stroke:none;" d="M236 117L237 118L236 117z"/>
<path style="fill:#dca3a1; stroke:none;" d="M1 118L2 119L1 118M235 118L236 119L235 118M233 119L234 120L233 119z"/>
<path style="fill:#c45f5d; stroke:none;" d="M4 120L5 121L4 120z"/>
<path style="fill:#c4302a; stroke:none;" d="M231 120.966C223.595 121.767 214.864 127.901 208 130.85C188.306 139.309 168.645 147.854 149 156.424C140.242 160.245 131.848 166.251 122.09 167.04C112.127 167.845 103.881 162.705 95 159.012C79.3284 152.494 63.6508 145.992 48 139.424C36.6475 134.661 24.8525 128.201 13 124.92C9.04821 123.826 2.05546 125.336 0.970679 130.09C-0.232922 135.365 8.39005 138.527 12 140.139C25.5423 146.187 39.3267 151.687 53 157.424C66.6618 163.157 80.3716 168.764 94 174.579C101.241 177.668 109.036 182.276 117 182.907C130.012 183.937 142.604 175.43 154 170.231C172.52 161.782 191.381 154.086 210 145.86C219.031 141.87 230.146 138.57 237.938 132.363C244.469 127.159 237.668 120.245 231 120.966z"/>
<path style="fill:#c45f5d; stroke:none;" d="M232 120L233 121L232 120z"/>
<path style="fill:#dca3a1; stroke:none;" d="M235 121L236 122L235 121M7 122L8 123L7 122M237 122L238 123L237 122z"/>
<path style="fill:#c45f5d; stroke:none;" d="M9 123L10 124L9 123z"/>
<path style="fill:#dca3a1; stroke:none;" d="M6 124L7 125L6 124z"/>
<path style="fill:#c45f5d; stroke:none;" d="M7 124L8 125L7 124z"/>
<path style="fill:#dca3a1; stroke:none;" d="M240 124L241 125L240 124M4 125L5 126L4 125z"/>
<path style="fill:#c45f5d; stroke:none;" d="M5 125L6 126L5 125z"/>
<path style="fill:#dca3a1; stroke:none;" d="M241 125L242 126L241 125z"/>
<path style="fill:#c45f5d; stroke:none;" d="M3 126L4 127L3 126M241 126L242 127L241 126M0 129L1 130L0 129z"/>
<path style="fill:#902626; stroke:none;" d="M241 129C232.345 136.769 220.554 140.846 210 145.424C191.336 153.52 172.509 161.325 154 169.769C143.275 174.662 130.226 183.74 118 182.903C110.067 182.36 102.198 177.65 95 174.579C81.0408 168.622 67.0285 162.8 53 157.011C37.7474 150.716 11.7075 144.922 1 132L0 132C0 138.762 -2.52287 151.933 1.74228 157.532C7.38405 164.939 21.7095 168.152 30 171.719C49.9014 180.281 70.105 188.142 90 196.719C99.8297 200.957 110.914 207.963 122 206.826C142.432 204.729 165.141 189.021 184 181C196.034 175.882 207.979 170.566 220 165.421C226.229 162.755 234.989 159.868 239.566 154.671C243.793 149.874 243.367 134.642 241 129z"/>
<path style="fill:#dca3a1; stroke:none;" d="M241 152L242 153L241 152z"/>
<path style="fill:#fffefe; stroke:none;" d="M241 153C229.316 166.117 204.89 172.242 189 179C174.951 184.975 160.874 190.938 147 197.309C138.977 200.993 131.032 206.259 122 206.91C108.712 207.868 94.8873 198.914 83 193.85C55.3719 182.081 25.5923 172.779 0 157L0 208L242 208L242 171L241 153z"/>
<path style="fill:#dca3a1; stroke:none;" d="M240 154L241 155L240 154M0 156L1 157L0 156z"/>
<path style="fill:#c45f5d; stroke:none;" d="M237 156L238 157L237 156z"/>
<path style="fill:#dca3a1; stroke:none;" d="M236 157L237 158L236 157z"/>
<path style="fill:#c45f5d; stroke:none;" d="M2 158L3 159L2 158z"/>
<path style="fill:#dca3a1; stroke:none;" d="M234 158L235 159L234 158M3 159L4 160L3 159z"/>
<path style="fill:#c45f5d; stroke:none;" d="M232 159L233 160L232 159M230 160L231 161L230 160z"/>
<path style="fill:#dca3a1; stroke:none;" d="M6 161L7 162L6 161z"/>
<path style="fill:#c45f5d; stroke:none;" d="M228 161L229 162L228 161z"/>
<path style="fill:#dca3a1; stroke:none;" d="M8 162L9 163L8 162M226 162L227 163L226 162M10 163L11 164L10 163M224 163L225 164L224 163M12 164L13 165L12 164z"/>
<path style="fill:#c45f5d; stroke:none;" d="M13 164L14 165L13 164z"/>
<path style="fill:#dca3a1; stroke:none;" d="M222 164L223 165L222 164z"/>
<path style="fill:#c45f5d; stroke:none;" d="M15 165L16 166L15 165M219 165L220 166L219 165z"/>
<path style="fill:#dca3a1; stroke:none;" d="M220 165L221 166L220 165M17 166L18 167L17 166z"/>
<path style="fill:#c45f5d; stroke:none;" d="M217 166L218 167L217 166z"/>
<path style="fill:#dca3a1; stroke:none;" d="M19 167L20 168L19 167z"/>
<path style="fill:#c45f5d; stroke:none;" d="M20 167L21 168L20 167z"/>
<path style="fill:#dca3a1; stroke:none;" d="M215 167L216 168L215 167z"/>
<path style="fill:#c45f5d; stroke:none;" d="M22 168L23 169L22 168M212 168L213 169L212 168z"/>
<path style="fill:#dca3a1; stroke:none;" d="M213 168L214 169L213 168M24 169L25 170L24 169z"/>
<path style="fill:#c45f5d; stroke:none;" d="M210 169L211 170L210 169z"/>
<path style="fill:#dca3a1; stroke:none;" d="M26 170L27 171L26 170z"/>
<path style="fill:#c45f5d; stroke:none;" d="M27 170L28 171L27 170z"/>
<path style="fill:#dca3a1; stroke:none;" d="M208 170L209 171L208 170z"/>
<path style="fill:#c45f5d; stroke:none;" d="M29 171L30 172L29 171z"/>
<path style="fill:#dca3a1; stroke:none;" d="M206 171L207 172L206 171M31 172L32 173L31 172z"/>
<path style="fill:#c45f5d; stroke:none;" d="M203 172L204 173L203 172z"/>
<path style="fill:#dca3a1; stroke:none;" d="M204 172L205 173L204 172M33 173L34 174L33 173z"/>
<path style="fill:#c45f5d; stroke:none;" d="M34 173L35 174L34 173z"/>
<path style="fill:#dca3a1; stroke:none;" d="M201 173L202 174L201 173M36 174L37 175L36 174M199 174L200 175L199 174M38 175L39 176L38 175z"/>
<path style="fill:#c45f5d; stroke:none;" d="M39 175L40 176L39 175M196 175L197 176L196 175z"/>
<path style="fill:#dca3a1; stroke:none;" d="M197 175L198 176L197 175z"/>
<path style="fill:#c45f5d; stroke:none;" d="M41 176L42 177L41 176M194 176L195 177L194 176z"/>
<path style="fill:#dca3a1; stroke:none;" d="M43 177L44 178L43 177M192 177L193 178L192 177M45 178L46 179L45 178z"/>
<path style="fill:#c45f5d; stroke:none;" d="M46 178L47 179L46 178M189 178L190 179L189 178z"/>
<path style="fill:#dca3a1; stroke:none;" d="M190 178L191 179L190 178M48 179L49 180L48 179z"/>
<path style="fill:#c45f5d; stroke:none;" d="M187 179L188 180L187 179z"/>
<path style="fill:#dca3a1; stroke:none;" d="M50 180L51 181L50 180z"/>
<path style="fill:#c45f5d; stroke:none;" d="M51 180L52 181L51 180z"/>
<path style="fill:#dca3a1; stroke:none;" d="M185 180L186 181L185 180z"/>
<path style="fill:#c45f5d; stroke:none;" d="M53 181L54 182L53 181M182 181L183 182L182 181z"/>
<path style="fill:#dca3a1; stroke:none;" d="M183 181L184 182L183 181M55 182L56 183L55 182z"/>
<path style="fill:#c45f5d; stroke:none;" d="M180 182L181 183L180 182z"/>
<path style="fill:#dca3a1; stroke:none;" d="M57 183L58 184L57 183z"/>
<path style="fill:#c45f5d; stroke:none;" d="M58 183L59 184L58 183z"/>
<path style="fill:#dca3a1; stroke:none;" d="M178 183L179 184L178 183M60 184L61 185L60 184z"/>
<path style="fill:#c45f5d; stroke:none;" d="M175 184L176 185L175 184z"/>
<path style="fill:#dca3a1; stroke:none;" d="M176 184L177 185L176 184M62 185L63 186L62 185z"/>
<path style="fill:#c45f5d; stroke:none;" d="M63 185L64 186L63 185M173 185L174 186L173 185M65 186L66 187L65 186z"/>
<path style="fill:#dca3a1; stroke:none;" d="M171 186L172 187L171 186M67 187L68 188L67 187z"/>
<path style="fill:#c45f5d; stroke:none;" d="M168 187L169 188L168 187z"/>
<path style="fill:#dca3a1; stroke:none;" d="M169 187L170 188L169 187M69 188L70 189L69 188z"/>
<path style="fill:#c45f5d; stroke:none;" d="M70 188L71 189L70 188M166 188L167 189L166 188z"/>
<path style="fill:#dca3a1; stroke:none;" d="M72 189L73 190L72 189M164 189L165 190L164 189M74 190L75 191L74 190z"/>
<path style="fill:#c45f5d; stroke:none;" d="M75 190L76 191L75 190z"/>
<path style="fill:#dca3a1; stroke:none;" d="M162 190L163 191L162 190M77 191L78 192L77 191z"/>
<path style="fill:#c45f5d; stroke:none;" d="M159 191L160 192L159 191z"/>
<path style="fill:#dca3a1; stroke:none;" d="M160 191L161 192L160 191M79 192L80 193L79 192M157 192L158 193L157 192z"/>
<path style="fill:#c45f5d; stroke:none;" d="M82 193L83 194L82 193z"/>
<path style="fill:#dca3a1; stroke:none;" d="M155 193L156 194L155 193M84 194L85 195L84 194z"/>
<path style="fill:#c45f5d; stroke:none;" d="M152 194L153 195L152 194z"/>
<path style="fill:#dca3a1; stroke:none;" d="M153 194L154 195L153 194M86 195L87 196L86 195z"/>
<path style="fill:#c45f5d; stroke:none;" d="M87 195L88 196L87 195M150 195L151 196L150 195z"/>
<path style="fill:#dca3a1; stroke:none;" d="M151 195L152 196L151 195z"/>
<path style="fill:#c45f5d; stroke:none;" d="M89 196L90 197L89 196z"/>
<path style="fill:#dca3a1; stroke:none;" d="M148 196L149 197L148 196M91 197L92 198L91 197M146 197L147 198L146 197M93 198L94 199L93 198z"/>
<path style="fill:#c45f5d; stroke:none;" d="M94 198L95 199L94 198z"/>
<path style="fill:#dca3a1; stroke:none;" d="M144 198L145 199L144 198M96 199L97 200L96 199M142 199L143 200L142 199M98 200L99 201L98 200M140 200L141 201L140 200M100 201L101 202L100 201z"/>
<path style="fill:#c45f5d; stroke:none;" d="M101 201L102 202L101 201z"/>
<path style="fill:#dca3a1; stroke:none;" d="M138 201L139 202L138 201z"/>
<path style="fill:#c45f5d; stroke:none;" d="M103 202L104 203L103 202z"/>
<path style="fill:#dca3a1; stroke:none;" d="M136 202L137 203L136 202M105 203L106 204L105 203z"/>
<path style="fill:#c45f5d; stroke:none;" d="M133 203L134 204L133 203z"/>
<path style="fill:#dca3a1; stroke:none;" d="M134 203L135 204L134 203M107 204L108 205L107 204M131 204L132 205L131 204M110 205L111 206L110 205z"/>
<path style="fill:#c45f5d; stroke:none;" d="M128 205L129 206L128 205z"/>
<path style="fill:#dca3a1; stroke:none;" d="M129 205L130 206L129 205M113 206L114 207L113 206z"/>
<path style="fill:#c45f5d; stroke:none;" d="M114 206L115 207L114 206M124 206L125 207L124 206z"/>
<path style="fill:#dca3a1; stroke:none;" d="M125 206L126 207L125 206z"/>
</svg>
