<svg width="250" height="250" viewBox="0 0 250 250" fill="none" xmlns="http://www.w3.org/2000/svg">
<g clip-path="url(#clip0_2_7349)">
<path d="M125.5 159.691L176.32 171.733V76.9991L125.5 89.0412V159.691Z" fill="#205B97"/>
<path d="M176.32 76.9991L186 81.816V166.916L176.32 171.733V76.9991ZM125.5 159.691L74.6802 171.733V76.9991L125.5 89.0412V159.691Z" fill="#5193CE"/>
<path d="M74.68 76.9991L65 81.816V166.916L74.68 171.733V76.9991Z" fill="#205B97"/>
<path d="M138.409 191L157.769 181.366V67.6337L138.409 58L132.49 121.156L138.409 191Z" fill="#5193CE"/>
<path d="M112.591 191L93.231 181.366V67.6337L112.591 58L118.51 121.156L112.591 191Z" fill="#205B97"/>
<path d="M112.591 58H138.671V190.732H112.591V58Z" fill="#2E73B7"/>
</g>
<defs>
<clipPath id="clip0_2_7349">
<rect width="121" height="133" fill="white" transform="translate(65 58)"/>
</clipPath>
</defs>
</svg>
