<?xml version="1.0" encoding="UTF-8" standalone="no"?>
<svg
   id="svg"
   version="1.1"
   width="116.33098"
   height="100.04555"
   viewBox="0 0 116.33098 100.04555"
   sodipodi:docname="retently.svg"
   inkscape:version="1.2.1 (9c6d41e410, 2022-07-14, custom)"
   xmlns:inkscape="http://www.inkscape.org/namespaces/inkscape"
   xmlns:sodipodi="http://sodipodi.sourceforge.net/DTD/sodipodi-0.dtd"
   xmlns="http://www.w3.org/2000/svg"
   xmlns:svg="http://www.w3.org/2000/svg">
  <defs
     id="defs1201" />
  <sodipodi:namedview
     id="namedview1199"
     pagecolor="#ffffff"
     bordercolor="#666666"
     borderopacity="1.0"
     inkscape:showpageshadow="2"
     inkscape:pageopacity="0.0"
     inkscape:pagecheckerboard="0"
     inkscape:deskcolor="#d1d1d1"
     showgrid="false"
     inkscape:zoom="2.5675"
     inkscape:cx="182.66796"
     inkscape:cy="48.685492"
     inkscape:window-width="3840"
     inkscape:window-height="2083"
     inkscape:window-x="0"
     inkscape:window-y="40"
     inkscape:window-maximized="1"
     inkscape:current-layer="svgg" />
  <g
     id="svgg"
     transform="translate(-17.281896,-151.19434)">
    <path
       id="path0"
       d="m 76.923,151.629 c 1.582,0.236 3.147,0.567 3.477,0.735 0.33,0.169 1.68,0.627 3,1.018 3.815,1.13 5.954,1.917 6.6,2.428 0.33,0.261 1.5,0.901 2.6,1.422 1.1,0.522 2.591,1.448 3.314,2.058 0.723,0.611 1.546,1.11 1.83,1.11 0.283,0 1.942,1.363 3.686,3.028 4.858,4.64 4.447,4.489 7.65,2.815 6.327,-3.307 16.338,-3.554 18.901,-0.466 0.284,0.343 0.734,0.623 0.998,0.623 0.265,0 0.843,0.405 1.285,0.9 4.462,5 4.465,11.458 0.01,20.082 -1.125,2.177 -7.26,8.217 -9.574,9.425 l -1.9,0.992 -0.014,2.4 c -0.017,2.887 -0.646,9.308 -1.156,11.801 -0.985,4.821 -6.131,16.8 -7.217,16.8 -0.177,0 -0.64,0.675 -1.028,1.5 -0.894,1.899 -10.01,10.99 -11.938,11.904 -0.796,0.378 -1.447,0.853 -1.447,1.056 0,0.491 -9.313,4.938 -11.6,5.539 -0.99,0.26 -2.34,0.705 -3,0.989 -4.492,1.93 -21.48,1.938 -26,0.011 -0.66,-0.281 -2.19,-0.818 -3.4,-1.194 -3.988,-1.238 -13.298,-6.329 -14.419,-7.886 -0.12,-0.167 -1.04,-0.892 -2.044,-1.611 -3.781,-2.709 -10.894,-12.134 -12.761,-16.908 -0.516,-1.32 -1.172,-2.684 -1.457,-3.031 -0.286,-0.348 -0.519,-0.834 -0.519,-1.082 0,-0.247 -0.613,-0.741 -1.363,-1.096 -1.888,-0.896 -2.388,-2.322 -2.063,-5.884 0.145,-1.599 0.402,-5.787 0.571,-9.307 0.169,-3.52 0.513,-7.21 0.764,-8.2 0.251,-0.99 0.834,-3.503 1.295,-5.585 0.461,-2.081 0.994,-3.971 1.183,-4.2 0.19,-0.228 0.815,-1.664 1.39,-3.191 0.574,-1.528 1.49,-3.361 2.034,-4.074 0.544,-0.713 0.989,-1.391 0.989,-1.506 0,-0.607 3.938,-5.803 5.982,-7.893 0.78,-0.797 1.661,-1.697 1.958,-2 1.669,-1.703 3.465,-3.191 5.532,-4.583 1.28,-0.862 2.418,-1.679 2.528,-1.814 0.11,-0.136 1.01,-0.652 2,-1.147 0.99,-0.495 2.07,-1.133 2.4,-1.417 0.33,-0.284 2.31,-1.081 4.4,-1.771 2.09,-0.691 4.34,-1.447 5,-1.682 4.019,-1.43 15.427,-2.017 21.523,-1.108 M 63,157.845 c -2.654,0.279 -7.369,1.381 -7.616,1.781 -0.127,0.205 -0.566,0.374 -0.976,0.374 -1.141,0 -6.937,2.553 -8.497,3.742 -0.762,0.582 -1.568,1.058 -1.79,1.058 -0.893,0 -11.317,10.079 -11.325,10.95 -0.002,0.247 -0.622,1.228 -1.377,2.178 -0.756,0.95 -1.685,2.57 -2.064,3.6 -0.38,1.03 -0.919,2.144 -1.199,2.477 -0.582,0.693 -2.993,9.044 -3.261,11.295 -0.268,2.248 0.993,2.007 2.489,-0.475 1.251,-2.074 2.278,-3.612 3.477,-5.202 2.224,-2.952 8.022,-8.449 9.939,-9.424 2.243,-1.141 3.718,-2.493 4.619,-4.236 3.999,-7.733 12.876,-8.628 13.258,-1.336 0.222,4.239 0.385,4.875 1.324,5.173 1.245,0.395 4.336,4.467 4.802,6.327 0.231,0.92 0.729,2.213 1.107,2.873 0.58,1.015 0.692,2.41 0.723,9.035 0.035,7.473 0.076,7.874 0.902,8.7 1.025,1.025 1.054,1.029 1.96,0.291 2.516,-2.049 4.49,-3.512 5.705,-4.225 0.77,-0.452 2.39,-1.635 3.6,-2.63 1.21,-0.994 3.415,-2.619 4.9,-3.609 1.485,-0.99 2.7,-1.968 2.7,-2.173 0,-0.205 0.72,-0.74 1.6,-1.189 0.88,-0.449 1.6,-0.981 1.6,-1.183 0,-0.201 0.718,-0.769 1.596,-1.263 1.649,-0.927 1.757,-1.109 2.196,-3.7 0.878,-5.188 3.902,-11.567 6.524,-13.761 L 101,172.386 98.2,169.75 c -2.65,-2.494 -3.643,-3.261 -7.553,-5.833 -2.15,-1.414 -5.198,-2.839 -7.447,-3.481 -0.99,-0.283 -2.16,-0.707 -2.6,-0.943 -2.193,-1.178 -12.704,-2.162 -17.6,-1.648 m -23.734,29.771 c -1.659,1.012 -6.866,6.25 -6.866,6.908 0,0.267 -0.638,1.203 -1.418,2.08 -1.329,1.495 -1.408,1.735 -1.249,3.796 0.244,3.161 -0.398,6.593 -1.754,9.372 -1.521,3.116 -1.485,4.411 0.221,8.055 0.77,1.645 1.4,3.105 1.4,3.244 0,0.139 0.42,0.81 0.934,1.491 0.513,0.681 1.419,2.074 2.013,3.096 3.488,6.001 14.121,13.9 21.715,16.13 1.286,0.378 2.968,0.939 3.738,1.248 4.252,1.702 15.642,1.456 21.525,-0.464 1.637,-0.535 3.171,-0.972 3.408,-0.972 0.617,0 9.188,-4.383 9.667,-4.943 0.22,-0.258 0.902,-0.789 1.515,-1.181 1.788,-1.145 7.455,-6.731 8.387,-8.268 0.47,-0.774 1.091,-1.553 1.38,-1.73 0.289,-0.177 0.803,-0.985 1.141,-1.795 0.338,-0.809 0.949,-1.835 1.356,-2.278 0.408,-0.443 1.331,-2.605 2.051,-4.805 0.72,-2.2 1.53,-4.54 1.799,-5.2 0.599,-1.467 1.544,-9.596 1.184,-10.179 -0.15,-0.243 -1.744,-0.421 -3.759,-0.421 -3.66,0 -7.914,-1.068 -8.877,-2.228 -0.637,-0.767 -1.101,-0.721 -2.121,0.21 -1.39,1.269 -4.314,3.359 -6.397,4.57 -1.067,0.621 -2.249,1.426 -2.627,1.789 -0.864,0.83 -4.19,3.189 -6.032,4.277 -0.77,0.455 -2.294,1.512 -3.387,2.348 -1.093,0.836 -2.398,1.676 -2.9,1.867 -0.502,0.191 -0.913,0.508 -0.913,0.704 0,0.196 -0.694,0.816 -1.541,1.377 -1.449,0.959 -1.558,1.172 -1.807,3.553 -0.287,2.739 -1.039,5.28 -1.785,6.026 -0.257,0.257 -0.467,0.673 -0.467,0.925 0,1.027 -3.276,5.43 -4.881,6.558 -0.945,0.666 -1.952,1.408 -2.238,1.65 -1.338,1.136 -5.823,1.556 -7.955,0.746 -7.721,-2.936 -7.077,-19.409 1.029,-26.331 4.589,-3.919 4.169,-2.9 3.944,-9.571 -0.209,-6.157 -0.572,-7.812 -2.197,-9.999 -1.453,-1.957 -1.959,-1.981 -3.69,-0.18 -5.014,5.219 -11.212,4.627 -11.212,-1.071 0,-1.439 -0.495,-1.525 -2.334,-0.404"
       stroke="none"
       fill="#fbfbfb"
       fill-rule="evenodd"
       sodipodi:nodetypes="cccsccscccsccccccsccsccccccccsccsscccssccscsscccccscscccccccccccccsscccssssccccccccccsccccscccccscccsccscsscccccsssccsscccccccsc" />
    <path
       id="path1"
       d="m 63.464,152.06 c -2.384,0.196 -4.85,0.623 -5.48,0.948 -0.629,0.326 -1.47,0.592 -1.869,0.592 -1.187,0 -6.795,1.895 -9.033,3.053 -1.145,0.592 -2.667,1.354 -3.382,1.695 -0.715,0.34 -1.3,0.744 -1.3,0.897 0,0.153 -0.988,0.836 -2.195,1.517 -2.666,1.505 -8.994,7.493 -10.699,10.124 -0.683,1.053 -1.357,1.914 -1.5,1.914 -0.142,0 -0.683,0.765 -1.202,1.7 -0.519,0.935 -1.327,2.24 -1.794,2.9 -0.468,0.66 -1.088,1.92 -1.378,2.8 -0.29,0.88 -0.959,2.5 -1.486,3.6 -0.875,1.825 -1.696,5.471 -2.99,13.28 -0.28,1.691 -0.37,4.139 -0.219,5.931 0.16,1.894 0.097,3.352 -0.167,3.845 -0.234,0.437 -0.528,2.378 -0.653,4.314 -0.251,3.876 -0.079,4.256 2.575,5.685 0.807,0.435 1.382,1.175 1.71,2.2 1.08,3.379 4.716,10.02 5.841,10.665 0.306,0.176 0.557,0.498 0.557,0.717 0,0.602 5.153,6.389 6.986,7.845 0.888,0.705 1.948,1.579 2.356,1.942 0.649,0.577 3.486,2.629 4.799,3.47 1.838,1.178 9.301,4.312 11.259,4.728 1.32,0.28 2.858,0.736 3.418,1.012 3.135,1.546 17.622,1.541 21.951,-0.008 2.705,-0.967 4.289,-1.426 4.922,-1.426 0.35,0 1.507,-0.437 2.572,-0.97 1.065,-0.534 3.332,-1.627 5.037,-2.428 1.705,-0.802 3.1,-1.586 3.1,-1.744 0,-0.157 0.585,-0.627 1.3,-1.044 2.624,-1.532 4.752,-3.447 10.238,-9.214 0.628,-0.66 1.626,-2.055 2.219,-3.1 0.592,-1.045 1.225,-1.9 1.405,-1.9 0.181,0 0.812,-1.035 1.403,-2.3 0.591,-1.265 1.389,-2.84 1.773,-3.5 0.649,-1.115 1.209,-2.73 2.15,-6.2 0.209,-0.77 0.568,-1.94 0.799,-2.6 0.696,-1.988 1.458,-8.167 1.486,-12.052 l 0.027,-3.653 2.232,-1.129 c 4.414,-2.233 9.27,-8.168 11.61,-14.19 2.741,-7.054 -0.412,-14.68 -7.013,-16.963 -3.253,-1.125 -11.452,-0.55 -12.907,0.905 -0.265,0.265 -0.685,0.482 -0.934,0.482 -0.249,0 -1.338,0.449 -2.42,0.998 -2.834,1.438 -2.523,1.562 -7.243,-2.909 -2.812,-2.663 -6.878,-5.538 -9.525,-6.734 -0.88,-0.398 -1.87,-0.927 -2.2,-1.175 -0.82,-0.617 -4.569,-1.999 -7,-2.581 -1.1,-0.263 -2.64,-0.715 -3.422,-1.005 -0.783,-0.289 -2.943,-0.638 -4.8,-0.775 -1.858,-0.137 -4.098,-0.309 -4.978,-0.382 -0.88,-0.074 -3.551,0.027 -5.936,0.223 m 12.236,5.378 c 2.035,0.35 4.42,0.907 5.3,1.237 0.88,0.33 2.514,0.924 3.631,1.319 4.716,1.67 9.845,5.055 14.594,9.63 2.774,2.672 2.763,2.627 1.075,4.483 -3.455,3.799 -4.867,6.831 -5.552,11.926 -0.5,3.71 -0.618,3.868 -5.218,6.982 -1.469,0.994 -2.729,1.948 -2.8,2.119 -0.072,0.172 -1.12,0.971 -2.33,1.775 -1.21,0.805 -2.83,2.018 -3.6,2.696 -0.77,0.677 -2.57,2.018 -4,2.979 -1.43,0.961 -3.036,2.213 -3.57,2.782 -0.533,0.569 -1.177,1.034 -1.43,1.034 -0.253,0 -0.883,0.45 -1.4,1 -1.214,1.292 -2.197,1.264 -3.562,-0.101 l -1.101,-1.1 0.183,-6.669 c 0.146,-5.328 0.057,-7.057 -0.441,-8.6 -0.343,-1.061 -0.847,-2.74 -1.12,-3.73 -0.613,-2.221 -3.173,-5.696 -5.053,-6.858 -1.393,-0.861 -1.403,-0.887 -1.174,-3.103 0.948,-9.192 -7.563,-8.884 -13,0.47 -0.828,1.425 -1.548,2.058 -3.2,2.816 -3.401,1.559 -11.324,9.776 -12.994,13.475 -0.864,1.914 -2.655,3.6 -3.823,3.6 h -1.218 l 0.284,-2.882 c 0.156,-1.586 0.539,-3.377 0.851,-3.981 0.313,-0.603 0.568,-1.409 0.568,-1.791 0,-0.932 1.579,-5.396 2.174,-6.146 0.262,-0.33 0.813,-1.41 1.225,-2.4 0.412,-0.99 1.053,-2.16 1.426,-2.6 0.372,-0.44 1.161,-1.581 1.753,-2.535 3.107,-5.008 12.303,-12.485 18.022,-14.655 1.54,-0.584 3.34,-1.307 4,-1.606 4.384,-1.987 14.698,-2.738 21.5,-1.566 m 42.873,16.83 c 6.766,3.226 0.529,15.498 -8.343,16.414 -7.177,0.74 -10.002,-5.271 -5.537,-11.782 0.792,-1.155 1.646,-2.1 1.899,-2.1 0.252,0 0.957,-0.521 1.567,-1.158 0.974,-1.015 2.049,-1.467 5.241,-2.2 1.243,-0.285 3.649,0.099 5.173,0.826 M 53.079,176.2 c 1.161,0.813 1.528,2.693 0.799,4.089 -0.319,0.611 -0.81,1.601 -1.091,2.2 -1.69,3.606 -5.626,5.299 -6.723,2.892 -1.937,-4.252 3.637,-11.547 7.015,-9.181 m -10.663,11.782 c 0.492,4.828 6.356,5.148 9.871,0.54 3.705,-4.857 7.268,0.953 7.299,11.902 0.016,5.669 0.137,5.377 -3.437,8.311 -8.871,7.284 -9.729,23.459 -1.374,25.905 1.96,0.574 5.483,0.112 6.225,-0.817 0.22,-0.275 0.962,-0.791 1.649,-1.146 3.191,-1.648 7.276,-8.99 7.659,-13.765 0.172,-2.143 0.366,-2.67 1.188,-3.236 0.541,-0.372 1.662,-1.261 2.492,-1.976 0.83,-0.715 1.693,-1.3 1.918,-1.3 0.226,0 0.834,-0.447 1.352,-0.993 0.518,-0.546 1.081,-0.996 1.252,-1 0.357,-0.008 4.39,-2.738 4.69,-3.175 0.11,-0.16 0.965,-0.716 1.9,-1.235 0.935,-0.52 1.7,-1.076 1.7,-1.236 0,-0.161 1.162,-0.942 2.582,-1.736 1.421,-0.795 2.696,-1.627 2.834,-1.851 0.138,-0.224 1.001,-0.878 1.918,-1.454 0.916,-0.576 1.901,-1.379 2.189,-1.784 0.66,-0.93 1.701,-0.937 2.923,-0.02 2.041,1.532 3.321,1.842 7.901,1.915 3.353,0.054 4.637,0.217 4.89,0.621 0.577,0.921 -0.477,11.081 -1.259,12.148 -0.162,0.22 -0.86,2.11 -1.553,4.2 -0.692,2.09 -1.791,4.549 -2.442,5.465 -0.65,0.916 -1.183,1.835 -1.183,2.042 0,0.207 -0.405,0.818 -0.9,1.358 -0.495,0.54 -1.531,1.89 -2.302,2.999 -1.984,2.856 -8.822,8.626 -12.315,10.393 -1.605,0.812 -3.007,1.62 -3.116,1.797 -0.11,0.177 -1.657,0.782 -3.44,1.345 -1.782,0.563 -3.44,1.153 -3.684,1.312 -1.914,1.245 -15.539,1.72 -20.443,0.713 -3.19,-0.655 -9.702,-2.885 -10.6,-3.63 -0.33,-0.273 -1.905,-1.166 -3.5,-1.984 -1.595,-0.818 -2.9,-1.644 -2.9,-1.836 0,-0.191 -0.432,-0.579 -0.961,-0.861 -0.935,-0.5 -4.792,-4.096 -7.27,-6.78 -1.417,-1.534 -5.369,-7.572 -5.369,-8.202 0,-0.233 -0.329,-0.852 -0.731,-1.377 -0.402,-0.525 -1.141,-2.247 -1.641,-3.827 l -0.911,-2.872 1.429,-2.857 c 1.664,-3.325 2.423,-6.916 2.044,-9.671 -0.271,-1.969 0.036,-2.827 1.663,-4.654 0.33,-0.37 1.102,-1.456 1.715,-2.413 1.873,-2.921 8.136,-7.914 9.432,-7.519 0.22,0.067 0.497,1.076 0.616,2.241 m -16.415,15.019 c 1.453,1.751 -0.989,7.929 -3.517,8.899 -1.159,0.445 -2.186,-1.463 -2,-3.712 0.323,-3.886 3.846,-7.2 5.517,-5.187 m 36.514,10.603 c 3.675,2.892 2.15,10.272 -2.716,13.144 -1.98,1.168 -2.857,1.074 -4.403,-0.472 -4.788,-4.788 1.933,-16.751 7.119,-12.672"
       stroke="none"
       fill="#404c9c"
       fill-rule="evenodd"
       sodipodi:nodetypes="ccsccsccsscscccsccccsccccccsccscccssccccccscssccccccccccsccccccccscsccccccsccccscccscsccccccccscccccccccccccccccssscccscsccccccccsscccccscssccssccccccccccccccsc" />
    <path
       id="path2"
       d="m 113.4,173.442 c -3.192,0.733 -4.267,1.185 -5.241,2.2 -0.61,0.637 -1.315,1.158 -1.567,1.158 -0.253,0 -1.107,0.945 -1.899,2.1 -4.465,6.511 -1.64,12.522 5.537,11.782 4.995,-0.516 9.839,-4.783 10.921,-9.62 1.076,-4.807 -2.915,-8.73 -7.751,-7.62 m -63.2,2.725 c -3.393,1.514 -5.687,6.904 -3.977,9.344 1.453,2.075 4.924,0.477 6.564,-3.022 0.281,-0.599 0.772,-1.589 1.091,-2.2 1.475,-2.823 -0.822,-5.397 -3.678,-4.122 m -27,26.75 c -2.475,2.029 -3.562,6.365 -2.067,8.245 0.968,1.219 1.564,0.987 3.482,-1.354 3.051,-3.723 1.85,-9.567 -1.415,-6.891 m 35.6,10.211 c -4.737,2.147 -6.725,9.827 -3.404,13.148 2.083,2.083 4.525,1.352 7.203,-2.156 3.978,-5.21 1.197,-13.256 -3.799,-10.992"
       stroke="none"
       fill="#aaa04b"
       fill-rule="evenodd" />
    <path
       id="path3"
       d="m 60.4,151.611 c -0.789,0.172 0.259,0.213 2.4,0.093 2.09,-0.117 3.875,-0.278 3.967,-0.358 0.303,-0.265 -4.94,-0.047 -6.367,0.265 m 9.633,-0.265 c 0.092,0.08 1.877,0.244 3.967,0.365 2.585,0.149 3.288,0.11 2.2,-0.123 -1.569,-0.335 -6.495,-0.529 -6.167,-0.242 M 55.8,152.569 c -0.66,0.285 -3.052,1.112 -5.315,1.837 -2.263,0.725 -4.211,1.474 -4.328,1.664 -0.118,0.19 -1.146,0.815 -2.285,1.39 -1.14,0.575 -2.162,1.156 -2.272,1.292 -0.11,0.137 -1.248,0.954 -2.528,1.816 -2.067,1.392 -3.863,2.88 -5.532,4.583 -0.297,0.303 -1.178,1.203 -1.958,2 -2.044,2.09 -5.982,7.286 -5.982,7.893 0,0.115 -0.445,0.793 -0.989,1.506 -0.544,0.713 -1.43,2.456 -1.969,3.874 -0.54,1.417 -1.247,3.116 -1.573,3.776 -0.325,0.66 -0.697,1.83 -0.826,2.6 -0.232,1.392 -0.231,1.393 0.181,0.2 0.227,-0.66 0.751,-1.92 1.164,-2.8 0.413,-0.88 1.145,-2.59 1.626,-3.8 2.54,-6.381 11.963,-17.665 16.737,-20.041 0.577,-0.288 1.409,-0.825 1.849,-1.194 1.989,-1.668 9.772,-5.032 13.362,-5.774 2.209,-0.457 4.113,-1.362 2.838,-1.35 -0.55,0.006 -1.54,0.243 -2.2,0.528 m 24.4,0.226 c 1.1,0.409 3.53,1.224 5.4,1.812 1.87,0.587 3.799,1.321 4.286,1.631 1.271,0.806 1.595,0.694 0.468,-0.163 -1.004,-0.763 -2.973,-1.522 -6.954,-2.68 -1.32,-0.384 -2.571,-0.855 -2.78,-1.046 -0.209,-0.192 -0.839,-0.337 -1.4,-0.323 -0.773,0.02 -0.535,0.206 0.98,0.769 m 11.4,4.227 c 0,0.123 0.796,0.575 1.768,1.005 0.973,0.43 1.828,0.93 1.9,1.111 0.073,0.18 1.122,0.96 2.332,1.732 1.21,0.773 3.55,2.693 5.199,4.267 1.65,1.575 3.149,2.863 3.332,2.863 0.634,0 6.32,-2.882 6.106,-3.096 -0.118,-0.118 -1.489,0.455 -3.046,1.273 -3.329,1.749 -2.888,1.906 -7.761,-2.749 -1.744,-1.665 -3.395,-3.028 -3.67,-3.028 -0.274,0 -1.063,-0.475 -1.752,-1.055 -1.64,-1.379 -4.408,-2.838 -4.408,-2.323 m -29,0.428 c -4.1,0.441 -10.809,2.55 -8.113,2.55 0.366,0 0.77,-0.169 0.897,-0.374 1.385,-2.241 20.693,-2.406 25.016,-0.215 0.55,0.279 1.81,0.739 2.8,1.023 2.253,0.646 5.301,2.072 7.447,3.483 3.91,2.572 4.903,3.339 7.553,5.833 l 2.8,2.636 -1.084,0.907 c -1.238,1.036 -4.079,5.077 -3.78,5.377 0.11,0.109 0.407,-0.191 0.662,-0.666 0.254,-0.476 0.719,-1.166 1.033,-1.534 4.021,-4.72 3.786,-3.862 1.669,-6.085 -9.018,-9.47 -23.129,-14.417 -36.9,-12.935 m -11.4,3.053 c -0.55,0.246 -1.81,0.812 -2.8,1.256 -0.99,0.445 -2.044,1.047 -2.342,1.338 -0.298,0.291 -1.233,0.882 -2.078,1.313 -0.846,0.432 -1.682,1.015 -1.859,1.297 -0.176,0.282 -0.861,0.852 -1.521,1.268 -1.311,0.826 -5.385,4.666 -5.394,5.085 -0.003,0.143 -0.591,0.88 -1.306,1.638 -1.678,1.778 -2.788,3.486 -4.356,6.702 -0.698,1.43 -1.503,2.877 -1.791,3.215 -0.769,0.904 -3.524,11.018 -2.826,10.374 0.125,-0.116 0.789,-2.274 1.475,-4.795 0.685,-2.521 1.475,-4.856 1.754,-5.189 0.28,-0.333 0.819,-1.447 1.199,-2.477 0.379,-1.03 1.308,-2.65 2.064,-3.6 0.755,-0.95 1.375,-1.931 1.377,-2.178 0.007,-0.833 10.423,-10.95 11.272,-10.95 0.193,0 1.221,-0.598 2.285,-1.33 1.063,-0.731 3.039,-1.743 4.39,-2.249 1.351,-0.505 2.457,-0.987 2.457,-1.07 0,-0.276 -0.987,-0.103 -2,0.352 m 66.5,3.391 c 1.045,0.082 2.755,0.082 3.8,0 1.045,-0.082 0.19,-0.15 -1.9,-0.15 -2.09,0 -2.945,0.068 -1.9,0.15 m -4.3,0.506 -0.8,0.344 h 0.8 c 0.44,0 1.16,-0.155 1.6,-0.344 l 0.8,-0.344 H 115 c -0.44,0 -1.16,0.155 -1.6,0.344 m 11,0 c 0.33,0.213 0.87,0.388 1.2,0.388 0.533,0 0.533,-0.043 0,-0.388 -0.33,-0.213 -0.87,-0.388 -1.2,-0.388 -0.533,0 -0.533,0.043 0,0.388 m 2.931,1.3 c 0.576,0.495 1.594,1.32 2.263,1.834 3.011,2.315 4.971,11.661 2.883,13.749 -0.263,0.263 -0.477,0.722 -0.477,1.022 0,2.995 -7.07,11.675 -11.487,14.103 l -1.913,1.051 -0.024,3.171 -0.024,3.17 0.138,-3.008 0.139,-3.009 1.886,-0.984 c 2.301,-1.201 8.437,-7.246 9.559,-9.417 4.455,-8.624 4.452,-15.082 -0.01,-20.082 -0.442,-0.495 -1.014,-0.9 -1.272,-0.9 -0.257,0 -0.794,-0.36 -1.192,-0.8 -0.398,-0.44 -0.902,-0.8 -1.12,-0.8 -0.218,0 0.075,0.405 0.651,0.9 m -76.219,4.721 c -1.919,1.013 -4.803,3.821 -5.693,5.542 -0.901,1.743 -2.376,3.095 -4.619,4.236 -1.917,0.975 -7.715,6.472 -9.939,9.424 -1.199,1.59 -2.226,3.128 -3.477,5.202 -1.411,2.342 -2.554,2.633 -2.644,0.675 -0.058,-1.258 -0.065,-1.263 -0.23,-0.166 -0.456,3.046 1.685,2.493 3.69,-0.954 0.66,-1.135 1.875,-2.865 2.7,-3.846 0.825,-0.98 1.5,-1.911 1.5,-2.069 0,-0.908 6.662,-6.871 9.133,-8.175 2.004,-1.058 3.03,-2.063 4.107,-4.025 1.316,-2.398 4.417,-5.069 6.868,-5.916 1.373,-0.475 1.748,-0.721 1.092,-0.718 -0.55,0.002 -1.67,0.358 -2.488,0.79 m 4.871,-0.261 c 1.812,0.655 2.376,2.051 2.399,5.935 l 0.018,3.095 1.6,1.01 c 0.88,0.556 1.6,1.177 1.6,1.38 0,0.204 0.502,0.921 1.116,1.593 0.696,0.762 1.556,2.616 2.283,4.924 0.685,2.174 1.234,3.379 1.329,2.919 0.09,-0.432 -0.119,-1.332 -0.463,-2 -0.345,-0.669 -0.819,-1.969 -1.054,-2.889 -0.476,-1.863 -3.57,-5.933 -4.81,-6.327 -0.939,-0.298 -1.102,-0.934 -1.324,-5.173 -0.181,-3.453 -1.213,-5.065 -3.199,-4.997 -0.666,0.024 -0.545,0.151 0.505,0.53 m 38.646,12.069 c -0.148,0.586 -0.178,1.155 -0.068,1.265 0.11,0.11 0.32,-0.279 0.468,-0.865 0.147,-0.587 0.177,-1.156 0.067,-1.266 -0.11,-0.11 -0.32,0.279 -0.467,0.866 m -1.007,3.849 c -0.257,1.167 -0.542,2.491 -0.632,2.941 -0.091,0.451 -0.89,1.227 -1.777,1.726 -0.887,0.498 -1.613,1.071 -1.613,1.272 0,0.202 -0.72,0.734 -1.6,1.183 -0.88,0.449 -1.6,0.984 -1.6,1.189 0,0.205 -1.215,1.183 -2.7,2.173 -1.485,0.99 -3.69,2.615 -4.9,3.609 -1.21,0.995 -2.83,2.178 -3.6,2.63 -1.215,0.713 -3.189,2.176 -5.705,4.225 -0.951,0.775 -2.559,-0.142 -3.203,-1.826 -0.198,-0.518 -0.233,-0.515 -0.26,0.025 -0.031,0.599 1.918,2.775 2.485,2.775 0.443,0 4.683,-2.943 4.683,-3.251 0,-0.154 0.855,-0.839 1.9,-1.522 2.325,-1.519 6.186,-4.341 6.483,-4.738 0.119,-0.16 1.027,-0.825 2.017,-1.478 0.99,-0.653 2.463,-1.732 3.273,-2.399 0.809,-0.667 2.224,-1.752 3.143,-2.412 3.375,-2.423 3.849,-3.054 4.16,-5.546 0.373,-2.982 0.051,-3.317 -0.554,-0.576 m -56.651,2.955 c -1.857,1.542 -3.774,3.578 -4.626,4.913 -0.8,1.255 -1.745,2.522 -2.1,2.816 -0.355,0.295 -0.642,0.739 -0.637,0.987 0.004,0.248 0.634,-0.267 1.4,-1.145 0.765,-0.877 1.392,-1.813 1.392,-2.08 0,-0.658 5.207,-5.896 6.866,-6.908 1.839,-1.121 2.334,-1.035 2.334,0.404 0,1.438 0.805,3.102 1.973,4.08 1.5,1.256 1.654,0.735 0.182,-0.614 -1.148,-1.051 -1.476,-1.69 -1.646,-3.2 -0.299,-2.646 -1.21,-2.514 -5.138,0.747 m 15.088,0.147 c -1.135,1.111 -2.31,2.02 -2.612,2.02 -0.302,0 -0.773,0.27 -1.047,0.6 -0.274,0.33 -0.881,0.621 -1.349,0.646 -0.552,0.03 -0.632,0.106 -0.227,0.215 0.906,0.245 4.262,-1.75 5.934,-3.527 2.018,-2.145 3.708,-1.298 5.108,2.562 0.36,0.992 0.48,1.1 0.504,0.449 0.043,-1.228 -2.405,-4.721 -3.409,-4.865 -0.566,-0.081 -1.512,0.539 -2.902,1.9 m -32.583,0.43 c -0.146,0.545 -0.249,1.44 -0.23,1.99 0.025,0.718 0.138,0.557 0.403,-0.573 0.406,-1.732 0.251,-3.002 -0.173,-1.417 m -0.875,4.49 c -0.161,0.495 -0.455,3.96 -0.654,7.7 -0.2,3.74 -0.465,8.029 -0.59,9.531 -0.281,3.363 0.243,4.788 2.08,5.66 0.75,0.355 1.363,0.849 1.363,1.096 0,0.248 0.233,0.734 0.519,1.082 0.285,0.347 0.941,1.711 1.457,3.031 1.867,4.774 8.98,14.199 12.761,16.908 1.004,0.719 1.924,1.444 2.044,1.611 1.124,1.561 10.449,6.658 14.419,7.881 1.21,0.373 2.71,0.931 3.332,1.239 0.623,0.309 1.523,0.554 2,0.545 1.172,-0.021 -1.147,-1.05 -4.132,-1.833 -2.65,-0.696 -10.779,-4.558 -11.549,-5.488 -0.302,-0.365 -0.756,-0.663 -1.01,-0.663 -0.621,0 -6.599,-5.021 -8.256,-6.934 -0.73,-0.844 -1.811,-2.051 -2.401,-2.683 C 28.675,231.382 24,224.604 24,224.107 c 0,-0.196 -0.36,-1.102 -0.8,-2.013 -0.44,-0.91 -0.8,-1.832 -0.8,-2.047 0,-0.848 -1.85,-3.197 -2.695,-3.422 -1.67,-0.444 -2.223,-1.903 -1.944,-5.124 0.139,-1.595 0.42,-5.781 0.625,-9.301 0.205,-3.52 0.492,-6.985 0.639,-7.7 0.303,-1.482 0.015,-1.753 -0.424,-0.4 m 40.127,4.97 c 0.192,6.87 0.498,6.079 -3.671,9.463 -1.651,1.34 -3.857,4.15 -3.857,4.913 0,0.327 1.423,-1.486 1.64,-2.09 0.088,-0.245 1.06,-1.21 2.16,-2.145 1.1,-0.935 2.495,-2.131 3.1,-2.659 l 1.1,-0.958 -0.04,-5.297 c -0.022,-2.913 -0.166,-5.747 -0.321,-6.297 -0.154,-0.55 -0.205,1.731 -0.111,5.07 m 7.827,-0.87 c 10e-4,2.86 0.065,3.978 0.142,2.483 0.077,-1.494 0.077,-3.834 -0.001,-5.2 -0.078,-1.365 -0.141,-0.143 -0.141,2.717 M 96.8,197.994 c 0,0.217 -0.765,0.887 -1.7,1.489 -0.935,0.602 -2.13,1.504 -2.655,2.005 -0.525,0.502 -1.103,0.912 -1.285,0.912 -0.183,0 -1.103,0.549 -2.046,1.22 -0.943,0.671 -2.622,1.823 -3.731,2.559 -1.11,0.737 -2.257,1.628 -2.549,1.98 -0.293,0.353 -0.713,0.641 -0.934,0.641 -0.344,0 -3.487,2.151 -7.1,4.858 -0.55,0.412 -1.641,1.178 -2.423,1.702 -1.349,0.903 -1.446,1.121 -1.845,4.139 -1.885,14.283 -17.051,21.438 -21.199,10.001 -0.925,-2.547 -0.641,-9.399 0.5,-12.1 1.497,-3.541 1.548,-3.776 0.414,-1.874 -3.939,6.601 -1.991,17.566 3.491,19.65 2.121,0.807 6.609,0.383 7.943,-0.75 0.286,-0.242 1.293,-0.984 2.238,-1.65 1.605,-1.128 4.881,-5.531 4.881,-6.558 0,-0.252 0.21,-0.668 0.467,-0.925 0.746,-0.746 1.498,-3.287 1.785,-6.026 0.249,-2.381 0.358,-2.594 1.807,-3.553 0.847,-0.561 1.541,-1.181 1.541,-1.377 0,-0.196 0.411,-0.513 0.913,-0.704 0.502,-0.191 1.807,-1.031 2.9,-1.867 1.093,-0.836 2.617,-1.893 3.387,-2.348 1.842,-1.088 5.168,-3.447 6.032,-4.277 0.378,-0.363 1.56,-1.168 2.627,-1.789 2.083,-1.211 5.007,-3.301 6.397,-4.57 1.055,-0.963 1.12,-0.963 2.46,-0.016 0.596,0.422 1.534,0.87 2.084,0.996 0.693,0.159 0.586,0.04 -0.35,-0.388 -0.743,-0.339 -1.611,-0.878 -1.929,-1.196 -0.655,-0.655 -2.121,-0.782 -2.121,-0.184 m 6.314,2.478 c 0.377,0.149 2.34,0.284 4.362,0.3 2.109,0.016 3.788,0.207 3.937,0.449 0.397,0.642 -0.611,8.823 -1.25,10.14 -0.741,1.53 -0.721,2.243 0.034,1.165 0.731,-1.043 1.902,-8.164 1.729,-10.512 l -0.126,-1.713 -4.686,-0.05 c -2.577,-0.028 -4.377,0.071 -4,0.221 M 29.04,205.64 c -0.147,0.917 -0.188,1.745 -0.093,1.84 0.095,0.096 0.299,-0.57 0.453,-1.48 0.154,-0.91 0.196,-1.738 0.093,-1.84 -0.103,-0.103 -0.306,0.563 -0.453,1.48 m 89.023,0.96 c -0.04,0.66 -0.159,1.92 -0.266,2.8 l -0.194,1.6 0.42,-1.34 c 0.231,-0.737 0.351,-1.997 0.266,-2.8 -0.137,-1.294 -0.163,-1.323 -0.226,-0.26 m -89.962,2.022 c -0.274,0.298 -0.859,1.456 -1.299,2.573 l -0.801,2.033 0.836,2.486 c 0.778,2.315 1.505,3.677 1.804,3.379 0.069,-0.07 -0.311,-1.019 -0.845,-2.11 -1.241,-2.535 -1.244,-4.358 -0.01,-6.796 1.047,-2.068 1.123,-2.441 0.315,-1.565 m 88.638,4.978 c -0.346,0.99 -1.045,3.15 -1.554,4.8 -0.509,1.65 -1.119,3.344 -1.355,3.765 -0.237,0.42 -1.06,1.889 -1.83,3.264 -2.981,5.324 -8.742,12.114 -12.6,14.85 -0.66,0.468 -2.021,1.47 -3.025,2.226 -2.341,1.764 -9.443,5.149 -12.685,6.047 -3.746,1.037 -5.442,1.812 -4.014,1.832 0.592,0.009 1.173,-0.139 1.29,-0.328 0.117,-0.19 1.342,-0.658 2.723,-1.041 C 86.582,248.213 96,243.81 96,243.26 c 0,-0.203 0.651,-0.678 1.447,-1.056 1.928,-0.914 11.044,-10.005 11.938,-11.904 0.388,-0.825 0.85,-1.5 1.025,-1.5 0.598,0 4.317,-7.48 5.359,-10.779 0.572,-1.809 1.229,-3.644 1.461,-4.076 0.231,-0.433 0.357,-1.092 0.279,-1.466 -0.084,-0.403 -0.397,0.052 -0.77,1.121 m -8.862,4.677 c -0.813,2.47 -0.569,2.714 0.338,0.338 0.385,-1.008 0.608,-1.925 0.495,-2.038 -0.113,-0.113 -0.488,0.652 -0.833,1.7 M 29.022,220.4 c 0.144,0.55 0.558,1.429 0.92,1.953 0.677,0.98 0.78,1.143 2.428,3.853 0.533,0.877 1.523,2.162 2.2,2.857 0.676,0.695 1.68,1.733 2.23,2.306 2.384,2.488 3.877,3.831 4.255,3.831 0.223,0 0.833,0.455 1.355,1.01 0.522,0.556 1.498,1.299 2.169,1.65 6.195,3.247 10.034,4.86 10.488,4.406 0.118,-0.117 -0.517,-0.41 -1.409,-0.65 -2.255,-0.608 -8.685,-3.946 -11.073,-5.748 -5.642,-4.26 -9.195,-8.349 -12.904,-14.856 -0.601,-1.053 -0.829,-1.266 -0.659,-0.612 m 77.257,1.112 c -0.356,0.395 -0.924,1.376 -1.26,2.181 -0.336,0.804 -0.848,1.608 -1.137,1.785 -0.289,0.177 -0.91,0.956 -1.38,1.73 -0.932,1.537 -6.599,7.123 -8.387,8.268 -0.613,0.392 -1.295,0.923 -1.515,1.179 -0.22,0.256 -2.38,1.473 -4.8,2.704 -2.42,1.231 -4.198,2.238 -3.95,2.239 2.992,0.011 18.95,-11.752 18.95,-13.968 0,-0.195 0.63,-1.108 1.4,-2.03 0.77,-0.922 1.4,-1.895 1.4,-2.162 0,-0.268 0.378,-0.893 0.84,-1.389 0.462,-0.496 0.761,-0.981 0.664,-1.078 -0.096,-0.097 -0.468,0.147 -0.825,0.541 M 81.4,242 l -0.8,0.344 0.8,0.022 c 0.44,0.012 1.07,-0.153 1.4,-0.366 0.795,-0.514 -0.204,-0.514 -1.4,0 m -24.197,1.177 c 3.012,1.225 10.05,1.804 15.297,1.258 4.201,-0.437 8.225,-1.444 7.733,-1.935 -0.118,-0.119 -0.984,0.072 -1.924,0.423 -4.281,1.601 -17.304,1.631 -20.366,0.047 -0.607,-0.313 -1.427,-0.56 -1.823,-0.548 -0.396,0.012 0.091,0.352 1.083,0.755 m 2.597,7.606 c 1.208,0.324 5.277,0.545 4.967,0.269 -0.092,-0.081 -1.517,-0.248 -3.167,-0.37 -1.831,-0.135 -2.532,-0.096 -1.8,0.101 m 14,0.017 -1.6,0.286 1.8,0.01 c 0.99,0.005 2.34,-0.128 3,-0.296 l 1.2,-0.305 -1.4,0.009 c -0.77,0.005 -2.12,0.138 -3,0.296"
       stroke="none"
       fill="#a9b1d4"
       fill-rule="evenodd"
       sodipodi:nodetypes="cccccccccscccsccssccccsccccccccccscccccccsssccscccsccccccccccccccscccccccccccccsccsccsscccsccsccscscccsscccccccccsssccccccccccscccccccccsccccccccccscsccccsssscccccssccscccccccccscssccccsscccccccccccccccscccccccccsccscsccsccccsssccscccccccscssccscccccccccssccssscccccccsccccccccccccscccccssccccccccccsccscccccsccsccscccsccscccscccccccccsccsscssssccccccccccccscccccccccccc" />
    <path
       id="path4"
       d="m 63.141,151.671 c -3.553,0.331 -9.395,1.88 -7.221,1.915 0.506,0.008 1.422,-0.246 2.036,-0.563 2.714,-1.404 17.801,-1.404 21.161,0 0.759,0.317 1.674,0.567 2.032,0.555 0.358,-0.012 -0.159,-0.349 -1.149,-0.749 -1.514,-0.612 -10.738,-1.772 -12.508,-1.574 -0.27,0.031 -2.228,0.218 -4.351,0.416 M 52.8,154 c -0.795,0.514 0.204,0.514 1.4,0 l 0.8,-0.344 -0.8,-0.022 c -0.44,-0.012 -1.07,0.153 -1.4,0.366 m 29.8,0 c 0.44,0.189 1.07,0.344 1.4,0.344 0.378,0 0.304,-0.127 -0.2,-0.344 -0.44,-0.189 -1.07,-0.344 -1.4,-0.344 -0.378,0 -0.304,0.127 0.2,0.344 m -36.8,2.852 c -1.76,0.899 -3.572,1.976 -4.026,2.392 -0.454,0.416 -0.978,0.756 -1.163,0.756 -1.884,0 -12.166,10.67 -14.646,15.2 -0.422,0.77 -1.059,1.85 -1.415,2.4 l -0.648,1 0.855,-1 c 0.47,-0.55 1.331,-1.855 1.912,-2.9 0.582,-1.045 1.179,-1.9 1.327,-1.9 0.148,0 0.827,-0.861 1.51,-1.914 1.705,-2.631 8.033,-8.619 10.699,-10.124 1.207,-0.681 2.195,-1.384 2.195,-1.561 0,-0.178 0.495,-0.52 1.1,-0.762 1.712,-0.683 6.347,-3.21 5.9,-3.217 -0.22,-0.003 -1.84,0.731 -3.6,1.63 m 42.6,-0.867 c 0.77,0.41 2.182,1.118 3.137,1.574 2.899,1.383 6.99,4.279 9.788,6.93 4.364,4.135 5.414,4.597 6.875,3.024 0.281,-0.303 0.163,-0.34 -0.4,-0.126 -0.44,0.167 -1.07,0.379 -1.4,0.472 -0.347,0.097 -1.864,-1.044 -3.6,-2.708 -1.65,-1.582 -3.99,-3.508 -5.2,-4.279 -1.21,-0.772 -2.299,-1.551 -2.42,-1.731 -0.292,-0.437 -7.245,-3.946 -7.769,-3.922 -0.226,0.011 0.219,0.355 0.989,0.766 m -26,1.168 c -0.77,0.136 1.83,0.247 5.777,0.247 3.948,0 6.648,-0.114 6,-0.253 -1.506,-0.323 -9.939,-0.319 -11.777,0.006 m -5,0.847 -0.8,0.344 0.8,-0.012 c 0.44,-0.006 1.25,-0.156 1.8,-0.332 l 1,-0.32 -1,-0.012 c -0.55,-0.006 -1.36,0.143 -1.8,0.332 m 19.6,0 c 1.692,0.431 3.144,0.431 1.8,0 -0.55,-0.176 -1.45,-0.317 -2,-0.313 -0.898,0.007 -0.878,0.039 0.2,0.313 m -23,1.014 c -0.55,0.298 -2.26,1.018 -3.8,1.6 -5.711,2.159 -14.913,9.64 -18.022,14.651 -0.592,0.954 -1.381,2.095 -1.753,2.535 -0.373,0.44 -1.014,1.61 -1.426,2.6 -0.412,0.99 -0.985,2.084 -1.274,2.431 -0.619,0.745 -0.694,1.321 -0.127,0.97 0.219,-0.135 1.031,-1.541 1.803,-3.124 1.7,-3.481 2.782,-5.16 4.499,-6.979 0.715,-0.758 1.303,-1.495 1.306,-1.638 0.009,-0.419 4.083,-4.259 5.394,-5.085 0.66,-0.416 1.345,-0.986 1.521,-1.268 0.177,-0.282 1.013,-0.865 1.859,-1.297 0.845,-0.431 1.78,-1.022 2.078,-1.313 0.66,-0.645 3.568,-2.009 5.742,-2.693 2.394,-0.753 4.933,-1.998 4,-1.962 -0.44,0.017 -1.25,0.275 -1.8,0.572 m 26.8,-0.048 c 1.758,0.939 3.205,1.178 1.6,0.265 -0.77,-0.439 -1.67,-0.798 -2,-0.798 -0.333,-0.001 -0.155,0.237 0.4,0.533 m 5.246,1.977 c 4.581,1.884 15.154,9.819 15.154,11.372 0,0.163 -1.178,1.611 -3.432,4.218 -0.943,1.091 -2.569,4.475 -2.559,5.325 0.006,0.408 0.429,-0.278 0.942,-1.524 0.964,-2.343 1.916,-3.771 4.149,-6.227 0.715,-0.786 1.3,-1.602 1.3,-1.812 0,-0.899 -7.076,-7.061 -10.4,-9.058 -2.429,-1.458 -6.176,-3.237 -6.8,-3.227 -0.33,0.005 0.411,0.425 1.646,0.933 m 27.872,3.671 c -1.941,0.531 -4.146,1.786 -3.138,1.786 0.306,0 0.841,-0.24 1.189,-0.534 1.985,-1.679 10.849,-1.957 13.892,-0.436 1.006,0.503 1.586,0.636 1.471,0.337 -0.605,-1.577 -9.171,-2.314 -13.414,-1.153 m 15.157,2.763 c 2.04,1.667 3.441,5.052 3.735,9.023 l 0.252,3.4 0.069,-3.221 c 0.092,-4.273 -1.867,-8.531 -4.531,-9.848 -0.44,-0.218 -0.226,0.073 0.475,0.646 m -76.63,3.008 c -2.426,0.821 -5.37,3.416 -7.047,6.213 -0.659,1.099 -1.873,2.434 -2.698,2.967 -1.797,1.161 -1.749,1.497 0.084,0.583 0.75,-0.374 1.765,-1.432 2.365,-2.466 4.088,-7.041 11.39,-9.599 12.795,-4.482 0.211,0.77 0.4,1.079 0.42,0.687 0.156,-3.084 -2.504,-4.658 -5.919,-3.502 m 5.622,7.482 c -0.06,1.498 0.072,1.754 1.299,2.512 0.751,0.464 2.048,1.739 2.882,2.832 0.834,1.094 1.569,1.989 1.634,1.989 0.403,0 -0.044,-0.799 -1.082,-1.936 -0.66,-0.722 -1.2,-1.48 -1.2,-1.684 0,-0.203 -0.709,-0.817 -1.575,-1.364 -1.3,-0.821 -1.603,-1.259 -1.733,-2.505 l -0.158,-1.511 -0.067,1.667 m -35.021,2.779 c -0.408,0.986 -0.656,1.878 -0.551,1.982 0.104,0.104 0.505,-0.635 0.89,-1.643 0.911,-2.386 0.626,-2.671 -0.339,-0.339 m 108.989,0.585 c -1.532,4.039 -2.253,5.536 -3.455,7.169 -1.781,2.421 -5.706,6.241 -7.622,7.418 -0.857,0.526 -1.419,0.963 -1.25,0.97 2.651,0.107 12.292,-11.272 12.292,-14.509 0,-0.285 0.2,-0.719 0.445,-0.964 0.245,-0.245 0.369,-0.672 0.277,-0.949 -0.092,-0.277 -0.402,0.112 -0.687,0.865 m -93.36,0.88 c -2.159,1.825 -6.275,6.009 -6.275,6.377 0,0.17 -0.604,0.985 -1.342,1.811 -1.617,1.808 -2.806,3.845 -1.723,2.952 0.366,-0.302 0.665,-0.73 0.665,-0.951 0,-0.382 1.086,-1.77 4.082,-5.216 0.725,-0.834 2.543,-2.589 4.041,-3.9 1.497,-1.311 2.577,-2.379 2.4,-2.373 -0.178,0.005 -1.009,0.59 -1.848,1.3 m 55.985,1.359 c -0.117,0.401 -0.339,1.805 -0.493,3.118 -0.302,2.565 -0.732,3.149 -4.139,5.612 -0.913,0.66 -2.432,1.83 -3.377,2.6 -0.944,0.77 -2.46,1.85 -3.369,2.4 -0.908,0.55 -1.749,1.24 -1.867,1.534 -0.119,0.294 0.459,0.008 1.285,-0.635 0.825,-0.642 2.085,-1.507 2.8,-1.92 0.715,-0.413 1.3,-0.879 1.3,-1.035 0,-0.155 1.215,-1.105 2.7,-2.109 4.61,-3.119 4.753,-3.308 5.229,-6.868 0.405,-3.035 0.375,-4.221 -0.069,-2.697 m -73.024,0.621 c -1.888,3.023 -4.705,25.403 -2.858,22.709 0.252,-0.368 0.313,-1.808 0.157,-3.724 -0.149,-1.829 -0.057,-4.317 0.222,-6 1.311,-7.913 2.107,-11.602 2.699,-12.506 0.359,-0.547 0.576,-1.071 0.483,-1.164 -0.093,-0.093 -0.409,0.215 -0.703,0.685 m 18.495,2.154 c -1.974,0.972 -6.526,5.087 -7.763,7.015 -0.613,0.957 -1.385,2.043 -1.715,2.413 -1.627,1.827 -1.934,2.685 -1.663,4.654 0.306,2.223 -0.371,6.644 -1.219,7.959 -0.763,1.183 -0.723,1.523 0.083,0.717 0.917,-0.917 1.773,-5.387 1.65,-8.617 -0.09,-2.362 0.016,-2.846 0.81,-3.693 0.503,-0.536 1.493,-1.887 2.2,-3.003 1.535,-2.421 7.234,-7.29 8.533,-7.29 0.748,0 0.934,0.259 1.075,1.5 0.151,1.323 0.166,1.291 0.125,-0.269 -0.054,-2.042 -0.368,-2.248 -2.116,-1.386 m 13.998,0.41 c -0.259,0.106 -1.137,1.037 -1.951,2.069 l -1.479,1.876 1.659,-1.727 c 3.865,-4.023 6.798,0.97 6.828,11.624 0.016,5.759 0.525,4.696 -4.179,8.718 -2.132,1.823 -2.399,2.192 -4.027,5.585 -1.571,3.272 -2.185,5.156 -2.136,6.55 0.037,1.061 0.097,0.979 0.395,-0.545 0.913,-4.663 3.609,-9.396 6.846,-12.019 3.648,-2.957 3.517,-2.644 3.501,-8.33 -0.02,-7.07 -0.81,-10.112 -3.312,-12.756 -1.264,-1.335 -1.341,-1.373 -2.145,-1.045 m -28.28,0.76 c -0.137,0.358 -0.233,1.041 -0.213,1.518 0.026,0.614 0.149,0.475 0.423,-0.477 0.398,-1.384 0.235,-2.198 -0.21,-1.041 m 38.973,1.436 c -0.012,0.358 0.27,1.348 0.626,2.2 0.538,1.287 0.618,2.7 0.471,8.349 l -0.177,6.8 1.098,1.1 c 1.362,1.364 2.346,1.392 3.56,0.1 0.517,-0.55 1.113,-1 1.325,-1 0.212,0 1.153,-0.675 2.091,-1.5 0.938,-0.825 2.891,-2.31 4.339,-3.3 1.448,-0.99 2.636,-1.944 2.639,-2.119 0.003,-0.176 -0.811,0.274 -1.811,1 -0.999,0.725 -2.647,1.895 -3.663,2.598 -1.016,0.704 -1.954,1.452 -2.084,1.662 -0.316,0.513 -4.325,3.259 -4.757,3.259 -1.785,0 -2.216,-1.813 -2.118,-8.908 0.086,-6.144 0.006,-7.134 -0.711,-8.902 -0.443,-1.095 -0.816,-1.697 -0.828,-1.339 M 42.4,189.998 c 0,1.927 4.291,3.228 6,1.818 0.33,-0.272 0.941,-0.616 1.357,-0.765 0.417,-0.148 0.649,-0.378 0.517,-0.51 -0.132,-0.132 -0.888,0.142 -1.68,0.609 -1.997,1.179 -3.455,1.087 -4.952,-0.31 -0.683,-0.639 -1.242,-1.017 -1.242,-0.842 m -17.506,0.956 c -0.575,1.262 -1.098,6.647 -0.646,6.643 0.194,-0.002 0.377,-1.087 0.408,-2.412 0.031,-1.324 0.28,-2.948 0.554,-3.609 0.595,-1.436 0.31,-1.996 -0.316,-0.622 m 2.745,4.277 c -0.441,0.727 -1.216,1.551 -1.721,1.831 -0.686,0.381 -0.749,0.513 -0.252,0.524 0.707,0.015 3.389,-3.065 3.004,-3.45 -0.125,-0.124 -0.589,0.368 -1.031,1.095 m 90.628,1.836 c -0.147,0.146 -0.267,1.691 -0.267,3.431 0,4.266 -0.773,10.654 -1.45,11.982 -0.302,0.594 -0.543,1.404 -0.534,1.8 0.102,4.724 2.347,-7.682 2.37,-13.1 0.008,-2.108 0.198,-3.604 0.494,-3.9 0.287,-0.287 0.314,-0.48 0.067,-0.48 -0.228,0 -0.534,0.12 -0.68,0.267 m -21.944,0.865 c -0.288,0.403 -1.063,1.07 -1.723,1.482 -1.626,1.017 -3.913,2.986 -3.468,2.986 0.197,0 0.788,-0.41 1.313,-0.912 0.525,-0.501 1.72,-1.403 2.655,-2.005 0.935,-0.602 1.7,-1.272 1.7,-1.489 0,-0.595 1.464,-0.473 2.113,0.176 1.426,1.426 3.647,1.97 8.413,2.06 2.599,0.049 4.633,-0.005 4.519,-0.119 -0.114,-0.114 -2.241,-0.24 -4.726,-0.28 -4.55,-0.073 -5.835,-0.386 -7.873,-1.915 -1.221,-0.916 -2.262,-0.91 -2.923,0.016 m -7.558,5.406 c -0.789,0.474 -1.752,1.181 -2.138,1.571 -0.387,0.39 -1.235,0.985 -1.886,1.322 -0.651,0.336 -1.489,0.881 -1.862,1.211 -0.374,0.33 -1.129,0.959 -1.679,1.398 l -1,0.799 1,-0.519 c 0.55,-0.286 1.575,-0.97 2.277,-1.52 0.702,-0.55 2.202,-1.63 3.334,-2.4 3.711,-2.525 4.826,-3.588 1.954,-1.862 m 22.705,4.019 c -0.159,1.296 -0.209,2.437 -0.11,2.536 0.266,0.266 0.743,-3.275 0.559,-4.146 -0.087,-0.411 -0.289,0.313 -0.449,1.61 M 17.857,209.1 c -0.731,4.419 0.233,7.746 2.225,7.684 0.285,-0.009 0.025,-0.283 -0.577,-0.61 -1.39,-0.754 -1.676,-1.934 -1.365,-5.62 0.268,-3.164 0.122,-3.908 -0.283,-1.454 m 61.129,1.039 c -0.448,0.254 -1.247,0.866 -1.776,1.361 -0.528,0.495 -1.13,0.9 -1.337,0.9 -0.207,0 -1.055,0.585 -1.885,1.3 -0.83,0.715 -1.977,1.623 -2.548,2.019 -0.828,0.572 -1.028,1.02 -0.983,2.2 l 0.057,1.481 0.243,-1.536 c 0.258,-1.631 0.272,-1.643 6.135,-5.667 2.977,-2.044 4.211,-3.256 2.094,-2.058 m -52.782,1.313 c -0.677,1.621 0.277,6.155 1.63,7.749 0.281,0.33 0.687,1.064 0.902,1.63 0.563,1.482 4.776,7.857 5.59,8.46 0.378,0.28 1.014,1.02 1.413,1.644 0.399,0.624 0.819,1.041 0.933,0.926 0.238,-0.238 -0.366,-1.049 -2.032,-2.727 -1.203,-1.211 -3.44,-4.518 -3.44,-5.086 0,-0.178 -0.353,-0.644 -0.785,-1.034 -0.432,-0.391 -0.994,-1.364 -1.251,-2.162 -0.256,-0.799 -0.697,-1.722 -0.98,-2.052 -1.337,-1.557 -2.226,-5.525 -1.583,-7.063 0.335,-0.803 0.528,-1.542 0.428,-1.642 -0.1,-0.1 -0.471,0.511 -0.825,1.357 m 84.65,-0.584 c -0.029,0.367 -0.31,1.177 -0.624,1.8 -0.313,0.622 -0.793,1.942 -1.065,2.932 -0.741,2.69 -2.047,5.7 -2.852,6.575 -0.392,0.427 -0.712,0.967 -0.711,1.2 10e-4,0.234 0.444,-0.115 0.984,-0.775 0.91,-1.114 3.414,-7.223 3.414,-8.332 0,-0.269 0.282,-0.893 0.627,-1.385 0.345,-0.493 0.549,-1.298 0.454,-1.789 -0.102,-0.533 -0.194,-0.624 -0.227,-0.226 m 4.619,5.285 c -0.15,0.392 -0.262,1.013 -0.248,1.38 0.017,0.442 0.156,0.341 0.412,-0.299 0.212,-0.531 0.324,-1.152 0.248,-1.38 -0.076,-0.227 -0.261,-0.093 -0.412,0.299 m -94.66,0.903 c -0.007,0.25 0.341,0.88 0.774,1.4 0.432,0.519 0.792,0.739 0.8,0.488 0.007,-0.25 -0.341,-0.88 -0.774,-1.4 -0.432,-0.519 -0.792,-0.739 -0.8,-0.488 m 49.183,4.044 c -0.002,0.385 -0.469,1.69 -1.038,2.9 -1.266,2.693 -1.786,4 -1.59,4 0.082,0 0.711,-1.167 1.399,-2.592 1.241,-2.575 1.962,-5.008 1.483,-5.008 -0.138,0 -0.252,0.315 -0.254,0.7 m 43.476,0.77 c -0.331,0.621 -1.092,2.165 -1.691,3.43 -0.6,1.265 -1.238,2.3 -1.419,2.3 -0.18,0 -0.813,0.855 -1.405,1.9 -0.593,1.045 -1.591,2.44 -2.219,3.1 -5.486,5.767 -7.614,7.682 -10.238,9.214 -0.715,0.417 -1.3,0.887 -1.3,1.044 0,0.254 -1.388,0.959 -7.921,4.026 -0.946,0.444 -1.646,0.883 -1.554,0.975 0.308,0.308 8.804,-3.963 10.65,-5.354 1.004,-0.756 2.365,-1.758 3.025,-2.226 3.858,-2.736 9.619,-9.526 12.6,-14.85 0.77,-1.375 1.64,-2.904 1.932,-3.399 0.293,-0.494 0.445,-0.987 0.337,-1.095 -0.108,-0.107 -0.467,0.313 -0.797,0.935 M 24,223.976 c 0,0.596 4.498,7.216 5.984,8.807 0.59,0.632 1.671,1.839 2.401,2.683 1.521,1.756 7.613,6.934 8.159,6.934 0.2,0 -0.153,-0.405 -0.786,-0.9 -0.632,-0.495 -1.421,-1.133 -1.754,-1.418 -0.332,-0.285 -1.33,-1.095 -2.218,-1.8 -1.833,-1.456 -6.986,-7.243 -6.986,-7.845 0,-0.219 -0.251,-0.541 -0.559,-0.717 -0.307,-0.176 -0.977,-1.04 -1.489,-1.92 C 25.19,225.116 24,223.462 24,223.976 m 80.428,1.296 c -0.534,0.675 -1.381,1.831 -1.881,2.568 -1.384,2.04 -3.068,3.783 -5.767,5.972 -1.349,1.093 -3.173,2.573 -4.054,3.288 -0.881,0.715 -1.437,1.3 -1.235,1.3 0.34,0 4.222,-3.121 7.96,-6.4 0.878,-0.77 2.216,-2.286 2.973,-3.369 0.757,-1.083 1.781,-2.415 2.276,-2.959 0.495,-0.544 0.9,-1.143 0.9,-1.33 0,-0.502 -0.103,-0.42 -1.172,0.93 m -55.56,2.128 c -0.006,0.44 0.143,1.16 0.332,1.6 0.438,1.019 0.438,-0.032 0,-1.4 -0.257,-0.804 -0.323,-0.843 -0.332,-0.2 m 16.421,2.941 c -0.9,1.067 -2.175,2.163 -2.834,2.436 -0.659,0.273 -1.29,0.737 -1.403,1.032 -0.448,1.168 4.437,-2.657 5.536,-4.334 1.09,-1.664 0.505,-1.274 -1.299,0.866 m -15.654,-0.037 c 0.736,2.198 4.122,4.972 5.925,4.854 0.352,-0.023 -0.08,-0.263 -0.96,-0.534 -1.141,-0.351 -2.106,-1.112 -3.365,-2.653 -0.971,-1.188 -1.691,-1.938 -1.6,-1.667 M 39.2,233.969 c 1.21,1.128 2.579,2.406 3.042,2.841 1.335,1.253 1.629,0.917 0.358,-0.41 -0.632,-0.66 -1.373,-1.2 -1.646,-1.2 -0.273,0 -0.876,-0.483 -1.34,-1.073 -0.464,-0.59 -1.242,-1.328 -1.729,-1.641 -0.487,-0.312 0.105,0.355 1.315,1.483 m 19,0.831 c -1.089,0.277 -1.107,0.307 -0.2,0.325 0.55,0.01 1.36,-0.136 1.8,-0.325 0.986,-0.424 0.066,-0.424 -1.6,0 M 44,237.79 c 0,0.104 0.585,0.475 1.3,0.824 l 1.3,0.634 -1,-0.815 C 44.637,237.648 44,237.392 44,237.79 m 43.6,2.076 c -1.43,0.78 -3.5,1.688 -4.6,2.02 -3.631,1.095 -5.765,2.086 -4.524,2.101 0.592,0.007 1.174,-0.145 1.294,-0.338 0.119,-0.193 1.741,-0.826 3.604,-1.407 1.863,-0.581 3.493,-1.228 3.623,-1.438 0.13,-0.209 1.039,-0.736 2.02,-1.17 0.98,-0.434 1.783,-0.889 1.783,-1.012 0,-0.408 -0.582,-0.182 -3.2,1.244 m -39.487,0.301 c 0.783,0.531 2.785,1.423 4.449,1.982 1.664,0.559 3.398,1.215 3.853,1.459 0.454,0.243 1.222,0.384 1.706,0.312 0.536,-0.079 -0.523,-0.575 -2.721,-1.273 -1.98,-0.628 -4.64,-1.661 -5.912,-2.295 -2.821,-1.406 -3.261,-1.465 -1.375,-0.185 m -1.644,5.618 c 1.908,0.958 3.888,1.855 4.4,1.993 0.512,0.138 -0.919,-0.655 -3.181,-1.763 -2.261,-1.108 -4.241,-2.005 -4.4,-1.993 -0.158,0.012 1.273,0.806 3.181,1.763 M 60.2,244.383 c 1.208,0.324 5.277,0.545 4.967,0.269 -0.092,-0.081 -1.517,-0.248 -3.167,-0.37 -1.831,-0.135 -2.532,-0.096 -1.8,0.101 m 12.4,0.017 -2,0.274 2,0.016 c 1.1,0.008 2.54,-0.122 3.2,-0.29 l 1.2,-0.305 -1.2,0.015 c -0.66,0.009 -2.1,0.139 -3.2,0.29 m -20,4 c 0.44,0.189 1.16,0.338 1.6,0.332 0.643,-0.009 0.604,-0.075 -0.2,-0.332 -1.368,-0.438 -2.419,-0.438 -1.4,0 m 30.2,0 c -0.795,0.514 0.204,0.514 1.4,0 l 0.8,-0.344 -0.8,-0.022 c -0.44,-0.012 -1.07,0.153 -1.4,0.366 m -26.614,1.074 c 2.383,1.29 13.253,2.116 17.414,1.324 1.285,-0.245 0.707,-0.282 -2.017,-0.129 -4.438,0.248 -12.498,-0.503 -14.063,-1.311 -1.579,-0.816 -2.85,-0.705 -1.334,0.116 m 23.682,-0.224 c -0.402,0.234 -1.572,0.567 -2.6,0.741 l -1.868,0.315 1.6,0.025 c 0.88,0.013 2.41,-0.316 3.4,-0.731 1.039,-0.436 1.462,-0.76 1,-0.765 -0.44,-0.006 -1.129,0.181 -1.532,0.415"
       stroke="none"
       fill="#8c94c2"
       fill-rule="evenodd"
       sodipodi:nodetypes="ccccscccccccccscsccsscccccsccscccccccccccccccscccccscccccccccccsccccccccccsccccccsccccsccccsccccccccccccsscccccccscsccccccccccccsssccsccsccccccsccccssccccccccsccccccscccsccccccccccccccccccccccccccsssscccsccccccscccccsccccccccscccsscccscssscscsccccccccscccscccccccccsscccscccccssccsccccscccccscscccccccccccccccscscccscccscscccccccccscccsccccscsscsssccccccsccccsccccccsscccccccccccccccsccsccsccccccsccccccccccccccccccccccccccccccccccc" />
  </g>
</svg>
