<svg width="250" height="250" viewBox="0 0 250 250" fill="none" xmlns="http://www.w3.org/2000/svg">
<path fill-rule="evenodd" clip-rule="evenodd" d="M188.892 71.2921C183.345 71.8351 177.955 74.1395 173.255 77.5223C161.426 63.106 144.067 54 124.711 54C89.072 54 60.1805 84.8565 60.1805 122.922C60.1805 125.227 60.2997 127.501 60.5094 129.746C58.2758 136.429 58.5083 142.856 61.2924 144.418C61.9466 144.785 62.6887 144.853 63.4766 144.665C72.0023 172.071 96.1882 191.846 124.711 191.846C160.35 191.846 189.242 160.99 189.242 122.924C189.242 121.279 189.172 119.653 189.066 118.039C196.987 113.708 204.043 106.134 207.109 96.8036C212.241 81.1856 203.004 69.914 188.892 71.2921ZM124.252 61.8489C141.422 61.8489 156.805 70.0015 167.205 82.8737C163.59 86.7711 160.765 91.3158 159.16 95.9853C157.918 99.5996 157.449 103.166 157.709 106.45L124.706 132.795C123.712 131.443 122.511 130.389 121.138 129.705C121.597 126.336 121.917 122.763 121.973 119.14C122.155 107.446 119.43 96.4652 111.299 92.1097C113.198 84.3869 111.03 78.8965 106.199 79.3687C101.706 79.8088 96.281 85.3429 93.0692 92.2512C84.3868 96.0985 78.0934 104.467 74.0889 110.866C72.7192 113.055 71.4735 115.26 70.3676 117.363C69.5098 117.419 68.5894 117.816 67.6497 118.5C69.5483 86.8728 94.1631 61.8489 124.252 61.8489ZM118.388 151.31C116.514 156.659 112.265 159.749 109.058 158.248C105.993 156.812 105.021 151.673 106.766 146.75C108.505 141.84 112.413 138.658 115.605 139.679C118.942 140.75 120.255 145.979 118.388 151.31ZM104.931 95.0614C103.432 99.2162 100.242 102.459 97.9013 102.285C95.6425 102.119 95.0172 98.8109 96.4316 94.9173C97.8447 91.0327 100.835 87.8121 103.177 87.722C105.599 87.632 106.425 90.9182 104.931 95.0614ZM63.9789 137.135C62.5622 136.472 62.4526 133.203 63.697 129.841C64.9367 126.484 67.1184 124.136 68.599 124.612C70.1254 125.101 70.3435 128.391 69.0387 131.938C67.7292 135.495 65.4403 137.82 63.9789 137.135ZM124.252 183.014C98.2868 183.014 76.4008 164.378 69.6688 138.947C70.6868 137.316 71.6253 135.397 72.4083 133.262C74.4178 127.784 74.731 122.686 73.5902 119.797C74.3961 118.325 75.2732 116.816 76.2261 115.315C80.5462 108.52 85.2133 103.718 90.4538 101.404C89.9719 106.489 91.491 110.281 94.8293 110.759C98.4109 111.274 103.051 107.895 106.643 102.556C111.013 105.872 113.517 112.342 113.204 122.751C113.13 125.181 112.906 127.595 112.6 129.914C107.804 132.143 103.294 137.546 100.841 144.423C97.2158 154.59 98.9518 165.545 105.242 169.074C112.171 172.963 121.816 166.472 126.043 154.316C127.316 150.657 127.882 147.092 127.861 143.842L162.885 117.74C165.165 119.828 168.168 121.272 171.872 121.802C174.76 122.215 177.844 121.999 180.957 121.237C180.964 121.636 180.976 122.031 180.976 122.431C180.975 155.889 155.579 183.014 124.252 183.014ZM192.034 96.545C189.757 103.374 182.627 108.56 176.486 108.106C170.689 107.678 167.916 102.322 170.008 96.1705C172.095 90.042 178.406 84.9003 184.383 84.6751C190.709 84.4371 194.3 89.7447 192.034 96.545Z" fill="#1F2534"/>
</svg>
