<svg xmlns="http://www.w3.org/2000/svg" width="116.331" height="100.046"><g fill-rule="evenodd"><path fill="#fbfbfb" d="M59.641.435c1.582.236 3.147.567 3.477.735.33.169 1.68.627 3 1.018 3.815 1.13 5.954 1.917 6.6 2.428.33.26 1.5.9 2.6 1.422 1.1.522 2.591 1.448 3.314 2.058.723.61 1.546 1.11 1.83 1.11.283 0 1.942 1.363 3.686 3.028 4.858 4.64 4.447 4.489 7.65 2.815 6.327-3.307 16.338-3.554 18.901-.466.284.343.734.623.998.623.265 0 .843.405 1.285.9 4.462 5 4.465 11.458.01 20.082-1.125 2.177-7.26 8.217-9.574 9.425l-1.9.992-.014 2.4c-.017 2.887-.646 9.308-1.156 11.8-.985 4.822-6.13 16.8-7.217 16.8-.177 0-.64.676-1.028 1.5-.894 1.9-10.01 10.99-11.938 11.905-.796.378-1.447.853-1.447 1.056 0 .49-9.313 4.938-11.6 5.539-.99.26-2.34.705-3 .989-4.492 1.93-21.48 1.938-26 .01-.66-.28-2.19-.817-3.4-1.193-3.988-1.238-13.298-6.33-14.419-7.886-.12-.167-1.04-.892-2.044-1.611-3.78-2.71-10.894-12.134-12.76-16.908-.517-1.32-1.173-2.684-1.458-3.031-.286-.348-.519-.834-.519-1.082 0-.247-.613-.741-1.363-1.096C.267 64.9-.233 63.475.092 59.913c.145-1.6.402-5.787.571-9.307.17-3.52.513-7.21.764-8.2.251-.99.834-3.503 1.295-5.585.461-2.081.994-3.971 1.183-4.2.19-.228.815-1.664 1.39-3.191.574-1.528 1.49-3.361 2.034-4.074.544-.713.99-1.391.99-1.506 0-.607 3.937-5.803 5.981-7.893l1.958-2a34.953 34.953 0 0 1 5.532-4.583c1.28-.862 2.418-1.68 2.528-1.814.11-.136 1.01-.652 2-1.147s2.07-1.133 2.4-1.417c.33-.284 2.31-1.081 4.4-1.771 2.09-.691 4.34-1.447 5-1.682C42.138.113 53.545-.474 59.641.435M45.718 6.65c-2.654.279-7.369 1.38-7.616 1.78-.127.206-.566.375-.976.375-1.14 0-6.937 2.553-8.497 3.742-.762.582-1.568 1.058-1.79 1.058-.893 0-11.317 10.079-11.325 10.95-.002.247-.622 1.228-1.377 2.178-.756.95-1.685 2.57-2.064 3.6-.38 1.03-.919 2.144-1.199 2.477-.582.693-2.993 9.044-3.26 11.295-.269 2.248.992 2.007 2.488-.475 1.251-2.074 2.278-3.612 3.477-5.202 2.224-2.952 8.022-8.45 9.94-9.424 2.242-1.141 3.717-2.493 4.618-4.236 4-7.733 12.876-8.628 13.258-1.336.222 4.239.385 4.875 1.324 5.173 1.245.395 4.336 4.467 4.802 6.327.231.92.73 2.213 1.107 2.873.58 1.015.692 2.41.723 9.035.035 7.473.076 7.874.902 8.7 1.025 1.025 1.054 1.029 1.96.29 2.516-2.048 4.49-3.511 5.705-4.224.77-.452 2.39-1.635 3.6-2.63 1.21-.994 3.415-2.62 4.9-3.61 1.485-.99 2.7-1.967 2.7-2.172 0-.205.72-.74 1.6-1.19.88-.448 1.6-.98 1.6-1.182 0-.201.718-.77 1.596-1.263 1.65-.927 1.757-1.11 2.196-3.7.878-5.188 3.902-11.567 6.524-13.761l1.084-.907-2.8-2.636c-2.65-2.494-3.643-3.261-7.553-5.833-2.15-1.414-5.198-2.84-7.447-3.481-.99-.283-2.16-.707-2.6-.943-2.193-1.178-12.704-2.162-17.6-1.648M21.984 36.42c-1.659 1.013-6.866 6.25-6.866 6.909 0 .267-.638 1.203-1.418 2.08-1.329 1.495-1.408 1.735-1.249 3.796.244 3.16-.398 6.593-1.754 9.372-1.52 3.116-1.485 4.41.221 8.055.77 1.645 1.4 3.105 1.4 3.244 0 .139.42.81.934 1.49.513.682 1.42 2.075 2.013 3.097 3.488 6 14.121 13.9 21.715 16.13 1.286.378 2.968.939 3.738 1.248 4.252 1.702 15.642 1.456 21.525-.464 1.637-.535 3.171-.972 3.408-.972.617 0 9.188-4.383 9.667-4.943.22-.258.902-.79 1.515-1.181 1.788-1.145 7.455-6.731 8.387-8.268.47-.774 1.091-1.553 1.38-1.73.29-.177.803-.985 1.141-1.795.338-.81.95-1.835 1.356-2.278.408-.443 1.331-2.605 2.051-4.805.72-2.2 1.53-4.54 1.8-5.2.598-1.467 1.543-9.596 1.183-10.18-.15-.242-1.744-.42-3.759-.42-3.66 0-7.914-1.068-8.877-2.228-.637-.767-1.1-.721-2.12.21-1.39 1.269-4.315 3.359-6.398 4.57-1.067.62-2.249 1.426-2.627 1.789-.864.83-4.19 3.189-6.032 4.277-.77.455-2.294 1.512-3.387 2.348-1.093.836-2.398 1.676-2.9 1.867-.502.19-.913.508-.913.704 0 .196-.694.816-1.54 1.377-1.45.959-1.559 1.172-1.808 3.553-.287 2.739-1.039 5.28-1.785 6.026-.257.257-.467.673-.467.925 0 1.027-3.276 5.43-4.88 6.558-.946.666-1.953 1.408-2.239 1.65-1.338 1.136-5.823 1.556-7.955.746-7.72-2.936-7.077-19.41 1.03-26.331 4.588-3.92 4.168-2.9 3.943-9.571-.209-6.157-.572-7.812-2.197-10-1.453-1.956-1.959-1.98-3.69-.18-5.014 5.22-11.212 4.628-11.212-1.07 0-1.44-.495-1.525-2.334-.404"/><path fill="#404c9c" d="M46.182.866c-2.384.196-4.85.623-5.48.948-.629.326-1.47.592-1.869.592-1.187 0-6.795 1.895-9.033 3.053a148.89 148.89 0 0 1-3.382 1.695c-.715.34-1.3.744-1.3.897 0 .153-.988.836-2.195 1.517-2.666 1.505-8.994 7.493-10.699 10.124-.683 1.053-1.357 1.914-1.5 1.914-.142 0-.683.765-1.202 1.7-.519.935-1.327 2.24-1.794 2.9-.468.66-1.088 1.92-1.378 2.8-.29.88-.959 2.5-1.486 3.6-.875 1.825-1.696 5.47-2.99 13.28-.28 1.69-.37 4.139-.219 5.93.16 1.895.097 3.353-.167 3.846-.234.437-.528 2.378-.653 4.314-.25 3.876-.079 4.256 2.575 5.685.807.435 1.382 1.175 1.71 2.2 1.08 3.379 4.716 10.02 5.841 10.665.306.176.557.498.557.717 0 .602 5.153 6.389 6.986 7.845a73.497 73.497 0 0 1 2.356 1.942c.65.577 3.486 2.629 4.8 3.47 1.837 1.178 9.3 4.312 11.258 4.728 1.32.28 2.858.736 3.418 1.012 3.135 1.546 17.622 1.54 21.951-.008 2.705-.967 4.29-1.426 4.922-1.426.35 0 1.507-.437 2.572-.97a276.386 276.386 0 0 1 5.037-2.428c1.705-.802 3.1-1.586 3.1-1.744 0-.157.585-.627 1.3-1.044 2.624-1.532 4.752-3.447 10.238-9.214.628-.66 1.626-2.055 2.22-3.1.591-1.045 1.224-1.9 1.404-1.9.181 0 .812-1.035 1.403-2.3s1.39-2.84 1.773-3.5c.65-1.115 1.21-2.73 2.15-6.2.21-.77.568-1.94.8-2.6.695-1.988 1.457-8.167 1.485-12.052l.027-3.653 2.232-1.13c4.414-2.232 9.27-8.167 11.61-14.19 2.741-7.053-.412-14.68-7.013-16.962-3.253-1.125-11.452-.55-12.907.905-.265.265-.685.482-.934.482s-1.338.449-2.42.998c-2.834 1.438-2.523 1.562-7.243-2.91-2.812-2.662-6.878-5.537-9.525-6.733-.88-.398-1.87-.927-2.2-1.175-.82-.617-4.569-2-7-2.581-1.1-.263-2.64-.715-3.422-1.005-.783-.29-2.943-.638-4.8-.775a737.834 737.834 0 0 1-4.978-.382c-.88-.074-3.55.027-5.936.223m12.236 5.378c2.035.35 4.42.907 5.3 1.237.88.33 2.514.924 3.631 1.319 4.716 1.67 9.845 5.055 14.594 9.63 2.774 2.672 2.763 2.627 1.075 4.483-3.455 3.799-4.867 6.83-5.552 11.926-.5 3.71-.618 3.868-5.218 6.982-1.469.994-2.729 1.948-2.8 2.119-.072.172-1.12.97-2.33 1.775-1.21.805-2.83 2.018-3.6 2.696-.77.677-2.57 2.018-4 2.979-1.43.96-3.036 2.213-3.57 2.782-.533.569-1.177 1.034-1.43 1.034-.253 0-.883.45-1.4 1-1.214 1.292-2.197 1.264-3.562-.101l-1.1-1.1.182-6.67c.146-5.327.057-7.056-.44-8.6-.344-1.06-.848-2.74-1.12-3.73-.614-2.22-3.174-5.695-5.054-6.857-1.393-.861-1.403-.887-1.174-3.103.948-9.192-7.563-8.884-13 .47-.828 1.425-1.548 2.058-3.2 2.816-3.4 1.559-11.324 9.776-12.994 13.475-.864 1.914-2.655 3.6-3.823 3.6H6.615l.284-2.882c.156-1.586.54-3.377.851-3.981.313-.603.568-1.41.568-1.791 0-.932 1.58-5.396 2.174-6.146.262-.33.813-1.41 1.225-2.4.412-.99 1.053-2.16 1.426-2.6.372-.44 1.161-1.581 1.753-2.535C18.003 19.063 27.2 11.586 32.918 9.416c1.54-.584 3.34-1.307 4-1.606 4.384-1.987 14.698-2.738 21.5-1.566m42.873 16.83c6.766 3.226.53 15.498-8.343 16.414-7.177.74-10.002-5.271-5.537-11.782.792-1.155 1.646-2.1 1.9-2.1.251 0 .956-.521 1.566-1.158.974-1.015 2.05-1.467 5.241-2.2 1.243-.285 3.65.099 5.173.826m-65.494 1.932c1.161.813 1.528 2.693.8 4.089-.32.61-.81 1.6-1.092 2.2-1.69 3.606-5.626 5.299-6.723 2.892-1.937-4.252 3.637-11.547 7.015-9.181M25.134 36.788c.492 4.828 6.356 5.148 9.871.54 3.705-4.857 7.268.953 7.3 11.902.015 5.669.136 5.377-3.438 8.31-8.87 7.285-9.729 23.46-1.374 25.906 1.96.574 5.483.112 6.225-.817.22-.275.962-.791 1.65-1.146 3.19-1.648 7.275-8.99 7.658-13.765.172-2.143.366-2.67 1.188-3.236.541-.372 1.662-1.261 2.492-1.976.83-.715 1.693-1.3 1.918-1.3.226 0 .834-.447 1.352-.993.518-.546 1.081-.996 1.252-1 .357-.008 4.39-2.738 4.69-3.175.11-.16.965-.716 1.9-1.235.935-.52 1.7-1.076 1.7-1.236 0-.161 1.162-.942 2.582-1.736 1.421-.795 2.696-1.627 2.834-1.851.138-.224 1.001-.878 1.918-1.454.916-.576 1.901-1.38 2.19-1.784.66-.93 1.7-.937 2.922-.02 2.041 1.532 3.321 1.842 7.901 1.915 3.353.054 4.637.217 4.89.62.577.922-.477 11.082-1.259 12.149-.162.22-.86 2.11-1.553 4.2-.692 2.09-1.79 4.549-2.442 5.465-.65.916-1.183 1.835-1.183 2.042 0 .207-.405.818-.9 1.358-.495.54-1.53 1.89-2.302 2.999-1.984 2.856-8.822 8.626-12.315 10.393-1.605.812-3.007 1.62-3.116 1.797-.11.177-1.657.782-3.44 1.345-1.782.563-3.44 1.153-3.684 1.312-1.914 1.245-15.539 1.72-20.443.713-3.19-.655-9.702-2.885-10.6-3.63-.33-.273-1.905-1.166-3.5-1.984-1.595-.818-2.9-1.644-2.9-1.836 0-.191-.432-.58-.96-.861-.936-.5-4.793-4.096-7.27-6.78-1.418-1.534-5.37-7.572-5.37-8.202 0-.233-.329-.852-.73-1.377-.403-.525-1.142-2.247-1.642-3.827l-.91-2.872 1.428-2.857c1.664-3.325 2.423-6.916 2.044-9.671-.27-1.97.036-2.827 1.663-4.654.33-.37 1.102-1.456 1.715-2.413 1.873-2.921 8.136-7.914 9.432-7.52.22.068.497 1.077.616 2.242M8.72 51.807c1.453 1.75-.989 7.929-3.517 8.899-1.159.445-2.186-1.463-2-3.712.323-3.886 3.846-7.2 5.517-5.187M45.233 62.41c3.675 2.892 2.15 10.272-2.716 13.144-1.98 1.168-2.857 1.074-4.403-.472-4.788-4.788 1.933-16.751 7.12-12.672"/><path fill="#aaa04b" d="M96.118 22.248c-3.192.733-4.267 1.185-5.24 2.2-.61.637-1.316 1.158-1.568 1.158-.253 0-1.107.945-1.899 2.1-4.465 6.51-1.64 12.522 5.537 11.782 4.995-.516 9.84-4.783 10.921-9.62 1.076-4.807-2.915-8.73-7.75-7.62m-63.2 2.725c-3.394 1.514-5.688 6.904-3.978 9.344 1.453 2.075 4.924.477 6.564-3.022.281-.6.772-1.59 1.091-2.2 1.475-2.823-.822-5.397-3.678-4.122m-27 26.75c-2.475 2.029-3.562 6.365-2.067 8.245.968 1.219 1.564.987 3.482-1.354 3.051-3.723 1.85-9.567-1.415-6.891m35.6 10.21c-4.737 2.148-6.725 9.828-3.404 13.149 2.083 2.083 4.525 1.352 7.203-2.156 3.978-5.21 1.197-13.256-3.799-10.992"/><path fill="#a9b1d4" d="M43.118.417c-.789.172.26.213 2.4.093 2.09-.117 3.875-.278 3.967-.358.303-.265-4.94-.047-6.367.265m9.633-.265c.092.08 1.877.244 3.967.365 2.585.149 3.288.11 2.2-.123-1.569-.335-6.495-.53-6.167-.242M38.518 1.375c-.66.285-3.052 1.112-5.315 1.837-2.263.725-4.21 1.474-4.328 1.664-.118.19-1.146.815-2.285 1.39-1.14.575-2.162 1.156-2.272 1.292-.11.137-1.248.954-2.528 1.816a34.953 34.953 0 0 0-5.532 4.583l-1.958 2c-2.044 2.09-5.982 7.286-5.982 7.893 0 .115-.445.793-.989 1.506S5.9 27.812 5.36 29.23c-.54 1.417-1.247 3.116-1.573 3.776-.325.66-.697 1.83-.826 2.6-.232 1.392-.23 1.393.181.2.227-.66.751-1.92 1.164-2.8.413-.88 1.145-2.59 1.626-3.8C8.472 22.825 17.895 11.54 22.67 9.165c.577-.288 1.41-.825 1.85-1.194 1.988-1.668 9.771-5.032 13.361-5.774 2.21-.457 4.113-1.362 2.838-1.35-.55.006-1.54.243-2.2.528m24.4.226c1.1.409 3.53 1.224 5.4 1.812 1.87.587 3.8 1.32 4.286 1.63 1.271.807 1.595.695.468-.162-1.004-.763-2.973-1.522-6.954-2.68-1.32-.384-2.57-.855-2.78-1.046-.209-.192-.839-.337-1.4-.323-.773.02-.535.206.98.769m11.4 4.227c0 .123.796.575 1.768 1.005.973.43 1.828.93 1.9 1.11.073.18 1.122.96 2.332 1.733 1.21.773 3.55 2.693 5.2 4.267 1.65 1.575 3.148 2.863 3.331 2.863.634 0 6.32-2.882 6.106-3.096-.118-.118-1.489.455-3.046 1.273-3.329 1.749-2.888 1.906-7.76-2.75-1.745-1.664-3.396-3.027-3.67-3.027-.275 0-1.064-.475-1.753-1.055-1.64-1.38-4.408-2.838-4.408-2.323m-29 .428c-4.1.44-10.809 2.55-8.113 2.55.366 0 .77-.17.897-.374 1.385-2.241 20.693-2.406 25.016-.215.55.279 1.81.739 2.8 1.023 2.253.646 5.301 2.072 7.447 3.483 3.91 2.572 4.903 3.339 7.553 5.833l2.8 2.636-1.084.907c-1.238 1.036-4.079 5.077-3.78 5.377.11.109.407-.191.662-.666.254-.476.72-1.166 1.033-1.534 4.021-4.72 3.786-3.862 1.67-6.085-9.019-9.47-23.13-14.417-36.9-12.935m-11.4 3.053-2.8 1.256c-.99.445-2.045 1.047-2.343 1.338-.298.29-1.233.882-2.078 1.313-.846.432-1.682 1.015-1.859 1.297-.176.282-.86.852-1.52 1.268-1.312.826-5.386 4.666-5.395 5.085-.003.143-.59.88-1.306 1.638-1.678 1.778-2.788 3.486-4.356 6.702-.698 1.43-1.503 2.877-1.79 3.215-.77.904-3.525 11.018-2.827 10.374.125-.116.79-2.274 1.475-4.795s1.475-4.856 1.754-5.19c.28-.332.82-1.446 1.2-2.476.378-1.03 1.307-2.65 2.063-3.6.755-.95 1.375-1.931 1.377-2.178.007-.833 10.423-10.95 11.272-10.95.193 0 1.221-.598 2.285-1.33 1.063-.731 3.04-1.743 4.39-2.25 1.351-.504 2.457-.986 2.457-1.07 0-.275-.987-.102-2 .353m66.5 3.39a29.38 29.38 0 0 0 3.8 0c1.045-.081.19-.15-1.9-.15s-2.945.069-1.9.15m-4.3.507-.8.344h.8c.44 0 1.16-.155 1.6-.344l.8-.344h-.8c-.44 0-1.16.155-1.6.344m11 0c.33.213.87.388 1.2.388.533 0 .533-.043 0-.388-.33-.213-.87-.388-1.2-.388-.533 0-.533.043 0 .388m2.931 1.3c.576.495 1.594 1.32 2.263 1.834 3.011 2.315 4.971 11.66 2.883 13.749-.263.263-.477.722-.477 1.022 0 2.995-7.07 11.675-11.487 14.103l-1.913 1.05-.024 3.172-.024 3.17.138-3.008.14-3.01 1.885-.983c2.301-1.201 8.437-7.246 9.56-9.417 4.454-8.624 4.451-15.082-.01-20.082-.443-.495-1.015-.9-1.273-.9-.257 0-.794-.36-1.192-.8-.398-.44-.902-.8-1.12-.8-.218 0 .075.405.651.9m-76.219 4.72c-1.919 1.014-4.803 3.822-5.693 5.543-.9 1.743-2.376 3.095-4.619 4.236-1.917.975-7.715 6.472-9.939 9.424-1.199 1.59-2.226 3.128-3.477 5.202-1.41 2.342-2.554 2.633-2.644.675-.058-1.258-.065-1.263-.23-.166-.456 3.046 1.685 2.493 3.69-.954.66-1.135 1.875-2.865 2.7-3.846.825-.98 1.5-1.911 1.5-2.07 0-.907 6.662-6.87 9.133-8.174 2.004-1.058 3.03-2.063 4.107-4.025 1.316-2.398 4.417-5.07 6.868-5.916 1.373-.475 1.748-.721 1.092-.718-.55.002-1.67.358-2.488.79m4.871-.261c1.812.655 2.376 2.05 2.4 5.935l.017 3.095 1.6 1.01c.88.556 1.6 1.177 1.6 1.38 0 .204.502.92 1.116 1.593.696.762 1.556 2.616 2.283 4.924.685 2.174 1.234 3.379 1.33 2.919.09-.432-.12-1.332-.464-2-.345-.67-.819-1.97-1.054-2.89-.476-1.862-3.57-5.932-4.81-6.326-.939-.298-1.102-.934-1.324-5.173-.18-3.453-1.213-5.065-3.199-4.997-.666.024-.545.15.505.53m38.646 12.069c-.148.586-.178 1.155-.068 1.265.11.11.32-.28.468-.865.147-.587.177-1.156.067-1.266-.11-.11-.32.279-.467.866m-1.007 3.849a230.717 230.717 0 0 0-.632 2.94c-.09.452-.89 1.228-1.777 1.727-.887.498-1.613 1.07-1.613 1.272 0 .202-.72.734-1.6 1.183-.88.449-1.6.984-1.6 1.189 0 .205-1.215 1.183-2.7 2.173s-3.69 2.615-4.9 3.609c-1.21.995-2.83 2.178-3.6 2.63-1.215.713-3.189 2.176-5.705 4.225-.95.775-2.559-.142-3.203-1.826-.198-.518-.233-.515-.26.025-.03.599 1.918 2.775 2.485 2.775.443 0 4.683-2.943 4.683-3.251 0-.154.855-.84 1.9-1.522 2.325-1.52 6.186-4.341 6.483-4.738.12-.16 1.027-.825 2.017-1.478a46.629 46.629 0 0 0 3.273-2.4 72.14 72.14 0 0 1 3.143-2.411c3.375-2.423 3.85-3.054 4.16-5.546.373-2.982.051-3.317-.554-.576m-56.65 2.955c-1.858 1.542-3.775 3.578-4.627 4.913-.8 1.255-1.745 2.522-2.1 2.816-.355.295-.642.739-.637.987.004.248.634-.267 1.4-1.145.765-.877 1.392-1.813 1.392-2.08 0-.658 5.207-5.896 6.866-6.908 1.84-1.121 2.334-1.035 2.334.404 0 1.438.805 3.102 1.973 4.08 1.5 1.256 1.654.735.182-.614-1.148-1.051-1.476-1.69-1.646-3.2-.299-2.646-1.21-2.514-5.138.747m15.088.147c-1.135 1.11-2.31 2.02-2.612 2.02-.302 0-.773.27-1.047.6-.274.33-.88.62-1.349.646-.552.03-.632.106-.227.215.906.245 4.262-1.75 5.934-3.527 2.018-2.145 3.708-1.298 5.108 2.562.36.992.48 1.1.504.449.043-1.228-2.405-4.721-3.409-4.865-.566-.081-1.512.539-2.902 1.9m-32.583.43a8.163 8.163 0 0 0-.23 1.99c.025.718.138.557.403-.573.406-1.732.251-3.002-.173-1.417m-.875 4.49c-.16.495-.455 3.96-.654 7.7-.2 3.74-.465 8.029-.59 9.53-.28 3.364.243 4.789 2.08 5.66.75.356 1.363.85 1.363 1.097 0 .248.233.734.52 1.082.284.347.94 1.71 1.456 3.03 1.867 4.775 8.98 14.2 12.761 16.909 1.004.719 1.924 1.444 2.044 1.61 1.124 1.562 10.45 6.659 14.42 7.882 1.21.373 2.71.93 3.331 1.239.623.309 1.523.554 2 .545 1.172-.021-1.147-1.05-4.132-1.833-2.65-.696-10.779-4.558-11.549-5.488-.302-.365-.756-.663-1.01-.663-.62 0-6.599-5.021-8.256-6.934a116.32 116.32 0 0 0-2.4-2.683c-1.31-1.401-5.985-8.18-5.985-8.676 0-.196-.36-1.102-.8-2.013-.44-.91-.8-1.832-.8-2.047 0-.848-1.85-3.197-2.695-3.422C.753 64.987.2 63.528.48 60.307c.14-1.595.42-5.781.625-9.301.205-3.52.492-6.985.64-7.7.302-1.482.014-1.753-.425-.4m40.127 4.97c.192 6.87.498 6.079-3.67 9.463-1.652 1.34-3.858 4.15-3.858 4.913 0 .327 1.423-1.486 1.64-2.09.088-.245 1.06-1.21 2.16-2.145s2.495-2.131 3.1-2.66l1.1-.957-.04-5.297c-.022-2.913-.166-5.747-.32-6.297-.155-.55-.206 1.73-.112 5.07m7.827-.87c.001 2.86.065 3.978.142 2.483.077-1.494.077-3.834 0-5.2-.079-1.365-.142-.143-.142 2.717m30.245-.206c0 .217-.765.887-1.7 1.489-.935.602-2.13 1.504-2.655 2.005-.525.502-1.103.912-1.285.912-.183 0-1.103.549-2.046 1.22-.943.67-2.622 1.823-3.73 2.559-1.11.737-2.258 1.628-2.55 1.98-.293.353-.713.64-.934.64-.344 0-3.487 2.152-7.1 4.859a69.796 69.796 0 0 1-2.423 1.702c-1.349.903-1.446 1.12-1.845 4.139-1.885 14.283-17.05 21.438-21.199 10-.925-2.546-.64-9.398.5-12.1 1.497-3.54 1.548-3.775.414-1.873-3.939 6.6-1.99 17.566 3.491 19.65 2.121.807 6.61.383 7.943-.75.286-.242 1.293-.984 2.238-1.65 1.605-1.128 4.881-5.531 4.881-6.558 0-.252.21-.668.467-.925.746-.746 1.498-3.287 1.785-6.026.25-2.381.358-2.594 1.807-3.553.847-.561 1.541-1.181 1.541-1.377 0-.196.411-.513.913-.704.502-.191 1.807-1.031 2.9-1.867 1.093-.836 2.617-1.893 3.387-2.348 1.842-1.088 5.168-3.447 6.032-4.277.378-.363 1.56-1.168 2.627-1.79 2.083-1.21 5.007-3.3 6.397-4.57 1.055-.962 1.12-.962 2.46-.015.596.422 1.534.87 2.084.996.693.159.586.04-.35-.388-.743-.34-1.61-.878-1.929-1.196-.655-.655-2.12-.782-2.12-.184m6.313 2.478c.377.149 2.34.284 4.362.3 2.11.016 3.788.207 3.937.449.397.642-.61 8.823-1.25 10.14-.74 1.53-.72 2.243.034 1.165.731-1.043 1.902-8.164 1.73-10.512l-.127-1.713-4.686-.05c-2.577-.028-4.377.07-4 .22m-74.074 5.169c-.147.917-.188 1.745-.093 1.84.095.096.3-.57.453-1.48.154-.91.196-1.738.093-1.84-.103-.103-.306.563-.453 1.48m89.023.96c-.04.66-.159 1.92-.266 2.8l-.194 1.6.42-1.34c.231-.737.351-1.997.266-2.8-.137-1.294-.163-1.323-.226-.26M10.82 57.428c-.274.298-.859 1.456-1.299 2.573l-.8 2.033.835 2.486c.778 2.315 1.505 3.677 1.804 3.379.07-.07-.31-1.02-.845-2.11-1.24-2.535-1.244-4.358-.01-6.796 1.047-2.068 1.123-2.441.315-1.565m88.638 4.978c-.346.99-1.045 3.15-1.554 4.8-.509 1.65-1.119 3.344-1.355 3.765-.237.42-1.06 1.889-1.83 3.264-2.98 5.324-8.742 12.114-12.6 14.85-.66.468-2.02 1.47-3.025 2.226-2.34 1.764-9.443 5.149-12.685 6.047-3.746 1.037-5.442 1.812-4.014 1.832.592.009 1.173-.14 1.29-.328.117-.19 1.342-.658 2.723-1.041 2.893-.802 12.311-5.205 12.311-5.755 0-.203.651-.678 1.447-1.056 1.928-.914 11.044-10.005 11.938-11.904.388-.825.85-1.5 1.025-1.5.598 0 4.317-7.48 5.36-10.78.571-1.808 1.228-3.643 1.46-4.075.231-.433.357-1.092.28-1.466-.085-.403-.398.052-.77 1.12m-8.863 4.678c-.813 2.47-.569 2.714.338.338.385-1.008.608-1.925.495-2.038-.113-.113-.488.652-.833 1.7M11.74 69.206c.144.55.558 1.429.92 1.953.677.98.78 1.143 2.428 3.853.533.877 1.523 2.162 2.2 2.857.676.695 1.68 1.733 2.23 2.306 2.384 2.488 3.877 3.83 4.255 3.83.223 0 .833.456 1.355 1.01.522.557 1.498 1.3 2.17 1.65 6.194 3.248 10.033 4.86 10.487 4.407.118-.117-.517-.41-1.409-.65-2.255-.608-8.685-3.946-11.073-5.748-5.642-4.26-9.195-8.35-12.904-14.856-.6-1.053-.829-1.266-.659-.612m77.257 1.112c-.356.395-.924 1.376-1.26 2.18-.336.805-.848 1.609-1.137 1.786-.289.177-.91.956-1.38 1.73-.932 1.537-6.599 7.123-8.387 8.268-.613.392-1.295.923-1.515 1.179-.22.256-2.38 1.473-4.8 2.704-2.42 1.23-4.198 2.238-3.95 2.239 2.992.01 18.95-11.752 18.95-13.968 0-.195.63-1.108 1.4-2.03.77-.922 1.4-1.895 1.4-2.162 0-.268.378-.893.84-1.39.462-.495.761-.98.664-1.077-.096-.097-.468.147-.825.54M64.118 90.807l-.8.344.8.022c.44.012 1.07-.153 1.4-.366.795-.514-.204-.514-1.4 0m-24.197 1.177c3.012 1.225 10.05 1.804 15.297 1.258 4.201-.437 8.225-1.444 7.733-1.935-.118-.12-.984.072-1.924.423-4.28 1.6-17.304 1.63-20.366.047-.607-.313-1.427-.56-1.823-.548-.396.012.091.352 1.083.755m2.597 7.606c1.208.324 5.277.545 4.967.269-.092-.081-1.517-.248-3.167-.37-1.83-.135-2.532-.096-1.8.1m14 .018-1.6.286 1.8.01c.99.005 2.34-.128 3-.296l1.2-.305-1.4.009c-.77.005-2.12.138-3 .296"/><path fill="#8c94c2" d="M45.86.477c-3.554.33-9.396 1.88-7.222 1.915.506.008 1.422-.246 2.036-.563 2.714-1.404 17.801-1.404 21.161 0 .76.317 1.674.567 2.032.555.358-.012-.159-.35-1.149-.75C61.204 1.024 51.98-.136 50.21.062c-.27.03-2.228.218-4.35.416M35.517 2.806c-.795.514.204.514 1.4 0l.8-.344-.8-.022c-.44-.012-1.07.153-1.4.366m29.8 0c.44.189 1.07.344 1.4.344.378 0 .304-.127-.2-.344-.44-.19-1.07-.344-1.4-.344-.378 0-.304.127.2.344m-36.8 2.852c-1.76.899-3.572 1.976-4.026 2.392-.454.416-.978.756-1.163.756-1.884 0-12.166 10.67-14.646 15.2-.422.77-1.059 1.85-1.415 2.4l-.648 1 .855-1c.47-.55 1.331-1.855 1.912-2.9.582-1.045 1.18-1.9 1.327-1.9.148 0 .827-.861 1.51-1.914 1.705-2.631 8.033-8.62 10.7-10.124 1.206-.681 2.194-1.384 2.194-1.561 0-.178.495-.52 1.1-.762 1.712-.683 6.347-3.21 5.9-3.217-.22-.003-1.84.73-3.6 1.63m42.6-.867c.77.41 2.182 1.118 3.137 1.574 2.9 1.383 6.99 4.279 9.788 6.93 4.364 4.135 5.414 4.597 6.875 3.024.281-.303.163-.34-.4-.126-.44.167-1.07.379-1.4.472-.347.097-1.864-1.044-3.6-2.708-1.65-1.582-3.99-3.508-5.2-4.28-1.21-.771-2.299-1.55-2.42-1.73C77.606 7.51 70.653 4 70.13 4.025c-.226.01.22.355.99.766m-26 1.168c-.77.136 1.83.247 5.776.247 3.948 0 6.648-.114 6-.253-1.506-.323-9.939-.32-11.777.006m-5 .847-.8.344.8-.012c.44-.006 1.25-.156 1.8-.332l1-.32-1-.012c-.55-.006-1.36.143-1.8.332m19.6 0c1.692.43 3.144.43 1.8 0-.55-.176-1.45-.317-2-.313-.898.007-.878.039.2.313m-23 1.014c-.55.298-2.26 1.018-3.8 1.6-5.71 2.159-14.913 9.64-18.022 14.65-.592.955-1.38 2.096-1.753 2.536-.373.44-1.014 1.61-1.426 2.6-.412.99-.985 2.084-1.274 2.43-.619.746-.694 1.322-.127.97.22-.134 1.031-1.54 1.803-3.123 1.7-3.481 2.782-5.16 4.5-6.98.714-.757 1.302-1.494 1.305-1.637.01-.42 4.083-4.26 5.394-5.085.66-.416 1.345-.986 1.521-1.268.177-.282 1.013-.865 1.86-1.297.844-.431 1.78-1.022 2.077-1.313.66-.645 3.568-2.01 5.742-2.693 2.394-.753 4.933-1.998 4-1.962-.44.017-1.25.275-1.8.572m26.8-.048c1.758.939 3.205 1.178 1.6.265-.77-.44-1.67-.798-2-.798-.333-.001-.155.237.4.533m5.246 1.977c4.581 1.884 15.154 9.819 15.154 11.372 0 .163-1.178 1.61-3.432 4.218-.943 1.09-2.569 4.475-2.559 5.325.006.408.43-.278.942-1.524.964-2.343 1.916-3.771 4.15-6.227.714-.786 1.3-1.602 1.3-1.812 0-.9-7.077-7.061-10.4-9.058-2.43-1.458-6.177-3.237-6.8-3.227-.33.005.41.425 1.645.933m27.872 3.67c-1.94.532-4.146 1.787-3.138 1.787.306 0 .841-.24 1.19-.534 1.984-1.68 10.848-1.957 13.891-.436 1.006.503 1.586.636 1.471.337-.605-1.577-9.17-2.314-13.414-1.153m15.157 2.763c2.04 1.667 3.441 5.052 3.735 9.023l.252 3.4.07-3.221c.091-4.273-1.868-8.531-4.532-9.848-.44-.218-.226.073.475.646m-76.63 3.008c-2.426.82-5.37 3.416-7.047 6.213-.659 1.099-1.873 2.434-2.698 2.967-1.797 1.16-1.749 1.497.084.583.75-.374 1.765-1.432 2.365-2.466 4.088-7.041 11.39-9.6 12.795-4.482.211.77.4 1.079.42.687.156-3.084-2.504-4.658-5.919-3.502m5.622 7.482c-.06 1.498.072 1.754 1.3 2.512.75.464 2.047 1.739 2.881 2.832.834 1.094 1.57 1.989 1.634 1.989.403 0-.044-.8-1.082-1.936-.66-.722-1.2-1.48-1.2-1.684 0-.203-.709-.817-1.575-1.364-1.3-.821-1.603-1.26-1.733-2.505l-.158-1.511-.067 1.667m-35.02 2.779c-.409.986-.657 1.878-.552 1.982.104.104.505-.635.89-1.643.911-2.386.626-2.671-.339-.34m108.99.586c-1.533 4.039-2.254 5.536-3.456 7.169-1.78 2.42-5.706 6.24-7.622 7.418-.857.526-1.419.963-1.25.97 2.651.107 12.292-11.272 12.292-14.51 0-.284.2-.718.445-.963s.37-.672.277-.95c-.092-.276-.402.113-.687.866m-93.36.88c-2.159 1.825-6.275 6.009-6.275 6.377 0 .17-.604.985-1.342 1.81-1.617 1.809-2.806 3.846-1.723 2.953.366-.302.665-.73.665-.951 0-.382 1.086-1.77 4.082-5.216.725-.834 2.543-2.59 4.041-3.9 1.497-1.311 2.577-2.38 2.4-2.373-.178.005-1.009.59-1.848 1.3m55.985 1.359c-.117.4-.339 1.805-.493 3.118-.302 2.565-.732 3.149-4.139 5.612-.913.66-2.432 1.83-3.377 2.6-.944.77-2.46 1.85-3.369 2.4-.908.55-1.749 1.24-1.867 1.534-.119.294.46.008 1.285-.635.825-.642 2.085-1.507 2.8-1.92.715-.413 1.3-.88 1.3-1.035 0-.155 1.215-1.105 2.7-2.11 4.61-3.118 4.753-3.307 5.23-6.867.404-3.035.374-4.221-.07-2.697m-73.024.62C2.466 35.92-.35 58.3 1.496 55.607c.252-.368.313-1.808.157-3.724-.149-1.83-.057-4.317.222-6 1.311-7.913 2.107-11.602 2.7-12.506.358-.547.575-1.071.482-1.164-.093-.093-.409.215-.703.685M22.85 35.05c-1.974.972-6.526 5.087-7.763 7.015-.613.957-1.385 2.043-1.715 2.413-1.627 1.827-1.934 2.685-1.663 4.654.306 2.223-.37 6.644-1.219 7.959-.763 1.183-.723 1.523.083.717.917-.917 1.773-5.387 1.65-8.617-.09-2.362.016-2.846.81-3.693.503-.536 1.493-1.887 2.2-3.003 1.535-2.421 7.234-7.29 8.533-7.29.748 0 .934.259 1.075 1.5.151 1.323.166 1.29.125-.27-.054-2.041-.368-2.247-2.116-1.385m13.998.41c-.259.106-1.137 1.037-1.95 2.069l-1.48 1.876 1.66-1.727c3.864-4.023 6.797.97 6.827 11.624.016 5.759.525 4.696-4.179 8.718-2.132 1.823-2.399 2.192-4.027 5.585-1.57 3.272-2.185 5.156-2.136 6.55.037 1.06.097.979.395-.545.913-4.663 3.61-9.396 6.846-12.02 3.648-2.956 3.517-2.643 3.501-8.33-.02-7.07-.81-10.111-3.312-12.755-1.264-1.335-1.34-1.373-2.145-1.045m-28.28.76c-.137.358-.233 1.04-.213 1.518.026.614.15.475.423-.477.398-1.384.235-2.198-.21-1.041m38.973 1.436c-.012.358.27 1.348.626 2.2.538 1.287.618 2.7.471 8.349l-.177 6.8 1.098 1.1c1.362 1.364 2.346 1.392 3.56.1.517-.55 1.113-1 1.325-1 .212 0 1.153-.675 2.091-1.5.938-.825 2.891-2.31 4.34-3.3 1.447-.99 2.635-1.944 2.638-2.12.003-.175-.81.275-1.81 1-1 .726-2.648 1.896-3.664 2.599-1.016.704-1.954 1.452-2.084 1.662-.316.513-4.325 3.259-4.757 3.259-1.785 0-2.216-1.813-2.118-8.908.086-6.144.006-7.134-.71-8.902-.444-1.095-.817-1.697-.829-1.34m-22.422 1.148c0 1.927 4.291 3.228 6 1.818.33-.272.941-.616 1.357-.765.417-.148.65-.378.517-.51-.132-.132-.888.142-1.68.609-1.997 1.179-3.455 1.087-4.952-.31-.683-.64-1.242-1.017-1.242-.842m-17.506.956c-.575 1.262-1.098 6.647-.646 6.643.194-.002.377-1.087.408-2.412.031-1.324.28-2.948.554-3.61.595-1.435.31-1.995-.316-.621m2.745 4.277c-.44.727-1.216 1.55-1.72 1.83-.687.382-.75.514-.253.525.707.015 3.39-3.065 3.004-3.45-.125-.124-.589.368-1.03 1.095m90.627 1.836c-.147.146-.267 1.69-.267 3.43 0 4.267-.773 10.655-1.45 11.983-.302.594-.543 1.404-.534 1.8.102 4.724 2.347-7.682 2.37-13.1.008-2.108.198-3.604.494-3.9.287-.287.314-.48.067-.48-.228 0-.534.12-.68.267m-21.944.865c-.288.403-1.063 1.07-1.723 1.482-1.626 1.017-3.913 2.986-3.468 2.986.197 0 .788-.41 1.313-.912.525-.501 1.72-1.403 2.655-2.005.935-.602 1.7-1.272 1.7-1.49 0-.594 1.464-.472 2.113.177 1.426 1.426 3.647 1.97 8.413 2.06 2.6.049 4.633-.005 4.52-.12-.115-.113-2.242-.24-4.727-.28-4.55-.072-5.835-.385-7.873-1.914-1.22-.916-2.262-.91-2.923.016m-7.558 5.406c-.789.474-1.752 1.18-2.138 1.57-.387.39-1.235.986-1.886 1.323-.65.336-1.489.88-1.862 1.21a54.88 54.88 0 0 1-1.679 1.399l-1 .799 1-.52c.55-.285 1.575-.97 2.277-1.52.702-.55 2.202-1.63 3.334-2.4 3.711-2.524 4.826-3.587 1.954-1.861m22.705 4.019c-.159 1.296-.209 2.437-.11 2.536.266.266.743-3.275.56-4.146-.088-.411-.29.313-.45 1.61M.575 57.906c-.73 4.419.233 7.746 2.225 7.684.285-.01.025-.283-.577-.61-1.39-.754-1.676-1.934-1.365-5.62.268-3.164.122-3.908-.283-1.454m61.13 1.039c-.449.254-1.248.866-1.777 1.36-.528.496-1.13.9-1.337.9-.207 0-1.055.586-1.885 1.3-.83.716-1.977 1.624-2.548 2.02-.828.572-1.028 1.02-.983 2.2l.057 1.48.243-1.535c.258-1.631.272-1.643 6.135-5.667 2.977-2.044 4.211-3.256 2.094-2.058M8.922 60.258c-.677 1.62.277 6.155 1.63 7.749.281.33.687 1.064.902 1.63.563 1.482 4.776 7.857 5.59 8.46.378.28 1.014 1.02 1.413 1.644.4.624.82 1.04.933.926.238-.238-.366-1.05-2.032-2.727-1.203-1.211-3.44-4.518-3.44-5.086 0-.178-.353-.644-.785-1.034-.432-.391-.994-1.364-1.25-2.162-.257-.8-.698-1.722-.98-2.052-1.338-1.557-2.227-5.525-1.584-7.063.335-.803.528-1.542.428-1.642-.1-.1-.47.51-.825 1.357m84.65-.584c-.029.367-.31 1.177-.624 1.8-.313.622-.793 1.942-1.065 2.932-.74 2.69-2.047 5.7-2.852 6.575-.392.427-.712.967-.71 1.2 0 .234.443-.115.983-.775.91-1.114 3.414-7.223 3.414-8.332 0-.27.282-.893.627-1.385.345-.493.55-1.298.454-1.79-.102-.532-.194-.623-.227-.225m4.62 5.285c-.15.392-.263 1.013-.249 1.38.017.442.156.34.412-.3.212-.53.324-1.151.248-1.38-.076-.226-.26-.092-.412.3m-94.66.903c-.007.25.341.88.774 1.4.432.519.792.739.8.488.007-.25-.34-.88-.774-1.4-.432-.52-.792-.74-.8-.488m49.183 4.044c-.002.385-.469 1.69-1.038 2.9-1.266 2.693-1.786 4-1.59 4 .082 0 .711-1.167 1.4-2.592 1.24-2.575 1.961-5.008 1.482-5.008-.138 0-.252.315-.254.7m43.476.77c-.33.62-1.092 2.165-1.69 3.43-.6 1.265-1.239 2.3-1.42 2.3-.18 0-.813.855-1.405 1.9-.593 1.045-1.59 2.44-2.219 3.1-5.486 5.767-7.614 7.682-10.238 9.214-.715.417-1.3.887-1.3 1.044 0 .254-1.388.959-7.92 4.026-.947.444-1.647.883-1.555.975.308.308 8.804-3.963 10.65-5.354a166.122 166.122 0 0 1 3.025-2.226c3.858-2.736 9.62-9.526 12.6-14.85.77-1.375 1.64-2.904 1.932-3.4.293-.493.445-.986.337-1.094-.108-.107-.467.313-.797.935M6.718 72.782c0 .596 4.498 7.216 5.984 8.807.59.632 1.671 1.839 2.401 2.683 1.521 1.756 7.613 6.934 8.16 6.934.2 0-.154-.405-.787-.9a67.733 67.733 0 0 1-1.754-1.418 108.46 108.46 0 0 0-2.218-1.8c-1.833-1.456-6.986-7.243-6.986-7.845 0-.22-.25-.541-.559-.717-.307-.176-.977-1.04-1.489-1.92-1.562-2.684-2.752-4.338-2.752-3.824m80.428 1.296a52.73 52.73 0 0 0-1.88 2.568c-1.385 2.04-3.069 3.783-5.768 5.972a7384.085 7384.085 0 0 0-4.054 3.288c-.88.715-1.437 1.3-1.235 1.3.34 0 4.222-3.121 7.96-6.4.878-.77 2.216-2.286 2.973-3.37.757-1.082 1.781-2.414 2.276-2.958.495-.544.9-1.143.9-1.33 0-.502-.103-.42-1.172.93m-55.56 2.128c-.006.44.143 1.16.332 1.6.438 1.019.438-.032 0-1.4-.257-.804-.323-.843-.332-.2m16.421 2.94c-.9 1.068-2.175 2.164-2.834 2.437-.659.273-1.29.737-1.403 1.032-.448 1.168 4.437-2.657 5.536-4.334 1.09-1.664.505-1.274-1.299.866m-15.654-.037c.736 2.198 4.122 4.972 5.925 4.854.352-.023-.08-.263-.96-.534-1.14-.351-2.106-1.112-3.365-2.653-.97-1.188-1.69-1.938-1.6-1.667m-10.435 3.665c1.21 1.128 2.58 2.406 3.042 2.84 1.335 1.254 1.63.918.358-.41-.632-.66-1.373-1.2-1.646-1.2-.273 0-.876-.482-1.34-1.072-.464-.59-1.242-1.328-1.729-1.641-.487-.312.105.355 1.315 1.483m19 .83c-1.089.278-1.107.308-.2.326.55.01 1.36-.136 1.8-.325.986-.424.066-.424-1.6 0m-14.2 2.99c0 .104.585.475 1.3.824l1.3.634-1-.815c-.963-.785-1.6-1.041-1.6-.643m43.6 2.076c-1.43.78-3.5 1.688-4.6 2.02-3.63 1.095-5.765 2.086-4.524 2.1.592.008 1.174-.144 1.294-.337.12-.193 1.741-.826 3.604-1.407 1.863-.581 3.493-1.228 3.623-1.438.13-.21 1.04-.736 2.02-1.17.98-.434 1.783-.89 1.783-1.012 0-.408-.582-.182-3.2 1.244m-39.487.3c.783.532 2.785 1.424 4.45 1.983 1.663.559 3.397 1.215 3.852 1.459.454.243 1.222.384 1.706.312.536-.08-.523-.575-2.72-1.273-1.98-.628-4.64-1.661-5.913-2.295-2.82-1.406-3.26-1.465-1.375-.185m-1.644 5.618c1.908.958 3.888 1.855 4.4 1.993.512.138-.919-.655-3.18-1.763-2.262-1.108-4.242-2.005-4.4-1.993-.159.012 1.272.806 3.18 1.763m13.731-1.402c1.208.324 5.277.545 4.967.269-.092-.081-1.517-.248-3.167-.37-1.83-.135-2.532-.096-1.8.1m12.4.018-2 .274 2 .016c1.1.008 2.54-.122 3.2-.29l1.2-.305-1.2.015c-.66.009-2.1.139-3.2.29m-20 4c.44.189 1.16.338 1.6.332.643-.01.604-.075-.2-.332-1.368-.438-2.419-.438-1.4 0m30.2 0c-.795.514.204.514 1.4 0l.8-.344-.8-.022c-.44-.012-1.07.153-1.4.366M38.904 98.28c2.383 1.29 13.253 2.116 17.414 1.324 1.285-.245.707-.282-2.017-.13-4.438.249-12.498-.502-14.063-1.31-1.579-.816-2.85-.705-1.334.116m23.682-.224c-.402.234-1.572.567-2.6.74l-1.868.316 1.6.025c.88.013 2.41-.316 3.4-.731 1.04-.436 1.462-.76 1-.765-.44-.006-1.129.18-1.532.415"/></g></svg>