<?xml version="1.0" standalone="no"?>
<!DOCTYPE svg PUBLIC "-//W3C//DTD SVG 20010904//EN"
 "http://www.w3.org/TR/2001/REC-SVG-20010904/DTD/svg10.dtd">
<svg version="1.0" xmlns="http://www.w3.org/2000/svg"
 width="225.000000pt" height="225.000000pt" viewBox="0 0 225.000000 225.000000"
 preserveAspectRatio="xMidYMid meet">

<g transform="translate(0.000000,225.000000) scale(0.100000,-0.100000)"
fill="#000000" stroke="none">
<path d="M938 1880 c-170 -27 -313 -102 -443 -234 -75 -75 -99 -107 -138 -186
-61 -122 -87 -226 -87 -345 0 -50 -5 -116 -11 -146 -12 -61 -1 -108 29 -116
10 -3 37 -46 64 -101 49 -101 108 -177 193 -251 309 -267 779 -247 1069 47
141 143 213 306 223 504 l6 108 42 25 c91 53 178 178 191 276 18 129 -74 229
-212 229 -49 0 -132 -24 -180 -52 l-35 -20 -57 55 c-99 93 -212 156 -349 191
-77 20 -229 28 -305 16z m330 -114 c99 -34 171 -77 243 -143 63 -58 69 -72 43
-94 -42 -35 -93 -154 -94 -218 -1 -22 -32 -50 -199 -174 -109 -81 -203 -147
-208 -147 -29 0 -38 35 -39 154 -1 153 -17 210 -80 273 -39 39 -44 48 -39 76
14 71 -30 117 -90 97 -32 -10 -125 -101 -125 -121 0 -4 -30 -28 -68 -52 -69
-45 -122 -101 -186 -199 -33 -49 -62 -76 -72 -66 -1 2 3 37 11 78 47 269 262
495 530 556 96 22 282 12 373 -20z m593 -255 c80 -80 -29 -242 -163 -241 -46
1 -68 12 -86 47 -36 67 24 174 118 212 50 20 99 13 131 -18z m-1041 -55 c0
-62 -73 -143 -105 -116 -36 30 -1 129 55 157 32 16 50 1 50 -41z m-180 -141
c0 -37 28 -75 56 -75 28 0 83 31 108 61 14 16 29 29 35 29 21 0 60 -76 71
-139 6 -35 8 -86 5 -113 -6 -42 -15 -56 -69 -111 -66 -65 -89 -113 -102 -207
-12 -91 35 -183 101 -196 101 -19 208 87 239 238 l13 62 211 148 211 148 43
-22 c33 -18 59 -22 116 -22 l74 1 -7 -61 c-10 -93 -42 -202 -82 -281 -52 -100
-191 -237 -293 -288 -377 -188 -828 -15 -975 375 -17 47 -17 48 5 95 15 31 25
76 29 124 6 72 9 81 52 135 41 53 132 134 152 134 4 0 7 -16 7 -35z m-255
-254 c10 -32 -40 -131 -66 -131 -18 0 -28 38 -19 70 20 71 70 107 85 61z m585
-171 c38 -38 19 -136 -35 -178 -70 -55 -134 6 -105 101 24 82 96 121 140 77z"/>
</g>
</svg>
