<svg width="250" height="250" viewBox="0 0 250 250" fill="none" xmlns="http://www.w3.org/2000/svg">
<g clip-path="url(#clip0_348_625)">
<g filter="url(#filter0_f_348_625)">
<path d="M68.8689 106.284L68.8307 125.378C70.8211 140.635 86.3504 136.734 91.2893 135.56C89.0966 132.82 82.9624 126.602 89.4942 117.963C99.6649 104.512 109.939 97.0889 129.599 93.2976C116.221 90.3966 98.6168 93.2282 68.2578 107.206L68.8689 106.284Z" fill="url(#paint0_linear_348_625)"/>
</g>
<g filter="url(#filter1_f_348_625)">
<path d="M68.5639 109.895C56.1347 117.59 49.6638 122.228 31.0566 133.408C29.0864 134.592 25.6006 136.399 27.3899 139.248C28.3398 140.76 34.7073 138.898 37.6577 137.001C50.7626 128.575 62.1767 121.509 68.7082 116.773L68.5639 109.895Z" fill="url(#paint1_linear_348_625)"/>
</g>
<path d="M69.5876 87.3871H67.6484V156.957H69.5876V87.3871Z" fill="#0A4B96"/>
<g filter="url(#filter2_f_348_625)">
<path d="M171.846 124.571C198.189 99.3386 218.355 87.0347 231.735 83.6157C239.312 81.6797 234.839 84.9289 233.569 86.0746C229.533 89.7152 215.688 98.8025 210.041 102.672C206 105.441 194.311 113.751 171.77 135.636L171.846 124.571Z" fill="url(#paint2_linear_348_625)"/>
</g>
<g filter="url(#filter3_f_348_625)">
<path d="M171.415 112.567C181.61 127.389 188.939 140.593 212.143 161.358C217.03 165.732 216.573 169.219 208.362 165.705C200.716 162.433 182.67 146.376 171.199 125.063L171.415 112.567Z" fill="url(#paint3_linear_348_625)"/>
</g>
<path d="M172.365 87.3871H170.426V156.957H172.365V87.3871Z" fill="#0A4B96"/>
<path d="M68.9414 124.473C83.2062 110.678 109.761 94.1226 122.591 94.1226C133.213 94.1226 143.913 103.359 152.324 114.695L171.069 143.303V127.048L158.77 108.728C149.765 99.0205 139.76 91.2882 122.591 91.2882C105.943 91.2882 89.5748 98.41 68.9414 110.144V124.473Z" fill="#0A4B96"/>
<path d="M68.9414 142.328L69.1838 152.812C78.8179 158.118 83.2059 158.522 88.8983 158.522C103.151 158.522 116.882 155.879 134.564 141.428C149.415 129.291 159.249 119.128 171.512 108.019L171.398 98.1913C156.867 110.398 133.842 130.493 119.318 140.936C111.62 146.472 100.962 155.7 88.8989 155.7C83.1509 155.7 79.2904 154.519 68.9414 142.328Z" fill="#0A4B96"/>
<g filter="url(#filter4_f_348_625)">
<path d="M62.8425 145.493C60.5902 147.933 53.3063 144.955 50.1488 142.342C43.8615 137.137 38.1427 129.948 21.0344 111.371C13.0502 102.702 14.8802 102.026 15.3087 101.265C20.7866 99.7106 26.2812 106.483 30.2711 111.045C46.2476 129.312 54.1545 136.789 56.5767 138.538C60.9389 141.688 64.2039 143.234 62.8425 145.493Z" fill="url(#paint4_linear_348_625)"/>
</g>
</g>
<defs>
<filter id="filter0_f_348_625" x="67.0818" y="91.0954" width="63.692" height="46.9601" filterUnits="userSpaceOnUse" color-interpolation-filters="sRGB">
<feFlood flood-opacity="0" result="BackgroundImageFix"/>
<feBlend mode="normal" in="SourceGraphic" in2="BackgroundImageFix" result="shape"/>
<feGaussianBlur stdDeviation="0.588027" result="effect1_foregroundBlur_348_625"/>
</filter>
<filter id="filter1_f_348_625" x="26.0984" y="109.099" width="43.4048" height="31.499" filterUnits="userSpaceOnUse" color-interpolation-filters="sRGB">
<feFlood flood-opacity="0" result="BackgroundImageFix"/>
<feBlend mode="normal" in="SourceGraphic" in2="BackgroundImageFix" result="shape"/>
<feGaussianBlur stdDeviation="0.398065" result="effect1_foregroundBlur_348_625"/>
</filter>
<filter id="filter2_f_348_625" x="170.472" y="81.7159" width="66.8641" height="55.2177" filterUnits="userSpaceOnUse" color-interpolation-filters="sRGB">
<feFlood flood-opacity="0" result="BackgroundImageFix"/>
<feBlend mode="normal" in="SourceGraphic" in2="BackgroundImageFix" result="shape"/>
<feGaussianBlur stdDeviation="0.648649" result="effect1_foregroundBlur_348_625"/>
</filter>
<filter id="filter3_f_348_625" x="170.105" y="111.472" width="46.2826" height="56.7676" filterUnits="userSpaceOnUse" color-interpolation-filters="sRGB">
<feFlood flood-opacity="0" result="BackgroundImageFix"/>
<feBlend mode="normal" in="SourceGraphic" in2="BackgroundImageFix" result="shape"/>
<feGaussianBlur stdDeviation="0.547222" result="effect1_foregroundBlur_348_625"/>
</filter>
<filter id="filter4_f_348_625" x="13.7846" y="99.9983" width="50.4113" height="47.4403" filterUnits="userSpaceOnUse" color-interpolation-filters="sRGB">
<feFlood flood-opacity="0" result="BackgroundImageFix"/>
<feBlend mode="normal" in="SourceGraphic" in2="BackgroundImageFix" result="shape"/>
<feGaussianBlur stdDeviation="0.519808" result="effect1_foregroundBlur_348_625"/>
</filter>
<linearGradient id="paint0_linear_348_625" x1="80.1308" y1="101.864" x2="96.7659" y2="138.828" gradientUnits="userSpaceOnUse">
<stop stop-color="white" stop-opacity="0"/>
<stop offset="0.0714355" stop-color="#B8D3EE"/>
<stop offset="1" stop-color="white" stop-opacity="0"/>
</linearGradient>
<linearGradient id="paint1_linear_348_625" x1="36.3598" y1="132.071" x2="27.328" y2="142.469" gradientUnits="userSpaceOnUse">
<stop stop-color="#B8D3EE"/>
<stop offset="1" stop-color="white" stop-opacity="0"/>
</linearGradient>
<linearGradient id="paint2_linear_348_625" x1="207.52" y1="99.7198" x2="236.198" y2="83.2683" gradientUnits="userSpaceOnUse">
<stop stop-color="#B8D3EE"/>
<stop offset="1" stop-color="white" stop-opacity="0"/>
</linearGradient>
<linearGradient id="paint3_linear_348_625" x1="189.997" y1="146.811" x2="217.796" y2="168.711" gradientUnits="userSpaceOnUse">
<stop stop-color="#B8D3EE"/>
<stop offset="1" stop-color="white" stop-opacity="0"/>
</linearGradient>
<linearGradient id="paint4_linear_348_625" x1="35.8645" y1="122.412" x2="12.5839" y2="99.3" gradientUnits="userSpaceOnUse">
<stop stop-color="#B8D3EE"/>
<stop offset="1" stop-color="white" stop-opacity="0"/>
</linearGradient>
<clipPath id="clip0_348_625">
<rect width="223" height="86" fill="white" transform="translate(14 82)"/>
</clipPath>
</defs>
</svg>
