<svg xmlns="http://www.w3.org/2000/svg" width="250" height="250" fill="none"><g clip-path="url(#a)"><path fill="#DB2323" d="M84.44 42.56a83.371 83.371 0 0 1 17.306 12.793c8.181-1.478 16.611-2.22 25.173-2.22 25.612 0 49.9 6.701 68.372 18.875 9.572 6.306 17.174 13.792 22.601 22.243 6.047 9.417 9.108 19.544 9.108 30.397 0 10.565-3.061 20.692-9.108 30.109-5.427 8.46-13.037 15.937-22.601 22.243-18.48 12.174-42.76 18.875-68.372 18.875-8.554 0-16.992-.742-25.173-2.22a83.68 83.68 0 0 1-17.306 12.793c-33.587 16.787-61.44.396-61.44.396s25.893-21.937 21.682-41.168c-11.59-11.852-17.86-26.138-17.86-41.308 0-14.881 6.279-29.168 17.86-41.02C48.892 64.11 23.008 42.18 23 42.172c.008-.008 27.862-16.391 61.44.388Z"/><path fill="#fff" d="M64.37 157.868c-11.523-9.078-18.447-20.691-18.447-33.352 0-29.052 36.432-52.607 81.368-52.607 44.937 0 81.369 23.555 81.369 52.607s-36.432 52.608-81.369 52.608c-11.076 0-21.632-1.428-31.261-4.02l-7.04 6.785a65.044 65.044 0 0 1-12.971 9.648c-6.188 3.037-12.302 4.696-18.357 5.199.339-.619.653-1.246.992-1.865 7.057-12.991 8.96-24.653 5.717-35.003Z"/><path fill="#DB2323" d="M88.361 136.261c-6.618 0-11.987-5.34-11.987-11.926s5.37-11.918 11.987-11.918c6.618 0 11.987 5.34 11.987 11.926.008 6.578-5.36 11.918-11.987 11.918Zm38.608 0c-6.618 0-11.987-5.34-11.987-11.926s5.369-11.918 11.987-11.918 11.987 5.34 11.987 11.926c0 6.578-5.369 11.918-11.987 11.918Zm38.599 0c-6.626 0-11.986-5.34-11.986-11.926s5.368-11.918 11.986-11.918 11.987 5.34 11.987 11.926c0 6.578-5.369 11.918-11.987 11.918Z"/></g><defs><clipPath id="a"><path fill="#fff" d="M23 35h204v179H23z"/></clipPath></defs></svg>