<svg xmlns="http://www.w3.org/2000/svg" viewBox="0 0 2466 2168.8"><path fill="#db2323" d="M742.7 91.6c76 42.2 147.8 95.6 209.2 155 98.9-17.9 200.8-26.9 304.3-26.9 309.6 0 603.2 81.2 826.5 228.7 115.7 76.4 207.6 167.1 273.2 269.5C2429 832 2466 954.7 2466 1086.2c0 128-37 250.7-110.1 364.8-65.6 102.5-157.6 193.1-273.2 269.5-223.4 147.5-516.9 228.7-826.5 228.7-103.4 0-205.4-9-304.3-26.9-61.4 59.3-133.2 112.8-209.2 155-406 203.4-742.7 4.8-742.7 4.8s313-265.8 262.1-498.8C122 1439.7 46.2 1266.6 46.2 1082.8c0-180.3 75.9-353.4 215.9-497C313 352.7.1 87 0 86.9c.1-.1 336.8-198.6 742.7 4.7z"/><path fill="#fff" d="M500.1 1488.7c-139.3-110-223-250.7-223-404.1 0-352 440.4-637.4 983.6-637.4s983.6 285.4 983.6 637.4-440.4 637.4-983.6 637.4c-133.9 0-261.5-17.3-377.9-48.7l-85.1 82.2c-46.2 44.6-100.4 85-156.8 116.9-74.8 36.8-148.7 56.9-221.9 63 4.1-7.5 7.9-15.1 12-22.6 85.3-157.4 108.3-298.7 69.1-424.1z"/><path fill="#db2323" d="M790.1 1226.9c-80 0-144.9-64.7-144.9-144.5S710.1 938 790.1 938 935 1002.7 935 1082.5c.1 79.7-64.8 144.4-144.9 144.4zm466.7 0c-80 0-144.9-64.7-144.9-144.5S1176.8 938 1256.8 938s144.9 64.7 144.9 144.5c0 79.7-64.9 144.4-144.9 144.4zm466.6 0c-80.1 0-144.9-64.7-144.9-144.5S1643.4 938 1723.4 938s144.9 64.7 144.9 144.5c0 79.7-64.9 144.4-144.9 144.4z"/></svg>