<svg xmlns="http://www.w3.org/2000/svg" width="250" height="250" fill="none"><g clip-path="url(#a)"><path fill="#DB2323" d="M82.054 37.982a88.255 88.255 0 0 1 18.324 13.508c8.663-1.56 17.588-2.344 26.654-2.344 27.118 0 52.835 7.076 72.394 19.93 10.135 6.658 18.184 14.562 23.93 23.485 6.403 9.943 9.644 20.636 9.644 32.096 0 11.154-3.241 21.847-9.644 31.79-5.746 8.933-13.804 16.828-23.93 23.486-19.568 12.854-45.276 19.93-72.394 19.93-9.057 0-17.991-.785-26.654-2.344a88.577 88.577 0 0 1-18.324 13.507c-35.562 17.725-65.054.418-65.054.418s27.416-23.163 22.958-43.468c-12.272-12.514-18.911-27.598-18.911-43.616 0-15.712 6.648-30.797 18.91-43.31C44.418 60.735 17.01 37.58 17 37.572c.009-.009 29.5-17.307 65.054.41Z"/><path fill="#fff" d="M60.806 159.733c-12.201-9.586-19.533-21.848-19.533-35.216 0-30.675 38.576-55.546 86.155-55.546 47.58 0 86.155 24.871 86.155 55.546s-38.575 55.547-86.155 55.547c-11.728 0-22.905-1.508-33.1-4.244l-7.455 7.163c-4.046 3.887-8.794 7.407-13.734 10.187-6.552 3.207-13.025 4.959-19.436 5.49.359-.653.692-1.316 1.05-1.969 7.472-13.717 9.487-26.03 6.053-36.958Z"/><path fill="#DB2323" d="M86.208 136.918c-7.008 0-12.692-5.638-12.692-12.592 0-6.954 5.684-12.584 12.692-12.584 7.007 0 12.692 5.638 12.692 12.592.008 6.946-5.676 12.584-12.692 12.584Zm40.878 0c-7.007 0-12.692-5.638-12.692-12.592 0-6.954 5.685-12.584 12.692-12.584 7.008 0 12.692 5.638 12.692 12.592 0 6.946-5.684 12.584-12.692 12.584Zm40.87 0c-7.016 0-12.691-5.638-12.691-12.592 0-6.954 5.684-12.584 12.691-12.584 7.008 0 12.692 5.638 12.692 12.592 0 6.946-5.684 12.584-12.692 12.584Z"/></g><defs><clipPath id="a"><path fill="#fff" d="M17 30h216v189H17z"/></clipPath></defs></svg>