<svg xmlns="http://www.w3.org/2000/svg" width="48" height="48"><path fill="#3F8624" fill-rule="evenodd" d="m40.542 26.158.222-1.645c1.738 1.059 2.31 1.694 2.487 1.968-.293.057-1.034.085-2.709-.323Zm-3.995 14.678a1.005 1.005 0 0 0-.009.134c0 .154-.38.744-2.066 1.411-.75.296-1.639.562-2.641.794-2.582.596-5.749.925-8.917.925-8.475 0-13.621-2.174-13.621-3.13 0-.045-.003-.089-.009-.134L5.441 12.293c.248.144.515.283.794.418.076.036.158.07.235.105.245.113.5.223.765.329l.329.128c.284.106.577.209.879.308.079.025.155.054.237.079.382.12.779.234 1.189.344.106.027.216.053.323.081.322.081.648.16.982.234.135.03.268.06.404.088.375.079.756.154 1.145.225.074.013.147.029.222.042.462.082.934.156 1.411.224.131.02.264.036.396.055.367.05.736.097 1.11.141l.441.049c.45.048.902.092 1.359.131l.151.014a62.92 62.92 0 0 0 1.525.103l.428.022c.386.018.774.034 1.162.047.15.005.299.01.448.013a60.8 60.8 0 0 0 1.538.021c.512 0 1.025-.008 1.539-.021.149-.003.298-.008.447-.013.389-.013.776-.029 1.163-.047l.427-.022a63.432 63.432 0 0 0 1.527-.103l.145-.014c.459-.038.914-.083 1.365-.132.147-.015.291-.032.437-.048.377-.044.749-.091 1.118-.142.13-.018.26-.034.389-.053a48.31 48.31 0 0 0 1.417-.225c.069-.013.135-.027.205-.039.395-.072.784-.149 1.165-.229.131-.027.261-.057.39-.085a34.45 34.45 0 0 0 1.003-.239c.101-.027.204-.051.304-.077.414-.11.816-.225 1.202-.347.073-.023.141-.048.212-.071.313-.102.615-.207.906-.318.106-.039.209-.08.313-.121.273-.109.537-.221.79-.339.069-.032.144-.063.213-.096.281-.135.55-.275.8-.42l-1.793 13.314c-4.571-1.435-10.667-4.212-13.434-5.512a2.002 2.002 0 0 0-1.999-1.995c-1.102 0-2 .898-2 2 0 1.103.898 2 2 2 .36 0 .694-.103.987-.271 3.16 1.491 9.452 4.349 14.175 5.788l-1.78 13.219ZM22.914 4c10.43 0 17.778 3.231 17.916 5.026l-.027.209c-.018.06-.057.122-.088.185-.028.052-.048.105-.086.159-.045.062-.108.126-.166.188-.051.055-.094.11-.154.165-.071.064-.161.129-.245.194-.072.055-.136.11-.218.167-.098.065-.214.131-.325.197-.091.055-.175.109-.277.164-.125.067-.269.135-.408.202-.107.052-.208.106-.325.157-.154.069-.325.136-.491.204-.125.049-.241.1-.374.15-.178.066-.376.132-.568.197-.14.048-.273.097-.42.145-.205.064-.428.127-.644.189-.156.045-.303.092-.465.135-.227.062-.473.12-.714.179-.171.042-.333.086-.511.126-.255.058-.527.112-.795.167-.18.037-.352.076-.539.111-.284.055-.587.104-.885.153-.186.033-.364.067-.555.096-.306.048-.629.089-.947.132-.201.027-.392.057-.597.082-.333.041-.683.075-1.028.11-.205.021-.402.045-.611.065-.346.031-.709.054-1.066.08-.225.016-.44.037-.668.051-.381.022-.777.036-1.168.051-.219.009-.429.023-.651.03a65.424 65.424 0 0 1-3.8 0c-.221-.007-.43-.021-.648-.029-.392-.016-.789-.03-1.17-.052-.225-.014-.438-.035-.66-.05-.36-.027-.725-.05-1.074-.081-.204-.019-.396-.043-.596-.064-.35-.036-.705-.069-1.043-.111-.198-.025-.385-.054-.579-.079-.324-.044-.653-.086-.965-.135-.183-.028-.354-.061-.533-.092-.307-.051-.616-.101-.908-.157-.176-.033-.337-.07-.507-.104-.278-.058-.561-.114-.827-.174-.166-.038-.317-.079-.479-.118-.252-.062-.507-.123-.746-.187-.152-.041-.289-.085-.433-.127a26.854 26.854 0 0 1-.675-.198c-.138-.044-.26-.09-.392-.134-.202-.069-.41-.138-.597-.208-.123-.046-.23-.094-.346-.141-.176-.07-.357-.14-.518-.212-.109-.049-.203-.099-.304-.148-.147-.07-.298-.141-.429-.212-.095-.052-.173-.102-.26-.154-.116-.07-.239-.139-.341-.208-.078-.053-.138-.106-.208-.158-.087-.068-.18-.135-.254-.202-.059-.053-.1-.106-.149-.16-.06-.064-.125-.129-.17-.192-.038-.054-.057-.106-.084-.158-.033-.063-.072-.125-.09-.186l-.027-.209C5.141 7.231 12.487 4 22.914 4Zm22.383 22.277c-.216-1.154-1.543-2.373-4.244-3.91L42.771 9.6v-.002l.052-.389a.976.976 0 0 0 .009-.132C42.832 4.906 32.335 2 22.914 2 13.495 2 3 4.906 3 9.077c0 .044.003.088.009.132l.052.389V9.6l4.233 31.447c.131 3.679 9.622 5.053 15.62 5.053 3.315 0 6.642-.346 9.367-.976a20.898 20.898 0 0 0 2.925-.883c2.167-.857 3.287-1.933 3.331-3.194l1.736-12.896c1.025.241 1.867.363 2.553.363.991 0 1.658-.252 2.083-.759.351-.417.488-.942.388-1.478Z"/></svg>