<svg xmlns="http://www.w3.org/2000/svg" width="256" height="180" preserveAspectRatio="xMidYMid"><path fill="#00A1E0" d="M106.553 19.651c8.248-8.594 19.731-13.924 32.43-13.924 16.883 0 31.612 9.414 39.455 23.389a54.52 54.52 0 0 1 22.3-4.74c30.449 0 55.134 24.9 55.134 55.616 0 30.718-24.685 55.618-55.134 55.618-3.716 0-7.348-.371-10.86-1.082-6.908 12.321-20.07 20.646-35.178 20.646a40.113 40.113 0 0 1-17.632-4.059c-7.002 16.47-23.316 28.02-42.33 28.02-19.8 0-36.674-12.53-43.152-30.1-2.83.601-5.763.915-8.772.915C19.24 149.95.128 130.64.128 106.82a43.198 43.198 0 0 1 21.345-37.36 49.373 49.373 0 0 1-4.088-19.728C17.385 22.336 39.626.128 67.06.128c16.106 0 30.42 7.658 39.494 19.523"/><path fill="#FFF" d="M37.17 92.956c-.16.42.058.507.11.58.48.35.968.6 1.46.881 2.609 1.384 5.071 1.789 7.647 1.789 5.246 0 8.503-2.79 8.503-7.283v-.087c0-4.153-3.676-5.662-7.126-6.75l-.448-.147c-2.601-.845-4.845-1.573-4.845-3.286v-.09c0-1.465 1.311-2.544 3.344-2.544 2.259 0 4.94.751 6.667 1.705 0 0 .506.328.692-.163.102-.263.976-2.616 1.068-2.871.098-.277-.077-.481-.255-.59-1.971-1.199-4.696-2.019-7.516-2.019l-.525.004c-4.801 0-8.153 2.9-8.153 7.057v.087c0 4.383 3.698 5.803 7.162 6.794l.558.172c2.524.776 4.7 1.442 4.7 3.22v.088c0 1.624-1.414 2.834-3.695 2.834-.885 0-3.708-.018-6.758-1.946-.368-.215-.583-.371-.867-.542-.15-.095-.524-.26-.688.236l-1.035 2.871ZM113.97 92.956c-.16.42.058.507.11.58.48.35.968.6 1.46.881 2.608 1.384 5.071 1.789 7.647 1.789 5.246 0 8.503-2.79 8.503-7.283v-.087c0-4.153-3.676-5.662-7.126-6.75l-.448-.147c-2.601-.845-4.846-1.573-4.846-3.286v-.09c0-1.465 1.312-2.544 3.345-2.544 2.259 0 4.94.751 6.667 1.705 0 0 .506.328.692-.163.102-.263.976-2.616 1.067-2.871.099-.277-.076-.481-.255-.59-1.97-1.199-4.696-2.019-7.515-2.019l-.525.004c-4.802 0-8.153 2.9-8.153 7.057v.087c0 4.383 3.697 5.803 7.162 6.794l.557.172c2.525.776 4.704 1.442 4.704 3.22v.088c0 1.624-1.418 2.834-3.698 2.834-.885 0-3.709-.018-6.758-1.946-.368-.215-.587-.364-.863-.542-.095-.062-.54-.234-.693.236l-1.034 2.871ZM166.399 84.157c0 2.54-.474 4.54-1.406 5.953-.922 1.4-2.317 2.08-4.263 2.08-1.949 0-3.337-.677-4.244-2.08-.918-1.41-1.384-3.413-1.384-5.953 0-2.535.466-4.532 1.384-5.93.907-1.385 2.295-2.059 4.244-2.059 1.946 0 3.34.674 4.266 2.058.93 1.4 1.403 3.396 1.403 5.931m4.379-4.706c-.43-1.454-1.1-2.736-1.993-3.804-.893-1.07-2.022-1.93-3.363-2.557-1.337-.623-2.918-.94-4.692-.94-1.778 0-3.359.317-4.696.94-1.34.626-2.47 1.486-3.366 2.557-.889 1.071-1.56 2.354-1.993 3.804-.426 1.446-.64 3.027-.64 4.706 0 1.68.214 3.265.64 4.707.434 1.45 1.1 2.733 1.997 3.804.892 1.07 2.025 1.927 3.362 2.535 1.34.609 2.918.918 4.696.918 1.774 0 3.352-.31 4.692-.918 1.337-.608 2.47-1.464 3.363-2.535.893-1.068 1.563-2.35 1.993-3.804.43-1.446.645-3.03.645-4.707 0-1.675-.215-3.26-.645-4.706M206.737 91.512c-.145-.426-.557-.266-.557-.266-.637.245-1.315.47-2.036.583a15.83 15.83 0 0 1-2.401.172c-2.12 0-3.804-.63-5.01-1.877-1.209-1.246-1.887-3.26-1.88-5.985.008-2.481.606-4.346 1.68-5.767 1.068-1.414 2.692-2.139 4.86-2.139 1.807 0 3.184.208 4.627.663 0 0 .346.15.51-.302.382-1.064.667-1.825 1.075-2.995.116-.331-.168-.473-.27-.513-.568-.223-1.909-.583-2.922-.736-.947-.146-2.054-.222-3.286-.222-1.84 0-3.479.313-4.882.94-1.399.622-2.586 1.482-3.526 2.553s-1.654 2.354-2.131 3.804c-.474 1.446-.714 3.034-.714 4.714 0 3.632.98 6.568 2.914 8.718 1.938 2.156 4.85 3.253 8.645 3.253 2.244 0 4.547-.455 6.2-1.108 0 0 .318-.153.18-.52l-1.076-2.97ZM214.4 81.725c.207-1.41.597-2.583 1.198-3.497.907-1.388 2.291-2.15 4.237-2.15 1.945 0 3.231.765 4.153 2.15.612.914.878 2.138.983 3.497H214.4Zm14.743-3.1c-.372-1.403-1.294-2.82-1.898-3.469-.955-1.027-1.887-1.745-2.813-2.145a10.84 10.84 0 0 0-4.248-.86c-1.85 0-3.53.31-4.892.95-1.366.642-2.514 1.516-3.414 2.606-.9 1.085-1.577 2.378-2.007 3.847-.434 1.46-.652 3.053-.652 4.732 0 1.709.226 3.3.674 4.732.451 1.443 1.173 2.714 2.15 3.767.972 1.06 2.225 1.891 3.726 2.47 1.49.576 3.3.875 5.38.871 4.281-.015 6.537-.97 7.465-1.483.164-.09.321-.251.124-.71l-.969-2.714c-.145-.405-.557-.255-.557-.255-1.06.393-2.568 1.1-6.084 1.093-2.299-.004-4.004-.682-5.071-1.742-1.097-1.085-1.632-2.681-1.727-4.932l14.824.014s.39-.007.43-.386c.014-.16.51-3.046-.441-6.386ZM95.683 81.725c.211-1.41.597-2.583 1.199-3.497.907-1.388 2.291-2.15 4.236-2.15 1.946 0 3.232.765 4.157 2.15.609.914.875 2.138.98 3.497H95.683Zm14.74-3.1c-.372-1.403-1.29-2.82-1.895-3.469-.954-1.027-1.887-1.745-2.812-2.145a10.84 10.84 0 0 0-4.248-.86c-1.847 0-3.53.31-4.892.95-1.367.642-2.514 1.516-3.414 2.606-.9 1.085-1.577 2.378-2.007 3.847-.43 1.46-.652 3.053-.652 4.732 0 1.709.225 3.3.674 4.732.451 1.443 1.173 2.714 2.149 3.767.973 1.06 2.226 1.891 3.727 2.47 1.49.576 3.3.875 5.38.871 4.281-.015 6.536-.97 7.465-1.483.164-.09.32-.251.124-.71l-.965-2.714c-.15-.405-.561-.255-.561-.255-1.06.393-2.565 1.1-6.088 1.093-2.295-.004-4-.682-5.067-1.742-1.097-1.085-1.633-2.681-1.727-4.932l14.823.014s.39-.007.43-.386c.015-.16.51-3.046-.444-6.386ZM63.642 91.431c-.58-.463-.66-.58-.856-.878-.292-.455-.441-1.104-.441-1.927 0-1.304.43-2.24 1.322-2.87-.01.003 1.275-1.112 4.3-1.072 2.123.03 4.021.343 4.021.343v6.74h.004s-1.884.404-4.004.531c-3.017.182-4.357-.87-4.346-.867m5.898-10.415c-.601-.044-1.38-.07-2.313-.07-1.272 0-2.5.16-3.65.47-1.16.31-2.201.795-3.097 1.436a7.148 7.148 0 0 0-2.15 2.444c-.524.977-.79 2.128-.79 3.417 0 1.312.225 2.452.677 3.385a6.1 6.1 0 0 0 1.935 2.317c.823.6 1.84 1.042 3.02 1.308 1.162.266 2.48.4 3.923.4 1.52 0 3.035-.123 4.503-.375a94.111 94.111 0 0 0 3.734-.721c.492-.117 1.039-.266 1.039-.266.368-.091.338-.485.338-.485l-.007-13.555c0-2.973-.794-5.177-2.357-6.543-1.555-1.363-3.847-2.052-6.809-2.052-1.11 0-2.9.154-3.97.368 0 0-3.24.627-4.573 1.669 0 0-.291.182-.131.59l1.05 2.82c.13.364.484.24.484.24s.113-.043.244-.12c2.852-1.552 6.459-1.504 6.459-1.504 1.603 0 2.834.32 3.665.958.809.619 1.22 1.555 1.22 3.53v.626c-1.275-.182-2.444-.287-2.444-.287M189.1 73.378a.4.4 0 0 0-.223-.532c-.251-.099-1.512-.365-2.485-.427-1.861-.113-2.896.2-3.821.616-.918.415-1.938 1.086-2.507 1.847V73.08c0-.252-.178-.452-.426-.452h-3.8c-.247 0-.426.2-.426.452v22.11c0 .247.204.451.452.451h3.894a.45.45 0 0 0 .448-.451V84.143c0-1.483.164-2.962.492-3.891.32-.918.758-1.654 1.297-2.182a4.551 4.551 0 0 1 1.833-1.1c.688-.212 1.45-.28 1.989-.28.776 0 1.628.2 1.628.2.284.032.445-.143.54-.401.254-.678.976-2.707 1.114-3.111"/><path fill="#FFF" d="M152.544 63.13a12.74 12.74 0 0 0-1.465-.35 11.604 11.604 0 0 0-2.014-.152c-2.682 0-4.795.757-6.277 2.251-1.476 1.486-2.478 3.749-2.98 6.725l-.183 1.002h-3.366s-.408-.015-.495.43l-.55 3.085c-.04.292.087.478.48.478h3.276l-3.323 18.55c-.258 1.494-.557 2.722-.889 3.654-.324.918-.64 1.607-1.034 2.11-.38.48-.736.838-1.356 1.045-.51.171-1.1.252-1.745.252-.357 0-.834-.059-1.187-.132a3.511 3.511 0 0 1-.802-.258s-.382-.146-.535.237c-.12.317-.995 2.717-1.1 3.012-.102.295.043.525.229.594.437.153.761.255 1.355.397.824.193 1.52.204 2.172.204 1.362 0 2.608-.193 3.639-.564 1.035-.376 1.938-1.028 2.74-1.91.863-.954 1.406-1.952 1.923-3.318.514-1.348.955-3.024 1.304-4.977l3.341-18.896h4.882s.411.014.495-.434l.554-3.082c.036-.295-.087-.477-.485-.477h-4.74c.026-.106.241-1.774.784-3.344.233-.667.67-1.21 1.038-1.582a3.11 3.11 0 0 1 1.243-.772c.47-.153 1.005-.226 1.592-.226.444 0 .885.051 1.216.12.46.099.638.15.758.186.485.146.55.004.645-.23l1.133-3.11c.117-.336-.171-.478-.273-.518M86.322 95.19c0 .247-.179.448-.426.448h-3.931c-.248 0-.423-.2-.423-.448V63.553c0-.247.175-.448.423-.448h3.93c.248 0 .427.2.427.448V95.19Z"/></svg>