<svg xmlns="http://www.w3.org/2000/svg" width="1000" height="222.52" style="fill:none"><g clip-path="url(#a)" transform="scale(6.95376)"><path d="m77.802 19.043-2.467-1.465c-2.776-1.542-4.241-2.545-4.241-4.395 0-1.388 1.234-2.468 2.853-2.468 3.238 0 4.78 2.545 5.166 5.706h.54l1.234-6.862c-1.08-.463-2.776-.772-4.473-.772-5.937 0-8.867 3.162-8.867 6.786 0 3.084 2.544 4.704 4.55 5.783l3.392 1.928c2.236 1.156 3.316 2.313 3.316 4.01 0 1.31-1.003 2.853-3.316 2.853-3.161 0-5.706-2.853-6.708-6.94h-.463l-1.31 1.773c-1.697 2.005-3.625 3.624-6.71 3.624-4.78 0-7.016-3.547-7.016-8.327h11.72v-3.162c0-4.395-2.159-8.25-7.402-8.25-6.169 0-9.176 5.551-9.176 11.797 0 2.776.694 5.09 1.85 6.94-.77.848-1.85 1.773-3.315 1.773-1.542 0-2.313-1.465-2.313-3.7V-.004l-.463.231c-1.773.849-3.393 1.465-5.166 1.928.077.154.154.309.154.463.771 2.005.848 4.395.848 6.94v15.19c0 1.157.154 2.159.386 3.007-.617.848-1.465 1.774-2.622 1.774-1.465 0-2.622-1.157-2.622-3.47v-8.868c0-3.855-.77-8.405-7.17-8.405-5.63 0-7.943 3.547-7.943 7.017l4.241 1.62s-.54-7.094 3.316-7.094c3.084 0 3.007 3.47 3.007 6.477v1.08c0 .693-1.62 1.618-4.704 2.775-2.698 1.08-6.785 2.468-6.785 6.4 0 2.853 2.082 4.935 5.166 4.935 2.468 0 4.858-1.388 6.4-3.547.077 1.08 1.774 3.547 4.395 3.547 2.699 0 4.55-1.62 5.706-3.161 1.003 2.159 2.776 3.161 4.858 3.161 2.236 0 4.01-1.928 5.166-3.624 1.774 2.236 4.318 3.624 7.249 3.624 3.624 0 6.168-2.39 7.633-4.704.926 1.234 3.856 4.704 8.482 4.704 3.856 0 7.557-2.545 7.557-7.017.077-3.316-2.16-4.935-3.933-5.937zM30.69 27.37c-1.002.77-2.236 1.465-3.547 1.465-2.236 0-3.316-1.62-3.316-3.547 0-2.545 1.311-3.702 5.32-3.702 1.389 0 1.543.155 1.543 1.003zm22.593-8.945c0-5.243 1.234-8.02 3.701-8.02 2.005 0 3.393 2.005 3.393 6.555 0 1.773-.231 2.005-1.62 2.005H53.36zM89.754 24.752V0c-1.928.925-3.701 1.62-5.629 2.159.925 2.005 1.002 4.627 1.002 7.325v15.19c0 2.391-.154 4.242-1.08 6.71h7.326c.077 0-1.62-2.16-1.62-6.632zM101.937 8.793c-5.475 0-9.176 4.627-9.176 11.72 0 6.632 3.393 11.49 8.791 11.49 5.474 0 9.176-4.55 9.176-11.566 0-6.631-3.393-11.644-8.791-11.644zm.154 21.437c-3.007 0-4.318-5.398-4.318-11.181 0-5.475 1.157-8.636 3.547-8.636 3.085 0 4.318 5.629 4.318 11.412 0 5.629-1.233 8.405-3.547 8.405zM130.544 10.41h6.323V9.178h-6.323V3.008c-1.542 1.003-3.161 1.774-4.858 2.39.155 1.62.155 2.622.232 3.78h-7.634c-.617-1.852-1.002-3.394-1.002-4.627 0-1.543.539-2.39 1.773-2.39s2.468 1.541 3.547 5.397h.54l1.311-6.94s-1.08-.694-2.622-.694c-5.629 0-7.865 4.318-7.942 9.176h-2.545v1.234h2.545v13.802c0 2.39-.077 4.627-1.08 7.248h6.709c-1.003-2.544-1.08-4.858-1.08-7.248V10.411h7.48V25.91c0 4.01 1.619 6.091 4.318 6.091 3.161 0 5.397-2.622 5.397-5.089-1.079.771-1.927 1.31-2.853 1.31-2.236 0-2.236-2.467-2.236-3.469v-14.11ZM4.935 8.02c0-2.006 1.928-3.625 4.395-3.625 3.162 0 5.09 1.465 6.169 9.099h.694l1.002-10.41C10.025.617 1.234 3.238 1.08 10.718c0 8.096 12.877 8.096 12.877 15.499 0 2.159-1.928 3.624-4.087 3.624-5.706 0-7.017-4.78-7.325-9.793H1.85L0 29.455s4.241 2.468 8.79 2.468c5.475-.077 9.1-4.087 9.253-8.328 0-8.096-13.108-9.793-13.108-15.576z" style="fill:#06492e"/><path d="M138.024 29.072a2.847 2.847 0 0 1 2.853-2.853c1.697 0 2.931 1.31 2.931 2.853a2.847 2.847 0 0 1-2.853 2.853c-1.774.077-2.931-1.31-2.931-2.853z" style="fill:#b4d625"/></g><defs><clipPath id="a"><path d="M0 0h143.807v32H0z" style="fill:#fff"/></clipPath></defs></svg>