<svg xmlns="http://www.w3.org/2000/svg" width="250" height="250" fill="none"><mask id="a" width="239" height="170" x="5" y="40" maskUnits="userSpaceOnUse" style="mask-type:alpha"><path fill="#fff" d="M5 40.479h238.547V210H5"/></mask><g mask="url(#a)"><path fill="#129CD8" fill-rule="evenodd" d="M104.267 58.967c7.692-8.137 18.402-13.185 30.249-13.185 15.749 0 29.485 8.914 36.802 22.148a50.236 50.236 0 0 1 20.8-4.489c28.402 0 51.429 23.582 51.429 52.67 0 29.092-23.027 52.674-51.429 52.674-3.467 0-6.854-.357-10.132-1.026-6.44 11.664-18.718 19.549-32.812 19.549a36.93 36.93 0 0 1-16.446-3.844C126.2 199.061 110.981 210 93.248 210c-18.47 0-34.211-11.864-40.252-28.504a39.07 39.07 0 0 1-8.183.864C22.824 182.36 5 164.075 5 141.518c0-15.12 8.004-28.319 19.906-35.381a47.385 47.385 0 0 1-3.81-18.684c0-25.941 20.744-46.974 46.33-46.974 15.024 0 28.374 7.25 36.841 18.488Z" clip-rule="evenodd"/></g><path fill="#FEFEFE" fill-rule="evenodd" d="M39.55 128.388c-.15.398.053.48.103.548.448.331.9.569 1.36.837 2.433 1.309 4.733 1.69 7.135 1.69 4.893 0 7.933-2.641 7.933-6.895v-.081c0-3.934-3.432-5.365-6.647-6.397l-.42-.135c-2.427-.801-4.52-1.492-4.52-3.115v-.082c0-1.388 1.224-2.41 3.12-2.41 2.108 0 4.607.712 6.217 1.617 0 0 .476.309.648-.157.095-.253.908-2.478.996-2.72.09-.259-.07-.455-.239-.558-1.84-1.136-4.382-1.912-7.011-1.912l-.488.004c-4.48 0-7.608 2.748-7.608 6.684v.082c0 4.147 3.45 5.496 6.683 6.433l.519.163c2.356.733 4.385 1.367 4.385 3.047v.086c0 1.537-1.322 2.683-3.446 2.683-.827 0-3.46-.014-6.304-1.84-.343-.207-.54-.352-.806-.516-.14-.089-.49-.242-.645.224l-.964 2.72Zm71.634 0c-.151.398.052.48.101.548.449.331.901.569 1.361.837 2.433 1.309 4.733 1.69 7.134 1.69 4.894 0 7.934-2.641 7.934-6.895v-.081c0-3.934-3.432-5.365-6.647-6.397l-.421-.135c-2.426-.801-4.519-1.492-4.519-3.115v-.082c0-1.388 1.224-2.41 3.12-2.41 2.107 0 4.607.712 6.216 1.617 0 0 .477.309.649-.157.094-.253.908-2.478.996-2.72.091-.259-.07-.455-.239-.558-1.841-1.136-4.378-1.912-7.011-1.912l-.488.004c-4.481 0-7.608 2.748-7.608 6.684v.082c0 4.147 3.454 5.496 6.683 6.433l.519.163c2.356.733 4.389 1.367 4.389 3.047v.086c0 1.537-1.322 2.683-3.45 2.683-.828 0-3.457-.014-6.304-1.84-.343-.207-.547-.345-.806-.516-.088-.057-.501-.221-.642.224l-.967 2.72Zm48.905-8.334c0 2.403-.442 4.3-1.311 5.639-.862 1.324-2.163 1.972-3.976 1.972-1.816 0-3.109-.648-3.958-1.972-.859-1.339-1.293-3.236-1.293-5.639 0-2.399.434-4.293 1.289-5.616.853-1.31 2.146-1.948 3.962-1.948 1.813 0 3.114.638 3.976 1.948.869 1.323 1.311 3.217 1.311 5.616Zm4.085-4.456c-.4-1.377-1.027-2.591-1.858-3.602a8.96 8.96 0 0 0-3.138-2.421c-1.248-.591-2.721-.893-4.376-.893-1.658 0-3.134.302-4.382.893-1.248.591-2.304 1.406-3.134 2.424-.835 1.011-1.459 2.225-1.858 3.599-.401 1.37-.604 2.869-.604 4.456 0 1.588.203 3.09.604 4.457.399 1.374 1.023 2.588 1.858 3.602a8.766 8.766 0 0 0 3.138 2.403c1.248.576 2.72.869 4.378.869 1.655 0 3.124-.293 4.376-.869a8.818 8.818 0 0 0 3.138-2.403c.831-1.01 1.458-2.224 1.858-3.602.399-1.371.603-2.869.603-4.457 0-1.587-.204-3.086-.603-4.456Zm33.542 11.422c-.133-.402-.523-.249-.523-.249-.592.232-1.223.441-1.9.548-.68.11-1.43.164-2.236.164-1.974 0-3.548-.598-4.674-1.776-1.125-1.182-1.76-3.09-1.753-5.671.007-2.345.564-4.111 1.568-5.46.995-1.338 2.513-2.025 4.533-2.025 1.682 0 2.969.199 4.315.626 0 0 .323.142.474-.284.361-1.012.623-1.727 1.006-2.834.109-.317-.158-.449-.256-.488-.529-.21-1.777-.555-2.724-.701-.88-.135-1.914-.206-3.065-.206-1.714 0-3.242.298-4.55.889-1.308.588-2.412 1.403-3.292 2.417-.877 1.015-1.543 2.229-1.985 3.603-.445 1.37-.666 2.872-.666 4.467 0 3.438.912 6.218 2.717 8.251 1.81 2.046 4.523 3.082 8.064 3.082 2.093 0 4.239-.431 5.785-1.047 0 0 .295-.145.165-.494l-1.003-2.812Zm7.146-9.269c.197-1.335.558-2.445 1.119-3.311.845-1.313 2.135-2.039 3.951-2.039 1.816 0 3.012.726 3.874 2.039.572.869.821 2.023.918 3.315l-9.862-.004Zm13.751-2.933c-.347-1.331-1.206-2.673-1.767-3.285-.891-.976-1.764-1.656-2.626-2.033a9.948 9.948 0 0 0-3.962-.815c-1.725 0-3.292.295-4.565.9-1.272.605-2.342 1.435-3.183 2.467-.838 1.029-1.469 2.253-1.872 3.645-.403 1.381-.607 2.887-.607 4.478 0 1.619.21 3.129.628 4.481.421 1.371 1.094 2.57 2.002 3.571.911 1.003 2.079 1.786 3.478 2.338 1.391.545 3.081.829 5.02.822 3.993-.011 6.097-.914 6.963-1.402.154-.089.298-.239.119-.673l-.908-2.57c-.137-.381-.519-.242-.519-.242-.992.374-2.394 1.043-5.676 1.036-2.146-.003-3.734-.644-4.73-1.652-1.02-1.025-1.525-2.534-1.609-4.666l13.824.01s.365-.003.404-.366c.014-.149.472-2.883-.414-6.044Zm-124.485 2.933c.196-1.335.558-2.445 1.115-3.311.852-1.313 2.139-2.039 3.955-2.039 1.816 0 3.015.726 3.877 2.039.568.869.817 2.023.915 3.315l-9.862-.004Zm13.75-2.933c-.347-1.331-1.206-2.673-1.767-3.285-.89-.976-1.76-1.656-2.625-2.033a9.958 9.958 0 0 0-3.959-.815c-1.728 0-3.296.295-4.568.9-1.273.605-2.342 1.435-3.184 2.467-.837 1.029-1.469 2.253-1.872 3.645-.403 1.381-.606 2.887-.606 4.478 0 1.619.21 3.129.627 4.481.421 1.371 1.094 2.57 2.002 3.571.912 1.003 2.08 1.786 3.478 2.338 1.392.545 3.082.829 5.021.822 3.993-.011 6.096-.914 6.963-1.402.154-.089.298-.239.119-.673l-.909-2.57c-.136-.381-.518-.242-.518-.242-.992.374-2.395 1.043-5.676 1.036-2.142-.003-3.734-.644-4.73-1.652-1.02-1.025-1.525-2.534-1.609-4.666l13.824.01s.365-.003.403-.366c.014-.149.473-2.883-.414-6.044ZM64.24 126.943c-.543-.438-.616-.548-.796-.833-.276-.43-.417-1.043-.417-1.826 0-1.231.404-2.121 1.234-2.716-.007 0 1.193-1.054 4.011-1.014a27.58 27.58 0 0 1 3.755.324v6.382s-1.757.381-3.734.502c-2.812.174-4.063-.822-4.053-.819Zm5.501-9.863a29.437 29.437 0 0 0-2.156-.064c-1.185 0-2.331.149-3.408.444a8.892 8.892 0 0 0-2.885 1.357 6.745 6.745 0 0 0-2.005 2.317c-.491.926-.74 2.015-.74 3.232 0 1.246.21 2.324.634 3.207a5.75 5.75 0 0 0 1.803 2.196c.767.57 1.717.986 2.815 1.239 1.087.253 2.317.381 3.664.381 1.42 0 2.829-.121 4.2-.356a78.743 78.743 0 0 0 3.481-.687c.459-.107.968-.249.968-.249.343-.089.315-.46.315-.46l-.007-12.835c0-2.819-.74-4.905-2.195-6.2-1.45-1.289-3.59-1.94-6.352-1.94-1.038 0-2.703.142-3.706.345 0 0-3.019.594-4.26 1.584 0 0-.274.17-.126.559l.978 2.669c.123.346.456.228.456.228s.105-.042.228-.117c2.657-1.467 6.023-1.424 6.023-1.424 1.493 0 2.644.31 3.418.908.754.591 1.136 1.473 1.136 3.345v.595c-1.185-.175-2.279-.274-2.279-.274Zm111.52-7.234c.106-.316-.115-.47-.207-.505-.235-.089-1.413-.342-2.317-.402-1.739-.107-2.703.188-3.566.584-.858.391-1.808 1.028-2.335 1.751l-.003-1.712c0-.235-.165-.424-.396-.424h-3.545c-.231 0-.396.189-.396.424v20.94a.42.42 0 0 0 .421.424h3.632a.419.419 0 0 0 .417-.424v-10.461c0-1.406.154-2.805.46-3.684.298-.872.704-1.567 1.209-2.065a4.184 4.184 0 0 1 1.711-1.042 6.574 6.574 0 0 1 1.851-.268c.726 0 1.518.193 1.518.193.27.028.417-.139.508-.382.235-.64.912-2.565 1.038-2.947Z" clip-rule="evenodd"/><path fill="#FEFEFE" fill-rule="evenodd" d="M147.164 100.142a10.783 10.783 0 0 0-1.367-.328 10.456 10.456 0 0 0-1.88-.149c-2.5 0-4.47.719-5.854 2.136-1.375 1.406-2.311 3.548-2.781 6.364l-.168.951h-3.138s-.385-.015-.463.409l-.515 2.919c-.038.277.081.452.449.452h3.057l-3.103 17.569c-.241 1.413-.519 2.578-.827 3.46-.302.872-.6 1.524-.964 1.997-.354.456-.688.797-1.266.993-.477.16-1.027.235-1.627.235-.333 0-.778-.057-1.108-.125-.329-.064-.501-.138-.746-.242 0 0-.358-.138-.502.225-.112.299-.925 2.573-1.024 2.855-.097.277.039.494.214.558.407.146.709.242 1.262.374.772.185 1.421.196 2.027.196 1.272 0 2.433-.182 3.394-.534.967-.356 1.809-.976 2.556-1.808.803-.905 1.311-1.851 1.794-3.143.481-1.278.888-2.866 1.217-4.717l3.113-17.893h4.554s.386.014.463-.41l.516-2.919c.035-.277-.081-.451-.449-.451h-4.421c.021-.1.221-1.68.729-3.165.217-.637.625-1.146.971-1.498a2.89 2.89 0 0 1 1.157-.734 4.82 4.82 0 0 1 1.483-.213c.418 0 .824.049 1.136.114.428.092.596.142.709.174.448.142.508.007.599-.214l1.055-2.947c.109-.317-.154-.452-.252-.491Zm-61.767 30.36c0 .235-.165.427-.397.427h-3.667c-.23 0-.395-.192-.395-.427v-29.96c0-.235.164-.424.395-.424h3.668c.231 0 .396.189.396.424v29.96Z" clip-rule="evenodd"/></svg>