<svg width="250" height="250" viewBox="0 0 250 250" fill="none" xmlns="http://www.w3.org/2000/svg">
<mask id="mask0_2_7248" style="mask-type:alpha" maskUnits="userSpaceOnUse" x="33" y="60" width="183" height="130">
<path d="M33 60.3663H215.886V190H33" fill="white"/>
</mask>
<g mask="url(#mask0_2_7248)">
<path fill-rule="evenodd" clip-rule="evenodd" d="M109.105 74.504C115.002 68.2819 123.213 64.4217 132.296 64.4217C144.37 64.4217 154.901 71.2378 160.51 81.3579C165.386 79.1533 170.781 77.9256 176.457 77.9256C198.232 77.9256 215.886 95.9586 215.886 118.202C215.886 140.449 198.232 158.482 176.457 158.482C173.799 158.482 171.203 158.21 168.689 157.698C163.752 166.618 154.339 172.647 143.534 172.647C139.013 172.647 134.736 171.591 130.925 169.708C125.92 181.635 114.252 190 100.657 190C86.4967 190 74.4281 180.928 69.7969 168.202C67.7728 168.635 65.6738 168.864 63.5234 168.864C46.6653 168.864 33 154.881 33 137.632C33 126.069 39.1364 115.976 48.2615 110.575C46.3831 106.196 45.3401 101.367 45.3401 96.2879C45.3401 76.4503 61.2443 60.3664 80.8602 60.3664C92.378 60.3664 102.613 65.9107 109.105 74.504Z" fill="#129CD8"/>
</g>
<path fill-rule="evenodd" clip-rule="evenodd" d="M59.4873 127.59C59.3717 127.895 59.5275 127.958 59.5652 128.01C59.9093 128.263 60.2559 128.445 60.6082 128.65C62.4735 129.651 64.2367 129.942 66.0782 129.942C69.8301 129.942 72.1605 127.923 72.1605 124.67V124.607C72.1605 121.599 69.529 120.505 67.0645 119.716L66.7418 119.612C64.8818 119 63.2774 118.472 63.2774 117.231V117.168C63.2774 116.106 64.2153 115.325 65.6693 115.325C67.2848 115.325 69.2013 115.87 70.435 116.561C70.435 116.561 70.8005 116.798 70.9321 116.442C71.0047 116.248 71.6285 114.547 71.6958 114.362C71.7655 114.163 71.6421 114.014 71.5129 113.935C70.1016 113.066 68.153 112.473 66.1372 112.473L65.7636 112.476C62.3283 112.476 59.9307 114.577 59.9307 117.587V117.65C59.9307 120.821 62.5756 121.853 65.0541 122.569L65.4519 122.694C67.2581 123.254 68.8142 123.739 68.8142 125.024V125.089C68.8142 126.265 67.8007 127.141 66.1721 127.141C65.5376 127.141 63.5189 127.131 61.3391 125.734C61.0758 125.576 60.9252 125.465 60.721 125.339C60.6135 125.271 60.3449 125.154 60.2264 125.511L59.4873 127.59Z" fill="#FEFEFE"/>
<path fill-rule="evenodd" clip-rule="evenodd" d="M114.409 127.59C114.294 127.895 114.449 127.958 114.487 128.01C114.831 128.263 115.178 128.445 115.53 128.65C117.395 129.651 119.159 129.942 121 129.942C124.752 129.942 127.082 127.923 127.082 124.67V124.607C127.082 121.599 124.451 120.505 121.986 119.716L121.664 119.612C119.804 119 118.199 118.472 118.199 117.231V117.168C118.199 116.106 119.137 115.325 120.591 115.325C122.207 115.325 124.123 115.87 125.357 116.561C125.357 116.561 125.722 116.798 125.854 116.442C125.927 116.248 126.55 114.547 126.618 114.362C126.687 114.163 126.564 114.014 126.435 113.935C125.023 113.066 123.078 112.473 121.059 112.473L120.685 112.476C117.25 112.476 114.853 114.577 114.853 117.587V117.65C114.853 120.821 117.5 121.853 119.976 122.569L120.374 122.694C122.18 123.254 123.739 123.739 123.739 125.024V125.089C123.739 126.265 122.725 127.141 121.094 127.141C120.459 127.141 118.444 127.131 116.261 125.734C115.998 125.576 115.842 125.47 115.643 125.339C115.576 125.296 115.259 125.171 115.151 125.511L114.409 127.59Z" fill="#FEFEFE"/>
<path fill-rule="evenodd" clip-rule="evenodd" d="M151.902 121.218C151.902 123.055 151.564 124.506 150.897 125.53C150.236 126.542 149.239 127.038 147.849 127.038C146.457 127.038 145.465 126.542 144.814 125.53C144.156 124.506 143.823 123.055 143.823 121.218C143.823 119.383 144.156 117.935 144.812 116.923C145.465 115.921 146.457 115.434 147.849 115.434C149.239 115.434 150.236 115.921 150.897 116.923C151.564 117.935 151.902 119.383 151.902 121.218ZM155.034 117.81C154.727 116.757 154.246 115.829 153.609 115.056C152.972 114.28 152.163 113.656 151.204 113.205C150.247 112.753 149.118 112.521 147.849 112.521C146.578 112.521 145.446 112.753 144.489 113.205C143.532 113.656 142.723 114.28 142.086 115.058C141.446 115.832 140.968 116.76 140.662 117.81C140.355 118.858 140.199 120.004 140.199 121.218C140.199 122.432 140.355 123.581 140.662 124.626C140.968 125.677 141.446 126.605 142.086 127.381C142.723 128.156 143.535 128.777 144.492 129.218C145.449 129.659 146.578 129.882 147.849 129.882C149.118 129.882 150.244 129.659 151.204 129.218C152.16 128.777 152.97 128.156 153.609 127.381C154.246 126.608 154.727 125.68 155.034 124.626C155.34 123.578 155.496 122.432 155.496 121.218C155.496 120.004 155.34 118.858 155.034 117.81Z" fill="#FEFEFE"/>
<path fill-rule="evenodd" clip-rule="evenodd" d="M180.749 126.545C180.647 126.237 180.349 126.354 180.349 126.354C179.895 126.531 179.411 126.692 178.892 126.773C178.371 126.858 177.795 126.898 177.177 126.898C175.664 126.898 174.457 126.441 173.594 125.54C172.731 124.637 172.245 123.177 172.25 121.204C172.255 119.41 172.683 118.061 173.452 117.029C174.215 116.005 175.379 115.48 176.927 115.48C178.217 115.48 179.204 115.632 180.236 115.959C180.236 115.959 180.483 116.068 180.599 115.741C180.876 114.968 181.077 114.421 181.37 113.575C181.454 113.332 181.249 113.231 181.174 113.202C180.768 113.041 179.811 112.777 179.085 112.665C178.411 112.562 177.618 112.508 176.736 112.508C175.422 112.508 174.25 112.736 173.248 113.188C172.245 113.637 171.398 114.261 170.724 115.036C170.051 115.812 169.541 116.74 169.202 117.791C168.861 118.839 168.691 119.987 168.691 121.207C168.691 123.836 169.39 125.962 170.774 127.516C172.162 129.081 174.242 129.874 176.957 129.874C178.561 129.874 180.206 129.544 181.392 129.073C181.392 129.073 181.618 128.962 181.518 128.695L180.749 126.545Z" fill="#FEFEFE"/>
<path fill-rule="evenodd" clip-rule="evenodd" d="M186.227 119.456C186.378 118.436 186.655 117.587 187.085 116.925C187.733 115.921 188.722 115.365 190.114 115.365C191.506 115.365 192.423 115.921 193.084 116.925C193.522 117.589 193.713 118.471 193.788 119.459L186.227 119.456ZM196.769 117.214C196.503 116.196 195.845 115.169 195.414 114.701C194.732 113.955 194.063 113.435 193.401 113.147C192.539 112.771 191.501 112.524 190.364 112.524C189.042 112.524 187.84 112.75 186.864 113.212C185.889 113.675 185.069 114.309 184.424 115.099C183.781 115.885 183.297 116.822 182.989 117.886C182.679 118.942 182.523 120.094 182.523 121.31C182.523 122.549 182.685 123.703 183.005 124.737C183.327 125.785 183.843 126.702 184.539 127.467C185.238 128.235 186.133 128.833 187.206 129.255C188.273 129.672 189.568 129.89 191.055 129.884C194.116 129.876 195.729 129.185 196.393 128.812C196.511 128.744 196.621 128.63 196.484 128.298L195.788 126.332C195.683 126.041 195.39 126.147 195.39 126.147C194.63 126.433 193.554 126.945 191.039 126.939C189.394 126.937 188.176 126.447 187.413 125.676C186.631 124.892 186.243 123.738 186.179 122.108L196.777 122.116C196.777 122.116 197.057 122.113 197.087 121.836C197.097 121.721 197.449 119.631 196.769 117.214Z" fill="#FEFEFE"/>
<path fill-rule="evenodd" clip-rule="evenodd" d="M101.333 119.456C101.483 118.436 101.76 117.587 102.188 116.925C102.841 115.921 103.827 115.365 105.22 115.365C106.612 115.365 107.531 115.921 108.192 116.925C108.628 117.589 108.819 118.471 108.894 119.459L101.333 119.456ZM111.875 117.214C111.609 116.196 110.95 115.169 110.52 114.701C109.837 113.955 109.171 113.435 108.507 113.147C107.641 112.771 106.606 112.524 105.472 112.524C104.147 112.524 102.945 112.75 101.97 113.212C100.994 113.675 100.174 114.309 99.5291 115.099C98.8868 115.885 98.4028 116.822 98.094 117.886C97.7848 118.942 97.6289 120.094 97.6289 121.31C97.6289 122.549 97.7901 123.703 98.11 124.737C98.4328 125.785 98.9487 126.702 99.6447 127.467C100.344 128.235 101.239 128.833 102.311 129.255C103.378 129.672 104.674 129.89 106.16 129.884C109.222 129.876 110.834 129.185 111.498 128.812C111.617 128.744 111.727 128.63 111.59 128.298L110.893 126.332C110.789 126.041 110.496 126.147 110.496 126.147C109.735 126.433 108.66 126.945 106.144 126.939C104.502 126.937 103.281 126.447 102.518 125.676C101.736 124.892 101.349 123.738 101.284 122.108L111.883 122.116C111.883 122.116 112.162 122.113 112.192 121.836C112.203 121.721 112.555 119.631 111.875 117.214Z" fill="#FEFEFE"/>
<path fill-rule="evenodd" clip-rule="evenodd" d="M78.4198 126.486C78.0031 126.151 77.9469 126.067 77.8095 125.849C77.5974 125.52 77.4896 125.051 77.4896 124.453C77.4896 123.511 77.7988 122.83 78.4357 122.376C78.4304 122.376 79.3499 121.57 81.5109 121.6C83.0293 121.619 84.3897 121.848 84.3897 121.848V126.728C84.3897 126.728 83.0428 127.019 81.5269 127.112C79.3713 127.245 78.4115 126.483 78.4198 126.486ZM82.6372 118.943C82.2069 118.91 81.6504 118.894 80.9839 118.894C80.0755 118.894 79.1965 119.009 78.3714 119.234C77.5433 119.46 76.7989 119.809 76.1591 120.272C75.5139 120.74 74.998 121.336 74.6219 122.044C74.2454 122.752 74.0547 123.584 74.0547 124.515C74.0547 125.468 74.2159 126.293 74.5411 126.968C74.8635 127.645 75.3286 128.212 75.9229 128.647C76.5114 129.082 77.2398 129.401 78.081 129.594C78.9144 129.788 79.8577 129.886 80.89 129.886C81.9785 129.886 83.0592 129.793 84.11 129.613C85.1501 129.434 86.4244 129.173 86.7791 129.088C87.131 129.006 87.5211 128.898 87.5211 128.898C87.7844 128.83 87.7626 128.546 87.7626 128.546L87.7573 118.731C87.7573 116.575 87.1905 114.98 86.0749 113.99C84.9622 113.004 83.3225 112.506 81.2046 112.506C80.4089 112.506 79.1322 112.615 78.3632 112.77C78.3632 112.77 76.0492 113.225 75.0977 113.981C75.0977 113.981 74.8877 114.112 75.0009 114.409L75.7506 116.45C75.8449 116.714 76.1 116.624 76.1 116.624C76.1 116.624 76.1808 116.592 76.2747 116.534C78.3123 115.413 80.8925 115.446 80.8925 115.446C82.0376 115.446 82.9193 115.683 83.5132 116.14C84.0911 116.592 84.3843 117.267 84.3843 118.698V119.153C83.4755 119.019 82.6372 118.943 82.6372 118.943Z" fill="#FEFEFE"/>
<path fill-rule="evenodd" clip-rule="evenodd" d="M168.134 113.412C168.215 113.17 168.046 113.053 167.976 113.026C167.795 112.957 166.892 112.764 166.199 112.718C164.866 112.636 164.126 112.862 163.465 113.164C162.807 113.464 162.079 113.951 161.675 114.503L161.673 113.194C161.673 113.014 161.546 112.87 161.369 112.87H158.652C158.474 112.87 158.348 113.014 158.348 113.194V129.207C158.348 129.387 158.49 129.531 158.67 129.531H161.455C161.632 129.531 161.775 129.387 161.775 129.207V121.208C161.775 120.132 161.893 119.063 162.127 118.39C162.355 117.723 162.667 117.193 163.054 116.812C163.441 116.43 163.882 116.164 164.366 116.014C164.858 115.861 165.403 115.81 165.785 115.81C166.342 115.81 166.949 115.957 166.949 115.957C167.156 115.979 167.269 115.851 167.339 115.665C167.519 115.176 168.037 113.703 168.134 113.412Z" fill="#FEFEFE"/>
<path fill-rule="evenodd" clip-rule="evenodd" d="M141.991 105.991C141.653 105.885 141.346 105.814 140.943 105.74C140.534 105.664 140.051 105.626 139.502 105.626C137.586 105.626 136.075 106.176 135.014 107.259C133.96 108.335 133.242 109.973 132.882 112.126L132.753 112.853H130.348C130.348 112.853 130.052 112.842 129.992 113.166L129.597 115.398C129.568 115.61 129.659 115.744 129.942 115.744H132.285L129.907 129.179C129.721 130.26 129.509 131.15 129.272 131.825C129.041 132.492 128.812 132.99 128.533 133.352C128.262 133.701 128.006 133.962 127.563 134.112C127.197 134.234 126.775 134.291 126.316 134.291C126.06 134.291 125.719 134.248 125.466 134.196C125.214 134.147 125.082 134.09 124.894 134.011C124.894 134.011 124.62 133.905 124.509 134.183C124.423 134.411 123.8 136.15 123.724 136.366C123.649 136.578 123.754 136.744 123.888 136.793C124.2 136.904 124.431 136.978 124.856 137.078C125.447 137.22 125.945 137.228 126.409 137.228C127.385 137.228 128.275 137.09 129.011 136.82C129.753 136.547 130.398 136.074 130.971 135.437C131.587 134.746 131.976 134.022 132.347 133.034C132.715 132.056 133.027 130.842 133.28 129.427L135.667 115.744H139.158C139.158 115.744 139.454 115.755 139.513 115.431L139.908 113.199C139.935 112.986 139.846 112.853 139.564 112.853H136.175C136.191 112.777 136.344 111.568 136.734 110.433C136.9 109.946 137.212 109.557 137.478 109.287C137.737 109.023 138.038 108.835 138.365 108.726C138.701 108.617 139.083 108.563 139.502 108.563C139.822 108.563 140.134 108.601 140.373 108.65C140.701 108.721 140.83 108.759 140.916 108.784C141.26 108.892 141.306 108.789 141.376 108.62L142.185 106.366C142.268 106.124 142.067 106.021 141.991 105.991Z" fill="#FEFEFE"/>
<path fill-rule="evenodd" clip-rule="evenodd" d="M94.6376 129.207C94.6376 129.387 94.5113 129.534 94.3337 129.534H91.5222C91.3451 129.534 91.2188 129.387 91.2188 129.207V106.296C91.2188 106.117 91.3451 105.973 91.5222 105.973H94.3337C94.5113 105.973 94.6376 106.117 94.6376 106.296V129.207Z" fill="#FEFEFE"/>
</svg>
