<svg width="250" height="250" viewBox="0 0 250 250" fill="none" xmlns="http://www.w3.org/2000/svg">
<path d="M94.3254 85.7339C94.3254 77.0172 102.656 69.9768 113.318 69.9768C126.98 69.9768 135.31 76.3467 139.975 109.537H142.974L147.306 64.2774C116.317 53.5491 78.3313 64.9479 77.6649 97.4679C77.6649 132.67 133.311 132.67 133.311 164.855C133.311 174.242 124.981 180.612 115.651 180.612C90.9934 180.612 85.3288 159.826 83.9959 138.034H80.997L73 178.936C73 178.936 91.3265 189.664 110.986 189.664C134.644 189.329 150.305 171.895 150.971 153.456C150.971 118.254 94.3254 110.879 94.3254 85.7339Z" fill="#06492E"/>
<path d="M150.918 177.269C150.918 170.564 156.25 164.865 163.247 164.865C170.58 164.865 175.912 170.564 175.912 177.269C175.912 183.975 170.58 189.674 163.584 189.674C155.918 190.009 150.918 183.975 150.918 177.269Z" fill="#B4D625"/>
</svg>
