<svg xmlns="http://www.w3.org/2000/svg" width="250" height="250" fill="none"><g clip-path="url(#a)"><path fill="#06492E" d="M70.889 54.925c0-15.556 14.8-28.12 33.745-28.12 24.272 0 39.073 11.368 47.361 70.6h5.328l7.696-80.772C109.962-2.512 42.472 17.83 41.289 75.867c0 62.822 98.865 62.822 98.865 120.26 0 16.752-14.8 28.12-31.376 28.12-43.81 0-53.874-37.095-56.242-75.985h-5.328L33 221.255S65.56 240.4 100.49 240.4c42.033-.598 69.858-31.71 71.041-64.617 0-62.822-100.642-75.984-100.642-120.858Z"/><path fill="#B4D625" d="M171.434 218.281c0-11.967 9.474-22.138 21.904-22.138 13.029 0 22.503 10.171 22.503 22.138 0 11.966-9.474 22.137-21.904 22.137-13.62.598-22.503-10.171-22.503-22.137Z"/></g><defs><clipPath id="a"><path fill="#fff" d="M33 9h183v232H33z"/></clipPath></defs></svg>