<?xml version="1.0" standalone="no"?>
<!DOCTYPE svg PUBLIC "-//W3C//DTD SVG 20010904//EN"
 "http://www.w3.org/TR/2001/REC-SVG-20010904/DTD/svg10.dtd">
<svg version="1.0" xmlns="http://www.w3.org/2000/svg"
 width="512.000000pt" height="512.000000pt" viewBox="0 0 512.000000 512.000000"
 preserveAspectRatio="xMidYMid meet">
<metadata>
Created by potrace 1.16, written by Peter Selinger 2001-2019
</metadata>
<g transform="translate(0.000000,512.000000) scale(0.100000,-0.100000)"
fill="#000000" stroke="none">
<path d="M0 2560 l0 -2560 2560 0 2560 0 0 2560 0 2560 -2560 0 -2560 0 0
-2560z m2875 1750 c113 -19 288 -63 313 -79 8 -5 -6 -179 -48 -621 -33 -338
-60 -619 -60 -623 0 -5 -19 -7 -42 -5 l-41 3 -23 138 c-66 392 -157 641 -286
782 -106 116 -199 154 -388 162 -96 4 -140 2 -190 -11 -183 -46 -320 -165
-364 -315 -40 -137 1 -286 120 -431 92 -114 228 -218 584 -449 288 -187 417
-286 551 -420 157 -158 232 -278 281 -447 19 -66 22 -102 22 -214 -1 -115 -5
-148 -28 -225 -151 -508 -647 -820 -1219 -767 -255 24 -543 106 -793 226 -131
63 -134 66 -128 92 4 14 55 266 114 558 l106 531 46 3 45 3 6 -99 c20 -306
106 -592 231 -766 139 -195 355 -296 629 -296 160 0 271 39 370 130 198 181
176 502 -51 768 -95 111 -248 221 -622 446 -237 142 -359 228 -462 324 -136
128 -216 254 -260 409 -32 114 -30 300 5 436 113 431 499 713 1062 777 123 14
383 4 520 -20z m936 -2957 c55 -25 111 -78 141 -136 19 -34 23 -58 23 -132 0
-76 -4 -97 -25 -139 -31 -61 -97 -120 -157 -140 -26 -9 -79 -16 -118 -16 -60
0 -82 5 -133 31 -70 35 -105 71 -140 148 -21 46 -24 64 -20 130 8 123 73 218
181 261 67 26 180 23 248 -7z"/>
</g>
</svg>
