<svg xmlns="http://www.w3.org/2000/svg" width="64" height="64"><style>.B{fill:#3b2d55}.C{fill:#57d1e5}.D{stroke:#3b2d55}.E{stroke-width:1.26}.F{stroke-linejoin:round}.G{stroke-linecap:round}</style><g transform="matrix(.93117 0 0 .93117 6.114 -.065)"><g class="C"><path d="M15.3 63.5c.4 2.1-.9 4.1-3 4.6-2.1.4-4.1-.9-4.6-3C7.7 65.1.6 31.8.6 25 .6 10.8 11.9.7 27.8.7S55 10.7 55 24.9c0 6.8-7.1 40.1-7.1 40.1-.4 2.1-2.4 3.5-4.5 3.1s-3.5-2.4-3.1-4.5" class="D E F G"/><path d="m46.2 54-1.9 10.8c-.3 2.1-2.3 3.6-4.4 3.3s-3.6-2.3-3.3-4.4"/></g><path d="m46.6 54-.9 5.7-.5 2.8L45 64l-.3 1.5c-.7 2.4-3.2 3.7-5.6 3-1-.3-1.8-.9-2.4-1.7-.6-.9-.9-2.1-.7-3.2 0-.3.4-.6.7-.5.3 0 .6.4.5.7-.2 1.7.9 3.2 2.6 3.5 1.6.3 3.3-.6 3.8-2.2.1-.3.2-.9.3-1.3l.3-1.4.5-2.8 1.1-5.6a.55.55 0 0 1 .5-.3c.2 0 .3.2.3.3z" class="B"/><circle cx="18.6" cy="22.4" r="12.1" fill="#fff" class="D E F"/><path d="M21.1 14.4c-2.1.4-2.5 5-1.3 6.3.8.8 2.5 1.1 2.5 1.7s-1.7.9-2.5 1.7c-1.3 1.3-.8 5.9 1.3 6.3 2.5.5 6.3-2.5 6.3-8s-3.8-8.5-6.3-8z" class="B"/><g fill="#fff" class="D F G"><path stroke-width="1.05" d="M12.8 38.7c.4 1.3 1.7 3.3 3.4 2.9.8-.2 1.3-1.3 1.3-2.9"/><path d="M23.6 37.9c.4 1.7.8 2.9 2.1 2.9s2.9-1.7 2.5-4.6" class="E"/></g><path d="M10.3 37.8c8.1 1.2 16.3-.8 23-5.4.3-.1.7 0 .8.3.1.2.1.5-.1.7-7 4.8-15.5 6.7-23.9 5.5-.3-.1-.4-.4-.3-.7.2-.3.3-.4.5-.4zm24-3.5a2.66 2.66 0 0 0-2.3-2.1c-.3.1-.7-.1-.7-.5-.1-.3.1-.7.5-.7h.4c1.6.3 2.8 1.6 3 3.2 0 .2-.2.4-.4.4-.3.1-.5-.1-.5-.3z" class="B"/><path d="M19 63.7c.3 2.1-1.1 4.1-3.3 4.4-2.1.3-4.1-1.1-4.4-3.3L9.5 54" class="C"/><path d="M19.7 63.6c.3 2.5-1.5 4.7-3.9 5-2.2.3-4.2-1.1-4.8-3.1l-.3-1.5-.6-4.2c-.5-2-.8-3.9-1.1-5.8 0-.2.2-.4.4-.4s.4.1.4.3l1.1 5.6.9 4.2.3 1.3c.5 1.6 2.1 2.6 3.8 2.2 1.6-.4 2.7-1.9 2.5-3.5 0-.3.2-.7.5-.7.4-.1.7.2.8.6z" class="B"/><path d="M24.6 63.9c.1 2.1-1.5 4-3.7 4.1-2 .1-3.8-1.4-4-3.4l-1.2-10.8" class="C"/><path d="M25.3 63.9c.1 2.5-1.8 4.6-4.3 4.7-2.2.1-4.1-1.3-4.6-3.4-.1-.5-.2-1-.2-1.5l-.1-1.4-.3-2.8-.5-5.7c0-.2.2-.4.4-.4s.4.1.4.3l1.2 8.5.2 1.4c.1.5.1 1 .2 1.3.4 1.6 2 2.7 3.6 2.4a3.44 3.44 0 0 0 2.8-3.4c0-.3.3-.6.7-.6.2.1.4.3.5.6z" class="B"/><path d="m39.9 53.7-1.2 10.9c-.2 2.1-2 3.7-4.2 3.5-2.1-.2-3.7-2-3.5-4.2" class="C"/><path d="m40.4 53.7-.5 5.7-.3 2.8-.1 1.4c0 .5-.1 1-.2 1.5-.3 1.1-.9 2-1.9 2.7-2.1 1.4-4.8.9-6.2-1.2-.6-.8-.8-1.8-.8-2.8.1-.3.4-.6.7-.5.3 0 .5.3.5.6-.1 1.7 1.1 3.1 2.8 3.4 1.6.2 3.2-.8 3.6-2.4l.2-1.3.6-4.2.8-5.7c.1-.2.3-.4.5-.3.1 0 .2.1.3.3z" class="B"/><path d="m32 53.3-.3 10.9c0 2.1-1.7 3.9-3.9 3.9-2.1 0-3.9-1.7-3.9-3.9l-.3-10.9" class="C"/><path d="m32.4 53.4-.1 8.4v2.1c0 .8-.1 1.6-.5 2.3-1.1 2.2-3.9 3.1-6.1 1.9-1.2-.6-2.1-1.8-2.3-3.1-.1-.4-.1-.8-.1-1.2v-2.1l-.1-8.4c0-.2.2-.4.4-.4s.4.2.4.4l.5 10.5c0 .3 0 .6.1.9l.3.8c.9 1.6 2.8 2.2 4.4 1.3.6-.3 1-.8 1.3-1.3l.3-.8c.1-.3.1-.6.1-.9l.5-10.5c0-.2.2-.4.4-.4.4 0 .5.2.5.5z" class="B"/></g></svg>