<svg xmlns="http://www.w3.org/2000/svg" width="61.733" height="61.672"><path fill="#12ae3a" d="m47.987 34.252.042.02.02-.01 6.853 3.426-.02.011 6.851 3.426v6.852L37.41 60.14a14.52 14.52 0 0 1-12.982 0L.082 47.967v-6.852l24.345 12.172a14.513 14.513 0 0 0 12.982 0l17.472-8.736-6.852-3.426-10.62 5.31a14.52 14.52 0 0 1-12.982 0L6.934 37.688l6.853-3.426 10.64 5.32a14.513 14.513 0 0 0 12.982 0l10.578-5.289ZM30.918 27.41c2.253 0 4.476.525 6.49 1.532l3.747 1.874-3.828 1.914a14.514 14.514 0 0 1-12.982 0L20.6 30.857l3.828-1.915a14.514 14.514 0 0 1 6.491-1.532zM30.836 0c2.253 0 4.475.525 6.49 1.532l24.346 12.173v6.811L37.41 8.385a14.511 14.511 0 0 0-12.981 0L6.893 17.152l6.853 3.426 10.682-5.341a14.518 14.518 0 0 1 12.98 0l17.453 8.726-6.853 3.426-10.6-5.3a14.518 14.518 0 0 0-12.98 0l-10.682 5.342L0 20.558v-6.853L24.345 1.532A14.52 14.52 0 0 1 30.836 0Z" style="fill-rule:evenodd;stroke:none;stroke-width:1"/></svg>