<svg width="250" height="250" viewBox="0 0 250 250" fill="none" xmlns="http://www.w3.org/2000/svg">
<path fill-rule="evenodd" clip-rule="evenodd" d="M110.706 76.24C115.087 74.05 119.92 72.9115 124.818 72.9115C129.721 72.9115 134.552 74.05 138.935 76.24L191.697 102.588V87.7953L138.755 61.3586C134.374 59.1697 129.541 58.0301 124.642 58.0301C119.742 58.0301 114.91 59.1697 110.525 61.3586L57.5859 87.7953V102.676L57.7632 102.766V102.676L110.706 76.24Z" fill="#12AE3A"/>
<path fill-rule="evenodd" clip-rule="evenodd" d="M124.818 102.676C129.719 102.676 134.55 103.817 138.932 106.003L161.982 117.513L176.885 110.074L138.932 91.1208C134.55 88.9342 129.719 87.7946 124.818 87.7946C119.919 87.7946 115.085 88.9342 110.705 91.1208L72.5742 110.162L87.477 117.602L110.705 106.003C115.085 103.817 119.919 102.676 124.818 102.676Z" fill="#12AE3A"/>
<path fill-rule="evenodd" clip-rule="evenodd" d="M124.82 117.559C119.921 117.559 115.087 118.7 110.705 120.886L102.38 125.045C102.379 125.045 102.379 125.045 102.38 125.045L110.527 129.114C114.91 131.301 119.742 132.44 124.642 132.44C129.542 132.44 134.375 131.301 138.756 129.114L147.083 124.956L138.934 120.885C134.552 118.7 129.721 117.559 124.82 117.559Z" fill="#12AE3A"/>
<path fill-rule="evenodd" clip-rule="evenodd" d="M138.933 143.996C134.55 146.184 129.719 147.324 124.819 147.324C119.918 147.324 115.085 146.184 110.704 143.996L87.5645 132.44L72.6641 139.88L110.704 158.878C115.085 161.066 119.918 162.204 124.819 162.204C129.719 162.204 134.55 161.066 138.933 158.878L176.972 139.88L162.072 132.44L138.933 143.996Z" fill="#12AE3A"/>
<path fill-rule="evenodd" clip-rule="evenodd" d="M87.4761 117.603L57.5859 102.677V87.7927L87.4761 102.723V117.603Z" fill="#12AE3A"/>
<path fill-rule="evenodd" clip-rule="evenodd" d="M191.832 162.228L161.941 147.302V132.418L191.832 147.348V162.228Z" fill="#12AE3A"/>
<path fill-rule="evenodd" clip-rule="evenodd" d="M138.933 173.76C134.551 175.949 129.719 177.088 124.819 177.088C119.918 177.088 115.085 175.949 110.704 173.76L57.7617 147.325V162.205L110.704 188.642C115.085 190.83 119.918 191.969 124.819 191.969C129.719 191.969 134.551 190.83 138.933 188.642L191.874 162.205V147.325L138.933 173.76Z" fill="#12AE3A"/>
</svg>
