<?xml version="1.0" encoding="UTF-8"?>
<svg width="441px" height="146px" viewBox="0 0 441 146" version="1.1" xmlns="http://www.w3.org/2000/svg" xmlns:xlink="http://www.w3.org/1999/xlink">
    <!-- Generator: Sketch 62 (91390) - https://sketch.com -->
    <title>Logo color dark</title>
    <desc>Created with Sketch.</desc>
    <g id="Logo-color-dark" stroke="none" stroke-width="1" fill="none" fill-rule="evenodd">
        <path d="M125.929802,68.7369891 C125.929802,72.5046779 128.445349,74.3956891 133.982546,75.1107821 L135.905514,75.3382744 C137.862507,75.5841352 139.538845,75.9728514 139.538845,77.3476491 C139.538845,78.9857747 137.564694,79.9098455 135.42253,79.9098455 C132.734324,79.9098455 129.920108,78.481736 128.618008,75.7515267 L124.417686,78.3977296 C126.349834,81.3379549 129.542079,84.2781803 135.29652,84.2781803 C140.840945,84.2781803 144.663238,81.2959517 144.663238,77.2216394 C144.663238,73.4862167 142.296413,71.756578 135.955401,70.9350123 L134.2601,70.7289334 C132.360087,70.4722471 131.054195,70.0390889 131.054195,68.6529826 C131.054195,67.3928861 132.146279,66.5528217 134.12043,66.5528217 C136.892642,66.5528217 138.992803,68.2329504 140.588926,70.1230953 L144.411219,67.0988635 C141.597003,64.1586382 138.572771,62.2684933 134.288443,62.2684933 C129.458073,62.2684933 125.929802,64.8726929 125.929802,68.7369891 Z M146.679393,73.1053239 C146.679393,79.5738197 151.173737,84.2781803 157.390214,84.2781803 C162.976642,84.2781803 165.412828,81.3379549 166.840938,79.1537875 L162.514606,76.6335944 C161.800552,78.103707 160.246432,79.7418326 157.306207,79.7418326 C154.281975,79.7418326 152.307824,77.5996684 152.097808,74.8274559 L167.26097,74.8274559 L167.26097,72.7692982 C167.26097,66.5108184 163.186658,62.2684933 157.138194,62.2684933 C151.005724,62.2684933 146.679393,66.804841 146.679393,73.1053239 Z M152.139811,71.1311726 C152.559843,68.5689762 154.113962,66.804841 157.096191,66.804841 C159.8264,66.804841 161.506529,68.4849698 161.884558,71.1311726 L152.139811,71.1311726 Z M169.86517,67.6449054 L174.149498,70.4171179 C175.451598,68.2329504 177.17373,66.804841 179.945942,66.804841 C182.802161,66.804841 184.314277,68.3589601 184.314277,70.3331114 L184.314277,70.8371501 L176.333666,71.7192177 C172.34336,72.1392499 169.445138,74.4494269 169.445138,77.7676813 C169.445138,81.7579871 172.553376,84.2781803 177.257736,84.2781803 C181.668074,84.2781803 183.138187,82.1360161 183.810239,80.7499099 L184.398284,80.7499099 L184.398284,83.6901352 L189.606683,83.6901352 L189.606683,70.3751146 C189.606683,65.5027412 185.9104,62.2684933 180.239965,62.2684933 C175.157575,62.2684933 172.34336,64.5366671 169.86517,67.6449054 Z M174.989563,77.4736587 C174.989563,76.2555654 175.955637,75.5415107 177.929788,75.2894913 L184.314277,74.5334334 L184.314277,74.8694591 C184.314277,77.7256781 182.25612,79.9098455 178.559836,79.9098455 C176.207656,79.9098455 174.989563,78.9017682 174.989563,77.4736587 Z M199.267423,62.8565383 L194.059024,62.8565383 L194.059024,83.6901352 L199.35143,83.6901352 L199.35143,71.9292338 C199.35143,68.9890084 201.283578,67.5608989 203.971784,67.5608989 L207.080022,67.5608989 L207.080022,62.7725319 L205.063868,62.7725319 C202.417665,62.7725319 200.65353,63.5705931 199.855469,65.8807702 L199.267423,65.8807702 L199.267423,62.8565383 Z M207.878083,73.2733368 C207.878083,79.7418326 212.66645,84.2781803 218.714914,84.2781803 C224.553362,84.2781803 228.207642,81.0439324 229.215719,76.2975686 L224.00732,74.9954688 C223.461278,77.7256781 221.991165,79.5738197 218.798921,79.5738197 C215.39666,79.5738197 213.170489,77.0536266 213.170489,73.2733368 C213.170489,69.493047 215.606676,66.9728539 218.798921,66.9728539 C221.991165,66.9728539 223.629291,69.0730148 224.00732,71.593208 L229.215719,70.249105 C228.123635,65.5027412 224.511358,62.2684933 218.714914,62.2684933 C212.66645,62.2684933 207.878083,66.804841 207.878083,73.2733368 Z M232.49197,54.2878816 L232.49197,83.6901352 L237.784376,83.6901352 L237.784376,72.937311 C237.784376,69.2410277 239.590514,67.1408667 242.992775,67.1408667 C246.017007,67.1408667 247.697136,68.8629987 247.697136,71.7612209 L247.697136,83.6901352 L252.989541,83.6901352 L252.989541,71.2571823 C252.989541,65.8387669 249.503274,62.5205126 244.88292,62.5205126 C241.060627,62.5205126 239.128479,64.2846478 238.288414,66.2167959 L237.784376,66.2167959 L237.784376,54.2878816 L232.49197,54.2878816 Z M257.441882,62.8565383 L257.441882,83.6901352 L262.734288,83.6901352 L262.734288,71.0051629 C262.734288,68.4009633 264.330411,67.1408667 266.514578,67.1408667 C268.530732,67.1408667 269.916839,68.2329504 269.916839,70.1650985 L269.916839,83.6901352 L275.209244,83.6901352 L275.209244,71.0051629 C275.209244,68.4009633 276.805367,67.1408667 278.989534,67.1408667 C281.005689,67.1408667 282.391795,68.2329504 282.391795,70.1650985 L282.391795,83.6901352 L287.684201,83.6901352 L287.684201,69.7450664 C287.684201,65.4187347 284.617966,62.5205126 280.795673,62.5205126 C277.477418,62.5205126 275.797289,64.1166349 274.873219,66.048783 L274.285174,66.048783 C273.403106,63.9486221 271.428955,62.5205126 268.740749,62.5205126 C265.842526,62.5205126 264.120394,63.9486221 263.238327,65.9647766 L262.650282,65.9647766 L262.650282,62.8565383 L257.441882,62.8565383 Z M290.876445,73.1053239 C290.876445,79.5738197 295.37079,84.2781803 301.587266,84.2781803 C307.173694,84.2781803 309.609881,81.3379549 311.037991,79.1537875 L306.711659,76.6335944 C305.997604,78.103707 304.443485,79.7418326 301.50326,79.7418326 C298.479028,79.7418326 296.504877,77.5996684 296.294861,74.8274559 L311.458023,74.8274559 L311.458023,72.7692982 C311.458023,66.5108184 307.383711,62.2684933 301.335247,62.2684933 C295.202777,62.2684933 290.876445,66.804841 290.876445,73.1053239 Z M296.336864,71.1311726 C296.756896,68.5689762 298.311015,66.804841 301.293244,66.804841 C304.023453,66.804841 305.703582,68.4849698 306.081611,71.1311726 L296.336864,71.1311726 Z M312.34009,62.8565383 L312.34009,67.3928861 L317.632496,67.3928861 L317.632496,79.6578262 C317.632496,82.0100065 319.396631,83.6901352 321.748812,83.6901352 L327.461249,83.6901352 L327.461249,79.1537875 L324.100992,79.1537875 C323.344934,79.1537875 322.924902,78.7337553 322.924902,77.8936909 L322.924902,67.3928861 L328.63734,67.3928861 L328.63734,62.8565383 L322.924902,62.8565383 L322.924902,56.3880425 L317.632496,56.3880425 L317.632496,62.8565383 L312.34009,62.8565383 Z M337.374009,62.8565383 L332.16561,62.8565383 L332.16561,83.6901352 L337.458016,83.6901352 L337.458016,71.9292338 C337.458016,68.9890084 339.390164,67.5608989 342.07837,67.5608989 L345.186608,67.5608989 L345.186608,62.7725319 L343.170454,62.7725319 C340.524251,62.7725319 338.760116,63.5705931 337.962054,65.8807702 L337.374009,65.8807702 L337.374009,62.8565383 Z M346.78273,56.8080747 C346.78273,58.9502389 348.420856,60.4203516 350.521017,60.4203516 C352.621178,60.4203516 354.259304,58.9502389 354.259304,56.8080747 C354.259304,54.6659105 352.621178,53.1957979 350.521017,53.1957979 C348.420856,53.1957979 346.78273,54.6659105 346.78273,56.8080747 Z M353.16722,62.8565383 L347.874814,62.8565383 L347.874814,83.6901352 L353.16722,83.6901352 L353.16722,62.8565383 Z M356.611484,73.2733368 C356.611484,79.7418326 361.399851,84.2781803 367.448314,84.2781803 C373.286762,84.2781803 376.941042,81.0439324 377.949119,76.2975686 L372.74072,74.9954688 C372.194678,77.7256781 370.724566,79.5738197 367.532321,79.5738197 C364.13006,79.5738197 361.90389,77.0536266 361.90389,73.2733368 C361.90389,69.493047 364.340076,66.9728539 367.532321,66.9728539 C370.724566,66.9728539 372.362691,69.0730148 372.74072,71.593208 L377.949119,70.249105 C376.857036,65.5027412 373.244759,62.2684933 367.448314,62.2684933 C361.399851,62.2684933 356.611484,66.804841 356.611484,73.2733368 Z M380.553319,68.7369891 C380.553319,64.8726929 384.081589,62.2684933 388.91196,62.2684933 C393.196288,62.2684933 396.22052,64.1586382 399.034736,67.0988635 L395.212443,70.1230953 C393.61632,68.2329504 391.516159,66.5528217 388.743947,66.5528217 C386.769795,66.5528217 385.677712,67.3928861 385.677712,68.6529826 C385.677712,70.1650985 387.231831,70.5431275 389.415998,70.7951468 L390.130053,70.8791533 C396.808565,71.6772145 399.286755,73.3993465 399.286755,77.2216394 C399.286755,81.2959517 395.464462,84.2781803 389.920037,84.2781803 C384.165596,84.2781803 380.973351,81.3379549 379.041203,78.3977296 L383.241525,75.7515267 C384.543625,78.481736 387.357841,79.9098455 390.046047,79.9098455 C392.188211,79.9098455 394.162362,78.9857747 394.162362,77.3476491 C394.162362,75.9728514 392.486024,75.5841352 390.529031,75.3382744 L389.037969,75.1634817 C383.199522,74.4914302 380.553319,72.6012853 380.553319,68.7369891 Z" id="searchmetrics-copy-2" fill="#000000"></path>
        <path d="M89.2677493,76.2239753 L89.3089356,76.2443142 L89.3297829,76.2341448 L96.181952,79.6602293 L96.1616131,79.6709072 L103.013782,83.0969918 L103.013782,89.9491608 L78.6894972,102.111812 C76.6739141,103.119095 74.4518913,103.643838 72.1983433,103.643838 C69.9453037,103.643838 67.7232809,103.119095 65.7076978,102.111812 L65.7076978,102.111812 L41.3625655,89.9389914 L41.3625655,83.0868223 L65.7076978,95.2591342 C67.7232809,96.2669258 69.9453037,96.7916689 72.1983433,96.7916689 C74.4518913,96.7916689 76.6739141,96.2669258 78.6894972,95.2591342 L78.6894972,95.2591342 L96.1616131,86.5230763 L89.3089356,83.0969918 L78.6894972,88.4069652 C76.6739141,89.4142483 74.4518913,89.9394999 72.1983433,89.9394999 C69.9453037,89.9394999 67.7232809,89.4142483 65.7076978,88.4069652 L65.7076978,88.4069652 L48.2147346,79.6602293 L55.0674121,76.2341448 L65.7076978,81.5542876 C67.7232809,82.5620792 69.9453037,83.0868223 72.1983433,83.0868223 C74.4518913,83.0868223 76.6739141,82.5620792 78.6894972,81.5542876 L78.6894972,81.5542876 L89.2677493,76.2651616 L89.2677493,76.2239753 Z M72.1985975,69.3816706 C74.4516371,69.3816706 76.6741683,69.9064137 78.689243,70.9142053 L78.689243,70.9142053 L82.4356649,72.7874163 L82.4356649,72.7874163 L78.607379,74.7018135 C76.5917959,75.709605 74.3697731,76.2343482 72.116225,76.2343482 C69.8631855,76.2343482 67.6411627,75.709605 65.6255796,74.7018135 L65.6255796,74.7018135 L61.8791577,72.8286025 L65.7074436,70.9142053 C67.7230267,69.9064137 69.9450495,69.3816706 72.1985975,69.3816706 Z M72.1166318,41.971774 C74.3696714,41.971774 76.5916942,42.4965171 78.6072773,43.5038002 L78.6072773,43.5038002 L102.95241,55.6766206 L102.95241,62.4881119 L78.6891413,50.3564777 C76.6740666,49.3486862 74.4515354,48.8244515 72.1984958,48.8244515 C69.9454563,48.8244515 67.722925,49.3486862 65.7078504,50.3564777 L65.7078504,50.3564777 L48.1737009,59.1235525 L55.0263784,62.549637 L65.7078504,57.2086468 C67.722925,56.2013637 69.9454563,55.6766206 72.1984958,55.6766206 C74.4515354,55.6766206 76.6740666,56.2013637 78.6891413,57.2086468 L78.6891413,57.2086468 L96.1409183,65.9350438 L89.2882407,69.3611283 L78.6891413,64.0613244 C76.6740666,63.0540413 74.4515354,62.5292981 72.1984958,62.5292981 C69.9454563,62.5292981 67.722925,63.0540413 65.7078504,64.0613244 L65.7078504,64.0613244 L55.0263784,69.4023146 L41.2803456,62.5292981 L41.2803456,55.6766206 L65.6254779,43.5038002 C67.641061,42.4965171 69.8630838,41.971774 72.1166318,41.971774 Z" id="Combined-Shape" fill="#12AE3A"></path>
    </g>
</svg>