<svg xmlns="http://www.w3.org/2000/svg" xml:space="preserve" width="169.736" height="169.733"><path d="M1561.5 1504.82H712.832v-424.33H288.496V231.82h848.674v424.328h424.33v848.672" style="fill:#fff;fill-opacity:1;fill-rule:nonzero;stroke:none" transform="matrix(.13333 0 0 -.13333 -38.466 200.643)"/><path d="M288.492 656.148v424.342h424.34-424.336V656.148" style="fill:#aee5f5;fill-opacity:1;fill-rule:nonzero;stroke:none" transform="matrix(.13333 0 0 -.13333 -38.466 200.643)"/><path d="M1137.17 231.82H712.836v424.328H288.492l.004 424.342H712.836V656.148h424.334V231.82" style="fill:#fff;fill-opacity:1;fill-rule:nonzero;stroke:none" transform="matrix(.13333 0 0 -.13333 -38.466 200.643)"/><path d="M1137.17 231.82H712.836v424.328H288.492l.004 424.342H712.836V656.148h424.334V231.82" style="fill:#aee5f5;fill-opacity:1;fill-rule:nonzero;stroke:none" transform="matrix(.13333 0 0 -.13333 -38.466 200.643)"/><path d="M288.496 231.82h424.336v424.328H288.496Z" style="fill:#457dc8;fill-opacity:1;fill-rule:nonzero;stroke:none" transform="matrix(.13333 0 0 -.13333 -38.466 200.643)"/><path d="m1561.51 656.148-.01 424.342h.01V656.148m-424.34 848.672H712.832h424.338" style="fill:#34bde9;fill-opacity:1;fill-rule:nonzero;stroke:none" transform="matrix(.13333 0 0 -.13333 -38.466 200.643)"/><path d="M1561.51 656.148h-424.34v424.342H712.836v424.33h424.334v-424.33h424.34l-.01-424.342" style="fill:#fff;fill-opacity:1;fill-rule:nonzero;stroke:none" transform="matrix(.13333 0 0 -.13333 -38.466 200.643)"/><path d="M1561.51 656.148h-424.34v424.342H712.836v424.33h424.334v-424.33h424.34l-.01-424.342" style="fill:#34bde9;fill-opacity:1;fill-rule:nonzero;stroke:none" transform="matrix(.13333 0 0 -.13333 -38.466 200.643)"/><path d="M712.836 656.148h424.336v424.34H712.836Z" style="fill:#fff;fill-opacity:1;fill-rule:nonzero;stroke:none" transform="matrix(.13333 0 0 -.13333 -38.466 200.643)"/><path d="M712.836 656.148h424.336v424.34H712.836Z" style="fill:#34bde9;fill-opacity:1;fill-rule:nonzero;stroke:none" transform="matrix(.13333 0 0 -.13333 -38.466 200.643)"/><path d="M1561.5 1080.49h-424.33v424.33h424.33v-424.33" style="fill:#457dc8;fill-opacity:1;fill-rule:nonzero;stroke:none" transform="matrix(.13333 0 0 -.13333 -38.466 200.643)"/></svg>