<?xml version="1.0" encoding="UTF-8" standalone="no"?>
<svg
   version="1.1"
   id="svg2"
   xml:space="preserve"
   width="169.73573"
   height="169.73332"
   viewBox="0 0 169.73573 169.73332"
   sodipodi:docname="sendgrid.svg"
   inkscape:version="1.2.1 (9c6d41e410, 2022-07-14, custom)"
   xmlns:inkscape="http://www.inkscape.org/namespaces/inkscape"
   xmlns:sodipodi="http://sodipodi.sourceforge.net/DTD/sodipodi-0.dtd"
   xmlns="http://www.w3.org/2000/svg"
   xmlns:svg="http://www.w3.org/2000/svg"
   xmlns:rdf="http://www.w3.org/1999/02/22-rdf-syntax-ns#"
   xmlns:cc="http://creativecommons.org/ns#"
   xmlns:dc="http://purl.org/dc/elements/1.1/"><metadata
     id="metadata8"><rdf:RDF><cc:Work
         rdf:about=""><dc:format>image/svg+xml</dc:format><dc:type
           rdf:resource="http://purl.org/dc/dcmitype/StillImage" /></cc:Work></rdf:RDF></metadata><defs
     id="defs6" /><sodipodi:namedview
     pagecolor="#ffffff"
     bordercolor="#666666"
     borderopacity="1"
     objecttolerance="10"
     gridtolerance="10"
     guidetolerance="10"
     inkscape:pageopacity="0"
     inkscape:pageshadow="2"
     inkscape:window-width="3840"
     inkscape:window-height="2083"
     id="namedview4"
     inkscape:showpageshadow="2"
     inkscape:pagecheckerboard="0"
     inkscape:deskcolor="#d1d1d1"
     showgrid="false"
     inkscape:zoom="4.4353908"
     inkscape:cx="84.772688"
     inkscape:cy="84.998147"
     inkscape:window-x="0"
     inkscape:window-y="40"
     inkscape:window-maximized="1"
     inkscape:current-layer="g10" /><g
     id="g10"
     inkscape:groupmode="layer"
     inkscape:label="ink_ext_XXXXXX"
     transform="matrix(1.3333333,0,0,-1.3333333,-38.465599,200.64266)"><g
       id="g12"
       transform="scale(0.1)"><path
         d="M 1561.5,1504.82 H 712.832 V 1080.49 H 288.496 V 231.82 h 848.674 v 424.328 h 424.33 v 848.672"
         style="fill:#ffffff;fill-opacity:1;fill-rule:nonzero;stroke:none"
         id="path14" /><path
         d="m 288.492,656.148 v 0 424.342 h 424.34 v 0 H 288.496 V 656.148"
         style="fill:#aee5f5;fill-opacity:1;fill-rule:nonzero;stroke:none"
         id="path16" /><path
         d="M 1137.17,231.82 H 712.836 V 656.148 H 288.492 l 0.004,424.342 h 424.336 0.004 V 656.148 H 1137.17 V 231.82"
         style="fill:#ffffff;fill-opacity:1;fill-rule:nonzero;stroke:none"
         id="path18" /><path
         d="M 1137.17,231.82 H 712.836 V 656.148 H 288.492 l 0.004,424.342 h 424.336 0.004 V 656.148 H 1137.17 V 231.82"
         style="fill:#aee5f5;fill-opacity:1;fill-rule:nonzero;stroke:none"
         id="path20" /><path
         d="M 288.496,231.82 H 712.832 V 656.148 H 288.496 Z"
         style="fill:#457dc8;fill-opacity:1;fill-rule:nonzero;stroke:none"
         id="path22" /><path
         d="m 1561.51,656.148 v 0 l -0.01,424.342 h 0.01 V 656.148 m -424.34,848.672 h -424.338 0.004 424.334"
         style="fill:#34bde9;fill-opacity:1;fill-rule:nonzero;stroke:none"
         id="path24" /><path
         d="M 1561.51,656.148 H 1137.17 V 1080.49 H 712.836 v 424.33 h 424.334 v -424.33 h 424.34 l -0.01,-424.342"
         style="fill:#ffffff;fill-opacity:1;fill-rule:nonzero;stroke:none"
         id="path26" /><path
         d="M 1561.51,656.148 H 1137.17 V 1080.49 H 712.836 v 424.33 h 424.334 v -424.33 h 424.34 l -0.01,-424.342"
         style="fill:#34bde9;fill-opacity:1;fill-rule:nonzero;stroke:none"
         id="path28" /><path
         d="m 712.836,656.148 h 424.336 v 424.34 H 712.836 Z"
         style="fill:#ffffff;fill-opacity:1;fill-rule:nonzero;stroke:none"
         id="path30" /><path
         d="m 712.836,656.148 h 424.336 v 424.34 H 712.836 Z"
         style="fill:#34bde9;fill-opacity:1;fill-rule:nonzero;stroke:none"
         id="path32" /><path
         d="m 1561.5,1080.49 h -424.33 v 424.33 h 424.33 v -424.33"
         style="fill:#457dc8;fill-opacity:1;fill-rule:nonzero;stroke:none"
         id="path34" /></g></g></svg>
