<svg xmlns="http://www.w3.org/2000/svg" width="250" height="250" fill="none"><path fill="#0092FF" fill-rule="evenodd" d="M197.147 166.983c-5.016 8.644-13.209 15.024-22.859 17.801a51.664 51.664 0 0 0 2.092-14.469c0-24.386-16.926-44.839-39.647-50.409a38.471 38.471 0 0 1 16.888-9.565 38.53 38.53 0 0 1 15.073-1.005 38.422 38.422 0 0 1 14.289 4.865c18.479 10.655 24.832 34.331 14.164 52.782m-72.798 41.969c-10.107 0-19.721-4.009-26.854-10.854a51.798 51.798 0 0 0 13.58-5.436c21.143-12.189 30.418-37.042 23.901-59.469 16.179 4.629 28.068 19.501 28.068 37.122 0 21.301-17.361 38.637-38.695 38.637Zm-72.802-41.969c-5.053-8.74-6.36-19.038-4-28.616a52.368 52.368 0 0 0 11.495 8.997 51.793 51.793 0 0 0 25.932 6.95 52.398 52.398 0 0 0 20.449-4.172 52.074 52.074 0 0 0 17.156-11.81c4.058 16.296-2.899 33.989-18.171 42.795a38.504 38.504 0 0 1-19.282 5.168 38.899 38.899 0 0 1-19.406-5.173 38.543 38.543 0 0 1-14.175-14.139m0-83.937c5.017-8.644 13.21-15.024 22.861-17.8a51.6 51.6 0 0 0-2.096 14.472c0 24.373 16.919 44.82 39.628 50.4-12.105 11.678-30.948 14.52-46.227 5.711-8.953-5.164-15.355-13.494-18.03-23.464a38.315 38.315 0 0 1-1.01-15.042 38.39 38.39 0 0 1 4.874-14.277m72.804-41.969c10.111 0 19.716 4.005 26.843 10.845a52.3 52.3 0 0 0-13.573 5.445c-12.039 6.943-20.65 18.145-24.244 31.553a51.49 51.49 0 0 0 .327 27.914c-16.17-4.632-28.05-19.503-28.05-37.116 0-21.307 17.358-38.64 38.697-38.64m72.798 41.968c5.059 8.752 6.369 19.061 3.992 28.651a51.963 51.963 0 0 0-11.485-9.031c-12.039-6.937-26.061-8.781-39.489-5.19a51.7 51.7 0 0 0-24.063 14.257 38.371 38.371 0 0 1 .158-19.367c2.672-9.968 9.075-18.302 18.028-23.464 8.952-5.158 19.379-6.53 29.363-3.86 9.983 2.672 18.326 9.066 23.496 18.004m11.552-6.656c-6.95-12.02-18.17-20.618-31.598-24.21a52.607 52.607 0 0 0-9.699-1.63c-9.632-14.141-25.799-22.79-43.053-22.79-17.87 0-33.66 9.045-43.033 22.785-17.092 1.255-32.69 10.913-41.32 25.841-6.953 12.02-8.797 26.023-5.202 39.431a52.432 52.432 0 0 0 3.438 9.2c-7.449 15.402-6.867 33.706 1.761 48.628 8.934 15.45 24.668 24.571 41.269 25.811 9.631 14.153 25.831 22.817 43.085 22.817 17.868 0 33.658-9.046 43.03-22.789 17.092-1.254 32.689-10.909 41.32-25.839 8.936-15.454 8.983-33.63 1.751-48.604 7.459-15.41 6.881-33.721-1.751-48.65" clip-rule="evenodd"/></svg>