<svg width="250" height="250" viewBox="0 0 250 250" fill="none" xmlns="http://www.w3.org/2000/svg">
<path d="M198.156 168.714C201.59 174.741 201.923 181.078 199.069 186.088C196.219 191.103 190.643 193.974 183.77 193.974H170.817C170.971 191.533 171.073 189.072 171.073 186.593C171.073 183.816 170.945 181.074 170.758 178.341L179.278 178.332C181.372 178.332 183.065 176.612 183.065 174.49C183.065 173.851 182.909 173.222 182.61 172.659L128.307 77.2766C127.979 76.6865 127.502 76.1953 126.924 75.8537C126.346 75.512 125.688 75.3321 125.018 75.3326C124.365 75.3328 123.724 75.5036 123.156 75.8285C122.587 76.1534 122.112 76.6212 121.776 77.1866L113.154 92.3324C139.357 112.294 156.973 143.22 159.384 178.332C159.571 181.061 159.699 183.804 159.699 186.584C159.699 189.063 159.597 191.521 159.447 193.965H117.147C117.377 191.533 117.509 189.076 117.509 186.584C117.509 183.795 117.347 181.044 117.049 178.332C114.959 159.009 105.598 141.883 91.8135 129.798L85.8745 140.224C96.2884 150.019 103.396 163.359 105.329 178.332C105.679 181.035 105.875 183.786 105.875 186.584C105.875 189.076 105.713 191.542 105.436 193.965H66.2239C59.351 193.965 53.7747 191.089 50.9248 186.075C48.0708 181.065 48.4033 174.732 51.838 168.7L59.8889 154.758C64.488 157.258 68.6443 160.512 72.1879 164.389L67.3888 172.65C67.0906 173.213 66.9336 173.843 66.9317 174.482C66.9307 174.985 67.028 175.484 67.218 175.95C67.408 176.415 67.687 176.838 68.0389 177.195C68.3909 177.551 68.8089 177.834 69.2691 178.027C69.7293 178.22 70.2226 178.319 70.7208 178.319L89.7396 178.328C88.1443 169.114 83.9377 160.802 77.9138 154.218C74.3639 150.351 70.2173 147.078 65.6011 144.574L86.8387 107.284C91.3479 109.831 95.6314 112.767 99.6418 116.058C117.945 131.066 130.304 153.231 132.544 178.324H143.927C141.605 148.989 127.019 123.12 105.372 105.995C101.307 102.778 97.0054 99.8777 92.5046 97.3208L110.632 65.4938C114.062 59.462 119.309 56 125.018 56C130.722 56 135.965 59.462 139.4 65.4938L198.156 168.714Z" fill="#FB2D26"/>
</svg>
