<svg xmlns="http://www.w3.org/2000/svg" width="2500" height="2500" viewBox="0 0 192.744 192.744"><g fill-rule="evenodd" clip-rule="evenodd"><path fill="#fff" d="M0 0h192.744v192.744H0V0z"/><path d="M18.309 129.367V23.107c0-15.288 1.349-18.884 14.837-19.934l27.427 69.092-6.894 19.185H22.356l25.178 19.034-11.09 31.023 27.277-18.284L88 141.058l1.799 4.196H35.095c-14.088 0-16.786-3.897-16.786-15.887zM41.501 2.865h69.84c-24.578 10.342-24.878 19.184-33.72 19.184-9.142 0-17.085-11.091-27.427-11.091-1.199 0-2.998.15-5.695.6l-2.998-8.693zm90.097 120.657-11.09-3.297-.15-4.347c0-4.047.75-4.646 4.047-4.646l3.598-.149c6.295-.149 7.793-.6 8.842-2.698.15-.299 1.949-9.291 1.949-9.592 0-.3 0-.3-3.297-2.098 2.846-.749 3.746-1.649 3.746-2.998 0-1.199-.6-2.098-.6-3.897 0-1.199.75-1.948 3.146-2.248l1.648-.299c1.35-.15 2.398-.3 2.398-1.649 0-.6 0-.6-1.648-4.646 0 0-5.096-13.338-5.096-13.789 0-1.349 1.949-3.447 1.949-4.946 0-.599-.15-1.199-.9-2.847l-3.447-8.243 23.23-33.572C151.53 9.318 148.384 7.37 137.892 3.173h6.744c13.039 0 16.787 1.349 16.787 18.884V124.87c0 15.287-.75 20.383-13.49 20.383h-22.031l5.696-21.731z"/><path d="M120.586 70.59c7.645-2.548 7.943-6.145 10.043-6.145.299 0 2.248.599 2.248 2.248 0 .75-1.799.299-1.949 3.447-.15 2.398-.15 3.147-1.799 3.147-2.399.001-5.994-1.497-8.543-2.697z"/><path d="M148.471 19.525c-5.094-5.695-7.492-7.194-15.436-9.143l-.301 6.595c2.998 1.499 4.646 3.297 4.646 6.594 0 3.747-2.998 6.745-6.895 6.745-3.746 0-6.893-2.998-6.893-6.745 0-3.146 1.646-4.946 5.395-7.043V9.184c-2.549-.149-4.047-.149-4.797-.149-22.33 0-32.372 21.731-47.06 21.731-8.542 0-18.884-10.341-26.228-10.341-.599 0-1.648.149-2.397.149l49.458 124.694h22.031l4.346-16.936-25.479-7.044-11.99-30.724c12.14-5.545 18.583-16.786 18.583-33.122 0-2.848-.148-4.046-.748-7.194h22.781l20.984-30.723zM84.559 84.07 71.22 50.199h26.827c.75 4.945.898 7.194.898 8.542 0 14.238-7.342 21.733-14.386 25.329zm-66.073 75.907v5.546c0 6.594 2.548 8.992 9.592 8.992h2.397c1.799 0 2.848.899 2.848 2.698v3.146c0 2.248-1.049 2.398-4.496 2.548H18.486v7.044h12.14c7.644 0 10.042-1.349 10.042-8.842v-5.546c0-5.396-1.349-7.793-7.644-7.793h-3.597c-2.248 0-3.447-1.199-3.447-3.447v-2.398c0-2.548.899-2.848 5.096-2.848h9.592v-6.894H26.13c-4.946.001-7.644 2.099-7.644 7.794zm24.998 1.798v19.184c0 7.045 1.798 8.992 9.892 8.992h9.592v-7.044l-7.044-.008c-4.197 0-5.096-.592-5.096-3.889v-4.347h12.14v-6.894h-12.14v-4.496c0-3.447.6-4.188 4.346-4.188l7.793-.009v-6.894H52.176c-6.894.002-8.692 2.1-8.692 9.593zm38.039 9.892-8.543-19.483h-7.193v37.767h7.343v-19.183l8.393 19.183h7.644v-37.767h-7.644v19.483zm9.412-12.59h6.594v30.874h7.494v-30.874h6.745v-6.893H90.935v6.893zm64.835-6.893-6.745 14.987-5.996-14.987h-7.193l9.441 23.379v14.388h7.494v-14.088l9.743-23.679h-6.744zm-19.907 11.39v-3.297c0-7.045-2.848-8.094-10.939-8.094h-11.242v37.768h7.494v-15.287h4.047c2.697 0 3.148.75 3.148 4.197v11.09h7.492v-11.54c0-4.945-.148-5.545-2.848-7.044 2.7-2.097 2.848-2.398 2.848-7.793zm-7.492 1.498c0 1.799-.75 2.698-2.848 2.698h-4.348v-8.535l3.748-.008c2.098 0 3.447.899 3.447 2.248v3.597h.001zm39.693 4.981c-3.338 0-6.047 2.625-6.047 5.83 0 3.272 2.709 5.897 6.047 5.897 3.322 0 6.014-2.625 6.014-5.897 0-3.205-2.691-5.83-6.014-5.83zm0 10.581c-2.725 0-4.9-2.076-4.9-4.751 0-2.591 2.176-4.684 4.9-4.684 2.691 0 4.867 2.093 4.867 4.684.001 2.675-2.175 4.751-4.867 4.751z"/><path d="M171.156 174.355c0-.549-.248-1.13-.748-1.412-.514-.283-1.078-.316-1.645-.316h-2.939v6.562h.996v-3.022H168l1.928 3.022h1.146l-2.045-3.022c1.198-.034 2.127-.517 2.127-1.812zm-3.238.997h-1.098v-1.977h1.744c.848 0 1.596.116 1.596.964 0 1.179-1.295 1.013-2.242 1.013zm-5.482 9.046h2.128v5.538h.85v-5.538h2.129v-.753h-5.107v.753zm10.718-.753-1.787 5.318h-.018l-1.797-5.318h-1.217v6.291h.822v-3.715c0-.184-.018-.981-.018-1.56h.018l1.77 5.274h.842l1.77-5.283h.018c0 .587-.018 1.385-.018 1.568v3.715h.824v-6.291h-1.209v.001z"/></g></svg>