<svg width="250" height="250" viewBox="0 0 250 250" fill="none" xmlns="http://www.w3.org/2000/svg">
<path d="M173.836 185.114C173.835 187.153 173.03 189.108 171.599 190.55C170.167 191.992 168.227 192.803 166.203 192.804H84.7546C82.7306 192.804 80.7894 191.995 79.3571 190.554C77.9247 189.114 77.1185 187.159 77.1152 185.12V65.009C77.1144 63.998 77.3115 62.9968 77.6951 62.0626C78.0788 61.1284 78.6414 60.2795 79.351 59.5647C80.0605 58.8498 80.903 58.2829 81.8302 57.8963C82.7574 57.5098 83.7512 57.3113 84.7546 57.3121H137.026L173.836 95.1347V185.114Z" fill="#615EFF"/>
<path d="M98.7578 145.42C98.6669 144.504 98.2768 143.792 97.5874 143.284C96.898 142.777 95.9624 142.523 94.7805 142.523C93.9775 142.523 93.2995 142.636 92.7464 142.864C92.1934 143.083 91.7692 143.39 91.4737 143.784C91.1858 144.178 91.0419 144.625 91.0419 145.125C91.0268 145.542 91.1139 145.905 91.3033 146.216C91.5002 146.527 91.7692 146.795 92.1101 147.023C92.451 147.242 92.8449 147.436 93.2919 147.602C93.7389 147.761 94.2161 147.898 94.7237 148.011L96.8146 148.511C97.8298 148.739 98.7616 149.042 99.6101 149.42C100.459 149.799 101.193 150.265 101.815 150.818C102.436 151.371 102.917 152.023 103.258 152.773C103.606 153.523 103.784 154.383 103.792 155.352C103.784 156.777 103.421 158.011 102.701 159.057C101.989 160.095 100.959 160.902 99.6101 161.477C98.2692 162.045 96.6518 162.33 94.7578 162.33C92.879 162.33 91.2427 162.042 89.8487 161.466C88.4624 160.89 87.379 160.038 86.5987 158.909C85.826 157.773 85.4207 156.367 85.3828 154.693H90.1442C90.1972 155.473 90.4207 156.125 90.8146 156.648C91.2161 157.163 91.7502 157.553 92.4169 157.818C93.0911 158.076 93.8525 158.205 94.701 158.205C95.5343 158.205 96.2578 158.083 96.8714 157.841C97.4927 157.598 97.9737 157.261 98.3146 156.83C98.6555 156.398 98.826 155.902 98.826 155.341C98.826 154.818 98.6707 154.379 98.3601 154.023C98.0571 153.667 97.6101 153.364 97.0192 153.114C96.4358 152.864 95.7199 152.636 94.8714 152.432L92.3374 151.795C90.3752 151.318 88.826 150.572 87.6896 149.557C86.5533 148.542 85.9889 147.174 85.9964 145.455C85.9889 144.045 86.3639 142.814 87.1214 141.761C87.8866 140.708 88.9358 139.886 90.2692 139.295C91.6025 138.705 93.1177 138.409 94.8146 138.409C96.5419 138.409 98.0495 138.705 99.3374 139.295C100.633 139.886 101.64 140.708 102.36 141.761C103.08 142.814 103.451 144.034 103.474 145.42H98.7578Z" fill="white"/>
<path d="M107.102 162V138.727H122.511V142.784H112.022V148.33H121.488V152.386H112.022V162H107.102Z" fill="white"/>
<path d="M124.934 142.784V138.727H144.048V142.784H136.923V162H132.059V142.784H124.934Z" fill="white"/>
<path d="M147.195 162V138.727H156.377C158.142 138.727 159.646 139.064 160.888 139.739C162.131 140.405 163.078 141.333 163.729 142.523C164.388 143.705 164.718 145.068 164.718 146.614C164.718 148.159 164.385 149.523 163.718 150.705C163.051 151.886 162.085 152.807 160.82 153.466C159.563 154.125 158.04 154.455 156.252 154.455H150.4V150.511H155.457C156.404 150.511 157.184 150.348 157.798 150.023C158.419 149.689 158.881 149.231 159.184 148.648C159.495 148.057 159.65 147.379 159.65 146.614C159.65 145.841 159.495 145.167 159.184 144.591C158.881 144.008 158.419 143.557 157.798 143.239C157.176 142.913 156.388 142.75 155.434 142.75H152.116V162H147.195Z" fill="white"/>
<path opacity="0.3" d="M141.076 94.148L173.835 125.696V94.914H144.817C143.55 94.9285 142.301 94.6118 141.192 93.9948L141.076 94.148Z" fill="#1A194D"/>
<path d="M173.837 95.0734H144.739C142.715 95.0717 140.774 94.2609 139.343 92.819C137.912 91.377 137.107 89.4218 137.105 87.3826V57.1037L173.837 95.0734Z" fill="#C5C4FF"/>
</svg>
