<svg xmlns="http://www.w3.org/2000/svg" data-name="Layer 1" viewBox="0 0 122.88 103.95"><path d="m21.56 47.27 6.21-.39a4.56 4.56 0 0 0 .82 2.29 3.45 3.45 0 0 0 2.88 1.28 3.16 3.16 0 0 0 2.15-.65 2 2 0 0 0 .76-1.52 2 2 0 0 0-.71-1.48 8.45 8.45 0 0 0-3.34-1.22A14.06 14.06 0 0 1 24.21 43a5.14 5.14 0 0 1-1.85-4.07 5.44 5.44 0 0 1 .95-3.07 6.19 6.19 0 0 1 2.84-2.28 13.26 13.26 0 0 1 5.19-.83 10.58 10.58 0 0 1 6.18 1.51 6.53 6.53 0 0 1 2.53 4.8l-6.14.37a3.38 3.38 0 0 0-1-2.1 3.34 3.34 0 0 0-2.17-.65 2.63 2.63 0 0 0-1.72.48 1.49 1.49 0 0 0-.58 1.18 1.19 1.19 0 0 0 .47.9 5.23 5.23 0 0 0 2.18.78 27.38 27.38 0 0 1 6.13 1.87 6.38 6.38 0 0 1 2.7 2.35 5.94 5.94 0 0 1 .84 3.13 6.73 6.73 0 0 1-1.12 3.75 7.1 7.1 0 0 1-3.15 2.6 12.64 12.64 0 0 1-5.08.89c-3.6 0-6.09-.7-7.47-2.08a8.18 8.18 0 0 1-2.35-5.27ZM9.07 15.63h3.09V8.2A1.87 1.87 0 0 1 14 6.33h3.32V1.87A1.88 1.88 0 0 1 19.23 0h30.34a1.87 1.87 0 0 1 1.87 1.87v4.46h59.5a1.87 1.87 0 0 1 1.87 1.87v7.43h3.41a1.87 1.87 0 0 1 1.87 1.87 1.75 1.75 0 0 1 0 .4L111.51 66a7.12 7.12 0 0 1-2 4.07 5.62 5.62 0 0 1-4 1.69H69.25v5.57h.17A2.67 2.67 0 0 1 72.08 80v4.81h13a2.67 2.67 0 0 1 2.54 1.87h27.84a7 7 0 0 1 6.85 4.48 8.05 8.05 0 0 1 .57 3 8.14 8.14 0 0 1-.57 3 7 7 0 0 1-6.85 4.47H87.73a2.67 2.67 0 0 1-2.65 2.37H39.92a2.67 2.67 0 0 1-2.65-2.37H7.42a7 7 0 0 1-6.85-4.52 8.14 8.14 0 0 1-.57-3 8.05 8.05 0 0 1 .57-3 7 7 0 0 1 6.85-4.48h30a2.67 2.67 0 0 1 2.54-1.87h10.72V80a2.67 2.67 0 0 1 2.66-2.66h1v-5.59H18A5.69 5.69 0 0 1 13.89 70 6.84 6.84 0 0 1 12 65.92L6.92 17.69a1.83 1.83 0 0 1 .37-1.33 1.86 1.86 0 0 1 1.29-.71 4 4 0 0 1 .49 0Zm48.79 61.69h7.86v-5.5h-7.86v5.5Zm29.88 12.87v7.86h27.72A3.63 3.63 0 0 0 119 95.8a4.68 4.68 0 0 0 .31-1.68 4.63 4.63 0 0 0-.31-1.67 3.63 3.63 0 0 0-3.58-2.26Zm-50.48 7.86v-7.86H7.42a3.63 3.63 0 0 0-3.58 2.26 4.63 4.63 0 0 0-.31 1.67 4.73 4.73 0 0 0 .31 1.68 3.63 3.63 0 0 0 3.58 2.25ZM10.85 19.37l4.84 46.17a3.14 3.14 0 0 0 .83 1.86A2.07 2.07 0 0 0 18 68h87.54a2 2 0 0 0 1.41-.6 3.28 3.28 0 0 0 .88-1.92l6.28-46.12Zm5.05-9.3v5.55l93.17-.79v-4.76h-59.5a1.87 1.87 0 0 1-1.88-1.87V3.74H21.1V8.2a1.87 1.87 0 0 1-1.87 1.87Zm28.3 23h16.15v4.54h-9.59v3.7H59v4.28h-8.24v8.62H44.2V33.12Zm18.35 0h19.87v5.22h-6.67v15.97h-6.53V38.34h-6.67v-5.22Zm22.93 0h10.87a7.48 7.48 0 0 1 5.32 1.68 6.36 6.36 0 0 1 1.77 4.82 6.55 6.55 0 0 1-1.93 5q-1.94 1.82-5.89 1.81H92v7.82h-6.52V33.12Zm6.56 9h1.61a4.14 4.14 0 0 0 2.67-.66 2.13 2.13 0 0 0 .77-1.68 2.37 2.37 0 0 0-.67-1.69 3.49 3.49 0 0 0-2.51-.69H92v4.72Z"/></svg>