<?xml version="1.0" encoding="UTF-8"?>
<svg xmlns="http://www.w3.org/2000/svg" xmlns:xlink="http://www.w3.org/1999/xlink" width="652.48pt" height="138.71pt" viewBox="0 0 652.48 138.71" version="1.1">
<defs>
<clipPath id="clip1">
  <path d="M 550 0 L 652.480469 0 L 652.480469 138.710938 L 550 138.710938 Z M 550 0 "/>
</clipPath>
<clipPath id="clip2">
  <path d="M 0 1 L 105 1 L 105 138.710938 L 0 138.710938 Z M 0 1 "/>
</clipPath>
</defs>
<g id="surface1">
<g clip-path="url(#clip1)" clip-rule="nonzero">
<path style=" stroke:none;fill-rule:nonzero;fill:rgb(0%,0%,0%);fill-opacity:1;" d="M 550.878906 -0.00390625 C 551.238281 0.355469 551.605469 0.71875 551.964844 1.078125 C 576.101563 23.414063 600.238281 45.753906 624.386719 68.09375 C 624.386719 46.832031 624.386719 25.214844 624.386719 3.960938 C 633.75 3.960938 643.117188 3.960938 652.484375 3.960938 C 652.484375 48.996094 652.484375 93.671875 652.484375 138.710938 C 627.984375 116.011719 603.488281 92.949219 578.625 70.253906 C 578.625 91.515625 578.625 112.769531 578.625 134.027344 C 569.253906 134.027344 560.246094 134.027344 550.878906 134.027344 C 550.878906 89.707031 550.878906 44.671875 550.878906 -0.00390625 "/>
</g>
<g clip-path="url(#clip2)" clip-rule="nonzero">
<path style=" stroke:none;fill-rule:nonzero;fill:rgb(0%,0%,0%);fill-opacity:1;" d="M 9.726563 20.894531 C 17.292969 9.722656 30.625 3.601563 43.59375 2.160156 C 63.410156 0.355469 85.027344 3.601563 100.519531 17.289063 C 94.035156 23.414063 87.191406 29.179688 80.703125 35.304688 C 73.5 28.820313 63.773438 25.578125 54.042969 25.578125 C 46.835938 25.214844 39.269531 27.738281 35.308594 33.863281 C 32.425781 38.1875 33.507813 44.671875 37.46875 47.914063 C 43.953125 53.320313 52.238281 55.839844 60.167969 58.722656 C 71.695313 62.328125 83.226563 66.289063 92.59375 74.214844 C 105.5625 84.667969 108.445313 105.921875 98.359375 119.253906 C 89.710938 130.785156 75.660156 136.910156 61.609375 137.984375 C 48.996094 138.34375 36.386719 137.984375 24.496094 133.667969 C 15.492188 130.785156 7.566406 125.738281 0 120.328125 C 6.484375 114.207031 13.328125 108.082031 19.816406 101.957031 C 30.984375 110.605469 45.394531 115.289063 59.449219 113.488281 C 65.570313 112.410156 72.058594 109.164063 74.21875 103.039063 C 75.660156 97.636719 72.417969 92.230469 67.734375 89.707031 C 53.324219 81.417969 36.386719 79.625 22.335938 70.613281 C 14.769531 65.929688 8.285156 58.722656 5.761719 50.078125 C 2.882813 39.988281 3.960938 29.179688 9.726563 20.894531 "/>
</g>
<path style=" stroke:none;fill-rule:nonzero;fill:rgb(0%,0%,0%);fill-opacity:1;" d="M 152.402344 4.320313 C 161.769531 4.320313 171.136719 4.320313 180.503906 4.320313 C 180.503906 21.613281 180.503906 38.546875 180.503906 55.839844 C 199.601563 55.839844 218.335938 55.839844 237.429688 55.839844 C 237.429688 38.546875 237.429688 21.613281 237.429688 4.320313 C 246.800781 4.320313 256.523438 4.320313 265.894531 4.320313 C 265.894531 47.914063 265.894531 91.148438 265.894531 134.742188 C 256.523438 134.742188 246.800781 134.742188 237.429688 134.742188 C 237.429688 115.652344 237.429688 96.191406 237.429688 77.101563 C 218.335938 77.101563 199.601563 77.101563 180.503906 77.101563 C 180.503906 96.191406 180.503906 115.652344 180.503906 134.742188 C 171.136719 134.742188 161.769531 134.742188 152.402344 134.742188 C 152.402344 91.515625 152.402344 47.914063 152.402344 4.320313 "/>
<path style=" stroke:none;fill-rule:nonzero;fill:rgb(0%,0%,0%);fill-opacity:1;" d="M 321.015625 4.320313 C 353.082031 4.320313 384.789063 4.320313 416.855469 4.320313 C 416.855469 11.164063 416.855469 18.371094 416.855469 25.214844 C 394.15625 25.214844 371.457031 25.214844 348.761719 25.214844 C 348.761719 35.664063 348.761719 45.753906 348.761719 56.203125 C 371.09375 56.203125 393.4375 56.203125 415.773438 56.203125 C 415.773438 63.046875 415.773438 69.890625 415.773438 76.738281 C 393.4375 76.738281 371.09375 76.738281 348.761719 76.738281 C 348.761719 88.628906 348.761719 100.519531 348.761719 112.410156 C 371.457031 112.410156 394.15625 112.410156 416.855469 112.410156 C 416.855469 119.972656 416.855469 127.179688 416.855469 134.742188 C 384.789063 134.742188 353.082031 134.742188 321.015625 134.742188 C 321.015625 91.515625 321.015625 47.914063 321.015625 4.320313 "/>
<path style=" stroke:none;fill-rule:nonzero;fill:rgb(0%,0%,0%);fill-opacity:1;" d="M 466.933594 4.320313 C 476.300781 4.320313 485.671875 4.320313 495.039063 4.320313 C 495.039063 47.914063 495.039063 91.148438 495.039063 134.742188 C 485.671875 134.742188 476.300781 134.742188 466.933594 134.742188 C 466.933594 91.515625 466.933594 47.914063 466.933594 4.320313 "/>
</g>
</svg>
