<svg id="Layer_1" data-name="Layer 1" xmlns="http://www.w3.org/2000/svg" viewBox="0 0 510.65 85.3"><defs><style>.cls-1{fill:#1e2c32;}.cls-2{fill:#77c64e;}</style></defs><path class="cls-1" d="M47.74,66.75,61.69,0H76.06L70.54,26.22l.21.1A20.13,20.13,0,0,1,86,19.41c7.51,0,11.77,4.45,11.77,11.83a44.11,44.11,0,0,1-1,8.52l-5.62,27H76.69L82.1,40.61a27,27,0,0,0,.63-5.77C82.73,32,81.48,30,78.25,30c-4.58,0-9.47,5.3-11.35,13.92L62.11,66.75Z"/><path class="cls-1" d="M145.64,56a9.43,9.43,0,0,0,5.94,1.89c8,0,13.53-12,13.53-20.45,0-3.5-1.35-7.19-5.73-7.19-5,0-9.68,5.39-11.35,13.54ZM125.12,85.3l10-47.81c1.15-5.39,2.29-12.59,2.92-17.32h12.7l-.83,7h.21a19.51,19.51,0,0,1,15.2-7.76c10.52,0,14.78,7.86,14.78,16.66,0,15.9-11,31.62-27.9,31.62A18.76,18.76,0,0,1,143.77,66h-.32L139.5,85.3Z"/><path class="cls-1" d="M256.87,8.05l-2.61,12.4h10.52L262.7,30.2H252.18l-3.75,17.33a26.17,26.17,0,0,0-.73,5.3c0,2.46,1.25,3.88,4.27,3.88a26.82,26.82,0,0,0,3.85-.19l-1.66,10.13a32.35,32.35,0,0,1-8.54.95c-8.54,0-12.7-4.08-12.7-10a36.27,36.27,0,0,1,1-8.14L238,30.2h-6.36l2.09-9.75h6.35l1.77-8.52Z"/><path class="cls-1" d="M297.6,30.39A15.51,15.51,0,0,0,294,30c-10.72,0-15.58,10.26-15.58,19.59,0,4.46,1.57,7.49,5.42,7.49,4.27,0,9.16-4.83,11.35-15.34Zm-4.32,36.36c.1-2.66.41-5.59.62-8.72h-.31c-4.48,7.2-10.52,9.66-15.83,9.66-8.64,0-14.16-6.25-14.16-15.43,0-17.52,8.28-32.19,34.31-32.19a61.17,61.17,0,0,1,15.73,2.18l-5.26,24a107.56,107.56,0,0,0-2.09,20.46Z"/><path class="cls-1" d="M343.86,8.05l-2.61,12.4h10.52l-2.08,9.75H339.17l-3.75,17.33a26.82,26.82,0,0,0-.72,5.3c0,2.46,1.24,3.88,4.27,3.88a26.89,26.89,0,0,0,3.85-.19l-1.67,10.13a32.35,32.35,0,0,1-8.54.95c-8.53,0-12.7-4.08-12.7-10a36.27,36.27,0,0,1,1-8.14L325,30.2h-6.35l2.08-9.75h6.35l1.77-8.52Z"/><path class="cls-1" d="M439,66.75l6.56-31.25c1.25-5.68,2-10.79,2.71-15h12.6l-.83,7.1h.21a20.62,20.62,0,0,1,16.55-8.14c8,0,12.19,4.63,12.19,11.93a46.14,46.14,0,0,1-.94,8.13l-5.72,27.28H467.91l5.52-26.61A27.75,27.75,0,0,0,474,35c0-2.93-1.14-5-4.48-5-4.36,0-9.58,5.11-11.55,15l-4.48,21.78Z"/><path class="cls-1" d="M117.19,14.5h.21c4.43,0,8.24-2.72,8.34-7.49,0-3.75-2.78-6.46-7.11-6.46-4.53,0-8.14,3.27-8.14,7.49,0,3.84,2.68,6.46,6.7,6.46"/><path class="cls-1" d="M122.52,20.12h-14l-6.2,29.49a35.57,35.57,0,0,0-1,8.06c0,5.9,4.12,9.93,12.57,9.93a32.14,32.14,0,0,0,8.45-.94l1.65-10a27.79,27.79,0,0,1-3.81.18c-3,0-4.23-1.4-4.23-3.84a26.28,26.28,0,0,1,.72-5.24Z"/><path class="cls-1" d="M368.6,14.5h.21c4.42,0,8.24-2.72,8.34-7.49,0-3.75-2.78-6.46-7.11-6.46-4.53,0-8.14,3.27-8.14,7.49,0,3.84,2.68,6.46,6.7,6.46"/><path class="cls-1" d="M373.12,20.12h-14l-6.26,29.52a36.14,36.14,0,0,0-1,8.06c0,5.9,4.12,9.93,12.57,9.93a32.19,32.19,0,0,0,8.45-.94l1.64-10a26.21,26.21,0,0,1-3.81.19c-3,0-4.22-1.41-4.22-3.85a25.57,25.57,0,0,1,.72-5.24Z"/><path class="cls-1" d="M31.56,30.47C25.73,27,22.3,24,22.3,20.54c0-3.88,3.75-7.09,10.31-7.09,4.77-.1,9.65,2,13.15,3.85L48.49,6l.06-.27a31.29,31.29,0,0,0-15-3.62C17,2.08,7.4,9.62,7.4,22.63c0,7.47,5.84,13.14,12.6,17.12,5.84,3.31,8.75,5,8.75,8.81,0,5-5,7.77-10.83,7.67-5.57,0-11.39-3.12-15-5.11L0,63A34.33,34.33,0,0,0,16.88,67.6c15.75,0,27-5.92,27-21.3,0-6.92-4.58-11.57-12.29-15.83"/><path class="cls-1" d="M212.33,30.47c-5.83-3.5-9.27-6.43-9.27-9.93,0-3.88,3.75-7.09,10.31-7.09,4.77-.1,9.65,2,13.15,3.85L229.26,6l.05-.27a31.24,31.24,0,0,0-15-3.62c-16.53,0-26.14,7.54-26.14,20.55,0,7.47,5.83,13.14,12.6,17.12,5.83,3.31,8.74,5,8.74,8.81,0,5-5,7.77-10.82,7.67-5.58,0-11.4-3.12-15.05-5.11L180.76,63a34.33,34.33,0,0,0,16.88,4.56c15.76,0,27-5.92,27-21.3,0-6.92-4.58-11.57-12.28-15.83"/><path class="cls-1" d="M500.45,16.53h2.62a1.65,1.65,0,0,0,1.18-.52,1.63,1.63,0,0,0,.54-1.22,1.81,1.81,0,0,0-1.72-1.8h-2.62Zm-1.26,4.89V11.91h3.88a3,3,0,0,1,2.12.8,2.7,2.7,0,0,1,.88,2.08,2.78,2.78,0,0,1-2.43,2.83l2.56,3.8h-1.57l-2.46-3.76h-1.72v3.76Zm-4-4.78a7.2,7.2,0,0,0,7.2,7.21,6.88,6.88,0,0,0,5.06-2.12,7,7,0,0,0,2.1-5.09,7.18,7.18,0,1,0-14.36,0m-1.09,0a8.26,8.26,0,0,1,8.29-8.29,8.24,8.24,0,0,1,4.18,1.1,8,8,0,0,1,3,3,8.26,8.26,0,0,1,1.1,4.18,8.29,8.29,0,1,1-16.58,0"/><path class="cls-2" d="M437.07,46.9V37.81l-7.93-1.2a22.41,22.41,0,0,0-2.35-5.68l4.76-6.46-6.43-6.42-6.45,4.76A22.88,22.88,0,0,0,413,20.45l-1.19-7.93H402.7l-1.2,7.93a23.2,23.2,0,0,0-5.69,2.36l-6.45-4.76-6.42,6.42,4.76,6.46a22.66,22.66,0,0,0-2.36,5.68l-7.93,1.2V46.9l7.93,1.19a22.21,22.21,0,0,0,2.36,5.69l-4.76,6.46,6.42,6.42,6.45-4.76a23.2,23.2,0,0,0,5.69,2.36l1.2,7.93h9.09L413,64.26a22.45,22.45,0,0,0,5.69-2.36l6.45,4.76,6.43-6.42-4.76-6.46a22.48,22.48,0,0,0,2.35-5.69Zm-29.83,5.43a10,10,0,1,1,10-10A10,10,0,0,1,407.24,52.33Z"/></svg>