<svg width="250" height="250" viewBox="0 0 250 250" fill="none" xmlns="http://www.w3.org/2000/svg">
<path d="M169.889 83.7064C169.795 83.0264 169.196 82.6501 168.7 82.6086C168.206 82.5677 157.74 81.7968 157.74 81.7968C157.74 81.7968 150.472 74.6266 149.675 73.8329C148.876 73.0397 147.317 73.281 146.712 73.458C146.623 73.4841 145.124 73.9438 142.645 74.7062C140.217 67.7637 135.932 61.3838 128.394 61.3838C128.186 61.3838 127.972 61.3922 127.757 61.4043C125.614 58.5869 122.958 57.3629 120.664 57.3629C103.104 57.3629 94.7148 79.1765 92.0845 90.2614C85.2611 92.3624 80.4138 93.8561 79.7946 94.0494C75.9859 95.2366 75.8655 95.3558 75.3654 98.9221C74.989 101.622 65.0234 178.205 65.0234 178.205L142.677 192.663L184.753 183.618C184.753 183.618 169.982 84.3864 169.89 83.7064H169.889ZM138.353 76.0252L131.782 78.0461C131.785 77.586 131.787 77.1332 131.787 76.6381C131.787 72.3234 131.184 68.8494 130.217 66.0954C134.101 66.5797 136.688 70.9713 138.353 76.0252ZM125.399 66.9509C126.479 69.6397 127.181 73.4985 127.181 78.7056C127.181 78.972 127.179 79.2156 127.176 79.462C122.903 80.7773 118.26 82.2053 113.606 83.638C116.219 73.6168 121.117 68.7767 125.399 66.9509ZM120.182 62.0433C120.94 62.0433 121.703 62.299 122.434 62.7988C116.806 65.4303 110.774 72.0579 108.227 85.2932L97.4999 88.5945C100.484 78.4993 107.569 62.0433 120.181 62.0433H120.182Z" fill="#95BF46"/>
<path d="M168.699 82.6086C168.204 82.5676 157.739 81.7968 157.739 81.7968C157.739 81.7968 150.471 74.6265 149.673 73.8328C149.375 73.5376 148.972 73.3862 148.551 73.321L142.68 192.662L184.751 183.618C184.751 183.618 169.981 84.3864 169.888 83.7064C169.794 83.0264 169.194 82.65 168.699 82.6086Z" fill="#5E8E3E"/>
<path d="M128.396 105.711L123.208 121.046C123.208 121.046 118.662 118.635 113.09 118.635C104.922 118.635 104.511 123.729 104.511 125.013C104.511 132.017 122.884 134.7 122.884 151.106C122.884 164.014 114.646 172.325 103.537 172.325C90.2074 172.325 83.3906 164.081 83.3906 164.081L86.9598 152.363C86.9598 152.363 93.9669 158.341 99.8796 158.341C103.743 158.341 105.315 155.318 105.315 153.109C105.315 143.973 90.2412 143.566 90.2412 128.553C90.2412 115.918 99.3678 103.69 117.791 103.69C124.889 103.69 128.396 105.711 128.396 105.711Z" fill="white"/>
</svg>
