<svg xmlns="http://www.w3.org/2000/svg" width="250" height="250" fill="none"><g clip-path="url(#a)"><path fill="#95BF46" d="M199.068 56.987c-.156-1.12-1.145-1.74-1.962-1.808-.816-.068-18.084-1.337-18.084-1.337s-11.992-11.81-13.309-13.117c-1.317-1.307-3.889-.91-4.887-.618-.147.043-2.62.8-6.712 2.056-4.006-11.435-11.076-21.943-23.514-21.943-.343 0-.696.014-1.05.034-3.537-4.64-7.919-6.656-11.704-6.656-28.974 0-42.816 35.928-47.156 54.186-11.259 3.46-19.257 5.92-20.279 6.238-6.284 1.956-6.483 2.152-7.308 8.026-.62 4.447-17.064 130.584-17.064 130.584l128.129 23.814 69.424-14.898S199.221 58.107 199.068 56.987Zm-52.035-12.651-10.842 3.328c.004-.758.008-1.503.008-2.319 0-7.106-.995-12.828-2.59-17.364 6.409.797 10.677 8.03 13.424 16.355ZM125.659 29.39c1.782 4.428 2.94 10.784 2.94 19.36 0 .44-.004.84-.008 1.246-7.05 2.167-14.712 4.519-22.391 6.878 4.312-16.505 12.393-24.477 19.459-27.484Zm-8.609-8.083c1.251 0 2.511.42 3.716 1.244-9.285 4.334-19.238 15.25-23.442 37.05l-17.699 5.437c4.923-16.627 16.614-43.731 37.425-43.731Z"/><path fill="#5E8E3E" d="M197.107 55.179c-.816-.068-18.083-1.337-18.083-1.337s-11.993-11.81-13.309-13.117c-.493-.487-1.157-.736-1.851-.843l-9.688 196.562 69.418-14.896S199.222 58.107 199.069 56.987c-.155-1.12-1.144-1.74-1.962-1.808"/><path fill="#fff" d="m130.602 93.23-8.56 25.258s-7.5-3.971-16.694-3.971c-13.478 0-14.156 8.39-14.156 10.504 0 11.536 30.316 15.956 30.316 42.977 0 21.26-13.594 34.949-31.922 34.949-21.995 0-33.242-13.578-33.242-13.578l5.889-19.301s11.562 9.846 21.318 9.846c6.374 0 8.967-4.979 8.967-8.616 0-15.048-24.87-15.719-24.87-40.446 0-20.811 15.058-40.95 45.456-40.95 11.712 0 17.498 3.327 17.498 3.327"/></g><defs><clipPath id="a"><path fill="#fff" d="M26 13h198v224H26z"/></clipPath></defs></svg>