<svg xmlns="http://www.w3.org/2000/svg" width="400" height="400"><g fill-rule="evenodd"><path fill="#fbfbfb" d="M174.414 1.35c-60.275 13.298-93.873 55.055-90.478 112.452 2.299 38.88 18.586 66.682 52.315 89.302 13.287 8.911 27.533 16.078 58.476 29.416 35.274 15.205 46.272 21.332 56.25 31.337 8.935 8.959 12.026 16.26 12.079 28.526.159 37.212-31.873 55.194-77.509 43.51-21.672-5.548-45.849-17.437-66.638-32.768-3.35-2.471-6.207-4.418-6.348-4.327-.534.344-33.623 60.312-33.441 60.607.385.622 10.719 7.401 17.364 11.391 21.81 13.093 40.343 21.001 62.044 26.475 11.334 2.86 9.139 2.729 45.861 2.729h33.101l5.749-1.214c59.493-12.564 90.564-51.153 90.547-112.458-.011-39.238-14.674-66.964-47.959-90.689-12.535-8.934-28.987-17.747-57.897-31.015-37.967-17.423-52.789-27.351-61.17-40.97-10.366-16.844-6.642-40.066 8.338-52.001 25.03-19.942 73.305-8.534 118.84 28.084 1.499 1.206 2.837 2.066 2.973 1.911.392-.446 31.605-60.546 31.605-60.855 0-.355-.205-.509-7.422-5.594-24.051-16.943-46.463-27.588-70.435-33.454L243.555.007l-31.641.025-31.641.025-5.859 1.293"/><path fill="#343c3c" d="M250.195 1.357c24.939 5.958 56.785 21.793 78.653 39.108.075.059-6.802 13.435-15.282 29.724a27006.707 27006.707 0 0 0-16.063 30.882l-.645 1.266-4.581-3.641c-61.725-49.064-126.994-48.511-131.142 1.11-2.068 24.735 13.83 40.253 65.623 64.057 34.997 16.084 52.434 25.861 66.992 37.561 32.167 25.852 44.965 60.109 39.235 105.021-6.294 49.331-37.461 81.517-89.626 92.555l-4.492.95 80.567.025L400 400V0l-77.637.025-77.636.025 5.468 1.307"/><path fill="#34d4ac" d="M0 200v200l85.254-.035 85.254-.036-4.297-.885c-19.259-3.97-38.772-11.163-57.227-21.096-9.812-5.281-29.05-17.226-29.864-18.543-.216-.349 33.239-60.801 33.603-60.72.13.028 2.945 2.05 6.256 4.492 70.878 52.27 144.323 46.768 144.077-10.794-.053-12.266-3.144-19.567-12.079-28.526-9.978-10.005-20.976-16.132-56.25-31.337-30.943-13.338-45.189-20.505-58.476-29.416-33.729-22.62-50.016-50.422-52.315-89.302-3.395-57.397 30.203-99.154 90.478-112.452l5.859-1.293L90.137.029 0 0v200"/><path fill="#9c9ca0" d="M171.875 74.414c-.949.967-1.637 1.758-1.53 1.758.108 0 .972-.791 1.921-1.758.948-.967 1.637-1.758 1.529-1.758-.107 0-.971.791-1.92 1.758"/><path fill="#8a8e92" d="M174.219 133.008c1.167 1.181 2.209 2.148 2.317 2.148.107 0-.76-.967-1.927-2.148-1.167-1.182-2.209-2.149-2.317-2.149-.107 0 .76.967 1.927 2.149m126.953 74.912c0 .059 1.362 1.421 3.027 3.027l3.028 2.92-2.92-3.027c-2.712-2.812-3.135-3.206-3.135-2.92m32.933 75.088c.003 1.289.076 1.769.162 1.067.087-.702.086-1.757-.004-2.344-.089-.587-.16-.012-.158 1.277m.011 6.445c0 1.611.069 2.271.153 1.465.084-.806.084-2.124 0-2.93-.084-.805-.153-.146-.153 1.465"/></g></svg>