<svg id="svg" version="1.1" xmlns="http://www.w3.org/2000/svg" xmlns:xlink="http://www.w3.org/1999/xlink" width="400" height="400" viewBox="0, 0, 400,400"><g id="svgg"><path id="path0" d="M174.414 1.350 C 114.139 14.648,80.541 56.405,83.936 113.802 C 86.235 152.682,102.522 180.484,136.251 203.104 C 149.538 212.015,163.784 219.182,194.727 232.520 C 230.001 247.725,240.999 253.852,250.977 263.857 C 259.912 272.816,263.003 280.117,263.056 292.383 C 263.215 329.595,231.183 347.577,185.547 335.893 C 163.875 330.345,139.698 318.456,118.909 303.125 C 115.559 300.654,112.702 298.707,112.561 298.798 C 112.027 299.142,78.938 359.110,79.120 359.405 C 79.505 360.027,89.839 366.806,96.484 370.796 C 118.294 383.889,136.827 391.797,158.528 397.271 C 169.862 400.131,167.667 400.000,204.389 400.000 L 237.490 400.000 243.239 398.786 C 302.732 386.222,333.803 347.633,333.786 286.328 C 333.775 247.090,319.112 219.364,285.827 195.639 C 273.292 186.705,256.840 177.892,227.930 164.624 C 189.963 147.201,175.141 137.273,166.760 123.654 C 156.394 106.810,160.118 83.588,175.098 71.653 C 200.128 51.711,248.403 63.119,293.938 99.737 C 295.437 100.943,296.775 101.803,296.911 101.648 C 297.303 101.202,328.516 41.102,328.516 40.793 C 328.516 40.438,328.311 40.284,321.094 35.199 C 297.043 18.256,274.631 7.611,250.659 1.745 L 243.555 0.007 211.914 0.032 L 180.273 0.057 174.414 1.350 " stroke="none" fill="#fbfbfb" fill-rule="evenodd"></path><path id="path1" d="M250.195 1.357 C 275.134 7.315,306.980 23.150,328.848 40.465 C 328.923 40.524,322.046 53.900,313.566 70.189 C 305.086 86.478,297.858 100.375,297.503 101.071 L 296.858 102.337 292.277 98.696 C 230.552 49.632,165.283 50.185,161.135 99.806 C 159.067 124.541,174.965 140.059,226.758 163.863 C 261.755 179.947,279.192 189.724,293.750 201.424 C 325.917 227.276,338.715 261.533,332.985 306.445 C 326.691 355.776,295.524 387.962,243.359 399.000 L 238.867 399.950 319.434 399.975 L 400.000 400.000 400.000 200.000 L 400.000 0.000 322.363 0.025 L 244.727 0.050 250.195 1.357 " stroke="none" fill="#343c3c" fill-rule="evenodd"></path><path id="path2" d="M0.000 200.000 L 0.000 400.000 85.254 399.965 L 170.508 399.929 166.211 399.044 C 146.952 395.074,127.439 387.881,108.984 377.948 C 99.172 372.667,79.934 360.722,79.120 359.405 C 78.904 359.056,112.359 298.604,112.723 298.685 C 112.853 298.713,115.668 300.735,118.979 303.177 C 189.857 355.447,263.302 349.945,263.056 292.383 C 263.003 280.117,259.912 272.816,250.977 263.857 C 240.999 253.852,230.001 247.725,194.727 232.520 C 163.784 219.182,149.538 212.015,136.251 203.104 C 102.522 180.484,86.235 152.682,83.936 113.802 C 80.541 56.405,114.139 14.648,174.414 1.350 L 180.273 0.057 90.137 0.029 L 0.000 0.000 0.000 200.000 " stroke="none" fill="#34d4ac" fill-rule="evenodd"></path><path id="path3" d="M171.875 74.414 C 170.926 75.381,170.238 76.172,170.345 76.172 C 170.453 76.172,171.317 75.381,172.266 74.414 C 173.214 73.447,173.903 72.656,173.795 72.656 C 173.688 72.656,172.824 73.447,171.875 74.414 " stroke="none" fill="#9c9ca0" fill-rule="evenodd"></path><path id="path4" d="M174.219 133.008 C 175.386 134.189,176.428 135.156,176.536 135.156 C 176.643 135.156,175.776 134.189,174.609 133.008 C 173.442 131.826,172.400 130.859,172.292 130.859 C 172.185 130.859,173.052 131.826,174.219 133.008 M301.172 207.920 C 301.172 207.979,302.534 209.341,304.199 210.947 L 307.227 213.867 304.307 210.840 C 301.595 208.028,301.172 207.634,301.172 207.920 M334.105 283.008 C 334.108 284.297,334.181 284.777,334.267 284.075 C 334.354 283.373,334.353 282.318,334.263 281.731 C 334.174 281.144,334.103 281.719,334.105 283.008 M334.116 289.453 C 334.116 291.064,334.185 291.724,334.269 290.918 C 334.353 290.112,334.353 288.794,334.269 287.988 C 334.185 287.183,334.116 287.842,334.116 289.453 " stroke="none" fill="#8a8e92" fill-rule="evenodd"></path></g></svg>