<svg width="250" height="250" viewBox="0 0 250 250" fill="none" xmlns="http://www.w3.org/2000/svg">
<path fill-rule="evenodd" clip-rule="evenodd" d="M107.926 60.9848C100.849 60.9901 95.1209 66.7221 95.1261 73.7853C95.1209 80.8485 100.854 86.5804 107.931 86.5857H120.736V73.7905C120.742 66.7273 115.009 60.9953 107.926 60.9848C107.931 60.9848 107.931 60.9848 107.926 60.9848V60.9848ZM107.926 95.1262H73.7895C66.7122 95.1315 60.9792 100.863 60.9844 107.927C60.9739 114.99 66.7069 120.722 73.7843 120.732H107.926C115.003 120.727 120.736 114.995 120.731 107.932C120.736 100.863 115.003 95.1315 107.926 95.1262Z" fill="#36C5F0"/>
<path fill-rule="evenodd" clip-rule="evenodd" d="M189.016 107.927C189.022 100.863 183.289 95.1315 176.211 95.1262C169.134 95.1315 163.401 100.863 163.406 107.927V120.732H176.211C183.289 120.727 189.022 114.995 189.016 107.927ZM154.875 107.927V73.7853C154.88 66.7273 149.152 60.9953 142.075 60.9848C134.997 60.9901 129.264 66.7221 129.27 73.7853V107.927C129.259 114.99 134.992 120.722 142.069 120.732C149.147 120.727 154.88 114.995 154.875 107.927Z" fill="#2EB67D"/>
<path fill-rule="evenodd" clip-rule="evenodd" d="M142.067 189.015C149.144 189.01 154.877 183.278 154.872 176.214C154.877 169.151 149.144 163.419 142.067 163.414H129.262V176.214C129.256 183.272 134.989 189.004 142.067 189.015ZM142.067 154.868H176.209C183.286 154.863 189.019 149.131 189.014 142.068C189.024 135.005 183.291 129.273 176.214 129.262H142.072C134.995 129.267 129.262 134.999 129.267 142.062C129.262 149.131 134.989 154.863 142.067 154.868Z" fill="#ECB22E"/>
<path fill-rule="evenodd" clip-rule="evenodd" d="M60.9844 142.068C60.9791 149.132 66.7122 154.864 73.7895 154.869C80.8668 154.864 86.5999 149.132 86.5946 142.068V129.268H73.7895C66.7122 129.273 60.9791 135.005 60.9844 142.068ZM95.1261 142.068V176.21C95.1157 183.273 100.849 189.005 107.926 189.016C115.003 189.01 120.736 183.278 120.731 176.215V142.079C120.742 135.016 115.009 129.284 107.931 129.273C100.849 129.273 95.1209 135.005 95.1261 142.068C95.1261 142.068 95.1261 142.074 95.1261 142.068Z" fill="#E01E5A"/>
</svg>
