<svg width="250" height="250" viewBox="0 0 250 250" fill="none" xmlns="http://www.w3.org/2000/svg">
<g clip-path="url(#clip0_2_7245)">
<path d="M93.6612 112.464C93.6612 112.464 99.1916 104.804 106.335 104.572C117.626 104.339 126.613 124.536 127.996 127.554C140.439 99.6965 160.948 76.018 177.539 60.2323H75.4568C75.4568 69.9823 75.4568 167.482 75.4568 175.607C75.4568 181.875 74.5351 186.518 74.0742 188.375C78.6829 187.679 95.7351 184.661 113.248 178.393C144.357 167.25 156.339 155.179 156.57 155.179L157.261 154.482L157.722 155.411C157.722 155.411 161.639 164 165.557 168.643C169.935 173.75 172.239 174.214 173.622 173.982C175.466 173.518 176.618 170.5 177.079 165.857C177.539 161.214 178 150.768 178 138C178 115.018 178 84.6073 178 69.2858C147.813 106.429 125.692 162.143 125.692 162.143C125.692 162.143 111.174 112.232 93.6612 112.464Z" fill="#0E2947"/>
</g>
<defs>
<clipPath id="clip0_2_7245">
<rect width="106" height="130" fill="white" transform="translate(72 60)"/>
</clipPath>
</defs>
</svg>
