<svg xmlns="http://www.w3.org/2000/svg" width="250" height="250" fill="none"><g clip-path="url(#a)"><path fill="#0E2947" d="M73.557 104.557s9.079-12.492 20.805-12.871c18.535-.379 33.287 32.557 35.556 37.479 20.426-45.429 54.092-84.043 81.326-109.786H43.674v188.15c0 10.221-1.512 17.793-2.269 20.821 7.566-1.135 35.557-6.057 64.305-16.278 51.065-18.172 70.734-37.857 71.113-37.857l1.134-1.136.757 1.514s6.43 14.007 12.861 21.579c7.187 8.328 10.969 9.085 13.239 8.707 3.026-.757 4.917-5.679 5.674-13.25.756-7.572 1.513-24.607 1.513-45.429V34.143c-49.552 60.572-85.865 151.429-85.865 151.429s-23.831-81.393-52.579-81.015Z"/></g><defs><clipPath id="a"><path fill="#fff" d="M38 19h174v212H38z"/></clipPath></defs></svg>