<svg id="svg" version="1.1" xmlns="http://www.w3.org/2000/svg" xmlns:xlink="http://www.w3.org/1999/xlink" width="400" height="400" viewBox="0, 0, 400,400"><g id="svgg"><path id="path0" d="M2.291 199.900 C 2.226 218.985,2.077 234.870,1.959 235.200 C 1.842 235.530,1.608 236.385,1.441 237.100 C 1.273 237.815,0.881 238.400,0.568 238.400 C 0.256 238.400,0.000 238.580,0.000 238.800 C 0.000 239.308,2.909 239.301,5.000 238.788 C 6.723 238.365,10.776 237.750,22.400 236.148 C 34.690 234.454,49.477 232.282,52.200 231.770 C 52.860 231.646,54.660 231.326,56.200 231.058 C 60.912 230.240,61.207 229.714,61.623 221.401 C 61.929 215.285,61.772 191.453,61.343 178.802 L 61.106 171.803 59.708 173.402 C 58.146 175.188,57.987 175.412,53.148 182.642 C 47.327 191.339,40.441 204.306,35.326 216.200 C 34.569 217.960,33.511 220.413,32.975 221.650 C 32.439 222.888,32.000 224.067,32.000 224.270 C 32.000 224.474,31.793 224.847,31.540 225.100 C 31.005 225.635,31.110 225.836,26.394 215.200 C 19.960 200.691,19.315 199.647,16.000 198.399 C 13.720 197.541,13.657 197.258,15.400 195.729 C 17.903 193.532,20.686 192.264,23.077 192.230 C 26.283 192.184,27.231 193.266,31.636 202.000 L 33.552 205.800 34.606 203.400 C 37.847 196.016,42.709 187.517,46.179 183.171 C 46.630 182.606,47.450 181.534,48.000 180.790 C 49.867 178.266,53.770 173.813,57.491 169.962 C 59.531 167.852,61.200 165.917,61.200 165.662 C 61.200 165.317,53.774 165.200,31.804 165.200 L 2.409 165.200 2.291 199.900 M50.415 221.300 C 51.064 222.951,53.655 227.357,54.079 227.533 C 55.569 228.152,53.260 228.400,46.000 228.400 C 38.183 228.400,36.128 228.121,38.471 227.378 C 39.420 227.076,48.686 220.908,49.034 220.346 C 49.441 219.686,49.906 220.007,50.415 221.300 " stroke="none" fill="#e9e9e9" fill-rule="evenodd"></path><path id="path1" d="M73.800 155.670 C 73.360 155.924,72.910 156.241,72.800 156.375 C 72.690 156.509,72.091 156.943,71.469 157.339 C 70.847 157.735,69.947 158.394,69.469 158.804 C 68.991 159.213,67.255 160.640,65.611 161.974 L 62.622 164.400 34.411 164.428 C 18.895 164.444,5.840 164.611,5.400 164.800 C 4.943 164.996,16.826 165.156,33.100 165.172 C 59.251 165.198,61.600 165.254,61.600 165.857 C 61.600 166.218,59.575 168.606,57.100 171.163 C 47.291 181.297,37.037 196.477,34.576 204.506 C 33.855 206.859,33.516 206.568,30.829 201.292 C 26.688 193.162,25.404 191.990,21.579 192.849 C 18.205 193.607,12.933 197.600,15.305 197.600 C 18.331 197.600,20.816 201.346,26.586 214.600 C 27.831 217.460,29.085 220.250,29.373 220.800 C 29.661 221.350,30.119 222.492,30.392 223.337 C 31.004 225.240,31.209 225.035,32.918 220.800 C 37.360 209.794,45.449 193.703,50.411 186.000 C 51.049 185.010,51.862 183.685,52.218 183.056 C 53.154 181.403,58.484 174.076,60.113 172.203 L 61.502 170.607 61.804 187.803 C 62.204 210.574,61.923 226.482,61.086 228.469 C 60.023 230.990,59.501 231.143,45.000 233.194 C 42.140 233.599,38.990 234.110,38.000 234.329 C 37.010 234.549,34.220 234.931,31.800 235.179 C 29.380 235.426,26.680 235.805,25.800 236.022 C 24.920 236.238,21.320 236.770,17.800 237.203 C 14.280 237.635,9.105 238.288,6.300 238.653 L 1.200 239.316 1.206 241.758 C 1.209 243.101,1.367 244.445,1.557 244.744 C 2.001 245.445,25.529 245.272,26.439 244.561 C 26.747 244.320,29.970 243.811,33.600 243.431 C 37.230 243.051,40.560 242.584,41.000 242.394 C 41.440 242.203,44.590 241.740,48.000 241.363 C 51.410 240.987,54.290 240.559,54.400 240.412 C 54.510 240.265,56.384 239.916,58.564 239.636 C 60.744 239.356,62.814 238.995,63.164 238.833 C 66.755 237.175,67.045 236.883,68.899 233.059 C 69.675 231.458,70.043 218.828,69.925 197.912 L 69.800 176.024 72.991 172.812 C 74.745 171.046,76.367 169.600,76.594 169.600 C 76.822 169.600,77.232 169.240,77.507 168.800 C 77.782 168.360,78.200 168.000,78.436 168.000 C 78.672 168.000,79.666 167.344,80.645 166.542 L 82.424 165.084 82.312 160.242 L 82.200 155.400 78.400 155.305 C 76.085 155.247,74.287 155.389,73.800 155.670 M1.905 168.400 C 1.434 170.000,1.529 235.031,2.002 234.558 C 2.267 234.293,2.370 222.761,2.302 200.778 C 2.246 182.420,2.067 167.850,1.905 168.400 M280.400 193.600 L 280.400 218.800 282.760 218.800 L 285.119 218.800 285.260 208.785 C 285.356 201.874,285.541 198.682,285.855 198.485 C 286.105 198.328,286.579 197.555,286.907 196.766 C 289.420 190.731,298.613 189.527,301.321 194.878 L 302.400 197.011 302.400 207.906 L 302.400 218.800 305.000 218.800 L 307.600 218.800 307.600 207.200 C 307.600 199.733,307.457 195.600,307.200 195.600 C 306.980 195.600,306.796 195.195,306.791 194.700 C 306.763 191.790,302.428 186.999,300.300 187.526 C 300.135 187.567,300.000 187.401,300.000 187.157 C 300.000 186.575,290.884 186.833,290.483 187.426 C 290.327 187.657,289.592 188.092,288.848 188.393 C 288.105 188.694,287.025 189.403,286.448 189.970 L 285.400 191.000 285.294 179.700 L 285.188 168.400 282.794 168.400 L 280.400 168.400 280.400 193.600 M229.200 182.384 L 229.200 186.769 225.700 186.884 L 222.200 187.000 222.082 189.900 L 221.965 192.800 225.559 192.800 L 229.154 192.800 229.277 204.067 C 229.371 212.636,229.520 215.374,229.900 215.500 C 230.175 215.592,230.400 215.930,230.400 216.252 C 230.400 216.574,230.939 217.144,231.597 217.519 C 232.256 217.893,232.796 218.322,232.797 218.472 C 232.803 219.058,237.539 219.690,240.400 219.486 C 244.918 219.164,244.800 219.274,244.800 215.357 C 244.800 211.784,244.724 211.670,242.946 212.598 C 241.033 213.595,239.005 213.373,237.614 212.013 L 236.400 210.827 236.400 201.813 L 236.400 192.800 240.600 192.800 L 244.800 192.800 244.800 189.800 L 244.800 186.800 240.600 186.800 L 236.400 186.800 236.400 182.400 L 236.400 178.000 232.800 178.000 L 229.200 178.000 229.200 182.384 M386.800 183.000 L 386.800 187.200 383.400 187.200 L 380.000 187.200 380.000 189.600 L 380.000 192.000 383.400 192.000 L 386.800 192.000 386.800 203.192 C 386.800 215.143,387.095 217.259,388.837 217.812 C 389.257 217.945,389.600 218.198,389.600 218.375 C 389.600 219.466,396.883 219.925,399.300 218.986 C 400.388 218.564,400.327 214.000,399.233 214.000 C 398.812 214.000,398.407 214.169,398.333 214.375 C 397.944 215.471,394.215 215.281,392.900 214.098 L 391.600 212.929 391.600 202.464 L 391.600 192.000 395.800 192.000 L 400.000 192.000 400.000 189.600 L 400.000 187.200 395.800 187.200 L 391.600 187.200 391.600 183.000 L 391.600 178.800 389.200 178.800 L 386.800 178.800 386.800 183.000 M95.204 186.439 C 94.217 186.633,92.919 187.153,92.321 187.595 C 91.722 188.038,91.055 188.400,90.839 188.400 C 90.622 188.400,90.126 188.940,89.736 189.600 C 89.346 190.260,88.904 190.800,88.753 190.800 C 87.840 190.800,87.255 196.176,87.847 199.134 C 88.332 201.558,92.013 204.386,94.700 204.398 C 94.975 204.399,95.200 204.552,95.200 204.737 C 95.200 204.922,96.669 205.363,98.464 205.717 C 100.259 206.071,101.834 206.517,101.964 206.709 C 102.094 206.901,102.519 207.176,102.909 207.320 C 103.299 207.464,103.736 207.901,103.880 208.291 C 104.024 208.681,104.335 209.135,104.571 209.300 C 104.876 209.514,104.876 209.686,104.571 209.900 C 104.335 210.065,104.024 210.519,103.880 210.909 C 103.736 211.299,103.299 211.736,102.909 211.880 C 102.519 212.024,102.071 212.335,101.914 212.571 C 101.499 213.193,95.909 213.126,95.699 212.497 C 95.608 212.224,95.317 212.000,95.052 212.000 C 94.787 212.000,93.947 211.467,93.185 210.816 C 91.564 209.431,90.208 209.277,89.507 210.400 C 89.232 210.840,88.825 211.200,88.602 211.200 C 87.797 211.200,85.992 213.513,86.257 214.205 C 86.654 215.240,88.078 216.516,89.822 217.400 C 90.690 217.840,91.499 218.333,91.621 218.495 C 92.679 219.912,105.600 219.773,105.600 218.345 C 105.600 218.155,105.849 218.000,106.154 218.000 C 112.459 218.000,113.828 204.477,107.800 201.747 C 106.920 201.348,106.092 200.871,105.961 200.686 C 105.829 200.500,104.479 200.142,102.961 199.889 C 101.442 199.637,100.110 199.320,100.000 199.185 C 99.890 199.051,98.938 198.704,97.884 198.414 C 93.241 197.137,94.539 192.597,99.545 192.603 C 102.242 192.606,102.598 192.760,104.860 194.900 C 105.616 195.615,106.800 195.851,106.800 195.286 C 106.800 195.114,107.372 194.634,108.072 194.221 C 109.824 193.186,111.200 191.945,111.200 191.400 C 111.200 190.850,109.068 188.400,108.590 188.400 C 108.404 188.400,107.880 188.060,107.426 187.644 C 105.834 186.186,99.623 185.574,95.204 186.439 M128.613 186.562 C 127.521 186.869,126.561 187.318,126.480 187.560 C 126.399 187.802,126.082 188.000,125.776 188.000 C 125.469 188.000,124.924 188.450,124.563 189.000 C 123.628 190.428,123.200 190.239,123.200 188.400 L 123.200 186.800 120.000 186.800 L 116.800 186.800 116.800 202.800 L 116.800 218.800 120.400 218.800 L 124.000 218.800 124.000 209.577 C 124.000 200.538,124.358 197.060,125.376 196.200 C 125.636 195.980,125.969 195.482,126.115 195.094 C 126.260 194.706,126.815 194.222,127.348 194.020 C 127.880 193.817,128.395 193.415,128.491 193.126 C 129.275 190.775,136.066 193.429,136.642 196.312 C 136.784 197.020,137.058 197.600,137.250 197.600 C 137.442 197.600,137.600 202.370,137.600 208.200 L 137.600 218.800 141.000 218.800 L 144.400 218.800 144.400 208.800 C 144.400 202.400,144.544 198.800,144.800 198.800 C 145.020 198.800,145.200 198.462,145.200 198.049 C 145.200 196.981,146.335 194.400,146.805 194.400 C 147.022 194.400,147.605 193.995,148.100 193.500 C 149.598 192.002,154.164 192.197,155.860 193.832 C 157.782 195.685,157.995 197.145,157.998 208.500 L 158.000 218.800 161.626 218.800 L 165.252 218.800 165.126 206.385 C 165.038 197.754,164.863 193.883,164.550 193.685 C 164.303 193.528,163.981 192.851,163.836 192.179 C 163.549 190.854,161.289 187.993,160.533 187.997 C 160.277 187.999,160.001 187.804,159.921 187.564 C 159.699 186.898,155.718 186.000,152.985 186.000 C 149.284 186.000,146.837 186.888,144.777 188.979 L 143.013 190.769 141.406 189.144 C 138.511 186.216,133.465 185.197,128.613 186.562 M176.800 186.600 C 174.517 187.138,171.200 188.665,171.200 189.178 C 171.200 189.339,170.750 189.677,170.200 189.927 C 169.650 190.178,169.200 190.585,169.200 190.831 C 169.200 191.519,172.839 194.800,173.602 194.800 C 174.459 194.800,176.800 193.645,176.800 193.223 C 176.800 192.907,179.167 192.200,181.310 191.875 C 184.350 191.415,188.800 193.680,188.800 195.688 C 188.800 196.080,188.980 196.400,189.200 196.400 C 189.420 196.400,189.600 196.827,189.600 197.348 C 189.600 198.287,189.554 198.297,184.300 198.492 C 178.916 198.691,174.186 199.757,172.878 201.065 C 172.584 201.359,172.119 201.600,171.845 201.600 C 170.994 201.600,168.841 204.376,168.569 205.823 C 168.427 206.580,168.151 207.200,167.955 207.200 C 167.760 207.200,167.600 208.280,167.600 209.600 C 167.600 210.920,167.756 212.000,167.948 212.000 C 168.139 212.000,168.400 212.647,168.529 213.438 C 168.764 214.888,170.940 217.587,171.880 217.596 C 172.144 217.598,172.504 217.848,172.680 218.151 C 173.813 220.101,184.399 219.950,186.543 217.952 C 186.987 217.539,187.581 217.200,187.861 217.200 C 188.142 217.200,188.565 216.840,188.800 216.400 C 189.483 215.124,190.000 215.469,190.000 217.200 L 190.000 218.800 193.100 218.800 L 196.200 218.801 196.099 212.100 C 195.795 192.019,195.843 192.985,195.100 192.242 C 194.715 191.858,194.400 191.318,194.400 191.044 C 194.400 190.502,192.953 189.125,190.917 187.727 C 188.488 186.060,181.471 185.500,176.800 186.600 M213.152 186.543 C 212.136 186.822,210.561 187.639,209.652 188.358 L 208.000 189.667 208.000 188.234 L 208.000 186.800 204.600 186.800 L 201.200 186.800 201.200 202.800 L 201.200 218.800 204.575 218.800 L 207.950 218.800 208.075 208.585 C 208.151 202.379,208.357 198.258,208.600 198.085 C 208.820 197.928,209.320 197.170,209.711 196.400 C 210.681 194.491,211.995 193.936,216.105 193.702 C 220.176 193.469,220.117 193.543,219.920 188.992 L 219.800 186.200 217.400 186.119 C 216.080 186.074,214.169 186.265,213.152 186.543 M257.900 187.076 C 257.515 187.176,257.200 187.411,257.200 187.598 C 257.200 187.784,256.648 188.058,255.973 188.206 C 255.298 188.354,254.651 188.722,254.536 189.022 C 254.421 189.323,254.000 189.673,253.600 189.800 C 251.931 190.330,251.008 196.054,252.011 199.664 C 252.547 201.592,255.401 203.463,258.762 204.088 C 260.103 204.337,261.200 204.689,261.200 204.871 C 261.200 205.052,261.461 205.200,261.780 205.200 C 263.071 205.200,266.444 206.101,266.914 206.571 C 267.190 206.848,267.805 207.282,268.280 207.536 C 270.153 208.538,269.503 212.319,267.262 213.457 C 266.458 213.866,265.672 214.380,265.515 214.600 C 265.138 215.127,260.011 215.061,259.667 214.524 C 259.520 214.295,258.974 213.975,258.453 213.812 C 257.932 213.649,256.710 212.686,255.737 211.670 C 254.222 210.089,253.870 209.894,253.284 210.314 C 252.908 210.584,252.015 211.107,251.300 211.477 C 248.989 212.671,250.795 216.131,254.515 217.635 C 255.222 217.921,255.890 218.277,256.000 218.426 C 257.039 219.838,269.200 219.788,269.200 218.372 C 269.200 218.197,269.566 217.938,270.013 217.796 C 272.096 217.135,274.000 214.103,274.000 211.446 C 274.000 210.687,274.225 209.962,274.500 209.833 C 274.900 209.647,274.900 209.553,274.500 209.367 C 274.225 209.238,274.000 208.540,274.000 207.816 C 274.000 206.370,272.985 203.600,272.456 203.600 C 272.272 203.600,271.725 203.256,271.240 202.835 C 270.755 202.414,269.422 201.848,268.279 201.577 C 267.136 201.306,266.110 200.960,266.000 200.809 C 265.890 200.658,264.551 200.332,263.025 200.083 C 257.238 199.142,254.764 196.314,257.300 193.540 C 260.126 190.448,268.800 191.714,268.800 195.218 C 268.800 195.747,270.291 195.699,270.625 195.159 C 270.775 194.917,271.506 194.464,272.249 194.154 C 274.504 193.212,272.711 189.440,269.500 188.371 C 268.675 188.097,268.000 187.702,268.000 187.493 C 268.000 187.285,267.736 187.216,267.413 187.340 C 267.090 187.464,266.719 187.393,266.589 187.183 C 266.357 186.806,259.266 186.719,257.900 187.076 M324.000 187.147 C 322.148 187.691,319.802 188.882,319.480 189.443 C 319.304 189.749,318.932 190.000,318.652 190.000 C 318.098 190.000,316.869 191.294,315.739 193.069 C 315.343 193.691,314.907 194.290,314.770 194.400 C 313.465 195.451,312.047 206.687,313.135 207.360 C 313.340 207.486,313.627 208.384,313.772 209.355 C 313.918 210.326,314.389 211.526,314.819 212.021 C 315.248 212.517,315.600 213.045,315.600 213.195 C 315.600 213.878,319.370 217.194,320.613 217.604 C 321.376 217.856,322.000 218.203,322.000 218.376 C 322.000 219.767,335.015 219.871,335.971 218.487 C 336.097 218.304,336.830 217.901,337.600 217.591 C 339.141 216.970,342.800 213.542,342.800 212.719 C 342.800 212.257,341.099 210.688,339.678 209.838 C 339.335 209.633,338.418 210.224,337.002 211.563 C 335.817 212.683,334.612 213.601,334.324 213.602 C 334.036 213.604,333.260 213.902,332.600 214.265 C 331.235 215.015,325.736 215.242,325.279 214.566 C 325.125 214.340,324.370 213.907,323.600 213.604 C 321.951 212.956,320.275 211.241,319.558 209.467 C 319.276 208.770,318.909 208.105,318.742 207.988 C 318.574 207.871,318.316 207.016,318.168 206.088 L 317.898 204.400 330.549 204.400 L 343.200 204.400 343.198 201.100 C 343.195 197.565,342.672 195.015,341.763 194.106 C 341.453 193.796,341.199 193.331,341.198 193.071 C 341.194 192.320,337.569 189.053,335.600 188.027 C 333.701 187.038,326.290 186.476,324.000 187.147 M359.811 187.183 C 359.681 187.393,359.310 187.464,358.987 187.340 C 358.664 187.216,358.400 187.291,358.400 187.507 C 358.400 187.723,357.905 188.002,357.300 188.128 C 355.361 188.529,351.265 192.256,350.406 194.400 C 350.098 195.170,349.723 195.890,349.574 196.000 C 348.186 197.021,348.134 209.418,349.513 210.371 C 349.696 210.497,350.099 211.230,350.409 212.000 C 351.976 215.889,357.065 219.031,362.471 219.447 C 365.858 219.707,371.600 219.045,371.600 218.395 C 371.600 218.212,372.185 217.869,372.900 217.632 C 374.443 217.122,378.002 213.784,377.996 212.853 C 377.982 210.818,374.245 208.903,373.600 210.600 C 373.391 211.150,373.042 211.600,372.825 211.600 C 372.609 211.600,372.109 211.929,371.716 212.331 C 371.322 212.732,370.370 213.307,369.600 213.608 C 368.830 213.909,368.072 214.345,367.915 214.577 C 367.549 215.118,360.870 215.138,360.485 214.600 C 360.328 214.380,359.570 213.872,358.800 213.471 C 356.889 212.476,354.505 209.406,354.188 207.530 C 354.046 206.689,353.766 206.000,353.565 206.000 C 353.364 206.000,353.200 205.640,353.200 205.200 C 353.200 204.416,353.467 204.400,366.200 204.400 L 379.200 204.400 379.200 201.824 C 379.200 200.407,379.044 199.151,378.853 199.033 C 378.662 198.915,378.388 197.936,378.245 196.857 C 378.097 195.736,377.560 194.319,376.992 193.548 C 376.445 192.807,375.894 191.930,375.768 191.600 C 375.521 190.956,371.499 188.000,370.870 188.000 C 370.662 188.000,369.976 187.731,369.346 187.402 C 368.036 186.719,360.209 186.539,359.811 187.183 M332.519 192.365 C 334.611 193.262,337.083 195.595,337.438 197.008 C 337.575 197.553,337.847 198.000,338.043 198.000 C 338.240 198.000,338.400 198.450,338.400 199.000 L 338.400 200.000 328.200 200.000 C 316.887 200.000,317.352 200.142,319.141 197.234 C 322.361 192.001,327.395 190.169,332.519 192.365 M367.647 192.152 C 370.751 193.262,374.000 197.101,374.000 199.660 C 374.000 199.847,369.275 199.997,363.500 199.994 C 357.725 199.991,353.202 199.856,353.450 199.694 C 353.697 199.532,354.025 198.822,354.178 198.115 C 355.176 193.516,362.451 190.295,367.647 192.152 M189.600 205.600 C 189.600 206.480,189.420 207.200,189.200 207.200 C 188.980 207.200,188.800 207.638,188.800 208.173 C 188.800 212.715,179.246 215.618,175.998 212.062 C 173.896 209.761,174.568 206.860,177.459 205.756 C 178.417 205.390,179.200 204.948,179.200 204.772 C 179.200 204.313,180.838 204.128,185.500 204.060 L 189.600 204.000 189.600 205.600 " stroke="none" fill="#2b5374" fill-rule="evenodd"></path><path id="path2" d="M57.592 170.300 L 53.800 174.200 57.700 170.408 C 61.322 166.886,61.782 166.400,61.492 166.400 C 61.433 166.400,59.678 168.155,57.592 170.300 M61.753 192.200 C 61.753 194.840,61.818 195.868,61.897 194.484 C 61.975 193.101,61.974 190.941,61.895 189.684 C 61.816 188.428,61.752 189.560,61.753 192.200 M15.201 196.198 C 14.686 196.748,14.339 197.264,14.432 197.346 C 14.524 197.428,15.019 196.978,15.530 196.347 C 16.676 194.935,16.474 194.844,15.201 196.198 M23.300 236.276 C 23.685 236.376,24.315 236.376,24.700 236.276 C 25.085 236.175,24.770 236.093,24.000 236.093 C 23.230 236.093,22.915 236.175,23.300 236.276 " stroke="none" fill="#748da5" fill-rule="evenodd"></path><path id="path3" d="M61.720 220.000 C 61.720 221.210,61.795 221.705,61.887 221.100 C 61.978 220.495,61.978 219.505,61.887 218.900 C 61.795 218.295,61.720 218.790,61.720 220.000 " stroke="none" fill="#94a4b4" fill-rule="evenodd"></path><path id="path4" d="M61.232 165.592 C 61.214 165.918,59.626 167.808,57.703 169.792 L 54.206 173.400 57.952 169.748 C 60.236 167.521,61.614 165.882,61.481 165.548 C 61.307 165.111,61.257 165.119,61.232 165.592 M60.162 172.500 L 59.400 173.400 60.284 172.653 L 61.167 171.905 61.301 175.453 L 61.435 179.000 61.518 175.300 C 61.604 171.420,61.412 171.024,60.162 172.500 M22.500 192.276 C 22.885 192.376,23.515 192.376,23.900 192.276 C 24.285 192.175,23.970 192.093,23.200 192.093 C 22.430 192.093,22.115 192.175,22.500 192.276 M14.828 196.170 C 13.934 197.122,13.980 198.006,14.924 197.994 C 15.214 197.990,15.170 197.842,14.810 197.615 C 14.313 197.301,14.371 197.082,15.180 196.221 C 15.708 195.659,16.049 195.200,15.939 195.200 C 15.829 195.200,15.329 195.637,14.828 196.170 M61.748 202.400 C 61.748 204.710,61.814 205.655,61.895 204.500 C 61.976 203.345,61.976 201.455,61.895 200.300 C 61.814 199.145,61.748 200.090,61.748 202.400 M49.034 220.346 C 48.686 220.908,39.420 227.076,38.471 227.378 C 36.128 228.121,38.183 228.400,46.000 228.400 C 53.260 228.400,55.569 228.152,54.079 227.533 C 53.655 227.357,51.064 222.951,50.415 221.300 C 49.906 220.007,49.441 219.686,49.034 220.346 M53.200 231.595 C 52.791 231.855,53.110 231.899,54.200 231.732 C 56.177 231.429,56.514 231.198,54.967 231.206 C 54.325 231.209,53.530 231.384,53.200 231.595 M42.400 233.200 C 40.401 233.621,42.452 233.638,44.800 233.220 C 46.424 232.932,46.463 232.900,45.200 232.903 C 44.430 232.904,43.170 233.038,42.400 233.200 M30.705 235.083 C 31.202 235.179,31.922 235.175,32.305 235.075 C 32.687 234.975,32.280 234.896,31.400 234.901 C 30.520 234.905,30.207 234.987,30.705 235.083 M16.305 237.083 C 16.802 237.179,17.522 237.175,17.905 237.075 C 18.287 236.975,17.880 236.896,17.000 236.901 C 16.120 236.905,15.807 236.987,16.305 237.083 " stroke="none" fill="#9cacbc" fill-rule="evenodd"></path></g></svg>