<svg xmlns="http://www.w3.org/2000/svg" width="81.224" height="89.898"><path fill="#e9e9e9" fill-rule="evenodd" d="M1.091 44.608c-.065 19.085-.214 34.97-.332 35.3-.117.33-.351 1.185-.518 1.9-.168.715-.56 1.3-.873 1.3-.312 0-.568.18-.568.4 0 .508 2.909.5 5-.012 1.723-.423 5.776-1.038 17.4-2.64 12.29-1.694 27.077-3.866 29.8-4.378.66-.124 2.46-.444 4-.712 4.712-.818 5.007-1.344 5.423-9.657.306-6.116.149-29.948-.28-42.6l-.237-6.998-1.398 1.599c-1.562 1.786-1.721 2.01-6.56 9.24-5.821 8.697-12.707 21.664-17.822 33.558-.757 1.76-1.815 4.213-2.351 5.45-.536 1.238-.975 2.417-.975 2.62 0 .204-.207.577-.46.83-.535.535-.43.736-5.146-9.9-6.434-14.51-7.079-15.553-10.394-16.801-2.28-.858-2.343-1.141-.6-2.67 2.503-2.197 5.286-3.465 7.677-3.5 3.206-.045 4.154 1.037 8.559 9.77l1.916 3.8 1.054-2.4c3.241-7.383 8.103-15.882 11.573-20.228a99.239 99.239 0 0 0 1.821-2.381c1.867-2.524 5.77-6.977 9.491-10.828 2.04-2.11 3.709-4.045 3.709-4.3 0-.345-7.426-.462-29.396-.462H1.209l-.118 34.7m48.124 21.4c.649 1.65 3.24 6.057 3.664 6.233 1.49.619-.819.867-8.079.867-7.817 0-9.872-.28-7.529-1.022.949-.302 10.215-6.47 10.563-7.032.407-.66.872-.34 1.381.954"/><path fill="#2b5374" fill-rule="evenodd" d="M72.6.378c-.44.254-.89.57-1 .705-.11.134-.709.568-1.331.964a21.25 21.25 0 0 0-2 1.465 309.06 309.06 0 0 1-3.858 3.17l-2.989 2.426-28.211.028c-15.516.016-28.571.183-29.011.372-.457.196 11.426.356 27.7.372 26.151.026 28.5.082 28.5.685 0 .36-2.025 2.749-4.5 5.306-9.809 10.134-20.063 25.314-22.524 33.343-.721 2.353-1.06 2.062-3.747-3.214-4.141-8.13-5.425-9.302-9.25-8.443-3.374.758-8.646 4.75-6.274 4.75 3.026 0 5.511 3.747 11.281 17 1.245 2.86 2.499 5.65 2.787 6.2.288.55.746 1.693 1.019 2.538.612 1.903.817 1.698 2.526-2.537 4.442-11.006 12.531-27.097 17.493-34.8a76.495 76.495 0 0 0 1.807-2.944c.936-1.653 6.266-8.98 7.895-10.853l1.389-1.596.302 17.196c.4 22.77.119 38.679-.718 40.666-1.063 2.52-1.585 2.674-16.086 4.725-2.86.405-6.01.916-7 1.135-.99.22-3.78.602-6.2.85-2.42.247-5.12.626-6 .843-.88.216-4.48.748-8 1.18-3.52.433-8.695 1.086-11.5 1.45l-5.1.664.006 2.442c.003 1.343.161 2.687.351 2.986.444.7 23.972.528 24.882-.183.308-.241 3.531-.75 7.161-1.13 3.63-.38 6.96-.847 7.4-1.037.44-.191 3.59-.654 7-1.031 3.41-.376 6.29-.804 6.4-.951.11-.147 1.984-.496 4.164-.776 2.18-.28 4.25-.641 4.6-.803 3.591-1.658 3.881-1.95 5.735-5.774.776-1.601 1.144-14.231 1.026-35.147L68.6 20.732l3.191-3.212c1.754-1.766 3.376-3.212 3.603-3.212.228 0 .638-.36.913-.8.275-.44.693-.8.929-.8.236 0 1.23-.656 2.209-1.458l1.779-1.458-.112-4.842L81 .108 77.2.013c-2.315-.058-4.113.084-4.6.365M.705 13.108c-.471 1.6-.376 66.63.097 66.158.265-.265.368-11.797.3-33.78C1.046 27.128.867 12.558.705 13.108"/><path fill="#748da5" fill-rule="evenodd" d="m56.392 15.008-3.792 3.9 3.9-3.792c3.622-3.522 4.082-4.008 3.792-4.008-.059 0-1.814 1.755-3.9 3.9m4.161 21.9c0 2.64.065 3.668.144 2.284.078-1.383.077-3.543-.002-4.8-.079-1.256-.143-.124-.142 2.516m-46.552 3.998c-.515.55-.862 1.066-.769 1.148.092.082.587-.368 1.098-1 1.146-1.411.944-1.502-.329-.148M22.1 80.984c.385.1 1.015.1 1.4 0 .385-.101.07-.183-.7-.183s-1.085.082-.7.183"/><path fill="#94a4b4" fill-rule="evenodd" d="M60.52 64.708c0 1.21.075 1.705.167 1.1a8.899 8.899 0 0 0 0-2.2c-.092-.605-.167-.11-.167 1.1"/><path fill="#9cacbc" fill-rule="evenodd" d="M60.032 10.3c-.018.326-1.606 2.216-3.529 4.2l-3.497 3.608 3.746-3.652c2.284-2.227 3.662-3.866 3.529-4.2-.174-.437-.224-.43-.249.044m-1.07 6.908-.762.9.884-.747.883-.748.134 3.548.134 3.547.083-3.7c.086-3.88-.106-4.276-1.356-2.8M21.3 36.984c.385.1 1.015.1 1.4 0 .385-.101.07-.183-.7-.183s-1.085.082-.7.183m-7.672 3.894c-.894.952-.848 1.836.096 1.824.29-.004.246-.152-.114-.38-.497-.313-.439-.532.37-1.393.528-.562.869-1.021.759-1.021-.11 0-.61.437-1.111.97m46.92 6.23c0 2.31.066 3.255.147 2.1a36.327 36.327 0 0 0 0-4.2c-.081-1.155-.147-.21-.147 2.1M47.834 65.054c-.348.562-9.614 6.73-10.563 7.032-2.343.743-.288 1.022 7.529 1.022 7.26 0 9.569-.248 8.079-.867-.424-.176-3.015-4.582-3.664-6.233-.509-1.293-.974-1.614-1.381-.954M52 76.303c-.409.26-.09.304 1 .137 1.977-.303 2.314-.534.767-.526-.642.003-1.437.178-1.767.389m-10.8 1.605c-1.999.42.052.438 2.4.02 1.624-.288 1.663-.32.4-.317-.77 0-2.03.135-2.8.297M29.505 79.79c.497.096 1.217.092 1.6-.008.382-.1-.025-.18-.905-.174-.88.004-1.193.086-.695.182m-14.4 2c.497.096 1.217.092 1.6-.008.382-.1-.025-.18-.905-.174-.88.004-1.193.086-.695.182"/></svg>