<?xml version="1.0" standalone="no"?>
<!DOCTYPE svg PUBLIC "-//W3C//DTD SVG 20010904//EN"
 "http://www.w3.org/TR/2001/REC-SVG-20010904/DTD/svg10.dtd">
<svg version="1.0" xmlns="http://www.w3.org/2000/svg"
 width="225.000000pt" height="225.000000pt" viewBox="0 0 225.000000 225.000000"
 preserveAspectRatio="xMidYMid meet">

<g transform="translate(0.000000,225.000000) scale(0.100000,-0.100000)"
fill="#000000" stroke="none">
<path d="M680 1158 c0 -304 -3 -563 -6 -575 -9 -31 5 -30 172 12 208 52 424
148 533 237 l35 27 28 -52 c35 -63 85 -117 110 -117 40 0 43 25 46 489 l4 445
-39 -50 c-96 -124 -202 -301 -306 -509 -46 -93 -92 -191 -102 -217 -10 -27
-21 -48 -24 -48 -4 0 -18 33 -30 73 -52 161 -146 314 -211 344 -22 10 -40 23
-40 29 0 22 75 64 113 64 31 0 45 -8 82 -44 24 -25 58 -70 76 -101 l32 -56 47
89 c74 140 191 298 326 442 l66 70 -456 0 -456 0 0 -552z"/>
</g>
</svg>
