<svg xmlns="http://www.w3.org/2000/svg" width="250" height="250" fill="none"><g clip-path="url(#a)"><path fill="#0E2947" d="M67.053 101.857S77.28 87.715 90.488 87.286c20.878-.429 37.496 36.857 40.052 42.429 23.009-51.429 60.931-95.143 91.609-124.286H33.392v213c0 11.571-1.704 20.143-2.556 23.571 8.522-1.285 40.052-6.857 72.435-18.428 57.521-20.572 79.678-42.857 80.104-42.857l1.278-1.286.853 1.714s7.243 15.857 14.486 24.429c8.096 9.428 12.357 10.285 14.914 9.857 3.408-.857 5.539-6.429 6.391-15 .852-8.572 1.704-27.857 1.704-51.429V22.143c-55.817 68.572-96.722 171.429-96.722 171.429s-26.843-92.143-59.226-91.715Z"/></g><defs><clipPath id="a"><path fill="#fff" d="M27 5h196v240H27z"/></clipPath></defs></svg>