<?xml version="1.0" encoding="UTF-8" standalone="no"?>
<svg
   id="svg"
   version="1.1"
   width="81.223999"
   height="89.89814"
   viewBox="0 0 81.223999 89.89814"
   sodipodi:docname="smartsheet.svg"
   inkscape:version="1.2.1 (9c6d41e410, 2022-07-14, custom)"
   xmlns:inkscape="http://www.inkscape.org/namespaces/inkscape"
   xmlns:sodipodi="http://sodipodi.sourceforge.net/DTD/sodipodi-0.dtd"
   xmlns="http://www.w3.org/2000/svg"
   xmlns:svg="http://www.w3.org/2000/svg">
  <defs
     id="defs1240" />
  <sodipodi:namedview
     id="namedview1238"
     pagecolor="#ffffff"
     bordercolor="#666666"
     borderopacity="1.0"
     inkscape:showpageshadow="2"
     inkscape:pageopacity="0.0"
     inkscape:pagecheckerboard="0"
     inkscape:deskcolor="#d1d1d1"
     showgrid="false"
     inkscape:zoom="2.5675"
     inkscape:cx="198.63681"
     inkscape:cy="44.401168"
     inkscape:window-width="3840"
     inkscape:window-height="2083"
     inkscape:window-x="0"
     inkscape:window-y="40"
     inkscape:window-maximized="1"
     inkscape:current-layer="svg" />
  <path
     id="path0"
     d="m 1.091,44.607807 c -0.065,19.085 -0.214,34.97 -0.332,35.3 -0.117,0.33 -0.351,1.185 -0.518,1.9 -0.168,0.715 -0.56,1.3 -0.873,1.3 -0.312,0 -0.568,0.18 -0.568,0.4 0,0.508 2.909,0.501 5,-0.012 1.723,-0.423 5.776,-1.038 17.4,-2.64 12.29,-1.694 27.077,-3.866 29.8,-4.378 0.66,-0.124 2.46,-0.444 4,-0.712 4.712,-0.818 5.007,-1.344 5.423,-9.657 0.306,-6.116 0.149,-29.948 -0.28,-42.599 l -0.237,-6.999 -1.398,1.599 c -1.562,1.786 -1.721,2.01 -6.56,9.24 -5.821,8.697 -12.707,21.664 -17.822,33.558 -0.757,1.76 -1.815,4.213 -2.351,5.45 -0.536,1.238 -0.975,2.417 -0.975,2.62 0,0.204 -0.207,0.577 -0.46,0.83 -0.535,0.535 -0.43,0.736 -5.146,-9.9 -6.434,-14.509 -7.079,-15.553 -10.394,-16.801 -2.28,-0.858 -2.343,-1.141 -0.6,-2.67 2.503,-2.197 5.286,-3.465 7.677,-3.499 3.206,-0.046 4.154,1.036 8.559,9.77 l 1.916,3.8 1.054,-2.4 c 3.241,-7.384 8.103,-15.883 11.573,-20.229 0.451,-0.565 1.271,-1.637 1.821,-2.381 1.867,-2.524 5.77,-6.977 9.491,-10.828 2.04,-2.11 3.709,-4.045 3.709,-4.3 0,-0.345 -7.426,-0.4619996 -29.396,-0.4619996 H 1.209 L 1.091,44.607807 m 48.124,21.4 c 0.649,1.651 3.24,6.057 3.664,6.233 1.49,0.619 -0.819,0.867 -8.079,0.867 -7.817,0 -9.872,-0.279 -7.529,-1.022 0.949,-0.302 10.215,-6.47 10.563,-7.032 0.407,-0.66 0.872,-0.339 1.381,0.954"
     stroke="none"
     fill="#e9e9e9"
     fill-rule="evenodd" />
  <path
     id="path1"
     d="m 72.6,0.37780742 c -0.44,0.254 -0.89,0.571 -1,0.70499998 -0.11,0.134 -0.709,0.568 -1.331,0.964 -0.622,0.396 -1.522,1.055 -2,1.465 -0.478,0.409 -2.214,1.836 -3.858,3.17 l -2.989,2.426 -28.211,0.028 c -15.516,0.016 -28.571,0.183 -29.011,0.372 -0.457,0.196 11.426,0.356 27.7,0.372 26.151,0.026 28.5,0.082 28.5,0.6849996 0,0.361 -2.025,2.749 -4.5,5.306 -9.809,10.134 -20.063,25.314 -22.524,33.343 -0.721,2.353 -1.06,2.062 -3.747,-3.214 -4.141,-8.13 -5.425,-9.302 -9.25,-8.443 -3.374,0.758 -8.646,4.751 -6.274,4.751 3.026,0 5.511,3.746 11.281,17 1.245,2.86 2.499,5.65 2.787,6.2 0.288,0.55 0.746,1.692 1.019,2.537 0.612,1.903 0.817,1.698 2.526,-2.537 4.442,-11.006 12.531,-27.097 17.493,-34.8 0.638,-0.99 1.451,-2.315 1.807,-2.944 0.936,-1.653 6.266,-8.98 7.895,-10.853 l 1.389,-1.596 0.302,17.196 c 0.4,22.771 0.119,38.679 -0.718,40.666 -1.063,2.521 -1.585,2.674 -16.086,4.725 -2.86,0.405 -6.01,0.916 -7,1.135 -0.99,0.22 -3.78,0.602 -6.2,0.85 -2.42,0.247 -5.12,0.626 -6,0.843 -0.88,0.216 -4.48,0.748 -8,1.181 -3.52,0.432 -8.695,1.085 -11.5,1.45 l -5.1,0.663 0.006,2.442 c 0.003,1.343 0.161,2.687 0.351,2.986 0.444,0.701 23.972,0.528 24.882,-0.183 0.308,-0.241 3.531,-0.75 7.161,-1.13 3.63,-0.38 6.96,-0.847 7.4,-1.037 0.44,-0.191 3.59,-0.654 7,-1.031 3.41,-0.376 6.29,-0.804 6.4,-0.951 0.11,-0.147 1.984,-0.496 4.164,-0.776 2.18,-0.28 4.25,-0.641 4.6,-0.803 3.591,-1.658 3.881,-1.95 5.735,-5.774 0.776,-1.601 1.144,-14.231 1.026,-35.147 l -0.125,-21.888 3.191,-3.212 c 1.754,-1.766 3.376,-3.212 3.603,-3.212 0.228,0 0.638,-0.36 0.913,-0.8 0.275,-0.44 0.693,-0.8 0.929,-0.8 0.236,0 1.23,-0.656 2.209,-1.458 l 1.779,-1.4579996 -0.112,-4.842 L 81,0.10780742 l -3.8,-0.095 c -2.315,-0.058 -4.113,0.084 -4.6,0.365 M 0.705,13.107807 c -0.471,1.6 -0.376,66.631 0.097,66.158 0.265,-0.265 0.368,-11.797 0.3,-33.78 -0.056,-18.358 -0.235,-32.928 -0.397,-32.378"
     stroke="none"
     fill="#2b5374"
     fill-rule="evenodd"
     sodipodi:nodetypes="cssccccccsscccscsccccccccccccccccccsccsscccccssscccccccscc" />
  <path
     id="path2"
     d="m 56.392,15.007807 -3.792,3.9 3.9,-3.792 c 3.622,-3.522 4.082,-4.008 3.792,-4.008 -0.059,0 -1.814,1.755 -3.9,3.9 m 4.161,21.9 c 0,2.64 0.065,3.668 0.144,2.284 0.078,-1.383 0.077,-3.543 -0.002,-4.8 -0.079,-1.256 -0.143,-0.124 -0.142,2.516 m -46.552,3.998 c -0.515,0.55 -0.862,1.066 -0.769,1.148 0.092,0.082 0.587,-0.368 1.098,-0.999 1.146,-1.412 0.944,-1.503 -0.329,-0.149 m 8.099,40.078 c 0.385,0.1 1.015,0.1 1.4,0 0.385,-0.101 0.07,-0.183 -0.7,-0.183 -0.77,0 -1.085,0.082 -0.7,0.183"
     stroke="none"
     fill="#748da5"
     fill-rule="evenodd" />
  <path
     id="path3"
     d="m 60.52,64.707807 c 0,1.21 0.075,1.705 0.167,1.1 0.091,-0.605 0.091,-1.595 0,-2.2 -0.092,-0.605 -0.167,-0.11 -0.167,1.1"
     stroke="none"
     fill="#94a4b4"
     fill-rule="evenodd" />
  <path
     id="path4"
     d="m 60.032,10.299807 c -0.018,0.326 -1.606,2.216 -3.529,4.2 l -3.497,3.608 3.746,-3.652 c 2.284,-2.227 3.662,-3.866 3.529,-4.2 -0.174,-0.4369996 -0.224,-0.4289996 -0.249,0.044 m -1.07,6.908 -0.762,0.9 0.884,-0.747 0.883,-0.748 0.134,3.548 0.134,3.547 0.083,-3.7 c 0.086,-3.88 -0.106,-4.276 -1.356,-2.8 m -37.662,19.776 c 0.385,0.1 1.015,0.1 1.4,0 0.385,-0.101 0.07,-0.183 -0.7,-0.183 -0.77,0 -1.085,0.082 -0.7,0.183 m -7.672,3.894 c -0.894,0.952 -0.848,1.836 0.096,1.824 0.29,-0.004 0.246,-0.152 -0.114,-0.379 -0.497,-0.314 -0.439,-0.533 0.37,-1.394 0.528,-0.562 0.869,-1.021 0.759,-1.021 -0.11,0 -0.61,0.437 -1.111,0.97 m 46.92,6.23 c 0,2.31 0.066,3.255 0.147,2.1 0.081,-1.155 0.081,-3.045 0,-4.2 -0.081,-1.155 -0.147,-0.21 -0.147,2.1 m -12.714,17.946 c -0.348,0.562 -9.614,6.73 -10.563,7.032 -2.343,0.743 -0.288,1.022 7.529,1.022 7.26,0 9.569,-0.248 8.079,-0.867 -0.424,-0.176 -3.015,-4.582 -3.664,-6.233 -0.509,-1.293 -0.974,-1.614 -1.381,-0.954 m 4.166,11.249 c -0.409,0.26 -0.09,0.304 1,0.137 1.977,-0.303 2.314,-0.534 0.767,-0.526 -0.642,0.003 -1.437,0.178 -1.767,0.389 m -10.8,1.605 c -1.999,0.421 0.052,0.438 2.4,0.02 1.624,-0.288 1.663,-0.32 0.4,-0.317 -0.77,0.001 -2.03,0.135 -2.8,0.297 m -11.695,1.883 c 0.497,0.096 1.217,0.092 1.6,-0.008 0.382,-0.1 -0.025,-0.179 -0.905,-0.174 -0.88,0.004 -1.193,0.086 -0.695,0.182 m -14.4,2 c 0.497,0.096 1.217,0.092 1.6,-0.008 0.382,-0.1 -0.025,-0.179 -0.905,-0.174 -0.88,0.004 -1.193,0.086 -0.695,0.182"
     stroke="none"
     fill="#9cacbc"
     fill-rule="evenodd" />
</svg>
