<svg xmlns="http://www.w3.org/2000/svg" width="298" height="298" viewBox="0 0 78.846 78.846"><path d="M0 0c5.999 0 10.864-4.864 10.864-10.865v-46.453c0-5.999-4.865-10.864-10.864-10.864h-46.453c-6 0-10.865 4.865-10.865 10.864v46.453C-57.318-4.864-52.453 0-46.453 0z" style="fill:#fffc00;fill-opacity:1;fill-rule:nonzero;stroke:none" transform="matrix(1.1564 0 0 -1.1564 66.283 0)"/><path d="M992.5 756.3c-4.2-13.9-24.3-23.7-24.3-23.7-1.9-1-3.6-1.9-5-2.6-33.5-16.2-63.2-35.7-88.2-57.8-20.1-17.8-37.3-37.4-51.1-58.2-16.9-25.4-24.8-46.6-28.2-58.1-1.9-7.5-1.6-10.5 0-14.4 1.3-3.3 5.2-6.4 7-7.9 11.3-8 29.5-19.8 40.7-27 9.7-6.3 18-11.7 22.9-15.1 15.7-11 26.5-22.2 32.8-34.3 8.2-15.6 9.2-32.8 2.8-49.7-8.6-22.8-29.9-36.4-57-36.4-6 0-12.2.7-18.4 2-15.5 3.4-30.2 8.9-42.5 13.7-.9.4-1.9-.3-1.8-1.3 1.3-30.5 2.8-71.5-.6-110.4-3-35.2-10.3-64.9-22.1-90.8-11.9-26-27.4-45.2-39.5-59.1-11.5-13.2-31.8-32.7-62.4-50.2-43-24.6-92-37.1-145.6-37.1-53.5 0-102.4 12.5-145.5 37.1-32.4 18.5-53.1 39.4-62.5 50.2-12.1 13.9-27.6 33.1-39.5 59.1-11.9 25.9-19.1 55.5-22.1 90.8-3.4 39.1-2 76.8-.6 110.4 0 1-.9 1.7-1.9 1.3-12.3-4.8-27-10.3-42.5-13.7-6.1-1.3-12.3-2-18.4-2-27 0-48.3 13.6-57 36.4-6.4 16.9-5.4 34.1 2.8 49.7 6.4 12.1 17.1 23.3 32.8 34.3 4.8 3.4 13.2 8.8 22.9 15.1 10.9 7.1 28.6 18.6 40 26.5 1.4 1 6.2 4.6 7.7 8.4 1.6 4 1.9 7-.2 15-3.5 11.6-11.4 32.6-28 57.5-13.8 20.9-31 40.4-51.1 58.2-25 22.1-54.7 41.6-88.2 57.8-1.6.8-3.5 1.7-5.5 2.9 0 0-20 10.2-23.8 23.4-5.6 19.5 9.3 37.8 24.4 47.6 24.8 16 55 24.6 72.5 29.3 4.9 1.3 9.3 2.5 13.3 3.7 2.5.8 8.8 3.2 11.5 6.7 3.4 4.4 3.8 9.8 5 15.9 1.9 10.3 6.2 23 18.9 31.8 14 9.6 31.7 10.3 54.2 11.2 23.5.9 52.7 2 86.2 13.1 15.5 5.1 29.6 13.8 45.8 23.8 34 20.9 76.3 46.9 148.5 46.9 72.3 0 114.9-26.1 149.1-47.1 16.2-9.9 30.1-18.5 45.3-23.5 33.5-11.1 62.7-12.2 86.2-13.1 22.5-.9 40.2-1.5 54.2-11.2 13.6-9.4 17.5-23.4 19.3-33.9 1-5.2 1.6-9.9 4.6-13.7 2.6-3.3 8.4-5.6 11.1-6.5 4.1-1.3 8.7-2.5 13.8-3.9 17.5-4.7 39.5-10.2 66.2-25.3 32.2-18.3 34.4-40.7 31-51.8z" style="fill:#fff" transform="matrix(.05533 0 0 .05533 11.096 11.096)"/><path d="M1020.3 745.5c-7.1-19.4-20.7-29.7-36.1-38.3-2.9-1.7-5.6-3.1-7.8-4.1-4.6-2.4-9.3-4.7-14-7.1-48.1-25.5-85.7-57.7-111.7-95.8-8.8-12.9-14.9-24.5-19.2-34-2.2-6.4-2.1-10-.5-13.3 1.2-2.5 4.4-5.1 6.2-6.4 8.3-5.5 16.8-11 22.6-14.7 10.3-6.7 18.5-12 23.7-15.6 19.8-13.8 33.6-28.5 42.2-44.9 12.2-23.1 13.7-49.5 4.3-74.3-13-34.4-45.6-55.8-85-55.8-8.2 0-16.5.9-24.7 2.7-2.2.5-4.3 1-6.4 1.5.4-23.4-.2-48.4-2.3-72.8-7.4-86-37.5-131.1-68.9-167-13.1-15-35.9-36.9-70.1-56.5C624.9 21.7 570.9 7.9 512 7.9c-58.7 0-112.7 13.8-160.4 41.1-34.4 19.6-57.2 41.6-70.2 56.5-31.4 35.9-61.5 81-68.9 167-2.1 24.4-2.6 49.4-2.3 72.8-2.1-.5-4.3-1-6.4-1.5-8.2-1.8-16.6-2.7-24.7-2.7-39.4 0-72 21.4-85 55.8-9.4 24.8-7.9 51.2 4.3 74.3 8.6 16.4 22.5 31.1 42.2 44.9 5.3 3.7 13.4 9 23.7 15.6 5.6 3.6 13.7 8.9 21.7 14.2 1.2.8 5.5 4 7 7 1.7 3.4 1.7 7.1-.8 13.9-4.2 9.3-10.3 20.7-18.9 33.3-25.5 37.3-62 68.9-108.5 94.1-24.7 13.1-50.3 21.8-61.1 51.2-8.2 22.2-2.8 47.5 17.9 68.8C28.4 821.5 37 828 47.8 834c25.4 14 47 20.9 64 25.6 3 .9 9.9 3.1 12.9 5.8 7.6 6.6 6.5 16.6 16.6 31.2 6.1 9.1 13.1 15.3 18.9 19.3 21.1 14.6 44.9 15.5 70.1 16.5 22.7.9 48.5 1.9 77.9 11.6 12.2 4 24.9 11.8 39.5 20.8 35.2 21.7 83.5 51.3 164.2 51.3 80.8 0 129.3-29.8 164.8-51.5 14.6-8.9 27.2-16.7 39-20.6 29.4-9.7 55.2-10.7 77.9-11.6 25.2-1 48.9-1.9 70.1-16.5 6.6-4.6 15-12.1 21.6-23.5 7.2-12.3 7.1-21 13.9-26.9 2.8-2.4 8.9-4.5 12.2-5.5 17.1-4.7 39-11.6 64.9-25.9 11.5-6.3 20.4-13.2 27.5-21.1l.3-.3c19.3-21 24.2-45.5 16.2-67.2zM948.6 784c-43.8 24.2-72.9 21.6-95.5 36.1-19.2 12.4-7.9 39.1-21.8 48.7-17.2 11.9-67.9-.8-133.4 20.8-54 17.9-88.5 69.2-185.8 69.2-97.5 0-131-51.1-185.8-69.2-65.5-21.6-116.3-8.9-133.4-20.8-13.9-9.6-2.6-36.3-21.8-48.7-22.6-14.6-51.7-12-95.5-36.1-27.9-15.4-12.1-24.9-2.8-29.4 158.6-76.7 183.8-195.3 185-204.2 1.4-10.6 2.9-19-8.8-29.9-11.3-10.5-61.6-41.6-75.5-51.3-23.1-16.1-33.2-32.2-25.7-52 5.2-13.7 18-18.8 31.5-18.8 4.2 0 8.5.5 12.6 1.4 25.3 5.5 49.9 18.2 64.1 21.6 2 .5 3.7.7 5.2.7 7.6 0 10.2-3.8 9.7-12.5-1.6-27.7-5.6-81.7-1.2-132.2 6-69.4 28.4-103.8 55-134.3 12.8-14.6 72.8-78 187.5-78 115 0 174.7 63.4 187.5 78 26.6 30.4 49 64.8 55 134.3 4.4 50.5.6 104.5-1.2 132.2-.6 9.1 2.2 12.5 9.7 12.5 1.5 0 3.3-.2 5.2-.7 14.2-3.4 38.8-16.1 64.1-21.6 4.1-.9 8.4-1.4 12.6-1.4 13.5 0 26.3 5.2 31.5 18.8 7.5 19.8-2.7 35.9-25.7 52-13.9 9.7-64.2 40.8-75.5 51.3-11.7 10.8-10.2 19.2-8.8 29.9 1.1 8.9 26.4 127.5 185 204.2 9 4.5 24.9 14-3 29.4z" style="fill:#000;fill-opacity:1" transform="matrix(.05533 0 0 .05533 11.096 11.096)"/></svg>