<svg width="250" height="250" viewBox="0 0 250 250" fill="none" xmlns="http://www.w3.org/2000/svg">
<g clip-path="url(#clip0_2_7255)">
<path d="M169.816 58.8334C181.391 58.8334 190.778 68.2024 190.778 79.7617V169.24C190.778 180.796 181.391 190.167 169.816 190.167H80.1864C68.6097 190.167 59.2227 180.796 59.2227 169.24V79.7617C59.2227 68.2024 68.6096 58.8334 80.1864 58.8334H169.816Z" fill="#FFFC00"/>
<path d="M169.355 147.014C168.967 145.733 167.112 144.83 167.112 144.83C166.936 144.737 166.779 144.654 166.65 144.59C163.558 143.097 160.816 141.3 158.508 139.263C156.653 137.623 155.065 135.817 153.791 133.9C152.231 131.559 151.502 129.605 151.188 128.546C151.013 127.854 151.04 127.578 151.188 127.219C151.308 126.914 151.668 126.629 151.834 126.491C152.877 125.753 154.557 124.666 155.591 124.003C156.487 123.422 157.253 122.924 157.705 122.611C159.155 121.597 160.151 120.565 160.733 119.45C161.49 118.013 161.582 116.427 160.992 114.87C160.198 112.769 158.231 111.515 155.73 111.515C155.176 111.515 154.604 111.58 154.031 111.7C152.6 112.013 151.243 112.52 150.108 112.962C150.089 112.971 150.068 112.974 150.047 112.972C150.027 112.97 150.007 112.963 149.99 112.951C149.973 112.938 149.96 112.922 149.951 112.903C149.943 112.884 149.94 112.863 149.942 112.842C150.062 110.032 150.2 106.253 149.886 102.669C149.609 99.4246 148.936 96.6876 147.846 94.3008C146.748 91.9049 145.317 90.1354 144.2 88.8545C143.138 87.638 141.265 85.8411 138.44 84.2283C134.471 81.9613 129.947 80.8093 124.999 80.8093C120.061 80.8093 115.547 81.9613 111.568 84.2283C108.577 85.9332 106.666 87.8592 105.799 88.8545C104.682 90.1354 103.251 91.9049 102.152 94.3008C101.054 96.6877 100.389 99.4155 100.112 102.669C99.7986 106.272 99.9277 109.746 100.057 112.843C100.057 112.935 99.9738 112.999 99.8815 112.962C98.7461 112.52 97.3891 112.013 95.9583 111.7C95.3952 111.58 94.8229 111.515 94.2598 111.515C91.7674 111.515 89.8012 112.769 88.9979 114.87C88.4073 116.427 88.4996 118.012 89.2566 119.45C89.8472 120.565 90.835 121.597 92.2843 122.611C92.7274 122.924 93.5028 123.422 94.3983 124.003C95.4044 124.657 97.0384 125.717 98.0907 126.444C98.2198 126.537 98.663 126.869 98.8015 127.219C98.9491 127.587 98.9768 127.864 98.7831 128.601C98.4599 129.67 97.7306 131.605 96.1983 133.9C94.9243 135.826 93.3368 137.623 91.4812 139.263C89.1735 141.3 86.4318 143.097 83.3393 144.59C83.1917 144.664 83.0163 144.746 82.8316 144.857C82.8316 144.857 80.9854 145.797 80.6347 147.014C80.1178 148.811 81.4931 150.497 82.8872 151.4C85.1764 152.875 87.9641 153.667 89.5796 154.1C90.0318 154.22 90.438 154.331 90.8073 154.441C91.038 154.515 91.6197 154.736 91.869 155.059C92.1826 155.464 92.2197 155.962 92.3305 156.524C92.5058 157.473 92.9028 158.644 94.0751 159.455C95.3675 160.339 97.0015 160.404 99.0785 160.487C101.248 160.57 103.943 160.671 107.036 161.694C108.467 162.164 109.768 162.966 111.264 163.887C114.402 165.813 118.307 168.209 124.972 168.209C131.646 168.209 135.578 165.804 138.735 163.869C140.231 162.957 141.514 162.164 142.917 161.703C146.009 160.68 148.705 160.579 150.874 160.496C152.951 160.413 154.585 160.358 155.877 159.464C157.133 158.598 157.493 157.307 157.659 156.34C157.751 155.86 157.807 155.427 158.084 155.077C158.324 154.773 158.859 154.561 159.108 154.478C159.487 154.358 159.911 154.248 160.382 154.119C161.998 153.686 164.028 153.179 166.493 151.787C169.466 150.101 169.669 148.037 169.355 147.014Z" fill="white"/>
<path d="M171.92 146.018C171.264 144.231 170.009 143.281 168.587 142.489C168.32 142.332 168.071 142.203 167.868 142.111C167.443 141.89 167.009 141.678 166.575 141.457C162.135 139.107 158.664 136.139 156.264 132.628C155.452 131.439 154.888 130.37 154.492 129.495C154.288 128.905 154.298 128.573 154.445 128.269C154.556 128.039 154.852 127.799 155.018 127.68C155.709 127.222 156.405 126.771 157.104 126.325C158.055 125.707 158.812 125.219 159.292 124.887C161.12 123.615 162.393 122.261 163.187 120.749C164.314 118.621 164.452 116.188 163.584 113.902C162.384 110.732 159.375 108.76 155.738 108.76C154.981 108.76 154.215 108.843 153.458 109.009C153.255 109.055 153.061 109.101 152.867 109.147C152.904 106.991 152.849 104.687 152.655 102.438C151.972 94.5127 149.193 90.3566 146.294 87.0482C145.085 85.6658 142.98 83.6476 139.823 81.8414C135.42 79.3163 130.435 78.0446 124.998 78.0446C119.579 78.0446 114.595 79.3163 110.191 81.8324C107.016 83.6385 104.911 85.6658 103.711 87.039C100.813 90.3474 98.0341 94.5035 97.3508 102.429C97.1573 104.678 97.1109 106.981 97.1386 109.138C96.9449 109.092 96.7416 109.046 96.5479 109C95.799 108.835 95.0345 108.752 94.2677 108.751C90.6307 108.751 87.6214 110.723 86.4214 113.893C85.5537 116.178 85.6921 118.611 86.8183 120.74C87.6122 122.252 88.8953 123.606 90.7138 124.878C91.203 125.219 91.9508 125.707 92.9016 126.316C93.4185 126.647 94.1663 127.136 94.9048 127.624C95.0156 127.698 95.4125 127.993 95.5508 128.269C95.7078 128.583 95.7078 128.923 95.4771 129.55C95.0893 130.407 94.5262 131.458 93.7323 132.619C91.3784 136.056 88.0091 138.968 83.7165 141.291C81.4365 142.498 79.0734 143.3 78.0764 146.009C77.3194 148.055 77.8178 150.387 79.7288 152.349C80.3565 153.022 81.1504 153.621 82.1473 154.174C84.4921 155.464 86.4859 156.1 88.0552 156.533C88.3322 156.616 88.9692 156.819 89.246 157.068C89.9476 157.676 89.846 158.598 90.7784 159.943C91.3415 160.782 91.9877 161.353 92.5231 161.722C94.4708 163.067 96.6677 163.15 98.9942 163.242C101.09 163.325 103.471 163.417 106.185 164.311C107.311 164.68 108.484 165.399 109.832 166.228C113.081 168.228 117.539 170.956 124.989 170.956C132.448 170.956 136.925 168.209 140.202 166.209C141.55 165.389 142.713 164.671 143.802 164.311C146.516 163.417 148.898 163.325 150.993 163.242C153.319 163.15 155.507 163.067 157.464 161.722C158.279 161.154 158.96 160.415 159.458 159.556C160.123 158.423 160.113 157.621 160.741 157.077C161 156.856 161.563 156.662 161.867 156.57C163.446 156.137 165.467 155.501 167.858 154.183C168.92 153.603 169.741 152.967 170.397 152.239L170.425 152.211C172.206 150.276 172.659 148.018 171.92 146.018ZM165.301 149.566C161.258 151.797 158.572 151.557 156.486 152.893C154.713 154.036 155.756 156.496 154.473 157.381C152.885 158.478 148.205 157.307 142.159 159.298C137.174 160.948 133.989 165.675 125.007 165.675C116.007 165.675 112.915 160.966 107.856 159.298C101.81 157.307 97.1202 158.478 95.5417 157.381C94.2586 156.496 95.3017 154.036 93.5294 152.893C91.4431 151.548 88.7568 151.787 84.7136 149.566C82.1381 148.147 83.5966 147.272 84.455 146.857C99.0956 139.789 101.422 128.859 101.533 128.039C101.662 127.062 101.8 126.288 100.72 125.283C99.6772 124.316 95.0341 121.45 93.7508 120.556C91.6185 119.072 90.6861 117.588 91.3784 115.764C91.8584 114.501 93.04 114.031 94.2863 114.031C94.674 114.031 95.071 114.077 95.4492 114.16C97.7848 114.667 100.056 115.838 101.366 116.151C101.551 116.197 101.708 116.215 101.846 116.215C102.548 116.215 102.788 115.865 102.742 115.063C102.594 112.511 102.225 107.534 102.631 102.88C103.185 96.4848 105.253 93.3147 107.708 90.504C108.89 89.1586 114.429 83.3158 125.017 83.3158C135.632 83.3158 141.143 89.1586 142.325 90.504C144.78 93.3057 146.848 96.4757 147.402 102.88C147.808 107.534 147.458 112.511 147.291 115.063C147.236 115.902 147.494 116.215 148.187 116.215C148.325 116.215 148.491 116.197 148.667 116.151C149.978 115.838 152.248 114.667 154.584 114.16C154.966 114.076 155.356 114.033 155.747 114.031C156.993 114.031 158.175 114.511 158.655 115.764C159.347 117.588 158.406 119.072 156.283 120.556C154.999 121.45 150.356 124.316 149.313 125.283C148.233 126.279 148.371 127.053 148.501 128.039C148.602 128.859 150.938 139.789 165.578 146.857C166.409 147.272 167.877 148.147 165.301 149.566Z" fill="black"/>
</g>
<defs>
<clipPath id="clip0_2_7255">
<rect width="250" height="250" fill="white"/>
</clipPath>
</defs>
</svg>
