<svg xmlns="http://www.w3.org/2000/svg" width="250" height="250" fill="none"><path fill="#FFFC00" d="M190.864 28.222c17.011 0 30.807 13.736 30.807 30.684v131.191c0 16.942-13.796 30.681-30.807 30.681H59.134c-17.014 0-30.81-13.739-30.81-30.681V58.907c0-16.948 13.796-30.685 30.81-30.685h131.73Z"/><path fill="#fff" d="M190.188 157.509c-.57-1.878-3.297-3.202-3.297-3.202a35.057 35.057 0 0 0-.678-.352c-4.545-2.189-8.574-4.823-11.966-7.81-2.727-2.405-5.06-5.053-6.933-7.863-2.292-3.432-3.364-6.297-3.826-7.85-.257-1.014-.217-1.419 0-1.946.177-.446.706-.865.95-1.067 1.533-1.081 4.002-2.676 5.522-3.648 1.316-.852 2.442-1.581 3.107-2.041 2.13-1.486 3.595-2.999 4.45-4.634 1.112-2.108 1.248-4.432.38-6.715-1.167-3.081-4.057-4.918-7.734-4.918-.814 0-1.655.094-2.496.27-2.103.459-4.097 1.202-5.766 1.851a.182.182 0 0 1-.089.015.191.191 0 0 1-.084-.032.17.17 0 0 1-.071-.159c.176-4.121.38-9.66-.082-14.916-.407-4.757-1.397-8.77-2.998-12.269-1.614-3.513-3.717-6.107-5.359-7.985-1.56-1.784-4.314-4.418-8.466-6.783-5.833-3.324-12.481-5.013-19.753-5.013-7.258 0-13.893 1.69-19.74 5.013-4.396 2.5-7.204 5.324-8.48 6.783-1.64 1.878-3.744 4.472-5.358 7.985-1.615 3.5-2.592 7.499-2.999 12.269-.46 5.282-.27 10.376-.081 14.916 0 .135-.122.23-.258.176-1.668-.649-3.663-1.392-5.766-1.851a12.042 12.042 0 0 0-2.496-.27c-3.663 0-6.553 1.837-7.733 4.918-.868 2.283-.733 4.607.38 6.715.868 1.635 2.32 3.148 4.45 4.634.651.46 1.79 1.19 3.107 2.041 1.478.959 3.88 2.513 5.426 3.58.19.135.842.622 1.045 1.135.217.54.258.946-.027 2.027-.475 1.567-1.547 4.405-3.799 7.769-1.872 2.824-4.206 5.458-6.933 7.864-3.391 2.986-7.42 5.62-11.966 7.809-.217.108-.474.23-.746.392 0 0-2.713 1.378-3.229 3.162-.76 2.634 1.262 5.107 3.31 6.431 3.365 2.162 7.462 3.324 9.837 3.959a61.17 61.17 0 0 1 1.804.5c.34.108 1.194.432 1.56.905.461.595.516 1.324.679 2.149.257 1.391.84 3.107 2.564 4.296 1.9 1.297 4.3 1.392 7.353 1.513 3.188.122 7.15.271 11.695 1.77 2.103.69 4.015 1.865 6.214 3.216 4.612 2.824 10.351 6.337 20.146 6.337 9.809 0 15.589-3.526 20.229-6.364 2.197-1.337 4.083-2.499 6.146-3.175 4.544-1.5 8.506-1.649 11.694-1.77 3.053-.122 5.454-.203 7.353-1.513 1.845-1.27 2.375-3.162 2.619-4.581.135-.702.217-1.337.624-1.851.353-.446 1.139-.756 1.506-.878.556-.176 1.18-.338 1.872-.527 2.374-.635 5.359-1.378 8.981-3.418 4.369-2.473 4.667-5.5 4.206-6.999Z"/><path fill="#000" d="M193.962 156.05c-.964-2.622-2.809-4.013-4.898-5.175-.394-.23-.76-.419-1.058-.554-.624-.325-1.262-.635-1.9-.96-6.525-3.445-11.627-7.796-15.154-12.944a30.274 30.274 0 0 1-2.605-4.593c-.298-.865-.285-1.352-.068-1.798.163-.337.597-.689.841-.864a216.523 216.523 0 0 1 3.066-1.986c1.398-.906 2.511-1.622 3.216-2.108 2.686-1.865 4.558-3.851 5.725-6.067 1.655-3.121 1.859-6.688.584-10.039-1.764-4.648-6.187-7.539-11.532-7.539-1.113 0-2.239.121-3.351.364-.299.068-.584.136-.868.203.053-3.162-.028-6.54-.313-9.836-1.004-11.62-5.087-17.714-9.347-22.565-1.778-2.026-4.871-4.985-9.511-7.634-6.471-3.702-13.797-5.566-21.788-5.566-7.964 0-15.29 1.864-21.762 5.553-4.667 2.648-7.76 5.62-9.524 7.634-4.26 4.85-8.343 10.944-9.347 22.564-.285 3.297-.353 6.675-.313 9.837-.284-.068-.583-.136-.868-.203a15.8 15.8 0 0 0-3.35-.365c-5.346 0-9.769 2.892-11.532 7.539-1.276 3.351-1.072 6.918.583 10.039 1.167 2.216 3.052 4.203 5.725 6.067.719.5 1.818 1.216 3.215 2.108.76.486 1.86 1.202 2.944 1.918.163.109.747.541.95.946.23.46.23.96-.108 1.878a29.79 29.79 0 0 1-2.565 4.5c-3.46 5.04-8.411 9.309-14.72 12.714-3.35 1.77-6.824 2.946-8.289 6.918-1.113 3-.38 6.418 2.428 9.296.923.986 2.09 1.864 3.555 2.675 3.446 1.892 6.376 2.824 8.683 3.459.407.122 1.343.419 1.75.784 1.031.891.882 2.243 2.252 4.215a9.783 9.783 0 0 0 2.564 2.608c2.863 1.973 6.091 2.094 9.51 2.229 3.08.122 6.58.257 10.57 1.568 1.654.54 3.377 1.594 5.358 2.81 4.776 2.932 11.329 6.932 22.277 6.932 10.962 0 17.542-4.027 22.358-6.959 1.981-1.203 3.691-2.256 5.292-2.783 3.988-1.311 7.489-1.446 10.568-1.568 3.419-.135 6.634-.256 9.511-2.229a9.963 9.963 0 0 0 2.93-3.175c.977-1.662.963-2.838 1.886-3.635.38-.324 1.207-.608 1.655-.743 2.32-.635 5.291-1.567 8.805-3.5 1.56-.851 2.768-1.783 3.731-2.85l.041-.041c2.618-2.837 3.283-6.148 2.198-9.079Zm-9.728 5.201c-5.942 3.27-9.89 2.919-12.956 4.878-2.605 1.675-1.072 5.283-2.958 6.58-2.334 1.608-9.212-.108-18.098 2.81-7.327 2.419-12.007 9.351-25.208 9.351-13.228 0-17.773-6.905-25.207-9.351-8.886-2.918-15.778-1.202-18.099-2.81-1.885-1.297-.352-4.904-2.957-6.58-3.066-1.973-7.014-1.621-12.956-4.878-3.786-2.08-1.642-3.364-.38-3.972 21.517-10.363 24.936-26.388 25.098-27.59.19-1.433.394-2.568-1.193-4.04-1.533-1.419-8.357-5.621-10.243-6.932-3.134-2.175-4.505-4.351-3.487-7.026.705-1.851 2.442-2.54 4.273-2.54.57 0 1.154.068 1.71.189 3.432.743 6.77 2.46 8.696 2.919.272.067.502.094.706.094 1.03 0 1.384-.513 1.316-1.689-.217-3.742-.76-11.038-.163-17.862.814-9.377 3.853-14.025 7.462-18.146 1.736-1.972 9.877-10.539 25.438-10.539 15.602 0 23.701 8.567 25.438 10.54 3.609 4.107 6.648 8.755 7.462 18.145.597 6.824.081 14.12-.163 17.862-.081 1.23.298 1.689 1.316 1.689.203 0 .448-.026.705-.094 1.927-.459 5.264-2.176 8.697-2.919a8.113 8.113 0 0 1 1.709-.189c1.832 0 3.568.703 4.274 2.54 1.017 2.675-.367 4.851-3.487 7.026-1.886 1.311-8.71 5.513-10.243 6.932-1.587 1.459-1.384 2.594-1.194 4.04.149 1.202 3.582 17.227 25.099 27.59 1.221.608 3.378 1.892-.407 3.972Z"/></svg>