<?xml version="1.0" encoding="UTF-8" standalone="no"?>
<svg
   width="43.36087"
   height="43.46875"
   viewBox="0 0 43.36087 43.46875"
   version="1.1"
   id="svg1264"
   sodipodi:docname="snowflake.svg"
   inkscape:version="1.2.1 (9c6d41e410, 2022-07-14, custom)"
   xmlns:inkscape="http://www.inkscape.org/namespaces/inkscape"
   xmlns:sodipodi="http://sodipodi.sourceforge.net/DTD/sodipodi-0.dtd"
   xmlns="http://www.w3.org/2000/svg"
   xmlns:svg="http://www.w3.org/2000/svg"
   xmlns:rdf="http://www.w3.org/1999/02/22-rdf-syntax-ns#"
   xmlns:cc="http://creativecommons.org/ns#"
   xmlns:dc="http://purl.org/dc/elements/1.1/">
  <defs
     id="defs1268" />
  <sodipodi:namedview
     id="namedview1266"
     pagecolor="#ffffff"
     bordercolor="#666666"
     borderopacity="1.0"
     inkscape:showpageshadow="2"
     inkscape:pageopacity="0.0"
     inkscape:pagecheckerboard="0"
     inkscape:deskcolor="#d1d1d1"
     showgrid="false"
     inkscape:zoom="7.375"
     inkscape:cx="91.932203"
     inkscape:cy="21.423729"
     inkscape:window-width="3840"
     inkscape:window-height="2083"
     inkscape:window-x="0"
     inkscape:window-y="40"
     inkscape:window-maximized="1"
     inkscape:current-layer="svg1264" />
  <!-- Generator: Sketch 55.2 (78181) - https://sketchapp.com -->
  <title
     id="title1242">Group</title>
  <desc
     id="desc1244">Created with Sketch.</desc>
  <path
     d="m 37.263747,33.128906 -9.175782,-5.300781 c -1.289063,-0.742187 -2.9375,-0.300781 -3.683594,0.988281 -0.289063,0.507813 -0.402344,1.066406 -0.347656,1.609375 v 10.359375 c 0,1.480469 1.203124,2.683594 2.6875,2.683594 1.480468,0 2.683593,-1.203125 2.683593,-2.683594 v -5.957031 l 5.140625,2.96875 c 1.289064,0.746094 2.941406,0.300781 3.683594,-0.988281 0.746095,-1.289063 0.304689,-2.9375 -0.98828,-3.679688"
     id="Path"
     style="fill:#29b5e8;fill-rule:nonzero;stroke:none;stroke-width:1" />
  <path
     d="m 14.443433,21.769531 c 0.01563,-0.957031 -0.48828,-1.847656 -1.316405,-2.328125 L 3.9512465,14.144531 c -0.398438,-0.230469 -0.855469,-0.351562 -1.3125,-0.351562 -0.941407,0 -1.816407,0.503906 -2.285157,1.316406 -0.72656201,1.257813 -0.29296801,2.871094 0.964844,3.597656 l 5.289063,3.050781 -5.289063,3.054688 c -0.60937501,0.351562 -1.046875,0.917969 -1.22656201,1.597656 -0.18359399,0.679688 -0.089844,1.390625 0.26171801,2 0.46875,0.8125 1.34375,1.316406 2.28125,1.316406 0.460938,0 0.917969,-0.121093 1.316407,-0.351562 l 9.1757815,-5.296875 c 0.820312,-0.476563 1.324219,-1.359375 1.316405,-2.308594"
     id="Path2"
     style="fill:#29b5e8;fill-rule:nonzero;stroke:none;stroke-width:1" />
  <path
     d="M 6.0332775,10.390625 15.209058,15.6875 c 1.070313,0.621094 2.390625,0.417969 3.234375,-0.40625 0.535156,-0.492188 0.867188,-1.195312 0.867188,-1.976562 V 2.6875 C 19.310621,1.203125 18.107496,0 16.627027,0 15.142653,0 13.939528,1.203125 13.939528,2.6875 V 8.730469 L 8.7285895,5.722656 c -1.289062,-0.746094 -2.9375,-0.304687 -3.683593,0.984375 -0.746094,1.289063 -0.300781,2.9375 0.988281,3.683594"
     id="Path3"
     style="fill:#29b5e8;fill-rule:nonzero;stroke:none;stroke-width:1" />
  <path
     d="m 26.666089,22.199219 c 0,0.203125 -0.117187,0.484375 -0.261718,0.632812 l -3.636719,3.636719 c -0.144531,0.144531 -0.429687,0.261719 -0.632813,0.261719 h -0.925781 c -0.203125,0 -0.488281,-0.117188 -0.632812,-0.261719 l -3.640625,-3.636719 c -0.144532,-0.148437 -0.261719,-0.429687 -0.261719,-0.632812 v -0.925781 c 0,-0.207032 0.117187,-0.488282 0.261719,-0.632813 L 20.576246,17 c 0.144531,-0.144531 0.429687,-0.261719 0.632812,-0.261719 h 0.925781 c 0.203126,0 0.488282,0.117188 0.632813,0.261719 l 3.636719,3.640625 c 0.144531,0.144531 0.261718,0.425781 0.261718,0.632813 z m -3.246093,-0.445313 v -0.03906 c 0,-0.148438 -0.08594,-0.355469 -0.191407,-0.464844 L 22.154371,20.17969 c -0.105469,-0.109376 -0.3125,-0.195313 -0.464844,-0.195313 h -0.03906 c -0.148438,0 -0.355469,0.08594 -0.464844,0.195313 L 20.115308,21.25 c -0.105469,0.105469 -0.191406,0.3125 -0.191406,0.464844 v 0.03906 c 0,0.152344 0.08594,0.359375 0.191406,0.464844 l 1.070313,1.074219 c 0.109375,0.105469 0.316406,0.191406 0.464844,0.191406 h 0.03906 c 0.152344,0 0.359375,-0.08594 0.464844,-0.191406 l 1.074218,-1.074219 c 0.105469,-0.105469 0.191407,-0.3125 0.191407,-0.464844 z"
     id="Combined-Shape"
     style="fill:#29b5e8;fill-rule:nonzero;stroke:none;stroke-width:1" />
  <path
     d="m 28.087965,15.6875 9.175782,-5.296875 C 38.552808,9.648438 38.998122,7.996094 38.252027,6.707031 37.505933,5.417969 35.857497,4.976562 34.568433,5.722656 l -5.140625,2.96875 V 2.6875 C 29.427808,1.203125 28.224683,0 26.744215,0 c -1.484376,0 -2.6875,1.203125 -2.6875,2.6875 v 10.40625 c -0.05078,0.539062 0.05469,1.101562 0.347656,1.609375 0.746094,1.289063 2.394531,1.730469 3.683594,0.984375"
     id="Path4"
     style="fill:#29b5e8;fill-rule:nonzero;stroke:none;stroke-width:1" />
  <path
     d="m 17.048902,27.515625 c -0.609375,-0.117187 -1.261719,-0.01953 -1.839844,0.3125 l -9.1757805,5.300781 c -1.289062,0.742188 -1.734375,2.390625 -0.988281,3.679688 0.746093,1.292968 2.394531,1.734375 3.683593,0.988281 l 5.2109385,-3.007813 v 5.996094 c 0,1.480469 1.203125,2.683594 2.687499,2.683594 1.480469,0 2.683594,-1.203125 2.683594,-2.683594 V 30.167969 c 0,-1.339844 -0.980469,-2.449219 -2.261719,-2.652344"
     id="Path5"
     style="fill:#29b5e8;fill-rule:nonzero;stroke:none;stroke-width:1" />
  <path
     d="M 42.998122,15.078125 C 42.255933,13.785156 40.603589,13.34375 39.314527,14.089844 l -9.175781,5.296875 c -0.878907,0.507812 -1.363281,1.4375 -1.347657,2.382812 -0.0078,0.941407 0.476563,1.859375 1.347657,2.359375 l 9.175781,5.300782 c 1.289062,0.742187 2.9375,0.300781 3.683595,-0.988282 0.746094,-1.289062 0.30078,-2.9375 -0.988283,-3.683594 l -5.195312,-3 5.195312,-3 c 1.292969,-0.742187 1.734377,-2.390624 0.988283,-3.679687"
     id="Path6"
     style="fill:#29b5e8;fill-rule:nonzero;stroke:none;stroke-width:1" />
  <metadata
     id="metadata1270">
    <rdf:RDF>
      <cc:Work
         rdf:about="">
        <dc:title>Group</dc:title>
      </cc:Work>
    </rdf:RDF>
  </metadata>
</svg>
