<svg xmlns="http://www.w3.org/2000/svg" width="43.361" height="43.469"><path d="m37.264 33.129-9.176-5.3a2.695 2.695 0 0 0-4.031 2.598v10.358a2.687 2.687 0 0 0 5.37 0v-5.957l5.141 2.969a2.696 2.696 0 0 0 2.696-4.668M14.443 21.77a2.642 2.642 0 0 0-1.316-2.329l-9.176-5.296a2.633 2.633 0 0 0-1.312-.352c-.942 0-1.817.504-2.285 1.316a2.636 2.636 0 0 0 .964 3.598l5.29 3.05-5.29 3.055A2.603 2.603 0 0 0 .092 26.41c-.184.68-.09 1.39.262 2a2.641 2.641 0 0 0 3.597.965l9.176-5.297a2.648 2.648 0 0 0 1.316-2.308M6.033 10.39l9.176 5.297c1.07.622 2.39.418 3.234-.406a2.675 2.675 0 0 0 .868-1.976V2.688a2.687 2.687 0 1 0-5.371 0V8.73L8.729 5.723a2.696 2.696 0 1 0-2.696 4.668M26.666 22.2c0 .202-.117.484-.262.632l-3.636 3.637c-.145.144-.43.261-.633.261h-.926c-.203 0-.488-.117-.633-.261l-3.64-3.637a1.04 1.04 0 0 1-.262-.633v-.926c0-.207.117-.488.262-.632L20.576 17c.145-.145.43-.262.633-.262h.926c.203 0 .488.117.633.262l3.636 3.64c.145.145.262.426.262.633zm-3.246-.446v-.04a.77.77 0 0 0-.191-.464l-1.075-1.07a.734.734 0 0 0-.464-.196h-.04a.752.752 0 0 0-.464.196l-1.07 1.07a.752.752 0 0 0-.192.465v.039c0 .152.086.36.191.465l1.07 1.074a.77.77 0 0 0 .465.191h.04c.152 0 .359-.086.464-.191l1.075-1.074a.752.752 0 0 0 .191-.465zM28.088 15.688l9.176-5.297a2.696 2.696 0 1 0-2.696-4.668l-5.14 2.968V2.687a2.687 2.687 0 1 0-5.371 0v10.407a2.696 2.696 0 0 0 4.031 2.594M17.049 27.516a2.674 2.674 0 0 0-1.84.312l-9.176 5.3a2.691 2.691 0 0 0-.988 3.68 2.693 2.693 0 0 0 3.684.989l5.21-3.008v5.996a2.687 2.687 0 0 0 5.372 0V30.168c0-1.34-.98-2.45-2.262-2.652M42.998 15.078a2.692 2.692 0 0 0-3.683-.988l-9.176 5.297a2.699 2.699 0 0 0-1.348 2.383 2.69 2.69 0 0 0 1.348 2.359l9.176 5.3a2.697 2.697 0 1 0 2.695-4.672l-5.195-3 5.195-3a2.688 2.688 0 0 0 .988-3.679" style="fill:#29b5e8;fill-rule:nonzero;stroke:none;stroke-width:1"/></svg>