<svg width="250" height="250" viewBox="0 0 250 250" fill="none" xmlns="http://www.w3.org/2000/svg">
<path d="M172.808 159.728L145.057 143.696C141.158 141.451 136.172 142.786 133.916 146.685C133.042 148.221 132.699 149.91 132.865 151.552V182.884C132.865 187.361 136.503 191 140.993 191C145.47 191 149.109 187.361 149.109 182.884V164.867L164.657 173.846C168.555 176.102 173.553 174.756 175.797 170.857C178.054 166.958 176.719 161.973 172.808 159.728Z" fill="#29B5E8"/>
<path d="M103.789 125.372C103.836 122.477 102.312 119.784 99.8074 118.331L72.0558 102.311C70.8507 101.614 69.4685 101.247 68.0862 101.247C65.239 101.247 62.5926 102.771 61.1749 105.229C58.9774 109.033 60.2888 113.912 64.093 116.11L80.0895 125.337L64.093 134.575C62.25 135.639 60.9268 137.352 60.3833 139.407C59.8281 141.463 60.1116 143.613 61.1749 145.456C62.5926 147.914 65.239 149.438 68.0744 149.438C69.4685 149.438 70.8507 149.071 72.0558 148.374L99.8074 132.354C102.288 130.913 103.812 128.243 103.789 125.372Z" fill="#29B5E8"/>
<path d="M78.3531 90.9571L106.105 106.977C109.342 108.856 113.335 108.241 115.887 105.749C117.505 104.26 118.51 102.133 118.51 99.7705V67.6594C118.51 63.17 114.871 59.5312 110.393 59.5312C105.904 59.5312 102.265 63.17 102.265 67.6594V85.9361L86.5049 76.8391C82.6062 74.5826 77.6206 75.9176 75.3641 79.8163C73.1076 83.715 74.4544 88.7006 78.3531 90.9571Z" fill="#29B5E8"/>
<path d="M140.756 126.672C140.756 127.286 140.402 128.136 139.964 128.585L128.965 139.584C128.528 140.022 127.666 140.376 127.051 140.376H124.251C123.637 140.376 122.775 140.022 122.338 139.584L111.327 128.585C110.89 128.136 110.535 127.286 110.535 126.672V123.872C110.535 123.245 110.89 122.395 111.327 121.958L122.338 110.947C122.775 110.51 123.637 110.155 124.251 110.155H127.051C127.666 110.155 128.528 110.51 128.965 110.947L139.964 121.958C140.402 122.395 140.756 123.245 140.756 123.872V126.672ZM130.938 125.325V125.207C130.938 124.758 130.678 124.131 130.359 123.801L127.111 120.564C126.792 120.233 126.165 119.973 125.705 119.973H125.586C125.138 119.973 124.511 120.233 124.181 120.564L120.943 123.801C120.625 124.12 120.365 124.746 120.365 125.207V125.325C120.365 125.785 120.625 126.412 120.943 126.731L124.181 129.98C124.511 130.298 125.138 130.558 125.586 130.558H125.705C126.165 130.558 126.792 130.298 127.111 129.98L130.359 126.731C130.678 126.412 130.938 125.785 130.938 125.325Z" fill="#29B5E8"/>
<path d="M145.057 106.977L172.809 90.9571C176.708 88.7124 178.055 83.715 175.798 79.8163C173.542 75.9176 168.556 74.5826 164.657 76.8391L149.11 85.8179V67.6594C149.11 63.17 145.471 59.5312 140.993 59.5312C136.504 59.5312 132.865 63.17 132.865 67.6594V99.1325C132.712 100.763 133.031 102.464 133.917 104C136.173 107.899 141.159 109.234 145.057 106.977Z" fill="#29B5E8"/>
<path d="M111.669 142.751C109.826 142.396 107.853 142.691 106.105 143.696L78.3531 159.728C74.4544 161.972 73.1076 166.958 75.3641 170.857C77.6206 174.767 82.6062 176.102 86.5049 173.846L102.265 164.749V182.883C102.265 187.361 105.904 191 110.393 191C114.871 191 118.51 187.361 118.51 182.883V150.772C118.51 146.72 115.544 143.365 111.669 142.751Z" fill="#29B5E8"/>
<path d="M190.149 105.134C187.904 101.224 182.907 99.8885 179.008 102.145L151.257 118.165C148.599 119.701 147.134 122.513 147.181 125.372C147.157 128.219 148.622 130.995 151.257 132.508L179.008 148.54C182.907 150.784 187.893 149.449 190.149 145.551C192.406 141.652 191.059 136.666 187.16 134.41L171.447 125.336L187.16 116.263C191.071 114.018 192.406 109.033 190.149 105.134Z" fill="#29B5E8"/>
</svg>
