<?xml version="1.0" standalone="no"?>
<!DOCTYPE svg PUBLIC "-//W3C//DTD SVG 20010904//EN"
 "http://www.w3.org/TR/2001/REC-SVG-20010904/DTD/svg10.dtd">
<svg version="1.0" xmlns="http://www.w3.org/2000/svg"
 width="237.000000pt" height="213.000000pt" viewBox="0 0 237.000000 213.000000"
 preserveAspectRatio="xMidYMid meet">
<metadata>
Created by potrace 1.10, written by Peter Selinger 2001-2011
</metadata>
<g transform="translate(0.000000,213.000000) scale(0.100000,-0.100000)"
fill="#000000" stroke="none">
<path d="M1112 1824 c-51 -53 -90 -100 -87 -105 4 -5 0 -6 -8 -4 -7 3 -22 -3
-32 -15 -17 -19 -30 -20 -182 -20 l-163 0 0 -165 0 -166 -120 -121 c-66 -66
-120 -121 -120 -123 0 -1 54 -55 121 -121 l120 -119 -3 -168 -3 -167 170 0
171 0 76 -78 c42 -42 94 -95 117 -117 l41 -39 55 54 c30 29 51 58 48 63 -3 6
-2 7 4 4 13 -8 66 47 56 58 -5 4 -3 5 3 2 7 -4 25 8 40 26 l29 32 183 -3 c100
-1 182 0 182 3 0 5 -218 223 -298 299 l-31 29 -36 -32 c-178 -156 -455 -99
-559 114 -53 109 -51 230 6 338 37 69 77 106 161 149 56 29 71 32 152 32 81 1
96 -2 155 -30 36 -18 78 -44 93 -59 l29 -28 162 159 c90 88 164 162 165 167 0
4 -81 7 -182 7 l-183 0 -101 103 c-56 56 -110 110 -120 119 -18 16 -23 13
-111 -78z m93 56 c-3 -5 2 -10 13 -10 10 0 27 -9 37 -20 10 -11 13 -20 7 -20
-6 0 -14 5 -17 11 -5 6 -13 3 -22 -10 -8 -12 -18 -19 -23 -16 -11 7 -21 -48
-18 -92 2 -23 10 -35 28 -44 14 -6 20 -13 14 -16 -7 -2 -10 -13 -7 -23 4 -15
0 -20 -17 -20 -20 0 -22 -4 -18 -52 l3 -53 -52 -6 c-57 -7 -148 -49 -175 -80
-17 -20 -19 -18 -111 73 -51 51 -101 100 -111 108 -18 14 -18 13 -12 -10 6
-21 5 -22 -4 -7 -6 9 -16 17 -21 17 -17 0 16 -40 111 -136 l91 -91 -35 -52
c-36 -53 -66 -134 -66 -178 0 -21 -4 -23 -59 -23 l-59 0 0 231 c0 213 -1 231
-18 244 -19 14 -19 14 0 15 12 0 16 5 12 15 -3 8 -1 15 4 15 6 0 10 -4 10 -8
0 -5 108 -10 240 -11 l240 -2 1 23 2 23 4 -22 c3 -13 12 -23 21 -23 14 0 14 2
3 9 -8 5 -11 16 -8 25 6 14 -4 16 -69 16 -41 0 -73 -4 -70 -9 3 -5 -4 -11 -15
-14 -12 -3 -18 -3 -15 0 3 4 1 12 -6 20 -6 7 -8 16 -5 20 4 3 9 -1 12 -8 4
-10 33 13 95 75 50 49 90 91 90 93 0 2 -11 -4 -25 -13 -31 -20 -32 -10 -2 22
23 25 32 31 22 14z m196 -210 c7 0 6 6 -2 17 -13 15 -12 15 8 2 12 -7 19 -17
14 -22 -13 -13 -60 -16 -58 -3 1 7 -23 12 -65 14 l-68 3 0 76 0 76 80 -81 c44
-45 85 -82 91 -82z m-151 -31 c0 -11 398 -7 455 4 26 6 27 5 5 -2 -17 -6 -20
-9 -7 -10 9 -1 17 -5 17 -11 0 -5 -7 -7 -15 -4 -12 5 -87 -61 -220 -194 -2 -3
-13 2 -22 10 -31 27 -147 76 -188 80 l-40 4 -1 67 c-1 37 2 67 7 67 5 0 9 -5
9 -11z m-611 -414 l2 -95 -66 0 c-49 0 -71 -4 -83 -17 -16 -16 -16 -16 5 -11
15 4 20 2 17 -7 -4 -9 12 -12 58 -11 l63 1 3 -84 c2 -68 5 -82 17 -77 9 3 15
-1 15 -10 0 -11 -5 -12 -17 -6 -10 5 -24 8 -31 6 -7 -1 -8 0 -2 3 26 12 -93
144 -135 148 -31 4 -60 25 -33 25 9 0 19 -6 21 -12 4 -10 6 -10 6 0 1 7 -5 15
-13 18 -12 4 -12 12 -4 36 8 21 13 26 19 17 6 -11 14 -8 36 11 38 34 42 41 36
59 -4 12 -3 13 4 3 7 -10 16 -7 36 14 29 29 34 44 15 44 -8 0 8 24 28 39 0 1
2 -42 3 -94z m35 -101 c23 -9 19 -24 -6 -25 -13 0 -17 -3 -10 -6 6 -2 12 -11
12 -19 0 -10 -8 -7 -25 10 -28 29 -32 41 -9 32 8 -3 12 -2 9 4 -7 11 6 13 29
4z m135 -110 c9 -42 27 -85 52 -124 l38 -59 -105 -106 c-57 -58 -106 -105
-108 -105 -4 0 -5 453 -1 460 2 3 27 4 57 2 l55 -4 12 -64z m795 -338 c38 -38
81 -72 95 -76 25 -6 43 -40 22 -40 -6 0 -11 6 -11 13 0 9 -54 11 -242 9 l-243
-3 3 56 c3 44 1 55 -11 55 -22 0 -32 19 -17 33 9 9 11 8 8 -3 -2 -12 9 -15 57
-15 67 1 155 37 197 80 l23 24 25 -32 c14 -18 56 -63 94 -101z m-651 111 c8
-21 129 -77 181 -85 l48 -7 2 -48 c1 -30 7 -52 16 -57 10 -6 -78 -10 -235 -10
-165 0 -245 -4 -235 -10 11 -7 8 -10 -16 -10 -26 0 -34 6 -44 30 -7 17 -10 33
-6 37 3 3 6 1 6 -7 0 -9 9 -11 30 -6 19 3 29 2 25 -4 -3 -6 -2 -10 2 -10 5 0
53 45 108 100 55 55 103 100 106 100 4 0 9 -6 12 -13z m257 -227 c-10 -6 -11
-10 -2 -10 6 0 12 -4 12 -10 0 -5 -7 -7 -15 -4 -18 7 -25 -23 -23 -98 3 -58
17 -82 19 -30 0 27 0 27 10 4 5 -13 18 -26 29 -29 11 -3 17 -9 14 -14 -3 -5
-16 -6 -30 -3 -19 5 -24 2 -24 -12 0 -15 2 -16 9 -5 6 9 11 10 15 2 4 -6 2
-11 -4 -11 -6 0 -8 -6 -4 -12 3 -7 -7 1 -23 17 -17 17 -28 35 -26 42 7 17
-122 137 -155 144 -15 4 15 6 67 5 79 -1 95 2 105 17 6 9 18 17 26 17 13 0 13
-1 0 -10z m143 -24 c78 6 103 1 44 -10 -33 -6 -47 -14 -47 -27 0 -6 4 -7 10
-4 6 3 7 -1 3 -10 -5 -13 -7 -14 -14 -3 -7 10 -22 0 -60 -39 -28 -29 -52 -53
-55 -53 -2 0 -4 41 -4 92 l0 92 21 -23 c20 -21 26 -22 102 -15z"/>
</g>
</svg>
