<svg xmlns="http://www.w3.org/2000/svg" width="250" height="250" fill="none"><g clip-path="url(#a)"><path fill="#0F80CC" d="M176.495 32.961H49.479a15.539 15.539 0 0 0-10.933 4.536A15.47 15.47 0 0 0 34 48.406v139.773a15.471 15.471 0 0 0 4.546 10.908 15.537 15.537 0 0 0 10.933 4.536h83.66c-.954-41.536 13.267-122.142 43.356-170.662Z"/><path fill="url(#b)" d="M171.884 37.47H49.48a10.987 10.987 0 0 0-7.746 3.207 10.939 10.939 0 0 0-3.215 7.729v129.572a304.314 304.314 0 0 1 98.099-19.361A889.865 889.865 0 0 1 171.884 37.47Z"/><path fill="#003B57" d="M206.122 28.388c-8.676-7.74-19.231-4.632-29.641 4.573a74.781 74.781 0 0 0-4.613 4.509 183.075 183.075 0 0 0-39.416 80.31 73.23 73.23 0 0 1 4.584 13.143c.26 1.01.499 1.962.723 2.77.448 1.912.723 3.153.723 3.153s-.159-.599-.817-2.496l-.427-1.227a15.74 15.74 0 0 0-.274-.678c-1.157-2.69-4.338-8.368-5.784-10.82a266.211 266.211 0 0 0-3.167 9.89 87.337 87.337 0 0 1 6.565 20.198s-.217-.829-1.236-3.715a137.487 137.487 0 0 0-6.507-12.321 29.07 29.07 0 0 0-1.909 12.437 43.25 43.25 0 0 1 3.565 9.976c2.414 9.255 4.092 20.53 4.092 20.53s.057.722.144 1.898c-.317 7.709-.16 15.43.47 23.119A81.812 81.812 0 0 0 137.419 226l1.301-.721a99.763 99.763 0 0 1-3.455-33.385 253.918 253.918 0 0 1 14.011-69.887c14.531-38.29 34.702-69.02 53.137-83.679-16.816 15.149-39.575 64.202-46.392 82.366a328.78 328.78 0 0 0-16.296 57.71 44.854 44.854 0 0 1 23.742-24.556s8.914-10.972 19.332-26.64a189.853 189.853 0 0 0-19.917 5.288c-5.061 2.121-6.427 2.842-6.427 2.842a173.23 173.23 0 0 1 30.472-14.478c19.347-30.406 40.428-73.58 19.202-92.508"/></g><defs><linearGradient id="b" x1="105.047" x2="105.047" y1="40.639" y2="170.476" gradientUnits="userSpaceOnUse"><stop stop-color="#97D9F6"/><stop offset=".92" stop-color="#0F80CC"/><stop offset="1" stop-color="#0F80CC"/></linearGradient><clipPath id="a"><path fill="#fff" d="M34 24h181v202H34z"/></clipPath></defs></svg>