<svg width="250" height="250" viewBox="0 0 250 250" fill="none" xmlns="http://www.w3.org/2000/svg">
<g clip-path="url(#clip0_2_7359)">
<path d="M168.274 60H81.7258C75.9637 60 70.4377 62.289 66.3633 66.3633C62.289 70.4377 60 75.9637 60 81.7258V168.274C60 174.036 62.289 179.562 66.3633 183.637C70.4377 187.711 75.9637 190 81.7258 190H168.274C171.127 190 173.953 189.439 176.589 188.347C179.225 187.255 181.62 185.655 183.638 183.638C185.655 181.62 187.255 179.225 188.347 176.589C189.439 173.953 190 171.127 190 168.274V81.7258C190.001 78.8725 189.439 76.047 188.348 73.4108C187.256 70.7745 185.656 68.3792 183.638 66.3616C181.621 64.344 179.226 62.7437 176.589 61.6522C173.953 60.5606 171.128 59.9992 168.274 60ZM166.366 159.518C166.365 161.335 165.643 163.078 164.357 164.362C163.072 165.647 161.329 166.369 159.512 166.369H90.5029C89.6028 166.369 88.7115 166.192 87.8798 165.848C87.0481 165.504 86.2923 165 85.6556 164.363C85.0189 163.727 84.5137 162.972 84.1689 162.14C83.8241 161.309 83.6464 160.418 83.646 159.518V90.5059C83.6456 89.6053 83.8227 88.7135 84.1672 87.8814C84.5116 87.0493 85.0167 86.2933 85.6535 85.6565C86.2903 85.0197 87.0463 84.5146 87.8784 84.1701C88.7105 83.8257 89.6023 83.6486 90.5029 83.649H159.509C160.409 83.649 161.301 83.8264 162.132 84.171C162.964 84.5156 163.72 85.0207 164.356 85.6575C164.993 86.2943 165.498 87.0502 165.842 87.8821C166.186 88.714 166.363 89.6055 166.363 90.5059V159.518H166.366Z" fill="black"/>
<path d="M111.209 142.729C110.162 142.726 109.16 142.307 108.422 141.565C107.684 140.824 107.271 139.819 107.273 138.773V111.227C107.273 109.044 109.034 107.271 111.209 107.271H138.796C140.976 107.271 142.731 109.044 142.731 111.227V138.773C142.731 140.953 140.976 142.729 138.796 142.729H111.209Z" fill="black"/>
</g>
<defs>
<clipPath id="clip0_2_7359">
<rect width="130" height="130" fill="white" transform="translate(60 60)"/>
</clipPath>
</defs>
</svg>
