<svg xmlns="http://www.w3.org/2000/svg" width="22.001" height="22" fill="none"><path fill="#3e4348" fill-rule="evenodd" d="M3.676 0h14.648A3.676 3.676 0 0 1 22 3.676v14.647A3.677 3.677 0 0 1 18.324 22H3.676A3.677 3.677 0 0 1 0 18.323V3.676A3.676 3.676 0 0 1 3.676 0Zm13.167 18c.641 0 1.16-.519 1.16-1.16L18 5.16C18 4.52 17.482 4 16.84 4H5.162a1.16 1.16 0 0 0-1.16 1.162V16.84c0 .641.52 1.16 1.16 1.16z" clip-rule="evenodd"/><path fill="#3e4348" d="M8.666 13.983a.666.666 0 0 1-.66-.666V8.654a.666.666 0 0 1 .665-.669h4.67a.667.667 0 0 1 .665.67v4.66a.667.667 0 0 1-.666.67z"/></svg>