<?xml version="1.0" encoding="UTF-8" standalone="no"?>
<svg
   width="22.001101"
   height="22"
   viewBox="0 0 22.001101 22"
   fill="none"
   version="1.1"
   id="svg18"
   sodipodi:docname="square.svg"
   inkscape:version="1.2.1 (9c6d41e410, 2022-07-14, custom)"
   xmlns:inkscape="http://www.inkscape.org/namespaces/inkscape"
   xmlns:sodipodi="http://sodipodi.sourceforge.net/DTD/sodipodi-0.dtd"
   xmlns="http://www.w3.org/2000/svg"
   xmlns:svg="http://www.w3.org/2000/svg">
  <defs
     id="defs22" />
  <sodipodi:namedview
     id="namedview20"
     pagecolor="#ffffff"
     bordercolor="#666666"
     borderopacity="1.0"
     inkscape:showpageshadow="2"
     inkscape:pageopacity="0.0"
     inkscape:pagecheckerboard="0"
     inkscape:deskcolor="#d1d1d1"
     showgrid="false"
     inkscape:zoom="15.420455"
     inkscape:cx="43.967576"
     inkscape:cy="11.024318"
     inkscape:window-width="3840"
     inkscape:window-height="2083"
     inkscape:window-x="0"
     inkscape:window-y="40"
     inkscape:window-maximized="1"
     inkscape:current-layer="svg18" />
  <path
     fill-rule="evenodd"
     clip-rule="evenodd"
     d="M 3.6761,1.5484933e-7 H 18.3239 C 19.299,-2.82679e-4 20.2344,0.386894 20.924,1.07633 21.6136,1.76576 22.0011,2.70095 22.0011,3.6761 V 18.3228 C 22.0011,20.3537 20.3547,22 18.3239,22 H 3.6761 C 1.64567,21.9994 0,20.3533 0,18.3228 V 3.6761 C 0,1.64584 1.64584,1.5484933e-7 3.6761,1.5484933e-7 Z M 16.8434,18.0005 c 0.6408,0 1.1603,-0.5195 1.1603,-1.1603 L 18.0005,5.16083 c 0,-0.64079 -0.5195,-1.16025 -1.1603,-1.16025 H 5.1619 C 4.854,4.00058 4.55872,4.12297 4.3411,4.34079 4.12348,4.55861 4.00137,4.854 4.00165,5.1619 v 11.6783 c 0,0.6408 0.51946,1.1603 1.16025,1.1603 z"
     fill="#3e4348"
     id="path2" />
  <path
     d="M 8.66615,13.9828 C 8.30039,13.9799 8.00543,13.6826 8.00544,13.3168 V 8.65442 c -8.5e-4,-0.1772 0.06894,-0.34744 0.19395,-0.47304 0.125,-0.1256 0.2949,-0.19621 0.4721,-0.19621 h 4.66881 c 0.1771,2.8e-4 0.3468,0.07098 0.4718,0.19652 0.1249,0.12555 0.1948,0.29562 0.1942,0.47273 v 4.66128 c 6e-4,0.1771 -0.0693,0.3472 -0.1942,0.4727 -0.125,0.1256 -0.2947,0.1963 -0.4718,0.1966 z"
     fill="#3e4348"
     id="path4" />
</svg>
