<svg xmlns="http://www.w3.org/2000/svg" width="250" height="250" fill="none"><g fill="#FC4C02" clip-path="url(#a)"><path d="M23.95 148.949c-4.75 0-9.2-.655-13.313-1.953C6.537 145.699 3 143.759 0 141.163l8.338-9.824c2.537 1.928 5.212 3.337 8 4.152a28.21 28.21 0 0 0 8.35 1.273c1.425 0 2.437-.185 3.062-.531.625-.371.938-.84.938-1.446v-.123c0-.68-.463-1.236-1.375-1.669-.9-.432-2.625-.902-5.1-1.384a83.06 83.06 0 0 1-7.5-1.853c-2.375-.692-4.475-1.607-6.275-2.694-1.8-1.112-3.25-2.472-4.3-4.152-1.063-1.681-1.588-3.708-1.588-6.142v-.124c0-2.224.425-4.251 1.3-6.141a14.018 14.018 0 0 1 3.8-4.943c1.675-1.409 3.75-2.509 6.225-3.312 2.462-.779 5.3-1.174 8.5-1.174 4.538 0 8.5.519 11.913 1.582 3.412 1.05 6.462 2.632 9.187 4.745L35.85 117.82a23.975 23.975 0 0 0-7.05-3.472c-2.475-.742-4.788-1.112-6.975-1.112-1.15 0-2 .197-2.563.543-.562.371-.837.816-.837 1.385v.123c0 .618.425 1.162 1.275 1.607.838.432 2.5.889 4.925 1.359 2.975.544 5.688 1.186 8.125 1.928 2.45.741 4.563 1.705 6.313 2.867 1.75 1.173 3.124 2.558 4.075 4.201.962 1.607 1.45 3.584 1.45 5.932v.123c0 2.422-.5 4.61-1.476 6.55-.974 1.927-2.375 3.559-4.125 4.906-1.787 1.359-3.95 2.372-6.5 3.089-2.5.741-5.375 1.112-8.525 1.112l-.012-.012Z"/><path d="M57.438 114.966h-13.75v-13.05h43.124v13.05h-13.75v33.118H57.438v-33.118Zm53.937 8.922c1.85 0 3.325-.408 4.375-1.199 1.075-.791 1.625-1.891 1.625-3.299v-.124c0-1.483-.55-2.595-1.625-3.336-1.05-.717-2.5-1.088-4.325-1.088h-6.8v9.046h6.75ZM89 101.916h22.825c4.187 0 7.625.495 10.312 1.421 2.7.927 4.876 2.225 6.501 3.831 1.437 1.421 2.499 3.003 3.224 4.758.7 1.767 1.063 3.831 1.063 6.203v.124c0 3.398-.825 6.253-2.475 8.576-1.625 2.348-3.875 4.201-6.75 5.561l10.875 15.694h-17.8l-8.8-13.186h-3.35v13.186H89v-46.168Z"/><path d="m154.902 128.225 10.175 19.859h14.962l-25.125-49.06-25.125 49.06h14.938l10.175-19.859Zm34.975-6.463-10.163-19.846h-14.962l25.125 49.059 25.125-49.059h-14.938l-10.187 19.846Zm35 6.463 10.162 19.859h14.963l-25.125-49.06-25.15 49.06h14.962l10.175-19.859h.013Z"/></g><defs><clipPath id="a"><path fill="#fff" d="M0 99h250v52H0z"/></clipPath></defs></svg>