<svg xmlns="http://www.w3.org/2000/svg" width="56" height="79" fill="none"><path fill="#0C009A" d="m0 76.704 1.575-1.574a3.563 3.563 0 0 0 2.74 1.252c1.16 0 1.722-.525 1.722-1.313 0-.595-.262-1.033-1.268-1.175l-1.081-.142C1.386 73.456.336 72.327.336 70.496c0-1.958 1.536-3.32 4.103-3.32 1.646 0 2.887.549 3.79 1.536L6.654 70.31a2.86 2.86 0 0 0-2.362-1.034c-1.066 0-1.575.406-1.575 1.065 0 .75.39 1.034 1.312 1.176l1.082.173c2.239.36 3.32 1.362 3.32 3.24 0 2.1-1.535 3.556-4.26 3.556-1.932-.013-3.229-.75-4.171-1.782ZM12.595 78.284c-1.599 0-2.444-.83-2.444-2.396v-4.022H8.99v-1.8h.58c.627 0 .813-.313.813-.877v-1.346h2.085v2.222h1.63v1.8h-1.63v4.619h1.504v1.8h-1.379ZM15.164 78.284v-8.221h2.316v1.784h.078c.19-.908.814-1.784 2.1-1.784h.407v2.16h-.58c-1.347 0-2.005.296-2.005 1.251v4.807l-2.316.003ZM20.506 74.167c0-2.6 1.378-4.29 3.853-4.29 2.725 0 3.822 1.973 3.822 4.198v.69h-5.278v.126c0 1.081.58 1.769 1.816 1.769.971 0 1.504-.454 2.021-.987l1.16 1.44c-.735.846-1.942 1.362-3.446 1.362-2.512-.002-3.948-1.679-3.948-4.308Zm2.397-.892v.126h2.887v-.153c0-1.002-.454-1.676-1.378-1.676-.924 0-1.51.685-1.51 1.703ZM35.513 78.284c-.83 0-1.425-.564-1.575-1.44h-.095c-.262 1.065-1.16 1.629-2.412 1.629-1.646 0-2.554-.971-2.554-2.396 0-1.737 1.347-2.569 3.525-2.569h1.313v-.524c0-.788-.391-1.313-1.363-1.313a2.032 2.032 0 0 0-1.769.971l-1.378-1.22c.659-.97 1.599-1.574 3.32-1.574 2.319 0 3.51 1.065 3.51 3.007v3.603h.767v1.8l-1.29.026Zm-1.8-2.49v-.971h-1.13c-.892 0-1.362.328-1.362.924v.236c0 .595.391.876 1.082.876.766 0 1.407-.312 1.407-1.063l.002-.002ZM37.799 78.284v-8.221h2.318v1.393h.094a2.194 2.194 0 0 1 2.208-1.574 2.276 2.276 0 0 1 2.302 1.66h.058c.296-.923 1.252-1.66 2.506-1.66 1.575 0 2.46 1.191 2.46 3.256v5.151h-2.341v-4.967c0-1.065-.36-1.575-1.13-1.575-.69 0-1.361.391-1.361 1.205v5.324h-2.318v-4.954c0-1.065-.376-1.575-1.13-1.575-.674 0-1.361.391-1.361 1.205v5.324l-2.305.008ZM51.097 78.284v-8.221h2.317v1.784h.08c.188-.908.813-1.784 2.1-1.784H56v2.16h-.58c-1.347 0-2.006.296-2.006 1.251v4.807l-2.317.003Z"/><path fill="#FF5C00" d="M35.005 1.4V.994A.992.992 0 0 0 33.972 0C23.108.538 14.447 9.267 14.002 20.13a.857.857 0 0 0 .9.86h1.656a.963.963 0 0 0 .97-.9c.469-8.952 7.626-16.106 16.583-16.574.682-.086.894-.46.894-.914V1.4ZM20.767 21.007c.41 0 .546-.002 1.05 0a.96.96 0 0 0 .96-.887A12.249 12.249 0 0 1 34.19 8.77a.877.877 0 0 0 .814-.926V6.246a.993.993 0 0 0-1.043-.97c-7.889.522-14.172 6.8-14.696 14.685a.997.997 0 0 0 .97 1.046c.269.006.324 0 .53 0Zm14.238-9.489v1.605a.94.94 0 0 1-.848.927 7.012 7.012 0 0 0-6.106 6.083.993.993 0 0 1-.967.87h-1.387c-.755 0-1.209-.49-1.152-1.055a10.514 10.514 0 0 1 9.407-9.4.97.97 0 0 1 1.053.97ZM53.41 34.967c-.454 0-.828-.219-.914-.9-.464-8.964-7.632-16.127-16.6-16.588a.963.963 0 0 1-.9-.97v-1.655a.857.857 0 0 1 .86-.9c10.87.444 19.606 9.1 20.143 19.96a.993.993 0 0 1-.974 1.036l-1.615.017ZM35.005 20.209a.993.993 0 0 1 1.046-.97c7.887.524 14.168 6.8 14.693 14.682a.993.993 0 0 1-.97 1.046h-1.6a.877.877 0 0 1-.927-.825 12.249 12.249 0 0 0-11.351-11.401.96.96 0 0 1-.888-.96l-.003-1.572ZM44.1 34.967s-.734.005-1.214 0a.944.944 0 0 1-.927-.85 7.012 7.012 0 0 0-6.09-6.104.993.993 0 0 1-.87-.966v-1.562a.97.97 0 0 1 1.056-.97 10.514 10.514 0 0 1 9.407 9.4.97.97 0 0 1-.97 1.052H44.1ZM2.58 21c.454 0 .828.219.914.9.464 8.968 7.638 16.132 16.61 16.588.51.033.905.459.9.97v1.654a.857.857 0 0 1-.86.9C9.274 41.57.538 32.913 0 22.053a.993.993 0 0 1 .973-1.035L2.58 21Zm18.415 14.744a.993.993 0 0 1-1.047.97C12.069 36.19 5.79 29.92 5.26 22.043a.993.993 0 0 1 .97-1.046h1.6a.877.877 0 0 1 .927.824 12.249 12.249 0 0 0 11.348 11.405.96.96 0 0 1 .887.96l.004 1.558ZM11.495 21H13.1c.48.005.88.37.927.847a7.012 7.012 0 0 0 6.09 6.103c.49.061.86.473.87.967v1.565a.97.97 0 0 1-1.05.96 10.514 10.514 0 0 1-9.407-9.4.97.97 0 0 1 .964-1.042Zm9.496 32.411c0-.453.22-.827.901-.913 8.969-.462 16.137-7.625 16.6-16.588a.963.963 0 0 1 .97-.9h1.656a.858.858 0 0 1 .9.86C41.574 46.734 32.91 55.464 22.046 56a.994.994 0 0 1-1.037-.974l-.017-1.615Zm14.766-18.405a.994.994 0 0 1 .97 1.046c-.525 7.882-6.806 14.158-14.692 14.681a.993.993 0 0 1-1.047-.97v-1.598a.877.877 0 0 1 .825-.926 12.249 12.249 0 0 0 11.41-11.342.96.96 0 0 1 .96-.887l1.574-.004Zm-14.759 9.486v-1.605a.94.94 0 0 1 .848-.927 7.012 7.012 0 0 0 6.106-6.083.993.993 0 0 1 .967-.87h1.387c.755 0 1.209.49 1.153 1.055a10.514 10.514 0 0 1-9.408 9.4.97.97 0 0 1-1.053-.97Zm0 8.919c0-.453.219-.827.9-.913 8.97-.462 16.137-7.625 16.6-16.588a.963.963 0 0 1 .97-.9h1.656a.858.858 0 0 1 .901.86C41.58 46.734 32.916 55.464 22.051 56a.994.994 0 0 1-1.036-.974l-.017-1.615Zm14.765-18.405a.994.994 0 0 1 .97 1.046c-.525 7.882-6.806 14.158-14.692 14.681a.993.993 0 0 1-1.046-.97v-1.598a.877.877 0 0 1 .824-.926A12.249 12.249 0 0 0 33.23 35.897a.96.96 0 0 1 .96-.887l1.573-.004Zm-14.765 9.486v-1.605a.94.94 0 0 1 .848-.927 7.012 7.012 0 0 0 6.106-6.083.993.993 0 0 1 .967-.87h1.387c.755 0 1.209.49 1.153 1.055a10.514 10.514 0 0 1-9.408 9.4.97.97 0 0 1-1.053-.97Z"/></svg>