<svg width="250" height="250" viewBox="0 0 250 250" fill="none" xmlns="http://www.w3.org/2000/svg">
<path d="M43.3527 115.819C43.3527 113.772 45.0415 112.985 47.8392 112.985C51.85 112.985 56.9165 114.192 60.9277 116.345V104.007C56.5473 102.275 52.2196 101.592 47.8392 101.592C37.125 101.592 30 107.157 30 116.45C30 130.939 50.0554 128.629 50.0554 134.877C50.0554 137.291 47.9446 138.079 44.9888 138.079C40.6085 138.079 35.0138 136.294 30.5804 133.879V146.374C35.4888 148.474 40.45 149.366 44.9888 149.366C55.9665 149.366 63.5138 143.959 63.5138 134.562C63.4612 118.917 43.3527 121.699 43.3527 115.819ZM79.0304 91.0928L66.1527 93.8225L66.1 135.874C66.1 143.644 71.9585 149.366 79.7696 149.366C84.0973 149.366 87.2638 148.579 89.0054 147.634V136.977C87.3169 137.659 78.9777 140.074 78.9777 132.304V113.667H89.0054V102.485H78.9777L79.0304 91.0928ZM105.42 106.37L104.575 102.485H93.175V148.421H106.37V117.29C109.483 113.247 114.761 113.982 116.397 114.56V102.485C114.708 101.855 108.533 100.7 105.42 106.37ZM119.617 102.485H132.864V148.421H119.617V102.485ZM119.617 98.495L132.864 95.6601V85.0029L119.617 87.7854V98.4946V98.495ZM160.414 101.592C155.242 101.592 151.917 104.007 150.07 105.688L149.383 102.433H137.772V163.646L150.967 160.863L151.02 146.006C152.92 147.371 155.717 149.314 160.361 149.314C169.808 149.314 178.411 141.754 178.411 125.112C178.358 109.887 169.65 101.592 160.414 101.592ZM157.247 137.764C154.133 137.764 152.286 136.662 151.02 135.297L150.967 115.819C152.339 114.297 154.239 113.247 157.247 113.247C162.05 113.247 165.375 118.602 165.375 125.479C165.375 132.514 162.103 137.764 157.247 137.764ZM220 125.637C220 112.197 213.455 101.592 200.947 101.592C188.386 101.592 180.786 112.198 180.786 125.532C180.786 141.334 189.758 149.314 202.636 149.314C208.917 149.314 213.667 147.896 217.255 145.901V135.401C213.667 137.187 209.55 138.289 204.325 138.289C199.205 138.289 194.667 136.504 194.086 130.309H219.895C219.895 129.626 220 126.897 220 125.637ZM193.928 120.65C193.928 114.717 197.57 112.25 200.895 112.25C204.114 112.25 207.545 114.717 207.545 120.65H193.928Z" fill="#6772E5"/>
</svg>
