<svg xmlns="http://www.w3.org/2000/svg" width="250" height="250" fill="none"><path fill="#00BF6F" fill-rule="evenodd" d="M216.497 169.609a8.4 8.4 0 0 1-5.636-2.179c.507-4.403.846-8.852.902-13.379a8.45 8.45 0 0 1 4.734-1.468c4.65 0 8.455 3.822 8.455 8.53a8.48 8.48 0 0 1-2.466 6.006 8.445 8.445 0 0 1-5.989 2.49Zm-186.394 0a8.449 8.449 0 0 1-7.82-5.247 8.482 8.482 0 0 1-.635-3.249c0-4.708 3.805-8.536 8.455-8.536 1.747 0 3.382.565 4.734 1.474.057 4.527.395 8.976.902 13.379a8.422 8.422 0 0 1-5.636 2.179Zm185.842-37.371c-2.378 0-4.661.327-6.854.864-8.42-33.544-35.779-59.5-69.958-65.637a76.997 76.997 0 0 0-4.453-.677c.254-8.406.648-18.121 12.924-26.86L145.66 35s-23.921 7.486-26.694 28.102c-1.195-5.612-12.349-12.629-17.873-13.96L98.348 53.6s7.322 3.692 9.103 13.864c-34.168 6.148-61.521 32.099-69.942 65.637a28.74 28.74 0 0 0-6.86-.858C14.857 132.244 2 145.16 2 161.113c0 15.919 12.857 28.864 28.65 28.864 3.703 0 7.231-.746 10.472-2.021a88.722 88.722 0 0 0 9.311 17.443l23.786-16.145-.203-.271c-6.29-8.14-10.14-20.131-10.783-32.064-.715-13.154 2.475-26.228 10.822-33.911 17.202-14.745 35.932-8.027 47.667 6.114h3.156c11.735-14.141 30.465-20.859 47.673-6.114 8.342 7.683 11.532 20.757 10.822 33.916-.649 11.928-4.498 23.919-10.788 32.065l-.203.259 23.785 16.151a88.814 88.814 0 0 0 9.311-17.443 28.564 28.564 0 0 0 10.467 2.021c15.799 0 28.655-12.945 28.655-28.864 0-15.959-12.856-28.875-28.655-28.875Z" clip-rule="evenodd"/></svg>