<svg width="250" height="250" viewBox="0 0 250 250" fill="none" xmlns="http://www.w3.org/2000/svg">
<path fill-rule="evenodd" clip-rule="evenodd" d="M174.898 148.073C173.725 148.073 172.656 147.62 171.852 146.89C172.126 144.5 172.309 142.085 172.34 139.628C173.071 139.131 173.954 138.831 174.898 138.831C177.41 138.831 179.466 140.905 179.466 143.461C179.468 144.066 179.351 144.666 179.123 145.225C178.894 145.785 178.558 146.293 178.133 146.722C177.709 147.15 177.205 147.49 176.65 147.722C176.094 147.954 175.499 148.073 174.898 148.073ZM74.1846 148.073C73.5835 148.073 72.9882 147.954 72.4329 147.722C71.8777 147.49 71.3734 147.15 70.949 146.722C70.5247 146.293 70.1885 145.785 69.9598 145.225C69.7311 144.666 69.6145 144.066 69.6165 143.461C69.6165 140.905 71.6721 138.828 74.1846 138.828C75.1287 138.828 76.0119 139.134 76.7428 139.628C76.7733 142.085 76.956 144.5 77.2301 146.89C76.3951 147.65 75.3102 148.071 74.1846 148.073ZM174.599 127.786C173.314 127.786 172.081 127.964 170.896 128.255C166.346 110.046 151.564 95.9552 133.096 92.624C132.274 92.4708 131.528 92.3635 130.69 92.2563C130.827 87.6932 131.04 82.4192 137.673 77.6753L136.623 75C136.623 75 123.698 79.0635 122.199 90.2552C121.554 87.209 115.527 83.3998 112.542 82.6766L111.059 85.0976C111.059 85.0976 115.015 87.1018 115.977 92.624C97.5159 95.9613 82.7363 110.049 78.1864 128.255C76.974 127.951 75.7296 127.794 74.48 127.789C65.9467 127.789 59 134.801 59 143.461C59 152.103 65.9467 159.13 74.48 159.13C76.4809 159.13 78.3874 158.726 80.1385 158.033C81.4594 161.368 83.1469 164.545 85.1696 167.502L98.0214 158.738L97.9118 158.591C94.5131 154.172 92.433 147.663 92.0858 141.184C91.699 134.044 93.4228 126.947 97.9331 122.776C107.228 114.771 117.348 118.418 123.688 126.095H125.394C131.735 118.418 141.855 114.771 151.152 122.776C155.66 126.947 157.383 134.044 157 141.187C156.649 147.663 154.569 154.172 151.171 158.594L151.061 158.735L163.913 167.502C165.935 164.544 167.623 161.368 168.944 158.033C170.744 158.752 172.663 159.125 174.599 159.13C183.136 159.13 190.082 152.103 190.082 143.461C190.082 134.798 183.136 127.786 174.599 127.786Z" fill="#00BF6F"/>
</svg>
