<?xml version="1.0" standalone="no"?>
<!DOCTYPE svg PUBLIC "-//W3C//DTD SVG 20010904//EN"
 "http://www.w3.org/TR/2001/REC-SVG-20010904/DTD/svg10.dtd">
<svg version="1.0" xmlns="http://www.w3.org/2000/svg"
 width="225.000000pt" height="225.000000pt" viewBox="0 0 225.000000 225.000000"
 preserveAspectRatio="xMidYMid meet">
<metadata>
Created by potrace 1.10, written by Peter Selinger 2001-2011
</metadata>
<g transform="translate(0.000000,225.000000) scale(0.100000,-0.100000)"
fill="#000000" stroke="none">
<path d="M88 1445 c-54 -30 -91 -125 -48 -125 15 0 20 7 20 29 0 33 48 81 81
81 10 0 19 7 19 15 0 19 -36 19 -72 0z"/>
<path d="M112 1403 c-13 -5 -42 -55 -42 -73 0 -21 28 -9 34 15 4 15 17 30 31
35 14 5 25 14 25 20 0 10 -25 12 -48 3z"/>
<path d="M331 1298 l-83 -87 -40 20 c-46 23 -46 24 6 -59 34 -54 56 -71 56
-42 0 11 116 198 137 222 8 9 13 20 12 25 -2 4 -42 -31 -88 -79z"/>
<path d="M137 1352 c-15 -16 -17 -45 -17 -199 0 -145 3 -183 14 -193 10 -7 53
-12 121 -12 68 0 111 5 121 12 11 10 14 45 13 179 -1 91 -4 157 -6 146 -3 -11
-10 -23 -16 -27 -6 -3 -11 -44 -11 -92 l-1 -86 -102 0 -103 0 0 120 0 120 93
0 c80 0 95 3 110 20 9 11 17 22 17 25 0 3 -49 5 -108 5 -93 0 -111 -3 -125
-18z m162 -306 c6 -7 9 -21 5 -30 -8 -21 -89 -23 -98 -1 -13 35 67 63 93 31z
m-99 -41 c0 -8 -9 -15 -20 -15 -11 0 -20 7 -20 15 0 8 9 15 20 15 11 0 20 -7
20 -15z m155 6 c3 -5 1 -13 -5 -16 -15 -9 -43 3 -35 15 8 13 32 13 40 1z m-86
-39 c55 1 96 -1 92 -5 -4 -4 -54 -6 -111 -5 -81 2 -104 6 -108 18 -5 13 -3 13
11 2 12 -10 43 -13 116 -10z"/>
<path d="M230 1030 c0 -5 14 -10 31 -10 17 0 28 4 24 10 -3 6 -17 10 -31 10
-13 0 -24 -4 -24 -10z"/>
<path d="M502 1280 c-27 -11 -46 -55 -33 -78 5 -9 28 -35 50 -57 45 -43 50
-59 24 -70 -12 -4 -24 1 -35 15 -15 18 -20 19 -37 8 -27 -17 -26 -22 5 -47 54
-42 127 -14 127 49 0 27 -8 41 -46 74 -26 23 -47 47 -47 54 0 17 40 15 47 -3
5 -14 8 -14 24 1 25 23 24 27 -10 47 -33 19 -37 19 -69 7z"/>
<path d="M1614 1271 c-44 -20 -74 -68 -74 -119 0 -35 36 -92 70 -110 34 -18
112 -10 144 15 25 20 25 21 6 38 -19 17 -21 17 -40 0 -47 -42 -130 -3 -130 62
0 69 77 106 132 63 19 -14 28 -16 36 -8 18 18 14 34 -12 51 -39 26 -87 29
-132 8z"/>
<path d="M2013 1269 c-33 -16 -46 -30 -59 -66 -16 -41 -16 -50 -3 -86 37 -109
184 -116 233 -12 31 65 -1 142 -70 171 -44 18 -51 18 -101 -7z m111 -60 c41
-48 31 -95 -24 -124 -77 -40 -146 64 -85 129 34 37 76 35 109 -5z"/>
<path d="M1790 1254 c0 -20 4 -25 21 -22 21 3 21 0 20 -99 l-2 -103 25 0 26 0
0 103 c0 101 1 104 23 103 16 -1 23 5 25 22 3 21 0 22 -67 22 -70 0 -71 -1
-71 -26z"/>
<path d="M642 1144 c3 -65 7 -79 27 -95 32 -27 77 -24 106 6 22 21 25 33 25
95 0 68 -1 70 -25 70 -24 0 -25 -2 -25 -69 0 -54 -3 -70 -16 -75 -31 -12 -44
13 -44 80 0 62 -1 64 -26 64 l-26 0 4 -76z"/>
<path d="M835 1127 c1 -87 2 -92 23 -95 21 -3 22 0 22 68 0 63 2 72 20 77 11
3 20 10 20 15 0 29 26 -7 55 -77 18 -44 39 -81 47 -83 9 -2 27 28 51 85 20 49
37 92 37 96 0 4 -9 7 -21 7 -15 0 -25 -13 -41 -50 -11 -27 -24 -50 -27 -50 -3
0 -14 23 -24 50 -18 49 -18 50 -60 50 -24 0 -48 -5 -55 -12 -9 -9 -12 -9 -12
0 0 7 -8 12 -17 12 -16 0 -18 -11 -18 -93z"/>
<path d="M1159 1191 c-80 -81 14 -196 119 -146 35 16 36 18 17 31 -22 17 -32
18 -40 4 -10 -17 -51 -11 -70 10 -21 23 -23 22 69 20 l69 -1 -7 33 c-14 76
-102 104 -157 49z m95 -17 c31 -12 16 -24 -29 -24 -25 0 -45 4 -45 9 0 17 45
26 74 15z"/>
<path d="M1330 1213 c0 -5 4 -13 8 -18 5 -6 21 -41 37 -79 28 -67 28 -70 12
-98 -22 -39 -21 -48 6 -48 17 0 27 12 46 58 14 31 37 84 53 116 34 72 34 78 6
74 -17 -2 -28 -16 -43 -55 -11 -29 -23 -53 -27 -53 -4 0 -15 24 -26 53 -16 42
-24 53 -46 55 -14 2 -26 -1 -26 -5z"/>
</g>
</svg>
