<?xml version="1.0" standalone="yes"?>
<svg xmlns="http://www.w3.org/2000/svg" width="225" height="225">
<path style="fill:#ffffff; stroke:none;" d="M0 0L0 225L225 225L225 0L0 0z"/>
<path style="fill:#a2e1c2; stroke:none;" d="M137 27L139 29L139 27L137 27M135 28L136 29L135 28z"/>
<path style="fill:#01bd70; stroke:none;" d="M112 48L111 48C110.662 40.7179 107.21 36.5924 101 33C103.207 36.671 108.463 43.1653 105.167 47.5664C101.585 52.3505 86.7185 53.1007 81 55.7816C61.7286 64.8164 40.9648 84.4953 39 107C33.6466 106.324 29.2359 106.007 24 107.75C5.34726 113.958 1.99762 138.711 17.0039 150.61C24.5318 156.579 33.2175 156.272 42 154L49 169L69 156C61.7373 136.042 49.986 92.7468 86 91.0401C92.2948 90.7418 97.8181 92.1075 103 95.7894C105.885 97.8391 109.159 102.364 113 102.364C116.532 102.364 119.357 98.5106 122 96.6366C127.058 93.0507 133.726 90.5021 140 91.1883C173.631 94.8666 166.597 135.86 156 156L177 169L184 154C212.336 164.612 232.681 123.243 205 109.378C199.195 106.47 193.283 106.556 187 107C183.142 78.4913 152.704 51.2515 124 50C124.225 40.439 129.915 33.6735 138 29C128.32 27.3877 115.507 40.026 112 48z"/>
<path style="fill:#64d09c; stroke:none;" d="M133 29L134 30L133 29M136 29L137 30L136 29z"/>
<path style="fill:#a2e1c2; stroke:none;" d="M130 30L131 31L130 30z"/>
<path style="fill:#33c583; stroke:none;" d="M131 30L132 31L131 30z"/>
<path style="fill:#a2e1c2; stroke:none;" d="M135 30L136 31L135 30M128 31L129 32L128 31z"/>
<path style="fill:#33c583; stroke:none;" d="M129 31L130 32L129 31M133 31L134 32L133 31M127 32L128 33L127 32z"/>
<path style="fill:#64d09c; stroke:none;" d="M132 32L133 33L132 32z"/>
<path style="fill:#a2e1c2; stroke:none;" d="M100 33L101 34L100 33M102 33L103 34L102 33M125 33L126 34L125 33M131 33L132 34L131 33z"/>
<path style="fill:#33c583; stroke:none;" d="M103 34L104 35L103 34z"/>
<path style="fill:#a2e1c2; stroke:none;" d="M123 34L124 35L123 34M130 34L131 35L130 34M102 35L103 36L102 35M105 35L106 36L105 35z"/>
<path style="fill:#64d09c; stroke:none;" d="M122 35L123 36L122 35z"/>
<path style="fill:#a2e1c2; stroke:none;" d="M129 35L130 36L129 35M103 36L104 37L103 36z"/>
<path style="fill:#64d09c; stroke:none;" d="M106 36L107 37L106 36M128 36L129 37L128 36M107 37L108 38L107 37z"/>
<path style="fill:#a2e1c2; stroke:none;" d="M119 37L120 38L119 37z"/>
<path style="fill:#33c583; stroke:none;" d="M127 37L128 38L127 37z"/>
<path style="fill:#a2e1c2; stroke:none;" d="M104 38L105 39L104 38M108 38L109 39L108 38M118 38L119 39L118 38M117 39L118 40L117 39M126 39L127 40L126 39M105 40L106 41L105 40M116 40L117 41L116 40M110 41L111 42L110 41M115 41L116 42L115 41M125 41L126 42L125 41z"/>
<path style="fill:#33c583; stroke:none;" d="M110 42L111 43L110 42z"/>
<path style="fill:#a2e1c2; stroke:none;" d="M114 42L115 43L114 42z"/>
<path style="fill:#33c583; stroke:none;" d="M124 43L125 44L124 43M106 44L107 45L106 44z"/>
<path style="fill:#a2e1c2; stroke:none;" d="M111 44L111 47L112 47L111 44z"/>
<path style="fill:#64d09c; stroke:none;" d="M113 44L114 45L113 44z"/>
<path style="fill:#a2e1c2; stroke:none;" d="M124.333 44.6667L124.667 45.3333L124.333 44.6667z"/>
<path style="fill:#64d09c; stroke:none;" d="M106 45L107 46L106 45z"/>
<path style="fill:#33c583; stroke:none;" d="M106 46L107 47L106 46z"/>
<path style="fill:#64d09c; stroke:none;" d="M112 46L113 47L112 46z"/>
<path style="fill:#33c583; stroke:none;" d="M111 47L112 48L111 47z"/>
<path style="fill:#a2e1c2; stroke:none;" d="M99 49L99 50L102 50L99 49z"/>
<path style="fill:#64d09c; stroke:none;" d="M102 49L103 50L102 49z"/>
<path style="fill:#33c583; stroke:none;" d="M103 49L104 50L103 49M124 49L125 50L124 49z"/>
<path style="fill:#a2e1c2; stroke:none;" d="M125.667 49.3333L126.333 49.6667L125.667 49.3333M95 50L96 51L95 50z"/>
<path style="fill:#64d09c; stroke:none;" d="M96 50L97 51L96 50z"/>
<path style="fill:#33c583; stroke:none;" d="M129 50L130 51L129 50z"/>
<path style="fill:#a2e1c2; stroke:none;" d="M130.667 50.3333L131.333 50.6667L130.667 50.3333M91 51L92 52L91 51z"/>
<path style="fill:#64d09c; stroke:none;" d="M92 51L93 52L92 51z"/>
<path style="fill:#33c583; stroke:none;" d="M93 51L94 52L93 51z"/>
<path style="fill:#64d09c; stroke:none;" d="M133 51L134 52L133 51z"/>
<path style="fill:#a2e1c2; stroke:none;" d="M134 51L135 52L134 51M88 52L89 53L88 52z"/>
<path style="fill:#64d09c; stroke:none;" d="M89 52L90 53L89 52z"/>
<path style="fill:#33c583; stroke:none;" d="M136 52L137 53L136 52z"/>
<path style="fill:#a2e1c2; stroke:none;" d="M137 52L138 53L137 52M85 53L86 54L85 53z"/>
<path style="fill:#64d09c; stroke:none;" d="M86 53L87 54L86 53z"/>
<path style="fill:#33c583; stroke:none;" d="M139 53L140 54L139 53z"/>
<path style="fill:#a2e1c2; stroke:none;" d="M140 53L141 54L140 53M83 54L84 55L83 54z"/>
<path style="fill:#64d09c; stroke:none;" d="M142 54L143 55L142 54z"/>
<path style="fill:#a2e1c2; stroke:none;" d="M143 54L144 55L143 54z"/>
<path style="fill:#64d09c; stroke:none;" d="M81 55L82 56L81 55z"/>
<path style="fill:#33c583; stroke:none;" d="M144 55L145 56L144 55z"/>
<path style="fill:#a2e1c2; stroke:none;" d="M145 55L146 56L145 55M78 56L79 57L78 56z"/>
<path style="fill:#33c583; stroke:none;" d="M79 56L80 57L79 56M146 56L147 57L146 56z"/>
<path style="fill:#a2e1c2; stroke:none;" d="M147 56L148 57L147 56z"/>
<path style="fill:#33c583; stroke:none;" d="M77 57L78 58L77 57M148 57L149 58L148 57z"/>
<path style="fill:#a2e1c2; stroke:none;" d="M149 57L150 58L149 57z"/>
<path style="fill:#64d09c; stroke:none;" d="M75 58L76 59L75 58z"/>
<path style="fill:#33c583; stroke:none;" d="M150 58L151 59L150 58z"/>
<path style="fill:#a2e1c2; stroke:none;" d="M73 59L74 60L73 59z"/>
<path style="fill:#64d09c; stroke:none;" d="M152 59L153 60L152 59z"/>
<path style="fill:#a2e1c2; stroke:none;" d="M71 60L72 61L71 60M154 60L155 61L154 60z"/>
<path style="fill:#64d09c; stroke:none;" d="M70 61L71 62L70 61z"/>
<path style="fill:#33c583; stroke:none;" d="M155 61L156 62L155 61z"/>
<path style="fill:#a2e1c2; stroke:none;" d="M68 62L69 63L68 62M157 62L158 63L157 62z"/>
<path style="fill:#64d09c; stroke:none;" d="M67 63L68 64L67 63M158 63L159 64L158 63z"/>
<path style="fill:#33c583; stroke:none;" d="M66 64L67 65L66 64z"/>
<path style="fill:#a2e1c2; stroke:none;" d="M161 65L162 66L161 65M63 66L64 67L63 66M162 66L163 67L162 66z"/>
<path style="fill:#64d09c; stroke:none;" d="M62 67L63 68L62 67M163 67L164 68L163 67M61 68L62 69L61 68z"/>
<path style="fill:#33c583; stroke:none;" d="M164 68L165 69L164 68M60 69L61 70L60 69M165 69L166 70L165 69M59 70L60 71L59 70M166 70L167 71L166 70M58 71L59 72L58 71M167 71L168 72L167 71M57 72L58 73L57 72M168 72L169 73L168 72M56 73L57 74L56 73M169 73L170 74L169 73z"/>
<path style="fill:#64d09c; stroke:none;" d="M55 74L56 75L55 74z"/>
<path style="fill:#33c583; stroke:none;" d="M170 74L171 75L170 74z"/>
<path style="fill:#64d09c; stroke:none;" d="M54 75L55 76L54 75M171 75L172 76L171 75z"/>
<path style="fill:#a2e1c2; stroke:none;" d="M53 76L54 77L53 76M172 76L173 77L172 76z"/>
<path style="fill:#33c583; stroke:none;" d="M51 79L52 80L51 79M174 79L175 80L174 79z"/>
<path style="fill:#64d09c; stroke:none;" d="M50 80L51 81L50 80z"/>
<path style="fill:#a2e1c2; stroke:none;" d="M175 80L176 81L175 80z"/>
<path style="fill:#33c583; stroke:none;" d="M176 82L177 83L176 82z"/>
<path style="fill:#64d09c; stroke:none;" d="M48 83L49 84L48 83z"/>
<path style="fill:#a2e1c2; stroke:none;" d="M177 83L178 84L177 83M47 84L48 85L47 84z"/>
<path style="fill:#33c583; stroke:none;" d="M178 85L179 86L178 85z"/>
<path style="fill:#a2e1c2; stroke:none;" d="M46 86L47 87L46 86M179 86L180 87L179 86z"/>
<path style="fill:#64d09c; stroke:none;" d="M45 88L46 89L45 88z"/>
<path style="fill:#a2e1c2; stroke:none;" d="M180 88L181 89L180 88z"/>
<path style="fill:#33c583; stroke:none;" d="M44 90L45 91L44 90z"/>
<path style="fill:#64d09c; stroke:none;" d="M181 90L182 91L181 90M81 91L82 92L81 91z"/>
<path style="fill:#a2e1c2; stroke:none;" d="M82.6667 91.3333L83.3333 91.6667L82.6667 91.3333M92.6667 91.3333L93.3333 91.6667L92.6667 91.3333z"/>
<path style="fill:#33c583; stroke:none;" d="M94 91L95 92L94 91z"/>
<path style="fill:#64d09c; stroke:none;" d="M133 91L134 92L133 91z"/>
<path style="fill:#a2e1c2; stroke:none;" d="M134 91L134 92L141 92L134 91z"/>
<path style="fill:#64d09c; stroke:none;" d="M141 91L142 92L141 91z"/>
<path style="fill:#33c583; stroke:none;" d="M142 91L143 92L142 91z"/>
<path style="fill:#64d09c; stroke:none;" d="M43 92L44 93L43 92z"/>
<path style="fill:#33c583; stroke:none;" d="M78 92L79 93L78 92z"/>
<path style="fill:#a2e1c2; stroke:none;" d="M79 92L80 93L79 92M96 92L97 93L96 92z"/>
<path style="fill:#33c583; stroke:none;" d="M97 92L98 93L97 92z"/>
<path style="fill:#64d09c; stroke:none;" d="M129 92L130 93L129 92z"/>
<path style="fill:#a2e1c2; stroke:none;" d="M130 92L131 93L130 92M144 92L145 93L144 92z"/>
<path style="fill:#64d09c; stroke:none;" d="M145 92L146 93L145 92M182 92L183 93L182 92M76 93L77 94L76 93M99 93L100 94L99 93z"/>
<path style="fill:#a2e1c2; stroke:none;" d="M127 93L128 94L127 93M147 93L148 94L147 93z"/>
<path style="fill:#33c583; stroke:none;" d="M148 93L149 94L148 93z"/>
<path style="fill:#64d09c; stroke:none;" d="M42 94L43 95L42 94z"/>
<path style="fill:#33c583; stroke:none;" d="M74 94L75 95L74 94M101 94L102 95L101 94z"/>
<path style="fill:#a2e1c2; stroke:none;" d="M125 94L126 95L125 94M149 94L150 95L149 94z"/>
<path style="fill:#33c583; stroke:none;" d="M150 94L151 95L150 94z"/>
<path style="fill:#a2e1c2; stroke:none;" d="M183 94L184 95L183 94M73 95L74 96L73 95M102 95L103 96L102 95M123 95L124 96L123 95M151 95L152 96L151 95M41 96L42 97L41 96z"/>
<path style="fill:#33c583; stroke:none;" d="M71 96L72 97L71 96M104 96L105 97L104 96M121 96L122 97L121 96M153 96L154 97L153 96z"/>
<path style="fill:#a2e1c2; stroke:none;" d="M184 96L185 97L184 96z"/>
<path style="fill:#64d09c; stroke:none;" d="M70 97L71 98L70 97z"/>
<path style="fill:#a2e1c2; stroke:none;" d="M105 97L106 98L105 97M120 97L121 98L120 97M154 97L155 98L154 97z"/>
<path style="fill:#33c583; stroke:none;" d="M184 97L185 98L184 97z"/>
<path style="fill:#a2e1c2; stroke:none;" d="M69 98L70 99L69 98M106 98L107 99L106 98M119 98L120 99L119 98M155 98L156 99L155 98z"/>
<path style="fill:#64d09c; stroke:none;" d="M40 99L41 100L40 99z"/>
<path style="fill:#a2e1c2; stroke:none;" d="M68 99L69 100L68 99M156 99L157 100L156 99M185 99L186 100L185 99z"/>
<path style="fill:#64d09c; stroke:none;" d="M67 100L68 101L67 100z"/>
<path style="fill:#a2e1c2; stroke:none;" d="M157 100L158 101L157 100M39 101L40 102L39 101z"/>
<path style="fill:#33c583; stroke:none;" d="M66 101L67 102L66 101z"/>
<path style="fill:#a2e1c2; stroke:none;" d="M158 101L159 102L158 101z"/>
<path style="fill:#64d09c; stroke:none;" d="M39 102L40 103L39 102z"/>
<path style="fill:#a2e1c2; stroke:none;" d="M110 102L111 103L110 102z"/>
<path style="fill:#33c583; stroke:none;" d="M159 102L160 103L159 102z"/>
<path style="fill:#a2e1c2; stroke:none;" d="M186 102L187 103L186 102M65 103L66 104L65 103M111 103L111 104L114 104L111 103z"/>
<path style="fill:#33c583; stroke:none;" d="M186 103L187 104L186 103z"/>
<path style="fill:#a2e1c2; stroke:none;" d="M160 104L161 105L160 104M38 105L36 106L36 107L38 105M64 105L65 106L64 105M187 105L190 107L190 106L187 105M26.6667 106.333L27.3333 106.667L26.6667 106.333z"/>
<path style="fill:#64d09c; stroke:none;" d="M28 106L29 107L28 106M35 106L36 107L35 106z"/>
<path style="fill:#33c583; stroke:none;" d="M38 106L39 107L38 106z"/>
<path style="fill:#a2e1c2; stroke:none;" d="M161 106L162 107L161 106z"/>
<path style="fill:#33c583; stroke:none;" d="M187 106L188 107L187 106z"/>
<path style="fill:#64d09c; stroke:none;" d="M190 106L191 107L190 106z"/>
<path style="fill:#33c583; stroke:none;" d="M191 106L192 107L191 106z"/>
<path style="fill:#64d09c; stroke:none;" d="M194.667 106.333L195.333 106.667L194.667 106.333z"/>
<path style="fill:#a2e1c2; stroke:none;" d="M196 106L196 107L199 107L196 106M23 107L24 108L23 107z"/>
<path style="fill:#33c583; stroke:none;" d="M24 107L25 108L24 107z"/>
<path style="fill:#a2e1c2; stroke:none;" d="M63 107L64 108L63 107z"/>
<path style="fill:#33c583; stroke:none;" d="M200 107L201 108L200 107z"/>
<path style="fill:#a2e1c2; stroke:none;" d="M201 107L202 108L201 107z"/>
<path style="fill:#64d09c; stroke:none;" d="M21 108L22 109L21 108M162 108L163 109L162 108M203 108L204 109L203 108M19 109L20 110L19 109M62 109L63 110L62 109M205 109L206 110L205 109z"/>
<path style="fill:#a2e1c2; stroke:none;" d="M17 110L18 111L17 110M62 110L63 111L62 110M207 110L208 111L207 110M16 111L17 112L16 111z"/>
<path style="fill:#64d09c; stroke:none;" d="M163 111L164 112L163 111z"/>
<path style="fill:#33c583; stroke:none;" d="M208 111L209 112L208 111z"/>
<path style="fill:#64d09c; stroke:none;" d="M15 112L16 113L15 112z"/>
<path style="fill:#33c583; stroke:none;" d="M61 112L62 113L61 112z"/>
<path style="fill:#a2e1c2; stroke:none;" d="M163 112L164 113L163 112z"/>
<path style="fill:#33c583; stroke:none;" d="M14 113L15 114L14 113z"/>
<path style="fill:#a2e1c2; stroke:none;" d="M61.3333 113.667L61.6667 114.333L61.3333 113.667M211 113L212 114L211 113z"/>
<path style="fill:#64d09c; stroke:none;" d="M13 114L14 115L13 114z"/>
<path style="fill:#33c583; stroke:none;" d="M164 114L165 115L164 114z"/>
<path style="fill:#64d09c; stroke:none;" d="M12 115L13 116L12 115M164 115L165 116L164 115z"/>
<path style="fill:#a2e1c2; stroke:none;" d="M11 116L12 117L11 116M164.333 116.667L164.667 117.333L164.333 116.667z"/>
<path style="fill:#33c583; stroke:none;" d="M213 116L214 117L213 116M60 117L61 118L60 117z"/>
<path style="fill:#a2e1c2; stroke:none;" d="M214 117L215 118L214 117z"/>
<path style="fill:#64d09c; stroke:none;" d="M10 118L11 119L10 118M60 118L61 119L60 118z"/>
<path style="fill:#a2e1c2; stroke:none;" d="M60 119L60 130L61 130L60 119z"/>
<path style="fill:#33c583; stroke:none;" d="M215 119L216 120L215 119z"/>
<path style="fill:#64d09c; stroke:none;" d="M9 120L10 121L9 120M216 121L217 122L216 121z"/>
<path style="fill:#a2e1c2; stroke:none;" d="M8 122L9 123L8 122z"/>
<path style="fill:#33c583; stroke:none;" d="M165.333 122.667L165.667 123.333L165.333 122.667M8 123L9 124L8 123z"/>
<path style="fill:#a2e1c2; stroke:none;" d="M217 123L218 124L217 123z"/>
<path style="fill:#64d09c; stroke:none;" d="M165.333 124.667L165.667 125.333L165.333 124.667M217 124L218 125L217 124z"/>
<path style="fill:#a2e1c2; stroke:none;" d="M7.33333 125.667L7.66667 126.333L7.33333 125.667z"/>
<path style="fill:#64d09c; stroke:none;" d="M30 126L31 127L30 126z"/>
<path style="fill:#ffffff; stroke:none;" d="M31.1296 127.086C26.2485 129.624 30.1358 137.733 34.3974 134.914C37.6359 132.771 35.7749 124.672 31.1296 127.086z"/>
<path style="fill:#64d09c; stroke:none;" d="M35 126L36 127L35 126z"/>
<path style="fill:#33c583; stroke:none;" d="M165 126L165 129L166 129L165 126z"/>
<path style="fill:#a2e1c2; stroke:none;" d="M190 126L191 127L190 126z"/>
<path style="fill:#ffffff; stroke:none;" d="M189 135C202.815 137.851 192.908 121.916 190.278 129.147C189.62 130.957 189.454 133.122 189 135z"/>
<path style="fill:#a2e1c2; stroke:none;" d="M194 126L195 127L194 126z"/>
<path style="fill:#33c583; stroke:none;" d="M195 126L196 127L195 126M7 127L8 128L7 127z"/>
<path style="fill:#a2e1c2; stroke:none;" d="M29 127L30 128L29 127z"/>
<path style="fill:#33c583; stroke:none;" d="M189 127L190 128L189 127M196 127L197 128L196 127z"/>
<path style="fill:#a2e1c2; stroke:none;" d="M218.333 127.667L218.667 128.333L218.333 127.667z"/>
<path style="fill:#64d09c; stroke:none;" d="M28 128L29 129L28 128M189 128L189 131L190 131L189 128z"/>
<path style="fill:#a2e1c2; stroke:none;" d="M197 129L197 133L198 133L197 129z"/>
<path style="fill:#64d09c; stroke:none;" d="M218 129L218 133L219 133L218 129M60.3333 130.667L60.6667 131.333L60.3333 130.667z"/>
<path style="fill:#a2e1c2; stroke:none;" d="M189 131L189 134L190 134L189 131z"/>
<path style="fill:#33c583; stroke:none;" d="M60 132L61 133L60 132z"/>
<path style="fill:#a2e1c2; stroke:none;" d="M28 133L29 134L28 133z"/>
<path style="fill:#33c583; stroke:none;" d="M36 133L37 134L36 133z"/>
<path style="fill:#a2e1c2; stroke:none;" d="M164.333 133.667L164.667 134.333L164.333 133.667M218 133L218 136L219 136L218 133z"/>
<path style="fill:#33c583; stroke:none;" d="M7 134L8 135L7 134z"/>
<path style="fill:#a2e1c2; stroke:none;" d="M29 134L30 135L29 134z"/>
<path style="fill:#64d09c; stroke:none;" d="M36 134L37 135L36 134M196 134L197 135L196 134M7 135L8 136L7 135z"/>
<path style="fill:#a2e1c2; stroke:none;" d="M30 135L31 136L30 135z"/>
<path style="fill:#64d09c; stroke:none;" d="M35 135L36 136L35 135z"/>
<path style="fill:#a2e1c2; stroke:none;" d="M61.3333 135.667L61.6667 136.333L61.3333 135.667z"/>
<path style="fill:#64d09c; stroke:none;" d="M164 135L165 136L164 135z"/>
<path style="fill:#a2e1c2; stroke:none;" d="M190 135L191 136L190 135z"/>
<path style="fill:#33c583; stroke:none;" d="M195 135L196 136L195 135z"/>
<path style="fill:#a2e1c2; stroke:none;" d="M7 136L8 137L7 136z"/>
<path style="fill:#33c583; stroke:none;" d="M164 136L165 137L164 136M61 137L62 138L61 137M8 138L9 139L8 138z"/>
<path style="fill:#a2e1c2; stroke:none;" d="M163.333 138.667L163.667 139.333L163.333 138.667z"/>
<path style="fill:#64d09c; stroke:none;" d="M217 138L218 139L217 138z"/>
<path style="fill:#a2e1c2; stroke:none;" d="M8 139L9 140L8 139M217 139L218 140L217 139M62 140L63 141L62 140z"/>
<path style="fill:#33c583; stroke:none;" d="M163 140L164 141L163 140M9 141L10 142L9 141z"/>
<path style="fill:#a2e1c2; stroke:none;" d="M216 141L217 142L216 141M162 142L163 143L162 142z"/>
<path style="fill:#64d09c; stroke:none;" d="M10 143L11 144L10 143z"/>
<path style="fill:#a2e1c2; stroke:none;" d="M63 143L64 144L63 143z"/>
<path style="fill:#33c583; stroke:none;" d="M162 143L163 144L162 143z"/>
<path style="fill:#a2e1c2; stroke:none;" d="M215 143L216 144L215 143z"/>
<path style="fill:#33c583; stroke:none;" d="M214 144L215 145L214 144z"/>
<path style="fill:#a2e1c2; stroke:none;" d="M11 145L12 146L11 145M64 145L65 146L64 145z"/>
<path style="fill:#64d09c; stroke:none;" d="M161 145L162 146L161 145M12 146L13 147L12 146M64 146L65 147L64 146z"/>
<path style="fill:#a2e1c2; stroke:none;" d="M213 146L214 147L213 146z"/>
<path style="fill:#33c583; stroke:none;" d="M13 147L14 148L13 147z"/>
<path style="fill:#a2e1c2; stroke:none;" d="M160 147L161 148L160 147z"/>
<path style="fill:#64d09c; stroke:none;" d="M212 147L213 148L212 147z"/>
<path style="fill:#33c583; stroke:none;" d="M14 148L15 149L14 148z"/>
<path style="fill:#64d09c; stroke:none;" d="M65 148L66 149L65 148z"/>
<path style="fill:#33c583; stroke:none;" d="M211 148L212 149L211 148M15 149L16 150L15 149z"/>
<path style="fill:#a2e1c2; stroke:none;" d="M159 149L160 150L159 149z"/>
<path style="fill:#64d09c; stroke:none;" d="M210 149L211 150L210 149M16 150L17 151L16 150z"/>
<path style="fill:#33c583; stroke:none;" d="M66 150L67 151L66 150z"/>
<path style="fill:#64d09c; stroke:none;" d="M209 150L210 151L209 150z"/>
<path style="fill:#a2e1c2; stroke:none;" d="M17 151L18 152L17 151M67 151L68 152L67 151M158 151L159 152L158 151M208 151L209 152L208 151z"/>
<path style="fill:#64d09c; stroke:none;" d="M19 152L20 153L19 152z"/>
<path style="fill:#33c583; stroke:none;" d="M67 152L68 153L67 152z"/>
<path style="fill:#64d09c; stroke:none;" d="M206 152L207 153L206 152M21 153L22 154L21 153z"/>
<path style="fill:#a2e1c2; stroke:none;" d="M68 153L69 154L68 153z"/>
<path style="fill:#33c583; stroke:none;" d="M157 153L158 154L157 153M204 153L205 154L204 153z"/>
<path style="fill:#a2e1c2; stroke:none;" d="M205 153L206 154L205 153M23 154L24 155L23 154z"/>
<path style="fill:#64d09c; stroke:none;" d="M40.6667 154.333L41.3333 154.667L40.6667 154.333z"/>
<path style="fill:#a2e1c2; stroke:none;" d="M156 154L157 155L156 154z"/>
<path style="fill:#33c583; stroke:none;" d="M184 154L185 155L184 154z"/>
<path style="fill:#64d09c; stroke:none;" d="M202 154L203 155L202 154z"/>
<path style="fill:#a2e1c2; stroke:none;" d="M26 155L27 156L26 155z"/>
<path style="fill:#64d09c; stroke:none;" d="M27 155L28 156L27 155z"/>
<path style="fill:#33c583; stroke:none;" d="M28 155L29 156L28 155M35 155L36 156L35 155z"/>
<path style="fill:#64d09c; stroke:none;" d="M36 155L37 156L36 155z"/>
<path style="fill:#a2e1c2; stroke:none;" d="M37 155L38 156L37 155z"/>
<path style="fill:#33c583; stroke:none;" d="M69 155L70 156L69 155z"/>
<path style="fill:#a2e1c2; stroke:none;" d="M187 155L188 156L187 155z"/>
<path style="fill:#33c583; stroke:none;" d="M188 155L189 156L188 155M198 155L199 156L198 155z"/>
<path style="fill:#64d09c; stroke:none;" d="M199 155L200 156L199 155z"/>
<path style="fill:#a2e1c2; stroke:none;" d="M200 155L201 156L200 155z"/>
<path style="fill:#33c583; stroke:none;" d="M42 156L43 157L42 156z"/>
<path style="fill:#a2e1c2; stroke:none;" d="M68 156L69 157L68 156z"/>
<path style="fill:#33c583; stroke:none;" d="M157 156L158 157L157 156z"/>
<path style="fill:#64d09c; stroke:none;" d="M183 156L184 157L183 156z"/>
<path style="fill:#a2e1c2; stroke:none;" d="M192 156L192 157L195 157L192 156M42 157L43 158L42 157z"/>
<path style="fill:#33c583; stroke:none;" d="M66 157L67 158L66 157z"/>
<path style="fill:#a2e1c2; stroke:none;" d="M158 157L159 158L158 157M65 158L66 159L65 158z"/>
<path style="fill:#33c583; stroke:none;" d="M160 158L161 159L160 158M182 158L183 159L182 158z"/>
<path style="fill:#a2e1c2; stroke:none;" d="M43 159L44 160L43 159M161 159L162 160L161 159M182 159L183 160L182 159z"/>
<path style="fill:#64d09c; stroke:none;" d="M62 160L63 161L62 160z"/>
<path style="fill:#33c583; stroke:none;" d="M181 160L182 161L181 160z"/>
<path style="fill:#a2e1c2; stroke:none;" d="M44 161L45 162L44 161z"/>
<path style="fill:#64d09c; stroke:none;" d="M164 161L165 162L164 161z"/>
<path style="fill:#a2e1c2; stroke:none;" d="M181 161L182 162L181 161z"/>
<path style="fill:#64d09c; stroke:none;" d="M59 162L60 163L59 162z"/>
<path style="fill:#a2e1c2; stroke:none;" d="M165 162L166 163L165 162z"/>
<path style="fill:#33c583; stroke:none;" d="M180 162L181 163L180 162z"/>
<path style="fill:#a2e1c2; stroke:none;" d="M45 163L46 164L45 163z"/>
<path style="fill:#64d09c; stroke:none;" d="M167 163L168 164L167 163z"/>
<path style="fill:#33c583; stroke:none;" d="M46 164L47 165L46 164z"/>
<path style="fill:#64d09c; stroke:none;" d="M56 164L57 165L56 164z"/>
<path style="fill:#a2e1c2; stroke:none;" d="M168 164L169 165L168 164z"/>
<path style="fill:#64d09c; stroke:none;" d="M179 164L180 165L179 164z"/>
<path style="fill:#a2e1c2; stroke:none;" d="M46 165L47 166L46 165M55 165L56 166L55 165z"/>
<path style="fill:#64d09c; stroke:none;" d="M170 165L171 166L170 165M47 166L48 167L47 166M53 166L54 167L53 166z"/>
<path style="fill:#a2e1c2; stroke:none;" d="M171 166L172 167L171 166M178 166L179 167L178 166M52 167L53 168L52 167z"/>
<path style="fill:#33c583; stroke:none;" d="M173 167L174 168L173 167M177 167L178 168L177 167z"/>
<path style="fill:#a2e1c2; stroke:none;" d="M48 168L49 169L48 168z"/>
<path style="fill:#64d09c; stroke:none;" d="M50 168L51 169L50 168z"/>
<path style="fill:#a2e1c2; stroke:none;" d="M174 168L175 169L174 168M49 169L50 170L49 169M176 169L177 170L176 169z"/>
</svg>
