<?xml version="1.0" encoding="UTF-8" standalone="no"?>
<svg
   id="Layer_1"
   data-name="Layer 1"
   viewBox="0 0 98.868882 68.94"
   version="1.1"
   sodipodi:docname="surveymonkey.svg"
   width="98.868881"
   height="68.940002"
   inkscape:version="1.2.1 (9c6d41e410, 2022-07-14, custom)"
   xmlns:inkscape="http://www.inkscape.org/namespaces/inkscape"
   xmlns:sodipodi="http://sodipodi.sourceforge.net/DTD/sodipodi-0.dtd"
   xmlns="http://www.w3.org/2000/svg"
   xmlns:svg="http://www.w3.org/2000/svg"
   xmlns:rdf="http://www.w3.org/1999/02/22-rdf-syntax-ns#"
   xmlns:cc="http://creativecommons.org/ns#"
   xmlns:dc="http://purl.org/dc/elements/1.1/">
  <sodipodi:namedview
     id="namedview246"
     pagecolor="#ffffff"
     bordercolor="#666666"
     borderopacity="1.0"
     inkscape:showpageshadow="2"
     inkscape:pageopacity="0.0"
     inkscape:pagecheckerboard="0"
     inkscape:deskcolor="#d1d1d1"
     showgrid="false"
     inkscape:zoom="2.6826665"
     inkscape:cx="252.73362"
     inkscape:cy="38.021872"
     inkscape:window-width="3840"
     inkscape:window-height="2083"
     inkscape:window-x="0"
     inkscape:window-y="40"
     inkscape:window-maximized="1"
     inkscape:current-layer="Layer_1" />
  <defs
     id="defs224">
    <style
       id="style222">.cls-1{fill:#00bf6f;}</style>
  </defs>
  <title
     id="title226">Horizontal_Sabaeus_RGB</title>
  <path
     id="_Compound_Path_13"
     data-name="&lt;Compound Path&gt;"
     class="cls-1"
     d="m 87.212534,39.35 a 11.78,11.78 0 0 0 -2.79,0.35 36,36 0 0 0 -28.5,-26.56 c -0.62,-0.11 -1.18,-0.19 -1.81,-0.27 v 0 c 0.1,-3.4 0.26,-7.33 5.27,-10.87 l -0.79,-2 c 0,0 -9.75,3 -10.88,11.37 -0.49,-2.27 -5,-5.11 -7.28,-5.65 l -1.12,1.81 a 7.84,7.84 0 0 1 3.71,5.61 v 0 a 36,36 0 0 0 -28.51,26.55 11.68,11.68 0 1 0 1.47,22.19 35.8,35.8 0 0 0 3.79,7.06 l 9.69,-6.53 -0.08,-0.11 a 23.87,23.87 0 0 1 -4.39,-13 c -0.29,-5.32 1,-10.61 4.41,-13.72 7,-6 14.64,-3.25 19.42,2.47 h 1.29 c 4.78,-5.72 12.41,-8.44 19.42,-2.47 3.4,3.11 4.7,8.4 4.41,13.72 a 23.87,23.87 0 0 1 -4.39,13 l -0.08,0.11 9.69,6.53 a 35.8,35.8 0 0 0 3.79,-7.06 11.67,11.67 0 1 0 4.27,-22.54 z m -75.72,15.12 a 3.45,3.45 0 0 1 0,-6.89 3.47,3.47 0 0 1 1.93,0.6 52.34,52.34 0 0 0 0.37,5.41 3.45,3.45 0 0 1 -2.3,0.88 z m 75.95,0 a 3.45,3.45 0 0 1 -2.3,-0.88 52.34,52.34 0 0 0 0.37,-5.41 3.44,3.44 0 0 1 5.37,2.86 3.44,3.44 0 0 1 -3.45,3.43 z" />
  <metadata
     id="metadata248">
    <rdf:RDF>
      <cc:Work
         rdf:about="">
        <dc:title>Horizontal_Sabaeus_RGB</dc:title>
      </cc:Work>
    </rdf:RDF>
  </metadata>
</svg>
