<svg xmlns="http://www.w3.org/2000/svg" width="250" height="250" fill="none"><path fill="#00BF6F" fill-rule="evenodd" d="M212.119 167.455a7.98 7.98 0 0 1-5.364-2.079c.483-4.202.804-8.447.858-12.768a8.034 8.034 0 0 1 4.506-1.4c4.425 0 8.045 3.647 8.045 8.14a8.095 8.095 0 0 1-4.96 7.49 8.032 8.032 0 0 1-3.085.617Zm-177.376 0a8.03 8.03 0 0 1-5.698-2.376 8.11 8.11 0 0 1-2.347-5.731c0-4.493 3.62-8.146 8.045-8.146 1.663 0 3.218.539 4.505 1.406.054 4.321.376 8.566.859 12.768a7.998 7.998 0 0 1-5.364 2.079Zm176.85-35.662c-2.264 0-4.436.312-6.522.824-8.014-32.01-34.049-56.78-66.574-62.636a72.958 72.958 0 0 0-4.237-.646c.241-8.022.617-17.293 12.299-25.632L144.708 39s-22.763 7.143-25.402 26.817c-1.137-5.355-11.752-12.051-17.008-13.322l-2.612 4.256s6.967 3.523 8.662 13.23c-32.514 5.867-58.544 30.631-66.557 62.636a27.316 27.316 0 0 0-6.528-.819C20.235 131.798 8 144.124 8 159.348c0 15.191 12.235 27.544 27.263 27.544 3.524 0 6.882-.711 9.966-1.929a84.764 84.764 0 0 0 8.86 16.647l22.635-15.408-.193-.258c-5.986-7.768-9.649-19.211-10.26-30.599-.682-12.552 2.354-25.028 10.298-32.36 16.37-14.071 34.193-7.661 45.36 5.834h3.004c11.167-13.495 28.99-19.905 45.365-5.834 7.938 7.332 10.974 19.808 10.298 32.366-.616 11.382-4.28 22.825-10.266 30.598l-.193.248 22.635 15.413a84.97 84.97 0 0 0 8.861-16.647 27.086 27.086 0 0 0 9.96 1.929c15.034 0 27.269-12.353 27.269-27.544 0-15.23-12.235-27.555-27.269-27.555Z" clip-rule="evenodd"/></svg>