<svg xmlns="http://www.w3.org/2000/svg" width="98.869" height="68.94" data-name="Layer 1"><path d="M87.213 39.35a11.78 11.78 0 0 0-2.79.35 36 36 0 0 0-28.5-26.56c-.62-.11-1.18-.19-1.81-.27.1-3.4.26-7.33 5.27-10.87l-.79-2s-9.75 3-10.88 11.37c-.49-2.27-5-5.11-7.28-5.65l-1.12 1.81a7.84 7.84 0 0 1 3.71 5.61 36 36 0 0 0-28.51 26.55 11.68 11.68 0 1 0 1.47 22.19 35.8 35.8 0 0 0 3.79 7.06l9.69-6.53-.08-.11a23.87 23.87 0 0 1-4.39-13c-.29-5.32 1-10.61 4.41-13.72 7-6 14.64-3.25 19.42 2.47h1.29c4.78-5.72 12.41-8.44 19.42-2.47 3.4 3.11 4.7 8.4 4.41 13.72a23.87 23.87 0 0 1-4.39 13l-.08.11 9.69 6.53a35.8 35.8 0 0 0 3.79-7.06 11.67 11.67 0 1 0 4.27-22.54zm-75.72 15.12a3.45 3.45 0 0 1 0-6.89 3.47 3.47 0 0 1 1.93.6 52.34 52.34 0 0 0 .37 5.41 3.45 3.45 0 0 1-2.3.88zm75.95 0a3.45 3.45 0 0 1-2.3-.88 52.34 52.34 0 0 0 .37-5.41 3.44 3.44 0 0 1 5.37 2.86 3.44 3.44 0 0 1-3.45 3.43z" data-name="&lt;Compound Path&gt;" style="fill:#00bf6f"/></svg>