<svg width="250" height="250" viewBox="0 0 250 250" fill="none" xmlns="http://www.w3.org/2000/svg">
<path fill-rule="evenodd" clip-rule="evenodd" d="M89.5581 125.629C96.4981 125.629 102.116 131.246 102.116 138.169C102.116 145.099 96.4981 150.716 89.5581 150.716C82.6247 150.716 77 145.099 77 138.169C77 131.246 82.6247 125.629 89.5581 125.629Z" fill="#994FFA"/>
<path fill-rule="evenodd" clip-rule="evenodd" d="M89.5581 160.569C96.4981 160.569 102.116 166.185 102.116 173.115C102.116 180.039 96.4981 185.655 89.5581 185.655C82.6247 185.655 77 180.039 77 173.115C77 166.185 82.6247 160.569 89.5581 160.569Z" fill="#BF91FC"/>
<path fill-rule="evenodd" clip-rule="evenodd" d="M89.5581 90.6866C82.6247 90.6866 77 96.3032 77 103.233C77 110.157 82.6247 115.773 89.5581 115.773C96.4981 115.773 102.123 110.157 102.123 103.233C102.123 96.3032 96.4981 90.6866 89.5581 90.6866ZM151.734 59H127.08V157.604C127.08 183.753 139.5 193.488 173.34 189.667V167.339C159.189 168.098 151.734 167.913 151.734 157.604V116.024H173.34V92.3498H151.734V59Z" fill="#5405BD"/>
</svg>
