<svg xmlns="http://www.w3.org/2000/svg" viewBox="0 0 256 256"><defs><style>.cls-1{fill:#5405bd;}.cls-2{fill:#fff;fill-rule:evenodd;}</style></defs><g id="Layer_1" data-name="Layer 1"><rect class="cls-1" width="256" height="256"/><path class="cls-2" d="M173.49991,113.85559H150.85276v43.6459c0,10.81955,7.8171,11.0198,22.64715,10.21805v23.44215c-35.4727,4.0073-48.5-6.2115-48.5-33.6602V54.00009h25.85285V89.01094h22.64715Z"/><path class="cls-2" d="M101.99991,100.50009a13,13,0,1,1-13.00035-13,13.00011,13.00011,0,0,1,13.00035,13"/><path class="cls-2" d="M101.99991,137.50009a13,13,0,1,1-13.00035-13,13.00011,13.00011,0,0,1,13.00035,13"/><path class="cls-2" d="M101.99991,173.49974a13,13,0,1,1-13.00035-12.99965,13.00028,13.00028,0,0,1,13.00035,12.99965"/></g></svg>