<svg xmlns="http://www.w3.org/2000/svg" width="250" height="250" fill="none"><path fill="#994FFA" fill-rule="evenodd" d="M57.696 126.191c13.093 0 23.692 10.638 23.692 23.75 0 13.125-10.6 23.763-23.692 23.763-13.08 0-23.692-10.638-23.692-23.763 0-13.112 10.611-23.75 23.692-23.75Z" clip-rule="evenodd"/><path fill="#BF91FC" fill-rule="evenodd" d="M57.696 192.365c13.093 0 23.692 10.637 23.692 23.762 0 13.113-10.6 23.75-23.692 23.75-13.08 0-23.692-10.637-23.692-23.75 0-13.125 10.611-23.762 23.692-23.762Z" clip-rule="evenodd"/><path fill="#5405BD" fill-rule="evenodd" d="M57.692 60.013C44.612 60.013 34 70.65 34 83.775c0 13.112 10.611 23.75 23.692 23.75 13.093 0 23.705-10.638 23.705-23.75 0-13.125-10.612-23.763-23.705-23.763ZM174.993 0h-46.512v186.75c0 49.525 23.431 67.962 87.274 60.725v-42.288c-26.697 1.438-40.762 1.088-40.762-18.437V108h40.762V63.163h-40.762V0Z" clip-rule="evenodd"/></svg>