<svg xmlns="http://www.w3.org/2000/svg" width="250" height="250" fill="none"><path fill="#994FFA" fill-rule="evenodd" d="M68.81 126c10.947 0 19.808 8.936 19.808 19.95 0 11.025-8.861 19.961-19.808 19.961-10.936 0-19.808-8.936-19.808-19.961 0-11.014 8.872-19.95 19.808-19.95Z" clip-rule="evenodd"/><path fill="#BF91FC" fill-rule="evenodd" d="M68.81 181.586c10.947 0 19.808 8.936 19.808 19.961 0 11.014-8.861 19.95-19.808 19.95-10.936 0-19.808-8.936-19.808-19.95 0-11.025 8.872-19.961 19.808-19.961Z" clip-rule="evenodd"/><path fill="#5405BD" fill-rule="evenodd" d="M68.808 70.41C57.872 70.41 49 79.346 49 90.371c0 11.015 8.872 19.95 19.808 19.95 10.947 0 19.819-8.935 19.819-19.95 0-11.025-8.872-19.96-19.819-19.96ZM166.88 20h-38.886v156.87c0 41.601 19.589 57.089 72.966 51.009v-35.521c-22.32 1.207-34.08.913-34.08-15.488v-66.15h34.08V73.057h-34.08V20Z" clip-rule="evenodd"/></svg>