<svg xmlns="http://www.w3.org/2000/svg" viewBox="0 0 256 256"><defs><style>.cls-2{fill:#fff;fill-rule:evenodd}</style></defs><g id="Layer_1" data-name="Layer 1"><path d="M0 0h256v256H0z" style="fill:#5405bd"/><path d="M173.5 113.856h-22.647V157.5c0 10.82 7.817 11.02 22.647 10.219v23.442c-35.473 4.007-48.5-6.212-48.5-33.66V54h25.853v35.01H173.5ZM102 100.5a13 13 0 1 1-13-13 13 13 0 0 1 13 13M102 137.5a13 13 0 1 1-13-13 13 13 0 0 1 13 13M102 173.5a13 13 0 1 1-13-13 13 13 0 0 1 13 13" class="cls-2"/></g></svg>