<svg width="250" height="250" viewBox="0 0 250 250" fill="none" xmlns="http://www.w3.org/2000/svg">
<path fill-rule="evenodd" clip-rule="evenodd" d="M190 124.965C190 160.883 160.921 190 125.05 190C124.148 190 123.251 189.982 122.358 189.945L116.113 179.112C119.021 179.59 122.007 179.838 125.05 179.838C155.316 179.838 179.852 155.271 179.852 124.965C179.852 120.357 179.284 115.881 178.215 111.604L184.985 99.8633C188.215 107.587 190 116.067 190 124.965Z" fill="#ED9B33"/>
<path fill-rule="evenodd" clip-rule="evenodd" d="M70.1543 124.977C70.1543 150.3 87.3378 171.612 110.686 177.9L117.383 189.492C85.0744 185.728 60 158.279 60 124.977C60 112.298 63.6347 100.467 69.9196 90.4688H82.3861C74.7375 99.8905 70.1543 111.899 70.1543 124.977Z" fill="#00C3F2"/>
<path fill-rule="evenodd" clip-rule="evenodd" d="M125.002 60C150.243 60 172.124 74.3506 182.891 95.3182L176.585 106.211C168.948 85.1673 148.735 70.1301 125.002 70.1301C109.763 70.1301 95.9757 76.3293 86.0368 86.3373L72.6953 86.3374C84.5339 70.3605 103.555 60 125.002 60Z" fill="#00B47E"/>
<path fill-rule="evenodd" clip-rule="evenodd" d="M115.902 150.094L94.3214 128.585C93.9241 128.189 93.9241 127.547 94.3214 127.151L104.392 117.113C104.79 116.717 105.434 116.717 105.831 117.113L116.622 127.868L144.677 99.9064C145.074 99.5104 145.718 99.5104 146.115 99.9064L156.186 109.944C156.584 110.34 156.584 110.982 156.186 111.378L117.341 150.094C116.944 150.49 116.3 150.49 115.902 150.094Z" fill="#004976"/>
</svg>
