<?xml version="1.0" encoding="UTF-8" standalone="no"?>
<!-- Created with Inkscape (http://www.inkscape.org/) by Marsupilami -->
<svg
   xmlns:svg="http://www.w3.org/2000/svg"
   xmlns="http://www.w3.org/2000/svg"
   version="1.0"
   width="1024"
   height="696"
   viewBox="0 0 161.59375 109.78125"
   id="svg2366">
  <defs
     id="defs2368" />
  <g
     transform="translate(37.923122,-437.46845)"
     id="layer1">
    <path
       d="M -8.75,-8.78125 L -8.75,-7.78125 L -8.75,-6.78125 C -8.7500004,29.14583 -8.75,65.07292 -8.75,101 C 45.114583,101 98.979167,101 152.84375,101 C 152.84375,64.406252 152.84375,27.8125 152.84375,-8.78125 C 98.979163,-8.7812504 45.114583,-8.78125 -8.75,-8.78125 z M 106,0.34375 L 116.84375,0.34375 L 116.5,2.375 L 115.5625,4.375 L 114.09375,6.34375 L 112.09375,8.21875 L 109.625,9.875 L 106.75,11.3125 L 103.5625,12.4375 L 100.125,13.1875 L 25.28125,30.71875 L 22.53125,31.3125 L 20.25,32.1875 L 18.3125,33.3125 L 16.75,34.6875 L 15.5625,36.40625 L 14.59375,38.40625 L 13.84375,40.78125 L 13.3125,43.5625 L 0.34375,46.75 L 0.96875,44.03125 L 1.75,41.5 L 2.6875,39.3125 L 3.71875,37.28125 L 4.84375,35.46875 L 6.125,33.90625 L 7.5,32.4375 L 8.96875,31.1875 L 10.59375,30.0625 L 12.25,29.0625 L 15.90625,27.40625 L 19.84375,26.09375 L 24.15625,24.96875 L 99.84375,7.09375 L 102.46875,6.28125 L 104.40625,4.90625 L 105.09375,4.03125 L 105.625,2.90625 L 105.90625,1.71875 L 106,0.34375 z M 120.78125,19 L 123.1875,19.125 L 125.4375,19.96875 L 127.4375,21.5625 L 128.9375,23.9375 L 129.84375,27 L 130.40625,30.09375 L 130.6875,33.21875 L 130.625,36.25 L 130.25,39.3125 L 129.5625,42.28125 L 128.625,45.0625 L 127.375,47.78125 L 125.71875,49.5 L 123.71875,50.96875 L 121.59375,52 L 119.375,52.625 L 117.125,52.53125 L 115,51.6875 L 114.03125,51.03125 L 113.125,50.09375 L 112.25,48.90625 L 111.53125,47.5 L 110.59375,44.71875 L 110.03125,41.875 L 109.75,39.03125 L 109.75,36.1875 L 110.03125,33.40625 L 110.53125,30.6875 L 111.21875,28.125 L 112.21875,25.65625 L 113,24.21875 L 113.9375,22.90625 L 114.90625,21.75 L 116,20.84375 L 118.34375,19.5 L 120.78125,19 z M 120.625,23.21875 L 120,23.34375 L 118.71875,24.28125 L 118.34375,25 L 118.15625,25.9375 L 118.21875,47 L 118.375,47.78125 L 118.78125,48.1875 L 120.0625,48.1875 L 120.75,47.78125 L 121.3125,47.25 L 121.71875,46.46875 L 121.875,45.59375 L 121.78125,24.625 L 121.59375,23.8125 L 121.1875,23.34375 L 120.625,23.21875 z M 101.4375,24.25 L 102.34375,24.3125 L 103.3125,24.59375 L 104.1875,25.125 L 104.96875,25.84375 L 105.71875,26.84375 L 106.34375,28.03125 L 106.9375,29.5 L 107.71875,33.125 L 108,37.75 L 108.0625,41.59375 L 107.65625,45.4375 L 106.6875,49.09375 L 106.0625,50.8125 L 105.3125,52.3125 L 104.46875,53.71875 L 103.5,54.84375 L 102.46875,55.78125 L 101.3125,56.5 L 100.125,56.90625 L 98.78125,56.96875 L 97.40625,56.6875 L 96,56.09375 L 96,64.03125 L 87.53125,66.09375 L 87.53125,32.125 L 86.53125,31.75 L 86.1875,31.46875 L 86.1875,30.875 L 86.59375,30.21875 L 87.40625,29.5 L 92.5625,26.96875 L 94,26.59375 L 94.5625,26.71875 L 94.96875,27.09375 L 95.1875,27.625 L 95.59375,27.90625 L 96.0625,27.71875 L 96.4375,27.25 L 97.40625,26.25 L 98.4375,25.46875 L 100.46875,24.46875 L 101.4375,24.25 z M 79.9375,29 L 81.71875,29.1875 L 83.1875,29.96875 L 83.875,30.625 L 84.40625,31.4375 L 84.8125,32.4375 L 85.03125,33.5625 L 85.03125,58.25 L 76.96875,60.03125 L 76.96875,37.84375 L 76.84375,36.875 L 76.5,36.1875 L 75.9375,35.875 L 75.28125,35.875 L 74.65625,36.125 L 74.15625,36.65625 L 73.75,37.53125 L 73.5625,38.59375 L 73.5625,61.15625 L 65.84375,62.875 L 65.84375,40.03125 L 65.6875,39.25 L 65.28125,38.78125 L 64.75,38.59375 L 64.125,38.59375 L 63.5625,38.84375 L 63.09375,39.3125 L 62.8125,39.96875 L 62.75,40.78125 L 62.75,63.65625 L 54.75,65.46875 L 54.75,41.8125 L 54.5625,40.15625 L 54.28125,39.78125 L 53.46875,39.65625 L 52.90625,39.65625 L 52.625,39.03125 L 52.90625,38.25 L 53.25,37.84375 L 53.8125,37.53125 L 59.03125,34.6875 L 60.46875,34.09375 L 61.5,34.15625 L 62.1875,34.9375 L 62.6875,36.1875 L 63.84375,34.75 L 65,33.5 L 66.1875,32.5625 L 67.4375,31.96875 L 68.78125,31.6875 L 70.1875,31.84375 L 71.625,32.4375 L 73.21875,33.5625 L 73.875,32.5625 L 74.5625,31.6875 L 76.21875,30.3125 L 78.03125,29.375 L 79.9375,29 z M 98.34375,29.875 L 97.71875,30 L 97.125,30.40625 L 96.5625,31 L 96.15625,31.71875 L 95.9375,32.65625 L 95.9375,51.25 L 96.21875,52 L 96.6875,52.4375 L 97.25,52.59375 L 97.875,52.4375 L 98.4375,52.0625 L 98.96875,51.53125 L 99.375,50.71875 L 99.46875,49.8125 L 99.46875,31.34375 L 99.25,30.53125 L 98.84375,30.0625 L 98.34375,29.875 z M 30.3125,32.59375 L 29.5625,33.4375 L 29.09375,34.4375 L 28.8125,36.8125 L 28.8125,69 L 28.53125,71.1875 L 27.71875,73.34375 L 26.59375,75.46875 L 25.15625,77.46875 L 23.375,79.3125 L 21.4375,80.90625 L 19.3125,82.21875 L 17.0625,83.28125 L 14.84375,83.9375 L 12.625,84.28125 L 10.4375,84.09375 L 8.4375,83.5 L 6.59375,82.28125 L 5,80.5 L 3.75,78.125 L 2.8125,75.09375 L 12.09375,72.96875 L 12.09375,76.8125 L 12.3125,78.78125 L 13,80.03125 L 14,80.71875 L 15.0625,80.71875 L 16.21875,80.1875 L 17.3125,79.125 L 18.09375,77.53125 L 18.5625,75.46875 L 18.5625,44.03125 L 19.25,41.1875 L 20.21875,38.875 L 21.375,37.03125 L 22.75,35.5625 L 24.28125,34.4375 L 26.125,33.65625 L 28.125,33.0625 L 30.3125,32.59375 z M 43.625,37.40625 L 45.53125,37.46875 L 47.28125,38.0625 L 48.90625,39.0625 L 50.28125,40.65625 L 51.375,42.78125 L 52.15625,45.5 L 52.5625,48.8125 L 52.5625,53.84375 L 40.1875,56.28125 L 40.1875,64.875 L 40.375,65.8125 L 40.875,66.40625 L 41.5625,66.65625 L 42.3125,66.75 L 43.0625,66.40625 L 43.75,65.875 L 44.15625,65.15625 L 44.21875,64.15625 L 44.21875,58.78125 L 52.21875,57.0625 L 52.15625,59.65625 L 51.71875,61.96875 L 50.90625,64.09375 L 49.75,65.875 L 48.375,67.46875 L 46.78125,68.71875 L 45.0625,69.65625 L 43.21875,70.3125 L 41.40625,70.5625 L 39.5625,70.4375 L 37.84375,69.96875 L 36.25,69.125 L 34.8125,67.875 L 33.625,66.15625 L 32.6875,63.96875 L 32.1875,61.3125 L 31.84375,52.78125 L 32,50 L 32.59375,47.40625 L 33.5625,45.03125 L 34.8125,42.90625 L 36.3125,41.125 L 38.03125,39.65625 L 39.84375,38.53125 L 41.75,37.75 L 43.625,37.40625 z M 42.09375,41.4375 L 41.40625,41.78125 L 40.78125,42.375 L 40.375,43.3125 L 40.1875,44.5 L 40.1875,52.375 L 44.21875,51.71875 L 44.21875,43.5 L 43.96875,42.4375 L 43.46875,41.78125 L 42.84375,41.4375 L 42.09375,41.4375 z M 143.71875,51.53125 L 143.3125,54.03125 L 142.46875,56.40625 L 141.15625,58.46875 L 139.4375,60.375 L 137.3125,62.03125 L 134.96875,63.5 L 129.53125,65.8125 L 47.59375,85.0625 L 45.0625,86 L 43.40625,87.25 L 42.375,89.1875 L 41.75,91.90625 L 31,91.90625 L 31.96875,88.90625 L 32.65625,87.65625 L 33.40625,86.46875 L 35.28125,84.40625 L 37.5625,82.75 L 40.09375,81.375 L 42.78125,80.3125 L 45.65625,79.375 L 48.5625,78.65625 L 126.15625,60.375 L 128.90625,59.25 L 129.875,58.59375 L 130.71875,57.875 L 131.375,57 L 131.8125,56.09375 L 132.28125,53.96875 L 143.71875,51.53125 z "
       transform="translate(-29.173122,446.2497)"
       style="opacity:1;fill:#2743a0;fill-opacity:1;stroke:none;stroke-width:2.44999146;stroke-linecap:round;stroke-miterlimit:2.9000001;stroke-dasharray:none;stroke-dashoffset:0;stroke-opacity:1"
       id="rect2403" />
  </g>
</svg>
