<?xml version="1.0" standalone="yes"?>
<svg xmlns="http://www.w3.org/2000/svg" width="225" height="225">
<path style="fill:#fffffe; stroke:none;" d="M0 0L0 100L1 100C1.22493 89.1023 5.91693 63.1023 16.213 57.0278C21.8142 53.7231 33.6129 56 40 56C35.0455 64.8993 29.156 73.1723 26.0285 83C15.6588 115.586 23.0872 150.747 46.4252 175.91C56.958 187.267 71.5625 190.22 82.6713 199.649C89.4344 205.39 93.1148 216.617 98 224C50.3916 220.211 2.0082 173.847 1 125L0 125L0 225L112 225L100 203C142.144 208.326 183.853 184.614 198.308 144C201.831 134.101 203.987 123.526 204 113C204.007 107.208 201.973 100.668 202.924 95C204.39 86.2589 212.498 78.1267 216 70C221.146 79.7662 223.97 91.9904 224 103L225 103L225 0L125 0L125 1C150.422 1.5247 176.809 17.1435 193.961 35.0008C198.661 39.8948 208.049 48.8075 208.544 56C208.995 62.5421 200.5 72.6936 197 78C192.482 67.1493 186.278 57.3682 177.996 49C154.116 24.8701 118.708 15.326 86 25.0363C72.9821 28.901 63.2642 39.2096 51 43.4113C43.0733 46.1269 31.3524 44 23 44C42.8497 22.4496 69.0417 1.63898 100 1L69 0L0 0z"/>
<path style="fill:#a1cfd5; stroke:none;" d="M100 0L100 1L106 1L100 0z"/>
<path style="fill:#07afee; stroke:none;" d="M106 0L106 1L109 1L109 2L96 1L96 2L98 2L98 3L90 2L90 3L92 3L92 4L86 3L82 4C82 6.43579 81.2139 5.61497 79 5C79 7.43579 78.2139 6.61497 76 6L73 7L70 8L71 10L68 9C68 11.9932 57.1482 16.3498 54 16L48 20L45 22L44 23L45 25C41.9169 25.48 40.489 25.8277 40 29L29 40L26 40L26 43L55 42L56 41L55 39L60 38L63 36L62 34L65 35L68 33L67 31L70 32L69 30L72 31L71 29L74 30L73 28L76 29L75 27L78 28L81 27C81 24.5642 81.7861 25.385 84 26C84 23.5642 84.7861 24.385 87 25L91 24C91 20.9149 93.5578 22.5501 96 23L96 22L94 22L94 21L102 22C101.307 18.5343 123.752 18.9911 123 22C126.327 21.4456 130.899 19.4053 130 23L135 24C137.95 23.0167 138.622 22.5131 138 25C140.95 24.0167 141.622 23.5131 141 26C143.95 25.0167 144.622 24.5131 144 27C147.114 26.481 151.645 27.4203 151 30L154 29L153 31L156 30L155 32C157.51 31.498 160.645 32.4209 160 35L166 36L166 39L170 39L182 54L183 55L185 54L186 59L188 62L190 65L193 70L195 69L194 72L196 71L195 74L198 76L199 76L198 73L200 74C199.498 71.4901 200.421 68.3552 203 69L202 66L204 67C203.498 64.4901 204.421 61.3552 207 62L208 60L209 54L207 51L205 48L203 45L202 44L200 45L199 40L198 39L196 40L185 29L180 25L180 22C177.351 22.5298 176.393 22.4278 177 20L171 16L157 9L154 10L155 8L149 6L146 5C143.05 5.98329 142.378 6.48691 143 4C139.984 5.00522 138.295 5.82112 139 3C135.984 4.00522 134.295 4.82112 135 2C131.709 2.54857 128.14 4.43808 129 1L116 2L116 1L120 1L106 0z"/>
<path style="fill:#a1cfd5; stroke:none;" d="M120 0L120 1L125 1L120 0M93 1L93 2L96 2L93 1z"/>
<path style="fill:#027f75; stroke:none;" d="M98 1L98 2L109 2L98 1M116 1L116 2L128 2L116 1z"/>
<path style="fill:#a1cfd5; stroke:none;" d="M129 1L129 2L132 2L129 1M88.6667 2.33333L89.3333 2.66667L88.6667 2.33333z"/>
<path style="fill:#027f75; stroke:none;" d="M92 2L92 3L98 3L92 2M128 2L128 3L133 3L128 2z"/>
<path style="fill:#a1cfd5; stroke:none;" d="M135.667 2.33333L136.333 2.66667L135.667 2.33333M84.6667 3.33333L85.3333 3.66667L84.6667 3.33333z"/>
<path style="fill:#027f75; stroke:none;" d="M87 3L87 4L92 4L87 3M134 3L134 4L138 4L134 3z"/>
<path style="fill:#a1cfd5; stroke:none;" d="M139.667 3.33333L140.333 3.66667L139.667 3.33333M80.6667 4.33333L81.3333 4.66667L80.6667 4.33333z"/>
<path style="fill:#027f75; stroke:none;" d="M83 4L83 5L86 5L83 4M138 4L138 5L142 5L138 4z"/>
<path style="fill:#a1cfd5; stroke:none;" d="M143.667 4.33333L144.333 4.66667L143.667 4.33333M77.6667 5.33333L78.3333 5.66667L77.6667 5.33333z"/>
<path style="fill:#027f75; stroke:none;" d="M80 5L80 6L83 6L80 5M142 5L142 6L145 6L142 5z"/>
<path style="fill:#a1cfd5; stroke:none;" d="M146.667 5.33333L147.333 5.66667L146.667 5.33333M74.6667 6.33333L75.3333 6.66667L74.6667 6.33333z"/>
<path style="fill:#027f75; stroke:none;" d="M77 6L77 7L80 7L77 6M146.667 6.33333L147.333 6.66667L146.667 6.33333z"/>
<path style="fill:#a1cfd5; stroke:none;" d="M149.667 6.33333L150.333 6.66667L149.667 6.33333M72 7L73 8L72 7z"/>
<path style="fill:#027f75; stroke:none;" d="M74.6667 7.33333L75.3333 7.66667L74.6667 7.33333M149 7L149 8L154 9L154 8L149 7z"/>
<path style="fill:#a1cfd5; stroke:none;" d="M152 7L153 8L152 7M69 8L70 9L69 8z"/>
<path style="fill:#027f75; stroke:none;" d="M71.6667 8.33333L72.3333 8.66667L71.6667 8.33333z"/>
<path style="fill:#a1cfd5; stroke:none;" d="M155 8L156 9L155 8M67 9L68 10L67 9z"/>
<path style="fill:#027f75; stroke:none;" d="M69.6667 9.33333L70.3333 9.66667L69.6667 9.33333M154.667 9.33333L155.333 9.66667L154.667 9.33333z"/>
<path style="fill:#a1cfd5; stroke:none;" d="M157 9L158 10L157 9M65 10L66 11L65 10z"/>
<path style="fill:#027f75; stroke:none;" d="M66 10L66 11L69 11L66 10M156 10L156 11L170 17L170 16L156 10z"/>
<path style="fill:#a1cfd5; stroke:none;" d="M159 10L160 11L159 10M63 11L64 12L63 11z"/>
<path style="fill:#027f75; stroke:none;" d="M64.6667 11.3333L65.3333 11.6667L64.6667 11.3333z"/>
<path style="fill:#a1cfd5; stroke:none;" d="M161 11L162 12L161 11M61 12L62 13L61 12z"/>
<path style="fill:#027f75; stroke:none;" d="M62.6667 12.3333L63.3333 12.6667L62.6667 12.3333z"/>
<path style="fill:#a1cfd5; stroke:none;" d="M163 12L164 13L163 12M59 13L60 14L59 13z"/>
<path style="fill:#027f75; stroke:none;" d="M60.6667 13.3333L61.3333 13.6667L60.6667 13.3333z"/>
<path style="fill:#a1cfd5; stroke:none;" d="M165 13L166 14L165 13M57 14L58 15L57 14z"/>
<path style="fill:#027f75; stroke:none;" d="M58.6667 14.3333L59.3333 14.6667L58.6667 14.3333z"/>
<path style="fill:#a1cfd5; stroke:none;" d="M167 14L168 15L167 14M55 15L56 16L55 15z"/>
<path style="fill:#027f75; stroke:none;" d="M56.6667 15.3333L57.3333 15.6667L56.6667 15.3333z"/>
<path style="fill:#a1cfd5; stroke:none;" d="M169 15L170 16L169 15M53 16L52 18L53 16z"/>
<path style="fill:#027f75; stroke:none;" d="M55 16L56 17L55 16z"/>
<path style="fill:#a1cfd5; stroke:none;" d="M171 16L173 18L171 16z"/>
<path style="fill:#027f75; stroke:none;" d="M53.6667 17.3333L54.3333 17.6667L53.6667 17.3333M170.667 17.3333L171.333 17.6667L170.667 17.3333z"/>
<path style="fill:#a1cfd5; stroke:none;" d="M50 18L49 20L50 18z"/>
<path style="fill:#027f75; stroke:none;" d="M51.6667 18.3333L52.3333 18.6667L51.6667 18.3333M172 18L172 19L176 21L172 18z"/>
<path style="fill:#a1cfd5; stroke:none;" d="M174 18L175 19L174 18z"/>
<path style="fill:#027f75; stroke:none;" d="M50 19L51 20L50 19z"/>
<path style="fill:#a1cfd5; stroke:none;" d="M175 19L176 20L175 19M47 20L46 22L47 20z"/>
<path style="fill:#027f75; stroke:none;" d="M49 20L50 21L49 20M101 20L101 21L124 21L101 20z"/>
<path style="fill:#a1cfd5; stroke:none;" d="M177 20L179 22L177 20z"/>
<path style="fill:#027f75; stroke:none;" d="M47.6667 21.3333L48.3333 21.6667L47.6667 21.3333M94 21L94 22L101 22L94 21z"/>
<path style="fill:#a1cfd5; stroke:none;" d="M102 21L102 22L107 22L102 21M117 21L117 22L123 22L117 21z"/>
<path style="fill:#027f75; stroke:none;" d="M125 21L125 22L131 22L125 21M176.667 21.3333L177.333 21.6667L176.667 21.3333M46 22L47 23L46 22M90 22L90 23L94 23L90 22z"/>
<path style="fill:#a1cfd5; stroke:none;" d="M96.6667 22.3333L97.3333 22.6667L96.6667 22.3333M127 22L127 23L130 23L127 22z"/>
<path style="fill:#027f75; stroke:none;" d="M132 22L132 23L135 23L132 22M178 22L179 23L178 22z"/>
<path style="fill:#a1cfd5; stroke:none;" d="M43 23L42 25L43 23z"/>
<path style="fill:#027f75; stroke:none;" d="M45 23L46 24L45 23M86 23L86 24L89 24L86 23z"/>
<path style="fill:#a1cfd5; stroke:none;" d="M91.6667 23.3333L92.3333 23.6667L91.6667 23.3333M132 23L132 24L135 24L132 23z"/>
<path style="fill:#027f75; stroke:none;" d="M136 23L136 24L139 24L136 23M179 23L180 24L179 23z"/>
<path style="fill:#a1cfd5; stroke:none;" d="M181 23L183 25L181 23z"/>
<path style="fill:#027f75; stroke:none;" d="M43.6667 24.3333L44.3333 24.6667L43.6667 24.3333M83 24L83 25L86 25L83 24z"/>
<path style="fill:#a1cfd5; stroke:none;" d="M87 24L88 25L87 24M137 24L138 25L137 24z"/>
<path style="fill:#027f75; stroke:none;" d="M139 24L139 25L142 25L139 24M180.667 24.3333L181.333 24.6667L180.667 24.3333M42 25L43 26L42 25M80 25L80 26L83 26L80 25z"/>
<path style="fill:#a1cfd5; stroke:none;" d="M84 25L85 26L84 25M140 25L141 26L140 25z"/>
<path style="fill:#027f75; stroke:none;" d="M142 25L142 26L145 26L142 25M182 25L183 26L182 25M41 26L40 28L41 26M78.6667 26.3333L79.3333 26.6667L78.6667 26.3333z"/>
<path style="fill:#a1cfd5; stroke:none;" d="M81 26L82 27L81 26M143 26L144 27L143 26z"/>
<path style="fill:#027f75; stroke:none;" d="M145 26L145 27L152 29L152 28L145 26M183 26L185 28L183 26M75.6667 27.3333L76.3333 27.6667L75.6667 27.3333z"/>
<path style="fill:#a1cfd5; stroke:none;" d="M78 27L79 28L78 27M145.667 27.3333L146.333 27.6667L145.667 27.3333M37 28L27 39L37 28z"/>
<path style="fill:#027f75; stroke:none;" d="M38.6667 28.3333L39.3333 28.6667L38.6667 28.3333M73.6667 28.3333L74.3333 28.6667L73.6667 28.3333z"/>
<path style="fill:#a1cfd5; stroke:none;" d="M76 28L77 29L76 28M148 28L149 29L148 28z"/>
<path style="fill:#027f75; stroke:none;" d="M185 28L185 29L196 40L197 40L185 28z"/>
<path style="fill:#a1cfd5; stroke:none;" d="M187 28L188 29L187 28z"/>
<path style="fill:#027f75; stroke:none;" d="M37 29L38 30L37 29M71.6667 29.3333L72.3333 29.6667L71.6667 29.3333z"/>
<path style="fill:#a1cfd5; stroke:none;" d="M74 29L75 30L74 29M150 29L151 30L150 29z"/>
<path style="fill:#027f75; stroke:none;" d="M152.667 29.3333L153.333 29.6667L152.667 29.3333z"/>
<path style="fill:#a1cfd5; stroke:none;" d="M188 29L189 30L188 29z"/>
<path style="fill:#027f75; stroke:none;" d="M36 30L37 31L36 30M69.6667 30.3333L70.3333 30.6667L69.6667 30.3333z"/>
<path style="fill:#a1cfd5; stroke:none;" d="M72 30L73 31L72 30M152 30L153 31L152 30z"/>
<path style="fill:#027f75; stroke:none;" d="M154.667 30.3333L155.333 30.6667L154.667 30.3333z"/>
<path style="fill:#a1cfd5; stroke:none;" d="M189 30L190 31L189 30z"/>
<path style="fill:#027f75; stroke:none;" d="M35 31L36 32L35 31M67.6667 31.3333L68.3333 31.6667L67.6667 31.3333z"/>
<path style="fill:#a1cfd5; stroke:none;" d="M70 31L71 32L70 31M154 31L155 32L154 31z"/>
<path style="fill:#027f75; stroke:none;" d="M156 31L156 32L161 34L161 33L156 31z"/>
<path style="fill:#a1cfd5; stroke:none;" d="M190 31L191 32L190 31z"/>
<path style="fill:#027f75; stroke:none;" d="M34 32L35 33L34 32M66 32L64 33L64 34L66 32z"/>
<path style="fill:#a1cfd5; stroke:none;" d="M68 32L69 33L68 32M156 32L157 33L156 32M191 32L192 33L191 32z"/>
<path style="fill:#027f75; stroke:none;" d="M33 33L34 34L33 33z"/>
<path style="fill:#a1cfd5; stroke:none;" d="M66 33L67 34L66 33M158 33L159 34L158 33M192 33L193 34L192 33z"/>
<path style="fill:#027f75; stroke:none;" d="M32 34L33 35L32 34M62.6667 34.3333L63.3333 34.6667L62.6667 34.3333M161 34L161 35L166 37L166 36L161 34z"/>
<path style="fill:#a1cfd5; stroke:none;" d="M193 34L194 35L193 34z"/>
<path style="fill:#027f75; stroke:none;" d="M31 35L32 36L31 35M61 35L59 36L59 37L61 35z"/>
<path style="fill:#a1cfd5; stroke:none;" d="M63 35L64 36L63 35M161 35L162 36L161 35M194 35L195 36L194 35z"/>
<path style="fill:#027f75; stroke:none;" d="M30 36L31 37L30 36z"/>
<path style="fill:#a1cfd5; stroke:none;" d="M61 36L62 37L61 36M163 36L164 37L163 36M195 36L196 37L195 36z"/>
<path style="fill:#027f75; stroke:none;" d="M29 37L30 38L29 37M58 37L55 39L55 40L58 37z"/>
<path style="fill:#a1cfd5; stroke:none;" d="M60 37L61 38L60 37M164 37L165 38L164 37z"/>
<path style="fill:#027f75; stroke:none;" d="M166 37L167 38L166 37z"/>
<path style="fill:#a1cfd5; stroke:none;" d="M196 37L197 38L196 37z"/>
<path style="fill:#027f75; stroke:none;" d="M28.3333 38.6667L28.6667 39.3333L28.3333 38.6667z"/>
<path style="fill:#a1cfd5; stroke:none;" d="M58 38L59 39L58 38z"/>
<path style="fill:#027f75; stroke:none;" d="M167 38L170 40L170 39L167 38z"/>
<path style="fill:#a1cfd5; stroke:none;" d="M197 38L198 39L197 38M57 39L58 40L57 39M167 39L168 40L167 39z"/>
<path style="fill:#027f75; stroke:none;" d="M27 40L28 41L27 40M54 40L55 41L54 40z"/>
<path style="fill:#a1cfd5; stroke:none;" d="M168 40L169 41L168 40z"/>
<path style="fill:#027f75; stroke:none;" d="M170 40L172 42L170 40M197 40L198 41L197 40z"/>
<path style="fill:#a1cfd5; stroke:none;" d="M25 41L23 44L25 41z"/>
<path style="fill:#027f75; stroke:none;" d="M26 41L27 42L26 41M53 41L24 43L24 44C29.1118 44 52.0254 46.6622 53 41M198 41L200 45L201 45L198 41z"/>
<path style="fill:#a1cfd5; stroke:none;" d="M199 41L200 42L199 41M53 42L54 43L53 42z"/>
<path style="fill:#027f75; stroke:none;" d="M172 42L183 53L172 42z"/>
<path style="fill:#a1cfd5; stroke:none;" d="M200 42L201 43L200 42M52 43L53 44L52 43M172 43L173 44L172 43M201 43L202 44L201 43M173 44L174 45L173 44M174 45L175 46L174 45z"/>
<path style="fill:#027f75; stroke:none;" d="M201 45L202 46L201 45z"/>
<path style="fill:#a1cfd5; stroke:none;" d="M175 46L176 47L175 46z"/>
<path style="fill:#027f75; stroke:none;" d="M202 46L203 49L204 49L202 46z"/>
<path style="fill:#a1cfd5; stroke:none;" d="M203 46L204 47L203 46M176 47L177 48L176 47M204 47L205 48L204 47M177 48L178 49L177 48M178 49L179 50L178 49z"/>
<path style="fill:#027f75; stroke:none;" d="M204 49L205 52L206 52L204 49z"/>
<path style="fill:#a1cfd5; stroke:none;" d="M205 49L206 50L205 49M179 50L180 51L179 50M206 50L207 51L206 50M180 51L181 52L180 51M181 52L182 53L181 52z"/>
<path style="fill:#027f75; stroke:none;" d="M206 52L207 55L208 55L206 52z"/>
<path style="fill:#a1cfd5; stroke:none;" d="M207 52L208 53L207 52z"/>
<path style="fill:#027f75; stroke:none;" d="M183 53L184 54L183 53M184 54L187 58L184 54M208 55L207 59L208 59L208 55z"/>
<path style="fill:#a1cfd5; stroke:none;" d="M209 55L210 56L209 55z"/>
<path style="fill:#07afee; stroke:none;" d="M15 56C-8.22975 105.991 -3.66443 166.66 44 201.844C60.4792 214.009 77.4864 219.193 97 224C94.2943 216.567 88.8792 204.775 82.6713 199.699C70.6448 189.865 56.3787 185.874 45.0394 174C24.5013 152.494 15.79 118.712 23.7454 90C27.2501 77.3508 34.2763 67.5058 40 56L15 56z"/>
<path style="fill:#a1cfd5; stroke:none;" d="M16 56L16 57L39 57L16 56M184 56L185 57L184 56z"/>
<path style="fill:#07afee; stroke:none;" d="M209 56L210 57L209 56z"/>
<path style="fill:#a1cfd5; stroke:none;" d="M14 57L15 58L14 57M39 57L40 58L39 57M185 57L186 58L185 57z"/>
<path style="fill:#027f75; stroke:none;" d="M187 58L189 61L187 58z"/>
<path style="fill:#a1cfd5; stroke:none;" d="M208 58L209 59L208 58M13 59L14 60L13 59M37 60L38 61L37 60M187 60L188 61L187 60z"/>
<path style="fill:#027f75; stroke:none;" d="M206 60L207 61L206 60z"/>
<path style="fill:#a1cfd5; stroke:none;" d="M207 60L208 61L207 60M36 61L37 62L36 61z"/>
<path style="fill:#027f75; stroke:none;" d="M189 61L191 64L189 61M205 61L203 66L204 66L205 61z"/>
<path style="fill:#a1cfd5; stroke:none;" d="M206 62L207 63L206 62M35 63L36 64L35 63M189 63L190 64L189 63M205 63L206 64L205 63M34 64L35 65L34 64z"/>
<path style="fill:#027f75; stroke:none;" d="M191 64L193 69L194 69L191 64z"/>
<path style="fill:#a1cfd5; stroke:none;" d="M10 65L11 66L10 65M204 65L205 66L204 65M33 66L34 67L33 66M191 66L192 67L191 66z"/>
<path style="fill:#027f75; stroke:none;" d="M202.333 66.6667L202.667 67.3333L202.333 66.6667z"/>
<path style="fill:#a1cfd5; stroke:none;" d="M9 67L10 68L9 67M203 67L204 68L203 67M32 68L33 69L32 68M192 68L193 69L192 68z"/>
<path style="fill:#027f75; stroke:none;" d="M201 68L199 73L200 73L201 68z"/>
<path style="fill:#a1cfd5; stroke:none;" d="M8 69L9 70L8 69z"/>
<path style="fill:#027f75; stroke:none;" d="M194.333 69.6667L194.667 70.3333L194.333 69.6667z"/>
<path style="fill:#a1cfd5; stroke:none;" d="M31 70L32 71L31 70M193 70L194 71L193 70M201 70L202 71L201 70z"/>
<path style="fill:#f5871f; stroke:none;" d="M216 70C211.825 77.0788 204.472 85.9116 202.819 94C201.841 98.7832 203.867 104.165 203.985 109C204.235 119.208 202.784 129.229 199.795 139C186.746 181.661 143.8 208.535 100 203C102.394 208.556 107.689 221.786 113.379 224.397C117.457 226.268 124.701 224.291 129 223.711C144.924 221.566 160.522 215.597 174 206.91C209.279 184.174 228.6 142.415 224.166 101C223.129 91.3188 221.986 78.0016 216 70z"/>
<path style="fill:#a1cfd5; stroke:none;" d="M147 71L148 72L147 71z"/>
<path style="fill:#027f75; stroke:none;" d="M195.333 71.6667L195.667 72.3333L195.333 71.6667z"/>
<path style="fill:#a1cfd5; stroke:none;" d="M7 72L8 73L7 72M30 72L31 73L30 72M145 72L100 118L133 86L145 72z"/>
<path style="fill:#027f75; stroke:none;" d="M101 118C96.2766 113.277 87.8829 100.964 81 100.06C75.7754 99.3742 60.6293 114.735 61.7515 120C63.7967 129.595 82.1245 142.171 89 148.999C91.4765 151.459 94.9811 156.105 99 155.248C105.16 153.936 111.709 144.291 116 140L149 107C153.535 102.465 161.429 97.0176 163.914 91C166.204 85.4537 152.571 71.5641 147 72.7516C138.513 74.5607 128.02 89.9796 122 96C114.944 103.056 106.753 109.833 101 118z"/>
<path style="fill:#a1cfd5; stroke:none;" d="M194 72L195 73L194 72M200 72L201 73L200 72z"/>
<path style="fill:#027f75; stroke:none;" d="M196 73L197 77L198 77L196 73M198.333 73.6667L198.667 74.3333L198.333 73.6667z"/>
<path style="fill:#a1cfd5; stroke:none;" d="M6 74L7 75L6 74M29 74L30 75L29 74M195 74L196 75L195 74M199 74L200 75L199 74M28 76L29 77L28 76M196 76L197 77L196 76M212 76L213 77L212 76M5.33333 77.6667L5.66667 78.3333L5.33333 77.6667M197 77L198 78L197 77M27 78L28 79L27 78M4.33333 80.6667L4.66667 81.3333L4.33333 80.6667M26 81L27 82L26 81M220 81L221 82L220 81M3 84L4 85L3 84M25 84L26 85L25 84M24.3333 87.6667L24.6667 88.3333L24.3333 87.6667M2.33333 88.6667L2.66667 89.3333L2.33333 88.6667M205 88L206 89L205 88M165 89L166 90L165 89M222 89L223 90L222 89M23 90L23 93L24 93L23 90M164 91L165 92L164 91M163 92L164 93L163 92M1 93L1 96L2 96L1 93M162 93L163 94L162 93M161 94L162 95L161 94M223 94L224 95L223 94M22 95L22 98L23 98L22 95M160 95L161 96L160 95M159 96L160 97L159 96M202 96L203 97L202 96M158 97L159 98L158 97M157 98L158 99L157 98M78 99L79 100L78 99M81 99L82 100L81 99M156 99L157 100L156 99M0 100L0 105L1 105L0 100M77 100L78 101L77 100M155 100L156 101L155 100M76 101L77 102L76 101M154 101L155 102L154 101M21 102L21 106L22 106L21 102M75 102L76 103L75 102M153 102L154 103L153 102M74 103L75 104L74 103M152 103L153 104L152 103M203 103L204 104L203 103M224 103L225 104L224 103M73 104L74 105L73 104M151 104L152 105L151 104M72 105L73 106L72 105M150 105L151 106L150 105M71 106L72 107L71 106M149 106L150 107L149 106M70 107L71 108L70 107M148 107L149 108L148 107M69 108L70 109L69 108M147 108L148 109L147 108M68 109L69 110L68 109M146 109L147 110L146 109M67 110L68 111L67 110M145 110L146 111L145 110M66 111L67 112L66 111M144 111L145 112L144 111M65 112L66 113L65 112M143 112L144 113L143 112M64 113L65 114L64 113M142 113L143 114L142 113M63 114L64 115L63 114M141 114L142 115L141 114M62 115L63 116L62 115M140 115L141 116L140 115M61 116L62 117L61 116M139 116L140 117L139 116M60 117L60 120L61 120L60 117M138 117L139 118L138 117M21 118L21 123L22 123L21 118M137 118L138 119L137 118M136 119L137 120L136 119M0 120L0 125L1 125L0 120M135 120L136 121L135 120M134 121L135 122L134 121M203 121L204 122L203 121M224 121L225 122L224 121M133 122L134 123L133 122z"/>
<path style="fill:#fffffe; stroke:none;" d="M224 122C223.859 172.979 172.816 223.579 122 224L122 225L225 225L225 153L224 122z"/>
<path style="fill:#a1cfd5; stroke:none;" d="M132 123L133 124L132 123M131 124L132 125L131 124M130 125L131 126L130 125M129 126L130 127L129 126M22 127L22 130L23 130L22 127M128 127L129 128L128 127M127 128L128 129L127 128M202 128L203 129L202 128M1 129L1 132L2 132L1 129M126 129L127 130L126 129M125 130L126 131L125 130M223 130L224 131L223 130M124 131L125 132L124 131M123 132L124 133L123 132M23 133L24 134L23 133M122 133L123 134L122 133M121 134L122 135L121 134M2.33333 135.667L2.66667 136.333L2.33333 135.667M120 135L121 136L120 135M24.3333 136.667L24.6667 137.333L24.3333 136.667M119 136L120 137L119 136M118 137L119 138L118 137M117 138L118 139L117 138M3.33333 139.667L3.66667 140.333L3.33333 139.667M116 139L117 140L116 139M25 140L26 141L25 140M115 140L116 141L115 140M199 140L200 141L199 140M114 141L115 142L114 141M113 142L114 143L113 142M4.33333 143.667L4.66667 144.333L4.33333 143.667M26 143L27 144L26 143M112 143L113 144L112 143M111 144L112 145L111 144M110 145L111 146L110 145M5.33333 146.667L5.66667 147.333L5.33333 146.667M27 146L28 147L27 146M109 146L110 147L109 146M108 147L109 148L108 147M28 148L29 149L28 148M107 148L108 149L107 148M196 148L197 149L196 148M106 149L107 150L106 149M6 150L7 151L6 150M29 150L30 151L29 150M105 150L106 151L105 150M104 151L105 152L104 151M7 152L8 153L7 152M103 152L104 153L103 152M102 153L103 154L102 153M101 154L102 155L101 154M8 155L9 156L8 155M100 155L101 156L100 155M32 156L33 157L32 156M97.6667 156.333L98.3333 156.667L97.6667 156.333M9 157L10 158L9 157M33 158L34 159L33 158M191 158L192 159L191 158M34 160L35 161L34 160M11 162L12 163L11 162M36 163L37 164L36 163M12 164L13 165L12 164M13 165L14 166L13 165M38 166L39 167L38 166M14 167L15 168L14 167M39 167L40 168L39 167M185 167L186 168L185 167M15 169L16 170L15 169M41 170L42 171L41 170M16 171L17 172L16 171M42 171L43 172L42 171M17 172L18 173L17 172M43 172L44 173L43 172M44 173L45 174L44 173M18 174L19 175L18 174M45 174L46 175L45 174M19 175L20 176L19 175M20 177L21 178L20 177M21 178L22 179L21 178M203 178L204 179L203 178M50 179L51 180L50 179M51 180L52 181L51 180M23 181L24 182L23 181M52 181L53 182L52 181M172 181L173 182L172 181M24 182L25 183L24 182M53 182L54 183L53 182M57 185L58 186L57 185M167 185L168 186L167 185M27 186L28 187L27 186M58 186L59 187L58 186M28 187L29 188L28 187M60 187L61 188L60 187M29 188L30 189L29 188M61 188L62 189L61 188M30 189L31 190L30 189M63 189L64 190L63 189M31 190L32 191L31 190M64 190L65 191L64 190M193 190L194 191L193 190M32 191L33 192L32 191M66 191L67 192L66 191M158 191L159 192L158 191M192 191L193 192L192 191M33 192L34 193L33 192M68 192L69 193L68 192M191 192L192 193L191 192M34 193L35 194L34 193M70 193L71 194L70 193M190 193L191 194L190 193M35 194L36 195L35 194M72 194L73 195L72 194M36 195L37 196L36 195M74 195L75 196L74 195M37 196L38 197L37 196M76 196L77 197L76 196M148 196L149 197L148 196M38 197L39 198L38 197M78.6667 197.333L79.3333 197.667L78.6667 197.333M81 198L82 199L81 198M83 199L84 200L83 199M140 199L141 200L140 199M42 200L43 201L42 200M43 201L44 202L43 201M84 201L85 202L84 201M133 201L134 202L133 201M85 202L86 203L85 202M128 202L129 203L128 202M46 203L47 204L46 203M103 203L104 204L103 203M121 203L122 204L121 203M178 203L179 204L178 203M47 204L48 205L47 204M86 204L87 205L86 204M49 205L50 206L49 205M50 206L51 207L50 206M87 206L88 207L87 206M52 207L53 208L52 207M55 209L56 210L55 209M89 209L90 210L89 209M57 210L58 211L57 210M167 210L168 211L167 210M59 211L60 212L59 211M90 211L91 212L90 211M60 212L61 213L60 212M62 213L63 214L62 213M91 213L92 214L91 213M106 214L107 215L106 214M67 215L68 216L67 215M157 215L158 216L157 215M69 216L70 217L69 216M93 216L94 217L93 216M71.6667 217.333L72.3333 217.667L71.6667 217.333M74 218L75 219L74 218M94 218L95 219L94 218M77.6667 219.333L78.3333 219.667L77.6667 219.333M80.6667 220.333L81.3333 220.667L80.6667 220.333M95 220L96 221L95 220M143 220L144 221L143 220M84 221L85 222L84 221M96 221L97 222L96 221M110 221L111 222L110 221M88.6667 222.333L89.3333 222.667L88.6667 222.333M135 222L136 223L135 222M93 223L93 224L96 224L93 223M97 223L98 224L97 223M121 224L122 225L121 224z"/>
</svg>
