<?xml version="1.0" standalone="no"?>
<!DOCTYPE svg PUBLIC "-//W3C//DTD SVG 20010904//EN"
 "http://www.w3.org/TR/2001/REC-SVG-20010904/DTD/svg10.dtd">
<svg version="1.0" xmlns="http://www.w3.org/2000/svg"
 width="209.000000pt" height="241.000000pt" viewBox="0 0 209.000000 241.000000"
 preserveAspectRatio="xMidYMid meet">
<metadata>
Created by potrace 1.10, written by Peter Selinger 2001-2011
</metadata>
<g transform="translate(0.000000,241.000000) scale(0.100000,-0.100000)"
fill="#cc0000" stroke="none">
<path d="M530 2110 l-515 -298 0 -607 0 -607 510 -295 c281 -163 515 -295 520
-295 6 0 165 90 355 200 190 110 419 242 510 295 l165 95 0 607 0 607 -505
292 c-278 160 -509 294 -515 298 -5 3 -242 -128 -525 -292z m693 -202 c86 -50
159 -94 162 -98 2 -4 -72 -51 -165 -104 l-170 -98 0 -604 c0 -332 -2 -604 -4
-604 -9 0 -342 195 -348 205 -5 5 -7 187 -5 403 1 215 1 392 -1 392 -1 0 -73
-41 -158 -91 -85 -49 -162 -93 -170 -96 -12 -5 -14 23 -12 197 l3 202 340 198
c187 109 347 196 355 193 8 -2 86 -45 173 -95z m510 -1109 c-7 -7 -271 -161
-323 -189 -20 -11 -20 -10 -20 393 l0 405 173 99 172 99 3 -400 c1 -220 -1
-403 -5 -407z"/>
</g>
</svg>
