<?xml version="1.0" standalone="no"?>
<!DOCTYPE svg PUBLIC "-//W3C//DTD SVG 20010904//EN"
 "http://www.w3.org/TR/2001/REC-SVG-20010904/DTD/svg10.dtd">
<svg version="1.0" xmlns="http://www.w3.org/2000/svg"
 width="225.000000pt" height="225.000000pt" viewBox="0 0 225.000000 225.000000"
 preserveAspectRatio="xMidYMid meet">

<g transform="translate(0.000000,225.000000) scale(0.100000,-0.100000)"
fill="#000000" stroke="none">
<path d="M1178 1423 l-3 -758 -28 -57 c-34 -70 -110 -140 -174 -162 -60 -20
-146 -20 -206 0 -63 21 -140 92 -173 160 -55 113 -30 257 62 347 67 67 106 82
211 82 l93 0 0 183 0 182 -83 0 c-436 0 -751 -410 -642 -835 29 -112 82 -202
175 -295 93 -94 160 -134 280 -171 110 -34 273 -32 385 4 224 74 398 268 446
500 16 81 19 139 19 480 l0 389 38 -23 c120 -74 248 -116 380 -126 l82 -6 0
175 0 174 -74 12 c-90 16 -195 65 -260 123 -93 83 -166 229 -166 335 l0 44
-180 0 -179 0 -3 -757z"/>
</g>
</svg>
