<svg xmlns="http://www.w3.org/2000/svg" width="250" height="250" fill="none"><path fill="#25F4EE" d="M101.679 99.427v-9.382a68.652 68.652 0 0 0-9.797-.846c-31.77-.068-59.898 20.617-69.438 51.064-9.54 30.446 1.72 63.589 27.798 81.819a73.028 73.028 0 0 1-18.416-36.98 73.219 73.219 0 0 1 4.567-41.096 72.829 72.829 0 0 1 26.08-31.988 72.32 72.32 0 0 1 39.204-12.59h.002Z"/><path fill="#25F4EE" d="M103.442 205.703c17.763-.025 32.364-14.084 33.142-31.914V14.684h28.93a54.78 54.78 0 0 1-.841-10.074h-39.571v158.952c-.658 17.92-15.294 32.114-33.142 32.143a33.537 33.537 0 0 1-15.308-3.845 33.27 33.27 0 0 0 11.744 10.148 33.112 33.112 0 0 0 15.046 3.695ZM219.551 68.667v-8.844a53.85 53.85 0 0 1-29.926-9.073 54.826 54.826 0 0 0 29.926 17.917Z"/><path fill="#FE2C55" d="M189.626 50.75a54.892 54.892 0 0 1-13.547-36.144h-10.564a55.209 55.209 0 0 0 8.352 20.566 54.919 54.919 0 0 0 15.759 15.578Zm-97.741 78.207a33.113 33.113 0 0 0-20.408 7.173 33.392 33.392 0 0 0-11.69 18.273 33.52 33.52 0 0 0 1.979 21.632 33.308 33.308 0 0 0 14.81 15.825 33.43 33.43 0 0 1-2.671-34.682 33.24 33.24 0 0 1 12.223-13.258 33.028 33.028 0 0 1 17.315-4.89c3.322.043 6.621.563 9.796 1.542v-40.453a69.068 69.068 0 0 0-9.796-.769h-1.761v30.76a33.847 33.847 0 0 0-9.797-1.153Z"/><path fill="#FE2C55" d="M219.55 68.667v30.76a93.619 93.619 0 0 1-54.879-17.918v80.822c-.085 40.329-32.649 72.978-72.79 72.978a71.794 71.794 0 0 1-41.639-13.227 72.548 72.548 0 0 0 37.083 21.468 72.312 72.312 0 0 0 42.677-3.236 72.701 72.701 0 0 0 33.456-26.818 73.231 73.231 0 0 0 12.618-41.089V91.814a93.768 93.768 0 0 0 54.955 17.687V69.894a55.857 55.857 0 0 1-11.481-1.227Z"/><path fill="#000" d="M164.673 162.331V81.509a93.602 93.602 0 0 0 54.955 17.687v-30.76a54.824 54.824 0 0 1-30.003-17.686 54.935 54.935 0 0 1-15.76-15.578 55.207 55.207 0 0 1-8.351-20.566h-28.93v159.185a33.473 33.473 0 0 1-6.933 19.08 33.209 33.209 0 0 1-16.658 11.508 33.068 33.068 0 0 1-20.213-.325 33.23 33.23 0 0 1-16.282-12.038 33.31 33.31 0 0 1-14.814-15.826 33.518 33.518 0 0 1-1.98-21.633 33.392 33.392 0 0 1 11.692-18.275 33.126 33.126 0 0 1 20.41-7.172c3.323.03 6.624.548 9.797 1.538v-30.76a72.327 72.327 0 0 0-39.444 12.52 72.829 72.829 0 0 0-26.224 32.141 73.22 73.22 0 0 0-4.483 41.316 73.025 73.025 0 0 0 18.717 37.062 71.78 71.78 0 0 0 41.715 12.382c40.14 0 72.704-32.649 72.789-72.978Z"/></svg>