<svg xmlns="http://www.w3.org/2000/svg" width="97" height="22"><g fill="none" fill-rule="nonzero" transform="translate(.77 .28)"><path fill="#000" d="M0 .06h16.12l-1.48 4.66h-4.18v17H5.23v-17H.01zM42.52.06h16.49l-1.48 4.66h-4.54v17h-5.22v-17h-5.24zM17.1 6.95h5.17v14.77h-5.13zM24.32 0h5.16v10.09l5.12-5h6.16l-6.47 6.28 7.25 10.35h-5.69l-4.84-7.19-1.53 1.48v5.71h-5.16zM79.01 0h5.22v10.09l5.11-5h6.16l-6.47 6.28 7.2 10.35h-5.69l-4.83-7.19-1.48 1.48v5.71h-5.17z"/><circle cx="19.69" cy="2.66" r="2.6" fill="#000"/><path fill="#25F4EE" d="M58.35 12.88a8.84 8.84 0 0 1 8.15-8.81h-.77a8.84 8.84 0 0 0 0 17.65h.77a8.84 8.84 0 0 1-8.15-8.84Z"/><path fill="#FE2C55" d="M68.51 4.04h-.78a8.84 8.84 0 0 1 0 17.62h.78a8.84 8.84 0 1 0 0-17.68v.06Z"/><path fill="#000" d="M67.11 17.18a4.3 4.3 0 1 1 4.3-4.3 4.31 4.31 0 0 1-4.3 4.3Zm0-13.14a8.84 8.84 0 1 0 0 17.68 8.84 8.84 0 0 0 0-17.68Z"/></g></svg>