<svg width="250" height="250" viewBox="0 0 250 250" fill="none" xmlns="http://www.w3.org/2000/svg">
<path d="M111.27 109.994V104.489C109.362 104.187 107.434 104.021 105.502 103.993C86.7959 103.953 70.235 116.091 64.6176 133.956C59.0002 151.821 65.6309 171.269 80.985 181.965C75.3546 175.932 71.5887 168.396 70.1417 160.266C68.6947 152.137 69.6286 143.762 72.8306 136.152C76.0326 128.543 81.3658 122.024 88.1866 117.382C95.0073 112.741 103.024 110.175 111.269 109.995L111.27 109.994Z" fill="#25F4EE"/>
<path d="M112.309 172.354C122.767 172.34 131.364 164.09 131.822 153.628V60.2691H148.856C148.508 58.3183 148.342 56.3394 148.36 54.3578L125.061 54.3578V147.627C124.674 158.142 116.057 166.471 105.548 166.488C102.408 166.461 99.3186 165.688 96.5352 164.232C98.3392 166.735 100.708 168.775 103.449 170.186C106.191 171.598 109.226 172.341 112.309 172.354ZM180.672 91.9449V86.7558C174.403 86.7582 168.273 84.906 163.052 81.4317C167.629 86.7595 173.814 90.4499 180.672 91.9449Z" fill="#25F4EE"/>
<path d="M163.05 81.4317C157.907 75.5673 155.071 68.0284 155.074 60.2235H148.854C149.658 64.5388 151.331 68.6448 153.771 72.2912C156.212 75.9375 159.369 79.0476 163.05 81.4317ZM105.502 127.322C101.14 127.344 96.9103 128.825 93.4859 131.531C90.0615 134.236 87.6387 138.011 86.6027 142.253C85.5666 146.496 85.9768 150.964 87.768 154.946C89.5592 158.928 92.6286 162.197 96.4882 164.232C94.378 161.315 93.1143 157.87 92.8367 154.279C92.5592 150.687 93.2786 147.089 94.9154 143.881C96.5523 140.673 99.0429 137.981 102.112 136.102C105.181 134.223 108.71 133.23 112.307 133.232C114.263 133.258 116.205 133.563 118.075 134.138V110.4C116.165 110.114 114.238 109.963 112.307 109.949H111.27V127.998C109.39 127.493 107.447 127.265 105.502 127.322Z" fill="#FE2C55"/>
<path d="M180.67 91.9449V109.994C169.064 109.972 157.76 106.293 148.358 99.4805V146.905C148.308 170.569 129.135 189.727 105.501 189.727C96.7236 189.742 88.1575 187.031 80.9844 181.965C86.8336 188.265 94.4419 192.655 102.818 194.563C111.195 196.471 119.951 195.809 127.946 192.664C135.941 189.518 142.805 184.035 147.644 176.927C152.482 169.82 155.071 161.419 155.073 152.817V105.527C164.507 112.295 175.825 115.926 187.43 115.906V92.6652C185.158 92.6584 182.893 92.4171 180.67 91.9449Z" fill="#FE2C55"/>
<path d="M148.359 146.905V99.4805C157.789 106.255 169.109 109.886 180.715 109.859V91.8099C173.859 90.3601 167.659 86.7176 163.05 81.4317C159.369 79.0476 156.212 75.9375 153.771 72.2912C151.331 68.6448 149.658 64.5388 148.854 60.2235H131.82V153.63C131.655 157.695 130.228 161.608 127.739 164.825C125.25 168.042 121.821 170.402 117.931 171.578C114.04 172.754 109.88 172.687 106.029 171.387C102.179 170.087 98.8277 167.618 96.4426 164.323C92.5823 162.289 89.5122 159.02 87.7206 155.037C85.9289 151.055 85.5185 146.586 86.5546 142.343C87.5908 138.1 90.0139 134.326 93.4388 131.62C96.8637 128.915 101.094 127.433 105.456 127.412C107.413 127.429 109.356 127.733 111.225 128.314V110.265C102.935 110.406 94.8659 112.958 88.0005 117.611C81.135 122.265 75.77 128.818 72.5597 136.471C69.3493 144.124 68.4323 152.548 69.9205 160.714C71.4086 168.88 75.2376 176.436 80.9406 182.461C88.1842 187.36 96.7625 189.897 105.502 189.727C129.136 189.727 148.309 170.569 148.359 146.905Z" fill="black"/>
</svg>
