<svg xmlns="http://www.w3.org/2000/svg" width="25.208" height="25.192" class="d-block" viewBox="0 0 62.42 44.786"><linearGradient id="a" x1="31.81" x2="31.81" y1="62.47" y2=".07" gradientTransform="matrix(1.00032 0 0 .99968 -.58 -8.85)" gradientUnits="userSpaceOnUse"><stop offset="0" stop-color="#0052cc"/><stop offset="1" stop-color="#2684ff"/></linearGradient><path fill="url(#a)" d="M55.01-8.78H7.42A7.42 7.42 0 0 0 0-1.37v47.52a7.42 7.42 0 0 0 7.42 7.45h47.59a7.42 7.42 0 0 0 7.41-7.45V-1.37a7.42 7.42 0 0 0-7.41-7.41zM26.92 36.15a2.48 2.48 0 0 1-2.5 2.47h-10.4a2.47 2.47 0 0 1-2.46-2.47V5.2a2.47 2.47 0 0 1 2.46-2.47h10.4a2.48 2.48 0 0 1 2.47 2.47zm24-14.21a2.47 2.47 0 0 1-2.5 2.47h-10.4a2.48 2.48 0 0 1-2.47-2.47V5.2a2.48 2.48 0 0 1 2.47-2.47h10.4a2.47 2.47 0 0 1 2.46 2.47z" style="fill:url(#a);fill-rule:evenodd"/></svg>