<?xml version="1.0" standalone="no"?>
<!DOCTYPE svg PUBLIC "-//W3C//DTD SVG 20010904//EN"
 "http://www.w3.org/TR/2001/REC-SVG-20010904/DTD/svg10.dtd">
<svg version="1.0" xmlns="http://www.w3.org/2000/svg"
 width="675.000000pt" height="675.000000pt" viewBox="0 0 675.000000 675.000000"
 preserveAspectRatio="xMidYMid meet">
<metadata>
Created by potrace 1.10, written by Peter Selinger 2001-2011
</metadata>
<g transform="translate(0.000000,675.000000) scale(0.100000,-0.100000)"
fill="#3d85c6" stroke="none">
<path d="M918 6730 c-11 -13 -38 -20 -93 -25 -43 -4 -89 -14 -104 -21 -14 -8
-34 -14 -44 -14 -9 0 -25 -4 -35 -9 -9 -5 -49 -25 -87 -44 -115 -55 -155 -85
-256 -186 -101 -101 -131 -141 -186 -256 -19 -38 -39 -78 -44 -87 -5 -10 -9
-24 -9 -32 0 -8 -5 -27 -12 -43 -41 -98 -41 -79 -42 -2643 0 -2543 0 -2557 40
-2647 8 -17 14 -38 14 -47 0 -9 4 -24 9 -34 5 -9 25 -49 44 -87 55 -115 85
-155 186 -256 101 -101 141 -131 256 -186 38 -19 78 -39 87 -44 10 -5 26 -9
35 -9 10 0 29 -6 44 -13 14 -8 58 -17 98 -21 40 -3 81 -11 91 -16 26 -14 4884
-14 4910 0 10 5 51 13 91 16 40 4 84 13 98 21 15 7 34 13 44 13 9 0 25 4 35
10 9 5 35 17 57 26 197 85 404 292 489 489 9 22 21 48 26 57 6 10 10 26 10 35
0 10 7 31 15 47 8 15 15 45 15 65 1 60 17 124 34 137 15 10 16 226 16 2443 0
2071 -2 2431 -14 2431 -19 0 -24 17 -32 106 -4 43 -13 89 -20 103 -8 14 -14
34 -14 44 0 9 -4 25 -9 35 -5 9 -25 49 -44 87 -55 115 -85 155 -186 256 -101
101 -141 131 -256 186 -38 19 -78 39 -87 44 -10 5 -26 9 -35 9 -10 0 -30 6
-44 14 -15 8 -60 17 -100 21 -78 8 -113 20 -104 36 4 5 -895 9 -2432 8 -2346
-1 -2439 -1 -2455 -19z m1922 -1262 c73 -36 160 -132 160 -176 0 -10 6 -24 13
-30 19 -20 18 -3417 -2 -3458 -7 -16 -20 -43 -28 -61 -16 -32 -113 -133 -130
-133 -4 -1 -26 -9 -48 -20 -38 -18 -68 -19 -663 -20 -667 0 -627 -3 -730 48
-36 17 -112 97 -112 117 0 7 -6 18 -14 24 -8 6 -17 28 -22 49 -12 60 -10 3410
2 3459 11 43 64 123 106 159 38 32 89 56 138 64 25 5 322 7 660 6 l615 -1 55
-27z m2389 22 c35 -5 67 -13 70 -18 3 -5 15 -12 26 -16 34 -10 93 -72 127
-133 l33 -58 0 -1015 c0 -947 -1 -1017 -17 -1045 -10 -16 -18 -36 -18 -42 0
-18 -106 -123 -123 -123 -8 0 -20 -7 -27 -15 -7 -8 -25 -15 -41 -15 -15 0 -31
-4 -34 -10 -9 -14 -1231 -14 -1240 0 -3 6 -15 10 -27 10 -56 0 -162 87 -209
171 l-24 44 0 1025 0 1025 24 40 c31 52 108 131 146 152 17 9 53 19 80 23 76
11 1181 11 1254 0z"/>
</g>
</svg>
