<svg width="250" height="250" viewBox="0 0 250 250" fill="none" xmlns="http://www.w3.org/2000/svg">
<path d="M174.891 63H75.1094C68.4216 63 63 68.4216 63 75.1094V174.891C63 181.578 68.4216 187 75.1094 187H174.891C181.578 187 187 181.578 187 174.891V75.1094C187 68.4216 181.578 63 174.891 63Z" fill="url(#paint0_linear_898_2060)"/>
<path d="M165.066 79.12H138.871C135.661 79.12 133.059 81.7223 133.059 84.9325V127.557C133.059 130.768 135.661 133.37 138.871 133.37H165.066C168.276 133.37 170.879 130.768 170.879 127.557V84.9325C170.879 81.7223 168.276 79.12 165.066 79.12Z" fill="white"/>
<path d="M111.129 79.12H84.9336C81.7234 79.12 79.1211 81.7223 79.1211 84.9325V158.557C79.1211 161.768 81.7234 164.37 84.9336 164.37H111.129C114.339 164.37 116.941 161.768 116.941 158.557V84.9325C116.941 81.7223 114.339 79.12 111.129 79.12Z" fill="white"/>
<defs>
<linearGradient id="paint0_linear_898_2060" x1="125" y1="63" x2="125" y2="187" gradientUnits="userSpaceOnUse">
<stop stop-color="#0091E6"/>
<stop offset="1" stop-color="#0079BF"/>
</linearGradient>
</defs>
</svg>
