<?xml version="1.0" encoding="UTF-8" standalone="no"?>
<svg
   role="img"
   height="25.191923"
   viewBox="0 0 62.42024 44.785641"
   width="25.208174"
   class="d-block"
   version="1.1"
   id="svg273"
   sodipodi:docname="trelllo.svg"
   inkscape:version="1.2.1 (9c6d41e410, 2022-07-14, custom)"
   xmlns:inkscape="http://www.inkscape.org/namespaces/inkscape"
   xmlns:sodipodi="http://sodipodi.sourceforge.net/DTD/sodipodi-0.dtd"
   xmlns="http://www.w3.org/2000/svg"
   xmlns:svg="http://www.w3.org/2000/svg">
  <defs
     id="defs277" />
  <sodipodi:namedview
     id="namedview275"
     pagecolor="#ffffff"
     bordercolor="#666666"
     borderopacity="1.0"
     inkscape:showpageshadow="2"
     inkscape:pageopacity="0.0"
     inkscape:pagecheckerboard="0"
     inkscape:deskcolor="#d1d1d1"
     showgrid="false"
     inkscape:zoom="256"
     inkscape:cx="13.734375"
     inkscape:cy="25.71875"
     inkscape:window-width="3840"
     inkscape:window-height="2083"
     inkscape:window-x="0"
     inkscape:window-y="40"
     inkscape:window-maximized="1"
     inkscape:current-layer="svg273" />
  <linearGradient
     id="trello-logo-default"
     x1="31.80974"
     x2="31.80974"
     y1="62.470139"
     y2="0.070022576"
     gradientTransform="matrix(1.0003225,0,0,0.99967761,-0.57987945,-8.8496943)"
     gradientUnits="userSpaceOnUse">
    <stop
       offset="0"
       stop-color="#0052cc"
       id="stop250" />
    <stop
       offset="1"
       stop-color="#2684ff"
       id="stop252" />
  </linearGradient>
  <path
     d="M 55.010121,-8.7796943 H 7.4201205 c -4.0940508,0 -7.41448236,3.315954 -7.420060683401,7.410001 V 46.150306 C -0.007857,48.123405 0.77036755,50.018427 2.162753,51.416443 c 1.3923856,1.398015 3.2842523,2.183863 5.2573675,2.183863 H 55.010121 c 1.971382,-0.0026 3.860676,-0.789677 5.250897,-2.187403 1.390221,-1.397726 2.167075,-3.29123 2.159164,-5.262597 V -1.3696933 c -0.0056,-4.090146 -3.319915,-7.404492 -7.410061,-7.410001 z m -28.09,44.9300003 c -0.0026,0.659482 -0.267838,1.290754 -0.736972,1.754259 -0.469134,0.463504 -1.103562,0.721065 -1.763028,0.715822 h -10.4 c -1.360236,-0.0056 -2.46,-1.109833 -2.46,-2.470081 V 5.2003067 c 0,-1.360248 1.099764,-2.464493 2.46,-2.47 h 10.4 c 1.361867,0.0055 2.46452,1.108133 2.47,2.47 z m 24,-14.21 c 0,0.660316 -0.264297,1.293159 -0.73402,1.757246 -0.469724,0.464087 -1.105713,0.720774 -1.76598,0.712936 h -10.4 c -1.361867,-0.0057 -2.46452,-1.108315 -2.47,-2.470182 V 5.2003067 c 0.0055,-1.361867 1.108133,-2.46452 2.47,-2.47 h 10.4 c 1.360236,0.0055 2.460011,1.109752 2.46,2.47 z"
     fill="url(#trello-logo-default)"
     id="path255"
     style="fill:url(#trello-logo-default);fill-rule:evenodd" />
</svg>
