<svg width="250" height="250" viewBox="0 0 250 250" fill="none" xmlns="http://www.w3.org/2000/svg">
<path d="M124.929 172.889C98.5201 172.889 77.1112 151.48 77.1112 125.072C77.1112 98.6627 98.5201 77.2544 124.929 77.2544C151.337 77.2544 172.746 98.6627 172.746 125.072C172.746 151.48 151.337 172.889 124.929 172.889ZM124.929 60.1426C89.0697 60.1426 60 89.2129 60 125.072C60 160.931 89.0697 190 124.929 190C160.788 190 189.857 160.931 189.857 125.072C189.857 89.2129 160.788 60.1426 124.928 60.1426H124.929Z" fill="#CF272D"/>
<path d="M127.598 108.901C127.598 101.445 133.642 95.4005 141.099 95.4005C148.555 95.4005 154.599 101.445 154.599 108.901C154.599 116.357 148.555 122.401 141.099 122.401C133.642 122.401 127.598 116.357 127.598 108.901ZM127.598 141.241C127.598 133.786 133.642 127.741 141.099 127.741C148.555 127.741 154.599 133.786 154.599 141.241C154.599 148.697 148.555 154.742 141.099 154.742C133.642 154.742 127.598 148.697 127.598 141.241ZM95.2578 141.241C95.2578 133.786 101.303 127.741 108.759 127.741C116.215 127.741 122.259 133.786 122.259 141.241C122.259 148.697 116.215 154.742 108.759 154.742C101.303 154.742 95.2578 148.697 95.2578 141.241ZM95.2578 108.901C95.2578 101.445 101.303 95.401 108.759 95.401C116.215 95.401 122.259 101.445 122.259 108.901C122.259 116.358 116.215 122.402 108.759 122.402C101.303 122.402 95.2578 116.358 95.2578 108.901Z" fill="#CF272D"/>
</svg>
