<svg xmlns="http://www.w3.org/2000/svg" width="250" height="250" fill="none"><g clip-path="url(#a)"><path fill="#1DA1F2" d="M83.522 218c85.448 0 132.177-71.365 132.177-133.25 0-2.027-.041-4.044-.132-6.054a94.876 94.876 0 0 0 23.173-24.25c-8.324 3.73-17.281 6.24-26.678 7.373 9.592-5.798 16.955-14.97 20.429-25.903a92.725 92.725 0 0 1-29.499 11.367c-8.477-9.103-20.546-14.796-33.91-14.796-25.654 0-46.458 20.973-46.458 46.826 0 3.675.408 7.25 1.205 10.678-38.61-1.958-72.847-20.594-95.76-48.93a46.999 46.999 0 0 0-6.29 23.538c0 16.248 8.201 30.592 20.673 38.984a45.836 45.836 0 0 1-21.04-5.858c-.006.197-.006.388-.006.598 0 22.681 16.013 41.617 37.27 45.908a46.183 46.183 0 0 1-12.25 1.648c-2.988 0-5.9-.296-8.731-.844 5.914 18.608 23.064 32.149 43.397 32.527-15.9 12.564-35.93 20.047-57.698 20.047a93.697 93.697 0 0 1-11.081-.649c20.56 13.285 44.972 21.037 71.211 21.037"/></g><defs><clipPath id="a"><path fill="#fff" d="M12 32h227v186H12z"/></clipPath></defs></svg>