<?xml version="1.0" encoding="utf-8"?>
<!-- Generator: Adobe Illustrator 19.2.1, SVG Export Plug-In . SVG Version: 6.00 Build 0)  -->
<svg version="1.1" id="layer" xmlns="http://www.w3.org/2000/svg" xmlns:xlink="http://www.w3.org/1999/xlink" x="0px" y="0px"
	 viewBox="0 0 652 652" style="enable-background:new 0 0 652 652;" xml:space="preserve">
<style type="text/css">
	.st0{fill:#5F6062;}
	.st1{fill:#F8971D;}
</style>
<path class="st0" d="M569,319.9c0-16-9.3-28-25.6-28c-15.2,0-25.5,10.7-25.5,30c0,23.7,13.3,30,27,30c10.6,0,17.2-5,21.9-8.9
	c0.3-0.1,0.3-0.5,0-0.7l-8.2-8c0,0-0.3-0.4-0.7,0c-3.6,3.4-6.8,5.2-13,5.2c-4.9,0-8.5-2-10.6-5l0,0c0-0.1-0.1-0.3-0.1-0.3
	c-0.1-0.1-0.1-0.3-0.3-0.4c-1.1-1.9-2.1-4.1-2.7-7.2h37c0.3,0,0.5-0.3,0.5-0.5v-6.2H569z M531.3,316.4c0.5-3.6,1.5-6.2,3-8.2
	c2.1-2.5,4.6-3.8,7.8-4.1c0.3,0,0.4,0,0.7,0c0.1,0,0.1,0,0.3,0l0,0c0.1,0,0.1,0,0.1,0c4.9,0,8.2,2.7,9.8,6.1
	c0.9,2.1,1.2,3.7,1.3,6.2H531.3z M339.9,351.3c-11.9,0-17-8.5-17-16.8V305c0-0.3-0.3-0.5-0.5-0.5h-10.1c-0.3,0-0.5-0.3-0.5-0.5
	v-10.9c0-0.3,0.3-0.5,0.5-0.5h10.1c0.3,0,0.5-0.3,0.5-0.5v-14.6c0-0.3,0.3-0.5,0.5-0.5h13.7c0.3,0,0.5,0.3,0.5,0.5V292
	c0,0.3,0.3,0.5,0.5,0.5h9.1c0.4,0,0.5,0.1,0.7,0.5c0.1,0.4,3.4,10.5,3.6,10.9s-0.1,0.7-0.5,0.7h-12.9c-0.3,0-0.5,0.3-0.5,0.5v28
	c0,3.2,1.6,5.8,5,5.8h8.8c0.3,0,0.5,0.3,0.5,0.5v11.4c0,0.3-0.3,0.5-0.5,0.5h-11.5V351.3z M500.7,351.3c-11.9,0-17-8.5-17-16.8V305
	c0-0.3-0.3-0.5-0.5-0.5h-10.1c-0.3,0-0.5-0.3-0.5-0.5v-10.9c0-0.3,0.3-0.5,0.5-0.5h10.1c0.3,0,0.5-0.3,0.5-0.5v-14.6
	c0-0.3,0.3-0.5,0.5-0.5h13.5c0.3,0,0.5,0.3,0.5,0.5V292c0,0.3,0.3,0.5,0.5,0.5h9.1c0.4,0,0.5,0.1,0.7,0.5c0.1,0.4,3.4,10.5,3.6,10.9
	c0.1,0.4-0.1,0.7-0.5,0.7h-12.9c-0.3,0-0.5,0.3-0.5,0.5v28c0,3.2,1.6,5.8,5,5.8h8.8c0.3,0,0.5,0.3,0.5,0.5v11.4
	c0,0.3-0.3,0.5-0.5,0.5h-11.4V351.3z M385.2,360.7c-1.2,3.3-2.5,5.7-4.4,7.6c-3.4,3.3-7.8,4.5-12.6,4.5h-5.3c-0.3,0-0.5-0.3-0.5-0.5
	v-12.2c0-0.3,0.3-0.5,0.5-0.5h2.4c0.3,0,0.8,0,1.1-0.1c0,0,5.3-0.9,6.8-5.2l2.4-6.8c0.1-0.3,0.1-0.7,0-0.9l-19.8-53.4
	c-0.1-0.3,0-0.5,0.4-0.5h14.3c0.3,0,0.5,0.3,0.7,0.5l11.8,35.3c0.1,0.3,0.3,0.3,0.3,0l11.4-35.3c0.1-0.3,0.4-0.5,0.7-0.5h14.5
	c0.3,0,0.4,0.3,0.3,0.5L385.2,360.7z M452.4,351.3c-0.3,0-0.5-0.3-0.5-0.5v-34.5c0-7.7-5-11.1-9.7-11.3c-4.6,0-9.8,2.7-9.8,10.7v35
	c0,0.3-0.3,0.5-0.5,0.5h-13.7c-0.3,0-0.5-0.3-0.5-0.5v-57.7c0-0.3,0.3-0.5,0.5-0.5h13.3c0.3,0,0.5,0.3,0.5,0.5v4.4
	c0,0.3,0.1,0.4,0.4,0.3c0,0,5.2-5.8,14.2-5.8c5.8,0,10.6,1.9,13.8,5.2c4.8,4.8,6,10.2,6,16.7v37c0,0.3-0.3,0.5-0.5,0.5H452.4z
	 M621.2,344.3c-5.2,5.2-11.1,7.7-19.1,7.7c-11.7,0-26.3-6.2-26.3-30.1c0-23.7,14.5-30,26.3-30c8,0,13.9,2.4,19.1,7.6
	c0.4,0.4,0,0.7,0,0.7l-9.3,9.3c-0.3,0.1-0.5,0.3-0.8,0c0,0-5.2-4.2-9-4.2c-3.4,0-6.2,1.2-8.4,3.8c-2.3,2.8-3.2,6.8-3.2,13
	c0,6.2,1.1,10.2,3.2,13c2.1,2.5,4.9,3.8,8.4,3.8c3.7,0,6.2-1.2,9.1-4.2c0.3-0.3,0.5-0.1,0.7,0c0.3,0.3,9,8.9,9.3,9.1
	C621.5,343.9,621.3,344.1,621.2,344.3z"/>
<path id="Shape_6_" class="st1" d="M256.5,349.1l-20.6,20.3l-24.6-24.3c-1.6-1.6-4.1-1.6-5.8,0l-18.3,18v-29.5l3.3-3.3
	c1.6-1.6,1.6-4.1,0-5.7l-46.9-46.2c-7.3-7.2-16.8-6.4-23.3,0L97.4,301v-29.5l13.6-13.4c19.6-19.4,38.4-14.5,50.5-2.6l49.6,48.9
	c1.6,1.6,4.2,1.6,5.8,0l15.7-15.5l15,14.8l-15.7,15.5c-1.6,1.6-1.6,4.2,0,5.7L256.5,349.1z"/>
<path id="Shape_7_" class="st0" d="M21.4,292.9L42,272.6l24.6,24.3c1.6,1.6,4.1,1.6,5.8,0l18.3-18v29.5l-3.3,3.3
	c-1.6,1.6-1.6,4.1,0,5.7l46.9,46.2c7.3,7.2,16.8,6.4,23.3,0l22.9-22.6v29.5L166.8,384c-19.6,19.4-38.4,14.5-50.5,2.6l-49.6-48.9
	c-1.6-1.6-4.2-1.6-5.8,0l-15.6,15.5l-15-14.8l15.7-15.5c1.6-1.6,1.6-4.2,0-5.7L21.4,292.9z"/>
</svg>
