<svg width="250" height="250" viewBox="0 0 250 250" fill="none" xmlns="http://www.w3.org/2000/svg">
<path d="M153.09 133.787C149.154 133.787 147.147 130.504 147.147 126.438C147.147 122.373 149.154 119.324 153.09 119.324C157.103 119.324 159.032 122.607 159.032 126.438C159.032 130.582 157.026 133.787 153.09 133.787ZM114.58 119.324C116.895 119.324 117.821 120.653 117.821 121.825C117.821 124.718 114.966 125.891 108.946 126.125C109.023 122.607 110.953 119.324 114.58 119.324ZM89.0351 133.787C85.3307 133.787 83.7873 130.738 83.7873 126.438C83.7873 122.216 85.4079 119.324 89.0351 119.324C92.8167 119.324 94.5917 122.373 94.5917 126.438C94.5917 130.738 92.7395 133.787 89.0351 133.787ZM57.548 115.102H51.7599L61.4067 137.54C59.5545 141.684 58.5512 142.7 57.3165 142.7C56.0045 142.7 54.6925 141.605 53.7664 140.667L51.2197 144.107C52.9947 145.984 55.3099 147 57.7795 147C60.8665 147 63.1817 145.202 64.4937 141.996L75.6068 115.102H69.8959L64.1078 131.129L57.548 115.102ZM211.588 119.324C214.443 119.324 214.984 121.278 214.984 125.891V138.009H220V122.685C220 117.213 216.296 114.789 212.823 114.789C209.736 114.789 206.958 116.744 205.414 120.262C204.565 116.822 201.71 114.789 198.391 114.789C195.536 114.789 192.68 116.665 191.06 120.105V115.102H186.043V137.931H191.06V128.158C191.06 123.233 193.606 119.245 197.079 119.245C199.935 119.245 200.475 121.2 200.475 125.813V137.931H205.491V128.158C205.568 123.233 208.115 119.324 211.588 119.324ZM171.303 115.102H168.911V137.931H173.927V129.175C173.927 123.624 176.319 119.871 179.947 119.871C180.873 119.871 181.644 119.871 182.493 120.262L183.265 114.867C182.648 114.789 182.03 114.711 181.49 114.711C177.94 114.711 175.393 117.135 173.927 120.34V115.024L171.303 115.102ZM153.09 114.789C146.453 114.789 141.9 119.949 141.9 126.438C141.9 133.162 146.453 138.244 153.09 138.244C159.804 138.244 164.357 133.084 164.357 126.438C164.357 119.871 159.727 114.789 153.09 114.789ZM114.889 133.787C112.265 133.787 110.335 132.458 109.486 129.722C116.123 129.409 122.683 127.767 122.683 121.825C122.683 118.385 119.365 114.867 114.58 114.867C108.097 114.867 103.775 120.184 103.775 126.516C103.775 133.084 108.097 138.322 114.503 138.322C118.979 138.322 121.834 136.524 124.072 133.865L121.603 130.504C118.979 133.084 117.358 133.787 114.889 133.787ZM90.0384 114.789C87.4916 114.789 84.9449 116.275 83.9416 118.62V115.102H78.9253V146.844H83.9416V135.507C85.0221 137.149 87.4145 138.244 89.6525 138.244C96.3667 138.244 99.9167 133.24 99.9167 126.438C99.8395 119.715 96.3667 114.789 90.0384 114.789ZM54.7697 106.033H31V110.958H40.2609V137.931H45.5088V110.958H54.6925L54.7697 106.033ZM129.629 115.102H126.619V119.636H129.629V137.853H134.645V119.715H139.507V115.18H134.645V111.584C134.645 109.316 135.571 108.535 137.655 108.535C138.427 108.535 139.121 108.769 140.125 109.082L141.282 104.782C140.356 104.235 138.504 104 137.346 104C132.561 104 129.706 106.893 129.706 111.975L129.629 115.102Z" fill="#131313"/>
</svg>
