<?xml version="1.0" standalone="no"?>
<!DOCTYPE svg PUBLIC "-//W3C//DTD SVG 20010904//EN"
 "http://www.w3.org/TR/2001/REC-SVG-20010904/DTD/svg10.dtd">
<svg version="1.0" xmlns="http://www.w3.org/2000/svg"
 width="400.000000pt" height="400.000000pt" viewBox="0 0 400.000000 400.000000"
 preserveAspectRatio="xMidYMid meet">

<g transform="translate(0.000000,400.000000) scale(0.100000,-0.100000)"
fill="#000000" stroke="none">
<path d="M0 2000 l0 -2000 2000 0 2000 0 0 2000 0 2000 -2000 0 -2000 0 0
-2000z m2325 1525 c270 -52 483 -168 708 -385 304 -292 481 -620 533 -986 43
-312 -24 -567 -218 -826 -152 -201 -498 -558 -658 -676 -106 -79 -258 -155
-370 -184 -119 -31 -342 -31 -480 1 -312 72 -618 280 -907 615 -257 299 -418
595 -479 881 -23 110 -23 318 0 405 36 139 96 239 221 369 81 85 484 429 624
533 205 153 387 233 606 268 83 13 323 4 420 -15z"/>
<path d="M1840 3491 c-104 -22 -229 -68 -318 -117 -132 -73 -248 -161 -579
-441 -285 -241 -378 -351 -439 -523 -25 -68 -27 -89 -28 -225 -1 -217 37 -364
156 -597 196 -385 581 -796 908 -967 198 -104 328 -136 545 -136 190 0 251 13
400 85 142 69 255 157 456 359 474 478 599 699 599 1056 0 399 -192 806 -534
1132 -175 167 -339 268 -536 333 -181 59 -455 77 -630 41z m628 -1005 l3 -86
-186 0 -185 0 0 -495 0 -495 -90 0 -90 0 0 495 0 495 -185 0 -185 0 0 83 c0
46 2 86 4 88 2 2 208 3 458 2 l453 -1 3 -86z"/>
</g>
</svg>
