<svg width="250" height="250" viewBox="0 0 250 250" fill="none" xmlns="http://www.w3.org/2000/svg">
<g clip-path="url(#clip0_621_4884)">
<path d="M203.206 178.069H46.7932C45.2508 178.069 44 176.818 44 175.276V74.7241C44 73.1817 45.2508 71.9309 46.7932 71.9309H203.207C204.749 71.9309 206 73.1817 206 74.7241V175.276C206 176.818 204.749 178.069 203.206 178.069Z" fill="#F5F5F5"/>
<path d="M206 80.0958H44V74.7241C44 73.1817 45.2508 71.9309 46.7932 71.9309H203.207C204.749 71.9309 206 73.1817 206 74.7241L206 80.0958Z" fill="#FF4B55"/>
<path d="M206 104.588H44V112.753H206V104.588Z" fill="#FF4B55"/>
<path d="M206 88.2588H44V96.4233H206V88.2588Z" fill="#FF4B55"/>
<path d="M206 129.082H46.7932C45.2508 129.082 44 127.831 44 126.289V120.917H206V129.082Z" fill="#FF4B55"/>
<path d="M206 153.578H44V161.742H206V153.578Z" fill="#FF4B55"/>
<path d="M203.206 178.069H46.7932C45.2508 178.069 44 176.818 44 175.275V169.904H206V175.276C206 176.818 204.749 178.069 203.206 178.069Z" fill="#FF4B55"/>
<path d="M206 137.248H44V145.412H206V137.248Z" fill="#FF4B55"/>
<path d="M116.62 71.9314H46.7932C45.2508 71.9314 44 73.1818 44 74.7243V126.289C44 127.831 45.2508 129.082 46.7932 129.082H116.621C118.163 129.082 119.414 127.831 119.414 126.289V74.7243C119.414 73.1818 118.163 71.9314 116.62 71.9314Z" fill="#41479B"/>
<path d="M51.8457 78.3422L52.464 80.1963L54.4184 80.2112C54.6716 80.2134 54.7763 80.5361 54.5728 80.6864L53.0006 81.8476L53.5904 83.711C53.667 83.9521 53.392 84.152 53.186 84.0046L51.5961 82.8684L50.0062 84.0049C49.8002 84.152 49.5259 83.9524 49.6018 83.7113L50.1916 81.848L48.6194 80.6867C48.4159 80.5361 48.5206 80.2137 48.7738 80.2115L50.7282 80.1966L51.3465 78.3425C51.4262 78.102 51.7654 78.102 51.8457 78.3422Z" fill="#F5F5F5"/>
<path d="M51.8445 88.0412L52.4627 89.8953L54.4172 89.9102C54.6703 89.9124 54.775 90.2351 54.5716 90.3854L52.9994 91.5466L53.5891 93.4099C53.6657 93.651 53.3907 93.851 53.1848 93.7036L51.5948 92.5673L50.0049 93.7039C49.7989 93.851 49.5246 93.6514 49.6005 93.4103L50.1903 91.5469L48.6181 90.3857C48.4146 90.2351 48.5194 89.9127 48.7725 89.9105L50.7269 89.8956L51.3452 88.0415C51.4249 87.8013 51.7641 87.8013 51.8445 88.0412Z" fill="#F5F5F5"/>
<path d="M51.8445 97.7404L52.4627 99.5945L54.4172 99.6094C54.6703 99.6116 54.775 99.9343 54.5716 100.085L52.9994 101.246L53.5891 103.109C53.6657 103.35 53.3907 103.55 53.1848 103.403L51.5948 102.267L50.0049 103.403C49.7989 103.55 49.5246 103.351 49.6005 103.109L50.1903 101.246L48.6181 100.085C48.4146 99.9343 48.5194 99.6119 48.7725 99.6097L50.7269 99.5948L51.3452 97.7407C51.4249 97.5005 51.7641 97.5005 51.8445 97.7404Z" fill="#F5F5F5"/>
<path d="M51.8445 107.44L52.4627 109.294L54.4172 109.309C54.6703 109.311 54.775 109.634 54.5716 109.784L52.9994 110.945L53.5891 112.809C53.6657 113.05 53.3907 113.25 53.1848 113.102L51.5948 111.966L50.0049 113.103C49.7989 113.25 49.5246 113.05 49.6005 112.809L50.1903 110.946L48.6181 109.784C48.4146 109.634 48.5194 109.311 48.7725 109.309L50.7269 109.294L51.3452 107.44C51.4249 107.2 51.7641 107.2 51.8445 107.44Z" fill="#F5F5F5"/>
<path d="M51.8445 117.139L52.4627 118.993L54.4172 119.008C54.6703 119.01 54.775 119.333 54.5716 119.483L52.9994 120.644L53.5891 122.508C53.6657 122.749 53.3907 122.949 53.1848 122.801L51.5948 121.665L50.0049 122.802C49.7989 122.949 49.5246 122.749 49.6005 122.508L50.1903 120.645L48.6181 119.483C48.4146 119.333 48.5194 119.01 48.7725 119.008L50.7269 118.993L51.3452 117.139C51.4249 116.898 51.7641 116.898 51.8445 117.139Z" fill="#F5F5F5"/>
<path d="M59.3724 83.0974L59.9907 84.9515L61.9451 84.9664C62.1982 84.9686 62.303 85.2913 62.0995 85.4416L60.5273 86.6028L61.1171 88.4661C61.1937 88.7072 60.9187 88.9072 60.7127 88.7598L59.1228 87.6232L57.5328 88.7598C57.3269 88.9069 57.0525 88.7072 57.1285 88.4661L57.7183 86.6028L56.146 85.4416C55.9426 85.291 56.0473 84.9686 56.3004 84.9664L58.2549 84.9515L58.8731 83.0974C58.9526 82.8575 59.2924 82.8575 59.3724 83.0974Z" fill="#F5F5F5"/>
<path d="M59.3724 92.7968L59.9907 94.6509L61.9451 94.6658C62.1982 94.668 62.303 94.9908 62.0995 95.1411L60.5273 96.3023L61.1171 98.1656C61.1937 98.4067 60.9187 98.6066 60.7127 98.4592L59.1228 97.3227L57.5328 98.4592C57.3269 98.6063 57.0525 98.407 57.1285 98.1656L57.7183 96.3023L56.146 95.1411C55.9426 94.9904 56.0473 94.668 56.3004 94.6658L58.2549 94.6509L58.8731 92.7968C58.9526 92.5567 59.2924 92.5567 59.3724 92.7968Z" fill="#F5F5F5"/>
<path d="M59.3724 102.496L59.9907 104.35L61.9451 104.365C62.1982 104.367 62.303 104.69 62.0995 104.84L60.5273 106.001L61.1171 107.865C61.1937 108.106 60.9187 108.306 60.7127 108.158L59.1228 107.022L57.5328 108.158C57.3269 108.305 57.0525 108.106 57.1285 107.865L57.7183 106.001L56.146 104.84C55.9426 104.689 56.0473 104.367 56.3004 104.365L58.2549 104.35L58.8731 102.496C58.9526 102.256 59.2924 102.256 59.3724 102.496Z" fill="#F5F5F5"/>
<path d="M59.3724 112.195L59.9907 114.049L61.9451 114.064C62.1982 114.066 62.303 114.389 62.0995 114.539L60.5273 115.7L61.1171 117.564C61.1937 117.805 60.9187 118.005 60.7127 117.857L59.1228 116.721L57.5328 117.857C57.3269 118.005 57.0525 117.805 57.1285 117.564L57.7183 115.7L56.146 114.539C55.9426 114.389 56.0473 114.066 56.3004 114.064L58.2549 114.049L58.8731 112.195C58.9526 111.955 59.2924 111.955 59.3724 112.195Z" fill="#F5F5F5"/>
<path d="M66.901 78.3422L67.5193 80.1964L69.4737 80.2112C69.7268 80.2134 69.8315 80.5362 69.6281 80.6865L68.0559 81.8477L68.6457 83.711C68.7222 83.9521 68.4473 84.1521 68.2413 84.0046L66.6513 82.8681L65.0614 84.0046C64.8554 84.1517 64.5811 83.9521 64.657 83.711L65.2468 81.8477L63.6746 80.6865C63.4712 80.5359 63.5759 80.2134 63.829 80.2112L65.7834 80.1964L66.4017 78.3422C66.4814 78.1021 66.8209 78.1021 66.901 78.3422Z" fill="#F5F5F5"/>
<path d="M66.901 88.0412L67.5193 89.8953L69.4737 89.9102C69.7268 89.9124 69.8315 90.2352 69.6281 90.3855L68.0559 91.5467L68.6457 93.41C68.7222 93.6511 68.4473 93.851 68.2413 93.7036L66.6513 92.5671L65.0614 93.7036C64.8554 93.8507 64.5811 93.6511 64.657 93.41L65.2468 91.5467L63.6746 90.3855C63.4712 90.2348 63.5759 89.9124 63.829 89.9102L65.7834 89.8953L66.4017 88.0412C66.4814 87.8014 66.8209 87.8014 66.901 88.0412Z" fill="#F5F5F5"/>
<path d="M66.901 97.7404L67.5193 99.5946L69.4737 99.6094C69.7268 99.6117 69.8315 99.9344 69.6281 100.085L68.0559 101.246L68.6457 103.109C68.7222 103.35 68.4473 103.55 68.2413 103.403L66.6513 102.266L65.0614 103.403C64.8554 103.55 64.5811 103.35 64.657 103.109L65.2468 101.246L63.6746 100.085C63.4712 99.9341 63.5759 99.6117 63.829 99.6094L65.7834 99.5946L66.4017 97.7404C66.4814 97.5006 66.8209 97.5006 66.901 97.7404Z" fill="#F5F5F5"/>
<path d="M66.901 107.44L67.5193 109.294L69.4737 109.309C69.7268 109.311 69.8315 109.634 69.6281 109.784L68.0559 110.945L68.6457 112.809C68.7222 113.05 68.4473 113.25 68.2413 113.102L66.6513 111.966L65.0614 113.102C64.8554 113.249 64.5811 113.05 64.657 112.809L65.2468 110.945L63.6746 109.784C63.4712 109.634 63.5759 109.311 63.829 109.309L65.7834 109.294L66.4017 107.44C66.4814 107.2 66.8209 107.2 66.901 107.44Z" fill="#F5F5F5"/>
<path d="M66.901 117.139L67.5193 118.993L69.4737 119.008C69.7268 119.01 69.8315 119.333 69.6281 119.483L68.0559 120.644L68.6457 122.508C68.7222 122.749 68.4473 122.949 68.2413 122.801L66.6513 121.665L65.0614 122.801C64.8554 122.948 64.5811 122.749 64.657 122.508L65.2468 120.644L63.6746 119.483C63.4712 119.332 63.5759 119.01 63.829 119.008L65.7834 118.993L66.4017 117.139C66.4814 116.898 66.8209 116.898 66.901 117.139Z" fill="#F5F5F5"/>
<path d="M74.4298 83.0974L75.0481 84.9515L77.0025 84.9664C77.2556 84.9686 77.3603 85.2913 77.1569 85.4416L75.5847 86.6028L76.1745 88.4661C76.251 88.7072 75.9761 88.9072 75.7701 88.7598L74.1802 87.6232L72.5902 88.7598C72.3842 88.9069 72.1099 88.7072 72.1859 88.4661L72.7756 86.6028L71.2034 85.4416C71 85.291 71.1047 84.9686 71.3578 84.9664L73.3123 84.9515L73.9305 83.0974C74.0099 82.8575 74.3498 82.8575 74.4298 83.0974Z" fill="#F5F5F5"/>
<path d="M74.4298 92.7968L75.0481 94.6509L77.0025 94.6658C77.2556 94.668 77.3603 94.9908 77.1569 95.1411L75.5847 96.3023L76.1745 98.1656C76.251 98.4067 75.9761 98.6066 75.7701 98.4592L74.1802 97.3227L72.5902 98.4592C72.3842 98.6063 72.1099 98.407 72.1859 98.1656L72.7756 96.3023L71.2034 95.1411C71 94.9904 71.1047 94.668 71.3578 94.6658L73.3123 94.6509L73.9305 92.7968C74.0099 92.5567 74.3498 92.5567 74.4298 92.7968Z" fill="#F5F5F5"/>
<path d="M74.4298 102.496L75.0481 104.35L77.0025 104.365C77.2556 104.367 77.3603 104.69 77.1569 104.84L75.5847 106.001L76.1745 107.865C76.251 108.106 75.9761 108.306 75.7701 108.158L74.1802 107.022L72.5902 108.158C72.3842 108.305 72.1099 108.106 72.1859 107.865L72.7756 106.001L71.2034 104.84C71 104.689 71.1047 104.367 71.3578 104.365L73.3123 104.35L73.9305 102.496C74.0099 102.256 74.3498 102.256 74.4298 102.496Z" fill="#F5F5F5"/>
<path d="M74.4298 112.195L75.0481 114.049L77.0025 114.064C77.2556 114.066 77.3603 114.389 77.1569 114.539L75.5847 115.7L76.1745 117.564C76.251 117.805 75.9761 118.005 75.7701 117.857L74.1802 116.721L72.5902 117.857C72.3842 118.005 72.1099 117.805 72.1859 117.564L72.7756 115.7L71.2034 114.539C71 114.389 71.1047 114.066 71.3578 114.064L73.3123 114.049L73.9305 112.195C74.0099 111.955 74.3498 111.955 74.4298 112.195Z" fill="#F5F5F5"/>
<path d="M81.9578 78.3422L82.5761 80.1964L84.5305 80.2112C84.7836 80.2134 84.8883 80.5362 84.6849 80.6865L83.1127 81.8477L83.7025 83.711C83.779 83.9521 83.5041 84.1521 83.2981 84.0046L81.7078 82.8681L80.1179 84.0046C79.9119 84.1517 79.6376 83.9521 79.7135 83.711L80.3033 81.8477L78.7311 80.6865C78.5276 80.5359 78.6324 80.2134 78.8855 80.2112L80.8399 80.1964L81.4582 78.3422C81.5382 78.1021 81.8777 78.1021 81.9578 78.3422Z" fill="#F5F5F5"/>
<path d="M81.9578 88.0412L82.5761 89.8953L84.5305 89.9102C84.7836 89.9124 84.8883 90.2352 84.6849 90.3855L83.1127 91.5467L83.7025 93.41C83.779 93.6511 83.5041 93.851 83.2981 93.7036L81.7078 92.5671L80.1179 93.7036C79.9119 93.8507 79.6376 93.6511 79.7135 93.41L80.3033 91.5467L78.7311 90.3855C78.5276 90.2348 78.6324 89.9124 78.8855 89.9102L80.8399 89.8953L81.4582 88.0412C81.5382 87.8014 81.8777 87.8014 81.9578 88.0412Z" fill="#F5F5F5"/>
<path d="M81.9578 97.7404L82.5761 99.5946L84.5305 99.6094C84.7836 99.6117 84.8883 99.9344 84.6849 100.085L83.1127 101.246L83.7025 103.109C83.779 103.35 83.5041 103.55 83.2981 103.403L81.7078 102.266L80.1179 103.403C79.9119 103.55 79.6376 103.35 79.7135 103.109L80.3033 101.246L78.7311 100.085C78.5276 99.9341 78.6324 99.6117 78.8855 99.6094L80.8399 99.5946L81.4582 97.7404C81.5382 97.5006 81.8777 97.5006 81.9578 97.7404Z" fill="#F5F5F5"/>
<path d="M81.9578 107.44L82.5761 109.294L84.5305 109.309C84.7836 109.311 84.8883 109.634 84.6849 109.784L83.1127 110.945L83.7025 112.809C83.779 113.05 83.5041 113.25 83.2981 113.102L81.7078 111.966L80.1179 113.102C79.9119 113.249 79.6376 113.05 79.7135 112.809L80.3033 110.945L78.7311 109.784C78.5276 109.634 78.6324 109.311 78.8855 109.309L80.8399 109.294L81.4582 107.44C81.5382 107.2 81.8777 107.2 81.9578 107.44Z" fill="#F5F5F5"/>
<path d="M81.9578 117.139L82.5761 118.993L84.5305 119.008C84.7836 119.01 84.8883 119.333 84.6849 119.483L83.1127 120.644L83.7025 122.508C83.779 122.749 83.5041 122.949 83.2981 122.801L81.7078 121.665L80.1179 122.801C79.9119 122.948 79.6376 122.749 79.7135 122.508L80.3033 120.644L78.7311 119.483C78.5276 119.332 78.6324 119.01 78.8855 119.008L80.8399 118.993L81.4582 117.139C81.5382 116.898 81.8777 116.898 81.9578 117.139Z" fill="#F5F5F5"/>
<path d="M89.4863 83.0974L90.1046 84.9515L92.059 84.9664C92.3121 84.9686 92.4168 85.2913 92.2134 85.4416L90.6412 86.6028L91.231 88.4661C91.3075 88.7072 91.0326 88.9072 90.8266 88.7598L89.2366 87.6232L87.6467 88.7598C87.4407 88.9069 87.1664 88.7072 87.2423 88.4661L87.8321 86.6028L86.2599 85.4416C86.0565 85.291 86.1612 84.9686 86.4143 84.9664L88.3687 84.9515L88.987 83.0974C89.0671 82.8575 89.4062 82.8575 89.4863 83.0974Z" fill="#F5F5F5"/>
<path d="M89.4863 92.7968L90.1046 94.6509L92.059 94.6658C92.3121 94.668 92.4168 94.9908 92.2134 95.1411L90.6412 96.3023L91.231 98.1656C91.3075 98.4067 91.0326 98.6066 90.8266 98.4592L89.2366 97.3227L87.6467 98.4592C87.4407 98.6063 87.1664 98.407 87.2423 98.1656L87.8321 96.3023L86.2599 95.1411C86.0565 94.9904 86.1612 94.668 86.4143 94.6658L88.3687 94.6509L88.987 92.7968C89.0671 92.5567 89.4062 92.5567 89.4863 92.7968Z" fill="#F5F5F5"/>
<path d="M89.4863 102.496L90.1046 104.35L92.059 104.365C92.3121 104.367 92.4168 104.69 92.2134 104.84L90.6412 106.001L91.231 107.865C91.3075 108.106 91.0326 108.306 90.8266 108.158L89.2366 107.022L87.6467 108.158C87.4407 108.305 87.1664 108.106 87.2423 107.865L87.8321 106.001L86.2599 104.84C86.0565 104.689 86.1612 104.367 86.4143 104.365L88.3687 104.35L88.987 102.496C89.0671 102.256 89.4062 102.256 89.4863 102.496Z" fill="#F5F5F5"/>
<path d="M89.4863 112.195L90.1046 114.049L92.059 114.064C92.3121 114.066 92.4168 114.389 92.2134 114.539L90.6412 115.7L91.231 117.564C91.3075 117.805 91.0326 118.005 90.8266 117.857L89.2366 116.721L87.6467 117.857C87.4407 118.005 87.1664 117.805 87.2423 117.564L87.8321 115.7L86.2599 114.539C86.0565 114.389 86.1612 114.066 86.4143 114.064L88.3687 114.049L88.987 112.195C89.0671 111.955 89.4062 111.955 89.4863 112.195Z" fill="#F5F5F5"/>
<path d="M97.0148 78.3422L97.6331 80.1964L99.5875 80.2112C99.8407 80.2134 99.9454 80.5362 99.7419 80.6865L98.1697 81.8477L98.7595 83.711C98.8361 83.9521 98.5611 84.1521 98.3551 84.0046L96.7652 82.8681L95.1752 84.0046C94.9693 84.1517 94.6949 83.9521 94.7709 83.711L95.3607 81.8477L93.7884 80.6865C93.585 80.5359 93.6897 80.2134 93.9428 80.2112L95.8973 80.1964L96.5155 78.3422C96.595 78.1021 96.9348 78.1021 97.0148 78.3422Z" fill="#F5F5F5"/>
<path d="M97.0148 88.0412L97.6331 89.8953L99.5875 89.9102C99.8407 89.9124 99.9454 90.2352 99.7419 90.3855L98.1697 91.5467L98.7595 93.41C98.8361 93.6511 98.5611 93.851 98.3551 93.7036L96.7652 92.5671L95.1752 93.7036C94.9693 93.8507 94.6949 93.6511 94.7709 93.41L95.3607 91.5467L93.7884 90.3855C93.585 90.2348 93.6897 89.9124 93.9428 89.9102L95.8973 89.8953L96.5155 88.0412C96.595 87.8014 96.9348 87.8014 97.0148 88.0412Z" fill="#F5F5F5"/>
<path d="M97.0148 97.7404L97.6331 99.5946L99.5875 99.6094C99.8407 99.6117 99.9454 99.9344 99.7419 100.085L98.1697 101.246L98.7595 103.109C98.8361 103.35 98.5611 103.55 98.3551 103.403L96.7652 102.266L95.1752 103.403C94.9693 103.55 94.6949 103.35 94.7709 103.109L95.3607 101.246L93.7884 100.085C93.585 99.9341 93.6897 99.6117 93.9428 99.6094L95.8973 99.5946L96.5155 97.7404C96.595 97.5006 96.9348 97.5006 97.0148 97.7404Z" fill="#F5F5F5"/>
<path d="M97.0148 107.44L97.6331 109.294L99.5875 109.309C99.8407 109.311 99.9454 109.634 99.7419 109.784L98.1697 110.945L98.7595 112.809C98.8361 113.05 98.5611 113.25 98.3551 113.102L96.7652 111.966L95.1752 113.102C94.9693 113.249 94.6949 113.05 94.7709 112.809L95.3607 110.945L93.7884 109.784C93.585 109.634 93.6897 109.311 93.9428 109.309L95.8973 109.294L96.5155 107.44C96.595 107.2 96.9348 107.2 97.0148 107.44Z" fill="#F5F5F5"/>
<path d="M97.0148 117.139L97.6331 118.993L99.5875 119.008C99.8407 119.01 99.9454 119.333 99.7419 119.483L98.1697 120.644L98.7595 122.508C98.8361 122.749 98.5611 122.949 98.3551 122.801L96.7652 121.665L95.1752 122.801C94.9693 122.948 94.6949 122.749 94.7709 122.508L95.3607 120.644L93.7884 119.483C93.585 119.332 93.6897 119.01 93.9428 119.008L95.8973 118.993L96.5155 117.139C96.595 116.898 96.9348 116.898 97.0148 117.139Z" fill="#F5F5F5"/>
<path d="M104.543 83.0974L105.161 84.9515L107.116 84.9664C107.369 84.9686 107.473 85.2913 107.27 85.4416L105.698 86.6028L106.287 88.4661C106.364 88.7072 106.089 88.9072 105.883 88.7598L104.293 87.6232L102.703 88.7598C102.497 88.9069 102.223 88.7072 102.299 88.4661L102.889 86.6028L101.316 85.4416C101.113 85.291 101.218 84.9686 101.471 84.9664L103.425 84.9515L104.044 83.0974C104.123 82.8575 104.463 82.8575 104.543 83.0974Z" fill="#F5F5F5"/>
<path d="M104.543 92.7968L105.161 94.6509L107.116 94.6658C107.369 94.668 107.473 94.9908 107.27 95.1411L105.698 96.3023L106.287 98.1656C106.364 98.4067 106.089 98.6066 105.883 98.4592L104.293 97.3227L102.703 98.4592C102.497 98.6063 102.223 98.407 102.299 98.1656L102.889 96.3023L101.316 95.1411C101.113 94.9904 101.218 94.668 101.471 94.6658L103.425 94.6509L104.044 92.7968C104.123 92.5567 104.463 92.5567 104.543 92.7968Z" fill="#F5F5F5"/>
<path d="M104.543 102.496L105.161 104.35L107.116 104.365C107.369 104.367 107.473 104.69 107.27 104.84L105.698 106.001L106.287 107.865C106.364 108.106 106.089 108.306 105.883 108.158L104.293 107.022L102.703 108.158C102.497 108.305 102.223 108.106 102.299 107.865L102.889 106.001L101.316 104.84C101.113 104.689 101.218 104.367 101.471 104.365L103.425 104.35L104.044 102.496C104.123 102.256 104.463 102.256 104.543 102.496Z" fill="#F5F5F5"/>
<path d="M104.543 112.195L105.161 114.049L107.116 114.064C107.369 114.066 107.473 114.389 107.27 114.539L105.698 115.7L106.287 117.564C106.364 117.805 106.089 118.005 105.883 117.857L104.293 116.721L102.703 117.857C102.497 118.005 102.223 117.805 102.299 117.564L102.889 115.7L101.316 114.539C101.113 114.389 101.218 114.066 101.471 114.064L103.425 114.049L104.044 112.195C104.123 111.955 104.463 111.955 104.543 112.195Z" fill="#F5F5F5"/>
<path d="M112.071 78.3422L112.69 80.1964L114.644 80.2112C114.897 80.2134 115.002 80.5362 114.798 80.6865L113.226 81.8477L113.816 83.711C113.893 83.9521 113.618 84.1521 113.412 84.0046L111.822 82.8681L110.232 84.0046C110.026 84.1517 109.751 83.9521 109.827 83.711L110.417 81.8477L108.845 80.6865C108.642 80.5359 108.746 80.2134 108.999 80.2112L110.954 80.1964L111.572 78.3422C111.652 78.1021 111.991 78.1021 112.071 78.3422Z" fill="#F5F5F5"/>
<path d="M112.071 88.0412L112.69 89.8953L114.644 89.9102C114.897 89.9124 115.002 90.2352 114.798 90.3855L113.226 91.5467L113.816 93.41C113.893 93.6511 113.618 93.851 113.412 93.7036L111.822 92.5671L110.232 93.7036C110.026 93.8507 109.751 93.6511 109.827 93.41L110.417 91.5467L108.845 90.3855C108.642 90.2348 108.746 89.9124 108.999 89.9102L110.954 89.8953L111.572 88.0412C111.652 87.8014 111.991 87.8014 112.071 88.0412Z" fill="#F5F5F5"/>
<path d="M112.071 97.7404L112.69 99.5946L114.644 99.6094C114.897 99.6117 115.002 99.9344 114.798 100.085L113.226 101.246L113.816 103.109C113.893 103.35 113.618 103.55 113.412 103.403L111.822 102.266L110.232 103.403C110.026 103.55 109.751 103.35 109.827 103.109L110.417 101.246L108.845 100.085C108.642 99.9341 108.746 99.6117 108.999 99.6094L110.954 99.5946L111.572 97.7404C111.652 97.5006 111.991 97.5006 112.071 97.7404Z" fill="#F5F5F5"/>
<path d="M112.071 107.44L112.69 109.294L114.644 109.309C114.897 109.311 115.002 109.634 114.798 109.784L113.226 110.945L113.816 112.809C113.893 113.05 113.618 113.25 113.412 113.102L111.822 111.966L110.232 113.102C110.026 113.249 109.751 113.05 109.827 112.809L110.417 110.945L108.845 109.784C108.642 109.634 108.746 109.311 108.999 109.309L110.954 109.294L111.572 107.44C111.652 107.2 111.991 107.2 112.071 107.44Z" fill="#F5F5F5"/>
<path d="M112.071 117.139L112.69 118.993L114.644 119.008C114.897 119.01 115.002 119.333 114.798 119.483L113.226 120.644L113.816 122.508C113.893 122.749 113.618 122.949 113.412 122.801L111.822 121.665L110.232 122.801C110.026 122.948 109.751 122.749 109.827 122.508L110.417 120.644L108.845 119.483C108.642 119.332 108.746 119.01 108.999 119.008L110.954 118.993L111.572 117.139C111.652 116.898 111.991 116.898 112.071 117.139Z" fill="#F5F5F5"/>
</g>
<defs>
<clipPath id="clip0_621_4884">
<rect width="162" height="162" fill="white" transform="translate(44 44)"/>
</clipPath>
</defs>
</svg>
