<svg xmlns="http://www.w3.org/2000/svg" width="250" height="250" fill="none"><g fill="#AB0635" clip-path="url(#a)"><path d="M40.766 58.905v-2.464h9.657v2.464h-3.519v11.964c0 4.992 1.64 7.488 5.894 7.488 4.12 0 6.037-2.533 6.037-7.488V58.905h-3.444v-2.464h9.481v2.464H61.96v12.847c0 5.657-3.481 9.068-9.162 9.068-5.787 0-9.019-3.267-9.019-9.068V58.905h-3.013Zm23.398 19.201h2.7V65.77h-2.7v-2.203h5.468v2.9c1.49-2.277 3.231-3.342 5.61-3.342 3.945 0 5.681 1.943 5.681 6.02v8.96h2.736v2.2h-8.588v-2.2h2.987v-8.96c0-2.534-1.172-3.816-3.519-3.816-2.8 0-4.796 1.98-4.796 5.284v7.493h3.018v2.198h-8.588v-2.198m25.413-21.665H86.46v3.305h3.125v-3.305Zm-5.648 21.665h2.768V65.77h-2.769v-2.203h5.644v14.539h2.7v2.199h-8.344v-2.199ZM90.79 65.77v-2.203h3.189v-3.565l2.875-1.13v4.695h5.042v2.203h-5.042v10.356c0 1.645.176 2.236 1.565 2.236 1.453 0 2.171-.879 2.171-2.975h2.125v.33c0 3.225-1.565 5.029-4.264 5.029-3.125 0-4.472-1.25-4.472-4.114V65.77h-3.19Zm28.12 9.324c-.741 3.714-3.403 5.657-7.81 5.657-5.112 0-8.162-3.412-8.162-8.813 0-5.248 3.263-8.808 8.231-8.808 5.218 0 8.199 3.407 8.199 9.547h-13.389c.107 3.704 2.097 5.87 5.218 5.87 2.773 0 4.583-1.32 5.009-3.448h2.704m-2.588-4.634c-.426-3.375-2.241-5.132-5.148-5.132-2.912 0-4.866 1.873-5.111 5.132h10.259Zm11.251 10.281c-4.579 0-7.667-3.486-7.667-8.813 0-5.322 3.088-8.808 7.741-8.808 2.662 0 4.574 1.097 6 3.486v-7.966h-2.986V56.44h5.861v21.665h2.699v2.198h-5.472V77.11c-1.421 2.464-3.445 3.635-6.176 3.635Zm.778-15.236c-3.19 0-5.431 2.459-5.431 6.423 0 4.002 2.208 6.428 5.398 6.428 3.088 0 5.324-2.384 5.324-6.53 0-3.862-2.236-6.321-5.291-6.321Zm18.57 6.646h2.593c.143 3.854 2.06 6.02 5.537 6.02 3.088 0 5.078-1.836 5.078-4.11 0-2.021-1.453-2.937-4.046-3.894l-4.796-1.799c-3.019-1.102-4.435-2.826-4.435-5.69 0-3.89 2.912-6.646 7.277-6.646 2.306 0 4.153.772 5.857 2.464v-2.06h2.629v7.786h-2.629c-.07-3.63-2.13-5.722-5.468-5.722-2.768 0-4.541 1.683-4.541 3.812 0 1.543.995 2.533 3.125 3.304l5.824 2.13c2.949 1.1 4.333 2.979 4.333 5.949 0 4.294-2.875 6.94-7.741 6.94-2.699 0-4.722-.958-6.069-2.869v2.534h-2.523v-8.149"/><path d="M162.617 65.77v-2.203h3.195v-3.565l2.87-1.13v4.695h5.046v2.203h-5.046v10.356c0 1.645.176 2.236 1.565 2.236 1.454 0 2.166-.879 2.166-2.975h2.13v.33c0 3.225-1.56 5.029-4.259 5.029-3.125 0-4.472-1.25-4.472-4.114V65.77h-3.195Zm24.353 11.676c-1.274 2.23-3.014 3.3-5.5 3.3-3.949 0-6.181-2.054-6.181-5.252 0-3.528 2.801-5.327 8.38-5.327.745 0 1.81.037 3.166.075V69c0-2.533-1.213-3.671-4.014-3.671-2.384 0-3.555.99-3.833 3.193h-3.06c.356-3.523 2.768-5.392 7.139-5.392 4.403 0 6.639 1.98 6.639 5.875v9.106h2.699v2.198h-5.435v-2.863Zm-2.843-5.071c-3.907 0-5.787 1.032-5.787 3.384 0 1.543 1.245 2.607 3.375 2.607 3.093 0 5.116-2.022 5.116-5.508v-.372a44.49 44.49 0 0 0-2.704-.111Zm6.607-6.605v-2.203h3.19v-3.565l2.875-1.13v4.695h5.042v2.203h-5.042v10.356c0 1.645.181 2.236 1.565 2.236 1.454 0 2.171-.879 2.171-2.975h2.13v.33c0 3.225-1.565 5.029-4.269 5.029-3.12 0-4.472-1.25-4.472-4.114V65.77h-3.19Zm28.11 9.324c-.741 3.714-3.403 5.657-7.81 5.657-5.111 0-8.167-3.412-8.167-8.813 0-5.248 3.269-8.808 8.232-8.808 5.227 0 8.203 3.407 8.203 9.547h-13.384c.097 3.704 2.088 5.87 5.218 5.87 2.768 0 4.574-1.32 5.004-3.448h2.704m-2.588-4.634c-.426-3.375-2.236-5.136-5.148-5.136-2.912 0-4.866 1.873-5.111 5.13h10.259v.006Zm4.191 4.075h2.31c.426 2.497 2.093 3.817 4.579 3.817 2.412 0 3.87-1.176 3.87-2.789 0-1.399-.926-2.026-3.167-2.352l-3.014-.446c-2.842-.442-4.365-2.017-4.365-4.402 0-3.044 2.412-5.247 6.176-5.247 2.203 0 3.801.73 4.865 2.31v-1.864h2.061v5.536h-1.996c-.171-2.347-1.949-3.593-4.329-3.593-2.518 0-3.907.878-3.907 2.533 0 1.139.708 1.836 2.199 2.059l2.843.4c3.759.553 5.504 1.985 5.504 4.992 0 3.044-2.314 5.252-6.143 5.252-2.306 0-4.014-.846-5.296-2.575V80.3h-2.199v-5.76m-188.29 33.657 9.417 3.588c-1.454 6.554-3.884 11.342-7.264 14.372-3.389 3.026-7.556 4.536-12.505 4.536-6.222 0-11.264-2.407-15.13-7.213C2.223 117.925 0 110.433 0 100.997c0-9.96 2.236-17.76 6.713-23.393 3.889-4.89 9.116-7.335 15.685-7.335 5.347 0 9.82 1.836 13.421 5.494 2.565 2.599 4.445 6.456 5.64 11.574l-9.417 2.821c-.616-3.156-1.829-5.573-3.649-7.255-1.819-1.683-3.967-2.524-6.435-2.524-3.541 0-6.421 1.538-8.652 4.615-2.232 3.077-3.348 8.162-3.348 15.246 0 7.348 1.074 12.582 3.232 15.682 2.162 3.11 4.963 4.657 8.412 4.657 2.528 0 4.708-.985 6.555-2.965 1.843-1.975 3.176-5.113 3.991-9.417Zm35.464 9.566 9.954 1.626c-1.273 3.686-3.301 6.489-6.065 8.418-2.764 1.929-6.218 2.886-10.366 2.886-6.565 0-11.426-2.156-14.579-6.47-2.49-3.453-3.736-7.813-3.736-13.074 0-6.294 1.635-11.211 4.908-14.781 3.273-3.56 7.416-5.336 12.421-5.336 5.62 0 10.05 1.86 13.3 5.592 3.25 3.723 4.806 9.426 4.663 17.118H53.107c.074 2.989.875 5.308 2.412 6.968 1.537 1.654 3.454 2.491 5.746 2.491 1.56 0 2.865-.432 3.935-1.288 1.07-.855 1.866-2.245 2.412-4.15Zm.542-10.11c-.07-2.914-.815-5.126-2.227-6.642-1.422-1.515-3.14-2.273-5.167-2.273-2.171 0-3.968.805-5.38 2.403-1.416 1.599-2.115 3.77-2.092 6.512h14.866Zm49.417 22.06h-9.958v-19.271c0-4.076-.213-6.716-.639-7.911-.431-1.199-1.116-2.129-2.074-2.793-.958-.665-2.111-1-3.458-1-1.723 0-3.274.48-4.644 1.427-1.37.949-2.31 2.203-2.82 3.77-.504 1.566-.759 4.457-.759 8.673v17.105h-9.953V91.79h9.305v5.554c3.278-4.206 7.403-6.317 12.38-6.317 2.19 0 4.194.4 6.014 1.195 1.815.795 3.185 1.813 4.125 3.044a11.134 11.134 0 0 1 1.944 4.202c.366 1.567.546 3.807.546 6.73v23.515m3.92-10.649 10.065-1.515c.421 1.915 1.278 3.379 2.569 4.369 1.292.99 3.088 1.492 5.412 1.492 2.556 0 4.482-.483 5.764-1.441.871-.669 1.301-1.566 1.301-2.686 0-.767-.236-1.409-.708-1.906-.496-.483-1.611-.92-3.338-1.329-8.042-1.795-13.144-3.426-15.296-4.899-2.987-2.041-4.473-4.885-4.473-8.511 0-3.277 1.287-6.038 3.875-8.264 2.579-2.231 6.584-3.347 12.01-3.347 5.162 0 9 .832 11.513 2.501 2.51 1.66 4.237 4.127 5.186 7.39l-9.417 1.739c-.403-1.474-1.167-2.608-2.287-3.389-1.125-.785-2.722-1.176-4.801-1.176-2.62 0-4.505.372-5.634 1.111-.755.53-1.135 1.209-1.135 2.041 0 .72.334 1.334.996 1.84.898.67 4.009 1.613 9.319 2.836 5.315 1.222 9.028 2.719 11.135 4.49 2.078 1.794 3.12 4.294 3.12 7.497 0 3.5-1.44 6.498-4.324 9.012-2.884 2.51-7.153 3.77-12.806 3.77-5.125 0-9.19-1.046-12.185-3.128-2.986-2.083-4.94-4.918-5.861-8.497Zm65.973 10.649v-5.666c-1.37 2.022-3.18 3.63-5.412 4.838-2.236 1.204-4.592 1.808-7.074 1.808-2.528 0-4.801-.557-6.81-1.677-2.014-1.125-3.463-2.701-4.361-4.737-.894-2.031-1.347-4.834-1.347-8.417V91.79h9.958v17.453c0 5.336.181 8.613.551 9.812.37 1.208 1.042 2.166 2.014 2.863.977.702 2.217 1.06 3.704 1.06 1.713 0 3.245-.474 4.597-1.418 1.356-.943 2.282-2.11 2.787-3.504.491-1.395.75-4.811.75-10.249V91.79h9.954v37.918h-9.311m13.238-10.644 10.069-1.515c.426 1.915 1.274 3.379 2.57 4.369 1.287.995 3.088 1.492 5.412 1.492 2.555 0 4.477-.483 5.764-1.441.87-.669 1.301-1.566 1.301-2.686 0-.767-.241-1.409-.709-1.906-.5-.483-1.606-.92-3.338-1.329-8.041-1.795-13.143-3.426-15.301-4.899-2.981-2.041-4.472-4.885-4.472-8.511 0-3.277 1.292-6.038 3.875-8.264 2.588-2.231 6.584-3.347 12.014-3.347 5.158 0 8.995.832 11.509 2.501 2.51 1.66 4.236 4.127 5.186 7.39l-9.417 1.739c-.403-1.474-1.167-2.608-2.287-3.389-1.121-.78-2.722-1.176-4.796-1.176-2.621 0-4.505.372-5.639 1.111-.755.53-1.135 1.209-1.135 2.041 0 .72.334 1.334 1 1.84.894.67 4.005 1.613 9.324 2.836 5.311 1.222 9.024 2.719 11.13 4.49 2.074 1.794 3.125 4.294 3.125 7.497 0 3.5-1.444 6.498-4.333 9.012-2.884 2.51-7.148 3.77-12.801 3.77-5.13 0-9.195-1.046-12.181-3.128-2.99-2.083-4.949-4.918-5.87-8.497ZM83.746 181.445v10.426H44.672c.421-3.937 1.68-7.665 3.792-11.188 2.11-3.528 6.277-8.204 12.504-14.033 5.014-4.708 8.088-7.901 9.222-9.579 1.528-2.315 2.292-4.602 2.292-6.87 0-2.496-.671-4.42-2.005-5.763-1.338-1.339-3.185-2.018-5.532-2.018-2.333 0-4.185.707-5.56 2.115-1.375 1.409-2.167 3.747-2.38 7.014l-11.148-1.115c.662-6.182 2.745-10.621 6.245-13.317 3.505-2.691 7.88-4.039 13.135-4.039 5.759 0 10.282 1.562 13.574 4.676 3.291 3.114 4.93 6.986 4.93 11.62a20.4 20.4 0 0 1-1.407 7.525c-.935 2.384-2.421 4.88-4.458 7.483-1.343 1.734-3.783 4.221-7.315 7.47-3.537 3.249-5.764 5.405-6.704 6.47-.935 1.064-1.694 2.1-2.273 3.118h22.162m20.52-48.357c5.666 0 10.097 2.031 13.287 6.084 3.805 4.797 5.708 12.759 5.708 23.881 0 11.095-1.917 19.066-5.75 23.919-3.167 4.002-7.583 6-13.245 6-5.695 0-10.287-2.193-13.773-6.581-3.487-4.383-5.227-12.206-5.227-23.459 0-11.039 1.916-18.987 5.745-23.839 3.171-4.002 7.588-6.005 13.255-6.005Zm0 9.347c-1.343 0-2.547.432-3.598 1.301-1.06.865-1.87 2.412-2.453 4.653-.764 2.9-1.144 7.79-1.144 14.66 0 6.869.338 11.587 1.033 14.162.68 2.57 1.546 4.281 2.588 5.131 1.041.86 2.236 1.279 3.578 1.279 1.347 0 2.547-.433 3.597-1.297 1.056-.865 1.871-2.417 2.454-4.653.764-2.877 1.144-7.748 1.144-14.622 0-6.875-.343-11.593-1.033-14.168-.68-2.57-1.551-4.285-2.592-5.145a5.4 5.4 0 0 0-3.574-1.301Zm49.096 49.445h-11.148V149.55c-4.074 3.849-8.875 6.684-14.394 8.534v-10.216c2.908-.958 6.07-2.766 9.482-5.438 3.403-2.668 5.75-5.782 7.018-9.343h9.047v58.788m25.644-58.792c5.667 0 10.097 2.031 13.292 6.084 3.801 4.797 5.708 12.759 5.708 23.881 0 11.095-1.921 19.066-5.75 23.919-3.171 4.002-7.588 6-13.25 6-5.69 0-10.282-2.193-13.769-6.581-3.486-4.383-5.226-12.206-5.226-23.459 0-11.039 1.907-18.987 5.74-23.839 3.172-4.002 7.588-6.005 13.255-6.005Zm0 9.347c-1.347 0-2.546.432-3.597 1.301-1.056.865-1.871 2.412-2.449 4.653-.764 2.9-1.148 7.79-1.148 14.66 0 6.869.338 11.587 1.027 14.162.686 2.57 1.551 4.281 2.593 5.131 1.046.86 2.231 1.279 3.579 1.279 1.347 0 2.546-.433 3.601-1.297 1.051-.865 1.866-2.417 2.445-4.653.764-2.877 1.148-7.748 1.148-14.622 0-6.875-.343-11.593-1.028-14.163-.685-2.57-1.551-4.285-2.592-5.145-1.042-.874-2.232-1.306-3.579-1.306Zm61.699-72.7v-5.489h-2.046v-.734h4.912v.734h-2.042v5.49h-.824Zm3.376 0v-6.224h1.222l1.477 4.402c.134.414.241.72.296.925.07-.228.185-.562.338-1l1.496-4.331h1.083v6.223h-.782V64.52l-1.825 5.206h-.722l-1.805-5.304v5.303h-.778"/></g><defs><clipPath id="a"><path fill="#fff" d="M0 56h250v137H0z"/></clipPath></defs></svg>