<svg xmlns="http://www.w3.org/2000/svg" width="250" height="250" fill="none"><g fill="#AB0635" clip-path="url(#a)"><path d="M44.812 61.778v-2.356h9.193v2.356h-3.35v11.44c0 4.773 1.561 7.16 5.611 7.16 3.923 0 5.748-2.422 5.748-7.16v-11.44h-3.28v-2.356h9.027v2.356h-2.772v12.284c0 5.41-3.315 8.672-8.723 8.672-5.509 0-8.585-3.125-8.585-8.672V61.778h-2.87Zm22.27 18.36h2.57V68.342h-2.57v-2.106h5.205v2.773c1.42-2.178 3.077-3.195 5.342-3.195 3.755 0 5.408 1.857 5.408 5.755v8.569h2.605v2.102h-8.176v-2.102h2.843v-8.569c0-2.422-1.115-3.649-3.35-3.649-2.666 0-4.566 1.894-4.566 5.053v7.165h2.874v2.102H67.09v-2.102m24.193-20.716h-2.975v3.16h2.975v-3.16ZM85.91 80.138h2.636V68.342h-2.635v-2.107h5.372v13.903h2.57v2.102H85.91v-2.102Zm6.524-11.796v-2.106h3.036v-3.41l2.737-1.08v4.49h4.8v2.106h-4.8v9.902c0 1.574.168 2.138 1.49 2.138 1.384 0 2.067-.84 2.067-2.844h2.023v.315c0 3.085-1.49 4.81-4.06 4.81-2.974 0-4.257-1.196-4.257-3.934V68.342h-3.036Zm26.766 8.916c-.705 3.551-3.24 5.409-7.435 5.409-4.866 0-7.771-3.263-7.771-8.427 0-5.018 3.108-8.422 7.837-8.422 4.967 0 7.805 3.258 7.805 9.129H106.89c.101 3.542 1.997 5.613 4.967 5.613 2.64 0 4.364-1.262 4.769-3.298h2.574m-2.464-4.43c-.405-3.227-2.133-4.907-4.901-4.907-2.772 0-4.632 1.79-4.866 4.906h9.767Zm10.715 9.83c-4.359 0-7.299-3.333-7.299-8.426 0-5.09 2.94-8.422 7.369-8.422 2.534 0 4.355 1.048 5.712 3.333v-7.618h-2.843v-2.107h5.58v20.716h2.57v2.102h-5.21v-3.053c-1.353 2.355-3.279 3.475-5.879 3.475Zm.74-14.569c-3.037 0-5.17 2.352-5.17 6.143 0 3.826 2.102 6.146 5.139 6.146 2.94 0 5.069-2.28 5.069-6.244 0-3.693-2.129-6.044-5.038-6.044Zm17.678 6.356h2.468c.137 3.684 1.962 5.755 5.272 5.755 2.939 0 4.834-1.755 4.834-3.928 0-1.934-1.383-2.81-3.852-3.725l-4.566-1.72c-2.873-1.053-4.222-2.702-4.222-5.44 0-3.72 2.772-6.355 6.928-6.355 2.195 0 3.954.737 5.576 2.355v-1.969h2.503v7.445h-2.503c-.066-3.471-2.028-5.471-5.205-5.471-2.636 0-4.324 1.608-4.324 3.644 0 1.476.948 2.422 2.975 3.16l5.544 2.036c2.808 1.053 4.126 2.849 4.126 5.688 0 4.107-2.737 6.636-7.369 6.636-2.57 0-4.496-.916-5.778-2.742v2.422h-2.402v-7.79"/><path d="M160.81 68.342v-2.106h3.041v-3.41l2.733-1.08v4.49h4.804v2.106h-4.804v9.902c0 1.574.167 2.138 1.489 2.138 1.384 0 2.063-.84 2.063-2.844h2.028v.315c0 3.085-1.486 4.81-4.055 4.81-2.975 0-4.258-1.196-4.258-3.934V68.342h-3.041Zm23.183 11.165c-1.212 2.133-2.869 3.155-5.236 3.155-3.759 0-5.884-1.964-5.884-5.022 0-3.373 2.667-5.093 7.978-5.093.709 0 1.723.035 3.014.07v-1.186c0-2.422-1.154-3.51-3.821-3.51-2.27 0-3.385.946-3.649 3.052h-2.913c.339-3.368 2.635-5.155 6.796-5.155 4.191 0 6.32 1.893 6.32 5.618v8.706h2.569v2.103h-5.174v-2.738Zm-2.706-4.85c-3.72 0-5.509.987-5.509 3.236 0 1.476 1.185 2.494 3.213 2.494 2.944 0 4.87-1.934 4.87-5.267v-.356a42.11 42.11 0 0 0-2.574-.106Zm6.289-6.315v-2.106h3.037v-3.41l2.737-1.08v4.49h4.8v2.106h-4.8v9.902c0 1.574.172 2.138 1.49 2.138 1.384 0 2.067-.84 2.067-2.844h2.027v.315c0 3.085-1.489 4.81-4.063 4.81-2.971 0-4.258-1.196-4.258-3.934V68.342h-3.037Zm26.767 8.916c-.706 3.551-3.24 5.409-7.436 5.409-4.866 0-7.774-3.263-7.774-8.427 0-5.018 3.111-8.422 7.836-8.422 4.976 0 7.81 3.258 7.81 9.129h-12.742c.093 3.542 1.988 5.613 4.967 5.613 2.636 0 4.355-1.262 4.765-3.298h2.574m-2.464-4.43c-.406-3.227-2.129-4.912-4.901-4.912-2.773 0-4.632 1.791-4.866 4.907h9.767v.004Zm3.988 3.898h2.2c.405 2.386 1.992 3.648 4.359 3.648 2.296 0 3.684-1.124 3.684-2.667 0-1.337-.881-1.938-3.014-2.249l-2.87-.426c-2.706-.422-4.156-1.93-4.156-4.21 0-2.91 2.296-5.017 5.88-5.017 2.098 0 3.618.698 4.632 2.209v-1.782h1.961v5.293h-1.899c-.164-2.244-1.856-3.435-4.121-3.435-2.398 0-3.72.84-3.72 2.422 0 1.089.674 1.755 2.093 1.969l2.706.382c3.579.529 5.241 1.898 5.241 4.773 0 2.911-2.204 5.022-5.849 5.022-2.195 0-3.821-.809-5.042-2.462v2.036h-2.093v-5.507M36.605 108.911l8.965 3.431c-1.384 6.267-3.698 10.845-6.916 13.743-3.226 2.893-7.192 4.337-11.904 4.337-5.924 0-10.723-2.302-14.403-6.897C8.116 118.213 6 111.049 6 102.027c0-9.525 2.129-16.983 6.39-22.37 3.703-4.675 8.679-7.013 14.933-7.013 5.09 0 9.348 1.756 12.777 5.254 2.442 2.484 4.231 6.173 5.368 11.067l-8.964 2.697c-.587-3.018-1.741-5.329-3.473-6.938-1.732-1.608-3.777-2.413-6.127-2.413-3.371 0-6.113 1.471-8.237 4.413-2.125 2.943-3.187 7.805-3.187 14.578 0 7.027 1.023 12.031 3.077 14.996 2.058 2.973 4.724 4.453 8.008 4.453 2.406 0 4.482-.942 6.24-2.835 1.755-1.889 3.024-4.889 3.8-9.005Zm33.765 9.147 9.476 1.555c-1.212 3.525-3.142 6.205-5.774 8.049-2.63 1.844-5.919 2.76-9.868 2.76-6.25 0-10.877-2.062-13.879-6.187-2.37-3.302-3.556-7.471-3.556-12.502 0-6.018 1.555-10.72 4.671-14.133 3.116-3.405 7.061-5.102 11.826-5.102 5.35 0 9.568 1.777 12.662 5.346 3.094 3.56 4.575 9.014 4.438 16.369H56.562c.07 2.858.833 5.076 2.296 6.662 1.463 1.583 3.288 2.383 5.47 2.383 1.485 0 2.728-.414 3.746-1.232 1.018-.817 1.776-2.146 2.296-3.968Zm.516-9.667c-.066-2.787-.776-4.902-2.12-6.351-1.353-1.449-2.988-2.174-4.919-2.174-2.067 0-3.777.769-5.121 2.298-1.349 1.529-2.014 3.605-1.992 6.227h14.152Zm47.045 21.093h-9.481v-18.426c0-3.898-.202-6.423-.608-7.565-.41-1.147-1.062-2.035-1.974-2.671-.913-.636-2.01-.956-3.293-.956-1.639 0-3.116.458-4.42 1.365-1.305.907-2.2 2.107-2.684 3.604-.48 1.498-.723 4.263-.723 8.294v16.355h-9.476V93.222h8.859v5.311c3.12-4.022 7.047-6.04 11.785-6.04 2.085 0 3.993.382 5.725 1.142 1.728.76 3.033 1.734 3.927 2.911a10.655 10.655 0 0 1 1.851 4.018c.349 1.498.52 3.64.52 6.436v22.484m3.729-10.182 9.582-1.449c.401 1.831 1.216 3.231 2.446 4.178 1.229.947 2.94 1.427 5.152 1.427 2.433 0 4.266-.463 5.487-1.378.829-.64 1.239-1.498 1.239-2.569 0-.733-.225-1.347-.675-1.822-.471-.463-1.533-.88-3.177-1.271-7.656-1.716-12.513-3.276-14.562-4.685-2.843-1.951-4.258-4.671-4.258-8.138 0-3.133 1.225-5.773 3.689-7.902 2.455-2.133 6.267-3.2 11.433-3.2 4.914 0 8.568.796 10.961 2.391 2.389 1.587 4.033 3.947 4.936 7.067l-8.964 1.662c-.384-1.409-1.111-2.493-2.178-3.24-1.071-.75-2.591-1.124-4.57-1.124-2.495 0-4.288.355-5.364 1.062-.718.507-1.08 1.155-1.08 1.951 0 .689.318 1.276.948 1.76.855.64 3.817 1.542 8.872 2.711 5.06 1.169 8.594 2.6 10.6 4.293 1.979 1.716 2.97 4.107 2.97 7.169 0 3.347-1.37 6.214-4.116 8.618-2.746 2.4-6.81 3.605-12.191 3.605-4.879 0-8.749-1-11.6-2.992-2.843-1.991-4.703-4.702-5.58-8.124Zm62.81 10.182v-5.417c-1.305 1.933-3.028 3.471-5.152 4.626-2.129 1.151-4.372 1.729-6.735 1.729-2.406 0-4.57-.533-6.483-1.604-1.917-1.076-3.297-2.582-4.152-4.529-.851-1.942-1.282-4.622-1.282-8.049V93.222h9.48v16.689c0 5.102.172 8.236.524 9.382.353 1.156.992 2.071 1.918 2.738.93.671 2.111 1.013 3.526 1.013 1.63 0 3.089-.453 4.376-1.355 1.291-.902 2.173-2.018 2.653-3.351.468-1.334.714-4.6.714-9.8V93.222h9.476v36.258h-8.863m12.601-10.178 9.586-1.449c.405 1.831 1.212 3.231 2.446 4.178 1.225.951 2.94 1.427 5.152 1.427 2.433 0 4.262-.463 5.488-1.378.828-.64 1.238-1.498 1.238-2.569 0-.733-.229-1.347-.674-1.822-.476-.463-1.53-.88-3.178-1.271-7.656-1.716-12.513-3.276-14.567-4.685-2.838-1.951-4.257-4.671-4.257-8.138 0-3.133 1.23-5.773 3.689-7.902 2.464-2.133 6.267-3.2 11.437-3.2 4.91 0 8.564.796 10.957 2.391 2.389 1.587 4.033 3.947 4.936 7.067l-8.964 1.662c-.384-1.409-1.111-2.493-2.178-3.24-1.066-.747-2.591-1.124-4.566-1.124-2.494 0-4.288.355-5.368 1.062-.718.507-1.08 1.155-1.08 1.951 0 .689.318 1.276.952 1.76.851.64 3.813 1.542 8.877 2.711 5.055 1.169 8.59 2.6 10.595 4.293 1.975 1.716 2.975 4.107 2.975 7.169 0 3.347-1.375 6.214-4.125 8.618-2.746 2.4-6.805 3.605-12.187 3.605-4.883 0-8.753-1-11.596-2.992-2.847-1.991-4.711-4.702-5.588-8.124ZM85.726 178.951v9.969H48.527c.401-3.765 1.6-7.329 3.61-10.698 2.01-3.373 5.976-7.844 11.904-13.418 4.773-4.502 7.7-7.555 8.78-9.16 1.454-2.213 2.181-4.4 2.181-6.569 0-2.386-.639-4.226-1.908-5.511-1.274-1.28-3.032-1.929-5.267-1.929-2.221 0-3.984.676-5.293 2.023-1.31 1.346-2.063 3.582-2.266 6.706l-10.613-1.066c.63-5.911 2.614-10.156 5.946-12.734 3.336-2.573 7.501-3.862 12.504-3.862 5.483 0 9.789 1.493 12.922 4.471 3.134 2.978 4.694 6.68 4.694 11.111 0 2.52-.45 4.92-1.34 7.196-.89 2.28-2.305 4.667-4.244 7.155-1.278 1.658-3.6 4.036-6.964 7.143-3.367 3.106-5.487 5.169-6.382 6.186-.89 1.018-1.613 2.009-2.164 2.983h21.099m19.533-46.24c5.395 0 9.613 1.942 12.649 5.817 3.623 4.587 5.435 12.2 5.435 22.836 0 10.609-1.825 18.231-5.474 22.871-3.015 3.827-7.22 5.738-12.61 5.738-5.421 0-9.793-2.098-13.112-6.294-3.319-4.191-4.976-11.671-4.976-22.431 0-10.555 1.825-18.155 5.47-22.795 3.019-3.827 7.224-5.742 12.618-5.742Zm0 8.937c-1.278 0-2.424.414-3.424 1.245-1.01.826-1.781 2.306-2.336 4.449-.728 2.773-1.089 7.449-1.089 14.017 0 6.569.322 11.08.983 13.543.648 2.457 1.472 4.093 2.464 4.906.991.823 2.128 1.223 3.407 1.223 1.282 0 2.424-.414 3.424-1.24 1.005-.827 1.781-2.312 2.336-4.449.727-2.751 1.089-7.409 1.089-13.983 0-6.573-.326-11.084-.983-13.546-.648-2.458-1.477-4.098-2.468-4.92a5.129 5.129 0 0 0-3.403-1.245Zm46.745 47.28h-10.613v-40.471c-3.878 3.68-8.449 6.391-13.703 8.16v-9.769c2.768-.915 5.779-2.644 9.027-5.2 3.239-2.551 5.474-5.529 6.681-8.933h8.613v56.213m24.412-56.217c5.395 0 9.613 1.942 12.654 5.817 3.618 4.587 5.434 12.2 5.434 22.836 0 10.609-1.829 18.231-5.474 22.871-3.019 3.827-7.223 5.738-12.614 5.738-5.416 0-9.789-2.098-13.107-6.294-3.319-4.191-4.976-11.671-4.976-22.431 0-10.555 1.816-18.155 5.465-22.795 3.019-3.827 7.224-5.742 12.618-5.742Zm0 8.937c-1.282 0-2.424.414-3.424 1.245-1.005.826-1.781 2.306-2.332 4.449-.727 2.773-1.093 7.449-1.093 14.017 0 6.569.322 11.08.979 13.543.652 2.457 1.476 4.093 2.468 4.906a5.175 5.175 0 0 0 3.407 1.223c1.282 0 2.424-.414 3.429-1.24 1-.827 1.776-2.312 2.327-4.449.727-2.751 1.093-7.409 1.093-13.983 0-6.573-.326-11.084-.979-13.542-.652-2.458-1.476-4.098-2.468-4.92-.992-.835-2.124-1.249-3.407-1.249Zm58.733-69.515V66.88h-1.948v-.702h4.677v.702h-1.944v5.249h-.785Zm3.218 0v-5.951h1.163l1.406 4.209c.128.395.23.689.282.884.067-.218.177-.538.322-.955l1.424-4.143H244v5.951h-.745v-4.977l-1.736 4.977h-.688l-1.719-5.07v5.07h-.74"/></g><defs><clipPath id="a"><path fill="#fff" d="M6 59h238v131H6z"/></clipPath></defs></svg>