<svg xmlns="http://www.w3.org/2000/svg" xml:space="preserve" width="720" height="393" viewBox="0 0 54 29.459"><path fill="#AB0635" d="M8.806.617v-.53h2.086v.53h-.76v2.574c0 1.074.354 1.611 1.273 1.611.89 0 1.304-.545 1.304-1.611V.617h-.744v-.53h2.048v.53h-.629v2.764c0 1.217-.752 1.951-1.979 1.951-1.25 0-1.948-.703-1.948-1.951V.617h-.651M13.859 4.748h.583V2.094h-.583V1.62h1.181v.624c.322-.49.698-.719 1.212-.719.852 0 1.227.418 1.227 1.295v1.928h.591v.473h-1.855v-.473h.645V2.82c0-.545-.253-.821-.76-.821-.605 0-1.036.426-1.036 1.137v1.612h.652v.473h-1.855v-.473M18.675.087h.675v.711h-.675zM18.131 4.748h.598V2.094h-.598V1.62h1.219v3.128h.583v.473h-1.802zM19.611 2.094V1.62h.689V.853l.621-.243v1.01h1.089v.474h-1.089v2.228c0 .354.038.481.338.481.314 0 .469-.189.469-.64h.459v.071c0 .694-.338 1.082-.921 1.082-.675 0-.966-.269-.966-.885V2.094h-.689M25.684 4.1c-.16.799-.735 1.217-1.687 1.217-1.104 0-1.763-.734-1.763-1.896 0-1.129.705-1.895 1.778-1.895 1.127 0 1.771.733 1.771 2.054h-2.892c.023.797.453 1.263 1.127 1.263.599 0 .99-.284 1.082-.742h.584m-.559-.997C25.033 2.378 24.641 2 24.013 2c-.629 0-1.051.403-1.104 1.104h2.216zM27.556 5.316c-.989 0-1.656-.75-1.656-1.896 0-1.145.667-1.895 1.672-1.895.575 0 .988.236 1.296.75V.561h-.645V.087h1.266v4.661h.583v.473H28.89v-.687c-.307.53-.744.782-1.334.782m.168-3.278c-.689 0-1.173.529-1.173 1.382 0 .861.477 1.383 1.166 1.383.667 0 1.15-.513 1.15-1.405 0-.831-.483-1.36-1.143-1.36M31.735 3.468h.56c.031.829.445 1.295 1.196 1.295.667 0 1.097-.395 1.097-.884 0-.435-.314-.632-.874-.838l-1.036-.387c-.652-.237-.958-.608-.958-1.224 0-.837.629-1.43 1.572-1.43.498 0 .897.166 1.265.53V.087h.568v1.675h-.568c-.015-.781-.46-1.231-1.181-1.231-.598 0-.981.362-.981.82 0 .332.215.545.675.711l1.258.458c.637.237.936.641.936 1.28 0 .924-.621 1.493-1.672 1.493-.583 0-1.02-.206-1.311-.617v.545h-.545V3.468"/><path fill="#AB0635" d="M35.125 2.094V1.62h.69V.853l.62-.243v1.01h1.09v.474h-1.09v2.228c0 .354.038.481.338.481.314 0 .468-.189.468-.64h.46v.071c0 .694-.337 1.082-.92 1.082-.675 0-.966-.269-.966-.885V2.094h-.69M40.385 4.606c-.275.48-.651.71-1.188.71-.853 0-1.335-.442-1.335-1.13 0-.759.605-1.146 1.81-1.146.161 0 .391.008.684.016v-.267c0-.545-.262-.79-.867-.79-.515 0-.768.213-.828.687H38c.077-.758.598-1.16 1.542-1.16.951 0 1.434.426 1.434 1.264v1.959h.583v.473h-1.174v-.616m-.614-1.091c-.844 0-1.25.222-1.25.728 0 .332.269.561.729.561.668 0 1.105-.435 1.105-1.185v-.08a9.638 9.638 0 0 0-.584-.024M41.198 2.094V1.62h.689V.853l.621-.243v1.01h1.089v.474h-1.089v2.228c0 .354.039.481.338.481.314 0 .469-.189.469-.64h.46v.071c0 .694-.338 1.082-.922 1.082-.674 0-.966-.269-.966-.885V2.094h-.689M47.271 4.1c-.16.799-.735 1.217-1.687 1.217-1.104 0-1.764-.734-1.764-1.896 0-1.129.706-1.895 1.778-1.895 1.129 0 1.772.733 1.772 2.054h-2.891c.021.797.451 1.263 1.127 1.263.598 0 .988-.284 1.081-.742h.584m-.559-.997c-.092-.726-.483-1.105-1.112-1.105s-1.051.403-1.104 1.104h2.216zM47.617 3.981h.499c.092.537.452.821.989.821.521 0 .836-.253.836-.6 0-.301-.2-.436-.684-.506l-.651-.096c-.614-.095-.943-.434-.943-.947 0-.655.521-1.129 1.334-1.129.476 0 .821.157 1.051.497V1.62h.445v1.191h-.431c-.037-.505-.421-.773-.935-.773-.544 0-.844.189-.844.545 0 .245.153.395.475.443l.614.086c.812.119 1.189.427 1.189 1.074 0 .655-.5 1.13-1.327 1.13-.498 0-.867-.182-1.144-.554v.458h-.475V3.981M6.944 11.222l2.034.772c-.314 1.41-.839 2.44-1.569 3.092-.732.651-1.632.976-2.701.976-1.344 0-2.433-.518-3.268-1.552C.48 13.315 0 11.703 0 9.673 0 7.53.483 5.852 1.45 4.64c.84-1.052 1.969-1.578 3.388-1.578 1.155 0 2.121.395 2.899 1.182.554.559.96 1.389 1.218 2.49l-2.034.607c-.133-.679-.395-1.199-.788-1.561a1.985 1.985 0 0 0-1.39-.543c-.765 0-1.387.331-1.869.993s-.723 1.756-.723 3.28c0 1.581.232 2.707.698 3.374.467.669 1.072 1.002 1.817 1.002.546 0 1.017-.212 1.416-.638.398-.425.686-1.1.862-2.026M14.605 13.28l2.15.35c-.275.793-.713 1.396-1.31 1.811-.597.415-1.343.621-2.239.621-1.418 0-2.468-.464-3.149-1.392-.538-.743-.807-1.681-.807-2.813 0-1.354.353-2.412 1.06-3.18.707-.766 1.602-1.148 2.683-1.148 1.214 0 2.171.4 2.873 1.203.702.801 1.038 2.028 1.007 3.683h-5.401c.016.643.189 1.142.521 1.499a1.63 1.63 0 0 0 1.241.536c.337 0 .619-.093.85-.277s.403-.483.521-.893m.117-2.175c-.015-.627-.176-1.103-.481-1.429a1.475 1.475 0 0 0-1.116-.489c-.469 0-.857.173-1.162.517-.306.344-.457.811-.452 1.401h3.211zM25.396 15.851h-2.151v-4.146c0-.877-.046-1.445-.138-1.702-.093-.258-.241-.458-.448-.601s-.456-.215-.747-.215c-.372 0-.707.103-1.003.307s-.499.474-.609.811c-.109.337-.164.959-.164 1.866v3.68h-2.15V7.692h2.01v1.195c.708-.905 1.599-1.359 2.674-1.359.473 0 .906.086 1.299.257.392.171.688.39.891.655.2.266.341.566.42.904.079.337.118.819.118 1.448v5.059M26.244 13.56l2.174-.326c.091.412.276.727.555.94s.667.321 1.169.321c.552 0 .968-.104 1.245-.31a.69.69 0 0 0 .281-.578.572.572 0 0 0-.153-.41c-.107-.104-.348-.198-.721-.286-1.737-.386-2.839-.737-3.304-1.054-.645-.439-.966-1.051-.966-1.831 0-.705.278-1.299.837-1.778.557-.48 1.422-.72 2.594-.72 1.115 0 1.944.179 2.487.538.542.357.915.888 1.12 1.59l-2.034.374a1.259 1.259 0 0 0-.494-.729c-.243-.169-.588-.253-1.037-.253-.566 0-.973.08-1.217.239a.516.516 0 0 0-.245.439c0 .155.072.287.215.396.194.144.866.347 2.013.61 1.148.263 1.95.585 2.405.966.449.386.674.924.674 1.613 0 .753-.311 1.398-.934 1.939-.623.54-1.545.811-2.766.811-1.107 0-1.985-.225-2.632-.673a3.1 3.1 0 0 1-1.266-1.828M40.495 15.851v-1.219a3.258 3.258 0 0 1-1.169 1.041 3.188 3.188 0 0 1-1.528.389 2.98 2.98 0 0 1-1.471-.361 2.128 2.128 0 0 1-.942-1.019c-.193-.437-.291-1.04-.291-1.811V7.692h2.151v3.755c0 1.148.039 1.853.119 2.111.08.26.225.466.435.616.211.151.479.228.8.228.37 0 .701-.102.993-.305.293-.203.493-.454.602-.754.106-.3.162-1.035.162-2.205V7.692h2.15v8.158h-2.011M43.354 13.56l2.175-.326c.092.412.275.727.555.94.278.214.667.321 1.169.321.552 0 .967-.104 1.245-.31a.69.69 0 0 0 .281-.578.577.577 0 0 0-.153-.41c-.108-.104-.347-.198-.721-.286-1.737-.386-2.839-.737-3.305-1.054-.644-.439-.966-1.051-.966-1.831 0-.705.279-1.299.837-1.778.559-.48 1.422-.72 2.595-.72 1.114 0 1.943.179 2.486.538.542.357.915.888 1.12 1.59l-2.034.374c-.087-.317-.252-.561-.494-.729s-.588-.253-1.036-.253c-.566 0-.973.08-1.218.239a.516.516 0 0 0-.245.439c0 .155.072.287.216.396.193.144.865.347 2.014.61 1.147.263 1.949.585 2.404.966.448.386.675.924.675 1.613 0 .753-.312 1.398-.936 1.939-.623.54-1.544.811-2.765.811-1.108 0-1.986-.225-2.631-.673a3.098 3.098 0 0 1-1.268-1.828M18.089 26.981v2.243h-8.44a5.828 5.828 0 0 1 .819-2.407c.456-.759 1.356-1.765 2.701-3.019 1.083-1.013 1.747-1.7 1.992-2.061.33-.498.495-.99.495-1.478 0-.537-.145-.951-.433-1.24-.289-.288-.688-.434-1.195-.434-.504 0-.904.152-1.201.455s-.468.806-.514 1.509l-2.408-.24c.143-1.33.593-2.285 1.349-2.865.757-.579 1.702-.869 2.837-.869 1.244 0 2.221.336 2.932 1.006s1.065 1.503 1.065 2.5c0 .567-.102 1.107-.304 1.619-.202.513-.523 1.05-.963 1.61-.29.373-.817.908-1.58 1.607-.764.699-1.245 1.163-1.448 1.392a4.099 4.099 0 0 0-.491.671h4.787M22.521 16.576c1.224 0 2.181.437 2.87 1.309.822 1.032 1.233 2.745 1.233 5.138 0 2.387-.414 4.102-1.242 5.146-.684.861-1.638 1.291-2.861 1.291-1.23 0-2.222-.472-2.975-1.416-.753-.943-1.129-2.626-1.129-5.047 0-2.375.414-4.085 1.241-5.129.685-.861 1.639-1.292 2.863-1.292m0 2.011c-.29 0-.55.093-.777.28-.229.186-.404.519-.53 1.001-.165.624-.247 1.676-.247 3.154s.073 2.493.223 3.047c.147.553.334.921.559 1.104.225.185.483.275.773.275.291 0 .55-.093.777-.279.228-.186.404-.52.53-1.001.165-.619.247-1.667.247-3.146s-.074-2.494-.223-3.048c-.147-.553-.335-.922-.56-1.107a1.169 1.169 0 0 0-.772-.28M33.127 29.225h-2.408v-9.106a8.314 8.314 0 0 1-3.109 1.836v-2.198c.628-.206 1.311-.595 2.048-1.17.735-.574 1.242-1.244 1.516-2.01h1.954v12.648M38.667 16.576c1.224 0 2.181.437 2.871 1.309.821 1.032 1.233 2.745 1.233 5.138 0 2.387-.415 4.102-1.242 5.146-.685.861-1.639 1.291-2.862 1.291-1.229 0-2.221-.472-2.974-1.416-.753-.943-1.129-2.626-1.129-5.047 0-2.375.412-4.085 1.24-5.129.685-.861 1.639-1.292 2.863-1.292m0 2.011c-.291 0-.55.093-.777.28-.228.186-.404.519-.529 1.001-.165.624-.248 1.676-.248 3.154s.073 2.493.222 3.047c.148.553.335.921.56 1.104.226.185.482.275.773.275s.55-.093.778-.279c.227-.186.403-.52.528-1.001.165-.619.248-1.667.248-3.146s-.074-2.494-.222-3.047c-.148-.553-.335-.922-.56-1.107a1.17 1.17 0 0 0-.773-.281M51.993 2.946V1.765h-.442v-.158h1.061v.158h-.441v1.181zM52.723 2.946V1.607h.264l.319.947c.029.089.052.155.064.199a6.5 6.5 0 0 1 .073-.215l.323-.932H54v1.339h-.169v-1.12l-.394 1.12h-.156l-.39-1.141v1.141h-.168"/></svg>