<svg xmlns="http://www.w3.org/2000/svg" width="256" height="256" preserveAspectRatio="xMidYMid"><path fill="#F9AF4A" d="M0 128c0 70.4 57.6 128 128 128s128-57.6 128-128S198.4 0 128 0 0 57.6 0 128Z"/><path fill="#444" d="m191.36 130.56-39.04 18.56-.64 6.4 30.08-8.96-14.72 17.92-1.28 5.76-18.56 7.68-1.92 5.12 8.32-3.2-21.76 24.32-1.92 19.84v18.56h-3.84v-17.92l-1.28-20.48-21.76-24.32 8.32 3.2-1.92-5.12-18.56-7.68-1.28-5.76-14.72-17.92 30.08 8.96-.64-6.4-39.04-18.56 8.96-14.08-18.56-24.96 51.2 23.04 1.28-7.04-14.72-23.04 1.92-3.84-7.04-26.88 26.88 26.88 1.92-14.72-8.32-21.76 10.88 3.2 9.6-26.88 9.6 26.88 10.88-3.2-8.32 21.76 1.92 14.72 26.88-26.88-7.04 26.88 1.92 3.84-14.72 23.04 1.28 7.04 51.2-23.04-18.56 24.96 7.04 14.08Z"/></svg>