<svg width="924" height="222" viewBox="0 0 924 222" fill="none" xmlns="http://www.w3.org/2000/svg">
<path d="M535.847 118.117C535.847 96.2591 526.49 76.9472 494.847 76.9472C478.612 76.9472 465.715 81.5741 458.723 85.6245L463.848 103.16C470.285 99.1215 480.558 95.7951 490.253 95.7951C506.273 95.7726 508.898 104.835 508.898 110.661V112.064C473.928 112.008 451.821 124.09 451.821 148.697C451.821 163.732 463.045 177.829 482.662 177.829C494.632 177.829 504.746 172.998 510.787 165.373H511.375C511.375 165.373 515.358 182.038 537.385 175.668C536.265 168.688 535.847 161.334 535.847 152.396V118.117ZM509.758 141.196C509.758 142.961 509.611 144.794 509.09 146.366C507.076 153.098 500.13 158.732 491.486 158.732C484.19 158.732 478.465 154.602 478.465 145.947C478.465 132.711 493.081 129.068 509.758 129.159M0.461426 47.2074C0.461426 47.2074 23.3032 140.656 26.935 155.794C31.211 173.488 38.8706 180.027 60.9769 175.672L75.2544 117.724C78.8633 103.367 81.3183 93.0723 83.6491 78.4438H84.0447C85.6626 93.2193 87.9935 103.367 90.946 117.769C90.946 117.769 96.7723 144.096 99.7936 157.887C102.735 171.678 111.016 180.378 132.704 175.672L166.69 47.2074H139.254L127.591 102.779C124.502 118.878 121.696 131.56 119.512 146.313H119.117C117.148 131.719 114.648 119.557 111.435 103.786L99.3521 47.2074H70.7291L57.8316 102.338C54.1547 119.172 50.7157 132.669 48.5544 146.958H48.1814C45.9525 133.551 42.932 116.48 39.7302 100.279C39.7302 100.279 32.0709 60.8063 29.367 47.2074M243.147 118.117C243.147 96.2591 233.767 76.9472 202.124 76.9472C185.935 76.9472 173.014 81.5741 166.023 85.6245L171.148 103.16C177.562 99.1215 187.824 95.7951 197.553 95.7951C213.573 95.7726 216.198 104.835 216.198 110.661V112.064C181.228 112.008 159.099 124.09 159.099 148.697C159.099 163.732 170.367 177.829 189.894 177.829C201.977 177.829 212.001 172.998 218.042 165.373H218.653C218.653 165.373 222.657 182.038 244.662 175.668C243.531 168.688 243.147 161.334 243.147 152.396V118.117ZM217.035 141.196C217.035 142.961 216.888 144.794 216.39 146.366C214.353 153.098 207.408 158.732 198.741 158.732C191.489 158.732 185.742 154.602 185.742 145.947C185.742 132.711 200.359 129.068 217.035 129.159M283.494 175.626V47.207H257.383V175.626H283.494ZM615.986 47.2074V141.958C615.986 155.036 618.44 164.154 623.724 169.744C628.363 174.642 635.954 177.832 644.993 177.832C652.755 177.832 660.345 176.339 663.932 175.038L663.615 154.64C660.934 155.262 657.868 155.794 653.659 155.794C644.744 155.794 641.803 150.148 641.803 138.405V102.134H664.543V77.5949H641.803V47.207M548.497 79.1757V175.668H575.49V126.251C575.49 123.592 575.66 121.296 576.079 119.169C578.092 108.749 586 102.153 597.393 102.153C600.572 102.153 602.733 102.504 605.132 102.877V77.5807C603.118 77.2187 601.749 77.0262 599.271 77.0262C589.168 77.0262 577.719 83.441 572.888 97.4131H572.221V79.1757M298.657 79.1757V175.668H324.96V119.033C324.96 116.374 325.255 113.659 326.194 111.204C328.332 105.468 333.638 98.8271 342.157 98.8271C352.746 98.8271 357.747 107.765 357.747 120.662V175.668H383.983V118.354C383.983 115.854 384.334 112.788 385.069 110.571C387.173 104.066 392.92 98.8271 400.863 98.8271C411.565 98.8271 416.747 107.573 416.747 122.778V175.668H442.96V118.773C442.96 88.8828 427.754 77.0262 410.49 77.0262C402.899 77.0262 396.858 78.8931 391.427 82.2416C386.834 85.0589 382.807 89.0298 379.197 94.2227H378.801C374.649 83.837 364.897 77.0262 352.158 77.0262C335.822 77.0262 328.4 85.2739 324.033 92.2428H323.637V79.1757" fill="#0071CE"/>
<path d="M805.812 74.8452C810.971 74.8452 815.315 72.1523 815.88 68.6904L820.994 10.7658C820.994 5.02961 814.24 0.334717 805.812 0.334717C797.338 0.334717 790.629 5.02961 790.629 10.7658L795.788 68.6904C796.331 72.1523 800.652 74.8452 805.812 74.8452ZM774.436 92.9703C776.993 88.4449 776.846 83.4216 774.085 81.1817L726.342 47.7958C721.376 44.8994 713.943 48.3503 709.689 55.6586C705.446 62.9558 706.306 71.1466 711.171 73.9864L764.027 98.4911C767.41 99.7581 771.833 97.4052 774.436 92.9249M837.181 92.9229C839.884 97.4028 844.308 99.7558 847.6 98.5567L900.456 73.984C905.367 71.0877 906.102 62.976 901.95 55.6787C897.707 48.3704 890.229 44.9425 885.274 47.782L837.52 81.1343C834.872 83.4082 834.68 88.454 837.237 92.9679M805.812 147.2C810.971 147.2 815.315 149.893 815.88 153.355L820.994 211.28C820.994 217.015 814.24 221.665 805.812 221.665C797.338 221.665 790.629 217.015 790.629 211.28L795.788 153.355C796.331 149.893 800.652 147.2 805.812 147.2ZM837.181 129.126C839.884 124.634 844.308 122.236 847.6 123.537L900.456 148.065C905.367 150.904 906.102 159.084 901.95 166.392C897.707 173.644 890.229 177.095 885.274 174.255L837.52 140.858C834.872 138.606 834.68 133.583 837.237 129.126M774.436 129.076C776.993 133.59 776.846 138.602 774.085 140.865L726.342 174.205C721.376 177.101 713.943 173.639 709.689 166.388C705.446 159.09 706.306 150.9 711.171 148.06L764.027 123.533C767.41 122.243 771.833 124.619 774.436 129.076ZM915.924 169.172H916.581C917.474 169.172 917.836 169.455 917.938 170.168C918.13 170.96 918.232 171.491 918.424 171.718H920.122C919.975 171.548 919.782 171.118 919.68 170.122C919.487 169.262 919.046 168.776 918.424 168.606V168.448C919.284 168.255 919.782 167.678 919.782 166.966C919.782 166.321 919.487 165.857 919.194 165.563C918.628 165.291 918.085 165.077 916.886 165.077C915.823 165.077 915.041 165.167 914.419 165.314V171.718H915.924V169.172ZM915.969 166.253L916.739 166.151C917.644 166.151 918.13 166.57 918.13 167.158C918.13 167.814 917.474 168.12 916.637 168.12H915.969V166.253ZM916.931 161.909C913.22 161.909 910.279 164.805 910.279 168.357C910.279 172 913.221 174.897 916.931 174.897C920.687 174.897 923.538 172 923.538 168.357C923.538 164.805 920.687 161.909 916.931 161.909ZM916.931 163.21C919.782 163.21 921.898 165.518 921.898 168.357C921.898 171.22 919.782 173.596 916.931 173.55C914.08 173.55 911.919 171.22 911.919 168.357C911.919 165.518 914.08 163.21 916.886 163.21" fill="#FCB61A"/>
</svg>
