<svg width="250" height="250" viewBox="0 0 250 250" fill="none" xmlns="http://www.w3.org/2000/svg">
<path d="M125 199C165.869 199 199 165.869 199 125C199 84.1309 165.869 51 125 51C84.1309 51 51 84.1309 51 125C51 165.869 84.1309 199 125 199Z" fill="#4353FF"/>
<path d="M146.738 116.212L140.031 137.349C140.031 135.73 135.406 100.672 135.406 100.672C124.769 100.672 119.126 108.211 116.166 116.212L107.98 137.395C107.98 135.869 106.824 116.397 106.824 116.397C106.429 112.182 104.502 108.258 101.408 105.369C98.3138 102.479 94.2674 100.825 90.0352 100.719L98.7302 153.814C109.83 153.814 115.843 146.275 118.941 138.274L125.879 120.236C125.879 120.976 130.504 153.814 130.504 153.814C135.043 153.808 139.462 152.357 143.121 149.671C146.78 146.985 149.488 143.204 150.854 138.875L166.579 100.672C155.479 100.672 149.651 108.211 146.691 116.212H146.738Z" fill="white"/>
</svg>
