<svg width="250" height="250" viewBox="0 0 250 250" fill="none" xmlns="http://www.w3.org/2000/svg">
<g clip-path="url(#clip0_2_7363)">
<path fill-rule="evenodd" clip-rule="evenodd" d="M177.745 86H72.0509C65.3621 86 59.9473 91.5052 60.0004 98.1863V138.807C60.0004 145.542 65.4151 150.994 72.104 150.994H122.164L145.044 163.821L139.842 150.994H177.745C184.434 150.994 189.848 145.542 189.848 138.807V98.1863C189.848 91.4518 184.434 86 177.745 86ZM69.8215 95.407C68.3351 95.5139 67.2203 96.0484 66.4771 97.0639C65.7339 98.026 65.4685 99.2553 65.6277 100.645C68.7598 120.688 71.6795 134.211 74.3869 141.213C75.4486 143.778 76.6696 145.008 78.1029 144.901C80.3325 144.74 82.9868 141.64 86.1188 135.601C87.7645 132.18 90.3126 127.049 93.7632 120.207C96.6297 130.309 100.558 137.899 105.495 142.976C106.876 144.42 108.309 145.061 109.689 144.954C110.91 144.847 111.865 144.206 112.502 143.03C113.033 142.014 113.246 140.838 113.139 139.502C112.821 134.638 113.299 127.85 114.626 119.138C116.006 110.159 117.705 103.692 119.775 99.8432C120.2 99.0415 120.359 98.2397 120.306 97.2777C120.2 96.0483 119.669 95.0328 118.661 94.2311C117.652 93.4294 116.537 93.0553 115.316 93.1621C113.777 93.269 112.609 94.0173 111.812 95.5139C108.521 101.554 106.185 111.335 104.805 124.911C102.788 119.78 101.089 113.74 99.7618 106.631C99.178 103.478 97.7448 101.981 95.4088 102.142C93.8163 102.248 92.4892 103.317 91.4274 105.348L79.8016 127.637C77.8905 119.887 76.0856 110.426 74.44 99.2553C74.0684 96.476 72.5289 95.1932 69.8215 95.407ZM172.118 99.2555C175.887 100.057 178.701 102.088 180.612 105.456C182.31 108.342 183.16 111.816 183.16 115.985C183.16 121.49 181.78 126.514 179.019 131.111C175.834 136.456 171.693 139.128 166.544 139.128C165.642 139.128 164.686 139.021 163.677 138.807C159.908 138.006 157.095 135.975 155.183 132.608C153.485 129.668 152.635 126.14 152.635 122.025C152.635 116.519 154.016 111.495 156.776 106.952C160.014 101.607 164.155 98.9348 169.251 98.9348C170.154 98.9348 171.109 99.0417 172.118 99.2555ZM169.888 128.171C171.853 126.407 173.18 123.788 173.923 120.261C174.135 119.032 174.294 117.695 174.294 116.306C174.294 114.756 173.976 113.099 173.339 111.442C172.543 109.357 171.481 108.235 170.207 107.968C168.296 107.593 166.438 108.662 164.686 111.281C163.253 113.313 162.35 115.45 161.872 117.642C161.607 118.871 161.501 120.208 161.501 121.544C161.501 123.094 161.819 124.751 162.456 126.407C163.253 128.492 164.314 129.614 165.588 129.882C166.915 130.149 168.349 129.561 169.888 128.171ZM147.327 105.456C145.415 102.088 142.549 100.057 138.833 99.2555C137.824 99.0417 136.869 98.9348 135.966 98.9348C130.87 98.9348 126.73 101.607 123.491 106.952C120.731 111.495 119.351 116.519 119.351 122.025C119.351 126.14 120.2 129.668 121.898 132.608C123.81 135.975 126.623 138.006 130.392 138.807C131.401 139.021 132.356 139.128 133.259 139.128C138.408 139.128 142.549 136.456 145.734 131.111C148.495 126.514 149.875 121.49 149.875 115.985C149.875 111.816 149.025 108.342 147.327 105.456ZM140.638 120.261C139.895 123.788 138.567 126.407 136.603 128.171C135.064 129.561 133.631 130.149 132.303 129.882C131.029 129.614 129.967 128.492 129.171 126.407C128.534 124.751 128.216 123.094 128.216 121.544C128.216 120.208 128.322 118.871 128.587 117.642C129.065 115.45 129.967 113.313 131.401 111.281C133.153 108.662 135.011 107.593 136.922 107.968C138.196 108.235 139.258 109.357 140.054 111.442C140.691 113.099 141.01 114.756 141.01 116.306C141.01 117.695 140.903 119.032 140.638 120.261Z" fill="#7F54B3"/>
</g>
<defs>
<clipPath id="clip0_2_7363">
<rect width="130" height="78" fill="white" transform="translate(60 86)"/>
</clipPath>
</defs>
</svg>
