<svg xmlns="http://www.w3.org/2000/svg" width="250" height="250" fill="none"><g clip-path="url(#a)"><path fill="#7F54B3" fill-rule="evenodd" d="M222.375 53H27.248C14.899 53 4.903 63.163 5 75.498v74.993c0 12.432 9.996 22.497 22.345 22.497h92.418l42.24 23.682-9.604-23.682h69.975c12.349 0 22.345-10.065 22.345-22.497V75.498c0-12.433-9.996-22.498-22.345-22.498ZM23.132 70.367c-2.744.197-4.802 1.184-6.174 3.059-1.372 1.776-1.862 4.045-1.568 6.61 5.782 37.004 11.172 61.969 16.17 74.895 1.96 4.736 4.215 7.006 6.86 6.809 4.117-.296 9.017-6.019 14.8-17.17 3.038-6.315 7.742-15.788 14.112-28.418 5.292 18.649 12.544 32.661 21.66 42.035 2.547 2.664 5.194 3.849 7.741 3.651 2.255-.197 4.018-1.381 5.195-3.552.98-1.875 1.372-4.046 1.176-6.513-.588-8.979.294-21.511 2.744-37.595 2.548-16.577 5.684-28.517 9.506-35.621.784-1.48 1.078-2.96.98-4.737-.196-2.27-1.176-4.144-3.038-5.624-1.862-1.48-3.92-2.17-6.174-1.974-2.842.198-4.998 1.58-6.468 4.342-6.076 11.15-10.389 29.208-12.937 54.271-3.724-9.473-6.86-20.623-9.31-33.747-1.078-5.821-3.724-8.584-8.037-8.288-2.94.197-5.39 2.17-7.35 5.92l-21.463 41.148c-3.528-14.308-6.86-31.774-9.899-52.397-.686-5.13-3.528-7.499-8.526-7.104Zm188.855 7.105c6.958 1.48 12.153 5.23 15.681 11.446 3.136 5.328 4.704 11.742 4.704 19.439 0 10.163-2.548 19.439-7.645 27.925-5.88 9.867-13.524 14.801-23.031 14.801-1.665 0-3.43-.198-5.292-.592-6.958-1.48-12.152-5.229-15.681-11.446-3.136-5.427-4.704-11.94-4.704-19.538 0-10.163 2.548-19.439 7.644-27.826 5.979-9.868 13.623-14.801 23.032-14.801 1.666 0 3.43.197 5.292.592Zm-4.116 53.382c3.626-3.256 6.076-8.091 7.448-14.603.392-2.27.686-4.737.686-7.302 0-2.862-.588-5.921-1.764-8.98-1.47-3.848-3.43-5.92-5.783-6.413-3.527-.691-6.958 1.282-10.192 6.118-2.646 3.749-4.312 7.696-5.194 11.742-.49 2.269-.686 4.736-.686 7.203 0 2.862.588 5.92 1.764 8.979 1.47 3.849 3.43 5.921 5.782 6.414 2.45.493 5.096-.592 7.939-3.158Zm-41.652-41.936c-3.529-6.217-8.821-9.966-15.681-11.446-1.863-.395-3.626-.592-5.293-.592-9.408 0-17.052 4.933-23.03 14.8-5.097 8.388-7.645 17.664-7.645 27.827 0 7.598 1.568 14.111 4.704 19.538 3.529 6.217 8.723 9.966 15.681 11.446 1.862.394 3.626.592 5.293.592 9.506 0 17.15-4.934 23.03-14.801 5.097-8.486 7.645-17.762 7.645-27.925 0-7.697-1.569-14.11-4.704-19.44ZM153.87 116.25c-1.372 6.512-3.823 11.347-7.449 14.603-2.842 2.566-5.488 3.651-7.938 3.158-2.352-.493-4.312-2.565-5.782-6.414-1.176-3.059-1.764-6.117-1.764-8.979 0-2.467.196-4.934.686-7.203.882-4.046 2.548-7.993 5.194-11.742 3.234-4.836 6.665-6.81 10.192-6.118 2.353.493 4.313 2.565 5.783 6.413 1.176 3.059 1.764 6.118 1.764 8.98 0 2.565-.196 5.032-.686 7.302Z" clip-rule="evenodd"/></g><defs><clipPath id="a"><path fill="#fff" d="M5 53h240v144H5z"/></clipPath></defs></svg>