<?xml version="1.0" encoding="UTF-8" standalone="no"?>
<svg
   version="1.0"
   width="379.43271pt"
   height="204.95518pt"
   viewBox="0 0 379.43271 204.95518"
   preserveAspectRatio="xMidYMid"
   id="svg426"
   sodipodi:docname="workable.svg"
   inkscape:version="1.2.1 (9c6d41e410, 2022-07-14, custom)"
   xmlns:inkscape="http://www.inkscape.org/namespaces/inkscape"
   xmlns:sodipodi="http://sodipodi.sourceforge.net/DTD/sodipodi-0.dtd"
   xmlns="http://www.w3.org/2000/svg"
   xmlns:svg="http://www.w3.org/2000/svg">
  <defs
     id="defs430" />
  <sodipodi:namedview
     id="namedview428"
     pagecolor="#ffffff"
     bordercolor="#666666"
     borderopacity="1.0"
     inkscape:showpageshadow="2"
     inkscape:pageopacity="0.0"
     inkscape:pagecheckerboard="0"
     inkscape:deskcolor="#d1d1d1"
     inkscape:document-units="pt"
     showgrid="false"
     inkscape:zoom="1.5043945"
     inkscape:cx="253.25803"
     inkscape:cy="134.93801"
     inkscape:window-width="3840"
     inkscape:window-height="2083"
     inkscape:window-x="0"
     inkscape:window-y="40"
     inkscape:window-maximized="1"
     inkscape:current-layer="svg426" />
  <g
     transform="matrix(0.1,0,0,-0.1,-66,357.65084)"
     fill="#000000"
     stroke="none"
     id="g424">
    <path
       d="m 2578,3570 c -287,-52 -467,-260 -468,-538 0,-80 21,-194 52,-287 45,-131 185,-378 281,-492 l 34,-42 35,37 c 53,56 94,113 118,162 l 22,45 -40,60 c -58,88 -87,143 -118,226 -24,63 -28,90 -28,179 -1,90 2,111 21,146 86,161 302,166 382,9 37,-70 41,-183 12,-291 -83,-305 -372,-664 -647,-802 -242,-122 -505,-74 -700,130 -221,229 -360,676 -410,1321 l -7,87 H 889 660 v -77 c 1,-322 82,-732 207,-1038 164,-404 379,-672 638,-801 127,-62 196,-78 340,-77 137,1 238,25 381,92 206,97 459,304 624,511 121,152 262,395 330,564 115,290 87,546 -78,713 -69,70 -124,104 -225,138 -84,28 -221,40 -299,25 z"
       id="path420" />
    <path
       d="m 4121,2900 c -7,-44 -25,-133 -41,-197 -145,-594 -509,-873 -907,-697 -70,31 -75,30 -96,-6 -10,-16 -53,-62 -97,-102 -53,-49 -76,-76 -70,-83 18,-21 185,-95 265,-116 123,-34 309,-31 428,4 377,115 676,469 801,947 29,112 59,302 48,311 -4,4 -77,9 -163,13 l -157,6 z"
       id="path422" />
  </g>
</svg>
