<svg xmlns="http://www.w3.org/2000/svg" width="505.91" height="273.274" preserveAspectRatio="xMidYMid" version="1.0" viewBox="0 0 379.433 204.955"><path d="M191.8.65c-28.7 5.2-46.7 26-46.8 53.8 0 8 2.1 19.4 5.2 28.7 4.5 13.1 18.5 37.8 28.1 49.2l3.4 4.2 3.5-3.7c5.3-5.6 9.4-11.3 11.8-16.2l2.2-4.5-4-6c-5.8-8.8-8.7-14.3-11.8-22.6-2.4-6.3-2.8-9-2.8-17.9-.1-9 .2-11.1 2.1-14.6 8.6-16.1 30.2-16.6 38.2-.9 3.7 7 4.1 18.3 1.2 29.1-8.3 30.5-37.2 66.4-64.7 80.2-24.2 12.2-50.5 7.4-70-13-22.1-22.9-36-67.6-41-132.1l-.7-8.7H0v7.7c.1 32.2 8.2 73.2 20.7 103.8 16.4 40.4 37.9 67.2 63.8 80.1 12.7 6.2 19.6 7.8 34 7.7 13.7-.1 23.8-2.5 38.1-9.2 20.6-9.7 45.9-30.4 62.4-51.1 12.1-15.2 26.2-39.5 33-56.4 11.5-29 8.7-54.6-7.8-71.3-6.9-7-12.4-10.4-22.5-13.8-8.4-2.8-22.1-4-29.9-2.5zM346.1 67.65c-.7 4.4-2.5 13.3-4.1 19.7-14.5 59.4-50.9 87.3-90.7 69.7-7-3.1-7.5-3-9.6.6-1 1.6-5.3 6.2-9.7 10.2-5.3 4.9-7.6 7.6-7 8.3 1.8 2.1 18.5 9.5 26.5 11.6 12.3 3.4 30.9 3.1 42.8-.4 37.7-11.5 67.6-46.9 80.1-94.7 2.9-11.2 5.9-30.2 4.8-31.1-.4-.4-7.7-.9-16.3-1.3l-15.7-.6z"/></svg>