<?xml version="1.0" standalone="no"?>
<!DOCTYPE svg PUBLIC "-//W3C//DTD SVG 20010904//EN"
 "http://www.w3.org/TR/2001/REC-SVG-20010904/DTD/svg10.dtd">
<svg version="1.0" xmlns="http://www.w3.org/2000/svg"
 width="512.000000pt" height="512.000000pt" viewBox="0 0 512.000000 512.000000"
 preserveAspectRatio="xMidYMid meet">

<g transform="translate(0.000000,512.000000) scale(0.100000,-0.100000)"
fill="#000000" stroke="none">
<path d="M2578 3570 c-287 -52 -467 -260 -468 -538 0 -80 21 -194 52 -287 45
-131 185 -378 281 -492 l34 -42 35 37 c53 56 94 113 118 162 l22 45 -40 60
c-58 88 -87 143 -118 226 -24 63 -28 90 -28 179 -1 90 2 111 21 146 86 161
302 166 382 9 37 -70 41 -183 12 -291 -83 -305 -372 -664 -647 -802 -242 -122
-505 -74 -700 130 -221 229 -360 676 -410 1321 l-7 87 -228 0 -229 0 0 -77 c1
-322 82 -732 207 -1038 164 -404 379 -672 638 -801 127 -62 196 -78 340 -77
137 1 238 25 381 92 206 97 459 304 624 511 121 152 262 395 330 564 115 290
87 546 -78 713 -69 70 -124 104 -225 138 -84 28 -221 40 -299 25z"/>
<path d="M4121 2900 c-7 -44 -25 -133 -41 -197 -145 -594 -509 -873 -907 -697
-70 31 -75 30 -96 -6 -10 -16 -53 -62 -97 -102 -53 -49 -76 -76 -70 -83 18
-21 185 -95 265 -116 123 -34 309 -31 428 4 377 115 676 469 801 947 29 112
59 302 48 311 -4 4 -77 9 -163 13 l-157 6 -11 -80z"/>
</g>
</svg>
