<svg xmlns="http://www.w3.org/2000/svg" width="250" height="250" fill="none"><g fill="#000" clip-path="url(#a)"><path d="M126.373 57.429c-18.91 3.425-30.77 17.125-30.836 35.437 0 5.27 1.384 12.778 3.426 18.904 2.965 8.629 12.19 24.898 18.515 32.407l2.24 2.766 2.306-2.437c3.492-3.688 6.194-7.443 7.775-10.67l1.45-2.964-2.636-3.952c-3.821-5.797-5.732-9.42-7.775-14.887-1.581-4.149-1.845-5.928-1.845-11.79-.065-5.928.132-7.311 1.384-9.617 5.666-10.605 19.898-10.934 25.169-.593 2.438 4.611 2.702 12.054.791 19.168-5.469 20.09-24.51 43.736-42.63 52.826-15.944 8.036-33.273 4.874-46.121-8.563-14.561-15.083-23.72-44.526-27.014-87.011l-.461-5.73H0v5.07c.066 21.21 5.403 48.216 13.639 68.372 10.805 26.611 24.971 44.263 42.036 52.76 8.368 4.084 12.914 5.138 22.402 5.072 9.027-.066 15.681-1.647 25.103-6.06 13.573-6.389 30.243-20.024 41.114-33.658 7.973-10.012 17.263-26.018 21.743-37.15 7.577-19.102 5.733-35.964-5.139-46.964-4.546-4.61-8.17-6.85-14.825-9.09-5.534-1.844-14.561-2.634-19.7-1.646Zm101.666 44.131c-.461 2.898-1.647 8.761-2.701 12.976-9.554 39.126-33.537 57.503-59.761 45.91-4.612-2.042-4.941-1.976-6.325.396-.659 1.053-3.492 4.083-6.391 6.718-3.492 3.228-5.008 5.006-4.612 5.467 1.186 1.383 12.189 6.258 17.46 7.641 8.104 2.239 20.359 2.042 28.2-.264 24.84-7.574 44.54-30.892 52.776-62.377 1.911-7.377 3.888-19.892 3.163-20.485-.264-.263-5.074-.593-10.74-.856l-10.344-.395-.725 5.269Z"/></g><defs><clipPath id="a"><path fill="#fff" d="M0 57h250v135H0z"/></clipPath></defs></svg>