<svg xmlns="http://www.w3.org/2000/svg" width="250" height="250" fill="none"><g clip-path="url(#a)"><path fill="red" d="M222.498 75.393a25.676 25.676 0 0 0-6.62-11.445 25.642 25.642 0 0 0-11.435-6.627C188.612 53 124.897 53 124.897 53s-63.716.131-79.547 4.452a25.638 25.638 0 0 0-11.434 6.627 25.671 25.671 0 0 0-6.62 11.445c-4.789 28.155-6.647 71.055.13 98.083a25.677 25.677 0 0 0 6.62 11.445 25.642 25.642 0 0 0 11.435 6.627C61.312 196 125.028 196 125.028 196s63.715 0 79.546-4.321a25.639 25.639 0 0 0 11.434-6.627 25.673 25.673 0 0 0 6.621-11.445c5.05-28.194 6.607-71.068-.131-98.214Z"/><path fill="#fff" d="m104.617 155.143 52.857-30.643-52.857-30.643v61.286Z"/></g><defs><clipPath id="a"><path fill="#fff" d="M23 53h204v143H23z"/></clipPath></defs></svg>