<?xml version="1.0" standalone="no"?>
<!DOCTYPE svg PUBLIC "-//W3C//DTD SVG 20010904//EN"
 "http://www.w3.org/TR/2001/REC-SVG-20010904/DTD/svg10.dtd">
<svg version="1.0" xmlns="http://www.w3.org/2000/svg"
 width="225.000000pt" height="225.000000pt" viewBox="0 0 225.000000 225.000000"
 preserveAspectRatio="xMidYMid meet">
<metadata>
Created by potrace 1.10, written by Peter Selinger 2001-2011
</metadata>
<g transform="translate(0.000000,225.000000) scale(0.050000,-0.050000)"
fill="#ff0000" stroke="none">
<path d="M1280 3918 c-1023 -46 -1104 -125 -1161 -1130 -34 -613 21 -1312 121
-1518 54 -112 178 -219 298 -259 399 -131 2959 -138 3444 -10 371 98 478 482
452 1609 -24 999 -129 1209 -634 1270 -460 55 -1728 74 -2520 38z m1167 -1184
l536 -310 -136 -79 c-76 -44 -258 -149 -407 -235 -148 -86 -344 -199 -435
-253 l-165 -96 0 660 c0 623 2 659 35 641 19 -10 276 -158 572 -328z"/>
</g>
</svg>
