<?xml version="1.0" encoding="UTF-8" standalone="no"?>
<svg
   viewBox="0 0 155.92427 109.2"
   version="1.1"
   id="svg414"
   sodipodi:docname="youtube.svg"
   width="155.92427"
   height="109.2"
   inkscape:version="1.2.1 (9c6d41e410, 2022-07-14, custom)"
   xmlns:inkscape="http://www.inkscape.org/namespaces/inkscape"
   xmlns:sodipodi="http://sodipodi.sourceforge.net/DTD/sodipodi-0.dtd"
   xmlns="http://www.w3.org/2000/svg"
   xmlns:svg="http://www.w3.org/2000/svg">
  <defs
     id="defs418" />
  <sodipodi:namedview
     id="namedview416"
     pagecolor="#ffffff"
     bordercolor="#666666"
     borderopacity="1.0"
     inkscape:showpageshadow="2"
     inkscape:pageopacity="0.0"
     inkscape:pagecheckerboard="0"
     inkscape:deskcolor="#d1d1d1"
     showgrid="false"
     inkscape:zoom="2.7581301"
     inkscape:cx="244.0059"
     inkscape:cy="54.747237"
     inkscape:window-width="3840"
     inkscape:window-height="2083"
     inkscape:window-x="0"
     inkscape:window-y="40"
     inkscape:window-maximized="1"
     inkscape:current-layer="svg414" />
  <path
     d="m 152.48326,17.1 a 19.6,19.6 0 0 0 -13.8,-13.8 C 126.58326,0 77.883258,0 77.883258,0 c 0,0 -48.7,0.1 -60.8,3.4 A 19.6,19.6 0 0 0 3.2832577,17.2 c -3.65999995,21.5 -5.08,54.26 0.1,74.9 a 19.6,19.6 0 0 0 13.8000003,13.8 c 12.1,3.3 60.8,3.3 60.8,3.3 0,0 48.700002,0 60.800002,-3.3 a 19.6,19.6 0 0 0 13.8,-13.8 c 3.86,-21.53 5.05,-54.27 -0.1,-75 z"
     fill="#ff0000"
     id="path401" />
  <path
     fill="#ffffff"
     d="M 62.383258,78 102.78326,54.6 62.383258,31.2 Z"
     id="path403" />
</svg>
