<svg width="250" height="250" viewBox="0 0 250 250" fill="none" xmlns="http://www.w3.org/2000/svg">
<path d="M128.102 151.873L99.379 151.347C90.0793 151.163 80.7564 151.529 71.639 149.63C57.7694 146.792 56.7868 132.877 55.7587 121.204C54.342 104.795 54.8904 88.0869 57.5639 71.8141C59.0732 62.6833 65.0128 57.2349 74.1982 56.6421C105.206 54.4904 136.419 54.7454 167.358 55.7492C170.626 55.8412 173.916 56.3442 177.138 56.9167C193.042 59.709 193.43 75.4782 194.461 88.7528C195.489 102.164 195.055 115.645 193.09 128.965C191.513 139.994 188.497 149.243 175.767 150.136C159.817 151.303 144.233 152.243 128.238 151.944C128.239 151.873 128.147 151.873 128.102 151.873ZM111.216 123.951C123.235 117.039 135.025 110.242 146.976 103.376C134.934 96.4632 123.166 89.666 111.216 82.8001V123.951Z" fill="#FF0000"/>
<path d="M73.1494 186.293H67.8628L66.8345 190.221H62.7344L68.7329 171.026H72.2793L78.3174 190.221H74.1777L73.1494 186.293ZM68.7065 183.063H72.2925L70.4995 176.22L68.7065 183.063Z" fill="black"/>
<path d="M93.5444 190.221H89.6685L83.9995 177.631V190.221H80.1235V171.026H83.9995L89.6816 183.63V171.026H93.5444V190.221Z" fill="black"/>
<path d="M106.056 186.293H100.769L99.7407 190.221H95.6406L101.639 171.026H105.186L111.224 190.221H107.084L106.056 186.293ZM101.613 183.063H105.199L103.406 176.22L101.613 183.063Z" fill="black"/>
<path d="M116.906 187.005H123.708V190.221H113.03V171.026H116.906V187.005Z" fill="black"/>
<path d="M128.046 179.648L130.933 171.026H135.152L130.01 183.26V190.221H126.082V183.26L120.927 171.026H125.146L128.046 179.648Z" fill="black"/>
<path d="M149.588 174.256H144.842V190.221H140.953V174.256H136.286V171.026H149.588V174.256Z" fill="black"/>
<path d="M155.863 190.221H151.987V171.026H155.863V190.221Z" fill="black"/>
<path d="M172.132 183.827C172.035 186.016 171.42 187.672 170.286 188.797C169.152 189.922 167.553 190.485 165.487 190.485C163.316 190.485 161.651 189.773 160.491 188.349C159.339 186.917 158.764 184.878 158.764 182.232V179.002C158.764 176.365 159.361 174.335 160.557 172.911C161.752 171.479 163.413 170.762 165.54 170.762C167.632 170.762 169.218 171.347 170.299 172.516C171.389 173.685 172.009 175.363 172.158 177.552H168.269C168.234 176.198 168.023 175.267 167.636 174.757C167.258 174.238 166.56 173.979 165.54 173.979C164.503 173.979 163.769 174.344 163.338 175.073C162.908 175.794 162.679 176.985 162.653 178.646V182.272C162.653 184.179 162.864 185.488 163.286 186.2C163.716 186.912 164.45 187.268 165.487 187.268C166.507 187.268 167.21 187.022 167.597 186.53C167.983 186.029 168.203 185.128 168.256 183.827H172.132Z" fill="black"/>
<path d="M182.626 185.185C182.626 184.403 182.424 183.814 182.02 183.419C181.624 183.014 180.899 182.597 179.844 182.166C177.919 181.437 176.535 180.584 175.691 179.609C174.848 178.624 174.426 177.464 174.426 176.128C174.426 174.511 174.997 173.214 176.14 172.239C177.291 171.255 178.75 170.762 180.517 170.762C181.694 170.762 182.745 171.013 183.667 171.514C184.59 172.006 185.298 172.705 185.79 173.61C186.291 174.515 186.542 175.544 186.542 176.695H182.679C182.679 175.798 182.485 175.117 182.099 174.651C181.721 174.177 181.171 173.94 180.451 173.94C179.774 173.94 179.247 174.142 178.869 174.546C178.491 174.942 178.302 175.478 178.302 176.154C178.302 176.682 178.513 177.161 178.935 177.591C179.356 178.013 180.104 178.453 181.176 178.91C183.048 179.587 184.406 180.417 185.25 181.401C186.102 182.386 186.528 183.638 186.528 185.159C186.528 186.829 185.997 188.134 184.933 189.074C183.87 190.015 182.424 190.485 180.596 190.485C179.356 190.485 178.227 190.23 177.208 189.72C176.188 189.211 175.388 188.481 174.808 187.532C174.237 186.583 173.951 185.462 173.951 184.17H177.84C177.84 185.277 178.056 186.082 178.486 186.583C178.917 187.084 179.62 187.334 180.596 187.334C181.949 187.334 182.626 186.618 182.626 185.185Z" fill="black"/>
</svg>
