<?xml version="1.0" encoding="UTF-8" standalone="no"?>
<!-- Generator: Adobe Illustrator 26.0.3, SVG Export Plug-In . SVG Version: 6.00 Build 0)  -->

<svg
   version="1.0"
   id="katman_1"
   x="0px"
   y="0px"
   viewBox="0 0 118.27056 89.791473"
   xml:space="preserve"
   sodipodi:docname="yugabytedb.svg"
   width="118.27056"
   height="89.791473"
   inkscape:version="1.2.1 (9c6d41e410, 2022-07-14, custom)"
   xmlns:inkscape="http://www.inkscape.org/namespaces/inkscape"
   xmlns:sodipodi="http://sodipodi.sourceforge.net/DTD/sodipodi-0.dtd"
   xmlns:xlink="http://www.w3.org/1999/xlink"
   xmlns="http://www.w3.org/2000/svg"
   xmlns:svg="http://www.w3.org/2000/svg"><defs
   id="defs399" /><sodipodi:namedview
   id="namedview397"
   pagecolor="#ffffff"
   bordercolor="#666666"
   borderopacity="1.0"
   inkscape:showpageshadow="2"
   inkscape:pageopacity="0.0"
   inkscape:pagecheckerboard="0"
   inkscape:deskcolor="#d1d1d1"
   showgrid="false"
   inkscape:zoom="2.2616667"
   inkscape:cx="268.8283"
   inkscape:cy="43.330877"
   inkscape:window-width="3840"
   inkscape:window-height="2083"
   inkscape:window-x="0"
   inkscape:window-y="40"
   inkscape:window-maximized="1"
   inkscape:current-layer="katman_1" />
<style
   type="text/css"
   id="style340">
	.st0{fill:#322A65;}
	.st1{fill:#ED6D49;}
	.st2{fill:#312A65;}
	.st3{clip-path:url(#SVGID_00000146490121625396611420000002633802600161537969_);}
	.st4{fill:#5B5480;}
	.st5{fill:#ED6E48;}
	.st6{fill:#F1886A;}
	.st7{fill:#EA5835;}
</style>










<path
   class="st2"
   d="m 104.06875,44.689981 c 0.2,24.7 -19.7,44.9 -44.4,45.1 -24.7,0.2 -44.9,-19.7 -45.1,-44.4 -0.2,-24.7 19.7,-44.9999999 44.4,-45.0999999 0,0 0,0 0,0 24.7,-0.2 44.9,19.5999999 45.1,44.3999999"
   id="path362" />
<g
   id="g374"
   transform="translate(-30.73125,-181.61002)">
	<defs
   id="defs365">
		<path
   id="SVGID_1_"
   d="M 134.8,226.3 C 135,251 115.1,271.2 90.4,271.4 65.7,271.6 45.5,251.7 45.3,227 45.1,202.3 65,182 89.7,181.9 c 0,0 0,0 0,0 24.7,-0.2 44.9,19.6 45.1,44.4" />
	</defs>
	<clipPath
   id="SVGID_00000167361847539020474910000011431275020708551554_">
		<use
   xlink:href="#SVGID_1_"
   style="overflow:visible"
   id="use367" />
	</clipPath>
	<g
   clip-path="url(#SVGID_00000167361847539020474910000011431275020708551554_)"
   id="g372">
		<path
   class="st4"
   d="m 95.7,181.7 h 0.1 -0.1 M 95,181.6 v 0 m -0.2,-0.1 H 95 v 0 h -0.1 -0.1 m -0.1,0.1 v 0 h -0.3 v 0 h 0.3 m 26.5,12.6 -0.1,-0.1 c -0.7,-0.7 -1.4,-1.3 -2,-1.8 l -0.3,-0.2 c 0.8,0.6 1.6,1.3 2.3,2 l 0.2,0.2 c 0,-0.1 0,-0.1 -0.1,-0.1 m 11.4,17.1 c 0,0 0,0.1 0,0 v 0 0 m -0.4,-0.9 c 0.1,0.3 0.3,0.6 0.4,0.9 v -0.1 c 0,-0.1 0,-0.1 -0.1,-0.2 v 0 -0.1 0 c -0.1,-0.1 -0.2,-0.3 -0.3,-0.5 m -2.5,-5.2 v 0 c -0.5,-0.9 -1,-1.7 -1.5,-2.5 0.5,0.7 0.9,1.4 1.3,2.2 0.1,0.1 0.2,0.2 0.2,0.3 m -3.8,-5.9 v 0 0 0 m -4.7,-5.1 0.3,0.3 -0.3,-0.3 c 0.1,0 0.1,0 0,0 v 0 m 5.5,58 -0.2,0.2 c 0.6,-0.8 1.2,-1.6 1.7,-2.5 -0.3,0.4 -0.8,1.2 -1.5,2.3 m 3.4,-5.5 v 0 c 0.6,-1 1,-2 1.5,-3 0,0 0,0.1 0,0.1 -0.5,1 -1,2 -1.5,2.9 m 2.9,-7 c 0,0.1 0,0.1 0,0 0.3,-0.9 0.6,-1.9 0.8,-2.8 v 0 c -0.2,1 -0.5,1.9 -0.8,2.8 v 0 m 2.2,-13.5 v 0 m 0,-0.2 v 0 m 0,0 v 0 m -0.5,-6.4 c 0.1,0.7 0.2,1.4 0.3,2.1 -0.1,-0.7 -0.2,-1.4 -0.3,-2.1 m -50,-24.7 c 0,-0.1 0,-0.1 0,-0.2 0,-0.1 0,-0.2 0,-0.4 h -0.4 l -0.4,0.2 0.1,0.5 h 0.5 l 0.2,-0.1 m -1.4,-0.7 v 0 -0.2 c -0.1,0 -0.1,0.1 -0.2,0.1 -0.1,0 0,0 -0.2,0 -0.1,0 -0.3,0.1 -0.4,0.2 -0.1,0 -0.1,0.1 -0.2,0.1 0.1,0 0.1,0.1 0.2,0.2 0.1,0 0.1,0 0.2,0 0.1,0 0.2,-0.1 0.3,-0.2 0.2,-0.1 0.2,-0.1 0.3,-0.2 m 3,-7.5 0.4,-0.1 -0.3,-0.3 h -0.6 -0.4 v 0.3 0.2 H 86 l 0.3,-0.1 m 7.8,-5.2 v 0 0 l -0.5,-0.1 h -0.1 0.1 v 0 l 0.7,0.1 v 0 l 0.5,0.1 h 0.2 0.3 v 0 h 0.2 0.2 0.1 l -0.9,-0.1 H 95 94.7 94.4 v 0 h -0.3 m 1.3,0.1 h -0.3 l -0.4,-0.1 h -0.1 c 0.2,0 0.4,0 0.5,0.1 v 0 h 0.3 v 0 h -0.2 l 0.4,0.1 -0.2,-0.1 v 0 c 0.2,0.1 0.4,0.1 0.5,0.1 -0.1,0 -0.3,0 -0.4,-0.1 v 0 c 0.1,0 0.3,0 0.4,0.1 h 0.3 0.3 0.2 c -0.1,0 -0.4,-0.1 -0.7,-0.1 h -0.1 -0.1 v 0 h -0.4 m 1.7,0.5 c -0.1,0 -0.3,0 -0.4,-0.1 h 0.1 v 0 l -0.6,-0.1 c 0.2,0 0.4,0.1 0.6,0.1 h -0.1 l -0.3,-0.1 h -0.1 -0.2 0.2 v 0 h -0.1 v 0 l 0.9,0.2 c -0.3,0 -0.5,0 -0.7,-0.1 -0.1,0 -0.1,0 -0.2,0 0.2,0 0.6,0.1 0.7,0.1 v 0 H 97.1 97 c 0.1,0 0.2,0 0.3,0.1 v 0 l 0.3,0.1 c 0.1,0 0.2,0 0.3,0 v 0 0 c 0.1,0 0.2,0.1 0.3,0 -0.1,-0.1 -0.2,0 -0.4,-0.1 0.1,0 0.1,0 0.2,0 0,0.1 0,0.1 -0.9,-0.1 m 0.9,0.3 v 0 0 0 m 2.9,0.6 h -0.1 c -0.1,0 -0.2,-0.1 -0.3,-0.1 v 0 l -0.5,-0.1 v 0 c -0.3,-0.1 -0.7,-0.2 -1,-0.2 0,0 -0.5,-0.1 -0.6,-0.1 h 0.1 c -0.1,0 -0.1,0 -0.2,0 l -0.4,-0.1 c -0.3,0.1 -0.6,-0.1 -1,-0.2 v 0 c 0.2,0 0.3,0.1 0.5,0.1 h 0.2 c 0.6,0.1 0.6,0.1 0.8,0.2 -0.1,0 -0.3,0 -0.4,-0.1 h -0.1 -0.2 -0.2 l -0.3,-0.1 c 0.2,0 0.3,0.1 0.5,0.1 v 0 h -0.3 c -0.1,0 -0.3,-0.1 -0.4,-0.1 l 0.3,0.1 v 0 c 0.7,0.2 1.3,0.3 2,0.5 -0.2,0 -0.5,-0.1 -0.7,-0.2 0.1,0 0.9,0.2 1,0.2 -0.2,-0.1 -0.3,-0.1 -0.5,-0.1 0.2,0 0.4,0.1 0.6,0.1 v 0 c -0.1,0 -0.5,-0.1 -0.6,-0.2 l -0.2,-0.1 v 0 c 0.2,0 0.2,0 0.6,0.1 v 0 l -0.3,-0.1 h 0.1 c 0.1,0 0.3,0.1 0.4,0.1 h 0.1 -0.1 c 0,0 0.1,0 0.1,0 0,0 0,0 0.3,0.1 l 0.3,0.1 h -0.1 v 0 h 0.1 c 0,0 0,0 -0.3,-0.1 v 0 c 0.1,0 0.6,0.2 0.6,0.2 v 0 c 0,0 -0.1,0 -0.1,0 0.5,0.2 1.1,0.3 1.6,0.4 v 0 l -1.3,-0.4 c -0.3,-0.1 -0.5,-0.2 -0.7,-0.2 -0.3,-0.1 -0.6,-0.2 -0.9,-0.3 v 0 c 1,0.3 1,0.3 1.9,0.5 v 0 c -0.1,0 -0.3,-0.1 -0.4,-0.1 0.2,0 0.4,0.1 0.6,0.1 v 0 h -0.5 v 0 0 m 20.4,11.6 v 0 0 0 l -0.1,-0.1 -0.1,-0.1 v 0 0 c 0,0 0,0.1 0.2,0.2 m -10.6,-7.8 c -0.2,-0.1 -0.4,-0.2 -0.6,-0.3 v 0 0 0 h 0.1 l 0.5,0.3 v 0 m 3.7,2 -2.6,-1.5 v 0 c -0.1,0 -0.2,-0.1 -0.2,-0.1 v 0 l 0.3,0.2 v 0 l -0.4,-0.2 h -0.1 L 111,187 v 0 l 0.2,0.1 c -0.1,0 -0.2,-0.1 -0.2,-0.1 l -0.2,-0.1 -0.3,-0.2 c -0.2,-0.1 -0.4,-0.2 -0.5,-0.2 v 0 l 0.4,0.2 c 0,0 -0.1,-0.1 -0.2,-0.1 l -0.2,-0.1 -0.2,-0.1 v 0 c 0.3,0.2 0.3,0.2 0.6,0.3 l 0.1,0.1 0.1,0.1 v 0 c -0.3,-0.2 -0.4,-0.2 -0.6,-0.3 v 0 l -0.3,-0.2 v 0 0 c 0.2,0.1 0.7,0.4 0.7,0.4 v 0 c -0.1,0 -0.2,-0.1 -0.4,-0.2 0,0 -0.1,0 -0.1,0 0.2,0.2 0.5,0.3 0.7,0.4 0.1,0.1 0.2,0.1 0.3,0.2 v 0 c -0.1,0 -0.1,0 -0.2,0 v 0 c 0.5,0.3 0.6,0.3 0.7,0.4 l -0.9,-0.4 c 0.1,0.1 0.2,0.1 0.2,0.2 0.3,0.1 0.6,0.3 0.9,0.5 -0.1,0 -0.1,0 -0.4,-0.2 0.1,0.1 0.4,0.3 0.4,0.3 0.1,0.1 0.2,0.1 0.4,0.2 l 0.1,0.1 0.1,0.1 c -0.3,-0.1 -0.5,-0.2 -0.8,-0.4 0.2,0.1 0.3,0.2 0.4,0.3 v 0 h -0.1 c 0.1,0.1 0.3,0.2 0.4,0.3 v 0 c 0.1,0.1 0.1,0.1 0.2,0.2 v 0 c 0.1,0.1 0.2,0.1 0.2,0.2 v 0 l 0.1,0.1 h 0.1 c -0.2,-0.2 -0.2,-0.2 -0.2,-0.2 l -0.1,-0.1 v 0 -0.1 -0.1 c 0.1,0 0.2,0.1 0.3,0.1 0.1,0.2 2.4,1.9 2.4,2 l -0.1,-0.1 c 0.1,0.2 0.3,0.4 0.5,0.6 h 0.1 c 0.1,0.1 0.1,0.1 0.9,1 0,0 -0.1,0 -0.1,0 0,0 -0.1,0 -0.1,0 l 0.2,0.2 0.2,0.2 v 0.1 0 0 c 0.2,0.2 0.3,0.5 0.5,0.7 v 0 c 0.2,0.5 0.6,0.7 1,1 v 0 l 0.1,0.1 0.2,0.2 h 0.1 c 0.6,-0.1 0.4,0.8 0.9,0.8 0.2,0.2 0.2,0.2 0.3,0.3 0.2,0 0.4,0 0.6,-0.1 -0.1,-0.1 -0.1,-0.2 -0.2,-0.3 h 0.1 v -0.1 c -0.1,-0.1 -0.1,-0.1 -0.2,-0.2 0,0 0.2,0 0.6,0.5 0.2,-0.1 0.4,-0.1 0.7,-0.2 -0.2,-0.3 -0.4,-0.5 -0.6,-0.7 l -0.1,-0.1 c -0.3,-0.2 -0.6,-0.4 -0.9,-0.6 -0.3,-0.2 -0.6,-0.5 -0.9,-0.8 -1,-1 -2.1,-1.9 -3.3,-2.8 v 0 0 l 0.4,0.2 c -0.1,0 -0.1,-0.1 -0.2,-0.1 0.1,0.1 0.3,0.2 0.4,0.3 l 0.4,0.3 v 0 c 0.3,0.2 0.6,0.4 0.9,0.7 h -0.1 c 0.3,0.3 0.3,0.3 2.1,1.8 l 0.1,0.1 c 0.2,0.2 0.5,0.4 1.1,0.8 v 0 l -0.2,-0.2 h 0.1 c 0,-0.1 -0.1,-0.1 -0.2,-0.2 v 0 -0.1 l -0.1,-0.1 v 0 l 0.2,0.2 v 0 l 0.1,0.1 c 0.3,0.2 0.5,0.5 0.8,0.7 -0.1,0 -0.1,-0.1 -0.2,-0.2 0,0.1 0.1,0.1 0.1,0.2 H 121 c 0.1,0.1 0.2,0.3 0.4,0.4 0.1,-0.1 0.1,-0.2 0,-0.3 l -0.2,-0.2 c -3.5,-3 -3.6,-3.1 -5.6,-4.5 l -0.7,-0.5 v 0 c -0.3,-0.2 -0.3,-0.2 -0.8,-0.5 0,-0.7 0.3,-0.5 0.3,-0.5 v 0 m 5.8,6.3 v 0 c -0.2,0 -0.4,0.1 -0.6,0.1 v 0 l 0.1,0.1 c 0,0 0.1,0.1 0.1,0.1 l 0.1,0.1 v 0 0 0 0 h 0.1 c 0.1,0.1 0.1,0.1 0.2,0.2 v -0.1 0 0 c 0,0 0,0 0.1,0 0,0 0,-0.1 0,-0.1 v 0 c 0,0 0,0 0,-0.1 0,0 0,0 0,-0.1 0,0 -0.1,-0.1 -0.1,-0.2 m 0.8,-0.3 c -0.2,0.1 -0.4,0.2 -0.7,0.2 0.1,0.1 0.3,0.2 0.4,0.4 v 0 c 0.3,0.3 0.3,0.3 0.4,0.4 0.1,0.1 0.2,0.2 0.3,0.2 l 0.1,0.1 0.1,0.1 c 0.2,0.2 0.3,0.3 0.5,0.4 0.1,0.1 0.3,0.3 0.4,0.4 v 0.1 l 0.2,0.2 0.2,-0.1 c -0.4,-0.4 -0.4,-0.4 -0.4,-0.5 v 0 0 c 0,0 0.1,0.1 0.1,0.1 0,-0.1 -0.1,-0.1 -0.1,-0.2 v 0 c -0.1,-0.1 -0.2,-0.2 -0.3,-0.3 h 0.1 L 122,196 v 0 0 0 c -0.1,0 -0.1,-0.1 -0.2,-0.1 -0.2,-0.3 -0.4,-0.5 -0.6,-0.7 0,-0.1 -0.1,-0.2 -0.2,-0.4 m 4.8,4.5 c -1.3,-1.6 -3.1,-3.6 -4.6,-5 0.1,0.1 0.1,0.2 0.1,0.3 0,0 0,0 0,0 v 0 0 0 c 0.2,0.2 0.3,0.4 0.5,0.5 0,-0.1 0,-0.1 -0.2,-0.3 0.2,0.1 0.2,0.1 1.1,1.1 v 0 c -0.1,-0.1 -0.2,-0.2 -0.3,-0.3 -0.1,0 -0.1,0 -0.1,0 l -0.2,-0.2 c -0.1,0 -0.1,0 -0.1,0 0.6,0.6 1.1,1.3 1.7,1.9 l 0.1,0.1 c -0.1,0 -0.1,0 -0.2,0 0.2,0.2 0.3,0.4 0.5,0.6 v 0 c -0.2,-0.1 -0.3,-0.3 -0.5,-0.4 0.1,0.2 0.2,0.4 0.3,0.7 l -0.1,0.1 v 0.1 h -0.1 c -0.1,-0.1 -0.2,-0.2 -0.3,-0.4 -0.1,0 -0.1,0 -0.1,0 v 0.1 c 0,0 -0.1,0.1 -0.1,0.1 0,0.1 0,0.1 0.2,0.4 h -0.1 c -0.1,0 -0.1,0 -0.4,-0.3 v 0 h -0.1 l -0.2,-0.2 c 0,0 -0.1,-0.1 -0.1,-0.2 0,-0.1 0,-0.1 0.1,-0.1 0,0 0,0 0.3,0.2 0,-0.2 -0.5,-0.8 -0.8,-1.1 -0.1,-0.1 -0.1,0 -0.1,0 0,0.1 0,0.1 0.1,0.4 v 0 0 c -0.1,-0.1 -0.1,-0.1 -0.3,-0.4 l -0.2,-0.2 h -0.1 c -0.2,-0.3 -0.5,-0.6 -0.8,-0.9 0,0.2 0.3,0.4 0.3,0.6 0,0.1 0.1,0.1 0.1,0.2 l 0.1,0.1 c 0.3,0.4 0.7,0.9 1,1.2 l 0.1,0.1 c 0.1,0.1 0.1,0.2 0.2,0.3 0.1,0.1 0.3,0.3 0.4,0.4 0.1,0.1 0.1,0.2 0.2,0.3 H 123 l -0.1,0.1 h -0.1 c -0.1,0 -0.1,0 -0.2,0 0,0.1 0,0.1 0,0.2 v 0.1 c 0.1,0.1 0.2,0.3 0.2,0.4 v 0 0 0 c 0,0.1 0,0.2 0.1,0.3 l 0.2,0.1 0.3,0.4 c -0.1,0.1 -0.1,0.1 0,0.6 0,0.1 0,0.1 0,0.1 h -0.1 c 0.1,0.3 0.3,0.5 0.4,0.7 -0.1,0 -0.1,0.1 -0.2,0.1 0,0.2 0.1,0.3 0.2,0.4 h -0.2 -0.1 c -0.1,0 -0.1,0 -0.2,0 l -0.1,-0.1 c -0.1,0 -0.1,-0.1 -0.2,-0.1 0.1,0.1 0.1,0.3 0.2,0.4 0.1,0.1 0.2,0.3 0.3,0.5 l 0.1,0.1 c 0,0.1 0.1,0.1 0.1,0.2 -0.2,0.1 -0.5,0 -0.6,-0.1 -0.1,0 -0.1,0.1 -0.2,0.1 -0.1,0.1 -0.1,0.2 0.1,0.4 h 0.1 c 0.2,0.2 0.4,0.2 0.4,0.2 h 0.1 c 0.2,0.2 0.4,0.4 0.7,0.6 0.1,0.2 0.2,0.4 0.4,0.7 0.9,1 0.9,1 1.2,2.2 0,0.1 0,0.1 -0.1,0.2 -0.1,0.1 -0.1,0.1 -0.1,0.1 -0.2,-0.1 -0.5,-0.1 -0.7,-0.3 -0.3,0 -0.5,0 -0.7,0.1 -0.3,0 -0.3,0 -0.4,-0.1 h 0.2 v 0.1 c 0,0.1 0.1,0.1 0.1,0.2 -0.1,0.1 -0.2,0.1 -0.3,0.1 v 0.1 c 0.4,0.4 0.4,1 0.8,1.4 0.1,0.3 0.2,0.6 0.3,0.8 0,0.4 0.1,0.8 0.3,1.2 0,0.1 0.1,0.1 0.1,0.2 0,0 0,0.1 0,0.1 v 0.1 c 0,0.2 0,0.3 0.2,0.7 0.1,0 0.2,0 0.2,0 0.1,0 0.1,-0.1 0.2,-0.1 0.1,0.1 0.1,0.1 0.2,0.2 0.1,0 0.1,-0.1 0.2,-0.1 0.1,0.1 0.3,0.2 0.4,0.2 0.1,0.2 0.2,0.3 0.3,0.5 0,0 0,-0.1 0,-0.2 v 0 -0.1 c 0.4,0 0.1,-0.7 0.6,-0.7 0.2,-0.3 0.2,-0.8 0.6,-1 l -0.2,-0.5 c -0.3,-0.3 -0.4,-0.8 -0.5,-1.2 0,-0.1 0,-0.1 0,-0.2 0,-0.1 0.1,-0.1 0.1,-0.1 0,-0.3 0,-0.3 0.1,-0.6 0.1,0 0.1,0 0.2,-0.1 0,-0.1 -0.1,-0.3 -0.2,-0.4 l -0.1,-0.1 c -0.4,-0.7 -0.6,-1.1 -0.1,-0.9 v 0 c 0.1,0.1 0.2,0.1 0.3,0.2 h 0.2 v -0.1 c -0.1,-0.2 -0.1,-0.3 -0.2,-0.5 0,-0.1 0.1,-0.1 0.1,-0.1 l 0.1,-0.1 c 0,-0.1 0,-0.3 -0.1,-0.4 0.7,0.1 0.6,0.8 1,1.2 0.1,0.1 0.2,0.2 0.2,0.3 0.8,0.7 1.4,1.6 1.9,2.6 0,0 0,0 0,0.4 -0.1,0 -0.2,0 -0.3,0.1 0,0 0.1,0.1 0.1,0.2 0.2,0.2 0.2,0.4 0.4,0.6 0.1,0 0.2,0 0.2,0 l -0.2,-0.5 c 0,-0.5 -0.2,-1 -0.3,-1.5 0,0 0,-0.1 -0.1,-0.1 h -0.1 c 0,0 -0.1,-0.1 -0.1,-0.2 l -0.1,-0.2 h 0.1 c 0.1,0.1 0.2,0.2 0.2,0.3 -0.1,-0.6 -0.6,-0.9 -0.9,-1.4 -0.2,-0.1 -0.9,-1.1 -1,-1.2 v 0 c -0.1,-0.1 -0.2,-0.3 -0.2,-0.4 h -0.1 c -0.1,-0.1 -0.2,-0.2 -0.2,-0.3 v -0.1 -0.1 -0.1 c -0.1,-0.1 -0.2,-0.3 -0.3,-0.4 h 0.1 c 0.5,0.5 1.1,1.1 1.5,1.8 0.3,0.4 0.6,0.9 0.9,1.3 0.6,1.3 0.6,1.3 0.7,1.4 0.1,0.2 0.2,0.4 0.3,0.6 v 0 -0.1 c 0,0.1 0,0.2 0.3,0.7 0,-0.1 0,-0.1 0,-0.2 v -0.1 c 0.1,0.3 0.3,0.6 0.4,0.9 0,0 0,0 0.1,0 0,-0.1 0,-0.3 -0.1,-0.4 l -0.1,-0.2 c 0,-0.1 -0.1,-0.2 -0.1,-0.3 l 0.1,0.1 v 0 c -0.1,-0.2 -0.1,-0.4 -0.2,-0.6 0,-0.1 -0.1,-0.3 -0.2,-0.4 0,0.1 0.1,0.2 0.1,0.3 -0.1,-0.2 -0.6,-1.1 -0.6,-1.1 0,0 0,-0.1 -0.1,-0.1 v -0.1 0 c 0,0.1 0.1,0.1 0.1,0.2 v 0 0 c -0.1,-0.2 -0.2,-0.4 -0.2,-0.6 0.1,0.1 0.2,0.3 0.3,0.5 0,0.1 0.1,0.2 0.1,0.2 0.1,0.4 0.3,0.7 0.5,1.1 l 0.1,0.2 c 0,0.1 0.1,0.1 0.1,0.2 0,0.1 0.1,0.2 0.1,0.4 v 0.1 0 0.1 0.1 0 c 0,0.1 0.1,0.2 0.1,0.3 v 0.1 0.1 c 0,0.1 0.1,0.3 0.1,0.4 v 0.1 0 l -0.1,-0.2 c 0,0 0,-0.1 -0.1,-0.2 0,-0.1 -0.1,-0.2 -0.1,-0.3 0,-0.1 0,-0.1 -0.1,-0.2 v 0 c -0.7,-1.7 -1.8,-4 -2.6,-5.7 -2.1,-4.3 -2.5,-4.9 -3.7,-6.6 m -8.5,-3.4 v 0 0 c 0,0.1 0,0.2 0,0.2 v 0 0 c 0,0 0.1,0.1 0.1,0.1 0,0 0,0.1 0.1,0.2 0,0.1 0.1,0.1 0.1,0.1 h 0.1 v -0.1 -0.1 c -0.1,-0.1 -0.1,-0.2 -0.1,-0.2 v 0 c 0,0 0,0 0,0 0,0 -0.1,-0.1 -0.1,-0.1 v -0.1 c -0.1,0.1 -0.1,0.1 -0.2,0 m 5.7,4.5 c -0.1,-0.1 -0.1,-0.2 -0.2,-0.2 -0.2,-0.1 -0.3,-0.3 -0.5,-0.5 v 0 c 0,0.1 0.2,0.2 0.1,0.3 0,0 0,0 -0.6,-0.7 h -0.1 c -0.2,-0.3 -0.5,-0.7 -0.6,-0.6 0,0 -0.1,-0.1 -0.1,-0.1 -0.1,-0.1 -0.3,-0.2 -0.4,-0.3 -0.2,-0.1 -0.3,-0.3 -0.4,-0.4 -0.2,-0.1 -0.4,-0.1 -0.5,-0.2 l -0.1,-0.3 h 0.1 c 0,0 -0.1,-0.1 -0.1,-0.1 -0.1,-0.1 -0.1,-0.3 -0.2,-0.4 -0.1,-0.1 -0.2,-0.3 -0.4,-0.4 l -0.5,0.1 c -0.4,-0.7 -0.4,-0.8 -0.5,-0.8 v 0 h -0.1 c 0,0 -0.1,0 -0.2,0 0,0 0,0 0.3,0.5 0.1,0.1 0.3,0.2 0.3,0.4 -0.1,0.1 -0.2,-0.1 -0.4,-0.1 0.1,0.3 0.3,0.5 0.5,0.5 l 0.1,0.1 0.1,0.1 c 0.1,0.1 0.2,0.2 0.3,0.3 -0.1,0.1 -0.1,0.1 0.1,0.4 0,0 0.1,0 0.1,0 v 0 l 0.3,0.2 h 0.1 c -0.1,-0.1 -0.1,-0.1 -0.1,-0.2 0.2,0.2 0.4,0.4 0.5,0.6 v 0 0.1 c 0.1,0.1 0.1,0.2 0.2,0.2 h 0.3 v -0.1 c 0.4,0.1 0.4,0.6 0.8,0.7 0.1,0.2 0.4,0.3 0.4,0.6 -0.1,0 -0.2,-0.1 -0.4,-0.1 v 0 0 0.1 c 0,0 0,0.1 0.1,0.1 h -0.1 c 0.1,0.2 0.1,0.2 0.2,0.2 0.2,-0.2 0.2,0 0.3,0.2 h -0.1 c 0,0.1 0,0.1 0.1,0.2 h -0.1 v 0 c 0,0.1 0.2,0.4 0.3,0.3 0,0 0,-0.1 0.1,-0.1 l 0.5,0.1 c 0,0 0.3,0.3 -0.1,0.3 0,0.1 0,0.1 0,0.2 v 0 l -0.1,0.1 c 0.2,0.4 0.2,0.4 0.2,0.6 l 0.1,0.1 c 0.1,0 0.1,-0.1 0.1,-0.1 0,0 0,0 0,-0.2 0,0 0,0 0.2,0.1 h 0.2 c -0.2,-0.3 -0.2,-0.3 -0.2,-0.3 0.1,0 0.1,0 0.2,0 0.1,0 0.2,0 0.2,0 0,-0.1 0,-0.1 0,-0.2 v 0 c 0.1,0 0.2,0.1 0.3,0.2 v 0 c 0,0 0.1,0 0.2,-0.1 0,0 -0.1,-0.1 0,-0.2 h 0.1 v -0.1 c -0.1,-0.1 -0.2,-0.3 -0.4,-0.4 V 201 c -0.1,-0.1 -0.1,-0.1 -0.1,-0.1 h 0.1 l -0.1,-0.2 -0.4,-0.3 m -3.9,-1.3 v 0 m 0.9,0 -0.5,-0.5 c -0.1,-0.1 -0.1,-0.1 -0.2,-0.1 0,0 -0.1,-0.1 -0.1,-0.1 v 0 c 0,0 0,0.1 -0.1,0.1 0,0 0,0.1 0,0.2 -0.1,-0.1 -0.2,-0.1 -0.3,-0.2 h -0.1 c 0.1,0.2 0.3,0.4 0.4,0.6 v 0 0.1 H 119 l -0.1,0.1 c 0,0 -0.1,-0.1 -0.1,-0.1 h -0.1 l 0.6,0.8 c 0.1,0 0.1,0 0.2,0 l 0.2,0.4 h -0.1 c 0,0.1 0,0.2 0.1,0.2 0.1,0.1 0.1,0.2 0.2,0.3 v 0.1 c 0.1,0.3 0.4,0.4 0.4,0.4 0,-0.1 0.1,-0.1 0.2,0 0,0 0,0 0,-0.4 l 0.5,-0.1 c 0,-0.1 -0.1,-0.1 -0.1,-0.2 0,0 -0.1,-0.1 -0.1,-0.1 -0.1,-0.1 -0.1,-0.1 -0.1,-0.2 v 0 c -0.1,-0.3 -0.3,-0.6 -0.5,-0.8 l -0.2,-0.2 h 0.1 c -0.1,-0.1 -0.1,-0.2 -0.1,-0.3 m 14.5,19.6 -0.7,-3.4 c -0.2,-0.3 -0.3,-0.7 -0.5,-1 -0.1,0.7 0.3,1.3 0.4,2 0,0 0,0 -0.1,-0.1 -0.1,-0.2 -0.2,-0.3 -0.3,-0.5 -0.1,0 -0.2,0.1 -0.2,0.1 l -2.3,-4.4 c -0.1,0.3 -0.5,0.5 -0.7,0.8 -0.3,-0.4 -0.3,-0.4 -0.6,-0.5 -0.1,0.2 -0.2,0.4 -0.2,0.7 -0.2,0 -0.4,0.1 -0.6,0.2 0.1,0.6 0.1,0.6 0,0.8 h -0.3 l -0.2,0.2 h -0.1 -0.3 -0.1 c -0.2,0.1 -0.5,0 -0.7,-0.2 l -0.2,-0.1 c 0,0.4 0.1,0.9 0.2,1.3 -0.2,0 -0.3,0.1 -0.5,0.1 0.1,0.4 0.2,0.8 0.3,1.2 -0.2,0 -0.4,0.1 -0.5,0.3 0.1,0.6 0.2,1.3 0.3,1.9 0,0.2 0.1,0.3 0.1,0.5 l -0.5,0.1 c 0,0.4 -0.1,0.9 -0.3,1.3 -1.2,0.8 -0.1,2.3 -1.1,3.1 h -0.1 l -0.2,0.1 c 0,0.1 0,0.1 -0.4,2.3 v 0.5 c 0.3,0 0.5,0 0.8,0 0,0.1 0.1,0.2 0.1,0.2 -0.2,0.5 -0.2,0.5 -0.2,2.5 0,0.1 0,0.2 0,0.5 -0.1,0.3 -0.1,0.3 -0.4,0.6 0,0.3 0.1,0.7 0.1,1 0,0.1 0,0.2 0,0.3 0,0.7 0.1,0.8 0.6,1.5 h 0.3 c 0.1,0.2 0.2,0.5 0.2,0.8 h 0.3 c -0.1,1.3 -0.1,1.3 0.9,1.8 0,0.3 -0.1,0.5 -0.1,0.8 0.4,0.3 0.5,0.8 1.1,1 0.2,-0.2 0.2,-0.5 0.4,-0.7 0.2,0 0.4,0 0.5,-0.1 h 0.1 c 0.2,0 0.3,0 0.5,0 l 0.1,0.2 c 0.7,-0.1 0.7,-1.1 1.6,-1.1 0,0 0,0 0.1,-0.1 0.1,-0.2 0.2,-0.3 0.3,-0.4 l 0.2,0.1 c -0.1,1 -0.1,1 0.1,1.2 0.3,-0.1 0.5,-0.1 0.8,-0.2 -0.1,0.3 -0.1,0.6 -0.2,1.1 -1.8,7.2 -1.8,7.2 -2.2,7.8 0,0.1 -0.1,0.2 -0.1,0.3 -0.7,1.6 -1.2,2.7 -4.9,8.3 -0.3,0.4 -0.6,0.8 -0.9,1.2 -1,1.3 -2.2,2.6 -3.4,3.8 l -0.2,0.2 c -0.4,0.3 -0.4,0.3 -0.6,0.5 v 0 c -0.4,0.4 -0.4,0.4 -0.6,0.5 l 0.1,-0.1 c 1.4,-1.3 3.1,-3 4.4,-4.3 1.6,-1.8 1.6,-1.8 4.3,-5.6 1.3,-2 1.3,-2 3.3,-6.3 1,-2.2 1,-2.2 2.3,-6.8 0.8,-3.5 1.3,-7.1 1.3,-10.7 0.1,-2.3 0.1,-2.3 -0.6,-7.1 m -21.4,27.6 c 0.1,-1.4 -0.1,-1.5 -0.3,-1.7 -0.2,0 -0.5,0 -0.7,0 -0.7,-0.2 -0.8,-1.4 -1.8,-1.1 h -0.9 c -0.6,-0.3 -1,-0.5 -1.1,0 -0.2,0.1 -0.3,0.2 -0.7,-0.1 0,-0.1 0,-0.1 0.4,-0.4 -1,-0.6 -1,-0.6 -1.5,-0.7 -0.1,0 -0.2,0 -0.3,-0.1 -0.2,-0.2 -0.5,-0.2 -0.8,-0.1 0,0.2 -0.1,0.4 -0.1,0.7 h -0.6 c 0,-0.1 0,-0.3 0.1,-0.4 0.1,-0.1 0.2,-0.2 0.3,-0.3 l 0.2,-0.1 v -0.2 c 0,0 -0.3,-0.1 -0.8,-0.2 h -0.2 -0.2 l -0.2,0.1 c 0,0.4 -0.1,0.6 -0.7,0.5 0,-0.1 0,-0.3 0.1,-0.4 1,-1 1,-1 0.7,-1.5 h -0.4 c 0,-0.3 0,-0.5 0.1,-0.8 -0.1,-0.3 -0.2,-0.6 -0.3,-0.9 0,0 -1.5,-0.7 -1.9,-0.9 -0.4,-0.2 -0.8,0.1 -1.1,0.1 H 100 c -1.4,-0.2 -1.5,-0.5 -1.8,-1.4 -0.1,0 -0.1,0 -0.9,-0.4 0,0 0,-0.1 0,-0.2 -0.5,-0.1 -0.5,-0.4 -0.5,-0.7 -0.1,0 -0.2,0 -0.3,0 -0.6,0.2 -0.6,0.2 -0.8,0.2 0,-0.2 -0.1,-0.4 -0.1,-0.6 0.1,0 0.2,-0.1 0.3,-0.2 -0.1,-0.2 -0.2,-0.2 -0.7,-0.3 l -0.4,0.3 c 0,0 -0.1,0 -0.1,0 -0.2,-0.1 -0.4,-0.1 -0.6,-0.1 -0.3,0.7 -0.3,0.7 -0.6,0.7 -0.3,-0.2 -0.6,-0.6 -1,-0.6 -0.3,0 -0.6,0 -1,-0.1 l -0.4,-0.1 c 0,-0.2 0,-0.3 -0.2,-0.4 -0.5,0 -0.8,-0.5 -1.3,-0.3 0,0.2 -0.1,0.4 -0.2,0.5 -0.3,0 -0.5,0.1 -0.7,0.3 -0.2,0.4 0.2,0.9 0,1.3 -0.8,-0.4 -0.1,-1.2 -0.5,-1.7 0.1,-0.3 0.7,-0.8 0.7,-0.8 L 88.8,233 h -0.3 c -0.5,0.1 -0.5,0.1 -0.5,0.6 -0.3,0 -0.6,0 -1,0 -0.4,0.4 -1,0.6 -1.5,0.5 0,0.3 0,0.6 -0.1,0.9 -0.2,0.2 -0.4,0.2 -0.6,0.2 -0.1,0.2 -0.2,0.5 -0.3,0.7 -0.6,0.4 -0.7,0.7 -0.7,0.9 0.1,0.1 0.2,0.1 0.4,0.1 0,0.6 0.7,1.3 0,1.8 -0.1,0.9 -0.1,0.9 -0.3,1.1 h -0.4 c 0,0.1 0.1,0.4 0.1,0.5 -0.1,0.1 -0.3,0.2 -0.4,0.2 0,0.1 0,0.2 0,0.3 -0.4,0.1 -0.7,0.1 -0.6,0.8 -0.2,0 -0.4,0 -0.6,0.1 0,0.4 0,0.8 0.1,1.2 l 0.2,0.1 c 0.2,-0.1 0.4,-0.1 0.6,0 0,0.1 0,0.3 -0.1,0.4 -0.2,0.1 -0.4,0.1 -0.6,0.2 0,0.3 0,0.3 -0.4,0.6 -0.1,0.3 -0.1,0.3 0.2,0.7 0,0 0,0.1 0,0.1 0.1,1.3 1.9,1.4 2.1,2.7 0,0.1 0,0.2 0,0.3 2.3,3.3 2.3,3.3 2.6,3.3 0,0 1.1,0.2 2.3,1.5 0.1,0 0.3,0 0.4,0 0,0.4 0,0.8 0,1.2 0,0.1 0,0.3 0,0.4 v 0.1 c 0,0.1 0,0.1 0,0.2 v 0.2 c 0,0.1 0,0.1 -0.1,0.2 0,0.1 -0.1,0.2 0,0.4 v 0 c 0,0.1 0,0.1 0,0.2 0,0.1 0,0.1 0,0.2 v 0.1 c 0,0 0,0.1 -0.1,0.2 0,0.1 0,0.3 0.1,0.4 v 0.1 c 0,0.1 0,0.1 0,0.2 -0.1,0.4 -0.4,0.7 -0.4,1.1 -0.1,0.5 -0.3,1 -0.5,1.5 0,0 0,0.1 0,0.1 0.3,1.4 0.3,1.7 -0.4,2.3 0,0.1 0,0.2 0,0.2 0,0.1 0,0.1 0,0.2 v 0.1 c -0.1,0.3 -0.4,0.5 -0.6,0.8 0.3,0.5 0.2,0.7 0,1.3 l 0.1,0.2 c 0.1,0.1 0.1,0.2 0.1,0.3 l -0.2,0.1 c -0.1,0.4 -0.1,0.4 -0.1,0.5 l 0.2,0.1 h 0.3 v -0.6 h 0.3 c 0,0.1 0,0.2 -0.1,0.3 l -0.2,0.1 c 0,0.1 0,0.3 0,0.4 0,0 0,0 -0.1,0.7 -0.1,-0.1 -0.2,-0.1 -0.2,-0.2 0,0 0,0 0,-0.2 0,0 0,0 -0.1,0 0,0.1 0,0.1 0.2,0.3 0.1,0.1 0.1,0.2 0.1,0.3 -0.1,-0.1 -0.3,-0.2 -0.4,-0.2 0,0.1 0,0.1 -0.2,0.3 0,0.1 0,0.1 0,0.2 0.1,0 0.3,0.1 0.4,0.1 0,0 0,0.1 0,0.2 h 0.2 c 0,0.1 0,0.1 0.1,0.2 -0.4,0 -0.4,0 -0.6,0.1 0,0.1 0,0.1 0.1,0.2 l 0.1,0.1 c 0,0 0,0 0,0.2 0,0.1 0.1,0.2 0.2,0.3 h -0.1 0.1 c 0,0 0.1,0 0.1,0.2 h 0.2 v 0 0.1 c 0.1,0.2 0.4,0.3 0.5,0.5 h 0.2 c 0,0 0,0 0.1,0.1 0.1,0.1 0.3,0 0.4,0.1 0.1,0 0.1,0 0.2,0 h 0.5 c 0.1,-0.1 0.1,-0.1 0.2,-0.1 -0.1,0 -0.3,0 -0.4,-0.1 0,0 0,-0.1 -0.2,-0.1 0,-0.1 0,-0.3 -0.1,-0.4 v 0 c 0,-0.1 0,-0.2 -0.1,-0.4 0,0 0,0 0,-0.1 0,-0.1 0,-0.2 0.1,-0.3 0.1,0 0.2,0 0.3,0 0,-0.1 0,-0.1 0,-0.2 0.3,-0.2 0.6,-0.5 0.9,-0.7 0,0 0,-0.1 -0.1,-0.1 h -0.2 c -0.3,-0.3 -0.3,-0.3 -0.3,-0.4 0,0 0,-0.1 0,-0.1 0.1,-0.1 0.2,-0.1 0.4,-0.2 h 0.5 c 0,-0.2 0.1,-0.3 0.2,-0.5 0.1,-0.1 0.2,-0.3 0.3,-0.5 0.4,0 0.4,0 0.5,-0.2 0,0 0,0 -0.1,-0.1 v 0 0 c -0.1,0.1 -0.2,0.1 -0.4,0.1 0,-0.1 0,-0.3 0,-0.4 v -0.2 c 0.1,0 0.2,0 0.3,0 l 0.2,0.1 c 0.2,0 0.4,0 0.6,-0.2 0,0 0,0 0.1,-0.2 l 0.2,-0.1 c 0,-0.1 0,-0.3 0,-0.4 0,-0.1 0,-0.1 0,-0.2 0.2,0 0.4,0 0.6,0 h 0.2 c 0.1,0 0.3,0 0.4,-0.1 0.2,0 0.4,0 0.6,0 0,0 0.8,-0.5 1.1,-0.8 l 0.2,-0.2 0.1,-0.3 c -0.1,0 -0.1,0 -0.2,0 0,-0.1 0,-0.1 0.1,-0.3 -0.1,-0.2 -0.3,-0.3 -0.4,-0.4 0,-0.1 0,-0.1 0,-0.2 h 0.4 c 1.5,0.2 1.5,0.2 2.2,-0.3 1.7,-1.6 1.7,-1.6 1.8,-1.6 -0.1,0.1 -0.2,0.2 -0.2,0.3 0.1,0 2.2,-1.5 2.2,-2.2 0,-0.4 0,-0.8 1.8,-1.8 h 0.6 c 0.2,-0.1 0.5,-0.3 0.7,-0.4 0.5,0 1,-0.1 1.4,-0.2 0,-0.1 0.1,-0.2 0.2,-0.3 0.2,-0.1 0.2,-0.1 1.7,-1.8 0.1,0 0.1,0 0.7,-1.1 0,-0.1 0.1,-0.2 0.1,-0.2 0.2,-0.2 0.4,-0.5 0.5,-0.8 0,-0.1 0.1,-0.2 0.1,-0.3 0,-0.1 0,-0.1 0,-0.2 0,-0.1 0.1,-0.3 0.1,-0.4 0.1,-0.3 0.2,-0.6 0.4,-0.8 0,0 1.3,-1.1 1.6,-1.4 l 1.2,-1.3 c 0,0.4 0.2,0.1 0.2,-0.1 M 93.5,228.9 v 0 c 0,-0.1 -0.2,0 -0.3,-0.2 -0.1,-0.1 0,-0.3 0,-0.4 -0.3,0.1 -0.6,0.1 -0.9,0.2 H 92 c -0.2,0 -0.3,-0.1 -0.5,-0.2 h -0.1 c -0.1,0 -0.2,0.2 -0.3,0.2 0,0 -0.5,0 -0.5,0 -0.2,0 -0.3,-0.2 -0.5,-0.3 -0.2,-0.1 -0.4,-0.3 -0.7,-0.3 h -1.1 c -0.2,0 -0.4,0 -0.6,0.1 0,0.3 0,0.6 0,0.9 0.2,0.2 0.4,0.4 0.6,0.6 h 0.3 c 0.4,0 0.6,-0.4 1,-0.4 0.2,0 0.3,0.1 0.5,0.1 0.2,0 0.3,-0.1 0.5,-0.1 0.4,0 0.8,0 1.2,-0.1 0.1,-0.1 0.2,-0.1 0.3,0 0.3,0.1 0.5,0.1 0.8,0.1 h 0.3 c 0.2,0 0.2,-0.1 0.3,-0.2 m -8.3,0.4 v 0 c 0,-0.1 0.1,-0.3 0,-0.4 -0.1,-0.1 -0.2,0 -0.3,-0.1 -0.1,0 -0.2,-0.1 -0.3,-0.2 h -0.1 -0.9 c 0.1,0.1 0.1,0.2 0.2,0.3 l 0.1,0.1 c 0.1,0 0.1,0 0.2,0 0.2,0 0.4,0.2 0.4,0.2 0,0 0.1,0.1 0.1,0.2 0,0 0,0.1 0,0.1 0.1,0 0.2,0 0.3,0 0.1,0 0.1,0.1 0.3,-0.2 m -1,-1.8 h 2.4 c -0.3,-0.4 -0.7,-0.8 -1.2,-1 H 85 c -0.3,0.1 -0.7,0.1 -1,0 -0.2,-0.1 -0.3,-0.3 -0.5,-0.4 -0.3,-0.2 -0.6,-0.3 -0.9,-0.5 -0.4,-0.2 -0.4,-0.2 -0.4,-0.3 -0.1,-0.1 -0.1,-0.2 -0.3,-0.2 h -0.7 c 0,0 0,0 -0.3,0.1 -0.1,0.1 -0.3,0 -0.4,-0.1 h -0.7 c -0.6,0 -0.6,0 -0.7,0 -0.7,0.5 0.4,1.4 1.2,1 0.2,-0.1 0.3,-0.3 0.5,-0.3 0.2,0 0.4,0 0.6,0 0,0 0.6,0.2 0.7,0.5 0,0.1 0,0.1 0.1,0.2 0.2,0.1 0.5,0.2 0.8,0.2 0.2,0 0.3,0 0.4,0.2 0.2,0.4 0.5,0.5 0.8,0.6 M 111,191.6 c -0.1,-0.1 -0.3,-0.2 -0.4,-0.4 -0.1,-0.1 -0.2,-0.1 -0.2,-0.2 -0.2,-0.1 -0.2,-0.1 -0.3,-0.1 v 0 c -0.1,-0.1 -0.2,-0.2 -0.3,-0.4 -0.1,-0.1 -0.2,-0.1 -0.3,-0.2 h -0.3 c -0.1,0 -0.1,0.1 0,0.1 0,0 0.1,0.2 0,0.2 v 0.1 c -0.1,0 -0.3,-0.1 -0.4,-0.1 -0.1,0 -0.2,0.1 -0.2,0.2 0,0.1 0,0.1 -0.1,0.1 h -0.2 l -0.2,-0.2 -0.2,-0.2 c -0.1,-0.1 -0.2,-0.1 -0.3,-0.2 l -0.1,0.1 c 0.1,0.1 0.1,0.1 0.2,0.2 -0.3,-0.1 -0.3,-0.1 -0.3,-0.1 0,0 -0.3,0 -0.3,0.1 0,0.2 0.3,0.5 0.5,0.4 v -0.1 c 0.3,-0.1 0.6,0.2 0.8,0.4 -0.2,-0.1 -0.4,0 -0.7,0 l 0.3,0.3 0.1,-0.1 h 0.3 0.1 l 0.3,0.4 0.2,0.2 h 0.1 c 0.1,-0.1 0.2,-0.1 0.3,-0.1 h 0.1 c 0.2,-0.1 0.3,0.1 0.5,0.2 0.2,0.1 0.3,0.1 0.5,0 V 192 c -0.1,-0.2 -0.1,-0.2 -0.1,-0.2 0,-0.1 0,-0.1 0,-0.1 h 0.1 c 0,-0.1 -0.1,-0.2 0,-0.3 0.1,0.3 0.1,0.3 0.5,0.2 m -10.9,13.5 v 0 c 0,-0.1 -0.1,-0.2 -0.1,-0.3 -0.3,0 -0.3,0 -0.4,-0.1 -0.2,-0.1 -0.4,-0.2 -0.6,-0.3 0,-0.1 -0.1,-0.1 -0.2,-0.1 -0.2,-0.1 -0.4,0 -0.5,-0.1 -0.1,0 -0.2,-0.1 -0.3,-0.1 0.1,-0.4 0.1,-0.4 0.1,-0.5 0,-0.1 0.1,0 0.2,-0.1 0.1,-0.1 0.1,-0.3 0,-0.4 0,0 -0.1,-0.1 -0.1,-0.1 -0.1,0 -0.1,0 -0.2,0 -0.1,0 -0.2,0.1 -0.3,0.1 0,0.1 0,0.1 0,0.2 0,0.1 0,0.2 0,0.3 0,0 0,0.1 0,0.1 -0.2,0.4 -0.5,0.7 -0.8,1.1 -0.1,0.1 -0.2,0.2 -0.3,0.4 0,0.1 -0.1,0.2 0,0.4 0,0.1 0.1,0.2 0.1,0.3 h 1.9 c 0.2,0 0.2,0 0.5,0.2 0.2,0.2 0.5,0.4 0.8,0.5 0,0 0,-0.1 0.1,-0.1 0.1,0 0.2,-0.1 0,-0.7 0,-0.2 0,-0.5 0.1,-0.7 m -5.4,-0.6 v 0 c -0.1,0 -0.2,-0.1 -0.2,-0.1 0,0 -0.1,0 -0.1,0 -0.1,0 -0.2,0 -0.2,0 -0.1,0 -0.3,-0.1 -0.4,-0.2 -0.1,-0.1 -0.1,-0.1 -0.2,-0.1 -0.1,0 -0.1,0 -0.2,0 l -0.3,0.1 c 0.1,0 0.2,0.1 0.3,0.1 0.1,0.1 0.1,0.2 0.2,0.2 h 0.1 c 0.1,0.1 0.2,0.1 0.2,0.2 0,0.1 0.1,0.1 0.2,0.2 0.1,0 0.1,0.1 0.2,0.1 0,-0.1 0.1,0 0.4,-0.5 m -1.6,-22.6 c -0.2,0 -0.3,0 -0.5,-0.1 h -0.1 c 0.2,0 0.3,0.1 0.5,0.2 -0.1,0 -0.2,0 -0.3,0 0.1,0 0.2,0.1 0.3,0.1 v 0 0 c 0.2,0.1 0.4,0.1 0.5,0.2 -0.3,-0.1 -0.5,-0.2 -0.8,-0.3 l -0.3,-0.1 c -0.2,-0.1 -0.4,-0.1 -0.6,-0.2 v 0 h -0.1 c 0.2,0 0.4,0.1 0.6,0.1 h -0.1 0.1 c -0.1,0 -0.2,-0.1 -0.3,-0.1 v 0 c -0.1,0 -0.2,0 -0.2,0 -0.1,0 -0.1,0 -0.2,0 h 0.1 v 0 0 0 0 c -0.2,0 -0.3,-0.1 -0.4,-0.2 0.1,0 0.1,0 0.2,0 h -0.1 c 0.1,0 0.1,0 0.2,0 h -0.2 v 0 h -0.3 v 0 l -0.5,-0.1 c 0,0 0,0 0.1,0 h -0.1 -0.2 -0.1 v 0 H 90.4 90.3 90 v 0 H 89.8 90 l -0.4,-0.1 v 0 h -0.2 -0.2 0.1 v 0 0 c 0.1,0 0.2,0.1 0.4,0.1 h -0.1 -0.1 c -0.1,0 -0.2,0 -0.3,0 h 0.1 -0.1 v 0 h 0.1 v 0 0 h 0.1 v 0 0 l 0.2,0.1 v 0 0 0 0 0 0 0 h -0.1 v 0 0 h 0.1 v 0 h 0.1 0.1 v 0 h 0.1 0.1 v 0 0 0 H 90.1 90 v 0 0 h -0.1 v 0 h -0.1 -0.2 v 0 0 0 0 0 h -0.1 -0.1 c -0.1,0 -0.1,0 -0.2,0 l 0.2,0.1 v 0 h 0.1 v 0 0 h 0.1 v 0 h 0.1 v 0 H 90 v 0 0 0 0 0 0 h -0.1 v 0 0 h -0.1 v 0 0 0 0 0 0 h -0.1 l 0.1,0.1 0.2,0.1 v 0 0 0 l 0.1,0.1 v 0 H 90 89.9 v -0.1 0 0 0 0 0 0 0 h -0.1 v 0 0 0 h -0.1 v 0 0 0 0 0 0 0 h -0.1 v 0 h -0.2 v 0 0 0 H 89 v 0 0 0 0 0 h 0.1 v 0 h 0.1 v 0 h 0.1 v 0 h -0.1 -0.1 v 0 0 0 H 89 v 0 h -0.1 -0.1 v 0 0 0 0 0 0 0 0 0 0 0 0.1 0 0 0 l 0.1,0.1 c 0,0 -0.1,0 -0.1,0 v 0 0 h -0.2 v 0 l -0.1,0.1 v 0.1 0 h -0.1 v 0 0 0 0 0 0 0 0.2 h 0.1 v 0 0 0 h 0.1 0.1 v 0.1 0 0 0 0.1 0.1 0 h -0.1 v 0 h -0.1 v 0 h -0.1 -0.1 c 0,0 -0.1,0 -0.1,0 v 0 c 0,0 0,0 0,0.1 v 0 c 0,0 -0.1,0 -0.1,0 -0.1,0 -0.2,0 -0.3,0 v 0 0 0 0.1 0 0 h -0.1 c -0.1,0.1 -0.1,0.1 0.1,0.3 0.1,0 0.1,0 0.2,0.1 h 0.2 0.1 v 0 c 0,0 0.1,0.1 0.2,0.1 h 0.1 0.1 v 0 h 0.1 0.2 0.1 c 0,0.1 0,0.1 0,0.2 v 0 l -0.2,0.3 v 0 0 0 0 h -0.1 v 0 h -0.1 v 0 h -0.2 v 0 0.1 h -0.1 v 0.1 l 0.1,0.1 v 0 c 0.1,0 0.3,0.1 0.4,0.1 v 0 0 0 0 H 89 v 0 0 0 0 0 0 h 0.1 v 0 0 H 89 v 0 0 0 c 0,0 0,-0.1 -0.1,-0.1 H 89 c 0.1,0 0.1,0 0.2,0 v 0 0 0 0 -0.1 h 0.1 v 0 c 0.1,0 0.1,0 0.2,0 v 0 0 0 0 0 0 c 0.1,0 0.1,0 0.2,0 v 0 h 0.3 0.1 v 0 l 0.1,0.1 v 0 0 h 0.2 v 0 c 0,0 0.1,0 0.1,0.1 h 0.1 0.1 l 0.1,0.1 h 0.1 0.1 l 0.1,0.1 0.1,0.2 0.1,0.1 v 0 0 h 0.1 v 0 0 0 l 0.1,0.1 v 0 c 0,0 0.1,0.1 0.1,0.1 h 0.1 v 0 0 c 0,0 0,0 0.2,0.2 0,0 0.1,0.1 0.1,0.1 v 0 l 0.1,0.1 c 0,0 0,0.1 0,0.1 0,0.1 0,0.1 0.2,0.2 0,0.1 0.1,0.1 0.1,0.2 0,0.1 0,0.1 0,0.2 h 0.2 c 0,0.1 0.1,0.1 0,0.1 h -0.1 c 0,0.1 0.1,0.2 0.1,0.3 H 93 c 0,0 0,0.1 0.1,0.2 0.1,0.1 0.2,0.1 0.2,0.1 0.1,0 0.1,0 0.2,0 h 0.1 c 0.1,0 0.2,0 0.3,0 v -0.1 c 0.4,-0.2 0.5,0.3 0.8,0.3 v 0 c 0.2,0.1 0.3,0.2 0.5,0.3 v 0.1 H 95 v 0 h -0.2 c -0.3,0 -0.6,-0.3 -1,-0.1 0.1,0.1 0.2,0.2 0.4,0.3 v 0.1 h -0.1 c 0,0 -0.2,0.1 0,0.3 0.2,0.2 0.5,0.1 0.7,0.3 h 0.1 c 0,-0.1 0,-0.1 0.1,-0.2 0.1,0 0.2,0 0.3,0 0,-0.1 -0.1,-0.2 -0.2,-0.3 -0.1,0 -0.2,0 -0.3,0 l -0.1,-0.1 h -0.2 v -0.1 h 0.2 c 0.1,0.1 0.3,0.1 0.4,0.1 h 0.2 c 0.1,0 0.2,0.1 0.2,0.1 v 0 0.1 0.1 0.1 c 0,0 0,0 0,0.1 0.1,0.1 0.2,0.1 0.3,0.2 l 0.1,0.2 h -0.2 -0.1 c 0,0 0,0.1 -0.1,0.2 h -0.2 -0.1 -0.1 c 0.1,0.1 0.1,0.3 0.1,0.4 H 95 c 0,0.1 0,0.1 -0.2,0.2 v 0.1 0.1 c 0,0 0,0.1 0,0.1 0.2,0.2 0.6,0.2 0.7,0.5 -0.1,0 -0.1,0.1 -0.2,0.1 0,0 0.3,0.7 0.8,0.6 v -0.1 h 0.1 c 0,0 0.1,0 0.1,0 0.1,0.1 0.1,0.1 0.1,0.2 0,0 -0.1,0 -0.1,0 h -0.1 c 0.4,0.7 0.4,0.7 0.5,0.7 0.1,-0.1 0.1,-0.2 0.1,-0.3 H 97 c 0.2,0.2 0.3,0.5 0.4,0.8 0,0.1 -0.1,0.1 -0.2,0.2 -0.3,0.4 2.5,2.5 2.9,2.5 0.1,0 0.1,0 0.2,0 0.1,0 0.1,0 0.2,-0.1 v 0 c 0.6,0.1 1.6,1.2 1.8,0.4 v -0.1 l -0.1,-0.2 c -0.1,-0.3 0.1,-0.6 -0.1,-0.9 -0.2,-0.3 -0.4,-0.4 -0.6,-0.7 v -0.1 c 0.1,0 0.1,-0.1 0.2,-0.1 0.1,0 0.1,0 0.1,0 0.1,0 0.1,0 0.2,-0.1 -0.2,-0.3 -0.2,-0.3 -0.1,-0.4 h 0.1 v -0.1 c -0.1,-0.2 -0.2,-0.3 -0.3,-0.5 0.1,-0.3 -0.4,-0.4 -0.5,-0.6 0.2,0 0.2,0 0.3,-0.1 0,-0.1 -0.1,-0.2 -0.2,-0.3 h 0.5 c -0.1,-0.1 -0.2,-0.2 -0.2,-0.3 h 0.3 c 0.1,0.1 0.2,0.3 0.3,0.4 0.1,0 0.2,0 0.3,0 0.1,-0.1 0,-0.3 0.1,-0.4 h 0.1 c 0.1,0 0.2,0 0.2,-0.1 l -0.1,-0.1 c 0,-0.1 0,-0.2 0,-0.3 0,-0.1 0,-0.1 -0.1,-0.2 h 0.1 l -0.1,-0.2 0.1,-0.1 -0.1,-0.1 v -0.1 l 0.1,-0.1 c -0.1,-0.1 -0.2,-0.2 -0.3,-0.3 v 0 h 0.1 v 0 0 0 h 0.1 v 0 h 0.1 c 0.6,0.2 0.6,0.2 0.8,0.1 0.1,-0.1 0,-0.3 0,-0.4 0.1,0 0.1,0 0.2,0 0,0 0.1,-0.1 0.1,-0.1 v -0.1 h 0.1 c 0,-0.2 -0.2,-0.3 -0.2,-0.5 0.1,0 0.2,0 0.3,-0.1 0,-0.1 -0.1,-0.2 -0.2,-0.3 h -0.1 v 0.1 0.1 h -0.1 c -0.2,0 -0.3,-0.2 -0.5,-0.2 h -0.1 c -0.3,0 -0.5,-0.1 -0.7,-0.2 -0.1,0 -0.1,-0.1 -0.1,-0.2 v 0 c 0.1,0 0.2,0 0.2,-0.1 0,-0.1 0,-0.1 -0.1,-0.2 0.3,0.1 0.5,0.4 0.8,0.5 l 0.1,-0.1 -0.1,-0.1 c 0.1,0 0.2,0 0.2,-0.1 -0.6,-0.4 -1.3,-0.7 -1.9,-1 v -0.1 c 0.3,0.1 0.3,0.1 0.4,0.2 0,0 0.1,0 0.1,0 l -0.4,-0.3 -0.1,-0.1 c -0.3,-0.2 -0.4,-0.3 -0.6,-0.2 v 0.1 c -0.1,0 -0.1,0 -0.2,0 0,0 -0.1,-0.1 -0.1,-0.2 -0.1,-0.1 -0.2,-0.1 -0.3,-0.1 v 0 c 0.1,0 0.1,0 0.2,0 l 0.3,0.2 c 0.1,0 0.1,0 0.2,0 v 0.3 c 0,0 0.1,0 0.1,0 0.1,0 0.1,0 0.2,0 -0.2,-0.2 -0.4,-0.3 -0.7,-0.4 v 0.1 c -0.2,-0.1 -0.3,-0.1 -0.3,-0.2 0.1,0 0.2,0 0.3,0 l -0.1,-0.1 h 0.1 c 0,0 0,0 0.1,-0.1 -0.4,-0.2 -0.8,-0.3 -1.2,-0.5 v 0 h 0.1 l -0.4,-0.2 c -0.4,-0.2 -0.9,-0.2 -1.3,-0.4 l -0.1,-0.1 h -0.1 0.1 0.1 l 0.3,0.1 h 0.1 c 0.2,0.1 0.5,0.2 0.7,0.3 v 0 L 98,184 c -0.1,0 -0.1,-0.1 -0.2,-0.1 h -0.1 l -0.3,-0.1 h -0.1 -0.1 c -0.1,0 -0.2,-0.1 -0.3,-0.2 H 97 v 0 c 0,0 -0.4,-0.2 -0.6,-0.1 0.1,0 0.1,0.1 0.2,0.1 -0.2,-0.1 -0.3,-0.1 -0.5,-0.2 0,0 0,0 -0.7,-0.3 h 0.1 c -0.1,0 -0.2,-0.1 -0.3,-0.2 v 0 c -0.4,-0.2 -0.8,-0.4 -1.3,-0.5 h -0.1 -0.2 c -0.1,0 -0.2,-0.1 -0.3,-0.1 h 0.2 v 0 l -0.4,-0.1 v 0 c 0.3,-0.2 0.2,-0.3 0,-0.3 m -4.5,0 -0.1,-0.1 v 0 h -0.1 l -0.1,-0.1 -0.1,-0.1 v 0 H 88.1 88 v 0 h -0.1 c 0,0 0,0 -0.1,0 h -0.1 c 0,0 0,0.1 0,0.1 v 0 l -0.1,-0.1 v 0 c 0,0.1 0,0.1 0,0.1 0,0 -0.1,-0.1 -0.1,-0.1 h -0.1 c 0,0 0,0 -0.1,0.1 v 0 l -0.1,-0.1 h -0.1 v 0 H 87 86.8 l -0.1,0.1 h 0.1 c 0,0 0,0 0.1,0.1 v 0.1 c 0,0 -0.1,0 -0.1,0 v -0.1 h -0.1 v 0 c 0,0 0,-0.1 0,-0.1 h -0.1 v -0.1 0 h -0.1 c -0.1,0.1 -0.1,0.1 -0.2,0.1 h -0.1 v 0 0 l -0.2,0.1 v 0 l -0.1,0.1 h -0.1 l -0.1,0.1 v 0 0 l -0.1,0.1 h 0.1 c -0.1,0.1 -0.1,0.1 0,0.1 0.1,0 0.1,0.1 0.2,0.1 l 0.2,-0.1 0.1,-0.1 h 0.1 l -0.1,0.1 -0.1,0.1 -0.1,0.1 c 0.3,0 0.3,0 0.5,-0.1 h 0.1 0.2 l 0.1,-0.1 0.1,-0.1 0.1,-0.1 c 0.1,0 0.1,0 0.2,-0.1 h 0.1 -0.1 l -0.3,0.2 v 0 h 0.1 0.1 l -0.1,0.1 c 0,0 -0.1,0 -0.1,0 h -0.1 -0.1 c -0.1,0 -0.2,0 -0.3,0.1 v 0 h -0.1 l -0.1,0.1 h 0.1 v 0.1 0.1 h 0.2 -0.1 -0.1 c -0.1,-0.3 -0.1,-0.3 -0.3,-0.3 h -0.2 l -0.1,0.1 v 0.1 0.1 l 0.1,0.2 0.1,0.1 h 0.2 c -0.1,0.1 -0.2,0 -0.2,0.1 l -0.1,0.1 -0.1,-0.2 h -0.1 -0.2 -0.2 l -0.2,0.1 -0.1,0.1 -0.1,0.1 h 0.1 0.2 0.2 l -0.2,0.1 v 0.1 c 0.2,0 0.2,0 0.6,-0.2 l -0.1,0.2 -0.2,0.1 h -0.2 c -0.1,0 -0.2,-0.1 -0.2,-0.1 0,0 -0.1,-0.1 -0.1,-0.1 -0.1,0 -0.2,0 -0.3,0 -0.1,0.3 -0.1,0.3 -0.4,0.4 l -0.2,0.1 v 0.2 l 0.1,0.1 c 0.1,0 0.2,-0.1 0.3,-0.1 0.1,0 0.2,0.1 0.4,0.1 0.1,0 0.1,-0.1 0.2,-0.1 0,0.1 0,0.1 0.4,0 h 0.2 c 0,0 0,0 -0.1,0.1 v 0 c 0.1,0 0.2,0 0.3,0 H 86 c 0.4,-0.2 0.4,-0.2 0.5,-0.3 v -0.1 l -0.2,0.1 v -0.1 h 0.2 l 0.1,-0.2 v -0.2 h 0.1 c 0.3,0 0.3,0 0.3,0 0.1,-0.1 0,-0.2 0,-0.3 h 0.2 c 0,0 0,0 0.1,0 0,0 0,-0.1 -0.1,-0.2 -0.1,0 -0.2,-0.1 -0.3,-0.1 l -0.1,0.1 -0.1,0.1 v -0.1 l 0.2,-0.1 c 0,0 0,0 0.1,-0.1 h 0.1 v 0.1 c 0.2,0 0.2,0 0.4,-0.1 l -0.1,-0.1 h 0.2 l 0.1,0.1 h 0.1 l 0.1,-0.1 -0.1,-0.1 H 87.7 88 v -0.1 h 0.1 c 0.1,-0.1 0.2,-0.1 0.3,-0.3 h 0.1 v 0 l -0.1,-0.1 c 0,0 -0.1,0.1 -0.1,0.1 -0.1,0 -0.1,0 -0.2,0 v -0.1 h 0.1 0.2 c 0,0 0.1,0 0.1,-0.1 h 0.1 c 0,0.1 0,0.1 0,0.1 m -3.1,1.3 c 0,-0.1 0.1,-0.1 0.1,-0.2 -0.2,-0.1 -0.2,-0.1 -0.2,-0.1 v -0.1 l 0.1,-0.1 v -0.1 c -0.1,0.1 -0.1,0.1 -0.1,0.1 0,0 0.1,-0.1 0.1,-0.1 0,-0.1 -0.1,0 -0.1,-0.1 0,-0.1 0,0 0,-0.1 0,-0.1 0.1,-0.1 0.1,-0.2 v 0 0 c -0.1,0 -0.2,0 -0.2,0.1 h 0.1 v 0 c -0.1,0.1 -0.2,0.1 -0.2,0.1 h -0.1 c -0.1,0 -0.1,0 -0.1,0.1 0,0.1 0,0 -0.1,0.1 h -0.1 -0.1 l -0.2,0.1 h -0.1 l -0.2,0.1 h 0.1 l -0.2,0.1 v 0.1 h 0.1 0.2 0.2 v 0.1 c -0.1,0 -0.1,0 -0.2,0.1 h -0.1 l -0.2,0.1 v 0.1 l -0.1,0.2 0.2,0.1 h 0.2 l 0.1,0.1 0.1,-0.1 h 0.1 c 0,0 0,0 0.1,-0.1 l 0.1,-0.1 0.1,0.1 c 0,0 0.1,-0.1 0.1,-0.1 0,0 0,0 0.1,0 0.1,0 0.2,-0.2 0.3,-0.3 0,0 0,0 0,0 m -1.6,1 c 0.1,0 0.2,-0.1 0.2,-0.1 0,-0.1 0,-0.1 0,-0.2 h -0.3 l -0.2,0.2 0.3,0.1 m 2,1.2 v 0 -0.2 l -0.3,-0.1 -0.3,-0.1 -0.3,0.1 -0.4,0.1 H 84.3 L 84,185.1 h -0.3 l -0.1,-0.2 0.1,-0.2 0.1,-0.2 h -0.3 -0.2 c -0.1,0.2 -0.2,0.4 -0.2,0.6 l -0.3,0.2 v 0.2 l 0.1,0.2 h 0.4 l 0.3,-0.1 c 0.2,0.3 0.2,0.3 0.5,0.2 h 0.5 l 0.2,-0.1 0.1,-0.1 0.1,0.1 c 0.7,0 0.7,0 0.7,-0.2 0,0 0,-0.1 0.2,-0.1 m -5,0.3 h 0.2 v -0.1 l -0.2,0.1 m 1.3,-0.1 0.2,-0.2 -0.1,-0.1 v -0.2 h -0.2 l -0.4,0.1 -0.2,0.2 v 0.2 h 0.2 l 0.1,0.1 0.4,-0.1 m 0.6,-0.9 0.3,-0.2 0.1,-0.1 v -0.2 H 83 l -0.1,-0.1 h -0.2 l -0.2,0.2 0.1,0.1 0.1,0.1 0.1,0.2 m 0.7,-0.8 0.1,-0.1 h -0.4 l -0.2,0.1 -0.1,0.1 h 0.3 0.2 l 0.1,-0.1 m 0,-0.2 0.1,-0.1 v -0.1 h -0.2 v -0.1 l -0.2,0.1 -0.1,0.1 -0.2,0.2 h 0.1 0.2 z m 0.2,-0.8 h 0.2 l 0.2,-0.1 v 0 H 84 l -0.2,0.1 h 0.1 -0.2 m -1.2,0.9 0.2,-0.1 0.2,-0.1 v -0.1 l 0.1,-0.1 v -0.1 -0.1 H 82.9 L 83,183.1 V 183 h -0.1 l -0.3,0.1 -0.1,0.1 h 0.1 v 0.1 l -0.2,0.1 h -0.1 l -0.1,0.1 h 0.1 l -0.1,0.1 0.2,-0.1 h 0.1 0.2 l -0.1,0.2 -0.1,0.1 m -0.6,0.1 h 0.2 v -0.1 h -0.2 l -0.2,0.1 z m 0,0.8 c 0,0 0.1,-0.1 0.1,-0.1 0,0 0,-0.1 -0.1,-0.1 -0.1,0 -0.2,0 -0.2,0.1 v -0.2 h -0.2 c 0,0.1 -0.1,0.6 -0.3,0.4 l 0.1,-0.3 h -0.2 l -0.2,0.2 -0.2,0.2 v -0.2 l 0.2,-0.3 -0.1,-0.1 -0.3,0.2 c 0,0 -0.1,0.1 -0.1,0.2 0,0.1 0,0.2 0,0.3 l 0.1,0.1 0.2,-0.1 h 0.1 v 0.1 l -0.2,0.3 0.2,-0.1 h 0.2 0.2 l 0.2,-0.2 0.2,-0.2 c 0.2,-0.1 0.3,-0.1 0.3,-0.2 m -1.9,0.5 c 0.1,-0.1 0,-0.1 0,-0.1 v 0.1 c -0.1,-0.1 -0.2,0 -0.2,0 l -0.1,0.2 c 0.1,0 0.1,0 0.2,0 0,-0.1 0.1,-0.1 0.1,-0.2 m 1,-1 0.2,-0.1 0.2,-0.2 v -0.1 c -0.2,0 -0.3,0.2 -0.4,0.4 m 5.6,6.4 0.2,-0.3 -0.2,-0.3 c -0.2,0 -0.4,0 -0.6,0 -0.1,0.1 -0.2,0.2 -0.3,0.4 l 0.2,0.3 h 0.4 l 0.3,-0.1 m -4.3,-4.2 c 0.1,-0.1 0.2,-0.2 0.3,-0.2 -0.1,-0.1 -0.1,-0.1 -0.2,-0.1 H 82.2 L 82,186 c -0.4,0 -0.4,0 -0.4,0.1 -0.1,0.2 -0.2,0.2 -0.4,0.3 l -0.3,0.4 c -0.1,0.2 -0.1,0.3 -0.2,0.5 l 0.3,-0.1 0.3,-0.2 0.2,-0.3 0.3,0.1 0.3,-0.2 0.2,-0.2 m -2.4,1.1 0.3,-0.3 v -0.2 -0.2 l -0.1,-0.1 c 0.5,-0.2 0.5,-0.2 0.4,-0.5 v -0.1 h -0.2 l -0.2,0.2 H 80 V 186 l -0.3,0.1 -0.1,0.2 v 0.2 c -0.5,0.4 -0.5,0.4 -0.5,0.1 h -0.2 l -0.2,0.2 0.1,0.2 0.1,0.1 0.2,0.1 c 0,0.1 0,0.2 -0.1,0.3 v 0.1 c 0,0.1 0.2,0.2 0.2,0.2 0.1,-0.1 0.3,-0.1 0.4,-0.2 l 0.3,-0.1 m -1.5,-1 0.3,-0.3 v -0.1 l -0.3,-0.1 -0.3,0.1 c 0,0.1 0,0.2 0,0.2 0,0 0,0 0,0.3 l 0.3,-0.1 m -0.5,-0.3 0.2,-0.2 H 78 l -0.2,0.1 z m 3.3,-2.8 c 0.2,-0.1 0.2,-0.1 0.2,-0.1 0,0 0,-0.1 0,-0.1 H 81.2 81 l -0.4,0.1 h 0.1 0.3 l 0.2,0.1 m -0.5,0.3 0.2,-0.1 h -0.1 -0.2 -0.2 l -0.3,0.1 -0.3,0.2 v 0 h 0.2 0.2 l 0.2,-0.1 0.1,-0.1 h 0.2 m -0.8,0 H 80 l 0.3,-0.2 v -0.1 h -0.1 l -0.2,0.1 z m -0.4,1.5 0.4,-0.3 v -0.1 h -0.1 l -0.2,0.1 -0.1,-0.1 0.1,-0.2 0.2,-0.1 0.2,-0.2 h -0.1 l -0.2,0.1 h -0.2 l -0.1,0.1 c 0,0.1 0,0.1 -0.4,0.3 h 0.1 c -0.1,0.1 -0.2,0.1 -0.3,0.1 h -0.2 v -0.1 l 0.2,-0.2 v -0.1 h -0.1 v -0.1 0 l -0.3,0.1 -0.4,0.2 -0.3,0.1 -0.4,0.2 -0.3,0.2 h 0.2 l 0.1,0.1 h 0.2 0.3 l 0.2,0.1 h 0.2 c -0.1,0.1 -0.2,0.1 -0.3,0.1 h -0.2 l -0.3,0.1 -0.2,0.1 v 0.1 h 0.3 l 0.5,-0.1 0.4,-0.2 h 0.2 0.3 0.3 l 0.3,-0.3 m -0.5,-1 h 0.2 l 0.2,-0.1 h -0.2 v 0 l -0.2,0.1 m -1.9,0.7 0.6,-0.3 -0.3,0.1 -0.4,0.2 c 0,0 0.1,0 0.1,0 z m 2,-0.9 0.4,-0.2 -0.1,-0.1 -0.3,0.1 h -0.2 -0.1 c -0.4,0.1 -0.8,0.3 -1.1,0.5 h -0.2 l -0.3,0.1 -0.2,0.2 v 0.1 l 0.3,-0.1 -0.1,0.1 0.2,-0.1 0.2,-0.1 h 0.1 l 0.3,-0.2 0.3,-0.1 -0.2,0.2 h 0.2 l 0.3,-0.1 0.5,-0.3 m -1.5,4.8 0.2,-0.2 -0.1,-0.2 -0.4,-0.3 v -0.3 l 0.3,-0.3 v -0.2 l 0.3,-0.4 0.1,-0.3 -0.1,-0.2 h -0.3 l -0.3,0.3 -0.2,0.2 -0.2,0.3 -0.2,0.1 h -0.1 v -0.1 l 0.2,-0.2 0.1,-0.2 0.1,-0.3 h -0.2 l -0.2,0.2 -0.1,0.2 h -0.2 l -0.2,0.1 h -0.2 l 0.2,-0.2 0.3,-0.2 h -0.1 l -0.1,-0.1 H 76 l -0.3,0.2 -0.1,-0.1 0.2,-0.1 0.3,-0.2 v -0.1 h -0.2 l -0.4,0.2 -0.3,0.1 -0.3,0.1 -0.4,0.1 -0.3,0.3 -0.4,0.2 -0.2,0.1 h 0.2 l -0.1,0.2 0.3,-0.1 h 0.3 v 0.2 l -0.4,0.1 -0.3,0.1 -0.3,0.1 0.1,0.2 h 0.3 0.4 c 0.1,0 0.2,0 0.3,0 0.1,0 0.1,0.1 0.1,0.2 -0.1,0.1 -0.1,0.1 -0.2,0.2 h -0.5 -0.5 l -0.5,0.2 -0.2,0.4 h 0.4 0.3 l -0.2,0.4 0.1,0.2 h 0.4 0.4 l 0.4,-0.2 0.4,-0.1 0.5,-0.2 0.3,-0.1 v 0.1 h 0.3 l 0.3,0.3 h 0.3 0.3 L 77.1,189.2 77,189 h 0.2 l 0.4,-0.2 m -2.2,0.8 0.2,-0.3 -0.6,0.1 -0.7,0.3 0.3,0.1 0.4,-0.2 c 0.1,0.1 0.4,0 0.4,0 z m 0.2,-3.3 0.4,-0.1 0.3,-0.2 v -0.3 h -0.1 l -0.4,0.1 -0.1,-0.1 v -0.1 h -0.2 -0.4 l -0.2,0.2 -0.4,0.3 -0.7,0.4 -1.2,0.6 0.2,0.2 -0.4,0.5 0.5,-0.3 h 0.3 l 0.4,-0.2 c 0.5,-0.3 1,-0.6 1.5,-0.8 l 0.5,-0.2 m 22.2,16 0.2,-0.3 -0.3,-0.2 0.1,-0.3 -0.1,-0.5 H 97 l -0.2,-0.3 h -0.7 l -0.5,0.3 -0.3,0.2 -0.3,-0.1 0.1,-0.4 0.6,-0.2 0.7,-0.2 0.3,-0.3 h -0.5 l -0.5,-0.2 -0.7,-0.2 -0.4,-0.3 -0.5,-0.3 -0.2,-0.3 0.3,-0.1 0.1,-0.2 -0.5,-0.5 -0.6,-0.6 -0.8,-1 -0.3,-0.5 -0.4,0.6 c 0,0.2 0,0.3 0.1,0.5 l -0.5,0.2 -0.3,0.4 h -0.5 l -0.1,-0.3 -0.4,-0.2 -0.5,0.1 0.1,-0.6 v -0.8 -0.4 H 89 l -0.5,-0.3 -0.4,-0.4 -0.7,-0.4 -0.3,0.2 h -0.6 l -0.2,-0.2 h -0.7 l -0.3,0.3 0.2,0.4 -0.1,0.6 v 0.4 l 0.2,0.5 H 85 v 0.5 l -0.3,0.3 0.3,0.2 0.5,0.4 0.1,0.7 c 0,0.2 0,0.5 0,0.8 l -0.4,0.5 -0.6,0.4 -0.7,0.1 0.4,0.7 c 0,0.3 0,0.6 -0.1,0.8 l 0.2,0.5 -0.1,0.4 -0.4,0.5 -0.8,0.1 -0.4,-0.7 -0.5,-0.6 c 0,-0.2 0,-0.3 0.1,-0.5 l -0.1,-0.7 0.2,-0.6 -0.9,-0.1 h -0.7 l -0.3,-0.2 -0.8,-0.2 -0.2,-0.4 -0.6,-0.4 -0.6,-0.4 -1,0.2 -0.1,-0.4 -0.1,-0.8 -0.4,-0.2 -0.2,-0.3 0.4,-1 0.7,-0.7 0.6,-0.6 0.6,-0.2 0.5,-0.3 -0.1,-0.4 -0.6,-0.2 -0.6,-0.3 0.8,0.1 0.6,0.2 0.3,-0.1 0.2,-0.4 0.5,0.2 0.3,-0.1 0.1,-0.3 0.2,-0.1 0.2,-0.4 h -0.4 l -0.5,-0.1 -0.1,-0.2 -0.5,-0.2 h 0.4 l 0.5,0.2 0.3,0.1 0.4,-0.1 0.4,-0.3 -0.2,-0.3 h 0.4 l 0.2,0.3 -0.3,0.3 -0.3,0.5 c -0.1,0.2 -0.1,0.4 -0.2,0.7 l -0.5,0.1 v 0.3 h 0.4 c 0,0.1 0,0.2 0,0.3 0.2,0 0.4,0 0.6,-0.1 l 0.2,-0.3 h 0.6 l 0.3,0.1 0.3,0.1 h 0.5 l 0.1,-0.4 -0.4,-0.1 -0.1,-0.5 -0.5,-0.1 -0.3,-0.4 -0.4,-0.1 c 0,-0.1 0,-0.2 0.1,-0.3 l 0.3,0.1 0.2,-0.2 v -0.2 h 0.4 l 0.2,-0.3 0.4,-0.3 0.2,-0.3 -0.2,-0.3 -0.1,-0.4 0.4,-0.1 0.2,-0.3 -0.2,-0.3 -0.3,-0.2 -0.4,-0.2 h 0.5 l 0.1,-0.2 h 0.3 l 0.2,0.2 h 0.4 l 0.4,-0.1 -0.3,-0.3 0.2,-0.1 0.3,0.3 h 0.4 l 0.1,0.3 0.3,0.1 0.1,0.2 0.3,0.1 0.2,0.3 0.3,0.1 0.3,0.3 0.1,0.4 -0.4,0.4 -0.4,0.4 0.2,0.4 -0.7,0.1 -0.4,-0.1 c -0.1,0 -0.3,0 -0.4,0 l -0.5,0.4 c 0,0.1 0,0.3 0,0.4 l 0.6,0.1 H 86 v -0.2 l 0.2,-0.1 0.3,0.1 0.6,0.2 0.6,0.5 0.1,0.3 0.4,0.4 H 89 l 0.6,0.5 h 0.8 l 0.5,0.2 v -0.3 l -0.9,-0.6 -0.4,-0.3 -0.2,-0.3 0.6,0.3 1,0.5 0.5,0.3 c 0,-0.2 0,-0.3 -0.1,-0.5 l 0.2,-0.4 -0.5,-0.2 -0.2,-0.6 -0.6,-0.2 -0.8,-0.8 0.2,-0.2 0.2,-0.2 1,0.7 0.4,0.4 0.4,0.1 v -0.5 l 0.4,-0.2 v -0.2 h 0.3 l 0.1,-0.2 -0.1,-0.3 h -0.6 c 0,-0.1 0,-0.1 0,-0.2 l -0.4,-0.3 h -0.3 l -0.4,-0.2 h -0.3 l -0.1,-0.2 -0.1,-0.2 h -0.5 -0.2 v -0.4 h 0.3 L 90,189.1 89.5,189 v -0.1 h 0.2 l -0.3,-0.2 -0.4,-0.1 0.1,-0.2 -0.3,-0.1 h -0.4 l -0.1,-0.2 H 88 87.9 l 0.2,-0.2 -0.4,-0.1 -0.4,0.1 -0.3,-0.3 v -0.2 0 -0.2 l -0.4,-0.1 h -0.5 l -0.1,0.2 h -0.3 l -0.2,-0.1 -0.1,0.2 h -0.3 v -0.3 l 0.2,-0.2 -0.2,-0.3 v -0.3 h -0.4 l -0.3,0.2 h -0.3 l -0.3,0.1 -0.2,0.3 0.1,0.3 -0.2,0.2 0.1,0.4 h -0.2 l -0.2,-0.3 0.1,-0.4 0.1,-0.3 0.3,-0.3 0.3,-0.2 h -0.4 -0.4 l -0.5,0.3 -0.5,0.5 -0.3,0.6 0.3,0.1 h 0.3 v 0.3 l -0.3,-0.1 -0.4,0.1 0.1,0.3 h 0.4 l 0.2,-0.1 0.2,0.2 0.5,0.2 -0.3,0.1 -0.1,0.3 0.2,0.2 -0.5,0.6 -0.3,0.4 -0.4,0.3 -0.2,-0.1 V 190 l 0.3,-0.3 -0.3,-0.5 -0.5,0.4 -0.2,-0.7 -0.1,-0.1 0.2,-0.3 0.1,-0.4 h -0.2 l 0.1,-0.3 -0.2,-0.3 h -0.4 l -0.2,0.2 H 80 l -0.4,0.3 -0.1,0.3 -0.2,0.2 0.1,0.4 0.2,0.2 -0.3,0.3 -0.3,-0.1 -0.1,0.4 h 0.3 l 0.5,-0.2 c -0.1,0.1 -0.1,0.3 -0.2,0.4 l -0.9,0.4 -0.2,0.6 -0.3,-0.3 0.3,-0.4 h -0.3 l 0.2,-0.4 h 0.2 l 0.2,-0.5 -0.4,-0.3 -0.3,0.4 -0.4,0.2 0.3,0.4 -0.4,0.2 -0.3,0.3 h -1 l -0.3,-0.3 -0.3,-0.1 -0.2,-0.3 -0.5,0.2 -0.7,0.2 -0.2,0.4 -0.5,0.6 0.2,-0.7 -0.3,-0.3 -0.6,0.1 -1,-0.2 0.2,-0.2 0.5,-0.1 -0.2,-0.4 H 72 l -0.5,-0.4 0.1,-0.3 -0.3,-0.1 h -0.2 l -0.4,0.2 h -0.3 l 0.4,-0.5 -0.6,0.4 -0.2,-0.1 0.5,-0.6 -0.1,-0.1 -0.6,0.4 -0.5,0.2 H 69 l -0.5,0.1 -0.7,0.2 0.8,-0.4 0.4,-0.1 0.3,-0.1 0.3,-0.2 h -0.1 l -0.5,0.1 -0.7,0.2 h -0.2 -0.2 l -0.9,0.3 -0.3,-0.1 0.3,-0.4 -0.4,-0.1 0.1,-0.2 -0.1,-0.1 -0.4,0.1 0.1,-0.2 h -0.2 v -0.2 h -0.2 -0.1 c -3.1,1.8 -6,4 -8.6,6.5 l 0.4,-0.1 -0.1,0.2 -0.6,0.2 -0.4,0.3 -0.2,0.2 -0.3,0.3 0.9,-0.4 0.4,-0.1 c 0.2,-0.2 0.4,-0.5 0.6,-0.6 l 0.2,0.1 -0.1,0.4 v 0.4 l 0.1,0.2 0.4,-0.1 0.1,0.2 h 0.2 l -0.1,0.4 0.1,0.4 c 0,0.2 0,0.4 0,0.6 0.1,0 0.2,-0.1 0.3,-0.1 v 0.3 l -0.1,0.4 0.3,0.2 -0.3,0.4 0.2,0.3 -0.3,0.3 0.1,0.2 0.2,0.1 -0.3,0.4 -0.1,0.5 -0.3,0.5 -0.2,0.5 0.3,0.1 -0.2,0.6 0.1,0.6 -0.1,0.4 0.2,0.3 0.3,0.2 0.3,0.2 -0.1,0.3 0.3,0.4 0.2,0.4 -0.1,0.8 -0.3,0.6 -0.1,-0.4 -0.1,-0.5 0.1,-0.3 -0.2,-0.3 -0.2,-0.1 0.2,-0.5 h -0.3 l -0.1,-0.3 -0.1,-0.1 -0.2,-0.1 h -0.3 v 0.4 l 0.1,0.3 0.1,0.4 0.3,0.6 -0.1,0.6 -0.1,0.8 -0.3,0.6 -0.4,0.8 c -0.1,0.3 -0.2,0.6 -0.4,1 l -0.3,0.2 -0.2,0.6 v 0.7 l -0.3,0.6 -0.1,0.5 0.1,0.5 -0.2,0.7 0.1,0.6 0.3,0.5 v 1 l 0.2,0.4 v 0.5 l 0.2,0.6 h 0.5 l 0.3,0.4 0.5,0.4 0.3,0.5 v 0.6 l 0.1,0.6 0.1,1.1 0.3,0.5 0.4,0.5 0.1,0.4 -0.4,0.3 0.2,0.4 0.4,0.4 0.5,0.5 0.3,0.5 -0.1,0.4 0.1,0.3 0.5,0.2 0.4,0.5 0.3,0.4 v 0.5 l 0.3,-0.1 0.1,-0.5 -0.2,-0.6 -0.4,-0.2 v -0.5 l -0.4,-0.4 -0.1,-0.7 -0.1,-0.6 -0.4,-0.5 -0.1,-0.6 -0.4,-0.2 -0.1,-0.8 -0.4,-0.6 0.1,-0.8 H 60 l 0.5,0.3 0.2,0.5 -0.1,0.7 0.4,1 0.5,0.8 0.5,0.6 0.3,0.5 v 0.6 l 0.6,0.4 0.4,0.6 0.3,0.6 0.7,0.9 0.2,0.7 0.4,0.4 -0.4,0.3 -0.1,0.5 0.8,0.7 0.6,0.6 0.8,0.3 0.8,0.6 1,0.5 1.1,0.6 0.9,0.3 H 71 l 0.2,-0.3 0.6,-0.1 0.7,0.4 0.8,0.7 0.4,0.5 h 0.7 0.6 l 0.4,0.2 0.4,0.6 0.8,0.3 v -0.4 l 0.5,0.2 c 1.4,1.8 1.4,1.8 1.3,2.2 l 0.3,0.3 0.3,-0.1 0.5,0.2 c 0.9,0.8 0.9,0.8 1.3,0.8 l 1.1,0.6 0.6,0.3 v -0.6 l 0.3,-0.4 1.1,0.1 0.1,0.4 h 0.3 l 0.2,-0.5 -0.4,-0.5 H 83 82.3 l -1.1,-0.1 -0.5,-0.3 -0.7,-0.7 v -0.6 -1.2 l 0.2,-1 c 0,-0.2 0,-0.4 0,-0.7 l -0.3,-0.5 -0.7,-0.4 -1,0.1 -0.8,-0.2 -0.8,0.3 -0.5,-0.4 0.5,-0.4 v -0.7 l 0.2,-0.4 0.3,-0.7 c 0,-0.3 0,-0.5 0,-0.8 l 0.4,-0.3 0.1,-0.6 -0.3,-0.2 -1.1,0.1 -0.7,0.1 -0.3,0.5 -0.3,0.8 -0.3,0.7 -0.6,0.1 -0.8,0.2 -0.9,0.1 -0.4,-0.6 -0.7,-0.4 -0.2,-0.6 -0.5,-0.8 -0.2,-1.4 -0.1,-1 0.4,-0.8 0.2,-0.9 -0.3,-0.9 0.7,-0.8 h 0.5 l 0.6,-0.4 0.6,-0.5 0.7,0.1 0.5,0.2 0.4,-0.2 0.3,0.5 h 0.6 0.5 l -0.1,-0.4 0.2,-0.6 h 0.8 l 0.6,-0.1 1,0.1 0.4,0.5 H 79 l 0.2,-0.3 0.3,-0.1 0.5,0.5 0.4,0.6 v 0.6 l 0.2,0.4 0.1,0.4 0.3,0.3 0.2,0.5 0.4,0.2 v 0.5 l 0.4,0.1 0.2,-0.3 0.2,-0.5 -0.2,-0.6 -0.2,-1 -0.5,-0.9 c 0,-0.4 0,-0.7 0.1,-1.3 0.1,-0.2 0.2,-0.4 0.2,-0.6 l 0.5,-0.8 0.6,-0.2 0.8,-0.6 0.7,-0.5 0.7,-0.3 0.1,-0.5 0.5,-0.3 -0.4,-0.8 -0.3,-0.4 0.2,-0.4 -0.3,-0.4 0.5,-0.2 0.4,0.6 0.3,-0.6 0.3,-0.5 0.3,-0.3 0.3,-1 h 1 l 0.6,-0.3 0.7,-0.1 -0.2,-0.4 v -0.9 l 0.5,-0.6 h 0.6 l 0.2,-0.4 H 91 l 0.6,-0.4 0.4,-0.5 c 1.1,0 1.1,0 1.7,0.1 l -0.2,0.2 c -0.3,0 -0.6,0 -0.9,0 l -0.5,0.4 c 0,0.2 0,0.4 0.1,0.5 l 0.4,0.2 0.4,-0.3 0.3,-0.2 0.6,-0.2 0.6,-0.3 0.6,-0.1 0.4,-0.6 0.4,-0.4 v -0.5 l -0.6,0.2 -0.4,0.7 h -0.8 l -0.6,-0.3 -0.7,-0.5 -0.4,-0.8 0.5,-0.4 -0.1,-0.6 -0.8,-0.1 -0.9,0.3 -1,0.6 -0.9,0.9 -0.8,0.5 0.3,-0.5 0.5,-0.5 0.3,-0.3 -0.8,-0.2 h 1 l 0.2,-0.5 0.5,-0.4 H 91 l 0.2,-0.5 0.5,-0.2 h 0.8 l 1.5,-0.1 0.8,0.1 h 0.6 l 0.5,-0.4 0.4,-0.6 0.9,-0.1 0.6,-0.2"
   id="path370" />
	</g>
</g>
<path
   class="st5"
   d="m 79.46875,36.789981 c -7.2,8 -14.9,15.5 -23.1,22.5 -4.1,3.5 -8.3,6.8 -12.6,10.1 -4.3,3.3 -8.7,6.3 -13.3,9.2 -2.3,1.4 -4.6,2.8 -7,4.1 -2.4,1.3 -4.8,2.5 -7.3,3.6 -2.6,1.1 -5.2,2 -8,2.5 -1.5,0.3 -3,0.3 -4.5,0 -0.8,-0.2 -1.6,-0.6 -2.2,-1.2 -0.6,-0.6 -1.1,-1.4 -1.3,-2.3 -0.3,-1.5 -0.2,-3 0.3,-4.5 0.4,-1.3 0.9,-2.7 1.5,-3.9 1.2,-2.4 2.6,-4.8 4.2,-7 3.1,-4.4 6.6,-8.6 10.3,-12.5 -3.2,4.3 -6.4,8.6 -9.2,13.2 -1.4,2.2 -2.6,4.6 -3.7,7 -0.5,1.2 -0.9,2.4 -1.2,3.6 -0.3,1.1 -0.4,2.3 -0.1,3.5 0.1,0.4 0.4,0.9 0.7,1.2 0.4,0.3 0.8,0.5 1.3,0.6 1.2,0.2 2.4,0.2 3.5,-0.1 2.5,-0.6 5,-1.4 7.3,-2.5 4.8,-2.2 9.5,-4.7 13.9,-7.6 4.5,-2.8 8.9,-5.8 13.2,-9 4.3,-3.1 8.6,-6.4 12.8,-9.7 8.4,-6.6 16.5,-13.6 24.5,-20.8 z"
   id="path376" />
<path
   class="st6"
   d="m 95.46875,32.189981 c -1.7,1.5 -5.7,-0.3 -8.9,-4 -3.2,-3.7 -4.4,-7.9 -2.7,-9.4 l 19.2,-16.6999999 11.6,13.3999999 z"
   id="path378" />
<path
   class="st6"
   d="m 114.66875,15.389981 c -1.7,1.5 -5,-0.9 -8.2,-4.6 -3.2,-3.6999999 -5.1,-7.2999999 -3.4,-8.7999999 3.8,-3.3 15.2,-1.5 15.2,-1.5 0,0 0.2,11.5999999 -3.6,14.8999999 z"
   id="path380" />
<path
   class="st6"
   d="m 103.26875,36.489981 c 2.6,-2.2 3.5,-14.1 3.5,-14.1 l -13.9,12 5.5,6.3 z"
   id="path382" />
<rect
   x="47.490849"
   y="86.875244"
   transform="rotate(-41.002132)"
   class="st7"
   width="5.2001019"
   height="8.4001646"
   id="rect384"
   style="stroke-width:1.00002" />
<path
   class="st6"
   d="m 80.66875,10.389981 c 2.6,-2.1999999 14.5,-1.3999999 14.5,-1.3999999 l -13.9,12.0999999 -5.5,-6.3 z"
   id="path386" />
<rect
   x="47.426517"
   y="60.769024"
   transform="rotate(-41.002132)"
   class="st7"
   width="5.2001019"
   height="8.4001646"
   id="rect388"
   style="stroke-width:1.00002" />
<path
   class="st7"
   d="m 95.56875,31.489981 c -0.3,0 -0.7,0 -1,0 -0.2,0 -0.4,-0.1 -0.5,-0.1 -0.4,-0.1 -0.8,-0.2 -1.2,-0.4 -1.9,-1 -3.6,-2.3 -5,-3.9 -1.4,-1.6 -2.5,-3.5 -3.2,-5.5 -0.1,-0.4 -0.2,-0.8 -0.3,-1.2 0,-0.2 0,-0.4 0,-0.6 0,-0.3 0,-0.7 0.1,-1 0,-0.1 0.1,-0.3 0.2,-0.4 0.1,-0.3 0.3,-0.5 0.5,-0.7 l -3.6,3.2 c -1.7,1.5 -0.5,5.7 2.7,9.4 3.2,3.7 7.2,5.5 8.9,4 l 3.6,-3.2 c -0.2,0.2 -0.4,0.3 -0.7,0.4 -0.2,0 -0.3,0 -0.5,0 z"
   id="path390" />
<path
   class="st7"
   d="m 102.26875,25.689981 c -0.3,0 -0.7,0 -1,0 -0.2,0 -0.4,-0.1 -0.5,-0.1 -0.4,-0.1 -0.8,-0.2 -1.2,-0.4 -1.9,-1 -3.6,-2.3 -5,-4 -1.4,-1.6 -2.5,-3.5 -3.2,-5.5 -0.1,-0.4 -0.2,-0.8 -0.3,-1.2 0,-0.2 0,-0.4 0,-0.6 0,-0.3 0,-0.7 0.1,-1 0,-0.1 0.1,-0.3 0.2,-0.4 0.1,-0.3 0.3,-0.5 0.5,-0.7 l -3.6,3.2 c -1.7,1.5 -0.5,5.7 2.7,9.4 3.2,3.7 7.2,5.5 8.9,4 l 3.6,-3.2 c -0.2,0.2 -0.5,0.3 -0.7,0.4 -0.2,0.1 -0.4,0.1 -0.5,0.1 z"
   id="path392" />
<path
   class="st7"
   d="m 108.96875,19.889981 c -0.3,0 -0.7,0 -1,0 -0.2,0 -0.4,-0.1 -0.5,-0.1 -0.4,-0.1 -0.8,-0.2 -1.2,-0.4 -1.9,-0.9 -3.6,-2.3 -5,-3.9 -1.4,-1.6 -2.5,-3.5 -3.2,-5.4999999 -0.1,-0.4 -0.2,-0.8 -0.3,-1.2 0,-0.2 0,-0.4 0,-0.6 0,-0.3 0,-0.7 0.1,-1 0,-0.1 0.1,-0.3 0.1,-0.4 0.1,-0.3 0.3,-0.5 0.5,-0.7 l -3.6,3.2 c -1.7,1.4999999 -0.5,5.6999999 2.7,9.3999999 3.2,3.7 7.2,5.5 8.9,4 l 3.6,-3.2 c -0.2,0.2 -0.5,0.3 -0.7,0.4 -0.1,0 -0.3,0 -0.4,0 z"
   id="path394" />
</svg>
