<svg xmlns="http://www.w3.org/2000/svg" xmlns:xlink="http://www.w3.org/1999/xlink" xml:space="preserve" id="katman_1" width="118.271" height="89.791" x="0" y="0" version="1.0"><style id="style340" type="text/css">.st6{fill:#f1886a}.st7{fill:#ea5835}</style><path id="path362" d="M104.069 44.69c.2 24.7-19.7 44.9-44.4 45.1-24.7.2-44.9-19.7-45.1-44.4-.2-24.7 19.7-45 44.4-45.1 24.7-.2 44.9 19.6 45.1 44.4" style="fill:#312a65"/><g id="g374" transform="translate(-30.731 -181.61)"><defs id="defs365"><path id="SVGID_1_" d="M134.8 226.3c.2 24.7-19.7 44.9-44.4 45.1-24.7.2-44.9-19.7-45.1-44.4-.2-24.7 19.7-45 44.4-45.1 24.7-.2 44.9 19.6 45.1 44.4"/></defs><clipPath id="SVGID_00000167361847539020474910000011431275020708551554_"><use xlink:href="#SVGID_1_" id="use367" style="overflow:visible"/></clipPath><g id="g372" clip-path="url(#SVGID_00000167361847539020474910000011431275020708551554_)"><path id="path370" d="M95.7 181.7h.1-.1M94.8 181.5h.2-.2m-.1.1h-.3.3m26.5 12.6-.1-.1c-.7-.7-1.4-1.3-2-1.8l-.3-.2c.8.6 1.6 1.3 2.3 2l.2.2c0-.1 0-.1-.1-.1m11.4 17.1s0 .1 0 0m-.4-.9c.1.3.3.6.4.9v-.1c0-.1 0-.1-.1-.2v-.1c-.1-.1-.2-.3-.3-.5m-2.5-5.2c-.5-.9-1-1.7-1.5-2.5.5.7.9 1.4 1.3 2.2.1.1.2.2.2.3m-8.5-11 .3.3-.3-.3c.1 0 .1 0 0 0m5.5 58-.2.2c.6-.8 1.2-1.6 1.7-2.5-.3.4-.8 1.2-1.5 2.3m3.4-5.5c.6-1 1-2 1.5-3v.1c-.5 1-1 2-1.5 2.9m2.9-7c0 .1 0 .1 0 0 .3-.9.6-1.9.8-2.8-.2 1-.5 1.9-.8 2.8M134.7 219.6l.3 2.1-.3-2.1m-50-24.7V194.3h-.4l-.4.2.1.5h.5l.2-.1m-1.4-.7v-.2c-.1 0-.1.1-.2.1h-.2c-.1 0-.3.1-.4.2-.1 0-.1.1-.2.1.1 0 .1.1.2.2h.2c.1 0 .2-.1.3-.2.2-.1.2-.1.3-.2m3-7.5.4-.1-.3-.3h-1v.5h.6l.3-.1m7.8-5.2-.5-.1h-.1.1l.7.1.5.1H95.8l-.9-.1h.1H94.1m1.3.1h-.3l-.4-.1h-.1c.2 0 .4 0 .5.1h.3-.2l.4.1-.2-.1c.2.1.4.1.5.1-.1 0-.3 0-.4-.1.1 0 .3 0 .4.1h.8c-.1 0-.4-.1-.7-.1H95.4m1.7.5c-.1 0-.3 0-.4-.1h.1l-.6-.1c.2 0 .4.1.6.1h-.1l-.3-.1H96.1h.2-.1l.9.2c-.3 0-.5 0-.7-.1h-.2c.2 0 .6.1.7.1h.2-.1c.1 0 .2 0 .3.1l.3.1h.3c.1 0 .2.1.3 0-.1-.1-.2 0-.4-.1h.2c0 .1 0 .1-.9-.1M100.9 183h-.1c-.1 0-.2-.1-.3-.1l-.5-.1c-.3-.1-.7-.2-1-.2 0 0-.5-.1-.6-.1h.1-.2l-.4-.1c-.3.1-.6-.1-1-.2.2 0 .3.1.5.1h.2c.6.1.6.1.8.2-.1 0-.3 0-.4-.1h-.5l-.3-.1c.2 0 .3.1.5.1h-.3c-.1 0-.3-.1-.4-.1l.3.1c.7.2 1.3.3 2 .5-.2 0-.5-.1-.7-.2.1 0 .9.2 1 .2-.2-.1-.3-.1-.5-.1.2 0 .4.1.6.1-.1 0-.5-.1-.6-.2l-.2-.1c.2 0 .2 0 .6.1l-.3-.1h.1c.1 0 .3.1.4.1h.1-.1.1l.3.1.3.1h-.1.1l-.3-.1c.1 0 .6.2.6.2h-.1c.5.2 1.1.3 1.6.4l-1.3-.4c-.3-.1-.5-.2-.7-.2l-.9-.3c1 .3 1 .3 1.9.5-.1 0-.3-.1-.4-.1.2 0 .4.1.6.1h-.5m20.4 11.6-.1-.1-.1-.1s0 .1.2.2m-10.6-7.8-.6-.3h.1l.5.3m3.7 2-2.6-1.5c-.1 0-.2-.1-.2-.1l.3.2-.4-.2h-.1l-.4-.2.2.1c-.1 0-.2-.1-.2-.1l-.2-.1-.3-.2c-.2-.1-.4-.2-.5-.2l.4.2s-.1-.1-.2-.1l-.2-.1-.2-.1c.3.2.3.2.6.3l.1.1.1.1c-.3-.2-.4-.2-.6-.3l-.3-.2c.2.1.7.4.7.4-.1 0-.2-.1-.4-.2h-.1c.2.2.5.3.7.4.1.1.2.1.3.2h-.2c.5.3.6.3.7.4l-.9-.4c.1.1.2.1.2.2.3.1.6.3.9.5-.1 0-.1 0-.4-.2.1.1.4.3.4.3.1.1.2.1.4.2l.1.1.1.1c-.3-.1-.5-.2-.8-.4.2.1.3.2.4.3h-.1c.1.1.3.2.4.3l.2.2c.1.1.2.1.2.2l.1.1h.1l-.2-.2-.1-.1v-.2c.1 0 .2.1.3.1.1.2 2.4 1.9 2.4 2l-.1-.1c.1.2.3.4.5.6h.1c.1.1.1.1.9 1h-.2l.2.2.2.2v.1c.2.2.3.5.5.7.2.5.6.7 1 1l.1.1.2.2h.1c.6-.1.4.8.9.8l.3.3c.2 0 .4 0 .6-.1-.1-.1-.1-.2-.2-.3h.1v-.1l-.2-.2s.2 0 .6.5c.2-.1.4-.1.7-.2-.2-.3-.4-.5-.6-.7l-.1-.1-.9-.6c-.3-.2-.6-.5-.9-.8-1-1-2.1-1.9-3.3-2.8l.4.2c-.1 0-.1-.1-.2-.1.1.1.3.2.4.3l.4.3c.3.2.6.4.9.7h-.1c.3.3.3.3 2.1 1.8l.1.1c.2.2.5.4 1.1.8l-.2-.2h.1c0-.1-.1-.1-.2-.2v-.1l-.1-.1.2.2.1.1c.3.2.5.5.8.7-.1 0-.1-.1-.2-.2 0 .1.1.1.1.2h-.3c.1.1.2.3.4.4.1-.1.1-.2 0-.3l-.2-.2c-3.5-3-3.6-3.1-5.6-4.5l-.7-.5c-.3-.2-.3-.2-.8-.5 0-.7.3-.5.3-.5m5.8 6.3c-.2 0-.4.1-.6.1l.1.1.1.1.1.1h.1l.2.2v-.1h.1V195.3s-.1-.1-.1-.2m.8-.3c-.2.1-.4.2-.7.2.1.1.3.2.4.4l.4.4c.1.1.2.2.3.2l.1.1.1.1c.2.2.3.3.5.4l.4.4v.1l.2.2.2-.1c-.4-.4-.4-.4-.4-.5l.1.1c0-.1-.1-.1-.1-.2l-.3-.3h.1l-.3-.3c-.1 0-.1-.1-.2-.1-.2-.3-.4-.5-.6-.7 0-.1-.1-.2-.2-.4m4.8 4.5c-1.3-1.6-3.1-3.6-4.6-5 .1.1.1.2.1.3.2.2.3.4.5.5 0-.1 0-.1-.2-.3.2.1.2.1 1.1 1.1l-.3-.3h-.1l-.2-.2h-.1c.6.6 1.1 1.3 1.7 1.9l.1.1h-.2c.2.2.3.4.5.6-.2-.1-.3-.3-.5-.4.1.2.2.4.3.7l-.1.1v.1h-.1c-.1-.1-.2-.2-.3-.4h-.1v.1l-.1.1c0 .1 0 .1.2.4h-.1c-.1 0-.1 0-.4-.3h-.1l-.2-.2s-.1-.1-.1-.2 0-.1.1-.1l.3.2c0-.2-.5-.8-.8-1.1-.1-.1-.1 0-.1 0 0 .1 0 .1.1.4-.1-.1-.1-.1-.3-.4l-.2-.2h-.1c-.2-.3-.5-.6-.8-.9 0 .2.3.4.3.6 0 .1.1.1.1.2l.1.1c.3.4.7.9 1 1.2l.1.1c.1.1.1.2.2.3l.4.4c.1.1.1.2.2.3h-.1l-.1.1H122.6V199.5c.1.1.2.3.2.4 0 .1 0 .2.1.3l.2.1.3.4c-.1.1-.1.1 0 .6v.1h-.1c.1.3.3.5.4.7-.1 0-.1.1-.2.1 0 .2.1.3.2.4h-.5l-.1-.1c-.1 0-.1-.1-.2-.1.1.1.1.3.2.4.1.1.2.3.3.5l.1.1c0 .1.1.1.1.2-.2.1-.5 0-.6-.1-.1 0-.1.1-.2.1-.1.1-.1.2.1.4h.1c.2.2.4.2.4.2h.1c.2.2.4.4.7.6.1.2.2.4.4.7.9 1 .9 1 1.2 2.2 0 .1 0 .1-.1.2l-.1.1c-.2-.1-.5-.1-.7-.3-.3 0-.5 0-.7.1-.3 0-.3 0-.4-.1h.2v.1c0 .1.1.1.1.2-.1.1-.2.1-.3.1v.1c.4.4.4 1 .8 1.4.1.3.2.6.3.8 0 .4.1.8.3 1.2 0 .1.1.1.1.2v.2c0 .2 0 .3.2.7h.2c.1 0 .1-.1.2-.1l.2.2c.1 0 .1-.1.2-.1.1.1.3.2.4.2.1.2.2.3.3.5V213.1c.4 0 .1-.7.6-.7.2-.3.2-.8.6-1l-.2-.5c-.3-.3-.4-.8-.5-1.2v-.2c0-.1.1-.1.1-.1 0-.3 0-.3.1-.6.1 0 .1 0 .2-.1 0-.1-.1-.3-.2-.4l-.1-.1c-.4-.7-.6-1.1-.1-.9.1.1.2.1.3.2h.2v-.1c-.1-.2-.1-.3-.2-.5 0-.1.1-.1.1-.1l.1-.1c0-.1 0-.3-.1-.4.7.1.6.8 1 1.2.1.1.2.2.2.3.8.7 1.4 1.6 1.9 2.6v.4c-.1 0-.2 0-.3.1 0 0 .1.1.1.2.2.2.2.4.4.6h.2l-.2-.5c0-.5-.2-1-.3-1.5 0 0 0-.1-.1-.1h-.1s-.1-.1-.1-.2l-.1-.2h.1c.1.1.2.2.2.3-.1-.6-.6-.9-.9-1.4-.2-.1-.9-1.1-1-1.2-.1-.1-.2-.3-.2-.4h-.1c-.1-.1-.2-.2-.2-.3V205.9c-.1-.1-.2-.3-.3-.4h.1c.5.5 1.1 1.1 1.5 1.8.3.4.6.9.9 1.3.6 1.3.6 1.3.7 1.4l.3.6v-.1c0 .1 0 .2.3.7V210.9c.1.3.3.6.4.9h.1c0-.1 0-.3-.1-.4l-.1-.2c0-.1-.1-.2-.1-.3l.1.1c-.1-.2-.1-.4-.2-.6 0-.1-.1-.3-.2-.4 0 .1.1.2.1.3-.1-.2-.6-1.1-.6-1.1s0-.1-.1-.1v-.1c0 .1.1.1.1.2-.1-.2-.2-.4-.2-.6.1.1.2.3.3.5 0 .1.1.2.1.2.1.4.3.7.5 1.1l.1.2c0 .1.1.1.1.2s.1.2.1.4V211.5c0 .1.1.2.1.3v.2c0 .1.1.3.1.4v.1l-.1-.2s0-.1-.1-.2c0-.1-.1-.2-.1-.3 0-.1 0-.1-.1-.2-.7-1.7-1.8-4-2.6-5.7-2.1-4.3-2.5-4.9-3.7-6.6m-8.5-3.4v.2l.1.1s0 .1.1.2c0 .1.1.1.1.1h.1v-.2c-.1-.1-.1-.2-.1-.2l-.1-.1v-.1c-.1.1-.1.1-.2 0m5.7 4.5c-.1-.1-.1-.2-.2-.2-.2-.1-.3-.3-.5-.5 0 .1.2.2.1.3l-.6-.7h-.1c-.2-.3-.5-.7-.6-.6l-.1-.1c-.1-.1-.3-.2-.4-.3-.2-.1-.3-.3-.4-.4-.2-.1-.4-.1-.5-.2l-.1-.3h.1l-.1-.1c-.1-.1-.1-.3-.2-.4-.1-.1-.2-.3-.4-.4l-.5.1c-.4-.7-.4-.8-.5-.8H117.7l.3.5c.1.1.3.2.3.4-.1.1-.2-.1-.4-.1.1.3.3.5.5.5l.1.1.1.1.3.3c-.1.1-.1.1.1.4h.1l.3.2h.1c-.1-.1-.1-.1-.1-.2.2.2.4.4.5.6v.1c.1.1.1.2.2.2h.3v-.1c.4.1.4.6.8.7.1.2.4.3.4.6-.1 0-.2-.1-.4-.1v.1s0 .1.1.1h-.1c.1.2.1.2.2.2.2-.2.2 0 .3.2h-.1c0 .1 0 .1.1.2h-.1c0 .1.2.4.3.3 0 0 0-.1.1-.1l.5.1s.3.3-.1.3v.2l-.1.1c.2.4.2.4.2.6l.1.1c.1 0 .1-.1.1-.1v-.2l.2.1h.2l-.2-.3h.4v-.2c.1 0 .2.1.3.2 0 0 .1 0 .2-.1 0 0-.1-.1 0-.2h.1v-.1c-.1-.1-.2-.3-.4-.4v-.1l-.1-.1h.1l-.1-.2-.4-.3m-3-1.3-.5-.5c-.1-.1-.1-.1-.2-.1l-.1-.1s0 .1-.1.1v.2c-.1-.1-.2-.1-.3-.2h-.1c.1.2.3.4.4.6v.1h-.1l-.1.1-.1-.1h-.1l.6.8h.2l.2.4h-.1c0 .1 0 .2.1.2.1.1.1.2.2.3v.1c.1.3.4.4.4.4 0-.1.1-.1.2 0v-.4l.5-.1c0-.1-.1-.1-.1-.2l-.1-.1c-.1-.1-.1-.1-.1-.2-.1-.3-.3-.6-.5-.8l-.2-.2h.1c-.1-.1-.1-.2-.1-.3m14.5 19.6-.7-3.4c-.2-.3-.3-.7-.5-1-.1.7.3 1.3.4 2l-.1-.1c-.1-.2-.2-.3-.3-.5-.1 0-.2.1-.2.1l-2.3-4.4c-.1.3-.5.5-.7.8-.3-.4-.3-.4-.6-.5-.1.2-.2.4-.2.7-.2 0-.4.1-.6.2.1.6.1.6 0 .8h-.3l-.2.2h-.5c-.2.1-.5 0-.7-.2l-.2-.1c0 .4.1.9.2 1.3-.2 0-.3.1-.5.1l.3 1.2c-.2 0-.4.1-.5.3.1.6.2 1.3.3 1.9 0 .2.1.3.1.5l-.5.1c0 .4-.1.9-.3 1.3-1.2.8-.1 2.3-1.1 3.1h-.1l-.2.1c0 .1 0 .1-.4 2.3v.5h.8c0 .1.1.2.1.2-.2.5-.2.5-.2 2.5v.5c-.1.3-.1.3-.4.6 0 .3.1.7.1 1v.3c0 .7.1.8.6 1.5h.3c.1.2.2.5.2.8h.3c-.1 1.3-.1 1.3.9 1.8 0 .3-.1.5-.1.8.4.3.5.8 1.1 1 .2-.2.2-.5.4-.7.2 0 .4 0 .5-.1h.6l.1.2c.7-.1.7-1.1 1.6-1.1l.1-.1c.1-.2.2-.3.3-.4l.2.1c-.1 1-.1 1 .1 1.2.3-.1.5-.1.8-.2-.1.3-.1.6-.2 1.1-1.8 7.2-1.8 7.2-2.2 7.8 0 .1-.1.2-.1.3-.7 1.6-1.2 2.7-4.9 8.3l-.9 1.2c-1 1.3-2.2 2.6-3.4 3.8l-.2.2c-.4.3-.4.3-.6.5-.4.4-.4.4-.6.5l.1-.1c1.4-1.3 3.1-3 4.4-4.3 1.6-1.8 1.6-1.8 4.3-5.6 1.3-2 1.3-2 3.3-6.3 1-2.2 1-2.2 2.3-6.8.8-3.5 1.3-7.1 1.3-10.7.1-2.3.1-2.3-.6-7.1m-21.4 27.6c.1-1.4-.1-1.5-.3-1.7h-.7c-.7-.2-.8-1.4-1.8-1.1h-.9c-.6-.3-1-.5-1.1 0-.2.1-.3.2-.7-.1 0-.1 0-.1.4-.4-1-.6-1-.6-1.5-.7-.1 0-.2 0-.3-.1-.2-.2-.5-.2-.8-.1 0 .2-.1.4-.1.7h-.6c0-.1 0-.3.1-.4l.3-.3.2-.1v-.2s-.3-.1-.8-.2h-.4l-.2.1c0 .4-.1.6-.7.5 0-.1 0-.3.1-.4 1-1 1-1 .7-1.5h-.4c0-.3 0-.5.1-.8l-.3-.9s-1.5-.7-1.9-.9c-.4-.2-.8.1-1.1.1h-.4c-1.4-.2-1.5-.5-1.8-1.4-.1 0-.1 0-.9-.4v-.2c-.5-.1-.5-.4-.5-.7h-.3c-.6.2-.6.2-.8.2 0-.2-.1-.4-.1-.6.1 0 .2-.1.3-.2-.1-.2-.2-.2-.7-.3l-.4.3h-.1c-.2-.1-.4-.1-.6-.1-.3.7-.3.7-.6.7-.3-.2-.6-.6-1-.6-.3 0-.6 0-1-.1l-.4-.1c0-.2 0-.3-.2-.4-.5 0-.8-.5-1.3-.3 0 .2-.1.4-.2.5-.3 0-.5.1-.7.3-.2.4.2.9 0 1.3-.8-.4-.1-1.2-.5-1.7.1-.3.7-.8.7-.8l-.1-.2h-.3c-.5.1-.5.1-.5.6h-1c-.4.4-1 .6-1.5.5 0 .3 0 .6-.1.9-.2.2-.4.2-.6.2-.1.2-.2.5-.3.7-.6.4-.7.7-.7.9.1.1.2.1.4.1 0 .6.7 1.3 0 1.8-.1.9-.1.9-.3 1.1h-.4c0 .1.1.4.1.5-.1.1-.3.2-.4.2v.3c-.4.1-.7.1-.6.8-.2 0-.4 0-.6.1 0 .4 0 .8.1 1.2l.2.1c.2-.1.4-.1.6 0 0 .1 0 .3-.1.4-.2.1-.4.1-.6.2 0 .3 0 .3-.4.6-.1.3-.1.3.2.7v.1c.1 1.3 1.9 1.4 2.1 2.7v.3c2.3 3.3 2.3 3.3 2.6 3.3 0 0 1.1.2 2.3 1.5h.4v2.1c0 .1 0 .1-.1.2 0 .1-.1.2 0 .4v.5s0 .1-.1.2c0 .1 0 .3.1.4V256.9c-.1.4-.4.7-.4 1.1-.1.5-.3 1-.5 1.5v.1c.3 1.4.3 1.7-.4 2.3v.5c-.1.3-.4.5-.6.8.3.5.2.7 0 1.3l.1.2c.1.1.1.2.1.3l-.2.1c-.1.4-.1.4-.1.5l.2.1h.3v-.6h.3c0 .1 0 .2-.1.3l-.2.1v.4l-.1.7c-.1-.1-.2-.1-.2-.2v-.2h-.1c0 .1 0 .1.2.3.1.1.1.2.1.3-.1-.1-.3-.2-.4-.2 0 .1 0 .1-.2.3v.2c.1 0 .3.1.4.1v.2h.2c0 .1 0 .1.1.2-.4 0-.4 0-.6.1 0 .1 0 .1.1.2l.1.1v.2c0 .1.1.2.2.3h-.1.1s.1 0 .1.2h.2v.1c.1.2.4.3.5.5h.2l.1.1c.1.1.3 0 .4.1h.7c.1-.1.1-.1.2-.1-.1 0-.3 0-.4-.1 0 0 0-.1-.2-.1 0-.1 0-.3-.1-.4 0-.1 0-.2-.1-.4v-.1c0-.1 0-.2.1-.3h.3v-.2c.3-.2.6-.5.9-.7 0 0 0-.1-.1-.1h-.2c-.3-.3-.3-.3-.3-.4v-.1c.1-.1.2-.1.4-.2h.5c0-.2.1-.3.2-.5.1-.1.2-.3.3-.5.4 0 .4 0 .5-.2l-.1-.1c-.1.1-.2.1-.4.1V264.5h.3l.2.1c.2 0 .4 0 .6-.2l.1-.2.2-.1V263.5h.8c.1 0 .3 0 .4-.1h.6s.8-.5 1.1-.8l.2-.2.1-.3h-.2c0-.1 0-.1.1-.3-.1-.2-.3-.3-.4-.4v-.2h.4c1.5.2 1.5.2 2.2-.3 1.7-1.6 1.7-1.6 1.8-1.6-.1.1-.2.2-.2.3.1 0 2.2-1.5 2.2-2.2 0-.4 0-.8 1.8-1.8h.6c.2-.1.5-.3.7-.4.5 0 1-.1 1.4-.2 0-.1.1-.2.2-.3.2-.1.2-.1 1.7-1.8.1 0 .1 0 .7-1.1 0-.1.1-.2.1-.2.2-.2.4-.5.5-.8 0-.1.1-.2.1-.3v-.2c0-.1.1-.3.1-.4.1-.3.2-.6.4-.8 0 0 1.3-1.1 1.6-1.4l1.2-1.3c0 .4.2.1.2-.1m-19.6-17.4c0-.1-.2 0-.3-.2-.1-.1 0-.3 0-.4-.3.1-.6.1-.9.2H92c-.2 0-.3-.1-.5-.2h-.1c-.1 0-.2.2-.3.2h-.5c-.2 0-.3-.2-.5-.3-.2-.1-.4-.3-.7-.3h-1.1c-.2 0-.4 0-.6.1v.9l.6.6h.3c.4 0 .6-.4 1-.4.2 0 .3.1.5.1s.3-.1.5-.1c.4 0 .8 0 1.2-.1.1-.1.2-.1.3 0 .3.1.5.1.8.1h.3c.2 0 .2-.1.3-.2m-8.3.4c0-.1.1-.3 0-.4-.1-.1-.2 0-.3-.1-.1 0-.2-.1-.3-.2h-1c.1.1.1.2.2.3l.1.1h.2c.2 0 .4.2.4.2s.1.1.1.2v.1h.3c.1 0 .1.1.3-.2m-1-1.8h2.4c-.3-.4-.7-.8-1.2-1H85c-.3.1-.7.1-1 0-.2-.1-.3-.3-.5-.4-.3-.2-.6-.3-.9-.5-.4-.2-.4-.2-.4-.3-.1-.1-.1-.2-.3-.2h-.7l-.3.1c-.1.1-.3 0-.4-.1h-1.4c-.7.5.4 1.4 1.2 1 .2-.1.3-.3.5-.3h.6s.6.2.7.5c0 .1 0 .1.1.2.2.1.5.2.8.2.2 0 .3 0 .4.2.2.4.5.5.8.6m26.8-35.9c-.1-.1-.3-.2-.4-.4-.1-.1-.2-.1-.2-.2-.2-.1-.2-.1-.3-.1-.1-.1-.2-.2-.3-.4-.1-.1-.2-.1-.3-.2h-.3c-.1 0-.1.1 0 .1 0 0 .1.2 0 .2v.1c-.1 0-.3-.1-.4-.1-.1 0-.2.1-.2.2s0 .1-.1.1h-.2l-.2-.2-.2-.2c-.1-.1-.2-.1-.3-.2l-.1.1.2.2-.3-.1s-.3 0-.3.1c0 .2.3.5.5.4v-.1c.3-.1.6.2.8.4-.2-.1-.4 0-.7 0l.3.3.1-.1h.4l.3.4.2.2h.1c.1-.1.2-.1.3-.1h.1c.2-.1.3.1.5.2s.3.1.5 0v-.2l-.1-.2v-.1h.1c0-.1-.1-.2 0-.3.1.3.1.3.5.2m-10.9 13.5c0-.1-.1-.2-.1-.3-.3 0-.3 0-.4-.1l-.6-.3c0-.1-.1-.1-.2-.1-.2-.1-.4 0-.5-.1-.1 0-.2-.1-.3-.1.1-.4.1-.4.1-.5 0-.1.1 0 .2-.1s.1-.3 0-.4l-.1-.1H98c-.1 0-.2.1-.3.1v.6c-.2.4-.5.7-.8 1.1-.1.1-.2.2-.3.4 0 .1-.1.2 0 .4 0 .1.1.2.1.3h1.9c.2 0 .2 0 .5.2.2.2.5.4.8.5 0 0 0-.1.1-.1s.2-.1 0-.7c0-.2 0-.5.1-.7m-5.4-.6c-.1 0-.2-.1-.2-.1H94.2c-.1 0-.3-.1-.4-.2-.1-.1-.1-.1-.2-.1h-.2l-.3.1c.1 0 .2.1.3.1.1.1.1.2.2.2h.1c.1.1.2.1.2.2s.1.1.2.2c.1 0 .1.1.2.1 0-.1.1 0 .4-.5m-1.6-22.6c-.2 0-.3 0-.5-.1h-.1c.2 0 .3.1.5.2h-.3c.1 0 .2.1.3.1.2.1.4.1.5.2-.3-.1-.5-.2-.8-.3l-.3-.1c-.2-.1-.4-.1-.6-.2h-.1c.2 0 .4.1.6.1h-.1.1c-.1 0-.2-.1-.3-.1h-.4.1c-.2 0-.3-.1-.4-.2h.2-.1.2-.5l-.5-.1h.1-.4.1H89.8h.2l-.4-.1h-.4.1c.1 0 .2.1.4.1h-.5.1-.1.2l.2.1h-.1.6H89.2l.2.1H90 89.7l.1.1.2.1.1.1h-.2v-.1H89 89.3h-.5v.1l.1.1H88.6l-.1.1v.1h-.1v.2H88.7V182.7h-.5v.1h-.4v.1h-.1c-.1.1-.1.1.1.3.1 0 .1 0 .2.1H88.3s.1.1.2.1h.6v.2l-.2.3h-.4v.1h-.1v.1l.1.1c.1 0 .3.1.4.1h.2-.1s0-.1-.1-.1H89.2v-.1h.9l.1.1h.2s.1 0 .1.1h.2l.1.1h.2l.1.1.1.2.1.1h.1l.1.1.1.1h.1l.2.2.1.1.1.1v.1c0 .1 0 .1.2.2 0 .1.1.1.1.2v.2h.2c0 .1.1.1 0 .1h-.1c0 .1.1.2.1.3h.4s0 .1.1.2.2.1.2.1H93.9v-.1c.4-.2.5.3.8.3.2.1.3.2.5.3v.1h-.4c-.3 0-.6-.3-1-.1.1.1.2.2.4.3v.1h-.1s-.2.1 0 .3c.2.2.5.1.7.3h.1c0-.1 0-.1.1-.2h.3c0-.1-.1-.2-.2-.3h-.3l-.1-.1h-.2v-.1h.2c.1.1.3.1.4.1h.2c.1 0 .2.1.2.1v.4c.1.1.2.1.3.2l.1.2H95.6s0 .1-.1.2h-.4c.1.1.1.3.1.4H95c0 .1 0 .1-.2.2V189.7c.2.2.6.2.7.5-.1 0-.1.1-.2.1 0 0 .3.7.8.6v-.1h.2c.1.1.1.1.1.2h-.2c.4.7.4.7.5.7.1-.1.1-.2.1-.3h.2c.2.2.3.5.4.8 0 .1-.1.1-.2.2-.3.4 2.5 2.5 2.9 2.5h.2c.1 0 .1 0 .2-.1.6.1 1.6 1.2 1.8.4v-.1l-.1-.2c-.1-.3.1-.6-.1-.9-.2-.3-.4-.4-.6-.7v-.1c.1 0 .1-.1.2-.1h.1c.1 0 .1 0 .2-.1-.2-.3-.2-.3-.1-.4h.1v-.1c-.1-.2-.2-.3-.3-.5.1-.3-.4-.4-.5-.6.2 0 .2 0 .3-.1 0-.1-.1-.2-.2-.3h.5c-.1-.1-.2-.2-.2-.3h.3c.1.1.2.3.3.4h.3c.1-.1 0-.3.1-.4h.1c.1 0 .2 0 .2-.1l-.1-.1v-.3c0-.1 0-.1-.1-.2h.1l-.1-.2.1-.1-.1-.1v-.1l.1-.1-.3-.3H102.8c.6.2.6.2.8.1.1-.1 0-.3 0-.4h.2l.1-.1v-.1h.1c0-.2-.2-.3-.2-.5.1 0 .2 0 .3-.1 0-.1-.1-.2-.2-.3h-.1v.2h-.1c-.2 0-.3-.2-.5-.2h-.1c-.3 0-.5-.1-.7-.2-.1 0-.1-.1-.1-.2.1 0 .2 0 .2-.1s0-.1-.1-.2c.3.1.5.4.8.5l.1-.1-.1-.1c.1 0 .2 0 .2-.1-.6-.4-1.3-.7-1.9-1v-.1c.3.1.3.1.4.2h.1l-.4-.3-.1-.1c-.3-.2-.4-.3-.6-.2v.1h-.2s-.1-.1-.1-.2c-.1-.1-.2-.1-.3-.1h.2l.3.2h.2v.3H101.3c-.2-.2-.4-.3-.7-.4v.1c-.2-.1-.3-.1-.3-.2h.3l-.1-.1h.1l.1-.1c-.4-.2-.8-.3-1.2-.5h.1l-.4-.2c-.4-.2-.9-.2-1.3-.4l-.1-.1h-.1.2l.3.1h.1c.2.1.5.2.7.3l-1-.5c-.1 0-.1-.1-.2-.1h-.1l-.3-.1h-.2c-.1 0-.2-.1-.3-.2h.1s-.4-.2-.6-.1c.1 0 .1.1.2.1-.2-.1-.3-.1-.5-.2l-.7-.3h.1c-.1 0-.2-.1-.3-.2-.4-.2-.8-.4-1.3-.5H93.6c-.1 0-.2-.1-.3-.1h.2l-.4-.1c.3-.2.2-.3 0-.3m-4.5 0-.1-.1h-.1l-.1-.1-.1-.1h-.5v.1l-.1-.1v.1l-.1-.1h-.1l-.1.1-.1-.1h-.4l-.1.1h.1l.1.1v.1h-.1v-.1h-.1v-.1h-.1v-.1h-.1c-.1.1-.1.1-.2.1h-.1l-.2.1-.1.1h-.1l-.1.1-.1.1h.1c-.1.1-.1.1 0 .1s.1.1.2.1l.2-.1.1-.1h.1l-.1.1-.1.1-.1.1c.3 0 .3 0 .5-.1H86.8l.1-.1.1-.1.1-.1c.1 0 .1 0 .2-.1h.1-.1l-.3.2h.2l-.1.1H86.8c-.1 0-.2 0-.3.1h-.1l-.1.1h.1v.2h.2-.2c-.1-.3-.1-.3-.3-.3h-.2l-.1.1v.2l.1.2.1.1h.2c-.1.1-.2 0-.2.1l-.1.1-.1-.2h-.5l-.2.1-.1.1-.1.1h.5l-.2.1v.1c.2 0 .2 0 .6-.2l-.1.2-.2.1h-.2c-.1 0-.2-.1-.2-.1l-.1-.1h-.3c-.1.3-.1.3-.4.4l-.2.1v.2l.1.1c.1 0 .2-.1.3-.1.1 0 .2.1.4.1.1 0 .1-.1.2-.1 0 .1 0 .1.4 0h.2l-.1.1h.4c.4-.2.4-.2.5-.3v-.1l-.2.1v-.1h.2l.1-.2v-.2h.4c.1-.1 0-.2 0-.3H87.3s0-.1-.1-.2c-.1 0-.2-.1-.3-.1l-.1.1-.1.1v-.1l.2-.1.1-.1h.1v.1c.2 0 .2 0 .4-.1l-.1-.1h.2l.1.1h.1l.1-.1-.1-.1h-.1.3v-.1h.1c.1-.1.2-.1.3-.3h.1l-.1-.1-.1.1h-.2v-.1H88.4s.1 0 .1-.1h.1v.1m-3.1 1.3c0-.1.1-.1.1-.2l-.2-.1v-.1l.1-.1v-.1l-.1.1.1-.1c0-.1-.1 0-.1-.1v-.1c0-.1.1-.1.1-.2-.1 0-.2 0-.2.1h.1c-.1.1-.2.1-.2.1h-.1c-.1 0-.1 0-.1.1s0 0-.1.1h-.2l-.2.1h-.1l-.2.1h.1l-.2.1v.1h.5v.1c-.1 0-.1 0-.2.1h-.1l-.2.1v.1l-.1.2.2.1h.2l.1.1.1-.1h.1l.1-.1.1-.1.1.1.1-.1h.1c.1 0 .2-.2.3-.3m-1.6 1c.1 0 .2-.1.2-.1v-.2h-.3l-.2.2.3.1m2 1.2v-.2l-.3-.1-.3-.1-.3.1-.4.1h-.3l-.3-.1h-.3l-.1-.2.1-.2.1-.2h-.5c-.1.2-.2.4-.2.6l-.3.2v.2l.1.2h.4l.3-.1c.2.3.2.3.5.2h.5l.2-.1.1-.1.1.1c.7 0 .7 0 .7-.2 0 0 0-.1.2-.1m-5 .3h.2v-.1l-.2.1m1.3-.1.2-.2-.1-.1v-.2h-.2l-.4.1-.2.2v.2h.2l.1.1.4-.1m.6-.9.3-.2.1-.1v-.2H83l-.1-.1h-.2l-.2.2.1.1.1.1.1.2m.7-.8.1-.1h-.4l-.2.1-.1.1h.5l.1-.1m0-.2.1-.1v-.1h-.2v-.1l-.2.1-.1.1-.2.2H83.2zm.2-.8h.2l.2-.1H84l-.2.1h.1-.2m-1.2.9.2-.1.2-.1v-.1l.1-.1v-.2h-.1l.1-.1v-.1h-.1l-.3.1-.1.1h.1v.1l-.2.1h-.1l-.1.1h.1l-.1.1.2-.1H82.7l-.1.2-.1.1m-.6.1h.2v-.1h-.2l-.2.1zm0 .8.1-.1s0-.1-.1-.1-.2 0-.2.1v-.2h-.2c0 .1-.1.6-.3.4l.1-.3h-.2l-.2.2-.2.2v-.2l.2-.3-.1-.1-.3.2s-.1.1-.1.2v.3l.1.1.2-.1h.1v.1l-.2.3.2-.1h.4l.2-.2.2-.2c.2-.1.3-.1.3-.2m-1.9.5c.1-.1 0-.1 0-.1v.1c-.1-.1-.2 0-.2 0l-.1.2h.2c0-.1.1-.1.1-.2m1-1 .2-.1.2-.2v-.1c-.2 0-.3.2-.4.4m5.6 6.4.2-.3-.2-.3H86c-.1.1-.2.2-.3.4l.2.3h.4l.3-.1m-4.3-4.2c.1-.1.2-.2.3-.2-.1-.1-.1-.1-.2-.1h-.2l-.2-.1c-.4 0-.4 0-.4.1-.1.2-.2.2-.4.3l-.3.4c-.1.2-.1.3-.2.5l.3-.1.3-.2.2-.3.3.1.3-.2.2-.2m-2.4 1.1.3-.3v-.4l-.1-.1c.5-.2.5-.2.4-.5v-.1h-.2l-.2.2H80v-.3l-.3.1-.1.2v.2c-.5.4-.5.4-.5.1h-.2l-.2.2.1.2.1.1.2.1c0 .1 0 .2-.1.3v.1c0 .1.2.2.2.2.1-.1.3-.1.4-.2l.3-.1m-1.5-1 .3-.3v-.1l-.3-.1-.3.1v.5l.3-.1m-.5-.3.2-.2H78l-.2.1zm3.3-2.8.2-.1v-.1H81l-.4.1h.4l.2.1m-.5.3.2-.1h-.5l-.3.1-.3.2h.4l.2-.1.1-.1h.2m-.8 0h.1l.3-.2v-.1h-.1l-.2.1zm-.4 1.5.4-.3v-.1h-.1l-.2.1-.1-.1.1-.2.2-.1.2-.2h-.1l-.2.1h-.2l-.1.1c0 .1 0 .1-.4.3h.1c-.1.1-.2.1-.3.1h-.2v-.1l.2-.2v-.1h-.1v-.1l-.3.1-.4.2-.3.1-.4.2-.3.2h.2l.1.1h.5l.2.1h.2c-.1.1-.2.1-.3.1h-.2l-.3.1-.2.1v.1h.3l.5-.1.4-.2h.8l.3-.3m-.5-1h.2l.2-.1h-.2l-.2.1m-1.9.7.6-.3-.3.1-.4.2h.1zm2-.9.4-.2-.1-.1-.3.1H78.8c-.4.1-.8.3-1.1.5h-.2l-.3.1-.2.2v.1l.3-.1-.1.1.2-.1.2-.1h.1l.3-.2.3-.1-.2.2h.2l.3-.1.5-.3m-1.5 4.8.2-.2-.1-.2-.4-.3v-.3l.3-.3v-.2l.3-.4.1-.3-.1-.2h-.3l-.3.3-.2.2-.2.3-.2.1h-.1v-.1l.2-.2.1-.2.1-.3h-.2l-.2.2-.1.2h-.2l-.2.1h-.2l.2-.2.3-.2h-.1l-.1-.1H76l-.3.2-.1-.1.2-.1.3-.2v-.1h-.2l-.4.2-.3.1-.3.1-.4.1-.3.3-.4.2-.2.1h.2l-.1.2.3-.1h.3v.2l-.4.1-.3.1-.3.1.1.2h1c.1 0 .1.1.1.2l-.2.2h-1l-.5.2-.2.4h.7l-.2.4.1.2h.8l.4-.2.4-.1.5-.2.3-.1v.1h.3l.3.3h.6l.3-.3-.1-.2h.2l.4-.2m-2.2.8.2-.3-.6.1-.7.3.3.1.4-.2c.1.1.4 0 .4 0zm.2-3.3.4-.1.3-.2v-.3h-.1l-.4.1-.1-.1v-.1H75.1l-.2.2-.4.3-.7.4-1.2.6.2.2-.4.5.5-.3h.3l.4-.2c.5-.3 1-.6 1.5-.8l.5-.2m22.2 16 .2-.3-.3-.2.1-.3-.1-.5H97l-.2-.3h-.7l-.5.3-.3.2-.3-.1.1-.4.6-.2.7-.2.3-.3h-.5l-.5-.2-.7-.2-.4-.3-.5-.3-.2-.3.3-.1.1-.2-.5-.5-.6-.6-.8-1-.3-.5-.4.6c0 .2 0 .3.1.5l-.5.2-.3.4h-.5l-.1-.3-.4-.2-.5.1.1-.6V195.3H89l-.5-.3-.4-.4-.7-.4-.3.2h-.6l-.2-.2h-.7l-.3.3.2.4-.1.6v.4l.2.5H85v.5l-.3.3.3.2.5.4.1.7v.8l-.4.5-.6.4-.7.1.4.7c0 .3 0 .6-.1.8l.2.5-.1.4-.4.5-.8.1-.4-.7-.5-.6c0-.2 0-.3.1-.5l-.1-.7.2-.6-.9-.1h-.7l-.3-.2-.8-.2-.2-.4-.6-.4-.6-.4-1 .2-.1-.4-.1-.8-.4-.2-.2-.3.4-1 .7-.7.6-.6.6-.2.5-.3-.1-.4-.6-.2-.6-.3.8.1.6.2.3-.1.2-.4.5.2.3-.1.1-.3.2-.1.2-.4h-.4l-.5-.1-.1-.2-.5-.2h.4l.5.2.3.1.4-.1.4-.3-.2-.3h.4l.2.3-.3.3-.3.5c-.1.2-.1.4-.2.7l-.5.1v.3h.4v.3c.2 0 .4 0 .6-.1l.2-.3h.6l.3.1.3.1h.5l.1-.4-.4-.1-.1-.5-.5-.1-.3-.4-.4-.1c0-.1 0-.2.1-.3l.3.1.2-.2v-.2h.4l.2-.3.4-.3.2-.3-.2-.3-.1-.4.4-.1.2-.3-.2-.3-.3-.2-.4-.2h.5l.1-.2h.3l.2.2h.4l.4-.1-.3-.3.2-.1.3.3h.4l.1.3.3.1.1.2.3.1.2.3.3.1.3.3.1.4-.4.4-.4.4.2.4-.7.1-.4-.1h-.4l-.5.4v.4l.6.1h.5v-.2l.2-.1.3.1.6.2.6.5.1.3.4.4h.8l.6.5h.8l.5.2v-.3l-.9-.6-.4-.3-.2-.3.6.3 1 .5.5.3c0-.2 0-.3-.1-.5l.2-.4-.5-.2-.2-.6-.6-.2-.8-.8.2-.2.2-.2 1 .7.4.4.4.1v-.5l.4-.2v-.2h.3l.1-.2-.1-.3h-.6v-.2l-.4-.3h-.3l-.4-.2h-.3l-.1-.2-.1-.2h-.7v-.4h.3l.2-.2-.5-.1v-.1h.2l-.3-.2-.4-.1.1-.2-.3-.1h-.4l-.1-.2h-.4l.2-.2-.4-.1-.4.1-.3-.3v-.4l-.4-.1h-.5l-.1.2h-.3l-.2-.1-.1.2h-.3v-.3l.2-.2-.2-.3v-.3h-.4l-.3.2h-.3l-.3.1-.2.3.1.3-.2.2.1.4h-.2l-.2-.3.1-.4.1-.3.3-.3.3-.2h-.8l-.5.3-.5.5-.3.6.3.1h.3v.3l-.3-.1-.4.1.1.3h.4l.2-.1.2.2.5.2-.3.1-.1.3.2.2-.5.6-.3.4-.4.3-.2-.1v-.5l.3-.3-.3-.5-.5.4-.2-.7-.1-.1.2-.3.1-.4h-.2l.1-.3-.2-.3h-.4l-.2.2H80l-.4.3-.1.3-.2.2.1.4.2.2-.3.3-.3-.1-.1.4h.3l.5-.2c-.1.1-.1.3-.2.4l-.9.4-.2.6-.3-.3.3-.4h-.3l.2-.4h.2l.2-.5-.4-.3-.3.4-.4.2.3.4-.4.2-.3.3h-1l-.3-.3-.3-.1-.2-.3-.5.2-.7.2-.2.4-.5.6.2-.7-.3-.3-.6.1-1-.2.2-.2.5-.1-.2-.4H72l-.5-.4.1-.3-.3-.1h-.2l-.4.2h-.3l.4-.5-.6.4-.2-.1.5-.6-.1-.1-.6.4-.5.2H69l-.5.1-.7.2.8-.4.4-.1.3-.1.3-.2h-.1l-.5.1-.7.2h-.4l-.9.3-.3-.1.3-.4-.4-.1.1-.2-.1-.1-.4.1.1-.2h-.2v-.2H65.8c-3.1 1.8-6 4-8.6 6.5l.4-.1-.1.2-.6.2-.4.3-.2.2-.3.3.9-.4.4-.1c.2-.2.4-.5.6-.6l.2.1-.1.4v.4l.1.2.4-.1.1.2h.2l-.1.4.1.4v.6c.1 0 .2-.1.3-.1v.3l-.1.4.3.2-.3.4.2.3-.3.3.1.2.2.1-.3.4-.1.5-.3.5-.2.5.3.1-.2.6.1.6-.1.4.2.3.3.2.3.2-.1.3.3.4.2.4-.1.8-.3.6-.1-.4-.1-.5.1-.3-.2-.3-.2-.1.2-.5h-.3l-.1-.3-.1-.1-.2-.1h-.3v.4l.1.3.1.4.3.6-.1.6-.1.8-.3.6-.4.8c-.1.3-.2.6-.4 1l-.3.2-.2.6v.7l-.3.6-.1.5.1.5-.2.7.1.6.3.5v1l.2.4v.5l.2.6h.5l.3.4.5.4.3.5v.6l.1.6.1 1.1.3.5.4.5.1.4-.4.3.2.4.4.4.5.5.3.5-.1.4.1.3.5.2.4.5.3.4v.5l.3-.1.1-.5-.2-.6-.4-.2v-.5l-.4-.4-.1-.7-.1-.6-.4-.5-.1-.6-.4-.2-.1-.8-.4-.6.1-.8h.4l.5.3.2.5-.1.7.4 1 .5.8.5.6.3.5v.6l.6.4.4.6.3.6.7.9.2.7.4.4-.4.3-.1.5.8.7.6.6.8.3.8.6 1 .5 1.1.6.9.3h.6l.2-.3.6-.1.7.4.8.7.4.5H75l.4.2.4.6.8.3v-.4l.5.2c1.4 1.8 1.4 1.8 1.3 2.2l.3.3.3-.1.5.2c.9.8.9.8 1.3.8l1.1.6.6.3v-.6l.3-.4 1.1.1.1.4h.3l.2-.5-.4-.5h-1.8l-1.1-.1-.5-.3-.7-.7V233l.2-1v-.7l-.3-.5-.7-.4-1 .1-.8-.2-.8.3-.5-.4.5-.4v-.7l.2-.4.3-.7v-.8l.4-.3.1-.6-.3-.2-1.1.1-.7.1-.3.5-.3.8-.3.7-.6.1-.8.2-.9.1-.4-.6-.7-.4-.2-.6-.5-.8-.2-1.4-.1-1 .4-.8.2-.9-.3-.9.7-.8h.5l.6-.4.6-.5.7.1.5.2.4-.2.3.5h1.1l-.1-.4.2-.6h.8l.6-.1 1 .1.4.5h.2l.2-.3.3-.1.5.5.4.6v.6l.2.4.1.4.3.3.2.5.4.2v.5l.4.1.2-.3.2-.5-.2-.6-.2-1-.5-.9c0-.4 0-.7.1-1.3.1-.2.2-.4.2-.6l.5-.8.6-.2.8-.6.7-.5.7-.3.1-.5.5-.3-.4-.8-.3-.4.2-.4-.3-.4.5-.2.4.6.3-.6.3-.5.3-.3.3-1h1l.6-.3.7-.1-.2-.4v-.9l.5-.6h.6l.2-.4h.6l.6-.4.4-.5c1.1 0 1.1 0 1.7.1l-.2.2h-.9l-.5.4c0 .2 0 .4.1.5l.4.2.4-.3.3-.2.6-.2.6-.3.6-.1.4-.6.4-.4v-.5l-.6.2-.4.7h-.8l-.6-.3-.7-.5-.4-.8.5-.4-.1-.6-.8-.1-.9.3-1 .6-.9.9-.8.5.3-.5.5-.5.3-.3-.8-.2h1l.2-.5.5-.4h.6l.2-.5.5-.2h.8l1.5-.1.8.1h.6l.5-.4.4-.6.9-.1.6-.2" style="fill:#5b5480"/></g></g><path id="path376" d="M79.469 36.79c-7.2 8-14.9 15.5-23.1 22.5-4.1 3.5-8.3 6.8-12.6 10.1-4.3 3.3-8.7 6.3-13.3 9.2-2.3 1.4-4.6 2.8-7 4.1-2.4 1.3-4.8 2.5-7.3 3.6-2.6 1.1-5.2 2-8 2.5-1.5.3-3 .3-4.5 0-.8-.2-1.6-.6-2.2-1.2-.6-.6-1.1-1.4-1.3-2.3-.3-1.5-.2-3 .3-4.5.4-1.3.9-2.7 1.5-3.9 1.2-2.4 2.6-4.8 4.2-7 3.1-4.4 6.6-8.6 10.3-12.5-3.2 4.3-6.4 8.6-9.2 13.2-1.4 2.2-2.6 4.6-3.7 7-.5 1.2-.9 2.4-1.2 3.6-.3 1.1-.4 2.3-.1 3.5.1.4.4.9.7 1.2.4.3.8.5 1.3.6 1.2.2 2.4.2 3.5-.1 2.5-.6 5-1.4 7.3-2.5 4.8-2.2 9.5-4.7 13.9-7.6 4.5-2.8 8.9-5.8 13.2-9 4.3-3.1 8.6-6.4 12.8-9.7 8.4-6.6 16.5-13.6 24.5-20.8z" style="fill:#ed6e48"/><path id="path378" d="M95.469 32.19c-1.7 1.5-5.7-.3-8.9-4s-4.4-7.9-2.7-9.4l19.2-16.7 11.6 13.4z" class="st6"/><path id="path380" d="M114.669 15.39c-1.7 1.5-5-.9-8.2-4.6-3.2-3.7-5.1-7.3-3.4-8.8 3.8-3.3 15.2-1.5 15.2-1.5s.2 11.6-3.6 14.9z" class="st6"/><path id="path382" d="M103.269 36.49c2.6-2.2 3.5-14.1 3.5-14.1l-13.9 12 5.5 6.3z" class="st6"/><path id="rect384" d="M47.491 86.875h5.2v8.4h-5.2z" class="st7" style="stroke-width:1.00002" transform="rotate(-41.002)"/><path id="path386" d="M80.669 10.39c2.6-2.2 14.5-1.4 14.5-1.4l-13.9 12.1-5.5-6.3z" class="st6"/><path id="rect388" d="M47.427 60.769h5.2v8.4h-5.2z" class="st7" style="stroke-width:1.00002" transform="rotate(-41.002)"/><path id="path390" d="M95.569 31.49h-1c-.2 0-.4-.1-.5-.1-.4-.1-.8-.2-1.2-.4-1.9-1-3.6-2.3-5-3.9s-2.5-3.5-3.2-5.5l-.3-1.2v-.6c0-.3 0-.7.1-1 0-.1.1-.3.2-.4.1-.3.3-.5.5-.7l-3.6 3.2c-1.7 1.5-.5 5.7 2.7 9.4s7.2 5.5 8.9 4l3.6-3.2c-.2.2-.4.3-.7.4h-.5z" class="st7"/><path id="path392" d="M102.269 25.69h-1c-.2 0-.4-.1-.5-.1-.4-.1-.8-.2-1.2-.4-1.9-1-3.6-2.3-5-4-1.4-1.6-2.5-3.5-3.2-5.5l-.3-1.2v-.6c0-.3 0-.7.1-1 0-.1.1-.3.2-.4.1-.3.3-.5.5-.7l-3.6 3.2c-1.7 1.5-.5 5.7 2.7 9.4s7.2 5.5 8.9 4l3.6-3.2c-.2.2-.5.3-.7.4-.2.1-.4.1-.5.1z" class="st7"/><path id="path394" d="M108.969 19.89h-1c-.2 0-.4-.1-.5-.1-.4-.1-.8-.2-1.2-.4-1.9-.9-3.6-2.3-5-3.9s-2.5-3.5-3.2-5.5l-.3-1.2v-.6c0-.3 0-.7.1-1 0-.1.1-.3.1-.4.1-.3.3-.5.5-.7l-3.6 3.2c-1.7 1.5-.5 5.7 2.7 9.4s7.2 5.5 8.9 4l3.6-3.2c-.2.2-.5.3-.7.4h-.4z" class="st7"/></svg>