<svg xmlns="http://www.w3.org/2000/svg" width="250" height="250" fill="none"><path fill="#FF4A00" d="M148.9 125.36a57.166 57.166 0 0 1-3.669 20.154 57.246 57.246 0 0 1-20.16 3.672h-.084a57.176 57.176 0 0 1-20.16-3.669 57.092 57.092 0 0 1-3.675-20.16v-.09c0-7.095 1.302-13.89 3.66-20.16a57.026 57.026 0 0 1 20.166-3.669h.078c7.098 0 13.89 1.302 20.16 3.669a57.082 57.082 0 0 1 3.669 20.16v.09h.009l.006.003Zm70.278-15.96H163.45l39.402-39.405a95.868 95.868 0 0 0-22.506-22.5L140.938 86.9V31.169a95.937 95.937 0 0 0-15.858-1.33h-.102c-5.406 0-10.701.463-15.861 1.33v55.73L69.7 47.493A95.352 95.352 0 0 0 57.52 57.8l-.018.018a96.087 96.087 0 0 0-10.3 12.18L86.62 109.4H30.88s-1.326 10.47-1.326 15.882v.066a95.5 95.5 0 0 0 1.329 15.879h55.74L47.2 180.626a96.171 96.171 0 0 0 22.509 22.506l39.411-39.402v55.734a96.352 96.352 0 0 0 15.84 1.326h.135a96.42 96.42 0 0 0 15.84-1.326V163.73l39.414 39.411a96.241 96.241 0 0 0 12.189-10.308h.009a96.442 96.442 0 0 0 10.296-12.189l-39.402-39.414h55.74a95.829 95.829 0 0 0 1.32-15.846v-.138c0-5.31-.444-10.605-1.32-15.84l-.003-.006Z"/></svg>