<svg xmlns="http://www.w3.org/2000/svg" width="161.333" height="161.333" version="1.0" viewBox="0 0 121 121"><path d="m26.2 10.7.3 4.7 28.8 7.2c15.9 4 29.1 7.5 29.3 7.7.3.3-3.3 2.5-7.9 4.9l-8.4 4.5-20.9-5.3c-11.4-3-21-5.4-21.1-5.4-.2 0-.3 2.2-.3 4.8v4.9l13.8 3.4c7.5 1.8 14 3.6 14.4 3.9.4.3-5.8 3.9-13.7 8L26 61.5v5.2c0 2.9.2 5.3.4 5.3s8.7-4.3 18.8-9.6c10-5.3 26.1-13.7 35.6-18.6l17.2-9V23.5l-35.3-8.8C43.4 9.9 27.1 6 26.7 6c-.4 0-.7 2.1-.5 4.7zM80.5 57.6c-8.8 4.7-24.7 13-35.2 18.5L26 86.2v11.3l36 9.1 36.1 9.1-.3-5-.3-4.9-28.8-7.3c-15.8-4-29-7.5-29.3-7.8-.4-.3 3.2-2.5 7.9-4.8l8.5-4.3 18.9 4.7c10.3 2.6 19.8 5 21.1 5.3 2.1.6 2.2.3 2.2-4.3v-4.9l-12.9-3.2c-7-1.8-13.6-3.2-14.5-3.2-.9 0-1.6-.3-1.6-.8 0-.7 25.2-14.4 27.8-15 1.3-.4 1.8-11.3.5-11.1-.5 0-8 3.9-16.8 8.5z"/></svg>