<svg xmlns="http://www.w3.org/2000/svg" width="250" height="250" fill="none"><g fill="#000" clip-path="url(#a)"><path d="m44.586 9.7.68 10.7 65.32 16.392c36.062 9.107 66 17.075 66.454 17.53.68.683-7.485 5.692-17.917 11.156l-19.052 10.245-47.402-12.066c-25.856-6.83-47.629-12.294-47.856-12.294-.453 0-.68 5.008-.68 10.928v11.155l31.299 7.74c17.01 4.099 31.752 8.197 32.66 8.88.907.683-13.155 8.879-31.073 18.213l-32.886 17.075v11.838c0 6.602.453 12.066.907 12.066s19.732-9.789 42.64-21.855c22.68-12.067 59.195-31.19 80.741-42.346l39.011-20.49V38.841L127.37 18.807C83.597 7.879 46.628-1 45.72-1c-.907 0-1.587 4.78-1.134 10.7Zm123.155 106.775c-19.959 10.7-56.021 29.596-79.835 42.118l-43.773 22.994v25.726l81.649 20.717 81.877 20.718-.681-11.383-.68-11.156-65.32-16.619c-35.835-9.107-65.773-17.075-66.453-17.758-.908-.683 7.257-5.692 17.917-10.928l19.278-9.79 42.866 10.7c23.361 5.92 44.908 11.384 47.856 12.067 4.763 1.366 4.99.683 4.99-9.79v-11.155l-29.258-7.286c-15.876-4.098-30.845-7.285-32.887-7.285-2.041 0-3.628-.683-3.628-1.821 0-1.594 57.154-32.784 63.051-34.15 2.949-.911 4.083-25.726 1.134-25.27-1.134 0-18.144 8.878-38.103 19.351Z"/></g><defs><clipPath id="a"><path fill="#fff" d="M0 0h250v250H0z"/></clipPath></defs></svg>