<svg width="250" height="250" viewBox="0 0 250 250" fill="none" xmlns="http://www.w3.org/2000/svg">
<path fill-rule="evenodd" clip-rule="evenodd" d="M175.4 127.7C176 128.6 176.75 129.5 177.65 130.1C178.55 130.7 179.6 131 180.8 131C182 131 183.05 130.7 183.95 130.1C184.85 129.5 185.6 128.75 186.2 127.85C186.8 126.95 186.95 125.75 186.95 124.7C186.95 123.5 186.65 122.45 186.2 121.55C185.75 120.65 184.85 119.75 183.95 119.3C183.05 118.7 182 118.4 180.8 118.4C179.75 118.4 178.7 118.7 177.65 119.3C176.75 119.75 176 120.5 175.4 121.55C174.8 122.45 174.5 123.5 174.5 124.55C174.5 125.75 174.8 126.8 175.4 127.7ZM174.95 141.35L169.7 142.7V113.9H174.95V116.15C175.7 115.25 176.75 114.65 177.8 114.2C178.85 113.75 180.05 113.45 181.4 113.45C183.35 113.45 185 113.9 186.65 114.95C188.3 116 189.65 117.35 190.55 119C191.45 120.65 192.05 122.45 192.05 124.55C192.05 126.65 191.6 128.45 190.55 130.1C189.5 131.75 188.3 133.1 186.65 134.15C185 135.2 183.2 135.65 181.4 135.65C180.05 135.65 178.85 135.35 177.8 134.9C176.75 134.45 175.85 133.7 174.95 132.95V141.35ZM149.6 127.7C150.2 128.6 150.95 129.35 151.85 129.95C152.75 130.55 153.8 130.85 154.85 130.85C156.05 130.85 156.95 130.55 158 129.95C158.9 129.35 159.65 128.6 160.25 127.7C160.85 126.8 161.15 125.75 161.15 124.55C161.15 123.35 160.85 122.3 160.25 121.4C159.65 120.5 158.9 119.75 158 119.15C157.1 118.55 156.05 118.25 154.85 118.25C153.8 118.25 152.75 118.55 151.7 119.15C150.8 119.75 150.05 120.5 149.45 121.4C148.85 122.3 148.7 123.35 148.7 124.55C148.85 125.75 149.15 126.8 149.6 127.7ZM164.45 130.1C163.4 131.75 162.05 133.1 160.4 134.15C158.75 135.2 156.8 135.65 154.85 135.65C152.9 135.65 150.95 135.2 149.3 134.15C147.65 133.1 146.3 131.75 145.25 130.1C144.2 128.45 143.75 126.5 143.75 124.55C143.75 122.6 144.2 120.65 145.25 119C146.3 117.35 147.5 116 149.3 114.95C150.95 113.9 152.9 113.45 154.85 113.45C156.8 113.45 158.75 113.9 160.4 114.95C162.05 116 163.4 117.35 164.45 119C165.5 120.65 165.95 122.6 165.95 124.55C165.95 126.5 165.5 128.45 164.45 130.1ZM123.95 127.7C124.55 128.6 125.3 129.35 126.2 129.95C127.1 130.55 128.15 130.85 129.2 130.85C130.4 130.85 131.3 130.55 132.35 129.95C133.25 129.35 134 128.6 134.6 127.7C135.2 126.8 135.5 125.75 135.5 124.55C135.5 123.35 135.2 122.3 134.6 121.4C134 120.5 133.25 119.75 132.35 119.15C131.45 118.55 130.4 118.25 129.2 118.25C128.15 118.25 127.1 118.55 126.05 119.15C125.15 119.75 124.4 120.5 123.8 121.4C123.2 122.3 123.05 123.35 123.05 124.55C123.05 125.75 123.35 126.8 123.95 127.7ZM138.8 130.1C137.75 131.75 136.4 133.1 134.75 134.15C133.1 135.2 131.15 135.65 129.2 135.65C127.25 135.65 125.3 135.2 123.65 134.15C122 133.1 120.65 131.75 119.6 130.1C118.55 128.45 118.1 126.5 118.1 124.55C118.1 122.6 118.55 120.65 119.6 119C120.65 117.35 121.85 116 123.65 114.95C125.3 113.9 127.25 113.45 129.2 113.45C131.15 113.45 133.1 113.9 134.75 114.95C136.4 116 137.75 117.35 138.8 119C139.85 120.65 140.3 122.6 140.3 124.55C140.3 126.5 139.7 128.45 138.8 130.1ZM114.05 135.35H108.8V108.35L114.05 107V135.35ZM88.1 135.35H82.85V113.9H88.1V116.3C88.85 115.4 89.75 114.8 90.8 114.2C91.85 113.75 93.05 113.45 94.4 113.45C95.9 113.45 97.4 113.75 98.75 114.5C100.1 115.25 101.3 116.15 102.05 117.5C102.8 118.85 103.25 120.35 103.25 122V135.2H98V123.5C98 122.45 97.85 121.55 97.4 120.8C97.1 120.05 96.5 119.45 95.75 119C95 118.55 94.25 118.4 93.35 118.4C92.3 118.4 91.4 118.7 90.65 119.15C89.9 119.6 89.3 120.35 88.85 121.25C88.4 122.15 88.25 123.2 88.25 124.25C88.1 124.25 88.1 135.35 88.1 135.35ZM76.1 117.95C77.15 119.3 77.75 120.8 78.2 122.45C78.5 123.8 78.5 125.15 78.2 126.5H61.55C61.7 127.4 62.15 128.3 62.6 128.9C63.2 129.5 63.8 130.1 64.7 130.4C65.45 130.7 66.35 130.85 67.4 130.85C68.45 130.85 69.5 130.7 70.4 130.25C71.45 129.8 72.2 129.35 72.95 128.6L77.6 129.8C76.7 131.45 75.35 132.8 73.4 133.85C71.45 134.9 69.5 135.35 67.4 135.35C65.45 135.35 63.5 134.9 61.85 133.85C60.2 132.8 58.85 131.45 57.8 129.8C56.9 128.15 56.3 126.2 56.3 124.25C56.3 122.15 56.75 120.35 57.8 118.7C58.85 117.05 60.2 115.7 61.85 114.65C63.5 113.6 65.45 113.15 67.4 113.15C69.2 113.15 70.85 113.6 72.35 114.35C73.7 115.55 75.05 116.6 76.1 117.95ZM62.6 120.35C62 120.95 61.7 121.7 61.55 122.45H73.1C72.95 121.7 72.5 120.95 72.05 120.35C71.6 119.75 70.85 119.15 70.1 118.7C69.35 118.25 68.45 118.1 67.4 118.1C66.35 118.1 65.45 118.25 64.7 118.7C63.8 119.15 63.05 119.75 62.6 120.35ZM35 113.9V118.85H46.25L35 129.95V135.35H52.85V130.4H41.3L52.85 119V113.9H35ZM202.1 127.7C202.7 128.6 203.45 129.5 204.35 130.1C205.25 130.7 206.3 131 207.5 131C208.7 131 209.75 130.7 210.65 130.1C211.55 129.5 212.3 128.75 212.9 127.85C213.5 126.95 213.65 125.75 213.65 124.7C213.65 123.5 213.35 122.45 212.9 121.55C212.45 120.65 211.55 119.75 210.65 119.3C209.75 118.7 208.7 118.4 207.5 118.4C206.45 118.4 205.4 118.7 204.35 119.3C203.45 119.9 202.55 120.65 202.1 121.7C201.65 122.75 201.2 123.65 201.2 124.85C201.2 125.75 201.5 126.8 202.1 127.7Z" fill="#07193A"/>
</svg>
