<?xml version="1.0" standalone="no"?>
<!DOCTYPE svg PUBLIC "-//W3C//DTD SVG 20010904//EN"
 "http://www.w3.org/TR/2001/REC-SVG-20010904/DTD/svg10.dtd">
<svg version="1.0" xmlns="http://www.w3.org/2000/svg"
 width="202.000000pt" height="202.000000pt" viewBox="0 0 202.000000 202.000000"
 preserveAspectRatio="xMidYMid meet">

<g transform="translate(0.000000,202.000000) scale(0.100000,-0.100000)"
fill="#000000" stroke="none">
<path d="M853 1203 c-23 -4 -23 -7 -23 -159 l0 -155 28 3 27 3 3 158 c1 86 -1
156 -5 156 -5 -1 -18 -4 -30 -6z"/>
<path d="M333 1133 c-31 -6 -71 -50 -82 -90 -30 -106 90 -192 187 -133 17 11
32 27 32 36 0 17 -9 16 -97 -2 -25 -5 -36 -1 -55 18 l-23 23 98 3 c109 3 112
6 83 77 -22 52 -82 81 -143 68z m82 -73 c18 -20 17 -20 -50 -20 -67 0 -68 0
-50 20 11 12 31 20 50 20 19 0 39 -8 50 -20z"/>
<path d="M628 1126 c-16 -8 -28 -11 -28 -5 0 5 -13 9 -30 9 l-30 0 0 -120 0
-120 30 0 30 0 0 78 c0 85 14 112 57 112 39 0 53 -31 53 -114 l0 -77 28 3 27
3 0 92 c0 85 -2 95 -25 118 -32 31 -77 40 -112 21z"/>
<path d="M1014 1126 c-45 -20 -74 -62 -74 -108 0 -82 57 -135 133 -125 120 16
144 186 32 233 -42 17 -51 17 -91 0z m88 -63 c25 -29 29 -53 13 -82 -33 -66
-125 -37 -125 38 0 50 80 81 112 44z"/>
<path d="M1294 1126 c-122 -54 -84 -236 50 -236 27 0 45 8 72 33 68 62 51 168
-31 203 -42 17 -51 17 -91 0z m95 -72 c12 -15 21 -35 21 -46 0 -25 -44 -68
-70 -68 -28 0 -70 43 -70 73 0 61 81 89 119 41z"/>
<path d="M1598 1126 c-16 -8 -28 -11 -28 -5 0 5 -13 9 -30 9 l-30 0 0 -161 c0
-143 2 -160 16 -155 9 3 22 6 30 6 10 0 14 13 14 46 0 40 2 45 18 38 9 -4 33
-9 54 -12 30 -3 42 1 72 30 44 40 55 87 33 140 -26 62 -97 92 -149 64z m84
-63 c24 -22 24 -77 -2 -103 -26 -26 -51 -25 -84 1 -31 24 -35 72 -9 101 20 22
70 23 95 1z"/>
<path d="M10 1105 c0 -24 3 -25 62 -25 l62 0 -62 -63 c-51 -51 -62 -69 -62
-95 l0 -33 98 3 c96 3 97 3 97 28 0 23 -4 25 -58 30 l-58 5 61 60 c45 44 60
66 60 87 l0 28 -100 0 -100 0 0 -25z"/>
<path d="M1885 1065 c-50 -49 -20 -125 50 -125 69 0 100 76 50 125 -13 14 -36
25 -50 25 -14 0 -37 -11 -50 -25z"/>
</g>
</svg>
