<svg version="1.1" id="Layer_1" xmlns="http://www.w3.org/2000/svg" xmlns:xlink="http://www.w3.org/1999/xlink" x="0px" y="0px"
	 width="100%" viewBox="0 0 512 512" enable-background="new 0 0 512 512" xml:space="preserve">
<path fill="#2171B1" opacity="1.000000" stroke="none" 
	d="
M337.000000,513.000000 
	C224.693954,513.000000 112.887901,513.000000 1.040925,513.000000 
	C1.040925,342.402252 1.040925,171.804504 1.040925,1.103379 
	C171.556061,1.103379 342.112183,1.103379 512.834167,1.103379 
	C512.834167,171.666534 512.834167,342.333252 512.834167,513.000000 
	C454.471161,513.000000 395.985565,513.000000 337.000000,513.000000 
M199.814590,137.751801 
	C190.843170,137.784119 181.791870,137.047760 172.913010,137.970581 
	C102.959877,145.241150 54.083282,213.738586 69.550644,282.450470 
	C81.386810,335.031158 124.558708,372.562927 178.236725,376.746155 
	C192.645004,377.869019 206.863754,376.373627 220.707672,372.093109 
	C226.204315,370.393524 229.390503,365.610443 228.894165,360.407715 
	C228.405533,355.285919 224.501831,350.890350 219.320709,350.352417 
	C216.930054,350.104218 214.363297,350.686218 211.985306,351.308228 
	C145.851257,368.607147 83.090393,315.551880 89.950081,247.480789 
	C93.845604,208.824142 114.522339,181.092667 150.392334,166.680008 
	C186.425110,152.201965 221.146896,157.470840 250.260147,183.385895 
	C275.364838,205.732742 298.331604,230.497375 321.988007,254.445557 
	C329.289398,261.836975 328.136292,273.534302 320.299194,280.280029 
	C312.858002,286.685059 302.543854,286.149811 295.074066,278.719086 
	C274.987518,258.737610 255.120148,238.534042 234.905975,218.683182 
	C218.741821,202.809509 193.536301,203.051468 177.776794,218.798523 
	C161.861679,234.701111 161.759811,260.078979 177.828049,276.302429 
	C200.111038,298.800598 222.222183,321.487701 245.066467,343.406494 
	C273.291199,370.487762 307.472198,381.418091 346.031189,375.626923 
	C430.576874,362.929047 474.799347,268.838409 431.183807,195.507355 
	C403.406525,148.805252 346.010498,126.056427 295.187408,141.605408 
	C287.975555,143.811813 284.398865,149.537903 286.253143,155.908646 
	C288.028351,162.007782 293.994476,164.765289 301.065735,163.235901 
	C307.555725,161.832260 314.107117,160.400146 320.703888,159.850784 
	C387.454285,154.291946 439.995087,217.591400 422.423004,282.240753 
	C402.691437,354.835266 313.368500,378.877258 259.319855,326.075623 
	C245.372589,312.450165 231.713974,298.529205 217.930649,284.736115 
	C209.802094,276.601837 201.619843,268.519531 193.593658,260.285309 
	C188.364975,254.921127 186.824448,248.435989 189.415710,241.391342 
	C191.994858,234.379608 197.282181,230.335922 204.745972,229.550201 
	C211.186920,228.872192 216.271240,231.627380 220.752258,236.139496 
	C240.364502,255.887878 259.967194,275.648071 279.785522,295.188782 
	C296.033997,311.209656 321.483734,311.031403 337.316254,295.124084 
	C353.167572,279.197876 353.183990,253.854004 337.084595,237.607605 
	C314.795715,215.115204 292.532043,192.590958 269.872253,170.475143 
	C250.667694,151.731613 227.456741,140.904541 199.814590,137.751801 
z"/>
<path fill="#FCFDFE" opacity="1.000000" stroke="none" 
	d="
M200.263718,137.804108 
	C227.456741,140.904541 250.667694,151.731613 269.872253,170.475143 
	C292.532043,192.590958 314.795715,215.115204 337.084595,237.607605 
	C353.183990,253.854004 353.167572,279.197876 337.316254,295.124084 
	C321.483734,311.031403 296.033997,311.209656 279.785522,295.188782 
	C259.967194,275.648071 240.364502,255.887878 220.752258,236.139496 
	C216.271240,231.627380 211.186920,228.872192 204.745972,229.550201 
	C197.282181,230.335922 191.994858,234.379608 189.415710,241.391342 
	C186.824448,248.435989 188.364975,254.921127 193.593658,260.285309 
	C201.619843,268.519531 209.802094,276.601837 217.930649,284.736115 
	C231.713974,298.529205 245.372589,312.450165 259.319855,326.075623 
	C313.368500,378.877258 402.691437,354.835266 422.423004,282.240753 
	C439.995087,217.591400 387.454285,154.291946 320.703888,159.850784 
	C314.107117,160.400146 307.555725,161.832260 301.065735,163.235901 
	C293.994476,164.765289 288.028351,162.007782 286.253143,155.908646 
	C284.398865,149.537903 287.975555,143.811813 295.187408,141.605408 
	C346.010498,126.056427 403.406525,148.805252 431.183807,195.507355 
	C474.799347,268.838409 430.576874,362.929047 346.031189,375.626923 
	C307.472198,381.418091 273.291199,370.487762 245.066467,343.406494 
	C222.222183,321.487701 200.111038,298.800598 177.828049,276.302429 
	C161.759811,260.078979 161.861679,234.701111 177.776794,218.798523 
	C193.536301,203.051468 218.741821,202.809509 234.905975,218.683182 
	C255.120148,238.534042 274.987518,258.737610 295.074066,278.719086 
	C302.543854,286.149811 312.858002,286.685059 320.299194,280.280029 
	C328.136292,273.534302 329.289398,261.836975 321.988007,254.445557 
	C298.331604,230.497375 275.364838,205.732742 250.260147,183.385895 
	C221.146896,157.470840 186.425110,152.201965 150.392334,166.680008 
	C114.522339,181.092667 93.845604,208.824142 89.950081,247.480789 
	C83.090393,315.551880 145.851257,368.607147 211.985306,351.308228 
	C214.363297,350.686218 216.930054,350.104218 219.320709,350.352417 
	C224.501831,350.890350 228.405533,355.285919 228.894165,360.407715 
	C229.390503,365.610443 226.204315,370.393524 220.707672,372.093109 
	C206.863754,376.373627 192.645004,377.869019 178.236725,376.746155 
	C124.558708,372.562927 81.386810,335.031158 69.550644,282.450470 
	C54.083282,213.738586 102.959877,145.241150 172.913010,137.970581 
	C181.791870,137.047760 190.843170,137.784119 200.263718,137.804108 
z"/>
</svg>