<svg xmlns="http://www.w3.org/2000/svg" xml:space="preserve" width="402.787" height="87.613"><path d="M1624.53 511.965c-100.89 0-182.97-82.082-182.97-182.977 0-100.89 82.08-182.972 182.97-182.972s182.98 82.082 182.98 182.972c0 100.895-82.09 182.977-182.98 182.977zm0-510.719c-180.72 0-327.74 147.024-327.74 327.742 0 180.723 147.02 327.746 327.74 327.746s327.75-147.023 327.75-327.746c0-180.718-147.03-327.742-327.75-327.742M693.758 656.871h99.383c13.23 0 23.953-10.723 23.953-23.953V284.531c0-79.73 20.558-137.246 101.582-137.246 118.284 0 177.424 66.633 177.424 224.672v260.961c0 13.23 10.72 23.953 23.95 23.953h98.48c13.23 0 23.95-10.723 23.95-23.953V25.062c0-13.23-10.72-23.957-23.95-23.957h-98.48c-13.23 0-23.95 10.727-23.95 23.957v61.184C1063.96 18.094 986.789 1.645 874.922 1.645c-140.152 0-205.121 70.718-205.121 249.449v381.824c0 13.23 10.726 23.953 23.957 23.953M2031.32 656.848h98.47c13.23 0 23.96-10.727 23.96-23.957v-61.184s19.88 83.715 200.7 85.188c25.92.21 29.25-11.868 27.47-26.02l-12.91-102.934c0-13.179-10.93-23.832-24.09-23.179a296 296 0 0 1-14.48.363c-69.44 0-131.91-46.355-162.76-144.07-10.28-32.149-14.14-68.153-14.14-106.727V25.035c0-13.23-10.72-23.957-23.95-23.957h-98.27c-13.24 0-23.96 10.727-23.96 23.957v607.856c0 13.23 10.72 23.957 23.96 23.957M2508.27 328.418c.48 100.352 83.76 181.609 185.37 180.875 98.55-.715 179.4-83.328 178.87-182.766.58-103.129-87.24-179.058-184.24-177.265-99.62 1.843-180.49 79.051-180 179.156zm511.92 13.078c-3.57 81.246-33.54 152.18-89.89 212.172-108.02 114.98-277.81 133.379-405.52 58.812-116.77-68.179-188.2-211.082-157.92-349.164C2439.33-67.16 2806.21-37.16 2873.74 86.481c1.23.542.98-60.81.98-60.81 0-13.437 13.66-24.331 27.1-24.331h94.75c13.44 0 24.33 10.894 24.33 24.332 0 0-.47 315.773-.71 315.824" style="fill:#3b455a;fill-opacity:1;fill-rule:nonzero;stroke:none" transform="matrix(.13333 0 0 -.13333 0 87.613)"/><path d="M684.441 17.48c-.062.06-.128.118-.191.176a5.843 5.843 0 0 1-.34.281c-33.308 25.07-44.808 70.004-60.894 123.45-1.176 3.902-4.801 6.617-8.875 6.601l-336.86-1.129c-7.847-.027-12.187 9.094-7.222 15.168l339.453 399.614a23.476 23.476 0 0 1 5.582 15.191v56.957c0 15.016-11.957 23.203-33.41 23.203H36.961c-16.566 0-29.996-13.429-29.996-29.996v-87.035c0-16.566 13.43-29.996 29.996-29.996h151.055v.172h164.218c7.778 0 12.11-8.989 7.27-15.074l-308.77-361.86C22.812 101.488-5.633 70.336.964 35.824 2.919 25.594 7.427 16.141 13.81 8.117 17.46 3.523 23.137.984 29.004.984l649.301.243c8.558 0 12.48 10.507 6.136 16.253" style="fill:#3b455a;fill-opacity:1;fill-rule:nonzero;stroke:none" transform="matrix(.13333 0 0 -.13333 0 87.613)"/></svg>