<?xml version="1.0" encoding="UTF-8" standalone="no"?>
<!-- Created with Inkscape (http://www.inkscape.org/) -->

<svg
   xmlns:dc="http://purl.org/dc/elements/1.1/"
   xmlns:cc="http://creativecommons.org/ns#"
   xmlns:rdf="http://www.w3.org/1999/02/22-rdf-syntax-ns#"
   xmlns:svg="http://www.w3.org/2000/svg"
   xmlns="http://www.w3.org/2000/svg"
   xmlns:sodipodi="http://sodipodi.sourceforge.net/DTD/sodipodi-0.dtd"
   xmlns:inkscape="http://www.inkscape.org/namespaces/inkscape"
   version="1.1"
   id="svg103"
   xml:space="preserve"
   width="402.78668"
   height="87.613335"
   viewBox="0 0 402.78668 87.613335"
   sodipodi:docname="zuora_logo_navy.svg"
   inkscape:version="0.92.3 (unknown)"><metadata
     id="metadata109"><rdf:RDF><cc:Work
         rdf:about=""><dc:format>image/svg+xml</dc:format><dc:type
           rdf:resource="http://purl.org/dc/dcmitype/StillImage" /><dc:title></dc:title></cc:Work></rdf:RDF></metadata><defs
     id="defs107" /><sodipodi:namedview
     pagecolor="#ffffff"
     bordercolor="#666666"
     borderopacity="1"
     objecttolerance="10"
     gridtolerance="10"
     guidetolerance="10"
     inkscape:pageopacity="0"
     inkscape:pageshadow="2"
     inkscape:window-width="640"
     inkscape:window-height="480"
     id="namedview105"
     showgrid="false"
     inkscape:zoom="0.89625605"
     inkscape:cx="201.39334"
     inkscape:cy="43.806667"
     inkscape:window-x="67"
     inkscape:window-y="27"
     inkscape:window-maximized="0"
     inkscape:current-layer="g111" /><g
     id="g111"
     inkscape:groupmode="layer"
     inkscape:label="ink_ext_XXXXXX"
     transform="matrix(1.3333333,0,0,-1.3333333,0,87.613333)"><g
       id="g113"
       transform="scale(0.1)"><path
         d="m 1624.53,511.965 c -100.89,0 -182.97,-82.082 -182.97,-182.977 0,-100.89 82.08,-182.972 182.97,-182.972 100.89,0 182.98,82.082 182.98,182.972 0,100.895 -82.09,182.977 -182.98,182.977 z m 0,-510.71891 c -180.72,0 -327.74,147.02391 -327.74,327.74191 0,180.723 147.02,327.746 327.74,327.746 180.72,0 327.75,-147.023 327.75,-327.746 0,-180.718 -147.03,-327.74191 -327.75,-327.74191"
         style="fill:#3b455a;fill-opacity:1;fill-rule:nonzero;stroke:none"
         id="path115"
         inkscape:connector-curvature="0" /><path
         d="m 693.758,656.871 h 99.383 c 13.23,0 23.953,-10.723 23.953,-23.953 V 284.531 c 0,-79.73 20.558,-137.246 101.582,-137.246 118.284,0 177.424,66.633 177.424,224.672 v 260.961 c 0,13.23 10.72,23.953 23.95,23.953 h 98.48 c 13.23,0 23.95,-10.723 23.95,-23.953 V 25.0625 c 0,-13.2305 -10.72,-23.95703 -23.95,-23.95703 h -98.48 c -13.23,0 -23.95,10.72653 -23.95,23.95703 V 86.2461 C 1063.96,18.0938 986.789,1.64453 874.922,1.64453 734.77,1.64453 669.801,72.3633 669.801,251.094 v 381.824 c 0,13.23 10.726,23.953 23.957,23.953"
         style="fill:#3b455a;fill-opacity:1;fill-rule:nonzero;stroke:none"
         id="path117"
         inkscape:connector-curvature="0" /><path
         d="m 2031.32,656.848 h 98.47 c 13.23,0 23.96,-10.727 23.96,-23.957 v -61.184 c 0,0 19.88,83.715 200.7,85.188 25.92,0.21 29.25,-11.868 27.47,-26.02 l -12.91,-102.934 c 0,-13.179 -10.93,-23.832 -24.09,-23.179 -4.44,0.218 -9.32,0.363 -14.48,0.363 -69.44,0 -131.91,-46.355 -162.76,-144.07 -10.28,-32.149 -14.14,-68.153 -14.14,-106.727 V 25.0352 c 0,-13.2305 -10.72,-23.95707 -23.95,-23.95707 h -98.27 c -13.24,0 -23.96,10.72657 -23.96,23.95707 V 632.891 c 0,13.23 10.72,23.957 23.96,23.957"
         style="fill:#3b455a;fill-opacity:1;fill-rule:nonzero;stroke:none"
         id="path119"
         inkscape:connector-curvature="0" /><path
         d="m 2508.27,328.418 c 0.48,100.352 83.76,181.609 185.37,180.875 98.55,-0.715 179.4,-83.328 178.87,-182.766 0.58,-103.129 -87.24,-179.058 -184.24,-177.265 -99.62,1.843 -180.49,79.051 -180,179.156 z m 511.92,13.078 c -3.57,81.246 -33.54,152.18 -89.89,212.172 -108.02,114.98 -277.81,133.379 -405.52,58.812 -116.77,-68.179 -188.2,-211.082 -157.92,-349.164 72.47,-330.4762 439.35,-300.4762 506.88,-176.8355 1.23,0.5429 0.98,-60.8086 0.98,-60.8086 0,-13.4375 13.66,-24.33206 27.1,-24.33206 h 94.75 c 13.44,0 24.33,10.89456 24.33,24.33206 0,0 -0.47,315.7731 -0.71,315.8241"
         style="fill:#3b455a;fill-opacity:1;fill-rule:nonzero;stroke:none"
         id="path121"
         inkscape:connector-curvature="0" /><path
         d="m 684.441,17.4805 c -0.062,0.0586 -0.128,0.1172 -0.191,0.1758 -0.109,0.0976 -0.223,0.1914 -0.34,0.2812 -33.308,25.0703 -44.808,70.0039 -60.894,123.4495 -1.176,3.902 -4.801,6.617 -8.875,6.601 l -336.86,-1.129 c -7.847,-0.027 -12.187,9.094 -7.222,15.168 l 339.453,399.614 c 3.601,4.242 5.582,9.625 5.582,15.191 v 56.957 c 0,15.016 -11.957,23.203 -33.41,23.203 H 36.9609 c -16.5664,0 -29.99606,-13.429 -29.99606,-29.996 v -87.035 c 0,-16.566 13.42966,-29.996 29.99606,-29.996 H 188.016 v 0.172 h 164.218 c 7.778,0 12.11,-8.989 7.27,-15.074 L 50.7344,133.203 C 22.8125,101.488 -5.63281,70.3359 0.964844,35.8242 2.91797,25.5938 7.42578,16.1406 13.8086,8.11719 17.4609,3.52344 23.1367,0.984375 29.0039,0.984375 L 678.305,1.22656 c 8.558,0 12.48,10.50784 6.136,16.25394"
         style="fill:#3b455a;fill-opacity:1;fill-rule:nonzero;stroke:none"
         id="path123"
         inkscape:connector-curvature="0" /></g></g></svg>