<svg xmlns="http://www.w3.org/2000/svg" width="250" height="250" fill="none"><path fill="#3E8FFA" fill-rule="evenodd" d="M95.09 31.173c-32.277 10.176-59.41 39.729-66.276 72.185-2.395 11.32-2.425 33.316-.059 43.761 6.518 28.768 25.907 53.217 52.556 66.269 6.58 3.222 13.892 5.715 18.28 6.231 6.665.785 7.62.555 10.767-2.599 4.072-4.078 4.535-9.991 1.114-14.209-1.288-1.587-7.309-4.921-13.382-7.409-30.667-12.561-48.475-38.399-48.475-70.328 0-32.618 20.166-60.274 51.936-71.222 6.583-2.27 7.683-2.329 10.38-.56 6.176 4.055 5.119 11.907-1.835 13.65-17.922 4.494-32.834 17.528-41.337 36.132-3.161 6.92-3.576 9.474-3.576 22.057 0 13.597.217 14.688 4.875 24.514 5.932 12.512 16.457 23.61 26.96 28.427 6.183 2.835 7.808 3.109 10.391 1.746 4.098-2.162 5.022-3.775 5.046-8.816.021-4.417-.3-4.76-13.249-14.209-3.252-2.373-7.737-7.293-9.966-10.933-3.504-5.724-4.126-8.194-4.61-18.292-.491-10.321-.169-12.504 2.777-18.838 4.886-10.5 12.829-17.734 24.213-22.055 18.8-7.133 26.756-20.53 22.123-37.247-3.461-12.486-13.261-19.605-26.735-19.425-4.718.063-10.08.59-11.92 1.17Zm50.856 4.04c-3.674 3.681-4.607 8.54-2.495 12.998 1.263 2.666 5.148 5.525 13.161 9.683 26.569 13.787 41.46 37.808 41.46 66.88 0 8.195-.813 15.893-2.156 20.427-6.993 23.599-24.273 42.183-47.214 50.778-7.713 2.888-8.295 2.928-11.553.79-4.601-3.02-4.186-9.945.738-12.335 1.839-.894 6.955-3.312 11.369-5.376 10.087-4.716 23.853-18.274 28.173-27.748 12.028-26.378 3.207-60.435-19.325-74.612-7.257-4.568-12.494-4.974-16.204-1.257-4.216 4.223-3.419 9.126 2.263 13.92 15.558 13.129 19.601 20.437 19.724 35.652.138 17.208-8.218 29.825-25.625 38.694-9.351 4.764-12.905 7.987-16.423 14.895-6.166 12.109-1.408 28.773 10.347 36.241 5.295 3.364 7.562 3.955 15.171 3.955 7.757 0 10.342-.705 19.465-5.304 27.206-13.718 45.885-37.888 52.576-68.035 3.434-15.469 3.462-24.664.123-39.994-6.869-31.526-26.257-56.276-53.932-68.846-10.372-4.712-15.944-5.111-19.643-1.405Zm-33.745 67.675c-14.414 7.693-17.655 27.386-6.585 40.019 7.661 8.745 24.105 10.054 33.254 2.646 7.328-5.932 9.908-11.112 9.908-19.892 0-9.613-3.383-16.23-10.903-21.324-8.103-5.489-17.15-6-25.674-1.449Zm18.579 15.659c5.109 4.81 3.948 11.962-2.483 15.294-4.723 2.445-8.151 1.555-11.774-3.059-3.434-4.374-3.42-7.183.063-11.617 3.505-4.466 9.814-4.739 14.194-.618Z" clip-rule="evenodd"/></svg>