
<svg id="svg" version="1.1" xmlns="http://www.w3.org/2000/svg" xmlns:xlink="http://www.w3.org/1999/xlink" width="372" height="372" viewBox="0, 0, 372,372"><g id="svgg"><path id="path0" d="M0.000 36.837 C 0.000 67.464,0.084 73.674,0.501 73.674 C 0.776 73.674,8.308 81.000,17.238 89.953 C 121.025 194.017,126.122 199.070,127.312 199.070 C 128.466 199.070,326.698 1.556,326.698 0.407 C 326.698 0.115,314.617 0.000,283.907 0.000 C 244.528 0.000,241.116 0.049,241.116 0.609 C 241.116 0.944,217.067 25.265,187.674 54.656 C 158.280 84.046,133.644 108.970,132.926 110.043 C 131.263 112.527,128.990 113.302,125.951 112.422 C 125.084 112.171,63.934 51.636,59.114 46.258 C 58.781 45.886,57.022 44.133,55.207 42.364 C 53.392 40.594,51.373 38.584,50.721 37.898 C 50.069 37.212,48.228 35.370,46.628 33.805 C 45.029 32.239,43.448 30.649,43.114 30.270 C 42.781 29.891,41.022 28.133,39.207 26.364 C 37.392 24.594,35.373 22.584,34.721 21.898 C 34.069 21.212,32.228 19.370,30.628 17.805 C 29.029 16.239,27.448 14.649,27.114 14.270 C 26.781 13.891,25.022 12.133,23.207 10.364 C 21.392 8.594,19.364 6.584,18.701 5.898 C 18.037 5.212,16.740 3.901,15.817 2.985 C 14.894 2.068,14.140 1.022,14.140 0.659 C 14.140 0.051,13.588 0.000,7.070 0.000 L 0.000 0.000 0.000 36.837 M108.279 0.507 C 108.279 0.786,109.074 1.771,110.047 2.696 C 111.019 3.621,114.828 7.449,118.512 11.204 C 125.854 18.687,126.620 19.343,128.020 19.346 C 128.957 19.349,131.349 17.316,131.349 16.518 C 131.349 16.311,134.777 12.719,138.966 8.536 C 143.155 4.353,146.588 0.721,146.594 0.465 C 146.602 0.099,142.530 0.000,127.442 0.000 C 111.511 0.000,108.279 0.086,108.279 0.507 M355.537 66.782 C 328.742 93.581,312.115 110.480,311.969 111.061 C 311.839 111.577,311.849 112.460,311.990 113.023 C 312.273 114.154,398.682 200.930,399.525 200.930 C 399.909 200.930,400.000 183.950,400.000 112.186 C 400.000 33.020,399.939 23.442,399.434 23.442 C 399.123 23.442,379.369 42.945,355.537 66.782 M193.847 228.531 C 156.578 265.814,125.563 297.083,124.924 298.019 C 124.286 298.955,123.422 299.967,123.005 300.268 C 122.587 300.568,121.741 301.383,121.123 302.078 C 120.505 302.772,119.428 303.866,118.728 304.508 C 118.029 305.149,117.108 306.078,116.682 306.572 C 116.256 307.066,115.592 307.736,115.207 308.060 C 114.822 308.385,113.984 309.211,113.346 309.896 C 112.708 310.581,111.784 311.502,111.293 311.943 C 110.802 312.384,109.881 313.317,109.247 314.016 C 108.612 314.716,107.692 315.637,107.201 316.063 C 106.089 317.028,104.977 318.137,103.960 319.294 C 103.529 319.785,102.483 320.828,101.635 321.613 C 100.787 322.397,100.093 323.169,100.093 323.328 C 100.093 323.486,99.214 324.202,98.140 324.919 C 93.950 327.714,52.093 370.235,52.093 371.695 C 52.093 371.975,64.743 372.093,94.884 372.093 C 130.423 372.093,137.674 372.008,137.674 371.594 C 137.674 371.147,153.182 355.240,170.379 338.047 C 194.503 313.927,204.202 304.236,206.404 302.052 C 207.793 300.673,209.600 298.856,210.419 298.013 C 211.237 297.171,212.912 295.490,214.140 294.279 C 226.452 282.133,231.862 276.631,233.116 274.976 C 234.497 273.154,253.264 254.124,258.502 249.232 C 261.030 246.872,261.801 246.660,264.690 247.525 C 266.608 248.100,351.445 332.692,352.793 335.375 C 353.862 337.501,354.513 338.172,356.470 339.165 C 358.563 340.226,388.837 370.392,388.837 371.416 C 388.837 372.040,389.271 372.093,394.419 372.093 L 400.000 372.093 400.000 332.279 L 400.000 292.465 398.377 292.465 C 397.133 292.465,396.425 292.204,395.349 291.349 C 394.576 290.735,393.823 290.233,393.675 290.233 C 393.527 290.233,386.224 283.002,377.447 274.165 C 340.739 237.207,265.845 162.356,264.799 161.581 C 262.317 159.742,267.487 154.864,193.847 228.531 M0.000 248.000 C 0.000 311.604,0.094 327.814,0.465 327.812 C 0.798 327.811,54.438 274.243,64.102 264.261 C 64.558 263.791,67.079 261.279,69.704 258.680 C 78.915 249.562,79.256 249.175,79.256 247.848 C 79.256 246.621,1.659 168.186,0.445 168.186 C 0.101 168.186,0.000 186.349,0.000 248.000 M261.685 341.404 C 260.438 341.929,231.070 370.980,231.070 371.689 C 231.070 371.976,240.200 372.093,262.698 372.093 C 288.677 372.093,294.326 372.005,294.326 371.601 C 294.326 370.875,265.162 341.842,263.926 341.337 C 263.102 341.000,262.612 341.015,261.685 341.404 " stroke="none" fill="#fcfafa" fill-rule="evenodd"></path><path id="path1" d="M18.670 0.553 C 18.805 1.171,124.580 107.159,125.973 108.071 C 128.010 109.406,129.944 108.651,131.800 105.797 C 132.355 104.943,133.278 103.968,133.852 103.629 C 134.426 103.290,135.270 102.440,135.729 101.741 C 136.187 101.041,137.119 100.105,137.798 99.659 C 138.478 99.213,139.391 98.305,139.826 97.641 C 140.261 96.977,141.085 96.157,141.657 95.818 C 142.230 95.479,143.165 94.549,143.737 93.752 C 144.308 92.955,145.231 92.033,145.789 91.704 C 146.346 91.375,147.177 90.533,147.636 89.834 C 148.094 89.134,149.054 88.185,149.768 87.723 C 150.482 87.261,151.158 86.604,151.270 86.262 C 151.382 85.919,152.178 85.033,153.039 84.291 C 154.840 82.740,154.691 82.881,156.593 80.930 C 157.391 80.112,158.226 79.274,158.449 79.070 C 158.672 78.865,159.591 77.944,160.492 77.023 C 161.394 76.102,162.337 75.155,162.589 74.918 C 163.114 74.425,166.215 71.329,166.757 70.757 C 167.318 70.166,170.428 67.064,170.802 66.723 C 170.985 66.555,172.715 64.828,174.646 62.884 C 176.578 60.940,178.384 59.129,178.661 58.860 C 178.937 58.591,179.864 57.671,180.721 56.814 C 181.578 55.957,182.498 55.036,182.767 54.767 C 183.036 54.498,183.957 53.578,184.814 52.721 C 185.671 51.864,186.566 50.970,186.803 50.734 C 187.365 50.175,194.175 43.365,194.734 42.803 C 194.970 42.566,195.916 41.618,196.837 40.697 C 197.758 39.776,198.679 38.855,198.884 38.651 C 199.088 38.446,200.009 37.525,200.930 36.604 C 201.851 35.683,202.772 34.763,202.977 34.560 C 203.462 34.079,210.192 27.348,210.675 26.861 C 210.879 26.656,211.800 25.735,212.721 24.814 C 213.642 23.893,214.536 22.998,214.709 22.825 C 214.882 22.653,215.776 21.758,216.697 20.837 C 217.618 19.916,218.543 18.995,218.752 18.791 C 218.961 18.586,220.604 16.901,222.403 15.046 C 224.202 13.191,225.927 11.517,226.235 11.325 C 226.543 11.134,227.257 10.357,227.821 9.599 C 228.386 8.842,229.308 7.950,229.871 7.617 C 230.434 7.285,231.270 6.440,231.729 5.741 C 232.187 5.041,233.134 4.094,233.834 3.636 C 235.072 2.824,236.279 1.230,236.279 0.408 C 236.279 0.115,224.310 0.000,193.674 0.000 C 155.180 0.000,151.070 0.056,151.070 0.585 C 151.070 0.907,147.134 5.135,142.324 9.980 C 137.514 14.826,133.047 19.657,132.397 20.715 C 130.806 23.306,128.024 24.278,125.723 23.046 C 124.548 22.417,103.442 1.064,103.442 0.504 C 103.442 0.083,96.471 0.000,60.996 0.000 C 23.642 0.000,18.565 0.066,18.670 0.553 M331.163 0.620 C 331.163 0.961,286.735 45.626,232.435 99.876 C 165.372 166.876,133.276 199.190,132.362 200.627 C 129.659 204.878,126.600 204.782,122.401 200.316 C 116.129 193.646,0.872 78.515,0.465 78.513 C 0.096 78.512,0.000 87.280,0.000 121.116 C 0.000 161.623,0.032 163.721,0.658 163.721 C 1.628 163.721,83.219 245.495,83.546 246.794 C 84.189 249.358,83.124 251.333,80.211 252.977 C 78.778 253.786,77.745 254.758,76.710 256.272 C 75.099 258.630,69.834 263.796,67.434 265.374 C 66.596 265.925,65.332 267.264,64.625 268.351 C 63.063 270.750,1.406 332.651,0.578 332.651 C 0.063 332.651,0.000 334.791,0.000 352.372 L 0.000 372.093 23.814 372.093 C 46.242 372.093,47.629 372.055,47.639 371.442 C 47.645 371.084,48.482 369.905,49.499 368.821 C 50.516 367.738,51.349 366.686,51.349 366.483 C 51.349 365.924,92.932 324.483,95.070 322.911 C 97.362 321.226,123.535 294.992,123.535 294.380 C 123.535 293.240,261.151 156.279,262.296 156.279 C 262.996 156.279,264.229 156.837,265.570 157.759 C 268.346 159.668,391.160 282.872,392.447 285.039 C 393.488 286.791,394.955 287.339,395.904 286.328 L 396.709 285.472 396.526 245.155 C 396.326 200.983,396.400 202.367,394.153 200.755 C 393.583 200.346,391.823 198.669,390.242 197.029 C 386.931 193.593,387.055 193.719,382.571 189.248 C 380.702 187.385,378.961 185.646,378.703 185.385 C 375.804 182.453,371.126 177.815,370.176 176.930 C 369.517 176.316,367.711 174.516,366.163 172.929 C 360.744 167.373,309.621 116.272,308.720 115.509 C 306.926 113.993,307.109 109.382,309.012 108.135 C 310.726 107.012,395.592 21.851,395.967 20.878 C 396.570 19.313,396.770 13.695,396.474 6.605 L 396.199 0.000 363.681 0.000 C 333.583 0.000,331.163 0.046,331.163 0.620 M249.524 262.791 C 242.911 269.396,236.914 275.711,236.184 276.837 C 235.361 278.109,217.376 296.349,188.685 325.014 C 163.290 350.386,142.512 371.358,142.512 371.619 C 142.512 372.000,150.740 372.093,184.558 372.093 C 222.409 372.093,226.605 372.035,226.605 371.512 C 226.605 371.034,228.922 368.437,232.649 364.737 C 233.006 364.383,234.889 362.502,236.832 360.558 C 238.775 358.614,240.492 356.896,240.648 356.741 C 240.803 356.585,242.558 354.827,244.547 352.834 C 246.536 350.840,248.535 348.874,248.990 348.465 C 249.444 348.056,250.328 347.150,250.955 346.453 C 251.581 345.755,252.500 344.834,252.998 344.406 C 253.496 343.978,254.751 342.775,255.789 341.733 C 256.826 340.691,258.156 339.519,258.744 339.129 C 259.333 338.738,260.254 338.126,260.791 337.769 C 262.524 336.617,266.702 337.847,268.191 339.947 C 268.546 340.449,275.577 347.617,283.814 355.876 C 292.051 364.135,298.791 371.162,298.791 371.492 C 298.791 372.042,302.436 372.093,341.395 372.093 C 378.074 372.093,384.000 372.019,384.000 371.561 C 384.000 370.992,383.229 370.161,378.589 365.729 C 376.961 364.173,375.198 362.415,374.672 361.822 C 374.146 361.229,372.305 359.358,370.579 357.665 C 368.854 355.971,367.023 354.162,366.512 353.645 C 366.000 353.128,364.193 351.333,362.496 349.655 C 360.799 347.977,358.538 345.706,357.472 344.607 C 356.407 343.508,354.734 342.024,353.755 341.308 C 352.777 340.592,351.484 339.291,350.883 338.418 C 350.282 337.545,332.330 319.336,310.988 297.955 C 289.647 276.574,271.659 258.513,271.016 257.819 C 267.281 253.795,263.559 250.791,262.307 250.791 C 261.794 250.791,257.539 254.785,249.524 262.791 " stroke="none" fill="#f4837b" fill-rule="evenodd"></path><path id="path2" d="M16.372 0.466 C 16.372 1.033,125.248 109.894,126.394 110.473 C 128.290 111.431,130.481 110.537,131.953 108.207 C 132.487 107.360,156.682 82.900,185.718 53.851 C 214.755 24.802,238.512 0.802,238.512 0.517 C 238.512 -0.699,236.489 -0.032,235.819 1.405 C 235.463 2.167,234.585 3.168,233.867 3.630 C 233.150 4.092,232.187 5.041,231.729 5.741 C 231.270 6.440,230.434 7.285,229.871 7.617 C 229.308 7.950,228.386 8.842,227.821 9.599 C 227.257 10.357,226.543 11.134,226.235 11.325 C 225.927 11.517,224.202 13.191,222.403 15.046 C 220.604 16.901,218.961 18.586,218.752 18.791 C 218.543 18.995,217.618 19.916,216.697 20.837 C 215.776 21.758,214.882 22.653,214.709 22.825 C 214.536 22.998,213.642 23.893,212.721 24.814 C 211.800 25.735,210.879 26.656,210.675 26.861 C 210.192 27.348,203.234 34.306,202.746 34.791 C 202.540 34.995,201.671 35.864,200.814 36.721 C 199.957 37.578,199.036 38.498,198.767 38.767 C 198.498 39.036,197.525 40.009,196.604 40.930 C 195.683 41.851,194.789 42.746,194.617 42.920 C 194.210 43.330,187.366 50.175,186.803 50.734 C 186.566 50.970,185.671 51.864,184.814 52.721 C 183.957 53.578,183.088 54.446,182.884 54.651 C 182.679 54.855,181.706 55.829,180.721 56.814 C 179.736 57.799,178.756 58.772,178.544 58.977 C 178.332 59.181,176.578 60.940,174.646 62.884 C 172.715 64.828,170.985 66.555,170.802 66.723 C 170.428 67.064,167.318 70.166,166.757 70.757 C 166.215 71.329,163.114 74.425,162.589 74.918 C 162.337 75.155,161.394 76.102,160.492 77.023 C 159.591 77.944,158.672 78.865,158.449 79.070 C 158.226 79.274,157.391 80.112,156.593 80.930 C 154.691 82.881,154.840 82.740,153.039 84.291 C 152.178 85.033,151.382 85.919,151.270 86.262 C 151.158 86.604,150.482 87.261,149.768 87.723 C 149.054 88.185,148.094 89.134,147.636 89.834 C 147.177 90.533,146.346 91.375,145.789 91.704 C 145.231 92.033,144.316 92.941,143.755 93.722 C 143.194 94.502,142.197 95.494,141.538 95.926 C 140.880 96.357,140.063 97.181,139.723 97.756 C 139.384 98.331,138.533 99.177,137.834 99.636 C 137.134 100.094,136.187 101.041,135.729 101.741 C 135.270 102.440,134.426 103.290,133.852 103.629 C 133.278 103.968,132.355 104.943,131.800 105.797 C 129.944 108.651,128.010 109.406,125.973 108.071 C 124.580 107.159,18.805 1.171,18.670 0.553 C 18.522 -0.129,16.372 -0.211,16.372 0.466 M103.442 0.504 C 103.442 1.064,124.548 22.417,125.723 23.046 C 128.024 24.278,130.806 23.306,132.397 20.715 C 133.047 19.657,137.514 14.826,142.324 9.980 C 147.134 5.135,151.070 0.907,151.070 0.585 C 151.070 -0.431,148.963 -0.178,148.699 0.870 C 148.579 1.349,147.867 2.312,147.115 3.010 C 146.364 3.708,145.231 4.850,144.596 5.547 C 143.961 6.245,143.030 7.166,142.526 7.594 C 142.023 8.022,141.186 8.864,140.666 9.465 C 140.146 10.067,139.229 10.988,138.628 11.512 C 138.026 12.036,137.105 12.946,136.581 13.533 C 136.057 14.120,134.991 15.202,134.212 15.937 C 133.434 16.672,132.431 17.924,131.984 18.720 C 130.736 20.939,128.421 21.775,126.033 20.867 C 124.953 20.457,105.674 1.142,105.674 0.470 C 105.674 0.196,105.209 0.000,104.558 0.000 C 103.867 0.000,103.442 0.192,103.442 0.504 M328.930 0.589 C 328.930 0.913,284.568 45.541,230.347 99.762 C 176.127 153.984,131.662 198.669,131.537 199.062 C 131.021 200.687,128.035 201.729,126.071 200.969 C 125.597 200.786,97.252 172.655,63.083 138.457 C 28.913 104.259,0.741 76.279,0.478 76.279 C 0.195 76.279,0.000 76.735,0.000 77.395 C 0.000 78.039,0.197 78.512,0.465 78.513 C 0.872 78.515,116.129 193.646,122.401 200.316 C 126.600 204.782,129.659 204.878,132.362 200.627 C 133.276 199.190,165.372 166.876,232.435 99.876 C 286.735 45.626,331.163 0.961,331.163 0.620 C 331.163 0.179,330.840 0.000,330.047 0.000 C 329.276 0.000,328.930 0.183,328.930 0.589 M396.393 9.395 C 396.433 14.563,396.333 19.414,396.171 20.176 C 395.891 21.498,311.946 106.212,309.013 108.134 C 307.109 109.382,306.925 113.992,308.720 115.509 C 309.621 116.272,360.744 167.373,366.163 172.929 C 367.711 174.516,369.517 176.316,370.176 176.930 C 371.132 177.820,375.670 182.320,378.747 185.429 C 379.029 185.715,380.770 187.453,382.615 189.292 C 387.048 193.712,386.934 193.596,390.242 197.029 C 391.823 198.669,393.583 200.346,394.153 200.755 C 396.400 202.367,396.326 200.983,396.526 245.155 L 396.709 285.472 395.904 286.328 C 394.955 287.339,393.488 286.791,392.447 285.039 C 391.160 282.872,268.346 159.668,265.570 157.759 C 264.229 156.837,262.996 156.279,262.296 156.279 C 261.151 156.279,123.535 293.240,123.535 294.380 C 123.535 294.992,97.362 321.226,95.070 322.911 C 92.932 324.483,51.349 365.924,51.349 366.483 C 51.349 366.686,50.516 367.738,49.499 368.821 C 48.482 369.905,47.645 371.084,47.639 371.442 C 47.624 372.328,49.198 372.304,49.679 371.411 C 49.881 371.036,50.633 369.908,51.349 368.904 C 53.009 366.579,94.992 324.465,95.650 324.465 C 96.317 324.465,122.556 298.294,124.003 296.186 C 125.934 293.373,260.843 158.570,261.976 158.321 C 262.648 158.173,263.412 158.377,264.365 158.959 C 265.482 159.641,361.186 254.965,364.660 258.856 C 365.176 259.434,366.013 260.264,366.520 260.700 C 367.027 261.136,367.957 262.057,368.586 262.747 C 369.215 263.436,370.136 264.350,370.632 264.778 C 371.129 265.206,372.060 266.127,372.701 266.825 C 374.129 268.378,375.600 269.854,377.253 271.392 C 377.943 272.033,378.864 272.975,379.300 273.485 C 379.736 273.994,380.657 274.915,381.346 275.531 C 382.036 276.147,382.957 277.068,383.393 277.578 C 383.829 278.087,384.750 279.008,385.439 279.624 C 386.129 280.240,387.050 281.158,387.486 281.665 C 387.922 282.171,388.967 283.259,389.808 284.083 C 390.649 284.907,391.680 286.084,392.098 286.698 C 393.017 288.044,397.198 289.835,397.865 289.168 C 399.048 287.985,398.829 205.046,397.637 202.791 C 397.258 202.074,377.301 181.814,353.287 157.767 C 323.453 127.894,309.546 113.722,309.377 113.023 C 308.824 110.744,308.664 110.914,353.308 66.233 C 387.393 32.119,397.157 22.144,397.744 20.837 C 398.434 19.299,398.496 18.383,398.503 9.581 L 398.512 0.000 397.416 0.000 L 396.321 0.000 396.393 9.395 M0.000 164.651 C 0.000 165.163,0.210 165.581,0.466 165.581 C 1.141 165.581,80.539 245.210,81.024 246.373 C 81.410 247.301,81.232 248.885,80.557 250.521 C 80.408 250.885,79.548 251.615,78.646 252.143 C 77.695 252.701,76.627 253.752,76.100 254.653 C 74.998 256.532,67.996 263.478,66.362 264.313 C 65.716 264.643,64.813 265.544,64.354 266.317 C 63.358 267.994,1.143 330.419,0.468 330.419 C 0.196 330.419,0.000 330.886,0.000 331.535 C 0.000 332.296,0.184 332.651,0.578 332.651 C 1.406 332.651,63.063 270.750,64.625 268.351 C 65.332 267.264,66.596 265.925,67.434 265.374 C 69.834 263.796,75.099 258.630,76.710 256.272 C 77.749 254.752,78.777 253.786,80.228 252.967 C 83.094 251.350,84.182 249.330,83.548 246.805 C 83.220 245.496,1.636 163.721,0.658 163.721 C 0.204 163.721,0.000 164.009,0.000 164.651 M248.627 261.526 C 241.809 268.412,235.711 274.800,235.077 275.721 C 234.442 276.642,212.853 298.477,187.101 324.245 C 161.349 350.012,140.279 371.319,140.279 371.593 C 140.279 371.900,140.709 372.093,141.395 372.093 C 142.052 372.093,142.512 371.898,142.512 371.619 C 142.512 371.358,163.290 350.386,188.685 325.014 C 217.376 296.349,235.361 278.109,236.184 276.837 C 238.019 274.005,261.302 250.791,262.307 250.791 C 263.559 250.791,267.281 253.795,271.016 257.819 C 271.659 258.513,289.647 276.574,310.988 297.955 C 332.330 319.336,350.282 337.545,350.883 338.418 C 351.484 339.291,352.777 340.592,353.755 341.308 C 354.734 342.024,356.407 343.508,357.472 344.607 C 358.538 345.706,360.799 347.977,362.496 349.655 C 364.193 351.333,366.000 353.128,366.512 353.645 C 367.023 354.162,368.854 355.971,370.579 357.665 C 372.305 359.358,374.146 361.227,374.672 361.818 C 376.351 363.704,380.419 367.665,381.834 368.791 C 382.587 369.390,383.423 370.378,383.692 370.987 C 384.228 372.198,386.233 372.641,386.233 371.548 C 386.233 370.703,356.489 341.111,354.582 340.060 C 353.471 339.446,352.650 338.614,352.044 337.484 C 351.091 335.705,269.024 253.171,265.454 250.401 C 262.014 247.731,262.800 247.211,248.627 261.526 M260.791 337.769 C 260.254 338.126,259.333 338.738,258.744 339.129 C 258.156 339.519,256.826 340.691,255.789 341.733 C 254.751 342.775,253.496 343.978,252.998 344.406 C 252.500 344.834,251.581 345.755,250.955 346.453 C 250.328 347.150,249.444 348.056,248.990 348.465 C 248.535 348.874,246.536 350.840,244.547 352.834 C 242.558 354.827,240.803 356.585,240.648 356.741 C 240.492 356.896,238.775 358.614,236.832 360.558 C 234.889 362.502,233.006 364.383,232.649 364.737 C 226.647 370.695,225.675 372.093,227.535 372.093 C 228.047 372.093,228.465 371.883,228.465 371.626 C 228.465 371.076,258.246 341.313,259.964 340.146 C 262.237 338.602,266.175 339.536,267.879 342.023 C 268.369 342.738,269.335 343.710,270.025 344.183 C 270.716 344.656,271.564 345.524,271.911 346.111 C 272.259 346.699,273.175 347.618,273.947 348.153 C 274.720 348.689,275.675 349.648,276.069 350.284 C 276.463 350.921,277.272 351.728,277.867 352.078 C 278.461 352.428,279.390 353.352,279.931 354.132 C 280.471 354.912,281.394 355.834,281.982 356.182 C 282.569 356.529,283.437 357.377,283.910 358.068 C 284.383 358.758,285.335 359.710,286.025 360.183 C 286.716 360.656,287.564 361.524,287.911 362.111 C 288.259 362.699,289.175 363.618,289.947 364.153 C 290.720 364.689,291.700 365.689,292.125 366.377 C 292.550 367.065,293.052 367.628,293.240 367.628 C 293.866 367.628,296.558 370.683,296.558 371.394 C 296.558 371.923,296.830 372.093,297.674 372.093 C 299.814 372.093,298.766 370.867,283.814 355.876 C 275.577 347.617,268.546 340.449,268.191 339.947 C 266.702 337.847,262.524 336.617,260.791 337.769 " stroke="none" fill="#fcb4ad" fill-rule="evenodd"></path><path id="path3" d="M15.628 0.520 C 15.628 1.083,124.529 110.221,125.734 110.866 C 127.849 111.998,130.745 111.138,132.144 108.962 C 132.678 108.131,156.997 83.556,186.186 54.352 C 233.603 6.909,240.301 0.000,238.884 0.000 C 238.679 0.000,238.512 0.233,238.512 0.517 C 238.512 0.802,214.755 24.802,185.718 53.851 C 156.682 82.900,132.487 107.360,131.953 108.207 C 130.481 110.537,128.290 111.431,126.394 110.473 C 125.248 109.894,16.372 1.033,16.372 0.466 C 16.372 0.210,16.205 0.000,16.000 0.000 C 15.795 0.000,15.628 0.234,15.628 0.520 M105.674 0.470 C 105.674 1.142,124.953 20.457,126.033 20.867 C 128.413 21.772,130.731 20.941,131.983 18.734 C 132.429 17.947,133.642 16.486,134.676 15.488 C 135.711 14.490,136.558 13.550,136.558 13.399 C 136.558 13.248,137.186 12.687,137.953 12.152 C 138.721 11.617,139.684 10.669,140.093 10.045 C 140.502 9.422,141.342 8.563,141.959 8.137 C 142.575 7.710,143.539 6.752,144.101 6.006 C 144.662 5.261,145.594 4.334,146.171 3.947 C 147.909 2.781,149.525 0.000,148.465 0.000 C 148.260 0.000,148.093 0.273,148.093 0.606 C 148.093 0.939,144.559 4.749,140.241 9.071 C 135.922 13.394,132.084 17.525,131.712 18.252 C 130.714 20.205,127.739 21.148,125.818 20.120 C 124.782 19.566,106.617 1.196,106.484 0.569 C 106.340 -0.115,105.674 -0.196,105.674 0.470 M328.186 0.570 C 328.186 0.883,284.023 45.321,230.047 99.320 C 176.070 153.320,131.441 198.103,130.871 198.840 C 130.301 199.576,129.421 200.282,128.915 200.409 C 126.275 201.072,129.095 203.758,63.235 137.855 C 6.461 81.045,0.000 74.715,0.000 75.907 C 0.000 76.112,0.215 76.279,0.478 76.279 C 0.741 76.279,28.913 104.259,63.083 138.457 C 97.252 172.655,125.597 200.786,126.071 200.969 C 128.035 201.729,131.021 200.687,131.537 199.062 C 131.662 198.669,176.127 153.984,230.347 99.762 C 318.882 11.227,329.934 0.000,328.558 0.000 C 328.353 0.000,328.186 0.256,328.186 0.570 M398.503 9.581 C 398.496 18.383,398.434 19.299,397.744 20.837 C 397.157 22.144,387.393 32.119,353.308 66.233 C 308.664 110.914,308.824 110.744,309.377 113.023 C 309.546 113.722,323.453 127.894,353.287 157.767 C 377.301 181.814,397.258 202.074,397.637 202.791 C 398.829 205.046,399.048 287.985,397.865 289.168 C 397.198 289.835,393.017 288.044,392.098 286.698 C 391.680 286.084,390.649 284.907,389.808 284.083 C 388.967 283.259,387.922 282.171,387.486 281.665 C 387.050 281.158,386.129 280.240,385.439 279.624 C 384.750 279.008,383.829 278.087,383.393 277.578 C 382.957 277.068,382.036 276.147,381.346 275.531 C 380.657 274.915,379.736 273.994,379.300 273.485 C 378.864 272.975,377.943 272.033,377.253 271.392 C 375.600 269.854,374.129 268.378,372.701 266.825 C 372.060 266.127,371.129 265.206,370.632 264.778 C 370.136 264.350,369.215 263.436,368.586 262.747 C 367.957 262.057,367.027 261.136,366.520 260.700 C 366.013 260.264,365.176 259.434,364.660 258.856 C 361.186 254.965,265.482 159.641,264.365 158.959 C 263.412 158.377,262.648 158.173,261.976 158.321 C 260.843 158.570,125.934 293.373,124.003 296.186 C 122.559 298.290,96.317 324.465,95.653 324.465 C 94.982 324.465,53.266 366.276,51.823 368.393 C 51.187 369.326,50.402 370.309,50.078 370.579 C 49.332 371.198,49.313 372.093,50.047 372.093 C 50.353 372.093,50.605 371.901,50.605 371.666 C 50.605 370.061,91.782 327.751,96.509 324.499 C 98.660 323.019,122.927 298.706,124.396 296.558 C 126.329 293.733,260.797 159.350,261.903 159.139 C 263.960 158.746,265.896 160.591,314.633 209.412 C 383.700 278.599,390.863 285.818,391.644 287.028 C 392.026 287.618,392.932 288.349,393.657 288.651 C 394.383 288.954,395.426 289.521,395.976 289.911 C 396.747 290.459,397.321 290.566,398.488 290.379 L 400.000 290.137 400.000 247.394 C 400.000 212.586,399.910 204.651,399.517 204.651 C 399.251 204.651,398.815 204.023,398.548 203.256 C 398.172 202.174,388.307 192.087,354.606 158.326 C 310.036 113.677,310.326 113.980,310.326 112.000 C 310.326 110.021,310.027 110.333,354.795 65.488 C 389.992 30.231,398.490 21.533,398.692 20.558 C 398.833 19.879,399.175 19.349,399.471 19.349 C 399.915 19.349,400.000 17.785,400.000 9.674 C 400.000 0.248,399.981 0.000,399.256 0.000 C 398.531 0.000,398.511 0.251,398.503 9.581 M0.000 166.140 C 0.000 166.447,0.279 166.698,0.619 166.698 C 1.704 166.698,80.251 245.672,80.558 247.071 C 80.943 248.821,79.896 250.875,78.108 251.880 C 77.294 252.337,76.253 253.385,75.738 254.263 C 74.629 256.156,67.632 263.102,65.989 263.941 C 65.344 264.270,64.441 265.172,63.984 265.944 C 62.814 267.918,1.455 329.302,0.652 329.302 C 0.293 329.302,0.000 329.553,0.000 329.860 C 0.000 330.167,0.211 330.419,0.468 330.419 C 1.143 330.419,63.358 267.994,64.354 266.317 C 64.813 265.544,65.716 264.643,66.362 264.313 C 67.996 263.478,74.998 256.532,76.100 254.653 C 76.627 253.752,77.695 252.701,78.646 252.143 C 80.334 251.154,80.617 250.751,81.130 248.605 C 81.649 246.439,81.502 246.282,40.774 205.488 C 3.130 167.783,0.000 164.763,0.000 166.140 M261.266 248.445 C 260.368 248.802,236.142 273.241,234.419 275.527 C 233.104 277.272,206.485 304.057,171.177 339.163 C 149.659 360.558,138.706 372.093,139.907 372.093 C 140.112 372.093,140.279 371.869,140.279 371.594 C 140.279 371.320,161.440 349.926,187.303 324.052 C 213.166 298.178,234.807 276.256,235.396 275.336 C 235.984 274.416,242.042 268.098,248.858 261.297 C 262.930 247.254,262.101 247.798,265.454 250.401 C 269.024 253.171,351.091 335.705,352.044 337.484 C 352.650 338.614,353.471 339.446,354.582 340.060 C 356.489 341.111,386.233 370.703,386.233 371.548 C 386.233 371.848,386.484 372.093,386.791 372.093 C 387.098 372.093,387.349 371.883,387.349 371.626 C 387.349 370.805,357.180 340.982,355.179 339.824 C 353.897 339.083,353.010 338.196,352.269 336.914 C 351.002 334.723,267.555 250.958,264.950 249.263 C 263.368 248.233,262.359 248.009,261.266 248.445 M259.907 340.162 C 255.994 342.928,227.616 372.093,228.837 372.093 C 229.042 372.093,229.209 371.877,229.209 371.614 C 229.209 370.464,259.842 340.553,261.462 340.121 C 263.537 339.568,265.879 340.344,267.163 342.010 C 267.674 342.674,268.508 343.561,269.015 343.981 C 269.522 344.401,270.359 345.224,270.875 345.811 C 271.392 346.397,272.306 347.318,272.907 347.857 C 273.509 348.396,274.430 349.329,274.954 349.931 C 275.478 350.532,276.399 351.453,277.000 351.977 C 277.602 352.501,278.523 353.421,279.047 354.021 C 279.571 354.621,280.406 355.458,280.903 355.881 C 281.399 356.305,282.320 357.215,282.949 357.904 C 283.578 358.594,284.503 359.515,285.003 359.951 C 286.045 360.859,287.104 361.934,288.212 363.208 C 288.635 363.695,289.472 364.522,290.072 365.046 C 290.672 365.570,291.599 366.491,292.133 367.093 C 292.667 367.694,293.713 368.735,294.459 369.405 C 295.204 370.075,295.814 370.954,295.814 371.358 C 295.814 371.762,295.981 372.093,296.186 372.093 C 296.391 372.093,296.558 371.778,296.558 371.394 C 296.558 370.683,293.866 367.628,293.240 367.628 C 293.052 367.628,292.550 367.065,292.125 366.377 C 291.700 365.689,290.720 364.689,289.947 364.153 C 289.175 363.618,288.259 362.699,287.911 362.111 C 287.564 361.524,286.716 360.656,286.025 360.183 C 285.335 359.710,284.383 358.758,283.910 358.068 C 283.437 357.377,282.569 356.529,281.982 356.182 C 281.394 355.834,280.475 354.918,279.940 354.146 C 279.404 353.373,278.445 352.418,277.809 352.024 C 277.172 351.630,276.365 350.821,276.015 350.226 C 275.665 349.632,274.741 348.703,273.961 348.162 C 273.181 347.622,272.259 346.699,271.911 346.111 C 271.564 345.524,270.716 344.656,270.025 344.183 C 269.335 343.710,268.369 342.738,267.879 342.023 C 266.175 339.535,262.129 338.591,259.907 340.162 " stroke="none" fill="#fcc4c3" fill-rule="evenodd"></path><path id="path4" d="M14.140 0.659 C 14.140 1.022,14.894 2.068,15.817 2.985 C 16.740 3.901,18.037 5.212,18.701 5.898 C 19.364 6.584,21.392 8.594,23.207 10.364 C 25.022 12.133,26.781 13.891,27.114 14.270 C 27.448 14.649,29.029 16.239,30.628 17.805 C 32.228 19.370,34.069 21.212,34.721 21.898 C 35.373 22.584,37.392 24.594,39.207 26.364 C 41.022 28.133,42.781 29.891,43.114 30.270 C 43.448 30.649,45.029 32.239,46.628 33.805 C 48.228 35.370,50.069 37.212,50.721 37.898 C 51.373 38.584,53.392 40.594,55.207 42.364 C 57.022 44.133,58.781 45.886,59.114 46.258 C 63.934 51.636,125.084 112.171,125.951 112.422 C 128.990 113.302,131.263 112.527,132.926 110.043 C 133.644 108.970,158.280 84.046,187.674 54.656 C 217.067 25.265,241.116 0.944,241.116 0.609 C 241.116 0.207,240.799 0.000,240.186 0.000 C 239.562 0.000,239.256 0.206,239.256 0.626 C 239.256 0.971,215.374 25.147,186.186 54.352 C 156.997 83.556,132.678 108.131,132.144 108.962 C 130.745 111.138,127.849 111.998,125.734 110.866 C 124.529 110.221,15.628 1.083,15.628 0.520 C 15.628 0.234,15.293 0.000,14.884 0.000 C 14.420 0.000,14.140 0.248,14.140 0.659 M106.484 0.569 C 106.617 1.196,124.782 19.566,125.818 20.120 C 127.739 21.148,130.714 20.205,131.712 18.252 C 132.084 17.525,135.922 13.394,140.241 9.071 C 144.559 4.749,148.093 0.939,148.093 0.606 C 148.093 -0.104,146.610 -0.243,146.594 0.465 C 146.588 0.721,143.155 4.353,138.966 8.536 C 134.777 12.719,131.349 16.328,131.349 16.556 C 131.349 17.329,128.912 19.349,127.982 19.346 C 126.623 19.343,125.818 18.650,118.512 11.204 C 114.828 7.449,111.019 3.621,110.047 2.696 C 109.074 1.771,108.279 0.786,108.279 0.507 C 108.279 0.210,107.882 0.000,107.322 0.000 C 106.658 0.000,106.401 0.175,106.484 0.569 M326.698 0.407 C 326.698 1.556,128.466 199.070,127.312 199.070 C 126.122 199.070,121.025 194.017,17.238 89.953 C 1.147 73.820,0.000 72.799,0.000 74.605 C 0.000 75.116,0.215 75.535,0.477 75.535 C 0.740 75.535,28.981 103.579,63.235 137.855 C 129.095 203.758,126.275 201.072,128.915 200.409 C 129.421 200.282,130.301 199.576,130.871 198.840 C 131.441 198.103,176.070 153.320,230.047 99.320 C 284.023 45.321,328.186 0.883,328.186 0.570 C 328.186 0.248,327.862 0.000,327.442 0.000 C 327.033 0.000,326.698 0.183,326.698 0.407 M398.692 20.558 C 398.490 21.533,389.992 30.231,354.795 65.488 C 310.027 110.333,310.326 110.021,310.326 112.000 C 310.326 113.980,310.036 113.677,354.606 158.326 C 388.307 192.087,398.172 202.174,398.548 203.256 C 399.259 205.300,400.000 205.063,400.000 202.791 C 400.000 201.529,399.847 200.930,399.525 200.930 C 398.682 200.930,312.273 114.154,311.990 113.023 C 311.849 112.460,311.839 111.577,311.969 111.061 C 312.253 109.929,398.589 23.442,399.434 23.442 C 399.872 23.442,400.000 22.979,400.000 21.395 C 400.000 19.042,399.123 18.480,398.692 20.558 M261.742 159.137 C 260.809 159.322,126.021 294.183,124.396 296.558 C 122.927 298.706,98.660 323.019,96.509 324.499 C 95.615 325.114,85.492 335.028,74.013 346.529 C 51.973 368.614,48.888 372.093,51.349 372.093 C 51.758 372.093,52.093 371.914,52.093 371.695 C 52.093 370.235,93.950 327.714,98.140 324.919 C 99.214 324.202,100.093 323.486,100.093 323.328 C 100.093 323.169,100.787 322.397,101.635 321.613 C 102.483 320.828,103.529 319.779,103.960 319.282 C 104.391 318.784,105.307 317.863,105.996 317.235 C 106.684 316.607,107.773 315.521,108.415 314.821 C 109.056 314.122,109.985 313.201,110.479 312.775 C 110.973 312.349,111.643 311.685,111.967 311.300 C 112.292 310.915,113.118 310.077,113.803 309.439 C 114.488 308.801,115.409 307.877,115.850 307.386 C 116.291 306.895,117.224 305.975,117.923 305.340 C 118.623 304.705,119.544 303.785,119.970 303.294 C 121.201 301.876,122.336 300.753,123.077 300.217 C 123.455 299.944,124.286 298.955,124.924 298.019 C 125.563 297.083,156.578 265.814,193.847 228.531 C 267.487 154.864,262.317 159.742,264.799 161.581 C 265.845 162.356,340.739 237.207,377.447 274.165 C 386.224 283.002,393.527 290.233,393.675 290.233 C 393.823 290.233,394.576 290.735,395.349 291.349 C 397.442 293.012,400.000 292.986,400.000 291.301 C 400.000 290.149,399.985 290.140,398.488 290.379 C 397.321 290.566,396.747 290.459,395.976 289.911 C 395.426 289.521,394.383 288.954,393.657 288.651 C 392.932 288.349,392.026 287.618,391.644 287.028 C 390.863 285.818,383.700 278.599,314.633 209.412 C 270.836 165.539,263.570 158.488,262.619 158.934 C 262.560 158.962,262.165 159.054,261.742 159.137 M0.000 167.442 C 0.000 167.851,0.200 168.186,0.445 168.186 C 1.659 168.186,79.256 246.621,79.256 247.848 C 79.256 249.175,78.915 249.562,69.704 258.680 C 67.079 261.279,64.558 263.791,64.102 264.261 C 54.438 274.243,0.798 327.811,0.465 327.812 C 0.209 327.813,0.000 328.149,0.000 328.558 C 0.000 329.019,0.248 329.302,0.652 329.302 C 1.455 329.302,62.814 267.918,63.984 265.944 C 64.441 265.172,65.344 264.270,65.989 263.941 C 67.632 263.102,74.629 256.156,75.738 254.263 C 76.253 253.385,77.294 252.337,78.108 251.880 C 79.896 250.875,80.943 248.821,80.558 247.071 C 80.251 245.672,1.704 166.698,0.619 166.698 C 0.248 166.698,0.000 166.996,0.000 167.442 M258.502 249.232 C 253.264 254.124,234.497 273.154,233.116 274.976 C 231.862 276.631,226.452 282.133,214.140 294.279 C 212.912 295.490,211.237 297.171,210.419 298.013 C 209.600 298.856,207.793 300.673,206.404 302.052 C 204.202 304.236,194.503 313.927,170.379 338.047 C 153.182 355.240,137.674 371.147,137.674 371.594 C 137.674 371.878,138.075 372.093,138.605 372.093 C 139.116 372.093,139.535 371.884,139.536 371.628 C 139.537 371.253,159.376 350.896,171.177 339.163 C 206.485 304.057,233.104 277.272,234.419 275.527 C 237.304 271.699,260.719 248.563,261.959 248.315 C 262.735 248.160,263.493 248.367,264.637 249.049 C 267.003 250.459,350.944 334.623,352.269 336.914 C 353.010 338.196,353.897 339.083,355.179 339.824 C 357.180 340.982,387.349 370.805,387.349 371.626 C 387.349 371.883,387.684 372.093,388.093 372.093 C 388.564 372.093,388.837 371.845,388.837 371.416 C 388.837 370.392,358.563 340.226,356.470 339.165 C 354.513 338.172,353.862 337.501,352.793 335.375 C 351.445 332.692,266.608 248.100,264.690 247.525 C 261.801 246.660,261.030 246.872,258.502 249.232 M261.209 340.155 C 259.812 340.557,229.209 370.642,229.209 371.614 C 229.209 371.877,229.628 372.093,230.140 372.093 C 230.651 372.093,231.070 371.910,231.070 371.687 C 231.070 370.946,260.661 341.716,261.821 341.311 C 262.602 341.039,263.225 341.049,263.952 341.347 C 265.171 341.846,294.326 370.885,294.326 371.601 C 294.326 371.872,294.660 372.093,295.070 372.093 C 296.258 372.093,295.969 370.791,294.455 369.320 C 293.707 368.594,292.976 368.000,292.831 368.000 C 292.685 368.000,292.129 367.372,291.594 366.605 C 291.059 365.837,290.107 364.874,289.479 364.465 C 288.851 364.056,288.009 363.198,287.609 362.559 C 287.209 361.920,286.320 361.012,285.633 360.541 C 284.947 360.071,284.068 359.198,283.681 358.601 C 283.294 358.004,282.424 357.132,281.747 356.663 C 281.071 356.195,280.122 355.275,279.638 354.619 C 279.155 353.963,278.229 353.036,277.581 352.558 C 276.934 352.080,276.013 351.159,275.535 350.512 C 275.057 349.864,274.130 348.938,273.474 348.455 C 272.818 347.971,271.898 347.022,271.430 346.346 C 270.961 345.670,270.089 344.799,269.492 344.412 C 268.895 344.025,268.014 343.135,267.535 342.435 C 266.116 340.365,263.615 339.463,261.209 340.155 " stroke="none" fill="#fccccc" fill-rule="evenodd"></path></g></svg>
