<svg xmlns="http://www.w3.org/2000/svg" width="250" height="250" fill="none"><path fill="#0A8AEE" fill-rule="evenodd" d="M110.243 109.374c-4.22.002-7.724 1.373-10.459 4.163-2.736 2.791-4.087 6.371-4.087 10.739s1.368 7.947 4.087 10.739c2.737 2.792 6.243 4.162 10.468 4.162 4.224 0 7.731-1.37 10.536-4.162 2.788-2.792 4.156-6.371 4.156-10.739s-1.368-7.948-4.156-10.739c-2.805-2.809-6.312-4.163-10.536-4.163h-.009Zm49.404-74.335 55.176 55.186a20.721 20.721 0 0 1 5.302 19.937l-7.611 28.313c-2.788.069-6.961.069-8.449 0-1.762-.137-3.13-.599-4.036-1.439-.907-.856-1.369-2.226-1.369-4.042v-22.061h11.956V97.779H198.66V79.81l-13.648 7.88v45.132c0 7.279 1.949 12.366 5.781 15.158 3.626 2.655 9.749 3.58 18.386 2.792l-4.92 18.348a7.99 7.99 0 0 0-1.597-2.671c-1.458-1.597-3.426-2.381-5.843-2.381-2.79 0-4.904 1.039-6.284 3.058-1.223-2.049-3.161-3.058-5.765-3.058-2.672 0-4.649.97-5.912 2.871v-2.274h-5.471v21.27h5.471v-11.958c0-1.568.372-2.754 1.077-3.578.705-.813 1.674-1.225 2.897-1.225 1.155 0 2.007.373 2.643 1.078.636.706.93 1.716.93 2.98v12.703h5.471v-11.958c0-1.568.333-2.754 1.038-3.578.665-.813 1.634-1.225 2.897-1.225 1.155 0 2.006.373 2.642 1.078.637.706.93 1.716.93 2.98v12.703h.357c-2.073 6.902-7.498 12.209-14.403 14.046l-75.342 20.245a20.526 20.526 0 0 1-19.823-5.343L35.048 159.68a20.558 20.558 0 0 1-5.337-19.852l.65-2.415c1.232 2.484 2.925 4.693 4.909 6.766 5.336 5.395 11.972 8.067 19.96 8.067 5.2 0 9.886-1.302 14.11-3.768 4.225-2.535 7.474-5.858 9.818-10.02l-11.836-6.766c-1.043 2.21-2.668 3.906-4.806 5.139-2.138 1.302-4.601 1.884-7.338 1.884-4.104 0-7.474-1.353-10.142-4.094-2.668-2.723-4.037-6.183-4.037-10.345 0-4.231 1.369-7.691 4.037-10.414s6.055-4.094 10.142-4.094c2.737 0 5.149.583 7.287 1.884 2.137 1.302 3.762 2.998 4.806 5.207l11.767-6.834c-2.206-4.162-5.388-7.485-9.612-9.951-4.293-2.484-8.98-3.717-14.11-3.717-5.73 0-10.656 1.353-15.018 4.094l9.63-36.003c1.95-7.16 7.474-12.692 14.555-14.576l75.341-20.177a20.487 20.487 0 0 1 19.823 5.343ZM131.17 150.772h7.405V97.779h-13.648v6.251c-4.088-5.138-9.818-7.741-17.224-7.741-7.012 0-13.067 2.74-18.13 8.135-5.01 5.396-7.542 12.041-7.542 19.852 0 7.81 2.531 14.387 7.543 19.851 4.994 5.464 11.049 8.136 18.129 8.136 3.712 0 7.03-.651 9.886-1.952 2.857-1.302 5.251-3.186 7.338-5.79a6.25 6.25 0 0 0 6.243 6.252Zm34.84-36.26c3.318-2.21 7.029-3.049 11.185-2.535V96.734c-3.643 0-6.892.84-9.817 2.535-2.925 1.696-5.012 4.231-6.311 7.622v-9.112h-13.649v52.994h13.649v-25.332c0-5.07 1.693-8.719 4.943-10.928Zm-37.596 68.767c2.163 2.166 4.835 3.244 8.036 3.244 2.084 0 3.944-.48 5.647-1.519 1.674-1 3.015-2.343 3.945-4.019l-4.757-2.715a4.716 4.716 0 0 1-1.938 2.049c-.852.48-1.821.745-2.937.745-1.634 0-3.014-.559-4.091-1.637-1.076-1.118-1.595-2.5-1.595-4.176 0-1.705.519-3.126 1.595-4.205 1.077-1.078 2.457-1.637 4.091-1.637 1.077 0 2.036.265 2.898.785.861.519 1.526 1.195 1.938 2.087l4.727-2.754c-.891-1.676-2.153-3.009-3.866-4.019-1.713-1.009-3.573-1.489-5.657-1.489-3.24 0-5.883 1.087-8.036 3.244-2.124 2.156-3.201 4.842-3.201 8.008 0 3.166 1.048 5.851 3.201 8.008Zm38.318-15.938c-2.192-2.156-4.874-3.244-7.996-3.244-3.123 0-5.804 1.078-7.958 3.244-2.153 2.166-3.239 4.842-3.239 7.969 0 3.127 1.076 5.812 3.239 7.969 2.154 2.156 4.835 3.244 7.958 3.244 3.161 0 5.804-1.078 7.996-3.244 2.193-2.157 3.269-4.842 3.269-7.969 0-3.127-1.076-5.803-3.269-7.969Zm-3.866 12.184c-1.116 1.117-2.496 1.676-4.13 1.676-1.635 0-3.015-.559-4.092-1.676-1.076-1.118-1.634-2.5-1.634-4.205 0-1.706.558-3.088 1.634-4.205 1.077-1.117 2.457-1.676 4.092-1.676 1.634 0 3.014.559 4.13 1.676s1.674 2.499 1.674 4.205c0 1.705-.558 3.087-1.674 4.205Zm-42.997 6.743a3.614 3.614 0 0 0 3.612-3.616 3.614 3.614 0 0 0-3.612-3.617 3.614 3.614 0 0 0-3.611 3.617 3.614 3.614 0 0 0 3.611 3.616Z" clip-rule="evenodd"/></svg>