<?xml version="1.0" encoding="UTF-8" standalone="no" ?>
<!DOCTYPE svg PUBLIC "-//W3C//DTD SVG 1.1//EN" "http://www.w3.org/Graphics/SVG/1.1/DTD/svg11.dtd">
<svg xmlns="http://www.w3.org/2000/svg" xmlns:xlink="http://www.w3.org/1999/xlink" version="1.1" width="1080" height="1080" viewBox="0 0 1080 1080" xml:space="preserve">
<desc>Created with Fabric.js 5.2.4</desc>
<defs>
</defs>
<g transform="matrix(1 0 0 1 540 540)" id="f06f424e-b41b-4426-87df-e94d2aa20899"  >
<rect style="stroke: none; stroke-width: 1; stroke-dasharray: none; stroke-linecap: butt; stroke-dashoffset: 0; stroke-linejoin: miter; stroke-miterlimit: 4; fill: rgb(255,255,255); fill-rule: nonzero; opacity: 1; visibility: hidden;" vector-effect="non-scaling-stroke"  x="-540" y="-540" rx="0" ry="0" width="1080" height="1080" />
</g>
<g transform="matrix(1 0 0 1 540 540)" id="bd7fd5d4-1842-49c6-84f5-08613e103c9e"  >
</g>
<g transform="matrix(45 0 0 45 540 540)"  >
<path style="stroke: none; stroke-width: 1; stroke-dasharray: none; stroke-linecap: butt; stroke-dashoffset: 0; stroke-linejoin: miter; stroke-miterlimit: 4; fill: rgb(0,0,0); fill-rule: evenodd; opacity: 1;"  transform=" translate(-12, -12.44)" d="M 4.0452 22.8814 C 5.57931 22.8814 6.84847 21.7469 7.05956 20.2712 L 16.9404 20.2712 C 17.1515 21.7469 18.4207 22.8814 19.9548 22.8814 C 21.6366 22.8814 23 21.518 23 19.8362 C 23 18.1543 21.6366 16.791 19.9548 16.791 C 19.6876 16.791 19.4284 16.8254 19.1814 16.89 L 13.7105 7.565 C 14.5161 7.01708 15.0452 6.09293 15.0452 5.0452 C 15.0452 3.36338 13.6818 2 12 2 C 10.3182 2 8.9548 3.36338 8.9548 5.0452 C 8.9548 6.09293 9.48393 7.01708 10.2895 7.565 L 4.81861 16.89 C 4.57164 16.8254 4.31244 16.791 4.0452 16.791 C 2.36338 16.791 1 18.1543 1 19.8362 C 1 21.518 2.36338 22.8814 4.0452 22.8814 Z M 12.5341 7.15428 C 12.3632 7.19742 12.1843 7.22034 12 7.22034 C 11.8157 7.22034 11.6368 7.19742 11.4659 7.15428 C 11.2144 7.09078 10.9803 6.98347 10.7722 6.84095 C 10.2002 6.44908 9.82486 5.79097 9.82486 5.0452 C 9.82486 3.8439 10.7987 2.87006 12 2.87006 C 13.2013 2.87006 14.1751 3.8439 14.1751 5.0452 C 14.1751 5.79097 13.7998 6.44908 13.2278 6.84095 C 13.0197 6.98347 12.7856 7.09078 12.5341 7.15428 Z M 12.9206 7.94876 C 12.6302 8.04076 12.3209 8.09039 12 8.09039 C 11.6791 8.09039 11.3698 8.04076 11.0794 7.94876 L 5.63291 17.2371 C 6.38972 17.7004 6.92852 18.485 7.05956 19.4011 L 16.9404 19.4011 C 17.0715 18.485 17.6103 17.7004 18.3671 17.2371 L 12.9206 7.94876 Z M 4.0452 17.661 C 5.2465 17.661 6.22034 18.6349 6.22034 19.8362 C 6.22034 21.0375 5.2465 22.0113 4.0452 22.0113 C 2.8439 22.0113 1.87006 21.0375 1.87006 19.8362 C 1.87006 18.6349 2.8439 17.661 4.0452 17.661 Z M 19.9548 22.0113 C 18.7535 22.0113 17.7797 21.0375 17.7797 19.8362 C 17.7797 18.6349 18.7535 17.661 19.9548 17.661 C 21.1561 17.661 22.1299 18.6349 22.1299 19.8362 C 22.1299 21.0375 21.1561 22.0113 19.9548 22.0113 Z" stroke-linecap="round" />
</g>
</svg>