<svg xmlns="http://www.w3.org/2000/svg" xmlns:xlink="http://www.w3.org/1999/xlink" width="250" height="250" viewBox="0 0 442.88 90.17"><defs><style>.cls-1{fill:url(#linear-gradient);}.cls-2{fill:#377dff;}</style><linearGradient id="linear-gradient" x1="84.96" y1="45.09" x2="0.69" y2="45.09" gradientUnits="userSpaceOnUse"><stop offset="0" stop-color="#377dff"/><stop offset="0.03" stop-color="#3580fd"/><stop offset="0.46" stop-color="#18a8eb"/><stop offset="0.79" stop-color="#06c0df"/><stop offset="1" stop-color="#00c9db"/></linearGradient></defs><g id="Layer_2" data-name="Layer 2"><g id="Layer_2-2" data-name="Layer 2"><path class="cls-1" d="M42.76,50.08A4.74,4.74,0,0,1,38,45.27l0-32a7.08,7.08,0,0,0-14.15,0V62a4.77,4.77,0,0,1-4.76,4.86H19A4.85,4.85,0,0,1,14.17,62V34.46A7.08,7.08,0,0,0,0,34.46V83.09C0,93-.71,91.42,7.09,85L33.14,63.43c11.31-9.58,8-9.58,19.49,0L78.56,85c7.8,6.45,7.08,8,7.08-1.88v-76a7.08,7.08,0,0,0-14.15,0V62a4.84,4.84,0,0,1-4.84,4.86h-.09A4.76,4.76,0,0,1,61.81,62V24.2a7.08,7.08,0,0,0-14.15,0V45.27a4.75,4.75,0,0,1-4.8,4.81Z"/></g><g id="Layer_3" data-name="Layer 3"><path class="cls-2" d="M130.29,70.63V32.52a17.87,17.87,0,0,1,4.21-2.32,53.11,53.11,0,0,1,6.95-2.35,30.37,30.37,0,0,1,7.88-1.05,25.67,25.67,0,0,1,6.24.59A9.45,9.45,0,0,1,159,28.9v9.17a26,26,0,0,0-3.62-.51c-1.46-.11-3-.18-4.55-.2s-3.06,0-4.47,0a25.77,25.77,0,0,0-3.53.33v32.9Zm306.15.84a10.88,10.88,0,0,1-7.54-2.75q-3-2.75-3-8.16V16.68H432V28.6h10.93v5.58H432V58.61a10.32,10.32,0,0,0,1.1,5.33c.74,1.19,2.23,1.78,4.49,1.78a14.53,14.53,0,0,0,3-.3,11.6,11.6,0,0,0,2.37-.72v5.75a18.06,18.06,0,0,1-3,.72,21.14,21.14,0,0,1-3.43.3Zm-36.09.59a27.06,27.06,0,0,1-7.67-.93,38.85,38.85,0,0,1-6.39-2.62V62.08q2.63,1.44,4.66,2.45A17.62,17.62,0,0,0,395.1,66a22.6,22.6,0,0,0,4.83.47,11.82,11.82,0,0,0,6.9-1.86,5.65,5.65,0,0,0,2.67-4.82,4.82,4.82,0,0,0-1.32-3.64,10.62,10.62,0,0,0-3.34-2.11l-4.23-1.78c-1.64-.45-3.3-.94-5-1.48a19.7,19.7,0,0,1-4.57-2.11,10.31,10.31,0,0,1-3.35-3.38,10.12,10.12,0,0,1-1.27-5.37,10.92,10.92,0,0,1,1.31-5.5,11.67,11.67,0,0,1,3.43-3.76A14.47,14.47,0,0,1,396,28.51a21,21,0,0,1,5.25-.67,18.57,18.57,0,0,1,6.52,1c1.8.68,3.67,1.44,5.59,2.29v6.08q-3.22-1.68-5.76-2.75a15.68,15.68,0,0,0-6-1,13.59,13.59,0,0,0-6.23,1.39,4.54,4.54,0,0,0-2.75,4.27,5.08,5.08,0,0,0,1.4,3.77A9.57,9.57,0,0,0,397.64,45q2.28.81,4.91,1.57c1.41.45,2.88.94,4.4,1.48a18.45,18.45,0,0,1,4.24,2.11,10.27,10.27,0,0,1,3.18,3.43A10.75,10.75,0,0,1,415.59,59a11.68,11.68,0,0,1-2.28,7.4,13.45,13.45,0,0,1-5.8,4.27,19.85,19.85,0,0,1-7.16,1.35Zm-43.12,0a27.83,27.83,0,0,1-5.63-.59,17.32,17.32,0,0,1-5.25-2,11.07,11.07,0,0,1-3.9-3.94A12.13,12.13,0,0,1,341,59.21a15.66,15.66,0,0,1,2-8.42,11.2,11.2,0,0,1,5.5-4.56,21.84,21.84,0,0,1,8.09-1.4,37.28,37.28,0,0,1,6,.42,21.83,21.83,0,0,1,4.54,1.23,22.72,22.72,0,0,1,3.59,1.82l1.19,5.58a17.87,17.87,0,0,0-5.63-2.49,29.06,29.06,0,0,0-8.09-1.06c-3.56,0-6.29.67-8.21,2a6.78,6.78,0,0,0-2.88,5.92,7.08,7.08,0,0,0,1.73,5,9.54,9.54,0,0,0,4.41,2.62,20,20,0,0,0,5.46.76,32.34,32.34,0,0,0,8.34-.81,3.51,3.51,0,0,0,2.84-3.67V42.8c0-3.27-1-5.66-2.88-7.19s-4.66-2.28-8.22-2.28a28.54,28.54,0,0,0-7.15,1,17.25,17.25,0,0,0-6.48,3.08V31.3a20.6,20.6,0,0,1,7-2.57,42.62,42.62,0,0,1,8.55-.89,22.71,22.71,0,0,1,5.17.55A15.62,15.62,0,0,1,370.1,30a11.07,11.07,0,0,1,3.18,2.71,12.48,12.48,0,0,1,2,3.8,15.34,15.34,0,0,1,.72,4.87V61.83q0,4.47-2.67,6.68a14.21,14.21,0,0,1-6.94,2.87,58.94,58.94,0,0,1-9.19.68Zm-38.41-.59a28.16,28.16,0,0,1-6.9-.89,16.9,16.9,0,0,1-6.44-3.21,16.16,16.16,0,0,1-4.7-6.64A29.49,29.49,0,0,1,299,49.65a29.07,29.07,0,0,1,1.78-11,15.9,15.9,0,0,1,11.14-9.89,27.69,27.69,0,0,1,6.9-.89,34.22,34.22,0,0,1,6.39.59,32.77,32.77,0,0,1,6.14,1.77V36a29.89,29.89,0,0,0-5.75-1.78,31.47,31.47,0,0,0-6.1-.59q-7.54,0-11,3.81T305.1,49.65q0,8.46,3.43,12.22t11,3.76a31.47,31.47,0,0,0,6.1-.59,29.86,29.86,0,0,0,5.75-1.77v5.91a35.9,35.9,0,0,1-6.14,1.69,34.23,34.23,0,0,1-6.39.6Zm-36.39.84q-7.43,0-11-3.49t-3.62-9.89V16.37h13.14V28.06h9.35v9.59h-9.35V57.33a4.78,4.78,0,0,0,.93,3.24,4,4,0,0,0,3.11,1,8.82,8.82,0,0,0,2.79-.5,9,9,0,0,0,2.52-1.26V70.63a13.53,13.53,0,0,1-3.83,1.3,22.42,22.42,0,0,1-4,.38ZM215.91,31.68A30.34,30.34,0,0,1,220.13,30a52.42,52.42,0,0,1,5.73-1.55q3.12-.67,6.27-1.1a44.72,44.72,0,0,1,5.86-.42,28.41,28.41,0,0,1,9.77,1.48,12.09,12.09,0,0,1,6.2,4.75c1.43,2.18,2.14,5.16,2.14,8.92v28.6H243.55V44.55a9,9,0,0,0-.46-2.95,6.35,6.35,0,0,0-1.39-2.31,6.21,6.21,0,0,0-2.53-1.51,11.93,11.93,0,0,0-3.88-.55,16.5,16.5,0,0,0-3.87.46,14.23,14.23,0,0,0-2.95,1v32H215.91V31.68ZM186.48,71.89a23.61,23.61,0,0,1-11.33-2.65,18.77,18.77,0,0,1-7.67-7.57,23.75,23.75,0,0,1-2.74-11.74q0-11.1,5.52-17.2t15.8-6.1q7.06,0,11.41,3a17.23,17.23,0,0,1,6.36,8.83,41.78,41.78,0,0,1,1.94,14.13H173.33l-1.34-8h23.42l-1.85,3.95q-.09-6.81-1.94-9.58t-6.07-2.78a7.84,7.84,0,0,0-4.25,1.18,7.56,7.56,0,0,0-3,3.91,21.39,21.39,0,0,0-1,7.53q0,6.06,2.9,9.34t9.31,3.28a20.57,20.57,0,0,0,4.68-.55,38.22,38.22,0,0,0,4.34-1.3q2-.77,3.45-1.35V69a39.26,39.26,0,0,1-6.78,2.06A42.41,42.41,0,0,1,186.48,71.89Z"/></g></g></svg>
