<svg width="250" height="250" viewBox="0 0 250 250" fill="none" xmlns="http://www.w3.org/2000/svg">
    <g clip-path="url(#clip0_3341_16436)">
        <path d="M175.35 29.3C164.1 26.7 145.615 25 124.715 25C103.815 25 85.325 26.7 74.08 29.3C51.65 34.02 33.995 51.73 29.29 74.22C26.69 85.5 25 104.04 25 125C25 145.96 26.695 164.5 29.29 175.78C33.995 198.27 51.655 215.98 74.08 220.7C85.33 223.3 103.815 225 124.715 225C145.615 225 164.105 223.3 175.35 220.7C197.775 215.98 215.435 198.27 220.14 175.78C222.74 164.5 224.43 145.96 224.43 125C224.43 104.04 222.735 85.5 220.14 74.22C215.435 51.73 197.775 34.02 175.35 29.3Z" fill="#00BD82"/>
        <path d="M148.675 178.525C147.732 176.271 146.257 174.28 144.376 172.721C142.495 171.163 140.264 170.083 137.875 169.575C134.955 168.9 130.145 168.46 124.715 168.46C119.28 168.46 114.47 168.9 111.55 169.58C106.7 170.6 102.7 173.96 100.795 178.43C100.13 179.98 98.545 180.925 96.865 180.77C96.5065 180.738 96.1482 180.705 95.79 180.67C87.97 179.885 81.825 178.795 78.255 177.525C76.9098 177.024 75.7742 176.082 75.0332 174.852C74.2923 173.623 73.9897 172.178 74.175 170.755C74.78 162.595 79.725 143.485 87.105 121.675C95.545 96.74 104.375 76.555 108.355 72.62C109.299 71.6315 110.467 70.884 111.76 70.44C114.375 69.555 119.195 68.96 124.71 68.96C130.23 68.96 135.05 69.555 137.66 70.44L137.705 70.455C138.984 70.8998 140.139 71.6418 141.075 72.62C145.055 76.555 153.88 96.74 162.32 121.67C169.705 143.485 174.645 162.595 175.255 170.755C175.255 170.82 175.255 170.89 175.265 170.96L175.275 171.035C175.283 171.215 175.29 171.395 175.295 171.575C175.296 172.868 174.902 174.131 174.166 175.194C173.429 176.258 172.386 177.071 171.175 177.525C167.605 178.795 161.465 179.885 153.655 180.665L152.425 180.78C151.642 180.852 150.856 180.673 150.182 180.268C149.508 179.864 148.98 179.25 148.675 178.525Z" fill="white"/>
    </g>
    <defs>
        <clipPath id="clip0_3341_16436">
            <rect width="200" height="200" fill="white" transform="translate(25 25)"/>
        </clipPath>
    </defs>
</svg>
