<svg xmlns="http://www.w3.org/2000/svg" width="250" height="250" fill="none"><path fill="#FF7A59" d="M178.194 90.764V65.867a19.172 19.172 0 0 0 11.054-17.281v-.571c0-10.59-8.584-19.173-19.172-19.173h-.572c-10.588 0-19.172 8.584-19.172 19.173v.57a19.166 19.166 0 0 0 11.054 17.282v24.897a54.29 54.29 0 0 0-25.815 11.366L67.29 48.945a21.41 21.41 0 0 0 .77-5.379 21.602 21.602 0 1 0-21.63 21.56 21.368 21.368 0 0 0 10.638-2.895l67.238 52.321c-12.362 18.674-12.031 43.011.833 61.343l-20.451 20.456a17.56 17.56 0 0 0-5.11-.832c-9.794.008-17.728 7.951-17.726 17.745.003 9.793 7.942 17.731 17.735 17.734 9.794.002 17.736-7.932 17.745-17.726a17.495 17.495 0 0 0-.834-5.11l20.231-20.238c18.076 13.915 42.903 15.114 62.237 3.005 19.333-12.11 29.09-34.972 24.457-57.308-4.632-22.338-22.675-39.434-45.229-42.858Zm-8.386 81.884a27.998 27.998 0 0 1-20.276-7.923 27.995 27.995 0 0 1-6.262-30.94 27.985 27.985 0 0 1 26.538-17.094c15.062.527 27.001 12.886 27.01 27.958.006 15.07-11.921 27.442-26.982 27.984"/></svg>