<svg version="1.1" id="Layer_1" xmlns="http://www.w3.org/2000/svg" xmlns:xlink="http://www.w3.org/1999/xlink" x="0px" y="0px"
	 width="100%" viewBox="0 0 1024 1024" enable-background="new 0 0 1024 1024" xml:space="preserve">
<path fill="#000000" opacity="1.000000" stroke="none" 
	d="
M251.282120,546.808411 
	C257.734650,566.863037 267.392639,584.502930 283.058044,598.396484 
	C290.112122,604.652649 298.116669,609.336548 307.059479,612.406616 
	C313.224701,614.523193 316.477112,618.821533 316.020630,624.051880 
	C315.537445,629.588013 311.523987,633.297424 304.902069,634.326294 
	C281.386169,637.980164 260.425018,631.668884 241.365433,618.000305 
	C235.355011,613.689941 235.263000,613.665405 230.165604,618.750549 
	C226.627487,622.280212 223.129639,625.851196 219.547256,629.335327 
	C211.350830,637.307007 200.699707,637.476746 192.284271,629.657043 
	C188.136765,625.803223 184.172409,621.747253 180.219299,617.691040 
	C177.433731,614.832825 174.950516,614.776367 172.188507,617.777954 
	C168.919205,621.330872 165.456253,624.706970 162.043365,628.125977 
	C151.917908,638.269653 140.945694,638.015015 131.468781,627.140808 
	C109.536011,601.974304 95.203430,572.911377 88.971931,540.190552 
	C81.044762,498.565948 86.210930,458.480865 104.575371,420.069153 
	C113.852386,400.664978 128.879730,391.142883 150.106842,391.110046 
	C192.759857,391.044067 235.413483,391.213715 278.065948,391.048767 
	C294.581238,390.984924 306.688110,398.458435 315.822540,411.589355 
	C326.019592,426.247772 331.142670,442.874359 334.246460,460.220062 
	C335.269073,465.935181 336.315338,471.675995 336.311066,477.524078 
	C336.301544,490.579041 326.724945,500.270050 313.646393,500.306274 
	C292.486572,500.364899 271.325439,500.437805 250.167313,500.242493 
	C245.567566,500.200043 243.871567,501.609528 244.257339,506.255096 
	C245.386917,519.857666 246.873367,533.377441 251.282120,546.808411 
M262.873962,600.606873 
	C251.912170,588.204712 244.024796,573.995728 238.540329,558.462158 
	C229.490372,532.830017 226.861847,506.378784 228.568665,479.341583 
	C230.147980,454.323944 236.065384,430.741547 250.248016,409.685059 
	C250.599869,409.162628 251.080215,408.580994 250.453217,407.773651 
	C248.479385,406.949677 246.294006,407.333923 244.171326,407.331818 
	C212.180618,407.300049 180.189560,407.389435 148.199249,407.270996 
	C135.388702,407.223541 126.227180,412.761047 120.467705,424.111694 
	C101.196373,462.091248 96.249702,501.875305 105.882820,543.338623 
	C112.213814,570.588806 124.796181,594.755554 142.916290,616.083984 
	C145.811539,619.491882 148.034790,620.162476 151.220139,616.466187 
	C154.365662,612.816162 157.990021,609.577881 161.415878,606.170532 
	C170.610977,597.025208 181.703186,596.881287 191.015228,605.867676 
	C194.970230,609.684265 198.815659,613.616638 202.646072,617.559326 
	C204.828690,619.805908 206.742035,619.860596 208.976913,617.535217 
	C213.131546,613.212402 217.386078,608.980591 221.711273,604.827820 
	C229.470490,597.377808 238.730103,596.703552 247.598251,602.835449 
	C250.885208,605.108276 254.048050,607.579102 257.446808,609.667908 
	C265.056824,614.344788 273.283600,617.338440 282.220490,618.275757 
	C275.330505,613.106018 269.075287,607.413940 262.873962,600.606873 
M302.484741,484.702087 
	C305.647400,484.703064 308.810760,484.748383 311.972534,484.695709 
	C318.520691,484.586670 321.375336,481.330719 320.516449,474.824097 
	C319.364136,466.094818 318.119598,457.368347 315.583008,448.909576 
	C311.731934,436.067261 307.012421,423.616241 297.069672,414.042725 
	C287.473663,404.803070 276.969299,404.971344 267.599762,414.349548 
	C265.727631,416.223358 263.968842,418.268677 262.472748,420.450836 
	C250.223480,438.317352 245.988281,458.648743 244.272659,479.773651 
	C243.930939,483.981354 245.867157,484.780945 249.556259,484.753418 
	C266.866638,484.624359 284.178558,484.699036 302.484741,484.702087 
z"/>
<path fill="#000000" opacity="1.000000" stroke="none" 
	d="
M445.765198,563.341431 
	C435.625519,563.371338 425.959747,563.545349 416.304443,563.302063 
	C412.251495,563.200012 411.059906,564.685974 411.230316,568.542236 
	C411.487396,574.361328 411.473969,580.206238 411.251709,586.027771 
	C411.109253,589.759155 412.532593,590.974304 416.190338,590.931030 
	C428.848541,590.781006 441.511810,591.011841 454.168549,590.809692 
	C458.638763,590.738342 460.419220,592.134155 460.314270,596.812317 
	C460.047272,608.712585 461.090363,607.220154 449.799652,607.259460 
	C432.309021,607.320312 414.816223,607.127258 397.328369,607.353699 
	C392.466644,607.416626 390.607971,606.160706 390.648956,600.936157 
	C390.878967,571.619995 390.882904,542.300232 390.661774,512.984009 
	C390.623230,507.872864 392.193298,506.467377 397.193512,506.541718 
	C415.513245,506.814209 433.840881,506.782166 452.162048,506.566284 
	C456.587036,506.514130 457.956055,508.034149 457.944977,512.292297 
	C457.912903,524.629700 457.825592,522.268311 448.144653,522.390381 
	C437.485168,522.524902 426.821808,522.525452 416.162445,522.393677 
	C412.586975,522.349548 411.080017,523.446289 411.228027,527.265381 
	C411.491150,534.054626 411.301941,540.861389 411.301941,547.646667 
	C415.474213,549.141113 419.268005,548.210815 423.039551,548.192322 
	C430.363892,548.156372 437.689453,548.400818 445.014191,548.385986 
	C448.287292,548.379395 449.465332,549.862305 449.227600,552.991150 
	C449.063904,555.145142 449.187927,557.319946 449.149048,559.484863 
	C449.113708,561.453369 448.730011,563.191589 445.765198,563.341431 
z"/>
<path fill="#000000" opacity="1.000000" stroke="none" 
	d="
M625.810181,562.637146 
	C627.292908,576.138489 625.514160,588.489502 616.308716,598.553162 
	C604.427124,611.542358 583.769043,611.957214 571.009644,599.775085 
	C570.440613,599.231750 570.295410,598.244446 569.952820,597.463928 
	C569.427734,597.757446 568.902710,598.050964 568.377625,598.344482 
	C568.377625,607.608398 568.143127,616.880676 568.472839,626.132812 
	C568.647766,631.040955 566.856384,632.442871 562.136963,632.315674 
	C548.403687,631.945374 550.697876,633.546997 550.654175,620.979065 
	C550.559692,593.817627 550.737366,566.654602 550.518433,539.494568 
	C550.479858,534.703918 551.710449,532.597107 556.618225,533.534790 
	C556.778381,533.565369 556.950623,533.534485 557.117188,533.529114 
	C567.013489,533.212341 567.013489,533.212341 569.340942,542.469971 
	C575.444946,536.157288 582.645142,532.219299 591.295410,531.743591 
	C609.518433,530.741455 622.585754,542.414307 625.810181,562.637146 
M570.206787,582.133972 
	C573.485046,590.232483 579.689087,593.734314 588.216980,593.724365 
	C595.673889,593.715637 601.698120,591.110107 604.749146,583.976318 
	C608.429626,575.370972 608.724854,566.507202 605.148315,557.762817 
	C602.107117,550.327209 595.593140,546.283081 587.409790,546.358154 
	C579.134949,546.434082 573.168640,550.536499 570.243835,558.424316 
	C567.428894,566.015686 567.475830,573.711365 570.206787,582.133972 
z"/>
<path fill="#000000" opacity="1.000000" stroke="none" 
	d="
M897.820190,607.570068 
	C875.090942,603.274841 866.559631,582.697510 869.105896,564.639282 
	C872.585449,539.963440 892.996765,526.866882 917.199097,533.052185 
	C930.477234,536.445740 939.187439,547.688904 940.317383,562.893433 
	C941.171265,574.384583 941.171326,574.390015 929.411499,574.395508 
	C917.088440,574.401306 904.763916,574.500427 892.442993,574.337952 
	C888.079712,574.280457 886.930481,575.534729 888.097046,579.957336 
	C890.077148,587.463867 894.382935,592.452759 901.911560,594.131104 
	C909.490295,595.820618 916.805481,594.724121 921.930847,588.423950 
	C924.755310,584.952087 926.922424,584.744812 930.690552,586.510925 
	C940.386658,591.055237 940.897949,593.384338 932.301819,600.322083 
	C922.270081,608.418579 910.528259,609.528137 897.820190,607.570068 
M921.292603,555.320374 
	C917.057190,547.372925 910.086121,543.954163 902.056519,545.886719 
	C894.060059,547.811279 889.068665,553.524048 888.884827,561.372131 
	C899.976746,561.372131 911.056030,561.372131 921.964294,561.372131 
	C922.843384,559.121521 921.650879,557.639160 921.292603,555.320374 
z"/>
<path fill="#000000" opacity="1.000000" stroke="none" 
	d="
M686.200745,590.233582 
	C688.704712,588.628174 689.338196,584.445801 692.232666,585.090637 
	C696.205444,585.975647 699.997925,587.997314 703.626282,589.974731 
	C705.706360,591.108337 704.155823,592.944885 703.320007,594.283020 
	C698.163452,602.538757 690.121155,606.062500 680.994202,607.825928 
	C661.183044,611.653503 643.521790,602.537781 637.127930,585.142761 
	C629.866394,565.387146 637.926880,543.135254 655.441895,535.176208 
	C666.312439,530.236511 677.528564,530.231567 688.366638,534.994324 
	C700.581909,540.362305 704.885925,551.298889 706.255188,563.569641 
	C707.458191,574.351624 707.183594,574.383789 696.164124,574.385681 
	C683.846924,574.387817 671.529724,574.370056 659.212585,574.394714 
	C653.076599,574.407043 652.688049,574.926758 654.203125,580.647644 
	C657.833740,594.356934 673.234558,599.128723 686.200745,590.233582 
M682.499695,548.932617 
	C671.675476,542.229553 659.714966,545.709412 655.269165,556.712463 
	C653.801331,560.345093 654.453125,561.965759 658.607422,561.916748 
	C667.390564,561.812927 676.175903,561.897644 684.960144,561.870361 
	C686.081604,561.866821 687.328552,562.009460 688.171753,560.604614 
	C688.166687,556.207336 686.350220,552.477722 682.499695,548.932617 
z"/>
<path fill="#000000" opacity="1.000000" stroke="none" 
	d="
M752.529419,533.094360 
	C757.636902,531.738037 762.397949,531.118042 767.237854,532.118958 
	C780.791016,534.921753 787.293945,543.286377 787.942444,560.351257 
	C788.473389,574.320984 788.045288,588.326294 788.103455,602.315552 
	C788.118347,605.898193 786.557739,607.330811 782.935852,607.274719 
	C767.070007,607.028748 769.909973,609.033020 769.602234,594.689392 
	C769.355896,583.210144 770.456360,571.678772 769.069702,560.259460 
	C767.836426,550.103943 763.033569,546.656738 752.724365,547.322510 
	C744.194214,547.873291 738.468506,553.895142 738.370422,562.837769 
	C738.231628,575.493774 738.113892,588.157410 738.421265,600.807251 
	C738.544861,605.895813 736.841309,607.483215 731.836914,607.339600 
	C717.937073,606.940857 719.803467,608.848877 719.744019,595.464111 
	C719.661133,576.811401 719.823242,558.157043 719.646362,539.505676 
	C719.605408,535.184448 720.501648,532.709106 725.405334,533.517212 
	C726.367615,533.675781 727.396057,533.467651 728.390808,533.388367 
	C737.548340,532.658203 737.548157,532.655701 738.822021,541.912781 
	C742.813232,537.976135 746.893005,534.637451 752.529419,533.094360 
z"/>
<path fill="#000000" opacity="1.000000" stroke="none" 
	d="
M530.752075,542.704346 
	C525.767151,550.021118 521.103577,557.125366 516.150635,564.021729 
	C514.070251,566.918335 514.115967,569.171509 516.143494,572.077393 
	C522.337769,580.955261 528.323914,589.979736 534.297791,599.008911 
	C535.806335,601.288940 537.879578,603.344238 538.380859,607.074341 
	C531.956604,607.074341 525.885193,607.209167 519.825256,607.004211 
	C517.580811,606.928284 516.793762,604.578918 515.725464,602.952942 
	C511.273468,596.177002 506.899689,589.349548 501.867554,581.567139 
	C497.644562,587.863892 493.954742,593.304504 490.328308,598.787048 
	C484.503387,607.593079 478.016937,609.726013 467.244354,606.273010 
	C466.659088,604.358398 468.123718,603.201660 469.008118,601.890015 
	C475.433075,592.361328 481.823029,582.806946 488.411865,573.392151 
	C490.378021,570.582703 490.766968,568.415833 488.652130,565.376465 
	C482.566437,556.630310 476.809662,547.654663 470.970154,538.738647 
	C470.084686,537.386658 468.724152,536.217468 468.863586,533.739990 
	C475.137421,532.695374 481.510040,532.705017 487.855835,533.705627 
	C489.746857,534.003845 490.435730,536.156433 491.419861,537.681335 
	C495.183075,543.512573 498.942627,549.346130 503.226166,555.989197 
	C507.648804,549.236633 511.700195,543.392822 515.357727,537.312073 
	C517.004883,534.573730 518.748474,533.235229 522.072632,533.407837 
	C526.500977,533.637695 530.968018,533.146057 535.659729,534.061646 
	C534.921448,537.563049 532.497986,539.747253 530.752075,542.704346 
z"/>
<path fill="#000000" opacity="1.000000" stroke="none" 
	d="
M850.965820,552.010437 
	C847.405884,554.116882 845.186707,553.504395 842.672363,550.398254 
	C838.658630,545.439880 829.646973,543.954773 823.787354,546.469666 
	C821.102966,547.621826 819.504395,549.455017 819.322327,552.487122 
	C819.138306,555.551208 820.581787,557.545471 823.145386,558.916748 
	C827.333008,561.156799 832.006958,561.682129 836.549377,562.624573 
	C840.466064,563.437256 844.340942,564.348145 848.065552,565.823669 
	C855.759033,568.871460 860.098022,574.332520 860.602844,582.773376 
	C861.079346,590.740967 859.090637,597.621826 852.434998,602.550354 
	C840.390808,611.469116 816.688049,610.219910 805.646362,600.152710 
	C798.072083,593.246887 798.573853,590.647949 807.774475,586.601257 
	C811.452515,584.983643 813.656433,584.898621 816.378784,588.658142 
	C820.703918,594.631104 830.687866,596.489441 837.835938,593.753723 
	C840.740112,592.642273 842.552734,590.813660 842.886597,587.601562 
	C843.240540,584.195679 841.843506,581.799194 838.926819,580.204590 
	C833.719971,577.357971 827.792969,576.974365 822.227783,575.351624 
	C819.363586,574.516357 816.502930,573.643433 813.703735,572.615723 
	C799.023071,567.225342 797.856934,546.520020 810.260681,537.453796 
	C821.781067,529.033142 842.477234,530.038147 853.191040,539.597534 
	C860.455811,546.079651 860.142517,548.112732 850.965820,552.010437 
z"/>
<path fill="#000000" opacity="1.000000" stroke="none" 
	d="
M400.105774,462.144531 
	C407.249146,451.714935 414.188751,441.580963 422.057281,430.090454 
	C413.887970,430.090454 407.025696,430.125275 400.164001,430.079498 
	C394.570953,430.042206 393.371613,428.561401 394.058014,423.201508 
	C394.364441,420.808563 395.361481,419.660797 397.871246,419.671356 
	C410.349060,419.723846 422.828094,419.611847 435.304657,419.747314 
	C439.131439,419.788879 440.248444,422.257172 438.067932,425.968140 
	C435.627991,430.120728 432.818665,434.058105 430.130615,438.062622 
	C424.290405,446.763184 418.397919,455.428772 412.593170,464.152863 
	C411.444366,465.879456 409.735565,467.423553 410.015930,470.657379 
	C417.595215,470.657379 425.177216,470.830475 432.745972,470.588470 
	C436.876099,470.456421 438.321594,471.955536 438.249725,476.059143 
	C438.187286,479.624298 436.557892,480.820801 433.404877,480.791443 
	C420.443176,480.670807 407.480286,480.601196 394.520966,480.350616 
	C390.935822,480.281281 389.808228,477.961456 391.851593,474.452759 
	C394.272552,470.295685 397.196228,466.431366 400.105774,462.144531 
z"/>
<path fill="#000000" opacity="1.000000" stroke="none" 
	d="
M521.069458,434.764099 
	C532.535278,435.805084 537.246277,440.645386 537.968628,452.725342 
	C538.434937,460.522369 538.010925,468.369568 538.113953,476.192566 
	C538.175598,480.877625 534.968079,480.333649 531.942017,480.432922 
	C528.755676,480.537476 526.454285,480.153229 526.576782,475.986572 
	C526.786987,468.834747 526.863708,461.658661 526.516541,454.516113 
	C526.119263,446.340057 520.373108,442.529938 513.384094,445.288513 
	C509.634277,446.768585 507.965515,449.780975 507.788574,453.436554 
	C507.443054,460.576141 507.303314,467.738190 507.444153,474.883759 
	C507.521484,478.807434 506.536499,480.635437 502.189484,480.519348 
	C498.299255,480.415436 495.908691,479.933228 495.957428,475.166321 
	C496.137878,457.520905 496.046204,439.872620 496.037842,422.225433 
	C496.036011,418.348419 496.634857,415.532074 501.762360,415.638214 
	C506.133362,415.728668 507.603149,417.122559 507.470306,421.478027 
	C507.295380,427.212341 506.889069,433.027527 508.030090,439.226227 
	C512.546753,437.308136 516.235168,434.931824 521.069458,434.764099 
z"/>
<path fill="#000000" opacity="1.000000" stroke="none" 
	d="
M489.345184,457.125366 
	C489.215942,470.747101 480.889130,480.203552 468.488464,481.271332 
	C454.311615,482.492035 443.664948,475.078247 441.064819,462.174896 
	C437.981720,446.874603 452.974976,432.302216 469.047791,434.977417 
	C481.353027,437.025513 488.587006,444.757446 489.345184,457.125366 
M475.256622,449.423248 
	C469.072906,441.956909 459.084625,442.345032 455.226257,450.310394 
	C452.788025,455.343964 452.694550,460.554077 455.091644,465.686493 
	C457.190826,470.180878 461.769287,472.990845 466.306854,472.421326 
	C471.363403,471.786682 474.880798,469.105347 476.471130,464.136749 
	C478.005890,459.341736 477.623138,454.668213 475.256622,449.423248 
z"/>
<path fill="#000000" opacity="1.000000" stroke="none" 
	d="
M586.720215,473.648926 
	C572.401855,486.538544 550.917419,482.498169 544.995422,466.125336 
	C541.411560,456.216797 545.056213,445.113892 553.815735,439.255493 
	C563.731140,432.624023 576.847168,433.430878 585.295776,441.192139 
	C592.926086,448.201660 594.723877,460.347107 589.466309,469.647736 
	C588.732117,470.946503 587.797607,472.132050 586.720215,473.648926 
M569.284790,444.192352 
	C562.267578,444.354919 559.328735,446.252075 557.463623,451.823669 
	C555.109009,458.857147 556.464661,466.279602 560.994141,469.736572 
	C563.826721,471.898407 567.031250,473.068115 570.754211,472.074066 
	C577.117554,470.375000 580.069092,466.013916 580.053284,458.084839 
	C580.037231,450.007721 577.075928,445.891998 569.284790,444.192352 
z"/>
<path fill="#000000" opacity="1.000000" stroke="none" 
	d="
M174.000000,447.736084 
	C180.649063,447.739258 186.798950,447.680847 192.946945,447.763824 
	C199.349777,447.850250 203.036545,450.729889 203.200439,455.587646 
	C203.350494,460.035156 199.720230,463.548492 193.753098,463.638855 
	C177.804642,463.880371 161.848831,463.907684 145.899887,463.706268 
	C139.774017,463.628906 137.090286,461.172272 136.697800,456.700073 
	C136.211411,451.157959 139.465332,447.903290 146.079178,447.793335 
	C155.217255,447.641449 164.359528,447.743378 174.000000,447.736084 
z"/>
<path fill="#000000" opacity="1.000000" stroke="none" 
	d="
M179.993073,500.326416 
	C166.162460,500.322632 152.830368,500.343719 139.498444,500.303375 
	C133.487701,500.285187 129.981476,497.429413 129.818649,492.584442 
	C129.662720,487.944397 133.442001,484.736511 139.335068,484.721008 
	C156.333282,484.676300 173.331772,484.671417 190.329987,484.714569 
	C196.475204,484.730133 199.577957,487.504547 199.557800,492.704529 
	C199.538818,497.604584 196.465607,500.211670 190.490524,500.312042 
	C187.158432,500.368011 183.824677,500.324707 179.993073,500.326416 
z"/>
<path fill="#000000" opacity="1.000000" stroke="none" 
	d="
M167.297363,521.910583 
	C171.749115,523.699646 173.937607,526.689941 172.918793,531.034607 
	C171.860474,535.547607 168.436462,537.331055 163.931259,537.312195 
	C156.117462,537.279480 148.302612,537.371277 140.489792,537.278442 
	C134.692932,537.209534 131.693680,534.451599 131.636230,529.438904 
	C131.578476,524.400635 134.500168,521.729492 140.443039,521.700928 
	C149.252472,521.658630 158.062622,521.768555 167.297363,521.910583 
z"/>
</svg>
