<svg xmlns="http://www.w3.org/2000/svg" width="250" height="250" fill="none"><g clip-path="url(#a)"><path fill="#fff" d="M30.094 48.827v29.182h.565c79.45 0 144.214 64.012 144.873 142.897h28.335c-.753-94.794-78.32-171.797-173.773-172.079Zm0 60.246v29.182h.565c46.032 0 83.591 36.995 84.25 82.651h28.335c-.659-61.564-51.115-111.55-113.15-111.833ZM221 145.41V86.575c-7.249-9.884-16.192-21.18-25.134-29.935-9.979-9.884-21.652-18.827-32.948-26.64h-62.505C155.199 49.674 199.16 91.94 221 145.41Z"/><path fill="#606" d="M30.565 138.255H30v73.049c0 5.272 4.33 9.602 9.602 9.602h75.214c-.659-45.656-38.125-82.651-84.251-82.651Zm0-60.246H30v31.064c62.035.283 112.491 50.174 113.15 111.833h32.194c-.564-78.885-65.235-142.897-144.78-142.897ZM221 211.398V145.41C199.161 91.94 155.2 49.674 100.507 30H39.602C34.33 30 30 34.33 30 39.602v9.32c95.453.282 173.114 77.19 173.679 172.078h7.719c5.366-.094 9.602-4.33 9.602-9.602ZM195.866 56.64c8.849 8.849 17.886 20.051 25.134 29.935V39.508a9.483 9.483 0 0 0-5.865-8.792 9.478 9.478 0 0 0-3.643-.716h-48.479c11.296 7.813 22.969 16.756 32.853 26.64Z"/></g><defs><clipPath id="a"><path fill="#fff" d="M30 30h191v191H30z"/></clipPath></defs></svg>