<svg version="1.1" xmlns="http://www.w3.org/2000/svg" width="500" height="500">
<path d="M0 0 C165 0 330 0 500 0 C500 165 500 330 500 500 C335 500 170 500 0 500 C0 335 0 170 0 0 Z " fill="#FEFEFE" transform="translate(0,0)"/>
<path d="M0 0 C1.1446875 0.54140625 1.1446875 0.54140625 2.3125 1.09375 C9.10340548 4.58352087 16.10767892 9.3282745 20.85546875 15.35546875 C21.56316406 15.89816406 22.27085937 16.44085938 23 17 C25.56815818 16.60974067 27.57591842 16.08199537 30 15.25 C42.70064759 11.49898543 57.57600634 10.93989662 70 16 C70.79921875 16.31710938 71.5984375 16.63421875 72.421875 16.9609375 C85.85579476 22.99336644 95.58968585 32.45382455 103 45 C103.58011126 46.65367817 104.12897525 48.31918472 104.625 50 C105.9566223 53.45329803 106.96473476 53.98307593 110.40234375 55.6328125 C113.2040062 56.68415451 116.0407973 57.615235 118.8828125 58.55078125 C132.8365259 63.22441153 143.22630362 74.24639979 150 87 C156.51376869 101.55420192 158.17546614 116.72077667 153 132 C147.32727273 145.67272727 147.32727273 145.67272727 143 150 C143.37182171 153.87756927 144.81879137 157.02028912 146.5 160.5 C152.45586917 172.82726409 152.00390316 190.32464817 148 203.25 C144.77469619 211.42812078 138.73378446 223.90065705 130.6875 228.25 C130.130625 228.8275 129.57375 229.405 129 230 C129.18561358 233.43129538 129.18561358 233.43129538 129.62109375 236.03125 C131.7796522 252.94366673 129.17585042 268.9494265 119 283 C113.26866417 290.26895663 107.07432678 296.35314255 99 301 C97.7625 301.8353125 97.7625 301.8353125 96.5 302.6875 C88.3655733 306.95807402 80.07482831 308.15646256 71 308 C70.86851562 308.56589844 70.73703125 309.13179688 70.6015625 309.71484375 C66.60097776 324.91187018 57.26232796 337.52559937 44.015625 345.8828125 C28.68254178 353.95499123 12.80575316 357.28504779 -4.0234375 352.39453125 C-9.31808261 350.6698194 -14.10194047 348.06479676 -18.9140625 345.29296875 C-22.62077764 343.73990203 -24.18232469 343.84627971 -28 345 C-30.21988114 346.05967399 -32.40646933 347.19080703 -34.5625 348.375 C-49.07407185 355.98626229 -62.62729095 356.41747949 -78.0625 351.8125 C-87.09363654 348.9644734 -94.09232436 345.68078118 -101 339 C-101.72703125 338.33742188 -102.4540625 337.67484375 -103.203125 336.9921875 C-108.64216086 331.8553203 -112.86274397 326.71779333 -115.07421875 319.48828125 C-116.36943074 315.51275674 -117.54800446 312.39845701 -120 309 C-124.6371688 307.16777792 -129.07379911 306.75472492 -134.00195312 306.27490234 C-142.70140516 305.0779836 -151.4940328 299.7143119 -158 294 C-158 293.34 -158 292.68 -158 292 C-158.58007812 291.76925781 -159.16015625 291.53851563 -159.7578125 291.30078125 C-168.90775369 285.99254011 -174.6213038 271.58429694 -177.375 261.8125 C-179.01605336 252.87787618 -178.78580061 242.58998974 -177.125 233.6875 C-177.08375 232.470625 -177.0425 231.25375 -177 230 C-179.20750904 227.70638815 -179.20750904 227.70638815 -181.11328125 226.5 C-191.6568855 218.11750718 -197.00358937 203.86672185 -199 191 C-200.0596909 179.90873755 -199.18979725 169.34329569 -194.3125 159.25 C-192.83286285 156.11949173 -192.01167545 154.2977239 -191.875 150.8125 C-193.14034553 147.64913618 -194.79914921 145.03189557 -196.6640625 142.19140625 C-204.07408258 130.03637332 -205.69800648 115.31784054 -202.8125 101.5625 C-198.8331051 86.04836135 -191.61605356 72.97003528 -178 64 C-177.195625 63.45601563 -176.39125 62.91203125 -175.5625 62.3515625 C-169.30901176 58.3454216 -162.5660219 55 -155 55 C-154.73316406 54.12859375 -154.46632812 53.2571875 -154.19140625 52.359375 C-148.67063678 36.79261517 -137.37097673 25.5257257 -123 18 C-106.99438671 10.9341073 -89.8985647 11.06895507 -73.51171875 16.8828125 C-70.82832842 17.28667567 -70.82832842 17.28667567 -68.67578125 15.12109375 C-67.50595703 13.79271484 -67.50595703 13.79271484 -66.3125 12.4375 C-57.56205673 3.19661891 -44.70120914 -4.21080887 -31.69921875 -5.00390625 C-20.59583728 -4.98783768 -10.18701542 -4.95946803 0 0 Z " fill="#1A6FD8" transform="translate(274,76)"/>
<path d="M0 0 C18.02523572 1.38655659 29.6083467 6.36614575 43 18 C43.61230469 18.77730469 44.22460938 19.55460937 44.85546875 20.35546875 C45.56316406 20.89816406 46.27085937 21.44085938 47 22 C49.56815818 21.60974067 51.57591842 21.08199537 54 20.25 C66.70064759 16.49898543 81.57600634 15.93989662 94 21 C94.79921875 21.31710938 95.5984375 21.63421875 96.421875 21.9609375 C109.85579476 27.99336644 119.58968585 37.45382455 127 50 C127.58011126 51.65367817 128.12897525 53.31918472 128.625 55 C129.9566223 58.45329803 130.96473476 58.98307593 134.40234375 60.6328125 C137.2040062 61.68415451 140.0407973 62.615235 142.8828125 63.55078125 C156.8365259 68.22441153 167.22630362 79.24639979 174 92 C180.51376869 106.55420192 182.17546614 121.72077667 177 137 C171.32727273 150.67272727 171.32727273 150.67272727 167 155 C167.37182171 158.87756927 168.81879137 162.02028912 170.5 165.5 C176.45586917 177.82726409 176.00390316 195.32464817 172 208.25 C168.77469619 216.42812078 162.73378446 228.90065705 154.6875 233.25 C153.8521875 234.11625 153.8521875 234.11625 153 235 C153.18561358 238.43129538 153.18561358 238.43129538 153.62109375 241.03125 C155.7796522 257.94366673 153.17585042 273.9494265 143 288 C137.26866417 295.26895663 131.07432678 301.35314255 123 306 C121.7625 306.8353125 121.7625 306.8353125 120.5 307.6875 C112.3655733 311.95807402 104.07482831 313.15646256 95 313 C94.86851562 313.56589844 94.73703125 314.13179688 94.6015625 314.71484375 C90.60097776 329.91187018 81.26232796 342.52559937 68.015625 350.8828125 C52.60369423 358.99650092 36.7053504 362.27176024 19.86328125 357.3125 C14.31773886 355.51709082 8.83734856 353.28029965 4 350 C3.505 348.515 3.505 348.515 3 347 C2.01 347 1.02 347 0 347 C0 232.49 0 117.98 0 0 Z " fill="#034BA2" transform="translate(250,71)"/>
</svg>
