<svg width="250" height="250" viewBox="0 0 126 24" fill="none" xmlns="http://www.w3.org/2000/svg">
<path d="M60.9588 6.59833C61.8071 6.59833 62.4948 5.91065 62.4948 5.06235C62.4948 4.21405 61.8071 3.52637 60.9588 3.52637C60.1105 3.52637 59.4228 4.21405 59.4228 5.06235C59.4228 5.91065 60.1105 6.59833 60.9588 6.59833Z" fill="#0D0536"/>
<path d="M36.7073 5.06836H34.2002V17.5687H36.7073V5.06836Z" fill="#0D0536"/>
<path d="M44.4172 7.50476C43.8304 7.49923 43.2497 7.62419 42.7171 7.8706C42.2162 8.10153 41.7774 8.4482 41.4367 8.88204V7.64733H38.9296V17.5707H41.4367V12.0885C41.4367 11.3012 41.6367 10.696 42.0366 10.2728C42.2494 10.0572 42.5053 9.88895 42.7876 9.77909C43.0699 9.66923 43.3722 9.62021 43.6748 9.63523C43.9737 9.62023 44.2724 9.66936 44.5508 9.77932C44.8291 9.88928 45.0808 10.0575 45.2888 10.2728C45.6815 10.696 45.8779 11.3012 45.8779 12.0885V17.5707H48.3661V11.7496C48.3661 10.4135 48.0012 9.37161 47.2713 8.6238C46.8985 8.2504 46.4525 7.95822 45.9613 7.76563C45.4701 7.57304 44.9444 7.48422 44.4172 7.50476Z" fill="#0D0536"/>
<path d="M58.0502 14.7405C58.0519 15.2903 57.8807 15.8267 57.5606 16.2738C57.2278 16.7379 56.7723 17.1002 56.2452 17.3202L56.1995 17.3417C55.5434 17.6094 54.8393 17.7394 54.1309 17.7237C53.498 17.7329 52.8685 17.6291 52.2721 17.417C52.1614 17.3787 52.0528 17.3347 51.9466 17.2852C51.3437 17.0254 50.8169 16.6162 50.416 16.0962C50.3169 15.9645 50.227 15.8261 50.147 15.682L52.369 14.6598C52.4568 14.9527 52.6382 15.2088 52.8854 15.3888C53.2417 15.65 53.676 15.7828 54.1175 15.7654C54.5117 15.7853 54.9022 15.6809 55.2338 15.4668C55.2718 15.4409 55.3078 15.4121 55.3414 15.3807C55.4326 15.301 55.5055 15.2025 55.5552 15.092C55.6049 14.9815 55.6301 14.8616 55.6292 14.7405C55.6295 14.584 55.5827 14.4311 55.4949 14.3016C55.4071 14.172 55.2824 14.0719 55.137 14.0142C54.9621 13.9293 54.7825 13.8547 54.599 13.7909L54.3811 13.7183C54.2197 13.6672 54.0421 13.6161 53.8431 13.5596L53.5741 13.4843C52.9552 13.3443 52.3474 13.1591 51.7556 12.9301C51.2849 12.74 50.8669 12.4392 50.5371 12.0532C50.1791 11.6021 49.9983 11.0358 50.0287 10.4607C50.0239 9.92125 50.1896 9.39405 50.5021 8.95433C50.8468 8.47592 51.3182 8.10326 51.8632 7.87833C52.0236 7.80769 52.188 7.74661 52.3555 7.69541C52.8741 7.54737 53.4114 7.47578 53.9507 7.48291C54.5302 7.47599 55.1068 7.56693 55.6561 7.7519C56.0667 7.88904 56.448 8.1016 56.7805 8.37867C57.1628 8.69302 57.4644 9.09422 57.6602 9.54881L55.5082 10.5522C55.4419 10.2648 55.2797 10.0086 55.0482 9.82588C54.7093 9.57986 54.2963 9.45739 53.878 9.47887C53.655 9.47535 53.4324 9.50158 53.2163 9.55688C53.0781 9.59492 52.9466 9.65389 52.8263 9.73173C52.7098 9.80583 52.6147 9.90913 52.5505 10.0314C52.4864 10.1536 52.4553 10.2905 52.4604 10.4284C52.4595 10.5909 52.5068 10.7499 52.5963 10.8854C52.6859 11.021 52.8137 11.1269 52.9634 11.1897C53.3271 11.3631 53.7063 11.5018 54.0959 11.604L54.5209 11.7196C55.125 11.8624 55.7183 12.0476 56.2963 12.2738C56.7645 12.4668 57.1783 12.7715 57.5015 13.1615C57.866 13.606 58.0606 14.1657 58.0502 14.7405Z" fill="#0D0536"/>
<path d="M62.2121 7.64746H59.7051V17.5708H62.2121V7.64746Z" fill="#0D0536"/>
<path d="M83.7393 7.99638C83.1253 7.66136 82.4347 7.49172 81.7353 7.50412C81.1187 7.4949 80.5074 7.61972 79.9438 7.86995C79.4349 8.09268 78.9907 8.44064 78.6526 8.88139V3.52832H76.1455V17.57H78.6526V12.0878C78.6526 11.2997 78.8543 10.6944 79.2524 10.2721C79.4656 10.0562 79.7219 9.88776 80.0047 9.77789C80.2875 9.66801 80.5903 9.61918 80.8933 9.63458C81.1923 9.61905 81.4912 9.66794 81.7696 9.77793C82.0481 9.88792 82.2997 10.0564 82.5073 10.2721C82.9001 10.6944 83.0991 11.2997 83.0991 12.0878V17.57H85.6062V11.7489C85.6281 10.9531 85.4593 10.1636 85.1139 9.44628C84.8117 8.83595 84.3327 8.33073 83.7393 7.99638Z" fill="#0D0536"/>
<path d="M90.4011 4.68359L87.8752 5.70579V7.64796H86.6943V9.70848H87.8752V14.4913C87.8752 16.5428 88.9315 17.5695 91.044 17.5713H92.6204V15.4677H91.4583C91.1712 15.4929 90.8846 15.4136 90.6513 15.2445C90.5627 15.1468 90.4955 15.0318 90.4538 14.9068C90.4121 14.7818 90.3969 14.6494 90.4092 14.5182V9.70848H92.6284V7.64796H90.4092L90.4011 4.68359Z" fill="#0D0536"/>
<path d="M97.0888 7.23564C97.0888 6.67343 97.2072 6.28607 97.4466 6.07087C97.686 5.85568 98.1083 5.75615 98.7189 5.76691V3.65258C97.3202 3.61671 96.2746 3.88571 95.5824 4.45957C94.8902 5.03344 94.5441 5.9301 94.5441 7.14956V7.64989H93.417V9.71042H94.5441V17.5706H97.0888V9.70773H98.8265V7.64721H97.0888V7.23564Z" fill="#0D0536"/>
<path d="M106.871 13.1108C106.871 13.899 106.672 14.5042 106.28 14.9292C106.069 15.1447 105.814 15.3127 105.533 15.4222C105.252 15.5316 104.951 15.58 104.649 15.5641C104.351 15.5796 104.052 15.531 103.774 15.4215C103.495 15.312 103.244 15.1441 103.036 14.9292C102.636 14.5042 102.436 13.8981 102.436 13.1108V7.64746H99.9286V13.4686C99.9067 14.2605 100.082 15.0453 100.44 15.7524C100.753 16.3644 101.242 16.8692 101.844 17.2023C102.477 17.5394 103.187 17.7089 103.904 17.6945C104.489 17.7002 105.067 17.5752 105.596 17.3287C106.094 17.1003 106.529 16.753 106.861 16.3173V17.5708H109.384V7.64746H106.861L106.871 13.1108Z" fill="#0D0536"/>
<path d="M114 4.31738H111.493V17.5709H114V4.31738Z" fill="#0D0536"/>
<path d="M74.0037 12.6054C74.0029 11.5052 73.6357 10.4366 72.9599 9.56837L73.8342 8.53003L72.0696 7.04785L71.1738 8.12384C70.4983 7.79814 69.758 7.62896 69.0081 7.62891C68.2582 7.62885 67.5179 7.79793 66.8423 8.12354C66.1668 8.44915 65.5734 8.92292 65.1062 9.5096C64.6391 10.0963 64.3103 10.7807 64.1443 11.5121C63.9782 12.2434 63.9793 13.0027 64.1473 13.7336C64.3153 14.4644 64.646 15.148 65.1148 15.7334C65.5835 16.3188 66.1782 16.7909 66.8547 17.1147C67.5311 17.4384 68.2719 17.6055 69.0218 17.6033C70.4771 17.6033 71.7118 18.5422 71.7118 19.6504C71.7118 20.7587 70.4798 21.6975 69.0218 21.6975C67.5638 21.6975 66.3318 20.7614 66.3318 19.6504H64.0292C64.0292 22.0499 66.2673 24.0001 69.0191 24.0001C71.771 24.0001 74.009 22.0499 74.009 19.6504C73.9967 19.0083 73.8349 18.3779 73.5365 17.8092C73.2382 17.2405 72.8114 16.7491 72.2901 16.374C72.8292 15.9054 73.2613 15.3264 73.5569 14.6761C73.8525 14.0259 74.0049 13.3197 74.0037 12.6054ZM66.3264 12.6054C66.3264 12.0733 66.4842 11.5532 66.7798 11.1109C67.0754 10.6685 67.4955 10.3237 67.987 10.1201C68.4785 9.91654 69.0194 9.86327 69.5412 9.96706C70.063 10.0709 70.5423 10.3271 70.9185 10.7033C71.2947 11.0795 71.5509 11.5588 71.6547 12.0806C71.7585 12.6024 71.7052 13.1432 71.5016 13.6348C71.298 14.1263 70.9533 14.5464 70.5109 14.842C70.0685 15.1376 69.5484 15.2953 69.0164 15.2953C68.303 15.2953 67.6188 15.0119 67.1143 14.5075C66.6098 14.003 66.3264 13.3188 66.3264 12.6054Z" fill="#0D0536"/>
<path d="M12 6.85061C12 5.96662 12.6716 5.25 13.5 5.25C14.3284 5.25 15 5.96662 15 6.85061V22.3994C15 23.2834 14.3284 24 13.5 24C12.6716 24 12 23.2834 12 22.3994V6.85061Z" fill="#746FFF"/>
<path d="M18 12.1042C18 11.2182 18.6716 10.5 19.5 10.5C20.3284 10.5 21 11.2182 21 12.1042V17.1458C21 18.0318 20.3284 18.75 19.5 18.75C18.6716 18.75 18 18.0318 18 17.1458V12.1042Z" fill="#746FFF"/>
<path d="M6 6.85417C6 5.96821 6.67157 5.25 7.5 5.25C8.32843 5.25 9 5.96821 9 6.85417V11.8958C9 12.7818 8.32843 13.5 7.5 13.5C6.67157 13.5 6 12.7818 6 11.8958V6.85417Z" fill="#746FFF"/>
<path d="M0 12C0 11.1716 0.671573 10.5 1.5 10.5C2.32843 10.5 3 11.1716 3 12C3 12.8284 2.32843 13.5 1.5 13.5C0.671573 13.5 0 12.8284 0 12Z" fill="#746FFF"/>
<path d="M24 12C24 11.1716 24.6716 10.5 25.5 10.5C26.3284 10.5 27 11.1716 27 12C27 12.8284 26.3284 13.5 25.5 13.5C24.6716 13.5 24 12.8284 24 12Z" fill="#746FFF"/>
<path d="M12 1.5C12 0.671573 12.6716 0 13.5 0C14.3284 0 15 0.671573 15 1.5C15 2.32843 14.3284 3 13.5 3C12.6716 3 12 2.32843 12 1.5Z" fill="#00D2DA"/>
</svg>
