<svg width="250" height="250" viewBox="0 0 256 46" fill="none" xmlns="http://www.w3.org/2000/svg">
<path d="M25.054 38.4166C24.5327 38.5063 23.8733 38.5811 23.076 38.641C22.3093 38.7307 21.4047 38.7756 20.362 38.7756C19.534 38.7756 18.66 38.7158 17.74 38.5961C16.82 38.4764 15.9613 38.1772 15.164 37.6985C14.3973 37.1898 13.7533 36.4268 13.232 35.4095C12.7413 34.3623 12.496 32.9411 12.496 31.1459V21.9004H9V16.784H12.496V10.3661H19.488V16.784H24.548V21.9004H19.488V29.6199C19.488 30.4278 19.5647 31.0711 19.718 31.5498C19.8713 32.0285 20.086 32.4025 20.362 32.6718C20.638 32.9112 20.96 33.0757 21.328 33.1655C21.696 33.2553 22.0947 33.3001 22.524 33.3001C22.9533 33.3001 23.398 33.3001 23.858 33.3001C24.318 33.2702 24.7167 33.2253 25.054 33.1655V38.4166Z" fill="#2469F0"/>
<path d="M44.3194 24.6381L39.7654 38.4166H34.0614L25.7814 16.784H33.0494L37.1434 29.6648L41.0534 16.784H47.5394L51.4494 29.6648L55.5434 16.784H62.8114L54.5314 38.4166H48.8274L44.3194 24.6381Z" fill="#2469F0"/>
<path d="M70.231 29.2609C70.2617 29.9191 70.3537 30.5475 70.507 31.1459C70.691 31.7144 70.967 32.223 71.335 32.6718C71.7337 33.0907 72.2397 33.4348 72.853 33.7041C73.4664 33.9434 74.233 34.0631 75.153 34.0631C76.3797 34.0631 77.2997 33.8237 77.913 33.345C78.557 32.8663 79.0017 32.2828 79.247 31.5947H86.147C85.9937 32.612 85.6257 33.5694 85.043 34.467C84.491 35.3647 83.7397 36.1575 82.789 36.8457C81.869 37.504 80.765 38.0276 79.477 38.4166C78.2197 38.8055 76.7937 39 75.199 39C73.267 39 71.5497 38.7307 70.047 38.1921C68.575 37.6237 67.333 36.8308 66.321 35.8135C65.309 34.7962 64.5424 33.5993 64.021 32.223C63.4997 30.8167 63.239 29.2758 63.239 27.6003C63.239 26.0145 63.4844 24.5334 63.975 23.1571C64.4964 21.7807 65.2477 20.5839 66.229 19.5666C67.241 18.5194 68.4677 17.6966 69.909 17.0982C71.381 16.4998 73.083 16.2006 75.015 16.2006C76.763 16.2006 78.327 16.4698 79.707 17.0084C81.1177 17.547 82.3137 18.2651 83.295 19.1627C84.307 20.0603 85.0737 21.1075 85.595 22.3043C86.147 23.5012 86.423 24.7578 86.423 26.0743C86.423 26.5231 86.4077 27.0019 86.377 27.5105C86.377 28.0192 86.3157 28.6026 86.193 29.2609H70.231ZM74.969 20.7784C73.589 20.7784 72.4544 21.1674 71.565 21.9453C70.6757 22.7232 70.231 23.8453 70.231 25.3114H79.523C79.523 23.9051 79.0937 22.798 78.235 21.9902C77.407 21.1823 76.3184 20.7784 74.969 20.7784Z" fill="#2469F0"/>
<path d="M91.2139 7H98.2519V38.4166H91.2139V7Z" fill="#2469F0"/>
<path d="M108.519 16.784L113.901 30.3829L119.329 16.784H126.689L116.661 38.4166H111.049L101.159 16.784H108.519Z" fill="#2469F0"/>
<path d="M133.751 29.2609C133.781 29.9191 133.873 30.5475 134.027 31.1459C134.211 31.7144 134.487 32.223 134.855 32.6718C135.253 33.0907 135.759 33.4348 136.373 33.7041C136.986 33.9434 137.753 34.0631 138.673 34.0631C139.899 34.0631 140.819 33.8237 141.433 33.345C142.077 32.8663 142.521 32.2828 142.767 31.5947H149.667C149.513 32.612 149.145 33.5694 148.563 34.467C148.011 35.3647 147.259 36.1575 146.309 36.8457C145.389 37.504 144.285 38.0276 142.997 38.4166C141.739 38.8055 140.313 39 138.719 39C136.787 39 135.069 38.7307 133.567 38.1921C132.095 37.6237 130.853 36.8308 129.841 35.8135C128.829 34.7962 128.062 33.5993 127.541 32.223C127.019 30.8167 126.759 29.2758 126.759 27.6003C126.759 26.0145 127.004 24.5334 127.495 23.1571C128.016 21.7807 128.767 20.5839 129.749 19.5666C130.761 18.5194 131.987 17.6966 133.429 17.0982C134.901 16.4998 136.603 16.2006 138.535 16.2006C140.283 16.2006 141.847 16.4698 143.227 17.0084C144.637 17.547 145.833 18.2651 146.815 19.1627C147.827 20.0603 148.593 21.1075 149.115 22.3043C149.667 23.5012 149.943 24.7578 149.943 26.0743C149.943 26.5231 149.927 27.0019 149.897 27.5105C149.897 28.0192 149.835 28.6026 149.713 29.2609H133.751ZM138.489 20.7784C137.109 20.7784 135.974 21.1674 135.085 21.9453C134.195 22.7232 133.751 23.8453 133.751 25.3114H143.043C143.043 23.9051 142.613 22.798 141.755 21.9902C140.927 21.1823 139.838 20.7784 138.489 20.7784Z" fill="#2469F0"/>
<path d="M172.167 34.2426C171.493 35.6489 170.45 36.7859 169.039 37.6536C167.629 38.4913 166.034 38.9102 164.255 38.9102C162.691 38.9102 161.25 38.641 159.931 38.1024C158.643 37.5339 157.539 36.7709 156.619 35.8135C155.699 34.856 154.979 33.7489 154.457 32.4923C153.967 31.2356 153.721 29.9042 153.721 28.4979C153.721 27.0916 153.967 25.7602 154.457 24.5035C154.979 23.2169 155.699 22.1099 156.619 21.1823C157.539 20.2249 158.643 19.4769 159.931 18.9383C161.25 18.3698 162.691 18.0856 164.255 18.0856C166.034 18.0856 167.629 18.5044 169.039 19.3422C170.45 20.18 171.493 21.317 172.167 22.7532V7H175.157V38.4166H172.167V34.2426ZM164.393 36.2174C165.589 36.2174 166.663 36.0079 167.613 35.5891C168.564 35.1702 169.377 34.6166 170.051 33.9285C170.726 33.2104 171.247 32.3876 171.615 31.46C171.983 30.5325 172.167 29.5451 172.167 28.4979C172.167 27.4507 171.983 26.4633 171.615 25.5358C171.247 24.5783 170.726 23.7555 170.051 23.0673C169.377 22.3492 168.564 21.7807 167.613 21.3619C166.663 20.943 165.589 20.7335 164.393 20.7335C163.228 20.7335 162.17 20.943 161.219 21.3619C160.269 21.7807 159.456 22.3492 158.781 23.0673C158.137 23.7555 157.631 24.5783 157.263 25.5358C156.895 26.4633 156.711 27.4507 156.711 28.4979C156.711 29.5451 156.895 30.5325 157.263 31.46C157.631 32.3876 158.137 33.2104 158.781 33.9285C159.456 34.6166 160.269 35.1702 161.219 35.5891C162.17 36.0079 163.228 36.2174 164.393 36.2174Z" fill="#2469F0"/>
<path d="M202.38 18.5344V38.4166H199.39V34.2426C198.715 35.6489 197.673 36.7859 196.262 37.6536C194.851 38.4913 193.257 38.9102 191.478 38.9102C189.914 38.9102 188.473 38.641 187.154 38.1024C185.866 37.5339 184.762 36.7709 183.842 35.8135C182.922 34.856 182.201 33.7489 181.68 32.4923C181.189 31.2356 180.944 29.9042 180.944 28.4979C180.944 27.0916 181.189 25.7602 181.68 24.5035C182.201 23.2169 182.922 22.1099 183.842 21.1823C184.762 20.2249 185.866 19.4769 187.154 18.9383C188.473 18.3698 189.914 18.0856 191.478 18.0856C193.257 18.0856 194.851 18.5044 196.262 19.3422C197.673 20.18 198.715 21.317 199.39 22.7532V18.5344H202.38ZM191.616 36.2174C192.812 36.2174 193.885 36.0079 194.836 35.5891C195.787 35.1702 196.599 34.6166 197.274 33.9285C197.949 33.2104 198.47 32.3876 198.838 31.46C199.206 30.5325 199.39 29.5451 199.39 28.4979C199.39 27.4507 199.206 26.4633 198.838 25.5358C198.47 24.5783 197.949 23.7555 197.274 23.0673C196.599 22.3492 195.787 21.7807 194.836 21.3619C193.885 20.943 192.812 20.7335 191.616 20.7335C190.451 20.7335 189.393 20.943 188.442 21.3619C187.491 21.7807 186.679 22.3492 186.004 23.0673C185.36 23.7555 184.854 24.5783 184.486 25.5358C184.118 26.4633 183.934 27.4507 183.934 28.4979C183.934 29.5451 184.118 30.5325 184.486 31.46C184.854 32.3876 185.36 33.2104 186.004 33.9285C186.679 34.6166 187.491 35.1702 188.442 35.5891C189.393 36.0079 190.451 36.2174 191.616 36.2174Z" fill="#2469F0"/>
<path d="M220.863 38.4166C220.464 38.4764 219.943 38.5362 219.299 38.5961C218.655 38.6559 218.026 38.6858 217.413 38.6858C216.738 38.6858 216.033 38.626 215.297 38.5063C214.591 38.3866 213.932 38.1024 213.319 37.6536C212.705 37.1748 212.199 36.4717 211.801 35.5442C211.402 34.6166 211.203 33.36 211.203 31.7742V21.0477H207.109V18.5344H211.203V11.1739H214.239V18.5344H220.127V21.0477H214.239V31.1907C214.239 32.2679 214.331 33.1206 214.515 33.7489C214.699 34.3773 214.959 34.856 215.297 35.1851C215.634 35.5143 216.033 35.7387 216.493 35.8583C216.953 35.9481 217.459 35.993 218.011 35.993C218.44 35.993 218.931 35.978 219.483 35.9481C220.035 35.8883 220.495 35.8284 220.863 35.7686V38.4166Z" fill="#2469F0"/>
<path d="M244.517 18.5344V38.4166H241.527V34.2426C240.852 35.6489 239.809 36.7859 238.399 37.6536C236.988 38.4913 235.393 38.9102 233.615 38.9102C232.051 38.9102 230.609 38.641 229.291 38.1024C228.003 37.5339 226.899 36.7709 225.979 35.8135C225.059 34.856 224.338 33.7489 223.817 32.4923C223.326 31.2356 223.081 29.9042 223.081 28.4979C223.081 27.0916 223.326 25.7602 223.817 24.5035C224.338 23.2169 225.059 22.1099 225.979 21.1823C226.899 20.2249 228.003 19.4769 229.291 18.9383C230.609 18.3698 232.051 18.0856 233.615 18.0856C235.393 18.0856 236.988 18.5044 238.399 19.3422C239.809 20.18 240.852 21.317 241.527 22.7532V18.5344H244.517ZM233.753 36.2174C234.949 36.2174 236.022 36.0079 236.973 35.5891C237.923 35.1702 238.736 34.6166 239.411 33.9285C240.085 33.2104 240.607 32.3876 240.975 31.46C241.343 30.5325 241.527 29.5451 241.527 28.4979C241.527 27.4507 241.343 26.4633 240.975 25.5358C240.607 24.5783 240.085 23.7555 239.411 23.0673C238.736 22.3492 237.923 21.7807 236.973 21.3619C236.022 20.943 234.949 20.7335 233.753 20.7335C232.587 20.7335 231.529 20.943 230.579 21.3619C229.628 21.7807 228.815 22.3492 228.141 23.0673C227.497 23.7555 226.991 24.5783 226.623 25.5358C226.255 26.4633 226.071 27.4507 226.071 28.4979C226.071 29.5451 226.255 30.5325 226.623 31.46C226.991 32.3876 227.497 33.2104 228.141 33.9285C228.815 34.6166 229.628 35.1702 230.579 35.5891C231.529 36.0079 232.587 36.2174 233.753 36.2174Z" fill="#2469F0"/>
</svg>
