<?xml version="1.0" encoding="UTF-8"?>
<svg version="1.1" xmlns="http://www.w3.org/2000/svg" width="400" height="400">
<path d="M0 0 C132 0 264 0 400 0 C400 132 400 264 400 400 C268 400 136 400 0 400 C0 268 0 136 0 0 Z " fill="#D72B6C" transform="translate(0,0)"/>
<path d="M0 0 C1.16798126 -0.00563965 2.33596252 -0.0112793 3.53933716 -0.01708984 C5.47111061 -0.01101715 5.47111061 -0.01101715 7.44190979 -0.00482178 C8.80677986 -0.00753073 10.17164846 -0.01109112 11.53651428 -0.01544189 C15.24932507 -0.02458046 18.96202504 -0.02101542 22.67483783 -0.01468372 C26.55586219 -0.00963027 30.43687689 -0.01431344 34.31790161 -0.01745605 C40.83728239 -0.02109805 47.35661791 -0.01629096 53.87599182 -0.0067749 C61.41727308 0.00410555 68.95844617 0.00058801 76.49972481 -0.01042771 C82.96855771 -0.0194994 89.43735802 -0.02078631 95.90619522 -0.01555037 C99.77228415 -0.01242943 103.63832221 -0.01202464 107.50440788 -0.01862335 C111.13971145 -0.02439431 114.77487541 -0.02040457 118.41016388 -0.00883484 C120.38361925 -0.00492187 122.35708642 -0.01087637 124.33053589 -0.01708984 C125.50133698 -0.0114502 126.67213806 -0.00581055 127.87841797 0 C129.40792414 0.00113108 129.40792414 0.00113108 130.96832943 0.002285 C133.50270081 0.25396729 133.50270081 0.25396729 136.50270081 2.25396729 C137.19899014 5.38726931 137.01541342 7.38483528 135.37184143 10.17095947 C133.73423181 12.38798207 132.01624553 14.51074445 130.25270081 16.62896729 C128.9674763 18.22291541 127.68364953 19.81799145 126.40113831 21.41412354 C125.74983948 22.21737061 125.09854065 23.02061768 124.42750549 23.84820557 C121.48846207 27.52163706 118.68006195 31.28833144 115.87770081 35.06646729 C114.92790829 36.34435268 113.97743043 37.62172909 113.02613831 38.89849854 C112.59607483 39.48196045 112.16601135 40.06542236 111.72291565 40.66656494 C110.50270081 42.25396729 110.50270081 42.25396729 108.31520081 44.64068604 C105.78150374 48.29379668 105.06890219 51.95204725 104.12770081 56.25396729 C103.70514949 58.06201685 103.27926131 59.86928922 102.85035706 61.67584229 C102.52188782 63.06512939 102.52188782 63.06512939 102.18678284 64.48248291 C101.10621894 68.86027069 99.83702384 73.17861388 98.56520081 77.50396729 C96.01162423 86.2518878 93.74450931 95.05374306 91.59474182 103.90924072 C90.46224972 108.54702776 89.29595673 113.17445382 88.01441956 117.77349854 C87.79616516 118.56474121 87.57791077 119.35598389 87.3530426 120.17120361 C86.38491776 122.54245628 85.47121549 123.62909122 83.50270081 125.25396729 C80.52530945 125.55238208 77.76151869 125.67423797 74.78395081 125.65240479 C73.50252197 125.65671005 73.50252197 125.65671005 72.19520569 125.66110229 C70.38965695 125.66314309 68.58408611 125.65761211 66.77857971 125.64508057 C64.01294069 125.62902673 61.24876306 125.64492828 58.48316956 125.66412354 C56.72926008 125.66214111 54.97535151 125.65829743 53.22145081 125.65240479 C52.39326843 125.65847748 51.56508606 125.66455017 50.71180725 125.67080688 C44.92415727 125.59981086 44.92415727 125.59981086 42.81138611 123.86608887 C41.1485833 121.81774287 40.69453763 120.08769193 40.07301331 117.52740479 C39.83783997 116.58743652 39.60266663 115.64746826 39.36036682 114.67901611 C39.11858704 113.6725 38.87680725 112.66598389 38.62770081 111.62896729 C38.09993761 109.51513937 37.56997626 107.4018591 37.03785706 105.28912354 C36.64751282 103.73282227 36.64751282 103.73282227 36.24928284 102.14508057 C35.28719303 98.41942084 34.19527593 94.74389666 33.06520081 91.06646729 C30.34977818 82.15411026 28.18019011 73.10417903 26.00099182 64.04815674 C23.26445217 52.82449211 20.35304365 45.47107613 13.12770081 36.37896729 C11.69269857 34.52849618 10.25912987 32.6769126 8.82691956 30.82427979 C8.10681702 29.89776611 7.38671448 28.97125244 6.64479065 28.0166626 C3.36910252 23.79194332 0.13041304 19.54357574 -3.05979919 15.25396729 C-3.6255365 14.51936279 -4.1912738 13.7847583 -4.77415466 13.02789307 C-8.50605933 7.97035148 -8.50605933 7.97035148 -8.46214294 4.37896729 C-6.46304216 -0.02391057 -4.52292506 0.00334596 0 0 Z " fill="#FEFCFD" transform="translate(133.49729919433594,214.74603271484375)"/>
<path d="M0 0 C6.77174248 4.0153385 10.57448151 8.7221304 12.99609375 16.18359375 C14.06219435 23.99831233 12.83440472 28.61476451 9.99609375 36.18359375 C14.61609375 40.80359375 19.23609375 45.42359375 23.99609375 50.18359375 C26.63609375 49.19359375 29.27609375 48.20359375 31.99609375 47.18359375 C41.11917628 45.8058221 47.72453814 48.39065354 55.24609375 53.30859375 C60.33553708 58.62937542 63.25638007 64.31580565 63.55859375 71.74609375 C63.14640044 79.85256211 59.75193549 86.55856659 53.99609375 92.18359375 C46.85557229 96.55191276 40.34993039 98.01783462 31.99609375 97.18359375 C29.04010394 96.22476008 26.58644307 94.88480715 23.99609375 93.18359375 C23.10921875 92.62671875 22.22234375 92.06984375 21.30859375 91.49609375 C16.02994301 86.21744301 12.87221763 79.44791304 12.74609375 71.99609375 C12.70742188 70.64451172 12.70742188 70.64451172 12.66796875 69.265625 C12.99609375 66.18359375 12.99609375 66.18359375 15.99609375 58.18359375 C11.37609375 53.56359375 6.75609375 48.94359375 1.99609375 44.18359375 C-0.64390625 45.17359375 -3.28390625 46.16359375 -6.00390625 47.18359375 C-8.8671875 47.51171875 -8.8671875 47.51171875 -11.31640625 47.43359375 C-12.13753906 47.418125 -12.95867187 47.40265625 -13.8046875 47.38671875 C-16.00390625 47.18359375 -16.00390625 47.18359375 -19.00390625 46.18359375 C-19.2472168 47.0019873 -19.49052734 47.82038086 -19.74121094 48.66357422 C-21.23261887 52.8211766 -23.1608533 56.59753287 -25.20703125 60.50390625 C-26.03064965 62.10641037 -26.85354528 63.70928613 -27.67578125 65.3125 C-28.9679889 67.82244074 -30.26486339 70.32952334 -31.57421875 72.83056641 C-32.84132129 75.25617625 -34.08812221 77.69133981 -35.33203125 80.12890625 C-35.72980774 80.87689484 -36.12758423 81.62488342 -36.53741455 82.39553833 C-38.63036298 86.29319428 -38.63036298 86.29319428 -38.38183594 90.53857422 C-36.89734051 92.35983502 -36.89734051 92.35983502 -34.62890625 94.55859375 C-29.5944156 99.5930844 -26.88417449 104.18631449 -26.69140625 111.30859375 C-26.76335334 119.07887914 -29.56817261 125.58798559 -35.00390625 131.18359375 C-42.22111318 136.67494685 -49.06030188 138.2253204 -58.00390625 137.18359375 C-65.50656307 134.72495283 -71.05952618 129.98424905 -75.00390625 123.18359375 C-77.66524374 117.46171814 -78.2858828 109.73455533 -76.12109375 103.73828125 C-75.74826577 101.22831025 -75.74826577 101.22831025 -77.04711914 99.66723633 C-78.61283102 97.98253137 -80.24333969 96.42215787 -81.94140625 94.87109375 C-82.51826172 94.32130859 -83.09511719 93.77152344 -83.68945312 93.20507812 C-85.11451691 91.85067866 -86.55756483 90.51524731 -88.00390625 89.18359375 C-89.07640625 89.67859375 -90.14890625 90.17359375 -91.25390625 90.68359375 C-97.35716105 92.94526087 -104.12828394 93.4286454 -110.375 91.421875 C-117.83081397 87.85605093 -122.74540397 83.03937364 -126.25390625 75.49609375 C-128.06141292 67.51293931 -127.73204623 60.70288693 -123.6953125 53.48046875 C-119.73614966 48.10405362 -114.33567132 44.26181112 -108.00390625 42.18359375 C-99.09840182 41.02317954 -92.67822599 43.20902664 -85.25390625 47.93359375 C-79.82503375 53.36246625 -76.87214811 59.17551959 -76.75390625 66.87109375 C-76.78053617 72.35019948 -77.71920082 76.23339865 -80.00390625 81.18359375 C-76.37390625 84.81359375 -72.74390625 88.44359375 -69.00390625 92.18359375 C-67.02390625 91.19359375 -67.02390625 91.19359375 -65.00390625 90.18359375 C-60.89777058 88.20949006 -58.71546809 87.186934 -54.10327148 87.1652832 C-51.38545644 86.84706807 -50.33990669 86.5592164 -48.49514771 84.49691772 C-47.05847094 82.06594522 -45.84527608 79.60402806 -44.6640625 77.0390625 C-44.21163681 76.11773026 -43.75921112 75.19639801 -43.29307556 74.24714661 C-41.85551133 71.30138211 -40.46137216 68.33722926 -39.06640625 65.37109375 C-38.10229228 63.38476325 -37.13552411 61.3997187 -36.16601562 59.41601562 C-34.40095151 55.77715777 -32.64206562 52.135881 -30.91821289 48.47729492 C-30.5715004 47.74306808 -30.2247879 47.00884125 -29.86756897 46.25236511 C-29.02891339 44.24349451 -28.47025834 42.30675206 -28.00390625 40.18359375 C-29.48890625 39.68859375 -29.48890625 39.68859375 -31.00390625 39.18359375 C-36.57929192 31.7497462 -38.10213146 25.36979004 -37.00390625 16.18359375 C-34.32820066 7.64283706 -29.33159554 2.68033757 -21.75390625 -1.69140625 C-14.09475102 -3.98915282 -7.14240681 -3.67942169 0 0 Z " fill="#FDF8FA" transform="translate(227.00390625,62.81640625)"/>
<path d="M0 0 C20.13 0 40.26 0 61 0 C59.73426198 7.59442812 58.46224806 14.49008737 56.25 21.75 C53.59449872 30.71571763 51.26277965 39.73391947 49.09277344 48.82910156 C48.86235352 49.77881836 48.63193359 50.72853516 48.39453125 51.70703125 C48.19706299 52.5369458 47.99959473 53.36686035 47.79614258 54.22192383 C46.74679243 57.88354768 45.33743582 61.43350447 44 65 C35.09 65 26.18 65 17 65 C15.14220421 60.0458779 13.56222963 55.73135397 12.3515625 50.69140625 C12.07078857 49.54027344 11.79001465 48.38914062 11.50073242 47.203125 C11.21174072 46.00171875 10.92274902 44.8003125 10.625 43.5625 C8.35074438 34.25077718 5.95179002 25.03975022 3.04296875 15.90625 C1.65042225 10.69072003 0.88746433 5.32478598 0 0 Z " fill="#CE2465" transform="translate(167,265)"/>
<path d="M0 0 C37.95 0 75.9 0 115 0 C108.25384615 10.11923077 108.25384615 10.11923077 105.421875 13.7109375 C104.81859375 14.48050781 104.2153125 15.25007812 103.59375 16.04296875 C102.9853125 16.81253906 102.376875 17.58210938 101.75 18.375 C100.51473051 19.94460896 99.28031791 21.51489276 98.046875 23.0859375 C97.50901367 23.7670459 96.97115234 24.4481543 96.41699219 25.14990234 C95.21449498 26.71994435 94.09699329 28.35451006 93 30 C90.17172241 30.5020752 90.17172241 30.5020752 86.50927734 30.67382812 C85.84218246 30.70799835 85.17508759 30.74216858 84.48777771 30.77737427 C77.46165736 31.11123445 70.42594035 31.25205238 63.39355469 31.37988281 C60.06808886 31.44632262 56.75295514 31.57077404 53.43164062 31.74902344 C26.80259581 33.14511387 26.80259581 33.14511387 18.95568848 28.00634766 C14.05750258 23.32838024 10.56695584 17.97568501 7.57266235 11.92565918 C5.34311724 7.77798621 2.61204679 3.91807019 0 0 Z " fill="#D32869" transform="translate(140,225)"/>
<path d="M0 0 C4.36492736 2.40706674 5.93942071 4.83284673 7.8125 9.4375 C8.65633459 15.23886278 7.24370373 19.77146779 3.8125 24.4375 C0.55665256 27.38012667 -2.82540886 28.66698272 -7.1875 28.9375 C-11.55526753 28.67509536 -14.86934257 27.28523511 -18.1875 24.4375 C-21.53369492 20.53854131 -22.87422445 16.54555853 -22.56640625 11.421875 C-21.7505949 7.14937846 -19.94940517 3.91593033 -16.609375 1.11328125 C-11.09714231 -2.42497622 -6.01718351 -2.57401739 0 0 Z " fill="#E43B78" transform="translate(222.1875,71.5625)"/>
<path d="M0 0 C4.36492736 2.40706674 5.93942071 4.83284673 7.8125 9.4375 C8.65633459 15.23886278 7.24370373 19.77146779 3.8125 24.4375 C0.42687411 27.49742011 -2.63100921 28.35800132 -7.125 29 C-11.96124397 28.72713799 -15.58647647 26.57494349 -19.1875 23.4375 C-21.87682285 19.65563975 -22.7990897 16.2051469 -22.6015625 11.52734375 C-21.55665039 6.2534949 -18.65495061 2.45833521 -14.3125 -0.5625 C-9.07768302 -2.23764143 -5.03166659 -2.16576373 0 0 Z " fill="#D72F6E" transform="translate(132.1875,116.5625)"/>
<path d="M0 0 C4.36492736 2.40706674 5.93942071 4.83284673 7.8125 9.4375 C8.65633459 15.23886278 7.24370373 19.77146779 3.8125 24.4375 C0.42687411 27.49742011 -2.63100921 28.35800132 -7.125 29 C-11.96124397 28.72713799 -15.58647647 26.57494349 -19.1875 23.4375 C-21.87682285 19.65563975 -22.7990897 16.2051469 -22.6015625 11.52734375 C-21.55665039 6.2534949 -18.65495061 2.45833521 -14.3125 -0.5625 C-9.07768302 -2.23764143 -5.03166659 -2.16576373 0 0 Z " fill="#E43A78" transform="translate(272.1875,121.5625)"/>
<path d="M0 0 C4.36492736 2.40706674 5.93942071 4.83284673 7.8125 9.4375 C8.65633459 15.23886278 7.24370373 19.77146779 3.8125 24.4375 C0.42687411 27.49742011 -2.63100921 28.35800132 -7.125 29 C-11.96124397 28.72713799 -15.58647647 26.57494349 -19.1875 23.4375 C-21.91610742 19.60039581 -22.74862813 16.19406291 -22.53125 11.45703125 C-21.79958362 7.15849128 -19.95021969 3.9166138 -16.609375 1.11328125 C-11.09714231 -2.42497622 -6.01718351 -2.57401739 0 0 Z " fill="#D82E6E" transform="translate(182.1875,161.5625)"/>
</svg>
