<svg xmlns="http://www.w3.org/2000/svg" width="250" height="250" fill="none"><path fill="#356AE6" d="M115.677 134.209c3.549 0 7.097-1.365 10.919-4.232 4.505-3.139 8.463-5.733 8.463-5.733l1.365-.955-1.365-.956c-.546-.409-59.922-41.63-66.064-45.59-2.867-2.047-6.142-2.456-8.736-1.228-2.457 1.229-3.822 3.822-3.822 6.962v14.059l.546.273c.41.273 41.222 28.664 49.139 33.987 3.276 2.321 6.415 3.413 9.555 3.413Z"/><path fill="#356AE6" d="M195.254 109.503c-3.549-2.594-130.9-91.453-136.36-95.275L57.12 13v21.84c0 6.96 3.685 9.554 8.19 12.83 0 0 97.731 68.112 109.879 76.438C163.041 132.571 71.043 196.315 65.173 200c-6.961 4.641-7.644 7.644-7.644 13.923V237.4s134.722-96.366 137.589-98.55c6.142-4.641 7.507-10.101 7.643-14.06v-2.456c.137-4.914-2.457-9.282-7.507-12.831Z"/></svg>