<svg width="1660" height="540" viewBox="0 0 1660 540" fill="none" xmlns="http://www.w3.org/2000/svg">
<g filter="url(#filter0_d)">
<path fill-rule="evenodd" clip-rule="evenodd" d="M271.5 467.688C377.09 467.688 462.688 382.09 462.688 276.5C462.688 170.91 377.09 85.3125 271.5 85.3125C165.91 85.3125 80.3125 170.91 80.3125 276.5C80.3125 382.09 165.91 467.688 271.5 467.688Z" fill="url(#paint0_linear)"/>
</g>
<path fill-rule="evenodd" clip-rule="evenodd" d="M271.5 452.324C368.605 452.324 447.324 373.605 447.324 276.5C447.324 179.395 368.605 100.676 271.5 100.676C174.395 100.676 95.6758 179.395 95.6758 276.5C95.6758 373.605 174.395 452.324 271.5 452.324Z" fill="url(#paint1_linear)"/>
<g clip-path="url(#clip0)">
<g filter="url(#filter1_d)">
<g filter="url(#filter2_d)">
<path d="M321.666 206.235C321.666 198.853 327.65 192.868 335.032 192.868C342.414 192.868 348.399 198.853 348.399 206.235V291.542C348.399 311.941 363.9 329 384.206 330.947H388.008C394.983 330.947 400.638 336.602 400.638 343.577C400.638 350.553 394.983 356.208 388.008 356.208H385.923L380.023 355.618C374.173 355.033 368.429 353.658 362.948 351.531L362.363 351.303C344.382 344.324 330.526 329.582 324.673 311.204C322.68 304.947 321.666 298.419 321.666 291.852V206.235Z" fill="white"/>
</g>
<g filter="url(#filter3_d)">
<path fill-rule="evenodd" clip-rule="evenodd" d="M176.25 190.661C168.518 190.661 162.25 196.929 162.25 204.661V342.208C162.25 349.94 168.518 356.208 176.25 356.208H222.118C227.484 356.208 232.837 355.686 238.102 354.65C262.292 349.889 283.256 334.308 295.019 312.64C306.668 291.181 308.249 265.35 299.062 242.727C289.503 219.184 269.523 201.438 245.017 194.724L241.68 193.81C234.052 191.72 226.177 190.661 218.267 190.661H176.25ZM202.669 216.413C194.433 216.413 187.756 223.09 187.756 231.326V315.702C187.756 323.986 194.472 330.702 202.756 330.702H225.941C229.543 330.702 233.135 330.326 236.658 329.58C252.015 326.329 265.066 316.283 272.139 302.269L273.478 299.615C280.742 285.222 281.636 268.442 275.942 253.359L275.669 252.635C269.473 236.219 255.939 223.657 239.108 218.697C233.968 217.182 228.637 216.413 223.279 216.413H202.669Z" fill="white"/>
</g>
</g>
</g>
<path fill-rule="evenodd" clip-rule="evenodd" d="M573 181C561.954 181 553 189.954 553 201V340.571C553 351.617 561.954 360.571 573 360.571H617.939C623.76 360.571 629.567 360.005 635.278 358.881C661.517 353.717 684.257 336.816 697.016 313.313C709.652 290.035 711.367 262.017 701.402 237.477C691.033 211.94 669.361 192.69 642.779 185.408L639.159 184.416C630.884 182.149 622.343 181 613.763 181H573ZM595.667 208.933C587.383 208.933 580.667 215.649 580.667 223.933V317.904C580.667 326.188 587.383 332.904 595.667 332.904H622.087C625.993 332.904 629.89 332.496 633.712 331.687C650.37 328.161 664.527 317.264 672.198 302.063L673.651 299.184C681.53 283.571 682.5 265.37 676.324 249.009L676.028 248.224C669.306 230.418 654.626 216.791 636.37 211.411C630.794 209.768 625.011 208.933 619.199 208.933H595.667Z" fill="#36348F"/>
<path d="M845.5 291.5C845.5 321.778 820.75 346.5 790 346.5C759.25 346.5 734.5 321.778 734.5 291.5C734.5 261.222 759.25 236.5 790 236.5C820.75 236.5 845.5 261.222 845.5 291.5Z" stroke="#36348F" stroke-width="29"/>
<path d="M832 291H860V347C860 354.732 853.732 361 846 361C838.268 361 832 354.732 832 347V291Z" fill="#36348F"/>
<path d="M1090.5 290.5C1090.5 320.778 1065.75 345.5 1035 345.5C1004.25 345.5 979.5 320.778 979.5 290.5C979.5 260.222 1004.25 235.5 1035 235.5C1065.75 235.5 1090.5 260.222 1090.5 290.5Z" stroke="#36348F" stroke-width="29"/>
<path d="M1077 290H1105V346C1105 353.732 1098.73 360 1091 360C1083.27 360 1077 353.732 1077 346V290Z" fill="#36348F"/>
<path d="M876.5 207C876.5 198.992 882.992 192.5 891 192.5C899.008 192.5 905.5 198.992 905.5 207V289.696C905.5 314.436 926.05 334.224 950.771 333.291C957.801 333.291 963.5 338.99 963.5 346.02V350.5C963.5 356.299 958.799 361 953 361H945.749C937.972 361 930.251 359.686 922.912 357.113C899.745 348.993 882.632 329.181 877.967 305.079L877.788 304.154C876.931 299.728 876.5 295.231 876.5 290.723V207Z" fill="#36348F"/>
<path d="M878 250V222H914C921.732 222 928 228.268 928 236C928 243.732 921.732 250 914 250H878Z" fill="#36348F"/>
<path d="M1116.5 197.799C1116.5 189.626 1123.13 183 1131.3 183C1139.43 183 1146.04 189.566 1146.1 197.701L1146.6 273.001C1146.82 306.755 1174.25 334 1208 334H1209.5C1216.96 334 1223 340.044 1223 347.5V348C1223 355.18 1217.18 361 1210 361L1209.27 361.015C1193.37 361.333 1177.64 357.466 1163.7 349.821C1141.3 337.538 1125.07 316.373 1119.05 291.544C1117.36 284.539 1116.5 277.358 1116.5 270.151V197.799Z" fill="#36348F"/>
<path d="M1461.12 243.325C1481.05 223.128 1511.13 216.825 1537.49 227.326L1540.26 228.43C1550.24 232.403 1558.95 238.991 1565.5 247.5L1567.89 251.564C1572.59 259.559 1572.64 269.465 1568 277.5L1523.5 342L1496 330L1537.82 269.974C1538.27 269.327 1538.64 268.626 1538.92 267.888C1540.44 263.836 1539.01 259.27 1535.46 256.799L1531.96 254.362C1530.66 253.46 1529.23 252.769 1527.72 252.315L1522.52 250.757C1501.56 244.467 1479.36 255.843 1472.23 276.536C1470.75 280.816 1470 285.38 1470 289.906C1470 312.825 1487.72 332.253 1510.58 333.869L1519.5 334.5H1581.75C1589.07 334.5 1595 340.432 1595 347.75C1595 355.068 1589.07 361 1581.75 361H1521.5L1511.57 361.343C1499.11 361.772 1486.78 358.694 1475.98 352.46C1463.65 345.341 1453.93 334.459 1448.24 321.409L1446.86 318.232C1437.33 296.386 1440.02 271.14 1453.92 251.785C1455.97 248.933 1458.24 246.244 1460.71 243.745L1461.12 243.325Z" fill="#36348F"/>
<path d="M1415.85 256.337C1422.49 267.573 1426 280.387 1426 293.441V309.5V346.5C1426 354.508 1419.51 361 1411.5 361C1403.49 361 1397 354.508 1397 346.5V309.5L1396.1 287.967C1395.2 266.745 1377.74 250 1356.5 250C1332.66 250 1313.51 269.655 1314.13 293.485L1314.5 307.5V346.75C1314.5 354.62 1308.12 361 1300.25 361C1292.38 361 1286 354.62 1286 346.75V307.5V292.012C1286 279.882 1289.18 267.964 1295.21 257.442C1301.92 245.734 1311.9 236.236 1323.93 230.106L1325.79 229.158C1345.09 219.317 1367.93 219.275 1387.27 229.045C1398.85 234.893 1408.51 243.932 1415.11 255.094L1415.85 256.337Z" fill="#36348F"/>
<path d="M1235 268C1235 259.163 1242.16 252 1251 252C1259.84 252 1267 259.163 1267 268V345C1267 353.837 1259.84 361 1251 361C1242.16 361 1235 353.837 1235 345V268Z" fill="#36348F"/>
<path d="M1235 229C1235 220.163 1242.16 213 1251 213C1259.84 213 1267 220.163 1267 229C1267 237.837 1259.84 245 1251 245C1242.16 245 1235 237.837 1235 229Z" fill="#36348F"/>
<defs>
<filter id="filter0_d" x="78.3125" y="85.3125" width="386.375" height="388.375" filterUnits="userSpaceOnUse" color-interpolation-filters="sRGB">
<feFlood flood-opacity="0" result="BackgroundImageFix"/>
<feColorMatrix in="SourceAlpha" type="matrix" values="0 0 0 0 0 0 0 0 0 0 0 0 0 0 0 0 0 0 127 0"/>
<feOffset dy="4"/>
<feGaussianBlur stdDeviation="1"/>
<feColorMatrix type="matrix" values="0 0 0 0 0 0 0 0 0 0 0 0 0 0 0 0 0 0 0.25 0"/>
<feBlend mode="normal" in2="BackgroundImageFix" result="effect1_dropShadow"/>
<feBlend mode="normal" in="SourceGraphic" in2="effect1_dropShadow" result="shape"/>
</filter>
<filter id="filter1_d" x="161.25" y="189.661" width="242.388" height="169.547" filterUnits="userSpaceOnUse" color-interpolation-filters="sRGB">
<feFlood flood-opacity="0" result="BackgroundImageFix"/>
<feColorMatrix in="SourceAlpha" type="matrix" values="0 0 0 0 0 0 0 0 0 0 0 0 0 0 0 0 0 0 127 0"/>
<feOffset dx="1" dy="1"/>
<feGaussianBlur stdDeviation="1"/>
<feColorMatrix type="matrix" values="0 0 0 0 0.772549 0 0 0 0 0.768627 0 0 0 0 1 0 0 0 0.25 0"/>
<feBlend mode="normal" in2="BackgroundImageFix" result="effect1_dropShadow"/>
<feBlend mode="normal" in="SourceGraphic" in2="effect1_dropShadow" result="shape"/>
</filter>
<filter id="filter2_d" x="317.666" y="192.868" width="86.9721" height="171.34" filterUnits="userSpaceOnUse" color-interpolation-filters="sRGB">
<feFlood flood-opacity="0" result="BackgroundImageFix"/>
<feColorMatrix in="SourceAlpha" type="matrix" values="0 0 0 0 0 0 0 0 0 0 0 0 0 0 0 0 0 0 127 0"/>
<feOffset dy="4"/>
<feGaussianBlur stdDeviation="2"/>
<feColorMatrix type="matrix" values="0 0 0 0 0 0 0 0 0 0 0 0 0 0 0 0 0 0 0.25 0"/>
<feBlend mode="normal" in2="BackgroundImageFix" result="effect1_dropShadow"/>
<feBlend mode="normal" in="SourceGraphic" in2="effect1_dropShadow" result="shape"/>
</filter>
<filter id="filter3_d" x="158.25" y="190.661" width="150.746" height="173.547" filterUnits="userSpaceOnUse" color-interpolation-filters="sRGB">
<feFlood flood-opacity="0" result="BackgroundImageFix"/>
<feColorMatrix in="SourceAlpha" type="matrix" values="0 0 0 0 0 0 0 0 0 0 0 0 0 0 0 0 0 0 127 0"/>
<feOffset dy="4"/>
<feGaussianBlur stdDeviation="2"/>
<feColorMatrix type="matrix" values="0 0 0 0 0 0 0 0 0 0 0 0 0 0 0 0 0 0 0.2 0"/>
<feBlend mode="normal" in2="BackgroundImageFix" result="effect1_dropShadow"/>
<feBlend mode="normal" in="SourceGraphic" in2="effect1_dropShadow" result="shape"/>
</filter>
<linearGradient id="paint0_linear" x1="271.5" y1="85.3125" x2="271.5" y2="467.688" gradientUnits="userSpaceOnUse">
<stop stop-color="#957AFD"/>
<stop offset="1" stop-color="#3733FF"/>
</linearGradient>
<linearGradient id="paint1_linear" x1="271.5" y1="100.676" x2="271.5" y2="452.324" gradientUnits="userSpaceOnUse">
<stop stop-color="#9579FD"/>
<stop offset="1" stop-color="#6966FF"/>
</linearGradient>
<clipPath id="clip0">
<rect width="343.357" height="343.357" fill="white" transform="translate(111.527 112.625)"/>
</clipPath>
</defs>
</svg>
