<svg width="150" height="53" viewBox="0 0 150 53" fill="none" xmlns="http://www.w3.org/2000/svg">
<g filter="url(#filter0_d_34355_148894)">
<path d="M0 9.6C0 6.23968 0 4.55953 0.653961 3.27606C1.2292 2.14708 2.14708 1.2292 3.27606 0.653961C4.55953 0 6.23969 0 9.6 0H140.4C143.76 0 145.44 0 146.724 0.653961C147.853 1.2292 148.771 2.14708 149.346 3.27606C150 4.55953 150 6.23969 150 9.6V35.4C150 38.7603 150 40.4405 149.346 41.7239C148.771 42.8529 147.853 43.7708 146.724 44.346C145.44 45 143.76 45 140.4 45H9.6C6.23969 45 4.55953 45 3.27606 44.346C2.14708 43.7708 1.2292 42.8529 0.653961 41.7239C0 40.4405 0 38.7603 0 35.4V9.6Z" fill="#615EFF"/>
<path d="M19.174 28.5H15.2309V16.8636H19.2536C20.4089 16.8636 21.4013 17.0966 22.2309 17.5625C23.0642 18.0246 23.7043 18.6894 24.1513 19.5568C24.5983 20.4242 24.8218 21.4621 24.8218 22.6705C24.8218 23.8826 24.5964 24.9242 24.1456 25.7955C23.6987 26.6667 23.0528 27.3352 22.2081 27.8011C21.3672 28.267 20.3559 28.5 19.174 28.5ZM17.3388 26.6761H19.0718C19.8824 26.6761 20.5585 26.5284 21.1002 26.233C21.6418 25.9337 22.049 25.4886 22.3218 24.8977C22.5945 24.303 22.7309 23.5606 22.7309 22.6705C22.7309 21.7803 22.5945 21.0417 22.3218 20.4545C22.049 19.8636 21.6456 19.4223 21.1115 19.1307C20.5812 18.8352 19.9221 18.6875 19.1343 18.6875H17.3388V26.6761ZM31.0773 28.6705C30.2023 28.6705 29.4466 28.4886 28.8103 28.125C28.1777 27.7576 27.691 27.2386 27.3501 26.5682C27.0091 25.8939 26.8387 25.1004 26.8387 24.1875C26.8387 23.2898 27.0091 22.5019 27.3501 21.8239C27.6948 21.142 28.1758 20.6117 28.7932 20.233C29.4107 19.8504 30.136 19.6591 30.9694 19.6591C31.5073 19.6591 32.0148 19.7462 32.4921 19.9205C32.9732 20.0909 33.3974 20.3561 33.7648 20.7159C34.136 21.0758 34.4277 21.5341 34.6398 22.0909C34.852 22.6439 34.958 23.303 34.958 24.0682V24.6989H27.8046V23.3125H32.9864C32.9826 22.9186 32.8974 22.5682 32.7307 22.2614C32.5641 21.9508 32.3311 21.7064 32.0319 21.5284C31.7364 21.3504 31.3917 21.2614 30.9978 21.2614C30.5773 21.2614 30.208 21.3636 29.8898 21.5682C29.5716 21.7689 29.3235 22.0341 29.1455 22.3636C28.9713 22.6894 28.8823 23.0473 28.8785 23.4375V24.6477C28.8785 25.1553 28.9713 25.5909 29.1569 25.9545C29.3425 26.3144 29.602 26.5909 29.9353 26.7841C30.2686 26.9735 30.6588 27.0682 31.1057 27.0682C31.405 27.0682 31.6758 27.0265 31.9182 26.9432C32.1607 26.8561 32.3709 26.7292 32.5489 26.5625C32.727 26.3958 32.8614 26.1894 32.9523 25.9432L34.8728 26.1591C34.7516 26.6667 34.5205 27.1098 34.1796 27.4886C33.8425 27.8636 33.4107 28.1553 32.8841 28.3636C32.3576 28.5682 31.7554 28.6705 31.0773 28.6705ZM37.1781 31.7727V19.7727H39.2008V21.2159H39.3201C39.4262 21.0038 39.5758 20.7784 39.769 20.5398C39.9622 20.2973 40.2235 20.0909 40.5531 19.9205C40.8826 19.7462 41.3031 19.6591 41.8144 19.6591C42.4887 19.6591 43.0966 19.8314 43.6383 20.1761C44.1838 20.517 44.6156 21.0227 44.9338 21.6932C45.2557 22.3598 45.4167 23.178 45.4167 24.1477C45.4167 25.1061 45.2595 25.9205 44.9451 26.5909C44.6307 27.2614 44.2027 27.7727 43.661 28.125C43.1194 28.4773 42.5057 28.6534 41.8201 28.6534C41.3201 28.6534 40.9053 28.5701 40.5758 28.4034C40.2463 28.2367 39.9811 28.036 39.7803 27.8011C39.5834 27.5625 39.43 27.3371 39.3201 27.125H39.2349V31.7727H37.1781ZM39.1951 24.1364C39.1951 24.7008 39.2747 25.1951 39.4338 25.6193C39.5966 26.0436 39.8296 26.375 40.1326 26.6136C40.4394 26.8485 40.8106 26.9659 41.2463 26.9659C41.7008 26.9659 42.0815 26.8447 42.3883 26.6023C42.6951 26.3561 42.9262 26.0208 43.0815 25.5966C43.2406 25.1686 43.3201 24.6818 43.3201 24.1364C43.3201 23.5947 43.2425 23.1136 43.0872 22.6932C42.9319 22.2727 42.7008 21.9432 42.394 21.7045C42.0872 21.4659 41.7046 21.3466 41.2463 21.3466C40.8069 21.3466 40.4338 21.4621 40.1269 21.6932C39.8201 21.9242 39.5872 22.2481 39.4281 22.6648C39.2728 23.0814 39.1951 23.572 39.1951 24.1364ZM49.7149 16.8636V28.5H47.6581V16.8636H49.7149ZM56.1168 28.6705C55.2645 28.6705 54.5259 28.483 53.9009 28.108C53.2759 27.733 52.791 27.2083 52.4463 26.5341C52.1054 25.8598 51.9349 25.072 51.9349 24.1705C51.9349 23.2689 52.1054 22.4792 52.4463 21.8011C52.791 21.1231 53.2759 20.5966 53.9009 20.2216C54.5259 19.8466 55.2645 19.6591 56.1168 19.6591C56.969 19.6591 57.7077 19.8466 58.3327 20.2216C58.9577 20.5966 59.4406 21.1231 59.7815 21.8011C60.1262 22.4792 60.2986 23.2689 60.2986 24.1705C60.2986 25.072 60.1262 25.8598 59.7815 26.5341C59.4406 27.2083 58.9577 27.733 58.3327 28.108C57.7077 28.483 56.969 28.6705 56.1168 28.6705ZM56.1281 27.0227C56.5902 27.0227 56.9766 26.8958 57.2872 26.642C57.5978 26.3845 57.8289 26.0398 57.9804 25.608C58.1357 25.1761 58.2134 24.6951 58.2134 24.1648C58.2134 23.6307 58.1357 23.1477 57.9804 22.7159C57.8289 22.2803 57.5978 21.9337 57.2872 21.6761C56.9766 21.4186 56.5902 21.2898 56.1281 21.2898C55.6546 21.2898 55.2607 21.4186 54.9463 21.6761C54.6357 21.9337 54.4027 22.2803 54.2474 22.7159C54.0959 23.1477 54.0202 23.6307 54.0202 24.1648C54.0202 24.6951 54.0959 25.1761 54.2474 25.608C54.4027 26.0398 54.6357 26.3845 54.9463 26.642C55.2607 26.8958 55.6546 27.0227 56.1281 27.0227ZM63.5059 31.7727C63.2256 31.7727 62.9661 31.75 62.7274 31.7045C62.4926 31.6629 62.3051 31.6136 62.1649 31.5568L62.6422 29.9545C62.9415 30.0417 63.2085 30.0833 63.4434 30.0795C63.6782 30.0758 63.8846 30.0019 64.0627 29.858C64.2445 29.7178 64.3979 29.483 64.5229 29.1534L64.699 28.6818L61.5343 19.7727H63.7161L65.7274 26.3636H65.8184L67.8354 19.7727H70.0229L66.5286 29.5568C66.3657 30.0189 66.1498 30.4148 65.8809 30.7443C65.6119 31.0777 65.2824 31.3314 64.8922 31.5057C64.5059 31.6837 64.0437 31.7727 63.5059 31.7727ZM80.1818 28.6705C79.3295 28.6705 78.5909 28.483 77.9659 28.108C77.3409 27.733 76.856 27.2083 76.5113 26.5341C76.1704 25.8598 75.9999 25.072 75.9999 24.1705C75.9999 23.2689 76.1704 22.4792 76.5113 21.8011C76.856 21.1231 77.3409 20.5966 77.9659 20.2216C78.5909 19.8466 79.3295 19.6591 80.1818 19.6591C81.034 19.6591 81.7727 19.8466 82.3977 20.2216C83.0227 20.5966 83.5056 21.1231 83.8465 21.8011C84.1912 22.4792 84.3636 23.2689 84.3636 24.1705C84.3636 25.072 84.1912 25.8598 83.8465 26.5341C83.5056 27.2083 83.0227 27.733 82.3977 28.108C81.7727 28.483 81.034 28.6705 80.1818 28.6705ZM80.1931 27.0227C80.6552 27.0227 81.0416 26.8958 81.3522 26.642C81.6628 26.3845 81.8939 26.0398 82.0454 25.608C82.2007 25.1761 82.2784 24.6951 82.2784 24.1648C82.2784 23.6307 82.2007 23.1477 82.0454 22.7159C81.8939 22.2803 81.6628 21.9337 81.3522 21.6761C81.0416 21.4186 80.6552 21.2898 80.1931 21.2898C79.7196 21.2898 79.3257 21.4186 79.0113 21.6761C78.7007 21.9337 78.4677 22.2803 78.3124 22.7159C78.1609 23.1477 78.0852 23.6307 78.0852 24.1648C78.0852 24.6951 78.1609 25.1761 78.3124 25.608C78.4677 26.0398 78.7007 26.3845 79.0113 26.642C79.3257 26.8958 79.7196 27.0227 80.1931 27.0227ZM88.6461 23.3864V28.5H86.5893V19.7727H88.5552V21.2557H88.6575C88.8583 20.767 89.1783 20.3788 89.6177 20.0909C90.0609 19.803 90.6083 19.6591 91.2598 19.6591C91.862 19.6591 92.3867 19.7879 92.8336 20.0455C93.2844 20.303 93.6329 20.6761 93.8791 21.1648C94.1291 21.6534 94.2522 22.2462 94.2484 22.9432V28.5H92.1916V23.2614C92.1916 22.678 92.0401 22.2216 91.737 21.892C91.4378 21.5625 91.023 21.3977 90.4927 21.3977C90.1329 21.3977 89.8128 21.4773 89.5325 21.6364C89.256 21.7917 89.0382 22.017 88.8791 22.3125C88.7238 22.608 88.6461 22.9659 88.6461 23.3864ZM109.154 20.5795C109.06 20.2727 108.929 19.9981 108.762 19.7557C108.6 19.5095 108.403 19.2992 108.171 19.125C107.944 18.9508 107.683 18.8201 107.387 18.733C107.092 18.642 106.77 18.5966 106.421 18.5966C105.796 18.5966 105.24 18.7538 104.751 19.0682C104.262 19.3826 103.878 19.8447 103.598 20.4545C103.321 21.0606 103.183 21.7992 103.183 22.6705C103.183 23.5492 103.321 24.2936 103.598 24.9034C103.874 25.5133 104.259 25.9773 104.751 26.2955C105.243 26.6098 105.815 26.767 106.467 26.767C107.058 26.767 107.569 26.6534 108.001 26.4261C108.437 26.1989 108.772 25.8769 109.007 25.4602C109.242 25.0398 109.359 24.5473 109.359 23.983L109.836 24.0568H106.677V22.4091H111.399V23.8068C111.399 24.803 111.187 25.6648 110.762 26.392C110.338 27.1193 109.755 27.6799 109.012 28.0739C108.27 28.464 107.418 28.6591 106.456 28.6591C105.384 28.6591 104.442 28.4186 103.632 27.9375C102.825 27.4527 102.194 26.7652 101.74 25.875C101.289 24.9811 101.064 23.9205 101.064 22.6932C101.064 21.7538 101.196 20.9148 101.461 20.1761C101.73 19.4375 102.105 18.8106 102.586 18.2955C103.067 17.7765 103.632 17.3826 104.279 17.1136C104.927 16.8409 105.632 16.7045 106.393 16.7045C107.037 16.7045 107.637 16.7992 108.194 16.9886C108.751 17.1742 109.245 17.4394 109.677 17.7841C110.113 18.1288 110.471 18.5379 110.751 19.0114C111.031 19.4848 111.215 20.0076 111.302 20.5795H109.154ZM123.877 20.7898H121.752C121.692 20.4413 121.58 20.1326 121.417 19.8636C121.254 19.5909 121.052 19.3598 120.809 19.1705C120.567 18.9811 120.29 18.839 119.98 18.7443C119.673 18.6458 119.341 18.5966 118.985 18.5966C118.353 18.5966 117.792 18.7557 117.303 19.0739C116.815 19.3883 116.432 19.8504 116.156 20.4602C115.879 21.0663 115.741 21.8068 115.741 22.6818C115.741 23.572 115.879 24.322 116.156 24.9318C116.436 25.5379 116.819 25.9962 117.303 26.3068C117.792 26.6136 118.351 26.767 118.98 26.767C119.328 26.767 119.654 26.7216 119.957 26.6307C120.264 26.536 120.538 26.3977 120.781 26.2159C121.027 26.0341 121.233 25.8106 121.4 25.5455C121.571 25.2803 121.688 24.9773 121.752 24.6364L123.877 24.6477C123.798 25.2008 123.625 25.7197 123.36 26.2045C123.099 26.6894 122.756 27.1174 122.332 27.4886C121.908 27.8561 121.411 28.1439 120.843 28.3523C120.275 28.5568 119.644 28.6591 118.951 28.6591C117.928 28.6591 117.016 28.4223 116.213 27.9489C115.41 27.4754 114.777 26.7917 114.315 25.8977C113.853 25.0038 113.622 23.9318 113.622 22.6818C113.622 21.428 113.855 20.3561 114.321 19.4659C114.786 18.572 115.421 17.8883 116.224 17.4148C117.027 16.9413 117.936 16.7045 118.951 16.7045C119.599 16.7045 120.201 16.7955 120.758 16.9773C121.315 17.1591 121.811 17.4261 122.247 17.7784C122.682 18.1269 123.04 18.5549 123.321 19.0625C123.605 19.5663 123.79 20.142 123.877 20.7898ZM126.288 28.5V16.8636H130.651C131.545 16.8636 132.295 17.0303 132.901 17.3636C133.511 17.697 133.971 18.1553 134.282 18.7386C134.596 19.3182 134.754 19.9773 134.754 20.7159C134.754 21.4621 134.596 22.125 134.282 22.7045C133.968 23.2841 133.504 23.7405 132.89 24.0739C132.276 24.4034 131.521 24.5682 130.623 24.5682H127.731V22.8352H130.339C130.862 22.8352 131.29 22.7443 131.623 22.5625C131.956 22.3807 132.202 22.1307 132.362 21.8125C132.524 21.4943 132.606 21.1288 132.606 20.7159C132.606 20.303 132.524 19.9394 132.362 19.625C132.202 19.3106 131.954 19.0663 131.617 18.892C131.284 18.714 130.854 18.625 130.327 18.625H128.396V28.5H126.288Z" fill="white"/>
</g>
<defs>
<filter id="filter0_d_34355_148894" x="0" y="0" width="150" height="53" filterUnits="userSpaceOnUse" color-interpolation-filters="sRGB">
<feFlood flood-opacity="0" result="BackgroundImageFix"/>
<feColorMatrix in="SourceAlpha" type="matrix" values="0 0 0 0 0 0 0 0 0 0 0 0 0 0 0 0 0 0 127 0" result="hardAlpha"/>
<feMorphology radius="5" operator="erode" in="SourceAlpha" result="effect1_dropShadow_34355_148894"/>
<feOffset dy="8"/>
<feGaussianBlur stdDeviation="2.5"/>
<feColorMatrix type="matrix" values="0 0 0 0 0 0 0 0 0 0 0 0 0 0 0 0 0 0 0.2 0"/>
<feBlend mode="normal" in2="BackgroundImageFix" result="effect1_dropShadow_34355_148894"/>
<feBlend mode="normal" in="SourceGraphic" in2="effect1_dropShadow_34355_148894" result="shape"/>
</filter>
</defs>
</svg>
