<svg width="150" height="45" viewBox="0 0 150 45" fill="none" xmlns="http://www.w3.org/2000/svg">
<rect width="150" height="45" rx="4" fill="#625EFF"/>
<path d="M27.7619 28H24.4657V17.8182H27.8663C28.8672 17.8182 29.724 18.022 30.4366 18.4297C31.1525 18.834 31.701 19.4157 32.0822 20.1747C32.4667 20.9304 32.6589 21.8369 32.6589 22.8942C32.6589 23.9548 32.4667 24.8662 32.0822 25.6286C31.6977 26.3909 31.1393 26.9775 30.4068 27.3885C29.6776 27.7962 28.796 28 27.7619 28ZM26.0019 26.6577H27.6774C28.8374 26.6577 29.7058 26.3329 30.2825 25.6832C30.8592 25.0303 31.1475 24.1006 31.1475 22.8942C31.1475 21.6944 30.8625 20.773 30.2924 20.13C29.7257 19.4837 28.8855 19.1605 27.7718 19.1605H26.0019V26.6577ZM38.1611 28.1541C37.4121 28.1541 36.7657 27.9917 36.2222 27.6669C35.6786 27.3421 35.2594 26.8864 34.9644 26.2997C34.6727 25.7098 34.5269 25.0204 34.5269 24.2315C34.5269 23.4493 34.6727 22.7599 34.9644 22.1634C35.2594 21.5668 35.6703 21.1011 36.1973 20.7663C36.7276 20.4316 37.3474 20.2642 38.0567 20.2642C38.6334 20.2642 39.1786 20.3935 39.6924 20.652C40.2094 20.9072 40.6287 21.3165 40.9502 21.88C41.275 22.4401 41.4374 23.1809 41.4374 24.1023V24.6293H36.0084C36.0283 25.3651 36.2354 25.9318 36.6299 26.3295C37.0243 26.7273 37.5397 26.9261 38.176 26.9261C38.6003 26.9261 38.9665 26.835 39.2747 26.6527C39.583 26.4704 39.8034 26.1986 39.936 25.8374L41.3429 26.0909C41.1739 26.7107 40.8093 27.2095 40.2492 27.5874C39.689 27.9652 38.993 28.1541 38.1611 28.1541ZM36.0134 23.5156H39.9807C39.9774 22.9323 39.8017 22.45 39.4537 22.0689C39.1057 21.6844 38.6434 21.4922 38.0666 21.4922C37.6656 21.4922 37.3143 21.5866 37.0127 21.7756C36.7144 21.9612 36.4774 22.2081 36.3017 22.5163C36.1294 22.8213 36.0333 23.1544 36.0134 23.5156ZM43.5067 30.8636V20.3636H44.9584V21.6016H45.0827C45.1722 21.4425 45.2965 21.2585 45.4556 21.0497C45.618 20.8409 45.8434 20.6586 46.1317 20.5028C46.4234 20.3438 46.8045 20.2642 47.2752 20.2642C47.8917 20.2642 48.4402 20.42 48.9208 20.7315C49.4047 21.0431 49.7858 21.4922 50.0642 22.0788C50.3427 22.6655 50.4819 23.3714 50.4819 24.1967C50.4819 25.0187 50.3443 25.7263 50.0692 26.3196C49.7941 26.9096 49.4163 27.362 48.9357 27.6768C48.4551 27.9917 47.9066 28.1491 47.2901 28.1491C46.8261 28.1491 46.4482 28.0713 46.1566 27.9155C45.8649 27.7597 45.6346 27.5774 45.4655 27.3686C45.2998 27.1598 45.1722 26.9742 45.0827 26.8118H44.9932V30.8636H43.5067ZM44.9634 24.1818C44.9634 24.9839 45.1357 25.6352 45.4804 26.1357C45.8251 26.6328 46.3173 26.8814 46.957 26.8814C47.4011 26.8814 47.7723 26.7637 48.0706 26.5284C48.3722 26.2898 48.5993 25.9666 48.7517 25.5589C48.9042 25.1513 48.9804 24.6922 48.9804 24.1818C48.9804 23.6747 48.9042 23.2223 48.7517 22.8246C48.6026 22.4235 48.3789 22.107 48.0806 21.875C47.7823 21.643 47.4078 21.527 46.957 21.527C46.3074 21.527 45.8119 21.7706 45.4705 22.2578C45.1324 22.7417 44.9634 23.383 44.9634 24.1818ZM54.0538 17.8182V28H52.5673V17.8182H54.0538ZM59.6903 28.1541C58.9744 28.1541 58.3496 27.9901 57.816 27.6619C57.2824 27.3338 56.8681 26.8748 56.5731 26.2848C56.2781 25.6915 56.1306 25.0021 56.1306 24.2166C56.1306 23.4245 56.2781 22.7318 56.5731 22.1385C56.8681 21.5452 57.2824 21.0845 57.816 20.7564C58.3496 20.4283 58.9744 20.2642 59.6903 20.2642C60.4095 20.2642 61.0343 20.4283 61.5646 20.7564C62.0982 21.0845 62.5125 21.5452 62.8075 22.1385C63.1025 22.7318 63.2499 23.4245 63.2499 24.2166C63.2499 25.0021 63.1025 25.6915 62.8075 26.2848C62.5125 26.8748 62.0982 27.3338 61.5646 27.6619C61.0343 27.9901 60.4095 28.1541 59.6903 28.1541ZM59.6953 26.9062C60.1626 26.9062 60.5471 26.7836 60.8487 26.5384C61.1536 26.2931 61.379 25.9666 61.5248 25.5589C61.674 25.148 61.7485 24.6989 61.7485 24.2116C61.7485 23.7244 61.674 23.2753 61.5248 22.8643C61.379 22.4534 61.1536 22.1252 60.8487 21.88C60.5471 21.6314 60.1626 21.5071 59.6953 21.5071C59.2279 21.5071 58.8418 21.6314 58.5369 21.88C58.232 22.1252 58.0049 22.4534 57.8558 22.8643C57.7066 23.2753 57.632 23.7244 57.632 24.2116C57.632 24.6989 57.7066 25.148 57.8558 25.5589C58.0049 25.9666 58.232 26.2931 58.5369 26.5384C58.8418 26.7836 59.2279 26.9062 59.6953 26.9062ZM65.9954 30.8438C65.7733 30.8438 65.5712 30.8272 65.3889 30.794C65.2066 30.7609 65.0707 30.7228 64.9812 30.6797L65.3392 29.4616C65.7468 29.5743 66.0882 29.5826 66.3633 29.4865C66.6417 29.3937 66.8754 29.1004 67.0643 28.6065L67.2482 28.0994L64.4542 20.3636H66.0451L67.9791 26.2898H68.0586L69.9926 20.3636L71.5984 20.3786L68.4414 29.0192C68.2227 29.6091 67.9128 30.0599 67.5117 30.3714C67.114 30.6863 66.6086 30.8438 65.9954 30.8438ZM77.6635 28V17.8182H79.1998V26.6776H83.8134V28H77.6635ZM89.0832 28.1541C88.3673 28.1541 87.7425 27.9901 87.2089 27.6619C86.6753 27.3338 86.261 26.8748 85.966 26.2848C85.671 25.6915 85.5235 25.0021 85.5235 24.2166C85.5235 23.4245 85.671 22.7318 85.966 22.1385C86.261 21.5452 86.6753 21.0845 87.2089 20.7564C87.7425 20.4283 88.3673 20.2642 89.0832 20.2642C89.8024 20.2642 90.4272 20.4283 90.9575 20.7564C91.4911 21.0845 91.9054 21.5452 92.2004 22.1385C92.4953 22.7318 92.6428 23.4245 92.6428 24.2166C92.6428 25.0021 92.4953 25.6915 92.2004 26.2848C91.9054 26.8748 91.4911 27.3338 90.9575 27.6619C90.4272 27.9901 89.8024 28.1541 89.0832 28.1541ZM89.0881 26.9062C89.5555 26.9062 89.9399 26.7836 90.2416 26.5384C90.5465 26.2931 90.7719 25.9666 90.9177 25.5589C91.0668 25.148 91.1414 24.6989 91.1414 24.2116C91.1414 23.7244 91.0668 23.2753 90.9177 22.8643C90.7719 22.4534 90.5465 22.1252 90.2416 21.88C89.9399 21.6314 89.5555 21.5071 89.0881 21.5071C88.6208 21.5071 88.2347 21.6314 87.9298 21.88C87.6248 22.1252 87.3978 22.4534 87.2487 22.8643C87.0995 23.2753 87.0249 23.7244 87.0249 24.2116C87.0249 24.6989 87.0995 25.148 87.2487 25.5589C87.3978 25.9666 87.6248 26.2931 87.9298 26.5384C88.2347 26.7836 88.6208 26.9062 89.0881 26.9062ZM97.9387 28.1541C97.1996 28.1541 96.5632 27.9867 96.0296 27.652C95.4993 27.3139 95.0917 26.8482 94.8066 26.255C94.5216 25.6617 94.3791 24.9822 94.3791 24.2166C94.3791 23.4377 94.5249 22.7517 94.8166 22.1584C95.1082 21.5651 95.5192 21.1011 96.0495 20.7663C96.5831 20.4316 97.2079 20.2642 97.9238 20.2642C98.5038 20.2642 99.0209 20.3719 99.4749 20.5874C99.929 20.7995 100.295 21.0978 100.574 21.4822C100.855 21.8667 101.023 22.3158 101.076 22.8295H99.6291C99.5495 22.4716 99.3672 22.1634 99.0822 21.9048C98.8005 21.6463 98.4226 21.517 97.9487 21.517C97.3289 21.517 96.8284 21.7573 96.4472 22.2379C96.0694 22.7152 95.8805 23.3632 95.8805 24.1818C95.8805 25.0137 96.0677 25.675 96.4423 26.1655C96.8168 26.6527 97.3189 26.8963 97.9487 26.8963C98.3729 26.8963 98.7358 26.7803 99.0374 26.5483C99.339 26.3163 99.5363 25.9948 99.6291 25.5838H101.076C101.023 26.0777 100.862 26.5185 100.594 26.9062C100.325 27.294 99.9655 27.599 99.5147 27.821C99.0673 28.0431 98.5419 28.1541 97.9387 28.1541ZM105.308 28.169C104.824 28.169 104.386 28.0795 103.995 27.9006C103.607 27.7216 103.299 27.4598 103.071 27.1151C102.842 26.767 102.728 26.3428 102.728 25.8423C102.728 25.4081 102.81 25.0518 102.976 24.7734C103.145 24.495 103.369 24.2746 103.647 24.1122C103.929 23.9498 104.244 23.8288 104.592 23.7493C104.94 23.6664 105.294 23.6035 105.656 23.5604C106.113 23.5073 106.483 23.4643 106.764 23.4311C107.049 23.3946 107.257 23.3366 107.386 23.2571C107.518 23.1776 107.585 23.0483 107.585 22.8693V22.8345C107.585 22.4003 107.462 22.0639 107.217 21.8253C106.975 21.5866 106.614 21.4673 106.133 21.4673C105.633 21.4673 105.238 21.5767 104.95 21.7955C104.665 22.0142 104.468 22.2595 104.358 22.5312L102.961 22.2131C103.21 21.517 103.624 21.0182 104.204 20.7166C104.787 20.415 105.424 20.2642 106.113 20.2642C106.418 20.2642 106.741 20.3007 107.083 20.3736C107.424 20.4432 107.745 20.5741 108.047 20.7663C108.352 20.9553 108.599 21.2237 108.788 21.5717C108.98 21.9197 109.076 22.3722 109.076 22.929V28H107.625V26.956H107.565C107.422 27.241 107.169 27.5144 106.804 27.7763C106.44 28.0381 105.941 28.169 105.308 28.169ZM105.631 26.9759C106.045 26.9759 106.398 26.8946 106.69 26.7322C106.982 26.5698 107.204 26.3577 107.356 26.0959C107.512 25.8307 107.59 25.5473 107.59 25.2457V24.2614C107.52 24.331 107.368 24.3923 107.132 24.4453C106.897 24.4983 106.648 24.5431 106.387 24.5795C106.125 24.616 105.913 24.6458 105.75 24.669C105.319 24.7254 104.95 24.8397 104.642 25.0121C104.337 25.1811 104.184 25.4645 104.184 25.8622C104.184 26.2301 104.32 26.5085 104.592 26.6974C104.864 26.883 105.21 26.9759 105.631 26.9759ZM112.963 17.8182V28H111.476V17.8182H112.963ZM116.869 17.8182V28H115.382V17.8182H116.869ZM120.228 30.8438C120.006 30.8438 119.804 30.8272 119.622 30.794C119.44 30.7609 119.304 30.7228 119.214 30.6797L119.572 29.4616C119.98 29.5743 120.321 29.5826 120.596 29.4865C120.875 29.3937 121.108 29.1004 121.297 28.6065L121.481 28.0994L118.687 20.3636H120.278L122.212 26.2898H122.292L124.226 20.3636L125.831 20.3786L122.674 29.0192C122.456 29.6091 122.146 30.0599 121.745 30.3714C121.347 30.6863 120.842 30.8438 120.228 30.8438Z" fill="white"/>
</svg>
