<svg width="150" height="45" viewBox="0 0 150 45" fill="none" xmlns="http://www.w3.org/2000/svg">
<rect width="150" height="45" rx="4" fill="#625EFF"/>
<path d="M25.5041 28H22.2079V17.8182H25.6085C26.6095 17.8182 27.4662 18.022 28.1788 18.4297C28.8947 18.834 29.4433 19.4157 29.8244 20.1747C30.2089 20.9304 30.4011 21.8369 30.4011 22.8942C30.4011 23.9548 30.2089 24.8662 29.8244 25.6286C29.44 26.3909 28.8815 26.9775 28.149 27.3885C27.4198 27.7962 26.5382 28 25.5041 28ZM23.7442 26.6577H25.4196C26.5796 26.6577 27.448 26.3329 28.0247 25.6832C28.6014 25.0303 28.8898 24.1006 28.8898 22.8942C28.8898 21.6944 28.6047 20.773 28.0346 20.13C27.4679 19.4837 26.6277 19.1605 25.5141 19.1605H23.7442V26.6577ZM35.9033 28.1541C35.1543 28.1541 34.508 27.9917 33.9644 27.6669C33.4209 27.3421 33.0016 26.8864 32.7066 26.2997C32.4149 25.7098 32.2691 25.0204 32.2691 24.2315C32.2691 23.4493 32.4149 22.7599 32.7066 22.1634C33.0016 21.5668 33.4126 21.1011 33.9396 20.7663C34.4699 20.4316 35.0897 20.2642 35.7989 20.2642C36.3756 20.2642 36.9209 20.3935 37.4346 20.652C37.9516 20.9072 38.3709 21.3165 38.6924 21.88C39.0172 22.4401 39.1796 23.1809 39.1796 24.1023V24.6293H33.7506C33.7705 25.3651 33.9777 25.9318 34.3721 26.3295C34.7665 26.7273 35.2819 26.9261 35.9182 26.9261C36.3425 26.9261 36.7087 26.835 37.017 26.6527C37.3252 26.4704 37.5456 26.1986 37.6782 25.8374L39.0852 26.0909C38.9161 26.7107 38.5515 27.2095 37.9914 27.5874C37.4313 27.9652 36.7352 28.1541 35.9033 28.1541ZM33.7556 23.5156H37.7229C37.7196 22.9323 37.544 22.45 37.1959 22.0689C36.8479 21.6844 36.3856 21.4922 35.8089 21.4922C35.4078 21.4922 35.0565 21.5866 34.7549 21.7756C34.4566 21.9612 34.2196 22.2081 34.044 22.5163C33.8716 22.8213 33.7755 23.1544 33.7556 23.5156ZM41.2489 30.8636V20.3636H42.7006V21.6016H42.8249C42.9144 21.4425 43.0387 21.2585 43.1978 21.0497C43.3602 20.8409 43.5856 20.6586 43.8739 20.5028C44.1656 20.3438 44.5468 20.2642 45.0174 20.2642C45.6339 20.2642 46.1824 20.42 46.663 20.7315C47.1469 21.0431 47.5281 21.4922 47.8065 22.0788C48.0849 22.6655 48.2241 23.3714 48.2241 24.1967C48.2241 25.0187 48.0865 25.7263 47.8114 26.3196C47.5363 26.9096 47.1585 27.362 46.6779 27.6768C46.1973 27.9917 45.6488 28.1491 45.0323 28.1491C44.5683 28.1491 44.1905 28.0713 43.8988 27.9155C43.6071 27.7597 43.3768 27.5774 43.2077 27.3686C43.042 27.1598 42.9144 26.9742 42.8249 26.8118H42.7354V30.8636H41.2489ZM42.7056 24.1818C42.7056 24.9839 42.878 25.6352 43.2227 26.1357C43.5674 26.6328 44.0595 26.8814 44.6992 26.8814C45.1434 26.8814 45.5146 26.7637 45.8129 26.5284C46.1145 26.2898 46.3415 25.9666 46.494 25.5589C46.6464 25.1513 46.7227 24.6922 46.7227 24.1818C46.7227 23.6747 46.6464 23.2223 46.494 22.8246C46.3448 22.4235 46.1211 22.107 45.8228 21.875C45.5245 21.643 45.15 21.527 44.6992 21.527C44.0496 21.527 43.5541 21.7706 43.2127 22.2578C42.8746 22.7417 42.7056 23.383 42.7056 24.1818ZM51.7961 17.8182V28H50.3096V17.8182H51.7961ZM57.4325 28.1541C56.7166 28.1541 56.0918 27.9901 55.5582 27.6619C55.0246 27.3338 54.6103 26.8748 54.3153 26.2848C54.0203 25.6915 53.8729 25.0021 53.8729 24.2166C53.8729 23.4245 54.0203 22.7318 54.3153 22.1385C54.6103 21.5452 55.0246 21.0845 55.5582 20.7564C56.0918 20.4283 56.7166 20.2642 57.4325 20.2642C58.1517 20.2642 58.7765 20.4283 59.3068 20.7564C59.8404 21.0845 60.2547 21.5452 60.5497 22.1385C60.8447 22.7318 60.9922 23.4245 60.9922 24.2166C60.9922 25.0021 60.8447 25.6915 60.5497 26.2848C60.2547 26.8748 59.8404 27.3338 59.3068 27.6619C58.7765 27.9901 58.1517 28.1541 57.4325 28.1541ZM57.4375 26.9062C57.9048 26.9062 58.2893 26.7836 58.5909 26.5384C58.8958 26.2931 59.1212 25.9666 59.267 25.5589C59.4162 25.148 59.4908 24.6989 59.4908 24.2116C59.4908 23.7244 59.4162 23.2753 59.267 22.8643C59.1212 22.4534 58.8958 22.1252 58.5909 21.88C58.2893 21.6314 57.9048 21.5071 57.4375 21.5071C56.9702 21.5071 56.584 21.6314 56.2791 21.88C55.9742 22.1252 55.7471 22.4534 55.598 22.8643C55.4488 23.2753 55.3743 23.7244 55.3743 24.2116C55.3743 24.6989 55.4488 25.148 55.598 25.5589C55.7471 25.9666 55.9742 26.2931 56.2791 26.5384C56.584 26.7836 56.9702 26.9062 57.4375 26.9062ZM63.7376 30.8438C63.5156 30.8438 63.3134 30.8272 63.1311 30.794C62.9488 30.7609 62.8129 30.7228 62.7234 30.6797L63.0814 29.4616C63.4891 29.5743 63.8304 29.5826 64.1055 29.4865C64.3839 29.3937 64.6176 29.1004 64.8065 28.6065L64.9905 28.0994L62.1964 20.3636H63.7873L65.7213 26.2898H65.8008L67.7348 20.3636L69.3406 20.3786L66.1837 29.0192C65.9649 29.6091 65.655 30.0599 65.254 30.3714C64.8562 30.6863 64.3508 30.8438 63.7376 30.8438ZM78.5031 28.1541C77.7871 28.1541 77.1624 27.9901 76.6288 27.6619C76.0951 27.3338 75.6809 26.8748 75.3859 26.2848C75.0909 25.6915 74.9434 25.0021 74.9434 24.2166C74.9434 23.4245 75.0909 22.7318 75.3859 22.1385C75.6809 21.5452 76.0951 21.0845 76.6288 20.7564C77.1624 20.4283 77.7871 20.2642 78.5031 20.2642C79.2223 20.2642 79.847 20.4283 80.3773 20.7564C80.911 21.0845 81.3253 21.5452 81.6202 22.1385C81.9152 22.7318 82.0627 23.4245 82.0627 24.2166C82.0627 25.0021 81.9152 25.6915 81.6202 26.2848C81.3253 26.8748 80.911 27.3338 80.3773 27.6619C79.847 27.9901 79.2223 28.1541 78.5031 28.1541ZM78.508 26.9062C78.9754 26.9062 79.3598 26.7836 79.6614 26.5384C79.9664 26.2931 80.1917 25.9666 80.3376 25.5589C80.4867 25.148 80.5613 24.6989 80.5613 24.2116C80.5613 23.7244 80.4867 23.2753 80.3376 22.8643C80.1917 22.4534 79.9664 22.1252 79.6614 21.88C79.3598 21.6314 78.9754 21.5071 78.508 21.5071C78.0407 21.5071 77.6546 21.6314 77.3496 21.88C77.0447 22.1252 76.8177 22.4534 76.6685 22.8643C76.5194 23.2753 76.4448 23.7244 76.4448 24.2116C76.4448 24.6989 76.5194 25.148 76.6685 25.5589C76.8177 25.9666 77.0447 26.2931 77.3496 26.5384C77.6546 26.7836 78.0407 26.9062 78.508 26.9062ZM85.6285 23.4659V28H84.142V20.3636H85.5688V21.6065H85.6633C85.839 21.2022 86.1141 20.8774 86.4886 20.6321C86.8664 20.3868 87.342 20.2642 87.9154 20.2642C88.6976 20.2642 89.3257 20.5078 89.7997 20.995C90.2769 21.4822 90.5156 22.1982 90.5156 23.1428V28H89.0291V23.3217C89.0291 22.7682 88.8849 22.3357 88.5965 22.0241C88.3082 21.7093 87.9121 21.5518 87.4083 21.5518C86.8913 21.5518 86.4654 21.7192 86.1306 22.054C85.7959 22.3854 85.6285 22.8561 85.6285 23.4659ZM98.0337 28H96.403L100.067 17.8182H101.842L105.506 28H103.875L102.946 25.3054H98.9683L98.0337 28ZM99.4158 24.0128H102.498L100.997 19.6676H100.917L99.4158 24.0128ZM108.515 28L105.691 17.8182H107.307L109.29 25.7031H109.385L111.448 17.8182H113.049L115.112 25.7081H115.207L117.185 17.8182H118.806L115.977 28H114.431L112.288 20.3736H112.209L110.066 28H108.515ZM126.153 20.4929C126.1 20.0223 125.881 19.6577 125.497 19.3991C125.112 19.1373 124.628 19.0064 124.045 19.0064C123.418 19.0064 122.921 19.1489 122.553 19.4339C122.185 19.719 122.001 20.0786 122.001 20.5128C122.001 20.8376 122.099 21.1027 122.295 21.3082C122.494 21.5104 122.736 21.6695 123.021 21.7855C123.309 21.9015 123.586 21.9943 123.851 22.0639L124.845 22.3224C125.17 22.402 125.503 22.5114 125.845 22.6506C126.186 22.7865 126.502 22.9654 126.794 23.1875C127.086 23.4062 127.321 23.6797 127.5 24.0078C127.682 24.3359 127.774 24.7287 127.774 25.1861C127.774 25.7595 127.624 26.2715 127.326 26.7223C127.031 27.1731 126.604 27.5277 126.043 27.7862C125.483 28.0414 124.804 28.169 124.005 28.169C122.865 28.169 121.957 27.9022 121.281 27.3686C120.608 26.835 120.247 26.1075 120.197 25.1861H121.738C121.784 25.7396 122.025 26.1506 122.459 26.419C122.893 26.6875 123.405 26.8217 123.995 26.8217C124.648 26.8217 125.187 26.6709 125.611 26.3693C126.038 26.0677 126.252 25.6683 126.252 25.1712C126.252 24.8696 126.166 24.6226 125.994 24.4304C125.825 24.2348 125.594 24.0758 125.303 23.9531C125.014 23.8272 124.688 23.7161 124.323 23.62L123.12 23.2919C122.301 23.0698 121.655 22.7434 121.181 22.3125C120.707 21.8816 120.47 21.3116 120.47 20.6023C120.47 20.0156 120.629 19.5036 120.948 19.0661C121.266 18.6286 121.697 18.2888 122.24 18.0469C122.787 17.8016 123.4 17.679 124.08 17.679C124.769 17.679 125.377 17.8 125.904 18.0419C126.434 18.2839 126.852 18.617 127.157 19.0412C127.462 19.4654 127.621 19.9493 127.634 20.4929H126.153Z" fill="white"/>
</svg>
