<svg width="150" height="53" viewBox="0 0 150 53" fill="none" xmlns="http://www.w3.org/2000/svg">
<g filter="url(#filter0_d_34355_148892)">
<path d="M0 9.6C0 6.23968 0 4.55953 0.653961 3.27606C1.2292 2.14708 2.14708 1.2292 3.27606 0.653961C4.55953 0 6.23969 0 9.6 0H140.4C143.76 0 145.44 0 146.724 0.653961C147.853 1.2292 148.771 2.14708 149.346 3.27606C150 4.55953 150 6.23969 150 9.6V35.4C150 38.7603 150 40.4405 149.346 41.7239C148.771 42.8529 147.853 43.7708 146.724 44.346C145.44 45 143.76 45 140.4 45H9.6C6.23969 45 4.55953 45 3.27606 44.346C2.14708 43.7708 1.2292 42.8529 0.653961 41.7239C0 40.4405 0 38.7603 0 35.4V9.6Z" fill="#615EFF"/>
<path d="M21.3381 28.5H17.3949V16.8636H21.4176C22.5729 16.8636 23.5654 17.0966 24.3949 17.5625C25.2282 18.0246 25.8684 18.6894 26.3154 19.5568C26.7623 20.4242 26.9858 21.4621 26.9858 22.6705C26.9858 23.8826 26.7604 24.9242 26.3097 25.7955C25.8627 26.6667 25.2169 27.3352 24.3722 27.8011C23.5313 28.267 22.5199 28.5 21.3381 28.5ZM19.5029 26.6761H21.2358C22.0464 26.6761 22.7226 26.5284 23.2642 26.233C23.8059 25.9337 24.2131 25.4886 24.4858 24.8977C24.7586 24.303 24.8949 23.5606 24.8949 22.6705C24.8949 21.7803 24.7586 21.0417 24.4858 20.4545C24.2131 19.8636 23.8097 19.4223 23.2756 19.1307C22.7453 18.8352 22.0862 18.6875 21.2983 18.6875H19.5029V26.6761ZM33.2414 28.6705C32.3664 28.6705 31.6107 28.4886 30.9743 28.125C30.3418 27.7576 29.855 27.2386 29.5141 26.5682C29.1732 25.8939 29.0028 25.1004 29.0028 24.1875C29.0028 23.2898 29.1732 22.5019 29.5141 21.8239C29.8588 21.142 30.3399 20.6117 30.9573 20.233C31.5747 19.8504 32.3001 19.6591 33.1334 19.6591C33.6713 19.6591 34.1789 19.7462 34.6562 19.9205C35.1372 20.0909 35.5615 20.3561 35.9289 20.7159C36.3001 21.0758 36.5918 21.5341 36.8039 22.0909C37.016 22.6439 37.1221 23.303 37.1221 24.0682V24.6989H29.9687V23.3125H35.1505C35.1467 22.9186 35.0615 22.5682 34.8948 22.2614C34.7281 21.9508 34.4952 21.7064 34.1959 21.5284C33.9005 21.3504 33.5558 21.2614 33.1618 21.2614C32.7414 21.2614 32.3721 21.3636 32.0539 21.5682C31.7357 21.7689 31.4876 22.0341 31.3096 22.3636C31.1353 22.6894 31.0463 23.0473 31.0425 23.4375V24.6477C31.0425 25.1553 31.1353 25.5909 31.3209 25.9545C31.5065 26.3144 31.766 26.5909 32.0993 26.7841C32.4327 26.9735 32.8228 27.0682 33.2698 27.0682C33.569 27.0682 33.8399 27.0265 34.0823 26.9432C34.3247 26.8561 34.535 26.7292 34.713 26.5625C34.891 26.3958 35.0255 26.1894 35.1164 25.9432L37.0368 26.1591C36.9156 26.6667 36.6846 27.1098 36.3437 27.4886C36.0065 27.8636 35.5747 28.1553 35.0482 28.3636C34.5217 28.5682 33.9194 28.6705 33.2414 28.6705ZM39.3421 31.7727V19.7727H41.3649V21.2159H41.4842C41.5902 21.0038 41.7399 20.7784 41.933 20.5398C42.1262 20.2973 42.3876 20.0909 42.7171 19.9205C43.0467 19.7462 43.4671 19.6591 43.9785 19.6591C44.6527 19.6591 45.2607 19.8314 45.8024 20.1761C46.3478 20.517 46.7796 21.0227 47.0978 21.6932C47.4198 22.3598 47.5808 23.178 47.5808 24.1477C47.5808 25.1061 47.4236 25.9205 47.1092 26.5909C46.7948 27.2614 46.3668 27.7727 45.8251 28.125C45.2834 28.4773 44.6698 28.6534 43.9842 28.6534C43.4842 28.6534 43.0694 28.5701 42.7399 28.4034C42.4103 28.2367 42.1452 28.036 41.9444 27.8011C41.7474 27.5625 41.594 27.3371 41.4842 27.125H41.3989V31.7727H39.3421ZM41.3592 24.1364C41.3592 24.7008 41.4387 25.1951 41.5978 25.6193C41.7607 26.0436 41.9936 26.375 42.2967 26.6136C42.6035 26.8485 42.9747 26.9659 43.4103 26.9659C43.8649 26.9659 44.2455 26.8447 44.5524 26.6023C44.8592 26.3561 45.0902 26.0208 45.2455 25.5966C45.4046 25.1686 45.4842 24.6818 45.4842 24.1364C45.4842 23.5947 45.4065 23.1136 45.2512 22.6932C45.0959 22.2727 44.8649 21.9432 44.558 21.7045C44.2512 21.4659 43.8686 21.3466 43.4103 21.3466C42.9709 21.3466 42.5978 21.4621 42.291 21.6932C41.9842 21.9242 41.7512 22.2481 41.5921 22.6648C41.4368 23.0814 41.3592 23.572 41.3592 24.1364ZM51.8789 16.8636V28.5H49.8221V16.8636H51.8789ZM58.2808 28.6705C57.4286 28.6705 56.6899 28.483 56.0649 28.108C55.4399 27.733 54.9551 27.2083 54.6104 26.5341C54.2695 25.8598 54.099 25.072 54.099 24.1705C54.099 23.2689 54.2695 22.4792 54.6104 21.8011C54.9551 21.1231 55.4399 20.5966 56.0649 20.2216C56.6899 19.8466 57.4286 19.6591 58.2808 19.6591C59.1331 19.6591 59.8717 19.8466 60.4967 20.2216C61.1217 20.5966 61.6047 21.1231 61.9456 21.8011C62.2903 22.4792 62.4626 23.2689 62.4626 24.1705C62.4626 25.072 62.2903 25.8598 61.9456 26.5341C61.6047 27.2083 61.1217 27.733 60.4967 28.108C59.8717 28.483 59.1331 28.6705 58.2808 28.6705ZM58.2922 27.0227C58.7543 27.0227 59.1407 26.8958 59.4513 26.642C59.7619 26.3845 59.9929 26.0398 60.1445 25.608C60.2998 25.1761 60.3774 24.6951 60.3774 24.1648C60.3774 23.6307 60.2998 23.1477 60.1445 22.7159C59.9929 22.2803 59.7619 21.9337 59.4513 21.6761C59.1407 21.4186 58.7543 21.2898 58.2922 21.2898C57.8187 21.2898 57.4248 21.4186 57.1104 21.6761C56.7998 21.9337 56.5668 22.2803 56.4115 22.7159C56.26 23.1477 56.1842 23.6307 56.1842 24.1648C56.1842 24.6951 56.26 25.1761 56.4115 25.608C56.5668 26.0398 56.7998 26.3845 57.1104 26.642C57.4248 26.8958 57.8187 27.0227 58.2922 27.0227ZM65.6699 31.7727C65.3896 31.7727 65.1301 31.75 64.8915 31.7045C64.6567 31.6629 64.4692 31.6136 64.329 31.5568L64.8063 29.9545C65.1055 30.0417 65.3726 30.0833 65.6074 30.0795C65.8423 30.0758 66.0487 30.0019 66.2267 29.858C66.4086 29.7178 66.562 29.483 66.687 29.1534L66.8631 28.6818L63.6983 19.7727H65.8801L67.8915 26.3636H67.9824L69.9995 19.7727H72.187L68.6926 29.5568C68.5298 30.0189 68.3139 30.4148 68.0449 30.7443C67.776 31.0777 67.4464 31.3314 67.0563 31.5057C66.6699 31.6837 66.2078 31.7727 65.6699 31.7727ZM82.3458 28.6705C81.4936 28.6705 80.7549 28.483 80.1299 28.108C79.5049 27.733 79.0201 27.2083 78.6754 26.5341C78.3345 25.8598 78.164 25.072 78.164 24.1705C78.164 23.2689 78.3345 22.4792 78.6754 21.8011C79.0201 21.1231 79.5049 20.5966 80.1299 20.2216C80.7549 19.8466 81.4936 19.6591 82.3458 19.6591C83.1981 19.6591 83.9367 19.8466 84.5617 20.2216C85.1867 20.5966 85.6697 21.1231 86.0106 21.8011C86.3553 22.4792 86.5276 23.2689 86.5276 24.1705C86.5276 25.072 86.3553 25.8598 86.0106 26.5341C85.6697 27.2083 85.1867 27.733 84.5617 28.108C83.9367 28.483 83.1981 28.6705 82.3458 28.6705ZM82.3572 27.0227C82.8193 27.0227 83.2057 26.8958 83.5163 26.642C83.8269 26.3845 84.0579 26.0398 84.2095 25.608C84.3648 25.1761 84.4424 24.6951 84.4424 24.1648C84.4424 23.6307 84.3648 23.1477 84.2095 22.7159C84.0579 22.2803 83.8269 21.9337 83.5163 21.6761C83.2057 21.4186 82.8193 21.2898 82.3572 21.2898C81.8837 21.2898 81.4898 21.4186 81.1754 21.6761C80.8648 21.9337 80.6318 22.2803 80.4765 22.7159C80.325 23.1477 80.2492 23.6307 80.2492 24.1648C80.2492 24.6951 80.325 25.1761 80.4765 25.608C80.6318 26.0398 80.8648 26.3845 81.1754 26.642C81.4898 26.8958 81.8837 27.0227 82.3572 27.0227ZM90.8102 23.3864V28.5H88.7534V19.7727H90.7193V21.2557H90.8216C91.0223 20.767 91.3424 20.3788 91.7818 20.0909C92.225 19.803 92.7723 19.6591 93.4238 19.6591C94.0261 19.6591 94.5507 19.7879 94.9977 20.0455C95.4485 20.303 95.7969 20.6761 96.0432 21.1648C96.2932 21.6534 96.4163 22.2462 96.4125 22.9432V28.5H94.3557V23.2614C94.3557 22.678 94.2041 22.2216 93.9011 21.892C93.6019 21.5625 93.1871 21.3977 92.6568 21.3977C92.2969 21.3977 91.9769 21.4773 91.6966 21.6364C91.42 21.7917 91.2022 22.017 91.0432 22.3125C90.8879 22.608 90.8102 22.9659 90.8102 23.3864ZM103.523 28.5V16.8636H105.631V22.2102H105.773L110.313 16.8636H112.887L108.387 22.0852L112.926 28.5H110.392L106.921 23.5114L105.631 25.0341V28.5H103.523ZM118.854 28.6591C118.009 28.6591 117.259 28.517 116.604 28.233C115.952 27.9489 115.441 27.5606 115.07 27.0682C114.702 26.572 114.521 26.0095 114.524 25.3807C114.521 24.892 114.627 24.4432 114.843 24.0341C115.058 23.625 115.35 23.2841 115.718 23.0114C116.089 22.7348 116.502 22.5587 116.956 22.483V22.4034C116.358 22.2708 115.873 21.9659 115.502 21.4886C115.134 21.0076 114.952 20.4527 114.956 19.8239C114.952 19.2254 115.119 18.6913 115.456 18.2216C115.793 17.7519 116.255 17.3826 116.843 17.1136C117.43 16.8409 118.1 16.7045 118.854 16.7045C119.6 16.7045 120.265 16.8409 120.848 17.1136C121.435 17.3826 121.897 17.7519 122.235 18.2216C122.575 18.6913 122.746 19.2254 122.746 19.8239C122.746 20.4527 122.558 21.0076 122.183 21.4886C121.812 21.9659 121.333 22.2708 120.746 22.4034V22.483C121.2 22.5587 121.61 22.7348 121.973 23.0114C122.341 23.2841 122.632 23.625 122.848 24.0341C123.068 24.4432 123.178 24.892 123.178 25.3807C123.178 26.0095 122.992 26.572 122.621 27.0682C122.25 27.5606 121.738 27.9489 121.087 28.233C120.439 28.517 119.695 28.6591 118.854 28.6591ZM118.854 27.0341C119.29 27.0341 119.668 26.9602 119.99 26.8125C120.312 26.661 120.562 26.4489 120.74 26.1761C120.918 25.9034 121.009 25.589 121.013 25.233C121.009 24.8617 120.913 24.5341 120.723 24.25C120.538 23.9621 120.282 23.7367 119.956 23.5739C119.634 23.411 119.267 23.3295 118.854 23.3295C118.437 23.3295 118.066 23.411 117.74 23.5739C117.415 23.7367 117.157 23.9621 116.968 24.25C116.782 24.5341 116.691 24.8617 116.695 25.233C116.691 25.589 116.778 25.9034 116.956 26.1761C117.134 26.4451 117.384 26.6553 117.706 26.8068C118.032 26.9583 118.415 27.0341 118.854 27.0341ZM118.854 21.733C119.21 21.733 119.524 21.661 119.797 21.517C120.074 21.3731 120.291 21.1723 120.45 20.9148C120.61 20.6572 120.691 20.3598 120.695 20.0227C120.691 19.6894 120.611 19.3977 120.456 19.1477C120.301 18.8939 120.085 18.6989 119.808 18.5625C119.532 18.4223 119.214 18.3523 118.854 18.3523C118.486 18.3523 118.163 18.4223 117.882 18.5625C117.606 18.6989 117.39 18.8939 117.235 19.1477C117.083 19.3977 117.009 19.6894 117.013 20.0227C117.009 20.3598 117.085 20.6572 117.24 20.9148C117.399 21.1686 117.617 21.3693 117.894 21.517C118.174 21.661 118.494 21.733 118.854 21.733ZM132.446 22.0795L130.571 22.2841C130.518 22.0947 130.425 21.9167 130.293 21.75C130.164 21.5833 129.99 21.4489 129.77 21.3466C129.55 21.2443 129.281 21.1932 128.963 21.1932C128.535 21.1932 128.175 21.286 127.884 21.4716C127.596 21.6572 127.454 21.8977 127.457 22.1932C127.454 22.447 127.546 22.6534 127.736 22.8125C127.929 22.9716 128.247 23.1023 128.69 23.2045L130.179 23.5227C131.005 23.7008 131.618 23.983 132.02 24.3693C132.425 24.7557 132.63 25.2614 132.634 25.8864C132.63 26.4356 132.469 26.9205 132.151 27.3409C131.836 27.7576 131.399 28.0833 130.838 28.3182C130.278 28.553 129.634 28.6705 128.906 28.6705C127.838 28.6705 126.978 28.447 126.327 28C125.675 27.5492 125.287 26.9223 125.162 26.1193L127.168 25.9261C127.259 26.3201 127.452 26.6174 127.747 26.8182C128.043 27.0189 128.427 27.1193 128.901 27.1193C129.389 27.1193 129.781 27.0189 130.077 26.8182C130.376 26.6174 130.526 26.3693 130.526 26.0739C130.526 25.8239 130.429 25.6174 130.236 25.4545C130.046 25.2917 129.751 25.1667 129.35 25.0795L127.861 24.767C127.024 24.5928 126.404 24.2992 126.003 23.8864C125.601 23.4697 125.403 22.9432 125.406 22.3068C125.403 21.7689 125.548 21.303 125.844 20.9091C126.143 20.5114 126.558 20.2045 127.088 19.9886C127.622 19.7689 128.238 19.6591 128.935 19.6591C129.957 19.6591 130.762 19.8769 131.35 20.3125C131.94 20.7481 132.306 21.3371 132.446 22.0795Z" fill="white"/>
</g>
<defs>
<filter id="filter0_d_34355_148892" x="0" y="0" width="150" height="53" filterUnits="userSpaceOnUse" color-interpolation-filters="sRGB">
<feFlood flood-opacity="0" result="BackgroundImageFix"/>
<feColorMatrix in="SourceAlpha" type="matrix" values="0 0 0 0 0 0 0 0 0 0 0 0 0 0 0 0 0 0 127 0" result="hardAlpha"/>
<feMorphology radius="5" operator="erode" in="SourceAlpha" result="effect1_dropShadow_34355_148892"/>
<feOffset dy="8"/>
<feGaussianBlur stdDeviation="2.5"/>
<feColorMatrix type="matrix" values="0 0 0 0 0 0 0 0 0 0 0 0 0 0 0 0 0 0 0.2 0"/>
<feBlend mode="normal" in2="BackgroundImageFix" result="effect1_dropShadow_34355_148892"/>
<feBlend mode="normal" in="SourceGraphic" in2="effect1_dropShadow_34355_148892" result="shape"/>
</filter>
</defs>
</svg>
