<svg width="150" height="53" viewBox="0 0 150 53" fill="none" xmlns="http://www.w3.org/2000/svg">
<g filter="url(#filter0_d_34355_148898)">
<path d="M0 9.6C0 6.23968 0 4.55953 0.653961 3.27606C1.2292 2.14708 2.14708 1.2292 3.27606 0.653961C4.55953 0 6.23969 0 9.6 0H140.4C143.76 0 145.44 0 146.724 0.653961C147.853 1.2292 148.771 2.14708 149.346 3.27606C150 4.55953 150 6.23969 150 9.6V35.4C150 38.7603 150 40.4405 149.346 41.7239C148.771 42.8529 147.853 43.7708 146.724 44.346C145.44 45 143.76 45 140.4 45H9.6C6.23969 45 4.55953 45 3.27606 44.346C2.14708 43.7708 1.2292 42.8529 0.653961 41.7239C0 40.4405 0 38.7603 0 35.4V9.6Z" fill="#615EFF"/>
<path d="M20.4028 28.5H16.4596V16.8636H20.4823C21.6376 16.8636 22.6301 17.0966 23.4596 17.5625C24.2929 18.0246 24.9331 18.6894 25.3801 19.5568C25.827 20.4242 26.0505 21.4621 26.0505 22.6705C26.0505 23.8826 25.8251 24.9242 25.3744 25.7955C24.9274 26.6667 24.2816 27.3352 23.4369 27.8011C22.596 28.267 21.5846 28.5 20.4028 28.5ZM18.5676 26.6761H20.3005C21.1111 26.6761 21.7873 26.5284 22.3289 26.233C22.8706 25.9337 23.2778 25.4886 23.5505 24.8977C23.8232 24.303 23.9596 23.5606 23.9596 22.6705C23.9596 21.7803 23.8232 21.0417 23.5505 20.4545C23.2778 19.8636 22.8744 19.4223 22.3403 19.1307C21.81 18.8352 21.1509 18.6875 20.363 18.6875H18.5676V26.6761ZM32.3061 28.6705C31.4311 28.6705 30.6754 28.4886 30.039 28.125C29.4065 27.7576 28.9197 27.2386 28.5788 26.5682C28.2379 25.8939 28.0674 25.1004 28.0674 24.1875C28.0674 23.2898 28.2379 22.5019 28.5788 21.8239C28.9235 21.142 29.4046 20.6117 30.022 20.233C30.6394 19.8504 31.3648 19.6591 32.1981 19.6591C32.736 19.6591 33.2436 19.7462 33.7209 19.9205C34.2019 20.0909 34.6262 20.3561 34.9936 20.7159C35.3648 21.0758 35.6565 21.5341 35.8686 22.0909C36.0807 22.6439 36.1868 23.303 36.1868 24.0682V24.6989H29.0334V23.3125H34.2152C34.2114 22.9186 34.1262 22.5682 33.9595 22.2614C33.7928 21.9508 33.5599 21.7064 33.2606 21.5284C32.9652 21.3504 32.6205 21.2614 32.2265 21.2614C31.8061 21.2614 31.4368 21.3636 31.1186 21.5682C30.8004 21.7689 30.5523 22.0341 30.3743 22.3636C30.2 22.6894 30.111 23.0473 30.1072 23.4375V24.6477C30.1072 25.1553 30.2 25.5909 30.3856 25.9545C30.5712 26.3144 30.8307 26.5909 31.164 26.7841C31.4974 26.9735 31.8875 27.0682 32.3345 27.0682C32.6337 27.0682 32.9046 27.0265 33.147 26.9432C33.3894 26.8561 33.5996 26.7292 33.7777 26.5625C33.9557 26.3958 34.0902 26.1894 34.1811 25.9432L36.1015 26.1591C35.9803 26.6667 35.7493 27.1098 35.4084 27.4886C35.0712 27.8636 34.6394 28.1553 34.1129 28.3636C33.5864 28.5682 32.9841 28.6705 32.3061 28.6705ZM38.4068 31.7727V19.7727H40.4295V21.2159H40.5489C40.6549 21.0038 40.8045 20.7784 40.9977 20.5398C41.1909 20.2973 41.4523 20.0909 41.7818 19.9205C42.1114 19.7462 42.5318 19.6591 43.0432 19.6591C43.7174 19.6591 44.3254 19.8314 44.867 20.1761C45.4125 20.517 45.8443 21.0227 46.1625 21.6932C46.4845 22.3598 46.6455 23.178 46.6455 24.1477C46.6455 25.1061 46.4883 25.9205 46.1739 26.5909C45.8595 27.2614 45.4314 27.7727 44.8898 28.125C44.3481 28.4773 43.7345 28.6534 43.0489 28.6534C42.5489 28.6534 42.1341 28.5701 41.8045 28.4034C41.475 28.2367 41.2098 28.036 41.0091 27.8011C40.8121 27.5625 40.6587 27.3371 40.5489 27.125H40.4636V31.7727H38.4068ZM40.4239 24.1364C40.4239 24.7008 40.5034 25.1951 40.6625 25.6193C40.8254 26.0436 41.0583 26.375 41.3614 26.6136C41.6682 26.8485 42.0394 26.9659 42.475 26.9659C42.9295 26.9659 43.3102 26.8447 43.617 26.6023C43.9239 26.3561 44.1549 26.0208 44.3102 25.5966C44.4693 25.1686 44.5489 24.6818 44.5489 24.1364C44.5489 23.5947 44.4712 23.1136 44.3159 22.6932C44.1606 22.2727 43.9295 21.9432 43.6227 21.7045C43.3159 21.4659 42.9333 21.3466 42.475 21.3466C42.0356 21.3466 41.6625 21.4621 41.3557 21.6932C41.0489 21.9242 40.8159 22.2481 40.6568 22.6648C40.5015 23.0814 40.4239 23.572 40.4239 24.1364ZM50.9436 16.8636V28.5H48.8868V16.8636H50.9436ZM57.3455 28.6705C56.4932 28.6705 55.7546 28.483 55.1296 28.108C54.5046 27.733 54.0198 27.2083 53.6751 26.5341C53.3341 25.8598 53.1637 25.072 53.1637 24.1705C53.1637 23.2689 53.3341 22.4792 53.6751 21.8011C54.0198 21.1231 54.5046 20.5966 55.1296 20.2216C55.7546 19.8466 56.4932 19.6591 57.3455 19.6591C58.1978 19.6591 58.9364 19.8466 59.5614 20.2216C60.1864 20.5966 60.6694 21.1231 61.0103 21.8011C61.355 22.4792 61.5273 23.2689 61.5273 24.1705C61.5273 25.072 61.355 25.8598 61.0103 26.5341C60.6694 27.2083 60.1864 27.733 59.5614 28.108C58.9364 28.483 58.1978 28.6705 57.3455 28.6705ZM57.3569 27.0227C57.819 27.0227 58.2054 26.8958 58.516 26.642C58.8266 26.3845 59.0576 26.0398 59.2091 25.608C59.3644 25.1761 59.4421 24.6951 59.4421 24.1648C59.4421 23.6307 59.3644 23.1477 59.2091 22.7159C59.0576 22.2803 58.8266 21.9337 58.516 21.6761C58.2054 21.4186 57.819 21.2898 57.3569 21.2898C56.8834 21.2898 56.4894 21.4186 56.1751 21.6761C55.8644 21.9337 55.6315 22.2803 55.4762 22.7159C55.3247 23.1477 55.2489 23.6307 55.2489 24.1648C55.2489 24.6951 55.3247 25.1761 55.4762 25.608C55.6315 26.0398 55.8644 26.3845 56.1751 26.642C56.4894 26.8958 56.8834 27.0227 57.3569 27.0227ZM64.7346 31.7727C64.4543 31.7727 64.1948 31.75 63.9562 31.7045C63.7213 31.6629 63.5338 31.6136 63.3937 31.5568L63.871 29.9545C64.1702 30.0417 64.4373 30.0833 64.6721 30.0795C64.907 30.0758 65.1134 30.0019 65.2914 29.858C65.4732 29.7178 65.6266 29.483 65.7516 29.1534L65.9278 28.6818L62.763 19.7727H64.9448L66.9562 26.3636H67.0471L69.0641 19.7727H71.2516L67.7573 29.5568C67.5945 30.0189 67.3785 30.4148 67.1096 30.7443C66.8407 31.0777 66.5111 31.3314 66.121 31.5057C65.7346 31.6837 65.2725 31.7727 64.7346 31.7727ZM77.6946 28.5V16.8636H79.8026V26.733H84.9276V28.5H77.6946ZM90.953 28.6705C90.1007 28.6705 89.3621 28.483 88.7371 28.108C88.1121 27.733 87.6272 27.2083 87.2826 26.5341C86.9416 25.8598 86.7712 25.072 86.7712 24.1705C86.7712 23.2689 86.9416 22.4792 87.2826 21.8011C87.6272 21.1231 88.1121 20.5966 88.7371 20.2216C89.3621 19.8466 90.1007 19.6591 90.953 19.6591C91.8053 19.6591 92.5439 19.8466 93.1689 20.2216C93.7939 20.5966 94.2769 21.1231 94.6178 21.8011C94.9625 22.4792 95.1348 23.2689 95.1348 24.1705C95.1348 25.072 94.9625 25.8598 94.6178 26.5341C94.2769 27.2083 93.7939 27.733 93.1689 28.108C92.5439 28.483 91.8053 28.6705 90.953 28.6705ZM90.9644 27.0227C91.4265 27.0227 91.8129 26.8958 92.1235 26.642C92.4341 26.3845 92.6651 26.0398 92.8166 25.608C92.9719 25.1761 93.0496 24.6951 93.0496 24.1648C93.0496 23.6307 92.9719 23.1477 92.8166 22.7159C92.6651 22.2803 92.4341 21.9337 92.1235 21.6761C91.8129 21.4186 91.4265 21.2898 90.9644 21.2898C90.4909 21.2898 90.0969 21.4186 89.7826 21.6761C89.4719 21.9337 89.239 22.2803 89.0837 22.7159C88.9322 23.1477 88.8564 23.6307 88.8564 24.1648C88.8564 24.6951 88.9322 25.1761 89.0837 25.608C89.239 26.0398 89.4719 26.3845 89.7826 26.642C90.0969 26.8958 90.4909 27.0227 90.9644 27.0227ZM101.167 28.6705C100.296 28.6705 99.5481 28.4792 98.9231 28.0966C98.3019 27.714 97.8227 27.1856 97.4856 26.5114C97.1522 25.8333 96.9856 25.053 96.9856 24.1705C96.9856 23.2841 97.156 22.5019 97.4969 21.8239C97.8378 21.142 98.3189 20.6117 98.9401 20.233C99.5651 19.8504 100.304 19.6591 101.156 19.6591C101.864 19.6591 102.491 19.7898 103.037 20.0511C103.586 20.3087 104.023 20.6742 104.349 21.1477C104.675 21.6174 104.861 22.1667 104.906 22.7955H102.94C102.861 22.375 102.671 22.0246 102.372 21.7443C102.076 21.4602 101.681 21.3182 101.184 21.3182C100.764 21.3182 100.395 21.4318 100.076 21.6591C99.7583 21.8826 99.5102 22.2045 99.3322 22.625C99.1579 23.0455 99.0708 23.5492 99.0708 24.1364C99.0708 24.7311 99.1579 25.2424 99.3322 25.6705C99.5064 26.0947 99.7507 26.4223 100.065 26.6534C100.383 26.8807 100.756 26.9943 101.184 26.9943C101.487 26.9943 101.758 26.9375 101.997 26.8239C102.239 26.7064 102.442 26.5379 102.605 26.3182C102.768 26.0985 102.88 25.8314 102.94 25.517H104.906C104.857 26.1345 104.675 26.6818 104.361 27.1591C104.046 27.6326 103.618 28.0038 103.076 28.2727C102.535 28.5379 101.898 28.6705 101.167 28.6705ZM109.586 28.6761C109.033 28.6761 108.535 28.5777 108.092 28.3807C107.653 28.1799 107.304 27.8845 107.047 27.4943C106.793 27.1042 106.666 26.6231 106.666 26.0511C106.666 25.5587 106.757 25.1515 106.939 24.8295C107.12 24.5076 107.369 24.25 107.683 24.0568C107.997 23.8636 108.351 23.7178 108.745 23.6193C109.143 23.517 109.554 23.4432 109.978 23.3977C110.49 23.3447 110.904 23.2973 111.223 23.2557C111.541 23.2102 111.772 23.142 111.916 23.0511C112.064 22.9564 112.137 22.8106 112.137 22.6136V22.5795C112.137 22.1515 112.011 21.8201 111.757 21.5852C111.503 21.3504 111.137 21.233 110.66 21.233C110.156 21.233 109.757 21.3428 109.461 21.5625C109.17 21.7822 108.973 22.0417 108.87 22.3409L106.95 22.0682C107.101 21.5379 107.351 21.0947 107.7 20.7386C108.048 20.3788 108.475 20.1098 108.978 19.9318C109.482 19.75 110.039 19.6591 110.649 19.6591C111.069 19.6591 111.488 19.7083 111.904 19.8068C112.321 19.9053 112.702 20.0682 113.047 20.2955C113.391 20.5189 113.668 20.8239 113.876 21.2102C114.088 21.5966 114.194 22.0795 114.194 22.6591V28.5H112.217V27.3011H112.149C112.024 27.5436 111.848 27.7708 111.62 27.983C111.397 28.1913 111.115 28.3598 110.774 28.4886C110.437 28.6136 110.041 28.6761 109.586 28.6761ZM110.12 27.1648C110.533 27.1648 110.891 27.0833 111.194 26.9205C111.497 26.7538 111.73 26.5341 111.893 26.2614C112.06 25.9886 112.143 25.6913 112.143 25.3693V24.3409C112.079 24.3939 111.969 24.4432 111.814 24.4886C111.662 24.5341 111.492 24.5739 111.302 24.608C111.113 24.642 110.925 24.6723 110.74 24.6989C110.554 24.7254 110.393 24.7481 110.257 24.767C109.95 24.8087 109.675 24.8769 109.433 24.9716C109.19 25.0663 108.999 25.1989 108.859 25.3693C108.719 25.536 108.649 25.7519 108.649 26.017C108.649 26.3958 108.787 26.6818 109.064 26.875C109.34 27.0682 109.692 27.1648 110.12 27.1648ZM118.799 16.8636V28.5H116.742V16.8636H118.799ZM123.451 16.8636V28.5H121.394V16.8636H123.451ZM127.325 31.7727C127.044 31.7727 126.785 31.75 126.546 31.7045C126.311 31.6629 126.124 31.6136 125.984 31.5568L126.461 29.9545C126.76 30.0417 127.027 30.0833 127.262 30.0795C127.497 30.0758 127.703 30.0019 127.881 29.858C128.063 29.7178 128.217 29.483 128.342 29.1534L128.518 28.6818L125.353 19.7727H127.535L129.546 26.3636H129.637L131.654 19.7727H133.842L130.347 29.5568C130.184 30.0189 129.969 30.4148 129.7 30.7443C129.431 31.0777 129.101 31.3314 128.711 31.5057C128.325 31.6837 127.862 31.7727 127.325 31.7727Z" fill="white"/>
</g>
<defs>
<filter id="filter0_d_34355_148898" x="0" y="0" width="150" height="53" filterUnits="userSpaceOnUse" color-interpolation-filters="sRGB">
<feFlood flood-opacity="0" result="BackgroundImageFix"/>
<feColorMatrix in="SourceAlpha" type="matrix" values="0 0 0 0 0 0 0 0 0 0 0 0 0 0 0 0 0 0 127 0" result="hardAlpha"/>
<feMorphology radius="5" operator="erode" in="SourceAlpha" result="effect1_dropShadow_34355_148898"/>
<feOffset dy="8"/>
<feGaussianBlur stdDeviation="2.5"/>
<feColorMatrix type="matrix" values="0 0 0 0 0 0 0 0 0 0 0 0 0 0 0 0 0 0 0.2 0"/>
<feBlend mode="normal" in2="BackgroundImageFix" result="effect1_dropShadow_34355_148898"/>
<feBlend mode="normal" in="SourceGraphic" in2="effect1_dropShadow_34355_148898" result="shape"/>
</filter>
</defs>
</svg>
