<svg width="150" height="45" viewBox="0 0 150 45" fill="none" xmlns="http://www.w3.org/2000/svg">
<rect width="150" height="45" rx="4" fill="#625EFF"/>
<path d="M26.4338 28H23.1376V17.8182H26.5382C27.5391 17.8182 28.3959 18.022 29.1085 18.4297C29.8244 18.834 30.373 19.4157 30.7541 20.1747C31.1386 20.9304 31.3308 21.8369 31.3308 22.8942C31.3308 23.9548 31.1386 24.8662 30.7541 25.6286C30.3696 26.3909 29.8112 26.9775 29.0787 27.3885C28.3495 27.7962 27.4679 28 26.4338 28ZM24.6739 26.6577H26.3493C27.5093 26.6577 28.3777 26.3329 28.9544 25.6832C29.5311 25.0303 29.8195 24.1006 29.8195 22.8942C29.8195 21.6944 29.5344 20.773 28.9643 20.13C28.3976 19.4837 27.5574 19.1605 26.4437 19.1605H24.6739V26.6577ZM36.833 28.1541C36.084 28.1541 35.4377 27.9917 34.8941 27.6669C34.3505 27.3421 33.9313 26.8864 33.6363 26.2997C33.3446 25.7098 33.1988 25.0204 33.1988 24.2315C33.1988 23.4493 33.3446 22.7599 33.6363 22.1634C33.9313 21.5668 34.3423 21.1011 34.8692 20.7663C35.3995 20.4316 36.0193 20.2642 36.7286 20.2642C37.3053 20.2642 37.8505 20.3935 38.3643 20.652C38.8813 20.9072 39.3006 21.3165 39.6221 21.88C39.9469 22.4401 40.1093 23.1809 40.1093 24.1023V24.6293H34.6803C34.7002 25.3651 34.9074 25.9318 35.3018 26.3295C35.6962 26.7273 36.2116 26.9261 36.8479 26.9261C37.2722 26.9261 37.6384 26.835 37.9467 26.6527C38.2549 26.4704 38.4753 26.1986 38.6079 25.8374L40.0148 26.0909C39.8458 26.7107 39.4812 27.2095 38.9211 27.5874C38.361 27.9652 37.6649 28.1541 36.833 28.1541ZM34.6853 23.5156H38.6526C38.6493 22.9323 38.4736 22.45 38.1256 22.0689C37.7776 21.6844 37.3153 21.4922 36.7386 21.4922C36.3375 21.4922 35.9862 21.5866 35.6846 21.7756C35.3863 21.9612 35.1493 22.2081 34.9736 22.5163C34.8013 22.8213 34.7052 23.1544 34.6853 23.5156ZM42.1786 30.8636V20.3636H43.6303V21.6016H43.7546C43.8441 21.4425 43.9684 21.2585 44.1275 21.0497C44.2899 20.8409 44.5153 20.6586 44.8036 20.5028C45.0953 20.3438 45.4764 20.2642 45.9471 20.2642C46.5636 20.2642 47.1121 20.42 47.5927 20.7315C48.0766 21.0431 48.4577 21.4922 48.7362 22.0788C49.0146 22.6655 49.1538 23.3714 49.1538 24.1967C49.1538 25.0187 49.0162 25.7263 48.7411 26.3196C48.466 26.9096 48.0882 27.362 47.6076 27.6768C47.127 27.9917 46.5785 28.1491 45.962 28.1491C45.498 28.1491 45.1202 28.0713 44.8285 27.9155C44.5368 27.7597 44.3065 27.5774 44.1374 27.3686C43.9717 27.1598 43.8441 26.9742 43.7546 26.8118H43.6651V30.8636H42.1786ZM43.6353 24.1818C43.6353 24.9839 43.8077 25.6352 44.1523 26.1357C44.497 26.6328 44.9892 26.8814 45.6289 26.8814C46.073 26.8814 46.4443 26.7637 46.7425 26.5284C47.0442 26.2898 47.2712 25.9666 47.4237 25.5589C47.5761 25.1513 47.6523 24.6922 47.6523 24.1818C47.6523 23.6747 47.5761 23.2223 47.4237 22.8246C47.2745 22.4235 47.0508 22.107 46.7525 21.875C46.4542 21.643 46.0797 21.527 45.6289 21.527C44.9793 21.527 44.4838 21.7706 44.1424 22.2578C43.8043 22.7417 43.6353 23.383 43.6353 24.1818ZM52.7258 17.8182V28H51.2392V17.8182H52.7258ZM58.3622 28.1541C57.6463 28.1541 57.0215 27.9901 56.4879 27.6619C55.9543 27.3338 55.54 26.8748 55.245 26.2848C54.95 25.6915 54.8025 25.0021 54.8025 24.2166C54.8025 23.4245 54.95 22.7318 55.245 22.1385C55.54 21.5452 55.9543 21.0845 56.4879 20.7564C57.0215 20.4283 57.6463 20.2642 58.3622 20.2642C59.0814 20.2642 59.7062 20.4283 60.2365 20.7564C60.7701 21.0845 61.1844 21.5452 61.4794 22.1385C61.7744 22.7318 61.9219 23.4245 61.9219 24.2166C61.9219 25.0021 61.7744 25.6915 61.4794 26.2848C61.1844 26.8748 60.7701 27.3338 60.2365 27.6619C59.7062 27.9901 59.0814 28.1541 58.3622 28.1541ZM58.3672 26.9062C58.8345 26.9062 59.219 26.7836 59.5206 26.5384C59.8255 26.2931 60.0509 25.9666 60.1967 25.5589C60.3459 25.148 60.4204 24.6989 60.4204 24.2116C60.4204 23.7244 60.3459 23.2753 60.1967 22.8643C60.0509 22.4534 59.8255 22.1252 59.5206 21.88C59.219 21.6314 58.8345 21.5071 58.3672 21.5071C57.8998 21.5071 57.5137 21.6314 57.2088 21.88C56.9039 22.1252 56.6768 22.4534 56.5277 22.8643C56.3785 23.2753 56.304 23.7244 56.304 24.2116C56.304 24.6989 56.3785 25.148 56.5277 25.5589C56.6768 25.9666 56.9039 26.2931 57.2088 26.5384C57.5137 26.7836 57.8998 26.9062 58.3672 26.9062ZM64.6673 30.8438C64.4453 30.8438 64.2431 30.8272 64.0608 30.794C63.8785 30.7609 63.7426 30.7228 63.6531 30.6797L64.0111 29.4616C64.4187 29.5743 64.7601 29.5826 65.0352 29.4865C65.3136 29.3937 65.5473 29.1004 65.7362 28.6065L65.9202 28.0994L63.1261 20.3636H64.717L66.651 26.2898H66.7305L68.6645 20.3636L70.2703 20.3786L67.1133 29.0192C66.8946 29.6091 66.5847 30.0599 66.1837 30.3714C65.7859 30.6863 65.2805 30.8438 64.6673 30.8438ZM79.4327 28.1541C78.7168 28.1541 78.0921 27.9901 77.5585 27.6619C77.0248 27.3338 76.6105 26.8748 76.3156 26.2848C76.0206 25.6915 75.8731 25.0021 75.8731 24.2166C75.8731 23.4245 76.0206 22.7318 76.3156 22.1385C76.6105 21.5452 77.0248 21.0845 77.5585 20.7564C78.0921 20.4283 78.7168 20.2642 79.4327 20.2642C80.152 20.2642 80.7767 20.4283 81.307 20.7564C81.8407 21.0845 82.255 21.5452 82.5499 22.1385C82.8449 22.7318 82.9924 23.4245 82.9924 24.2166C82.9924 25.0021 82.8449 25.6915 82.5499 26.2848C82.255 26.8748 81.8407 27.3338 81.307 27.6619C80.7767 27.9901 80.152 28.1541 79.4327 28.1541ZM79.4377 26.9062C79.905 26.9062 80.2895 26.7836 80.5911 26.5384C80.896 26.2931 81.1214 25.9666 81.2673 25.5589C81.4164 25.148 81.491 24.6989 81.491 24.2116C81.491 23.7244 81.4164 23.2753 81.2673 22.8643C81.1214 22.4534 80.896 22.1252 80.5911 21.88C80.2895 21.6314 79.905 21.5071 79.4377 21.5071C78.9704 21.5071 78.5843 21.6314 78.2793 21.88C77.9744 22.1252 77.7474 22.4534 77.5982 22.8643C77.4491 23.2753 77.3745 23.7244 77.3745 24.2116C77.3745 24.6989 77.4491 25.148 77.5982 25.5589C77.7474 25.9666 77.9744 26.2931 78.2793 26.5384C78.5843 26.7836 78.9704 26.9062 79.4377 26.9062ZM86.5582 23.4659V28H85.0717V20.3636H86.4985V21.6065H86.593C86.7686 21.2022 87.0437 20.8774 87.4183 20.6321C87.7961 20.3868 88.2717 20.2642 88.8451 20.2642C89.6273 20.2642 90.2554 20.5078 90.7293 20.995C91.2066 21.4822 91.4453 22.1982 91.4453 23.1428V28H89.9588V23.3217C89.9588 22.7682 89.8146 22.3357 89.5262 22.0241C89.2379 21.7093 88.8418 21.5518 88.338 21.5518C87.821 21.5518 87.3951 21.7192 87.0603 22.054C86.7256 22.3854 86.5582 22.8561 86.5582 23.4659ZM104.994 21.0348C104.802 20.4316 104.48 19.956 104.029 19.608C103.582 19.2566 103.02 19.081 102.344 19.081C101.771 19.081 101.254 19.2285 100.793 19.5234C100.332 19.8184 99.9676 20.2509 99.6991 20.821C99.434 21.3878 99.3014 22.0821 99.3014 22.9041C99.3014 23.7294 99.4356 24.4271 99.7041 24.9972C99.9726 25.5672 100.34 25.9998 100.808 26.2947C101.275 26.5897 101.807 26.7372 102.404 26.7372C103.219 26.7372 103.877 26.4969 104.377 26.0163C104.878 25.5324 105.136 24.8795 105.153 24.0575H102.637V22.7898H106.639V23.9482C106.639 24.8033 106.457 25.5457 106.093 26.1754C105.731 26.8018 105.233 27.2857 104.596 27.6271C103.96 27.9685 103.229 28.1392 102.404 28.1392C101.486 28.1392 100.679 27.9287 99.9825 27.5078C99.2865 27.0836 98.7446 26.4804 98.3568 25.6982C97.969 24.916 97.7751 23.9879 97.7751 22.9141C97.7751 21.8303 97.9723 20.8973 98.3668 20.1151C98.7612 19.3329 99.3014 18.7313 99.9875 18.3104C100.674 17.8894 101.456 17.679 102.334 17.679C103.067 17.679 103.731 17.8215 104.328 18.1065C104.924 18.3883 105.418 18.781 105.809 19.2848C106.204 19.7886 106.457 20.3719 106.57 21.0348H104.994ZM117.466 21.1293H115.915C115.789 20.4697 115.479 19.9643 114.985 19.6129C114.495 19.2583 113.925 19.081 113.275 19.081C112.692 19.081 112.168 19.2285 111.704 19.5234C111.24 19.8184 110.874 20.2509 110.605 20.821C110.34 21.3878 110.208 22.0838 110.208 22.9091C110.208 23.7377 110.342 24.437 110.61 25.0071C110.879 25.5772 111.243 26.008 111.704 26.2997C112.168 26.5914 112.69 26.7372 113.27 26.7372C113.913 26.7372 114.482 26.5632 114.975 26.2152C115.469 25.8672 115.783 25.3684 115.915 24.7188L117.466 24.7237C117.357 25.3932 117.112 25.9848 116.73 26.4986C116.349 27.0123 115.862 27.415 115.269 27.7067C114.676 27.995 114.006 28.1392 113.26 28.1392C112.379 28.1392 111.593 27.9304 110.904 27.5128C110.214 27.0919 109.671 26.4903 109.273 25.7081C108.879 24.9259 108.681 23.9929 108.681 22.9091C108.681 21.822 108.88 20.889 109.278 20.1101C109.676 19.3279 110.219 18.728 110.909 18.3104C111.598 17.8894 112.382 17.679 113.26 17.679C113.98 17.679 114.634 17.8149 115.224 18.0866C115.817 18.3584 116.31 18.7528 116.701 19.2699C117.095 19.7836 117.35 20.4034 117.466 21.1293ZM119.725 28V17.8182H123.354C124.143 17.8182 124.797 17.9624 125.318 18.2507C125.841 18.5391 126.232 18.9318 126.491 19.429C126.749 19.9261 126.879 20.4879 126.879 21.1143C126.879 21.7408 126.748 22.3042 126.486 22.8047C126.227 23.3018 125.836 23.6963 125.313 23.9879C124.792 24.2763 124.138 24.4205 123.349 24.4205H121.261V28H119.725ZM121.261 23.1179H123.21C123.962 23.1179 124.504 22.929 124.835 22.5511C125.167 22.17 125.332 21.6911 125.332 21.1143C125.332 20.5376 125.165 20.0637 124.83 19.6925C124.499 19.3213 123.952 19.1357 123.19 19.1357H121.261V23.1179Z" fill="white"/>
</svg>
