<svg width="150" height="53" viewBox="0 0 150 53" fill="none" xmlns="http://www.w3.org/2000/svg">
<g filter="url(#filter0_d_34355_148896)">
<path d="M0 9.6C0 6.23968 0 4.55953 0.653961 3.27606C1.2292 2.14708 2.14708 1.2292 3.27606 0.653961C4.55953 0 6.23969 0 9.6 0H140.4C143.76 0 145.44 0 146.724 0.653961C147.853 1.2292 148.771 2.14708 149.346 3.27606C150 4.55953 150 6.23969 150 9.6V35.4C150 38.7603 150 40.4405 149.346 41.7239C148.771 42.8529 147.853 43.7708 146.724 44.346C145.44 45 143.76 45 140.4 45H9.6C6.23969 45 4.55953 45 3.27606 44.346C2.14708 43.7708 1.2292 42.8529 0.653961 41.7239C0 40.4405 0 38.7603 0 35.4V9.6Z" fill="#615EFF"/>
<path d="M17.8537 28.5H13.9105V16.8636H17.9333C19.0886 16.8636 20.081 17.0966 20.9105 17.5625C21.7439 18.0246 22.384 18.6894 22.831 19.5568C23.278 20.4242 23.5015 21.4621 23.5015 22.6705C23.5015 23.8826 23.2761 24.9242 22.8253 25.7955C22.3783 26.6667 21.7325 27.3352 20.8878 27.8011C20.0469 28.267 19.0355 28.5 17.8537 28.5ZM16.0185 26.6761H17.7515C18.5621 26.6761 19.2382 26.5284 19.7799 26.233C20.3215 25.9337 20.7287 25.4886 21.0015 24.8977C21.2742 24.303 21.4105 23.5606 21.4105 22.6705C21.4105 21.7803 21.2742 21.0417 21.0015 20.4545C20.7287 19.8636 20.3253 19.4223 19.7912 19.1307C19.2609 18.8352 18.6018 18.6875 17.814 18.6875H16.0185V26.6761ZM29.757 28.6705C28.882 28.6705 28.1263 28.4886 27.49 28.125C26.8574 27.7576 26.3707 27.2386 26.0297 26.5682C25.6888 25.8939 25.5184 25.1004 25.5184 24.1875C25.5184 23.2898 25.6888 22.5019 26.0297 21.8239C26.3744 21.142 26.8555 20.6117 27.4729 20.233C28.0904 19.8504 28.8157 19.6591 29.6491 19.6591C30.1869 19.6591 30.6945 19.7462 31.1718 19.9205C31.6529 20.0909 32.0771 20.3561 32.4445 20.7159C32.8157 21.0758 33.1074 21.5341 33.3195 22.0909C33.5316 22.6439 33.6377 23.303 33.6377 24.0682V24.6989H26.4843V23.3125H31.6661C31.6623 22.9186 31.5771 22.5682 31.4104 22.2614C31.2438 21.9508 31.0108 21.7064 30.7116 21.5284C30.4161 21.3504 30.0714 21.2614 29.6775 21.2614C29.257 21.2614 28.8877 21.3636 28.5695 21.5682C28.2513 21.7689 28.0032 22.0341 27.8252 22.3636C27.651 22.6894 27.5619 23.0473 27.5582 23.4375V24.6477C27.5582 25.1553 27.651 25.5909 27.8366 25.9545C28.0222 26.3144 28.2816 26.5909 28.615 26.7841C28.9483 26.9735 29.3385 27.0682 29.7854 27.0682C30.0847 27.0682 30.3555 27.0265 30.5979 26.9432C30.8404 26.8561 31.0506 26.7292 31.2286 26.5625C31.4066 26.3958 31.5411 26.1894 31.632 25.9432L33.5525 26.1591C33.4313 26.6667 33.2002 27.1098 32.8593 27.4886C32.5222 27.8636 32.0904 28.1553 31.5638 28.3636C31.0373 28.5682 30.435 28.6705 29.757 28.6705ZM35.8578 31.7727V19.7727H37.8805V21.2159H37.9998C38.1059 21.0038 38.2555 20.7784 38.4487 20.5398C38.6418 20.2973 38.9032 20.0909 39.2328 19.9205C39.5623 19.7462 39.9828 19.6591 40.4941 19.6591C41.1684 19.6591 41.7763 19.8314 42.318 20.1761C42.8634 20.517 43.2953 21.0227 43.6134 21.6932C43.9354 22.3598 44.0964 23.178 44.0964 24.1477C44.0964 25.1061 43.9392 25.9205 43.6248 26.5909C43.3104 27.2614 42.8824 27.7727 42.3407 28.125C41.799 28.4773 41.1854 28.6534 40.4998 28.6534C39.9998 28.6534 39.585 28.5701 39.2555 28.4034C38.9259 28.2367 38.6608 28.036 38.46 27.8011C38.2631 27.5625 38.1096 27.3371 37.9998 27.125H37.9146V31.7727H35.8578ZM37.8748 24.1364C37.8748 24.7008 37.9543 25.1951 38.1134 25.6193C38.2763 26.0436 38.5093 26.375 38.8123 26.6136C39.1191 26.8485 39.4903 26.9659 39.9259 26.9659C40.3805 26.9659 40.7612 26.8447 41.068 26.6023C41.3748 26.3561 41.6059 26.0208 41.7612 25.5966C41.9203 25.1686 41.9998 24.6818 41.9998 24.1364C41.9998 23.5947 41.9222 23.1136 41.7668 22.6932C41.6115 22.2727 41.3805 21.9432 41.0737 21.7045C40.7668 21.4659 40.3843 21.3466 39.9259 21.3466C39.4865 21.3466 39.1134 21.4621 38.8066 21.6932C38.4998 21.9242 38.2668 22.2481 38.1078 22.6648C37.9525 23.0814 37.8748 23.572 37.8748 24.1364ZM48.3946 16.8636V28.5H46.3378V16.8636H48.3946ZM54.7964 28.6705C53.9442 28.6705 53.2055 28.483 52.5805 28.108C51.9555 27.733 51.4707 27.2083 51.126 26.5341C50.7851 25.8598 50.6146 25.072 50.6146 24.1705C50.6146 23.2689 50.7851 22.4792 51.126 21.8011C51.4707 21.1231 51.9555 20.5966 52.5805 20.2216C53.2055 19.8466 53.9442 19.6591 54.7964 19.6591C55.6487 19.6591 56.3874 19.8466 57.0124 20.2216C57.6374 20.5966 58.1203 21.1231 58.4612 21.8011C58.8059 22.4792 58.9783 23.2689 58.9783 24.1705C58.9783 25.072 58.8059 25.8598 58.4612 26.5341C58.1203 27.2083 57.6374 27.733 57.0124 28.108C56.3874 28.483 55.6487 28.6705 54.7964 28.6705ZM54.8078 27.0227C55.2699 27.0227 55.6563 26.8958 55.9669 26.642C56.2775 26.3845 56.5086 26.0398 56.6601 25.608C56.8154 25.1761 56.893 24.6951 56.893 24.1648C56.893 23.6307 56.8154 23.1477 56.6601 22.7159C56.5086 22.2803 56.2775 21.9337 55.9669 21.6761C55.6563 21.4186 55.2699 21.2898 54.8078 21.2898C54.3343 21.2898 53.9404 21.4186 53.626 21.6761C53.3154 21.9337 53.0824 22.2803 52.9271 22.7159C52.7756 23.1477 52.6999 23.6307 52.6999 24.1648C52.6999 24.6951 52.7756 25.1761 52.9271 25.608C53.0824 26.0398 53.3154 26.3845 53.626 26.642C53.9404 26.8958 54.3343 27.0227 54.8078 27.0227ZM62.1855 31.7727C61.9052 31.7727 61.6458 31.75 61.4071 31.7045C61.1723 31.6629 60.9848 31.6136 60.8446 31.5568L61.3219 29.9545C61.6211 30.0417 61.8882 30.0833 62.123 30.0795C62.3579 30.0758 62.5643 30.0019 62.7424 29.858C62.9242 29.7178 63.0776 29.483 63.2026 29.1534L63.3787 28.6818L60.214 19.7727H62.3958L64.4071 26.3636H64.498L66.5151 19.7727H68.7026L65.2083 29.5568C65.0454 30.0189 64.8295 30.4148 64.5605 30.7443C64.2916 31.0777 63.9621 31.3314 63.5719 31.5057C63.1855 31.6837 62.7234 31.7727 62.1855 31.7727ZM78.8615 28.6705C78.0092 28.6705 77.2705 28.483 76.6455 28.108C76.0205 27.733 75.5357 27.2083 75.191 26.5341C74.8501 25.8598 74.6796 25.072 74.6796 24.1705C74.6796 23.2689 74.8501 22.4792 75.191 21.8011C75.5357 21.1231 76.0205 20.5966 76.6455 20.2216C77.2705 19.8466 78.0092 19.6591 78.8615 19.6591C79.7137 19.6591 80.4524 19.8466 81.0774 20.2216C81.7024 20.5966 82.1853 21.1231 82.5262 21.8011C82.8709 22.4792 83.0433 23.2689 83.0433 24.1705C83.0433 25.072 82.8709 25.8598 82.5262 26.5341C82.1853 27.2083 81.7024 27.733 81.0774 28.108C80.4524 28.483 79.7137 28.6705 78.8615 28.6705ZM78.8728 27.0227C79.3349 27.0227 79.7213 26.8958 80.0319 26.642C80.3425 26.3845 80.5736 26.0398 80.7251 25.608C80.8804 25.1761 80.958 24.6951 80.958 24.1648C80.958 23.6307 80.8804 23.1477 80.7251 22.7159C80.5736 22.2803 80.3425 21.9337 80.0319 21.6761C79.7213 21.4186 79.3349 21.2898 78.8728 21.2898C78.3993 21.2898 78.0054 21.4186 77.691 21.6761C77.3804 21.9337 77.1474 22.2803 76.9921 22.7159C76.8406 23.1477 76.7649 23.6307 76.7649 24.1648C76.7649 24.6951 76.8406 25.1761 76.9921 25.608C77.1474 26.0398 77.3804 26.3845 77.691 26.642C78.0054 26.8958 78.3993 27.0227 78.8728 27.0227ZM87.3258 23.3864V28.5H85.269V19.7727H87.2349V21.2557H87.3372C87.5379 20.767 87.858 20.3788 88.2974 20.0909C88.7406 19.803 89.2879 19.6591 89.9395 19.6591C90.5417 19.6591 91.0664 19.7879 91.5133 20.0455C91.9641 20.303 92.3126 20.6761 92.5588 21.1648C92.8088 21.6534 92.9319 22.2462 92.9281 22.9432V28.5H90.8713V23.2614C90.8713 22.678 90.7198 22.2216 90.4167 21.892C90.1175 21.5625 89.7027 21.3977 89.1724 21.3977C88.8126 21.3977 88.4925 21.4773 88.2122 21.6364C87.9357 21.7917 87.7179 22.017 87.5588 22.3125C87.4035 22.608 87.3258 22.9659 87.3258 23.3864ZM101.533 28.5H99.283L103.38 16.8636H105.982L110.084 28.5H107.834L104.726 19.25H104.635L101.533 28.5ZM101.607 23.9375H107.743V25.6307H101.607V23.9375ZM113.452 28.5L110.168 16.8636H112.435L114.531 25.4148H114.639L116.878 16.8636H118.941L121.185 25.4205H121.287L123.384 16.8636H125.651L122.367 28.5H120.287L117.958 20.3352H117.867L115.531 28.5H113.452ZM133.838 20.0625C133.785 19.5663 133.562 19.1799 133.168 18.9034C132.778 18.6269 132.27 18.4886 131.645 18.4886C131.206 18.4886 130.829 18.5549 130.514 18.6875C130.2 18.8201 129.959 19 129.793 19.2273C129.626 19.4545 129.541 19.714 129.537 20.0057C129.537 20.2481 129.592 20.4583 129.702 20.6364C129.815 20.8144 129.969 20.9659 130.162 21.0909C130.355 21.2121 130.569 21.3144 130.804 21.3977C131.039 21.4811 131.276 21.5511 131.514 21.608L132.605 21.8807C133.045 21.983 133.467 22.1212 133.872 22.2955C134.281 22.4697 134.647 22.6894 134.969 22.9545C135.295 23.2197 135.552 23.5398 135.742 23.9148C135.931 24.2898 136.026 24.7292 136.026 25.233C136.026 25.9148 135.851 26.5152 135.503 27.0341C135.154 27.5492 134.651 27.9527 133.992 28.2443C133.336 28.5322 132.543 28.6761 131.611 28.6761C130.706 28.6761 129.92 28.536 129.253 28.2557C128.59 27.9754 128.071 27.5663 127.696 27.0284C127.325 26.4905 127.124 25.8352 127.094 25.0625H129.168C129.198 25.4678 129.323 25.8049 129.543 26.0739C129.762 26.3428 130.048 26.5436 130.401 26.6761C130.757 26.8087 131.154 26.875 131.594 26.875C132.052 26.875 132.454 26.8068 132.798 26.6705C133.147 26.5303 133.42 26.3371 133.617 26.0909C133.814 25.8409 133.914 25.5492 133.918 25.2159C133.914 24.9129 133.825 24.6629 133.651 24.4659C133.476 24.2652 133.232 24.0985 132.918 23.9659C132.607 23.8295 132.243 23.7083 131.827 23.6023L130.503 23.2614C129.545 23.0152 128.787 22.642 128.23 22.142C127.677 21.6383 127.401 20.9697 127.401 20.1364C127.401 19.4508 127.586 18.8504 127.957 18.3352C128.332 17.8201 128.842 17.4205 129.486 17.1364C130.13 16.8485 130.859 16.7045 131.673 16.7045C132.499 16.7045 133.223 16.8485 133.844 17.1364C134.469 17.4205 134.959 17.8163 135.315 18.3239C135.671 18.8277 135.855 19.4072 135.867 20.0625H133.838Z" fill="white"/>
</g>
<defs>
<filter id="filter0_d_34355_148896" x="0" y="0" width="150" height="53" filterUnits="userSpaceOnUse" color-interpolation-filters="sRGB">
<feFlood flood-opacity="0" result="BackgroundImageFix"/>
<feColorMatrix in="SourceAlpha" type="matrix" values="0 0 0 0 0 0 0 0 0 0 0 0 0 0 0 0 0 0 127 0" result="hardAlpha"/>
<feMorphology radius="5" operator="erode" in="SourceAlpha" result="effect1_dropShadow_34355_148896"/>
<feOffset dy="8"/>
<feGaussianBlur stdDeviation="2.5"/>
<feColorMatrix type="matrix" values="0 0 0 0 0 0 0 0 0 0 0 0 0 0 0 0 0 0 0.2 0"/>
<feBlend mode="normal" in2="BackgroundImageFix" result="effect1_dropShadow_34355_148896"/>
<feBlend mode="normal" in="SourceGraphic" in2="effect1_dropShadow_34355_148896" result="shape"/>
</filter>
</defs>
</svg>
