<svg xmlns="http://www.w3.org/2000/svg" width="400" height="400"><g fill-rule="evenodd"><path fill="#54b3db" d="M108.144 39.857c.031.361-.169.736-.444.833-.275.097-.5-.029-.5-.28 0-.252.208-.329.462-.172.296.183.353.109.158-.206-.227-.366-.524-.288-1.162.307-.762.71-1.51.813-6.697.92-5.533.114-7.654.595-6.761 1.531.11.116-.88.301-2.2.412-1.32.11-2.653.363-2.962.561-.387.249-.473.217-.276-.101.538-.871-.247-.462-1.033.538-.566.719-1.172 1-2.158 1-.827 0-1.373.198-1.377.5-.004.332-.134.298-.386-.1-.331-.524-.47-.509-1.094.114-.623.624-.638.763-.114 1.094.453.287.293.381-.654.386-.892.004-1.443.295-1.909 1.006-.517.789-.991 1-2.246 1-1.43 0-1.591.101-1.591 1 0 .796-.201 1-.986 1-.558 0-1.162.329-1.391.758-.431.805-2.677 1.779-3.264 1.416-.193-.118-.252.041-.131.354.218.568-.778 1.872-1.43 1.872-.189 0-.455.351-.592.78-.136.428-.589.887-1.006 1.02-.417.133-.867.583-1 1-.133.417-.583.867-1 1-.417.133-.864.572-.993.977-.128.405-.601.833-1.05.95-.449.118-.91.57-1.024 1.006-.114.436-.564.886-1 1-.436.114-.886.564-1 1-.114.436-.564.886-1 1-.436.114-.886.564-1 1-.114.436-.548.882-.965.991-.417.109-.94.677-1.162 1.261-.223.585-.54.981-.705.881-.166-.1-.533.069-.817.376-.283.307-.396.558-.251.558.146 0 .043.268-.229.596-.272.327-.659.494-.859.37-.201-.124-.315.013-.255.304.061.292-.078.497-.307.458-.229-.04-.446.32-.481.8-.035.479-.507 1.255-1.048 1.723-.542.469-1.046 1.279-1.12 1.8-.1.706-.352.919-.983.833-.759-.105-.853.086-.887 1.795-.021 1.052-.228 1.976-.458 2.052-.925.309-1.606 1.39-1.606 2.552 0 .793-.353 1.552-1 2.152-.819.759-1 1.302-1 3s-.181 2.241-1 3c-.927.86-1 1.197-1.006 4.646-.004 2.502-.13 3.523-.386 3.119-.331-.524-.47-.509-1.094.114-.623.624-.638.763-.114 1.094.389.246.426.382.106.386-.892.011-.508 26.862.398 27.767.387.387.609.857.493 1.044-.115.187-.027.453.196.591.224.138.407 1.191.407 2.34 0 1.946.081 2.119 1.182 2.535.719.271 1.262.814 1.388 1.387 1.733 7.934 4.356 17.315 6.739 24.105 1.166 3.321 1.33 4.186 1.012 5.338-.659 2.386-.264 5.436.761 5.886.714.313.905.771 1 2.4.102 1.74.24 2.03 1.018 2.141.772.11.9.369.9 1.83 0 1.299.237 1.925 1 2.642.678.637 1 1.368 1 2.27 0 .731.191 1.33.424 1.33.233 0 .294.225.135.5-.158.275-.14.367.04.203.556-.503 1.401.535 1.401 1.722 0 .62.183 1.241.407 1.379.223.138.284.464.135.724-.148.259-.123.339.057.175.593-.536 1.401.57 1.401 1.918 0 1.068.174 1.348.9 1.451.744.106.935.44 1.1 1.928.165 1.488.356 1.822 1.1 1.928.7.099.9.389.9 1.3 0 2.468 3.409.862 5.286-2.491a87.512 87.512 0 0 1 2.225-3.737c.565-.88 1.416-2.23 1.891-3 1.129-1.829 9.011-13.565 11.035-16.428 2.637-3.733 3.776-9.172 1.92-9.172-.684 0-1.092-1.876-.804-3.7.026-.165-.088-.279-.253-.253-1.443.228-1.7-.081-1.7-2.047 0-1.141-.182-2-.424-2-.233 0-.294-.225-.135-.5.158-.275.14-.367-.04-.203-.617.558-1.401-.594-1.401-2.059 0-1.31-.115-1.472-1.1-1.546-1.969-.147-2.955-1.849-5.385-9.292-2.885-8.838-3.649-11.559-4.735-16.877l-.874-4.276 1.064-1.905c1.193-2.135 1.361-5.608.331-6.86-.308-.375-.448-.459-.31-.187.162.32.041.415-.34.269-.491-.188-.598-1.571-.635-8.237-.044-8.033.159-9.342 1.373-8.876.292.112.521-.033.508-.324-.112-2.557.165-7.941.403-7.814.288.154 1.7-1.102 1.7-1.513v-2.2c0-1.867.067-2 1-2 .989 0 1.291-.83 1.012-2.778-.07-.488.019-.495.562-.043.355.294.757.424.893.288s.006-.538-.288-.893c-.452-.543-.445-.632.043-.562 1.782.255 3.578-.052 3.578-.612 0-.33.255-.6.567-.6.311 0 .626-.166.7-.368.073-.203 1.114-.419 2.314-.481 2.048-.106 3.716-.932 3.332-1.651-.088-.165 6.375-.301 14.363-.301 17.738-.002 15.875.672 19.845-7.182 3.107-6.146 5.854-11.16 7.678-14.017 3.275-5.128 4.002-6.694 3.743-8.061-.436-2.293-.562-2.339-6.465-2.339-4.999 0-5.497-.068-6.34-.859l-.914-.859.168.87c.093.483-.001.765-.212.635-.208-.129-.379-.584-.379-1.011 0-.966-.743-1.006-1.427-.076-.441.598-.55.613-.748.1-.251-.647-7.465-.534-8.525.133-.321.201-.5.091-.5-.309 0-.343-.16-.624-.356-.624-.195 0-.33.296-.3.657m-29.744 7.7c0 .27-.208.362-.462.205-.273-.169-.354-.111-.197.142.145.235.038.519-.239.63-.313.126-.332.215-.051.234.583.041 1.542-1.108 1.206-1.444-.141-.142-.257-.037-.257.233m90.4 4.043c0 .22-.362.4-.805.4-2.724 0-5.229 3.001-10.685 12.8-7.036 12.637-8.617 17.524-5.8 17.928.489.07.912.295.94.5.028.205.073.597.1.872.029.291.756.551 1.739.622 1.166.085 1.908.398 2.4 1.014.506.634 1.229.926 2.511 1.015 1.702.118 2.573.645 2.162 1.31-.312.506 2.579.853 5.293.635 2.689-.215 5.458.52 7.722 2.051.563.381 1.473.907 2.023 1.17 2.997 1.433 5.045 2.795 5.395 3.588.217.492.585.895.817.895.967 0 17.517 10.521 23.583 14.993.663.488 3.005 2.207 5.205 3.819 13.783 10.1 18.341 14.738 16.118 16.402-.158.117.086.446.54.729.657.411.762.412.512.008-.173-.28.26-.099.962.401.703.5 1.157 1.103 1.011 1.34-.158.257-.079.316.195.146.254-.157.462-.095.462.138s.437.424.972.424c.704 0 1.008.249 1.1.9.082.578.45.946 1.028 1.028.651.092.9.396.9 1.1 0 .763.209.972.972.972.704 0 1.008.249 1.1.9.082.578.45.946 1.028 1.028.651.092.9.396.9 1.1 0 .535.135.951.3.925 1.048-.166 1.661.162 1.772.947.082.578.45.946 1.028 1.028.495.07.9.308.9.528 0 .532 1.031 1.544 1.571 1.544.393 0 .595.551.476 1.3-.026.165.21.3.524.3.775 0 1.918 1.192 1.696 1.77-.099.256.19.494.641.528.929.07 1.573.859 1.302 1.597-.1.273-.053.476.104.453 1.072-.16 1.686.148 1.686.844 0 .512.354.882 1 1.044.621.156 1 .534 1 1 0 .46.376.843.977.994.595.149 1.025.583 1.1 1.108.077.541.458.91 1.023.99.785.111 1.113.724.947 1.772-.026.165.088.279.253.253 1.048-.166 1.661.162 1.772.947.082.578.45.946 1.028 1.028.651.092.9.396.9 1.1 0 .763.209.972.972.972.704 0 1.008.249 1.1.9.082.578.45.946 1.028 1.028.564.08.9.405.9.869 0 .764 2.366 3.45 2.9 3.292.165-.049.3.091.3.311s-.3.4-.667.4c-.832 0-.583.278.415.462 1.597.295 2.31-5.822 1.475-12.662-3.105-25.447-7.593-45.511-10.486-46.881-.37-.176-3.062-2.389-5.983-4.919-9.972-8.639-9.715-8.377-10.174-10.374-.32-1.394-.622-1.855-1.275-1.951-.525-.076-.904-.463-.98-1-.079-.554-.455-.922-1.025-1.003-.794-.113-1.122-.742-.937-1.802.031-.181-.124-.218-.345-.081-.221.136-.81.021-1.31-.256-.902-.502-1.142-.587-1.908-.683-.22-.027-.4-.343-.4-.702 0-.538-.321-.616-1.828-.446-3.072.346-4.494-.314-11.162-5.186a30.35 30.35 0 0 0-2.71-1.708c-.825-.453-1.5-1.001-1.5-1.216 0-.216-.245-.392-.545-.392-.3 0-1.191-.495-1.98-1.1a38.712 38.712 0 0 0-3.116-2.1 91.791 91.791 0 0 1-3.32-2.093c-.901-.601-1.842-1.096-2.09-1.1-.248-.004-.677-.279-.953-.612-.276-.332-1.243-.94-2.149-1.349-2.846-1.288-4.699-3.942-4.637-6.646.006-.22-.85-.49-1.9-.6-1.588-.166-1.931-.348-2.035-1.079-.106-.742-.419-.898-2-1-1.601-.103-1.871-.242-1.851-.95.021-.707-.242-.843-1.774-.922-2.162-.112-2.575-.327-2.343-1.216.139-.531-.13-.698-1.245-.773-1.585-.107-2.588-.732-2.196-1.367.15-.242.064-.297-.204-.131-.254.157-.462.095-.462-.138s-.599-.424-1.33-.424c-.902 0-1.633-.322-2.27-1-.721-.768-1.341-1-2.67-1-1.667 0-1.907-.212-1.811-1.6.008-.11-.821-.255-1.843-.322-1.021-.067-1.974-.313-2.118-.545-.17-.276-.337-.233-.479.122-.289.722-1.16-.412-.887-1.155.1-.275.009-.5-.205-.5a.395.395 0 0 0-.387.4m134.08 105.9c-.828 1.826-.871 6.856-.129 15.1.647 7.203.683 7.369 1.547 7.142 2.751-.721 8.027-16.337 5.521-16.341-.503-.001-.865-.357-1.016-1.001-.149-.631-.562-1.047-1.119-1.128-.634-.092-.884-.402-.884-1.1 0-.77-.208-.972-1-.972-.8 0-1-.2-1-1 0-.652-.224-1-.643-1-.407 0-.558-.22-.412-.6.483-1.258-.217-.53-.865.9m29.02 42.822c-.605.072-1.1.28-1.1.463 0 .182-.447.755-.993 1.273-.546.518-.996 1.128-1 1.355-.007.398-2.368 4.315-3.153 5.231-.209.244-.753 1.144-1.209 2-.456.856-1.369 2.276-2.029 3.156-.659.88-1.371 1.96-1.581 2.4-.21.44-1.11 1.79-1.998 3-.889 1.21-1.985 2.875-2.435 3.7-.45.825-.973 1.5-1.162 1.5-.188 0-.567.54-.84 1.2-.273.66-.647 1.2-.83 1.2-.183 0-.641.675-1.018 1.5s-.952 1.813-1.277 2.195c-.469.552-.529 1.296-.293 3.6.163 1.598.309 3.13.324 3.405.015.275.188.5.384.5.197 0 .259.16.138.355-.121.195.094.33.476.3.532-.042.726.312.823 1.501.127 1.539.814 2.644 1.644 2.644.248 0 .429.842.429 1.992 0 1.771.107 2.02.962 2.234.529.133 1.052.584 1.161 1.003.11.419.672.941 1.25 1.161 1.196.455 1.982 2.062 4.012 8.21 3.698 11.194 5.595 18.922 5.204 21.191-.152.885-.392 8.179-.533 16.209-.25 14.249-.275 14.601-1.056 14.6-.85 0-.86.04-.95 3.979-.04 1.728-.257 2.403-1.05 3.259-.55.593-1.019 1.458-1.043 1.92-.114 2.274-.18 2.442-.957 2.457-.441.008-1.026.154-1.3.323-.275.17-.5.201-.5.07 0-.132-.251-.007-.558.276-.307.284-.484.639-.393.788.254.421-.386.685-1.91.788-1.309.088-2.371.737-2.344 1.432.007.169-1.197.362-2.675.428-1.478.066-2.902.299-3.164.517-.326.27-.539.232-.669-.12-.144-.39-.375-.341-.939.197-.65.621-.669.765-.148 1.094.386.245-3.696.382-11.451.386-11.668.006-13.46-.167-12.846-1.236.054-.092-.103.06-.347.337-.244.278-.786.505-1.204.505-1.296 0-2.895 1.9-4.649 5.522-2.24 4.625-7.25 13.694-9.201 16.655-3.287 4.987-4.197 8.223-2.312 8.223.226 0 .365.225.31.5-.055.275.125.455.4.4.275-.055.5.08.5.3 0 .22.191.4.424.4.233 0 .288-.225.123-.5-.237-.394-.174-.398.296-.017.889.718 33 .743 33.289.025.16-.397.212-.399.236-.008.022.336.274.27.769-.2.405-.385.664-.835.576-1-.088-.165 1.29-.3 3.063-.3H309c.411 0 1.667-1.412 1.513-1.7-.088-.165.724-.3 1.805-.3 1.542 0 2.198-.215 3.044-1 .594-.55 1.524-1 2.069-1 .68 0 1.105-.304 1.36-.976.301-.793.694-.999 2.09-1.1 1.433-.103 1.74-.274 1.847-1.024.089-.63.419-.918 1.1-.96.535-.033 1.197-.078 1.472-.1.772-.062 1.421-.781 1.207-1.338-.129-.336.218-.502 1.05-.502 1.05 0 1.243-.151 1.243-.972 0-.704.249-1.008.9-1.1.57-.081.946-.449 1.025-1.003a1.13 1.13 0 0 1 1-1 1.133 1.133 0 0 0 1-1 1.13 1.13 0 0 1 1-1 1.133 1.133 0 0 0 1-1 1.13 1.13 0 0 1 1-1 1.133 1.133 0 0 0 1-1 1.13 1.13 0 0 1 1-1 1.133 1.133 0 0 0 1-1 1.13 1.13 0 0 1 1-1c.554-.079.922-.455 1.003-1.025.092-.651.396-.9 1.1-.9.763 0 .972-.209.972-.972 0-.704.249-1.008.9-1.1.57-.081.946-.449 1.025-1.003a1.13 1.13 0 0 1 1-1c.554-.079.922-.455 1.003-1.025.07-.495.295-.922.5-.95.205-.027.582-.072.838-.1.257-.027.532-.59.612-1.25.08-.66.575-1.583 1.099-2.051.525-.469 1.019-1.279 1.098-1.8.079-.522.365-.904.634-.849.27.055.446-.125.391-.4-.055-.275.089-.467.32-.427.231.041.464-.574.517-1.365.113-1.679.368-2.214.901-1.885.21.13.332-.002.272-.293-.061-.292.082-.496.317-.454.242.043.462-.732.509-1.8.063-1.428.319-2.086 1.073-2.757.893-.793.991-1.186.991-3.966 0-1.698.105-2.981.233-2.853 1.749 1.749 2.218-6.412 1.828-31.8l-.121-7.9h-.917c-1.306 0-2.783-2.445-3.383-5.6-.966-5.076-3.064-12.394-5.896-20.565-1.317-3.799-1.588-7.435-.554-7.435.164 0 .213-.448.109-.995-.105-.548-.337-.905-.517-.794-.507.314-.729-.302-.833-2.312-.053-1.018-.198-1.84-.322-1.827-1.393.141-1.627-.13-1.627-1.882 0-1.538-.143-1.864-.952-2.172-.786-.299-.957-.653-.976-2.019-.012-.912-.259-1.949-.547-2.305-.434-.535-.433-.592.005-.329.436.263.438.174.013-.507-.358-.574-.605-.682-.808-.353-.391.634-.683-.185-.893-2.505-.121-1.34-.318-1.772-.772-1.689-.748.135-.95-.17-1.13-1.711-.077-.66-.534-1.519-1.015-1.91-.495-.401-.93-1.271-1-2-.069-.709-.35-1.312-.625-1.34-.275-.027-.68-.072-.9-.1-.22-.027-.406-.725-.413-1.55-.014-1.763-1.158-2.784-2.887-2.578M94.8 219.218c0 .23-.433.852-.963 1.381-.529.529-1.177 1.614-1.44 2.41-.263.796-.729 1.544-1.037 1.662-.308.118-.56.53-.56.916s-.45 1.364-1 2.175c-1.236 1.821-1.317 9.126-.1 9.055 1.181-.068 1.459.088 1.572.883.082.578.45.946 1.028 1.028.82.116 1.145 1.081.974 2.892-.09.948 1.578 1.103 1.996.187.252-.554.687-1.007.967-1.007.913 0 .973-1.334.365-8.216-.329-3.731-.601-7.954-.605-9.384-.009-2.866-.303-4.4-.844-4.4-.194 0-.353.188-.353.418m34.7 10.258c-1.11.29-.745 6.523 1.142 19.524l1.165 8c.32 2.2.857 5.26 1.192 6.8.334 1.54.962 4.51 1.394 6.6 2.494 12.058 3.457 15.148 5.049 16.191.517.338 2.249 1.752 3.849 3.141s4.675 3.997 6.834 5.796c4.872 4.059 5.875 5.227 5.875 6.842 0 .745.243 1.348.598 1.484.328.127.498.391.376.588-.122.197.329.358 1.002.358 1.039 0 1.224.151 1.224 1 0 .8.2 1 1 1s1 .2 1 1c0 .778.205 1 .924 1 .507 0 1.272.264 1.7.587.477.361 1.704.592 3.185.6 2.049.011 2.707.211 4.4 1.338 3.262 2.172 7.177 4.859 7.391 5.074.11.111 1.28.904 2.6 1.763 1.32.858 3.12 2.044 4 2.633.88.59 1.87 1.195 2.2 1.346.33.15 2.13 1.259 4 2.463 1.87 1.205 4.255 2.645 5.3 3.2 1.045.555 1.9 1.254 1.9 1.554 0 .299.27.768.6 1.042.33.274.6.926.6 1.449 0 .579.235.951.6.951.503 0 .765.627.675 1.617-.011.119.549.26 1.245.313.695.053 1.728.541 2.294 1.083.566.543 1.493.987 2.059.987 1.107 0 2.109.865 1.624 1.401-.164.18-.072.198.203.04.275-.159.5-.098.5.135s.608.424 1.351.424c1.371 0 2.487.804 1.946 1.401-.164.18-.072.198.203.04.275-.159.5-.098.5.135 0 .236.803.424 1.81.424 1.562 0 1.862.137 2.19 1 .326.858.63 1 2.147 1 1.55 0 1.797.122 2.017 1 .226.898.453 1 2.231 1 1.651 0 1.939.106 1.734.64-.624 1.627 7.411 2.049 9.105.478.948-.878 3.827-5.095 5.817-8.518 6.76-11.63 9.602-18.841 7.913-20.076-.415-.303-.757-.86-.759-1.238-.004-.511-.413-.719-1.6-.816-1.747-.142-2.741-.727-2.339-1.377.15-.242.064-.297-.204-.131-.254.157-.462.095-.462-.138 0-.241-.851-.424-1.972-.424-1.741 0-1.987-.106-2.1-.9-.109-.768-.407-.918-2.028-1.022-1.045-.067-1.9-.262-1.9-.434s-1.314-.235-2.92-.14c-3.109.184-3.782-.014-7.68-2.266a76.099 76.099 0 0 0-3.6-1.945c-.88-.434-2.132-1.356-2.783-2.05-.651-.693-2.091-1.707-3.2-2.253-2.15-1.058-2.614-1.337-8.817-5.313-6.013-3.855-16.211-10.858-17-11.674-.11-.114-1.28-1.003-2.6-1.975-10.975-8.081-14.811-11.704-15.242-14.399-.217-1.358-.413-1.629-1.181-1.629-.651 0-.959-.264-1.049-.9-.081-.57-.449-.946-1.003-1.025a1.13 1.13 0 0 1-1-1c-.079-.554-.455-.922-1.025-1.003-.785-.111-1.113-.724-.947-1.772.026-.165-.088-.279-.253-.253-.864.137-1.7-.097-1.7-.476 0-.553-1.018-1.571-1.571-1.571-.236 0-.429-.469-.429-1.043 0-.77-.159-.981-.61-.808-.364.139-.958-.166-1.472-.758-.474-.545-1.1-.991-1.39-.991-.29 0-.542-.135-.559-.3-.099-.97-.346-1.807-.603-2.037-.161-.144-.174.097-.029.537.252.76.236.763-.3.073-.31-.399-.671-.714-.801-.7-.13.015-.269-.108-.309-.273-.085-.349-2.055-1.948-2.217-1.8-.196.179-1.564-1.342-1.829-2.034-.142-.371-.399-.65-.57-.622-.906.148-1.311-.132-1.311-.911 0-.476-.109-.757-.242-.624-.298.297-2.208-1.705-1.979-2.075.09-.146-.365-.619-1.012-1.05-.731-.487-1.137-1.073-1.072-1.547.074-.541-.158-.784-.795-.833-.495-.039-.945-.145-1-.237a64.54 64.54 0 0 1-.544-.967c-.244-.44-.587-.739-.764-.664-.479.203-1.078-1.073-.752-1.601.175-.283.107-.349-.178-.173-.254.157-.462.084-.462-.162s-.185-.333-.41-.194c-.226.14-.604-.299-.839-.976-.277-.792-.7-1.23-1.19-1.23-.668 0-.975-.645-.808-1.7.026-.165-.088-.279-.253-.253-1.048.166-1.661-.162-1.772-.947-.082-.578-.45-.946-1.028-1.028-.651-.092-.9-.396-.9-1.1 0-.988-1.208-1.243-3.3-.696"/><path fill="#f9bb64" d="M277.835 40.2c-.907.979-1.05 1-6.791 1h-5.864l-.228 1.141c-.472 2.36-1.659 3.223-5.552 4.036-1.98.413-4.23.949-5 1.191-.77.241-2.57.64-4 .886-1.43.246-3.05.671-3.6.943-.55.273-1.99.727-3.2 1.01-1.21.283-2.56.745-3 1.027-2.208 1.415-8.239 1.945-9.2.808-.683-.808-2.2-.694-2.2.165 0 .656-.36.772-2.7.875-2.357.103-2.75.232-3.095 1.018-.33.752-.708.9-2.3.9-1.765 0-1.905.073-1.905 1 0 .933-.133 1-2 1s-2 .067-2 1-.133 1-2 1-2 .067-2 1-.133 1-2 1-2 .067-2 1-.133 1-2 1c-1.855 0-2 .071-2 .978 0 .883-.185.99-1.9 1.1-1.894.122-3.325 1.922-1.528 1.922.396 0 .628.354.628.957 0 .527.288 1.068.64 1.203.352.135 1.117.615 1.7 1.066.583.451 2.77 1.819 4.86 3.042 4.656 2.723 16.434 10.46 17.044 11.196.244.295.559.536.699.536.14 0 1.111.611 2.156 1.357 2.529 1.805 5.294 2.706 7.42 2.42 2.984-.403 3.423-.566 3.675-1.357.19-.599.679-.806 2.126-.899 1.601-.103 1.899-.255 2.008-1.021.113-.794.359-.9 2.1-.9 1.837 0 1.972-.069 1.972-1 0-.591.229-1 .561-1 .308 0 .741-.518.962-1.151.49-1.404 2.526-2.985 4.677-3.629.88-.264 2.5-.808 3.6-1.21 1.1-.402 3.8-1.272 6-1.935 11.928-3.592 16.005-4.265 17.798-2.939 1.145.846 1.454.864 14.968.864h13.798l1 1c.843.843 1.374 1 3.389 1 2.072 0 2.493.133 3.176 1 .635.808 1.14 1 2.629 1 1.698 0 1.842.078 1.842 1 0 .8.2 1 1 1 .935 0 1 .132 1 2.018 0 1.61.199 2.217.982 3.001.833.832 1.001 1.425 1.1 3.882.108 2.645.196 2.91 1.003 3.025l.885.126.115 13.812.115 13.813 1.2.956c.66.527 3.9 2.326 7.2 4 3.3 1.673 6.9 3.557 8 4.186 1.1.63 2.45 1.38 3 1.667 1.287.673 4.262 2.542 5.8 3.644.89.637 1.845.874 3.7.915l2.5.056v-6.787c0-6.182.071-6.879.8-7.805.687-.873.8-1.623.8-5.309s-.113-4.436-.8-5.309c-.722-.918-.8-1.623-.8-7.254V95.2h-.985c-.967 0-.987-.066-1.1-3.7-.106-3.398-.188-3.732-1.015-4.095-.752-.33-.9-.708-.9-2.3 0-1.765-.073-1.905-1-1.905-.933 0-1-.133-1-2 0-1.855-.071-2-.978-2-.883 0-.99-.185-1.1-1.9-.104-1.621-.254-1.919-1.022-2.028-.651-.092-.9-.396-.9-1.1 0-.77-.208-.972-1-.972-.8 0-1-.2-1-1s-.2-1-1-1c-.798 0-1-.2-1-.993 0-.883-1.002-2.337-2.8-4.064-2.299-2.209-9.605-9.101-10.525-9.93-.619-.557-1.474-1.013-1.9-1.013-.56 0-.775-.277-.775-1 0-.8-.2-1-1-1s-1-.2-1-1c0-.792-.202-1-.972-1-.704 0-1.008-.249-1.1-.9-.109-.768-.407-.918-2.028-1.022-1.715-.11-1.9-.217-1.9-1.1 0-.907-.145-.978-2-.978-1.867 0-2-.067-2-1 0-.931-.135-1-1.972-1-1.741 0-1.987-.106-2.1-.9-.117-.826-.367-.91-3.027-1.018-2.457-.099-3.05-.267-3.882-1.1-.954-.954-1.152-.982-6.855-.982-5.75 0-5.892-.021-6.799-1-.912-.984-1.025-1-7.165-1-6.14 0-6.253.016-7.165 1M163.2 90.142c0 .867-.184 1.058-1.018 1.058-.56 0-1.468.45-2.018 1-.55.55-1.342 1-1.759 1-1.058 0-1.262.502-.962 2.376l.259 1.624h2.684c1.476 0 4.468-.269 6.649-.598 2.181-.328 5.225-.599 6.765-.602 1.54-.002 3.488-.196 4.33-.429l1.53-.425-1.73-.947a76.938 76.938 0 0 0-3.13-1.612c-.77-.367-1.67-.886-2-1.155-1.151-.935-4.219-1.874-6.9-2.11l-2.7-.238v1.058m-6.2 40.664c-1.54.152-4.15.556-5.8.897-1.65.341-4.53.743-6.4.894-1.87.15-4.158.523-5.084.828-.927.305-3.357.749-5.4.986-2.044.236-4.346.671-5.116.965-.77.295-2.84.749-4.6 1.011-1.76.261-3.83.729-4.6 1.039-.77.309-2.272.75-3.337.978-2.034.437-4.025 2.163-8.263 7.165-.99 1.169-2.25 2.634-2.8 3.256a44.33 44.33 0 0 0-1.401 1.653c-4.485 5.836-5.6 6.676-8.899 6.704-1.952.017-2.1.086-2.1.99 0 .704-.249 1.008-.9 1.1-.688.098-.929.432-1.025 1.418-.076.786-.505 1.59-1.098 2.057-.842.662-1.026 1.268-1.355 4.444-.209 2.022-.615 3.974-.901 4.338-.287.363-.658.843-.826 1.066-.167.223-.842 1.105-1.5 1.96-.657.855-1.195 1.676-1.195 1.825 0 .148-.341.635-.757 1.082-.417.447-1.052 1.381-1.411 2.076-.359.694-.808 1.262-.999 1.262-.19 0-.451.405-.579.9-.128.495-.688 1.423-1.244 2.062-.555.639-1.01 1.314-1.01 1.5 0 .186-.315.659-.7 1.05-.385.392-1.018 1.337-1.407 2.1-.389.764-1.238 2.198-1.886 3.188-1.04 1.587-1.758 2.766-3.456 5.679-.851 1.459-2.148 2.721-2.848 2.772-1.99.145-2.614.275-2.847.596-.141.194-.616.551-1.056.794-.557.306-.837.937-.922 2.075-.099 1.332-.284 1.657-1 1.759-.742.106-.897.419-1 2.025-.11 1.715-.217 1.9-1.1 1.9-.907 0-.978.145-.978 2 0 1.867-.067 2-1 2-.931 0-1 .135-1 1.972 0 1.741-.106 1.987-.9 2.1-.768.109-.918.407-1.022 2.028-.067 1.045-.279 1.9-.471 1.9-1.001 0-1.607 1.369-1.607 3.629 0 2.262-.046 2.371-1 2.371-.929 0-.999.135-.981 1.9.04 3.917 2.559 6.444 10.781 10.813.55.292 1.9 1.044 3 1.672 2.785 1.589 8.509 4.415 8.943 4.415.197 0 .565.248.816.55 1.723 2.076 8.041 1.772 8.041-.388 0-1.186.129-1.362 1-1.362.933 0 1-.133 1-2s.067-2 1-2 1-.133 1-2c0-1.744.104-2 .813-2 1.22 0 1.334-.867.549-4.198l-.714-3.025 1.367-2.689a158.17 158.17 0 0 1 2.725-5.088l2.15-3.8c.435-.77 1.015-1.67 1.289-2 .273-.33 1.099-1.68 1.834-3 .736-1.32 1.64-2.85 2.009-3.4.369-.55 2.073-3.16 3.787-5.8 4.579-7.054 11.004-15.984 16.116-22.4 8.358-10.488 8.485-10.6 12.089-10.6 1.852 0 1.986-.068 1.986-1 0-.8.2-1 1-1 .792 0 1-.202 1-.972 0-.704.249-1.008.9-1.1.563-.08.946-.449 1.022-.987.068-.473.471-.95.896-1.062.425-.111.95-.669 1.167-1.24.217-.572.589-1.039.826-1.039.236 0 .693-.63 1.015-1.4.321-.77.942-1.623 1.379-1.896.437-.273.795-.903.795-1.4 0-.698.228-.904 1-.904.8 0 1-.2 1-1s.2-1 1-1 1-.2 1-1 .2-1 1-1 1-.2 1-1 .2-1 1-1 1-.2 1-1 .2-1 1-1 1-.2 1-1 .2-1 1-1 1-.2 1-1c0-.772.206-1 .904-1 .497 0 1.127-.358 1.4-.795.273-.437 1.126-1.058 1.896-1.379.77-.322 1.4-.779 1.4-1.015 0-.237.467-.609 1.039-.826.571-.217 1.129-.742 1.24-1.167.112-.425.589-.828 1.062-.896.538-.076.907-.459.987-1.022.092-.651.396-.9 1.1-.9.77 0 .972-.208.972-1 0-.8.2-1 1-1s1-.2 1-1 .2-1 1-1c1.797 0 1.369-1.834-.5-2.143-1.845-.305-8.523-.224-12.3.149m159.4 20.35c-.861.238-1.017.539-1.122 2.164-.088 1.361-.395 2.161-1.1 2.866-.779.779-.978 1.389-.978 2.996 0 1.886-.065 2.018-1 2.018-1.098 0-1.096-.009-1.178 7.026-.033 2.741-1.079 6.174-1.883 6.174-.186 0-.34.225-.341.5-.003.495-.213.923-2.05 4.18-1.141 2.021-6.645 11.114-7.579 12.52l-3.314 5c-1.457 2.2-3.552 5.26-4.654 6.8a337.77 337.77 0 0 0-2.69 3.8c-3.505 5.112-14.147 18.578-15.87 20.084-1.344 1.173-3.223 1.461-3.574.547-.315-.82-1.867-.309-1.867.616 0 .537-.287.753-1 .753-.787 0-1 .203-1 .953 0 .616-.282 1.028-.798 1.162-.439.115-.92.541-1.07.947-.15.406-.691 1.134-1.202 1.619-.577.547-.93 1.343-.93 2.1 0 1.034-.152 1.219-1 1.219-.8 0-1 .2-1 1s-.2 1-1 1-1 .2-1 1-.2 1-1 1-1 .2-1 1-.2 1-1 1-1 .2-1 1-.2 1-1 1-1 .2-1 1-.2 1-1 1-1 .2-1 1-.2 1-1 1-1 .2-1 1-.2 1-1 1-1 .2-1 1-.2 1-1 1-1 .2-1 1-.2 1-1 1-1 .2-1 1-.2 1-1 1-1 .2-1 1c0 .805-.199 1-1.018 1-.56 0-1.454.436-1.986.968-.533.532-1.29 1.028-1.682 1.102-.393.074-.889.531-1.102 1.016-.213.485-.753.934-1.2.998-.491.07-.863.472-.94 1.016-.09.635-.398.9-1.048.9-.875 0-1.831 3.316-1.153 4 .423.427 8.903.047 12.129-.543 1.87-.343 5.47-.819 8-1.058 2.53-.239 5.59-.682 6.8-.984 1.21-.301 3.82-.754 5.8-1.005 1.98-.251 4.5-.711 5.6-1.023 1.1-.312 3.323-.768 4.94-1.014 1.616-.246 3.506-.68 4.2-.965.693-.284 2.597-.739 4.231-1.011 3.514-.583 5.309-2.179 13.724-12.204 5.689-6.778 6.137-7.136 8.521-6.812 1.705.231 1.784.197 1.784-.77 0-.812.197-1.011 1-1.011.792 0 1-.202 1-.972 0-.704.249-1.008.9-1.1.768-.109.918-.407 1.022-2.028.1-1.56.258-1.9.885-1.9.683 0 .755-.284.688-2.7-.074-2.656-.042-2.748 2.024-5.7 6.056-8.652 13.715-20.483 15.926-24.6.618-1.149 2.859-2.572 3.774-2.396.43.082.781-.02.781-.227 0-.207.45-.377 1-.377.933 0 1-.133 1-2s.067-2 1-2c.872 0 1-.175 1-1.371 0-.986.281-1.592 1-2.158.55-.432 1-1.157 1-1.61 0-.454.45-1.275 1-1.825.683-.682 1-1.44 1-2.389 0-1.005.276-1.606 1-2.176.808-.635 1-1.14 1-2.629 0-1.698.078-1.842 1-1.842.933 0 1-.133 1-2s.067-2 1-2 1-.133 1-2c0-1.1.167-2 .371-2 .481 0 1.629-1.148 1.629-1.629 0-.204-.36-.371-.8-.371-.576 0-.8-.267-.8-.951 0-.523-.27-1.175-.6-1.449-.33-.274-.6-.713-.6-.975s-.63-.777-1.4-1.144c-.77-.368-1.4-.831-1.4-1.031 0-.2-.409-.466-.908-.591-.499-.125-1.264-.55-1.7-.944-.436-.393-1.422-1.034-2.192-1.424-.77-.39-2.3-1.226-3.4-1.859-1.1-.632-2.72-1.524-3.6-1.981-.88-.457-1.87-.987-2.2-1.176-1.067-.614-4.934-2.396-7.488-3.449-2.525-1.041-3.516-1.166-5.312-.67M41.2 266.371c0 1.199-.237 1.757-1 2.358l-1 .786v15.014c0 15.509.076 16.271 1.614 16.271.196 0 .409 1.755.472 3.9.107 3.677.165 3.907.997 4.026.804.114.893.382 1 3 .107 2.634.192 2.885 1.017 3.002.794.113.9.359.9 2.1 0 1.825.073 1.972.978 1.972.883 0 .99.185 1.1 1.9.104 1.621.254 1.919 1.022 2.028.651.092.9.396.9 1.1 0 .77.208.972 1 .972.848 0 1 .185 1 1.219 0 .77.351 1.544.952 2.101.523.485 1.02 1.242 1.104 1.681.086.453.53.853 1.023.924.542.077.919.456.996 1 .078.545.455.922 1 1a1.13 1.13 0 0 1 1 1c.078.545.455.922 1 1a1.13 1.13 0 0 1 1 1c.078.545.455.922 1 1a1.13 1.13 0 0 1 1 1c.078.545.455.922 1 1a1.13 1.13 0 0 1 1 1c.078.545.455.922 1 1a1.13 1.13 0 0 1 1 1c.078.545.455.922 1 1a1.13 1.13 0 0 1 1 1c.079.554.455.922 1.025 1.003.495.07.9.282.9.471 0 .781 1.346 1.601 2.629 1.601 1.196 0 1.371.128 1.371 1 0 .792.202 1 .972 1 .704 0 1.008.249 1.1.9.109.768.407.918 2.028 1.022 1.715.11 1.9.217 1.9 1.1 0 .907.145.978 2 .978 1.867 0 2 .067 2 1 0 .932.135 1 1.982 1 1.58 0 2.184.202 2.982 1 .881.881 1.341 1 3.872 1 2.553 0 2.976.112 3.803 1.004l.93 1.004 17.916-.104 17.915-.104.128-.9c.07-.495.38-.9.69-.9.309 0 .837-.533 1.174-1.185.422-.815 1.079-1.309 2.11-1.585 5.504-1.474 8.077-2.14 12.498-3.234 2.75-.68 6.8-1.875 9-2.654 4.827-1.709 6.596-2.104 7.623-1.702 2.011.787 6.629.402 7.432-.62.611-.776 1.204-1.004 2.858-1.1 1.704-.098 2.158-.282 2.474-1.002.303-.691.779-.907 2.2-1 1.532-.1 1.833-.257 1.941-1.018.113-.794.359-.9 2.1-.9 1.837 0 1.972-.069 1.972-1 0-.933.133-1 2-1s2-.067 2-1 .133-1 2-1c1.855 0 2-.071 2-.978 0-.883.185-.99 1.9-1.1l1.9-.122.12-1.636c.117-1.601-1.49-4.164-2.612-4.164-.204 0-1.257-.567-2.339-1.26a606.707 606.707 0 0 0-6.569-4.149c-3.991-2.48-6.214-3.978-6.333-4.268-.074-.178-.301-.323-.505-.323-.204 0-1.462-.765-2.796-1.7a198.804 198.804 0 0 0-3.337-2.3 60.415 60.415 0 0 1-1.871-1.294c-3.966-2.874-5.077-3.128-10.558-2.417-2.071.268-2.418.434-2.528 1.211-.113.794-.359.9-2.1.9-1.837 0-1.972.069-1.972 1 0 .933-.133 1-2 1-1.69 0-2 .116-2 .751 0 1.966-1.205 3.662-3.309 4.656-4.27 2.017-17.541 6.118-19.967 6.17-.592.013-1.175.182-1.295.377-.875 1.414-8.483 1.292-9.34-.151-.441-.743-2.413-.976-2.935-.347-.36.433-2.592.544-10.985.544H92.836l-1-1c-.89-.89-1.332-1-4.018-1-1.66 0-3.018-.167-3.018-.371 0-1.023-1.351-1.629-3.629-1.629-2.262 0-2.371-.046-2.371-1 0-.8-.2-1-1-1-.805 0-1-.199-1-1.018 0-.56-.45-1.468-1-2.018-.798-.798-1-1.402-1-2.982 0-1.847-.068-1.982-1-1.982h-1v-4.73c0-4.529-.043-4.771-1-5.67-.978-.919-1-1.066-1-6.8s.022-5.881 1-6.8c2.931-2.754.386-9.151-4.362-10.964-1.011-.386-1.838-.867-1.838-1.069 0-.202-.265-.367-.59-.367-.576 0-4.825-2.112-8.81-4.38-1.1-.626-2.72-1.516-3.6-1.978a48.5 48.5 0 0 1-3.4-2.029c-5.853-3.863-8-4.411-8-2.042m189.6 36.438c-7.078.475-10.135 1.145-10.039 2.199.17 1.879 14.039 6.275 14.039 4.45 0-.467.354-.658 1.219-.658.787 0 1.548-.355 2.146-1 .51-.55 1.311-1 1.781-1 .644 0 .854-.246.854-1 0-.8.2-1 1-1 2.489 0 1.221-1.863-1.459-2.143-2.667-.279-3.252-.269-9.541.152"/><path fill="#2c6393" d="M182.832 5.5a.432.432 0 0 1-.532.4c-.275-.055-.455.125-.4.4.055.275-.11.5-.367.5-.256 0-.347.119-.202.264.145.146.644-.079 1.109-.5.464-.42.956-.705 1.092-.634.136.072.311-.108.388-.4.111-.418.06-.415-.241.015-.323.461-.416.461-.599 0-.154-.387-.226-.4-.248-.045m32.52.275c-.301.323-.269.6.112.956.352.329.536.35.536.061 0-.241.18-.328.4-.192.57.352.495-.162-.111-.769-.381-.38-.62-.395-.937-.056M174.8 7.533c0 .257-.135.422-.3.367-.165-.055-.33.06-.366.255-.036.196-.306.508-.6.694-.298.189-.34.341-.096.345.603.008 1.952-1.537 1.626-1.863-.145-.145-.264-.054-.264.202m58.552 4.242c-.301.323-.269.6.112.956.352.329.536.35.536.061 0-.241.18-.328.4-.192.57.352.495-.162-.111-.769-.381-.38-.62-.395-.937-.056m-74.863 4.048c-1.087.761-1.148 1.377-.136 1.377.486 0 .822-.355.945-1 .105-.55.166-1 .136-1-.031 0-.456.28-.945.623m41.26 11.556c-.297.317-.268.594.098.936.61.57 1.099.645.774.119-.124-.201-.063-.426.137-.5.2-.074.149-.33-.112-.57-.344-.316-.592-.311-.897.015m-5.349 1.808c0 .214-.301.272-.669.131-.5-.192-.607-.093-.423.387.136.354.032.731-.23.838-.36.146-.362.202-.007.225.549.037 1.729-1.053 1.729-1.597 0-.204-.09-.371-.2-.371-.11 0-.2.174-.2.387m-4.667 3.091c0 .299.184.483.409.408.637-.212.743-.953.136-.953-.3 0-.545.245-.545.545m22.016 1.101c-.297.317-.268.594.098.936.61.57 1.099.645.774.119-.124-.201-.063-.426.137-.5.2-.074.149-.33-.112-.57-.344-.316-.592-.311-.897.015m46.977-.121c.276.362.451.891.388 1.176-.063.285.201.587.586.672 1.021.223.857-.427-.388-1.536-.598-.534-.862-.674-.586-.312m-76.912 4.164c-.607.562-1.011 1.114-.899 1.226.112.112.768-.347 1.458-1.022 1.51-1.476 1.01-1.658-.559-.204m-72.881 2.36c0 .323.194.459.434.305.238-.153 2.143-.385 4.233-.517l3.8-.238-4.233-.066c-3.47-.054-4.234.039-4.234.516M172.8 45.6c0 .907.415 1.025 1.12.32.705-.705.587-1.12-.32-1.12-.533 0-.8.267-.8.8m-91.361-.062c-.139.223-.057.527.181.674.615.381 1.012-.14.498-.654-.287-.287-.511-.294-.679-.02m-3.69 2.241c-.296.316-.287.576.03.872.316.296.576.287.872-.03.296-.316.287-.576-.03-.872-.316-.296-.576-.287-.872.03m93.984.499c0 .299.184.483.409.408.637-.212.743-.953.136-.953-.3 0-.545.245-.545.545m-2.307 3.281c-.12.193.035.559.343.815.729.605 1.113-.021.41-.67-.295-.273-.634-.338-.753-.145m13.38 5.879c-.008.603 1.537 1.952 1.863 1.626.145-.145.054-.264-.202-.264-.257 0-.422-.135-.367-.3.055-.165-.06-.33-.255-.366-.196-.036-.508-.306-.694-.6-.189-.298-.341-.34-.345-.096m3.905 2.329c.152.238.28.595.283.793.003.198.411.422.906.498.495.075.9-.042.9-.261 0-.218-.27-.397-.6-.397-.33 0-.6-.24-.6-.533 0-.294-.262-.534-.582-.534-.322 0-.459.194-.307.434m4 2c.152.238.28.595.283.793.003.198.411.422.906.498.495.075.9-.042.9-.261 0-.218-.27-.397-.6-.397-.33 0-.6-.24-.6-.533 0-.294-.262-.534-.582-.534-.322 0-.459.194-.307.434m4.089 2.446c0 .644 1.065 1.256 1.474.846.285-.285-.619-1.459-1.123-1.459-.193 0-.351.276-.351.613m-144 9.32c0 .257-.135.422-.3.367-.165-.055-.33.06-.366.255-.036.196-.306.508-.6.694-.298.189-.34.341-.096.345.603.008 1.952-1.537 1.626-1.863-.145-.145-.264-.054-.264.202m36.984.494c-.145.234-.168.522-.051.64.287.286 1.067-.219 1.067-.691 0-.511-.691-.477-1.016.051M81.6 76.233c0 .707.861.584 1.108-.158.087-.261-.126-.475-.475-.475a.635.635 0 0 0-.633.633m-3.92 1.447c-.584.584-.622 1.12-.08 1.12.22 0 .355-.225.3-.5-.055-.275.125-.455.4-.4.275.055.5-.08.5-.3 0-.542-.536-.504-1.12.08m74.084 5.675c-.317.345-.294.608.083.96.744.695.93.603.743-.369-.212-1.101-.3-1.163-.826-.591m-77.98 2.672c-.145.234-.168.522-.051.64.287.286 1.067-.219 1.067-.691 0-.511-.691-.477-1.016.051m161.489 3.833c-.278.297-.362.554-.189.571.174.016.631.091 1.016.164.831.159.886-.066.189-.764-.416-.415-.607-.409-1.016.029m-86.873.473c0 .257-.36.467-.8.467-.533 0-.8.267-.8.8 0 .44.176.8.391.8.526 0 1.784-1.959 1.463-2.279-.14-.14-.254-.044-.254.212m-40.577 4.156c-.884 1.262-.774 1.563.377 1.038.55-.25 1-.787 1-1.191 0-.996-.621-.927-1.377.153m-36.499.428c-.469.752-.559 1.883-.15 1.883.457 0 1.626-1.14 1.626-1.586 0-.568-1.16-.802-1.476-.297m80.511 1.283c-.828.893-1.243 1-3.885 1-2.513 0-3.032.119-3.451.791-1.034 1.655-3.381 2.445-11.299 3.802-5.427.931-17.385 3.558-22.846 5.02-2.513.672-3.867.492-4.591-.613-.874-1.335-2.682-1.344-3.909-.02-.768.828-1.34.999-3.681 1.1-2.512.109-2.785.203-2.899 1.003-.114.804-.382.893-3 1-2.617.107-2.885.196-3 1-.114.804-.382.893-3 1-2.634.107-2.885.192-3.002 1.017-.111.782-.365.9-1.942.9-1.45 0-1.97.197-2.586.98-.631.802-1.188 1.003-3.058 1.1-2.023.106-2.301.223-2.414 1.02-.07.495-.291.9-.492.9-.2 0-.745.747-1.211 1.661l-.848 1.661.867 4.239c2.736 13.392 7.431 25.864 9.812 26.064 3.632.305 5.4-.025 5.4-1.007 0-.943.119-.988 2.9-1.1 2.661-.108 2.911-.192 3.028-1.018.113-.794.359-.9 2.1-.9 1.837 0 1.972-.069 1.972-1 0-.55.181-1 .403-1 .221 0 .789-.445 1.262-.989.925-1.063 4.76-2.674 9.065-3.806 1.468-.387 4.668-1.425 7.111-2.308 2.442-.882 5.772-1.828 7.4-2.101 1.627-.274 3.409-.669 3.959-.88.55-.211 2.89-.72 5.2-1.133 3.935-.702 5.997-1.052 15.3-2.598 2.035-.338 6.4-.879 9.7-1.202 3.3-.323 7.17-.756 8.6-.961 3.28-.472 4.742-.187 5.297 1.031l.431.947h28.336c18.624 0 28.336.137 28.336.4 0 .22.143.4.319.4.531 0 .292-2.537-.333-3.533-.65-1.035-9.59-8.315-15.786-12.855-2.2-1.612-4.542-3.331-5.205-3.819-3.382-2.493-13.408-9.113-17.995-11.882-5.806-3.504-4.924-3.338-12.2-2.301-8.154 1.163-17.093 1.458-18.224.603-.427-.323-1.112-.593-1.522-.6-.704-.012-.709-.07-.091-1.013l.655-1h-2.028c-1.65 0-2.201.187-2.955 1m91.104.904c.507 2.138.222 1.845 10.224 10.496 5.499 4.756 6.361 5.41 6.693 5.078.917-.917-2.127-11.423-3.708-12.798-.522-.453-.948-1.033-.948-1.288 0-.848-2.002-1.392-5.124-1.392-2.817 0-3.121-.079-3.481-.9-.315-.717-.774-.924-2.256-1.02l-1.862-.121.462 1.945m49.183.861c.171 1.12.498 1.365.569.426.032-.427-.111-.88-.318-1.007-.206-.128-.32.134-.251.581M39.439 99.538c-.139.223-.057.527.181.674.615.381 1.012-.14.498-.654-.287-.287-.511-.294-.679-.02m253.461 6.761c-.415 2.421-.382 3.12.265 5.536 1.792 6.687 4.164 17.566 5.27 24.165.866 5.167 2.09 8.8 2.966 8.8.276 0 .709.499.962 1.11.407.984.632 1.093 1.99.963 1.267-.121 1.672.033 2.347.89.655.833 1.159 1.037 2.563 1.037 1.428 0 1.819.164 2.142.9.424.965 4.152 1.193 7.967.487 1.101-.204 1.94-.109 2.8.317l6.628 3.283c14.121 6.994 19.2 10.646 19.2 13.806 0 .458.27.936.6 1.062.33.127.6.661.6 1.188 0 .754.212.957 1 .957.8 0 1 .2 1 1 0 .792.202 1 .972 1 .704 0 1.008.249 1.1.9.08.563.449.946.987 1.022.473.068.954.486 1.071.93.116.444.567.901 1.003 1.015.436.114.886.564 1 1 .114.436.564.886 1 1 .436.114.886.564 1 1 .114.436.571.887 1.015 1.003.444.117.862.598.93 1.071.076.538.459.907 1.022.987.651.092.9.396.9 1.1 0 .77.208.972 1 .972.8 0 1 .2 1 1s.2 1 1 1c.933 0 1 .133 1 2 0 1.855.071 2 .978 2 .883 0 .99.185 1.1 1.9.104 1.621.254 1.919 1.022 2.028.794.113.9.359.9 2.1 0 1.267.172 1.972.48 1.972.373 0 .373.107 0 .48-.279.279-.48 1.618-.48 3.2 0 2.635-.031 2.72-1 2.72-.933 0-1 .133-1 2s-.067 2-1 2c-.772 0-1 .206-1 .905 0 .555-.348 1.058-.9 1.3-.695.305-.928.782-1.023 2.095-.109 1.502-.237 1.7-1.1 1.7-.775 0-.977.206-.977 1 0 .8-.2 1-1 1s-1 .2-1 1-.2 1-1 1-1 .2-1 1-.2 1-1 1-1 .2-1 1-.2 1-1 1-1 .2-1 1-.2 1-1 1-1 .2-1 1-.2 1-1 1-1 .2-1 1c0 .905-.157 1-1.647 1-1.54 0-1.634.064-1.455 1 .105.55.056 1-.108 1-1.034 0-.763 3.636.554 7.435 2.832 8.171 4.93 15.489 5.896 20.565.77 4.053 1.989 5.6 4.413 5.6 1.81 0 1.947-.07 1.947-1 0-.8.2-1 1-1s1-.2 1-1c0-.75.211-1 .842-1 .464 0 1.188-.439 1.61-.975.468-.595 1.271-1.024 2.058-1.1.986-.096 1.32-.337 1.418-1.025.092-.651.396-.9 1.1-.9.77 0 .972-.208.972-1 0-.8.2-1 1-1s1-.2 1-1 .2-1 1-1 1-.2 1-1 .2-1 1-1c.792 0 1-.202 1-.972 0-.704.249-1.008.9-1.1.578-.082.946-.45 1.028-1.028.07-.495.282-.9.471-.9.781 0 1.601-1.346 1.601-2.629 0-1.196.128-1.371 1-1.371.8 0 1-.2 1-1s.2-1 1-1c.933 0 1-.133 1-2s.067-2 1-2c.772 0 1-.206 1-.905 0-.555.348-1.058.9-1.3.683-.3.929-.784 1.019-2.008.089-1.213.337-1.709 1-2 .763-.335.897-.748.999-3.087.113-2.568.167-2.7 1.1-2.7.977 0 .982-.022.982-3.972 0-3.815.036-3.977.9-4.1l.9-.128.104-16.714.105-16.714-1.005-1.004c-.882-.883-1.004-1.346-1.004-3.829 0-2.536-.102-2.904-1-3.61-.866-.681-1-1.105-1-3.158 0-2.262-.046-2.371-1-2.371-.933 0-1-.133-1-2 0-1.855-.071-2-.978-2-.883 0-.99-.185-1.1-1.9-.104-1.621-.254-1.919-1.022-2.028-.651-.092-.9-.396-.9-1.1 0-.764-.209-.972-.977-.972-.863 0-.991-.198-1.1-1.7-.095-1.313-.328-1.79-1.023-2.095-.552-.242-.9-.745-.9-1.3 0-.699-.228-.905-1-.905-.8 0-1-.2-1-1s-.2-1-1-1-1-.2-1-1-.2-1-1-1-1-.2-1-1-.2-1-1-1-1-.2-1-1-.2-1-1-1-1-.2-1-1-.2-1-1-1-1-.2-1-1-.2-1-1-1-1-.2-1-1-.2-1-1-1c-.55 0-1-.167-1-.371 0-.807-1.327-1.629-2.629-1.629-1.176 0-1.371-.135-1.371-.949 0-1.146-2.338-1.71-4.281-1.032-1.313.457-4.244-.523-5.274-1.764-.298-.36-.777-.655-1.063-.655-.286 0-1.029-.409-1.651-.909-.622-.5-1.761-1.23-2.531-1.623-.77-.394-2.3-1.228-3.4-1.854-1.1-.627-2.72-1.512-3.6-1.967-.88-.455-1.87-.997-2.2-1.204-.33-.208-2.322-1.183-4.426-2.167-3.968-1.856-5.174-2.99-5.174-4.862 0-.612-.226-1.014-.571-1.014-.314 0-.925-.45-1.358-1-.632-.804-1.142-1-2.601-1-1.577 0-1.831-.118-1.942-.9-.117-.826-.367-.91-3.028-1.018-2.781-.112-2.9-.157-2.9-1.1 0-.911-.144-.982-1.982-.982-1.58 0-2.184-.202-2.982-1-.843-.843-1.374-1-3.389-1-2.072 0-2.493-.133-3.176-1-.705-.897-1.075-1-3.601-1-2.614 0-2.823-.064-2.942-.9-.085-.6-.45-.946-1.093-1.036-.531-.075-1.257-.496-1.613-.936-.617-.762-.669-.671-1.122 1.971M70.891 110.59c.045.545.322 1.083.616 1.196.329.126.438.014.284-.291-.138-.272.033-.146.379.281.856 1.056.863-.066.007-1.287-.821-1.173-1.388-1.128-1.286.101m-31.127 18.765c-.317.345-.294.608.083.96.744.695.93.603.743-.369-.212-1.101-.3-1.163-.826-.591m187.652 3.071a.638.638 0 0 0 .741.246c.491-.188 1.676.495 1.783 1.028.033.165.175.285.315.266.141-.019.408.206.594.5.242.382.34.395.345.046.003-.268-.534-.887-1.194-1.375-1.294-.957-3.031-1.434-2.584-.711m-189.949 3.041c-.147.146-.267.596-.267 1 0 .515-.297.733-1 .733-.8 0-1 .2-1 1s-.2 1-1 1-1 .2-1 1c0 .848-.185 1-1.219 1-.77 0-1.544.351-2.101.952-.485.523-1.242 1.02-1.681 1.104-.453.086-.853.53-.924 1.023-.077.542-.456.919-1 .996a1.133 1.133 0 0 0-1 1 1.13 1.13 0 0 1-1 1 1.133 1.133 0 0 0-1 1c-.077.544-.454.923-.996 1-.493.071-.937.471-1.023.924-.084.439-.581 1.196-1.104 1.681-.601.557-.952 1.331-.952 2.101 0 1.034-.152 1.219-1 1.219-.8 0-1 .2-1 1s-.2 1-1 1c-.754 0-1 .21-1 .854 0 .47-.45 1.271-1 1.781-.645.598-1 1.359-1 2.146 0 1.034-.152 1.219-1 1.219-.933 0-1 .133-1 2s-.067 2-1 2c-.931 0-1 .135-1 1.972 0 1.741-.106 1.987-.9 2.1-.825.117-.91.368-1.017 3.002-.107 2.618-.196 2.886-1 3l-.883.126-.103 21.916-.104 21.916 1.004.93c.795.737 1.003 1.317 1.003 2.802 0 1.453.219 2.092.978 2.85.708.708 1.012 1.504 1.1 2.882.103 1.61.257 1.923 1 2.029.721.102.9.426 1 1.8.094 1.287.33 1.766 1.022 2.07.552.242.9.745.9 1.3 0 .693.229.905.978.905.883 0 .99.185 1.1 1.9.104 1.621.254 1.919 1.022 2.028.651.092.9.396.9 1.1 0 .77.208.972 1 .972.8 0 1 .2 1 1s.2 1 1 1 1 .2 1 1 .2 1 1 1 1 .2 1 1 .2 1 1 1 1 .2 1 1 .2 1 1 1 1 .2 1 1 .2 1 1 1 1 .2 1 1 .2 1 1 1 1 .2 1 1 .2 1 1 1 1 .2 1 1c0 .792.202 1 .972 1 .704 0 1.008.249 1.1.9.098.688.432.929 1.418 1.025a3.096 3.096 0 0 1 2.095 1.147c.653.83 1.013.97 1.91.743 3.39-.858 3.891-.771 6.961 1.206 6.245 4.024 8.729 5.415 17.418 9.756 5.31 2.653 6.706 3.839 7.513 6.382.191.603.599.841 1.44.841.985 0 1.173.161 1.173 1 0 .933.133 1 2 1 1.1 0 2 .167 2 .371 0 1.018 1.351 1.629 3.601 1.629 2.126 0 2.355.084 2.471.9.117.826.367.91 3.028 1.018 2.781.112 2.9.157 2.9 1.1 0 .955.083.982 2.972.982 2.778 0 2.981.059 3.1.9.123.868.277.9 4.318.9h4.191l.383-1.089c.289-.823.125-2.146-.67-5.4-2.939-12.033-3.01-12.366-5.104-24.111-.543-3.049-1.091-4.937-1.623-5.6-.441-.55-1.014-1.495-1.272-2.1-.352-.824-.75-1.1-1.583-1.1-.611 0-1.112-.167-1.112-.371 0-1.018-1.351-1.629-3.601-1.629-2.126 0-2.355-.084-2.471-.9-.11-.772-.405-.918-2.083-1.024-1.428-.091-2.15-.361-2.675-1-.64-.78-.776-.808-1.244-.258-2.19 2.575-7.563.984-18.926-5.605-1.1-.638-2.27-1.293-2.6-1.455-1.618-.794-6-3.513-6-3.723 0-.132-.548-.482-1.218-.779-1.631-.722-2.324-1.884-2.868-4.81-.402-2.162-.563-2.446-1.385-2.446-.724 0-.929-.22-.929-1 0-.772-.206-1-.905-1-.555 0-1.058-.348-1.3-.9-.243-.553-.815-.948-1.486-1.026-.6-.069-1.436-.564-1.858-1.1-.421-.536-1.145-.974-1.609-.974-.631 0-.842-.25-.842-1 0-.8-.2-1-1-1s-1-.2-1-1-.2-1-1-1c-.872 0-1-.175-1-1.371 0-1.302-.822-2.629-1.629-2.629-.204 0-.371-.45-.371-1 0-.8-.2-1-1-1s-1-.2-1-1-.2-1-1-1c-.933 0-1-.133-1-2s-.067-2-1-2-1-.133-1-2-.067-2-1-2c-1.485 0-1.582-6.262-.1-6.472.766-.109.918-.407 1.021-2.003.102-1.581.258-1.894 1-2 .743-.106.898-.418 1.001-2.025.11-1.715.217-1.9 1.1-1.9.732 0 .978-.215.978-.854 0-.47.45-1.271 1-1.781.645-.598 1-1.359 1-2.146 0-1.034.152-1.219 1-1.219.8 0 1-.2 1-1s.2-1 1-1 1-.2 1-1 .2-1 1-1 1-.2 1-1 .2-1 1-1 1-.2 1-1 .2-1 1-1 1-.2 1-1c0-.75.211-1 .842-1 .464 0 1.188-.439 1.61-.975.464-.59 1.273-1.025 2.045-1.1 1.237-.121 1.299-.218 1.928-2.999l.65-2.873-1.378-3.927c-2.52-7.175-6.491-21.497-6.495-23.426-.005-1.77-5.186-3.383-6.535-2.033m58.282 12.312c-.296.316-.287.576.03.872.316.296.576.287.872-.03.296-.316.287-.576-.03-.872-.316-.296-.576-.287-.872.03m-12.943 5.659c-.008.603 1.537 1.952 1.863 1.626.145-.145.054-.264-.202-.264-.257 0-.422-.135-.367-.3.055-.165-.06-.33-.255-.366-.196-.036-.508-.306-.694-.6-.189-.298-.341-.34-.345-.096m220.394 2.197c0 .201.18.365.4.365.22 0 .4.27.4.6 0 .33.155.6.345.6.673 0 .252-1.725-.445-1.827-.385-.056-.7.062-.7.262m6.5 7.997c.385.224.714.714.732 1.088.02.438.105.497.237.167.24-.596-.558-1.693-1.218-1.675-.248.007-.136.196.249.42m-258.5 8.519c0 .399.334.649.867.649.476 0 .791-.051.7-.113a33.323 33.323 0 0 1-.867-.649c-.599-.459-.7-.442-.7.113m216 .146c0 .53 1.214 2.103 1.623 2.103.207 0 .377-.48.377-1.067 0-.586-.114-.953-.253-.814s-.589.073-1-.147c-.411-.22-.747-.254-.747-.075M57.534 185.151c.294.186.564.498.6.694.036.195.201.31.366.255.165-.055.3.11.3.367 0 .256.119.347.264.202.326-.326-1.023-1.871-1.626-1.863-.244.004-.202.156.096.345m2 4c.294.186.564.498.6.694.036.195.201.31.366.255.165-.055.3.11.3.367 0 .256.119.347.264.202.326-.326-1.023-1.871-1.626-1.863-.244.004-.202.156.096.345m70.404 2.916c.08.843.307 1.533.504 1.533s.358-.69.358-1.533c0-.967-.186-1.534-.504-1.534-.344 0-.458.489-.358 1.534M61.6 193.151c0 .504 1.174 1.408 1.459 1.123.41-.409-.202-1.474-.846-1.474-.337 0-.613.158-.613.351m273.673 10.709c-.278.297-.362.554-.189.571.174.016.631.091 1.016.164.831.159.886-.066.189-.764-.416-.415-.607-.409-1.016.029m-206.467 1.84c.005 1.694.734 4.338.8 2.9.01-.22.209-.071.443.33.233.402.318.837.188.967-.131.13-.237.026-.237-.23 0-.257-.186-.467-.414-.467-.28 0-.285.241-.014.747.22.411.277.871.126 1.022-.15.15.049.149.443-.002 1.252-.48.326-7.367-.99-7.367-.193 0-.348.945-.345 2.1m208.899 2.176c.372.372.788.564.926.427.393-.394-.211-1.103-.94-1.103-.611 0-.61.053.014.676m1.995 3.756c.385.224.714.714.732 1.088.02.438.105.497.237.167.24-.596-.558-1.693-1.218-1.675-.248.007-.136.196.249.42m2.422 4.333c.171 1.12.498 1.365.569.426.032-.427-.111-.88-.318-1.007-.206-.128-.32.134-.251.581m1.043 3.435c-.447.824-.136 1.525.735 1.658.495.075.9-.042.9-.261 0-.218-.257-.397-.571-.397-.314 0-.633-.315-.709-.7-.076-.385-.236-.52-.355-.3m-75.054 6.7c-.899 1.162-.88 1.383.101 1.196.634-.122.988-.459.988-.943 0-.863-.523-.985-1.089-.253m-126.073 13.8c.295.385.587.775.649.867.062.091.113-.224.113-.7 0-.533-.25-.867-.649-.867-.555 0-.572.101-.113.7m1.662 1.732c.385.224.714.714.732 1.088.02.438.105.497.237.167.24-.596-.558-1.693-1.218-1.675-.248.007-.136.196.249.42m159.869 1.268c-.474 1.552.111 2.045.831.7.342-.639.304-.8-.186-.8-.338 0-.628.045-.645.1m-157.864.976c.372.372.788.564.926.427.393-.394-.211-1.103-.94-1.103-.611 0-.61.053.014.676m.953 1.532c.133.345.328.54.434.433.314-.313 1.244.725 1.004 1.121-.121.199-.028.243.207.098.506-.313.409-1.47-.128-1.51-.206-.016-.686-.195-1.066-.399-.542-.29-.639-.235-.451.257m168.542 2.549c0 1.241-.003 1.243-2.219 1.243-1.853 0-2.372.165-3.146 1-.732.79-1.317 1-2.781 1-1.711 0-1.854.077-1.854 1 0 .8-.2 1-1 1-.55 0-1-.197-1-.437s-.784.526-1.741 1.701c-.958 1.176-2.173 2.36-2.7 2.632-1.068.55-9.78 3.304-10.453 3.304-.236 0-1.368.444-2.515.987-1.147.543-2.875 1.107-3.838 1.255-.964.147-2.089.44-2.499.652-.41.211-2.57.713-4.8 1.115-2.23.403-4.54.918-5.134 1.144-.594.227-2.664.606-4.6.844-1.936.237-4.511.692-5.722 1.01-1.211.319-4.541.85-7.4 1.181-2.859.331-5.918.771-6.798.978-4.581 1.078-14.2 1.384-15.409.49-.637-.471-1.346-.856-1.575-.856-.229 0-.416-.45-.416-1 0-.78-.205-1-.93-1-.512 0-1.353.45-1.87 1l-.939 1h-48.769l-.927-1c-1.656-1.787-3.534-1.419-3.207.629.431 2.695 4.267 6.318 15.242 14.399 1.32.972 2.49 1.861 2.6 1.975.789.816 10.987 7.819 17 11.674 9.985 6.4 9.23 6.09 13.565 5.57 3.363-.404 18.104-1.395 20.117-1.352.485.01 1.364.398 1.954.862 1.551 1.22 11.495 1.293 12.139.089.823-1.536 4.782-3.116 10.025-4.001 7.385-1.245 11.487-2.056 14.4-2.845 7.888-2.138 11.742-2.887 13.547-2.632 1.019.144 2.079.285 2.355.313.369.039.343.228-.1.717-.8.884-.759 1.202.155 1.202.473 0 .85-.374 1.007-1 .236-.94.409-1 2.886-1 2.334 0 2.725-.114 3.421-1 .683-.867 1.104-1 3.176-1 2.015 0 2.546-.157 3.389-1 .775-.774 1.412-1 2.825-1 1.469 0 1.977-.194 2.61-1 .681-.866 1.105-1 3.158-1 2.262 0 2.371-.046 2.371-1s.109-1 2.371-1c2.278 0 3.629-.606 3.629-1.629 0-.204.499-.371 1.109-.371 1.135 0 2.091-2.356 2.091-5.155 0-1.09-2.117-9.88-3.286-13.645-3.525-11.351-4.738-14.277-6.141-14.81-.578-.22-1.144-.757-1.258-1.195-.115-.437-.353-.795-.529-.795-.176 0-.605-.109-.953-.243-.494-.189-.633.031-.633 1m-165.927-.097c-.278.297-.362.554-.189.571.174.016.631.091 1.016.164.831.159.886-.066.189-.764-.416-.415-.607-.409-1.016.029m1.527 1.766c0 .232.135.339.3.24.427-.259 1.308.786.976 1.156-.152.168-.067.187.188.041.747-.428.347-1.582-.597-1.726-.477-.072-.867.058-.867.289m2.905 2.25c.372.372.788.564.926.427.393-.394-.211-1.103-.94-1.103-.611 0-.61.053.014.676M359 285c0 5.465.059 5.781.92 4.92 1.126-1.126.502-10.32-.7-10.32-.121 0-.22 2.43-.22 5.4m-220.278 1.611c-1.012 1.013 3.607 13.656 5.13 14.038.627.157.949.528.951 1.094.002.521.394 1.038 1 1.319.548.255.997.3.997.1 0-.504 8.387-.467 8.45.038.028.22.072.608.1.862.068.626 1.381.781 1.713.202.146-.255.127-.34-.041-.188-.564.507-1.265-.603-1.098-1.736.219-1.493-.784-2.633-6.605-7.511a1054.038 1054.038 0 0 1-7.319-6.186c-2.618-2.248-2.892-2.417-3.278-2.032M291.9 300.676c-.385.1-.7.54-.7.977 0 .907.598.672 1.212-.475.229-.428.365-.757.302-.732a14.18 14.18 0 0 1-.814.23m65.884 3.351c-.145.234-.168.522-.051.64.287.286 1.067-.219 1.067-.691 0-.511-.691-.477-1.016.051m-67.384 3.094c0 .25-.26.354-.578.232-.392-.15-.558.032-.518.569.033.442.274.708.547.603.556-.213 1.072-1.335.758-1.649-.115-.115-.209-.005-.209.245m-142.278.844c.171 1.12.498 1.365.569.426.032-.427-.111-.88-.318-1.007-.206-.128-.32.134-.251.581m102.278 1.659c0 .233-.208.295-.462.138-.273-.169-.354-.111-.197.142.145.235.038.515-.239.621-.276.106-.133.176.319.155.668-.031 1.406-1.48.754-1.48-.096 0-.175.191-.175.424m-7.594 3.814c-.008.603 1.537 1.952 1.863 1.626.145-.145.054-.264-.202-.264-.257 0-.422-.135-.367-.3.055-.165-.06-.33-.255-.366-.196-.036-.508-.306-.694-.6-.189-.298-.341-.34-.345-.096m79.109 6.611c-.697.734-.564 1.024.447.977.572-.026.985-1.309.502-1.561-.145-.076-.572.187-.949.584m-38.222 3.551c-.277.443-.326.8-.11.8.214 0 .582-.36.817-.8.235-.44.285-.8.11-.8s-.542.36-.817.8m23.746 1.938c-.139.223-.057.527.181.674.615.381 1.012-.14.498-.654-.287-.287-.511-.294-.679-.02m-24.007.41c-.272.44.883 1.47 1.244 1.109.142-.141.037-.257-.233-.257s-.387-.168-.26-.372a.444.444 0 0 0-.149-.607.436.436 0 0 0-.602.127m-75.898 11.203c.294.186.564.498.6.694.036.195.201.31.366.255.165-.055.3.11.3.367 0 .256.119.347.264.202.326-.326-1.023-1.871-1.626-1.863-.244.004-.202.156.096.345m4 2c.294.186.564.498.6.694.036.195.201.31.366.255.165-.055.3.11.3.367 0 .256.119.347.264.202.326-.326-1.023-1.871-1.626-1.863-.244.004-.202.156.096.345m4.142 2.077c.092.277.566.768 1.053 1.091.847.562.87.547.533-.366-.358-.969-1.903-1.676-1.586-.725m12.073 8.551c-.296.316-.287.576.03.872.316.296.576.287.872-.03.296-.316.287-.576-.03-.872-.316-.296-.576-.287-.872.03m91.421 1.206c-.263.132-.26 1.815.004 1.815.467 0 1.626-1.143 1.626-1.604 0-.251-1.231-.41-1.63-.211m-3.933 2.857c-1.012 1.006-.88 1.223.342.569.724-.387 1.455-1.649.908-1.569-.158.023-.721.473-1.25 1m-5.453 2.185c-.145.234-.168.522-.051.64.287.286 1.067-.219 1.067-.691 0-.511-.691-.477-1.016.051m-8 2c-.145.234-.168.522-.051.64.287.286 1.067-.219 1.067-.691 0-.511-.691-.477-1.016.051m-164.035 5.352c-.297.317-.268.594.098.936.61.57 1.099.645.774.119-.124-.201-.063-.426.137-.5.2-.074.149-.33-.112-.57-.344-.316-.592-.311-.897.015m117.405 5.721c-.27 1.752-.748 2.477-1.457 2.205-.465-.178-.569-.071-.389.4.136.354.032.731-.23.838-.366.148-.364.201.006.225.267.018.669-.193.894-.468 1.668-2.035 2.422-3.049 2.422-3.258 0-.353-1.191-.297-1.246.058m-5.654 6.533c-.385.422-.7.863-.7.981 0 .434 1.514-.612 1.74-1.203.316-.823-.183-.716-1.04.222m-93.9 5.487c0 .414.866 1.28 1.28 1.28.176 0 .32-.36.32-.8 0-.533-.267-.8-.8-.8-.44 0-.8.144-.8.32m83.2 2.48c0 .907.415 1.025 1.12.32.705-.705.587-1.12-.32-1.12-.533 0-.8.267-.8.8m-69.2 5.52c0 .414.866 1.28 1.28 1.28.176 0 .32-.36.32-.8 0-.533-.267-.8-.8-.8-.44 0-.8.144-.8.32m5.934 2.031c.294.186.564.498.6.694.036.195.201.31.366.255.165-.055.3.11.3.367 0 .256.119.347.264.202.326-.326-1.023-1.871-1.626-1.863-.244.004-.202.156.096.345"/><path fill="#44bb7c" d="M183.844 5.831c-.194.504-.381.553-.796.209-.413-.343-.673-.283-1.095.255-.512.652-.493.662.247.127.733-.53.75-.523.2.076-.443.483-1.433.677-3.793.742-2.814.078-3.28.199-3.929 1.024-.624.793-1.098.936-3.107.936-2.248 0-2.371.051-2.371.978 0 .883-.185.99-1.9 1.1-1.621.104-1.919.254-2.028 1.022-.121.852-.505.98-2.68.892-.384-.016-1.316 1.004-1.254 1.373.034.2-.388.477-.938.616-.624.157-1.048.584-1.128 1.135-.11.763-1.981 1.331-2.582.784-.234-.213-1.396 1.117-1.224 1.401.1.165-.296.482-.881.705-.584.222-1.156.761-1.27 1.199-.135.513-.547.795-1.162.795-.75 0-.953.213-.953 1 0 .8-.2 1-1 1s-1 .2-1 1-.2 1-1 1-1 .2-1 1-.2 1-1 1-1 .2-1 1-.2 1-1 1-1 .2-1 1-.2 1-1 1-1 .2-1 1-.2 1-1 1-1 .2-1 1c0 .951-.345 1.183-1.523 1.025-.287-.039-.491.165-.452.452.193 1.438-.041 2.517-.417 1.923-.331-.524-.47-.509-1.094.114-.623.624-.638.763-.114 1.094.398.252.432.382.1.386-.275.003-.5.456-.5 1.006 0 .812-.197 1-1.049 1-.782 0-.949.127-.656.5 1.455 1.853.891 3.658-3.096 9.9-1.823 2.856-4.57 7.87-7.671 14.004-2.946 5.827-4.736 7.84-6.84 7.694-.392-.028-.685.164-.653.426.213 1.701-.086 4.414-.427 3.876-.331-.524-.47-.509-1.094.114-.623.624-.638.763-.114 1.094.398.252.432.382.1.386-.333.004-.5.676-.5 2.006 0 1.931-.182 2.19-1.438 2.044-.264-.031-.468.842-.512 2.194-.055 1.697-.315 2.563-1.062 3.542-.797 1.045-.988 1.759-.988 3.694 0 2.169-.095 2.441-1 2.853-.918.418-1 .67-1 3.064 0 2.516-.036 2.609-1 2.609-.94 0-1 .126-1 2.111 0 3.605 1.347 4.521 5.154 3.502 5.56-1.489 17.542-4.116 22.846-5.01 7.906-1.333 10.583-2.3 11.395-4.119.217-.486.545-.884.728-.884.945 0 1.477-1.287 1.477-3.571 0-2.117.097-2.429.757-2.429.89 0 1.243-.748 1.243-2.633 0-.752.18-1.389.4-1.417.22-.027.616-.072.881-.1.674-.07.844-2.591.354-5.243-.471-2.549.923-5.917 6.875-16.607 5.456-9.799 7.961-12.8 10.685-12.8.449 0 .805-.265.805-.6 0-.33.193-.6.429-.6.533 0 1.571-1.01 1.571-1.529 0-.212.281-.493.625-.625s.511-.426.371-.653c-.141-.227-.017-.363.274-.303.349.073.572-.402.654-1.39.107-1.29.261-1.5 1.1-1.5.774 0 .976-.207.976-1 0-.8.2-1 1-1s1-.2 1-1 .2-1 1-1 1-.2 1-1c0-.754.21-1 .854-1 .47 0 1.301-.482 1.846-1.07.546-.589 1.289-1.092 1.653-1.119 1.052-.078 1.631-.588 1.387-1.224-.169-.438.089-.587 1.017-.587 1.051 0 1.243-.151 1.243-.976 0-.839.21-.993 1.5-1.1.988-.082 1.463-.305 1.39-.654-.06-.291.076-.415.303-.274.227.14.521-.027.653-.371s.679-.625 1.215-.625 1.415-.44 1.952-.977c.665-.665 1.521-1.016 2.682-1.1 1.318-.095 1.795-.327 2.1-1.023.217-.495.543-.9.723-.9.181 0 .218.18.082.4-.136.22-.072.4.143.4a.6.6 0 0 0 .524-.361c.073-.198.365-.108.649.2.332.361.359.561.076.561-.241 0-.328.18-.192.4.136.22 1.227.4 2.424.4 1.951 0 2.263.153 2.142 1.055-.069.512 1.069.933 2.534.939 1.332.005 1.5.118 1.5 1.006 0 .849.185 1 1.224 1 .713 0 1.12.167.976.4-.136.22-.072.4.143.4a.6.6 0 0 0 .524-.361c.073-.198.365-.108.649.2.332.361.359.561.076.561-.241 0-.328.18-.192.4.136.22.777.4 1.424.4.988 0 1.176.16 1.176 1 0 .8.2 1 1 1 .915 0 1.234.518 1.047 1.7-.026.165.403.3.953.3.73 0 1 .214 1 .792 0 .512.354.882 1 1.044.961.241 1.171.58 1.03 1.664-.037.283.365.5.925.5.721 0 1.024.244 1.117.9.082.578.45.946 1.028 1.028.651.092.9.396.9 1.1 0 .77.208.972 1 .972.8 0 1 .2 1 1s.2 1 1 1c.936 0 1.225.648 1.077 2.411-.057.678 7.41.374 8.835-.359.832-.428 2.452-.999 3.6-1.269 1.148-.27 2.587-.743 3.198-1.052.61-.309 2.14-.745 3.4-.969 1.259-.224 3.01-.662 3.89-.974.88-.311 2.77-.761 4.2-1 3.617-.605 7.897-2.379 8.172-3.388.437-1.61.26-3.098-.343-2.867-.585.225-1.789-.865-1.429-1.294.11-.132-.195-.412-.678-.624-.483-.212-.978-.785-1.101-1.273a1.378 1.378 0 0 0-1.122-1.014c-.494-.071-.917-.398-.938-.728-.022-.33-.089-.735-.15-.9-.061-.165-.133-.688-.161-1.162-.03-.518-.353-.906-.81-.973-.872-.128-1.498-.947-1.152-1.508.13-.209.028-.252-.226-.095s-.462.095-.462-.138-.225-.379-.5-.324c-.282.056-.556-.384-.628-1.011-.07-.611-.34-1.085-.6-1.053-1.058.131-1.397-.083-1.636-1.034-.137-.548-.382-.977-.543-.952-.93.143-1.293-.166-1.293-1.097 0-.849-.151-1.007-.8-.837-.925.242-1.366-.247-1.55-1.716-.027-.22-.344-.4-.704-.4s-1.071-.45-1.581-1c-.598-.645-1.359-1-2.146-1-1.034 0-1.219-.152-1.219-1 0-.8-.2-1-1-1-.793 0-1-.202-1-.973 0-.834-.182-.968-1.267-.937-.903.025-1.529-.269-2.18-1.027-.503-.585-1.273-1.063-1.71-1.063-.438 0-.919-.199-1.069-.443-.177-.285-.363-.301-.524-.044-.155.247-.447.187-.766-.157-.297-.321-.339-.556-.1-.556 1.155 0 .211-.65-1.069-.736-1.594-.108-1.905-.268-1.933-.997-.01-.257-.235-.422-.5-.367-.265.055-.482-.071-.482-.28 0-.209-1.035-.434-2.3-.5-1.474-.077-2.318-.299-2.35-.62-.027-.275-.072-.68-.1-.9-.029-.235-1.609-.4-3.826-.4-2.329 0-3.882-.17-4.05-.443-.177-.285-.363-.301-.524-.044-.155.247-.447.187-.766-.157-.297-.321-.339-.556-.1-.556.229 0 .416-.166.416-.368 0-.751-31.468-.554-31.756.199M275.8 72.797c-1.1.171-2.74.592-3.644.936-.905.344-2.615.752-3.8.907-1.186.155-2.518.518-2.961.805-.443.288-1.793.726-3 .974-1.207.249-2.915.784-3.795 1.191-.88.406-2.32.863-3.2 1.015-.88.152-1.87.501-2.2.776-.33.276-1.264.735-2.074 1.021-.972.343-1.554.837-1.708 1.449-.165.659-.521.929-1.223.929-.801 0-.964.172-.853.9.087.571.416.899.898.897.619-.002.797.368.96 2 .17 1.7.336 2.022 1.1 2.131.834.118.9.33.9 2.9 0 1.548.177 2.794.4 2.822.22.028.625.073.9.1.275.028.557.644.627 1.371.09.94.407 1.448 1.1 1.764.535.244.973.652.973.907s.426.835.948 1.288c1.156 1.005 3.983 9.57 3.907 11.839-.031.919.25 1.946.711 2.6 1.95 2.768 6.551 26.185 8.857 45.081.834 6.831.124 12.933-1.475 12.683-.605-.094-.637-.042-.167.274.319.215.724.301.9.193.175-.108.319 12.143.319 27.226 0 33.446-1.036 31.427 9.353 18.224 1.644-2.09 3.363-4.211 3.818-4.714.456-.503.829-1.045.829-1.204 0-.16.407-.738.904-1.286a24.877 24.877 0 0 0 1.7-2.152c.438-.636 1.202-1.716 1.697-2.4a280.86 280.86 0 0 0 1.887-2.644c.541-.77 1.528-2.12 2.191-3 .664-.88 1.333-1.87 1.487-2.2.353-.757 2.756-4.401 3.429-5.2.278-.33.848-1.275 1.268-2.1.42-.825.903-1.5 1.073-1.5.171 0 .423-.356.562-.792.245-.773 2.546-4.751 3.309-5.721.722-.918.85-2.491.494-6.087-1.207-12.209-1.344-16.363-.613-18.564.501-1.507.808-1.969 1.053-1.583.23.363.349.387.353.071a.932.932 0 0 0-.394-.724c-.225-.139-.4-2.066-.4-4.41 0-4.24-.718-6.99-1.825-6.99-.851 0-2.083-3.688-2.94-8.8-1.107-6.605-3.444-17.319-5.29-24.249-.639-2.401-.688-3.177-.313-4.928.55-2.563.289-6.949-.469-7.883-.425-.523-.433-.615-.033-.375.436.263.438.174.013-.507-.369-.592-.603-.689-.823-.342-.174.273-.337-.3-.375-1.316-.063-1.701-.122-2.193-.349-2.9-.053-.165-.118-.705-.146-1.2-.027-.495-.26-.9-.517-.9-.755 0-1.177-1.452-1.429-4.917-.02-.285-.268-.429-.55-.321-.338.13-.429-.023-.266-.448.165-.43.092-.549-.22-.356-.315.195-.484-.11-.518-.934-.027-.673-.095-1.404-.15-1.624a7.793 7.793 0 0 1-.15-1.024c-.028-.343-.194-.534-.369-.426-.661.408-1.194-.409-1.4-2.15-.276-2.328-.587-3.647-.932-3.954-.152-.135-.163.069-.025.454.389 1.085-.04.826-.661-.4-.307-.605-.507-1.415-.446-1.8.09-.563-.184-.7-1.402-.7-.833 0-2.033-.071-2.665-.157-.632-.087-2.05-.018-3.15.154M110.844 139.02c-.746.324-2.456.848-3.8 1.165-6.281 1.48-9.812 3.685-9.833 6.139-.006.778-.176 1.221-.411 1.076-.22-.136-.4-.072-.4.143a.6.6 0 0 0 .361.524c.198.073.074.397-.277.72-.564.52-.607.51-.378-.087.143-.371.059-.798-.185-.949-.269-.166-.332-.092-.159.187.157.254.132.462-.056.462-.551 0-.631 6.875-.085 7.213 1.157.715 3.446-1.043 7.179-5.514 2.09-2.503 4.408-5.214 5.15-6.025 2.856-3.118 4.933-5.673 4.599-5.658-.192.008-.959.28-1.705.604m17.656 33.517c-.935.229-1.7.575-1.7.769 0 .194-.945 1.487-2.1 2.873-1.155 1.385-2.55 3.113-3.1 3.838-.55.725-1.36 1.714-1.8 2.197-.44.484-.98 1.156-1.2 1.493-.22.338-1.255 1.714-2.3 3.058-1.045 1.344-1.9 2.62-1.9 2.836 0 .216-.36.617-.8.892-.44.275-.8.695-.8.933 0 .239-.45.857-1 1.374-.55.517-1 1.146-1 1.398s-.537 1.06-1.194 1.795c-.656.735-1.293 1.651-1.415 2.035-.122.384-.485.799-.806.922-.322.124-.585.415-.585.647 0 .469-2.448 4.246-3.395 5.237-.333.348-.605.781-.605.962 0 .181-.45.918-1 1.64-.55.721-1 1.489-1 1.707 0 .217-.417.904-.927 1.526s-1.163 1.72-1.452 2.44c-.289.721-.727 1.441-.973 1.6-1.768 1.148-1.95 6.867-.643 20.229.444 4.536.307 5.862-.605 5.862-.3 0-.658.352-.795.783-.359 1.132-.124 9.617.266 9.617.181 0 .284.217.229.482-.055.265.163.49.484.5.328.01.697.576.844 1.295.144.702.736 1.84 1.317 2.53.58.69 1.057 1.376 1.059 1.524.003.292 1.062 6.17 2.328 12.934.766 4.09 1.321 6.532 3.489 15.335 1.143 4.644 1.188 5.371.392 6.424-.677.895-.857 6.146-.213 6.226.22.028.625.072.9.1.341.034.537 1.033.617 3.15.113 2.994.15 3.1 1.1 3.1.972 0 1.344 1.961 1.004 5.3-.051.503.217.7.954.7.981 0 1.027.104 1.075 2.4.071 3.426.065 3.405 1.052 3.352.817-.043.898.132.898 1.943 0 1.646.173 2.126 1 2.776.848.667 1 1.118 1 2.966 0 2.097.036 2.169.956 1.938.526-.132 1.071-.056 1.21.169.488.791 3.629.957 5.58.295 1.026-.348 3.168-.834 4.76-1.08 1.592-.245 3.254-.638 3.694-.874.44-.235 2.06-.746 3.6-1.136 3.486-.881 7.501-2.198 9.6-3.147.88-.398 2.177-.844 2.882-.991.745-.155 1.382-.582 1.52-1.018.132-.414.599-.866 1.039-1.006 1.242-.394.949-3.932-.341-4.115-.788-.112-.9-.362-.9-2.02 0-1.041-.225-2.134-.5-2.431-.402-.433-.396-.48.03-.238.436.248.438.155.013-.525-.35-.562-.607-.678-.802-.363-.32.518-.661-.669-.833-2.895-.078-1.007-.361-1.511-1.008-1.795-.533-.234-.9-.746-.9-1.256 0-.577-.318-.942-.962-1.104-.888-.223-3.438-5.139-3.438-6.63 0-.242-.347-1.47-.77-2.728-.424-1.258-.85-3.007-.947-3.887-.097-.88-.573-2.582-1.057-3.783-.836-2.074-1.436-4.527-3.233-13.217-.432-2.09-1.06-5.06-1.394-6.6-.335-1.54-.872-4.6-1.192-6.8l-1.165-8c-2.067-14.243-2.281-19.203-.842-19.564l1-.251v-6.819c0-3.793-.178-7.151-.401-7.568-.268-.501-.268-.832 0-.997.763-.472.494-3.122-.287-2.823-.378.146-.564.141-.414-.009.151-.151.094-.611-.126-1.022-.271-.506-.266-.747.014-.747.228 0 .414.21.414.467 0 .256.106.36.237.23.13-.13.045-.565-.188-.967-.234-.401-.433-.55-.443-.33-.01.22-.193.13-.406-.2-.693-1.072-.503-12.217.218-12.815.34-.282.522-.764.405-1.07-.118-.306-.039-.448.176-.316.352.218.304-.58-.183-3.085-.074-.378-.017-.671.125-.653.752.098.905-.123.459-.661-.274-.33-.324-.6-.111-.6.235 0 .414-3.372.454-8.6.037-4.73-.07-8.573-.238-8.54-.168.033-1.07.247-2.005.477M302.8 243.4c0 .33-.341.6-.758.6-.916 0-2.254 1.239-5.612 5.2-1.399 1.65-2.833 3.314-3.187 3.697a68.801 68.801 0 0 0-1.643 1.888c-.904 1.076-1.623 1.882-4.775 5.352l-.974 1.073 1.174-.37c.646-.203 3.425-1.045 6.175-1.871 5.803-1.743 6.287-2.01 8.366-4.622l1.556-1.954.049-4.451c.027-2.448.145-4.606.263-4.796.117-.19.023-.346-.21-.346-.233 0-.424.27-.424.6m-18.2 50.072c-2.2.561-5.17 1.338-6.6 1.726-2.91.79-7 1.599-14.4 2.847-7.387 1.246-10.4 2.964-10.4 5.929 0 1.14-.296 1.402-1.435 1.271-.249-.029-.465.736-.505 1.787-.038 1.011-.241 2.158-.45 2.55-.21.392-.253.855-.096 1.03.157.174.058.185-.221.024-.278-.16-.385-.487-.238-.725.162-.262.082-.319-.2-.145-.257.159-.364.457-.238.662.127.204.04.372-.193.372-.247 0-.424.918-.424 2.2 0 2.167-.185 2.424-1.631 2.27-.542-.057-.055 1.579.616 2.07 1.238.905.61 3.561-2.15 9.094-4.15 8.32-5.591 10.865-9.504 16.8-2.001 3.034-3.602 4.001-6.643 4.011-.392.002-.685.217-.653.479.14 1.12-.064 1.905-.435 1.676-.22-.136-.4-.072-.4.143a.6.6 0 0 0 .361.524c.198.073.074.397-.277.72-.564.52-.607.51-.378-.087.143-.371.059-.798-.185-.949-.269-.166-.332-.092-.159.187.157.254.095.462-.138.462s-.403.135-.377.3c.234 1.478-.127 2.456-.947 2.572-.578.082-.946.45-1.028 1.028-.092.651-.396.9-1.1.9-.77 0-.972.208-.972 1 0 .915-.518 1.234-1.7 1.047-.165-.026-.279.088-.253.253.187 1.182-.132 1.7-1.047 1.7-.8 0-1 .2-1 1 0 .725-.215 1-.781 1-.429 0-1.401.639-2.16 1.42-.921.948-1.443 1.247-1.571.9-.146-.394-.373-.347-.94.194-.65.621-.669.765-.148 1.094.498.315.464.389-.2.432-.44.029-1.07.077-1.4.106-.33.03-.6.414-.6.854 0 .61-.308.83-1.3.925-.715.069-1.303.339-1.306.6-.004.283-.159.234-.383-.122-.307-.485-.473-.501-.891-.083-.418.418-.415.574.017.841.651.402-.271.839-1.77.839-.532 0-.97.225-.973.5-.004.334-.132.302-.383-.097-.307-.485-.473-.501-.891-.083-.418.418-.415.574.017.841.898.555-.503.839-4.141.839-3.084 0-3.398-.076-4.125-1-.635-.808-1.14-1-2.629-1-1.729 0-1.842-.065-1.842-1.067 0-.586-.101-.965-.225-.841-.414.413-2.375-.341-2.393-.921-.01-.314-.235-.526-.5-.471-.265.055-.482-.08-.482-.3 0-.22-.54-.4-1.2-.4-1.013 0-1.2-.156-1.2-1 0-.8-.2-1-1-1-.807 0-1-.198-1-1.025 0-.737-.197-1.005-.7-.954-1.306.133-1.596-.019-1.548-.811.026-.435-.132-.813-.352-.84-.908-.111-1.804-.84-1.546-1.258.179-.289.048-.36-.368-.2-.483.185-.581.077-.391-.432.222-.593.169-.61-.42-.131-.696.566-.724.525-.825-1.211-.029-.508-.353-.906-.787-.97-.405-.059-.765-.166-.8-.238-.576-1.184-1.052-1.73-1.507-1.73-.306 0-.647-.45-.759-1-.129-.641-.515-1.045-1.075-1.125a1.13 1.13 0 0 1-.997-1 1.133 1.133 0 0 0-1-1 1.13 1.13 0 0 1-1-.999c-.108-.758-.341-.86-1.725-.761-2.487.179-7.532 1.372-8.216 1.943-.339.283-1.599.709-2.8.947-1.201.238-2.651.688-3.222 1-.571.312-2.371.772-4 1.023-1.629.25-3.586.734-4.349 1.074-.763.34-2.743.811-4.4 1.046-2.34.333-3.176.632-3.742 1.34a2.442 2.442 0 0 1-1.875.912c-1.452 0-1.541 1.498-.11 1.857.633.159.914.524.914 1.186 0 .754.212.957 1 .957.939 0 1.304.872 1.047 2.5-.026.165.133.3.353.3.22 0 .4-.187.4-.416 0-.239.235-.197.556.1.314.292.393.618.181.751-.207.13-.099.465.24.746.338.28.516.669.395.864-.121.195-.018.355.228.355s.333.184.194.41c-.139.225-.105.384.076.353.883-.154 1.285.115 1.402.937.082.578.45.946 1.028 1.028.651.092.9.396.9 1.1 0 .763.209.972.972.972.704 0 1.008.249 1.1.9.081.57.449.946 1.003 1.025a1.13 1.13 0 0 1 1 1c.079.554.455.922 1.025 1.003.651.092.9.396.9 1.1 0 .77.208.972 1 .972.73 0 1 .214 1 .792 0 .512.354.882 1 1.044.55.138 1.022.411 1.05.607.028.197.072.582.1.857.028.275.455.523.95.55.495.028 1.35.073 1.9.1.787.039 1 .263 1 1.05 0 .8.2 1 1 1 .895 0 1.08.202.966 1.055-.057.423.977.932 1.905.939.479.003 1.225.456 1.658 1.006.432.55 1.12 1.003 1.529 1.006.895.008 1.823.55 1.776 1.039a.323.323 0 0 0 .333.355c.201 0 .501.135.666.3.165.165 1.17.3 2.234.3 1.795 0 1.933.071 1.933 1 0 .953.11 1 2.351 1 2.279 0 3.632.643 2.946 1.401-.164.18-.072.198.203.04.275-.159.5-.098.5.135 0 .281 2.148.424 6.351.424 5.157 0 6.445.113 6.849.6.728.877 18.214.893 19.181.017.494-.447 1.988-.596 6.431-.64 4.386-.045 5.913-.194 6.304-.618.283-.307.382-.559.22-.559-.163 0-.125-.164.084-.364.209-.201 1.46-.418 2.78-.484 2.602-.128 3.47-.504 3.142-1.358-.156-.408.284-.579 1.724-.671 1.557-.099 2.011-.299 2.329-1.023.285-.649.758-.914 1.7-.95 2.136-.082 2.303-.128 2.355-.65.028-.275.072-.68.1-.9.028-.22.5-.4 1.05-.4.794 0 1-.201 1-.978 0-.883.185-.99 1.9-1.1 1.621-.104 1.919-.254 2.028-1.022.092-.651.396-.9 1.1-.9.77 0 .972-.208.972-1 0-.716.216-1 .759-1 .418 0 1.675-.896 2.793-1.99 1.118-1.095 2.486-2.105 3.04-2.244.555-.139 1.008-.468 1.008-.731 0-.263.632-1.169 1.405-2.012.772-.844 1.357-1.818 1.3-2.166-.07-.42.288-.702 1.072-.844.648-.117 1.143-.348 1.1-.513-.243-.944.026-1.459.823-1.572.578-.082.946-.45 1.028-1.028.082-.578.404-.9.9-.9.425 0 .794-.18.822-.4l.1-.815c.066-.548 1.124-1.186 1.541-.929.181.112.289.055.24-.126-.181-.669.539-2.13 1.049-2.13.475 0 .815-.652 1.252-2.4.083-.33-.021-1.109-.231-1.732-.432-1.283.344-3.108 3.101-7.291 1.951-2.961 6.961-12.03 9.201-16.655 1.796-3.71 3.355-5.522 4.75-5.522.871 0 1.347-.692 1.347-1.957 0-.381.378-1.097.839-1.593.874-.938 1.079-1.537 1.13-3.303.02-.68.299-1.124.786-1.251.593-.155.816-.724 1.04-2.652.208-1.792.502-2.607 1.091-3.019.547-.383.875-1.184 1.022-2.495.12-1.061.579-2.419 1.021-3.017.85-1.152.984-1.774 1.038-4.813.024-1.387.191-1.9.619-1.9.897 0 1.294-1.148 1.382-3.995.05-1.6.302-2.841.658-3.234.656-.725.777-.684-2.826-.945-1.724-.124-3.527.114-6.4.846"/><path fill="#90af88" d="M264.598 42.053c-.295 1.163-4.276 2.879-8.198 3.535-1.43.239-3.32.689-4.2 1-.88.312-2.631.75-3.89.974-1.26.224-2.79.658-3.4.964-.611.307-2.01.774-3.11 1.038-1.1.265-2.778.853-3.729 1.308-1.436.687-2.266.796-4.9.644-1.744-.101-3.171-.023-3.171.174 0 .196.192.239.427.094.234-.145.639.005.9.334.993 1.254 6.933.816 9.273-.684.44-.282 1.79-.744 3-1.027 1.21-.283 2.65-.737 3.2-1.01.55-.272 2.17-.697 3.6-.943 1.43-.246 3.23-.645 4-.886.77-.242 3.02-.778 5-1.191 3.851-.805 5.098-1.693 5.53-3.94.255-1.326-.014-1.637-.332-.384M199.2 68.119c0 1.14 2.483 3.626 4.432 4.438.787.328 1.664.877 1.949 1.22.284.343.72.626.968.63.248.004 1.189.499 2.09 1.1a91.791 91.791 0 0 0 3.32 2.093c.925.55 2.327 1.495 3.116 2.1.789.605 1.68 1.1 1.98 1.1.3 0 .545.176.545.392 0 .215.675.763 1.5 1.216a30.35 30.35 0 0 1 2.71 1.708c6.179 4.514 8.806 5.836 10.392 5.228.508-.195.234-.414-1.059-.846-.958-.321-2.598-1.194-3.644-1.941-1.045-.746-2.016-1.357-2.156-1.357-.14 0-.455-.241-.699-.536-.61-.736-12.388-8.473-17.044-11.196-2.09-1.223-4.277-2.591-4.86-3.042-.583-.451-1.348-.931-1.7-1.066-.352-.135-.64-.676-.64-1.203 0-.584-.234-.957-.6-.957-.359 0-.6.369-.6.919m75 3.664c-1.54.28-3.88.824-5.2 1.207-6.066 1.761-10.564 3.15-12.4 3.829-1.1.406-2.77.958-3.71 1.226-2.748.783-6.36 4.755-4.325 4.755.341 0 .725-.418.853-.929.154-.612.736-1.106 1.708-1.449.81-.286 1.744-.745 2.074-1.021.33-.275 1.32-.624 2.2-.776.88-.152 2.32-.609 3.2-1.015.88-.407 2.567-.938 3.749-1.181 1.182-.243 2.622-.692 3.2-.997.578-.306 2.293-.763 3.812-1.015 1.518-.253 3.287-.732 3.932-1.065.749-.387 2.402-.622 4.592-.652 3.371-.047 3.407-.058 2.523-.774-1.028-.832-2.271-.861-6.208-.143M166.6 88.766l-1.6.252 1.8.305c2.152.363 5.167 1.421 6 2.105.33.271 1.23.792 2 1.159.77.366 2.178 1.092 3.13 1.612l1.73.947-1.53.425c-.842.233-2.79.427-4.33.429-1.54.003-4.584.274-6.765.602-6.499.98-9.435.844-9.435-.435 0-1.201-.659-1.133-1.515.155-.53.799-.515.879.166.891.412.007 1.098.277 1.525.6 1.187.897 8.16.589 21.11-.936 4.634-.545 3.967-1.875-2.486-4.96-.55-.263-1.46-.789-2.023-1.17-1.162-.786-5.172-2.376-5.777-2.29-.22.031-1.12.17-2 .309m160.625 29.548c-.048 1.748 1.226 2.927 5.149 4.762 2.104.984 4.096 1.959 4.426 2.167.33.207 1.32.749 2.2 1.204.88.455 2.5 1.34 3.6 1.967 1.1.626 2.63 1.46 3.4 1.854.77.393 1.909 1.123 2.531 1.623.622.5 1.365.909 1.651.909.286 0 .765.295 1.063.655 1.172 1.412 3.834 2.174 5.778 1.654 2.425-.648 2.043-1.223-.844-1.273-1.752-.03-2.695-.269-3.579-.903-1.526-1.097-4.503-2.968-5.8-3.647-.55-.287-1.9-1.037-3-1.666s-4.43-2.37-7.4-3.869c-6.529-3.295-8.382-4.457-8.818-5.533-.318-.786-.332-.782-.357.096M164.4 128.829c-1.21.196-4.9.623-8.2.949-3.3.326-7.71.877-9.8 1.224-9.473 1.574-11.253 1.877-15.2 2.581-2.31.413-4.65.921-5.2 1.13-.55.209-2.26.594-3.8.856-5.849.993-8.783 2.272-10.95 4.773a241.08 241.08 0 0 1-3.304 3.732c-.74.811-3.056 3.53-5.146 6.043-3.642 4.379-5.529 5.853-7.1 5.546-.275-.054-.5.27-.5.719 0 .63.253.814 1.1.8 2.221-.036 3.815-1.389 7.899-6.704a44.33 44.33 0 0 1 1.401-1.653c.55-.622 1.81-2.087 2.8-3.256 4.238-5.002 6.229-6.728 8.263-7.165 1.065-.228 2.567-.669 3.337-.978.77-.31 2.84-.778 4.6-1.039 1.76-.262 3.83-.716 4.6-1.011.77-.294 3.072-.729 5.116-.965 2.043-.237 4.473-.677 5.4-.976.926-.3 3.759-.745 6.295-.989s5.686-.733 7-1.086c1.743-.468 4.418-.658 9.888-.701 4.124-.032 7.499-.16 7.5-.283.007-1.434-2.578-2.101-5.999-1.547M318 150.4c-.484.313-.424.389.312.394 1.142.008 8.073 2.86 10.888 4.481.33.189 1.32.719 2.2 1.176.88.457 2.5 1.349 3.6 1.981 1.1.633 2.63 1.469 3.4 1.859.77.39 1.756 1.031 2.192 1.424.436.394 1.201.819 1.7.944.499.125.908.391.908.591 0 .2.63.663 1.4 1.031.77.367 1.4.882 1.4 1.144 0 .262.27.701.6.975.33.274.6.926.6 1.449 0 .547.237.951.558.951.619 0 .351-1.901-.489-3.47-1.116-2.086-7.843-6.287-18.469-11.536-2.97-1.467-5.878-2.92-6.462-3.23-1.219-.648-3.459-.732-4.338-.164M88.014 167.359c-.339 1.408-1.222 3.306-2.191 4.707-2.61 3.776-10.267 15.191-11.359 16.934-.552.88-1.403 2.23-1.892 3a92.834 92.834 0 0 0-2.086 3.537c-1.212 2.164-3.052 3.663-4.496 3.663-.434 0-.79.259-.79.576 0 .393.349.535 1.1.446a42.38 42.38 0 0 1 1.803-.176c.7-.046 1.995-1.304 2.848-2.767 1.698-2.913 2.416-4.092 3.456-5.679.648-.99 1.497-2.424 1.886-3.188.389-.763 1.022-1.708 1.407-2.1.385-.391.7-.864.7-1.05 0-.186.455-.861 1.01-1.5.556-.639 1.116-1.567 1.244-2.062.128-.495.389-.9.579-.9.191 0 .646-.585 1.013-1.3.366-.715.794-1.39.95-1.5.156-.11.759-.92 1.34-1.8 1.602-2.428 2.394-3.525 3.147-4.359.772-.854 1.252-3.369 1.04-5.452-.133-1.298-.179-1.234-.709.97m222.072.711c-.518 3.367-4.434 11.317-5.744 11.661-.361.094-.787.779-.946 1.52-.158.742-.465 1.568-.68 1.836-.667.829-3.116 4.993-3.116 5.299 0 .159-.451.813-1.002 1.452-.552.639-1.115 1.522-1.251 1.962-.137.44-.498 1.07-.803 1.4-.645.697-3.068 4.32-3.478 5.2-.154.33-.823 1.32-1.487 2.2-.663.88-1.65 2.23-2.191 3-.542.77-1.391 1.96-1.887 2.644-.495.684-1.259 1.764-1.697 2.4a24.877 24.877 0 0 1-1.7 2.152c-.497.548-.904 1.126-.904 1.286 0 .159-.373.701-.829 1.204-.455.503-2.174 2.624-3.818 4.714-6.354 8.075-7.425 9.2-8.76 9.2-.696 0-.903.169-.738.6.362.942 2.223.674 3.586-.516 1.723-1.506 12.365-14.972 15.87-20.084.377-.55 1.587-2.26 2.69-3.8 1.102-1.54 3.197-4.6 4.654-6.8l3.314-5c.934-1.406 6.438-10.499 7.579-12.52 1.837-3.257 2.047-3.685 2.05-4.18.001-.275.155-.5.341-.5 1.073 0 2.168-4.666 1.736-7.4l-.316-2-.473 3.07M127.4 171.464c-1.123.575-2.177 1.781-8.675 9.936-5.112 6.416-11.537 15.346-16.116 22.4a902.791 902.791 0 0 1-3.787 5.8c-.369.55-1.273 2.08-2.009 3.4-.735 1.32-1.561 2.67-1.834 3-.274.33-.854 1.23-1.289 2l-2.15 3.8a159.058 159.058 0 0 0-2.723 5.083l-1.364 2.684.629 2.516.628 2.517.045-2.682c.036-2.155.242-2.972 1.045-4.156.55-.811 1-1.789 1-2.175 0-.386.252-.798.56-.916.308-.118.774-.866 1.037-1.662.263-.796.923-1.934 1.468-2.528 1.865-2.035 2.03-2.284 2.58-3.881.303-.88.753-1.731 1-1.891.248-.159.687-.879.976-1.6.289-.72.942-1.818 1.452-2.44.51-.622.927-1.309.927-1.526 0-.218.45-.986 1-1.707.55-.722 1-1.459 1-1.64 0-.181.272-.614.605-.962.808-.846 3.183-4.455 3.51-5.334.143-.385.433-.7.645-.7.213 0 .491-.331.619-.735.129-.404.771-1.337 1.427-2.072.657-.735 1.194-1.543 1.194-1.795s.45-.881 1-1.398c.55-.517 1-1.135 1-1.374 0-.238.36-.658.8-.933.44-.275.8-.676.8-.892 0-.216.855-1.492 1.9-2.836 1.045-1.344 2.08-2.72 2.3-3.058.22-.337.76-1.009 1.2-1.493.44-.483 1.25-1.472 1.8-2.197.55-.725 1.945-2.453 3.1-3.838 1.155-1.386 2.1-2.713 2.1-2.949 0-.237.333-.43.74-.43 1.31 0 3.26-.861 3.26-1.439 0-.745-1.851-.688-3.4.103m202.543 28.672c-.697.475-1.461 1.224-1.698 1.664-2.178 4.056-9.682 15.659-15.783 24.405-2.189 3.138-2.558 4.378-2.087 6.995l.325 1.8.05-2.076c.027-1.142.23-2.188.451-2.325.221-.136.765-1.047 1.21-2.023.445-.977.963-1.776 1.15-1.776.188 0 .566-.54.839-1.2.273-.66.652-1.2.84-1.2.189 0 .712-.675 1.162-1.5.45-.825 1.546-2.49 2.435-3.7.888-1.21 1.788-2.56 1.998-3 .21-.44.922-1.52 1.581-2.4.66-.88 1.573-2.3 2.029-3.156.456-.856 1-1.756 1.209-2 .785-.916 3.146-4.833 3.153-5.231.004-.227.454-.837 1-1.355s.993-1.103.993-1.3c0-.197.465-.358 1.033-.358.608 0 .97-.192.879-.465-.263-.789-1.441-.703-2.769.201M51.364 232.542c.257 1.988 1.095 3.24 2.618 3.914.67.297 1.218.647 1.218.779 0 .21 4.382 2.929 6 3.723.33.162 1.5.815 2.6 1.451 9.183 5.309 14.81 7.482 17.186 6.638 2.521-.895 2.148-1.351-1.069-1.307-2.669.037-3.855-.249-5.517-1.327-.33-.215-2.13-1.132-4-2.038-1.87-.907-4.3-2.162-5.4-2.79-1.1-.628-2.45-1.38-3-1.672-5.42-2.88-9.146-5.652-10.118-7.528L51.164 231l.2 1.542m247.99 11.359c-.906.824-3.426 3.652-5.6 6.284-7.474 9.046-9.51 10.835-12.983 11.412-1.634.272-3.538.727-4.231 1.011-.694.285-2.584.719-4.2.965-1.617.246-3.84.702-4.94 1.014-1.1.312-3.62.772-5.6 1.023-1.98.251-4.59.704-5.8 1.005-1.21.302-4.27.745-6.8.984-2.53.239-6.04.682-7.8.984-7.932 1.361-12.839 1.223-12.444-.349.165-.657.028-.88-.569-.925-.584-.044-.787.193-.787.916 0 .536.187.975.416.975.229 0 .938.385 1.575.856 1.209.894 10.828.588 15.409-.49.88-.207 3.939-.647 6.798-.978 2.859-.331 6.189-.862 7.4-1.181 1.211-.318 3.786-.773 5.722-1.01 1.936-.238 4.006-.619 4.6-.848.594-.228 2.61-.674 4.48-.991 1.87-.316 4.12-.82 5-1.119.88-.3 2.617-.755 3.86-1.012 2.349-.485 2.88-.951 8.851-7.76.612-.697 1.35-1.537 1.642-1.867.292-.33 1.676-1.95 3.076-3.6 3.361-3.962 4.697-5.2 5.613-5.2.491 0 .758-.282.758-.8 0-1.298-1.611-.97-3.446.701M41.6 264.4c-.484.313-.424.389.311.394.978.006 4.361 1.687 7.289 3.619a48.5 48.5 0 0 0 3.4 2.029c.88.462 2.5 1.352 3.6 1.978 3.985 2.268 8.234 4.38 8.81 4.38.325 0 .59.165.59.367 0 .202.839.687 1.865 1.079 1.703.65 3.105 1.816 4.758 3.954.604.782.612.778.358-.141-.713-2.572-2.13-3.796-7.507-6.482-8.665-4.329-11.169-5.731-17.361-9.718-2.908-1.872-4.781-2.32-6.113-1.459m194.8 36.817c-1.43.164-5.3.416-8.6.559-3.3.144-7.232.452-8.737.685l-2.738.424 1.338 1.408c.735.774 2.057 1.764 2.937 2.198.88.435 2.5 1.311 3.6 1.947 3.643 2.105 4.53 2.391 7.187 2.318 3.579-.099 3.992-.591.725-.865-2.515-.211-11.269-3.976-11.351-4.883-.069-.755.642-1.024 4.239-1.605 2.277-.367 6.854-.679 10.626-.724 6.179-.074 6.571-.123 5.8-.724-1.2-.937-2.115-1.071-5.026-.738m-72.8 9.01c0 .279.921.481 2.4.525 2.377.072 3.07.372 6.358 2.754.527.382 1.369.964 1.871 1.294.502.33 2.004 1.365 3.337 2.3 1.334.935 2.592 1.7 2.796 1.7.204 0 .431.145.505.323.137.333 3.062 2.262 9.533 6.286.77.479 2.286 1.438 3.369 2.131 1.082.693 2.135 1.26 2.339 1.26.652 0 2.692 2.457 2.692 3.242 0 .417.27.758.6.758.365 0 .6-.372.6-.951 0-.523-.27-1.175-.6-1.449-.33-.274-.6-.743-.6-1.042 0-.3-.855-.999-1.9-1.554s-3.43-1.995-5.3-3.2c-1.87-1.204-3.67-2.313-4-2.463-.33-.151-1.32-.756-2.2-1.346-.88-.589-2.68-1.775-4-2.633-1.32-.859-2.49-1.655-2.6-1.769-.284-.293-5.715-3.988-7.72-5.252-1.848-1.165-7.48-1.853-7.48-.914m-14.171 7.602c-.346.345-.629.781-.629.968 0 .187-.585.461-1.3.61-.715.149-2.02.597-2.9.995-2.099.949-6.114 2.266-9.6 3.147-1.54.39-3.16.901-3.6 1.136-.44.236-2.102.629-3.694.874-1.592.246-3.738.733-4.771 1.084-1.944.66-4.619.517-5.602-.298-.278-.232-.737-.328-1.02-.214-.34.136-.291.216.144.237.362.018.75.274.864.57.57 1.487 8.41 1.669 9.308.216.12-.195.703-.364 1.295-.377 2.433-.052 15.698-4.153 19.986-6.179 1.818-.859 2.89-2.055 2.89-3.224 0-.393-.784-.133-1.371.455m14.171 28.602c-.77.158-3.2.926-5.4 1.707s-6.25 1.978-9 2.658c-4.421 1.094-6.994 1.76-12.498 3.234-1.785.478-3.392 2.77-1.941 2.77.429 0 1.109-.41 1.51-.912.566-.708 1.402-1.007 3.742-1.34 1.657-.235 3.637-.706 4.4-1.046.763-.34 2.72-.824 4.349-1.074 1.629-.251 3.429-.711 4-1.023.571-.312 2.021-.762 3.222-1s2.461-.664 2.8-.947c.73-.61 5.902-1.81 8.316-1.93 1.779-.088 2.417-.728.726-.728a6.844 6.844 0 0 1-1.9-.328c-.509-.181-1.556-.199-2.326-.041"/></g></svg>