<svg xmlns="http://www.w3.org/2000/svg" width="250" height="250" fill="none"><g fill-rule="evenodd" clip-path="url(#a)" clip-rule="evenodd"><path fill="#ACCCFC" d="M124.669 58.816c0 .122-.199.22-.442.22s-.442.1-.442.222c0 .121-.198.221-.441.221-.244 0-.442.1-.442.22 0 .122-.199.221-.442.221s-.442.076-.442.167c0 .214-1.163.732-1.738.775-.242.018-.391.112-.332.209.096.154-.484.262-.64.12-.033-.03-.298.165-.588.435-.29.271-.86.602-1.265.736-.406.133-.737.334-.737.447 0 .111-.13.203-.288.203-.406 0-1.475.52-1.477.718-.001.091-.201.166-.444.166s-.441.1-.441.22c0 .122-.199.221-.442.221s-.442.1-.442.22c0 .122-.254.222-.565.222-.311 0-.512.087-.446.193.066.106-.265.255-.736.33-.474.076-.914.291-.988.483-.073.19-.221.292-.329.226-.109-.067-.432.057-.72.276-.586.447-1.98 1.054-2.234.974-.092-.03-.166.047-.166.168 0 .121-.153.22-.341.22-.187 0-.554.2-.814.442-.261.243-.704.442-.985.442s-.51.1-.51.22c0 .122-.199.221-.442.221s-.442.1-.442.221c0 .122-.199.222-.441.222-.243 0-.442.074-.443.165-.001.09-.547.414-1.214.718-.667.303-1.213.626-1.214.717 0 .092-.25.166-.553.166-.303 0-.552.1-.552.22 0 .122-.149.222-.33.222-.183 0-.332.1-.332.22 0 .122-.199.221-.442.221s-.442.1-.442.221-.199.22-.441.22c-.243 0-.442.1-.442.222 0 .121-.199.22-.442.22s-.442.076-.442.167c0 .176-.835.57-1.767.834-.303.086-.726.309-.938.495-.213.187-.387.26-.387.16 0-.098-.198.002-.442.222-.242.22-.441.322-.441.228 0-.095-.125-.07-.276.054-.589.483-5.57 2.934-6.041 2.972-.274.023-.45.12-.39.215.091.148-.097.194-.696.17-.063-.003-.33.196-.594.441-.263.246-.555.447-.647.447-.092 0-1.082.497-2.2 1.104-1.118.608-2.17 1.104-2.34 1.104-.169 0-.52.199-.781.442-.261.242-.704.441-.985.441-.28 0-.51.1-.51.221 0 .122-.15.22-.331.22-.183 0-.332.107-.332.235 0 .129-.091.178-.203.109-.111-.07-.335.006-.497.168-.162.162-.367.314-.457.339-.09.025-.289.087-.442.137-.153.05-.477.128-.72.173-.243.044-.414.207-.38.36.032.154-.034.222-.148.15-.115-.07-.344-.003-.508.15-.165.153-.441.31-.615.349-.34.075-1.89.799-2.435 1.136-.182.112-1.126.582-2.098 1.043-2.261 1.073-2.688 1.435-2.23 1.892.182.183.27.394.195.47-.075.075-.004.136.159.136.425 0 3.312 1.39 3.312 1.594 0 .095.199.173.441.173.243 0 .442.093.442.207 0 .116.199.17.442.124.243-.047.442.009.442.123s.199.208.441.208c.243 0 .442.1.442.22 0 .122.199.222.442.222s.442.1.442.22c0 .122.204.222.454.222s.394.099.318.22c-.075.122.044.224.263.228.488.008 1.221.534 1.022.733-.079.078.072.144.335.144s.479.099.479.22c0 .122.074.21.165.195.484-.076.904.072 1.33.468.26.243.637.441.836.441.199 0 .625.178.947.395.323.217.885.528 1.25.691.831.374 1.982.955 2.976 1.504l.77.425 1.185-.624c.653-.343 1.326-.624 1.495-.624.17 0 .31-.1.31-.22 0-.122.198-.221.44-.221.244 0 .444-.075.445-.166.001-.202 1.074-.718 1.49-.718.166 0 .24-.099.165-.22-.076-.122.067-.222.317-.222s.455-.1.455-.22c0-.122.2-.221.442-.221.243 0 .442-.1.442-.221s.178-.22.397-.22c.494 0 1.587-.494 1.589-.719 0-.09.13-.165.289-.165.406 0 1.476-.52 1.478-.718 0-.09.256-.165.566-.165.32 0 .507-.096.43-.222-.122-.195.342-.328.844-.241.1.018.12-.07.042-.195-.077-.124-.037-.226.09-.226.125 0 1-.362 1.945-.803.944-.442 1.716-.766 1.716-.72 0 .048.314-.137.697-.41.383-.273.905-.496 1.159-.496.255 0 .463-.1.463-.221s.199-.22.442-.22.442-.075.443-.166c.003-.194 1.068-.718 1.46-.718.148 0 .302-.08.342-.177.112-.267 3.427-2.032 3.818-2.032.188 0 .342-.099.342-.22 0-.122.199-.221.441-.221.244 0 .442-.1.442-.22 0-.122.199-.222.442-.222s.442-.1.442-.22c0-.122.19-.221.423-.221.233 0 .457-.078.497-.174.089-.209 3.547-1.934 3.752-1.872.079.024.265-.102.413-.28.148-.178.362-.324.475-.324.114 0 .79-.29 1.502-.643.713-.353 1.354-.586 1.423-.515.071.07.128.011.128-.13 0-.142.199-.258.442-.258s.442-.1.442-.22c0-.123.198-.222.441-.222s.443-.075.444-.166c.002-.2 1.074-.717 1.491-.717.165 0 .239-.1.163-.221-.075-.122.063-.22.306-.22s.503-.1.578-.222c.075-.121.335-.22.578-.22.243 0 .381-.1.305-.221-.077-.126.108-.221.429-.221.311 0 .565.1.565.22 0 .122.199.221.442.221s.441.1.441.221c0 .122.199.221.443.221.242 0 .441.1.441.22 0 .122.199.222.442.222s.441.1.441.22c0 .122.15.222.332.222.182 0 .331.099.331.22 0 .122.199.221.442.221s.441.1.441.221c0 .122.199.22.442.22s.442.1.442.222c0 .121.146.22.326.22.443 0 2.324.93 2.324 1.148 0 .098.174.178.387.179.212 0 .671.15 1.019.331.348.181.77.33.938.33.169 0 .306.1.306.221s.159.22.353.22c.194 0 .616.184.938.408.323.224.91.546 1.305.716.394.17.717.385.717.476 0 .092.199.167.442.167s.442.1.442.221.198.22.442.22c.242 0 .441.1.441.222 0 .121.143.22.318.22.302 0 2.762 1.255 2.995 1.527.061.072.26.162.442.201.182.04 1.247.518 2.366 1.065 1.12.546 2.098.98 2.174.963.076-.017.275.15.442.37.168.22.308.311.311.202.004-.11.206-.02.449.2.243.22.442.33.442.247 0-.084.224-.029.497.123s.571.255.662.229c.092-.026.166.052.166.174 0 .121.1.22.223.22.336 0 2.306.948 2.39 1.15.041.096.265.175.497.175.233 0 .424.1.424.221 0 .122.248.221.552.221.304 0 .552.1.552.221 0 .122.199.22.441.22.244 0 .443.1.443.222 0 .121.198.22.441.22s.442.1.442.221c0 .122.199.221.441.221.244 0 .442.1.442.22 0 .122.199.222.442.222s.442.1.442.22c0 .122.204.221.455.221.25 0 .393.1.317.221-.074.122.01.22.188.22.377 0 2.208.917 2.316 1.16.041.091.264.166.497.166.233 0 .423.1.423.221s.199.22.442.22.442.1.442.222c0 .121.19.22.423.22.233 0 .456.095.497.21.04.115.545-.03 1.122-.324.577-.293 1.049-.489 1.049-.435 0 .054.467-.198 1.038-.56.57-.361 1.166-.657 1.325-.657.158 0 .288-.1.288-.221 0-.122.193-.221.429-.221.235 0 .49-.099.564-.22.076-.122.33-.222.566-.222.236 0 .429-.1.429-.22 0-.122.204-.221.454-.221s.394-.1.318-.221c-.075-.121.069-.22.319-.22s.455-.1.455-.222c0-.121.199-.22.441-.22.243 0 .442-.1.442-.221 0-.122.187-.221.415-.221.228 0 .537-.148.687-.33.15-.18.361-.273.469-.207.108.067.196.016.196-.113s.155-.233.344-.233c.19 0 .283-.1.208-.222-.075-.12.068-.22.318-.22s.455-.087.455-.194c0-.106.286-.25.636-.32.35-.07.775-.256.944-.414.169-.157.455-.32.634-.36.45-.102 3.738-1.741 4.11-2.049.583-.484.285-.803-1.631-1.75-1.063-.526-1.982-1.013-2.043-1.082-.06-.069-.259-.157-.441-.197-.183-.04-.365-.163-.405-.276-.041-.112-.259-.204-.484-.204-.226 0-.467-.092-.537-.204-.069-.112-.423-.27-.786-.349-.363-.08-.66-.234-.66-.343 0-.11-.248-.262-.552-.338-.304-.076-.552-.234-.552-.35 0-.116-.183-.18-.408-.141-.224.038-.572-.068-.773-.234-.201-.167-.365-.235-.365-.15 0 .084-.157-.004-.349-.196-.192-.192-.441-.293-.552-.223-.112.069-.203.02-.203-.109 0-.128-.149-.234-.332-.234-.181 0-.331-.099-.331-.22 0-.122-.199-.222-.441-.222-.244 0-.442-.1-.442-.22 0-.122-.255-.221-.565-.221-.321 0-.507-.096-.429-.221.075-.121-.068-.22-.319-.22-.249 0-.454-.1-.454-.222 0-.121-.199-.22-.442-.22s-.442-.1-.442-.221c0-.122-.198-.221-.441-.221s-.442-.1-.442-.22a.219.219 0 0 0-.216-.222c-.445 0-4.18-1.935-4.028-2.087.087-.087.059-.138-.062-.114-.521.105-1.01-.024-.881-.233.077-.125.058-.212-.042-.195-.49.085-.915-.06-1.346-.462-.261-.243-.624-.442-.808-.442-.408 0-1.942-.84-2.166-1.185-.089-.138-.163-.173-.165-.08-.002.095-.327 0-.721-.21-.396-.21-.793-.362-.884-.337-.091.025-.165-.048-.165-.16 0-.238-.86-.57-1.27-.491-.152.03-.277-.05-.277-.177s-.248-.23-.552-.23c-.303 0-.552-.1-.552-.222 0-.121-.199-.22-.442-.22-.242 0-.441-.1-.441-.221 0-.122-.199-.222-.442-.222s-.442-.099-.442-.22c0-.122-.199-.221-.442-.221-.242 0-.441-.1-.441-.22 0-.122-.199-.222-.442-.222s-.442-.1-.442-.22c0-.122-.204-.221-.454-.221s-.394-.1-.319-.221c.075-.122.002-.22-.163-.22-.417 0-1.489-.517-1.492-.719 0-.09-.2-.165-.443-.165s-.441-.1-.441-.22c0-.123-.199-.222-.442-.222s-.442-.1-.442-.221-.199-.22-.442-.22c-.242 0-.441-.1-.441-.222 0-.121-.199-.22-.442-.22s-.442-.1-.442-.221c0-.122-.119-.221-.265-.221-.369 0-5.653-2.62-5.816-2.884-.073-.118-.218-.163-.321-.099-.103.064-.326-.022-.494-.19-.169-.168-.624-.376-1.012-.461-.388-.085-.705-.247-.705-.358 0-.113-.199-.204-.442-.204s-.442-.1-.442-.22c0-.122-.199-.221-.441-.221-.243 0-.442-.1-.442-.221 0-.122-.199-.221-.442-.221s-.442-.075-.443-.166c-.002-.198-1.072-.718-1.478-.718-.158 0-.288-.1-.288-.22 0-.122-.198-.221-.441-.221s-.442-.075-.443-.166c0-.091-.546-.414-1.214-.718-.667-.303-1.213-.626-1.213-.717-.001-.091-.188-.166-.416-.166-.228 0-1.161-.397-2.072-.883-1.704-.908-2.151-1.046-2.151-.663m-.442 28.488c0 .121-.199.22-.442.22-.242 0-.441.1-.441.222 0 .12-.199.22-.442.22s-.442.1-.442.221c0 .122-.199.22-.442.22-.242 0-.441.1-.441.222 0 .121-.199.22-.442.22s-.442.1-.442.221c0 .122-.199.221-.441.221-.243 0-.442.1-.442.22 0 .123-.199.222-.442.222s-.442.1-.442.221-.2.22-.445.22c-.423 0-1.307.396-1.542.691-.061.077-.906.503-1.878.95-2.409 1.104-8.785 4.324-9.044 4.567-.115.108-.438.197-.717.197-.28 0-.508.099-.508.22 0 .122-.199.222-.442.222s-.443.074-.444.165c-.002.198-1.071.718-1.478.718-.158 0-.287.074-.288.166 0 .09-.546.413-1.213.717-.668.304-1.214.626-1.215.718 0 .09-.13.166-.288.166-.406 0-1.475.519-1.477.717-.002.091-.201.166-.444.166s-.441.099-.441.221c0 .121-.2.221-.442.221-.243 0-.442.099-.442.22 0 .122-.174.222-.386.222-.213.001-.672.15-1.02.332-.348.181-.728.33-.844.33-.116 0-.361.15-.544.333-.183.183-.415.283-.513.222-.1-.061-.237.036-.305.215a.35.35 0 0 1-.465.196c-.187-.071-.34-.02-.34.114 0 .135-.205.245-.455.245s-.393.099-.318.221c.075.121-.06.22-.3.22s-.474.112-.519.249c-.046.136-.352.248-.68.248h-.6v17.358l1.215.594c.669.327 1.215.683 1.215.789 0 .108.124.195.276.194.35-.002 4.005 1.817 4.104 2.042.041.093.195.168.343.168.392 0 1.457.524 1.46.718 0 .091.14.165.311.165.317 0 2.14.882 2.34 1.132.061.076.434.208.828.294.396.085.718.247.718.358 0 .112.142.204.316.204.174 0 .468.152.655.339.186.186.392.334.458.327.354-.035 1.222.293 1.222.462 0 .108.199.197.442.197.242 0 .441.099.441.22 0 .122.199.222.442.222s.442.099.442.22c0 .122.199.221.441.221.243 0 .442.1.442.221s.141.221.313.221c.172 0 .346.08.386.179.041.098.591.434 1.224.746.631.312 1.079.637.993.723-.085.085-.056.135.066.111.558-.113 1.009.025.862.262-.089.145-.062.196.064.118.24-.148 3.221 1.315 3.344 1.64.04.108.239.196.441.197.203 0 .766.246 1.252.545.486.299 1.033.55 1.214.556.183.006.58.206.884.443.304.238.681.435.837.438.157.002.563.21.901.46.34.251.758.489.931.529.829.195 1.306.409 1.306.587 0 .107.199.195.442.195s.442.099.442.221c0 .121.198.22.442.22.243 0 .441.1.441.221 0 .122.191.221.424.221.232 0 .46.113.507.252.094.284 1.719-.204 1.719-.517 0-.097.181-.177.401-.177.219 0 .613-.198.874-.441s.621-.442.801-.442c.18 0 .387-.095.458-.211.072-.116.277-.155.455-.087.178.069.324.015.324-.12 0-.134.199-.244.442-.244.246 0 .442-.147.442-.331 0-.183.075-.315.166-.296.37.081 1.503-.354 1.911-.734.239-.223.616-.406.836-.406.22 0 .4-.099.4-.221 0-.121.19-.221.423-.221.233 0 .457-.074.497-.165.104-.234 2.834-1.601 3.197-1.601.165 0 .3-.099.3-.221s.149-.221.331-.221c.182 0 .332-.1.332-.221s.248-.221.552-.221c.303 0 .552-.099.552-.221 0-.121.204-.22.454-.22.251 0 .394-.1.319-.221-.076-.122.043-.228.263-.237.22-.009.697-.204 1.062-.434.965-.608 3.28-1.754 3.509-1.736a.427.427 0 0 0 .331-.169c.132-.181 1.684-.953 1.908-.95.062.001.329-.199.593-.444.263-.246.698-.447.965-.447.268 0 .547-.155.62-.345.073-.19.221-.29.33-.224.108.068.319-.024.468-.203.149-.18.359-.272.467-.206.107.066.195.016.195-.113s.199-.234.442-.234.442-.075.442-.166c0-.179 1.212-.771 1.459-.714.082.019.209-.051.283-.155.191-.269 3.829-2.06 4.179-2.058.159.001.227-.098.152-.219-.075-.122.016-.221.203-.221.185 0 .763-.239 1.282-.531l.945-.53.057-8.504.058-8.504-.664-.295c-.366-.162-.666-.369-.666-.461 0-.092-.11-.167-.245-.167-.4 0-2.405-.976-2.405-1.171 0-.099-.091-.123-.203-.054-.112.069-.361-.033-.554-.226-.193-.193-.474-.309-.625-.259-.151.051-.374-.041-.496-.205-.121-.164-.468-.346-.772-.404-.303-.058-.584-.206-.625-.329-.041-.122-.265-.222-.498-.222-.233 0-.424-.1-.424-.221 0-.122-.198-.221-.441-.221s-.442-.075-.444-.166c-.002-.201-1.074-.718-1.491-.718-.164 0-.239-.099-.163-.22.076-.125-.103-.221-.41-.221-.301 0-.58-.075-.621-.166-.106-.239-1.935-1.16-2.303-1.16-.171 0-.31-.099-.31-.22s-.149-.22-.332-.22c-.182 0-.331-.117-.331-.258 0-.142-.062-.197-.138-.12-.128.128-2.273-.846-2.512-1.143-.061-.075-.26-.165-.442-.2-.542-.106-2.209-1.025-2.209-1.219 0-.098-.105-.113-.235-.033s-.386-.039-.568-.263c-.184-.225-.257-.26-.165-.077.187.365-.507-.086-.85-.552-.09-.122-.164-.146-.166-.055-.002.092-.475-.075-1.052-.37-2.191-1.118-4.377-2.115-4.64-2.115-.151 0-.274-.1-.274-.22 0-.122-.199-.222-.442-.222s-.442-.099-.442-.22c0-.122-.129-.222-.287-.222-.406 0-1.476-.519-1.478-.717-.001-.091-.201-.166-.444-.166-.242 0-.441-.099-.441-.22 0-.122-.199-.221-.442-.221s-.442-.1-.442-.221c0-.122-.199-.221-.441-.221-.243 0-.442-.1-.442-.22 0-.122-.199-.222-.442-.222s-.442-.1-.442-.22c0-.122-.199-.221-.441-.221-.243 0-.442-.1-.442-.221s-.348-.22-.773-.22c-.425 0-.773.099-.773.22"/><path fill="#649CF4" d="M62.166 127.953c0 32.903-.041 31.563.978 31.563.191 0 .347.099.347.221 0 .121.199.221.441.221.244 0 .443.099.443.22 0 .122.198.221.441.221s.442.1.442.221c0 .122.145.221.323.221.376 0 3.949 1.798 4.057 2.043.04.091.2.165.354.165.154 0 .717.23 1.251.51.534.279 1.32.646 1.745.814a12.18 12.18 0 0 1 1.601.819c.455.282.829.442.829.356 0-.087.118-.038.264.108.146.145.444.264.663.264.219 0 .397.1.397.221s.2.221.442.221c.243 0 .442.099.442.221 0 .121.198.22.442.22.242 0 .441.1.441.221 0 .122.2.221.442.221.243 0 .442.106.442.236 0 .129.25.204.557.166l.556-.07-.003-30.586c-.002-28.919-.024-30.601-.39-30.877-.214-.16-1.88-1.031-3.702-1.934s-3.561-1.783-3.865-1.957a13 13 0 0 0-1.27-.605c-.394-.159-.717-.364-.717-.455 0-.093-.2-.167-.442-.167-.243 0-.442-.1-.442-.221 0-.122-.199-.221-.442-.221s-.441-.099-.441-.221-.2-.221-.442-.221c-.243 0-.442-.081-.442-.18 0-.099-.348-.316-.773-.483-.425-.166-.773-.384-.773-.482 0-.099-.14-.18-.312-.18s-1.063-.398-1.98-.883c-.917-.486-1.721-.883-1.786-.883-.065 0-.118 13.919-.118 30.932m125.226-30.728c0 .13-.248.237-.552.237-.303 0-.552.1-.552.221s-.199.22-.442.22-.441.076-.441.167c0 .092-.323.307-.718.477-.395.17-.982.492-1.304.717-.323.224-.7.406-.838.406s-.464.2-.725.442c-.261.243-.654.442-.874.442-.22 0-.4.099-.4.221 0 .121-.134.221-.298.221-.387 0-1.684.63-2.225 1.081-.233.195-.352.229-.263.077.231-.394.058-.341-.522.162-.277.24-.59.383-.696.318-.106-.066-.193-.033-.193.073 0 .105-.72.533-1.601.951-.88.418-1.651.821-1.711.895-.061.074-.483.267-.939.43-.455.163-.828.376-.828.473 0 .097-.18.177-.401.177-.22 0-.617.203-.883.451l-.484.451.055 30.521.056 30.521.497.07c.274.039.497-.036.497-.166 0-.129.14-.236.311-.236.17 0 .692-.191 1.159-.424a26.475 26.475 0 0 1 1.567-.717c.395-.161.718-.377.718-.482 0-.105.141-.136.315-.07.173.067.434-.022.579-.197.146-.175.401-.318.568-.318.168 0 .304-.116.304-.258 0-.141.056-.202.125-.133.068.068.888-.248 1.822-.703.933-.454 2.592-1.258 3.685-1.787 1.094-.53 2.022-1.042 2.062-1.139.04-.096.264-.176.497-.176.232 0 .423-.077.423-.172 0-.095.447-.305.994-.466.547-.162.994-.364.994-.449 0-.086.348-.292.773-.459l.774-.304-.056-30.927c-.053-29.253-.076-30.931-.442-31.001-.213-.041-.387.032-.387.162m-28.008 34.385c-.524.27-1.191.647-1.483.838-.291.191-.682.347-.869.347-.186 0-.339.1-.339.221s-.124.221-.276.22c-.27 0-2.156.882-2.374 1.111-.061.064-.906.519-1.877 1.012a318.416 318.416 0 0 0-3.338 1.705c-.377.197-.75.293-.828.216-.077-.078-.141-.037-.141.09 0 .229-2.33 1.478-2.51 1.346-.052-.038-.303.121-.559.352-.255.231-.468.331-.472.221-.004-.11-.157-.001-.341.242-.183.242-.362.392-.397.331-.086-.148-2.414.929-2.62 1.212-.089.123-.163.142-.165.043-.002-.1-.292.025-.645.276-.353.251-.775.459-.939.462-.163.002-.546.199-.849.436-.304.238-.677.434-.829.437-.151.003-.275.104-.275.226 0 .121-.157.22-.347.22-.191 0-.497.151-.681.334-.183.183-.425.276-.536.207-.112-.069-.203-.019-.203.109s-.13.234-.288.234c-.406 0-1.475.519-1.478.717 0 .092-.2.166-.443.166s-.443.075-.443.166c-.002.198-1.072.717-1.478.717-.158 0-.287.088-.287.195 0 .21-1.331.827-1.602.741-.091-.028-.165.047-.165.168 0 .122-.205.221-.455.221s-.393.1-.318.222c.075.121-.069.22-.318.22-.251 0-.455.1-.455.221 0 .122-.132.221-.294.221-.162 0-.764.238-1.337.528-.987.499-1.762.541-2.03.108-.066-.107-.313-.194-.549-.194-.236 0-.429-.084-.429-.186s-.394-.316-.876-.475c-.482-.159-.823-.373-.76-.477.065-.103-.088-.188-.338-.188s-.455-.099-.455-.221c0-.121-.074-.196-.165-.168-.271.086-1.602-.531-1.602-.741 0-.107-.074-.172-.165-.145-.248.073-1.602-.574-1.602-.766 0-.092-.198-.167-.441-.167s-.442-.087-.442-.193c0-.106-.286-.251-.636-.32-.35-.07-.785-.277-.967-.459-.183-.183-.378-.286-.435-.229-.055.056-.469-.148-.919-.453-.45-.304-.876-.554-.947-.554-.072 0-1.707-.796-3.635-1.768-1.927-.973-3.507-1.693-3.51-1.601-.004.092-.106-.003-.227-.211-.122-.207-.566-.442-.988-.521-.421-.079-.767-.214-.767-.299 0-.085-.347-.292-.772-.458-.425-.167-.774-.384-.774-.483 0-.099-.139-.18-.31-.18-.368 0-2.197-.921-2.303-1.159-.04-.092-.205-.166-.366-.166-.354 0-2.181-.928-2.284-1.159-.04-.091-.189-.166-.328-.166-.421 0-3.022-1.361-3.022-1.581 0-.113-.124-.183-.276-.157-.39.067-1.49-.497-1.49-.764 0-.122-.063-.159-.14-.083-.075.076-.419-.007-.761-.184-1.638-.847-1.53-1.559-1.53 10.012 0 10.765.01 10.865.928 10.865.219 0 .398.081.398.18 0 .099.347.316.773.483.425.167.773.36.773.429s.323.259.718.423l1.49.616c.425.176.946.414 1.157.53.21.116.534.21.718.21.184 0 .334.1.334.221s.13.221.287.221c.158 0 .411.124.563.276.152.152.346.284.431.294.566.066 1.37.394 1.37.558 0 .108.198.197.441.197s.442.099.442.221c0 .121.198.221.441.221.244 0 .442.08.442.179 0 .099.348.316.773.483.425.167.773.384.773.483 0 .099.153.179.339.179.187 0 1.09.398 2.007.884s1.814.883 1.993.883c.179 0 .264.099.189.221-.076.122.068.221.318.221s.455.116.455.258c0 .141.064.193.142.114.122-.12 1.42.501 3.281 1.571.395.227 2.038.955 2.319 1.026.383.099 1.927.927 2.171 1.165.162.158.386.23.497.161.112-.069.203-.02.203.109 0 .128.199.233.442.233s.442.1.442.221.129.221.287.221c.406 0 1.476.519 1.478.718.001.091.206.165.456.165.251 0 .394.099.319.221-.078.125.108.221.428.221.311 0 .565.1.565.221s.199.221.442.221.442.099.442.221c0 .121.193.22.428.22.236 0 .491.1.566.221.075.122.329.221.565.221.236 0 .429.074.43.166.007.696 2.292.901 3.09.276.304-.238.657-.435.785-.437.371-.008 1.421-.541 1.422-.723.001-.091.201-.165.444-.165s.442-.1.442-.221.254-.221.565-.221c.32 0 .506-.096.428-.221-.075-.122.068-.221.319-.221.25 0 .455-.099.455-.221 0-.121.19-.221.423-.221.233 0 .456-.078.497-.173.081-.192 2.218-1.243 3-1.475.273-.081.497-.241.497-.354 0-.113.124-.204.276-.203.337.005 3.332-1.424 5.365-2.559.51-.285.991-.456 1.066-.38.077.077.139.023.139-.118 0-.142.199-.258.442-.258s.442-.099.442-.221.198-.221.441-.221.443-.075.444-.165c.002-.194 1.068-.718 1.459-.718.148 0 .302-.075.342-.167.041-.091.77-.513 1.62-.937.85-.424 1.58-.846 1.62-.938.041-.091.264-.166.497-.166.233 0 .423-.1.423-.221 0-.122.199-.221.442-.221s.442-.099.442-.221.153-.221.34-.221c.187 0 .733-.201 1.215-.446.48-.245.876-.37.877-.276.002.094.077.06.166-.074.142-.214 2.077-1.167 2.383-1.173.063-.001.272-.16.464-.353.193-.192.636-.407.986-.477s.636-.214.636-.32c0-.106.199-.194.442-.194s.441-.099.441-.22c0-.122.15-.221.332-.221.182 0 .331-.1.331-.221s.157-.221.347-.221c.982 0 .986-.042.925-11.062-.064-11.657.064-10.893-1.673-9.998Z"/><path fill="#4484F4" d="M122.82 29.78c-.834.424-1.655.77-1.822.77-.168 0-.305.1-.305.22 0 .122-.199.221-.441.221-.243 0-.442.088-.442.195 0 .108-.224.268-.497.357l-.608.2c-.06.022-.42.205-.799.408-.38.203-.753.306-.829.23-.076-.076-.138-.023-.138.12 0 .14-.199.257-.442.257s-.442.08-.442.18c0 .098-.348.316-.773.483-.425.166-.773.384-.773.483 0 .098-.15.18-.334.18-.361 0-1.24.44-1.453.728-.071.097-.342.192-.601.212-.259.02-.523.17-.586.334-.063.164-.215.237-.337.162-.123-.076-.223-.033-.223.096 0 .128-.198.233-.441.233s-.442.1-.442.222c0 .121-.174.223-.386.226-.213.002-.635.198-.939.436-.304.238-.726.434-.939.437-.213.002-.386.092-.386.199 0 .162-1.182.775-1.546.803-.061.004-.383.19-.716.413-.334.223-.761.345-.95.273-.198-.076-.287-.04-.21.086.125.201-.183.317-.632.237-.103-.02-.369.175-.59.43-.221.255-.464.447-.539.426-.266-.073-1.443.507-1.443.711 0 .114-.085.155-.188.09-.104-.063-.377.027-.608.201-.23.175-.593.32-.805.325-.213.004-.387.106-.387.227 0 .122-.149.221-.33.221-.183 0-.332.1-.332.22 0 .122-.15.222-.332.222-.182 0-.332.124-.334.276-.003.216-.04.217-.176.005-.126-.2-.256-.156-.487.165-.178.248-.57.437-.905.437-.325 0-.647.15-.717.332-.07.181-.255.334-.41.338-.485.013-1.955.787-1.796.946.083.083-.065.15-.328.15s-.479.1-.479.222c0 .12-.254.22-.564.22-.321 0-.507.096-.43.221.078.125-.108.22-.428.22-.31 0-.565.1-.565.222 0 .121-.2.221-.442.221-.243 0-.441.099-.441.22 0 .122-.2.222-.442.222-.243 0-.442.099-.442.22 0 .122-.192.221-.426.221-.234 0-.575.15-.757.331-.182.183-.587.332-.9.332-.312 0-.567.1-.567.22 0 .122-.13.221-.29.221-.16 0-.503.2-.764.442-.26.243-.681.441-.934.441s-.674.2-.934.443c-.261.242-.655.441-.875.441-.22 0-.4.1-.4.22 0 .122-.198.222-.442.222-.242 0-.441.1-.441.22 0 .122-.2.221-.442.221-.243 0-.441.1-.441.221 0 .122-.2.22-.442.22-.243 0-.442.1-.442.222 0 .121-.198.22-.442.22-.242 0-.441.1-.441.221 0 .122-.2.221-.442.221-.243 0-.442.1-.442.22 0 .122-.198.222-.442.222-.242 0-.442.075-.443.166-.002.198-1.072.717-1.478.717-.158 0-.287.1-.287.221 0 .122-.149.221-.331.221-.183 0-.332.075-.334.165-.001.199-1.07.718-1.478.718-.157 0-.286.1-.286.221s-.2.22-.442.22c-.243 0-.442.1-.442.222s-.199.22-.442.22c-.242 0-.441.1-.441.221 0 .122-.193.221-.43.221-.235 0-.49.101-.566.225-.077.123-.232.167-.345.097-.113-.07-.205-.021-.205.107 0 .129-.092.233-.204.233-.497 0-2.446 1.023-2.446 1.284 0 .158-.094.231-.207.161-.18-.11-2.138.679-2.444.985-.264.264-1.126.662-1.433.662-.183 0-.334.1-.334.221 0 .122-.198.221-.442.221-.242 0-.442.075-.443.166-.002.198-1.072.717-1.478.717-.158 0-.287.1-.287.221 0 .122-.205.221-.455.221s-.393.1-.318.22c.075.122-.069.222-.318.222-.25 0-.456.075-.457.166-.002.197-1.072.717-1.478.717-.158 0-.287.1-.287.221 0 .122-.19.22-.424.22-.232 0-.456.1-.496.22-.04.12-.34.24-.665.267-.326.028-.544.127-.485.223.06.096-.023.174-.182.174-.16 0-1.777.746-3.593 1.656-1.817.911-3.435 1.657-3.597 1.657-.162 0-.508.199-.768.441-.413.385-.614.46-1.169.437-.106-.004-.39.21-1.054.796-.149.13-.394.197-.545.147-.15-.05-.274.016-.274.148 0 .131-.203.239-.45.239-.248 0-.665.199-.925.442-.261.243-.605.441-.764.441-.16 0-.29.1-.29.221 0 .122-.248.221-.552.221-.304 0-.552.1-.552.22 0 .122-.15.222-.332.222-.181 0-.33.1-.33.22 0 .122-.25.221-.553.221-.304 0-.553.075-.554.166-.002.174-1.05.718-1.383.718-.223 0-.824.563-.824.773 0 .272.634.773.978.773.191 0 .347.099.347.22 0 .122.2.221.442.221.243 0 .442.1.442.22 0 .122.248.222.552.222.304 0 .552.1.552.22 0 .122.224.223.497.225.402.002.433.044.166.217-.258.167-.197.215.276.218.334.002.607.102.607.224 0 .122.2.221.442.221.243 0 .441.099.441.22 0 .122.15.222.332.222.182 0 .331.1.331.22 0 .122.199.221.442.221s.442.1.442.221.13.22.287.22c.407 0 1.476.52 1.478.719 0 .09.2.165.443.165s.442.1.442.22c0 .122.19.222.423.222.233 0 .457.075.497.165.04.091.57.4 1.178.687a47.32 47.32 0 0 1 1.546.758c1.505.809 2.787 1.351 3.053 1.29.1-.022.129.047.063.153-.122.197.305.448 1.577.927.395.148.718.356.718.463 0 .107.199.194.442.194s.442.1.442.221c0 .122.149.221.33.221.183 0 .332-.1.332-.22 0-.122.199-.222.442-.222.242 0 .441-.099.441-.22 0-.122.2-.222.442-.222.243 0 .442-.099.442-.22s.174-.223.387-.225c.212-.002.92-.298 1.573-.659.653-.36 1.267-.604 1.365-.544.098.06.234.02.303-.092.176-.286 1.843-1.13 2.231-1.13.179 0 .325-.084.325-.186s.398-.316.884-.477c.485-.16.883-.353.883-.428 0-.075.273-.255.607-.399.334-.143.757-.353.939-.466.182-.112.828-.438 1.436-.722.607-.285 1.154-.57 1.214-.632.06-.062.226-.135.367-.162.141-.027.62-.295 1.063-.595.442-.3.948-.492 1.123-.425.175.067.318.013.318-.122s.205-.245.455-.245.394-.1.318-.22c-.118-.192.33-.326.828-.247.091.014.166-.074.166-.195 0-.121.2-.22.442-.22.243 0 .442-.088.442-.195 0-.107.323-.318.717-.47 1.592-.61 1.933-.776 1.933-.936 0-.091.155-.166.344-.166.204 0 .28-.104.187-.255-.1-.163-.06-.195.11-.09.297.184 1.616-.281 1.47-.518-.05-.081.175-.17.5-.197.325-.026.625-.147.665-.267.04-.12.264-.22.497-.22.233 0 .423-.148.423-.33 0-.183.075-.314.166-.29.248.06 1.897-.69 2.048-.933.071-.116.398-.233.725-.26.327-.027.595-.127.595-.222s.215-.172.479-.172c.263 0 .41-.069.327-.152-.155-.155 1.734-1.138 2.23-1.161.153-.007.277-.112.277-.234 0-.12.205-.22.455-.22s.393-.1.318-.221c-.078-.125.108-.22.429-.22.31 0 .565-.1.565-.222 0-.121.19-.221.423-.221.233 0 .456-.074.497-.165.106-.239 1.935-1.16 2.303-1.16.17 0 .31-.1.31-.22 0-.122.2-.221.442-.221.243 0 .442-.093.442-.207 0-.114.348-.332.773-.486.425-.154.773-.365.773-.469 0-.104.087-.135.194-.07.236.146 1.573-.493 1.573-.752 0-.1.198-.131.442-.068.311.082.441.007.441-.254 0-.204.077-.323.171-.265.094.058.762-.185 1.485-.539.723-.355 1.442-.645 1.596-.645.155 0 .282-.099.282-.22 0-.122.199-.221.442-.221.242 0 .441-.1.441-.22 0-.122.199-.222.442-.222s.442-.1.442-.221.149-.22.331-.22c.182 0 .331-.1.331-.221 0-.122.199-.221.442-.221s.442-.1.442-.221c0-.122.198-.221.442-.221.242 0 .441-.1.441-.22 0-.122.199-.222.442-.222s.441-.1.441-.22c0-.122.199-.221.443-.221.242 0 .441-.1.441-.221s.156-.22.347-.22c.191 0 .497-.151.681-.334.183-.183.424-.277.536-.208.111.07.203.02.203-.108 0-.129.199-.235.442-.235.242 0 .441-.098.441-.22 0-.121.205-.221.455-.221s.393-.1.319-.22c-.078-.126.107-.222.428-.222.311 0 .565-.099.565-.22 0-.122.162-.221.361-.221.369 0 1.906-.855 2.024-1.127.036-.083.26-.1.497-.039.237.062.431.003.431-.133s.199-.247.442-.247.441-.1.441-.22c0-.123.109-.222.243-.222.133 0 .507-.189.832-.42.324-.231.787-.455 1.028-.497.24-.042.574-.205.74-.363.166-.158.589-.345.939-.414.349-.07.636-.196.636-.28 0-.083.348-.288.773-.455.425-.167.772-.384.772-.483 0-.099.199-.18.443-.18.242 0 .441-.099.441-.22s.19-.22.424-.22c.232 0 .473-.125.534-.277.089-.22.115-.22.129 0 .01.152.216.276.459.276.243 0 .442.1.442.22 0 .122.247.222.55.222.311 0 .67.191.827.441.151.243.381.442.512.442.13 0 .648.199 1.151.442.503.242 1.024.441 1.159.441.134 0 .173.115.086.255-.087.142-.061.196.058.122.119-.073.493.01.833.187.339.176.712.32.828.32.116 0 .361.15.545.333.183.183.425.277.536.207.112-.069.203-.02.203.109s.149.234.331.234c.183 0 .332.11.332.245 0 .15.234.196.607.119.334-.07.483-.072.331-.006-.378.165-.351.601.029.456.167-.064.43 0 .584.142.219.202.246.186.121-.073-.088-.182.037-.108.279.166.241.273.597.497.79.497.193 0 .351.1.351.22 0 .122.199.221.441.221.243 0 .442.076.442.167 0 .093.416.297.924.456.508.158 1.194.48 1.525.716.33.235.815.428 1.077.428.261 0 .425.082.362.184-.062.1.23.318.65.483.42.164.763.39.763.502 0 .112.135.152.299.088.164-.063.557.125.874.419.316.293.833.532 1.149.532.316 0 .52.09.453.198-.067.108.119.257.413.331.295.075.667.262.827.418.16.157.73.414 1.265.572.536.158 1.116.428 1.288.6.172.173.405.258.517.19.112-.07.203-.033.203.08 0 .115.298.332.663.483.364.15.662.35.662.442 0 .092.224.222.497.286.857.204 2.039.691 2.653 1.093.324.213.692.387.818.387s.229.1.229.22c0 .122.193.221.428.221.236 0 .49.1.565.22.076.122.33.222.566.222.235 0 .428.1.428.221s.205.22.455.22.394.1.318.222c-.079.128.145.22.539.22.372 0 .676.1.676.221 0 .122.199.221.442.221.242 0 .441.1.441.22 0 .122.199.222.442.222s.442.1.442.22c0 .122.199.221.442.221.242 0 .442.075.443.166.002.198 1.072.717 1.478.717.158 0 .287.1.287.221 0 .122.149.222.331.222.183 0 .331.099.331.22s.117.221.259.221c.399 0 3.275 1.4 3.275 1.594 0 .095.199.173.442.173s.442.1.442.22c0 .122.139.221.309.221.321 0 2.674 1.18 3.164 1.587.155.13.282.152.282.052s.118-.062.264.084c.146.146.444.265.663.265.219 0 .397.1.397.22 0 .122.199.222.442.222s.442.099.442.22c0 .122.199.221.442.221.242 0 .441.1.441.22 0 .122.199.222.442.222s.442.1.442.22c0 .122.199.221.442.221.242 0 .441.1.441.221s.199.22.442.22.442.1.442.222.19.221.423.221c.233 0 .457.075.497.166.041.092.769.514 1.62.938.85.424 1.579.846 1.619.938.041.091.264.166.497.166.233 0 .424.1.424.22 0 .122.198.222.441.222s.442.1.442.22c0 .122.079.197.176.166.218-.068 2.336.987 2.437 1.215.041.091.259.166.485.166.225 0 .475.106.556.235.08.13.289.18.466.113.176-.068.266-.035.2.072-.146.236.496.515.779.34.111-.068.202.03.202.22s.074.323.165.297c.091-.025.392.079.668.231.275.153.614.209.751.124.154-.095.19-.056.093.1-.099.161.01.255.297.255.25 0 .455.1.455.221s.199.22.442.22.441.076.441.167c0 .33 1.419.616 1.933.389.273-.12.497-.294.497-.387 0-.093.199-.169.442-.169.242 0 .441-.099.441-.22s.199-.221.442-.221.442-.106.442-.234.099-.172.221-.097c.121.075.221.03.221-.098s.198-.234.441-.234.442-.086.442-.192c0-.106.472-.322 1.049-.48.577-.16 1.198-.447 1.381-.638.181-.192.629-.486.993-.653a42.133 42.133 0 0 0 1.466-.716c.442-.226.963-.412 1.159-.412.196 0 .357-.093.357-.207 0-.114.348-.332.773-.486.425-.154.773-.359.773-.456 0-.097.149-.176.331-.176.183 0 .331-.1.331-.22 0-.122.205-.222.455-.222s.394-.1.318-.22c-.077-.126.109-.221.429-.221.311 0 .566-.075.567-.166.002-.199 1.071-.718 1.478-.718.158 0 .287-.093.287-.206 0-.114.348-.333.773-.486.425-.154.773-.36.773-.456 0-.098.199-.177.442-.177s.442-.1.442-.22c0-.122.156-.221.347-.221.344 0 .978-.501.978-.773 0-.273-.634-.773-.978-.773-.191 0-.347-.1-.347-.221 0-.122-.199-.221-.442-.221s-.442-.1-.442-.22c0-.122-.149-.222-.331-.222-.182 0-.332-.1-.332-.22 0-.122-.248-.221-.552-.221-.303 0-.552-.082-.552-.18 0-.099-.348-.316-.773-.483-.425-.167-.773-.384-.773-.483 0-.099-.198-.18-.441-.18-.244 0-.442-.099-.442-.22s-.199-.221-.442-.221-.442-.1-.442-.221-.139-.22-.31-.22c-.368 0-2.197-.922-2.303-1.16-.041-.091-.245-.166-.455-.166-.21 0-.583-.187-.829-.416-.245-.229-.78-.489-1.188-.578-.409-.09-.869-.276-1.023-.413-.791-.701-.993-.801-1.619-.801-.4 0-.731-.136-.806-.331-.07-.183-.316-.332-.545-.332-.23 0-.418-.1-.418-.22 0-.122-.199-.221-.442-.221s-.442-.1-.442-.221-.199-.22-.442-.22-.441-.1-.441-.222c0-.12-.13-.22-.288-.22-.406 0-1.475-.52-1.478-.718-.001-.091-.148-.166-.327-.166-.334 0-2.707-1.205-3.087-1.567-.115-.11-.444-.2-.73-.2-.292 0-.461-.097-.385-.22.075-.122-.018-.221-.208-.221-.189 0-.344-.1-.344-.22 0-.122-.261-.222-.581-.222-.321 0-.754-.199-.965-.442-.211-.243-.645-.463-.964-.49-.32-.026-.582-.107-.582-.18 0-.19-1.751-1.096-2.119-1.096-.171 0-.31-.1-.31-.221s-.151-.22-.336-.22c-.185 0-.73-.25-1.21-.553-.481-.304-1.026-.552-1.211-.552-.184 0-.335-.1-.335-.221 0-.122-.13-.22-.288-.22-.406 0-1.475-.52-1.478-.718-.001-.092-.141-.166-.31-.166-.17 0-.876-.298-1.569-.663-.692-.364-1.358-.662-1.478-.662-.12 0-.472-.199-.78-.442-.309-.243-.701-.441-.873-.441-.171 0-.524-.199-.785-.442s-.634-.442-.83-.442c-.195 0-.45-.086-.565-.19-.381-.347-2.647-1.508-3.479-1.782-.449-.15-.817-.373-.817-.497 0-.126-.142-.173-.315-.107-.173.066-.434-.022-.579-.197-.145-.175-.401-.319-.569-.319-.167 0-.304-.078-.304-.174 0-.096-.452-.296-1.005-.445-.693-.185-.957-.353-.848-.542.086-.15.079-.204-.016-.117-.095.085-.554-.04-1.02-.277-.467-.237-1.001-.432-1.188-.432-.187 0-.34-.1-.34-.22 0-.122-.199-.221-.442-.221s-.442-.1-.442-.221c0-.122-.198-.221-.441-.221s-.442-.075-.444-.166c-.002-.198-1.071-.718-1.477-.718-.159 0-.288-.08-.288-.18 0-.098-.347-.315-.773-.482-.425-.167-.773-.384-.773-.483 0-.099-.199-.18-.441-.18-.244 0-.442-.099-.442-.22 0-.122-.255-.221-.565-.221-.321 0-.507-.096-.429-.22.075-.123-.068-.222-.318-.222s-.455-.1-.455-.22c0-.122-.199-.221-.442-.221s-.442-.1-.442-.222c0-.12-.198-.22-.441-.22s-.442-.1-.442-.221c0-.122-.249-.22-.552-.22-.303 0-.552-.089-.552-.196 0-.197-.716-.503-1.326-.564-.181-.02-.306-.154-.275-.3.03-.147-.138-.266-.374-.266-.235 0-.491-.101-.567-.224-.076-.123-.232-.168-.344-.097-.114.07-.206-.029-.206-.218a.343.343 0 0 0-.339-.344c-.186 0-.829-.249-1.428-.552-.599-.304-1.242-.552-1.428-.552-.186 0-.339-.1-.339-.221 0-.122-.199-.221-.442-.221s-.441-.1-.441-.22c0-.122-.149-.222-.332-.222-.182 0-.331-.088-.331-.196 0-.108-.447-.329-.994-.49-.546-.162-.994-.353-.994-.425 0-.072-.348-.268-.773-.434-.425-.167-.773-.385-.773-.483 0-.1-.129-.18-.287-.18-.406 0-1.476-.52-1.478-.718-.001-.09-.2-.165-.443-.165s-.442-.1-.442-.221c0-.122-.129-.22-.287-.22-.407 0-1.476-.52-1.478-.719-.001-.09-.195-.166-.43-.166-.236 0-.491-.099-.566-.22-.075-.122-.329-.221-.565-.221-.236 0-.428-.1-.428-.221s-.154-.22-.341-.22c-.187 0-.554-.2-.815-.443-.26-.242-.629-.416-.819-.386-.189.03-.32-.07-.289-.22.03-.152-.144-.277-.387-.277-.243 0-.442-.105-.442-.234 0-.128-.083-.182-.184-.12-.102.064-.644-.13-1.205-.428s-1.161-.543-1.334-.543c-.173 0-.438-.149-.59-.331-.479-.578-1.955-.395-3.615.446M35 129.273c0 48.964-.05 46.585.978 46.585.191 0 .347.099.347.221 0 .121.2.22.442.22.243 0 .442.1.442.221 0 .122.23.221.51.221.281 0 .724.199.985.442.26.243.683.442.938.442.255 0 .403.099.328.22-.075.122.06.221.3.221s.47.104.513.231c.042.127.294.247.56.267.267.02.438.084.38.142-.114.113 1.851 1.093 2.236 1.114.128.007.45.214.713.459.264.246.534.438.6.427.21-.035 1.435.52 3.8 1.722 1.255.637 2.413 1.159 2.574 1.159.16 0 .455.181.655.401.2.221.861.537 1.47.703.609.165 1.107.382 1.107.482 0 .1.199.181.441.181.243 0 .442.074.443.166 0 .09.547.413 1.214.717.667.304 1.213.627 1.213.718 0 .091.2.166.443.166s.442.099.442.22c0 .122.199.221.441.221.243 0 .443.1.443.221s.198.221.441.221.442.099.442.221c0 .121.199.22.441.22.244 0 .442.1.442.221 0 .122.249.221.552.221.304 0 .552.099.552.221 0 .121.15.221.332.221.182 0 .33.099.33.22 0 .122.191.221.424.221.233 0 .457.076.497.167.041.091.77.514 1.62.938.85.423 1.58.846 1.62.937.04.092.247.167.46.167.212 0 .46.074.552.166.09.09.232.169.313.174.08.005.465.179.854.386.388.208.86.378 1.049.378.188 0 .342.099.342.221 0 .121.199.22.442.22s.442.1.442.222c0 .121.19.22.423.22.233 0 .456.075.497.167.04.092.77.513 1.62.937.85.425 1.578.846 1.62.938.04.092.263.166.496.166.233 0 .424.1.424.221 0 .122.254.221.564.221.32 0 .507.095.43.221-.076.122-.002.221.163.221.417 0 1.489.516 1.491.717 0 .092.2.166.443.166s.442.1.442.221c0 .122.199.221.441.221.244 0 .443.099.443.221 0 .121.148.221.33.221.183 0 .332.099.332.22 0 .122.208.221.463.221.254 0 .726.178 1.049.394.322.218.884.54 1.249.718.364.178.712.373.773.435.25.254 1.78.679 1.986.552.122-.075.222.017.222.207 0 .189.075.351.166.361.72.071 1.282.251 1.344.431.04.118.214.215.386.215.172 0 .313.099.313.22 0 .122.15.221.33.221.183 0 .333.1.333.221s.151.221.338.221c.495 0 3.427 1.462 3.262 1.626-.078.078.175.141.56.141.384 0 .699.074.699.166 0 .09.547.413 1.214.717.667.304 1.213.627 1.214.718 0 .091.15.165.332.165.182 0 .331.1.331.221 0 .122.18.221.398.221.218 0 .492.091.608.203.471.457 2.75 1.497 2.764 1.262.008-.138.124-.023.259.255.139.29.372.457.545.391.166-.064.358.031.427.21.069.18.219.269.333.199.114-.071.371.004.571.166.311.252.337.247.179-.036-.102-.182.034-.106.302.171.268.275.581.443.695.373.114-.07.208-.017.208.119 0 .135.088.192.195.126.108-.067.319.027.469.207.15.181.41.329.577.329.168 0 .304.116.304.258 0 .141.065.193.144.114.149-.149 1.901.721 2.029 1.008.04.091.295.166.565.166.271 0 .706.199.967.441.26.244.624.442.807.442.184 0 .685.199 1.114.442l1.559.883c.429.243.926.442 1.105.442.178 0 .325.074.326.166.002.186 1.062.717 1.434.717.133 0 .367.124.519.276.152.152.346.29.43.306.578.111 1.149.383 1.149.548 0 .107.146.195.325.195.178 0 .676.197 1.106.439.429.241.805.439.834.44.289.006 1.49.583 1.49.715 0 .095.148.173.331.173.182 0 .331.074.331.166.001.415 1.819.284 2.202-.159.215-.247.538-.449.719-.449.182 0 .684-.24 1.116-.533.432-.293.844-.475.914-.405.071.071.129.013.129-.129 0-.142.174-.258.387-.258.212-.001.711-.2 1.109-.443.398-.242.897-.44 1.111-.44.213 0 .53-.199.705-.442.176-.243.446-.442.601-.442.156 0 .283-.077.283-.172 0-.095.273-.195.608-.223.333-.027.64-.148.681-.269.04-.12.214-.219.386-.219.172 0 .313-.099.313-.221 0-.121.24-.22.534-.22.293 0 .566-.075.607-.166.106-.239 1.935-1.16 2.303-1.16.17 0 .31-.099.31-.22 0-.122.199-.221.442-.221s.442-.1.442-.221.198-.221.442-.221c.242 0 .441-.099.441-.221 0-.121.205-.22.455-.22s.393-.1.318-.221c-.075-.122.068-.221.318-.221.251 0 .455-.09.455-.2 0-.11.199-.149.442-.085.243.064.442.017.442-.104 0-.23 1.313-.859 1.601-.768.091.029.165-.046.165-.168 0-.122.157-.221.347-.221.192 0 .497-.149.679-.331.181-.182.597-.396.923-.475.325-.08.641-.204.702-.277.218-.261 1.105-.684 1.433-.684.183 0 .333-.099.333-.22 0-.122.189-.221.419-.221.23 0 .475-.15.546-.334.07-.183.205-.321.299-.307.336.051 1.166-.297 1.166-.489 0-.108.199-.195.442-.195s.442-.075.444-.166c.001-.198 1.071-.718 1.477-.718.158 0 .287-.099.287-.22 0-.122.191-.221.424-.221.232 0 .456-.075.497-.166.103-.234 2.833-1.601 3.196-1.601.166 0 .3-.1.3-.221s.199-.221.442-.221.442-.095.442-.211c0-.115.348-.275.773-.355.425-.08.773-.231.773-.336 0-.184 2.059-1.162 2.317-1.1.071.017.282-.123.469-.31.188-.188.433-.285.545-.216.111.069.202.02.202-.109 0-.128.199-.234.443-.234.242 0 .442-.074.443-.165.002-.198 1.072-.718 1.478-.718.158 0 .287-.083.287-.185 0-.245 1.011-.698 1.557-.698.237 0 .431-.099.431-.221 0-.121.141-.221.313-.221.172 0 .346-.074.386-.166.041-.09.968-.597 2.061-1.124a95.808 95.808 0 0 0 2.43-1.201c1.086-.594 3.008-1.484 3.206-1.484.12 0 .217-.099.217-.22 0-.122.199-.222.442-.222s.442-.105.442-.233c0-.129.088-.18.195-.113.108.066.315-.022.46-.197.145-.174.628-.437 1.074-.583a8.976 8.976 0 0 0 1.634-.785c.454-.285.917-.517 1.031-.517.114 0 .257-.125.318-.277.086-.211.116-.207.129.015.013.207.204.159.659-.165.353-.251.75-.457.883-.457.134 0 .242-.1.242-.221s.193-.221.429-.221.49-.099.565-.221c.075-.121.308-.22.516-.22.21 0 .524-.199.699-.442.175-.243.551-.442.835-.442.288 0 .456-.097.38-.22-.075-.122.068-.221.318-.221s.455-.105.455-.234.091-.178.203-.108c.112.069.365-.037.564-.236.198-.198.598-.361.888-.361.29 0 .582-.143.649-.318.067-.174.222-.255.345-.18.122.076.223.057.223-.041.003-.208 1.059-.731 1.478-.731.158 0 .288-.099.288-.22 0-.122.248-.221.552-.221.303 0 .552-.1.552-.221s.149-.221.331-.221c.183 0 .332-.099.332-.221 0-.121.19-.22.423-.22.233 0 .462-.116.509-.256.047-.141.323-.293.616-.337.292-.045.606-.203.698-.352.093-.148.296-.282.452-.297 1.024-.096 1.733-.391 1.623-.677-.066-.172-.025-.254.092-.182.116.072.5-.018.853-.201.352-.182.703-.285.779-.229.076.055.091.037.033-.041-.123-.166 1.804-1.183 2.241-1.183.162 0 .294-.099.294-.22 0-.122.199-.222.442-.222s.442-.099.442-.22c0-.122.198-.221.441-.221s.442-.1.442-.221.199-.221.442-.221.441-.099.441-.221c0-.121.199-.221.442-.221s.442-.099.442-.22c0-.122.198-.221.442-.221.243 0 .442-.075.442-.166 0-.091.547-.414 1.214-.717.667-.304 1.214-.627 1.214-.718 0-.091.149-.166.332-.166.182 0 .331-.099.331-.221 0-.121.249-.221.553-.221.303 0 .552-.099.552-.22 0-.122.156-.221.347-.221 1.028 0 .978 2.379.978-46.58 0-40.697-.038-45.949-.331-45.949-.183 0-.332.105-.332.234 0 .128-.091.177-.203.108-.112-.069-.355.026-.54.212-.186.186-.417.315-.515.288-.098-.026-.6.173-1.116.442-.516.27-.939.433-.939.36 0-.071-.157.027-.349.219-.192.192-.44.293-.552.224-.111-.07-.203-.02-.203.108 0 .129-.199.234-.442.234-.242 0-.441.087-.441.194 0 .106-.299.318-.663.469-.364.15-.663.34-.663.421 0 .08-.222.164-.493.184-.272.02-.529.141-.571.268-.042.127-.273.23-.513.23s-.375.1-.3.222c.077.124-.102.22-.41.22-.301 0-.58.08-.621.18-.04.099-.918.603-1.951 1.12-1.032.518-1.971 1.033-2.087 1.146-.115.112-.444.204-.73.204-.292 0-.461.098-.385.221.075.122-.018.221-.208.221-.189 0-.344.1-.344.22 0 .122-.199.222-.442.222s-.441.1-.441.22c0 .122-.199.221-.442.221s-.442.1-.442.221-.138.22-.308.22c-.566 0-.575.572-.579 35.849-.002 19.332-.076 35.257-.165 35.388-.09.132-.478.376-.865.544-.386.168-.644.399-.573.513.071.115.032.148-.088.074-.119-.073-.698.11-1.286.408-.589.298-1.202.541-1.363.541-.162 0-.294.1-.294.221 0 .122-.193.221-.429.221s-.491.101-.567.225c-.077.123-.214.178-.304.122-.092-.056-.434.146-.761.449-.327.304-.694.491-.815.416-.121-.074-.275.009-.343.185-.073.19-.297.276-.55.209-.235-.061-.428-.001-.428.135s-.149.247-.331.247c-.182 0-.331.099-.331.221 0 .121-.193.22-.429.22s-.49.1-.565.221c-.075.122-.287.221-.471.221-.183 0-.484.15-.667.334-.183.182-.424.276-.537.207-.111-.069-.202-.02-.202.109 0 .128-.199.233-.442.233s-.442.1-.442.221c0 .122-.199.221-.441.221-.244 0-.442.099-.442.221 0 .121-.188.221-.418.221-.23 0-.475.147-.544.327-.071.187-.272.272-.466.198-.186-.072-.339-.021-.339.113 0 .135-.149.245-.332.245-.182 0-.331.1-.331.221s-.199.221-.442.221c-.242 0-.441.099-.441.22 0 .122-.199.221-.442.221s-.442.1-.442.221-.199.221-.441.221c-.243 0-.442.099-.442.221s-.199.22-.442.22-.442.1-.442.222c0 .121-.199.221-.441.221-.243 0-.442.099-.442.22 0 .122-.199.221-.442.221s-.442.075-.443.166c-.002.198-1.072.717-1.478.717-.158 0-.287.1-.287.221 0 .122-.191.221-.423.221-.234 0-.457.074-.498.166-.1.227-1.669.938-2.068.938-.178 0-.324.099-.324.221s-.19.221-.423.221c-.233 0-.457.083-.498.185-.09.228-4.623 2.465-4.994 2.465-.148 0-.269.099-.269.221 0 .121-.149.22-.332.22-.181 0-.331.1-.331.222 0 .121-.199.22-.441.22-.243 0-.442.1-.442.221 0 .122-.199.221-.442.221s-.442.099-.442.221c0 .121-.19.221-.423.221-.233 0-.46.111-.506.248-.046.137-.352.249-.681.249-.329 0-.598.086-.598.192 0 .107-.149.194-.331.194-.183 0-.332.099-.332.221 0 .121-.129.22-.287.22-.406 0-1.476.52-1.478.718-.001.091-.2.166-.443.166s-.442.099-.442.221c0 .121-.248.221-.552.221-.304 0-.552.08-.552.178 0 .199-1.783 1.049-2.043.974-.091-.027-.166.04-.166.148 0 .109-.249.26-.552.336-.303.076-.552.242-.552.369 0 .126-.089.174-.198.107-.108-.068-.254.025-.323.204a.35.35 0 0 1-.465.196c-.186-.072-.34-.021-.34.114s-.074.228-.165.209c-.272-.059-1.39.454-2.112.968-.388.276-.594.344-.487.16.102-.176-.06-.096-.361.177s-.792.497-1.091.497c-.3 0-.688.199-.863.442-.175.242-.551.441-.835.441-.288 0-.456.098-.38.221.075.121-.068.221-.318.221s-.455.099-.455.221c0 .121-.204.221-.455.221-.25 0-.393.099-.318.221.075.121.002.221-.164.221-.416 0-1.488.516-1.49.717-.001.091-.255.166-.564.166-.309 0-.774.199-1.035.441-.261.243-.654.442-.874.442-.22 0-.4.099-.4.221 0 .121-.249.221-.552.221-.304 0-.553.099-.553.22 0 .122-.199.222-.441.222-.243 0-.442.075-.442.166 0 .092-.299.299-.664.461-.365.162-.608.383-.541.493.068.11-.03.141-.217.068-.205-.078-.398.018-.484.242-.099.257-.192.293-.301.117-.114-.184-.255-.159-.506.092-.191.191-.498.348-.681.348-.184 0-.396.099-.471.221-.075.121-.379.22-.676.22-.296 0-.539.1-.539.221 0 .122-.129.221-.287.221-.158 0-.411.124-.563.276-.152.152-.346.28-.431.285-.327.02-1.709.838-1.866 1.105-.09.154-.364.228-.607.165-.247-.065-.442-.007-.442.131 0 .136-.19.247-.424.247-.232 0-.473.124-.534.276-.089.221-.115.221-.129 0-.01-.152-.216-.276-.459-.276-.243 0-.442-.1-.442-.221 0-.122-.149-.221-.331-.221-.182 0-.331-.099-.331-.221 0-.121-.14-.221-.311-.221-.369 0-2.197-.921-2.303-1.16-.041-.092-.157-.116-.259-.053-.101.062-.341-.044-.533-.236s-.349-.29-.349-.218c0 .072-.422-.09-.939-.361-.516-.269-1.016-.469-1.11-.444-.095.026-.23-.103-.3-.286a.578.578 0 0 0-.491-.341c-.199-.003-.555-.153-.791-.331-.236-.178-.609-.324-.829-.324-.219 0-.399-.099-.399-.221 0-.121-.199-.22-.442-.22-.242 0-.441-.1-.441-.222 0-.121-.199-.22-.442-.22s-.442-.1-.442-.221c0-.122-.129-.221-.287-.221-.406 0-1.476-.52-1.478-.717-.001-.092-.201-.166-.443-.166-.243 0-.442-.1-.442-.221s-.249-.221-.552-.221c-.304 0-.552-.099-.552-.221 0-.121-.205-.22-.455-.22s-.394-.1-.318-.221c.075-.122-.068-.221-.319-.221-.25 0-.455-.1-.455-.221 0-.122-.204-.221-.454-.221s-.393-.1-.318-.221c.075-.121-.069-.221-.319-.221s-.454-.099-.454-.221c0-.121-.199-.22-.442-.22s-.442-.1-.442-.221c0-.122-.15-.221-.334-.221-.374 0-1.245-.446-1.466-.75-.078-.108-.288-.142-.465-.074-.176.068-.579-.117-.896-.41-.316-.293-.727-.532-.915-.532-.188 0-.341-.1-.341-.222 0-.121-.074-.197-.166-.168-.27.086-1.6-.531-1.6-.742 0-.106-.194-.194-.43-.194-.235 0-.49-.101-.567-.224-.076-.123-.231-.168-.344-.097-.113.069-.206.021-.206-.108 0-.128-.199-.233-.441-.233-.243 0-.442-.1-.442-.221s-.199-.221-.442-.221-.442-.099-.442-.22c0-.122-.15-.221-.334-.221-.184 0-.507-.088-.718-.195-.21-.108-.681-.332-1.046-.497-.365-.166-.712-.351-.773-.412-.06-.061-.63-.359-1.266-.663-.636-.304-1.158-.627-1.16-.718-.002-.091-.233-.165-.514-.165-.28 0-.724-.199-.985-.442-.26-.243-.577-.442-.704-.442a.226.226 0 0 1-.23-.22c0-.122-.23-.222-.51-.222-.281 0-.724-.198-.985-.441-.26-.243-.671-.442-.912-.442-.24 0-.5-.099-.575-.221-.075-.121-.286-.221-.47-.221-.183 0-.483-.148-.665-.33-.182-.183-.597-.397-.923-.477-.325-.081-.752-.33-.949-.553-.197-.223-.52-.406-.718-.406-.198 0-.36-.096-.36-.214s-.14-.161-.309-.095c-.17.065-.376.011-.457-.121-.081-.132-.24-.183-.354-.113-.113.07-.205.029-.205-.09 0-.246-1.236-.913-1.69-.913-.164 0-.298-.099-.298-.221 0-.121-.15-.221-.334-.221-.184 0-.507-.091-.718-.202a12.09 12.09 0 0 0-1.101-.469c-.395-.146-.718-.353-.718-.459 0-.107-.15-.194-.331-.194-.183 0-.332-.1-.332-.221 0-.122-.078-.197-.173-.166-.183.058-3.172-1.383-3.36-1.621-.061-.076-.488-.274-.949-.438-.46-.166-1.028-.477-1.26-.694-.233-.217-.656-.394-.94-.394-.285 0-.629-.111-.764-.246-.294-.294-1-.703-2.043-1.185-.42-.194-.82-.442-.888-.551-.067-.109-.371-.231-.676-.272-.305-.041-.95-.314-1.432-.608-.482-.293-.993-.512-1.136-.486a.42.42 0 0 1-.4-.179c-.076-.125-.29-.227-.474-.227-.183 0-.484-.15-.667-.333-.184-.184-.425-.277-.537-.208-.111.069-.203.02-.203-.108 0-.129-.129-.235-.287-.235-.406 0-1.476-.519-1.478-.717 0-.091-.13-.166-.289-.166-.406 0-1.476-.519-1.478-.718 0-.09-.175-.165-.388-.165-.367 0-.383-1.829-.33-35.775.052-31.886.022-35.775-.278-35.775-.42 0-2.402-.91-2.502-1.15-.04-.096-.215-.175-.387-.175-.172 0-.313-.1-.313-.22 0-.122-.276-.222-.614-.222-.36 0-.745-.182-.931-.442-.176-.242-.427-.441-.558-.441-.368 0-1.427-.532-1.429-.718 0-.091-.2-.165-.443-.165s-.442-.1-.442-.221c0-.122-.149-.221-.331-.221-.182 0-.331-.1-.331-.22 0-.122-.2-.222-.442-.222-.243 0-.442-.1-.442-.22 0-.122-.252-.221-.561-.221-.31 0-.771-.195-1.028-.434-.255-.239-.55-.382-.655-.318-.103.065-.248-.038-.32-.228-.074-.19-.254-.346-.402-.346-.148 0-.884-.297-1.636-.662-.753-.364-1.466-.662-1.586-.662a.22.22 0 0 1-.217-.221c0-.122-.142-.22-.315-.22-.174 0-.447-.13-.608-.29-.328-.324-.933-.588-1.672-.729L35 83.32v45.953"/><path fill="#4484FC" d="M167.736 49.768c0 .192.857.536.995.399.042-.043-.164-.192-.459-.33-.295-.14-.536-.17-.536-.069m-32.451 5.201c.143.173.417.314.608.314.448 0-.007-.5-.523-.577-.274-.04-.292.014-.085.263m-38.886 8.847c0 .118-.274.33-.607.47-.553.233-.558.244-.056.129.655-.15 1.024-.453.814-.663-.083-.083-.151-.054-.151.064m102.92 1.846c0 .121.149.221.331.221.182 0 .331-.1.331-.221s-.149-.22-.331-.22c-.182 0-.331.099-.331.22ZM70.749 76.699l-.522.436.606-.27c.333-.15.606-.346.607-.437.003-.254-.125-.204-.692.27m-8.783 4.439c-1.158.626-1.366.965-.241.39 1.22-.622 1.199-.608 1.086-.713-.05-.047-.431.098-.845.323Zm107.424 55.854c0 16.701.027 23.533.059 15.183.032-8.351.032-22.015 0-30.365-.032-8.35-.059-1.518-.059 15.182M60.952 167.026c.194.313 1.64 1.085 1.736.926.052-.085-.342-.367-.875-.627-.533-.261-.92-.395-.86-.299Zm18.662 9.507c0 .129.092.177.205.107.114-.07.268-.026.344.098a.515.515 0 0 0 .389.224c.138 0 .057-.146-.178-.324-.513-.388-.76-.422-.76-.105m-32.023 5.22c.002.181 1.127.778 1.245.661.036-.036-.23-.239-.59-.452-.362-.213-.656-.307-.655-.209m3.771 1.915c.445.389 1.17.622.894.287-.167-.203-.457-.368-.645-.368-.187 0-.3.036-.249.081Zm82.859 10.599c-.561.277-.624.483-.221.715.152.088.206.081.12-.014s.063-.356.331-.58c.546-.456.496-.482-.23-.121Zm-45.552 7.865c0 .096.198.226.442.29.242.063.441.037.441-.059s-.199-.226-.441-.29c-.244-.063-.442-.037-.442.059m53.889 9.243c0 .142-.223.269-.497.284-.409.021-.424.044-.087.131.441.113.984-.272.735-.522-.083-.082-.151-.034-.151.107Z"/><path fill="#4884F4" d="M80.605 136.881c0 16.64.025 23.414.058 15.054.032-8.359.032-21.974 0-30.254-.032-8.28-.058-1.44-.058 15.2"/><path fill="#4884F4" d="M80.605 136.881c0 16.64.025 23.414.058 15.054.032-8.359.032-21.974 0-30.254-.032-8.28-.058-1.44-.058 15.2"/></g><defs><clipPath id="a"><path fill="#fff" d="M35 29h180v191H35z"/></clipPath></defs></svg>