<svg xmlns="http://www.w3.org/2000/svg" xmlns:xlink="http://www.w3.org/1999/xlink" width="250px" height="250px" viewBox="0 0 250 249" version="1.1">
<g id="surface1">
<path style=" stroke:none;fill-rule:nonzero;fill:rgb(99.607843%,99.607843%,99.607843%);fill-opacity:1;" d="M 0 0 C 82.5 0 165 0 250 0 C 250 82.171875 250 164.339844 250 249 C 167.5 249 85 249 0 249 C 0 166.828125 0 84.660156 0 0 Z M 0 0 "/>
<path style=" stroke:none;fill-rule:nonzero;fill:rgb(4.313726%,60.392159%,43.137255%);fill-opacity:1;" d="M 124.574219 45.425781 C 125.128906 45.425781 125.683594 45.425781 126.238281 45.421875 C 129.949219 45.421875 133.578125 45.6875 137.242188 46.289062 C 137.414062 46.316406 137.585938 46.34375 137.761719 46.371094 C 140.441406 46.808594 143.058594 47.363281 145.660156 48.128906 C 146.179688 48.273438 146.699219 48.402344 147.222656 48.527344 C 148.042969 48.738281 148.808594 48.976562 149.597656 49.273438 C 150.433594 49.585938 151.269531 49.882812 152.117188 50.160156 C 158.84375 52.382812 165.339844 55.796875 171.027344 60.015625 C 171.261719 60.1875 171.5 60.359375 171.742188 60.535156 C 173.71875 61.980469 175.582031 63.53125 177.4375 65.125 C 177.730469 65.371094 177.730469 65.371094 178.03125 65.625 C 179.257812 66.679688 180.402344 67.800781 181.539062 68.953125 C 181.753906 69.167969 181.972656 69.386719 182.195312 69.609375 C 182.402344 69.8125 182.609375 70.019531 182.820312 70.230469 C 182.957031 70.363281 183.09375 70.496094 183.234375 70.632812 C 189.035156 76.320312 193.4375 83.445312 196.953125 90.707031 C 197.105469 91.023438 197.265625 91.339844 197.429688 91.652344 C 198.699219 94.113281 199.585938 96.71875 200.472656 99.339844 C 200.59375 99.703125 200.71875 100.066406 200.84375 100.429688 C 201.640625 102.726562 202.257812 104.976562 202.664062 107.375 C 202.816406 108.257812 203.007812 109.121094 203.222656 109.992188 C 204.066406 113.566406 204.394531 117.175781 204.410156 120.847656 C 204.414062 121.109375 204.414062 121.371094 204.417969 121.636719 C 204.527344 142.15625 198.484375 162.15625 184.144531 177.414062 C 183.648438 177.941406 183.175781 178.476562 182.707031 179.023438 C 180.921875 181.0625 178.992188 182.902344 176.871094 184.582031 C 176.136719 185.167969 175.425781 185.773438 174.710938 186.382812 C 171.789062 188.804688 168.640625 190.914062 165.34375 192.796875 C 164.875 193.070312 164.410156 193.347656 163.945312 193.625 C 160.039062 195.925781 155.816406 197.703125 151.539062 199.199219 C 151.238281 199.308594 150.9375 199.414062 150.628906 199.523438 C 146.757812 200.851562 142.796875 201.878906 138.765625 202.582031 C 138.546875 202.621094 138.328125 202.660156 138.101562 202.699219 C 137.367188 202.820312 136.632812 202.929688 135.898438 203.03125 C 135.570312 203.078125 135.246094 203.121094 134.910156 203.167969 C 131.625 203.59375 128.355469 203.644531 125.046875 203.636719 C 124.765625 203.636719 124.484375 203.636719 124.195312 203.636719 C 119.710938 203.632812 115.4375 203.351562 111.027344 202.519531 C 110.617188 202.453125 110.210938 202.382812 109.804688 202.316406 C 106.292969 201.730469 102.941406 200.707031 99.566406 199.597656 C 99.277344 199.503906 98.988281 199.410156 98.691406 199.3125 C 96.78125 198.675781 94.921875 197.957031 93.078125 197.15625 C 92.890625 197.078125 92.707031 196.996094 92.515625 196.914062 C 87.519531 194.71875 82.882812 191.90625 78.460938 188.730469 C 78.273438 188.59375 78.085938 188.460938 77.894531 188.320312 C 75.0625 186.273438 72.5 184.015625 70 181.578125 C 69.8125 181.398438 69.625 181.21875 69.433594 181.03125 C 67.265625 178.925781 65.175781 176.828125 63.332031 174.425781 C 63.132812 174.175781 62.933594 173.921875 62.726562 173.664062 C 58.285156 168.054688 54.507812 161.859375 51.832031 155.21875 C 51.539062 154.511719 51.214844 153.824219 50.882812 153.136719 C 50.246094 151.765625 49.84375 150.363281 49.460938 148.90625 C 49.269531 148.15625 49.269531 148.15625 48.980469 147.636719 C 48.699219 147.0625 48.554688 146.539062 48.414062 145.917969 C 48.363281 145.6875 48.308594 145.457031 48.257812 145.222656 C 48.203125 144.976562 48.148438 144.734375 48.09375 144.484375 C 48.035156 144.230469 47.980469 143.980469 47.921875 143.71875 C 47.457031 141.621094 47.039062 139.515625 46.667969 137.398438 C 46.597656 137.015625 46.527344 136.636719 46.457031 136.257812 C 46.386719 135.867188 46.320312 135.472656 46.25 135.082031 C 46.203125 134.824219 46.203125 134.824219 46.152344 134.5625 C 44.203125 123.199219 45.660156 109.828125 49.742188 99.089844 C 49.871094 98.722656 50 98.351562 50.125 97.980469 C 50.792969 96.03125 51.511719 94.140625 52.40625 92.28125 C 52.703125 91.671875 52.988281 91.058594 53.265625 90.4375 C 56.292969 83.71875 60.605469 77.570312 65.578125 72.136719 C 65.960938 71.71875 66.34375 71.296875 66.722656 70.871094 C 68.714844 68.636719 70.808594 66.566406 73.078125 64.613281 C 73.234375 64.476562 73.390625 64.339844 73.550781 64.199219 C 79.242188 59.277344 85.859375 55.015625 92.820312 52.097656 C 92.976562 52.027344 93.132812 51.953125 93.292969 51.878906 C 95.109375 51.03125 97.003906 50.402344 98.898438 49.753906 C 99.304688 49.609375 99.707031 49.460938 100.105469 49.304688 C 102.1875 48.511719 104.3125 47.988281 106.472656 47.484375 C 106.664062 47.441406 106.855469 47.394531 107.054688 47.351562 C 112.84375 46.003906 118.632812 45.40625 124.574219 45.425781 Z M 124.574219 45.425781 "/>
<path style=" stroke:none;fill-rule:nonzero;fill:rgb(98.823529%,99.607843%,99.215686%);fill-opacity:1;" d="M 95.898438 72.273438 C 147.753906 72.273438 147.753906 72.273438 155.972656 80.253906 C 160.867188 85.417969 161.988281 91.761719 161.871094 98.605469 C 161.785156 101.28125 161.324219 103.773438 160.257812 106.238281 C 160.152344 106.5 160.152344 106.5 160.042969 106.765625 C 158.785156 109.765625 157.011719 112.246094 154.871094 114.667969 C 155.597656 115.417969 156.359375 116.078125 157.179688 116.726562 C 160.785156 119.660156 163.972656 122.769531 166.152344 126.925781 C 166.234375 127.078125 166.3125 127.226562 166.394531 127.382812 C 170.09375 134.5 171.078125 143.195312 168.71875 150.933594 C 167.320312 155.078125 165.226562 159.144531 162.308594 162.425781 C 162.097656 162.667969 161.886719 162.910156 161.667969 163.160156 C 159.074219 166.109375 156.21875 168.371094 152.820312 170.339844 C 152.609375 170.476562 152.394531 170.613281 152.175781 170.753906 C 150.527344 171.804688 148.792969 172.5 146.96875 173.183594 C 146.550781 173.351562 146.132812 173.527344 145.71875 173.707031 C 143.851562 174.519531 142.019531 175.0625 140.03125 175.496094 C 139.757812 175.558594 139.484375 175.625 139.203125 175.6875 C 125.113281 178.847656 110.335938 176.726562 95.898438 176.726562 C 95.898438 142.257812 95.898438 107.789062 95.898438 72.273438 Z M 95.898438 72.273438 "/>
<path style=" stroke:none;fill-rule:nonzero;fill:rgb(4.705882%,60.392159%,43.137255%);fill-opacity:1;" d="M 144.101562 122.839844 C 144.726562 123.242188 145.265625 123.632812 145.832031 124.101562 C 145.992188 124.230469 146.148438 124.359375 146.3125 124.488281 C 150.554688 127.96875 153.914062 132.601562 154.617188 138.164062 C 155.039062 144.257812 153.765625 149.367188 149.789062 154.140625 C 146.195312 158.148438 141.28125 160.644531 136.152344 162.121094 C 135.984375 162.171875 135.8125 162.222656 135.640625 162.273438 C 132.179688 163.199219 128.632812 163.265625 125.082031 163.242188 C 124.648438 163.238281 124.21875 163.238281 123.785156 163.238281 C 122.667969 163.238281 121.546875 163.230469 120.429688 163.226562 C 119.28125 163.21875 118.132812 163.21875 116.984375 163.214844 C 114.742188 163.210938 112.5 163.203125 110.257812 163.191406 C 110.226562 160.828125 110.203125 158.460938 110.191406 156.097656 C 110.183594 155 110.175781 153.898438 110.160156 152.800781 C 110.144531 151.738281 110.136719 150.675781 110.136719 149.613281 C 110.132812 149.210938 110.128906 148.808594 110.121094 148.40625 C 110.039062 143.496094 111.566406 139.613281 114.984375 135.984375 C 117.816406 133.265625 121.304688 131.011719 125.128906 129.992188 C 126.300781 129.671875 127.429688 129.304688 128.5625 128.859375 C 128.863281 128.742188 129.167969 128.621094 129.484375 128.5 C 129.796875 128.375 130.109375 128.25 130.433594 128.125 C 130.742188 128.003906 131.050781 127.882812 131.367188 127.757812 C 134.578125 126.492188 137.738281 125.164062 140.851562 123.683594 C 141.089844 123.574219 141.324219 123.464844 141.570312 123.355469 C 141.78125 123.253906 141.988281 123.15625 142.207031 123.054688 C 142.894531 122.816406 143.378906 122.761719 144.101562 122.839844 Z M 144.101562 122.839844 "/>
<path style=" stroke:none;fill-rule:nonzero;fill:rgb(4.313726%,60.000002%,43.137255%);fill-opacity:1;" d="M 110.257812 86.066406 C 116.746094 86.023438 116.746094 86.023438 123.367188 85.984375 C 124.726562 85.972656 126.085938 85.960938 127.484375 85.949219 C 129.160156 85.945312 129.160156 85.945312 129.949219 85.941406 C 130.492188 85.941406 131.035156 85.9375 131.578125 85.929688 C 135.667969 85.882812 139.183594 86.0625 142.5625 88.617188 C 142.738281 88.746094 142.910156 88.875 143.089844 89.007812 C 145.054688 90.578125 146.226562 92.523438 146.667969 95.003906 C 147.085938 99.046875 146.277344 102.425781 143.847656 105.730469 C 143.726562 105.894531 143.605469 106.058594 143.480469 106.230469 C 140.699219 109.699219 136.335938 111.925781 132.308594 113.644531 C 132.125 113.722656 131.941406 113.804688 131.753906 113.882812 C 131.1875 114.125 130.617188 114.367188 130.046875 114.605469 C 129.875 114.675781 129.707031 114.746094 129.527344 114.820312 C 128.382812 115.289062 127.226562 115.660156 126.039062 116.003906 C 117.292969 118.519531 117.292969 118.519531 110.769531 124.371094 C 110.601562 124.371094 110.429688 124.371094 110.257812 124.371094 C 110.257812 111.730469 110.257812 99.089844 110.257812 86.066406 Z M 110.257812 86.066406 "/>
<path style=" stroke:none;fill-rule:nonzero;fill:rgb(18.82353%,63.137257%,49.803922%);fill-opacity:1;" d="M 71.027344 66.398438 C 71.027344 67.445312 70.617188 67.714844 69.917969 68.476562 C 69.714844 68.703125 69.507812 68.929688 69.296875 69.164062 C 68.71875 69.71875 68.71875 69.71875 67.949219 69.976562 C 67.871094 70.136719 67.789062 70.300781 67.707031 70.46875 C 67.375 71.113281 67.070312 71.246094 66.410156 71.507812 C 67.082031 70.1875 68.101562 69.257812 69.152344 68.234375 C 69.332031 68.058594 69.511719 67.882812 69.695312 67.699219 C 70.136719 67.265625 70.582031 66.832031 71.027344 66.398438 Z M 71.027344 66.398438 "/>
<path style=" stroke:none;fill-rule:nonzero;fill:rgb(21.176471%,63.529414%,50.588238%);fill-opacity:1;" d="M 117.179688 134.078125 C 117.347656 134.160156 117.519531 134.246094 117.691406 134.332031 C 117.558594 134.445312 117.425781 134.554688 117.289062 134.667969 C 116.195312 135.597656 115.242188 136.523438 114.359375 137.652344 C 114.191406 137.566406 114.019531 137.484375 113.847656 137.398438 C 114.878906 136.167969 115.910156 135.066406 117.179688 134.078125 Z M 117.179688 134.078125 "/>
<path style=" stroke:none;fill-rule:nonzero;fill:rgb(78.431374%,91.764706%,88.627452%);fill-opacity:1;" d="M 112.5625 121.820312 C 112.734375 121.902344 112.902344 121.988281 113.078125 122.074219 C 112.664062 122.59375 112.234375 123.105469 111.792969 123.605469 C 111.625 123.605469 111.457031 123.605469 111.28125 123.605469 C 111.613281 122.871094 111.964844 122.363281 112.5625 121.820312 Z M 112.5625 121.820312 "/>
</g>
</svg>
