<svg width="250" height="250" fill="none" xmlns="http://www.w3.org/2000/svg"><path d="M116.167 25.7022C116.167 19.4179 120.144 14.998 125.8 14.998C131.456 14.998 135.496 19.4153 135.496 25.7022C135.496 31.9891 131.457 36.156 125.8 36.156C120.143 36.156 116.167 31.7987 116.167 25.7022ZM110.262 25.7022C110.262 34.9748 116.726 41.5094 125.799 41.5094C134.872 41.5094 141.399 34.9748 141.399 25.7022C141.399 16.4296 134.936 9.64722 125.799 9.64722C116.663 9.64722 110.262 16.307 110.262 25.7022ZM80.118 10.0201L92.3006 41.1348H98.0196L110.201 10.0201H104.048L95.2226 34.0412H95.0976L86.2718 10.0201H80.118ZM56.4375 24.5809C56.8099 18.8546 60.6017 14.998 65.7607 14.998C70.2348 14.998 73.5917 17.8611 74.0891 22.1558H63.7711C60.1043 22.1558 58.1146 22.5913 56.625 24.5835H56.4375V24.5809ZM50.5337 25.5144C50.5337 34.787 57.0599 41.5068 66.0706 41.5068C72.162 41.5068 77.5059 38.3959 79.8054 33.478L74.8339 30.9878C73.0943 34.2238 69.7374 36.1534 66.0706 36.1534C61.6564 36.1534 57.6797 32.7922 57.6797 29.5562C57.6797 27.8769 58.7987 27.1285 60.4142 27.1285H80.1153V25.4492C80.1153 16.1141 74.149 9.64201 65.5732 9.64201C56.9974 9.64201 50.5328 16.3018 50.5328 25.5118M33.6286 41.1313H39.2226V22.0298C39.2226 17.9229 41.7695 14.9971 45.3139 14.9971C46.8061 14.9971 48.3583 15.4952 49.1057 16.1784C49.6656 14.6842 50.5354 13.1927 51.8401 11.6985C50.3479 10.4547 47.801 9.64375 45.3139 9.64375C38.4777 9.64375 33.6286 14.7468 33.6286 22.0272V41.133V41.1313ZM6.59393 20.5374V5.35078H15.7921C18.899 5.35078 20.9511 7.15523 20.9511 9.8932C20.9511 13.0041 18.2792 15.3692 12.8103 17.1736C9.08099 18.3548 7.40385 19.3509 6.78143 20.5348L6.59393 20.5374ZM6.59393 35.784V29.4371C6.59393 26.6366 8.95598 23.8986 12.2504 22.8399C15.1723 21.8438 17.5943 20.8477 19.6464 19.7916C22.3809 21.4109 24.058 24.2089 24.058 27.1346C24.058 32.1125 19.3339 35.784 12.9327 35.784H6.59393ZM1 41.1348H13.4301C22.8783 41.1348 29.9619 35.2234 29.9619 27.3823C29.9619 23.0876 27.7873 19.231 23.933 16.7407C25.9227 14.7485 26.855 12.446 26.855 9.64548C26.855 3.85924 22.6908 0 16.4146 0H1V41.1348Z" fill="#0B996E"></path><path fill-rule="evenodd" clip-rule="evenodd" d="M82.1193 49.3407C81.8583 49.0972 81.5064 48.975 81.1503 49.0043C80.7942 48.975 80.4423 49.0972 80.1813 49.3407C79.9204 49.5842 79.7746 49.9264 79.78 50.2828C79.8328 50.999 80.4306 51.5532 81.1503 51.5532C81.8701 51.5532 82.4679 50.999 82.5207 50.2828C82.5261 49.9264 82.3803 49.5842 82.1193 49.3407ZM74.9615 63.4454H77.0393L77.0541 49.2703H74.8319V54.9684C74.1467 53.7712 72.4134 53.1836 71.1283 53.1836C68.0653 53.1836 65.7765 55.0276 65.7765 58.4346C65.7765 61.7604 68.1098 63.6856 71.1727 63.6856C72.6245 63.739 74.0036 63.051 74.8319 61.8602L74.9615 63.4454ZM34.1696 54.9278C32.7992 54.9278 31.9215 55.3712 31.9215 56.162C31.9215 56.9528 32.8437 57.3002 34.214 57.4406C36.1621 57.6032 38.688 57.9284 38.688 60.5225C38.688 62.3701 36.9103 63.6856 34.1918 63.6856C32.477 63.6856 30.8289 63.3161 29.377 61.838L30.5326 60.3599C31.5027 61.3133 32.8116 61.8447 34.1733 61.838C35.351 61.838 36.5066 61.4906 36.5066 60.5594C36.5066 59.6282 35.6066 59.3215 34.0436 59.1811C32.0733 59.0185 29.74 58.442 29.74 56.2248C29.74 54.0077 32.1622 53.1836 34.1288 53.1836C35.5962 53.1545 37.0308 53.6177 38.2028 54.4991L37.0473 55.8184C36.2121 55.2142 35.2008 54.9012 34.1696 54.9278ZM45.9879 61.7419C47.099 61.7419 48.3879 61.3724 49.0508 60.6666L50.4878 61.9821C49.3953 63.1387 47.5731 63.6856 45.9472 63.6856C42.4768 63.6856 40.251 61.6384 40.251 58.4346C40.251 55.3934 42.562 53.1836 45.9027 53.1836C49.0101 53.1836 51.1508 54.9056 51.1508 58.357C51.1508 58.6379 51.1286 58.9446 51.1063 59.2476H42.5509C42.7361 60.807 44.0324 61.7419 45.9879 61.7419ZM42.5694 57.5034C42.9065 55.8812 44.299 55.0497 45.9027 55.0497C47.736 55.0497 48.8471 55.8997 48.973 57.5034H42.5694ZM61.3654 57.8249C61.3654 56.1029 60.3358 55.1089 58.5173 55.1089C57.7143 55.1012 56.9431 55.422 56.3833 55.9966C55.8235 56.5712 55.524 57.3494 55.5544 58.1501V63.4454H53.3322V53.4275H55.347L55.4766 54.8243C56.357 53.7775 57.6588 53.1761 59.0284 53.1836C61.5765 53.1836 63.5691 54.6839 63.5691 57.8064V63.4454H61.3469L61.3654 57.8249ZM67.9802 58.4346C67.9802 60.4633 69.4357 61.7419 71.3134 61.7419C73.138 61.7419 74.6171 60.2662 74.6171 58.4457C74.6171 56.6253 73.138 55.1495 71.3134 55.1495C69.4357 55.1495 67.9802 56.4059 67.9802 58.4346ZM82.2429 63.4454H80.0207V53.4275H82.2429V63.4454ZM90.3983 55.1089C92.2205 55.1089 93.2464 56.1029 93.2464 57.8249L93.2279 63.4454H95.4501V57.8064C95.4501 54.6839 93.4575 53.1836 90.9094 53.1836C89.5388 53.1761 88.2358 53.7773 87.3539 54.8243L87.2243 53.4275H85.2132V63.4454H87.4354V58.1501C87.4039 57.3491 87.7031 56.5702 88.2631 55.9954C88.8231 55.4206 89.5949 55.1002 90.3983 55.1089ZM100.506 55.0682C101.191 53.8709 102.928 53.1836 104.209 53.1836C107.25 53.1836 109.565 55.0313 109.565 58.4346C109.565 61.7604 107.08 63.6856 104.191 63.6856C102.861 63.6856 101.343 63.1387 100.506 61.8602L100.38 63.4454H98.3019V49.2703H100.524L100.506 55.0682ZM101.615 60.8122C100.976 60.187 100.621 59.3276 100.635 58.4346C100.629 57.5458 100.986 56.6929 101.624 56.0728C102.262 55.4527 103.126 55.1193 104.017 55.1495C105.939 55.1495 107.35 56.4059 107.35 58.4346C107.35 60.4633 105.946 61.7419 104.017 61.7419C103.122 61.7734 102.254 61.4373 101.615 60.8122ZM114.209 63.4454H111.987V49.2703H114.209V63.4454ZM122.198 61.7604C120.335 61.7604 119.327 60.5853 119.327 58.8818L119.335 53.4275H117.131V58.9002C117.131 61.923 118.983 63.6856 121.576 63.6856C122.975 63.7322 124.317 63.1339 125.216 62.0634L125.346 63.4454H127.335V53.4275H125.131V58.7376C125.166 59.5327 124.871 60.3069 124.316 60.8787C123.761 61.4504 122.995 61.7693 122.198 61.7604ZM135.431 61.7419C136.542 61.7419 137.827 61.3724 138.494 60.6666L139.927 61.9821C138.835 63.1387 137.016 63.6856 135.387 63.6856C131.92 63.6856 129.69 61.6384 129.69 58.4346C129.69 55.3934 132.005 53.1836 135.346 53.1836C138.449 53.1836 140.59 54.9056 140.59 58.357C140.59 58.5974 140.574 58.8568 140.558 59.1165C140.555 59.1602 140.552 59.2039 140.549 59.2476H131.983C132.179 60.807 133.483 61.7419 135.431 61.7419ZM132.013 57.5034C132.346 55.8812 133.738 55.0497 135.346 55.0497C137.164 55.0497 138.279 55.8997 138.412 57.5034H132.013Z" fill="black"></path><path d="M5.49 63.864C2.808 63.864 0.882004 62.244 0.882004 58.896C0.882004 55.782 2.754 54 5.454 54C7.974 54 9.846 55.872 9.846 58.5C9.846 58.716 9.828 58.932 9.81 59.166H2.322C2.358 61.416 3.69 62.604 5.49 62.604C7.038 62.604 8.028 61.596 8.298 60.318H9.774C9.504 62.442 7.794 63.864 5.49 63.864ZM2.322 58.158H8.37C8.262 56.412 7.182 55.26 5.4 55.26C3.726 55.26 2.448 56.25 2.322 58.158Z" fill="black"></path><path d="M10.344 63.576L13.908 58.824L10.542 54.288H12.234L13.008 55.332C13.602 56.16 14.196 57.006 14.808 57.888H14.88C15.492 57.006 16.104 56.142 16.716 55.296L17.454 54.288H19.146L15.69 58.824L19.344 63.576H17.67L16.572 62.118C16.014 61.344 15.456 60.57 14.88 59.742H14.808C14.232 60.57 13.656 61.362 13.08 62.154L12.018 63.576H10.344Z" fill="#0092FF"></path></svg>