<svg xmlns="http://www.w3.org/2000/svg" width="250" height="250" fill="none"><path fill="#E96D49" fill-rule="evenodd" d="M106.944 42.124c-13.969.913-29.79 6.61-40.944 14.743-14.005 10.211-21.976 19.64-29.02 34.322C31.085 103.47 29 112.812 29 126.927 29 139.028 28.401 141 24.723 141c-1.032 0-3.238 1.361-4.902 3.025-2.425 2.425-2.897 3.566-2.38 5.75 1.332 5.632 3.262 6.225 20.247 6.225h15.466l2.923 2.923c1.608 1.608 2.923 3.653 2.923 4.546 0 2.773-4.62 6.531-8.03 6.531-2.119 0-4.064.941-6.047 2.923-3.4 3.4-3.678 5.922-1.014 9.216 1.896 2.344 2.096 2.365 27.398 2.861 23.255.456 25.672.667 27.591 2.405 2.619 2.374 2.704 6.63.192 9.734-1.858 2.298-2.387 2.369-19.75 2.676-16.534.292-18.005.469-20.09 2.424-2.932 2.749-2.855 6.246.205 9.306L61.91 214h132.182l2.454-2.455c3.115-3.114 3.115-5.976 0-9.09L194.091 200h-25.095c-27.254 0-30.338-.532-31.572-5.446-1.445-5.76 2.959-9.554 11.092-9.554 7.418 0 10.442-2.218 10.469-7.677.019-4.017-3.873-7.323-8.62-7.323-7.816 0-10.175-8.978-3.293-12.537 2.337-1.209 9.426-1.463 40.768-1.463 34.677 0 38.116-.15 40.007-1.75 1.137-.963 2.358-2.976 2.712-4.475.517-2.184.045-3.325-2.38-5.75-2.958-2.958-3.243-3.025-12.902-3.025-6.349 0-10.306-.429-11.077-1.2-.798-.798-1.208-5.24-1.224-13.25-.052-27.095-11.814-50.721-33.29-66.874-18.693-14.059-37.153-19.224-62.742-17.552Zm66.819 129.441c-5.118 2.777-4.821 9.209.576 12.5 4.013 2.447 16.283 2.699 20.681.425 5.622-2.907 6.391-7.233 2.057-11.567-2.797-2.797-3.303-2.921-11.75-2.883-5.844.027-9.752.542-11.564 1.525Zm42 0c-5.279 2.865-4.921 10.183.627 12.816 4.299 2.04 15.441 2.134 20.14.171 4.608-1.925 6.413-5.781 4.393-9.381-.816-1.453-2.595-3.204-3.953-3.892-3.493-1.767-17.778-1.574-21.207.286Z" clip-rule="evenodd"/></svg>