<?xml version="1.0" standalone="no"?>
<!DOCTYPE svg PUBLIC "-//W3C//DTD SVG 20010904//EN"
 "http://www.w3.org/TR/2001/REC-SVG-20010904/DTD/svg10.dtd">
<svg version="1.0" xmlns="http://www.w3.org/2000/svg"
 width="512.000000pt" height="512.000000pt" viewBox="0 0 512.000000 512.000000"
 preserveAspectRatio="xMidYMid meet">

<g transform="translate(0.000000,512.000000) scale(0.100000,-0.100000)"
fill="#000000" stroke="none">
<path d="M2280 4231 c0 -5 -57 -11 -127 -14 -88 -3 -152 -11 -203 -26 -41 -12
-96 -25 -121 -31 -25 -5 -71 -20 -102 -34 -31 -15 -62 -26 -69 -26 -34 -1
-336 -176 -367 -214 -7 -9 -18 -16 -23 -16 -17 0 -282 -271 -313 -321 -5 -9
-30 -47 -55 -85 -40 -60 -56 -88 -98 -171 -62 -121 -117 -288 -144 -438 -23
-130 -30 -370 -15 -497 l9 -68 -69 0 c-82 0 -134 -28 -154 -85 -7 -19 -17 -35
-21 -35 -10 0 -11 -37 0 -42 4 -1 15 -20 24 -41 10 -20 32 -46 50 -57 31 -19
51 -20 338 -20 l306 0 31 -29 c67 -61 65 -170 -4 -226 -31 -24 -47 -29 -112
-33 -68 -4 -79 -7 -108 -35 -31 -29 -33 -35 -33 -96 0 -75 14 -98 72 -124 32
-15 88 -17 494 -17 402 0 462 -2 494 -16 91 -40 95 -202 7 -251 -29 -16 -69
-18 -369 -21 -278 -3 -339 -6 -348 -18 -7 -8 -19 -14 -27 -14 -17 0 -43 -59
-43 -100 0 -68 47 -130 97 -130 13 0 23 -4 23 -10 0 -7 417 -10 1230 -10 813
0 1230 3 1230 10 0 6 13 10 29 10 21 0 38 10 60 35 26 30 31 44 31 85 0 66
-13 96 -52 117 -30 16 -76 18 -533 23 -459 5 -503 7 -533 23 -40 22 -62 69
-62 129 0 55 17 87 59 115 30 21 46 23 148 23 94 0 121 4 153 20 64 32 87 109
56 183 -20 48 -51 64 -136 69 -129 7 -181 63 -166 178 4 35 13 52 42 78 l37
32 749 0 c543 0 755 3 771 11 59 31 95 100 82 157 -8 36 -53 88 -88 101 -17 7
-116 11 -243 11 -201 0 -215 1 -210 18 3 9 10 69 16 132 17 180 -11 423 -67
590 -13 41 -28 90 -33 107 -11 47 -139 299 -161 319 -11 10 -19 22 -19 29 0 7
-11 24 -25 39 -14 15 -25 31 -25 35 0 23 -250 278 -309 315 -20 13 -42 31 -50
40 -7 9 -19 16 -26 16 -6 0 -20 9 -29 19 -10 11 -37 29 -59 41 -23 11 -55 28
-72 37 -16 9 -41 22 -55 29 -14 7 -38 19 -55 27 -146 73 -408 137 -562 137
-55 0 -93 4 -93 10 0 6 -11 10 -25 10 -14 0 -25 -4 -25 -9z"/>
<path d="M3381 1686 c-30 -31 -33 -40 -33 -94 0 -75 13 -99 65 -123 36 -16 67
-19 209 -19 205 0 235 9 268 80 28 59 20 105 -25 154 l-33 36 -209 0 -209 0
-33 -34z"/>
<path d="M4185 1687 c-40 -40 -51 -95 -31 -152 11 -31 23 -45 57 -62 40 -21
58 -23 212 -23 145 0 174 3 211 19 35 17 45 27 56 63 8 24 19 46 25 51 7 5 7
9 -1 15 -6 4 -14 20 -18 36 -4 16 -20 41 -36 57 l-28 29 -207 0 -207 0 -33
-33z"/>
</g>
</svg>
