<svg version="1.2" baseProfile="tiny-ps" xmlns="http://www.w3.org/2000/svg" viewBox="0 0 1671 886" width="1671" height="886">
	<title>colour-svg</title>
	<style>
		tspan { white-space:pre }
		.shp0 { fill: #00b2a9 } 
		.shp1 { fill: #34b233 } 
		.shp2 { fill: #c70099 } 
		.shp3 { fill: #6e2ca9 } 
	</style>
	<g id="Components">
		<g id="component/nav-header">
			<g id="elements/brand/logo/colour">
				<path id="D-1" fill-rule="evenodd" class="shp0" d="M63.22 885.05C28.3 885.05 0 855.57 0 819.19L0 66.81C0 30.43 28.3 0.95 63.22 0.95C98.13 0.95 126.43 30.43 126.43 66.81L126.43 819.19C126.43 855.57 98.13 885.05 63.22 885.05Z" />
				<path id="D-2" fill-rule="evenodd" class="shp1" d="M342.97 885.05L256.27 885.05C219.48 885.05 189.65 855.58 189.65 819.21C189.65 782.84 219.48 753.37 256.27 753.37L342.97 753.37C516.11 753.37 656.97 614.13 656.97 443.02C656.97 271.88 516.11 132.65 342.97 132.65L256.27 132.65C219.48 132.65 189.65 103.16 189.65 66.79C189.65 30.42 219.48 0.95 256.27 0.95L342.97 0.95C589.58 0.95 790.21 199.26 790.21 443.02C790.21 686.76 589.58 885.05 342.97 885.05Z" />
				<path id="V-1" fill-rule="evenodd" class="shp2" d="M1262.86 885.05C1238.48 885.05 1215.14 870.98 1204.15 847L859.5 94.65C844.4 61.68 858.42 22.5 890.82 7.13C923.21 -8.24 961.71 6.02 976.82 39L1321.48 791.34C1336.58 824.31 1322.56 863.49 1290.16 878.87C1281.33 883.06 1272.01 885.05 1262.86 885.05Z" />
				<path id="V-2" fill-rule="evenodd" class="shp3" d="M1385.24 632.45C1376.34 632.45 1367.32 630.46 1358.72 626.25C1327.27 610.85 1313.66 571.59 1328.33 538.57L1550.3 39.05C1564.99 6.03 1602.37 -8.27 1633.82 7.15C1665.28 22.55 1678.88 61.81 1664.21 94.83L1442.24 594.35C1431.57 618.35 1408.91 632.45 1385.24 632.45Z" />
			</g>
		</g>
	</g>
</svg>