<svg width="250" height="250" viewBox="0 0 250 250" fill="none" xmlns="http://www.w3.org/2000/svg">
  <g transform="translate(25 25) scale(4.44444)">
    <path fill-rule="evenodd" clip-rule="evenodd" d="M23.5422 0L25.0998 14.1444C25.1837 14.9055 26.0747 15.2744 26.6721 14.7954L37.7748 5.89529L39.1892 7.30951L30.2889 18.4124C29.81 19.0098 30.1789 19.9007 30.9401 19.9845L30.9395 19.9849L45.0838 21.5421V23.5422L25.6785 25.6788L23.5419 45.084H21.5418L19.9845 30.9398C19.9007 30.1786 19.0098 29.8097 18.4124 30.2887L7.30951 39.1889L5.89529 37.7745L14.7954 26.6718C15.2744 26.0744 14.9055 25.1834 14.1444 25.0995L0 23.5422V21.5421L19.4055 19.4053L21.5421 0H23.5422ZM24.9703 19.5719C23.3515 19.4237 21.7324 19.4237 20.1136 19.5719C19.8427 19.5975 19.5975 19.8427 19.5719 20.1136C19.4237 21.7324 19.4237 23.3515 19.5719 24.9703C19.5974 25.2412 19.8427 25.4866 20.1136 25.5122C21.7324 25.6601 23.3515 25.6601 24.9703 25.5122C25.2412 25.4866 25.4866 25.2412 25.5122 24.9703C25.6604 23.3515 25.6604 21.7324 25.5122 20.1136C25.4866 19.8427 25.2412 19.5974 24.9703 19.5719Z" fill="#0D0D41"/>
  </g>
</svg>
