<svg version="1.1" id="Layer_1" xmlns="http://www.w3.org/2000/svg" xmlns:xlink="http://www.w3.org/1999/xlink" x="0px" y="0px"
	 width="100%" viewBox="0 0 512 512" enable-background="new 0 0 512 512" xml:space="preserve">
<path fill="#FFFFFF" opacity="1.000000" stroke="none" 
	d="
M277.000000,513.000000 
	C184.689072,513.000000 92.878143,513.000000 1.033606,513.000000 
	C1.033606,342.397369 1.033606,171.794754 1.033606,1.096060 
	C171.560944,1.096060 342.121979,1.096060 512.841492,1.096060 
	C512.841492,171.666550 512.841492,342.333252 512.841492,513.000000 
	C434.461395,513.000000 355.980682,513.000000 277.000000,513.000000 
M117.670158,396.127441 
	C117.703415,372.096191 117.736664,348.064972 118.107574,323.385498 
	C120.489815,314.827026 125.895622,309.333801 134.454391,306.752106 
	C140.028122,305.070770 145.473877,302.967041 150.984894,301.075653 
	C224.829803,275.731842 298.636261,250.275101 372.540131,225.104416 
	C405.742340,213.796188 422.490326,177.284805 415.106934,148.607864 
	C408.129517,121.507538 382.857819,99.204277 355.057526,98.196060 
	C273.207855,98.179390 191.358170,98.162079 109.508484,98.155121 
	C108.682762,98.155052 107.857025,98.291687 106.347626,98.270805 
	C101.006699,100.301506 98.840195,104.081497 98.944756,109.861588 
	C99.191414,123.497986 99.024284,137.141876 99.024246,150.782745 
	C99.024155,190.374527 99.013176,229.966324 99.035110,269.558105 
	C99.038475,275.631775 102.258652,279.492340 107.504524,279.951599 
	C112.439941,280.383667 115.988708,277.525146 117.575081,271.376495 
	C117.605812,220.932983 117.637451,170.489487 117.657158,120.045967 
	C117.657417,119.386833 117.505745,118.727631 118.150642,117.518768 
	C118.802261,117.408493 119.453865,117.201752 120.105499,117.201630 
	C197.432114,117.187164 274.759888,116.945145 352.084717,117.316841 
	C379.986359,117.450958 400.857849,141.799850 397.276337,168.901718 
	C394.629272,188.932159 382.914764,201.557587 364.007172,208.033218 
	C284.921204,235.119232 205.854446,262.261444 126.789925,289.410095 
	C109.435059,295.369263 99.032166,310.107147 99.026047,328.563629 
	C99.017647,353.894775 99.018990,379.225891 99.026314,404.557037 
	C99.028755,412.984436 102.018028,415.973328 110.451271,415.973846 
	C182.611679,415.978271 254.772079,415.965363 326.932495,415.980713 
	C368.293762,415.989502 412.725128,384.651276 416.567871,330.228455 
	C418.755402,299.247345 406.400543,273.275269 382.299835,253.415146 
	C377.206177,249.217743 371.317139,245.869827 365.469055,242.738480 
	C360.354309,239.999802 355.053497,241.980316 352.664001,246.681229 
	C350.252533,251.425385 351.954254,256.518005 356.939331,259.402771 
	C358.669006,260.403717 360.451233,261.314362 362.174774,262.325348 
	C400.097382,284.570068 409.386993,336.230469 381.617584,370.293488 
	C368.496582,386.388214 351.300964,394.808655 330.034424,397.225281 
	C259.331696,397.255096 188.628983,397.284912 117.933502,397.067017 
	C117.933502,397.067017 117.685799,397.075043 117.670158,396.127441 
M179.550461,219.979736 
	C180.476212,220.687851 181.372559,221.438797 182.332138,222.097641 
	C196.049225,231.515869 213.581558,231.032364 226.627579,220.889847 
	C239.261368,211.067810 244.188766,194.251053 238.861603,179.136383 
	C233.398209,163.635269 218.762344,153.658340 202.221268,154.159576 
	C187.548615,154.604187 173.938110,164.049377 168.875229,178.071274 
	C163.138290,193.960007 166.809631,207.856827 179.550461,219.979736 
M262.966736,338.442108 
	C263.862762,340.036987 264.670654,341.689453 265.668701,343.217712 
	C273.963104,355.918732 289.188324,362.648712 303.763885,359.505188 
	C319.560486,356.098328 329.668335,346.365936 333.373688,330.545135 
	C336.785461,315.977692 330.509674,300.684296 318.014832,292.071686 
	C304.538147,282.782318 286.769623,283.391083 273.740723,293.588531 
	C260.542664,303.918365 256.271759,320.958282 262.966736,338.442108 
z"/>
<path fill="#3C7FBC" opacity="1.000000" stroke="none" 
	d="
M330.956451,397.358276 
	C351.300964,394.808655 368.496582,386.388214 381.617584,370.293488 
	C409.386993,336.230469 400.097382,284.570068 362.174774,262.325348 
	C360.451233,261.314362 358.669006,260.403717 356.939331,259.402771 
	C351.954254,256.518005 350.252533,251.425385 352.664001,246.681229 
	C355.053497,241.980316 360.354309,239.999802 365.469055,242.738480 
	C371.317139,245.869827 377.206177,249.217743 382.299835,253.415146 
	C406.400543,273.275269 418.755402,299.247345 416.567871,330.228455 
	C412.725128,384.651276 368.293762,415.989502 326.932495,415.980713 
	C254.772079,415.965363 182.611679,415.978271 110.451271,415.973846 
	C102.018028,415.973328 99.028755,412.984436 99.026314,404.557037 
	C99.018990,379.225891 99.017647,353.894775 99.026047,328.563629 
	C99.032166,310.107147 109.435059,295.369263 126.789925,289.410095 
	C205.854446,262.261444 284.921204,235.119232 364.007172,208.033218 
	C382.914764,201.557587 394.629272,188.932159 397.276337,168.901718 
	C400.857849,141.799850 379.986359,117.450958 352.084717,117.316841 
	C274.759888,116.945145 197.432114,117.187164 120.105499,117.201630 
	C119.453865,117.201752 118.802261,117.408493 117.450180,117.939903 
	C116.498955,119.613113 116.029884,120.865021 116.028931,122.117287 
	C115.991837,170.595474 115.986412,219.073715 116.048859,267.551849 
	C116.050819,269.077606 116.811035,270.602386 117.217758,272.127625 
	C115.988708,277.525146 112.439941,280.383667 107.504524,279.951599 
	C102.258652,279.492340 99.038475,275.631775 99.035110,269.558105 
	C99.013176,229.966324 99.024155,190.374527 99.024246,150.782745 
	C99.024284,137.141876 99.191414,123.497986 98.944756,109.861588 
	C98.840195,104.081497 101.006699,100.301506 106.815666,98.680740 
	C108.508080,99.394432 109.732323,99.963448 110.956856,99.964088 
	C191.228897,100.006042 271.500977,100.010101 351.772980,99.935883 
	C353.171753,99.934593 354.569580,98.941673 355.967865,98.411469 
	C382.857819,99.204277 408.129517,121.507538 415.106934,148.607864 
	C422.490326,177.284805 405.742340,213.796188 372.540131,225.104416 
	C298.636261,250.275101 224.829803,275.731842 150.984894,301.075653 
	C145.473877,302.967041 140.028122,305.070770 134.454391,306.752106 
	C125.895622,309.333801 120.489815,314.827026 117.563858,323.821655 
	C116.683144,324.955933 116.053291,325.653412 116.051590,326.352356 
	C115.996643,348.874512 115.979553,371.396912 116.070534,393.918823 
	C116.074799,394.973022 117.123520,396.023071 117.685806,397.075043 
	C117.685799,397.075043 117.933502,397.067017 118.089195,397.547363 
	C119.459015,398.352570 120.672951,398.960907 121.887299,398.961731 
	C190.192902,399.007233 258.498535,399.011719 326.804077,398.933319 
	C328.188812,398.931732 329.572357,397.906158 330.956451,397.358276 
z"/>
<path fill="#3B7EBC" opacity="1.000000" stroke="none" 
	d="
M179.284088,219.744690 
	C166.809631,207.856827 163.138290,193.960007 168.875229,178.071274 
	C173.938110,164.049377 187.548615,154.604187 202.221268,154.159576 
	C218.762344,153.658340 233.398209,163.635269 238.861603,179.136383 
	C244.188766,194.251053 239.261368,211.067810 226.627579,220.889847 
	C213.581558,231.032364 196.049225,231.515869 182.332138,222.097641 
	C181.372559,221.438797 180.476212,220.687851 179.284088,219.744690 
M221.970139,188.947220 
	C221.578949,187.505188 221.319336,186.011383 220.775436,184.629456 
	C216.920380,174.834320 205.519943,170.287064 195.955292,174.680679 
	C186.145462,179.186920 182.271423,190.972137 187.503952,200.390533 
	C191.548477,207.670563 200.013107,211.454834 207.858063,209.490280 
	C216.855453,207.237091 222.031006,200.050308 221.970139,188.947220 
z"/>
<path fill="#3B7EBC" opacity="1.000000" stroke="none" 
	d="
M262.821014,338.089569 
	C256.271759,320.958282 260.542664,303.918365 273.740723,293.588531 
	C286.769623,283.391083 304.538147,282.782318 318.014832,292.071686 
	C330.509674,300.684296 336.785461,315.977692 333.373688,330.545135 
	C329.668335,346.365936 319.560486,356.098328 303.763885,359.505188 
	C289.188324,362.648712 273.963104,355.918732 265.668701,343.217712 
	C264.670654,341.689453 263.862762,340.036987 262.821014,338.089569 
M303.225525,340.158112 
	C312.906250,335.798279 317.434692,326.798859 314.625580,317.502502 
	C312.030029,308.912842 303.191437,303.189880 294.602295,304.537506 
	C283.835632,306.226776 276.772552,315.802124 278.743744,326.036865 
	C280.894287,337.203125 290.484863,343.032562 303.225525,340.158112 
z"/>
<path fill="#2C75B7" opacity="1.000000" stroke="none" 
	d="
M355.512695,98.303764 
	C354.569580,98.941673 353.171753,99.934593 351.772980,99.935883 
	C271.500977,100.010101 191.228897,100.006042 110.956856,99.964088 
	C109.732323,99.963448 108.508080,99.394432 107.157501,98.727585 
	C107.857025,98.291687 108.682762,98.155052 109.508484,98.155121 
	C191.358170,98.162079 273.207855,98.179390 355.512695,98.303764 
z"/>
<path fill="#2570B4" opacity="1.000000" stroke="none" 
	d="
M330.495422,397.291779 
	C329.572357,397.906158 328.188812,398.931732 326.804077,398.933319 
	C258.498535,399.011719 190.192902,399.007233 121.887299,398.961731 
	C120.672951,398.960907 119.459015,398.352570 118.085571,397.671234 
	C188.628983,397.284912 259.331696,397.255096 330.495422,397.291779 
z"/>
<path fill="#2570B4" opacity="1.000000" stroke="none" 
	d="
M117.396423,271.752075 
	C116.811035,270.602386 116.050819,269.077606 116.048859,267.551849 
	C115.986412,219.073715 115.991837,170.595474 116.028931,122.117287 
	C116.029884,120.865021 116.498955,119.613113 117.087357,118.214752 
	C117.505745,118.727631 117.657417,119.386833 117.657158,120.045967 
	C117.637451,170.489487 117.605812,220.932983 117.396423,271.752075 
z"/>
<path fill="#2570B4" opacity="1.000000" stroke="none" 
	d="
M117.677979,396.601257 
	C117.123520,396.023071 116.074799,394.973022 116.070534,393.918823 
	C115.979553,371.396912 115.996643,348.874512 116.051590,326.352356 
	C116.053291,325.653412 116.683144,324.955933 117.395035,324.145752 
	C117.736664,348.064972 117.703415,372.096191 117.677979,396.601257 
z"/>
<path fill="#FCFDFE" opacity="1.000000" stroke="none" 
	d="
M222.004883,189.372437 
	C222.031006,200.050308 216.855453,207.237091 207.858063,209.490280 
	C200.013107,211.454834 191.548477,207.670563 187.503952,200.390533 
	C182.271423,190.972137 186.145462,179.186920 195.955292,174.680679 
	C205.519943,170.287064 216.920380,174.834320 220.775436,184.629456 
	C221.319336,186.011383 221.578949,187.505188 222.004883,189.372437 
z"/>
<path fill="#FCFDFE" opacity="1.000000" stroke="none" 
	d="
M302.840210,340.303650 
	C290.484863,343.032562 280.894287,337.203125 278.743744,326.036865 
	C276.772552,315.802124 283.835632,306.226776 294.602295,304.537506 
	C303.191437,303.189880 312.030029,308.912842 314.625580,317.502502 
	C317.434692,326.798859 312.906250,335.798279 302.840210,340.303650 
z"/>
</svg>
