<svg xmlns="http://www.w3.org/2000/svg" xmlns:xlink="http://www.w3.org/1999/xlink" width="250px" height="250px" viewBox="0 0 250 250" version="1.1">
<g id="surface1">
<path style=" stroke:none;fill-rule:nonzero;fill:rgb(0%,0%,0%);fill-opacity:1;" d="M 125 250 C 55.644531 250 0 193.5625 0 125 C 0 55.644531 55.644531 0 125 0 C 194.355469 0 250 55.644531 250 125 C 250 193.5625 194.355469 250 125 250 Z M 125 20.980469 C 67.738281 20.980469 20.96875 67.738281 20.96875 125 C 20.96875 182.269531 67.738281 229.042969 125 229.042969 C 182.269531 229.042969 229.03125 182.269531 229.03125 125 C 229.03125 67.738281 182.269531 20.980469 125 20.980469 Z M 186.300781 137.105469 L 95.96875 137.105469 C 91.96875 137.105469 88.730469 133.886719 88.699219 129.90625 L 88.699219 119.363281 C 88.699219 115.332031 91.9375 112.105469 95.96875 112.105469 L 187.09375 112.105469 C 191.125 112.105469 194.355469 115.34375 194.355469 119.363281 L 194.355469 129.84375 C 193.550781 133.875 190.324219 137.105469 186.300781 137.105469 Z M 162.90625 96.78125 L 71.78125 96.78125 C 67.792969 96.800781 64.519531 93.582031 64.511719 89.582031 L 64.511719 79.0625 C 64.511719 75.824219 67.738281 72.59375 71.769531 72.59375 L 162.894531 72.59375 C 166.125 72.59375 169.355469 75.832031 169.355469 79.042969 L 169.355469 89.519531 C 169.363281 93.542969 166.125 96.78125 162.90625 96.78125 Z M 71.78125 153.21875 L 162.90625 153.21875 C 166.949219 153.21875 170.15625 156.457031 170.15625 160.480469 L 170.15625 170.957031 C 170.175781 174.949219 166.9375 178.199219 162.957031 178.21875 L 71.78125 178.21875 C 67.738281 177.425781 64.519531 174.1875 64.519531 170.167969 L 64.519531 159.6875 C 64.511719 156.457031 67.738281 153.21875 71.78125 153.21875 Z M 71.78125 153.21875 "/>
</g>
</svg>
