<svg xmlns="http://www.w3.org/2000/svg" width="250" height="250" fill="none"><path fill="#E86A6C" d="M119.403 181.736c36.493 0 64.699-27.71 64.699-61.894 0-32.024-26.498-51.579-44.05-51.579-24.441 0-44.03 17.24-46.821 42.831-.518 4.739-4.254 8.713-8.995 8.679-7.882-.057-19.34-.124-26.593-.099-3.123.011-5.705-2.536-5.55-5.672 1.094-22.195 8.478-42.949 22.557-58.89C90.295 37.397 113.08 27 140.052 27c45.318 0 88.101 41.388 88.101 92.842 0 56.973-46.964 103.158-107.786 103.158-43.375 0-87.061-28.492-102.314-68.324a.86.86 0 0 1-.038-.462c.203-1.179.606-2.256 1.003-3.316.578-1.541 1.143-3.048 1.06-4.785l-.264-5.548a6.766 6.766 0 0 1 3.898-6.447l2.205-1.032a8.554 8.554 0 0 0 4.796-6.216c.739-4.07 4.293-7.028 8.441-7.028 6.478 0 12.111 4.33 14.228 10.486 10.184 29.631 26.376 51.408 66.021 51.408Z"/></svg>