<?xml version="1.0" encoding="UTF-8"?>
<svg version="1.1" xmlns="http://www.w3.org/2000/svg" width="240" height="240">
<path d="M0 0 C2.64 0 5.28 0 8 0 C8.20044922 0.51159668 8.40089844 1.02319336 8.60742188 1.55029297 C13.43815994 13.8434807 18.53878786 25.9737137 24 38 C25.49612551 34.35734354 26.98930053 30.71349195 28.47998047 27.06860352 C29.23126117 25.23327764 29.98474325 23.39885337 30.73828125 21.56445312 C33.6543674 14.42976235 36.43591922 7.26892713 39 0 C41.64 0 44.28 0 47 0 C47 16.17 47 32.34 47 49 C45.02 49 43.04 49 41 49 C40.67 38.11 40.34 27.22 40 16 C36.51233046 24.61439352 36.51233046 24.61439352 33.0300293 33.23095703 C32.59086182 34.31231934 32.15169434 35.39368164 31.69921875 36.5078125 C31.25408936 37.60754395 30.80895996 38.70727539 30.3503418 39.84033203 C29.01625362 42.9619681 27.54960012 45.98036845 26 49 C24.35 49 22.7 49 21 49 C17.8178124 42.91388784 15.26663461 36.7462699 12.875 30.3125 C12.18519208 28.47514917 11.49509724 26.63790602 10.8046875 24.80078125 C10.50546387 23.99809814 10.20624023 23.19541504 9.89794922 22.3684082 C8.96196475 19.89967918 7.98745981 17.44854165 7 15 C6.96241577 16.49164673 6.96241577 16.49164673 6.92407227 18.01342773 C6.83015118 21.69048747 6.72989381 25.3673515 6.62768555 29.04418945 C6.58427854 30.637893 6.54260781 32.2316448 6.50268555 33.82543945 C6.44512193 36.11163908 6.38138851 38.39759449 6.31640625 40.68359375 C6.29969376 41.40026718 6.28298126 42.11694061 6.26576233 42.85533142 C6.11387171 47.88612829 6.11387171 47.88612829 5 49 C3.35 49 1.7 49 0 49 C0 32.83 0 16.66 0 0 Z M5 10 C6 13 6 13 6 13 Z " fill="#7AC142" transform="translate(27,152)"/>
<path d="M0 0 C4.26244815 3.49690868 6.38841429 7.85371806 7.16796875 13.265625 C7.40013639 20.36608528 6.09480066 24.81311753 1.32421875 30.1953125 C-3.84562992 34.73469182 -8.12085454 35.00107617 -14.8984375 34.88671875 C-20.11394958 34.19741715 -23.55868331 32.14960573 -27.23828125 28.4453125 C-30.84758639 22.86729547 -31.06445713 16.90619352 -30.23828125 10.4453125 C-28.86148094 5.77819282 -27.02035852 3.08075029 -23.23828125 0.0078125 C-16.02422435 -3.7495088 -7.1556628 -4.15115529 0 0 Z M-19.23828125 12.4453125 C-19.87562587 16.41101238 -19.85827797 18.47811762 -17.67578125 21.8828125 C-14.35426734 24.01198808 -12.11166879 23.86786387 -8.23828125 23.4453125 C-4.84416057 21.66218653 -4.84416057 21.66218653 -4.23828125 17.6328125 C-3.91335116 14.06508014 -4.15195905 13.56717913 -6.36328125 10.4453125 C-9.01940765 8.32955079 -9.01940765 8.32955079 -11.73828125 7.8828125 C-15.2227424 8.66681626 -16.85014172 9.78424274 -19.23828125 12.4453125 Z " fill="#919295" transform="translate(193.23828125,108.5546875)"/>
<path d="M0 0 C0.92941406 -0.00515625 1.85882813 -0.0103125 2.81640625 -0.015625 C5.4929462 0.25561899 7.14188282 0.88883405 9.4375 2.25 C9.4375 4.89 9.4375 7.53 9.4375 10.25 C5.1475 10.25 0.8575 10.25 -3.5625 10.25 C-3.5625 10.91 -3.5625 11.57 -3.5625 12.25 C-2.69238281 12.34474609 -2.69238281 12.34474609 -1.8046875 12.44140625 C3.72409476 13.30812954 7.01713516 14.69785476 10.39453125 19.2578125 C12.19410303 22.6951968 12.55422892 25.52027139 11.4375 29.25 C9.04779157 33.11373419 6.79028279 35.7990724 2.4375 37.25 C-0.28176022 37.34610691 -2.96914954 37.38933225 -5.6875 37.375 C-6.42871094 37.37886719 -7.16992188 37.38273437 -7.93359375 37.38671875 C-13.4358402 37.3766598 -13.4358402 37.3766598 -14.5625 36.25 C-14.63455511 34.56391034 -14.64636068 32.87499341 -14.625 31.1875 C-14.61597656 30.26839844 -14.60695313 29.34929687 -14.59765625 28.40234375 C-14.58605469 27.69207031 -14.57445313 26.98179687 -14.5625 26.25 C-13.80324219 26.34539062 -13.04398437 26.44078125 -12.26171875 26.5390625 C-10.77091797 26.70535156 -10.77091797 26.70535156 -9.25 26.875 C-8.26386719 26.99101562 -7.27773437 27.10703125 -6.26171875 27.2265625 C-3.33592584 27.50476995 -3.33592584 27.50476995 -0.5625 25.25 C-1.57570313 24.79560547 -1.57570313 24.79560547 -2.609375 24.33203125 C-12.2268369 19.81515969 -12.2268369 19.81515969 -14.5625 15.25 C-15.3810352 10.97445975 -15.09073682 8.14995903 -12.875 4.375 C-8.94764101 0.76607552 -5.25180817 -0.02921729 0 0 Z " fill="#919295" transform="translate(110.5625,105.75)"/>
<path d="M0 0 C1.42119141 -0.00386719 1.42119141 -0.00386719 2.87109375 -0.0078125 C5.5625 0.125 5.5625 0.125 9.5625 1.125 C9.5625 4.755 9.5625 8.385 9.5625 12.125 C8.5725 12.62 8.5725 12.62 7.5625 13.125 C6.5725 12.795 5.5825 12.465 4.5625 12.125 C-0.77045432 11.781509 -0.77045432 11.781509 -5.4375 14.125 C-5.87682865 16.25988276 -5.87682865 16.25988276 -5.75 18.625 C-5.74613281 19.4190625 -5.74226563 20.213125 -5.73828125 21.03125 C-5.61975165 23.34233036 -5.61975165 23.34233036 -3.4375 25.125 C-0.30935486 25.36860073 -0.30935486 25.36860073 3.1875 25.25 C4.37601563 25.23195312 5.56453125 25.21390625 6.7890625 25.1953125 C8.16191406 25.16050781 8.16191406 25.16050781 9.5625 25.125 C9.5625 28.755 9.5625 32.385 9.5625 36.125 C4.91198023 38.45025989 -1.37616411 37.53475467 -6.4375 37.125 C-11.37602217 34.87234077 -14.24644426 31.41013199 -17.4375 27.125 C-19.13332898 22.03751305 -19.42881523 16.17258626 -17.75390625 11.0234375 C-13.86367492 3.69495192 -8.22436894 -0.0223185 0 0 Z " fill="#919295" transform="translate(57.4375,105.875)"/>
<path d="M0 0 C1.28197266 -0.00386719 1.28197266 -0.00386719 2.58984375 -0.0078125 C5.0625 0.125 5.0625 0.125 9.0625 1.125 C9.0625 5.085 9.0625 9.045 9.0625 13.125 C7.7425 12.795 6.4225 12.465 5.0625 12.125 C0.77423467 11.77107407 -2.23352751 11.655685 -5.9375 14.125 C-6.83312115 17.29412098 -7.22665213 19.30202854 -6.125 22.4375 C-5.03062675 24.27597822 -5.03062675 24.27597822 -2.9375 25.125 C-0.89694995 25.19565617 1.14584257 25.20921976 3.1875 25.1875 C4.28320312 25.17847656 5.37890625 25.16945312 6.5078125 25.16015625 C7.35085937 25.14855469 8.19390625 25.13695312 9.0625 25.125 C9.0625 28.755 9.0625 32.385 9.0625 36.125 C3.88281355 38.71484323 -4.01305127 37.71982961 -9.375 36.0625 C-13.63921817 32.83833504 -17.22931792 29.24954624 -18.9375 24.125 C-19.69086798 17.46307461 -19.42538095 12.30990314 -15.4375 6.78125 C-11.0501099 1.9368401 -6.39550204 -0.01923459 0 0 Z " fill="#919295" transform="translate(146.9375,105.875)"/>
<path d="M0 0 C4.90635285 2.06583278 6.93875005 4.96096045 9.3359375 9.51171875 C10 12 10 12 10 21 C1.09 21 -7.82 21 -17 21 C-16.01 23.97 -15.02 26.94 -14 30 C-9.54927599 31.112681 -5.56166997 31.6289067 -1 31 C1.50160818 29.12379387 2.61945652 27.76108697 4 25 C5.65 25 7.3 25 9 25 C9.495 25.99 9.495 25.99 10 27 C7.6612016 31.94745815 6.07478865 34.59577389 1 37 C-4.80018007 37.80578221 -10.20348431 37.8194633 -15.5625 35.375 C-20.42891143 30.63336835 -23.12166252 26.12508102 -23.25 19.3125 C-23.14296673 12.62778566 -21.78450764 7.44855898 -17.125 2.5 C-12.08273439 -1.43490237 -6.05260042 -0.88917068 0 0 Z M-13 7 C-16.25443225 11.04245692 -16.25443225 11.04245692 -17 16 C-10.07 16 -3.14 16 4 16 C3.34222253 10.07007267 3.34222253 10.07007267 0 6 C-4.84648163 4.90563318 -8.64369749 4.21680673 -13 7 Z " fill="#7AC142" transform="translate(102,164)"/>
<path d="M0 0 C3.48611506 2.10888442 4.71387563 4.50199738 5.89453125 8.26953125 C6.12158203 11.4074707 6.12158203 11.4074707 6.08984375 14.8828125 C6.08339844 16.12998047 6.07695312 17.37714844 6.0703125 18.66210938 C6.05355469 19.95568359 6.03679687 21.24925781 6.01953125 22.58203125 C6.01050781 23.89494141 6.00148437 25.20785156 5.9921875 26.56054688 C5.96864922 29.79706038 5.93576645 33.03320274 5.89453125 36.26953125 C4.24453125 36.26953125 2.59453125 36.26953125 0.89453125 36.26953125 C0.56453125 35.27953125 0.23453125 34.28953125 -0.10546875 33.26953125 C-1.13994141 34.00042969 -1.13994141 34.00042969 -2.1953125 34.74609375 C-5.61034716 36.53383001 -7.83465535 36.67118233 -11.66796875 36.64453125 C-12.78300781 36.65226562 -13.89804688 36.66 -15.046875 36.66796875 C-18.38146449 36.23357778 -19.75128281 35.62925645 -22.10546875 33.26953125 C-23.69494 28.50111751 -23.77493084 24.15239338 -22.10546875 19.45703125 C-16.53983295 13.36961709 -7.79882316 13.64137671 -0.10546875 13.26953125 C-0.76546875 10.95953125 -1.42546875 8.64953125 -2.10546875 6.26953125 C-3.51980081 6.04589755 -4.93714493 5.84126649 -6.35546875 5.64453125 C-7.53882813 5.47050781 -7.53882813 5.47050781 -8.74609375 5.29296875 C-11.4875359 5.26573588 -12.85317027 5.72481326 -15.10546875 7.26953125 C-15.43546875 8.25953125 -15.76546875 9.24953125 -16.10546875 10.26953125 C-18.08546875 10.26953125 -20.06546875 10.26953125 -22.10546875 10.26953125 C-21.94601086 6.12362615 -21.7131038 3.92780255 -18.85546875 0.83203125 C-13.51199825 -2.16394371 -5.66862683 -1.96666645 0 0 Z M-10.29296875 19.64453125 C-11.58267578 20.02738281 -11.58267578 20.02738281 -12.8984375 20.41796875 C-15.2664806 21.16043429 -15.2664806 21.16043429 -17.10546875 23.26953125 C-17.43880208 26.26953125 -17.43880208 26.26953125 -17.10546875 29.26953125 C-14.74595696 31.62904304 -14.0862124 31.6136254 -10.85546875 31.70703125 C-7.51672603 31.61533718 -5.28610613 31.21395083 -2.54296875 29.26953125 C0.73098004 25.24005581 0.40885008 23.32699974 -0.10546875 18.26953125 C-3.7895193 18.12402117 -6.77110074 18.56825691 -10.29296875 19.64453125 Z " fill="#7AC142" transform="translate(162.10546875,164.73046875)"/>
<path d="M0 0 C1.98 0 3.96 0 6 0 C6.33 7.92 6.66 15.84 7 24 C9.35125 21.8653125 9.35125 21.8653125 11.75 19.6875 C20.15384615 12.05769231 20.15384615 12.05769231 23.75 11.8125 C24.4925 11.874375 25.235 11.93625 26 12 C26.33 13.32 26.66 14.64 27 16 C26.34773438 16.51949219 25.69546875 17.03898437 25.0234375 17.57421875 C23.71246094 18.62029297 23.71246094 18.62029297 22.375 19.6875 C21.08722656 20.71423828 21.08722656 20.71423828 19.7734375 21.76171875 C16.82186729 24.14376063 13.90811805 26.56519735 11 29 C12.19496094 30.08667969 12.19496094 30.08667969 13.4140625 31.1953125 C16.62117363 34.11748181 19.81311463 37.0558033 23 40 C23.70382813 40.64710938 24.40765625 41.29421875 25.1328125 41.9609375 C26.48304284 43.24593932 27.75307564 44.61452849 29 46 C29 46.99 29 47.98 29 49 C25.86686858 49.54086717 23.78142452 49.5373432 21.11474609 47.70361328 C19.0687326 45.88442145 17.11962941 44.00216943 15.1875 42.0625 C14.50751953 41.40314453 13.82753906 40.74378906 13.12695312 40.06445312 C11.40401174 38.3896098 9.69694953 36.70110653 8 35 C7.67 34.67 7.34 34.34 7 34 C6.67 38.95 6.34 43.9 6 49 C4.02 49 2.04 49 0 49 C0 32.83 0 16.66 0 0 Z " fill="#7AC142" transform="translate(174,152)"/>
<path d="M0 0 C3.5 -0.375 3.5 -0.375 7 0 C9.12771949 3.19157923 9.2544138 4.0188922 9.2746582 7.68334961 C9.28419022 8.63120834 9.29372223 9.57906708 9.30354309 10.5556488 C9.30263168 11.57755814 9.30172028 12.59946747 9.30078125 13.65234375 C9.30506638 14.70402237 9.3093515 15.75570099 9.31376648 16.83924866 C9.31951168 19.06429321 9.32000865 21.28935655 9.31567383 23.5144043 C9.31251554 26.92073589 9.33596551 30.32619781 9.36132812 33.73242188 C9.36360123 35.89322807 9.36430456 38.0540366 9.36328125 40.21484375 C9.372491 41.23472885 9.38170074 42.25461395 9.39118958 43.30540466 C9.38496078 44.25641556 9.37873199 45.20742645 9.37231445 46.18725586 C9.37294388 47.02203964 9.3735733 47.85682343 9.3742218 48.71690369 C8.91878502 51.49548591 7.82629832 52.89856524 6 55 C3.6568787 54.74438677 1.32156597 54.40729228 -1 54 C-2.21062698 51.57874605 -2.13323192 50.02755551 -2.14526367 47.32250977 C-2.15164352 46.35132706 -2.15802338 45.38014435 -2.16459656 44.37953186 C-2.16570938 43.32745041 -2.1668222 42.27536896 -2.16796875 41.19140625 C-2.17129715 40.11374496 -2.17462555 39.03608368 -2.17805481 37.92576599 C-2.18312417 35.64346749 -2.18546313 33.36116155 -2.18530273 31.07885742 C-2.18748879 27.58044264 -2.20564341 24.0823433 -2.22460938 20.58398438 C-2.22754333 18.36979275 -2.22952811 16.15559962 -2.23046875 13.94140625 C-2.24124702 12.36632042 -2.24124702 12.36632042 -2.25224304 10.75941467 C-2.24916641 9.7850798 -2.24608978 8.81074493 -2.24291992 7.80688477 C-2.24434494 6.94909927 -2.24576996 6.09131378 -2.24723816 5.20753479 C-2 3 -2 3 0 0 Z " fill="#919295" transform="translate(163,39)"/>
<path d="M0 0 C3.5625 0.1875 3.5625 0.1875 5.5625 2.1875 C5.81646729 4.30601501 5.81646729 4.30601501 5.82128906 6.95678711 C5.82759338 7.94799057 5.83389771 8.93919403 5.84039307 9.96043396 C5.8363446 11.03438919 5.83229614 12.10834442 5.828125 13.21484375 C5.83003845 14.31470108 5.8319519 15.41455841 5.83392334 16.54774475 C5.83528623 18.87712838 5.83158256 21.20651958 5.82324219 23.53588867 C5.81255453 27.10678145 5.82312895 30.67716994 5.8359375 34.24804688 C5.83461572 36.50781361 5.83205296 38.76758004 5.828125 41.02734375 C5.83217346 42.09927475 5.83622192 43.17120575 5.84039307 44.27561951 C5.83408875 45.26997513 5.82778442 46.26433075 5.82128906 47.28881836 C5.81890228 48.60214394 5.81890228 48.60214394 5.81646729 49.94200134 C5.5625 52.1875 5.5625 52.1875 3.5625 55.1875 C0.5625 55.5 0.5625 55.5 -2.4375 55.1875 C-4.4375 53.1875 -4.4375 53.1875 -4.68473816 50.979599 C-4.68331314 50.06328201 -4.68188812 49.14696503 -4.68041992 48.20288086 C-4.68349655 47.16518051 -4.68657318 46.12748016 -4.68974304 45.05833435 C-4.68255753 43.93435745 -4.67537201 42.81038055 -4.66796875 41.65234375 C-4.66751053 40.50335098 -4.66705231 39.35435822 -4.6665802 38.17054749 C-4.66355526 35.73860646 -4.65566179 33.30666741 -4.64331055 30.87475586 C-4.62505927 27.1371378 -4.62280077 23.39976733 -4.62304688 19.66210938 C-4.61813172 17.30468534 -4.61230341 14.947263 -4.60546875 12.58984375 C-4.60435593 11.46384262 -4.6032431 10.33784149 -4.60209656 9.17771912 C-4.59252678 7.62589684 -4.59252678 7.62589684 -4.58276367 6.04272461 C-4.57895187 5.12720322 -4.57514008 4.21168182 -4.57121277 3.26841736 C-4.34403158 -0.26711096 -3.67338469 0.20036644 0 0 Z " fill="#919295" transform="translate(72.4375,38.8125)"/>
<path d="M0 0 C3.63 0 7.26 0 11 0 C11 11.88 11 23.76 11 36 C7.37 36 3.74 36 0 36 C0 24.12 0 12.24 0 0 Z " fill="#919295" transform="translate(76,107)"/>
<path d="M0 0 C2.375 0.8125 2.375 0.8125 4.375 2.8125 C4.63378906 5.28686523 4.63378906 5.28686523 4.640625 8.37109375 C4.64320312 9.47904297 4.64578125 10.58699219 4.6484375 11.72851562 C4.64070313 12.89060547 4.63296875 14.05269531 4.625 15.25 C4.63273437 16.40822266 4.64046875 17.56644531 4.6484375 18.75976562 C4.64585938 19.86900391 4.64328125 20.97824219 4.640625 22.12109375 C4.63836914 23.14001709 4.63611328 24.15894043 4.63378906 25.20874023 C4.375 27.8125 4.375 27.8125 2.375 30.8125 C-1.125 31.1875 -1.125 31.1875 -4.625 30.8125 C-7.8069796 26.0395306 -6.99372977 20.9243583 -7 15.3125 C-7.02449219 14.15878906 -7.04898438 13.00507812 -7.07421875 11.81640625 C-7.07808594 10.71167969 -7.08195312 9.60695313 -7.0859375 8.46875 C-7.09415527 7.45619141 -7.10237305 6.44363281 -7.11083984 5.40039062 C-6.625 2.8125 -6.625 2.8125 -4.76025391 0.94726562 C-2.625 -0.1875 -2.625 -0.1875 0 0 Z " fill="#919295" transform="translate(50.625,54.1875)"/>
<path d="M0 0 C2.375 0.875 2.375 0.875 4.375 2.875 C4.63378906 5.45703125 4.63378906 5.45703125 4.640625 8.6875 C4.64320313 9.84507813 4.64578125 11.00265625 4.6484375 12.1953125 C4.64070312 13.40960938 4.63296875 14.62390625 4.625 15.875 C4.63273438 17.08929688 4.64046875 18.30359375 4.6484375 19.5546875 C4.64585937 20.71226563 4.64328125 21.86984375 4.640625 23.0625 C4.63836914 24.12855469 4.63611328 25.19460937 4.63378906 26.29296875 C4.375 28.875 4.375 28.875 2.375 30.875 C-2.8432698 31.43013509 -2.8432698 31.43013509 -5.28930664 29.69311523 C-8.08744486 25.88435353 -7.09174103 20.48049338 -7.0625 15.9375 C-7.08248047 14.83986328 -7.10246094 13.74222656 -7.12304688 12.61132812 C-7.12240234 11.55494141 -7.12175781 10.49855469 -7.12109375 9.41015625 C-7.12294678 8.444729 -7.1247998 7.47930176 -7.12670898 6.48461914 C-6.33629291 2.37330164 -4.32164689 -0.20579271 0 0 Z " fill="#919295" transform="translate(190.625,54.125)"/>
<path d="M0 0 C1.671549 0.30791692 3.33805547 0.64386903 5 1 C5.99 1 6.98 1 8 1 C8.33 0.67 8.66 0.34 9 0 C10.51928038 -0.07179964 12.04167482 -0.08392007 13.5625 -0.0625 C14.38878906 -0.05347656 15.21507812 -0.04445312 16.06640625 -0.03515625 C16.70449219 -0.02355469 17.34257812 -0.01195312 18 0 C18 1.98 18 3.96 18 6 C17.38511719 6.01417969 16.77023438 6.02835938 16.13671875 6.04296875 C14.92435547 6.11451172 14.92435547 6.11451172 13.6875 6.1875 C12.48673828 6.23970703 12.48673828 6.23970703 11.26171875 6.29296875 C8.80512817 6.81710519 8.80512817 6.81710519 7.390625 9.171875 C5.83615702 12.33320876 5.57814876 14.45219844 5.48828125 17.95703125 C5.45283203 19.06884766 5.41738281 20.18066406 5.38085938 21.32617188 C5.35830078 22.47666016 5.33574219 23.62714844 5.3125 24.8125 C5.27833984 25.98232422 5.24417969 27.15214844 5.20898438 28.35742188 C5.12667684 31.23818554 5.05746822 34.11865138 5 37 C3.02 37 1.04 37 -1 37 C-1.0246501 31.89136104 -1.04283607 26.78275641 -1.05493164 21.67407227 C-1.05997204 19.93480832 -1.0668043 18.19554864 -1.07543945 16.45629883 C-1.08751792 13.96174063 -1.09323108 11.46723827 -1.09765625 8.97265625 C-1.10281754 8.19036148 -1.10797882 7.40806671 -1.11329651 6.60206604 C-1.11349226 4.73432886 -1.06199694 2.86670796 -1 1 C-0.67 0.67 -0.34 0.34 0 0 Z " fill="#7AC142" transform="translate(119,164)"/>
<path d="M0 0 C1.423125 0.4021875 1.423125 0.4021875 2.875 0.8125 C5.04925477 5.16100954 4.05996474 11.03607366 4.0625 15.8125 C4.07474609 17.02679688 4.08699219 18.24109375 4.09960938 19.4921875 C4.10250977 21.22855469 4.10250977 21.22855469 4.10546875 23 C4.10957764 24.06605469 4.11368652 25.13210937 4.11791992 26.23046875 C3.875 28.8125 3.875 28.8125 1.875 30.8125 C-1.125 31.0625 -1.125 31.0625 -4.125 30.8125 C-7.32689713 27.61060287 -6.42042548 23.90619853 -6.44726562 19.54101562 C-6.44404297 18.33123047 -6.44082031 17.12144531 -6.4375 15.875 C-6.45361328 14.66908203 -6.46972656 13.46316406 -6.48632812 12.22070312 C-6.48697266 11.06634766 -6.48761719 9.91199219 -6.48828125 8.72265625 C-6.49126221 7.66183838 -6.49424316 6.60102051 -6.49731445 5.50805664 C-6.125 2.8125 -6.125 2.8125 -4.79760742 0.93139648 C-3.125 -0.1875 -3.125 -0.1875 0 0 Z " fill="#919295" transform="translate(144.125,54.1875)"/>
<path d="M0 0 C2.3125 0.75 2.3125 0.75 3.3125 1.75 C3.56630234 6.22331958 3.49772721 10.7078346 3.5 15.1875 C3.51224609 16.45400391 3.52449219 17.72050781 3.53710938 19.02539062 C3.54000977 20.83620117 3.54000977 20.83620117 3.54296875 22.68359375 C3.54707764 23.79790771 3.55118652 24.91222168 3.55541992 26.06030273 C3.3125 28.75 3.3125 28.75 1.3125 30.75 C-1.6875 31.0625 -1.6875 31.0625 -4.6875 30.75 C-7.8694796 25.9770306 -7.05622977 20.8618583 -7.0625 15.25 C-7.08699219 14.09628906 -7.11148438 12.94257812 -7.13671875 11.75390625 C-7.14058594 10.64917969 -7.14445312 9.54445313 -7.1484375 8.40625 C-7.15665527 7.39369141 -7.16487305 6.38113281 -7.17333984 5.33789062 C-6.6875 2.75 -6.6875 2.75 -4.82666016 0.88085938 C-2.6875 -0.25 -2.6875 -0.25 0 0 Z " fill="#919295" transform="translate(97.6875,54.25)"/>
<path d="M0 0 C1.65 0.33 3.3 0.66 5 1 C5 12.88 5 24.76 5 37 C3.02 37 1.04 37 -1 37 C-1.0246501 31.89136104 -1.04283607 26.78275641 -1.05493164 21.67407227 C-1.05997204 19.93480832 -1.0668043 18.19554864 -1.07543945 16.45629883 C-1.08751792 13.96174063 -1.09323108 11.46723827 -1.09765625 8.97265625 C-1.10281754 8.19036148 -1.10797882 7.40806671 -1.11329651 6.60206604 C-1.11349226 4.73432886 -1.06199694 2.86670796 -1 1 C-0.67 0.67 -0.34 0.34 0 0 Z " fill="#7AC142" transform="translate(207,164)"/>
<path d="M0 0 C2.9375 0.9375 2.9375 0.9375 4.1015625 2.68359375 C5.04616059 5.2304774 5.23759526 7.22499696 5.25 9.9375 C5.26675781 10.783125 5.28351562 11.62875 5.30078125 12.5 C4.86088535 15.45155956 4.01245294 16.81406686 1.9375 18.9375 C-1.125 19.3125 -1.125 19.3125 -4.0625 18.9375 C-6.92586371 16.07413629 -6.36266187 13.98521654 -6.375 10 C-6.39175781 8.75347656 -6.40851562 7.50695312 -6.42578125 6.22265625 C-6.0625 2.9375 -6.0625 2.9375 -4.734375 0.9921875 C-3.0625 -0.0625 -3.0625 -0.0625 0 0 Z " fill="#919295" transform="translate(27.0625,66.0625)"/>
<path d="M0 0 C2.30821663 3.46232494 2.27000989 4.91798316 2.25 9 C2.25515625 10.051875 2.2603125 11.10375 2.265625 12.1875 C2 15 2 15 0 18 C-3.625 18.1875 -3.625 18.1875 -7 18 C-8.81643761 14.88610696 -9.2719038 12.59222291 -9.25 9 C-9.25515625 8.154375 -9.2603125 7.30875 -9.265625 6.4375 C-8.98122978 3.82775563 -8.40037763 2.20904641 -7 0 C-4.27584084 -1.36207958 -2.87220643 -0.86166193 0 0 Z " fill="#919295" transform="translate(123,67)"/>
<path d="M0 0 C2.875 0.6875 2.875 0.6875 3.875 1.6875 C4.00153198 4.17988569 4.06019825 6.63220441 4.0625 9.125 C4.07474609 9.81916016 4.08699219 10.51332031 4.09960938 11.22851562 C4.10489842 13.04970901 3.99669207 14.8703692 3.875 16.6875 C1.875 18.6875 1.875 18.6875 -1.125 18.9375 C-4.125 18.6875 -4.125 18.6875 -6.125 16.6875 C-6.35003811 14.13901644 -6.44940357 11.73486331 -6.4375 9.1875 C-6.45361328 8.49785156 -6.46972656 7.80820313 -6.48632812 7.09765625 C-6.48828125 5.09375 -6.48828125 5.09375 -6.125 1.6875 C-3.125 -0.3125 -3.125 -0.3125 0 0 Z " fill="#919295" transform="translate(214.125,66.3125)"/>
<path d="M0 0 C1.98 0 3.96 0 6 0 C6 2.31 6 4.62 6 7 C4.02 7 2.04 7 0 7 C0 4.69 0 2.38 0 0 Z " fill="#7AC142" transform="translate(206,152)"/>
</svg>
