<svg xmlns="http://www.w3.org/2000/svg" width="414" height="414" viewBox="0 0 414 414" fill="none"><path d="M206.947 275.851C194.813 282.925 181.025 286.675 166.977 286.723C152.929 286.772 139.12 283.116 126.938 276.127C114.756 269.137 104.634 259.061 97.5964 246.914C90.5584 234.767 86.8506 220.98 86.8506 206.945C86.8506 192.91 90.5584 179.123 97.5964 166.976C104.634 154.829 114.756 144.752 126.938 137.763C139.12 130.773 152.929 127.118 166.977 127.166C181.025 127.215 194.813 130.965 206.947 138.038C194.894 145.065 184.896 155.124 177.946 167.214C170.997 179.304 167.34 193.003 167.34 206.945C167.34 220.887 170.997 234.585 177.946 246.675C184.896 258.765 194.894 268.825 206.947 275.851Z" fill="#00F872"/><path d="M327.154 206.919C327.163 217.402 325.107 227.783 321.098 237.471C317.089 247.158 311.207 255.961 303.791 263.377C296.375 270.793 287.57 276.676 277.878 280.689C268.185 284.703 257.794 286.769 247.302 286.769C233.117 286.816 219.184 283.022 206.984 275.79C219.019 268.749 229 258.685 235.936 246.596C242.872 234.508 246.522 220.817 246.522 206.883C246.522 192.95 242.872 179.258 235.936 167.17C229 155.082 219.019 145.017 206.984 137.977C219.13 130.929 232.919 127.201 246.964 127.166C261.009 127.132 274.816 130.792 286.996 137.78C299.176 144.768 309.299 154.836 316.349 166.973C323.398 179.11 327.124 192.887 327.154 206.919Z" fill="#006666"/><path d="M206.945 413.51C166.015 413.51 126.006 401.384 91.9743 378.666C57.9424 355.947 31.4166 323.656 15.7534 285.877C0.0903215 248.097 -4.00875 206.526 3.97624 166.419C11.9612 126.313 31.6732 89.4726 60.6148 60.5574C89.5565 31.6422 126.428 11.9505 166.571 3.97283C206.715 -4.00486 248.324 0.0895929 286.138 15.7384C323.952 31.3872 356.275 57.8875 379.014 91.8882C401.753 125.889 413.889 165.863 413.889 206.755C413.889 261.59 392.088 314.179 353.278 352.953C314.469 391.727 261.83 413.51 206.945 413.51ZM206.945 42.7772C174.483 42.7772 142.753 52.3941 115.762 70.4123C88.7714 88.4304 67.7341 114.04 55.3116 144.003C42.8891 173.966 39.6371 206.937 45.97 238.746C52.3029 270.554 67.9369 299.772 90.8906 322.705C113.844 345.638 143.089 361.255 174.927 367.583C206.765 373.91 239.764 370.662 269.754 358.251C299.745 345.84 325.379 324.823 343.414 297.856C361.449 270.89 371.073 239.187 371.073 206.755C371.054 163.278 353.753 121.588 322.975 90.8512C292.197 60.1148 250.462 42.8482 206.945 42.8482V42.7772Z" fill="#2D4663"/></svg>
