<svg xmlns:xlink="http://www.w3.org/1999/xlink" width="250" height="250" viewBox="0 0 342 88" fill="none" xmlns="http://www.w3.org/2000/svg"><path d="M186.907 19.3943C207.324 19.3943 217.646 30.3967 217.646 52.4015C217.646 62.8367 214.47 72.8183 209.366 78.603C204.261 84.3878 195.981 87.4503 185.659 87.4503C175.678 87.4503 168.305 84.7281 163.541 79.397C158.21 73.4988 155.034 63.5173 155.034 52.288C155.034 30.5101 165.81 19.3943 186.907 19.3943ZM186.68 39.4708C178.627 39.4708 174.43 44.6884 174.43 54.5566C174.43 65.2187 178.74 71.2303 186.34 71.2303C193.94 71.2303 198.363 64.8784 198.363 53.9894C198.363 44.3482 194.507 39.4708 186.68 39.4708Z" fill="#071003"></path><path d="M285.428 21.6638V85.1828H265.011V78.4906C265.011 76.3355 265.124 75.7684 265.691 71.685H265.011C263.082 77.2429 261.721 79.6249 259.113 82.1203C255.596 85.6365 250.719 87.4513 245.274 87.4513C238.582 87.4513 232.684 84.7291 229.395 80.0786C227.58 77.4698 226.105 73.0461 225.652 68.1688C225.538 66.2405 225.425 62.384 225.425 52.6293V21.6638H246.749V52.0622C246.749 62.2706 246.862 63.178 248.11 65.3331C249.471 67.4882 251.853 68.7359 254.802 68.7359C258.772 68.7359 261.948 66.4674 263.196 62.8377C263.99 60.3423 264.103 59.2081 264.103 52.0622V21.6638H285.428Z" fill="#071003"></path><path d="M125.761 85.3183V0.909912H146.863V85.3183H125.761Z" fill="#071003"></path><path d="M93.6045 85.3183V0.909912H115.209V85.3183H93.6045Z" fill="#071003"></path><path d="M0.651367 9.95288H51.8993V28.8862H20.6754V41.3548H51.8993V58.9276H20.6754V85.3175H0.651367V9.95288Z" fill="#071003"></path><path d="M61.7373 85.1844L61.7373 22.3533C65.5938 23.8278 68.0892 24.2815 72.0591 24.2815C75.9156 24.2815 78.9782 23.7144 83.0615 22.3533L83.0615 85.1844H61.7373Z" fill="#071003"></path><path d="M72.159 18.656C63.9615 18.656 59.8173 15.7872 59.8173 10.0497C59.8173 7.32878 61.0924 4.72617 63.1418 3.21785C65.1912 1.70952 68.5157 0.911 72.6599 0.911C76.6676 0.911 79.6277 1.6208 81.5405 3.01083C83.6809 4.54873 84.9561 7.15133 84.9561 10.0793C84.9561 15.7577 80.6296 18.656 72.159 18.656Z" fill="#071003"></path><path fill-rule="evenodd" clip-rule="evenodd" d="M307.769 9.78101C307.769 25.8875 302.106 28.7928 291.558 28.7928V41.285H302.106C301.653 47.9771 301.539 52.0605 301.539 58.5258C301.539 69.9819 302.56 75.7667 305.282 80.0769C308.345 84.8408 314.356 87.4496 322.296 87.4496C330.463 87.4496 335.794 85.2945 341.352 79.7366V64.9911C337.949 69.3013 334.319 71.2296 329.896 71.2296C327.174 71.2296 324.792 70.0953 323.657 68.2805C322.41 66.3523 321.956 63.4032 321.956 58.1855C321.956 50.9262 321.616 41.285 321.616 41.285H341.352V21.6109H321.616V9.78101H307.769Z" fill="#071003"></path></svg>
