<svg xmlns="http://www.w3.org/2000/svg" viewBox="-109.7659 68.9081 239.9901 240" width="250" height="250">
  <g transform="matrix(1, 0, 0, 1, -232.1159210205078, -21.591861724853516)">
    <path d="M264.1,92.47c-7.05-1.29-14.32-1.97-21.75-1.97c-7.43,0-14.7,0.68-21.75,1.97v39.08h43.5V92.47z"/>
    <path d="M220.6,328.53c7.05,1.29,14.32,1.97,21.75,1.97c7.43,0,14.7-0.68,21.75-1.97v-39.09h-43.5V328.53z"/>
    <path d="M360.37,188.74h-39.09v43.5h39.09c1.29-7.05,1.97-14.32,1.97-21.74C362.35,203.07,361.67,195.8,360.37,188.74z"/>
    <path d="M163.41,188.74h-39.09c-1.29,7.06-1.97,14.33-1.97,21.76c0,7.43,0.68,14.69,1.97,21.74h39.09V188.74z"/>
    <path d="M350.84,159.18c-11.86-25.04-32.14-45.31-57.18-57.18l-51.32,51.32L191.03,102c-25.04,11.86-45.31,32.14-57.18,57.18 l51.32,51.32l-51.32,51.32c11.86,25.04,32.14,45.31,57.18,57.18l51.32-51.32L293.67,319c25.04-11.86,45.31-32.14,57.18-57.18 l-51.32-51.32L350.84,159.18z M299.51,210.5c0,0,0,0.01,0,0.01c-0.01,31.56-25.59,57.14-57.15,57.15c0,0-0.01,0-0.01,0 s-0.01,0-0.01,0c-31.56-0.01-57.14-25.59-57.15-57.15c0,0,0-0.01,0-0.01s0-0.01,0-0.01c0.01-31.56,25.59-57.14,57.15-57.15 c0,0,0.01,0,0.01,0s0.01,0,0.01,0c31.56,0.01,57.14,25.59,57.15,57.15C299.51,210.49,299.51,210.5,299.51,210.5z"/>
  </g>
</svg>
