<?xml version="1.0" encoding="UTF-8"?>
<svg version="1.1" xmlns="http://www.w3.org/2000/svg" width="512" height="512">
<path d="M0 0 C168.96 0 337.92 0 512 0 C512 168.96 512 337.92 512 512 C343.04 512 174.08 512 0 512 C0 343.04 0 174.08 0 0 Z " fill="#F47C00" transform="translate(0,0)"/>
<path d="M0 0 C0.84149094 -0.0065712 1.68298187 -0.0131424 2.54997253 -0.01991272 C5.33051662 -0.03959104 8.11100654 -0.05130239 10.89160156 -0.0612793 C11.84769569 -0.06535482 12.80378983 -0.06943035 13.78885651 -0.07362938 C18.85939821 -0.09447693 23.92991303 -0.10877869 29.00048828 -0.11816406 C34.19471401 -0.12916514 39.38850386 -0.16349528 44.58257675 -0.20333576 C48.61166074 -0.22971404 52.64064474 -0.23787501 56.66980743 -0.24144554 C58.58163615 -0.24626488 60.49346184 -0.25774275 62.40520477 -0.27648354 C89.60109696 -0.52629804 113.8510838 7.16839062 133.74707031 26.36450195 C149.68342071 42.45731021 160.20606908 64.25990614 160.78320312 87.06616211 C161.03030878 96.54835122 162.21158916 102.92992175 169.22753906 109.84887695 C175.12122679 114.09614989 182.18165999 113.76248232 189.17333984 113.72607422 C196.12198975 113.77388912 201.24177857 115.33756131 206.55566406 119.9230957 C207.00167969 120.48125977 207.44769531 121.03942383 207.90722656 121.61450195 C208.59945312 122.44788086 208.59945312 122.44788086 209.30566406 123.2980957 C212.54114818 128.25436278 212.82506912 132.86859355 212.80688477 138.66064453 C212.81455116 139.92529037 212.81455116 139.92529037 212.82237244 141.21548462 C212.83626008 144.00090667 212.83531051 146.78608064 212.83300781 149.5715332 C212.83689875 151.52145987 212.84123423 153.47138569 212.84599304 155.42131042 C212.8534561 159.51429992 212.85316594 163.6072032 212.84790039 167.70019531 C212.8421437 172.90343132 212.85894367 178.10630694 212.88224506 183.30948353 C212.89710992 187.34282948 212.89783629 191.37609156 212.89473534 195.40946007 C212.89524343 197.32488397 212.90038328 199.24031322 212.91054726 201.15571022 C213.04841452 230.80285214 204.76499646 255.95236938 184.09082031 277.7512207 C164.80080715 295.96073889 140.18846866 304.48731297 113.95532227 304.4675293 C112.65439133 304.47424652 111.35346039 304.48096375 110.0131073 304.48788452 C106.47971198 304.50537857 102.94641382 304.51023283 99.41297936 304.51151609 C97.19494347 304.51294789 94.97693149 304.51723671 92.7589016 304.52251053 C84.99102616 304.54095682 77.22321888 304.54918806 69.45532227 304.54760742 C62.26279704 304.5464079 55.07057277 304.56748689 47.87812358 304.59909475 C41.66279128 304.62541602 35.44755632 304.63596812 29.23216885 304.6346966 C25.53783772 304.63419154 21.84377451 304.63961745 18.14949989 304.6610527 C-1.76490561 304.76858181 -19.22172879 303.98901215 -37.46777344 295.17700195 C-38.35464844 294.7593457 -39.24152344 294.34168945 -40.15527344 293.91137695 C-64.60506461 281.54433142 -79.7819066 259.98850657 -88.57324219 234.5871582 C-91.10105194 224.95057343 -91.76578933 215.529911 -91.75830078 205.60009766 C-91.76501801 204.29916672 -91.77173523 202.99823578 -91.77865601 201.65788269 C-91.79615006 198.12448737 -91.80100431 194.59118921 -91.80228758 191.05775476 C-91.80371937 188.83971887 -91.8080082 186.62170688 -91.81328201 184.40367699 C-91.8317283 176.63580155 -91.83995955 168.86799427 -91.83837891 161.10009766 C-91.83717938 153.90757243 -91.85825838 146.71534816 -91.88986623 139.52289897 C-91.91618751 133.30756667 -91.9267396 127.09233171 -91.92546809 120.87694424 C-91.92496303 117.18261311 -91.93038893 113.4885499 -91.95182419 109.79427528 C-92.0593533 89.87986978 -91.27978363 72.4230466 -82.46777344 54.17700195 C-82.05011719 53.29012695 -81.63246094 52.40325195 -81.20214844 51.48950195 C-70.25611294 29.84906396 -51.01808962 13.72787329 -28.46777344 5.17700195 C-23.52945782 3.60070648 -18.51900997 2.33854809 -13.46777344 1.17700195 C-12.74910095 0.99994217 -12.03042847 0.82288239 -11.28997803 0.64045715 C-7.52621288 0.02238129 -3.80322318 0.01298551 0 0 Z " fill="#FEFEFE" transform="translate(195.4677734375,103.822998046875)"/>
<path d="M0 0 C1.24302383 -0.00846954 2.48604767 -0.01693909 3.76673889 -0.02566528 C7.16588425 -0.04502184 10.56447991 -0.05081461 13.96364307 -0.04891777 C16.80872408 -0.04879776 19.65375423 -0.05737474 22.49882102 -0.06569529 C29.21718497 -0.08491148 35.9354247 -0.08782049 42.65380859 -0.08105469 C49.56469021 -0.07442241 56.47503695 -0.09724895 63.38581014 -0.13436842 C69.33511385 -0.16515397 75.28424635 -0.1764157 81.23362803 -0.1725316 C84.77976905 -0.17047236 88.32549416 -0.17581349 91.87155914 -0.20042419 C95.83255089 -0.22700722 99.79285323 -0.21289598 103.75390625 -0.1953125 C105.49520561 -0.21520737 105.49520561 -0.21520737 107.27168274 -0.23550415 C114.67568962 -0.15940152 120.51722013 1.06853002 126.63574219 5.41992188 C132.37890399 11.64412845 133.93504932 15.9548261 133.85449219 24.37304688 C133.42288468 30.38472291 130.96835283 35.19840382 126.63574219 39.41992188 C119.19706083 44.31959907 112.66324164 45.14425988 103.90917969 45.06689453 C102.67532532 45.07565613 101.44147095 45.08441772 100.17022705 45.09344482 C96.81433313 45.11157196 93.45999829 45.10747922 90.10419464 45.0915494 C86.57481457 45.07879542 83.04549626 45.09065664 79.51611328 45.09848022 C73.59167676 45.10754943 67.66755298 45.09566119 61.74316406 45.07177734 C54.91622794 45.04457089 48.0900387 45.05338703 41.26312065 45.08090937 C35.37739659 45.1036779 29.49189596 45.10676298 23.60614204 45.09371603 C20.10145979 45.08596372 16.59712735 45.08476203 13.09246826 45.10139847 C9.18212375 45.11866769 5.27260026 45.09466153 1.36230469 45.06689453 C-0.3555423 45.08207626 -0.3555423 45.08207626 -2.10809326 45.0975647 C-9.47854451 45.00101519 -15.25833516 43.71204017 -21.36425781 39.41992188 C-27.59928581 32.85040321 -28.78824344 27.40823804 -28.71191406 18.46679688 C-28.04523909 12.62402744 -25.08345343 9.05095362 -20.92675781 5.10742188 C-19.65832031 4.27210938 -19.65832031 4.27210938 -18.36425781 3.41992188 C-17.57641907 2.89877808 -16.78858032 2.37763428 -15.97686768 1.84069824 C-10.6678992 -0.24722634 -5.65684265 -0.01418176 0 0 Z " fill="#F47D03" transform="translate(203.3642578125,297.580078125)"/>
<path d="M0 0 C0.33 0 0.66 0 1 0 C1.14695312 0.98097656 1.29390625 1.96195312 1.4453125 2.97265625 C5.22096589 26.34783441 16.67849625 49.57690565 36 64 C51.37109423 74.8512828 69.39355352 84.08182284 88.6566925 84.14044189 C89.78476822 84.14615204 90.91284393 84.15186218 92.07510376 84.15774536 C93.3036911 84.15886322 94.53227844 84.15998108 95.7980957 84.16113281 C97.75036827 84.16858017 97.75036827 84.16858017 99.74208069 84.17617798 C103.30886037 84.18927068 106.87562125 84.19574207 110.4424212 84.20018864 C112.67765759 84.20312747 114.91288895 84.20723402 117.14812279 84.21169281 C124.16085355 84.22536621 131.17357267 84.2350308 138.18631583 84.2388947 C146.24412206 84.24336009 154.30175736 84.26083756 162.35951167 84.2898953 C168.60949582 84.31163955 174.85943236 84.3216059 181.10945386 84.32293582 C184.83120286 84.32397579 188.55279119 84.32970732 192.27449989 84.34775543 C225.37736157 84.49919925 252.50723321 79.22241119 277.3515625 55.78125 C291.6458981 40.51877215 300.23013692 20.55529968 303 0 C303.33 0 303.66 0 304 0 C304.90816811 27.17777145 297.34006006 51.52103467 278.91015625 71.96484375 C262.73462921 89.18430396 239.65087469 100.88206587 215.91970062 102.16675186 C207.6761349 102.4244038 199.43060196 102.40244626 191.18409872 102.37004495 C187.57122963 102.35856931 183.95837164 102.36285008 180.3454895 102.36479187 C174.28545445 102.36566961 168.22553238 102.35470253 162.16552734 102.33618164 C155.19674487 102.31500291 148.22812734 102.31151141 141.25931919 102.3177436 C134.50395435 102.32347153 127.74864655 102.3177527 120.99328995 102.30657005 C118.14119518 102.30197115 115.28913584 102.30102944 112.43703842 102.3031559 C108.44215272 102.3054189 104.44749042 102.29081359 100.45263672 102.2746582 C98.71439636 102.27837433 98.71439636 102.27837433 96.94104004 102.28216553 C69.31457449 102.10532256 46.05490794 92.29796334 26.18359375 73.30859375 C15.15500337 61.74120201 8.08905345 47.90943869 3.25 32.8125 C3.03899658 32.15918701 2.82799316 31.50587402 2.6105957 30.83276367 C0.28325852 23.25101157 -0.15121595 15.87524642 -0.0625 8 C-0.05798828 7.22527344 -0.05347656 6.45054687 -0.04882812 5.65234375 C-0.03719758 3.76819476 -0.01926906 1.88408635 0 0 Z " fill="#C46401" transform="translate(104,323)"/>
<path d="M0 0 C0.82347427 -0.00832352 1.64694855 -0.01664703 2.49537659 -0.02522278 C5.21221683 -0.04927568 7.92881658 -0.0580904 10.64575195 -0.06469727 C12.54279143 -0.07366926 14.43983021 -0.0827912 16.33686829 -0.09205627 C20.31378902 -0.10853751 24.29062568 -0.11624445 28.26757812 -0.11914062 C33.3438128 -0.12451445 38.41924795 -0.16215685 43.49525738 -0.20788479 C47.4151339 -0.23775042 51.33482043 -0.24486629 55.2548008 -0.24586678 C57.12497419 -0.2500525 58.99514901 -0.26242006 60.86520958 -0.28338432 C80.45788483 -0.48549158 80.45788483 -0.48549158 87.6965332 5.30639648 C93.29982747 11.37735365 95.07883547 16.2028847 94.9699707 24.45483398 C94.30358445 31.4042906 90.81176792 35.73040105 85.57543945 40.07983398 C80.62058 43.3143992 75.98454361 43.60792533 70.19360352 43.61279297 C69.34901581 43.62111649 68.5044281 43.62944 67.63424683 43.63801575 C64.84767007 43.66207039 62.06132771 43.67088302 59.2746582 43.67749023 C57.33038261 43.68646116 55.38610771 43.69558309 53.4418335 43.70484924 C49.36656011 43.72133028 45.29136878 43.72903755 41.21606445 43.73193359 C36.00970399 43.73731144 30.80412158 43.77497072 25.5979805 43.82067776 C21.5812096 43.85051363 17.56462443 43.8576586 13.54775238 43.85865974 C11.62930494 43.86285033 9.71085635 43.87523771 7.79251862 43.89617729 C-11.95269549 44.09452219 -11.95269549 44.09452219 -18.3034668 38.30639648 C-23.96361433 32.13234684 -24.7263374 26.46911758 -24.6472168 18.34936523 C-23.96763698 12.3335394 -20.70980081 8.3697002 -16.3034668 4.43139648 C-10.92148796 0.61916147 -6.50017498 0.00560755 0 0 Z " fill="#F47C00" transform="translate(199.303466796875,179.693603515625)"/>
<path d="M0 0 C1.24302383 -0.00846954 2.48604767 -0.01693909 3.76673889 -0.02566528 C7.16588425 -0.04502184 10.56447991 -0.05081461 13.96364307 -0.04891777 C16.80872408 -0.04879776 19.65375423 -0.05737474 22.49882102 -0.06569529 C29.21718497 -0.08491148 35.9354247 -0.08782049 42.65380859 -0.08105469 C49.56469021 -0.07442241 56.47503695 -0.09724895 63.38581014 -0.13436842 C69.33511385 -0.16515397 75.28424635 -0.1764157 81.23362803 -0.1725316 C84.77976905 -0.17047236 88.32549416 -0.17581349 91.87155914 -0.20042419 C95.83255089 -0.22700722 99.79285323 -0.21289598 103.75390625 -0.1953125 C105.49520561 -0.21520737 105.49520561 -0.21520737 107.27168274 -0.23550415 C114.67568962 -0.15940152 120.51722013 1.06853002 126.63574219 5.41992188 C131.33631679 10.5142146 133.78094838 14.37894297 133.82324219 21.35742188 C133.83742188 22.41832031 133.85160156 23.47921875 133.86621094 24.57226562 C133.63574219 27.41992188 133.63574219 27.41992188 131.63574219 30.41992188 C131.30703125 29.88882812 130.97832031 29.35773438 130.63964844 28.81054688 C130.16398438 28.10414063 129.68832031 27.39773438 129.19824219 26.66992188 C128.74578125 25.97382813 128.29332031 25.27773438 127.82714844 24.56054688 C121.14596527 18.03418613 112.89014822 17.83610333 104.02270508 17.88647461 C102.78899673 17.87785904 101.55528839 17.86924347 100.28419495 17.86036682 C96.9243201 17.84164689 93.56543837 17.84077954 90.20558858 17.84968829 C87.3901707 17.85482638 84.57483974 17.84748289 81.75943083 17.84021622 C75.11240993 17.82326077 68.46561883 17.82673872 61.81860352 17.84350586 C54.98432254 17.86042356 48.15068048 17.84458825 41.31646925 17.81228298 C35.42653589 17.78550654 29.53680044 17.77833264 23.64681238 17.78679806 C20.13874175 17.79170391 16.63105522 17.78964026 13.12303352 17.76901054 C9.20782988 17.74708489 5.29338456 17.76614299 1.37817383 17.78881836 C-0.34202972 17.77128006 -0.34202972 17.77128006 -2.09698486 17.75338745 C-9.53234358 17.84068652 -15.14084477 19.234678 -21.36425781 23.41992188 C-23.84424525 25.93055038 -23.84424525 25.93055038 -25.36425781 28.41992188 C-26.02425781 29.07992188 -26.68425781 29.73992187 -27.36425781 30.41992188 C-29.19661538 24.92284917 -29.54152052 18.45344942 -27.42285156 12.99414062 C-25.02162259 8.99711058 -22.2841055 6.00128499 -18.36425781 3.41992188 C-17.57641907 2.89877808 -16.78858032 2.37763428 -15.97686768 1.84069824 C-10.6678992 -0.24722634 -5.65684265 -0.01418176 0 0 Z " fill="#C46503" transform="translate(203.3642578125,297.580078125)"/>
<path d="M0 0 C0.82347427 -0.00832352 1.64694855 -0.01664703 2.49537659 -0.02522278 C5.21221683 -0.04927568 7.92881658 -0.0580904 10.64575195 -0.06469727 C12.54279143 -0.07366926 14.43983021 -0.0827912 16.33686829 -0.09205627 C20.31378902 -0.10853751 24.29062568 -0.11624445 28.26757812 -0.11914062 C33.3438128 -0.12451445 38.41924795 -0.16215685 43.49525738 -0.20788479 C47.4151339 -0.23775042 51.33482043 -0.24486629 55.2548008 -0.24586678 C57.12497419 -0.2500525 58.99514901 -0.26242006 60.86520958 -0.28338432 C80.45788483 -0.48549158 80.45788483 -0.48549158 87.6965332 5.30639648 C92.52191242 10.53451215 94.84076478 14.64744006 94.8215332 21.86889648 C94.82540039 23.32489258 94.82540039 23.32489258 94.8293457 24.81030273 C94.6965332 27.30639648 94.6965332 27.30639648 93.6965332 29.30639648 C93.0365332 29.30639648 92.3765332 29.30639648 91.6965332 29.30639648 C91.2015332 28.41952148 90.7065332 27.53264648 90.1965332 26.61889648 C87.09678798 21.93834067 82.9837185 19.94996921 77.6965332 18.30639648 C71.25112396 17.38622712 64.68224516 17.62587138 58.1887207 17.67749023 C56.29403548 17.67666025 54.39935034 17.674196 52.50466919 17.67018127 C48.54903285 17.66733416 44.59396615 17.68192055 40.63842773 17.70947266 C35.58345845 17.74360032 30.52950368 17.73751125 25.4744854 17.71881008 C21.56751127 17.70821403 17.66077093 17.71720077 13.75381851 17.7321949 C11.89040955 17.7373549 10.02697596 17.73692159 8.1635704 17.73064995 C5.5553759 17.72516416 2.94860782 17.74567729 0.34057617 17.77294922 C-0.79896011 17.7631604 -0.79896011 17.7631604 -1.96151733 17.75317383 C-7.99724529 17.85981825 -13.45356396 19.48293712 -17.83561897 23.82433224 C-19.04685691 25.27389126 -20.18066244 26.78730824 -21.3034668 28.30639648 C-21.9634668 28.96639648 -22.6234668 29.62639648 -23.3034668 30.30639648 C-25.13115057 24.82334518 -25.46705433 18.37586014 -23.3972168 12.91577148 C-17.87038245 3.63352406 -10.66695741 0.00920214 0 0 Z " fill="#C46401" transform="translate(199.303466796875,179.693603515625)"/>
</svg>
