<svg xmlns="http://www.w3.org/2000/svg" width="250" height="250" fill="none"><g fill-rule="evenodd" clip-path="url(#a)" clip-rule="evenodd"><path fill="#ED9B33" d="M222 124.948c0 53.6-43.395 97.052-96.926 97.052-1.345 0-2.684-.027-4.016-.082l-9.32-16.166a82.221 82.221 0 0 0 13.336 1.084c45.167 0 81.781-36.663 81.781-81.888 0-6.877-.846-13.557-2.441-19.939l10.102-17.52C219.337 99.014 222 111.67 222 124.947Z"/><path fill="#00C3F2" d="M43.153 124.966c0 37.79 25.643 69.594 60.486 78.977l9.994 17.299C65.419 215.625 28 174.663 28 124.966c0-18.922 5.424-36.577 14.803-51.497h18.604c-11.414 14.06-18.254 31.98-18.254 51.497Z"/><path fill="#00B47E" d="M125.003 28c37.667 0 70.32 21.416 86.388 52.706l-9.41 16.255c-11.397-31.404-41.56-53.844-76.978-53.844-22.741 0-43.316 9.251-58.148 24.186h-19.91C64.612 43.462 92.997 28 125.003 28Z"/><path fill="#004976" d="M111.423 162.447 79.218 130.35a1.51 1.51 0 0 1 0-2.14l15.03-14.979a1.522 1.522 0 0 1 2.146 0l16.103 16.049 41.867-41.727a1.522 1.522 0 0 1 2.147 0l15.029 14.979c.593.59.593 1.548 0 2.139l-57.97 57.776a1.522 1.522 0 0 1-2.147 0Z"/></g><defs><clipPath id="a"><path fill="#fff" d="M28 28h194v194H28z"/></clipPath></defs></svg>