<svg class="w-full h-full" viewBox="0 0 45 68" fill="none" xmlns="http://www.w3.org/2000/svg">
    <path d="M29.1849 40.3641C53.0686 29.0826 41.9307 0.587463 41.9307 0.587463C-6.34772 0.587463 0.668199 42.3257 0.668199 42.3257L26.9242 42.3322C31.2995 44.6086 36.1965 52.3609 30.8444 59.2673C28.0406 62.8844 22.652 63.1264 19.217 60.1175C17.8216 58.899 14.977 54.6331 18.208 50.2258C20.7091 46.8187 25.3033 48.2342 26.7203 49.6819C27.3064 50.2794 27.4201 51.1938 26.8727 51.8234C26.7449 51.9746 26.5882 52.0988 26.4117 52.1889C26.2352 52.279 26.0425 52.3331 25.8449 52.348C25.6472 52.363 25.4485 52.3385 25.2604 52.276C25.0723 52.2135 24.8986 52.1142 24.7495 51.984C24.1848 51.485 22.2763 50.667 20.7928 52.271C20.0822 53.0398 18.9766 55.5753 21.1857 57.8154C23.2209 59.8841 26.731 59.5286 28.5687 57.2779C32.0144 53.0591 29.2621 48.6304 27.8667 47.4054C24.1011 44.1139 18.5923 44.7178 15.1358 48.3349C12.0873 51.5172 12.5811 56.145 12.9053 57.5156C14.6313 64.7796 22.0616 69.3025 29.0711 66.949C41.5099 62.7687 46.1708 46.1377 41.5443 33.9224C40.0692 35.8189 38.2016 37.376 36.0688 38.4876C33.9359 39.5993 31.588 40.2393 29.1849 40.3641ZM13.3647 31.5603C9.54329 26.1637 10.7176 18.6191 15.9903 14.7065C21.2608 10.7961 28.631 11.9975 32.4545 17.3941C36.2759 22.7908 35.1016 30.3332 29.8289 34.2458C24.5584 38.1583 17.1861 36.9548 13.3647 31.5603ZM18.5601 29.4124C18.7862 29.7258 19.0721 29.9916 19.4015 30.1946C19.7308 30.3975 20.0971 30.5335 20.4794 30.5948C20.8616 30.6561 21.2522 30.6414 21.6287 30.5517C22.0052 30.462 22.3603 30.2989 22.6735 30.0719C23.9938 29.1125 24.2857 27.2666 23.3304 25.9431C23.1041 25.6292 22.8178 25.363 22.488 25.1599C22.1582 24.9569 21.7914 24.8208 21.4087 24.7597C21.026 24.6986 20.6349 24.7136 20.258 24.8039C19.8812 24.8942 19.5259 25.0579 19.2127 25.2856C18.5797 25.7482 18.1558 26.4417 18.0336 27.2148C17.9113 27.9879 18.1006 28.7779 18.5601 29.4124Z" fill="#23C55E"></path>
</svg>