<?xml version="1.0" encoding="UTF-8"?>
<svg xmlns="http://www.w3.org/2000/svg" xmlns:xlink="http://www.w3.org/1999/xlink" width="250px" height="250px" viewBox="0 0 250 250" version="1.1">
<g id="surface1">
<rect x="0" y="0" width="250" height="250" style="fill:rgb(100%,100%,100%);fill-opacity:1;stroke:none;"/>
<path style=" stroke:none;fill-rule:nonzero;fill:rgb(13.333334%,77.254903%,36.862746%);fill-opacity:1;" d="M 147.285156 145.535156 C 225.953125 108.65625 189.269531 15.507812 189.269531 15.507812 C 30.25 15.507812 53.359375 151.949219 53.359375 151.949219 L 139.839844 151.96875 C 154.25 159.414062 170.378906 184.753906 152.753906 207.332031 C 143.515625 219.15625 125.769531 219.945312 114.453125 210.109375 C 109.859375 206.128906 100.488281 192.183594 111.132812 177.773438 C 119.367188 166.636719 134.5 171.265625 139.167969 175.996094 C 141.097656 177.949219 141.472656 180.9375 139.671875 182.996094 C 139.25 183.492188 138.734375 183.898438 138.152344 184.191406 C 137.570312 184.484375 136.9375 184.664062 136.285156 184.710938 C 135.632812 184.761719 134.980469 184.679688 134.359375 184.476562 C 133.742188 184.273438 133.167969 183.949219 132.675781 183.523438 C 130.816406 181.890625 124.53125 179.214844 119.644531 184.460938 C 117.304688 186.972656 113.664062 195.261719 120.9375 202.585938 C 127.640625 209.347656 139.203125 208.1875 145.257812 200.828125 C 156.605469 187.035156 147.539062 172.558594 142.945312 168.554688 C 130.542969 157.796875 112.398438 159.769531 101.011719 171.59375 C 90.972656 181.996094 92.597656 197.125 93.664062 201.605469 C 99.351562 225.351562 123.824219 240.136719 146.910156 232.441406 C 187.882812 218.777344 203.234375 164.410156 187.996094 124.480469 C 183.136719 130.679688 176.984375 135.769531 169.960938 139.402344 C 162.933594 143.035156 155.203125 145.128906 147.285156 145.535156 Z M 95.179688 116.757812 C 82.589844 99.117188 86.460938 74.453125 103.828125 61.660156 C 121.1875 48.878906 145.460938 52.804688 158.054688 70.449219 C 170.640625 88.089844 166.773438 112.746094 149.40625 125.535156 C 132.046875 138.328125 107.765625 134.390625 95.179688 116.757812 Z M 112.289062 109.734375 C 113.035156 110.761719 113.976562 111.628906 115.0625 112.292969 C 116.148438 112.957031 117.351562 113.398438 118.613281 113.601562 C 119.871094 113.800781 121.15625 113.753906 122.398438 113.460938 C 123.636719 113.167969 124.808594 112.632812 125.839844 111.890625 C 130.1875 108.753906 131.148438 102.71875 128.003906 98.394531 C 127.257812 97.367188 126.316406 96.496094 125.226562 95.835938 C 124.140625 95.171875 122.933594 94.726562 121.671875 94.527344 C 120.414062 94.324219 119.125 94.375 117.882812 94.671875 C 116.640625 94.964844 115.472656 95.5 114.441406 96.246094 C 112.355469 97.757812 110.960938 100.023438 110.554688 102.550781 C 110.152344 105.078125 110.777344 107.660156 112.289062 109.734375 Z M 112.289062 109.734375 "/>
</g>
</svg>
