<?xml version="1.0" encoding="UTF-8" standalone="no"?>
<svg
   id="Layer_1"
   data-name="Layer 1"
   viewBox="0 0 360 360"
   version="1.1"
   sodipodi:docname="icon.svg"
   inkscape:version="1.3 (0e150ed, 2023-07-21)"
   xmlns:inkscape="http://www.inkscape.org/namespaces/inkscape"
   xmlns:sodipodi="http://sodipodi.sourceforge.net/DTD/sodipodi-0.dtd"
   xmlns="http://www.w3.org/2000/svg"
   xmlns:svg="http://www.w3.org/2000/svg"
   xmlns:rdf="http://www.w3.org/1999/02/22-rdf-syntax-ns#"
   xmlns:cc="http://creativecommons.org/ns#"
   xmlns:dc="http://purl.org/dc/elements/1.1/">
  <sodipodi:namedview
     id="namedview2"
     pagecolor="#ffffff"
     bordercolor="#000000"
     borderopacity="0.25"
     inkscape:showpageshadow="2"
     inkscape:pageopacity="0.0"
     inkscape:pagecheckerboard="0"
     inkscape:deskcolor="#d1d1d1"
     inkscape:zoom="0.65555556"
     inkscape:cx="179.23729"
     inkscape:cy="180"
     inkscape:window-width="2560"
     inkscape:window-height="1387"
     inkscape:window-x="0"
     inkscape:window-y="25"
     inkscape:window-maximized="0"
     inkscape:current-layer="Layer_1" />
  <defs
     id="defs1">
    <style
       id="style1">.cls-1{fill:#33b5f1;}</style>
  </defs>
  <title
     id="title1">milvus-icon-color</title>
  <path
     class="cls-1"
     d="m 173.4911,74.007249 c 28.78003,0.456601 53.97764,10.008176 74.99865,29.886531 16.84165,15.92617 27.22196,35.41597 31.35263,58.21848 a 94.851604,94.851604 0 0 1 1.53958,18.81415 c -0.51304,25.64027 -8.95328,48.33189 -25.80511,67.72209 -16.33378,18.79425 -36.8423,30.72371 -61.28965,35.21523 -32.97134,6.05767 -62.88501,-1.30237 -89.36285,-22.04057 -5.500245,-4.30791 -10.272781,-9.41055 -15.246321,-14.28854 Q 73.617203,231.78261 57.594365,215.99167 43.059587,201.70813 28.518442,187.43129 c -4.501269,-4.43672 -4.504466,-10.59258 -0.0056,-15.02889 Q 43.446878,157.67595 58.432412,143.00179 C 67.8121,133.7931 77.145136,124.53586 86.597421,115.40213 92.87276,109.33836 98.811368,102.91386 105.69465,97.490411 a 107.79189,107.79189 0 0 1 46.24116,-21.332075 109.11778,109.11778 0 0 1 21.55535,-2.15124 z m 83.18878,105.991691 a 82.853053,82.853053 0 0 0 -1.34104,-13.59061 C 251.14306,144.41464 239.58795,127.2366 220.90068,115.0865 202.87725,103.36808 183.0686,99.726253 161.94214,103.72615 a 77.108433,77.108433 0 0 0 -39.64291,20.39558 c -7.39912,7.0672 -14.65176,14.28797 -21.95795,21.45227 q -14.691681,14.40649 -29.3579,28.83873 c -3.377228,3.32994 -3.362765,7.68124 -0.0114,10.99616 4.797987,4.74568 9.629918,9.457 14.442242,14.18822 q 17.598848,17.30211 35.197428,34.60442 25.51771,24.99452 61.22239,23.36173 a 74.778839,74.778839 0 0 0 35.28006,-10.38141 c 25.43033,-15.14366 38.41969,-37.71649 39.56584,-67.18289 z m 52.4471,-0.0677 a 154.33991,154.33991 0 0 0 -3.6841,-34.32546 10.57048,10.57048 0 0 1 -0.18112,-1.04154 2.3728673,2.3728673 0 0 1 1.14809,-2.4744 2.4054147,2.4054147 0 0 1 2.84762,0.0193 8.2288272,8.2288272 0 0 1 1.07048,0.97769 q 14.54921,14.5431 29.0937,29.09122 c 4.77907,4.77991 4.77017,10.86581 -0.0203,15.65643 q -14.49918,14.4997 -28.99886,28.99899 c -0.24947,0.24942 -0.49246,0.50595 -0.7515,0.74494 a 2.4593874,2.4593874 0 0 1 -3.15381,0.39647 2.4166542,2.4166542 0 0 1 -1.2167,-2.80604 c 1.0194,-4.68838 1.89333,-9.40192 2.51986,-14.1625 a 147.89905,147.89905 0 0 0 1.32337,-16.98148 c 0.0214,-1.36413 0.003,-2.7291 0.003,-4.09366 z"
     id="path1"
     style="stroke-width:0.900594" />
  <path
     class="cls-1"
     d="m 178.6518,243.1435 a 63.482255,63.482255 0 1 0 -1.4e-4,0 z"
     id="path2"
     style="stroke-width:0.900594" />
  <metadata
     id="metadata2">
    <rdf:RDF>
      <cc:Work
         rdf:about="">
        <dc:title>milvus-icon-color</dc:title>
      </cc:Work>
    </rdf:RDF>
  </metadata>
</svg>
