<svg xmlns="http://www.w3.org/2000/svg" width="250" height="250" fill="none"><path fill="#CF8A29" d="M210.192 75.957 191.03 97.933a130.84 130.84 0 0 0-27.333 50.617 131.216 131.216 0 0 0-3.018 57.503 91.252 91.252 0 0 0 36.173-33.738 91.807 91.807 0 0 0 13.34-47.738v-48.62Z"/><path fill="#CF8A29" d="M210.192 124.577V66.764a7.451 7.451 0 0 0-2.002-5.307 7.39 7.39 0 0 0-5.148-2.341h-15.015l-19.305 12.963a130.925 130.925 0 0 0-46.708 55.789 131.6 131.6 0 0 0-9.812 72.225l2.467.395c-.822 0-1.609-.18-2.431-.252A130.635 130.635 0 0 0 115.527 216h3.575c24.143-.01 47.296-9.642 64.374-26.783 17.079-17.141 26.687-40.389 26.716-64.64Zm12.155-88.622-18.626 12.532h2.967a16.791 16.791 0 0 0 9.885-3.674 16.923 16.923 0 0 0 5.774-8.858Z"/><path fill="#CF8A29" d="M210.191 66.765a7.452 7.452 0 0 0-2.002-5.308 7.386 7.386 0 0 0-5.148-2.34h-83.833a131.285 131.285 0 0 0-40.737 48.686 131.914 131.914 0 0 0-13.209 62.198 68.057 68.057 0 0 0 21.28 20.818 67.731 67.731 0 0 0 28.09 9.705 75.318 75.318 0 0 1-48.798-22.012 130.855 130.855 0 0 0 4.469 23.125 90.668 90.668 0 0 0 45.914 14.304 90.633 90.633 0 0 0 46.76-11.204 91.135 91.135 0 0 0 34.541-33.582 91.661 91.661 0 0 0 12.673-46.578V66.765Zm-3.503-18.314a16.8 16.8 0 0 0 10.956-4.607 16.937 16.937 0 0 0 5.202-10.726h-44.973l-24.381 8.367a130.385 130.385 0 0 0-16.552 7.002h69.748v-.036Z"/><path fill="#CF8A29" d="M210.191 124.577V66.765a7.451 7.451 0 0 0-2.002-5.308 7.386 7.386 0 0 0-5.148-2.34h-79.149c-47.869 0-74.324 38.062-70.105 77.346 3.754 35.908 28.6 60.003 60.774 64.061-19.761-1.049-38.329-9.824-51.732-24.446-13.404-14.623-20.579-33.933-19.99-53.801.588-19.868 8.893-38.716 23.139-52.512 14.245-13.797 33.3-21.447 53.087-21.314h87.623a16.8 16.8 0 0 0 10.956-4.607 16.943 16.943 0 0 0 5.203-10.726H119.173c-18 0-35.597 5.361-50.564 15.405a91.336 91.336 0 0 0-33.523 41.024 91.8 91.8 0 0 0-5.185 52.817 91.549 91.549 0 0 0 24.9 46.81 90.899 90.899 0 0 0 46.593 25.029 90.64 90.64 0 0 0 52.585-5.188 91.1 91.1 0 0 0 40.855-33.656 91.707 91.707 0 0 0 15.357-50.782Z"/><path fill="#F6B81A" d="M210.192 66.765a7.451 7.451 0 0 0-2.002-5.308 7.386 7.386 0 0 0-5.148-2.34h-79.149c-47.869 0-74.324 38.062-70.105 77.346a71.075 71.075 0 0 0 8.786 29.119 70.753 70.753 0 0 0 20.135 22.733 130.132 130.132 0 0 0 71.407-9.324 130.78 130.78 0 0 0 55.647-45.904c.25-2.8.393-5.637.393-8.51V66.765h.036Z"/><path fill="#F6B81A" d="M119.138 33.118A90.68 90.68 0 0 0 72.216 46.18a91.217 91.217 0 0 0-33.498 35.494 91.723 91.723 0 0 0-10.48 47.76 91.66 91.66 0 0 0 15.54 46.35l1.108.718a129.64 129.64 0 0 0 31.352 10.772 75.982 75.982 0 0 1-28.654-37.751 76.339 76.339 0 0 1-.77-47.465 76.01 76.01 0 0 1 27.415-38.67 75.459 75.459 0 0 1 44.909-14.792h87.55a16.803 16.803 0 0 0 10.957-4.608 16.942 16.942 0 0 0 5.202-10.725H119.173l-.035-.144Z"/><path fill="#F6B81A" d="M210.191 66.765a7.451 7.451 0 0 0-2.002-5.308 7.386 7.386 0 0 0-5.148-2.34h-79.149c-47.833 0-74.145 37.99-70.105 77.202a129.93 129.93 0 0 0 74.326 1.199 130.408 130.408 0 0 0 62.916-39.764l19.162-21.797v-9.192Z"/><path fill="#F6B81A" d="M43.384 124.577c.02-20.178 8.005-39.524 22.207-53.795 14.201-14.271 33.458-22.302 53.547-22.33h87.55a16.802 16.802 0 0 0 10.957-4.608 16.942 16.942 0 0 0 5.202-10.726H119.173c-24.143.02-47.292 9.661-64.364 26.81-17.072 17.147-26.67 40.399-26.69 64.649v.503a128.76 128.76 0 0 0 15.73 7.684 76.75 76.75 0 0 1-.465-8.187Z"/><path fill="#F6B81A" d="M187.883 59.116h-63.992c-27.67 0-48.119 12.712-59.702 31.025a129.425 129.425 0 0 0 54.079 2.178 129.654 129.654 0 0 0 50.274-20.132l19.341-13.07Z"/><path fill="#F6B81A" d="M222.848 33.118H119.174A90.786 90.786 0 0 0 72.6 45.996a91.316 91.316 0 0 0-33.47 34.988 130.45 130.45 0 0 0 14.3 5.925 75.962 75.962 0 0 1 27.742-28.104 75.534 75.534 0 0 1 38.038-10.318h84.512l18.59-12.496c.261-.94.441-1.901.536-2.873Z"/><path fill="#F6B81A" d="M76.81 43.64a128.974 128.974 0 0 0 76.683-2.19l24.382-8.332h-58.737A90.127 90.127 0 0 0 76.81 43.64Z"/><path fill="#FBF4D8" d="M98.046 129.102a33.334 33.334 0 0 1 8.361-21.161 33.063 33.063 0 0 1 19.953-10.798l7.829-7.9-7.15-7.181a48.073 48.073 0 0 0-30.947 15.054 48.48 48.48 0 0 0-13.06 31.95l7.47-7.541 7.544 7.577Z"/><path fill="#FBF4D8" d="M130.113 163.251a33.029 33.029 0 0 1-21.042-8.448 33.296 33.296 0 0 1-10.703-20.064l-7.83-7.9-7.15 7.182a48.419 48.419 0 0 0 14.882 31.137 48.01 48.01 0 0 0 31.772 13.21l-7.472-7.541 7.543-7.576Z"/><path fill="#FBF4D8" d="m171.582 138.581-7.615-7.576a33.33 33.33 0 0 1-8.361 21.16 33.06 33.06 0 0 1-19.953 10.798l-7.829 7.9 7.15 7.182a48.07 48.07 0 0 0 30.992-15.032 48.476 48.476 0 0 0 13.087-31.972l-7.471 7.54Z"/><path fill="#FBF4D8" d="M131.794 96.82a33.026 33.026 0 0 1 21.043 8.448 33.293 33.293 0 0 1 10.702 20.063l7.83 7.9 7.15-7.182a48.42 48.42 0 0 0-14.84-31.067 48.009 48.009 0 0 0-31.671-13.244l7.472 7.541-7.686 7.54Zm-6.185 32.605a7.603 7.603 0 0 1-.322 1.185l-.643.862a26.29 26.29 0 0 1-6.221 2.765 6.311 6.311 0 0 0-2.716 1.867 19.533 19.533 0 0 0-3.146 8.438c0 2.155.965 2.37.965 2.37A52.77 52.77 0 0 0 130.4 150a51.773 51.773 0 0 0 17.874-2.657 1.999 1.999 0 0 0 1.144-1.257 9.652 9.652 0 0 0-2.502-9.085c-1.001-2.226-7.15-4.165-7.15-4.165a5.365 5.365 0 0 1-3.182-2.011c-.124-.436-.22-.88-.286-1.328a4.989 4.989 0 0 1 0-.647 11.764 11.764 0 0 0 1.752-3.196 6.024 6.024 0 0 0 .894-2.441 2.674 2.674 0 0 0 0-2.298 8.47 8.47 0 0 0-.394-6.284 5.467 5.467 0 0 0-3.574-3.591 10.182 10.182 0 0 0-6.721-.683 8.324 8.324 0 0 0-3.944 2.453 8.382 8.382 0 0 0-2.027 4.19 9.237 9.237 0 0 0 .429 4.381 5.486 5.486 0 0 0 .215 2.263 1.7 1.7 0 0 0 .786 1.364 11.482 11.482 0 0 0 1.681 3.591c.048.321.048.648 0 .969l.214-.143Z"/></svg>