<svg class="stroke-[0.5] dark:stroke-0" fill="currentColor" height="32" stroke="currentColor" viewBox="0 0 32 32" width="32" xmlns="http://www.w3.org/2000/svg"><path d="m15.9746 26.7849c-4.2165 0-7.95375-1.4489-10.51715-4.0832-2.39569-2.4667-3.66541-5.8555-3.56958-9.5555.22759-8.15457 6.98345-12.429403 13.53563-12.429403 2.7551 0 5.3065.658583 7.1752 1.844043 1.8087 1.14954 2.8508 2.7062 2.8508 4.27484 0 4.25092-6.2887 4.57422-10.0379 4.76582-.3115.0119-.599.0359-.8745.0479-.3833.0239-.6708.3352-.6708.7184 0 .3592.2636.6586.6229.7065 2.5514.3473 5.007.7304 6.8757 1.5686 2.1321.958 3.2821 2.4189 3.5097 4.4784.1796 1.6405-.4552 3.4486-1.701 4.8496-1.1499 1.2933-3.33 2.814-7.199 2.814zm-.5511-24.63118c-3.0185 0-6.00117 1.01781-8.18125 2.80199-2.46757 2.01169-3.82114 4.86158-3.90499 8.23829-.08385 3.305 1.03015 6.3225 3.16232 8.5138 2.28789 2.347 5.65382 3.6522 9.48692 3.6522 3.342 0 5.1628-1.2693 6.121-2.3231 1.15-1.2932 1.4494-2.778 1.3416-3.724-.3713-3.3408-4.0367-4.0952-9.1515-4.7897-1.0661-.1437-1.8567-1.0657-1.8567-2.1314 0-1.1376.8864-2.0836 2.0244-2.1554.2755-.012.5749-.0359.8864-.0479 4.2044-.21555 8.6844-.67057 8.6844-3.34085-.024-1.97576-3.0066-4.69393-8.6126-4.69393z"></path><path d="m16.5611 31.2632c-2.755 0-5.3064-.6586-7.17507-1.8441-1.80875-1.1495-2.85087-2.7062-2.85087-4.2748 0-4.2509 6.28874-4.5742 10.03794-4.7658.3115-.012.5989-.0359.8745-.0479.3833-.0239.6707-.3353.6707-.7185 0-.3592-.2635-.6585-.6228-.7064-2.5515-.3473-5.007-.7305-6.8757-1.5687-2.13215-.9579-3.28209-2.4188-3.50968-4.4784-.17967-1.6405.45519-3.44858 1.70095-4.84958 1.14993-1.28125 3.31803-2.80199 7.18713-2.80199 4.2164 0 7.9537 1.44889 10.5171 4.08325 2.3957 2.46672 3.6654 5.85542 3.5695 9.55552-.2036 8.1425-6.9594 12.4174-13.5237 12.4174zm-8.01356-18.5722c.37133 3.3408 4.03676 4.0952 9.15156 4.7897 1.0661.1437 1.8567 1.0657 1.8567 2.1314 0 1.1376-.8864 2.0836-2.0244 2.1554-.2755.012-.575.036-.8864.0479-4.2045.2156-8.6844.6706-8.6844 3.3409 0 1.9638 2.9826 4.6819 8.5886 4.6819 3.0305 0 6.0132-1.0178 8.1813-2.79 2.4675-2.0117 3.8211-4.8616 3.905-8.2383.0838-3.3049-1.0302-6.3225-3.1624-8.5138-2.2639-2.3709-5.6299-3.66412-9.463-3.66412-3.33 0-5.1627 1.2573-6.12097 2.32302-1.14993 1.2932-1.4494 2.778-1.34159 3.736z"></path></svg>
