<?xml version="1.0" encoding="UTF-8"?>
<svg version="1.1" xmlns="http://www.w3.org/2000/svg" width="500" height="500">
<path d="M0 0 C1.44474197 0.00131424 1.44474197 0.00131424 2.91867065 0.00265503 C57.79643452 0.16660133 111.53968935 18.1087095 154.6875 52.375 C155.56019531 53.055625 156.43289063 53.73625 157.33203125 54.4375 C202.36031043 90.30189806 232.96980314 140.29095302 245.6875 196.375 C245.85330566 197.09220215 246.01911133 197.8094043 246.18994141 198.54833984 C250.0576644 215.51896116 251.1012501 232.35160601 251.0625 249.6875 C251.06162384 250.65066132 251.06074768 251.61382263 251.05984497 252.60617065 C250.89454448 307.93722136 232.55846063 360.61032524 198.6875 404.375 C197.96175781 405.31472656 197.23601562 406.25445312 196.48828125 407.22265625 C154.65651966 459.72499659 93.82838456 491.85451362 27.44775391 499.90771484 C22.68386582 500.42497153 17.95707182 500.5694031 13.16796875 500.61328125 C12.27968384 500.6230751 11.39139893 500.63286896 10.47619629 500.64295959 C-26.00560705 500.96203837 -64.22920137 497.81124762 -97.54443359 481.26660156 C-104.55016398 479.01003714 -112.31688835 480.64014302 -119.43115234 481.76782227 C-120.39990799 481.91573212 -121.36866364 482.06364197 -122.36677551 482.21603394 C-124.45583612 482.53566897 -126.54444747 482.85825158 -128.63264084 483.1835041 C-131.94540734 483.69871108 -135.25949991 484.20441626 -138.5741272 484.70750427 C-147.99326179 486.13857573 -157.41008203 487.58446095 -166.82519531 489.04174805 C-172.59811702 489.93461459 -178.37287225 490.81470671 -184.14891434 491.68714714 C-186.33995982 492.02073619 -188.53026791 492.3592086 -190.71976852 492.70279121 C-193.78983775 493.18433736 -196.86199087 493.64960544 -199.93505859 494.11157227 C-201.27116432 494.3273568 -201.27116432 494.3273568 -202.63426208 494.54750061 C-214.12164325 496.23077664 -223.48961551 494.73183008 -233.3125 488.375 C-238.68287308 483.96246901 -241.6298902 478.03753753 -243.3125 471.375 C-244.29115838 460.10349724 -242.49431997 449.06434402 -240.71975708 437.96317673 C-240.23863718 434.952329 -239.77186571 431.93953892 -239.30834961 428.92593384 C-238.32228136 422.53196923 -237.31826307 416.1408915 -236.3125 409.75 C-235.14576421 402.32731008 -233.98667763 394.9035402 -232.8430481 387.47725296 C-232.38586569 384.53096099 -231.91681041 381.58672946 -231.44702148 378.64242554 C-228.33296059 359.17426572 -228.33296059 359.17426572 -232.9375 340.3125 C-233.6798806 338.49047273 -234.41674145 336.66618798 -235.1484375 334.83984375 C-235.51549805 333.92960449 -235.88255859 333.01936523 -236.26074219 332.08154297 C-241.72639766 318.01648805 -245.02938198 303.26002176 -247.3125 288.375 C-247.49127686 287.23877197 -247.67005371 286.10254395 -247.85424805 284.93188477 C-249.47421715 273.55313519 -249.67073143 262.29341301 -249.625 250.8125 C-249.62284485 249.83944916 -249.6206897 248.86639832 -249.61846924 247.86386108 C-249.56748489 233.52060786 -249.23658424 219.46637568 -246.3125 205.375 C-246.00650879 203.88444092 -246.00650879 203.88444092 -245.69433594 202.36376953 C-238.68808042 169.23448123 -226.39522327 135.93377354 -206.3125 108.375 C-205.66958008 107.48167969 -205.66958008 107.48167969 -205.01367188 106.5703125 C-191.27072711 87.53279791 -175.90183764 69.82469522 -157.3125 55.375 C-155.83910156 54.19357422 -155.83910156 54.19357422 -154.3359375 52.98828125 C-123.8551863 28.73503804 -87.93632399 12.63744047 -49.9375 4.5625 C-49.02460205 4.36760986 -48.1117041 4.17271973 -47.17114258 3.97192383 C-31.47785213 0.8188134 -15.96882608 -0.03569435 0 0 Z M-136.8125 127 C-167.23260103 160.50258256 -183.86234688 204.96151605 -183.625 250.0625 C-183.62284485 250.80512085 -183.6206897 251.5477417 -183.61846924 252.31286621 C-183.56324748 264.21586896 -182.95829207 275.73834739 -180.3125 287.375 C-180.03043701 288.64730469 -180.03043701 288.64730469 -179.74267578 289.9453125 C-176.71298602 303.17278855 -172.08708522 315.49436565 -166.6796875 327.921875 C-166.28620117 328.84033203 -165.89271484 329.75878906 -165.48730469 330.70507812 C-164.7258989 332.43548829 -163.92632899 334.14979584 -163.08300781 335.84179688 C-159.75281397 342.93668196 -160.16629413 348.77136723 -161.3125 356.375 C-161.43338989 357.19808655 -161.55427979 358.0211731 -161.67883301 358.86920166 C-162.86605858 366.86800394 -164.14617559 374.85208744 -165.45214844 382.83227539 C-165.94916314 385.88281047 -166.43245378 388.9352815 -166.9140625 391.98828125 C-167.14677353 393.37446404 -167.14677353 393.37446404 -167.38418579 394.78865051 C-168.32478492 400.81970742 -169.17783589 407.08052984 -166.04296875 412.6171875 C-165.27919922 413.42542969 -165.27919922 413.42542969 -164.5 414.25 C-163.99855469 414.80429687 -163.49710938 415.35859375 -162.98046875 415.9296875 C-158.68738004 419.64969411 -154.83060092 419.66146983 -149.3125 419.375 C-145.7587188 418.97487115 -142.2368599 418.41507912 -138.70703125 417.84375 C-136.65042022 417.52454882 -134.59377861 417.20554466 -132.53710938 416.88671875 C-129.33561615 416.38319005 -126.13466428 415.87654256 -122.93432617 415.36572266 C-91.54122763 410.37869087 -91.54122763 410.37869087 -77.1875 417.5 C-74.99680948 418.52147333 -72.80275594 419.53576385 -70.60546875 420.54296875 C-69.53731934 421.0332959 -68.46916992 421.52362305 -67.36865234 422.02880859 C-25.71581578 440.37628749 24.60240026 438.55998197 66.51953125 422.5625 C112.02008332 404.51567259 148.83124992 369.31736412 168.88671875 324.5859375 C186.35564436 283.79918875 188.91720882 237.73335683 175.6875 195.375 C175.33244385 194.23780518 175.33244385 194.23780518 174.97021484 193.07763672 C166.96335453 168.17973644 153.63366313 145.37064636 135.6875 126.375 C134.55787767 125.04558052 133.43270688 123.71236282 132.3125 122.375 C103.75452793 89.84883591 58.53370606 69.56609248 15.6875 66.375 C-43.55910472 64.09662343 -95.68113249 83.91281818 -136.8125 127 Z " fill="#42BE63" transform="translate(249.3125,-0.375)"/>
<path d="M0 0 C1.34851404 0.80853702 2.67972602 1.64612715 4 2.5 C6.16037681 3.78341973 8.32417065 5.05586648 10.5 6.3125 C11.09772217 6.65772705 11.69544434 7.0029541 12.3112793 7.35864258 C45.58641513 26.27362117 84.49105584 30.49975517 121.37011719 20.65112305 C136.44720628 16.35576911 151.10684803 9.67085694 164.0390625 0.77734375 C169.59663509 -2.84282804 176.64666793 -1.98708879 183 -1.5 C189.65754287 0.16438572 194.19121378 4.97211298 198 10.5 C201.1890094 16.96334346 201.08007993 24.39799432 199.265625 31.2890625 C196.11228714 38.66970112 190.68828179 42.41182776 184 46.5 C183.41283203 46.8594873 182.82566406 47.21897461 182.22070312 47.58935547 C138.49424679 74.02940842 86.41253028 82.10391483 36.69384766 70.19970703 C13.04768003 64.05778965 -20.51714105 53.65041113 -34 31.5 C-36.08486175 25.24541476 -36.21691582 17.21711522 -33.5 11.125 C-26.7901604 -0.14562026 -12.37310721 -6.0657749 0 0 Z " fill="#42BE63" transform="translate(169,254.5)"/>
</svg>
