<svg xmlns="http://www.w3.org/2000/svg" xmlns:xlink="http://www.w3.org/1999/xlink" viewBox="0 0 136.75 143.93"><defs><style>.cls-1{fill:url(#linear-gradient);}</style><linearGradient id="linear-gradient" x1="136.75" y1="71.96" x2="0" y2="71.96" gradientUnits="userSpaceOnUse"><stop offset="0" stop-color="#ffa448"/><stop offset="1" stop-color="#ff4459"/></linearGradient></defs><g id="Layer_2" data-name="Layer 2"><g id="Layer_1-2" data-name="Layer 1"><path class="cls-1" d="M83.11,72,133.9,17.7a10,10,0,0,0,1.81-11.44A11.37,11.37,0,0,0,125.32,0h-48A32.61,32.61,0,0,0,53.5,10.07L3.43,63.37a12.47,12.47,0,0,0,0,17.18L53.5,133.86a32.61,32.61,0,0,0,23.77,10.07h48.05a11.36,11.36,0,0,0,10.39-6.27,10,10,0,0,0-1.81-11.43Zm-20-54a19.46,19.46,0,0,1,14.17-6h45L74.61,62.89l-5.87-6.27a39.66,39.66,0,0,0-21.15-11.7h0l-1.46-.3a39,39,0,0,0-7.34-.78ZM20.83,80.78,13,72.58a.91.91,0,0,1-.26-.62,1,1,0,0,1,.26-.62l7.79-8.19a24.25,24.25,0,0,1,17.54-7.36,25.15,25.15,0,0,1,5,.51l1.46.3h0a26.83,26.83,0,0,1,14.27,7.89l7,7.47-7,7.47a26.77,26.77,0,0,1-14.27,7.9l-1.46.3A24.53,24.53,0,0,1,20.83,80.78ZM77.27,132a19.43,19.43,0,0,1-14.17-6L38.78,100.08a39,39,0,0,0,7.35-.78l1.46-.3h0A39.64,39.64,0,0,0,68.74,87.31L74.61,81,122.29,132Z"/></g></g></svg>