<svg width="250" height="250" viewBox="0 0 250 250" fill="none" xmlns="http://www.w3.org/2000/svg">
<path d="M173.723 212.875H77.0269C55.4114 212.875 37.875 195.357 37.875 173.723V77.0269C37.875 55.4114 55.3932 37.875 77.0269 37.875H173.723C195.339 37.875 212.875 55.3932 212.875 77.0269V173.741C212.875 195.339 195.357 212.875 173.723 212.875Z" fill="#FF7A00"/>
<path d="M174.471 197.815H76.2812C63.3884 197.815 52.9357 187.362 52.9357 174.47V76.2621C52.9357 63.3692 63.3884 52.9166 76.2812 52.9166H174.489C187.382 52.9166 197.834 63.3692 197.834 76.2621V174.47C197.816 187.362 187.363 197.815 174.471 197.815Z" fill="white"/>
<path d="M125.407 139.707C125.407 135.955 125.37 132.204 125.407 128.453C125.407 127.979 125.134 127.56 125.298 127.069C125.68 125.885 126.299 125.375 127.556 125.375C134.403 125.375 141.268 125.375 148.115 125.375C150.045 125.375 150.373 125.102 150.81 123.172C150.737 122.972 150.755 122.771 150.755 122.589C150.755 115.469 150.755 108.349 150.755 101.229C150.755 101.028 150.737 100.828 150.81 100.646C150.719 99.5896 150.246 98.843 149.153 98.588C148.88 98.4788 148.588 98.5334 148.315 98.5334C132.928 98.5334 117.522 98.5334 102.134 98.5334C101.861 98.5334 101.57 98.4788 101.297 98.6062C100.459 98.7883 100.076 99.3711 99.9125 100.154C99.8033 100.518 99.8579 100.883 99.8579 101.247C99.8579 124.793 99.8579 148.32 99.8579 171.866C99.8579 172.194 99.9307 172.54 99.7851 172.867C99.6758 173.905 99.0202 174.452 98.0915 174.743C97.8002 174.889 97.4724 174.816 97.1628 174.816C90.9895 174.816 84.8345 174.816 78.6612 174.816C78.3516 174.816 78.0421 174.78 77.7325 174.871C76.4032 174.415 75.8386 173.505 75.8386 172.066C75.8568 145.006 75.8204 117.964 75.8933 90.9033C75.9115 86.7514 77.3137 82.9273 80.4276 79.9772C82.4672 78.0469 84.9802 76.9725 87.7117 76.4262C88.8043 76.2077 89.9151 76.0438 91.0442 76.062C91.3719 75.8799 91.7544 76.0802 92.0821 75.9345C92.3917 75.9345 92.7013 75.9163 93.0291 75.9163C114.645 75.9163 136.242 75.8981 157.857 75.9345C161.208 75.9345 164.541 76.3716 167.582 78.0287C170.969 79.8679 173.027 82.7452 174.083 86.3872C174.52 87.8622 174.738 89.3737 174.793 90.9215C174.92 91.2311 174.829 91.5771 174.866 91.8867C174.866 102.904 174.866 113.903 174.866 124.92C174.866 125.266 174.811 125.594 174.92 125.94C174.811 130.001 174.01 133.879 171.442 137.175C169.603 139.525 167.236 141.218 164.45 142.384C161.918 143.44 159.423 144.642 156.929 145.771C156.127 146.135 155.326 146.536 154.525 146.918C153.305 147.519 153.105 148.12 153.797 149.231C154.871 150.961 155.982 152.672 157.056 154.402C160.134 159.392 163.193 164.381 166.271 169.371C166.853 170.318 167.472 171.265 168.055 172.194C168.893 173.505 168.674 174.251 167.254 174.889C167.09 174.834 166.926 174.834 166.744 174.834C160.534 174.834 154.325 174.834 148.097 174.834C147.933 174.834 147.751 174.816 147.587 174.889C145.438 175.053 143.908 174.106 142.779 172.303C140.904 169.298 138.937 166.33 137.025 163.344C134.111 158.809 131.216 154.275 128.32 149.722C126.773 147.264 125.735 144.623 125.553 141.692C125.534 141.382 125.243 141.127 125.407 140.799C125.498 140.399 125.516 140.053 125.407 139.707Z" fill="#0684BC"/>
</svg>
