<?xml version="1.0" encoding="utf-8"?>
<!-- Generator: Adobe Illustrator 27.1.1, SVG Export Plug-In . SVG Version: 6.00 Build 0)  -->
<svg version="1.1" id="svg-78604338-263886854" xmlns="http://www.w3.org/2000/svg" xmlns:xlink="http://www.w3.org/1999/xlink"
	 x="0px" y="0px" viewBox="0 0 977 975.8" style="enable-background:new 0 0 977 975.8;" xml:space="preserve">
<style type="text/css">
	.st0{fill:#FF7A00;}
	.st1{fill:#FFFFFF;}
	.st2{fill:#0684BC;}
</style>
<path class="st0" d="M754,968.4H223c-118.7,0-215-96.2-215-215V222.4c0-118.7,96.2-215,215-215H754c118.7,0,215,96.2,215,215v531.1
	C969,872.1,872.8,968.4,754,968.4z"/>
<path class="st1" d="M758.1,885.7H218.9c-70.8,0-128.2-57.4-128.2-128.2V218.2c0-70.8,57.4-128.2,128.2-128.2h539.3
	c70.8,0,128.2,57.4,128.2,128.2v539.3C886.3,828.3,828.9,885.7,758.1,885.7z"/>
<path class="st2" d="M488.7,566.6c0-20.6-0.2-41.2,0-61.8c0-2.6-1.5-4.9-0.6-7.6c2.1-6.5,5.5-9.3,12.4-9.3c37.6,0,75.3,0,112.9,0
	c10.6,0,12.4-1.5,14.8-12.1c-0.4-1.1-0.3-2.2-0.3-3.2c0-39.1,0-78.2,0-117.3c0-1.1-0.1-2.2,0.3-3.2c-0.5-5.8-3.1-9.9-9.1-11.3
	c-1.5-0.6-3.1-0.3-4.6-0.3c-84.5,0-169.1,0-253.6,0c-1.5,0-3.1-0.3-4.6,0.4c-4.6,1-6.7,4.2-7.6,8.5c-0.6,2-0.3,4-0.3,6
	c0,129.3,0,258.5,0,387.8c0,1.8,0.4,3.7-0.4,5.5c-0.6,5.7-4.2,8.7-9.3,10.3c-1.6,0.8-3.4,0.4-5.1,0.4c-33.9,0-67.7,0-101.6,0
	c-1.7,0-3.4-0.2-5.1,0.3c-7.3-2.5-10.4-7.5-10.4-15.4c0.1-148.6-0.1-297.1,0.3-445.7c0.1-22.8,7.8-43.8,24.9-60
	c11.2-10.6,25-16.5,40-19.5c6-1.2,12.1-2.1,18.3-2c1.8-1,3.9,0.1,5.7-0.7c1.7,0,3.4-0.1,5.2-0.1c118.7,0,237.3-0.1,356,0.1
	c18.4,0,36.7,2.4,53.4,11.5c18.6,10.1,29.9,25.9,35.7,45.9c2.4,8.1,3.6,16.4,3.9,24.9c0.7,1.7,0.2,3.6,0.4,5.3
	c0,60.5,0,120.9,0,181.4c0,1.9-0.3,3.7,0.3,5.6c-0.6,22.3-5,43.6-19.1,61.7c-10.1,12.9-23.1,22.2-38.4,28.6
	c-13.9,5.8-27.6,12.4-41.3,18.6c-4.4,2-8.8,4.2-13.2,6.3c-6.7,3.3-7.8,6.6-4,12.7c5.9,9.5,12,18.9,17.9,28.4
	c16.9,27.4,33.7,54.8,50.6,82.2c3.2,5.2,6.6,10.4,9.8,15.5c4.6,7.2,3.4,11.3-4.4,14.8c-0.9-0.3-1.8-0.3-2.8-0.3
	c-34.1,0-68.2,0-102.4,0c-0.9,0-1.9-0.1-2.8,0.3c-11.8,0.9-20.2-4.3-26.4-14.2c-10.3-16.5-21.1-32.8-31.6-49.2
	c-16-24.9-31.9-49.8-47.8-74.8c-8.5-13.5-14.2-28-15.2-44.1c-0.1-1.7-1.7-3.1-0.8-4.9C489.2,570.4,489.3,568.5,488.7,566.6z"/>
</svg>
