<?xml version="1.0" encoding="utf-8"?>
<svg xmlns="http://www.w3.org/2000/svg" viewBox="344.759 76.047 127.3701 118.27" width="250" height="250">
  <path d="M 404.599 76.047 C 409.729 76.087 414.859 76.007 419.999 76.107 C 422.449 96.987 424.899 117.857 427.449 138.717 C 432.949 138.647 438.459 138.717 443.969 138.677 C 447.949 131.337 458.169 128.487 465.189 133.187 C 473.359 137.857 474.609 150.687 467.369 156.757 C 460.689 163.627 448.269 161.257 443.889 152.947 C 433.849 152.927 423.809 152.937 413.769 152.947 C 412.379 142.427 410.769 131.927 409.359 121.407 C 402.759 145.667 396.439 169.997 390.049 194.307 C 385.109 194.317 380.159 194.307 375.229 194.317 C 371.689 179.587 368.279 164.817 364.749 150.087 C 358.099 150.027 351.459 150.077 344.809 150.057 C 344.759 145.307 344.819 140.557 344.759 135.817 C 355.689 135.807 366.619 135.817 377.539 135.807 C 379.309 143.617 381.179 151.397 382.989 159.187 C 390.269 131.497 397.329 103.747 404.599 76.047 Z" style="fill: rgb(74, 92, 242);"/>
</svg>
