<?xml version="1.0" encoding="UTF-8"?>
<svg id="Laag_2" data-name="Laag 2" xmlns="http://www.w3.org/2000/svg" viewBox="0 0 200 200">
  <defs>
    <style>
      .cls-1 {
        fill: #e65d60;
      }

      .cls-2 {
        fill: #fdfefd;
      }

      .cls-3 {
        fill: #fbfdfc;
      }

      .cls-4 {
        fill: #fdfdfc;
      }

      .cls-5 {
        fill: #006cc8;
      }

      .cls-6 {
        fill: #5fe5fc;
      }

      .cls-7 {
        fill: #e05e60;
      }

      .cls-8 {
        fill: #4ae0dd;
      }

      .cls-9 {
        fill: #3ffba9;
      }

      .cls-10 {
        fill: #049390;
      }

      .cls-11 {
        fill: #775ea2;
      }

      .cls-12 {
        fill: #016cc8;
      }
    </style>
  </defs>
  <g id="Laag_1-2" data-name="Laag 1">
    <g>
      <path class="cls-5" d="M64,0h136v36c-2.03,4.07-5.82,10.05-10.72,10.03-16.03,14.06-4.64,19.9,8.33,6.79l2.39,1.18v146h-24l-1.14-2.04c6.88-16.52-17.89-27.29-24.72-10.58l-2.13.62c-.28.87-.62.86-1,0-.85,3.25-.88,6.75,0,10,.28-.87.62-.86,1,0,2.66.32,2.54,1.24,0,2H0V54c1.1-8.04,2.75-15.83,4.96-23.36,6.31-.45,12.76.46,19.35,2.71,5.02,1.39,5.74-.44,6.82-4.97l2.64-15.31c.37-2.54,2.19-3.62,4.65-3.3l15.22,2.97c5.35,1.85,8.07-2.12,8.15-11.92l2.21-.83Z"/>
      <path class="cls-6" d="M64,0c-.79,3.17-1.53,13.76-4.66,14.83-4.63,1.59-21.47-4.55-23.3-2.79-1.26,4.72-2.2,21.27-6.3,23.26s-18.15-4.2-23.67-3.22c-1.42,1.22-2.25,19.77-6.07,21.93V21l1.46-1.78,20.81,3.47c.52-7.29,2.1-14.3,4.75-21.02,2.67-2.7,19.73-.15,23.91.74.68-1.4,1.71-2.21,3.08-2.41h10Z"/>
      <path class="cls-5" d="M54,0l-1.01,5c-5.19-1.18-19.48-5.97-23.56-3.08-3.12,2.21-4.77,18.6-5.43,23.08L0,21V0h54Z"/>
      <path class="cls-1" d="M200,36v18c-4.14,1.07-10.27,8.55-13.74,8.77-3.13.19-7.07-3.22-7.21-6.33s6.77-9.94,9.27-12.12c.68-.59,2.66-.05,3.37-.64,2.52-2.1,4.78-6.74,8.31-7.68Z"/>
      <path class="cls-12" d="M170,200h-16c-4.52-.44-4.46-9.71-2.6-12.92,5.24-9.02,17.41-9.13,22.16.32,1.67,3.32.97,12.24-3.56,12.6Z"/>
      <path class="cls-9" d="M176,200h-6c11.94-23.12-26.14-23.83-16,0h-6v-2c-.83-2.91-.98-7.16,0-10,.69-6.18,7.55-10.84,13.53-11.04,11.81-.4,20.98,12.52,14.47,23.04Z"/>
      <path class="cls-4" d="M60,40v53l9.99-9.51c14.54-5.39,32.03-2.84,37.8,13.23.45,1.26,2.22,7.06,2.22,7.78v55.5c-35.04,3.15-18.06-31.08-24.69-50.81-3.55-10.57-19.09-9.7-23.05-.43-.46,1.08-2.26,7.08-2.26,7.74v43.5h-23V40h23Z"/>
      <polygon class="cls-2" points="163 47 152.54 120.74 130 118 139 47 163 47"/>
      <path class="cls-3" d="M149.65,132.34c12.76,14.49-9.08,33.64-21.68,20.18-13.71-14.65,9.31-34.21,21.68-20.18Z"/>
      <path class="cls-9" d="M23.76,169.22c8.7-1.41,13.43,8.12,7.3,13.34-11.03,9.4-20.45-11.21-7.3-13.34Z"/>
      <path class="cls-7" d="M188,32c-11.19,4.07-4.92-11.63-.18-7.76.46.37.05,1.63.18,1.76,1.6.59,1.79,5.11,0,6Z"/>
      <path class="cls-11" d="M188,26c.28.27,1.72-.93,2.08,1.44.7,4.61.13,3.76-2.08,4.56v-6Z"/>
      <path class="cls-10" d="M147,198c-1.66-2.02-1.71-7.79,0-10,.71,2.87.8,7.07,0,10Z"/>
      <path class="cls-8" d="M148,198h-1v-10h1c-.34,3.02,0,6.84,0,10Z"/>
    </g>
  </g>
</svg>