<svg width="150" height="150" viewBox="0 0 150 150" fill="none" xmlns="http://www.w3.org/2000/svg">
<path fill-rule="evenodd" clip-rule="evenodd" d="M150 24C150 10.7452 139.255 0 126 0H24C10.7452 0 0 10.7452 0 24V126C0 139.255 10.7452 150 24 150H126C139.255 150 150 139.255 150 126V24ZM58.1408 120.22C65.0216 124.062 73.3041 125.984 82.9882 125.984C87.4904 125.984 92.0352 125.386 96.6224 124.19C101.21 122.995 105.075 121.33 108.218 119.195C110.087 118 111.361 116.549 112.04 114.841C112.72 113.133 112.89 111.425 112.55 109.718C112.295 108.01 111.573 106.559 110.384 105.363C109.28 104.082 107.836 103.314 106.052 103.058C104.353 102.716 102.399 103.101 100.19 104.211C97.5568 105.662 94.796 106.729 91.9078 107.412C89.1045 108.096 86.3436 108.437 83.6253 108.437C77.9338 108.437 73.1342 107.327 69.2266 105.107C65.4039 102.802 62.5157 99.4717 60.5619 95.1171C58.608 90.7624 57.6311 85.5113 57.6311 79.3636C57.6311 73.1305 58.608 67.8794 60.5619 63.6101C62.5157 59.3409 65.4039 56.0963 69.2266 53.8763C73.1342 51.5709 77.9338 50.4182 83.6253 50.4182C86.5135 50.4182 89.3593 50.7598 92.1626 51.4428C94.9659 52.1259 97.6418 53.2359 100.19 54.7728C101.328 55.3676 102.491 55.6559 103.541 55.7955C105.116 56.0047 106.734 55.8348 108.218 55.2696C109.311 54.8534 110.352 54.2795 110.997 53.5321C112.186 52.2513 113.189 50.5925 113.486 49.0294C113.529 48.8006 113.577 48.5569 113.628 48.3027C113.718 47.8494 113.815 47.3626 113.901 46.8674C114.342 44.3382 113.997 41.6379 112.734 39.4025C112.362 38.7426 111.918 38.0228 111.419 37.2146C111.351 37.1047 111.283 36.9932 111.213 36.8799C110.66 35.9822 109.979 35.1686 109.191 34.4685V34.4685C106.768 32.3179 104.346 30.1674 100.19 28.0168C94.5713 25.5153 87.8727 24.0144 83.6253 24.0144C76.4047 24.0144 68.6886 26.0156 63.2134 29.0174C57.7383 31.5189 52.7714 35.9256 48.7789 40.024C45.2947 44.5267 41.4454 50.3129 39.3217 56.0336C37.283 61.669 35.8375 70.9599 35.8375 78.0468C35.8375 87.5245 38.5603 97.0809 42.213 104.082C45.9508 110.999 51.26 116.378 58.1408 120.22Z" fill="#3E50B8"/>
</svg>
