<svg width="180" height="180" viewBox="0 0 180 180" fill="none" xmlns="http://www.w3.org/2000/svg">
<g clip-path="url(#clip0_2419_14768)">
<rect width="180" height="180" fill="#FF7748"/>
<path d="M158.124 33.4855L158.336 33.1932C158.503 32.9938 158.649 32.7812 158.788 32.5685C159.273 31.8109 159.592 30.9471 159.705 30.0167C159.725 29.7908 159.745 29.5582 159.745 29.3256C159.745 29 159.719 28.6877 159.685 28.3687C159.254 25.3983 156.702 23.1123 153.605 23.1123C153.213 23.1123 152.834 23.1522 152.462 23.2253C152.389 23.2386 152.316 23.2585 152.243 23.2718C151.964 23.3316 151.691 23.3914 151.419 23.4579L0 63.8145V112.145L59.6677 96.1968L0 175.674V180.007H53.8199L64.0204 165.906L158.124 33.4855Z" fill="white"/>
</g>
<defs>
<clipPath id="clip0_2419_14768">
<rect width="180" height="180" fill="white"/>
</clipPath>
</defs>
</svg>
