<svg width="250" height="250" viewBox="0 0 250 250" fill="none" xmlns="http://www.w3.org/2000/svg">
<g clip-path="url(#clip0_3005_6157)">
<path d="M62.6132 30.2244C47.7425 32.9919 39.6132 38.9222 32.6735 52.1666C28.3114 61.0622 26.3287 116.412 29.6994 139.145C35.8459 180.064 68.7598 213.472 109.605 220.193C118.13 221.774 136.57 222.367 157.587 221.774C199.424 220.786 207.156 217.821 216.872 199.437C220.837 192.123 221.234 187.971 221.829 137.168C222.82 57.3063 220.044 44.4572 199.027 34.1779C189.708 29.6313 188.122 29.4337 130.027 29.0383C97.3115 28.8406 66.9753 29.4337 62.6132 30.2244ZM98.1046 86.958C100.682 89.3301 101.277 94.8651 101.277 114.633C101.277 138.157 101.475 139.54 106.234 144.087C110.794 148.831 112.182 149.029 135.38 149.029C148.863 149.029 160.76 149.82 161.949 150.61C166.312 153.575 166.708 158.913 162.544 163.064C158.579 167.018 156.596 167.215 133.199 166.425C91.1649 165.041 83.6305 157.134 83.4322 113.842C83.4322 94.2721 83.8287 91.3069 87.3977 87.7487C92.1563 83.0044 94.1391 82.8067 98.1046 86.958ZM162.743 87.7487C166.708 91.7023 166.312 97.0396 161.949 100.005C158.182 102.575 122.096 101.784 119.518 99.214C115.949 95.6558 116.544 88.3417 120.708 85.9696C122.493 84.7835 131.812 83.7951 141.527 83.7951C156.199 83.7951 159.372 84.3882 162.743 87.7487ZM155.803 125.308V132.226L139.346 132.819C122.096 133.412 117.139 131.831 117.139 125.505C117.139 118.784 121.501 117.203 138.949 117.796L155.803 118.389V125.308Z" fill="black"/>
</g>
<defs>
<clipPath id="clip0_3005_6157">
<rect width="194" height="193" fill="white" transform="translate(28 29)"/>
</clipPath>
</defs>
</svg>
