<svg fill="none" height="250" viewBox="0 0 151 32" width="250" xmlns="http://www.w3.org/2000/svg"><g fill="#052b42"><path d="m90.927 5.083h-4.44v21.725h4.44z"/><path clip-rule="evenodd" d="m55.062 9.193v-4.11h-22.653v21.727h22.653v-4.107h-18.215v-4.718h16.24v-4.11h-16.24v-4.682zm17.396-4.092-.005-.015h-12.853v21.724h14.193v.005c6.546 0 8.683-2.498 8.683-6.153 0-3.14-2.355-4.802-3.537-5.155 1.187-.781 2.172-2.276 2.172-4.495 0-5.048-4.86-5.888-8.65-5.911h-.002zm.788 4.087h-9.206v4.782h9.814c1.203-.013 2.996-.43 2.996-2.233s-1.567-2.55-3.602-2.55h-.002zm.544 8.633h-9.753v4.88h9.814c2.052-.006 4.032-.353 4.032-2.404 0-2.052-2.182-2.465-4.093-2.465v-.01z" fill-rule="evenodd"/><path d="m148.291 16.383c-2.232-1.785-4.138-1.936-7.896-2.319-.433-.036-6.548-.544-7.01-.585-4.181-.385-3.881-2.273-3.881-2.273 0-2.087 4.222-2.253 4.222-2.253 3.504-.35 10.363-.25 10.791 2.833h4.856v-.003c-.436-6.082-8-6.958-12.854-7.02-3.216.08-6.72.274-9.503 2.075-3.12 2.049-2.812 6.13-.857 7.96.762.66 1.916 1.562 4.286 2.004 1.09.2 2.876.465 5.325.639 0 0 3.91.238 4.748.304 1.247.097 4.189.253 4.428 2.393.254 2.284-3.694 2.945-7.747 2.945-1.775-.012-3.583-.079-5.451-.6-1.58-.45-2.488-1.374-2.639-2.914h-4.8c-.007 6.546 7.467 7.56 12.685 7.56 3.555-.084 7.408-.332 10.489-2.299 3.393-2.214 3.039-6.515.805-8.45zm-47.711-11.3h-4.7v11.068c0 3.063 2.473 4.674 5.213 5.522-.411-2.145-.516-4.73-.516-6.063v-10.527zm20.174 11.068v-11.068h-4.699v10.527c0 1.335-.105 3.918-.516 6.063 2.74-.848 5.213-2.46 5.213-5.522zm-12.448 6.447c-4.62 0-7.213-.925-7.213-.925.12.631.266 1.226.446 1.737.787 2.253 2.878 3.681 6.777 3.681s5.99-1.428 6.777-3.68c.18-.512.326-1.107.446-1.738 0 0-2.557.925-7.233.925zm-85.26-17.499v18.516s4.41-.266 4.41-5.308v-13.208zm-17.637 21.711v-18.516s-4.41.266-4.41 5.308v13.208z"/><path d="m18.988 20.756-5.548-12.753c-.908-2.064-2.39-3.226-4.494-3.226-2.103 0-3.54 1.698-3.54 3.517 0 0 2.652-.368 4.058 2.858l5.551 12.754c.905 2.061 2.39 3.226 4.492 3.226 2.1 0 3.54-1.699 3.54-3.517 0 0-2.653.367-4.059-2.859z"/></g></svg>