<svg xmlns:xlink="http://www.w3.org/1999/xlink" xmlns="http://www.w3.org/2000/svg" viewBox="0 0 650.36 115.52" width="250" height="44.40617504151547"><g fill="#0c1927"><path d="m62.5 23.52h-44.83a4.7 4.7 0 0 0 0 9.4h17.72v53.46a4.7 4.7 0 1 0 9.4 0v-53.46h17.71a4.7 4.7 0 1 0 0-9.4z"></path><path d="m148.17 23.52a4.69 4.69 0 0 0 -4.7 4.7v24.38h-39.27v-24.38a4.7 4.7 0 1 0 -9.4 0v58.16a4.7 4.7 0 1 0 9.4 0v-24.38h39.27v24.38a4.7 4.7 0 1 0 9.4 0v-58.16a4.7 4.7 0 0 0 -4.7-4.7z"></path><path d="m193.32 23.52a4.69 4.69 0 0 0 -4.7 4.7v58.16a4.7 4.7 0 1 0 9.4 0v-58.16a4.7 4.7 0 0 0 -4.7-4.7z"></path><path d="m332.54 23.52a4.7 4.7 0 0 0 -4.7 4.7v58.16a4.7 4.7 0 1 0 9.4 0v-58.16a4.69 4.69 0 0 0 -4.7-4.7z"></path><path d="m419.12 23.52a4.7 4.7 0 0 0 -4.7 4.7v58.16a4.7 4.7 0 1 0 9.4 0v-58.16a4.69 4.69 0 0 0 -4.7-4.7z"></path><path d="m536.82 23.52a4.7 4.7 0 0 0 -4.7 4.7v58.16a4.7 4.7 0 1 0 9.4 0v-58.16a4.69 4.69 0 0 0 -4.7-4.7z"></path><path d="m500 23.52h-35.83a4.69 4.69 0 0 0 -4.7 4.7v58.16a4.7 4.7 0 1 0 9.4 0v-23h27.63a4.7 4.7 0 0 0 0-9.4h-27.63v-21.06h31.13a4.7 4.7 0 0 0 0-9.4z"></path><path d="m287.34 23.52a4.69 4.69 0 0 0 -4.7 4.7v45.22l-40.37-48.24a4.7 4.7 0 0 0 -8.3 3v58.18a4.7 4.7 0 1 0 9.4 0v-45.22l40.36 48.24a4.7 4.7 0 0 0 8.31-3v-58.18a4.7 4.7 0 0 0 -4.7-4.7z"></path><path d="m624.51 75.92a25.7 25.7 0 1 1 0-36.34 4.7 4.7 0 0 0 6.64-6.64 35.1 35.1 0 1 0 0 49.63 4.7 4.7 0 0 0 -6.64-6.65z"></path><path d="m378.45 24.5a4.69 4.69 0 0 0 -6.59.85l-22.42 29.08a4.71 4.71 0 0 0 0 5.74l22.42 29.08a4.7 4.7 0 0 0 7.45-5.73l-20.21-26.22 20.21-26.21a4.7 4.7 0 0 0 -.86-6.59z"></path></g></svg>
