<?xml version="1.0" encoding="UTF-8"?>
<svg version="1.1" xmlns="http://www.w3.org/2000/svg" width="280" height="280">
<path d="M0 0 C92.07 0 184.14 0 279 0 C279 92.07 279 184.14 279 279 C186.93 279 94.86 279 0 279 C0 186.93 0 94.86 0 0 Z " fill="#5AC1A8" transform="translate(1,1)"/>
<path d="M0 0 C3.35365058 2.66303061 6.05492407 5.39066899 8.5625 8.875 C8.5625 9.535 8.5625 10.195 8.5625 10.875 C10.0475 11.37 10.0475 11.37 11.5625 11.875 C14.18326557 15.35279318 16.32913473 19.13954835 18.5625 22.875 C19.02140625 23.60203125 19.4803125 24.3290625 19.953125 25.078125 C31.54489899 44.29992745 33.26449365 68.49432934 28.59765625 90.0703125 C23.77095627 107.81071168 13.84180711 126.9612092 -1.4375 137.875 C-2.0975 137.875 -2.7575 137.875 -3.4375 137.875 C-3.7675 138.865 -4.0975 139.855 -4.4375 140.875 C-6.06933107 141.93089069 -7.74542999 142.9186126 -9.4375 143.875 C-10.52665742 144.67967601 -11.60960526 145.49279865 -12.6875 146.3125 C-16.68255293 149.18824931 -20.88139277 151.05401974 -25.4375 152.875 C-26.27152344 153.22691406 -27.10554688 153.57882813 -27.96484375 153.94140625 C-49.65354645 162.57229969 -74.23428347 160.35628661 -95.4375 151.875 C-95.4375 96.765 -95.4375 41.655 -95.4375 -15.125 C-90.36216977 -17.02824884 -86.04654343 -18.59512773 -80.875 -19.75 C-79.82183594 -19.98976563 -78.76867187 -20.22953125 -77.68359375 -20.4765625 C-49.1768254 -26.17105534 -22.67377511 -17.71702664 0 0 Z " fill="#5AC2A9" transform="translate(96.4375,30.125)"/>
<path d="M0 0 C1.16789062 0.29003906 1.16789062 0.29003906 2.359375 0.5859375 C14.79060493 4.18445143 27.4572874 11.28866009 37 20 C37 20.66 37 21.32 37 22 C38.98 22.99 38.98 22.99 41 24 C41 24.66 41 25.32 41 26 C41.5775 26.226875 42.155 26.45375 42.75 26.6875 C46.14222063 28.66629537 48.25493471 31.50986942 50 35 C50.09309204 37.65484187 50.12577621 40.28311269 50.11352539 42.93798828 C50.11364593 43.77085295 50.11376646 44.60371761 50.11389065 45.4618206 C50.11314273 48.16467816 50.10551997 50.86746724 50.09765625 53.5703125 C50.09618646 55.23624641 50.09516598 56.90218077 50.09460449 58.56811523 C50.08935594 64.75375052 50.0753948 70.93937593 50.0625 77.125 C50.041875 90.94375 50.02125 104.7625 50 119 C-3.79 119 -57.58 119 -113 119 C-117.68393872 97.92227575 -117.68393872 97.92227575 -117.5 87.3125 C-117.48646484 86.15186035 -117.47292969 84.9912207 -117.45898438 83.79541016 C-116.96966045 63.47993245 -108.95061466 45.48039423 -96 30 C-95.32195312 29.17113281 -94.64390625 28.34226563 -93.9453125 27.48828125 C-90.58194244 23.48991809 -90.58194244 23.48991809 -89 22 C-88.34 22 -87.68 22 -87 22 C-86.67 21.01 -86.34 20.02 -86 19 C-62.97882693 -2.10621111 -29.66175204 -7.81725978 0 0 Z " fill="#5AC2A9" transform="translate(230,161)"/>
<path d="M0 0 C44.55 0 89.1 0 135 0 C135 41.58 135 83.16 135 126 C107.57654396 135.97216583 78.78568082 133.91978983 52.421875 121.81640625 C41.83487959 116.3134536 32.62026567 108.1459057 24 100 C23.41347656 99.46117188 22.82695312 98.92234375 22.22265625 98.3671875 C21 97 21 97 21 95 C20.34 95 19.68 95 19 95 C18.896875 94.360625 18.79375 93.72125 18.6875 93.0625 C18.460625 92.381875 18.23375 91.70125 18 91 C16.515 90.505 16.515 90.505 15 90 C13.56588055 87.68578712 12.2698149 85.40007648 11 83 C10.02740234 81.33324219 10.02740234 81.33324219 9.03515625 79.6328125 C3.79035163 70.42101886 0.52766419 61.2728598 -2 51 C-2.24621094 50.0821875 -2.49242187 49.164375 -2.74609375 48.21875 C-5.90733253 34.44010926 -6.48799087 12.97598175 0 0 Z " fill="#5AC2A9" transform="translate(145,2)"/>
<path d="M0 0 C3.35365058 2.66303061 6.05492407 5.39066899 8.5625 8.875 C8.5625 9.535 8.5625 10.195 8.5625 10.875 C10.0475 11.37 10.0475 11.37 11.5625 11.875 C14.18326557 15.35279318 16.32913473 19.13954835 18.5625 22.875 C19.02140625 23.60203125 19.4803125 24.3290625 19.953125 25.078125 C31.54489899 44.29992745 33.26449365 68.49432934 28.59765625 90.0703125 C23.77095627 107.81071168 13.84180711 126.9612092 -1.4375 137.875 C-2.0975 137.875 -2.7575 137.875 -3.4375 137.875 C-3.7675 138.865 -4.0975 139.855 -4.4375 140.875 C-6.06933107 141.93089069 -7.74542999 142.9186126 -9.4375 143.875 C-10.52665742 144.67967601 -11.60960526 145.49279865 -12.6875 146.3125 C-16.68255293 149.18824931 -20.88139277 151.05401974 -25.4375 152.875 C-26.27152344 153.22691406 -27.10554688 153.57882813 -27.96484375 153.94140625 C-47.39646985 161.67410915 -71.98941124 161.30617195 -91.375 153.6875 C-92.715625 153.089375 -94.05625 152.49125 -95.4375 151.875 C-95.4375 147.585 -95.4375 143.295 -95.4375 138.875 C-94.42171875 139.28492188 -93.4059375 139.69484375 -92.359375 140.1171875 C-71.61833763 148.31536609 -50.54384201 149.78497744 -29.625 141.0625 C-28.21644479 140.3582224 -26.82116895 139.62699399 -25.4375 138.875 C-24.5196875 138.40578125 -23.601875 137.9365625 -22.65625 137.453125 C-14.02882636 132.78364313 -5.59442664 126.52804147 0.27734375 118.54296875 C0.70144531 117.99253906 1.12554687 117.44210938 1.5625 116.875 C2.2225 116.875 2.8825 116.875 3.5625 116.875 C3.68238281 116.27300781 3.80226563 115.67101562 3.92578125 115.05078125 C4.5625 112.875 4.5625 112.875 6.75 110.0625 C17.21768633 95.89319706 20.31982099 76.00887961 18.5625 58.875 C15.12488897 37.31831416 3.74037985 18.28675161 -13.4375 4.875 C-16.34589768 2.98599088 -19.32695335 1.40178846 -22.4375 -0.125 C-23.05882813 -0.47046875 -23.68015625 -0.8159375 -24.3203125 -1.171875 C-41.04336355 -10.26809524 -63.21973047 -12.01175691 -81.515625 -7.05859375 C-86.21939779 -5.5556503 -90.83106029 -3.90615669 -95.4375 -2.125 C-95.4375 -6.415 -95.4375 -10.705 -95.4375 -15.125 C-62.09295329 -28.85510747 -27.9376088 -21.83012564 0 0 Z " fill="#FBFDFD" transform="translate(96.4375,30.125)"/>
<path d="M0 0 C1.16789062 0.29003906 1.16789062 0.29003906 2.359375 0.5859375 C14.79060493 4.18445143 27.4572874 11.28866009 37 20 C37 20.66 37 21.32 37 22 C38.98 22.99 38.98 22.99 41 24 C41 24.66 41 25.32 41 26 C41.5775 26.226875 42.155 26.45375 42.75 26.6875 C46.14222063 28.66629537 48.25493471 31.50986942 50 35 C50.08449628 36.7404417 50.10723024 38.48409722 50.09765625 40.2265625 C50.09443359 41.2578125 50.09121094 42.2890625 50.08789062 43.3515625 C50.07951172 44.43179688 50.07113281 45.51203125 50.0625 46.625 C50.05798828 47.71296875 50.05347656 48.8009375 50.04882812 49.921875 C50.03701776 52.61463789 50.02054778 55.30729188 50 58 C49.70125977 57.39188477 49.40251953 56.78376953 49.09472656 56.15722656 C44.20058025 46.51300782 37.91728 36.8882819 29.3203125 30.2265625 C28.66675781 29.61941406 28.66675781 29.61941406 28 29 C28 28.34 28 27.68 28 27 C27.41992188 26.72671875 26.83984375 26.4534375 26.2421875 26.171875 C24.03435261 25.01795432 22.1409994 23.70905015 20.125 22.25 C1.97116029 10.18667053 -20.74288192 6.43779432 -41.97607422 10.51660156 C-56.57672479 13.68775177 -75.47697253 22.21545879 -84 35 C-84.66 35 -85.32 35 -86 35 C-86.28875 35.5775 -86.5775 36.155 -86.875 36.75 C-87.91666667 38.83333333 -88.95833333 40.91666667 -90 43 C-90.66 43 -91.32 43 -92 43 C-92.268125 43.9075 -92.53625 44.815 -92.8125 45.75 C-93.92778321 48.80235404 -95.07366947 50.4572437 -97 53 C-104.98960089 69.32657574 -108.69904492 90.79664011 -103 108.4375 C-102.62875 109.40558594 -102.2575 110.37367188 -101.875 111.37109375 C-101 114 -101 114 -101 119 C-104.96 119 -108.92 119 -113 119 C-120.58326935 93.10178103 -118.75908126 67.79081284 -106.11621094 43.95996094 C-103.24859849 38.92470444 -99.71354514 34.43895092 -96 30 C-95.32195312 29.17113281 -94.64390625 28.34226563 -93.9453125 27.48828125 C-90.58194244 23.48991809 -90.58194244 23.48991809 -89 22 C-88.34 22 -87.68 22 -87 22 C-86.67 21.01 -86.34 20.02 -86 19 C-62.97882693 -2.10621111 -29.66175204 -7.81725978 0 0 Z " fill="#FBFDFD" transform="translate(230,161)"/>
<path d="M0 0 C3.96 0 7.92 0 12 0 C11.71125 1.26972656 11.4225 2.53945312 11.125 3.84765625 C5.98531167 27.27704103 6.82972344 52.63603651 19.55859375 73.82421875 C33.90370972 95.47795749 51.76771678 110.46185539 77 118 C95.01579598 121.1114701 113.43239456 121.26638132 130.7421875 114.8046875 C133 114 133 114 135 114 C135 117.96 135 121.92 135 126 C111.00976177 135.85900201 82.31403122 134.29056314 58.515625 124.52734375 C45.31405883 118.79199667 34.41312574 109.84010744 24 100 C23.41347656 99.46117188 22.82695312 98.92234375 22.22265625 98.3671875 C21 97 21 97 21 95 C20.34 95 19.68 95 19 95 C18.896875 94.360625 18.79375 93.72125 18.6875 93.0625 C18.460625 92.381875 18.23375 91.70125 18 91 C16.515 90.505 16.515 90.505 15 90 C13.56588055 87.68578712 12.2698149 85.40007648 11 83 C10.02740234 81.33324219 10.02740234 81.33324219 9.03515625 79.6328125 C3.79035163 70.42101886 0.52766419 61.2728598 -2 51 C-2.24621094 50.0821875 -2.49242187 49.164375 -2.74609375 48.21875 C-5.90733253 34.44010926 -6.48799087 12.97598175 0 0 Z " fill="#FBFDFD" transform="translate(145,2)"/>
</svg>
