<svg width="250" height="250" viewBox="0 0 100 50" fill="none" xmlns="http://www.w3.org/2000/svg">
<path d="M27.6266 22.5511C25.1354 22.4345 22.8045 21.0615 21.7191 18.6504C21.2384 17.5869 20.1749 16.8804 19.0094 16.8512C16.5365 16.7857 14.9704 19.8887 16.5219 21.8445C17.0537 22.5183 17.8549 22.8898 18.9002 22.959C20.9215 23.1083 22.6661 23.9824 23.817 25.4283C25.933 28.087 25.6234 32.1042 23.1723 34.4351C20.215 37.2468 15.2873 36.6713 13.0365 33.2915C12.8362 32.9928 12.6613 32.676 12.512 32.3446C12.0313 31.2811 10.9678 30.5745 9.80232 30.5454C8.59315 30.5126 7.46411 30.9715 6.74663 31.7436C9.11032 35.8009 13.4735 38.5579 18.5105 38.6453C26.1807 38.7801 32.5106 32.6687 32.6417 24.9985C32.6635 23.7056 32.5033 22.4527 32.1973 21.2618C32.2629 21.5094 30.2671 22.2014 30.0449 22.267C29.2436 22.4964 28.4242 22.5911 27.6193 22.5511H27.6266Z" fill="#2C70FF"/>
<path d="M9.89337 26.9361C12.4355 27.0017 14.7519 28.5386 15.8008 30.8586C16.2815 31.9221 17.345 32.6286 18.5105 32.6578C19.3227 32.6796 20.0984 32.381 20.6884 31.8165C21.792 30.7639 21.9449 28.8627 20.9944 27.6645C20.4626 26.9907 19.6614 26.6192 18.6161 26.55C16.5948 26.4007 14.8502 25.5266 13.6993 24.0807C11.139 20.8611 12.2279 16.0718 15.7534 14.0906C16.7696 13.5188 17.9314 13.2128 19.1005 13.242C21.6427 13.3075 23.959 14.8445 25.0079 17.1645C25.4887 18.2279 26.5522 18.9345 27.7176 18.9636C28.9268 18.9964 30.0595 18.5375 30.7733 17.7654C28.4096 13.7045 24.0428 10.9475 19.0058 10.8564C11.332 10.7326 5.00573 16.844 4.87097 24.5141C4.84912 25.8071 5.00573 27.0599 5.3153 28.2509C6.60459 27.3768 8.20346 26.8997 9.89337 26.9361Z" fill="#2C70FF"/>
<path d="M62.2953 29.5256H61.352L57.3312 16.9823H53.8931L59.4072 32.5558L59.4327 32.625H64.2074L69.747 16.9823H66.3089L62.2917 29.5256H62.2953Z" fill="#1C1C46"/>
<path d="M73.9463 10.9147C73.3854 10.9147 72.8974 11.1223 72.5077 11.5265C72.1143 11.9308 71.914 12.4188 71.914 12.9834C71.914 13.5479 72.1143 14.025 72.5077 14.4074C72.901 14.7898 73.3818 14.9829 73.9463 14.9829C74.5108 14.9829 74.9915 14.7898 75.3849 14.4074C75.7782 14.025 75.9785 13.5442 75.9785 12.9834C75.9785 12.4225 75.7819 11.9308 75.3849 11.5265C74.9915 11.1223 74.5071 10.9147 73.9463 10.9147Z" fill="#1C1C46"/>
<path d="M75.4978 16.9823H72.3984V32.625H75.4978V16.9823Z" fill="#1C1C46"/>
<path d="M89.6035 24.4194L94.7898 16.986H91.1586L87.2362 22.9335H85.8048L81.8823 16.986H78.2512L83.4375 24.4194L77.836 32.625H81.529L85.8048 25.9054H87.2362L91.5119 32.625H95.205L89.6035 24.4194Z" fill="#1C1C46"/>
<path d="M46.4305 32.8399C44.3946 32.8399 42.752 32.3555 41.5502 31.4013C40.392 30.4835 39.7073 29.2634 39.5143 27.7665L39.5033 27.6827H42.7994L42.814 27.741C42.9596 28.4403 43.3384 29.0194 43.9394 29.4637C44.5694 29.9335 45.418 30.1702 46.4597 30.1702C47.5013 30.1702 48.2443 29.959 48.7942 29.5402C49.3478 29.1177 49.6283 28.6151 49.6283 28.0469C49.6283 27.2202 49.2895 26.6447 48.623 26.3388C47.9748 26.0438 47.0169 25.818 45.775 25.6687C44.7151 25.5448 43.739 25.2935 42.8759 24.933C42.0163 24.5724 41.3316 24.0698 40.84 23.4397C40.3483 22.8133 40.097 22.0193 40.097 21.0687C40.097 19.7321 40.6287 18.6358 41.6776 17.8127C42.7338 16.986 44.2271 16.5672 46.1173 16.5672C48.0075 16.5672 49.4862 16.9969 50.5206 17.8455C51.5112 18.6613 52.1121 19.7758 52.3015 21.1671L52.3161 21.2508H49.2386L49.224 21.1889C49.1147 20.5953 48.7797 20.1182 48.2333 19.7649C47.6579 19.3898 46.9295 19.2004 46.0809 19.2004C45.2323 19.2004 44.5039 19.3679 43.9903 19.6993C43.4659 20.038 43.2 20.4897 43.2 21.0396C43.2 22.216 44.4529 22.9408 46.9258 23.1957C48.0695 23.3232 49.1038 23.5381 50.0034 23.8403C50.8884 24.139 51.6023 24.6088 52.1158 25.2389C52.6293 25.8653 52.8879 26.7576 52.8879 27.894C52.9098 28.8227 52.6439 29.6676 52.0976 30.407C51.5476 31.15 50.7828 31.7509 49.8213 32.1807C48.8561 32.6177 47.7125 32.8362 46.4269 32.8362L46.4305 32.8399Z" fill="#1C1C46"/>
<path d="M46.4305 32.8399C44.3946 32.8399 42.752 32.3555 41.5502 31.4013C40.392 30.4835 39.7073 29.2634 39.5143 27.7665L39.5033 27.6827H42.7994L42.814 27.741C42.9596 28.4403 43.3384 29.0194 43.9394 29.4637C44.5694 29.9335 45.418 30.1702 46.4597 30.1702C47.5013 30.1702 48.2443 29.959 48.7942 29.5402C49.3478 29.1177 49.6283 28.6151 49.6283 28.0469C49.6283 27.2202 49.2895 26.6447 48.623 26.3388C47.9748 26.0438 47.0169 25.818 45.775 25.6687C44.7151 25.5448 43.739 25.2935 42.8759 24.933C42.0163 24.5724 41.3316 24.0698 40.84 23.4397C40.3483 22.8133 40.097 22.0193 40.097 21.0687C40.097 19.7321 40.6287 18.6358 41.6776 17.8127C42.7338 16.986 44.2271 16.5672 46.1173 16.5672C48.0075 16.5672 49.4862 16.9969 50.5206 17.8455C51.5112 18.6613 52.1121 19.7758 52.3015 21.1671L52.3161 21.2508H49.2386L49.224 21.1889C49.1147 20.5953 48.7797 20.1182 48.2333 19.7649C47.6579 19.3898 46.9295 19.2004 46.0809 19.2004C45.2323 19.2004 44.5039 19.3679 43.9903 19.6993C43.4659 20.038 43.2 20.4897 43.2 21.0396C43.2 22.216 44.4529 22.9408 46.9258 23.1957C48.0695 23.3232 49.1038 23.5381 50.0034 23.8403C50.8884 24.139 51.6023 24.6088 52.1158 25.2389C52.6293 25.8653 52.8879 26.7576 52.8879 27.894C52.9098 28.8227 52.6439 29.6676 52.0976 30.407C51.5476 31.15 50.7828 31.7509 49.8213 32.1807C48.8561 32.6177 47.7125 32.8362 46.4269 32.8362L46.4305 32.8399Z" fill="#1C1C46"/>
</svg>
