<svg xmlns="http://www.w3.org/2000/svg" width="250" height="250" fill="none"><g clip-path="url(#a)"><path fill="url(#b)" fill-rule="evenodd" d="M119.091 191.224h19.385L85.544 59.317h-25.62L7 191.224h19.475a8.171 8.171 0 0 0 5.313-1.738 8.55 8.55 0 0 0 2.978-3.827l10.066-26.914h55.812l10.066 26.914a9.541 9.541 0 0 0 2.978 4.014c1.428 1.027 3.234 1.551 5.403 1.551Zm-24.879-49.812H51.264l16.4-43.691c.8-2.008 1.609-4.352 2.418-7.026a221.763 221.763 0 0 0 2.607-8.667 222.284 222.284 0 0 0 2.607 8.667 334.19 334.19 0 0 0 2.517 6.838l16.4 43.879Zm147.309-62.575v-19.52h-84.976v131.907h25.25v-53.729h50.407v-19.618h-50.407v-39.04h59.726Z" clip-rule="evenodd"/></g><defs><linearGradient id="b" x1="358.91" x2="360.899" y1="57.856" y2="203.284" gradientUnits="userSpaceOnUse"><stop stop-color="#24374C"/><stop offset="1" stop-color="#1C242C"/></linearGradient><clipPath id="a"><path fill="#fff" d="M7 59h235v133H7z"/></clipPath></defs></svg>