<svg xmlns="http://www.w3.org/2000/svg" width="250" height="250" fill="none"><g clip-path="url(#a)"><path fill="url(#b)" d="m66.24 207.781-42.6-73.679a18.612 18.612 0 0 1 0-18.633l42.6-73.677a18.648 18.648 0 0 1 6.83-6.821 18.683 18.683 0 0 1 9.332-2.497H167.6c3.276 0 6.494.861 9.331 2.497a18.65 18.65 0 0 1 6.831 6.82l42.598 73.678a18.613 18.613 0 0 1 0 18.635l-42.598 73.675a18.652 18.652 0 0 1-6.831 6.821 18.678 18.678 0 0 1-9.331 2.497H82.402a18.69 18.69 0 0 1-9.332-2.496 18.652 18.652 0 0 1-6.83-6.822v.002Z"/><path fill="#000" d="m101.167 108.379-11.376 11.327 9.667 9.655-9.571 16.975 72.433 72.331 17.553.003 34.278-61.475-54.278-54.204-58.706 5.388Z" opacity=".07"/><path fill="#fff" d="M158.59 102.537H91.348a1.972 1.972 0 0 0-1.967 1.968v13.88c0 1.08.886 1.964 1.967 1.964h67.242a1.973 1.973 0 0 0 1.969-1.964v-13.884a1.973 1.973 0 0 0-1.967-1.965l-.002.001Zm-10.41 12.923a4.025 4.025 0 0 1-4.02-4.018 4.013 4.013 0 0 1 4.02-4.014 4.012 4.012 0 0 1 2.846 6.855 4.022 4.022 0 0 1-2.846 1.177Zm10.41 13.76-67.242.003a1.972 1.972 0 0 0-1.967 1.967v13.879c0 1.08.886 1.966 1.967 1.966h67.242a1.975 1.975 0 0 0 1.969-1.966v-13.882a1.975 1.975 0 0 0-1.967-1.967h-.002Zm-10.41 12.924a4.03 4.03 0 0 1-4.02-4.018 4.01 4.01 0 0 1 4.02-4.014 4.027 4.027 0 0 1 3.864 2.44 4.023 4.023 0 0 1 0 3.15 4.027 4.027 0 0 1-3.864 2.441"/></g><defs><linearGradient id="b" x1="125.001" x2="125.001" y1="32.476" y2="216.81" gradientUnits="userSpaceOnUse"><stop stop-color="#4387FD"/><stop offset="1" stop-color="#4683EA"/></linearGradient><clipPath id="a"><path fill="#fff" d="M21 32h208v187H21z"/></clipPath></defs></svg>