<svg xmlns="http://www.w3.org/2000/svg" width="32" height="32" viewBox="0 0 32 32">
<g>
<path d="M 0.00 0.00 L 32.00 0.00 L 32.00 32.00 L 0.00 32.00 ZM 22.39 24.58 C23.18,26.63 25.59,25.81 25.20,23.63 C25.04,22.72 25.60,20.98 26.45,19.76 C27.30,18.55 28.00,16.51 28.00,15.23 C28.00,12.13 23.72,8.00 20.50,8.00 C17.17,8.00 13.00,12.17 13.00,15.50 C13.00,18.54 17.07,23.00 19.85,23.00 C20.91,23.00 22.06,23.71 22.39,24.58 ZM 5.00 21.50 C5.00,22.58 6.11,23.00 9.00,23.00 C11.89,23.00 13.00,22.58 13.00,21.50 C13.00,20.67 12.55,20.00 12.00,20.00 C11.45,20.00 11.00,17.98 11.00,15.50 C11.00,13.02 11.38,11.00 11.83,11.00 C12.29,11.00 12.67,10.32 12.67,9.50 C12.67,8.43 11.57,8.00 8.83,8.00 C6.09,8.00 5.00,8.43 5.00,9.50 C5.00,10.32 5.45,11.00 6.00,11.00 C6.55,11.00 7.00,13.02 7.00,15.50 C7.00,17.98 6.55,20.00 6.00,20.00 C5.45,20.00 5.00,20.67 5.00,21.50 ZM 22.95 18.56 C20.46,21.56 16.57,19.03 17.17,14.81 C17.43,12.98 18.13,12.50 20.50,12.50 C22.87,12.50 23.57,12.98 23.83,14.81 C24.01,16.07 23.61,17.76 22.95,18.56 ZM 0.00 1.67 C0.00,2.58 0.34,2.93 0.75,2.43 C1.16,1.93 1.95,1.19 2.50,0.78 C3.07,0.35 2.75,0.02 1.75,0.02 C0.78,0.01 0.00,0.74 0.00,1.67 ZM 0.00 31.03 C0.00,31.56 0.68,32.00 1.50,32.00 C2.33,32.00 3.00,31.82 3.00,31.61 C3.00,31.39 2.33,30.95 1.50,30.64 C0.68,30.32 0.00,30.50 0.00,31.03 ZM 30.50 1.00 C30.84,1.55 31.32,2.00 31.56,2.00 C31.80,2.00 32.00,1.55 32.00,1.00 C32.00,0.45 31.52,0.00 30.94,0.00 C30.36,0.00 30.16,0.45 30.50,1.00 Z" fill="rgb(11,32,38)"/>
<path d="M 0.00 31.03 C0.00,30.50 0.68,30.32 1.50,30.64 C2.33,30.95 3.00,31.39 3.00,31.61 C3.00,31.82 2.33,32.00 1.50,32.00 C0.68,32.00 0.00,31.56 0.00,31.03 ZM 22.39 24.58 C22.06,23.71 20.91,23.00 19.85,23.00 C17.07,23.00 13.00,18.54 13.00,15.50 C13.00,12.17 17.17,8.00 20.50,8.00 C23.72,8.00 28.00,12.13 28.00,15.23 C28.00,16.51 27.30,18.55 26.45,19.76 C25.60,20.98 25.04,22.72 25.20,23.63 C25.59,25.81 23.18,26.63 22.39,24.58 ZM 22.95 18.56 C23.61,17.76 24.01,16.07 23.83,14.81 C23.57,12.98 22.87,12.50 20.50,12.50 C18.13,12.50 17.43,12.98 17.17,14.81 C16.57,19.03 20.46,21.56 22.95,18.56 ZM 5.00 21.50 C5.00,20.67 5.45,20.00 6.00,20.00 C6.55,20.00 7.00,17.98 7.00,15.50 C7.00,13.02 6.55,11.00 6.00,11.00 C5.45,11.00 5.00,10.32 5.00,9.50 C5.00,8.43 6.09,8.00 8.83,8.00 C11.57,8.00 12.67,8.43 12.67,9.50 C12.67,10.32 12.29,11.00 11.83,11.00 C11.38,11.00 11.00,13.02 11.00,15.50 C11.00,17.98 11.45,20.00 12.00,20.00 C12.55,20.00 13.00,20.67 13.00,21.50 C13.00,22.58 11.89,23.00 9.00,23.00 C6.11,23.00 5.00,22.58 5.00,21.50 ZM 0.00 1.67 C0.00,0.74 0.78,0.01 1.75,0.02 C2.75,0.02 3.07,0.35 2.50,0.78 C1.95,1.19 1.16,1.93 0.75,2.43 C0.34,2.93 0.00,2.58 0.00,1.67 ZM 30.50 1.00 C30.16,0.45 30.36,0.00 30.94,0.00 C31.52,0.00 32.00,0.45 32.00,1.00 C32.00,1.55 31.80,2.00 31.56,2.00 C31.32,2.00 30.84,1.55 30.50,1.00 Z" fill="rgb(241,249,251)"/>
</g>
</svg>