<?xml version="1.0" encoding="UTF-8"?>
<svg version="1.1" xmlns="http://www.w3.org/2000/svg" width="240" height="240">
<path d="M0 0 C79.2 0 158.4 0 240 0 C240 79.2 240 158.4 240 240 C160.8 240 81.6 240 0 240 C0 160.8 0 81.6 0 0 Z " fill="#4951FF" transform="translate(0,0)"/>
<path d="M0 0 C9.16870063 6.81147209 13.81605049 14.51247204 18.33984375 24.73828125 C18.02856389 21.42566544 17.71559168 18.11321149 17.40234375 14.80078125 C17.31533203 13.87458984 17.22832031 12.94839844 17.13867188 11.99414062 C17.05166016 11.07568359 16.96464844 10.15722656 16.875 9.2109375 C16.79644775 8.37828369 16.71789551 7.54562988 16.63696289 6.68774414 C16.23538844 2.70136702 15.78229348 -1.27967118 15.33984375 -5.26171875 C44.04984375 -5.26171875 72.75984375 -5.26171875 102.33984375 -5.26171875 C102.33984375 23.77828125 102.33984375 52.81828125 102.33984375 82.73828125 C73.62984375 82.73828125 44.91984375 82.73828125 15.33984375 82.73828125 C16.02104399 75.92627887 16.76644141 69.15671429 17.67773438 62.37695312 C18.1412181 58.80499208 18.44436324 55.34071955 18.33984375 51.73828125 C18.12070313 52.36734375 17.9015625 52.99640625 17.67578125 53.64453125 C15.37636936 59.85107392 12.64966494 64.7258858 8.33984375 69.73828125 C7.62248047 70.63160156 7.62248047 70.63160156 6.890625 71.54296875 C-0.4598424 79.87473281 -12.65594035 85.062322 -23.57421875 85.984375 C-36.38025949 86.48867016 -47.63120629 82.72796065 -57.66015625 74.73828125 C-63.30035348 69.42731212 -67.81022536 63.9638636 -70.66015625 56.73828125 C-70.95664063 56.11179687 -71.253125 55.4853125 -71.55859375 54.83984375 C-75.9199104 44.39669103 -74.70469709 31.09504536 -70.9765625 20.6640625 C-65.61763507 8.75356801 -56.27619703 -0.44152122 -44.16796875 -5.33203125 C-43.34039062 -5.63882813 -42.5128125 -5.945625 -41.66015625 -6.26171875 C-40.02046875 -6.91140625 -40.02046875 -6.91140625 -38.34765625 -7.57421875 C-24.68797165 -10.12093961 -11.64362582 -7.60515592 0 0 Z " fill="#FDFDFF" transform="translate(105.66015625,81.26171875)"/>
</svg>
