<svg width="72" height="72" viewBox="0 0 72 72" fill="none" xmlns="http://www.w3.org/2000/svg">
<path d="M15.6 10.7L11.8 14.5L15.6 22.1L21.3 24L27.9501 30.6499L31.7501 26.8499L25.1001 20.2L23.2001 14.5L15.6 10.7ZM49.9262 10.7185C46.775 10.5939 43.5864 11.7309 41.1795 14.1363C38.071 17.2448 37.7927 20.9835 39.3389 24.5009L17.27 46.5699C15.0432 48.7967 15.0432 52.4032 17.27 54.63C19.4968 56.8568 23.1033 56.8568 25.3301 54.63L47.3991 32.5611C50.9162 34.1067 54.6554 33.8263 57.7637 30.7167C60.9728 27.5076 61.9242 22.9072 60.636 18.864L53.5963 25.9074L47.5141 24.3859L45.9926 18.3037L53.036 11.264C52.0247 10.9424 50.9766 10.76 49.9262 10.7185ZM46.9909 38.5097L39.8399 45.6607L48.9948 54.8193C50.9708 56.7953 54.1754 56.7953 56.1495 54.8193C58.1255 52.8433 58.1255 49.6406 56.1495 47.6646L46.9909 38.5097ZM21.3 48.6999C22.3488 48.6999 23.2001 49.5511 23.2001 50.5999C23.2001 51.6487 22.3488 52.4999 21.3 52.4999C20.2512 52.4999 19.4 51.6487 19.4 50.5999C19.4 49.5511 20.2512 48.6999 21.3 48.6999Z" fill="url(#paint0_linear_3683_129526)"/>
<mask id="mask0_3683_129526" style="mask-type:alpha" maskUnits="userSpaceOnUse" x="23" y="31" width="26" height="29">
<path d="M30.0761 35.4166L32.021 33.8872L33.8848 33.0429L36.0728 32.4375H39.0388L42.3451 33.3933L45.0193 35.2413L46.9479 37.4876L47.5962 41.3428L46.559 45.2777L44.1603 47.7311L41.5509 49.0533L40.6757 49.6746L42.1182 49.9455L43.3985 50.8376L43.8685 52.7174L44.0792 55.9036L44.8086 57.8153L44.6303 58.6915L43.8685 59.026L42.653 58.5003L41.8264 57.2258L41.2592 55.6168L40.8216 53.8963L40.5623 55.2026L39.9626 57.2258L38.6498 58.803L36.8994 59.1694L35.2787 58.803L34.7762 57.8153L35.1814 56.9232L35.8783 56.0788L37.0939 54.9955L37.8394 53.3547L37.6774 51.8572L36.7211 53.3547L36.0404 54.8999L35.5866 56.0788L34.6304 57.3374L34.5493 58.5959L33.2041 59.2809L31.8265 58.9304L31.2268 57.8153L31.8265 56.3337L33.2041 54.199L34.0469 51.8572L32.7665 52.4147L30.7892 52.0324L29.1361 51.7297L26.8185 52.7174L24.598 53.0679L23.7391 52.5263L23.6256 51.1721L25.0356 49.6746L27.5478 48.7984L30.4813 49.0533L32.4748 49.3401L32.1831 48.9259L30.7892 47.97L29.1361 45.9628L27.9043 43.5413L27.5478 41.2472L27.9043 38.9532L28.7795 37.1052L30.0761 35.4166Z" fill="url(#paint1_linear_3683_129526)" stroke="black"/>
</mask>
<g mask="url(#mask0_3683_129526)">
<path d="M30.0761 35.4166L32.021 33.8872L33.8848 33.0429L36.0728 32.4375H39.0388L42.3451 33.3933L45.0193 35.2413L46.9479 37.4876L47.5962 41.3428L46.559 45.2777L44.1603 47.7311L41.5509 49.0533L40.6757 49.6746L42.1182 49.9455L43.3985 50.8376L43.8685 52.7174L44.0792 55.9036L44.8086 57.8153L44.6303 58.6915L43.8685 59.026L42.653 58.5003L41.8264 57.2258L41.2592 55.6168L40.8216 53.8963L40.5623 55.2026L39.9626 57.2258L38.6498 58.803L36.8994 59.1694L35.2787 58.803L34.7762 57.8153L35.1814 56.9232L35.8783 56.0788L37.0939 54.9955L37.8394 53.3547L37.6774 51.8572L36.7211 53.3547L36.0404 54.8999L35.5866 56.0788L34.6304 57.3374L34.5493 58.5959L33.2041 59.2809L31.8265 58.9304L31.2268 57.8153L31.8265 56.3337L33.2041 54.199L34.0469 51.8572L32.7665 52.4147L30.7892 52.0324L29.1361 51.7297L26.8185 52.7174L24.598 53.0679L23.7391 52.5263L23.6256 51.1721L25.0356 49.6746L27.5478 48.7984L30.4813 49.0533L32.4748 49.3401L32.1831 48.9259L30.7892 47.97L29.1361 45.9628L27.9043 43.5413L27.5478 41.2472L27.9043 38.9532L28.7795 37.1052L30.0761 35.4166Z" fill="url(#paint2_linear_3683_129526)"/>
<g filter="url(#filter0_f_3683_129526)">
<ellipse cx="32.2074" cy="41.8766" rx="3.15232" ry="2.27014" fill="#D3A2FF"/>
</g>
<g filter="url(#filter1_f_3683_129526)">
<ellipse cx="42.3694" cy="40.9684" rx="3.15232" ry="2.27014" fill="#D3A2FF"/>
</g>
</g>
<path d="M30.8865 38.2362L31.551 37.3759L32.4262 36.8024L33.3176 36.5156L34.3387 36.6909L34.9384 37.2803L35.3922 38.1087L35.6677 39.415L35.3111 41.1356L34.3387 42.0277L33.3176 42.2507L32.1831 42.0277L31.3403 41.5179L30.7245 40.4346L30.5624 39.415L30.8865 38.2362Z" fill="#FFF0B4"/>
<path d="M36.9804 37.137L38.0663 36.2449L38.9902 35.99L40.2705 36.1174L41.2106 36.6272L41.8913 37.137L42.4747 38.2522L42.6854 39.5426L42.264 40.7852L41.3402 41.5817L40.1409 41.8525L38.9902 41.7092L37.9853 41.1834L37.1749 40.4506L36.5428 39.2877V38.0929L36.9804 37.137Z" fill="#FFF0B4"/>
<path d="M36.0404 45.0228L34.6952 44.3218V44.0032H35.2624L36.5752 44.1147L37.5315 44.0032L38.3256 43.7324L39.2494 43.3819L40.0112 43.2385V43.7324L39.3305 44.7838L37.9853 45.2299L36.0404 45.0228Z" fill="white"/>
<ellipse cx="0.868263" cy="0.578214" rx="0.868263" ry="0.578214" transform="matrix(0.971809 -0.235769 0.243542 0.96989 24.515 52.3621)" fill="#9A76AC"/>
<ellipse cx="0.989667" cy="0.505948" rx="0.989667" ry="0.505948" transform="matrix(0.971809 -0.235769 0.243542 0.96989 27.1263 51.4221)" fill="#9A76AC"/>
<ellipse cx="0.924874" cy="0.481017" rx="0.924874" ry="0.481017" transform="matrix(0.983867 0.1789 -0.184953 0.982747 30.724 51.2207)" fill="#9A76AC"/>
<ellipse cx="0.709586" cy="0.487756" rx="0.709586" ry="0.487756" transform="matrix(0.405927 0.913906 -0.918955 0.394362 41.7828 53.96)" fill="#9A76AC"/>
<ellipse cx="0.982515" cy="0.517437" rx="0.982515" ry="0.517437" transform="matrix(0.405927 0.913906 -0.918955 0.394362 42.5394 56.1785)" fill="#9A76AC"/>
<ellipse cx="0.888165" cy="1.21528" rx="0.888165" ry="1.21528" transform="matrix(0.889607 -0.456727 0.469245 0.883068 32.6367 37.4541)" fill="white"/>
<ellipse cx="0.981134" cy="1.30672" rx="0.981134" ry="1.30672" transform="matrix(0.770825 -0.637047 0.650021 0.759916 38.9253 37.479)" fill="white"/>
<path fill-rule="evenodd" clip-rule="evenodd" d="M36.772 32.0817C36.7647 32.0889 36.6919 32.1001 36.6102 32.1066C36.5285 32.1132 36.3815 32.1258 36.2835 32.1347C36.1855 32.1436 36.0287 32.1568 35.9352 32.1639C35.8416 32.1711 35.7323 32.1888 35.6922 32.2033C35.6521 32.2179 35.5756 32.23 35.5221 32.2302C35.4687 32.2305 35.3923 32.2418 35.3525 32.2555C35.2521 32.2898 35.153 32.3107 35.02 32.3255C34.9012 32.3387 34.8361 32.3538 34.7284 32.3932C34.6137 32.435 34.5487 32.4533 34.5139 32.4533C34.4953 32.4533 34.446 32.4676 34.4044 32.4851C34.3628 32.5026 34.3111 32.517 34.2894 32.517C34.2678 32.517 34.2119 32.5374 34.1652 32.5623C34.0861 32.6047 34.0542 32.6156 33.8739 32.6622C33.836 32.672 33.7686 32.6925 33.7241 32.7078C33.6795 32.723 33.6139 32.7445 33.5783 32.7555C33.5426 32.7664 33.4807 32.7951 33.4406 32.8192C33.4005 32.8433 33.3312 32.8719 33.2867 32.8827C33.2086 32.9016 32.618 33.1782 32.5317 33.2362C32.4925 33.2626 32.3626 33.3312 32.0903 33.4691C32.0292 33.5001 31.9381 33.5626 31.8878 33.608C31.8376 33.6534 31.7381 33.7271 31.6668 33.7718C31.5956 33.8165 31.4941 33.8803 31.4413 33.9137C31.3885 33.947 31.2711 34.0353 31.1803 34.1099C31.0896 34.1845 30.9547 34.2921 30.8807 34.349C30.8066 34.406 30.6979 34.4992 30.639 34.5561C30.5801 34.6131 30.4957 34.6894 30.4514 34.7258C30.4072 34.7621 30.3498 34.8196 30.324 34.8536C30.2982 34.8876 30.2435 34.9402 30.2025 34.9704C30.1615 35.0007 30.1024 35.0541 30.0713 35.089C30.0401 35.1239 29.9593 35.2101 29.8917 35.2805C29.8242 35.3508 29.7515 35.4335 29.7301 35.4642C29.7088 35.4948 29.6432 35.5668 29.5844 35.624C29.5256 35.6812 29.4312 35.7959 29.3745 35.8789C29.3178 35.9618 29.2442 36.0555 29.2109 36.087C29.1777 36.1186 29.1052 36.2189 29.05 36.3101C28.9947 36.4012 28.9445 36.4794 28.9383 36.4837C28.9147 36.5005 28.824 36.6418 28.8239 36.6619C28.8238 36.6913 28.7687 36.7769 28.7127 36.8345C28.6867 36.8613 28.6567 36.9062 28.6461 36.9344C28.6355 36.9625 28.6161 37.0035 28.6029 37.0254C28.5898 37.0473 28.5638 37.0975 28.5451 37.1369C28.5264 37.1763 28.4839 37.2444 28.4506 37.2883C28.4174 37.3321 28.3712 37.4053 28.3479 37.4509C28.3247 37.4966 28.2835 37.5682 28.2564 37.6102C28.2293 37.6522 28.1955 37.7258 28.1812 37.7738C28.167 37.8217 28.109 37.9535 28.0523 38.0665C27.9956 38.1796 27.9492 38.2889 27.9492 38.3095C27.9492 38.33 27.9284 38.3918 27.9029 38.4468C27.8254 38.614 27.7408 38.8589 27.6751 39.1062C27.6655 39.1423 27.6577 39.2011 27.6577 39.2369C27.6577 39.2727 27.6388 39.3508 27.6158 39.4103C27.5928 39.4699 27.5678 39.5688 27.5602 39.6301C27.5525 39.6914 27.5383 39.7774 27.5285 39.8213C27.5187 39.8651 27.5036 39.9834 27.4949 40.0841C27.4693 40.3813 27.4535 40.5207 27.4424 40.5461C27.4108 40.6188 27.3984 41.5422 27.4278 41.6374C27.4386 41.6724 27.4512 41.8076 27.4557 41.9377C27.4602 42.0678 27.471 42.1874 27.4798 42.2035C27.4885 42.2195 27.4957 42.2745 27.4957 42.3255C27.4957 42.3788 27.5095 42.4557 27.5281 42.5056C27.5484 42.5604 27.5605 42.6324 27.5605 42.6997C27.5605 42.8138 27.5831 42.9169 27.6421 43.0711C27.6622 43.1237 27.6835 43.2169 27.6894 43.2782C27.6954 43.3396 27.7116 43.4184 27.7256 43.4535C27.7395 43.4885 27.7596 43.5495 27.7701 43.5889C27.7806 43.6283 27.8008 43.6928 27.815 43.7323C27.8292 43.7717 27.8571 43.8506 27.877 43.9075C27.897 43.9645 27.9422 44.0756 27.9775 44.1544C28.0128 44.2333 28.051 44.3265 28.0624 44.3615C28.1322 44.5764 28.5362 45.3877 28.6549 45.5514C28.6847 45.5925 28.7315 45.6697 28.7588 45.7229C28.8089 45.8205 28.9175 45.9956 28.937 46.0104C28.9553 46.0241 29.0448 46.1589 29.0799 46.2254C29.0984 46.2605 29.1331 46.3107 29.1569 46.337C29.1808 46.3632 29.2186 46.4129 29.2409 46.4472C29.2632 46.4816 29.2958 46.5246 29.3133 46.5428C29.3308 46.561 29.3586 46.6016 29.3751 46.633C29.3915 46.6644 29.4411 46.7263 29.4853 46.7707C29.5294 46.815 29.5969 46.8969 29.6353 46.9526C29.6736 47.0083 29.731 47.0789 29.7628 47.1096C29.7946 47.1403 29.8459 47.1976 29.8768 47.237C29.9077 47.2765 29.9516 47.3267 29.9744 47.3486C29.9972 47.3705 30.0336 47.4135 30.0553 47.4441C30.0769 47.4748 30.1124 47.5138 30.1339 47.5308C30.1555 47.5478 30.1958 47.5865 30.2235 47.6169C30.3248 47.7281 30.4862 47.8838 30.5566 47.938C30.5963 47.9687 30.6578 48.0247 30.6933 48.0626C30.7288 48.1005 30.7887 48.1492 30.8264 48.1709C30.8641 48.1927 30.9192 48.2373 30.9488 48.2701C30.9784 48.303 31.0646 48.3758 31.1404 48.4321C31.2161 48.4883 31.2963 48.5508 31.3186 48.5711C31.3408 48.5913 31.4101 48.6412 31.4724 48.682C31.5348 48.7227 31.6114 48.7752 31.6425 48.7987C31.6737 48.8221 31.7575 48.8721 31.8288 48.9099C32.2045 49.1089 32.2816 49.2093 32.0022 49.1359C31.9336 49.1178 31.841 49.0951 31.7964 49.0855C31.7519 49.0758 31.668 49.0539 31.6101 49.0368C31.5522 49.0197 31.4502 48.9908 31.3834 48.9725C31.3165 48.9542 31.2254 48.9284 31.1809 48.9152C31.0975 48.8903 30.9737 48.8689 30.7759 48.8451C30.5763 48.821 30.4696 48.8027 30.4114 48.7826C30.3803 48.7718 30.2964 48.7572 30.2251 48.7502C30.1539 48.7431 30.0628 48.729 30.0227 48.7187C29.9826 48.7085 29.906 48.6947 29.8526 48.688C29.7991 48.6814 29.7445 48.6713 29.7311 48.6655C29.7177 48.6598 29.5865 48.6515 29.4395 48.6471C29.2925 48.6426 29.0884 48.6311 28.9859 48.6214C28.8251 48.6062 28.6712 48.6005 28.5688 48.6061C28.5532 48.6069 28.4639 48.6 28.3704 48.5907C28.174 48.5711 28.1829 48.5711 27.9168 48.5912C27.2375 48.6425 27.1134 48.6555 27.0016 48.6867C26.9261 48.7078 26.8338 48.7305 26.7424 48.7504C26.5713 48.7878 26.5277 48.7983 26.4751 48.815C26.444 48.825 26.3929 48.839 26.3618 48.8462C26.2582 48.8701 25.9782 48.9714 25.8798 49.0206C25.8264 49.0473 25.7783 49.0691 25.7729 49.0691C25.7676 49.0691 25.7138 49.0914 25.6535 49.1186C25.5931 49.1458 25.5073 49.1822 25.4627 49.1994C25.3581 49.2397 25.2649 49.2932 25.079 49.4196C25.021 49.459 24.9098 49.533 24.8319 49.5839C24.754 49.6349 24.6599 49.7037 24.6229 49.7368C24.5859 49.77 24.5122 49.8241 24.4591 49.8571C24.3337 49.9353 23.9797 50.2865 23.8955 50.4163C23.8731 50.4508 23.8203 50.5147 23.778 50.5584C23.6436 50.6973 23.4443 51.0186 23.3875 51.1879C23.3742 51.2273 23.3438 51.299 23.3197 51.3472C23.215 51.557 23.2162 52.0173 23.3221 52.2699C23.3457 52.3262 23.365 52.3856 23.365 52.4018C23.365 52.5235 23.614 52.8543 23.7608 52.9278C23.797 52.9459 23.861 52.9911 23.9031 53.0282C24.191 53.2822 25.1353 53.4834 25.3372 53.3337C25.3783 53.3033 25.355 53.2908 25.2573 53.2908C25.1215 53.2908 24.9901 53.2504 24.8871 53.177C24.7666 53.0911 24.7016 52.9729 24.6784 52.7976C24.669 52.727 24.6684 52.7264 24.5623 52.6861C24.5036 52.6638 24.438 52.6344 24.4165 52.6207C24.395 52.6071 24.3373 52.5775 24.2883 52.5549C24.1981 52.5135 24.1288 52.4459 23.9493 52.2241C23.8465 52.097 23.8475 52.1014 23.8564 51.8404C23.8667 51.5347 23.8976 51.4023 23.9993 51.2283C24.0268 51.1812 24.1073 51.0333 24.1679 50.9186C24.2383 50.7851 24.3694 50.6379 24.6513 50.3754C24.7125 50.3185 24.7812 50.2478 24.804 50.2185C24.8268 50.1891 24.8971 50.1308 24.9602 50.0889C25.0233 50.0471 25.0852 50.0006 25.0977 49.9858C25.1103 49.9709 25.1574 49.9406 25.2025 49.9184C25.2476 49.8962 25.3083 49.8605 25.3373 49.8391C25.3663 49.8177 25.4392 49.7781 25.4993 49.751C25.5594 49.724 25.6523 49.674 25.7059 49.6399C25.8125 49.572 26.0204 49.4772 26.135 49.4443C26.1751 49.4328 26.2443 49.4088 26.2889 49.391C26.6017 49.2657 26.8107 49.2078 27.0988 49.1666C27.1523 49.1589 27.2361 49.145 27.2851 49.1356C27.6098 49.0736 28.3916 49.0321 28.7187 49.0595C28.7721 49.064 28.907 49.0715 29.0183 49.0761C29.1297 49.0806 29.2682 49.0915 29.3261 49.1003C29.5337 49.1315 29.8228 49.1648 29.966 49.1741C30.0462 49.1792 30.1359 49.1907 30.1653 49.1995C30.1948 49.2083 30.2786 49.2176 30.3516 49.2201C30.4246 49.2226 30.5135 49.2324 30.5491 49.2418C30.7016 49.2819 31.0414 49.3542 31.1161 49.3623C31.1606 49.3672 31.2408 49.3789 31.2943 49.3883C31.3477 49.3976 31.4425 49.4114 31.5048 49.4188C31.5672 49.4261 31.649 49.4433 31.6867 49.4569C31.8281 49.5079 32.0878 49.5585 32.2709 49.5708C32.7162 49.6005 32.8246 49.2915 32.4606 49.0303C32.4249 49.0047 32.3666 48.9595 32.331 48.9298C32.2953 48.9001 32.2042 48.8321 32.1285 48.7787C32.0528 48.7253 31.9799 48.6695 31.9665 48.6548C31.9531 48.6402 31.8876 48.5899 31.8209 48.5432C31.7541 48.4965 31.6896 48.4485 31.6773 48.4365C31.6651 48.4245 31.5958 48.3707 31.5233 48.317C31.4508 48.2633 31.3546 48.1856 31.3095 48.1444C31.2645 48.1032 31.2055 48.0582 31.1785 48.0445C31.1516 48.0308 31.1086 47.9922 31.0832 47.9589C31.0577 47.9255 31.0042 47.8695 30.9642 47.8345C30.8489 47.7333 30.5969 47.4812 30.4962 47.3663C30.4454 47.3084 30.3416 47.1928 30.2655 47.1096C30.1893 47.0264 30.1082 46.9332 30.0851 46.9025C30.0621 46.8718 30.0054 46.8073 29.9591 46.7591C29.9128 46.7109 29.8531 46.6313 29.8263 46.5821C29.7995 46.533 29.7543 46.4685 29.726 46.4387C29.6675 46.3776 29.5043 46.1463 29.5043 46.1247C29.5043 46.1169 29.4762 46.079 29.4418 46.0405C29.4075 46.002 29.3552 45.9275 29.3257 45.875C29.2961 45.8224 29.2183 45.6983 29.1526 45.5992C29.087 45.5001 29.0189 45.3831 29.0013 45.3391C28.9836 45.2951 28.9409 45.2182 28.9064 45.1681C28.8418 45.0745 28.7902 44.9721 28.5529 44.4651C28.4001 44.1387 28.338 43.9924 28.338 43.9589C28.338 43.9467 28.3161 43.8877 28.2894 43.8279C28.2627 43.768 28.2408 43.7022 28.2408 43.6818C28.2407 43.6614 28.2189 43.5919 28.1922 43.5275C28.1655 43.4631 28.1436 43.3893 28.1436 43.3637C28.1436 43.338 28.1238 43.2796 28.0996 43.2339C28.0694 43.1769 28.0519 43.1132 28.0439 43.0313C28.023 42.8173 28.0029 42.7211 27.9638 42.6486C27.9353 42.5957 27.9223 42.5382 27.9135 42.4259C27.9001 42.2557 27.8782 42.0735 27.8512 41.9082C27.8412 41.8469 27.8338 41.7483 27.8348 41.6891C27.8366 41.5834 27.8371 41.2867 27.8358 41.0439C27.8343 40.7533 27.877 40.2512 27.9162 40.1C27.9448 39.9898 27.9659 39.8928 27.9802 39.8053C27.9874 39.7615 28.0053 39.6943 28.0199 39.656C28.0345 39.6176 28.0464 39.5521 28.0464 39.5103C28.0464 39.4614 28.0638 39.3942 28.095 39.3221C28.1216 39.2604 28.1538 39.1719 28.1664 39.1253C28.179 39.0787 28.2146 38.9654 28.2455 38.8734C28.2764 38.7814 28.3108 38.6703 28.322 38.6264C28.3332 38.5826 28.3568 38.5217 28.3746 38.491C28.3923 38.4604 28.4197 38.3994 28.4355 38.3556C28.5106 38.1469 28.5428 38.0753 28.6157 37.9557C28.659 37.8846 28.6944 37.8161 28.6944 37.8034C28.6944 37.7908 28.7148 37.7485 28.7397 37.7096C28.7647 37.6706 28.7978 37.5985 28.8134 37.5493C28.8465 37.445 28.9947 37.1928 29.0661 37.1193C29.0933 37.0914 29.1156 37.057 29.1156 37.043C29.1157 37.0067 29.1712 36.9218 29.2371 36.8569C29.2681 36.8265 29.3078 36.774 29.3253 36.7403C29.3428 36.7066 29.3878 36.6476 29.4254 36.6093C29.463 36.5709 29.5325 36.4813 29.5797 36.4101C29.627 36.339 29.714 36.2296 29.7732 36.167C29.889 36.0445 29.9627 35.9527 30.0204 35.8592C30.0404 35.8267 30.0919 35.7748 30.1349 35.7438C30.1779 35.7127 30.2313 35.664 30.2536 35.6355C30.3045 35.5704 30.3756 35.4976 30.4287 35.4562C30.4512 35.4387 30.5003 35.3834 30.5377 35.3334C30.5752 35.2834 30.6328 35.2225 30.6658 35.198C30.6989 35.1735 30.759 35.1185 30.7995 35.0758C30.84 35.033 30.91 34.9711 30.955 34.9381C31.0001 34.9052 31.1136 34.8111 31.2072 34.7291C31.3008 34.6471 31.4352 34.541 31.5059 34.4933C31.5766 34.4456 31.6716 34.3775 31.717 34.342C32.0037 34.1175 32.0611 34.0791 32.1735 34.0357C32.2334 34.0126 32.297 33.9811 32.3148 33.9657C32.3662 33.9211 32.6917 33.7291 32.825 33.6647C32.8919 33.6325 32.9684 33.5944 32.9951 33.5801C33.0916 33.5285 33.2721 33.4528 33.3462 33.433C33.3878 33.4218 33.4497 33.3908 33.4838 33.3642C33.518 33.3375 33.575 33.3109 33.6107 33.305C33.6987 33.2904 33.7991 33.2573 33.8729 33.2184C33.9066 33.2006 33.9436 33.1861 33.9551 33.1861C33.9666 33.1861 34.0274 33.1606 34.0902 33.1295C34.1745 33.0877 34.2381 33.0691 34.3325 33.0585C34.4029 33.0506 34.4765 33.0357 34.4961 33.0254C34.5341 33.0054 34.6763 32.9703 34.8094 32.9481C34.8539 32.9407 34.9341 32.9227 34.9876 32.9081C35.2145 32.8461 35.3331 32.8192 35.4168 32.8107C35.4658 32.8058 35.5533 32.7914 35.6112 32.7788C35.6691 32.7661 35.7858 32.7489 35.8704 32.7404C35.955 32.732 36.0899 32.7135 36.1701 32.6994C36.3275 32.6716 36.4407 32.6648 36.9152 32.6545C37.0994 32.6505 37.2443 32.64 37.2761 32.6284C37.3062 32.6175 37.3449 32.6143 37.3652 32.6211C37.385 32.6278 37.5287 32.6388 37.6847 32.6458C37.8406 32.6527 38.0155 32.6659 38.0734 32.675C38.1313 32.6842 38.2662 32.6959 38.3731 32.701C38.48 32.7062 38.6271 32.7242 38.6999 32.7411C38.7728 32.758 38.8595 32.7719 38.8927 32.7719C38.9259 32.7719 39.0267 32.786 39.1166 32.8032C39.4421 32.8655 39.5245 32.8816 39.5961 32.8972C39.7786 32.9368 39.9429 32.963 40.0093 32.963C40.0589 32.963 40.112 32.9787 40.1786 33.0131C40.2353 33.0423 40.3276 33.072 40.4005 33.0844C40.4692 33.0962 40.5623 33.1195 40.6074 33.1362C40.7265 33.1804 40.8011 33.202 40.8346 33.202C40.8507 33.202 40.9195 33.2295 40.9873 33.2631C41.0552 33.2968 41.1471 33.3334 41.1917 33.3447C41.2362 33.3559 41.3164 33.3814 41.3699 33.4014C41.4233 33.4214 41.4917 33.4428 41.5219 33.449C41.552 33.4553 41.6375 33.4883 41.7119 33.5224C41.7862 33.5564 41.8564 33.5843 41.8678 33.5843C41.9053 33.5843 42.0555 33.644 42.1045 33.6783C42.1308 33.6967 42.1593 33.7118 42.1676 33.7118C42.176 33.7118 42.228 33.7405 42.2831 33.7755C42.3383 33.8106 42.387 33.8392 42.3913 33.8392C42.3957 33.8392 42.5188 33.8966 42.6648 33.9667C42.8108 34.0368 42.9384 34.0941 42.9485 34.0941C42.989 34.0941 43.0936 34.1622 43.2104 34.2646C43.2783 34.3242 43.3621 34.388 43.3967 34.4063C43.5612 34.4939 43.6212 34.5319 43.7848 34.6527C43.8817 34.7242 43.9777 34.789 43.9982 34.7966C44.0187 34.8043 44.0699 34.842 44.1119 34.8804C44.154 34.9188 44.2103 34.9612 44.237 34.9745C44.2638 34.9879 44.3102 35.0289 44.3402 35.0657C44.3702 35.1024 44.4335 35.1568 44.4809 35.1866C44.5282 35.2164 44.5984 35.2766 44.6367 35.3204C44.6751 35.3642 44.7575 35.4377 44.8198 35.4839C44.9521 35.5817 44.9789 35.6066 45.055 35.7031C45.0861 35.7426 45.1275 35.7875 45.147 35.803C45.1664 35.8184 45.243 35.9071 45.3171 36.0001C45.3913 36.093 45.515 36.2316 45.5922 36.3081C45.6748 36.39 45.7506 36.4825 45.7767 36.5332C45.8011 36.5805 45.8637 36.6816 45.9159 36.7579C45.9681 36.8343 46.0108 36.9048 46.0108 36.9146C46.0108 36.9245 46.0545 36.9947 46.108 37.0707C46.1614 37.1467 46.2052 37.2204 46.2052 37.2346C46.2052 37.2487 46.2401 37.3132 46.2829 37.3778C46.3256 37.4425 46.3776 37.5367 46.3983 37.5872C46.419 37.6378 46.4613 37.7118 46.4923 37.7517C46.5485 37.8241 46.6263 37.995 46.6263 38.0459C46.6263 38.0606 46.6628 38.1599 46.7073 38.2664C46.7519 38.373 46.7883 38.4733 46.7883 38.4892C46.7883 38.5051 46.8079 38.5533 46.8318 38.5962C46.8567 38.6408 46.8804 38.7152 46.8872 38.7698C46.9042 38.9066 46.9234 38.9793 46.9722 39.0919C46.9958 39.1464 47.0151 39.2074 47.0151 39.2274C47.0151 39.2903 47.0589 39.4666 47.1021 39.5774C47.1366 39.6658 47.1408 39.6922 47.1265 39.7323C47.1046 39.7942 47.1317 40.0853 47.1667 40.1638C47.1726 40.1769 47.1815 40.3418 47.1866 40.5302C47.1989 40.9908 47.1993 40.9614 47.178 41.2949C47.1676 41.457 47.1566 41.6906 47.1534 41.8141C47.1493 41.9774 47.1399 42.0599 47.119 42.1168C47.1032 42.1598 47.0849 42.2487 47.0783 42.3144C47.0642 42.4543 47.0452 42.5497 47.0113 42.649C46.9979 42.6884 46.9784 42.7744 46.968 42.8401C46.9576 42.9059 46.9379 42.9919 46.9242 43.0313C46.9104 43.0707 46.8935 43.1281 46.8865 43.1588C46.8796 43.1894 46.8575 43.2575 46.8375 43.3101C46.7338 43.5827 46.6911 43.7127 46.691 43.756C46.6909 43.7824 46.6719 43.8434 46.6487 43.8916C46.6255 43.9398 46.5933 44.0317 46.577 44.096C46.559 44.1673 46.5225 44.2509 46.4832 44.311C46.4096 44.4237 46.344 44.549 46.2691 44.72C46.2403 44.7857 46.1859 44.8896 46.1482 44.951C46.1106 45.0123 46.0752 45.0768 46.0696 45.0944C46.064 45.1119 46.0261 45.1621 45.9852 45.2059C45.9025 45.2946 45.8164 45.4476 45.8164 45.5058C45.8164 45.5313 45.7769 45.5843 45.6959 45.6674C45.6296 45.7353 45.5555 45.8298 45.5311 45.8772C45.5067 45.9246 45.4424 46.0054 45.3883 46.0568C45.2134 46.2228 45.0172 46.4408 44.9707 46.5207C44.9458 46.5636 44.9104 46.6066 44.892 46.6163C44.8735 46.626 44.8199 46.6683 44.7729 46.7102C44.7258 46.7521 44.6662 46.7991 44.6404 46.8147C44.6145 46.8302 44.5642 46.8768 44.5286 46.9182C44.493 46.9596 44.4252 47.0214 44.378 47.0555C44.3307 47.0896 44.2628 47.1517 44.2269 47.1935C44.1911 47.2352 44.1204 47.2953 44.0698 47.327C44.0192 47.3587 43.9341 47.4273 43.8807 47.4796C43.8272 47.5318 43.7579 47.5877 43.7268 47.6037C43.6956 47.6197 43.6373 47.6628 43.5972 47.6995C43.5571 47.7362 43.4989 47.777 43.468 47.7901C43.3975 47.82 43.2965 47.8879 43.2256 47.953C43.1957 47.9805 43.0442 48.0856 42.8888 48.1867C42.7334 48.2878 42.5839 48.3915 42.5567 48.4171C42.5294 48.4428 42.4986 48.4637 42.4883 48.4637C42.4677 48.4637 42.1577 48.6389 42.0421 48.7158C42.002 48.7425 41.9054 48.7968 41.8275 48.8365C41.7495 48.8762 41.6427 48.9373 41.5902 48.9724C41.5377 49.0075 41.4557 49.0534 41.408 49.0744C41.3603 49.0954 41.2935 49.1346 41.2597 49.1615C41.2258 49.1883 41.1383 49.2327 41.0653 49.2602C40.9922 49.2876 40.8624 49.3523 40.7767 49.4041C40.6294 49.493 40.5802 49.5141 40.406 49.5628C40.3659 49.574 40.3076 49.5904 40.2764 49.5992C40.133 49.6398 39.9565 49.7166 39.916 49.7561C39.8157 49.8538 39.8898 49.9501 40.0391 49.9159C40.3289 49.8496 40.4455 49.8328 40.6684 49.8253C40.8083 49.8206 40.9358 49.8239 40.9708 49.8332C41.0041 49.842 41.0856 49.8554 41.152 49.863C41.305 49.8804 41.4895 49.9326 41.6857 50.0139C41.7704 50.0489 41.887 50.0972 41.9449 50.1211C42.0028 50.145 42.1012 50.1952 42.1636 50.2328C42.226 50.2703 42.3161 50.318 42.3638 50.3388C42.4509 50.3767 42.5166 50.4229 42.6558 50.544C42.6969 50.5798 42.7633 50.6312 42.8034 50.6583C42.8978 50.722 42.9532 50.7832 43.1528 51.0446C43.2431 51.163 43.3291 51.2696 43.3437 51.2815C43.3584 51.2935 43.3704 51.3151 43.3704 51.3295C43.3704 51.3438 43.3857 51.3949 43.4044 51.443C43.6187 51.9932 43.653 52.1805 43.6331 52.6896C43.627 52.8445 43.6306 52.9268 43.6451 52.9701C43.6635 53.0249 43.6616 53.0424 43.6279 53.1332C43.6034 53.1992 43.5893 53.2743 43.5879 53.3465C43.5866 53.4079 43.5732 53.4975 43.5581 53.5457C43.5402 53.6025 43.5281 53.7085 43.5236 53.8474C43.5193 53.9828 43.5073 54.0893 43.4911 54.1373C43.4566 54.2396 43.4684 54.7953 43.5134 55.1865C43.5627 55.6154 43.5686 55.642 43.633 55.7263C43.6489 55.7472 43.6622 55.7903 43.6624 55.8219C43.6626 55.8536 43.6814 55.9225 43.7043 55.9751C43.7271 56.0277 43.7522 56.101 43.7601 56.1381C43.7679 56.1751 43.7884 56.2361 43.8057 56.2735C43.8976 56.4724 43.9502 56.5733 44.0614 56.7637C44.0895 56.8119 44.124 56.8898 44.138 56.9369C44.1521 56.984 44.1882 57.0664 44.2183 57.1201C44.2483 57.1738 44.2816 57.2527 44.2922 57.2955C44.3028 57.3383 44.3255 57.4004 44.3427 57.4335C44.3598 57.4665 44.3789 57.5244 44.385 57.562C44.3911 57.5996 44.4102 57.6666 44.4274 57.7108C44.6365 58.2478 44.4076 58.7497 43.964 58.7269C43.8676 58.7219 43.8009 58.7256 43.7789 58.7372C43.7502 58.7524 43.7324 58.7477 43.6703 58.709C43.6295 58.6835 43.5544 58.6464 43.5035 58.6265C43.4526 58.6066 43.3927 58.5781 43.3704 58.5632C43.3481 58.5483 43.2935 58.5179 43.2489 58.4955C43.2044 58.4733 43.1351 58.4215 43.095 58.3806C43.0549 58.3396 42.9907 58.2846 42.9522 58.2582C42.9137 58.2319 42.8602 58.1752 42.8334 58.1322C42.7911 58.0647 42.7774 58.0541 42.732 58.0541C42.5985 58.0541 42.2518 57.7957 42.1763 57.6399C42.122 57.5277 42.0259 57.3171 42.0259 57.3102C42.0259 57.3058 42.0106 57.2811 41.9918 57.2552C41.9361 57.1782 41.9117 57.0564 41.9063 56.8274C41.9009 56.6028 41.8726 56.4863 41.7839 56.3236C41.7656 56.2899 41.7505 56.2503 41.7505 56.2356C41.7505 56.1959 41.6629 55.9397 41.5776 55.7301C41.5273 55.6063 41.4986 55.5085 41.4907 55.4337C41.4755 55.2891 41.4604 55.2558 41.3745 55.1774C41.193 55.0117 41.123 54.6572 41.2307 54.4486C41.2742 54.3642 41.2828 54.3329 41.2736 54.291C41.2672 54.2622 41.2553 54.1956 41.2471 54.1431C41.2388 54.0905 41.2206 53.983 41.2067 53.9041C41.1927 53.8252 41.1756 53.6962 41.1687 53.6173C41.1619 53.5385 41.1468 53.4489 41.1353 53.4182C41.1238 53.3875 41.108 53.3123 41.1001 53.2509C41.0762 53.0645 41.0566 52.9363 41.0395 52.8527C41.0304 52.8089 41.0166 52.7407 41.0087 52.7013C41.0008 52.6619 40.9823 52.6019 40.9675 52.5679C40.9527 52.534 40.9406 52.4894 40.9406 52.4687C40.9406 52.4481 40.9225 52.3934 40.9004 52.3472C40.8783 52.301 40.8325 52.1987 40.7987 52.1198C40.7088 51.91 40.4839 51.5984 40.441 51.6244C40.4138 51.641 40.418 51.6924 40.4506 51.7413C40.5224 51.8491 40.5327 51.9283 40.4864 52.0175C40.4682 52.0526 40.459 52.0898 40.4658 52.1005C40.4726 52.1111 40.4838 52.1611 40.4907 52.2114C40.4976 52.2618 40.511 52.3479 40.5206 52.4026C40.5584 52.62 40.574 52.9527 40.5699 53.4541C40.5698 53.4694 40.5695 53.5088 40.5693 53.5417C40.569 53.5745 40.5612 53.6695 40.5518 53.7528C40.5424 53.836 40.5278 53.983 40.5192 54.0793C40.4573 54.7795 40.4436 54.8767 40.3894 55.0033C40.3628 55.0654 40.3405 55.1843 40.331 55.314C40.3265 55.3753 40.3047 55.463 40.2776 55.529C40.2191 55.6715 40.179 55.785 40.1623 55.8556C40.155 55.8863 40.1408 55.9401 40.1308 55.9751C40.1208 56.0101 40.1069 56.0603 40.0998 56.0866C40.0928 56.1129 40.0647 56.1846 40.0374 56.2459C40.0101 56.3073 39.98 56.3861 39.9704 56.4212C39.9609 56.4562 39.9387 56.5112 39.9211 56.5433C39.8664 56.643 39.7095 56.9996 39.7095 57.024C39.7095 57.0368 39.6831 57.0856 39.6508 57.1325C39.6185 57.1793 39.5671 57.2715 39.5365 57.3372C39.5059 57.4029 39.4538 57.4889 39.4206 57.5284C39.3875 57.5678 39.3518 57.6194 39.3413 57.643C39.3308 57.6666 39.2974 57.7132 39.2671 57.7465C39.2368 57.7799 39.1919 57.8394 39.1674 57.8788C39.1156 57.9621 38.7788 58.2911 38.7108 58.3248C38.6395 58.3602 38.486 58.4683 38.3883 58.5519C38.3396 58.5935 38.2857 58.6276 38.2684 58.6276C38.2511 58.6276 38.2202 58.634 38.1997 58.6419C38.1793 58.6497 38.1324 58.6649 38.0955 58.6757C38.0587 58.6864 38.004 58.7158 37.974 58.741C37.9368 58.7723 37.9016 58.7869 37.8628 58.7871C37.7994 58.7874 37.6813 58.824 37.6301 58.8593C37.6116 58.872 37.5662 58.8825 37.5291 58.8825C37.4921 58.8825 37.4336 58.8949 37.3991 58.91C37.2734 58.9651 36.6813 58.9811 36.5305 58.9335C36.387 58.8882 36.3572 58.8825 36.2652 58.8825C36.1488 58.8825 35.565 58.6192 35.4524 58.5159C35.4284 58.4939 35.3832 58.4581 35.352 58.4364C35.2366 58.356 35.0281 58.1213 35.0281 58.0719C35.0281 58.0614 35.0135 58.0247 34.9957 57.9904C34.9477 57.8979 34.9476 57.5311 34.9954 57.4649C35.0131 57.4405 35.0421 57.3892 35.0598 57.351C35.1427 57.1719 35.2579 57.0096 35.3464 56.9469C35.3807 56.9226 35.4358 56.8696 35.469 56.8291C35.5908 56.6801 35.767 56.5111 35.8355 56.4774C35.8742 56.4584 35.9325 56.4144 35.9651 56.3795C35.9976 56.3447 36.0607 56.2956 36.1053 56.2706C36.1842 56.2261 36.3402 56.0869 36.3402 56.0608C36.3402 56.0536 36.393 56.0124 36.4576 55.9691C36.5675 55.8955 37.0033 55.4818 37.0638 55.3936C37.0788 55.3717 37.139 55.3034 37.1975 55.2419C37.2561 55.1803 37.3147 55.1087 37.3278 55.0826C37.3409 55.0565 37.3705 55.0065 37.3937 54.9715C37.4168 54.9364 37.4485 54.8806 37.4641 54.8473C37.4797 54.8141 37.5131 54.7638 37.5383 54.7355C37.5636 54.7073 37.6103 54.6314 37.6422 54.567C37.6741 54.5025 37.7069 54.4417 37.7151 54.4319C37.7233 54.422 37.7491 54.3578 37.7724 54.2892C37.7958 54.2206 37.8291 54.1369 37.8466 54.1032C37.9004 53.9996 37.96 53.8064 37.96 53.7359C37.96 53.6991 37.9822 53.6055 38.0092 53.528L38.0584 53.3871L38.0529 53.0323C38.0489 52.7678 38.0405 52.649 38.0199 52.5659C38.0048 52.5046 37.9924 52.4367 37.9924 52.415C37.9924 52.3934 37.9787 52.3288 37.9618 52.2716C37.9225 52.1378 37.8784 51.9721 37.8679 51.9184C37.8619 51.8877 37.8754 51.8533 37.9179 51.7912C38.0143 51.6504 37.9861 51.5856 37.8295 51.588C37.781 51.5887 37.7149 51.5843 37.6826 51.5783C37.6015 51.563 37.5669 51.6097 37.5811 51.7152C37.5905 51.785 37.5878 51.7922 37.534 51.8403C37.5026 51.8684 37.4683 51.912 37.4577 51.9371C37.4471 51.9623 37.4221 51.9934 37.4021 52.0063C37.3821 52.0192 37.3459 52.0696 37.3216 52.1183C37.2974 52.1671 37.2543 52.2354 37.226 52.2701C37.172 52.3362 37.0944 52.4493 37.0527 52.5228C37.0392 52.5465 36.9863 52.6346 36.9352 52.7186C36.8841 52.8026 36.8423 52.8779 36.8423 52.8859C36.8422 52.8939 36.8204 52.9327 36.7937 52.9721C36.7671 53.0116 36.7452 53.0531 36.7452 53.0644C36.7452 53.0757 36.716 53.1435 36.6803 53.215C36.6447 53.2865 36.6155 53.3517 36.6155 53.3599C36.6155 53.3819 36.4838 53.6407 36.4675 53.6506C36.4598 53.6552 36.4535 53.6802 36.4535 53.7061C36.4535 53.732 36.4317 53.7913 36.405 53.8379C36.3782 53.8845 36.3564 53.9383 36.3564 53.9574C36.3564 53.9766 36.3199 54.0637 36.2754 54.151C36.2299 54.2402 36.1944 54.3316 36.1944 54.3595C36.1944 54.3869 36.1733 54.4534 36.1477 54.5072C36.1069 54.5925 36.0155 54.8211 35.9524 54.9954C35.9413 55.026 35.9175 55.087 35.8996 55.1308C35.8817 55.1746 35.8471 55.2642 35.8228 55.3299C35.7984 55.3956 35.7341 55.539 35.6798 55.6485C35.6255 55.758 35.569 55.8819 35.5541 55.9237C35.5161 56.0312 35.4372 56.1403 35.352 56.203C35.3119 56.2325 35.2646 56.2687 35.2467 56.2833C35.2289 56.298 35.1686 56.3446 35.1127 56.3868C35.0567 56.429 34.9803 56.5042 34.9428 56.5539C34.9054 56.6035 34.8265 56.698 34.7675 56.7637C34.6498 56.8947 34.5421 57.0457 34.5421 57.0796C34.5421 57.0915 34.5289 57.1203 34.5127 57.1436C34.4966 57.1668 34.4753 57.2145 34.4655 57.2496C34.4306 57.3739 34.4137 57.4413 34.4058 57.4885C34.4014 57.5148 34.3896 57.5722 34.3795 57.616C34.3575 57.7121 34.3575 57.7375 34.3791 57.909L34.3959 58.0427L34.3192 58.1452C34.277 58.2016 34.206 58.3008 34.1614 58.3656C34.1088 58.4423 34.0546 58.4996 34.0065 58.5294C33.9658 58.5547 33.9148 58.5926 33.8931 58.6138C33.8159 58.6889 33.6432 58.8188 33.6203 58.8188C33.6075 58.8188 33.5584 58.8403 33.511 58.8665C33.4525 58.899 33.4027 58.9143 33.3556 58.9143C33.3174 58.9143 33.2464 58.9287 33.1976 58.9462C33.0981 58.982 32.8856 58.99 32.8198 58.9605C32.791 58.9476 32.7714 58.9477 32.7463 58.961C32.7112 58.9794 32.5462 58.9359 32.4278 58.8771C32.4013 58.8639 32.3493 58.841 32.3122 58.8262C32.2751 58.8114 32.2203 58.7768 32.1903 58.7493C32.1603 58.7218 32.1104 58.6804 32.0795 58.6573C31.9653 58.5721 31.8382 58.4299 31.7599 58.3001C31.7338 58.2568 31.6931 58.1935 31.6694 58.1594C31.6441 58.1229 31.6263 58.0756 31.6263 58.0445C31.6263 58.0154 31.6119 57.9536 31.5943 57.9073C31.5265 57.729 31.5615 57.3267 31.6585 57.1699C31.6747 57.1436 31.6996 57.0836 31.7136 57.0365C31.7277 56.9893 31.7649 56.92 31.7962 56.8824C31.8275 56.8448 31.8669 56.783 31.8837 56.745C31.9006 56.7071 31.941 56.651 31.9737 56.6203C32.0063 56.5897 32.0481 56.535 32.0665 56.4988C32.0848 56.4626 32.129 56.4017 32.1647 56.3634C32.2344 56.2886 32.3715 56.1056 32.3715 56.0875C32.3715 56.071 32.4648 55.9393 32.547 55.8397C32.5868 55.7915 32.6337 55.7198 32.6511 55.6804C32.6686 55.641 32.707 55.5836 32.7365 55.5529C32.766 55.5223 32.8236 55.4336 32.8644 55.3558C32.9052 55.2781 32.9604 55.19 32.9871 55.1601C33.0436 55.0968 33.1079 54.977 33.1235 54.906C33.1295 54.8788 33.1594 54.8183 33.19 54.7716C33.2206 54.7249 33.2577 54.6504 33.2725 54.606C33.2872 54.5617 33.3152 54.4931 33.3346 54.4537C33.3541 54.4143 33.3803 54.3498 33.3929 54.3103C33.4055 54.2709 33.4396 54.1996 33.4687 54.152C33.4978 54.1043 33.5216 54.0577 33.5216 54.0484C33.5216 54.0391 33.5442 53.9849 33.5718 53.928C33.5994 53.871 33.6316 53.7922 33.6434 53.7528C33.663 53.6865 33.7444 53.4423 33.7839 53.3306C33.7933 53.3043 33.8249 53.2147 33.8543 53.1315C33.8837 53.0482 33.9302 52.9335 33.9576 52.8766C33.9851 52.8196 34.0119 52.7479 34.0171 52.7172C34.0259 52.666 34.0512 52.5909 34.1164 52.4225C34.1467 52.3443 34.1798 52.2189 34.2171 52.0402C34.2364 51.9481 34.3277 51.7123 34.356 51.6815C34.3799 51.6556 34.4959 51.4545 34.5673 51.3153C34.6518 51.1505 34.6643 51.0232 34.5988 50.9938C34.5482 50.9711 34.5482 50.9516 34.5988 50.8533C34.6814 50.6931 34.6345 50.6829 34.5291 50.8383C34.4908 50.8947 34.4384 50.9661 34.4127 50.9967C34.3613 51.0582 34.2204 51.2545 34.1212 51.403C34.0071 51.5738 33.9534 51.6369 33.8704 51.6984C33.8256 51.7317 33.767 51.7782 33.7403 51.8018C33.7135 51.8255 33.6589 51.8588 33.6188 51.8758C33.5787 51.8929 33.5268 51.9247 33.5036 51.9465C33.4803 51.9683 33.4257 51.9959 33.3821 52.0077C33.3385 52.0196 33.2665 52.0438 33.2219 52.0616C32.9692 52.1621 32.7297 52.2059 32.5867 52.1777C32.4029 52.1414 32.2643 52.1533 32.1036 52.2193C31.963 52.2771 31.9523 52.279 31.764 52.2787L31.5696 52.2784L31.4158 52.2094C31.3311 52.1715 31.2254 52.1244 31.1809 52.1048C31.0906 52.065 31.0051 51.9867 30.9678 51.9096C30.9358 51.8436 30.7943 51.7136 30.7544 51.7136C30.7374 51.7136 30.6778 51.6993 30.622 51.6817C30.5662 51.6642 30.4922 51.6499 30.4574 51.6499C30.4226 51.6499 30.3598 51.633 30.3178 51.6123C30.1672 51.5383 29.8245 51.4807 29.4001 51.4582C29.1005 51.4423 29.0831 51.4459 29.0831 51.5247C29.0831 51.5948 28.999 51.7619 28.9293 51.8301C28.8467 51.911 28.6633 51.9994 28.5766 52.0001C28.5608 52.0003 28.4812 52.0333 28.3997 52.0736C28.1902 52.1771 28.0776 52.2104 27.9081 52.2193C27.7541 52.2273 27.7227 52.2207 27.52 52.1369C27.3689 52.0744 27.1967 52.1059 27.0421 52.2242C27.0109 52.248 26.9672 52.2712 26.9449 52.2757C26.8581 52.2933 26.7138 52.3361 26.6804 52.3542C26.661 52.3647 26.5651 52.4031 26.467 52.4396L26.2889 52.5059L26.2791 52.5678C26.2422 52.8014 25.7746 53.2589 25.5727 53.2589C25.5557 53.2589 25.5277 53.2697 25.5104 53.2828C25.4699 53.3136 25.5215 53.363 25.5761 53.3458C25.5939 53.3401 25.6418 53.3305 25.6825 53.3243C25.7232 53.3182 25.7901 53.2938 25.8312 53.2701C25.8949 53.2333 25.9242 53.227 26.0314 53.227C26.155 53.227 26.2172 53.2146 26.3294 53.1676C26.3605 53.1545 26.4261 53.131 26.4751 53.1154C26.7846 53.0169 27.0273 52.9074 27.17 52.8018C27.2091 52.7728 27.2549 52.7491 27.2717 52.7491C27.3048 52.7491 27.4772 52.6679 27.5472 52.6193C27.5712 52.6027 27.6211 52.5786 27.6583 52.5657C27.6955 52.5528 27.7598 52.518 27.8011 52.4884C27.8425 52.4589 27.9201 52.4236 27.9735 52.4102C28.027 52.3967 28.1267 52.3599 28.1952 52.3284C28.2637 52.2969 28.3323 52.2712 28.3477 52.2712C28.3631 52.2712 28.4289 52.2425 28.4938 52.2075C28.5587 52.1724 28.6322 52.1436 28.6572 52.1435C28.6821 52.1434 28.7353 52.1317 28.7754 52.1177C28.9111 52.07 28.9613 52.0598 29.1317 52.0455C29.5703 52.0088 29.613 52.0107 29.966 52.0816C30.0105 52.0906 30.098 52.1034 30.1604 52.1101C30.234 52.1181 30.3407 52.1484 30.4648 52.1968C30.5972 52.2483 30.6793 52.2712 30.7324 52.2712C30.7877 52.2712 30.8257 52.2824 30.8697 52.3119C30.9429 52.3607 31.047 52.3986 31.108 52.3986C31.1527 52.3986 31.2037 52.4165 31.3636 52.4879C31.4162 52.5114 31.4793 52.5261 31.5277 52.5261C31.5708 52.5261 31.6337 52.5374 31.6673 52.5512C31.701 52.565 31.7693 52.5836 31.8191 52.5925C31.869 52.6014 31.9426 52.6155 31.9827 52.6238C32.0555 52.6388 32.2275 52.6609 32.4127 52.6791C32.4871 52.6864 32.5382 52.6806 32.625 52.6552C32.688 52.6368 32.7729 52.6217 32.8138 52.6217C32.8548 52.6217 32.9305 52.6102 32.9822 52.5961C33.0339 52.582 33.1053 52.565 33.1409 52.5582C33.2099 52.545 33.5015 52.4247 33.5283 52.3984C33.6086 52.3194 33.6191 52.4135 33.5456 52.5532C33.5143 52.6127 33.4699 52.7257 33.4471 52.8041C33.4242 52.8825 33.3915 52.9737 33.3745 53.0066C33.3574 53.0395 33.3434 53.0743 33.3434 53.084C33.3434 53.0936 33.3142 53.1616 33.2786 53.235C33.243 53.3084 33.2138 53.3796 33.2138 53.3931C33.2138 53.4067 33.1854 53.477 33.1506 53.5494C33.0714 53.7145 32.9968 53.8984 32.9712 53.9917C32.9529 54.0585 32.9091 54.1525 32.8152 54.3263C32.7739 54.4027 32.71 54.5315 32.6809 54.5971C32.6712 54.619 32.6347 54.676 32.5998 54.7239C32.565 54.7717 32.5272 54.8398 32.5159 54.8752C32.4864 54.9674 32.4583 55.0195 32.3922 55.1041C32.3602 55.1451 32.3157 55.218 32.2933 55.2662C32.2709 55.3144 32.2254 55.3861 32.1922 55.4255C32.159 55.4649 32.1137 55.533 32.0914 55.5768C32.069 55.6206 31.9948 55.7246 31.9264 55.8078C31.858 55.8911 31.7834 55.995 31.7607 56.0388C31.738 56.0826 31.6888 56.1509 31.6513 56.1906C31.6138 56.2303 31.5698 56.2984 31.5536 56.342C31.5373 56.3855 31.4929 56.4534 31.4549 56.4929C31.4169 56.5323 31.3679 56.6045 31.3462 56.6534C31.3244 56.7023 31.2832 56.774 31.2546 56.8127C31.1974 56.89 31.1566 56.9755 31.1566 57.0178C31.1566 57.0327 31.1393 57.0874 31.1182 57.1393C31.097 57.1912 31.0702 57.293 31.0585 57.3656C31.032 57.5299 31.0415 57.5232 30.7817 57.5608C26.0381 58.2471 25.5036 59.6292 29.6582 60.4657C31.7203 60.8809 32.7345 60.905 34.1174 60.5716C35.0199 60.3541 35.3316 60.3189 36.0857 60.3494C37.8552 60.4211 40.5479 60.3299 41.8315 60.155C42.7352 60.0318 43.2825 59.784 43.5757 59.3653C43.639 59.275 43.6935 59.2623 43.7945 59.3145C43.8406 59.3382 44.0571 59.3306 44.1337 59.3025C44.1727 59.2882 44.2374 59.2708 44.2775 59.2637C44.4519 59.233 44.4963 59.2167 44.6052 59.1433C44.7129 59.0708 44.7888 59.0015 44.9084 58.8665C44.9786 58.7873 45.1037 58.5439 45.1037 58.4864C45.1037 58.4597 45.1102 58.4214 45.1181 58.4013C45.1754 58.2561 45.204 58.1331 45.1939 58.0761C45.1879 58.0421 45.1761 57.9497 45.1678 57.8709C45.1594 57.792 45.1466 57.6809 45.1391 57.6239C45.1231 57.5004 45.0092 57.166 44.9334 57.0196C44.9036 56.9621 44.8629 56.872 44.843 56.8194C44.823 56.7669 44.787 56.6952 44.763 56.6601C44.7194 56.5967 44.5853 56.2869 44.5852 56.2496C44.5852 56.2388 44.5415 56.1373 44.4881 56.024C44.4346 55.9107 44.3909 55.8084 44.3909 55.7967C44.3909 55.7849 44.369 55.7278 44.3423 55.6699C44.3101 55.5999 44.2937 55.5389 44.2937 55.4884C44.2937 55.4466 44.28 55.3741 44.2632 55.3273C44.1581 55.0342 44.1614 55.0557 44.1651 54.6902C44.1713 54.0718 44.1741 54.0003 44.1952 53.928C44.2185 53.8481 44.2447 53.5107 44.2502 53.2191C44.2524 53.0993 44.2616 53.0143 44.2746 52.9916C44.3182 52.9153 44.3107 52.3899 44.2622 52.1198C44.2527 52.0673 44.2387 51.9884 44.231 51.9446C44.2233 51.9008 44.2057 51.8327 44.1918 51.7933C44.1779 51.7538 44.1433 51.6499 44.1149 51.5623C44.0865 51.4746 44.0508 51.385 44.0355 51.3631C44.0203 51.3412 43.9977 51.2982 43.9853 51.2675C43.973 51.2369 43.9317 51.1789 43.8937 51.1387C43.8556 51.0985 43.8102 51.034 43.7928 50.9953C43.7381 50.8739 43.5938 50.7074 43.41 50.5539C43.3125 50.4725 43.1853 50.3643 43.1274 50.3134C43.0249 50.2235 42.8617 50.1161 42.7305 50.0522C42.6949 50.0349 42.6446 50.0033 42.6188 49.982C42.5661 49.9387 42.4246 49.8656 42.2985 49.8168C42.2525 49.7989 42.1826 49.7699 42.1432 49.7522C42.0371 49.7047 41.7346 49.6108 41.6868 49.6105C41.6639 49.6104 41.6124 49.5986 41.5723 49.5844C41.5322 49.5701 41.4448 49.5525 41.378 49.5452C41.1144 49.5165 41.0792 49.5031 41.139 49.455C41.1732 49.4275 41.3651 49.3558 41.4046 49.3558C41.4251 49.3558 41.4809 49.3389 41.5287 49.3181C41.5764 49.2973 41.6758 49.2611 41.7496 49.2376C41.8234 49.2141 41.9477 49.1666 42.0258 49.132C42.1039 49.0974 42.1758 49.0691 42.1854 49.0691C42.2101 49.0691 42.5967 48.9021 42.6788 48.856C42.7162 48.835 42.7868 48.8051 42.8358 48.7896C42.8848 48.7741 43.0561 48.6977 43.2165 48.6198C43.3769 48.5419 43.5591 48.457 43.6215 48.431C43.6838 48.405 43.7604 48.3615 43.7916 48.3344C43.8227 48.3073 43.892 48.2634 43.9454 48.2368C43.9989 48.2103 44.0832 48.1573 44.1327 48.119C44.1823 48.0808 44.2317 48.0495 44.2426 48.0495C44.292 48.0495 44.4361 47.9587 44.5319 47.8672C44.5947 47.8073 44.6626 47.7585 44.7005 47.7462C44.7354 47.7349 44.7985 47.6934 44.8407 47.6541C44.8829 47.6147 44.957 47.5574 45.0055 47.5268C45.0934 47.4713 45.3348 47.2403 45.3999 47.1494C45.4466 47.0843 45.5015 47.0374 45.599 46.9793C45.6494 46.9492 45.6994 46.9017 45.7283 46.8566C45.7542 46.8161 45.8135 46.7456 45.8601 46.6999C45.9067 46.6542 45.9632 46.5812 45.9857 46.5377C46.0081 46.4941 46.0778 46.4073 46.1406 46.3447C46.2227 46.2628 46.2747 46.1922 46.3261 46.0928C46.376 45.9962 46.4255 45.9282 46.4904 45.867C46.5622 45.7994 46.6 45.7448 46.6559 45.628C46.6958 45.5448 46.7407 45.4588 46.7557 45.4369C46.7708 45.415 46.8179 45.3325 46.8605 45.2537C46.903 45.1748 46.9507 45.0924 46.9663 45.0705C47.045 44.9604 47.1771 44.6556 47.1771 44.584C47.1771 44.5397 47.2283 44.4234 47.2865 44.3353C47.3077 44.3034 47.3422 44.2271 47.3633 44.1658C47.3844 44.1045 47.4241 44.0106 47.4515 43.9571C47.5064 43.8501 47.5457 43.7244 47.5671 43.5866C47.5748 43.5371 47.5996 43.4427 47.6221 43.3767C47.6446 43.3107 47.6631 43.2348 47.6631 43.2081C47.6631 43.1814 47.6824 43.1109 47.7061 43.0516C47.7297 42.9923 47.7544 42.9007 47.7608 42.8481C47.7819 42.6767 47.824 42.4416 47.8387 42.4135C47.8466 42.3985 47.8571 42.2929 47.8621 42.179C47.8674 42.0568 47.8814 41.9422 47.8962 41.8994C47.9482 41.7495 47.9798 40.6668 47.939 40.4355C47.9304 40.3868 47.9152 40.2215 47.9053 40.0682C47.8897 39.8273 47.8815 39.7764 47.8453 39.6938C47.8118 39.6176 47.8012 39.5612 47.7927 39.415C47.7868 39.3143 47.773 39.2067 47.762 39.1761C47.7227 39.0664 47.6954 38.9505 47.6952 38.8925C47.6949 38.8077 47.6295 38.6317 47.563 38.5364C47.5463 38.5125 47.5335 38.4659 47.5335 38.4292C47.5335 38.391 47.5135 38.3216 47.4849 38.26C47.4581 38.2026 47.4363 38.1454 47.4363 38.1328C47.4363 38.0994 47.3804 37.964 47.2918 37.7821C47.2072 37.6087 47.1601 37.4986 47.1282 37.3998C47.1168 37.3647 47.0795 37.2952 47.0452 37.2453C47.0108 37.1954 46.9827 37.1467 46.9827 37.1372C46.9827 37.1099 46.9192 36.9928 46.8615 36.9139C46.8327 36.8745 46.7791 36.7848 46.7423 36.7147C46.7055 36.6446 46.6585 36.5694 46.6379 36.5475C46.6173 36.5256 46.5683 36.461 46.5291 36.4041C46.4899 36.3471 46.4243 36.2683 46.3834 36.2289C46.3424 36.1894 46.2768 36.1106 46.2376 36.0536C46.1985 35.9967 46.1567 35.9404 46.1448 35.9285C46.1329 35.9166 46.1089 35.8795 46.0915 35.846C46.0742 35.8126 46.0179 35.7426 45.9665 35.6905C45.9151 35.6384 45.8257 35.5435 45.7678 35.4796C45.7099 35.4157 45.6339 35.3377 45.5989 35.3062C45.4984 35.216 45.3283 35.0484 45.2575 34.9699C45.2219 34.9303 45.1381 34.8539 45.0713 34.8C45.0044 34.7461 44.9288 34.6796 44.9032 34.6523C44.8775 34.6249 44.8265 34.5876 44.7898 34.5694C44.7531 34.5512 44.6827 34.4987 44.6334 34.4528C44.5842 34.4069 44.5222 34.3583 44.4957 34.3447C44.4693 34.3311 44.4257 34.2972 44.399 34.2693C44.3502 34.2183 44.1952 34.1118 44.0403 34.0226C43.9945 33.9962 43.8987 33.9309 43.8275 33.8774C43.7367 33.8093 43.6513 33.7624 43.5422 33.7208C43.4564 33.6881 43.3518 33.6372 43.3095 33.6076C43.0034 33.393 42.7905 33.2802 42.439 33.1461C42.3321 33.1054 42.2118 33.0517 42.1717 33.0269C42.0884 32.9754 41.9857 32.9314 41.947 32.9307C41.9325 32.9304 41.8769 32.9081 41.8234 32.8811C41.77 32.8541 41.6992 32.8185 41.6663 32.8019C41.6333 32.7854 41.5959 32.7719 41.5832 32.7719C41.5705 32.7719 41.5175 32.7527 41.4654 32.7293C41.3766 32.6893 41.337 32.6779 41.1755 32.6457C41.1398 32.6386 41.056 32.6138 40.9892 32.5906C40.8139 32.5297 40.7713 32.517 40.7431 32.517C40.7294 32.517 40.6517 32.4955 40.5706 32.4692C40.4687 32.4361 40.3911 32.4214 40.3194 32.4214C40.241 32.4214 40.1922 32.4109 40.1205 32.3785C40.0682 32.3549 39.9962 32.3302 39.9606 32.3236C39.9249 32.317 39.863 32.3036 39.8229 32.2937C39.7828 32.2839 39.7062 32.2695 39.6528 32.2618C39.5993 32.2541 39.5119 32.2397 39.4584 32.2299C39.405 32.22 39.3065 32.2059 39.2397 32.1985C39.1729 32.191 39.0818 32.1766 39.0372 32.1664C38.9927 32.1562 38.8506 32.1414 38.7214 32.1335C38.5922 32.1256 38.4099 32.1115 38.3164 32.1021C38.2229 32.0928 38.1172 32.0859 38.0815 32.0867C38.0459 32.0876 37.9621 32.0876 37.8952 32.0867C37.8284 32.0858 37.7008 32.0854 37.6118 32.0858C37.5227 32.0862 37.4024 32.0862 37.3445 32.0858C37.0521 32.0837 36.9911 32.0839 36.9314 32.0872C36.8958 32.0892 36.8483 32.0858 36.8259 32.0797C36.8035 32.0736 36.7793 32.0745 36.772 32.0817ZM38.8949 35.8564C38.8819 35.8692 38.7749 35.8903 38.6242 35.9098C38.4746 35.9291 38.3126 35.9791 38.1625 36.0523C38.0912 36.087 37.96 36.1487 37.8709 36.1894C37.7818 36.2301 37.6864 36.2803 37.6588 36.3009C37.6311 36.3215 37.5855 36.3477 37.5572 36.3592C37.4529 36.4018 36.9979 36.8412 36.8946 36.9992C36.8537 37.0618 36.7932 37.1489 36.7602 37.1927C36.646 37.3444 36.4599 37.7695 36.4428 37.9175C36.4373 37.9657 36.4176 38.041 36.3992 38.0848C36.3379 38.2301 36.3146 38.8096 36.3643 38.953C36.381 39.0012 36.3962 39.0729 36.3982 39.1123C36.4001 39.1518 36.4137 39.2306 36.4284 39.2876C36.4431 39.3445 36.4632 39.4234 36.4731 39.4628C36.4829 39.5022 36.5181 39.5919 36.5511 39.6619C36.5841 39.732 36.6205 39.8181 36.632 39.8531C36.667 39.9606 36.7674 40.1497 36.8556 40.2747C36.9018 40.3402 36.9395 40.3996 36.9395 40.4068C36.9395 40.4287 37.0714 40.5938 37.1663 40.6907C37.2153 40.7408 37.2845 40.813 37.3202 40.8512C37.3558 40.8894 37.4424 40.9708 37.5125 41.0321C37.5827 41.0934 37.6774 41.1767 37.7231 41.2172C37.7688 41.2578 37.8462 41.3108 37.8952 41.335C37.9442 41.3592 38.0531 41.4252 38.1372 41.4816C38.2213 41.5381 38.3197 41.5956 38.3559 41.6095C38.3921 41.6233 38.4399 41.647 38.4622 41.662C38.4845 41.6771 38.5355 41.7003 38.5756 41.7137C38.6157 41.7271 38.6813 41.7565 38.7214 41.7791C38.7615 41.8017 38.8077 41.8203 38.824 41.8204C38.8404 41.8205 38.9242 41.8427 39.0103 41.8697C39.0964 41.8967 39.2115 41.9325 39.2661 41.9493C39.3208 41.9661 39.4041 41.9799 39.4514 41.9799C39.4986 41.9799 39.5802 41.9949 39.6326 42.0132C39.7131 42.0413 39.7355 42.0435 39.7751 42.0273C39.8043 42.0154 39.8453 42.0126 39.8833 42.0199C40.0151 42.0453 40.5305 42.0218 40.6652 41.9842C40.6964 41.9755 40.7501 41.9567 40.7846 41.9423C40.8191 41.9279 40.8674 41.9162 40.892 41.9162C40.9459 41.9162 41.042 41.8782 41.1096 41.8303C41.1625 41.7928 41.257 41.7568 41.3026 41.7568C41.3436 41.7568 41.5525 41.6505 41.6452 41.5825C41.6898 41.5497 41.7456 41.5129 41.7693 41.5005C41.8598 41.4533 42.1776 41.1606 42.2855 41.025C42.3164 40.9861 42.3695 40.9225 42.4034 40.8837C42.5141 40.7567 42.6739 40.4151 42.755 40.1319C42.7713 40.075 42.7931 40.0033 42.8036 39.9726C42.8515 39.8317 42.8947 39.2104 42.8665 39.0687C42.8573 39.0229 42.8541 38.9785 42.8594 38.9702C42.8646 38.9618 42.8542 38.9027 42.8362 38.8388C42.8182 38.7749 42.8034 38.7031 42.8034 38.6791C42.8034 38.6551 42.7935 38.6119 42.7814 38.5832C42.7694 38.5544 42.7407 38.4771 42.7178 38.4114C42.6949 38.3457 42.6687 38.2704 42.6595 38.2441C42.6503 38.2178 42.623 38.1331 42.5989 38.0558C42.569 37.9602 42.5294 37.8789 42.4748 37.801C42.4307 37.738 42.3884 37.6705 42.3809 37.651C42.2977 37.4361 41.71 36.7907 41.4633 36.6433C41.4345 36.6261 41.3886 36.5911 41.3614 36.5655C41.3342 36.5399 41.2509 36.4898 41.1762 36.4541C41.1015 36.4183 41.0056 36.3674 40.963 36.3408C40.9205 36.3143 40.877 36.2926 40.8665 36.2926C40.856 36.2926 40.8045 36.2672 40.7522 36.2362C40.6999 36.2052 40.6389 36.176 40.6166 36.1714C40.5943 36.1668 40.5324 36.1424 40.4789 36.117C40.3333 36.048 40.1279 35.9738 40.0821 35.9736C40.0598 35.9736 40.0088 35.9618 39.9687 35.9476C39.8896 35.9195 39.8083 35.9014 39.6447 35.8756C39.52 35.856 38.9112 35.8404 38.8949 35.8564ZM39.912 36.1626C40.0249 36.1792 40.1271 36.1979 40.2541 36.2253C40.2908 36.2333 40.3564 36.2599 40.3999 36.2844C40.6034 36.3995 40.6426 36.4195 40.6652 36.4198C40.6786 36.4199 40.7096 36.4371 40.7342 36.4578C40.7587 36.4786 40.8271 36.5234 40.8862 36.5574C40.9453 36.5913 41.0223 36.6465 41.0573 36.68C41.0924 36.7134 41.1562 36.7612 41.1991 36.786C41.2717 36.8282 41.3543 36.8953 41.4568 36.9954C41.5334 37.0704 41.748 37.3031 41.7856 37.352C41.8058 37.3783 41.8262 37.4034 41.831 37.4077C41.8359 37.4121 41.8597 37.442 41.884 37.4741C41.9083 37.5062 41.9376 37.542 41.9491 37.5537C42.0062 37.6119 42.1425 37.8368 42.173 37.9232C42.1921 37.977 42.2388 38.082 42.2768 38.1565C42.3149 38.231 42.3582 38.3385 42.3731 38.3954C42.3879 38.4524 42.4082 38.5241 42.4181 38.5548C42.4503 38.6545 42.4816 38.8153 42.4894 38.9212C42.5158 39.2805 42.5196 39.4352 42.5053 39.5664C42.4902 39.7057 42.4367 39.9399 42.3965 40.0424C42.3798 40.0852 42.3661 40.1295 42.3661 40.1409C42.3661 40.1523 42.3369 40.2191 42.3013 40.2893C42.2656 40.3595 42.2365 40.4212 42.2365 40.4263C42.2365 40.4315 42.2009 40.4874 42.1575 40.5506C42.114 40.6139 42.0673 40.6871 42.0538 40.7134C41.98 40.8565 41.5573 41.2144 41.3294 41.3269C41.2714 41.3555 41.1826 41.4066 41.1318 41.4404C41.0565 41.4907 41.0253 41.502 40.9617 41.502C40.9138 41.5021 40.8645 41.5137 40.8333 41.5324C40.8031 41.5505 40.7409 41.5657 40.6794 41.5701C40.6226 41.5741 40.547 41.5863 40.5113 41.5973C40.2936 41.6643 39.6761 41.6644 39.4422 41.5975C39.4066 41.5873 39.3446 41.5728 39.3045 41.5653C39.15 41.5365 39.0981 41.5203 38.981 41.4643C38.9144 41.4324 38.8394 41.4064 38.8143 41.4064C38.7892 41.4064 38.7401 41.392 38.7052 41.3745C38.6702 41.357 38.6323 41.3426 38.6208 41.3426C38.6093 41.3426 38.5755 41.3221 38.5457 41.297C38.5159 41.272 38.4357 41.2277 38.3675 41.1986C38.2993 41.1695 38.2034 41.1124 38.1544 41.0717C38.1054 41.031 38.0325 40.9751 37.9924 40.9475C37.7693 40.7938 37.4947 40.5412 37.4262 40.4266C37.4053 40.3916 37.3577 40.3306 37.3205 40.2912C37.2232 40.1882 37.1407 40.0675 37.0502 39.8957C37.0066 39.813 36.9579 39.7291 36.942 39.7092C36.9261 39.6893 36.9037 39.6311 36.8923 39.5799C36.8808 39.5286 36.8503 39.4349 36.8245 39.3716C36.7987 39.3082 36.7775 39.2386 36.7775 39.2168C36.7775 39.1951 36.7635 39.1394 36.7464 39.093C36.6965 38.9582 36.6766 38.5191 36.7122 38.3397C36.7226 38.2871 36.737 38.1939 36.7442 38.1326C36.7513 38.0713 36.7766 37.9637 36.8005 37.8936C36.8243 37.8235 36.8516 37.7411 36.8613 37.7104C36.9199 37.5249 37.0613 37.2972 37.2856 37.0277C37.3566 36.9423 37.5409 36.7798 37.6751 36.6844C37.7115 36.6584 37.7512 36.6275 37.7633 36.6157C37.7753 36.6039 37.8154 36.5791 37.8524 36.5606C37.8893 36.5421 37.9419 36.5102 37.9692 36.4897C38.0356 36.44 38.2254 36.3563 38.2717 36.3563C38.2921 36.3563 38.3488 36.3412 38.3976 36.3227C38.4465 36.3042 38.5193 36.2795 38.5594 36.2679C38.5995 36.2563 38.6578 36.2383 38.689 36.228C38.7462 36.209 38.8228 36.1945 39.0099 36.1673C39.0662 36.1591 39.1169 36.1478 39.1226 36.1423C39.1382 36.1269 39.7819 36.1436 39.912 36.1626ZM33.1085 36.4027C33.0308 36.4344 32.9561 36.4519 32.8987 36.4519C32.8648 36.4519 32.7742 36.4724 32.6974 36.4974C32.6206 36.5225 32.525 36.5525 32.4849 36.5641C32.376 36.5957 32.0099 36.7806 31.9478 36.8353C31.918 36.8617 31.8533 36.9069 31.8039 36.9359C31.5958 37.0581 31.2901 37.3462 31.1509 37.5511C31.1123 37.6081 31.0594 37.6859 31.0336 37.7242C30.8795 37.9515 30.703 38.2561 30.703 38.2944C30.703 38.3113 30.6694 38.3928 30.6283 38.4753C30.5464 38.6398 30.4762 38.8824 30.4762 39.0009C30.4762 39.0425 30.464 39.1043 30.4491 39.1383C30.3944 39.2628 30.3742 39.8232 30.4219 39.8958C30.4295 39.9074 30.4404 39.9957 30.4462 40.0921C30.4583 40.2949 30.4758 40.3903 30.5138 40.4617C30.5288 40.4897 30.541 40.5264 30.541 40.5431C30.541 40.5599 30.5629 40.6257 30.5896 40.6895C30.6163 40.7532 30.6382 40.8127 30.6382 40.8217C30.6382 40.8307 30.6801 40.9067 30.7314 40.9907C30.7826 41.0746 30.8325 41.1612 30.8423 41.1832C30.8879 41.2853 31.1191 41.558 31.1997 41.6049C31.2252 41.6197 31.2621 41.6558 31.2816 41.685C31.301 41.7142 31.3447 41.7584 31.3785 41.7832C31.4124 41.808 31.4437 41.8323 31.4481 41.8372C31.4526 41.842 31.4818 41.8633 31.5129 41.8845C31.5441 41.9057 31.5787 41.9317 31.5898 41.9423C31.6009 41.9529 31.6775 41.9949 31.7599 42.0358C31.8424 42.0766 31.9317 42.1262 31.9584 42.146C32.027 42.1968 32.0658 42.2155 32.2154 42.2696C32.4537 42.3558 32.4213 42.348 32.7238 42.3915C32.775 42.3989 32.8534 42.4179 32.8979 42.4337C32.96 42.4558 33.0219 42.462 33.1627 42.4604C33.2637 42.4592 33.3598 42.4653 33.3761 42.4739C33.3977 42.4852 33.4265 42.4808 33.4812 42.4577C33.5333 42.4358 33.5927 42.4259 33.673 42.4259C33.7484 42.4259 33.8177 42.4153 33.8701 42.3956C33.9819 42.3535 34.0211 42.3405 34.2369 42.2739C34.4127 42.2197 34.6283 42.1042 34.7179 42.0163C34.73 42.0044 34.7673 41.981 34.8009 41.9642C34.8706 41.9292 34.9702 41.8384 35.0284 41.7568C35.0502 41.7262 35.0989 41.6707 35.1365 41.6336C35.2489 41.5228 35.5148 41.1312 35.5451 41.032C35.5531 41.0057 35.5831 40.9197 35.6118 40.8408C35.7713 40.4019 35.8689 39.6366 35.7904 39.44C35.7762 39.4043 35.7764 39.3752 35.7915 39.3173C35.8116 39.2401 35.8105 39.2316 35.7554 39.0542C35.7469 39.0266 35.7446 38.975 35.7504 38.9395C35.7571 38.898 35.7518 38.8478 35.7355 38.7985C35.6939 38.673 35.6571 38.5355 35.6446 38.4592C35.6381 38.4197 35.6134 38.3429 35.5896 38.2884C35.5659 38.2339 35.5464 38.181 35.5464 38.1709C35.5464 38.1508 35.4742 37.9943 35.3992 37.8518C35.3733 37.8025 35.352 37.7533 35.352 37.7424C35.352 37.7315 35.3277 37.6894 35.298 37.6488C35.2684 37.6082 35.2177 37.5278 35.1854 37.4701C35.1531 37.4124 35.099 37.3371 35.0651 37.3028C35.0313 37.2685 34.9855 37.2154 34.9635 37.1847C34.9414 37.154 34.899 37.1049 34.8693 37.0756C34.8385 37.0451 34.8192 37.0126 34.8245 36.9999C34.8295 36.9876 34.8376 36.9682 34.8423 36.9568C34.8527 36.9317 34.8135 36.8864 34.7365 36.8341C34.7053 36.8129 34.6616 36.7771 34.6393 36.7543C34.5777 36.6915 34.4506 36.6107 34.358 36.5754C34.0639 36.4636 34.0438 36.4586 33.7241 36.4182C33.5509 36.3963 33.1491 36.3862 33.1085 36.4027ZM33.878 36.7056C34.0785 36.7195 34.1739 36.7464 34.2371 36.8068C34.2489 36.8181 34.2841 36.8449 34.3153 36.8664C34.3465 36.888 34.3931 36.9254 34.419 36.9495C34.4448 36.9737 34.472 36.9935 34.4795 36.9935C34.487 36.9935 34.5036 37.0168 34.5164 37.0453C34.5292 37.0738 34.6058 37.1644 34.6867 37.2468C34.7675 37.3291 34.8337 37.4079 34.8337 37.422C34.8338 37.4468 34.8912 37.551 34.9137 37.567C34.9379 37.5843 35.0281 37.7254 35.0281 37.746C35.0281 37.7581 35.0499 37.8018 35.0767 37.8433C35.1034 37.8847 35.1253 37.9294 35.1253 37.9425C35.1253 37.9556 35.1431 38.0011 35.165 38.0435C35.1869 38.0859 35.2191 38.1735 35.2366 38.2381C35.2689 38.3574 35.3322 38.5683 35.3851 38.7332C35.4011 38.7832 35.4105 38.8378 35.4061 38.8546C35.4016 38.8714 35.407 38.913 35.418 38.947C35.4843 39.1519 35.48 39.8814 35.4111 40.1207C35.3964 40.1715 35.3844 40.2411 35.3844 40.2753C35.3844 40.3095 35.3656 40.3863 35.3427 40.4458C35.3197 40.5054 35.2954 40.5792 35.2887 40.6098C35.2674 40.7072 34.9859 41.2336 34.9145 41.3097C34.8781 41.3485 34.8368 41.3994 34.8228 41.4226C34.8088 41.4459 34.7599 41.487 34.7141 41.5139C34.6683 41.5409 34.6088 41.5836 34.5818 41.609C34.449 41.7339 34.0049 41.9642 33.8618 41.9825C33.8128 41.9888 33.7362 42.0026 33.6917 42.0133C33.6449 42.0245 33.45 42.0353 33.23 42.039C32.8409 42.0455 32.8046 42.0418 32.6469 41.9799C32.6068 41.9641 32.5412 41.9425 32.5011 41.9319C32.461 41.9212 32.3881 41.8959 32.3391 41.8756C32.2901 41.8553 32.2281 41.8338 32.2014 41.8278C32.1103 41.8074 31.7756 41.6012 31.6344 41.4786C31.6077 41.4554 31.5669 41.4264 31.5437 41.4142C31.5205 41.402 31.4883 41.372 31.4721 41.3474C31.4559 41.3229 31.3832 41.2311 31.3106 41.1435C31.1717 40.9761 31.0594 40.8086 31.0593 40.7688C31.0593 40.7559 31.0461 40.7237 31.03 40.6974C30.9803 40.6161 30.9005 40.4015 30.8641 40.2514C30.845 40.1725 30.8147 40.0702 30.7968 40.024C30.7741 39.9652 30.7675 39.9221 30.7749 39.8806C30.7956 39.7636 30.7992 39.5503 30.7813 39.5059C30.7677 39.4723 30.7682 39.4508 30.7836 39.4183C30.7948 39.3946 30.8062 39.3171 30.8089 39.2461C30.8117 39.1751 30.8243 39.0927 30.8369 39.0629C30.8496 39.0331 30.8654 38.9801 30.872 38.9451C30.8787 38.91 30.9005 38.8312 30.9204 38.7698C30.9404 38.7085 30.9653 38.6225 30.9757 38.5787C31.0181 38.4014 31.277 37.925 31.4035 37.7917C31.4418 37.7514 31.5131 37.6718 31.5619 37.6148C31.6107 37.5579 31.6553 37.5077 31.6611 37.5033C31.6669 37.4989 31.7252 37.4476 31.7907 37.3892C32.0236 37.1817 32.0854 37.1335 32.157 37.1033C32.1968 37.0865 32.2486 37.0597 32.2721 37.0437C32.3331 37.0023 32.7144 36.8342 32.7473 36.8342C32.7625 36.8342 32.7917 36.8278 32.8121 36.8199C32.9788 36.7556 33.1003 36.7339 33.4272 36.7102C33.5133 36.7039 33.5898 36.6929 33.5972 36.6856C33.6045 36.6784 33.6324 36.6772 33.6592 36.6831C33.686 36.689 33.7844 36.6991 33.878 36.7056ZM39.2964 37.2644C39.2786 37.2719 39.2427 37.2786 39.2166 37.2792C39.0979 37.282 38.7963 37.4031 38.6161 37.5204C37.4487 38.2798 37.6808 40.021 39.008 40.4601C39.7998 40.7221 40.6922 40.3397 41.045 39.5872C41.127 39.4124 41.2073 39.1029 41.1972 39.0008C41.1911 38.9388 41.1883 38.9382 41.0459 38.9697C40.7491 39.0354 40.3781 38.9869 40.2359 38.8637C40.2003 38.8329 40.1493 38.7964 40.1226 38.7827C39.9166 38.6774 39.5809 38.3041 39.5801 38.1795C39.58 38.1615 39.561 38.1221 39.538 38.0919C39.4193 37.9363 39.3513 37.5286 39.4161 37.3607C39.4589 37.25 39.4147 37.2144 39.2964 37.2644ZM32.8564 37.8683C31.5823 38.3274 31.4792 40.0468 32.6902 40.64C33.2358 40.9072 33.8532 40.8346 34.3477 40.445C34.701 40.1667 34.8876 39.766 34.8866 39.2876C34.8859 38.9388 34.8674 38.8832 34.7796 38.9658C34.5536 39.1784 34.2191 39.2098 33.9832 39.0406C33.9565 39.0215 33.8946 38.99 33.8456 38.9708C33.7966 38.9516 33.7259 38.9092 33.6886 38.8767C33.6513 38.8442 33.5817 38.7856 33.534 38.7464C33.3684 38.6106 33.2396 38.4176 33.159 38.1844C33.1198 38.0712 33.0897 37.9815 33.064 37.9016C33.0355 37.813 33.0177 37.8102 32.8564 37.8683ZM43.0824 41.5556C43.1156 41.5778 43.1739 41.6064 43.212 41.6192C43.2501 41.632 43.3578 41.6782 43.4514 41.7219C43.8831 41.9235 43.905 41.9318 43.905 41.8949C43.905 41.8718 43.6476 41.7407 43.4514 41.6637C43.3846 41.6376 43.2898 41.5986 43.2408 41.5772C43.1918 41.5558 43.1226 41.5331 43.0869 41.5268L43.0221 41.5152L43.0824 41.5556ZM42.2365 41.5905C42.2365 41.6049 42.2688 41.6289 42.3134 41.6478C42.3557 41.6657 42.4778 41.7221 42.5848 41.7731C42.6917 41.824 42.8156 41.88 42.8601 41.8975C42.9047 41.915 42.9922 41.9559 43.0545 41.9883C43.3858 42.1604 43.7495 42.2671 43.5121 42.1226C43.1534 41.9041 42.2365 41.5217 42.2365 41.5905ZM41.9971 41.8723C42.0039 41.894 42.0714 41.9292 42.3832 42.0742C42.7823 42.2597 42.8196 42.2728 42.8196 42.227C42.8196 42.1892 42.7353 42.1422 42.358 41.9698C42.1549 41.877 41.984 41.8309 41.9971 41.8723ZM41.5075 41.9703C41.5075 41.9811 41.6368 42.0436 41.6591 42.0436C41.6679 42.0436 41.6866 42.0534 41.7006 42.0654C41.7147 42.0774 41.7736 42.1067 41.8315 42.1305C41.8894 42.1543 42.0004 42.2032 42.0781 42.2392C42.1558 42.2752 42.2242 42.3 42.23 42.2943C42.2537 42.271 42.2164 42.2327 42.1358 42.1975C42.0887 42.177 41.9955 42.1345 41.9287 42.1031C41.8619 42.0718 41.7781 42.0374 41.7424 42.0267C41.7068 42.0161 41.6631 42.0016 41.6452 41.9945C41.598 41.9759 41.5075 41.9599 41.5075 41.9703ZM31.27 42.3125C31.27 42.3381 31.3178 42.3659 31.3445 42.3558C31.3658 42.3478 31.367 42.3414 31.3508 42.3222C31.3292 42.2966 31.27 42.2895 31.27 42.3125ZM31.4562 42.3941C31.4618 42.4028 31.4822 42.4099 31.5018 42.4098C31.5306 42.4096 31.5327 42.4066 31.5129 42.3941C31.481 42.3738 31.4435 42.3738 31.4562 42.3941ZM30.528 42.4438C30.5374 42.4723 30.6253 42.5131 30.7986 42.5691C30.8752 42.5939 31.0399 42.6568 31.1647 42.7088C31.2894 42.7608 31.4315 42.8185 31.4805 42.8369C31.5295 42.8554 31.6298 42.8937 31.7033 42.9222C31.8013 42.9601 31.8418 42.9692 31.855 42.9562C31.8831 42.9286 31.8618 42.9109 31.7522 42.8709C31.6963 42.8505 31.6288 42.8213 31.602 42.8061C31.5377 42.7693 31.3044 42.6707 31.1728 42.6246C31.1149 42.6043 31.0274 42.572 30.9784 42.5529C30.7938 42.481 30.7578 42.4689 30.6868 42.4548C30.6467 42.4469 30.5929 42.4362 30.5673 42.4311C30.5321 42.424 30.5225 42.4271 30.528 42.4438ZM31.683 42.482C31.774 42.5242 31.7883 42.5276 31.7883 42.5073C31.7883 42.4899 31.6686 42.4414 31.6301 42.4432C31.6146 42.4439 31.6385 42.4614 31.683 42.482ZM30.4438 42.7982C30.4438 42.8191 30.4934 42.8414 30.6604 42.8952C30.7038 42.9093 30.7535 42.9282 30.771 42.9374C30.7884 42.9466 30.8368 42.9636 30.8784 42.9751C30.92 42.9867 31.0379 43.0325 31.1404 43.077C31.3208 43.1554 31.3834 43.173 31.3834 43.1456C31.3834 43.108 31.16 42.9818 31.027 42.9443C31.0047 42.938 30.9099 42.9057 30.8164 42.8725C30.5216 42.7678 30.4438 42.7523 30.4438 42.7982ZM39.8391 43.1428C39.8257 43.1513 39.7951 43.1584 39.771 43.1585C39.747 43.1586 39.685 43.1702 39.6333 43.1842C39.5817 43.1981 39.5102 43.2157 39.4746 43.2232C39.3153 43.2567 38.825 43.4424 38.446 43.6128C38.3127 43.6727 38.128 43.7414 37.9033 43.8146C37.8232 43.8407 37.7247 43.8729 37.6847 43.8861C37.6446 43.8993 37.5753 43.9174 37.5308 43.9262C37.4365 43.9448 37.3431 43.9644 37.2351 43.9882C36.9344 44.0545 35.9599 44.054 35.6274 43.9874C35.5422 43.9704 35.4542 43.9565 35.2224 43.9236C35.076 43.9028 34.9385 43.8802 34.8337 43.8597C34.3269 43.7605 34.111 43.8487 34.2435 44.1007C34.2575 44.1273 34.2723 44.1893 34.2764 44.2386C34.2844 44.3333 34.4232 44.6168 34.4987 44.6924C34.5181 44.712 34.5587 44.7588 34.5887 44.7964C34.6693 44.8975 35.0259 45.1668 35.1901 45.2505C35.2301 45.2709 35.2848 45.299 35.3115 45.313C35.5107 45.417 36.0395 45.628 36.1008 45.628C36.1198 45.628 36.1578 45.6347 36.1851 45.6429C36.2125 45.6512 36.2859 45.6696 36.3483 45.684C36.4106 45.6984 36.4908 45.7173 36.5264 45.726C36.8137 45.7961 37.5532 45.8124 37.9195 45.7568C38.1168 45.7268 38.209 45.7104 38.284 45.692C38.3733 45.6701 38.4722 45.6483 38.5634 45.6306C38.6013 45.6232 38.6605 45.6053 38.695 45.5908C38.7295 45.5762 38.7683 45.5643 38.7813 45.5643C38.7943 45.5643 38.8579 45.5392 38.9228 45.5086C38.9876 45.4779 39.0454 45.4528 39.0511 45.4528C39.0796 45.4528 39.4237 45.2779 39.5232 45.2128C39.5856 45.1721 39.6658 45.1239 39.7014 45.1056C39.7645 45.0734 39.8778 44.9812 40.0725 44.8036C40.6946 44.2362 40.8113 43.3925 40.2959 43.1878C40.1931 43.1469 39.881 43.1162 39.8391 43.1428ZM30.4963 43.2105C30.5061 43.2403 30.6067 43.2846 30.6666 43.2854C30.7392 43.2865 30.7324 43.267 30.6459 43.2257C30.5645 43.1867 30.4858 43.1788 30.4963 43.2105ZM39.7949 43.3698C39.8123 43.4181 39.5835 43.8011 39.4533 43.9418C39.3469 44.0567 39.3296 44.0735 39.2257 44.1624C39.1198 44.2529 39.0307 44.3156 38.8517 44.4253C38.6489 44.5495 38.5675 44.5925 38.5353 44.5925C38.5213 44.5925 38.4665 44.614 38.4136 44.6403C38.3606 44.6666 38.3064 44.6881 38.2931 44.6881C38.2798 44.6881 38.245 44.6985 38.2157 44.7112C37.703 44.9332 36.734 44.9148 36.0243 44.6694C35.9976 44.6601 35.9429 44.6417 35.9028 44.6285C35.8627 44.6153 35.7921 44.5874 35.7459 44.5666C35.6996 44.5458 35.6539 44.5288 35.6442 44.5288C35.6175 44.5288 35.4182 44.4273 35.2368 44.3214C34.8867 44.1169 34.8288 44.0164 35.0951 44.0751C35.7056 44.2098 36.5995 44.2754 36.9476 44.211C37.0011 44.2012 37.1104 44.1861 37.1906 44.1776C37.3462 44.1612 37.4539 44.1434 37.5713 44.1147C37.6114 44.1049 37.6733 44.0914 37.7089 44.0847C37.7446 44.078 37.7971 44.0605 37.8256 44.0458C37.8541 44.0311 37.8927 44.019 37.9113 44.019C37.9299 44.019 37.9737 44.0047 38.0086 43.9872C38.0435 43.9696 38.0815 43.9553 38.093 43.9553C38.113 43.9553 38.303 43.8787 38.6728 43.7215C39.0666 43.5541 39.285 43.4715 39.4017 43.4457C39.4547 43.434 39.5843 43.3968 39.6771 43.3665C39.7389 43.3464 39.787 43.3477 39.7949 43.3698ZM37.6493 52.3601C37.6862 53.6076 37.1978 54.6584 36.1863 55.5076C35.7657 55.8608 35.7664 55.8643 36.1026 55.0905C36.2567 54.7359 36.436 54.3167 36.5009 54.159C36.6992 53.6777 37.2104 52.7487 37.5425 52.2663C37.6297 52.1395 37.6431 52.1513 37.6493 52.3601ZM40.8588 54.6688C40.8794 54.7157 40.9165 54.8767 40.9413 55.0272C41.0025 55.3993 41.0157 55.4578 41.0608 55.5574C41.0854 55.6116 41.1026 55.6786 41.1026 55.7204C41.1026 55.7595 41.1098 55.822 41.1187 55.8594C41.1952 56.1827 41.2261 56.2909 41.2619 56.3619C41.2784 56.3945 41.301 56.457 41.3122 56.5008C41.3357 56.5929 41.3858 56.725 41.429 56.8082C41.4455 56.84 41.4589 56.8782 41.4589 56.8932C41.4589 56.9237 41.4892 56.9956 41.5865 57.1962C41.6233 57.272 41.6533 57.3387 41.6533 57.3445C41.6533 57.3503 41.6747 57.3814 41.7007 57.4138C41.7268 57.4461 41.7602 57.5096 41.775 57.5548C41.7921 57.6072 41.828 57.6638 41.8738 57.7109C41.971 57.8106 42.0421 57.9093 42.0421 57.9444C42.0421 57.9603 42.0544 57.9987 42.0695 58.0298C42.1121 58.1177 42.0838 58.1214 41.9044 58.0516C41.4192 57.8629 40.6996 57.662 40.2521 57.5904C39.9743 57.5459 39.9737 57.5455 40.0258 57.435C40.0478 57.3882 40.0659 57.3413 40.0659 57.3307C40.0659 57.3202 40.0889 57.2761 40.117 57.2328C40.1452 57.1894 40.1809 57.1217 40.1963 57.0823C40.2117 57.0429 40.2543 56.9395 40.2909 56.8526C40.3275 56.7658 40.3574 56.6788 40.3574 56.6594C40.3574 56.64 40.3766 56.5829 40.4001 56.5324C40.4428 56.4408 40.4616 56.3819 40.4865 56.2619C40.4938 56.2268 40.5162 56.1551 40.5363 56.1025C40.5564 56.05 40.5794 55.9747 40.5874 55.9353C40.5954 55.8958 40.6093 55.8277 40.6184 55.7839C40.6275 55.7401 40.6401 55.6505 40.6464 55.5848C40.6526 55.5191 40.6677 55.4479 40.6798 55.4267C40.7084 55.3765 40.7295 55.2409 40.7456 55.0033C40.7588 54.809 40.7739 54.729 40.8097 54.6632C40.8207 54.643 40.826 54.617 40.8215 54.6054C40.8169 54.5938 40.8182 54.5793 40.8243 54.5732C40.8303 54.5672 40.8374 54.579 40.84 54.5996C40.8426 54.6201 40.8511 54.6513 40.8588 54.6688Z" fill="black"/>
<path d="M42.106 57.1771C42.0721 57.1108 42.042 56.8872 42.0622 56.8518C42.0949 56.7943 42.3123 56.9149 42.3674 57.0212C42.3853 57.0558 42.4353 57.127 42.4783 57.1796C42.6105 57.3409 42.6637 57.5577 42.59 57.6348C42.478 57.7521 42.2437 57.5702 42.1555 57.2973C42.1441 57.2623 42.1219 57.2082 42.106 57.1771Z" fill="#AC39B0"/>
<path d="M41.5085 54.9318C41.417 54.9318 41.3554 54.817 41.3938 54.7178C41.4159 54.6607 41.4669 54.6656 41.5335 54.7311C41.6178 54.8139 41.603 54.9318 41.5085 54.9318Z" fill="#AC39B0"/>
<path d="M31.1889 51.8652C31.0577 51.8179 31.0691 51.7201 31.2086 51.6962C31.322 51.6767 31.6075 51.6976 31.7073 51.7327C31.8754 51.7917 31.8871 51.798 31.9105 51.8427C31.9841 51.9825 31.8523 52.0865 31.668 52.0342C31.5741 52.0076 31.4238 51.9566 31.3347 51.9211C31.2857 51.9016 31.2201 51.8765 31.1889 51.8652Z" fill="#AC39B0"/>
<path d="M28.0987 51.5376C28.119 51.5371 28.1611 51.5272 28.1923 51.5156C28.5474 51.3834 28.7908 51.6328 28.4902 51.8207C28.2483 51.972 27.6577 52.0004 27.6577 51.8608C27.6577 51.7891 27.9975 51.54 28.0987 51.5376Z" fill="#AC39B0"/>
<path d="M25.3036 52.9085C25.0328 52.9085 25.071 52.6936 25.3673 52.5506C25.5203 52.4767 25.6099 52.4752 25.6795 52.5452C25.8345 52.7011 25.6199 52.9085 25.3036 52.9085Z" fill="#AC39B0"/>
<path d="M36.397 45.1424C36.2349 45.2061 35.9621 45.2698 35.8459 45.2937C36.0458 45.3654 36.5299 45.5167 36.867 45.5486C37.2884 45.5884 37.6693 45.6123 38.5769 45.3813C39.303 45.1965 39.8248 44.8105 39.995 44.6405H39.1117L39.0631 44.5051C38.8443 44.6273 38.3208 44.8938 37.9772 44.9831C37.6336 45.0723 37.0399 45.0468 36.786 45.0229C36.7238 45.0362 36.5591 45.0786 36.397 45.1424Z" fill="#A6609A"/>
<path d="M45.765 39.6807C45.6111 39.1072 45.4247 38.8364 44.9304 38.1354C44.7197 37.8779 44.2286 37.3086 43.9498 37.092C43.6014 36.8211 43.18 36.2715 43.3339 35.937C43.4879 35.6024 44.1281 35.6741 44.7926 36.2237C45.4571 36.7734 46.0081 37.5779 46.2918 38.5656C46.5754 39.5533 46.5673 41.2658 46.2918 41.3057C46.0162 41.3455 45.919 40.2542 45.765 39.6807Z" fill="#F2E8FF"/>
<defs>
<filter id="filter0_f_3683_129526" x="-170.945" y="-160.394" width="406.305" height="404.54" filterUnits="userSpaceOnUse" color-interpolation-filters="sRGB">
<feFlood flood-opacity="0" result="BackgroundImageFix"/>
<feBlend mode="normal" in="SourceGraphic" in2="BackgroundImageFix" result="shape"/>
<feGaussianBlur stdDeviation="100" result="effect1_foregroundBlur_3683_129526"/>
</filter>
<filter id="filter1_f_3683_129526" x="-160.783" y="-161.302" width="406.305" height="404.54" filterUnits="userSpaceOnUse" color-interpolation-filters="sRGB">
<feFlood flood-opacity="0" result="BackgroundImageFix"/>
<feBlend mode="normal" in="SourceGraphic" in2="BackgroundImageFix" result="shape"/>
<feGaussianBlur stdDeviation="100" result="effect1_foregroundBlur_3683_129526"/>
</filter>
<linearGradient id="paint0_linear_3683_129526" x1="36.4957" y1="10.7" x2="36.4957" y2="56.3013" gradientUnits="userSpaceOnUse">
<stop stop-color="#AFAFC1" stop-opacity="0.7"/>
<stop offset="1" stop-color="#AFAFC1" stop-opacity="0"/>
</linearGradient>
<linearGradient id="paint1_linear_3683_129526" x1="35.6109" y1="32.4375" x2="35.6109" y2="59.2809" gradientUnits="userSpaceOnUse">
<stop stop-color="#BB89FF"/>
<stop offset="1" stop-color="#887AFF"/>
</linearGradient>
<linearGradient id="paint2_linear_3683_129526" x1="35.6109" y1="32.4375" x2="35.6109" y2="59.2809" gradientUnits="userSpaceOnUse">
<stop stop-color="#BB89FF"/>
<stop offset="1" stop-color="#887AFF"/>
</linearGradient>
</defs>
</svg>
