<svg width="50" height="51" viewBox="0 0 50 51" fill="none" xmlns="http://www.w3.org/2000/svg">
<mask id="mask0_1_30" style="mask-type:alpha" maskUnits="userSpaceOnUse" x="11" y="21" width="26" height="29">
<path d="M18.2761 24.7165L20.221 23.1871L22.0848 22.3428L24.2728 21.7374H27.2387L30.545 22.6933L33.2192 24.5412L35.1479 26.7875L35.7962 30.6427L34.7589 34.5777L32.3603 37.031L29.7509 38.3533L28.8757 38.9746L30.3181 39.2454L31.5985 40.1375L32.0685 42.0173L32.2792 45.2035L33.0085 47.1152L32.8303 47.9914L32.0685 48.3259L30.853 47.8002L30.0264 46.5258L29.4591 44.9167L29.0216 43.1962L28.7622 44.5025L28.1626 46.5258L26.8498 48.1029L25.0994 48.4693L23.4786 48.1029L22.9762 47.1152L23.3814 46.2231L24.0783 45.3787L25.2939 44.2954L26.0394 42.6546L25.8773 41.1571L24.9211 42.6546L24.2404 44.1999L23.7866 45.3787L22.8304 46.6373L22.7493 47.8958L21.4041 48.5808L20.0265 48.2304L19.4268 47.1152L20.0265 45.6336L21.4041 43.4989L22.2469 41.1571L20.9665 41.7147L18.9892 41.3323L17.3361 41.0296L15.0184 42.0173L12.798 42.3678L11.939 41.8262L11.8256 40.4721L13.2356 38.9746L15.7478 38.0984L18.6813 38.3533L20.6748 38.64L20.3831 38.2258L18.9892 37.27L17.3361 35.2627L16.1043 32.8412L15.7478 30.5472L16.1043 28.2531L16.9795 26.4051L18.2761 24.7165Z" fill="url(#paint0_linear_1_30)" stroke="black"/>
</mask>
<g mask="url(#mask0_1_30)">
<path d="M18.2761 24.7165L20.221 23.1871L22.0848 22.3428L24.2728 21.7374H27.2387L30.545 22.6933L33.2192 24.5412L35.1479 26.7875L35.7962 30.6427L34.7589 34.5777L32.3603 37.031L29.7509 38.3533L28.8757 38.9746L30.3181 39.2454L31.5985 40.1375L32.0685 42.0173L32.2792 45.2035L33.0085 47.1152L32.8303 47.9914L32.0685 48.3259L30.853 47.8002L30.0264 46.5258L29.4591 44.9167L29.0216 43.1962L28.7622 44.5025L28.1626 46.5258L26.8498 48.1029L25.0994 48.4693L23.4786 48.1029L22.9762 47.1152L23.3814 46.2231L24.0783 45.3787L25.2939 44.2954L26.0394 42.6546L25.8773 41.1571L24.9211 42.6546L24.2404 44.1999L23.7866 45.3787L22.8304 46.6373L22.7493 47.8958L21.4041 48.5808L20.0265 48.2304L19.4268 47.1152L20.0265 45.6336L21.4041 43.4989L22.2469 41.1571L20.9665 41.7147L18.9892 41.3323L17.3361 41.0296L15.0184 42.0173L12.798 42.3678L11.939 41.8262L11.8256 40.4721L13.2356 38.9746L15.7478 38.0984L18.6813 38.3533L20.6748 38.64L20.3831 38.2258L18.9892 37.27L17.3361 35.2627L16.1043 32.8412L15.7478 30.5472L16.1043 28.2531L16.9795 26.4051L18.2761 24.7165Z" fill="url(#paint1_linear_1_30)"/>
<g filter="url(#filter0_f_1_30)">
<ellipse cx="20.4074" cy="31.1764" rx="3.15232" ry="2.27014" fill="#D3A2FF"/>
</g>
<g filter="url(#filter1_f_1_30)">
<ellipse cx="30.5693" cy="30.2684" rx="3.15232" ry="2.27014" fill="#D3A2FF"/>
</g>
</g>
<path d="M19.0865 27.5362L19.751 26.676L20.6262 26.1025L21.5176 25.8157L22.5386 25.9909L23.1383 26.5804L23.5921 27.4088L23.8676 28.7151L23.5111 30.4356L22.5386 31.3278L21.5176 31.5508L20.383 31.3278L19.5403 30.818L18.9244 29.7347L18.7623 28.7151L19.0865 27.5362Z" fill="#FFF0B4"/>
<path d="M25.1804 26.437L26.2663 25.5449L27.1901 25.29L28.4705 25.4174L29.4105 25.9272L30.0912 26.437L30.6747 27.5522L30.8854 28.8426L30.464 30.0852L29.5402 30.8817L28.3408 31.1525L27.1901 31.0091L26.1853 30.4834L25.3749 29.7506L24.7428 28.5877V27.3929L25.1804 26.437Z" fill="#FFF0B4"/>
<path d="M24.2404 34.3228L22.8952 33.6218V33.3032H23.4624L24.7752 33.4147L25.7315 33.3032L26.5256 33.0324L27.4494 32.6819L28.2112 32.5385V33.0324L27.5305 34.0838L26.1853 34.5299L24.2404 34.3228Z" fill="white"/>
<ellipse cx="0.868263" cy="0.578214" rx="0.868263" ry="0.578214" transform="matrix(0.971809 -0.235769 0.243542 0.96989 12.715 41.6621)" fill="#9A76AC"/>
<ellipse cx="0.989667" cy="0.505948" rx="0.989667" ry="0.505948" transform="matrix(0.971809 -0.235769 0.243542 0.96989 15.3264 40.7222)" fill="#9A76AC"/>
<ellipse cx="0.924874" cy="0.481017" rx="0.924874" ry="0.481017" transform="matrix(0.983867 0.1789 -0.184953 0.982747 18.924 40.5206)" fill="#9A76AC"/>
<ellipse cx="0.709586" cy="0.487756" rx="0.709586" ry="0.487756" transform="matrix(0.405927 0.913906 -0.918955 0.394362 29.9828 43.2599)" fill="#9A76AC"/>
<ellipse cx="0.982515" cy="0.517437" rx="0.982515" ry="0.517437" transform="matrix(0.405927 0.913906 -0.918955 0.394362 30.7394 45.4786)" fill="#9A76AC"/>
<ellipse cx="0.888165" cy="1.21528" rx="0.888165" ry="1.21528" transform="matrix(0.889607 -0.456727 0.469245 0.883068 20.8367 26.7542)" fill="white"/>
<ellipse cx="0.981134" cy="1.30672" rx="0.981134" ry="1.30672" transform="matrix(0.770825 -0.637047 0.650021 0.759916 27.1254 26.779)" fill="white"/>
<path d="M3.8 0L0 3.8L3.8 11.4L9.5 13.3L16.15 19.95L19.95 16.15L13.3 9.5L11.4 3.8L3.8 0ZM38.1262 0.0185547C34.975 -0.106044 31.7863 1.03093 29.3795 3.43633C26.271 6.54485 25.9927 10.2836 27.5389 13.801L5.46992 35.8699C3.24312 38.0967 3.24312 41.7033 5.46992 43.9301C7.69672 46.1569 11.3033 46.1569 13.5301 43.9301L35.599 21.8611C39.1162 23.4068 42.8554 23.1264 45.9637 20.0168C49.1728 16.8077 50.1241 12.2073 48.8359 8.16406L41.7963 15.2074L35.7141 13.6859L34.1926 7.60371L41.2359 0.564062C40.2247 0.242487 39.1766 0.0600875 38.1262 0.0185547ZM35.1908 27.8098L28.0398 34.9607L37.1947 44.1193C39.1707 46.0953 42.3753 46.0953 44.3494 44.1193C46.3254 42.1433 46.3254 38.9406 44.3494 36.9646L35.1908 27.8098ZM9.5 38C10.5488 38 11.4 38.8512 11.4 39.9C11.4 40.9488 10.5488 41.8 9.5 41.8C8.4512 41.8 7.6 40.9488 7.6 39.9C7.6 38.8512 8.4512 38 9.5 38Z" fill="url(#paint2_linear_1_30)"/>
<path fill-rule="evenodd" clip-rule="evenodd" d="M24.972 21.3818C24.9647 21.389 24.8919 21.4002 24.8102 21.4067C24.7285 21.4133 24.5815 21.4259 24.4835 21.4348C24.3855 21.4437 24.2288 21.4569 24.1352 21.464C24.0417 21.4712 23.9323 21.4889 23.8922 21.5034C23.8521 21.518 23.7756 21.5301 23.7221 21.5303C23.6687 21.5306 23.5923 21.5419 23.5525 21.5556C23.4522 21.5899 23.353 21.6108 23.22 21.6256C23.1012 21.6388 23.0361 21.6539 22.9284 21.6933C22.8138 21.7351 22.7487 21.7533 22.714 21.7533C22.6953 21.7533 22.646 21.7677 22.6044 21.7852C22.5629 21.8027 22.5111 21.8171 22.4894 21.8171C22.4678 21.8171 22.4119 21.8375 22.3653 21.8624C22.2861 21.9048 22.2542 21.9157 22.0739 21.9623C22.0361 21.9721 21.9686 21.9926 21.9241 22.0079C21.8795 22.0231 21.8139 22.0446 21.7783 22.0556C21.7427 22.0665 21.6807 22.0952 21.6406 22.1193C21.6005 22.1434 21.5313 22.172 21.4867 22.1828C21.4086 22.2017 20.818 22.4783 20.7317 22.5363C20.6925 22.5627 20.5627 22.6312 20.2903 22.7692C20.2293 22.8002 20.1381 22.8627 20.0879 22.9081C20.0376 22.9535 19.9381 23.0272 19.8668 23.0719C19.7956 23.1166 19.6941 23.1804 19.6413 23.2138C19.5885 23.2471 19.4711 23.3354 19.3803 23.41C19.2896 23.4845 19.1547 23.5922 19.0807 23.6491C19.0066 23.7061 18.8979 23.7993 18.839 23.8562C18.7801 23.9132 18.6957 23.9895 18.6514 24.0259C18.6072 24.0622 18.5498 24.1197 18.524 24.1537C18.4982 24.1877 18.4435 24.2403 18.4025 24.2705C18.3615 24.3008 18.3025 24.3541 18.2713 24.3891C18.2401 24.424 18.1593 24.5102 18.0918 24.5806C18.0242 24.6509 17.9515 24.7336 17.9301 24.7643C17.9088 24.7949 17.8432 24.8668 17.7844 24.9241C17.7256 24.9813 17.6312 25.096 17.5745 25.179C17.5178 25.2619 17.4442 25.3556 17.4109 25.3871C17.3777 25.4187 17.3052 25.519 17.25 25.6102C17.1947 25.7013 17.1445 25.7795 17.1383 25.7838C17.1148 25.8006 17.024 25.9419 17.0239 25.9619C17.0238 25.9914 16.9688 26.077 16.9127 26.1346C16.8867 26.1614 16.8567 26.2063 16.8461 26.2345C16.8355 26.2626 16.8161 26.3036 16.803 26.3255C16.7898 26.3474 16.7638 26.3976 16.7451 26.437C16.7264 26.4764 16.6839 26.5445 16.6506 26.5883C16.6174 26.6322 16.5712 26.7053 16.548 26.751C16.5247 26.7966 16.4836 26.8683 16.4564 26.9103C16.4293 26.9523 16.3955 27.0259 16.3813 27.0739C16.367 27.1218 16.309 27.2536 16.2523 27.3666C16.1956 27.4796 16.1492 27.589 16.1492 27.6095C16.1492 27.6301 16.1284 27.6919 16.1029 27.7469C16.0254 27.9141 15.9408 28.159 15.8751 28.4063C15.8655 28.4424 15.8577 28.5012 15.8577 28.537C15.8577 28.5728 15.8388 28.6509 15.8159 28.7104C15.7929 28.7699 15.7678 28.8688 15.7602 28.9302C15.7526 28.9915 15.7383 29.0775 15.7285 29.1213C15.7187 29.1652 15.7036 29.2834 15.695 29.3842C15.6694 29.6814 15.6535 29.8208 15.6424 29.8462C15.6108 29.9189 15.5985 30.8423 15.6278 30.9375C15.6387 30.9725 15.6512 31.1076 15.6557 31.2378C15.6602 31.3679 15.671 31.4875 15.6798 31.5035C15.6885 31.5196 15.6957 31.5746 15.6957 31.6256C15.6957 31.6788 15.7095 31.7558 15.7281 31.8057C15.7485 31.8605 15.7605 31.9325 15.7605 31.9998C15.7605 32.1139 15.7831 32.217 15.8421 32.3712C15.8622 32.4238 15.8835 32.517 15.8894 32.5783C15.8954 32.6397 15.9116 32.7185 15.9256 32.7536C15.9396 32.7886 15.9596 32.8496 15.9701 32.889C15.9806 32.9284 16.0009 32.9929 16.015 33.0324C16.0292 33.0718 16.0571 33.1506 16.0771 33.2076C16.097 33.2646 16.1422 33.3757 16.1775 33.4545C16.2128 33.5334 16.251 33.6266 16.2624 33.6616C16.3322 33.8765 16.7362 34.6878 16.8549 34.8515C16.8847 34.8926 16.9315 34.9698 16.9588 35.023C17.0089 35.1206 17.1175 35.2957 17.137 35.3105C17.1553 35.3242 17.2448 35.459 17.2799 35.5255C17.2984 35.5606 17.3331 35.6108 17.357 35.6371C17.3808 35.6633 17.4186 35.713 17.4409 35.7473C17.4632 35.7817 17.4958 35.8247 17.5133 35.8429C17.5308 35.8611 17.5586 35.9017 17.5751 35.9331C17.5915 35.9645 17.6411 36.0264 17.6853 36.0708C17.7294 36.1151 17.7969 36.197 17.8353 36.2526C17.8736 36.3084 17.931 36.379 17.9628 36.4097C17.9946 36.4404 18.0459 36.4977 18.0768 36.5371C18.1077 36.5766 18.1516 36.6268 18.1744 36.6487C18.1972 36.6706 18.2336 36.7136 18.2553 36.7442C18.277 36.7749 18.3124 36.8139 18.334 36.8309C18.3556 36.8479 18.3958 36.8866 18.4235 36.917C18.5248 37.0282 18.6862 37.1839 18.7566 37.2381C18.7963 37.2688 18.8579 37.3248 18.8933 37.3627C18.9288 37.4005 18.9887 37.4493 19.0264 37.471C19.0641 37.4928 19.1192 37.5374 19.1488 37.5702C19.1785 37.6031 19.2647 37.6759 19.3404 37.7322C19.4161 37.7884 19.4963 37.8509 19.5186 37.8712C19.5408 37.8914 19.6101 37.9413 19.6725 37.9821C19.7348 38.0228 19.8114 38.0753 19.8425 38.0987C19.8737 38.1222 19.9576 38.1722 20.0288 38.21C20.4045 38.409 20.4816 38.5094 20.2022 38.436C20.1336 38.4179 20.041 38.3952 19.9964 38.3855C19.9519 38.3758 19.8681 38.354 19.8102 38.3369C19.7522 38.3198 19.6502 38.2909 19.5834 38.2726C19.5165 38.2543 19.4254 38.2285 19.3809 38.2153C19.2975 38.1904 19.1737 38.169 18.9759 38.1452C18.7763 38.1211 18.6696 38.1028 18.6114 38.0827C18.5803 38.0719 18.4964 38.0573 18.4252 38.0503C18.3539 38.0432 18.2628 38.0291 18.2227 38.0188C18.1826 38.0086 18.106 37.9947 18.0526 37.9881C17.9991 37.9815 17.9445 37.9714 17.9311 37.9656C17.9177 37.9599 17.7865 37.9516 17.6395 37.9471C17.4925 37.9427 17.2884 37.9312 17.186 37.9215C17.0251 37.9063 16.8712 37.9006 16.7688 37.9062C16.7533 37.907 16.664 37.9001 16.5704 37.8908C16.374 37.8712 16.3829 37.8712 16.1168 37.8913C15.4375 37.9426 15.3134 37.9556 15.2016 37.9868C15.1261 38.0079 15.0338 38.0306 14.9424 38.0505C14.7713 38.0879 14.7277 38.0984 14.6752 38.1151C14.644 38.1251 14.593 38.1391 14.5618 38.1463C14.4582 38.1702 14.1783 38.2715 14.0798 38.3207C14.0264 38.3474 13.9783 38.3692 13.973 38.3692C13.9676 38.3692 13.9138 38.3915 13.8535 38.4187C13.7931 38.4459 13.7073 38.4823 13.6627 38.4995C13.5581 38.5398 13.4649 38.5933 13.279 38.7197C13.221 38.7591 13.1098 38.8331 13.0319 38.884C12.954 38.935 12.8599 39.0038 12.8229 39.0369C12.7859 39.07 12.7122 39.1242 12.6591 39.1572C12.5337 39.2354 12.1797 39.5866 12.0955 39.7164C12.0731 39.7509 12.0203 39.8148 11.9781 39.8584C11.8436 39.9974 11.6443 40.3187 11.5875 40.488C11.5743 40.5274 11.5438 40.5991 11.5197 40.6473C11.415 40.8571 11.4162 41.3173 11.5221 41.57C11.5457 41.6263 11.565 41.6857 11.565 41.7019C11.565 41.8236 11.814 42.1544 11.9608 42.2279C11.997 42.246 12.0611 42.2912 12.1031 42.3282C12.391 42.5823 13.3354 42.7835 13.5372 42.6338C13.5783 42.6034 13.555 42.5909 13.4574 42.5909C13.3215 42.5909 13.1901 42.5505 13.0871 42.4771C12.9666 42.3912 12.9016 42.273 12.8784 42.0977C12.8691 42.0271 12.8684 42.0265 12.7623 41.9862C12.7036 41.9639 12.638 41.9345 12.6165 41.9208C12.595 41.9072 12.5373 41.8776 12.4883 41.855C12.3981 41.8136 12.3288 41.7459 12.1494 41.5242C12.0465 41.3971 12.0476 41.4015 12.0564 41.1404C12.0667 40.8348 12.0976 40.7024 12.1993 40.5284C12.2268 40.4813 12.3073 40.3333 12.3679 40.2187C12.4383 40.0852 12.5694 39.938 12.8513 39.6755C12.9125 39.6186 12.9812 39.5479 13.004 39.5186C13.0268 39.4892 13.0971 39.4309 13.1602 39.389C13.2233 39.3471 13.2852 39.3007 13.2977 39.2859C13.3103 39.271 13.3574 39.2407 13.4025 39.2185C13.4477 39.1963 13.5083 39.1606 13.5373 39.1392C13.5663 39.1178 13.6392 39.0782 13.6993 39.0511C13.7594 39.0241 13.8523 38.9741 13.9059 38.94C14.0125 38.8721 14.2204 38.7773 14.335 38.7444C14.3751 38.7329 14.4443 38.7089 14.4889 38.6911C14.8017 38.5658 15.0107 38.5079 15.2988 38.4667C15.3523 38.459 15.4361 38.4451 15.4851 38.4357C15.8098 38.3737 16.5916 38.3322 16.9187 38.3596C16.9721 38.3641 17.107 38.3715 17.2184 38.3761C17.3297 38.3807 17.4682 38.3916 17.5261 38.4003C17.7337 38.4316 18.0228 38.4649 18.166 38.4742C18.2462 38.4793 18.3359 38.4908 18.3654 38.4996C18.3948 38.5084 18.4786 38.5177 18.5516 38.5202C18.6246 38.5227 18.7135 38.5325 18.7491 38.5419C18.9016 38.582 19.2415 38.6543 19.3161 38.6624C19.3606 38.6673 19.4408 38.6789 19.4943 38.6883C19.5477 38.6977 19.6425 38.7115 19.7049 38.7189C19.7672 38.7262 19.8491 38.7434 19.8867 38.757C20.0281 38.808 20.2878 38.8586 20.4709 38.8709C20.9162 38.9006 21.0246 38.5916 20.6606 38.3304C20.6249 38.3048 20.5666 38.2596 20.531 38.2299C20.4954 38.2001 20.4042 38.1322 20.3285 38.0788C20.2528 38.0254 20.1799 37.9696 20.1665 37.9549C20.1532 37.9402 20.0876 37.89 20.0209 37.8433C19.9542 37.7966 19.8896 37.7486 19.8774 37.7366C19.8651 37.7246 19.7958 37.6708 19.7233 37.6171C19.6508 37.5634 19.5546 37.4857 19.5095 37.4445C19.4645 37.4033 19.4055 37.3583 19.3786 37.3446C19.3516 37.3309 19.3087 37.2923 19.2832 37.259C19.2577 37.2256 19.2042 37.1696 19.1642 37.1345C19.0489 37.0334 18.7969 36.7813 18.6962 36.6664C18.6454 36.6084 18.5416 36.4929 18.4655 36.4097C18.3894 36.3265 18.3082 36.2333 18.2852 36.2026C18.2621 36.1719 18.2054 36.1074 18.1591 36.0592C18.1128 36.011 18.0531 35.9314 18.0263 35.8822C17.9995 35.8331 17.9544 35.7685 17.926 35.7388C17.8675 35.6777 17.7043 35.4464 17.7043 35.4248C17.7043 35.4169 17.6762 35.3791 17.6418 35.3406C17.6075 35.3021 17.5552 35.2276 17.5257 35.1751C17.4961 35.1225 17.4183 34.9984 17.3526 34.8993C17.287 34.8002 17.2189 34.6832 17.2013 34.6392C17.1836 34.5952 17.141 34.5183 17.1064 34.4682C17.0418 34.3746 16.9902 34.2721 16.7529 33.7652C16.6002 33.4388 16.538 33.2925 16.538 33.259C16.538 33.2468 16.5161 33.1878 16.4894 33.1279C16.4627 33.0681 16.4408 33.0023 16.4408 32.9819C16.4407 32.9615 16.4189 32.892 16.3922 32.8276C16.3655 32.7632 16.3436 32.6894 16.3436 32.6638C16.3436 32.6381 16.3238 32.5797 16.2996 32.534C16.2694 32.477 16.2519 32.4133 16.2439 32.3314C16.223 32.1174 16.2029 32.0212 16.1638 31.9487C16.1353 31.8958 16.1223 31.8383 16.1135 31.726C16.1001 31.5558 16.0782 31.3736 16.0512 31.2083C16.0412 31.1469 16.0338 31.0484 16.0348 30.9892C16.0366 30.8835 16.0371 30.5868 16.0358 30.344C16.0343 30.0534 16.0771 29.5513 16.1162 29.4001C16.1448 29.2899 16.1659 29.1929 16.1802 29.1054C16.1874 29.0616 16.2053 28.9944 16.2199 28.956C16.2345 28.9177 16.2464 28.8521 16.2464 28.8104C16.2464 28.7615 16.2638 28.6943 16.295 28.6222C16.3217 28.5605 16.3538 28.472 16.3664 28.4254C16.379 28.3788 16.4146 28.2655 16.4455 28.1735C16.4764 28.0815 16.5108 27.9703 16.522 27.9265C16.5332 27.8827 16.5568 27.8218 16.5746 27.7911C16.5923 27.7605 16.6197 27.6995 16.6355 27.6557C16.7106 27.447 16.7428 27.3754 16.8157 27.2558C16.859 27.1847 16.8944 27.1162 16.8944 27.1035C16.8944 27.0909 16.9148 27.0486 16.9397 27.0097C16.9647 26.9707 16.9978 26.8986 17.0134 26.8494C17.0465 26.7451 17.1947 26.4929 17.2661 26.4194C17.2933 26.3915 17.3156 26.3571 17.3156 26.343C17.3157 26.3068 17.3712 26.2219 17.4372 26.157C17.4682 26.1265 17.5078 26.0741 17.5253 26.0404C17.5428 26.0067 17.5878 25.9477 17.6254 25.9094C17.663 25.871 17.7325 25.7814 17.7797 25.7102C17.827 25.639 17.914 25.5296 17.9732 25.4671C18.089 25.3446 18.1627 25.2528 18.2204 25.1593C18.2404 25.1268 18.292 25.0749 18.335 25.0439C18.3779 25.0128 18.4314 24.9641 18.4536 24.9356C18.5045 24.8705 18.5756 24.7977 18.6287 24.7563C18.6512 24.7388 18.7003 24.6835 18.7377 24.6335C18.7752 24.5835 18.8329 24.5226 18.8659 24.4981C18.8989 24.4736 18.959 24.4186 18.9995 24.3759C19.04 24.3331 19.11 24.2712 19.1551 24.2382C19.2001 24.2053 19.3136 24.1112 19.4072 24.0292C19.5008 23.9472 19.6352 23.8411 19.7059 23.7934C19.7766 23.7457 19.8716 23.6776 19.917 23.6421C20.2038 23.4176 20.2611 23.3791 20.3735 23.3358C20.4334 23.3127 20.497 23.2812 20.5148 23.2658C20.5662 23.2212 20.8917 23.0292 21.0251 22.9648C21.0919 22.9325 21.1684 22.8945 21.1951 22.8802C21.2917 22.8286 21.4721 22.7529 21.5462 22.7331C21.5878 22.7219 21.6497 22.6909 21.6839 22.6643C21.718 22.6376 21.7751 22.611 21.8107 22.6051C21.8987 22.5905 21.9991 22.5574 22.0729 22.5185C22.1066 22.5007 22.1436 22.4862 22.1551 22.4862C22.1666 22.4862 22.2274 22.4607 22.2903 22.4296C22.3745 22.3878 22.4381 22.3692 22.5325 22.3586C22.6029 22.3507 22.6765 22.3358 22.6961 22.3255C22.7341 22.3055 22.8764 22.2704 23.0094 22.2482C23.0539 22.2408 23.1341 22.2228 23.1876 22.2082C23.4145 22.1462 23.5331 22.1193 23.6168 22.1108C23.6658 22.1059 23.7533 22.0915 23.8112 22.0788C23.8691 22.0662 23.9858 22.049 24.0704 22.0405C24.155 22.0321 24.2899 22.0136 24.3701 21.9995C24.5275 21.9717 24.6407 21.9649 25.1152 21.9546C25.2994 21.9506 25.4443 21.9401 25.4762 21.9285C25.5062 21.9176 25.5449 21.9144 25.5652 21.9212C25.585 21.9279 25.7288 21.9389 25.8847 21.9459C26.0406 21.9528 26.2155 21.966 26.2734 21.9751C26.3313 21.9843 26.4662 21.996 26.5731 22.0011C26.68 22.0062 26.8271 22.0243 26.9 22.0412C26.9728 22.0581 27.0596 22.072 27.0927 22.072C27.1259 22.072 27.2267 22.086 27.3167 22.1033C27.6421 22.1656 27.7245 22.1817 27.7961 22.1973C27.9786 22.2369 28.1429 22.2631 28.2093 22.2631C28.259 22.2631 28.312 22.2788 28.3786 22.3132C28.4353 22.3424 28.5276 22.3721 28.6005 22.3845C28.6692 22.3963 28.7623 22.4196 28.8074 22.4363C28.9265 22.4805 29.0011 22.5021 29.0346 22.5021C29.0507 22.5021 29.1195 22.5296 29.1873 22.5632C29.2552 22.5968 29.3471 22.6335 29.3917 22.6448C29.4362 22.656 29.5164 22.6815 29.5699 22.7015C29.6233 22.7214 29.6917 22.7429 29.7219 22.7491C29.752 22.7554 29.8375 22.7884 29.9119 22.8224C29.9862 22.8565 30.0564 22.8844 30.0678 22.8844C30.1053 22.8844 30.2555 22.944 30.3045 22.9783C30.3309 22.9968 30.3593 23.0119 30.3676 23.0119C30.376 23.0119 30.428 23.0406 30.4831 23.0756C30.5383 23.1106 30.587 23.1393 30.5913 23.1393C30.5957 23.1393 30.7188 23.1967 30.8648 23.2668C31.0108 23.3369 31.1385 23.3942 31.1485 23.3942C31.189 23.3942 31.2936 23.4623 31.4104 23.5647C31.4783 23.6243 31.5621 23.688 31.5967 23.7064C31.7612 23.794 31.8212 23.832 31.9848 23.9528C32.0817 24.0243 32.1777 24.0891 32.1982 24.0967C32.2187 24.1044 32.2699 24.1421 32.312 24.1805C32.354 24.2189 32.4103 24.2613 32.437 24.2746C32.4638 24.288 32.5102 24.329 32.5402 24.3657C32.5702 24.4025 32.6335 24.4569 32.6809 24.4867C32.7283 24.5165 32.7984 24.5767 32.8367 24.6205C32.8751 24.6643 32.9575 24.7378 33.0199 24.784C33.1522 24.8818 33.1789 24.9067 33.255 25.0032C33.2861 25.0427 33.3275 25.0876 33.347 25.1031C33.3664 25.1185 33.443 25.2072 33.5172 25.3001C33.5913 25.3931 33.7151 25.5317 33.7922 25.6082C33.8748 25.6901 33.9506 25.7826 33.9767 25.8333C34.0011 25.8806 34.0637 25.9817 34.1159 26.058C34.1681 26.1344 34.2108 26.2049 34.2108 26.2147C34.2108 26.2246 34.2545 26.2948 34.308 26.3708C34.3614 26.4468 34.4052 26.5205 34.4052 26.5346C34.4052 26.5488 34.4402 26.6133 34.4829 26.6779C34.5257 26.7426 34.5776 26.8368 34.5983 26.8873C34.619 26.9379 34.6613 27.0119 34.6924 27.0518C34.7485 27.1242 34.8263 27.2951 34.8263 27.346C34.8263 27.3607 34.8628 27.46 34.9073 27.5665C34.9519 27.6731 34.9883 27.7733 34.9883 27.7893C34.9883 27.8052 35.0079 27.8534 35.0318 27.8963C35.0567 27.9409 35.0804 28.0153 35.0872 28.0699C35.1042 28.2067 35.1234 28.2794 35.1722 28.392C35.1958 28.4465 35.2151 28.5075 35.2151 28.5274C35.2151 28.5904 35.259 28.7667 35.3021 28.8774C35.3366 28.9659 35.3408 28.9923 35.3265 29.0324C35.3046 29.0942 35.3317 29.3854 35.3667 29.4639C35.3726 29.477 35.3815 29.6419 35.3866 29.8303C35.399 30.2908 35.3993 30.2615 35.378 30.5949C35.3677 30.757 35.3566 30.9907 35.3535 31.1142C35.3493 31.2775 35.3399 31.36 35.319 31.4169C35.3032 31.4599 35.2849 31.5488 35.2783 31.6145C35.2642 31.7544 35.2452 31.8498 35.2113 31.9491C35.1979 31.9885 35.1784 32.0745 35.168 32.1402C35.1577 32.206 35.1379 32.292 35.1242 32.3314C35.1105 32.3708 35.0935 32.4282 35.0865 32.4589C35.0796 32.4895 35.0575 32.5576 35.0375 32.6102C34.9338 32.8828 34.8911 33.0128 34.891 33.0561C34.8909 33.0825 34.8719 33.1435 34.8487 33.1917C34.8255 33.2399 34.7933 33.3318 34.777 33.396C34.759 33.4674 34.7225 33.551 34.6833 33.6111C34.6096 33.7238 34.544 33.8491 34.4691 34.0201C34.4403 34.0858 34.3859 34.1897 34.3483 34.2511C34.3106 34.3124 34.2752 34.3769 34.2696 34.3944C34.2641 34.412 34.2261 34.4622 34.1852 34.506C34.1025 34.5946 34.0164 34.7477 34.0164 34.8059C34.0164 34.8314 33.9769 34.8844 33.8959 34.9675C33.8297 35.0354 33.7555 35.1298 33.7311 35.1773C33.7067 35.2247 33.6425 35.3055 33.5883 35.3568C33.4134 35.5229 33.2172 35.7409 33.1707 35.8208C33.1458 35.8637 33.1104 35.9067 33.092 35.9164C33.0735 35.9261 33.0199 35.9684 32.9729 36.0103C32.9258 36.0522 32.8662 36.0992 32.8404 36.1148C32.8146 36.1303 32.7643 36.1769 32.7286 36.2183C32.693 36.2597 32.6252 36.3215 32.578 36.3556C32.5308 36.3897 32.4628 36.4518 32.4269 36.4936C32.3911 36.5353 32.3204 36.5954 32.2698 36.6271C32.2192 36.6588 32.1341 36.7274 32.0807 36.7797C32.0272 36.8319 31.958 36.8878 31.9268 36.9038C31.8956 36.9198 31.8373 36.9629 31.7972 36.9996C31.7571 37.0363 31.6989 37.0771 31.668 37.0902C31.5975 37.1201 31.4965 37.188 31.4256 37.2531C31.3958 37.2806 31.2442 37.3857 31.0888 37.4868C30.9334 37.5879 30.7839 37.6916 30.7567 37.7172C30.7294 37.7428 30.6986 37.7638 30.6883 37.7638C30.6677 37.7638 30.3577 37.939 30.2421 38.0159C30.202 38.0426 30.1054 38.0969 30.0275 38.1366C29.9495 38.1762 29.8428 38.2374 29.7902 38.2725C29.7377 38.3076 29.6557 38.3535 29.608 38.3745C29.5603 38.3955 29.4936 38.4347 29.4597 38.4616C29.4258 38.4884 29.3383 38.5328 29.2653 38.5602C29.1923 38.5876 29.0624 38.6524 28.9767 38.7042C28.8294 38.7931 28.7802 38.8142 28.606 38.8629C28.566 38.8741 28.5076 38.8905 28.4765 38.8993C28.333 38.9399 28.1565 39.0167 28.116 39.0562C28.0157 39.1539 28.0899 39.2502 28.2391 39.216C28.5289 39.1497 28.6455 39.1329 28.8684 39.1254C29.0083 39.1207 29.1359 39.124 29.1708 39.1333C29.2041 39.1421 29.2856 39.1555 29.352 39.1631C29.5051 39.1805 29.6895 39.2327 29.8857 39.314C29.9704 39.349 30.087 39.3972 30.1449 39.4212C30.2028 39.4451 30.3012 39.4953 30.3636 39.5329C30.426 39.5704 30.5161 39.6181 30.5638 39.6389C30.6509 39.6768 30.7166 39.723 30.8558 39.8441C30.8969 39.8799 30.9634 39.9313 31.0035 39.9584C31.0978 40.0221 31.1532 40.0833 31.3528 40.3447C31.4431 40.4631 31.5291 40.5697 31.5437 40.5816C31.5584 40.5936 31.5704 40.6152 31.5704 40.6296C31.5704 40.6439 31.5857 40.695 31.6044 40.7431C31.8187 41.2933 31.853 41.4806 31.8331 41.9897C31.827 42.1446 31.8306 42.2269 31.8451 42.2702C31.8635 42.325 31.8616 42.3425 31.8279 42.4333C31.8035 42.4992 31.7894 42.5744 31.7879 42.6466C31.7866 42.7079 31.7732 42.7976 31.7581 42.8457C31.7402 42.9026 31.7281 43.0086 31.7236 43.1475C31.7193 43.2829 31.7074 43.3894 31.6912 43.4374C31.6566 43.5397 31.6684 44.0954 31.7134 44.4866C31.7627 44.9155 31.7686 44.942 31.833 45.0264C31.8489 45.0473 31.8622 45.0903 31.8624 45.122C31.8626 45.1537 31.8815 45.2226 31.9043 45.2752C31.9272 45.3278 31.9522 45.4011 31.9601 45.4382C31.9679 45.4752 31.9884 45.5362 32.0057 45.5736C32.0976 45.7725 32.1503 45.8734 32.2614 46.0638C32.2895 46.112 32.324 46.1899 32.3381 46.237C32.3521 46.2841 32.3882 46.3665 32.4183 46.4202C32.4484 46.4739 32.4816 46.5528 32.4922 46.5956C32.5028 46.6384 32.5255 46.7005 32.5427 46.7335C32.5598 46.7666 32.5789 46.8244 32.585 46.8621C32.5911 46.8997 32.6102 46.9667 32.6274 47.0109C32.8365 47.5479 32.6076 48.0498 32.164 48.027C32.0677 48.022 32.001 48.0257 31.979 48.0373C31.9502 48.0524 31.9324 48.0478 31.8703 48.0091C31.8295 47.9836 31.7544 47.9465 31.7035 47.9266C31.6526 47.9067 31.5927 47.8782 31.5704 47.8633C31.5481 47.8484 31.4935 47.8179 31.4489 47.7956C31.4044 47.7734 31.3351 47.7216 31.295 47.6807C31.2549 47.6397 31.1907 47.5847 31.1522 47.5583C31.1137 47.532 31.0603 47.4753 31.0334 47.4323C30.9911 47.3647 30.9774 47.3542 30.9321 47.3542C30.7985 47.3542 30.4519 47.0958 30.3764 46.94C30.322 46.8278 30.2259 46.6172 30.2259 46.6103C30.2259 46.6059 30.2106 46.5812 30.1918 46.5553C30.1361 46.4783 30.1117 46.3565 30.1063 46.1275C30.1009 45.9029 30.0726 45.7864 29.9839 45.6237C29.9656 45.59 29.9505 45.5504 29.9505 45.5357C29.9505 45.496 29.8629 45.2398 29.7777 45.0302C29.7273 44.9064 29.6986 44.8086 29.6907 44.7338C29.6755 44.5891 29.6604 44.5559 29.5745 44.4775C29.393 44.3118 29.323 43.9573 29.4307 43.7487C29.4742 43.6643 29.4828 43.633 29.4736 43.5911C29.4673 43.5623 29.4553 43.4957 29.4471 43.4432C29.4389 43.3906 29.4207 43.283 29.4067 43.2042C29.3927 43.1253 29.3756 42.9963 29.3688 42.9174C29.3619 42.8386 29.3468 42.749 29.3353 42.7183C29.3238 42.6876 29.308 42.6124 29.3001 42.551C29.2762 42.3646 29.2567 42.2364 29.2395 42.1528C29.2305 42.1089 29.2166 42.0408 29.2087 42.0014C29.2008 41.962 29.1823 41.902 29.1675 41.868C29.1527 41.8341 29.1406 41.7895 29.1406 41.7688C29.1406 41.7482 29.1225 41.6935 29.1004 41.6473C29.0783 41.6011 29.0325 41.4988 28.9987 41.4199C28.9088 41.2101 28.6839 40.8985 28.6411 40.9245C28.6138 40.9411 28.618 40.9925 28.6506 41.0414C28.7224 41.1492 28.7327 41.2284 28.6864 41.3176C28.6682 41.3527 28.659 41.3899 28.6658 41.4006C28.6726 41.4112 28.6838 41.4612 28.6907 41.5115C28.6976 41.5619 28.711 41.648 28.7206 41.7027C28.7584 41.9201 28.7741 42.2528 28.7699 42.7541C28.7698 42.7695 28.7695 42.8089 28.7693 42.8418C28.7691 42.8746 28.7612 42.9696 28.7518 43.0528C28.7424 43.1361 28.7278 43.283 28.7192 43.3794C28.6573 44.0796 28.6436 44.1767 28.5894 44.3034C28.5629 44.3654 28.5405 44.4844 28.531 44.6141C28.5265 44.6754 28.5048 44.7631 28.4776 44.8291C28.4192 44.9716 28.3791 45.0851 28.3623 45.1557C28.355 45.1864 28.3408 45.2401 28.3308 45.2752C28.3208 45.3102 28.3069 45.3604 28.2999 45.3867C28.2928 45.413 28.2647 45.4847 28.2374 45.546C28.2101 45.6074 28.18 45.6862 28.1705 45.7213C28.1609 45.7563 28.1387 45.8113 28.1211 45.8434C28.0665 45.9431 27.9095 46.2997 27.9095 46.3241C27.9095 46.3369 27.8831 46.3857 27.8508 46.4326C27.8186 46.4794 27.7671 46.5716 27.7365 46.6373C27.7059 46.703 27.6538 46.789 27.6206 46.8284C27.5875 46.8679 27.5518 46.9195 27.5413 46.9431C27.5308 46.9667 27.4974 47.0133 27.4671 47.0466C27.4368 47.08 27.3919 47.1395 27.3674 47.1789C27.3156 47.2622 26.9788 47.5912 26.9108 47.6249C26.8395 47.6603 26.686 47.7684 26.5883 47.852C26.5397 47.8936 26.4857 47.9277 26.4684 47.9277C26.4511 47.9277 26.4202 47.9341 26.3997 47.9419C26.3793 47.9498 26.3324 47.965 26.2955 47.9758C26.2587 47.9865 26.204 48.0159 26.174 48.0411C26.1368 48.0724 26.1016 48.087 26.0629 48.0872C25.9994 48.0875 25.8813 48.1241 25.8301 48.1594C25.8116 48.1721 25.7662 48.1826 25.7292 48.1826C25.6921 48.1826 25.6336 48.1949 25.5991 48.2101C25.4734 48.2652 24.8813 48.2812 24.7305 48.2336C24.587 48.1883 24.5572 48.1826 24.4652 48.1826C24.3488 48.1826 23.765 47.9193 23.6524 47.816C23.6284 47.794 23.5832 47.7582 23.5521 47.7365C23.4366 47.6561 23.2281 47.4214 23.2281 47.372C23.2281 47.3615 23.2135 47.3248 23.1957 47.2904C23.1477 47.198 23.1476 46.8312 23.1955 46.765C23.2132 46.7406 23.2421 46.6893 23.2598 46.6511C23.3427 46.472 23.4579 46.3096 23.5464 46.247C23.5807 46.2227 23.6359 46.1697 23.669 46.1292C23.7908 45.9802 23.967 45.8112 24.0355 45.7775C24.0742 45.7585 24.1325 45.7145 24.1651 45.6796C24.1977 45.6448 24.2607 45.5957 24.3053 45.5707C24.3842 45.5262 24.5402 45.3869 24.5402 45.3609C24.5402 45.3537 24.593 45.3125 24.6576 45.2692C24.7675 45.1956 25.2033 44.7819 25.2638 44.6937C25.2788 44.6718 25.339 44.6035 25.3975 44.542C25.4561 44.4804 25.5147 44.4087 25.5278 44.3827C25.5409 44.3566 25.5705 44.3066 25.5937 44.2716C25.6168 44.2365 25.6485 44.1807 25.6641 44.1474C25.6797 44.1142 25.7131 44.0639 25.7383 44.0356C25.7636 44.0074 25.8103 43.9315 25.8422 43.8671C25.8741 43.8026 25.9069 43.7418 25.9151 43.7319C25.9233 43.7221 25.9491 43.6579 25.9724 43.5893C25.9958 43.5207 26.0292 43.437 26.0467 43.4033C26.1004 43.2997 26.16 43.1065 26.16 43.036C26.16 42.9992 26.1822 42.9056 26.2092 42.8281L26.2584 42.6872L26.253 42.3324C26.2489 42.0679 26.2405 41.9491 26.22 41.866C26.2048 41.8047 26.1924 41.7368 26.1924 41.7151C26.1924 41.6935 26.1787 41.6289 26.1619 41.5717C26.1225 41.4379 26.0784 41.2722 26.0679 41.2185C26.0619 41.1878 26.0754 41.1534 26.118 41.0913C26.2143 40.9505 26.1861 40.8857 26.0295 40.8881C25.981 40.8888 25.9149 40.8844 25.8826 40.8784C25.8015 40.8631 25.7669 40.9098 25.7811 41.0153C25.7905 41.0851 25.7878 41.0923 25.734 41.1404C25.7026 41.1685 25.6683 41.2121 25.6577 41.2372C25.6471 41.2624 25.6221 41.2935 25.6021 41.3064C25.5821 41.3193 25.5459 41.3697 25.5217 41.4184C25.4974 41.4672 25.4544 41.5355 25.426 41.5702C25.372 41.6363 25.2944 41.7494 25.2527 41.8228C25.2392 41.8466 25.1863 41.9347 25.1352 42.0187C25.0841 42.1027 25.0423 42.178 25.0423 42.186C25.0422 42.194 25.0204 42.2328 24.9937 42.2722C24.9671 42.3117 24.9453 42.3532 24.9452 42.3645C24.9452 42.3758 24.916 42.4436 24.8803 42.5151C24.8447 42.5866 24.8156 42.6518 24.8156 42.66C24.8156 42.682 24.6838 42.9408 24.6675 42.9506C24.6598 42.9553 24.6536 42.9803 24.6536 43.0062C24.6536 43.0321 24.6317 43.0914 24.605 43.138C24.5782 43.1846 24.5564 43.2384 24.5564 43.2575C24.5564 43.2767 24.5199 43.3638 24.4754 43.4511C24.4299 43.5403 24.3944 43.6317 24.3944 43.6596C24.3944 43.687 24.3734 43.7535 24.3477 43.8073C24.307 43.8925 24.2155 44.1212 24.1524 44.2954C24.1413 44.3261 24.1175 44.3871 24.0996 44.4309C24.0817 44.4747 24.0471 44.5643 24.0228 44.63C23.9984 44.6957 23.9341 44.8391 23.8798 44.9486C23.8255 45.0581 23.769 45.182 23.7542 45.2238C23.7161 45.3313 23.6372 45.4404 23.5521 45.5031C23.512 45.5326 23.4646 45.5688 23.4468 45.5834C23.4289 45.5981 23.3686 45.6447 23.3127 45.6869C23.2567 45.7291 23.1803 45.8043 23.1429 45.854C23.1054 45.9036 23.0265 45.9981 22.9675 46.0638C22.8498 46.1948 22.7421 46.3458 22.7421 46.3797C22.7421 46.3916 22.7289 46.4204 22.7127 46.4437C22.6966 46.4669 22.6753 46.5146 22.6655 46.5497C22.6306 46.674 22.6138 46.7414 22.6058 46.7886C22.6014 46.8149 22.5896 46.8723 22.5795 46.9161C22.5575 47.0122 22.5575 47.0376 22.5791 47.2091L22.5959 47.3427L22.5192 47.4453C22.477 47.5017 22.406 47.6009 22.3614 47.6657C22.3088 47.7424 22.2546 47.7997 22.2065 47.8295C22.1658 47.8548 22.1148 47.8927 22.0931 47.9139C22.0159 47.989 21.8432 48.1188 21.8203 48.1188C21.8076 48.1188 21.7584 48.1404 21.711 48.1666C21.6525 48.1991 21.6027 48.2144 21.5556 48.2144C21.5174 48.2144 21.4464 48.2288 21.3976 48.2463C21.2981 48.2821 21.0856 48.2901 21.0198 48.2606C20.991 48.2477 20.9714 48.2478 20.9463 48.261C20.9113 48.2795 20.7462 48.236 20.6278 48.1772C20.6013 48.164 20.5493 48.1411 20.5122 48.1263C20.4752 48.1115 20.4203 48.0769 20.3903 48.0494C20.3603 48.0219 20.3104 47.9805 20.2795 47.9574C20.1654 47.8722 20.0382 47.73 19.9599 47.6002C19.9338 47.5569 19.8931 47.4936 19.8694 47.4595C19.8441 47.423 19.8263 47.3757 19.8263 47.3446C19.8263 47.3155 19.8119 47.2537 19.7943 47.2074C19.7265 47.0291 19.7615 46.6268 19.8585 46.47C19.8748 46.4437 19.8996 46.3837 19.9136 46.3366C19.9277 46.2894 19.9649 46.2201 19.9962 46.1825C20.0275 46.1449 20.0669 46.0831 20.0837 46.0451C20.1006 46.0072 20.141 45.9511 20.1737 45.9204C20.2064 45.8898 20.2481 45.8351 20.2665 45.7989C20.2848 45.7627 20.3291 45.7018 20.3647 45.6635C20.4344 45.5887 20.5715 45.4057 20.5715 45.3876C20.5715 45.3711 20.6648 45.2394 20.7471 45.1398C20.7868 45.0916 20.8337 45.0199 20.8511 44.9805C20.8686 44.941 20.9071 44.8837 20.9366 44.853C20.9661 44.8224 21.0236 44.7337 21.0644 44.6559C21.1052 44.5782 21.1604 44.4901 21.1872 44.4602C21.2436 44.3969 21.3079 44.2771 21.3235 44.2061C21.3295 44.1789 21.3594 44.1184 21.39 44.0717C21.4206 44.025 21.4577 43.9505 21.4725 43.9061C21.4872 43.8618 21.5152 43.7932 21.5346 43.7538C21.5541 43.7144 21.5803 43.6499 21.5929 43.6104C21.6055 43.571 21.6396 43.4997 21.6687 43.4521C21.6978 43.4044 21.7216 43.3578 21.7216 43.3485C21.7216 43.3392 21.7442 43.285 21.7718 43.2281C21.7994 43.1711 21.8316 43.0923 21.8434 43.0528C21.8631 42.9866 21.9444 42.7424 21.984 42.6307C21.9933 42.6044 22.0249 42.5148 22.0543 42.4315C22.0837 42.3483 22.1302 42.2336 22.1576 42.1767C22.1851 42.1197 22.2119 42.048 22.2171 42.0173C22.2259 41.9661 22.2512 41.891 22.3164 41.7226C22.3468 41.6444 22.3798 41.519 22.4171 41.3403C22.4364 41.2482 22.5277 41.0124 22.556 40.9816C22.5799 40.9556 22.6959 40.7546 22.7673 40.6154C22.8518 40.4506 22.8643 40.3233 22.7988 40.2939C22.7482 40.2712 22.7482 40.2517 22.7988 40.1534C22.8814 39.9932 22.8345 39.983 22.7291 40.1383C22.6908 40.1948 22.6384 40.2661 22.6128 40.2968C22.5613 40.3583 22.4204 40.5546 22.3212 40.703C22.2071 40.8738 22.1535 40.937 22.0705 40.9985C22.0256 41.0318 21.967 41.0783 21.9403 41.1019C21.9136 41.1256 21.8589 41.1588 21.8188 41.1759C21.7787 41.193 21.7269 41.2248 21.7036 41.2466C21.6803 41.2684 21.6257 41.2959 21.5821 41.3078C21.5386 41.3197 21.4665 41.3439 21.4219 41.3616C21.1692 41.4622 20.9298 41.506 20.7867 41.4778C20.6029 41.4414 20.4643 41.4534 20.3036 41.5194C20.163 41.5772 20.1523 41.5791 19.964 41.5788L19.7697 41.5785L19.6158 41.5095C19.5311 41.4716 19.4254 41.4245 19.3809 41.4048C19.2906 41.3651 19.2051 41.2868 19.1678 41.2097C19.1358 41.1437 18.9944 41.0137 18.9544 41.0137C18.9374 41.0137 18.8778 40.9994 18.822 40.9818C18.7663 40.9643 18.6922 40.95 18.6574 40.95C18.6226 40.95 18.5598 40.9331 18.5178 40.9124C18.3672 40.8384 18.0245 40.7808 17.6002 40.7583C17.3005 40.7424 17.2832 40.746 17.2832 40.8248C17.2832 40.8949 17.199 41.062 17.1293 41.1302C17.0467 41.2111 16.8633 41.2995 16.7766 41.3002C16.7609 41.3003 16.6812 41.3334 16.5997 41.3737C16.3902 41.4772 16.2777 41.5105 16.1081 41.5194C15.9541 41.5274 15.9228 41.5207 15.72 41.437C15.5689 41.3745 15.3967 41.406 15.2421 41.5243C15.2109 41.5481 15.1672 41.5713 15.1449 41.5758C15.0581 41.5934 14.9138 41.6362 14.8804 41.6543C14.8611 41.6647 14.7651 41.7032 14.6671 41.7397L14.4889 41.806L14.4791 41.8679C14.4422 42.1015 13.9746 42.559 13.7727 42.559C13.7557 42.559 13.7277 42.5697 13.7104 42.5829C13.6699 42.6137 13.7215 42.6631 13.7761 42.6459C13.794 42.6402 13.8418 42.6306 13.8825 42.6244C13.9232 42.6183 13.9901 42.5939 14.0312 42.5702C14.095 42.5334 14.1242 42.5271 14.2314 42.5271C14.355 42.5271 14.4172 42.5147 14.5294 42.4677C14.5606 42.4546 14.6262 42.4311 14.6752 42.4155C14.9846 42.317 15.2273 42.2075 15.37 42.1019C15.4091 42.0729 15.4549 42.0492 15.4717 42.0492C15.5049 42.0492 15.6772 41.968 15.7473 41.9194C15.7712 41.9028 15.8212 41.8787 15.8583 41.8658C15.8955 41.8529 15.9598 41.8181 16.0011 41.7885C16.0425 41.759 16.1201 41.7237 16.1735 41.7103C16.227 41.6968 16.3267 41.66 16.3952 41.6285C16.4637 41.597 16.5323 41.5713 16.5477 41.5713C16.5631 41.5713 16.6289 41.5426 16.6938 41.5076C16.7587 41.4725 16.8322 41.4437 16.8572 41.4436C16.8821 41.4435 16.9353 41.4318 16.9754 41.4178C17.1111 41.37 17.1613 41.3599 17.3317 41.3456C17.7703 41.3089 17.813 41.3108 18.166 41.3817C18.2105 41.3907 18.298 41.4035 18.3604 41.4102C18.434 41.4182 18.5407 41.4485 18.6648 41.4969C18.7972 41.5484 18.8794 41.5713 18.9324 41.5713C18.9877 41.5713 19.0257 41.5825 19.0698 41.612C19.1429 41.6608 19.247 41.6987 19.3081 41.6987C19.3527 41.6987 19.4038 41.7166 19.5636 41.788C19.6162 41.8115 19.6793 41.8262 19.7277 41.8262C19.7709 41.8262 19.8337 41.8375 19.8673 41.8513C19.901 41.8651 19.9693 41.8837 20.0192 41.8926C20.069 41.9015 20.1426 41.9156 20.1827 41.9239C20.2555 41.9389 20.4275 41.961 20.6127 41.9792C20.6871 41.9865 20.7382 41.9807 20.825 41.9553C20.888 41.9368 20.9729 41.9218 21.0139 41.9218C21.0548 41.9218 21.1305 41.9103 21.1822 41.8962C21.2339 41.8821 21.3053 41.865 21.3409 41.8583C21.4099 41.8451 21.7015 41.7248 21.7283 41.6985C21.8086 41.6195 21.8191 41.7135 21.7456 41.8533C21.7143 41.9128 21.67 42.0258 21.6471 42.1042C21.6242 42.1826 21.5916 42.2737 21.5745 42.3067C21.5574 42.3396 21.5434 42.3744 21.5434 42.3841C21.5434 42.3937 21.5143 42.4617 21.4786 42.5351C21.443 42.6085 21.4138 42.6797 21.4138 42.6932C21.4138 42.7067 21.3854 42.7771 21.3506 42.8495C21.2714 43.0146 21.1968 43.1985 21.1712 43.2918C21.1529 43.3586 21.1091 43.4525 21.0152 43.6264C20.9739 43.7028 20.91 43.8316 20.8809 43.8972C20.8712 43.9191 20.8347 43.9761 20.7998 44.024C20.765 44.0718 20.7272 44.1399 20.7159 44.1753C20.6865 44.2675 20.6583 44.3196 20.5922 44.4042C20.5603 44.4452 20.5158 44.5181 20.4933 44.5663C20.4709 44.6145 20.4254 44.6862 20.3922 44.7256C20.3591 44.765 20.3137 44.8331 20.2914 44.8769C20.2691 44.9207 20.1948 45.0247 20.1264 45.1079C20.058 45.1912 19.9834 45.2951 19.9608 45.3389C19.9381 45.3827 19.8888 45.451 19.8513 45.4907C19.8138 45.5304 19.7699 45.5985 19.7536 45.642C19.7373 45.6856 19.6929 45.7535 19.6549 45.7929C19.6169 45.8324 19.5679 45.9046 19.5462 45.9535C19.5244 46.0024 19.4832 46.074 19.4546 46.1128C19.3974 46.1901 19.3566 46.2756 19.3566 46.3179C19.3566 46.3328 19.3393 46.3875 19.3182 46.4394C19.297 46.4913 19.2702 46.5931 19.2585 46.6657C19.232 46.83 19.2415 46.8233 18.9817 46.8609C14.2381 47.5472 13.7036 48.9293 17.8582 49.7658C19.9203 50.181 20.9345 50.2051 22.3174 49.8717C23.2199 49.6542 23.5316 49.619 24.2858 49.6495C26.0552 49.7212 28.748 49.63 30.0315 49.4551C30.9352 49.3319 31.4825 49.0841 31.7758 48.6654C31.839 48.5751 31.8935 48.5624 31.9946 48.6145C32.0407 48.6383 32.2571 48.6307 32.3338 48.6026C32.3727 48.5883 32.4374 48.5709 32.4775 48.5638C32.6519 48.5331 32.6963 48.5168 32.8052 48.4434C32.9129 48.3709 32.9888 48.3016 33.1084 48.1666C33.1786 48.0874 33.3037 47.844 33.3037 47.7865C33.3037 47.7598 33.3102 47.7215 33.3181 47.7014C33.3754 47.5562 33.4041 47.4332 33.3939 47.3762C33.3879 47.3422 33.3761 47.2498 33.3678 47.171C33.3595 47.0921 33.3466 46.981 33.3392 46.924C33.3231 46.8005 33.2092 46.4661 33.1334 46.3197C33.1036 46.2622 33.063 46.1721 33.043 46.1195C33.023 46.067 32.987 45.9953 32.963 45.9602C32.9194 45.8968 32.7853 45.587 32.7853 45.5497C32.7852 45.5389 32.7415 45.4374 32.6881 45.3241C32.6346 45.2108 32.5909 45.1085 32.5909 45.0968C32.5909 45.085 32.5691 45.0279 32.5423 44.97C32.5101 44.9 32.4937 44.839 32.4937 44.7885C32.4937 44.7467 32.48 44.6742 32.4632 44.6274C32.3581 44.3343 32.3614 44.3558 32.3651 43.9902C32.3713 43.3719 32.3742 43.3004 32.3952 43.2281C32.4186 43.1482 32.4447 42.8108 32.4502 42.5192C32.4525 42.3994 32.4616 42.3144 32.4746 42.2917C32.5182 42.2154 32.5108 41.6899 32.4622 41.4199C32.4527 41.3674 32.4387 41.2885 32.431 41.2447C32.4233 41.2009 32.4057 41.1328 32.3918 41.0934C32.3779 41.0539 32.3433 40.95 32.3149 40.8624C32.2865 40.7747 32.2508 40.6851 32.2356 40.6632C32.2203 40.6413 32.1977 40.5983 32.1853 40.5676C32.173 40.537 32.1317 40.479 32.0937 40.4388C32.0556 40.3986 32.0103 40.3341 31.9928 40.2954C31.9382 40.174 31.7938 40.0075 31.61 39.854C31.5125 39.7725 31.3853 39.6643 31.3274 39.6135C31.2249 39.5236 31.0617 39.4162 30.9306 39.3523C30.8949 39.3349 30.8446 39.3034 30.8188 39.2821C30.7662 39.2388 30.6246 39.1657 30.4985 39.1169C30.4525 39.099 30.3826 39.07 30.3432 39.0523C30.2371 39.0048 29.9346 38.9109 29.8868 38.9106C29.864 38.9105 29.8124 38.8987 29.7724 38.8845C29.7323 38.8702 29.6448 38.8526 29.578 38.8453C29.3144 38.8166 29.2792 38.8032 29.339 38.7551C29.3732 38.7276 29.5651 38.6559 29.6046 38.6559C29.6251 38.6559 29.6809 38.6389 29.7287 38.6182C29.7764 38.5974 29.8759 38.5612 29.9496 38.5377C30.0234 38.5142 30.1477 38.4667 30.2258 38.4321C30.304 38.3975 30.3758 38.3692 30.3855 38.3692C30.4102 38.3692 30.7967 38.2022 30.8788 38.1561C30.9162 38.1351 30.9869 38.1052 31.0359 38.0897C31.0849 38.0742 31.2562 37.9978 31.4165 37.9199C31.5769 37.842 31.7591 37.757 31.8215 37.7311C31.8839 37.7051 31.9604 37.6616 31.9916 37.6345C32.0228 37.6074 32.092 37.5635 32.1455 37.5369C32.1989 37.5104 32.2832 37.4574 32.3328 37.4191C32.3823 37.3809 32.4318 37.3496 32.4426 37.3496C32.492 37.3496 32.6361 37.2588 32.7319 37.1673C32.7947 37.1074 32.8626 37.0586 32.9005 37.0463C32.9354 37.035 32.9985 36.9935 33.0407 36.9542C33.0829 36.9148 33.1571 36.8575 33.2056 36.8269C33.2934 36.7714 33.5348 36.5404 33.6 36.4495C33.6466 36.3844 33.7015 36.3375 33.799 36.2794C33.8494 36.2493 33.8995 36.2018 33.9283 36.1567C33.9542 36.1162 34.0135 36.0457 34.0601 36C34.1068 35.9543 34.1633 35.8813 34.1857 35.8378C34.2081 35.7942 34.2778 35.7074 34.3406 35.6448C34.4227 35.5629 34.4748 35.4923 34.5261 35.3928C34.576 35.2963 34.6255 35.2283 34.6905 35.1671C34.7622 35.0995 34.8 35.0449 34.8559 34.9281C34.8958 34.8449 34.9407 34.7589 34.9557 34.737C34.9708 34.7151 35.0179 34.6326 35.0605 34.5538C35.103 34.4749 35.1507 34.3925 35.1663 34.3706C35.245 34.2605 35.3771 33.9557 35.3771 33.8841C35.3771 33.8398 35.4283 33.7235 35.4866 33.6354C35.5077 33.6034 35.5422 33.5272 35.5633 33.4659C35.5844 33.4046 35.6241 33.3107 35.6515 33.2572C35.7065 33.1502 35.7457 33.0245 35.7672 32.8867C35.7748 32.8372 35.7996 32.7428 35.8221 32.6768C35.8446 32.6108 35.8631 32.5349 35.8631 32.5082C35.8631 32.4815 35.8824 32.411 35.9061 32.3517C35.9297 32.2923 35.9544 32.2008 35.9608 32.1482C35.9819 31.9768 36.0241 31.7417 36.0387 31.7136C36.0466 31.6986 36.0571 31.593 36.0621 31.4791C36.0674 31.3569 36.0814 31.2423 36.0962 31.1995C36.1482 31.0496 36.1798 29.9669 36.139 29.7356C36.1304 29.6869 36.1152 29.5216 36.1053 29.3683C36.0897 29.1274 36.0816 29.0765 36.0453 28.9939C36.0118 28.9177 36.0012 28.8613 35.9927 28.7151C35.9868 28.6143 35.973 28.5068 35.962 28.4761C35.9228 28.3665 35.8955 28.2506 35.8952 28.1926C35.8949 28.1078 35.8296 27.9318 35.763 27.8365C35.7463 27.8126 35.7335 27.766 35.7335 27.7293C35.7335 27.6911 35.7135 27.6217 35.6849 27.5601C35.6582 27.5027 35.6363 27.4455 35.6363 27.4329C35.6363 27.3995 35.5805 27.2641 35.4918 27.0822C35.4072 26.9087 35.3601 26.7987 35.3282 26.6999C35.3169 26.6648 35.2795 26.5953 35.2452 26.5454C35.2108 26.4955 35.1827 26.4468 35.1827 26.4372C35.1827 26.41 35.1192 26.2929 35.0615 26.214C35.0327 26.1745 34.9791 26.0849 34.9423 26.0148C34.9055 25.9447 34.8586 25.8695 34.8379 25.8476C34.8173 25.8257 34.7684 25.7611 34.7292 25.7042C34.69 25.6472 34.6244 25.5684 34.5834 25.5289C34.5424 25.4895 34.4768 25.4107 34.4377 25.3537C34.3985 25.2968 34.3567 25.2405 34.3448 25.2286C34.3329 25.2167 34.3089 25.1796 34.2915 25.1461C34.2742 25.1126 34.2179 25.0426 34.1665 24.9906C34.1151 24.9385 34.0257 24.8436 33.9678 24.7797C33.9099 24.7157 33.8339 24.6377 33.7989 24.6063C33.6984 24.5161 33.5283 24.3485 33.4576 24.27C33.4219 24.2304 33.3381 24.154 33.2713 24.1001C33.2045 24.0462 33.1288 23.9797 33.1032 23.9524C33.0776 23.925 33.0265 23.8877 32.9898 23.8695C32.9531 23.8513 32.8827 23.7988 32.8334 23.7529C32.7842 23.707 32.7222 23.6584 32.6957 23.6448C32.6693 23.6312 32.6258 23.5973 32.599 23.5694C32.5502 23.5184 32.3952 23.4119 32.2403 23.3227C32.1945 23.2963 32.0987 23.231 32.0275 23.1775C31.9368 23.1094 31.8513 23.0625 31.7422 23.0209C31.6565 22.9882 31.5518 22.9373 31.5095 22.9077C31.2034 22.6931 30.9905 22.5803 30.639 22.4462C30.5321 22.4055 30.4118 22.3518 30.3717 22.327C30.2884 22.2755 30.1857 22.2315 30.147 22.2308C30.1325 22.2305 30.0769 22.2082 30.0234 22.1812C29.97 22.1542 29.8993 22.1186 29.8663 22.102C29.8333 22.0855 29.7959 22.072 29.7832 22.072C29.7705 22.072 29.7175 22.0528 29.6654 22.0293C29.5766 21.9894 29.537 21.978 29.3755 21.9458C29.3398 21.9387 29.256 21.9139 29.1892 21.8907C29.0139 21.8298 28.9713 21.8171 28.9432 21.8171C28.9294 21.8171 28.8517 21.7956 28.7706 21.7693C28.6687 21.7362 28.5911 21.7215 28.5194 21.7215C28.441 21.7215 28.3923 21.711 28.3205 21.6786C28.2682 21.655 28.1962 21.6303 28.1606 21.6237C28.1249 21.6171 28.063 21.6037 28.0229 21.5938C27.9828 21.584 27.9063 21.5696 27.8528 21.5619C27.7994 21.5542 27.7119 21.5398 27.6584 21.53C27.605 21.5201 27.5066 21.506 27.4397 21.4986C27.3729 21.4911 27.2818 21.4767 27.2373 21.4665C27.1927 21.4563 27.0506 21.4415 26.9214 21.4336C26.7922 21.4257 26.61 21.4116 26.5164 21.4022C26.4229 21.3929 26.3172 21.3859 26.2815 21.3868C26.2459 21.3877 26.1621 21.3877 26.0952 21.3868C26.0284 21.3859 25.9009 21.3855 25.8118 21.3859C25.7227 21.3863 25.6024 21.3863 25.5445 21.3859C25.2521 21.3838 25.1911 21.384 25.1314 21.3873C25.0958 21.3893 25.0483 21.3859 25.0259 21.3798C25.0036 21.3737 24.9793 21.3746 24.972 21.3818ZM27.095 25.1565C27.0819 25.1693 26.9749 25.1904 26.8242 25.2099C26.6747 25.2292 26.5126 25.2792 26.3625 25.3524C26.2913 25.3871 26.16 25.4488 26.071 25.4895C25.9819 25.5302 25.8864 25.5804 25.8588 25.601C25.8312 25.6216 25.7855 25.6478 25.7573 25.6593C25.6529 25.7019 25.198 26.1413 25.0946 26.2993C25.0537 26.3619 24.9932 26.449 24.9602 26.4928C24.846 26.6445 24.6599 27.0696 24.6429 27.2176C24.6373 27.2658 24.6177 27.3411 24.5992 27.3849C24.5379 27.5302 24.5147 28.1097 24.5643 28.2531C24.581 28.3013 24.5962 28.373 24.5982 28.4124C24.6001 28.4519 24.6137 28.5307 24.6284 28.5877C24.6431 28.6446 24.6632 28.7235 24.6731 28.7629C24.683 28.8023 24.7181 28.8919 24.7511 28.962C24.7841 29.0321 24.8205 29.1182 24.832 29.1532C24.8671 29.2606 24.9674 29.4498 25.0556 29.5748C25.1018 29.6402 25.1395 29.6997 25.1395 29.7069C25.1395 29.7288 25.2714 29.8938 25.3663 29.9908C25.4153 30.0409 25.4846 30.1131 25.5202 30.1513C25.5558 30.1895 25.6424 30.2709 25.7125 30.3322C25.7827 30.3935 25.8774 30.4768 25.9231 30.5173C25.9688 30.5579 26.0462 30.6108 26.0952 30.6351C26.1442 30.6593 26.2531 30.7253 26.3372 30.7817C26.4213 30.8382 26.5197 30.8957 26.5559 30.9096C26.5921 30.9234 26.6399 30.9471 26.6622 30.9621C26.6845 30.9771 26.7355 31.0004 26.7756 31.0138C26.8157 31.0272 26.8813 31.0566 26.9214 31.0792C26.9615 31.1018 27.0077 31.1204 27.0241 31.1205C27.0404 31.1206 27.1242 31.1428 27.2103 31.1698C27.2964 31.1968 27.4115 31.2326 27.4662 31.2494C27.5208 31.2662 27.6041 31.28 27.6514 31.28C27.6986 31.28 27.7802 31.295 27.8327 31.3133C27.9131 31.3414 27.9355 31.3436 27.9751 31.3274C28.0043 31.3155 28.0453 31.3127 28.0833 31.32C28.2152 31.3454 28.7305 31.3219 28.8652 31.2843C28.8964 31.2756 28.9501 31.2568 28.9846 31.2424C29.0191 31.228 29.0674 31.2162 29.092 31.2162C29.1459 31.2162 29.242 31.1783 29.3097 31.1304C29.3625 31.0929 29.457 31.0569 29.5026 31.0569C29.5436 31.0569 29.7525 30.9506 29.8452 30.8825C29.8898 30.8498 29.9456 30.813 29.9693 30.8006C30.0598 30.7534 30.3776 30.4607 30.4855 30.3251C30.5165 30.2862 30.5695 30.2226 30.6034 30.1838C30.7141 30.0568 30.8739 29.7152 30.955 29.432C30.9713 29.375 30.9932 29.3034 31.0036 29.2727C31.0515 29.1317 31.0947 28.5105 31.0665 28.3688C31.0573 28.323 31.0541 28.2786 31.0594 28.2703C31.0646 28.2619 31.0542 28.2028 31.0362 28.1389C31.0182 28.075 31.0035 28.0031 31.0035 27.9792C31.0035 27.9552 30.9936 27.912 30.9815 27.8833C30.9694 27.8545 30.9407 27.7772 30.9178 27.7115C30.895 27.6458 30.8687 27.5705 30.8595 27.5442C30.8503 27.5179 30.823 27.4332 30.7989 27.3559C30.769 27.2603 30.7295 27.179 30.6748 27.101C30.6307 27.0381 30.5884 26.9706 30.5809 26.951C30.4977 26.7362 29.91 26.0908 29.6633 25.9434C29.6345 25.9262 29.5887 25.8912 29.5614 25.8656C29.5342 25.84 29.4509 25.7899 29.3762 25.7541C29.3015 25.7184 29.2056 25.6675 29.1631 25.6409C29.1205 25.6144 29.077 25.5927 29.0665 25.5927C29.056 25.5927 29.0045 25.5673 28.9522 25.5363C28.8999 25.5053 28.8389 25.4761 28.8166 25.4715C28.7944 25.4669 28.7324 25.4424 28.6789 25.4171C28.5333 25.3481 28.3279 25.2739 28.2821 25.2737C28.2598 25.2737 28.2088 25.2619 28.1687 25.2477C28.0896 25.2196 28.0083 25.2015 27.8447 25.1757C27.7201 25.1561 27.1112 25.1404 27.095 25.1565ZM28.112 25.4627C28.2249 25.4793 28.3271 25.498 28.4541 25.5254C28.4908 25.5334 28.5564 25.5599 28.5999 25.5845C28.8034 25.6996 28.8426 25.7196 28.8652 25.7198C28.8786 25.72 28.9096 25.7371 28.9342 25.7579C28.9587 25.7787 29.0272 25.8235 29.0862 25.8575C29.1453 25.8914 29.2223 25.9466 29.2573 25.9801C29.2924 26.0135 29.3562 26.0612 29.3991 26.0861C29.4717 26.1282 29.5543 26.1953 29.6568 26.2955C29.7334 26.3704 29.948 26.6031 29.9856 26.6521C30.0058 26.6784 30.0263 26.7034 30.0311 26.7078C30.0359 26.7122 30.0597 26.7421 30.084 26.7741C30.1083 26.8062 30.1376 26.8421 30.1491 26.8538C30.2062 26.912 30.3425 27.1368 30.373 27.2233C30.3921 27.2771 30.4388 27.3821 30.4768 27.4566C30.5149 27.5311 30.5582 27.6386 30.5731 27.6955C30.5879 27.7525 30.6082 27.8242 30.6181 27.8548C30.6504 27.9546 30.6817 28.1154 30.6894 28.2213C30.7158 28.5806 30.7196 28.7353 30.7053 28.8665C30.6902 29.0058 30.6367 29.24 30.5965 29.3425C30.5798 29.3853 30.5661 29.4296 30.5661 29.441C30.5661 29.4524 30.5369 29.5192 30.5013 29.5894C30.4657 29.6596 30.4365 29.7213 30.4365 29.7264C30.4365 29.7316 30.4009 29.7875 30.3575 29.8507C30.314 29.914 30.2674 29.9872 30.2538 30.0135C30.18 30.1565 29.7574 30.5145 29.5294 30.627C29.4715 30.6556 29.3826 30.7067 29.3318 30.7405C29.2565 30.7908 29.2253 30.8021 29.1617 30.8021C29.1138 30.8021 29.0645 30.8138 29.0333 30.8325C29.0031 30.8506 28.9409 30.8658 28.8794 30.8702C28.8226 30.8742 28.747 30.8864 28.7113 30.8974C28.4936 30.9644 27.8761 30.9645 27.6422 30.8976C27.6066 30.8874 27.5446 30.8729 27.5045 30.8654C27.35 30.8366 27.2981 30.8204 27.181 30.7644C27.1145 30.7325 27.0394 30.7065 27.0143 30.7065C26.9892 30.7065 26.9401 30.6921 26.9052 30.6746C26.8703 30.6571 26.8323 30.6427 26.8208 30.6427C26.8093 30.6427 26.7755 30.6222 26.7457 30.5971C26.7159 30.5721 26.6357 30.5278 26.5675 30.4987C26.4993 30.4696 26.4034 30.4125 26.3544 30.3718C26.3054 30.3311 26.2325 30.2752 26.1924 30.2476C25.9693 30.0939 25.6947 29.8413 25.6262 29.7267C25.6053 29.6917 25.5577 29.6307 25.5205 29.5913C25.4232 29.4883 25.3408 29.3676 25.2502 29.1958C25.2066 29.1131 25.1579 29.0292 25.142 29.0093C25.1261 28.9894 25.1037 28.9312 25.0923 28.88C25.0809 28.8287 25.0504 28.735 25.0245 28.6717C24.9987 28.6083 24.9775 28.5387 24.9775 28.5169C24.9775 28.4952 24.9635 28.4394 24.9464 28.3931C24.8965 28.2583 24.8766 27.8192 24.9122 27.6398C24.9226 27.5872 24.937 27.494 24.9442 27.4327C24.9513 27.3713 24.9767 27.2638 25.0005 27.1937C25.0243 27.1236 25.0517 27.0412 25.0614 27.0105C25.1199 26.825 25.2614 26.5973 25.4856 26.3278C25.5566 26.2423 25.7409 26.0799 25.8751 25.9845C25.9115 25.9585 25.9512 25.9276 25.9633 25.9158C25.9754 25.904 26.0155 25.8792 26.0524 25.8607C26.0893 25.8422 26.1419 25.8103 26.1693 25.7898C26.2356 25.7401 26.4254 25.6564 26.4717 25.6564C26.4921 25.6564 26.5488 25.6413 26.5976 25.6228C26.6465 25.6043 26.7193 25.5796 26.7594 25.568C26.7995 25.5564 26.8578 25.5384 26.889 25.5281C26.9462 25.5091 27.0228 25.4946 27.21 25.4674C27.2662 25.4592 27.3169 25.4479 27.3226 25.4423C27.3382 25.427 27.9819 25.4437 28.112 25.4627ZM21.3085 25.7028C21.2308 25.7345 21.1561 25.752 21.0987 25.752C21.0648 25.752 20.9742 25.7725 20.8974 25.7975C20.8206 25.8226 20.725 25.8526 20.6849 25.8642C20.576 25.8958 20.2099 26.0806 20.1478 26.1354C20.118 26.1618 20.0533 26.207 20.004 26.236C19.7958 26.3582 19.4901 26.6463 19.3509 26.8512C19.3123 26.9082 19.2595 26.986 19.2336 27.0242C19.0795 27.2516 18.903 27.5561 18.903 27.5945C18.903 27.6114 18.8694 27.6928 18.8283 27.7754C18.7464 27.9399 18.6762 28.1825 18.6762 28.301C18.6762 28.3426 18.664 28.4044 18.6491 28.4384C18.5944 28.5629 18.5743 29.1233 18.6219 29.1959C18.6295 29.2075 18.6405 29.2958 18.6462 29.3922C18.6583 29.595 18.6758 29.6903 18.7139 29.7618C18.7288 29.7898 18.741 29.8265 18.741 29.8432C18.741 29.86 18.7629 29.9258 18.7896 29.9896C18.8164 30.0533 18.8382 30.1128 18.8382 30.1218C18.8382 30.1308 18.8801 30.2068 18.9314 30.2907C18.9826 30.3747 19.0325 30.4613 19.0423 30.4833C19.0879 30.5854 19.3191 30.8581 19.3997 30.9049C19.4253 30.9198 19.4621 30.9559 19.4816 30.9851C19.5011 31.0143 19.5447 31.0585 19.5785 31.0833C19.6124 31.1081 19.6437 31.1324 19.6482 31.1373C19.6526 31.1421 19.6818 31.1634 19.713 31.1846C19.7441 31.2058 19.7787 31.2318 19.7898 31.2424C19.8009 31.253 19.8775 31.295 19.9599 31.3359C20.0424 31.3767 20.1317 31.4263 20.1584 31.4461C20.227 31.4969 20.2658 31.5156 20.4154 31.5697C20.6538 31.6559 20.6213 31.6481 20.9238 31.6916C20.975 31.699 21.0534 31.718 21.0979 31.7338C21.16 31.7559 21.2219 31.7621 21.3627 31.7605C21.4637 31.7593 21.5598 31.7654 21.5761 31.774C21.5977 31.7853 21.6265 31.7809 21.6813 31.7578C21.7333 31.7359 21.7928 31.726 21.873 31.726C21.9484 31.726 22.0177 31.7153 22.0701 31.6957C22.1819 31.6536 22.2211 31.6406 22.4369 31.574C22.6127 31.5198 22.8283 31.4043 22.9179 31.3164C22.93 31.3045 22.9673 31.2811 23.0009 31.2642C23.0707 31.2292 23.1702 31.1385 23.2284 31.0569C23.2503 31.0263 23.2989 30.9708 23.3366 30.9337C23.4489 30.8229 23.7148 30.4313 23.7451 30.3321C23.7531 30.3058 23.7831 30.2198 23.8118 30.1409C23.9713 29.702 24.0689 28.9367 23.9904 28.7401C23.9762 28.7044 23.9765 28.6753 23.9915 28.6174C24.0116 28.5402 24.0105 28.5317 23.9555 28.3543C23.9469 28.3267 23.9446 28.2751 23.9504 28.2396C23.9571 28.1981 23.9519 28.1479 23.9355 28.0986C23.894 27.9731 23.8571 27.8356 23.8446 27.7593C23.8382 27.7198 23.8134 27.643 23.7897 27.5885C23.7659 27.534 23.7464 27.4811 23.7464 27.471C23.7464 27.4509 23.6742 27.2944 23.5992 27.1519C23.5733 27.1026 23.5521 27.0534 23.5521 27.0425C23.5521 27.0316 23.5278 26.9895 23.4981 26.9489C23.4684 26.9083 23.4177 26.8279 23.3854 26.7702C23.3531 26.7125 23.299 26.6372 23.2652 26.6029C23.2313 26.5686 23.1856 26.5155 23.1635 26.4848C23.1414 26.4541 23.099 26.405 23.0693 26.3757C23.0385 26.3452 23.0192 26.3127 23.0245 26.3C23.0295 26.2877 23.0376 26.2683 23.0423 26.2569C23.0527 26.2318 23.0136 26.1864 22.9365 26.1342C22.9053 26.113 22.8616 26.0771 22.8393 26.0544C22.7777 25.9916 22.6506 25.9108 22.558 25.8755C22.2639 25.7637 22.2439 25.7587 21.9241 25.7183C21.7509 25.6963 21.3491 25.6862 21.3085 25.7028ZM22.078 26.0057C22.2785 26.0196 22.3739 26.0465 22.4371 26.1069C22.449 26.1182 22.4842 26.145 22.5153 26.1665C22.5465 26.1881 22.5932 26.2255 22.619 26.2496C22.6448 26.2738 22.672 26.2936 22.6795 26.2936C22.687 26.2936 22.7036 26.3169 22.7164 26.3454C22.7292 26.3739 22.8059 26.4645 22.8867 26.5468C22.9676 26.6292 23.0337 26.708 23.0338 26.7221C23.0338 26.7469 23.0913 26.8511 23.1137 26.8671C23.1379 26.8844 23.2281 27.0255 23.2281 27.0461C23.2281 27.0581 23.2499 27.1019 23.2767 27.1434C23.3034 27.1848 23.3253 27.2295 23.3253 27.2426C23.3253 27.2557 23.3432 27.3012 23.365 27.3436C23.3869 27.386 23.4191 27.4736 23.4366 27.5382C23.4689 27.6575 23.5322 27.8684 23.5851 28.0333C23.6011 28.0833 23.6106 28.1379 23.6061 28.1547C23.6016 28.1715 23.607 28.2131 23.618 28.2471C23.6843 28.452 23.6801 29.1815 23.6111 29.4208C23.5964 29.4716 23.5844 29.5412 23.5844 29.5754C23.5844 29.6096 23.5657 29.6864 23.5427 29.7459C23.5197 29.8054 23.4954 29.8793 23.4887 29.9099C23.4674 30.0073 23.186 30.5337 23.1145 30.6098C23.0781 30.6486 23.0368 30.6995 23.0228 30.7227C23.0088 30.746 22.9599 30.7871 22.9141 30.814C22.8683 30.841 22.8088 30.8837 22.7818 30.9091C22.649 31.034 22.205 31.2643 22.0618 31.2826C22.0128 31.2889 21.9362 31.3027 21.8917 31.3134C21.8449 31.3246 21.65 31.3354 21.43 31.3391C21.041 31.3456 21.0046 31.3419 20.8469 31.28C20.8068 31.2642 20.7412 31.2426 20.7011 31.232C20.661 31.2213 20.5881 31.196 20.5391 31.1757C20.4901 31.1554 20.4281 31.1339 20.4014 31.1279C20.3103 31.1075 19.9756 30.9013 19.8344 30.7787C19.8077 30.7555 19.7669 30.7265 19.7437 30.7143C19.7205 30.7021 19.6883 30.6721 19.6721 30.6475C19.6559 30.623 19.5832 30.5312 19.5106 30.4436C19.3717 30.2762 19.2594 30.1087 19.2593 30.0689C19.2593 30.0559 19.2461 30.0238 19.23 29.9975C19.1803 29.9162 19.1005 29.7016 19.0641 29.5515C19.045 29.4726 19.0147 29.3703 18.9969 29.3241C18.9741 29.2653 18.9675 29.2222 18.9749 29.1807C18.9956 29.0637 18.9992 28.8504 18.9813 28.806C18.9677 28.7724 18.9683 28.7509 18.9836 28.7184C18.9948 28.6947 19.0062 28.6172 19.009 28.5462C19.0117 28.4752 19.0243 28.3928 19.037 28.363C19.0496 28.3332 19.0654 28.2802 19.0721 28.2452C19.0787 28.2101 19.1005 28.1312 19.1205 28.0699C19.1404 28.0086 19.1653 27.9226 19.1757 27.8787C19.2181 27.7014 19.477 27.2251 19.6035 27.0918C19.6418 27.0515 19.7131 26.9719 19.7619 26.9149C19.8107 26.858 19.8554 26.8078 19.8611 26.8034C19.8669 26.799 19.9252 26.7477 19.9907 26.6893C20.2236 26.4818 20.2854 26.4336 20.357 26.4034C20.3968 26.3866 20.4486 26.3598 20.4721 26.3438C20.5331 26.3024 20.9144 26.1343 20.9473 26.1343C20.9625 26.1343 20.9917 26.1279 21.0121 26.12C21.1789 26.0557 21.3003 26.034 21.6272 26.0103C21.7133 26.004 21.7898 25.993 21.7972 25.9857C21.8045 25.9785 21.8324 25.9773 21.8592 25.9832C21.886 25.9891 21.9844 25.9992 22.078 26.0057ZM27.4964 26.5645C27.4786 26.572 27.4427 26.5786 27.4166 26.5793C27.298 26.5821 26.9963 26.7032 26.8161 26.8204C25.6487 27.5799 25.8808 29.3211 27.208 29.7602C27.9998 30.0222 28.8922 29.6398 29.245 28.8873C29.327 28.7125 29.4073 28.403 29.3972 28.3009C29.3911 28.2388 29.3883 28.2383 29.2459 28.2698C28.9491 28.3355 28.5782 28.287 28.436 28.1638C28.4003 28.133 28.3493 28.0965 28.3226 28.0828C28.1166 27.9775 27.7809 27.6041 27.7801 27.4796C27.78 27.4616 27.7611 27.4221 27.738 27.392C27.6193 27.2364 27.5513 26.8287 27.6161 26.6608C27.6589 26.55 27.6147 26.5145 27.4964 26.5645ZM21.0565 27.1684C19.7823 27.6275 19.6792 29.3469 20.8902 29.94C21.4359 30.2073 22.0532 30.1347 22.5477 29.7451C22.901 29.4668 23.0876 29.0661 23.0866 28.5877C23.0859 28.2389 23.0674 28.1833 22.9797 28.2659C22.7536 28.4784 22.4191 28.5099 22.1833 28.3407C22.1565 28.3216 22.0946 28.2901 22.0456 28.2709C21.9966 28.2517 21.9259 28.2093 21.8886 28.1768C21.8513 28.1443 21.7818 28.0857 21.734 28.0465C21.5684 27.9107 21.4397 27.7177 21.359 27.4845C21.3199 27.3713 21.2897 27.2816 21.264 27.2017C21.2355 27.1131 21.2178 27.1103 21.0565 27.1684ZM31.2824 30.8557C31.3156 30.8779 31.3739 30.9065 31.412 30.9193C31.4501 30.9321 31.5579 30.9783 31.6514 31.022C32.0831 31.2236 32.105 31.2319 32.105 31.1949C32.105 31.1719 31.8476 31.0408 31.6514 30.9638C31.5846 30.9377 31.4898 30.8987 31.4408 30.8773C31.3918 30.8559 31.3226 30.8332 31.2869 30.8269L31.2221 30.8153L31.2824 30.8557ZM30.4365 30.8906C30.4365 30.9049 30.4688 30.929 30.5134 30.9479C30.5558 30.9658 30.6779 31.0222 30.7848 31.0732C30.8917 31.1241 31.0156 31.1801 31.0601 31.1976C31.1047 31.2151 31.1922 31.2559 31.2545 31.2884C31.5858 31.4605 31.9495 31.5672 31.7121 31.4227C31.3534 31.2042 30.4365 30.8218 30.4365 30.8906ZM30.1971 31.1724C30.2039 31.1941 30.2714 31.2293 30.5832 31.3743C30.9823 31.5598 31.0197 31.5729 31.0197 31.5271C31.0197 31.4893 30.9353 31.4423 30.558 31.2699C30.3549 31.1771 30.184 31.131 30.1971 31.1724ZM29.7076 31.2704C29.7076 31.2812 29.8369 31.3437 29.8592 31.3437C29.8679 31.3437 29.8866 31.3535 29.9007 31.3655C29.9147 31.3775 29.9736 31.4068 30.0315 31.4306C30.0894 31.4544 30.2004 31.5033 30.2781 31.5393C30.3559 31.5753 30.4242 31.6001 30.43 31.5944C30.4537 31.5711 30.4164 31.5328 30.3358 31.4976C30.2887 31.4771 30.1955 31.4346 30.1287 31.4032C30.0619 31.3719 29.9781 31.3375 29.9424 31.3268C29.9068 31.3162 29.8631 31.3017 29.8452 31.2946C29.7981 31.276 29.7076 31.26 29.7076 31.2704ZM19.47 31.6126C19.47 31.6382 19.5178 31.666 19.5445 31.6559C19.5658 31.6479 19.567 31.6415 19.5508 31.6223C19.5292 31.5967 19.47 31.5896 19.47 31.6126ZM19.6563 31.6942C19.6618 31.7029 19.6822 31.71 19.7018 31.7099C19.7306 31.7097 19.7327 31.7067 19.713 31.6942C19.681 31.6739 19.6435 31.6739 19.6563 31.6942ZM18.728 31.7438C18.7374 31.7724 18.8254 31.8131 18.9986 31.8692C19.0752 31.894 19.24 31.9569 19.3647 32.0089C19.4894 32.0609 19.6316 32.1186 19.6806 32.137C19.7296 32.1555 19.8298 32.1938 19.9033 32.2223C20.0013 32.2602 20.0418 32.2693 20.055 32.2563C20.0831 32.2287 20.0618 32.211 19.9522 32.171C19.8964 32.1506 19.8288 32.1214 19.8021 32.1061C19.7377 32.0694 19.5044 31.9708 19.3728 31.9246C19.3149 31.9043 19.2274 31.8721 19.1784 31.853C18.9938 31.7811 18.9578 31.769 18.8868 31.7549C18.8467 31.747 18.793 31.7363 18.7673 31.7312C18.7321 31.7241 18.7225 31.7272 18.728 31.7438ZM19.883 31.7821C19.974 31.8243 19.9883 31.8277 19.9883 31.8074C19.9883 31.79 19.8686 31.7415 19.8301 31.7433C19.8147 31.744 19.8385 31.7615 19.883 31.7821ZM18.6438 32.0982C18.6438 32.1192 18.6934 32.1414 18.8604 32.1953C18.9038 32.2093 18.9536 32.2283 18.971 32.2375C18.9885 32.2467 19.0368 32.2637 19.0784 32.2752C19.12 32.2868 19.2379 32.3326 19.3404 32.3771C19.5208 32.4554 19.5834 32.4731 19.5834 32.4457C19.5834 32.4081 19.36 32.2819 19.227 32.2444C19.2047 32.2381 19.11 32.2058 19.0164 32.1725C18.7217 32.0679 18.6438 32.0524 18.6438 32.0982ZM28.0391 32.4429C28.0257 32.4514 27.9951 32.4585 27.971 32.4586C27.947 32.4587 27.885 32.4703 27.8334 32.4842C27.7817 32.4982 27.7103 32.5158 27.6746 32.5233C27.5153 32.5568 27.025 32.7425 26.646 32.9129C26.5127 32.9728 26.328 33.0415 26.1033 33.1147C26.0232 33.1408 25.9248 33.173 25.8847 33.1862C25.8446 33.1994 25.7753 33.2174 25.7308 33.2263C25.6365 33.2449 25.5431 33.2645 25.4352 33.2883C25.1344 33.3546 24.1599 33.3541 23.8274 33.2875C23.7422 33.2705 23.6542 33.2566 23.4225 33.2237C23.276 33.2029 23.1385 33.1803 23.0337 33.1598C22.5269 33.0606 22.311 33.1488 22.4435 33.4008C22.4575 33.4274 22.4723 33.4894 22.4764 33.5387C22.4844 33.6334 22.6232 33.9169 22.6987 33.9925C22.7182 34.012 22.7587 34.0588 22.7887 34.0965C22.8693 34.1976 23.2259 34.4669 23.3901 34.5506C23.4302 34.571 23.4848 34.5991 23.5116 34.6131C23.7108 34.7171 24.2395 34.9281 24.3008 34.9281C24.3198 34.9281 24.3578 34.9348 24.3851 34.943C24.4125 34.9512 24.4859 34.9697 24.5483 34.9841C24.6106 34.9985 24.6908 35.0174 24.7265 35.0261C25.0138 35.0962 25.7532 35.1125 26.1195 35.0569C26.3168 35.0269 26.409 35.0105 26.484 34.9921C26.5733 34.9702 26.6722 34.9484 26.7634 34.9307C26.8013 34.9233 26.8605 34.9054 26.895 34.8909C26.9295 34.8763 26.9683 34.8644 26.9813 34.8644C26.9943 34.8644 27.058 34.8393 27.1228 34.8086C27.1876 34.778 27.2454 34.7529 27.2511 34.7529C27.2796 34.7529 27.6237 34.578 27.7232 34.5129C27.7856 34.4722 27.8658 34.424 27.9014 34.4057C27.9645 34.3735 28.0778 34.2813 28.2725 34.1037C28.8946 33.5363 29.0113 32.6926 28.4959 32.4879C28.3931 32.447 28.081 32.4163 28.0391 32.4429ZM18.6963 32.5106C18.7062 32.5404 18.8067 32.5847 18.8666 32.5855C18.9392 32.5866 18.9325 32.5671 18.8459 32.5257C18.7645 32.4868 18.6858 32.4789 18.6963 32.5106ZM27.995 32.6699C28.0123 32.7182 27.7835 33.1012 27.6533 33.2419C27.5469 33.3568 27.5296 33.3736 27.4257 33.4625C27.3198 33.553 27.2307 33.6157 27.0517 33.7254C26.8489 33.8496 26.7675 33.8926 26.7353 33.8926C26.7213 33.8926 26.6666 33.9141 26.6136 33.9404C26.5607 33.9667 26.5064 33.9882 26.4931 33.9882C26.4798 33.9882 26.445 33.9986 26.4157 34.0112C25.903 34.2333 24.934 34.2149 24.2243 33.9695C24.1976 33.9602 24.1429 33.9418 24.1028 33.9286C24.0627 33.9153 23.9921 33.8875 23.9459 33.8667C23.8996 33.8459 23.8539 33.8289 23.8442 33.8289C23.8175 33.8289 23.6182 33.7274 23.4368 33.6215C23.0867 33.417 23.0288 33.3165 23.2951 33.3752C23.9056 33.5099 24.7995 33.5755 25.1476 33.5111C25.2011 33.5013 25.3104 33.4862 25.3906 33.4777C25.5462 33.4613 25.6539 33.4435 25.7713 33.4148C25.8114 33.405 25.8733 33.3915 25.909 33.3848C25.9446 33.3781 25.9971 33.3606 26.0256 33.3458C26.0541 33.3311 26.0927 33.3191 26.1113 33.3191C26.1299 33.3191 26.1737 33.3048 26.2086 33.2873C26.2436 33.2697 26.2815 33.2554 26.293 33.2554C26.313 33.2554 26.503 33.1788 26.8728 33.0216C27.2666 32.8542 27.485 32.7716 27.6017 32.7458C27.6547 32.7341 27.7843 32.6968 27.8771 32.6666C27.9389 32.6465 27.987 32.6478 27.995 32.6699ZM25.8493 41.6602C25.8862 42.9077 25.3978 43.9585 24.3863 44.8077C23.9657 45.1608 23.9664 45.1644 24.3027 44.3906C24.4567 44.036 24.636 43.6168 24.701 43.4591C24.8992 42.9777 25.4104 42.0488 25.7425 41.5664C25.8297 41.4396 25.8431 41.4514 25.8493 41.6602ZM29.0588 43.9689C29.0794 44.0158 29.1165 44.1768 29.1413 44.3273C29.2025 44.6994 29.2157 44.7579 29.2609 44.8575C29.2855 44.9117 29.3026 44.9787 29.3026 45.0205C29.3026 45.0596 29.3098 45.1221 29.3187 45.1595C29.3952 45.4828 29.4261 45.591 29.462 45.662C29.4784 45.6946 29.501 45.7571 29.5122 45.8009C29.5357 45.893 29.5859 46.0251 29.629 46.1082C29.6455 46.1401 29.659 46.1783 29.659 46.1933C29.659 46.2238 29.6892 46.2957 29.7865 46.4963C29.8233 46.5721 29.8533 46.6388 29.8533 46.6446C29.8533 46.6504 29.8747 46.6815 29.9007 46.7139C29.9268 46.7462 29.9602 46.8097 29.975 46.8549C29.9922 46.9073 30.028 46.9639 30.0738 47.011C30.171 47.1107 30.2421 47.2094 30.2421 47.2445C30.2421 47.2604 30.2544 47.2988 30.2695 47.3299C30.3121 47.4178 30.2839 47.4215 30.1044 47.3517C29.6192 47.1629 28.8996 46.9621 28.4522 46.8905C28.1743 46.846 28.1738 46.8456 28.2258 46.7351C28.2478 46.6883 28.2659 46.6414 28.2659 46.6308C28.2659 46.6203 28.2889 46.5762 28.317 46.5329C28.3452 46.4895 28.3809 46.4218 28.3963 46.3824C28.4118 46.343 28.4543 46.2396 28.4909 46.1527C28.5275 46.0659 28.5574 45.9789 28.5574 45.9595C28.5574 45.9401 28.5767 45.883 28.6002 45.8325C28.6428 45.7409 28.6616 45.682 28.6865 45.5619C28.6938 45.5269 28.7162 45.4552 28.7363 45.4026C28.7564 45.3501 28.7794 45.2748 28.7874 45.2354C28.7954 45.1959 28.8094 45.1278 28.8184 45.084C28.8275 45.0402 28.8401 44.9506 28.8464 44.8849C28.8527 44.8192 28.8677 44.748 28.8798 44.7267C28.9084 44.6766 28.9295 44.5409 28.9456 44.3034C28.9588 44.109 28.9739 44.0291 29.0097 43.9633C29.0207 43.9431 29.026 43.9171 29.0215 43.9055C29.0169 43.8938 29.0182 43.8794 29.0243 43.8733C29.0304 43.8673 29.0374 43.8791 29.04 43.8996C29.0426 43.9202 29.0511 43.9513 29.0588 43.9689Z" fill="black"/>
<path d="M30.3061 46.4772C30.2722 46.4109 30.2421 46.1874 30.2622 46.1519C30.295 46.0944 30.5123 46.215 30.5675 46.3213C30.5854 46.3559 30.6353 46.4271 30.6784 46.4797C30.8105 46.641 30.8637 46.8578 30.7901 46.935C30.678 47.0522 30.4437 46.8703 30.3555 46.5974C30.3442 46.5624 30.3219 46.5083 30.3061 46.4772Z" fill="#AC39B0"/>
<path d="M29.7084 44.2317C29.6169 44.2317 29.5554 44.1169 29.5938 44.0177C29.6158 43.9606 29.6669 43.9655 29.7335 44.031C29.8177 44.1138 29.803 44.2317 29.7084 44.2317Z" fill="#AC39B0"/>
<path d="M19.389 41.1652C19.2578 41.1178 19.2692 41.0201 19.4087 40.9961C19.522 40.9766 19.8076 40.9975 19.9073 41.0326C20.0755 41.0916 20.0871 41.0979 20.1106 41.1426C20.1841 41.2824 20.0523 41.3864 19.868 41.3341C19.7742 41.3075 19.6238 41.2565 19.5348 41.2211C19.4858 41.2015 19.4202 41.1764 19.389 41.1652Z" fill="#AC39B0"/>
<path d="M16.2986 40.8376C16.3189 40.8371 16.361 40.8272 16.3922 40.8156C16.7473 40.6834 16.9908 40.9328 16.6902 41.1207C16.4483 41.272 15.8577 41.3004 15.8577 41.1608C15.8577 41.0891 16.1975 40.84 16.2986 40.8376Z" fill="#AC39B0"/>
<path d="M13.5036 42.2085C13.2328 42.2085 13.2711 41.9936 13.5673 41.8506C13.7203 41.7767 13.8099 41.7751 13.8795 41.8451C14.0345 42.0011 13.8199 42.2085 13.5036 42.2085Z" fill="#AC39B0"/>
<path d="M24.597 34.4422C24.4349 34.506 24.1621 34.5697 24.0459 34.5936C24.2458 34.6653 24.7299 34.8166 25.067 34.8485C25.4884 34.8883 25.8692 34.9122 26.7768 34.6812C27.5029 34.4964 28.0248 34.1103 28.195 33.9404H27.3117L27.2631 33.805C27.0443 33.9271 26.5208 34.1937 26.1772 34.2829C25.8336 34.3721 25.2398 34.3467 24.9859 34.3228C24.9238 34.336 24.759 34.3785 24.597 34.4422Z" fill="#A6609A"/>
<path d="M33.965 28.9807C33.8111 28.4072 33.6247 28.1364 33.1304 27.4354C32.9197 27.1779 32.4286 26.6086 32.1498 26.392C31.8014 26.1211 31.38 25.5715 31.5339 25.237C31.6879 24.9024 32.3281 24.9741 32.9926 25.5237C33.6571 26.0733 34.2081 26.8778 34.4918 27.8656C34.7754 28.8533 34.7673 30.5658 34.4918 30.6057C34.2162 30.6455 34.119 29.5542 33.965 28.9807Z" fill="#F2E8FF"/>
<defs>
<filter id="filter0_f_1_30" x="-182.745" y="-171.094" width="406.305" height="404.54" filterUnits="userSpaceOnUse" color-interpolation-filters="sRGB">
<feFlood flood-opacity="0" result="BackgroundImageFix"/>
<feBlend mode="normal" in="SourceGraphic" in2="BackgroundImageFix" result="shape"/>
<feGaussianBlur stdDeviation="100" result="effect1_foregroundBlur_1_30"/>
</filter>
<filter id="filter1_f_1_30" x="-172.583" y="-172.002" width="406.305" height="404.54" filterUnits="userSpaceOnUse" color-interpolation-filters="sRGB">
<feFlood flood-opacity="0" result="BackgroundImageFix"/>
<feBlend mode="normal" in="SourceGraphic" in2="BackgroundImageFix" result="shape"/>
<feGaussianBlur stdDeviation="100" result="effect1_foregroundBlur_1_30"/>
</filter>
<linearGradient id="paint0_linear_1_30" x1="23.8109" y1="21.7374" x2="23.8109" y2="48.5808" gradientUnits="userSpaceOnUse">
<stop stop-color="#BB89FF"/>
<stop offset="1" stop-color="#887AFF"/>
</linearGradient>
<linearGradient id="paint1_linear_1_30" x1="23.8109" y1="21.7374" x2="23.8109" y2="48.5808" gradientUnits="userSpaceOnUse">
<stop stop-color="#BB89FF"/>
<stop offset="1" stop-color="#887AFF"/>
</linearGradient>
<linearGradient id="paint2_linear_1_30" x1="24.6956" y1="0" x2="24.6956" y2="45.6013" gradientUnits="userSpaceOnUse">
<stop stop-color="#AFAFC1" stop-opacity="0.7"/>
<stop offset="1" stop-color="#AFAFC1" stop-opacity="0"/>
</linearGradient>
</defs>
</svg>
