<svg id="svg" version="1.1" xmlns="http://www.w3.org/2000/svg" xmlns:xlink="http://www.w3.org/1999/xlink" width="400" height="400" viewBox="0, 0, 400,400"><g id="svgg"><path id="path0" d="M185.935 2.598 C 185.800 2.734,180.478 3.164,178.520 3.197 C 178.036 3.205,177.530 3.389,177.396 3.606 C 177.262 3.823,176.938 3.997,176.676 3.994 C 176.386 3.990,176.434 3.828,176.800 3.577 C 177.226 3.286,176.819 3.246,175.400 3.439 C 174.300 3.589,173.287 3.886,173.148 4.101 C 173.002 4.328,172.804 4.263,172.674 3.945 C 172.493 3.505,172.348 3.525,171.919 4.048 C 171.573 4.470,170.900 4.658,169.994 4.587 C 169.227 4.526,168.428 4.583,168.218 4.713 C 168.007 4.843,166.885 4.993,165.724 5.047 C 164.563 5.101,163.385 5.287,163.106 5.460 C 162.828 5.634,162.185 5.722,161.679 5.656 C 161.172 5.591,160.542 5.711,160.279 5.923 C 160.015 6.136,158.990 6.454,158.000 6.631 C 157.010 6.808,156.065 6.986,155.900 7.026 C 155.735 7.067,155.156 7.123,154.613 7.150 C 153.863 7.188,153.679 7.369,153.850 7.900 C 154.019 8.425,153.980 8.466,153.692 8.065 C 153.232 7.422,151.360 7.618,151.495 8.295 C 151.550 8.569,151.335 8.673,150.990 8.541 C 150.660 8.414,150.088 8.556,149.718 8.855 C 149.162 9.306,149.102 9.307,149.371 8.860 C 149.640 8.415,149.535 8.407,148.775 8.813 C 148.268 9.085,147.174 9.357,146.344 9.419 C 144.704 9.541,143.884 9.889,144.165 10.344 C 144.263 10.503,143.705 10.650,142.924 10.670 C 142.143 10.691,141.391 10.864,141.252 11.054 C 141.113 11.244,140.400 11.436,139.666 11.479 C 138.933 11.522,138.060 11.784,137.726 12.061 C 137.392 12.338,136.846 12.605,136.511 12.654 C 133.851 13.045,131.877 13.783,131.702 14.452 C 131.595 14.863,131.337 15.200,131.130 15.200 C 130.922 15.200,130.864 15.020,131.000 14.800 C 131.311 14.297,131.221 14.300,129.560 14.851 C 128.812 15.099,127.975 15.584,127.700 15.928 C 127.287 16.444,127.199 16.453,127.194 15.976 C 127.189 15.514,127.122 15.504,126.854 15.927 C 126.670 16.216,126.268 16.501,125.960 16.559 C 123.831 16.962,121.947 17.740,121.479 18.409 C 121.176 18.841,120.808 19.074,120.660 18.927 C 120.512 18.779,120.110 19.005,119.766 19.429 C 119.422 19.853,119.255 19.975,119.394 19.700 C 119.545 19.402,119.386 19.200,119.000 19.200 C 118.644 19.200,118.463 19.378,118.597 19.595 C 118.732 19.813,118.594 19.896,118.291 19.780 C 117.988 19.663,117.228 20.071,116.601 20.684 C 115.975 21.298,115.596 21.530,115.761 21.200 C 115.949 20.822,115.851 20.853,115.496 21.286 C 115.122 21.741,114.798 21.838,114.535 21.575 C 114.271 21.311,113.810 21.432,113.169 21.934 C 112.636 22.350,111.792 22.818,111.294 22.974 C 110.796 23.130,110.481 23.408,110.595 23.591 C 110.708 23.775,110.413 23.824,109.938 23.700 C 109.347 23.545,109.165 23.620,109.361 23.937 C 109.522 24.198,109.419 24.397,109.124 24.394 C 108.323 24.385,102.813 27.298,103.014 27.623 C 103.112 27.781,102.878 27.885,102.496 27.855 C 102.098 27.824,101.850 28.035,101.916 28.349 C 101.990 28.698,101.809 28.812,101.416 28.662 C 101.077 28.532,100.800 28.599,100.800 28.813 C 100.800 29.026,100.665 29.164,100.500 29.121 C 99.764 28.926,98.457 29.682,98.651 30.190 C 98.789 30.550,98.610 30.701,98.131 30.630 C 97.306 30.507,95.962 31.215,96.222 31.635 C 96.315 31.786,96.078 31.885,95.696 31.855 C 95.313 31.825,95.033 31.988,95.072 32.217 C 95.112 32.446,94.777 32.662,94.328 32.695 C 93.357 32.769,91.929 33.962,92.230 34.449 C 92.346 34.637,92.181 34.691,91.862 34.568 C 91.543 34.446,90.917 34.737,90.471 35.215 C 90.026 35.694,89.467 35.965,89.231 35.819 C 88.994 35.673,88.800 35.734,88.800 35.955 C 88.800 36.176,88.305 36.603,87.700 36.905 C 87.095 37.207,86.649 37.680,86.710 37.956 C 86.770 38.233,86.635 38.345,86.410 38.206 C 86.184 38.067,86.000 38.143,86.000 38.376 C 86.000 38.609,85.865 38.762,85.700 38.715 C 85.247 38.587,83.484 39.630,82.759 40.456 C 82.407 40.857,82.023 41.089,81.905 40.972 C 81.787 40.854,81.356 41.184,80.946 41.706 C 80.536 42.227,80.020 42.719,79.800 42.798 C 79.186 43.020,78.300 43.995,78.671 44.040 C 78.852 44.062,78.550 44.213,78.000 44.375 C 77.429 44.544,77.057 44.913,77.133 45.235 C 77.207 45.546,77.138 45.671,76.981 45.514 C 76.472 45.005,75.200 46.002,75.194 46.914 C 75.190 47.497,75.080 47.631,74.874 47.306 C 74.631 46.924,74.360 46.953,73.674 47.434 C 73.186 47.775,72.907 48.250,73.055 48.489 C 73.214 48.746,73.138 48.809,72.869 48.643 C 72.620 48.489,71.827 48.901,71.108 49.560 C 67.220 53.123,64.611 55.772,64.700 56.067 C 64.755 56.250,64.489 56.400,64.108 56.400 C 63.194 56.400,56.400 63.180,56.400 64.092 C 56.400 64.481,56.250 64.755,56.067 64.700 C 55.784 64.615,54.123 66.241,50.013 70.623 C 47.980 72.791,45.233 76.530,45.434 76.855 C 45.558 77.056,45.437 77.170,45.165 77.110 C 44.893 77.049,44.538 77.450,44.375 78.000 C 44.213 78.550,44.062 78.852,44.040 78.671 C 43.995 78.300,43.020 79.186,42.798 79.800 C 42.719 80.020,42.235 80.529,41.723 80.932 C 41.211 81.335,40.895 81.830,41.020 82.032 C 41.145 82.234,41.046 82.400,40.800 82.400 C 40.554 82.400,40.464 82.580,40.600 82.800 C 40.736 83.020,40.570 83.200,40.231 83.200 C 39.892 83.200,39.502 83.650,39.364 84.200 C 39.226 84.750,38.923 85.200,38.690 85.200 C 38.457 85.200,38.381 85.314,38.520 85.453 C 38.659 85.592,38.329 86.055,37.786 86.482 C 37.244 86.909,36.800 87.521,36.800 87.842 C 36.800 88.163,36.541 88.524,36.225 88.646 C 35.909 88.767,35.748 89.120,35.867 89.430 C 35.986 89.740,35.808 90.099,35.472 90.228 C 35.137 90.356,34.754 90.743,34.622 91.088 C 34.413 91.630,34.471 91.639,35.055 91.157 C 35.672 90.647,35.683 90.673,35.184 91.474 C 34.885 91.955,34.520 92.274,34.373 92.184 C 33.904 91.893,32.742 93.495,32.873 94.252 C 32.943 94.653,32.773 94.986,32.496 94.991 C 31.820 95.003,30.499 97.232,30.632 98.137 C 30.701 98.611,30.548 98.789,30.190 98.651 C 29.682 98.457,28.926 99.764,29.121 100.500 C 29.164 100.665,29.026 100.800,28.813 100.800 C 28.599 100.800,28.540 101.100,28.681 101.466 C 28.842 101.887,28.778 102.033,28.505 101.865 C 27.916 101.501,24.672 107.467,24.928 108.445 C 25.105 109.122,24.769 109.385,23.900 109.247 C 23.735 109.221,23.573 109.515,23.539 109.900 C 23.506 110.285,23.458 110.794,23.433 111.031 C 23.407 111.268,22.894 112.049,22.291 112.765 C 21.688 113.482,21.301 114.240,21.432 114.451 C 21.562 114.662,21.451 115.097,21.185 115.418 C 20.920 115.738,20.821 116.000,20.967 116.000 C 21.112 116.000,20.857 116.401,20.400 116.892 C 19.943 117.383,19.465 118.238,19.337 118.792 C 19.210 119.346,18.702 120.520,18.209 121.400 C 17.413 122.823,16.909 124.219,16.564 125.960 C 16.503 126.268,16.216 126.670,15.927 126.854 C 15.504 127.122,15.514 127.189,15.976 127.194 C 16.453 127.199,16.444 127.287,15.928 127.700 C 15.584 127.975,15.099 128.812,14.851 129.560 C 14.300 131.221,14.297 131.311,14.800 131.000 C 15.020 130.864,15.200 130.922,15.200 131.130 C 15.200 131.337,14.863 131.595,14.452 131.702 C 13.783 131.877,13.045 133.851,12.654 136.511 C 12.605 136.846,12.338 137.392,12.061 137.726 C 11.784 138.060,11.522 138.933,11.479 139.666 C 11.436 140.400,11.244 141.113,11.054 141.252 C 10.864 141.391,10.691 142.143,10.670 142.924 C 10.650 143.705,10.503 144.263,10.344 144.165 C 9.889 143.884,9.541 144.704,9.419 146.344 C 9.357 147.174,9.085 148.268,8.813 148.775 C 8.407 149.535,8.415 149.640,8.860 149.371 C 9.307 149.102,9.306 149.162,8.855 149.718 C 8.556 150.088,8.414 150.660,8.541 150.990 C 8.673 151.335,8.569 151.550,8.295 151.495 C 7.618 151.360,7.422 153.232,8.065 153.692 C 8.466 153.980,8.425 154.019,7.900 153.850 C 7.182 153.619,7.164 153.686,7.070 156.900 C 7.053 157.505,6.895 158.000,6.719 158.000 C 6.544 158.000,6.400 158.439,6.400 158.976 C 6.400 159.513,6.208 160.071,5.974 160.216 C 5.740 160.361,5.598 160.957,5.659 161.540 C 5.720 162.123,5.632 162.825,5.462 163.100 C 5.275 163.402,5.360 163.602,5.676 163.606 C 6.084 163.611,6.077 163.690,5.644 163.964 C 5.338 164.158,5.042 165.100,4.985 166.058 C 4.929 167.016,4.777 168.070,4.648 168.400 C 4.519 168.730,4.475 169.539,4.551 170.197 C 4.638 170.956,4.453 171.575,4.044 171.889 C 3.512 172.299,3.495 172.447,3.945 172.744 C 4.329 172.997,4.353 173.149,4.025 173.258 C 3.744 173.352,3.500 174.634,3.408 176.500 C 3.324 178.197,3.130 179.789,2.977 180.038 C 2.823 180.286,2.946 180.647,3.249 180.839 C 3.552 181.031,3.606 181.191,3.368 181.194 C 3.120 181.197,2.901 182.178,2.853 183.500 C 2.807 184.765,2.677 186.108,2.563 186.485 C 2.449 186.862,2.564 187.558,2.818 188.033 C 3.072 188.508,3.101 188.786,2.883 188.651 C 2.355 188.325,2.345 211.235,2.870 217.278 C 3.087 219.765,3.254 222.392,3.243 223.116 C 3.232 223.841,3.353 224.353,3.512 224.255 C 3.670 224.157,3.741 224.824,3.670 225.738 C 3.594 226.696,3.798 227.897,4.149 228.571 C 4.485 229.216,4.675 229.879,4.572 230.046 C 4.297 230.491,5.644 239.364,6.024 239.607 C 6.202 239.721,6.435 240.542,6.542 241.431 C 6.931 244.657,7.679 248.211,8.068 248.681 C 8.287 248.945,8.522 249.575,8.591 250.081 C 8.925 252.535,9.786 255.507,10.616 257.069 C 11.122 258.021,11.385 258.800,11.201 258.800 C 10.790 258.800,11.484 261.436,12.194 262.574 C 12.478 263.028,12.827 264.067,12.970 264.883 C 13.113 265.698,13.620 267.228,14.097 268.283 C 14.574 269.337,14.926 270.340,14.878 270.511 C 14.831 270.682,15.064 270.927,15.396 271.054 C 15.728 271.181,16.000 271.457,16.000 271.666 C 16.000 271.876,15.837 271.946,15.637 271.823 C 15.438 271.700,15.369 271.959,15.484 272.399 C 15.599 272.840,15.852 273.200,16.047 273.200 C 16.241 273.200,16.400 273.549,16.400 273.976 C 16.400 274.403,16.560 274.851,16.755 274.972 C 16.950 275.093,17.224 275.805,17.365 276.555 C 17.506 277.306,17.886 278.140,18.211 278.409 C 18.535 278.678,18.800 279.217,18.800 279.606 C 18.800 279.996,19.070 280.418,19.400 280.545 C 19.730 280.671,19.997 281.006,19.994 281.287 C 19.990 281.646,19.871 281.620,19.600 281.200 C 18.828 280.005,19.226 281.125,20.431 283.536 C 21.108 284.891,21.808 286.000,21.987 286.000 C 22.165 286.000,22.423 286.600,22.561 287.333 C 22.763 288.407,22.984 288.650,23.706 288.584 C 24.197 288.540,24.549 288.281,24.486 288.010 C 24.319 287.287,25.205 286.373,25.953 286.495 C 26.322 286.555,26.551 286.367,26.486 286.058 C 26.324 285.290,27.188 284.370,27.953 284.495 C 28.322 284.555,28.551 284.367,28.486 284.058 C 28.324 283.290,29.188 282.370,29.953 282.495 C 30.322 282.555,30.551 282.367,30.486 282.058 C 30.324 281.290,31.188 280.370,31.953 280.495 C 32.322 280.555,32.551 280.367,32.486 280.058 C 32.324 279.290,33.188 278.370,33.953 278.495 C 34.322 278.555,34.551 278.367,34.486 278.058 C 34.324 277.290,35.188 276.370,35.953 276.495 C 36.322 276.555,36.551 276.367,36.486 276.058 C 36.324 275.290,37.188 274.370,37.953 274.495 C 38.322 274.555,38.551 274.367,38.486 274.058 C 38.324 273.290,39.188 272.370,39.953 272.495 C 40.322 272.555,40.551 272.367,40.486 272.058 C 40.324 271.290,41.188 270.370,41.953 270.495 C 42.322 270.555,42.551 270.367,42.486 270.058 C 42.324 269.290,43.188 268.370,43.953 268.495 C 44.322 268.555,44.551 268.367,44.486 268.058 C 44.324 267.290,45.188 266.370,45.953 266.495 C 46.322 266.555,46.551 266.367,46.486 266.058 C 46.324 265.290,47.188 264.370,47.953 264.495 C 48.322 264.555,48.551 264.367,48.486 264.058 C 48.324 263.290,49.188 262.370,49.953 262.495 C 50.322 262.555,50.551 262.367,50.486 262.058 C 50.324 261.290,51.188 260.370,51.953 260.495 C 52.322 260.555,52.551 260.367,52.486 260.058 C 52.324 259.290,53.188 258.370,53.953 258.495 C 54.322 258.555,54.551 258.367,54.486 258.058 C 54.324 257.290,55.188 256.370,55.953 256.495 C 56.322 256.555,56.551 256.367,56.486 256.058 C 56.324 255.290,57.188 254.370,57.953 254.495 C 58.322 254.555,58.551 254.367,58.486 254.058 C 58.324 253.290,59.188 252.370,59.953 252.495 C 60.322 252.555,60.551 252.367,60.486 252.058 C 60.324 251.290,61.188 250.370,61.953 250.495 C 62.322 250.555,62.551 250.367,62.486 250.058 C 62.324 249.290,63.188 248.370,63.953 248.495 C 64.322 248.555,64.551 248.367,64.486 248.058 C 64.324 247.290,65.188 246.370,65.953 246.495 C 66.322 246.555,66.551 246.367,66.486 246.058 C 66.324 245.290,67.188 244.370,67.953 244.495 C 68.322 244.555,68.551 244.367,68.486 244.058 C 68.324 243.290,69.188 242.370,69.953 242.495 C 70.322 242.555,70.551 242.367,70.486 242.058 C 70.324 241.290,71.188 240.370,71.953 240.495 C 72.322 240.555,72.551 240.367,72.486 240.058 C 72.324 239.290,73.188 238.370,73.953 238.495 C 74.322 238.555,74.551 238.367,74.486 238.058 C 74.324 237.290,75.188 236.370,75.953 236.495 C 76.322 236.555,76.551 236.367,76.486 236.058 C 76.324 235.290,77.188 234.370,77.953 234.495 C 78.322 234.555,78.551 234.367,78.486 234.058 C 78.324 233.290,79.188 232.370,79.953 232.495 C 80.322 232.555,80.551 232.367,80.486 232.058 C 80.324 231.290,81.188 230.370,81.953 230.495 C 82.322 230.555,82.551 230.367,82.486 230.058 C 82.324 229.290,83.188 228.370,83.953 228.495 C 84.322 228.555,84.551 228.367,84.486 228.058 C 84.324 227.290,85.188 226.370,85.953 226.495 C 86.322 226.555,86.551 226.367,86.486 226.058 C 86.324 225.290,87.188 224.370,87.953 224.495 C 88.322 224.555,88.551 224.367,88.486 224.058 C 88.324 223.290,89.188 222.370,89.953 222.495 C 90.322 222.555,90.551 222.367,90.486 222.058 C 90.324 221.290,91.188 220.370,91.953 220.495 C 92.322 220.555,92.551 220.367,92.486 220.058 C 92.324 219.290,93.188 218.370,93.953 218.495 C 94.322 218.555,94.551 218.367,94.486 218.058 C 94.324 217.290,95.188 216.370,95.953 216.495 C 96.322 216.555,96.551 216.367,96.486 216.058 C 96.324 215.290,97.188 214.370,97.953 214.495 C 98.322 214.555,98.551 214.367,98.486 214.058 C 98.324 213.290,99.188 212.370,99.953 212.495 C 100.322 212.555,100.551 212.367,100.486 212.058 C 100.324 211.290,101.188 210.370,101.953 210.495 C 102.322 210.555,102.551 210.367,102.486 210.058 C 102.324 209.290,103.188 208.370,103.953 208.495 C 104.357 208.560,104.560 208.357,104.495 207.953 C 104.370 207.188,105.290 206.324,106.058 206.486 C 106.367 206.551,106.555 206.322,106.495 205.953 C 106.370 205.188,107.290 204.324,108.058 204.486 C 108.367 204.551,108.555 204.322,108.495 203.953 C 108.370 203.188,109.290 202.324,110.058 202.486 C 110.367 202.551,110.555 202.322,110.495 201.953 C 110.370 201.188,111.290 200.324,112.058 200.486 C 112.367 200.551,112.555 200.322,112.495 199.953 C 112.370 199.188,113.290 198.324,114.058 198.486 C 114.367 198.551,114.555 198.322,114.495 197.953 C 114.370 197.188,115.290 196.324,116.058 196.486 C 116.367 196.551,116.555 196.322,116.495 195.953 C 116.370 195.188,117.290 194.324,118.058 194.486 C 118.367 194.551,118.555 194.322,118.495 193.953 C 118.370 193.188,119.290 192.324,120.058 192.486 C 120.367 192.551,120.555 192.322,120.495 191.953 C 120.370 191.188,121.290 190.324,122.058 190.486 C 122.367 190.551,122.555 190.322,122.495 189.953 C 122.370 189.188,123.290 188.324,124.058 188.486 C 124.367 188.551,124.555 188.322,124.495 187.953 C 124.370 187.188,125.290 186.324,126.058 186.486 C 126.367 186.551,126.555 186.322,126.495 185.953 C 126.370 185.188,127.290 184.324,128.058 184.486 C 128.367 184.551,128.555 184.322,128.495 183.953 C 128.370 183.188,129.290 182.324,130.058 182.486 C 130.367 182.551,130.555 182.322,130.495 181.953 C 130.370 181.188,131.290 180.324,132.058 180.486 C 132.367 180.551,132.555 180.322,132.495 179.953 C 132.370 179.188,133.290 178.324,134.058 178.486 C 134.367 178.551,134.555 178.322,134.495 177.953 C 134.370 177.188,135.290 176.324,136.058 176.486 C 136.367 176.551,136.555 176.322,136.495 175.953 C 136.370 175.188,137.290 174.324,138.058 174.486 C 138.367 174.551,138.555 174.322,138.495 173.953 C 138.370 173.188,139.290 172.324,140.058 172.486 C 140.367 172.551,140.555 172.322,140.495 171.953 C 140.370 171.188,141.290 170.324,142.058 170.486 C 142.367 170.551,142.555 170.322,142.495 169.953 C 142.370 169.188,143.290 168.324,144.058 168.486 C 144.367 168.551,144.555 168.322,144.495 167.953 C 144.370 167.188,145.290 166.324,146.058 166.486 C 146.367 166.551,146.555 166.322,146.495 165.953 C 146.370 165.188,147.290 164.324,148.058 164.486 C 148.367 164.551,148.555 164.322,148.495 163.953 C 148.370 163.188,149.290 162.324,150.058 162.486 C 150.367 162.551,150.555 162.322,150.495 161.953 C 150.370 161.188,151.290 160.324,152.058 160.486 C 152.367 160.551,152.555 160.322,152.495 159.953 C 152.370 159.188,153.290 158.324,154.058 158.486 C 154.367 158.551,154.555 158.322,154.495 157.953 C 154.370 157.188,155.290 156.324,156.058 156.486 C 156.367 156.551,156.555 156.322,156.495 155.953 C 156.370 155.188,157.290 154.324,158.058 154.486 C 158.367 154.551,158.555 154.322,158.495 153.953 C 158.370 153.188,159.290 152.324,160.058 152.486 C 160.367 152.551,160.555 152.322,160.495 151.953 C 160.370 151.188,161.290 150.324,162.058 150.486 C 162.367 150.551,162.555 150.322,162.495 149.953 C 162.370 149.188,163.290 148.324,164.058 148.486 C 164.356 148.549,164.549 148.356,164.486 148.058 C 164.324 147.290,165.188 146.370,165.953 146.495 C 166.322 146.555,166.551 146.367,166.486 146.058 C 166.324 145.290,167.188 144.370,167.953 144.495 C 168.322 144.555,168.551 144.367,168.486 144.058 C 168.324 143.290,169.188 142.370,169.953 142.495 C 170.322 142.555,170.551 142.367,170.486 142.058 C 170.324 141.290,171.188 140.370,171.953 140.495 C 172.322 140.555,172.551 140.367,172.486 140.058 C 172.324 139.290,173.188 138.370,173.953 138.495 C 174.322 138.555,174.551 138.367,174.486 138.058 C 174.324 137.290,175.188 136.370,175.953 136.495 C 176.322 136.555,176.551 136.367,176.486 136.058 C 176.324 135.290,177.188 134.370,177.953 134.495 C 178.322 134.555,178.551 134.367,178.486 134.058 C 178.324 133.290,179.188 132.370,179.953 132.495 C 180.322 132.555,180.551 132.367,180.486 132.058 C 180.324 131.290,181.188 130.370,181.953 130.495 C 182.322 130.555,182.551 130.367,182.486 130.058 C 182.324 129.290,183.188 128.370,183.953 128.495 C 184.322 128.555,184.551 128.367,184.486 128.058 C 184.324 127.290,185.188 126.370,185.953 126.495 C 186.322 126.555,186.551 126.367,186.486 126.058 C 186.324 125.290,187.188 124.370,187.953 124.495 C 188.322 124.555,188.551 124.367,188.486 124.058 C 188.324 123.290,189.188 122.370,189.953 122.495 C 190.322 122.555,190.551 122.367,190.486 122.058 C 190.324 121.290,191.188 120.370,191.953 120.495 C 192.322 120.555,192.551 120.367,192.486 120.058 C 192.324 119.290,193.188 118.370,193.953 118.495 C 194.322 118.555,194.551 118.367,194.486 118.058 C 194.324 117.290,195.188 116.370,195.953 116.495 C 196.322 116.555,196.551 116.367,196.486 116.058 C 196.324 115.290,197.188 114.370,197.953 114.495 C 198.326 114.555,198.551 114.367,198.483 114.050 C 198.355 113.445,199.499 112.000,200.106 112.000 C 200.317 112.000,200.145 112.315,199.725 112.700 C 199.306 113.085,199.151 113.290,199.381 113.155 C 199.985 112.801,201.201 112.875,200.968 113.252 C 200.664 113.744,202.371 115.265,202.876 114.953 C 203.143 114.788,203.212 114.857,203.047 115.124 C 202.687 115.706,204.294 117.313,204.876 116.953 C 205.143 116.788,205.212 116.857,205.047 117.124 C 204.687 117.706,206.294 119.313,206.876 118.953 C 207.143 118.788,207.212 118.857,207.047 119.124 C 206.687 119.706,208.294 121.313,208.876 120.953 C 209.143 120.788,209.212 120.857,209.047 121.124 C 208.687 121.706,210.294 123.313,210.876 122.953 C 211.143 122.788,211.212 122.857,211.047 123.124 C 210.687 123.706,212.294 125.313,212.876 124.953 C 213.143 124.788,213.212 124.857,213.047 125.124 C 212.687 125.706,214.294 127.313,214.876 126.953 C 215.143 126.788,215.212 126.857,215.047 127.124 C 214.687 127.706,216.294 129.313,216.876 128.953 C 217.143 128.788,217.212 128.857,217.047 129.124 C 216.687 129.706,218.294 131.313,218.876 130.953 C 219.143 130.788,219.212 130.857,219.047 131.124 C 218.687 131.706,220.294 133.313,220.876 132.953 C 221.143 132.788,221.212 132.857,221.047 133.124 C 220.687 133.706,222.294 135.313,222.876 134.953 C 223.143 134.788,223.212 134.857,223.047 135.124 C 222.687 135.706,224.294 137.313,224.876 136.953 C 225.143 136.788,225.212 136.857,225.047 137.124 C 224.687 137.706,226.294 139.313,226.876 138.953 C 227.143 138.788,227.212 138.857,227.047 139.124 C 226.687 139.706,228.294 141.313,228.876 140.953 C 229.143 140.788,229.212 140.857,229.047 141.124 C 228.687 141.706,230.294 143.313,230.876 142.953 C 231.143 142.788,231.212 142.857,231.047 143.124 C 230.687 143.706,232.294 145.313,232.876 144.953 C 233.143 144.788,233.212 144.857,233.047 145.124 C 232.687 145.706,234.294 147.313,234.876 146.953 C 235.143 146.788,235.212 146.857,235.047 147.124 C 234.687 147.706,236.294 149.313,236.876 148.953 C 237.143 148.788,237.212 148.857,237.047 149.124 C 236.687 149.706,238.294 151.313,238.876 150.953 C 239.143 150.788,239.212 150.857,239.047 151.124 C 238.687 151.706,240.294 153.313,240.876 152.953 C 241.143 152.788,241.212 152.857,241.047 153.124 C 240.687 153.706,242.294 155.313,242.876 154.953 C 243.143 154.788,243.212 154.857,243.047 155.124 C 242.687 155.706,244.294 157.313,244.876 156.953 C 245.143 156.788,245.212 156.857,245.047 157.124 C 244.687 157.706,246.294 159.313,246.876 158.953 C 247.143 158.788,247.212 158.857,247.047 159.124 C 246.687 159.706,248.294 161.313,248.876 160.953 C 249.143 160.788,249.212 160.857,249.047 161.124 C 248.687 161.706,250.294 163.313,250.876 162.953 C 251.143 162.788,251.212 162.857,251.047 163.124 C 250.687 163.706,252.294 165.313,252.876 164.953 C 253.143 164.788,253.212 164.857,253.047 165.124 C 252.687 165.706,254.294 167.313,254.876 166.953 C 255.143 166.788,255.212 166.857,255.047 167.124 C 254.687 167.706,256.294 169.313,256.876 168.953 C 257.143 168.788,257.212 168.857,257.047 169.124 C 256.687 169.706,258.294 171.313,258.876 170.953 C 259.143 170.788,259.212 170.857,259.047 171.124 C 258.687 171.706,260.294 173.313,260.876 172.953 C 261.143 172.788,261.212 172.857,261.047 173.124 C 260.687 173.706,262.294 175.313,262.876 174.953 C 263.143 174.788,263.212 174.857,263.047 175.124 C 262.687 175.706,264.294 177.313,264.876 176.953 C 265.143 176.788,265.212 176.857,265.047 177.124 C 264.687 177.706,266.294 179.313,266.876 178.953 C 267.143 178.788,267.212 178.857,267.047 179.124 C 266.687 179.706,268.294 181.313,268.876 180.953 C 269.143 180.788,269.212 180.857,269.047 181.124 C 268.687 181.706,270.294 183.313,270.876 182.953 C 271.143 182.788,271.212 182.857,271.047 183.124 C 270.687 183.706,272.294 185.313,272.876 184.953 C 273.143 184.788,273.212 184.857,273.047 185.124 C 272.687 185.706,274.294 187.313,274.876 186.953 C 275.143 186.788,275.212 186.857,275.047 187.124 C 274.687 187.706,276.294 189.313,276.876 188.953 C 277.143 188.788,277.212 188.857,277.047 189.124 C 276.687 189.706,278.294 191.313,278.876 190.953 C 279.143 190.788,279.212 190.857,279.047 191.124 C 278.687 191.706,280.294 193.313,280.876 192.953 C 281.143 192.788,281.212 192.857,281.047 193.124 C 280.687 193.706,282.294 195.313,282.876 194.953 C 283.143 194.788,283.212 194.857,283.047 195.124 C 282.687 195.706,284.294 197.313,284.876 196.953 C 285.143 196.788,285.212 196.857,285.047 197.124 C 284.687 197.706,286.294 199.313,286.876 198.953 C 287.143 198.788,287.212 198.857,287.047 199.124 C 286.687 199.706,288.294 201.313,288.876 200.953 C 289.143 200.788,289.212 200.857,289.047 201.124 C 288.687 201.706,290.294 203.313,290.876 202.953 C 291.143 202.788,291.212 202.857,291.047 203.124 C 290.687 203.706,292.294 205.313,292.876 204.953 C 293.143 204.788,293.212 204.857,293.047 205.124 C 292.687 205.706,294.294 207.313,294.876 206.953 C 295.143 206.788,295.212 206.857,295.047 207.124 C 294.687 207.706,296.294 209.313,296.876 208.953 C 297.143 208.788,297.212 208.857,297.047 209.124 C 296.687 209.706,298.294 211.313,298.876 210.953 C 299.143 210.788,299.212 210.857,299.047 211.124 C 298.687 211.706,300.294 213.313,300.876 212.953 C 301.143 212.788,301.212 212.857,301.047 213.124 C 300.687 213.706,302.294 215.313,302.876 214.953 C 303.143 214.788,303.212 214.857,303.047 215.124 C 302.687 215.706,304.294 217.313,304.876 216.953 C 305.143 216.788,305.212 216.857,305.047 217.124 C 304.687 217.706,306.294 219.313,306.876 218.953 C 307.143 218.788,307.212 218.857,307.047 219.124 C 306.687 219.706,308.294 221.313,308.876 220.953 C 309.143 220.788,309.212 220.857,309.047 221.124 C 308.687 221.706,310.294 223.313,310.876 222.953 C 311.143 222.788,311.212 222.857,311.047 223.124 C 310.895 223.370,311.144 223.944,311.600 224.400 C 312.056 224.856,312.630 225.105,312.876 224.953 C 313.143 224.788,313.212 224.857,313.047 225.124 C 312.895 225.370,313.144 225.944,313.600 226.400 C 314.056 226.856,314.630 227.105,314.876 226.953 C 315.143 226.788,315.212 226.857,315.047 227.124 C 314.687 227.706,316.294 229.313,316.876 228.953 C 317.143 228.788,317.212 228.857,317.047 229.124 C 316.687 229.706,318.294 231.313,318.876 230.953 C 319.143 230.788,319.212 230.857,319.047 231.124 C 318.895 231.370,319.144 231.944,319.600 232.400 C 320.056 232.856,320.630 233.105,320.876 232.953 C 321.143 232.788,321.212 232.857,321.047 233.124 C 320.687 233.706,322.294 235.313,322.876 234.953 C 323.143 234.788,323.212 234.857,323.047 235.124 C 322.687 235.706,324.294 237.313,324.876 236.953 C 325.143 236.788,325.212 236.857,325.047 237.124 C 324.687 237.706,326.294 239.313,326.876 238.953 C 327.143 238.788,327.212 238.857,327.047 239.124 C 326.895 239.370,327.144 239.944,327.600 240.400 C 328.056 240.856,328.630 241.105,328.876 240.953 C 329.143 240.788,329.212 240.857,329.047 241.124 C 328.687 241.706,330.294 243.313,330.876 242.953 C 331.143 242.788,331.212 242.857,331.047 243.124 C 330.687 243.706,332.294 245.313,332.876 244.953 C 333.143 244.788,333.212 244.857,333.047 245.124 C 332.687 245.706,334.294 247.313,334.876 246.953 C 335.143 246.788,335.212 246.857,335.047 247.124 C 334.687 247.706,336.294 249.313,336.876 248.953 C 337.143 248.788,337.212 248.857,337.047 249.124 C 336.687 249.706,338.294 251.313,338.876 250.953 C 339.143 250.788,339.212 250.857,339.047 251.124 C 338.687 251.706,340.294 253.313,340.876 252.953 C 341.143 252.788,341.212 252.857,341.047 253.124 C 340.687 253.706,342.294 255.313,342.876 254.953 C 343.143 254.788,343.212 254.857,343.047 255.124 C 342.687 255.706,344.294 257.313,344.876 256.953 C 345.143 256.788,345.212 256.857,345.047 257.124 C 344.687 257.706,346.294 259.313,346.876 258.953 C 347.143 258.788,347.212 258.857,347.047 259.124 C 346.687 259.706,348.294 261.313,348.876 260.953 C 349.143 260.788,349.212 260.857,349.047 261.124 C 348.687 261.706,350.294 263.313,350.876 262.953 C 351.143 262.788,351.212 262.857,351.047 263.124 C 350.895 263.370,351.144 263.944,351.600 264.400 C 352.056 264.856,352.630 265.105,352.876 264.953 C 353.143 264.788,353.212 264.857,353.047 265.124 C 352.687 265.706,354.294 267.313,354.876 266.953 C 355.143 266.788,355.212 266.857,355.047 267.124 C 354.687 267.706,356.294 269.313,356.876 268.953 C 357.143 268.788,357.212 268.857,357.047 269.124 C 356.895 269.370,357.144 269.944,357.600 270.400 C 358.056 270.856,358.630 271.105,358.876 270.953 C 359.143 270.788,359.212 270.857,359.047 271.124 C 358.687 271.706,360.294 273.313,360.876 272.953 C 361.143 272.788,361.212 272.857,361.047 273.124 C 360.687 273.706,362.294 275.313,362.876 274.953 C 363.143 274.788,363.212 274.857,363.047 275.124 C 362.895 275.370,363.144 275.944,363.600 276.400 C 364.056 276.856,364.630 277.105,364.876 276.953 C 365.143 276.788,365.212 276.857,365.047 277.124 C 364.687 277.706,366.294 279.313,366.876 278.953 C 367.143 278.788,367.212 278.857,367.047 279.124 C 366.687 279.706,368.294 281.313,368.876 280.953 C 369.143 280.788,369.212 280.857,369.047 281.124 C 368.895 281.370,369.144 281.944,369.600 282.400 C 370.056 282.856,370.630 283.105,370.876 282.953 C 371.143 282.788,371.212 282.857,371.047 283.124 C 370.687 283.706,372.294 285.313,372.876 284.953 C 373.143 284.788,373.212 284.857,373.047 285.124 C 372.678 285.721,374.297 287.305,374.915 286.950 C 375.182 286.797,375.271 286.814,375.114 286.988 C 374.771 287.369,375.472 288.800,376.002 288.800 C 376.207 288.800,376.276 288.485,376.155 288.100 C 375.967 287.502,376.027 287.513,376.567 288.176 C 377.180 288.928,377.200 288.919,377.200 287.876 C 377.200 287.130,377.415 286.790,377.900 286.768 C 378.285 286.751,378.386 286.650,378.125 286.543 C 377.802 286.412,377.898 286.102,378.425 285.575 C 378.851 285.149,379.200 284.451,379.200 284.024 C 379.200 283.597,379.379 283.137,379.598 283.001 C 379.817 282.866,380.195 282.384,380.438 281.929 C 380.794 281.264,380.775 281.167,380.340 281.429 C 379.901 281.693,379.893 281.638,380.297 281.140 C 380.570 280.803,380.660 280.363,380.497 280.163 C 380.333 279.963,380.362 279.932,380.561 280.094 C 381.014 280.464,382.935 276.528,382.656 275.802 C 382.543 275.507,382.711 275.166,383.029 275.044 C 383.347 274.922,383.584 274.682,383.556 274.511 C 383.375 273.409,383.643 272.249,383.963 272.753 C 384.264 273.229,384.951 271.544,384.836 270.610 C 384.822 270.498,385.175 269.756,385.621 268.963 C 386.257 267.830,386.330 267.397,385.959 266.951 C 385.581 266.495,385.608 266.428,386.094 266.615 C 386.548 266.789,386.773 266.462,386.984 265.324 C 387.139 264.486,387.522 263.257,387.834 262.594 C 388.789 260.565,389.197 258.800,388.710 258.800 C 388.471 258.800,388.574 258.471,388.938 258.069 C 389.302 257.666,389.600 257.072,389.600 256.749 C 389.600 256.425,389.810 255.950,390.067 255.693 C 390.323 255.437,390.533 254.419,390.533 253.431 C 390.533 252.443,390.683 251.728,390.867 251.841 C 391.050 251.955,391.213 251.812,391.230 251.524 C 391.296 250.363,391.636 249.039,391.973 248.631 C 392.451 248.053,393.432 242.664,393.565 239.876 C 393.584 239.478,393.780 239.264,394.000 239.400 C 394.232 239.543,394.426 239.092,394.461 238.324 C 394.494 237.596,394.555 236.820,394.596 236.600 C 394.637 236.380,394.789 235.570,394.934 234.800 C 395.080 234.030,395.291 232.335,395.405 231.034 C 395.518 229.733,395.812 228.427,396.057 228.131 C 396.307 227.829,396.405 226.983,396.278 226.204 C 396.154 225.440,396.213 224.716,396.409 224.594 C 396.605 224.473,396.728 223.300,396.683 221.987 C 396.637 220.673,396.780 219.539,397.000 219.466 C 397.851 219.184,397.488 181.697,396.628 181.106 C 396.347 180.913,396.381 180.810,396.727 180.806 C 397.039 180.802,397.170 180.515,397.049 180.100 C 396.937 179.715,396.737 178.050,396.606 176.400 C 396.475 174.750,396.195 173.340,395.984 173.267 C 395.773 173.193,395.600 172.958,395.600 172.743 C 395.600 172.528,395.780 172.464,396.000 172.600 C 396.538 172.933,396.505 172.693,395.832 171.396 C 395.519 170.793,395.358 170.053,395.474 169.750 C 395.591 169.448,395.556 168.885,395.398 168.500 C 395.240 168.115,395.070 167.170,395.020 166.400 C 394.810 163.131,394.266 160.323,393.809 160.148 C 393.528 160.040,393.399 159.541,393.506 158.980 C 393.609 158.441,393.529 158.000,393.327 158.000 C 393.126 158.000,392.961 157.505,392.960 156.900 C 392.958 155.306,392.389 151.988,391.991 151.241 C 391.802 150.889,391.542 150.098,391.412 149.484 C 391.283 148.870,391.047 148.447,390.888 148.545 C 390.730 148.642,390.584 147.848,390.564 146.779 C 390.544 145.710,390.340 144.603,390.110 144.318 C 389.880 144.033,389.567 143.215,389.414 142.500 C 389.262 141.785,388.996 141.200,388.824 141.200 C 388.652 141.200,388.597 140.750,388.702 140.200 C 388.818 139.592,388.709 139.200,388.423 139.200 C 388.164 139.200,388.052 139.039,388.174 138.842 C 388.296 138.645,388.128 137.970,387.800 137.342 C 387.473 136.714,387.204 135.874,387.202 135.476 C 387.201 135.078,387.037 134.854,386.837 134.977 C 386.638 135.100,386.558 134.881,386.661 134.489 C 386.930 133.460,386.125 131.600,385.410 131.600 C 385.074 131.600,384.800 131.409,384.800 131.176 C 384.800 130.943,384.963 130.854,385.163 130.977 C 385.777 131.357,385.137 129.432,384.472 128.900 C 384.056 128.567,384.014 128.400,384.347 128.400 C 384.622 128.400,384.734 128.217,384.596 127.993 C 384.458 127.770,384.177 127.691,383.972 127.817 C 383.768 127.944,383.597 127.542,383.594 126.924 C 383.587 125.555,382.535 122.422,381.806 121.600 C 381.514 121.270,381.078 120.264,380.839 119.364 C 380.599 118.463,380.047 117.404,379.611 117.010 C 379.175 116.616,378.908 116.150,379.016 115.974 C 379.124 115.799,379.038 115.547,378.824 115.415 C 378.610 115.283,378.529 114.930,378.644 114.631 C 378.758 114.332,378.255 113.402,377.526 112.565 C 376.797 111.728,376.425 111.179,376.700 111.345 C 377.490 111.822,377.284 111.313,376.300 110.357 C 375.805 109.876,375.625 109.609,375.900 109.765 C 376.175 109.920,376.400 109.857,376.400 109.624 C 376.400 109.391,375.995 109.186,375.500 109.168 C 375.005 109.151,374.818 109.048,375.085 108.940 C 375.631 108.719,374.661 105.825,373.721 104.871 C 373.434 104.581,373.200 104.165,373.200 103.948 C 373.200 103.731,372.992 103.681,372.738 103.838 C 372.452 104.015,372.385 103.948,372.561 103.663 C 372.860 103.180,371.657 100.800,371.114 100.800 C 370.941 100.800,370.821 100.665,370.847 100.500 C 370.955 99.819,370.772 99.227,370.300 98.729 C 370.025 98.438,369.549 97.714,369.243 97.119 C 368.936 96.525,368.509 96.075,368.293 96.119 C 368.077 96.164,367.809 95.950,367.698 95.644 C 367.559 95.262,367.668 95.188,368.048 95.408 C 368.374 95.597,368.463 95.579,368.267 95.364 C 368.083 95.164,367.723 94.992,367.467 94.982 C 367.210 94.972,367.057 94.712,367.126 94.404 C 367.319 93.547,366.395 92.092,365.510 91.861 C 365.075 91.747,364.836 91.465,364.978 91.235 C 365.286 90.738,364.509 89.133,363.742 88.680 C 363.444 88.504,363.200 88.127,363.200 87.842 C 363.200 87.125,361.809 85.931,361.404 86.299 C 361.222 86.465,361.169 86.329,361.286 85.998 C 361.526 85.322,360.646 84.296,360.193 84.724 C 360.032 84.876,360.025 84.595,360.177 84.100 C 360.386 83.422,360.293 83.200,359.803 83.200 C 359.446 83.200,359.264 83.020,359.400 82.800 C 359.536 82.580,359.427 82.400,359.157 82.400 C 358.887 82.400,358.780 82.287,358.918 82.149 C 359.174 81.893,356.950 78.920,355.305 77.319 C 354.807 76.835,354.400 76.290,354.400 76.108 C 354.400 75.926,354.085 75.484,353.700 75.126 C 353.315 74.767,352.394 73.647,351.653 72.637 C 350.913 71.626,350.097 70.800,349.841 70.800 C 349.585 70.800,349.165 70.244,348.909 69.563 C 348.648 68.872,348.256 68.442,348.021 68.587 C 347.789 68.730,347.600 68.627,347.600 68.358 C 347.600 68.088,346.700 67.027,345.600 66.000 C 344.500 64.973,343.600 63.971,343.600 63.774 C 343.600 63.239,336.691 56.400,336.151 56.400 C 335.895 56.400,335.582 56.130,335.455 55.800 C 335.329 55.470,334.919 55.200,334.546 55.200 C 334.172 55.200,333.973 55.093,334.104 54.963 C 334.459 54.608,332.360 52.400,331.667 52.400 C 331.337 52.400,331.185 52.282,331.330 52.137 C 331.741 51.726,330.786 50.800,329.951 50.800 C 329.538 50.800,329.200 50.540,329.200 50.223 C 329.200 49.502,327.609 48.347,327.073 48.678 C 326.851 48.816,326.802 48.721,326.962 48.462 C 327.142 48.170,326.944 48.000,326.424 48.000 C 325.908 48.000,325.598 47.738,325.594 47.300 C 325.589 46.702,325.531 46.687,325.200 47.200 C 324.930 47.618,324.795 47.648,324.756 47.300 C 324.633 46.204,324.589 46.056,324.300 45.767 C 324.135 45.602,324.000 45.699,324.000 45.982 C 324.000 46.394,323.879 46.398,323.404 46.004 C 323.077 45.732,322.903 45.358,323.017 45.172 C 323.132 44.987,322.731 44.512,322.128 44.118 C 321.524 43.723,320.393 42.811,319.615 42.091 C 318.837 41.371,317.796 40.677,317.303 40.548 C 316.809 40.420,316.480 40.194,316.571 40.047 C 316.662 39.899,316.203 39.472,315.550 39.097 C 314.827 38.682,314.460 38.608,314.611 38.908 C 314.748 39.179,314.603 39.088,314.290 38.706 C 313.977 38.325,313.604 38.100,313.460 38.206 C 313.317 38.313,313.288 38.282,313.397 38.137 C 313.724 37.699,312.752 36.800,311.951 36.800 C 311.528 36.800,311.200 36.519,311.200 36.157 C 311.200 35.741,310.982 35.598,310.579 35.753 C 310.177 35.907,310.058 35.830,310.242 35.532 C 310.434 35.221,310.249 35.146,309.662 35.300 C 309.187 35.424,308.900 35.362,309.023 35.163 C 309.146 34.963,308.956 34.800,308.600 34.800 C 308.244 34.800,308.035 34.665,308.135 34.500 C 308.235 34.335,307.841 33.848,307.259 33.419 C 306.412 32.794,306.312 32.776,306.757 33.328 C 307.240 33.928,307.231 33.987,306.688 33.778 C 306.343 33.646,305.959 33.271,305.834 32.944 C 305.708 32.617,305.420 32.464,305.193 32.604 C 304.966 32.745,304.830 32.645,304.890 32.383 C 305.004 31.889,302.975 30.588,302.100 30.596 C 301.825 30.598,301.591 30.420,301.580 30.200 C 301.557 29.737,299.127 28.398,298.742 28.636 C 298.600 28.724,298.373 28.508,298.239 28.156 C 298.094 27.780,297.739 27.615,297.376 27.754 C 297.014 27.893,296.862 27.823,297.009 27.585 C 297.252 27.193,294.938 26.126,294.270 26.323 C 294.089 26.376,294.045 26.251,294.173 26.044 C 294.301 25.837,293.594 25.358,292.603 24.980 C 291.611 24.601,290.800 24.115,290.800 23.899 C 290.800 23.683,290.440 23.601,289.999 23.716 C 289.559 23.831,289.288 23.781,289.397 23.605 C 289.506 23.428,289.296 23.169,288.930 23.028 C 288.564 22.888,288.117 23.004,287.938 23.286 C 287.696 23.668,287.611 23.626,287.606 23.123 C 287.599 22.351,286.126 21.186,285.211 21.228 C 284.789 21.248,284.848 21.363,285.400 21.600 C 286.100 21.901,286.111 21.947,285.487 21.972 C 285.096 21.987,284.671 21.730,284.545 21.400 C 284.418 21.070,284.146 20.800,283.941 20.800 C 283.736 20.800,283.073 20.434,282.468 19.987 C 281.863 19.540,280.852 19.135,280.221 19.087 C 279.590 19.039,278.661 18.595,278.155 18.100 C 277.650 17.605,276.789 17.200,276.242 17.200 C 275.695 17.200,275.128 17.008,274.983 16.773 C 274.838 16.538,274.460 16.445,274.144 16.566 C 273.828 16.687,273.462 16.505,273.330 16.161 C 273.186 15.787,272.790 15.614,272.344 15.730 C 271.934 15.838,271.687 15.783,271.795 15.608 C 271.903 15.434,271.633 15.197,271.196 15.083 C 270.742 14.964,270.397 15.074,270.394 15.337 C 270.389 15.682,270.313 15.683,270.094 15.344 C 269.634 14.629,266.707 13.227,265.372 13.081 C 264.707 13.008,263.935 12.807,263.655 12.634 C 263.376 12.461,263.042 12.425,262.913 12.554 C 262.784 12.682,262.463 12.492,262.199 12.131 C 261.925 11.756,261.051 11.434,260.160 11.379 C 259.302 11.327,258.510 11.243,258.400 11.194 C 258.290 11.145,258.065 11.127,257.900 11.153 C 257.735 11.179,257.600 11.009,257.600 10.776 C 257.600 10.543,257.409 10.471,257.175 10.616 C 256.941 10.760,256.446 10.614,256.075 10.290 C 255.341 9.650,251.292 8.575,250.940 8.927 C 250.821 9.046,250.156 8.826,249.462 8.439 C 247.857 7.542,245.600 7.075,245.600 7.639 C 245.600 7.869,245.333 7.790,245.006 7.463 C 244.679 7.136,243.959 6.919,243.406 6.980 C 242.853 7.040,242.400 6.915,242.400 6.701 C 242.400 6.487,241.783 6.385,241.028 6.473 C 240.273 6.561,239.745 6.489,239.853 6.314 C 240.103 5.909,239.442 5.692,237.300 5.476 C 236.261 5.372,235.600 5.470,235.600 5.729 C 235.600 5.962,235.375 5.847,235.100 5.474 C 234.713 4.949,233.865 4.773,231.344 4.698 C 229.553 4.644,228.161 4.477,228.250 4.328 C 228.574 3.786,227.502 3.512,227.161 4.049 C 226.869 4.510,226.811 4.511,226.806 4.055 C 226.802 3.678,226.432 3.563,225.610 3.684 C 224.955 3.780,224.354 3.665,224.275 3.429 C 224.183 3.156,223.861 3.217,223.388 3.600 C 222.921 3.978,222.761 4.009,222.956 3.685 C 223.183 3.308,222.910 3.166,221.933 3.153 C 221.200 3.144,219.340 3.034,217.800 2.909 C 214.638 2.651,186.159 2.374,185.935 2.598 M199.200 247.444 C 199.200 247.750,199.009 248.000,198.776 248.000 C 198.543 248.000,198.489 247.779,198.657 247.507 C 198.825 247.236,198.451 247.416,197.827 247.907 C 197.203 248.398,196.446 248.800,196.146 248.800 C 195.846 248.800,195.600 248.980,195.600 249.200 C 195.600 249.420,195.465 249.559,195.300 249.510 C 194.718 249.335,190.833 251.406,190.816 251.900 C 190.807 252.175,190.472 252.400,190.071 252.400 C 189.671 252.400,188.636 252.770,187.771 253.223 C 186.895 253.681,186.598 253.963,187.101 253.860 C 187.596 253.758,187.900 253.838,187.777 254.037 C 187.654 254.237,187.068 254.409,186.476 254.419 C 185.884 254.430,184.770 254.776,184.000 255.188 C 183.230 255.600,181.745 256.334,180.700 256.818 C 179.655 257.302,178.800 257.820,178.800 257.969 C 178.800 258.118,178.167 258.468,177.394 258.748 C 176.564 259.048,176.098 259.434,176.256 259.690 C 176.427 259.967,176.334 260.007,176.001 259.801 C 175.672 259.597,175.279 259.751,174.939 260.215 C 174.643 260.621,174.400 260.838,174.400 260.697 C 174.400 260.557,173.860 260.630,173.200 260.860 C 172.541 261.090,172.100 261.438,172.221 261.634 C 172.342 261.830,172.162 261.884,171.821 261.753 C 171.413 261.596,171.200 261.743,171.200 262.181 C 171.200 262.547,171.045 262.752,170.856 262.635 C 170.383 262.342,166.349 264.394,166.599 264.799 C 166.710 264.979,166.413 265.024,165.938 264.900 C 165.394 264.757,165.170 264.828,165.333 265.092 C 165.478 265.326,165.289 265.486,164.905 265.455 C 164.528 265.425,164.215 265.655,164.210 265.967 C 164.204 266.278,163.930 266.607,163.600 266.697 C 163.067 266.843,163.067 266.809,163.600 266.393 C 164.110 265.995,164.090 265.960,163.467 266.162 C 163.064 266.293,162.649 266.400,162.544 266.400 C 162.439 266.400,162.464 266.580,162.600 266.800 C 162.856 267.214,162.802 267.239,161.291 267.397 C 160.792 267.449,160.057 267.786,159.660 268.146 C 159.262 268.506,158.671 268.800,158.345 268.800 C 158.019 268.800,157.404 269.083,156.976 269.430 C 156.549 269.776,156.470 269.927,156.800 269.766 C 157.153 269.593,157.263 269.622,157.067 269.836 C 156.883 270.036,156.613 270.207,156.467 270.215 C 155.488 270.271,154.000 270.884,154.000 271.231 C 154.000 271.460,153.835 271.545,153.632 271.420 C 153.430 271.295,153.017 271.441,152.714 271.744 C 152.411 272.047,151.763 272.421,151.276 272.576 C 150.788 272.731,150.481 273.008,150.595 273.191 C 150.708 273.375,150.468 273.438,150.060 273.332 C 149.653 273.225,149.067 273.377,148.760 273.669 C 148.452 273.961,147.345 274.603,146.300 275.095 C 145.255 275.587,144.400 276.172,144.400 276.395 C 144.400 276.618,144.265 276.763,144.100 276.719 C 143.639 276.594,140.800 277.725,140.800 278.034 C 140.800 278.184,140.395 278.418,139.900 278.553 C 139.137 278.762,139.092 278.866,139.600 279.232 C 140.066 279.568,139.956 279.612,139.106 279.426 C 138.318 279.254,137.787 279.413,137.206 279.994 C 136.763 280.437,136.400 280.716,136.400 280.614 C 136.400 280.511,134.780 281.244,132.800 282.243 C 130.820 283.242,129.200 284.296,129.200 284.586 C 129.200 284.877,128.905 285.228,128.543 285.366 C 127.970 285.586,127.958 285.533,128.443 284.945 C 128.953 284.328,128.927 284.317,128.126 284.816 C 127.645 285.115,127.326 285.480,127.417 285.627 C 127.508 285.774,127.271 285.890,126.891 285.885 C 125.747 285.870,122.804 287.283,123.073 287.718 C 123.221 287.958,123.123 288.000,122.832 287.820 C 122.541 287.640,121.932 287.900,121.338 288.458 C 120.787 288.976,120.305 289.329,120.268 289.241 C 120.230 289.154,119.792 289.212,119.294 289.370 C 118.796 289.528,118.492 289.825,118.618 290.029 C 118.744 290.233,118.618 290.400,118.337 290.400 C 117.350 290.400,114.419 291.707,114.632 292.051 C 114.750 292.243,114.484 292.400,114.040 292.400 C 113.596 292.400,112.743 292.895,112.145 293.500 C 111.547 294.105,111.295 294.281,111.586 293.891 C 112.043 293.277,112.024 293.216,111.445 293.438 C 111.077 293.579,110.518 294.169,110.204 294.747 C 109.889 295.326,109.625 295.581,109.616 295.313 C 109.596 294.698,108.377 295.092,107.700 295.932 C 107.307 296.420,107.200 296.434,107.200 296.000 C 107.200 295.631,107.005 295.705,106.613 296.224 C 106.290 296.651,106.020 296.860,106.013 296.690 C 106.000 296.388,103.599 297.468,103.200 297.956 C 103.090 298.090,102.329 298.510,101.509 298.889 C 100.690 299.268,99.250 300.070,98.309 300.671 C 97.369 301.273,96.330 301.772,96.000 301.782 C 95.670 301.792,95.449 302.038,95.510 302.330 C 95.570 302.621,95.449 302.754,95.240 302.625 C 94.591 302.224,92.692 303.277,93.289 303.707 C 93.660 303.974,93.616 304.017,93.129 303.861 C 92.347 303.612,84.551 307.460,84.700 308.022 C 84.755 308.230,84.665 308.371,84.500 308.335 C 84.188 308.268,82.381 308.925,81.000 309.608 C 80.301 309.954,80.326 309.975,81.200 309.776 C 81.976 309.599,82.066 309.642,81.600 309.968 C 81.270 310.199,80.614 310.391,80.143 310.394 C 79.671 310.397,79.178 310.681,79.046 311.025 C 78.914 311.369,78.614 311.532,78.379 311.387 C 78.145 311.242,77.218 311.633,76.320 312.256 C 75.421 312.878,74.487 313.408,74.243 313.433 C 73.999 313.458,73.575 313.506,73.300 313.539 C 73.025 313.573,72.845 313.817,72.900 314.081 C 72.955 314.346,72.730 314.571,72.400 314.581 C 71.275 314.616,69.209 315.692,69.467 316.108 C 69.613 316.344,69.530 316.404,69.276 316.247 C 69.030 316.095,68.463 316.337,68.015 316.785 C 67.567 317.233,67.200 317.418,67.200 317.197 C 67.200 316.771,65.849 317.415,64.887 318.300 C 64.588 318.575,64.086 318.800,63.771 318.800 C 63.457 318.800,63.200 318.991,63.200 319.224 C 63.200 319.457,63.054 319.557,62.875 319.446 C 62.400 319.153,60.339 320.603,60.697 320.980 C 60.864 321.156,60.623 321.184,60.163 321.043 C 59.632 320.880,58.974 321.060,58.363 321.536 C 57.833 321.948,56.545 322.661,55.500 323.120 C 54.455 323.579,53.600 324.125,53.600 324.333 C 53.600 324.541,52.988 324.826,52.240 324.966 C 51.492 325.106,50.660 325.486,50.391 325.811 C 50.122 326.135,49.643 326.400,49.327 326.400 C 49.011 326.400,48.864 326.580,49.000 326.800 C 49.136 327.020,49.012 327.203,48.724 327.206 C 48.343 327.211,48.364 327.318,48.800 327.600 C 49.130 327.813,49.225 327.991,49.011 327.994 C 48.797 327.997,49.213 328.540,49.936 329.200 C 50.658 329.860,51.408 330.400,51.601 330.400 C 51.795 330.400,52.063 330.578,52.197 330.795 C 52.342 331.030,52.148 331.089,51.721 330.940 C 51.324 330.802,51.990 331.654,53.200 332.833 C 54.410 334.012,55.355 335.117,55.300 335.289 C 55.245 335.460,55.481 335.600,55.824 335.600 C 56.167 335.600,56.351 335.756,56.233 335.947 C 56.115 336.137,56.382 336.622,56.827 337.024 C 57.611 337.734,57.628 337.733,57.411 336.978 C 57.289 336.550,57.448 336.752,57.766 337.427 C 58.473 338.930,59.764 340.160,59.371 338.957 C 59.176 338.357,59.210 338.320,59.536 338.781 C 59.762 339.100,59.875 339.479,59.786 339.623 C 59.611 339.906,61.209 341.536,61.700 341.576 C 61.865 341.589,62.013 341.735,62.029 341.900 C 62.085 342.492,63.336 343.600,63.962 343.613 C 64.928 343.632,66.173 344.671,65.521 344.914 C 65.194 345.036,65.372 345.265,66.000 345.529 C 66.550 345.760,66.837 345.961,66.638 345.975 C 66.439 345.989,66.601 346.359,66.999 346.799 C 67.557 347.415,67.847 347.493,68.270 347.142 C 68.705 346.781,68.766 346.824,68.564 347.349 C 68.241 348.192,69.192 349.459,69.624 348.761 C 69.818 348.446,70.139 348.709,70.564 349.530 C 71.254 350.865,72.493 351.754,73.012 351.286 C 73.186 351.129,73.212 351.203,73.071 351.451 C 72.925 351.706,73.625 352.535,74.672 353.351 C 76.524 354.794,77.505 355.217,76.962 354.338 C 76.789 354.059,76.852 353.985,77.121 354.151 C 77.365 354.302,77.475 354.661,77.364 354.949 C 77.124 355.576,78.202 356.569,78.754 356.229 C 78.967 356.096,79.259 356.356,79.402 356.805 C 79.551 357.275,79.945 357.574,80.330 357.511 C 80.699 357.450,80.956 357.621,80.903 357.891 C 80.850 358.161,81.345 358.661,82.003 359.002 C 82.661 359.342,83.200 359.784,83.200 359.983 C 83.200 360.183,83.594 360.471,84.077 360.624 C 84.559 360.777,85.504 361.419,86.177 362.049 C 86.849 362.680,87.631 363.197,87.913 363.198 C 88.194 363.199,88.526 363.463,88.650 363.785 C 88.773 364.106,89.262 364.487,89.737 364.631 C 90.212 364.775,91.186 365.332,91.902 365.869 C 92.619 366.405,93.365 366.745,93.560 366.624 C 93.756 366.504,94.024 366.685,94.155 367.028 C 94.287 367.370,94.580 367.536,94.807 367.396 C 95.034 367.255,95.170 367.337,95.110 367.577 C 95.049 367.818,95.719 368.416,96.598 368.907 C 97.478 369.398,98.436 370.025,98.727 370.300 C 99.264 370.806,99.791 370.948,100.700 370.830 C 100.975 370.794,101.200 370.941,101.200 371.155 C 101.200 371.972,103.654 373.359,104.035 372.757 C 104.314 372.316,104.389 372.351,104.394 372.924 C 104.397 373.322,104.580 373.536,104.800 373.400 C 105.020 373.264,105.200 373.414,105.200 373.733 C 105.200 374.246,106.922 375.033,107.686 374.870 C 107.844 374.837,108.430 375.267,108.990 375.826 C 109.549 376.385,110.185 376.733,110.403 376.598 C 110.622 376.463,110.803 376.588,110.806 376.876 C 110.811 377.257,110.918 377.236,111.200 376.800 C 111.423 376.456,111.590 376.399,111.594 376.667 C 111.601 377.181,114.012 378.800,114.771 378.800 C 115.036 378.800,115.122 378.578,114.965 378.300 C 114.809 378.025,115.080 378.209,115.565 378.709 C 116.050 379.209,116.617 379.513,116.824 379.385 C 117.031 379.257,117.200 379.433,117.200 379.776 C 117.200 380.315,117.657 380.499,118.655 380.366 C 118.796 380.347,119.029 380.523,119.173 380.756 C 119.317 380.989,119.877 381.230,120.417 381.290 C 120.958 381.351,121.580 381.615,121.800 381.879 C 122.358 382.546,125.574 383.585,126.263 383.320 C 126.592 383.194,126.784 383.313,126.716 383.601 C 126.650 383.886,127.372 384.347,128.400 384.675 C 129.390 384.992,130.994 385.627,131.965 386.086 C 132.936 386.546,134.241 386.939,134.864 386.961 C 135.488 386.982,135.999 387.135,135.999 387.300 C 136.000 387.465,136.590 387.600,137.311 387.600 C 138.032 387.600,139.022 387.880,139.512 388.223 C 140.448 388.879,141.333 389.158,143.544 389.494 C 144.363 389.618,144.699 389.815,144.404 389.997 C 144.122 390.172,144.731 390.430,145.860 390.614 C 146.927 390.788,148.070 391.002,148.400 391.088 C 148.730 391.175,149.414 391.310,149.919 391.390 C 150.425 391.469,151.097 391.749,151.414 392.012 C 151.731 392.274,152.262 392.385,152.595 392.257 C 152.928 392.130,153.200 392.199,153.200 392.413 C 153.200 392.626,153.391 392.800,153.624 392.800 C 153.857 392.800,153.936 392.620,153.800 392.400 C 153.664 392.180,153.743 392.000,153.976 392.000 C 154.209 392.000,154.400 392.199,154.400 392.443 C 154.400 392.686,154.679 392.778,155.021 392.647 C 155.423 392.493,155.542 392.570,155.359 392.867 C 155.158 393.192,155.442 393.252,156.338 393.072 C 157.064 392.927,157.600 392.986,157.600 393.210 C 157.600 393.425,158.129 393.600,158.776 393.600 C 159.423 393.600,160.076 393.800,160.227 394.044 C 160.388 394.305,161.062 394.397,161.860 394.268 C 162.661 394.138,163.123 394.202,162.985 394.424 C 162.857 394.631,163.314 394.800,164.000 394.800 C 164.841 394.800,165.154 394.650,164.962 394.338 C 164.784 394.050,164.852 393.985,165.145 394.166 C 165.402 394.325,165.505 394.629,165.374 394.842 C 165.238 395.063,165.708 395.225,166.467 395.219 C 168.896 395.199,171.262 395.554,171.825 396.021 C 172.131 396.275,173.178 396.419,174.152 396.341 C 175.127 396.263,175.831 396.349,175.718 396.532 C 175.606 396.715,176.397 396.817,177.478 396.760 C 178.558 396.702,179.645 396.781,179.894 396.934 C 180.142 397.088,180.454 397.037,180.587 396.822 C 180.744 396.567,181.190 396.568,181.864 396.824 C 183.128 397.305,182.207 397.281,200.000 397.296 C 216.636 397.311,220.069 397.236,219.840 396.864 C 219.750 396.719,220.926 396.600,222.453 396.600 C 224.486 396.600,225.331 396.439,225.609 396.000 C 225.860 395.602,225.990 395.568,225.994 395.900 C 225.997 396.175,226.191 396.400,226.424 396.400 C 226.657 396.400,226.736 396.220,226.600 396.000 C 226.464 395.780,226.644 395.600,227.000 395.600 C 227.356 395.600,227.536 395.780,227.400 396.000 C 227.070 396.534,227.307 396.505,228.558 395.855 C 229.136 395.556,230.056 395.360,230.604 395.420 C 231.152 395.480,231.600 395.401,231.600 395.243 C 231.600 395.085,232.238 394.982,233.019 395.014 C 235.092 395.099,238.841 394.446,240.044 393.790 C 240.618 393.477,241.173 393.306,241.278 393.411 C 241.382 393.515,242.352 393.418,243.434 393.196 C 244.515 392.973,245.929 392.707,246.576 392.605 C 248.367 392.322,250.457 391.216,250.147 390.715 C 249.983 390.449,250.061 390.391,250.345 390.566 C 250.602 390.725,250.725 390.998,250.617 391.173 C 250.387 391.544,254.626 390.611,255.800 390.032 C 256.725 389.576,259.264 388.848,261.000 388.540 C 261.660 388.423,262.260 388.164,262.333 387.964 C 262.407 387.764,262.812 387.600,263.233 387.600 C 263.655 387.600,264.000 387.465,264.001 387.300 C 264.001 387.135,264.534 386.963,265.185 386.917 C 265.835 386.872,267.140 386.485,268.084 386.058 C 269.028 385.631,270.559 385.057,271.487 384.782 C 272.415 384.506,273.079 384.128,272.963 383.941 C 272.848 383.753,273.219 383.600,273.789 383.600 C 274.359 383.600,274.918 383.357,275.033 383.059 C 275.156 382.737,275.620 382.591,276.181 382.698 C 276.785 382.814,277.422 382.578,277.961 382.039 C 278.422 381.578,278.894 381.222,279.010 381.248 C 279.670 381.400,281.617 380.750,281.426 380.442 C 281.300 380.238,281.586 380.176,282.067 380.302 C 282.750 380.480,282.882 380.390,282.685 379.877 C 282.547 379.519,282.635 379.102,282.879 378.951 C 283.169 378.772,283.209 378.861,282.996 379.206 C 282.755 379.596,282.853 379.665,283.367 379.468 C 283.751 379.321,284.241 379.200,284.456 379.200 C 284.671 379.200,284.729 379.008,284.583 378.773 C 284.433 378.529,284.577 378.401,284.922 378.473 C 285.882 378.676,289.223 377.064,289.012 376.500 C 288.909 376.225,288.984 376.000,289.179 376.000 C 289.374 376.000,289.598 376.193,289.676 376.429 C 289.762 376.687,290.213 376.557,290.810 376.102 C 291.354 375.686,292.430 375.099,293.200 374.797 C 293.970 374.494,294.744 374.011,294.920 373.723 C 295.096 373.436,295.546 373.194,295.920 373.187 C 296.735 373.172,298.067 372.228,297.794 371.860 C 297.687 371.717,297.712 371.682,297.850 371.783 C 298.107 371.971,301.244 370.501,301.600 370.025 C 301.710 369.879,302.479 369.442,303.309 369.056 C 304.139 368.670,304.721 368.197,304.603 368.004 C 304.337 367.574,305.123 367.057,306.159 366.981 C 306.584 366.950,307.283 366.491,307.711 365.962 C 308.140 365.433,308.560 365.045,308.645 365.100 C 309.086 365.385,309.705 365.083,310.986 363.959 C 311.764 363.276,312.400 362.825,312.400 362.956 C 312.400 363.199,315.243 361.163,317.386 359.384 C 318.038 358.843,318.724 358.400,318.910 358.400 C 319.095 358.400,319.136 358.220,319.000 358.000 C 318.864 357.780,318.943 357.578,319.176 357.550 C 319.409 357.523,319.795 357.478,320.032 357.450 C 320.270 357.422,320.720 357.051,321.032 356.624 C 321.345 356.196,321.600 355.999,321.600 356.186 C 321.600 356.372,321.966 356.192,322.414 355.787 C 322.862 355.382,323.130 354.794,323.010 354.481 C 322.856 354.081,322.987 353.986,323.446 354.162 C 324.225 354.461,325.301 353.687,324.934 353.093 C 324.784 352.851,324.870 352.796,325.138 352.962 C 325.392 353.119,325.600 353.046,325.600 352.800 C 325.600 352.554,325.748 352.444,325.929 352.556 C 326.376 352.832,327.593 351.356,327.628 350.495 C 327.652 349.910,327.707 349.927,327.978 350.600 C 328.275 351.339,328.357 351.302,329.049 350.115 C 329.461 349.408,330.158 348.778,330.599 348.715 C 331.093 348.644,331.377 348.321,331.340 347.872 C 331.304 347.435,331.482 347.222,331.787 347.340 C 332.363 347.561,335.263 344.596,334.862 344.195 C 334.718 344.051,334.797 343.993,335.037 344.067 C 335.681 344.263,338.025 342.364,337.729 341.885 C 337.590 341.660,337.663 341.592,337.891 341.733 C 338.119 341.874,339.868 340.326,341.778 338.294 C 343.687 336.262,345.778 334.051,346.425 333.380 C 347.071 332.708,347.600 331.933,347.600 331.656 C 347.600 331.374,347.805 331.280,348.068 331.442 C 348.383 331.636,348.452 331.513,348.281 331.066 C 348.114 330.631,348.229 330.400,348.613 330.400 C 349.151 330.400,349.383 329.907,349.237 329.070 C 349.206 328.889,349.373 328.859,349.608 329.005 C 350.104 329.312,351.203 328.512,351.194 327.851 C 351.191 327.603,351.013 327.670,350.800 328.000 C 350.567 328.361,350.410 328.410,350.406 328.124 C 350.403 327.862,350.580 327.536,350.800 327.400 C 351.020 327.264,351.200 326.953,351.200 326.710 C 351.200 326.466,351.085 326.382,350.944 326.522 C 350.804 326.663,350.160 326.333,349.514 325.789 C 348.867 325.245,348.052 324.800,347.701 324.800 C 347.350 324.800,346.779 324.543,346.431 324.229 C 345.522 323.406,342.122 322.011,341.803 322.330 C 341.655 322.478,341.593 322.339,341.667 322.020 C 341.747 321.671,341.321 321.272,340.600 321.020 C 339.940 320.789,338.974 320.299,338.454 319.930 C 337.934 319.562,337.229 319.367,336.888 319.498 C 336.481 319.655,336.368 319.576,336.558 319.268 C 336.729 318.991,336.605 318.800,336.252 318.800 C 335.925 318.800,335.419 318.565,335.129 318.278 C 334.675 317.829,333.452 317.171,332.800 317.024 C 332.690 316.999,331.731 316.464,330.669 315.833 C 329.607 315.203,328.347 314.661,327.869 314.628 C 327.391 314.595,327.044 314.353,327.098 314.091 C 327.151 313.829,326.701 313.497,326.098 313.355 C 325.494 313.212,324.460 312.700,323.800 312.218 C 322.249 311.084,321.070 310.634,321.409 311.305 C 321.547 311.577,321.401 311.485,321.086 311.100 C 320.770 310.715,320.307 310.400,320.056 310.400 C 319.805 310.400,319.600 310.223,319.600 310.008 C 319.600 309.792,319.105 309.497,318.500 309.352 C 317.895 309.208,317.183 308.919,316.918 308.710 C 316.652 308.502,316.243 308.450,316.008 308.595 C 315.773 308.741,315.630 308.632,315.690 308.355 C 315.820 307.759,313.234 306.357,312.479 306.614 C 312.193 306.711,312.064 306.621,312.192 306.412 C 312.321 306.204,311.880 305.752,311.213 305.407 C 310.337 304.954,310.000 304.915,310.000 305.266 C 310.000 305.573,309.815 305.520,309.500 305.124 C 308.747 304.176,306.538 302.841,306.980 303.600 C 307.172 303.930,306.863 303.776,306.294 303.258 C 305.725 302.740,305.078 302.428,304.857 302.565 C 304.636 302.701,304.325 302.602,304.166 302.345 C 303.985 302.052,304.050 301.984,304.338 302.162 C 304.592 302.319,304.800 302.351,304.800 302.234 C 304.800 301.848,302.601 300.874,301.090 300.590 C 300.274 300.437,299.701 300.160,299.817 299.973 C 300.070 299.562,297.806 298.327,297.451 298.683 C 297.313 298.821,297.200 298.721,297.200 298.461 C 297.200 298.202,296.345 297.587,295.300 297.095 C 294.255 296.603,293.147 295.959,292.837 295.665 C 292.527 295.371,291.858 295.210,291.349 295.308 C 290.840 295.405,290.513 295.341,290.622 295.165 C 290.883 294.741,287.562 292.812,286.128 292.555 C 285.508 292.443,284.820 292.172,284.600 291.952 C 284.333 291.686,284.467 291.629,285.000 291.782 C 285.440 291.909,285.260 291.747,284.600 291.424 C 283.940 291.101,283.094 290.828,282.720 290.818 C 282.346 290.808,281.896 290.565,281.720 290.279 C 281.323 289.632,276.802 287.079,276.794 287.497 C 276.791 287.663,276.656 287.620,276.494 287.400 C 275.789 286.440,271.289 284.374,271.838 285.262 C 272.016 285.550,271.948 285.615,271.655 285.434 C 271.398 285.275,271.273 285.006,271.377 284.837 C 271.482 284.668,270.856 284.129,269.987 283.641 C 268.674 282.903,268.450 282.865,268.662 283.416 C 268.813 283.810,268.484 283.648,267.855 283.018 C 267.235 282.399,266.587 282.076,266.297 282.243 C 266.023 282.400,265.936 282.378,266.103 282.194 C 266.491 281.767,262.436 279.530,261.888 279.869 C 261.662 280.009,261.593 279.935,261.736 279.704 C 261.879 279.473,261.717 279.177,261.377 279.046 C 260.970 278.891,260.844 278.979,261.009 279.305 C 261.147 279.577,260.976 279.451,260.630 279.024 C 260.283 278.596,259.994 278.416,259.987 278.624 C 259.980 278.831,259.755 278.730,259.487 278.400 C 259.219 278.070,257.382 276.990,255.404 276.000 C 253.426 275.010,251.568 273.975,251.275 273.700 C 250.982 273.425,250.483 273.200,250.166 273.200 C 249.569 273.200,247.955 272.403,247.596 271.932 C 247.484 271.785,247.128 271.605,246.806 271.532 C 246.483 271.459,245.967 271.165,245.658 270.877 C 245.349 270.589,244.841 270.452,244.528 270.572 C 244.215 270.693,244.046 270.649,244.153 270.475 C 244.261 270.302,243.981 269.931,243.532 269.651 C 242.862 269.232,242.765 269.236,242.988 269.670 C 243.137 269.962,243.001 269.885,242.686 269.500 C 242.370 269.115,241.727 268.800,241.256 268.800 C 240.785 268.800,240.400 268.625,240.400 268.410 C 240.400 268.196,239.860 267.741,239.200 267.400 C 238.540 267.059,238.000 266.905,238.000 267.059 C 238.000 267.213,237.563 266.929,237.030 266.428 C 236.457 265.890,235.858 265.641,235.568 265.820 C 235.270 266.004,235.179 265.958,235.336 265.704 C 235.479 265.473,235.326 265.181,234.998 265.054 C 234.669 264.928,234.400 264.991,234.400 265.193 C 234.400 265.396,233.921 265.118,233.335 264.575 C 232.621 263.913,232.011 263.670,231.485 263.837 C 230.964 264.002,230.792 263.936,230.975 263.640 C 231.252 263.192,230.692 262.844,229.331 262.616 C 228.929 262.549,228.639 262.310,228.687 262.085 C 228.735 261.860,228.501 261.571,228.167 261.443 C 227.770 261.290,227.645 261.381,227.809 261.705 C 227.947 261.977,227.803 261.888,227.490 261.506 C 227.177 261.125,226.804 260.930,226.660 261.073 C 226.517 261.216,226.400 261.123,226.400 260.867 C 226.400 260.610,226.152 260.400,225.849 260.400 C 225.546 260.400,225.098 260.160,224.855 259.866 C 224.611 259.572,223.689 259.093,222.806 258.802 C 221.923 258.510,221.200 258.143,221.200 257.985 C 221.200 257.828,220.345 257.302,219.300 256.818 C 218.255 256.334,216.770 255.600,216.000 255.188 C 215.230 254.776,214.150 254.427,213.600 254.413 C 212.869 254.395,212.749 254.294,213.153 254.038 C 213.587 253.762,213.524 253.630,212.856 253.418 C 212.389 253.270,211.821 253.263,211.594 253.404 C 211.366 253.544,211.230 253.429,211.290 253.148 C 211.351 252.867,211.175 252.606,210.900 252.568 C 210.625 252.531,210.265 252.456,210.100 252.403 C 209.935 252.349,209.652 252.331,209.470 252.363 C 209.289 252.394,209.245 252.250,209.374 252.043 C 209.502 251.835,208.534 251.130,207.223 250.475 C 205.640 249.684,204.776 249.437,204.651 249.742 C 204.548 249.994,204.449 249.885,204.432 249.500 C 204.414 249.115,204.203 248.800,203.962 248.800 C 203.721 248.800,202.956 248.402,202.262 247.916 C 201.392 247.306,201.171 247.244,201.549 247.716 C 201.924 248.183,201.951 248.400,201.636 248.400 C 201.382 248.400,201.045 248.085,200.887 247.700 C 200.543 246.860,199.200 246.657,199.200 247.444 " stroke="none" fill="#64cc2c" fill-rule="evenodd"></path><path id="path1" d="" stroke="none" fill="#6ccc2c" fill-rule="evenodd"></path><path id="path2" d="M114.773 21.217 C 114.441 21.422,114.437 21.575,114.757 21.774 C 115.001 21.924,115.200 21.846,115.200 21.600 C 115.200 21.354,115.368 21.256,115.572 21.383 C 115.777 21.509,116.039 21.460,116.155 21.273 C 116.409 20.862,115.413 20.821,114.773 21.217 M367.406 95.312 C 367.792 95.924,368.209 96.324,368.332 96.201 C 368.455 96.078,368.139 95.578,367.630 95.089 L 366.704 94.200 367.406 95.312 M198.998 112.802 C 197.975 113.932,198.410 114.037,199.486 112.920 C 199.973 112.414,200.226 112.000,200.048 112.000 C 199.870 112.000,199.397 112.361,198.998 112.802 " stroke="none" fill="#68cc2c" fill-rule="evenodd"></path><path id="path3" d="M114.773 21.217 C 114.441 21.422,114.437 21.575,114.757 21.774 C 115.001 21.924,115.200 21.846,115.200 21.600 C 115.200 21.354,115.368 21.256,115.572 21.383 C 115.777 21.509,116.039 21.460,116.155 21.273 C 116.409 20.862,115.413 20.821,114.773 21.217 M367.406 95.312 C 367.792 95.924,368.209 96.324,368.332 96.201 C 368.455 96.078,368.139 95.578,367.630 95.089 L 366.704 94.200 367.406 95.312 M198.998 112.802 C 197.975 113.932,198.410 114.037,199.486 112.920 C 199.973 112.414,200.226 112.000,200.048 112.000 C 199.870 112.000,199.397 112.361,198.998 112.802 " stroke="none" fill="#68cc2c" fill-rule="evenodd"></path><path id="path4" d="M114.773 21.217 C 114.441 21.422,114.437 21.575,114.757 21.774 C 115.001 21.924,115.200 21.846,115.200 21.600 C 115.200 21.354,115.368 21.256,115.572 21.383 C 115.777 21.509,116.039 21.460,116.155 21.273 C 116.409 20.862,115.413 20.821,114.773 21.217 M367.406 95.312 C 367.792 95.924,368.209 96.324,368.332 96.201 C 368.455 96.078,368.139 95.578,367.630 95.089 L 366.704 94.200 367.406 95.312 M198.998 112.802 C 197.975 113.932,198.410 114.037,199.486 112.920 C 199.973 112.414,200.226 112.000,200.048 112.000 C 199.870 112.000,199.397 112.361,198.998 112.802 " stroke="none" fill="#68cc2c" fill-rule="evenodd"></path></g></svg>