<svg width="1000" height="225" viewBox="0 0 1000 225" fill="none" xmlns="http://www.w3.org/2000/svg">
<g clip-path="url(#clip0_1_2)">
<path d="M223.497 139.866C222.355 153.228 216.201 165.662 206.272 174.672C196.343 183.682 183.375 188.6 169.971 188.438H140.453L84.2279 225V188.438L140.453 151.875H170.027C174.211 152.026 178.297 150.583 181.459 147.837C184.622 145.091 186.624 141.247 187.063 137.081C188.782 108.978 188.641 80.7912 186.641 52.7062C186.303 48.9599 184.628 45.4606 181.924 42.8476C179.219 40.2347 175.665 38.6826 171.911 38.475C152.738 37.2938 132.553 36.5625 112.34 36.5625C92.1275 36.5625 71.9428 37.2375 52.7701 38.5875C49.016 38.7951 45.4618 40.3472 42.7571 42.9601C40.0524 45.5731 38.3778 49.0724 38.0392 52.8188C36.0398 80.9037 35.8989 109.09 37.6176 137.194C38.0828 141.339 40.0969 145.156 43.2562 147.879C46.4155 150.601 50.4867 152.029 54.6537 151.875H84.2279V188.438H54.7099C41.3209 188.571 28.3763 183.636 18.4707 174.623C8.56504 165.611 2.43039 153.185 1.29634 139.838C-0.562939 109.861 -0.422065 79.7948 1.71802 49.8375C2.78063 37.4146 8.24576 25.7805 17.1276 17.034C26.0094 8.28741 37.7231 3.00425 50.1557 2.1375C70.1717 0.703125 91.256 0 112.34 0C133.425 0 154.509 0.703125 174.525 2.1375C186.995 2.98198 198.75 8.26975 207.657 17.0417C216.565 25.8137 222.035 37.489 223.075 49.95C225.211 79.8792 225.352 109.918 223.497 139.866V139.866Z" fill="#FF5100"/>
<path d="M281.015 160.481H369.344V138.319H307.778V26.6062H281.015V160.481Z" fill="#1B1B20"/>
<path d="M382.219 160.481H408.223V61.0312H382.219V160.481ZM380.111 35.0437C380.279 38.9403 381.944 42.6214 384.76 45.3191C387.575 48.0168 391.323 49.5228 395.221 49.5228C399.12 49.5228 402.868 48.0168 405.683 45.3191C408.498 42.6214 410.164 38.9403 410.332 35.0437C410.42 33.0037 410.094 30.9669 409.374 29.0561C408.655 27.1452 407.556 25.3999 406.144 23.9253C404.732 22.4506 403.037 21.277 401.16 20.4753C399.282 19.6736 397.262 19.2603 395.221 19.2603C393.18 19.2603 391.16 19.6736 389.283 20.4753C387.406 21.277 385.71 22.4506 384.299 23.9253C382.887 25.3999 381.788 27.1452 381.068 29.0561C380.349 30.9669 380.023 33.0037 380.111 35.0437V35.0437Z" fill="#1B1B20"/>
<path d="M510.075 61.0312H484.071L462.677 133.903L441.255 61.0312H415.251L448.986 160.481H476.115L510.075 61.0312Z" fill="#1B1B20"/>
<path d="M556.516 162.787C578.5 162.787 596.295 149.597 599.725 131.428H576.982C574.48 138.319 567.621 144.056 556.516 144.056C541.42 144.056 535.488 133.903 535.488 122.231V119.756H600.484V102.347C600.484 78.4406 585.585 58.7531 556.151 58.7531C526.717 58.7531 510.271 77.8781 510.271 104.85V118.406C510.215 146.25 528.404 162.787 556.516 162.787ZM535.432 100.434C535.432 87.0468 541.054 77.1187 556.095 77.1187C570.151 77.1187 576.532 86.4843 576.532 98.9156V101.391H535.432V100.434Z" fill="#1B1B20"/>
<path d="M669.528 163.125C703.263 163.125 724.207 140.175 725.556 112.809H700.705C698.962 127.912 689.46 141.131 669.528 141.131C647.179 141.131 637.621 125.831 637.621 104.4V82.6593C637.621 61.2281 647.179 45.9281 669.528 45.9281C689.404 45.9281 698.962 59.1187 700.705 74.25H725.556C724.207 46.8843 703.375 23.9343 669.528 23.9343C629.187 23.9343 611.026 49.7531 611.026 83.9812V103.106C611.026 137.362 629.187 163.125 669.528 163.125Z" fill="#1B1B20"/>
<path d="M739.669 160.481H765.673V101.587C765.673 88.2 773.122 81.3093 784.789 81.3093C797.411 81.3093 802.95 89.55 802.95 100.997V160.481H828.954V96.8062C828.954 73.2937 815.375 58.7531 793.785 58.7531C780.966 58.7531 770.845 64.3781 765.673 72.8156V20.8687H739.669V160.481Z" fill="#1B1B20"/>
<path d="M878.572 162.787C890.042 162.787 902.664 158.006 907.247 151.312V160.481H932.295V97.0031C932.295 73.8562 915.287 58.7531 890.435 58.7531C869.014 58.7531 853.524 69.075 847.789 88.3969H871.881C874.552 83.025 880.09 79.0312 889.086 79.0312C899.797 79.0312 906.291 85.8937 906.291 95.0906V108.675C899.072 103.046 890.14 100.067 880.99 100.237C857.094 100.237 840.845 110.194 840.845 131.794C840.901 151.116 856.194 162.787 878.572 162.787ZM885.263 145.575C874.355 145.575 866.146 140.231 866.146 131.034C866.146 121.837 873.793 116.972 886.022 116.972C897.688 116.972 906.291 122.147 906.291 131.034C906.291 139.922 896.676 145.575 885.263 145.575V145.575Z" fill="#1B1B20"/>
<path d="M981.014 160.481H998.977V139.444H988.323C981.435 139.444 978.961 136.772 978.961 130.275V82.0687H1000.19V61.0312H978.961V33.8906H952.901V61.0312H938.845V82.0687H952.901V132.187C952.901 149.794 961.757 160.481 981.014 160.481Z" fill="#1B1B20"/>
</g>
<defs>
<clipPath id="clip0_1_2">
<rect width="1000" height="225" fill="white"/>
</clipPath>
</defs>
</svg>
