<?xml version="1.0" encoding="UTF-8"?>
<!DOCTYPE svg PUBLIC "-//W3C//DTD SVG 1.1//EN" "http://www.w3.org/Graphics/SVG/1.1/DTD/svg11.dtd">
<svg xmlns="http://www.w3.org/2000/svg" version="1.1" width="225px" height="225px" style="shape-rendering:geometricPrecision; text-rendering:geometricPrecision; image-rendering:optimizeQuality; fill-rule:evenodd; clip-rule:evenodd" xmlns:xlink="http://www.w3.org/1999/xlink">
<g><path style="opacity:1" fill="#fefefe" d="M -0.5,-0.5 C 74.5,-0.5 149.5,-0.5 224.5,-0.5C 224.5,74.5 224.5,149.5 224.5,224.5C 149.5,224.5 74.5,224.5 -0.5,224.5C -0.5,149.5 -0.5,74.5 -0.5,-0.5 Z"/></g>
<g><path style="opacity:1" fill="#16abf7" d="M 126.5,38.5 C 141.35,37.5074 147.517,44.174 145,58.5C 137.765,69.0962 129.432,70.0962 120,61.5C 115.033,51.731 117.2,44.0643 126.5,38.5 Z"/></g>
<g><path style="opacity:1" fill="#f54c3f" d="M 81.5,43.5 C 103.962,44.46 114.796,56.1266 114,78.5C 108.091,97.7037 95.2574,105.537 75.5,102C 59.1204,94.7434 52.6204,82.2434 56,64.5C 60.6197,52.6285 69.1197,45.6285 81.5,43.5 Z"/></g>
<g><path style="opacity:1" fill="#eb5d7b" d="M 140.5,77.5 C 156.153,78.1448 161.32,85.8114 156,100.5C 146.849,109.062 138.516,108.396 131,98.5C 128.25,88.6743 131.417,81.6743 140.5,77.5 Z"/></g>
<g><path style="opacity:1" fill="#555a60" d="M 38.5,84.5 C 49.2497,83.7567 52.2497,88.2567 47.5,98C 38.4056,101.235 34.2389,98.0679 35,88.5C 36.0319,86.9733 37.1986,85.64 38.5,84.5 Z"/></g>
<g><path style="opacity:1" fill="#54595f" d="M 55.5,104.5 C 69.0332,103.864 75.1998,110.198 74,123.5C 69.1233,132.693 61.9566,135.193 52.5,131C 45.5714,124.218 44.7381,116.718 50,108.5C 51.8121,107.023 53.6455,105.69 55.5,104.5 Z"/></g>
<g><path style="opacity:1" fill="#4134d8" d="M 115.5,106.5 C 110.797,106.437 106.13,106.771 101.5,107.5C 104.017,106.027 106.85,105.36 110,105.5C 112.033,105.506 113.866,105.839 115.5,106.5 Z"/></g>
<g><path style="opacity:1" fill="#0603fc" d="M 115.5,106.5 C 127.748,108.055 135.914,114.722 140,126.5C 143.368,148.959 133.868,161.959 111.5,165.5C 95.9398,163.818 86.1065,155.485 82,140.5C 80.3184,124.514 86.8184,113.514 101.5,107.5C 106.13,106.771 110.797,106.437 115.5,106.5 Z"/></g>
<g><path style="opacity:1" fill="#54595f" d="M 168.5,108.5 C 183.372,108.867 188.872,116.2 185,130.5C 178.589,138.207 171.089,139.374 162.5,134C 155.57,123.275 157.57,114.775 168.5,108.5 Z"/></g>
<g><path style="opacity:1" fill="#805df2" d="M 69.5,143.5 C 78.8504,143.365 81.517,147.532 77.5,156C 68.9562,159.322 65.1229,156.489 66,147.5C 66.6897,145.65 67.8564,144.316 69.5,143.5 Z"/></g>
<g><path style="opacity:1" fill="#22be92" d="M 72.5,166.5 C 78.2465,165.866 81.5798,168.366 82.5,174C 82.0113,178.489 79.5113,180.989 75,181.5C 69.2437,180.566 66.9104,177.233 68,171.5C 69.1932,169.503 70.6932,167.836 72.5,166.5 Z"/></g>
</svg>
