<svg width="18" height="20" viewBox="0 0 18 20" fill="none" xmlns="http://www.w3.org/2000/svg">
    <path
        d="M9 1.81818L10.6262 3.6934L12.905 2.70946L13.5565 5.10455L16.0365 5.20677L15.5843 7.64735L17.7744 8.81549L16.308 10.8182L17.7744 12.8209L15.5843 13.989L16.0365 16.4296L13.5565 16.5318L12.905 18.9269L10.6262 17.9429L9 19.8182L7.37382 17.9429L5.09505 18.9269L4.44354 16.5318L1.96352 16.4296L2.41572 13.989L0.225649 12.8209L1.692 10.8182L0.225649 8.81549L2.41572 7.64735L1.96352 5.20677L4.44354 5.10455L5.09505 2.70946L7.37382 3.6934L9 1.81818Z"
        fill="#C0C3D9" />
    <path fill-rule="evenodd" clip-rule="evenodd"
        d="M7.56983 14.1289L4.73486 11.2939L5.63534 10.3934L8.02007 12.7782L12.5855 8.21268L13.486 9.11316L8.4703 14.1289C8.22164 14.3775 7.81849 14.3775 7.56983 14.1289Z"
        fill="white" />
</svg>
    