<svg xmlns="http://www.w3.org/2000/svg" xmlns:xlink="http://www.w3.org/1999/xlink" version="1.1" viewBox="-0.5 -14.5 224 224" style="max-height: 500px" width="224" height="224">
  <g id="Group">
    <path stroke="none" fill-rule="evenodd" fill="#1B2528" id="Shape" d="M60.0475 0L162.484 0C165.646 0 168.572 1.686 170.138 4.409L221.385 93.276C222.952 96.028 222.952 99.402 221.385 102.124L170.168 190.962C168.572 193.684 165.674 195.371 162.513 195.371L60.0475 195.371C56.8845 195.371 53.9595 193.684 52.3925 190.962L1.17451 102.124C-0.391495 99.372 -0.391495 95.999 1.17451 93.276L52.3925 4.409C53.9885 1.686 56.8845 0 60.0475 0L60.0475 0ZM185.566 61.671C186.275 61.493 187.044 61.73 187.517 62.322L187.546 62.322C188.019 62.914 188.137 63.683 187.842 64.364L172.208 100.496C171.911 101.118 171.35 101.562 170.671 101.65L170.405 101.65C169.814 101.65 169.282 101.384 168.897 100.94L162.78 93.631L125.659 126.124C124.802 126.893 123.471 126.804 122.704 125.946L97.1385 96.945L69.9485 120.649C70.2145 121.833 70.3625 123.046 70.3625 124.289C70.3625 133.551 62.8255 141.098 53.5755 141.098C44.3245 141.098 36.7885 133.551 36.7885 124.289C36.7885 115.026 44.3245 107.48 53.5755 107.48C55.5845 107.48 57.5065 107.865 59.3085 108.516L96.3705 76.201C97.5815 75.135 99.4735 75.254 100.538 76.467L125.54 104.817L152.406 81.291L146.259 73.981C145.815 73.449 145.668 72.738 145.904 72.087C146.111 71.436 146.643 70.963 147.323 70.815L185.566 61.671L185.566 61.671Z"/>
    <path stroke="none" fill="#1B2528" id="Shape" d="M349.433 168.824C338.369 168.824 327.615 167.468 317.199 164.726C306.783 161.983 298.308 158.347 291.806 153.786L304.502 125.25C310.635 129.287 317.723 132.553 325.796 135.019C333.87 137.484 341.821 138.717 349.648 138.717C364.502 138.717 371.928 135.019 371.928 127.592C371.928 123.678 369.771 120.812 365.488 118.994C361.328 117.053 354.548 115.019 345.149 112.923C334.856 110.705 326.259 108.363 319.356 105.897C312.453 103.278 306.536 99.179 301.575 93.571C296.613 87.962 294.148 80.412 294.148 70.89C294.148 62.539 296.429 55.05 300.989 48.425C305.55 41.645 312.33 36.314 321.328 32.4C330.45 28.487 341.574 26.545 354.733 26.545C363.731 26.545 372.576 27.593 381.297 29.658C390.018 31.599 397.722 34.558 404.347 38.44L392.421 67.161C379.386 60.135 366.751 56.622 354.517 56.622C346.844 56.622 341.235 57.793 337.722 60.135C334.209 62.354 332.453 65.281 332.453 68.918C332.453 72.554 334.548 75.297 338.708 77.115C342.869 78.933 349.587 80.813 358.831 82.785C369.247 85.004 377.845 87.408 384.625 90.027C391.528 92.492 397.444 96.529 402.406 102.138C407.49 107.623 410.017 115.111 410.017 124.603C410.017 132.8 407.737 140.227 403.176 146.883C398.615 153.539 391.774 158.871 382.652 162.907C373.531 166.821 362.468 168.763 349.433 168.763L349.433 168.824L349.433 168.824Z"/>
    <path stroke="none" fill="#1B2528" id="Shape" d="M463.422 59.951L421.389 59.951L421.389 29.289L543.914 29.289L543.914 59.951L502.097 59.951L502.097 166.082L463.422 166.082L463.422 59.951L463.422 59.951Z"/>
    <path stroke="none" fill-rule="evenodd" fill="#1B2528" id="Shape" d="M632.842 29.289L594.722 29.289L534.322 166.082L573.798 166.082L582.612 144.295C583.783 141.398 586.618 139.518 589.73 139.518L638.235 139.518C640.762 139.518 643.011 141.028 643.967 143.37L653.15 166.082L693.396 166.082L632.842 29.289L632.842 29.289ZM596.91 108.425L611.764 71.476C612.38 69.904 614.599 69.904 615.215 71.476L630.069 108.425C630.562 109.657 629.668 110.983 628.343 110.983L598.667 110.983C597.342 110.983 596.448 109.657 596.941 108.425L596.91 108.425L596.91 108.425Z"/>
    <path stroke="none" fill="#1B2528" id="Shape" d="M724.82 59.951L682.818 59.951L682.818 29.289L805.343 29.289L805.343 59.951L763.526 59.951L763.526 166.082L724.82 166.082L724.82 59.951L724.82 59.951Z"/>
    <path stroke="none" fill="#1B2528" id="Shape" d="M875.611 168.824C864.551 168.824 853.793 167.468 843.377 164.726C832.961 161.983 824.487 158.347 817.985 153.786L830.681 125.25C836.813 129.287 843.901 132.553 851.975 135.019C860.049 137.484 868.001 138.717 875.831 138.717C890.681 138.717 898.111 135.019 898.111 127.592C898.111 123.678 895.951 120.812 891.671 118.994C887.511 117.053 880.731 115.019 871.331 112.923C861.035 110.705 852.437 108.363 845.535 105.897C838.632 103.278 832.715 99.179 827.753 93.571C822.792 87.962 820.327 80.412 820.327 70.89C820.327 62.539 822.607 55.05 827.168 48.425C831.729 41.645 838.508 36.314 847.507 32.4C856.628 28.487 867.751 26.545 880.911 26.545C889.911 26.545 898.751 27.593 907.471 29.658C916.201 31.599 923.901 34.558 930.521 38.44L918.601 67.161C905.561 60.135 892.931 56.622 880.691 56.622C873.021 56.622 867.411 57.793 863.901 60.135C860.388 62.354 858.631 65.281 858.631 68.918C858.631 72.554 860.727 75.297 864.891 77.115C869.051 78.933 875.761 80.813 885.011 82.785C895.431 85.004 904.021 87.408 910.801 90.027C917.711 92.492 923.621 96.529 928.581 102.138C933.671 107.623 936.201 115.111 936.201 124.603C936.201 132.8 933.911 140.227 929.351 146.883C924.791 153.539 917.951 158.871 908.831 162.907C899.711 166.821 888.651 168.763 875.611 168.763L875.611 168.824L875.611 168.824Z"/>
    <path stroke="none" fill="#1B2528" id="Shape" d="M1001.09 29.289L962.392 29.289L962.392 166.082L1001.09 166.082L1001.09 29.289L1001.09 29.289Z"/>
    <path stroke="none" fill="#1B2528" id="Shape" d="M1125.53 94.742L1159.74 94.742L1159.74 145.219C1159.74 149.194 1157.67 152.954 1154.25 154.988C1147.78 158.871 1140.63 161.983 1132.77 164.294C1122.6 167.283 1112.43 168.793 1102.29 168.793C1087.96 168.793 1075.05 165.804 1063.59 159.795C1052.12 153.663 1043.13 145.219 1036.62 134.402C1030.12 123.586 1026.86 111.352 1026.86 97.669C1026.86 83.987 1030.12 71.753 1036.62 60.936C1043.13 50.12 1052.19 41.707 1063.77 35.729C1075.36 29.596 1088.46 26.545 1103.06 26.545C1115.82 26.545 1127.29 28.702 1137.45 32.986C1147.62 37.3 1156.1 43.463 1162.85 51.537L1138.23 73.818C1128.98 63.648 1117.89 58.563 1105.01 58.563C1093.26 58.563 1083.83 62.138 1076.65 69.318C1069.47 76.344 1065.9 85.805 1065.9 97.669C1065.9 105.219 1067.53 111.999 1070.8 118.008C1074.07 123.863 1078.63 128.486 1084.48 131.875C1090.34 135.142 1097.05 136.775 1104.6 136.775C1112.15 136.775 1119 135.265 1125.53 132.276L1125.53 94.742L1125.53 94.742Z"/>
  </g>
</svg>
