<svg clip-rule="evenodd" fill-rule="evenodd" viewBox="0 0 560 400" height = "250" width = "250" xmlns="http://www.w3.org/2000/svg"><path d="m107.275 255.214h-92.275v-110.428h92.275zm263.234-17.757a9.684 9.684 0 0 1 -9.725-9.725c0-5.402 4.106-9.724 9.725-9.724 5.618 0 9.724 4.322 9.724 9.724a9.684 9.684 0 0 1 -9.724 9.725zm-111.133-16.586c-1.512 0-2.809.864-2.809 2.161 0 1.513 1.945 2.161 3.242 2.593 2.809.865 5.834 2.161 5.834 5.835 0 4.106-3.673 5.835-6.915 5.835-2.809 0-4.97-1.081-6.915-3.026l2.161-2.161c1.729 1.513 2.809 2.377 4.754 2.377 1.729 0 3.242-.864 3.242-2.809 0-1.729-1.945-2.377-3.89-3.241-2.593-.865-5.187-2.161-5.187-5.403 0-3.458 2.81-5.186 5.835-5.186 2.377 0 4.322.648 6.051 2.161l-1.945 2.377c-.648-.648-2.161-1.513-3.458-1.513zm-106.451-2.517h5.186c4.754 0 10.157 2.593 10.157 9.292 0 6.915-5.187 9.508-10.373 9.508h-4.97zm167.169.194 7.132 18.585h-3.89l-4.754-13.615-2.594 7.132h3.026l1.08 2.809h-5.186l-1.297 3.674h-3.673l7.347-18.585zm-140.662 18.585h-3.242v-18.585h4.971l5.186 13.614 5.403-13.614h4.97v18.585h-3.242v-14.479l-5.834 14.479h-2.378l-5.834-14.479zm211.762 0h-3.242v-18.585h2.81l9.292 12.75v-12.75h3.242v18.585h-2.81l-9.292-12.534zm-170.69 0h-3.242v-18.585h2.81l9.292 12.75v-12.75h3.242v18.585h-2.81l-9.292-12.534zm-81.217-18.585 7.131 18.585h-3.89l-4.754-13.615-2.593 7.132h3.025l1.081 2.809h-5.187l-1.297 3.674h-3.673l7.347-18.585zm105.213 18.513h-3.242v-18.584h3.242zm-35.873 0h-3.241v-18.584h3.241zm144.356 0h-3.242v-18.584h3.242zm-56.655-18.634c3.025 0 6.699 1.513 6.699 5.403 0 3.025-2.161 4.538-4.322 5.186l5.834 7.996h-4.322l-5.402-7.564h-1.081v7.564h-3.241v-18.585zm-12.448 2.798h-4.538v15.776h-3.242v-15.776h-4.538v-2.809h12.318zm59.266 0h-4.538v15.776h-3.242v-15.776h-4.538v-2.809h12.318zm27.363-.192c-3.674 0-6.267 3.026-6.267 6.699 0 3.674 2.593 6.699 6.267 6.699 3.673 0 6.267-3.025 6.267-6.699 0-3.673-2.81-6.699-6.267-6.699zm-212.614.346h-1.513v12.966h.649c4.754 0 7.995-1.729 7.995-6.267 0-4.322-2.593-6.699-7.131-6.699zm138.216-.143h-2.377v5.403h1.945c2.161 0 3.674-.865 3.674-2.593 0-1.729-1.297-2.81-3.242-2.81zm96.842-23.363c-.354-.455-.712-.908-1.117-1.313 0 0 0-.216-.216-.216l-1.729 1.296c-1.729 1.297-3.674 1.945-5.835 2.161-2.377.216-4.538.216-6.915-.432-4.106-1.081-6.483-3.89-7.348-7.996-.216-1.512-.432-3.025 0-4.538.433-1.729 1.297-3.241 2.378-4.538 1.08-1.297 2.377-2.161 3.673-3.242l.216-.216c-.216-.432-.648-.864-.864-1.08-1.081-1.513-2.161-3.026-2.593-4.754-.865-3.89.864-7.996 4.97-9.725 2.161-.864 4.322-1.08 6.483-.648 1.945.216 3.458.864 4.971 2.161 1.296 1.08 1.944 2.377 2.377 4.106.432 1.728.432 3.457-.216 4.97-.433 1.081-1.081 1.945-1.945 2.593l-3.458 2.81c.432 0 .216 0 .216.216l6.267 7.347c.648-.864 1.081-1.945 1.297-3.025.216-1.081.432-2.161.432-3.458h6.483l-.216 1.945c-.216 1.513-.432 3.241-1.081 4.754-.648 1.729-1.296 3.026-2.593 4.538 0 0 0 .216-.216.216l6.483 7.78h-8.212c-.216 0-.216 0-.432-.216-.405-.405-.763-.858-1.118-1.314zm-203.607-29.078c-2.377 0-4.754 1.297-4.754 3.674 0 2.809 3.458 3.457 6.267 4.538 5.187 1.729 11.237 4.106 11.237 11.669 0 7.78-7.347 11.238-13.614 11.238-5.619 0-9.941-2.161-13.83-6.051l4.97-4.755c3.025 2.81 5.186 4.539 9.076 4.539 2.809 0 5.835-1.297 5.835-4.539 0-3.025-3.242-4.322-6.915-5.618-4.755-1.729-9.941-3.89-9.941-10.805s5.835-10.157 11.886-10.157c4.538 0 8.211 1.513 11.885 4.322l-4.322 5.186c-2.377-1.512-4.97-3.241-7.78-3.241zm-50.74-6.064v23.339c.216 1.945.648 3.458 1.729 4.538 1.08 1.297 2.377 1.729 4.106 1.729 1.728 0 3.025-.648 4.105-1.729.865-.864 1.513-2.593 1.513-4.538v-23.339h7.348v23.987c0 4.106-1.297 7.132-3.674 9.509s-5.619 3.674-9.292 3.674c-3.674-.217-6.7-1.297-9.293-3.674s-3.89-5.619-3.89-9.509v-23.987zm355.152-.091v23.339c.216 1.945.648 3.458 1.729 4.538 1.08 1.297 2.377 1.729 4.106 1.729s3.025-.648 4.106-1.729c.864-.864 1.512-2.593 1.512-4.538h-.216v-23.339h7.348v23.988c0 4.106-1.297 7.131-3.674 9.508-2.593 2.377-5.619 3.674-9.292 3.674-3.458 0-6.7-1.297-9.077-3.674-2.593-2.377-3.889-5.619-3.889-9.508v-23.988zm51.242 15.62v21.178h-6.699v-1.513c-1.729 1.081-3.89 1.729-6.267 1.729-2.809 0-5.187-.864-7.131-2.161-1.945-1.296-3.458-2.809-4.322-4.538l-.649-1.513c-.216-.648-.216-1.296-.432-2.161-.216-1.512-.432-4.106-.432-8.212 0-4.105.216-6.699.432-8.211.216-1.513.648-2.81 1.297-3.674.648-1.729 2.161-3.242 4.106-4.538a12.658 12.658 0 0 1 7.131-2.161c3.458 0 6.483 1.08 8.644 3.241 2.161 1.945 3.458 4.755 4.106 7.78l.216 1.297h-7.564l-.216-.865c-.432-1.08-1.08-2.161-1.945-3.025-.864-.649-2.161-1.081-3.457-1.081-1.081 0-1.945.216-2.593.649-.649.432-1.297.864-1.729 1.512-.649.649-.865 1.297-1.081 2.377-.216 1.081-.432 3.458-.432 6.699 0 3.242.216 5.619.432 6.7.216 1.08.649 1.728 1.081 2.377.432.648 1.08 1.08 1.729 1.512.864.433 1.512.649 2.593.649 1.729 0 3.025-.649 4.106-1.729 1.08-1.081 1.729-2.593 1.729-4.538v-.648h-5.835v-7.132zm-332.915 14.068v7.132h-6.916v-7.132zm-44.085 0v7.132h-6.915v-7.132zm136.966-30.081c3.009.007 5.375.87 7.312 2.161 1.945 1.513 3.242 3.025 4.106 4.754.648.865 1.08 2.161 1.08 3.242.217 1.513.217 4.106.217 8.212s0 6.699-.217 8.212c-.216 1.728-.648 3.025-1.296 3.889-.865 1.729-2.161 3.242-4.106 4.539-1.945 1.296-4.538 2.161-7.348 2.161-2.809 0-5.186-.865-7.131-2.161-1.945-1.297-3.458-2.81-4.322-4.539a9.54 9.54 0 0 1 -.284-.655l-.081-.202a9.088 9.088 0 0 0 -.283-.655c-.216-.649-.216-1.297-.432-2.161-.217-1.513-.433-4.106-.433-8.212s.216-6.699.433-8.212c.216-1.513.648-2.809 1.296-3.674.865-1.729 2.377-3.241 4.322-4.538 1.945-1.513 4.322-2.161 7.132-2.161zm-31.817 0c3.009.007 5.375.87 7.312 2.161 1.945 1.513 3.242 3.025 4.106 4.754.649.865 1.081 2.161 1.081 3.242.216 1.513.216 4.106.216 8.212s0 6.699-.216 8.212c-.216 1.728-.648 3.025-1.297 3.889-.864 1.729-2.161 3.242-4.106 4.539-1.945 1.296-4.538 2.161-7.347 2.161a12.67 12.67 0 0 1 -7.132-2.161c-1.944-1.297-3.457-2.81-4.322-4.539a9.088 9.088 0 0 1 -.283-.655l-.081-.202a9.072 9.072 0 0 0 -.284-.655c-.216-.649-.216-1.297-.432-2.161-.216-1.513-.432-4.106-.432-8.212s.216-6.699.432-8.212.648-2.809 1.297-3.674c.864-1.729 2.377-3.241 4.322-4.538 1.944-1.513 4.322-2.161 7.131-2.161zm-16.612.415v7.131h-16.208v7.996h10.805v6.915h-10.805v14.695h-7.347v-36.737zm212.94-.123c3.025 0 5.618.864 7.563 2.593 2.377 1.945 3.674 4.754 3.674 8.212-.216 4.754-2.161 8.212-6.051 9.941l7.996 15.991h-8.428l-6.915-14.695h-4.754v14.695h-7.348v-36.737zm-34.3-.065c4.971.216 8.86 2.377 11.237 6.483a24.424 24.424 0 0 1 1.945 4.322c.216 1.513.216 3.89.216 7.564 0 3.889-.216 6.483-.432 7.995l-.648 2.161a8.182 8.182 0 0 0 -.51.912l-.061.122a8.26 8.26 0 0 1 -.51.911 12.47 12.47 0 0 1 -4.538 4.322c-1.945 1.297-4.106 1.945-6.915 1.945h-12.534v-36.737zm-97.602 0c4.97.216 8.86 2.377 11.237 6.483a24.424 24.424 0 0 1 1.945 4.322c.216 1.513.216 3.89.216 7.564 0 3.889-.216 6.483-.432 7.995l-.648 2.161a8.182 8.182 0 0 0 -.51.912l-.061.122a8.26 8.26 0 0 1 -.51.911 12.47 12.47 0 0 1 -4.538 4.322c-1.945 1.297-4.106 1.945-6.915 1.945h-12.534v-36.737zm-249.811 3.708h-6.051l-11.454 30.687h6.916l2.161-6.916h7.347l-1.513-5.402h-4.106l3.674-11.021 7.78 23.339h6.699zm-30.499-.691h-33.063v30.686h6.483v-11.885h8.644v-5.619h-8.644v-7.131h25.932c1.296 0 2.377.216 3.241.648 1.081.432 1.945 1.08 2.594 1.945.648.864 1.08 1.945 1.512 3.025.216 1.297.433 2.593.433 4.106s-.217 2.809-.433 4.106c-.432 1.297-.864 2.377-1.512 3.242-.649.864-1.729 1.512-2.81 1.945-1.08.432-2.593.648-4.322.648h-4.106v-12.75h-6.483v18.152h10.373c2.593 0 4.754-.432 6.699-1.08s3.674-1.729 4.971-3.026c1.296-1.296 2.377-3.025 3.241-4.97a20.726 20.726 0 0 0 1.081-6.699c0-4.97-1.297-8.86-3.89-11.453-2.377-2.378-5.619-3.674-9.941-3.89zm330.465 26.098-7.348-8.644c-.864.649-1.728 1.297-2.377 2.161-.864 1.081-1.296 2.161-1.296 3.458 0 2.377 1.512 4.322 3.673 4.97 1.945.649 3.674.432 5.403-.432.648-.432 1.297-.864 1.945-1.513zm-55.558-21.768h.216v22.691h4.971c2.377 0 4.106-.864 5.186-2.593.432-.648.649-1.513.865-2.377.216-1.081.216-3.242.216-6.267 0-2.81 0-4.971-.216-6.267-.216-1.081-.433-1.945-1.081-2.593-1.296-1.729-2.809-2.594-4.97-2.594zm97.603 0h.216v22.691h4.97c2.377 0 4.106-.864 5.186-2.593.433-.648.649-1.513.865-2.377.216-1.081.216-3.242.216-6.267 0-2.81 0-4.971-.216-6.267-.216-1.081-.432-1.945-1.081-2.593-1.296-1.729-2.809-2.594-4.97-2.594zm-150.826 11.227c0-3.242-.216-5.619-.216-6.483-.217-1.081-.649-1.729-1.081-2.377-.432-.649-1.08-1.081-1.729-1.513-.648-.432-1.512-.648-2.593-.648-1.08 0-1.945.216-2.593.648-.649.432-1.297.864-1.729 1.513-.648.648-.864 1.296-1.081 2.377-.216 1.08-.432 3.457-.432 6.699s.216 5.619.432 6.699c.217 1.081.649 1.729 1.081 2.377.432.649 1.08 1.081 1.729 1.513 1.513.864 3.674.864 5.186 0 .865-.432 1.297-.864 1.729-1.513.432-.864.864-1.512 1.081-2.593 0-1.08.216-3.458.216-6.699zm31.816 0c0-3.242-.216-5.619-.216-6.483-.216-1.081-.648-1.729-1.08-2.377-.433-.649-1.081-1.081-1.729-1.513s-1.513-.648-2.593-.648c-1.081 0-1.945.216-2.594.648-.648.432-1.296.864-1.728 1.513-.649.648-.865 1.296-1.081 2.377-.216 1.08-.432 3.457-.432 6.699s.216 5.619.432 6.699c.216 1.081.648 1.729 1.081 2.377.432.649 1.08 1.081 1.728 1.513 1.513.864 3.674.864 5.187 0 .864-.432 1.296-.864 1.729-1.513.432-.864.864-1.512 1.08-2.593 0-1.08.216-3.458.216-6.699zm151.797-11.594h.216v8.212h6.483c1.512 0 2.809-.432 3.457-1.297.649-.864 1.081-1.729 1.081-3.025 0-1.513-.432-2.377-1.297-3.026-.648-.648-1.729-.864-3.025-.864zm-80.235 5.712c.865-.649 1.945-1.297 2.81-2.161.864-.865 1.08-1.729.864-2.81-.432-2.161-3.025-3.025-4.97-1.729-1.081.649-1.513 2.378-.865 3.674.433 1.297 1.297 2.161 2.161 3.026z" fill="#0074b6"/></svg>
