<svg xmlns="http://www.w3.org/2000/svg" width="250" height="250" fill="none"><path fill="red" d="m129.342 163.821-40.211-.744c-13.02-.259-26.072.258-38.836-2.424-19.418-4.009-20.794-23.662-22.233-40.148-1.983-23.177-1.215-46.774 2.527-69.757 2.114-12.896 10.429-20.591 23.288-21.429 43.411-3.039 87.11-2.679 130.425-1.26 4.574.13 9.18.84 13.691 1.648 22.266 3.944 22.809 26.216 24.252 44.965 1.439 18.942.832 37.981-1.919 56.794-2.208 15.577-6.431 28.64-24.253 29.901-22.329 1.649-44.147 2.976-66.539 2.554.001-.1-.128-.1-.192-.1Zm-23.64-39.437c16.827-9.762 33.333-19.362 50.064-29.06-16.858-9.763-33.333-19.363-50.064-29.06v58.12Z"/><path fill="#000" d="M51.721 212.048H44.25l-1.454 5.578H37l8.479-27.252h5.013l8.534 27.252h-5.85l-1.455-5.578Zm-6.28-4.585h5.07l-2.535-9.714-2.534 9.714Zm35.109 10.163h-5.48l-8.013-17.875v17.875h-5.479v-27.252h5.479l8.032 17.893v-17.893h5.46v27.252Zm17.684-5.578h-7.472l-1.454 5.578h-5.795l8.478-27.252h5.013l8.535 27.252h-5.851l-1.454-5.578Zm-6.28-4.585h5.069l-2.534-9.714-2.535 9.714Zm21.617 5.596h9.615v4.567h-15.094v-27.252h5.479v22.685Zm15.746-10.444 4.081-12.241h5.963l-7.267 17.369v9.883h-5.553v-9.883l-7.287-17.369h5.963l4.1 12.241Zm30.449-7.655h-6.708v22.666h-5.497V194.96h-6.597v-4.586h18.802v4.586Zm8.871 22.666h-5.479v-27.252h5.479v27.252Zm22.995-9.078c-.137 3.107-1.006 5.459-2.609 7.056-1.602 1.597-3.863 2.396-6.783 2.396-3.068 0-5.423-1.011-7.062-3.032-1.628-2.034-2.442-4.929-2.442-8.685v-4.585c0-3.743.845-6.626 2.535-8.647 1.689-2.034 4.037-3.051 7.044-3.051 2.956 0 5.199.83 6.727 2.489 1.54 1.66 2.416 4.043 2.627 7.15h-5.497c-.05-1.922-.348-3.244-.894-3.968-.535-.736-1.522-1.104-2.963-1.104-1.466 0-2.504.518-3.112 1.553-.609 1.023-.932 2.714-.969 5.073v5.147c0 2.707.298 4.566.894 5.577.609 1.011 1.646 1.516 3.112 1.516 1.441 0 2.435-.349 2.982-1.048.546-.711.857-1.99.931-3.837h5.479Zm14.833 1.928c0-1.111-.285-1.947-.857-2.508-.559-.574-1.584-1.167-3.075-1.778-2.72-1.036-4.677-2.246-5.869-3.631-1.193-1.398-1.789-3.045-1.789-4.941 0-2.296.807-4.137 2.422-5.522 1.628-1.397 3.69-2.096 6.187-2.096 1.665 0 3.149.356 4.454 1.067a7.209 7.209 0 0 1 3 2.976c.708 1.285 1.062 2.745 1.062 4.379h-5.46c0-1.272-.273-2.239-.82-2.901-.534-.673-1.311-1.01-2.329-1.01-.957 0-1.702.287-2.236.861-.535.561-.802 1.322-.802 2.283 0 .749.298 1.429.895 2.04.596.599 1.652 1.223 3.168 1.872 2.646.961 4.565 2.14 5.758 3.537 1.205 1.398 1.807 3.176 1.807 5.335 0 2.37-.751 4.223-2.254 5.558-1.504 1.335-3.547 2.003-6.131 2.003-1.752 0-3.348-.362-4.789-1.086-1.442-.723-2.572-1.759-3.392-3.107-.808-1.347-1.211-2.938-1.211-4.772h5.497c0 1.572.304 2.714.913 3.425.609.711 1.603 1.067 2.982 1.067 1.913 0 2.869-1.017 2.869-3.051Z"/></svg>