<?xml version="1.0" encoding="utf-8"?>
<svg xmlns="http://www.w3.org/2000/svg" viewBox="228.9865 169.9441 56.6706 61.1925" width="250px" height="250px">
  <path d="M 262.058 170.807 C 265.784 172.57 269.321 174.59 272.871 176.682 C 274.3 177.496 274.3 177.496 275.759 178.326 C 282.787 182.401 282.787 182.401 285.058 185.807 C 285.488 189.914 285.472 194.021 285.484 198.149 C 285.495 200.169 285.545 202.186 285.595 204.205 C 285.602 205.484 285.609 206.763 285.617 208.08 C 285.63 209.25 285.644 210.42 285.657 211.625 C 284.732 216.538 281.784 218.569 277.857 221.384 C 275.475 222.812 273.086 224.226 270.683 225.619 C 269.858 226.121 269.033 226.623 268.183 227.141 C 263.342 229.965 259.771 231.952 254.058 230.807 C 250.111 228.954 246.444 226.734 242.746 224.432 C 241.745 223.828 240.744 223.225 239.712 222.604 C 232.429 218.177 232.429 218.177 230.058 215.807 C 229.519 211.466 229.473 207.111 229.413 202.741 C 229.385 201.291 229.337 199.842 229.269 198.394 C 228.711 186.445 228.711 186.445 231.825 182.658 C 234.165 181.082 236.478 179.941 239.058 178.807 C 240.447 177.962 241.826 177.099 243.191 176.217 C 244.52 175.431 245.85 174.648 247.183 173.869 C 247.847 173.459 248.511 173.048 249.195 172.625 C 253.873 169.911 256.676 169.169 262.058 170.807 Z" fill="#E42879" transform="matrix(1, 0, 0, 1, -1.4210854715202004e-14, -1.4210854715202004e-14)"/>
  <path d="M 261.058 170.807 C 282.78 181.251 282.78 181.251 285.058 185.807 C 285.338 189.892 285.372 193.979 285.408 198.073 C 285.425 199.432 285.452 200.791 285.49 202.149 C 285.545 204.114 285.564 206.08 285.581 208.045 C 285.601 209.221 285.621 210.397 285.642 211.609 C 284.741 216.543 281.795 218.562 277.857 221.384 C 275.475 222.812 273.086 224.226 270.683 225.619 C 269.446 226.372 269.446 226.372 268.183 227.141 C 263.19 230.053 259.85 231.455 254.058 230.807 C 254.677 230.374 255.296 229.94 255.933 229.494 C 258.278 227.809 258.278 227.809 260.058 224.807 C 260.058 223.817 260.058 222.827 260.058 221.807 C 260.553 221.312 260.553 221.312 261.058 220.807 C 260.852 220.044 260.646 219.28 260.433 218.494 C 260.058 215.807 260.058 215.807 261.054 213.842 C 263.839 211.014 267.092 209.894 270.746 208.557 C 271.447 208.289 272.149 208.02 272.872 207.744 C 274.597 207.087 276.327 206.446 278.058 205.807 C 278.388 203.497 278.718 201.187 279.058 198.807 C 277.076 196.995 277.076 196.995 274.058 195.807 C 270.954 196.134 268.041 196.903 265.058 197.807 C 260.693 190.993 258.254 185.093 259.496 176.932 C 259.681 176.23 259.867 175.529 260.058 174.807 C 260.058 173.817 260.058 172.827 260.058 171.807 C 260.388 171.477 260.718 171.147 261.058 170.807 Z" fill="#DC2567" transform="matrix(1, 0, 0, 1, -1.4210854715202004e-14, -1.4210854715202004e-14)"/>
  <path d="M 255.933 188.432 C 259.058 188.807 259.058 188.807 261.308 190.557 C 262.89 192.59 264.046 194.446 265.058 196.807 C 268.612 196.129 268.612 196.129 272.058 195.057 C 275.079 194.679 276.641 196.108 279.058 197.807 C 280.058 198.807 280.058 198.807 280.121 202.119 C 279.058 205.807 279.058 205.807 277.558 207.018 C 275.43 208.09 273.285 208.958 271.058 209.807 C 270.184 210.191 269.31 210.575 268.41 210.971 C 261.494 213.952 261.494 213.952 258.058 212.807 C 256.304 210.243 255.111 207.372 253.808 204.557 C 253.432 203.792 253.055 203.028 252.667 202.24 C 251.102 198.909 250.02 196.604 250.199 192.885 C 251.536 189.652 252.442 188.887 255.933 188.432 Z" fill="#FEFAFC" transform="matrix(1, 0, 0, 1, -1.4210854715202004e-14, -1.4210854715202004e-14)"/>
</svg>
