<svg xmlns="http://www.w3.org/2000/svg" width="250" height="250" fill="none"><path fill="#0073CF" d="m27.616 149.438-4.36 19.262c0 .575-.582.862-1.163.862H1.163c-.29 0-.872-.287-.872-.575C0 168.7 0 168.412 0 168.125l27.616-82.8s.582-1.438 2.326-2.013c6.105-1.15 15.697-2.587 22.384-3.737 1.453-.288 2.035 1.15 2.035 1.15L81.394 168.7c0 .288 0 .575-.29.862-.291.288-.582.288-.872.288h-12.21c-3.197 0-9.593.288-11.918.288-.582 0-1.163-.288-1.163-.863l-4.36-19.55-22.966-.287Zm19.477-16.963c-1.744-6.9-4.36-19.263-6.977-29.9-1.744 7.475-5.814 22.713-7.849 29.9h14.826Zm61.919-20.413c14.825-10.062 27.325-7.762 33.43-1.725 7.267 7.475 3.198 17.251 5.523 58.363 0 .288 0 .575-.291.862-.29.288-.581.288-.872.288-2.325 0-6.686-.288-8.721-.288-3.488 0-10.755.288-13.662.288-.291 0-.582 0-.872-.288-.291-.287-.291-.574-.291-.862.291-40.25.581-45.713-6.686-45.713-2.617 0-4.651 1.151-6.977 2.013 0 20.7.291 26.738 1.163 43.412 0 .288 0 .575-.291.575-.291.288-.581.288-.581.288l-23.256.287c-.29 0-.582 0-.582-.287-.29-.288-.29-.575-.29-.575.581-60.087 0-72.45-1.744-85.1-.873-.575.29-.575.29-.575C94.767 81.587 95.64 81.3 107.558 79c0 0 1.163 0 1.163 1.438.291 8.912.291 31.624.291 31.624Zm79.651 51.463c-4.361 3.163-12.791 7.475-19.768 7.475-10.755 0-17.442-7.763-17.442-19.263 0-17.825 21.221-23 36.338-25.012.29-2.875.29-6.037-7.268-6.037s-13.953 2.3-20.639 4.887c-.291.288-.872 0-1.163 0-.291-.287-.581-.575-.581-1.15l.581-13.8c0-.575.291-.862.872-1.15 13.663-4.025 36.919-7.187 46.512 1.725 6.104 5.462 5.814 12.362 5.523 23.862-.291 16.676 0 21.276.872 33.638 0 .288 0 .575-.291.862-.29.288-.581.288-.872.288l-21.511.288c-.291 0-.582 0-.873-.288-.29-.288-.29-.575-.29-.863v-5.462Zm-.582-23.862c-5.523.574-13.953 1.149-13.953 8.337 0 6.325 6.977 8.338 13.953 4.025v-12.362Zm38.954.287c-.582 0-1.163-.575-1.163-1.15-1.453-31.338-1.744-34.787-3.488-54.338 0-.575.29-1.15 1.163-1.437l23.255-3.738c.291 0 .872 0 1.163.288.291.287.291.575.291 1.15-1.454 14.088-2.907 40.825-3.198 57.788 0 .575-.581 1.15-1.163 1.15l-16.86.287Zm-4.058 26.691c-.012-.097-.012-.192-.012-.287 0-3.901.099-7.901.125-11.365a61.86 61.86 0 0 0-.125-3.827c0-.198 0-.396.093-.592a46.659 46.659 0 0 0-.093-1.978c0-.287 0-.581.294-.871.296-.293.59-.293.883-.293 5.887.584 16.192.293 20.902-.29.293 0 .587 0 .883.29.294.293.294.583.294.874 0 .77-.003 1.535-.012 2.288.009.095.013.19.012.285V168.7c0 .288 0 .575-.291.862-.29.288-.581.288-.872.288-8.43-.288-13.663-.288-20.93.288-.291 0-.581 0-.872-.288-.291-.288-.291-.575-.291-.863 0-.776.003-1.561.012-2.346Z"/></svg>