<svg width="395" height="344" viewBox="0 0 395 344" fill="none" xmlns="http://www.w3.org/2000/svg">
<rect width="395" height="344" rx="15" fill="white"/>
<path d="M128.083 193.016C116.447 193.016 107 183.401 107 171.559C107 159.716 116.447 150.219 127.968 150.219C139.488 150.219 148.935 159.833 148.935 171.559C148.935 183.284 139.719 193.016 128.083 193.016ZM236.837 93C221.285 93 220.593 106.367 196.861 106.367C172.898 106.367 170.939 93 156.769 93C145.133 93 135.802 102.615 135.802 114.34C135.802 126.065 145.248 135.68 156.769 135.68C172.437 135.68 173.128 122.313 196.861 122.313C220.824 122.313 222.782 135.68 236.953 135.68C248.589 135.68 257.92 126.065 257.92 114.34C257.92 102.615 248.473 93 236.837 93ZM236.837 207.32C221.169 207.32 220.478 220.687 196.746 220.687C172.783 220.687 170.824 207.32 156.654 207.32C145.018 207.32 135.686 216.935 135.686 228.66C135.686 240.385 145.133 250 156.654 250C172.322 250 173.013 236.633 196.746 236.633C220.709 236.633 222.667 250 236.837 250C248.473 250 257.805 240.385 257.805 228.66C257.805 216.935 248.473 207.32 236.837 207.32ZM267.943 150.219C252.16 150.219 252.736 164.289 232.92 164.289C214.603 164.289 214.372 150.336 196.746 150.336C185.801 150.336 176.815 160.537 176.815 171.676C176.815 182.815 185.916 193.016 197.783 193.016C213.566 193.016 212.99 178.945 232.805 178.945C251.123 178.945 251.354 192.898 268.98 192.898C279.925 192.898 288.911 182.698 288.911 171.559C289.026 160.42 279.925 150.219 267.943 150.219Z" fill="#1955FF"/>
</svg>
