<?xml version="1.0" encoding="UTF-8"?>
<svg version="1.1" xmlns="http://www.w3.org/2000/svg" width="204" height="192">
<path d="M0 0 C67.32 0 134.64 0 204 0 C204 63.36 204 126.72 204 192 C136.68 192 69.36 192 0 192 C0 128.64 0 65.28 0 0 Z " fill="#0D0C0D" transform="translate(0,0)"/>
<path d="M0 0 C1.125 2.5 1.125 2.5 1 5 C-0.5 7.375 -0.5 7.375 -3 9 C-6.75 8.75 -6.75 8.75 -10 8 C-10 7.34 -10 6.68 -10 6 C-10.99 5.87625 -10.99 5.87625 -12 5.75 C-14.61061165 5.09734709 -16.24813734 4.39089356 -18.5625 3.125 C-31.12890025 -3.19278655 -49.56109243 -5.17305611 -63.1484375 -0.91015625 C-65.90682058 0.24195291 -68.44334221 1.45893157 -71 3 C-71.66 3.33 -72.32 3.66 -73 4 C-72.67 5.32 -72.34 6.64 -72 8 C-67.75564941 8.26527191 -65.44570861 8.18563029 -61.4453125 6.51953125 C-56.29701279 4.5136461 -51.34924817 4.46560492 -45.875 4.5 C-44.35519531 4.50531738 -44.35519531 4.50531738 -42.8046875 4.51074219 C-31.65631784 4.75603476 -22.39727224 7.95889642 -13 14 C-12.6484375 16.09375 -12.6484375 16.09375 -13 19 C-14.80960003 21.36594956 -16.55494998 23.39080009 -18.625 25.5 C-19.14707031 26.05558594 -19.66914062 26.61117187 -20.20703125 27.18359375 C-21.77177354 28.82560726 -23.37985782 30.41286072 -25 32 C-25.46019531 32.49854492 -25.92039062 32.99708984 -26.39453125 33.51074219 C-29.36137147 36.44641812 -31.63460861 37.31809399 -35.671875 37.453125 C-37.36541274 37.41098409 -39.05847549 37.34268627 -40.75 37.25 C-42.45299285 37.18890609 -44.15612072 37.13143499 -45.859375 37.078125 C-46.60670898 37.04106445 -47.35404297 37.00400391 -48.12402344 36.96582031 C-50.09291567 36.8669387 -50.09291567 36.8669387 -52 38 C-55.29779631 38.2867649 -57.39101662 38.30449169 -60.375 36.8125 C-62 35 -62 35 -62.4375 32.5 C-61.91744363 29.5282493 -61.32556942 28.85326835 -59 27 C-56.828125 26.33984375 -56.828125 26.33984375 -54.25 25.9375 C-53.28707031 25.7828125 -52.32414062 25.628125 -51.33203125 25.46875 C-46.25689579 24.75478018 -41.17671371 24.08972828 -36.08984375 23.46484375 C-33.09725913 23.1774523 -33.09725913 23.1774523 -31 22 C-30.34786708 19.97536745 -30.34786708 19.97536745 -30 18 C-49.80094064 17.19221063 -49.80094064 17.19221063 -68 24 C-71.37432294 23.58770747 -73.11007408 22.29271857 -75.53125 19.98046875 C-76.17707031 19.37009766 -76.82289062 18.75972656 -77.48828125 18.13085938 C-78.15214844 17.48955078 -78.81601563 16.84824219 -79.5 16.1875 C-80.16386719 15.55779297 -80.82773438 14.92808594 -81.51171875 14.27929688 C-82.78963086 13.06387747 -84.06081255 11.84133099 -85.32421875 10.61083984 C-86.68820557 9.29971149 -88.10304373 8.04164565 -89.53125 6.80078125 C-91 5 -91 5 -90.9765625 2.9609375 C-86.61539428 -5.79628828 -74.59842045 -8.9781909 -66 -12 C-65.12988281 -12.34289062 -64.25976562 -12.68578125 -63.36328125 -13.0390625 C-41.74194823 -20.48989224 -17.75392285 -13.04096595 0 0 Z " fill="#EDAB00" transform="translate(146,39)"/>
<path d="M0 0 C7.21286955 3.02724289 10.35509722 11.39796026 13.8125 18 C14.68841797 19.670625 14.68841797 19.670625 15.58203125 21.375 C21.19782578 35.73163174 19.81145165 59.05180006 14.0390625 72.9765625 C7.57937532 87.45587823 7.57937532 87.45587823 2 92 C-2.19047619 91.80952381 -2.19047619 91.80952381 -4 90 C-4.90881296 83.11898762 -2.74926686 78.98712945 0.46875 72.9609375 C7.3490949 59.65659711 7.88263764 42.52942358 5 28 C4.12246668 25.76526473 3.13526048 23.73471671 1.9375 21.65625 C1 20 1 20 0 17 C-1.98 17.99 -1.98 17.99 -4 19 C-4.30724504 23.50626061 -3.78445867 26.97669818 -2.5 31.3125 C1.05453021 44.86733528 0.20837789 58.93273829 -6.82421875 71.17578125 C-8.48875342 73.83295932 -10.2008335 76.43265005 -12 79 C-19.91206094 76.58112535 -26.59692603 70.38147228 -31.49707031 63.8984375 C-36.07089864 55.07769514 -35.05992848 41.52473707 -33 32 C-31.6027832 30.11645508 -31.6027832 30.11645508 -30 29 C-27.5 29.0625 -27.5 29.0625 -25 30 C-21.63961549 33.60041197 -20.890102 36.97175167 -20.75390625 41.78125 C-20.70459961 43.16763672 -20.70459961 43.16763672 -20.65429688 44.58203125 C-20.5931027 46.5272249 -20.53581034 48.47254522 -20.48242188 50.41796875 C-20.43118164 51.80435547 -20.43118164 51.80435547 -20.37890625 53.21875 C-20.3538501 54.06373047 -20.32879395 54.90871094 -20.30297852 55.77929688 C-20.12597222 58.28460018 -20.12597222 58.28460018 -18 61 C-17.01 61 -16.02 61 -15 61 C-11.47199485 53.9439897 -12.66219566 39.35948525 -15.08203125 31.984375 C-16.36544356 28.92872662 -16.36544356 28.92872662 -17.80859375 26.3046875 C-19.13920187 23.73072426 -19.77211057 21.89497978 -20 19 C-18.60058594 16.90356445 -18.60058594 16.90356445 -16.484375 14.86328125 C-15.72769531 14.12142578 -14.97101563 13.37957031 -14.19140625 12.61523438 C-12.98291016 11.47538086 -12.98291016 11.47538086 -11.75 10.3125 C-10.95980469 9.54099609 -10.16960937 8.76949219 -9.35546875 7.97460938 C-6.33403038 5.04775072 -3.50682849 2.33788566 0 0 Z " fill="#EFAC00" transform="translate(154,49)"/>
<path d="M0 0 C2.16313125 1.15367 3.44197278 1.9937619 4.875 4 C5.44378121 8.51908359 4.02861342 10.78295948 1.5625 14.5 C-6.52688927 28.05873344 -7.91171924 46.94897226 -4.2578125 62.296875 C-3.33601869 65.27083752 -2.29735942 68.11853829 -1.125 71 C-0.76658306 72.32681053 -0.42281046 73.65828549 -0.125 75 C3.15273504 74.24849977 3.15273504 74.24849977 4.875 71 C5.25069856 67.24301443 5.0392235 66.24633524 2.875 63 C1.68874609 57.15184377 1.691661 51.31690217 1.6875 45.375 C1.67525391 44.446875 1.66300781 43.51875 1.65039062 42.5625 C1.64033843 37.88487861 1.75725622 34.26745351 3.875 30 C4.1225 28.7625 4.37 27.525 4.625 26.25 C5.82066134 21.11453654 8.78944537 17.19169685 11.875 13 C15.10084678 14.41838759 17.25305172 16.13175184 19.73046875 18.625 C20.43494141 19.33140625 21.13941406 20.0378125 21.86523438 20.765625 C22.95288086 21.87164062 22.95288086 21.87164062 24.0625 23 C24.79919922 23.73734375 25.53589844 24.4746875 26.29492188 25.234375 C31.56900995 30.55213078 33.00508592 33.08300474 33.375 40.625 C33.60024271 45.04397735 33.85686484 49.33295809 34.6875 53.6875 C34.875 57 34.875 57 33.25 59.875 C30.84027545 62.03106933 28.94805821 63.06100999 25.875 64 C20.0695898 57.08426544 20.59556577 47.05612738 20.30419922 38.39550781 C20.14785184 34.75574078 19.94831496 33.10997245 17.875 30 C16.885 30 15.895 30 14.875 30 C11.58728831 40.44643876 13.75354651 53.7622053 16.875 64 C17.865 65.485 17.865 65.485 18.875 67 C19.50639612 71.07025 19.19602247 72.55741387 16.75 75.9296875 C15.80716727 76.92635353 14.84790132 77.90766357 13.875 78.875 C13.37750244 79.39094727 12.88000488 79.90689453 12.36743164 80.43847656 C11.35989669 81.47886767 10.34568736 82.51283923 9.32470703 83.54003906 C8.01157137 84.86246265 6.72117115 86.20736651 5.43359375 87.5546875 C1.55814592 91.56574032 1.55814592 91.56574032 -0.125 93 C-0.785 93 -1.445 93 -2.125 93 C-3.68466724 90.71469607 -5.10922355 88.44818175 -6.5 86.0625 C-7.10835693 85.02959839 -7.10835693 85.02959839 -7.72900391 83.97583008 C-14.41187 72.48805076 -18.70838467 61.44206602 -18.5625 48 C-18.55420166 47.00178223 -18.54590332 46.00356445 -18.53735352 44.97509766 C-18.19144699 29.54101909 -15.23176569 13.93822884 -4.53515625 2.14453125 C-2.125 0 -2.125 0 0 0 Z " fill="#EDAB00" transform="translate(49.125,50)"/>
<path d="M0 0 C1.13695312 0.02320312 2.27390625 0.04640625 3.4453125 0.0703125 C11.72521698 0.38129483 11.72521698 0.38129483 15.9140625 2.6796875 C17.625 4.875 17.625 4.875 17.625 8.875 C12.63665127 11.48254593 8.83420522 12.97941183 3.21875 13.015625 C1.97931641 13.04462891 1.97931641 13.04462891 0.71484375 13.07421875 C-1.01148315 13.1080683 -2.73818698 13.12630194 -4.46484375 13.12890625 C-9.79648583 13.23238259 -9.79648583 13.23238259 -13.96875 16.421875 C-14.66484375 17.63617188 -14.66484375 17.63617188 -15.375 18.875 C-4.71964553 21.46064375 8.42269548 20.880105 18.625 16.875 C19.65173828 16.04935547 19.65173828 16.04935547 20.69921875 15.20703125 C22.625 13.875 22.625 13.875 24.5859375 13.94140625 C27.27413375 15.17220875 29.08052168 16.80202253 31.25 18.8125 C32.11625 19.61429688 32.9825 20.41609375 33.875 21.2421875 C38.19830353 25.38125934 42.43300991 29.60273776 46.625 33.875 C45.14463399 38.13579705 42.13877492 39.7409492 38.375 41.8125 C37.7567334 42.15877441 37.1384668 42.50504883 36.50146484 42.86181641 C25.41845592 48.87830696 13.00729775 53.28674652 0.3125 53.1875 C-0.8005249 53.18121582 -0.8005249 53.18121582 -1.93603516 53.17480469 C-8.11567594 53.04860737 -13.54871878 51.96923933 -19.375 49.875 C-20.28636719 49.57335937 -21.19773437 49.27171875 -22.13671875 48.9609375 C-30.89797141 45.9549847 -39.73310722 42.51689278 -46.375 35.875 C-46.375 32.875 -46.375 32.875 -44.3125 30.625 C-40.40136744 28.29496358 -38.78021554 28.88855603 -34.375 29.875 C-31.59134837 31.01578992 -28.96071299 32.38886504 -26.3125 33.8125 C-17.96320854 38.22806663 -11.39611535 40.2654458 -1.875 40.25 C-0.41320312 40.24867065 -0.41320312 40.24867065 1.078125 40.24731445 C11.55982722 40.07660551 20.28404188 37.72618212 29.625 32.875 C29.625 31.885 29.625 30.895 29.625 29.875 C27.19732159 28.66116079 26.0475762 28.88297176 23.375 29.1875 C22.62734375 29.26613281 21.8796875 29.34476563 21.109375 29.42578125 C18.56724391 29.79903445 18.56724391 29.79903445 16.08984375 30.89453125 C10.89199429 32.36539959 5.81354401 32.24365659 0.4375 32.25 C-0.63564453 32.27449219 -1.70878906 32.29898438 -2.81445312 32.32421875 C-12.76775367 32.36034688 -21.43157183 29.98532936 -29.375 23.875 C-30.035 23.215 -30.695 22.555 -31.375 21.875 C-30.62798685 14.18235395 -20.73037965 6.83454724 -15.375 1.875 C-10.59876315 -1.3091579 -5.59367893 -0.22677077 0 0 Z " fill="#EEAC00" transform="translate(101.375,114.125)"/>
<path d="M0 0 C3.13175096 0.37520978 5.03821686 1.2619818 7.4453125 3.29296875 C8.4353125 4.77796875 8.4353125 4.77796875 9.4453125 6.29296875 C7.1353125 7.61296875 4.8253125 8.93296875 2.4453125 10.29296875 C2.4453125 9.63296875 2.4453125 8.97296875 2.4453125 8.29296875 C0.44576504 8.25042519 -1.55510386 8.25216092 -3.5546875 8.29296875 C-4.91087249 9.4183098 -4.91087249 9.4183098 -4.6171875 12.35546875 C-4.5965625 13.32484375 -4.5759375 14.29421875 -4.5546875 15.29296875 C-1.08320908 16.04254032 -1.08320908 16.04254032 2.4453125 16.29296875 C2.4453125 15.63296875 2.4453125 14.97296875 2.4453125 14.29296875 C7.1953125 16.16796875 7.1953125 16.16796875 9.4453125 17.29296875 C8.44980385 19.91749155 7.50567796 21.24325602 5.3203125 23.04296875 C1.55920871 24.67823127 -1.51312404 24.89141527 -5.5546875 24.29296875 C-9.72105089 22.53383754 -11.79555629 20.45933214 -13.5546875 16.29296875 C-14.15373703 12.24733288 -13.98085353 9.20618168 -12.2421875 5.48046875 C-8.34169887 0.42427978 -6.39533368 -0.19577552 0 0 Z " fill="#EDAB01" transform="translate(103.5546875,83.70703125)"/>
<path d="M0 0 C0.33 0 0.66 0 1 0 C1 6.6 1 13.2 1 20 C-2.96 20 -6.92 20 -11 20 C-9.63875 18.5459375 -9.63875 18.5459375 -8.25 17.0625 C-3.95410168 12.06585231 -1.45918219 6.40017536 0 0 Z " fill="#EFEFEF" transform="translate(203,172)"/>
<path d="M0 0 C1.05655201 2.11310402 2.10783606 4.22929351 3.11328125 6.3671875 C5.58669676 11.53960691 8.11338617 15.78024784 12 20 C8.04 20 4.08 20 0 20 C0 13.4 0 6.8 0 0 Z " fill="#EFEFEF" transform="translate(0,172)"/>
<path d="M0 0 C3.96 0 7.92 0 12 0 C12 6.6 12 13.2 12 20 C11.67 20 11.34 20 11 20 C10.84144531 19.443125 10.68289062 18.88625 10.51953125 18.3125 C8.31931596 11.11621574 5.34519608 5.34519608 0 0 Z " fill="#F3F3F3" transform="translate(192,0)"/>
<path d="M0 0 C3.96 0 7.92 0 12 0 C10.63875 1.485 10.63875 1.485 9.25 3 C4.98328649 7.98287582 1.82495571 13.40035431 1 20 C0.67 20 0.34 20 0 20 C0 13.4 0 6.8 0 0 Z " fill="#F4F4F4" transform="translate(0,0)"/>
<path d="M0 0 C1.31965723 3.95897169 1 7.868908 1 12 C1.41731018 14.35529281 1.41731018 14.35529281 2 16 C1.01 15.67 0.02 15.34 -1 15 C-1.02685412 12.68756208 -1.04632841 10.3750373 -1.0625 8.0625 C-1.07410156 6.77472656 -1.08570312 5.48695312 -1.09765625 4.16015625 C-1 1 -1 1 0 0 Z " fill="#34260C" transform="translate(90,88)"/>
<path d="M0 0 C0.66 0.33 1.32 0.66 2 1 C0.515 2.485 0.515 2.485 -1 4 C-0.67 4.99 -0.34 5.98 0 7 C-1.65 6.67 -3.3 6.34 -5 6 C-3.35 4.02 -1.7 2.04 0 0 Z " fill="#382A0C" transform="translate(90,127)"/>
</svg>
