<?xml version="1.0" encoding="UTF-8"?><svg id="Layer_1" xmlns="http://www.w3.org/2000/svg" viewBox="0 0 53.34 52.53"><defs><style>.cls-1{fill:#1ad1ec;}</style></defs><g><path class="cls-1" d="M34.08,24.59c.1-.05,.2-.09,.3-.13l.61-.21L26.61,.25l-.12-.25h-.27c-1.26,.01-2.52,.11-3.77,.3l-.5,.08,11.78,24.36,.33-.16Z"/><path class="cls-1" d="M32.5,25.78c.13-.14,.27-.28,.42-.41l.28-.25L13.87,3.43l-.2-.22-.26,.15c-1.19,.67-2.33,1.44-3.41,2.29l-.35,.28,22.6,20.14,.25-.28Z"/><path class="cls-1" d="M31.51,27.49c.06-.18,.14-.36,.22-.54l.16-.34L3.62,12.93l-.17,.3c-.7,1.22-1.3,2.51-1.79,3.83l-.13,.36,29.86,10.42,.12-.35Z"/><path class="cls-1" d="M31.23,29.45c0-.07,0-.14-.02-.21h0v-.1s0-.08,.01-.12c0-.06,.02-.12,.02-.18v-.36S0,26.68,0,26.68v.41c.05,1.39,.2,2.8,.46,4.17l.06,.32,30.71-1.77v-.35Z"/><path class="cls-1" d="M31.73,31.35c-.08-.18-.16-.36-.22-.54l-.12-.35L3.88,40.03l.26,.4c.72,1.12,1.53,2.19,2.42,3.19l.19,.21,25.14-12.15-.16-.33Z"/><path class="cls-1" d="M32.92,32.92c-.15-.13-.28-.27-.41-.41l-.25-.28h0s0,0,0,0L13.29,49.13l.47,.25c1.08,.57,2.21,1.07,3.35,1.49l.24,.09,15.85-17.79-.28-.25Z"/><path class="cls-1" d="M34.63,33.91c-.18-.06-.36-.14-.54-.22l-.34-.16h0s-.01,0-.01,0l-9.15,18.94h.59c.18,0,.34,.01,.51,.02,.18,.01,.36,.03,.54,.03,.71,0,1.42-.05,2.1-.1l.24-.02,6.41-18.37-.36-.12Z"/></g><g><path d="M36.59,34.19c-.07,0-.14,0-.21,.02-.07,.01-.15,0-.22,0-.06,0-.12-.02-.18-.02h-.36s-.98,16.94-.98,16.94l.53-.19c.83-.3,1.66-.65,2.45-1.03l.22-.11-.9-15.61h-.35Z"/><path d="M40.06,32.51c-.13,.15-.27,.28-.41,.41l-.28,.25,7.87,8.83,.27-.38c.38-.52,.74-1.06,1.07-1.61l.16-.27-8.44-7.52-.25,.28Z"/><path d="M41.33,28.48v.35c0,.07,0,.14,.02,.21,0,.03,.01,.07,.01,.1,0,.04,0,.08-.01,.12,0,.06-.02,.12-.02,.18v.36s10.81,.62,10.81,.62l.05-.34c.1-.68,.16-1.28,.21-1.82l.03-.43-11.1,.64Z"/><path d="M39.64,25.36c.15,.13,.28,.27,.41,.41l.25,.28,10.4-9.27-.1-.24c-.28-.72-.61-1.45-.99-2.17l-.25-.48-10.01,11.23,.28,.25Z"/><path d="M35.98,24.09c.07,0,.14,0,.21-.02,.07-.01,.15,0,.22,0,.06,0,.12,.02,.18,.02h.36s1.22-21.2,1.22-21.2l-.22-.11c-1.01-.5-2.06-.95-3.12-1.31l-.53-.18,1.31,22.81h.35Z"/><path d="M38.48,33.7c-.17,.08-.35,.16-.54,.22l-.35,.12,4.56,13.1,.41-.33c.57-.45,1.08-.92,1.62-1.41l.26-.23-5.62-11.63-.33,.16Z"/><path d="M41.05,30.81c-.06,.18-.14,.36-.22,.54l-.16,.33,9.77,4.74,.15-.37c.18-.45,.42-1.06,.62-1.7l.11-.35-10.15-3.55-.12,.36Z"/><path d="M40.84,26.94c.08,.17,.16,.35,.22,.54l.12,.36,11.22-3.88-.03-.29c-.07-.68-.18-1.34-.3-2.01l-.09-.48-11.3,5.43,.16,.34Z"/><path d="M37.94,24.37c.18,.06,.36,.14,.54,.22l.33,.16,7.46-15.42-.16-.19c-.62-.72-1.29-1.41-1.99-2.06l-.42-.39-6.11,17.55,.35,.12Z"/></g></svg>