<svg version="1.2" xmlns="http://www.w3.org/2000/svg" viewBox="0 0 1558 838" width="1558" height="838">
	<title>criteo-logo-orange-svg</title>
	<style>
		.s0 { fill: #fe5000 } 
	</style>
	<g id="v5">
		<g id="Homepage-Revamp-v5">
			<g id="Criteo-Logo-Orange">
				<path id="Path" class="s0" d="m1553.6 807.3c-6.2 11.7-18.3 18.9-31.5 18.9h-220.6c-10.8-0.1-21.1-4.4-28.7-12.1l-84.4-105.8c-33.4-39.6-77-27.3-77 23.2v70.8c0 13.1-10.6 23.7-23.6 23.7h-201.3c-13.1 0-23.7-10.6-23.7-23.7v-147c0-6.3 4.8-11.4 11.1-11.8 116.2-6.3 211.3-105.2 211.3-221.6 0-115.3-94.1-216.4-211.3-222.7-6.3-0.4-11.1-5.6-11.1-11.8v-151.6c0-6.3 2.5-12.3 6.9-16.8 4.5-4.4 10.5-6.9 16.8-6.9h346.4c161.1 0 291.9 123.7 291.9 280 0 91.3-41.4 170.5-107.5 214.7-7.9 5.3-13.4 13.5-15.3 22.9-1.9 9.4 0.1 19.1 5.4 27l144.2 213.9c7.5 10.9 8.2 25 2 36.7zm-1109.9-807.3c126.6 0 239.9 54.1 320.9 140.3 4.4 4.7 6.6 11.1 6.2 17.6-0.4 6.5-3.5 12.5-8.4 16.6l-115 96.4c-9.3 7.7-23 7.1-31.7-1.4-45.9-45.1-107.6-70.5-171.9-70.9-122.6 0-221.9 93.4-221.9 220.7 0 127.2 99.3 219.6 221.9 219.6 64.3-0.5 126-25.9 171.9-71 8.7-8.5 22.3-9.1 31.7-1.4l115 96.3c5 4.2 8.1 10.2 8.5 16.7 0.4 6.5-1.8 12.8-6.2 17.6-81 86.2-194.3 140.3-320.9 140.3-245.3 0-443.8-176.4-443.8-418.1 0-241.8 198.5-419.3 443.7-419.3z"/>
			</g>
		</g>
	</g>
</svg>