<?xml version="1.0" encoding="utf-8"?>
<svg xmlns="http://www.w3.org/2000/svg" viewBox="471.177 183.238 133.903 133.524" width="250" height="250">
  <path d="M 605.08 250 C 605.08 286.873 575.104 316.762 538.129 316.762 C 526.535 316.762 515.63 313.825 506.122 308.654 C 485.303 297.333 471.177 275.312 471.177 250 C 471.177 213.128 501.152 183.238 538.128 183.238 C 575.104 183.238 605.08 213.128 605.08 250 Z" fill="#20B276"/>
  <path d="M 564.851 268.989 C 557.766 276.269 549.169 279.912 539.06 279.912 C 532.89 279.912 527.158 278.87 521.784 275.845 L 521.72 314.612 L 521.21 314.475 L 520.895 314.394 L 520.523 314.193 L 520.348 313.876 L 520.186 313.519 L 520.365 313.295 L 502.638 292.217 L 502.643 242.391 C 502.643 232.009 506.185 223.191 513.27 215.937 C 520.353 208.682 528.95 205.055 539.06 205.055 C 549.169 205.055 557.766 208.695 564.851 215.976 C 571.934 223.257 575.477 232.093 575.477 242.483 C 575.477 252.874 571.934 261.708 564.851 268.989 Z M 551.328 229.863 C 547.964 226.403 543.875 224.674 539.06 224.674 C 534.244 224.674 530.154 226.403 526.792 229.863 C 523.428 233.323 521.746 237.529 521.746 242.484 C 521.746 247.437 523.427 251.643 526.792 255.103 C 530.154 258.564 534.244 260.294 539.06 260.294 C 543.875 260.294 547.964 258.564 551.328 255.103 C 554.691 251.643 556.373 247.437 556.373 242.484 C 556.373 237.529 554.691 233.323 551.328 229.863 Z" fill="#147F52"/>
  <path d="M 563.457 267.612 C 556.373 274.894 547.776 278.535 537.667 278.535 C 531.497 278.535 525.727 277.023 520.354 273.998 L 520.348 314.383 C 520.348 314.383 519.04 314.024 517.338 313.476 C 516.919 313.341 516.495 313.196 516.051 313.04 C 515.84 312.965 515.737 312.921 515.519 312.859 C 514.962 312.699 514.257 312.39 513.713 312.179 C 511.885 311.469 510.404 310.793 510.368 310.776 C 510.332 310.759 505.101 308.271 504.511 307.903 C 503.982 307.574 503.512 307.316 503.109 307.027 C 502.98 306.936 502.883 306.87 502.761 306.786 C 501.802 306.129 501.267 305.752 501.267 305.752 L 501.25 241.015 C 501.25 230.633 504.792 221.815 511.877 214.561 C 518.961 207.306 527.558 203.68 537.667 203.68 C 547.777 203.68 556.373 207.319 563.458 214.601 C 570.542 221.882 574.085 230.718 574.085 241.107 C 574.084 251.497 570.541 260.332 563.457 267.612 Z M 549.935 228.487 C 546.571 225.027 542.482 223.298 537.666 223.298 C 532.85 223.298 528.761 225.027 525.398 228.487 C 522.035 231.947 520.353 236.153 520.353 241.107 C 520.353 246.061 522.035 250.267 525.398 253.726 C 528.761 257.188 532.85 258.918 537.666 258.918 C 542.482 258.918 546.571 257.188 549.935 253.726 C 553.298 250.267 554.98 246.061 554.98 241.107 C 554.98 236.153 553.298 231.947 549.935 228.487 Z" fill="white"/>
</svg>
