<svg xmlns="http://www.w3.org/2000/svg" viewBox="255.5961 206.6865 119.2735 74.0058" width="250" height="250">
  <path d="M539 784 c-37 -7 -81 -20 -99 -29 -46 -24 -117 -91 -141 -135 -19 -33 -28 -39 -68 -45 -137 -20 -246 -166 -221 -295 13 -70 26 -96 71 -145 27 -29 59 -51 95 -65 52 -19 77 -20 428 -20 416 0 429 2 506 67 167 144 86 427 -132 458 -42 6 -50 12 -72 49 -72 122 -221 187 -367 160z m207 -69 c59 -29 105 -76 135 -139 20 -39 23 -41 69 -43 87 -4 151 -49 189 -133 57 -125 -21 -269 -162 -300 -29 -7 -68 -10 -87 -8 l-35 3 -3 153 -3 152 -244 0 -244 0 -3 -152 -3 -153 -72 1 c-55 1 -81 7 -114 25 -123 68 -155 227 -68 332 40 48 97 77 158 80 45 2 50 5 60 33 15 41 73 107 118 135 89 55 214 60 309 14z m-56 -434 l-85 -79 -78 70 c-42 39 -80 74 -83 79 -3 5 68 9 163 9 l168 0 -85 -79z m-180 -46 c105 -98 86 -99 204 13 42 40 80 72 86 72 7 0 10 -39 8 -112 l-3 -113 -200 0 -200 0 -3 113 c-2 68 1 112 7 112 6 0 51 -38 101 -85z" style="fill: rgb(87, 123, 198);" transform="matrix(0.10000000149011612, 0, 0, -0.10000000149011612, 254.95500183105466, 285.6923522949219)"/>
</svg>
