<?xml version="1.0" encoding="utf-8"?>
<svg xmlns="http://www.w3.org/2000/svg" viewBox="390.1441 206.955 20.2354 20.8" width="250" height="250">
  <path fill="#829FD1" d="M68.4,20.5l5.3-7.7c0.3-0.5,0-1.1-0.6-1.1h-5.6c-0.3,0-0.6,0.2-0.8,0.5l-2,2.9c0,0,0,0.1,0,0.2l3.4,5.1  C68.1,20.6,68.3,20.6,68.4,20.5" transform="matrix(1, 0, 0, 1, 336.561767578125, 195.25502014160156)"/>
  <path fill="#829FD1" d="M73.6,31.5l-5.3-8c-0.1-0.1-0.2-0.1-0.3,0l-3.4,4.9c0,0,0,0.1,0,0.2l2.4,3.5c0.2,0.3,0.5,0.4,0.8,0.4h5.3  C73.6,32.5,74,31.9,73.6,31.5" transform="matrix(1, 0, 0, 1, 336.561767578125, 195.25502014160156)"/>
  <path d="M67,21.4l-6.1-9.2c-0.2-0.3-0.5-0.5-0.8-0.5h-5.7c-0.5,0-0.9,0.6-0.6,1.1L60,22l-6.3,9.4  c-0.3,0.5,0,1.1,0.6,1.1h5.3c0.3,0,0.6-0.2,0.8-0.4l6.6-9.6C67.2,22.2,67.2,21.8,67,21.4" style="fill: rgb(65, 60, 222);" transform="matrix(1, 0, 0, 1, 336.561767578125, 195.25502014160156)"/>
</svg>
