<?xml version="1.0" encoding="UTF-8"?>
<svg xmlns="http://www.w3.org/2000/svg" xmlns:xlink="http://www.w3.org/1999/xlink" width="250px" height="250px" viewBox="0 0 250 250" version="1.1">
<g id="surface1">
<rect x="0" y="0" width="250" height="250" style="fill:rgb(100%,100%,100%);fill-opacity:1;stroke:none;"/>
<path style=" stroke:none;fill-rule:nonzero;fill:rgb(0%,0%,0%);fill-opacity:1;" d="M 153.316406 102.183594 C 150.820312 102.183594 148.796875 100.160156 148.796875 97.664062 C 148.796875 95.167969 150.820312 93.144531 153.316406 93.144531 C 155.8125 93.144531 157.835938 95.167969 157.835938 97.664062 C 157.835938 100.160156 155.8125 102.183594 153.316406 102.183594 M 153.316406 88.554688 C 148.289062 88.554688 144.210938 92.632812 144.210938 97.664062 L 144.210938 125 C 144.210938 135.046875 136.03125 143.226562 125.984375 143.226562 C 115.933594 143.226562 107.757812 135.046875 107.757812 125 L 107.757812 97.664062 C 107.757812 92.632812 103.679688 88.554688 98.648438 88.554688 C 93.617188 88.554688 89.539062 92.632812 89.539062 97.664062 L 89.539062 125 C 89.539062 145.09375 105.886719 161.441406 125.984375 161.441406 C 146.078125 161.441406 162.425781 145.09375 162.425781 125 L 162.425781 97.664062 C 162.425781 92.632812 158.347656 88.554688 153.316406 88.554688 "/>
<path style=" stroke:none;fill-rule:nonzero;fill:rgb(0%,0%,0%);fill-opacity:1;" d="M 232.507812 156.851562 C 230.011719 156.851562 227.988281 154.828125 227.988281 152.332031 C 227.988281 149.835938 230.011719 147.8125 232.507812 147.8125 C 235.003906 147.8125 237.023438 149.835938 237.023438 152.332031 C 237.023438 154.828125 235.003906 156.851562 232.507812 156.851562 M 192.289062 125 L 171.394531 145.894531 C 167.839844 149.449219 167.839844 155.21875 171.394531 158.773438 C 174.953125 162.332031 180.71875 162.332031 184.277344 158.773438 L 205.171875 137.878906 L 226.066406 158.773438 C 229.621094 162.332031 235.390625 162.332031 238.945312 158.773438 C 242.503906 155.21875 242.503906 149.449219 238.945312 145.894531 L 218.054688 125 L 238.945312 104.105469 C 242.503906 100.546875 242.503906 94.78125 238.945312 91.222656 C 235.390625 87.664062 229.621094 87.664062 226.066406 91.222656 L 205.171875 112.117188 L 184.277344 91.222656 C 180.71875 87.664062 174.953125 87.664062 171.394531 91.222656 C 167.839844 94.78125 167.839844 100.546875 171.394531 104.105469 Z M 192.289062 125 "/>
<path style=" stroke:none;fill-rule:nonzero;fill:rgb(0%,0%,0%);fill-opacity:1;" d="M 72.152344 156.855469 C 69.65625 156.855469 67.636719 154.832031 67.636719 152.335938 C 67.636719 149.839844 69.65625 147.816406 72.152344 147.816406 C 74.648438 147.816406 76.671875 149.839844 76.671875 152.335938 C 76.671875 154.832031 74.648438 156.855469 72.152344 156.855469 M 75.640625 89.25 C 72.238281 87.839844 68.316406 88.617188 65.714844 91.222656 L 44.820312 112.117188 L 23.925781 91.222656 C 21.320312 88.617188 17.402344 87.839844 14 89.25 C 10.59375 90.660156 8.375 93.980469 8.375 97.664062 L 8.375 152.332031 C 8.375 157.363281 12.453125 161.441406 17.484375 161.441406 C 22.515625 161.441406 26.59375 157.363281 26.59375 152.332031 L 26.59375 119.65625 L 38.378906 131.441406 C 41.9375 134.996094 47.703125 134.996094 51.261719 131.441406 L 63.046875 119.65625 L 63.046875 152.332031 C 63.046875 157.363281 67.125 161.441406 72.152344 161.441406 C 77.183594 161.441406 81.261719 157.363281 81.261719 152.332031 L 81.261719 97.664062 C 81.261719 93.980469 79.042969 90.660156 75.640625 89.25 "/>
</g>
</svg>
