<?xml version="1.0" encoding="UTF-8"?>
<svg xmlns="http://www.w3.org/2000/svg" xmlns:xlink="http://www.w3.org/1999/xlink" width="250px" height="250px" viewBox="0 0 250 250" version="1.1">
<g id="surface1">
<path style=" stroke:none;fill-rule:evenodd;fill:rgb(100%,99.215686%,99.215686%);fill-opacity:1;" d="M -0.554688 -0.554688 C 36.480469 -0.554688 73.519531 -0.554688 110.554688 -0.554688 C 47.96875 10.917969 10.933594 47.957031 -0.554688 110.554688 C -0.554688 73.519531 -0.554688 36.480469 -0.554688 -0.554688 Z M -0.554688 -0.554688 "/>
<path style=" stroke:none;fill-rule:evenodd;fill:rgb(100%,99.607843%,99.215686%);fill-opacity:1;" d="M 138.332031 -0.554688 C 175.371094 -0.554688 212.40625 -0.554688 249.445312 -0.554688 C 249.445312 36.480469 249.445312 73.519531 249.445312 110.554688 C 237.96875 47.96875 200.929688 10.929688 138.332031 -0.554688 Z M 138.332031 -0.554688 "/>
<path style=" stroke:none;fill-rule:evenodd;fill:rgb(96.078432%,41.960785%,39.215687%);fill-opacity:1;" d="M 110.554688 -0.554688 C 119.8125 -0.554688 129.074219 -0.554688 138.332031 -0.554688 C 200.929688 10.929688 237.96875 47.96875 249.445312 110.554688 C 249.445312 118.703125 249.445312 126.851562 249.445312 135 C 241.300781 192.226562 209.449219 229.078125 153.890625 245.554688 C 146.699219 246.875 139.660156 248.171875 132.777344 249.445312 C 125.742188 249.445312 118.703125 249.445312 111.667969 249.445312 C 53.863281 239.609375 17.382812 206.277344 2.222656 149.445312 C 1.363281 143.347656 0.4375 137.421875 -0.554688 131.667969 C -0.554688 124.628906 -0.554688 117.59375 -0.554688 110.554688 C 10.933594 47.957031 47.96875 10.917969 110.554688 -0.554688 Z M 110.554688 -0.554688 "/>
<path style=" stroke:none;fill-rule:evenodd;fill:rgb(20%,16.078432%,36.470589%);fill-opacity:1;" d="M 107.222656 2.777344 C 166.9375 -1.359375 210.085938 23.082031 236.667969 76.109375 C 255.203125 127.132812 246.128906 172.503906 209.445312 212.222656 C 175.859375 242.195312 136.96875 252.195312 92.777344 242.222656 C 41.921875 225.804688 12.109375 191.175781 3.332031 138.332031 C -0.324219 87.691406 18.75 48.246094 60.554688 20 C 75.316406 11.6875 90.875 5.949219 107.222656 2.777344 Z M 107.222656 2.777344 "/>
<path style=" stroke:none;fill-rule:evenodd;fill:rgb(96.862745%,96.862745%,97.254902%);fill-opacity:1;" d="M 56.109375 100.554688 C 58.332031 100.554688 60.554688 100.554688 62.777344 100.554688 C 62.777344 113.148438 62.777344 125.742188 62.777344 138.332031 C 59.910156 138.796875 57.503906 138.054688 55.554688 136.109375 C 41.195312 140.285156 34.898438 134.730469 36.667969 119.445312 C 40.652344 110.492188 46.945312 108.269531 55.554688 112.777344 C 56.109375 108.71875 56.292969 104.644531 56.109375 100.554688 Z M 56.109375 100.554688 "/>
<path style=" stroke:none;fill-rule:evenodd;fill:rgb(94.117647%,40.784314%,38.431373%);fill-opacity:1;" d="M 207.222656 100.554688 C 209.207031 100.238281 211.0625 100.609375 212.777344 101.667969 C 211.171875 104.019531 210.429688 106.613281 210.554688 109.445312 C 213.914062 108.882812 217.246094 108.144531 220.554688 107.222656 C 222.855469 107.539062 224.335938 108.835938 225 111.109375 C 219.679688 113.628906 214.125 114.742188 208.332031 114.445312 C 204.351562 110.222656 203.980469 105.59375 207.222656 100.554688 Z M 207.222656 100.554688 "/>
<path style=" stroke:none;fill-rule:evenodd;fill:rgb(96.078432%,95.686275%,96.470588%);fill-opacity:1;" d="M 168.332031 117.222656 C 165.238281 116.136719 161.902344 115.765625 158.332031 116.109375 C 157.980469 121.515625 158.347656 126.699219 159.445312 131.667969 C 161.296875 131.667969 163.148438 131.667969 165 131.667969 C 165 133.890625 165 136.109375 165 138.332031 C 161.648438 138.515625 158.3125 138.332031 155 137.777344 C 153.292969 136.542969 152.550781 134.878906 152.777344 132.777344 C 152.777344 127.222656 152.777344 121.667969 152.777344 116.109375 C 151.667969 116.109375 150.554688 116.109375 149.445312 116.109375 C 150.429688 110.308594 153.765625 106.605469 159.445312 105 C 159.445312 106.851562 159.445312 108.703125 159.445312 110.554688 C 163.90625 110.371094 168.347656 110.558594 172.777344 111.109375 C 174.296875 116.21875 176.148438 121.21875 178.332031 126.109375 C 180.398438 121.394531 182.253906 116.578125 183.890625 111.667969 C 185.996094 110.59375 188.21875 110.222656 190.554688 110.554688 C 187.035156 122.410156 182.960938 134.078125 178.332031 145.554688 C 176.023438 146.453125 173.800781 146.269531 171.667969 145 C 172.464844 142.414062 173.574219 140.003906 175 137.777344 C 172.652344 130.921875 170.429688 124.070312 168.332031 117.222656 Z M 168.332031 117.222656 "/>
<path style=" stroke:none;fill-rule:evenodd;fill:rgb(95.686275%,41.176471%,38.431373%);fill-opacity:1;" d="M 196.109375 107.222656 C 200.445312 109.878906 204.335938 113.214844 207.777344 117.222656 C 208.226562 124.542969 204.707031 127.691406 197.222656 126.667969 C 196.339844 125.460938 195.601562 124.164062 195 122.777344 C 197.625 121.921875 200.21875 120.996094 202.777344 120 C 200.785156 116.894531 198.378906 114.117188 195.554688 111.667969 C 195.339844 110.199219 195.523438 108.71875 196.109375 107.222656 Z M 196.109375 107.222656 "/>
<path style=" stroke:none;fill-rule:evenodd;fill:rgb(94.509804%,94.117647%,95.294118%);fill-opacity:1;" d="M 91.667969 120.554688 C 91.667969 122.40625 91.667969 124.257812 91.667969 126.109375 C 85.425781 126.804688 79.128906 127.546875 72.777344 128.332031 C 74.519531 131.242188 77.113281 132.722656 80.554688 132.777344 C 83.480469 132.464844 86.257812 131.722656 88.890625 130.554688 C 89.785156 132.867188 89.601562 135.085938 88.332031 137.222656 C 75.496094 142.261719 67.71875 138.003906 65 124.445312 C 67.25 112.023438 74.285156 107.949219 86.109375 112.222656 C 88.691406 114.632812 90.542969 117.410156 91.667969 120.554688 Z M 91.667969 120.554688 "/>
<path style=" stroke:none;fill-rule:evenodd;fill:rgb(95.686275%,95.294118%,96.078432%);fill-opacity:1;" d="M 93.890625 110.554688 C 96.109375 110.554688 98.332031 110.554688 100.554688 110.554688 C 100.492188 114.59375 101.601562 114.777344 103.890625 111.109375 C 114.347656 109.339844 119.902344 113.785156 120.554688 124.445312 C 120.535156 132.851562 116.460938 137.851562 108.332031 139.445312 C 105.277344 138.9375 102.867188 137.457031 101.109375 135 C 100.558594 138.6875 100.371094 142.390625 100.554688 146.109375 C 98.070312 146.4375 95.847656 146.066406 93.890625 145 C 93.890625 133.519531 93.890625 122.035156 93.890625 110.554688 Z M 93.890625 110.554688 "/>
<path style=" stroke:none;fill-rule:evenodd;fill:rgb(10.588235%,3.921569%,30.980393%);fill-opacity:1;" d="M 93.890625 110.554688 C 93.890625 122.035156 93.890625 133.519531 93.890625 145 C 93.148438 138.703125 92.40625 132.40625 91.667969 126.109375 C 91.667969 124.257812 91.667969 122.40625 91.667969 120.554688 C 92.40625 117.222656 93.148438 113.890625 93.890625 110.554688 Z M 93.890625 110.554688 "/>
<path style=" stroke:none;fill-rule:evenodd;fill:rgb(94.509804%,94.509804%,95.686275%);fill-opacity:1;" d="M 122.777344 110.554688 C 125 110.554688 127.222656 110.554688 129.445312 110.554688 C 129.261719 116.492188 129.445312 122.417969 130 128.332031 C 131.980469 133.085938 134.945312 133.828125 138.890625 130.554688 C 139.441406 123.898438 139.628906 117.230469 139.445312 110.554688 C 141.667969 110.554688 143.890625 110.554688 146.109375 110.554688 C 146.109375 119.8125 146.109375 129.074219 146.109375 138.332031 C 144.257812 138.332031 142.40625 138.332031 140.554688 138.332031 C 140.617188 134.296875 139.507812 134.109375 137.222656 137.777344 C 129.914062 140.144531 125.285156 137.738281 123.332031 130.554688 C 122.777344 123.898438 122.59375 117.230469 122.777344 110.554688 Z M 122.777344 110.554688 "/>
<path style=" stroke:none;fill-rule:evenodd;fill:rgb(17.647059%,13.333334%,34.901962%);fill-opacity:1;" d="M 76.109375 116.109375 C 80.945312 115.035156 83.539062 116.890625 83.890625 121.667969 C 80.113281 122.023438 76.410156 121.652344 72.777344 120.554688 C 73.914062 119.054688 75.027344 117.570312 76.109375 116.109375 Z M 76.109375 116.109375 "/>
<path style=" stroke:none;fill-rule:evenodd;fill:rgb(50.588238%,48.627451%,58.823532%);fill-opacity:1;" d="M 149.445312 116.109375 C 150.554688 116.109375 151.667969 116.109375 152.777344 116.109375 C 152.777344 121.667969 152.777344 127.222656 152.777344 132.777344 C 152.285156 127.101562 151.171875 121.546875 149.445312 116.109375 Z M 149.445312 116.109375 "/>
<path style=" stroke:none;fill-rule:evenodd;fill:rgb(60.392159%,59.215689%,67.058825%);fill-opacity:1;" d="M 168.332031 117.222656 C 165.371094 117.222656 162.40625 117.222656 159.445312 117.222656 C 159.445312 122.035156 159.445312 126.851562 159.445312 131.667969 C 158.347656 126.699219 157.980469 121.515625 158.332031 116.109375 C 161.902344 115.765625 165.238281 116.136719 168.332031 117.222656 Z M 168.332031 117.222656 "/>
<path style=" stroke:none;fill-rule:evenodd;fill:rgb(95.294118%,41.176471%,38.431373%);fill-opacity:1;" d="M 212.777344 116.109375 C 218.386719 115.40625 222.460938 117.628906 225 122.777344 C 223.855469 124.109375 222.929688 125.59375 222.222656 127.222656 C 220.351562 125.164062 218.3125 123.3125 216.109375 121.667969 C 214.101562 125.101562 212.988281 128.808594 212.777344 132.777344 C 210.925781 132.777344 209.074219 132.777344 207.222656 132.777344 C 207.890625 126.761719 209.738281 121.203125 212.777344 116.109375 Z M 212.777344 116.109375 "/>
<path style=" stroke:none;fill-rule:evenodd;fill:rgb(20%,16.078432%,36.470589%);fill-opacity:1;" d="M 46.109375 117.222656 C 56.199219 117.367188 58.789062 121.996094 53.890625 131.109375 C 46.007812 133.242188 42.492188 130.09375 43.332031 121.667969 C 44.070312 120.019531 44.996094 118.535156 46.109375 117.222656 Z M 46.109375 117.222656 "/>
<path style=" stroke:none;fill-rule:evenodd;fill:rgb(20%,16.078432%,36.470589%);fill-opacity:1;" d="M 103.890625 117.222656 C 110.132812 116.058594 113.464844 118.648438 113.890625 125 C 112.503906 132.453125 108.613281 134.308594 102.222656 130.554688 C 99.539062 125.574219 100.09375 121.128906 103.890625 117.222656 Z M 103.890625 117.222656 "/>
<path style=" stroke:none;fill-rule:evenodd;fill:rgb(100%,99.215686%,99.215686%);fill-opacity:1;" d="M -0.554688 131.667969 C 0.4375 137.421875 1.363281 143.347656 2.222656 149.445312 C 17.382812 206.277344 53.863281 239.609375 111.667969 249.445312 C 74.257812 249.445312 36.851562 249.445312 -0.554688 249.445312 C -0.554688 210.1875 -0.554688 170.925781 -0.554688 131.667969 Z M -0.554688 131.667969 "/>
<path style=" stroke:none;fill-rule:evenodd;fill:rgb(100%,99.215686%,99.215686%);fill-opacity:1;" d="M 249.445312 135 C 249.445312 173.148438 249.445312 211.296875 249.445312 249.445312 C 210.554688 249.445312 171.667969 249.445312 132.777344 249.445312 C 139.660156 248.171875 146.699219 246.875 153.890625 245.554688 C 209.449219 229.078125 241.300781 192.226562 249.445312 135 Z M 249.445312 135 "/>
</g>
</svg>
