<?xml version="1.0" encoding="UTF-8"?>
<svg version="1.1" xmlns="http://www.w3.org/2000/svg" width="32" height="32">
<path d="M0 0 C3.50825087 1.48547559 5.68258106 3.45436604 8.25 6.25 C8.95640625 6.99765625 9.6628125 7.7453125 10.390625 8.515625 C12.38939471 11.60110445 12.46080304 13.38789879 12 17 C8.46588175 20.96249623 5.17980188 21.59374103 0 22 C-2 19 -2 19 -2 16 C0.31 15.34 2.62 14.68 5 14 C4.57847656 13.54109375 4.15695313 13.0821875 3.72265625 12.609375 C3.17480469 11.99578125 2.62695312 11.3821875 2.0625 10.75 C1.51722656 10.14671875 0.97195312 9.5434375 0.41015625 8.921875 C-1.10279668 6.85990037 -1.7609707 5.54286494 -2 3 C-1.34 2.01 -0.68 1.02 0 0 Z " fill="#FC6B62" transform="translate(3,5)"/>
<path d="M0 0 C5.23277749 0.60048266 6.45648058 2.50850165 9.8125 6.4375 C9.1525 8.0875 8.4925 9.7375 7.8125 11.4375 C4.8125 11.4375 4.8125 11.4375 3.125 10.0625 C1.8125 8.4375 1.8125 8.4375 1.8125 6.4375 C1.1525 6.4375 0.4925 6.4375 -0.1875 6.4375 C-0.32027344 7.14777344 -0.45304687 7.85804687 -0.58984375 8.58984375 C-0.85474609 9.96849609 -0.85474609 9.96849609 -1.125 11.375 C-1.29902344 12.29152344 -1.47304688 13.20804688 -1.65234375 14.15234375 C-2.1875 16.4375 -2.1875 16.4375 -3.1875 17.4375 C-5.18708364 17.47830783 -7.18795254 17.48004356 -9.1875 17.4375 C-6.40597606 0.87925162 -6.40597606 0.87925162 0 0 Z " fill="#FD6B62" transform="translate(22.1875,14.5625)"/>
<path d="M0 0 C1.4540625 0.0309375 1.4540625 0.0309375 2.9375 0.0625 C2.0625 5.8125 2.0625 5.8125 0.9375 8.0625 C2.154375 7.7325 3.37125 7.4025 4.625 7.0625 C7.80960604 6.25927787 10.6347843 5.85608027 13.9375 6.0625 C14.5975 7.7125 15.2575 9.3625 15.9375 11.0625 C9.80207356 13.17469599 4.45139664 14.74817333 -2.0625 14.0625 C-3.80078125 12.859375 -3.80078125 12.859375 -5.0625 11.0625 C-5.171875 8.6171875 -5.171875 8.6171875 -4.8125 5.9375 C-4.70421875 5.04804687 -4.5959375 4.15859375 -4.484375 3.2421875 C-3.8270843 -0.15381443 -3.59517527 0.07337092 0 0 Z " fill="#FC6B62" transform="translate(16.0625,-0.0625)"/>
</svg>
