<svg xmlns="http://www.w3.org/2000/svg" width="250" height="250" fill="none"><g clip-path="url(#a)"><path fill="#4B4B4B" stroke="#000" stroke-width=".6" d="M44.36 29h161.28c8.483 0 15.36 6.877 15.36 15.36v161.28c0 8.483-6.877 15.36-15.36 15.36H44.36C35.877 221 29 214.123 29 205.64V44.36C29 35.877 35.877 29 44.36 29Zm47.796 148.301h-.003v-31.795h41.218c26.907 0 42.01-14.347 42.01-36.615 0-22.464-14.907-37.651-42.01-37.651H71.24v106.061h20.916Zm0-53.019V92.456h38.116c12.776 0 21.877 3.825 21.877 16.435 0 12.415-9.101 15.391-21.877 15.391H92.157Z"/></g><defs><clipPath id="a"><path fill="#fff" d="M29 29h192v192H29z"/></clipPath></defs></svg>