<svg enable-background="new 0 0 400 300" viewBox="0 0 400 300" height = "250" width = "250" xmlns="http://www.w3.org/2000/svg"><g fill="#39f"><path clip-rule="evenodd" d="m80.5 135.59c8.44 4.49 11.66 14.94 7.23 23.38l-7.33-3.9.01-.02c2.23-4.37.55-9.74-3.8-12.05-4.4-2.34-9.86-.67-12.19 3.72-2.31 4.35-.7 9.74 3.61 12.12l-3.89 7.32-.16-.09c-8.28-4.57-11.38-14.95-6.93-23.32 4.48-8.45 14.98-11.66 23.45-7.16z" fill-rule="evenodd"/><path clip-rule="evenodd" d="m77.87 166.75c-8.52-4.34-11.92-14.73-7.64-23.25l7.39 3.77-.01.02c-2.16 4.41-.38 9.75 4.01 11.99 4.44 2.26 9.87.5 12.12-3.93 2.24-4.39.53-9.75-3.82-12.05l3.76-7.39.16.08c8.35 4.43 11.64 14.75 7.34 23.2-4.32 8.52-14.77 11.91-23.31 7.56z" fill-rule="evenodd"/><path d="m123.95 158.8c0 1.75.32 3.24.95 4.45s1.47 2.2 2.52 2.96c1.05.75 2.28 1.31 3.69 1.68s2.87.55 4.38.55c1.02 0 2.12-.09 3.29-.26s2.26-.5 3.29-.99 1.87-1.16 2.56-2.01c.68-.85 1.02-1.93 1.02-3.25 0-1.41-.45-2.56-1.35-3.43-.9-.88-2.08-1.61-3.54-2.19s-3.12-1.1-4.97-1.53c-1.85-.44-3.72-.92-5.62-1.46-1.95-.49-3.85-1.08-5.7-1.79s-3.5-1.62-4.97-2.74c-1.46-1.12-2.64-2.52-3.54-4.2s-1.35-3.71-1.35-6.1c0-2.68.57-5 1.72-6.97 1.14-1.97 2.64-3.61 4.49-4.93 1.85-1.31 3.94-2.29 6.28-2.92s4.67-.95 7.01-.95c2.73 0 5.34.3 7.85.91s4.73 1.59 6.68 2.96 3.49 3.1 4.64 5.22c1.14 2.12 1.72 4.68 1.72 7.7h-11.1c-.1-1.56-.43-2.85-.99-3.87s-1.3-1.83-2.23-2.41-1.98-1-3.18-1.24c-1.19-.24-2.49-.37-3.91-.37-.92 0-1.85.1-2.77.29s-1.76.54-2.52 1.02c-.75.49-1.38 1.1-1.86 1.83-.49.73-.73 1.65-.73 2.77 0 1.02.19 1.85.58 2.48s1.16 1.22 2.3 1.75c1.14.54 2.73 1.07 4.75 1.61s4.66 1.22 7.92 2.04c.97.19 2.32.55 4.05 1.06s3.44 1.33 5.15 2.45c1.7 1.12 3.18 2.62 4.42 4.49s1.86 4.27 1.86 7.19c0 2.39-.46 4.6-1.39 6.64s-2.3 3.81-4.13 5.29-4.09 2.64-6.79 3.47-5.83 1.24-9.38 1.24c-2.87 0-5.66-.35-8.36-1.06s-5.09-1.81-7.16-3.32-3.71-3.43-4.93-5.77-1.8-5.11-1.75-8.32h11.1zm49.32-26.37h-10.34v-8.59h10.34zm-10.33 5.88h10.34v37.84h-10.34zm18.6.07h9.79v5.11h.15c1.36-1.95 3.01-3.46 4.93-4.53s4.13-1.61 6.61-1.61c2.39 0 4.57.46 6.54 1.39s3.47 2.56 4.49 4.9c1.12-1.66 2.64-3.12 4.57-4.38 1.92-1.27 4.2-1.9 6.83-1.9 2 0 3.85.24 5.55.73s3.17 1.27 4.38 2.34c1.22 1.07 2.17 2.47 2.85 4.2s1.02 3.81 1.02 6.25v25.28h-10.37v-21.41c0-1.27-.05-2.46-.15-3.58s-.37-2.09-.8-2.92c-.44-.83-1.08-1.49-1.94-1.97-.85-.49-2.01-.73-3.47-.73s-2.64.28-3.54.84-1.61 1.29-2.12 2.19-.85 1.92-1.02 3.07c-.17 1.14-.26 2.3-.26 3.47v21.04h-10.37v-21.19c0-1.12-.02-2.23-.07-3.32s-.26-2.11-.62-3.03c-.37-.93-.97-1.67-1.83-2.23s-2.11-.84-3.76-.84c-.49 0-1.13.11-1.94.33-.8.22-1.58.63-2.34 1.24-.75.61-1.4 1.49-1.94 2.63s-.8 2.64-.8 4.49v21.92h-10.37zm66.94-14.38h36.73v9.64h-25.24v12.05h21.88v8.91h-21.88v21.55h-11.49zm52.95 8.43h-10.33v-8.59h10.34v8.59zm-10.33 5.88h10.34v37.84h-10.34zm18.6.07h9.83v5.26h.22c1.31-2.19 3.01-3.79 5.09-4.79 2.09-1 4.22-1.5 6.4-1.5 2.77 0 5.03.38 6.81 1.13 1.77.76 3.17 1.8 4.18 3.14 1.02 1.34 1.73 2.97 2.15 4.9.41 1.92.62 4.06.62 6.39v23.23h-10.34v-21.33c0-3.12-.49-5.44-1.46-6.98-.97-1.53-2.69-2.3-5.17-2.3-2.81 0-4.85.84-6.11 2.52s-1.89 4.44-1.89 8.29v19.8h-10.33z"/></g></svg>
