<svg xmlns="http://www.w3.org/2000/svg" xml:space="preserve" id="Layer_1" x="0" y="0" style="enable-background:new 0 0 836 296" version="1.1" viewBox="0 0 836 296" height = "250" width = "250"><style>.st1{fill:#089949}</style><path d="M365.8 140.8h45.3c21 0 38.2 6.7 38.2 30.5 0 12.5-6.4 21-18.5 24.4 15.6 3.1 23.3 11.8 23.3 27.7 0 24.5-18.4 32.3-39.9 32.3h-48.3V140.8zm42.6 48.2c12.5 0 19.5-3.7 19.5-17.2 0-12.6-8.9-15.4-19.9-15.4h-20.5V189h20.9zm3 51.1c12.7 0 20.8-4.9 20.8-18.1 0-14.6-10-18.2-22.3-18.2h-22.4v36.3h23.9zM481.3 136.1c6.5 0 11.7 4.8 11.7 11.5 0 6.6-5 11.4-11.6 11.4-6.5 0-12-4.9-12-11.5 0-6.7 5.4-11.4 11.9-11.4zm-10.1 35.7h20.1v83.9h-20.1v-83.9zM514.6 137.6l20.1-8.7v126.8h-20.1V137.6zM557.8 137.6l20.1-8.7v126.8h-20.1V137.6zM611.2 136.1c6.5 0 11.7 4.8 11.7 11.5 0 6.6-5 11.4-11.6 11.4-6.5 0-12-4.9-12-11.5 0-6.7 5.4-11.4 11.9-11.4zm-10.1 35.7h20.1v83.9h-20.1v-83.9zM643.9 171.6H664V185c5.4-10.4 16.7-15.1 28.4-15.1 20.2 0 29.3 14.2 29.3 33.3v52.6h-20.4v-50.6c0-11.8-5.3-18.7-17.2-18.7-12.6 0-20.1 7.8-20.1 19.9v49.4h-20.1v-84.2zM755.8 259.4c4.2 9.3 13.9 12.1 23.2 12.1 14.9 0 23.9-7.1 23.9-22.4v-12.6c-5.7 9.7-17 15.8-28.2 15.8-23.8 0-37.6-18.7-37.6-40.6 0-22.6 14.8-41.9 38.1-41.9 11.4 0 21.8 4.6 27.7 14.7v-12.9h20.2v77.8c0 26.4-19.8 37.1-44.1 37.1-15.6 0-32.3-4.4-39.1-20.2l15.9-6.9zm47.9-48.8c0-14.4-7.8-25.3-23-25.3-16.1 0-22.9 12.2-22.9 26.8 0 13.1 8.2 24.7 22.2 24.7 15.7 0 23.7-11.6 23.7-26.2zM366 104.4 403 51h-33.2V40.5h50.6v5.2l-36.1 53.4h35v10.5H366v-5.2zM452 58c15.4 0 27.2 10.8 27.2 26.3 0 15.9-12.4 26.4-27.7 26.4-15.4 0-27.8-10.7-27.8-26.1 0-16 13.1-26.6 28.3-26.6zm14.2 26.3c0-9.3-4.7-17.1-14.7-17.1-10.2 0-14.3 8.1-14.3 17.4 0 9 4.8 16.6 14.6 16.6 10.1.1 14.4-8 14.4-16.9zM488 36.1h12.1v31c3.3-6.3 9.9-9.1 16.9-9.1 12.1 0 18.2 8.5 18.2 20v31.7H523V79.2c0-7.3-3.8-11.3-10.8-11.3-7.8 0-12.1 4.8-12.1 12v29.7H488V36.1zM571.4 58c15.4 0 27.2 10.8 27.2 26.3 0 15.9-12.4 26.4-27.7 26.4-15.4 0-27.8-10.7-27.8-26.1 0-16 13.1-26.6 28.3-26.6zm14.2 26.3c0-9.3-4.7-17.1-14.7-17.1-10.2 0-14.3 8.1-14.3 17.4 0 9 4.8 16.6 14.6 16.6 10.1.1 14.4-8 14.4-16.9z"/><path d="M138 293c-.4 0-.8 0-1.3-.1-23-3.4-54-15.6-78.7-30.9-13.5-8.4-24.3-17.1-32.2-25.8-9.6-10.7-14.5-21.3-14.5-31.3v-117c0-8.7 4.4-18 13.1-27.7 7.2-8.1 17.5-16.5 29.8-24.3 25-15.9 55.7-28.2 82.3-32.8 3.1-.5 6.2.7 8.1 3.1 1.9 2.4 2.4 5.8 1.2 8.6L93 138.9c16.3 7.5 33 13.3 46.7 16.2 3.9.8 6.8 4.3 6.8 8.3v121.1c0 2.5-1.1 4.8-3 6.4-1.5 1.4-3.5 2.1-5.5 2.1zM28.3 118v86.8c0 5.7 3.5 12.6 10.1 20 6.7 7.5 16.6 15.4 28.5 22.8 19.6 12.1 43 22 62.5 26.6v-104c-22.5-5.7-49.4-17.2-72-30.8-11.8-7.2-21.6-14.3-29.1-21.4zm95.3-94.5c-20.4 5.6-42 15.1-60.3 26.7-25.8 16.4-35 30.5-35 37.6 0 6.5 9.9 20.2 37.9 37 3.7 2.2 7.5 4.4 11.5 6.5l45.9-107.8zM174.6 293c-2.6 0-5-1.2-6.7-3.2-1.9-2.4-2.4-5.8-1.2-8.6l52.8-124c-16.3-7.5-33-13.3-46.7-16.2-3.9-.8-6.8-4.3-6.8-8.3V11.6c0-2.5 1.1-4.8 3-6.4 1.9-1.6 4.4-2.3 6.8-2 23 3.4 54 15.6 78.7 30.9 13.5 8.4 24.3 17.1 32.2 25.8 9.6 10.7 14.5 21.3 14.5 31.3v117c0 8.7-4.4 18-13.1 27.7-7.2 8.1-17.5 16.5-29.8 24.3-24.9 15.9-55.7 28.1-82.3 32.7-.5 0-1 .1-1.4.1zm60.2-128.3-45.9 107.8c20.4-5.6 42-15.1 60.3-26.7 25.9-16.4 35.1-30.5 35.1-37.6 0-6.5-9.9-20.2-37.9-37-3.8-2.2-7.6-4.4-11.6-6.5zm-51.7-38.9c22.5 5.7 49.4 17.2 72 30.8 11.9 7.1 21.7 14.3 29.1 21.4V91.2c0-5.7-3.5-12.6-10.1-20-6.7-7.5-16.6-15.4-28.5-22.8-19.6-12.1-43-22-62.5-26.6v104z" class="st1"/></svg>
