<svg xmlns="http://www.w3.org/2000/svg" width="250" height="250" fill="none"><g clip-path="url(#a)"><path fill="#F38020" fill-rule="evenodd" d="M179.665 52.957c-12.929-4.326-31.677-7.245-53.029-7.245-21.352 0-40.1 2.92-53.015 7.231-6.537 2.176-10.816 4.471-13.18 6.342a11.65 11.65 0 0 0-1.09.956c.265.915 1.036 2.096 2.99 3.555 2.79 2.097 7.28 4.153 13.619 5.944 12.582 3.53 30.453 5.427 50.676 5.427 20.223 0 38.094-1.898 50.677-5.44 6.338-1.778 10.842-3.848 13.619-5.93 1.953-1.46 2.711-2.654 2.99-3.556a11.67 11.67 0 0 0-1.09-.956c-2.365-1.87-6.643-4.166-13.167-6.342v.014ZM72.093 82.782a68.887 68.887 0 0 1-12.889-4.895v23.311c0 1.048.519 2.733 3.322 5.002 2.844 2.295 7.388 4.604 13.686 6.634 12.543 4.059 30.347 6.501 50.424 6.501 20.064 0 37.868-2.442 50.411-6.501 6.298-2.03 10.856-4.339 13.686-6.634 2.817-2.269 3.335-3.954 3.335-5.002V77.9a68.878 68.878 0 0 1-12.889 4.896c-14.35 4.033-33.669 5.97-54.543 5.97-20.874 0-40.206-1.937-54.543-5.97v-.014Zm135.926 18.416V59.325c0-15.032-36.433-27.199-81.383-27.199-44.95 0-81.383 12.167-81.383 27.186v131.363c0 15.032 36.433 27.199 81.383 27.199 44.95 0 81.383-12.167 81.383-27.186v-89.49Zm-13.951 19.211c-3.72 2.083-7.999 3.848-12.623 5.347-14.39 4.644-33.789 7.165-54.809 7.165-21.02 0-40.419-2.521-54.809-7.165a69.816 69.816 0 0 1-12.622-5.347v22.715c0 1.035.518 2.719 3.321 4.988 2.844 2.296 7.388 4.617 13.686 6.647 12.543 4.06 30.347 6.488 50.424 6.488 20.064 0 37.868-2.428 50.411-6.488 6.298-2.03 10.856-4.351 13.686-6.633 2.817-2.283 3.335-3.967 3.335-5.002v-22.715Zm-122.24 47.247a69.95 69.95 0 0 1-12.623-5.347v27.305c.239.252.624.61 1.235 1.101 2.365 1.87 6.644 4.166 13.18 6.342 12.916 4.312 31.664 7.231 53.016 7.231 21.352 0 40.1-2.919 53.015-7.231 6.538-2.176 10.816-4.472 13.181-6.342.44-.335.853-.703 1.236-1.101v-27.305a69.896 69.896 0 0 1-12.623 5.347c-14.39 4.656-33.789 7.177-54.809 7.177-21.02 0-40.419-2.521-54.809-7.164v-.013Zm122.559 21.546s0 .027-.053.08a.359.359 0 0 1 .053-.08Zm-135.501 0 .053.08a.325.325 0 0 1-.053-.08Zm21.246-83.453c3.853 0 6.975-3.052 6.975-6.793a6.878 6.878 0 0 0-2.076-4.846 6.897 6.897 0 0 0-4.9-1.96c-3.853 0-6.975 3.05-6.975 6.806 0 3.741 3.122 6.793 6.976 6.793Zm6.975 36.234a6.88 6.88 0 0 1-4.33 6.312 6.906 6.906 0 0 1-2.645.494 6.903 6.903 0 0 1-6.42-4.177 6.88 6.88 0 0 1-.556-2.629c0-3.742 3.122-6.793 6.976-6.793 3.853 0 6.975 3.051 6.975 6.793Zm-6.975 48.705c3.853 0 6.975-3.051 6.975-6.793a6.88 6.88 0 0 0-2.08-4.837 6.9 6.9 0 0 0-4.895-1.956c-3.854 0-6.976 3.052-6.976 6.793 0 3.755 3.122 6.793 6.976 6.793Z" clip-rule="evenodd"/></g><defs><clipPath id="a"><path fill="#fff" d="M45 32h164v186H45z"/></clipPath></defs></svg>