<?xml version="1.0" encoding="UTF-8"?>
<svg xmlns="http://www.w3.org/2000/svg" xmlns:xlink="http://www.w3.org/1999/xlink" width="250px" height="250px" viewBox="0 0 250 250" version="1.1">
<g id="surface1">
<rect x="0" y="0" width="250" height="250" style="fill:rgb(100%,100%,100%);fill-opacity:1;stroke:none;"/>
<path style=" stroke:none;fill-rule:evenodd;fill:rgb(0%,1.176471%,6.27451%);fill-opacity:1;" d="M 237.914062 134.671875 C 237.914062 159.128906 219.652344 174.625 200.375 174.625 C 189.9375 174.625 180.804688 170.074219 175.589844 162.398438 L 172.148438 173.0625 L 155.875 173.0625 L 155.871094 75.375 L 176.464844 75.375 L 176.464844 105.816406 C 181.742188 98.996094 190.128906 94.722656 200.230469 94.722656 C 219.941406 94.722656 237.914062 110.21875 237.914062 134.671875 Z M 174.574219 134.53125 C 174.574219 146.472656 183.996094 156.140625 196.316406 156.140625 C 208.347656 156.140625 217.914062 146.617188 217.914062 134.53125 C 217.914062 122.445312 208.347656 112.917969 196.316406 112.917969 C 183.996094 112.917969 174.574219 122.585938 174.574219 134.53125 Z M 174.574219 134.53125 "/>
<path style=" stroke:none;fill-rule:nonzero;fill:rgb(0%,1.176471%,6.27451%);fill-opacity:1;" d="M 12.085938 173.0625 L 56.859375 173.0625 L 63.09375 153.582031 L 32.671875 153.582031 L 32.664062 75.375 L 12.082031 75.375 Z M 12.085938 173.0625 "/>
<path style=" stroke:none;fill-rule:evenodd;fill:rgb(0%,1.176471%,6.27451%);fill-opacity:1;" d="M 106.28125 174.625 C 129.910156 174.625 147.738281 156.710938 147.738281 134.671875 C 147.738281 112.492188 129.621094 94.722656 106.28125 94.722656 C 82.800781 94.722656 64.972656 112.492188 64.972656 134.671875 C 64.972656 156.710938 82.800781 174.625 106.28125 174.625 Z M 106.425781 156 C 94.398438 156 84.976562 146.472656 84.976562 134.53125 C 84.976562 122.585938 94.398438 113.0625 106.425781 113.0625 C 112.125 113.042969 117.597656 115.300781 121.625 119.332031 C 125.652344 123.359375 127.902344 128.832031 127.878906 134.53125 C 127.878906 146.472656 118.316406 156 106.425781 156 Z M 106.425781 156 "/>
</g>
</svg>
