<?xml version="1.0" encoding="UTF-8" standalone="no"?>
<!-- Generator: Adobe Illustrator 16.0.3, SVG Export Plug-In . SVG Version: 6.00 Build 0)  -->

<svg
   version="1.1"
   id="Capa_1"
   x="0px"
   y="0px"
   width="3789.502"
   height="720"
   viewBox="0 0 3789.502 720"
   enable-background="new 0 0 612 792"
   xml:space="preserve"
   sodipodi:docname="Logo de Gympass.svg"
   inkscape:version="1.1 (c68e22c387, 2021-05-23)"
   xmlns:inkscape="http://www.inkscape.org/namespaces/inkscape"
   xmlns:sodipodi="http://sodipodi.sourceforge.net/DTD/sodipodi-0.dtd"
   xmlns="http://www.w3.org/2000/svg"
   xmlns:svg="http://www.w3.org/2000/svg"><defs
   id="defs29" /><sodipodi:namedview
   id="namedview27"
   pagecolor="#ffffff"
   bordercolor="#666666"
   borderopacity="1.0"
   inkscape:pageshadow="2"
   inkscape:pageopacity="0.0"
   inkscape:pagecheckerboard="0"
   showgrid="false"
   fit-margin-top="0"
   fit-margin-left="0"
   fit-margin-right="0"
   fit-margin-bottom="0"
   inkscape:zoom="0.13131313"
   inkscape:cx="1214.6538"
   inkscape:cy="1389.8077"
   inkscape:window-width="1920"
   inkscape:window-height="1017"
   inkscape:window-x="1912"
   inkscape:window-y="-8"
   inkscape:window-maximized="1"
   inkscape:current-layer="Capa_1" />
<g
   id="g24"
   transform="matrix(3.2370172,0,0,3.2370172,901.42943,-923.22179)">
	<g
   id="g22">
		
		<path
   fill-rule="evenodd"
   clip-rule="evenodd"
   fill="#f46152"
   d="m -135.665,396.466 c -0.727,-0.415 -1.626,-0.196 -2.485,-0.196 -17.2,-0.015 -34.399,-0.011 -51.599,-0.011 -3.161,0 -2.892,0.171 -2.893,-2.81 -0.005,-8.08 -0.004,-16.16 0,-24.239 0.001,-2.493 -0.216,-2.406 2.277,-2.406 29.04,0.001 58.079,0.001 87.119,0.001 0.24,0 0.482,0.023 0.719,-0.002 1.081,-0.12 1.702,0.226 1.559,1.441 -0.046,0.394 -0.005,0.799 -0.005,1.199 0,19.52 -0.015,39.039 0.028,58.559 0.003,1.531 -0.42,2.709 -1.363,3.91 -6.967,8.877 -15.637,15.699 -25.438,21.137 -12.735,7.066 -26.422,11.119 -40.872,12.712 -5.399,0.595 -10.809,0.992 -16.241,0.868 -13.711,-0.313 -26.9,-3.067 -39.498,-8.558 -9.523,-4.15 -18.226,-9.608 -25.894,-16.61 -9.88,-9.022 -17.424,-19.719 -22.221,-32.258 -3.413,-8.922 -5.236,-18.16 -5.807,-27.72 -0.785,-13.141 0.769,-25.932 4.933,-38.389 4.39,-13.135 11.646,-24.498 21.854,-33.869 10.431,-9.576 22.687,-15.899 36.286,-19.682 8.569,-2.384 17.298,-3.714 26.193,-4.083 2.551,-0.106 5.1,-0.286 7.653,-0.247 10.999,0.17 21.803,1.571 32.223,5.266 9.126,3.236 17.426,7.854 24.625,14.435 6.897,6.306 12.044,13.776 15.725,22.321 0.397,0.923 0.302,1.334 -0.631,1.837 -5.48,2.952 -10.915,5.989 -16.368,8.99 -4.195,2.309 -8.376,4.643 -12.603,6.892 -1.655,0.88 -1.465,1.116 -2.551,-0.654 -3.101,-5.056 -6.604,-9.8 -10.893,-13.923 -7.224,-6.944 -15.634,-11.768 -25.691,-12.751 -13.983,-1.367 -27.082,1.226 -38.229,10.46 -6.555,5.43 -11.058,12.332 -13.935,20.304 -2.204,6.105 -3.454,12.397 -3.967,18.885 -0.909,11.511 -0.024,22.78 4,33.669 4.024,10.89 10.866,19.45 21.179,25.047 5.91,3.208 12.269,4.939 18.924,5.604 9.396,0.939 18.654,0.059 27.755,-2.399 8.955,-2.418 17.209,-6.303 24.612,-11.949 1.041,-0.794 1.569,-1.621 1.553,-2.99 -0.072,-5.908 -0.033,-11.815 -0.033,-17.791 z"
   id="path4" />
		<path
   fill-rule="evenodd"
   clip-rule="evenodd"
   fill="#f46152"
   d="m 105.758,364.363 c 1.124,-1.921 2.169,-3.894 3.386,-5.754 6.956,-10.639 16.768,-16.839 29.321,-18.744 8.786,-1.334 17.494,-1.147 26.073,1.363 10.302,3.014 17.718,9.54 22.773,18.882 0.948,1.751 1.754,3.58 2.691,5.508 1.543,-2.327 2.919,-4.625 4.51,-6.762 9.389,-12.612 22.07,-18.856 37.688,-19.644 6.118,-0.308 12.106,0.11 18.021,1.599 12.638,3.182 21.45,10.855 26.573,22.811 2.439,5.692 3.707,11.653 4.348,17.797 0.416,3.985 0.441,7.965 0.442,11.955 0.005,21.119 0.006,42.238 -10e-4,63.357 -0.001,3.127 0.321,2.884 -2.79,2.886 -11.6,0.007 -23.199,0.003 -34.798,0.002 -0.48,0 -0.96,-0.019 -1.44,-0.003 -0.908,0.029 -1.318,-0.392 -1.277,-1.304 0.028,-0.638 0,-1.279 0,-1.919 0,-20.159 0.012,-40.318 -0.009,-60.478 -0.005,-5.148 -0.779,-10.162 -2.812,-14.948 -2.568,-6.046 -7.064,-9.795 -13.45,-11.102 -7.687,-1.573 -14.977,-0.612 -21.375,4.288 -4.655,3.564 -7.062,8.568 -8.432,14.116 -0.825,3.339 -1.124,6.755 -1.122,10.203 0.015,19.199 0.007,38.398 0.007,57.598 0,0.479 0.006,0.96 -0.001,1.44 -0.034,2.073 -0.036,2.103 -2.154,2.104 -11.839,0.01 -23.679,0.007 -35.519,0.002 -2.48,-10e-4 -2.492,-0.013 -2.493,-2.487 -0.003,-19.279 0.011,-38.558 -0.01,-57.837 -0.005,-5.032 -0.268,-10.042 -1.704,-14.92 -2.932,-9.957 -9.247,-14.584 -19.403,-15.142 -5.374,-0.295 -10.459,0.857 -15.062,3.85 -4.278,2.782 -6.96,6.76 -8.731,11.409 -1.546,4.058 -2.296,8.282 -2.292,12.645 0.019,19.76 0.008,39.519 0.008,59.277 0,0.641 -0.03,1.281 0,1.92 0.043,0.928 -0.405,1.311 -1.296,1.284 -0.479,-0.015 -0.959,0.003 -1.439,0.003 -11.6,0.001 -23.199,0.001 -34.798,0.001 -0.32,0 -0.641,0.008 -0.96,-0.003 -1.746,-0.054 -1.749,-0.056 -1.811,-1.705 -0.015,-0.399 -0.004,-0.8 -0.004,-1.2 0,-37.038 -0.002,-74.076 0.004,-111.114 0,-3.264 -0.333,-2.967 2.944,-2.971 11.039,-0.009 22.078,-0.003 33.117,-0.003 0.48,0 0.963,0.04 1.439,-0.003 1.153,-0.105 1.535,0.415 1.521,1.54 -0.044,3.679 -0.015,7.359 -0.014,11.039 0,3.032 0,6.064 0,9.096 0.11,0.022 0.22,0.045 0.331,0.068 z"
   id="path6" />
		<path
   id="path8"
   d="m 389.59375,339.0332 c -4.442,0.003 -8.90764,0.45133 -13.30664,1.36133 -13.32,2.755 -24.53378,8.85825 -32.55078,20.15625 -0.163,0.229 -0.31361,0.57995 -0.84961,0.37695 v -2.32617 c 0,-4.719 0.0142,-9.44015 -0.01,-14.16015 -0.009,-1.746 -0.0518,-1.74946 -1.71679,-1.81446 -0.479,-0.019 -0.95946,-0.004 -1.43946,-0.004 h -28.07812 c -2,0 -4,-0.0191 -6,0.006 -1.925,0.024 -1.92389,0.0437 -1.96289,2.05273 -0.004,0.24 -0.002,0.4807 -0.002,0.7207 v 159.34961 c 0,0.56 0.0188,1.11969 0.008,1.67969 -0.016,0.791 0.36139,1.17678 1.15039,1.17578 0.64,-10e-4 1.27797,0.0117 1.91797,0.0117 9.6,10e-4 19.19882,0 28.79882,0 2.159,0 4.31852,0.0191 6.47852,-0.006 1.914,-0.021 1.91712,-0.043 1.95313,-2.04101 0.011,-0.56 0.002,-1.11869 0.002,-1.67969 v -56.87696 -2.58789 c 2.529,2.099 4.64501,4.35671 7.04101,6.34571 10.149,8.421 22.07643,11.86442 34.98243,12.48242 5.759,0.275 11.48262,-0.25406 17.14062,-1.41406 11.175,-2.291 20.92197,-7.30675 28.91797,-15.46875 7.388,-7.541 12.09673,-16.63957 14.55273,-26.85157 1.83,-7.612 2.60408,-15.32984 2.08008,-23.21484 -0.438,-6.574 -1.3975,-12.98905 -3.4375,-19.24805 -3.866,-11.857 -10.74633,-21.49053 -21.11133,-28.51953 -10.433,-7.074 -22.20659,-9.51486 -34.55859,-9.50586 z m -13.75586,27.22461 c 5.382,-0.073 10.90934,0.92972 16.02734,3.63672 6.705,3.546 10.99065,9.17569 13.18165,16.30469 3.31099,10.778 3.18668,21.56606 -1.19532,32.03906 -4.025,9.621 -11.36206,15.39661 -21.66406,17.22461 -8.855,1.572 -17.33909,0.55539 -25.12109,-4.22461 -6.097,-3.744 -10.12075,-9.16233 -12.21875,-15.98633 -1.998,-6.499 -2.08693,-13.13828 -1.54493,-19.86328 0.305,-3.774 0.9761,-7.42611 2.3711,-10.91211 3.723,-9.303 10.70031,-14.83812 20.32031,-17.20312 3.11,-0.765 6.28575,-1.03063 9.84375,-1.01563 z"
   style="fill:#f46152;fill-opacity:1" />
		<path
   id="path10"
   d="m 536.31055,339.11914 c -1.33809,0.014 -2.67986,0.0461 -4.02149,0.0937 -5.756,0.205 -11.45586,0.67095 -17.13086,1.62695 -9.046,1.524 -17.69442,4.21783 -25.60742,8.92383 -11.647,6.927 -19.33762,16.72167 -21.51562,30.38867 -0.311,1.956 -0.32607,1.998 1.71093,2 12.396,0.01 24.7915,0.009 37.1875,0.002 1.936,-10e-4 1.97614,-0.0146 2.36914,-1.80664 1.474,-6.727 5.57268,-11.22239 11.88868,-13.65039 8.954,-3.443 18.10495,-3.514 27.25195,-0.875 4.263,1.23 7.76745,3.7109 10.06445,7.6289 2.226,3.798 2.52146,8.00244 2.43946,12.27344 -0.022,1.126 -0.78654,1.18105 -1.64454,1.24805 -3.893,0.303 -7.78387,0.62051 -11.67187,0.97851 -9.601,0.885 -19.20078,1.79031 -28.80078,2.69531 -7.07,0.667 -14.10974,1.55536 -21.05274,3.06836 -6.888,1.501 -13.5989,3.52241 -19.6289,7.31641 -5.503,3.464 -9.5581,8.16211 -11.8711,14.28711 -2.004,5.309 -2.64551,10.74792 -1.97851,16.41992 0.979,8.333 4.53717,15.19466 10.95117,20.59766 6.223,5.243 13.54306,8.02658 21.41406,9.51758 7.326,1.388 14.70516,1.70087 22.16016,1.17187 8.432,-0.6 16.62005,-2.12692 24.37305,-5.54492 7.529,-3.321 13.89706,-8.11377 18.41406,-15.13477 0.264,-0.41 0.2515,-1.16092 1.0625,-1.04492 0.181,2.725 0.38815,5.42491 0.53515,8.12891 0.161,2.944 0.55185,5.85744 0.96485,8.77343 0.135,0.95701 0.48295,1.47702 1.50195,1.41602 0.478,-0.028 0.9575,0 1.4375,0 11.437,0 22.87355,0.003 34.31055,-0.008 0.786,-10e-4 1.59412,0.14636 2.70312,-0.30664 -0.955,-3.922 -1.45642,-7.87131 -1.85742,-11.82031 -0.688,-6.74101 -0.89689,-13.52393 -0.96289,-20.29493 -0.129,-13.354 -0.0493,-26.7114 -0.0312,-40.0664 0.008,-6.448 -1.00167,-12.71382 -3.26367,-18.75782 -2.459,-6.572 -6.32603,-12.14482 -11.83203,-16.54882 -6.502,-5.202 -14.01192,-8.19133 -22.04492,-9.98633 -9.17875,-2.051 -18.45761,-2.80876 -27.82422,-2.71094 z m 24.15234,67.02148 c 1.2039,-0.0326 1.27473,0.22458 1.30273,1.81446 0.021,1.201 0.006,2.4014 0.006,4.1914 0.294,3.303 -0.30561,7.04799 -1.9746,10.58399 -2.60401,5.52 -6.94733,9.27747 -12.36133,11.85547 -5.177,2.465 -10.67653,3.5617 -16.39453,3.9707 -4.915,0.352 -9.71004,-0.013 -14.45704,-1.20703 -1.939,-0.487 -3.7306,-1.34556 -5.4746,-2.35156 -7.775,-4.488 -7.81358,-15.52657 -0.39258,-20.35157 3.479,-2.261 7.38262,-3.35068 11.39062,-4.17968 6.422,-1.328 12.96199,-1.68877 19.45899,-2.38477 5.784,-0.62 11.57432,-1.18725 17.36132,-1.78125 0.316,-0.032 0.62932,-0.11086 0.94532,-0.13086 0.22137,-0.0135 0.41785,-0.0246 0.58984,-0.0293 z"
   style="fill:#f46152;fill-opacity:1" />
		<path
   fill-rule="evenodd"
   clip-rule="evenodd"
   fill="#f46152"
   d="m -94.639,342.896 c 0.881,-0.386 1.53,-0.267 2.161,-0.268 13.277,-0.008 26.553,-0.013 39.83,0 2.362,0.002 2.152,-0.326 3.068,2.076 7.196,18.856 14.405,37.708 21.61,56.561 3.133,8.197 6.228,16.41 9.044,24.724 0.126,0.372 0.194,0.782 0.633,1.021 0.83,-0.729 0.73,-1.838 1.058,-2.754 3.671,-10.288 7.241,-20.612 10.944,-30.888 4.191,-11.629 8.487,-23.22 12.744,-34.825 1.731,-4.719 3.504,-9.422 5.202,-14.152 0.422,-1.176 0.93,-1.809 2.359,-1.802 12.876,0.06 25.753,0.036 38.63,0.042 0.311,0 0.622,0.072 1.108,0.132 -0.639,2.643 -1.928,4.932 -2.948,7.304 -7.466,17.373 -15.001,34.716 -22.509,52.07 -8.965,20.719 -17.963,41.424 -26.867,62.169 -3.355,7.818 -7.353,15.222 -12.729,21.854 -8.901,10.979 -20.512,17.232 -34.255,19.859 -8.768,1.677 -17.602,1.815 -26.481,1.45 -3.675,-0.15 -7.311,-0.606 -10.956,-1.014 -2.24,-0.25 -2.267,-0.303 -2.27,-2.443 -0.009,-8.638 -0.012,-17.275 0.002,-25.913 0.003,-1.997 0.033,-1.969 2.047,-1.653 7.767,1.218 15.553,1.676 23.342,0.257 5.353,-0.975 10.269,-3.004 14.379,-6.654 2.716,-2.412 4.826,-5.256 5.871,-8.84 0.369,-1.265 0.232,-2.291 -0.314,-3.414 -1.851,-3.807 -3.658,-7.634 -5.479,-11.455 -6.421,-13.478 -12.833,-26.96 -19.265,-40.433 -3.783,-7.926 -7.61,-15.831 -11.397,-23.753 -5.99,-12.532 -11.964,-25.071 -17.938,-37.61 -0.233,-0.495 -0.39,-1.027 -0.624,-1.648 z"
   id="path12" />
		<path
   fill-rule="evenodd"
   clip-rule="evenodd"
   fill="#f46152"
   d="m 748.098,361.424 c -6.361,6.542 -12.535,12.89 -18.776,19.308 -2.852,-2.253 -5.55,-4.472 -8.522,-6.33 -7.152,-4.47 -14.974,-7.064 -23.239,-8.438 -7.762,-1.29 -15.581,-1.364 -23.405,-0.88 -3.425,0.212 -6.83,0.749 -9.993,2.221 -2.483,1.157 -4.428,2.771 -5.052,5.654 -0.614,2.835 0.334,5.685 2.644,7.427 1.424,1.074 3.033,1.747 4.728,2.239 3.391,0.985 6.889,1.33 10.38,1.693 10.147,1.055 20.299,2.08 30.448,3.115 7.646,0.78 15.164,2.138 22.241,5.284 10.863,4.827 17.327,12.927 18.629,24.958 0.706,6.525 0.365,12.892 -1.997,19.061 -2.958,7.725 -8.393,13.294 -15.438,17.377 -7.361,4.267 -15.437,6.414 -23.766,7.725 -8.065,1.269 -16.199,1.687 -24.343,1.407 -14.28,-0.489 -28.271,-2.541 -41.51,-8.325 -9.436,-4.121 -17.678,-9.86 -24.427,-17.676 -0.514,-0.596 -0.966,-1.245 -1.521,-1.966 3.154,-2.708 6.221,-5.362 9.311,-7.99 3.646,-3.101 7.309,-6.182 10.971,-9.263 1.292,-1.086 1.329,-1.098 2.43,0.112 8.796,9.661 19.865,15.003 32.576,17.342 6.541,1.203 13.132,1.763 19.758,1.658 4.537,-0.072 9.092,-0.35 13.498,-1.679 3.214,-0.969 6.256,-2.271 7.726,-5.525 1.575,-3.486 1.263,-9.158 -3.943,-11.314 -2.983,-1.236 -6.087,-1.943 -9.263,-2.286 -6.814,-0.734 -13.65,-1.282 -20.463,-2.037 -8.234,-0.914 -16.546,-1.259 -24.636,-3.304 -6.784,-1.715 -13.271,-4.046 -18.93,-8.325 -5.7,-4.312 -9.444,-9.864 -11.001,-16.866 -1.521,-6.839 -1.468,-13.617 0.873,-20.278 2.887,-8.211 8.746,-13.781 16.2,-17.829 7.462,-4.053 15.55,-6.133 23.91,-7.313 4.906,-0.692 9.831,-0.949 14.779,-1.169 11.634,-0.519 23.117,0.486 34.411,3.202 11.382,2.738 21.934,7.334 30.868,15.137 0.842,0.735 1.624,1.538 2.417,2.327 0.447,0.447 0.859,0.929 1.427,1.546 z"
   id="path14" />
		<path
   fill-rule="evenodd"
   clip-rule="evenodd"
   fill="#f46152"
   d="m 872.669,380.639 c -8.597,-7.796 -18.648,-12.275 -29.895,-14.371 -8.313,-1.55 -16.67,-1.653 -25.055,-1.181 -3.348,0.189 -6.651,0.796 -9.762,2.171 -1.179,0.521 -2.248,1.164 -3.171,2.094 -3.39,3.419 -2.878,8.745 1.118,11.408 1.901,1.268 4.048,1.874 6.236,2.358 5.158,1.142 10.438,1.308 15.664,1.918 10.133,1.185 20.337,1.751 30.419,3.379 5.929,0.958 11.67,2.597 17.064,5.318 8.763,4.421 14.285,11.334 16.11,21.04 1.102,5.861 1.115,11.728 -0.227,17.572 -1.938,8.438 -6.739,14.901 -13.732,19.801 -6.446,4.518 -13.724,7.085 -21.363,8.696 -5.707,1.204 -11.482,1.828 -17.309,2.188 -4.077,0.251 -8.15,0.344 -12.215,0.212 -14.617,-0.474 -28.927,-2.577 -42.428,-8.599 -9.091,-4.055 -17.054,-9.67 -23.646,-17.168 -0.21,-0.239 -0.379,-0.516 -0.574,-0.769 -1.084,-1.404 -1.11,-1.434 0.266,-2.603 6.321,-5.375 12.654,-10.737 18.995,-16.091 1.286,-1.086 1.356,-1.099 2.46,0.144 9.255,10.419 21.229,15.527 34.67,17.732 5.836,0.958 11.735,1.46 17.644,1.247 5.406,-0.195 10.849,-0.416 15.968,-2.585 3.249,-1.378 5.481,-3.573 5.977,-7.168 0.398,-2.899 -0.688,-6.681 -3.899,-8.343 -3.265,-1.69 -6.798,-2.326 -10.355,-2.719 -8.397,-0.925 -16.815,-1.671 -25.226,-2.491 -8.895,-0.867 -17.786,-1.771 -26.285,-4.794 -5.533,-1.969 -10.689,-4.57 -15.004,-8.697 -4.416,-4.226 -7.219,-9.284 -8.442,-15.249 -1.238,-6.034 -1.196,-12.033 0.526,-17.975 2.326,-8.022 7.565,-13.743 14.468,-18.104 6.227,-3.935 13.117,-6.164 20.272,-7.613 6.737,-1.365 13.554,-1.934 20.433,-2.199 9.131,-0.353 18.174,0.192 27.161,1.691 12.592,2.101 24.433,6.16 34.832,13.818 2.188,1.612 4.245,3.383 6.165,5.306 1.253,1.255 1.233,1.364 0.073,2.727 -0.052,0.061 -0.109,0.117 -0.166,0.174 -5.733,5.798 -11.467,11.597 -17.205,17.391 -0.106,0.111 -0.268,0.164 -0.562,0.334 z"
   id="path16" />
		
		
	</g>
</g>
</svg>
