<svg xmlns="http://www.w3.org/2000/svg"
	 viewBox="0 0 1658 1642" width="250" height="250" fill="none">
<path fill="#000000" opacity="1.000000" stroke="none"
	d="
M613.724731,217.704071
	C631.489807,211.495590 648.971558,205.656052 666.819336,200.956223
	C682.864868,196.730957 698.985168,192.945923 715.302856,189.847610
	C726.930237,187.639893 738.642029,186.078323 750.293640,184.098785
	C753.978088,183.472824 757.855042,183.277710 761.536682,183.209213
	C771.967163,183.015060 782.337341,181.894119 792.786255,181.848312
	C807.532410,181.783707 822.297363,180.235428 837.033020,181.116119
	C851.124817,181.958344 865.223022,181.486374 879.286804,182.138428
	C890.623657,182.664047 901.998901,183.178391 913.289307,184.172318
	C932.212158,185.838211 951.070679,187.930634 969.805603,191.709457
	C996.508789,197.095505 1022.639587,204.264099 1048.347412,213.060394
	C1067.454346,219.598099 1086.067871,227.406555 1104.479004,235.750717
	C1139.309570,251.536423 1172.300049,270.505005 1203.872314,292.002441
	C1220.231445,303.141296 1235.994873,315.069946 1251.259155,327.682587
	C1263.941895,338.162109 1275.921143,349.404327 1288.184692,360.339081
	C1300.096802,370.960388 1310.876465,382.609985 1321.533569,394.314209
	C1342.876953,417.754913 1362.818359,442.425232 1379.714355,469.338104
	C1388.858154,483.903046 1397.442749,498.831024 1405.919434,513.799133
	C1413.206909,526.667358 1420.546509,539.561035 1426.815918,552.934326
	C1432.308472,564.650574 1438.985596,575.888550 1442.368652,588.592651
	C1443.496704,592.828430 1442.038696,595.102478 1438.819824,597.008606
	C1432.648682,600.662842 1425.468628,600.377441 1418.769165,601.916626
	C1401.381226,605.911560 1383.940918,609.683960 1367.970337,618.034973
	C1357.599976,623.457520 1348.248779,630.308350 1339.348267,637.979980
	C1319.832397,654.801270 1302.466553,673.803528 1283.852905,691.526794
	C1270.029663,704.688843 1254.276489,714.025940 1234.553223,716.196411
	C1217.761475,718.044373 1201.817139,716.944885 1186.622559,709.167664
	C1176.090576,703.776917 1166.406250,697.062195 1157.263184,689.651917
	C1143.717773,678.673584 1130.966309,666.785522 1118.188477,654.909607
	C1104.100220,641.815674 1089.629272,629.083557 1073.692871,618.161560
	C1060.902466,609.395569 1046.984253,603.219116 1031.645508,601.155884
	C1019.118286,599.470947 1006.526489,600.354797 993.880798,601.753784
	C980.620544,603.220825 967.683838,605.793762 954.789307,608.965210
	C938.535156,612.962891 925.059082,621.474976 912.634155,632.593933
	C898.848999,644.930176 885.458191,657.648865 871.971802,670.293091
	C858.306580,683.104858 844.922363,696.365356 828.567688,706.029419
	C819.519958,711.375671 809.656799,714.187744 799.547974,715.843567
	C787.732361,717.778992 775.936951,717.554077 764.099304,714.203552
	C751.928406,710.758728 741.338867,704.637878 731.169434,697.591003
	C714.023865,685.710083 698.725952,671.635437 683.628052,657.285095
	C672.811707,647.004211 661.142517,637.626709 650.132812,627.541626
	C636.634949,615.177246 621.414307,606.154236 603.209412,603.211426
	C596.478577,602.123352 589.559448,601.593994 582.794739,600.715698
	C573.974792,599.570557 565.374451,600.484192 556.759399,601.121338
	C535.861938,602.666626 515.362000,606.287903 497.384277,618.030518
	C485.801575,625.596069 475.175568,634.483521 464.845917,643.681702
	C448.638275,658.114136 432.699799,672.855103 416.285370,687.046692
	C406.752686,695.288452 396.696716,703.134338 385.370209,708.724548
	C372.958374,714.850342 359.967072,718.527893 345.556885,716.234680
	C335.786652,714.679749 326.222809,712.965881 316.934937,709.513550
	C307.178619,705.887207 299.228577,699.557861 291.528534,692.935303
	C275.109375,678.813843 259.776886,663.507324 243.919144,648.779724
	C235.710587,641.156250 228.544220,632.381226 219.356216,625.799805
	C218.548599,625.221313 217.791595,624.624146 218.428711,622.973938
	C225.292725,605.195496 231.645004,587.227905 239.534821,569.842407
	C246.188797,555.179993 253.446762,540.828003 260.892792,526.573303
	C275.376526,498.845703 291.826477,472.343079 310.310577,447.063354
	C323.605469,428.880585 337.648590,411.377655 352.717834,394.633240
	C363.124451,383.069824 373.368011,371.334961 384.828644,360.839935
	C399.321716,347.567993 413.905396,334.402863 429.227417,322.019958
	C453.810760,302.152252 479.804962,284.406769 506.796906,268.101715
	C524.560120,257.371460 543.059082,247.890625 561.859375,239.118729
	C578.690735,231.265533 595.787903,223.942017 613.724731,217.704071
z"/>
<path fill="#000000" opacity="1.000000" stroke="none"
	d="
M535.224854,999.723755
	C547.614807,1011.457947 559.463440,1023.264832 571.985779,1034.307617
	C583.157715,1044.159668 594.116394,1054.477783 607.826111,1060.969482
	C618.244019,1065.902344 629.325623,1068.348877 640.683472,1070.117310
	C649.959167,1071.561646 659.265076,1071.449585 668.427368,1070.780640
	C680.661804,1069.887207 692.754272,1067.322266 704.786499,1064.697754
	C714.397156,1062.601318 723.801636,1059.840942 732.637634,1055.636230
	C743.856873,1050.297485 753.417603,1042.368774 762.407349,1033.938721
	C772.491516,1024.482422 781.944031,1014.356323 791.847351,1004.702209
	C804.186340,992.673767 816.443176,980.445190 830.830139,970.865540
	C842.082214,963.373108 854.230957,957.865295 868.009094,955.859070
	C896.197083,951.754578 920.305237,960.698425 942.599854,977.016296
	C957.938843,988.243225 972.363098,1000.476562 986.170044,1013.539368
	C998.099609,1024.825806 1010.494263,1035.634888 1022.939026,1046.358276
	C1034.122437,1055.994751 1046.261963,1064.070312 1060.954224,1067.619385
	C1063.524658,1068.240234 1066.299561,1068.556030 1068.642700,1068.599731
	C1086.228271,1068.928223 1103.832642,1069.765259 1121.421143,1068.293579
	C1131.783813,1067.426636 1141.820312,1065.548950 1151.739746,1062.181885
	C1163.847778,1058.072266 1174.537842,1051.649170 1184.422119,1043.908325
	C1196.620728,1034.354736 1207.664429,1023.463867 1218.916870,1012.799500
	C1234.929565,997.623596 1250.865112,982.289429 1269.411499,970.028442
	C1287.335327,958.178833 1307.047241,953.140442 1328.216797,955.155701
	C1346.949341,956.938904 1363.228516,965.357056 1378.129639,976.600830
	C1399.139526,992.454041 1417.659546,1011.015747 1436.136353,1029.632202
	C1440.557495,1034.086670 1444.895142,1038.630493 1449.916382,1042.444580
	C1451.609253,1043.730347 1452.136353,1044.939453 1451.072144,1047.351440
	C1441.501099,1069.043213 1432.500854,1090.992065 1422.641846,1112.549438
	C1417.100464,1124.665771 1410.491699,1136.318604 1403.945435,1147.944824
	C1394.388672,1164.917603 1384.175415,1181.513306 1372.974487,1197.457642
	C1361.878296,1213.253052 1350.414185,1228.759033 1338.054565,1243.637085
	C1321.388062,1263.699585 1304.124512,1283.206543 1285.190430,1301.105835
	C1269.496582,1315.941772 1253.153809,1330.068970 1236.219360,1343.566650
	C1213.389404,1361.763428 1188.626709,1376.767334 1163.275513,1390.955566
	C1146.157471,1400.535889 1128.945435,1409.965088 1111.185547,1418.311768
	C1087.685303,1429.356201 1064.268433,1440.640991 1039.336182,1448.254272
	C1014.715576,1455.772583 989.857300,1462.276245 964.540466,1467.133057
	C948.941406,1470.125854 933.240112,1472.374146 917.576477,1474.877197
	C909.508911,1476.166626 901.245972,1476.182495 893.098206,1477.032349
	C879.126831,1478.489380 865.017578,1478.034790 851.117798,1479.326416
	C833.656250,1480.948730 816.427246,1478.455078 799.075073,1478.768921
	C787.510132,1478.978149 775.842041,1477.462158 764.334778,1475.883057
	C749.565430,1473.856201 734.809387,1471.701660 720.088196,1469.230103
	C683.782532,1463.134766 648.557495,1453.284912 613.951477,1440.998657
	C583.622253,1430.230713 554.619324,1416.571167 526.354736,1401.179321
	C505.673859,1389.917480 485.769836,1377.503052 466.456360,1364.083496
	C452.198212,1354.176758 438.381927,1343.705566 425.024109,1332.598633
	C412.247314,1321.975098 400.035400,1310.757568 387.771851,1299.556519
	C375.056335,1287.942627 363.750397,1275.099854 352.001404,1262.614624
	C338.095093,1247.836914 325.589478,1231.917847 313.402435,1215.765259
	C300.389679,1198.518555 288.477936,1180.491821 277.395294,1161.920288
	C267.827087,1145.886719 259.633392,1129.127686 251.037155,1112.585938
	C245.415222,1101.767456 240.344879,1090.654175 235.279068,1079.558228
	C232.728333,1073.971191 233.305161,1073.413452 239.235825,1071.973999
	C250.481247,1069.244507 261.742249,1066.555786 272.902924,1063.506592
	C287.297363,1059.573975 300.460724,1053.028931 312.451111,1044.089111
	C320.712524,1037.929688 328.639343,1031.406860 336.179901,1024.372681
	C353.753723,1007.979370 371.043976,991.271423 389.573120,975.926392
	C401.693909,965.888550 415.156250,958.536133 430.831787,956.144226
	C442.544312,954.357117 454.242523,955.301880 465.947632,957.364990
	C487.863678,961.227722 505.141418,973.216370 521.182190,987.651550
	C525.680725,991.699707 530.373169,995.532471 535.224854,999.723755
z"/>
<path fill="#000000" opacity="1.000000" stroke="none"
	d="
M941.327332,784.247559
	C946.442566,780.165955 951.485474,776.546387 956.032166,772.384705
	C967.246460,762.119873 978.057861,751.411743 989.358154,741.245239
	C1001.622314,730.211731 1013.892029,719.133301 1027.245972,709.412109
	C1033.436035,704.906006 1040.996826,703.407043 1048.409302,702.039612
	C1057.248535,700.409058 1066.248657,700.559875 1075.132202,701.103516
	C1096.446777,702.407776 1116.604614,707.403748 1133.289429,721.851746
	C1134.229614,722.665833 1135.926270,723.447510 1135.532349,724.839355
	C1135.118164,726.302917 1133.381104,725.907410 1132.071411,726.020447
	C1107.347046,728.154236 1082.889160,731.349792 1060.816528,744.011047
	C1049.411621,750.553162 1038.841553,758.245056 1028.770264,766.686035
	C1011.489258,781.169617 995.651184,797.264404 978.460144,811.817627
	C968.092896,820.594177 958.014771,829.848572 946.021606,836.602234
	C939.933716,840.030457 933.263733,841.042847 926.647461,841.849060
	C919.971741,842.662598 913.212524,843.651306 906.419861,842.994385
	C888.220825,841.234436 869.942810,839.682007 854.170837,828.972229
	C851.222412,826.970154 846.594971,825.491699 847.240784,821.155090
	C847.842163,817.116821 852.487061,817.800659 855.585266,816.710022
	C863.930664,813.772339 872.751404,813.560669 881.335144,812.155273
	C896.317200,809.702454 910.221680,804.687317 923.304382,797.174194
	C929.634583,793.538940 935.484070,789.206360 941.327332,784.247559
z"/>
<path fill="#000000" opacity="1.000000" stroke="none"
	d="
M842.251709,742.307007
	C860.251709,735.321960 875.757446,725.036255 890.401184,713.198730
	C901.959778,703.855103 912.485352,693.434509 923.356018,683.351257
	C937.487122,670.243774 951.077271,656.416931 967.510132,645.996826
	C975.683350,640.814087 984.604736,638.170105 994.208374,636.909607
	C1019.928711,633.533752 1043.235718,640.798767 1065.660889,652.308777
	C1068.594360,653.814514 1072.922119,655.188477 1072.697876,658.866394
	C1072.448975,662.948364 1067.671875,663.007751 1064.575684,663.630737
	C1058.683838,664.816101 1052.658569,665.458801 1046.658081,665.961365
	C1028.681885,667.466919 1011.994995,672.982117 996.503052,682.057190
	C981.301819,690.961975 967.510254,701.735962 954.604980,713.760437
	C943.477295,724.128601 932.472290,734.625366 921.342896,744.985291
	C909.938232,755.601562 898.403442,766.218323 884.247192,773.272583
	C876.232056,777.266663 867.683044,778.948425 858.774597,780.209106
	C839.870667,782.884216 823.110168,776.209778 806.150757,769.966187
	C799.826355,767.637939 793.406189,765.256348 788.263306,760.679077
	C784.783325,757.581970 785.220276,755.622925 789.630737,754.164978
	C797.620239,751.523987 805.951416,750.238281 814.235291,749.135193
	C823.732178,747.870605 832.847229,745.339355 842.251709,742.307007
z"/>
<path fill="#000000" opacity="1.000000" stroke="none"
	d="
M581.725830,836.772095
	C594.003479,825.163391 605.723145,813.463989 618.127502,802.542419
	C629.476501,792.550049 640.644897,782.245178 653.470032,774.053955
	C661.918457,768.658081 671.312622,766.291931 681.168518,764.919189
	C697.036194,762.709167 712.286926,765.492126 727.266174,770.103516
	C736.123108,772.830139 744.891602,776.127380 752.659546,781.371887
	C754.420288,782.560608 757.093201,783.985413 756.792297,786.522339
	C756.479736,789.156494 753.602783,790.099731 751.451111,790.721863
	C746.664246,792.106018 741.766174,793.409668 736.828552,793.911865
	C721.313538,795.489868 706.192139,798.622620 692.141846,805.485046
	C682.574158,810.158142 673.825439,816.346191 665.561768,823.049194
	C651.760925,834.243530 638.852051,846.450928 625.781982,858.491516
	C610.787903,872.304688 595.887024,886.307861 578.847168,897.749817
	C571.206055,902.880615 562.506104,905.184387 553.859863,905.736084
	C537.050232,906.808716 520.178162,906.623413 504.011414,900.135132
	C496.681824,897.193542 489.515167,894.058594 482.814392,889.924072
	C480.941620,888.768555 478.718140,887.475708 479.009521,884.622559
	C479.305023,881.729004 481.672150,881.325500 483.840240,880.593079
	C492.766113,877.577759 502.203857,877.162170 511.343994,875.165283
	C525.485413,872.075684 538.648987,866.870117 550.983215,859.475891
	C561.844849,852.964539 571.786682,845.159729 581.725830,836.772095
z"/>
<path fill="#000000" opacity="1.000000" stroke="none"
	d="
M1022.655151,891.756409
	C1005.005676,903.515137 985.734192,907.908020 965.276123,905.843384
	C948.388367,904.139160 932.109558,899.531799 917.208130,890.988770
	C914.517151,889.446045 910.985962,887.383911 911.323120,884.397339
	C911.635681,881.629639 915.612122,881.576050 918.400574,880.840759
	C928.132812,878.274414 938.222595,877.896423 947.989380,875.574097
	C966.112549,871.264954 982.261597,862.833191 997.294495,852.135071
	C1006.998352,845.229370 1016.129761,837.597717 1024.983887,829.597717
	C1045.296997,811.243835 1065.086548,792.272034 1086.899292,775.645325
	C1096.304443,768.476379 1106.979248,765.234741 1118.909912,764.873230
	C1136.218384,764.348694 1153.096313,765.975586 1169.391968,772.021057
	C1177.546143,775.046204 1185.481079,778.531982 1192.560425,783.761780
	C1193.805908,784.681885 1195.365723,785.176514 1194.907349,786.921509
	C1194.503662,788.458130 1192.841919,788.664246 1191.452759,788.998779
	C1176.259155,792.658081 1160.779175,794.968323 1145.644409,798.940979
	C1130.321777,802.962830 1116.573364,809.930359 1103.968872,819.461914
	C1092.082642,828.450134 1081.932251,839.292297 1070.985718,849.286987
	C1056.313354,862.683594 1043.269287,877.938538 1026.507324,888.997559
	C1025.294434,889.797852 1024.143921,890.692749 1022.655151,891.756409
z"/>
<path fill="#000000" opacity="1.000000" stroke="none"
	d="
M1094.272583,1034.998901
	C1085.240234,1033.398071 1076.544434,1032.706543 1068.125122,1030.096191
	C1057.673096,1026.855713 1047.544556,1022.926208 1037.848633,1017.910156
	C1035.913452,1016.908997 1033.785767,1015.496094 1033.999390,1012.647156
	C1034.213379,1009.791687 1036.685547,1009.699219 1038.559082,1009.025391
	C1048.206055,1005.555908 1058.366211,1004.352478 1068.417480,1003.121521
	C1087.992676,1000.724121 1105.185425,992.968567 1120.949707,981.543274
	C1135.292114,971.148621 1148.511719,959.446777 1161.348267,947.255066
	C1171.242676,937.857727 1181.345215,928.647217 1191.791626,919.873474
	C1200.129272,912.870911 1207.656128,904.765991 1217.251465,899.381287
	C1226.154907,894.384705 1236.186890,892.778503 1246.114868,892.153687
	C1263.162476,891.080627 1280.014526,892.776978 1296.163696,898.979797
	C1302.788940,901.524475 1309.062744,904.775085 1315.007324,908.610046
	C1316.900757,909.831543 1318.592773,911.604309 1318.007690,914.372986
	C1317.470215,916.916870 1315.265747,916.507263 1313.538086,917.145142
	C1306.604126,919.705505 1299.248169,919.887878 1292.077271,920.904480
	C1270.376953,923.980896 1250.115967,930.307983 1232.447876,943.934570
	C1217.053833,955.807312 1203.037354,969.147522 1188.911255,982.438599
	C1173.086060,997.328491 1156.724854,1011.703979 1138.985718,1024.290527
	C1130.803223,1030.096313 1121.027222,1032.853516 1110.983154,1033.962036
	C1105.594971,1034.556519 1100.209961,1035.515015 1094.272583,1034.998901
z"/>
<path fill="#000000" opacity="1.000000" stroke="none"
	d="
M460.837036,809.984619
	C480.704498,802.716614 497.756744,791.633362 513.485168,778.166016
	C525.644836,767.754333 536.967102,756.462280 548.881042,745.819092
	C562.631409,733.535339 575.798828,720.496094 591.267700,710.239563
	C600.248169,704.285034 610.335144,702.055176 620.899719,700.932373
	C637.864258,699.129395 654.200378,701.818848 670.233948,707.022461
	C678.987244,709.863281 687.054199,714.198730 694.691711,719.304016
	C696.033142,720.200684 697.303467,721.341187 697.021057,723.367188
	C696.720886,725.520935 694.936218,725.524841 693.498657,725.983948
	C684.988770,728.701538 676.087402,729.433594 667.348511,730.935059
	C649.289368,734.037842 632.103027,739.258850 616.380066,749.026917
	C601.361267,758.357544 587.940552,769.600098 574.929871,781.477417
	C565.049072,790.497620 555.401611,799.765442 545.528870,808.779846
	C534.255737,819.072876 523.011475,829.545532 509.407410,836.887329
	C502.337097,840.703064 494.524048,842.309570 486.693817,842.890198
	C465.698975,844.447083 445.455139,841.587769 426.634125,831.320251
	C423.197052,829.445190 420.008728,827.302185 416.965149,824.935974
	C413.801849,822.476685 414.512665,819.601685 418.151917,817.929138
	C424.325317,815.092041 430.811676,814.398010 437.499420,813.872253
	C445.210602,813.266052 453.026917,812.728394 460.837036,809.984619
z"/>
<path fill="#000000" opacity="1.000000" stroke="none"
	d="
M489.758667,680.740723
	C502.452515,669.582947 513.659912,657.167175 527.603210,648.107788
	C536.935242,642.044434 547.276794,638.264771 558.605896,636.884705
	C584.365356,633.746643 607.472046,641.447205 629.845398,652.931152
	C631.414856,653.736694 632.456116,654.956116 633.573547,656.108032
	C636.233521,658.850037 635.692261,661.286804 632.066284,662.373840
	C628.225952,663.525208 624.264099,664.598633 620.291016,664.926575
	C594.302185,667.071716 569.851501,673.555603 548.243469,688.928772
	C537.866455,696.311462 527.923462,704.181824 518.640381,712.880920
	C506.695007,724.074768 495.065063,735.618042 482.856689,746.514954
	C470.766724,757.306091 458.419250,767.930603 443.500519,774.805786
	C432.413574,779.914978 420.983612,781.810364 408.544739,780.223938
	C393.179169,778.264343 378.499817,774.602966 364.618652,767.865356
	C358.923737,765.101257 354.229614,760.780273 348.617523,756.405029
	C359.826538,753.830872 370.335510,751.384705 380.860321,749.008545
	C395.289124,745.750916 409.567383,741.873535 422.913574,735.451721
	C432.958923,730.618164 442.107788,724.122253 450.557343,716.842896
	C463.928162,705.323853 476.966461,693.423645 489.758667,680.740723
z"/>
<path fill="#000000" opacity="1.000000" stroke="none"
	d="
M645.682861,1033.306641
	C638.098999,1032.832764 631.210693,1030.819946 624.836060,1027.828613
	C618.169189,1024.700195 611.040710,1022.145081 605.493713,1016.973938
	C601.637207,1013.378723 602.290344,1010.680420 607.339966,1009.016724
	C615.347229,1006.378540 623.768066,1005.722900 631.982788,1004.102112
	C653.346252,999.886963 672.744812,991.499329 690.125244,978.389160
	C706.981750,965.674255 721.939636,950.864258 737.302307,936.454041
	C750.411804,924.157288 763.363281,911.571289 778.219482,901.241394
	C785.610718,896.102173 794.140137,893.717041 802.692078,893.226990
	C820.716614,892.194214 838.840759,892.400574 856.296570,898.116455
	C865.013794,900.970825 873.159668,905.180969 880.995972,909.971619
	C882.580566,910.940430 884.738281,912.262878 884.565491,913.651062
	C884.331665,915.530334 881.794434,916.063965 879.930603,916.576416
	C871.466492,918.903381 862.727844,919.683472 854.086243,920.949280
	C838.317505,923.259033 823.357910,927.938660 809.598083,935.975952
	C792.487732,945.970337 777.648071,958.878418 763.044434,972.200989
	C753.031677,981.335327 744.007080,991.492432 733.466431,1000.058533
	C721.384827,1009.877136 710.167053,1020.847534 696.266357,1028.228516
	C688.868042,1032.156982 680.659363,1032.912231 672.491272,1034.177490
	C663.529480,1035.565796 654.847778,1034.283691 645.682861,1033.306641
z"/>
<path fill="#000000" opacity="1.000000" stroke="none"
	d="
M816.706909,853.986084
	C806.949097,856.346863 797.343994,856.770508 787.862671,858.085571
	C770.410706,860.506226 754.289917,866.686890 739.756592,876.757141
	C728.617065,884.475830 718.203674,893.075500 708.175720,902.207825
	C698.159058,911.329895 688.441223,920.770630 678.423279,929.872986
	C667.201172,940.069519 656.351807,950.740234 643.568115,959.158325
	C633.131897,966.030701 621.752625,968.930359 609.453918,970.144897
	C592.923889,971.777161 577.121338,969.263733 561.619385,963.966675
	C551.903687,960.646790 543.995911,954.279663 535.091919,947.832336
	C544.683228,945.084839 553.586975,943.414246 562.556274,941.979858
	C573.213196,940.275574 583.875549,938.814209 594.158203,935.081787
	C611.315247,928.854248 625.920227,918.776489 639.605774,906.998535
	C646.597961,900.980896 653.466919,894.860718 660.110291,888.456909
	C671.658386,877.325378 683.121582,866.076111 695.165771,855.497192
	C707.049561,845.059326 719.223755,834.838318 735.253113,830.914734
	C746.481873,828.166199 757.642639,827.429993 769.200012,828.835327
	C785.114746,830.770508 799.731079,836.261841 814.020691,843.027649
	C815.464050,843.711121 816.836182,844.623474 818.086121,845.623596
	C823.928650,850.297974 823.899048,850.409668 816.706909,853.986084
z"/>
<path fill="#000000" opacity="1.000000" stroke="none"
	d="
M1172.997314,830.975647
	C1183.698486,827.313965 1194.269653,826.959534 1204.794189,829.118408
	C1214.101807,831.027771 1223.582886,832.117981 1232.706177,834.967957
	C1241.020874,837.565125 1249.017578,840.805481 1256.205933,845.778992
	C1257.899048,846.950378 1259.867310,848.672058 1259.513428,850.754517
	C1259.177490,852.731262 1256.592285,853.094543 1254.796997,853.641907
	C1246.212646,856.259277 1237.269165,856.940979 1228.429199,857.894470
	C1217.423584,859.081665 1206.847900,861.617310 1196.756836,866.052246
	C1178.934937,873.884766 1163.762329,885.631836 1149.139648,898.271057
	C1135.443970,910.108826 1122.368408,922.626709 1108.767334,934.548462
	C1098.116455,943.884399 1087.698975,953.562439 1075.945679,961.601257
	C1069.079956,966.297058 1061.392212,968.006653 1053.302612,969.119995
	C1046.698486,970.028931 1040.123779,970.178772 1033.541748,969.947998
	C1012.631897,969.214966 993.131653,963.734497 975.647400,951.931946
	C974.342285,951.050964 972.489868,950.028564 973.107117,948.080383
	C973.626221,946.442139 975.496216,946.394531 977.034973,945.956360
	C990.270081,942.187805 1004.126160,941.745972 1017.414917,938.100769
	C1035.506470,933.138123 1051.746094,924.671265 1066.779785,913.688904
	C1078.963745,904.788452 1090.316895,894.926392 1101.188599,884.438660
	C1111.368652,874.618164 1121.924683,865.162476 1132.664795,855.954163
	C1144.678467,845.653992 1156.764404,835.297119 1172.997314,830.975647
z"/>
<path fill="#000000" opacity="1.000000" stroke="none"
	d="
M1319.277344,772.282959
	C1307.075195,779.337463 1294.086060,781.007751 1280.739990,779.920349
	C1266.851807,778.788696 1253.591064,774.950317 1240.774902,769.420898
	C1234.832031,766.856873 1229.232422,763.878601 1223.977051,760.093506
	C1222.162842,758.786865 1221.292969,757.201904 1221.101196,755.377014
	C1220.850586,752.994446 1223.375854,752.673218 1224.854492,752.182800
	C1226.786499,751.542175 1228.790161,750.963562 1230.993042,750.922119
	C1253.463867,750.499634 1274.590332,744.171387 1294.995850,735.380249
	C1305.481812,730.862610 1314.230347,723.449524 1322.634399,715.811523
	C1335.608643,704.020020 1348.133057,691.741455 1360.938965,679.775208
	C1372.858032,668.637756 1384.615967,657.154236 1398.384766,648.221191
	C1411.566772,639.669006 1426.031006,634.484741 1441.900391,634.024597
	C1458.370605,633.547058 1465.859619,648.057129 1464.943359,660.228455
	C1464.709595,663.334717 1462.524292,665.325195 1459.958252,667.042175
	C1452.976685,671.713501 1445.369019,675.190369 1437.944092,679.031494
	C1426.129517,685.143311 1415.495972,693.007812 1405.144287,701.313110
	C1390.017456,713.449524 1375.852417,726.644043 1361.562866,739.732544
	C1349.585205,750.703613 1337.336670,761.477173 1323.410034,770.058838
	C1322.188721,770.811462 1320.855835,771.383362 1319.277344,772.282959
z"/>
<path fill="#000000" opacity="1.000000" stroke="none"
	d="
M428.616638,919.732544
	C414.262604,921.612732 400.680145,924.883118 387.533447,929.889343
	C369.166199,936.883423 353.397949,947.935425 338.627380,960.727844
	C329.635986,968.514954 321.197845,976.857666 312.451050,984.881348
	C297.544006,998.556030 283.255859,1013.006104 265.838043,1023.720154
	C254.630737,1030.614014 242.949860,1035.514404 229.457245,1035.042725
	C221.855179,1034.776978 218.377625,1032.447021 215.992188,1025.130127
	C214.951462,1021.937744 213.790054,1018.765564 213.034332,1015.502930
	C210.677948,1005.329834 212.003448,1001.802124 220.913773,997.069519
	C233.865311,990.190430 246.841919,983.398987 258.195099,973.973083
	C265.234924,968.128357 272.382690,962.395325 279.158722,956.255371
	C289.803864,946.609375 299.956665,936.413269 310.728149,926.915344
	C320.731049,918.095093 330.377808,908.759521 341.797882,901.685730
	C357.186707,892.153748 374.009613,891.358276 391.582733,892.658936
	C412.338593,894.195374 430.294495,902.912598 448.279053,912.023682
	C448.989594,912.383606 449.713226,912.870667 450.468994,912.954773
	C451.808319,913.103882 452.926392,913.760620 452.846558,914.974182
	C452.727966,916.777161 451.055023,915.810669 450.068176,915.980164
	C443.050476,917.184875 436.023376,918.334961 428.616638,919.732544
z"/>
<path fill="#000000" opacity="1.000000" stroke="none"
	d="
M1472.262451,755.242920
	C1463.765503,766.044006 1454.674683,775.755554 1444.333862,784.281799
	C1442.286987,785.969482 1440.545410,788.023804 1438.624512,789.868958
	C1423.377075,804.514709 1408.298340,819.410095 1390.428833,830.915039
	C1381.485840,836.672729 1371.718750,840.441467 1360.938232,842.154785
	C1335.556519,846.188599 1312.798706,839.092163 1290.855957,827.419678
	C1288.600586,826.219971 1286.116821,825.456482 1283.819336,824.327271
	C1281.565186,823.219360 1279.015503,822.553467 1277.201782,820.589783
	C1287.031494,817.360840 1297.017334,815.426392 1306.973145,814.278259
	C1316.515137,813.177795 1325.965820,812.371338 1335.054565,809.037048
	C1351.100952,803.150208 1365.210205,793.992615 1378.775757,783.784668
	C1394.173950,772.197632 1407.013550,757.914062 1420.892700,744.715027
	C1436.231689,730.127502 1452.740479,716.974121 1471.138062,706.324829
	C1473.170532,705.148315 1474.186157,705.664795 1474.816772,707.536438
	C1477.489014,715.467712 1480.189697,723.506165 1480.829224,731.819397
	C1481.496216,740.487732 1477.924683,748.199951 1472.262451,755.242920
z"/>
<path fill="#000000" opacity="1.000000" stroke="none"
	d="
M308.014130,874.998535
	C296.731506,882.061890 286.500854,890.013611 276.461487,898.203857
	C270.874725,902.761658 265.438751,907.519897 260.133820,912.404053
	C249.685898,922.023071 239.484695,931.911804 228.966217,941.451721
	C223.419144,946.482849 217.863953,951.747803 211.518265,955.598511
	C202.082260,961.324463 198.734543,958.290527 196.071655,946.641174
	C194.741257,940.820984 193.482788,934.888367 193.180542,928.956299
	C192.885498,923.165710 195.403732,918.124512 199.604691,913.801208
	C214.505844,898.465881 230.272659,884.034729 246.043777,869.635437
	C257.818634,858.884705 269.811707,848.301636 283.108124,839.344849
	C292.110474,833.280823 301.694885,829.880310 312.711456,828.763306
	C332.601593,826.746460 350.771820,832.172058 368.849182,838.998779
	C373.505066,840.757019 378.156036,842.530396 382.174377,845.627930
	C386.266052,848.781921 386.050079,851.199585 381.306519,853.247986
	C375.587921,855.717346 369.426575,856.457703 363.363770,856.902588
	C344.181976,858.310303 326.460297,864.090881 309.877197,873.642822
	C309.314026,873.967224 308.881775,874.519104 308.014130,874.998535
z"/>
<path fill="#000000" opacity="1.000000" stroke="none"
	d="
M1368.930420,876.998718
	C1380.303345,874.336426 1391.276489,871.822937 1402.164062,868.981995
	C1421.316162,863.984558 1437.170532,853.425232 1450.988037,839.522034
	C1460.889038,829.559387 1470.689819,819.487305 1481.742676,810.753479
	C1485.102051,808.098999 1486.412842,808.490173 1486.968506,812.674622
	C1488.531250,824.439514 1489.877686,836.313721 1488.769043,848.113525
	C1488.163940,854.554688 1488.694824,861.275696 1485.238037,867.544128
	C1481.585327,874.167603 1476.006226,878.826111 1470.674805,883.553406
	C1460.746338,892.356995 1449.390869,899.097229 1436.523193,903.014343
	C1416.514160,909.105286 1396.806519,907.764648 1377.350708,900.708923
	C1365.561035,896.433228 1354.599243,890.312134 1343.246216,885.062073
	C1342.299438,884.624207 1341.174683,884.241089 1341.408569,883.229553
	C1341.613770,882.342957 1342.787720,882.148438 1343.842163,881.947449
	C1352.073975,880.378113 1360.278931,878.667175 1368.930420,876.998718
z"/>
<path fill="#000000" opacity="1.000000" stroke="none"
	d="
M197.335236,789.241089
	C204.960907,783.211060 212.374039,777.590271 220.422226,772.680542
	C228.442215,767.788147 236.737717,765.595459 245.981903,764.865906
	C263.432495,763.488708 280.114990,766.639038 296.478027,772.062195
	C306.871368,775.506897 316.201508,781.372742 326.085144,785.990417
	C326.899261,786.370789 327.853638,786.988464 327.662994,787.651001
	C327.417206,788.505188 326.412415,788.865601 325.315979,789.046631
	C313.680420,790.966980 302.061554,792.989258 290.441376,795.002258
	C269.287048,798.666870 249.345642,805.593384 232.079422,818.601929
	C222.931000,825.494507 214.368408,833.205688 206.159744,841.268799
	C200.583893,846.745728 194.667450,851.875977 188.000000,857.989563
	C188.000000,850.444031 187.828613,844.044861 188.038010,837.658203
	C188.400772,826.593018 187.215210,815.520447 188.872910,804.440735
	C189.802414,798.228027 192.765640,793.599609 197.335236,789.241089
z"/>
<path fill="#000000" opacity="1.000000" stroke="none"
	d="
M1444.733398,967.310059
	C1431.033203,963.416992 1419.216675,956.360535 1406.124878,950.116943
	C1411.599854,946.874451 1417.104614,946.458557 1422.207642,945.136963
	C1436.341064,941.476685 1450.590576,938.241516 1464.864746,935.165833
	C1468.201416,934.446899 1471.830444,934.835083 1475.301392,935.067078
	C1478.064697,935.251770 1479.366455,937.215027 1478.967041,939.885071
	C1477.682129,948.474182 1475.737061,956.962341 1471.629517,964.640564
	C1468.778687,969.969299 1460.837280,971.659729 1452.979126,969.533630
	C1450.354126,968.823303 1447.698853,968.224121 1444.733398,967.310059
z"/>
<path fill="#000000" opacity="1.000000" stroke="none"
	d="
M207.591812,701.258179
	C229.041229,703.756653 247.460739,713.018066 265.580505,723.032410
	C264.132660,725.892029 261.379028,724.618164 259.284393,725.268188
	C256.988678,725.980713 254.627670,726.510742 252.267853,726.984436
	C240.586578,729.329346 228.968094,732.173523 217.180664,733.729248
	C210.709763,734.583252 204.061508,736.403870 197.279922,734.126892
	C193.694916,732.923279 192.571960,731.284729 193.621521,727.840759
	C195.189621,722.695251 196.153122,717.495911 196.053574,712.046204
	C195.867615,701.867126 196.960114,700.920959 207.591812,701.258179
z"/>
</svg>