<?xml version="1.0" encoding="UTF-8"?>
<svg version="1.1" xmlns="http://www.w3.org/2000/svg" width="400" height="400">
<path d="M0 0 C132 0 264 0 400 0 C400 91.41 400 182.82 400 400 C268 400 136 400 0 400 C0 185.59 0 94.18 0 0 Z " fill="#03273D" transform="translate(0,0)"/>
<path d="M0 0 C20.79 0 41.58 0 63 0 C63 53.79 63 107.58 63 163 C46.69481163 157.17671844 46.69481163 157.17671844 40.8125 154.375 C40.18537109 154.08882812 39.55824219 153.80265625 38.91210938 153.5078125 C35.76487904 152.02992419 33.15700123 150.75258051 31 148 C30.63085651 145.80362415 30.63085651 145.80362415 30.63923645 143.19746399 C30.63511246 142.20888397 30.63098846 141.22030396 30.6267395 140.20176697 C30.63752533 139.11851639 30.64831116 138.03526581 30.65942383 136.91918945 C30.65876671 135.2067807 30.65876671 135.2067807 30.65809631 133.45977783 C30.66019029 129.67743975 30.68355073 125.89554212 30.70703125 122.11328125 C30.71262502 119.49440249 30.71689615 116.87552059 30.71989441 114.25663757 C30.72922151 108.0624086 30.75384416 101.86833832 30.78394288 95.67417926 C30.81746629 88.62227111 30.83396769 81.57035542 30.84902918 74.51838744 C30.88039325 60.01216476 30.93541356 45.50611391 31 31 C20.77 31 10.54 31 0 31 C0 20.77 0 10.54 0 0 Z " fill="#FAFCFC" transform="translate(208,57)"/>
<path d="M0 0 C20.79 0 41.58 0 63 0 C63 38.28 63 76.56 63 116 C56.67590677 113.89196892 50.79705978 111.27934933 44.75 108.5 C43.64914063 108.00113281 42.54828125 107.50226563 41.4140625 106.98828125 C40.36476562 106.50746094 39.31546875 106.02664062 38.234375 105.53125 C37.27756836 105.09361328 36.32076172 104.65597656 35.33496094 104.20507812 C33 103 33 103 31 101 C30.75949097 98.10202026 30.75949097 98.10202026 30.77294922 94.34716797 C30.77265717 93.66412598 30.77236511 92.98108398 30.77206421 92.27734375 C30.77345961 90.01549659 30.78903033 87.75397724 30.8046875 85.4921875 C30.80841689 83.92563049 30.81126421 82.35907116 30.81326294 80.79251099 C30.82090524 76.66605203 30.84055876 72.53973349 30.8626709 68.41333008 C30.88671023 63.4640849 30.89590748 58.51479281 30.90757751 53.56550598 C30.92698291 46.04357294 30.96530111 38.52194811 31 31 C20.77 31 10.54 31 0 31 C0 20.77 0 10.54 0 0 Z " fill="#FBFCFC" transform="translate(161,104)"/>
<path d="M0 0 C8.06652174 -0.02312737 16.13302972 -0.04091709 24.19957638 -0.05181217 C27.94483037 -0.05704014 31.69006176 -0.06413622 35.43530273 -0.07543945 C39.04681687 -0.08627141 42.65830921 -0.09227749 46.26983833 -0.09487724 C47.65060329 -0.09673094 49.031367 -0.10035049 50.41212273 -0.10573006 C52.33975952 -0.11294447 54.26741807 -0.11340809 56.19506836 -0.11352539 C57.29427109 -0.115746 58.39347382 -0.11796661 59.52598572 -0.12025452 C62 0 62 0 63 1 C63.0942174 3.11681317 63.11742761 5.23680758 63.11352539 7.35571289 C63.11367142 8.01910172 63.11381744 8.68249054 63.1139679 9.36598206 C63.11326881 11.56823956 63.10547665 13.77041345 63.09765625 15.97265625 C63.09579206 17.49580336 63.09436816 19.01895107 63.09336853 20.542099 C63.08954346 24.55837651 63.07971328 28.57461808 63.06866455 32.59088135 C63.05845019 36.68623366 63.05387086 40.78159176 63.04882812 44.87695312 C63.038091 52.91798528 63.02101472 60.95898817 63 69 C59.00468265 68.48833061 55.25333151 67.92012852 51.44848633 66.58886719 C50.62685501 66.3047699 49.80522369 66.02067261 48.95869446 65.72796631 C48.0918956 65.42070618 47.22509674 65.11344604 46.33203125 64.796875 C45.41596603 64.47720764 44.49990082 64.15754028 43.55607605 63.82818604 C41.62281735 63.152029 39.69064932 62.47274639 37.75952148 61.79052734 C34.8416385 60.76028815 31.92021455 59.74066996 28.99804688 58.72265625 C2.42259712 49.42259712 2.42259712 49.42259712 0 47 C-0.09304018 45.52645652 -0.11746265 44.04849409 -0.11352539 42.57202148 C-0.11344986 41.63112167 -0.11337433 40.69022186 -0.11329651 39.72080994 C-0.10813522 38.69790359 -0.10297394 37.67499725 -0.09765625 36.62109375 C-0.0962413 35.57929459 -0.09482635 34.53749542 -0.09336853 33.46412659 C-0.0877508 30.12188906 -0.0751953 26.77971743 -0.0625 23.4375 C-0.05748728 21.17773534 -0.05292398 18.91796963 -0.04882812 16.65820312 C-0.03777561 11.10544609 -0.02102024 5.55272775 0 0 Z " fill="#FBFCFC" transform="translate(114,150)"/>
<path d="M0 0 C2.97 0.99 5.94 1.98 9 3 C8.01 3.495 8.01 3.495 7 4 C6.67 4.66 6.34 5.32 6 6 C3.5625 5.25 3.5625 5.25 1 4 C0.67 2.68 0.34 1.36 0 0 Z " fill="#102F42" transform="translate(263,217)"/>
</svg>
