<svg width="250" height="250" viewBox="0 0 80 28" fill="none" xmlns="http://www.w3.org/2000/svg">
<path d="M3.93736 15.1128C4.16014 15.6289 4.31472 16.1495 4.59205 16.5918C5.16338 17.5133 6.06811 17.9572 7.07892 18.1922C8.70654 18.5715 10.3326 18.5854 11.9284 18.0586C12.287 17.9377 12.6226 17.7559 12.9211 17.521C13.9819 16.6809 13.9364 15.2603 12.8316 14.4739C12.086 13.944 11.2207 13.706 10.3569 13.4649C8.63076 12.9903 6.89404 12.5541 5.18611 12.0242C4.06502 11.6663 3.02255 11.0927 2.11577 10.3348C-0.62571 8.09247 -0.612066 3.23305 3.10537 1.21648C4.44505 0.490029 5.88323 0.149073 7.37899 0.0431C9.67947 -0.1197 11.9254 0.132177 13.9955 1.23645C16.1172 2.3699 17.275 4.15456 17.3129 6.62727C17.3129 6.95901 17.2583 7.10185 16.8855 7.08802C15.6883 7.06191 14.4911 7.07881 13.2635 7.07881C13.2408 6.83768 13.2317 6.61805 13.1969 6.41532C13.0074 5.24194 12.2997 4.48323 11.2374 4.08698C9.56982 3.44591 7.73405 3.41332 6.04538 3.99483C4.86938 4.38954 4.30411 5.27726 4.44202 6.36771C4.47026 6.64368 4.56561 6.90825 4.71954 7.1377C4.87348 7.36714 5.08117 7.55429 5.32402 7.68239C6.04288 8.07356 6.7957 8.39693 7.57297 8.64844C9.37941 9.20441 11.2252 9.63445 13.0286 10.2227C13.934 10.5345 14.799 10.9558 15.6049 11.4775C18.7632 13.4618 18.7086 18.5424 15.4276 20.539C14.1962 21.2713 12.8252 21.7299 11.4056 21.8844C8.99448 22.1915 6.61519 22.0656 4.31623 21.2147C2.56132 20.5651 1.13375 19.493 0.376017 17.6976C0.216311 17.2824 0.0906109 16.8545 0.000183904 16.4183C-0.00172133 16.3596 0.0112034 16.3015 0.0377283 16.2493C0.0642532 16.1972 0.103497 16.1528 0.151731 16.1203C1.38835 15.7702 2.63103 15.44 3.87372 15.1067C3.9116 15.1005 3.951 15.1128 3.93736 15.1128Z" fill="#3B1B67"/>
<path d="M33.6605 16.9148L35.6927 19.6656C35.1245 20.2441 34.4569 20.7125 33.7226 21.0478C30.5644 22.4485 27.4092 22.5192 24.4085 20.6838C22.0065 19.214 20.923 16.8934 20.8775 14.0797C20.8078 10.2401 23.1431 7.13612 26.7696 6.17622C30.778 5.11495 34.841 7.20984 36.1883 11.0326C36.6075 12.2293 36.7119 13.5161 36.4913 14.7662C36.4383 15.0903 36.308 15.1778 35.9973 15.1778C32.5158 15.1686 29.0347 15.1686 25.5542 15.1778H25.0344C25.1409 15.8153 25.4012 16.4162 25.7922 16.9271C26.5499 17.9316 27.5789 18.4369 28.7973 18.5674C29.6201 18.6696 30.4548 18.5948 31.2471 18.3479C32.0393 18.101 32.7713 17.6875 33.3952 17.1345C33.4695 17.0623 33.5483 17.0039 33.6605 16.9148ZM32.4905 12.3334C32.1874 10.4904 30.5568 9.22947 28.6882 9.31087C26.4984 9.40456 25.2905 11.1216 25.1269 12.3334H32.4905Z" fill="#3B1B67"/>
<path d="M63.0986 6.25131H64.3353C65.2309 6.25131 66.1265 6.26359 67.0222 6.25131C67.1439 6.23151 67.2685 6.2596 67.3705 6.32983C67.4725 6.40007 67.5441 6.50713 67.5708 6.62913C68.8316 10.0305 70.1006 13.4304 71.3776 16.8287C71.4201 16.9454 71.467 17.0606 71.5398 17.248C71.5957 17.1484 71.6463 17.0459 71.6913 16.9408C72.9724 13.5189 74.2489 10.095 75.5209 6.66906C75.6376 6.35421 75.7892 6.24363 76.1271 6.24977C77.2622 6.27127 78.4003 6.24977 79.5324 6.25898C79.6672 6.25898 79.8021 6.26974 79.9961 6.27895C79.9264 6.48015 79.8824 6.63527 79.8218 6.78271C78.0169 11.2029 76.2271 15.6276 74.398 20.0371C73.3538 22.5543 71.8505 24.7321 69.5727 26.2818C68.3253 27.1342 66.9189 27.7186 65.44 27.9989C65.3385 28.0189 65.1369 27.9636 65.1142 27.8944C64.6717 26.7303 64.2489 25.56 63.8124 24.362C64.4732 24.1255 65.1051 23.9166 65.7234 23.6739C66.9353 23.2301 68.0506 22.5521 69.0074 21.6773C69.0976 21.6137 69.1609 21.5181 69.1847 21.4095C69.2086 21.3008 69.1913 21.187 69.1363 21.0906C67.1752 16.308 65.2213 11.5223 63.2744 6.73357C63.2229 6.59995 63.179 6.4694 63.0986 6.25131Z" fill="#3B1B67"/>
<path d="M53.3917 18.0573C53.6054 18.0681 53.7387 18.0788 53.8706 18.0788H60.6447C61.1494 18.0788 61.1509 18.0788 61.1509 18.6072C61.1509 19.501 61.1388 20.3949 61.1509 21.2872C61.1585 21.6143 61.0403 21.6973 60.7356 21.6973C56.5853 21.6881 52.4354 21.6881 48.2861 21.6973C47.9936 21.6973 47.8815 21.6174 47.889 21.3072C47.9087 20.6314 47.8769 19.9526 47.9072 19.2783C47.9199 19.0533 48.0026 18.8382 48.1436 18.664C50.5148 15.8995 52.8941 13.139 55.2815 10.3827C55.4012 10.2429 55.5194 10.0986 55.7164 9.86206H55.1739C52.8916 9.86206 50.6078 9.86206 48.3255 9.86206C47.9997 9.86206 47.8815 9.77913 47.889 9.4351C47.9087 8.50284 47.9042 7.57058 47.889 6.63832C47.889 6.34804 47.9663 6.23285 48.274 6.23439C52.4354 6.24258 56.5974 6.24258 60.7599 6.23439C61.063 6.23439 61.1554 6.33422 61.1479 6.63218C61.1312 7.30949 61.163 7.98679 61.1312 8.66256C61.1173 8.89678 61.0314 9.12072 60.8857 9.30301C58.4912 12.1013 56.0892 14.8925 53.6796 17.6764C53.6008 17.7901 53.5205 17.8976 53.3917 18.0573Z" fill="#3B1B67"/>
<path d="M40.1544 10.9891V0.838718C40.1544 0.336497 40.1544 0.334961 40.6469 0.334961H43.6354C44.1537 0.334961 44.1552 0.334962 44.1552 0.84947V19.2351C44.1552 19.9247 44.1431 20.6173 44.1552 21.3023C44.1552 21.6095 44.0719 21.7032 43.7703 21.6986C42.7231 21.6832 41.6759 21.6771 40.6302 21.6986C40.2529 21.7078 40.1362 21.6095 40.1392 21.2117C40.1604 17.8067 40.1544 14.3972 40.1544 10.9891Z" fill="#3B1B67"/>
<path d="M36.5946 0.322266H20.8701V3.94072H36.5946V0.322266Z" fill="#3B1B67"/>
</svg>
