<svg xmlns="http://www.w3.org/2000/svg" xmlns:xlink="http://www.w3.org/1999/xlink" version="1.1" width="1000" height="1000" viewBox="0 0 1000 1000" xml:space="preserve">
<desc>Created with Fabric.js 3.5.0</desc>
<defs>
</defs>
<rect x="0" y="0" width="100%" height="100%" fill="#ffffff"/>
<g transform="matrix(7.3835 0 0 7.3835 500.0001 500.0002)" id="881310">
<path style="stroke: none; stroke-width: 1; stroke-dasharray: none; stroke-linecap: butt; stroke-dashoffset: 0; stroke-linejoin: miter; stroke-miterlimit: 4; is-custom-font: none; font-file-url: none; fill: rgb(22,77,255); fill-rule: nonzero; opacity: 1;" transform=" translate(-55.715, -62.635)" d="m 53.24 73.9 c 0.82 0.47 1.53 0.59 2.47 0.59 c 0.83 0 1.77 -0.23 2.48 -0.59 l 52.51 -30.32 v -8.03 c 0 -2.95 -1.53 -5.66 -4.01 -7.08 l -46.97 -27.01999 c -1.17 -0.699998 -2.59 -1.059995 -4.01 -1.059995 c -1.41 0 -2.71 0.359997 -4.01 1.059995 l -46.95999 27.01999 c -2.48 1.42 -4.010014 4.13 -4.010014 7.08 v 54.16 c 0 2.84 1.530014 5.55 4.010014 6.97 l 46.95999 27.14 c 1.3 0.7 2.6 1.06 4.01 1.06 c 1.42 0 2.84 -0.36 4.01 -1.06 l 46.97 -27.14 c 2.48 -1.42 4.01 -4.13 4.01 -6.97 v -8.02 l -52.51 30.33 c -0.59 0.35 -1.53 0.59 -2.48 0.59 c -0.82 0 -1.65 -0.12 -2.47 -0.59 l -25.02 -14.52 v -12.62 l 25.02 14.39 c 0.82 0.47 1.65 0.71 2.47 0.71 c 0.95 0 1.77 -0.24 2.48 -0.71 l 52.51 -30.32 v -12.75 l -52.51 30.45 c -0.71 0.35 -1.65 0.59 -2.48 0.59 c -0.94 0 -1.65 -0.12 -2.47 -0.59 l -25.02 -14.52 v -12.74 z" stroke-linecap="round"/>
</g>
</svg>