<svg xmlns="http://www.w3.org/2000/svg" width="250" height="250" fill="none"><path fill="#7856FF" d="M40.183 159.712c20.046 0 36.296-16.203 36.296-36.19 0-19.988-16.25-36.19-36.296-36.19s-36.296 16.202-36.296 36.19c0 19.987 16.25 36.19 36.296 36.19Zm108.586-10.941c14.183 0 25.68-11.462 25.68-25.601s-11.497-25.6-25.68-25.6c-14.182 0-25.679 11.461-25.679 25.6 0 14.139 11.497 25.601 25.679 25.601Zm84.704-12.904c6.916 0 12.522-5.59 12.522-12.486 0-6.896-5.606-12.486-12.522-12.486-6.917 0-12.524 5.59-12.524 12.486 0 6.896 5.607 12.486 12.524 12.486Z"/></svg>