<svg xmlns="http://www.w3.org/2000/svg" width="250" height="250" fill="none"><g clip-path="url(#a)"><path fill="#456327" d="m45.234 89.692-5.238 1.374v22.132h5.238V89.692Z"/><path fill="#689E2F" d="m64.31 113.958-19.076-.76V89.692l19.076 1.81v22.456ZM125 28.307v193.386l85.004-40.611V68.432L125 28.308Z"/><path fill="#456327" d="m71.391 68.433-14.178 4.801v37.717h14.178V68.433Z"/><path fill="#689E2F" d="m101.009 72.507-29.618-4.074v42.518h29.618V72.507Z"/><path fill="#456327" d="M45.234 137.384h-5.238v21.905l5.238.906v-22.811Z"/><path fill="#689E2F" d="m64.31 136.705-19.076.679v22.811l19.076-1.358v-22.132Z"/><path fill="#456327" d="m71.391 140.261-14.178-1.455v37.717l14.178 5.044v-41.306Z"/><path fill="#689E2F" d="m101.009 177.315-29.618 4.252v-41.306l29.618-1.455v38.509Z"/><path fill="#B5CC9A" d="m57.213 138.806 29.003-1.422 14.793 1.05-29.618 1.827-14.178-1.455Z"/><path fill="#28381B" d="m57.213 110.951 23.345 1.358h14.065l-2.328-1.358H57.213Z"/><path fill="#456327" d="M89.175 44.894 125 28.307v193.386l-35.825-17.056V44.894Z"/></g><defs><clipPath id="a"><path fill="#fff" d="M28 28h194v194H28z"/></clipPath></defs></svg>