<svg xmlns="http://www.w3.org/2000/svg" width="250" height="250" fill="none"><path fill="#1E1A14" fill-rule="evenodd" d="M105.417 29.42C31.016 47.588 4.641 140.092 58.409 194.29c60.942 61.432 162.329 17.848 162.586-69.89.059-20.23-.249-20.682-14.362-21.089-34.923-1.002-80.58.215-80.58 2.149 0 1.167 14.593 17.684 32.428 36.704 17.836 19.019 32.429 35.615 32.429 36.881 0 13.249-39.172 17.113-61.659 6.081C80.875 161.391 46.454 84.538 72.864 59.233c14.104-13.512 36.735-8.14 87.201 20.694 18.491 10.566 34.333 18.77 35.202 18.233.871-.538-6.209-16.167-15.729-34.735l-17.311-33.754-7.769-1.38c-12.018-2.132-38.145-1.533-49.041 1.129Z" clip-rule="evenodd"/></svg>