<?xml version="1.0" encoding="UTF-8"?>
<svg xmlns="http://www.w3.org/2000/svg" xmlns:xlink="http://www.w3.org/1999/xlink" width="250px" height="250px" viewBox="0 0 250 250" version="1.1">
<g id="surface1">
<path style=" stroke:none;fill-rule:nonzero;fill:rgb(26.666668%,26.666668%,26.666668%);fill-opacity:1;" d="M 13.878906 136.042969 C 10.351562 136.042969 7.976562 134.96875 7.976562 134.96875 L 7.976562 131.902344 C 7.976562 131.902344 11.734375 133.050781 13.84375 133.050781 C 15.757812 133.050781 17.714844 132.707031 17.714844 130.367188 C 17.714844 128.566406 16.371094 128.144531 14.722656 127.722656 L 13.191406 127.261719 C 11.195312 126.6875 7.898438 125.84375 7.898438 121.816406 C 7.898438 117.332031 11.542969 116.21875 15.335938 116.21875 C 18.710938 116.21875 20.628906 117.332031 20.628906 117.332031 L 20.628906 120.285156 C 20.628906 120.285156 18.097656 119.132812 15.144531 119.132812 C 12.769531 119.132812 11.273438 119.632812 11.273438 121.664062 C 11.273438 123.429688 12.652344 123.886719 14.300781 124.269531 L 16.144531 124.808594 C 18.328125 125.382812 21.128906 126.648438 21.128906 130.292969 C 21.128906 134.816406 17.867188 136.042969 13.878906 136.042969 M 33.894531 136.042969 C 37.421875 136.042969 42.753906 134.96875 42.753906 126.148438 C 42.753906 117.445312 37.269531 116.257812 33.894531 116.257812 C 30.253906 116.257812 25 117.714844 25 126.148438 C 25 134.855469 30.214844 136.042969 33.894531 136.042969 M 33.894531 118.980469 C 35.851562 118.980469 39.148438 119.515625 39.148438 126.1875 C 39.148438 132.667969 35.621094 133.398438 33.894531 133.398438 C 32.398438 133.398438 28.644531 132.859375 28.644531 126.1875 C 28.644531 119.554688 31.941406 118.980469 33.894531 118.980469 M 47.394531 135.699219 L 50.957031 135.699219 L 50.957031 110.390625 L 47.394531 110.390625 Z M 71.816406 135.699219 L 71.816406 122.8125 C 71.816406 117.828125 68.980469 116.257812 64.761719 116.257812 C 60.851562 116.257812 57.59375 117.601562 57.59375 117.601562 L 57.59375 120.515625 C 57.59375 120.515625 61.195312 119.171875 64.226562 119.171875 C 66.71875 119.171875 68.175781 119.746094 68.175781 122.238281 L 68.175781 123.886719 L 64.035156 123.886719 C 60.964844 123.886719 56.019531 124.886719 56.019531 130.175781 C 56.019531 135.007812 59.203125 136.042969 62.117188 136.042969 C 66.144531 136.042969 68.328125 133.207031 68.328125 133.207031 L 68.671875 135.699219 Z M 68.25 130.75 C 68.25 130.75 65.683594 133.242188 63.074219 133.242188 C 61.195312 133.242188 59.664062 132.515625 59.664062 130.0625 C 59.664062 126.957031 61.578125 126.113281 64.839844 126.074219 L 68.25 126.035156 Z M 84.816406 119.515625 C 86.617188 119.515625 87.808594 120.054688 87.808594 120.054688 L 87.808594 116.792969 C 87.808594 116.792969 87.039062 116.257812 85.238281 116.257812 C 81.980469 116.257812 80.789062 119.25 80.789062 119.25 L 80.292969 116.640625 L 77.453125 116.640625 L 77.453125 135.660156 L 81.019531 135.660156 L 81.019531 121.777344 C 81.019531 121.816406 82.667969 119.515625 84.816406 119.515625 M 121.164062 116.640625 L 117.140625 116.640625 L 114.839844 127.570312 C 114.226562 130.40625 113.648438 134.050781 113.648438 134.050781 C 113.648438 134.050781 112.84375 130.0625 112.117188 127.570312 L 108.855469 116.640625 L 103.679688 116.640625 L 100.421875 127.570312 C 99.65625 130.101562 98.925781 134.050781 98.925781 134.050781 C 98.925781 134.050781 98.3125 130.101562 97.777344 127.570312 L 95.476562 116.640625 L 91.371094 116.640625 L 96.394531 135.660156 L 101.34375 135.660156 L 104.292969 125.5 C 105.0625 122.890625 106.25 118.367188 106.25 118.367188 C 106.25 118.367188 107.398438 122.8125 108.167969 125.535156 L 111.121094 135.660156 L 116.105469 135.660156 Z M 125.613281 135.699219 L 129.179688 135.699219 L 129.179688 116.5625 L 125.613281 116.5625 Z M 151.726562 135.699219 L 151.726562 122.699219 C 151.726562 117.828125 149.078125 116.296875 145.515625 116.296875 C 141.449219 116.296875 138.304688 119.363281 138.304688 119.363281 L 137.578125 116.679688 L 134.816406 116.679688 L 134.816406 135.699219 L 138.382812 135.699219 L 138.382812 121.777344 C 138.382812 121.777344 141.488281 119.363281 144.671875 119.363281 C 147.125 119.363281 148.082031 120.246094 148.082031 122.621094 L 148.082031 135.660156 L 151.6875 135.660156 Z M 173.160156 135.699219 L 173.160156 110.390625 L 169.59375 110.390625 L 169.59375 118.25 C 169.59375 118.25 167.984375 116.335938 164.570312 116.335938 C 162.039062 116.335938 155.980469 117.523438 155.980469 126.226562 C 155.980469 134.738281 160.890625 136.082031 163.878906 136.082031 C 168.019531 136.082031 170.015625 133.320312 170.015625 133.320312 L 170.398438 135.734375 L 173.160156 135.734375 Z M 169.59375 131.019531 C 169.59375 131.019531 167.140625 133.207031 164.570312 133.207031 C 162.347656 133.207031 159.546875 132.4375 159.546875 126.148438 C 159.546875 120.207031 162.308594 119.171875 164.953125 119.171875 C 167.601562 119.171875 169.632812 121.050781 169.632812 121.050781 L 169.632812 131.019531 Z M 184.203125 136.042969 C 188.191406 136.042969 191.449219 134.855469 191.449219 130.253906 C 191.449219 126.6875 188.648438 125.382812 186.464844 124.769531 L 184.625 124.234375 C 182.976562 123.773438 181.59375 123.390625 181.59375 121.625 C 181.59375 119.59375 183.089844 119.09375 185.46875 119.09375 C 188.421875 119.09375 190.949219 120.246094 190.949219 120.246094 L 190.949219 117.292969 C 190.949219 117.292969 189.035156 116.179688 185.660156 116.179688 C 181.863281 116.179688 178.222656 117.253906 178.222656 121.777344 C 178.222656 125.804688 181.519531 126.648438 183.511719 127.222656 L 185.046875 127.683594 C 186.695312 128.183594 188.035156 128.566406 188.035156 130.328125 C 188.035156 132.667969 186.15625 133.015625 184.164062 133.015625 C 182.015625 133.015625 178.296875 131.863281 178.296875 131.863281 L 178.296875 134.929688 C 178.257812 134.96875 180.675781 136.042969 184.203125 136.042969 "/>
<path style=" stroke:none;fill-rule:nonzero;fill:rgb(97.647059%,61.56863%,10.980392%);fill-opacity:1;" d="M 208.167969 105.0625 C 205.597656 105.789062 202.992188 106.363281 200.421875 107.171875 C 195.207031 102.453125 188.574219 99.386719 181.210938 98.582031 C 186.964844 94.480469 199.5 86.886719 217.523438 86.847656 L 212.960938 90.949219 C 212.960938 90.949219 231.902344 90.261719 236.695312 83.742188 C 236.65625 84.355469 236.234375 85.160156 236.042969 85.699219 C 234.664062 89.722656 232.207031 92.945312 229.140625 95.4375 C 226.148438 97.890625 222.738281 99.617188 219.285156 101.035156 C 215.796875 102.53125 212.230469 103.949219 208.589844 104.945312 C 208.511719 104.984375 208.359375 105.023438 208.167969 105.0625 M 237.921875 104.410156 C 237.921875 104.410156 220.4375 103.066406 202.261719 108.894531 C 204.679688 111.425781 206.671875 114.300781 208.242188 117.445312 C 217.792969 112.15625 231.058594 105.367188 237.921875 104.410156 M 209.433594 120.207031 C 210.542969 123.042969 211.273438 126.074219 211.617188 129.257812 L 228.257812 112.117188 Z M 218.441406 129.21875 C 219.210938 129.21875 219.9375 128.71875 219.9375 127.761719 C 219.9375 126.800781 219.210938 126.304688 218.441406 126.304688 C 217.675781 126.304688 216.949219 126.800781 216.949219 127.761719 C 216.949219 128.757812 217.675781 129.21875 218.441406 129.21875 M 218.441406 126.6875 C 219.058594 126.6875 219.554688 126.992188 219.554688 127.800781 C 219.554688 128.566406 219.019531 128.910156 218.441406 128.910156 C 217.867188 128.910156 217.332031 128.566406 217.332031 127.800781 C 217.292969 126.992188 217.828125 126.6875 218.441406 126.6875 M 219.058594 128.488281 L 218.941406 128.183594 C 218.902344 128.066406 218.828125 127.953125 218.75 127.875 C 218.902344 127.800781 218.980469 127.722656 218.980469 127.53125 C 218.980469 127.148438 218.671875 127.070312 218.367188 127.070312 L 217.90625 127.070312 L 217.90625 128.527344 L 218.214844 128.527344 L 218.214844 127.953125 L 218.40625 127.953125 C 218.480469 127.992188 218.519531 128.144531 218.558594 128.257812 L 218.636719 128.488281 Z M 218.40625 127.300781 C 218.636719 127.300781 218.671875 127.339844 218.671875 127.492188 C 218.671875 127.644531 218.597656 127.722656 218.289062 127.722656 L 218.289062 127.300781 L 218.40625 127.300781 "/>
<path style=" stroke:none;fill-rule:nonzero;fill:rgb(26.666668%,26.666668%,26.666668%);fill-opacity:1;" d="M 57.976562 158.933594 C 57.976562 160.277344 57.476562 161.273438 56.519531 161.964844 C 55.558594 162.652344 54.179688 163 52.414062 163 C 50.613281 163 49.15625 162.730469 48.082031 162.191406 L 48.082031 159.699219 C 49.65625 160.429688 51.148438 160.773438 52.492188 160.773438 C 54.257812 160.773438 55.136719 160.238281 55.136719 159.164062 C 55.136719 158.855469 55.0625 158.511719 54.871094 158.320312 C 54.679688 158.089844 54.332031 157.820312 53.910156 157.59375 C 53.449219 157.363281 52.835938 157.054688 52.070312 156.75 C 50.5 156.136719 49.464844 155.558594 48.925781 154.945312 C 48.351562 154.332031 48.121094 153.566406 48.121094 152.605469 C 48.121094 151.457031 48.621094 150.574219 49.539062 149.921875 C 50.460938 149.269531 51.765625 148.964844 53.335938 148.964844 C 54.90625 148.964844 56.441406 149.269531 57.820312 149.921875 L 56.902344 152.109375 C 55.445312 151.496094 54.21875 151.226562 53.257812 151.226562 C 51.726562 151.226562 50.996094 151.6875 50.996094 152.53125 C 50.996094 152.992188 51.1875 153.296875 51.609375 153.605469 C 51.992188 153.871094 52.875 154.292969 54.179688 154.792969 C 55.292969 155.253906 56.097656 155.636719 56.59375 155.941406 C 57.132812 156.289062 57.476562 156.710938 57.707031 157.207031 C 57.859375 157.746094 57.976562 158.28125 57.976562 158.933594 Z M 57.976562 158.933594 "/>
<path style=" stroke:none;fill-rule:nonzero;fill:rgb(26.666668%,26.666668%,26.666668%);fill-opacity:1;" d="M 66.832031 163.035156 C 64.722656 163.035156 63.074219 162.421875 61.925781 161.195312 C 60.773438 160.007812 60.160156 158.28125 60.160156 156.136719 C 60.160156 153.910156 60.734375 152.1875 61.808594 150.957031 C 62.882812 149.691406 64.417969 149.078125 66.296875 149.078125 C 68.058594 149.078125 69.480469 149.617188 70.515625 150.691406 C 71.550781 151.765625 72.046875 153.257812 72.046875 155.136719 L 72.046875 156.671875 L 63.074219 156.671875 C 63.113281 158.015625 63.457031 159.011719 64.109375 159.699219 C 64.800781 160.390625 65.722656 160.734375 66.910156 160.734375 C 67.714844 160.734375 68.441406 160.660156 69.132812 160.507812 C 69.824219 160.351562 70.550781 160.121094 71.355469 159.738281 L 71.355469 162.078125 C 70.667969 162.386719 69.9375 162.652344 69.210938 162.808594 C 68.558594 162.960938 67.753906 163.035156 66.832031 163.035156 Z M 66.296875 151.265625 C 65.375 151.265625 64.648438 151.535156 64.109375 152.148438 C 63.535156 152.722656 63.230469 153.566406 63.152344 154.679688 L 69.25 154.679688 C 69.25 153.566406 68.980469 152.722656 68.441406 152.148438 C 67.90625 151.535156 67.214844 151.265625 66.296875 151.265625 Z M 66.296875 151.265625 "/>
<path style=" stroke:none;fill-rule:nonzero;fill:rgb(26.666668%,26.666668%,26.666668%);fill-opacity:1;" d="M 82.015625 149.078125 C 82.59375 149.078125 83.050781 149.117188 83.4375 149.195312 L 83.167969 151.839844 C 82.785156 151.765625 82.324219 151.6875 81.863281 151.6875 C 80.75 151.6875 79.753906 152.03125 79.101562 152.800781 C 78.375 153.566406 78.027344 154.523438 78.027344 155.714844 L 78.027344 162.769531 L 75.152344 162.769531 L 75.152344 149.308594 L 77.414062 149.308594 L 77.761719 151.6875 L 77.914062 151.6875 C 78.375 150.882812 78.949219 150.230469 79.640625 149.769531 C 80.40625 149.269531 81.171875 149.078125 82.015625 149.078125 Z M 82.015625 149.078125 "/>
<path style=" stroke:none;fill-rule:nonzero;fill:rgb(26.666668%,26.666668%,26.666668%);fill-opacity:1;" d="M 88.917969 162.808594 L 83.820312 149.347656 L 86.847656 149.347656 L 89.570312 157.207031 C 90.070312 158.550781 90.335938 159.585938 90.414062 160.390625 L 90.492188 160.390625 C 90.566406 159.777344 90.835938 158.742188 91.335938 157.207031 L 94.058594 149.347656 L 97.125 149.347656 L 91.984375 162.808594 Z M 88.917969 162.808594 "/>
<path style=" stroke:none;fill-rule:nonzero;fill:rgb(26.666668%,26.666668%,26.666668%);fill-opacity:1;" d="M 98.886719 145.742188 C 98.886719 145.207031 99.003906 144.824219 99.269531 144.59375 C 99.539062 144.324219 99.960938 144.210938 100.460938 144.210938 C 100.957031 144.210938 101.34375 144.324219 101.609375 144.59375 C 101.878906 144.863281 101.992188 145.285156 101.992188 145.742188 C 101.992188 146.242188 101.878906 146.625 101.609375 146.894531 C 101.34375 147.164062 100.921875 147.277344 100.460938 147.277344 C 99.921875 147.277344 99.539062 147.164062 99.269531 146.894531 C 99.042969 146.625 98.886719 146.242188 98.886719 145.742188 Z M 101.957031 162.808594 L 99.117188 162.808594 L 99.117188 149.347656 L 101.957031 149.347656 Z M 101.957031 162.808594 "/>
<path style=" stroke:none;fill-rule:nonzero;fill:rgb(26.666668%,26.666668%,26.666668%);fill-opacity:1;" d="M 111.351562 163.035156 C 109.316406 163.035156 107.785156 162.421875 106.671875 161.273438 C 105.636719 160.085938 105.0625 158.359375 105.0625 156.171875 C 105.0625 153.910156 105.636719 152.148438 106.710938 150.957031 C 107.785156 149.769531 109.394531 149.15625 111.542969 149.15625 C 112.960938 149.15625 114.226562 149.425781 115.375 149.960938 L 114.492188 152.261719 C 113.304688 151.765625 112.269531 151.535156 111.464844 151.535156 C 109.125 151.535156 107.976562 153.066406 107.976562 156.171875 C 107.976562 157.707031 108.242188 158.820312 108.855469 159.585938 C 109.433594 160.351562 110.3125 160.699219 111.386719 160.699219 C 112.691406 160.699219 113.878906 160.390625 114.992188 159.738281 L 114.992188 162.230469 C 114.457031 162.5 113.957031 162.769531 113.34375 162.882812 C 112.730469 163 112.15625 163.035156 111.351562 163.035156 Z M 111.351562 163.035156 "/>
<path style=" stroke:none;fill-rule:nonzero;fill:rgb(26.666668%,26.666668%,26.666668%);fill-opacity:1;" d="M 124.003906 163.035156 C 121.894531 163.035156 120.246094 162.421875 119.09375 161.195312 C 117.945312 160.007812 117.332031 158.28125 117.332031 156.136719 C 117.332031 153.910156 117.90625 152.1875 118.980469 150.957031 C 120.054688 149.691406 121.585938 149.078125 123.464844 149.078125 C 125.230469 149.078125 126.648438 149.617188 127.683594 150.691406 C 128.71875 151.765625 129.21875 153.257812 129.21875 155.136719 L 129.21875 156.671875 L 120.246094 156.671875 C 120.285156 158.015625 120.628906 159.011719 121.28125 159.699219 C 121.972656 160.390625 122.890625 160.734375 124.078125 160.734375 C 124.886719 160.734375 125.613281 160.660156 126.304688 160.507812 C 126.992188 160.351562 127.722656 160.121094 128.527344 159.738281 L 128.527344 162.078125 C 127.835938 162.386719 127.109375 162.652344 126.378906 162.808594 C 125.730469 162.960938 124.921875 163.035156 124.003906 163.035156 Z M 123.503906 151.265625 C 122.585938 151.265625 121.855469 151.535156 121.320312 152.148438 C 120.742188 152.722656 120.4375 153.566406 120.359375 154.679688 L 126.457031 154.679688 C 126.457031 153.566406 126.1875 152.722656 125.652344 152.148438 C 125.113281 151.535156 124.425781 151.265625 123.503906 151.265625 Z M 123.503906 151.265625 "/>
<path style=" stroke:none;fill-rule:nonzero;fill:rgb(26.666668%,26.666668%,26.666668%);fill-opacity:1;" d="M 143.289062 163.035156 C 141.601562 163.035156 140.300781 162.421875 139.339844 161.234375 C 138.382812 160.046875 137.921875 158.28125 137.921875 156.097656 C 137.921875 153.910156 138.421875 152.148438 139.378906 150.957031 C 140.335938 149.691406 141.679688 149.117188 143.367188 149.117188 C 145.128906 149.117188 146.511719 149.769531 147.429688 151.074219 L 147.585938 151.074219 C 147.46875 150.113281 147.394531 149.347656 147.394531 148.773438 L 147.394531 143.863281 L 150.308594 143.863281 L 150.308594 162.84375 L 148.007812 162.84375 L 147.507812 161.082031 L 147.394531 161.082031 C 146.433594 162.347656 145.054688 163.035156 143.289062 163.035156 Z M 144.058594 160.699219 C 145.207031 160.699219 146.089844 160.390625 146.625 159.699219 C 147.164062 159.050781 147.429688 157.976562 147.46875 156.480469 L 147.46875 156.097656 C 147.46875 154.410156 147.199219 153.183594 146.625 152.492188 C 146.050781 151.765625 145.207031 151.417969 144.019531 151.417969 C 143.019531 151.417969 142.253906 151.800781 141.679688 152.605469 C 141.105469 153.414062 140.875 154.5625 140.875 156.097656 C 140.875 157.59375 141.144531 158.742188 141.679688 159.507812 C 142.179688 160.351562 142.984375 160.699219 144.058594 160.699219 Z M 144.058594 160.699219 "/>
<path style=" stroke:none;fill-rule:nonzero;fill:rgb(26.666668%,26.666668%,26.666668%);fill-opacity:1;" d="M 160.046875 163.035156 C 157.9375 163.035156 156.289062 162.421875 155.136719 161.195312 C 153.988281 160.007812 153.375 158.28125 153.375 156.136719 C 153.375 153.910156 153.949219 152.1875 155.023438 150.957031 C 156.097656 149.691406 157.628906 149.078125 159.507812 149.078125 C 161.273438 149.078125 162.691406 149.617188 163.726562 150.691406 C 164.761719 151.765625 165.261719 153.257812 165.261719 155.136719 L 165.261719 156.671875 L 156.289062 156.671875 C 156.328125 158.015625 156.671875 159.011719 157.324219 159.699219 C 158.015625 160.390625 158.933594 160.734375 160.121094 160.734375 C 160.929688 160.734375 161.65625 160.660156 162.347656 160.507812 C 163.035156 160.351562 163.765625 160.121094 164.570312 159.738281 L 164.570312 162.078125 C 163.878906 162.386719 163.152344 162.652344 162.421875 162.808594 C 161.769531 162.960938 160.964844 163.035156 160.046875 163.035156 Z M 159.507812 151.265625 C 158.589844 151.265625 157.859375 151.535156 157.324219 152.148438 C 156.75 152.722656 156.441406 153.566406 156.363281 154.679688 L 162.460938 154.679688 C 162.460938 153.566406 162.191406 152.722656 161.65625 152.148438 C 161.15625 151.535156 160.46875 151.265625 159.507812 151.265625 Z M 159.507812 151.265625 "/>
<path style=" stroke:none;fill-rule:nonzero;fill:rgb(26.666668%,26.666668%,26.666668%);fill-opacity:1;" d="M 177.492188 158.933594 C 177.492188 160.277344 176.992188 161.273438 176.035156 161.964844 C 175.078125 162.652344 173.695312 163 171.933594 163 C 170.128906 163 168.671875 162.730469 167.601562 162.191406 L 167.601562 159.699219 C 169.171875 160.429688 170.667969 160.773438 172.007812 160.773438 C 173.773438 160.773438 174.65625 160.238281 174.65625 159.164062 C 174.65625 158.855469 174.578125 158.511719 174.386719 158.320312 C 174.195312 158.089844 173.851562 157.820312 173.429688 157.59375 C 172.96875 157.363281 172.355469 157.054688 171.585938 156.75 C 170.015625 156.136719 168.980469 155.558594 168.441406 154.945312 C 167.867188 154.332031 167.636719 153.566406 167.636719 152.605469 C 167.636719 151.457031 168.136719 150.574219 169.058594 149.921875 C 169.976562 149.269531 171.28125 148.964844 172.851562 148.964844 C 174.425781 148.964844 175.957031 149.269531 177.339844 149.921875 L 176.417969 152.109375 C 174.960938 151.496094 173.734375 151.226562 172.777344 151.226562 C 171.242188 151.226562 170.515625 151.6875 170.515625 152.53125 C 170.515625 152.992188 170.707031 153.296875 171.128906 153.605469 C 171.511719 153.871094 172.394531 154.292969 173.695312 154.792969 C 174.808594 155.253906 175.613281 155.636719 176.113281 155.941406 C 176.648438 156.289062 176.992188 156.710938 177.222656 157.207031 C 177.378906 157.746094 177.492188 158.28125 177.492188 158.933594 Z M 177.492188 158.933594 "/>
<path style=" stroke:none;fill-rule:nonzero;fill:rgb(26.666668%,26.666668%,26.666668%);fill-opacity:1;" d="M 183.207031 155.675781 L 184.816406 153.679688 L 188.878906 149.347656 L 192.179688 149.347656 L 186.734375 155.136719 L 192.484375 162.808594 L 189.109375 162.808594 L 184.777344 156.902344 L 183.207031 158.207031 L 183.207031 162.84375 L 180.367188 162.84375 L 180.367188 143.863281 L 183.207031 143.863281 L 183.207031 153.105469 L 183.050781 155.714844 L 183.207031 155.714844 Z M 183.207031 155.675781 "/>
<path style=" stroke:none;fill-rule:nonzero;fill:rgb(26.666668%,26.666668%,26.666668%);fill-opacity:1;" d="M 194.171875 144.019531 L 193.441406 144.019531 L 193.441406 146.164062 L 193.136719 146.164062 L 193.136719 144.019531 L 192.40625 144.019531 L 192.40625 143.710938 L 194.171875 143.710938 Z M 196.472656 144.25 L 195.78125 146.128906 L 195.550781 146.128906 L 194.863281 144.25 L 194.863281 146.128906 L 194.554688 146.128906 L 194.554688 143.710938 L 194.9375 143.710938 L 195.667969 145.628906 L 196.394531 143.710938 L 196.777344 143.710938 L 196.777344 146.128906 L 196.472656 146.128906 Z M 196.472656 144.25 "/>
</g>
</svg>
