<svg xmlns="http://www.w3.org/2000/svg" width="250" height="250" fill="none"><path fill="#1F2534" fill-rule="evenodd" d="M211.581 49.405c-7.841.767-15.458 4.019-22.101 8.793C172.762 37.852 148.228 25 120.872 25c-50.37 0-91.204 43.55-91.204 97.274 0 3.252.169 6.461.465 9.63-3.156 9.432-2.828 18.503 1.107 20.708.924.517 1.973.613 3.087.348 12.05 38.679 46.232 66.589 86.545 66.589 50.37 0 91.203-43.549 91.203-97.274 0-2.32-.099-4.616-.249-6.893 11.195-6.113 21.168-16.803 25.501-29.971 7.253-22.043-5.801-37.95-25.746-36.006Zm-91.358-13.328c24.266 0 46.008 11.507 60.707 29.674-5.11 5.5-9.103 11.915-11.371 18.505-1.755 5.1-2.417 10.135-2.05 14.77l-46.644 37.182c-1.405-1.909-3.102-3.396-5.043-4.362.648-4.755 1.101-9.798 1.179-14.911.258-16.504-3.594-32.002-15.085-38.149 2.683-10.9-.38-18.648-7.207-17.982-6.352.621-14.019 8.432-18.558 18.182-12.271 5.43-21.166 17.24-26.825 26.272a141.467 141.467 0 0 0-5.26 9.169c-1.212.08-2.513.639-3.841 1.605 2.683-44.637 37.472-79.954 79.998-79.954Zm-8.289 126.261c-2.647 7.549-8.653 11.911-13.185 9.792-4.332-2.027-5.706-9.28-3.24-16.228 2.458-6.93 7.982-11.421 12.492-9.979 4.717 1.511 6.572 8.891 3.933 16.415ZM92.916 82.952c-2.118 5.864-6.627 10.44-9.935 10.195-3.193-.234-4.077-4.903-2.078-10.398 1.997-5.483 6.223-10.028 9.533-10.155 3.425-.128 4.59 4.51 2.48 10.358Zm-57.88 59.381c-2.001-.937-2.156-5.55-.398-10.295 1.753-4.738 4.836-8.052 6.929-7.38 2.157.69 2.465 5.334.621 10.34-1.85 5.02-5.086 8.301-7.151 7.335Zm85.187 64.751c-36.698 0-67.63-26.303-77.144-62.194 1.438-2.303 2.765-5.01 3.871-8.023 2.84-7.733 3.283-14.928 1.67-19.004a113.169 113.169 0 0 1 3.726-6.326c6.106-9.59 12.702-16.367 20.109-19.634-.681 7.177 1.466 12.528 6.184 13.204 5.062.726 11.62-4.042 16.696-11.577 6.177 4.68 9.715 13.811 9.273 28.502-.104 3.429-.421 6.835-.853 10.11-6.779 3.145-13.153 10.77-16.62 20.477-5.123 14.348-2.67 29.809 6.22 34.791 9.794 5.487 23.425-3.672 29.4-20.83 1.798-5.163 2.598-10.195 2.569-14.782l49.5-36.839c3.223 2.947 7.466 4.985 12.702 5.733 4.081.583 8.44.278 12.84-.797.01.563.027 1.12.027 1.685-.002 47.221-35.894 85.504-80.17 85.504Zm95.799-122.038c-3.218 9.637-13.296 16.957-21.975 16.316-8.193-.604-12.113-8.162-9.155-16.845 2.949-8.65 11.869-15.906 20.316-16.224 8.941-.336 14.016 7.155 10.814 16.753Z" clip-rule="evenodd"/></svg>