<svg xmlns="http://www.w3.org/2000/svg" viewBox="0.3178 0.0215 41.8633 39.6041" width="250" height="250">
  <g id="Group">
    <path d="M21.2455172,12.7911724 C23.0593103,12.7911724 24.8050575,12.9116322 26.4689655,13.1502529 C26.4772414,12.9410575 26.4818391,12.7327816 26.4818391,12.5268046 C26.4818391,9.63944828 24.1328736,7.29048276 21.2455172,7.29048276 C18.3581609,7.29048276 16.0091954,9.63944828 16.0091954,12.5263448 C16.0091954,12.7327816 16.0137931,12.9410575 16.022069,13.1502529 C17.685977,12.9116322 19.4317241,12.7911724 21.2455172,12.7911724 M17.776092,20.2518621 C18.2183908,21.2730115 18.742069,22.3084138 19.3448276,23.352092 C19.9475862,24.3962299 20.582069,25.3672644 21.2455172,26.2610575 C21.9089655,25.3672644 22.543908,24.3962299 23.1462069,23.3525517 C23.7489655,22.3084138 24.2726437,21.2730115 24.7149425,20.2518621 C23.6091954,20.124046 22.4505747,20.0601379 21.2455172,20.0601379 C20.0404598,20.0601379 18.8818391,20.124046 17.776092,20.2518621 M10.7489655,22.2835862 C10.5632184,22.3810575 10.3811494,22.4812874 10.2022989,22.5842759 C7.70206897,24.027954 6.84229885,27.2366897 8.28597701,29.7373793 C9.2183908,31.3530115 10.9595402,32.3566897 12.8289655,32.3566897 C13.7397701,32.3566897 14.6418391,32.113931 15.4386207,31.6537011 C15.6174713,31.5507126 15.7954023,31.4426667 15.9724138,31.3304828 C14.9337931,30.0091034 13.9567816,28.5576092 13.0496552,26.9865747 C12.1429885,25.416 11.3742529,23.844046 10.7489655,22.2835862 M26.5186207,31.3304828 C26.6956322,31.4426667 26.8735632,31.5507126 27.0524138,31.6537011 C27.8491954,32.113931 28.7517241,32.3566897 29.662069,32.3566897 C31.5314943,32.3566897 33.2726437,31.3530115 34.2050575,29.7373793 C34.9043678,28.5258851 35.0905747,27.1148506 34.7282759,25.764046 C34.3664368,24.4127816 33.4997701,23.2835862 32.2887356,22.5842759 C32.1098851,22.4812874 31.9278161,22.3810575 31.742069,22.2835862 C31.1167816,23.844046 30.3485057,25.416 29.4413793,26.9865747 C28.5347126,28.5576092 27.5577011,30.0091034 26.5186207,31.3304828 M29.662069,39.6256552 C27.4772414,39.6256552 25.3181609,39.0458851 23.417931,37.9488736 C22.6786207,37.5222069 21.9531034,37.0454253 21.2455172,36.5222069 C20.537931,37.0454253 19.8124138,37.5222069 19.0731034,37.9488736 C17.1728736,39.0458851 15.0137931,39.6256552 12.8289655,39.6256552 L12.8285057,39.6256552 C8.37057471,39.6256552 4.21793103,37.2288736 1.9908046,33.3718621 C-1.45701149,27.4003678 0.596321839,19.7369195 6.56781609,16.2895632 C7.30712644,15.8624368 8.08275862,15.4725517 8.88965517,15.1212874 C8.79034483,14.2468046 8.74022989,13.3801379 8.74022989,12.5263448 C8.74068966,5.63117241 14.3503448,0.0215172414 21.2455172,0.0215172414 C28.1406897,0.0215172414 33.7508046,5.63117241 33.7508046,12.5263448 C33.7508046,13.3801379 33.7006897,14.2468046 33.6013793,15.1212874 C34.4082759,15.4725517 35.183908,15.8624368 35.9232184,16.2895632 C38.8156322,17.9594483 40.8850575,20.656 41.7494253,23.8826667 C42.6142529,27.1088736 42.1705747,30.4789885 40.5002299,33.3718621 C38.2731034,37.2293333 34.12,39.6256552 29.662069,39.6256552" id="Fill-377" fill="#00D2FF"/>
    <path d="M24.7142989,20.2527356 C27.3933793,20.5603218 29.7474023,21.2384828 31.7428046,22.2844598 C32.7147586,19.8587126 33.3368276,17.4656092 33.6021149,15.1212414 C31.4393563,14.1791724 29.055908,13.5207816 26.4692414,13.1502069 C26.3772874,15.4007816 25.7874023,17.7787126 24.7142989,20.2527356" id="Fill-378" fill="#20A6D6"/>
    <path d="M26.5196322,31.3312644 C24.6161839,30.1262069 22.852046,28.4264368 21.246069,26.26 C19.640092,28.4264368 17.8754943,30.1262069 15.9725057,31.3312644 C17.5867586,33.385977 19.3481379,35.1211494 21.246069,36.5229885 C23.1435402,35.1211494 24.9053793,33.385977 26.5196322,31.3312644" id="Fill-379" fill="#20A6D6"/>
    <path d="M17.7776092,20.2527816 C16.7045057,17.7787586 16.1146207,15.4008276 16.0226667,13.1502529 C13.4364598,13.5208276 11.0525517,14.1787586 8.8897931,15.1212874 C9.15508046,17.4656552 9.77714943,19.8587586 10.7491034,22.2845057 C12.7445057,21.2385287 15.0985287,20.5603678 17.7776092,20.2527816" id="Fill-380" fill="#20A6D6"/>
  </g>
</svg>
