<svg xmlns="http://www.w3.org/2000/svg" viewBox="0 0 240 240">
  <defs>
    <linearGradient id="a" x1="120" y1="240" x2="120" y2="0" gradientUnits="userSpaceOnUse">
      <stop offset="0" stop-color="#1d93d2"/>
      <stop offset="1" stop-color="#38b0e3"/>
    </linearGradient>
  </defs>
  <circle cx="120" cy="120" r="120" fill="url(#a)"/>
  <path d="M98 175c-3.9 0-3.2-1.5-4.6-5.2L82 132.2 170.4 80" fill="#c8daea"/>
  <path d="M98 175c3 0 4.3-1.4 6-3l16-15.6-20-12" fill="#a9c9dd"/>
  <path d="M100 144.4l48.4 35.7c5.5 3 9.5 1.5 10.9-5.1l19.7-92.8c2-8.1-3.1-11.7-8.4-9.3L55 117.5c-7.9 3.2-7.8 7.6-1.4 9.5l36.4 11.4 84.4-53.2c4-2.4 7.6-1.1 4.6 1.5" fill="#f6fbfe"/>
</svg>
