<?xml version="1.0" encoding="utf-8"?>
<!-- Generator: Adobe Illustrator 25.0.1, SVG Export Plug-In . SVG Version: 6.00 Build 0)  -->
<svg version="1.0" id="Layer_1" xmlns="http://www.w3.org/2000/svg" xmlns:xlink="http://www.w3.org/1999/xlink" x="0px" y="0px"
	 viewBox="0 0 958 584" style="enable-background:new 0 0 958 584;" xml:space="preserve" height = "250" width = "250">
<style type="text/css">
	.st0{fill:#FBB721;}
	.st1{fill:#E01F26;}
	.st2{fill:#A62B4E;}
	.st3{fill:#F48226;}
	.st4{fill:#3EC2D2;}
	.st5{fill:none;}
</style>
<path class="st0" d="M109.8,181.9h104.8c-0.1,18.9,0.2,37.7-0.1,56.6c-1,18.7,0.4,37.5-0.8,56.2c-34-33.7-67.5-68-101.8-101.4
	c-1.9-1.9-3.5-4.1-4.9-6.4v-2.6C108.8,184.8,109.8,183.9,109.8,181.9 M107,297.5c3.6-3.5,8.8-2.4,13.4-2.5c31.2,0.1,62.4,0,93.6,0
	l0.6,0.5c0,18.8,0,37.5,0,56.2c-18.8,0.1-37.5,0.3-56.3-0.1c-0.2,0-0.6,0-0.8,0c-12.1-12.7-25-24.5-37.3-37.1
	c-4.5-4.7-9.8-8.8-13-14.5L107,297.5L107,297.5z"/>
<path class="st1" d="M214.6,181.9h103.6c5.4,1.8,9.8,6.4,10,12.3c0.4,14.7,0,29.5,0.2,44.2c-38,0-75.9-0.1-113.9,0.1
	C214.9,219.6,214.6,200.8,214.6,181.9L214.6,181.9z"/>
<path class="st2" d="M495.7,218.9c8.4-0.2,16.9-0.1,25.3-0.1c0,47.8,0,95.7,0,143.6c-8.4,0-16.9,0.1-25.3-0.1
	C495.8,314.4,495.8,266.6,495.7,218.9 M398.1,267.8c15.8-12.2,38.3-14.2,56.5-6.3c13.7,5.9,23.3,18.6,28.3,32.4
	c-9.5,0-19.1,0.1-28.6,0c-7.5-14.2-28.1-17-40.3-7.5c-10.3,7.5-14.9,21.8-10.9,34c3.2,10.4,11.8,18.2,22.4,20.5
	c7.9,1.3,16.6-0.1,23.1-5c2.6-1.9,4.2-4.9,6.7-6.8c9.1-0.3,18.3,0,27.4-0.1c-7.5,25.8-36.9,41.8-62.7,35.6
	c-20.2-4.2-37.2-20.9-41.8-41.1C373,303.1,381.2,280.3,398.1,267.8 M580.9,257.4c12-1.7,24.2,0.7,34.6,6.9
	c13.6,8,23.2,21.4,26.2,36.9c2.9,14.9-0.7,30.4-9.8,42.6c-10.4,14.3-28.1,23-45.8,22.3c-20.7-1-39-13.5-47.4-32.5
	c-7-16-6-34.3,2.6-49.4C549.5,269.6,564.2,259.7,580.9,257.4 M580.8,282.4c-10.9,2.7-19.5,12.2-21.6,23.2c-2.7,12,3.3,25,13.6,31.5
	c8.5,5.6,19.4,6.1,28.4,1.5c7.9-4,13.7-11.2,15.9-19.8c2.5-10-0.3-20.5-7.4-28C602.5,283.1,591,279.4,580.8,282.4 M764,269
	c17.8-15.3,45.9-16,64.8-2.2c12.3,8.8,20.3,22.9,22.3,37.8v12c-0.3,1.7-0.6,3.4-0.9,5.2c-27.2,0-54.3,0-81.4,0
	c3.5,11.5,13.7,19.7,25.6,20.6c9.5,1.6,18.5-2.7,26.2-7.9c8.7-1.3,17.6-0.2,26.4-0.5c-9.5,22.9-37.3,36-61.2,30.2
	c-16.5-3.9-30.1-15.2-37-30.7C738.7,311.7,745.3,284,764,269 M788.6,281.2c-9.4,2.9-16.8,10.5-20.3,19.6c19.6,0.1,39.1,0.1,58.7,0
	C822.9,285.1,803.8,275.9,788.6,281.2 M651.6,259.6c28.2,0.1,56.5,0.1,84.7,0c0,7.4,0,14.7,0,22.1c-18.1,19.3-36.2,38.6-54.3,57.9
	c18,0.1,35.9,0,53.9,0c0.2,7.5,0.6,15.1,0.4,22.7h-84.8c0-7.6,0-15.2,0-22.7c18-19.2,35.8-38.6,53.7-57.9c-17.9-0.2-35.8,0-53.7-0.1
	c0-7.3,0-14.6,0-22 M107,353.2c4.6-2.3,9.9-1.6,14.8-1.7c11.8,0.1,23.7-0.1,35.5,0.1c0.2,0,0.6,0,0.8,0v0.6
	c-0.6,13.6-0.2,27.3-0.2,40.9c-0.1,3-0.6,6-1.5,8.9h-4.8c-8.6-7.3-16-15.8-24.1-23.5c-7-6.8-14.3-13.4-20.5-20.9V353.2L107,353.2z"
	/>
<path class="st3" d="M214.5,238.5c38-0.1,75.9,0,113.9-0.1V295H214l-0.3-0.3C214.9,276,213.5,257.3,214.5,238.5 M158.2,351.7
	c18.8,0.5,37.5,0.2,56.3,0.1c0,14.3,0,28.6,0,42.9c0.1,2.6-0.7,5.3-2.3,7.4h-2.6c-2.5-1.3-4.8-3-6.8-5c-14.8-15-29.8-29.8-44.6-44.8
	L158.2,351.7L158.2,351.7z"/>
<path class="st4" d="M214,295h114.3c0,32.8,0,65.5,0,98.3c0.2,3.1-1,6.1-2.3,8.8h-3c-2.5-1.4-4.8-3.2-6.8-5.2
	c-33.7-33.9-67.6-67.7-101.6-101.4L214,295z"/>
<rect x="79" y="155" class="st5" width="800" height="274"/>
</svg>
