<svg xmlns="http://www.w3.org/2000/svg" width="250" height="250" fill="none"><path fill="#57D1E5" d="M87.395 210.731c1.204 6.347-2.707 12.393-9.025 13.904-6.318 1.209-12.334-2.72-13.839-9.068 0 0-21.36-100.656-21.36-121.21 0-42.923 33.996-73.453 81.829-73.453 47.833 0 81.828 30.227 81.828 73.15 0 20.554-21.359 121.211-21.359 121.211-1.204 6.347-7.221 10.579-13.538 9.37-6.318-1.209-10.53-7.254-9.326-13.602"/><path stroke="#3B2D55" stroke-linecap="round" stroke-linejoin="round" stroke-width="1.173" d="M87.395 210.731c1.204 6.347-2.707 12.393-9.025 13.904-6.318 1.209-12.334-2.72-13.839-9.068 0 0-21.36-100.656-21.36-121.21 0-42.923 33.996-73.453 81.829-73.453 47.833 0 81.828 30.227 81.828 73.15 0 20.554-21.359 121.211-21.359 121.211-1.204 6.347-7.221 10.579-13.538 9.37-6.318-1.209-10.53-7.254-9.326-13.602"/><path fill="#57D1E5" d="m180.355 182.015-5.716 32.645c-.903 6.348-6.919 10.882-13.237 9.975-6.318-.907-10.83-6.952-9.928-13.3"/><path fill="#3B2D55" d="m181.559 182.015-2.708 17.229-1.504 8.464-.602 4.534-.902 4.534c-2.106 7.254-9.627 11.184-16.847 9.068-3.008-.907-5.415-2.72-7.22-5.139-1.805-2.72-2.708-6.347-2.106-9.672 0-.907 1.203-1.814 2.106-1.512.902 0 1.805 1.21 1.504 2.116-.602 5.139 2.708 9.673 7.822 10.58 4.813.907 9.928-1.814 11.432-6.65.301-.907.601-2.721.902-3.93l.903-4.231 1.504-8.464 3.309-16.927a1.655 1.655 0 0 1 1.504-.907c.602 0 .903.604.903.907Z"/><path fill="#fff" stroke="#3B2D55" stroke-linejoin="round" stroke-width="1.173" d="M97.323 123.072c20.104 0 36.402-16.375 36.402-36.575 0-20.2-16.298-36.575-36.402-36.575-20.104 0-36.401 16.376-36.401 36.575 0 20.2 16.297 36.575 36.401 36.575Z"/><path fill="#3B2D55" d="M104.844 62.315c-6.318 1.21-7.521 15.114-3.911 19.044 2.406 2.418 7.521 3.325 7.521 5.138 0 1.814-5.115 2.72-7.521 5.139-3.911 3.93-2.407 17.834 3.911 19.043 7.521 1.511 18.953-7.557 18.953-24.182s-11.432-25.693-18.953-24.182Z"/><path fill="#fff" d="M79.875 135.767c1.203 3.93 5.114 9.975 10.228 8.766 2.407-.604 3.911-3.929 3.911-8.766"/><path stroke="#3B2D55" stroke-linecap="round" stroke-linejoin="round" stroke-width=".978" d="M79.875 135.767c1.203 3.93 5.114 9.975 10.228 8.766 2.407-.604 3.911-3.929 3.911-8.766"/><path fill="#fff" d="M112.367 133.349c1.204 5.139 2.407 8.766 6.318 8.766 3.911 0 8.724-5.139 7.521-13.904"/><path stroke="#3B2D55" stroke-linecap="round" stroke-linejoin="round" stroke-width="1.173" d="M112.367 133.349c1.204 5.139 2.407 8.766 6.318 8.766 3.911 0 8.724-5.139 7.521-13.904"/><path fill="#3B2D55" d="M72.351 133.047c24.368 3.627 49.037-2.418 69.193-16.323.903-.302 2.106 0 2.407.907.301.605.301 1.511-.301 2.116-21.059 14.509-46.63 20.252-71.9 16.625-.903-.302-1.204-1.209-.903-2.116.602-.907.903-1.209 1.504-1.209Zm72.202-10.58a8.049 8.049 0 0 0-2.439-4.297 7.98 7.98 0 0 0-4.481-2.05c-.902.302-2.106-.303-2.106-1.512-.3-.906.301-2.116 1.505-2.116h1.203c4.813.907 8.424 4.837 9.025 9.673 0 .605-.601 1.209-1.203 1.209-.903.302-1.504-.302-1.504-.907Z"/><path fill="#57D1E5" d="M98.525 211.335c.902 6.348-3.31 12.393-9.928 13.3-6.317.907-12.334-3.325-13.237-9.975l-5.415-32.645"/><path fill="#3B2D55" d="M100.631 211.033c.903 7.557-4.512 14.207-11.733 15.113-6.618.907-12.635-3.325-14.44-9.37l-.902-4.534-1.805-12.696c-1.505-6.045-2.407-11.788-3.31-17.531 0-.605.602-1.209 1.204-1.209.601 0 1.203.302 1.203.906l3.31 16.928 2.707 12.695.902 3.93c1.505 4.836 6.318 7.859 11.432 6.65 4.814-1.21 8.123-5.744 7.521-10.58 0-.907.602-2.116 1.504-2.116 1.204-.302 2.106.605 2.407 1.814Z"/><path fill="#57D1E5" d="M115.372 211.94c.301 6.347-4.512 12.091-11.131 12.393-6.016.302-11.432-4.232-12.033-10.277l-3.61-32.646"/><path fill="#3B2D55" d="M117.478 211.94c.301 7.556-5.415 13.904-12.936 14.206-6.618.303-12.334-3.929-13.838-10.277-.301-1.511-.602-3.023-.602-4.534l-.3-4.232-.903-8.463-1.505-17.23c0-.604.602-1.209 1.204-1.209s1.203.302 1.203.907l3.61 25.693.602 4.232c.3 1.511.3 3.023.602 3.929 1.203 4.837 6.016 8.162 10.83 7.255a10.34 10.34 0 0 0 6.063-3.607 10.427 10.427 0 0 0 2.36-6.67c0-.907.903-1.814 2.106-1.814.602.302 1.204.907 1.504 1.814Z"/><path fill="#57D1E5" d="m161.4 181.108-3.61 32.948c-.602 6.347-6.017 11.184-12.636 10.579-6.317-.604-11.131-6.045-10.529-12.695"/><path fill="#3B2D55" d="m162.904 181.108-1.504 17.23-.903 8.463-.3 4.232c0 1.511-.301 3.023-.602 4.534-.903 3.325-2.708 6.045-5.716 8.161-6.318 4.232-14.44 2.721-18.652-3.627-1.805-2.418-2.407-5.441-2.407-8.464.301-.906 1.204-1.813 2.106-1.511.903 0 1.504.907 1.504 1.814-.3 5.138 3.31 9.37 8.424 10.277 4.813.604 9.627-2.418 10.83-7.255l.602-3.929 1.805-12.695 2.406-17.23c.301-.604.903-1.209 1.505-.907.3 0 .601.303.902.907Z"/><path fill="#57D1E5" d="m137.634 179.899-.903 32.947c0 6.348-5.114 11.789-11.733 11.789-6.317 0-11.732-5.139-11.732-11.789l-.903-32.947"/><path fill="#3B2D55" d="m138.837 180.201-.301 25.391v6.348c0 2.418-.3 4.836-1.504 6.952-3.309 6.65-11.732 9.37-18.351 5.743-3.61-1.814-6.317-5.441-6.919-9.37-.301-1.209-.301-2.419-.301-3.628v-6.347l-.301-25.391c0-.605.602-1.209 1.204-1.209.601 0 1.203.604 1.203 1.209l1.504 31.738c0 .907 0 1.814.301 2.721l.902 2.418c2.708 4.836 8.424 6.65 13.237 3.93 1.805-.907 3.009-2.419 3.911-3.93l.903-2.418c.301-.907.301-1.814.301-2.721l1.504-31.738c0-.605.601-1.209 1.203-1.209 1.203 0 1.504.604 1.504 1.511Z"/></svg>