<?xml version="1.0" encoding="UTF-8"?>
<!DOCTYPE svg PUBLIC "-//W3C//DTD SVG 1.1//EN" "http://www.w3.org/Graphics/SVG/1.1/DTD/svg11.dtd">
<svg xmlns="http://www.w3.org/2000/svg" version="1.1" width="32px" height="32px" style="shape-rendering:geometricPrecision; text-rendering:geometricPrecision; image-rendering:optimizeQuality; fill-rule:evenodd; clip-rule:evenodd" xmlns:xlink="http://www.w3.org/1999/xlink">
<g><path style="opacity:0.936" fill="#c33c79" d="M 15.5,4.5 C 12.3019,5.03562 9.63528,4.36895 7.5,2.5C 9.91275,0.949289 12.5794,0.282622 15.5,0.5C 15.5,1.83333 15.5,3.16667 15.5,4.5 Z"/></g>
<g><path style="opacity:0.913" fill="#cb3d75" d="M 7.5,2.5 C 9.63528,4.36895 12.3019,5.03562 15.5,4.5C 15.5,5.16667 15.5,5.83333 15.5,6.5C 11.5,6.5 7.5,6.5 3.5,6.5C 4.5,4.83333 5.83333,3.5 7.5,2.5 Z"/></g>
<g><path style="opacity:0.953" fill="#d44071" d="M 3.5,6.5 C 7.5,6.5 11.5,6.5 15.5,6.5C 15.8417,7.33825 16.5084,7.67158 17.5,7.5C 17.1788,9.04814 16.1788,9.71481 14.5,9.5C 14.5654,9.06178 14.3988,8.72845 14,8.5C 12.8873,9.30501 11.7206,9.97168 10.5,10.5C 7.72116,10.7214 5.05449,10.388 2.5,9.5C 2.55688,8.39105 2.89022,7.39105 3.5,6.5 Z"/></g>
<g><path style="opacity:0.971" fill="#de446c" d="M 2.5,9.5 C 5.05449,10.388 7.72116,10.7214 10.5,10.5C 9.89022,11.391 9.55688,12.391 9.5,13.5C 6.5,13.5 3.5,13.5 0.5,13.5C 0.988689,12.0048 1.65536,10.6715 2.5,9.5 Z"/></g>
<g><path style="opacity:0.938" fill="#e0436c" d="M 17.5,7.5 C 20.2606,8.59348 21.9272,10.5935 22.5,13.5C 19.7212,13.2786 17.0545,13.612 14.5,14.5C 14.5,12.8333 14.5,11.1667 14.5,9.5C 16.1788,9.71481 17.1788,9.04814 17.5,7.5 Z"/></g>
<g><path style="opacity:0.931" fill="#e94869" d="M 0.5,13.5 C 3.5,13.5 6.5,13.5 9.5,13.5C 8.16667,14.8333 8.16667,16.1667 9.5,17.5C 6.61456,17.1936 3.9479,17.5269 1.5,18.5C 0.548855,17.0813 0.215521,15.4147 0.5,13.5 Z"/></g>
<g><path style="opacity:0.997" fill="#eb4c66" d="M 22.5,13.5 C 23.4483,15.6721 23.115,17.6721 21.5,19.5C 19.1667,19.5 16.8333,19.5 14.5,19.5C 14.5,17.8333 14.5,16.1667 14.5,14.5C 17.0545,13.612 19.7212,13.2786 22.5,13.5 Z"/></g>
<g><path style="opacity:0.908" fill="#ee6569" d="M 9.5,17.5 C 9.73286,19.0618 10.3995,20.3951 11.5,21.5C 8.2869,21.19 5.2869,21.5233 2.5,22.5C 1.56552,21.4324 1.23219,20.099 1.5,18.5C 3.9479,17.5269 6.61456,17.1936 9.5,17.5 Z"/></g>
<g><path style="opacity:0.879" fill="#f0786b" d="M 14.5,19.5 C 16.8333,19.5 19.1667,19.5 21.5,19.5C 20.6082,22.2921 18.6082,23.6254 15.5,23.5C 11.2984,23.1832 7.29841,23.5166 3.5,24.5C 2.66175,24.1583 2.32842,23.4916 2.5,22.5C 5.2869,21.5233 8.2869,21.19 11.5,21.5C 12.4959,21.4142 13.3292,21.7476 14,22.5C 14.4828,21.552 14.6495,20.552 14.5,19.5 Z"/></g>
<g><path style="opacity:0.988" fill="#f19b77" d="M 15.5,23.5 C 15.5,24.8333 15.5,26.1667 15.5,27.5C 12.5,27.5 9.5,27.5 6.5,27.5C 5.16667,26.8333 4.16667,25.8333 3.5,24.5C 7.29841,23.5166 11.2984,23.1832 15.5,23.5 Z"/></g>
<g><path style="opacity:0.976" fill="#f5b77c" d="M 6.5,27.5 C 9.5,27.5 12.5,27.5 15.5,27.5C 15.5,28.8333 15.5,30.1667 15.5,31.5C 14.8333,31.5 14.1667,31.5 13.5,31.5C 10.7823,30.8964 8.44897,29.563 6.5,27.5 Z"/></g>
</svg>
