<?xml version="1.0" encoding="utf-8"?>
<!-- Generator: Adobe Illustrator 25.0.0, SVG Export Plug-In . SVG Version: 6.00 Build 0)  -->
<svg version="1.1" id="Layer_1" xmlns="http://www.w3.org/2000/svg" xmlns:xlink="http://www.w3.org/1999/xlink" x="0px" y="0px"
	 viewBox="0 0 363.6 500" enable-background="new 0 0 363.6 500" xml:space="preserve">
<g>
	<path fill="#00832D" d="M238.6,0l125,125l-62.5,11.4L238.6,125l-11.4-62.5L238.6,0z"/>
	<path fill="#00AC47" d="M238.6,125V0H34.1C15.3,0,0,15.3,0,34.1v431.8C0,484.7,15.3,500,34.1,500h295.5c18.8,0,34.1-15.3,34.1-34.1
		V125H238.6z"/>
	<path fill="#FFFFFF" d="M68.2,193.2V358h227.3V193.2H68.2z M167.6,329.5h-71v-39.8h71V329.5z M167.6,261.4h-71v-39.8h71V261.4z
		 M267,329.5h-71v-39.8h71V329.5z M267,261.4h-71v-39.8h71V261.4z"/>
</g>
</svg>
