<?xml version="1.0" encoding="iso-8859-1"?>
<!-- Generator: Adobe Illustrator 19.0.0, SVG Export Plug-In . SVG Version: 6.00 Build 0)  -->
<svg version="1.1" id="Capa_1" xmlns="http://www.w3.org/2000/svg" xmlns:xlink="http://www.w3.org/1999/xlink" x="0px" y="0px"
	 viewBox="0 0 34.101 34.101" style="enable-background:new 0 0 34.101 34.101;" xml:space="preserve">
<g>
	<g>
		<path d="M11.01,25.03v0.955h-0.02c-0.467-0.726-1.271-1.093-2.116-1.093c-1.598,0-2.92,1.214-2.92,2.841
			c0,1.639,1.292,2.86,2.92,2.86c0.845,0,1.649-0.367,2.116-1.082h0.021v3.146h0.694V25.03H11.01z M8.874,29.968
			c-1.271,0-2.224-0.936-2.224-2.205c0-1.28,0.933-2.246,2.224-2.246c1.233,0,2.176,1.021,2.176,2.234
			C11.05,28.964,10.107,29.968,8.874,29.968z"/>
	</g>
</g>
<g>
	<g>
		<path d="M17.06,25.013l-0.002,2.882c0,0.639-0.089,1.178-0.568,1.639c-0.34,0.319-0.698,0.438-1.157,0.438
			c-1.248,0-1.658-0.828-1.658-1.955v-3.004h-0.697v3.015c0,0.61,0.09,1.269,0.479,1.756c0.449,0.567,1.167,0.817,1.876,0.817
			c0.719,0,1.427-0.309,1.746-0.979h0.02v0.848h0.659v-5.457H17.06z"/>
	</g>
</g>
<g>
	<g>
		<path d="M34.101,27.802c-0.002-1.569-1.263-2.91-2.853-2.91c-1.562,0-2.821,1.312-2.821,2.859c0,1.562,1.262,2.842,2.831,2.842
			c1.202,0,2.272-0.774,2.671-1.908h-0.732c-0.299,0.808-1.112,1.283-1.947,1.283c-1.062,0-2.057-0.896-2.105-1.967h4.945
			C34.09,27.931,34.101,27.87,34.101,27.802z M29.142,27.375c0.17-1.062,1.033-1.857,2.116-1.857c1.095,0,1.944,0.796,2.125,1.857
			H29.142z"/>
	</g>
</g>
<g>
	<g>
		<path d="M2.429,26.071c-1.228-0.285-1.453-0.67-1.453-1.326c0-0.717,0.701-1.322,1.532-1.322c0.85,0,1.539,0.587,1.539,1.314h0.72
			c0-0.559-0.242-1.076-0.68-1.459c-0.424-0.371-0.984-0.576-1.579-0.576c-1.24,0-2.25,0.918-2.25,2.043
			c0,0.57,0.165,1.01,0.504,1.336c0.318,0.306,0.796,0.525,1.504,0.691c1.742,0.402,2.1,0.916,2.101,1.562
			c0,0.862-0.817,1.563-1.82,1.563H2.541c-0.521,0-1.019-0.197-1.366-0.544c-0.294-0.293-0.455-0.67-0.455-1.059H0
			c0,0.582,0.238,1.137,0.667,1.567c0.481,0.479,1.164,0.752,1.874,0.752h0.007c0.672,0,1.305-0.23,1.782-0.652
			c0.487-0.434,0.756-1.012,0.756-1.631C5.083,26.876,3.741,26.371,2.429,26.071z"/>
	</g>
</g>
<g>
	<g>
		<path d="M26.616,25.813v0.002h-0.021V25.03h-0.694v5.434h0.694v-3.18c0-0.971,0.597-1.58,1.55-1.658v-0.734
			C27.44,24.942,26.911,25.119,26.616,25.813z"/>
	</g>
</g>
<g>
	<g>
		<path d="M23.271,1.444h-12.44c-1.71,0-3.11,1.399-3.11,3.109v12.438c0,1.711,1.399,3.109,3.11,3.109h12.438
			c1.711,0,3.108-1.397,3.108-3.109l0.001-12.438C26.378,2.843,24.98,1.444,23.271,1.444z M22.985,15.718
			c0,0.544-0.444,0.99-0.988,0.99h-9.894c-0.544,0-0.989-0.446-0.989-0.99V5.825c0-0.544,0.445-0.988,0.989-0.988h9.894
			c0.543,0,0.988,0.444,0.988,0.988V15.718z"/>
	</g>
</g>
<g>
	<g>
		<path d="M23.819,25.03v0.955h-0.021c-0.466-0.733-1.262-1.093-2.115-1.093c-1.599,0-2.92,1.214-2.92,2.841
			c0,1.639,1.292,2.86,2.92,2.86c0.846,0,1.641-0.367,2.115-1.082h0.021v0.953h0.693V25.03H23.819z M21.682,29.968
			c-1.271,0-2.225-0.936-2.225-2.205c0-1.28,0.934-2.246,2.225-2.246c1.232,0,2.175,1.021,2.175,2.234
			C23.857,28.964,22.914,29.968,21.682,29.968z"/>
	</g>
</g>
<g>
	<g>
		<path d="M19.029,8.228h-3.958c-0.312,0-0.565,0.254-0.565,0.565v3.957c0,0.31,0.253,0.565,0.565,0.565h3.958
			c0.31,0,0.564-0.254,0.564-0.565V8.793C19.593,8.483,19.339,8.228,19.029,8.228z"/>
	</g>
</g>
<g>
</g>
<g>
</g>
<g>
</g>
<g>
</g>
<g>
</g>
<g>
</g>
<g>
</g>
<g>
</g>
<g>
</g>
<g>
</g>
<g>
</g>
<g>
</g>
<g>
</g>
<g>
</g>
<g>
</g>
</svg>
