<svg xmlns="http://www.w3.org/2000/svg" viewBox="0 0 24 24" role="img" aria-label="Google Cloud Datastore"><title>Google Cloud Datastore</title><g><polygon fill="#aecbfa" points="7 6 8 5 2 5 3 6 7 6"/><polygon fill="#669df6" points="7 6 7 10 8 11 8 5 7 6"/><polygon fill="#aecbfa" points="3 6 2 5 2 11 3 10 3 6"/><polygon fill="#4285f4" points="3 10 2 11 8 11 7 10 3 10"/><rect fill="#aecbfa" x="3" y="6" width="4" height="4"/><polygon fill="#4285f4" points="14 6 15 5 9 5 10 6 14 6"/><polygon fill="#aecbfa" points="14 6 14 10 15 11 15 5 14 6"/><polygon fill="#4285f4" points="10 6 9 5 9 11 10 10 10 6"/><polygon fill="#aecbfa" points="10 10 9 11 15 11 14 10 10 10"/><rect fill="#fff" x="10" y="6" width="4" height="4"/><polygon fill="#4285f4" points="21 6 22 5 16 5 17 6 21 6"/><polygon fill="#aecbfa" points="21 6 21 10 22 11 22 5 21 6"/><polygon fill="#4285f4" points="17 6 16 5 16 11 17 10 17 6"/><polygon fill="#aecbfa" points="17 10 16 11 22 11 21 10 17 10"/><rect fill="#fff" x="17" y="6" width="4" height="4"/><polygon fill="#4285f4" points="7 14 8 13 2 13 3 14 7 14"/><polygon fill="#aecbfa" points="7 14 7 18 8 19 8 13 7 14"/><polygon fill="#4285f4" points="3 14 2 13 2 19 3 18 3 14"/><polygon fill="#aecbfa" points="3 18 2 19 8 19 7 18 3 18"/><rect fill="#fff" x="3" y="14" width="4" height="4"/><polygon fill="#aecbfa" points="14 14 15 13 9 13 10 14 14 14"/><polygon fill="#669df6" points="14 14 14 18 15 19 15 13 14 14"/><polygon fill="#aecbfa" points="10 14 9 13 9 19 10 18 10 14"/><polygon fill="#4285f4" points="10 18 9 19 15 19 14 18 10 18"/><rect fill="#aecbfa" x="10" y="14" width="4" height="4"/><polygon fill="#aecbfa" points="21 14 22 13 16 13 17 14 21 14"/><polygon fill="#669df6" points="21 14 21 18 22 19 22 13 21 14"/><polygon fill="#aecbfa" points="17 14 16 13 16 19 17 18 17 14"/><polygon fill="#4285f4" points="17 18 16 19 22 19 21 18 17 18"/><rect fill="#aecbfa" x="17" y="14" width="4" height="4"/></g></svg>
