<svg xmlns="http://www.w3.org/2000/svg" width="250" height="250" fill="none"><path fill="#4285F4" d="M3.15 98.743C3.15 81.82 17.38 68 34.362 68c9.37 0 16.045 3.69 21.08 8.49l-5.914 5.915c-3.572-3.396-8.49-5.973-15.166-5.973-12.356 0-22.018 9.955-22.018 22.311s9.662 22.311 22.018 22.311c8.022 0 12.59-3.221 15.518-6.149 2.4-2.401 3.982-5.856 4.567-10.54H34.362v-8.374h28.283c.293 1.522.469 3.279.469 5.27 0 6.324-1.698 14.112-7.261 19.617-5.388 5.621-12.298 8.608-21.433 8.608-17.04-.059-31.27-13.82-31.27-30.743Z"/><path fill="#DB4437" d="M85.892 89.9c-10.95 0-19.851 8.316-19.851 19.793 0 11.419 8.9 19.793 19.851 19.793 10.95 0 19.851-8.374 19.851-19.793 0-11.477-8.9-19.792-19.85-19.792Zm0 31.739c-5.973 0-11.184-4.919-11.184-12.004 0-7.144 5.153-12.005 11.184-12.005 5.973 0 11.185 4.861 11.185 12.005 0 7.085-5.212 12.004-11.185 12.004Z"/><path fill="#F4B400" d="M129.224 89.9c-10.95 0-19.851 8.316-19.851 19.793 0 11.419 8.901 19.793 19.851 19.793 10.951 0 19.851-8.374 19.851-19.793 0-11.477-8.9-19.792-19.851-19.792Zm0 31.739c-5.973 0-11.184-4.919-11.184-12.004 0-7.144 5.153-12.005 11.184-12.005 6.032 0 11.185 4.861 11.185 12.005 0 7.085-5.212 12.004-11.185 12.004Z"/><path fill="#4285F4" d="M182.398 91.072v3.22h-.293c-1.932-2.342-5.68-4.45-10.423-4.45-9.897 0-18.973 8.667-18.973 19.851 0 11.068 9.076 19.735 18.973 19.735 4.743 0 8.491-2.109 10.423-4.509h.293v2.869c0 7.554-4.041 11.594-10.541 11.594-5.328 0-8.608-3.806-9.954-7.027l-7.554 3.163c2.166 5.27 7.964 11.711 17.567 11.711 10.189 0 18.797-5.973 18.797-20.612V91.072h-8.315Zm-9.955 30.567c-5.973 0-11.009-5.036-11.009-11.946 0-6.968 5.036-12.063 11.009-12.063 5.914 0 10.54 5.095 10.54 12.063.059 6.969-4.626 11.946-10.54 11.946Z"/><path fill="#0F9D58" d="M205.352 70.108h-8.666v58.148h8.666V70.108Z"/><path fill="#DB4437" d="M229.183 121.639c-4.45 0-7.554-2.049-9.603-5.973l26.468-10.95-.878-2.225c-1.64-4.45-6.676-12.59-16.924-12.59-10.189 0-18.68 8.022-18.68 19.792 0 11.068 8.374 19.793 19.617 19.793 9.077 0 14.289-5.563 16.514-8.784l-6.734-4.509c-2.284 3.279-5.329 5.446-9.78 5.446Zm-.644-24.126c3.455 0 6.383 1.698 7.32 4.216l-17.685 7.32c-.234-7.612 5.915-11.536 10.365-11.536Z"/><g fill="#5F6368" clip-path="url(#a)"><path d="M60.892 153.051h3.971l-7.901 29.109h-3.889l-6.37-19.19h-.165l-6.37 19.19h-3.89l-8.231-29.109h3.971l6.246 22.888h.166l6.412-18.985h3.557l6.412 18.985h.165l5.916-22.888Zm3.612 19.148c0-3.062.979-5.596 2.937-7.602 1.986-2.006 4.481-3.009 7.487-3.009 3.006 0 5.488 1.003 7.446 3.009 1.986 2.006 2.979 4.54 2.979 7.602 0 3.09-.993 5.624-2.979 7.603-1.958 2.006-4.44 3.009-7.446 3.008-3.005 0-5.5-1.004-7.487-3.011-1.959-2.005-2.938-4.539-2.937-7.602m3.806 0c0 2.141.634 3.876 1.903 5.204 1.268 1.327 2.84 1.991 4.715 1.991 1.876 0 3.447-.664 4.716-1.991 1.269-1.328 1.903-3.063 1.903-5.204 0-2.114-.634-3.835-1.903-5.163-1.294-1.355-2.866-2.033-4.716-2.033-1.85-.001-3.422.678-4.717 2.035-1.27 1.328-1.904 3.049-1.903 5.163m23.55 9.961h-3.805v-19.921h3.64v3.252h.169c.386-1.057 1.179-1.958 2.379-2.704 1.2-.745 2.379-1.118 3.536-1.117 1.103 0 2.04.162 2.813.487l-1.162 3.62c-.469-.189-1.213-.284-2.233-.284-1.434 0-2.682.569-3.743 1.707-1.062 1.139-1.593 2.466-1.594 3.983v10.977Zm28.321 0h-4.592l-6.329-9.392-3.103 3.009v6.383h-3.805v-29.109h3.805v17.929l8.77-8.741h4.881v.162l-7.901 7.725 8.274 11.871v.163Z"/><path d="M136.645 176.631c0 1.735-.772 3.198-2.317 4.39-1.544 1.192-3.488 1.789-5.832 1.789-2.041 0-3.834-.522-5.378-1.566a8.643 8.643 0 0 1-3.309-4.126l3.392-1.423c.496 1.194 1.22 2.122 2.172 2.785.907.65 2.001.999 3.123.996 1.214 0 2.227-.258 3.04-.773.812-.515 1.218-1.125 1.219-1.829 0-1.273-.992-2.208-2.978-2.806l-3.475-.853c-3.942-.976-5.914-2.847-5.914-5.612 0-1.816.751-3.273 2.255-4.371 1.503-1.099 3.426-1.647 5.77-1.646 1.793 0 3.413.42 4.861 1.26 1.447.84 2.46 1.965 3.039 3.374l-3.391 1.383a4.233 4.233 0 0 0-1.882-1.973 5.993 5.993 0 0 0-2.917-.711 4.963 4.963 0 0 0-2.667.732c-.788.488-1.182 1.084-1.182 1.789 0 1.138 1.089 1.951 3.268 2.439l3.061.773c4.026.975 6.039 2.967 6.039 5.974m13.22 6.184c-1.489 0-2.847-.312-4.074-.935-1.227-.623-2.171-1.45-2.834-2.48h-.169l.169 2.765v8.781h-3.806v-28.702h3.641v2.764h.169c.661-1.029 1.606-1.856 2.834-2.48 1.227-.624 2.585-.935 4.074-.935 2.674 0 4.936 1.03 6.784 3.09 1.903 2.088 2.854 4.595 2.854 7.521 0 2.955-.951 5.462-2.854 7.521-1.848 2.06-4.109 3.09-6.784 3.09m-.621-3.415c1.82 0 3.351-.677 4.592-2.033 1.238-1.327 1.857-3.048 1.857-5.163 0-2.086-.619-3.807-1.857-5.163-1.238-1.356-2.769-2.033-4.592-2.033-1.847 0-3.392.678-4.633 2.033-1.214 1.356-1.821 3.077-1.82 5.163 0 2.114.607 3.849 1.82 5.204 1.238 1.328 2.783 1.991 4.633 1.991m20.679-17.806c2.814 0 5.034.739 6.66 2.216 1.626 1.476 2.44 3.502 2.441 6.078v12.279h-3.64v-2.766h-.169c-1.572 2.277-3.668 3.415-6.288 3.415-2.234 0-4.102-.65-5.606-1.951-1.503-1.301-2.254-2.927-2.254-4.879 0-2.059.793-3.699 2.378-4.919 1.586-1.22 3.703-1.83 6.351-1.83 2.26 0 4.122.407 5.584 1.22v-.857c0-1.301-.524-2.406-1.572-3.314a5.448 5.448 0 0 0-3.681-1.361c-2.124 0-3.807.88-5.047 2.642l-3.351-2.074c1.847-2.6 4.577-3.9 8.189-3.9m-4.917 14.479c0 .975.42 1.788 1.261 2.439.841.65 1.826.976 2.955.976 1.598 0 3.025-.583 4.281-1.749 1.255-1.165 1.882-2.534 1.882-4.106-1.186-.921-2.841-1.381-4.964-1.382-1.545 0-2.834.366-3.868 1.098-1.034.731-1.55 1.639-1.547 2.724Zm26.924 6.744c-3.006 0-5.502-1.003-7.487-3.008-1.959-2.06-2.938-4.594-2.937-7.603 0-3.062.979-5.596 2.937-7.602 1.986-2.006 4.481-3.009 7.487-3.009 2.069 0 3.875.508 5.419 1.524 1.545 1.017 2.703 2.419 3.475 4.209l-3.471 1.423c-1.076-2.494-2.965-3.741-5.668-3.741-1.737 0-3.24.692-4.508 2.075-1.241 1.382-1.862 3.09-1.862 5.122s.621 3.74 1.862 5.123c1.268 1.382 2.771 2.074 4.508 2.074 2.786 0 4.744-1.247 5.874-3.74l3.393 1.422c-.745 1.789-1.91 3.192-3.496 4.208s-3.427 1.524-5.522 1.525m20.477-.002c-2.978 0-5.432-1.003-7.363-3.008-1.93-2.006-2.896-4.54-2.896-7.603 0-3.035.938-5.562 2.813-7.582 1.876-2.02 4.275-3.03 7.198-3.029 3.005 0 5.397.956 7.176 2.866 1.778 1.911 2.667 4.587 2.666 8.03l-.041.406h-15.923c.056 1.952.718 3.524 1.985 4.716 1.268 1.193 2.785 1.789 4.551 1.789 2.426 0 4.329-1.192 5.708-3.577l3.392 1.626a10.005 10.005 0 0 1-3.785 3.943c-1.614.948-3.441 1.423-5.481 1.423m-6.078-13.009h11.62c-.113-1.383-.685-2.529-1.717-3.436-1.033-.908-2.418-1.362-4.157-1.362-1.435 0-2.669.434-3.703 1.301-1.034.868-1.716 2.033-2.047 3.497"/></g><defs><clipPath id="a"><path fill="#fff" d="M28 153h194v38H28z"/></clipPath></defs></svg>