<svg xmlns:xlink="http://www.w3.org/1999/xlink" width="256" height="256" viewBox="0 0 24 24" fill="none" xmlns="http://www.w3.org/2000/svg"><path fill-rule="evenodd" clip-rule="evenodd" d="M4.0452 22.8814C5.57931 22.8814 6.84847 21.7469 7.05956 20.2712L16.9404 20.2712C17.1515 21.7469 18.4207 22.8814 19.9548 22.8814C21.6366 22.8814 23 21.518 23 19.8362C23 18.1543 21.6366 16.791 19.9548 16.791C19.6876 16.791 19.4284 16.8254 19.1814 16.89L13.7105 7.565C14.5161 7.01708 15.0452 6.09293 15.0452 5.0452C15.0452 3.36338 13.6818 2 12 2C10.3182 2 8.9548 3.36338 8.9548 5.0452C8.9548 6.09293 9.48393 7.01708 10.2895 7.565L4.81861 16.89C4.57164 16.8254 4.31244 16.791 4.0452 16.791C2.36338 16.791 1 18.1543 1 19.8362C1 21.518 2.36338 22.8814 4.0452 22.8814ZM12.5341 7.15428C12.3632 7.19742 12.1843 7.22034 12 7.22034C11.8157 7.22034 11.6368 7.19742 11.4659 7.15428C11.2144 7.09078 10.9803 6.98347 10.7722 6.84095C10.2002 6.44908 9.82486 5.79097 9.82486 5.0452C9.82486 3.8439 10.7987 2.87006 12 2.87006C13.2013 2.87006 14.1751 3.8439 14.1751 5.0452C14.1751 5.79097 13.7998 6.44908 13.2278 6.84095C13.0197 6.98347 12.7856 7.09078 12.5341 7.15428ZM12.9206 7.94876C12.6302 8.04076 12.3209 8.09039 12 8.09039C11.6791 8.09039 11.3698 8.04076 11.0794 7.94876L5.63291 17.2371C6.38972 17.7004 6.92852 18.485 7.05956 19.4011L16.9404 19.4011C17.0715 18.485 17.6103 17.7004 18.3671 17.2371L12.9206 7.94876ZM4.0452 17.661C5.2465 17.661 6.22034 18.6349 6.22034 19.8362C6.22034 21.0375 5.2465 22.0113 4.0452 22.0113C2.8439 22.0113 1.87006 21.0375 1.87006 19.8362C1.87006 18.6349 2.8439 17.661 4.0452 17.661ZM19.9548 22.0113C18.7535 22.0113 17.7797 21.0375 17.7797 19.8362C17.7797 18.6349 18.7535 17.661 19.9548 17.661C21.1561 17.661 22.1299 18.6349 22.1299 19.8362C22.1299 21.0375 21.1561 22.0113 19.9548 22.0113Z" fill="#F9FAFB"></path></svg>