<svg xmlns="http://www.w3.org/2000/svg" width="250" height="250" fill="none"><path fill="#FF9E00" fill-rule="evenodd" d="M76.452 193.977c2.285 7.069 6.663 22.737 4.379 30.189-2.285 7.261-9.33 2.866-11.994 0-.952-.955-1.523-1.146-2.095-1.911-1.713-1.528-6.092-6.878-7.425-8.598l-6.473-9.745c-.571-.955-.952-1.528-1.523-2.484l-9.71-18.151c-2.474-5.732-4.95-11.082-7.044-17.006-1.142-3.057-3.046-8.98-3.998-12.037-1.332-5.159-8.186-33.056 5.14-27.132 1.904.764 3.237 2.101 4.57 3.439 1.333 1.146 4.95 4.777 5.902 6.114 1.332 1.72 4.188 5.35 5.14 6.879.762 1.337 5.712 8.025 6.093 9.553l-4.189-5.159c-6.663-8.025-13.517-9.744-11.613 3.058.951 5.923 1.903 9.553 3.617 15.094l2.665 6.879c.762 2.293 1.904 4.203 2.856 6.305 3.998 8.981 10.471 20.445 17.706 26.941 7.425 6.497 8.948.382 7.996-7.069l-1.523-7.643c.761.191 1.333 1.91 1.523 2.484Zm96.335-120.566c-.381-1.147-2.285-3.822-3.047-5.16-8.377-13.565-17.325-25.985-28.748-37.45-.571-.764-1.142-1.146-2.094-1.91-2.856-2.866-8.567-7.07-12.375-8.598-1.142-.573-2.475-.764-3.808-.956h-2.665c-2.475.383-4.379 1.529-5.711 3.249-2.475 3.821-3.047 7.642-3.427 13.184-.381 2.674.38 12.801.761 15.476.952 6.879 3.808 19.872 5.902 27.133 1.904 5.923 3.998 12.992 6.092 18.724 2.856 8.217 6.093 15.668 9.329 23.884.762 2.102 1.714 3.822 2.475 5.733 2.666 6.878 10.091 21.591 13.327 28.087 2.665 5.159 8.948 16.241 11.994 21.018l6.283 10.127c3.808 6.305 11.042 15.668 15.802 21.4 3.237 4.012 6.283 7.26 9.9 10.891 4.569 4.585 19.419 17.387 26.273 7.643 2.856-4.204 2.665-8.408 3.427-13.184.381-2.866-.19-5.35-.19-8.025 0-2.102-.381-5.159-.762-7.261-.571-3.821-2.475-13.948-3.237-17.388l-2.665-9.744c-.381-1.911-4.95-17.388-6.283-18.725l1.904 8.025c1.523 6.496 5.712 29.998-4.188 29.998-3.808.191-7.425-2.675-10.091-4.586-2.665-2.101-6.282-5.923-8.376-8.598-1.714-2.102-3.999-4.586-5.522-6.879l-3.998-5.732c-2.094-2.866-3.998-5.732-5.711-8.789-1.143-2.102-2.285-4.203-3.618-6.114-2.855-4.395-7.234-14.139-9.9-19.298l-4.569-10.127c-1.142-2.102-6.283-15.477-7.044-17.579l-2.475-7.452c-2.285-6.878-4.569-16.432-5.521-23.692-.762-5.541-1.143-12.802.952-17.197.38-.955 1.332-2.293 2.094-2.675 7.235-4.585 20.561 11.273 24.94 17.197.952.764 3.808 4.776 4.57 5.35ZM134.138 174.87l2.285 11.464c.571 4.012.762 9.744-.571 12.611-3.617 7.642-14.469-4.204-16.373-6.688-2.094-2.675-3.617-4.395-6.092-7.834-.952-1.337-1.904-2.866-2.856-4.203-1.904-2.867-3.427-5.733-5.141-8.79-.952-1.719-1.713-2.675-2.475-4.585l-5.902-11.656c-1.903-4.012-3.617-8.216-5.14-12.42-3.046-7.833-4.76-13.374-6.663-21.591-1.143-4.585-2.666-13.948-.19-18.342 2.094-4.204 6.853-1.72 9.328.191 7.235 5.541 12.375 14.139 13.327 14.903-.19-1.146-1.523-2.675-1.904-3.63l-4.759-7.261c-1.523-2.293-5.712-8.216-7.616-10.318-3.046-3.821-3.808-4.394-6.283-7.26-3.998-4.968-15.42-15.095-21.132-9.172-3.998 4.204-3.237 14.904-2.666 20.254 2.475 16.432 8.187 35.348 15.04 50.825 3.618 8.407 5.522 12.419 9.52 20.444 4.379 8.599 7.615 14.14 12.946 23.12 1.523 2.484 3.046 4.968 4.569 7.07l4.95 7.069c1.714 2.293 6.093 7.834 8.187 9.936 3.998 4.204 11.613 12.037 18.277 11.655 9.329-.573 6.854-20.635 5.521-27.514-1.333-6.305-4.188-18.725-6.283-23.884l-.952-3.248c-.571-.764-.571-.573-.952-1.146Zm31.985-75.474c0 11.465 16.183 42.609 20.562 42.609 3.427 0-.381-12.037-.952-13.566l-3.618-9.362c-.571-1.147-.952-1.72-1.523-2.866-2.855-5.733-5.902-11.083-10.09-15.859-.571-1.147-4.379-4.586-4.379-.956Zm-61.685 37.641c0 6.306 10.091 27.515 13.518 27.515 3.807 0-3.237-15.859-4.379-18.343-1.333-2.293-5.14-8.789-7.235-9.936-.761-.191-1.904 0-1.904.764ZM55.51 167.418c0 2.675 2.284 7.643 3.236 9.553.19.765.381 1.338.952 2.102.571.955 2.475 4.204 3.427 4.395 3.237.955-2.285-12.229-5.712-15.859-.38-.382-1.903-1.338-1.903-.191Zm78.628 7.452v-.956h-.38c0 1.529 0 .382.38.956Zm-26.844-56.94v.382l.381-.382h-.381Zm65.683-44.52h-.381.381Zm0 .765v-.764.764Z" clip-rule="evenodd"/></svg>