<?xml version="1.0" encoding="UTF-8"?>
<svg xmlns="http://www.w3.org/2000/svg" xmlns:xlink="http://www.w3.org/1999/xlink" width="250px" height="250px" viewBox="0 0 250 250" version="1.1">
<g id="surface1">
<rect x="0" y="0" width="250" height="250" style="fill:rgb(100%,100%,100%);fill-opacity:1;stroke:none;"/>
<path style=" stroke:none;fill-rule:nonzero;fill:rgb(0%,84.313725%,100%);fill-opacity:1;" d="M 172.121094 145.546875 C 174.65625 145.546875 177.019531 146.921875 178.285156 149.140625 C 179.503906 151.238281 179.46875 153.832031 178.195312 155.894531 L 178.132812 156.003906 C 169.308594 169.878906 155.105469 179.984375 139.140625 183.773438 C 134.777344 184.808594 131.726562 188.722656 131.726562 193.296875 C 131.734375 196.234375 133.082031 199.011719 135.390625 200.828125 C 137.699219 202.648438 140.714844 203.3125 143.574219 202.628906 C 161.425781 198.421875 177.625 188.234375 189.1875 173.945312 C 201.089844 159.226562 207.382812 141.488281 207.382812 122.644531 C 207.382812 103.804688 201.089844 86.066406 189.1875 71.347656 C 177.625 57.0625 161.425781 46.875 143.574219 42.664062 C 140.714844 41.984375 137.703125 42.648438 135.394531 44.464844 C 133.085938 46.285156 131.734375 49.058594 131.730469 51.996094 C 131.730469 56.566406 134.777344 60.484375 139.140625 61.519531 C 155.105469 65.308594 169.308594 75.414062 178.105469 89.25 L 178.207031 89.417969 C 179.472656 91.503906 179.503906 94.03125 178.289062 96.152344 C 177.023438 98.371094 174.671875 99.742188 172.121094 99.75 C 171.089844 99.746094 170.066406 99.519531 169.132812 99.078125 C 165.648438 97.453125 161.847656 96.617188 158.003906 96.628906 C 144.109375 96.628906 132.601562 107.394531 131.800781 121.136719 L 131.796875 121.214844 L 131.789062 121.289062 C 131.746094 121.664062 131.726562 122.011719 131.726562 122.328125 L 131.726562 122.964844 C 131.726562 123.289062 131.746094 123.625 131.789062 124.003906 L 131.796875 124.078125 L 131.800781 124.15625 C 132.601562 137.898438 144.109375 148.664062 158.007812 148.664062 C 161.890625 148.664062 165.636719 147.839844 169.132812 146.214844 C 170.070312 145.777344 171.089844 145.546875 172.121094 145.546875 M 108.660156 42.402344 C 107.914062 42.402344 107.164062 42.488281 106.425781 42.664062 C 88.574219 46.875 72.375 57.0625 60.816406 71.347656 C 48.910156 86.066406 42.617188 103.804688 42.617188 122.648438 C 42.617188 141.492188 48.90625 159.226562 60.816406 173.941406 C 72.375 188.234375 88.574219 198.421875 106.425781 202.628906 C 109.285156 203.3125 112.296875 202.648438 114.605469 200.828125 C 116.914062 199.011719 118.265625 196.234375 118.269531 193.296875 C 118.269531 188.726562 115.222656 184.8125 110.859375 183.773438 C 94.894531 179.984375 80.691406 169.878906 71.894531 156.042969 L 71.808594 155.90625 C 70.535156 153.839844 70.496094 151.242188 71.710938 149.140625 C 72.976562 146.925781 75.324219 145.554688 77.875 145.546875 C 78.90625 145.546875 79.914062 145.769531 80.867188 146.214844 C 84.351562 147.839844 88.152344 148.679688 91.996094 148.664062 C 105.890625 148.664062 117.398438 137.902344 118.195312 124.15625 L 118.203125 124.078125 L 118.210938 124.003906 C 118.25 123.660156 118.273438 123.3125 118.273438 122.96875 L 118.273438 122.328125 C 118.273438 121.980469 118.25 121.636719 118.210938 121.292969 L 118.195312 121.136719 C 117.398438 107.394531 105.890625 96.628906 91.992188 96.628906 C 88.105469 96.628906 84.363281 97.453125 80.867188 99.078125 C 79.929688 99.519531 78.910156 99.746094 77.878906 99.75 C 75.328125 99.742188 72.976562 98.371094 71.710938 96.152344 C 70.492188 94.058594 70.527344 91.460938 71.804688 89.398438 L 71.8125 89.386719 L 71.835938 89.34375 L 71.890625 89.257812 C 80.691406 75.417969 94.894531 65.3125 110.859375 61.519531 C 115.222656 60.484375 118.273438 56.570312 118.273438 52 C 118.261719 46.699219 113.960938 42.40625 108.660156 42.402344 "/>
</g>
</svg>
