<?xml version="1.0" encoding="utf-8"?>
<svg xmlns="http://www.w3.org/2000/svg" viewBox="7.6 98.589 81.219 81.219" width="250" height="250">
  <path fill-rule="evenodd" clip-rule="evenodd" d="M 20.595 98.589 C 13.418 98.589 7.6 104.407 7.6 111.584 L 7.6 166.813 C 7.6 173.99 13.418 179.808 20.595 179.808 L 75.824 179.808 C 83.001 179.808 88.819 173.99 88.819 166.813 L 88.819 111.584 C 88.819 104.407 83.001 98.589 75.824 98.589 L 20.595 98.589 Z M 63.045 165.334 C 63.046 165.336 63.046 165.338 63.046 165.34 L 63.049 165.336 C 63.048 165.335 63.046 165.335 63.045 165.334 Z M 63.045 165.334 C 62.872 164.241 62.839 162.104 63.04 159.065 C 63.164 157.195 63.658 155.366 64.251 153.589 C 65.224 150.675 66.683 147.979 68.141 145.287 C 68.242 145.101 68.342 144.915 68.443 144.729 C 68.516 144.593 68.59 144.457 68.664 144.32 C 70.121 141.63 71.699 138.717 72.095 135.665 C 72.641 131.446 69.705 127.267 67.182 124.167 C 63.722 119.916 59.491 116.276 55.075 113.056 C 55.49 117.082 55.689 121.325 55.398 125.439 C 55.121 129.327 54.259 133.135 53.03 136.829 C 52.351 138.866 51.565 140.866 50.674 142.819 C 50.393 143.437 50.366 143.453 49.689 143.39 C 49.169 143.341 48.649 143.285 48.13 143.223 C 47.034 143.091 45.942 142.93 44.855 142.739 C 41 142.062 37.173 141.034 33.591 139.443 C 29.368 137.569 25.403 135.094 21.678 132.372 C 22.113 136.497 22.867 140.617 24.031 144.6 C 25.098 148.253 26.481 151.978 28.8 155.034 C 29.959 156.562 31.42 157.923 33.258 158.567 C 34.898 159.141 36.672 159.378 38.396 159.536 C 40.11 159.695 41.831 159.743 43.551 159.792 C 45.511 159.847 47.471 159.903 49.422 160.122 C 54.377 160.675 58.984 162.428 63.045 165.334 Z" fill="#994AFF"/>
</svg>
