<?xml version="1.0" encoding="UTF-8"?>
<!DOCTYPE svg PUBLIC "-//W3C//DTD SVG 1.1//EN" "http://www.w3.org/Graphics/SVG/1.1/DTD/svg11.dtd">
<svg xmlns="http://www.w3.org/2000/svg" version="1.1" width="300px" height="300px" style="shape-rendering:geometricPrecision; text-rendering:geometricPrecision; image-rendering:optimizeQuality; fill-rule:evenodd; clip-rule:evenodd" xmlns:xlink="http://www.w3.org/1999/xlink">
<g><path style="opacity:0.982" fill="#4ac6cf" d="M 140.5,-0.5 C 146.5,-0.5 152.5,-0.5 158.5,-0.5C 166.229,3.39772 171.729,9.39772 175,17.5C 175.5,40.1642 175.667,62.8309 175.5,85.5C 175.5,86.1667 175.5,86.8333 175.5,87.5C 174.833,87.5 174.5,87.8333 174.5,88.5C 166.167,96.5 157.833,104.5 149.5,112.5C 140.473,104.14 131.806,95.4729 123.5,86.5C 123.5,85.8333 123.5,85.1667 123.5,84.5C 123.333,62.1642 123.5,39.8308 124,17.5C 127.271,9.39772 132.771,3.39772 140.5,-0.5 Z"/></g>
<g><path style="opacity:0.967" fill="#afd94e" d="M 123.5,84.5 C 123.5,85.1667 123.5,85.8333 123.5,86.5C 123.5,98.8333 123.5,111.167 123.5,123.5C 111.5,123.5 99.5,123.5 87.5,123.5C 87.1667,123.5 86.8333,123.5 86.5,123.5C 70.5887,107.419 54.7554,91.0859 39,74.5C 32.6704,59.8013 35.8371,47.6346 48.5,38C 58.3464,33.1682 68.0131,33.5016 77.5,39C 92.7015,54.3685 108.035,69.5352 123.5,84.5 Z"/></g>
<g><path style="opacity:0.969" fill="#505df3" d="M 213.5,123.5 C 212.833,123.5 212.167,123.5 211.5,123.5C 199.5,123.5 187.5,123.5 175.5,123.5C 175.5,111.5 175.5,99.5 175.5,87.5C 175.5,86.8333 175.5,86.1667 175.5,85.5C 191.661,69.5063 207.994,53.673 224.5,38C 242.721,31.3682 255.555,36.8682 263,54.5C 264.537,62.6996 263.203,70.3663 259,77.5C 243.632,92.7015 228.465,108.035 213.5,123.5 Z"/></g>
<g><path style="opacity:1" fill="#39bba5" d="M 123.5,86.5 C 131.806,95.4729 140.473,104.14 149.5,112.5C 146.037,116.464 142.37,120.298 138.5,124C 133.845,124.499 129.179,124.666 124.5,124.5C 124.819,129.363 124.486,134.03 123.5,138.5C 123.5,133.5 123.5,128.5 123.5,123.5C 123.5,111.167 123.5,98.8333 123.5,86.5 Z"/></g>
<g><path style="opacity:1" fill="#28a7ca" d="M 174.5,88.5 C 174.169,112.339 174.502,136.006 175.5,159.5C 175.5,159.833 175.5,160.167 175.5,160.5C 174.514,164.97 174.181,169.637 174.5,174.5C 169.821,174.334 165.155,174.501 160.5,175C 156.63,178.702 152.963,182.536 149.5,186.5C 141.167,194.5 132.833,202.5 124.5,210.5C 124.831,186.661 124.498,162.994 123.5,139.5C 123.5,139.167 123.5,138.833 123.5,138.5C 124.486,134.03 124.819,129.363 124.5,124.5C 129.179,124.666 133.845,124.499 138.5,124C 142.37,120.298 146.037,116.464 149.5,112.5C 157.833,104.5 166.167,96.5 174.5,88.5 Z"/></g>
<g><path style="opacity:0.98" fill="#35e1f9" d="M 86.5,123.5 C 86.8333,123.5 87.1667,123.5 87.5,123.5C 96.2138,131.882 104.88,140.216 113.5,148.5C 104.833,157.5 96.1667,166.5 87.5,175.5C 86.8333,175.5 86.1667,175.5 85.5,175.5C 62.8309,175.667 40.1642,175.5 17.5,175C 9.01662,171.683 3.01662,165.849 -0.5,157.5C -0.5,152.167 -0.5,146.833 -0.5,141.5C 2.98151,133.186 8.98151,127.353 17.5,124C 40.4976,123.5 63.4976,123.333 86.5,123.5 Z"/></g>
<g><path style="opacity:0.98" fill="#35e1f9" d="M 211.5,123.5 C 212.167,123.5 212.833,123.5 213.5,123.5C 236.169,123.333 258.836,123.5 281.5,124C 290.018,127.353 296.018,133.186 299.5,141.5C 299.5,146.833 299.5,152.167 299.5,157.5C 296.018,165.814 290.018,171.647 281.5,175C 258.502,175.5 235.502,175.667 212.5,175.5C 212.167,175.5 211.833,175.5 211.5,175.5C 203.032,167.865 195.032,159.698 187.5,151C 186.906,150.536 186.239,150.369 185.5,150.5C 194.167,141.5 202.833,132.5 211.5,123.5 Z"/></g>
<g><path style="opacity:1" fill="#5376ef" d="M 175.5,123.5 C 187.5,123.5 199.5,123.5 211.5,123.5C 202.833,132.5 194.167,141.5 185.5,150.5C 182.5,153.167 179.5,155.833 176.5,158.5C 175.505,147.012 175.172,135.345 175.5,123.5 Z"/></g>
<g><path style="opacity:1" fill="#50deb4" d="M 87.5,123.5 C 99.5,123.5 111.5,123.5 123.5,123.5C 123.5,128.5 123.5,133.5 123.5,138.5C 123.5,138.833 123.5,139.167 123.5,139.5C 122.833,139.5 122.5,139.833 122.5,140.5C 119.5,143.167 116.5,145.833 113.5,148.5C 104.88,140.216 96.2138,131.882 87.5,123.5 Z"/></g>
<g><path style="opacity:1" fill="#3790d8" d="M 175.5,87.5 C 175.5,99.5 175.5,111.5 175.5,123.5C 175.172,135.345 175.505,147.012 176.5,158.5C 176.5,159.167 176.167,159.5 175.5,159.5C 174.502,136.006 174.169,112.339 174.5,88.5C 174.5,87.8333 174.833,87.5 175.5,87.5 Z"/></g>
<g><path style="opacity:1" fill="#5376ef" d="M 122.5,140.5 C 123.495,151.988 123.828,163.655 123.5,175.5C 111.5,175.5 99.5,175.5 87.5,175.5C 96.1667,166.5 104.833,157.5 113.5,148.5C 116.5,145.833 119.5,143.167 122.5,140.5 Z"/></g>
<g><path style="opacity:1" fill="#52deb3" d="M 185.5,150.5 C 186.239,150.369 186.906,150.536 187.5,151C 195.032,159.698 203.032,167.865 211.5,175.5C 199.5,175.5 187.5,175.5 175.5,175.5C 175.5,170.5 175.5,165.5 175.5,160.5C 175.5,160.167 175.5,159.833 175.5,159.5C 176.167,159.5 176.5,159.167 176.5,158.5C 179.5,155.833 182.5,153.167 185.5,150.5 Z"/></g>
<g><path style="opacity:0.969" fill="#505df3" d="M 85.5,175.5 C 86.1667,175.5 86.8333,175.5 87.5,175.5C 99.5,175.5 111.5,175.5 123.5,175.5C 123.5,187.5 123.5,199.5 123.5,211.5C 123.5,212.167 123.5,212.833 123.5,213.5C 107.339,229.494 91.006,245.327 74.5,261C 56.2286,267.604 43.3952,262.104 36,244.5C 34.4635,236.3 35.7968,228.634 40,221.5C 55.3685,206.299 70.5352,190.965 85.5,175.5 Z"/></g>
<g><path style="opacity:1" fill="#388ddb" d="M 122.5,140.5 C 122.5,139.833 122.833,139.5 123.5,139.5C 124.498,162.994 124.831,186.661 124.5,210.5C 124.5,211.167 124.167,211.5 123.5,211.5C 123.5,199.5 123.5,187.5 123.5,175.5C 123.828,163.655 123.495,151.988 122.5,140.5 Z"/></g>
<g><path style="opacity:1" fill="#39bba5" d="M 175.5,160.5 C 175.5,165.5 175.5,170.5 175.5,175.5C 175.5,187.833 175.5,200.167 175.5,212.5C 167.194,203.527 158.527,194.86 149.5,186.5C 152.963,182.536 156.63,178.702 160.5,175C 165.155,174.501 169.821,174.334 174.5,174.5C 174.181,169.637 174.514,164.97 175.5,160.5 Z"/></g>
<g><path style="opacity:0.967" fill="#afd94e" d="M 175.5,175.5 C 187.5,175.5 199.5,175.5 211.5,175.5C 211.833,175.5 212.167,175.5 212.5,175.5C 228.411,191.581 244.245,207.914 260,224.5C 266.33,239.199 263.163,251.365 250.5,261C 240.797,266.521 231.13,266.188 221.5,260C 206.299,244.632 190.965,229.465 175.5,214.5C 175.5,213.833 175.5,213.167 175.5,212.5C 175.5,200.167 175.5,187.833 175.5,175.5 Z"/></g>
<g><path style="opacity:0.982" fill="#4ac6cf" d="M 149.5,186.5 C 158.527,194.86 167.194,203.527 175.5,212.5C 175.5,213.167 175.5,213.833 175.5,214.5C 175.667,236.836 175.5,259.169 175,281.5C 171.729,289.602 166.229,295.602 158.5,299.5C 152.5,299.5 146.5,299.5 140.5,299.5C 133.372,295.539 127.705,290.039 123.5,283C 123.521,260.042 123.521,236.875 123.5,213.5C 123.5,212.833 123.5,212.167 123.5,211.5C 124.167,211.5 124.5,211.167 124.5,210.5C 132.833,202.5 141.167,194.5 149.5,186.5 Z"/></g>
</svg>
