<?xml version="1.0" encoding="UTF-8" standalone="no" ?>
<!DOCTYPE svg PUBLIC "-//W3C//DTD SVG 1.1//EN" "http://www.w3.org/Graphics/SVG/1.1/DTD/svg11.dtd">
<svg xmlns="http://www.w3.org/2000/svg" xmlns:xlink="http://www.w3.org/1999/xlink" version="1.1" width="1080" height="1080" viewBox="0 0 1080 1080" xml:space="preserve">
<desc>Created with Fabric.js 5.2.4</desc>
<defs>
</defs>
<g transform="matrix(1 0 0 1 540 540)" id="df2665d5-85fb-424a-823b-2d8ceccaa883"  >
<rect style="stroke: none; stroke-width: 1; stroke-dasharray: none; stroke-linecap: butt; stroke-dashoffset: 0; stroke-linejoin: miter; stroke-miterlimit: 4; fill: rgb(255,255,255); fill-rule: nonzero; opacity: 1; visibility: hidden;" vector-effect="non-scaling-stroke"  x="-540" y="-540" rx="0" ry="0" width="1080" height="1080" />
</g>
<g transform="matrix(1 0 0 1 540 540)" id="a056c966-7f9e-467f-b504-ebbf310ecbe5"  >
</g>
<g transform="matrix(1 0 0 1 481.86 534.07)" clip-path="url(#CLIPPATH_3)"  >
<clipPath id="CLIPPATH_3" >
	<rect transform="matrix(1 0 0 1 58.14 5.93)" id="clip0_4159_35292" x="-65.5" y="-13.2896" rx="0" ry="0" width="131" height="26.5792" />
</clipPath>
<path style="stroke: none; stroke-width: 1; stroke-dasharray: none; stroke-linecap: butt; stroke-dashoffset: 0; stroke-linejoin: miter; stroke-miterlimit: 4; fill: rgb(130,203,54); fill-rule: nonzero; opacity: 1;" vector-effect="non-scaling-stroke"  transform=" translate(-7.36, -7.57)" d="M 3.89268 4.10302 C 3.14938 4.84632 3.14938 6.05228 3.89268 6.79558 L 8.69378 11.5967 L 11.3855 11.5967 L 11.3855 8.90496 L 6.5844 4.10386 C 5.8411 3.36056 4.63598 3.36056 3.89184 4.10386 L 3.89268 4.10302 Z" stroke-linecap="round" />
</g>
<g transform="matrix(1 0 0 1 493.72 545.93)" clip-path="url(#CLIPPATH_4)"  >
<clipPath id="CLIPPATH_4" >
	<rect transform="matrix(1 0 0 1 46.28 -5.93)" id="clip0_4159_35292" x="-65.5" y="-13.2896" rx="0" ry="0" width="131" height="26.5792" />
</clipPath>
<path style="stroke: none; stroke-width: 1; stroke-dasharray: none; stroke-linecap: butt; stroke-dashoffset: 0; stroke-linejoin: miter; stroke-miterlimit: 4; fill: rgb(130,203,54); fill-rule: nonzero; opacity: 1;" vector-effect="non-scaling-stroke"  transform=" translate(-19.22, -19.43)" d="M 22.6863 20.2052 L 17.8852 15.4041 L 15.1935 15.4041 L 15.1935 18.0958 L 19.9946 22.8969 C 20.3662 23.2685 20.8533 23.4548 21.3404 23.4548 C 21.8275 23.4548 22.3147 23.2685 22.6863 22.8977 C 23.4296 22.1544 23.4296 20.9485 22.6863 20.2052 Z" stroke-linecap="round" />
</g>
<g transform="matrix(1 0 0 1 481.86 545.93)" clip-path="url(#CLIPPATH_5)"  >
<clipPath id="CLIPPATH_5" >
	<rect transform="matrix(1 0 0 1 58.14 -5.93)" id="clip0_4159_35292" x="-65.5" y="-13.2896" rx="0" ry="0" width="131" height="26.5792" />
</clipPath>
<path style="stroke: none; stroke-width: 1; stroke-dasharray: none; stroke-linecap: butt; stroke-dashoffset: 0; stroke-linejoin: miter; stroke-miterlimit: 4; fill: rgb(91,113,248); fill-rule: nonzero; opacity: 1;" vector-effect="non-scaling-stroke"  transform=" translate(-7.36, -19.43)" d="M 3.89268 20.2052 C 3.14938 20.9485 3.14938 22.1536 3.89268 22.8977 C 4.26433 23.2694 4.75143 23.4548 5.23854 23.4548 C 5.72564 23.4548 6.21275 23.2685 6.5844 22.8969 L 11.3855 18.0958 L 11.3855 15.4041 L 8.69378 15.4041 L 3.89268 20.2052 Z" stroke-linecap="round" />
</g>
<g transform="matrix(1 0 0 1 493.72 534.07)" clip-path="url(#CLIPPATH_6)"  >
<clipPath id="CLIPPATH_6" >
	<rect transform="matrix(1 0 0 1 46.28 5.93)" id="clip0_4159_35292" x="-65.5" y="-13.2896" rx="0" ry="0" width="131" height="26.5792" />
</clipPath>
<path style="stroke: none; stroke-width: 1; stroke-dasharray: none; stroke-linecap: butt; stroke-dashoffset: 0; stroke-linejoin: miter; stroke-miterlimit: 4; fill: rgb(91,113,248); fill-rule: nonzero; opacity: 1;" vector-effect="non-scaling-stroke"  transform=" translate(-19.22, -7.57)" d="M 22.6866 4.10313 C 21.9433 3.35983 20.7373 3.35983 19.994 4.10313 L 15.1929 8.90423 L 15.1929 11.5959 L 17.8846 11.5959 L 22.6858 6.79485 C 23.429 6.05155 23.429 4.84643 22.6858 4.10229 L 22.6866 4.10313 Z" stroke-linecap="round" />
</g>
<g transform="matrix(1 0 0 1 487.79 540)" clip-path="url(#CLIPPATH_7)"  >
<clipPath id="CLIPPATH_7" >
	<rect transform="matrix(1 0 0 1 52.21 0)" id="clip0_4159_35292" x="-65.5" y="-13.2896" rx="0" ry="0" width="131" height="26.5792" />
</clipPath>
<path style="stroke: none; stroke-width: 1; stroke-dasharray: none; stroke-linecap: butt; stroke-dashoffset: 0; stroke-linejoin: miter; stroke-miterlimit: 4; fill: rgb(48,198,180); fill-rule: nonzero; opacity: 1;" vector-effect="non-scaling-stroke"  transform=" translate(-13.29, -13.5)" d="M 13.2891 0.210449 C 12.2374 0.210449 11.3854 1.06246 11.3854 2.1142 L 11.3854 24.8859 C 11.3854 25.9377 12.2374 26.7897 13.2891 26.7897 C 14.3409 26.7897 15.1929 25.9377 15.1929 24.8859 L 15.1929 2.1142 C 15.1929 1.06246 14.3409 0.210449 13.2891 0.210449 Z" stroke-linecap="round" />
</g>
<g transform="matrix(1 0 0 1 487.79 540)" clip-path="url(#CLIPPATH_8)"  >
<clipPath id="CLIPPATH_8" >
	<rect transform="matrix(1 0 0 1 52.21 0)" id="clip0_4159_35292" x="-65.5" y="-13.2896" rx="0" ry="0" width="131" height="26.5792" />
</clipPath>
<path style="stroke: none; stroke-width: 1; stroke-dasharray: none; stroke-linecap: butt; stroke-dashoffset: 0; stroke-linejoin: miter; stroke-miterlimit: 4; fill: rgb(49,189,250); fill-rule: nonzero; opacity: 1;" vector-effect="non-scaling-stroke"  transform=" translate(-13.29, -13.5)" d="M 24.6755 11.5967 L 1.90375 11.5967 C 0.852012 11.5967 0 12.4487 0 13.5004 C 0 14.5522 0.852012 15.4042 1.90375 15.4042 L 24.6755 15.4042 C 25.7272 15.4042 26.5792 14.5522 26.5792 13.5004 C 26.5792 12.4487 25.7272 11.5967 24.6755 11.5967 Z" stroke-linecap="round" />
</g>
<g transform="matrix(1 0 0 1 486.84 536.75)" clip-path="url(#CLIPPATH_9)"  >
<clipPath id="CLIPPATH_9" >
	<rect transform="matrix(1 0 0 1 53.16 3.25)" id="clip0_4159_35292" x="-65.5" y="-13.2896" rx="0" ry="0" width="131" height="26.5792" />
</clipPath>
<path style="stroke: none; stroke-width: 1; stroke-dasharray: none; stroke-linecap: butt; stroke-dashoffset: 0; stroke-linejoin: miter; stroke-miterlimit: 4; fill: rgb(79,152,183); fill-rule: nonzero; opacity: 1;" vector-effect="non-scaling-stroke"  transform=" translate(-12.34, -10.25)" d="M 12.5014 11.5966 L 13.2893 10.8078 L 11.3864 8.90405 L 11.3864 11.5966 L 12.5014 11.5966 Z" stroke-linecap="round" />
</g>
<g transform="matrix(1 0 0 1 488.74 543.25)" clip-path="url(#CLIPPATH_10)"  >
<clipPath id="CLIPPATH_10" >
	<rect transform="matrix(1 0 0 1 51.26 -3.25)" id="clip0_4159_35292" x="-65.5" y="-13.2896" rx="0" ry="0" width="131" height="26.5792" />
</clipPath>
<path style="stroke: none; stroke-width: 1; stroke-dasharray: none; stroke-linecap: butt; stroke-dashoffset: 0; stroke-linejoin: miter; stroke-miterlimit: 4; fill: rgb(79,152,183); fill-rule: nonzero; opacity: 1;" vector-effect="non-scaling-stroke"  transform=" translate(-14.24, -16.75)" d="M 14.0779 15.4033 L 13.2891 16.1921 L 15.1929 18.0959 L 15.1929 15.4033 L 14.0779 15.4033 Z" stroke-linecap="round" />
</g>
<g transform="matrix(1 0 0 1 486.84 543.25)" clip-path="url(#CLIPPATH_11)"  >
<clipPath id="CLIPPATH_11" >
	<rect transform="matrix(1 0 0 1 53.16 -3.25)" id="clip0_4159_35292" x="-65.5" y="-13.2896" rx="0" ry="0" width="131" height="26.5792" />
</clipPath>
<path style="stroke: none; stroke-width: 1; stroke-dasharray: none; stroke-linecap: butt; stroke-dashoffset: 0; stroke-linejoin: miter; stroke-miterlimit: 4; fill: rgb(79,100,218); fill-rule: nonzero; opacity: 1;" vector-effect="non-scaling-stroke"  transform=" translate(-12.34, -16.75)" d="M 12.5014 15.4033 L 11.3864 15.4033 L 11.3864 18.0959 L 13.2893 16.1921 L 12.5014 15.4033 Z" stroke-linecap="round" />
</g>
<g transform="matrix(1 0 0 1 488.74 536.75)" clip-path="url(#CLIPPATH_12)"  >
<clipPath id="CLIPPATH_12" >
	<rect transform="matrix(1 0 0 1 51.26 3.25)" id="clip0_4159_35292" x="-65.5" y="-13.2896" rx="0" ry="0" width="131" height="26.5792" />
</clipPath>
<path style="stroke: none; stroke-width: 1; stroke-dasharray: none; stroke-linecap: butt; stroke-dashoffset: 0; stroke-linejoin: miter; stroke-miterlimit: 4; fill: rgb(79,100,218); fill-rule: nonzero; opacity: 1;" vector-effect="non-scaling-stroke"  transform=" translate(-14.24, -10.25)" d="M 14.0779 11.5966 L 15.1929 11.5966 L 15.1929 8.90405 L 13.2891 10.8078 L 14.0779 11.5966 Z" stroke-linecap="round" />
</g>
<g transform="matrix(1 0 0 1 484.54 539.05)" clip-path="url(#CLIPPATH_13)"  >
<clipPath id="CLIPPATH_13" >
	<rect transform="matrix(1 0 0 1 55.46 0.95)" id="clip0_4159_35292" x="-65.5" y="-13.2896" rx="0" ry="0" width="131" height="26.5792" />
</clipPath>
<path style="stroke: none; stroke-width: 1; stroke-dasharray: none; stroke-linecap: butt; stroke-dashoffset: 0; stroke-linejoin: miter; stroke-miterlimit: 4; fill: rgb(79,152,183); fill-rule: nonzero; opacity: 1;" vector-effect="non-scaling-stroke"  transform=" translate(-10.04, -12.55)" d="M 11.3865 12.7116 L 11.3865 11.5967 L 8.69397 11.5967 L 10.5977 13.5004 L 11.3865 12.7116 Z" stroke-linecap="round" />
</g>
<g transform="matrix(1 0 0 1 491.04 540.95)" clip-path="url(#CLIPPATH_14)"  >
<clipPath id="CLIPPATH_14" >
	<rect transform="matrix(1 0 0 1 48.96 -0.95)" id="clip0_4159_35292" x="-65.5" y="-13.2896" rx="0" ry="0" width="131" height="26.5792" />
</clipPath>
<path style="stroke: none; stroke-width: 1; stroke-dasharray: none; stroke-linecap: butt; stroke-dashoffset: 0; stroke-linejoin: miter; stroke-miterlimit: 4; fill: rgb(79,152,183); fill-rule: nonzero; opacity: 1;" vector-effect="non-scaling-stroke"  transform=" translate(-16.54, -14.45)" d="M 15.1929 14.2885 L 15.1929 15.4034 L 17.8855 15.4034 L 15.9817 13.5005 L 15.1929 14.2885 Z" stroke-linecap="round" />
</g>
<g transform="matrix(1 0 0 1 484.54 540.95)" clip-path="url(#CLIPPATH_15)"  >
<clipPath id="CLIPPATH_15" >
	<rect transform="matrix(1 0 0 1 55.46 -0.95)" id="clip0_4159_35292" x="-65.5" y="-13.2896" rx="0" ry="0" width="131" height="26.5792" />
</clipPath>
<path style="stroke: none; stroke-width: 1; stroke-dasharray: none; stroke-linecap: butt; stroke-dashoffset: 0; stroke-linejoin: miter; stroke-miterlimit: 4; fill: rgb(79,100,218); fill-rule: nonzero; opacity: 1;" vector-effect="non-scaling-stroke"  transform=" translate(-10.04, -14.45)" d="M 11.3865 14.2885 L 10.5977 13.5005 L 8.69397 15.4034 L 11.3865 15.4034 L 11.3865 14.2885 Z" stroke-linecap="round" />
</g>
<g transform="matrix(1 0 0 1 491.04 539.05)" clip-path="url(#CLIPPATH_16)"  >
<clipPath id="CLIPPATH_16" >
	<rect transform="matrix(1 0 0 1 48.96 0.95)" id="clip0_4159_35292" x="-65.5" y="-13.2896" rx="0" ry="0" width="131" height="26.5792" />
</clipPath>
<path style="stroke: none; stroke-width: 1; stroke-dasharray: none; stroke-linecap: butt; stroke-dashoffset: 0; stroke-linejoin: miter; stroke-miterlimit: 4; fill: rgb(79,100,218); fill-rule: nonzero; opacity: 1;" vector-effect="non-scaling-stroke"  transform=" translate(-16.54, -12.55)" d="M 15.1929 12.7116 L 15.9817 13.5004 L 17.8855 11.5967 L 15.1929 11.5967 L 15.1929 12.7116 Z" stroke-linecap="round" />
</g>
<g transform="matrix(1 0 0 1 487.79 540)" clip-path="url(#CLIPPATH_17)"  >
<clipPath id="CLIPPATH_17" >
	<rect transform="matrix(1 0 0 1 52.21 0)" id="clip0_4159_35292" x="-65.5" y="-13.2896" rx="0" ry="0" width="131" height="26.5792" />
</clipPath>
<path style="stroke: none; stroke-width: 1; stroke-dasharray: none; stroke-linecap: butt; stroke-dashoffset: 0; stroke-linejoin: miter; stroke-miterlimit: 4; fill: rgb(57,73,218); fill-rule: nonzero; opacity: 1;" vector-effect="non-scaling-stroke"  transform=" translate(-13.29, -13.5)" d="M 15.1927 12.7116 L 15.1927 11.5967 L 14.0778 11.5967 L 13.2889 10.8079 L 12.501 11.5967 L 11.386 11.5967 L 11.386 12.7116 L 10.5972 13.5004 L 11.386 14.2884 L 11.386 15.4033 L 12.501 15.4033 L 13.2889 16.1921 L 14.0778 15.4033 L 15.1927 15.4033 L 15.1927 14.2884 L 15.9815 13.5004 L 15.1927 12.7116 Z" stroke-linecap="round" />
</g>
</svg>