<svg xmlns="http://www.w3.org/2000/svg" viewBox="0 0 64 64" fill="none">
  <rect width="64" height="64" rx="12" fill="#1a1a2e"/>
  <path d="M32 12C20.954 12 12 20.954 12 32s8.954 20 20 20 20-8.954 20-20S43.046 12 32 12zm0 4c8.837 0 16 7.163 16 16s-7.163 16-16 16-16-7.163-16-16 7.163-16 16-16z" fill="#7c3aed"/>
  <circle cx="24" cy="28" r="4" fill="#a78bfa"/>
  <circle cx="40" cy="28" r="4" fill="#a78bfa"/>
  <circle cx="32" cy="40" r="4" fill="#a78bfa"/>
  <line x1="24" y1="28" x2="40" y2="28" stroke="#a78bfa" stroke-width="2"/>
  <line x1="24" y1="28" x2="32" y2="40" stroke="#a78bfa" stroke-width="2"/>
  <line x1="40" y1="28" x2="32" y2="40" stroke="#a78bfa" stroke-width="2"/>
</svg>
