<svg xmlns="http://www.w3.org/2000/svg" width="250" height="250" viewBox="0 0 250 250" fill="none">
  <rect width="250" height="250" rx="20" fill="#1a1a1a"/>
  <g transform="translate(80, 78) scale(2)">
    <path d="M35.6487 36.021C35.733 35.7387 35.7791 35.4411 35.7791 35.1283C35.7791 33.3963 34.3675 31.9924 32.6262 31.9924H18.4956C17.7361 32 17.1147 31.3896 17.1147 30.6342C17.1147 30.4969 17.1377 30.3672 17.1684 30.2451L20.9734 17.0606C21.1345 16.4807 21.6715 16.0534 22.3005 16.0534L36.4848 16.0382C39.4766 16.0382 42.0005 14.0315 42.76 11.2923L44.8926 3.94468C44.9616 3.68526 45 3.40296 45 3.12065C45 1.39628 43.5961 0 41.8624 0L24.7017 0C21.7252 0 19.209 1.99142 18.4342 4.70005L16.992 9.71292C16.8232 10.2852 16.2939 10.7048 15.6648 10.7048H11.5453C8.59189 10.7048 6.0987 12.6581 5.30089 15.3362L0.11507 33.3505C0.0383566 33.6175 0 33.9075 0 34.1974C0 35.9294 1.41152 37.3333 3.15292 37.3333H7.20338C7.96284 37.3333 8.58421 37.9437 8.58421 38.7067C8.58421 38.8364 8.56887 38.9661 8.53051 39.0882L7.09598 44.0553C7.02694 44.3224 6.98091 44.597 6.98091 44.8794C6.98091 46.6037 8.38476 48 10.1185 48L27.2869 47.9847C30.2711 47.9847 32.7873 45.9857 33.5544 43.2618L35.641 36.0286L35.6487 36.021Z" fill="#F2FF59"/>
  </g>
</svg>
