<svg width="250" height="250" viewBox="0 0 150 30" fill="none" xmlns="http://www.w3.org/2000/svg"><path fill-rule="evenodd" clip-rule="evenodd" d="M27.1069 15.8945L27.2192 24.1173H30.9988C31.0491 22.1143 31.1115 20.1113 31.1859 18.1083L32.346 17.6972C33.02 17.4442 34.4545 17.2438 36.6495 17.0963L39.793 16.9381V13.7755L37.9973 13.6806C36.8231 13.647 35.648 13.6945 34.4797 13.8229C33.0823 13.96 32.1467 14.1129 31.673 14.2815C31.596 14.3355 31.5028 14.358 31.411 14.3448C31.2112 14.3237 31.1488 13.7228 31.2239 12.5421L31.2994 10.5813C34.9667 10.4758 38.6341 10.381 42.3015 10.2966V7.10237L34.8171 7.03911C31.8981 7.01803 29.9148 7.0233 28.867 7.05492C27.8191 7.08655 27.2703 7.16561 27.2204 7.29212C27.1205 7.50296 27.0831 10.3704 27.1081 15.8945H27.1069ZM46.7535 15.8945L46.8657 24.1173H50.6454V7.10237L48.8117 7.03911C47.5891 6.97586 46.9403 7.06019 46.8651 7.29212C46.7652 7.50296 46.7278 10.3704 46.7529 15.8945H46.7535ZM55.884 8.27254L56.8196 9.37945L56.857 16.6219L56.9692 23.8643H60.7489L60.8243 18.4562C60.8488 17.5074 60.8739 16.6166 60.8998 15.7838C60.9256 14.9509 60.963 14.2973 61.012 13.8229C61.0617 13.3486 61.1116 13.1114 61.1617 13.1114C61.3114 13.1114 62.3966 14.155 64.4174 16.2424C67.4609 19.2785 69.2821 21.0917 69.8811 21.6821L72.2761 24.0224C73.5729 23.9592 74.8577 23.9065 76.1305 23.8643V6.84935H72.3876L72.2753 12.6053C72.2753 13.6385 72.2566 14.6083 72.2192 15.5149C72.1818 16.4216 72.1381 17.1279 72.0882 17.6339C72.0379 18.1399 72.0005 18.3929 71.9759 18.3929C71.8262 18.3929 70.4915 17.149 67.9718 14.661C65.2025 11.9412 63.2192 9.9909 62.0217 8.81019L59.8138 6.72285H57.5697C56.0224 6.72285 55.1991 6.79665 55.0998 6.94424C55.025 7.07074 55.2869 7.51351 55.8857 8.27254H55.884ZM89.4138 7.54514C89.4436 7.57235 89.4691 7.60438 89.4893 7.64001C89.7384 7.99844 89.7945 8.3516 89.6577 8.69949C89.5209 9.04738 88.8909 10.0752 87.7679 11.7831C87.7088 11.8611 87.6586 11.946 87.6182 12.0361C86.9691 13.027 85.8278 14.8192 84.1941 17.4125C82.5604 20.0059 81.6934 21.3658 81.5932 21.4923C81.3054 21.9341 81.0429 22.3935 80.8074 22.8681C80.6074 23.2792 80.545 23.5059 80.6203 23.548C80.8946 23.7799 81.6119 23.8327 82.772 23.7062C83.8562 23.5988 84.9206 23.3327 85.9342 22.9155C87.3808 22.3462 88.603 21.9878 89.601 21.8402C89.85 21.798 90.243 21.7242 90.7798 21.6188C91.3165 21.5134 91.7095 21.4449 91.9585 21.4133C92.2076 21.3816 92.5507 21.3342 92.9876 21.2709C93.4246 21.2077 93.855 21.1602 94.2787 21.1286C94.7025 21.097 95.1641 21.0812 95.6633 21.0812C96.7111 21.0812 97.4159 21.176 97.7777 21.3658C98.1394 21.5556 98.5698 22.051 99.0687 22.8522C99.3178 23.2739 99.5548 23.5269 99.7797 23.6113C100.005 23.6956 100.616 23.7378 101.613 23.7378C102.985 23.7378 103.671 23.6534 103.672 23.4848C103.672 23.3583 103.428 22.905 102.942 22.1248C102.455 21.3447 101.027 19.0676 98.6565 15.2936C96.3861 11.7303 94.9142 9.39 94.2407 8.27254L93.0432 6.31171L90.9475 6.24846C89.5753 6.1852 88.8892 6.259 88.8893 6.46984C88.8893 6.63852 89.064 6.99695 89.4132 7.54514H89.4138ZM94.9897 16.5744C95.1681 16.8921 95.3305 17.2194 95.4762 17.5548C95.5757 17.7973 95.6131 17.9291 95.5885 17.9502C95.3886 18.0556 94.5653 18.161 93.1186 18.2664C91.5714 18.3929 90.3365 18.5932 89.4138 18.8673C88.366 19.1203 87.8047 19.2047 87.7299 19.1203C87.63 19.036 88.2788 17.8342 89.6764 15.5149C90.1501 14.777 90.5181 14.2025 90.7804 13.7913C90.9996 13.4407 91.237 13.1028 91.4914 12.7793C91.7026 12.5157 91.8523 12.3681 91.9404 12.3365C92.0326 12.3052 92.1326 12.3108 92.2211 12.3523C92.4702 12.5632 93.1313 13.533 94.2045 15.2619C94.5031 15.7258 94.7647 16.1633 94.9891 16.5744H94.9897ZM112.297 8.30416C111.261 8.95777 110.469 9.62192 109.921 10.2966C109.347 10.9924 108.873 11.9623 108.499 13.2062C108.312 13.7964 108.186 14.4062 108.125 15.0247C108.118 15.6078 108.193 16.1887 108.349 16.7484C108.574 17.8237 108.867 18.6618 109.229 19.2627C109.591 19.8636 110.221 20.5752 111.119 21.3974C111.981 22.1545 112.946 22.7727 113.981 23.2318C114.992 23.6745 116.245 24.0119 117.742 24.2438C119.701 24.537 121.693 24.4889 123.636 24.1015C125.719 23.7114 127.209 23.1158 128.108 22.3146C128.269 22.1904 128.404 22.0343 128.507 21.8552C128.609 21.6761 128.678 21.4776 128.707 21.2709C128.757 20.8703 128.769 19.774 128.744 17.9818L128.632 14.2815L125.077 14.2183C122.657 14.1761 121.372 14.2183 121.223 14.3448C121.022 14.5135 121.197 15.03 121.746 15.8945C121.939 16.288 122.192 16.6459 122.495 16.9539C122.742 17.1651 123.039 17.3018 123.355 17.3493C123.779 17.4125 124.035 17.5179 124.122 17.6655C124.21 17.8131 124.253 18.2348 124.253 18.9306V20.3854L122.681 20.7333C120.535 21.2182 118.352 21.039 116.133 20.1956C115.184 19.8161 114.454 19.3786 113.943 18.8832C113.391 18.3194 112.986 17.6172 112.765 16.8433C112.564 16.2582 112.481 15.6363 112.52 15.0161C112.558 14.3959 112.718 13.7907 112.989 13.2379C113.537 12.0993 114.473 11.2032 115.796 10.5496C116.337 10.2715 116.909 10.0644 117.498 9.93291C117.985 9.83804 118.814 9.7906 119.987 9.7906C121.783 9.76952 123.218 9.92765 124.291 10.265L125.975 10.8026L127.06 9.75897C127.758 9.12645 128.132 8.6626 128.182 8.36742C128.182 8.13549 127.484 7.73489 126.087 7.16562C125.325 6.8483 124.535 6.60996 123.729 6.45403C123.13 6.35915 122.095 6.30117 120.623 6.28009C119.619 6.23214 118.614 6.2427 117.611 6.31171C116.904 6.39083 116.208 6.54989 115.534 6.78611C114.399 7.15036 113.312 7.66024 112.297 8.30416H112.297ZM133.235 15.6098L133.347 23.8643H150V20.67L137.426 20.417L137.351 19.152C137.293 18.7831 137.312 18.4054 137.407 18.045C137.494 17.792 137.744 17.5759 138.155 17.3967C138.672 17.1931 139.214 17.0706 139.765 17.033C140.425 16.9698 141.404 16.9065 142.702 16.8433L146.557 16.6851V13.4909L143.189 13.4276C140.918 13.3644 139.421 13.4698 138.698 13.7439C137.999 13.9758 137.581 13.9969 137.444 13.8071C137.307 13.6174 137.276 12.9743 137.351 11.8779L137.426 10.2966C141.417 10.2123 145.396 10.1279 149.363 10.0436V6.84935L141.43 6.78611C138.287 6.74394 136.166 6.74394 135.069 6.78611C133.971 6.82828 133.397 6.91261 133.347 7.03911C133.247 7.22887 133.21 10.0858 133.235 15.6098Z" fill="#0E1012"></path><path fill-rule="evenodd" clip-rule="evenodd" d="M19.4636 6.02027C19.8629 6.70327 19.633 7.58069 18.9499 7.98004L8.60489 14.0287L8.59433 27.7608C8.59372 28.552 7.95184 29.1929 7.16065 29.1923C6.36947 29.1917 5.72858 28.5498 5.72919 27.7586L5.74038 13.2054C5.74077 12.6968 6.0108 12.2265 6.44987 11.9698L17.5038 5.50666C18.1868 5.10731 19.0642 5.33726 19.4636 6.02027Z" fill="#4353FF"></path><path fill-rule="evenodd" clip-rule="evenodd" d="M17.4108 0.717887C17.8057 1.40351 17.5699 2.2794 16.8843 2.67424L2.86514 10.7477V24.1133C2.86514 24.9045 2.22376 25.5459 1.43257 25.5459C0.641383 25.5459 0 24.9045 0 24.1133V9.91957C0 9.4072 0.273641 8.93384 0.717647 8.67815L15.4545 0.191383C16.1401 -0.203458 17.016 0.0322661 17.4108 0.717887Z" fill="#4353FF"></path><path fill-rule="evenodd" clip-rule="evenodd" d="M21.6026 11.5226C21.9899 12.2125 21.7446 13.0857 21.0547 13.473L14.3023 17.2637V24.1209C14.3023 24.9121 13.661 25.5535 12.8698 25.5535C12.0786 25.5535 11.4372 24.9121 11.4372 24.1209V16.425C11.4372 15.907 11.7168 15.4294 12.1685 15.1758L19.6522 10.9746C20.3421 10.5873 21.2153 10.8327 21.6026 11.5226Z" fill="#4353FF"></path></svg>
