<svg xmlns="http://www.w3.org/2000/svg" xmlns:xlink="http://www.w3.org/1999/xlink" width="250px" height="250px" viewBox="0 0 250 250" version="1.1">
<g id="surface1">
<path style=" stroke:none;fill-rule:nonzero;fill:rgb(3.137255%,4.313725%,5.490196%);fill-opacity:1;" d="M 202.828125 18.644531 C 212.871094 28.214844 219.175781 40.082031 225.460938 52.308594 C 225.753906 52.878906 226.050781 53.449219 226.351562 54.035156 C 237.5625 75.996094 243.863281 100.363281 247.699219 124.617188 C 247.824219 125.410156 247.953125 126.207031 248.082031 127.027344 C 251.730469 150.714844 251.84375 174.9375 237.730469 195.382812 C 214.167969 227.378906 165.460938 242.628906 127.734375 248.539062 C 126.058594 248.789062 124.378906 249.015625 122.699219 249.230469 C 122.171875 249.304688 121.644531 249.375 121.101562 249.453125 C 114.78125 250.21875 108.417969 250.199219 102.0625 250.226562 C 100.714844 250.234375 99.371094 250.25 98.023438 250.273438 C 78.691406 250.601562 61.515625 245.6875 47.035156 232.195312 C 41.65625 226.949219 37.59375 221.039062 33.742188 214.617188 C 33.191406 213.695312 33.191406 213.695312 32.628906 212.757812 C 10.117188 174.933594 -8.71875 121.320312 2.109375 76.683594 C 7.371094 56.820312 20.042969 42.738281 37.460938 32.523438 C 53.472656 23.363281 69.890625 15.730469 87.421875 10 C 88.101562 9.777344 88.78125 9.550781 89.480469 9.320312 C 125.59375 -2.367188 172.480469 -8.738281 202.828125 18.644531 Z M 202.828125 18.644531 "/>
<path style=" stroke:none;fill-rule:nonzero;fill:rgb(98.039216%,98.431373%,98.431373%);fill-opacity:1;" d="M 123.945312 61.296875 C 124.675781 61.292969 125.410156 61.289062 126.160156 61.285156 C 133.621094 61.359375 140.5 62.410156 147.289062 65.578125 C 147.8125 65.816406 148.335938 66.054688 148.875 66.300781 C 157.941406 70.507812 168.804688 76.53125 174.078125 85.382812 C 174.605469 87.789062 174.605469 87.789062 174.078125 90 C 172.257812 92.46875 171.0625 93.628906 168.089844 94.421875 C 164.347656 93.539062 162.214844 91.101562 159.507812 88.460938 C 150.058594 79.3125 137.273438 73.972656 124.136719 73.414062 C 108.398438 74.253906 96.382812 81.113281 85.816406 92.5 C 76.820312 103.269531 74.117188 117.078125 75.152344 130.769531 C 75.640625 133.722656 76.425781 136.421875 77.453125 139.230469 C 77.714844 139.980469 77.976562 140.730469 78.246094 141.503906 C 83.089844 154.308594 92.320312 163.6875 104.292969 170 C 107.0625 171.21875 109.835938 172.203125 112.730469 173.078125 C 113.664062 173.394531 114.597656 173.710938 115.558594 174.039062 C 127.789062 176.835938 141.257812 173.542969 151.777344 167.089844 C 157.96875 162.78125 162.925781 158.128906 166.074219 151.203125 C 169.015625 145.351562 174.65625 142.304688 180.214844 139.230469 C 180.722656 139.230469 181.226562 139.230469 181.75 139.230469 C 182.675781 148.40625 178.796875 157.375 173.3125 164.617188 C 162.675781 177 148.84375 185.058594 132.574219 187.5 C 114.292969 188.683594 97.882812 183.773438 83.875 171.652344 C 73.203125 162.066406 64.273438 147.652344 62.882812 133.078125 C 61.847656 113.683594 65.226562 96.570312 78.222656 81.539062 C 90.734375 68.5625 105.976562 61.398438 123.945312 61.296875 Z M 123.945312 61.296875 "/>
<path style=" stroke:none;fill-rule:nonzero;fill:rgb(98.431373%,98.431373%,98.431373%);fill-opacity:1;" d="M 191.382812 108.027344 C 194.019531 108.460938 194.019531 108.460938 195.886719 109.617188 C 197.199219 111.722656 197.855469 113.390625 197.707031 115.902344 C 194.164062 126.09375 178.199219 134.386719 169.128906 138.808594 C 167.71875 139.476562 166.300781 140.128906 164.878906 140.769531 C 164.410156 140.984375 163.941406 141.195312 163.460938 141.417969 C 154.554688 145.386719 142.875 146.460938 133.601562 143.15625 C 129.410156 141.0625 125.335938 137.773438 123.78125 133.183594 C 122.75 127.785156 122.433594 122.527344 125.335938 117.691406 C 128.480469 113.617188 132.964844 110.90625 138.035156 110 C 150.296875 109.371094 162.140625 111.046875 171.949219 119.089844 C 173.242188 120.140625 173.242188 120.140625 174.777344 119.964844 C 177.003906 118.945312 178.675781 117.539062 180.550781 115.960938 C 181.261719 115.371094 181.972656 114.78125 182.703125 114.171875 C 184.859375 112.324219 184.859375 112.324219 186.828125 110.183594 C 188.648438 108.460938 188.648438 108.460938 191.382812 108.027344 Z M 191.382812 108.027344 "/>
<path style=" stroke:none;fill-rule:nonzero;fill:rgb(5.098039%,6.27451%,7.45098%);fill-opacity:1;" d="M 150.308594 122.308594 C 154.71875 123.164062 158.640625 124.742188 162.578125 126.921875 C 162.324219 127.683594 162.070312 128.445312 161.808594 129.230469 C 154.960938 132.601562 147.058594 133.230469 139.570312 132.308594 C 137.332031 131.285156 137.332031 131.285156 135.734375 130 C 135.113281 127.546875 135.113281 127.546875 134.96875 125.382812 C 139.480469 121.03125 144.472656 121.804688 150.308594 122.308594 Z M 150.308594 122.308594 "/>
</g>
</svg>
