<svg version="1.1" xmlns="http://www.w3.org/2000/svg" width="326" height="325">
<path d="M0 0 C13.09359844 12.44197302 21.31463325 27.8693499 29.51171875 43.76171875 C29.89602051 44.50292969 30.28032227 45.24414062 30.67626953 46.0078125 C45.29531934 74.55779811 53.51086559 106.23521348 58.51171875 137.76171875 C58.67687988 138.7971582 58.84204102 139.83259766 59.01220703 140.89941406 C63.76734587 171.69225729 63.91706937 203.18014506 45.51171875 229.76171875 C14.78562148 271.35528403 -48.72640526 291.17699374 -97.92456055 298.86303711 C-100.10998351 299.18599269 -102.29720443 299.47981013 -104.48828125 299.76171875 C-105.17607666 299.85670654 -105.86387207 299.95169434 -106.57250977 300.04956055 C-114.81271454 301.04383615 -123.11007087 301.01936588 -131.39868164 301.05688477 C-133.15429778 301.06835938 -134.90988028 301.08873896 -136.6652832 301.1184082 C-161.87378362 301.54237904 -184.27079657 295.15347749 -203.15576172 277.61401367 C-210.16941569 270.79749902 -215.46597935 263.11360011 -220.48828125 254.76171875 C-221.20781982 253.56748291 -221.20781982 253.56748291 -221.94189453 252.34912109 C-251.29744875 203.17786007 -275.85573948 133.47849838 -261.73828125 75.44921875 C-254.87863807 49.62928389 -238.35103247 31.31939894 -215.63989258 18.04150391 C-194.76051197 6.13402038 -173.34944692 -3.78978116 -150.48828125 -11.23828125 C-149.60253418 -11.52928711 -148.71678711 -11.82029297 -147.80419922 -12.12011719 C-100.71189323 -27.31349275 -39.57295486 -35.59702219 0 0 Z " fill="#080B0E" transform="translate(264.48828125,24.23828125)"/>
<path d="M0 0 C0.95374512 -0.00563965 1.90749023 -0.0112793 2.89013672 -0.01708984 C12.61459812 0.08167814 21.58739771 1.44381157 30.4375 5.5625 C31.12158936 5.8733252 31.80567871 6.18415039 32.51049805 6.50439453 C44.32975071 11.97231659 58.49693533 19.80283533 65.375 31.3125 C66.0625 34.4375 66.0625 34.4375 65.375 37.3125 C63.00133542 40.52392855 61.44057732 42.02834605 57.5625 43.0625 C52.68230055 41.91421778 49.90426652 38.74431143 46.375 35.3125 C34.05094338 23.41657438 17.37828747 16.47936389 0.25 15.75 C-20.27109836 16.8406318 -35.94249236 25.75816344 -49.71875 40.5625 C-61.45358393 54.56195101 -64.97686974 72.5159682 -63.625 90.3125 C-62.98749993 94.15232601 -61.96408812 97.66240497 -60.625 101.3125 C-60.2846875 102.28703125 -59.944375 103.2615625 -59.59375 104.265625 C-53.27631269 120.91292601 -41.23943465 133.10515116 -25.625 141.3125 C-22.01549232 142.89842449 -18.39720166 144.17485188 -14.625 145.3125 C-13.408125 145.725 -12.19125 146.1375 -10.9375 146.5625 C5.01321693 150.19808435 22.57601469 145.91910815 36.29296875 137.52734375 C44.36663372 131.92589067 50.82875238 125.87873707 54.9375 116.875 C58.77242848 109.26959562 66.12671861 105.309459 73.375 101.3125 C74.035 101.3125 74.695 101.3125 75.375 101.3125 C76.58660891 113.2401166 71.52793558 124.90222774 64.375 134.3125 C50.50433467 150.41282377 32.46620372 160.88668572 11.25 164.0625 C-12.58905679 165.60050366 -33.98362178 159.21934926 -52.25 143.46118164 C-66.1706155 131.00005567 -77.8121995 112.25829363 -79.625 93.3125 C-80.97646222 68.10137664 -76.56705436 45.85636986 -59.625 26.3125 C-43.30568214 9.44588795 -23.43366729 0.13129156 0 0 Z " fill="#FAFBFB" transform="translate(161.625,79.6875)"/>
<path d="M0 0 C3.4375 0.5625 3.4375 0.5625 5.875 2.0625 C7.58700845 4.80171353 8.443573 6.96783066 8.25 10.234375 C3.62648306 23.48252931 -17.19229129 34.26340488 -29.02026367 40.0144043 C-30.85921665 40.88400886 -32.70684117 41.72919944 -34.5625 42.5625 C-35.17222656 42.84005127 -35.78195313 43.11760254 -36.41015625 43.40356445 C-48.0253778 48.56362036 -63.25160227 49.96068119 -75.34375 45.66796875 C-80.81397842 42.94248522 -86.12383735 38.66773983 -88.15234375 32.703125 C-89.4969654 25.6854806 -89.90841495 18.84717262 -86.125 12.5625 C-82.02491069 7.26452236 -76.17456194 3.74194889 -69.5625 2.5625 C-53.57573084 1.74510277 -38.13246556 3.92447894 -25.33984375 14.37890625 C-23.6532291 15.74774374 -23.6532291 15.74774374 -21.65234375 15.515625 C-18.74731104 14.19071289 -16.57053904 12.36119012 -14.125 10.3125 C-13.19816406 9.54421875 -12.27132812 8.7759375 -11.31640625 7.984375 C-8.50673274 5.58615906 -8.50673274 5.58615906 -5.9375 2.80078125 C-3.5625 0.5625 -3.5625 0.5625 0 0 Z " fill="#FBFBFB" transform="translate(249.5625,140.4375)"/>
<path d="M0 0 C5.75387919 1.11171556 10.86777921 3.16377272 16 6 C15.67 6.99 15.34 7.98 15 9 C6.07036675 13.38417133 -4.23529387 14.19898493 -14 13 C-16.91796875 11.671875 -16.91796875 11.671875 -19 10 C-19.8125 6.8125 -19.8125 6.8125 -20 4 C-14.11722984 -1.65866463 -7.60863403 -0.6561861 0 0 Z " fill="#0D1013" transform="translate(196,159)"/>
</svg>
