<?xml version="1.0" encoding="utf-8"?>
<svg xmlns="http://www.w3.org/2000/svg" viewBox="143.879 131.084 198.377 173.7065" width="250" height="250">
  <path d="M 237.55 249.832 L 225.606 209.888 L 199.338 237.159 L 189.18 202.769 L 258.17 131.084 C 177.716 131.084 149.621 168.761 157.264 200.183 L 172.433 259.197 C 180.379 286.931 151.709 301.437 143.879 304.693 C 159.049 305.095 170.982 304.322 181.527 301.097 C 201.865 295.451 215.26 281.625 237.55 249.832 Z" style="fill: rgb(232, 65, 0);"/>
  <path d="M 313.702 176.683 C 305.757 148.938 334.426 134.432 342.256 131.187 C 327.086 130.785 315.153 131.558 304.608 134.772 C 284.291 140.428 270.875 154.254 248.585 186.048 L 260.539 225.991 L 286.818 198.72 L 296.976 233.11 L 227.976 304.785 C 308.419 304.785 336.514 267.119 328.872 235.696 L 313.702 176.683 Z" style="fill: rgb(232, 65, 0);"/>
</svg>
