<?xml version="1.0" encoding="utf-8"?>
<svg xmlns="http://www.w3.org/2000/svg" viewBox="262 162.2189 41.3 36.0483" width="250" height="250">
  <path fill="#EAECF0" d="M 278.9 178.643 L 281.4 186.843 C 276.9 193.443 274 196.343 269.9 197.443 C 267.6 198.143 265.2 198.343 262 198.243 C 263.6 197.543 269.6 194.543 268 188.743 L 264.7 176.543 C 263.1 170.043 268.9 162.243 285.7 162.243 L 271.3 177.143 L 273.5 184.243 L 278.9 178.643 Z M 303.3 162.243 C 301.7 162.943 295.7 165.943 297.3 171.743 L 300.5 183.943 C 302.1 190.443 296.2 198.243 279.5 198.243 L 293.9 183.243 L 291.7 176.243 L 286.3 181.943 L 283.8 173.643 C 288.4 167.043 291.2 164.143 295.5 163.043 C 297.7 162.343 300.1 162.143 303.3 162.243 Z"/>
</svg>
