<svg version="1.1" id="Layer_1" xmlns="http://www.w3.org/2000/svg" xmlns:xlink="http://www.w3.org/1999/xlink" x="0px" y="0px"
	 width="100%" viewBox="0 0 1024 1024" enable-background="new 0 0 1024 1024" xml:space="preserve">
<path fill="#000000" opacity="1.000000" stroke="none" 
	d="
M333.271912,523.206055 
	C323.253143,540.539673 313.437317,557.568665 303.520569,574.538757 
	C301.950348,577.225769 301.201721,579.924438 301.225983,583.042603 
	C301.327026,596.039124 301.291992,609.036865 301.265991,622.034058 
	C301.242920,633.577454 296.652771,640.204163 285.757629,644.468262 
	C273.975189,649.079773 262.181427,653.662476 250.391846,658.255798 
	C232.068909,665.394653 217.677200,655.594238 217.663574,635.956299 
	C217.652145,619.459778 217.510162,602.960999 217.752884,586.468079 
	C217.827347,581.408020 216.520599,577.151978 214.020065,572.822754 
	C180.695511,515.126526 147.465302,457.375641 114.268417,399.605774 
	C106.168297,385.509766 112.162514,370.193420 127.210579,366.283386 
	C129.110626,365.789673 131.157196,365.694153 133.136002,365.693329 
	C196.622589,365.667023 260.109192,365.658295 323.595795,365.689545 
	C340.067535,365.697662 350.651611,382.482635 343.502563,397.460663 
	C340.566742,403.611542 336.948517,409.436554 333.646240,415.412811 
	C333.021027,416.544281 332.113281,417.580994 332.269775,419.732361 
	C339.106140,419.732361 345.866272,419.716980 352.626343,419.735321 
	C371.949402,419.787659 382.669434,437.891296 373.085083,454.603424 
	C359.992493,477.432861 346.667145,500.128784 333.271912,523.206055 
M135.959839,393.572815 
	C169.292587,451.659882 202.624069,509.747650 235.960892,567.832397 
	C238.245453,571.812866 239.421448,575.993225 239.386597,580.670410 
	C239.258728,597.835022 239.322067,615.001343 239.378769,632.166748 
	C239.384491,633.899353 238.734238,635.856873 240.243698,637.227417 
	C241.825455,637.950256 243.001160,637.071899 244.196426,636.607605 
	C254.906509,632.447021 265.550262,628.109009 276.326569,624.129333 
	C279.693298,622.886047 280.903870,621.144348 280.850616,617.566101 
	C280.662140,604.903076 280.782288,592.235413 280.794952,579.569519 
	C280.799866,574.642029 282.092346,570.167053 284.607880,565.831909 
	C307.602905,526.203796 330.484161,486.509583 353.355682,446.809937 
	C354.209167,445.328552 355.719849,443.896423 354.697723,441.542786 
	C311.944672,441.542786 269.130249,441.542786 225.511047,441.542786 
	C236.919373,461.225525 247.897202,480.165497 258.907135,499.160889 
	C261.105560,497.784729 261.741150,495.994568 262.643921,494.439392 
	C269.669708,482.336395 276.604065,470.180023 283.674744,458.103455 
	C286.548706,453.194794 290.543610,451.413361 295.311981,452.509888 
	C303.171814,454.317291 306.379547,461.649048 302.100616,469.196320 
	C292.652161,485.861572 283.079620,502.462311 273.219971,518.886658 
	C266.458344,530.150391 250.568008,529.693237 243.995743,518.153931 
	C229.979126,493.544128 216.131592,468.837891 202.256195,444.147919 
	C200.522125,441.062317 199.497681,437.799561 200.260178,434.115936 
	C202.323120,424.149780 208.899139,418.973816 220.068924,418.954376 
	C247.067184,418.907349 274.065582,418.939880 301.063934,418.953522 
	C303.757507,418.954895 306.339752,419.091187 307.984009,416.173096 
	C312.727020,407.755341 317.635376,399.430939 322.426361,391.039948 
	C322.971466,390.085205 323.690155,388.994965 322.800171,387.806793 
	C259.802979,387.806793 196.805771,387.806793 133.815063,387.806793 
	C133.708542,390.167633 134.904419,391.458313 135.959839,393.572815 
z"/>
<path fill="#000000" opacity="1.000000" stroke="none" 
	d="
M450.261230,526.248108 
	C447.328217,526.331787 446.077515,525.120850 445.993286,522.680969 
	C445.953094,521.515991 445.925232,520.349976 445.925110,519.184387 
	C445.920441,475.868286 445.917114,432.552155 445.920776,389.236053 
	C445.921417,381.656860 445.936005,381.650024 453.724915,381.651917 
	C472.050934,381.656342 490.377594,381.581390 508.702667,381.717712 
	C516.402893,381.774994 523.949829,383.120178 531.080566,386.163940 
	C544.346130,391.826416 550.353394,402.512604 551.248352,416.361176 
	C552.184937,430.853485 547.594299,442.597412 533.656860,449.235687 
	C533.065308,449.517456 532.504944,449.864807 531.866150,450.216858 
	C532.512207,451.482941 533.803284,451.381897 534.761047,451.796082 
	C552.501221,459.467133 558.563293,469.747070 557.278809,490.081055 
	C556.262390,506.173126 546.129639,518.486816 529.885193,523.129700 
	C522.656860,525.195679 515.224609,526.202942 507.707397,526.229675 
	C488.715240,526.297302 469.722717,526.255188 450.261230,526.248108 
M518.992981,464.380859 
	C518.228699,464.053925 517.488342,463.645752 516.696533,463.412170 
	C503.619019,459.554138 490.222107,461.867096 476.968628,461.424744 
	C474.373749,461.338135 474.358917,463.484161 474.357941,465.380493 
	C474.351654,477.541077 474.392578,489.701935 474.310760,501.862000 
	C474.291931,504.659546 475.413055,505.719696 478.169403,505.693787 
	C487.663757,505.604492 497.172607,505.953796 506.651093,505.551514 
	C518.664185,505.041718 525.947693,499.956482 527.981384,490.271393 
	C530.290527,479.274109 528.701721,469.728058 518.992981,464.380859 
M474.339478,417.505951 
	C474.337738,424.153687 474.347931,430.801453 474.327271,437.449127 
	C474.320679,439.576050 474.439606,441.699249 477.287598,441.614166 
	C488.220856,441.287628 499.243744,442.900848 510.076538,440.565338 
	C519.168945,438.605072 523.556885,432.259155 523.647949,421.750885 
	C523.736938,411.480591 519.552124,405.621796 510.499847,403.266907 
	C503.293396,401.392181 495.950165,402.298462 488.669250,402.230804 
	C474.348633,402.097656 474.347656,402.201202 474.339478,417.505951 
z"/>
<path fill="#000000" opacity="1.000000" stroke="none" 
	d="
M647.419617,557.768799 
	C640.623596,554.078064 635.619385,549.137634 632.079468,542.646057 
	C630.594543,539.922974 630.582825,538.152710 633.860168,536.872375 
	C638.510132,535.055786 643.053772,532.961182 647.609375,530.911133 
	C649.790588,529.929443 651.300964,530.220642 652.504517,532.488892 
	C660.479675,547.518860 690.316345,547.916565 700.914124,538.130371 
	C705.719360,533.693115 708.088928,528.098755 708.568665,521.804260 
	C708.971802,516.514038 708.651489,511.168701 708.651489,505.952881 
	C707.696533,505.266205 707.360291,505.973907 706.947449,506.428040 
	C694.923706,519.652893 680.115601,524.557800 662.722595,520.539734 
	C644.914795,516.425903 634.411438,504.480743 629.419800,487.422485 
	C624.391052,470.237305 626.230530,453.722137 636.014343,438.569519 
	C648.819031,418.738403 675.296936,411.935455 696.025513,422.729065 
	C700.694275,425.160126 704.354797,428.739838 708.806274,433.707672 
	C708.806274,429.930450 708.919922,427.370972 708.779114,424.825562 
	C708.580322,421.231506 710.032532,419.634247 713.736938,419.774414 
	C718.395691,419.950684 723.066406,419.809784 727.731934,419.814240 
	C735.286499,419.821472 735.302673,419.824402 735.300842,427.193939 
	C735.293396,457.019989 735.271851,486.846069 735.265991,516.672119 
	C735.265442,519.675659 734.930237,522.629272 734.539368,525.612610 
	C732.218689,543.326721 722.241638,555.078857 705.676147,560.459229 
	C686.266357,566.763428 666.710938,566.653076 647.419617,557.768799 
M676.354614,501.155975 
	C690.699524,503.330078 703.343506,495.978119 707.524170,483.046234 
	C710.089111,475.112091 710.447754,467.083466 708.574341,458.962189 
	C705.755249,446.741425 695.939514,438.592041 683.730652,438.310547 
	C668.738403,437.964874 659.142761,444.487274 655.561401,457.711945 
	C653.725464,464.491486 653.156555,471.390350 654.390564,478.404205 
	C656.406921,489.865021 664.581360,498.665680 676.354614,501.155975 
z"/>
<path fill="#000000" opacity="1.000000" stroke="none" 
	d="
M914.364258,447.996796 
	C914.716797,451.064606 915.291321,453.697510 915.300598,456.332367 
	C915.375977,477.653717 915.238098,498.976410 915.433228,520.296265 
	C915.474426,524.797852 914.195129,526.648865 909.528015,526.331421 
	C904.719543,526.004456 899.851318,525.982483 895.046448,526.334656 
	C890.036499,526.701843 888.823853,524.496582 888.869568,519.894958 
	C889.049866,501.740143 888.944153,483.582367 888.921997,465.425720 
	C888.918762,462.761963 888.901672,460.090302 888.705078,457.436066 
	C887.986084,447.726471 882.710876,441.915771 873.103210,440.123810 
	C855.680420,436.874237 843.423096,447.516205 843.602112,465.262207 
	C843.793396,484.232239 843.477783,503.207001 843.528992,522.179260 
	C843.537354,525.264648 842.419556,526.333679 839.458252,526.275146 
	C833.630493,526.159912 827.797913,526.166016 821.969421,526.257019 
	C818.731750,526.307617 817.619568,524.839417 817.625427,521.698975 
	C817.686218,489.216949 817.690979,456.734772 817.625671,424.252808 
	C817.619141,421.004730 818.946716,419.765961 822.075317,419.808380 
	C827.737610,419.885101 833.404724,419.915497 839.064392,419.764008 
	C842.498962,419.672089 843.948425,421.170074 843.863770,424.503571 
	C843.797729,427.101471 843.850525,429.702393 843.850525,433.425568 
	C858.402100,418.193726 874.848755,414.186584 893.372864,420.539246 
	C905.938232,424.848389 911.977051,434.954254 914.364258,447.996796 
z"/>
<path fill="#000000" opacity="1.000000" stroke="none" 
	d="
M579.667664,507.998779 
	C579.664856,480.692108 579.658752,453.885040 579.662415,427.078003 
	C579.663391,419.782074 579.676941,419.776062 587.175964,419.779938 
	C591.838013,419.782349 596.502869,419.911438 601.161194,419.785889 
	C604.590576,419.693481 606.005798,421.250610 605.979004,424.557892 
	C605.938477,429.552338 606.008484,434.547577 606.007568,439.542480 
	C606.002625,466.182983 606.001892,492.823486 605.971924,519.463989 
	C605.964539,526.029602 605.718689,526.250061 599.274780,526.271851 
	C594.279785,526.288757 589.281982,526.143494 584.290649,526.272949 
	C580.828735,526.362793 579.519958,524.861572 579.636902,521.484436 
	C579.786560,517.160583 579.669861,512.827515 579.667664,507.998779 
z"/>
<path fill="#000000" opacity="1.000000" stroke="none" 
	d="
M789.349854,492.000122 
	C789.341797,501.984222 789.162781,511.472656 789.402893,520.950439 
	C789.510193,525.188171 787.865967,526.500305 783.859192,526.325134 
	C778.378296,526.085693 772.879211,526.168518 767.390015,526.250122 
	C764.359314,526.295105 763.398071,524.970093 763.393433,522.006958 
	C763.344238,490.565613 763.167603,459.124481 763.082031,427.683136 
	C763.060974,419.946991 763.306580,419.791748 770.807495,419.802277 
	C775.133545,419.808350 779.473572,420.034302 783.781860,419.760895 
	C788.239685,419.478058 789.456177,421.352051 789.424194,425.611145 
	C789.259277,447.573090 789.348816,469.536926 789.349854,492.000122 
z"/>
<path fill="#000000" opacity="1.000000" stroke="none" 
	d="
M874.413574,608.448486 
	C872.417053,603.713135 870.581726,599.324890 868.746399,594.936584 
	C868.467407,595.006897 868.188354,595.077271 867.909363,595.147644 
	C867.909363,605.689270 867.914429,616.230896 867.905090,626.772522 
	C867.903198,628.935913 867.881165,631.100464 867.806824,633.262390 
	C867.728271,635.548462 866.860535,637.075500 864.217285,637.011780 
	C861.717651,636.951477 860.561768,635.769714 860.674438,633.286682 
	C860.704590,632.622620 860.656250,631.955322 860.656311,631.289551 
	C860.657349,616.307129 860.614136,601.324402 860.716187,586.342651 
	C860.730225,584.286987 859.542725,581.090820 863.187500,580.859314 
	C866.584351,580.643555 870.462830,579.228210 872.371094,584.244019 
	C876.450623,594.967163 880.904846,605.547913 885.220520,616.180969 
	C885.965759,618.016907 886.784180,619.823120 887.795410,622.169006 
	C889.994324,619.933350 890.621155,617.353088 891.569580,615.016724 
	C895.699280,604.844360 899.944946,594.711060 903.723450,584.407715 
	C905.577271,579.352722 909.361511,580.632324 912.781921,580.833374 
	C916.469727,581.050049 915.278076,584.229736 915.291931,586.276489 
	C915.393005,601.258240 915.357910,616.240967 915.335815,631.223389 
	C915.331787,633.984924 916.001099,637.184143 911.435242,637.061279 
	C906.905334,636.939514 907.704590,633.663757 907.692627,630.966553 
	C907.639404,618.994324 907.669617,607.021729 906.882446,594.791870 
	C902.935974,604.541016 898.987976,614.289612 895.044006,624.039856 
	C893.734253,627.277832 892.463623,630.531982 891.118042,633.754944 
	C890.552185,635.110291 890.113342,636.728271 888.251709,636.831848 
	C886.119019,636.950500 885.499939,635.213806 884.867676,633.698975 
	C881.407959,625.409851 878.000305,617.098938 874.413574,608.448486 
z"/>
<path fill="#000000" opacity="1.000000" stroke="none" 
	d="
M810.072510,600.000732 
	C810.081665,594.668335 810.039978,589.834839 810.125793,585.003662 
	C810.161255,583.003235 810.206543,580.683960 813.099304,580.749939 
	C820.901611,580.928162 828.770996,579.726318 836.494934,581.512268 
	C844.363464,583.331726 848.122498,587.733032 848.995117,595.673950 
	C849.673523,601.847595 846.092468,607.672913 839.677673,610.841370 
	C838.662903,611.342651 837.366333,611.392151 836.510742,613.143433 
	C841.448853,620.523315 846.554382,628.153442 851.921997,636.175293 
	C846.987427,637.781311 843.836731,637.356201 841.317566,633.318176 
	C837.793762,627.669495 833.685608,622.386841 830.122070,616.760925 
	C828.263000,613.825989 825.958496,612.891968 822.638977,613.005432 
	C819.518860,613.112061 818.078918,614.167969 818.182983,617.448425 
	C818.341309,622.442627 818.184326,627.445984 818.235168,632.444702 
	C818.262085,635.090881 817.687561,637.017761 814.475220,637.112610 
	C811.167725,637.210388 810.056519,635.490906 810.062622,632.495300 
	C810.084290,621.830383 810.072205,611.165466 810.072510,600.000732 
M825.565308,587.194580 
	C818.242615,587.259949 818.234497,587.259949 818.221558,594.543640 
	C818.216248,597.528442 818.259583,600.513367 818.271545,603.498230 
	C818.279480,605.489746 819.168457,606.651306 821.255798,606.608948 
	C825.384460,606.525085 829.530090,607.051636 833.624329,605.934326 
	C839.308533,604.383179 841.477539,601.117615 840.826538,594.763123 
	C840.338806,590.002319 837.535217,587.609070 831.970459,587.286865 
	C830.151123,587.181519 828.323486,587.219604 825.565308,587.194580 
z"/>
<path fill="#000000" opacity="1.000000" stroke="none" 
	d="
M451.538849,636.936890 
	C447.090790,637.642029 445.865753,635.556763 445.881317,631.850891 
	C445.952606,614.875549 445.915497,597.899902 445.936920,580.924316 
	C445.940216,578.319763 446.036499,575.813599 449.750702,575.835327 
	C453.557739,575.857605 453.352509,578.444885 453.349731,581.008972 
	C453.343140,587.132202 453.347595,593.255432 453.347595,600.223206 
	C459.945831,595.906433 466.145416,593.165588 473.489594,595.596069 
	C477.303284,596.858276 480.364380,598.936340 482.613892,602.168030 
	C488.501221,610.625793 487.525604,624.668274 480.892578,632.006775 
	C476.090729,637.319336 464.999969,640.638184 454.435760,633.015625 
	C452.622253,633.631897 453.918152,636.345642 451.538849,636.936890 
M466.477509,601.276978 
	C456.993683,601.947205 451.407440,610.249451 453.726685,620.227112 
	C455.539612,628.026611 460.630554,631.656738 468.671570,630.883362 
	C474.658386,630.307678 478.335754,625.594543 478.668732,618.070374 
	C479.129181,607.665466 475.547119,602.377563 466.477509,601.276978 
z"/>
<path fill="#000000" opacity="1.000000" stroke="none" 
	d="
M788.574951,634.892578 
	C778.200439,639.111572 768.475708,638.707214 760.115417,631.543640 
	C751.186096,623.892456 749.103760,613.432922 751.306641,602.406067 
	C755.398865,581.921387 776.216858,573.116943 792.392944,584.665894 
	C796.322571,587.471497 798.800781,590.955505 800.018921,595.480347 
	C796.957092,598.379761 794.633362,598.954651 792.034485,594.439880 
	C788.127808,587.653564 781.649963,585.355225 774.078491,586.389771 
	C767.083679,587.345581 762.735535,591.810303 760.504028,598.185120 
	C758.331360,604.392090 757.789734,610.799194 759.778442,617.266663 
	C761.842590,623.979492 765.969910,628.816589 772.851562,630.425842 
	C780.023987,632.103027 786.383484,630.165527 791.227844,624.303467 
	C792.073853,623.279785 792.986755,622.255371 793.570740,621.082886 
	C794.775024,618.664856 796.369446,618.007629 798.806702,619.309082 
	C801.884766,620.952576 800.219177,622.996704 799.169189,624.735657 
	C796.637329,628.929138 793.259705,632.337036 788.574951,634.892578 
z"/>
<path fill="#000000" opacity="1.000000" stroke="none" 
	d="
M566.001953,580.663574 
	C571.993774,580.660522 577.487244,580.591187 582.977417,580.694824 
	C584.679504,580.726868 586.922974,579.888550 587.868347,582.051880 
	C588.714050,583.987427 587.162537,585.511353 586.166992,587.000549 
	C577.844238,599.449463 569.485657,611.874451 561.157959,624.320007 
	C560.157410,625.815308 559.276428,627.390564 557.731873,629.927673 
	C565.229797,629.927673 571.946533,629.925232 578.663330,629.929443 
	C580.327454,629.930481 581.991760,629.972290 583.655762,629.961609 
	C586.215027,629.945190 587.802673,630.884033 587.704651,633.750793 
	C587.613770,636.409241 585.988342,637.074585 583.716064,637.076843 
	C572.731934,637.087646 561.746765,637.206299 550.764160,637.086487 
	C546.353271,637.038391 545.510925,634.937439 548.258789,630.821228 
	C553.616089,622.795837 559.142883,614.883606 564.590454,606.918274 
	C568.795715,600.769348 572.987244,594.611023 578.021606,587.230042 
	C570.582397,587.230042 564.370850,587.231018 558.159302,587.229431 
	C556.494995,587.229004 554.830322,587.195740 553.166565,587.222656 
	C550.901001,587.259338 549.201965,586.648499 549.143738,583.967346 
	C549.085083,581.269165 550.693604,580.630981 553.020264,580.661011 
	C557.180237,580.714722 561.341553,580.668396 566.001953,580.663574 
z"/>
<path fill="#000000" opacity="1.000000" stroke="none" 
	d="
M665.049255,601.747253 
	C655.071045,600.797607 651.329956,604.094910 651.252502,613.521606 
	C651.200439,619.854187 651.184021,626.187500 651.214966,632.520142 
	C651.228210,635.221924 650.494873,637.042419 647.323792,637.060242 
	C643.979065,637.079041 643.645264,634.987610 643.648621,632.410706 
	C643.671143,615.078430 643.676758,597.746216 643.644409,580.414001 
	C643.639526,577.799377 644.012634,575.798950 647.346741,575.824463 
	C650.534668,575.848877 651.264099,577.667419 651.249634,580.353760 
	C651.217529,586.334839 651.239685,592.316284 651.239685,598.679260 
	C654.045166,597.406311 656.327209,596.057129 658.791626,595.307007 
	C669.335876,592.097534 678.445862,598.941772 679.159302,610.915344 
	C679.594666,618.222534 679.229492,625.575928 679.287903,632.908020 
	C679.308655,635.515991 678.360596,636.975525 675.547058,637.045349 
	C672.341370,637.124939 671.637146,635.313965 671.656067,632.588440 
	C671.704712,625.589294 671.677063,618.589355 671.639038,611.590027 
	C671.614441,607.063110 670.170044,603.400513 665.049255,601.747253 
z"/>
<path fill="#000000" opacity="1.000000" stroke="none" 
	d="
M694.519287,632.538574 
	C687.346985,625.034790 685.842896,616.581177 689.303040,607.398499 
	C692.294678,599.459167 698.547180,595.365662 706.875610,594.756836 
	C716.537964,594.050537 724.318481,599.192017 727.516296,607.968201 
	C730.843872,617.100708 728.102722,628.083618 721.184814,633.336243 
	C713.632263,639.070740 703.028870,638.850769 694.519287,632.538574 
M695.425110,618.949280 
	C696.501587,624.939392 698.952881,629.775635 705.702026,630.811157 
	C714.679688,632.188538 720.374207,627.105530 721.281067,616.987671 
	C722.038696,608.535278 716.953979,601.788635 709.455811,601.297180 
	C701.263123,600.760254 696.002808,605.724915 695.383057,614.616333 
	C695.302185,615.776855 695.377258,616.948120 695.425110,618.949280 
z"/>
<path fill="#000000" opacity="1.000000" stroke="none" 
	d="
M609.684937,595.076294 
	C626.765503,593.601257 637.254944,605.162598 634.126587,621.443542 
	C632.230774,631.309814 624.008118,637.492249 612.963745,637.355469 
	C603.113281,637.233521 595.450684,630.700684 593.775696,620.996643 
	C591.563538,608.180908 597.121460,598.925720 609.684937,595.076294 
M621.679077,603.690430 
	C612.599487,598.538696 604.085205,601.590454 601.729492,610.944397 
	C600.830200,614.515381 600.851929,618.221619 601.688721,621.789368 
	C602.965576,627.233398 606.757629,630.372131 612.162476,630.897766 
	C618.430664,631.507385 623.188049,629.312622 625.181519,624.041321 
	C627.835754,617.022888 627.989624,610.089478 621.679077,603.690430 
z"/>
<path fill="#000000" opacity="1.000000" stroke="none" 
	d="
M585.036499,402.297577 
	C578.452698,397.852875 576.054993,392.359070 577.645752,385.999237 
	C579.223083,379.693115 584.244873,375.376068 590.755859,374.728973 
	C597.563721,374.052399 603.656311,377.384705 606.327026,383.245728 
	C608.742554,388.546844 607.671143,395.530609 603.818359,399.597809 
	C599.365601,404.298462 592.675476,405.338837 585.036499,402.297577 
z"/>
<path fill="#000000" opacity="1.000000" stroke="none" 
	d="
M765.046753,379.066315 
	C770.505859,374.377960 776.315918,373.411835 782.559875,376.048218 
	C787.757629,378.242859 790.600037,382.444641 791.244263,387.967896 
	C792.017456,394.596649 788.176025,400.766418 782.128784,403.073975 
	C775.637329,405.550995 767.930969,403.634003 763.979858,398.559296 
	C759.397949,392.674469 759.665466,386.176575 765.046753,379.066315 
z"/>
<path fill="#000000" opacity="1.000000" stroke="none" 
	d="
M494.221619,604.639648 
	C493.275757,601.621948 491.256165,599.344360 491.467194,596.250671 
	C496.062561,594.635071 498.855133,595.870300 500.618561,600.682556 
	C503.243561,607.845825 506.479492,614.785217 509.747925,622.511292 
	C512.812134,617.960144 513.742188,613.217102 515.672119,608.944885 
	C516.902893,606.220398 518.109070,603.443665 518.906372,600.573730 
	C520.231934,595.802917 523.059387,594.587463 528.239197,596.518555 
	C525.981201,602.050598 523.749084,607.534180 521.505554,613.013000 
	C516.904541,624.248718 512.180359,635.435913 507.752411,646.739319 
	C506.043640,651.101440 503.490967,652.221497 498.701721,650.187805 
	C500.659393,645.360535 502.454956,640.595642 504.527100,635.954224 
	C505.707458,633.310303 505.671082,630.996521 504.474792,628.345154 
	C500.986755,620.614319 497.727386,612.780273 494.221619,604.639648 
z"/>
</svg>
