<?xml version="1.0" encoding="utf-8"?>

<!DOCTYPE svg PUBLIC "-//W3C//DTD SVG 1.1//EN" "http://www.w3.org/Graphics/SVG/1.1/DTD/svg11.dtd">
<svg version="1.1" id="Layer_1" xmlns="http://www.w3.org/2000/svg" xmlns:xlink="http://www.w3.org/1999/xlink" x="0px" y="0px"
	 width="250" height="250" viewBox="0 0 642.109 720" enable-background="new 0 0 642.109 720" xml:space="preserve">
<path d="M640.609,320.675c0,0-402.339-9.977-640.609,116.914c0,0,252.532-99.805,640.609-89.816V320.675"/>
<path fill="#DC4447" d="M640.609,320.675c0,0-402.339-9.977-640.609,116.914c0,0,252.532-99.805,640.609-89.816V320.675"/>
<path fill="#1B4D88" d="M0,320.675c0,0,135.536,1.43,219.715,32.801c0,0-172.637-14.262-219.715-7.141V320.675"/>
<path fill="#DC4447" d="M0,364.874c0,0,97.016-4.273,155.508,1.426c0,0-141.247,17.109-155.508,24.23V364.874"/>
<g>
	<path fill="#1B4D88" d="M573.934,369.237h-2.059v0.047c-116.995,2.23-362.347,16.344-571.781,90.281v89.078h638.719v-1.715h1.906
		V369.237C640.719,369.237,615.84,368.472,573.934,369.237"/>
	<path fill="#1B4D88" d="M506.919,280.99c3.039-22.359,3.98-45.406,1.887-68.27c26.058-12.207,50.733-27.949,73.198-47.285
		c5.703,21.523,7.359,43.953,5.152,65.844C567.246,252.35,537.234,268.615,506.919,280.99 M396.516,226.193
		c-3.98-18.211-7.879-36.469-11.621-54.746c6.727-1.496,13.375-3.191,19.91-5.066c22.438-6.613,44.282-15.723,64.864-27.859
		c0.172,0.258,0.352,0.508,0.527,0.773c10.156,15.176,17.844,31.777,23.406,49.234C464.048,206.002,431.028,218.732,396.516,226.193
		z M279.067,230.725c-0.516-19.266,1.492-38.426,5.168-57.211c29.602,6.969,61.348,5.648,91.875-0.238
		c5.688,17.883,11.516,35.711,17.441,53.531C356.239,234.521,317.274,236.064,279.067,230.725z M293.692,135.955
		c3.348-10.602,7.207-21.133,11.605-31.367c16.418,2.051,33.156,2.238,49.781-0.508c5.426,18.859,11.094,37.582,16.938,56.23
		c-28.046,8.477-57.855,12.953-86.996,9.258C287.384,158.193,290.337,146.967,293.692,135.955z M424.942,28.018
		c3.148,0.402,6.273,0.922,9.387,1.496c-4.125,6.988-8.703,13.727-13.754,20.066c-9.379-8.242-19.18-16.02-29.262-23.312
		C402.563,25.838,413.825,26.393,424.942,28.018z M531.254,79.62c14.277,13.727,26.355,29.574,35.453,46.929
		c-17.602,21.48-38.863,40.082-62.667,55.504c-3.934-17.656-9.98-34.965-18.605-51.492c-0.277-0.551-0.59-1.078-0.875-1.617
		C502.399,116.451,519.7,101.264,531.254,79.62z M434.008,61.983c8.188-8.254,15.586-17.285,22.059-26.723l-1.086-0.68
		c17.746,5.473,34.559,13.555,49.84,23.789c-4.422,17.062-17.605,34.066-33.48,48.266C460.548,90.463,447.919,75.604,434.008,61.983
		z M372.036,100.233c15.062-4.301,29.047-11.551,41.707-20.762c15.324,11.801,29.434,25.031,41.731,39.91
		c-17.09,12.559-36.168,23.047-56.192,31.316c-5.652,2.27-11.43,4.414-17.293,6.406c-3.781-18.883-7.379-37.789-10.715-56.664
		C371.528,100.366,371.786,100.315,372.036,100.233z M362.598,46.815c13.176,7.035,26.031,14.719,38.281,23.219
		c-9.379,7.973-19.855,14.648-31.484,19.52C366.958,75.292,364.68,61.034,362.598,46.815z M352.598,95.366
		c-14.632,3.957-30.031,5.523-45.601,5.336c8.711-19.488,19.48-37.766,32.707-53.305C343.794,63.51,348.106,79.491,352.598,95.366z
		 M605.727,112.131C568.91,47.674,499.595,4.943,427.688,0.596c-71.812-5.473-143.765,27.129-186.199,82.379
		c-43.68,54.625-55.801,129.968-34.859,193.953c-16.484-65.402,1.176-137.02,45.434-185.113
		c17.348-19.578,38.508-35.156,61.645-46.227c-10.148,17.32-17.629,35.625-23.324,54.301c-7.27-0.598-14.527-1.496-21.699-2.645
		c6.891,1.848,13.922,3.492,21.035,4.863c-3.031,10.214-5.562,20.539-7.707,30.875c-2.25,11.672-4.047,23.48-5.23,35.324
		c-9.562-1.742-19.02-4.414-28.297-8.168c8.988,4.816,18.368,8.551,28.008,11.344c-1.781,19.742-1.789,39.543,0.766,58.988
		c-12.895-1.883-25.704-4.496-38.321-7.98c12.641,4.891,25.657,8.941,38.918,12.254c0.633,4.223,1.379,8.418,2.277,12.598
		c-0.434-4.086-0.715-8.168-0.902-12.254c38.625,9.48,79.386,12.234,119.75,7.992c1.23,3.672,2.461,7.348,3.691,11.023
		c-0.824-3.707-1.648-7.43-2.469-11.145c34.316-3.727,68.297-12.543,100.403-26.543c4.023,21.246,5.422,43.277,4.719,65.215
		c-3.961,1.598-7.934,3.148-11.879,4.622c-37.973,13.586-78.395,21.996-119.625,22.176c40.922,5.16,83.086,2.109,124.098-6.805
		c27.062-6.734,54.128-14.203,79.772-27.806c-3.547,10.012-7.965,19.673-13.273,28.782c25.941-0.766,46.477-0.902,59.746-0.871
		C645.516,238.9,638.691,167.998,605.727,112.131z"/>
</g>
<polyline fill="#FFFFFF" points="23.316,491.761 23.316,500.608 34.262,500.608 34.262,504.198 23.316,504.198 23.316,519.651 
	19.391,519.651 19.391,488.171 34.641,488.171 34.641,491.761 23.316,491.761 "/>
<path fill="#FFFFFF" d="M52.688,487.503c-9.027,0-16.508,7.391-16.508,16.402c0,9.352,7.402,16.406,16.508,16.406
	s16.5-7.055,16.5-16.406C69.188,494.894,61.707,487.503,52.688,487.503 M52.688,516.64c-6.812,0-12.574-5.547-12.574-12.734
	c0-6.922,5.176-12.727,12.574-12.727c7.391,0,12.574,5.805,12.574,12.727C65.262,511.093,59.5,516.64,52.688,516.64z"/>
<path fill="#FFFFFF" d="M81.809,505.952c4.547-0.535,7.559-4.297,7.559-8.809c0-3.008-1.508-5.965-4.141-7.516
	c-2.5-1.418-5.516-1.457-8.313-1.457h-4.762v31.48h3.926v-13.316h1.629l9.278,13.316h4.762L81.809,505.952 M76.078,491.679h1.047
	c3.887,0,8.571,0.707,8.571,5.637c0,5.008-4.348,5.758-8.364,5.758h-1.254V491.679z"/>
<polyline fill="#FFFFFF" points="94.004,488.171 110.922,488.171 110.922,491.761 97.93,491.761 97.93,500.569 110.551,500.569 
	110.551,504.155 97.93,504.155 97.93,516.054 110.922,516.054 110.922,519.651 94.004,519.651 94.004,488.171 "/>
<rect x="114.809" y="488.171" fill="#FFFFFF" width="3.926" height="31.48"/>
<path fill="#FFFFFF" d="M152.493,503.788v1.246c0,8.645-6.098,15.277-14.918,15.277c-8.812,0-15.918-7.598-15.918-16.312
	c0-9.066,7.273-16.496,16.34-16.496c4.883,0,9.738,2.219,12.82,6.098l-2.754,2.625c-2.258-3.086-6.055-5.133-9.898-5.133
	c-7.062,0-12.574,5.719-12.574,12.773c0,6.594,5.434,12.859,12.234,12.859c4.895,0,10.156-4.215,10.328-9.348h-8.148v-3.59H152.493"
	/>
<polyline fill="#FFFFFF" points="155.165,486.671 178.813,511.429 178.813,488.171 182.739,488.171 182.739,520.944 
	159.094,496.187 159.094,519.651 155.165,519.651 155.165,486.671 "/>
<path fill="#FFFFFF" d="M217.661,511.757l3.598,7.895h4.223l-15.043-32.812l-15.039,32.812h4.215l3.598-7.895H217.661
	 M216.036,508.163h-11.199l5.602-12.73L216.036,508.163z"/>
<path fill="#FFFFFF" d="M255.973,503.788v1.246c0,8.645-6.098,15.277-14.91,15.277c-8.82,0-15.922-7.598-15.922-16.312
	c0-9.066,7.27-16.496,16.34-16.496c4.883,0,9.734,2.219,12.824,6.098l-2.758,2.625c-2.258-3.086-6.055-5.133-9.898-5.133
	c-7.059,0-12.574,5.719-12.574,12.773c0,6.594,5.426,12.859,12.234,12.859c4.895,0,10.156-4.215,10.32-9.348h-8.141v-3.59H255.973"
	/>
<path fill="#FFFFFF" d="M268.677,505.952c4.551-0.535,7.559-4.297,7.559-8.809c0-3.008-1.5-5.965-4.133-7.516
	c-2.508-1.418-5.516-1.457-8.312-1.457h-4.766v31.48h3.93v-13.316h1.629l9.277,13.316h4.758L268.677,505.952 M262.954,491.679h1.047
	c3.883,0,8.559,0.707,8.559,5.637c0,5.008-4.344,5.758-8.352,5.758h-1.254V491.679z"/>
<rect x="280.751" y="488.171" fill="#FFFFFF" width="3.922" height="31.48"/>
<path fill="#FFFFFF" d="M312.665,494.187c-2.254-2.004-5.344-3.094-8.309-3.094c-7.062,0-12.453,5.891-12.453,12.852
	c0,6.898,5.352,12.781,12.375,12.781c3.086,0,6.051-1.168,8.387-3.258v4.637c-2.418,1.422-5.512,2.207-8.266,2.207
	c-8.988,0-16.422-7.133-16.422-16.234c0-9.309,7.48-16.574,16.75-16.574c2.758,0,5.559,0.668,7.938,2.125V494.187"/>
<path fill="#FFFFFF" d="M319.899,488.171v18.574c0,5.137,1.547,9.895,7.602,9.895c6.059,0,7.605-4.758,7.605-9.895v-18.574h3.926
	v19.914c0,6.934-4.305,12.227-11.531,12.227s-11.527-5.293-11.527-12.227v-19.914H319.899"/>
<polyline fill="#FFFFFF" points="347.552,516.054 357.118,516.054 357.118,519.651 343.626,519.651 343.626,488.171 
	347.552,488.171 347.552,516.054 "/>
<polyline fill="#FFFFFF" points="366.11,519.651 362.184,519.651 362.184,491.761 354.708,491.761 354.708,488.171 373.59,488.171 
	373.59,491.761 366.11,491.761 366.11,519.651 "/>
<path fill="#FFFFFF" d="M379.231,488.171v18.574c0,5.137,1.543,9.895,7.602,9.895c6.062,0,7.602-4.758,7.602-9.895v-18.574h3.934
	v19.914c0,6.934-4.312,12.227-11.535,12.227c-7.227,0-11.531-5.293-11.531-12.227v-19.914H379.231"/>
<path fill="#FFFFFF" d="M412.61,505.952c4.555-0.535,7.562-4.297,7.562-8.809c0-3.008-1.504-5.965-4.137-7.516
	c-2.508-1.418-5.516-1.457-8.316-1.457h-4.758v31.48h3.926v-13.316h1.629l9.277,13.316h4.754L412.61,505.952 M406.887,491.679h1.047
	c3.887,0,8.562,0.707,8.562,5.637c0,5.008-4.348,5.758-8.359,5.758h-1.25V491.679z"/>
<path fill="#FFFFFF" d="M443.735,511.757l3.59,7.895h4.223l-15.04-32.812l-15.043,32.812h4.223l3.59-7.895H443.735 M442.11,508.163
	h-11.204l5.602-12.73L442.11,508.163z"/>
<polyline fill="#FFFFFF" points="457.274,516.054 466.841,516.054 466.841,519.651 453.349,519.651 453.349,488.171 
	457.274,488.171 457.274,516.054 "/>
<path fill="#FFFFFF" d="M493.825,494.136c-1.168-1.953-2.672-2.957-5.055-2.957c-2.504,0-5.262,1.707-5.262,4.469
	c0,2.461,2.422,3.754,4.383,4.504l2.258,0.879c4.465,1.754,7.812,4.215,7.812,9.48c0,5.715-4.43,9.801-10.07,9.801
	c-5.094,0-9.059-3.758-9.734-8.805l3.973-0.836c-0.043,3.469,2.715,5.969,6.102,5.969c3.379,0,5.805-2.836,5.805-6.129
	c0-3.383-2.719-4.848-5.434-5.977l-2.168-0.918c-3.598-1.543-6.852-3.59-6.852-7.969c0-5.098,4.512-8.145,9.27-8.145
	c3.512,0,6.395,1.711,8.109,4.758L493.825,494.136"/>
<polyline fill="#FFFFFF" points="501.423,488.171 518.353,488.171 518.353,491.761 505.356,491.761 505.356,500.569 
	517.974,500.569 517.974,504.155 505.356,504.155 505.356,516.054 518.353,516.054 518.353,519.651 501.423,519.651 
	501.423,488.171 "/>
<path fill="#FFFFFF" d="M532.012,505.952c4.555-0.535,7.559-4.297,7.559-8.809c0-3.008-1.504-5.965-4.133-7.516
	c-2.516-1.418-5.52-1.457-8.316-1.457h-4.765v31.48h3.934v-13.316h1.624l9.277,13.316h4.758L532.012,505.952 M526.29,491.679h1.038
	c3.887,0,8.566,0.707,8.566,5.637c0,5.008-4.344,5.758-8.355,5.758h-1.249V491.679z"/>
<polyline fill="#FFFFFF" points="554.613,511.468 563.973,488.171 568.273,488.171 554.613,521.319 540.91,488.171 545.207,488.171 
	554.613,511.468 "/>
<rect x="569.98" y="488.171" fill="#FFFFFF" width="3.93" height="31.48"/>
<path fill="#FFFFFF" d="M601.902,494.187c-2.258-2.004-5.344-3.094-8.312-3.094c-7.059,0-12.449,5.891-12.449,12.852
	c0,6.898,5.352,12.781,12.359,12.781c3.098,0,6.062-1.168,8.402-3.258v4.637c-2.418,1.422-5.516,2.207-8.273,2.207
	c-8.98,0-16.414-7.133-16.414-16.234c0-9.309,7.477-16.574,16.75-16.574c2.754,0,5.559,0.668,7.938,2.125V494.187"/>
<polyline fill="#FFFFFF" points="605.746,488.171 622.664,488.171 622.664,491.761 609.672,491.761 609.672,500.569 
	622.293,500.569 622.293,504.155 609.672,504.155 609.672,516.054 622.664,516.054 622.664,519.651 605.746,519.651 
	605.746,488.171 "/>
<path fill="#1B4D88" d="M2.289,595.37h24.859v67.95c0,14.977,1.348,36.074,22.484,36.074c21.141,0,22.492-21.098,22.492-36.074
	v-67.95h24.86v72.622c0,29.625-13.191,52.008-47.352,52.008c-34.152,0-47.344-22.383-47.344-52.008V595.37"/>
<path fill="#1B4D88" d="M248.817,622.101c-4.734-6.125-10.824-9.984-19.105-9.984c-7.949,0-15.559,5.793-15.559,13.688
	c0,20.446,50.563,11.906,50.563,52.653c0,24.312-15.899,41.543-41.938,41.543c-17.586,0-30.434-9.668-39.23-23.668l16.066-14.973
	c3.379,9.336,12.34,17.703,22.992,17.703c10.152,0,16.406-8.207,16.406-17.551c0-12.555-12.172-16.094-22.152-19.801
	c-16.398-6.441-28.406-14.332-28.406-33.169c0-20.133,15.723-36.391,37.203-36.391c11.324,0,27.051,5.316,34.833,13.527
	L248.817,622.101"/>
<path fill="#1B4D88" d="M351.954,716.777h35.34c36.359,0,61.723-26.406,61.723-60.543c0-34.622-24.688-60.864-61.555-60.864h-35.508
	V716.777 M376.813,615.976h4.062c28.234,0,42.438,13.691,42.438,40.099c0,23.992-11.84,40.094-42.438,40.094h-4.062V615.976z"/>
<path fill="#1B4D88" d="M605.758,691.172l9.805,25.605h26.547l-48.355-124.626h-19.277l-49.714,124.626h26.206l10.488-25.605
	H605.758 M598.82,671.852h-30.262l14.031-44.118h0.34L598.82,671.852z"/>
</svg>
