<svg xmlns="http://www.w3.org/2000/svg" width="250" height="250" viewBox="0 0 74 64" fill="none"><g><path fill-rule="evenodd" clip-rule="evenodd" d="M32.6655 0C27.9646 0 23.7464 2.88418 22.0457 7.26138L0 64H16.7471L34.0998 19.3399H34.1071C34.5425 18.2513 35.6079 17.4823 36.8531 17.4823C38.0984 17.4823 39.1637 18.2513 39.5993 19.3399H41.9113V10.2808H37.6195L41.6142 0H32.6655Z" fill="#2545D3"></path><path fill-rule="evenodd" clip-rule="evenodd" d="M22.0471 7.26141C23.6788 3.06214 27.6273 0.236967 32.0962 0.0142128L32.0906 7.62939e-06H32.6669H39.1094H41.3259C46.0267 7.62939e-06 50.2449 2.88418 51.9457 7.26139L73.9913 64H56.9578L35.5798 8.97994C34.3558 6.2835 31.6373 4.4079 28.4802 4.4079C25.3154 4.4079 22.5913 6.29271 21.3716 8.99982L22.0471 7.26141Z" fill="#566DE8"></path></g></svg>