<svg xmlns="http://www.w3.org/2000/svg" xmlns:xlink="http://www.w3.org/1999/xlink" width="250px" height="250px" viewBox="0 0 250 250" version="1.1">
<g id="surface1">
<path style=" stroke:none;fill-rule:nonzero;fill:rgb(0%,0%,0%);fill-opacity:1;" d="M 0 125.109375 L 0 250.222656 L 250.222656 250.222656 L 250.222656 0 L 0 0 Z M 38.8125 109.542969 C 40.589844 110.429688 42.816406 112.988281 43.929688 115.324219 C 45.707031 118.996094 45.707031 119.882812 44.371094 123.886719 C 42.148438 130.117188 37.03125 133.453125 29.359375 133.453125 L 23.464844 133.453125 L 23.132812 137.457031 C 22.6875 142.347656 19.90625 144.683594 16.902344 142.792969 C 15.234375 141.679688 15.011719 139.457031 14.679688 126.222656 C 14.457031 115.878906 14.789062 110.429688 15.679688 109.429688 C 17.460938 107.207031 34.585938 107.316406 38.8125 109.542969 Z M 57.605469 109.207031 C 58.496094 110.097656 58.941406 115.4375 58.941406 125.777344 C 58.941406 142.125 58.273438 144.015625 53.160156 143.238281 C 50.601562 142.90625 50.601562 142.683594 50.265625 126.78125 C 50.15625 117.992188 50.265625 110.097656 50.488281 109.320312 C 51.269531 107.539062 55.828125 107.429688 57.605469 109.207031 Z M 72.730469 115.878906 C 73.953125 120.105469 75.179688 123.441406 75.511719 123.441406 C 75.84375 123.441406 77.179688 120.105469 78.402344 115.878906 C 80.515625 108.875 80.851562 108.429688 83.851562 108.429688 C 86.742188 108.429688 87.300781 108.984375 89.191406 114.546875 C 90.300781 117.882812 91.527344 121.441406 91.859375 122.332031 C 92.304688 123.332031 93.527344 120.886719 94.972656 116.214844 C 97.085938 109.320312 97.753906 108.429688 100.421875 108.097656 C 102.425781 107.875 103.648438 108.320312 104.203125 109.542969 C 105.09375 111.878906 96.976562 140.792969 94.972656 142.460938 C 91.75 145.128906 89.523438 143.015625 86.632812 134.675781 L 83.851562 126.558594 L 81.515625 134.121094 C 79.070312 142.347656 76.847656 144.796875 73.730469 142.792969 C 71.398438 141.347656 62.722656 112.210938 63.835938 109.429688 C 64.28125 108.320312 65.503906 107.875 67.503906 108.097656 C 70.285156 108.429688 70.839844 109.207031 72.730469 115.878906 Z M 117.328125 125.667969 L 117.328125 142.90625 L 114.65625 143.238281 C 109.875 143.90625 108.984375 141.125 108.984375 125.109375 C 108.984375 109.429688 109.652344 107.539062 114.546875 108.097656 L 117.328125 108.429688 Z M 132.785156 109.652344 C 133.117188 110.652344 133.453125 113.769531 133.453125 116.546875 L 133.453125 121.664062 L 140.570312 114.65625 C 145.90625 109.320312 148.242188 107.761719 150.246094 108.097656 C 155.136719 108.761719 154.25 112.878906 148.019531 118.996094 C 144.90625 121.996094 142.347656 124.890625 142.347656 125.332031 C 142.347656 125.777344 144.90625 128.78125 148.019531 131.894531 C 152.914062 136.789062 153.691406 138.121094 153.023438 140.570312 C 151.914062 145.238281 148.242188 144.238281 141.015625 137.121094 C 134.339844 130.449219 133.785156 130.558594 133.230469 137.789062 C 132.785156 142.347656 130.003906 144.574219 127.113281 142.792969 C 125.445312 141.679688 125.109375 139.457031 124.777344 127.222656 C 124.445312 109.429688 124.667969 107.875 128.890625 107.875 C 130.78125 107.875 132.339844 108.539062 132.785156 109.652344 Z M 228.089844 110.429688 C 232.207031 113.101562 236.878906 121.21875 236.878906 125.667969 C 236.878906 129.78125 232.429688 137.898438 228.757812 140.570312 C 225.757812 142.792969 224.089844 142.90625 198.511719 142.90625 C 172.929688 142.90625 171.261719 142.792969 168.371094 140.570312 C 162.476562 136.230469 160.699219 132.671875 160.699219 125.667969 C 160.699219 118.328125 162.699219 114.65625 169.039062 110.320312 C 172.597656 107.984375 173.597656 107.875 198.511719 107.875 C 223.421875 107.875 224.421875 107.984375 228.089844 110.429688 Z M 228.089844 110.429688 "/>
<path style=" stroke:none;fill-rule:nonzero;fill:rgb(0%,0%,0%);fill-opacity:1;" d="M 23.355469 120.664062 C 23.355469 125.667969 23.355469 125.667969 27.359375 125.667969 C 32.585938 125.667969 35.585938 123.886719 35.585938 120.886719 C 35.585938 117.105469 33.472656 115.660156 28.136719 115.660156 L 23.355469 115.660156 Z M 23.355469 120.664062 "/>
<path style=" stroke:none;fill-rule:nonzero;fill:rgb(0%,0%,0%);fill-opacity:1;" d="M 172.710938 113.878906 C 163.367188 118.105469 163.480469 132.785156 172.929688 137.234375 C 176.269531 138.902344 180.160156 139.125 200.289062 138.789062 L 223.753906 138.457031 L 227.535156 134.339844 C 232.875 128.449219 232.875 122.886719 227.535156 116.992188 L 223.753906 112.878906 L 199.957031 112.65625 C 181.496094 112.433594 175.488281 112.65625 172.710938 113.878906 Z M 186.945312 118.996094 C 191.503906 121.441406 187.832031 129.003906 182.160156 129.003906 C 180.9375 129.003906 180.160156 129.894531 180.160156 131.226562 C 180.160156 132.449219 179.382812 133.453125 178.492188 133.453125 C 177.15625 133.453125 176.824219 131.894531 176.824219 125.667969 L 176.824219 117.882812 L 180.828125 117.882812 C 182.941406 117.882812 185.71875 118.4375 186.945312 118.996094 Z M 202.179688 119.21875 C 202.957031 119.996094 203.515625 121.550781 203.515625 122.886719 C 203.515625 124.222656 202.957031 125.777344 202.179688 126.558594 C 201.179688 127.558594 201.179688 128.226562 202.179688 129.226562 C 202.957031 130.003906 203.515625 131.226562 203.515625 132.007812 C 203.515625 134.230469 200.398438 133.675781 198.84375 131.226562 C 196.953125 128.226562 193.503906 128.335938 193.503906 131.339844 C 193.503906 132.671875 192.949219 133.453125 192.171875 133.230469 C 190.726562 132.671875 189.5 122.21875 190.613281 119.441406 C 191.390625 117.4375 200.289062 117.328125 202.179688 119.21875 Z M 220.085938 120.773438 C 221.417969 122.441406 222.421875 124.554688 222.421875 125.667969 C 222.421875 126.78125 221.417969 128.890625 220.085938 130.558594 C 218.304688 132.785156 216.859375 133.453125 213.523438 133.453125 C 210.1875 133.453125 208.742188 132.785156 206.960938 130.558594 C 205.628906 128.890625 204.625 126.78125 204.625 125.667969 C 204.625 124.554688 205.628906 122.441406 206.960938 120.773438 C 210.1875 116.660156 216.859375 116.660156 220.085938 120.773438 Z M 220.085938 120.773438 "/>
<path style=" stroke:none;fill-rule:nonzero;fill:rgb(0%,0%,0%);fill-opacity:1;" d="M 180.160156 123.441406 C 180.160156 125.222656 180.714844 125.777344 182.71875 125.445312 C 184.050781 125.222656 185.164062 124.332031 185.164062 123.441406 C 185.164062 122.554688 184.050781 121.664062 182.71875 121.441406 C 180.714844 121.109375 180.160156 121.664062 180.160156 123.441406 Z M 180.160156 123.441406 "/>
<path style=" stroke:none;fill-rule:nonzero;fill:rgb(0%,0%,0%);fill-opacity:1;" d="M 193.726562 123.109375 C 194.171875 125.332031 196.730469 126.113281 198.953125 124.667969 C 201.066406 123.332031 199.398438 121.21875 196.175781 121.21875 C 194.0625 121.21875 193.394531 121.773438 193.726562 123.109375 Z M 193.726562 123.109375 "/>
<path style=" stroke:none;fill-rule:nonzero;fill:rgb(0%,0%,0%);fill-opacity:1;" d="M 209.851562 121.996094 C 208.628906 123.21875 208.964844 127.335938 210.410156 128.78125 C 213.746094 132.117188 218.75 128.78125 217.527344 124 C 216.96875 121.886719 216.082031 121.21875 213.632812 121.21875 C 211.964844 121.21875 210.1875 121.550781 209.851562 121.996094 Z M 209.851562 121.996094 "/>
</g>
</svg>
