<svg xmlns="http://www.w3.org/2000/svg" width="250" height="250" fill="none"><g fill="#34313F" clip-path="url(#a)"><path d="M129.633 137.737h24.094c6.852 0 11.187-3.77 11.187-9.828 0-5.712-4.335-9.828-11.187-9.828h-24.094c-.798 0-1.481.683-1.481 1.374v16.908c.108.798.676 1.374 1.481 1.374Zm0 38.959h24.892c7.65 0 12.216-3.886 12.216-10.742 0-5.943-4.336-10.742-12.216-10.742h-24.892c-.798 0-1.481.684-1.481 1.375v18.627c.108.913.676 1.482 1.481 1.482Z"/><path d="m217.783 29.422-71.253 71.069h11.648c18.154 0 28.889 11.425 28.889 23.878 0 9.828-6.622 17.023-13.704 20.225-1.143.46-1.143 2.057.115 2.51 8.218 3.202 14.042 11.771 14.042 21.821 0 14.166-9.476 25.476-27.861 25.476h-50.467c-.798 0-1.48-.683-1.48-1.374v-53.816l-78.22 77.933c-1.029 1.029-.346 2.856 1.143 2.856h188.061c.683 0 1.258-.568 1.258-1.259V30.451c.338-1.259-1.258-1.942-2.171-1.029Z"/></g><defs><clipPath id="a"><path fill="#fff" d="M29 29h191v191H29z"/></clipPath></defs></svg>