<?xml version="1.0" encoding="utf-8"?>
<!-- Generator: Adobe Illustrator 19.2.1, SVG Export Plug-In . SVG Version: 6.00 Build 0)  -->
<svg version="1.1" id="layer" xmlns="http://www.w3.org/2000/svg" xmlns:xlink="http://www.w3.org/1999/xlink" x="0px" y="0px"
	 viewBox="0 0 652 652" style="enable-background:new 0 0 652 652;" xml:space="preserve">
<g id="logo-layer">
	<g id="Logo_Main">
		<path d="M228.6,354.8l-4.7-13.7h-25.7c-0.7,2.1-1.4,4.5-2.3,6.9l-2.1,6.8h-12.5l23.1-63.8h13.4l22.4,63.8H228.6z M210.9,304.8
			c-1.6,4.3-3.1,8.5-4.5,12.7s-2.9,8.3-4.7,13h18.4L210.9,304.8z"/>
		<path d="M277.5,291.1h-23.4v63.6h10.8v-21.5h12.7c12.8,0,19.1-5.4,19.1-16.5v-9C296.5,296.7,290.3,291.3,277.5,291.1 M264.8,301.4
			h12.3c7.3,0,8.5,1.9,8.5,6.6v8.8c0,4.5-1.2,6.6-8.5,6.6h-12.3V301.4z"/>
		<path d="M332.6,291.1h-23.4v63.6H320v-21.5h12.7c12.8,0,19.1-5.4,19.1-16.5v-9C351.7,296.7,345.5,291.3,332.6,291.1 M320,301.4
			h12.3c7.3,0,8.5,1.9,8.5,6.6v8.8c0,4.5-1.2,6.6-8.5,6.6H320V301.4z"/>
		<polygon points="383.8,348.5 413.1,348.5 413.1,355 377.4,355 377.4,291.3 383.8,291.3 		"/>
		<path d="M469.4,336.4c0,10.6-6.6,19.2-23.1,19.2c-16.5,0-23.1-8.7-23.1-19.2v-27.1c0-10.6,6.6-19.2,23.1-19.2
			c16.5,0,23.1,8.7,23.1,19.2V336.4z M429.4,336.4c0,9.2,5.5,14.2,17.3,14.2c11.8,0,17.3-5.2,17.3-14.2v-27.1
			c0-9.2-5.5-14.2-17.3-14.2s-17.3,5.2-17.3,14.2L429.4,336.4z"/>
		<polygon points="479.3,291.3 485.6,291.3 506.2,348.5 526.8,291.3 533.3,291.3 510.4,355 502,355 		"/>
		<rect x="546.6" y="291.3" width="6.4" height="63.6"/>
		<polygon points="583.9,299 583.9,355 577.8,355 577.8,291.3 587.2,291.3 614.9,345.8 614.9,291.3 621,291.3 621,355 613.4,355 		
			"/>
		<path d="M133.2,346.5c-7.9,0-14.4,6.4-14.4,14.4c0,7.9,6.4,14.4,14.4,14.4s14.4-6.4,14.4-14.4
			C147.6,352.9,141.2,346.5,133.2,346.5C133.2,346.5,133.2,346.5,133.2,346.5 M141.9,361c0,4.7-3.9,8.5-8.7,8.5
			c-4.7,0-8.5-3.9-8.5-8.7c0-4.7,3.9-8.5,8.7-8.5C138.1,352.4,141.9,356.3,141.9,361L141.9,361"/>
		<path d="M35.4,346.5C27.4,346.5,21,353,21,361c0,7.9,6.4,14.4,14.4,14.4S49.8,369,49.8,361C49.8,353,43.4,346.5,35.4,346.5
			 M44.1,361c-0.1,4.7-3.9,8.5-8.7,8.5c-4.7-0.1-8.5-3.9-8.5-8.7c0-4.7,3.9-8.5,8.7-8.5S44.1,356.3,44.1,361L44.1,361"/>
		<path d="M84.3,267.4c-7.9,0-14.4,6.4-14.4,14.4s6.4,14.4,14.4,14.4s14.4-6.4,14.4-14.4c0,0,0,0,0,0
			C98.7,273.9,92.3,267.4,84.3,267.4C84.3,267.4,84.3,267.4,84.3,267.4 M93,281.8c0,4.7-3.8,8.5-8.5,8.5c-4.7,0-8.5-3.8-8.5-8.5
			c0-4.7,3.8-8.5,8.5-8.5l0,0C89.2,273.3,93,277.1,93,281.8L93,281.8"/>
		<path d="M128,348.2l-31.9-57.6l-0.3-0.5l-0.3,0.5c-1.1,1.4-2.4,2.5-4,3.3l-0.3,0.2l0.2,0.3l28.3,51c-11.4-2.4-23-3.5-34.7-3.5
			c-12-0.2-24,0.9-35.7,3.5l28.3-50.8l0.2-0.3l-0.3-0.2c-1.5-0.8-2.9-1.9-4-3.3l-0.3-0.5l-0.3,0.5l-31.9,57.4l-0.2,0.3l0.5,0.2
			c1.6,0.5,2.9,2.4,4.3,3.6l0.2,0.2l0.2-0.2h0.2c12.8-3.1,25.9-4.6,39-4.3c12.8-0.2,25.6,1.2,38,4.3l0.2,0.3l0.3-0.3l0,0
			c1.4-1.2,2.8-3.1,4.3-3.6l0.5-0.2L128,348.2z"/>
	</g>
</g>
</svg>
