<svg xmlns="http://www.w3.org/2000/svg" width="250" height="250" viewBox="0 0 170 48" fill="none"><path d="M48.0509 44.9456C47.0037 44.9456 46.1309 44.5093 45.52 43.8111V44.7711H43.9491V34.4729H45.52V38.4874C46.1309 37.7893 47.0037 37.3529 48.0509 37.3529C50.1455 37.3529 51.6291 39.0111 51.6291 41.1929C51.6291 43.2002 50.1455 44.9456 48.0509 44.9456ZM47.7891 38.7493C46.48 38.7493 45.52 39.7965 45.52 41.1056C45.52 42.4147 46.48 43.462 47.7891 43.462C49.0982 43.462 50.0582 42.4147 50.0582 41.1056C49.9709 39.7965 49.0982 38.7493 47.7891 38.7493Z" fill="#283A5E"></path><path d="M53.6363 48.0002L54.9454 44.6838L52.1527 37.4402H53.8109L55.7309 42.6765L57.6509 37.4402H59.3091L55.2945 48.0002H53.6363V48.0002Z" fill="#283A5E"></path><path d="M65.3309 42.2401C66.0291 43.0255 66.9018 43.5492 67.8618 43.5492C68.9964 43.5492 69.7818 43.0255 69.7818 42.1528C69.7818 41.3673 69.2582 40.7564 67.6 40.4073C65.5927 39.971 64.5455 39.011 64.5455 37.5273C64.5455 35.8692 65.8546 34.7346 67.7746 34.7346C69.52 34.7346 71.0909 35.6946 71.2655 37.6146H69.6073C69.52 36.6546 68.8218 36.131 67.8618 36.131C66.9018 36.131 66.2909 36.6546 66.2909 37.3528C66.2909 38.1383 66.9018 38.6619 68.3855 39.011C70.5673 39.5346 71.5273 40.4946 71.5273 42.0655C71.5273 43.7237 70.2182 44.9455 67.9491 44.9455C66.64 44.9455 65.4182 44.2473 64.5455 43.1128L65.3309 42.2401Z" fill="#283A5E"></path><path d="M73.5346 48.0002L74.8437 44.6838L72.0509 37.4402H73.7091L75.6291 42.6765L77.5491 37.4402H79.2073L75.1928 48.0002H73.5346V48.0002Z" fill="#283A5E"></path><path d="M87.0618 40.2329V44.6838H85.4909V40.3202C85.4909 39.3602 84.7927 38.662 83.8327 38.662C82.8727 38.662 81.9127 39.5347 81.9127 40.6693V44.6838H80.3418V37.4402H81.9127V38.4002C82.4364 37.702 83.2218 37.2656 84.0946 37.2656C85.9273 37.2656 87.0618 38.4874 87.0618 40.2329Z" fill="#283A5E"></path><path d="M95.6145 42.9384C94.9163 44.2474 93.7818 44.9456 92.3854 44.9456C90.2036 44.9456 88.4582 43.2874 88.4582 41.1056C88.4582 38.9238 90.1163 37.2656 92.2109 37.2656C94.0436 37.2656 95.3527 38.2256 95.7891 39.8838H94.0436C93.7818 39.1856 93.1709 38.662 92.2982 38.662C91.1636 38.662 90.1163 39.622 90.1163 41.0184C90.1163 42.502 91.2509 43.3747 92.4727 43.3747C93.3454 43.3747 94.1309 42.9384 94.7418 42.1529L95.6145 42.9384Z" fill="#283A5E"></path><path d="M101.2 35.8693C101.025 35.8693 100.764 35.8693 100.589 35.8693C99.6291 35.8693 99.28 36.3056 99.28 37.0911V37.5274H101.2V38.8365H99.28V44.6838H97.7091V38.8365H96.4V37.4402H97.7091V37.0038C97.7091 35.2584 98.5818 34.4729 100.415 34.4729C100.676 34.4729 101.025 34.4729 101.2 34.5602V35.8693Z" fill="#283A5E"></path><path d="M102.335 41.9783V37.5273H103.905V41.891C103.905 42.851 104.604 43.5492 105.564 43.5492C106.611 43.5492 107.484 42.6764 107.484 41.4546V37.5273H109.055V44.771H107.484V43.811C106.96 44.5092 106.175 44.9455 105.302 44.9455C103.469 44.8583 102.335 43.7237 102.335 41.9783Z" fill="#283A5E"></path><path d="M111.324 42.6764C111.847 43.2001 112.458 43.6364 113.244 43.6364C114.029 43.6364 114.553 43.2873 114.553 42.7637C114.553 42.2401 114.116 41.891 113.156 41.7164C111.585 41.3673 110.8 40.5819 110.8 39.4473C110.8 38.2255 111.76 37.3528 113.331 37.3528C114.815 37.3528 115.862 38.1382 116.036 39.5346H114.465C114.378 39.011 114.029 38.6619 113.418 38.6619C112.807 38.6619 112.371 39.011 112.371 39.4473C112.371 39.8837 112.807 40.3201 113.68 40.4946C115.338 40.8437 116.124 41.5419 116.124 42.7637C116.124 43.9855 115.076 44.9455 113.331 44.9455C112.196 44.9455 111.324 44.4219 110.625 43.5491L111.324 42.6764Z" fill="#283A5E"></path><path d="M118.48 34.4729C119.004 34.4729 119.44 34.9093 119.44 35.4329C119.44 35.9565 119.004 36.3929 118.48 36.3929C117.956 36.3929 117.52 35.9565 117.52 35.4329C117.52 34.9093 117.956 34.4729 118.48 34.4729ZM117.695 37.4402H119.265V44.6838H117.695V37.4402Z" fill="#283A5E"></path><path d="M124.851 37.2656C127.12 37.2656 128.865 38.9238 128.865 41.1056C128.865 43.2874 127.207 44.9456 124.851 44.9456C122.582 44.9456 120.836 43.2874 120.836 41.1056C120.836 38.9238 122.582 37.2656 124.851 37.2656ZM124.851 43.462C126.16 43.462 127.207 42.4147 127.207 41.1056C127.207 39.7965 126.16 38.7493 124.851 38.7493C123.542 38.7493 122.495 39.7965 122.495 41.1056C122.495 42.4147 123.542 43.462 124.851 43.462Z" fill="#283A5E"></path><path d="M137.069 40.2329V44.6838H135.498V40.3202C135.498 39.3602 134.8 38.662 133.84 38.662C132.88 38.662 131.92 39.5347 131.92 40.6693V44.6838H130.349V37.4402H131.92V38.4002C132.444 37.702 133.229 37.2656 134.102 37.2656C135.935 37.2656 137.069 38.4874 137.069 40.2329Z" fill="#283A5E"></path><path d="M17.3089 33.162C26.3826 33.162 33.7383 25.7388 33.7383 16.582C33.7383 7.42507 26.3826 0.00195312 17.3089 0.00195312C8.23513 0.00195312 0.879425 7.42507 0.879425 16.582C0.879425 25.7388 8.23513 33.162 17.3089 33.162Z" fill="#FF4800"></path><path d="M19.0575 18.3674L16.1189 26.1055C16.008 26.4006 15.7367 26.5406 15.4692 26.5293C15.2247 26.5179 14.9839 26.3779 14.8807 26.1093L8.5678 9.68324C8.51048 9.53567 8.57545 9.40323 8.68245 9.33512C8.78945 9.26701 8.93848 9.26323 9.0493 9.37674L14.7393 15.1321C14.4184 16.0554 14.8387 17.183 16.031 17.5538C16.2947 17.6371 16.5851 17.6408 16.8488 17.5614C18.3773 17.1035 18.6754 15.3818 17.7391 14.4359C17.2271 13.9175 16.4934 13.7812 15.8552 14.0083L10.1499 8.234C10.039 8.12048 10.0429 7.97291 10.1155 7.87074C10.1843 7.76479 10.3218 7.70425 10.467 7.76101L26.75 14.1596C27.0289 14.2694 27.1665 14.5191 27.1665 14.7688C27.1665 15.0186 27.0251 15.2683 26.7461 15.3781L19.0575 18.3674Z" fill="white"></path><path d="M52.8588 26.7938C56.6226 26.7938 59.1808 24.2566 59.1808 20.7254C59.1808 18.2179 57.637 16.4078 55.5934 15.844C57.1078 15.1912 58.1369 13.6481 58.1369 11.6451C58.1369 8.27706 55.7551 6.02182 51.9178 6.02182H43.9491V26.7938H52.8588ZM51.5503 14.2713H48.6686V9.9685H51.5503C52.7559 9.9685 53.6086 10.74 53.6086 12.1199C53.6086 13.4997 52.7559 14.2713 51.5503 14.2713ZM52.1531 22.8471H48.6686V18.0696H52.1531C53.4469 18.0696 54.3584 19.0043 54.3584 20.4583C54.3584 21.8975 53.4469 22.8471 52.1531 22.8471ZM69.7077 27.1499C74.5742 27.1499 78.2351 23.6187 78.2351 19.1082C78.2351 14.5977 74.5742 11.0664 69.7077 11.0664C64.8412 11.0664 61.1803 14.5977 61.1803 19.1082C61.1803 23.6187 64.8412 27.1499 69.7077 27.1499ZM69.7077 22.9658C67.5171 22.9658 65.8704 21.3041 65.8704 19.1082C65.8704 16.9271 67.5171 15.2505 69.7077 15.2505C71.8984 15.2505 73.545 16.9271 73.545 19.1082C73.545 21.3041 71.8984 22.9658 69.7077 22.9658ZM85.7039 26.7938V5.13159H80.9844V26.7938H85.7039ZM95.6427 27.1499C97.6422 27.1499 99.2889 26.3784 100.48 25.1024V26.7938H105.126V5.13159H100.48V13.114C99.2889 11.838 97.6422 11.0664 95.6427 11.0664C91.4525 11.0664 88.4826 14.5977 88.4826 19.1082C88.4826 23.6187 91.4525 27.1499 95.6427 27.1499ZM96.8042 22.9658C94.7606 22.9658 93.1727 21.3041 93.1727 19.1082C93.1727 16.9271 94.7606 15.2505 96.8042 15.2505C98.8625 15.2505 100.48 16.9271 100.48 19.1082C100.48 21.3041 98.8625 22.9658 96.8042 22.9658ZM116.05 27.1499C120.725 27.1499 123.651 24.3753 123.651 20.6661C123.651 17.3574 121.49 15.2208 117.093 14.1971C114.388 13.5739 113.565 12.654 113.565 11.4967C113.565 10.4581 114.535 9.7311 115.917 9.7311C117.314 9.7311 118.226 10.5917 118.431 12.105H123.195C122.857 7.90613 119.74 5.66573 115.697 5.66573C111.521 5.66573 108.654 8.27706 108.654 11.8825C108.654 15.0725 110.992 17.2684 114.888 18.1141C117.99 18.7817 118.74 19.7313 118.74 20.9035C118.74 22.1795 117.549 23.0252 115.829 23.0252C113.785 23.0252 112.198 22.1795 110.566 20.5919L108.551 22.8323C110.698 25.7997 113.344 27.1499 116.05 27.1499ZM128.855 9.99817C130.384 9.99817 131.561 8.88539 131.561 7.40167C131.561 5.9328 130.384 4.80518 128.855 4.80518C127.326 4.80518 126.15 5.9328 126.15 7.40167C126.15 8.88539 127.326 9.99817 128.855 9.99817ZM131.208 26.7938V11.4225H126.488V26.7938H131.208ZM142.455 33.6782C147.542 33.6782 150.63 30.6663 150.63 25.8145V11.4225H145.984V13.114C144.793 11.838 143.146 11.0664 141.147 11.0664C136.956 11.0664 133.987 14.5977 133.987 19.1082C133.987 23.4703 136.956 27.0015 141.147 27.0015C143.146 27.0015 144.793 26.23 145.984 24.9688V26.1113C145.984 28.4259 144.352 29.7612 141.926 29.7612C140.044 29.7612 138.544 29.1232 137.118 27.8917L135.192 30.3695C137.25 32.5951 139.647 33.6782 142.455 33.6782ZM142.308 22.9658C140.264 22.9658 138.677 21.3041 138.677 19.1082C138.677 16.9271 140.264 15.2505 142.308 15.2505C144.366 15.2505 145.984 16.9271 145.984 19.1082C145.984 21.3041 144.366 22.9658 142.308 22.9658ZM159.054 26.7938V18.485C159.054 16.3781 160.333 15.2505 161.862 15.2505C163.23 15.2505 164.318 16.5265 164.318 17.9064V26.7938H169.037V17.1497C169.037 13.5146 166.611 11.0664 163.274 11.0664C161.539 11.0664 160.083 11.7786 159.054 13.0398V11.4225H154.335V26.7938H159.054Z" fill="#283A5E"></path></svg>