<svg xmlns="http://www.w3.org/2000/svg" width="250" height="250" fill="none"><g fill-rule="evenodd" clip-path="url(#a)" clip-rule="evenodd"><path fill="#797979" d="M65.769 75.889c1.155-.961 2.193-1.292 2.193-1.292-.121 2.217.157 4.1.66 5.69a13.041 13.041 0 0 0 1.506 3.236c1.915 2.953 4.38 4.108 4.38 4.108.294-5.678 3.202-7.597 3.202-7.597-.482 3.316-.45 11.81 2.445 18.551 3.378 7.85-.11 7.497 4.59 17.343 5.917 12.378 22.687 12.226 22.687 12.226-9.615 2.773-20.238-.584-25.441-9.206-2.051-3.409-2.88-6.209-3.253-8.647-2.37-.798-6.247-4.161-6.483-4.371.189.042 3.268.746 6.163.757-.099-2.118-.151-3.996-.913-5.889-2.8-.341-5.832-2.212-5.832-2.212-.31 5.443-3.098 8.154-6.253 9.096l-.8 4.122c3.047 4.092 10.733 10.118 10.733 10.118s-6.457-2.017-11.383-6.798l-1.8 9.236c3.143 2.543 6.42 4.739 9.555 6.672 9.222 5.69 21.814 8.277 25.076 8.12a168.926 168.926 0 0 0 9.588-2.013c-3.299-.761-11.146-2.734-15.521-5.143 3.231.163 15.762 1.823 27.77 1.896 11.225-3.246 19.996-6.462 19.996-6.462s-4.62-6.467-1.343-14.021c3.277-7.555 10.298-9.353 13.67-9.833 2.859-2.159 6.678-10.297 7.14-17.725.477-7.75-4.942-10.424-8.047-14.448-3.105-4.025-5.115-9.283-9.154-14.474 3.778 1.864 6.269 5.233 6.269 5.233.535-1.413 3.336-9.368.876-14.186-2.712-5.295-8.838-7.68-8.838-7.68.686-.79 2.454-1.598 2.454-1.598-8.872-4.465-16.991 1.356-16.991 1.356-.23-1.315-.068-2.727-.068-2.727-4.521 3.809-5.801 10.902-5.801 10.902 9.573-.063 12.982 3.646 12.982 3.646-10.296-1.776-21.858-.83-30.818 3.72-8.96 4.549-16.985 14.011-16.985 14.011 1.086-5.448 3.935-7.902 3.935-7.902-4.743-3.72-9.778-3.11-9.778-3.11.95.688 2.02 2.474 2.02 2.474-2.053.12-4.065.616-5.939 1.46-.832.373-1.632.812-2.392 1.316-2.067 1.35-3.745 3.074-4.889 4.896-1.59 2.511-2.171 5.205-1.411 7.366.08-.075.164-.149.243-.217Zm48.28-2.8s1.385-4.707 6.327-6.83c4.941-2.123 14.819-.43 20.427 5.642 5.607 6.074 3.965 12.536-.625 15.01-6.987 3.762-9.532-.362-15.301-2.332-5.77-1.97-12.831-3.546-10.828-11.49Zm4.065 16.04c3.394-.478 4.538 1.686 3.263 4.644-1.274 2.957-3.121 4.364-4.694 4.739-3.132.736-6.878-1.98-6.972-4.082-.095-2.102 5.01-4.828 8.403-5.301Zm1.852 12.309c2.392 1.445 7.711.305 8.057-6.262 0 0 3.064 4.013-.32 7.496.94 1.319 2.445 8.475-2.9 11.259-5.87 3.063-9.936-3.094-10.812-4.812-3.971-.405-4.694-3.982-4.694-3.982 7.406 3.577 10.669-3.699 10.669-3.699Zm-34.343-9.373c.787-9.152 7.585-17.799 15.637-15.86 7.8 1.88 6.426 9.062 4.753 13.696-1.674 4.634-1.112 7.155-2.402 10.66-1.291 3.504-4.633 6.241-9.055 5.968-5.682-.352-9.63-5.621-8.933-14.463Z"/><path fill="#797979" d="M161.643 101.259s-1.794 4.19-9.227 5.648c-8.303 1.63-13.985 7.634-10.161 12.829 3.913 5.317 13.691 3.914 13.691 3.914-8.786 4.828-15.438-.751-15.438-.751 3.111 7.519 14.489 9.945 23.669 2.327 9.179-7.618 9.987-17.269 9.987-17.269-1.096 2.459-3.383 5.112-3.524 5.275.125-.305 2.879-7.061 2.497-12.194-.394-5.253-4.476-9.278-11.677-12.52-.321 7.366-5.666 14.501-5.666 14.501 2.372-.356 5.849-1.76 5.849-1.76Zm-49.319-5.799c2.528 2.006 4.443 1.17 6.116-.704 1.674-1.876 1.149-3.447-1.322-2.712-2.47.735-3.719 1.472-4.852 2.165-.268.163-.855.525.058 1.25Zm36.699 50.369c5.292 2.842 13.779 9.825 16.46 23.625-.278-.588-9.082-19.117-28.558-19.826-21.565 6.277-44.105 10.528-48.087 10.433-.068 3.368 6.4 42.903 9.112 56.258 14.881 7.818 36.853 4.566 46.423 2.201 16.593-4.696 27.76-24.046 27.76-24.046-.823 9.699-7.612 17.437-7.821 17.679 9.792-4.597 23.075-16.26 25.021-20.589l-17.29-55.891c-5.537 3.566-13.804 7.023-23.02 10.156Zm-90.719-38.738c-.945-.483-1.689-1.119-2.124-1.849 0 0 .96.325 2.345.483.787.091 1.58.107 2.37.047.95-.078 1.947-.288 2.901-.724a7.04 7.04 0 0 0 2.508-1.886c1.967-2.328 2.34-5.338 1.6-8.228a13.356 13.356 0 0 0-1.453-3.489 13.949 13.949 0 0 0-2.68-3.288 12.49 12.49 0 0 0-2.125-1.566 10.988 10.988 0 0 0-2.686-1.135c-7.302-1.97-16.02 7.072-11.497 19.481 1.999 5.49 5.177 10.119 8.897 14.065l1.944-11.911Z"/><path fill="#797979" d="M176.677 99.245s4.811 12.389-7.717 26.116c-8.13 8.669-21.108 10.77-27.928 4.855 0 0-20.72 7.754-37.903 11.101-17.174 3.347-29.69 4.098-26.78-3.961-1.294-.552-2.852-1.377-4.384-2.249-8.613 3.016-10.743 9.851-8.504 14.779-4.491-2.453-6.705-10.722 4.05-17.443-1.192-.745-1.974-1.261-1.974-1.261s-9.463 3.919-13.617 10.791c-4.155 6.872-.876 13.701 7.958 14.841 8.833 1.14 33.615.529 69.155-8.928 35.541-9.457 62.681-26.138 66.356-36.644 3.675-10.507-11.368-12.914-18.712-11.997ZM118.256 79.72c.141.322 1.53 1.51 1.802 1.818.271.308.865.501.865.501l3.038.942c1.012.314 3.278.7 3.388.767.109.065 2.737.713 2.737.713s5.087-.145 5.175-.145c.087 0 1.727-.503 1.792-.547.065-.044 1.726-1.578 1.726-1.578l.678-3.634v-3.349c0-1.116-1.858-3.918-1.88-4.006-.022-.087-.821-1.209-.821-1.209l-1.452-1.154-3.628-1.246s-1.721-.484-1.785-.5c-.065-.014-2.282-.178-2.348-.119-.066.059-2.362 0-2.362 0l-2.228-.095c-.743-.031-2.591.675-2.677.714-.087.04-2.174 1.665-2.218 1.73-.045.066-.875 2.29-.875 2.29s-.349 1.804-.371 1.87c-.022.066.459 3.852.459 3.852s.843 2.062.985 2.384ZM91 100.406l2.82 1.051h4.23c.098 0 2.393-1.411 2.393-1.411l2.065-1.41c.689-.47 1.115-2.367 1.148-2.63.033-.262.295-3.266.295-3.266s.724-2.323.79-2.512c.066-.19.292-1.412.446-1.578.154-.166.504-1.577.504-1.577l.454-1.708-.065-1.855.065-1.921-1.18-1.806-1.313-1.505-2.524-.369-.328 4.204-5.049-.887-7.228 3.523-.555 1.141-1.426 4.959.754 5.154c.251 1.719 2.066 3.218 2.164 3.284.098.066 1.54 1.119 1.54 1.119Z"/><path fill="#4B4B4B" d="m189.848 185.812-2.787-7.781-3.18-10.377-3.967-11.888-2.721-9.818-4.23-12.576-25.661 11.186-14.383 4.029-12.59 3.721-12.937 2.669-13.987 2.977-4.415 1.271c12.064 5.472 25.093-4.292 41.527 1.314 16.435 5.606 27.19 17.863 27.54 26.619 0 0 4.327-4.904 4.59-10.2 4.765 20.446-6.426 38.396-43.583 45.225 0 0 14.995 1.095 22.95-.744 7.956-1.838 14.863-4.246 14.863-4.246l9.07-3.798 6.623-3.284 7.114-5.582 7.803-7.388 3.77-5.32-1.409-6.009Zm-78.652-48.335 3.344-1.641-10.033-26.302-25.33-5.757s-4.373-.898-8.506-3.371l-1.505-3.58c-4.156-7.398-11.869-8.307-16.59-2.834-4.72 5.473-2.624 14.754 5.377 22.372 8.002 7.618 26.141 20.183 47.474 22.109l5.769-.996Zm12.831-55.635c4.305 1.707 10.674 5.595 14.871 3.162 4.197-2.432 4.249-7.933-1.385-12.729-1.028-.873-6.614-5.165-12.615-4.64-6.001.526-9.547 5.255-8.61 8.89.938 3.635 3.741 3.73 7.739 5.317Zm-1.38-5.795c.22-2.669 2.702-4.65 5.55-4.417 2.849.233 4.979 2.576 4.763 5.243a4.105 4.105 0 0 1-.105.689c-.739-1.597-2.376-2.787-4.357-2.948-2.597-.21-4.894 1.413-5.435 3.725a4.604 4.604 0 0 1-.416-2.292Z"/><path fill="#4B4B4B" d="M94.735 104.312c6.332-.195 7.15-6.336 8.131-11.196.981-4.86 4.69-9.971 0-13.628-5.01-3.909-13.89 2.18-14.782 10.901-.483 4.708.325 14.122 6.651 13.923ZM93.22 88.945c1.275-2.559 4.25-3.662 6.641-2.471a4.585 4.585 0 0 1 1.747 1.54c-2.257-.731-4.83.398-5.995 2.733-.887 1.78-.72 3.798.267 5.257a4.235 4.235 0 0 1-.645-.262c-2.393-1.197-3.294-4.239-2.014-6.797Zm21.167 7.934c1.575.59 1.716.854 2.787 0s2.579-2.331 2.579-2.331l.59-1.258v-.876c0-.044-.481-1.237-.481-1.237s-.577-.394-.612-.394c-.034 0-.83-.022-1.06.044-.229.066-.754.098-1.093.263-.338.164-2.841 1.455-2.841 1.455s-1.444 3.745.131 4.334ZM71.132 79.555c.312-1.117 2.164-2.769 2.164-2.769-.917 5.473 2.164 8.712 2.164 8.712 6.754.963 9.596-1.138 9.596-1.138s13.071-17.994 2.229-20.883c-10.842-2.89-15.989 5.31-15.989 5.31 1.46-.575 4.164-.493 4.164-.493-5.507 3.971-4.328 11.26-4.328 11.26Zm69.876-17.085 3.978-1.402c3.89-9.106-2.415-13.134-2.415-13.134a30.524 30.524 0 0 1 3.946.132c-5.955-7.268-14.819-4.532-14.819-4.532.742-1.642 2.578-3.305 2.578-3.305-7.081.175-12.392 5.144-13.091 8.975l2.95 5.823 16.873 7.443Zm18.956 40.284c3.705-2.02 2.487-6.704-.18-8.939 0 0-4.197 6.983-4.918 9.201-.721 2.219 1.393 1.757 5.098-.262Z"/><path fill="#4B4B4B" d="M140.124 139.349c26.566-6.304 48.095-21.89 49.756-28.852 1.661-6.961-9.53-6.917-9.53-6.917-.917 3.896-4.042 7.3-4.042 7.3s-2.944 4.56-3.628 6.027l1.814-3.891.766-2.692.59-4.641-.46-4.444-1.485-4.422a6245.848 6245.848 0 0 1-3.126-4.75c-.89-.59-1.778-1.182-2.667-1.773l-1.202.416c-.401.14 6.382 8.516 1.727 19.286 0 0 .634-4.4-.328-7.005 0 0-2.644 10.88-12.13 15.871s-16.417-3.994-9.967-10.552c0 0-3.672.504-4.279 1.899-.607 1.396-2.322 1.955-2.846 4.406a19.025 19.025 0 0 0-.395 4.597 15.674 15.674 0 0 0-.014 3.68c.234 2.014 2.157 4.291 2.157 4.291l.764.625-4.567 1.827-14.557 5.152-13.964 3.349-13.606 3.087-8.327.131-5.115-.952-1.967-3.448-7.688-3.89-2.968.771-4.24 2.629c-1.412.877-4.152 5.691-3.409 8.886.765 3.327 1.748 11.076 31.91 6.173 30.163-4.903 47.023-12.174 47.023-12.174Zm29.017-17.119 1.412-1.855c-.624.927-1.307 1.925-1.98 2.95-1.671 2.544-4.107 3.394-5.909 4.777l3.199-2.457 3.278-3.415Zm-11.081 7.684 4.296-1.588c-1.522 1.064-3.55 1.745-6.386 2.346l2.09-.758Zm-14.227-.284 5.989 1.814c-1.569 0-2.859-.196-3.908-.534-1.928-.621-4.3-3.088-4.317-3.105l2.236 1.825Z"/><path fill="#383838" d="M119.064 95.656c1.159-.548.995-1.708 1.006-1.763.012-.054.284-.744.404-1.422.121-.68-.535-.855-1.364-1.303-.83-.448-2.448-.153-2.448-.153l-.765.788c2.47 1.38-.59 2.934-.809 5.43 1.244.47 2.816-1.03 3.976-1.577Zm-34.784-2.08c0 .131.851 5.976.95 7.077.1 1.101 1.738 4.252 1.838 4.514.1.262 6.13 4.203 6.655 4.433.525.23 4.197.295 4.295.23.099-.066 4.852-2.892 4.95-2.989.099-.096 2.656-7.322 2.656-7.322l-1.41-7.355c-1.606.033-5.627 7.454-9.497 7.781-3.868.328-5.922-3.414-7.037-8.493-.002 0-3.4 1.993-3.4 2.124Zm51.876-2.123c.131 0 6.164-1.008 7.519-1.445 1.356-.438 3.454-3.546 3.454-3.546l2.099-6.217c.7-2.072-1.661-4.335-1.704-4.467-.044-.13-6.297-8.755-9.969-10.393-3.672-1.638-2.579-.9-3.016-1.03-.436-.133-2.448.919-2.535 1.03-.087.112-.219 3.04-.219 3.04 6.251 3.284 7.573 10.377 4.131 12.708-3.443 2.332-6.886.329-11.387 1.675 0 0 .699 3.26.787 3.393.089.134 10.709 5.252 10.84 5.252ZM76.793 73.678c-.698 2.208-.611 5.615.011 8.028 0 0 .033 1.133.033 1.231 0 .099 8.557-3.743 8.557-3.743l5.016-6.699c1.672-2.232.689-4.531-4.524-6.14s-8.09 1.62-8.09 1.62c.744-.044 1.793.219 1.793.219-4.065 2.725-4.634 6.84-4.634 6.84.374-.568 1.838-1.356 1.838-1.356Zm62.139-12.446s1.935.82 3.541-2.857c1.607-3.677-2.238-7.314-2.238-7.314.594.184 1.177.4 1.747.648-2.787-5.647-8.591-4.793-8.591-4.793.434-.582 1.606-1.215 1.606-1.215-6.032-1.412-9.726 3.919-9.726 3.919l-.274 2.418 3.279 4.663 10.656 4.53Zm19.519 35.671-4.11 5.648-.175 2.189 4.744-1.883c1.989-2.604.895-4.926-.459-5.954Zm-15.994 25.913-2.1-1.149-1.098.575v1.51c0 .049.656 1.559.656 1.559l2.047 2.792 3.393 1.904 4.459 1.018 2.967.296c.989.098 3.885-.673 3.951-.723.066-.049 3.278-1.067 3.343-1.149.066-.083 2.11-.695 5.827-2.074 3.718-1.38 6.558-4.465 7.563-5.932 3.65-1.883 8.055-7.608 2.152-9.216 0 0-1.267-.723-.839-3.021.427-2.298-.995-4.203-2.372.296-1.378 4.498-6.306 9.379-6.306 9.379.613-1.269.864-5.573.864-5.573-2.754 4.039-8.077 11.153-15.246 11.11l-6.754-.684-2.507-.918Z"/><path fill="#383838" d="m151.948 132.552-10.458-3.645-1.509-.415-10.098 4.048-9.289 2.759-2.526.637 3.884-1.251 5.902-1.871 13.044-4.892-1.902-3.448-1.081-5.385-.82-.985 1.027-2.572-30.816 1.489c-10.272.496-26.622-6.393-30.95-9.764 0 0-3.628-.985-4.895-1.663 0 0 1.344 2.824 3.13 4.17 0 0-4.704-2.068-7.36-4.285l1.393-3.251-.245-1.035c-.082-.344-1.575-7.42-9.092-5.844-7.517 1.576-5.793 12.084-.59 15.63 0 0 2.688-.351 5.966 2.845 3.279 3.196 4.978 4.494 4.978 4.494l3.082 1.953c4.057 2.742 11.622 6.535 17.655 8.734 0 0-5.432.362-8.972-.21 0 0 11.08 4.379 19.692 5.516 8.612 1.139 12.262 2.671 12.262 2.671l1.603-.263-2.959.75-8.676 2.299-8.022 1.379-9.224.81a25551.37 25551.37 0 0 1-7.3-5.56l-5.355-1.008c-4.13 2.672-6.513 9.61 2.142 12.455 8.656 2.846 40.61-1.137 66.313-14.272 0-.002 7.835.72 10.066-1.02Zm37.036 51.497c-.582-2.087-1.165-4.173-1.749-6.26l-3.059-8.668-2.776-9.063-2.055-6.655-2.12-7.421c-.793-2.577-1.588-5.153-2.382-7.729l-2.404-4.706-4.393 1.97-6.514 3.26-9.922 4.138-9.004 2.56c-3.002.854 6.688 2.671 8.523 4.806 1.836 2.134 5.311 3.381 6.525 5.418 1.213 2.036 2.852 3.25 3.475 4.826.623 1.576 1.575 2.293 2.262 4.335 2.852 5.746 5.377 12.489 5.508 15.335 0 0 1.617-5.561 1.661-12.041 0 0 7.802 23.971-3.584 35.945-11.06 11.689-5.552 11.317-2.077 9.697 3.476-1.62 9.814-5.604 9.814-5.604l6.469-5.101 5.596-5.209 4.35-5.408.152-.985-2.296-7.44Z"/><path fill="#A7A5A5" d="M116.311 194.119c-2.888-22.722-21.442-31.851-28.786-31.555l8.655 54.322.503.613 10.929 3.808c23.43-6.392 13.551-34.63 10.884-38.002.481 6.479-2.185 10.814-2.185 10.814Zm81.028-88.968-1.459-2.348-2.393-2.282-3.377-1.478-5.787-1.018-.54.608c9.704 1.97 11.931 11.492 4.786 22.459l3-1.297 1.934-2.2c.645-.733 2.426-3.054 2.443-3.102.016-.048 1.279-3.284 1.279-3.284l.278-2.824-.164-3.234ZM57.953 152.878c-7.344-5.955-3.278-13.464 6.033-22.001 0 0-4.567 1.817-10.513 6.481-5.946 4.662-5.464 8.668-5.464 8.668l.459 5.1c.152 1.7 2.12 3.765 2.47 4.116.35.351 4.83 2.313 4.83 2.313l5.048.815c1.683.272 7.278 1.204 7.366 1.204h4.808l10.667-2.168c3.555-.722-18.36 1.426-25.704-4.528Zm.637-32.97c-11.85-11.361-13.124-23.324-9.096-28.671 4.029-5.348 9.684-5.741 13.005-4.69l-1.497-1.97-3.097-.755H54.74c-1.05.332-2.098.665-3.147.999l-3.64 3.07-2.016 3.58-1.393 3.857v3.038l.54 4.793 1.476 4.104 2.54 5.189 3.673 5.861 3.065 3.365 5.524 4.663 5.934 3.945 5.115 2.939 5.722 2.873 8.097 2.759 9.1 1.149c-11.516-3.541-24.89-8.735-36.74-20.098Zm7.384-41.612.48-1.072c.3 1.225.598 2.451.897 3.677l1.662 3.24c.554 1.08 2.185 2.671 2.25 2.802.066.13 3.848 2.496 3.848 2.496l.087-2.496c-1.672-.886-6.557-6.107-5.77-13.528 0 0-1.443.022-2.625.766 0 0 .69-10.026 12.83-13.288l-.577-.76c-.193-.254 5.079-.815 9.428 2.096l.765-.504-.436-1.27-2.668-1.729-3.693-1.16-2.972-.285-2.711.307-.7.613.263.963-1.506 1.49-3.147.919-3.716 3.042-1.858 2.956-1.464 3.154-.678 3.875.547 2.997 1.464.7Zm21.944 7.936-.295 2.506v1.489c2.82-5.615 5.869-11.296 15.573-10.99l-1.136-1.63-1.77-.305-1.52-.242c-.932.18-1.865.358-2.797.537l-1.727.93-1.89 1.63-1.9 1.992-1.203 1.565-1.335 2.518Zm36.218-19.078s-1.76-.75-4.58.794c-2.82 1.543-4.016 4.547-4.016 4.547l-.885 2.066.525 2.515c.175.838 1.164 2.118 1.229 2.184.065.066 1.673 1.262 1.673 1.262l2.655 1.362 2.524.263c-6.994-3.81-6.95-11.457.875-14.993Zm22.616-23.653s-1.361-1.56-1.41-1.608c-.049-.05-2.525-2.118-2.525-2.118l1.476-.904c.492-.3-1.213-1.051-1.263-1.1-.049-.048-2.114-1.214-2.114-1.214l-3.426-.72h-5.149l-2.656.508-2.639.526c-.879.176-1.377-.18-1.377-.312 0-.13-.115-1.083-.115-1.083l-1.113.308s-1.869.952-2.951 2.808c-1.081 1.855-2.147 3.513-2.147 3.513l-1.41 3.136-.917 4.186 2.803-.213c.934-.071 1.442-5.976 4.196-8.866l.36 1.937c.121.646 6.787-6.403 15.014-3.677l-1.671 2.02c-.558.673 8.493 2.272 11.422 9.32l.071-2.276-1.262-2.512-1.197-1.659Zm18.867 53.337c-1.114.24-.9 5.494-4.437 8.8-1.642 1.535-2.038 1.453-2.595 2.648-.931 2.001 1.131 4.433 4.967 0 3.836-4.433 3.18-11.689 2.065-11.448Zm-10.278 13.402a2 2 0 0 0-1.848 1.237 2.006 2.006 0 0 0 .434 2.183 1.998 1.998 0 0 0 3.414-1.417 2.001 2.001 0 0 0-2-2.003Z"/><path fill="#C6CACD" d="m146.069 62.87-2.047-2.753-.729-.987c-2.067-2.51-8.996-7.082-15.15-8.338l-5.177-.987h-5.476s-7.543.596-7.637.624c-.094.03-7.606 2.433-7.705 2.495-.1.062-6.164 3.71-6.164 3.71l2.785 5.321 5.959 3.427s3.582 6.368 3.671 6.63c.089.263 2.183 8.06 2.183 8.406 0 .347-1.396 7.092-1.838 8.642-.442 1.55-2.271 14.958-3.908 18.373-1.636 3.414-8.791 9.524-12.2 11.032-3.41 1.508-2.687 6.021-2.645 6.084.042.063 3.457 1.866 3.457 1.866l3.735 1.334 3.058.041c5.849.82 15.878.348 24.411-1.634l5.927-3.709 2.707-6.803 1.448-7.754 3.08-8.207c1.026-2.735 3.802-5.779 4.002-6.304.199-.525 3.342-8.538 3.342-8.538l1.247-13.988-.336-7.982Zm-32.145 34.482a37.768 37.768 0 0 1-.645-.34c-.073-.043-.725-.358-.871-.605-.146-.248-.624-.81-.672-.862a45.353 45.353 0 0 0-.855-.725s.116-.851.137-.899c.021-.047.718-.803.718-.803l.116-.462c.047 0 1.384-.326 1.427-.358a277.75 277.75 0 0 1 2.519-1.276l1.795-.268 1.164-.116.541.148.246.236.603.52a.836.836 0 0 0 0 .378c.053.21 0 .736 0 .736.016.182.023.364.021.546-.005.18-.378 1.052-.415 1.114-.037.062-.655.888-.686 1.004-.032.115-.64.72-.772.85-.131.132-.818.626-.886.689-.069.063-1.128.447-1.128.447s-1.195.147-1.248.147c-.053 0-1.051-.076-1.109-.1Zm12.369 12.903c-.346 1.072-1.673 1.776-1.705 1.823-.031.047-2.114.941-2.161.957-.047.015-1.773 0-1.805 0-.032 0-2.639-.988-2.639-.988s-1.541-1.266-1.574-1.329c-.033-.063-1.249-2.843-1.249-2.843l.64-.982 3.425-2.086.887-.803 5.886-.363c1.962-.121.656 1.644.833 2.774.178 1.13-.191 2.773-.538 3.839v.001Zm16.728-28.695c-.157 1.181-.787 2.122-1.794 2.979-1.006.856-2.974 2.122-4.894 2.448-1.919.325-4.768-.373-7.302-1.813-2.539-1.45-5.246-2.454-5.266-2.543 0 0-4.197-1.03-5.267-1.486-1.07-.457-2.319-2.212-3.15-3.483-.831-1.272-.744-2.297-.414-3.81s2.555-4.265 2.555-4.265l2.601-2.15 3.232-.63 3.499-.284 2.208.368 3.562.835c1.187.278 3.215 1.618 3.278 1.64.063.02 2.927 2.122 2.927 2.122s1.511 1.623 1.553 1.728c.042.105 1.925 2.848 1.862 2.916-.063.068.871 2.8.893 2.91.022.111.069 1.334-.083 2.516v.002ZM72.083 32.452l-.442.674-4.82 28.985 1.576.255 2.18.115 3.616-1.525c1.204-.508.329-7.109 1.99-14.551 1.661-7.443 2.492-12.74 2.492-12.74s-3.313-2.001-6.592-1.213Zm-6.574 46.382-1.152 1.236-1.42 5.319 4.808 3.415 1.18-3.787-2.514-6.326-.902.143Zm-7.49 36.606-1.46 11.168 1.083 1.117h2.606l4.174-20.38-4.567-.328-1.836 8.423Z"/><path fill="#A1A5A8" d="M159.369 81.558c-.744-3.502-2.492-5.079-2.492-5.079s-2.362-2.583-4.197-4.64c-1.834-2.058-3.234-4.422-3.234-4.422s-2.122-2.852-4.054-5.454l-.315.376c-9.223-8.144-19.147-7.926-19.147-7.926 6.077 3.985 5.377 9.239 5.377 9.239 10.011 4.903 11.147 11.322 11.147 11.322s-.765.017-.328.827c.436.81.437 2.649.918 4.29.481 1.643-.59 1.642-.941 3.284-.349 1.642-1.092 1.007-2.075 2.08-.983 1.073-2.863.94-4.94 1.532-2.077.592-6.667-1.708-6.667-1.708 2.185 2.19 2.625 8.45-.257 10.3 0 0 .05.542.181 1.33.131.787-.705 2.643-1.26 4.252s-.607 1.675-.607 1.675.175 2.823.547 4.662c.371 1.839-.394 3.393-.394 3.393 4.852 7.575-1.969 15.266-1.969 15.266 5.16-1.195 9.775-2.944 12.592-5.283l-.132-.789 3.717-10.244 2.887-1.752 2.404-.963 3.671-1.269a9.873 9.873 0 0 0 2.755-1.664c1.312-1.138 1.704-1.84 2.798-3.984 1.093-2.144 2.229-3.59 2.972-6.086.743-2.495.788-3.459 1.05-5.867s.736-3.196-.007-6.698ZM71.198 61.682l2.907-1.281.251-3.295.11-1.258c.036-.42.634-3.12.645-3.163l1.093-4.785.37-3.317c.34-1.218.679-2.437 1.017-3.655l.492-3.831.405-2.813.142-1.302-2.94-.646c1.279 3.448-3.836 24.092-4.492 29.346Zm-5.049 26.072 1.312 1.116 1.464-3.766-1.617-1.729-1.16 4.379Zm-3.77 26.049 1.979-6.26-3.749-.211c1.081.957 1.934 2.859 1.77 6.471Z"/><path fill="#F6FBFD" d="m112.67 92.722 3.347-2.333c6.982-4.04 4.511-6.498 2.35-8.61-5.64-8.758-2.387-9.021-3.675-15.105-2.539-12.787-18.71-10.04-18.71-10.04l-6.516 6.515c-3.976 3.523-10.433 12.924-12.894 19.492l-.393 3.357.393 5.442.624 3.22c.208 1.074 1.538 4.824 1.575 5.055.038.231 1.013 2.596 1.013 2.596l.692 4.239.85 5.874c.283 1.957.918 1.938 3.15 6.373 2.231 4.434 6.462 5.253 6.462 5.253 12.977 4.592 28.358-1.076 26.16-12.183 0 0-.331-.757-1.149-2.664-.818-1.907-.294-2.891-.294-2.891 4.821-5.086-.099-8.175-.099-8.175s.183-.326-.949-.557c-1.133-.23-2.786-1.513-3.588-2.511-.803-1 1.651-2.347 1.651-2.347Zm-6.672-7.14c0 .08-.557 2.66-.557 2.66l-.833 2.365-.971 3.152-.425 2.465-.656 3.049-1.788 3.462-2.523 1.97-1.82.558c-.048.02-2.293 0-2.293 0s-1.689-.442-1.773-.49c-.084-.047-1.62-.856-1.62-.856l-1.852-1.933-1.28-2.348-.704-1.745c-.234-.581.016-2.79 0-3a873.55 873.55 0 0 1-.215-3.651c0-.042.787-3.032.819-3.115.03-.084.692-2.69.692-2.743 0-.053 1.799-3.346 1.868-3.43.069-.085 2.502-2.233 2.572-2.28.07-.048 3.609-2.302 3.609-2.302s1.442-.215 1.526-.231c.085-.017 2.209 0 2.209 0l2.46.657 1.611 1.198 1.505 2.156.525 2.365c.175.79-.086 1.983-.086 2.067ZM71.373 32.874l-1.575 11.908-3.191 18.569c-1.064 6.189.82 1.1.868 1.116.05.017 1.083.099 1.083.099.638-.772 1.278-1.543 1.917-2.314-1.255-1.655.722-7.486 1.575-12.74.854-5.254 3.147-14.809 1.64-17.206l-2.317.568Zm-7.535 47.059-.59 5.007 2.158 1.456 1.246-4.706-.667-3.17-2.147 1.413Zm-4.158 28.201-1.727 7.595-.699 5.736c-.233 1.911-1.18 1.992-.131 3.721s2.404-1.762 2.863-4.881c.459-3.12 1.07-8.623.197-12.26l-.503.089Z"/><path fill="#DF6064" d="M97.962 165.759c-4.229.021-7.654-.283-9.936-.888l.451 3.636.016.11 2.235 14.033c7.621.757 15.18.741 22.498.126-3.669-8.359-9.683-13.891-15.264-17.017Z"/><path fill="#AA282A" d="M120.554 105.399s-1.405 1.981-3.829 3.126c2.701 6.247 11.058 3.541 8.603-3.819-2.151 1.397-4.774.693-4.774.693ZM71.943 49.496c-.031.21-.068.42-.11.63.493.069 1.161.327 1.57.558.263-1.303.53-2.65.788-3.98-.451-.178-1.124-.34-1.634-.42-.22 1.167-.462 2.26-.614 3.212Zm91.447 115.366c-.687-2.039-1.637-2.758-2.261-4.335-.623-1.576-2.261-2.789-3.478-4.827-.482-.809-1.317-1.492-2.266-2.156-7.254 3.174-15.249 5.696-23.165 7.608 8.126 3.068 14.746 7.749 19.246 12.735 4.859-1.907 9.312-4.009 13.261-6.199-.43-.957-.88-1.902-1.337-2.826Z"/><path fill="#771C1C" d="M175.193 141.097c-5.099 4.917-12.034 9.057-19.808 12.445.949.663 1.785 1.346 2.266 2.156 1.217 2.039 2.854 3.252 3.478 4.828.625 1.576 1.575 2.296 2.261 4.334.457.925.907 1.871 1.337 2.827 6.369-3.531 11.421-7.297 14.725-10.87l-4.259-15.72ZM74.104 46.668a546.853 546.853 0 0 1-.787 3.966 6.778 6.778 0 0 1 1.553 1.21l.818-3.746c-.24-.69-.839-1.136-1.584-1.43Zm49.386 66.215s1.728-.522 2.656-2.068c.928-1.546.7-1.653.932-2.969.232-1.316-.932-2.613-.932-2.613-2.917 2.167-4.393 5.122-2.656 7.65Z"/><path fill="#D63D3D" d="M132.22 161.152c-12.746 3.073-25.294 4.566-34.258 4.607 5.581 3.126 11.597 8.658 15.264 17.017 14.027-1.171 27.178-4.534 38.24-8.889-4.5-4.986-11.12-9.667-19.246-12.735ZM69.55 46.206l-.258 1.508v3.572c.84-1.04 1.785-1.277 2.65-1.145.042-.21.078-.42.11-.631.152-.951.356-2.05.577-3.216-1.263-.193-2.55-.13-3.079-.088Zm49.842 66.196h.744c-.416-2.321 1.912-6.611 4.436-7.793l-4.485-.646-4.902 4.137 2.087 2.988 2.12 1.314Z"/><path fill="#000" d="M196.426 116.695c6.756-8.931 3.346-22.964-21.177-21.451 0 0-4.196-8.139-13.407-10.666-.231-5.032-3.158-8.627-5.913-10.988-2.753-2.362-4.432-5.968-5.927-7.429 0 0 2.822-5.527 2.339-12.273-.482-6.745-3.42-10.649-6.273-13.144l2.355-.205c-3.436-4.193-8.875-7.94-20.547-5.637l1.112-2.88c-6.457.852-11.136 6.152-13.89 16.309-5.902-.284-18.685 4.355-24.828 10.638-2.859-2.243-9.747-4.024-14.898-2.753l4.41-22.628c-1.479-2.79-6.777-4.591-9.426-.898l-5.482 33.613a20.06 20.06 0 0 0-1.29 1.96c-2.177 3.772-1.68 7.476-.656 9.982l-.844 5.17c-5.194-2.261-13.56-1.908-17.757 7.56-4.06 9.152 1.155 22.706 11.19 32.73l-.462 2.839c.178 1.912 3.727 4.192 6.168 2.07.231.173.467.341.703.51 0 0-8.99 4.886-14.016 11.672-5.025 6.786-3.541 17.731 9.747 19.528 13.287 1.797 26.841.436 26.841.436l9.259 57.324c3.086 19.107 9.888 7.165 26.805 7.89 16.917.725 56.917-5.849 72.653-33.956l-17.814-58.545s14.274-7.847 21.025-16.778Zm-23.364-15.656c.383 5.133-2.371 11.889-2.497 12.194.142-.163 2.428-2.816 3.525-5.275 0 0-.808 9.651-9.988 17.269-9.18 7.617-20.558 5.191-23.668-2.327 0 0 6.652 5.579 15.438.751 0 0-9.778 1.403-13.691-3.915-3.825-5.195 1.857-11.198 10.16-12.828 7.433-1.461 9.228-5.648 9.228-5.648s-3.478 1.403-5.849 1.76c0 0 5.345-7.135 5.665-14.5 7.202 3.24 11.283 7.265 11.677 12.519ZM72.655 33.234s2.586-1.114 4.882.898l-4.469 22.939a7.7 7.7 0 0 0-1.39.909c.398.07.782.203 1.139.393l-.3 1.53c-.613.293-2.591 1.323-4.742 3.246l4.88-29.915Zm-5.79 35.505c1.143-1.823 2.821-3.546 4.888-4.896a16.45 16.45 0 0 1 2.392-1.315 16.828 16.828 0 0 1 5.94-1.46c2.052-.119-1.07-1.787-2.02-2.474 0 0 5.036-.61 9.778 3.11 0 0-2.848 2.454-3.935 7.902 0 0 8.027-9.457 16.986-14.012 8.959-4.555 20.52-5.495 30.816-3.721 0 0-3.409-3.71-12.982-3.646 0 0 1.28-7.093 5.801-10.902 0 0-.162 1.413.068 2.727 0 0 8.121-5.822 16.991-1.356 0 0-1.768.81-2.455 1.597 0 0 6.127 2.386 8.839 7.681 2.46 4.818-.341 12.772-.876 14.185 0 0-2.491-3.368-6.269-5.233 4.039 5.192 6.054 10.445 9.154 14.475 3.1 4.03 8.524 6.698 8.047 14.447-.462 7.43-4.281 15.567-7.14 17.726-3.372.478-10.391 2.281-13.67 9.832-3.278 7.552 1.343 14.021 1.343 14.021s-8.771 3.215-19.996 6.462c-12.008-.074-24.539-1.735-27.77-1.897 4.375 2.412 12.222 4.382 15.521 5.144a168.908 168.908 0 0 1-9.588 2.012c-3.263.158-15.858-2.428-25.08-8.117-3.132-1.934-6.41-4.13-9.554-6.673l1.801-9.234c4.925 4.781 11.383 6.798 11.383 6.798s-7.685-6.026-10.732-10.118l.802-4.124c3.157-.941 5.943-3.652 6.252-9.096 0 0 3.033 1.87 5.833 2.212.762 1.892.814 3.772.914 5.888-2.896-.011-5.975-.714-6.164-.756.236.21 4.112 3.572 6.484 4.371.372 2.437 1.2 5.237 3.252 8.647 5.203 8.623 15.826 11.979 25.441 9.205 0 0-16.77.152-22.687-12.226-4.7-9.845-1.212-9.493-4.59-17.342-2.896-6.74-2.927-15.236-2.445-18.551 0 0-2.91 1.917-3.202 7.597 0 0-2.467-1.157-4.38-4.108a13.033 13.033 0 0 1-1.505-3.237c-.504-1.587-.782-3.473-.661-5.69 0 0-1.04.331-2.193 1.293a8.145 8.145 0 0 0-.241.215c-.763-2.157-.181-4.852 1.408-7.363Zm1.994 20.941.372-1.917c1.313 1.665 3.085 3.236 5.456 4.255 0 0 .393 2.632 1.17 4.098 0 0-2.896-.914-4.995-2.443-.001-.001-.625-1.807-2.005-3.993h.002Zm-4.024-8.505s.373-.662.84-1.104c0 0 .415 2.418 1.91 5.175l-.415 2.122a16.558 16.558 0 0 0-2.9-2.726l.565-3.467ZM47.39 104.94c-4.522-12.409 4.196-21.452 11.496-19.481.942.257 1.845.64 2.686 1.135.762.445 1.474.97 2.125 1.565a13.947 13.947 0 0 1 2.68 3.289 13.345 13.345 0 0 1 1.453 3.488c.74 2.892.368 5.9-1.6 8.228a7.03 7.03 0 0 1-2.507 1.886c-.955.436-1.952.646-2.901.725-.79.06-1.584.044-2.37-.047-1.386-.158-2.346-.483-2.346-.483.436.73 1.18 1.367 2.125 1.849l-1.946 11.91c-3.72-3.948-6.898-8.577-8.897-14.067l.002.003Zm12.872 17.883-.854 4.387v.011a2.69 2.69 0 0 1-1.947-.83l.12-.741.751-4.592 2.152-13.192c.873.184 1.765.251 2.655.2l-2.877 14.757Zm-.456 33.997c-8.833-1.14-12.112-7.969-7.958-14.842 4.155-6.872 13.618-10.791 13.618-10.791s.781.516 1.973 1.262c-10.754 6.72-8.54 14.989-4.05 17.442-2.24-4.928-.11-11.763 8.505-14.778 1.531.872 3.09 1.697 4.384 2.249-2.91 8.059 9.608 7.308 26.78 3.961 17.184-3.347 37.902-11.101 37.902-11.101 6.82 5.915 19.798 3.814 27.929-4.855 12.527-13.728 7.717-26.116 7.717-26.116 7.344-.92 22.383 1.487 18.711 11.995-3.673 10.507-30.816 27.187-66.356 36.646-35.54 9.459-60.328 10.065-69.156 8.925l.001.003Zm129.457 34.743c-1.948 4.326-15.23 15.992-25.025 20.587.209-.242 6.997-7.981 7.822-17.679 0 0-11.168 19.348-27.76 24.046-9.573 2.366-31.542 5.617-46.424-2.201-2.712-13.355-9.18-52.889-9.112-56.258 3.982.095 26.522-4.154 48.087-10.434 19.477.71 28.279 19.239 28.559 19.827-2.681-13.8-11.169-20.783-16.461-23.622 9.216-3.131 17.482-6.588 23.023-10.156l17.291 55.89Z"/><path fill="#000" d="M113.992 109.119c.876 1.718 4.941 7.875 10.812 4.812 5.344-2.786 3.839-9.94 2.9-11.259 3.383-3.483.32-7.496.32-7.496-.346 6.567-5.665 7.707-8.057 6.262 0 0-3.263 7.276-10.67 3.699-.002 0 .724 3.577 4.695 3.982Zm6.562-3.72s2.625.704 4.774-.693c2.454 7.361-5.902 10.066-8.604 3.819 2.425-1.145 3.83-3.126 3.83-3.126Zm-3.871-6.888c1.575-.372 3.413-1.78 4.695-4.738 1.283-2.958.131-5.122-3.263-4.644-3.395.477-8.505 3.194-8.404 5.3.101 2.107 3.84 4.816 6.972 4.082Zm-4.417-4.302c1.133-.694 2.382-1.434 4.852-2.165 2.471-.73 2.995.841 1.322 2.712-1.673 1.87-3.588 2.71-6.116.704-.913-.726-.326-1.088-.058-1.25Zm12.611-9.63c5.77 1.97 8.314 6.094 15.301 2.333 4.59-2.475 6.226-8.932.625-15.01-5.602-6.079-15.487-7.77-20.427-5.643-4.941 2.127-6.327 6.83-6.327 6.83-2.003 7.944 5.057 9.52 10.828 11.49Zm.021-16.944c6-.525 11.587 3.767 12.615 4.64 5.634 4.796 5.582 10.305 1.385 12.73-4.197 2.424-10.564-1.456-14.871-3.163-3.998-1.587-6.798-1.687-7.738-5.317-.938-3.63 2.613-8.364 8.609-8.89Zm-30.341 38.894c4.422.273 7.764-2.472 9.054-5.968 1.29-3.498.735-6.032 2.402-10.66 1.668-4.628 3.048-11.816-4.752-13.696-8.052-1.939-14.85 6.708-15.638 15.86-.697 8.843 3.25 14.112 8.934 14.464Zm-6.474-16.142c.893-8.72 9.773-14.81 14.783-10.901 4.69 3.656.986 8.768 0 13.628-.986 4.86-1.8 11.002-8.13 11.196-6.332.195-7.135-9.213-6.65-13.92l-.002-.003Z"/><path fill="#040002" d="M95.234 95.743c.207.105.423.193.645.263-.987-1.46-1.155-3.478-.267-5.258 1.163-2.333 3.74-3.462 5.995-2.734a4.588 4.588 0 0 0-1.747-1.54c-2.392-1.192-5.366-.089-6.64 2.472-1.275 2.56-.379 5.6 2.014 6.797Zm33.263-21.131c1.982.164 3.619 1.35 4.357 2.948.054-.226.089-.456.105-.688.215-2.669-1.92-5.017-4.763-5.243-2.844-.226-5.33 1.75-5.55 4.416a4.586 4.586 0 0 0 .414 2.29c.542-2.309 2.84-3.933 5.437-3.723Z"/><path fill="#000" d="M54.868 167.919s-1.68 6.063-6.578 10.045c4.9 3.982 6.578 10.045 6.578 10.045s1.685-6.063 6.584-10.045c-4.9-3.982-6.584-10.045-6.584-10.045Z"/><path fill="#040002" d="M40.16 123.174s-1.313 4.742-5.145 7.857c3.832 3.116 5.144 7.857 5.144 7.857s1.318-4.741 5.15-7.857c-3.832-3.115-5.15-7.857-5.15-7.857Z"/><path fill="#000" d="M40.16 123.174s-1.313 4.742-5.145 7.857c3.832 3.116 5.144 7.857 5.144 7.857s1.318-4.741 5.15-7.857c-3.832-3.115-5.15-7.857-5.15-7.857Z"/><path fill="#040002" d="M106.108 29.527s1.553-5.59 6.074-9.262C107.663 16.592 106.11 11 106.11 11s-1.55 5.593-6.069 9.265c4.519 3.673 6.067 9.262 6.067 9.262Z"/><path fill="#000" d="M106.108 29.527s1.553-5.59 6.074-9.262C107.663 16.592 106.11 11 106.11 11s-1.55 5.593-6.069 9.265c4.519 3.673 6.067 9.262 6.067 9.262Z"/><path fill="#040002" d="M170.849 67.336s1.406-5.062 5.496-8.387c-4.09-3.325-5.496-8.386-5.496-8.386s-1.401 5.061-5.491 8.386c4.09 3.325 5.491 8.387 5.491 8.387Z"/><path fill="#000" d="M170.849 67.336s1.406-5.062 5.496-8.387c-4.09-3.325-5.496-8.386-5.496-8.386s-1.401 5.061-5.491 8.386c4.09 3.325 5.491 8.387 5.491 8.387Z"/><path fill="#040002" d="M212.105 106.228s-.99 3.576-3.878 5.922c2.887 2.348 3.878 5.921 3.878 5.921s.992-3.575 3.88-5.921c-2.888-2.348-3.88-5.922-3.88-5.922Z"/><path fill="#000" d="M212.105 106.228s-.99 3.576-3.878 5.922c2.887 2.348 3.878 5.921 3.878 5.921s.992-3.575 3.88-5.921c-2.888-2.348-3.88-5.922-3.88-5.922Zm-9.777 18.743s-1.548 5.592-6.067 9.265c4.519 3.673 6.067 9.265 6.067 9.265s1.552-5.592 6.072-9.265c-4.52-3.673-6.072-9.265-6.072-9.265ZM90.067 41.011s1.317-4.56 5.15-7.556c-3.833-2.997-5.15-7.556-5.15-7.556s-1.313 4.56-5.145 7.556c3.832 2.996 5.145 7.556 5.145 7.556Z"/></g><defs><clipPath id="a"><path fill="#fff" d="M35 11h181v218H35z"/></clipPath></defs></svg>