<?xml version="1.0" encoding="UTF-8"?>
<svg xmlns="http://www.w3.org/2000/svg" xmlns:xlink="http://www.w3.org/1999/xlink" width="250px" height="250px" viewBox="0 0 250 250" version="1.1">
<g id="surface1">
<rect x="0" y="0" width="250" height="250" style="fill:rgb(100%,100%,100%);fill-opacity:1;stroke:none;"/>
<path style=" stroke:none;fill-rule:nonzero;fill:rgb(39.215687%,74.901962%,47.058824%);fill-opacity:1;" d="M 125.738281 137.484375 C 128.207031 138.25 129.316406 139.03125 131.136719 140.839844 C 131.710938 141.398438 132.28125 141.960938 132.871094 142.539062 C 133.476562 143.148438 134.078125 143.757812 134.699219 144.386719 C 135.328125 145.015625 135.957031 145.640625 136.605469 146.285156 C 137.929688 147.605469 139.253906 148.933594 140.566406 150.265625 C 142.585938 152.304688 144.625 154.324219 146.667969 156.34375 C 147.953125 157.628906 149.238281 158.917969 150.519531 160.210938 C 151.132812 160.8125 151.746094 161.417969 152.375 162.039062 C 152.933594 162.609375 153.492188 163.183594 154.066406 163.769531 C 154.5625 164.265625 155.058594 164.765625 155.566406 165.277344 C 156.921875 167.246094 157.027344 168.234375 156.625 170.578125 C 155.542969 172.152344 155.542969 172.152344 154.011719 173.714844 C 153.152344 174.601562 153.152344 174.601562 152.28125 175.503906 C 151.652344 176.132812 151.027344 176.757812 150.382812 177.402344 C 149.742188 178.050781 149.101562 178.699219 148.445312 179.367188 C 147.085938 180.734375 145.726562 182.097656 144.359375 183.457031 C 142.273438 185.542969 140.210938 187.65625 138.148438 189.765625 C 136.828125 191.09375 135.507812 192.417969 134.183594 193.742188 C 133.570312 194.375 132.953125 195.011719 132.320312 195.664062 C 127.964844 199.933594 127.964844 199.933594 124.273438 200.082031 C 121.476562 199.023438 120.648438 197.867188 118.957031 195.441406 C 117.710938 194.421875 116.457031 193.417969 115.1875 192.429688 C 113.925781 191.179688 112.671875 189.925781 111.421875 188.660156 C 110.746094 187.992188 110.070312 187.328125 109.375 186.640625 C 103.03125 180.359375 103.03125 180.359375 100.96875 177.785156 C 99.339844 175.820312 97.601562 174.40625 95.601562 172.839844 C 93.964844 170.386719 93.714844 169.660156 94.09375 166.8125 C 95.179688 165.238281 95.179688 165.238281 96.71875 163.675781 C 97.578125 162.789062 97.578125 162.789062 98.457031 161.886719 C 99.085938 161.261719 99.714844 160.636719 100.363281 159.992188 C 101.003906 159.34375 101.644531 158.695312 102.304688 158.027344 C 103.664062 156.65625 105.03125 155.292969 106.398438 153.933594 C 108.496094 151.847656 110.566406 149.738281 112.632812 147.625 C 113.957031 146.300781 115.28125 144.976562 116.605469 143.652344 C 117.535156 142.699219 117.535156 142.699219 118.484375 141.730469 C 119.367188 140.863281 119.367188 140.863281 120.265625 139.984375 C 120.777344 139.472656 121.289062 138.957031 121.816406 138.429688 C 123.476562 137.429688 123.476562 137.429688 125.738281 137.484375 Z M 125.738281 137.484375 "/>
<path style=" stroke:none;fill-rule:nonzero;fill:rgb(39.215687%,74.901962%,47.058824%);fill-opacity:1;" d="M 127.996094 48.535156 C 129.5625 49.625 129.5625 49.625 131.121094 51.171875 C 131.707031 51.75 132.296875 52.324219 132.902344 52.917969 C 133.527344 53.546875 134.148438 54.179688 134.792969 54.828125 C 135.761719 55.792969 135.761719 55.792969 136.75 56.777344 C 138.117188 58.140625 139.476562 59.507812 140.832031 60.882812 C 142.914062 62.980469 145.015625 65.0625 147.117188 67.140625 C 148.441406 68.464844 149.761719 69.792969 151.082031 71.121094 C 151.714844 71.746094 152.34375 72.367188 152.996094 73.011719 C 153.570312 73.597656 154.148438 74.1875 154.738281 74.792969 C 155.507812 75.5625 155.507812 75.5625 156.289062 76.347656 C 157.667969 78.335938 157.792969 79.308594 157.378906 81.683594 C 156.289062 83.25 156.289062 83.25 154.738281 84.808594 C 154.164062 85.394531 153.589844 85.984375 152.996094 86.589844 C 152.363281 87.210938 151.734375 87.835938 151.082031 88.476562 C 150.441406 89.125 149.796875 89.773438 149.132812 90.4375 C 147.769531 91.804688 146.402344 93.164062 145.03125 94.519531 C 142.929688 96.601562 140.851562 98.703125 138.769531 100.804688 C 137.445312 102.128906 136.117188 103.449219 134.792969 104.769531 C 134.167969 105.402344 133.542969 106.03125 132.902344 106.683594 C 132.316406 107.257812 131.726562 107.832031 131.121094 108.425781 C 130.351562 109.191406 130.351562 109.191406 129.5625 109.976562 C 127.574219 111.355469 126.605469 111.480469 124.230469 111.066406 C 122.660156 109.976562 122.660156 109.976562 121.105469 108.425781 C 120.515625 107.851562 119.929688 107.273438 119.324219 106.683594 C 118.386719 105.734375 118.386719 105.734375 117.433594 104.769531 C 116.789062 104.125 116.140625 103.484375 115.472656 102.820312 C 114.109375 101.457031 112.746094 100.089844 111.390625 98.71875 C 109.3125 96.617188 107.210938 94.539062 105.109375 92.457031 C 103.785156 91.132812 102.460938 89.804688 101.140625 88.476562 C 100.511719 87.855469 99.878906 87.230469 99.230469 86.589844 C 98.65625 86 98.078125 85.414062 97.484375 84.808594 C 96.972656 84.292969 96.464844 83.78125 95.9375 83.25 C 94.554688 81.261719 94.429688 80.292969 94.847656 77.917969 C 95.9375 76.347656 95.9375 76.347656 97.484375 74.792969 C 98.0625 74.203125 98.636719 73.617188 99.230469 73.011719 C 99.863281 72.386719 100.492188 71.761719 101.140625 71.121094 C 101.785156 70.472656 102.429688 69.828125 103.089844 69.160156 C 104.453125 67.796875 105.820312 66.433594 107.195312 65.078125 C 109.292969 62.996094 111.375 60.898438 113.453125 58.796875 C 114.78125 57.472656 116.105469 56.148438 117.433594 54.828125 C 118.058594 54.199219 118.679688 53.566406 119.324219 52.917969 C 120.203125 52.054688 120.203125 52.054688 121.105469 51.171875 C 121.617188 50.660156 122.132812 50.152344 122.660156 49.625 C 124.648438 48.242188 125.621094 48.117188 127.996094 48.535156 Z M 127.996094 48.535156 "/>
<path style=" stroke:none;fill-rule:nonzero;fill:rgb(39.215687%,74.901962%,47.058824%);fill-opacity:1;" d="M 172.445312 92.984375 C 174.074219 94.039062 174.074219 94.039062 175.585938 95.539062 C 176.160156 96.097656 176.730469 96.65625 177.320312 97.230469 C 177.925781 97.84375 178.527344 98.457031 179.148438 99.085938 C 180.09375 100.023438 180.09375 100.023438 181.054688 100.980469 C 182.378906 102.304688 183.703125 103.632812 185.015625 104.964844 C 187.035156 107.007812 189.074219 109.023438 191.117188 111.039062 C 192.402344 112.324219 193.6875 113.617188 194.96875 114.90625 C 195.582031 115.511719 196.191406 116.113281 196.824219 116.734375 C 197.382812 117.308594 197.941406 117.878906 198.515625 118.46875 C 199.011719 118.96875 199.507812 119.46875 200.015625 119.980469 C 201.453125 122.199219 201.445312 123.535156 201.074219 126.132812 C 199.984375 127.796875 199.984375 127.796875 198.433594 129.355469 C 197.859375 129.945312 197.28125 130.535156 196.691406 131.144531 C 196.058594 131.765625 195.429688 132.386719 194.777344 133.027344 C 194.132812 133.675781 193.492188 134.320312 192.828125 134.988281 C 191.46875 136.355469 190.097656 137.714844 188.726562 139.066406 C 186.621094 141.148438 184.542969 143.25 182.464844 145.355469 C 181.140625 146.679688 179.8125 148 178.484375 149.320312 C 177.863281 149.949219 177.238281 150.582031 176.597656 151.234375 C 176.007812 151.808594 175.421875 152.382812 174.816406 152.972656 C 174.300781 153.484375 173.789062 153.992188 173.257812 154.519531 C 171.691406 155.511719 171.691406 155.511719 169.808594 155.464844 C 167.609375 154.640625 166.457031 153.683594 164.789062 152.035156 C 164.195312 151.460938 163.605469 150.886719 163 150.292969 C 162.371094 149.664062 161.746094 149.039062 161.101562 148.390625 C 160.128906 147.429688 160.128906 147.429688 159.136719 146.445312 C 157.769531 145.085938 156.40625 143.722656 155.046875 142.355469 C 152.957031 140.261719 150.847656 138.1875 148.738281 136.117188 C 147.410156 134.792969 146.085938 133.472656 144.765625 132.148438 C 144.128906 131.527344 143.496094 130.90625 142.839844 130.265625 C 142.265625 129.679688 141.6875 129.09375 141.09375 128.492188 C 140.582031 127.980469 140.070312 127.46875 139.542969 126.941406 C 138.542969 125.378906 138.542969 125.378906 138.59375 123.492188 C 139.402344 121.328125 140.320312 120.195312 141.9375 118.554688 C 142.496094 117.984375 143.054688 117.410156 143.628906 116.820312 C 144.238281 116.214844 144.847656 115.605469 145.472656 114.980469 C 146.097656 114.351562 146.71875 113.722656 147.363281 113.070312 C 148.683594 111.742188 150.007812 110.417969 151.335938 109.097656 C 153.367188 107.070312 155.378906 105.023438 157.386719 102.976562 C 158.671875 101.6875 159.960938 100.398438 161.246094 99.113281 C 161.847656 98.5 162.449219 97.882812 163.066406 97.25 C 163.636719 96.691406 164.207031 96.128906 164.796875 95.550781 C 165.292969 95.054688 165.789062 94.558594 166.300781 94.042969 C 168.511719 92.601562 169.851562 92.617188 172.445312 92.984375 Z M 172.445312 92.984375 "/>
<path style=" stroke:none;fill-rule:nonzero;fill:rgb(38.82353%,74.509805%,47.058824%);fill-opacity:1;" d="M 82.039062 182.632812 C 83.78125 183.667969 83.78125 183.667969 85.054688 184.894531 C 85.054688 185.390625 85.054688 185.886719 85.054688 186.398438 C 85.488281 186.570312 85.925781 186.742188 86.371094 186.917969 C 88.511719 188.167969 89.539062 189.734375 91.082031 191.675781 C 92.375 192.847656 93.707031 193.964844 95.046875 195.085938 C 97.457031 197.128906 99.609375 199.292969 101.535156 201.796875 C 104.066406 204.851562 107.183594 207.242188 110.246094 209.753906 C 111.890625 211.863281 111.6875 213.15625 111.421875 215.78125 C 110.332031 217.441406 110.332031 217.441406 108.785156 218.992188 C 108.207031 219.578125 107.632812 220.167969 107.039062 220.773438 C 106.410156 221.394531 105.777344 222.011719 105.128906 222.652344 C 104.484375 223.296875 103.839844 223.941406 103.179688 224.605469 C 101.816406 225.96875 100.449219 227.324219 99.074219 228.675781 C 96.972656 230.75 94.894531 232.84375 92.816406 234.941406 C 91.492188 236.257812 90.164062 237.578125 88.835938 238.894531 C 88.210938 239.523438 87.589844 240.152344 86.945312 240.800781 C 86.359375 241.375 85.769531 241.945312 85.164062 242.539062 C 84.394531 243.300781 84.394531 243.300781 83.609375 244.078125 C 81.625 245.449219 80.640625 245.570312 78.273438 245.164062 C 76.773438 244.109375 76.773438 244.109375 75.3125 242.617188 C 74.757812 242.0625 74.207031 241.503906 73.636719 240.933594 C 73.050781 240.324219 72.464844 239.71875 71.863281 239.09375 C 70.945312 238.167969 70.945312 238.167969 70.011719 237.222656 C 68.066406 235.25 66.128906 233.261719 64.195312 231.273438 C 62.25 229.289062 60.300781 227.308594 58.351562 225.332031 C 57.140625 224.097656 55.929688 222.863281 54.722656 221.625 C 54.175781 221.066406 53.632812 220.507812 53.070312 219.933594 C 52.347656 219.191406 52.347656 219.191406 51.613281 218.4375 C 50.445312 217.21875 50.445312 217.21875 48.890625 216.535156 C 48.570312 212.503906 48.570312 212.503906 49.980469 210.355469 C 50.492188 209.84375 51.003906 209.332031 51.53125 208.804688 C 52.394531 207.921875 52.394531 207.921875 53.273438 207.023438 C 53.90625 206.402344 54.535156 205.785156 55.1875 205.144531 C 55.832031 204.5 56.472656 203.855469 57.136719 203.1875 C 58.5 201.828125 59.867188 200.472656 61.238281 199.121094 C 63.339844 197.046875 65.421875 194.953125 67.5 192.855469 C 68.824219 191.539062 70.152344 190.21875 71.480469 188.902344 C 72.414062 187.957031 72.414062 187.957031 73.367188 186.996094 C 74.25 186.136719 74.25 186.136719 75.148438 185.257812 C 75.664062 184.75 76.175781 184.242188 76.707031 183.71875 C 78.652344 182.371094 79.71875 182.335938 82.039062 182.632812 Z M 82.039062 182.632812 "/>
<path style=" stroke:none;fill-rule:nonzero;fill:rgb(39.215687%,74.901962%,47.058824%);fill-opacity:1;" d="M 82.792969 93.738281 C 84.574219 95.117188 86.101562 96.449219 87.691406 98.019531 C 88.320312 98.621094 88.320312 98.621094 88.960938 99.230469 C 90.179688 100.402344 91.386719 101.585938 92.589844 102.777344 C 93.28125 103.457031 93.976562 104.140625 94.6875 104.84375 C 96.355469 106.542969 96.355469 106.542969 97.765625 108.378906 C 99.46875 110.429688 101.300781 112.019531 103.339844 113.722656 C 105.132812 115.25 106.765625 116.910156 108.410156 118.597656 C 109.109375 119.203125 109.808594 119.808594 110.527344 120.433594 C 112.175781 122.363281 112.175781 122.363281 112.445312 124.542969 C 112.125 127.335938 111.5 128.128906 109.539062 130.09375 C 108.960938 130.683594 108.386719 131.269531 107.792969 131.875 C 107.160156 132.496094 106.53125 133.117188 105.882812 133.753906 C 105.238281 134.398438 104.59375 135.046875 103.933594 135.710938 C 102.570312 137.070312 101.203125 138.429688 99.828125 139.777344 C 97.726562 141.851562 95.648438 143.945312 93.570312 146.042969 C 92.242188 147.363281 90.917969 148.679688 89.589844 150 C 88.964844 150.625 88.34375 151.253906 87.699219 151.902344 C 87.113281 152.476562 86.523438 153.050781 85.917969 153.640625 C 85.148438 154.402344 85.148438 154.402344 84.363281 155.179688 C 82.417969 156.527344 81.34375 156.609375 79.027344 156.265625 C 77.660156 154.710938 77.660156 154.710938 76.015625 152.5 C 75.058594 151.632812 74.082031 150.789062 73.09375 149.957031 C 71.121094 148.273438 69.371094 146.59375 67.726562 144.589844 C 65.675781 142.09375 63.367188 140.089844 60.90625 138.007812 C 59.066406 136.339844 57.53125 134.503906 55.957031 132.585938 C 54.53125 130.964844 52.855469 129.714844 51.152344 128.390625 C 49.644531 126.132812 49.644531 126.132812 49.761719 124.296875 C 50.503906 122.046875 51.390625 120.988281 53.054688 119.308594 C 53.613281 118.734375 54.175781 118.164062 54.753906 117.574219 C 55.363281 116.964844 55.972656 116.359375 56.601562 115.734375 C 57.539062 114.789062 57.539062 114.789062 58.496094 113.824219 C 59.820312 112.496094 61.148438 111.171875 62.480469 109.847656 C 64.519531 107.820312 66.539062 105.777344 68.554688 103.730469 C 69.84375 102.441406 71.132812 101.152344 72.421875 99.867188 C 73.027344 99.253906 73.632812 98.636719 74.253906 98.003906 C 74.824219 97.445312 75.394531 96.882812 75.984375 96.304688 C 76.480469 95.808594 76.980469 95.308594 77.492188 94.796875 C 79.4375 93.453125 80.476562 93.390625 82.792969 93.738281 Z M 82.792969 93.738281 "/>
<path style=" stroke:none;fill-rule:nonzero;fill:rgb(39.215687%,74.901962%,47.058824%);fill-opacity:1;" d="M 84.300781 4.839844 C 85.929688 5.894531 85.929688 5.894531 87.441406 7.394531 C 88.015625 7.953125 88.585938 8.511719 89.179688 9.089844 C 89.78125 9.699219 90.382812 10.3125 91.003906 10.941406 C 91.949219 11.878906 91.949219 11.878906 92.910156 12.835938 C 94.238281 14.160156 95.558594 15.488281 96.875 16.824219 C 98.890625 18.863281 100.929688 20.878906 102.972656 22.894531 C 104.257812 24.183594 105.542969 25.472656 106.824219 26.765625 C 107.4375 27.367188 108.050781 27.96875 108.679688 28.589844 C 109.238281 29.164062 109.796875 29.738281 110.371094 30.328125 C 110.867188 30.824219 111.363281 31.324219 111.871094 31.835938 C 113.308594 34.054688 113.300781 35.390625 112.929688 37.988281 C 111.839844 39.652344 111.839844 39.652344 110.292969 41.210938 C 109.714844 41.800781 109.140625 42.390625 108.546875 43 C 107.914062 43.621094 107.285156 44.242188 106.632812 44.882812 C 105.992188 45.53125 105.347656 46.179688 104.683594 46.84375 C 103.324219 48.210938 101.957031 49.570312 100.582031 50.921875 C 98.480469 53.003906 96.398438 55.105469 94.324219 57.210938 C 92.996094 58.535156 91.671875 59.855469 90.34375 61.175781 C 89.71875 61.808594 89.097656 62.441406 88.453125 63.089844 C 87.867188 63.664062 87.277344 64.238281 86.671875 64.828125 C 86.160156 65.339844 85.644531 65.851562 85.117188 66.375 C 83.546875 67.371094 83.546875 67.371094 81.660156 67.316406 C 79.496094 66.511719 78.367188 65.59375 76.726562 63.972656 C 75.867188 63.136719 75.867188 63.136719 74.988281 62.28125 C 74.382812 61.675781 73.777344 61.066406 73.148438 60.4375 C 72.207031 59.503906 72.207031 59.503906 71.242188 58.550781 C 69.910156 57.230469 68.585938 55.90625 67.265625 54.578125 C 65.238281 52.546875 63.191406 50.535156 61.144531 48.523438 C 59.855469 47.238281 58.570312 45.953125 57.28125 44.664062 C 56.667969 44.066406 56.054688 43.464844 55.421875 42.84375 C 54.859375 42.273438 54.296875 41.703125 53.71875 41.117188 C 53.222656 40.621094 52.726562 40.125 52.214844 39.613281 C 50.769531 37.402344 50.785156 36.0625 51.152344 33.46875 C 52.207031 31.835938 52.207031 31.835938 53.707031 30.328125 C 54.265625 29.753906 54.824219 29.179688 55.402344 28.589844 C 56.011719 27.988281 56.625 27.386719 57.257812 26.765625 C 58.191406 25.820312 58.191406 25.820312 59.148438 24.859375 C 60.472656 23.53125 61.800781 22.210938 63.136719 20.894531 C 65.175781 18.878906 67.191406 16.839844 69.207031 14.796875 C 70.496094 13.507812 71.785156 12.226562 73.078125 10.941406 C 73.980469 10.023438 73.980469 10.023438 74.902344 9.089844 C 75.476562 8.53125 76.050781 7.972656 76.640625 7.394531 C 77.136719 6.902344 77.636719 6.40625 78.148438 5.894531 C 80.363281 4.460938 81.707031 4.472656 84.300781 4.839844 Z M 84.300781 4.839844 "/>
</g>
</svg>
