<svg id="Layer_1" data-name="Layer 1" xmlns="http://www.w3.org/2000/svg" viewBox="0 0 800 120" height="250" width="250"><defs><style>.cls-1{fill:#fe5800;}.cls-2{fill:#ffffff;}</style></defs><title>Nutshell_lockup_full_color</title><path class="cls-1" d="M764.82,38.71A3.1,3.1,0,0,1,761.9,35L764,23.83a2.52,2.52,0,0,0,.06-.52c0-2.37-3.32-2.68-7.62-2.68s-7.63.31-7.63,2.68a2.52,2.52,0,0,0,.06.52L751,35a3.12,3.12,0,0,1-3,3.68c-20.58.72-35.1,7.46-35.1,19.75v4.73a2.26,2.26,0,0,0,2.26,2.26h37.45a2.17,2.17,0,0,1,2.27,2.26,2.1,2.1,0,0,1-1.8,2.11l-27.77,5.38a2.12,2.12,0,0,0-1.8,2.19v9.51c0,18.26,14.28,33.63,32.93,33.63a33,33,0,0,0,33-33V67.56a2.19,2.19,0,0,1,2.26-2.18h6A2.26,2.26,0,0,0,800,63.12V58.39C800,46.07,785.48,39.81,764.82,38.71Z"/><path class="cls-2" d="M95.06-.06c-1.72-.19-5.5-.4-8-.4H84.57c-3.51,0-7.13,0-10.56.2-2.89.16-3,1-3,2.91V60.31a1.82,1.82,0,0,1-1.82,1.82h-.41a1.82,1.82,0,0,1-1.55-.86L33.78,7.72c-4-6.62-5.42-8.18-16.52-8.18H15c-3,0-8.56,0-11.58.2C1.3-.14,0,.18,0,5.11,0,7,0,9.63.08,12.66c.06,4,.13,8.57.13,12.76v83.11c0,7.85,1.73,9.47,6.62,10.1,1.45.18,6.23.39,8.79.39h2.26a66.81,66.81,0,0,0,9.8-.6h0c2.37-.28,2.91-.94,2.91-3.53,0-1.5,0-3.47-.09-5.61-.06-2.53-.12-5.28-.12-7.73V58.87a1.83,1.83,0,0,1,1.82-1.82h.41a1.82,1.82,0,0,1,1.53.83l33.45,51.3c4.93,7.7,8.84,10,16.73,10h2.06c5,0,9-.35,11-1,3.15-1,3.84-1.42,3.84-3.8V9.83C101.22,1,99.63.4,95.06-.06Z"/><path class="cls-2" d="M205.18,91.5V39.58c0-7.16-1.25-10.08-13.78-10.08h-6.77a103.28,103.28,0,0,0-11.66.81c-2.35.33-2.53,1.09-2.53,2.3,0,.77,0,1.72.08,2.82.06,1.51.13,3.28.13,5.18v51.3a1.79,1.79,0,0,1-.81,1.51,15.77,15.77,0,0,1-8.4,2.16c-8.61,0-9.61-7-9.61-12.29V40c0-7.25-2-10.49-13.78-10.49h-6.77a102.94,102.94,0,0,0-11.66.81c-2.35.33-2.52,1.09-2.52,2.3,0,.77,0,1.72.08,2.82,0,1.51.12,3.28.12,5.18V90.27c0,20,9.19,30.19,27.32,30.19,11.09,0,19.71-4.39,24.93-12.69a1.81,1.81,0,0,1,3.32.6l1.23,5.95c1,3.14,2.26,4.7,9.71,4.7H191a105.67,105.67,0,0,0,12.26-.39c2.34-.29,2.54-.71,2.54-2.71s0-4.66-.2-7.46C205.38,103.1,205.18,97.42,205.18,91.5Z"/><path class="cls-2" d="M266.43,53H282.5c4.55,0,6.71-1,8.24-4,1.19-2.37,1.43-5.36,1.43-9.41,0-2,0-5.24-.19-7.2-.13-1.8-.19-1.85-2.09-1.85-6.54.2-16,.2-23.46.2a1.82,1.82,0,0,1-1.82-1.82V10.44c0-2.1-.23-2.12-2-2.29C261,8.07,259.63,8,258.32,8a49.29,49.29,0,0,0-5.83.32,11.87,11.87,0,0,0-7.6,3.64L221.26,32.54c-2.58,2.36-4,4.12-4.64,5.67-.83,2.15-1.31,6.4-1.31,11.63,0,2.61.95,3.11,2.7,3.11H229.7a1.82,1.82,0,0,1,1.3.55,1.77,1.77,0,0,1,.52,1.31l-.61,30c-.32,13.17,2.1,21.93,7.61,27.58,5.33,5.46,13.85,8.11,26.07,8.11,18.13,0,27.17-7.15,27.17-19.11a3.91,3.91,0,0,0-.81-2.82,2.56,2.56,0,0,0-2-.5c-1.13,0-2.1.06-3,.11s-1.89.1-2.82.1c-7.84,0-10.86-1.22-13.82-4-4.35-3.89-4.69-11.17-4.69-21V54.77A1.82,1.82,0,0,1,266.43,53Z"/><path class="cls-2" d="M479.38,107.92V63.39c0-11.21-.85-18.42-2.75-23.36C473.37,31.59,466,27.66,453.5,27.66a38.45,38.45,0,0,0-26.64,10.56,1.82,1.82,0,0,1-3.09-1.3V8.8c0-6.72-1.19-9.26-13.77-9.26h-6.77a76.87,76.87,0,0,0-11.59.79c-2.43.35-2.6,1.11-2.6,2.32,0,.77,0,1.72.08,2.82.06,1.51.13,3.28.13,5.18v99.11c0,6.72,1.19,9.26,13.77,9.26h6.77a76.87,76.87,0,0,0,11.59-.79c2.43-.35,2.6-1.11,2.6-2.31,0-.78,0-1.73-.08-2.82-.06-1.52-.13-3.28-.13-5.18V55.18a1.83,1.83,0,0,1,1.06-1.66,22.18,22.18,0,0,1,9.38-2.22c8.9,0,10.65,6.16,10.65,16.8v41.66c0,6.72,1.18,9.26,13.77,9.26h6.77a76.87,76.87,0,0,0,11.59-.79c2.42-.35,2.6-1.11,2.6-2.31,0-.78,0-1.73-.08-2.82C479.45,111.58,479.38,109.82,479.38,107.92Z"/><path class="cls-2" d="M537.77,27.66c-28.8,0-46,17.73-46,47.42,0,28.42,17.27,45.38,46.2,45.38,15.86,0,26.77-4,34.33-12.72,3.06-3.53,4.89-7.84,4.89-11.52,0-2.55-1.1-2.9-2.29-2.9s-3.13.2-5.43.44c-3.48.35-7.81.79-11.8.79-16.79,0-26.45-4.67-30.42-14.69a1.81,1.81,0,0,1,1.69-2.49h0c11.8.14,33.38.28,45.22-.41,2.2-.14,3.05-.49,3.21-3.61a52.64,52.64,0,0,0,.21-5.65C577.6,42.25,563.08,27.66,537.77,27.66Zm13.3,36.07a1.82,1.82,0,0,1-1.35.65c-7.42.21-16.19.21-23.24.21a1.81,1.81,0,0,1-1.82-1.82c0-10.07,3.16-15.91,9.41-17.37a12.83,12.83,0,0,1,2.88-.25,12.41,12.41,0,0,1,10.76,6.38,27.85,27.85,0,0,1,3.75,10.75A1.8,1.8,0,0,1,551.07,63.73Z"/><path class="cls-2" d="M626,107.92V8.8c0-6.72-1.19-9.26-13.77-9.26h-6.77a76.79,76.79,0,0,0-11.59.79c-2.43.35-2.6,1.11-2.6,2.32,0,.77,0,1.73.08,2.82.06,1.51.13,3.28.13,5.18v99.11c0,6.72,1.18,9.26,13.77,9.26H612a76.87,76.87,0,0,0,11.59-.79c2.43-.35,2.6-1.11,2.6-2.31,0-.78,0-1.73-.08-2.82C626,111.58,626,109.82,626,107.92Z"/><path class="cls-2" d="M677.92,113.1c-.06-1.52-.13-3.28-.13-5.18V8.8c0-6.72-1.19-9.26-13.77-9.26h-6.78a76.67,76.67,0,0,0-11.58.79c-2.43.35-2.6,1.11-2.6,2.32,0,.77,0,1.73.08,2.82.06,1.51.13,3.28.13,5.18v99.11c0,6.72,1.18,9.26,13.77,9.26h6.77a76.67,76.67,0,0,0,11.58-.79c2.43-.35,2.61-1.11,2.61-2.31C678,115.14,678,114.19,677.92,113.1Z"/><path class="cls-2" d="M334.56,53.54c0-3.46,2.31-7.16,8.8-7.16,7.52,0,11.28,2.93,17.5,9.15,2.16,2.17,3,2.55,3.84,2.55a11,11,0,0,0,4.78-1.57,14.77,14.77,0,0,0,7.15-12.82c0-14.47-23.84-16-34.09-16C318,27.66,302.7,38.44,302.7,55.8c0,33.77,41.08,25.1,46.25,35.57l0,0a4.77,4.77,0,0,1,.32.92c0,.08,0,.17.07.26a5.54,5.54,0,0,1,.13,1.18c0,3-1.36,8-10.44,8-9.47,0-18.62-4.73-28.78-14.89a3.34,3.34,0,0,0-2.41-1.11,5.26,5.26,0,0,0-3.43,1.51,19.59,19.59,0,0,0-5.83,13.7c0,4.58,2.87,19.52,39.83,19.52,26.1,0,41.69-11.75,41.69-31.42C380.12,59.28,334.56,66.23,334.56,53.54Z"/></svg>
