<?xml version="1.0" encoding="UTF-8"?>
<svg version="1.1" xmlns="http://www.w3.org/2000/svg" width="87" height="78">
<path d="M0 0 C1.24258324 -0.02409439 1.24258324 -0.02409439 2.51026917 -0.04867554 C6.31331346 -0.09345832 10.11618645 -0.1342312 13.91943359 -0.15722656 C15.91629744 -0.17372556 17.91310372 -0.20093478 19.90966797 -0.23925781 C42.4188476 -0.66864417 42.4188476 -0.66864417 50.97827148 7.10742188 C56.30445718 12.44923939 58.87346435 18.68558428 59.24584961 26.19287109 C58.85357007 34.43074151 55.43235304 41.21086375 49.87084961 47.19287109 C41.73800333 53.76836383 33.90107281 53.46436586 23.87084961 53.19287109 C23.37584961 55.04912109 23.37584961 55.04912109 22.87084961 56.94287109 C20.25348481 64.8450586 15.13751617 72.68500758 8.87084961 78.19287109 C8.21084961 78.19287109 7.55084961 78.19287109 6.87084961 78.19287109 C5.4855957 76.30371094 5.4855957 76.30371094 3.89428711 73.65380859 C3.30969727 72.68749512 2.72510742 71.72118164 2.12280273 70.72558594 C1.5034082 69.68354004 0.88401367 68.64149414 0.24584961 67.56787109 C-0.38643555 66.51422363 -1.0187207 65.46057617 -1.67016602 64.375 C-3.49870283 61.31946809 -5.31573109 58.25739293 -7.12915039 55.19287109 C-7.57226562 54.44908203 -8.01538086 53.70529297 -8.47192383 52.93896484 C-10.77403805 49.06624933 -12.98850583 45.15702769 -15.12915039 41.19287109 C-15.72727539 40.09974609 -16.32540039 39.00662109 -16.94165039 37.88037109 C-20.67927573 30.54355098 -22.36962868 24.42964691 -21.12915039 16.19287109 C-18.68496831 9.11760719 -13.37576092 4.99515576 -7.12915039 1.19287109 C-4.43176994 0.29374428 -2.77792597 0.04913619 0 0 Z M-12.19165039 14.38037109 C-14.75101004 18.57165693 -15.12991673 22.41998548 -14.12915039 27.19287109 C-12.71477401 30.6849176 -11.02930667 33.94224661 -9.12915039 37.19287109 C-1.17200027 35.64814218 5.80483843 29.26347372 10.87084961 23.19287109 C12.77976031 20.01135325 12.87084961 18.37157809 12.87084961 14.63037109 C12.14390004 11.01308566 12.14390004 11.01308566 9.18334961 8.75537109 C1.58792637 5.17262428 -6.90312079 7.91995141 -12.19165039 14.38037109 Z M17.87084961 7.19287109 C17.91725586 8.11068359 17.96366211 9.02849609 18.01147461 9.97412109 C18.28336154 19.21827678 17.64571841 24.7888575 11.62084961 31.81787109 C6.68255111 36.08276525 1.56820067 39.98811112 -4.12915039 43.19287109 C-2.8620972 46.5570266 -1.41801846 49.56318899 0.47241211 52.61865234 C0.96225586 53.41464844 1.45209961 54.21064453 1.95678711 55.03076172 C2.71862305 56.25569336 2.71862305 56.25569336 3.49584961 57.50537109 C4.01147461 58.34132812 4.52709961 59.17728516 5.05834961 60.03857422 C6.32571965 62.09218308 7.59663534 64.14350451 8.87084961 66.19287109 C12.16274796 62.43581319 14.24224525 58.59165775 16.12084961 54.00537109 C16.38897461 53.37695312 16.65709961 52.74853516 16.93334961 52.10107422 C18.39525311 48.76143925 18.39525311 48.76143925 18.87084961 45.19287109 C20.16120117 45.23927734 21.45155273 45.28568359 22.78100586 45.33349609 C24.49843049 45.37103543 26.21588033 45.40743326 27.93334961 45.44287109 C28.7809082 45.47638672 29.6284668 45.50990234 30.50170898 45.54443359 C38.03228215 45.66073588 42.10667272 43.77276953 47.68334961 38.56787109 C51.16827944 33.97146863 52.24443553 28.46975332 51.59741211 22.79443359 C49.97600589 16.62466708 46.291047 12.47591012 40.87084961 9.19287109 C35.59376483 7.26409342 30.95965162 6.93641286 25.43334961 7.06787109 C24.70180664 7.07689453 23.97026367 7.08591797 23.21655273 7.09521484 C21.43450663 7.11850956 19.65263202 7.15436919 17.87084961 7.19287109 Z " fill="#7697F1" transform="translate(21.129150390625,-0.19287109375)"/>
</svg>
