<svg width="300" height="300" viewBox="0 0 300 300" fill="none" xmlns="http://www.w3.org/2000/svg">
<rect width="300" height="300" fill="white"/>
<path d="M150 50C94.77 50 50 94.77 50 150C50 205.23 94.77 250 150 250C205.23 250 250 205.23 250 150C250 94.77 205.23 50 150 50ZM150 230C105.82 230 70 194.18 70 150C70 105.82 105.82 70 150 70C194.18 70 230 105.82 230 150C230 194.18 194.18 230 150 230Z" fill="#615EFF"/>
<path d="M150 90C116.86 90 90 116.86 90 150C90 183.14 116.86 210 150 210C183.14 210 210 183.14 210 150C210 116.86 183.14 90 150 90ZM150 190C127.91 190 110 172.09 110 150C110 127.91 127.91 110 150 110C172.09 110 190 127.91 190 150C190 172.09 172.09 190 150 190Z" fill="#615EFF"/>
<circle cx="150" cy="150" r="30" fill="#615EFF"/>
</svg>
