<?xml version="1.0" encoding="utf-8"?>
<!-- Generator: Adobe Illustrator 26.0.3, SVG Export Plug-In . SVG Version: 6.00 Build 0)  -->
<svg version="1.0" id="katman_1" xmlns="http://www.w3.org/2000/svg" xmlns:xlink="http://www.w3.org/1999/xlink" x="0px" y="0px"
	 viewBox="0 0 800 600" style="enable-background:new 0 0 800 600;" xml:space="preserve">
<style type="text/css">
	.st0{clip-path:url(#SVGID_00000061464863754787056510000000905814910531898293_);fill:#00CE3E;}
	.st1{fill:#061F33;}
</style>
<g>
	<g>
		<defs>
			<rect id="SVGID_1_" x="87" y="195.7" width="626" height="208.7"/>
		</defs>
		<clipPath id="SVGID_00000083073068415055786330000014044562452968495528_">
			<use xlink:href="#SVGID_1_"  style="overflow:visible;"/>
		</clipPath>
		<path style="clip-path:url(#SVGID_00000083073068415055786330000014044562452968495528_);fill:#00CE3E;" d="M259.6,225.1
			c-39.5-39.4-103.5-39.3-142.9,0.2c-39.5,39.5-39.5,103.4-0.2,142.9c19,19,44.7,29.6,71.5,29.6c26.8,0,52.6-10.6,71.6-29.6
			c19-19,29.6-44.7,29.6-71.5C289.2,269.9,278.5,244.1,259.6,225.1L259.6,225.1z M270.5,287.5L227,248l-44.6,42.1l-23.4,22v-32.8
			l35.5-33.7l26.5-25.1C248.3,232.4,267.2,257.9,270.5,287.5L270.5,287.5z M269.7,311.4c-1.5,8.7-4.5,17.1-8.7,24.8l-24.8-22.6
			v-32.8L269.7,311.4z M200.7,214.7L182,232.4l-23.1,21.9V219C172.3,214,186.7,212.5,200.7,214.7L200.7,214.7z M140.7,312.7
			l-34.4-30.9c1.6-8.9,4.7-17.4,9-25.2l25.4,22.7V312.7z M140.7,228.5v26.3L126,241.6C130.4,236.6,135.3,232.2,140.7,228.5
			L140.7,228.5z M105.5,305.4l44.6,40l68-63.9v32.3L155.3,373C127.7,361.1,108.7,335.3,105.5,305.4L105.5,305.4z M175.6,378.8
			l42.4-40.1v35.4c-9.6,3.7-19.7,5.6-30,5.6C183.9,379.7,179.7,379.4,175.6,378.8L175.6,378.8z M236.2,364.3v-26.2l14.5,13.1
			C246.4,356.1,241.5,360.6,236.2,364.3L236.2,364.3z M236.2,364.3"/>
	</g>
	<path class="st1" d="M490,286.8c-0.1-7.7-10.5-9.9-13.7-2.9c-20.9-12.1-47,2.9-47,27.1c0,24.1,26.2,39.2,47,27
		c3.2,7,13.6,4.8,13.7-2.9V286.8z M460.7,328c-13.3,0-21.5-14.5-14.6-25.8c6.8-11.4,23.5-10.8,29.7,0.9v15.8
		C472.8,324.4,467.1,327.9,460.7,328L460.7,328z M697.5,342.2c-3.9,0-7.2-3.2-7.2-7.1v-48.3c0-5.5,6-8.9,10.7-6.2
		c2.2,1.3,3.6,3.6,3.6,6.2v48.3C704.6,339,701.4,342.2,697.5,342.2L697.5,342.2z M610.2,286.8c-0.1-7.7-10.5-9.9-13.6-2.9
		c-20.9-12.1-47.1,2.9-47.1,27.1c0,24.1,26.2,39.2,47.1,27c3.2,7,13.6,4.8,13.6-2.9V286.8z M580.8,328c-13.3,0-21.4-14.5-14.6-25.8
		c6.9-11.4,23.5-10.8,29.6,0.9v15.8C593,324.4,587.1,328,580.8,328L580.8,328z M650.2,279.6c-5.2,0-10.4,1.3-15,3.9v-23.2
		c-0.4-9.2-13.9-9.2-14.3,0V335c0.1,7.7,10.5,9.9,13.6,2.9c11.4,6.6,25.7,5.4,35.8-3c10.1-8.5,13.8-22.3,9.4-34.7
		c-4.4-12.4-16.2-20.6-29.4-20.7L650.2,279.6z M650.2,327.9c-6.3,0-12.1-3.5-15.1-9.1V303c6.1-11.7,22.8-12.3,29.7-0.9
		C671.6,313.5,663.4,328,650.2,327.9L650.2,327.9z M650.2,327.9"/>
	<path class="st1" d="M707.4,261.4c0,5.5-4.4,9.9-9.9,9.9c-5.5,0-9.9-4.4-9.9-9.9c0-5.5,4.4-9.9,9.9-9.9
		C702.9,251.5,707.4,255.9,707.4,261.4L707.4,261.4z M707.4,261.4"/>
	<path class="st1" d="M423.3,279c-3.5-1.4-7.6,0-9.5,3.2c-0.3,0.6-0.6,1.2-0.8,1.9c-0.3,1.3-0.7,2.6-1.2,3.7l-12.2,28.8L387,287
		c-1.1-2.6-3.7-4.3-6.6-4.4c-2.8,0-5.4,1.7-6.5,4.3l-12.9,29.9L349,288.1c-0.5-1.2-0.9-2.4-1.2-3.6c-0.7-3-3-5.2-6-5.7
		c-6.5-1.2-11.3,5.9-7.9,11.5c0.8,1.2,1.5,2.4,2,3.7l18.4,43.8c1.1,2.7,3.7,4.4,6.5,4.4h0.1c2.8,0,5.4-1.7,6.5-4.3l13-30.1l12.7,30
		c1.1,2.6,3.7,4.3,6.6,4.3c2.9,0,5.4-1.8,6.5-4.4l18.5-43.8c0.6-1.4,1.3-2.7,2.1-3.9C429.4,286.1,427.7,280.9,423.3,279L423.3,279z
		 M522.8,303.8c-1.6-0.1-9.6-0.9-9.6-4.5c0-4.9,5.3-5.4,7.6-5.4c4.8,0,6.9,1.9,7.4,2.2c6.1,6.5,16.2-1.8,11-9
		c-0.6-0.8-6.3-7.4-18.4-7.4c-12.9,0-21.8,8.1-21.8,19.7c0,4,1.6,17,22.7,18.6c2.9,0.2,7.8,1.2,7.8,5.1c0,4.8-8.3,4.8-8.6,4.8
		c-6.5,0-10.3-2.5-10.9-3c-3-2.7-7.6-2.4-10.2,0.7c-2.6,3.1-2.1,7.7,1.1,10.2c0.8,0.7,7.9,6.3,20.1,6.3c4.8,0,9.6-1.2,13.8-3.5
		c5.7-3.1,9.1-9.1,9-15.5C543.7,312.3,535.5,304.8,522.8,303.8L522.8,303.8z M522.8,303.8"/>
</g>
</svg>
