<?xml version="1.0" encoding="UTF-8"?> <svg xmlns="http://www.w3.org/2000/svg" width="250" height="250" viewBox="0 0 400 300"><g fill="none" transform="translate(35 98)"><path fill="#454D59" d="M27.9562348 1.27071179L44.4994088 1.27071179 44.4994088 9.18378063 44.7876174 9.18378063C48.3037624 4.10093349 54.1255763 0 61.215508 0 68.9971403 0 73.9543284 3.52333722 76.3176389 9.47257876L76.6058475 9.47257876C78.2774575 6.75787631 80.9866184 4.21645274 83.6957793 2.54142357 86.5202236.866394399 89.74816 0 93.3219467 0 105.772558 0 111.306164 9.93465578 111.306164 26.5116686L111.306164 70.5822637 92.8031712 70.5822637 92.8031712 29.6306884C92.8031712 21.8331389 91.9385454 15.4795799 86.4625819 15.4795799 83.2346455 15.4795799 80.640768 17.7322054 79.5455753 21.7176196 79.1420833 22.8728121 78.9691581 24.7211202 78.9691581 26.6849475L78.9691581 70.5822637 60.4661656 70.5822637 60.4661656 27.0892649C60.4661656 22.0064177 60.0626735 15.4795799 54.2408597 15.4795799 51.4164154 15.4795799 48.591971 17.4434072 47.3238531 21.7176196 46.9203611 22.9883314 46.6321525 24.9521587 46.6321525 26.9737456L46.6321525 70.5822637 28.12916 70.5822637 27.9562348 1.27071179zM167.160992 54.5250875L167.160992 70.5822637 150.617818 70.5822637 150.617818 63.7088681 150.214326 63.7088681C146.525255 69.0227538 141.049292 71.7374562 134.939269 71.7374562 124.448476 71.7374562 116.724486 62.8424737 116.724486 50.5396733 116.724486 32.0565928 132.691242 24.6056009 148.36979 24.4900817L148.36979 22.9305718C148.36979 17.327888 147.216956 16.3459743 140.588158 16.3459743 135.054553 16.3459743 120.586481 16.3459743 120.586481 16.3459743L126.120086 1.44399067C126.120086 1.44399067 136.899088 1.44399067 146.640539 1.44399067 167.737409 1.44399067 167.160992 14.3243874 167.160992 28.6487748L167.160992 54.5250875 167.160992 54.5250875zM148.946208 36.4463244C142.893827 36.6196033 134.247569 38.7567095 134.247569 48.4603267 134.247569 55.3337223 138.051922 57.9329055 140.876367 57.9329055 143.98902 57.9329055 147.216956 56.0845974 148.485074 51.9259043 148.773283 50.9439907 148.888566 49.9043174 148.888566 48.6336056L148.946208 36.4463244 148.946208 36.4463244z"></path><g fill="#3DBCB2" transform="translate(172.695)"><path d="M52.6268915,8.20186698 L52.6268915,1.27071179 L36.1413592,1.32847141 L36.1990009,8.37514586 L35.9107923,8.37514586 C33.2016314,3.00350058 28.7055772,0 23.1719719,0 C10.4331515,0 0,13.457993 0,36.5618436 C0,53.1388565 6.05238073,70.1201867 21.500362,70.1201867 C26.7457587,70.1201867 31.5300215,67.5787631 33.9509738,63.1890315 L34.2391824,63.1890315 L34.2391824,67.4632439 C34.2391824,78.0910152 30.5501123,84.3290548 21.2121534,84.3290548 C15.8514733,84.3290548 9.33795884,84.2712952 9.33795884,84.2712952 L3.97727877,98.9422404 C3.97727877,98.9422404 15.4479813,98.9422404 21.9614958,98.9422404 C31.9911553,98.9422404 39.3692956,96.1120187 44.4417671,91.3179697 C49.8024472,86.0618436 52.6268915,78.0910152 52.7421749,63.9399067 C47.2085697,57.4708285 44.8452591,47.0163361 44.8452591,36.6196033 C44.7876174,24.0857643 47.8426286,14.4399067 52.6268915,8.20186698 Z M34.1815407,43.9550758 C34.1815407,45.8033839 34.0662573,47.9404901 33.3169149,49.5 C31.8758719,53.1966161 29.6278447,54.4673279 27.2645342,54.4673279 C21.9038541,54.4673279 18.2147839,47.9404901 18.2147839,35.0600933 C18.2147839,23.7392065 20.9239448,14.6709452 27.5527428,14.6709452 C30.6653957,14.6709452 32.6252142,17.3856476 33.48984,20.3313886 C33.8933321,21.7176196 34.1815407,23.5659277 34.1815407,25.4142357 L34.1815407,43.9550758 L34.1815407,43.9550758 Z"></path><path d="M101.161221,1.27071179 L84.6756885,1.32847141 L84.7333302,8.37514586 L84.3874799,8.37514586 C81.7359607,3.00350058 77.1822648,0 71.7063012,0 C65.8268457,0 60.4661656,2.88798133 56.3736034,8.20186698 C51.5893405,14.4399067 48.5343293,24.0857643 48.5343293,36.5618436 C48.5343293,46.9008168 50.8976399,57.4130688 56.4312451,63.882147 C59.7744649,67.752042 64.2128775,70.1779463 70.0346913,70.1779463 C75.280088,70.1779463 80.0643508,67.6365228 82.4853031,63.2467911 L82.7735117,63.2467911 L82.7735117,67.5210035 C82.7735117,78.1487748 79.0844416,84.3868145 69.7464827,84.3868145 C64.3858026,84.3868145 59.3133312,84.3290548 59.3133312,84.3290548 L53.9526511,99 C53.9526511,99 63.9823106,99 70.4958251,99 C80.5254846,99 87.9036249,96.1697783 92.9760964,91.3757293 C98.5097016,86.004084 101.334146,77.802217 101.334146,62.9002334 L101.161221,1.27071179 Z M82.71587,43.9550758 C82.71587,45.8033839 82.6005866,47.9404901 81.8512442,49.5 C80.4678429,53.1966161 78.162174,54.4673279 75.7988634,54.4673279 C70.4381834,54.4673279 66.7491132,47.9404901 66.7491132,35.0600933 C66.7491132,23.7392065 69.4582741,14.6709452 76.087072,14.6709452 C79.199725,14.6709452 81.1595435,17.3856476 82.0241693,20.3313886 C82.4276614,21.7176196 82.71587,23.5659277 82.71587,25.4142357 L82.71587,43.9550758 L82.71587,43.9550758 Z"></path></g><g transform="translate(0 1.386)"><polygon fill="#454D59" points="12.162 0 12.162 12.823 0 12.823 0 69.254 18.561 69.254 18.561 0"></polygon><rect width="9.28" height="9.935" fill="#3DBCB2"></rect></g><path fill="#454D59" d="M329.998854,54.5250875 L329.998854,70.5822637 L313.45568,70.5822637 L313.45568,63.7088681 L313.052188,63.7088681 C309.363118,69.0227538 303.887154,71.7374562 297.777132,71.7374562 C287.286339,71.7374562 279.562348,62.8424737 279.562348,50.5396733 C279.562348,32.0565928 295.529105,24.6056009 311.207653,24.4900817 L311.207653,22.9305718 C311.207653,17.327888 310.054819,16.3459743 303.426021,16.3459743 C297.892415,16.3459743 283.424343,16.3459743 283.424343,16.3459743 L288.957949,1.44399067 C288.957949,1.44399067 299.73695,1.44399067 309.478401,1.44399067 C330.51763,1.44399067 329.998854,14.3243874 329.998854,28.6487748 L329.998854,54.5250875 L329.998854,54.5250875 Z M311.78407,36.4463244 C305.73169,36.6196033 297.085431,38.7567095 297.085431,48.4603267 C297.085431,55.3337223 300.889785,57.9329055 303.714229,57.9329055 C306.826882,57.9329055 310.054819,56.0845974 311.322936,51.9259043 C311.611145,50.9439907 311.726429,49.9043174 311.726429,48.6336056 L311.78407,36.4463244 L311.78407,36.4463244 Z"></path></g></svg> 