<svg xmlns="http://www.w3.org/2000/svg" viewBox="317.7493 114.3823 36.3 36.2" width="250" height="250">
  <path class="st0" d="M81,12.8h-9.7c-0.3,0-0.6,0.3-0.6,0.6v9.7C72.8,18.5,76.4,14.8,81,12.8z" style="fill: rgb(0, 42, 77);" transform="matrix(1, 0, 0, 1, 247.04933166503903, 101.58231735229492)"/>
  <path class="st0" d="M88.9,12.8c-10,0-18.1,8.1-18.1,18.1c0,10,8.1,18.1,18.1,18.1s18.1-8.1,18.1-18.1   C106.9,20.9,98.8,12.8,88.9,12.8z M89,40.5c-5.2,0-9.4-4.2-9.4-9.4c0-5.2,4.2-9.4,9.4-9.4s9.4,4.2,9.4,9.4   C98.4,36.2,94.2,40.5,89,40.5z" style="fill: rgb(0, 42, 77);" transform="matrix(1, 0, 0, 1, 247.04933166503903, 101.58231735229492)"/>
</svg>
