<svg xmlns="http://www.w3.org/2000/svg" width="250" height="250" fill="none"><g clip-path="url(#a)"><path fill="#FF3465" d="M125 223c54.124 0 98-43.876 98-98s-43.876-98-98-98-98 43.876-98 98 43.876 98 98 98Z"/><path fill="#fff" fill-rule="evenodd" d="M103.269 177.623c-6.773-2.729-12.645-6.538-17.61-11.424-4.973-4.884-8.844-10.671-11.618-17.353-2.777-6.682-4.166-14.043-4.166-22.092 0-8.189 1.552-15.842 4.66-22.953 3.104-7.114 7.402-13.293 12.894-18.538 5.487-5.243 11.918-9.374 19.284-12.392 7.367-3.018 15.312-4.527 23.838-4.527 6.352 0 12.313.898 17.877 2.694 5.558 1.798 10.4 4.277 14.517 7.435 4.118 3.163 7.368 6.934 9.75 11.315 2.385 4.387 3.576 9.021 3.576 13.903 0 5.462-1.733 10.022-5.199 13.687-3.468 3.666-7.731 5.497-12.786 5.497-5.201 0-9.534-1.796-13-5.388-3.468-3.592-5.201-8.117-5.201-13.579 0-1.579.178-3.09.542-4.527.359-1.435.9-3.52 1.622-6.251.723-2.442 1.194-4.273 1.412-5.495.213-1.22.323-2.55.323-3.989 0-3.734-1.222-6.789-3.659-9.159-2.44-2.372-5.516-3.557-9.219-3.557-3.283 0-6.313 1.05-9.088 3.137-2.781 2.087-5.205 4.934-7.27 8.533-2.07 3.605-3.708 7.887-4.919 12.858-1.211 4.972-1.817 10.266-1.817 15.881 0 13.113 3.323 23.521 9.97 31.228 6.641 7.709 15.603 11.56 26.87 11.56 6.357 0 12.135-1.185 17.336-3.555 5.198-2.372 10.254-6.069 15.169-11.1l2.598 1.292c-12.28 27.305-30.411 40.952-54.389 40.952-8.092 0-15.524-1.366-22.297-4.093Z" clip-rule="evenodd"/></g><defs><clipPath id="a"><path fill="#fff" d="M27 27h196v196H27z"/></clipPath></defs></svg>