<svg width="397" height="397" viewBox="0 0 397 397" fill="none" xmlns="http://www.w3.org/2000/svg">
<path d="M291.203 53.3509C291.097 53.3501 290.991 53.3497 290.885 53.3497H106.339C84.4989 53.3497 66.7937 71.0548 66.7937 92.8951V211.531C66.7937 284.333 125.811 343.35 198.612 343.35C271.413 343.35 330.43 284.333 330.43 211.531V162.245C330.43 156.493 323.577 153.501 319.358 157.412L223.603 246.183C209.312 259.431 187.105 259.011 173.325 245.232L129.573 201.479C120.564 192.471 120.564 177.865 129.573 168.856C138.582 159.847 153.188 159.847 162.196 168.856L196.974 203.634C198.227 204.886 200.245 204.925 201.545 203.72L308.434 104.627C327.48 86.9707 316.153 55.6431 291.203 53.3509Z" fill="#FF4F00"/>
</svg>
