<?xml version="1.0" encoding="UTF-8"?>
<svg xmlns="http://www.w3.org/2000/svg" xmlns:xlink="http://www.w3.org/1999/xlink" width="250px" height="250px" viewBox="0 0 250 250" version="1.1">
<g id="surface1">
<path style=" stroke:none;fill-rule:nonzero;fill:rgb(99.607843%,96.078432%,94.509804%);fill-opacity:1;" d="M 0 0 C 82.5 0 165 0 250 0 C 250 82.5 250 165 250 250 C 167.5 250 85 250 0 250 C 0 167.5 0 85 0 0 Z M 0 0 "/>
<path style=" stroke:none;fill-rule:nonzero;fill:rgb(100%,31.764707%,1.176471%);fill-opacity:1;" d="M 38.332031 97.207031 C 39.210938 97.207031 40.085938 97.207031 40.988281 97.207031 C 42.839844 97.214844 44.6875 97.230469 46.539062 97.253906 C 49.371094 97.289062 52.203125 97.292969 55.035156 97.292969 C 56.832031 97.304688 58.632812 97.316406 60.429688 97.328125 C 61.277344 97.332031 62.125 97.332031 63 97.335938 C 64.183594 97.351562 64.183594 97.351562 65.390625 97.371094 C 66.429688 97.382812 66.429688 97.382812 67.488281 97.394531 C 69.335938 97.65625 69.335938 97.65625 72.265625 99.609375 C 72.949219 102.648438 72.949219 102.648438 72.265625 106.445312 C 69.945312 109.5 67.15625 111.929688 64.269531 114.441406 C 63.519531 115.121094 62.769531 115.804688 61.996094 116.507812 C 58.355469 119.789062 54.65625 122.972656 50.78125 125.976562 C 47.925781 124.8125 46.617188 123.738281 44.496094 121.398438 C 43.667969 120.652344 42.84375 119.910156 41.992188 119.140625 C 39.296875 119.1875 39.296875 119.1875 37.109375 120.117188 C 36.648438 123.570312 36.929688 124.757812 39.039062 127.613281 C 39.894531 128.460938 40.746094 129.3125 41.625 130.1875 C 42.464844 131.050781 43.304688 131.914062 44.167969 132.800781 C 46.738281 134.980469 46.738281 134.980469 49.902344 135.230469 C 53.0625 134.710938 54.136719 134.101562 56.398438 131.898438 C 57.046875 131.28125 57.699219 130.664062 58.371094 130.027344 C 59.449219 128.988281 59.449219 128.988281 60.546875 127.929688 C 62.292969 126.359375 64.042969 124.792969 65.796875 123.230469 C 67.996094 121.25 70.171875 119.28125 72.265625 117.1875 C 73.234375 117.1875 74.199219 117.1875 75.195312 117.1875 C 75.902344 127.515625 75.765625 135.8125 69.335938 144.53125 C 63.675781 150.28125 57.859375 152.402344 49.867188 152.648438 C 41.949219 152.472656 37.140625 149.734375 31.148438 144.828125 C 24.890625 137.21875 24.773438 129.015625 24.882812 119.570312 C 24.902344 117.359375 24.882812 115.144531 24.855469 112.933594 C 24.859375 111.515625 24.863281 110.101562 24.871094 108.683594 C 24.875 107.410156 24.878906 106.136719 24.886719 104.824219 C 25.390625 101.5625 25.390625 101.5625 26.8125 99.191406 C 30.570312 96.867188 33.996094 97.132812 38.332031 97.207031 Z M 38.332031 97.207031 "/>
<path style=" stroke:none;fill-rule:nonzero;fill:rgb(7.450981%,17.647059%,27.843139%);fill-opacity:1;" d="M 125.976562 113.28125 C 127.910156 113.28125 129.84375 113.28125 131.835938 113.28125 C 132.15625 113.925781 132.480469 114.570312 132.8125 115.234375 C 133.78125 114.589844 134.746094 113.945312 135.742188 113.28125 C 138.785156 113.0625 141.601562 113.421875 144.53125 114.257812 C 147.925781 117.566406 149.320312 119.992188 149.71875 124.695312 C 149.667969 129.34375 148.152344 131.964844 145.507812 135.742188 C 141.898438 138.148438 140.007812 138.074219 135.742188 137.695312 C 134.773438 136.726562 133.808594 135.761719 132.8125 134.765625 C 132.492188 138.632812 132.167969 142.5 131.835938 146.484375 C 129.902344 146.484375 127.96875 146.484375 125.976562 146.484375 C 125.976562 135.527344 125.976562 124.570312 125.976562 113.28125 Z M 125.976562 113.28125 "/>
<path style=" stroke:none;fill-rule:nonzero;fill:rgb(8.235294%,18.039216%,28.235295%);fill-opacity:1;" d="M 94.726562 103.515625 C 96.984375 103.515625 99.238281 103.515625 101.5625 103.515625 C 101.882812 112.21875 102.207031 120.917969 102.539062 129.882812 C 110.441406 131.382812 110.441406 131.382812 114.257812 129.882812 C 114.578125 121.179688 114.902344 112.480469 115.234375 103.515625 C 117.492188 103.515625 119.746094 103.515625 122.070312 103.515625 C 122.15625 107.460938 122.207031 111.410156 122.253906 115.355469 C 122.277344 116.472656 122.300781 117.585938 122.328125 118.734375 C 122.417969 129.128906 122.417969 129.128906 119.140625 133.789062 C 115.703125 136.976562 112.984375 137.976562 108.398438 138.183594 C 103.8125 137.976562 101.09375 136.976562 97.65625 133.789062 C 93.664062 128.113281 94.398438 122 94.542969 115.355469 C 94.558594 114.21875 94.570312 113.082031 94.582031 111.90625 C 94.617188 109.109375 94.667969 106.3125 94.726562 103.515625 Z M 94.726562 103.515625 "/>
<path style=" stroke:none;fill-rule:nonzero;fill:rgb(8.627451%,18.431373%,28.235295%);fill-opacity:1;" d="M 202.148438 103.515625 C 204.40625 103.515625 206.660156 103.515625 208.984375 103.515625 C 209.304688 109.316406 209.628906 115.117188 209.960938 121.09375 C 210.929688 119.804688 211.894531 118.515625 212.890625 117.1875 C 216.113281 113.441406 216.113281 113.441406 218.992188 112.761719 C 221.128906 112.792969 221.128906 112.792969 224.609375 113.28125 C 224.210938 113.800781 223.808594 114.320312 223.394531 114.851562 C 222.871094 115.542969 222.34375 116.234375 221.800781 116.945312 C 221.019531 117.964844 221.019531 117.964844 220.222656 119.003906 C 218.855469 120.945312 217.792969 122.851562 216.796875 125 C 217.359375 125.765625 217.925781 126.527344 218.507812 127.316406 C 219.59375 128.796875 219.59375 128.796875 220.703125 130.308594 C 221.429688 131.296875 222.152344 132.28125 222.898438 133.296875 C 224.609375 135.742188 224.609375 135.742188 224.609375 136.71875 C 219.617188 137.40625 219.617188 137.40625 216.796875 136.71875 C 214.855469 134.832031 213.492188 132.894531 212.039062 130.617188 C 211.496094 129.769531 211.496094 129.769531 210.9375 128.90625 C 210.617188 128.90625 210.292969 128.90625 209.960938 128.90625 C 209.640625 131.484375 209.316406 134.0625 208.984375 136.71875 C 206.726562 136.71875 204.472656 136.71875 202.148438 136.71875 C 202.148438 125.761719 202.148438 114.804688 202.148438 103.515625 Z M 202.148438 103.515625 "/>
<path style=" stroke:none;fill-rule:nonzero;fill:rgb(8.627451%,18.431373%,28.627452%);fill-opacity:1;" d="M 195.191406 114.5625 C 197.265625 116.210938 197.265625 116.210938 199.21875 119.140625 C 199.21875 120.109375 199.21875 121.074219 199.21875 122.070312 C 196.410156 122.253906 196.410156 122.253906 193.359375 122.070312 C 192.714844 121.101562 192.070312 120.136719 191.40625 119.140625 C 188.964844 118.734375 188.964844 118.734375 186.523438 119.140625 C 184.410156 120.855469 184.410156 120.855469 184.34375 122.925781 C 184.359375 123.609375 184.371094 124.292969 184.386719 125 C 184.394531 125.683594 184.398438 126.371094 184.40625 127.074219 C 184.464844 128.996094 184.464844 128.996094 185.546875 130.859375 C 188.394531 131.105469 188.394531 131.105469 191.40625 130.859375 C 192.050781 129.890625 192.695312 128.925781 193.359375 127.929688 C 196.410156 127.746094 196.410156 127.746094 199.21875 127.929688 C 198.75 132.144531 197.554688 133.984375 194.335938 136.71875 C 191.179688 138.296875 187.984375 138.265625 184.570312 137.695312 C 181.558594 136.050781 179.441406 133.777344 177.367188 131.042969 C 175.921875 125.984375 176.089844 122.378906 178.46875 117.796875 C 183 112.507812 188.867188 111.675781 195.191406 114.5625 Z M 195.191406 114.5625 "/>
<path style=" stroke:none;fill-rule:nonzero;fill:rgb(3.921569%,14.509805%,25.098041%);fill-opacity:1;" d="M 154.296875 107.421875 C 156.230469 107.421875 158.164062 107.421875 160.15625 107.421875 C 160.15625 109.679688 160.15625 111.933594 160.15625 114.257812 C 161.765625 114.257812 163.378906 114.257812 165.039062 114.257812 C 165.039062 115.546875 165.039062 116.835938 165.039062 118.164062 C 163.429688 118.164062 161.816406 118.164062 160.15625 118.164062 C 160.476562 122.351562 160.800781 126.542969 161.132812 130.859375 C 162.421875 131.179688 163.710938 131.503906 165.039062 131.835938 C 165.039062 133.445312 165.039062 135.058594 165.039062 136.71875 C 157.84375 137.074219 157.84375 137.074219 155.515625 135.742188 C 153.570312 132.628906 153.992188 129.339844 154.113281 125.792969 C 154.132812 124.695312 154.132812 124.695312 154.152344 123.574219 C 154.1875 121.769531 154.242188 119.96875 154.296875 118.164062 C 153.007812 118.164062 151.71875 118.164062 150.390625 118.164062 C 150.390625 116.875 150.390625 115.585938 150.390625 114.257812 C 151.679688 114.257812 152.96875 114.257812 154.296875 114.257812 C 154.296875 112 154.296875 109.746094 154.296875 107.421875 Z M 154.296875 107.421875 "/>
<path style=" stroke:none;fill-rule:nonzero;fill:rgb(4.705882%,15.294118%,25.490198%);fill-opacity:1;" d="M 167.96875 113.28125 C 169.902344 113.28125 171.835938 113.28125 173.828125 113.28125 C 173.828125 121.015625 173.828125 128.75 173.828125 136.71875 C 171.894531 136.71875 169.960938 136.71875 167.96875 136.71875 C 167.96875 128.984375 167.96875 121.25 167.96875 113.28125 Z M 167.96875 113.28125 "/>
<path style=" stroke:none;fill-rule:nonzero;fill:rgb(87.450981%,85.490197%,85.490197%);fill-opacity:1;" d="M 166.992188 113.28125 C 167.3125 113.28125 167.636719 113.28125 167.96875 113.28125 C 167.96875 121.015625 167.96875 128.75 167.96875 136.71875 C 167 136.71875 166.035156 136.71875 165.039062 136.71875 C 165.039062 135.109375 165.039062 133.496094 165.039062 131.835938 C 163.429688 131.515625 161.816406 131.191406 160.15625 130.859375 C 160.15625 126.671875 160.15625 122.480469 160.15625 118.164062 C 161.765625 118.164062 163.378906 118.164062 165.039062 118.164062 C 165.179688 117.539062 165.320312 116.914062 165.464844 116.273438 C 166.015625 114.257812 166.015625 114.257812 166.992188 113.28125 Z M 166.992188 113.28125 "/>
<path style=" stroke:none;fill-rule:nonzero;fill:rgb(95.294118%,92.156863%,91.37255%);fill-opacity:1;" d="M 138.304688 118.285156 C 140.625 119.140625 140.625 119.140625 142.578125 121.09375 C 142.886719 125.234375 142.898438 128.285156 140.625 131.835938 C 137.878906 132.078125 137.878906 132.078125 134.765625 131.835938 C 132.265625 129.667969 131.886719 128.269531 131.410156 125 C 131.835938 122.070312 131.835938 122.070312 133.484375 119.691406 C 135.742188 118.164062 135.742188 118.164062 138.304688 118.285156 Z M 138.304688 118.285156 "/>
<path style=" stroke:none;fill-rule:nonzero;fill:rgb(14.509805%,23.529412%,32.941177%);fill-opacity:1;" d="M 168.945312 103.515625 C 170.582031 103.796875 172.210938 104.117188 173.828125 104.492188 C 174.148438 106.101562 174.472656 107.714844 174.804688 109.375 C 171.996094 109.984375 171.996094 109.984375 168.945312 110.351562 C 168.300781 109.707031 167.65625 109.0625 166.992188 108.398438 C 167.515625 104.945312 167.515625 104.945312 168.945312 103.515625 Z M 168.945312 103.515625 "/>
</g>
</svg>
