<svg xmlns="http://www.w3.org/2000/svg" width="250" height="250" fill="none"><path fill="#12AE3A" fill-rule="evenodd" d="M104.781 55.445a45.207 45.207 0 0 1 20.176-4.748 45.215 45.215 0 0 1 20.181 4.748l75.431 37.584v-21.1l-75.687-37.712a45.233 45.233 0 0 0-20.177-4.748 45.27 45.27 0 0 0-20.182 4.748L28.84 71.93v21.226l.253.129v-.13l75.688-37.709Z" clip-rule="evenodd"/><path fill="#12AE3A" fill-rule="evenodd" d="M124.959 93.156a45.274 45.274 0 0 1 20.178 4.746l32.952 16.418 21.306-10.612-54.258-27.036a45.272 45.272 0 0 0-40.354 0l-54.514 27.162 21.306 10.613 33.208-16.545a45.262 45.262 0 0 1 20.176-4.746Z" clip-rule="evenodd"/><path fill="#12AE3A" fill-rule="evenodd" d="M124.958 114.386a45.293 45.293 0 0 0-20.18 4.746l-11.902 5.932c-.001 0-.001 0 0 0l11.647 5.805a45.27 45.27 0 0 0 40.357 0l11.906-5.932-11.651-5.807a45.299 45.299 0 0 0-20.177-4.744Z" clip-rule="evenodd"/><path fill="#12AE3A" fill-rule="evenodd" d="M145.138 152.097a45.243 45.243 0 0 1-40.357 0l-33.08-16.484-21.303 10.613 54.383 27.1a45.245 45.245 0 0 0 20.179 4.745 45.253 45.253 0 0 0 20.178-4.745l54.382-27.1-21.302-10.613-33.08 16.484Zm-73.566-37.649L28.84 93.156V71.925l42.732 21.298v21.225Z" clip-rule="evenodd"/><path fill="#12AE3A" fill-rule="evenodd" d="m220.763 178.104-42.732-21.292v-21.231l42.732 21.298v21.225Z" clip-rule="evenodd"/><path fill="#12AE3A" fill-rule="evenodd" d="M145.139 194.555a45.229 45.229 0 0 1-20.178 4.747 45.22 45.22 0 0 1-20.179-4.747l-75.688-37.709v21.226l75.688 37.711a45.255 45.255 0 0 0 40.357 0l75.686-37.711v-21.226l-75.686 37.709Z" clip-rule="evenodd"/></svg>