<svg xmlns="http://www.w3.org/2000/svg" width="250" height="250" fill="none"><g clip-path="url(#a)"><path fill="#0BA4DB" d="M201.052 30H38.974C33.488 30 29 34.524 29 40.053v18.095c0 5.53 4.488 10.053 9.974 10.053h161.579c5.486 0 9.974-4.524 9.974-10.053V40.053c.499-5.53-3.989-10.053-9.475-10.053Zm0 101.032H38.974c-5.486 0-9.974 4.523-9.974 10.053v18.095c0 5.529 4.488 10.053 9.974 10.053h161.579c5.486 0 9.974-4.524 9.974-10.053v-18.095c.499-5.53-3.989-10.053-9.475-10.053Zm-70.816 50.767H38.974c-5.486 0-9.974 4.524-9.974 10.053v18.095C29 215.476 33.488 220 38.974 220h91.262c5.486 0 9.974-4.524 9.974-10.053v-18.095c0-5.529-4.488-10.053-9.974-10.053Zm80.79-101.032H38.974C33.488 80.767 29 85.291 29 90.82v18.095c0 5.529 4.488 10.053 9.974 10.053h172.052c5.486 0 9.974-4.524 9.974-10.053V90.82c0-5.53-4.488-10.053-9.974-10.053Z"/></g><defs><clipPath id="a"><path fill="#fff" d="M29 30h192v190H29z"/></clipPath></defs></svg>