<svg xmlns="http://www.w3.org/2000/svg" width="250" height="250" fill="none"><path fill="#5C7642" d="M127.701 103.203a21.958 21.958 0 0 0-13.954 1.792 22.15 22.15 0 0 0-7.704 6.221 22.358 22.358 0 0 0-4.252 8.981 22.476 22.476 0 0 0 .047 9.951l-22.933 39.756 39.434-23.121a21.95 21.95 0 0 0 10.928-.218 22.07 22.07 0 0 0 9.489-5.469 22.314 22.314 0 0 0 5.733-9.382 22.465 22.465 0 0 0 .575-11.004l22.782-40.475-40.145 22.968Zm2.035 28.28a8.976 8.976 0 0 1-4.606 2.482 8.922 8.922 0 0 1-5.197-.517 9 9 0 0 1-4.037-3.34 9.117 9.117 0 0 1-1.516-5.039c0-1.793.527-3.547 1.516-5.038a9.01 9.01 0 0 1 4.037-3.341 8.93 8.93 0 0 1 5.197-.516 8.976 8.976 0 0 1 4.606 2.482 9.082 9.082 0 0 1 2.635 6.413 9.086 9.086 0 0 1-2.635 6.414Z"/><path fill="#4B4C4D" d="M110.399 38.09V23.529c-44.997 5.882-78.067 42.009-83.35 88.461h15.224c4.81-38.175 30.51-68.236 68.126-73.898Zm.004 188.53v-14.577c-37.623-5.66-63.32-35.719-68.13-73.894h-15.23c5.255 46.474 38.164 82.613 83.36 88.471Zm25.947-14.578v14.576c45.195-5.859 78.103-41.997 83.356-88.469h-15.229c-4.809 38.174-30.508 68.232-68.127 73.893Zm-.004-188.514v14.563c37.623 5.662 63.32 35.723 68.13 73.898h15.223c-5.281-46.453-38.351-82.58-83.353-88.46Z"/></svg>