<svg
   version="1.1"
   id="Laag_1"
   x="0px"
   y="0px"
   viewBox="0 0 250 250.00001"
   xml:space="preserve"
   width="250"
   height="250"
   xmlns:xlink="http://www.w3.org/1999/xlink"
   xmlns="http://www.w3.org/2000/svg"
   xmlns:svg="http://www.w3.org/2000/svg"><defs
   id="defs10" />
<style
   type="text/css"
   id="style1">
	.st0{fill:#2C5353;}
	.st1{fill:#00F8A2;}
</style>

<g
   id="g9"
   transform="matrix(1.1462466,0,0,1.1462466,-82.699884,12.954395)">
	<defs
   id="defs2">
		<path
   id="SVGID_1_"
   d="m 163.1,173.8 c 0,10 8.1,18.1 18.1,18.1 10,0 18.1,-8.1 18.1,-18.1 0,-10 -8.1,-18.1 -18.1,-18.1 -10,0 -18.1,8.1 -18.1,18.1 M 151.9,51 c -3.1,3.1 -4.2,7.3 -3.3,11.3 v 0 c 2.6,12 -1.2,19.2 -14.6,22.1 v 0 c -2.5,0.5 -4.9,1.8 -6.8,3.7 -5.3,5.3 -5.3,14 0,19.4 1.9,1.9 4.3,3.2 6.8,3.7 v 0 c 13.4,2.9 17.2,10 14.6,22.1 v 0 c -0.8,3.9 0.3,8.2 3.3,11.3 4.8,4.8 12.6,4.8 17.4,0 4.8,-4.8 4.8,-12.6 0,-17.4 -1.7,-1.7 -3.7,-2.7 -5.8,-3.2 v 0 c -12,-2.9 -16.7,-9.5 -13.5,-22.8 v 0 c 0.5,-2.2 0.5,-4.4 0,-6.6 v 0 c -3.3,-13.3 1.5,-19.9 13.5,-22.8 v 0 c 2.1,-0.5 4.1,-1.6 5.8,-3.2 4.8,-4.8 4.8,-12.6 0,-17.4 -2.4,-2.4 -5.6,-3.6 -8.7,-3.6 -3.1,-0.2 -6.3,1 -8.7,3.4 m 41.2,0 c -4.8,4.8 -4.8,12.6 0,17.4 1.7,1.7 3.7,2.7 5.8,3.2 v 0 c 12,2.9 16.7,9.5 13.5,22.8 v 0 c -0.5,2.2 -0.5,4.4 0,6.6 v 0 c 3.3,13.3 -1.5,19.9 -13.5,22.8 v 0 c -2.1,0.5 -4.1,1.6 -5.8,3.2 -4.8,4.8 -4.8,12.6 0,17.4 4.8,4.8 12.6,4.8 17.4,0 3.1,-3.1 4.2,-7.3 3.3,-11.3 v 0 c -2.6,-12 1.2,-19.2 14.6,-22.1 v 0 c 2.5,-0.5 4.9,-1.8 6.8,-3.7 5.3,-5.3 5.3,-14 0,-19.4 -1.9,-1.9 -4.3,-3.2 -6.8,-3.7 v 0 C 215,81.3 211.2,74.2 213.8,62.1 v 0 c 0.8,-3.9 -0.3,-8.2 -3.3,-11.3 -2.4,-2.4 -5.6,-3.6 -8.7,-3.6 -3.1,0 -6.3,1.4 -8.7,3.8 M 108.9,34.9 c -4.7,4.7 -6.2,11.3 -4.7,17.3 v 0 c 4.1,15.5 -0.6,23.8 -16.2,27.9 -5.8,1.5 -10.5,5.8 -12.6,11.4 -0.7,1.9 -1.1,4 -1.1,6.2 0,2.2 0.4,4.3 1.1,6.2 2,5.6 6.8,9.9 12.6,11.4 15.6,4.2 20.3,12.4 16.2,27.9 v 0 c -1.6,6 0,12.6 4.7,17.3 7,7 18.4,7 25.4,0 7,-7 7,-18.4 0,-25.4 -2.3,-2.3 -5.1,-3.9 -8.1,-4.7 v 0 c -15.6,-4.1 -20.4,-12.3 -16.2,-28 0.4,-1.5 0.6,-3.1 0.6,-4.7 0,-1.6 -0.2,-3.2 -0.6,-4.7 -4.2,-15.7 0.7,-23.9 16.2,-28 v 0 c 3,-0.8 5.8,-2.3 8.1,-4.7 7,-7 7,-18.4 0,-25.4 -3.5,-3.5 -8.1,-5.3 -12.7,-5.3 -4.6,0.1 -9.2,1.8 -12.7,5.3 m 119.2,0 c -7,7 -7,18.4 0,25.4 2.3,2.3 5.1,3.9 8.1,4.7 v 0 c 15.6,4.1 20.4,12.3 16.2,28 -0.4,1.5 -0.6,3.1 -0.6,4.7 0,1.6 0.2,3.2 0.6,4.7 4.2,15.7 -0.7,23.9 -16.2,28 v 0 c -3,0.8 -5.8,2.3 -8.1,4.7 -7,7 -7,18.4 0,25.4 7,7 18.4,7 25.4,0 4.7,-4.7 6.2,-11.3 4.7,-17.3 v 0 c -4.1,-15.5 0.6,-23.8 16.2,-27.9 4.1,-1 7.6,-3.5 10.1,-6.7 0.2,-0.2 0.3,-0.5 0.5,-0.7 0.3,-0.5 0.6,-1 0.9,-1.5 0.3,-0.5 0.5,-1 0.8,-1.6 0.2,-0.5 0.4,-1.1 0.6,-1.7 0.5,-1.7 0.8,-3.5 0.8,-5.4 0,-1.9 -0.3,-3.7 -0.8,-5.4 -0.2,-0.6 -0.4,-1.1 -0.6,-1.7 -0.2,-0.5 -0.5,-1.1 -0.8,-1.6 -0.3,-0.5 -0.6,-1 -0.9,-1.5 -0.2,-0.2 -0.3,-0.5 -0.5,-0.7 -2.5,-3.3 -6,-5.7 -10.1,-6.7 -15.6,-4.2 -20.3,-12.4 -16.2,-27.9 v 0 c 1.6,-6 0,-12.6 -4.7,-17.3 -3.5,-3.5 -8.1,-5.3 -12.7,-5.3 -4.6,0.1 -9.2,1.8 -12.7,5.3 M 181.2,3.6 c -10,0 -18.1,8.1 -18.1,18.1 0,10 8.1,18.1 18.1,18.1 10,0 18.1,-8.1 18.1,-18.1 0,-10 -8.1,-18.1 -18.1,-18.1 z" />
	</defs>
	
		<linearGradient
   id="SVGID_00000017489277656879051470000016236094550436720776_"
   gradientUnits="userSpaceOnUse"
   x1="74.305"
   y1="97.725998"
   x2="288.147"
   y2="97.725998">
		<stop
   offset="0"
   style="stop-color:#2C5353"
   id="stop2" />
		<stop
   offset="1.809090e-02"
   style="stop-color:#2C5353"
   id="stop3" />
		<stop
   offset="0.3683"
   style="stop-color:#01A0C6"
   id="stop4" />
		<stop
   offset="0.5009"
   style="stop-color:#01ADC1"
   id="stop5" />
		<stop
   offset="0.7459"
   style="stop-color:#00D0B3"
   id="stop6" />
		<stop
   offset="0.9909"
   style="stop-color:#00F8A2"
   id="stop7" />
		<stop
   offset="1"
   style="stop-color:#00F8A2"
   id="stop8" />
	</linearGradient>
	<use
   xlink:href="#SVGID_1_"
   style="overflow:visible;fill:url(#SVGID_00000017489277656879051470000016236094550436720776_)"
   id="use8" />
	<clipPath
   id="SVGID_00000167377284742869728150000006225586345927055274_">
		<use
   xlink:href="#SVGID_1_"
   style="overflow:visible"
   id="use9" />
	</clipPath>
</g>
<g
   id="g10"
   transform="matrix(1.1462466,0,0,1.1462466,-82.814509,13.011707)">
	<path
   class="st1"
   d="m 171.1,82.7 c -0.7,0.5 -1.4,1 -2.1,1.6 -3.7,3.3 -5.9,8.1 -5.9,13.4 0,5.3 2.3,10.1 5.9,13.4 0.6,0.6 1.3,1.1 2.1,1.6 2.4,1.6 5.2,2.7 8.3,3 0.6,0.1 1.2,0.1 1.9,0.1 7.8,0 14.5,-5 17.1,-11.9 0.7,-1.9 1.1,-4 1.1,-6.2 0,-2.2 -0.4,-4.3 -1.1,-6.2 -2.5,-7 -9.2,-11.9 -17.1,-11.9 -0.6,0 -1.2,0 -1.9,0.1 -3.1,0.3 -5.9,1.3 -8.3,3"
   id="path9" />
</g>
</svg>
