<svg width="250" height="250" viewBox="0 0 36 36" fill="none" xmlns="http://www.w3.org/2000/svg" xmlns:xlink="http://www.w3.org/1999/xlink">
 <path fill-rule="evenodd" clip-rule="evenodd" d="M18.0609 36C8.08616 36 0 27.9411 0 18C0 8.05887 8.08616 0 18.0609 0C28.0357 0 36.1219 8.05887 36.1219 18C36.1219 27.9411 28.0357 36 18.0609 36ZM17.8146 24.4023V20.8227C17.811 20.7674 17.8314 20.7133 17.8707 20.6741C17.91 20.6349 17.9644 20.6145 18.0199 20.6182H22.2273C25.1935 20.4988 27.5348 18.0647 27.5293 15.1061C27.5238 12.1475 25.1734 9.72203 22.2067 9.61364H11.9038C11.6771 9.61364 11.4933 9.79679 11.4933 10.0227V24.4636C11.4933 26.2033 12.9084 27.6136 14.654 27.6136C16.3996 27.6136 17.8146 26.2033 17.8146 24.4636C17.842 24.4227 17.842 24.4023 17.8146 24.4023ZM18.0199 15.9136H22.0015C22.4549 15.9136 22.8225 15.5473 22.8225 15.0955C22.8225 14.6436 22.4549 14.2773 22.0015 14.2773H16.6037C16.377 14.2773 16.1933 14.4604 16.1933 14.6864V24.4432C16.1933 25.2904 15.5041 25.9773 14.654 25.9773C13.8039 25.9773 13.1147 25.2904 13.1147 24.4432V11.4341C13.111 11.3788 13.1315 11.3246 13.1708 11.2854C13.2101 11.2463 13.2645 11.2259 13.3199 11.2295H22.0015C23.3947 11.204 24.6957 11.9211 25.4145 13.1107C26.1333 14.3004 26.1607 15.7819 25.4863 16.9971C24.812 18.2123 23.5383 18.9767 22.1452 19.0023H18.0199C17.9644 19.0059 17.91 18.9856 17.8707 18.9464C17.8314 18.9072 17.811 18.853 17.8146 18.7977V16.1386C17.8142 16.0219 17.9033 15.9242 18.0199 15.9136Z" fill="#0F6FDE">
 </path>
</svg>
