<svg width="1600" height="1600" viewBox="0 0 1600 1600" fill="none" xmlns="http://www.w3.org/2000/svg"><path d="M1250.12 576.498c-.11 89.997-36 176.267-99.79 239.83v-.007L924.04 1041.81c-7.841 7.82-20.58 7.84-27.927-.44-55.015-61.995-85.588-142.175-85.49-225.478.105-89.997 36-176.267 99.787-239.83l.007.007 206.743-206.014c18.63-18.569 49.12-18.702 64.92 2.324 43.99 58.525 68.13 130.089 68.04 204.119z" fill="url(#paint0_linear_249_2462)"/><path d="M440.553 817.702c-63.787-63.563-99.681-149.833-99.786-239.83-.087-74.03 24.048-145.594 68.035-204.119 15.803-21.026 46.293-20.893 64.928-2.324l206.74 206.016.007-.007c63.787 63.564 99.681 149.833 99.787 239.831.097 83.302-30.475 163.483-85.49 225.471-7.348 8.28-20.087 8.26-27.927.45L440.56 817.696l-.007.006z" fill="url(#paint1_linear_249_2462)"/><path d="M1141.82 1221.19c-16.63 20.39-47.03 20.21-65.63 1.59l-127.696-127.84c-7.836-7.85-7.821-20.56.033-28.39l212.093-211.345c7.84-7.813 20.63-7.859 27.54.784 36.81 45.996 51.29 109.566 40.35 179.551-10.02 64.06-40.66 129.19-86.69 185.65z" fill="url(#paint2_linear_249_2462)"/><path d="M514.698 1224.16c-18.594 18.61-49.002 18.79-65.626-1.6-46.036-56.46-76.672-121.58-86.688-185.64-10.942-69.992 3.532-133.562 40.342-179.558 6.917-8.642 19.704-8.597 27.545-.784l212.091 211.352c7.854 7.82 7.869 20.54.034 28.38l-127.698 127.85z" fill="url(#paint3_linear_249_2462)"/><defs><linearGradient id="paint0_linear_249_2462" x1="795.443" y1="356.357" x2="795.443" y2="1056.76" gradientUnits="userSpaceOnUse"><stop stop-color="#9F87FF"/><stop offset="1" stop-color="#8566FF"/></linearGradient><linearGradient id="paint1_linear_249_2462" x1="795.443" y1="356.357" x2="795.443" y2="1056.76" gradientUnits="userSpaceOnUse"><stop stop-color="#9F87FF"/><stop offset="1" stop-color="#8566FF"/></linearGradient><linearGradient id="paint2_linear_249_2462" x1="795.443" y1="841.123" x2="795.443" y2="1237.29" gradientUnits="userSpaceOnUse"><stop stop-color="#DE99F6"/><stop offset="1" stop-color="#D669FC"/></linearGradient><linearGradient id="paint3_linear_249_2462" x1="795.443" y1="841.123" x2="795.443" y2="1237.29" gradientUnits="userSpaceOnUse"><stop stop-color="#DE99F6"/><stop offset="1" stop-color="#D669FC"/></linearGradient></defs></svg>