<svg width="250" height="250" viewBox="0 0 250 250" fill="none" xmlns="http://www.w3.org/2000/svg">
<path d="M143.369 0H246.212C248.304 0 250 1.69589 250 3.78788V160.957C250 164.722 245.104 166.181 243.043 163.031L140.199 5.8619C138.551 3.34265 140.358 0 143.369 0Z" fill="#246DFF"/>
<path d="M106.631 0H3.78788C1.69589 0 0 1.69589 0 3.78788V160.957C0 164.722 4.89623 166.181 6.95749 163.031L109.801 5.8619C111.449 3.34265 109.642 0 106.631 0Z" fill="#20A34E"/>
<path d="M123.238 125.835L6.40808 243.544C4.03562 245.934 5.72873 250 9.09653 250H241C244.354 250 246.053 245.963 243.708 243.564L128.635 125.856C127.157 124.344 124.728 124.335 123.238 125.835Z" fill="#F86606"/>
</svg>
