<?xml version="1.0" encoding="UTF-8"?>
<svg xmlns="http://www.w3.org/2000/svg" xmlns:xlink="http://www.w3.org/1999/xlink" width="250px" height="250px" viewBox="0 0 250 250" version="1.1">
<g id="surface1">
<path style=" stroke:none;fill-rule:nonzero;fill:rgb(100%,10.196079%,1.176471%);fill-opacity:1;" d="M 0 14.265625 L 0 235.734375 C 0 243.613281 6.386719 250 14.265625 250 L 235.734375 250 C 243.613281 250 250 243.613281 250 235.734375 L 250 14.265625 C 250 6.386719 243.613281 0 235.734375 0 L 14.265625 0 C 6.386719 0 0 6.386719 0 14.265625 Z M 113.976562 68.164062 L 74.746094 68.164062 C 70.804688 68.164062 67.597656 71.367188 67.597656 75.308594 L 67.597656 113.050781 L 34.863281 113.050781 L 34.863281 75.308594 C 34.863281 53.320312 52.753906 35.429688 74.746094 35.429688 L 113.980469 35.429688 Z M 215.136719 174.691406 C 215.136719 196.679688 197.246094 214.570312 175.253906 214.570312 L 136.019531 214.570312 L 136.019531 181.835938 L 175.253906 181.835938 C 179.195312 181.835938 182.402344 178.632812 182.402344 174.691406 L 182.402344 136.949219 L 215.136719 136.949219 Z M 215.136719 174.691406 "/>
</g>
</svg>
