<?xml version="1.0" encoding="UTF-8"?>
<svg version="1.1" xmlns="http://www.w3.org/2000/svg" width="195" height="259">
<path d="M0 0 C64.35 0 128.7 0 195 0 C195 85.47 195 170.94 195 259 C130.65 259 66.3 259 0 259 C0 173.53 0 88.06 0 0 Z " fill="#FDFDFD" transform="translate(0,0)"/>
<path d="M0 0 C64.35 0 128.7 0 195 0 C195.04125 17.03625 195.0825 34.0725 195.125 51.625 C195.14320801 56.97928223 195.16141602 62.33356445 195.18017578 67.85009766 C195.18920898 74.4519043 195.18920898 74.4519043 195.19088745 77.55477905 C195.19393336 79.69500564 195.20091431 81.83522907 195.21115112 83.97543335 C195.34454838 113.36604235 190.93349573 137.56188075 172 161 C171.53335938 161.63164062 171.06671875 162.26328125 170.5859375 162.9140625 C157.2096404 180.22939187 133.7438625 190.66337921 112.76171875 194.5625 C91.05707316 197.08682015 64.66996381 194.93723991 46.75 181.0625 C42.49877639 176.85590866 39.85560751 171.88591396 39.5 165.875 C40.20003974 160.44969199 42.14901457 157.59390412 46.25 154.0625 C50.15654592 152.55315271 53.10369388 152.71415437 57 154 C60.01563876 155.63364872 62.91372416 157.41355661 65.83203125 159.21484375 C75.66197047 164.75403268 85.74484912 166.18015584 96.8125 166.1875 C98.25206055 166.20586914 98.25206055 166.20586914 99.72070312 166.22460938 C117.42372888 166.2608613 134.60676775 158.48160301 147.140625 146.10546875 C161.3297344 131.22779815 166.58123756 112.23529058 166.2734375 92.1171875 C165.66389724 75.74409119 157.42547087 59.53225097 146 48 C130.22786797 34.19392321 111.97548523 27.81665023 91.05566406 28.82519531 C72.70526332 30.38563319 55.77155429 39.72250707 43.8125 53.5625 C35.00008126 65.20359636 29.34380138 78.67524891 28.5 93.25 C28.10228351 100.10873338 27.57596199 104.42403801 22.5625 109.4375 C17.36599909 111.71666707 12.5886163 111.77597898 7 111 C2.78004988 108.72122694 1.35868002 106.50793971 0 102 C-0.28180855 98.68857507 -0.25254461 95.3906377 -0.22705078 92.0690918 C-0.22729185 91.05744618 -0.22753292 90.04580057 -0.2277813 89.00349903 C-0.2262909 85.73531552 -0.21107049 82.46736135 -0.1953125 79.19921875 C-0.19237122 77.1789155 -0.1903313 75.15861074 -0.18920898 73.13830566 C-0.17873148 65.6546805 -0.15080902 58.17108799 -0.125 50.6875 C-0.08375 33.960625 -0.0425 17.23375 0 0 Z " fill="#202221" transform="translate(0,0)"/>
<path d="M0 0 C9.65985684 6.63136118 15.99208479 14.78352058 19.015625 26.234375 C20.84367386 39.69634762 18.08546888 51.06214843 9.9296875 62.01171875 C3.99746143 68.90036494 -4.14181121 73.27083572 -12.984375 75.234375 C-26.75968155 76.19864646 -37.41046306 75.26008527 -48.359375 65.984375 C-58.00320898 56.6036954 -61.96247544 47.24265586 -62.484375 33.796875 C-62.22358738 22.62836154 -57.80416389 13.17634809 -49.984375 5.234375 C-35.61844336 -7.33581519 -16.58815515 -9.81393473 0 0 Z " fill="#3786F0" transform="translate(118.984375,62.765625)"/>
<path d="M0 0 C64.35 0 128.7 0 195 0 C195 30.03 195 60.06 195 91 C194.67 91 194.34 91 194 91 C193.90203125 89.98421875 193.8040625 88.9684375 193.703125 87.921875 C191.66085163 68.42268682 184.30601074 51.30072501 172 36 C171.48308594 35.319375 170.96617187 34.63875 170.43359375 33.9375 C157.04012671 17.28797706 134.09632673 4.94292534 113.06640625 2.28515625 C84.07409844 -0.08825984 57.77820298 4.79329226 35 24 C33.79730469 24.96679688 33.79730469 24.96679688 32.5703125 25.953125 C13.24992228 42.20392051 3.37215236 66.40452556 1 91 C0.67 91 0.34 91 0 91 C0 60.97 0 30.94 0 0 Z " fill="#FCFCFC" transform="translate(0,0)"/>
<path d="M0 0 C5.34740414 1.95385921 8.45618143 4.91236287 11 10 C11.10067565 11.51495817 11.13940813 13.03424095 11.14717102 14.55252075 C11.15432632 15.51133652 11.16148163 16.47015228 11.16885376 17.45802307 C11.17288712 19.0413871 11.17288712 19.0413871 11.17700195 20.65673828 C11.18357315 21.76584061 11.19014435 22.87494293 11.19691467 24.01765442 C11.21668497 27.70187441 11.22831984 31.38605353 11.23828125 35.0703125 C11.24235678 36.32723782 11.2464323 37.58416313 11.25063133 38.87917709 C11.26935523 44.84752002 11.28391557 50.81584992 11.2922433 56.78421509 C11.30200162 63.66382226 11.32828146 70.54310646 11.36874419 77.42259991 C11.40261857 83.38770265 11.41439476 89.3527269 11.41844749 95.31792831 C11.42331752 97.85122743 11.43494325 100.384523 11.45348549 102.91775894 C11.47785029 106.46773123 11.47691593 110.0168641 11.4699707 113.56689453 C11.48278076 114.61032516 11.49559082 115.6537558 11.50878906 116.72880554 C11.46466453 122.92911783 10.71434457 127.88584962 7 133 C2.9450275 136.01765396 -0.88533787 136.53874113 -5.8203125 136.34765625 C-9.35563699 135.78377833 -11.37369461 134.37618106 -14 132 C-17.71079405 126.45924998 -17.45037676 121.13751438 -17.45166016 114.70556641 C-17.46334229 113.57637283 -17.47502441 112.44717926 -17.48706055 111.2837677 C-17.52061574 107.55627932 -17.53137996 103.82918856 -17.5390625 100.1015625 C-17.55124437 97.50613261 -17.56373042 94.91070413 -17.57650757 92.3152771 C-17.59897634 86.87648612 -17.60861281 81.43785418 -17.61083984 75.99902344 C-17.61387411 69.72636627 -17.6543228 63.45469501 -17.71198809 57.18232405 C-17.76564134 51.13168504 -17.78042117 45.08158685 -17.78095627 39.03068161 C-17.78633752 36.46386137 -17.80318917 33.89703821 -17.83180618 31.33037186 C-17.86853179 27.73713113 -17.8608151 24.14654614 -17.84228516 20.55322266 C-17.87296585 18.96945076 -17.87296585 18.96945076 -17.90426636 17.35368347 C-17.80956637 10.6587841 -16.42384545 7.22768694 -11.69695091 2.44148827 C-8.13314463 -0.58581494 -4.48615631 -0.4603332 0 0 Z " fill="#1F2120" transform="translate(18,122)"/>
<path d="M0 0 C2 2 2 2 3.3125 4.9375 C5.2479749 8.45002852 6.42131041 9.30588644 10 11 C13.12353789 11.36012333 13.12353789 11.36012333 16.3125 11.1875 C17.38113281 11.16042969 18.44976563 11.13335937 19.55078125 11.10546875 C20.35902344 11.07066406 21.16726562 11.03585937 22 11 C21.67 11.66 21.34 12.32 21 13 C14.07 13 7.14 13 0 13 C0 8.71 0 4.42 0 0 Z " fill="#F5F5F5" transform="translate(0,246)"/>
</svg>
