<svg width="369" height="100" viewBox="0 0 369 100" fill="none" xmlns="http://www.w3.org/2000/svg">
<path fill-rule="evenodd" clip-rule="evenodd" d="M32.7479 12.1327C43.3713 0.113465 60.9635 -3.41237 75.4265 3.52532C94.6425 12.744 101.653 36.2274 91.1907 54.3421L67.6555 95.0475C66.3401 97.3221 64.1758 98.9817 61.6378 99.6619C59.0998 100.342 56.3957 99.9873 54.1191 98.6755L82.6129 49.3849C90.2034 36.2377 85.1263 19.1962 71.1946 12.4865C60.7415 7.45229 47.9629 9.96715 40.2407 18.6248C35.9811 23.3777 33.5896 29.514 33.5099 35.8958C33.4301 42.2776 35.6675 48.4718 39.807 53.3296C40.5509 54.2014 41.3514 55.0232 42.2034 55.7897L25.569 84.6166C24.9185 85.7435 24.0524 86.7313 23.0201 87.5235C21.9879 88.3157 20.8097 88.8969 19.5529 89.2338C18.296 89.5706 16.9852 89.6567 15.6951 89.487C14.405 89.3172 13.161 88.8951 12.034 88.2445L30.0925 56.9487C27.4986 53.2091 25.6358 49.0124 24.6024 44.5801L13.5364 63.7961C12.221 66.0706 10.0567 67.7302 7.51875 68.4104C4.98079 69.0906 2.27663 68.7359 0 67.4241L28.6167 17.8566C29.8078 15.8211 31.1912 13.9043 32.7479 12.1327ZM65.7771 27.9101C72.6689 31.8904 75.0491 40.742 71.0614 47.6308L43.62 95.0416C42.3046 97.3162 40.1403 98.9758 37.6023 99.656C35.0644 100.336 32.3602 99.9814 30.0836 98.6696L55.5637 54.53C53.5193 54.0997 51.5926 53.2308 49.9167 51.9833C48.2408 50.7359 46.8556 49.1395 45.8567 47.3045C44.8578 45.4695 44.2691 43.4396 44.1312 41.355C43.9933 39.2703 44.3094 37.1805 45.0578 35.2299C45.8062 33.2793 46.969 31.5144 48.4659 30.057C49.9629 28.5996 51.7583 27.4844 53.7282 26.7884C55.6981 26.0925 57.7956 25.8324 59.8759 26.026C61.9561 26.2197 63.9695 26.8625 65.7771 27.9101ZM55.7957 36.8202C55.324 37.1822 54.9283 37.6337 54.6312 38.1487H54.6297C54.1821 38.9243 53.9745 39.8152 54.0332 40.7088C54.0919 41.6023 54.4142 42.4585 54.9594 43.1689C55.5046 43.8792 56.2482 44.412 57.0962 44.6998C57.9443 44.9876 58.8586 45.0175 59.7235 44.7856C60.5885 44.5538 61.3653 44.0707 61.9557 43.3974C62.5462 42.7241 62.9237 41.8909 63.0406 41.003C63.1575 40.1152 63.0084 39.2126 62.6124 38.4095C62.2163 37.6063 61.591 36.9386 60.8155 36.4908C60.3006 36.1935 59.7322 36.0005 59.1427 35.9229C58.5532 35.8453 57.9542 35.8846 57.3799 36.0386C56.8056 36.1926 56.2673 36.4581 55.7957 36.8202Z" fill="#615EFF"/>
<path fill-rule="evenodd" clip-rule="evenodd" d="M32.7479 12.1327C43.3713 0.113465 60.9635 -3.41237 75.4265 3.52532C94.6425 12.744 101.653 36.2274 91.1907 54.3421L67.6555 95.0475C66.3401 97.3221 64.1758 98.9817 61.6378 99.6619C59.0998 100.342 56.3957 99.9873 54.1191 98.6755L82.6129 49.3849C90.2034 36.2377 85.1263 19.1962 71.1946 12.4865C60.7415 7.45229 47.9629 9.96715 40.2407 18.6248C35.9811 23.3777 33.5896 29.514 33.5099 35.8958C33.4301 42.2776 35.6675 48.4718 39.807 53.3296C40.5509 54.2014 41.3514 55.0232 42.2034 55.7897L25.569 84.6166C24.9185 85.7435 24.0524 86.7313 23.0201 87.5235C21.9879 88.3157 20.8097 88.8969 19.5529 89.2338C18.296 89.5706 16.9852 89.6567 15.6951 89.487C14.405 89.3172 13.161 88.8951 12.034 88.2445L30.0925 56.9487C27.4986 53.2091 25.6358 49.0124 24.6024 44.5801L13.5364 63.7961C12.221 66.0706 10.0567 67.7302 7.51875 68.4104C4.98079 69.0906 2.27663 68.7359 0 67.4241L28.6167 17.8566C29.8078 15.8211 31.1912 13.9043 32.7479 12.1327ZM65.7771 27.9101C72.6689 31.8904 75.0491 40.742 71.0614 47.6308L43.62 95.0416C42.3046 97.3162 40.1403 98.9758 37.6023 99.656C35.0644 100.336 32.3602 99.9814 30.0836 98.6696L55.5637 54.53C53.5193 54.0997 51.5926 53.2308 49.9167 51.9833C48.2408 50.7359 46.8556 49.1395 45.8567 47.3045C44.8578 45.4695 44.2691 43.4396 44.1312 41.355C43.9933 39.2703 44.3094 37.1805 45.0578 35.2299C45.8062 33.2793 46.969 31.5144 48.4659 30.057C49.9629 28.5996 51.7583 27.4844 53.7282 26.7884C55.6981 26.0925 57.7956 25.8324 59.8759 26.026C61.9561 26.2197 63.9695 26.8625 65.7771 27.9101ZM55.7957 36.8202C55.324 37.1822 54.9283 37.6337 54.6312 38.1487H54.6297C54.1821 38.9243 53.9745 39.8152 54.0332 40.7088C54.0919 41.6023 54.4142 42.4585 54.9594 43.1689C55.5046 43.8792 56.2482 44.412 57.0962 44.6998C57.9443 44.9876 58.8586 45.0175 59.7235 44.7856C60.5885 44.5538 61.3653 44.0707 61.9557 43.3974C62.5462 42.7241 62.9237 41.8909 63.0406 41.003C63.1575 40.1152 63.0084 39.2126 62.6124 38.4095C62.2163 37.6063 61.591 36.9386 60.8155 36.4908C60.3006 36.1935 59.7322 36.0005 59.1427 35.9229C58.5532 35.8453 57.9542 35.8846 57.3799 36.0386C56.8056 36.1926 56.2673 36.4581 55.7957 36.8202Z" fill="#615EFF"/>
<path fill-rule="evenodd" clip-rule="evenodd" d="M114 76L134.566 23.2656H146.625L167.191 76H155.695L151.266 64.1875H129.926L125.496 76H114ZM147.75 54.6953C146.344 50.5703 145.09 46.8789 143.988 43.6211C142.887 40.3633 141.762 37 140.613 33.5312C139.465 37 138.328 40.3633 137.203 43.6211C136.102 46.8789 134.848 50.5703 133.441 54.6953H147.75ZM170.672 28.8906C170.672 27.2031 171.188 25.8438 172.219 24.8125C173.25 23.7812 174.609 23.2656 176.297 23.2656C177.984 23.2656 179.344 23.7812 180.375 24.8125C181.406 25.8438 181.922 27.2031 181.922 28.8906C181.922 30.5781 181.406 31.9375 180.375 32.9688C179.344 34 177.984 34.5156 176.297 34.5156C174.609 34.5156 173.25 34 172.219 32.9688C171.188 31.9375 170.672 30.5781 170.672 28.8906ZM171.234 76V40.8438H181.359V76H171.234ZM189.938 40.8438V76H200.062V60.4961C200.062 56.793 200.895 53.9453 202.559 51.9531C204.223 49.9375 206.414 48.9297 209.133 48.9297C210.445 48.9297 211.781 49.1523 213.141 49.5977L214.547 40.8438C212.93 40.375 211.359 40.1406 209.836 40.1406C205.359 40.1406 201.844 42.0508 199.289 45.8711V40.8438H189.938ZM218.414 76V23.2656H228.539V44.3242C230.016 43.0117 231.703 41.9922 233.602 41.2656C235.5 40.5156 237.551 40.1406 239.754 40.1406C243.059 40.1406 246 40.9375 248.578 42.5312C251.156 44.1016 253.184 46.2695 254.66 49.0352C256.137 51.7773 256.875 54.9062 256.875 58.4219C256.875 61.9375 256.137 65.0781 254.66 67.8438C253.184 70.5859 251.156 72.7539 248.578 74.3477C246 75.918 243.059 76.7031 239.754 76.7031C237.48 76.7031 235.359 76.3164 233.391 75.543C231.422 74.7461 229.699 73.6328 228.223 72.2031L227.977 76H218.414ZM238.469 67.9141C241.047 67.9141 243.18 67.0117 244.867 65.207C246.555 63.4023 247.398 61.1406 247.398 58.4219C247.398 55.7031 246.555 53.4414 244.867 51.6367C243.18 49.832 241.047 48.9297 238.469 48.9297C235.891 48.9297 233.758 49.832 232.07 51.6367C230.383 53.4414 229.539 55.7031 229.539 58.4219C229.539 61.1406 230.383 63.4023 232.07 65.207C233.758 67.0117 235.891 67.9141 238.469 67.9141ZM273.793 58.0352L265.566 40.8438H254.984L271.367 74.2422L263.352 93.5781H274.004L295.871 40.8438H285.184L275.691 63.7656C275.457 62.6172 275.176 61.5625 274.848 60.6016C274.52 59.6406 274.168 58.7852 273.793 58.0352ZM297.242 40.8438H303.043V32.0547H313.168V40.8438H321.711V49.6328H313.168V62.5703C313.168 64.2344 313.695 65.5469 314.75 66.5078C315.828 67.4453 317.188 67.9141 318.828 67.9141C320.047 67.9141 321.301 67.6445 322.59 67.1055V75.4023C320.363 76.2695 318.172 76.7031 316.016 76.7031C311.844 76.7031 308.633 75.5898 306.383 73.3633C304.156 71.1133 303.043 67.9023 303.043 63.7305V49.6328H297.242V40.8438ZM340.906 66.1914C339.219 64.9727 338.059 63.3906 337.426 61.4453H364.848V58.3867C364.848 54.8477 364.051 51.707 362.457 48.9648C360.863 46.2227 358.684 44.0664 355.918 42.4961C353.176 40.9258 350.035 40.1406 346.496 40.1406C342.934 40.1406 339.746 40.9375 336.934 42.5312C334.145 44.1016 331.941 46.2578 330.324 49C328.707 51.7188 327.898 54.8242 327.898 58.3164C327.898 61.8555 328.742 65.0195 330.43 67.8086C332.117 70.5742 334.449 72.7539 337.426 74.3477C340.402 75.918 343.836 76.7031 347.727 76.7031C350.164 76.7031 352.707 76.3047 355.355 75.5078C358.027 74.7109 360.723 73.2461 363.441 71.1133L357.324 63.8008C356.012 65.043 354.547 66.0625 352.93 66.8594C351.336 67.6328 349.32 68.0195 346.883 68.0195C344.609 68.0195 342.617 67.4102 340.906 66.1914ZM353.827 54C353.267 52.7547 352.464 51.6974 351.418 50.8281C349.895 49.5625 348.066 48.9297 345.934 48.9297C343.777 48.9297 341.902 49.5742 340.309 50.8633C339.24 51.7406 338.421 52.7862 337.852 54H353.827Z" fill="#1A194D"/>
</svg>
