<svg width="40" height="40" viewBox="0 0 40 40" fill="none" xmlns="http://www.w3.org/2000/svg">
<path d="M31.5045 34.5011C28.8103 34.7925 28.3003 36.6506 28.9439 37.9135C31.1647 36.8084 33.1667 35.339 34.8902 33.5903C34.6721 33.3838 34.3323 34.1975 31.5045 34.5011Z" fill="white"/>
<path d="M5.72816 30.3723C6.54134 27.6156 7.30599 25.8183 8.76212 24.276C9.84191 24.5309 10.5946 24.7496 11.068 25.296C10.9463 24.1545 11.0561 21.5436 14.0654 21.3371C14.0169 19.7584 14.7449 18.0218 16.6991 16.7588C19.6599 14.8522 19.9152 13.0913 19.9877 13.0548C20.1579 12.0347 19.4904 14.4635 23.3495 16.4552C25.5097 17.5724 26.3954 19.6855 26.42 21.2764C27.3788 21.4342 29.6601 22.1872 28.9925 25.2596C29.9879 24.8345 31.2252 24.3245 32.5723 24.7131C33.4826 27.1905 33.4101 27.6642 33.325 30.5544C33.7379 29.6436 34.6482 29.1214 34.9514 28.915C35.5943 29.5586 36.0917 30.4087 36.468 31.3802C38.7014 28.1499 40 24.2395 40 20.0134C40 8.96232 31.0437 0 19.9996 0C8.95626 0 0 8.96232 0 20.0134C0 23.948 1.12833 27.6034 3.0825 30.7002C3.26469 30.093 3.50738 29.425 3.87106 28.6842C5.12108 29.4615 5.09717 29.7529 5.72816 30.3723Z" fill="#FBB342"/>
<path d="M25.8494 38.7274C27.0748 37.2094 26.9053 34.4406 23.3613 33.4205C21.2257 32.8133 20.461 31.9875 20.1698 31.4653C20.1332 31.3803 20.0966 31.2953 20.0481 31.2103C19.9637 30.9795 20.0481 32.4126 16.6019 33.4569C13.2402 34.477 12.9609 37.2216 14.0534 38.7274C14.1624 38.861 14.4536 39.1039 14.709 39.274C14.8546 39.3104 15.0002 39.3468 15.1331 39.3832C15.0241 39.031 15.0973 37.6588 16.189 36.9544C17.33 36.2258 18.8593 35.3635 19.8786 34.2099C20.9098 35.485 22.7669 36.2501 24.0409 37.0394C25.1572 37.7316 24.9145 39.031 24.745 39.4075C24.8787 39.3711 25.0116 39.3346 25.1579 39.3104C25.4245 39.1282 25.7277 38.861 25.8494 38.7274Z" fill="white"/>
<path d="M23.2039 31.3801C23.2771 31.6109 23.5317 32.3516 23.6168 32.2544C23.5683 32.0845 23.932 31.1372 24.8788 30.7364C25.704 30.3843 26.7479 30.0564 27.6335 29.4613C27.9247 30.5179 28.5438 31.4651 28.9567 32.2909C29.4175 33.2017 29.1023 34.1611 28.9567 34.2703C28.944 34.4039 29.6236 33.991 29.8304 33.8696C30.9467 33.0802 31.6502 30.9672 29.976 29.2184C29.1867 28.3927 28.8955 27.7247 28.8111 27.2389C28.7745 27.0325 28.8111 26.8747 28.7865 26.5953C28.8111 26.4496 28.7745 27.4211 26.0684 27.7369C23.6527 27.9797 22.8402 30.0564 23.2039 31.3801Z" fill="white"/>
<path d="M17.5966 28.1256C17.8519 28.2834 18.701 28.7691 18.701 28.6234C18.5188 28.502 17.2695 26.559 18.3493 25.3324C18.9803 24.6159 19.6964 24.118 20.1452 23.3529C20.7157 24.3123 21.4071 24.5916 21.9291 25.3567C22.8154 26.6439 21.5774 28.417 21.3952 28.5384C21.3952 28.6841 22.342 28.0891 22.5967 27.9312C23.9923 26.9718 25.3274 24.7252 22.973 22.9279C19.8174 20.5233 20.1937 18.3253 20.0115 19.0539C19.8174 19.8311 19.7329 20.0619 19.0534 21.0091C18.4829 21.7985 18.0334 22.1628 17.1239 22.9279C14.8419 24.8102 16.189 27.1905 17.5966 28.1256Z" fill="white"/>
<path d="M8.61642 34.5863C5.32711 34.2341 4.70809 32.8861 5.12101 33.469C5.14492 33.4933 5.09639 33.5419 5.08443 33.6026C6.83178 35.3878 8.87107 36.8694 11.1284 37.9866C11.7714 36.7237 11.286 34.8777 8.61642 34.5863Z" fill="white"/>
<path d="M10.3272 33.7604C10.534 33.8819 11.2255 34.2705 11.2135 34.1369C11.0679 34.0397 10.7155 33.0925 11.1404 32.1695C11.5167 31.3559 12.0872 30.4087 12.3419 29.3764C13.2641 29.9715 14.3565 30.263 15.2182 30.603C16.177 30.9673 16.5653 31.9024 16.5288 32.0724C16.6139 32.1817 16.8446 31.4288 16.9051 31.1859C17.2083 29.85 16.3346 27.8099 13.9197 27.6155C12.7787 27.5305 12.1238 27.2148 11.7355 26.9112C11.5772 26.7897 11.4928 26.6318 11.2986 26.4497C11.2135 26.3282 11.8445 27.0691 10.024 29.1092C8.39763 30.9308 9.17424 33.0075 10.3272 33.7604Z" fill="white"/>
</svg>
