<?xml version="1.0" standalone="no"?>
<!DOCTYPE svg PUBLIC "-//W3C//DTD SVG 20010904//EN"
 "http://www.w3.org/TR/2001/REC-SVG-20010904/DTD/svg10.dtd">
<svg version="1.0" xmlns="http://www.w3.org/2000/svg"
 width="200.000000pt" height="191.000000pt" viewBox="0 0 200.000000 191.000000"
 preserveAspectRatio="xMidYMid meet">

<g transform="translate(0.000000,191.000000) scale(0.100000,-0.100000)"
fill="#000000" stroke="none">
<path d="M0 955 l0 -955 1000 0 1000 0 0 955 0 955 -1000 0 -1000 0 0 -955z
m1174 450 l24 -30 -185 -5 -185 -5 -129 -222 c-118 -203 -128 -225 -117 -248
6 -14 14 -25 17 -25 3 0 63 98 132 218 l126 217 258 0 257 0 26 -32 25 -33
-264 0 -264 0 -55 -98 c-30 -53 -87 -153 -127 -221 -71 -122 -72 -124 -57
-154 9 -16 19 -25 24 -21 4 5 63 105 130 222 l123 212 213 0 213 0 20 -29 c12
-16 21 -32 21 -35 0 -3 -97 -7 -216 -8 l-217 -3 -139 -240 c-76 -132 -142
-245 -146 -252 -8 -13 -189 293 -184 311 6 20 286 501 296 509 6 4 89 6 184 5
l172 -3 24 -30z m-234 -610 l31 -55 124 0 c122 0 124 0 144 -26 12 -15 21 -31
21 -35 0 -5 -74 -9 -165 -9 l-164 0 -34 58 c-33 55 -33 58 -19 90 9 17 19 32
23 32 4 0 22 -25 39 -55z m-53 -152 c13 -23 16 -23 247 -23 l234 0 28 -32 27
-33 -278 -3 c-164 -1 -282 2 -289 7 -6 5 -22 30 -36 55 -24 45 -24 46 -6 83
l18 37 20 -35 c12 -19 27 -44 35 -56z m-80 -130 c13 -23 16 -23 251 -24 l237
0 28 -35 29 -34 -285 0 c-216 0 -287 3 -294 13 -6 6 -20 31 -33 55 -23 41 -23
43 -6 79 l18 37 20 -35 c12 -19 27 -44 35 -56z"/>
</g>
</svg>
