<?xml version="1.0" encoding="UTF-8"?>
<svg xmlns="http://www.w3.org/2000/svg" viewBox="0 0 336 336" role="img" aria-labelledby="title">
  <title id="title">Adanos</title>
  <defs>
    <linearGradient id="adanos-gradient" x1="168" y1="301" x2="168" y2="-194" gradientUnits="userSpaceOnUse">
      <stop offset="0" stop-color="#c76745"/>
      <stop offset=".55" stop-color="#e5b86f"/>
      <stop offset=".84" stop-color="#f8dda1"/>
      <stop offset="1" stop-color="#f8ddd9"/>
    </linearGradient>
  </defs>
  <path fill="#c7c7c7" d="m328.32 248.33-38.78-16.29-101.15 42.49a48.18 48.18 0 0 1-41.23 0L46.01 232.05 7.23 248.34A12.47 12.47 0 0 0 0 259.85c0 5.04 2.71 9.34 7.25 11.52l141.93 59.62.05.02a43.36 43.36 0 0 0 37.11 0l.1-.05 141.88-59.6a12.47 12.47 0 0 0 7.25-11.52c0-5.04-2.71-9.34-7.25-11.52Z"/>
  <path fill="#727f87" d="m328.32 186.84-38.78-16.29-101.15 42.48a48.18 48.18 0 0 1-41.24 0L46.01 170.55 7.23 186.84A12.47 12.47 0 0 0 0 198.35c0 5.04 2.71 9.34 7.25 11.52l141.93 59.62.05.02a43.36 43.36 0 0 0 37.11 0l.1-.05 141.88-59.6a12.47 12.47 0 0 0 7.25-11.52c0-5.04-2.71-9.34-7.25-11.52Z"/>
  <path fill="#454e54" d="m328.32 125.34-38.78-16.29-101.15 42.48a48.18 48.18 0 0 1-41.24 0L46.01 109.05 7.25 125.34A12.47 12.47 0 0 0 0 136.86c0 5.04 2.71 9.34 7.25 11.52L149.18 198l.05.02a43.36 43.36 0 0 0 37.11 0l.1-.05 141.88-59.6a12.47 12.47 0 0 0 7.25-11.52c0-5.04-2.71-9.34-7.25-11.52Z"/>
  <path fill="url(#adanos-gradient)" d="M328.32 63.84 186.39 4.22l-.05-.02a43.36 43.36 0 0 0-37.11 0l-.1.05L7.25 63.84A12.47 12.47 0 0 0 0 75.36c0 5.04 2.71 9.34 7.25 11.52l141.93 59.62.05.02a43.36 43.36 0 0 0 37.11 0l.1-.05 141.88-59.6a12.47 12.47 0 0 0 7.25-11.52c0-5.04-2.71-9.34-7.25-11.52Z"/>
</svg>
