<svg id="Layer_1" data-name="Layer 1" xmlns="http://www.w3.org/2000/svg" xmlns:xlink="http://www.w3.org/1999/xlink" viewBox="0 0 1000 1000"><defs><style>.cls-1{fill:url(#linear-gradient);}</style><linearGradient id="linear-gradient" x1="2631.13" y1="6366.54" x2="2635.41" y2="6360.81" gradientTransform="matrix(24.61, 0, 0, -13.3, -63973.61, 85069.07)" gradientUnits="userSpaceOnUse"><stop offset="0.04" stop-color="#21dbaa"/><stop offset="0.36" stop-color="#00b4ef"/><stop offset="0.43" stop-color="#01a7ec"/><stop offset="0.57" stop-color="#0487e4"/><stop offset="0.68" stop-color="#0768dd"/><stop offset="0.96" stop-color="#5f1ae5"/></linearGradient></defs><g id="Group_3" data-name="Group 3"><g id="Group_2" data-name="Group 2"><g id="Group_1" data-name="Group 1"><path id="Path_1" data-name="Path 1" d="M369.38,529.37c-4.72,0-5.67-3.48-5.67-9.5V460c0-20.47-11.54-32.66-30.9-32.66-23.1,0-33.6,17.76-33.78,35.37v.72h15.48v-.73a22.38,22.38,0,0,1,5.93-16,16.14,16.14,0,0,1,11.73-4.88c9.25,0,14.77,7.22,14.77,19.31v5.62l-18.43,8.74c-20.9,9.77-34.59,17.72-34.59,38.34,0,18.11,11.39,30.27,28.34,30.27a33.89,33.89,0,0,0,26-13.42,17.33,17.33,0,0,0,17.64,13.42,25.19,25.19,0,0,0,9.53-2l.44-.18V527.28l-1,.58A9.75,9.75,0,0,1,369.38,529.37Zm-22.44-47.82v34.93A27,27,0,0,1,326,530a14.53,14.53,0,0,1-15.32-13.71,15.25,15.25,0,0,1,.06-2.34c0-13.8,12.08-21.16,22.57-26Z"/><path id="Path_2" data-name="Path 2" d="M455.54,393.91H439.23l-.6,35.64H423.69v15.23h14.93v73.63c0,16.53,7.74,25.63,21.8,25.63a33.6,33.6,0,0,0,16.63-4.73l.37-.2V523.76l-1.17,1a18.91,18.91,0,0,1-11.68,4.63c-7.46,0-9-6.21-9-11.42V444.8h24V429.58h-24Z"/><path id="Path_3" data-name="Path 3" d="M259.3,515.49c-6.39,9.26-13.73,14.36-20.69,14.36-9.12,0-12.37-9-12.37-17.33v-83H209.47v83.77c0,19.53,8.82,30.74,24.19,30.74a32.23,32.23,0,0,0,26-13.43l.29,11.36h16.14V429.55H259.29Z"/><path id="Path_4" data-name="Path 4" d="M172.62,439.76a23.64,23.64,0,0,0-21.85-12.28,30.32,30.32,0,0,0-24.42,13.12c-7.73,10.35-11.65,25.58-11.65,45.24,0,43.05,17.39,58.38,33.67,58.38a27.35,27.35,0,0,0,22.29-10.5V623h17V429.55H173.08Zm-2,15.54v61.51c-4.66,8.43-10.32,12.36-17.81,12.36C139,529.17,132,514.54,132,485.69,132,458,139.88,442,153.65,442A18.31,18.31,0,0,1,170.66,455.3Z"/><rect id="Rectangle_2" data-name="Rectangle 2" x="389.45" y="377.01" width="16.77" height="164.98"/><rect id="Rectangle_3" data-name="Rectangle 3" x="559.45" y="429.55" width="16.77" height="112.43"/><rect id="Rectangle_4" data-name="Rectangle 4" x="559.6" y="393.76" width="16.61" height="19.47"/><path id="Path_5" data-name="Path 5" d="M513.06,442.68l-.84-13.12H496.29V542.15h16.77v-81c7.6-15.43,17.43-17.56,26.86-17.56l4,.32V427.49h-4.55C527.4,427.48,520.82,431.21,513.06,442.68Z"/><path id="Path_6" data-name="Path 6" d="M713.39,475.2l-.43.59h0l.33-.63h0c-10.52-5.44-18-10-18-19.49a13.34,13.34,0,0,1,12.92-13.75,11.17,11.17,0,0,1,1.53,0,14.7,14.7,0,0,1,11.28,4.64,20.53,20.53,0,0,1,4.29,15.87l-.07.79H740.8l0-.68a34.92,34.92,0,0,0-8.59-26.19,29.89,29.89,0,0,0-22.31-8.92c-18.1,0-30.74,12-30.74,29.14,0,18.69,15,26.71,25.93,32.57s21.18,11.5,21.18,23.17a16.42,16.42,0,0,1-15.87,17h-1.14c-10.73,0-18.45-9-18.77-21.94v-.71H674.86v.74c.53,22.69,13.7,36.79,34.42,36.79a31.18,31.18,0,0,0,33.14-32.66C742.43,490.57,727,482.4,713.39,475.2Z"/><path id="Path_7" data-name="Path 7" d="M648,506.69a28.64,28.64,0,0,1-6.24,18.49,13.29,13.29,0,0,1-10,4.15c-12.91,0-19.72-15-19.72-43.48S619.07,442,631.9,442a12.46,12.46,0,0,1,9.29,3.85A26.76,26.76,0,0,1,647.12,463H663a39.61,39.61,0,0,0-9.31-27.41,28.06,28.06,0,0,0-21.14-8.23c-24,0-37.27,20.73-37.27,58.37s12.85,58.37,36.18,58.37c18.78,0,30.54-13.87,32-37.37Z"/></g><path id="Path_8" data-name="Path 8" d="M766.19,533a4.29,4.29,0,0,0,.52-2.16,3.63,3.63,0,0,0-1.05-2.79,4.4,4.4,0,0,0-3.15-1h-6v12h3v-4.29h2.27l2,4.29h3.34l-2.56-4.66A3.09,3.09,0,0,0,766.19,533Zm-3-1a3.52,3.52,0,0,1-1.63.31H759.5v-3.06h2.09a3,3,0,0,1,1.63.38,1.33,1.33,0,0,1,.56,1.23,1.17,1.17,0,0,1-.56,1.14Z"/><path id="Path_9" data-name="Path 9" d="M771.28,528.63a10.08,10.08,0,0,0-2.27-3.36,10.48,10.48,0,0,0-3.39-2.18,11.83,11.83,0,0,0-8.45,0,10.46,10.46,0,0,0-3.41,2.18,10.08,10.08,0,0,0-2.27,3.36,11.93,11.93,0,0,0,0,8.72,10.19,10.19,0,0,0,2.27,3.41,9.86,9.86,0,0,0,3.41,2.2,11.73,11.73,0,0,0,8.45,0,9.87,9.87,0,0,0,3.39-2.2,10.19,10.19,0,0,0,2.27-3.41A11.93,11.93,0,0,0,771.28,528.63Zm-2.06,7.88a8.63,8.63,0,0,1-1.8,2.74,7.67,7.67,0,0,1-2.68,1.78,9.13,9.13,0,0,1-6.59,0,7.67,7.67,0,0,1-2.68-1.78,8.63,8.63,0,0,1-1.8-2.74,9.64,9.64,0,0,1,0-7,8.68,8.68,0,0,1,1.8-2.75,7.78,7.78,0,0,1,2.68-1.77,9,9,0,0,1,6.59,0,7.78,7.78,0,0,1,2.68,1.77,8.68,8.68,0,0,1,1.8,2.75A9.64,9.64,0,0,1,769.22,536.51Z"/></g><path id="Path_10" data-name="Path 10" class="cls-1" d="M864.53,393.17,850,444.5h-.18l-15.56-51.33H799.87l-11.78,20.95-12.48-20.95H758.12l20.34,32.91L756.14,463h16.1l14.32-24.4L801.39,463h26.4V414.57H828c.37,2,.72,3.76,1,5.21s.65,2.77,1,4,.63,2.39,1,3.5.72,2.32,1.09,3.64l10.36,32H856l10.45-32c.76-2.58,1.48-5.07,2.14-7.46a79.91,79.91,0,0,0,1.73-8.1h.18V463H885.3V393.15Zm-68.71,33L814,396v59.84Z"/></g></svg>