<?xml version="1.0" encoding="UTF-8"?>
<svg version="1.1" xmlns="http://www.w3.org/2000/svg" width="32" height="32">
<path d="M0 0 C10.56 0 21.12 0 32 0 C32 10.56 32 21.12 32 32 C21.44 32 10.88 32 0 32 C0 21.44 0 10.88 0 0 Z " fill="#F15432" transform="translate(0,0)"/>
<path d="M0 0 C0.66 0 1.32 0 2 0 C2.33 2.31 2.66 4.62 3 7 C3.66 7 4.32 7 5 7 C5.33 6.34 5.66 5.68 6 5 C8.76383547 7.85020533 9.92501775 9.53344376 10.5625 13.5 C9.86049647 17.86802198 8.43133826 19.30394851 5 22 C4.34 22 3.68 22 3 22 C3 21.01 3 20.02 3 19 C1.68 19 0.36 19 -1 19 C-1 19.99 -1 20.98 -1 22 C-4.65316671 20.75023244 -5.78065836 20.32901247 -8 17 C-8.68191091 11.7623439 -7.2690908 9.2537171 -4.125 5.125 C-3.40570312 4.15820312 -2.68640625 3.19140625 -1.9453125 2.1953125 C-1.30335937 1.47085937 -0.66140625 0.74640625 0 0 Z " fill="#FEF6F4" transform="translate(15,5)"/>
<path d="M0 0 C0.99 0.33 1.98 0.66 3 1 C2.67 2.65 2.34 4.3 2 6 C1.01 5.67 0.02 5.34 -1 5 C-0.67 3.35 -0.34 1.7 0 0 Z " fill="#F14926" transform="translate(15,17)"/>
</svg>
