<?xml version="1.0" encoding="UTF-8"?>
<svg version="1.1" xmlns="http://www.w3.org/2000/svg" width="480" height="480">
<path d="M0 0 C158.4 0 316.8 0 480 0 C480 158.4 480 316.8 480 480 C321.6 480 163.2 480 0 480 C0 321.6 0 163.2 0 0 Z " fill="#180445" transform="translate(0,0)"/>
<path d="M0 0 C0.6852211 -0.00453111 1.3704422 -0.00906223 2.07642758 -0.01373065 C4.37174991 -0.02638765 6.66683536 -0.02475347 8.96218872 -0.02310181 C10.60819809 -0.02908625 12.25420465 -0.0358916 13.90020752 -0.04345703 C18.3713203 -0.06113268 22.84235654 -0.06581306 27.31350088 -0.0670886 C31.0461073 -0.06898766 34.77869588 -0.07634527 38.51129544 -0.08343279 C47.31785239 -0.09972023 56.12436844 -0.10460142 64.93093872 -0.10317993 C74.01505342 -0.10197832 83.0989306 -0.12308311 92.18298519 -0.15466726 C99.9826818 -0.18081937 107.78230078 -0.19154768 115.58204091 -0.19026911 C120.24024308 -0.18975917 124.89823417 -0.19546 129.55639267 -0.21662521 C133.93789851 -0.23598974 138.31899154 -0.23614442 142.70051193 -0.22159195 C144.3073334 -0.21950053 145.91418059 -0.22422459 147.52095795 -0.23631287 C149.71741879 -0.25176544 151.91245622 -0.24245912 154.10888672 -0.22705078 C155.33705046 -0.22814032 156.5652142 -0.22922985 157.83059502 -0.2303524 C162.92226885 0.52603375 165.97542113 3.04596932 169.52542114 6.64144897 C171.50465715 9.77998097 171.68410107 11.59463834 171.67752075 15.28305054 C171.68050171 16.44312622 171.68348267 17.6032019 171.68655396 18.7984314 C171.66423706 20.02569946 171.64192017 21.25296753 171.618927 22.51742554 C171.60498901 23.78143188 171.59105103 25.04543823 171.57669067 26.3477478 C171.40319582 35.1767707 170.71146173 43.55672969 168.67312622 52.1434021 C168.12603412 54.50670959 167.65576268 56.87989989 167.18533325 59.25961304 C164.52409921 72.12779837 160.10039563 83.55863941 154.181427 95.26742554 C153.64259888 96.36699585 153.10377075 97.46656616 152.5486145 98.59945679 C149.50834832 104.27295898 146.42929487 107.20070187 140.181427 109.26742554 C135.41657514 109.8478957 130.66681602 109.81542561 125.8742981 109.78500366 C124.43458857 109.79043127 122.9948846 109.7975575 121.55519104 109.8062439 C117.66475024 109.82440134 113.77473609 109.8174423 109.88428831 109.80472755 C105.80450045 109.79456426 101.72474787 109.80400208 97.6449585 109.81027222 C90.79734775 109.81753732 83.94990991 109.80798917 77.10232544 109.78890991 C69.19278677 109.76712586 61.28366032 109.77420806 53.37413156 109.79621553 C46.57219845 109.81438131 39.77038923 109.81692266 32.9684397 109.80646086 C28.91058637 109.8002346 24.85292669 109.79936663 20.79508591 109.81260681 C16.98144075 109.8241826 13.16832622 109.8161087 9.35473824 109.79302979 C7.95756091 109.78775258 6.56033872 109.78923961 5.1631794 109.79808044 C-8.0266546 109.87383242 -8.0266546 109.87383242 -12.818573 105.26742554 C-13.97720352 104.17873672 -13.97720352 104.17873672 -15.15924072 103.0680542 C-17.47820417 99.154097 -17.3948592 95.93131041 -17.3678894 91.45736694 C-17.37811127 90.58030594 -17.38833313 89.70324493 -17.39886475 88.79960632 C-17.42662138 85.90578773 -17.42474622 83.01292378 -17.4201355 80.11898804 C-17.42791189 78.10265755 -17.43658175 76.08633032 -17.44610596 74.07000732 C-17.46102302 69.84501524 -17.46045388 65.62035742 -17.44992065 61.39535522 C-17.43833682 55.9890588 -17.47217983 50.58413402 -17.51861 45.17806435 C-17.54812015 41.01377402 -17.54982339 36.84981262 -17.54359055 32.68543625 C-17.54461539 30.69277608 -17.55506141 28.70009712 -17.57521439 26.7075386 C-17.59997993 23.91621923 -17.58634618 21.12755227 -17.5632019 18.33627319 C-17.57848938 17.51837814 -17.59377686 16.70048309 -17.60952759 15.85780334 C-17.51099605 10.4630779 -16.15568366 7.6325168 -12.49551964 3.67516136 C-8.44250521 0.27280289 -5.2581576 0.01435845 0 0 Z " fill="#FE3468" transform="translate(235.81857299804688,221.73257446289063)"/>
<path d="M0 0 C1.11366943 0.00491455 2.22733887 0.0098291 3.37475586 0.01489258 C18.45883362 0.22425945 32.74395042 2.21737201 47.01953125 7.12890625 C50.58653105 8.3829526 50.58653105 8.3829526 54.44921875 9.2109375 C59.10907811 10.34122993 63.26307845 12.28436558 67.5625 14.375 C68.3877417 14.77275635 69.2129834 15.1705127 70.06323242 15.58032227 C96.16147562 28.30988889 121.07027564 44.91073946 137.5625 69.3125 C138.27664063 70.33988281 138.99078125 71.36726563 139.7265625 72.42578125 C143.26327968 77.58938833 146.30108577 82.45338133 148.5625 88.3125 C149.55422856 90.46216861 150.55517646 92.60759481 151.5625 94.75 C152.56473841 96.93647534 153.56494829 99.12388244 154.5625 101.3125 C155.08457031 102.41658203 155.08457031 102.41658203 155.6171875 103.54296875 C157.95926826 108.95206002 158.63636046 114.49286913 157.5625 120.3125 C154.95826678 125.17373534 151.74612652 127.58368495 146.5625 129.3125 C143.49647617 129.56976891 143.49647617 129.56976891 140.00331116 129.57992554 C139.35807115 129.58445665 138.71283115 129.58898776 138.04803842 129.59365618 C135.89401259 129.60627877 133.74024028 129.60468125 131.58618164 129.60302734 C130.03854549 129.60901386 128.49091233 129.61581969 126.94328308 129.62338257 C122.74494708 129.64103523 118.54669263 129.64573758 114.34832311 129.64701414 C111.72453607 129.64843648 109.10076973 129.6527076 106.47698784 129.65800858 C97.3213151 129.67650498 88.16570057 129.6846795 79.01000977 129.68310547 C70.47856806 129.68190351 61.94737911 129.70301744 53.41600138 129.7345928 C46.08761756 129.76074829 38.75931635 129.7714731 31.43088621 129.77019465 C27.05550365 129.76968489 22.68034586 129.77537603 18.30500984 129.79655075 C14.19023433 129.81592152 10.07589831 129.8160658 5.96110725 129.80151749 C4.45265053 129.79942697 2.94416638 129.80414484 1.43575668 129.8162384 C-0.62711978 129.83170387 -2.68848304 129.82237695 -4.75132751 129.80697632 C-5.904449 129.80806585 -7.05757048 129.80915539 -8.24563503 129.81027794 C-13.31032842 129.02042854 -16.39768682 126.46008505 -19.77816772 122.72923279 C-22.08908507 117.97082052 -22.01281667 113.8713046 -21.98681641 108.64477539 C-21.99703827 107.58225052 -22.00726013 106.51972565 -22.01779175 105.42500305 C-22.04554591 101.91982365 -22.04367355 98.41543234 -22.0390625 94.91015625 C-22.04683815 92.46927092 -22.05550786 90.02838829 -22.06503296 87.58750916 C-22.07994894 82.47402164 -22.07938089 77.36081032 -22.06884766 72.24731445 C-22.05725545 65.69883829 -22.09112923 59.15149296 -22.137537 52.60320377 C-22.16701916 47.56307888 -22.16875425 42.52322617 -22.16251755 37.48303032 C-22.16354349 35.06892086 -22.17401011 32.65479608 -22.19414139 30.24077034 C-22.21885443 26.86297497 -22.20530158 23.48738004 -22.18212891 20.10961914 C-22.19741638 19.1156311 -22.21270386 18.12164307 -22.22845459 17.09753418 C-22.13952156 11.2240278 -21.20084789 7.95117205 -17.11444664 3.65947628 C-11.81916135 -0.5938634 -6.51480923 -0.03362922 0 0 Z " fill="#FCC205" transform="translate(240.4375,71.6875)"/>
<path d="M0 0 C0.99585617 -0.00686325 1.99171234 -0.0137265 3.01774597 -0.02079773 C6.30038827 -0.03905736 9.58255233 -0.0352297 12.86523438 -0.02954102 C15.15157222 -0.03410282 17.43790869 -0.03940839 19.72424316 -0.04542542 C24.51234514 -0.0543546 29.3002803 -0.05193501 34.08837891 -0.04199219 C40.22196016 -0.03049598 46.35496628 -0.0507255 52.48847198 -0.07990932 C57.20855359 -0.0982599 61.92849703 -0.09798122 66.64860535 -0.0922718 C68.91001696 -0.09211849 71.17143788 -0.09817132 73.43281555 -0.11056328 C76.59490006 -0.12545139 79.75591749 -0.11481185 82.91796875 -0.09765625 C83.85009689 -0.10732422 84.78222504 -0.11699219 85.74259949 -0.12695312 C92.70538797 -0.04790642 96.1799815 1.79619436 101.30163574 6.60243225 C103.62189923 10.52465934 103.52061649 13.74937782 103.4765625 18.22998047 C103.48357178 19.10864777 103.49058105 19.98731506 103.49780273 20.89260864 C103.51537838 23.79127803 103.50376049 26.6889675 103.49023438 29.58764648 C103.49292965 31.60637092 103.49681237 33.62509409 103.50183105 35.64381409 C103.50772573 39.87302012 103.49916491 44.10188799 103.48046875 48.33105469 C103.457694 53.74615918 103.47079333 59.16047001 103.49475861 64.57554531 C103.50922979 68.74406385 103.50460425 72.91239501 103.49424744 77.08091927 C103.49158305 79.07717038 103.49483975 81.07343862 103.50416565 83.06966972 C103.51435124 85.86314653 103.49880143 88.65534835 103.4765625 91.44873047 C103.48465942 92.27022079 103.49275635 93.09171112 103.50109863 93.93809509 C103.42386205 99.18825208 102.58196997 102.34008744 98.95898438 106.40405273 C94.33980159 109.53218351 90.09202184 109.84050403 84.66210938 109.80810547 C83.44630188 109.81840034 83.44630188 109.81840034 82.20593262 109.8289032 C79.54010249 109.84712948 76.87486313 109.84334019 74.20898438 109.83764648 C72.34863087 109.84220987 70.48827906 109.84751591 68.62792969 109.85353088 C64.7343052 109.86245346 60.84088593 109.86004808 56.94726562 109.85009766 C51.96378334 109.83860138 46.98100894 109.85883383 41.99761963 109.88801479 C38.15766928 109.90638053 34.31788853 109.90608372 30.47790527 109.90037727 C28.64073696 109.90022415 26.80355709 109.90626143 24.96643066 109.91866875 C22.39579102 109.93358649 19.82645877 109.92289713 17.25585938 109.90576172 C16.12416321 109.92026367 16.12416321 109.92026367 14.96960449 109.93505859 C9.82428783 109.86342469 6.91158443 108.66225541 2.95898438 105.40405273 C-2.63942254 97.89040135 -6.26674598 88.94075714 -10.04101562 80.40405273 C-10.75837891 78.8049707 -10.75837891 78.8049707 -11.49023438 77.17358398 C-16.43586813 64.86410438 -17.96041604 51.43215677 -20.04101562 38.40405273 C-20.2446875 37.17428711 -20.44835937 35.94452148 -20.65820312 34.67749023 C-21.17381453 30.26848655 -21.34280039 25.90273051 -21.41601562 21.46655273 C-21.47208984 20.18361328 -21.47208984 20.18361328 -21.52929688 18.87475586 C-21.60490228 13.36816232 -20.65775121 9.74713975 -17.70751953 5.09326172 C-12.59077779 -0.09319244 -6.80691316 -0.03287351 0 0 Z " fill="#7FFEBA" transform="translate(94.041015625,221.595947265625)"/>
<path d="M0 0 C0.53238281 0.31710938 1.06476563 0.63421875 1.61328125 0.9609375 C2.15339844 1.26257813 2.69351563 1.56421875 3.25 1.875 C6.24913884 4.48963386 8.57349085 7.3881204 9.29676628 11.38711739 C9.43793611 13.8190087 9.4549093 16.22256281 9.42749023 18.65844727 C9.43559471 20.03759811 9.43559471 20.03759811 9.44386292 21.4446106 C9.45633247 24.47251947 9.43987201 27.49947433 9.421875 30.52734375 C9.42203002 32.63671417 9.42351942 34.74608488 9.42628479 36.85545349 C9.42766795 41.27119575 9.41512333 45.68661286 9.39233398 50.10229492 C9.36393242 55.76061905 9.36669263 61.41840377 9.3794241 67.07676792 C9.38638031 71.4305227 9.37859288 75.7841529 9.36616707 80.13789177 C9.36165326 82.22427836 9.36131515 84.31067832 9.36523247 86.39706612 C9.36814452 89.31259694 9.35163825 92.22738529 9.32983398 95.14282227 C9.33433563 96.00373978 9.33883728 96.86465729 9.34347534 97.75166321 C9.26429016 104.12786141 7.76460969 107.31322622 3.42578125 112.0859375 C-0.82025974 115.90737439 -4.95874413 115.49473635 -10.38183594 115.51293945 C-11.22934418 115.51951065 -12.07685242 115.52608185 -12.95004272 115.53285217 C-15.75706064 115.55257547 -18.56402506 115.56424598 -21.37109375 115.57421875 C-22.81015957 115.58033204 -22.81015957 115.58033204 -24.27829742 115.58656883 C-29.35675338 115.60742601 -34.43518235 115.62172894 -39.51367188 115.63110352 C-44.75377632 115.64216373 -49.99345563 115.67656025 -55.23340988 115.71627522 C-59.26724018 115.74244637 -63.30096928 115.75079583 -67.33487701 115.75438499 C-69.26613484 115.7592501 -71.19738817 115.77086191 -73.12856293 115.78942299 C-75.83572371 115.81382375 -78.54178588 115.81284771 -81.24902344 115.8059082 C-82.04200836 115.81871826 -82.83499329 115.83152832 -83.65200806 115.84472656 C-89.23276639 115.79276188 -92.45155014 114.48238219 -97.07421875 111.3359375 C-98.6328125 109.6953125 -98.6328125 109.6953125 -99.51171875 108.0859375 C-99.81980469 107.56515625 -100.12789063 107.044375 -100.4453125 106.5078125 C-102.92444341 97.94634177 -99.36361385 91.42484056 -95.69921875 83.7734375 C-95.15410645 82.61755127 -94.60899414 81.46166504 -94.04736328 80.27075195 C-90.07030335 72.01021429 -85.75200629 64.28575289 -80.27001953 56.93896484 C-79.07327774 55.33467603 -77.91481666 53.7073201 -76.7578125 52.07421875 C-61.21770033 30.57404692 -40.03105593 14.9973614 -16.69921875 2.8359375 C-16.04501953 2.48499023 -15.39082031 2.13404297 -14.71679688 1.77246094 C-9.81475836 -0.70354323 -5.43997055 -1.74161016 0 0 Z " fill="#006EF9" transform="translate(184.07421875,85.6640625)"/>
<path d="M0 0 C0.98449631 -0.00700928 1.96899261 -0.01401855 2.98332214 -0.02124023 C6.22883541 -0.03880575 9.47347242 -0.02720123 12.71899414 -0.01367188 C14.98051622 -0.01636741 17.24203718 -0.02025034 19.5035553 -0.02526855 C24.24043831 -0.03116185 28.97701932 -0.02260655 33.71386719 -0.00390625 C39.77787573 0.01886975 45.84117556 0.00576715 51.90515804 -0.01819611 C56.57468477 -0.03266953 61.24404428 -0.02804069 65.91357613 -0.01768494 C68.14903409 -0.01502126 70.38450735 -0.01827472 72.61994743 -0.02760315 C75.74834101 -0.03779235 78.87559711 -0.02223292 82.00390625 0 C83.38267944 -0.01214539 83.38267944 -0.01214539 84.78930664 -0.02453613 C91.56685826 0.06443783 95.9841375 1.53592456 100.97680664 6.36523438 C102.46846884 9.31113357 102.50034632 11.66455478 102.50415039 14.95507812 C102.52348633 16.06753906 102.54282227 17.18 102.56274414 18.32617188 C101.85609274 22.87211041 99.711789 25.12636308 96.26977539 28.03710938 C88.90406834 32.91320744 81.02737856 36.73178614 73.06665039 40.51757812 C71.96426025 41.04883301 71.96426025 41.04883301 70.83959961 41.59082031 C60.38582729 46.59608377 50.37688249 50.00419321 39.06665039 52.51757812 C37.92583008 52.86046875 36.78500977 53.20335937 35.60961914 53.55664062 C26.86402103 55.92865511 17.88807585 55.79911099 8.89404297 55.86767578 C7.29884312 55.88429754 5.70371961 55.91166902 4.10888672 55.94970703 C1.7806228 56.00472611 -0.54592806 56.02637275 -2.87475586 56.04101562 C-3.5791127 56.063685 -4.28346954 56.08635437 -5.00917053 56.10971069 C-10.63533975 56.08593347 -13.96172984 54.26971307 -17.93334961 50.51757812 C-20.68750593 47.00011891 -20.25651163 42.75643468 -20.26928711 38.46289062 C-20.27594391 37.68372284 -20.28260071 36.90455505 -20.28945923 36.10177612 C-20.29956702 34.45605829 -20.30427683 32.81029962 -20.30395508 31.16455078 C-20.30832302 28.65783489 -20.34464478 26.15288835 -20.38256836 23.64648438 C-20.38843817 22.04362578 -20.39240646 20.44075886 -20.39428711 18.83789062 C-20.40865814 18.0939505 -20.42302917 17.35001038 -20.43783569 16.58352661 C-20.39260131 11.38334938 -19.31380822 8.45101082 -15.93334961 4.51757812 C-10.69258641 0.08089189 -6.55662208 -0.05762929 0 0 Z " fill="#694EE8" transform="translate(238.933349609375,351.482421875)"/>
<path d="M0 0 C1.01495544 -0.01913956 2.02991089 -0.03827911 3.07562256 -0.05799866 C4.1673175 -0.06133713 5.25901245 -0.0646756 6.38378906 -0.06811523 C8.0781308 -0.08309303 8.0781308 -0.08309303 9.80670166 -0.09837341 C12.19726906 -0.1135601 14.58790003 -0.12059904 16.97851562 -0.12011719 C20.62249742 -0.12666065 24.26372904 -0.18109205 27.90722656 -0.23803711 C30.23273811 -0.24684298 32.55826256 -0.25279465 34.88378906 -0.25561523 C35.96738708 -0.27717178 37.05098511 -0.29872833 38.16741943 -0.32093811 C44.64799702 -0.26272762 48.44841029 0.69460587 53.42764282 4.93054199 C57.9898233 9.59649654 57.26592062 15.72828731 57.27441406 21.87329102 C57.29890625 22.80206055 57.32339844 23.73083008 57.34863281 24.68774414 C57.37915632 31.83533122 55.6210067 35.38430836 50.83691406 40.74829102 C48.19422258 43.04999005 46.17599969 43.40969164 42.71191406 43.73657227 C38.02249766 43.36660806 34.97083671 41.85009402 30.89941406 39.62329102 C29.54625925 38.90653373 28.19209919 38.19167086 26.83691406 37.47875977 C26.17860596 37.1285376 25.52029785 36.77831543 24.84204102 36.41748047 C23.02229936 35.49789002 21.13890837 34.70743603 19.25488281 33.92797852 C9.70299974 29.68022609 -4.22808073 19.24454883 -10.10058594 10.43579102 C-9.87762781 4.19296356 -9.87762781 4.19296356 -7.36468506 1.74427795 C-4.69528007 0.20155329 -3.06925921 0.03940242 0 0 Z " fill="#DDD9E5" transform="translate(136.1005859375,351.564208984375)"/>
</svg>
