<?xml version="1.0" encoding="UTF-8"?>
<svg version="1.1" xmlns="http://www.w3.org/2000/svg" width="512" height="512">
<path d="M0 0 C1.58100265 -0.00374032 3.16200345 -0.00834336 4.74300134 -0.01373065 C9.07193369 -0.02592904 13.40078858 -0.02570391 17.72973418 -0.02334189 C22.40476524 -0.02293292 27.07977172 -0.03398061 31.75479126 -0.04345703 C40.90872888 -0.06005112 50.06264074 -0.06556588 59.21659215 -0.06668179 C66.66047489 -0.0676331 74.10434916 -0.07174757 81.54822922 -0.07808304 C102.66868615 -0.09569182 123.78912278 -0.10492258 144.9095871 -0.10342209 C146.61655233 -0.10330222 146.61655233 -0.10330222 148.35800171 -0.10317993 C149.49737361 -0.10309817 150.63674551 -0.10301641 151.81064384 -0.10293217 C170.26837283 -0.10211958 188.72602017 -0.12125147 207.18372555 -0.14945666 C226.15134687 -0.17821153 245.11892839 -0.1919955 264.08657205 -0.19026911 C274.72922425 -0.18960607 285.37179085 -0.19506079 296.01442337 -0.21662521 C305.07725995 -0.23487135 314.13997215 -0.23915626 323.20281918 -0.22560637 C327.82243496 -0.21909378 332.44181235 -0.2188974 337.06140518 -0.23631287 C341.29944472 -0.25212484 345.53705845 -0.24909786 349.77508812 -0.2317446 C351.29930395 -0.22869245 352.82355221 -0.2322389 354.34772976 -0.24346475 C373.73298005 -0.3766595 391.804461 5.07945607 406.44052124 18.26742554 C407.33513062 19.06922241 408.22973999 19.87101929 409.15145874 20.69711304 C422.03983111 32.87927323 431.61218685 49.56676415 432.62812877 67.59694409 C432.70422448 71.67483585 432.71711104 75.74851328 432.70794678 79.8269043 C432.7116871 81.40790694 432.71629014 82.98890775 432.72167742 84.56990564 C432.73387582 88.89883799 432.73365069 93.22769288 432.73128867 97.55663848 C432.7308797 102.23166953 432.74192738 106.90667602 432.75140381 111.58169556 C432.7679979 120.73563318 432.77351265 129.88954504 432.77462856 139.04349644 C432.77557988 146.48737919 432.77969435 153.93125345 432.78602982 161.37513351 C432.80363859 182.49559045 432.81286936 203.61602707 432.81136887 224.7364914 C432.811249 226.44345663 432.811249 226.44345663 432.81112671 228.18490601 C432.81104495 229.32427791 432.81096319 230.46364981 432.81087895 231.63754813 C432.81006635 250.09527713 432.82919825 268.55292446 432.85740344 287.01062985 C432.8861583 305.97825116 432.89994227 324.94583269 432.89821589 343.91347635 C432.89755284 354.55612854 432.90300757 365.19869515 432.92457199 375.84132767 C432.94281812 384.90416425 432.94710303 393.96687645 432.93355314 403.02972348 C432.92704056 407.64933926 432.92684418 412.26871664 432.94425964 416.88830948 C432.96007162 421.12634901 432.95704464 425.36396275 432.93969138 429.60199241 C432.93663923 431.12620824 432.94018568 432.65045651 432.95141153 434.17463405 C433.04123041 447.24693318 430.98762026 459.67377685 424.87802124 471.39242554 C424.5399646 472.04928345 424.20190796 472.70614136 423.85360718 473.38290405 C414.60796692 490.54538291 398.8583127 503.24056302 380.33072567 509.28135252 C370.86806427 512.03123761 362.00228956 512.83875533 352.15951538 512.77536011 C350.57333081 512.77998093 348.98715054 512.78634171 347.40097904 512.79426908 C343.08550505 512.81082351 338.77038912 512.80278005 334.45491457 512.79032421 C329.78406748 512.78121856 325.11327902 512.79527061 320.44244385 512.8062439 C311.30934324 512.82397519 302.17637457 512.82021324 293.04326892 512.80859333 C285.61668492 512.799538 278.19013775 512.79834408 270.7635498 512.8026886 C269.70417428 512.80330153 268.64479876 512.80391446 267.55332094 512.80454597 C265.40082191 512.80582495 263.24832289 512.8071218 261.09582388 512.80843633 C240.93986889 512.81982635 220.78398681 512.80675323 200.62804377 512.78523487 C183.35553883 512.76736534 166.08314143 512.77046989 148.81063843 512.78890991 C128.72389043 512.81034455 108.63720625 512.81872786 88.55044842 512.80646086 C86.40612985 512.80518674 84.26181127 512.80392926 82.11749268 512.8026886 C80.53516841 512.80176295 80.53516841 512.80176295 78.92087799 512.80081859 C71.50831218 512.79737347 64.09578705 512.80317593 56.68322754 512.81260681 C47.64248153 512.82385702 38.60187434 512.8207234 29.56114411 512.79948384 C24.95364768 512.78901399 20.3463822 512.78478174 15.73888779 512.79808044 C11.51217469 512.81009505 7.28590424 512.80329432 3.05923069 512.78217024 C1.5392382 512.77774224 0.01920745 512.7798836 -1.50075996 512.78967339 C-14.55634331 512.86723916 -26.9812849 510.80646707 -38.68447876 504.70492554 C-39.34133667 504.3668689 -39.99819458 504.02881226 -40.67495728 503.68051147 C-57.83743613 494.43487122 -70.53261624 478.685217 -76.57340574 460.15762997 C-79.32329084 450.69496857 -80.13080856 441.82919386 -80.06741333 431.98641968 C-80.07203416 430.40023511 -80.07839493 428.81405483 -80.08632231 427.22788334 C-80.10287673 422.91240935 -80.09483327 418.59729341 -80.08237743 414.28181887 C-80.07327179 409.61097178 -80.08732383 404.94018332 -80.09829712 400.26934814 C-80.11602842 391.13624754 -80.11226646 382.00327886 -80.10064656 372.87017322 C-80.09159122 365.44358922 -80.0903973 358.01704204 -80.09474182 350.5904541 C-80.09535475 349.53107858 -80.09596769 348.47170305 -80.09659919 347.38022524 C-80.09787817 345.22772621 -80.09917502 343.07522719 -80.10048956 340.92272818 C-80.11187957 320.76677318 -80.09880646 300.6108911 -80.07728809 280.45494807 C-80.05941856 263.18244312 -80.06252311 245.91004573 -80.08096313 228.63754272 C-80.10239777 208.55079473 -80.11078108 188.46411055 -80.09851408 168.37735271 C-80.09723996 166.23303414 -80.09598248 164.08871556 -80.09474182 161.94439697 C-80.09381617 160.3620727 -80.09381617 160.3620727 -80.09287181 158.74778229 C-80.08942669 151.33521648 -80.09522915 143.92269135 -80.10466003 136.51013184 C-80.11591024 127.46938583 -80.11277662 118.42877864 -80.09153706 109.38804841 C-80.08106722 104.78055198 -80.07683497 100.1732865 -80.09013367 95.56579208 C-80.10214827 91.33907898 -80.09534755 87.11280854 -80.07422346 82.88613498 C-80.06979546 81.36614249 -80.07193682 79.84611175 -80.08172661 78.32614434 C-80.19680462 58.95663946 -74.73605259 40.89083884 -61.55947876 26.26742554 C-60.75768188 25.37281616 -59.95588501 24.47820679 -59.12979126 23.55648804 C-42.89397198 6.37946185 -23.12437038 -0.05196114 0 0 Z " fill="#0088CE" transform="translate(79.55947875976563,-0.267425537109375)"/>
<path d="M0 0 C1.89516357 -0.01426025 1.89516357 -0.01426025 3.82861328 -0.02880859 C31.37843001 0.0682611 60.67456642 8.82650617 80.875 28.25 C90.71093991 39.41194546 94.86725062 50.38329813 94.234375 65.09765625 C93.8982478 69.86406763 92.9539343 73.93847103 90.875 78.25 C90.61976563 78.89582031 90.36453125 79.54164063 90.1015625 80.20703125 C84.82351068 92.48213343 73.61942755 101.0038773 61.68359375 106.15234375 C48.92571489 111.13838542 35.62585678 113.87444641 22.55078125 108.51953125 C9.02658371 102.10294118 9.02658371 102.10294118 5.875 96.25 C5.79208058 92.85030395 6.49226316 91.65742954 8.8125 89.1875 C11.47374717 87.50385383 13.63652954 86.55353339 16.5625 85.5 C25.54612784 82.06744966 32.71588408 75.97447106 36.875 67.25 C38.78412898 61.52261307 38.77788045 55.46616111 36.5 49.875 C28.1961986 41.5711986 15.76736777 38.89400566 4.41162109 38.88378906 C3.30641113 38.90151367 2.20120117 38.91923828 1.0625 38.9375 C-0.09169434 38.9487793 -1.24588867 38.96005859 -2.43505859 38.97167969 C-10.19585759 39.09683616 -17.54162099 39.5160868 -25.125 41.25 C-26.34316406 41.49492188 -27.56132812 41.73984375 -28.81640625 41.9921875 C-50.29216622 46.57991321 -74.80301188 58.11679373 -88.0625 76.1875 C-89.1133392 77.8564799 -90.13517301 79.54412795 -91.125 81.25 C-91.6303125 82.0440625 -92.135625 82.838125 -92.65625 83.65625 C-97.8430576 92.99250368 -97.76817472 104.62663055 -95.23828125 114.82421875 C-92.67351242 121.47898438 -88.85364404 126.95474284 -84.125 132.25 C-83.37669922 133.12011719 -83.37669922 133.12011719 -82.61328125 134.0078125 C-68.90211495 148.85869792 -48.70695507 157.36956966 -31.06640625 166.41943359 C38.97542143 202.40431697 38.97542143 202.40431697 50.875 239.25 C52.74339182 245.85496473 53.22932864 252.15384731 53.1875 259 C53.18186035 259.9701001 53.1762207 260.9402002 53.17041016 261.93969727 C52.70807984 289.34764552 38.40239212 309.02261005 19.5078125 327.57421875 C-4.35763014 350.06423868 -37.25732689 363.98259269 -69.125 370.25 C-70.07713379 370.44319824 -71.02926758 370.63639648 -72.01025391 370.83544922 C-112.68426014 378.83700015 -158.82708473 376.04071222 -194.55078125 353.140625 C-197.18469754 351.27788364 -199.66326982 349.33363473 -202.125 347.25 C-202.96933594 346.56550781 -203.81367188 345.88101562 -204.68359375 345.17578125 C-216.03649152 335.55087401 -224.99863205 323.01862715 -228.125 308.25 C-229.02346603 296.66040788 -229.28507667 284.87548333 -224.125 274.25 C-223.62742187 273.1878125 -223.12984375 272.125625 -222.6171875 271.03125 C-210.51526894 246.93998888 -187.49475078 230.33495329 -162.25 221.8984375 C-138.47167392 214.77518895 -110.17345593 215.77374519 -87.97509766 227.22021484 C-74.91544494 234.48936438 -65.18080206 244.88713348 -60.4765625 259.2265625 C-58.41256837 271.10599536 -60.9253501 281.82388946 -67.33984375 291.86328125 C-73.47208274 300.06196402 -81.82344042 305.6029528 -91.84375 307.86328125 C-96.21762152 308.37877325 -100.53651692 308.47370585 -104.9375 308.5 C-106.21463867 308.5309375 -106.21463867 308.5309375 -107.51757812 308.5625 C-117.36401682 308.62249353 -125.27106188 305.8484677 -132.5 299 C-134.21456959 296.0984207 -134.98423952 293.81362639 -134.86328125 290.4140625 C-133.82800375 287.37943957 -132.00292043 285.99453223 -129.625 283.875 C-126.17853264 280.77874943 -126.17853264 280.77874943 -124.38671875 276.6328125 C-124.26836743 272.43445506 -124.74412157 269.90293445 -126.875 266.25 C-132.01854921 261.67795625 -136.67055563 261.7603988 -143.390625 261.87890625 C-153.42867577 262.87641129 -162.15957161 268.08661983 -169.125 275.25 C-175.19266633 283.69035866 -176.98727763 289.8427881 -176.125 300.25 C-175.21588636 303.55541862 -173.8765192 306.31345956 -172.125 309.25 C-171.61646484 310.17039062 -171.61646484 310.17039062 -171.09765625 311.109375 C-164.21612015 322.17860745 -150.30170547 327.28098404 -138.1796875 330.2890625 C-119.35048152 334.34148376 -97.73536038 334.27218837 -79.125 329.25 C-77.50078125 328.84974609 -77.50078125 328.84974609 -75.84375 328.44140625 C-52.8547422 322.16406796 -30.82331428 307.44374475 -18.8125 286.625 C-12.11365186 273.22730372 -7.84377111 257.15498394 -12.6875 242.4375 C-23.55553293 216.62592179 -54.74395811 205.76033235 -78.07855225 194.32312012 C-95.84372793 185.61536489 -112.92675133 177.12198612 -128.125 164.25 C-128.88296875 163.64929688 -129.6409375 163.04859375 -130.421875 162.4296875 C-142.41866073 152.54268133 -152.34880175 136.47181261 -153.9609375 120.828125 C-154.95215065 105.25191832 -153.54238694 91.29223116 -146.125 77.25 C-145.40376953 75.83654297 -145.40376953 75.83654297 -144.66796875 74.39453125 C-126.5364585 40.99902454 -89.30708801 19.2992287 -54.125 8.25 C-46.19863134 5.9231816 -38.20199029 3.97600846 -30.125 2.25 C-28.87203125 1.981875 -27.6190625 1.71375 -26.328125 1.4375 C-17.61603923 -0.0349652 -8.81454368 0.05017869 0 0 Z " fill="#FDFEFE" transform="translate(323.125,68.75)"/>
</svg>
