<svg width="592" height="276" viewBox="0 0 592 276" fill="none" xmlns="http://www.w3.org/2000/svg">
<mask id="mask0_32933_157482" style="mask-type:alpha" maskUnits="userSpaceOnUse" x="0" y="0" width="592" height="276">
<rect y="0.220703" width="592" height="275.558" fill="url(#paint0_radial_32933_157482)"/>
<rect x="0.5" y="0.720703" width="591" height="274.558" stroke="#FF6A4D" stroke-opacity="0.1"/>
</mask>
<g mask="url(#mask0_32933_157482)">
<path d="M-8 195.817H82.3576C112.94 195.817 142.792 186.469 167.913 169.026L175.092 164.041C200.212 146.597 230.064 137.249 260.647 137.249H295.856" stroke="#FF6A4D" stroke-opacity="0.2" stroke-width="6"/>
<path d="M-8 254.928H56.9382C102.378 254.928 145.031 233.022 171.502 196.089V196.089C197.974 159.155 240.627 137.249 286.067 137.249H295.856" stroke="#FF6A4D" stroke-opacity="0.2" stroke-width="6"/>
<path d="M-8 225.102H68.4366C107.339 225.102 144.56 209.238 171.502 181.175V181.175C198.445 153.112 235.665 137.249 274.568 137.249H295.856" stroke="#FF6A4D" stroke-opacity="0.2" stroke-width="6"/>
<path d="M-8 167.076H103.589C120.625 167.076 137.537 164.173 153.598 158.494L189.406 145.831C205.468 140.151 222.379 137.249 239.416 137.249H295.856" stroke="#FF6A4D" stroke-opacity="0.2" stroke-width="6"/>
<path d="M-8 138.876H129.33L213.675 137.249H295.856" stroke="#FF6A4D" stroke-opacity="0.2" stroke-width="6"/>
<path d="M-8 80.8498H83.7999C113.485 80.8498 142.502 89.6576 167.178 106.158L175.826 111.941C200.503 128.441 229.52 137.249 259.205 137.249H295.856" stroke="#FF6A4D" stroke-opacity="0.2" stroke-width="6"/>
<path d="M-8 22.2814H58.0358C102.854 22.2814 144.992 43.6291 171.502 79.7652V79.7652C198.013 115.901 240.151 137.249 284.969 137.249H295.856" stroke="#FF6A4D" stroke-opacity="0.2" stroke-width="6"/>
<path d="M-8 51.0233H69.0208C107.59 51.0233 144.532 66.5645 171.502 94.1362V94.1362C198.472 121.708 235.415 137.249 273.984 137.249H295.856" stroke="#FF6A4D" stroke-opacity="0.2" stroke-width="6"/>
<path d="M-8 37.4655H63.7954C105.343 37.4655 144.766 55.8264 171.502 87.6283V87.6283C198.238 119.43 237.662 137.791 279.209 137.791H295.856" stroke="#FF6A4D" stroke-opacity="0.2" stroke-width="6"/>
<path d="M-8 65.6654H74.2576C109.812 65.6654 144.395 78.4507 171.502 101.457V101.457C198.61 124.464 233.192 137.249 268.747 137.249H295.856" stroke="#FF6A4D" stroke-opacity="0.2" stroke-width="6"/>
<path d="M-8 96.5765H95.0523C117.613 96.5765 139.884 101.666 160.206 111.465L182.799 122.36C203.121 132.16 225.391 137.249 247.952 137.249H295.856" stroke="#FF6A4D" stroke-opacity="0.2" stroke-width="6"/>
<path d="M-8 124.234H117.825C125.484 124.234 133.131 124.82 140.701 125.988L202.304 135.494C209.873 136.662 217.521 137.249 225.18 137.249H295.856" stroke="#FF6A4D" stroke-opacity="0.2" stroke-width="6"/>
<path d="M-8 153.518H114.996C124.53 153.518 134.043 152.609 143.405 150.803L199.6 139.964C208.962 138.158 218.474 137.249 228.009 137.249H295.856" stroke="#FF6A4D" stroke-opacity="0.2" stroke-width="6"/>
<path d="M-8 180.091H93.4184C117.026 180.091 140.3 174.519 161.348 163.828L181.656 153.512C202.705 142.821 225.979 137.249 249.586 137.249H295.856" stroke="#FF6A4D" stroke-opacity="0.2" stroke-width="6"/>
<path d="M-8 211.002H73.309C109.425 211.002 144.315 197.899 171.502 174.125V174.125C198.69 150.352 233.58 137.249 269.696 137.249H295.856" stroke="#FF6A4D" stroke-opacity="0.2" stroke-width="6"/>
<path d="M-8 239.744H62.9615C104.983 239.744 144.801 220.944 171.502 188.496V188.496C198.204 156.049 238.022 137.249 280.043 137.249H295.856" stroke="#FF6A4D" stroke-opacity="0.2" stroke-width="6"/>
<path d="M-8 110.134H105.812C121.396 110.134 136.884 112.562 151.72 117.332L191.285 130.051C206.121 134.821 221.609 137.249 237.193 137.249H295.856" stroke="#FF6A4D" stroke-opacity="0.2" stroke-width="6"/>
</g>
<defs>
<radialGradient id="paint0_radial_32933_157482" cx="0" cy="0" r="1" gradientUnits="userSpaceOnUse" gradientTransform="translate(296 138) rotate(90) scale(138 296)">
<stop stop-color="#C4C4C4"/>
<stop offset="1" stop-color="#C4C4C4" stop-opacity="0"/>
</radialGradient>
</defs>
</svg>
