<svg xmlns="http://www.w3.org/2000/svg" width="250" height="250" fill="none"><g fill="#161614" clip-path="url(#a)"><path d="M124.621 30C70.713 30 27 73.552 27 127.279c0 42.981 27.971 79.444 66.76 92.308 4.878.9 6.67-2.111 6.67-4.68 0-2.32-.092-9.983-.133-18.112-27.159 5.885-32.89-11.477-32.89-11.477-4.44-11.245-10.839-14.234-10.839-14.234-8.856-6.038.668-5.914.668-5.914 9.803.687 14.965 10.025 14.965 10.025 8.707 14.872 22.837 10.572 28.408 8.087.876-6.288 3.406-10.579 6.197-13.008-21.682-2.46-44.476-10.802-44.476-48.076 0-10.62 3.813-19.298 10.058-26.11-1.013-2.451-4.354-12.345.946-25.744 0 0 8.198-2.615 26.853 9.971 7.786-2.156 16.138-3.236 24.434-3.273 8.296.037 16.654 1.117 24.456 3.273 18.633-12.586 26.819-9.971 26.819-9.971 5.313 13.399 1.97 23.293.957 25.743 6.259 6.813 10.046 15.49 10.046 26.111 0 37.363-22.837 45.59-44.574 47.998 3.501 3.019 6.621 8.94 6.621 18.015 0 13.015-.114 23.491-.114 26.696 0 2.588 1.757 5.622 6.706 4.667 38.767-12.878 66.703-49.329 66.703-92.295 0-53.727-43.707-97.279-97.62-97.279Z"/><path d="M63.562 168.576c-.215.483-.979.628-1.673.297-.708-.318-1.106-.977-.877-1.462.21-.498.975-.637 1.682-.302.71.316 1.114.982.868 1.467Zm4.802 4.269c-.466.43-1.376.231-1.994-.449-.638-.678-.758-1.585-.285-2.022.48-.43 1.362-.229 2.003.45.638.686.762 1.587.275 2.022v-.001Zm3.294 5.463c-.598.414-1.577.026-2.18-.839-.599-.865-.599-1.902.012-2.318.607-.416 1.57-.042 2.182.816.597.88.597 1.917-.014 2.342v-.001Zm5.571 6.327c-.535.587-1.674.43-2.509-.372-.853-.785-1.09-1.898-.554-2.486.541-.589 1.687-.424 2.528.372.847.783 1.106 1.904.536 2.486Zm7.2 2.136c-.235.761-1.333 1.108-2.439.784-1.104-.333-1.826-1.226-1.603-1.995.23-.767 1.332-1.128 2.446-.782 1.102.332 1.826 1.218 1.597 1.993h-.001Zm8.195.906c.028.802-.91 1.468-2.07 1.482-1.168.025-2.112-.624-2.125-1.413 0-.81.917-1.469 2.084-1.488 1.16-.023 2.111.621 2.111 1.419Zm8.05-.308c.139.783-.668 1.587-1.82 1.801-1.133.206-2.182-.277-2.327-1.053-.14-.803.682-1.606 1.813-1.814 1.154-.2 2.187.27 2.334 1.066"/></g><defs><clipPath id="a"><path fill="#fff" d="M27 30h196v190H27z"/></clipPath></defs></svg>