<svg xmlns="http://www.w3.org/2000/svg" width="250" height="250" fill="none"><g stroke="#000" stroke-miterlimit="10" clip-path="url(#a)"><path fill="#000" d="M204.286 152.051c-1.156-1.156-23.199-19.722-23.199-19.722l-.648-3.906c8.431-.547 15.729-1.563 15.729-3.032 0-11.596-1.157-31.654-1.157-34.803 0-21.144-14.549-38.287-32.482-38.287-18.878 0-32.091 21.097-32.481 38.287-.352 15.44.984 34.584 2.344 35.944 1.797 1.851 8.259 2.234 15.565 2.297l-21.371 23.222-22.042-35.943s-9.275 2.344-11.596 1.156c-1.164-.578-1.164-3.18-.875-5.625a37.123 37.123 0 1 0-8.525.289l-1.024 4.164-11.603 2.345-23.238 32.458s-2.344 11.596-1.164 11.596h12.76l22.042-34.803s2.344 22.043 1.164 23.207c-1.18 1.164-11.603-10.447-29.004 59.158h17.4l17.402-47.562 16.237 46.398h20.886s-13.924-56.845-32.482-58.002V127.68l24.364 33.646 17.401 1.157 19.722-23.192 1.164 16.238s-20.878 27.848-20.878 54.524h16.237s0-26.676 11.603-40.632c0 0 15.081 15.081 16.237 41.765l15.081-1.164s-11.596-47.563-23.199-53.36l-1.157-16.245 26.677 22.042 8.118 1.165s1.157-10.408-.008-11.573ZM87.08 99.848c-14.065 0-25.52-9.603-25.52-21.465 0-11.861 11.47-21.456 25.559-21.456 14.088 0 25.527 9.603 25.527 21.472 0 11.869-11.431 21.449-25.527 21.449h-.04Zm56.845 6.962c-2.876-4.196-2.774-10.94 0-15.08.523-.782 2.672-2.454 6.962-5.806 5.368-4.189 6.517-4.744 8.118-6.955 2.266-3.125 1.61-4.258 3.485-5.805 3.845-3.173 10.096-1.266 10.44-1.157 6.532 2.086 10.72 9.377 11.15 15.964.781 12.01-11.174 19.323-12.315 19.995-8.649 5.142-22.714 6.251-27.801-1.156h-.039Z"/><path stroke-width="5" d="M220.046 29.953H30.953v189.094h189.093V29.953Z"/></g><defs><clipPath id="a"><path fill="#fff" d="M29 28h193v193H29z"/></clipPath></defs></svg>