<svg id="Layer_1" data-name="Layer 1" xmlns="http://www.w3.org/2000/svg" viewBox="0 0 300 300" height ="250" width="250" ><defs><style>.cls-1{fill:#005895;}.cls-2{fill:#f26648;}.cls-3{fill:#fff;}</style></defs><title>-icon-color</title><rect class="cls-1" width="300" height="300"/><g id="Symbol"><path class="cls-2" d="M103,160a116.58,116.58,0,0,1,9.32-45.69C106.12,119,99.25,126.48,94,134.12a96.31,96.31,0,0,0-13.08,29.52c-7.51,28.86-2.2,58.64,14,77.41l1,1.16a166,166,0,0,0,33.66-8.41A114.39,114.39,0,0,1,103,160Z"/><path class="cls-3" d="M162.17,102.92c3.36,10.23-3.76,36.12-47.51,58,10.1-1.56,21.88-5.44,34.3-11.65,35.47-17.87,62.92-48.29,61.36-68s-31.45-21.23-66.79-3.37a254.19,254.19,0,0,0-56.06,38.19c-34,30.16-55.92,65.5-53.85,92.56,1.69,21.35,18,33.13,42.59,34.56-14.88-23.43-17.34-58-3.88-90.23A112,112,0,0,1,91.75,122a105.83,105.83,0,0,1,25.5-20.32C139.51,90,158.28,90.89,162.17,102.92Z"/><path class="cls-3" d="M266.37,91.53c-1.94-25.11-24.07-37-56.05-34.43,15.67,2.33,25.89,11,27.06,25.63,2.33,30.29-35.08,74.56-83.5,98.9a160.12,160.12,0,0,1-30.94,11.91,116.67,116.67,0,0,0,21.88,34.17c3.5-1.55,7.12-3.23,10.74-5C219.9,190.43,269.48,131.66,266.37,91.53Z"/></g></svg>
