<svg xmlns="http://www.w3.org/2000/svg" width="250" height="250" fill="none"><g clip-path="url(#a)"><path fill="url(#b)" d="M78.433 219.324c-11.36-.516-17.53-2.406-21.634-4.007-5.438-2.118-9.315-4.638-13.397-8.714-4.081-4.076-6.607-7.953-8.713-13.391-1.6-4.104-3.491-10.274-4.008-21.633-.568-12.279-.681-15.963-.681-47.07 0-31.108.125-34.787.675-47.076.517-11.36 2.419-17.518 4.008-21.634 2.117-5.438 4.644-9.315 8.714-13.402 4.075-4.076 7.953-6.608 13.397-8.714 4.104-1.6 10.274-3.49 21.633-4.008C90.71 29.113 94.4 29 125.497 29c31.108 0 34.786.125 47.076.675 11.359.517 17.518 2.419 21.634 4.008 5.438 2.106 9.315 4.638 13.396 8.714 4.082 4.075 6.596 7.958 8.714 13.397 1.601 4.104 3.491 10.274 4.007 21.633.562 12.29.676 15.968.676 47.076 0 31.096-.114 34.786-.676 47.076-.516 11.359-2.418 17.529-4.007 21.633-2.118 5.438-4.638 9.315-8.714 13.391-4.076 4.076-7.958 6.596-13.396 8.714-4.105 1.601-10.275 3.491-21.634 4.007-12.278.562-15.968.676-47.076.676-31.096 0-34.786-.108-47.064-.676"/><path fill="url(#c)" d="M78.433 219.324c-11.36-.516-17.53-2.406-21.634-4.007-5.438-2.118-9.315-4.638-13.397-8.714-4.081-4.076-6.607-7.953-8.713-13.391-1.6-4.104-3.491-10.274-4.008-21.633-.568-12.279-.681-15.963-.681-47.07 0-31.108.125-34.787.675-47.076.517-11.36 2.419-17.518 4.008-21.634 2.117-5.438 4.644-9.315 8.714-13.402 4.075-4.076 7.953-6.608 13.397-8.714 4.104-1.6 10.274-3.49 21.633-4.008C90.71 29.113 94.4 29 125.497 29c31.108 0 34.786.125 47.076.675 11.359.517 17.518 2.419 21.634 4.008 5.438 2.106 9.315 4.638 13.396 8.714 4.082 4.075 6.596 7.958 8.714 13.397 1.601 4.104 3.491 10.274 4.007 21.633.562 12.29.676 15.968.676 47.076 0 31.096-.114 34.786-.676 47.076-.516 11.359-2.418 17.529-4.007 21.633-2.118 5.438-4.638 9.315-8.714 13.391-4.076 4.076-7.958 6.596-13.396 8.714-4.105 1.601-10.275 3.491-21.634 4.007-12.278.562-15.968.676-47.076.676-31.096 0-34.786-.108-47.064-.676"/><path fill="#fff" d="M102.051 124.907c0-13.062 10.586-23.654 23.648-23.654 13.063 0 23.655 10.592 23.655 23.654 0 13.063-10.592 23.654-23.655 23.654-13.062 0-23.648-10.591-23.648-23.654Zm-12.787 0c0 20.124 16.312 36.436 36.435 36.436 20.124 0 36.436-16.312 36.436-36.436 0-20.123-16.312-36.436-36.436-36.436-20.123 0-36.435 16.312-36.435 36.436Zm65.799-37.88a8.52 8.52 0 0 0 5.254 7.868 8.512 8.512 0 0 0 11.612-6.2 8.515 8.515 0 0 0-8.347-10.18h-.004a8.518 8.518 0 0 0-8.515 8.512Zm-58.03 95.638c-6.918-.315-10.678-1.467-13.177-2.441-3.313-1.289-5.677-2.826-8.162-5.307-2.485-2.482-4.024-4.844-5.308-8.156-.974-2.498-2.126-6.259-2.44-13.177-.345-7.48-.413-9.727-.413-28.676 0-18.949.074-21.189.412-28.675.315-6.918 1.476-10.672 2.441-13.177 1.29-3.313 2.826-5.677 5.308-8.162 2.482-2.485 4.843-4.023 8.162-5.308 2.497-.974 6.259-2.126 13.177-2.44 7.479-.344 9.726-.413 28.666-.413 18.941 0 21.19.073 28.676.414 6.918.315 10.672 1.476 13.177 2.44 3.313 1.285 5.676 2.826 8.162 5.308 2.485 2.482 4.017 4.85 5.307 8.162.974 2.498 2.127 6.26 2.441 13.177.344 7.486.413 9.726.413 28.675 0 18.949-.069 21.19-.413 28.676-.315 6.918-1.473 10.678-2.441 13.177-1.29 3.313-2.826 5.676-5.307 8.156-2.482 2.479-4.849 4.018-8.162 5.307-2.498.975-6.259 2.127-13.177 2.441-7.48.344-9.727.413-28.676.413-18.949 0-21.189-.069-28.666-.413v-.001ZM96.445 54.38c-7.554.343-12.715 1.541-17.223 3.295-4.666 1.812-8.62 4.242-12.57 8.185-3.949 3.943-6.373 7.898-8.184 12.57-1.754 4.51-2.952 9.669-3.296 17.223-.35 7.566-.43 9.984-.43 29.254 0 19.27.08 21.689.43 29.254.344 7.555 1.542 12.713 3.296 17.224 1.811 4.665 4.236 8.628 8.184 12.569 3.949 3.942 7.899 6.368 12.57 8.185 4.516 1.754 9.67 2.952 17.223 3.296 7.57.344 9.985.429 29.254.429 19.27 0 21.689-.08 29.255-.429 7.554-.344 12.712-1.542 17.223-3.296 4.666-1.817 8.62-4.242 12.57-8.185 3.949-3.943 6.368-7.904 8.184-12.569 1.754-4.511 2.958-9.67 3.296-17.224.344-7.571.424-9.984.424-29.254 0-19.27-.08-21.688-.424-29.254-.344-7.555-1.542-12.716-3.296-17.224-1.816-4.665-4.241-8.62-8.184-12.57-3.943-3.948-7.904-6.372-12.564-8.184-4.517-1.754-9.675-2.957-17.224-3.295-7.566-.346-9.984-.43-29.251-.43-19.267 0-21.69.08-29.26.43"/></g><defs><radialGradient id="b" cx="0" cy="0" r="1" gradientTransform="translate(42.361 215.816) scale(242.499)" gradientUnits="userSpaceOnUse"><stop offset=".09" stop-color="#FA8F21"/><stop offset=".78" stop-color="#D82D7E"/></radialGradient><radialGradient id="c" cx="0" cy="0" r="1" gradientTransform="translate(162.299 209.683) scale(213.402)" gradientUnits="userSpaceOnUse"><stop offset=".64" stop-color="#8C3AAA" stop-opacity="0"/><stop offset="1" stop-color="#8C3AAA"/></radialGradient><clipPath id="a"><path fill="#fff" d="M30 29h191v191H30z"/></clipPath></defs></svg>