<?xml version="1.0" encoding="UTF-8"?>
<svg version="1.1" xmlns="http://www.w3.org/2000/svg" width="225" height="225">
<path d="M0 0 C74.25 0 148.5 0 225 0 C225 74.25 225 148.5 225 225 C150.75 225 76.5 225 0 225 C0 150.75 0 76.5 0 0 Z " fill="#FEFEFE" transform="translate(0,0)"/>
<path d="M0 0 C3.76867939 3.76867939 5.09659285 6.57634482 5.31640625 11.7890625 C5.37924805 13.20058594 5.37924805 13.20058594 5.44335938 14.640625 C5.48267578 15.62546875 5.52199219 16.6103125 5.5625 17.625 C5.60568359 18.61757812 5.64886719 19.61015625 5.69335938 20.6328125 C5.79961069 23.08839838 5.90164964 25.54408703 6 28 C6.45890625 27.22914062 6.9178125 26.45828125 7.390625 25.6640625 C8.00421875 24.66117188 8.6178125 23.65828125 9.25 22.625 C9.85328125 21.62726563 10.4565625 20.62953125 11.078125 19.6015625 C12.97982665 17.02730783 14.00574733 15.99199834 17 15 C20.85780093 15.28933507 23.08014685 16.51271769 26 19 C24.36096823 23.53332201 21.99332501 26.96686526 19.14453125 30.81640625 C17.83865646 32.86977145 17.83865646 32.86977145 18.06640625 34.8984375 C19.90188717 39.03018953 22.76507068 42.5587235 25.3828125 46.22265625 C25.91648438 47.13917969 26.45015625 48.05570313 27 49 C26 52 26 52 23 54 C18.78890843 54.54588224 16.80036387 54.60980104 13.375 52 C10.60078618 48.49572991 8.24918422 44.85711167 6 41 C5.97421875 41.60328125 5.9484375 42.2065625 5.921875 42.828125 C5.65006239 46.65821171 5.45428666 49.31015729 3.3125 52.5625 C0.30917755 54.42943017 -1.52075524 54.44415891 -5 54 C-8 52 -8 52 -9 49 C-9.08705429 47.41966808 -9.11767952 45.83589622 -9.11352539 44.25317383 C-9.11344986 43.29240433 -9.11337433 42.33163483 -9.11329651 41.3417511 C-9.10813522 40.30729355 -9.10297394 39.272836 -9.09765625 38.20703125 C-9.0962413 37.14586594 -9.09482635 36.08470062 -9.09336853 34.99137878 C-9.08776606 31.59839065 -9.07521314 28.20546823 -9.0625 24.8125 C-9.05748532 22.51367283 -9.05292236 20.21484462 -9.04882812 17.91601562 C-9.03779583 12.27732128 -9.0210553 6.63866534 -9 1 C-5.87139505 -0.56430248 -3.44397075 -0.35627284 0 0 Z " fill="#232122" transform="translate(24,95)"/>
<path d="M0 0 C2.69885341 2.24904451 3.85353004 4.08277335 4.40966797 7.56542969 C4.61834474 10.65221319 4.70842609 13.71902293 4.75 16.8125 C4.77964844 17.88693359 4.80929688 18.96136719 4.83984375 20.06835938 C4.91034921 22.71231427 4.96314143 25.3553973 5 28 C5.48210937 27.22914062 5.96421875 26.45828125 6.4609375 25.6640625 C7.09257813 24.66117188 7.72421875 23.65828125 8.375 22.625 C9.31472656 21.12839844 9.31472656 21.12839844 10.2734375 19.6015625 C12 17 12 17 14 15 C21.30434783 14.53623188 21.30434783 14.53623188 25 17 C24.33642118 22.3855672 21.62108073 25.37380259 18.30078125 29.5 C16.70176345 31.91559194 16.70176345 31.91559194 17.55859375 34.46484375 C19.72119336 38.26844036 22.21599686 41.80459397 24.734375 45.37890625 C26 48 26 48 25.328125 50.27734375 C23.43191751 52.7368364 22.27169084 52.96377455 19.1875 53.375 C14.79815453 52.85860642 13.7812578 51.40704081 11 48 C8.92162469 45.04781844 6.93306947 42.04906834 5 39 C4.96261719 39.75925781 4.92523438 40.51851562 4.88671875 41.30078125 C4.82097656 42.29464844 4.75523438 43.28851563 4.6875 44.3125 C4.62949219 45.29863281 4.57148437 46.28476563 4.51171875 47.30078125 C3.94559436 50.28697936 3.47039565 51.27820909 1 53 C-5.08879415 53.6523708 -5.08879415 53.6523708 -7.69746399 51.78471375 C-9.42056646 49.42374665 -9.36255546 47.9781731 -9.34057617 45.06958008 C-9.34034958 44.06876907 -9.34012299 43.06795807 -9.33988953 42.03681946 C-9.32440567 40.95861435 -9.30892181 39.88040924 -9.29296875 38.76953125 C-9.28872391 37.66397385 -9.28447906 36.55841644 -9.28010559 35.4193573 C-9.26329437 31.88349188 -9.22563685 28.34819355 -9.1875 24.8125 C-9.17245636 22.41732593 -9.1587674 20.02214294 -9.14648438 17.62695312 C-9.11338285 11.75110815 -9.06315893 5.87559458 -9 0 C-5.77839187 -1.61080407 -3.42436421 -0.82657067 0 0 Z " fill="#1F1E1F" transform="translate(106,96)"/>
<path d="M0 0 C5.72704479 -0.24813886 10.85339438 0.54096198 16.00390625 3.15234375 C20.45299062 7.60142812 21.13048446 11.18631842 21.13671875 17.31640625 C21.13800781 18.52039063 21.13929688 19.724375 21.140625 20.96484375 C21.13675781 22.22296875 21.13289063 23.48109375 21.12890625 24.77734375 C21.13470703 26.67613281 21.13470703 26.67613281 21.140625 28.61328125 C21.13933594 29.8146875 21.13804687 31.01609375 21.13671875 32.25390625 C21.13559082 33.36072754 21.13446289 34.46754883 21.13330078 35.60791016 C21.00390625 38.15234375 21.00390625 38.15234375 20.00390625 39.15234375 C12.69023333 39.62419362 12.69023333 39.62419362 10.00390625 37.77734375 C9.00390625 36.15234375 9.00390625 36.15234375 9.00390625 34.15234375 C8.34390625 34.15234375 7.68390625 34.15234375 7.00390625 34.15234375 C7.00390625 34.81234375 7.00390625 35.47234375 7.00390625 36.15234375 C3.15844737 39.48507478 -0.66456804 39.71330265 -5.55078125 39.58203125 C-9.54784691 38.87967147 -11.26442996 37.09413553 -13.99609375 34.15234375 C-15.75464974 30.63523178 -14.92979387 26.87426561 -13.99609375 23.15234375 C-10.90117668 18.99631226 -8.04620572 17.18107026 -2.99609375 16.15234375 C0.67760213 16.00519295 4.32979094 16.03466746 8.00390625 16.15234375 C7.16770016 14.15658652 7.16770016 14.15658652 6.00390625 12.15234375 C3.13535225 11.09550806 1.6407648 10.92236705 -1.24609375 11.96484375 C-3.14684299 13.04633743 -3.14684299 13.04633743 -3.99609375 15.15234375 C-9.39609375 15.51234375 -9.39609375 15.51234375 -11.87109375 14.02734375 C-13.60106597 11.14405672 -13.59007425 9.45223544 -12.99609375 6.15234375 C-8.80676596 1.7681635 -5.84861871 0.44637207 0 0 Z " fill="#201D1F" transform="translate(149.99609375,109.84765625)"/>
<path d="M0 0 C3.81854877 2.66808857 6.34230662 5.81988862 7.828125 10.27734375 C7.92080088 11.98367023 7.95810702 13.69350962 7.953125 15.40234375 C7.95699219 16.73652344 7.95699219 16.73652344 7.9609375 18.09765625 C7.828125 20.27734375 7.828125 20.27734375 6.828125 21.27734375 C5.12040142 21.36448206 3.40913851 21.38434382 1.69921875 21.375 C0.14750977 21.37016602 0.14750977 21.37016602 -1.43554688 21.36523438 C-2.52416016 21.35685547 -3.61277344 21.34847656 -4.734375 21.33984375 C-6.3730957 21.33307617 -6.3730957 21.33307617 -8.04492188 21.32617188 C-10.75395995 21.31434201 -13.46289099 21.29785918 -16.171875 21.27734375 C-15.841875 22.59734375 -15.511875 23.91734375 -15.171875 25.27734375 C-8.33412451 26.65092881 -8.33412451 26.65092881 -2.046875 24.33984375 C-1.428125 23.65921875 -0.809375 22.97859375 -0.171875 22.27734375 C4.703125 24.15234375 4.703125 24.15234375 5.828125 25.27734375 C6.23492603 28.93855303 6.3282775 30.63921815 4.015625 33.58984375 C-1.56477962 37.89472732 -9.46833977 36.78206379 -16.171875 36.27734375 C-20.48771599 35.04925891 -22.75680757 32.80163945 -25.546875 29.27734375 C-28.63982818 23.56727635 -28.96921352 17.68262983 -28.171875 11.27734375 C-25.91651782 5.83742223 -22.09968334 0.90390394 -16.921875 -1.97265625 C-10.53882957 -3.71348682 -5.71081042 -3.15893253 0 0 Z " fill="#211F20" transform="translate(82.171875,112.72265625)"/>
<path d="M0 0 C2.31 0 4.62 0 7 0 C8.9078584 3.1749094 9.1609041 5.10585211 8.625 8.75 C8.45871094 9.94882813 8.45871094 9.94882813 8.2890625 11.171875 C8.14597656 12.07679687 8.14597656 12.07679687 8 13 C9.32 13 10.64 13 12 13 C12.33 12.34 12.66 11.68 13 11 C13 11.99 13 12.98 13 14 C13.721875 13.67 14.44375 13.34 15.1875 13 C18.01697427 11.99396471 20.02895466 11.83022598 23 12 C23 13.32 23 14.64 23 16 C23.66 16 24.32 16 25 16 C25 16.66 25 17.32 25 18 C20.52941176 22 20.52941176 22 18 22 C18.33 23.65 18.66 25.3 19 27 C18.01 27 17.02 27 16 27 C16 27.66 16 28.32 16 29 C20.33273814 29.92844389 23.66726186 29.92844389 28 29 C28.495 32.465 28.495 32.465 29 36 C22.01838572 40.954694 14.29027456 41.26318332 6 41 C6 40.34 6 39.68 6 39 C5.34 38.67 4.68 38.34 4 38 C4.66 38 5.32 38 6 38 C6 37.34 6 36.68 6 36 C6.99 35.505 6.99 35.505 8 35 C8.33 34.34 8.66 33.68 9 33 C7.10820797 32.3185177 7.10820797 32.3185177 5 32 C4.34 32.66 3.68 33.32 3 34 C3 33.34 3 32.68 3 32 C2.01 32 1.02 32 0 32 C-0.33 30.02 -0.66 28.04 -1 26 C-0.34 26 0.32 26 1 26 C1.66 24.35 2.32 22.7 3 21 C0.52372901 21.63921965 0.52372901 21.63921965 -2 23 C-3.36078035 25.52372901 -3.36078035 25.52372901 -4 28 C-4.66 28 -5.32 28 -6 28 C-6 27.01 -6 26.02 -6 25 C-6.99 25 -7.98 25 -9 25 C-9.57263539 20.13259922 -7.75756835 17.89303767 -5 14 C-3.28179575 10.3827279 -2.552537 6.95984851 -2 3 C-1.34 3 -0.68 3 0 3 C0 2.01 0 1.02 0 0 Z " fill="#F9F7F9" transform="translate(180,76)"/>
<path d="M0 0 C0.33 0 0.66 0 1 0 C1.33 6.93 1.66 13.86 2 21 C3.0725 19.22625 4.145 17.4525 5.25 15.625 C9.07400402 9.30068566 9.07400402 9.30068566 13 8 C16.85780093 8.28933507 19.08014685 9.51271769 22 12 C20.36096823 16.53332201 17.99332501 19.96686526 15.14453125 23.81640625 C13.83865646 25.86977145 13.83865646 25.86977145 14.06640625 27.8984375 C15.90188717 32.03018953 18.76507068 35.5587235 21.3828125 39.22265625 C21.91648437 40.13917969 22.45015625 41.05570313 23 42 C22 45 22 45 19 47 C14.78890843 47.54588224 12.80036387 47.60980104 9.375 45 C6.58380739 41.47428302 4.29428218 37.86750425 2 34 C1.67 36.97 1.34 39.94 1 43 C0.67 43 0.34 43 0 43 C-0.05383848 40.54137599 -0.09359038 38.0839245 -0.125 35.625 C-0.14175781 34.92632812 -0.15851562 34.22765625 -0.17578125 33.5078125 C-0.19344267 31.67102514 -0.10303261 29.83398037 0 28 C0.66 27.34 1.32 26.68 2 26 C1.34 25.67 0.68 25.34 0 25 C0 16.75 0 8.5 0 0 Z " fill="#2C2A2B" transform="translate(28,102)"/>
<path d="M0 0 C2.31 0 4.62 0 7 0 C8.9078584 3.1749094 9.1609041 5.10585211 8.625 8.75 C8.45871094 9.94882813 8.45871094 9.94882813 8.2890625 11.171875 C8.14597656 12.07679687 8.14597656 12.07679687 8 13 C9.32 13 10.64 13 12 13 C12.33 12.34 12.66 11.68 13 11 C13 11.99 13 12.98 13 14 C13.66 14.33 14.32 14.66 15 15 C11.33271342 18.66728658 8.98544743 20.22746612 3.8125 21 C-0.24736638 21.53910206 -0.24736638 21.53910206 -3 24.5625 C-3.33 25.366875 -3.66 26.17125 -4 27 C-4.66 27.33 -5.32 27.66 -6 28 C-6 27.01 -6 26.02 -6 25 C-6.99 25 -7.98 25 -9 25 C-9.57263539 20.13259922 -7.75756835 17.89303767 -5 14 C-3.28179575 10.3827279 -2.552537 6.95984851 -2 3 C-1.34 3 -0.68 3 0 3 C0 2.01 0 1.02 0 0 Z " fill="#FAF5E7" transform="translate(180,76)"/>
<path d="M0 0 C1.32 0 2.64 0 4 0 C6.54677703 4.77520694 6.42040613 9.72048114 6 15 C5 16 5 16 2.77514648 16.11352539 C1.81680908 16.10828857 0.85847168 16.10305176 -0.12890625 16.09765625 C-1.68061523 16.09282227 -1.68061523 16.09282227 -3.26367188 16.08789062 C-4.35228516 16.07951172 -5.44089844 16.07113281 -6.5625 16.0625 C-8.2012207 16.05573242 -8.2012207 16.05573242 -9.87304688 16.04882812 C-12.58208495 16.03699826 -15.29101599 16.02051543 -18 16 C-18 15.67 -18 15.34 -18 15 C-11.07 15 -4.14 15 3 15 C0.01968719 14.30117869 0.01968719 14.30117869 -3 14 C-7.66666667 14 -12.33333333 14 -17 14 C-16.67 12.68 -16.34 11.36 -16 10 C-16.99 9.67 -17.98 9.34 -19 9 C-17.92598892 6.08482708 -17.22189824 4.22189824 -15 2 C-11.96650906 1.79776727 -9.34920927 1.92516944 -6.375 2.5625 C-3.86668989 3.02455713 -2.39404861 2.7980162 0 2 C0 1.34 0 0.68 0 0 Z " fill="#292627" transform="translate(84,118)"/>
<path d="M0 0 C0.99 0.33 1.98 0.66 3 1 C3 1.99 3 2.98 3 4 C4.65 3.67 6.3 3.34 8 3 C8 3.99 8 4.98 8 6 C10.31 6 12.62 6 15 6 C14.9375 8.8125 14.9375 8.8125 14 12 C10.5625 13.75 10.5625 13.75 7 15 C6.34 15.66 5.68 16.32 5 17 C4.01 16.01 3.02 15.02 2 14 C1.67 15.65 1.34 17.3 1 19 C-0.65 19.33 -2.3 19.66 -4 20 C-6.33504158 17.80647609 -7.88799855 16.10601433 -8.21875 12.83984375 C-7.92956471 8.5092941 -7.35783688 6.44041462 -4.5625 3 C-2 1 -2 1 0 0 Z " fill="#221E1F" transform="translate(143,127)"/>
<path d="M0 0 C0.28125 2.21875 0.28125 2.21875 0 5 C-4.6708122 10.58966051 -11.33030628 15.93471351 -18 19 C-18.99 19 -19.98 19 -21 19 C-20.49259538 14.60249328 -17.91706686 12.13051078 -15 9 C-14.34 9 -13.68 9 -13 9 C-12.67 8.01 -12.34 7.02 -12 6 C-11.34 6 -10.68 6 -10 6 C-9.67 5.01 -9.34 4.02 -9 3 C-5.62132353 0.53447933 -4.29441798 0 0 0 Z " fill="#5887AB" transform="translate(202,88)"/>
<path d="M0 0 C3.1875 -0.3125 3.1875 -0.3125 6 0 C6 1.98 6 3.96 6 6 C5.34 6 4.68 6 4 6 C3.773125 6.886875 3.54625 7.77375 3.3125 8.6875 C1.79544616 12.51625492 0.03220182 14.24986347 -3 17 C-3.886875 17.928125 -4.77375 18.85625 -5.6875 19.8125 C-8 22 -8 22 -10 22 C-9.42652986 17.98570903 -8.11954696 15.42388355 -6 12 C-5.505 10.845 -5.01 9.69 -4.5 8.5 C-1.8 2.2 -1.8 2.2 0 0 Z " fill="#D2B174" transform="translate(181,78)"/>
<path d="M0 0 C6.35566799 -0.45397629 10.6790627 0.37931623 16 4 C18 6.25 18 6.25 19 8 C18.01 8 17.02 8 16 8 C16 8.66 16 9.32 16 10 C13.56661348 11.53508028 12.32875493 12.03088304 9.421875 11.7578125 C8.09929687 11.44457031 8.09929687 11.44457031 6.75 11.125 C5.85796875 10.92132813 4.9659375 10.71765625 4.046875 10.5078125 C3.37140625 10.34023437 2.6959375 10.17265625 2 10 C2.66 9.01 3.32 8.02 4 7 C3.34 6.67 2.68 6.34 2 6 C2 4.68 2 3.36 2 2 C1.34 1.34 0.68 0.68 0 0 Z " fill="#272425" transform="translate(68,110)"/>
<path d="M0 0 C-0.125 2.3125 -0.125 2.3125 -1 5 C-7.43476356 9.28984238 -14.54909013 9.13071772 -22 9 C-22 8.34 -22 7.68 -22 7 C-20.25318707 6.01515892 -18.5024149 5.03733813 -16.75 4.0625 C-15.28820312 3.24458984 -15.28820312 3.24458984 -13.796875 2.41015625 C-9.03557216 0.00955524 -5.33076538 -0.10251472 0 0 Z " fill="#A06A93" transform="translate(209,108)"/>
<path d="M0 0 C6.93 0 13.86 0 21 0 C20.67 0.66 20.34 1.32 20 2 C19.236875 2.144375 18.47375 2.28875 17.6875 2.4375 C14.95017811 2.7977117 14.95017811 2.7977117 13.0625 4.5625 C10.23403298 6.5338558 8.38176404 6.35226709 5 6 C2.6875 5.25 2.6875 5.25 1 4 C0.67 2.68 0.34 1.36 0 0 Z " fill="#ECEBEC" transform="translate(66,134)"/>
<path d="M0 0 C0.99 0.33 1.98 0.66 3 1 C2.5464821 8.02952752 0.87940913 13.5849443 -2 20 C-2.66 20 -3.32 20 -4 20 C-3.40546697 6.3667426 -3.40546697 6.3667426 0 0 Z " fill="#AFBB9C" transform="translate(166,75)"/>
<path d="M0 0 C0.28875 0.61875 0.5775 1.2375 0.875 1.875 C1.93720042 4.13325765 1.93720042 4.13325765 4 6 C4.99 6 5.98 6 7 6 C7.33 4.02 7.66 2.04 8 0 C8.66 0.33 9.32 0.66 10 1 C8.76308934 6.15379442 7.11184317 9.62397054 4 14 C3.30570621 15.3191582 2.62469505 16.64649406 2 18 C2 17.34 2 16.68 2 16 C1.34 16 0.68 16 0 16 C0.66 13.69 1.32 11.38 2 9 C1.01 9.495 1.01 9.495 0 10 C0 9.34 0 8.68 0 8 C-0.66 8 -1.32 8 -2 8 C-1.47731534 5.23723823 -0.89130413 2.6739124 0 0 Z " fill="#FCF4DF" transform="translate(168,82)"/>
<path d="M0 0 C2.64 0.33 5.28 0.66 8 1 C8.33 1.99 8.66 2.98 9 4 C8.01 4.33 7.02 4.66 6 5 C6.66868314 8.11332248 6.66868314 8.11332248 9.0625 9.1875 C9.701875 9.455625 10.34125 9.72375 11 10 C8.70858714 10.05384521 6.41681812 10.09272087 4.125 10.125 C2.21074219 10.15980469 2.21074219 10.15980469 0.2578125 10.1953125 C-3 10 -3 10 -5 8 C-3.02 7.34 -1.04 6.68 1 6 C0.67 4.02 0.34 2.04 0 0 Z " fill="#1A1819" transform="translate(69,139)"/>
<path d="M0 0 C1.65 1.65 3.3 3.3 5 5 C4 8 4 8 1 10 C-2.1875 10.125 -2.1875 10.125 -5 10 C-5.8125 8.3125 -5.8125 8.3125 -6 6 C-3.625 3.3125 -3.625 3.3125 -1 1 C-0.67 0.67 -0.34 0.34 0 0 Z " fill="#222122" transform="translate(46,139)"/>
<path d="M0 0 C1.15234375 2.5546875 1.15234375 2.5546875 2 5 C-0.04079005 5.1968121 -2.08270007 5.38202831 -4.125 5.5625 C-5.83042969 5.71912109 -5.83042969 5.71912109 -7.5703125 5.87890625 C-10.88897993 5.99608016 -13.7562686 5.6655072 -17 5 C-16.67 4.34 -16.34 3.68 -16 3 C-13.03 3.495 -13.03 3.495 -10 4 C-9.731875 3.360625 -9.46375 2.72125 -9.1875 2.0625 C-6.98877391 -1.75634005 -3.74837915 -1.345572 0 0 Z " fill="#E0DEDF" transform="translate(156,121)"/>
<path d="M0 0 C0.33 0 0.66 0 1 0 C1.01981934 1.22630127 1.03963867 2.45260254 1.06005859 3.71606445 C1.13607619 8.26168508 1.22479947 12.80698399 1.31738281 17.35229492 C1.35568847 19.32032931 1.39053855 21.2884341 1.421875 23.2565918 C1.46749111 26.08407772 1.52549098 28.91107834 1.5859375 31.73828125 C1.59748871 32.61962234 1.60903992 33.50096344 1.62094116 34.40901184 C1.64081085 35.22963608 1.66068054 36.05026031 1.68115234 36.89575195 C1.69447601 37.61745071 1.70779968 38.33914948 1.7215271 39.0827179 C1.90726155 41.32601629 1.90726155 41.32601629 4 44 C2.515 44.495 2.515 44.495 1 45 C-0.51733398 43.75927734 -0.51733398 43.75927734 -2 42 C-2.09399414 40.10400391 -2.09399414 40.10400391 -1.72265625 37.8515625 C-1.10651461 33.23930225 -0.81660248 28.67155162 -0.68359375 24.0234375 C-0.66245514 23.32196594 -0.64131653 22.62049438 -0.61953735 21.89776611 C-0.55598257 19.72358209 -0.49665006 17.54930785 -0.4375 15.375 C-0.39420285 13.87889688 -0.35058544 12.38280299 -0.30664062 10.88671875 C-0.20073818 7.25791139 -0.0991582 3.62899865 0 0 Z " fill="#252424" transform="translate(99,104)"/>
<path d="M0 0 C-0.3125 2.875 -0.3125 2.875 -1 6 C-4 8 -4 8 -6.6875 7.625 C-7.450625 7.41875 -8.21375 7.2125 -9 7 C-9.33 5.35 -9.66 3.7 -10 2 C-6.3558226 -0.4294516 -4.28758728 -0.16179575 0 0 Z " fill="#F2F0F1" transform="translate(158,133)"/>
<path d="M0 0 C-1.1858237 3.37503669 -2.27573689 5.64722731 -5 8 C-8.61715717 5.58856189 -8.96958989 4.12164043 -10 0 C-9 -2 -9 -2 -7.25 -2.8125 C-4.09588007 -3.07534333 -2.53926999 -1.76338194 0 0 Z " fill="#272526" transform="translate(50,114)"/>
<path d="M0 0 C3.0625 0.3125 3.0625 0.3125 4.9375 1.625 C6.0625 3.3125 6.0625 3.3125 6.0625 6.3125 C2.1025 6.3125 -1.8575 6.3125 -5.9375 6.3125 C-4.47848361 0.47643443 -4.47848361 0.47643443 0 0 Z " fill="#F7F6F7" transform="translate(71.9375,119.6875)"/>
<path d="M0 0 C0.99 0.33 1.98 0.66 3 1 C3 1.99 3 2.98 3 4 C2.01 4.495 2.01 4.495 1 5 C1.33 6.32 1.66 7.64 2 9 C-1 8 -1 8 -3 6 C-3 6.99 -3 7.98 -3 9 C-3.66 9 -4.32 9 -5 9 C-5.33 10.98 -5.66 12.96 -6 15 C-6.66 15 -7.32 15 -8 15 C-7.88192841 10.07319446 -7.74997195 6.92304239 -4.5625 3 C-2 1 -2 1 0 0 Z " fill="#2E2A2B" transform="translate(143,127)"/>
<path d="M0 0 C1.50433594 0.01353516 1.50433594 0.01353516 3.0390625 0.02734375 C3.80992187 0.03894531 4.58078125 0.05054687 5.375 0.0625 C4.385 0.5575 4.385 0.5575 3.375 1.0625 C3.705 2.7125 4.035 4.3625 4.375 6.0625 C2.395 6.3925 0.415 6.7225 -1.625 7.0625 C-1.625 6.0725 -1.625 5.0825 -1.625 4.0625 C-3.275 4.3925 -4.925 4.7225 -6.625 5.0625 C-6.955 3.7425 -7.285 2.4225 -7.625 1.0625 C-4.98041621 -0.25979189 -2.94738699 -0.03427194 0 0 Z " fill="#191718" transform="translate(152.625,125.9375)"/>
<path d="M0 0 C3.08089673 2.77280706 4.68775452 5.06326356 6 9 C5.34 9 4.68 9 4 9 C4 9.66 4 10.32 4 11 C3.01 11.495 3.01 11.495 2 12 C2 12.66 2 13.32 2 14 C1.34 14 0.68 14 0 14 C-0.33 14.66 -0.66 15.32 -1 16 C-1 15.34 -1 14.68 -1 14 C-1.99 13.67 -2.98 13.34 -4 13 C-3.27876953 12.41798828 -3.27876953 12.41798828 -2.54296875 11.82421875 C-0.54250502 9.45911353 -0.51123932 7.87308547 -0.3125 4.8125 C-0.21388672 3.46091797 -0.21388672 3.46091797 -0.11328125 2.08203125 C-0.05720703 1.05142578 -0.05720703 1.05142578 0 0 Z " fill="#F3F2F3" transform="translate(29,135)"/>
<path d="M0 0 C0.66 0 1.32 0 2 0 C2 0.66 2 1.32 2 2 C3.98 1.67 5.96 1.34 8 1 C10 4 10 4 9.75 6.0625 C9 8 9 8 7 10 C6.34 8.35 5.68 6.7 5 5 C4.34 5 3.68 5 3 5 C2.67 5.99 2.34 6.98 2 8 C-0.36556709 5.63443291 -0.58244041 4.25696479 -1 1 C-0.67 0.67 -0.34 0.34 0 0 Z " fill="#1A1819" transform="translate(114,120)"/>
<path d="M0 0 C2.31 0 4.62 0 7 0 C6.75 2.375 6.75 2.375 6 5 C3.43689172 6.7941758 2.16880694 7 -1 7 C-1 6.34 -1 5.68 -1 5 C-1.66 5 -2.32 5 -3 5 C-3 4.01 -3 3.02 -3 2 C-2.01 2 -1.02 2 0 2 C0 1.34 0 0.68 0 0 Z " fill="#955E83" transform="translate(202,108)"/>
<path d="M0 0 C1.98 0.495 1.98 0.495 4 1 C3.67 1.99 3.34 2.98 3 4 C4.916588 4.02712153 6.8332873 4.04645097 8.75 4.0625 C9.81734375 4.07410156 10.8846875 4.08570313 11.984375 4.09765625 C14.8918999 4.1129405 14.8918999 4.1129405 17.203125 3.43359375 C19 3 19 3 22 4 C22 4.66 22 5.32 22 6 C14.74 6 7.48 6 0 6 C-1 2 -1 2 0 0 Z " fill="#191718" transform="translate(65,127)"/>
<path d="M0 0 C0.99 0 1.98 0 3 0 C4.28088583 3.8426575 3.31895347 5.2250642 2 9 C1.57865246 11.28359965 1.20340101 13.57619294 0.875 15.875 C0.70742187 17.02742188 0.53984375 18.17984375 0.3671875 19.3671875 C0.24601563 20.23601562 0.12484375 21.10484375 0 22 C-2 20 -2 20 -2.01171875 16.4453125 C-1.91450609 15.00443448 -1.80595463 13.56428742 -1.6875 12.125 C-1.63916016 11.40441406 -1.59082031 10.68382813 -1.54101562 9.94140625 C-1.29361135 6.54038039 -1.00137903 3.26945975 0 0 Z " fill="#F1FAE7" transform="translate(162,73)"/>
<path d="M0 0 C2.62669829 2.5412772 4.55140574 4.61994673 6 8 C5.38125 8.2475 4.7625 8.495 4.125 8.75 C1.57860966 10.24787667 1.17316583 11.34082412 0 14 C-0.97581759 15.35113205 -1.97029741 16.68946944 -3 18 C-2.125 13.125 -2.125 13.125 -1 12 C-0.76572222 9.98405418 -0.58663876 7.961526 -0.4375 5.9375 C-0.31181641 4.28041016 -0.31181641 4.28041016 -0.18359375 2.58984375 C-0.12300781 1.73519531 -0.06242187 0.88054687 0 0 Z " fill="#E9E7E8" transform="translate(110,134)"/>
<path d="M0 0 C0.33 1.32 0.66 2.64 1 4 C1.66 4 2.32 4 3 4 C3 4.66 3 5.32 3 6 C-1.47058824 10 -1.47058824 10 -4 10 C-3.67 11.65 -3.34 13.3 -3 15 C-5.31 14.67 -7.62 14.34 -10 14 C-5 9 -5 9 -2.75 7 C-0.71078699 4.66947084 -0.33777931 3.04001379 0 0 Z " fill="#DEEFF3" transform="translate(202,88)"/>
<path d="M0 0 C0.66 0.66 1.32 1.32 2 2 C2.66 1.67 3.32 1.34 4 1 C5.32 3.31 6.64 5.62 8 8 C6.25 9.125 6.25 9.125 4 10 C1.8125 9.5 1.8125 9.5 0 8 C-1.40540541 2.81081081 -1.40540541 2.81081081 0 0 Z " fill="#EDECED" transform="translate(131,139)"/>
<path d="M0 0 C1.98 0 3.96 0 6 0 C6 1.98 6 3.96 6 6 C5.34 6 4.68 6 4 6 C3.34 7.98 2.68 9.96 2 12 C1.67 12 1.34 12 1 12 C1 9.69 1 7.38 1 5 C1.99 5 2.98 5 4 5 C4 4.01 4 3.02 4 2 C2.02 2.99 0.04 3.98 -2 5 C-1.34 3.35 -0.68 1.7 0 0 Z " fill="#D8B77D" transform="translate(181,78)"/>
<path d="M0 0 C2.125 0.375 2.125 0.375 4 1 C2.8553125 2.0828125 2.8553125 2.0828125 1.6875 3.1875 C-0.71133591 5.69790967 -2.35410221 7.96808302 -4 11 C-2.35 10.67 -0.7 10.34 1 10 C0.01 11.32 -0.98 12.64 -2 14 C-2 13.34 -2 12.68 -2 12 C-2.99 12 -3.98 12 -5 12 C-5.33 10.02 -5.66 8.04 -6 6 C-5.34 6 -4.68 6 -4 6 C-3.71125 5.38125 -3.4225 4.7625 -3.125 4.125 C-2 2 -2 2 0 0 Z " fill="#DBECF4" transform="translate(185,96)"/>
<path d="M0 0 C0 0.99 0 1.98 0 3 C-0.99 3 -1.98 3 -3 3 C-3 5.31 -3 7.62 -3 10 C-4.65 10 -6.3 10 -8 10 C-8 7 -8 7 -6 5 C-5.505 3.9790625 -5.505 3.9790625 -5 2.9375 C-3.69892999 0.41667686 -2.81653832 0 0 0 Z " fill="#DAA753" transform="translate(185,80)"/>
<path d="M0 0 C0.99 0.33 1.98 0.66 3 1 C2.67 3.97 2.34 6.94 2 10 C0.68 8.35 -0.64 6.7 -2 5 C-1.34 3.35 -0.68 1.7 0 0 Z " fill="#AEC09A" transform="translate(166,75)"/>
<path d="M0 0 C0.33 0 0.66 0 1 0 C1 5.61 1 11.22 1 17 C1.99 17.33 2.98 17.66 4 18 C2.68 19.65 1.36 21.3 0 23 C0 15.41 0 7.82 0 0 Z " fill="#DDDBDC" transform="translate(110,103)"/>
<path d="M0 0 C0.75 1.6875 0.75 1.6875 1 4 C-0.9375 6.625 -0.9375 6.625 -3 9 C-3 9.66 -3 10.32 -3 11 C-3.66 11 -4.32 11 -5 11 C-5 10.01 -5 9.02 -5 8 C-5.99 7.67 -6.98 7.34 -8 7 C-7.38125 6.9175 -6.7625 6.835 -6.125 6.75 C-3.83647371 6.20051917 -3.83647371 6.20051917 -2.875 4.0625 C-2.58625 3.381875 -2.2975 2.70125 -2 2 C-1.34 1.34 -0.68 0.68 0 0 Z " fill="#F7F2D6" transform="translate(179,93)"/>
<path d="M0 0 C0.33 0.99 0.66 1.98 1 3 C2.32 3 3.64 3 5 3 C5.33 2.34 5.66 1.68 6 1 C6 1.99 6 2.98 6 4 C6.66 4.33 7.32 4.66 8 5 C6.35 6.32 4.7 7.64 3 9 C0.23776722 6.23776722 0.42143709 3.79293383 0 0 Z " fill="#EAF6F6" transform="translate(187,86)"/>
<path d="M0 0 C0 1.32 0 2.64 0 4 C-2.31 4.33 -4.62 4.66 -7 5 C-7 3.68 -7 2.36 -7 1 C-4.50935112 0.31292445 -2.62113708 0 0 0 Z " fill="#252324" transform="translate(151,130)"/>
<path d="M0 0 C1.41377341 2.63904371 2.37240135 5.07120629 3 8 C2.01 8.66 1.02 9.32 0 10 C0 9.34 0 8.68 0 8 C-0.66 8 -1.32 8 -2 8 C-1.47731534 5.23723823 -0.89130413 2.6739124 0 0 Z " fill="#EFFAEE" transform="translate(168,82)"/>
<path d="M0 0 C0.75 1.75 0.75 1.75 1 4 C-0.6875 6.25 -0.6875 6.25 -3 8 C-4.32 8 -5.64 8 -7 8 C-7 7.01 -7 6.02 -7 5 C-4.69 4.34 -2.38 3.68 0 3 C0 2.01 0 1.02 0 0 Z " fill="#DFDEDF" transform="translate(157,133)"/>
<path d="M0 0 C-1.75 4.875 -1.75 4.875 -4 6 C-4 5.01 -4 4.02 -4 3 C-4.99 2.67 -5.98 2.34 -7 2 C-6 0 -6 0 -4.0625 -0.6875 C-2 -1 -2 -1 0 0 Z " fill="#1E1C1D" transform="translate(47,112)"/>
<path d="M0 0 C0.33 0.66 0.66 1.32 1 2 C3.52733235 2.65555119 3.52733235 2.65555119 6 3 C6 3.33 6 3.66 6 4 C0.97874074 4.77916092 -2.97703996 5.13016601 -8 4 C-7.67 3.34 -7.34 2.68 -7 2 C-4.03 2.495 -4.03 2.495 -1 3 C-0.67 2.01 -0.34 1.02 0 0 Z " fill="#D0CFD0" transform="translate(147,122)"/>
<path d="M0 0 C2.00720923 0.28674418 4.0085944 0.61866701 6 1 C1.375 5 1.375 5 -2 5 C-1.125 1.125 -1.125 1.125 0 0 Z " fill="#6687A2" transform="translate(183,102)"/>
<path d="M0 0 C0.33 0.99 0.66 1.98 1 3 C1.66 2.67 2.32 2.34 3 2 C3 2.99 3 3.98 3 5 C1.35 5 -0.3 5 -2 5 C-2 4.34 -2 3.68 -2 3 C-3.98 3.99 -3.98 3.99 -6 5 C-4.87312259 1.61936778 -3.78825335 0 0 0 Z " fill="#2C2A2B" transform="translate(107,99)"/>
<path d="M0 0 C1.32 0.66 2.64 1.32 4 2 C3.34 2 2.68 2 2 2 C2 3.65 2 5.3 2 7 C0.68 7 -0.64 7 -2 7 C-1.125 1.125 -1.125 1.125 0 0 Z " fill="#2B292A" transform="translate(155,139)"/>
<path d="M0 0 C0.91007813 0.10183594 1.82015625 0.20367187 2.7578125 0.30859375 C3.45648438 0.39238281 4.15515625 0.47617188 4.875 0.5625 C1.9754339 2.22126079 -0.04135209 2.7986216 -3.375 2.6875 C-5.23125 2.625625 -5.23125 2.625625 -7.125 2.5625 C-7.125 1.9025 -7.125 1.2425 -7.125 0.5625 C-4.50184968 -0.74907516 -2.89466564 -0.33399988 0 0 Z " fill="#84647E" transform="translate(194.125,114.4375)"/>
<path d="M0 0 C0.33 1.32 0.66 2.64 1 4 C1.66 4 2.32 4 3 4 C3 4.66 3 5.32 3 6 C1.03852126 7.38938077 -0.96166576 8.7260411 -3 10 C-2.21302675 6.58978257 -1.12880057 3.31114834 0 0 Z " fill="#D5E4EC" transform="translate(202,88)"/>
<path d="M0 0 C0.99 0.33 1.98 0.66 3 1 C3 1.66 3 2.32 3 3 C3.99 2.67 4.98 2.34 6 2 C6 2.99 6 3.98 6 5 C4.02 5 2.04 5 0 5 C0.33 4.34 0.66 3.68 1 3 C0.34 2.34 -0.32 1.68 -1 1 C-0.67 0.67 -0.34 0.34 0 0 Z " fill="#171717" transform="translate(101,144)"/>
<path d="M0 0 C0.33 0.99 0.66 1.98 1 3 C0.01 3.33 -0.98 3.66 -2 4 C-5 2 -5 2 -6 0 C-3 -1 -3 -1 0 0 Z " fill="#222222" transform="translate(152,145)"/>
<path d="M0 0 C0.598125 0.763125 1.19625 1.52625 1.8125 2.3125 C3.46959332 4.3483575 5.10297674 6.1978279 7 8 C6.01 8.495 6.01 8.495 5 9 C2.5 6.75 2.5 6.75 0 4 C0 2.68 0 1.36 0 0 Z " fill="#EAE9E9" transform="translate(55,139)"/>
<path d="M0 0 C2 1 2 1 3 3 C2.34 3 1.68 3 1 3 C1 3.66 1 4.32 1 5 C1.66 5 2.32 5 3 5 C2.67 5.99 2.34 6.98 2 8 C0.68 6.35 -0.64 4.7 -2 3 C-1.34 2.01 -0.68 1.02 0 0 Z " fill="#F1F0F1" transform="translate(48,135)"/>
<path d="M0 0 C0.99 0.66 1.98 1.32 3 2 C2.34 3.65 1.68 5.3 1 7 C0.01 7 -0.98 7 -2 7 C-1.125 2.25 -1.125 2.25 0 0 Z " fill="#2D2B2C" transform="translate(47,112)"/>
<path d="M0 0 C1.32 0.66 2.64 1.32 4 2 C1.69 3.32 -0.62 4.64 -3 6 C-2.42655063 3.13275314 -2.1385485 2.1385485 0 0 Z " fill="#F1EFF0" transform="translate(69,120)"/>
<path d="M0 0 C2.375 -0.1875 2.375 -0.1875 5 0 C5.66 0.99 6.32 1.98 7 3 C4 4 4 4 1 4 C0.67 2.68 0.34 1.36 0 0 Z " fill="#2B2728" transform="translate(162,114)"/>
<path d="M0 0 C0 0.66 0 1.32 0 2 C-2.64 2.33 -5.28 2.66 -8 3 C-8 2.34 -8 1.68 -8 1 C-3.375 -1.125 -3.375 -1.125 0 0 Z " fill="#F4E1F0" transform="translate(208,106)"/>
<path d="M0 0 C1.98 0 3.96 0 6 0 C6.33 0.66 6.66 1.32 7 2 C4.36 2.66 1.72 3.32 -1 4 C-0.67 2.68 -0.34 1.36 0 0 Z " fill="#E2F4FA" transform="translate(196,86)"/>
<path d="M0 0 C1.5625 1.125 1.5625 1.125 3 3 C2.6875 6.1875 2.6875 6.1875 2 9 C0 7 0 7 -0.125 3.375 C-0.08375 2.26125 -0.0425 1.1475 0 0 Z " fill="#96B781" transform="translate(164,80)"/>
<path d="M0 0 C0.33 0.66 0.66 1.32 1 2 C1.66 2.33 2.32 2.66 3 3 C4.0194119 3.98020375 5.02246356 4.97803008 6 6 C4.02 6.33 2.04 6.66 0 7 C-1.33332095 4.3333581 -0.67102033 2.83319697 0 0 Z " fill="#292728" transform="translate(63,141)"/>
<path d="M0 0 C1.32 0 2.64 0 4 0 C3.67 0.99 3.34 1.98 3 3 C2.34 3 1.68 3 1 3 C1.33 3.99 1.66 4.98 2 6 C1.34 6 0.68 6 0 6 C0 5.01 0 4.02 0 3 C-0.66 2.67 -1.32 2.34 -2 2 C-1.34 1.34 -0.68 0.68 0 0 Z " fill="#1A1819" transform="translate(27,127)"/>
<path d="M0 0 C0 1.65 0 3.3 0 5 C-2.97 4.505 -2.97 4.505 -6 4 C-2.25 0 -2.25 0 0 0 Z " fill="#DFF6F9" transform="translate(192,102)"/>
<path d="M0 0 C3.3125 -0.25 3.3125 -0.25 7 0 C8.9375 2 8.9375 2 10 4 C9.01 4.33 8.02 4.66 7 5 C7 4.01 7 3.02 7 2 C4.69 1.67 2.38 1.34 0 1 C0 0.67 0 0.34 0 0 Z " fill="#3F3E3F" transform="translate(17,95)"/>
<path d="M0 0 C2.475 0.495 2.475 0.495 5 1 C4.67 1.99 4.34 2.98 4 4 C2.68 4 1.36 4 0 4 C0 2.68 0 1.36 0 0 Z " fill="#4C88B5" transform="translate(196,89)"/>
</svg>
