<svg xmlns="http://www.w3.org/2000/svg" width="250" height="250" fill="none"><g fill="#000" fill-rule="evenodd" clip-path="url(#a)" clip-rule="evenodd"><path d="M245.732 101.654c-1.711 0-3.158 1.339-3.158 3.155a3.134 3.134 0 0 0 3.158 3.171 3.133 3.133 0 0 0 3.142-3.171 3.129 3.129 0 0 0-3.142-3.155Zm0 5.8c-1.423 0-2.534-1.122-2.534-2.645 0-1.498 1.111-2.628 2.534-2.628 1.405 0 2.517 1.13 2.517 2.628-.002 1.523-1.113 2.645-2.517 2.645Z"/><path d="M246.231 105.035c.527-.068.93-.352.93-1.004 0-.72-.418-1.038-1.267-1.038h-1.363v3.649h.542v-1.581h.624l.948 1.581h.608l-1.022-1.607Zm-1.159-.444v-1.13h.741c.376 0 .779.084.779.536 0 .562-.411.594-.87.594h-.65Zm-211.037-.547c-3.966-2.595-8.501-3.268-17.473-3.268H.13c2.361 2.306 3.116 3.557 3.116 6.823v29.795c0 7.303-.094 8.651-2.548 10.764h13.788c-2.457-1.154-3.873-2.979-3.873-7.303v-34.408c3.022-.577 4.912-.865 7.745-.865 8.5 0 14.355 2.787 14.355 11.148 0 6.729-5.76 12.014-12.845 12.014-2.267 0-3.873-.479-6.895-1.537l.378 1.921c.378 1.538 5.667 2.789 9.16 2.789 9.729 0 18.04-5.094 18.04-15.475.003-4.804-2.453-9.706-6.515-12.398Zm40.707 4.042v24.412c0 5.863-2.645 11.63-11.144 11.63-8.406 0-11.145-5.575-11.145-11.63v-24.412c0-3.749.567-5.094 2.645-7.209H42.253c1.795 1.537 2.833 3.268 2.833 6.727v25.279c0 12.013 6.517 17.011 18.984 17.011 11.994 0 18.039-5.958 18.039-17.011v-25.279c0-3.459.944-5.19 2.833-6.727H72.098c2.076 2.115 2.644 3.46 2.644 7.209Zm23.125 33.923V106.64c0-3.076.755-4.134 3.022-5.767H87.667c2.457 2.595 2.74 3.941 2.74 10.38v29.121c0 3.75-.472 5.863-2.74 7.786h29.466l3.778-9.419c-4.251 2.691-8.217 4.228-14.544 4.228-2.834 0-5.194-.288-8.5-.96Zm57.806-6.918c0-13.168-25.687-14.128-25.687-23.452 0-3.844 3.872-6.631 9.445-6.631 4.534 0 7.555 1.441 11.901 4.421v-7.785c-4.724-1.058-7.653-1.538-11.429-1.538-10.2 0-17.85 4.71-17.85 12.686 0 14.61 25.5 13.552 25.5 24.412 0 4.422-4.816 6.824-10.01 6.824-5.572 0-9.541-1.826-14.639-5.574l1.795 9.612c3.588 1.057 6.327 1.537 10.293 1.537 11.992 0 20.681-5.575 20.681-14.512Zm73.068-8.845c7.46-1.921 12.658-6.727 12.658-13.936 0-8.266-7.084-11.533-15.68-11.533h-20.401c2.174 1.729 3.213 3.46 3.213 7.017v34.697c0 2.593-1.039 4.228-2.36 5.669h13.788c-3.588-2.98-3.871-3.75-3.871-11.053v-30.948c2.55-.672 3.776-.96 6.422-.96 6.328 0 10.955 3.171 10.955 9.226 0 6.343-5.855 9.804-13.319 11.051 12.846 21.818 17.567 22.78 22.856 22.78.662 0 3.022 0 4.91-.096-7.742-6.151-12.087-11.149-19.171-21.914Z"/><path d="M189.399 148.16h14.641c-3.779-2.403-4.251-3.268-6.518-8.842l-15.866-38.541H170.51c1.322 1.441 1.891 2.113 1.891 3.171 0 .481-.096 1.059-.569 2.307l-13.41 33.063c-2.36 5.862-4.155 7.303-6.422 8.842h13.034c-1.795-.961-2.457-1.729-2.457-3.364 0-.768.19-1.923 1.038-4.036l4.062-10.38h18.417l4.724 11.63c.755 1.827.945 2.594.945 3.362 0 1.153-.662 1.922-2.364 2.788Zm-20.02-22.394 7.367-18.838 7.554 18.838h-14.921Z"/></g><defs><clipPath id="a"><path fill="#fff" d="M0 100h249v50H0z"/></clipPath></defs></svg>