<svg xmlns="http://www.w3.org/2000/svg" width="81" height="66"><path fill="#37373C" fill-rule="evenodd" d="M31.845 36.349c-1.093-1.788-2.444-3.46-4.046-5.018a155.091 155.091 0 0 0-5.225-4.832 142.348 142.348 0 0 1-2.428-2.22c-.725-.678-1.319-1.38-1.78-2.105-.183-.284-.33-.885-1.099-.885H6.41a.757.757 0 0 0-.75.783c.01.44.035.863.081 1.259.216 1.835.763 3.515 1.643 5.04.877 1.528 2.064 3.039 3.56 4.533a342.093 342.093 0 0 0 5.341 5.203 317.703 317.703 0 0 1 3.122 3.075c.878.878 1.572 1.734 2.08 2.566a7.31 7.31 0 0 1 .995 2.567c.154.879.123 1.873-.093 2.983-.308 1.696-1.056 3.036-2.242 4.023-1.188.987-2.506 1.48-3.954 1.48a5.49 5.49 0 0 1-1.804-.301 3.605 3.605 0 0 1-1.526-1.016c-.432-.48-.74-1.103-.925-1.874-.185-.771-.17-1.741.046-2.913l.37-2.081c.122-.71.108-1.203-.046-1.48-.154-.278-.555-.417-1.202-.417H2.688c-.678 0-1.14.17-1.387.509-.247.34-.447.91-.602 1.71L.283 49.39c-.37 2.189-.378 4.278-.022 6.266.353 1.99 1.101 3.754 2.242 5.296 1.141 1.54 2.682 2.767 4.625 3.675 1.942.909 4.3 1.366 7.075 1.366 2.56 0 4.964-.432 7.214-1.295 2.25-.864 4.24-2.027 5.966-3.493a20.217 20.217 0 0 0 4.324-5.11 17.834 17.834 0 0 0 2.29-6.15c.491-2.93.53-5.481.115-7.653-.417-2.174-1.173-4.155-2.267-5.943m6.96-26.429c-.461-2.082-1.294-3.854-2.496-5.319-1.203-1.463-2.745-2.597-4.625-3.399C29.804.401 27.66 0 25.256 0c-1.634 0-3.445.301-5.434.901-1.988.603-3.915 1.566-5.78 2.891-1.866 1.326-3.523 3.045-4.972 5.156-.186.273-.363.555-.531.845-.336.579.097 1.306.766 1.306H23.53v.008c.795.01 1.467.157 2.003.455.555.308.994.724 1.317 1.248.325.524.533 1.141.625 1.85a7.15 7.15 0 0 1-.092 2.266l-.417 2.59c-.123.647-.131 1.102-.023 1.363.109.264.455.394 1.04.394h8.279c.739 0 1.24-.13 1.502-.394.262-.261.47-.716.625-1.363l.462-2.636c.432-2.56.416-4.88-.046-6.96m3.87 39.54a1.31 1.31 0 0 0-1.291 1.085l-2.23 12.671c-.185 1.172.246 1.757 1.294 1.757h9.249c.525 0 .925-.154 1.203-.462.277-.309.478-.74.6-1.295l2.145-12.165a1.355 1.355 0 0 0-1.335-1.591h-9.634ZM79.4.908H51.744c-.525 0-.948.163-1.27.485-.326.326-.55.764-.672 1.32l-6.009 34.013a1.165 1.165 0 0 0 1.147 1.368l10.966-.004h13.458c.431 0 .801-.139 1.11-.416.308-.278.508-.679.601-1.203l1.387-7.862c.093-.616.024-1.04-.209-1.27-.229-.233-.546-.348-.947-.348H57.85l2.636-14.845H77.41c.37 0 .694-.138.971-.417.278-.277.463-.709.556-1.294l1.387-7.862C80.51 1.464 80.201.908 79.4.908"/></svg>