<svg width="51" height="37" viewBox="0 0 51 37" fill="none" xmlns="http://www.w3.org/2000/svg">
<path d="M1.72517 25.579C1.72517 25.579 15.8021 35.398 16.658 35.8875C17.4843 36.377 18.6943 36.4922 19.7567 36.0891C20.8191 35.6859 21.6159 34.7645 21.852 33.8431C22.1177 32.9216 25.3343 16.3359 25.3343 16.3359C25.3639 16.1056 25.4524 15.4433 25.0983 14.8098C24.5965 13.9459 23.4751 13.4853 22.4717 13.7732C21.675 14.0035 21.2617 14.5794 21.1437 14.781C20.9666 15.0978 20.6421 15.6161 20.0518 16.0768C19.6091 16.4223 19.1665 16.6238 18.9598 16.7102C17.1597 17.4301 15.1529 16.8254 14.002 15.3857C13.2936 14.4931 12.0247 14.1475 10.9032 14.5794C9.78183 15.0113 9.13253 16.1343 9.22113 17.2573C9.42765 19.0427 8.39477 20.8279 6.56506 21.5478C5.59118 21.9221 4.55827 21.9221 3.64341 21.6341C3.43684 21.5765 2.69905 21.4038 1.96127 21.8069C1.04641 22.2676 0.57422 23.3619 0.810315 24.3409C0.987386 25.0031 1.51859 25.435 1.72517 25.579Z" fill="#FF9538" fill-opacity="0.87"/>
<path d="M25.4686 4.07113C25.4686 4.07113 30.4855 20.2537 30.8397 21.1176C31.1938 22.0102 32.0791 22.8164 33.1711 23.1332C34.263 23.4499 35.473 23.1908 36.2403 22.615C37.0076 22.039 49.9632 10.8379 49.9632 10.8379C50.1402 10.6939 50.6124 10.2044 50.7304 9.48454C50.8779 8.50552 50.2583 7.46891 49.3139 7.09458C48.5466 6.80663 47.8383 7.0082 47.6317 7.09458C47.3071 7.23855 46.7168 7.44012 45.9791 7.46891C45.3888 7.4977 44.9461 7.38253 44.7101 7.32493C42.8509 6.80663 41.6113 5.13653 41.6113 3.32247C41.5819 2.19948 40.8146 1.16287 39.6636 0.846125C38.4832 0.529384 37.2732 1.01889 36.6535 1.96911C35.6795 3.52404 33.7614 4.30149 31.8726 3.78319C30.8692 3.49524 30.0428 2.89055 29.5117 2.11309C29.3641 1.94032 28.8919 1.36443 28.0656 1.22046C27.0622 1.04769 25.9702 1.62359 25.5571 2.51622C25.2325 3.20729 25.4095 3.84078 25.4686 4.07113Z" fill="#FF9538" fill-opacity="0.87"/>
</svg>
