<?xml version="1.0" standalone="no"?>
<!DOCTYPE svg PUBLIC "-//W3C//DTD SVG 20010904//EN"
 "http://www.w3.org/TR/2001/REC-SVG-20010904/DTD/svg10.dtd">
<svg version="1.0" xmlns="http://www.w3.org/2000/svg"
 width="225.000000pt" height="225.000000pt" viewBox="0 0 225.000000 225.000000"
 preserveAspectRatio="xMidYMid meet">

<g transform="translate(0.000000,225.000000) scale(0.100000,-0.100000)"
fill="#000000" stroke="none">
<path d="M870 2141 c-169 -37 -305 -98 -428 -191 -189 -142 -317 -333 -379
-568 -23 -84 -26 -118 -27 -257 0 -133 4 -175 22 -248 90 -359 345 -630 697
-740 124 -39 228 -50 394 -44 190 7 295 34 456 115 282 142 475 400 540 721
26 128 17 365 -19 485 -56 185 -130 312 -260 442 -135 135 -286 221 -474 271
-134 36 -393 42 -522 14z m177 -667 c81 -48 223 -130 315 -183 217 -125 221
-129 220 -170 0 -19 -7 -40 -14 -47 -30 -29 -675 -394 -695 -394 -13 0 -32 9
-43 20 -19 19 -20 34 -21 388 -1 202 -1 383 0 402 3 40 31 70 66 70 13 0 90
-39 172 -86z"/>
</g>
</svg>
