<?xml version="1.0" encoding="UTF-8" standalone="no"?>
<!-- Created with Inkscape (http://www.inkscape.org/) -->

<svg
   xmlns:dc="http://purl.org/dc/elements/1.1/"
   xmlns:cc="http://creativecommons.org/ns#"
   xmlns:rdf="http://www.w3.org/1999/02/22-rdf-syntax-ns#"
   xmlns:svg="http://www.w3.org/2000/svg"
   xmlns="http://www.w3.org/2000/svg"
   xmlns:sodipodi="http://sodipodi.sourceforge.net/DTD/sodipodi-0.dtd"
   xmlns:inkscape="http://www.inkscape.org/namespaces/inkscape"
   width="190.80232mm"
   height="190.80284mm"
   viewBox="0 0 190.80232 190.80284"
   version="1.1"
   id="svg948"
   inkscape:version="0.92.2 2405546, 2018-03-11"
   sodipodi:docname="scan3.svg">
  <defs
     id="defs942" />
  <sodipodi:namedview
     id="base"
     pagecolor="#ffffff"
     bordercolor="#666666"
     borderopacity="1.0"
     inkscape:pageopacity="0.0"
     inkscape:pageshadow="2"
     inkscape:zoom="0.49497475"
     inkscape:cx="31.878063"
     inkscape:cy="269.85221"
     inkscape:document-units="mm"
     inkscape:current-layer="g1590"
     showgrid="false"
     fit-margin-top="0"
     fit-margin-left="0"
     fit-margin-right="0"
     fit-margin-bottom="0"
     inkscape:window-width="1916"
     inkscape:window-height="1023"
     inkscape:window-x="1920"
     inkscape:window-y="36"
     inkscape:window-maximized="0" />
  <metadata
     id="metadata945">
    <rdf:RDF>
      <cc:Work
         rdf:about="">
        <dc:format>image/svg+xml</dc:format>
        <dc:type
           rdf:resource="http://purl.org/dc/dcmitype/StillImage" />
        <dc:title />
      </cc:Work>
    </rdf:RDF>
  </metadata>
  <g
     inkscape:label="Ebene 1"
     inkscape:groupmode="layer"
     id="layer1"
     transform="translate(-6.6264484,-40.931883)">
    <g
       id="g1590"
       transform="matrix(7.9500992,0,0,7.9500992,-81.038095,43.604759)">
      <path
         style="fill:#3b1c4a;fill-opacity:1;stroke:none;stroke-width:1.00000262"
         d="m 13.026764,-0.33620662 c -1.104549,1.71e-5 -1.999935,0.8954674 -1.999952,2.00001582 V 17.663804 18.975979 21.6639 c 1.7e-5,1.104549 0.895403,1.999935 1.999952,1.999951 h 4.000031 l 3.33e-4,-6.6e-5 h 15.999798 c 1.10455,-1.7e-5 1.999936,-0.895403 1.999952,-1.999951 V 18.310369 17.663804 1.6638092 c -1.6e-5,-1.10454892 -0.895402,-1.99999942 -1.999952,-2.00001582 H 17.026868 16.380301 Z"
         id="path1242-1"
         inkscape:connector-curvature="0"
         sodipodi:nodetypes="ccccccccccccccccc" />
      <g
         id="g2620"
         transform="matrix(0.77027427,0,0,0.77027427,5.2898587,2.6794665)">
        <path
           sodipodi:nodetypes="cccccccccccccccccccccccccccccccc"
           style="fill:#ffffff;fill-opacity:1;stroke:none;stroke-width:1.0000025"
           inkscape:connector-curvature="0"
           d="M 13.026823,1.6638033 V 5.6638117 H 11.026849 V 1.6638033 c 1.7e-5,-1.10454813 0.895426,-1.99995717 1.999974,-1.9999742 h 4.000009 v 1.9999742 h -4.000009 m 20.000044,-1.9999742 c 1.104548,1.633e-5 1.999958,0.8954256 1.999975,1.9999742 V 5.6638117 H 33.026867 V 1.6638033 h -4.000009 v -1.9999742 h 4.000009 M 13.026823,17.663869 v 4.000008 h 4.000009 v 1.999974 h -4.000009 c -1.104548,-1.6e-5 -1.999957,-0.895425 -1.999974,-1.999974 v -4.000039 h 1.999974 m 20.000044,4.000009 v -4.000009 h 1.999975 v 4.000009 c -1.7e-5,1.104548 -0.895427,1.999957 -1.999975,1.999974 h -4.000009 v -1.999974 z"
           id="path1242" />
        <path
           sodipodi:nodetypes="sccccssssssccs"
           inkscape:connector-curvature="0"
           id="rect924"
           d="m 22.606148,7.2534859 c -1.563099,0 -2.600392,0.2555936 -3.366909,0.6163077 V 18.736599 h 2.855357 v -3.246967 c 0.210413,0.06014 0.631648,0.120568 1.142657,0.120568 2.089138,0 3.577199,-1.623336 3.577199,-4.178396 0,-2.8406279 -1.698334,-4.1783193 -4.208304,-4.1783181 z m -0.01479,1.6678363 c 1.037054,0 1.397419,0.8274618 1.397419,2.5258268 0,1.653273 -0.420567,2.494121 -1.442594,2.494121 -0.195382,0 -0.346372,-0.0297 -0.451581,-0.07477 V 8.9965648 c 0.13527,-0.045083 0.28634,-0.075243 0.496756,-0.075243 z"
           style="color:#000000;display:inline;overflow:visible;visibility:visible;opacity:1;fill:#ffffff;fill-opacity:1;fill-rule:nonzero;stroke:none;stroke-width:0.2365018;stroke-linecap:square;stroke-linejoin:miter;stroke-miterlimit:4;stroke-dasharray:none;stroke-dashoffset:0;stroke-opacity:1;marker:none;enable-background:accumulate" />
      </g>
    </g>
    <rect
       id="rect1593"
       height="190.80238"
       width="190.80238"
       x="-81.038094"
       y="43.604759"
       style="fill:none;stroke-width:7.95009899" />
  </g>
</svg>
