<svg xmlns:xlink="http://www.w3.org/1999/xlink" xmlns="http://www.w3.org/2000/svg" viewBox="0 0 116 116" width="250" height="250"><path fill="#f8f8f8" d="M45.16 48.35c-.74 0-1.28.13-1.75.27v17.43c.4.13.94.27 1.61.27 3.63 0 5.18-3.03 5.18-8.95s-1.35-9.02-5.05-9.02Z"></path><path fill="#f8f8f8" d="M114.36 35.5c.74-.07 1.28-.61 1.28-1.35V.71c0-.74-.61-1.35-1.35-1.35H76.93v10.2c0 1.8-1.58 3.38-3.38 3.38s-3.38-1.58-3.38-3.38V-.63H.98C.24-.63-.36-.03-.36.71v33.44c0 .74.54 1.28 1.28 1.35 11.51.67 20.66 10.23 20.66 21.94S12.42 78.63.92 79.23c-.74.07-1.28.61-1.28 1.35v33.44c0 .74.61 1.35 1.35 1.35h69.19v-10.33c0-1.86 1.52-3.38 3.38-3.38s3.38 1.58 3.38 3.38v10.33h37.36c.74 0 1.35-.61 1.35-1.35V80.58c0-.74-.54-1.28-1.28-1.35-11.51-.67-20.66-10.16-20.66-21.87s9.15-21.26 20.66-21.87ZM47.51 72.24c-1.82 0-3.36-.2-4.1-.4v11.64H33.18V44.59c2.76-1.28 6.46-2.22 12.04-2.22 8.95 0 15.07 4.78 15.07 14.94 0 9.15-5.32 14.94-12.78 14.94Zm29.41 12.53c0 1.8-1.58 3.38-3.38 3.38s-3.38-1.58-3.38-3.38V67.33c0-1.93 1.45-3.38 3.38-3.38s3.38 1.52 3.38 3.38v17.44Zm0-37.49c0 1.86-1.52 3.38-3.38 3.38s-3.38-1.52-3.38-3.38V29.84c0-1.86 1.52-3.38 3.38-3.38s3.38 1.58 3.38 3.38v17.44Z"></path></svg>
