<svg xmlns="http://www.w3.org/2000/svg" width="250" height="250" fill="none"><g clip-path="url(#a)"><path fill="#E81F63" d="M34.818 218.422h84.531a21.88 21.88 0 0 0 4.654-13.744c0-15.355-10.663-23.763-38.403-32.539-33.5-10.229-51.008-25.532-54.095-44.041v90.324h2.824l.082-.218.407.218Z"/><path fill="#E81F63" d="M219 31H31.505v84.506C35.307 90.042 61.33 70.14 102.286 70.14c20.903 0 39.246 5.119 50.767 10.967l-9.427 23.402c-8.103-4.389-23.034-10.237-42.236-10.237-22.183 0-34.555 10.967-34.555 24.124 0 14.625 12.372 21.204 39.254 29.98 35.835 11.697 54.216 27.052 54.216 53.374a46.204 46.204 0 0 1-3.05 16.672H219V31Z"/><path fill="#fff" d="M106.089 148.376c-26.882-8.776-39.254-15.355-39.254-29.98 0-13.157 12.372-24.086 34.555-24.086 19.202 0 34.133 5.848 42.236 10.236l9.39-23.401c-11.521-5.886-29.864-11.005-50.73-11.005-40.955 0-66.978 19.902-70.781 45.366v12.592c3.087 18.479 20.594 33.782 54.103 44.011 27.732 8.776 38.402 17.184 38.402 32.539a21.88 21.88 0 0 1-4.661 13.774h37.906a46.205 46.205 0 0 0 3.012-16.672c0-26.322-18.343-41.677-54.178-53.374Z"/></g><defs><clipPath id="a"><path fill="#fff" d="M31 31h188v188H31z"/></clipPath></defs></svg>