<svg id="Ebene_1" data-name="Ebene 1" xmlns="http://www.w3.org/2000/svg" viewBox="0 0 57.3 57.12"><defs><style>.cls-1{fill:#18968d;}</style></defs><path class="cls-1" d="M0,0V57.3H57.3V0ZM26.11,29.37a13.8,13.8,0,0,1-8.19-2.66l2.26-4.24a7.46,7.46,0,0,0,5.49,2.67c2.19,0,3.38-1.07,3.38-2.86s-1.22-2.75-3.41-2.75H22.12v-3L27,11.46H19V7.2H33.51v3.16L28,16.07l1,.16c3.2.5,5.46,2.6,5.46,6C34.51,26.43,31.22,29.37,26.11,29.37Zm17.12,0A13.82,13.82,0,0,1,35,26.71l2.26-4.24a7.46,7.46,0,0,0,5.49,2.67c2.2,0,3.39-1.07,3.39-2.86S45,19.53,42.76,19.53H39.24v-3l4.9-5.09h-8V7.2H50.63v3.16l-5.49,5.71,1,.16c3.2.5,5.45,2.6,5.45,6C51.63,26.43,48.34,29.37,43.23,29.37Z"/></svg>