<svg xmlns="http://www.w3.org/2000/svg" width="250" height="250" fill="none"><g clip-path="url(#a)"><mask id="b" width="193" height="138" x="28" y="32" maskUnits="userSpaceOnUse" style="mask-type:alpha"><path fill="#fff" d="M28 32.388h192.825v137.231H28"/></mask><g mask="url(#b)"><path fill="#129CD8" fill-rule="evenodd" d="M108.241 47.354c6.218-6.587 14.875-10.673 24.451-10.673 12.73 0 23.834 7.215 29.748 17.928a40.559 40.559 0 0 1 16.814-3.633c22.958 0 41.571 19.09 41.571 42.637 0 23.551-18.613 42.641-41.571 42.641-2.803 0-5.54-.288-8.19-.83-5.206 9.442-15.131 15.825-26.523 15.825a29.808 29.808 0 0 1-13.294-3.112c-5.277 12.627-17.579 21.482-31.913 21.482-14.93 0-27.654-9.604-32.537-23.075-2.134.458-4.347.7-6.615.7-17.774 0-32.182-14.802-32.182-33.063 0-12.24 6.47-22.924 16.09-28.642a38.41 38.41 0 0 1-3.08-15.124c0-21 16.77-38.027 37.451-38.027 12.144 0 22.936 5.869 29.78 14.966Z" clip-rule="evenodd"/></g><path fill="#FEFEFE" fill-rule="evenodd" d="M55.927 103.552c-.122.322.043.389.083.444.362.268.728.461 1.1.677 1.966 1.06 3.825 1.368 5.766 1.368 3.956 0 6.413-2.138 6.413-5.581v-.066c0-3.185-2.774-4.343-5.373-5.178l-.34-.11c-1.961-.648-3.653-1.207-3.653-2.521v-.067c0-1.123.99-1.95 2.522-1.95 1.704 0 3.724.576 5.025 1.308 0 0 .385.25.524-.127.077-.204.734-2.005.805-2.201.074-.21-.056-.369-.193-.453-1.487-.919-3.542-1.547-5.667-1.547l-.394.003c-3.622 0-6.15 2.224-6.15 5.411v.066c0 3.357 2.788 4.45 5.402 5.207l.42.133c1.904.593 3.544 1.107 3.544 2.466v.07c0 1.244-1.068 2.172-2.786 2.172a9.216 9.216 0 0 1-5.095-1.489c-.278-.168-.437-.286-.652-.418-.113-.072-.397-.196-.521.181l-.78 2.202Zm57.905 0c-.122.322.043.389.083.444.362.268.728.461 1.099.677 1.967 1.06 3.826 1.368 5.767 1.368 3.956 0 6.413-2.138 6.413-5.581v-.066c0-3.185-2.774-4.343-5.373-5.178l-.34-.11c-1.961-.648-3.653-1.207-3.653-2.521v-.067c0-1.123.989-1.95 2.522-1.95 1.704 0 3.724.576 5.025 1.308 0 0 .385.25.524-.127.077-.204.734-2.005.805-2.201.074-.21-.056-.369-.193-.453-1.487-.919-3.539-1.547-5.667-1.547l-.394.003c-3.622 0-6.15 2.224-6.15 5.411v.066c0 3.357 2.792 4.45 5.402 5.207l.419.133c1.905.593 3.548 1.107 3.548 2.466v.07c0 1.244-1.068 2.172-2.789 2.172a9.219 9.219 0 0 1-5.095-1.489c-.278-.168-.442-.28-.652-.418-.071-.046-.405-.179-.518.181l-.783 2.202Zm39.531-6.746c0 1.945-.358 3.481-1.06 4.564-.697 1.072-1.749 1.597-3.214 1.597-1.468 0-2.514-.525-3.199-1.597-.695-1.083-1.046-2.619-1.046-4.564 0-1.942.351-3.475 1.042-4.547.689-1.06 1.735-1.576 3.203-1.576 1.465 0 2.517.516 3.214 1.576.702 1.072 1.06 2.605 1.06 4.547Zm3.301-3.608c-.323-1.115-.83-2.097-1.502-2.915a7.232 7.232 0 0 0-2.536-1.96c-1.009-.478-2.2-.723-3.537-.723-1.341 0-2.534.245-3.542.723a7.227 7.227 0 0 0-2.534 1.962c-.675.819-1.179 1.802-1.502 2.913a12.917 12.917 0 0 0-.488 3.608c0 1.285.165 2.501.488 3.608.323 1.112.827 2.095 1.502 2.916a7.09 7.09 0 0 0 2.537 1.945c1.008.467 2.198.703 3.539.703 1.337 0 2.525-.236 3.537-.703a7.113 7.113 0 0 0 2.536-1.945c.672-.818 1.179-1.801 1.502-2.916.323-1.11.488-2.323.488-3.608 0-1.285-.165-2.498-.488-3.608Zm27.113 9.247c-.107-.326-.422-.202-.422-.202a7.371 7.371 0 0 1-1.536.444c-.55.089-1.156.132-1.808.132-1.596 0-2.868-.484-3.778-1.437-.909-.957-1.422-2.502-1.417-4.59.006-1.9.457-3.329 1.267-4.42.805-1.084 2.032-1.64 3.665-1.64 1.36 0 2.4.161 3.488.507 0 0 .261.115.383-.23.292-.82.504-1.398.813-2.294.088-.257-.127-.364-.207-.395-.428-.17-1.436-.45-2.202-.568a16.54 16.54 0 0 0-2.477-.167c-1.385 0-2.621.242-3.678.72a7.616 7.616 0 0 0-2.661 1.957c-.709.821-1.247 1.804-1.604 2.916-.36 1.11-.539 2.325-.539 3.616 0 2.784.737 5.034 2.196 6.68 1.463 1.656 3.657 2.495 6.519 2.495 1.692 0 3.426-.349 4.676-.848 0 0 .238-.117.133-.4l-.811-2.276Zm5.777-7.504c.159-1.08.451-1.98.905-2.68.682-1.063 1.725-1.65 3.194-1.65 1.467 0 2.434.587 3.131 1.65.462.703.663 1.637.742 2.683l-7.972-.003Zm11.115-2.374c-.28-1.078-.975-2.164-1.428-2.66-.72-.79-1.426-1.34-2.123-1.645a8.015 8.015 0 0 0-3.202-.66c-1.394 0-2.661.24-3.69.729a7.346 7.346 0 0 0-2.573 1.997c-.678.833-1.188 1.824-1.513 2.95-.327 1.119-.491 2.338-.491 3.625 0 1.311.17 2.533.507 3.628a7.567 7.567 0 0 0 1.619 2.891c.736.812 1.68 1.446 2.811 1.892 1.125.441 2.491.672 4.058.666 3.228-.009 4.928-.74 5.628-1.135.125-.072.241-.193.097-.544l-.734-2.081c-.111-.309-.42-.196-.42-.196-.801.302-1.935.844-4.588.838-1.734-.002-3.018-.521-3.823-1.337-.825-.829-1.233-2.051-1.301-3.777l11.175.008s.295-.003.326-.296c.011-.121.382-2.334-.335-4.893Zm-100.624 2.374c.158-1.08.45-1.98.901-2.68.689-1.063 1.729-1.65 3.197-1.65 1.467 0 2.437.587 3.134 1.65.459.703.66 1.637.739 2.683l-7.971-.003Zm11.114-2.374c-.28-1.078-.974-2.164-1.428-2.66-.72-.79-1.423-1.34-2.122-1.645a8.031 8.031 0 0 0-3.2-.66c-1.397 0-2.664.24-3.693.729a7.352 7.352 0 0 0-2.573 1.997c-.677.833-1.188 1.824-1.513 2.95-.326 1.119-.49 2.338-.49 3.625 0 1.311.17 2.533.507 3.628a7.559 7.559 0 0 0 1.618 2.891c.737.812 1.68 1.446 2.811 1.892 1.125.441 2.491.672 4.058.666 3.228-.009 4.929-.74 5.629-1.135.124-.072.241-.193.096-.544l-.734-2.081c-.11-.309-.42-.196-.42-.196-.801.302-1.935.844-4.588.838-1.731-.002-3.018-.521-3.823-1.337-.824-.829-1.233-2.051-1.3-3.777l11.174.008s.295-.003.326-.296c.011-.121.382-2.334-.335-4.893Zm-35.272 9.815c-.44-.354-.499-.444-.644-.674-.223-.349-.337-.845-.337-1.478 0-.997.326-1.718.998-2.199-.006 0 .964-.853 3.242-.821 1.6.02 3.035.262 3.035.262v5.167s-1.42.308-3.018.406c-2.273.141-3.285-.666-3.276-.663Zm4.447-7.984a23.757 23.757 0 0 0-1.744-.052c-.958 0-1.884.12-2.754.36a7.173 7.173 0 0 0-2.333 1.098 5.455 5.455 0 0 0-1.62 1.876c-.397.749-.599 1.63-.599 2.616 0 1.008.17 1.882.513 2.596.34.718.83 1.317 1.457 1.778.62.461 1.389.798 2.276 1.003.878.205 1.873.308 2.961.308 1.148 0 2.287-.098 3.395-.288 1.097-.19 2.44-.467 2.815-.556.37-.086.782-.202.782-.202.277-.072.254-.372.254-.372l-.005-10.39c0-2.282-.598-3.97-1.774-5.02-1.173-1.043-2.902-1.57-5.135-1.57-.839 0-2.185.115-2.996.28 0 0-2.44.48-3.443 1.282 0 0-.221.138-.102.452l.79 2.161c.1.28.369.184.369.184s.085-.034.184-.095c2.148-1.187 4.869-1.152 4.869-1.152 1.207 0 2.137.25 2.763.735.61.478.919 1.193.919 2.708v.482c-.959-.142-1.843-.222-1.843-.222Zm90.144-5.856a.31.31 0 0 0-.167-.409c-.19-.072-1.142-.277-1.873-.326-1.406-.086-2.185.153-2.882.473-.694.317-1.462.833-1.888 1.418l-.002-1.386c0-.19-.134-.343-.321-.343h-2.865c-.187 0-.32.152-.32.343v16.952c0 .19.15.342.34.342h2.936a.338.338 0 0 0 .337-.342v-8.47c0-1.137.125-2.27.372-2.981.241-.707.569-1.269.977-1.672a3.38 3.38 0 0 1 1.383-.844 5.314 5.314 0 0 1 1.496-.216c.587 0 1.228.156 1.228.156.218.022.337-.113.41-.31.19-.518.737-2.076.839-2.385Z" clip-rule="evenodd"/><path fill="#FEFEFE" fill-rule="evenodd" d="M142.917 80.686a8.76 8.76 0 0 0-1.106-.265 8.39 8.39 0 0 0-1.519-.12c-2.02 0-3.613.581-4.732 1.728-1.111 1.138-1.868 2.873-2.247 5.152l-.137.77h-2.536s-.312-.012-.374.331l-.417 2.363c-.031.225.066.366.363.366h2.471l-2.508 14.223c-.195 1.144-.419 2.086-.669 2.801-.244.706-.484 1.233-.779 1.616-.286.369-.556.645-1.023.804-.385.13-.83.191-1.315.191a4.95 4.95 0 0 1-.896-.102c-.266-.051-.405-.112-.603-.196 0 0-.289-.112-.405.182-.091.242-.748 2.083-.828 2.311-.079.225.031.4.173.452.329.119.572.196 1.02.303.624.15 1.148.158 1.638.158 1.029 0 1.967-.146 2.743-.432.783-.288 1.463-.789 2.066-1.463.65-.732 1.06-1.499 1.451-2.545.389-1.034.718-2.32.984-3.818l2.516-14.485h3.682s.311.011.374-.332l.416-2.362c.029-.225-.065-.366-.362-.366h-3.574c.017-.08.179-1.36.589-2.562.176-.516.505-.928.785-1.213.273-.28.59-.478.936-.594a3.874 3.874 0 0 1 1.198-.173c.338 0 .666.04.919.093.345.075.481.115.572.14.363.116.411.006.485-.172l.853-2.386c.088-.257-.125-.366-.204-.398Zm-49.931 24.577c0 .191-.133.346-.32.346H89.7c-.186 0-.32-.155-.32-.346V81.01c0-.19.133-.343.32-.343h2.965c.187 0 .32.153.32.343v24.253Z" clip-rule="evenodd"/></g><g fill="#7D888E" clip-path="url(#c)"><path d="M47.248 185.352c-.321.319-.659.62-1.011.904v-4.788h-4.26v37.27h4.272v-13.666c6.149 7.092 13.237 6.38 17.822 3.51 5.62-3.486 8.028-11 6.018-17.935-3.116-10.216-15.886-13.726-22.841-5.295Zm7.81 21.143c-5.62 0-9.062-4.824-9.11-10.855-.048-6.03 4.621-11.013 10.217-11.061 5.596-.048 10.024 4.692 10.024 11.037-.052 6.048-4.987 10.908-11.022 10.856h-.121l.012.023Zm144.135-33.711v8.443h8.965v3.859h-8.737c-.06.929-.156 1.604-.156 2.413 0 4.438.168 8.889 0 13.267-.265 5.223 2.407 6.333 7.22 5.368.408-.112.81-.245 1.203-.398 1 3.268.373 4.257-2.876 4.667-6.775.808-10.025-2.063-10.036-8.925v-16.211l-3.851-.181v-3.618l3.826-.241v-8.443h4.442Zm-88.368 37.1h-4.309v-28.416h4.225v6.562c2.972-4.499 6.269-7.37 11.54-7.153v4.427c-8.544 1.604-11.468 5.234-11.468 14.112.012 3.388.012 6.838.012 10.468Zm37.895-40.248v16.524c-7.508-6.742-14.297-7.237-20.049-1.894-5.752 5.344-6.258 14.957-1.395 21.217a12.937 12.937 0 0 0 7.882 4.824c5.451 1.098 9.724-1.037 13.539-5.777v5.271h4.127v-40.177h-4.104v.012Zm-10.337 37.041c-5.62-.133-9.976-5.115-9.855-11.302.12-6.188 4.32-10.855 10.024-10.783 5.705.072 10.289 4.981 10.205 11.253-.048 5.97-4.826 10.952-10.362 10.832h-.012Zm-39.316-16.766c-.253-4.354-2.924-7.237-7.088-8.359a21.49 21.49 0 0 0-15.235 1.773l1.203 3.534c5.043-1.881 7.714-2.255 11.011-1.845 3.707.47 6.992 4.016 5.729 8.226l-1.3-.277c-4.814-.905-9.567-1.436-14.153.687-4.326 1.838-6.346 6.843-4.512 11.18a8.522 8.522 0 0 0 3.092 3.752 12.44 12.44 0 0 0 8.136 2.038 13.728 13.728 0 0 0 9.037-4.378l.205 3.619H99.2c0-.639.156-1.207.144-1.665-.036-6.115.084-12.254-.277-18.285Zm-8.22 15.969c-3.525 1.701-7.123 1.953-10.433-.506a5.123 5.123 0 0 1 .409-8.226 17.742 17.742 0 0 1 12.828-.809c.718.33 1.239.978 1.409 1.75a6.987 6.987 0 0 1-4.2 7.755l-.012.036Zm82.869-25.28c-8.306-.139-15.153 6.498-15.291 14.823-.138 8.326 6.483 15.188 14.791 15.327 8.3.138 15.143-6.489 15.29-14.808v-.097c.155-8.245-6.389-15.055-14.617-15.209h-.016l-.157-.036Zm0 26.161c-5.861 0-10.506-4.957-10.482-11.253.024-6.297 4.489-10.988 10.434-10.941 5.945.049 10.434 4.922 10.434 11.085 0 6.164-4.561 11.085-10.398 11.109h.012Z"/></g><defs><clipPath id="a"><path fill="#fff" d="M28 32h194v137.619H28z"/></clipPath><clipPath id="c"><path fill="#fff" d="M41.742 169.619h166.517V219H41.742z"/></clipPath></defs></svg>