<svg xmlns="http://www.w3.org/2000/svg" width="250" height="250" fill="none"><g clip-path="url(#a)"><path fill="#253B80" d="m87.193 221.895 3.59-22.884-7.997-.186H44.602l26.536-168.86c.079-.516.34-.986.736-1.325.395-.339.9-.524 1.42-.521h64.384c21.374 0 36.125 4.464 43.827 13.274 3.61 4.133 5.91 8.453 7.021 13.206 1.167 4.987 1.188 10.946.049 18.213l-.083.53V78l3.611 2.053a25.35 25.35 0 0 1 7.31 5.593c3.089 3.534 5.086 8.026 5.93 13.35.872 5.477.584 11.994-.844 19.371-1.647 8.487-4.311 15.878-7.907 21.927a45.065 45.065 0 0 1-12.527 13.777c-4.777 3.403-10.454 5.986-16.872 7.639-6.219 1.626-13.309 2.446-21.086 2.446h-5.011a15.163 15.163 0 0 0-9.795 3.616 15.237 15.237 0 0 0-5.107 9.148l-.377 2.06-6.343 40.332-.288 1.481c-.075.469-.206.703-.398.861a1.064 1.064 0 0 1-.659.242H87.193Z"/><path fill="#179BD7" d="M195.522 73.88a113.104 113.104 0 0 1-.659 3.788c-8.491 43.75-37.539 58.863-74.639 58.863h-18.89c-4.537 0-8.36 3.307-9.068 7.798l-9.671 61.556-2.739 17.449a4.866 4.866 0 0 0 1.098 3.907 4.823 4.823 0 0 0 3.673 1.7h33.503c3.967 0 7.338-2.893 7.962-6.819l.33-1.709 6.308-40.174.405-2.204c.618-3.94 3.995-6.834 7.962-6.834h5.011c32.46 0 57.87-13.226 65.297-51.499 3.103-15.988 1.497-29.338-6.713-38.727a32.047 32.047 0 0 0-9.17-7.096Z"/><path fill="#222D65" d="M186.639 70.325a66.774 66.774 0 0 0-8.257-1.839 104.554 104.554 0 0 0-16.652-1.22h-50.465a8.028 8.028 0 0 0-5.237 1.94 8.081 8.081 0 0 0-2.718 4.894l-10.736 68.238-.308 1.991a9.215 9.215 0 0 1 3.095-5.583 9.153 9.153 0 0 1 5.972-2.215h18.89c37.1 0 66.148-15.12 74.639-58.863.254-1.295.467-2.555.659-3.788a45.108 45.108 0 0 0-6.981-2.955c-.63-.21-1.264-.41-1.901-.6Z"/><path fill="#253B80" d="M103.31 74.1a8.067 8.067 0 0 1 2.716-4.895 8.008 8.008 0 0 1 5.24-1.932h50.464c5.979 0 11.559.393 16.652 1.22a66.762 66.762 0 0 1 10.166 2.431 45.897 45.897 0 0 1 6.981 2.955c2.526-16.167-.021-27.175-8.731-37.143-9.603-10.973-26.935-15.671-49.113-15.671H73.301a9.212 9.212 0 0 0-9.095 7.804L37.388 199.465a5.573 5.573 0 0 0 1.256 4.471 5.52 5.52 0 0 0 4.202 1.949h39.749l9.98-63.547L103.31 74.1Z"/></g><defs><clipPath id="a"><path fill="#fff" d="M37 21h176v208H37z"/></clipPath></defs></svg>