<svg version="1.1" id="Layer_1" xmlns="http://www.w3.org/2000/svg" xmlns:xlink="http://www.w3.org/1999/xlink" x="0px" y="0px"
	 width="100%" viewBox="0 0 1600 1600" enable-background="new 0 0 1600 1600" xml:space="preserve">
<path fill="#FFFFFF" opacity="1.000000" stroke="none" 
	d="
M845.000000,1601.000000 
	C563.333374,1601.000000 282.166779,1601.000000 1.000113,1601.000000 
	C1.000075,1067.666870 1.000075,534.333618 1.000038,1.000328 
	C534.333069,1.000219 1067.666138,1.000219 1600.999512,1.000109 
	C1600.999634,534.333008 1600.999634,1067.666016 1600.999756,1600.999512 
	C1349.166626,1601.000000 1097.333374,1601.000000 845.000000,1601.000000 
M1334.894653,1400.972778 
	C1345.060547,1400.981812 1355.236816,1400.701660 1365.390015,1401.066284 
	C1381.512939,1401.645264 1397.144409,1399.290894 1412.275391,1393.876953 
	C1429.722534,1387.634521 1445.312866,1378.227051 1458.931885,1365.590698 
	C1468.533691,1356.681763 1476.643555,1346.566040 1483.173584,1335.255249 
	C1493.786621,1316.872070 1500.887573,1297.167847 1500.897827,1275.808105 
	C1501.046631,963.149048 1500.955811,650.489990 1501.117798,337.831024 
	C1501.126831,320.373383 1499.126099,303.484863 1492.940186,287.180939 
	C1486.844727,271.115906 1478.001587,256.679993 1466.440186,243.947571 
	C1453.539062,229.739578 1438.103882,218.948334 1420.585693,211.353302 
	C1406.438354,205.219666 1391.594116,201.051758 1376.031738,201.049179 
	C995.207703,200.986252 614.383728,201.024475 233.559738,200.909927 
	C218.430801,200.905365 203.835480,203.120224 189.683960,208.148254 
	C172.222397,214.352325 156.653366,223.806580 143.032227,236.441147 
	C133.427444,245.350266 125.316612,255.471786 118.801559,266.784119 
	C108.212639,285.169922 101.103867,304.864136 101.094467,326.239838 
	C100.957024,638.898865 101.043747,951.557861 100.883713,1264.216919 
	C100.874779,1281.673218 102.876305,1298.569092 109.072105,1314.864014 
	C115.176796,1330.919189 123.993736,1345.382812 135.599380,1358.081177 
	C144.652863,1367.987183 154.993347,1376.347168 166.605331,1383.074463 
	C184.985992,1393.723022 204.672180,1400.874146 226.016373,1400.887207 
	C504.176117,1401.057129 782.335999,1401.000366 1060.495850,1400.992920 
	C1062.658813,1400.992920 1064.821899,1400.888184 1067.908325,1400.974487 
	C1155.598145,1400.982666 1243.287964,1400.991211 1330.977783,1400.991943 
	C1331.972412,1400.991943 1332.967163,1400.888306 1334.894653,1400.972778 
z"/>
<path fill="#FFC107" opacity="1.000000" stroke="none" 
	d="
M1066.984863,1400.832275 
	C1064.821899,1400.888184 1062.658813,1400.992920 1060.495850,1400.992920 
	C782.335999,1401.000366 504.176117,1401.057129 226.016373,1400.887207 
	C204.672180,1400.874146 184.985992,1393.723022 166.605331,1383.074463 
	C154.993347,1376.347168 144.652863,1367.987183 135.599380,1358.081177 
	C123.993736,1345.382812 115.176796,1330.919189 109.072105,1314.864014 
	C102.876305,1298.569092 100.874779,1281.673218 100.883713,1264.216919 
	C101.043747,951.557861 100.957024,638.898865 101.094467,326.239838 
	C101.103867,304.864136 108.212639,285.169922 118.801559,266.784119 
	C125.316612,255.471786 133.427444,245.350266 143.032227,236.441147 
	C156.653366,223.806580 172.222397,214.352325 189.683960,208.148254 
	C203.835480,203.120224 218.430801,200.905365 233.559738,200.909927 
	C614.383728,201.024475 995.207703,200.986252 1376.031738,201.049179 
	C1391.594116,201.051758 1406.438354,205.219666 1420.585693,211.353302 
	C1438.103882,218.948334 1453.539062,229.739578 1466.440186,243.947571 
	C1478.001587,256.679993 1486.844727,271.115906 1492.940186,287.180939 
	C1499.126099,303.484863 1501.126831,320.373383 1501.117798,337.831024 
	C1500.955811,650.489990 1501.046631,963.149048 1500.897827,1275.808105 
	C1500.887573,1297.167847 1493.786621,1316.872070 1483.173584,1335.255249 
	C1476.643555,1346.566040 1468.533691,1356.681763 1458.931885,1365.590698 
	C1445.312866,1378.227051 1429.722534,1387.634521 1412.275391,1393.876953 
	C1397.144409,1399.290894 1381.512939,1401.645264 1365.390015,1401.066284 
	C1355.236816,1400.701660 1345.060547,1400.981812 1334.284180,1400.619385 
	C1291.094116,1357.655762 1248.512085,1315.047852 1205.945435,1272.424561 
	C1204.547363,1271.024536 1203.308105,1269.465942 1202.459229,1267.907227 
	C1257.694214,1267.833008 1312.464478,1267.833008 1367.796265,1267.833008 
	C1367.796265,1265.084351 1367.796265,1262.965576 1367.796265,1260.846802 
	C1367.796265,976.390198 1367.796509,691.933594 1367.789551,407.476990 
	C1367.789551,405.313171 1367.690186,403.149353 1367.754395,400.530823 
	C1367.892212,380.243683 1367.916260,360.411194 1367.931396,340.578735 
	C1367.936401,334.072754 1367.926025,334.067535 1361.311646,334.067535 
	C987.483398,334.066681 613.655151,334.066803 239.826935,334.066803 
	C238.048737,334.066803 236.270538,334.066803 234.362656,334.066803 
	C234.362656,356.751617 234.362656,378.868439 234.306168,401.450867 
	C234.236038,402.416046 234.210464,402.915619 234.210449,403.415222 
	C234.207123,689.878357 234.205017,976.341431 234.215515,1262.804565 
	C234.215576,1264.389404 234.392441,1265.974243 234.500839,1267.796265 
	C236.913483,1267.796265 238.736359,1267.796265 240.559250,1267.796265 
	C469.696411,1267.796265 698.833618,1267.796997 927.970764,1267.784668 
	C930.130005,1267.784546 932.289185,1267.610229 934.595215,1267.520996 
	C934.741943,1267.525024 934.954529,1267.727417 935.064331,1268.058105 
	C936.418274,1269.727905 937.621033,1271.108032 938.912354,1272.399780 
	C980.367371,1313.869019 1021.832458,1355.328369 1063.285889,1396.799194 
	C1064.574219,1398.088257 1065.754272,1399.485596 1066.984863,1400.832275 
z"/>
<path fill="#FFAB00" opacity="1.000000" stroke="none" 
	d="
M1201.994751,1267.981323 
	C1203.308105,1269.465942 1204.547363,1271.024536 1205.945435,1272.424561 
	C1248.512085,1315.047852 1291.094116,1357.655762 1333.817871,1400.549561 
	C1332.967163,1400.888306 1331.972412,1400.991943 1330.977783,1400.991943 
	C1243.287964,1400.991211 1155.598145,1400.982666 1067.446533,1400.903442 
	C1065.754272,1399.485596 1064.574219,1398.088257 1063.285889,1396.799194 
	C1021.832458,1355.328369 980.367371,1313.869019 938.912354,1272.399780 
	C937.621033,1271.108032 936.418274,1269.727905 935.252258,1267.964355 
	C935.330322,1267.539795 935.750610,1267.527222 936.214172,1267.693604 
	C937.507507,1267.905640 938.337219,1267.991699 939.166992,1267.991699 
	C1025.181396,1267.998657 1111.195801,1268.000610 1197.210205,1267.987305 
	C1198.531494,1267.987061 1199.852783,1267.794922 1201.387451,1267.741211 
	C1201.600952,1267.790161 1201.994751,1267.981323 1201.994751,1267.981323 
z"/>
<path fill="#388E3C" opacity="1.000000" stroke="none" 
	d="
M1202.459229,1267.907227 
	C1201.994751,1267.981323 1201.600952,1267.790161 1201.354370,1267.527344 
	C1201.107788,1267.264404 1200.898560,1266.882446 1200.942627,1266.423096 
	C1200.986694,1244.378540 1200.986694,1222.793457 1200.986694,1201.319092 
	C1111.755859,1201.319092 1023.192322,1201.319092 934.448425,1201.319092 
	C934.448425,1223.597168 934.448425,1245.557129 934.448425,1267.517090 
	C932.289185,1267.610229 930.130005,1267.784546 927.970764,1267.784668 
	C698.833618,1267.796997 469.696411,1267.796265 240.559250,1267.796265 
	C238.736359,1267.796265 236.913483,1267.796265 234.500839,1267.796265 
	C234.392441,1265.974243 234.215576,1264.389404 234.215515,1262.804565 
	C234.205017,976.341431 234.207123,689.878357 234.210449,403.415222 
	C234.210464,402.915619 234.236038,402.416046 234.748871,401.453369 
	C612.711121,400.988678 990.174133,400.987091 1367.637207,400.985535 
	C1367.690186,403.149353 1367.789551,405.313171 1367.789551,407.476990 
	C1367.796509,691.933594 1367.796265,976.390198 1367.796265,1260.846802 
	C1367.796265,1262.965576 1367.796265,1265.084351 1367.796265,1267.833008 
	C1312.464478,1267.833008 1257.694214,1267.833008 1202.459229,1267.907227 
M616.609680,878.867188 
	C595.489502,871.773071 573.544495,869.305176 551.503418,868.186462 
	C527.885864,866.987854 504.278351,867.877625 480.885986,871.970398 
	C450.045044,877.366272 420.997467,887.192200 395.663361,906.246704 
	C381.336578,917.022217 370.478729,930.307068 368.461578,948.697998 
	C367.323517,959.073669 367.949951,969.646179 367.847687,980.130737 
	C367.781586,986.905640 367.835266,993.681763 367.835266,1001.000000 
	C370.378632,1001.000000 372.331329,1001.000000 374.284027,1001.000000 
	C430.238037,1001.000000 486.192047,1001.011292 542.146057,1000.993835 
	C561.794678,1000.987732 581.443298,1000.911011 602.011169,1000.982849 
	C733.979614,1000.988586 865.948059,1000.994568 997.916504,1000.994446 
	C998.913757,1000.994446 999.911072,1000.911011 1001.853027,1000.966431 
	C1079.114502,1000.966431 1156.375854,1000.966431 1233.846436,1000.966431 
	C1233.981689,999.283447 1234.151733,998.152832 1234.151733,997.022278 
	C1234.151855,983.025452 1234.228149,969.027466 1234.078735,955.032043 
	C1233.946411,942.639465 1229.972656,931.429504 1222.306641,921.750671 
	C1210.987671,907.459778 1195.957397,897.876770 1179.820801,890.066406 
	C1150.456909,875.854187 1119.006958,869.901001 1086.716919,868.200623 
	C1062.263550,866.912964 1037.803833,867.742188 1013.649719,872.142578 
	C1003.911316,873.916748 994.401917,876.947388 984.117188,879.214111 
	C982.293396,877.538147 980.391663,875.938782 978.657654,874.174500 
	C958.151245,853.309998 934.723999,836.547241 908.196228,824.203735 
	C889.784302,815.636597 870.684204,809.112976 850.545715,806.004333 
	C840.637939,804.474915 830.722229,802.672974 820.742981,802.021118 
	C810.582336,801.357361 800.336548,802.125488 790.132935,801.962097 
	C772.323914,801.677063 754.907898,804.452332 737.732300,808.714478 
	C694.940674,819.333252 657.889587,840.310120 626.378967,871.130676 
	C623.437744,874.007568 620.269714,876.652527 616.609680,878.867188 
M891.770874,625.769653 
	C871.311218,582.433105 825.473450,559.942017 778.654236,570.294800 
	C728.270325,581.435913 694.124451,631.158264 702.082214,682.767090 
	C710.574890,737.844727 764.750305,776.584473 818.187561,766.110168 
	C847.200623,760.423340 869.790771,745.500916 885.648010,720.637817 
	C897.125732,702.641296 901.677734,682.946533 900.184753,661.515137 
	C899.331299,649.264465 897.062866,637.621399 891.770874,625.769653 
M600.890503,762.835449 
	C600.631531,761.195068 600.348206,759.558105 600.117126,757.913818 
	C595.803040,727.219788 569.462402,702.787354 538.859680,701.100952 
	C499.184082,698.914612 467.248535,729.587646 467.882172,769.272644 
	C468.556824,811.527588 508.845490,842.445129 549.937622,832.487183 
	C580.114441,825.174255 602.728210,796.936096 600.890503,762.835449 
M1125.239746,734.283203 
	C1106.834717,702.533020 1066.377319,691.590820 1034.617920,709.773376 
	C1002.340393,728.252625 991.586426,768.916138 1010.329346,801.614380 
	C1027.892822,832.254883 1069.057861,843.440613 1099.963501,825.970581 
	C1132.501465,807.577759 1143.885742,767.215088 1125.239746,734.283203 
z"/>
<path fill="#2E7D32" opacity="1.000000" stroke="none" 
	d="
M1367.754395,400.530823 
	C990.174133,400.987091 612.711121,400.988678 234.805359,400.987762 
	C234.362656,378.868439 234.362656,356.751617 234.362656,334.066803 
	C236.270538,334.066803 238.048737,334.066803 239.826935,334.066803 
	C613.655151,334.066803 987.483398,334.066681 1361.311646,334.067535 
	C1367.926025,334.067535 1367.936401,334.072754 1367.931396,340.578735 
	C1367.916260,360.411194 1367.892212,380.243683 1367.754395,400.530823 
z"/>
<path fill="#FFFFFF" opacity="1.000000" stroke="none" 
	d="
M934.595215,1267.520996 
	C934.448425,1245.557129 934.448425,1223.597168 934.448425,1201.319092 
	C1023.192322,1201.319092 1111.755859,1201.319092 1200.986694,1201.319092 
	C1200.986694,1222.793457 1200.986694,1244.378540 1200.482300,1266.467285 
	C1114.035522,1266.980713 1028.093140,1266.986450 942.150757,1267.021851 
	C940.017334,1267.022705 937.883972,1267.351440 935.750610,1267.527100 
	C935.750610,1267.527222 935.330322,1267.539795 935.142456,1267.633545 
	C934.954529,1267.727417 934.741943,1267.525024 934.595215,1267.520996 
z"/>
<path fill="#E2CC77" opacity="1.000000" stroke="none" 
	d="
M936.214172,1267.693481 
	C937.883972,1267.351440 940.017334,1267.022705 942.150757,1267.021851 
	C1028.093140,1266.986450 1114.035522,1266.980713 1200.438232,1266.926758 
	C1200.898560,1266.882446 1201.107788,1267.264404 1201.140869,1267.478394 
	C1199.852783,1267.794922 1198.531494,1267.987061 1197.210205,1267.987305 
	C1111.195801,1268.000610 1025.181396,1267.998657 939.166992,1267.991699 
	C938.337219,1267.991699 937.507507,1267.905640 936.214172,1267.693481 
z"/>
<path fill="#FFFFFF" opacity="1.000000" stroke="none" 
	d="
M1000.908325,1000.866516 
	C999.911072,1000.911011 998.913757,1000.994446 997.916504,1000.994446 
	C865.948059,1000.994568 733.979614,1000.988586 601.518188,1000.466064 
	C601.017456,975.139832 600.921082,950.329956 601.034241,925.521057 
	C601.105286,909.928345 605.790405,895.787231 615.168030,883.246216 
	C616.025818,882.099060 616.535583,880.691711 617.207031,879.405151 
	C620.269714,876.652527 623.437744,874.007568 626.378967,871.130676 
	C657.889587,840.310120 694.940674,819.333252 737.732300,808.714478 
	C754.907898,804.452332 772.323914,801.677063 790.132935,801.962097 
	C800.336548,802.125488 810.582336,801.357361 820.742981,802.021118 
	C830.722229,802.672974 840.637939,804.474915 850.545715,806.004333 
	C870.684204,809.112976 889.784302,815.636597 908.196228,824.203735 
	C934.723999,836.547241 958.151245,853.309998 978.657654,874.174500 
	C980.391663,875.938782 982.293396,877.538147 984.453247,879.652588 
	C985.494751,881.196289 986.129395,882.354980 986.916687,883.398499 
	C995.568237,894.866516 1000.565918,907.864319 1000.813904,922.114502 
	C1001.270508,948.357788 1000.921570,974.615051 1000.908325,1000.866516 
z"/>
<path fill="#FFFFFF" opacity="1.000000" stroke="none" 
	d="
M891.913147,626.119873 
	C897.062866,637.621399 899.331299,649.264465 900.184753,661.515137 
	C901.677734,682.946533 897.125732,702.641296 885.648010,720.637817 
	C869.790771,745.500916 847.200623,760.423340 818.187561,766.110168 
	C764.750305,776.584473 710.574890,737.844727 702.082214,682.767090 
	C694.124451,631.158264 728.270325,581.435913 778.654236,570.294800 
	C825.473450,559.942017 871.311218,582.433105 891.913147,626.119873 
z"/>
<path fill="#A5D6A7" opacity="1.000000" stroke="none" 
	d="
M1001.380676,1000.916504 
	C1000.921570,974.615051 1001.270508,948.357788 1000.813904,922.114502 
	C1000.565918,907.864319 995.568237,894.866516 986.916687,883.398499 
	C986.129395,882.354980 985.494751,881.196289 984.788818,879.748596 
	C994.401917,876.947388 1003.911316,873.916748 1013.649719,872.142578 
	C1037.803833,867.742188 1062.263550,866.912964 1086.716919,868.200623 
	C1119.006958,869.901001 1150.456909,875.854187 1179.820801,890.066406 
	C1195.957397,897.876770 1210.987671,907.459778 1222.306641,921.750671 
	C1229.972656,931.429504 1233.946411,942.639465 1234.078735,955.032043 
	C1234.228149,969.027466 1234.151855,983.025452 1234.151733,997.022278 
	C1234.151733,998.152832 1233.981689,999.283447 1233.846436,1000.966431 
	C1156.375854,1000.966431 1079.114502,1000.966431 1001.380676,1000.916504 
z"/>
<path fill="#A5D6A7" opacity="1.000000" stroke="none" 
	d="
M616.908325,879.136230 
	C616.535583,880.691711 616.025818,882.099060 615.168030,883.246216 
	C605.790405,895.787231 601.105286,909.928345 601.034241,925.521057 
	C600.921082,950.329956 601.017456,975.139832 601.058533,1000.407959 
	C581.443298,1000.911011 561.794678,1000.987732 542.146057,1000.993835 
	C486.192047,1001.011292 430.238037,1001.000000 374.284027,1001.000000 
	C372.331329,1001.000000 370.378632,1001.000000 367.835266,1001.000000 
	C367.835266,993.681763 367.781586,986.905640 367.847687,980.130737 
	C367.949951,969.646179 367.323517,959.073669 368.461578,948.697998 
	C370.478729,930.307068 381.336578,917.022217 395.663361,906.246704 
	C420.997467,887.192200 450.045044,877.366272 480.885986,871.970398 
	C504.278351,867.877625 527.885864,866.987854 551.503418,868.186462 
	C573.544495,869.305176 595.489502,871.773071 616.908325,879.136230 
z"/>
<path fill="#A5D6A7" opacity="1.000000" stroke="none" 
	d="
M600.903564,763.300049 
	C602.728210,796.936096 580.114441,825.174255 549.937622,832.487183 
	C508.845490,842.445129 468.556824,811.527588 467.882172,769.272644 
	C467.248535,729.587646 499.184082,698.914612 538.859680,701.100952 
	C569.462402,702.787354 595.803040,727.219788 600.117126,757.913818 
	C600.348206,759.558105 600.631531,761.195068 600.903564,763.300049 
z"/>
<path fill="#A5D6A7" opacity="1.000000" stroke="none" 
	d="
M1125.446289,734.586365 
	C1143.885742,767.215088 1132.501465,807.577759 1099.963501,825.970581 
	C1069.057861,843.440613 1027.892822,832.254883 1010.329346,801.614380 
	C991.586426,768.916138 1002.340393,728.252625 1034.617920,709.773376 
	C1066.377319,691.590820 1106.834717,702.533020 1125.446289,734.586365 
z"/>
</svg>
