<svg width="250mm" height="250mm" version="1.1" viewBox="0 0 250 250" xmlns="http://www.w3.org/2000/svg"><g transform="matrix(3.69 0 0 3.69 -262 -421)"><g transform="translate(-.28 -.452)"><path d="m74.4 182-0.884-0.209-1.76-1.7-0.578-2.29 0.0126-59 0.475-2.05 1.69-1.74 2.29-0.578 58.9 0.012 2.05 0.475 1.74 1.69 0.578 2.29-0.012 58.9-0.475 2.05-1.69 1.74-2.29 0.578-59.2-0.0542z" fill="#00a8db"/><path d="m106 162-1.06-0.335-1.63-0.848-1.88-2.08-1.19-3.11-0.014-5.56 1.23-3.17 2.96-2.96 2.87-0.952 3.59 0.0224 2.57 0.855 1.92 1.97 0.561 1.49-0.012 2.74-0.971 2.12-1.53 1.53-2.8 1.29-5-0.183 2e-4 0.356 2.1e-4 0.356 1.14 1.6 1.81 0.754 2.82 0.0338 1.77-0.383 1.96-0.994h0.354l-0.25 4.31-1 0.731-2.62 0.778-4.53-0.0354zm4.04-11.2 0.598-0.389 0.326-1.3-0.59-1.29-1.46-0.559-1.96 0.583-1 1.44-0.582 1.72 2.22 0.469 1.85-0.282zm-30.6-2.33v-13.6l12 0.176s0.97 0.46 1.46 0.69c0.485 0.23 1.46 0.69 1.46 0.69l1.39 1.31 1.37 2.07 0.88 3.44-0.294 3.88-1.37 2.8-2.39 2.2 5.05 9.48v0.543h-6.04l-4.36-9h-3.35v9h-5.82zm11.6-1.05 0.806-0.678 0.542-1.95-0.0086-1.59-1.01-2.21-1.6-0.829h-4.79v7.94h5.25zm27.3 13.9v-0.801l4.23-7.85v-0.299l-3.7-6.69v-1.83h5.02l1.8 3.57 1.76-3.57h4.91v1.93l-2.46 4.55-1.23 2.13 4.21 7.85v1.8h-5.02l-2.17-4.31-2.27 4.18-5.09 0.151zm13-21.2-1.37-1.23-4.13-2.19-4.62-1.62-5.92-1.13-5.86-0.395 20.8-0.0778 2.02 1.03 0.625 1.51-0.152 5.33z" fill="#fff"/></g></g></svg>
