<svg xmlns="http://www.w3.org/2000/svg" xml:space="preserve" id="layer" x="0" y="0" style="enable-background:new 0 0 652 652" version="1.1" viewBox="0 0 652 652"><style>.st0{fill:#5f6062}</style><path d="M569 319.9c0-16-9.3-28-25.6-28-15.2 0-25.5 10.7-25.5 30 0 23.7 13.3 30 27 30 10.6 0 17.2-5 21.9-8.9.3-.1.3-.5 0-.7l-8.2-8s-.3-.4-.7 0c-3.6 3.4-6.8 5.2-13 5.2-4.9 0-8.5-2-10.6-5 0-.1-.1-.3-.1-.3-.1-.1-.1-.3-.3-.4-1.1-1.9-2.1-4.1-2.7-7.2h37c.3 0 .5-.3.5-.5v-6.2h.3zm-37.7-3.5c.5-3.6 1.5-6.2 3-8.2 2.1-2.5 4.6-3.8 7.8-4.1h1.1c4.9 0 8.2 2.7 9.8 6.1.9 2.1 1.2 3.7 1.3 6.2h-23zm-191.4 34.9c-11.9 0-17-8.5-17-16.8V305c0-.3-.3-.5-.5-.5h-10.1c-.3 0-.5-.3-.5-.5v-10.9c0-.3.3-.5.5-.5h10.1c.3 0 .5-.3.5-.5v-14.6c0-.3.3-.5.5-.5h13.7c.3 0 .5.3.5.5V292c0 .3.3.5.5.5h9.1c.4 0 .5.1.7.5.1.4 3.4 10.5 3.6 10.9s-.1.7-.5.7h-12.9c-.3 0-.5.3-.5.5v28c0 3.2 1.6 5.8 5 5.8h8.8c.3 0 .5.3.5.5v11.4c0 .3-.3.5-.5.5h-11.5zm160.8 0c-11.9 0-17-8.5-17-16.8V305c0-.3-.3-.5-.5-.5h-10.1c-.3 0-.5-.3-.5-.5v-10.9c0-.3.3-.5.5-.5h10.1c.3 0 .5-.3.5-.5v-14.6c0-.3.3-.5.5-.5h13.5c.3 0 .5.3.5.5V292c0 .3.3.5.5.5h9.1c.4 0 .5.1.7.5.1.4 3.4 10.5 3.6 10.9.1.4-.1.7-.5.7h-12.9c-.3 0-.5.3-.5.5v28c0 3.2 1.6 5.8 5 5.8h8.8c.3 0 .5.3.5.5v11.4c0 .3-.3.5-.5.5h-11.4zm-115.5 9.4c-1.2 3.3-2.5 5.7-4.4 7.6-3.4 3.3-7.8 4.5-12.6 4.5h-5.3c-.3 0-.5-.3-.5-.5v-12.2c0-.3.3-.5.5-.5h2.4c.3 0 .8 0 1.1-.1 0 0 5.3-.9 6.8-5.2l2.4-6.8c.1-.3.1-.7 0-.9l-19.8-53.4c-.1-.3 0-.5.4-.5h14.3c.3 0 .5.3.7.5l11.8 35.3c.1.3.3.3.3 0l11.4-35.3c.1-.3.4-.5.7-.5h14.5c.3 0 .4.3.3.5l-25 67.5zm67.2-9.4c-.3 0-.5-.3-.5-.5v-34.5c0-7.7-5-11.1-9.7-11.3-4.6 0-9.8 2.7-9.8 10.7v35c0 .3-.3.5-.5.5h-13.7c-.3 0-.5-.3-.5-.5V293c0-.3.3-.5.5-.5h13.3c.3 0 .5.3.5.5v4.4c0 .3.1.4.4.3 0 0 5.2-5.8 14.2-5.8 5.8 0 10.6 1.9 13.8 5.2 4.8 4.8 6 10.2 6 16.7v37c0 .3-.3.5-.5.5h-13.5zm168.8-7c-5.2 5.2-11.1 7.7-19.1 7.7-11.7 0-26.3-6.2-26.3-30.1 0-23.7 14.5-30 26.3-30 8 0 13.9 2.4 19.1 7.6.4.4 0 .7 0 .7l-9.3 9.3c-.3.1-.5.3-.8 0 0 0-5.2-4.2-9-4.2-3.4 0-6.2 1.2-8.4 3.8-2.3 2.8-3.2 6.8-3.2 13s1.1 10.2 3.2 13c2.1 2.5 4.9 3.8 8.4 3.8 3.7 0 6.2-1.2 9.1-4.2.3-.3.5-.1.7 0 .3.3 9 8.9 9.3 9.1.3.1.1.3 0 .5z" class="st0"/><path id="Shape_6_" d="m256.5 349.1-20.6 20.3-24.6-24.3c-1.6-1.6-4.1-1.6-5.8 0l-18.3 18v-29.5l3.3-3.3c1.6-1.6 1.6-4.1 0-5.7l-46.9-46.2c-7.3-7.2-16.8-6.4-23.3 0L97.4 301v-29.5l13.6-13.4c19.6-19.4 38.4-14.5 50.5-2.6l49.6 48.9c1.6 1.6 4.2 1.6 5.8 0l15.7-15.5 15 14.8-15.7 15.5c-1.6 1.6-1.6 4.2 0 5.7l24.6 24.2z" style="fill:#f8971d"/><path id="Shape_7_" d="M21.4 292.9 42 272.6l24.6 24.3c1.6 1.6 4.1 1.6 5.8 0l18.3-18v29.5l-3.3 3.3c-1.6 1.6-1.6 4.1 0 5.7l46.9 46.2c7.3 7.2 16.8 6.4 23.3 0l22.9-22.6v29.5L166.8 384c-19.6 19.4-38.4 14.5-50.5 2.6l-49.6-48.9c-1.6-1.6-4.2-1.6-5.8 0l-15.6 15.5-15-14.8L46 322.9c1.6-1.6 1.6-4.2 0-5.7l-24.6-24.3z" class="st0"/></svg>