<svg version="1.1" id="Layer_1" xmlns="http://www.w3.org/2000/svg" xmlns:xlink="http://www.w3.org/1999/xlink" x="0px" y="0px"
	 width="100%" viewBox="0 0 400 400" enable-background="new 0 0 400 400" xml:space="preserve">
<path fill="#FEFEFE" opacity="1.000000" stroke="none" 
	d="
M219.000000,401.000000 
	C146.022659,401.000000 73.545303,401.000000 1.033979,401.000000 
	C1.033979,267.730988 1.033979,134.461960 1.033979,1.096468 
	C134.227310,1.096468 267.454712,1.096468 400.841064,1.096468 
	C400.841064,134.333176 400.841064,267.666565 400.841064,401.000000 
	C340.462036,401.000000 279.981018,401.000000 219.000000,401.000000 
M143.287415,43.068241 
	C117.893906,37.101665 93.236023,38.996151 69.026283,49.694473 
	C69.740257,51.257957 70.285072,52.448723 70.828018,53.640339 
	C85.082062,84.924301 99.293938,116.227654 113.657257,147.461365 
	C115.034081,150.455307 115.144821,152.849472 113.737701,155.862671 
	C106.219200,171.962662 98.912758,188.161682 91.535301,204.327515 
	C84.050529,220.728500 76.568474,237.130707 68.962852,253.800598 
	C94.929008,264.911407 121.058235,266.918274 147.793991,258.931854 
	C149.344849,258.468567 150.865997,256.539429 151.605453,254.927551 
	C166.840469,221.717407 181.915741,188.433929 197.182678,155.238571 
	C198.457275,152.467209 198.173233,150.374786 197.002609,147.817703 
	C182.209122,115.503143 167.420837,83.185646 152.839218,50.775307 
	C150.976196,46.634377 148.750854,43.726967 143.287415,43.068241 
M301.489105,221.999176 
	C311.565643,199.927399 321.724548,177.892273 331.591370,155.727142 
	C332.579224,153.507996 332.680634,150.101471 331.699280,147.917343 
	C316.850555,114.869987 301.722839,81.948090 286.763367,48.950165 
	C285.489410,46.140057 283.832397,44.619232 280.780518,43.775581 
	C264.449677,39.261147 247.891006,38.394032 231.327087,41.381054 
	C222.020126,43.059406 212.993332,46.291256 203.457703,48.929054 
	C218.913696,82.808456 233.795959,115.278259 248.434113,147.857742 
	C249.413742,150.038086 249.381027,153.420898 248.405426,155.616150 
	C238.889389,177.028549 229.064529,198.303619 219.343689,219.625137 
	C214.200592,230.905960 209.089249,242.201263 203.830856,253.782379 
	C229.829590,264.969513 255.943665,266.877533 282.656036,258.921021 
	C284.192780,258.463287 285.642609,256.474884 286.404724,254.856064 
	C291.430267,244.181381 296.256134,233.412674 301.489105,221.999176 
M171.433746,336.141632 
	C169.744583,344.621185 169.368866,353.137054 176.797745,359.105408 
	C185.068146,365.749847 194.549927,363.769592 204.509247,361.305328 
	C203.733765,358.332642 203.063950,355.764923 202.397903,353.211700 
	C188.171295,356.632599 182.475815,354.791046 181.607941,346.447327 
	C189.716995,346.447327 197.788788,346.447327 205.756058,346.447327 
	C207.835968,334.512024 203.262985,325.835419 193.945755,323.392700 
	C184.349136,320.876770 175.501144,325.666199 171.433746,336.141632 
M102.987038,341.703186 
	C101.947731,331.108551 97.189278,324.978912 88.652596,323.238098 
	C79.703064,321.413147 71.621086,324.913910 67.883125,332.234619 
	C63.620472,340.582916 64.953468,353.174713 71.204292,358.655487 
	C73.569450,360.729248 76.822723,362.410553 79.901192,362.944427 
	C94.274605,365.437073 102.723686,357.817474 102.987038,341.703186 
M324.630341,341.872589 
	C324.592743,360.339508 340.525574,369.854095 356.661743,360.678955 
	C356.306671,359.092560 355.933105,357.423553 355.571350,355.807312 
	C337.943665,358.513306 331.913147,355.560364 333.384918,344.987732 
	C341.763031,344.987732 350.196442,344.987732 358.573883,344.987732 
	C360.236511,331.274261 353.438416,322.573364 341.840515,323.148590 
	C331.927979,323.640167 325.890076,329.944550 324.630341,341.872589 
M255.276794,324.670929 
	C255.072342,326.624725 254.867874,328.578522 254.639374,330.762177 
	C270.152161,328.188538 273.931213,329.809235 273.359009,337.600433 
	C268.386047,338.381317 263.347595,338.558990 258.733368,340.049713 
	C252.739059,341.986267 250.135391,347.356110 251.068878,353.539795 
	C251.857544,358.764221 255.700531,362.637299 261.747559,362.937012 
	C268.092621,363.251495 274.483978,362.632416 281.032837,362.415466 
	C281.032837,352.503448 281.234009,343.699585 280.963440,334.910278 
	C280.777161,328.860107 277.421600,324.776672 271.311340,324.002625 
	C266.311279,323.369232 261.128967,324.174347 255.276794,324.670929 
M106.095642,352.048065 
	C111.498741,363.149506 124.248955,367.124054 135.432693,360.820282 
	C134.780167,358.506653 134.096512,356.082703 133.354721,353.452698 
	C127.328514,354.975494 121.491508,356.667816 117.696373,351.096832 
	C114.503441,346.409851 114.705482,340.722992 117.345039,335.864746 
	C120.953224,329.223724 127.450096,332.271729 133.287582,332.471924 
	C133.864777,329.978729 134.409836,327.624420 134.931320,325.371887 
	C121.590286,319.125397 108.016853,324.408417 105.503296,336.983551 
	C104.594116,341.532074 105.712624,346.485931 106.095642,352.048065 
M213.835754,358.533569 
	C217.012054,362.412201 221.377319,363.051666 225.999924,363.014740 
	C233.762924,362.952728 234.693939,361.418335 231.327347,354.198303 
	C224.090958,354.646027 222.423904,353.884430 222.156815,349.042603 
	C221.848206,343.448303 222.085037,337.823914 222.085037,331.925110 
	C225.290573,331.925110 228.064926,331.925110 231.002838,331.925110 
	C231.002838,329.101624 231.002838,326.576569 231.002838,323.669922 
	C227.753738,323.669922 224.999695,323.669922 221.770157,323.669922 
	C221.770157,319.734375 221.770157,316.189850 221.770157,312.645294 
	C221.351120,312.460175 220.932083,312.275085 220.513046,312.089966 
	C215.568375,318.380188 210.623688,324.670410 205.293533,331.451019 
	C208.141754,331.923035 209.690628,332.179718 211.276169,332.442474 
	C211.276169,335.311371 211.077103,337.823853 211.315887,340.293976 
	C211.885513,346.186096 212.661758,352.058258 213.835754,358.533569 
M296.377258,328.104980 
	C295.348114,326.866608 294.318939,325.628235 293.052032,324.103821 
	C291.845215,324.103821 290.065338,324.103821 288.189545,324.103821 
	C288.189545,337.041351 288.189545,349.760132 288.189545,362.631836 
	C290.580597,362.631836 292.652954,362.631836 295.242706,362.631836 
	C295.242706,356.389984 294.987762,350.424866 295.341095,344.496033 
	C295.543549,341.098969 296.178802,337.496857 297.620300,334.462677 
	C299.436340,330.640106 303.277710,329.398895 307.404297,330.157867 
	C311.227478,330.861115 312.207977,334.051300 312.430481,337.310150 
	C312.736053,341.786469 312.698639,346.288025 312.750031,350.779449 
	C312.794922,354.703644 312.759369,358.628754 312.759369,362.600891 
	C315.571381,362.600891 317.641449,362.600891 320.125275,362.600891 
	C320.125275,354.316956 320.107361,346.357819 320.131287,338.398865 
	C320.148499,332.670898 319.413757,327.111786 313.493195,324.466522 
	C307.456421,321.769287 301.788025,322.993011 296.377258,328.104980 
M137.348755,313.751831 
	C137.348755,330.001160 137.348755,346.250488 137.348755,362.642120 
	C141.282776,362.642120 144.514923,362.642120 147.928802,362.642120 
	C147.928802,344.195099 147.928802,326.126221 147.928802,307.800781 
	C144.334427,307.800781 140.956635,307.800781 137.349060,307.800781 
	C137.349060,309.842316 137.349060,311.331360 137.348755,313.751831 
M55.113873,336.999969 
	C58.522640,335.167328 61.931412,333.334656 65.340179,331.501984 
	C65.797417,331.821350 66.254654,332.140717 66.711884,332.460083 
	C66.242317,329.509369 65.772751,326.558655 65.303169,323.607910 
	C61.212379,324.652893 57.121586,325.697876 52.794239,326.803253 
	C51.112041,322.855774 49.461456,322.248444 43.249218,324.345734 
	C43.249218,337.101166 43.249218,349.819702 43.249218,362.511047 
	C46.899189,362.511047 50.239048,362.511047 53.792595,362.511047 
	C53.792595,360.193939 53.717712,358.373138 53.806171,356.560364 
	C54.111675,350.299591 54.474125,344.041595 55.113873,336.999969 
M235.125931,331.500000 
	C235.126068,337.825562 235.097275,344.151245 235.132828,350.476624 
	C235.192963,361.173889 240.357666,365.026489 251.144150,362.160583 
	C251.008255,360.486816 250.869095,358.772888 250.737198,357.148468 
	C243.243164,356.779144 242.892273,356.441528 242.880783,349.476593 
	C242.858002,335.686005 242.874054,321.895355 242.874054,307.672211 
	C240.178802,307.672211 237.819809,307.672211 235.125946,307.672211 
	C235.125946,315.568817 235.125946,323.034424 235.125931,331.500000 
M155.109909,331.598724 
	C149.324570,338.747589 149.479492,345.784454 155.408173,352.796539 
	C156.246536,353.788116 156.700928,355.102325 157.344910,356.260590 
	C161.577271,363.872711 163.089432,364.487946 172.234726,362.048096 
	C169.800079,357.659119 167.781570,353.090790 164.932648,349.117920 
	C161.306534,344.061249 160.849777,339.650665 164.832886,334.549408 
	C167.193878,331.525604 168.645676,327.791901 170.558762,324.281097 
	C161.463943,321.924652 159.774673,322.713440 155.109909,331.598724 
z"/>
<path fill="#010101" opacity="1.000000" stroke="none" 
	d="
M143.683533,43.154945 
	C148.750854,43.726967 150.976196,46.634377 152.839218,50.775307 
	C167.420837,83.185646 182.209122,115.503143 197.002609,147.817703 
	C198.173233,150.374786 198.457275,152.467209 197.182678,155.238571 
	C181.915741,188.433929 166.840469,221.717407 151.605453,254.927551 
	C150.865997,256.539429 149.344849,258.468567 147.793991,258.931854 
	C121.058235,266.918274 94.929008,264.911407 68.962852,253.800598 
	C76.568474,237.130707 84.050529,220.728500 91.535301,204.327515 
	C98.912758,188.161682 106.219200,171.962662 113.737701,155.862671 
	C115.144821,152.849472 115.034081,150.455307 113.657257,147.461365 
	C99.293938,116.227654 85.082062,84.924301 70.828018,53.640339 
	C70.285072,52.448723 69.740257,51.257957 69.026283,49.694473 
	C93.236023,38.996151 117.893906,37.101665 143.683533,43.154945 
z"/>
<path fill="#1063FE" opacity="1.000000" stroke="none" 
	d="
M301.318085,222.336884 
	C296.256134,233.412674 291.430267,244.181381 286.404724,254.856064 
	C285.642609,256.474884 284.192780,258.463287 282.656036,258.921021 
	C255.943665,266.877533 229.829590,264.969513 203.830856,253.782379 
	C209.089249,242.201263 214.200592,230.905960 219.343689,219.625137 
	C229.064529,198.303619 238.889389,177.028549 248.405426,155.616150 
	C249.381027,153.420898 249.413742,150.038086 248.434113,147.857742 
	C233.795959,115.278259 218.913696,82.808456 203.457703,48.929054 
	C212.993332,46.291256 222.020126,43.059406 231.327087,41.381054 
	C247.891006,38.394032 264.449677,39.261147 280.780518,43.775581 
	C283.832397,44.619232 285.489410,46.140057 286.763367,48.950165 
	C301.722839,81.948090 316.850555,114.869987 331.699280,147.917343 
	C332.680634,150.101471 332.579224,153.507996 331.591370,155.727142 
	C321.724548,177.892273 311.565643,199.927399 301.318085,222.336884 
z"/>
<path fill="#080808" opacity="1.000000" stroke="none" 
	d="
M171.588623,335.776184 
	C175.501144,325.666199 184.349136,320.876770 193.945755,323.392700 
	C203.262985,325.835419 207.835968,334.512024 205.756058,346.447327 
	C197.788788,346.447327 189.716995,346.447327 181.607941,346.447327 
	C182.475815,354.791046 188.171295,356.632599 202.397903,353.211700 
	C203.063950,355.764923 203.733765,358.332642 204.509247,361.305328 
	C194.549927,363.769592 185.068146,365.749847 176.797745,359.105408 
	C169.368866,353.137054 169.744583,344.621185 171.588623,335.776184 
M182.717850,334.311554 
	C182.184219,335.740784 181.650604,337.170013 181.046463,338.788086 
	C186.442429,338.788086 191.171783,338.788086 197.631088,338.788086 
	C195.308182,335.806030 194.102737,333.158173 192.045929,331.875793 
	C188.955399,329.948883 185.693268,330.981964 182.717850,334.311554 
z"/>
<path fill="#060606" opacity="1.000000" stroke="none" 
	d="
M102.997894,342.151947 
	C102.723686,357.817474 94.274605,365.437073 79.901192,362.944427 
	C76.822723,362.410553 73.569450,360.729248 71.204292,358.655487 
	C64.953468,353.174713 63.620472,340.582916 67.883125,332.234619 
	C71.621086,324.913910 79.703064,321.413147 88.652596,323.238098 
	C97.189278,324.978912 101.947731,331.108551 102.997894,342.151947 
M89.798584,333.848541 
	C83.640671,329.040344 78.003746,331.013916 76.955078,338.647247 
	C76.467743,342.194672 76.677483,345.934601 77.197540,349.495758 
	C77.693535,352.892212 79.903946,355.068970 83.674408,355.222717 
	C87.516998,355.379364 90.692039,353.829803 90.943886,350.027679 
	C91.283218,344.904694 90.489510,339.706726 89.798584,333.848541 
z"/>
<path fill="#070707" opacity="1.000000" stroke="none" 
	d="
M324.668457,341.455627 
	C325.890076,329.944550 331.927979,323.640167 341.840515,323.148590 
	C353.438416,322.573364 360.236511,331.274261 358.573883,344.987732 
	C350.196442,344.987732 341.763031,344.987732 333.384918,344.987732 
	C331.913147,355.560364 337.943665,358.513306 355.571350,355.807312 
	C355.933105,357.423553 356.306671,359.092560 356.661743,360.678955 
	C340.525574,369.854095 324.592743,360.339508 324.668457,341.455627 
M333.266388,339.426453 
	C339.297211,339.426453 345.328064,339.426453 351.400238,339.426453 
	C350.560120,332.413605 347.919891,329.364655 342.896790,329.123169 
	C337.395935,328.858734 334.161407,331.940643 333.266388,339.426453 
z"/>
<path fill="#090909" opacity="1.000000" stroke="none" 
	d="
M255.652130,324.506317 
	C261.128967,324.174347 266.311279,323.369232 271.311340,324.002625 
	C277.421600,324.776672 280.777161,328.860107 280.963440,334.910278 
	C281.234009,343.699585 281.032837,352.503448 281.032837,362.415466 
	C274.483978,362.632416 268.092621,363.251495 261.747559,362.937012 
	C255.700531,362.637299 251.857544,358.764221 251.068878,353.539795 
	C250.135391,347.356110 252.739059,341.986267 258.733368,340.049713 
	C263.347595,338.558990 268.386047,338.381317 273.359009,337.600433 
	C273.931213,329.809235 270.152161,328.188538 254.639374,330.762177 
	C254.867874,328.578522 255.072342,326.624725 255.652130,324.506317 
M273.872070,355.181061 
	C273.872070,351.752808 273.872070,348.324585 273.872070,343.885284 
	C269.664062,344.322083 265.752533,344.070892 262.417603,345.337677 
	C260.615265,346.022247 258.844635,349.291504 258.825653,351.410522 
	C258.809296,353.239471 261.074005,356.390533 262.713562,356.664703 
	C266.249878,357.255890 270.032410,356.374359 273.872070,355.181061 
z"/>
<path fill="#070707" opacity="1.000000" stroke="none" 
	d="
M106.000763,351.651428 
	C105.712624,346.485931 104.594116,341.532074 105.503296,336.983551 
	C108.016853,324.408417 121.590286,319.125397 134.931320,325.371887 
	C134.409836,327.624420 133.864777,329.978729 133.287582,332.471924 
	C127.450096,332.271729 120.953224,329.223724 117.345039,335.864746 
	C114.705482,340.722992 114.503441,346.409851 117.696373,351.096832 
	C121.491508,356.667816 127.328514,354.975494 133.354721,353.452698 
	C134.096512,356.082703 134.780167,358.506653 135.432693,360.820282 
	C124.248955,367.124054 111.498741,363.149506 106.000763,351.651428 
z"/>
<path fill="#070707" opacity="1.000000" stroke="none" 
	d="
M213.595154,358.236023 
	C212.661758,352.058258 211.885513,346.186096 211.315887,340.293976 
	C211.077103,337.823853 211.276169,335.311371 211.276169,332.442474 
	C209.690628,332.179718 208.141754,331.923035 205.293533,331.451019 
	C210.623688,324.670410 215.568375,318.380188 220.513046,312.089966 
	C220.932083,312.275085 221.351120,312.460175 221.770157,312.645294 
	C221.770157,316.189850 221.770157,319.734375 221.770157,323.669922 
	C224.999695,323.669922 227.753738,323.669922 231.002838,323.669922 
	C231.002838,326.576569 231.002838,329.101624 231.002838,331.925110 
	C228.064926,331.925110 225.290573,331.925110 222.085037,331.925110 
	C222.085037,337.823914 221.848206,343.448303 222.156815,349.042603 
	C222.423904,353.884430 224.090958,354.646027 231.327347,354.198303 
	C234.693939,361.418335 233.762924,362.952728 225.999924,363.014740 
	C221.377319,363.051666 217.012054,362.412201 213.595154,358.236023 
z"/>
<path fill="#050505" opacity="1.000000" stroke="none" 
	d="
M296.654541,327.840027 
	C301.788025,322.993011 307.456421,321.769287 313.493195,324.466522 
	C319.413757,327.111786 320.148499,332.670898 320.131287,338.398865 
	C320.107361,346.357819 320.125275,354.316956 320.125275,362.600891 
	C317.641449,362.600891 315.571381,362.600891 312.759369,362.600891 
	C312.759369,358.628754 312.794922,354.703644 312.750031,350.779449 
	C312.698639,346.288025 312.736053,341.786469 312.430481,337.310150 
	C312.207977,334.051300 311.227478,330.861115 307.404297,330.157867 
	C303.277710,329.398895 299.436340,330.640106 297.620300,334.462677 
	C296.178802,337.496857 295.543549,341.098969 295.341095,344.496033 
	C294.987762,350.424866 295.242706,356.389984 295.242706,362.631836 
	C292.652954,362.631836 290.580597,362.631836 288.189545,362.631836 
	C288.189545,349.760132 288.189545,337.041351 288.189545,324.103821 
	C290.065338,324.103821 291.845215,324.103821 293.052032,324.103821 
	C294.318939,325.628235 295.348114,326.866608 296.654541,327.840027 
z"/>
<path fill="#0B0B0B" opacity="1.000000" stroke="none" 
	d="
M137.348907,313.286133 
	C137.349060,311.331360 137.349060,309.842316 137.349060,307.800781 
	C140.956635,307.800781 144.334427,307.800781 147.928802,307.800781 
	C147.928802,326.126221 147.928802,344.195099 147.928802,362.642120 
	C144.514923,362.642120 141.282776,362.642120 137.348755,362.642120 
	C137.348755,346.250488 137.348755,330.001160 137.348907,313.286133 
z"/>
<path fill="#070707" opacity="1.000000" stroke="none" 
	d="
M54.964378,337.391266 
	C54.474125,344.041595 54.111675,350.299591 53.806171,356.560364 
	C53.717712,358.373138 53.792595,360.193939 53.792595,362.511047 
	C50.239048,362.511047 46.899189,362.511047 43.249218,362.511047 
	C43.249218,349.819702 43.249218,337.101166 43.249218,324.345734 
	C49.461456,322.248444 51.112041,322.855774 52.794239,326.803253 
	C57.121586,325.697876 61.212379,324.652893 65.303177,323.607910 
	C65.772751,326.558655 66.242317,329.509369 66.711884,332.460083 
	C66.254654,332.140717 65.797417,331.821350 65.340179,331.501984 
	C61.931412,333.334656 58.522640,335.167328 54.964378,337.391266 
z"/>
<path fill="#0F0F0F" opacity="1.000000" stroke="none" 
	d="
M235.125946,331.000000 
	C235.125946,323.034424 235.125946,315.568817 235.125946,307.672211 
	C237.819809,307.672211 240.178802,307.672211 242.874054,307.672211 
	C242.874054,321.895355 242.858002,335.686005 242.880783,349.476593 
	C242.892273,356.441528 243.243164,356.779144 250.737198,357.148468 
	C250.869095,358.772888 251.008255,360.486816 251.144150,362.160583 
	C240.357666,365.026489 235.192963,361.173889 235.132828,350.476624 
	C235.097275,344.151245 235.126068,337.825562 235.125946,331.000000 
z"/>
<path fill="#080808" opacity="1.000000" stroke="none" 
	d="
M155.300934,331.279938 
	C159.774673,322.713440 161.463943,321.924652 170.558762,324.281097 
	C168.645676,327.791901 167.193878,331.525604 164.832886,334.549408 
	C160.849777,339.650665 161.306534,344.061249 164.932648,349.117920 
	C167.781570,353.090790 169.800079,357.659119 172.234726,362.048096 
	C163.089432,364.487946 161.577271,363.872711 157.344910,356.260590 
	C156.700928,355.102325 156.246536,353.788116 155.408173,352.796539 
	C149.479492,345.784454 149.324570,338.747589 155.300934,331.279938 
z"/>
<path fill="#F6F6F6" opacity="1.000000" stroke="none" 
	d="
M182.917252,333.978333 
	C185.693268,330.981964 188.955399,329.948883 192.045929,331.875793 
	C194.102737,333.158173 195.308182,335.806030 197.631088,338.788086 
	C191.171783,338.788086 186.442429,338.788086 181.046463,338.788086 
	C181.650604,337.170013 182.184219,335.740784 182.917252,333.978333 
z"/>
<path fill="#F8F8F8" opacity="1.000000" stroke="none" 
	d="
M89.990326,334.194733 
	C90.489510,339.706726 91.283218,344.904694 90.943886,350.027679 
	C90.692039,353.829803 87.516998,355.379364 83.674408,355.222717 
	C79.903946,355.068970 77.693535,352.892212 77.197540,349.495758 
	C76.677483,345.934601 76.467743,342.194672 76.955078,338.647247 
	C78.003746,331.013916 83.640671,329.040344 89.990326,334.194733 
z"/>
<path fill="#EEEEEE" opacity="1.000000" stroke="none" 
	d="
M333.087128,339.033630 
	C334.161407,331.940643 337.395935,328.858734 342.896790,329.123169 
	C347.919891,329.364655 350.560120,332.413605 351.400238,339.426453 
	C345.328064,339.426453 339.297211,339.426453 333.087128,339.033630 
z"/>
<path fill="#F5F5F5" opacity="1.000000" stroke="none" 
	d="
M273.793121,355.638245 
	C270.032410,356.374359 266.249878,357.255890 262.713562,356.664703 
	C261.074005,356.390533 258.809296,353.239471 258.825653,351.410522 
	C258.844635,349.291504 260.615265,346.022247 262.417603,345.337677 
	C265.752533,344.070892 269.664062,344.322083 273.872070,343.885284 
	C273.872070,348.324585 273.872070,351.752808 273.793121,355.638245 
z"/>
</svg>
