<?xml version="1.0" encoding="utf-8"?>
<!-- Generator: Adobe Illustrator 26.5.0, SVG Export Plug-In . SVG Version: 6.00 Build 0)  -->
<svg version="1.1" id="Layer_1" xmlns="http://www.w3.org/2000/svg" xmlns:xlink="http://www.w3.org/1999/xlink" x="0px" y="0px"
	 viewBox="0 0 512 512" style="enable-background:new 0 0 512 512;" xml:space="preserve">
<style type="text/css">
	.st0{fill:#5A7281;}
	.st1{fill:#00A0DE;}
</style>
<g id="XMLID_1_">
	<path id="XMLID_13_" class="st0" d="M122.3,279.85h4.49c1.12,0,1.82-0.28,1.82-2.81v-29.47c0-2.53-0.42-3.23-1.82-3.23h-4.49v-7.86
		h8c5.05,0,9.68-0.56,11.93-1.12v10.1c3.09-6.74,8-10.38,15.71-10.38c8,0,13.19,3.79,15.01,11.65c2.67-7.58,8-11.65,16.56-11.65
		c10.94,0,16.56,6.17,16.56,20.06v22.03c0,2.39,0.56,2.81,1.82,2.81h4.49v7.86h-25.82v-8h3.79c1.12,0,1.82-0.28,1.82-2.81V256
		c0-7.86-2.53-11.37-8.28-11.37c-6.45,0-9.54,5.19-9.54,15.01v17.54c0,2.39,0.56,2.81,1.82,2.81h4.35v7.86H155v-8h3.79
		c1.12,0,1.82-0.28,1.82-2.81v-22.17c0-7.02-2.95-10.38-8.28-10.38c-6.45,0-9.54,5.19-9.54,15.01v17.54c0,2.39,0.56,2.81,1.82,2.81
		h4.07v7.86h-25.96L122.3,279.85L122.3,279.85z M229.36,264.84c0.28,9.54,4.91,15.86,14.31,15.86c7.16,0,11.22-3.65,13.61-9.96
		l7.86,3.65c-2.81,8.28-9.54,14.73-22.59,14.73c-18.24,0-27.5-11.23-27.5-27.08c0-16,10.66-26.94,26.1-26.94
		c15.86,0,24.69,10.1,24.69,27.08v2.67H229.36z M229.08,257.68h22.73c-0.14-10.38-3.37-14.45-10.66-14.45
		S229.78,247.58,229.08,257.68z M289.41,245.62c3.23-7.02,8.98-10.52,16.98-10.52c10.66,0,16.28,6.31,16.28,19.22v22.87
		c0,2.39,0.56,2.81,1.82,2.81h4.49v7.86h-25.96v-8h4.07c1.12,0,1.82-0.28,1.82-2.81V254.6c0-7.16-2.53-10.24-8.28-10.24
		c-6.88,0-10.94,5.33-10.94,16.7v16c0,2.39,0.56,2.81,1.82,2.81h4.07v7.86h-25.96v-7.86h4.49c1.12,0,1.82-0.28,1.82-2.81v-29.47
		c0-2.53-0.42-3.23-1.82-3.23h-4.49v-7.86h8c5.05,0,9.68-0.56,11.93-1.12v10.24H289.41z M336.84,273.12v-28.76h-6.88v-7.02
		c0,0,4.21-0.28,3.93-0.28c3.51-0.7,5.75-1.96,6.17-5.75l0.98-9.26h9.54v14.59h9.96v7.86h-10.38v28.48c0,5.61,1.96,7.44,6.45,7.44
		c2.1,0,3.51-0.42,4.77-0.84v8.14c-1.96,0.56-5.33,1.4-8.98,1.4C341.33,289.11,336.84,284.62,336.84,273.12z M365.18,279.85h4.63
		c1.12,0,1.68-0.56,1.68-2.81v-28.48c0-3.23-0.56-4.21-2.25-4.21h-4.07v-7.86h8.28c5.05,0,9.68-0.56,12.07-1.12v41.67
		c0,2.24,0.56,2.81,1.68,2.81h4.35v7.86h-26.38L365.18,279.85L365.18,279.85z M369.67,223.17c0-4.77,3.37-8.7,8.7-8.7
		c5.05,0,8.7,3.93,8.7,8.7s-3.65,8.7-8.7,8.7C373.18,231.73,369.67,227.94,369.67,223.17z M395.35,262.17
		c0-16,10.8-26.94,27.08-26.94c15.86,0,26.38,10.8,26.38,26.94s-10.8,27.08-26.8,27.08C406.01,289.11,395.35,278.31,395.35,262.17z
		 M434.92,262.88v-1.4c0-12.35-4.07-17.96-12.63-17.96c-8.84,0-12.77,5.61-12.77,17.96v1.4c0,12.35,3.93,17.96,12.77,17.96
		C430.85,280.69,434.92,275.08,434.92,262.88z M472.38,245.62c3.23-7.02,8.98-10.52,16.98-10.52c10.66,0,16.28,6.31,16.28,19.22
		v22.87c0,2.39,0.56,2.81,1.82,2.81h4.49v7.86h-25.82v-8h4.07c1.12,0,1.82-0.28,1.82-2.81V254.6c0-7.16-2.53-10.24-8.28-10.24
		c-6.88,0-10.94,5.33-10.94,16.7v16c0,2.39,0.56,2.81,1.82,2.81h4.07v7.86h-26.24v-7.86h4.49c1.12,0,1.82-0.28,1.82-2.81v-29.47
		c0-2.53-0.42-3.23-1.82-3.23h-4.49v-7.86h8c5.05,0,9.68-0.56,11.93-1.12V245.62L472.38,245.62z"/>
	<path id="XMLID_16_" class="st1" d="M48.92,206.05c-27.08,0-48.97,22.31-48.97,49.95s21.89,49.95,48.97,49.95
		S97.89,283.64,97.89,256C97.89,228.36,76,206.05,48.92,206.05z M70.95,288.41l-22.03-16.14l-22.03,16.14l8.42-26.1l-22.03-16.7
		h27.36l8.28-26.24l8.28,26.24h27.36l-22.17,16.7L70.95,288.41z"/>
</g>
</svg>
