<?xml version="1.0" encoding="UTF-8" standalone="no"?>
<!-- Created with Inkscape (http://www.inkscape.org/) -->

<svg
   version="1.1"
   id="svg1"
   width="600"
   height="600"
   viewBox="0 0 600 600"
   sodipodi:docname="AstraLogo.svg"
   inkscape:version="1.3.2 (091e20e, 2023-11-25, custom)"
   xmlns:inkscape="http://www.inkscape.org/namespaces/inkscape"
   xmlns:sodipodi="http://sodipodi.sourceforge.net/DTD/sodipodi-0.dtd"
   xmlns="http://www.w3.org/2000/svg"
   xmlns:svg="http://www.w3.org/2000/svg">
  <defs
     id="defs1" />
  <sodipodi:namedview
     id="namedview1"
     pagecolor="#ffffff"
     bordercolor="#000000"
     borderopacity="0.25"
     inkscape:showpageshadow="2"
     inkscape:pageopacity="0.0"
     inkscape:pagecheckerboard="0"
     inkscape:deskcolor="#d1d1d1"
     showgrid="false"
     inkscape:zoom="1.3683333"
     inkscape:cx="300.73082"
     inkscape:cy="358.46529"
     inkscape:window-width="1920"
     inkscape:window-height="1017"
     inkscape:window-x="-8"
     inkscape:window-y="-8"
     inkscape:window-maximized="1"
     inkscape:current-layer="g1" />
  <g
     inkscape:groupmode="layer"
     inkscape:label="Image"
     id="g1">
    <path
       style="fill:#eb6c34;stroke:none"
       d="m 107.61632,519.69306 h 78 c 7.25159,0 23.46246,3.04391 29.58103,-1.02777 4.76104,-3.16834 6.33284,-15.71378 8.08564,-20.97223 6.43479,-19.30435 12.56684,-38.7005 19,-58 15.86245,-47.58731 31.72225,-95.21741 46.98922,-143 8.41156,-26.32654 15.14883,-54.74396 26.34411,-80 12.7153,28.68515 20.71204,61.03027 30.02545,91 13.73072,44.18423 28.67682,88.10681 43.3079,132 6.43521,19.30563 12.5653,38.69592 19,58 1.76568,5.29702 3.45928,17.65976 8.17666,20.97223 5.84427,4.10376 22.44467,1.02777 29.48999,1.02777 h 78 c -2.18585,-14.80066 -10.30337,-30.02018 -15.57638,-44 -9.41745,-24.96759 -18.58191,-50.03076 -28,-75 -29.38108,-77.89524 -56.94291,-156.6088 -87.62732,-234 -12.44626,-31.39157 -42.08469,-51.8414 -75.7963,-52.29013 -36.1582,-0.4813 -65.28782,21.13345 -78.55093,54.29013 -30.89829,77.24319 -58.43645,156.04489 -87.49922,234 -9.82461,26.35254 -19.87812,52.62091 -29.63118,79 -4.48288,12.12481 -11.40259,25.20733 -13.31867,38 z"
       id="path1" />
  </g>
</svg>
