<svg xmlns="http://www.w3.org/2000/svg" width="250" height="250" fill="none"><path fill="#FFCB00" d="M125.349 194.323c-9.885-.243-18.039-4.634-23.247-13.801-5.337-9.475-5.104-19.175.586-28.416 13.548-21.994 27.273-43.866 40.914-65.794 2.789-4.484 5.514-9.035 8.433-13.436a27.341 27.341 0 0 1 16.88-11.866 27.175 27.175 0 0 1 20.314 3.356c12.842 7.968 17.138 24.54 9.141 37.601a5550.748 5550.748 0 0 1-49.738 80.035c-5.179 8.211-13.036 12.171-23.283 12.321Z"/><path fill="#FF3D57" d="M40.453 194.323c-9.977-.243-18.085-4.831-23.19-13.96-5.263-9.475-4.928-19.194.781-28.435a15665.457 15665.457 0 0 1 43.917-70.531c1.86-3.034 3.72-6.142 5.71-9.082A27.335 27.335 0 0 1 84.824 60.95a27.19 27.19 0 0 1 20.173 3.861 27.534 27.534 0 0 1 11.818 16.91 27.699 27.699 0 0 1-3.202 20.424c-16.29 26.488-32.805 52.882-49.329 79.248-5.365 8.548-13.26 12.78-23.831 12.93Z"/><path fill="#00D647" d="M210.793 140.636c15.035.075 27.207 12.106 27.179 26.862 0 14.981-12.497 27.059-27.672 26.872-15.175-.187-27.133-12.088-27.115-26.909.019-15.037 12.237-26.919 27.608-26.825Z"/></svg>