<svg xmlns="http://www.w3.org/2000/svg" width="250" height="250" fill="none"><g clip-path="url(#a)"><path fill="#205B97" d="m125.5 176.625 75.18 17.836V54.141L125.5 71.979v104.647Z"/><path fill="#5193CE" d="M200.68 54.142 215 61.276v126.051l-14.32 7.134V54.141ZM125.5 176.625l-75.18 17.836V54.141l75.18 17.837v104.647Z"/><path fill="#205B97" d="M50.32 54.142 36 61.276v126.051l14.32 7.134V54.141Z"/><path fill="#5193CE" d="m144.597 223 28.64-14.269V40.269L144.597 26l-8.756 93.547L144.597 223Z"/><path fill="#205B97" d="m106.403 223-28.64-14.269V40.269L106.403 26l8.756 93.547L106.403 223Z"/><path fill="#2E73B7" d="M106.403 26h38.582v196.602h-38.582V26Z"/></g><defs><clipPath id="a"><path fill="#fff" d="M36 26h179v197H36z"/></clipPath></defs></svg>