<svg xmlns="http://www.w3.org/2000/svg" viewBox="0 0 24 24" fill="none"><title>Calendly logo</title><path d="M16.45 15.558c-.776.676-1.743 1.516-3.504 1.516h-1.05c-1.273 0-2.43-.452-3.258-1.275-.809-.804-1.255-1.902-1.255-3.096v-1.411c0-1.194.446-2.294 1.255-3.097.828-.822 1.985-1.276 3.257-1.276h1.051c1.761 0 2.728.842 3.504 1.516.806.701 1.503 1.307 3.357 1.307.287 0 .57-.023.845-.067l-.007-.016a6.21 6.21 0 00-.39-.785l-1.24-2.107c-1.137-1.933-3.24-3.123-5.514-3.123h-2.48c-2.275 0-4.377 1.191-5.515 3.123l-1.24 2.107a6.143 6.143 0 000 6.246l1.24 2.107c1.137 1.933 3.24 3.123 5.515 3.123h2.48c2.274 0 4.376-1.191 5.514-3.123l1.24-2.107c.15-.255.28-.517.39-.785l.006-.016a5.404 5.404 0 00-.844-.066c-1.854 0-2.55.604-3.357 1.305z" fill="#006bff"/><path d="M12.946 8.198h-1.051c-1.936 0-3.21 1.357-3.21 3.093v1.412c0 1.736 1.273 3.093 3.21 3.093h1.05c2.822 0 2.601-2.822 6.86-2.822.409 0 .812.036 1.205.108a6.12 6.12 0 000-2.17 6.702 6.702 0 01-1.204.108c-4.26 0-4.039-2.822-6.86-2.822z" fill="#006bff"/><path d="M23.457 14.113a5.998 5.998 0 00-2.447-1.031l-.004.02a6.132 6.132 0 01-.356 1.216 4.717 4.717 0 012.024.816c-.003.006-.004.013-.006.02a10.585 10.585 0 01-1.52 3.026 10.872 10.872 0 01-2.375 2.393 10.965 10.965 0 01-6.547 2.138c-1.474 0-2.905-.284-4.251-.842a10.903 10.903 0 01-3.473-2.296 10.672 10.672 0 01-2.341-3.407 10.477 10.477 0 01-.858-4.17c0-1.448.289-2.851.858-4.171a10.673 10.673 0 012.341-3.407 10.903 10.903 0 013.473-2.296 11.041 11.041 0 014.251-.842c2.383 0 4.647.739 6.547 2.137A10.87 10.87 0 0121.15 5.81a10.584 10.584 0 011.519 3.026l.006.02a4.704 4.704 0 01-2.023.816c.16.396.28.804.355 1.217l.003.02a6 6 0 002.448-1.032c.697-.506.563-1.078.457-1.417-1.538-4.9-6.19-8.46-11.688-8.46C5.474.001 0 5.371 0 11.995c0 6.623 5.474 11.993 12.226 11.993 5.5 0 10.15-3.56 11.688-8.46.106-.337.241-.908-.457-1.415z" fill="#006bff"/><path d="M20.65 9.674a5.411 5.411 0 01-.845.066c-1.853 0-2.55-.605-3.355-1.306-.777-.675-1.744-1.516-3.504-1.516h-1.051c-1.273 0-2.43.453-3.258 1.276-.809.803-1.255 1.903-1.255 3.096v1.412c0 1.193.446 2.293 1.255 3.096.828.823 1.985 1.275 3.258 1.275h1.05c1.762 0 2.728-.84 3.505-1.516.806-.7 1.502-1.306 3.355-1.306.289 0 .57.023.846.066.161-.394.28-.802.355-1.215l.004-.02a6.693 6.693 0 00-1.205-.11c-4.26 0-4.038 2.823-6.86 2.823h-1.05c-1.937 0-3.21-1.356-3.21-3.093v-1.413c0-1.736 1.273-3.093 3.21-3.093h1.05c2.822 0 2.6 2.822 6.86 2.822.409 0 .812-.036 1.205-.108l-.004-.02a6.115 6.115 0 00-.355-1.216z" fill="#0ae8f0"/><path d="M20.65 9.674a5.411 5.411 0 01-.845.066c-1.853 0-2.55-.605-3.355-1.306-.777-.675-1.744-1.516-3.504-1.516h-1.051c-1.273 0-2.43.453-3.258 1.276-.809.803-1.255 1.903-1.255 3.096v1.412c0 1.193.446 2.293 1.255 3.096.828.823 1.985 1.275 3.258 1.275h1.05c1.762 0 2.728-.84 3.505-1.516.806-.7 1.502-1.306 3.355-1.306.289 0 .57.023.846.066.161-.394.28-.802.355-1.215l.004-.02a6.693 6.693 0 00-1.205-.11c-4.26 0-4.038 2.823-6.86 2.823h-1.05c-1.937 0-3.21-1.356-3.21-3.093v-1.413c0-1.736 1.273-3.093 3.21-3.093h1.05c2.822 0 2.6 2.822 6.86 2.822.409 0 .812-.036 1.205-.108l-.004-.02a6.115 6.115 0 00-.355-1.216z" fill="#0ae8f0"/></svg>
