<?xml version="1.0" encoding="UTF-8"?>
<svg id="Layer_1" data-name="Layer 1" xmlns="http://www.w3.org/2000/svg" viewBox="0 0 256 256">
  <defs>
    <style>
      .cls-1 {
        fill: #f1ad1d;
      }

      .cls-2 {
        fill: #84b940;
      }

      .cls-3 {
        fill: #e43238;
      }

      .cls-4 {
        fill: #221f1f;
      }

      .cls-5 {
        fill: #3567ae;
      }
    </style>
  </defs>
  <g>
    <path class="cls-3" d="M38.83,103.2c-15.49,0-28.39,6.57-28.39,26.39,0,15.7,8.68,25.59,28.79,25.59,23.68,0,25.19-15.6,25.19-15.6h-11.47s-2.46,8.4-14.42,8.4c-9.74,0-16.75-6.58-16.75-15.8h43.84v-5.79c0-9.13-5.79-23.19-26.79-23.19Zm-.4,7.4c9.27,0,15.6,5.68,15.6,14.2H22.04c0-9.04,8.25-14.2,16.4-14.2Z"/>
    <path class="cls-5" d="M65.61,84.01v61.23c0,3.47-.25,8.36-.25,8.36h10.94s.39-3.51,.39-6.71c0,0,5.41,8.46,20.11,8.46,15.48,0,25.99-10.75,25.99-26.14,0-14.32-9.66-25.84-25.97-25.84-15.28,0-20.02,8.25-20.02,8.25v-27.59h-11.2Zm28.39,26.92c10.51,0,17.19,7.8,17.19,18.27,0,11.23-7.72,18.57-17.12,18.57-11.22,0-17.27-8.76-17.27-18.47,0-9.05,5.43-18.37,17.2-18.37Z"/>
    <path class="cls-1" d="M149.99,103.2c-23.3,0-24.8,12.76-24.8,14.8h11.6s.61-7.45,12.4-7.45c7.66,0,13.59,3.51,13.59,10.25v2.4h-13.59c-18.05,0-27.59,5.28-27.59,16s8.82,16.28,20.73,16.28c16.24,0,21.47-8.97,21.47-8.97,0,3.57,.27,7.08,.27,7.08h10.31s-.4-4.36-.4-7.15v-24.11c0-15.81-12.75-19.13-23.99-19.13h0Zm12.79,27.19v3.2c0,4.17-2.57,14.55-17.73,14.55-8.3,0-11.86-4.14-11.86-8.95,0-8.74,11.98-8.8,29.59-8.8Z"/>
    <path class="cls-2" d="M167.74,105.21h13.05l18.72,37.51,18.68-37.51h11.82l-34.03,66.78h-12.4l9.82-18.62-25.67-48.17h0Z"/>
  </g>
  <g>
    <path class="cls-4" d="M235.36,105.79h-2.01v-.73h4.9v.73h-2.02v5.89h-.86v-5.89Z"/>
    <path class="cls-4" d="M244.56,108.77c-.05-.92-.11-2.03-.1-2.86h-.03c-.23,.78-.5,1.6-.83,2.51l-1.17,3.21h-.65l-1.07-3.15c-.31-.93-.58-1.79-.77-2.57h-.02c-.02,.82-.07,1.93-.13,2.92l-.18,2.84h-.81l.46-6.61h1.09l1.13,3.2c.27,.81,.5,1.54,.67,2.23h.03c.17-.67,.4-1.39,.7-2.23l1.18-3.2h1.09l.41,6.61h-.83l-.17-2.9Z"/>
  </g>
</svg>
