<?xml version="1.0" encoding="utf-8"?>
<!-- Generator: Adobe Illustrator 25.0.0, SVG Export Plug-In . SVG Version: 6.00 Build 0)  -->
<svg version="1.1" id="katman_1" xmlns="http://www.w3.org/2000/svg" xmlns:xlink="http://www.w3.org/1999/xlink" x="0px" y="0px"
	 viewBox="0 0 3991 2834.2" style="enable-background:new 0 0 3991 2834.2;" xml:space="preserve">
<style type="text/css">
	.st0{fill:#D9A741;}
	.st1{fill:#876929;}
	.st2{fill:#624A1E;}
	.st3{fill:#FAD791;}
</style>
<path class="st0" d="M3030.9,977.9l-33.3-0.6L1996.2,680.9l-0.6-13.7V167.2L3031,685L3030.9,977.9"/>
<path class="st1" d="M1995.5,697.1l0.1-529.9L960.1,684.8L960,2149.2l0.5,0.3v0L1995.4,2667l3.4-4.8l-1.3-492.4l-2-2.7l-64.7-46.1
	l-800.9-238.7l4-926.3L1995.5,697.1"/>
<path class="st0" d="M2150.3,1747.2L1092.3,1896l0.1-958l1058.1,149L2150.3,1747.2"/>
<path class="st1" d="M1614.2,1686.6l381.3,48.5l0.1-636.3l-381.3,48.5L1614.2,1686.6 M1230.1,1637.7l247.4,31.5l0.1-504.5
	l-247.5,31.5V1637.7"/>
<path class="st2" d="M1092.3,938l903.3-270.9l1035.3,310.8l-879.9,109.2L1092.3,938"/>
<path class="st0" d="M3030.4,1602.2l-1034.9,130.6l0.1-634l1034.9,131.8V1602.2 M3030.3,1856.7l-22.3,1l-1009.4,305.6l-3.2,3.9
	l-0.1,500l1034.9-517.4V1856.7"/>
<path class="st3" d="M1092.3,1896l903.2,271.1l1034.9-310.4l-880-109.5L1092.3,1896"/>
</svg>
