<?xml version="1.0" encoding="utf-8"?>
<!-- Generator: Adobe Illustrator 25.0.1, SVG Export Plug-In . SVG Version: 6.00 Build 0)  -->
<svg version="1.1" id="Layer_1" xmlns="http://www.w3.org/2000/svg" xmlns:xlink="http://www.w3.org/1999/xlink" x="0px" y="0px"
	 viewBox="0 0 675 675.7" style="enable-background:new 0 0 675 675.7;" xml:space="preserve">
<style type="text/css">
	.st0{fill:#FFFFFF;}
	.st1{fill:#00B3E6;}
</style>
<g>
	<g>
		<path class="st0" d="M266.3,675.7c-20-1.1-37.2-8.1-51.3-22.1C150.8,589.4,86.6,525.3,22.5,461.1c-21.4-21.4-27-47-19-75.9
			C9,365.2,14.1,345.1,19.4,325c5.2-19.6,10.6-39.1,15.8-58.7c6.6-24.4,13.2-48.8,19.8-73.2c6.4-23.7,12.2-47.7,19.4-71.1
			c8-26.2,26.4-42.2,52.8-49.2c23.2-6.2,46.4-12.3,69.6-18.5c23.4-6.2,46.6-12.5,70-18.8c26.9-7.3,53.9-14.6,80.9-21.7
			c16.9-4.5,33.7-9.5,50.8-12.6c23.5-4.2,44.4,3.3,61.1,20c64.9,64.6,129.7,129.2,194.2,194.2c20.5,20.6,25.5,45.8,17.8,73.9
			c-8,29-15.6,58.2-23.4,87.2c-8.7,32.5-17.5,65-26.2,97.5c-7.1,26.4-13.6,53-21.4,79.2c-7.5,24.9-24.9,41-50,48.1
			c-25,7.1-50.3,13.6-75.4,20.3c-28.7,7.7-57.3,15.3-86,23c-32.6,8.7-65.2,17.6-97.8,26.2C282.9,672.9,274.6,674.1,266.3,675.7z"/>
	</g>
</g>
<g id="XMLID_1716_">
	<g id="XMLID_1717_">
		<g id="XMLID_1718_">
			<path id="XMLID_1719_" class="st1" d="M322.8,297.6c-9.8-9.8-22.2-14.7-37.1-14.7c-14.9,0-27.2,4.9-36.9,14.7
				c-9.7,9.8-14.5,22.4-14.5,37.8s4.8,28,14.5,37.8c9.7,9.8,22,14.7,36.9,14.7c14.9,0,27.3-4.9,37.1-14.7
				c9.8-9.8,14.7-22.4,14.7-37.8S332.6,307.4,322.8,297.6z M322.8,297.6c-9.8-9.8-22.2-14.7-37.1-14.7c-14.9,0-27.2,4.9-36.9,14.7
				c-9.7,9.8-14.5,22.4-14.5,37.8s4.8,28,14.5,37.8c9.7,9.8,22,14.7,36.9,14.7c14.9,0,27.3-4.9,37.1-14.7
				c9.8-9.8,14.7-22.4,14.7-37.8S332.6,307.4,322.8,297.6z M322.8,297.6c-9.8-9.8-22.2-14.7-37.1-14.7c-14.9,0-27.2,4.9-36.9,14.7
				c-9.7,9.8-14.5,22.4-14.5,37.8s4.8,28,14.5,37.8c9.7,9.8,22,14.7,36.9,14.7c14.9,0,27.3-4.9,37.1-14.7
				c9.8-9.8,14.7-22.4,14.7-37.8S332.6,307.4,322.8,297.6z M322.8,297.6c-9.8-9.8-22.2-14.7-37.1-14.7c-14.9,0-27.2,4.9-36.9,14.7
				c-9.7,9.8-14.5,22.4-14.5,37.8s4.8,28,14.5,37.8c9.7,9.8,22,14.7,36.9,14.7c14.9,0,27.3-4.9,37.1-14.7
				c9.8-9.8,14.7-22.4,14.7-37.8S332.6,307.4,322.8,297.6z M322.8,297.6c-9.8-9.8-22.2-14.7-37.1-14.7c-14.9,0-27.2,4.9-36.9,14.7
				c-9.7,9.8-14.5,22.4-14.5,37.8s4.8,28,14.5,37.8c9.7,9.8,22,14.7,36.9,14.7c14.9,0,27.3-4.9,37.1-14.7
				c9.8-9.8,14.7-22.4,14.7-37.8S332.6,307.4,322.8,297.6z M477.7,495.5c-3.8-3.8-8.5-5.7-14.1-5.7c-5.6,0-10.3,1.9-14,5.7
				c-3.7,3.8-5.6,8.6-5.6,14.4c0,5.8,1.9,10.6,5.6,14.4c3.7,3.8,8.4,5.7,14,5.6c5.6,0,10.3-1.9,14.1-5.7c3.8-3.8,5.7-8.6,5.6-14.4
				C483.3,504.1,481.4,499.3,477.7,495.5z M477.7,495.5c-3.8-3.8-8.5-5.7-14.1-5.7c-5.6,0-10.3,1.9-14,5.7
				c-3.7,3.8-5.6,8.6-5.6,14.4c0,5.8,1.9,10.6,5.6,14.4c3.7,3.8,8.4,5.7,14,5.6c5.6,0,10.3-1.9,14.1-5.7c3.8-3.8,5.7-8.6,5.6-14.4
				C483.3,504.1,481.4,499.3,477.7,495.5z M322.8,297.6c-9.8-9.8-22.2-14.7-37.1-14.7c-14.9,0-27.2,4.9-36.9,14.7
				c-9.7,9.8-14.5,22.4-14.5,37.8s4.8,28,14.5,37.8c9.7,9.8,22,14.7,36.9,14.7c14.9,0,27.3-4.9,37.1-14.7
				c9.8-9.8,14.7-22.4,14.7-37.8S332.6,307.4,322.8,297.6z M653.8,215.6L459.7,21.5C441.4,3.3,414.8-3.9,389.8,2.8l-265.2,71
				c-25,6.7-44.5,26.2-51.1,51.1L39.6,251.4c15.2-9.5,32.8-14.4,52.7-14.4c18.1,0,34.6,4.3,49.6,13c14.9,8.7,26.2,20.4,33.9,35
				l-41.4,24.2c-3.7-7.7-9.4-13.8-16.9-18.3c-7.6-4.5-16.1-6.7-25.5-6.7c-14.4,0-26.3,4.8-35.8,14.3c-9.4,9.6-14.2,21.8-14.2,36.7
				c0,14.7,4.7,26.8,14.2,36.3C65.7,381.3,77.6,386,92,386c9.7,0,18.3-2.2,25.9-6.5c7.6-4.3,13.2-10.4,17-18.1l41.7,23.8
				c-8.2,14.7-19.7,26.4-34.6,35.2c-14.9,8.8-31.4,13.2-49.6,13.2c-28.1,0-51.5-9.4-70.2-28.3c-7.2-7.2-13-15.2-17.4-23.7l-2.3,8.5
				c-6.7,25,0.4,51.6,18.7,69.9l194.1,194.1c18.3,18.3,44.9,25.4,69.9,18.7l265.2-71c25-6.7,44.5-26.2,51.1-51.1l1.2-4.5h-0.1
				l0-43.4c0-4.4-1.1-7.7-3.2-10.2c-2.1-2.4-5.1-3.6-9-3.6c-4.3,0-7.6,1.4-9.9,4.2c-2.4,2.8-3.5,6.9-3.5,12.2l0,40.8l-18.7,0l0-43.4
				c0-4.4-1.1-7.7-3.2-10.2c-2.1-2.4-5.1-3.6-9-3.6c-4.2,0-7.5,1.4-9.9,4.2c-2.5,2.8-3.7,6.9-3.7,12.2l0,40.8l-18.7,0l0-72.6l18.7,0
				l0,7.7c4.3-6.5,11.1-9.7,20.2-9.7c8.9,0,15.5,3.5,19.8,10.4c4.8-7,12-10.5,21.6-10.5c8.3,0,15,2.7,20,8.1c2,2.1,3.6,4.6,4.8,7.3
				l15.5-58c-30.3,2.8-52-0.4-64.9-9.8c-13.5-9.9-20.3-27.7-20.3-53.3V206.7L597,179v63.3h42.1v46.2H597v77.5
				c0,6.5,1.6,11.2,4.8,14.1c3.2,3,7.9,4.7,14.2,5c5.3,0.3,19.9,0.3,29.8,0l26.7-99.6C679.2,260.6,672.1,233.9,653.8,215.6z
				 M330.6,547.5c-6.8,0-12.4-5.5-12.4-12.3c0-6.8,5.5-12.4,12.3-12.4c6.8,0,12.4,5.5,12.4,12.4
				C342.9,541.9,337.4,547.5,330.6,547.5z M337.5,406.5c-7.2,9.1-15.9,15.9-26,20.4c-10.1,4.5-21.7,6.8-34.7,6.8
				c-24.8,0-46.1-9.5-63.9-28.5c-17.8-19-26.6-42.3-26.6-69.9c0-27.6,8.9-50.8,26.6-69.8c17.7-19,39-28.5,63.9-28.5
				c26.1,0,46.3,9.1,60.7,27.2v-22h48v186.3h-26.1C347.4,428.5,337.5,418.7,337.5,406.5z M406.7,543.1c-5.8,3.4-12.3,5.2-19.3,5.2
				c-11,0-20.1-3.7-27.4-11c-7.3-7.4-11-16.5-11-27.3c0-10.9,3.6-20,11-27.4c7.3-7.4,16.5-11.1,27.4-11.1c7.1,0,13.5,1.7,19.3,5.1
				c5.8,3.4,10.2,7.9,13.2,13.7l-16.1,9.5c-1.5-3-3.7-5.4-6.6-7.1c-3-1.7-6.3-2.6-10-2.6c-5.6,0-10.3,1.9-14,5.6
				c-3.7,3.7-5.5,8.5-5.5,14.3c0,5.7,1.8,10.5,5.5,14.2c3.7,3.7,8.3,5.6,14,5.6c3.8,0,7.2-0.9,10.1-2.6c2.9-1.7,5.2-4,6.6-7.1
				l16.3,9.3C417,535.1,412.5,539.7,406.7,543.1z M490.9,537.1c-7.5,7.4-16.6,11.1-27.3,11.1c-10.7,0-19.8-3.7-27.2-11.1
				c-7.4-7.4-11.1-16.5-11.1-27.2c0-10.7,3.7-19.8,11.1-27.2c7.4-7.4,16.5-11.1,27.2-11.1c10.7,0,19.9,3.7,27.3,11.1
				c7.5,7.4,11.2,16.5,11.2,27.2C502.1,520.6,498.4,529.7,490.9,537.1z M521.4,292.2c-14.6-1.7-27.7,1.2-39.3,8.9
				c-11.5,7.7-17.3,20.5-17.3,38.4v89h-48.1V242.2h48.1v32c4.5-11.9,11.9-20.9,22.2-26.8c10.3-6,21.8-8.9,34.4-8.9V292.2z
				 M463.6,489.9c-5.6,0-10.3,1.9-14,5.7c-3.7,3.8-5.6,8.6-5.6,14.4c0,5.8,1.9,10.6,5.6,14.4c3.7,3.8,8.4,5.7,14,5.6
				c5.6,0,10.3-1.9,14.1-5.7c3.8-3.8,5.7-8.6,5.6-14.4c0-5.8-1.9-10.6-5.7-14.4S469.2,489.9,463.6,489.9z M285.7,282.8
				c-14.9,0-27.2,4.9-36.9,14.7c-9.7,9.8-14.5,22.4-14.5,37.8s4.8,28,14.5,37.8c9.7,9.8,22,14.7,36.9,14.7
				c14.9,0,27.3-4.9,37.1-14.7c9.8-9.8,14.7-22.4,14.7-37.8s-4.9-28-14.7-37.8C313,287.8,300.6,282.8,285.7,282.8z"/>
		</g>
	</g>
</g>
</svg>
