<svg version="1.0" xmlns="http://www.w3.org/2000/svg"
 width="300.000000pt" height="300.000000pt" viewBox="0 0 300.000000 300.000000"
 preserveAspectRatio="xMidYMid meet">

<g transform="translate(0.000000,300.000000) scale(0.100000,-0.100000)"
fill="#000000" stroke="none">
<path d="M0 1500 l0 -1500 1500 0 1500 0 0 1500 0 1500 -1500 0 -1500 0 0
-1500z m770 178 l5 -437 305 439 305 440 115 -3 115 -2 5 -438 5 -439 305 439
305 438 118 3 117 3 0 -636 0 -635 -110 0 -110 0 0 441 c0 263 -4 438 -9 435
-5 -4 -145 -202 -311 -441 l-301 -435 -120 0 -119 0 -2 439 -3 439 -305 -439
-304 -439 -118 0 -118 0 0 635 0 636 113 -3 112 -3 5 -437z"/>
</g>
</svg>
