<?xml version="1.0" encoding="utf-8"?>
<!-- Generator: Adobe Illustrator 25.4.1, SVG Export Plug-In . SVG Version: 6.00 Build 0)  -->
<svg version="1.1" xmlns="http://www.w3.org/2000/svg" xmlns:xlink="http://www.w3.org/1999/xlink" x="0px" y="0px"
	 viewBox="0 0 600 636" style="enable-background:new 0 0 600 636;" xml:space="preserve">
<style type="text/css">
	.st0{fill:#FFFFFF;}
	.st1{fill:#FF761C;}
	.st2{fill:#FF8C1E;}
	.st3{fill:#00C1AD;}
	.st4{fill:#D1D1D1;}
	.st5{fill:#003037;}
</style>
<g id="Logo_RGB_Claim">
	<g>
		<g>
			<g>
				<path class="st1" d="M161.5,403.7c-2.4,1.1-4,3.5-4,6.1c0,2.6,1.5,5,3.9,6.1l132.9,60.9c1.8,0.8,3.7,1.2,5.6,1.3V342
					c-2,0-4,0.4-5.8,1.2L161.5,403.7z"/>
			</g>
			<g>
				<path class="st2" d="M300,342v136c2.1,0,4.1-0.4,6-1.3L438.5,416c2.4-1.1,4-3.5,3.9-6.1c0-2.6-1.5-5-4-6.1l-132.8-60.6
					C303.9,342.4,302,342,300,342"/>
				<path class="st3" d="M157.5,225.7c0,2.7,1.5,5,3.9,6.1l132.9,60.9c1.8,0.8,3.7,1.2,5.6,1.3c1.7,0,3.4-0.3,5-0.8
					c1.3-0.6,1-0.5,3.7-1.7c13.7-6.2,4.6-2.1,129.8-59.5c2.4-1.1,4-3.5,3.9-6.1c0-2.6-1.5-5-4-6.1l-132.8-60.6
					c-3.7-1.7-7.9-1.7-11.6,0l-132.7,60.4C159.1,220.7,157.5,223.1,157.5,225.7"/>
			</g>
			<path class="st4" d="M300,301.6V342c-2,0-4,0.4-5.8,1.2l-132.7,60.4c-2.4,1.1-4,3.5-4,6.1l0-179.5v-4.5c0,2.6,1.5,5,3.9,6.1
				l132.9,60.9c1.8,0.8,3.7,1.2,5.6,1.3c1.7,0,3.4-0.3,5-0.8l-0.2,0.1C300.6,295.1,300,297,300,301.6"/>
		</g>
	</g>
</g>
<g id="Logo_RGB">
</g>
</svg>
