<?xml version="1.0" encoding="UTF-8"?>
<svg width="56px" height="56px" viewBox="0 0 56 56" version="1.1" xmlns="http://www.w3.org/2000/svg" xmlns:xlink="http://www.w3.org/1999/xlink">
    <!-- Generator: Sketch 49.3 (51167) - http://www.bohemiancoding.com/sketch -->
    <title>logo</title>
    <desc>Created with Sketch.</desc>
    <defs></defs>
    <g id="Page-1" stroke="none" stroke-width="1" fill="none" fill-rule="evenodd">
        <g id="siteship_landing" transform="translate(-165.000000, -43.000000)">
            <g id="hero-+-domain">
                <g id="logo" transform="translate(165.000000, 43.000000)">
                    <circle id="Oval" fill="#202BFF" cx="28" cy="28" r="28"></circle>
                    <g id="Group-46" transform="translate(12.000000, 16.000000)" fill="#FFFFFF">
                        <path d="M21.66945,7.7001 C21.39795,7.7001 21.20295,7.5636 21.07095,7.3386 C20.88045,7.0041 21.02445,6.5856 21.32595,6.4296 L29.40045,2.2566 L11.83395,2.2566 L1.44345,7.6281 C1.08345,7.7856 0.69045,7.6746 0.49995,7.3386 C0.37695,7.0041 0.47745,6.5856 0.82245,6.4296 L11.37645,0.9756 C11.48145,0.9531 11.53245,0.9246 11.65245,0.9246 L32.22345,0.9246 C32.50245,0.9246 32.80395,1.1271 32.88495,1.4301 C32.92395,1.7331 32.80845,2.0481 32.50095,2.1891 L21.94695,7.6281 C21.90045,7.6851 21.78495,7.7001 21.66945,7.7001" id="Fill-496"></path>
                        <path d="M5.6733,7.7001 L1.0983,7.7001 C0.7518,7.7001 0.4773,7.3896 0.4773,7.0296 C0.4773,6.6486 0.7518,6.3471 1.0983,6.3471 L5.6733,6.3471 C6.0198,6.3471 6.3558,6.6486 6.3558,7.0296 C6.3558,7.3896 6.0198,7.7001 5.6733,7.7001" id="Fill-497"></path>
                        <path d="M26.9136,2.256 L16.6611,2.256 C16.3146,2.256 15.9786,1.9545 15.9786,1.5765 C15.9786,1.2255 16.3146,0.9255 16.6611,0.9255 L26.9136,0.9255 C27.3276,0.9255 27.5961,1.2255 27.5961,1.5765 C27.5961,1.9545 27.3276,2.256 26.9136,2.256" id="Fill-498"></path>
                        <path d="M21.66945,11.1519 L16.35195,11.1519 C15.93945,11.1519 15.67095,10.8504 15.67095,10.4694 C15.67095,10.1214 15.93945,9.8199 16.35195,9.8199 L21.48795,9.8199 L31.87995,4.4484 C32.24595,4.2909 32.63445,4.4034 32.82345,4.7379 C32.94645,5.0724 32.86695,5.4909 32.50095,5.6469 L21.94695,11.0694 C21.90195,11.1234 21.78945,11.1519 21.66945,11.1519" id="Fill-499"></path>
                        <path d="M6.35595,11.1519 L1.09845,11.1519 C0.75195,11.1519 0.47745,10.8504 0.47745,10.4694 C0.47745,10.1214 0.75195,9.8199 1.09845,9.8199 L6.35595,9.8199 C6.70245,9.8199 7.03845,10.1214 7.03845,10.4694 C7.03845,10.8504 6.70245,11.1519 6.35595,11.1519" id="Fill-500"></path>
                        <path d="M21.66945,14.59365 C21.39795,14.59365 21.20295,14.51265 21.07095,14.25465 C20.88045,13.95315 21.02445,13.50015 21.32595,13.36365 L31.87995,7.92315 C32.24595,7.73115 32.63445,7.87665 32.82345,8.21265 C32.94645,8.54715 32.86695,8.93115 32.50095,9.12165 L21.94695,14.57715 C21.90045,14.58765 21.78495,14.59365 21.66945,14.59365" id="Fill-501"></path>
                        <path d="M6.35595,14.59365 L1.09845,14.59365 C0.75195,14.59365 0.47745,14.32515 0.47745,13.97265 C0.47745,13.56315 0.75195,13.29615 1.09845,13.29615 L6.35595,13.29615 C6.70245,13.29615 7.03845,13.56315 7.03845,13.97265 C7.03845,14.32515 6.70245,14.59365 6.35595,14.59365" id="Fill-502"></path>
                        <path d="M21.54345,14.59365 L16.35195,14.59365 C15.93945,14.59365 15.67095,14.32515 15.67095,13.97265 C15.67095,13.56315 15.93945,13.29615 16.35195,13.29615 L21.54345,13.29615 C21.90195,13.29615 22.22595,13.56315 22.22595,13.97265 C22.22595,14.32515 21.90195,14.59365 21.54345,14.59365" id="Fill-503"></path>
                        <path d="M21.66945,18.099 C21.39795,18.099 21.20295,17.9505 21.07095,17.6925 C20.88045,17.391 21.02445,17.0055 21.32595,16.818 L31.88145,11.3745 C32.24895,11.208 32.63445,11.3505 32.82345,11.676 C32.94645,11.988 32.86695,12.405 32.49945,12.594 L21.94545,18.015 C21.90045,18.072 21.78495,18.099 21.66945,18.099" id="Fill-504"></path>
                        <path d="M6.35595,18.099 L1.09845,18.099 C0.75195,18.099 0.47745,17.763 0.47745,17.4165 C0.47745,17.037 0.75195,16.734 1.09845,16.734 L6.35595,16.734 C6.70245,16.734 7.03845,17.037 7.03845,17.4165 C7.03845,17.763 6.70245,18.099 6.35595,18.099" id="Fill-505"></path>
                        <path d="M21.54345,18.099 L16.35195,18.099 C15.93945,18.099 15.67095,17.763 15.67095,17.4165 C15.67095,17.037 15.93945,16.734 16.35195,16.734 L21.54345,16.734 C21.90195,16.734 22.22595,17.037 22.22595,17.4165 C22.22595,17.763 21.90195,18.099 21.54345,18.099" id="Fill-506"></path>
                        <path d="M21.66945,21.54135 C21.39795,21.54135 21.20295,21.39285 21.07095,21.20235 C20.88045,20.83335 21.02445,20.44785 21.32595,20.26035 L31.87995,14.83785 C32.24595,14.64885 32.63445,14.79285 32.82345,15.16035 C32.94645,15.46185 32.86695,15.84735 32.50095,16.03635 L21.94695,21.45735 C21.90045,21.51435 21.78495,21.54135 21.66945,21.54135" id="Fill-507"></path>
                        <path d="M6.35595,21.54135 L1.09845,21.54135 C0.75195,21.54135 0.47745,21.27285 0.47745,20.85885 C0.47745,20.51085 0.75195,20.17635 1.09845,20.17635 L6.35595,20.17635 C6.70245,20.17635 7.03845,20.51085 7.03845,20.85885 C7.03845,21.27285 6.70245,21.54135 6.35595,21.54135" id="Fill-508"></path>
                        <path d="M21.54345,21.54135 L16.35195,21.54135 C15.93945,21.54135 15.67095,21.27285 15.67095,20.85885 C15.67095,20.51085 15.93945,20.17635 16.35195,20.17635 L21.54345,20.17635 C21.90195,20.17635 22.22595,20.51085 22.22595,20.85885 C22.22595,21.27285 21.90195,21.54135 21.54345,21.54135" id="Fill-509"></path>
                        <path d="M16.3521,22.6371 L6.3561,22.6371 C5.9826,22.6371 5.6736,22.3686 5.6736,21.9546 L5.6736,7.0296 C5.6736,6.6486 5.9826,6.3471 6.3561,6.3471 C6.7026,6.3471 7.0386,6.6486 7.0386,7.0296 L7.0386,21.3201 L15.6711,21.3201 L15.6711,7.0296 C15.6711,6.6486 15.9396,6.3471 16.3521,6.3471 C16.7001,6.3471 17.0046,6.6486 17.0046,7.0296 L17.0046,21.9546 C17.0046,22.3686 16.7001,22.6371 16.3521,22.6371" id="Fill-510"></path>
                        <path d="M21.4497,7.7001 L16.9407,7.7001 C16.5282,7.7001 16.2597,7.3896 16.2597,7.0296 C16.2597,6.6486 16.5282,6.3471 16.9407,6.3471 L21.4497,6.3471 C21.8622,6.3471 22.1322,6.6486 22.1322,7.0296 C22.1322,7.3896 21.8622,7.7001 21.4497,7.7001" id="Fill-511"></path>
                        <path d="M21.4497,7.7001 L16.9407,7.7001 C16.5282,7.7001 16.2597,7.3896 16.2597,7.0296 C16.2597,6.6486 16.5282,6.3471 16.9407,6.3471 L21.4497,6.3471 C21.8622,6.3471 22.1322,6.6486 22.1322,7.0296 C22.1322,7.3896 21.8622,7.7001 21.4497,7.7001" id="Fill-512"></path>
                        <path d="M13.8603,18.975 C11.1453,18.975 8.9853,16.8165 8.9853,14.1015 C8.9853,11.421 11.1453,9.231 13.8603,9.231 C14.2068,9.231 14.5413,9.537 14.5413,9.912 C14.5413,10.293 14.2068,10.596 13.8603,10.596 C11.9058,10.596 10.2843,12.1815 10.2843,14.1015 C10.2843,16.0575 11.9058,17.646 13.8603,17.646 C14.2068,17.646 14.5413,17.9445 14.5413,18.2925 C14.5413,18.7065 14.2068,18.975 13.8603,18.975" id="Fill-513"></path>
                        <path d="M12.6636,13.85235 L8.5386,13.85235 C8.1921,13.85235 7.8561,13.51635 7.8561,13.16985 C7.8561,12.78885 8.1921,12.48735 8.5386,12.48735 L12.6636,12.48735 C13.0116,12.48735 13.3296,12.78885 13.3296,13.16985 C13.3296,13.51635 13.0116,13.85235 12.6636,13.85235" id="Fill-514"></path>
                        <path d="M12.6636,15.783 L8.5386,15.783 C8.1921,15.783 7.8561,15.447 7.8561,15.1005 C7.8561,14.6865 8.1921,14.418 8.5386,14.418 L12.6636,14.418 C13.0116,14.418 13.3296,14.6865 13.3296,15.1005 C13.3296,15.447 13.0116,15.783 12.6636,15.783" id="Fill-515"></path>
                    </g>
                </g>
            </g>
        </g>
    </g>
</svg>