<svg xmlns="http://www.w3.org/2000/svg" viewBox="0 0 652 652">
  <path fill="#324354" d="M88.1 338v-83.5h27.2v80c0 5.6 1.3 7 7 7h2.3l3.2 22.1c-2.1.3-10.5.9-15.6.9-14.9.1-24.1-5.2-24.1-26.5zm208.5-50.9 21.2-1.7 2.1 6.3c4.3-4 11.7-8 27.6-8 27.5 0 33.8 19.4 33.8 41 0 21.7-7 40.9-35.4 40.9-12.6 0-18.6-2.9-22-6v27.5h-27.2v-100zm57 38.7c0-9.2-1.7-17.3-13.4-17.3-12.6 0-16.4 6.4-16.4 17.3s2.7 16.8 16.4 16.8c11.4 0 13.4-7.6 13.4-16.8zm124.7-38.7 21.2-1.7 2.7 8.3c3.4-4.7 12.9-8.7 24.2-9.1v26.2c-18.1.1-20.9 5.5-20.9 16.3v37.3h-27.2v-77.3zm55.7-2.5h14l4.4-16 21-4.6v20.5h17.2v26.2h-17.2v22.7c0 5.4.9 8.1 9.3 8.1h7.9v22.7c-4.1.3-8.7.4-13.7.4-23 0-30.5-7.3-30.5-27.1v-26.8H534v-26.1z"/>
  <path fill="#fa5959" d="M598.2 341.6h22.7v22.7h-22.7z"/>
  <path fill="#324354" d="M20.9 285.5h14.9V284c0-19.8 7.4-29.7 33-29.7 6.7 0 8 .1 11.3.4v22.1h-7.6c-7.8 0-9.5 1.9-9.5 7v1.7h17v23.1H63v55.7H35.7v-55.7H20.8l.1-23.1zm166.2 55.3c-4.5 2.6-6.8 3.2-15.8 3.2-10.7 0-14.8-3.8-16.1-10.2h52.3c1-27.7-1.4-50.1-36.2-50.1-35 0-42.3 19.3-42.3 40.7 0 22 7.3 41.4 42.3 41.4 13.8 0 22.5-2.6 31.7-8.5l-15.9-16.5zm-16.6-34.7c11.2 0 12 5.4 12.4 11.7h-28c1.1-7.5 4.6-11.7 15.6-11.7z"/>
  <path fill="#324354" d="m261.5 364.3-13.4-19-13.3 19h-30.4l28.5-40.6-25.9-36.6h30.7l10.5 14.9 10.6-14.9h31.1l-26.4 36.4 28.6 40.8zm125.4-39.6c0-26.1 12-41 42.7-41s42.6 14.9 42.6 41-11.8 41.1-42.6 41.1-42.7-15-42.7-41.1zm58 .8c0-9.9-2.4-17-15.3-17-12.8 0-15.3 7.1-15.3 17 0 9.7 2.4 17 15.3 17 12.8.1 15.3-7.2 15.3-17z"/>
</svg>
