<?xml version="1.0" encoding="UTF-8" standalone="no"?>
<svg
   xmlns:dc="http://purl.org/dc/elements/1.1/"
   xmlns:cc="http://creativecommons.org/ns#"
   xmlns:rdf="http://www.w3.org/1999/02/22-rdf-syntax-ns#"
   xmlns:svg="http://www.w3.org/2000/svg"
   xmlns="http://www.w3.org/2000/svg"
   xmlns:sodipodi="http://sodipodi.sourceforge.net/DTD/sodipodi-0.dtd"
   xmlns:inkscape="http://www.inkscape.org/namespaces/inkscape"
   version="1.1"
   id="svg2"
   xml:space="preserve"
   width="64"
   height="64"
   viewBox="0 0 64 64"
   sodipodi:docname="freshdesk.eps"><metadata
     id="metadata8"><rdf:RDF><cc:Work
         rdf:about=""><dc:format>image/svg+xml</dc:format><dc:type
           rdf:resource="http://purl.org/dc/dcmitype/StillImage" /></cc:Work></rdf:RDF></metadata><defs
     id="defs6" /><sodipodi:namedview
     pagecolor="#ffffff"
     bordercolor="#666666"
     borderopacity="1"
     objecttolerance="10"
     gridtolerance="10"
     guidetolerance="10"
     inkscape:pageopacity="0"
     inkscape:pageshadow="2"
     inkscape:window-width="640"
     inkscape:window-height="480"
     id="namedview4" /><g
     id="g10"
     inkscape:groupmode="layer"
     inkscape:label="ink_ext_XXXXXX"
     transform="matrix(1.3333333,0,0,-1.3333333,0,64)"><g
       id="g12"
       transform="scale(0.1)"><path
         d="m 239.262,480 h 180.269 c 16.09,0.121 31.559,-6.211 42.93,-17.578 C 473.828,451.02 480.16,435.551 480,419.449 V 239.262 C 480,107.07 372.93,0 240.738,0 h -1.359 C 175.898,-0.0390625 115.039,25.1211 70.1211,69.9609 25.2305,114.84 0,175.699 0,239.18 0,371.719 106.91,478.629 239.262,480 Z"
         style="fill:#25c16f;fill-opacity:1;fill-rule:nonzero;stroke:none"
         id="path14" /><path
         d="m 239.262,373.09 c -60.711,0 -109.922,-49.219 -109.922,-109.93 v -74.719 c 0.43,-20 16.558,-36.101 36.558,-36.531 h 31.09 v 85.82 h -42.027 v 24.032 c 2.578,45.187 39.961,80.539 85.238,80.539 45.27,0 82.61,-35.313 85.153,-80.539 V 237.73 H 282.73 v -85.89 h 28.09 v -1.371 c -0.269,-18.559 -15.23,-33.52 -33.75,-33.75 h -33.519 c -2.731,0 -5.742,-1.367 -5.742,-4.059 0.121,-3.129 2.621,-5.629 5.742,-5.75 h 33.75 c 24.027,0.16 43.48,19.61 43.64,43.641 v 2.73 c 16.52,3.707 28.239,18.481 28.079,35.43 v 73.051 c 1.371,61.91 -47.731,111.25 -109.918,111.25 z"
         style="fill:#ffffff;fill-opacity:1;fill-rule:nonzero;stroke:none"
         id="path16" /></g></g></svg>
