<?xml version="1.0" standalone="yes"?>
<svg xmlns="http://www.w3.org/2000/svg" width="512" height="512">
<path style="fill:#859fa5; stroke:none;" d="M0 0L1 1L0 0z"/>
<path style="fill:#6cafbb; stroke:none;" d="M1.6034 1.02777C-1.59954 3.56454 0 12.3675 0 16L0 59L0 234L0 438L0 491C0 495.705 -2.00982 506.561 1.02778 510.397C4.62764 514.942 23.479 512 29 512L114 512L407 512L483 512C489.223 512 505.43 514.906 510.397 510.972C513.6 508.435 512 499.632 512 496L512 453L512 278L512 74L512 21C512 16.2946 514.01 5.43866 510.972 1.60339C507.372 -2.94177 488.521 0 483 0L398 0L105 0L29 0C22.7775 0 6.57041 -2.90619 1.6034 1.02777z"/>
<path style="fill:#859fa5; stroke:none;" d="M511 0L512 1L511 0z"/>
<path style="fill:#1eb3c7; stroke:none;" d="M1 1L1 511L511 511L511 1L1 1z"/>
<path style="fill:#a3d7e1; stroke:none;" d="M329.667 43.3333L330.333 43.6667L329.667 43.3333z"/>
<path style="fill:#feffff; stroke:none;" d="M246 340C230.48 339.99 214.407 336.935 199 340.211C193.041 341.478 184.341 343.41 184.213 351.001C183.904 369.336 213.441 385.62 226 395.13C228.207 396.801 241.862 405.61 237.534 408.933C234.193 411.498 223.832 408.107 220 407.389C214.927 406.438 207.405 406.255 203.108 403.258C195.079 397.659 191.265 377.895 187.312 369C183.654 360.767 183.996 345.348 171 347.218C150.043 350.232 165.66 372.721 170.508 382C172.152 385.147 175.845 392.298 171.678 394.957C168.041 397.278 162.399 393.55 159 392.204C147.119 387.497 141.374 378.598 131 371.97C127.411 369.677 121.404 367.522 117.419 370.179C111.633 374.037 115.81 383.739 118.8 387.999C125.942 398.175 138.125 400.338 148 406.7C150.774 408.487 156.941 411.939 156.369 415.946C155.811 419.854 150.135 420.904 147 420.921C138.696 420.964 126.686 415.195 119.318 421.703C113.638 426.72 118.212 437.771 123.044 441.57C130.439 447.385 138.278 443.047 146 440.721C160.566 436.334 176.856 430.772 192 429.174C205.022 427.8 219.546 434.11 232 437.24C239.691 439.173 248.142 438.796 256 440.261C271.522 443.153 287.025 448.076 303 445.561C322.149 442.547 323.474 430.709 312.079 417C299.682 402.084 281.621 386.453 263 380C269.643 373.728 283.548 377.302 291 380.782C304.779 387.215 318.702 394.371 333 399.564C338.884 401.701 347.058 403.673 352.957 400.543C359.766 396.93 359.737 388.665 360.039 382C360.706 367.316 361.163 352.949 366.32 339C367.638 335.435 371.331 321.207 375.964 321.207C380.565 321.207 381.364 334.739 381.919 338C384.24 351.648 385.759 366.381 391.785 379C394.931 385.589 398.917 391.97 406.999 388.467C420.37 382.671 423.121 361.482 426.709 349C435.169 319.567 443.542 285.839 463.59 262C470.368 253.941 496.068 239.158 489.821 227.015C479.631 207.209 464.23 236.118 458.41 243C456.519 245.236 452.882 250.639 449.303 248.94C445.928 247.337 446.028 241.085 445.255 238C443.679 231.716 440.797 225.479 440.177 219C439.658 213.567 441.771 208.407 440.211 203C438.171 195.933 430.723 189.096 423.044 193.179C419.322 195.158 417.801 198.973 418.533 203C420.899 216.003 426.189 228.837 428.8 242C431.584 256.032 424.938 255.924 416 247C413.682 244.685 411.317 242.404 409.09 240C404.863 235.437 402.075 228.222 396.907 224.742C391.221 220.915 379.008 222.929 378.333 231.004C377.866 236.595 383.177 242.054 387.039 245.385C397.101 254.063 408.786 261.174 417.815 271.039C426.905 280.972 421.168 288.49 420.075 300C419.349 307.642 417.258 315.089 411 320C410.044 297.786 399.078 274.225 386.996 256C382.646 249.439 374.254 237.579 365.093 243.742C354.958 250.561 353.079 268.225 350 279C349.174 281.892 348.059 291.793 343.895 291.793C338.66 291.793 336.561 274.861 335.804 271C332.923 256.31 331.831 242.436 320.96 231C313.74 223.405 306.945 215.289 299 208.425C296.434 206.208 290.212 202.625 289.631 199.02C288.599 192.616 302.527 197.443 305 197.986C317.228 200.673 329.615 202.905 342 204.728C347.061 205.474 352.593 206.85 356.606 202.721C368.226 190.764 359.663 164.239 359.039 150C358.377 134.88 366.112 118.987 373.312 106C378.706 96.2714 397.467 89.0601 396.847 77.0038C396.461 69.494 385.353 64.8533 379.044 68.1798C371.699 72.0528 367.401 87.711 364.139 95C362.783 98.0294 360.483 104.322 356.09 103.248C348.166 101.312 343.355 74.8376 344.228 68C344.752 63.8908 348.113 60.2616 347.246 56C345.506 47.4447 335.176 40.093 327.094 45.2284C314.605 53.1638 330.424 81.1729 334.001 92C335.136 95.4351 340.425 104.74 336.476 107.624C333.309 109.937 329.189 105.792 327.004 103.826C319.395 96.9798 316.373 85.3889 307.985 79.7029C303.348 76.5589 293.227 76.3104 291.449 83.0548C289.095 91.9884 300.673 98.9454 306 104.039C320.6 118 334.965 130.127 340.572 150C342.162 155.637 345.047 164.581 341.258 169.877C337.528 175.09 330.97 172.282 326 170.859C311.652 166.75 297.493 162.227 283 158.627C261.525 153.291 235.862 143.483 222.853 124C216.329 114.229 221.787 101.667 210.96 94.1049C199.934 86.4044 188.838 92.6274 177 89.7608C166.114 87.1248 152.586 78.1793 141.015 82.7423C135.906 84.7574 134.628 90.0898 134.051 95C132.911 104.699 132.496 114.482 130.105 124C128.24 131.425 124.237 138.141 125.617 146C127.817 158.541 136.329 161.777 143.471 171.001C149.437 178.707 153.464 189.109 157.354 198C160.047 204.155 157.934 212.6 156.739 219C153.845 234.507 149.641 249.319 147.576 265C146.723 271.478 148.901 281.191 144.91 286.757C139.772 293.924 122.956 282.464 118 278.957C104.758 269.584 94.8314 247.654 91.5177 232C90.6358 227.834 92.6836 223.004 91.2184 219.105C89.5763 214.735 84.1013 213.761 80 214.109C58.7847 215.905 74.3603 238.669 80.8557 248C83.0368 251.133 86.9117 256.006 83.5887 259.678C79.8312 263.831 73.447 260.122 70.0039 257.468C59.5562 249.413 59.5016 235.194 50.7755 227.318C44.1306 221.32 32.52 228.059 31.3881 236C29.7597 247.424 52.3198 258.763 60 264.478C62.9419 266.668 70.9222 271.382 69.6543 275.891C68.5674 279.757 63.2005 280.016 60 279.981C50.3357 279.876 42.5057 272.966 33 273.083C26.4955 273.162 20.6 278.017 22.4375 284.996C25.3201 295.945 44.5959 291.809 53 292.015C78.5274 292.64 100.12 299.04 124 307C134.529 310.51 148.801 318.295 159.996 313.852C172.489 308.893 172.775 282.364 175.849 271C177.044 266.581 177.526 259.289 182.108 256.89C188.795 253.39 193.113 269.831 194.799 274C199.61 285.893 204.061 300.553 213.093 309.961C222.978 320.257 239.323 327.138 246 340z"/>
<path style="fill:#a3d7e1; stroke:none;" d="M335.667 43.3333L336.333 43.6667L335.667 43.3333M327 44L328 45L327 44M338 44L339 45L338 44M326 45L327 46L326 45z"/>
<path style="fill:#6cafbb; stroke:none;" d="M340 45L341 46L340 45M341 46L342 47L341 46z"/>
<path style="fill:#a3d7e1; stroke:none;" d="M323 48L324 49L323 48z"/>
<path style="fill:#6cafbb; stroke:none;" d="M322 49L323 50L322 49z"/>
<path style="fill:#a3d7e1; stroke:none;" d="M344 50L345 51L344 50z"/>
<path style="fill:#6cafbb; stroke:none;" d="M321 51L322 52L321 51z"/>
<path style="fill:#a3d7e1; stroke:none;" d="M345 51L346 52L345 51M321.333 52.6667L321.667 53.3333L321.333 52.6667M346 53L347 54L346 53M347.333 54.6667L347.667 55.3333L347.333 54.6667M321 55L321 58L322 58L321 55z"/>
<path style="fill:#6cafbb; stroke:none;" d="M321 58L322 59L321 58z"/>
<path style="fill:#a3d7e1; stroke:none;" d="M347 59L348 60L347 59M322 60L323 61L322 60z"/>
<path style="fill:#6cafbb; stroke:none;" d="M347 60L348 61L347 60z"/>
<path style="fill:#a3d7e1; stroke:none;" d="M346 61L347 62L346 61M323 62L324 63L323 62M345 63L346 64L345 63M324 64L325 65L324 64M344.333 65.6667L344.667 66.3333L344.333 65.6667M325 66L326 67L325 66z"/>
<path style="fill:#6cafbb; stroke:none;" d="M381 66L381 67L385 67L381 66M344 67L344 71L345 71L344 67M378 67L379 68L378 67z"/>
<path style="fill:#a3d7e1; stroke:none;" d="M379 67L380 68L379 67M386.667 67.3333L387.333 67.6667L386.667 67.3333z"/>
<path style="fill:#6cafbb; stroke:none;" d="M388 67L389 68L388 67z"/>
<path style="fill:#a3d7e1; stroke:none;" d="M326 68L327 69L326 68M377 68L378 69L377 68M390 68L391 69L390 68z"/>
<path style="fill:#6cafbb; stroke:none;" d="M326 69L327 70L326 69z"/>
<path style="fill:#a3d7e1; stroke:none;" d="M376 69L377 70L376 69M392 69L393 70L392 69z"/>
<path style="fill:#6cafbb; stroke:none;" d="M375 70L376 71L375 70z"/>
<path style="fill:#a3d7e1; stroke:none;" d="M393 70L394 71L393 70M327 71L328 72L327 71M344 71L344 74L345 74L344 71z"/>
<path style="fill:#6cafbb; stroke:none;" d="M395 71L396 72L395 71z"/>
<path style="fill:#a3d7e1; stroke:none;" d="M374 72L375 73L374 72M328.333 73.6667L328.667 74.3333L328.333 73.6667M396 73L397 74L396 73z"/>
<path style="fill:#6cafbb; stroke:none;" d="M373 74L374 75L373 74z"/>
<path style="fill:#a3d7e1; stroke:none;" d="M397 74L397 79L398 79L397 74z"/>
<path style="fill:#6cafbb; stroke:none;" d="M345 75L346 76L345 75z"/>
<path style="fill:#a3d7e1; stroke:none;" d="M373 75L374 76L373 75M329.333 76.6667L329.667 77.3333L329.333 76.6667M345.333 76.6667L345.667 77.3333L345.333 76.6667z"/>
<path style="fill:#6cafbb; stroke:none;" d="M372 76L373 77L372 76z"/>
<path style="fill:#a3d7e1; stroke:none;" d="M297 77L297 78L300 78L297 77M303.667 77.3333L304.333 77.6667L303.667 77.3333z"/>
<path style="fill:#6cafbb; stroke:none;" d="M305 77L306 78L305 77z"/>
<path style="fill:#a3d7e1; stroke:none;" d="M372 77L373 78L372 77M294.667 78.3333L295.333 78.6667L294.667 78.3333M306 78L307 79L306 78z"/>
<path style="fill:#6cafbb; stroke:none;" d="M307 78L308 79L307 78M329 78L330 79L329 78M371 78L372 79L371 78M292 79L293 80L292 79z"/>
<path style="fill:#a3d7e1; stroke:none;" d="M308 79L309 80L308 79M346.333 79.6667L346.667 80.3333L346.333 79.6667M371 79L372 80L371 79z"/>
<path style="fill:#6cafbb; stroke:none;" d="M397 79L398 80L397 79z"/>
<path style="fill:#a3d7e1; stroke:none;" d="M309 80L310 81L309 80M330 80L331 81L330 80z"/>
<path style="fill:#6cafbb; stroke:none;" d="M141 81L142 82L141 81z"/>
<path style="fill:#a3d7e1; stroke:none;" d="M142 81L142 82L151 82L142 81z"/>
<path style="fill:#6cafbb; stroke:none;" d="M151 81L152 82L151 81z"/>
<path style="fill:#a3d7e1; stroke:none;" d="M291 81L292 82L291 81M310 81L311 82L310 81z"/>
<path style="fill:#6cafbb; stroke:none;" d="M330 81L331 82L330 81z"/>
<path style="fill:#a3d7e1; stroke:none;" d="M370 81L371 82L370 81M396 81L397 82L396 81z"/>
<path style="fill:#6cafbb; stroke:none;" d="M139 82L140 83L139 82z"/>
<path style="fill:#a3d7e1; stroke:none;" d="M140 82L141 83L140 82M154.667 82.3333L155.333 82.6667L154.667 82.3333z"/>
<path style="fill:#6cafbb; stroke:none;" d="M156 82L157 83L156 82M290 82L291 83L290 82z"/>
<path style="fill:#a3d7e1; stroke:none;" d="M311 82L312 83L311 82z"/>
<path style="fill:#6cafbb; stroke:none;" d="M347 82L348 83L347 82z"/>
<path style="fill:#a3d7e1; stroke:none;" d="M138 83L139 84L138 83M158 83L159 84L158 83z"/>
<path style="fill:#6cafbb; stroke:none;" d="M159 83L160 84L159 83z"/>
<path style="fill:#a3d7e1; stroke:none;" d="M290 83L290 87L291 87L290 83z"/>
<path style="fill:#6cafbb; stroke:none;" d="M312 83L313 84L312 83z"/>
<path style="fill:#a3d7e1; stroke:none;" d="M331.333 83.6667L331.667 84.3333L331.333 83.6667M347 83L347 86L348 86L347 83M369 83L370 84L369 83M395 83L396 84L395 83M137 84L138 85L137 84M161.667 84.3333L162.333 84.6667L161.667 84.3333M394 84L395 85L394 84z"/>
<path style="fill:#6cafbb; stroke:none;" d="M136 85L137 86L136 85z"/>
<path style="fill:#a3d7e1; stroke:none;" d="M164.667 85.3333L165.333 85.6667L164.667 85.3333M313 85L314 86L313 85z"/>
<path style="fill:#6cafbb; stroke:none;" d="M331 85L332 86L331 85z"/>
<path style="fill:#a3d7e1; stroke:none;" d="M368 85L369 86L368 85M167 86L168 87L167 86z"/>
<path style="fill:#6cafbb; stroke:none;" d="M168 86L169 87L168 86M314 86L315 87L314 86z"/>
<path style="fill:#a3d7e1; stroke:none;" d="M135 87L136 88L135 87M170 87L171 88L170 87M332 87L333 88L332 87z"/>
<path style="fill:#6cafbb; stroke:none;" d="M348.333 87.6667L348.667 88.3333L348.333 87.6667z"/>
<path style="fill:#a3d7e1; stroke:none;" d="M367 87L368 88L367 87M172 88L173 89L172 88z"/>
<path style="fill:#6cafbb; stroke:none;" d="M173 88L174 89L173 88z"/>
<path style="fill:#a3d7e1; stroke:none;" d="M291 88L292 89L291 88M315 88L316 89L315 88z"/>
<path style="fill:#6cafbb; stroke:none;" d="M332 88L333 89L332 88z"/>
<path style="fill:#a3d7e1; stroke:none;" d="M390 88L391 89L390 88z"/>
<path style="fill:#6cafbb; stroke:none;" d="M134 89L135 90L134 89z"/>
<path style="fill:#a3d7e1; stroke:none;" d="M175.667 89.3333L176.333 89.6667L175.667 89.3333z"/>
<path style="fill:#6cafbb; stroke:none;" d="M177 89L178 90L177 89M189.667 89.3333L190.333 89.6667L189.667 89.3333z"/>
<path style="fill:#a3d7e1; stroke:none;" d="M191 89L191 90L195 90L191 89M198 89L198 90L202 90L198 89z"/>
<path style="fill:#6cafbb; stroke:none;" d="M202 89L203 90L202 89M291 89L292 90L291 89z"/>
<path style="fill:#a3d7e1; stroke:none;" d="M348 89L348 92L349 92L348 89M366 89L367 90L366 89M389 89L390 90L389 89M134.333 90.6667L134.667 91.3333L134.333 90.6667M180 90L180 91L187 91L180 90M204 90L205 91L204 90M292 90L293 91L292 90M316 90L317 91L316 90M333.333 90.6667L333.667 91.3333L333.333 90.6667M388 90L389 91L388 90M206 91L207 92L206 91z"/>
<path style="fill:#6cafbb; stroke:none;" d="M207 91L208 92L207 91M365 91L366 92L365 91M387 91L388 92L387 91z"/>
<path style="fill:#a3d7e1; stroke:none;" d="M208 92L209 93L208 92M293 92L294 93L293 92M317 92L318 93L317 92M385 92L386 93L385 92z"/>
<path style="fill:#6cafbb; stroke:none;" d="M133.333 93.6667L133.667 94.3333L133.333 93.6667z"/>
<path style="fill:#a3d7e1; stroke:none;" d="M210 93L211 94L210 93M294 93L295 94L294 93z"/>
<path style="fill:#6cafbb; stroke:none;" d="M318 93L319 94L318 93z"/>
<path style="fill:#a3d7e1; stroke:none;" d="M334.333 93.6667L334.667 94.3333L334.333 93.6667z"/>
<path style="fill:#6cafbb; stroke:none;" d="M349 93L350 94L349 93M364 93L365 94L364 93z"/>
<path style="fill:#a3d7e1; stroke:none;" d="M384 93L385 94L384 93M211 94L212 95L211 94M295 94L296 95L295 94M349 94L350 95L349 94M364 94L365 95L364 94z"/>
<path style="fill:#6cafbb; stroke:none;" d="M383 94L384 95L383 94z"/>
<path style="fill:#a3d7e1; stroke:none;" d="M133 95L133 100L134 100L133 95M296 95L297 96L296 95M319 95L320 96L319 95z"/>
<path style="fill:#6cafbb; stroke:none;" d="M363 95L364 96L363 95z"/>
<path style="fill:#a3d7e1; stroke:none;" d="M297 96L298 97L297 96z"/>
<path style="fill:#6cafbb; stroke:none;" d="M320 96L321 97L320 96z"/>
<path style="fill:#a3d7e1; stroke:none;" d="M335 96L336 97L335 96M350 96L351 97L350 96M363 96L364 97L363 96M380 96L381 97L380 96M298 97L299 98L298 97z"/>
<path style="fill:#6cafbb; stroke:none;" d="M335 97L336 98L335 97M362 97L363 98L362 97z"/>
<path style="fill:#a3d7e1; stroke:none;" d="M379 97L380 98L379 97M215 98L216 99L215 98z"/>
<path style="fill:#6cafbb; stroke:none;" d="M299 98L300 99L299 98z"/>
<path style="fill:#a3d7e1; stroke:none;" d="M321 98L322 99L321 98M351 98L352 99L351 98M362 98L363 99L362 98M378 98L379 99L378 98z"/>
<path style="fill:#6cafbb; stroke:none;" d="M216 99L217 100L216 99z"/>
<path style="fill:#a3d7e1; stroke:none;" d="M322 99L323 100L322 99M336 99L337 100L336 99M377 99L378 100L377 99M302 100L303 101L302 100M323 100L324 101L323 100z"/>
<path style="fill:#6cafbb; stroke:none;" d="M336 100L337 101L336 100M352 100L353 101L352 100z"/>
<path style="fill:#a3d7e1; stroke:none;" d="M361 100L362 101L361 100M376 100L377 101L376 100M217 101L218 102L217 101M303 101L304 102L303 101M324 101L325 102L324 101M337.333 101.667L337.667 102.333L337.333 101.667M304 102L305 103L304 102M325 102L326 103L325 102M353 102L354 103L353 102M360 102L361 103L360 102z"/>
<path style="fill:#6cafbb; stroke:none;" d="M375 102L376 103L375 102M132 103L132 106L133 106L132 103M218 103L219 104L218 103z"/>
<path style="fill:#a3d7e1; stroke:none;" d="M305 103L306 104L305 103M326 103L327 104L326 103z"/>
<path style="fill:#6cafbb; stroke:none;" d="M337 103L338 104L337 103z"/>
<path style="fill:#a3d7e1; stroke:none;" d="M354 103L355 104L354 103z"/>
<path style="fill:#6cafbb; stroke:none;" d="M355 103L356 104L355 103z"/>
<path style="fill:#a3d7e1; stroke:none;" d="M359 103L360 104L359 103M374 103L375 104L374 103M218 104L219 105L218 104z"/>
<path style="fill:#6cafbb; stroke:none;" d="M306 104L307 105L306 104z"/>
<path style="fill:#a3d7e1; stroke:none;" d="M327 104L328 105L327 104z"/>
<path style="fill:#6cafbb; stroke:none;" d="M307 105L308 106L307 105z"/>
<path style="fill:#a3d7e1; stroke:none;" d="M328 105L329 106L328 105M338 105L339 106L338 105M373 105L374 106L373 105M132 106L132 111L133 111L132 106z"/>
<path style="fill:#6cafbb; stroke:none;" d="M308 106L309 107L308 106M219.333 107.667L219.667 108.333L219.333 107.667M309 107L310 108L309 107M331 107L332 108L331 107z"/>
<path style="fill:#a3d7e1; stroke:none;" d="M337 107L338 108L337 107z"/>
<path style="fill:#6cafbb; stroke:none;" d="M372 107L373 108L372 107z"/>
<path style="fill:#a3d7e1; stroke:none;" d="M332 108L333 109L332 108z"/>
<path style="fill:#6cafbb; stroke:none;" d="M336 108L337 109L336 108z"/>
<path style="fill:#a3d7e1; stroke:none;" d="M219 109L219 117L220 117L219 109M334.667 109.333L335.333 109.667L334.667 109.333M371 109L372 110L371 109z"/>
<path style="fill:#6cafbb; stroke:none;" d="M312 110L313 111L312 110M313 111L314 112L313 111z"/>
<path style="fill:#a3d7e1; stroke:none;" d="M370 111L371 112L370 111z"/>
<path style="fill:#6cafbb; stroke:none;" d="M314 112L315 113L314 112M131.333 113.667L131.667 114.333L131.333 113.667M315 113L316 114L315 113z"/>
<path style="fill:#a3d7e1; stroke:none;" d="M369 113L370 114L369 113z"/>
<path style="fill:#6cafbb; stroke:none;" d="M316 114L317 115L316 114z"/>
<path style="fill:#a3d7e1; stroke:none;" d="M131 115L131 118L132 118L131 115M317 115L318 116L317 115M368 115L369 116L368 115M318 116L319 117L318 116z"/>
<path style="fill:#6cafbb; stroke:none;" d="M368 116L369 117L368 116z"/>
<path style="fill:#a3d7e1; stroke:none;" d="M319 117L320 118L319 117M367 117L368 118L367 117z"/>
<path style="fill:#6cafbb; stroke:none;" d="M220 118L221 119L220 118z"/>
<path style="fill:#a3d7e1; stroke:none;" d="M320 118L321 119L320 118z"/>
<path style="fill:#6cafbb; stroke:none;" d="M367 118L368 119L367 118z"/>
<path style="fill:#a3d7e1; stroke:none;" d="M220 119L221 120L220 119M321 119L322 120L321 119z"/>
<path style="fill:#6cafbb; stroke:none;" d="M130 120L131 121L130 120z"/>
<path style="fill:#a3d7e1; stroke:none;" d="M322 120L323 121L322 120M366 120L367 121L366 120M130.333 121.667L130.667 122.333L130.333 121.667z"/>
<path style="fill:#6cafbb; stroke:none;" d="M221 121L222 122L221 121z"/>
<path style="fill:#a3d7e1; stroke:none;" d="M323 121L324 122L323 121M221 122L222 123L221 122M324 122L325 123L324 122M365 122L366 123L365 122z"/>
<path style="fill:#6cafbb; stroke:none;" d="M222 123L223 124L222 123z"/>
<path style="fill:#a3d7e1; stroke:none;" d="M325 123L326 124L325 123z"/>
<path style="fill:#6cafbb; stroke:none;" d="M365 123L366 124L365 123M129 124L130 125L129 124z"/>
<path style="fill:#a3d7e1; stroke:none;" d="M326 124L327 125L326 124M129.333 125.667L129.667 126.333L129.333 125.667M223 125L224 126L223 125M327 125L328 126L327 125M364 125L365 126L364 125M224 126L225 127L224 126M328 126L329 127L328 126M225 127L226 128L225 127M329 127L330 128L329 127M363 127L364 128L363 127z"/>
<path style="fill:#6cafbb; stroke:none;" d="M128 128L129 129L128 128M226 128L227 129L226 128z"/>
<path style="fill:#a3d7e1; stroke:none;" d="M330 128L331 129L330 128z"/>
<path style="fill:#6cafbb; stroke:none;" d="M363 128L364 129L363 128z"/>
<path style="fill:#a3d7e1; stroke:none;" d="M128 129L129 130L128 129M227 129L228 130L227 129M331 129L332 130L331 129M228 130L229 131L228 130M332 130L333 131L332 130M362 130L363 131L362 130z"/>
<path style="fill:#6cafbb; stroke:none;" d="M127 131L128 132L127 131z"/>
<path style="fill:#a3d7e1; stroke:none;" d="M229 131L230 132L229 131M333 131L334 132L333 131z"/>
<path style="fill:#6cafbb; stroke:none;" d="M362 131L363 132L362 131z"/>
<path style="fill:#a3d7e1; stroke:none;" d="M127 132L128 133L127 132M231 132L232 133L231 132M232 133L233 134L232 133z"/>
<path style="fill:#6cafbb; stroke:none;" d="M334 133L335 134L334 133z"/>
<path style="fill:#a3d7e1; stroke:none;" d="M361 133L362 134L361 133M126 134L127 135L126 134z"/>
<path style="fill:#6cafbb; stroke:none;" d="M234 134L235 135L234 134z"/>
<path style="fill:#a3d7e1; stroke:none;" d="M335.333 134.667L335.667 135.333L335.333 134.667M235 135L236 136L235 135M360.333 135.667L360.667 136.333L360.333 135.667z"/>
<path style="fill:#6cafbb; stroke:none;" d="M125 136L126 137L125 136z"/>
<path style="fill:#a3d7e1; stroke:none;" d="M125.333 137.667L125.667 138.333L125.333 137.667z"/>
<path style="fill:#6cafbb; stroke:none;" d="M238 137L239 138L238 137z"/>
<path style="fill:#a3d7e1; stroke:none;" d="M336.333 137.667L336.667 138.333L336.333 137.667z"/>
<path style="fill:#6cafbb; stroke:none;" d="M360 137L361 138L360 137z"/>
<path style="fill:#a3d7e1; stroke:none;" d="M239 138L240 139L239 138M240 139L241 140L240 139M359 139L359 142L360 142L359 139M241 140L242 141L241 140M337.333 140.667L337.667 141.333L337.333 140.667z"/>
<path style="fill:#6cafbb; stroke:none;" d="M243 141L244 142L243 141z"/>
<path style="fill:#a3d7e1; stroke:none;" d="M244 142L245 143L244 142z"/>
<path style="fill:#6cafbb; stroke:none;" d="M359.333 142.667L359.667 143.333L359.333 142.667z"/>
<path style="fill:#a3d7e1; stroke:none;" d="M245 143L246 144L245 143M338.333 143.667L338.667 144.333L338.333 143.667M246 144L247 145L246 144M125 145L125 148L126 148L125 145z"/>
<path style="fill:#6cafbb; stroke:none;" d="M248 145L249 146L248 145z"/>
<path style="fill:#a3d7e1; stroke:none;" d="M249 146L250 147L249 146M339.333 146.667L339.667 147.333L339.333 146.667z"/>
<path style="fill:#6cafbb; stroke:none;" d="M251 147L252 148L251 147M125 148L126 149L125 148z"/>
<path style="fill:#a3d7e1; stroke:none;" d="M252 148L253 149L252 148M254 149L255 150L254 149M340.333 149.667L340.667 150.333L340.333 149.667M126.333 150.667L126.667 151.333L126.333 150.667M256 150L257 151L256 150z"/>
<path style="fill:#6cafbb; stroke:none;" d="M359.333 150.667L359.667 151.333L359.333 150.667z"/>
<path style="fill:#a3d7e1; stroke:none;" d="M258 151L259 152L258 151z"/>
<path style="fill:#6cafbb; stroke:none;" d="M340 151L341 152L340 151z"/>
<path style="fill:#a3d7e1; stroke:none;" d="M260 152L261 153L260 152z"/>
<path style="fill:#6cafbb; stroke:none;" d="M261 152L262 153L261 152z"/>
<path style="fill:#a3d7e1; stroke:none;" d="M359 152L359 155L360 155L359 152M127 153L128 154L127 153M263 153L264 154L263 153M341 153L341 156L342 156L341 153z"/>
<path style="fill:#6cafbb; stroke:none;" d="M127 154L128 155L127 154z"/>
<path style="fill:#a3d7e1; stroke:none;" d="M265.667 154.333L266.333 154.667L265.667 154.333z"/>
<path style="fill:#6cafbb; stroke:none;" d="M267 154L268 155L267 154z"/>
<path style="fill:#a3d7e1; stroke:none;" d="M128 155L129 156L128 155M269 155L270 156L269 155z"/>
<path style="fill:#6cafbb; stroke:none;" d="M270 155L271 156L270 155M128 156L129 157L128 156z"/>
<path style="fill:#a3d7e1; stroke:none;" d="M272 156L272 157L275 157L272 156z"/>
<path style="fill:#6cafbb; stroke:none;" d="M275 156L276 157L275 156M341 156L342 157L341 156M360.333 156.667L360.667 157.333L360.333 156.667z"/>
<path style="fill:#a3d7e1; stroke:none;" d="M129 157L130 158L129 157M278.667 157.333L279.333 157.667L278.667 157.333z"/>
<path style="fill:#6cafbb; stroke:none;" d="M280 157L281 158L280 157z"/>
<path style="fill:#a3d7e1; stroke:none;" d="M282.667 158.333L283.333 158.667L282.667 158.333z"/>
<path style="fill:#6cafbb; stroke:none;" d="M284 158L285 159L284 158z"/>
<path style="fill:#a3d7e1; stroke:none;" d="M342 158L342 163L343 163L342 158M360 158L360 161L361 161L360 158z"/>
<path style="fill:#6cafbb; stroke:none;" d="M130 159L131 160L130 159z"/>
<path style="fill:#a3d7e1; stroke:none;" d="M286.667 159.333L287.333 159.667L286.667 159.333z"/>
<path style="fill:#6cafbb; stroke:none;" d="M288 159L289 160L288 159z"/>
<path style="fill:#a3d7e1; stroke:none;" d="M131 160L132 161L131 160M290.667 160.333L291.333 160.667L290.667 160.333z"/>
<path style="fill:#6cafbb; stroke:none;" d="M292 160L293 161L292 160M132 161L133 162L132 161z"/>
<path style="fill:#a3d7e1; stroke:none;" d="M294.667 161.333L295.333 161.667L294.667 161.333z"/>
<path style="fill:#6cafbb; stroke:none;" d="M296 161L297 162L296 161z"/>
<path style="fill:#a3d7e1; stroke:none;" d="M134 162L135 163L134 162M298 162L299 163L298 162z"/>
<path style="fill:#6cafbb; stroke:none;" d="M299 162L300 163L299 162M361.333 162.667L361.667 163.333L361.333 162.667z"/>
<path style="fill:#a3d7e1; stroke:none;" d="M135 163L136 164L135 163M301.667 163.333L302.333 163.667L301.667 163.333z"/>
<path style="fill:#6cafbb; stroke:none;" d="M342 163L342 167L343 167L342 163z"/>
<path style="fill:#a3d7e1; stroke:none;" d="M137 164L138 165L137 164M304.667 164.333L305.333 164.667L304.667 164.333z"/>
<path style="fill:#6cafbb; stroke:none;" d="M306 164L307 165L306 164z"/>
<path style="fill:#a3d7e1; stroke:none;" d="M361 164L361 170L362 170L361 164M138 165L139 166L138 165M308 165L309 166L308 165z"/>
<path style="fill:#6cafbb; stroke:none;" d="M309 165L310 166L309 165z"/>
<path style="fill:#a3d7e1; stroke:none;" d="M139 166L140 167L139 166M311.667 166.333L312.333 166.667L311.667 166.333z"/>
<path style="fill:#6cafbb; stroke:none;" d="M140 167L141 168L140 167z"/>
<path style="fill:#a3d7e1; stroke:none;" d="M314.667 167.333L315.333 167.667L314.667 167.333z"/>
<path style="fill:#6cafbb; stroke:none;" d="M316 167L317 168L316 167z"/>
<path style="fill:#a3d7e1; stroke:none;" d="M342.333 167.667L342.667 168.333L342.333 167.667M141 168L142 169L141 168M318 168L319 169L318 168z"/>
<path style="fill:#6cafbb; stroke:none;" d="M319 168L320 169L319 168z"/>
<path style="fill:#a3d7e1; stroke:none;" d="M142 169L143 170L142 169M321 169L322 170L321 169z"/>
<path style="fill:#6cafbb; stroke:none;" d="M322 169L323 170L322 169z"/>
<path style="fill:#a3d7e1; stroke:none;" d="M143 170L144 171L143 170M324.667 170.333L325.333 170.667L324.667 170.333z"/>
<path style="fill:#6cafbb; stroke:none;" d="M341 170L342 171L341 170z"/>
<path style="fill:#a3d7e1; stroke:none;" d="M328 171L329 172L328 171z"/>
<path style="fill:#6cafbb; stroke:none;" d="M329 171L330 172L329 171M144 172L145 173L144 172z"/>
<path style="fill:#a3d7e1; stroke:none;" d="M331.667 172.333L332.333 172.667L331.667 172.333z"/>
<path style="fill:#6cafbb; stroke:none;" d="M333 172L334 173L333 172M339 172L340 173L339 172z"/>
<path style="fill:#a3d7e1; stroke:none;" d="M145 173L146 174L145 173M336.667 173.333L337.333 173.667L336.667 173.333z"/>
<path style="fill:#6cafbb; stroke:none;" d="M145 174L146 175L145 174z"/>
<path style="fill:#a3d7e1; stroke:none;" d="M146 175L147 176L146 175M147 177L148 178L147 177M148 179L149 180L148 179M149 181L150 182L149 181M150 183L151 184L150 183M361 183L361 188L362 188L361 183M151 185L152 186L151 185M152 187L153 188L152 187z"/>
<path style="fill:#6cafbb; stroke:none;" d="M152 188L153 189L152 188M361 188L361 191L362 191L361 188z"/>
<path style="fill:#a3d7e1; stroke:none;" d="M153 190L154 191L153 190z"/>
<path style="fill:#6cafbb; stroke:none;" d="M426 191L427 192L426 191z"/>
<path style="fill:#a3d7e1; stroke:none;" d="M427 191L428 192L427 191z"/>
<path style="fill:#6cafbb; stroke:none;" d="M428.667 191.333L429.333 191.667L428.667 191.333z"/>
<path style="fill:#a3d7e1; stroke:none;" d="M154 192L155 193L154 192M360 192L360 195L361 195L360 192M423 192L424 193L423 192M431.667 192.333L432.333 192.667L431.667 192.333z"/>
<path style="fill:#6cafbb; stroke:none;" d="M421 193L422 194L421 193M434 193L435 194L434 193z"/>
<path style="fill:#a3d7e1; stroke:none;" d="M155 194L156 195L155 194M420 194L421 195L420 194M435 194L436 195L435 194M291 195L291 196L295 196L291 195z"/>
<path style="fill:#6cafbb; stroke:none;" d="M360 195L361 196L360 195z"/>
<path style="fill:#a3d7e1; stroke:none;" d="M419 195L420 196L419 195M436 195L437 196L436 195M156 196L157 197L156 196M289 196L290 197L289 196z"/>
<path style="fill:#6cafbb; stroke:none;" d="M297 196L298 197L297 196z"/>
<path style="fill:#a3d7e1; stroke:none;" d="M298.667 196.333L299.333 196.667L298.667 196.333z"/>
<path style="fill:#6cafbb; stroke:none;" d="M437 196L438 197L437 196z"/>
<path style="fill:#a3d7e1; stroke:none;" d="M157 197L158 198L157 197M288 197L288 200L289 200L288 197M301.667 197.333L302.333 197.667L301.667 197.333M418 197L419 198L418 197z"/>
<path style="fill:#6cafbb; stroke:none;" d="M157 198L158 199L157 198M305 198L306 199L305 198z"/>
<path style="fill:#a3d7e1; stroke:none;" d="M306.667 198.333L307.333 198.667L306.667 198.333M359 198L360 199L359 198M438 198L439 199L438 198z"/>
<path style="fill:#6cafbb; stroke:none;" d="M309 199L310 200L309 199z"/>
<path style="fill:#a3d7e1; stroke:none;" d="M310 199L310 200L313 200L310 199z"/>
<path style="fill:#6cafbb; stroke:none;" d="M359 199L360 200L359 199M439 199L440 200L439 199z"/>
<path style="fill:#a3d7e1; stroke:none;" d="M158 200L158 206L159 206L158 200M289 200L290 201L289 200z"/>
<path style="fill:#6cafbb; stroke:none;" d="M314 200L315 201L314 200z"/>
<path style="fill:#a3d7e1; stroke:none;" d="M315 200L315 201L318 201L315 200M358 200L359 201L358 200M439 200L440 201L439 200M290 201L291 202L290 201z"/>
<path style="fill:#6cafbb; stroke:none;" d="M319 201L320 202L319 201z"/>
<path style="fill:#a3d7e1; stroke:none;" d="M320 201L320 202L323 202L320 201z"/>
<path style="fill:#6cafbb; stroke:none;" d="M358 201L359 202L358 201M324.667 202.333L325.333 202.667L324.667 202.333z"/>
<path style="fill:#a3d7e1; stroke:none;" d="M326 202L326 203L329 203L326 202M357 202L358 203L357 202M440.333 202.667L440.667 203.333L440.333 202.667z"/>
<path style="fill:#6cafbb; stroke:none;" d="M293 203L294 204L293 203M330.667 203.333L331.333 203.667L330.667 203.333z"/>
<path style="fill:#a3d7e1; stroke:none;" d="M332 203L332 204L335 204L332 203M356 203L357 204L356 203M418.333 203.667L418.667 204.333L418.333 203.667z"/>
<path style="fill:#6cafbb; stroke:none;" d="M294 204L295 205L294 204M336.667 204.333L337.333 204.667L336.667 204.333z"/>
<path style="fill:#a3d7e1; stroke:none;" d="M338 204L338 205L341 205L338 204M355 204L356 205L355 204M295 205L296 206L295 205z"/>
<path style="fill:#6cafbb; stroke:none;" d="M343.667 205.333L344.333 205.667L343.667 205.333z"/>
<path style="fill:#a3d7e1; stroke:none;" d="M345 205L345 206L348 206L345 205M352.667 205.333L353.333 205.667L352.667 205.333z"/>
<path style="fill:#6cafbb; stroke:none;" d="M354 205L355 206L354 205z"/>
<path style="fill:#a3d7e1; stroke:none;" d="M296 206L297 207L296 206M419 206L420 207L419 206z"/>
<path style="fill:#6cafbb; stroke:none;" d="M441 206L441 211L442 211L441 206z"/>
<path style="fill:#a3d7e1; stroke:none;" d="M297 207L298 208L297 207z"/>
<path style="fill:#6cafbb; stroke:none;" d="M419 207L420 208L419 207M157.333 209.667L157.667 210.333L157.333 209.667z"/>
<path style="fill:#a3d7e1; stroke:none;" d="M420 209L421 210L420 209z"/>
<path style="fill:#6cafbb; stroke:none;" d="M420 210L421 211L420 210z"/>
<path style="fill:#a3d7e1; stroke:none;" d="M157 211L157 215L158 215L157 211M421.333 211.667L421.667 212.333L421.333 211.667M440 212L440 215L441 215L440 212z"/>
<path style="fill:#6cafbb; stroke:none;" d="M78 213L79 214L78 213z"/>
<path style="fill:#a3d7e1; stroke:none;" d="M79 213L79 214L84 214L79 213z"/>
<path style="fill:#6cafbb; stroke:none;" d="M84 213L85 214L84 213M75 214L76 215L75 214z"/>
<path style="fill:#a3d7e1; stroke:none;" d="M76 214L77 215L76 214M86 214L87 215L86 214z"/>
<path style="fill:#6cafbb; stroke:none;" d="M87 214L88 215L87 214z"/>
<path style="fill:#a3d7e1; stroke:none;" d="M422.333 214.667L422.667 215.333L422.333 214.667z"/>
<path style="fill:#6cafbb; stroke:none;" d="M73 215L74 216L73 215z"/>
<path style="fill:#a3d7e1; stroke:none;" d="M74 215L75 216L74 215M88 215L89 216L88 215z"/>
<path style="fill:#6cafbb; stroke:none;" d="M440 215L440 220L441 220L440 215z"/>
<path style="fill:#a3d7e1; stroke:none;" d="M72 216L73 217L72 216z"/>
<path style="fill:#6cafbb; stroke:none;" d="M156.333 216.667L156.667 217.333L156.333 216.667M70 217L71 218L70 217z"/>
<path style="fill:#a3d7e1; stroke:none;" d="M423.333 217.667L423.667 218.333L423.333 217.667z"/>
<path style="fill:#6cafbb; stroke:none;" d="M69 218L70 219L69 218z"/>
<path style="fill:#a3d7e1; stroke:none;" d="M91 218L92 219L91 218M156 218L156 221L157 221L156 218z"/>
<path style="fill:#6cafbb; stroke:none;" d="M68 219L69 220L68 219M92 219L93 220L92 219z"/>
<path style="fill:#a3d7e1; stroke:none;" d="M92 220L93 221L92 220M440.333 220.667L440.667 221.333L440.333 220.667M476 220L476 221L483 221L476 220z"/>
<path style="fill:#6cafbb; stroke:none;" d="M67 221L68 222L67 221M92 221L93 222L92 221z"/>
<path style="fill:#a3d7e1; stroke:none;" d="M424 221L425 222L424 221M474 221L475 222L474 221M484 221L485 222L484 221z"/>
<path style="fill:#6cafbb; stroke:none;" d="M485 221L486 222L485 221z"/>
<path style="fill:#a3d7e1; stroke:none;" d="M67 222L68 223L67 222z"/>
<path style="fill:#6cafbb; stroke:none;" d="M155 222L156 223L155 222z"/>
<path style="fill:#a3d7e1; stroke:none;" d="M312 222L313 223L312 222M386 222L386 223L394 223L386 222z"/>
<path style="fill:#6cafbb; stroke:none;" d="M424 222L425 223L424 222M472 222L473 223L472 222z"/>
<path style="fill:#a3d7e1; stroke:none;" d="M486 222L487 223L486 222z"/>
<path style="fill:#6cafbb; stroke:none;" d="M67 223L68 224L67 223z"/>
<path style="fill:#a3d7e1; stroke:none;" d="M91.3333 223.667L91.6667 224.333L91.3333 223.667M155.333 223.667L155.667 224.333L155.333 223.667M313 223L314 224L313 223z"/>
<path style="fill:#6cafbb; stroke:none;" d="M383 223L384 224L383 223z"/>
<path style="fill:#a3d7e1; stroke:none;" d="M384 223L385 224L384 223M395 223L396 224L395 223z"/>
<path style="fill:#6cafbb; stroke:none;" d="M396 223L397 224L396 223M441 223L442 224L441 223M471 223L472 224L471 223z"/>
<path style="fill:#a3d7e1; stroke:none;" d="M487 223L488 224L487 223M42 224L42 225L47 225L42 224z"/>
<path style="fill:#6cafbb; stroke:none;" d="M47 224L48 225L47 224z"/>
<path style="fill:#a3d7e1; stroke:none;" d="M314 224L315 225L314 224M382 224L383 225L382 224M397 224L398 225L397 224M425 224L425 227L426 227L425 224M441.333 224.667L441.667 225.333L441.333 224.667M488 224L489 225L488 224z"/>
<path style="fill:#6cafbb; stroke:none;" d="M39 225L40 226L39 225z"/>
<path style="fill:#a3d7e1; stroke:none;" d="M40 225L41 226L40 225z"/>
<path style="fill:#6cafbb; stroke:none;" d="M49 225L50 226L49 225z"/>
<path style="fill:#a3d7e1; stroke:none;" d="M68 225L69 226L68 225z"/>
<path style="fill:#6cafbb; stroke:none;" d="M91 225L91 230L92 230L91 225z"/>
<path style="fill:#a3d7e1; stroke:none;" d="M315 225L316 226L315 225z"/>
<path style="fill:#6cafbb; stroke:none;" d="M380 225L381 226L380 225z"/>
<path style="fill:#a3d7e1; stroke:none;" d="M398 225L399 226L398 225M470 225L471 226L470 225M489 225L490 226L489 225M38 226L39 227L38 226M50 226L51 227L50 226z"/>
<path style="fill:#6cafbb; stroke:none;" d="M68 226L69 227L68 226M154 226L155 227L154 226z"/>
<path style="fill:#a3d7e1; stroke:none;" d="M316 226L317 227L316 226z"/>
<path style="fill:#6cafbb; stroke:none;" d="M379 226L380 227L379 226z"/>
<path style="fill:#a3d7e1; stroke:none;" d="M399 226L400 227L399 226z"/>
<path style="fill:#6cafbb; stroke:none;" d="M469 226L470 227L469 226M490 226L491 227L490 226M36 227L37 228L36 227z"/>
<path style="fill:#a3d7e1; stroke:none;" d="M51 227L52 228L51 227M69 227L70 228L69 227M154.333 227.667L154.667 228.333L154.333 227.667M317 227L318 228L317 227z"/>
<path style="fill:#6cafbb; stroke:none;" d="M400 227L401 228L400 227M425 227L426 228L425 227z"/>
<path style="fill:#a3d7e1; stroke:none;" d="M442.333 227.667L442.667 228.333L442.333 227.667M469 227L470 228L469 227M490 227L491 228L490 227M35 228L36 229L35 228z"/>
<path style="fill:#6cafbb; stroke:none;" d="M52 228L53 229L52 228z"/>
<path style="fill:#a3d7e1; stroke:none;" d="M318 228L319 229L318 228M378 228L379 229L378 228M400 228L401 229L400 228z"/>
<path style="fill:#6cafbb; stroke:none;" d="M468 228L469 229L468 228M491 228L492 229L491 228M34 229L35 230L34 229z"/>
<path style="fill:#a3d7e1; stroke:none;" d="M70 229L71 230L70 229M319 229L320 230L319 229z"/>
<path style="fill:#6cafbb; stroke:none;" d="M377 229L378 230L377 229M401 229L402 230L401 229z"/>
<path style="fill:#a3d7e1; stroke:none;" d="M426 229L426 232L427 232L426 229M468 229L469 230L468 229M491 229L491 233L492 233L491 229z"/>
<path style="fill:#6cafbb; stroke:none;" d="M33 230L34 231L33 230z"/>
<path style="fill:#a3d7e1; stroke:none;" d="M53 230L54 231L53 230M91 230L91 233L92 233L91 230z"/>
<path style="fill:#6cafbb; stroke:none;" d="M153 230L154 231L153 230z"/>
<path style="fill:#a3d7e1; stroke:none;" d="M320 230L321 231L320 230M377 230L377 233L378 233L377 230z"/>
<path style="fill:#6cafbb; stroke:none;" d="M443 230L444 231L443 230M467 230L468 231L467 230z"/>
<path style="fill:#a3d7e1; stroke:none;" d="M71 231L72 232L71 231M153.333 231.667L153.667 232.333L153.333 231.667M321 231L322 232L321 231M402 231L403 232L402 231M443 231L444 232L443 231z"/>
<path style="fill:#6cafbb; stroke:none;" d="M54 232L55 233L54 232M322 232L323 233L322 232M426 232L427 233L426 232z"/>
<path style="fill:#a3d7e1; stroke:none;" d="M466 232L467 233L466 232M31.3333 233.667L31.6667 234.333L31.3333 233.667M54 233L55 234L54 233M72 233L73 234L72 233z"/>
<path style="fill:#6cafbb; stroke:none;" d="M323 233L324 234L323 233z"/>
<path style="fill:#a3d7e1; stroke:none;" d="M403 233L404 234L403 233z"/>
<path style="fill:#6cafbb; stroke:none;" d="M444 233L445 234L444 233M465 233L466 234L465 233M491 233L492 234L491 233z"/>
<path style="fill:#a3d7e1; stroke:none;" d="M92.3333 234.667L92.6667 235.333L92.3333 234.667z"/>
<path style="fill:#6cafbb; stroke:none;" d="M152 234L153 235L152 234z"/>
<path style="fill:#a3d7e1; stroke:none;" d="M378 234L379 235L378 234M404 234L405 235L404 234M444.333 234.667L444.667 235.333L444.333 234.667z"/>
<path style="fill:#6cafbb; stroke:none;" d="M55 235L56 236L55 235z"/>
<path style="fill:#a3d7e1; stroke:none;" d="M73 235L74 236L73 235M152.333 235.667L152.667 236.333L152.333 235.667z"/>
<path style="fill:#6cafbb; stroke:none;" d="M405 235L406 236L405 235z"/>
<path style="fill:#a3d7e1; stroke:none;" d="M427 235L427 238L428 238L427 235M464 235L465 236L464 235M490 235L491 236L490 235z"/>
<path style="fill:#6cafbb; stroke:none;" d="M30 236L30 239L31 239L30 236z"/>
<path style="fill:#a3d7e1; stroke:none;" d="M55 236L56 237L55 236M325 236L326 237L325 236M379 236L380 237L379 236z"/>
<path style="fill:#6cafbb; stroke:none;" d="M463 236L464 237L463 236M490 236L491 237L490 236z"/>
<path style="fill:#a3d7e1; stroke:none;" d="M74 237L75 238L74 237M93.3333 237.667L93.6667 238.333L93.3333 237.667z"/>
<path style="fill:#6cafbb; stroke:none;" d="M326 237L327 238L326 237z"/>
<path style="fill:#a3d7e1; stroke:none;" d="M406 237L407 238L406 237M445.333 237.667L445.667 238.333L445.333 237.667M489 237L490 238L489 237M56.3333 238.667L56.6667 239.333L56.3333 238.667z"/>
<path style="fill:#6cafbb; stroke:none;" d="M151 238L152 239L151 238M380 238L381 239L380 238z"/>
<path style="fill:#a3d7e1; stroke:none;" d="M407 238L408 239L407 238z"/>
<path style="fill:#6cafbb; stroke:none;" d="M427 238L428 239L427 238z"/>
<path style="fill:#a3d7e1; stroke:none;" d="M462 238L463 239L462 238z"/>
<path style="fill:#6cafbb; stroke:none;" d="M489 238L490 239L489 238z"/>
<path style="fill:#a3d7e1; stroke:none;" d="M75 239L76 240L75 239M151.333 239.667L151.667 240.333L151.333 239.667M327 239L328 240L327 239M381 239L382 240L381 239M408 239L409 240L408 239M461 239L462 240L461 239M488 239L489 240L488 239M31 240L32 241L31 240z"/>
<path style="fill:#6cafbb; stroke:none;" d="M57 240L58 241L57 240z"/>
<path style="fill:#a3d7e1; stroke:none;" d="M94 240L95 241L94 240M382 240L383 241L382 240z"/>
<path style="fill:#6cafbb; stroke:none;" d="M409 240L410 241L409 240z"/>
<path style="fill:#a3d7e1; stroke:none;" d="M428 240L428 243L429 243L428 240M460 240L461 241L460 240M487 240L488 241L487 240M57 241L58 242L57 241M76 241L77 242L76 241M328 241L329 242L328 241z"/>
<path style="fill:#6cafbb; stroke:none;" d="M368 241L369 242L368 241z"/>
<path style="fill:#a3d7e1; stroke:none;" d="M369 241L369 242L372 242L369 241z"/>
<path style="fill:#6cafbb; stroke:none;" d="M372 241L373 242L372 241M410 241L411 242L410 241M446 241L447 242L446 241M459 241L460 242L459 241z"/>
<path style="fill:#a3d7e1; stroke:none;" d="M486 241L487 242L486 241M32 242L33 243L32 242z"/>
<path style="fill:#6cafbb; stroke:none;" d="M58 242L59 243L58 242M95 242L96 243L95 242M150 242L151 243L150 242M329 242L330 243L329 242z"/>
<path style="fill:#a3d7e1; stroke:none;" d="M366 242L367 243L366 242M374 242L375 243L374 242z"/>
<path style="fill:#6cafbb; stroke:none;" d="M411 242L412 243L411 242z"/>
<path style="fill:#a3d7e1; stroke:none;" d="M446 242L446 245L447 245L446 242M485 242L486 243L485 242M33 243L34 244L33 243M58 243L59 244L58 243z"/>
<path style="fill:#6cafbb; stroke:none;" d="M77 243L78 244L77 243z"/>
<path style="fill:#a3d7e1; stroke:none;" d="M95 243L96 244L95 243M150.333 243.667L150.667 244.333L150.333 243.667M329 243L330 244L329 243z"/>
<path style="fill:#6cafbb; stroke:none;" d="M364 243L365 244L364 243z"/>
<path style="fill:#a3d7e1; stroke:none;" d="M376 243L377 244L376 243z"/>
<path style="fill:#6cafbb; stroke:none;" d="M412 243L413 244L412 243M428 243L429 244L428 243z"/>
<path style="fill:#a3d7e1; stroke:none;" d="M483 243L484 244L483 243z"/>
<path style="fill:#6cafbb; stroke:none;" d="M484 243L485 244L484 243z"/>
<path style="fill:#a3d7e1; stroke:none;" d="M34 244L35 245L34 244z"/>
<path style="fill:#6cafbb; stroke:none;" d="M59 244L60 245L59 244z"/>
<path style="fill:#a3d7e1; stroke:none;" d="M78 244L79 245L78 244z"/>
<path style="fill:#6cafbb; stroke:none;" d="M363 244L364 245L363 244z"/>
<path style="fill:#a3d7e1; stroke:none;" d="M377 244L378 245L377 244z"/>
<path style="fill:#6cafbb; stroke:none;" d="M413 244L414 245L413 244z"/>
<path style="fill:#a3d7e1; stroke:none;" d="M457 244L458 245L457 244M481 244L482 245L481 244z"/>
<path style="fill:#6cafbb; stroke:none;" d="M482 244L483 245L482 244M35 245L36 246L35 245z"/>
<path style="fill:#a3d7e1; stroke:none;" d="M59 245L60 246L59 245M96.3333 245.667L96.6667 246.333L96.3333 245.667M330 245L331 246L330 245z"/>
<path style="fill:#6cafbb; stroke:none;" d="M362 245L363 246L362 245z"/>
<path style="fill:#a3d7e1; stroke:none;" d="M378 245L379 246L378 245M387 245L388 246L387 245z"/>
<path style="fill:#6cafbb; stroke:none;" d="M414 245L415 246L414 245z"/>
<path style="fill:#a3d7e1; stroke:none;" d="M429.333 245.667L429.667 246.333L429.333 245.667M456 245L457 246L456 245z"/>
<path style="fill:#6cafbb; stroke:none;" d="M480 245L481 246L480 245M36 246L37 247L36 246z"/>
<path style="fill:#a3d7e1; stroke:none;" d="M60 246L61 247L60 246z"/>
<path style="fill:#6cafbb; stroke:none;" d="M79 246L80 247L79 246M149 246L150 247L149 246z"/>
<path style="fill:#a3d7e1; stroke:none;" d="M379 246L380 247L379 246M388 246L389 247L388 246M455 246L456 247L455 246M478 246L479 247L478 246M80 247L81 248L80 247z"/>
<path style="fill:#6cafbb; stroke:none;" d="M97 247L98 248L97 247z"/>
<path style="fill:#a3d7e1; stroke:none;" d="M149 247L149 250L150 250L149 247z"/>
<path style="fill:#6cafbb; stroke:none;" d="M331 247L332 248L331 247z"/>
<path style="fill:#a3d7e1; stroke:none;" d="M361 247L362 248L361 247M380 247L381 248L380 247M389 247L390 248L389 247z"/>
<path style="fill:#6cafbb; stroke:none;" d="M429.333 247.667L429.667 248.333L429.333 247.667M447 247L448 248L447 247M454 247L455 248L454 247M477 247L478 248L477 247z"/>
<path style="fill:#a3d7e1; stroke:none;" d="M39 248L40 249L39 248M61 248L62 249L61 248M81 248L82 249L81 248M97 248L98 249L97 248M331 248L332 249L331 248M360 248L361 249L360 248M381 248L382 249L381 248M447 248L448 249L447 248z"/>
<path style="fill:#6cafbb; stroke:none;" d="M453 248L454 249L453 248z"/>
<path style="fill:#a3d7e1; stroke:none;" d="M475 248L476 249L475 248M40 249L41 250L40 249M62 249L63 250L62 249z"/>
<path style="fill:#6cafbb; stroke:none;" d="M382 249L383 250L382 249z"/>
<path style="fill:#a3d7e1; stroke:none;" d="M392 249L393 250L392 249M448 249L449 250L448 249z"/>
<path style="fill:#6cafbb; stroke:none;" d="M452 249L453 250L452 249z"/>
<path style="fill:#a3d7e1; stroke:none;" d="M474 249L475 250L474 249M41 250L42 251L41 250z"/>
<path style="fill:#6cafbb; stroke:none;" d="M82 250L83 251L82 250z"/>
<path style="fill:#a3d7e1; stroke:none;" d="M98 250L99 251L98 250z"/>
<path style="fill:#6cafbb; stroke:none;" d="M332 250L333 251L332 250z"/>
<path style="fill:#a3d7e1; stroke:none;" d="M359 250L360 251L359 250z"/>
<path style="fill:#6cafbb; stroke:none;" d="M383 250L384 251L383 250z"/>
<path style="fill:#a3d7e1; stroke:none;" d="M393 250L394 251L393 250M450.667 250.333L451.333 250.667L450.667 250.333M473 250L474 251L473 250M42 251L43 252L42 251M83 251L84 252L83 251z"/>
<path style="fill:#6cafbb; stroke:none;" d="M148.333 251.667L148.667 252.333L148.333 251.667z"/>
<path style="fill:#a3d7e1; stroke:none;" d="M332.333 251.667L332.667 252.333L332.333 251.667z"/>
<path style="fill:#6cafbb; stroke:none;" d="M358 251L359 252L358 251z"/>
<path style="fill:#a3d7e1; stroke:none;" d="M472 251L473 252L472 251z"/>
<path style="fill:#6cafbb; stroke:none;" d="M43 252L44 253L43 252z"/>
<path style="fill:#a3d7e1; stroke:none;" d="M64 252L65 253L64 252M99 252L100 253L99 252M358 252L359 253L358 252M384 252L385 253L384 252M396 252L397 253L396 252z"/>
<path style="fill:#6cafbb; stroke:none;" d="M429 252L430 253L429 252z"/>
<path style="fill:#a3d7e1; stroke:none;" d="M471 252L472 253L471 252M65 253L66 254L65 253M84 253L85 254L84 253M148 253L148 256L149 256L148 253M385 253L386 254L385 253M397 253L398 254L397 253M429 253L430 254L429 253M46 254L47 255L46 254M66 254L67 255L66 254z"/>
<path style="fill:#6cafbb; stroke:none;" d="M84 254L85 255L84 254M100 254L101 255L100 254M333 254L334 255L333 254z"/>
<path style="fill:#a3d7e1; stroke:none;" d="M357 254L358 255L357 254z"/>
<path style="fill:#6cafbb; stroke:none;" d="M398 254L399 255L398 254z"/>
<path style="fill:#a3d7e1; stroke:none;" d="M423 254L424 255L423 254M428 254L429 255L428 254M47 255L48 256L47 255M67 255L68 256L67 255M100 255L101 256L100 255M183 255L184 256L183 255z"/>
<path style="fill:#6cafbb; stroke:none;" d="M184 255L185 256L184 255z"/>
<path style="fill:#a3d7e1; stroke:none;" d="M185 255L186 256L185 255M333.333 255.667L333.667 256.333L333.333 255.667M386 255L387 256L386 255M400 255L401 256L400 255M425 255L425 256L428 256L425 255M48 256L49 257L48 256M68 256L69 257L68 256M85 256L85 259L86 259L85 256z"/>
<path style="fill:#6cafbb; stroke:none;" d="M101 256L102 257L101 256z"/>
<path style="fill:#a3d7e1; stroke:none;" d="M181 256L182 257L181 256M356 256L357 257L356 256M387 256L388 257L387 256M401 256L402 257L401 256z"/>
<path style="fill:#6cafbb; stroke:none;" d="M468 256L469 257L468 256z"/>
<path style="fill:#a3d7e1; stroke:none;" d="M69 257L70 258L69 257M101 257L102 258L101 257z"/>
<path style="fill:#6cafbb; stroke:none;" d="M180 257L181 258L180 257M187 257L188 258L187 257z"/>
<path style="fill:#a3d7e1; stroke:none;" d="M402 257L403 258L402 257M467 257L468 258L467 257M51 258L52 259L51 258z"/>
<path style="fill:#6cafbb; stroke:none;" d="M71 258L72 259L71 258M102 258L103 259L102 258M147.333 258.667L147.667 259.333L147.333 258.667z"/>
<path style="fill:#a3d7e1; stroke:none;" d="M179 258L180 259L179 258M188 258L189 259L188 258z"/>
<path style="fill:#6cafbb; stroke:none;" d="M334.333 258.667L334.667 259.333L334.333 258.667M355 258L356 259L355 258z"/>
<path style="fill:#a3d7e1; stroke:none;" d="M388 258L389 259L388 258z"/>
<path style="fill:#6cafbb; stroke:none;" d="M403 258L404 259L403 258z"/>
<path style="fill:#a3d7e1; stroke:none;" d="M466 258L467 259L466 258z"/>
<path style="fill:#6cafbb; stroke:none;" d="M52 259L53 260L52 259z"/>
<path style="fill:#a3d7e1; stroke:none;" d="M72 259L73 260L72 259z"/>
<path style="fill:#6cafbb; stroke:none;" d="M73 259L74 260L73 259M188 259L189 260L188 259z"/>
<path style="fill:#a3d7e1; stroke:none;" d="M355 259L356 260L355 259z"/>
<path style="fill:#6cafbb; stroke:none;" d="M389 259L390 260L389 259z"/>
<path style="fill:#a3d7e1; stroke:none;" d="M465 259L466 260L465 259M54 260L55 261L54 260M74 260L75 261L74 260z"/>
<path style="fill:#6cafbb; stroke:none;" d="M75 260L76 261L75 260z"/>
<path style="fill:#a3d7e1; stroke:none;" d="M103 260L104 261L103 260M147 260L147 266L148 266L147 260M178.333 260.667L178.667 261.333L178.333 260.667M334 260L334 264L335 264L334 260M406 260L407 261L406 260M464 260L465 261L464 260z"/>
<path style="fill:#6cafbb; stroke:none;" d="M55 261L56 262L55 261z"/>
<path style="fill:#a3d7e1; stroke:none;" d="M77 261L77 262L83 262L77 261M189 261L190 262L189 261z"/>
<path style="fill:#6cafbb; stroke:none;" d="M354 261L355 262L354 261z"/>
<path style="fill:#a3d7e1; stroke:none;" d="M390 261L391 262L390 261M407 261L408 262L407 261M57 262L58 263L57 262M104 262L105 263L104 262z"/>
<path style="fill:#6cafbb; stroke:none;" d="M178 262L179 263L178 262z"/>
<path style="fill:#a3d7e1; stroke:none;" d="M354 262L355 263L354 262M408 262L409 263L408 262M58 263L59 264L58 263M190 263L191 264L190 263M391 263L392 264L391 263z"/>
<path style="fill:#6cafbb; stroke:none;" d="M409 263L410 264L409 263M462 263L463 264L462 263z"/>
<path style="fill:#a3d7e1; stroke:none;" d="M60 264L61 265L60 264M105 264L106 265L105 264M177.333 264.667L177.667 265.333L177.333 264.667z"/>
<path style="fill:#6cafbb; stroke:none;" d="M190 264L191 265L190 264M353 264L354 265L353 264M392 264L393 265L392 264M410 264L411 265L410 264z"/>
<path style="fill:#a3d7e1; stroke:none;" d="M461 264L462 265L461 264M61 265L62 266L61 265z"/>
<path style="fill:#6cafbb; stroke:none;" d="M106 265L107 266L106 265M335.333 265.667L335.667 266.333L335.333 265.667z"/>
<path style="fill:#a3d7e1; stroke:none;" d="M353 265L354 266L353 265M392 265L393 266L392 265M460 265L461 266L460 265z"/>
<path style="fill:#6cafbb; stroke:none;" d="M62 266L63 267L62 266z"/>
<path style="fill:#a3d7e1; stroke:none;" d="M106 266L107 267L106 266z"/>
<path style="fill:#6cafbb; stroke:none;" d="M177 266L178 267L177 266z"/>
<path style="fill:#a3d7e1; stroke:none;" d="M191 266L192 267L191 266M393 266L394 267L393 266M459 266L460 267L459 266M107 267L108 268L107 267M335 267L335 270L336 270L335 267M414 267L415 268L414 267M65 268L66 269L65 268M176.333 268.667L176.667 269.333L176.333 268.667M192 268L193 269L192 268M352.333 268.667L352.667 269.333L352.333 268.667M394 268L395 269L394 268M415 268L416 269L415 268M458 268L459 269L458 268M66 269L67 270L66 269M108 269L109 270L108 269z"/>
<path style="fill:#6cafbb; stroke:none;" d="M192 269L193 270L192 269z"/>
<path style="fill:#a3d7e1; stroke:none;" d="M416 269L417 270L416 269M457 269L458 270L457 269z"/>
<path style="fill:#6cafbb; stroke:none;" d="M67 270L68 271L67 270M109 270L110 271L109 270M176 270L177 271L176 270z"/>
<path style="fill:#a3d7e1; stroke:none;" d="M193.333 270.667L193.667 271.333L193.333 270.667M395 270L396 271L395 270M417 270L418 271L417 270z"/>
<path style="fill:#6cafbb; stroke:none;" d="M146 271L146 279L147 279L146 271M336 271L337 272L336 271M351 271L352 272L351 271M396 271L397 272L396 271z"/>
<path style="fill:#a3d7e1; stroke:none;" d="M418 271L419 272L418 271z"/>
<path style="fill:#6cafbb; stroke:none;" d="M456 271L457 272L456 271z"/>
<path style="fill:#a3d7e1; stroke:none;" d="M30 272L30 273L34 273L30 272z"/>
<path style="fill:#6cafbb; stroke:none;" d="M34.6667 272.333L35.3333 272.667L34.6667 272.333z"/>
<path style="fill:#a3d7e1; stroke:none;" d="M110 272L111 273L110 272M175.333 272.667L175.667 273.333L175.333 272.667M336 272L336 275L337 275L336 272M351.333 272.667L351.667 273.333L351.333 272.667M396 272L397 273L396 272M419 272L420 273L419 272M455 272L456 273L455 272z"/>
<path style="fill:#6cafbb; stroke:none;" d="M27 273L28 274L27 273z"/>
<path style="fill:#a3d7e1; stroke:none;" d="M28 273L29 274L28 273M37.6667 273.333L38.3333 273.667L37.6667 273.333z"/>
<path style="fill:#6cafbb; stroke:none;" d="M39 273L40 274L39 273M70 273L71 274L70 273z"/>
<path style="fill:#a3d7e1; stroke:none;" d="M111 273L112 274L111 273M194 273L195 274L194 273z"/>
<path style="fill:#6cafbb; stroke:none;" d="M397 273L398 274L397 273z"/>
<path style="fill:#a3d7e1; stroke:none;" d="M26 274L27 275L26 274M41 274L42 275L41 274z"/>
<path style="fill:#6cafbb; stroke:none;" d="M112 274L113 275L112 274M194 274L195 275L194 274z"/>
<path style="fill:#a3d7e1; stroke:none;" d="M397 274L398 275L397 274M454 274L455 275L454 274z"/>
<path style="fill:#6cafbb; stroke:none;" d="M24 275L25 276L24 275z"/>
<path style="fill:#a3d7e1; stroke:none;" d="M43 275L44 276L43 275z"/>
<path style="fill:#6cafbb; stroke:none;" d="M44 275L45 276L44 275M113 275L114 276L113 275z"/>
<path style="fill:#a3d7e1; stroke:none;" d="M174.333 275.667L174.667 276.333L174.333 275.667M195 275L196 276L195 275z"/>
<path style="fill:#6cafbb; stroke:none;" d="M350 275L351 276L350 275M398 275L399 276L398 275z"/>
<path style="fill:#a3d7e1; stroke:none;" d="M421 275L422 276L421 275M453 275L454 276L453 275z"/>
<path style="fill:#6cafbb; stroke:none;" d="M23 276L24 277L23 276z"/>
<path style="fill:#a3d7e1; stroke:none;" d="M45 276L46 277L45 276z"/>
<path style="fill:#6cafbb; stroke:none;" d="M46 276L47 277L46 276z"/>
<path style="fill:#a3d7e1; stroke:none;" d="M70 276L71 277L70 276M114 276L115 277L114 276z"/>
<path style="fill:#6cafbb; stroke:none;" d="M195 276L196 277L195 276M337 276L338 277L337 276z"/>
<path style="fill:#a3d7e1; stroke:none;" d="M350.333 276.667L350.667 277.333L350.333 276.667M398 276L399 277L398 276z"/>
<path style="fill:#6cafbb; stroke:none;" d="M453 276L454 277L453 276M22 277L23 278L22 277z"/>
<path style="fill:#a3d7e1; stroke:none;" d="M47.6667 277.333L48.3333 277.667L47.6667 277.333z"/>
<path style="fill:#6cafbb; stroke:none;" d="M69 277L70 278L69 277z"/>
<path style="fill:#a3d7e1; stroke:none;" d="M115 277L116 278L115 277z"/>
<path style="fill:#6cafbb; stroke:none;" d="M174 277L175 278L174 277z"/>
<path style="fill:#a3d7e1; stroke:none;" d="M337.333 277.667L337.667 278.333L337.333 277.667z"/>
<path style="fill:#6cafbb; stroke:none;" d="M399 277L400 278L399 277z"/>
<path style="fill:#a3d7e1; stroke:none;" d="M422 277L423 278L422 277M452 277L453 278L452 277M22 278L23 279L22 278M50.6667 278.333L51.3333 278.667L50.6667 278.333z"/>
<path style="fill:#6cafbb; stroke:none;" d="M52 278L53 279L52 278z"/>
<path style="fill:#a3d7e1; stroke:none;" d="M68 278L69 279L68 278z"/>
<path style="fill:#6cafbb; stroke:none;" d="M117 278L118 279L117 278z"/>
<path style="fill:#a3d7e1; stroke:none;" d="M196 278L197 279L196 278M399 278L400 279L399 278z"/>
<path style="fill:#6cafbb; stroke:none;" d="M21 279L22 280L21 279z"/>
<path style="fill:#a3d7e1; stroke:none;" d="M54 279L54 280L57 280L54 279z"/>
<path style="fill:#6cafbb; stroke:none;" d="M57 279L57 280L63 280L57 279z"/>
<path style="fill:#a3d7e1; stroke:none;" d="M63 279L63 280L67 280L63 279M118 279L119 280L118 279M146 279L146 284L147 284L146 279M173.333 279.667L173.667 280.333L173.333 279.667M349.333 279.667L349.667 280.333L349.333 279.667M423.333 279.667L423.667 280.333L423.333 279.667M451 279L452 280L451 279M21 280L21 284L22 284L21 280z"/>
<path style="fill:#6cafbb; stroke:none;" d="M120 280L121 281L120 280z"/>
<path style="fill:#a3d7e1; stroke:none;" d="M197 280L198 281L197 280z"/>
<path style="fill:#6cafbb; stroke:none;" d="M338 280L339 281L338 280z"/>
<path style="fill:#a3d7e1; stroke:none;" d="M400 280L401 281L400 280M121 281L122 282L121 281z"/>
<path style="fill:#6cafbb; stroke:none;" d="M173 281L174 282L173 281M197 281L198 282L197 281z"/>
<path style="fill:#a3d7e1; stroke:none;" d="M338.333 281.667L338.667 282.333L338.333 281.667z"/>
<path style="fill:#6cafbb; stroke:none;" d="M423 281L423 284L424 284L423 281z"/>
<path style="fill:#a3d7e1; stroke:none;" d="M450 281L451 282L450 281M123 282L124 283L123 282M198.333 282.667L198.667 283.333L198.333 282.667z"/>
<path style="fill:#6cafbb; stroke:none;" d="M348 282L349 283L348 282z"/>
<path style="fill:#a3d7e1; stroke:none;" d="M401.333 282.667L401.667 283.333L401.333 282.667M125 283L126 284L125 283M172 283L172 286L173 286L172 283M348.333 283.667L348.667 284.333L348.333 283.667M449 283L450 284L449 283z"/>
<path style="fill:#6cafbb; stroke:none;" d="M21 284L22 285L21 284z"/>
<path style="fill:#a3d7e1; stroke:none;" d="M127 284L128 285L127 284z"/>
<path style="fill:#6cafbb; stroke:none;" d="M339 284L340 285L339 284M402 284L403 285L402 284z"/>
<path style="fill:#a3d7e1; stroke:none;" d="M423.333 284.667L423.667 285.333L423.333 284.667M129 285L130 286L129 285M199 285L200 286L199 285M339 285L340 286L339 285M402 285L403 286L402 285M448 285L449 286L448 285M22 286L23 287L22 286M131 286L132 287L131 286z"/>
<path style="fill:#6cafbb; stroke:none;" d="M132 286L133 287L132 286z"/>
<path style="fill:#a3d7e1; stroke:none;" d="M145 286L146 287L145 286z"/>
<path style="fill:#6cafbb; stroke:none;" d="M172 286L173 287L172 286M347 286L348 287L347 286z"/>
<path style="fill:#a3d7e1; stroke:none;" d="M134 287L135 288L134 287M200 287L201 288L200 287z"/>
<path style="fill:#6cafbb; stroke:none;" d="M340 287L341 288L340 287z"/>
<path style="fill:#a3d7e1; stroke:none;" d="M347.333 287.667L347.667 288.333L347.333 287.667z"/>
<path style="fill:#6cafbb; stroke:none;" d="M403 287L404 288L403 287M422 287L423 288L422 287z"/>
<path style="fill:#a3d7e1; stroke:none;" d="M447 287L448 288L447 287z"/>
<path style="fill:#6cafbb; stroke:none;" d="M23 288L24 289L23 288z"/>
<path style="fill:#a3d7e1; stroke:none;" d="M136.667 288.333L137.333 288.667L136.667 288.333z"/>
<path style="fill:#6cafbb; stroke:none;" d="M138 288L139 289L138 288z"/>
<path style="fill:#a3d7e1; stroke:none;" d="M144 288L145 289L144 288z"/>
<path style="fill:#6cafbb; stroke:none;" d="M200 288L201 289L200 288z"/>
<path style="fill:#a3d7e1; stroke:none;" d="M340.333 288.667L340.667 289.333L340.333 288.667M403 288L404 289L403 288M422 288L423 289L422 288z"/>
<path style="fill:#6cafbb; stroke:none;" d="M447 288L448 289L447 288M24 289L25 290L24 289z"/>
<path style="fill:#a3d7e1; stroke:none;" d="M140 289L140 290L143 290L140 289M171.333 289.667L171.667 290.333L171.333 289.667M201 289L202 290L201 289M446 289L447 290L446 289z"/>
<path style="fill:#6cafbb; stroke:none;" d="M25 290L26 291L25 290M201 290L202 291L201 290z"/>
<path style="fill:#a3d7e1; stroke:none;" d="M346 290L347 291L346 290M404.333 290.667L404.667 291.333L404.333 290.667M421.333 290.667L421.667 291.333L421.333 290.667z"/>
<path style="fill:#6cafbb; stroke:none;" d="M446 290L447 291L446 290z"/>
<path style="fill:#a3d7e1; stroke:none;" d="M27 291L28 292L27 291z"/>
<path style="fill:#6cafbb; stroke:none;" d="M171.333 291.667L171.667 292.333L171.333 291.667z"/>
<path style="fill:#a3d7e1; stroke:none;" d="M341 291L342 292L341 291z"/>
<path style="fill:#6cafbb; stroke:none;" d="M29 292L30 293L29 292z"/>
<path style="fill:#a3d7e1; stroke:none;" d="M30 292L30 293L43 293L30 292z"/>
<path style="fill:#6cafbb; stroke:none;" d="M43 292L43 293L49 293L43 292z"/>
<path style="fill:#a3d7e1; stroke:none;" d="M49 292L49 293L59 293L49 292M202 292L203 293L202 292z"/>
<path style="fill:#6cafbb; stroke:none;" d="M342 292L343 293L342 292M344 292L345 293L344 292z"/>
<path style="fill:#a3d7e1; stroke:none;" d="M345 292L346 293L345 292M445 292L446 293L445 292z"/>
<path style="fill:#6cafbb; stroke:none;" d="M62 293L62 294L65 294L62 293z"/>
<path style="fill:#a3d7e1; stroke:none;" d="M65 293L65 294L70 294L65 293M405.333 293.667L405.667 294.333L405.333 293.667z"/>
<path style="fill:#6cafbb; stroke:none;" d="M420 293L421 294L420 293M73.6667 294.333L74.3333 294.667L73.6667 294.333z"/>
<path style="fill:#a3d7e1; stroke:none;" d="M75 294L75 295L80 295L75 294M170.333 294.667L170.667 295.333L170.333 294.667M203 294L204 295L203 294M420 294L420 297L421 297L420 294M444 294L445 295L444 294z"/>
<path style="fill:#6cafbb; stroke:none;" d="M82.6667 295.333L83.3333 295.667L82.6667 295.333z"/>
<path style="fill:#a3d7e1; stroke:none;" d="M84 295L84 296L89 296L84 295z"/>
<path style="fill:#6cafbb; stroke:none;" d="M444 295L445 296L444 295M91 296L92 297L91 296z"/>
<path style="fill:#a3d7e1; stroke:none;" d="M92 296L92 297L95 297L92 296z"/>
<path style="fill:#6cafbb; stroke:none;" d="M170.333 296.667L170.667 297.333L170.333 296.667z"/>
<path style="fill:#a3d7e1; stroke:none;" d="M204 296L205 297L204 296z"/>
<path style="fill:#6cafbb; stroke:none;" d="M406 296L407 297L406 296M96 297L97 298L96 297z"/>
<path style="fill:#a3d7e1; stroke:none;" d="M97.6667 297.333L98.3333 297.667L97.6667 297.333z"/>
<path style="fill:#6cafbb; stroke:none;" d="M204 297L205 298L204 297z"/>
<path style="fill:#a3d7e1; stroke:none;" d="M406 297L407 298L406 297M443 297L444 298L443 297z"/>
<path style="fill:#6cafbb; stroke:none;" d="M100 298L101 299L100 298z"/>
<path style="fill:#a3d7e1; stroke:none;" d="M101 298L102 299L101 298M205 298L206 299L205 298z"/>
<path style="fill:#6cafbb; stroke:none;" d="M443 298L444 299L443 298M103 299L104 300L103 299z"/>
<path style="fill:#a3d7e1; stroke:none;" d="M104 299L105 300L104 299M169.333 299.667L169.667 300.333L169.333 299.667z"/>
<path style="fill:#6cafbb; stroke:none;" d="M205 299L206 300L205 299M407 299L408 300L407 299z"/>
<path style="fill:#a3d7e1; stroke:none;" d="M106 300L107 301L106 300M206 300L207 301L206 300M407.333 300.667L407.667 301.333L407.333 300.667M442 300L443 301L442 300z"/>
<path style="fill:#6cafbb; stroke:none;" d="M108 301L109 302L108 301z"/>
<path style="fill:#a3d7e1; stroke:none;" d="M109 301L110 302L109 301z"/>
<path style="fill:#6cafbb; stroke:none;" d="M169 301L170 302L169 301M206 301L207 302L206 301M419 301L419 304L420 304L419 301M442 301L443 302L442 301M110 302L111 303L110 302z"/>
<path style="fill:#a3d7e1; stroke:none;" d="M111 302L112 303L111 302M207 302L208 303L207 302z"/>
<path style="fill:#6cafbb; stroke:none;" d="M112 303L113 304L112 303z"/>
<path style="fill:#a3d7e1; stroke:none;" d="M113 303L114 304L113 303M168 303L169 304L168 303z"/>
<path style="fill:#6cafbb; stroke:none;" d="M408 303L409 304L408 303z"/>
<path style="fill:#a3d7e1; stroke:none;" d="M441 303L442 304L441 303z"/>
<path style="fill:#6cafbb; stroke:none;" d="M115 304L116 305L115 304z"/>
<path style="fill:#a3d7e1; stroke:none;" d="M116 304L117 305L116 304z"/>
<path style="fill:#6cafbb; stroke:none;" d="M168 304L169 305L168 304z"/>
<path style="fill:#a3d7e1; stroke:none;" d="M208 304L209 305L208 304M408.333 304.667L408.667 305.333L408.333 304.667M419.333 304.667L419.667 305.333L419.333 304.667z"/>
<path style="fill:#6cafbb; stroke:none;" d="M441 304L442 305L441 304z"/>
<path style="fill:#a3d7e1; stroke:none;" d="M118.667 305.333L119.333 305.667L118.667 305.333M209 305L210 306L209 305z"/>
<path style="fill:#6cafbb; stroke:none;" d="M120 306L121 307L120 306z"/>
<path style="fill:#a3d7e1; stroke:none;" d="M121.667 306.333L122.333 306.667L121.667 306.333M167 306L168 307L167 306M440 306L441 307L440 306M124.667 307.333L125.333 307.667L124.667 307.333z"/>
<path style="fill:#6cafbb; stroke:none;" d="M210 307L211 308L210 307M409 307L410 308L409 307M418 307L419 308L418 307M440 307L441 308L440 307z"/>
<path style="fill:#a3d7e1; stroke:none;" d="M127.667 308.333L128.333 308.667L127.667 308.333M166 308L167 309L166 308M211 308L212 309L211 308M409.333 308.667L409.667 309.333L409.333 308.667M418.333 308.667L418.667 309.333L418.333 308.667z"/>
<path style="fill:#6cafbb; stroke:none;" d="M130 309L131 310L130 309z"/>
<path style="fill:#a3d7e1; stroke:none;" d="M131 309L132 310L131 309M212 309L213 310L212 309M439.333 309.667L439.667 310.333L439.333 309.667z"/>
<path style="fill:#6cafbb; stroke:none;" d="M133 310L134 311L133 310z"/>
<path style="fill:#a3d7e1; stroke:none;" d="M134 310L135 311L134 310z"/>
<path style="fill:#6cafbb; stroke:none;" d="M165 310L166 311L165 310z"/>
<path style="fill:#a3d7e1; stroke:none;" d="M213 310L214 311L213 310z"/>
<path style="fill:#6cafbb; stroke:none;" d="M136 311L137 312L136 311z"/>
<path style="fill:#a3d7e1; stroke:none;" d="M137 311L138 312L137 311z"/>
<path style="fill:#6cafbb; stroke:none;" d="M164 311L165 312L164 311z"/>
<path style="fill:#a3d7e1; stroke:none;" d="M214 311L215 312L214 311z"/>
<path style="fill:#6cafbb; stroke:none;" d="M410 311L411 312L410 311z"/>
<path style="fill:#a3d7e1; stroke:none;" d="M417 311L418 312L417 311z"/>
<path style="fill:#6cafbb; stroke:none;" d="M439 311L440 312L439 311M139 312L140 313L139 312z"/>
<path style="fill:#a3d7e1; stroke:none;" d="M140 312L141 313L140 312z"/>
<path style="fill:#6cafbb; stroke:none;" d="M163 312L164 313L163 312M215 312L216 313L215 312z"/>
<path style="fill:#a3d7e1; stroke:none;" d="M410 312L410 315L411 315L410 312z"/>
<path style="fill:#6cafbb; stroke:none;" d="M142 313L143 314L142 313z"/>
<path style="fill:#a3d7e1; stroke:none;" d="M143 313L144 314L143 313M161 313L162 314L161 313z"/>
<path style="fill:#6cafbb; stroke:none;" d="M216 313L217 314L216 313z"/>
<path style="fill:#a3d7e1; stroke:none;" d="M416 313L417 314L416 313M438.333 313.667L438.667 314.333L438.333 313.667M145.667 314.333L146.333 314.667L145.667 314.333M158.667 314.333L159.333 314.667L158.667 314.333M218 314L219 315L218 314z"/>
<path style="fill:#6cafbb; stroke:none;" d="M148.667 315.333L149.333 315.667L148.667 315.333z"/>
<path style="fill:#a3d7e1; stroke:none;" d="M150 315L150 316L155 316L150 315z"/>
<path style="fill:#6cafbb; stroke:none;" d="M155.667 315.333L156.333 315.667L155.667 315.333z"/>
<path style="fill:#a3d7e1; stroke:none;" d="M219 315L220 316L219 315M415 315L416 316L415 315M220 316L221 317L220 316z"/>
<path style="fill:#6cafbb; stroke:none;" d="M411 316L412 317L411 316z"/>
<path style="fill:#a3d7e1; stroke:none;" d="M437.333 316.667L437.667 317.333L437.333 316.667z"/>
<path style="fill:#6cafbb; stroke:none;" d="M221 317L222 318L221 317z"/>
<path style="fill:#a3d7e1; stroke:none;" d="M411 317L411 320L412 320L411 317M414 317L415 318L414 317M413 318L414 319L413 318M224 319L225 320L224 319z"/>
<path style="fill:#6cafbb; stroke:none;" d="M412 319L413 320L412 319z"/>
<path style="fill:#a3d7e1; stroke:none;" d="M436.333 319.667L436.667 320.333L436.333 319.667M225 320L226 321L225 320z"/>
<path style="fill:#6cafbb; stroke:none;" d="M374 320L375 321L374 320z"/>
<path style="fill:#a3d7e1; stroke:none;" d="M377 320L378 321L377 320M226 321L227 322L226 321M373 321L374 322L373 321M378.333 321.667L378.667 322.333L378.333 321.667z"/>
<path style="fill:#6cafbb; stroke:none;" d="M227 322L228 323L227 322z"/>
<path style="fill:#a3d7e1; stroke:none;" d="M435 322L436 323L435 322M229 323L230 324L229 323M372 323L373 324L372 323z"/>
<path style="fill:#6cafbb; stroke:none;" d="M378 323L379 324L378 323z"/>
<path style="fill:#a3d7e1; stroke:none;" d="M230 324L231 325L230 324z"/>
<path style="fill:#6cafbb; stroke:none;" d="M372 324L373 325L372 324z"/>
<path style="fill:#a3d7e1; stroke:none;" d="M434 324L435 325L434 324z"/>
<path style="fill:#6cafbb; stroke:none;" d="M231 325L232 326L231 325z"/>
<path style="fill:#a3d7e1; stroke:none;" d="M379 325L379 328L380 328L379 325z"/>
<path style="fill:#6cafbb; stroke:none;" d="M434 325L435 326L434 325M232 326L233 327L232 326z"/>
<path style="fill:#a3d7e1; stroke:none;" d="M371 326L372 327L371 326M234 327L235 328L234 327M433 327L434 328L433 327M235 328L236 329L235 328M370 328L371 329L370 328z"/>
<path style="fill:#6cafbb; stroke:none;" d="M379 328L380 329L379 328M236 329L237 330L236 329M370 329L371 330L370 329z"/>
<path style="fill:#a3d7e1; stroke:none;" d="M432 329L433 330L432 329M380 330L380 333L381 333L380 330z"/>
<path style="fill:#6cafbb; stroke:none;" d="M432 330L433 331L432 330z"/>
<path style="fill:#a3d7e1; stroke:none;" d="M239 331L240 332L239 331M369 331L370 332L369 331M240 332L241 333L240 332M431 332L432 333L431 332z"/>
<path style="fill:#6cafbb; stroke:none;" d="M241 333L242 334L241 333z"/>
<path style="fill:#a3d7e1; stroke:none;" d="M368 333L369 334L368 333z"/>
<path style="fill:#6cafbb; stroke:none;" d="M380 333L381 334L380 333M431 333L432 334L431 333M368 334L369 335L368 334M243 335L244 336L243 335z"/>
<path style="fill:#a3d7e1; stroke:none;" d="M367.333 335.667L367.667 336.333L367.333 335.667M381 335L381 338L382 338L381 335M430.333 335.667L430.667 336.333L430.333 335.667M244 336L245 337L244 336z"/>
<path style="fill:#6cafbb; stroke:none;" d="M430 337L431 338L430 337M205 338L205 339L208 339L205 338z"/>
<path style="fill:#a3d7e1; stroke:none;" d="M208 338L208 339L230 339L208 338z"/>
<path style="fill:#6cafbb; stroke:none;" d="M230 338L230 339L234 339L230 338z"/>
<path style="fill:#a3d7e1; stroke:none;" d="M245 338L246 339L245 338M366 338L367 339L366 338z"/>
<path style="fill:#6cafbb; stroke:none;" d="M381 338L382 339L381 338M199 339L200 340L199 339z"/>
<path style="fill:#a3d7e1; stroke:none;" d="M200 339L200 340L203 340L200 339M236 339L236 340L242 340L236 339z"/>
<path style="fill:#6cafbb; stroke:none;" d="M242.667 339.333L243.333 339.667L242.667 339.333M245 339L246 340L245 339M366 339L367 340L366 339z"/>
<path style="fill:#a3d7e1; stroke:none;" d="M429 339L430 340L429 339z"/>
<path style="fill:#6cafbb; stroke:none;" d="M195 340L196 341L195 340z"/>
<path style="fill:#a3d7e1; stroke:none;" d="M196.667 340.333L197.333 340.667L196.667 340.333z"/>
<path style="fill:#6cafbb; stroke:none;" d="M429 340L430 341L429 340z"/>
<path style="fill:#a3d7e1; stroke:none;" d="M192.667 341.333L193.333 341.667L192.667 341.333M365 341L366 342L365 341M382.333 341.667L382.667 342.333L382.333 341.667z"/>
<path style="fill:#6cafbb; stroke:none;" d="M189 342L190 343L189 342z"/>
<path style="fill:#a3d7e1; stroke:none;" d="M190 342L191 343L190 342M428.333 342.667L428.667 343.333L428.333 342.667z"/>
<path style="fill:#6cafbb; stroke:none;" d="M187 343L188 344L187 343z"/>
<path style="fill:#a3d7e1; stroke:none;" d="M188 343L189 344L188 343M364.333 343.667L364.667 344.333L364.333 343.667z"/>
<path style="fill:#6cafbb; stroke:none;" d="M382.333 343.667L382.667 344.333L382.333 343.667z"/>
<path style="fill:#a3d7e1; stroke:none;" d="M186 344L187 345L186 344z"/>
<path style="fill:#6cafbb; stroke:none;" d="M428 344L429 345L428 344z"/>
<path style="fill:#a3d7e1; stroke:none;" d="M185 345L186 346L185 345z"/>
<path style="fill:#6cafbb; stroke:none;" d="M364 345L365 346L364 345M170 346L171 347L170 346z"/>
<path style="fill:#a3d7e1; stroke:none;" d="M171 346L171 347L176 347L171 346z"/>
<path style="fill:#6cafbb; stroke:none;" d="M176 346L177 347L176 346M184 346L185 347L184 346z"/>
<path style="fill:#a3d7e1; stroke:none;" d="M383 346L383 349L384 349L383 346M427 346L428 347L427 346z"/>
<path style="fill:#6cafbb; stroke:none;" d="M167 347L168 348L167 347z"/>
<path style="fill:#a3d7e1; stroke:none;" d="M168 347L169 348L168 347M177 347L178 348L177 347z"/>
<path style="fill:#6cafbb; stroke:none;" d="M178 347L179 348L178 347z"/>
<path style="fill:#a3d7e1; stroke:none;" d="M184 347L185 348L184 347M363 347L364 348L363 347z"/>
<path style="fill:#6cafbb; stroke:none;" d="M427 347L428 348L427 347z"/>
<path style="fill:#a3d7e1; stroke:none;" d="M166 348L167 349L166 348M179 348L180 349L179 348z"/>
<path style="fill:#6cafbb; stroke:none;" d="M363.333 348.667L363.667 349.333L363.333 348.667M164 349L165 350L164 349z"/>
<path style="fill:#a3d7e1; stroke:none;" d="M180 349L181 350L180 349z"/>
<path style="fill:#6cafbb; stroke:none;" d="M183 349L184 350L183 349M383 349L384 350L383 349z"/>
<path style="fill:#a3d7e1; stroke:none;" d="M426.333 349.667L426.667 350.333L426.333 349.667M163 350L164 351L163 350z"/>
<path style="fill:#6cafbb; stroke:none;" d="M181 350L182 351L181 350z"/>
<path style="fill:#a3d7e1; stroke:none;" d="M183 350L184 351L183 350z"/>
<path style="fill:#6cafbb; stroke:none;" d="M162 351L163 352L162 351z"/>
<path style="fill:#a3d7e1; stroke:none;" d="M181 351L182 352L181 351z"/>
<path style="fill:#6cafbb; stroke:none;" d="M183 351L182 353L183 351z"/>
<path style="fill:#a3d7e1; stroke:none;" d="M362.333 351.667L362.667 352.333L362.333 351.667z"/>
<path style="fill:#6cafbb; stroke:none;" d="M426 351L427 352L426 351z"/>
<path style="fill:#1eb3c7; stroke:none;" d="M183.333 352.667L183.667 353.333L183.333 352.667z"/>
<path style="fill:#a3d7e1; stroke:none;" d="M384 352L384 355L385 355L384 352M161 353L162 354L161 353M182 353L183 354L182 353z"/>
<path style="fill:#6cafbb; stroke:none;" d="M362.333 353.667L362.667 354.333L362.333 353.667z"/>
<path style="fill:#a3d7e1; stroke:none;" d="M425 353L426 354L425 353z"/>
<path style="fill:#6cafbb; stroke:none;" d="M160 354L161 355L160 354M183 354L184 355L183 354z"/>
<path style="fill:#a3d7e1; stroke:none;" d="M184 354L183 356L184 354z"/>
<path style="fill:#6cafbb; stroke:none;" d="M425 354L426 355L425 354z"/>
<path style="fill:#a3d7e1; stroke:none;" d="M160 355L161 356L160 355z"/>
<path style="fill:#1eb3c7; stroke:none;" d="M184.333 355.667L184.667 356.333L184.333 355.667z"/>
<path style="fill:#6cafbb; stroke:none;" d="M384 355L385 356L384 355z"/>
<path style="fill:#a3d7e1; stroke:none;" d="M185 356L184 359L185 359L185 356M424 356L425 357L424 356z"/>
<path style="fill:#6cafbb; stroke:none;" d="M159.333 357.667L159.667 358.333L159.333 357.667M185 357L186 358L185 357z"/>
<path style="fill:#a3d7e1; stroke:none;" d="M361 357L361 372L362 372L361 357z"/>
<path style="fill:#6cafbb; stroke:none;" d="M424 357L425 358L424 357z"/>
<path style="fill:#1eb3c7; stroke:none;" d="M185 358C187.14 369.356 192.15 379.291 196.399 390C197.932 393.865 198.869 399.571 202.278 402.262C209.949 408.317 229.527 408.994 239 409C237.819 401.681 228.563 397.047 223 392.873C208.681 382.13 197.24 370.779 185 358z"/>
<path style="fill:#a3d7e1; stroke:none;" d="M385.333 358.667L385.667 359.333L385.333 358.667M159.333 359.667L159.667 360.333L159.333 359.667z"/>
<path style="fill:#6cafbb; stroke:none;" d="M186 359L187 360L186 359z"/>
<path style="fill:#a3d7e1; stroke:none;" d="M423.333 359.667L423.667 360.333L423.333 359.667z"/>
<path style="fill:#6cafbb; stroke:none;" d="M185.333 360.667L185.667 361.333L185.333 360.667z"/>
<path style="fill:#a3d7e1; stroke:none;" d="M187 360L188 361L187 360z"/>
<path style="fill:#6cafbb; stroke:none;" d="M385 360L386 361L385 360M159.333 361.667L159.667 362.333L159.333 361.667M423 361L424 362L423 361z"/>
<path style="fill:#a3d7e1; stroke:none;" d="M185 362L185 365L186 365L185 362M188 362L189 363L188 362M386 362L386 365L387 365L386 362M189 363L190 364L189 363M422 363L423 364L422 363M160 364L161 365L160 364z"/>
<path style="fill:#6cafbb; stroke:none;" d="M422 364L423 365L422 364M160 365L161 366L160 365M190 365L191 366L190 365z"/>
<path style="fill:#a3d7e1; stroke:none;" d="M161 366L162 367L161 366z"/>
<path style="fill:#6cafbb; stroke:none;" d="M186 366L187 367L186 366z"/>
<path style="fill:#a3d7e1; stroke:none;" d="M191 366L192 367L191 366M421 366L422 367L421 366z"/>
<path style="fill:#6cafbb; stroke:none;" d="M161 367L162 368L161 367z"/>
<path style="fill:#a3d7e1; stroke:none;" d="M186 367L187 368L186 367M192 367L193 368L192 367M387 367L388 368L387 367z"/>
<path style="fill:#6cafbb; stroke:none;" d="M421 367L422 368L421 367M118 368L119 369L118 368z"/>
<path style="fill:#a3d7e1; stroke:none;" d="M119 368L119 369L124 369L119 368z"/>
<path style="fill:#6cafbb; stroke:none;" d="M124 368L125 369L124 368z"/>
<path style="fill:#a3d7e1; stroke:none;" d="M162 368L163 369L162 368M193 368L194 369L193 368z"/>
<path style="fill:#6cafbb; stroke:none;" d="M387 368L388 369L387 368z"/>
<path style="fill:#a3d7e1; stroke:none;" d="M117 369L118 370L117 369M126 369L127 370L126 369M187 369L188 370L187 369M194 369L195 370L194 369M420.333 369.667L420.667 370.333L420.333 369.667M128 370L129 371L128 370z"/>
<path style="fill:#6cafbb; stroke:none;" d="M129 370L130 371L129 370M163 370L164 371L163 370z"/>
<path style="fill:#a3d7e1; stroke:none;" d="M195 370L196 371L195 370M388.333 370.667L388.667 371.333L388.333 370.667M115 371L116 372L115 371M130 371L131 372L130 371M164 371L165 372L164 371M188 371L189 372L188 371M196 371L197 372L196 371z"/>
<path style="fill:#6cafbb; stroke:none;" d="M114 372L115 373L114 372M132 372L133 373L132 372z"/>
<path style="fill:#a3d7e1; stroke:none;" d="M197 372L198 373L197 372z"/>
<path style="fill:#6cafbb; stroke:none;" d="M361 372L361 375L362 375L361 372z"/>
<path style="fill:#a3d7e1; stroke:none;" d="M419.333 372.667L419.667 373.333L419.333 372.667M114.333 373.667L114.667 374.333L114.333 373.667M133 373L134 374L133 373M165 373L166 374L165 373M189 373L190 374L189 373M198 373L199 374L198 373M389 373L390 374L389 373M134 374L135 375L134 374z"/>
<path style="fill:#6cafbb; stroke:none;" d="M199 374L200 375L199 374M389 374L390 375L389 374z"/>
<path style="fill:#a3d7e1; stroke:none;" d="M135 375L136 376L135 375z"/>
<path style="fill:#6cafbb; stroke:none;" d="M166 375L167 376L166 375z"/>
<path style="fill:#a3d7e1; stroke:none;" d="M190 375L191 376L190 375z"/>
<path style="fill:#6cafbb; stroke:none;" d="M200 375L201 376L200 375z"/>
<path style="fill:#a3d7e1; stroke:none;" d="M418 375L419 376L418 375M136 376L137 377L136 376M167 376L168 377L167 376M202 376L203 377L202 376M390 376L391 377L390 376z"/>
<path style="fill:#6cafbb; stroke:none;" d="M418 376L419 377L418 376z"/>
<path style="fill:#a3d7e1; stroke:none;" d="M114.333 377.667L114.667 378.333L114.333 377.667M137 377L138 378L137 377z"/>
<path style="fill:#6cafbb; stroke:none;" d="M191 377L192 378L191 377z"/>
<path style="fill:#a3d7e1; stroke:none;" d="M203 377L204 378L203 377M264.667 377.333L265.333 377.667L264.667 377.333z"/>
<path style="fill:#6cafbb; stroke:none;" d="M266.667 377.333L267.333 377.667L266.667 377.333z"/>
<path style="fill:#a3d7e1; stroke:none;" d="M268 377L268 378L281 378L268 377M360 377L360 382L361 382L360 377M417 377L418 378L417 377M138 378L139 379L138 378M168 378L169 379L168 378M191 378L192 379L191 378M204 378L205 379L204 378z"/>
<path style="fill:#6cafbb; stroke:none;" d="M282.667 378.333L283.333 378.667L282.667 378.333z"/>
<path style="fill:#a3d7e1; stroke:none;" d="M284.667 378.333L285.333 378.667L284.667 378.333M391 378L392 379L391 378z"/>
<path style="fill:#6cafbb; stroke:none;" d="M417 378L418 379L417 378M114 379L115 380L114 379M139 379L140 380L139 379z"/>
<path style="fill:#a3d7e1; stroke:none;" d="M205 379L206 380L205 379M263 379L264 380L263 379z"/>
<path style="fill:#6cafbb; stroke:none;" d="M287 379L288 380L287 379z"/>
<path style="fill:#a3d7e1; stroke:none;" d="M288 379L289 380L288 379M416 379L417 380L416 379M169 380L170 381L169 380M192 380L193 381L192 380z"/>
<path style="fill:#6cafbb; stroke:none;" d="M206 380L207 381L206 380z"/>
<path style="fill:#a3d7e1; stroke:none;" d="M264 380L265 381L264 380z"/>
<path style="fill:#6cafbb; stroke:none;" d="M265 380L266 381L265 380z"/>
<path style="fill:#a3d7e1; stroke:none;" d="M290 380L291 381L290 380M392 380L393 381L392 380z"/>
<path style="fill:#6cafbb; stroke:none;" d="M416 380L417 381L416 380z"/>
<path style="fill:#a3d7e1; stroke:none;" d="M115 381L116 382L115 381M170 381L171 382L170 381M208 381L209 382L208 381M267 381L268 382L267 381M292 381L293 382L292 381M415 381L416 382L415 381z"/>
<path style="fill:#6cafbb; stroke:none;" d="M115 382L116 383L115 382M170 382L171 383L170 382M193 382L194 383L193 382z"/>
<path style="fill:#a3d7e1; stroke:none;" d="M209 382L210 383L209 382z"/>
<path style="fill:#6cafbb; stroke:none;" d="M269 382L270 383L269 382z"/>
<path style="fill:#a3d7e1; stroke:none;" d="M294 382L295 383L294 382z"/>
<path style="fill:#6cafbb; stroke:none;" d="M360 382L360 386L361 386L360 382z"/>
<path style="fill:#a3d7e1; stroke:none;" d="M393 382L394 383L393 382M414 382L415 383L414 382M171 383L172 384L171 383M193 383L194 384L193 383M210 383L211 384L210 383M270 383L271 384L270 383z"/>
<path style="fill:#6cafbb; stroke:none;" d="M271 383L272 384L271 383z"/>
<path style="fill:#a3d7e1; stroke:none;" d="M296 383L297 384L296 383M116 384L117 385L116 384z"/>
<path style="fill:#6cafbb; stroke:none;" d="M171 384L172 385L171 384M211 384L212 385L211 384z"/>
<path style="fill:#a3d7e1; stroke:none;" d="M272 384L273 385L272 384z"/>
<path style="fill:#6cafbb; stroke:none;" d="M273 384L274 385L273 384z"/>
<path style="fill:#a3d7e1; stroke:none;" d="M298 384L299 385L298 384z"/>
<path style="fill:#6cafbb; stroke:none;" d="M394 384L395 385L394 384M145 385L146 386L145 385z"/>
<path style="fill:#a3d7e1; stroke:none;" d="M194 385L195 386L194 385M213 385L214 386L213 385M274 385L275 386L274 385z"/>
<path style="fill:#6cafbb; stroke:none;" d="M300 385L301 386L300 385z"/>
<path style="fill:#a3d7e1; stroke:none;" d="M301 385L302 386L301 385M395 385L396 386L395 385z"/>
<path style="fill:#6cafbb; stroke:none;" d="M117 386L118 387L117 386z"/>
<path style="fill:#a3d7e1; stroke:none;" d="M146 386L147 387L146 386M172 386L173 387L172 386M214 386L215 387L214 386z"/>
<path style="fill:#6cafbb; stroke:none;" d="M276 386L277 387L276 386M302 386L303 387L302 386z"/>
<path style="fill:#a3d7e1; stroke:none;" d="M303 386L304 387L303 386M410 386L411 387L410 386M118 387L119 388L118 387z"/>
<path style="fill:#6cafbb; stroke:none;" d="M148 387L149 388L148 387M172 387L173 388L172 387M195 387L196 388L195 387M215 387L216 388L215 387z"/>
<path style="fill:#a3d7e1; stroke:none;" d="M277 387L278 388L277 387z"/>
<path style="fill:#6cafbb; stroke:none;" d="M278 387L279 388L278 387M304 387L305 388L304 387z"/>
<path style="fill:#a3d7e1; stroke:none;" d="M305 387L306 388L305 387z"/>
<path style="fill:#6cafbb; stroke:none;" d="M396 387L397 388L396 387z"/>
<path style="fill:#a3d7e1; stroke:none;" d="M409 387L410 388L409 387M149 388L150 389L149 388z"/>
<path style="fill:#6cafbb; stroke:none;" d="M150 388L151 389L150 388z"/>
<path style="fill:#a3d7e1; stroke:none;" d="M195 388L196 389L195 388M217 388L218 389L217 388M279 388L280 389L279 388M307 388L308 389L307 388M397 388L398 389L397 388M407 388L408 389L407 388z"/>
<path style="fill:#6cafbb; stroke:none;" d="M119 389L120 390L119 389z"/>
<path style="fill:#a3d7e1; stroke:none;" d="M151 389L152 390L151 389z"/>
<path style="fill:#6cafbb; stroke:none;" d="M152 389L153 390L152 389z"/>
<path style="fill:#a3d7e1; stroke:none;" d="M173.333 389.667L173.667 390.333L173.333 389.667M218 389L219 390L218 389M280 389L281 390L280 389z"/>
<path style="fill:#6cafbb; stroke:none;" d="M309 389L310 390L309 389z"/>
<path style="fill:#a3d7e1; stroke:none;" d="M310 389L311 390L310 389z"/>
<path style="fill:#6cafbb; stroke:none;" d="M398 389L399 390L398 389z"/>
<path style="fill:#a3d7e1; stroke:none;" d="M404.667 389.333L405.333 389.667L404.667 389.333M120 390L121 391L120 390M154 390L155 391L154 390z"/>
<path style="fill:#6cafbb; stroke:none;" d="M155 390L156 391L155 390z"/>
<path style="fill:#a3d7e1; stroke:none;" d="M196.333 390.667L196.667 391.333L196.333 390.667z"/>
<path style="fill:#6cafbb; stroke:none;" d="M219 390L220 391L219 390z"/>
<path style="fill:#a3d7e1; stroke:none;" d="M282 390L283 391L282 390z"/>
<path style="fill:#6cafbb; stroke:none;" d="M311 390L312 391L311 390z"/>
<path style="fill:#a3d7e1; stroke:none;" d="M312 390L313 391L312 390M359.333 390.667L359.667 391.333L359.333 390.667z"/>
<path style="fill:#6cafbb; stroke:none;" d="M400 390L401 391L400 390z"/>
<path style="fill:#a3d7e1; stroke:none;" d="M401 390L402 391L401 390z"/>
<path style="fill:#6cafbb; stroke:none;" d="M402 390L403 391L402 390z"/>
<path style="fill:#a3d7e1; stroke:none;" d="M121 391L122 392L121 391M157 391L158 392L157 391z"/>
<path style="fill:#6cafbb; stroke:none;" d="M173.333 391.667L173.667 392.333L173.333 391.667z"/>
<path style="fill:#a3d7e1; stroke:none;" d="M221 391L222 392L221 391M283 391L284 392L283 391M314 391L315 392L314 391M122 392L123 393L122 392M159 392L160 393L159 392z"/>
<path style="fill:#6cafbb; stroke:none;" d="M160 392L161 393L160 392M197 392L198 393L197 392z"/>
<path style="fill:#a3d7e1; stroke:none;" d="M222 392L223 393L222 392z"/>
<path style="fill:#6cafbb; stroke:none;" d="M285 392L286 393L285 392z"/>
<path style="fill:#a3d7e1; stroke:none;" d="M316 392L317 393L316 392z"/>
<path style="fill:#6cafbb; stroke:none;" d="M359 392L360 393L359 392M123 393L124 394L123 393z"/>
<path style="fill:#a3d7e1; stroke:none;" d="M162 393L163 394L162 393M173.333 393.667L173.667 394.333L173.333 393.667M197 393L198 394L197 393z"/>
<path style="fill:#6cafbb; stroke:none;" d="M223 393L224 394L223 393z"/>
<path style="fill:#a3d7e1; stroke:none;" d="M286 393L287 394L286 393z"/>
<path style="fill:#6cafbb; stroke:none;" d="M318 393L319 394L318 393z"/>
<path style="fill:#a3d7e1; stroke:none;" d="M319 393L320 394L319 393M164 394L165 395L164 394z"/>
<path style="fill:#6cafbb; stroke:none;" d="M165 394L166 395L165 394z"/>
<path style="fill:#a3d7e1; stroke:none;" d="M225 394L226 395L225 394M287 394L288 395L287 394z"/>
<path style="fill:#6cafbb; stroke:none;" d="M320 394L321 395L320 394z"/>
<path style="fill:#a3d7e1; stroke:none;" d="M321 394L322 395L321 394M358 394L359 395L358 394M126 395L127 396L126 395M166.667 395.333L167.333 395.667L166.667 395.333z"/>
<path style="fill:#6cafbb; stroke:none;" d="M168 395L169 396L168 395z"/>
<path style="fill:#a3d7e1; stroke:none;" d="M172 395L173 396L172 395z"/>
<path style="fill:#6cafbb; stroke:none;" d="M198 395L199 396L198 395z"/>
<path style="fill:#a3d7e1; stroke:none;" d="M226 395L227 396L226 395z"/>
<path style="fill:#6cafbb; stroke:none;" d="M289 395L290 396L289 395M322 395L323 396L322 395z"/>
<path style="fill:#a3d7e1; stroke:none;" d="M323 395L324 396L323 395z"/>
<path style="fill:#6cafbb; stroke:none;" d="M358 395L359 396L358 395M127 396L128 397L127 396z"/>
<path style="fill:#a3d7e1; stroke:none;" d="M198 396L199 397L198 396z"/>
<path style="fill:#6cafbb; stroke:none;" d="M227 396L228 397L227 396z"/>
<path style="fill:#a3d7e1; stroke:none;" d="M290 396L291 397L290 396M325 396L326 397L325 396M357 396L358 397L357 396M129 397L130 398L129 397M229 397L230 398L229 397M291 397L292 398L291 397M327 397L328 398L327 397z"/>
<path style="fill:#6cafbb; stroke:none;" d="M130 398L131 399L130 398z"/>
<path style="fill:#a3d7e1; stroke:none;" d="M131 398L132 399L131 398M199.333 398.667L199.667 399.333L199.333 398.667M230 398L231 399L230 398M292 398L293 399L292 398z"/>
<path style="fill:#6cafbb; stroke:none;" d="M329 398L330 399L329 398z"/>
<path style="fill:#a3d7e1; stroke:none;" d="M330 398L331 399L330 398z"/>
<path style="fill:#6cafbb; stroke:none;" d="M356 398L357 399L356 398M132 399L133 400L132 399z"/>
<path style="fill:#a3d7e1; stroke:none;" d="M133 399L134 400L133 399M231 399L232 400L231 399z"/>
<path style="fill:#6cafbb; stroke:none;" d="M294 399L295 400L294 399z"/>
<path style="fill:#a3d7e1; stroke:none;" d="M332 399L333 400L332 399z"/>
<path style="fill:#6cafbb; stroke:none;" d="M355 399L356 400L355 399M134 400L135 401L134 400z"/>
<path style="fill:#a3d7e1; stroke:none;" d="M135 400L136 401L135 400z"/>
<path style="fill:#6cafbb; stroke:none;" d="M232 400L233 401L232 400z"/>
<path style="fill:#a3d7e1; stroke:none;" d="M295 400L296 401L295 400z"/>
<path style="fill:#6cafbb; stroke:none;" d="M334 400L335 401L334 400z"/>
<path style="fill:#a3d7e1; stroke:none;" d="M335 400L336 401L335 400M353 400L354 401L353 400M137 401L138 402L137 401M200 401L201 402L200 401M234 401L235 402L234 401M296 401L297 402L296 401z"/>
<path style="fill:#6cafbb; stroke:none;" d="M337 401L338 402L337 401z"/>
<path style="fill:#a3d7e1; stroke:none;" d="M338.667 401.333L339.333 401.667L338.667 401.333M351 401L352 402L351 401z"/>
<path style="fill:#6cafbb; stroke:none;" d="M352 401L353 402L352 401z"/>
<path style="fill:#a3d7e1; stroke:none;" d="M139 402L140 403L139 402M201 402L202 403L201 402M235 402L236 403L235 402M297 402L298 403L297 402z"/>
<path style="fill:#6cafbb; stroke:none;" d="M342 402L343 403L342 402z"/>
<path style="fill:#a3d7e1; stroke:none;" d="M343 402L343 403L349 403L343 402z"/>
<path style="fill:#6cafbb; stroke:none;" d="M349 402L350 403L349 402M141 403L142 404L141 403z"/>
<path style="fill:#a3d7e1; stroke:none;" d="M142 403L143 404L142 403M202 403L203 404L202 403z"/>
<path style="fill:#6cafbb; stroke:none;" d="M203 403L204 404L203 403M236 403L237 404L236 403M143 404L144 405L143 404z"/>
<path style="fill:#a3d7e1; stroke:none;" d="M144 404L145 405L144 404M204 404L204 405L207 405L204 404z"/>
<path style="fill:#6cafbb; stroke:none;" d="M207.667 404.333L208.333 404.667L207.667 404.333M145 405L146 406L145 405z"/>
<path style="fill:#a3d7e1; stroke:none;" d="M146 405L147 406L146 405M210 405L210 406L213 406L210 405z"/>
<path style="fill:#6cafbb; stroke:none;" d="M213 405L214 406L213 405M147 406L148 407L147 406z"/>
<path style="fill:#a3d7e1; stroke:none;" d="M215 406L215 407L218 407L215 406z"/>
<path style="fill:#6cafbb; stroke:none;" d="M218 406L219 407L218 406z"/>
<path style="fill:#a3d7e1; stroke:none;" d="M239 406L239 409L240 409L239 406z"/>
<path style="fill:#6cafbb; stroke:none;" d="M302 406L303 407L302 406z"/>
<path style="fill:#a3d7e1; stroke:none;" d="M149 407L150 408L149 407M220 407L220 408L223 408L220 407z"/>
<path style="fill:#6cafbb; stroke:none;" d="M223 407L224 408L223 407M303 407L304 408L303 407M150 408L151 409L150 408z"/>
<path style="fill:#a3d7e1; stroke:none;" d="M226 408L226 409L229 409L226 408z"/>
<path style="fill:#6cafbb; stroke:none;" d="M229 408L230 409L229 408M304 408L305 409L304 408z"/>
<path style="fill:#a3d7e1; stroke:none;" d="M152 409L153 410L152 409M233 409L233 410L239 410L233 409z"/>
<path style="fill:#6cafbb; stroke:none;" d="M305 409L306 410L305 409z"/>
<path style="fill:#a3d7e1; stroke:none;" d="M153 410L154 411L153 410z"/>
<path style="fill:#6cafbb; stroke:none;" d="M306 410L307 411L306 410M154 411L155 412L154 411M307 411L308 412L307 411z"/>
<path style="fill:#a3d7e1; stroke:none;" d="M157 414L158 415L157 414z"/>
<path style="fill:#6cafbb; stroke:none;" d="M157 415L158 416L157 415z"/>
<path style="fill:#a3d7e1; stroke:none;" d="M310 415L311 416L310 415M157 416L158 417L157 416M311 416L312 417L311 416M312 417L313 418L312 417z"/>
<path style="fill:#6cafbb; stroke:none;" d="M126.667 418.333L127.333 418.667L126.667 418.333z"/>
<path style="fill:#a3d7e1; stroke:none;" d="M128 418L128 419L135 419L128 418z"/>
<path style="fill:#6cafbb; stroke:none;" d="M135.667 418.333L136.333 418.667L135.667 418.333M155 418L156 419L155 418M313 418L314 419L313 418z"/>
<path style="fill:#a3d7e1; stroke:none;" d="M122.667 419.333L123.333 419.667L122.667 419.333M138.667 419.333L139.333 419.667L138.667 419.333z"/>
<path style="fill:#6cafbb; stroke:none;" d="M140 419L141 420L140 419M153 419L154 420L153 419z"/>
<path style="fill:#a3d7e1; stroke:none;" d="M154 419L155 420L154 419M120 420L121 421L120 420M142 420L143 421L142 420z"/>
<path style="fill:#6cafbb; stroke:none;" d="M143.667 420.333L144.333 420.667L143.667 420.333M149.667 420.333L150.333 420.667L149.667 420.333z"/>
<path style="fill:#a3d7e1; stroke:none;" d="M151 420L152 421L151 420z"/>
<path style="fill:#6cafbb; stroke:none;" d="M118 421L119 422L118 421z"/>
<path style="fill:#a3d7e1; stroke:none;" d="M315 421L316 422L315 421z"/>
<path style="fill:#6cafbb; stroke:none;" d="M117 422L118 423L117 422z"/>
<path style="fill:#a3d7e1; stroke:none;" d="M316 422L317 423L316 422z"/>
<path style="fill:#6cafbb; stroke:none;" d="M317 423L318 424L317 423z"/>
<path style="fill:#a3d7e1; stroke:none;" d="M116 424L116 431L117 431L116 424M318 425L319 426L318 425z"/>
<path style="fill:#6cafbb; stroke:none;" d="M319 426L320 427L319 426z"/>
<path style="fill:#a3d7e1; stroke:none;" d="M319 427L320 428L319 427z"/>
<path style="fill:#6cafbb; stroke:none;" d="M320 428L321 429L320 428z"/>
<path style="fill:#a3d7e1; stroke:none;" d="M189 429L189 430L193 430L189 429z"/>
<path style="fill:#6cafbb; stroke:none;" d="M193 429L193 430L198 430L193 429z"/>
<path style="fill:#a3d7e1; stroke:none;" d="M198 429L198 430L201 430L198 429M320.333 429.667L320.667 430.333L320.333 429.667M185.667 430.333L186.333 430.667L185.667 430.333z"/>
<path style="fill:#6cafbb; stroke:none;" d="M187 430L188 431L187 430M202 430L203 431L202 430z"/>
<path style="fill:#a3d7e1; stroke:none;" d="M203.667 430.333L204.333 430.667L203.667 430.333z"/>
<path style="fill:#6cafbb; stroke:none;" d="M116 431L117 432L116 431z"/>
<path style="fill:#a3d7e1; stroke:none;" d="M181.667 431.333L182.333 431.667L181.667 431.333z"/>
<path style="fill:#6cafbb; stroke:none;" d="M183 431L184 432L183 431M207 431L208 432L207 431z"/>
<path style="fill:#a3d7e1; stroke:none;" d="M208.667 431.333L209.333 431.667L208.667 431.333M177.667 432.333L178.333 432.667L177.667 432.333z"/>
<path style="fill:#6cafbb; stroke:none;" d="M179 432L180 433L179 432M211 432L212 433L211 432z"/>
<path style="fill:#a3d7e1; stroke:none;" d="M212 432L212 433L215 433L212 432M117.333 433.667L117.667 434.333L117.333 433.667M173.667 433.333L174.333 433.667L173.667 433.333z"/>
<path style="fill:#6cafbb; stroke:none;" d="M216 433L217 434L216 433z"/>
<path style="fill:#a3d7e1; stroke:none;" d="M217.667 433.333L218.333 433.667L217.667 433.333M169.667 434.333L170.333 434.667L169.667 434.333z"/>
<path style="fill:#6cafbb; stroke:none;" d="M220 434L221 435L220 434z"/>
<path style="fill:#a3d7e1; stroke:none;" d="M221.667 434.333L222.333 434.667L221.667 434.333M165.667 435.333L166.333 435.667L165.667 435.333z"/>
<path style="fill:#6cafbb; stroke:none;" d="M167 435L168 436L167 435M224 435L225 436L224 435z"/>
<path style="fill:#a3d7e1; stroke:none;" d="M225.667 435.333L226.333 435.667L225.667 435.333M320 435L321 436L320 435M118 436L119 437L118 436M161.667 436.333L162.333 436.667L161.667 436.333z"/>
<path style="fill:#6cafbb; stroke:none;" d="M163 436L164 437L163 436M227 436L228 437L227 436z"/>
<path style="fill:#a3d7e1; stroke:none;" d="M228.667 436.333L229.333 436.667L228.667 436.333z"/>
<path style="fill:#6cafbb; stroke:none;" d="M320 436L321 437L320 436z"/>
<path style="fill:#a3d7e1; stroke:none;" d="M157.667 437.333L158.333 437.667L157.667 437.333z"/>
<path style="fill:#6cafbb; stroke:none;" d="M159 437L160 438L159 437z"/>
<path style="fill:#a3d7e1; stroke:none;" d="M231.667 437.333L232.333 437.667L231.667 437.333M119 438L120 439L119 438M154 438L155 439L154 438z"/>
<path style="fill:#6cafbb; stroke:none;" d="M155 438L156 439L155 438M235.667 438.333L236.333 438.667L235.667 438.333z"/>
<path style="fill:#a3d7e1; stroke:none;" d="M237 438L237 439L244 439L237 438z"/>
<path style="fill:#6cafbb; stroke:none;" d="M319 438L320 439L319 438z"/>
<path style="fill:#a3d7e1; stroke:none;" d="M120 439L121 440L120 439M150.667 439.333L151.333 439.667L150.667 439.333z"/>
<path style="fill:#6cafbb; stroke:none;" d="M246.667 439.333L247.333 439.667L246.667 439.333z"/>
<path style="fill:#a3d7e1; stroke:none;" d="M248 439L248 440L252 440L248 439M318 439L319 440L318 439M121 440L122 441L121 440M146.667 440.333L147.333 440.667L146.667 440.333z"/>
<path style="fill:#6cafbb; stroke:none;" d="M148 440L149 441L148 440M253.667 440.333L254.333 440.667L253.667 440.333z"/>
<path style="fill:#a3d7e1; stroke:none;" d="M255 440L255 441L258 441L255 440M317 440L318 441L317 440M122 441L123 442L122 441M143 441L144 442L143 441z"/>
<path style="fill:#6cafbb; stroke:none;" d="M144 441L145 442L144 441M259 441L260 442L259 441z"/>
<path style="fill:#a3d7e1; stroke:none;" d="M260.667 441.333L261.333 441.667L260.667 441.333z"/>
<path style="fill:#6cafbb; stroke:none;" d="M316 441L317 442L316 441M123 442L124 443L123 442z"/>
<path style="fill:#a3d7e1; stroke:none;" d="M140 442L141 443L140 442z"/>
<path style="fill:#6cafbb; stroke:none;" d="M141 442L142 443L141 442M264 442L265 443L264 442z"/>
<path style="fill:#a3d7e1; stroke:none;" d="M265.667 442.333L266.333 442.667L265.667 442.333M314 442L315 443L314 442M125 443L126 444L125 443M138 443L139 444L138 443z"/>
<path style="fill:#6cafbb; stroke:none;" d="M268.667 443.333L269.333 443.667L268.667 443.333z"/>
<path style="fill:#a3d7e1; stroke:none;" d="M270.667 443.333L271.333 443.667L270.667 443.333M311.667 443.333L312.333 443.667L311.667 443.333z"/>
<path style="fill:#6cafbb; stroke:none;" d="M127 444L128 445L127 444z"/>
<path style="fill:#a3d7e1; stroke:none;" d="M128.667 444.333L129.333 444.667L128.667 444.333M134.667 444.333L135.333 444.667L134.667 444.333z"/>
<path style="fill:#6cafbb; stroke:none;" d="M136 444L137 445L136 444M273 444L274 445L273 444z"/>
<path style="fill:#a3d7e1; stroke:none;" d="M274 444L274 445L277 445L274 444M308.667 444.333L309.333 444.667L308.667 444.333z"/>
<path style="fill:#6cafbb; stroke:none;" d="M310 444L311 445L310 444M278 445L279 446L278 445z"/>
<path style="fill:#a3d7e1; stroke:none;" d="M279 445L279 446L282 446L279 445M303 445L303 446L306 446L303 445z"/>
<path style="fill:#6cafbb; stroke:none;" d="M306 445L307 446L306 445M283.667 446.333L284.333 446.667L283.667 446.333z"/>
<path style="fill:#a3d7e1; stroke:none;" d="M285 446L285 447L300 447L285 446z"/>
<path style="fill:#6cafbb; stroke:none;" d="M300.667 446.333L301.333 446.667L300.667 446.333z"/>
<path style="fill:#859fa5; stroke:none;" d="M0 511L1 512L0 511M511 511L512 512L511 511z"/>
</svg>
