<svg width="12" height="25" fill="none" xmlns="http://www.w3.org/2000/svg"><path d="M10.15 7.232c0 1.176-.496 2.216-1.31 3.03-.905.904-2.216 1.13-2.216 1.899 0 1.04 1.673.723 3.278 2.328 1.063 1.063 1.718 2.465 1.718 4.092 0 3.21-2.577 5.765-5.81 5.765-3.233 0-5.81-2.552-5.81-5.762 0-1.628.656-3.03 1.718-4.092 1.605-1.606 3.278-1.289 3.278-2.329 0-.769-1.31-.995-2.215-1.899C1.967 9.45 1.47 8.41 1.47 7.189c0-2.35 1.921-4.25 4.272-4.25.453 0 .86.068 1.199.068.61 0 .927-.271.927-.701 0-.249-.114-.565-.114-.904C7.754.633 8.41 0 9.201 0c.792 0 1.425.656 1.425 1.447 0 .836-.656 1.22-1.153 1.402-.407.135-.724.316-.724.723 0 .766 1.402 1.513 1.402 3.66zM9.7 18.584c0-2.238-1.65-4.047-3.889-4.047-2.238 0-3.888 1.809-3.888 4.047 0 2.215 1.65 4.047 3.888 4.047S9.7 20.797 9.7 18.584zM8.365 7.187c0-1.424-1.153-2.6-2.555-2.6-1.401 0-2.554 1.176-2.554 2.6 0 1.424 1.153 2.6 2.554 2.6 1.402 0 2.555-1.176 2.555-2.6z" fill="#008561"/></svg>