<?xml version="1.0" encoding="iso-8859-1"?>
<!-- Generator: Adobe Illustrator 19.0.0, SVG Export Plug-In . SVG Version: 6.00 Build 0)  -->
<svg version="1.1" id="Layer_1" xmlns="http://www.w3.org/2000/svg" xmlns:xlink="http://www.w3.org/1999/xlink" x="0px" y="0px"
	 viewBox="0 0 512.002 512.002" style="enable-background:new 0 0 512.002 512.002;" xml:space="preserve">
<g>
	<g>
		<path d="M437.333,213.334c5.888,0,10.667-4.779,10.667-10.667v-128c0-29.397-23.915-53.333-53.333-53.333H53.333
			C23.915,21.334,0,45.271,0,74.668v362.667c0,29.397,23.915,53.333,53.333,53.333h341.333c29.419,0,53.333-23.936,53.333-53.333
			v-64c0-5.888-4.779-10.667-10.667-10.667c-5.888,0-10.667,4.779-10.667,10.667v64c0,17.643-14.357,32-32,32H53.333
			c-17.643,0-32-14.357-32-32V128.001h405.333v74.667C426.667,208.556,431.445,213.334,437.333,213.334z M21.333,106.668v-32
			c0-17.643,14.357-32,32-32h341.333c17.643,0,32,14.357,32,32v32H21.333z"/>
	</g>
</g>
<g>
	<g>
		<circle cx="53.333" cy="74.668" r="10.667"/>
	</g>
</g>
<g>
	<g>
		<circle cx="96" cy="74.668" r="10.667"/>
	</g>
</g>
<g>
	<g>
		<circle cx="138.667" cy="74.668" r="10.667"/>
	</g>
</g>
<g>
	<g>
		<path d="M117.333,234.668c-5.888,0-10.667,4.779-10.667,10.667v32H64v-32c0-5.888-4.779-10.667-10.667-10.667
			s-10.667,4.779-10.667,10.667v85.333c0,5.888,4.779,10.667,10.667,10.667S64,336.556,64,330.668v-32h42.667v32
			c0,5.888,4.779,10.667,10.667,10.667S128,336.556,128,330.668v-85.333C128,239.446,123.221,234.668,117.333,234.668z"/>
	</g>
</g>
<g>
	<g>
		<path d="M202.667,234.668H160c-5.888,0-10.667,4.779-10.667,10.667s4.779,10.667,10.667,10.667h10.667v74.667
			c0,5.888,4.779,10.667,10.667,10.667S192,336.556,192,330.668v-74.667h10.667c5.888,0,10.667-4.779,10.667-10.667
			S208.555,234.668,202.667,234.668z"/>
	</g>
</g>
<g>
	<g>
		<path d="M288,234.668h-42.667c-5.888,0-10.667,4.779-10.667,10.667s4.779,10.667,10.667,10.667H256v74.667
			c0,5.888,4.779,10.667,10.667,10.667s10.667-4.779,10.667-10.667v-74.667H288c5.888,0,10.667-4.779,10.667-10.667
			S293.888,234.668,288,234.668z"/>
	</g>
</g>
<g>
	<g>
		<path d="M352,234.668h-21.333c-5.888,0-10.667,4.779-10.667,10.667v85.333c0,5.888,4.779,10.667,10.667,10.667
			s10.667-4.779,10.667-10.667v-32H352c17.643,0,32-14.357,32-32C384,249.025,369.643,234.668,352,234.668z M352,277.334h-10.667
			v-21.333H352c5.867,0,10.667,4.779,10.667,10.667S357.867,277.334,352,277.334z"/>
	</g>
</g>
<g>
	<g>
		<path d="M503.915,234.988c-5.803-1.493-11.52,2.027-12.928,7.765l-21.333,85.333c-1.429,5.717,2.027,11.499,7.765,12.928
			c0.875,0.213,1.728,0.32,2.581,0.32c4.8,0,9.152-3.221,10.347-8.085l21.333-85.333
			C513.109,242.198,509.653,236.417,503.915,234.988z"/>
	</g>
</g>
<g>
	<g>
		<path d="M461.248,234.988c-5.824-1.493-11.52,2.027-12.928,7.765l-21.333,85.333c-1.429,5.717,2.027,11.499,7.765,12.928
			c0.875,0.213,1.728,0.32,2.581,0.32c4.8,0,9.152-3.221,10.347-8.085l21.333-85.333
			C470.443,242.198,466.987,236.417,461.248,234.988z"/>
	</g>
</g>
<g>
	<g>
		<circle cx="416" cy="266.668" r="10.667"/>
	</g>
</g>
<g>
	<g>
		<circle cx="416" cy="309.335" r="10.667"/>
	</g>
</g>
<g>
</g>
<g>
</g>
<g>
</g>
<g>
</g>
<g>
</g>
<g>
</g>
<g>
</g>
<g>
</g>
<g>
</g>
<g>
</g>
<g>
</g>
<g>
</g>
<g>
</g>
<g>
</g>
<g>
</g>
</svg>
