<?xml version="1.0" standalone="no"?>
<!DOCTYPE svg PUBLIC "-//W3C//DTD SVG 20010904//EN"
 "http://www.w3.org/TR/2001/REC-SVG-20010904/DTD/svg10.dtd">
<svg version="1.0" xmlns="http://www.w3.org/2000/svg"
 width="224.000000pt" height="224.000000pt" viewBox="0 0 224.000000 224.000000"
 preserveAspectRatio="xMidYMid meet">

<g transform="translate(0.000000,224.000000) scale(0.100000,-0.100000)"
fill="#000000" stroke="none">
<path d="M805 1601 c-75 -14 -116 -44 -151 -111 -22 -45 -32 -325 -15 -440 31
-207 197 -376 403 -410 43 -8 136 -11 242 -8 211 5 250 20 299 113 20 37 22
58 25 315 5 404 -9 469 -115 521 -47 23 -55 24 -348 26 -165 1 -318 -2 -340
-6z m179 -287 c13 -12 16 -40 16 -140 0 -119 1 -126 25 -149 23 -24 30 -25
147 -25 68 0 128 -4 134 -8 22 -15 24 -42 3 -63 -20 -20 -30 -21 -148 -17
-212 7 -250 47 -251 266 0 99 2 114 20 132 24 24 34 25 54 4z m326 -4 c20 -20
18 -47 -4 -62 -19 -13 -201 -9 -214 4 -18 18 -15 55 6 67 9 6 56 11 105 11 74
0 90 -3 107 -20z m-35 -190 l0 -35 -83 -3 c-87 -3 -112 5 -112 37 0 34 22 42
110 39 l85 -3 0 -35z"/>
</g>
</svg>
