<svg id="svg" version="1.1" xmlns="http://www.w3.org/2000/svg" xmlns:xlink="http://www.w3.org/1999/xlink" width="400" height="100.10010010010011" viewBox="0, 0, 400,100.10010010010011"><g id="svgg"><path id="path0" d="M149.126 44.292 L 145.336 44.340 145.293 62.586 L 145.250 80.833 155.840 80.833 L 166.431 80.833 166.656 80.042 C 166.780 79.606,166.865 79.081,166.846 78.875 C 166.826 78.669,166.894 78.500,166.998 78.500 C 167.102 78.500,167.151 78.443,167.107 78.372 C 167.064 78.302,167.139 77.833,167.273 77.331 C 167.407 76.828,167.549 76.126,167.588 75.772 C 167.627 75.417,167.730 75.042,167.815 74.938 C 167.931 74.799,166.013 74.762,160.401 74.795 L 152.830 74.840 152.873 59.503 C 152.897 51.068,152.917 44.184,152.917 44.205 C 152.917 44.226,151.211 44.265,149.126 44.292 M198.833 62.583 L 198.833 80.833 210.667 80.833 L 222.500 80.833 222.500 77.750 L 222.500 74.667 214.417 74.667 L 206.333 74.667 206.333 69.750 L 206.333 64.833 212.417 64.833 L 218.500 64.833 218.500 61.833 L 218.500 58.833 212.417 58.833 L 206.333 58.833 206.333 54.417 L 206.333 50.000 213.567 50.000 L 220.800 50.000 220.977 49.208 C 221.074 48.773,221.195 48.079,221.245 47.667 C 221.295 47.254,221.447 46.504,221.583 46.000 C 221.718 45.496,221.830 44.915,221.831 44.708 L 221.833 44.333 210.333 44.333 L 198.833 44.333 198.833 62.583 M249.167 44.740 C 249.167 44.964,249.242 45.193,249.333 45.250 C 249.425 45.307,249.500 45.499,249.500 45.677 C 249.500 45.854,249.583 46.000,249.684 46.000 C 249.786 46.000,249.829 46.105,249.780 46.233 C 249.731 46.361,249.831 46.728,250.002 47.048 C 250.174 47.368,250.269 47.676,250.213 47.732 C 250.157 47.788,250.217 47.834,250.347 47.836 C 250.542 47.838,250.539 47.867,250.333 48.000 C 250.120 48.138,250.126 48.162,250.375 48.164 C 250.540 48.166,250.667 48.293,250.668 48.458 C 250.668 48.619,250.773 48.949,250.900 49.193 C 251.074 49.526,251.084 49.687,250.940 49.842 C 250.821 49.972,250.818 50.011,250.931 49.948 C 251.036 49.890,251.276 50.244,251.508 50.799 C 251.903 51.745,251.941 51.855,252.039 52.334 C 252.068 52.473,252.221 52.771,252.379 52.997 C 252.537 53.223,252.667 53.498,252.667 53.610 C 252.667 53.721,252.754 54.023,252.861 54.281 C 252.968 54.539,253.071 54.806,253.090 54.875 C 253.109 54.944,253.146 55.056,253.171 55.125 C 253.197 55.194,253.232 55.325,253.249 55.417 C 253.267 55.508,253.380 55.808,253.501 56.083 C 253.622 56.358,253.708 56.640,253.694 56.708 C 253.679 56.777,253.742 56.833,253.833 56.833 C 253.925 56.833,254.000 57.004,254.000 57.213 C 254.000 57.422,254.109 57.748,254.242 57.938 C 254.376 58.129,254.519 58.474,254.561 58.705 C 254.603 58.937,254.762 59.368,254.915 59.663 C 255.067 59.958,255.218 60.323,255.249 60.475 C 255.281 60.626,255.438 61.050,255.600 61.417 C 255.761 61.783,255.899 62.158,255.907 62.250 C 255.915 62.342,256.073 62.754,256.259 63.167 C 256.446 63.579,256.704 64.254,256.834 64.667 C 256.963 65.079,257.110 65.454,257.160 65.500 C 257.253 65.586,257.639 66.620,258.124 68.083 C 258.276 68.542,258.479 68.972,258.575 69.039 C 258.671 69.106,258.692 69.163,258.621 69.164 C 258.550 69.166,258.606 69.388,258.746 69.658 C 258.886 69.929,259.000 70.308,259.000 70.502 C 259.000 70.725,259.070 70.810,259.193 70.734 C 259.325 70.652,259.356 70.728,259.292 70.974 C 259.240 71.172,259.266 71.333,259.349 71.333 C 259.432 71.333,259.500 71.479,259.500 71.657 C 259.500 71.835,259.576 72.027,259.669 72.085 C 259.763 72.143,259.796 72.260,259.743 72.345 C 259.690 72.430,259.726 72.500,259.823 72.500 C 259.921 72.500,260.000 72.613,260.000 72.752 C 260.000 72.890,260.139 73.322,260.308 73.710 C 260.840 74.928,261.333 76.248,261.333 76.452 C 261.333 76.560,261.493 76.918,261.687 77.248 C 261.882 77.578,261.997 77.891,261.944 77.945 C 261.890 77.999,262.034 78.379,262.264 78.791 C 262.494 79.203,262.645 79.578,262.598 79.624 C 262.552 79.670,262.663 79.999,262.844 80.354 L 263.173 81.000 266.509 81.000 C 269.539 81.000,269.852 80.973,269.934 80.708 C 269.984 80.548,270.094 80.286,270.179 80.127 C 270.264 79.968,270.333 79.724,270.333 79.586 C 270.333 79.447,270.405 79.333,270.492 79.333 C 270.580 79.333,270.702 79.052,270.764 78.708 C 270.826 78.365,270.935 78.008,271.005 77.917 C 271.076 77.825,271.219 77.431,271.323 77.042 C 271.428 76.652,271.578 76.333,271.658 76.333 C 271.739 76.333,271.855 76.033,271.917 75.667 C 271.979 75.300,272.110 75.000,272.209 75.000 C 272.308 75.000,272.339 74.950,272.277 74.888 C 272.216 74.827,272.276 74.609,272.410 74.403 C 272.545 74.198,272.688 73.845,272.729 73.618 C 272.770 73.392,272.923 72.977,273.069 72.695 C 273.214 72.414,273.333 72.072,273.333 71.937 C 273.333 71.801,273.449 71.575,273.589 71.435 C 273.730 71.294,273.840 71.138,273.833 71.087 C 273.805 70.874,274.246 69.556,274.447 69.255 C 274.568 69.074,274.667 68.761,274.667 68.560 C 274.667 68.359,274.755 68.165,274.862 68.129 C 274.969 68.094,275.074 67.919,275.095 67.740 C 275.116 67.562,275.298 67.004,275.501 66.500 C 275.703 65.996,275.976 65.283,276.108 64.917 C 276.240 64.550,276.465 63.997,276.609 63.687 C 276.752 63.378,276.882 63.040,276.899 62.937 C 276.915 62.834,277.057 62.495,277.214 62.183 C 277.371 61.871,277.500 61.516,277.500 61.396 C 277.500 61.275,277.642 60.855,277.816 60.463 C 277.989 60.071,278.296 59.337,278.497 58.833 C 278.699 58.329,279.015 57.602,279.200 57.218 C 279.385 56.834,279.542 56.459,279.549 56.385 C 279.575 56.108,280.281 54.231,280.552 53.717 C 280.707 53.423,280.833 53.091,280.833 52.978 C 280.833 52.864,280.973 52.467,281.144 52.094 C 281.620 51.056,282.166 49.644,282.172 49.436 C 282.175 49.334,282.323 48.950,282.500 48.583 C 282.677 48.217,282.825 47.838,282.828 47.742 C 282.837 47.458,283.239 46.669,283.375 46.668 C 283.444 46.667,283.500 46.447,283.500 46.179 C 283.500 45.910,283.594 45.590,283.708 45.466 C 283.823 45.343,283.930 45.169,283.946 45.079 C 283.962 44.990,284.026 44.785,284.089 44.625 C 284.195 44.352,283.952 44.333,280.370 44.333 L 276.538 44.333 276.234 44.958 C 276.067 45.302,275.946 45.641,275.966 45.712 C 275.986 45.782,275.813 46.213,275.582 46.669 C 275.351 47.125,275.166 47.554,275.171 47.624 C 275.185 47.823,274.608 49.073,274.450 49.184 C 274.372 49.240,274.326 49.390,274.347 49.518 C 274.369 49.645,274.300 49.961,274.193 50.219 C 274.087 50.477,274.000 50.796,274.000 50.928 C 274.000 51.059,273.869 51.173,273.708 51.180 C 273.538 51.187,273.502 51.228,273.623 51.276 C 273.781 51.340,273.772 51.469,273.581 51.838 C 273.445 52.101,273.333 52.414,273.332 52.533 C 273.332 52.653,273.222 52.960,273.088 53.217 C 272.954 53.474,272.773 53.924,272.686 54.217 C 272.600 54.510,272.254 55.387,271.919 56.167 C 271.583 56.946,271.293 57.658,271.275 57.750 C 271.256 57.842,271.182 58.010,271.110 58.125 C 271.039 58.240,271.041 58.334,271.115 58.336 C 271.189 58.337,271.172 58.394,271.077 58.461 C 270.981 58.528,270.819 58.846,270.717 59.167 C 270.388 60.196,269.823 61.734,269.575 62.275 C 269.442 62.564,269.333 62.925,269.333 63.077 C 269.333 63.243,269.257 63.306,269.141 63.234 C 269.030 63.165,268.993 63.188,269.055 63.287 C 269.113 63.382,269.054 63.675,268.924 63.938 C 268.793 64.201,268.652 64.606,268.611 64.838 C 268.569 65.069,268.415 65.547,268.268 65.900 C 268.121 66.252,268.000 66.683,268.000 66.856 C 268.000 67.029,267.934 67.301,267.854 67.461 C 267.631 67.902,267.341 68.882,267.272 69.428 C 267.179 70.169,266.659 71.833,266.522 71.833 C 266.379 71.833,265.970 70.763,266.033 70.557 C 266.078 70.414,265.508 68.248,265.033 66.750 C 264.887 66.292,264.754 65.767,264.737 65.583 C 264.719 65.400,264.594 64.987,264.458 64.667 C 264.321 64.346,264.247 63.979,264.293 63.852 C 264.344 63.710,264.303 63.665,264.188 63.737 C 264.071 63.809,264.000 63.720,264.000 63.502 C 264.000 63.308,263.890 62.938,263.757 62.680 C 263.623 62.421,263.560 62.162,263.618 62.104 C 263.675 62.047,263.635 62.000,263.528 62.000 C 263.421 62.000,263.333 61.831,263.332 61.625 C 263.332 61.419,263.231 61.058,263.108 60.822 C 262.985 60.587,262.830 60.177,262.764 59.911 C 262.697 59.646,262.498 59.111,262.321 58.723 C 262.145 58.336,262.000 57.899,262.000 57.753 C 262.000 57.606,261.850 57.193,261.667 56.833 C 261.483 56.474,261.333 56.061,261.333 55.917 C 261.333 55.772,261.178 55.349,260.988 54.977 C 260.799 54.605,260.683 54.262,260.731 54.214 C 260.779 54.165,260.634 53.763,260.409 53.319 C 260.184 52.874,260.000 52.377,259.999 52.214 C 259.998 52.050,259.893 51.715,259.765 51.470 C 259.636 51.224,259.479 50.774,259.416 50.470 C 259.353 50.165,259.192 49.746,259.060 49.537 C 258.928 49.328,258.865 49.084,258.920 48.995 C 258.975 48.906,258.940 48.833,258.843 48.833 C 258.746 48.833,258.667 48.680,258.667 48.493 C 258.667 48.306,258.517 47.859,258.333 47.500 C 258.150 47.141,258.000 46.728,258.000 46.583 C 258.000 46.439,257.850 46.026,257.667 45.667 C 257.483 45.307,257.333 44.860,257.333 44.673 C 257.333 44.340,257.249 44.333,253.250 44.333 L 249.167 44.333 249.167 44.740 M313.126 62.583 L 313.083 80.833 324.958 80.833 L 336.833 80.833 336.833 77.750 L 336.833 74.667 328.750 74.667 L 320.667 74.667 320.667 69.708 L 320.666 64.750 326.667 64.798 L 332.667 64.845 332.667 61.839 L 332.667 58.833 326.583 58.833 L 320.500 58.833 320.500 54.413 L 320.500 49.993 327.896 50.038 C 333.326 50.071,335.272 50.033,335.219 49.896 C 335.179 49.792,335.264 49.257,335.407 48.705 C 335.550 48.153,335.667 47.436,335.667 47.112 C 335.667 46.787,335.731 46.348,335.809 46.136 C 335.888 45.924,336.001 45.431,336.061 45.042 L 336.171 44.333 324.670 44.333 L 313.170 44.333 313.126 62.583 M370.167 62.587 L 370.167 80.840 373.875 80.795 L 377.583 80.750 377.583 73.125 L 377.583 65.500 378.000 65.502 C 378.659 65.506,379.173 65.689,379.056 65.878 C 378.992 65.982,379.030 66.001,379.151 65.927 C 379.265 65.856,379.630 65.985,379.994 66.226 C 380.619 66.640,381.569 67.500,381.401 67.500 C 381.355 67.500,381.582 67.772,381.905 68.105 C 382.228 68.438,382.452 68.775,382.403 68.855 C 382.354 68.935,382.388 69.000,382.479 69.000 C 382.570 69.000,382.692 69.151,382.751 69.336 C 382.809 69.520,382.927 69.628,383.012 69.576 C 383.097 69.523,383.167 69.627,383.167 69.806 C 383.167 69.985,383.279 70.174,383.417 70.227 C 383.554 70.280,383.667 70.442,383.667 70.588 C 383.667 70.734,383.742 70.807,383.833 70.750 C 383.925 70.693,384.000 70.755,384.000 70.886 C 384.000 71.018,384.114 71.221,384.254 71.337 C 384.394 71.453,384.473 71.582,384.431 71.625 C 384.388 71.667,384.499 71.858,384.677 72.049 C 384.855 72.240,385.000 72.507,385.000 72.643 C 385.000 72.778,385.050 72.839,385.110 72.779 C 385.219 72.670,385.368 72.887,385.931 73.974 C 386.089 74.280,386.319 74.569,386.442 74.616 C 386.564 74.663,386.627 74.763,386.581 74.837 C 386.535 74.912,386.615 75.092,386.760 75.237 C 386.905 75.381,386.962 75.502,386.887 75.505 C 386.812 75.508,386.883 75.587,387.045 75.682 C 387.208 75.776,387.297 75.924,387.244 76.010 C 387.190 76.096,387.218 76.167,387.305 76.167 C 387.393 76.167,387.512 76.357,387.570 76.590 C 387.629 76.823,387.749 76.969,387.838 76.914 C 387.927 76.859,388.002 76.912,388.004 77.032 C 388.006 77.152,388.148 77.433,388.320 77.656 C 388.492 77.880,388.590 78.173,388.538 78.309 C 388.477 78.468,388.512 78.512,388.638 78.434 C 388.755 78.362,388.833 78.418,388.833 78.573 C 388.833 78.716,388.912 78.833,389.008 78.833 C 389.104 78.833,389.317 79.133,389.481 79.499 C 389.645 79.866,389.839 80.109,389.912 80.041 C 389.986 79.973,390.010 80.029,389.967 80.167 C 389.782 80.751,390.305 80.823,394.817 80.828 C 399.071 80.833,399.209 80.823,398.942 80.529 C 398.791 80.361,398.667 80.147,398.667 80.054 C 398.667 79.961,398.535 79.729,398.375 79.540 C 397.621 78.648,397.509 78.500,397.591 78.500 C 397.640 78.500,397.527 78.336,397.340 78.135 C 397.153 77.935,397.000 77.691,396.999 77.594 C 396.999 77.496,396.774 77.177,396.499 76.884 C 396.225 76.591,396.000 76.282,396.000 76.196 C 396.000 76.111,395.886 75.946,395.746 75.830 C 395.606 75.714,395.527 75.584,395.570 75.541 C 395.613 75.498,395.428 75.227,395.158 74.940 C 394.889 74.652,394.668 74.323,394.667 74.208 C 394.667 74.094,394.609 74.000,394.539 74.000 C 394.469 74.000,394.227 73.700,394.000 73.333 C 393.773 72.967,393.531 72.667,393.461 72.667 C 393.391 72.667,393.333 72.566,393.333 72.442 C 393.333 72.319,393.183 72.083,393.000 71.917 C 392.817 71.751,392.667 71.514,392.667 71.391 C 392.667 71.268,392.592 71.167,392.500 71.167 C 392.408 71.167,392.333 71.054,392.333 70.917 C 392.333 70.779,392.277 70.666,392.208 70.666 C 392.140 70.665,391.897 70.384,391.669 70.041 C 391.441 69.697,391.122 69.295,390.961 69.147 C 390.799 68.999,390.667 68.799,390.667 68.703 C 390.667 68.606,390.608 68.503,390.537 68.472 C 390.465 68.442,390.018 67.892,389.543 67.250 C 389.068 66.608,388.524 65.987,388.333 65.870 C 388.143 65.752,388.032 65.583,388.087 65.495 C 388.142 65.406,388.069 65.333,387.927 65.333 C 387.784 65.333,387.667 65.250,387.667 65.148 C 387.667 65.037,387.865 64.991,388.158 65.034 C 388.428 65.074,388.614 65.049,388.571 64.980 C 388.528 64.910,388.626 64.858,388.788 64.862 C 388.950 64.867,389.452 64.754,389.903 64.610 C 390.355 64.466,390.797 64.394,390.888 64.450 C 390.979 64.507,390.999 64.466,390.933 64.359 C 390.864 64.248,390.914 64.167,391.050 64.167 C 391.180 64.167,391.563 63.979,391.901 63.750 C 392.587 63.284,392.744 63.235,392.563 63.542 C 392.424 63.778,394.178 61.974,394.875 61.165 C 395.127 60.872,395.333 60.560,395.333 60.471 C 395.333 60.382,395.450 60.193,395.592 60.051 C 395.734 59.909,395.893 59.578,395.945 59.316 C 395.999 59.046,396.115 58.885,396.213 58.945 C 396.307 59.004,396.340 58.979,396.285 58.890 C 396.230 58.800,396.296 58.405,396.431 58.011 C 396.567 57.617,396.688 57.041,396.699 56.731 C 396.711 56.421,396.793 56.167,396.881 56.167 C 396.969 56.167,396.951 56.059,396.842 55.927 C 396.701 55.757,396.693 55.595,396.816 55.366 C 396.911 55.189,396.942 54.997,396.884 54.940 C 396.827 54.883,396.759 54.367,396.733 53.793 C 396.686 52.762,396.405 51.565,396.138 51.258 C 396.062 51.171,396.000 50.975,396.000 50.822 C 396.000 50.670,395.845 50.347,395.655 50.106 C 395.465 49.864,395.357 49.667,395.416 49.667 C 395.538 49.667,394.314 48.112,394.125 48.028 C 394.056 47.997,394.000 47.866,394.000 47.736 C 394.000 47.606,393.937 47.500,393.861 47.500 C 393.698 47.500,392.109 46.309,392.028 46.125 C 391.997 46.056,391.863 46.000,391.730 46.000 C 391.597 46.000,391.322 45.891,391.119 45.758 C 389.441 44.659,386.415 44.345,377.458 44.339 L 370.167 44.333 370.167 62.587 M386.000 50.411 C 386.412 50.585,386.805 50.807,386.872 50.905 C 386.947 51.014,386.998 51.018,387.003 50.917 C 387.007 50.825,387.102 50.867,387.214 51.010 C 387.325 51.154,387.549 51.320,387.710 51.381 C 387.871 51.441,387.984 51.563,387.960 51.650 C 387.936 51.738,388.050 51.909,388.212 52.030 C 388.374 52.152,388.547 52.473,388.597 52.745 C 388.646 53.017,388.759 53.327,388.847 53.434 C 388.936 53.540,389.009 53.843,389.010 54.105 C 389.016 55.852,388.963 56.603,388.825 56.742 C 388.738 56.829,388.667 57.110,388.667 57.367 C 388.667 57.651,388.585 57.817,388.458 57.792 C 388.344 57.769,388.269 57.844,388.292 57.958 C 388.315 58.073,388.258 58.167,388.167 58.167 C 388.075 58.167,388.000 58.279,388.000 58.417 C 388.000 58.554,387.925 58.667,387.833 58.667 C 387.742 58.667,387.533 58.798,387.370 58.958 C 386.419 59.893,383.835 60.312,378.917 60.329 L 377.583 60.333 377.583 55.154 L 377.583 49.974 381.417 50.034 C 384.718 50.086,385.354 50.138,386.000 50.411 " stroke="none" fill="#3c4c4c" fill-rule="evenodd"></path><path id="path1" d="M70.065 1.245 C 68.235 1.693,67.848 2.031,59.623 10.368 C 55.293 14.756,50.212 19.904,48.333 21.807 C 46.454 23.710,41.017 29.230,36.250 34.075 C 31.483 38.919,26.046 44.440,24.167 46.344 C 22.287 48.248,18.650 51.935,16.083 54.539 C 13.517 57.143,9.348 61.368,6.821 63.928 C 4.293 66.488,2.090 68.846,1.924 69.167 C 0.317 72.289,0.421 71.157,0.419 85.583 C 0.417 99.069,0.448 99.606,1.250 99.577 C 1.342 99.574,4.192 96.762,7.583 93.327 C 18.378 82.396,27.059 73.604,33.828 66.747 C 37.447 63.082,43.260 57.196,46.747 53.667 C 50.234 50.137,56.046 44.250,59.662 40.583 C 63.279 36.917,69.239 30.879,72.908 27.167 C 96.422 3.369,93.633 6.292,93.228 5.873 C 92.646 5.271,91.255 4.695,89.542 4.347 C 88.602 4.156,87.065 3.846,86.125 3.658 C 84.508 3.334,83.801 3.190,79.708 2.351 C 78.133 2.027,76.068 1.612,73.862 1.176 C 72.726 0.951,71.150 0.980,70.065 1.245 M72.582 78.382 C 72.215 78.585,71.759 78.900,71.569 79.083 C 71.379 79.267,70.855 79.758,70.404 80.175 C 69.268 81.225,64.624 85.539,63.618 86.478 C 63.163 86.902,62.438 87.587,62.006 88.000 C 61.575 88.412,60.853 89.091,60.403 89.509 C 58.718 91.069,54.418 95.065,53.681 95.755 C 53.261 96.149,52.648 96.721,52.319 97.027 C 51.238 98.033,51.142 99.142,52.104 99.508 C 52.890 99.807,96.092 99.714,96.675 99.412 C 98.019 98.717,97.568 98.106,91.750 92.739 C 90.375 91.471,88.875 90.079,88.417 89.645 C 87.958 89.212,87.321 88.615,87.000 88.319 C 86.679 88.023,85.929 87.321,85.333 86.758 C 84.737 86.196,83.237 84.802,82.000 83.662 C 79.374 81.242,78.181 80.131,77.378 79.361 C 75.947 77.989,74.014 77.594,72.582 78.382 " stroke="none" fill="#acacac" fill-rule="evenodd"></path><path id="path2" d="M92.459 7.350 C 91.861 8.000,88.529 11.394,85.056 14.891 C 81.582 18.388,72.971 27.100,65.919 34.250 C 58.868 41.400,50.243 50.137,46.752 53.667 C 43.262 57.196,37.447 63.082,33.828 66.747 C 17.988 82.792,13.543 87.290,7.606 93.279 C 3.506 97.414,1.342 99.712,1.423 99.844 C 1.543 100.038,24.216 99.938,25.833 99.736 C 27.494 99.529,28.557 99.224,29.919 98.565 C 31.632 97.735,29.804 99.466,49.031 80.463 C 54.961 74.602,60.886 68.756,62.198 67.472 C 63.510 66.187,69.107 60.662,74.636 55.193 C 99.723 30.381,98.167 32.008,98.731 30.000 C 99.161 28.470,99.203 27.648,98.916 26.325 C 98.768 25.642,98.586 24.708,98.511 24.250 C 98.436 23.792,98.247 22.817,98.090 22.083 C 97.636 19.957,97.206 17.884,96.827 16.000 C 96.633 15.037,96.330 13.575,96.153 12.750 C 95.976 11.925,95.832 11.112,95.832 10.944 C 95.837 9.756,94.876 7.565,93.903 6.542 L 93.546 6.167 92.459 7.350 " stroke="none" fill="#dbdbdb" fill-rule="evenodd"></path><path id="path3" d="M145.000 62.500 L 145.000 81.000 155.917 81.000 L 166.833 81.000 166.831 80.625 C 166.829 80.272,167.093 79.105,167.844 76.147 C 168.022 75.448,168.167 74.832,168.167 74.778 C 168.167 74.724,164.778 74.675,160.636 74.670 C 156.494 74.665,153.082 74.638,153.054 74.610 C 153.026 74.582,153.001 67.683,152.998 59.279 L 152.993 44.000 148.997 44.000 L 145.000 44.000 145.000 62.500 M198.500 62.500 L 198.500 81.000 210.583 81.000 L 222.667 81.000 222.667 77.750 L 222.667 74.500 214.586 74.500 L 206.505 74.500 206.458 69.625 L 206.411 64.750 206.372 69.708 L 206.333 74.667 214.417 74.667 L 222.500 74.667 222.500 77.750 L 222.500 80.833 210.667 80.833 L 198.833 80.833 198.833 62.583 L 198.833 44.333 210.333 44.333 L 221.833 44.333 221.831 44.708 C 221.830 44.915,221.718 45.496,221.583 46.000 C 221.447 46.504,221.295 47.254,221.245 47.667 C 221.195 48.079,221.074 48.773,220.977 49.208 L 220.800 50.000 213.567 50.000 L 206.333 50.000 206.333 54.417 L 206.333 58.833 212.413 58.833 L 218.492 58.833 218.542 61.875 L 218.591 64.917 218.629 61.792 L 218.667 58.667 212.583 58.667 L 206.500 58.667 206.500 54.500 L 206.500 50.333 213.833 50.333 L 221.167 50.333 221.168 49.792 C 221.168 49.494,221.238 48.987,221.324 48.667 C 221.478 48.089,221.535 47.784,221.827 46.000 C 221.910 45.496,222.029 44.840,222.093 44.542 L 222.208 44.000 210.354 44.000 L 198.500 44.000 198.500 62.500 M248.667 44.246 C 248.667 44.381,248.817 44.831,249.000 45.246 C 249.183 45.660,249.483 46.340,249.667 46.754 C 249.850 47.169,250.000 47.619,250.000 47.754 C 250.000 47.890,250.131 47.999,250.292 47.997 C 250.541 47.995,250.547 47.971,250.333 47.833 C 250.196 47.744,250.140 47.671,250.209 47.669 C 250.278 47.668,250.189 47.396,250.012 47.066 C 249.835 46.736,249.731 46.361,249.780 46.233 C 249.829 46.105,249.786 46.000,249.684 46.000 C 249.583 46.000,249.500 45.854,249.500 45.677 C 249.500 45.499,249.425 45.307,249.333 45.250 C 249.242 45.193,249.167 44.964,249.167 44.740 L 249.167 44.333 253.250 44.333 C 257.249 44.333,257.333 44.340,257.333 44.673 C 257.333 44.860,257.483 45.307,257.667 45.667 C 257.850 46.026,258.000 46.439,258.000 46.583 C 258.000 46.728,258.150 47.141,258.333 47.500 C 258.517 47.859,258.667 48.306,258.667 48.493 C 258.667 48.680,258.746 48.833,258.843 48.833 C 258.940 48.833,258.975 48.906,258.920 48.995 C 258.865 49.084,258.928 49.328,259.060 49.537 C 259.192 49.746,259.353 50.165,259.416 50.470 C 259.479 50.774,259.636 51.224,259.765 51.470 C 259.893 51.715,259.998 52.050,259.999 52.214 C 260.000 52.377,260.184 52.874,260.409 53.319 C 260.634 53.763,260.779 54.165,260.731 54.214 C 260.683 54.262,260.799 54.605,260.988 54.977 C 261.178 55.349,261.333 55.772,261.333 55.917 C 261.333 56.061,261.483 56.474,261.667 56.833 C 261.850 57.193,262.000 57.606,262.000 57.753 C 262.000 57.899,262.145 58.336,262.321 58.723 C 262.498 59.111,262.697 59.646,262.764 59.911 C 262.830 60.177,262.985 60.587,263.108 60.822 C 263.231 61.058,263.332 61.419,263.332 61.625 C 263.333 61.831,263.421 62.000,263.528 62.000 C 263.635 62.000,263.675 62.047,263.618 62.104 C 263.560 62.162,263.623 62.421,263.757 62.680 C 263.890 62.938,264.000 63.308,264.000 63.502 C 264.000 63.720,264.071 63.809,264.188 63.737 C 264.303 63.665,264.344 63.710,264.293 63.852 C 264.247 63.979,264.321 64.346,264.458 64.667 C 264.594 64.987,264.719 65.400,264.737 65.583 C 264.754 65.767,264.887 66.292,265.033 66.750 C 265.508 68.248,266.078 70.414,266.033 70.557 C 265.970 70.763,266.379 71.833,266.522 71.833 C 266.659 71.833,267.179 70.169,267.272 69.428 C 267.341 68.882,267.631 67.902,267.854 67.461 C 267.934 67.301,268.000 67.029,268.000 66.856 C 268.000 66.683,268.121 66.252,268.268 65.900 C 268.415 65.547,268.569 65.069,268.609 64.838 C 268.650 64.606,268.829 64.133,269.008 63.787 C 269.187 63.440,269.333 63.076,269.333 62.978 C 269.333 62.880,269.442 62.564,269.575 62.275 C 269.823 61.734,270.388 60.196,270.717 59.167 C 270.819 58.846,270.969 58.537,271.049 58.481 C 271.129 58.425,271.189 58.332,271.181 58.273 C 271.173 58.215,271.172 58.148,271.179 58.125 C 271.186 58.102,271.218 57.971,271.250 57.833 C 271.282 57.696,271.583 56.946,271.919 56.167 C 272.254 55.387,272.600 54.510,272.686 54.217 C 272.773 53.924,272.954 53.474,273.088 53.217 C 273.222 52.960,273.332 52.653,273.332 52.533 C 273.333 52.414,273.448 52.096,273.588 51.825 C 273.816 51.384,273.816 51.333,273.588 51.333 C 273.448 51.333,273.333 51.444,273.333 51.579 C 273.333 51.714,273.191 52.145,273.016 52.537 C 272.670 53.315,272.411 53.969,271.748 55.750 C 271.509 56.392,271.177 57.254,271.010 57.667 C 270.843 58.079,270.542 58.867,270.341 59.417 C 270.140 59.967,269.835 60.754,269.663 61.167 C 269.073 62.589,268.033 65.587,267.684 66.875 C 267.491 67.585,267.184 68.710,267.001 69.375 C 266.818 70.040,266.649 70.771,266.625 71.000 C 266.601 71.229,266.375 70.592,266.123 69.583 C 265.425 66.795,264.587 64.003,263.922 62.250 C 263.679 61.608,263.421 60.858,263.349 60.583 C 263.278 60.308,263.095 59.843,262.943 59.550 C 262.791 59.257,262.667 58.909,262.667 58.779 C 262.667 58.648,262.539 58.250,262.384 57.895 C 262.229 57.540,262.010 56.950,261.898 56.583 C 261.696 55.918,261.409 55.119,260.583 52.917 C 260.343 52.275,260.080 51.525,260.000 51.250 C 259.920 50.975,259.619 50.112,259.332 49.333 C 259.045 48.554,258.707 47.617,258.582 47.250 C 257.951 45.406,257.676 44.662,257.507 44.346 C 257.262 43.889,248.667 43.791,248.667 44.246 M276.167 44.167 C 276.167 44.258,276.168 44.372,276.170 44.418 C 276.172 44.465,276.066 44.712,275.934 44.967 C 275.802 45.222,275.544 45.840,275.361 46.340 C 275.178 46.841,274.865 47.663,274.665 48.167 C 273.729 50.527,273.539 51.167,273.772 51.167 C 273.897 51.167,274.000 51.059,274.000 50.928 C 274.000 50.796,274.087 50.477,274.193 50.219 C 274.300 49.961,274.369 49.645,274.347 49.518 C 274.326 49.390,274.372 49.240,274.450 49.184 C 274.608 49.073,275.185 47.823,275.171 47.624 C 275.166 47.554,275.351 47.125,275.582 46.669 C 275.813 46.213,275.986 45.782,275.966 45.712 C 275.946 45.641,276.067 45.302,276.234 44.958 L 276.538 44.333 280.370 44.333 C 283.952 44.333,284.195 44.352,284.089 44.625 C 284.026 44.785,283.962 44.990,283.946 45.079 C 283.930 45.169,283.823 45.343,283.708 45.466 C 283.594 45.590,283.500 45.910,283.500 46.179 C 283.500 46.447,283.444 46.667,283.375 46.668 C 283.239 46.669,282.837 47.458,282.828 47.742 C 282.825 47.838,282.677 48.217,282.500 48.583 C 282.323 48.950,282.175 49.334,282.172 49.436 C 282.166 49.644,281.620 51.056,281.144 52.094 C 280.973 52.467,280.833 52.864,280.833 52.978 C 280.833 53.091,280.707 53.423,280.552 53.717 C 280.295 54.203,279.504 56.302,279.503 56.500 C 279.502 56.546,279.358 56.883,279.183 57.250 C 279.007 57.617,278.699 58.329,278.497 58.833 C 278.296 59.337,277.989 60.071,277.816 60.463 C 277.642 60.855,277.500 61.275,277.500 61.396 C 277.500 61.516,277.371 61.871,277.214 62.183 C 277.057 62.495,276.915 62.834,276.899 62.937 C 276.882 63.040,276.752 63.378,276.609 63.687 C 276.465 63.997,276.240 64.550,276.108 64.917 C 275.976 65.283,275.703 65.996,275.501 66.500 C 275.298 67.004,275.116 67.562,275.095 67.740 C 275.074 67.919,274.969 68.094,274.862 68.129 C 274.755 68.165,274.667 68.359,274.667 68.560 C 274.667 68.761,274.568 69.074,274.447 69.255 C 274.244 69.559,273.845 70.748,273.845 71.048 C 273.845 71.120,273.730 71.294,273.589 71.435 C 273.449 71.575,273.333 71.801,273.333 71.937 C 273.333 72.072,273.214 72.414,273.069 72.695 C 272.923 72.977,272.770 73.392,272.729 73.618 C 272.688 73.845,272.545 74.198,272.410 74.403 C 272.276 74.609,272.216 74.827,272.277 74.888 C 272.339 74.950,272.308 75.000,272.209 75.000 C 272.110 75.000,271.979 75.300,271.917 75.667 C 271.855 76.033,271.739 76.333,271.658 76.333 C 271.578 76.333,271.428 76.652,271.323 77.042 C 271.219 77.431,271.076 77.825,271.005 77.917 C 270.935 78.008,270.826 78.365,270.764 78.708 C 270.702 79.052,270.580 79.333,270.492 79.333 C 270.405 79.333,270.333 79.447,270.333 79.586 C 270.333 79.724,270.264 79.968,270.179 80.127 C 270.094 80.286,269.984 80.548,269.934 80.708 C 269.852 80.973,269.539 81.000,266.509 81.000 L 263.173 81.000 262.844 80.354 C 262.663 79.999,262.552 79.670,262.598 79.624 C 262.645 79.578,262.494 79.203,262.264 78.791 C 262.034 78.379,261.890 77.999,261.944 77.945 C 261.997 77.891,261.882 77.578,261.687 77.248 C 261.493 76.918,261.333 76.560,261.333 76.452 C 261.333 76.248,260.840 74.928,260.308 73.710 C 260.139 73.322,260.000 72.890,260.000 72.752 C 260.000 72.613,259.921 72.500,259.823 72.500 C 259.726 72.500,259.690 72.430,259.743 72.345 C 259.796 72.260,259.763 72.143,259.669 72.085 C 259.576 72.027,259.500 71.835,259.500 71.657 C 259.500 71.479,259.432 71.333,259.349 71.333 C 259.266 71.333,259.240 71.172,259.292 70.974 C 259.356 70.728,259.325 70.652,259.193 70.734 C 259.070 70.810,259.000 70.725,259.000 70.502 C 259.000 70.308,258.886 69.929,258.746 69.658 C 258.606 69.388,258.550 69.166,258.621 69.164 C 258.692 69.163,258.671 69.106,258.575 69.039 C 258.479 68.972,258.276 68.542,258.124 68.083 C 257.639 66.620,257.253 65.586,257.160 65.500 C 257.110 65.454,256.963 65.079,256.834 64.667 C 256.704 64.254,256.446 63.579,256.259 63.167 C 256.073 62.754,255.915 62.342,255.907 62.250 C 255.899 62.158,255.761 61.783,255.600 61.417 C 255.438 61.050,255.281 60.626,255.249 60.475 C 255.218 60.323,255.067 59.958,254.915 59.663 C 254.762 59.368,254.603 58.937,254.561 58.705 C 254.519 58.474,254.376 58.129,254.242 57.938 C 254.109 57.748,254.000 57.422,254.000 57.213 C 254.000 57.004,253.925 56.833,253.833 56.833 C 253.742 56.833,253.679 56.777,253.694 56.708 C 253.708 56.640,253.622 56.358,253.501 56.083 C 253.380 55.808,253.267 55.508,253.249 55.417 C 253.232 55.325,253.197 55.194,253.171 55.125 C 253.146 55.056,253.109 54.944,253.090 54.875 C 253.071 54.806,252.968 54.539,252.861 54.281 C 252.754 54.023,252.667 53.721,252.667 53.610 C 252.667 53.498,252.537 53.223,252.379 52.997 C 252.221 52.771,252.075 52.510,252.055 52.418 C 251.921 51.788,251.812 51.475,251.432 50.624 C 251.196 50.097,251.008 49.647,251.013 49.624 C 251.019 49.602,250.943 49.372,250.845 49.114 C 250.747 48.856,250.667 48.537,250.667 48.406 C 250.667 48.274,250.554 48.167,250.417 48.167 C 250.108 48.167,250.108 48.183,250.416 48.773 C 250.553 49.035,250.665 49.381,250.666 49.542 C 250.666 49.702,250.729 49.833,250.806 49.833 C 250.882 49.833,250.950 49.927,250.957 50.042 C 250.964 50.156,251.132 50.663,251.330 51.167 C 251.528 51.671,251.826 52.458,251.993 52.917 C 252.160 53.375,252.462 54.163,252.665 54.667 C 252.869 55.171,253.142 55.883,253.272 56.250 C 253.402 56.617,253.580 57.067,253.667 57.250 C 253.815 57.564,253.916 57.833,254.573 59.667 C 254.721 60.079,254.913 60.567,255.000 60.750 C 255.087 60.933,255.264 61.383,255.395 61.750 C 255.525 62.117,255.797 62.829,256.000 63.333 C 256.203 63.837,256.475 64.550,256.605 64.917 C 256.736 65.283,256.913 65.733,257.000 65.917 C 257.087 66.100,257.272 66.569,257.412 66.958 C 257.552 67.348,257.781 67.985,257.921 68.375 C 258.061 68.765,258.247 69.233,258.333 69.417 C 258.420 69.600,258.598 70.050,258.729 70.417 C 259.353 72.164,259.724 73.100,259.862 73.275 C 259.945 73.380,260.046 73.642,260.086 73.858 C 260.162 74.269,260.471 75.075,261.033 76.332 C 261.217 76.743,261.396 77.231,261.430 77.415 C 261.464 77.599,261.615 78.050,261.764 78.417 C 261.913 78.783,262.174 79.421,262.342 79.833 C 262.511 80.246,262.696 80.752,262.753 80.958 C 262.855 81.332,262.866 81.333,266.399 81.333 L 269.943 81.333 270.324 80.458 C 270.534 79.977,270.855 79.208,271.037 78.750 C 271.220 78.292,271.511 77.596,271.684 77.204 C 271.858 76.812,272.003 76.399,272.006 76.287 C 272.009 76.175,272.156 75.783,272.333 75.417 C 272.510 75.050,272.658 74.653,272.661 74.535 C 272.664 74.417,272.828 74.004,273.025 73.618 C 273.222 73.232,273.353 72.911,273.316 72.903 C 273.256 72.891,273.498 72.296,274.351 70.371 C 274.525 69.979,274.669 69.566,274.672 69.454 C 274.675 69.342,274.823 68.950,275.000 68.583 C 275.177 68.217,275.325 67.800,275.328 67.658 C 275.331 67.516,275.399 67.329,275.480 67.242 C 275.560 67.155,275.778 66.671,275.964 66.167 C 276.281 65.306,276.485 64.784,277.351 62.625 C 277.544 62.144,277.810 61.450,277.942 61.083 C 278.074 60.717,278.291 60.180,278.424 59.891 C 278.558 59.603,278.667 59.261,278.667 59.133 C 278.667 59.005,278.732 58.829,278.813 58.742 C 278.893 58.655,279.111 58.171,279.297 57.667 C 279.483 57.163,279.800 56.337,280.002 55.833 C 280.203 55.329,280.476 54.617,280.608 54.250 C 280.740 53.883,280.957 53.347,281.091 53.058 C 281.224 52.769,281.333 52.428,281.333 52.300 C 281.333 52.172,281.399 51.995,281.480 51.908 C 281.560 51.821,281.778 51.337,281.964 50.833 C 282.149 50.329,282.451 49.542,282.633 49.083 C 282.815 48.625,283.242 47.538,283.582 46.667 C 283.922 45.796,284.267 44.953,284.350 44.794 C 284.763 43.997,284.779 44.000,280.333 44.000 C 277.667 44.000,276.167 44.060,276.167 44.167 M312.910 44.208 C 312.867 44.323,312.850 52.629,312.874 62.667 L 312.917 80.917 324.958 80.959 L 337.000 81.002 337.000 77.751 L 337.000 74.500 329.000 74.500 L 321.000 74.500 321.000 69.583 C 321.000 66.417,320.941 64.667,320.833 64.667 C 320.726 64.667,320.667 66.444,320.667 69.667 L 320.667 74.667 328.750 74.667 L 336.833 74.667 336.833 77.750 L 336.833 80.833 324.958 80.833 L 313.083 80.833 313.126 62.583 L 313.170 44.333 324.670 44.333 L 336.171 44.333 336.061 45.042 C 336.001 45.431,335.888 45.924,335.809 46.136 C 335.731 46.348,335.667 46.787,335.667 47.112 C 335.667 47.436,335.550 48.153,335.407 48.705 C 335.264 49.257,335.179 49.792,335.219 49.896 C 335.272 50.033,333.326 50.071,327.896 50.038 L 320.500 49.993 320.500 54.413 L 320.500 58.833 326.583 58.833 L 332.667 58.833 332.667 61.833 C 332.667 63.722,332.728 64.833,332.833 64.833 C 332.938 64.833,333.000 63.694,333.000 61.750 L 333.000 58.667 326.917 58.667 L 320.833 58.667 320.833 54.502 L 320.833 50.337 328.125 50.293 L 335.417 50.250 335.551 49.417 C 335.625 48.958,335.827 47.871,336.000 47.000 C 336.173 46.129,336.349 45.098,336.391 44.708 L 336.468 44.000 324.729 44.000 C 315.491 44.000,312.973 44.044,312.910 44.208 M369.833 62.489 L 369.833 81.000 373.833 81.000 L 377.833 81.000 377.833 73.417 L 377.833 65.834 378.481 65.892 C 379.799 66.011,382.096 68.390,384.083 71.694 C 384.175 71.846,384.494 72.319,384.792 72.744 C 385.090 73.169,385.333 73.547,385.333 73.583 C 385.333 73.714,386.406 75.251,386.535 75.306 C 386.607 75.336,386.667 75.434,386.667 75.522 C 386.667 75.610,386.967 76.135,387.333 76.687 C 387.700 77.239,388.000 77.725,388.000 77.768 C 388.000 77.810,388.467 78.555,389.038 79.423 L 390.077 81.000 394.788 81.000 C 397.380 81.000,399.500 80.958,399.500 80.906 C 399.500 80.777,399.140 80.103,399.016 80.000 C 398.929 79.928,398.137 78.784,397.333 77.569 C 396.464 76.256,394.741 73.763,394.593 73.605 C 394.496 73.501,394.116 72.967,393.749 72.417 C 392.503 70.551,391.602 69.333,391.467 69.333 C 391.394 69.333,391.333 69.255,391.333 69.158 C 391.333 69.010,389.934 67.167,388.829 65.861 C 388.447 65.409,388.392 64.969,388.734 65.100 C 389.267 65.305,392.534 63.996,392.625 63.541 C 392.683 63.254,392.599 63.276,391.938 63.724 C 391.621 63.940,390.812 64.294,390.139 64.511 C 388.832 64.934,388.822 64.936,388.125 64.975 C 387.650 65.001,387.466 65.333,387.927 65.333 C 388.069 65.333,388.142 65.406,388.087 65.495 C 388.032 65.583,388.143 65.752,388.333 65.870 C 388.524 65.987,389.068 66.608,389.543 67.250 C 390.018 67.892,390.465 68.442,390.537 68.472 C 390.608 68.503,390.667 68.606,390.667 68.703 C 390.667 68.799,390.799 68.999,390.961 69.147 C 391.122 69.295,391.441 69.697,391.669 70.041 C 391.897 70.384,392.140 70.665,392.208 70.666 C 392.277 70.666,392.333 70.779,392.333 70.917 C 392.333 71.054,392.408 71.167,392.500 71.167 C 392.592 71.167,392.667 71.268,392.667 71.391 C 392.667 71.514,392.817 71.751,393.000 71.917 C 393.183 72.083,393.333 72.319,393.333 72.442 C 393.333 72.566,393.391 72.667,393.461 72.667 C 393.531 72.667,393.773 72.967,394.000 73.333 C 394.227 73.700,394.469 74.000,394.539 74.000 C 394.609 74.000,394.667 74.094,394.667 74.208 C 394.668 74.323,394.889 74.652,395.158 74.940 C 395.428 75.227,395.613 75.498,395.570 75.541 C 395.527 75.584,395.606 75.714,395.746 75.830 C 395.886 75.946,396.000 76.111,396.000 76.196 C 396.000 76.282,396.225 76.591,396.499 76.884 C 396.774 77.177,396.999 77.496,396.999 77.594 C 397.000 77.691,397.153 77.935,397.340 78.135 C 397.527 78.336,397.640 78.500,397.591 78.500 C 397.509 78.500,397.621 78.648,398.375 79.540 C 398.535 79.729,398.667 79.961,398.667 80.054 C 398.667 80.147,398.791 80.361,398.942 80.529 C 399.209 80.823,399.071 80.833,394.817 80.828 C 390.305 80.823,389.782 80.751,389.967 80.167 C 390.010 80.029,389.986 79.973,389.912 80.041 C 389.839 80.109,389.645 79.866,389.481 79.499 C 389.317 79.133,389.104 78.833,389.008 78.833 C 388.912 78.833,388.833 78.716,388.833 78.573 C 388.833 78.418,388.755 78.362,388.638 78.434 C 388.512 78.512,388.477 78.468,388.538 78.309 C 388.590 78.173,388.492 77.880,388.320 77.656 C 388.148 77.433,388.006 77.152,388.004 77.032 C 388.002 76.912,387.927 76.859,387.838 76.914 C 387.749 76.969,387.629 76.823,387.570 76.590 C 387.512 76.357,387.393 76.167,387.305 76.167 C 387.218 76.167,387.190 76.096,387.244 76.010 C 387.297 75.924,387.208 75.776,387.045 75.682 C 386.883 75.587,386.812 75.508,386.887 75.505 C 386.962 75.502,386.905 75.381,386.760 75.237 C 386.615 75.092,386.535 74.912,386.581 74.837 C 386.627 74.763,386.564 74.663,386.442 74.616 C 386.319 74.569,386.089 74.280,385.931 73.974 C 385.368 72.887,385.219 72.670,385.110 72.779 C 385.050 72.839,385.000 72.778,385.000 72.643 C 385.000 72.507,384.855 72.240,384.677 72.049 C 384.499 71.858,384.388 71.667,384.431 71.625 C 384.473 71.582,384.394 71.453,384.254 71.337 C 384.114 71.221,384.000 71.018,384.000 70.886 C 384.000 70.755,383.925 70.693,383.833 70.750 C 383.742 70.807,383.667 70.734,383.667 70.588 C 383.667 70.442,383.554 70.280,383.417 70.227 C 383.279 70.174,383.167 69.985,383.167 69.806 C 383.167 69.627,383.097 69.523,383.012 69.576 C 382.927 69.628,382.809 69.520,382.751 69.336 C 382.692 69.151,382.570 69.000,382.479 69.000 C 382.388 69.000,382.354 68.935,382.403 68.855 C 382.452 68.775,382.228 68.438,381.905 68.105 C 381.582 67.772,381.359 67.500,381.409 67.500 C 381.459 67.500,381.220 67.235,380.877 66.912 C 380.098 66.177,378.763 65.500,378.092 65.500 L 377.583 65.500 377.583 73.125 L 377.583 80.750 373.875 80.795 L 370.167 80.840 370.167 62.587 L 370.167 44.333 377.458 44.339 C 386.415 44.345,389.441 44.659,391.119 45.758 C 391.322 45.891,391.597 46.000,391.730 46.000 C 391.863 46.000,391.997 46.056,392.028 46.125 C 392.109 46.309,393.698 47.500,393.861 47.500 C 393.937 47.500,394.000 47.606,394.000 47.736 C 394.000 47.866,394.056 47.997,394.125 48.028 C 394.314 48.112,395.538 49.667,395.416 49.667 C 395.357 49.667,395.465 49.864,395.655 50.106 C 395.845 50.347,396.000 50.670,396.000 50.822 C 396.000 50.975,396.062 51.171,396.138 51.258 C 396.405 51.565,396.686 52.762,396.733 53.793 C 396.759 54.367,396.827 54.883,396.884 54.940 C 396.942 54.997,396.909 55.192,396.812 55.373 C 396.695 55.591,396.692 55.758,396.801 55.868 C 397.238 56.305,397.235 54.763,396.795 52.417 C 396.590 51.322,395.632 49.120,395.164 48.667 C 395.117 48.621,394.869 48.329,394.614 48.019 C 394.359 47.709,393.760 47.146,393.284 46.769 C 392.047 45.791,391.982 45.753,390.346 45.054 C 388.478 44.257,386.664 44.108,378.042 44.041 L 369.833 43.978 369.833 62.489 M152.833 59.583 L 152.833 74.833 160.343 74.833 C 165.058 74.833,167.816 74.892,167.755 74.992 C 167.701 75.079,167.625 75.436,167.587 75.784 C 167.549 76.132,167.407 76.828,167.273 77.331 C 167.139 77.833,167.064 78.302,167.107 78.372 C 167.151 78.443,167.102 78.500,166.998 78.500 C 166.894 78.500,166.826 78.669,166.846 78.875 C 166.865 79.081,166.780 79.606,166.656 80.042 L 166.431 80.833 155.840 80.833 L 145.250 80.833 145.293 62.583 L 145.336 44.333 149.085 44.333 L 152.833 44.333 152.833 59.583 M377.583 55.154 L 377.583 60.333 378.917 60.329 C 383.835 60.312,386.419 59.893,387.370 58.958 C 387.533 58.798,387.742 58.667,387.833 58.667 C 387.925 58.667,388.000 58.554,388.000 58.417 C 388.000 58.279,388.075 58.167,388.167 58.167 C 388.258 58.167,388.315 58.073,388.292 57.958 C 388.269 57.844,388.344 57.769,388.458 57.792 C 388.585 57.817,388.667 57.651,388.667 57.367 C 388.667 57.110,388.738 56.829,388.825 56.742 C 388.963 56.603,389.016 55.852,389.010 54.105 C 389.009 53.843,388.936 53.540,388.847 53.434 C 388.759 53.327,388.646 53.017,388.597 52.745 C 388.547 52.473,388.374 52.152,388.212 52.030 C 388.050 51.909,387.936 51.738,387.960 51.650 C 387.984 51.563,387.871 51.441,387.710 51.381 C 387.549 51.320,387.325 51.154,387.214 51.010 C 387.102 50.867,387.007 50.825,387.003 50.917 C 386.998 51.018,386.947 51.014,386.872 50.905 C 386.440 50.277,385.305 50.095,381.417 50.034 L 377.583 49.974 377.583 55.154 M384.632 50.431 C 387.547 51.030,388.690 52.318,388.690 55.000 C 388.690 58.817,387.175 59.833,381.292 59.959 L 377.833 60.034 377.833 55.100 L 377.833 50.167 380.590 50.167 C 382.456 50.167,383.763 50.252,384.632 50.431 M396.699 56.731 C 396.688 57.041,396.567 57.617,396.431 58.011 C 396.296 58.405,396.230 58.800,396.285 58.890 C 396.340 58.979,396.307 59.004,396.213 58.945 C 396.115 58.885,395.999 59.046,395.945 59.316 C 395.893 59.578,395.734 59.909,395.592 60.051 C 395.450 60.193,395.333 60.382,395.333 60.471 C 395.333 60.665,394.705 61.414,393.607 62.530 C 392.409 63.748,392.807 63.713,394.083 62.488 C 395.191 61.424,395.284 61.294,396.088 59.699 C 396.473 58.934,397.000 57.013,397.000 56.375 C 397.000 55.885,396.719 56.218,396.699 56.731 " stroke="none" fill="#3c444c" fill-rule="evenodd"></path><path id="path4" d="" stroke="none" fill="#a878c8" fill-rule="evenodd"></path></g></svg>