<svg xmlns="http://www.w3.org/2000/svg" width="120" height="60" preserveAspectRatio="xMidYMid"><g transform="matrix(.117607 0 0 .117607 7.283351 10.966407)" fill="#509ee3"><ellipse cx="19.394" cy="82.757" rx="19.394" ry="19.704"/><ellipse cx="19.394" cy="137.928" rx="19.394" ry="19.704"/><ellipse cx="73.697" cy="82.757" rx="19.394" ry="19.704" opacity=".2"/><ellipse cx="73.697" cy="138.464" rx="19.394" ry="19.704"/><ellipse cx="128" cy="82.757" rx="19.394" ry="19.704" opacity=".2"/><ellipse cx="128" cy="19.704" rx="19.394" ry="19.704" opacity=".2"/><ellipse cx="128" cy="138.464" rx="19.394" ry="19.704" opacity=".2"/><ellipse cx="182.303" cy="82.757" rx="19.394" ry="19.704" opacity=".2"/><ellipse cx="236.606" cy="82.757" rx="19.394" ry="19.704"/><ellipse cx="182.303" cy="138.464" rx="19.394" ry="19.704"/><ellipse cx="236.606" cy="138.464" rx="19.394" ry="19.704"/><ellipse cx="19.394" cy="193.099" rx="19.394" ry="19.704"/><ellipse cx="73.697" cy="193.635" rx="19.394" ry="19.704" opacity=".2"/><ellipse cx="128" cy="193.635" rx="19.394" ry="19.704"/><ellipse cx="182.303" cy="193.635" rx="19.394" ry="19.704" opacity=".2"/><ellipse cx="236.606" cy="193.635" rx="19.394" ry="19.704"/><ellipse cx="19.394" cy="248.27" rx="19.394" ry="19.704"/><ellipse cx="73.697" cy="248.806" rx="19.394" ry="19.704" opacity=".2"/><ellipse cx="128" cy="248.806" rx="19.394" ry="19.704" opacity=".2"/><ellipse cx="128" cy="303.977" rx="19.394" ry="19.704" opacity=".2"/><ellipse cx="182.303" cy="248.806" rx="19.394" ry="19.704" opacity=".2"/><ellipse cx="236.606" cy="248.806" rx="19.394" ry="19.704"/></g><path d="M49.762 31.604l.228.553.232-.565.254-.533 3.408-6.378a.87.87 0 0 1 .132-.191c.045-.047.096-.08.15-.104s.118-.035.187-.04a2.88 2.88 0 0 1 .246-.008h1.616V35.85h-1.887v-7.435l.012-.453.037-.502-3.48 6.53c-.08.148-.183.264-.3.346s-.277.124-.445.124h-.295a.78.78 0 0 1-.445-.124.93.93 0 0 1-.31-.346l-3.528-6.553.045.514.012.466v7.435h-1.887V24.338h1.616l.246.008a.65.65 0 0 1 .187.041.41.41 0 0 1 .155.104.87.87 0 0 1 .136.19l3.44 6.392.248.53zm12.042-4.05a3.93 3.93 0 0 1 1.42.246c.432.166.805.405 1.118.72a3.28 3.28 0 0 1 .732 1.163c.175.46.262.984.262 1.572a2.67 2.67 0 0 1-.02.37.65.65 0 0 1-.07.232c-.033.057-.08.096-.14.12s-.132.037-.224.037h-5.048c.06.84.285 1.454.677 1.846s.913.6 1.56.6c.32 0 .594-.037.823-.112s.433-.157.606-.246l.453-.246c.13-.075.256-.112.378-.112.08 0 .148.016.207.047s.1.077.15.136l.573.716a3.3 3.3 0 0 1-.732.64 4.09 4.09 0 0 1-.848.415 4.64 4.64 0 0 1-.899.22 6.41 6.41 0 0 1-.889.063c-.567 0-1.096-.094-1.584-.283a3.58 3.58 0 0 1-1.275-.836c-.362-.368-.645-.825-.852-1.368s-.3-1.175-.3-1.9c0-.557.1-1.082.27-1.572a3.77 3.77 0 0 1 .777-1.281 3.67 3.67 0 0 1 1.234-.864c.488-.213 1.037-.32 1.647-.32zm.04 1.4c-.573 0-1.023.163-1.346.486s-.53.783-.62 1.376h3.694c0-.254-.035-.494-.104-.72a1.66 1.66 0 0 0-.319-.594c-.142-.17-.323-.303-.54-.403s-.474-.146-.764-.146zm7.778 7.024c-.706 0-1.25-.2-1.633-.602s-.573-.954-.573-1.66v-4.562h-.828c-.106 0-.197-.035-.274-.104s-.116-.173-.116-.3v-.78l1.313-.216.415-2.228c.02-.106.07-.2.146-.246s.173-.087.3-.087h1.02v2.572h2.15v1.4h-2.15v4.426c0 .254.063.453.2.598a.65.65 0 0 0 .5.216c.122 0 .224-.014.307-.045a1.56 1.56 0 0 0 .216-.091l.163-.1c.047-.028.096-.045.144-.045.06 0 .106.014.142.045a.72.72 0 0 1 .12.132l.6.956a2.99 2.99 0 0 1-.988.541 3.68 3.68 0 0 1-1.155.183zm9.88-.126h-.884c-.185 0-.33-.028-.437-.083s-.185-.17-.238-.338l-.175-.58a6.85 6.85 0 0 1-.61.49c-.2.14-.405.258-.616.354a3.15 3.15 0 0 1-.677.216 3.92 3.92 0 0 1-.797.07 3.12 3.12 0 0 1-.956-.14 2.06 2.06 0 0 1-.752-.42 2.23 2.23 0 0 1-.5-.695c-.128-.275-.175-.6-.175-.966 0-.3.08-.614.242-.915s.43-.57.807-.815.878-.443 1.505-.604 1.403-.24 2.332-.24v-.482c0-.55-.116-.96-.346-1.224s-.567-.396-1.006-.396c-.32 0-.584.037-.797.112a3.34 3.34 0 0 0-.553.25l-.433.25a.87.87 0 0 1-.437.112.57.57 0 0 1-.342-.104.84.84 0 0 1-.232-.254l-.358-.628c.94-.86 2.072-1.3 3.4-1.3.478 0 .903.08 1.277.236a2.72 2.72 0 0 1 .952.653 2.81 2.81 0 0 1 .594.998 3.82 3.82 0 0 1 .203 1.275zm-3.822-1.226a2.64 2.64 0 0 0 .557-.055 2.14 2.14 0 0 0 .482-.165 2.54 2.54 0 0 0 .437-.27 3.95 3.95 0 0 0 .425-.38V32.4c-.573 0-1.053.037-1.437.108s-.693.165-.927.277-.4.244-.498.392a.88.88 0 0 0-.146.49c0 .348.102.596.307.746s.472.224.8.224zm5.78 1.226V24.02h1.966v4.666c.323-.346.7-.62 1.098-.823s.886-.307 1.433-.307a2.71 2.71 0 0 1 1.222.274c.368.183.687.45.956.8s.476.783.62 1.297.22 1.106.22 1.775c0 .6-.08 1.175-.246 1.696a4.12 4.12 0 0 1-.706 1.354c-.305.382-.675.68-1.106.897s-.917.323-1.454.323c-.25 0-.478-.024-.685-.075s-.394-.12-.565-.2a2.4 2.4 0 0 1-.474-.33 4.24 4.24 0 0 1-.419-.433l-.087.55c-.033.138-.085.236-.163.295s-.18.087-.315.087H81.46zm3.822-6.768c-.4 0-.758.085-1.047.258a3 3 0 0 0-.807.728v3.662c.224.277.466.468.728.577s.55.163.856.163a1.88 1.88 0 0 0 .805-.167 1.54 1.54 0 0 0 .6-.5 2.6 2.6 0 0 0 .386-.864c.1-.348.136-.758.136-1.23 0-.478-.04-.882-.116-1.214s-.187-.602-.33-.807a1.3 1.3 0 0 0-.52-.453c-.207-.094-.44-.142-.7-.142zm11.633 6.768h-.884c-.185 0-.33-.028-.437-.083s-.185-.17-.238-.338l-.175-.58a6.85 6.85 0 0 1-.61.49 3.69 3.69 0 0 1-.618.354 3.21 3.21 0 0 1-.677.216c-.238.05-.504.07-.797.07a3.12 3.12 0 0 1-.956-.14 2.06 2.06 0 0 1-.752-.42 2.23 2.23 0 0 1-.5-.695c-.128-.275-.175-.6-.175-.966 0-.3.08-.614.242-.915s.43-.57.807-.815.878-.443 1.505-.604 1.405-.24 2.332-.24v-.482c0-.55-.116-.96-.346-1.224s-.567-.396-1.006-.396c-.32 0-.584.037-.797.112a3.34 3.34 0 0 0-.553.25l-.433.25a.89.89 0 0 1-.437.112.57.57 0 0 1-.342-.104.84.84 0 0 1-.232-.254l-.358-.628c.94-.86 2.072-1.3 3.4-1.3.478 0 .905.08 1.28.236a2.72 2.72 0 0 1 .952.653 2.81 2.81 0 0 1 .594.998 3.82 3.82 0 0 1 .203 1.275zm-3.822-1.226a2.64 2.64 0 0 0 .557-.055 2.14 2.14 0 0 0 .482-.165 2.54 2.54 0 0 0 .437-.27 3.95 3.95 0 0 0 .425-.38V32.4c-.573 0-1.053.037-1.437.108s-.693.165-.927.277-.4.244-.498.392a.88.88 0 0 0-.146.49c0 .348.102.596.307.746s.472.224.8.224zm10.605-5.352a.53.53 0 0 1-.167.179c-.06.035-.132.05-.224.05a.71.71 0 0 1-.307-.079l-.378-.18c-.142-.067-.307-.126-.5-.18s-.4-.08-.65-.08c-.388 0-.693.083-.915.246s-.333.38-.333.645a.61.61 0 0 0 .17.44c.113.117.264.224.453.315a4.49 4.49 0 0 0 .64.242l.732.234.732.3c.238.1.45.246.64.415a1.9 1.9 0 0 1 .453.602c.113.234.17.514.17.844 0 .392-.07.754-.216 1.088s-.354.618-.628.86a2.97 2.97 0 0 1-1.023.565c-.405.136-.872.203-1.397.203a4.4 4.4 0 0 1-.823-.075c-.268-.05-.525-.12-.773-.2s-.476-.197-.685-.32-.394-.254-.553-.4l.453-.748a.67.67 0 0 1 .207-.207.56.56 0 0 1 .303-.07.63.63 0 0 1 .346.104l.378.224a2.83 2.83 0 0 0 .506.224 2.25 2.25 0 0 0 .736.104c.234 0 .433-.028.602-.083s.305-.128.415-.22.2-.195.238-.315a1.23 1.23 0 0 0 .075-.37.66.66 0 0 0-.171-.47c-.114-.122-.266-.228-.453-.32a4.42 4.42 0 0 0-.645-.242l-.74-.236a6.74 6.74 0 0 1-.74-.3 2.49 2.49 0 0 1-.645-.433 1.95 1.95 0 0 1-.453-.645c-.114-.254-.17-.563-.17-.923a2.37 2.37 0 0 1 .199-.956 2.22 2.22 0 0 1 .586-.793c.26-.226.577-.407.964-.54s.83-.203 1.334-.203c.563 0 1.076.094 1.537.28s.846.43 1.155.732zm5.486-1.72a3.93 3.93 0 0 1 1.42.246c.432.166.805.405 1.118.72a3.28 3.28 0 0 1 .732 1.163c.175.46.262.984.262 1.572a2.67 2.67 0 0 1-.02.37.65.65 0 0 1-.07.232c-.033.057-.08.096-.14.12s-.132.037-.224.037h-5.048c.06.84.285 1.454.677 1.846s.913.6 1.56.6c.32 0 .594-.037.823-.112s.433-.157.606-.246l.453-.246c.13-.075.256-.112.378-.112.08 0 .148.016.207.047s.1.077.15.136l.573.716a3.3 3.3 0 0 1-.732.64 4.09 4.09 0 0 1-.848.415 4.64 4.64 0 0 1-.899.22 6.41 6.41 0 0 1-.889.063c-.567 0-1.096-.094-1.584-.283a3.58 3.58 0 0 1-1.275-.836c-.362-.368-.645-.825-.852-1.368s-.3-1.175-.3-1.9c0-.557.1-1.082.27-1.572a3.77 3.77 0 0 1 .777-1.281 3.67 3.67 0 0 1 1.234-.864c.5-.213 1.04-.32 1.65-.32zm.04 1.4c-.573 0-1.023.163-1.346.486s-.53.783-.62 1.376h3.694c0-.254-.035-.494-.104-.72a1.66 1.66 0 0 0-.319-.594c-.144-.17-.323-.303-.54-.403s-.472-.146-.764-.146z"/></svg>