<?xml version="1.0" encoding="utf-8"?>
<svg class="fill-current" viewBox="0 0 98 98" fill="black" xmlns="http://www.w3.org/2000/svg"><path d="M24.2391 58.7912C29.877 58.7912 34.4475 54.2207 34.4475 48.5828C34.4475 42.9449 29.877 38.3745 24.2391 38.3745C18.6012 38.3745 14.0308 42.9449 14.0308 48.5828C14.0308 54.2207 18.6012 58.7912 24.2391 58.7912Z"></path><path d="M54.7787 55.7046C58.7675 55.7046 62.0011 52.4716 62.0011 48.4834C62.0011 44.4952 58.7675 41.2622 54.7787 41.2622C50.7899 41.2622 47.5563 44.4952 47.5563 48.4834C47.5563 52.4716 50.7899 55.7046 54.7787 55.7046Z"></path><path d="M78.6018 52.0652C80.547 52.0652 82.1239 50.4883 82.1239 48.5431C82.1239 46.5979 80.547 45.021 78.6018 45.021C76.6566 45.021 75.0798 46.5979 75.0798 48.5431C75.0798 50.4883 76.6566 52.0652 78.6018 52.0652Z"></path></svg>
