<?xml version="1.0" encoding="UTF-8" standalone="no"?>
<svg
   width="133.72003"
   height="133.72003"
   viewBox="0 0 133.72003 133.72003"
   fill="none"
   version="1.1"
   id="svg350"
   sodipodi:docname="my-hours.svg"
   inkscape:version="1.1.1 (1:1.1+202109281949+c3084ef5ed)"
   xmlns:inkscape="http://www.inkscape.org/namespaces/inkscape"
   xmlns:sodipodi="http://sodipodi.sourceforge.net/DTD/sodipodi-0.dtd"
   xmlns="http://www.w3.org/2000/svg"
   xmlns:svg="http://www.w3.org/2000/svg">
  <defs
     id="defs354" />
  <sodipodi:namedview
     id="namedview352"
     pagecolor="#505050"
     bordercolor="#eeeeee"
     borderopacity="1"
     inkscape:pageshadow="0"
     inkscape:pageopacity="0"
     inkscape:pagecheckerboard="0"
     showgrid="false"
     fit-margin-top="0"
     fit-margin-left="0"
     fit-margin-right="0"
     fit-margin-bottom="0"
     inkscape:zoom="2.009009"
     inkscape:cx="161.02466"
     inkscape:cy="67.446188"
     inkscape:window-width="1848"
     inkscape:window-height="1016"
     inkscape:window-x="72"
     inkscape:window-y="27"
     inkscape:window-maximized="1"
     inkscape:current-layer="svg350" />
  <path
     d="m 133.72003,66.860028 c 0,-13.2241 -3.922,-26.1512 -11.269,-37.1465 -7.347,-10.9953 -17.789,-19.5649 -30.007103,-24.6250397 -12.2176,-5.06017997 -25.6615,-6.38365 -38.6313,-3.80303 -12.9699,2.58062 -24.8832,8.9493697 -34.2333,18.3009697 -9.3501,9.3515 -15.7171398,21.2658 -18.2958198,34.236 -2.578679,12.9702 -1.25319997,26.4139 3.80881,38.6307 5.0620098,12.216902 13.6332098,22.657902 24.6296098,30.003902 10.9963,7.345 23.924,11.265 37.1481,11.263 8.7801,0.001 17.4744,-1.727 25.5863,-5.087 8.111703,-3.36 15.482703,-8.285 21.690703,-14.494 6.208,-6.208 11.131,-13.58 14.49,-21.692002 3.358,-8.1124 5.086,-16.8069 5.083,-25.587 z m -66.850003,-51.94 c 4.4507,-7e-4 8.8833,0.5672 13.19,1.69 l -8.15,19.19 c -13.45,-5 -26.55,-7.86 -37.46,-8.1 h -1.64 c 9.4278,-8.2496 21.5325,-12.7915 34.06,-12.78 z m 0,103.880002 c -4.4817,0.013 -8.946,-0.559 -13.28,-1.7 l 6,-14.14 c -2.3,-0.847 -4.6067,-1.763 -6.92,-2.75 -2.32,-1.000002 -4.59,-2.000002 -6.8,-3.070002 l -6,14.120002 c -7.2237,-4.406 -13.2651,-10.506 -17.6019,-17.771902 -4.3367,-7.2657 -6.8382,-15.4785 -7.2881,-23.9281 l 1.18,1.21 c 9.1,9 22.82,17.66 38.65,24.42 15.83,6.760002 31.61,10.590002 44.4,10.870002 h 1.770003 c -9.437903,8.261 -21.567503,12.791 -34.110003,12.74 z m 17.67,-61.000002 c 9.15,4.84 16.900003,10.27 22.460003,15.78 6.39,6.34 8.36,11.47 7.48,13.54 -0.88,2.07 -5.94,4.22 -14.940003,4 -10.94,-0.25 -24.73,-3.68 -38.89,-9.69 -14.16,-6.01 -26.21,-13.54 -33.98,-21.24 -6.39,-6.35 -8.35,-11.47 -7.47,-13.54 0.88,-2.07 5.92,-4.22 14.93,-4 9.01,0.22 20.28,2.64 31.95,6.93 l -10.1,23.75 c -0.0325,0.0431 -0.0593,0.0902 -0.08,0.14 2.2,1.06 4.47,2.1 6.79,3.09 2.32,0.99 4.64,1.89 6.94,2.74 l 16.01,-37.68 8.17,-19.19 c 3.5652,2.1665 6.859003,4.7515 9.810003,7.7 9.108,9.0724 14.501,21.2191 15.12,34.06 -0.4,-0.42 -0.81,-0.83 -1.24,-1.27 -6.79,-6.73 -16.18,-13.27 -27.120003,-19 z"
     fill="#2db67e"
     id="path334" />
</svg>
