<?xml version="1.0" encoding="UTF-8" standalone="no"?>
<!DOCTYPE svg PUBLIC "-//W3C//DTD SVG 1.1//EN" "http://www.w3.org/Graphics/SVG/1.1/DTD/svg11.dtd">
<svg version="1.1" xmlns="http://www.w3.org/2000/svg" xmlns:xlink="http://www.w3.org/1999/xlink" preserveAspectRatio="xMidYMid meet" viewBox="42.88766827226719 39.074982185733454 227.711791034481 155.93205727604558" width="223.71" height="151.93"><defs><path d="M196.81 55.48C195.75 55.48 195.01 55.61 194.26 55.8C194.26 55.8 194.26 55.85 194.26 55.92C194.33 55.92 194.37 55.92 194.38 55.92C194.88 56.92 195.75 57.61 196.37 58.48C196.87 59.48 197.31 60.47 197.81 61.47C197.87 61.41 197.93 61.34 197.93 61.34C198.81 60.72 199.24 59.72 199.24 58.23C198.87 57.79 198.81 57.35 198.49 56.92C198.12 56.29 197.31 55.98 196.81 55.48" id="c1BA25xfLa"></path><path d="M260.37 109.64C255.38 109.51 251.52 110.01 248.28 111.38C247.35 111.76 245.85 111.76 245.73 112.94C246.23 113.44 246.29 114.25 246.73 114.93C247.47 116.18 248.78 117.86 249.96 118.74C251.27 119.73 252.58 120.73 253.96 121.6C256.38 123.1 259.13 123.97 261.49 125.47C262.87 126.34 264.23 127.46 265.61 128.39C266.29 128.89 266.72 129.7 267.6 130.01C267.6 129.99 267.6 129.84 267.6 129.82C267.16 129.26 267.04 128.45 266.6 127.83C265.98 127.21 265.36 126.64 264.73 126.02C262.92 123.59 260.68 121.48 258.25 119.73C256.26 118.36 251.89 116.49 251.09 114.19C251.09 114.19 251.02 114.12 250.96 114.06C252.33 113.94 253.96 113.44 255.26 113.06C257.38 112.5 259.31 112.63 261.49 112.07C262.49 111.82 263.49 111.5 264.49 111.2C264.49 111.14 264.49 110.69 264.49 110.63C263.36 109.51 262.55 108.01 261.37 106.96C258.19 104.21 254.7 101.54 251.09 99.29C249.15 98.04 246.66 97.24 244.6 96.18C243.86 95.8 242.61 95.62 242.18 94.99C241.05 93.62 240.43 91.82 239.62 90.19C237.81 86.77 236.07 82.97 234.51 79.35C233.39 76.92 232.7 74.49 231.33 72.25C224.91 61.65 217.94 55.24 207.22 48.94C204.91 47.63 202.17 47.07 199.24 46.39C197.68 46.32 196.13 46.2 194.57 46.14C193.57 45.7 192.57 44.52 191.7 43.96C188.15 41.71 178.99 36.85 176.37 43.27C174.69 47.32 178.87 51.31 180.3 53.37C181.36 54.8 182.73 56.42 183.47 58.04C183.91 59.1 184.04 60.22 184.47 61.34C185.47 64.08 186.4 67.14 187.72 69.69C188.4 71 189.15 72.38 190.02 73.55C190.52 74.24 191.39 74.55 191.58 75.68C190.71 76.92 190.64 78.79 190.14 80.35C187.9 87.39 188.77 96.11 191.95 101.29C192.94 102.84 195.32 106.27 198.49 104.96C201.3 103.84 200.68 100.29 201.48 97.17C201.67 96.42 201.55 95.93 201.92 95.43C201.92 95.44 201.92 95.54 201.92 95.56C202.79 97.3 203.67 98.98 204.47 100.73C206.41 103.78 209.77 106.96 212.58 109.07C214.07 110.2 215.25 112.13 217.12 112.81C217.12 112.8 217.12 112.74 217.12 112.63C217.05 112.63 217.01 112.63 217 112.63C216.63 112.07 216.07 111.82 215.57 111.38C214.45 110.26 213.2 108.89 212.33 107.64C209.71 104.15 207.4 100.29 205.35 96.3C204.35 94.36 203.48 92.25 202.67 90.32C202.3 89.57 202.3 88.45 201.67 88.08C200.73 89.44 199.37 90.63 198.68 92.31C197.5 94.99 197.37 98.29 196.93 101.72C196.69 101.79 196.81 101.72 196.69 101.84C194.69 101.35 194.01 99.29 193.26 97.55C191.39 93.12 191.08 86.02 192.7 80.91C193.13 79.6 195.01 75.49 194.26 74.24C193.88 73.05 192.63 72.38 191.95 71.44C191.14 70.25 190.26 68.76 189.71 67.45C188.21 63.96 187.46 60.1 185.85 56.61C185.1 54.98 183.79 53.3 182.73 51.81C181.54 50.13 180.24 48.94 179.3 46.95C178.99 46.26 178.56 45.14 179.05 44.4C179.17 43.9 179.43 43.71 179.93 43.58C180.73 42.9 183.04 43.77 183.85 44.14C186.16 45.07 188.09 45.95 190.02 47.26C190.89 47.88 191.83 49.07 192.94 49.38C193.08 49.38 194.13 49.38 194.26 49.38C196.25 49.81 198.49 49.5 200.36 50.06C203.67 51.12 206.66 52.68 209.34 54.36C217.5 59.54 224.23 66.89 228.77 75.68C229.52 77.11 229.84 78.42 230.52 79.91C231.83 82.97 233.45 86.08 234.76 89.07C236.07 92 237.32 94.99 239.19 97.42C240.12 98.73 243.86 99.42 245.54 100.1C246.79 100.66 248.72 101.16 249.84 101.84C251.96 103.15 254.08 104.65 256.07 106.08C257.07 106.83 260.18 108.39 260.37 109.64" id="adgqzNjSP"></path><path d="M255.91 178.48L257.27 178.48L257.27 173.23L259.06 173.23L259.06 172.16L254.05 172.16L254.05 173.23L255.91 173.23L255.91 178.48ZM266.31 178.48L267.6 178.48L267.6 172.16L265.66 172.16L264.08 176.47L262.37 172.16L260.5 172.16L260.5 178.48L261.72 178.48L261.72 173.67L261.79 173.67L263.59 178.48L264.51 178.48L266.31 173.67L266.31 178.48" id="f3K3bkKDld"></path><path d="M250.02 178.49L225.49 178.49L225.49 126.91L233.74 126.91L233.74 172.14L250.02 172.14L250.02 178.49" id="enhwUdJUz"></path><path d="M187.82 168.24C185.73 164.88 184.69 159.49 184.69 152.05C184.69 139.06 188.64 132.56 196.53 132.56C200.66 132.56 203.69 134.12 205.62 137.22C207.71 140.59 208.76 145.93 208.76 153.27C208.76 166.36 204.81 172.91 196.91 172.91C192.79 172.91 189.76 171.36 187.82 168.24M218.54 179.8C212.85 177 209.69 175.44 209.06 175.13C209.9 174.44 210.7 173.69 211.43 172.83C215.45 168.09 217.47 161.09 217.47 151.82C217.47 134.76 210.77 126.22 197.37 126.22C190.8 126.22 185.68 128.39 182.02 132.72C177.99 137.46 175.98 144.43 175.98 153.65C175.98 162.72 177.76 169.37 181.33 173.59C184.59 177.41 189.5 179.32 196.07 179.32C198.53 179.32 200.78 179.02 202.83 178.42C203.65 178.9 207.76 181.29 215.17 185.6L218.54 179.8" id="bdkNNiqPG"></path><path d="M172.92 164.19C172.92 168.56 171.31 172.15 168.11 174.96C164.91 177.76 160.6 179.16 155.2 179.16C150.16 179.16 145.27 177.55 140.54 174.35C140.76 173.9 142.53 170.36 142.75 169.92C146.83 171.95 150.51 172.97 153.83 172.97C156.93 172.97 159.36 172.28 161.12 170.92C162.88 169.54 163.93 167.62 163.93 165.19C163.93 162.13 161.79 159.51 157.87 157.31C154.26 155.33 147.03 151.18 147.03 151.18C143.11 148.32 141.15 145.26 141.15 140.21C141.15 136.03 142.61 132.65 145.54 130.08C148.47 127.51 152.25 126.22 156.88 126.22C161.67 126.22 166.02 127.5 169.94 130.05C169.75 130.49 168.15 134.03 167.95 134.47C164.6 133.05 161.29 132.34 158.03 132.34C155.38 132.34 153.34 132.97 151.92 134.25C150.49 135.52 149.6 137.15 149.6 139.14C149.6 142.19 151.79 144.84 155.82 147.08C159.48 149.06 166.89 153.29 166.89 153.29C170.91 156.14 172.92 159.18 172.92 164.19" id="a1uziwQZNH"></path><path d="M135.11 140.44C131.59 159.51 126.96 173.37 121.2 182.01C116.72 188.68 111.81 192.01 106.46 192.01C105.03 192.01 103.27 191.58 101.19 190.72C101.19 190.26 101.19 186.59 101.19 186.13C102.21 186.28 103.4 186.36 104.78 186.36C107.27 186.36 109.29 185.67 110.82 184.29C112.65 182.61 113.56 180.73 113.56 178.64C113.56 177.21 112.85 174.28 111.43 169.85C110.79 167.89 107.64 158.09 101.95 140.44L110.43 140.44C114.51 153.64 116.78 160.97 117.23 162.44C118.76 167.43 119.4 170.92 119.14 172.91C122.86 162.97 125.46 152.15 126.94 140.44C127.48 140.44 130.2 140.44 135.11 140.44" id="cgAFTrMBY"></path><path d="M97.67 178.49C92.49 178.49 89.62 178.49 89.04 178.49C88.74 163.92 87.9 150.22 86.52 137.38C86.52 137.38 86.49 137.38 86.44 137.38L73.3 178.49L66.73 178.49L53.67 137.38C53.62 137.38 53.59 137.38 53.59 137.38C52.62 149.71 52.01 163.41 51.76 178.49C50.97 178.49 44.67 178.49 43.89 178.49C44.4 160.15 45.67 142.96 47.71 126.91C48.42 126.91 51.99 126.91 58.4 126.91L70.86 164.81L70.93 164.81L83.46 126.91C89.61 126.91 93.02 126.91 93.7 126.91C95.94 145.7 97.27 162.9 97.67 178.49" id="b1c8K5pI5U"></path></defs><g><g><use xlink:href="#c1BA25xfLa" opacity="1" fill="#5b85a4" fill-opacity="1"></use><g><use xlink:href="#c1BA25xfLa" opacity="1" fill-opacity="0" stroke="#000000" stroke-width="1" stroke-opacity="0"></use></g></g><g><use xlink:href="#adgqzNjSP" opacity="1" fill="#2c7493" fill-opacity="1"></use><g><use xlink:href="#adgqzNjSP" opacity="1" fill-opacity="0" stroke="#000000" stroke-width="1" stroke-opacity="0"></use></g></g><g><use xlink:href="#f3K3bkKDld" opacity="1" fill="#f18513" fill-opacity="1"></use><g><use xlink:href="#f3K3bkKDld" opacity="1" fill-opacity="0" stroke="#000000" stroke-width="1" stroke-opacity="0"></use></g></g><g><use xlink:href="#enhwUdJUz" opacity="1" fill="#f18513" fill-opacity="1"></use><g><use xlink:href="#enhwUdJUz" opacity="1" fill-opacity="0" stroke="#000000" stroke-width="1" stroke-opacity="0"></use></g></g><g><use xlink:href="#bdkNNiqPG" opacity="1" fill="#f18513" fill-opacity="1"></use><g><use xlink:href="#bdkNNiqPG" opacity="1" fill-opacity="0" stroke="#000000" stroke-width="1" stroke-opacity="0"></use></g></g><g><use xlink:href="#a1uziwQZNH" opacity="1" fill="#f18513" fill-opacity="1"></use><g><use xlink:href="#a1uziwQZNH" opacity="1" fill-opacity="0" stroke="#000000" stroke-width="1" stroke-opacity="0"></use></g></g><g><use xlink:href="#cgAFTrMBY" opacity="1" fill="#2c7493" fill-opacity="1"></use><g><use xlink:href="#cgAFTrMBY" opacity="1" fill-opacity="0" stroke="#000000" stroke-width="1" stroke-opacity="0"></use></g></g><g><use xlink:href="#b1c8K5pI5U" opacity="1" fill="#2c7493" fill-opacity="1"></use><g><use xlink:href="#b1c8K5pI5U" opacity="1" fill-opacity="0" stroke="#000000" stroke-width="1" stroke-opacity="0"></use></g></g></g></svg>