<svg version="1.1" id="Layer_1" xmlns="http://www.w3.org/2000/svg" xmlns:xlink="http://www.w3.org/1999/xlink" x="0px" y="0px"
	 width="100%" viewBox="0 0 500 500" enable-background="new 0 0 500 500" xml:space="preserve">
<path fill="#FFFFFF" opacity="1.000000" stroke="none" 
	d="
M333.000000,501.000000 
	C222.000031,501.000000 111.500053,501.000000 1.000059,501.000000 
	C1.000040,334.333405 1.000040,167.666794 1.000020,1.000149 
	C167.666565,1.000099 334.333130,1.000099 500.999756,1.000050 
	C500.999847,167.666519 500.999847,334.333038 500.999939,500.999786 
	C445.166656,501.000000 389.333344,501.000000 333.000000,501.000000 
M250.138367,71.884247 
	C231.266006,72.880089 215.722839,80.657936 203.356964,95.031532 
	C202.667419,94.805176 202.036377,94.643425 201.440903,94.396042 
	C169.540939,81.143478 134.364975,96.585876 122.226845,127.336479 
	C120.888741,130.726410 118.579941,131.856491 115.334763,132.794586 
	C87.722221,140.776581 71.902122,163.569641 71.103119,190.650970 
	C70.741791,202.897766 74.990593,214.452911 82.176697,224.599106 
	C84.134010,227.362625 84.244041,229.550400 82.761276,232.708267 
	C80.379440,237.780945 78.097023,243.123718 77.119308,248.593109 
	C73.143158,270.835754 79.521614,289.758026 96.243912,305.194000 
	C97.715630,306.552521 98.415611,309.387024 98.428360,311.542175 
	C98.449638,315.139526 97.373413,318.729584 97.196831,322.344086 
	C95.594566,355.140656 119.682770,382.437408 152.309952,385.174622 
	C153.917374,385.309479 156.224457,387.142639 156.745758,388.680054 
	C164.618210,411.897430 180.819977,425.548279 204.547867,430.344971 
	C209.600540,431.366394 214.993759,431.271881 220.181778,430.938812 
	C231.583984,430.206848 241.495850,425.152496 251.689102,419.693787 
	C256.566895,422.171204 261.304474,424.989502 266.347961,427.063995 
	C283.453400,434.099854 300.164703,432.080048 316.183350,423.688385 
	C330.397980,416.241791 339.597961,404.366730 344.670746,389.222015 
	C345.462006,386.859711 345.974060,384.980927 349.521454,384.876801 
	C361.332733,384.530090 372.078430,380.244934 381.117584,372.891571 
	C400.438538,357.173981 408.103271,336.809357 403.327209,312.131683 
	C402.779907,309.303650 402.786987,307.048187 405.244965,305.028503 
	C407.521576,303.157898 409.636536,301.026764 411.532654,298.766998 
	C427.571411,279.652222 430.140076,253.350998 418.448914,231.567261 
	C417.630737,230.042770 417.984528,227.093811 418.956085,225.529312 
	C427.230927,212.204376 432.639282,198.197495 429.844696,182.184525 
	C425.527557,157.447388 409.799652,139.531815 385.129272,132.619690 
	C382.019348,131.748352 380.532227,130.055344 379.385773,127.202950 
	C368.027985,98.944153 337.083954,83.631454 308.035858,92.211449 
	C301.628906,94.103889 297.491333,94.506912 291.908752,88.832596 
	C281.017365,77.762321 266.735352,72.533875 250.138367,71.884247 
z"/>
<path fill="#1B6FD8" opacity="1.000000" stroke="none" 
	d="
M251.043671,419.303284 
	C241.495850,425.152496 231.583984,430.206848 220.181778,430.938812 
	C214.993759,431.271881 209.600540,431.366394 204.547867,430.344971 
	C180.819977,425.548279 164.618210,411.897430 156.745758,388.680054 
	C156.224457,387.142639 153.917374,385.309479 152.309952,385.174622 
	C119.682770,382.437408 95.594566,355.140656 97.196831,322.344086 
	C97.373413,318.729584 98.449638,315.139526 98.428360,311.542175 
	C98.415611,309.387024 97.715630,306.552521 96.243912,305.194000 
	C79.521614,289.758026 73.143158,270.835754 77.119308,248.593109 
	C78.097023,243.123718 80.379440,237.780945 82.761276,232.708267 
	C84.244041,229.550400 84.134010,227.362625 82.176697,224.599106 
	C74.990593,214.452911 70.741791,202.897766 71.103119,190.650970 
	C71.902122,163.569641 87.722221,140.776581 115.334763,132.794586 
	C118.579941,131.856491 120.888741,130.726410 122.226845,127.336479 
	C134.364975,96.585876 169.540939,81.143478 201.440903,94.396042 
	C202.036377,94.643425 202.667419,94.805176 203.356964,95.031532 
	C215.722839,80.657936 231.266006,72.880089 250.559479,72.437241 
	C250.981262,90.147697 250.979614,107.305153 250.983032,124.462608 
	C251.002579,222.742828 251.023315,321.023071 251.043671,419.303284 
z"/>
<path fill="#044BA2" opacity="1.000000" stroke="none" 
	d="
M251.366394,419.498535 
	C251.023315,321.023071 251.002579,222.742828 250.983032,124.462608 
	C250.979614,107.305153 250.981262,90.147697 250.984863,72.525780 
	C266.735352,72.533875 281.017365,77.762321 291.908752,88.832596 
	C297.491333,94.506912 301.628906,94.103889 308.035858,92.211449 
	C337.083954,83.631454 368.027985,98.944153 379.385773,127.202950 
	C380.532227,130.055344 382.019348,131.748352 385.129272,132.619690 
	C409.799652,139.531815 425.527557,157.447388 429.844696,182.184525 
	C432.639282,198.197495 427.230927,212.204376 418.956085,225.529312 
	C417.984528,227.093811 417.630737,230.042770 418.448914,231.567261 
	C430.140076,253.350998 427.571411,279.652222 411.532654,298.766998 
	C409.636536,301.026764 407.521576,303.157898 405.244965,305.028503 
	C402.786987,307.048187 402.779907,309.303650 403.327209,312.131683 
	C408.103271,336.809357 400.438538,357.173981 381.117584,372.891571 
	C372.078430,380.244934 361.332733,384.530090 349.521454,384.876801 
	C345.974060,384.980927 345.462006,386.859711 344.670746,389.222015 
	C339.597961,404.366730 330.397980,416.241791 316.183350,423.688385 
	C300.164703,432.080048 283.453400,434.099854 266.347961,427.063995 
	C261.304474,424.989502 256.566895,422.171204 251.366394,419.498535 
z"/>
</svg>