<svg width="157" height="30" viewBox="0 0 157 30" fill="none" xmlns="http://www.w3.org/2000/svg"><g clip-path="url(#clip0)"><path d="M10.8914 17.2057c-.3685.7371-1.42028.7371-1.78881 0l-.88136-1.7627c-.14077-.2815-.14077-.6129 0-.8944l.88136-1.7628c.36853-.737 1.42031-.737 1.78881 0l.8814 1.7628c.1408.2815.1408.6129 0 .8944l-.8814 1.7627zM10.8914 27.2028c-.3685.737-1.42028.737-1.78881 0L8.22123 25.44c-.14077-.2815-.14077-.6129 0-.8944l.88136-1.7627c.36853-.7371 1.42031-.7371 1.78881 0l.8814 1.7627c.1408.2815.1408.6129 0 .8944l-.8814 1.7628z" fill="#1D4AFF"/><path d="M0 23.4082c0-.8909 1.07714-1.3371 1.70711-.7071l4.58338 4.5834c.62997.63.1838 1.7071-.7071 1.7071H.999999c-.552284 0-.999999-.4477-.999999-1v-4.5834zm0-4.8278c0 .2652.105357.5196.292893.7071l9.411217 9.4112c.18753.1875.44189.2929.70709.2929h5.1692c.8909 0 1.3371-1.0771.7071-1.7071L1.70711 12.7041C1.07714 12.0741 0 12.5203 0 13.4112v5.1692zm0-9.99701c0 .26521.105357.51957.292893.7071L19.7011 28.6987c.1875.1875.4419.2929.7071.2929h5.1692c.8909 0 1.3371-1.0771.7071-1.7071L1.70711 2.70711C1.07715 2.07715 0 2.52331 0 3.41421v5.16918zm9.997 0c0 .26521.1054.51957.2929.7071l17.994 17.99401c.63.63 1.7071.1838 1.7071-.7071v-5.1692c0-.2652-.1054-.5196-.2929-.7071l-17.994-17.994c-.63-.62996-1.7071-.18379-1.7071.70711v5.16918zm11.7041-5.87628c-.63-.62997-1.7071-.1838-1.7071.7071v5.16918c0 .26521.1054.51957.2929.7071l7.997 7.99701c.63.63 1.7071.1838 1.7071-.7071v-5.1692c0-.2652-.1054-.5196-.2929-.7071l-7.997-7.99699z" fill="#F9BD2B"/><path d="M42.5248 23.5308l-9.4127-9.4127c-.63-.63-1.7071-.1838-1.7071.7071v13.1664c0 .5523.4477 1 1 1h14.5806c.5523 0 1-.4477 1-1v-1.199c0-.5523-.4496-.9934-.9973-1.0647-1.6807-.2188-3.2528-.9864-4.4635-2.1971zm-6.3213 2.2618c-.8829 0-1.5995-.7166-1.5995-1.5996 0-.8829.7166-1.5995 1.5995-1.5995.883 0 1.5996.7166 1.5996 1.5995 0 .883-.7166 1.5996-1.5996 1.5996z" fill="#000"/><path d="M0 27.9916c0 .5523.447715 1 1 1h4.58339c.8909 0 1.33707-1.0771.70711-1.7071l-4.58339-4.5834C1.07714 22.0711 0 22.5173 0 23.4082v4.5834zM9.997 10.997L1.70711 2.70711C1.07714 2.07714 0 2.52331 0 3.41421v5.16918c0 .26521.105357.51957.292893.7071L9.997 18.9946V10.997zM1.70711 12.7041C1.07714 12.0741 0 12.5203 0 13.4112v5.1692c0 .2652.105357.5196.292893.7071L9.997 28.9916V20.994l-8.28989-8.2899z" fill="#1D4AFF"/><path d="M19.994 11.4112c0-.2652-.1053-.5196-.2929-.7071l-7.997-7.99699c-.6299-.62997-1.70709-.1838-1.70709.7071v5.16918c0 .26521.10539.51957.29289.7071l9.7041 9.70411v-7.5834zM9.99701 28.9916h5.58339c.8909 0 1.3371-1.0771.7071-1.7071L9.99701 20.994v7.9976zM9.99701 10.997v7.5834c0 .2652.10539.5196.29289.7071l9.7041 9.7041v-7.5834c0-.2652-.1053-.5195-.2929-.7071L9.99701 10.997z" fill="#F54E00"/><path d="M59.6496 25h4.108v-6.812h3.432c3.77 0 6.188-2.2359 6.188-5.694 0-3.45795-2.418-5.69395-6.188-5.69395h-7.54V25zm4.108-10.322v-4.3679h3.016c1.56 0 2.496.8319 2.496 2.1839 0 1.3521-.936 2.184-2.496 2.184h-3.016zM80.8095 25.208c4.004 0 6.916-2.86 6.916-6.76s-2.912-6.76-6.916-6.76c-4.056 0-6.916 2.86-6.916 6.76s2.86 6.76 6.916 6.76zm-3.12-6.76c0-2.08 1.248-3.51 3.12-3.51 1.846 0 3.094 1.43 3.094 3.51s-1.248 3.51-3.094 3.51c-1.872 0-3.12-1.43-3.12-3.51zM94.2995 25.208c3.068 0 5.148-1.924 5.148-4.186 0-5.304-7.046-3.588-7.046-5.668 0-.5719.598-.9359 1.456-.9359.884 0 1.95.5459 2.288 1.7419l3.068-1.274c-.598-1.898-2.808-3.198-5.486-3.198-2.886 0-4.68 1.716-4.68 3.77 0 4.966 6.942 3.588 6.942 5.642 0 .728-.676 1.2221-1.69 1.2221-1.456 0-2.47-1.014-2.782-2.236l-3.068 1.1959c.676 1.976 2.652 3.926 5.85 3.926zM109.33 24.8701l-.26-3.302c-.442.234-1.014.3119-1.482.3119-.936 0-1.56-.6759-1.56-1.846v-4.966h3.172v-3.172h-3.172V8.10005h-3.822V11.896h-2.08v3.172h2.08v5.46c0 3.1721 2.158 4.68 4.992 4.68.78 0 1.508-.1299 2.132-.3379zM122.656 6.80005V13.872h-7.228V6.80005h-4.108V25h4.108v-7.618h7.228V25h4.134V6.80005h-4.134zM135.908 25.208c4.004 0 6.916-2.86 6.916-6.76s-2.912-6.76-6.916-6.76c-4.056 0-6.916 2.86-6.916 6.76s2.86 6.76 6.916 6.76zm-3.12-6.76c0-2.08 1.248-3.51 3.12-3.51 1.846 0 3.094 1.43 3.094 3.51s-1.248 3.51-3.094 3.51c-1.872 0-3.12-1.43-3.12-3.51zM150.201 24.584c1.43 0 2.704-.494 3.38-1.352v1.248c0 1.456-1.17 2.4701-2.964 2.4701-1.274 0-2.392-.6241-2.574-1.6901l-3.484.546c.468 2.47 2.99 4.1341 6.058 4.1341 4.03 0 6.708-2.3661 6.708-5.8761V11.896h-3.77v1.118c-.702-.806-1.898-1.326-3.432-1.326-3.64 0-5.928 2.496-5.928 6.448 0 3.952 2.288 6.448 6.006 6.448zm-2.288-6.448c0-1.95 1.144-3.198 2.912-3.198 1.794 0 2.938 1.248 2.938 3.198s-1.144 3.198-2.938 3.198c-1.768 0-2.912-1.248-2.912-3.198z" fill="#000"/></g><defs><clipPath id="clip0"><path fill="#fff" d="M0 0h157v30H0z"/></clipPath></defs></svg>