<svg xmlns="http://www.w3.org/2000/svg" viewBox="0 0 228.81 62.4"><defs><style>.cls-1{fill:#16b7cb;}</style></defs><g id="Warstwa_2" data-name="Warstwa 2"><g id="Warstwa_1-2" data-name="Warstwa 1"><path d="M73.88,40h-5L69,49.9a.38.38,0,0,1-.38.38H62.77a.38.38,0,0,1-.38-.38l.21-14.4-.21-14.41a.38.38,0,0,1,.38-.38H73.93c7.14,0,11.23,3.21,11.23,9.51S80.94,40,73.88,40m.3-14.62H68.94l-.13,9.93h5.54c2.49,0,4.6-1.44,4.6-5,0-3.38-1.73-4.94-4.77-4.94"/><path d="M86.85,50.28a.38.38,0,0,1-.38-.38l.17-10.52-.17-10.47a.38.38,0,0,1,.38-.38h5.58a.38.38,0,0,1,.38.38l-.17,3.29a9,9,0,0,1,7.77-3.84,7.48,7.48,0,0,1,1,.08.5.5,0,0,1,.38.47v3.93a.34.34,0,0,1-.38.33,5.49,5.49,0,0,0-.81,0c-4.47,0-7.81,2.49-7.77,7.48V49.9a.38.38,0,0,1-.38.38Z"/><path d="M103.41,26.41A.37.37,0,0,1,103,26V21.09a.38.38,0,0,1,.38-.38h5.66a.37.37,0,0,1,.38.38V26a.37.37,0,0,1-.38.38Zm0,23.87a.38.38,0,0,1-.38-.38l.13-10.47L103,28.91a.38.38,0,0,1,.38-.38h5.71a.38.38,0,0,1,.38.38l-.13,10.52.13,10.47a.38.38,0,0,1-.38.38Z"/><path d="M118,42.47l.13,7.43a.38.38,0,0,1-.39.38H112a.38.38,0,0,1-.38-.38l.12-7.43,0-13.56a.38.38,0,0,1,.38-.38h5.41a.38.38,0,0,1,.38.38l-.13,2.36A7.21,7.21,0,0,1,124,28c3,0,5.19,1.31,6.21,4.1,1.85-3.3,4.05-4.1,6.63-4.1,4.39,0,6.93,2.66,6.93,8.45v6l.08,7.43a.38.38,0,0,1-.38.38h-5.7a.38.38,0,0,1-.38-.38l.12-7.43V36.55c0-2.62-1.05-3.88-2.78-3.88s-3.85,2.32-3.85,6.76v3L131,49.9a.38.38,0,0,1-.38.38h-5.71a.38.38,0,0,1-.38-.38l.13-7.43V36.55c0-2.62-1-3.88-2.79-3.88S118,35,118,39.43Z"/><path d="M166.36,42.93a.33.33,0,0,1,.34.38c-.55,4-4.35,7.52-10.44,7.52-7.26,0-11.19-4.77-11.19-11.36,0-6.93,4.14-11.49,11.07-11.49,7.14,0,11.11,4.73,11.23,12.33a.38.38,0,0,1-.38.38H151.45c.25,4.1,1.86,5.92,4.9,5.92a4,4,0,0,0,4.22-3.3.5.5,0,0,1,.47-.38ZM156.18,32.16c-2.54,0-4.06,1.52-4.56,4.52h8.91c-.25-2.32-1.56-4.52-4.35-4.52"/><path d="M181.57,49.48a.64.64,0,0,1-.34.51,12.51,12.51,0,0,1-4,.72c-3.68,0-7.18-1.86-7.18-6.81l0-10.89h-2.45a.38.38,0,0,1-.38-.38V28.91a.38.38,0,0,1,.38-.38h2.45l0-5.07a.38.38,0,0,1,.38-.38h5.62a.38.38,0,0,1,.38.38l-.05,5.07h4.82a.38.38,0,0,1,.38.38v3.72a.38.38,0,0,1-.38.38h-4.86l0,10.73c0,1.85.93,2.45,2.33,2.45a7.73,7.73,0,0,0,2.45-.38.31.31,0,0,1,.38.29Z"/><path d="M183.3,50.28a.38.38,0,0,1-.38-.38l.17-10.52-.17-10.47a.38.38,0,0,1,.38-.38h5.58a.38.38,0,0,1,.38.38l-.17,3.29a9,9,0,0,1,7.77-3.84,7.18,7.18,0,0,1,1,.08.5.5,0,0,1,.38.47v3.93a.34.34,0,0,1-.38.33,5.36,5.36,0,0,0-.8,0c-4.48,0-7.82,2.49-7.77,7.48V49.9a.38.38,0,0,1-.38.38Z"/><path d="M199.86,26.41a.37.37,0,0,1-.38-.38V21.09a.38.38,0,0,1,.38-.38h5.66a.38.38,0,0,1,.38.38V26a.37.37,0,0,1-.38.38Zm0,23.87a.38.38,0,0,1-.38-.38l.13-10.47-.13-10.52a.38.38,0,0,1,.38-.38h5.7a.38.38,0,0,1,.38.38l-.12,10.52.12,10.47a.38.38,0,0,1-.38.38Z"/><path d="M218.66,50.83c-7,0-11.11-4.43-11.11-11.36S211.69,28,218.79,28c5.57,0,9.21,3.17,9.71,7.9a.32.32,0,0,1-.33.38h-5.12a.45.45,0,0,1-.42-.38c-.51-2.45-2-3.64-3.84-3.64-3.21,0-4.74,2.37-4.74,7.19,0,5,1.57,7.14,4.74,7.18,2.15,0,3.76-1.48,4-4.31a.45.45,0,0,1,.42-.38h5.24a.33.33,0,0,1,.34.38c-.47,4.94-4.44,8.53-10.14,8.53"/><polygon class="cls-1" points="0 52 20.8 62.4 20.8 41.6 0 31.21 0 52"/><polygon class="cls-1" points="41.6 10.4 41.6 31.2 20.8 41.6 20.8 20.81 0 10.4 20.8 0 41.6 10.4"/></g></g></svg>