<?xml version="1.0" standalone="no"?>
<!DOCTYPE svg PUBLIC "-//W3C//DTD SVG 20010904//EN"
 "http://www.w3.org/TR/2001/REC-SVG-20010904/DTD/svg10.dtd">
<svg version="1.0" xmlns="http://www.w3.org/2000/svg"
 width="400.000000pt" height="400.000000pt" viewBox="0 0 400.000000 400.000000"
 preserveAspectRatio="xMidYMid meet">

<g transform="translate(0.000000,400.000000) scale(0.100000,-0.100000)"
fill="#000000" stroke="none">
<path d="M1880 3990 c-47 -4 -102 -11 -124 -14 -21 -3 -57 -8 -80 -11 -129
-19 -346 -79 -346 -96 0 -6 -4 -8 -9 -4 -10 6 -87 -21 -110 -39 -7 -5 -19 -11
-26 -12 -7 -1 -47 -19 -89 -40 -52 -26 -72 -41 -63 -47 8 -6 6 -7 -7 -3 -16 6
-86 -27 -86 -40 0 -3 4 -3 9 0 4 3 8 -5 7 -17 -1 -25 -27 -30 -33 -7 -4 13 -3
13 6 0 5 -8 13 -11 18 -7 14 15 -21 27 -40 14 -10 -7 -17 -15 -15 -18 6 -12
-26 -40 -40 -34 -14 5 -71 -35 -156 -108 -28 -25 -37 -39 -32 -52 5 -14 4 -15
-7 -7 -10 9 -25 -1 -68 -45 -30 -31 -48 -53 -41 -49 6 4 12 5 12 1 0 -3 -12
-10 -26 -15 -14 -6 -22 -15 -19 -20 4 -6 3 -9 -2 -8 -5 2 -25 -16 -46 -38 -26
-29 -35 -47 -31 -60 4 -14 3 -15 -4 -5 -13 19 -41 -23 -35 -52 3 -15 2 -18 -4
-9 -7 10 -13 9 -24 -5 -18 -22 -69 -101 -69 -107 0 -3 -12 -24 -28 -48 -31
-49 -113 -221 -127 -268 -1 -3 -8 -21 -16 -40 -27 -62 -60 -182 -55 -197 3 -8
2 -12 -3 -9 -5 3 -11 -11 -15 -32 -32 -180 -32 -180 -45 -331 -10 -112 -3
-301 10 -280 4 7 5 -5 2 -28 -9 -71 68 -430 90 -416 5 3 7 2 4 -4 -9 -14 12
-85 23 -78 4 3 6 -5 2 -17 -4 -16 -2 -19 8 -13 9 5 11 4 6 -4 -7 -11 10 -69
23 -81 3 -3 17 -27 30 -55 48 -101 55 -114 63 -109 4 3 5 -1 2 -9 -3 -8 1 -21
8 -29 7 -7 20 -27 28 -43 9 -17 21 -30 27 -30 6 0 15 -4 20 -9 5 -5 3 -6 -4
-2 -20 11 -15 -7 10 -42 13 -17 28 -28 32 -24 5 4 5 2 2 -4 -8 -14 21 -56 34
-49 5 3 6 0 3 -8 -4 -13 211 -240 307 -323 46 -40 215 -154 229 -154 5 0 10
-4 10 -10 0 -5 6 -10 14 -10 7 0 19 -6 25 -14 7 -8 37 -24 69 -37 31 -12 59
-26 62 -29 11 -15 245 -101 262 -97 10 3 16 1 13 -3 -8 -14 198 -63 313 -75
183 -19 283 -23 375 -15 206 20 383 50 364 63 -8 6 -3 7 13 3 27 -6 240 61
240 76 0 5 4 7 8 4 4 -2 21 1 37 9 17 7 48 21 70 31 83 36 204 108 198 117 -3
6 -1 7 5 4 12 -8 139 75 203 132 24 22 58 51 74 66 19 17 23 25 12 21 -11 -4
-16 -2 -12 5 4 6 13 8 20 5 15 -5 48 27 51 50 1 9 6 19 10 22 4 4 4 -2 0 -13
-7 -23 104 89 149 150 17 22 38 49 48 60 10 10 15 26 12 35 -4 8 -7 17 -8 20
-1 3 3 5 8 5 6 0 8 -6 7 -14 -3 -13 -1 -13 12 -2 10 9 14 22 11 35 -4 14 -3
17 3 8 7 -10 13 -7 26 13 9 14 14 31 10 37 -4 7 -3 8 4 4 11 -6 58 70 54 86
-1 4 5 16 13 25 8 10 15 22 14 27 0 5 3 12 8 15 16 12 65 123 67 151 0 16 4
26 8 24 11 -7 49 106 43 126 -3 11 0 22 8 27 17 10 42 107 31 124 -4 7 -3 9 3
6 12 -8 40 155 52 315 10 113 -1 347 -16 371 -4 6 -7 31 -8 56 -3 72 -46 242
-67 263 -10 10 -18 26 -18 36 1 11 6 6 15 -13 7 -16 14 -27 14 -23 1 9 -36
107 -49 130 -6 10 -10 25 -10 33 0 27 -111 246 -144 283 -17 20 -25 32 -18 28
16 -10 -22 50 -97 154 -76 104 -348 373 -369 365 -9 -3 -13 -3 -9 1 10 10 -46
55 -61 49 -7 -3 -10 0 -7 5 7 11 -131 103 -157 105 -10 1 -21 5 -25 10 -5 4
-2 5 5 1 6 -4 12 -5 12 -2 0 9 -254 126 -273 126 -7 0 -17 4 -23 10 -5 5 -18
11 -29 13 -11 2 -33 9 -50 16 -37 15 -221 57 -290 66 -27 4 -61 9 -75 11 -14
2 -56 6 -95 9 -38 3 -95 7 -125 9 -30 2 -93 1 -140 -4z m750 -130 c-8 -5 -19
-10 -25 -10 -5 0 -3 5 5 10 8 5 20 10 25 10 6 0 3 -5 -5 -10z m160 -90 c0 -5
-4 -10 -10 -10 -5 0 -10 5 -10 10 0 6 5 10 10 10 6 0 10 -4 10 -10z m85 0 c3
-5 -1 -10 -10 -10 -9 0 -13 5 -10 10 3 6 8 10 10 10 2 0 7 -4 10 -10z m-1728
-6 c-3 -3 -12 -4 -19 -1 -8 3 -5 6 6 6 11 1 17 -2 13 -5z m-152 -74 c-3 -5
-12 -10 -18 -10 -7 0 -6 4 3 10 19 12 23 12 15 0z m2058 -25 c-3 -8 0 -15 6
-15 6 0 11 4 11 10 0 5 7 7 17 3 14 -5 13 -8 -6 -15 -28 -10 -40 -3 -38 22 1
10 5 17 9 14 4 -3 5 -11 1 -19z m-2263 -129 c-7 -7 -13 -7 -20 0 -6 6 -3 10
10 10 13 0 16 -4 10 -10z m2447 -3 c0 -8 -6 -9 -19 -2 -10 5 -18 11 -18 12 0
2 8 3 18 3 10 0 19 -6 19 -13z m74 -51 c-7 -2 -18 1 -23 6 -8 8 -4 9 13 5 13
-4 18 -8 10 -11z m-11 -32 c0 -5 -2 -10 -4 -10 -3 0 -8 5 -11 10 -3 6 -1 10 4
10 6 0 11 -4 11 -10z m-2836 -240 c-6 -6 -10 -3 -10 10 0 13 4 16 10 10 7 -7
7 -13 0 -20z m3080 4 c3 -8 2 -12 -4 -9 -6 3 -10 10 -10 16 0 14 7 11 14 -7z
m-3227 -186 c-3 -8 -6 -5 -6 6 -1 11 2 17 5 13 3 -3 4 -12 1 -19z m-86 -161
c-10 -9 -11 -8 -5 6 3 10 9 15 12 12 3 -3 0 -11 -7 -18z m3549 -3 c0 -8 -4
-12 -10 -9 -5 3 -10 13 -10 21 0 8 5 12 10 9 6 -3 10 -13 10 -21z m-567 -124
c14 -11 30 -20 37 -20 6 0 8 -5 5 -11 -4 -5 0 -18 8 -27 8 -9 18 -27 22 -40 3
-12 10 -20 15 -17 4 3 6 -5 2 -17 -3 -12 -1 -19 5 -15 5 4 8 -6 5 -24 -6 -37
-14 -37 -31 3 -8 18 -41 59 -73 92 -32 33 -58 63 -58 66 0 8 22 30 31 30 3 0
18 -9 32 -20z m-150 -24 c15 -1 27 -4 27 -8 0 -3 20 -17 44 -31 34 -19 47 -22
57 -13 11 9 11 8 1 -5 -10 -13 -9 -19 5 -30 13 -12 17 -12 21 -1 3 9 10 5 23
-14 10 -15 16 -31 13 -35 -11 -18 37 -72 82 -93 55 -26 113 -84 145 -148 12
-24 26 -46 31 -49 5 -3 9 -9 8 -13 -3 -13 24 -117 32 -122 30 -19 -25 -30 -68
-13 -21 7 -30 7 -37 -3 -6 -9 -7 -8 -3 4 3 11 -2 22 -14 28 -10 6 -27 23 -36
40 -10 16 -22 26 -28 23 -5 -4 -7 1 -3 12 12 29 -37 85 -74 85 -42 0 -102 -27
-93 -41 4 -7 3 -9 -4 -6 -15 10 -43 -3 -35 -16 3 -6 1 -7 -5 -3 -6 4 -32 0
-57 -9 -57 -19 -175 -20 -220 -1 -18 8 -35 13 -37 10 -2 -2 -69 32 -148 76
-110 62 -146 77 -157 69 -8 -8 -13 -8 -13 -1 0 6 6 12 13 15 10 4 -15 18 -88
48 -141 59 -294 70 -398 30 -34 -14 -55 -27 -51 -33 4 -7 2 -8 -5 -4 -10 7
-108 -45 -121 -64 -3 -4 -24 -19 -47 -34 -24 -14 -43 -31 -43 -36 0 -6 -4 -9
-8 -7 -5 1 -23 -13 -41 -30 -18 -18 -38 -33 -44 -33 -8 0 -7 -3 1 -9 11 -7 11
-9 -2 -14 -9 -4 -16 -2 -16 3 0 5 -20 -4 -45 -21 -25 -17 -42 -35 -39 -41 4
-7 2 -8 -4 -4 -6 4 -46 -11 -89 -34 -42 -22 -83 -40 -91 -40 -7 0 -10 -5 -6
-12 4 -6 3 -8 -3 -5 -6 4 -44 -2 -84 -12 -53 -14 -67 -20 -49 -23 14 -2 -58
-4 -160 -3 -187 1 -207 4 -297 47 -16 8 -26 8 -37 -1 -8 -7 -23 -11 -33 -8
-14 4 -14 5 4 6 12 0 25 6 28 11 8 12 -34 29 -55 23 -12 -4 -12 -3 -1 5 10 8
6 15 -22 34 -20 13 -46 36 -57 51 -12 15 -26 24 -32 21 -6 -4 -8 -3 -5 3 4 5
-2 19 -11 29 -10 10 -28 37 -41 59 -13 22 -34 48 -45 58 -12 10 -15 16 -8 12
17 -9 15 -3 -12 45 -15 26 -26 37 -29 28 -4 -8 -6 -9 -6 -1 -1 6 3 14 8 18 6
3 4 22 -3 48 -36 116 -43 147 -35 147 5 0 14 -12 20 -27 27 -72 52 -111 68
-106 13 4 13 3 2 -5 -11 -8 -9 -15 9 -40 13 -17 28 -28 33 -25 6 3 7 2 4 -4
-4 -6 4 -20 17 -32 18 -17 25 -19 30 -9 3 7 4 4 1 -7 -8 -37 143 -125 275
-161 105 -28 368 -24 378 6 2 6 7 8 12 5 16 -10 192 71 228 105 12 11 26 20
32 20 6 0 8 5 4 12 -4 6 -3 8 3 5 6 -4 53 24 104 61 111 80 187 130 249 163
25 13 47 27 48 32 2 4 7 5 12 2 5 -3 30 3 57 12 36 13 79 18 168 18 137 0 237
-23 325 -75 28 -16 54 -30 58 -30 4 0 23 -14 42 -31 19 -17 62 -48 95 -70 33
-21 67 -44 76 -50 10 -7 20 -11 24 -10 4 2 11 -1 14 -6 14 -19 109 -55 157
-60 67 -7 92 0 132 35 l32 29 -45 32 c-25 18 -55 46 -67 62 -14 19 -28 27 -38
24 -11 -5 -12 -3 -3 5 8 9 8 20 -3 45 -14 35 -26 120 -18 128 3 3 24 0 47 -6
23 -6 54 -11 70 -11z m-136 -8 c-3 -8 -6 -5 -6 6 -1 11 2 17 5 13 3 -3 4 -12
1 -19z m-2810 -120 c-3 -8 -6 -5 -6 6 -1 11 2 17 5 13 3 -3 4 -12 1 -19z
m1593 -43 c0 -2 -6 -5 -13 -8 -8 -3 -14 1 -14 8 0 7 6 11 14 8 7 -3 13 -6 13
-8z m1380 -109 c0 -22 -29 -41 -42 -28 -8 8 -8 15 2 27 16 19 40 20 40 1z
m-1630 -46 c-12 -8 -12 -10 -1 -10 8 0 12 -3 8 -6 -9 -9 -28 6 -22 17 4 5 12
9 18 9 7 0 6 -4 -3 -10z m1550 0 c11 -8 7 -9 -15 -4 -37 8 -45 14 -19 14 10 0
26 -5 34 -10z m470 0 c0 -5 -2 -10 -4 -10 -3 0 -8 5 -11 10 -3 6 -1 10 4 10 6
0 11 -4 11 -10z m-2130 -74 c0 -2 -7 -7 -16 -10 -8 -3 -12 -2 -9 4 6 10 25 14
25 6z m1974 -138 c-5 -7 31 -22 56 -23 8 -1 14 -6 13 -12 -1 -6 7 -19 17 -28
28 -26 25 -38 -7 -30 -16 4 -37 9 -48 12 -98 25 -152 14 -213 -43 -90 -85
-121 -98 -257 -105 -128 -7 -160 -17 -168 -55 -4 -23 17 -78 39 -101 9 -9 14
-9 25 0 11 10 11 9 0 -5 -10 -14 -8 -25 13 -67 30 -58 35 -141 12 -196 -8 -18
-11 -36 -8 -40 4 -4 3 -6 -3 -5 -22 5 -25 -1 -14 -22 9 -19 9 -21 -2 -11 -10
11 -18 8 -41 -14 -33 -32 -44 -25 -29 18 15 44 14 130 -3 170 -8 19 -37 65
-64 102 -96 130 -105 210 -32 282 22 21 36 43 33 48 -3 6 -1 7 5 3 6 -3 36 1
68 9 32 8 101 15 154 15 64 0 103 5 120 15 14 8 32 17 40 21 8 4 28 16 44 27
50 35 97 47 178 44 42 -1 74 -5 72 -9z m-1456 -35 c-10 -2 -28 -2 -40 0 -13 2
-5 4 17 4 22 1 32 -1 23 -4z m67 -54 c72 -12 167 -48 180 -68 5 -9 11 -9 23 1
13 11 15 11 10 -3 -4 -11 6 -28 29 -50 33 -32 86 -111 89 -134 1 -5 6 -28 12
-50 6 -22 13 -69 17 -105 13 -146 51 -219 137 -268 55 -31 147 -56 208 -55 28
1 31 -1 15 -7 -11 -5 -14 -9 -7 -9 6 -1 13 0 15 1 3 3 47 -34 82 -69 22 -22
35 -29 43 -23 9 7 9 7 3 -1 -7 -8 -1 -29 16 -62 14 -28 28 -71 30 -96 5 -50
-4 -131 -16 -131 -4 0 -15 15 -23 34 -22 45 -77 118 -107 141 -19 15 -25 15
-33 4 -8 -11 -9 -10 -4 4 5 14 -4 23 -39 38 -25 11 -70 25 -101 32 -46 10 -57
9 -66 -3 -8 -13 -9 -12 -5 2 6 17 -17 27 -63 28 -14 0 -47 11 -74 25 -27 13
-54 21 -60 18 -6 -3 -8 -3 -4 1 4 5 -6 21 -22 36 -55 53 -83 129 -101 270 -5
45 -18 94 -27 108 -11 17 -12 23 -3 18 15 -9 11 9 -16 74 -11 28 -16 32 -24
20 -7 -11 -8 -9 -4 10 4 19 -4 36 -36 73 -39 45 -92 86 -74 56 5 -8 4 -10 -3
-5 -7 4 -12 13 -12 21 0 15 -27 28 -42 18 -6 -3 -8 -1 -5 4 4 6 -13 16 -41 23
-62 16 -247 26 -239 13 4 -6 -3 -8 -19 -5 -59 11 34 53 150 67 31 4 58 10 61
14 5 8 54 5 150 -10z m1345 1 c0 -5 -2 -10 -4 -10 -3 0 -8 5 -11 10 -3 6 -1
10 4 10 6 0 11 -4 11 -10z m-1735 -80 c3 -6 -1 -7 -9 -4 -18 7 -21 14 -7 14 6
0 13 -4 16 -10z m655 -40 c0 -6 -9 -2 -20 7 -11 10 -20 19 -20 21 0 1 9 -2 20
-8 11 -6 20 -15 20 -20z m583 -145 c-3 -9 -8 -14 -10 -11 -3 3 -2 9 2 15 9 16
15 13 8 -4z m52 -295 c3 -5 1 -10 -4 -10 -6 0 -11 5 -11 10 0 6 2 10 4 10 3 0
8 -4 11 -10z m-447 -75 c-3 -3 -9 2 -12 12 -6 14 -5 15 5 6 7 -7 10 -15 7 -18z
m-178 -161 c0 -16 -16 -19 -25 -4 -8 13 4 32 16 25 5 -4 9 -13 9 -21z m1566
-160 c-4 -9 -9 -15 -11 -12 -3 3 -3 13 1 22 4 9 9 15 11 12 3 -3 3 -13 -1 -22z
m-3536 -4 c0 -5 -4 -10 -10 -10 -5 0 -10 5 -10 10 0 6 5 10 10 10 6 0 10 -4
10 -10z m2503 -98 c-7 -16 -9 -14 -17 23 -7 28 -6 29 7 10 8 -10 12 -25 10
-33z m-2281 -268 c-9 -16 -10 -14 -9 8 1 15 6 23 11 18 4 -4 4 -16 -2 -26z
m3084 16 c0 -12 -4 -16 -9 -11 -5 5 -6 14 -3 20 10 15 12 14 12 -9z m-3023
-77 c-3 -7 -6 -13 -8 -13 -2 0 -5 6 -8 13 -3 8 1 14 8 14 7 0 11 -6 8 -14z
m31 -7 c-3 -9 -10 -16 -15 -16 -5 0 -4 9 3 20 14 22 21 20 12 -4z m2915 -9 c8
-11 6 -18 -10 -33 -22 -19 -22 -19 -12 1 6 11 8 26 6 33 -6 16 2 15 16 -1z
m-2878 -64 c13 -16 12 -17 -3 -4 -17 13 -22 21 -14 21 2 0 10 -8 17 -17z m184
-157 c7 3 15 1 19 -4 3 -5 -5 -8 -16 -7 -12 1 -23 7 -24 14 -1 6 0 7 2 2 3 -6
11 -8 19 -5z m2469 -5 c-8 -8 -43 -8 -38 0 2 4 13 7 24 6 10 -1 17 -3 14 -6z
m-2384 -71 c0 -5 -2 -10 -4 -10 -3 0 -8 5 -11 10 -3 6 -1 10 4 10 6 0 11 -4
11 -10z m25 1 c3 -5 2 -12 -3 -15 -5 -3 -9 1 -9 9 0 17 3 19 12 6z m2269 -3
c-2 -3 -13 -6 -24 -5 -24 2 -18 13 9 13 11 0 18 -4 15 -8z m-274 -158 c13 -9
13 -10 0 -10 -8 0 -22 5 -30 10 -13 9 -13 10 0 10 8 0 22 -5 30 -10z m-1733
-6 c-3 -3 -12 -4 -19 -1 -8 3 -5 6 6 6 11 1 17 -2 13 -5z"/>
<path d="M3220 2611 c0 -5 7 -15 17 -22 15 -13 15 -12 4 9 -12 23 -21 28 -21
13z"/>
<path d="M3063 2433 c-15 -5 -17 -23 -4 -23 5 0 11 7 15 15 3 8 4 15 3 14 -1
0 -8 -3 -14 -6z"/>
<path d="M855 3630 c-3 -5 -2 -10 4 -10 5 0 13 5 16 10 3 6 2 10 -4 10 -5 0
-13 -4 -16 -10z"/>
</g>
</svg>
