<svg id="svg" version="1.1" xmlns="http://www.w3.org/2000/svg" xmlns:xlink="http://www.w3.org/1999/xlink" width="400" height="400" viewBox="0, 0, 400,400"><g id="svgg"><path id="path0" d="M0.000 200.000 L 0.000 400.000 200.000 400.000 L 400.000 400.000 400.000 200.000 L 400.000 0.000 200.000 0.000 L 0.000 0.000 0.000 200.000 M76.923 151.629 C 78.505 151.865,80.070 152.196,80.400 152.364 C 80.730 152.533,82.080 152.991,83.400 153.382 C 87.215 154.512,89.354 155.299,90.000 155.810 C 90.330 156.071,91.500 156.711,92.600 157.232 C 93.700 157.754,95.191 158.680,95.914 159.290 C 96.637 159.901,97.460 160.400,97.744 160.400 C 98.027 160.400,99.686 161.763,101.430 163.428 C 106.288 168.068,105.877 167.917,109.080 166.243 C 115.407 162.936,125.418 162.689,127.981 165.777 C 128.265 166.120,128.715 166.400,128.979 166.400 C 129.244 166.400,129.822 166.805,130.264 167.300 C 134.726 172.300,134.729 178.758,130.274 187.382 C 129.149 189.559,123.014 195.599,120.700 196.807 L 118.800 197.799 118.786 200.199 C 118.769 203.086,118.140 209.507,117.630 212.000 C 116.645 216.821,111.499 228.800,110.413 228.800 C 110.236 228.800,109.773 229.475,109.385 230.300 C 108.491 232.199,99.375 241.290,97.447 242.204 C 96.651 242.582,96.000 243.057,96.000 243.260 C 96.000 243.751,86.687 248.198,84.400 248.799 C 83.410 249.059,82.060 249.504,81.400 249.788 C 76.908 251.718,59.920 251.726,55.400 249.799 C 54.740 249.518,53.210 248.981,52.000 248.605 C 48.012 247.367,38.702 242.276,37.581 240.719 C 37.461 240.552,36.541 239.827,35.537 239.108 C 31.756 236.399,24.643 226.974,22.776 222.200 C 22.260 220.880,21.604 219.516,21.319 219.169 C 21.033 218.821,20.800 218.335,20.800 218.087 C 20.800 217.840,20.187 217.346,19.437 216.991 C 17.549 216.095,17.049 214.669,17.374 211.107 C 17.519 209.508,17.776 205.320,17.945 201.800 C 18.114 198.280,18.458 194.590,18.709 193.600 C 18.960 192.610,19.543 190.097,20.004 188.015 C 20.465 185.934,20.998 184.044,21.187 183.815 C 21.377 183.587,22.002 182.151,22.577 180.624 C 23.151 179.096,24.067 177.263,24.611 176.550 C 25.155 175.837,25.600 175.159,25.600 175.044 C 25.600 174.437,29.538 169.241,31.582 167.151 C 32.362 166.354,33.243 165.454,33.540 165.151 C 35.209 163.448,37.005 161.960,39.072 160.568 C 40.352 159.706,41.490 158.889,41.600 158.754 C 41.710 158.618,42.610 158.102,43.600 157.607 C 44.590 157.112,45.670 156.474,46.000 156.190 C 46.330 155.906,48.310 155.109,50.400 154.419 C 52.490 153.728,54.740 152.972,55.400 152.737 C 59.419 151.307,70.827 150.720,76.923 151.629 M63.000 157.845 C 60.346 158.124,55.631 159.226,55.384 159.626 C 55.257 159.831,54.818 160.000,54.408 160.000 C 53.267 160.000,47.471 162.553,45.911 163.742 C 45.149 164.324,44.343 164.800,44.121 164.800 C 43.228 164.800,32.804 174.879,32.796 175.750 C 32.794 175.997,32.174 176.978,31.419 177.928 C 30.663 178.878,29.734 180.498,29.355 181.528 C 28.975 182.558,28.436 183.672,28.156 184.005 C 27.574 184.698,25.163 193.049,24.895 195.300 C 24.627 197.548,25.888 197.307,27.384 194.825 C 28.635 192.751,29.662 191.213,30.861 189.623 C 33.085 186.671,38.883 181.174,40.800 180.199 C 43.043 179.058,44.518 177.706,45.419 175.963 C 49.418 168.230,58.295 167.335,58.677 174.627 C 58.899 178.866,59.062 179.502,60.001 179.800 C 61.246 180.195,64.337 184.267,64.803 186.127 C 65.034 187.047,65.532 188.340,65.910 189.000 C 66.490 190.015,66.602 191.410,66.633 198.035 C 66.668 205.508,66.709 205.909,67.535 206.735 C 68.560 207.760,68.589 207.764,69.495 207.026 C 72.011 204.977,73.985 203.514,75.200 202.801 C 75.970 202.349,77.590 201.166,78.800 200.171 C 80.010 199.177,82.215 197.552,83.700 196.562 C 85.185 195.572,86.400 194.594,86.400 194.389 C 86.400 194.184,87.120 193.649,88.000 193.200 C 88.880 192.751,89.600 192.219,89.600 192.017 C 89.600 191.816,90.318 191.248,91.196 190.754 C 92.845 189.827,92.953 189.645,93.392 187.054 C 94.270 181.866,97.294 175.487,99.916 173.293 L 101.000 172.386 98.200 169.750 C 95.550 167.256,94.557 166.489,90.647 163.917 C 88.497 162.503,85.449 161.078,83.200 160.436 C 82.210 160.153,81.040 159.729,80.600 159.493 C 78.407 158.315,67.896 157.331,63.000 157.845 M169.733 184.584 C 170.357 184.761,171.432 185.422,172.122 186.053 C 172.813 186.684,173.525 187.200,173.703 187.200 C 173.882 187.200,174.388 188.038,174.827 189.063 C 176.946 194.006,175.889 200.555,172.617 202.752 C 171.838 203.275,171.200 203.871,171.200 204.077 C 171.200 204.704,173.096 208.638,173.687 209.237 C 173.992 209.547,174.669 210.700,175.192 211.800 C 175.716 212.900,176.595 214.401,177.147 215.136 C 178.767 217.294,178.119 217.776,173.417 217.915 C 171.079 217.984,169.313 217.860,169.006 217.605 C 168.237 216.967,164.000 208.172,164.000 207.214 C 164.000 206.460,162.057 205.545,160.728 205.673 L 159.400 205.800 159.200 211.516 C 159.043 216.003,158.871 217.313,158.400 217.610 C 157.389 218.247,152.293 218.080,151.289 217.377 L 150.400 216.755 150.400 200.644 C 150.400 191.783,150.526 184.407,150.681 184.252 C 151.057 183.876,168.295 184.176,169.733 184.584 M206.157 184.633 C 206.625 185.853,206.418 190.287,205.871 190.741 C 205.546 191.011,202.736 191.222,198.571 191.290 L 191.800 191.400 191.800 194.000 L 191.800 196.600 197.373 196.712 C 204.110 196.847,204.069 196.823,203.916 200.562 L 203.800 203.400 198.600 203.498 C 191.100 203.639,191.543 203.407,191.683 207.112 L 191.800 210.200 199.200 210.400 L 206.600 210.600 206.716 213.655 C 206.890 218.244,207.548 218.000,194.994 218.000 C 184.547 218.000,184.439 217.991,183.823 217.111 C 183.185 216.200,182.834 186.219,183.443 184.633 C 183.811 183.673,205.789 183.673,206.157 184.633 M237.515 187.700 L 237.400 191.400 233.200 191.600 L 229.000 191.800 228.894 204.366 C 228.772 218.928,229.050 218.000,224.800 218.000 C 220.550 218.000,220.828 218.928,220.706 204.366 L 220.600 191.800 216.622 191.685 C 211.345 191.531,211.115 191.250,211.854 185.856 L 212.109 184.000 224.869 184.000 L 237.630 184.000 237.515 187.700 M264.716 187.500 L 264.600 191.000 257.700 191.109 L 250.800 191.219 250.800 193.999 L 250.800 196.779 256.700 196.889 L 262.600 197.000 262.719 199.961 C 262.868 203.686,262.753 203.793,258.694 203.680 C 256.882 203.629,254.365 203.698,253.100 203.833 L 250.800 204.079 250.800 207.230 L 250.800 210.382 258.300 210.491 L 265.800 210.600 265.920 213.600 C 266.102 218.172,266.576 218.000,253.784 218.000 C 244.747 218.000,243.168 217.911,242.629 217.371 C 241.985 216.728,241.626 186.241,242.243 184.633 C 242.456 184.077,243.839 184.000,253.658 184.000 L 264.831 184.000 264.716 187.500 M279.170 186.208 C 279.855 187.422,280.727 188.742,281.108 189.142 C 281.489 189.541,282.474 190.843,283.298 192.034 C 284.121 193.225,285.417 195.100,286.177 196.200 C 286.937 197.300,288.147 199.183,288.865 200.384 C 290.606 203.296,290.709 202.855,290.760 192.300 L 290.800 184.000 294.400 184.000 L 298.000 184.000 298.000 200.520 C 298.000 219.065,298.191 218.000,294.874 218.000 C 292.467 218.000,290.779 216.635,288.575 212.907 C 288.024 211.975,287.112 210.715,286.547 210.107 C 285.982 209.498,285.256 208.492,284.935 207.872 C 284.613 207.251,283.506 205.659,282.475 204.333 C 281.444 203.007,280.182 201.293,279.671 200.524 C 278.364 198.558,278.360 198.577,278.164 208.063 C 277.940 218.849,278.257 218.000,274.453 218.000 C 270.058 218.000,270.400 219.475,270.400 200.520 L 270.400 184.000 274.162 184.000 L 277.924 184.000 279.170 186.208 M328.478 187.000 C 328.902 191.268,328.564 191.600,323.791 191.600 L 320.000 191.600 320.000 204.171 C 320.000 215.067,319.916 216.827,319.371 217.371 C 318.607 218.136,313.779 218.246,312.219 217.536 L 311.200 217.072 311.200 204.336 L 311.200 191.600 307.633 191.600 C 302.695 191.600,302.800 191.674,302.800 188.190 C 302.800 183.556,301.481 183.973,315.745 184.094 L 328.200 184.200 328.478 187.000 M341.906 197.100 L 342.011 210.000 347.706 210.005 C 355.600 210.013,355.200 209.820,355.200 213.618 C 355.200 218.240,355.809 218.000,344.051 218.000 C 336.891 218.000,334.027 217.867,333.680 217.520 C 333.150 216.990,332.956 184.778,333.480 184.254 C 333.634 184.100,335.569 184.025,337.780 184.087 L 341.800 184.200 341.906 197.100 M362.614 185.373 C 362.930 186.128,363.371 186.858,363.594 186.996 C 363.817 187.134,364.000 187.510,364.000 187.832 C 364.000 188.153,364.709 189.898,365.576 191.708 C 366.443 193.519,367.435 195.701,367.780 196.557 L 368.407 198.114 369.186 197.216 C 369.614 196.722,370.174 195.661,370.428 194.859 C 370.683 194.057,371.381 192.410,371.979 191.200 C 372.577 189.990,373.410 188.010,373.830 186.800 C 374.816 183.958,374.705 184.013,379.500 184.006 C 383.243 184.001,383.600 184.065,383.600 184.749 C 383.600 185.619,382.138 189.068,381.638 189.377 C 381.451 189.492,380.882 190.624,380.374 191.893 C 379.866 193.162,379.334 194.290,379.193 194.400 C 379.052 194.510,378.438 195.680,377.828 197.000 C 377.219 198.320,376.380 200.030,375.965 200.800 C 373.325 205.692,373.158 206.305,372.977 211.767 C 372.769 218.023,372.786 218.000,368.404 218.000 C 364.373 218.000,364.404 218.046,364.381 212.020 C 364.365 207.868,364.230 206.758,363.601 205.600 C 363.182 204.830,362.202 202.850,361.424 201.200 C 360.645 199.550,359.831 197.930,359.615 197.600 C 358.459 195.835,353.600 185.505,353.600 184.812 C 353.600 184.047,353.846 184.000,357.820 184.000 L 362.041 184.000 362.614 185.373 M39.266 187.616 C 37.607 188.628,32.400 193.866,32.400 194.524 C 32.400 194.791,31.762 195.727,30.982 196.604 C 29.653 198.099,29.574 198.339,29.733 200.400 C 29.977 203.561,29.335 206.993,27.979 209.772 C 26.458 212.888,26.494 214.183,28.200 217.827 C 28.970 219.472,29.600 220.932,29.600 221.071 C 29.600 221.210,30.020 221.881,30.534 222.562 C 31.047 223.243,31.953 224.636,32.547 225.658 C 36.035 231.659,46.668 239.558,54.262 241.788 C 55.548 242.166,57.230 242.727,58.000 243.036 C 62.252 244.738,73.642 244.492,79.525 242.572 C 81.162 242.037,82.696 241.600,82.933 241.600 C 83.550 241.600,92.121 237.217,92.600 236.657 C 92.820 236.399,93.502 235.868,94.115 235.476 C 95.903 234.331,101.570 228.745,102.502 227.208 C 102.972 226.434,103.593 225.655,103.882 225.478 C 104.171 225.301,104.685 224.493,105.023 223.683 C 105.361 222.874,105.972 221.848,106.379 221.405 C 106.787 220.962,107.710 218.800,108.430 216.600 C 109.150 214.400,109.960 212.060,110.229 211.400 C 110.828 209.933,111.773 201.804,111.413 201.221 C 111.263 200.978,109.669 200.800,107.654 200.800 C 103.994 200.800,99.740 199.732,98.777 198.572 C 98.140 197.805,97.676 197.851,96.656 198.782 C 95.266 200.051,92.342 202.141,90.259 203.352 C 89.192 203.973,88.010 204.778,87.632 205.141 C 86.768 205.971,83.442 208.330,81.600 209.418 C 80.830 209.873,79.306 210.930,78.213 211.766 C 77.120 212.602,75.815 213.442,75.313 213.633 C 74.811 213.824,74.400 214.141,74.400 214.337 C 74.400 214.533,73.706 215.153,72.859 215.714 C 71.410 216.673,71.301 216.886,71.052 219.267 C 70.765 222.006,70.013 224.547,69.267 225.293 C 69.010 225.550,68.800 225.966,68.800 226.218 C 68.800 227.245,65.524 231.648,63.919 232.776 C 62.974 233.442,61.967 234.184,61.681 234.426 C 60.343 235.562,55.858 235.982,53.726 235.172 C 46.005 232.236,46.649 215.763,54.755 208.841 C 59.344 204.922,58.924 205.941,58.699 199.270 C 58.490 193.113,58.127 191.458,56.502 189.271 C 55.049 187.314,54.543 187.290,52.812 189.091 C 47.798 194.310,41.600 193.718,41.600 188.020 C 41.600 186.581,41.105 186.495,39.266 187.616 M159.391 191.279 C 159.268 191.601,159.219 193.469,159.283 195.432 L 159.400 199.000 161.000 199.130 C 165.135 199.467,167.600 197.932,167.600 195.022 C 167.600 194.165,166.297 191.280,165.867 191.185 C 163.830 190.738,159.575 190.800,159.391 191.279 " stroke="none" fill="#fbfbfb" fill-rule="evenodd"></path><path id="path1" d="M63.464 152.060 C 61.080 152.256,58.614 152.683,57.984 153.008 C 57.355 153.334,56.514 153.600,56.115 153.600 C 54.928 153.600,49.320 155.495,47.082 156.653 C 45.937 157.245,44.415 158.007,43.700 158.348 C 42.985 158.688,42.400 159.092,42.400 159.245 C 42.400 159.398,41.412 160.081,40.205 160.762 C 37.539 162.267,31.211 168.255,29.506 170.886 C 28.823 171.939,28.149 172.800,28.006 172.800 C 27.864 172.800,27.323 173.565,26.804 174.500 C 26.285 175.435,25.477 176.740,25.010 177.400 C 24.542 178.060,23.922 179.320,23.632 180.200 C 23.342 181.080,22.673 182.700,22.146 183.800 C 21.271 185.625,20.450 189.271,19.156 197.080 C 18.876 198.771,18.786 201.219,18.937 203.011 C 19.097 204.905,19.034 206.363,18.770 206.856 C 18.536 207.293,18.242 209.234,18.117 211.170 C 17.866 215.046,18.038 215.426,20.692 216.855 C 21.499 217.290,22.074 218.030,22.402 219.055 C 23.482 222.434,27.118 229.075,28.243 229.720 C 28.549 229.896,28.800 230.218,28.800 230.437 C 28.800 231.039,33.953 236.826,35.786 238.282 C 36.674 238.987,37.734 239.861,38.142 240.224 C 38.791 240.801,41.628 242.853,42.941 243.694 C 44.779 244.872,52.242 248.006,54.200 248.422 C 55.520 248.702,57.058 249.158,57.618 249.434 C 60.753 250.980,75.240 250.975,79.569 249.426 C 82.274 248.459,83.858 248.000,84.491 248.000 C 84.841 248.000,85.998 247.563,87.063 247.030 C 88.128 246.496,90.395 245.403,92.100 244.602 C 93.805 243.800,95.200 243.016,95.200 242.858 C 95.200 242.701,95.785 242.231,96.500 241.814 C 99.124 240.282,101.252 238.367,106.738 232.600 C 107.366 231.940,108.364 230.545,108.957 229.500 C 109.549 228.455,110.182 227.600,110.362 227.600 C 110.543 227.600,111.174 226.565,111.765 225.300 C 112.356 224.035,113.154 222.460,113.538 221.800 C 114.187 220.685,114.747 219.070,115.688 215.600 C 115.897 214.830,116.256 213.660,116.487 213.000 C 117.183 211.012,117.945 204.833,117.973 200.948 L 118.000 197.295 120.232 196.166 C 124.646 193.933,129.502 187.998,131.842 181.976 C 134.583 174.922,131.430 167.296,124.829 165.013 C 121.576 163.888,113.377 164.463,111.922 165.918 C 111.657 166.183,111.237 166.400,110.988 166.400 C 110.739 166.400,109.650 166.849,108.568 167.398 C 105.734 168.836,106.045 168.960,101.325 164.489 C 98.513 161.826,94.447 158.951,91.800 157.755 C 90.920 157.357,89.930 156.828,89.600 156.580 C 88.780 155.963,85.031 154.581,82.600 153.999 C 81.500 153.736,79.960 153.284,79.178 152.994 C 78.395 152.705,76.235 152.356,74.378 152.219 C 72.520 152.082,70.280 151.910,69.400 151.837 C 68.520 151.763,65.849 151.864,63.464 152.060 M75.700 157.438 C 77.735 157.788,80.120 158.345,81.000 158.675 C 81.880 159.005,83.514 159.599,84.631 159.994 C 89.347 161.664,94.476 165.049,99.225 169.624 C 101.999 172.296,101.988 172.251,100.300 174.107 C 96.845 177.906,95.433 180.938,94.748 186.033 C 94.248 189.743,94.130 189.901,89.530 193.015 C 88.061 194.009,86.801 194.963,86.730 195.134 C 86.658 195.306,85.610 196.105,84.400 196.909 C 83.190 197.714,81.570 198.927,80.800 199.605 C 80.030 200.282,78.230 201.623,76.800 202.584 C 75.370 203.545,73.764 204.797,73.230 205.366 C 72.697 205.935,72.053 206.400,71.800 206.400 C 71.547 206.400,70.917 206.850,70.400 207.400 C 69.186 208.692,68.203 208.664,66.838 207.299 L 65.737 206.199 65.920 199.530 C 66.066 194.202,65.977 192.473,65.479 190.930 C 65.136 189.869,64.632 188.190,64.359 187.200 C 63.746 184.979,61.186 181.504,59.306 180.342 C 57.913 179.481,57.903 179.455,58.132 177.239 C 59.080 168.047,50.569 168.355,45.132 177.709 C 44.304 179.134,43.584 179.767,41.932 180.525 C 38.531 182.084,30.608 190.301,28.938 194.000 C 28.074 195.914,26.283 197.600,25.115 197.600 L 23.897 197.600 24.181 194.718 C 24.337 193.132,24.720 191.341,25.032 190.737 C 25.345 190.134,25.600 189.328,25.600 188.946 C 25.600 188.014,27.179 183.550,27.774 182.800 C 28.036 182.470,28.587 181.390,28.999 180.400 C 29.411 179.410,30.052 178.240,30.425 177.800 C 30.797 177.360,31.586 176.219,32.178 175.265 C 35.285 170.257,44.481 162.780,50.200 160.610 C 51.740 160.026,53.540 159.303,54.200 159.004 C 58.584 157.017,68.898 156.266,75.700 157.438 M118.573 174.268 C 125.339 177.494,119.102 189.766,110.230 190.682 C 103.053 191.422,100.228 185.411,104.693 178.900 C 105.485 177.745,106.339 176.800,106.592 176.800 C 106.844 176.800,107.549 176.279,108.159 175.642 C 109.133 174.627,110.208 174.175,113.400 173.442 C 114.643 173.157,117.049 173.541,118.573 174.268 M53.079 176.200 C 54.240 177.013,54.607 178.893,53.878 180.289 C 53.559 180.900,53.068 181.890,52.787 182.489 C 51.097 186.095,47.161 187.788,46.064 185.381 C 44.127 181.129,49.701 173.834,53.079 176.200 M151.383 184.901 C 151.277 185.176,151.238 192.421,151.295 201.001 L 151.400 216.600 154.889 216.715 L 158.378 216.831 158.489 210.915 L 158.600 205.000 160.486 204.879 C 162.871 204.725,163.908 205.282,164.680 207.130 C 165.017 207.936,166.172 210.442,167.247 212.698 L 169.201 216.800 173.000 216.800 C 176.772 216.800,177.854 216.314,176.300 215.320 C 176.025 215.144,175.291 214.010,174.668 212.800 C 174.046 211.590,172.849 209.340,172.008 207.800 C 170.128 204.354,170.043 203.456,171.518 202.585 C 175.789 200.062,176.463 190.680,172.600 187.541 C 169.297 184.857,167.190 184.407,157.887 184.403 C 153.198 184.401,151.525 184.529,151.383 184.901 M184.613 184.780 C 184.463 185.021,184.322 204.462,184.390 215.307 L 184.400 216.813 195.100 216.707 L 205.800 216.600 205.800 214.000 L 205.800 211.400 198.829 211.290 C 190.401 211.158,190.735 211.345,190.885 206.839 L 191.000 203.400 197.000 203.200 L 203.000 203.000 203.000 200.400 L 203.000 197.800 197.217 197.689 C 190.582 197.561,190.815 197.696,190.806 193.949 C 190.798 190.383,190.677 190.439,198.629 190.310 L 205.400 190.200 205.408 187.800 C 205.413 186.480,205.252 185.170,205.050 184.889 C 204.635 184.311,184.967 184.205,184.613 184.780 M213.006 184.790 C 212.532 185.557,212.442 189.978,212.894 190.258 C 213.157 190.421,214.965 190.542,216.910 190.527 C 221.934 190.489,221.636 189.589,221.506 204.440 L 221.400 216.600 224.700 216.716 L 228.000 216.832 228.000 204.030 C 228.000 189.065,227.557 190.262,233.031 190.451 C 237.003 190.588,237.086 190.521,236.887 187.335 C 236.747 185.097,236.640 184.847,235.733 184.619 C 234.336 184.268,213.230 184.427,213.006 184.790 M243.261 184.762 C 242.910 184.979,242.817 189.067,242.895 200.827 L 243.000 216.600 253.800 216.600 L 264.600 216.600 264.600 214.000 L 264.600 211.400 257.829 211.290 C 249.626 211.157,249.935 211.335,250.085 206.839 L 250.200 203.400 256.118 203.289 L 262.036 203.178 261.918 200.489 L 261.800 197.800 256.000 197.600 L 250.200 197.400 250.200 194.000 L 250.200 190.600 257.174 190.400 L 264.149 190.200 264.042 187.610 C 263.984 186.186,263.846 184.874,263.735 184.695 C 263.488 184.295,243.914 184.358,243.261 184.762 M271.497 184.636 C 271.334 184.800,271.200 192.111,271.200 200.883 L 271.200 216.834 274.300 216.717 C 276.715 216.626,277.409 216.467,277.439 216.000 C 277.461 215.670,277.506 211.200,277.539 206.067 C 277.603 196.301,277.751 195.609,279.219 198.227 C 279.581 198.872,281.090 201.020,282.573 203.000 C 284.056 204.980,285.618 207.275,286.043 208.100 C 286.468 208.925,286.988 209.600,287.198 209.600 C 287.408 209.600,287.865 210.153,288.215 210.828 C 288.564 211.504,289.668 213.132,290.667 214.446 L 292.485 216.836 294.928 216.718 L 297.371 216.600 297.285 200.861 C 297.186 182.671,297.535 184.600,294.338 184.600 L 291.800 184.600 291.582 194.200 C 291.462 199.480,291.327 203.849,291.282 203.909 C 291.044 204.227,289.257 202.644,288.784 201.697 C 288.483 201.094,287.900 200.215,287.489 199.743 C 287.078 199.272,285.990 197.722,285.071 196.298 C 281.963 191.485,281.082 190.201,280.720 189.964 C 280.522 189.834,279.692 188.579,278.875 187.174 L 277.390 184.620 274.592 184.480 C 273.053 184.402,271.661 184.473,271.497 184.636 M304.100 184.665 C 303.768 184.799,303.600 185.794,303.600 187.633 C 303.600 189.564,303.751 190.409,304.100 190.429 C 304.375 190.445,305.873 190.435,307.428 190.405 C 308.984 190.376,310.737 190.571,311.323 190.838 L 312.389 191.323 312.494 203.962 L 312.600 216.600 315.800 216.600 L 319.000 216.600 319.106 204.034 C 319.229 189.364,318.926 190.335,323.368 190.404 C 325.146 190.432,326.825 190.442,327.100 190.427 C 327.908 190.383,327.783 184.956,326.967 184.643 C 326.213 184.353,304.821 184.374,304.100 184.665 M334.495 184.719 C 334.100 184.980,334.013 188.479,334.095 200.827 L 334.200 216.600 344.300 216.707 L 354.400 216.814 354.400 213.807 L 354.400 210.800 348.024 210.800 C 343.939 210.800,341.552 210.647,341.384 210.373 C 341.239 210.139,341.142 204.405,341.170 197.631 C 341.209 188.077,341.106 185.225,340.710 184.914 C 340.077 184.417,335.183 184.263,334.495 184.719 M354.581 184.906 C 354.376 185.439,356.043 189.346,357.522 191.800 C 357.919 192.460,358.498 193.630,358.808 194.400 C 359.118 195.170,359.775 196.399,360.268 197.130 C 360.761 197.862,361.542 199.469,362.004 200.701 C 362.465 201.934,363.077 203.136,363.364 203.371 C 364.612 204.397,365.200 207.167,365.200 212.024 L 365.200 216.832 368.469 216.716 L 371.738 216.600 371.656 212.165 L 371.575 207.729 374.813 201.165 C 376.594 197.554,378.220 194.330,378.426 194.000 C 378.632 193.670,379.249 192.410,379.796 191.200 C 380.344 189.990,380.975 188.730,381.198 188.400 C 383.449 185.078,383.281 184.699,379.502 184.578 C 375.924 184.464,375.506 184.677,374.600 187.081 C 374.203 188.137,373.275 190.297,372.539 191.882 C 371.802 193.466,371.200 194.916,371.200 195.103 C 371.200 195.645,369.169 199.572,368.757 199.827 C 368.551 199.954,368.101 199.370,367.756 198.529 C 367.410 197.688,366.625 195.920,366.011 194.600 C 365.397 193.280,364.236 190.760,363.431 189.000 C 362.627 187.240,361.830 185.544,361.660 185.231 C 361.218 184.415,354.881 184.124,354.581 184.906 M42.416 187.982 C 42.908 192.810,48.772 193.130,52.287 188.522 C 55.992 183.665,59.555 189.475,59.586 200.424 C 59.602 206.093,59.723 205.801,56.149 208.735 C 47.278 216.019,46.420 232.194,54.775 234.640 C 56.735 235.214,60.258 234.752,61.000 233.823 C 61.220 233.548,61.962 233.032,62.649 232.677 C 65.840 231.029,69.925 223.687,70.308 218.912 C 70.480 216.769,70.674 216.242,71.496 215.676 C 72.037 215.304,73.158 214.415,73.988 213.700 C 74.818 212.985,75.681 212.400,75.906 212.400 C 76.132 212.400,76.740 211.953,77.258 211.407 C 77.776 210.861,78.339 210.411,78.510 210.407 C 78.867 210.399,82.900 207.669,83.200 207.232 C 83.310 207.072,84.165 206.516,85.100 205.997 C 86.035 205.477,86.800 204.921,86.800 204.761 C 86.800 204.600,87.962 203.819,89.382 203.025 C 90.803 202.230,92.078 201.398,92.216 201.174 C 92.354 200.950,93.217 200.296,94.134 199.720 C 95.050 199.144,96.035 198.341,96.323 197.936 C 96.983 197.006,98.024 196.999,99.246 197.916 C 101.287 199.448,102.567 199.758,107.147 199.831 C 110.500 199.885,111.784 200.048,112.037 200.452 C 112.614 201.373,111.560 211.533,110.778 212.600 C 110.616 212.820,109.918 214.710,109.225 216.800 C 108.533 218.890,107.434 221.349,106.783 222.265 C 106.133 223.181,105.600 224.100,105.600 224.307 C 105.600 224.514,105.195 225.125,104.700 225.665 C 104.205 226.205,103.169 227.555,102.398 228.664 C 100.414 231.520,93.576 237.290,90.083 239.057 C 88.478 239.869,87.076 240.677,86.967 240.854 C 86.857 241.031,85.310 241.636,83.527 242.199 C 81.745 242.762,80.087 243.352,79.843 243.511 C 77.929 244.756,64.304 245.231,59.400 244.224 C 56.210 243.569,49.698 241.339,48.800 240.594 C 48.470 240.321,46.895 239.428,45.300 238.610 C 43.705 237.792,42.400 236.966,42.400 236.774 C 42.400 236.583,41.968 236.195,41.439 235.913 C 40.504 235.413,36.647 231.817,34.169 229.133 C 32.752 227.599,28.800 221.561,28.800 220.931 C 28.800 220.698,28.471 220.079,28.069 219.554 C 27.667 219.029,26.928 217.307,26.428 215.727 L 25.517 212.855 26.946 209.998 C 28.610 206.673,29.369 203.082,28.990 200.327 C 28.719 198.358,29.026 197.500,30.653 195.673 C 30.983 195.303,31.755 194.217,32.368 193.260 C 34.241 190.339,40.504 185.346,41.800 185.741 C 42.020 185.808,42.297 186.817,42.416 187.982 M166.800 191.177 C 167.678 191.796,167.814 192.219,167.911 194.641 C 168.086 198.972,166.470 200.208,161.000 199.924 L 158.600 199.800 158.488 195.124 L 158.375 190.447 160.088 190.324 C 163.083 190.107,165.769 190.449,166.800 191.177 M26.001 203.001 C 27.454 204.752,25.012 210.930,22.484 211.900 C 21.325 212.345,20.298 210.437,20.484 208.188 C 20.807 204.302,24.330 200.988,26.001 203.001 M62.515 213.604 C 66.190 216.496,64.665 223.876,59.799 226.748 C 57.819 227.916,56.942 227.822,55.396 226.276 C 50.608 221.488,57.329 209.525,62.515 213.604 " stroke="none" fill="#404c9c" fill-rule="evenodd"></path><path id="path2" d="M113.400 173.442 C 110.208 174.175,109.133 174.627,108.159 175.642 C 107.549 176.279,106.844 176.800,106.592 176.800 C 106.339 176.800,105.485 177.745,104.693 178.900 C 100.228 185.411,103.053 191.422,110.230 190.682 C 115.225 190.166,120.069 185.899,121.151 181.062 C 122.227 176.255,118.236 172.332,113.400 173.442 M50.200 176.167 C 46.807 177.681,44.513 183.071,46.223 185.511 C 47.676 187.586,51.147 185.988,52.787 182.489 C 53.068 181.890,53.559 180.900,53.878 180.289 C 55.353 177.466,53.056 174.892,50.200 176.167 M23.200 202.917 C 20.725 204.946,19.638 209.282,21.133 211.162 C 22.101 212.381,22.697 212.149,24.615 209.808 C 27.666 206.085,26.465 200.241,23.200 202.917 M58.800 213.128 C 54.063 215.275,52.075 222.955,55.396 226.276 C 57.479 228.359,59.921 227.628,62.599 224.120 C 66.577 218.910,63.796 210.864,58.800 213.128 " stroke="none" fill="#aaa04b" fill-rule="evenodd"></path><path id="path3" d="M60.400 151.611 C 59.611 151.783,60.659 151.824,62.800 151.704 C 64.890 151.587,66.675 151.426,66.767 151.346 C 67.070 151.081,61.827 151.299,60.400 151.611 M70.033 151.346 C 70.125 151.426,71.910 151.590,74.000 151.711 C 76.585 151.860,77.288 151.821,76.200 151.588 C 74.631 151.253,69.705 151.059,70.033 151.346 M55.800 152.569 C 55.140 152.854,52.748 153.681,50.485 154.406 C 48.222 155.131,46.274 155.880,46.157 156.070 C 46.039 156.260,45.011 156.885,43.872 157.460 C 42.732 158.035,41.710 158.616,41.600 158.752 C 41.490 158.889,40.352 159.706,39.072 160.568 C 37.005 161.960,35.209 163.448,33.540 165.151 C 33.243 165.454,32.362 166.354,31.582 167.151 C 29.538 169.241,25.600 174.437,25.600 175.044 C 25.600 175.159,25.155 175.837,24.611 176.550 C 24.067 177.263,23.181 179.006,22.642 180.424 C 22.102 181.841,21.395 183.540,21.069 184.200 C 20.744 184.860,20.372 186.030,20.243 186.800 C 20.011 188.192,20.012 188.193,20.424 187.000 C 20.651 186.340,21.175 185.080,21.588 184.200 C 22.001 183.320,22.733 181.610,23.214 180.400 C 25.754 174.019,35.177 162.735,39.951 160.359 C 40.528 160.071,41.360 159.534,41.800 159.165 C 43.789 157.497,51.572 154.133,55.162 153.391 C 57.371 152.934,59.275 152.029,58.000 152.041 C 57.450 152.047,56.460 152.284,55.800 152.569 M80.200 152.795 C 81.300 153.204,83.730 154.019,85.600 154.607 C 87.470 155.194,89.399 155.928,89.886 156.238 C 91.157 157.044,91.481 156.932,90.354 156.075 C 89.350 155.312,87.381 154.553,83.400 153.395 C 82.080 153.011,80.829 152.540,80.620 152.349 C 80.411 152.157,79.781 152.012,79.220 152.026 C 78.447 152.046,78.685 152.232,80.200 152.795 M91.600 157.022 C 91.600 157.145,92.396 157.597,93.368 158.027 C 94.341 158.457,95.196 158.957,95.268 159.138 C 95.341 159.318,96.390 160.098,97.600 160.870 C 98.810 161.643,101.150 163.563,102.799 165.137 C 104.449 166.712,105.948 168.000,106.131 168.000 C 106.765 168.000,112.451 165.118,112.237 164.904 C 112.119 164.786,110.748 165.359,109.191 166.177 C 105.862 167.926,106.303 168.083,101.430 163.428 C 99.686 161.763,98.035 160.400,97.760 160.400 C 97.486 160.400,96.697 159.925,96.008 159.345 C 94.368 157.966,91.600 156.507,91.600 157.022 M62.600 157.450 C 58.500 157.891,51.791 160.000,54.487 160.000 C 54.853 160.000,55.257 159.831,55.384 159.626 C 56.769 157.385,76.077 157.220,80.400 159.411 C 80.950 159.690,82.210 160.150,83.200 160.434 C 85.453 161.080,88.501 162.506,90.647 163.917 C 94.557 166.489,95.550 167.256,98.200 169.750 L 101.000 172.386 99.916 173.293 C 98.678 174.329,95.837 178.370,96.136 178.670 C 96.246 178.779,96.543 178.479,96.798 178.004 C 97.052 177.528,97.517 176.838,97.831 176.470 C 101.852 171.750,101.617 172.608,99.500 170.385 C 90.482 160.915,76.371 155.968,62.600 157.450 M51.200 160.503 C 50.650 160.749,49.390 161.315,48.400 161.759 C 47.410 162.204,46.356 162.806,46.058 163.097 C 45.760 163.388,44.825 163.979,43.980 164.410 C 43.134 164.842,42.298 165.425,42.121 165.707 C 41.945 165.989,41.260 166.559,40.600 166.975 C 39.289 167.801,35.215 171.641,35.206 172.060 C 35.203 172.203,34.615 172.940,33.900 173.698 C 32.222 175.476,31.112 177.184,29.544 180.400 C 28.846 181.830,28.041 183.277,27.753 183.615 C 26.984 184.519,24.229 194.633,24.927 193.989 C 25.052 193.873,25.716 191.715,26.402 189.194 C 27.087 186.673,27.877 184.338,28.156 184.005 C 28.436 183.672,28.975 182.558,29.355 181.528 C 29.734 180.498,30.663 178.878,31.419 177.928 C 32.174 176.978,32.794 175.997,32.796 175.750 C 32.803 174.917,43.219 164.800,44.068 164.800 C 44.261 164.800,45.289 164.202,46.353 163.470 C 47.416 162.739,49.392 161.727,50.743 161.221 C 52.094 160.716,53.200 160.234,53.200 160.151 C 53.200 159.875,52.213 160.048,51.200 160.503 M117.700 163.894 C 118.745 163.976,120.455 163.976,121.500 163.894 C 122.545 163.812,121.690 163.744,119.600 163.744 C 117.510 163.744,116.655 163.812,117.700 163.894 M113.400 164.400 L 112.600 164.744 113.400 164.744 C 113.840 164.744,114.560 164.589,115.000 164.400 L 115.800 164.056 115.000 164.056 C 114.560 164.056,113.840 164.211,113.400 164.400 M124.400 164.400 C 124.730 164.613,125.270 164.788,125.600 164.788 C 126.133 164.788,126.133 164.745,125.600 164.400 C 125.270 164.187,124.730 164.012,124.400 164.012 C 123.867 164.012,123.867 164.055,124.400 164.400 M127.331 165.700 C 127.907 166.195,128.925 167.020,129.594 167.534 C 132.605 169.849,134.565 179.195,132.477 181.283 C 132.214 181.546,132.000 182.005,132.000 182.305 C 132.000 185.300,124.930 193.980,120.513 196.408 L 118.600 197.459 118.576 200.630 L 118.552 203.800 118.690 200.792 L 118.829 197.783 120.715 196.799 C 123.016 195.598,129.152 189.553,130.274 187.382 C 134.729 178.758,134.726 172.300,130.264 167.300 C 129.822 166.805,129.250 166.400,128.992 166.400 C 128.735 166.400,128.198 166.040,127.800 165.600 C 127.402 165.160,126.898 164.800,126.680 164.800 C 126.462 164.800,126.755 165.205,127.331 165.700 M51.112 170.421 C 49.193 171.434,46.309 174.242,45.419 175.963 C 44.518 177.706,43.043 179.058,40.800 180.199 C 38.883 181.174,33.085 186.671,30.861 189.623 C 29.662 191.213,28.635 192.751,27.384 194.825 C 25.973 197.167,24.830 197.458,24.740 195.500 C 24.682 194.242,24.675 194.237,24.510 195.334 C 24.054 198.380,26.195 197.827,28.200 194.380 C 28.860 193.245,30.075 191.515,30.900 190.534 C 31.725 189.554,32.400 188.623,32.400 188.465 C 32.400 187.557,39.062 181.594,41.533 180.290 C 43.537 179.232,44.563 178.227,45.640 176.265 C 46.956 173.867,50.057 171.196,52.508 170.349 C 53.881 169.874,54.256 169.628,53.600 169.631 C 53.050 169.633,51.930 169.989,51.112 170.421 M55.983 170.160 C 57.795 170.815,58.359 172.211,58.382 176.095 L 58.400 179.190 60.000 180.200 C 60.880 180.756,61.600 181.377,61.600 181.580 C 61.600 181.784,62.102 182.501,62.716 183.173 C 63.412 183.935,64.272 185.789,64.999 188.097 C 65.684 190.271,66.233 191.476,66.328 191.016 C 66.418 190.584,66.209 189.684,65.865 189.016 C 65.520 188.347,65.046 187.047,64.811 186.127 C 64.335 184.264,61.241 180.194,60.001 179.800 C 59.062 179.502,58.899 178.866,58.677 174.627 C 58.496 171.174,57.464 169.562,55.478 169.630 C 54.812 169.654,54.933 169.781,55.983 170.160 M94.629 182.229 C 94.481 182.815,94.451 183.384,94.561 183.494 C 94.671 183.604,94.881 183.215,95.029 182.629 C 95.176 182.042,95.206 181.473,95.096 181.363 C 94.986 181.253,94.776 181.642,94.629 182.229 M93.622 186.078 C 93.365 187.245,93.080 188.569,92.990 189.019 C 92.899 189.470,92.100 190.246,91.213 190.745 C 90.326 191.243,89.600 191.816,89.600 192.017 C 89.600 192.219,88.880 192.751,88.000 193.200 C 87.120 193.649,86.400 194.184,86.400 194.389 C 86.400 194.594,85.185 195.572,83.700 196.562 C 82.215 197.552,80.010 199.177,78.800 200.171 C 77.590 201.166,75.970 202.349,75.200 202.801 C 73.985 203.514,72.011 204.977,69.495 207.026 C 68.544 207.801,66.936 206.884,66.292 205.200 C 66.094 204.682,66.059 204.685,66.032 205.225 C 66.001 205.824,67.950 208.000,68.517 208.000 C 68.960 208.000,73.200 205.057,73.200 204.749 C 73.200 204.595,74.055 203.910,75.100 203.227 C 77.425 201.708,81.286 198.886,81.583 198.489 C 81.702 198.329,82.610 197.664,83.600 197.011 C 84.590 196.358,86.063 195.279,86.873 194.612 C 87.682 193.945,89.097 192.860,90.016 192.200 C 93.391 189.777,93.865 189.146,94.176 186.654 C 94.549 183.672,94.227 183.337,93.622 186.078 M150.667 184.267 C 150.520 184.413,150.400 191.783,150.400 200.644 L 150.400 216.755 151.289 217.377 C 152.293 218.080,157.389 218.247,158.400 217.610 C 158.871 217.313,159.043 216.003,159.200 211.516 L 159.400 205.800 160.728 205.673 C 162.014 205.549,164.000 206.453,164.000 207.160 C 164.000 207.764,165.240 210.493,165.429 210.305 C 166.110 209.623,163.540 205.625,162.267 205.386 C 159.026 204.778,159.012 204.800,158.902 210.400 C 158.760 217.665,159.022 217.200,155.072 217.200 C 153.029 217.200,151.576 217.016,151.280 216.720 C 150.591 216.031,150.591 185.169,151.280 184.480 C 151.567 184.193,151.594 184.000,151.347 184.000 C 151.119 184.000,150.813 184.120,150.667 184.267 M165.233 184.144 C 165.325 184.223,166.300 184.401,167.400 184.541 C 168.765 184.714,169.210 184.670,168.800 184.403 C 168.259 184.050,164.836 183.801,165.233 184.144 M183.443 184.633 C 182.834 186.219,183.185 216.200,183.823 217.111 C 184.439 217.991,184.547 218.000,194.994 218.000 C 207.548 218.000,206.890 218.244,206.716 213.655 L 206.600 210.600 199.200 210.400 L 191.800 210.200 191.683 207.112 C 191.543 203.407,191.100 203.639,198.600 203.498 L 203.800 203.400 203.916 200.562 C 204.069 196.823,204.110 196.847,197.373 196.712 L 191.800 196.600 191.800 194.000 L 191.800 191.400 198.571 191.290 C 202.736 191.222,205.546 191.011,205.871 190.741 C 206.418 190.287,206.625 185.853,206.157 184.633 C 205.613 183.214,205.344 184.144,205.679 186.283 C 205.876 187.539,205.984 189.024,205.919 189.583 L 205.800 190.600 198.600 190.800 L 191.400 191.000 191.400 194.000 L 191.400 197.000 197.295 197.111 C 204.014 197.237,203.774 197.086,203.525 201.027 L 203.400 203.000 198.200 203.098 C 190.704 203.239,191.200 202.965,191.200 206.965 C 191.200 211.079,190.600 210.800,199.450 210.800 L 206.434 210.800 206.317 213.900 L 206.200 217.000 195.427 217.107 C 189.501 217.165,184.499 217.059,184.311 216.871 C 183.732 216.292,183.923 184.696,184.507 184.326 C 184.860 184.101,184.814 184.011,184.343 184.006 C 183.981 184.003,183.576 184.285,183.443 184.633 M211.854 185.856 C 211.460 188.736,211.552 190.662,212.107 191.122 C 212.675 191.594,220.802 191.960,220.801 191.514 C 220.800 191.357,218.974 191.177,216.743 191.114 C 211.781 190.975,211.676 190.875,212.235 186.831 C 212.450 185.274,212.510 184.000,212.368 184.000 C 212.225 184.000,211.994 184.835,211.854 185.856 M236.400 184.292 C 236.730 184.417,237.132 184.718,237.294 184.960 C 237.475 185.231,237.590 185.132,237.594 184.700 C 237.598 184.230,237.305 184.010,236.700 184.032 C 236.099 184.053,235.999 184.139,236.400 184.292 M242.243 184.633 C 241.626 186.241,241.985 216.728,242.629 217.371 C 243.168 217.911,244.747 218.000,253.784 218.000 C 266.576 218.000,266.102 218.172,265.920 213.600 L 265.800 210.600 258.400 210.581 L 251.000 210.563 258.200 210.781 L 265.400 211.000 265.366 213.735 C 265.322 217.366,265.878 217.210,253.400 217.097 L 242.600 217.000 242.495 201.047 C 242.420 189.603,242.519 184.939,242.844 184.547 C 243.126 184.208,243.144 184.000,242.892 184.000 C 242.668 184.000,242.376 184.285,242.243 184.633 M263.877 184.316 C 264.140 184.483,264.421 185.695,264.502 187.010 L 264.649 189.400 264.724 186.700 C 264.790 184.364,264.706 184.001,264.100 184.006 C 263.628 184.010,263.555 184.111,263.877 184.316 M270.400 200.520 C 270.400 219.475,270.058 218.000,274.453 218.000 C 278.257 218.000,277.940 218.849,278.164 208.063 C 278.360 198.577,278.364 198.558,279.671 200.524 C 280.182 201.293,281.444 203.007,282.475 204.333 C 283.506 205.659,284.613 207.251,284.935 207.872 C 285.256 208.492,285.982 209.498,286.547 210.107 C 287.112 210.715,288.024 211.975,288.575 212.907 C 291.232 217.401,295.459 219.581,297.520 217.520 C 298.063 216.977,298.240 184.000,297.700 184.000 C 297.535 184.000,297.400 191.425,297.400 200.500 L 297.400 217.000 294.981 217.117 C 292.228 217.250,291.963 217.051,288.921 212.585 C 288.028 211.273,286.915 209.857,286.449 209.438 C 285.982 209.019,285.600 208.497,285.600 208.277 C 285.600 208.058,285.054 207.141,284.386 206.239 C 280.054 200.388,279.280 199.306,278.845 198.489 C 277.822 196.567,277.600 198.196,277.600 207.640 L 277.600 217.232 274.300 217.116 L 271.000 217.000 270.895 200.826 C 270.813 188.153,270.900 184.584,271.295 184.333 C 271.659 184.102,271.605 184.011,271.100 184.006 C 270.445 184.000,270.400 185.051,270.400 200.520 M277.738 184.731 C 278.102 185.134,278.400 185.577,278.400 185.717 C 278.400 185.857,278.949 186.743,279.620 187.686 C 280.291 188.629,281.443 190.308,282.179 191.417 C 282.916 192.527,283.807 193.674,284.159 193.966 C 284.512 194.259,284.804 194.701,284.808 194.949 C 284.812 195.197,285.796 196.750,286.995 198.400 C 288.193 200.050,289.458 201.805,289.806 202.300 C 291.065 204.094,291.200 203.274,291.200 193.833 C 291.200 186.714,291.320 184.418,291.700 184.265 C 291.999 184.144,291.918 184.050,291.500 184.032 C 290.856 184.003,290.797 184.664,290.760 192.300 C 290.709 202.855,290.606 203.296,288.865 200.384 C 288.147 199.183,286.937 197.300,286.177 196.200 C 285.417 195.100,284.121 193.225,283.298 192.034 C 282.474 190.843,281.489 189.541,281.108 189.142 C 280.727 188.742,279.855 187.422,279.170 186.208 C 278.484 184.994,277.733 184.000,277.500 184.000 C 277.267 184.000,277.374 184.329,277.738 184.731 M303.043 184.633 C 302.909 184.981,302.800 186.581,302.800 188.190 C 302.800 191.674,302.695 191.600,307.633 191.600 L 311.200 191.600 311.200 204.336 L 311.200 217.072 312.219 217.536 C 313.779 218.246,318.607 218.136,319.371 217.371 C 319.916 216.827,320.000 215.067,320.000 204.171 L 320.000 191.600 323.791 191.600 C 327.281 191.600,327.628 191.529,328.169 190.700 C 328.952 189.500,328.510 184.359,327.600 184.082 C 327.116 183.935,327.096 184.002,327.500 184.430 C 327.806 184.754,328.000 186.092,328.000 187.872 C 328.000 191.264,328.187 191.136,323.000 191.299 L 319.800 191.400 319.600 204.200 L 319.400 217.000 316.305 217.117 C 311.231 217.308,311.629 218.404,311.506 203.889 L 311.400 191.400 308.200 191.299 C 303.013 191.136,303.200 191.264,303.200 187.872 C 303.200 186.141,303.395 184.765,303.680 184.480 C 304.001 184.159,304.015 184.000,303.723 184.000 C 303.482 184.000,303.176 184.285,303.043 184.633 M333.467 184.267 C 332.951 184.782,333.158 216.998,333.680 217.520 C 334.486 218.326,353.754 218.189,354.571 217.371 C 355.229 216.714,355.527 210.401,354.900 210.399 C 354.735 210.399,354.600 211.884,354.600 213.699 L 354.600 217.000 344.200 217.000 L 333.800 217.000 333.695 201.047 C 333.620 189.603,333.719 184.939,334.044 184.547 C 334.494 184.005,333.979 183.755,333.467 184.267 M340.900 184.405 C 341.543 184.804,341.600 185.881,341.600 197.620 L 341.600 210.400 347.900 210.311 L 354.200 210.222 348.106 210.101 L 342.011 209.979 341.906 197.095 C 341.803 184.558,341.778 184.207,341.000 184.091 C 340.269 183.981,340.260 184.008,340.900 184.405 M353.617 184.900 C 353.626 185.395,353.978 186.430,354.400 187.200 C 355.322 188.885,355.467 188.477,354.566 186.733 C 354.217 186.059,354.020 185.168,354.128 184.753 C 354.236 184.339,354.162 184.000,353.963 184.000 C 353.763 184.000,353.608 184.405,353.617 184.900 M361.738 184.731 C 362.102 185.134,362.400 185.690,362.400 185.968 C 362.400 186.246,362.760 186.931,363.200 187.491 C 363.765 188.209,364.000 188.322,364.000 187.878 C 364.000 187.531,363.817 187.134,363.594 186.996 C 363.371 186.858,362.930 186.128,362.614 185.373 C 362.299 184.618,361.824 184.000,361.558 184.000 C 361.247 184.000,361.311 184.260,361.738 184.731 M374.965 184.306 C 374.726 184.468,374.431 184.960,374.310 185.400 C 374.190 185.840,373.950 186.545,373.777 186.966 C 373.567 187.481,373.607 187.643,373.901 187.461 C 374.142 187.312,374.451 186.676,374.590 186.047 C 374.728 185.419,375.237 184.713,375.720 184.479 C 376.271 184.213,376.375 184.046,376.000 184.033 C 375.670 184.022,375.204 184.144,374.965 184.306 M383.051 184.700 C 383.148 185.085,380.792 190.258,377.814 196.195 L 372.400 206.990 372.400 211.887 C 372.400 217.574,372.617 217.328,367.792 217.120 L 365.000 217.000 364.791 211.600 C 364.577 206.088,364.379 205.297,362.590 202.841 C 361.351 201.140,361.279 201.807,362.504 203.644 C 364.198 206.185,364.400 207.092,364.400 212.139 C 364.400 218.034,364.377 218.000,368.404 218.000 C 372.786 218.000,372.769 218.023,372.977 211.767 C 373.158 206.305,373.325 205.692,375.965 200.800 C 376.380 200.030,377.219 198.320,377.828 197.000 C 378.438 195.680,379.052 194.510,379.193 194.400 C 379.334 194.290,379.866 193.162,380.374 191.893 C 380.882 190.624,381.451 189.492,381.638 189.377 C 382.659 188.745,384.071 184.000,383.237 184.000 C 383.038 184.000,382.954 184.315,383.051 184.700 M172.088 186.595 C 174.777 188.809,175.411 190.470,175.371 195.200 C 175.348 197.997,175.409 198.352,175.715 197.200 C 176.675 193.580,175.101 188.078,172.638 186.448 C 171.847 185.925,171.200 185.340,171.200 185.148 C 171.200 184.957,170.909 184.800,170.554 184.800 C 170.187 184.800,170.851 185.576,172.088 186.595 M36.971 189.033 C 35.114 190.575,33.197 192.611,32.345 193.946 C 31.545 195.201,30.600 196.468,30.245 196.762 C 29.890 197.057,29.603 197.501,29.608 197.749 C 29.612 197.997,30.242 197.482,31.008 196.604 C 31.773 195.727,32.400 194.791,32.400 194.524 C 32.400 193.866,37.607 188.628,39.266 187.616 C 41.105 186.495,41.600 186.581,41.600 188.020 C 41.600 189.458,42.405 191.122,43.573 192.100 C 45.073 193.356,45.227 192.835,43.755 191.486 C 42.607 190.435,42.279 189.796,42.109 188.286 C 41.810 185.640,40.899 185.772,36.971 189.033 M52.059 189.180 C 50.924 190.291,49.749 191.200,49.447 191.200 C 49.145 191.200,48.674 191.470,48.400 191.800 C 48.126 192.130,47.519 192.421,47.051 192.446 C 46.499 192.476,46.419 192.552,46.824 192.661 C 47.730 192.906,51.086 190.911,52.758 189.134 C 54.776 186.989,56.466 187.836,57.866 191.696 C 58.226 192.688,58.346 192.796,58.370 192.145 C 58.413 190.917,55.965 187.424,54.961 187.280 C 54.395 187.199,53.449 187.819,52.059 189.180 M372.473 190.060 C 371.963 191.120,371.121 193.069,370.603 194.392 C 369.198 197.976,368.549 198.467,367.767 196.535 C 366.753 194.028,364.243 188.824,364.111 188.955 C 363.961 189.105,364.855 191.277,366.643 195.109 C 367.389 196.709,368.000 198.284,368.000 198.609 C 368.000 199.429,368.769 199.351,369.083 198.500 C 369.225 198.115,369.492 197.698,369.675 197.574 C 369.859 197.449,370.378 196.279,370.830 194.974 C 371.281 193.668,372.099 191.730,372.647 190.666 C 373.195 189.602,373.589 188.597,373.522 188.432 C 373.455 188.268,372.983 189.001,372.473 190.060 M19.476 189.610 C 19.330 190.155,19.227 191.050,19.246 191.600 C 19.271 192.318,19.384 192.157,19.649 191.027 C 20.055 189.295,19.900 188.025,19.476 189.610 M355.249 189.013 C 355.400 189.426,358.444 195.440,360.475 199.338 C 361.066 200.472,361.561 201.209,361.575 200.975 C 361.598 200.589,360.449 198.183,359.009 195.600 C 358.703 195.050,358.155 193.910,357.792 193.067 C 357.203 191.700,354.876 187.989,355.249 189.013 M264.164 190.396 C 263.953 190.607,260.815 190.829,257.190 190.890 L 250.600 191.000 250.600 194.000 L 250.600 197.000 256.400 197.200 L 262.200 197.400 262.317 200.289 L 262.435 203.178 256.517 203.289 L 250.600 203.400 250.573 207.000 L 250.546 210.600 250.688 207.337 L 250.831 204.075 253.116 203.832 C 254.372 203.698,256.882 203.629,258.694 203.680 C 262.753 203.793,262.868 203.686,262.719 199.961 L 262.600 197.000 256.700 196.889 L 250.800 196.779 250.800 193.989 L 250.800 191.200 257.576 191.200 C 261.944 191.200,264.446 191.048,264.616 190.773 C 264.973 190.196,264.641 189.919,264.164 190.396 M158.972 190.928 C 158.861 191.219,158.821 193.244,158.885 195.428 L 159.000 199.400 162.262 199.400 C 167.586 199.400,170.052 195.172,166.690 191.810 C 165.140 190.260,159.477 189.613,158.972 190.928 M236.969 190.791 C 236.761 190.999,234.793 191.221,232.596 191.284 L 228.600 191.400 228.400 204.200 L 228.200 217.000 225.062 217.118 C 223.093 217.191,221.715 217.061,221.362 216.769 C 220.678 216.201,220.607 216.847,221.280 217.520 C 221.965 218.205,227.768 218.161,228.345 217.466 C 228.644 217.107,228.823 212.824,228.894 204.366 L 229.000 191.800 232.996 191.684 C 236.555 191.581,238.141 191.208,237.547 190.613 C 237.437 190.503,237.177 190.583,236.969 190.791 M165.867 191.185 C 166.297 191.280,167.600 194.165,167.600 195.022 C 167.600 197.932,165.135 199.467,161.000 199.130 L 159.400 199.000 159.283 195.432 C 159.122 190.504,159.012 190.649,162.707 190.933 C 164.408 191.064,165.830 191.177,165.867 191.185 M18.601 194.100 C 18.440 194.595,18.146 198.060,17.947 201.800 C 17.747 205.540,17.482 209.829,17.357 211.331 C 17.076 214.694,17.600 216.119,19.437 216.991 C 20.187 217.346,20.800 217.840,20.800 218.087 C 20.800 218.335,21.033 218.821,21.319 219.169 C 21.604 219.516,22.260 220.880,22.776 222.200 C 24.643 226.974,31.756 236.399,35.537 239.108 C 36.541 239.827,37.461 240.552,37.581 240.719 C 38.705 242.280,48.030 247.377,52.000 248.600 C 53.210 248.973,54.710 249.531,55.332 249.839 C 55.955 250.148,56.855 250.393,57.332 250.384 C 58.504 250.363,56.185 249.334,53.200 248.551 C 50.550 247.855,42.421 243.993,41.651 243.063 C 41.349 242.698,40.895 242.400,40.641 242.400 C 40.020 242.400,34.042 237.379,32.385 235.466 C 31.655 234.622,30.574 233.415,29.984 232.783 C 28.675 231.382,24.000 224.604,24.000 224.107 C 24.000 223.911,23.640 223.005,23.200 222.094 C 22.760 221.184,22.400 220.262,22.400 220.047 C 22.400 219.199,20.550 216.850,19.705 216.625 C 18.035 216.181,17.482 214.722,17.761 211.501 C 17.900 209.906,18.181 205.720,18.386 202.200 C 18.591 198.680,18.878 195.215,19.025 194.500 C 19.328 193.018,19.040 192.747,18.601 194.100 M58.728 199.070 C 58.920 205.940,59.226 205.149,55.057 208.533 C 53.406 209.873,51.200 212.683,51.200 213.446 C 51.200 213.773,52.623 211.960,52.840 211.356 C 52.928 211.111,53.900 210.146,55.000 209.211 C 56.100 208.276,57.495 207.080,58.100 206.552 L 59.200 205.594 59.160 200.297 C 59.138 197.384,58.994 194.550,58.839 194.000 C 58.685 193.450,58.634 195.731,58.728 199.070 M66.555 198.200 C 66.556 201.060,66.620 202.178,66.697 200.683 C 66.774 199.189,66.774 196.849,66.696 195.483 C 66.618 194.118,66.555 195.340,66.555 198.200 M96.800 197.994 C 96.800 198.211,96.035 198.881,95.100 199.483 C 94.165 200.085,92.970 200.987,92.445 201.488 C 91.920 201.990,91.342 202.400,91.160 202.400 C 90.977 202.400,90.057 202.949,89.114 203.620 C 88.171 204.291,86.492 205.443,85.383 206.179 C 84.273 206.916,83.126 207.807,82.834 208.159 C 82.541 208.512,82.121 208.800,81.900 208.800 C 81.556 208.800,78.413 210.951,74.800 213.658 C 74.250 214.070,73.159 214.836,72.377 215.360 C 71.028 216.263,70.931 216.481,70.532 219.499 C 68.647 233.782,53.481 240.937,49.333 229.500 C 48.408 226.953,48.692 220.101,49.833 217.400 C 51.330 213.859,51.381 213.624,50.247 215.526 C 46.308 222.127,48.256 233.092,53.738 235.176 C 55.859 235.983,60.347 235.559,61.681 234.426 C 61.967 234.184,62.974 233.442,63.919 232.776 C 65.524 231.648,68.800 227.245,68.800 226.218 C 68.800 225.966,69.010 225.550,69.267 225.293 C 70.013 224.547,70.765 222.006,71.052 219.267 C 71.301 216.886,71.410 216.673,72.859 215.714 C 73.706 215.153,74.400 214.533,74.400 214.337 C 74.400 214.141,74.811 213.824,75.313 213.633 C 75.815 213.442,77.120 212.602,78.213 211.766 C 79.306 210.930,80.830 209.873,81.600 209.418 C 83.442 208.330,86.768 205.971,87.632 205.141 C 88.010 204.778,89.192 203.973,90.259 203.352 C 92.342 202.141,95.266 200.051,96.656 198.782 C 97.711 197.819,97.776 197.819,99.116 198.766 C 99.712 199.188,100.650 199.636,101.200 199.762 C 101.893 199.921,101.786 199.802,100.850 199.374 C 100.107 199.035,99.239 198.496,98.921 198.178 C 98.266 197.523,96.800 197.396,96.800 197.994 M103.114 200.472 C 103.491 200.621,105.454 200.756,107.476 200.772 C 109.585 200.788,111.264 200.979,111.413 201.221 C 111.810 201.863,110.802 210.044,110.163 211.361 C 109.422 212.891,109.442 213.604,110.197 212.526 C 110.928 211.483,112.099 204.362,111.926 202.014 L 111.800 200.301 107.114 200.251 C 104.537 200.223,102.737 200.322,103.114 200.472 M172.524 202.132 C 171.603 202.830,170.838 203.641,170.824 203.935 C 170.792 204.652,173.025 209.445,173.541 209.763 C 173.765 209.902,174.404 211.011,174.962 212.229 C 175.519 213.446,176.346 214.913,176.799 215.490 C 177.988 217.001,177.415 217.245,172.965 217.115 L 169.000 217.000 167.915 215.000 C 167.318 213.900,166.568 212.460,166.247 211.800 C 165.927 211.140,165.651 210.830,165.633 211.111 C 165.591 211.756,168.357 217.066,169.022 217.618 C 169.310 217.857,171.152 217.982,173.417 217.915 C 178.119 217.776,178.767 217.294,177.147 215.136 C 176.595 214.401,175.716 212.900,175.192 211.800 C 174.669 210.700,173.992 209.547,173.687 209.237 C 173.097 208.639,171.200 204.705,171.200 204.080 C 171.200 203.876,171.920 203.210,172.800 202.600 C 173.680 201.990,174.400 201.336,174.400 201.146 C 174.400 200.697,174.469 200.661,172.524 202.132 M29.040 205.640 C 28.893 206.557,28.852 207.385,28.947 207.480 C 29.042 207.576,29.246 206.910,29.400 206.000 C 29.554 205.090,29.596 204.262,29.493 204.160 C 29.390 204.057,29.187 204.723,29.040 205.640 M118.063 206.600 C 118.023 207.260,117.904 208.520,117.797 209.400 L 117.603 211.000 118.023 209.660 C 118.254 208.923,118.374 207.663,118.289 206.860 C 118.152 205.566,118.126 205.537,118.063 206.600 M28.101 208.622 C 27.827 208.920,27.242 210.078,26.802 211.195 L 26.001 213.228 26.837 215.714 C 27.615 218.029,28.342 219.391,28.641 219.093 C 28.710 219.023,28.330 218.074,27.796 216.983 C 26.555 214.448,26.552 212.625,27.786 210.187 C 28.833 208.119,28.909 207.746,28.101 208.622 M116.739 213.600 C 116.393 214.590,115.694 216.750,115.185 218.400 C 114.676 220.050,114.066 221.744,113.830 222.165 C 113.593 222.585,112.770 224.054,112.000 225.429 C 109.019 230.753,103.258 237.543,99.400 240.279 C 98.740 240.747,97.379 241.749,96.375 242.505 C 94.034 244.269,86.932 247.654,83.690 248.552 C 79.944 249.589,78.248 250.364,79.676 250.384 C 80.268 250.393,80.849 250.245,80.966 250.056 C 81.083 249.866,82.308 249.398,83.689 249.015 C 86.582 248.213,96.000 243.810,96.000 243.260 C 96.000 243.057,96.651 242.582,97.447 242.204 C 99.375 241.290,108.491 232.199,109.385 230.300 C 109.773 229.475,110.235 228.800,110.410 228.800 C 111.008 228.800,114.727 221.320,115.769 218.021 C 116.341 216.212,116.998 214.377,117.230 213.945 C 117.461 213.512,117.587 212.853,117.509 212.479 C 117.425 212.076,117.112 212.531,116.739 213.600 M107.877 218.277 C 107.064 220.747,107.308 220.991,108.215 218.615 C 108.600 217.607,108.823 216.690,108.710 216.577 C 108.597 216.464,108.222 217.229,107.877 218.277 M29.022 220.400 C 29.166 220.950,29.580 221.829,29.942 222.353 C 30.619 223.333,30.722 223.496,32.370 226.206 C 32.903 227.083,33.893 228.368,34.570 229.063 C 35.246 229.758,36.250 230.796,36.800 231.369 C 39.184 233.857,40.677 235.200,41.055 235.200 C 41.278 235.200,41.888 235.655,42.410 236.210 C 42.932 236.766,43.908 237.509,44.579 237.860 C 50.774 241.107,54.613 242.720,55.067 242.266 C 55.185 242.149,54.550 241.856,53.658 241.616 C 51.403 241.008,44.973 237.670,42.585 235.868 C 36.943 231.608,33.390 227.519,29.681 221.012 C 29.080 219.959,28.852 219.746,29.022 220.400 M106.279 221.512 C 105.923 221.907,105.355 222.888,105.019 223.693 C 104.683 224.497,104.171 225.301,103.882 225.478 C 103.593 225.655,102.972 226.434,102.502 227.208 C 101.570 228.745,95.903 234.331,94.115 235.476 C 93.502 235.868,92.820 236.399,92.600 236.655 C 92.380 236.911,90.220 238.128,87.800 239.359 C 85.380 240.590,83.602 241.597,83.850 241.598 C 86.842 241.609,102.800 229.846,102.800 227.630 C 102.800 227.435,103.430 226.522,104.200 225.600 C 104.970 224.678,105.600 223.705,105.600 223.438 C 105.600 223.170,105.978 222.545,106.440 222.049 C 106.902 221.553,107.201 221.068,107.104 220.971 C 107.008 220.874,106.636 221.118,106.279 221.512 M81.400 242.000 L 80.600 242.344 81.400 242.366 C 81.840 242.378,82.470 242.213,82.800 242.000 C 83.595 241.486,82.596 241.486,81.400 242.000 M57.203 243.177 C 60.215 244.402,67.253 244.981,72.500 244.435 C 76.701 243.998,80.725 242.991,80.233 242.500 C 80.115 242.381,79.249 242.572,78.309 242.923 C 74.028 244.524,61.005 244.554,57.943 242.970 C 57.336 242.657,56.516 242.410,56.120 242.422 C 55.724 242.434,56.211 242.774,57.203 243.177 M59.800 250.783 C 61.008 251.107,65.077 251.328,64.767 251.052 C 64.675 250.971,63.250 250.804,61.600 250.682 C 59.769 250.547,59.068 250.586,59.800 250.783 M73.800 250.800 L 72.200 251.086 74.000 251.096 C 74.990 251.101,76.340 250.968,77.000 250.800 L 78.200 250.495 76.800 250.504 C 76.030 250.509,74.680 250.642,73.800 250.800 " stroke="none" fill="#a9b1d4" fill-rule="evenodd"></path><path id="path4" d="M63.141 151.671 C 59.588 152.002,53.746 153.551,55.920 153.586 C 56.426 153.594,57.342 153.340,57.956 153.023 C 60.670 151.619,75.757 151.619,79.117 153.023 C 79.876 153.340,80.791 153.590,81.149 153.578 C 81.507 153.566,80.990 153.229,80.000 152.829 C 78.486 152.217,69.262 151.057,67.492 151.255 C 67.222 151.286,65.264 151.473,63.141 151.671 M52.800 154.000 C 52.005 154.514,53.004 154.514,54.200 154.000 L 55.000 153.656 54.200 153.634 C 53.760 153.622,53.130 153.787,52.800 154.000 M82.600 154.000 C 83.040 154.189,83.670 154.344,84.000 154.344 C 84.378 154.344,84.304 154.217,83.800 154.000 C 83.360 153.811,82.730 153.656,82.400 153.656 C 82.022 153.656,82.096 153.783,82.600 154.000 M45.800 156.852 C 44.040 157.751,42.228 158.828,41.774 159.244 C 41.320 159.660,40.796 160.000,40.611 160.000 C 38.727 160.000,28.445 170.670,25.965 175.200 C 25.543 175.970,24.906 177.050,24.550 177.600 L 23.902 178.600 24.757 177.600 C 25.227 177.050,26.088 175.745,26.669 174.700 C 27.251 173.655,27.848 172.800,27.996 172.800 C 28.144 172.800,28.823 171.939,29.506 170.886 C 31.211 168.255,37.539 162.267,40.205 160.762 C 41.412 160.081,42.400 159.378,42.400 159.201 C 42.400 159.023,42.895 158.681,43.500 158.439 C 45.212 157.756,49.847 155.229,49.400 155.222 C 49.180 155.219,47.560 155.953,45.800 156.852 M88.400 155.985 C 89.170 156.395,90.582 157.103,91.537 157.559 C 94.436 158.942,98.527 161.838,101.325 164.489 C 105.689 168.624,106.739 169.086,108.200 167.513 C 108.481 167.210,108.363 167.173,107.800 167.387 C 107.360 167.554,106.730 167.766,106.400 167.859 C 106.053 167.956,104.536 166.815,102.800 165.151 C 101.150 163.569,98.810 161.643,97.600 160.872 C 96.390 160.100,95.301 159.321,95.180 159.141 C 94.888 158.704,87.935 155.195,87.411 155.219 C 87.185 155.230,87.630 155.574,88.400 155.985 M62.400 157.153 C 61.630 157.289,64.230 157.400,68.177 157.400 C 72.125 157.400,74.825 157.286,74.177 157.147 C 72.671 156.824,64.238 156.828,62.400 157.153 M57.400 158.000 L 56.600 158.344 57.400 158.332 C 57.840 158.326,58.650 158.176,59.200 158.000 L 60.200 157.680 59.200 157.668 C 58.650 157.662,57.840 157.811,57.400 158.000 M77.000 158.000 C 78.692 158.431,80.144 158.431,78.800 158.000 C 78.250 157.824,77.350 157.683,76.800 157.687 C 75.902 157.694,75.922 157.726,77.000 158.000 M54.000 159.014 C 53.450 159.312,51.740 160.032,50.200 160.614 C 44.489 162.773,35.287 170.254,32.178 175.265 C 31.586 176.219,30.797 177.360,30.425 177.800 C 30.052 178.240,29.411 179.410,28.999 180.400 C 28.587 181.390,28.014 182.484,27.725 182.831 C 27.106 183.576,27.031 184.152,27.598 183.801 C 27.817 183.666,28.629 182.260,29.401 180.677 C 31.101 177.196,32.183 175.517,33.900 173.698 C 34.615 172.940,35.203 172.203,35.206 172.060 C 35.215 171.641,39.289 167.801,40.600 166.975 C 41.260 166.559,41.945 165.989,42.121 165.707 C 42.298 165.425,43.134 164.842,43.980 164.410 C 44.825 163.979,45.760 163.388,46.058 163.097 C 46.718 162.452,49.626 161.088,51.800 160.404 C 54.194 159.651,56.733 158.406,55.800 158.442 C 55.360 158.459,54.550 158.717,54.000 159.014 M80.800 158.966 C 82.558 159.905,84.005 160.144,82.400 159.231 C 81.630 158.792,80.730 158.433,80.400 158.433 C 80.067 158.432,80.245 158.670,80.800 158.966 M86.046 160.943 C 90.627 162.827,101.200 170.762,101.200 172.315 C 101.200 172.478,100.022 173.926,97.768 176.533 C 96.825 177.624,95.199 181.008,95.209 181.858 C 95.215 182.266,95.638 181.580,96.151 180.334 C 97.115 177.991,98.067 176.563,100.300 174.107 C 101.015 173.321,101.600 172.505,101.600 172.295 C 101.600 171.396,94.524 165.234,91.200 163.237 C 88.771 161.779,85.024 160.000,84.400 160.010 C 84.070 160.015,84.811 160.435,86.046 160.943 M113.918 164.614 C 111.977 165.145,109.772 166.400,110.780 166.400 C 111.086 166.400,111.621 166.160,111.969 165.866 C 113.954 164.187,122.818 163.909,125.861 165.430 C 126.867 165.933,127.447 166.066,127.332 165.767 C 126.727 164.190,118.161 163.453,113.918 164.614 M129.075 167.377 C 131.115 169.044,132.516 172.429,132.810 176.400 L 133.062 179.800 133.131 176.579 C 133.223 172.306,131.264 168.048,128.600 166.731 C 128.160 166.513,128.374 166.804,129.075 167.377 M52.445 170.385 C 50.019 171.206,47.075 173.801,45.398 176.598 C 44.739 177.697,43.525 179.032,42.700 179.565 C 40.903 180.726,40.951 181.062,42.784 180.148 C 43.534 179.774,44.549 178.716,45.149 177.682 C 49.237 170.641,56.539 168.083,57.944 173.200 C 58.155 173.970,58.344 174.279,58.364 173.887 C 58.520 170.803,55.860 169.229,52.445 170.385 M58.067 177.867 C 58.007 179.365,58.139 179.621,59.366 180.379 C 60.117 180.843,61.414 182.118,62.248 183.211 C 63.082 184.305,63.817 185.200,63.882 185.200 C 64.285 185.200,63.838 184.401,62.800 183.264 C 62.140 182.542,61.600 181.784,61.600 181.580 C 61.600 181.377,60.891 180.763,60.025 180.216 C 58.725 179.395,58.422 178.957,58.292 177.711 L 58.134 176.200 58.067 177.867 M23.046 180.646 C 22.638 181.632,22.390 182.524,22.495 182.628 C 22.599 182.732,23.000 181.993,23.385 180.985 C 24.296 178.599,24.011 178.314,23.046 180.646 M132.035 181.231 C 130.503 185.270,129.782 186.767,128.580 188.400 C 126.799 190.821,122.874 194.641,120.958 195.818 C 120.101 196.344,119.539 196.781,119.708 196.788 C 122.359 196.895,132.000 185.516,132.000 182.279 C 132.000 181.994,132.200 181.560,132.445 181.315 C 132.690 181.070,132.814 180.643,132.722 180.366 C 132.630 180.089,132.320 180.478,132.035 181.231 M38.675 182.111 C 36.516 183.936,32.400 188.120,32.400 188.488 C 32.400 188.658,31.796 189.473,31.058 190.299 C 29.441 192.107,28.252 194.144,29.335 193.251 C 29.701 192.949,30.000 192.521,30.000 192.300 C 30.000 191.918,31.086 190.530,34.082 187.084 C 34.807 186.250,36.625 184.495,38.123 183.184 C 39.620 181.873,40.700 180.805,40.523 180.811 C 40.345 180.816,39.514 181.401,38.675 182.111 M94.660 183.470 C 94.543 183.871,94.321 185.275,94.167 186.588 C 93.865 189.153,93.435 189.737,90.028 192.200 C 89.115 192.860,87.596 194.030,86.651 194.800 C 85.707 195.570,84.191 196.650,83.282 197.200 C 82.374 197.750,81.533 198.440,81.415 198.734 C 81.296 199.028,81.874 198.742,82.700 198.099 C 83.525 197.457,84.785 196.592,85.500 196.179 C 86.215 195.766,86.800 195.300,86.800 195.144 C 86.800 194.989,88.015 194.039,89.500 193.035 C 94.110 189.916,94.253 189.727,94.729 186.167 C 95.134 183.132,95.104 181.946,94.660 183.470 M21.636 184.091 C 19.748 187.114,16.931 209.494,18.778 206.800 C 19.030 206.432,19.091 204.992,18.935 203.076 C 18.786 201.247,18.878 198.759,19.157 197.076 C 20.468 189.163,21.264 185.474,21.856 184.570 C 22.215 184.023,22.432 183.499,22.339 183.406 C 22.246 183.313,21.930 183.621,21.636 184.091 M151.280 184.480 C 150.591 185.169,150.591 216.031,151.280 216.720 C 151.592 217.032,152.960 217.173,155.180 217.124 L 158.600 217.049 155.000 216.824 L 151.400 216.600 151.400 200.600 L 151.400 184.600 157.600 184.487 C 166.782 184.319,169.256 184.823,172.600 187.541 C 176.463 190.680,175.789 200.062,171.518 202.585 C 170.392 203.250,169.970 204.887,170.794 205.396 C 171.033 205.544,171.109 205.199,170.987 204.520 C 170.816 203.563,171.020 203.241,172.384 202.311 C 176.710 199.359,176.574 190.287,172.148 186.611 C 169.368 184.302,153.117 182.643,151.280 184.480 M184.507 184.322 C 183.923 184.697,183.733 216.293,184.311 216.871 C 184.499 217.059,189.501 217.165,195.427 217.107 L 206.200 217.000 206.317 213.900 L 206.434 210.800 199.450 210.800 C 195.608 210.800,192.181 210.691,191.833 210.557 C 191.090 210.272,190.888 203.821,191.610 203.463 C 191.836 203.351,191.791 203.306,191.510 203.362 C 190.754 203.514,190.579 210.119,191.315 210.729 C 191.660 211.016,194.398 211.220,198.829 211.290 L 205.800 211.400 205.800 214.000 L 205.800 216.600 195.125 216.706 L 184.449 216.813 184.325 215.306 C 184.256 214.478,184.290 207.230,184.400 199.200 L 184.600 184.600 194.538 184.483 C 202.216 184.392,204.619 184.483,205.103 184.883 C 205.627 185.315,205.697 185.301,205.532 184.800 C 205.312 184.133,185.501 183.683,184.507 184.322 M212.652 184.316 C 212.533 184.508,212.313 185.863,212.163 187.326 C 211.782 191.053,211.960 191.200,216.849 191.200 L 220.800 191.200 220.824 193.300 C 220.837 194.455,220.827 200.095,220.802 205.833 C 220.748 218.047,220.462 217.290,225.062 217.118 L 228.200 217.000 228.400 204.200 L 228.600 191.400 232.578 191.285 C 234.765 191.221,236.799 190.966,237.098 190.719 C 237.670 190.244,237.608 185.075,237.024 184.490 C 236.604 184.070,212.909 183.901,212.652 184.316 M242.844 184.547 C 242.519 184.939,242.420 189.603,242.495 201.047 L 242.600 217.000 253.400 217.097 C 265.878 217.210,265.322 217.366,265.366 213.735 L 265.400 211.000 258.000 210.777 C 253.930 210.654,250.542 210.519,250.472 210.477 C 250.401 210.435,250.401 208.797,250.472 206.837 C 250.542 204.877,250.465 203.358,250.300 203.460 C 249.751 203.802,249.954 210.264,250.529 210.741 C 250.854 211.011,253.664 211.222,257.829 211.290 L 264.600 211.400 264.600 214.000 L 264.600 216.600 253.800 216.600 L 243.000 216.600 242.895 200.827 C 242.817 189.067,242.910 184.979,243.261 184.762 C 243.914 184.358,263.488 184.295,263.735 184.695 C 263.846 184.874,263.984 186.186,264.042 187.610 L 264.149 190.200 257.174 190.400 L 250.200 190.600 250.200 194.000 L 250.200 197.400 256.000 197.600 L 261.800 197.800 262.039 200.600 L 262.278 203.400 262.239 200.400 L 262.200 197.400 256.400 197.200 L 250.600 197.000 250.600 194.000 L 250.600 191.000 257.190 190.890 C 260.960 190.827,263.954 190.606,264.187 190.373 C 264.725 189.835,264.447 184.682,263.859 184.306 C 262.948 183.723,243.342 183.947,242.844 184.547 M271.295 184.333 C 270.900 184.584,270.813 188.153,270.895 200.826 L 271.000 217.000 274.300 217.116 C 276.115 217.180,277.600 217.090,277.601 216.916 C 277.601 216.742,276.159 216.659,274.396 216.731 L 271.191 216.861 271.295 200.731 L 271.400 184.600 274.327 184.572 C 276.841 184.547,277.336 184.659,277.827 185.361 C 278.142 185.810,278.400 185.986,278.400 185.751 C 278.400 184.297,273.038 183.226,271.295 184.333 M291.700 184.257 C 291.320 184.416,291.200 186.719,291.200 193.833 C 291.200 203.274,291.065 204.094,289.806 202.300 C 289.458 201.805,288.260 200.140,287.144 198.600 C 286.027 197.060,285.012 195.530,284.889 195.200 C 284.766 194.870,284.200 194.025,283.633 193.323 C 283.065 192.621,281.970 191.121,281.200 189.989 C 279.069 186.858,278.216 185.898,279.255 187.800 C 279.736 188.680,280.341 189.580,280.599 189.800 C 281.076 190.207,282.074 191.657,285.071 196.298 C 285.990 197.722,287.078 199.272,287.489 199.743 C 287.900 200.215,288.483 201.094,288.784 201.697 C 289.257 202.644,291.044 204.227,291.282 203.909 C 291.327 203.849,291.462 199.480,291.582 194.200 L 291.800 184.600 294.200 184.590 C 295.520 184.584,296.854 184.764,297.165 184.990 C 297.593 185.300,297.682 185.254,297.533 184.800 C 297.335 184.195,292.842 183.776,291.700 184.257 M303.680 184.480 C 303.395 184.765,303.200 186.141,303.200 187.872 C 303.200 191.264,303.013 191.136,308.200 191.299 L 311.400 191.400 311.506 203.889 C 311.629 218.404,311.231 217.308,316.305 217.117 L 319.400 217.000 319.600 204.200 L 319.800 191.400 323.000 191.299 C 328.187 191.136,328.000 191.264,328.000 187.872 C 328.000 186.141,327.805 184.765,327.520 184.480 C 326.835 183.795,304.365 183.795,303.680 184.480 M334.044 184.547 C 333.719 184.939,333.620 189.603,333.695 201.047 L 333.800 217.000 344.200 217.000 L 354.600 217.000 354.600 213.800 L 354.600 210.600 348.100 210.490 L 341.600 210.380 341.600 197.604 C 341.600 182.851,341.965 184.000,337.275 184.000 C 335.415 184.000,334.348 184.181,334.044 184.547 M354.140 184.612 C 353.870 185.315,355.639 189.614,356.810 191.104 C 357.245 191.656,357.600 191.914,357.600 191.678 C 357.600 191.441,357.403 191.125,357.162 190.977 C 356.483 190.557,354.343 185.525,354.581 184.906 C 354.995 183.827,361.293 184.451,361.894 185.631 C 362.212 186.254,362.390 186.372,362.394 185.962 C 362.411 184.119,354.807 182.875,354.140 184.612 M375.700 184.488 C 375.205 184.727,374.800 185.093,374.800 185.301 C 374.800 185.731,374.054 187.499,372.367 191.066 C 371.725 192.422,371.206 193.772,371.213 194.066 C 371.228 194.746,372.876 191.412,374.271 187.875 C 375.560 184.607,375.794 184.460,379.502 184.578 C 383.281 184.699,383.449 185.078,381.198 188.400 C 380.975 188.730,380.344 189.990,379.796 191.200 C 379.249 192.410,378.632 193.670,378.426 194.000 C 378.220 194.330,376.594 197.554,374.813 201.165 L 371.575 207.729 371.656 212.165 L 371.738 216.600 368.481 216.716 L 365.224 216.832 365.094 211.916 L 364.964 207.000 364.982 212.000 L 365.000 217.000 367.792 217.120 C 372.616 217.328,372.400 217.573,372.400 211.895 L 372.400 207.005 377.847 196.113 C 380.981 189.847,383.194 184.962,383.060 184.611 C 382.777 183.874,377.168 183.780,375.700 184.488 M235.733 184.619 C 236.640 184.847,236.747 185.097,236.887 187.335 C 237.086 190.521,237.003 190.588,233.031 190.451 C 227.557 190.262,228.000 189.065,228.000 204.030 L 228.000 216.832 224.700 216.716 L 221.400 216.600 221.506 204.440 C 221.636 189.589,221.934 190.489,216.910 190.527 C 214.965 190.542,213.157 190.421,212.894 190.258 C 212.442 189.978,212.532 185.557,213.006 184.790 C 213.230 184.427,234.336 184.268,235.733 184.619 M326.967 184.643 C 327.783 184.956,327.908 190.383,327.100 190.427 C 326.825 190.442,325.146 190.432,323.368 190.404 C 318.926 190.335,319.229 189.364,319.106 204.034 L 319.000 216.600 315.800 216.600 L 312.600 216.600 312.494 203.962 L 312.389 191.323 311.323 190.838 C 310.737 190.571,308.984 190.376,307.428 190.405 C 305.873 190.435,304.375 190.445,304.100 190.429 C 303.751 190.409,303.600 189.564,303.600 187.633 C 303.600 185.794,303.768 184.799,304.100 184.665 C 304.821 184.374,326.213 184.353,326.967 184.643 M340.710 184.914 C 341.106 185.225,341.209 188.077,341.170 197.631 C 341.142 204.405,341.239 210.139,341.384 210.373 C 341.552 210.647,343.939 210.800,348.024 210.800 L 354.400 210.800 354.400 213.807 L 354.400 216.814 344.300 216.707 L 334.200 216.600 334.095 200.827 C 334.013 188.479,334.100 184.980,334.495 184.719 C 335.183 184.263,340.077 184.417,340.710 184.914 M40.131 186.245 C 38.157 187.217,33.605 191.332,32.368 193.260 C 31.755 194.217,30.983 195.303,30.653 195.673 C 29.026 197.500,28.719 198.358,28.990 200.327 C 29.296 202.550,28.619 206.971,27.771 208.286 C 27.008 209.469,27.048 209.809,27.854 209.003 C 28.771 208.086,29.627 203.616,29.504 200.386 C 29.414 198.024,29.520 197.540,30.314 196.693 C 30.817 196.157,31.807 194.806,32.514 193.690 C 34.049 191.269,39.748 186.400,41.047 186.400 C 41.795 186.400,41.981 186.659,42.122 187.900 C 42.273 189.223,42.288 189.191,42.247 187.631 C 42.193 185.589,41.879 185.383,40.131 186.245 M205.328 188.000 L 205.400 190.200 198.629 190.310 C 190.677 190.439,190.798 190.383,190.806 193.949 C 190.815 197.696,190.582 197.561,197.217 197.689 L 203.000 197.800 203.000 200.463 C 203.000 201.927,203.135 203.042,203.300 202.939 C 203.695 202.694,203.676 198.339,203.277 197.711 C 203.062 197.373,201.195 197.189,197.183 197.111 L 191.400 197.000 191.400 194.000 L 191.400 191.000 198.600 190.800 L 205.800 190.600 205.919 189.186 C 205.984 188.409,205.862 187.329,205.647 186.786 C 205.327 185.982,205.268 186.205,205.328 188.000 M54.129 186.655 C 53.870 186.761,52.992 187.692,52.178 188.724 L 50.699 190.600 52.358 188.873 C 56.223 184.850,59.156 189.843,59.186 200.497 C 59.202 206.256,59.711 205.193,55.007 209.215 C 52.875 211.038,52.608 211.407,50.980 214.800 C 49.409 218.072,48.795 219.956,48.844 221.350 C 48.881 222.411,48.941 222.329,49.239 220.805 C 50.152 216.142,52.848 211.409,56.085 208.786 C 59.733 205.829,59.602 206.142,59.586 200.456 C 59.566 193.386,58.776 190.344,56.274 187.700 C 55.010 186.365,54.933 186.327,54.129 186.655 M297.377 198.200 C 297.377 204.800,297.432 207.556,297.499 204.325 C 297.566 201.093,297.566 195.693,297.499 192.325 C 297.432 188.956,297.377 191.600,297.377 198.200 M25.849 187.415 C 25.712 187.773,25.616 188.456,25.636 188.933 C 25.662 189.547,25.785 189.408,26.059 188.456 C 26.457 187.072,26.294 186.258,25.849 187.415 M362.454 187.000 C 362.836 187.829,364.922 192.304,366.184 195.000 C 366.905 196.540,367.594 198.070,367.716 198.400 C 367.844 198.749,367.950 198.794,367.968 198.508 C 367.986 198.237,367.308 196.527,366.461 194.708 C 365.615 192.888,364.601 190.548,364.209 189.506 C 363.817 188.464,363.220 187.384,362.883 187.106 C 362.546 186.828,362.353 186.780,362.454 187.000 M64.822 188.851 C 64.810 189.209,65.092 190.199,65.448 191.051 C 65.986 192.338,66.066 193.751,65.919 199.400 L 65.742 206.200 66.840 207.300 C 68.202 208.664,69.186 208.692,70.400 207.400 C 70.917 206.850,71.513 206.400,71.725 206.400 C 71.937 206.400,72.878 205.725,73.816 204.900 C 74.754 204.075,76.707 202.590,78.155 201.600 C 79.603 200.610,80.791 199.656,80.794 199.481 C 80.797 199.305,79.983 199.755,78.983 200.481 C 77.984 201.206,76.336 202.376,75.320 203.079 C 74.304 203.783,73.366 204.531,73.236 204.741 C 72.920 205.254,68.911 208.000,68.479 208.000 C 66.694 208.000,66.263 206.187,66.361 199.092 C 66.447 192.948,66.367 191.958,65.650 190.190 C 65.207 189.095,64.834 188.493,64.822 188.851 M42.400 189.998 C 42.400 191.925,46.691 193.226,48.400 191.816 C 48.730 191.544,49.341 191.200,49.757 191.051 C 50.174 190.903,50.406 190.673,50.274 190.541 C 50.142 190.409,49.386 190.683,48.594 191.150 C 46.597 192.329,45.139 192.237,43.642 190.840 C 42.959 190.201,42.400 189.823,42.400 189.998 M24.894 190.954 C 24.319 192.216,23.796 197.601,24.248 197.597 C 24.442 197.595,24.625 196.510,24.656 195.185 C 24.687 193.861,24.936 192.237,25.210 191.576 C 25.805 190.140,25.520 189.580,24.894 190.954 M158.487 195.100 L 158.600 199.800 161.000 199.924 C 165.129 200.138,168.074 198.820,167.968 196.804 C 167.945 196.360,167.881 196.339,167.727 196.724 C 166.913 198.758,165.602 199.400,162.262 199.400 L 159.000 199.400 159.000 194.900 C 159.000 192.424,158.859 190.399,158.687 190.400 C 158.515 190.400,158.425 192.515,158.487 195.100 M166.534 191.700 C 167.230 192.415,167.871 192.833,167.957 192.629 C 168.124 192.234,166.193 190.400,165.612 190.400 C 165.423 190.400,165.838 190.985,166.534 191.700 M27.639 195.231 C 27.198 195.958,26.423 196.782,25.918 197.062 C 25.232 197.443,25.169 197.575,25.666 197.586 C 26.373 197.601,29.055 194.521,28.670 194.136 C 28.545 194.012,28.081 194.504,27.639 195.231 M358.419 194.446 C 358.409 194.801,358.738 195.522,359.152 196.048 C 359.881 196.975,360.998 199.267,361.989 201.871 C 362.510 203.240,364.000 204.854,364.000 204.049 C 364.000 203.788,363.739 203.475,363.419 203.352 C 363.100 203.230,362.625 202.470,362.365 201.665 C 361.939 200.347,361.264 198.973,359.119 195.046 C 358.720 194.316,358.430 194.068,358.419 194.446 M118.267 197.067 C 118.120 197.213,118.000 198.758,118.000 200.498 C 118.000 204.764,117.227 211.152,116.550 212.480 C 116.248 213.074,116.007 213.884,116.016 214.280 C 116.118 219.004,118.363 206.598,118.386 201.180 C 118.394 199.072,118.584 197.576,118.880 197.280 C 119.167 196.993,119.194 196.800,118.947 196.800 C 118.719 196.800,118.413 196.920,118.267 197.067 M277.600 197.390 C 277.600 197.752,277.771 197.942,277.980 197.812 C 278.189 197.683,278.578 197.988,278.845 198.489 C 279.280 199.306,280.054 200.388,284.386 206.239 C 285.054 207.141,285.607 208.041,285.616 208.239 C 285.625 208.438,286.370 209.410,287.271 210.400 C 288.765 212.042,288.850 212.086,288.244 210.900 C 287.878 210.185,287.408 209.600,287.198 209.600 C 286.988 209.600,286.468 208.925,286.043 208.100 C 285.618 207.275,284.056 204.980,282.573 203.000 C 281.090 201.020,279.581 198.872,279.219 198.227 C 278.461 196.875,277.600 196.430,277.600 197.390 M369.700 197.423 C 369.425 197.722,369.200 198.159,369.200 198.396 C 369.200 198.632,368.931 198.928,368.602 199.054 C 368.274 199.181,368.106 199.448,368.230 199.648 C 368.560 200.182,369.067 199.749,369.776 198.327 C 370.476 196.924,370.450 196.610,369.700 197.423 M96.323 197.932 C 96.035 198.335,95.260 199.002,94.600 199.414 C 92.974 200.431,90.687 202.400,91.132 202.400 C 91.329 202.400,91.920 201.990,92.445 201.488 C 92.970 200.987,94.165 200.085,95.100 199.483 C 96.035 198.881,96.800 198.211,96.800 197.994 C 96.800 197.399,98.264 197.521,98.913 198.170 C 100.339 199.596,102.560 200.140,107.326 200.230 C 109.925 200.279,111.959 200.225,111.845 200.111 C 111.731 199.997,109.604 199.871,107.119 199.831 C 102.569 199.758,101.284 199.445,99.246 197.916 C 98.025 197.000,96.984 197.006,96.323 197.932 M88.765 203.338 C 87.976 203.812,87.013 204.519,86.627 204.909 C 86.240 205.299,85.392 205.894,84.741 206.231 C 84.090 206.567,83.252 207.112,82.879 207.442 C 82.505 207.772,81.750 208.401,81.200 208.840 L 80.200 209.639 81.200 209.120 C 81.750 208.834,82.775 208.150,83.477 207.600 C 84.179 207.050,85.679 205.970,86.811 205.200 C 90.522 202.675,91.637 201.612,88.765 203.338 M158.667 205.067 C 158.520 205.213,158.437 207.868,158.483 210.967 L 158.565 216.600 158.783 211.000 L 159.000 205.400 160.423 205.280 C 163.040 205.061,163.694 205.607,165.176 209.255 C 165.923 211.095,166.698 212.815,166.898 213.079 C 167.098 213.342,167.653 214.332,168.131 215.279 L 169.000 217.000 172.965 217.115 C 177.415 217.245,177.988 217.001,176.799 215.490 C 176.346 214.913,175.517 213.488,174.958 212.321 C 173.877 210.066,172.000 207.231,172.000 207.854 C 172.000 208.059,172.614 209.180,173.364 210.345 C 174.115 211.510,174.959 213.034,175.241 213.731 C 175.523 214.429,175.989 215.144,176.277 215.320 C 177.881 216.300,176.775 216.800,173.002 216.800 L 169.203 216.800 167.002 212.185 C 165.791 209.647,164.800 207.389,164.800 207.167 C 164.800 205.542,159.877 203.856,158.667 205.067 M111.470 207.357 C 111.311 208.653,111.261 209.794,111.360 209.893 C 111.626 210.159,112.103 206.618,111.919 205.747 C 111.832 205.336,111.630 206.060,111.470 207.357 M17.857 209.100 C 17.126 213.519,18.090 216.846,20.082 216.784 C 20.367 216.775,20.107 216.501,19.505 216.174 C 18.115 215.420,17.829 214.240,18.140 210.554 C 18.408 207.390,18.262 206.646,17.857 209.100 M78.986 210.139 C 78.538 210.393,77.739 211.005,77.210 211.500 C 76.682 211.995,76.080 212.400,75.873 212.400 C 75.666 212.400,74.818 212.985,73.988 213.700 C 73.158 214.415,72.011 215.323,71.440 215.719 C 70.612 216.291,70.412 216.739,70.457 217.919 L 70.514 219.400 70.757 217.864 C 71.015 216.233,71.029 216.221,76.892 212.197 C 79.869 210.153,81.103 208.941,78.986 210.139 M26.204 211.452 C 25.527 213.073,26.481 217.607,27.834 219.201 C 28.115 219.531,28.521 220.265,28.736 220.831 C 29.299 222.313,33.512 228.688,34.326 229.291 C 34.704 229.571,35.340 230.311,35.739 230.935 C 36.138 231.559,36.558 231.976,36.672 231.861 C 36.910 231.623,36.306 230.812,34.640 229.134 C 33.437 227.923,31.200 224.616,31.200 224.048 C 31.200 223.870,30.847 223.404,30.415 223.014 C 29.983 222.623,29.421 221.650,29.164 220.852 C 28.908 220.053,28.467 219.130,28.184 218.800 C 26.847 217.243,25.958 213.275,26.601 211.737 C 26.936 210.934,27.129 210.195,27.029 210.095 C 26.929 209.995,26.558 210.606,26.204 211.452 M110.854 210.868 C 110.825 211.235,110.544 212.045,110.230 212.668 C 109.917 213.290,109.437 214.610,109.165 215.600 C 108.424 218.290,107.118 221.300,106.313 222.175 C 105.921 222.602,105.601 223.142,105.602 223.375 C 105.603 223.609,106.046 223.260,106.586 222.600 C 107.496 221.486,110.000 215.377,110.000 214.268 C 110.000 213.999,110.282 213.375,110.627 212.883 C 110.972 212.390,111.176 211.585,111.081 211.094 C 110.979 210.561,110.887 210.470,110.854 210.868 M289.668 213.752 C 290.181 214.543,290.747 215.192,290.927 215.195 C 291.299 215.201,289.782 212.959,289.149 212.569 C 288.922 212.428,289.155 212.960,289.668 213.752 M115.473 216.153 C 115.323 216.545,115.211 217.166,115.225 217.533 C 115.242 217.975,115.381 217.874,115.637 217.234 C 115.849 216.703,115.961 216.082,115.885 215.854 C 115.809 215.627,115.624 215.761,115.473 216.153 M291.762 216.300 C 292.529 217.206,296.859 217.672,297.339 216.900 C 297.442 216.735,296.450 216.662,295.135 216.737 C 293.257 216.845,292.558 216.716,291.872 216.137 L 291.000 215.400 291.762 216.300 M20.813 217.056 C 20.806 217.306,21.154 217.936,21.587 218.456 C 22.019 218.975,22.379 219.195,22.387 218.944 C 22.394 218.694,22.046 218.064,21.613 217.544 C 21.181 217.025,20.821 216.805,20.813 217.056 M69.996 221.100 C 69.994 221.485,69.527 222.790,68.958 224.000 C 67.692 226.693,67.172 228.000,67.368 228.000 C 67.450 228.000,68.079 226.833,68.767 225.408 C 70.008 222.833,70.729 220.400,70.250 220.400 C 70.112 220.400,69.998 220.715,69.996 221.100 M113.472 221.870 C 113.141 222.491,112.380 224.035,111.781 225.300 C 111.181 226.565,110.543 227.600,110.362 227.600 C 110.182 227.600,109.549 228.455,108.957 229.500 C 108.364 230.545,107.366 231.940,106.738 232.600 C 101.252 238.367,99.124 240.282,96.500 241.814 C 95.785 242.231,95.200 242.701,95.200 242.858 C 95.200 243.112,93.812 243.817,87.279 246.884 C 86.333 247.328,85.633 247.767,85.725 247.859 C 86.033 248.167,94.529 243.896,96.375 242.505 C 97.379 241.749,98.740 240.747,99.400 240.279 C 103.258 237.543,109.019 230.753,112.000 225.429 C 112.770 224.054,113.640 222.525,113.932 222.030 C 114.225 221.536,114.377 221.043,114.269 220.935 C 114.161 220.828,113.802 221.248,113.472 221.870 M24.000 223.976 C 24.000 224.572,28.498 231.192,29.984 232.783 C 30.574 233.415,31.655 234.622,32.385 235.466 C 33.906 237.222,39.998 242.400,40.544 242.400 C 40.744 242.400,40.391 241.995,39.758 241.500 C 39.126 241.005,38.337 240.367,38.004 240.082 C 37.672 239.797,36.674 238.987,35.786 238.282 C 33.953 236.826,28.800 231.039,28.800 230.437 C 28.800 230.218,28.549 229.896,28.241 229.720 C 27.934 229.544,27.264 228.680,26.752 227.800 C 25.190 225.116,24.000 223.462,24.000 223.976 M104.428 225.272 C 103.894 225.947,103.047 227.103,102.547 227.840 C 101.163 229.880,99.479 231.623,96.780 233.812 C 95.431 234.905,93.607 236.385,92.726 237.100 C 91.845 237.815,91.289 238.400,91.491 238.400 C 91.831 238.400,95.713 235.279,99.451 232.000 C 100.329 231.230,101.667 229.714,102.424 228.631 C 103.181 227.548,104.205 226.216,104.700 225.672 C 105.195 225.128,105.600 224.529,105.600 224.342 C 105.600 223.840,105.497 223.922,104.428 225.272 M48.868 227.400 C 48.862 227.840,49.011 228.560,49.200 229.000 C 49.638 230.019,49.638 228.968,49.200 227.600 C 48.943 226.796,48.877 226.757,48.868 227.400 M65.289 230.341 C 64.389 231.408,63.114 232.504,62.455 232.777 C 61.796 233.050,61.165 233.514,61.052 233.809 C 60.604 234.977,65.489 231.152,66.588 229.475 C 67.678 227.811,67.093 228.201,65.289 230.341 M49.635 230.304 C 50.371 232.502,53.757 235.276,55.560 235.158 C 55.912 235.135,55.480 234.895,54.600 234.624 C 53.459 234.273,52.494 233.512,51.235 231.971 C 50.264 230.783,49.544 230.033,49.635 230.304 M39.200 233.969 C 40.410 235.097,41.779 236.375,42.242 236.810 C 43.577 238.063,43.871 237.727,42.600 236.400 C 41.968 235.740,41.227 235.200,40.954 235.200 C 40.681 235.200,40.078 234.717,39.614 234.127 C 39.150 233.537,38.372 232.799,37.885 232.486 C 37.398 232.174,37.990 232.841,39.200 233.969 M58.200 234.800 C 57.111 235.077,57.093 235.107,58.000 235.125 C 58.550 235.135,59.360 234.989,59.800 234.800 C 60.786 234.376,59.866 234.376,58.200 234.800 M44.000 237.790 C 44.000 237.894,44.585 238.265,45.300 238.614 L 46.600 239.248 45.600 238.433 C 44.637 237.648,44.000 237.392,44.000 237.790 M87.600 239.866 C 86.170 240.646,84.100 241.554,83.000 241.886 C 79.369 242.981,77.235 243.972,78.476 243.987 C 79.068 243.994,79.650 243.842,79.770 243.649 C 79.889 243.456,81.511 242.823,83.374 242.242 C 85.237 241.661,86.867 241.014,86.997 240.804 C 87.127 240.595,88.036 240.068,89.017 239.634 C 89.997 239.200,90.800 238.745,90.800 238.622 C 90.800 238.214,90.218 238.440,87.600 239.866 M48.113 240.167 C 48.896 240.698,50.898 241.590,52.562 242.149 C 54.226 242.708,55.960 243.364,56.415 243.608 C 56.869 243.851,57.637 243.992,58.121 243.920 C 58.657 243.841,57.598 243.345,55.400 242.647 C 53.420 242.019,50.760 240.986,49.488 240.352 C 46.667 238.946,46.227 238.887,48.113 240.167 M46.469 245.785 C 48.377 246.743,50.357 247.640,50.869 247.778 C 51.381 247.916,49.950 247.123,47.688 246.015 C 45.427 244.907,43.447 244.010,43.288 244.022 C 43.130 244.034,44.561 244.828,46.469 245.785 M60.200 244.383 C 61.408 244.707,65.477 244.928,65.167 244.652 C 65.075 244.571,63.650 244.404,62.000 244.282 C 60.169 244.147,59.468 244.186,60.200 244.383 M72.600 244.400 L 70.600 244.674 72.600 244.690 C 73.700 244.698,75.140 244.568,75.800 244.400 L 77.000 244.095 75.800 244.110 C 75.140 244.119,73.700 244.249,72.600 244.400 M52.600 248.400 C 53.040 248.589,53.760 248.738,54.200 248.732 C 54.843 248.723,54.804 248.657,54.000 248.400 C 52.632 247.962,51.581 247.962,52.600 248.400 M82.800 248.400 C 82.005 248.914,83.004 248.914,84.200 248.400 L 85.000 248.056 84.200 248.034 C 83.760 248.022,83.130 248.187,82.800 248.400 M56.186 249.474 C 58.569 250.764,69.439 251.590,73.600 250.798 C 74.885 250.553,74.307 250.516,71.583 250.669 C 67.145 250.917,59.085 250.166,57.520 249.358 C 55.941 248.542,54.670 248.653,56.186 249.474 M79.868 249.250 C 79.466 249.484,78.296 249.817,77.268 249.991 L 75.400 250.306 77.000 250.331 C 77.880 250.344,79.410 250.015,80.400 249.600 C 81.439 249.164,81.862 248.840,81.400 248.835 C 80.960 248.829,80.271 249.016,79.868 249.250 " stroke="none" fill="#8c94c2" fill-rule="evenodd"></path></g></svg>