<?xml version="1.0" encoding="UTF-8" standalone="no"?>
<svg
   xmlns:dc="http://purl.org/dc/elements/1.1/"
   xmlns:cc="http://creativecommons.org/ns#"
   xmlns:rdf="http://www.w3.org/1999/02/22-rdf-syntax-ns#"
   xmlns:svg="http://www.w3.org/2000/svg"
   xmlns="http://www.w3.org/2000/svg"
   xmlns:sodipodi="http://sodipodi.sourceforge.net/DTD/sodipodi-0.dtd"
   xmlns:inkscape="http://www.inkscape.org/namespaces/inkscape"
   width="1000"
   height="222.52045"
   viewBox="0 0 1000 222.52045"
   version="1.1"
   id="svg21"
   sodipodi:docname="salesloft-on-light.svg"
   style="fill:none"
   inkscape:version="0.92.4 (5da689c313, 2019-01-14)">
  <metadata
     id="metadata25">
    <rdf:RDF>
      <cc:Work
         rdf:about="">
        <dc:format>image/svg+xml</dc:format>
        <dc:type
           rdf:resource="http://purl.org/dc/dcmitype/StillImage" />
        <dc:title></dc:title>
      </cc:Work>
    </rdf:RDF>
  </metadata>
  <sodipodi:namedview
     pagecolor="#ffffff"
     bordercolor="#111111"
     borderopacity="1"
     objecttolerance="10"
     gridtolerance="10"
     guidetolerance="10"
     inkscape:pageopacity="0"
     inkscape:pageshadow="2"
     inkscape:window-width="1920"
     inkscape:window-height="1017"
     id="namedview23"
     showgrid="false"
     fit-margin-top="0"
     fit-margin-left="0"
     fit-margin-right="0"
     fit-margin-bottom="0"
     inkscape:zoom="0.57465278"
     inkscape:cx="553.57256"
     inkscape:cy="-119.33632"
     inkscape:window-x="1912"
     inkscape:window-y="-8"
     inkscape:window-maximized="1"
     inkscape:current-layer="svg21" />
  <g
     clip-path="url(#clip0)"
     id="g14"
     transform="scale(6.9537641)">
    <path
       d="m 77.8023,19.0429 -2.4675,-1.4651 c -2.7759,-1.5422 -4.2409,-2.5446 -4.2409,-4.3952 0,-1.3879 1.2337,-2.4675 2.853,-2.4675 3.2385,0 4.7807,2.5446 5.1663,5.7061 h 0.5397 l 1.2338,-6.86268 c -1.0796,-0.46265 -2.776,-0.77109 -4.4723,-0.77109 -5.9374,0 -8.8675,3.16147 -8.8675,6.78557 0,3.0843 2.5446,4.7036 4.5494,5.7831 l 3.3928,1.9277 c 2.2361,1.1566 3.3156,2.3133 3.3156,4.0097 0,1.3108 -1.0024,2.853 -3.3156,2.853 -3.1615,0 -5.7061,-2.853 -6.7085,-6.9398 H 68.318 l -1.3109,1.7735 c -1.6964,2.0048 -3.6241,3.6241 -6.7084,3.6241 -4.7807,0 -7.0169,-3.547 -7.0169,-8.3277 h 11.7205 v -3.1615 c 0,-4.3951 -2.159,-8.25056 -7.4024,-8.25056 -6.1687,0 -9.1759,5.55176 -9.1759,11.79756 0,2.7759 0.694,5.0892 1.8506,6.9398 -0.7711,0.8482 -1.8506,1.7735 -3.3157,1.7735 -1.5421,0 -2.3132,-1.4651 -2.3132,-3.7012 V -0.00292969 C 44.4915,0.0741788 44.3373,0.151287 44.183,0.228396 42.4095,1.07659 40.7903,1.69346 39.0168,2.15611 c 0.0771,0.15421 0.1542,0.30843 0.1542,0.46265 0.7711,2.00482 0.8482,4.39518 0.8482,6.93976 V 24.7489 c 0,1.1566 0.1542,2.159 0.3855,3.0072 -0.6168,0.8482 -1.465,1.7735 -2.6217,1.7735 -1.465,0 -2.6216,-1.1566 -2.6216,-3.4699 v -8.8674 c 0,-3.8555 -0.7711,-8.40487 -7.1711,-8.40487 -5.6289,0 -7.9422,3.54697 -7.9422,7.01687 l 4.241,1.6193 c 0,0 -0.5398,-7.094 3.3156,-7.094 3.0844,0 3.0073,3.4699 3.0073,6.4771 v 1.0795 c 0,0.694 -1.6193,1.6193 -4.7037,2.7759 -2.6988,1.0795 -6.7855,2.4675 -6.7855,6.4 0,2.853 2.0819,4.935 5.1663,4.935 2.4674,0 4.8578,-1.388 6.4,-3.547 0.0771,1.0795 1.7735,3.547 4.3951,3.547 2.6988,0 4.5494,-1.6193 5.7061,-3.1615 1.0024,2.1591 2.7759,3.1615 4.8578,3.1615 2.2361,0 4.0096,-1.9277 5.1663,-3.6241 1.7735,2.2361 4.318,3.6241 7.2482,3.6241 3.6241,0 6.1686,-2.3904 7.6337,-4.7036 0.9253,1.2337 3.8554,4.7036 8.4819,4.7036 3.8554,0 7.5566,-2.5446 7.5566,-7.0169 0.0771,-3.3157 -2.159,-4.9349 -3.9325,-5.9373 z m -47.1132,8.3277 c -1.0024,0.7711 -2.2362,1.465 -3.547,1.465 -2.2362,0 -3.3157,-1.6192 -3.3157,-3.547 0,-2.5445 1.3109,-3.7012 5.3205,-3.7012 1.3879,0 1.5422,0.1542 1.5422,1.0024 z M 53.2818,18.426 c 0,-5.2434 1.2338,-8.0193 3.7012,-8.0193 2.0049,0 3.3928,2.0048 3.3928,6.5542 0,1.7735 -0.2313,2.0048 -1.6193,2.0048 h -5.3976 z"
       id="path2"
       inkscape:connector-curvature="0"
       style="fill:#06492e" />
    <path
       d="M 89.7539,24.7518 V 0 c -1.9277,0.925301 -3.7012,1.61928 -5.6289,2.15904 0.9253,2.00482 1.0024,4.6265 1.0024,7.3253 V 24.6747 c 0,2.3904 -0.1542,4.241 -1.0795,6.7084 h 7.3253 c 0.0771,0 -1.6193,-2.159 -1.6193,-6.6313 z"
       id="path4"
       inkscape:connector-curvature="0"
       style="fill:#06492e" />
    <path
       d="m 101.937,8.79346 c -5.4746,0 -9.1758,4.62654 -9.1758,11.72044 0,6.6314 3.3928,11.4892 8.7908,11.4892 5.474,0 9.176,-4.5494 9.176,-11.5663 0,-6.6313 -3.393,-11.64334 -8.791,-11.64334 z m 0.154,21.43614 c -3.0069,0 -4.3177,-5.3976 -4.3177,-11.1807 0,-5.4747 1.1566,-8.6362 3.5467,-8.6362 3.085,0 4.318,5.629 4.318,11.4121 0,5.6289 -1.233,8.4048 -3.547,8.4048 z"
       id="path6"
       inkscape:connector-curvature="0"
       style="fill:#06492e" />
    <path
       d="m 130.544,10.4108 h 6.323 V 9.17708 h -6.323 V 3.00841 c -1.542,1.00241 -3.161,1.77349 -4.858,2.39036 0.155,1.61928 0.155,2.62169 0.232,3.77831 h -7.634 c -0.617,-1.8506 -1.002,-3.39277 -1.002,-4.6265 0,-1.54217 0.539,-2.39036 1.773,-2.39036 1.234,0 2.468,1.54217 3.547,5.39759 h 0.54 l 1.311,-6.939762 c 0,0 -1.08,-0.6939757 -2.622,-0.6939757 -5.629,0 -7.865,4.3180677 -7.942,9.1759077 h -2.545 v 1.23372 h 2.545 v 0.2313 13.5711 c 0,2.3904 -0.077,4.6265 -1.08,7.2482 h 6.709 c -1.003,-2.5446 -1.08,-4.8578 -1.08,-7.2482 v -13.494 -0.2313 h 7.48 v 0.2313 15.2675 c 0,4.0096 1.619,6.0916 4.318,6.0916 3.161,0 5.397,-2.6217 5.397,-5.0892 -1.079,0.7711 -1.927,1.3109 -2.853,1.3109 -2.236,0 -2.236,-2.4675 -2.236,-3.4699 V 10.6421 Z"
       id="path8"
       inkscape:connector-curvature="0"
       style="fill:#06492e" />
    <path
       d="m 4.93494,8.01912 c 0,-2.00482 1.92771,-3.6241 4.39518,-3.6241 3.16148,0 5.08918,1.46506 6.16868,9.09878 h 0.694 L 17.1952,3.08418 C 10.0241,0.616709 1.23373,3.2384 1.07952,10.7179 c 0,8.0964 12.87708,8.0964 12.87708,15.4988 0,2.159 -1.9277,3.6241 -4.08672,3.6241 -5.70602,0 -7.01687,-4.7807 -7.3253,-9.7928 H 1.8506 L 0,29.4553 c 0,0 4.24096,2.4674 8.79036,2.4674 5.47474,-0.0771 9.09884,-4.0867 9.25304,-8.3277 0,-8.0964 -13.10846,-9.7927 -13.10846,-15.57588 z"
       id="path10"
       inkscape:connector-curvature="0"
       style="fill:#06492e" />
    <path
       d="m 138.024,29.072 c 0,-1.5422 1.234,-2.853 2.853,-2.853 1.697,0 2.931,1.3108 2.931,2.853 0,1.5422 -1.234,2.853 -2.853,2.853 -1.774,0.0771 -2.931,-1.3108 -2.931,-2.853 z"
       id="path12"
       inkscape:connector-curvature="0"
       style="fill:#b4d625" />
  </g>
  <defs
     id="defs19">
    <clipPath
       id="clip0">
      <rect
         width="143.80701"
         height="32"
         id="rect16"
         x="0"
         y="0"
         style="fill:#ffffff" />
    </clipPath>
  </defs>
</svg>
