<?xml version="1.0" encoding="UTF-8" standalone="no"?>
<!-- Created with Inkscape (http://www.inkscape.org/) -->

<svg
   xmlns:dc="http://purl.org/dc/elements/1.1/"
   xmlns:cc="http://creativecommons.org/ns#"
   xmlns:rdf="http://www.w3.org/1999/02/22-rdf-syntax-ns#"
   xmlns:svg="http://www.w3.org/2000/svg"
   xmlns="http://www.w3.org/2000/svg"
   xmlns:sodipodi="http://sodipodi.sourceforge.net/DTD/sodipodi-0.dtd"
   xmlns:inkscape="http://www.inkscape.org/namespaces/inkscape"
   width="78.845833mm"
   height="78.845833mm"
   viewBox="0 0 78.845833 78.845833"
   version="1.1"
   id="svg8"
   inkscape:version="0.92.4 (5da689c313, 2019-01-14)"
   sodipodi:docname="snapchat new.svg">
  <defs
     id="defs2" />
  <sodipodi:namedview
     id="base"
     pagecolor="#ffffff"
     bordercolor="#666666"
     borderopacity="1.0"
     inkscape:pageopacity="0.0"
     inkscape:pageshadow="2"
     inkscape:zoom="2.8"
     inkscape:cx="77.801948"
     inkscape:cy="107.26741"
     inkscape:document-units="mm"
     inkscape:current-layer="layer2"
     showgrid="false"
     inkscape:window-width="1920"
     inkscape:window-height="1017"
     inkscape:window-x="-8"
     inkscape:window-y="176"
     inkscape:window-maximized="1" />
  <metadata
     id="metadata5">
    <rdf:RDF>
      <cc:Work
         rdf:about="">
        <dc:format>image/svg+xml</dc:format>
        <dc:type
           rdf:resource="http://purl.org/dc/dcmitype/StillImage" />
        <dc:title></dc:title>
      </cc:Work>
    </rdf:RDF>
  </metadata>
  <g
     inkscape:label="Layer 1"
     inkscape:groupmode="layer"
     id="layer1"
     transform="translate(-51.448719,-71.557488)">
    <g
       id="layer1-9"
       transform="matrix(0.26458333,0,0,0.26458333,31.72956,-43.303112)">
      <g
         id="g3646"
         transform="matrix(4.370655,0,0,-4.370655,325.04631,434.11881)">
        <path
           d="M 0,0 C 5.999,0 10.864,-4.864 10.864,-10.865 V -57.318 C 10.864,-63.317 5.999,-68.182 0,-68.182 h -46.453 c -6,0 -10.865,4.865 -10.865,10.864 v 46.453 c 0,6.001 4.865,10.865 10.865,10.865 z"
           style="fill:#fffc00;fill-opacity:1;fill-rule:nonzero;stroke:none"
           id="path3648"
           inkscape:connector-curvature="0" />
      </g>
      <g
         id="g3650"
         transform="matrix(4.370655,0,0,-4.370655,224.62439,685.45071)" />
      <g
         id="g3654"
         transform="matrix(4.370655,0,0,-4.370655,225.4015,482.85644)" />
    </g>
  </g>
  <g
     inkscape:groupmode="layer"
     id="layer2"
     inkscape:label="Layer 2"
     transform="translate(-51.448719,-71.557488)">
    <g
       id="g823"
       transform="matrix(0.05532529,0,0,0.05532529,62.544683,82.653856)">
	<g
   id="g819">
		<path
   id="path817"
   d="m 992.5,756.3 c -4.2,-13.9 -24.3,-23.7 -24.3,-23.7 v 0 c -1.9,-1 -3.6,-1.9 -5,-2.6 C 929.7,713.8 900,694.3 875,672.2 854.9,654.4 837.7,634.8 823.9,614 807,588.6 799.1,567.4 795.7,555.9 c -1.9,-7.5 -1.6,-10.5 0,-14.4 1.3,-3.3 5.2,-6.4 7,-7.9 11.3,-8 29.5,-19.8 40.7,-27 9.7,-6.3 18,-11.7 22.9,-15.1 15.7,-11 26.5,-22.2 32.8,-34.3 8.2,-15.6 9.2,-32.8 2.8,-49.7 -8.6,-22.8 -29.9,-36.4 -57,-36.4 -6,0 -12.2,0.7 -18.4,2 -15.5,3.4 -30.2,8.9 -42.5,13.7 -0.9,0.4 -1.9,-0.3 -1.8,-1.3 1.3,-30.5 2.8,-71.5 -0.6,-110.4 -3,-35.2 -10.3,-64.9 -22.1,-90.8 C 747.6,158.3 732.1,139.1 720,125.2 708.5,112 688.2,92.5 657.6,75 614.6,50.4 565.6,37.9 512,37.9 458.5,37.9 409.6,50.4 366.5,75 c -32.4,18.5 -53.1,39.4 -62.5,50.2 -12.1,13.9 -27.6,33.1 -39.5,59.1 -11.9,25.9 -19.1,55.5 -22.1,90.8 -3.4,39.1 -2,76.8 -0.6,110.4 0,1 -0.9,1.7 -1.9,1.3 -12.3,-4.8 -27,-10.3 -42.5,-13.7 -6.1,-1.3 -12.3,-2 -18.4,-2 -27,0 -48.3,13.6 -57,36.4 -6.4,16.9 -5.4,34.1 2.8,49.7 6.4,12.1 17.1,23.3 32.8,34.3 4.8,3.4 13.2,8.8 22.9,15.1 10.9,7.1 28.6,18.6 40,26.5 1.4,1 6.2,4.6 7.7,8.4 1.6,4 1.9,7 -0.2,15 -3.5,11.6 -11.4,32.6 -28,57.5 -13.8,20.9 -31,40.4 -51.1,58.2 -25,22.1 -54.7,41.6 -88.2,57.8 -1.6,0.8 -3.5,1.7 -5.5,2.9 v 0 c 0,0 -20,10.2 -23.8,23.4 -5.6,19.5 9.3,37.8 24.4,47.6 24.8,16 55,24.6 72.5,29.3 4.9,1.3 9.3,2.5 13.3,3.7 2.5,0.8 8.8,3.2 11.5,6.7 3.4,4.4 3.8,9.8 5,15.9 v 0 c 1.9,10.3 6.2,23 18.9,31.8 14,9.6 31.7,10.3 54.2,11.2 23.5,0.9 52.7,2 86.2,13.1 15.5,5.1 29.6,13.8 45.8,23.8 34,20.9 76.3,46.9 148.5,46.9 72.3,0 114.9,-26.1 149.1,-47.1 16.2,-9.9 30.1,-18.5 45.3,-23.5 33.5,-11.1 62.7,-12.2 86.2,-13.1 22.5,-0.9 40.2,-1.5 54.2,-11.2 13.6,-9.4 17.5,-23.4 19.3,-33.9 1,-5.2 1.6,-9.9 4.6,-13.7 2.6,-3.3 8.4,-5.6 11.1,-6.5 4.1,-1.3 8.7,-2.5 13.8,-3.9 17.5,-4.7 39.5,-10.2 66.2,-25.3 32.2,-18.3 34.4,-40.7 31,-51.8 z"
   class="st0"
   inkscape:connector-curvature="0"
   style="fill:#ffffff" />

	</g>

	<path
   id="path821"
   d="m 1020.3,745.5 c -7.1,-19.4 -20.7,-29.7 -36.1,-38.3 -2.9,-1.7 -5.6,-3.1 -7.8,-4.1 -4.6,-2.4 -9.3,-4.7 -14,-7.1 -48.1,-25.5 -85.7,-57.7 -111.7,-95.8 -8.8,-12.9 -14.9,-24.5 -19.2,-34 -2.2,-6.4 -2.1,-10 -0.5,-13.3 1.2,-2.5 4.4,-5.1 6.2,-6.4 8.3,-5.5 16.8,-11 22.6,-14.7 10.3,-6.7 18.5,-12 23.7,-15.6 19.8,-13.8 33.6,-28.5 42.2,-44.9 12.2,-23.1 13.7,-49.5 4.3,-74.3 -13,-34.4 -45.6,-55.8 -85,-55.8 -8.2,0 -16.5,0.9 -24.7,2.7 -2.2,0.5 -4.3,1 -6.4,1.5 0.4,-23.4 -0.2,-48.4 -2.3,-72.8 -7.4,-86 -37.5,-131.1 -68.9,-167 C 729.6,90.6 706.8,68.7 672.6,49.1 624.9,21.7 570.9,7.9 512,7.9 453.3,7.9 399.3,21.7 351.6,49 c -34.4,19.6 -57.2,41.6 -70.2,56.5 -31.4,35.9 -61.5,81 -68.9,167 -2.1,24.4 -2.6,49.4 -2.3,72.8 -2.1,-0.5 -4.3,-1 -6.4,-1.5 -8.2,-1.8 -16.6,-2.7 -24.7,-2.7 -39.4,0 -72,21.4 -85,55.8 -9.4,24.8 -7.9,51.2 4.3,74.3 8.6,16.4 22.5,31.1 42.2,44.9 5.3,3.7 13.4,9 23.7,15.6 5.6,3.6 13.7,8.9 21.7,14.2 1.2,0.8 5.5,4 7,7 1.7,3.4 1.7,7.1 -0.8,13.9 -4.2,9.3 -10.3,20.7 -18.9,33.3 -25.5,37.3 -62,68.9 -108.5,94.1 -24.7,13.1 -50.3,21.8 -61.1,51.2 -8.2,22.2 -2.8,47.5 17.9,68.8 v 0 c 6.8,7.3 15.4,13.8 26.2,19.8 25.4,14 47,20.9 64,25.6 3,0.9 9.9,3.1 12.9,5.8 7.6,6.6 6.5,16.6 16.6,31.2 6.1,9.1 13.1,15.3 18.9,19.3 21.1,14.6 44.9,15.5 70.1,16.5 22.7,0.9 48.5,1.9 77.9,11.6 12.2,4 24.9,11.8 39.5,20.8 35.2,21.7 83.5,51.3 164.2,51.3 80.8,0 129.3,-29.8 164.8,-51.5 14.6,-8.9 27.2,-16.7 39,-20.6 29.4,-9.7 55.2,-10.7 77.9,-11.6 25.2,-1 48.9,-1.9 70.1,-16.5 6.6,-4.6 15,-12.1 21.6,-23.5 7.2,-12.3 7.1,-21 13.9,-26.9 2.8,-2.4 8.9,-4.5 12.2,-5.5 17.1,-4.7 39,-11.6 64.9,-25.9 11.5,-6.3 20.4,-13.2 27.5,-21.1 0.1,-0.1 0.2,-0.2 0.3,-0.3 19.3,-21 24.2,-45.5 16.2,-67.2 z M 948.6,784 c -43.8,24.2 -72.9,21.6 -95.5,36.1 -19.2,12.4 -7.9,39.1 -21.8,48.7 -17.2,11.9 -67.9,-0.8 -133.4,20.8 -54,17.9 -88.5,69.2 -185.8,69.2 -97.5,0 -131,-51.1 -185.8,-69.2 C 260.8,868 210,880.7 192.9,868.8 179,859.2 190.3,832.5 171.1,820.1 148.5,805.5 119.4,808.1 75.6,784 47.7,768.6 63.5,759.1 72.8,754.6 c 158.6,-76.7 183.8,-195.3 185,-204.2 1.4,-10.6 2.9,-19 -8.8,-29.9 -11.3,-10.5 -61.6,-41.6 -75.5,-51.3 -23.1,-16.1 -33.2,-32.2 -25.7,-52 5.2,-13.7 18,-18.8 31.5,-18.8 4.2,0 8.5,0.5 12.6,1.4 25.3,5.5 49.9,18.2 64.1,21.6 2,0.5 3.7,0.7 5.2,0.7 7.6,0 10.2,-3.8 9.7,-12.5 -1.6,-27.7 -5.6,-81.7 -1.2,-132.2 6,-69.4 28.4,-103.8 55,-134.3 12.8,-14.6 72.8,-78 187.5,-78 115,0 174.7,63.4 187.5,78 26.6,30.4 49,64.8 55,134.3 4.4,50.5 0.6,104.5 -1.2,132.2 -0.6,9.1 2.2,12.5 9.7,12.5 1.5,0 3.3,-0.2 5.2,-0.7 14.2,-3.4 38.8,-16.1 64.1,-21.6 4.1,-0.9 8.4,-1.4 12.6,-1.4 13.5,0 26.3,5.2 31.5,18.8 7.5,19.8 -2.7,35.9 -25.7,52 -13.9,9.7 -64.2,40.8 -75.5,51.3 -11.7,10.8 -10.2,19.2 -8.8,29.9 1.1,8.9 26.4,127.5 185,204.2 9,4.5 24.9,14 -3,29.4 z"
   inkscape:connector-curvature="0"
   style="fill:#000000;fill-opacity:1" />

</g>
  </g>
  <style
     id="style815"
     type="text/css">
	.st0{fill:#FFFFFF;}
</style>
</svg>
