<svg width="160" height="103" viewBox="0 0 160 103" xmlns="http://www.w3.org/2000/svg">
    <g fill="none" fill-rule="evenodd">
        <path d="M92.623 72.412c-3.602 8.23-7.51 14.505-12.958 19.666-6.06 5.784-13.264 8.854-21.522 9.566-6.808.578-13.44-.222-19.984-2.18-6.678-1.958-12.74-5.028-18.01-9.7-4.348-3.915-7.686-8.587-10.278-13.837-3.997-8.053-6.676-16.507-7.906-25.45-.79-5.784-.834-11.524.66-17.175 1.405-5.428 4.26-9.966 8.213-13.837 3.908-3.827 8.432-6.763 13.263-9.21C31.526 6.562 39.3 3.803 47.47 2.335 53.312 1.267 59.154 1 65.04 2.2c5.533 1.158 10.277 3.783 14.406 7.654 4.48 4.183 7.818 9.21 10.54 14.683 3.12 6.318 5.316 12.948 6.326 19.978.966 6.985.527 13.88-1.36 20.69-.88 2.936-1.89 5.74-2.33 7.207z" stroke="#262627"/>
        <path d="M50 43.238v-2.626h13.66v2.626h-5.446v14.95H55.49v-14.95H50zm36.588 15.127c-1.45 0-2.724-.712-3.34-1.6v6.495h-2.59V45.507h2.59v1.468c.485-.845 1.89-1.646 3.383-1.646 3.647 0 5.58 2.4 5.58 6.495 0 4.05-1.977 6.54-5.622 6.54zm2.898-6.54c0-1.29-.307-2.314-.878-3.07-.615-.757-1.362-1.157-2.284-1.157-.922 0-1.713.356-2.284 1.157-.615.756-.878 1.78-.878 3.07 0 1.29.307 2.313.878 3.07.615.756 1.362 1.112 2.284 1.112.922 0 1.713-.356 2.284-1.112.57-.757.878-1.78.878-3.07zM106 52.58h-8.827c0 2.003 1.142 3.472 3.075 3.472 1.405 0 2.635-.8 3.25-2.136l2.196.89c-1.274 2.49-2.723 3.56-5.49 3.56-4.13 0-5.798-3.516-5.798-6.497 0-3.026 1.713-6.497 5.798-6.497 3.997 0 5.753 3.293 5.753 6.096v1.11H106zm-8.783-2.18h6.06c-.218-1.556-1.273-2.758-3.03-2.758-1.625 0-2.723 1.113-3.03 2.76zm10.893-2.58v-2.313h1.625v-.668c0-2.982 1.58-4.45 4.172-4.45.835 0 1.494.133 2.065.445l-.527 2.225c-.44-.223-.923-.356-1.45-.356-1.098 0-1.67.667-1.67 2.002v.845h2.768v2.315h-2.767v10.322h-2.59V47.865h-1.626v-.045zm8.61 4.005c0-1.824.526-3.382 1.668-4.628 1.098-1.245 2.635-1.868 4.48-1.868 1.844 0 3.338.622 4.436 1.867 1.098 1.246 1.67 2.804 1.67 4.628 0 1.824-.572 3.38-1.67 4.627-1.098 1.246-2.592 1.87-4.436 1.87-1.845 0-3.382-.624-4.48-1.87-1.098-1.2-1.67-2.758-1.67-4.627zm2.722 0c0 1.157.307 2.135.878 2.98.615.846 1.45 1.247 2.504 1.247s1.888-.4 2.503-1.246c.615-.846.923-1.824.923-2.98 0-1.158-.308-2.137-.923-2.938-.615-.845-1.45-1.246-2.503-1.246-1.054 0-1.89.445-2.504 1.246-.57.846-.878 1.824-.878 2.937zm14.582 6.318h-2.59V45.507h2.59v2.09c.835-1.467 2.284-2.313 3.69-2.313.57 0 1.098.09 1.58.312l-.438 2.402c-.396-.267-.88-.356-1.45-.356-.922 0-1.713.49-2.372 1.513-.66 1.024-1.01 2.447-1.01 4.316v4.673zm7.906-12.636h2.592v2.135c1.01-1.557 2.24-2.358 3.777-2.358 1.668 0 3.073 1.024 3.425 2.625.878-1.69 2.284-2.626 3.865-2.626 2.24 0 3.558 1.513 3.558 3.782v9.032h-2.592v-8.453c0-1.335-.702-2.047-1.844-2.047-1.626 0-2.9 2.136-2.9 5.473v5.073h-2.59V49.69c0-1.336-.703-2.048-1.845-2.048-1.67 0-2.9 2.136-2.9 5.74v4.805h-2.59v-12.68h.043zm-63.644 0H75.3l-4.26 9.254-3.998-9.253H64.1l5.446 12.59-2.372 5.163h2.986l8.126-17.753z" fill="#262627" fill-rule="nonzero"/>
    </g>
</svg>