<svg xmlns="http://www.w3.org/2000/svg" width="120" height="60"><path d="M44.37 27.572c0-1.6-1.535-3.278-4.203-3.278-2.992 0-6.277 2.203-6.78 6.6-.514 4.44 2.237 6.413 5.01 6.413s4.225-1.085 5.71-2.532c-1.277-1.61-2.926-.866-3.242-.702a3.31 3.31 0 0 1-1.714.417c-1.07 0-2.162-.482-2.162-2.488 6.856-.68 7.38-2.84 7.38-4.43zm-3.398.263c-.044.493-.24 1.337-3.712 1.81.73-2.61 2.13-2.806 2.773-2.806a.909.909 0 0 1 .946.998zm-11.612.428l-1.594 5.032-1.125-8.737c-2.51 0-3.86 1.798-4.564 3.694l-1.944 5.054-.273-5c-.148-2.324-2.27-3.738-3.985-3.738l2.074 12.64c2.63-.01 4.05-1.798 4.793-3.694l1.644-4.297c.015.175 1.136 7.992 1.136 7.992 2.642 0 4.062-1.677 4.823-3.508l3.7-9.132c-2.605 0-3.978 1.787-4.687 3.694zm24.706-4c-1.627 0-2.87.888-3.92 2.192v-.01l.938-7.597c-2.162 0-3.92 1.886-4.258 4.692L45.2 37.11c1.245 0 2.566-.362 3.276-1.283.634.822 1.583 1.48 2.992 1.48 3.646 0 6.147-4.253 6.147-8.244-.022-3.64-1.78-4.79-3.538-4.79zm-.34 6.523c-.38 2.225-1.616 3.738-2.805 3.738s-1.714-.537-1.714-.537c.23-1.95.372-3.146.808-4.177s1.474-2.675 2.555-2.675c1.06 0 1.54 1.414 1.157 3.65zm12.982-6.227h-2.544l.01-.132c.175-1.666.568-2.543 1.864-2.686.885-.088 1.278-.548 1.376-1.052l.317-1.765c-5.1-.033-6.714 2.18-7.125 5.558l-.01.077h-.055c-.83 0-1.746.943-1.9 2.138l-.055.438h1.704l-1.43 11.86-.438 2.127c.055 0 .12.01.174.01 2.39-.088 3.92-1.984 4.258-4.736l1.116-9.263h.8c.786 0 1.704-.79 1.864-2.105zm13.232-.22c-2.937 0-5.71 2.17-6.56 5.58s.438 7.443 4.76 7.443 6.797-4.2 6.797-7.696c.004-3.475-2.342-5.328-4.996-5.328zm1.19 6.336c-.152 1.546-.83 3.892-2.686 3.892s-1.605-2.74-1.425-4.045c.197-1.392.972-3.376 2.642-3.376 1.502 0 1.643 1.787 1.47 3.53zm18.32-2.423l-1.594 5.032c-.043-.395-1.124-8.737-1.124-8.737-2.51 0-3.854 1.798-4.558 3.694l-1.944 5.054c-.01-.362-.273-5-.273-5-.158-2.324-2.278-3.738-4-3.738l2.063 12.64c2.63-.01 4.05-1.798 4.793-3.694l1.638-4.297c.01.175 1.136 7.992 1.136 7.992 2.642 0 4.056-1.677 4.823-3.508l3.703-9.132c-2.598 0-3.974 1.787-4.673 3.694zm-30.34-9.33l-2.14 17.33-.438 2.138c.054 0 .12.01.174.01 2.302-.033 3.94-2.06 4.247-4.615l1.233-9.943c.374-3.037-1.427-4.922-3.076-4.922z" fill="#4353ff"/></svg>