<?xml version="1.0" encoding="utf-8"?>
<!-- Generator: Adobe Illustrator 26.0.3, SVG Export Plug-In . SVG Version: 6.00 Build 0)  -->
<svg version="1.0" id="katman_1" xmlns="http://www.w3.org/2000/svg" xmlns:xlink="http://www.w3.org/1999/xlink" x="0px" y="0px"
	 viewBox="0 0 600 450" style="enable-background:new 0 0 600 450;" xml:space="preserve">
<style type="text/css">
	.st0{fill:#322A65;}
	.st1{fill:#ED6D49;}
	.st2{fill:#312A65;}
	.st3{clip-path:url(#SVGID_00000146490121625396611420000002633802600161537969_);}
	.st4{fill:#5B5480;}
	.st5{fill:#ED6E48;}
	.st6{fill:#F1886A;}
	.st7{fill:#EA5835;}
</style>
<path class="st0" d="M191.2,255.2c-0.3-0.2-0.4-0.6-0.4-0.9c0-0.4,0.1-0.7,0.3-1l5.1-12l-12.5-29.4c-0.1-0.3-0.2-0.6-0.3-0.9
	c0-0.4,0.2-0.7,0.5-1c0.2-0.3,0.6-0.4,1-0.4h5.4c0.8,0,1.5,0.5,1.7,1.2l8.6,21.2l8.8-21.2c0.3-0.7,1-1.2,1.8-1.2h5.3
	c0.4,0,0.7,0.1,1,0.4c0.3,0.2,0.4,0.6,0.4,0.9c0,0.4-0.1,0.7-0.3,1l-18.4,42.6c-0.3,0.8-1,1.3-1.8,1.2h-5.2
	C191.8,255.6,191.4,255.5,191.2,255.2z"/>
<path class="st0" d="M226.5,240c-2.3-2.6-3.4-6.2-3.4-10.7v-18.2c0-0.4,0.1-0.8,0.5-1.1c0.3-0.3,0.7-0.4,1.1-0.4h5.9
	c0.9,0,1.6,0.7,1.6,1.6v17.9c0,5.3,2.3,8,7,8c2.3,0,4-0.7,5.4-2.1s2-3.4,2-5.8v-17.8c0-0.4,0.1-0.8,0.5-1.1c0.3-0.3,0.7-0.4,1.1-0.4
	h5.8c0.8-0.1,1.5,0.5,1.6,1.4c0,0.1,0,0.1,0,0.2v30.7c0,0.4-0.1,0.8-0.4,1.1c-0.3,0.3-0.7,0.5-1.1,0.5h-5.4c-0.9,0-1.6-0.7-1.6-1.5
	c0,0,0,0,0,0v-2.7c-2.4,3.2-6,4.9-10.8,4.9C231.9,243.9,228.8,242.6,226.5,240z"/>
<path class="st0" d="M269.7,255.6c-2.4-1.3-4.1-2.7-5.1-4.4c-1-1.6-1.5-3.1-1.5-4.2c0-0.4,0.2-0.8,0.5-1.1c0.3-0.3,0.7-0.4,1.1-0.4
	h5.8c0.4,0,0.7,0.1,1,0.3c0.3,0.3,0.6,0.7,0.7,1.1c0.5,1.1,1.2,2.1,2.1,2.9c1,0.8,2.4,1.2,4.4,1.2c2.6,0,4.5-0.6,5.7-1.7
	c1.2-1.1,1.8-3.2,1.8-6v-4.4c-2.3,2.8-5.6,4.2-10,4.2c-4.5,0-7.9-1.4-10.2-4.1c-2.3-2.7-3.5-6.5-3.7-11.2l-0.1-1.7l0.1-1.8
	c0.2-4.6,1.4-8.4,3.7-11.2c2.3-2.8,5.7-4.2,10.1-4.2c2.1,0,4.2,0.4,6,1.3c1.7,0.8,3.1,2,4.3,3.5v-2.5c0-0.4,0.2-0.9,0.5-1.2
	c0.3-0.3,0.7-0.5,1.1-0.5h5.3c0.4,0,0.8,0.2,1.1,0.5c0.3,0.3,0.5,0.7,0.5,1.2l0.1,31.3c0,4.8-1.3,8.5-4,11.2c-2.7,2.6-6.7,4-12.1,4
	C275.2,257.6,272.1,256.9,269.7,255.6z M284.3,233.8c1.2-1.7,1.9-3.7,2-5.7c0-0.3,0.1-1,0.1-2.1s0-1.7-0.1-2.1
	c-0.1-2.1-0.8-4.1-2-5.7c-1.2-1.6-3-2.3-5.5-2.3c-4.7,0-7.1,2.9-7.4,8.6l0,1.6c0,6.8,2.5,10.1,7.5,10.1
	C281.2,236.1,283.1,235.3,284.3,233.8L284.3,233.8z"/>
<path class="st0" d="M307.6,242.6c-1.7-0.8-3.2-2-4.4-3.6c-2.7-3.9-1.9-9.3,2-12.1c2.4-1.8,5.7-3.1,9.8-3.7l8.9-1.3v-1.4
	c0-1.9-0.5-3.3-1.4-4.2c-0.9-1-2.5-1.4-4.5-1.4c-1.2-0.1-2.4,0.2-3.4,0.8c-0.8,0.4-1.5,1-2.1,1.6l-1.1,1.1c-0.1,0.5-0.5,0.8-1,0.8
	h-5.1c-0.4,0-0.7-0.1-1-0.4c-0.3-0.3-0.4-0.6-0.4-1c0-1.1,0.6-2.3,1.6-3.7c1.3-1.6,2.9-2.8,4.7-3.6c2.1-1,4.7-1.5,7.9-1.5
	c5.1,0,8.8,1.1,11.2,3.4c2.3,2.3,3.5,5.3,3.5,9v20.4c0,0.4-0.1,0.8-0.4,1.1c-0.3,0.3-0.7,0.5-1.1,0.5h-5.4c-0.4,0-0.8-0.2-1.1-0.5
	c-0.3-0.3-0.5-0.7-0.5-1.1v-2.5c-1,1.5-2.4,2.6-4,3.4c-2,0.9-4.2,1.4-6.5,1.3C311.6,244,309.5,243.5,307.6,242.6z M321.7,235.3
	c1.5-1.6,2.3-3.8,2.3-6.8v-1.3l-6.5,1c-5,0.8-7.5,2.4-7.5,5c0,1.3,0.6,2.5,1.7,3.2c1.2,0.8,2.7,1.2,4.1,1.1
	C318.1,237.7,320.2,236.9,321.7,235.3L321.7,235.3z"/>
<path class="st0" d="M349.4,239.3v2.4c0,0.4-0.2,0.8-0.5,1.1c-0.3,0.3-0.7,0.5-1.2,0.5h-5.2c-0.4,0-0.8-0.2-1.1-0.5
	c-0.3-0.3-0.5-0.7-0.5-1.1v-43c0-0.4,0.1-0.8,0.5-1.1c0.3-0.3,0.7-0.4,1.1-0.4h5.7c0.8-0.1,1.5,0.5,1.6,1.4c0,0.1,0,0.1,0,0.2v14.4
	c2.4-2.9,5.7-4.3,10-4.3c4.4,0,7.7,1.4,10.1,4.3c2.4,2.8,3.6,6.6,3.7,11.1c0,0.5,0.1,1.2,0.1,2.1c0,0.9,0,1.6-0.1,2.1
	c-0.2,4.7-1.4,8.4-3.8,11.2c-2.3,2.8-5.7,4.2-10.1,4.2C355.3,243.9,351.8,242.4,349.4,239.3z M364.7,228.3c0-0.4,0.1-1.1,0.1-2
	s0-1.5-0.1-1.9c-0.3-5.7-2.8-8.6-7.4-8.6c-2.4,0-4.2,0.8-5.5,2.3c-1.3,1.6-2,3.5-2,5.5c0,0.5-0.1,1.4-0.1,2.5s0,2,0.1,2.5
	c0,2.1,0.7,4.2,2,5.8c1.2,1.6,3.1,2.4,5.5,2.4C361.9,236.9,364.4,234,364.7,228.3L364.7,228.3z"/>
<path class="st0" d="M384.8,255.2c-0.3-0.2-0.4-0.6-0.4-0.9c0-0.4,0.1-0.7,0.3-1l5.1-12l-12.5-29.4c-0.1-0.3-0.2-0.6-0.3-0.9
	c0-0.4,0.2-0.7,0.5-1c0.2-0.3,0.6-0.4,1-0.4h5.4c0.8,0,1.5,0.5,1.7,1.2l8.6,21.2l8.8-21.2c0.3-0.7,1-1.2,1.8-1.2h5.3
	c0.4,0,0.7,0.1,1,0.4c0.3,0.2,0.4,0.6,0.4,0.9c0,0.4-0.1,0.7-0.3,1l-18.4,42.6c-0.3,0.8-1,1.3-1.8,1.2h-5.2
	C385.4,255.6,385,255.5,384.8,255.2z"/>
<path class="st0" d="M423.4,240.2c-2-2.1-3-5.1-3-9.1v-14.7h-5.1c-0.4,0-0.8-0.2-1.1-0.5c-0.3-0.3-0.5-0.7-0.5-1.1v-3.8
	c0-0.4,0.2-0.8,0.5-1.1c0.3-0.3,0.7-0.5,1.1-0.5h5.1v-10.8c0-0.4,0.1-0.8,0.5-1.1c0.3-0.3,0.7-0.4,1.1-0.4h5.4
	c0.4,0,0.8,0.1,1.1,0.4c0.3,0.3,0.4,0.7,0.4,1.1v10.8h8.1c0.9,0,1.5,0.7,1.5,1.6v3.8c0,0.8-0.7,1.5-1.5,1.5h-8.1v14
	c0,1.9,0.3,3.3,1,4.2c0.6,1,1.7,1.4,3.2,1.4h4.5c0.4,0,0.8,0.1,1.1,0.4c0.3,0.3,0.4,0.7,0.4,1.1v4.1c0,0.4-0.1,0.8-0.4,1.1
	c-0.3,0.3-0.7,0.5-1.1,0.5h-5.3C428.4,243.3,425.4,242.2,423.4,240.2z"/>
<path class="st0" d="M448.1,239.8c-2.8-2.8-4.3-6.7-4.5-11.8l-0.1-1.6c0-5.4,1.4-9.7,4.3-12.8c2.8-3.1,6.8-4.7,11.8-4.7
	c5.2,0,9.1,1.6,11.9,4.7c2.8,3.1,4.2,7.3,4.2,12.5v1.4c0,0.4-0.2,0.8-0.5,1.1c-0.3,0.3-0.7,0.5-1.2,0.5h-21.6v0.5c0,2.2,0.7,4.3,2,6
	c1.2,1.6,3.1,2.5,5.1,2.4c2.4,0,4.6-1.1,6-3c0.2-0.3,0.5-0.6,0.9-0.8c0.4-0.1,0.7-0.2,1.1-0.2h5.7c0.4,0,0.7,0.1,1,0.3
	c0.3,0.2,0.4,0.6,0.4,0.9c0,1-0.6,2.3-1.9,3.7c-1.5,1.6-3.3,2.8-5.3,3.7c-2.5,1.1-5.2,1.6-8,1.6
	C454.7,243.9,450.9,242.5,448.1,239.8z M466.7,223.4v-0.1c0-2.6-0.6-4.6-1.9-6.1c-1.3-1.5-3.2-2.4-5.2-2.3c-2-0.1-3.9,0.8-5.2,2.3
	c-1.3,1.5-1.9,3.6-1.9,6.1v0.1H466.7z"/>
<path class="st1" d="M484.6,242.8c-0.3-0.3-0.5-0.7-0.5-1.1v-42.2c0-0.4,0.2-0.9,0.5-1.2c0.3-0.3,0.7-0.5,1.2-0.5h17.1
	c6.4,0,11.4,1.5,14.9,4.6c3.5,3.1,5.4,7.4,5.6,13.2c0,1.3,0.1,2.9,0.1,5c0,2.1,0,3.7-0.1,4.9c-0.4,11.9-7.2,17.8-20.2,17.8h-17.4
	C485.3,243.3,484.9,243.1,484.6,242.8z M502.8,233.5c2.7,0,4.7-0.6,6-1.9c1.3-1.3,2-3.4,2.1-6.2c0.1-1.3,0.1-2.9,0.1-4.9
	s0-3.6-0.1-4.8c-0.1-2.8-0.8-4.8-2.2-6.1c-1.4-1.3-3.5-2-6.2-2h-6.2v26H502.8z"/>
<path class="st1" d="M531.3,242.8c-0.3-0.3-0.5-0.7-0.5-1.1v-42.2c0-0.4,0.2-0.9,0.5-1.2c0.3-0.3,0.7-0.5,1.2-0.5h20.1
	c5.5,0,9.6,1.1,12.3,3.4c2.7,2.3,4,5.5,4,9.6c0,1.9-0.5,3.8-1.7,5.4c-0.9,1.4-2.2,2.5-3.7,3.3c1.8,0.8,3.4,2.2,4.5,3.9
	c1.2,1.8,1.8,3.9,1.8,6.1c0,4.4-1.4,7.8-4.3,10.2s-7,3.6-12.4,3.6h-20.7C532,243.3,531.6,243.1,531.3,242.8z M551.2,215.8
	c1.6,0,2.8-0.4,3.7-1.3c0.9-0.9,1.3-2.1,1.3-3.4c0-1.2-0.4-2.4-1.3-3.3c-0.8-0.8-2.1-1.3-3.7-1.3H543v9.2H551.2z M551.7,234.5
	c1.7,0,3-0.5,3.9-1.5c1.9-2.1,1.9-5.2,0-7.3c-1-1-2.5-1.5-3.9-1.5H543v10.2H551.7z"/>
<path class="st2" d="M134.8,226.3c0.2,24.7-19.7,44.9-44.4,45.1s-44.9-19.7-45.1-44.4S65,182,89.7,181.9c0,0,0,0,0,0
	C114.4,181.7,134.6,201.5,134.8,226.3"/>
<g>
	<defs>
		<path id="SVGID_1_" d="M134.8,226.3c0.2,24.7-19.7,44.9-44.4,45.1s-44.9-19.7-45.1-44.4S65,182,89.7,181.9c0,0,0,0,0,0
			C114.4,181.7,134.6,201.5,134.8,226.3"/>
	</defs>
	<clipPath id="SVGID_00000167361847539020474910000011431275020708551554_">
		<use xlink:href="#SVGID_1_"  style="overflow:visible;"/>
	</clipPath>
	<g style="clip-path:url(#SVGID_00000167361847539020474910000011431275020708551554_);">
		<path class="st4" d="M95.7,181.7l0.1,0L95.7,181.7 M95,181.6L95,181.6 M94.8,181.5l0.2,0l0,0h-0.1L94.8,181.5 M94.7,181.6
			L94.7,181.6l-0.3,0l0,0L94.7,181.6 M121.2,194.2l-0.1-0.1c-0.7-0.7-1.4-1.3-2-1.8l-0.3-0.2c0.8,0.6,1.6,1.3,2.3,2l0.2,0.2
			C121.3,194.2,121.3,194.2,121.2,194.2 M132.6,211.3C132.6,211.3,132.6,211.4,132.6,211.3L132.6,211.3L132.6,211.3 M132.2,210.4
			c0.1,0.3,0.3,0.6,0.4,0.9l0-0.1c0-0.1,0-0.1-0.1-0.2v0l0-0.1l0,0C132.4,210.8,132.3,210.6,132.2,210.4 M129.7,205.2L129.7,205.2
			c-0.5-0.9-1-1.7-1.5-2.5c0.5,0.7,0.9,1.4,1.3,2.2C129.6,205,129.7,205.1,129.7,205.2 M125.9,199.3L125.9,199.3L125.9,199.3
			L125.9,199.3 M121.2,194.2l0.3,0.3L121.2,194.2C121.3,194.2,121.3,194.2,121.2,194.2L121.2,194.2 M126.7,252.2l-0.2,0.2
			c0.6-0.8,1.2-1.6,1.7-2.5C127.9,250.3,127.4,251.1,126.7,252.2 M130.1,246.7L130.1,246.7c0.6-1,1-2,1.5-3c0,0,0,0.1,0,0.1
			C131.1,244.8,130.6,245.8,130.1,246.7 M133,239.7C133,239.8,133,239.8,133,239.7c0.3-0.9,0.6-1.9,0.8-2.8l0,0
			C133.6,237.9,133.3,238.8,133,239.7L133,239.7 M135.2,226.2L135.2,226.2 M135.2,226L135.2,226 M135.2,226L135.2,226 M134.7,219.6
			c0.1,0.7,0.2,1.4,0.3,2.1C134.9,221,134.8,220.3,134.7,219.6 M84.7,194.9c0-0.1,0-0.1,0-0.2c0-0.1,0-0.2,0-0.4l-0.4,0l-0.4,0.2
			L84,195h0.5L84.7,194.9 M83.3,194.2L83.3,194.2l0-0.2c-0.1,0-0.1,0.1-0.2,0.1s0,0-0.2,0c-0.1,0-0.3,0.1-0.4,0.2
			c-0.1,0-0.1,0.1-0.2,0.1c0.1,0,0.1,0.1,0.2,0.2c0.1,0,0.1,0,0.2,0c0.1,0,0.2-0.1,0.3-0.2C83.2,194.3,83.2,194.3,83.3,194.2
			 M86.3,186.7l0.4-0.1l-0.3-0.3l-0.6,0h-0.4v0.3l0,0.2l0.6,0L86.3,186.7 M94.1,181.5L94.1,181.5L94.1,181.5l-0.5-0.1h-0.1h0.1l0,0
			l0.7,0.1l0,0l0.5,0.1l0.2,0l0.3,0l0,0l0.2,0l0.2,0h0.1l-0.9-0.1H95l-0.3,0l-0.3,0h0L94.1,181.5 M95.4,181.6l-0.3,0l-0.4-0.1h-0.1
			c0.2,0,0.4,0,0.5,0.1l0,0L95.4,181.6L95.4,181.6l-0.2,0l0.4,0.1L95.4,181.6L95.4,181.6c0.2,0.1,0.4,0.1,0.5,0.1
			c-0.1,0-0.3,0-0.4-0.1l0,0c0.1,0,0.3,0,0.4,0.1l0.3,0l0.3,0l0.2,0c-0.1,0-0.4-0.1-0.7-0.1h-0.1h-0.1l0,0L95.4,181.6 M97.1,182.1
			c-0.1,0-0.3,0-0.4-0.1h0.1l0,0l-0.6-0.1c0.2,0,0.4,0.1,0.6,0.1h-0.1l-0.3-0.1h-0.1l-0.2,0l0.2,0l0,0h-0.1l0,0L97.1,182.1
			c-0.3,0-0.5,0-0.7-0.1c-0.1,0-0.1,0-0.2,0c0.2,0,0.6,0.1,0.7,0.1l0,0L97.1,182.1l-0.1,0c0.1,0,0.2,0,0.3,0.1h0l0.3,0.1
			c0.1,0,0.2,0,0.3,0l0,0h0c0.1,0,0.2,0.1,0.3,0c-0.1-0.1-0.2,0-0.4-0.1c0.1,0,0.1,0,0.2,0C98,182.3,98,182.3,97.1,182.1 M98,182.4
			L98,182.4L98,182.4L98,182.4 M100.9,183l-0.1,0c-0.1,0-0.2-0.1-0.3-0.1h0l-0.5-0.1l0,0c-0.3-0.1-0.7-0.2-1-0.2
			c0,0-0.5-0.1-0.6-0.1l0.1,0c-0.1,0-0.1,0-0.2,0l-0.4-0.1c-0.3,0.1-0.6-0.1-1-0.2l0,0c0.2,0,0.3,0.1,0.5,0.1l0.2,0
			c0.6,0.1,0.6,0.1,0.8,0.2c-0.1,0-0.3,0-0.4-0.1l-0.1,0l-0.2,0l-0.2,0l-0.3-0.1c0.2,0,0.3,0.1,0.5,0.1l0,0l-0.3,0
			c-0.1,0-0.3-0.1-0.4-0.1l0.3,0.1l0,0c0.7,0.2,1.3,0.3,2,0.5c-0.2,0-0.5-0.1-0.7-0.2c0.1,0,0.9,0.2,1,0.2c-0.2-0.1-0.3-0.1-0.5-0.1
			c0.2,0,0.4,0.1,0.6,0.1h0c-0.1,0-0.5-0.1-0.6-0.2l-0.2-0.1l0,0c0.2,0,0.2,0,0.6,0.1h0l-0.3-0.1h0.1c0.1,0,0.3,0.1,0.4,0.1l0.1,0
			h-0.1c0,0,0.1,0,0.1,0c0,0,0,0,0.3,0.1l0.3,0.1h-0.1l0,0h0.1c0,0,0,0-0.3-0.1l0,0c0.1,0,0.6,0.2,0.6,0.2l0,0c0,0-0.1,0-0.1,0
			c0.5,0.2,1.1,0.3,1.6,0.4h0l-1.3-0.4c-0.3-0.1-0.5-0.2-0.7-0.2c-0.3-0.1-0.6-0.2-0.9-0.3h0c1,0.3,1,0.3,1.9,0.5l0,0
			c-0.1,0-0.3-0.1-0.4-0.1c0.2,0,0.4,0.1,0.6,0.1l0,0L100.9,183L100.9,183L100.9,183 M121.3,194.6L121.3,194.6L121.3,194.6
			L121.3,194.6l-0.1-0.1l-0.1-0.1l0,0l0,0C121.1,194.4,121.1,194.5,121.3,194.6 M110.7,186.8c-0.2-0.1-0.4-0.2-0.6-0.3l0,0h0l0,0
			l0.1,0L110.7,186.8L110.7,186.8 M114.4,188.8l-2.6-1.5l0,0c-0.1,0-0.2-0.1-0.2-0.1h0l0.3,0.2h0l-0.4-0.2l-0.1,0l-0.4-0.2l0,0
			l0.2,0.1c-0.1,0-0.2-0.1-0.2-0.1l-0.2-0.1l-0.3-0.2c-0.2-0.1-0.4-0.2-0.5-0.2l0,0l0.4,0.2c0,0-0.1-0.1-0.2-0.1l-0.2-0.1l-0.2-0.1
			v0c0.3,0.2,0.3,0.2,0.6,0.3l0.1,0.1l0.1,0.1l0,0c-0.3-0.2-0.4-0.2-0.6-0.3l0,0l-0.3-0.2h0h0c0.2,0.1,0.7,0.4,0.7,0.4l0,0
			c-0.1,0-0.2-0.1-0.4-0.2c0,0-0.1,0-0.1,0c0.2,0.2,0.5,0.3,0.7,0.4c0.1,0.1,0.2,0.1,0.3,0.2l0,0c-0.1,0-0.1,0-0.2,0h0
			c0.5,0.3,0.6,0.3,0.7,0.4l-0.9-0.4c0.1,0.1,0.2,0.1,0.2,0.2c0.3,0.1,0.6,0.3,0.9,0.5c-0.1,0-0.1,0-0.4-0.2
			c0.1,0.1,0.4,0.3,0.4,0.3c0.1,0.1,0.2,0.1,0.4,0.2l0.1,0.1l0.1,0.1c-0.3-0.1-0.5-0.2-0.8-0.4c0.2,0.1,0.3,0.2,0.4,0.3l0,0h-0.1
			c0.1,0.1,0.3,0.2,0.4,0.3l0,0c0.1,0.1,0.1,0.1,0.2,0.2v0c0.1,0.1,0.2,0.1,0.2,0.2l0,0l0.1,0.1h0.1c-0.2-0.2-0.2-0.2-0.2-0.2
			l-0.1-0.1v0l0-0.1v-0.1c0.1,0,0.2,0.1,0.3,0.1c0.1,0.2,2.4,1.9,2.4,2l-0.1-0.1c0.1,0.2,0.3,0.4,0.5,0.6l0.1,0
			c0.1,0.1,0.1,0.1,0.9,1c0,0-0.1,0-0.1,0c0,0-0.1,0-0.1,0l0.2,0.2l0.2,0.2v0.1l0,0l0,0c0.2,0.2,0.3,0.5,0.5,0.7l0,0
			c0.2,0.5,0.6,0.7,1,1v0l0.1,0.1l0.2,0.2h0.1c0.6-0.1,0.4,0.8,0.9,0.8c0.2,0.2,0.2,0.2,0.3,0.3c0.2,0,0.4,0,0.6-0.1
			c-0.1-0.1-0.1-0.2-0.2-0.3l0.1,0v-0.1c-0.1-0.1-0.1-0.1-0.2-0.2c0,0,0.2,0,0.6,0.5c0.2-0.1,0.4-0.1,0.7-0.2
			c-0.2-0.3-0.4-0.5-0.6-0.7l-0.1-0.1c-0.3-0.2-0.6-0.4-0.9-0.6s-0.6-0.5-0.9-0.8c-1-1-2.1-1.9-3.3-2.8h0l0,0l0.4,0.2
			c-0.1,0-0.1-0.1-0.2-0.1c0.1,0.1,0.3,0.2,0.4,0.3l0.4,0.3l0,0c0.3,0.2,0.6,0.4,0.9,0.7h-0.1c0.3,0.3,0.3,0.3,2.1,1.8l0.1,0.1
			c0.2,0.2,0.5,0.4,1.1,0.8l0,0l-0.2-0.2h0.1c0-0.1-0.1-0.1-0.2-0.2l0,0v-0.1l-0.1-0.1v0l0.2,0.2l0,0l0.1,0.1
			c0.3,0.2,0.5,0.5,0.8,0.7c-0.1,0-0.1-0.1-0.2-0.2c0,0.1,0.1,0.1,0.1,0.2H121c0.1,0.1,0.2,0.3,0.4,0.4c0.1-0.1,0.1-0.2,0-0.3
			l-0.2-0.2c-3.5-3-3.6-3.1-5.6-4.5l-0.7-0.5l0,0c-0.3-0.2-0.3-0.2-0.8-0.5C114.1,188.6,114.4,188.8,114.4,188.8L114.4,188.8
			 M120.2,195.1L120.2,195.1c-0.2,0-0.4,0.1-0.6,0.1l0,0l0.1,0.1c0,0,0.1,0.1,0.1,0.1l0.1,0.1h0h0h0l0,0l0.1,0
			c0.1,0.1,0.1,0.1,0.2,0.2v-0.1h0h0c0,0,0,0,0.1,0c0,0,0-0.1,0-0.1l0,0c0,0,0,0,0-0.1c0,0,0,0,0-0.1
			C120.3,195.3,120.2,195.2,120.2,195.1 M121,194.8c-0.2,0.1-0.4,0.2-0.7,0.2c0.1,0.1,0.3,0.2,0.4,0.4l0,0c0.3,0.3,0.3,0.3,0.4,0.4
			c0.1,0.1,0.2,0.2,0.3,0.2l0.1,0.1l0.1,0.1c0.2,0.2,0.3,0.3,0.5,0.4c0.1,0.1,0.3,0.3,0.4,0.4l0,0.1l0.2,0.2l0.2-0.1
			c-0.4-0.4-0.4-0.4-0.4-0.5l0,0h0c0,0,0.1,0.1,0.1,0.1c0-0.1-0.1-0.1-0.1-0.2l0,0c-0.1-0.1-0.2-0.2-0.3-0.3l0.1,0l-0.3-0.3h0v0l0,0
			c-0.1,0-0.1-0.1-0.2-0.1c-0.2-0.3-0.4-0.5-0.6-0.7C121.2,195.1,121.1,195,121,194.8 M125.8,199.3c-1.3-1.6-3.1-3.6-4.6-5
			c0.1,0.1,0.1,0.2,0.1,0.3c0,0,0,0,0,0l0,0h0l0,0c0.2,0.2,0.3,0.4,0.5,0.5c0-0.1,0-0.1-0.2-0.3c0.2,0.1,0.2,0.1,1.1,1.1v0
			c-0.1-0.1-0.2-0.2-0.3-0.3c-0.1,0-0.1,0-0.1,0l-0.2-0.2c-0.1,0-0.1,0-0.1,0c0.6,0.6,1.1,1.3,1.7,1.9l0.1,0.1c-0.1,0-0.1,0-0.2,0
			c0.2,0.2,0.3,0.4,0.5,0.6v0c-0.2-0.1-0.3-0.3-0.5-0.4c0.1,0.2,0.2,0.4,0.3,0.7l-0.1,0.1l0,0.1l-0.1,0c-0.1-0.1-0.2-0.2-0.3-0.4
			c-0.1,0-0.1,0-0.1,0l0,0.1c0,0-0.1,0.1-0.1,0.1c0,0.1,0,0.1,0.2,0.4h-0.1c-0.1,0-0.1,0-0.4-0.3v0h-0.1l-0.2-0.2
			c0,0-0.1-0.1-0.1-0.2c0-0.1,0-0.1,0.1-0.1c0,0,0,0,0.3,0.2c0-0.2-0.5-0.8-0.8-1.1c-0.1-0.1-0.1,0-0.1,0c0,0.1,0,0.1,0.1,0.4v0l0,0
			c-0.1-0.1-0.1-0.1-0.3-0.4l-0.2-0.2h-0.1c-0.2-0.3-0.5-0.6-0.8-0.9c0,0.2,0.3,0.4,0.3,0.6c0,0.1,0.1,0.1,0.1,0.2l0.1,0.1
			c0.3,0.4,0.7,0.9,1,1.2l0.1,0.1c0.1,0.1,0.1,0.2,0.2,0.3c0.1,0.1,0.3,0.3,0.4,0.4s0.1,0.2,0.2,0.3h-0.1l-0.1,0.1h-0.1
			c-0.1,0-0.1,0-0.2,0c0,0.1,0,0.1,0,0.2l0,0.1c0.1,0.1,0.2,0.3,0.2,0.4h0h0h0c0,0.1,0,0.2,0.1,0.3l0.2,0.1l0.3,0.4
			c-0.1,0.1-0.1,0.1,0,0.6c0,0.1,0,0.1,0,0.1h-0.1c0.1,0.3,0.3,0.5,0.4,0.7c-0.1,0-0.1,0.1-0.2,0.1c0,0.2,0.1,0.3,0.2,0.4l-0.2,0
			l-0.1,0c-0.1,0-0.1,0-0.2,0l-0.1-0.1c-0.1,0-0.1-0.1-0.2-0.1c0.1,0.1,0.1,0.3,0.2,0.4c0.1,0.1,0.2,0.3,0.3,0.5l0.1,0.1
			c0,0.1,0.1,0.1,0.1,0.2c-0.2,0.1-0.5,0-0.6-0.1c-0.1,0-0.1,0.1-0.2,0.1c-0.1,0.1-0.1,0.2,0.1,0.4h0.1c0.2,0.2,0.4,0.2,0.4,0.2h0.1
			c0.2,0.2,0.4,0.4,0.7,0.6c0.1,0.2,0.2,0.4,0.4,0.7c0.9,1,0.9,1,1.2,2.2c0,0.1,0,0.1-0.1,0.2c-0.1,0.1-0.1,0.1-0.1,0.1
			c-0.2-0.1-0.5-0.1-0.7-0.3c-0.3,0-0.5,0-0.7,0.1c-0.3,0-0.3,0-0.4-0.1H124l0,0.1c0,0.1,0.1,0.1,0.1,0.2c-0.1,0.1-0.2,0.1-0.3,0.1
			v0.1c0.4,0.4,0.4,1,0.8,1.4c0.1,0.3,0.2,0.6,0.3,0.8c0,0.4,0.1,0.8,0.3,1.2c0,0.1,0.1,0.1,0.1,0.2c0,0,0,0.1,0,0.1l0,0.1
			c0,0.2,0,0.3,0.2,0.7c0.1,0,0.2,0,0.2,0c0.1,0,0.1-0.1,0.2-0.1c0.1,0.1,0.1,0.1,0.2,0.2c0.1,0,0.1-0.1,0.2-0.1
			c0.1,0.1,0.3,0.2,0.4,0.2c0.1,0.2,0.2,0.3,0.3,0.5c0,0,0-0.1,0-0.2H127l0-0.1c0.4,0,0.1-0.7,0.6-0.7c0.2-0.3,0.2-0.8,0.6-1
			l-0.2-0.5c-0.3-0.3-0.4-0.8-0.5-1.2c0-0.1,0-0.1,0-0.2c0-0.1,0.1-0.1,0.1-0.1c0-0.3,0-0.3,0.1-0.6c0.1,0,0.1,0,0.2-0.1
			c0-0.1-0.1-0.3-0.2-0.4l-0.1-0.1c-0.4-0.7-0.6-1.1-0.1-0.9h0c0.1,0.1,0.2,0.1,0.3,0.2h0.2l0-0.1c-0.1-0.2-0.1-0.3-0.2-0.5
			c0-0.1,0.1-0.1,0.1-0.1l0.1-0.1c0-0.1,0-0.3-0.1-0.4c0.7,0.1,0.6,0.8,1,1.2c0.1,0.1,0.2,0.2,0.2,0.3c0.8,0.7,1.4,1.6,1.9,2.6
			c0,0,0,0,0,0.4c-0.1,0-0.2,0-0.3,0.1c0,0,0.1,0.1,0.1,0.2c0.2,0.2,0.2,0.4,0.4,0.6c0.1,0,0.2,0,0.2,0l-0.2-0.5
			c0-0.5-0.2-1-0.3-1.5c0,0,0-0.1-0.1-0.1l-0.1,0c0,0-0.1-0.1-0.1-0.2l-0.1-0.2l0.1,0c0.1,0.1,0.2,0.2,0.2,0.3
			c-0.1-0.6-0.6-0.9-0.9-1.4c-0.2-0.1-0.9-1.1-1-1.2h0c-0.1-0.1-0.2-0.3-0.2-0.4h-0.1c-0.1-0.1-0.2-0.2-0.2-0.3l0-0.1l0-0.1l0-0.1
			c-0.1-0.1-0.2-0.3-0.3-0.4l0.1,0c0.5,0.5,1.1,1.1,1.5,1.8c0.3,0.4,0.6,0.9,0.9,1.3c0.6,1.3,0.6,1.3,0.7,1.4
			c0.1,0.2,0.2,0.4,0.3,0.6l0,0l0-0.1c0,0.1,0,0.2,0.3,0.7c0-0.1,0-0.1,0-0.2v-0.1c0.1,0.3,0.3,0.6,0.4,0.9c0,0,0,0,0.1,0
			c0-0.1,0-0.3-0.1-0.4l-0.1-0.2c0-0.1-0.1-0.2-0.1-0.3l0.1,0.1l0,0c-0.1-0.2-0.1-0.4-0.2-0.6c0-0.1-0.1-0.3-0.2-0.4
			c0,0.1,0.1,0.2,0.1,0.3c-0.1-0.2-0.6-1.1-0.6-1.1c0,0,0-0.1-0.1-0.1l0-0.1h0c0,0.1,0.1,0.1,0.1,0.2l0,0l0,0
			c-0.1-0.2-0.2-0.4-0.2-0.6c0.1,0.1,0.2,0.3,0.3,0.5c0,0.1,0.1,0.2,0.1,0.2c0.1,0.4,0.3,0.7,0.5,1.1l0.1,0.2c0,0.1,0.1,0.1,0.1,0.2
			c0,0.1,0.1,0.2,0.1,0.4l0,0.1v0v0.1l0,0.1v0c0,0.1,0.1,0.2,0.1,0.3l0,0.1l0,0.1c0,0.1,0.1,0.3,0.1,0.4v0.1v0l-0.1-0.2
			c0,0,0-0.1-0.1-0.2c0-0.1-0.1-0.2-0.1-0.3c0-0.1,0-0.1-0.1-0.2l0,0c-0.7-1.7-1.8-4-2.6-5.7C127.4,201.6,127,201,125.8,199.3
			 M117.3,195.9L117.3,195.9L117.3,195.9c0,0.1,0,0.2,0,0.2l0,0l0,0c0,0,0.1,0.1,0.1,0.1s0,0.1,0.1,0.2c0,0.1,0.1,0.1,0.1,0.1l0.1,0
			v-0.1l0-0.1c-0.1-0.1-0.1-0.2-0.1-0.2h0c0,0,0,0,0,0s-0.1-0.1-0.1-0.1v-0.1C117.4,196,117.4,196,117.3,195.9 M123,200.4
			c-0.1-0.1-0.1-0.2-0.2-0.2c-0.2-0.1-0.3-0.3-0.5-0.5l0,0c0,0.1,0.2,0.2,0.1,0.3c0,0,0,0-0.6-0.7l-0.1,0c-0.2-0.3-0.5-0.7-0.6-0.6
			c0,0-0.1-0.1-0.1-0.1c-0.1-0.1-0.3-0.2-0.4-0.3c-0.2-0.1-0.3-0.3-0.4-0.4c-0.2-0.1-0.4-0.1-0.5-0.2l-0.1-0.3l0.1,0
			c0,0-0.1-0.1-0.1-0.1c-0.1-0.1-0.1-0.3-0.2-0.4c-0.1-0.1-0.2-0.3-0.4-0.4l-0.5,0.1c-0.4-0.7-0.4-0.8-0.5-0.8h0l-0.1,0
			c0,0-0.1,0-0.2,0c0,0,0,0,0.3,0.5c0.1,0.1,0.3,0.2,0.3,0.4c-0.1,0.1-0.2-0.1-0.4-0.1c0.1,0.3,0.3,0.5,0.5,0.5l0.1,0.1l0.1,0.1
			c0.1,0.1,0.2,0.2,0.3,0.3c-0.1,0.1-0.1,0.1,0.1,0.4c0,0,0.1,0,0.1,0v0l0.3,0.2h0.1c-0.1-0.1-0.1-0.1-0.1-0.2
			c0.2,0.2,0.4,0.4,0.5,0.6h0v0.1c0.1,0.1,0.1,0.2,0.2,0.2l0.3,0l0-0.1c0.4,0.1,0.4,0.6,0.8,0.7c0.1,0.2,0.4,0.3,0.4,0.6
			c-0.1,0-0.2-0.1-0.4-0.1h0h0l0,0.1c0,0,0,0.1,0.1,0.1h-0.1c0.1,0.2,0.1,0.2,0.2,0.2c0.2-0.2,0.2,0,0.3,0.2h-0.1
			c0,0.1,0,0.1,0.1,0.2l-0.1,0h0c0,0.1,0.2,0.4,0.3,0.3c0,0,0-0.1,0.1-0.1l0.5,0.1c0,0,0.3,0.3-0.1,0.3c0,0.1,0,0.1,0,0.2h0
			l-0.1,0.1c0.2,0.4,0.2,0.4,0.2,0.6l0.1,0.1c0.1,0,0.1-0.1,0.1-0.1c0,0,0,0,0-0.2c0,0,0,0,0.2,0.1h0.2c-0.2-0.3-0.2-0.3-0.2-0.3
			c0.1,0,0.1,0,0.2,0c0.1,0,0.2,0,0.2,0c0-0.1,0-0.1,0-0.2v0c0.1,0,0.2,0.1,0.3,0.2h0c0,0,0.1,0,0.2-0.1c0,0-0.1-0.1,0-0.2h0.1v-0.1
			c-0.1-0.1-0.2-0.3-0.4-0.4l0-0.1c-0.1-0.1-0.1-0.1-0.1-0.1l0.1,0l-0.1-0.2L123,200.4 M119.1,199.1L119.1,199.1 M120,199.1
			l-0.5-0.5c-0.1-0.1-0.1-0.1-0.2-0.1c0,0-0.1-0.1-0.1-0.1h0c0,0,0,0.1-0.1,0.1c0,0,0,0.1,0,0.2c-0.1-0.1-0.2-0.1-0.3-0.2l-0.1,0
			c0.1,0.2,0.3,0.4,0.4,0.6h0v0.1l-0.1,0l-0.1,0.1c0,0-0.1-0.1-0.1-0.1l-0.1,0l0.6,0.8c0.1,0,0.1,0,0.2,0l0.2,0.4l-0.1,0
			c0,0.1,0,0.2,0.1,0.2c0.1,0.1,0.1,0.2,0.2,0.3l0,0.1c0.1,0.3,0.4,0.4,0.4,0.4c0-0.1,0.1-0.1,0.2,0c0,0,0,0,0-0.4l0.5-0.1
			c0-0.1-0.1-0.1-0.1-0.2c0,0-0.1-0.1-0.1-0.1c-0.1-0.1-0.1-0.1-0.1-0.2l0,0c-0.1-0.3-0.3-0.6-0.5-0.8l-0.2-0.2h0.1
			C120,199.3,120,199.2,120,199.1 M134.5,218.7l-0.7-3.4c-0.2-0.3-0.3-0.7-0.5-1c-0.1,0.7,0.3,1.3,0.4,2c0,0,0,0-0.1-0.1
			c-0.1-0.2-0.2-0.3-0.3-0.5c-0.1,0-0.2,0.1-0.2,0.1l-2.3-4.4c-0.1,0.3-0.5,0.5-0.7,0.8c-0.3-0.4-0.3-0.4-0.6-0.5
			c-0.1,0.2-0.2,0.4-0.2,0.7c-0.2,0-0.4,0.1-0.6,0.2c0.1,0.6,0.1,0.6,0,0.8h-0.3l-0.2,0.2h-0.1l-0.3,0h-0.1c-0.2,0.1-0.5,0-0.7-0.2
			l-0.2-0.1c0,0.4,0.1,0.9,0.2,1.3c-0.2,0-0.3,0.1-0.5,0.1c0.1,0.4,0.2,0.8,0.3,1.2c-0.2,0-0.4,0.1-0.5,0.3c0.1,0.6,0.2,1.3,0.3,1.9
			c0,0.2,0.1,0.3,0.1,0.5l-0.5,0.1c0,0.4-0.1,0.9-0.3,1.3c-1.2,0.8-0.1,2.3-1.1,3.1l-0.1,0l-0.2,0.1c0,0.1,0,0.1-0.4,2.3l0,0.5
			c0.3,0,0.5,0,0.8,0c0,0.1,0.1,0.2,0.1,0.2c-0.2,0.5-0.2,0.5-0.2,2.5c0,0.1,0,0.2,0,0.5c-0.1,0.3-0.1,0.3-0.4,0.6
			c0,0.3,0.1,0.7,0.1,1c0,0.1,0,0.2,0,0.3c0,0.7,0.1,0.8,0.6,1.5h0.3c0.1,0.2,0.2,0.5,0.2,0.8l0.3,0c-0.1,1.3-0.1,1.3,0.9,1.8
			c0,0.3-0.1,0.5-0.1,0.8c0.4,0.3,0.5,0.8,1.1,1c0.2-0.2,0.2-0.5,0.4-0.7c0.2,0,0.4,0,0.5-0.1h0.1c0.2,0,0.3,0,0.5,0l0.1,0.2
			c0.7-0.1,0.7-1.1,1.6-1.1c0,0,0,0,0.1-0.1c0.1-0.2,0.2-0.3,0.3-0.4l0.2,0.1c-0.1,1-0.1,1,0.1,1.2c0.3-0.1,0.5-0.1,0.8-0.2
			c-0.1,0.3-0.1,0.6-0.2,1.1c-1.8,7.2-1.8,7.2-2.2,7.8c0,0.1-0.1,0.2-0.1,0.3c-0.7,1.6-1.2,2.7-4.9,8.3c-0.3,0.4-0.6,0.8-0.9,1.2
			c-1,1.3-2.2,2.6-3.4,3.8l-0.2,0.2c-0.4,0.3-0.4,0.3-0.6,0.5l0,0c-0.4,0.4-0.4,0.4-0.6,0.5l0.1-0.1c1.4-1.3,3.1-3,4.4-4.3
			c1.6-1.8,1.6-1.8,4.3-5.6c1.3-2,1.3-2,3.3-6.3c1-2.2,1-2.2,2.3-6.8c0.8-3.5,1.3-7.1,1.3-10.7C135.2,223.5,135.2,223.5,134.5,218.7
			 M113.1,246.3c0.1-1.4-0.1-1.5-0.3-1.7c-0.2,0-0.5,0-0.7,0c-0.7-0.2-0.8-1.4-1.8-1.1l-0.9,0c-0.6-0.3-1-0.5-1.1,0
			c-0.2,0.1-0.3,0.2-0.7-0.1c0-0.1,0-0.1,0.4-0.4c-1-0.6-1-0.6-1.5-0.7c-0.1,0-0.2,0-0.3-0.1c-0.2-0.2-0.5-0.2-0.8-0.1
			c0,0.2-0.1,0.4-0.1,0.7h-0.6c0-0.1,0-0.3,0.1-0.4c0.1-0.1,0.2-0.2,0.3-0.3l0.2-0.1l0-0.2c0,0-0.3-0.1-0.8-0.2h-0.2h-0.2l-0.2,0.1
			c0,0.4-0.1,0.6-0.7,0.5c0-0.1,0-0.3,0.1-0.4c1-1,1-1,0.7-1.5h-0.4c0-0.3,0-0.5,0.1-0.8c-0.1-0.3-0.2-0.6-0.3-0.9
			c0,0-1.5-0.7-1.9-0.9s-0.8,0.1-1.1,0.1H100c-1.4-0.2-1.5-0.5-1.8-1.4c-0.1,0-0.1,0-0.9-0.4c0,0,0-0.1,0-0.2
			c-0.5-0.1-0.5-0.4-0.5-0.7c-0.1,0-0.2,0-0.3,0c-0.6,0.2-0.6,0.2-0.8,0.2c0-0.2-0.1-0.4-0.1-0.6c0.1,0,0.2-0.1,0.3-0.2
			c-0.1-0.2-0.2-0.2-0.7-0.3l-0.4,0.3c0,0-0.1,0-0.1,0c-0.2-0.1-0.4-0.1-0.6-0.1c-0.3,0.7-0.3,0.7-0.6,0.7c-0.3-0.2-0.6-0.6-1-0.6
			c-0.3,0-0.6,0-1-0.1l-0.4-0.1c0-0.2,0-0.3-0.2-0.4c-0.5,0-0.8-0.5-1.3-0.3c0,0.2-0.1,0.4-0.2,0.5c-0.3,0-0.5,0.1-0.7,0.3
			c-0.2,0.4,0.2,0.9,0,1.3c-0.8-0.4-0.1-1.2-0.5-1.7c0.1-0.3,0.7-0.8,0.7-0.8l-0.1-0.2h-0.3c-0.5,0.1-0.5,0.1-0.5,0.6
			c-0.3,0-0.6,0-1,0c-0.4,0.4-1,0.6-1.5,0.5c0,0.3,0,0.6-0.1,0.9c-0.2,0.2-0.4,0.2-0.6,0.2c-0.1,0.2-0.2,0.5-0.3,0.7
			c-0.6,0.4-0.7,0.7-0.7,0.9c0.1,0.1,0.2,0.1,0.4,0.1c0,0.6,0.7,1.3,0,1.8c-0.1,0.9-0.1,0.9-0.3,1.1l-0.4,0c0,0.1,0.1,0.4,0.1,0.5
			c-0.1,0.1-0.3,0.2-0.4,0.2c0,0.1,0,0.2,0,0.3c-0.4,0.1-0.7,0.1-0.6,0.8c-0.2,0-0.4,0-0.6,0.1c0,0.4,0,0.8,0.1,1.2l0.2,0.1
			c0.2-0.1,0.4-0.1,0.6,0c0,0.1,0,0.3-0.1,0.4c-0.2,0.1-0.4,0.1-0.6,0.2c0,0.3,0,0.3-0.4,0.6c-0.1,0.3-0.1,0.3,0.2,0.7
			c0,0,0,0.1,0,0.1c0.1,1.3,1.9,1.4,2.1,2.7c0,0.1,0,0.2,0,0.3c2.3,3.3,2.3,3.3,2.6,3.3c0,0,1.1,0.2,2.3,1.5c0.1,0,0.3,0,0.4,0
			c0,0.4,0,0.8,0,1.2c0,0.1,0,0.3,0,0.4l0,0.1c0,0.1,0,0.1,0,0.2l0,0.2c0,0.1,0,0.1-0.1,0.2c0,0.1-0.1,0.2,0,0.4l0,0
			c0,0.1,0,0.1,0,0.2c0,0.1,0,0.1,0,0.2v0.1c0,0,0,0.1-0.1,0.2c0,0.1,0,0.3,0.1,0.4v0.1c0,0.1,0,0.1,0,0.2c-0.1,0.4-0.4,0.7-0.4,1.1
			c-0.1,0.5-0.3,1-0.5,1.5c0,0,0,0.1,0,0.1c0.3,1.4,0.3,1.7-0.4,2.3c0,0.1,0,0.2,0,0.2c0,0.1,0,0.1,0,0.2v0.1
			c-0.1,0.3-0.4,0.5-0.6,0.8c0.3,0.5,0.2,0.7,0,1.3l0.1,0.2c0.1,0.1,0.1,0.2,0.1,0.3l-0.2,0.1c-0.1,0.4-0.1,0.4-0.1,0.5l0.2,0.1h0.3
			l0-0.6h0.3c0,0.1,0,0.2-0.1,0.3l-0.2,0.1c0,0.1,0,0.3,0,0.4c0,0,0,0-0.1,0.7c-0.1-0.1-0.2-0.1-0.2-0.2c0,0,0,0,0-0.2
			c0,0,0,0-0.1,0c0,0.1,0,0.1,0.2,0.3c0.1,0.1,0.1,0.2,0.1,0.3c-0.1-0.1-0.3-0.2-0.4-0.2c0,0.1,0,0.1-0.2,0.3c0,0.1,0,0.1,0,0.2
			c0.1,0,0.3,0.1,0.4,0.1c0,0,0,0.1,0,0.2l0.2,0c0,0.1,0,0.1,0.1,0.2c-0.4,0-0.4,0-0.6,0.1c0,0.1,0,0.1,0.1,0.2l0.1,0.1
			c0,0,0,0,0,0.2c0,0.1,0.1,0.2,0.2,0.3l-0.1,0l0.1,0c0,0,0.1,0,0.1,0.2l0.2,0v0l0,0.1c0.1,0.2,0.4,0.3,0.5,0.5h0.2c0,0,0,0,0.1,0.1
			s0.3,0,0.4,0.1c0.1,0,0.1,0,0.2,0h0.5c0.1-0.1,0.1-0.1,0.2-0.1c-0.1,0-0.3,0-0.4-0.1c0,0,0-0.1-0.2-0.1c0-0.1,0-0.3-0.1-0.4v0
			c0-0.1,0-0.2-0.1-0.4c0,0,0,0,0-0.1c0-0.1,0-0.2,0.1-0.3c0.1,0,0.2,0,0.3,0c0-0.1,0-0.1,0-0.2c0.3-0.2,0.6-0.5,0.9-0.7
			c0,0,0-0.1-0.1-0.1l-0.2,0c-0.3-0.3-0.3-0.3-0.3-0.4c0,0,0-0.1,0-0.1c0.1-0.1,0.2-0.1,0.4-0.2h0.5c0-0.2,0.1-0.3,0.2-0.5
			c0.1-0.1,0.2-0.3,0.3-0.5c0.4,0,0.4,0,0.5-0.2c0,0,0,0-0.1-0.1h0h0c-0.1,0.1-0.2,0.1-0.4,0.1c0-0.1,0-0.3,0-0.4l0-0.2
			c0.1,0,0.2,0,0.3,0l0.2,0.1c0.2,0,0.4,0,0.6-0.2c0,0,0,0,0.1-0.2l0.2-0.1c0-0.1,0-0.3,0-0.4c0-0.1,0-0.1,0-0.2c0.2,0,0.4,0,0.6,0
			h0.2c0.1,0,0.3,0,0.4-0.1c0.2,0,0.4,0,0.6,0c0,0,0.8-0.5,1.1-0.8l0.2-0.2l0.1-0.3c-0.1,0-0.1,0-0.2,0c0-0.1,0-0.1,0.1-0.3
			c-0.1-0.2-0.3-0.3-0.4-0.4c0-0.1,0-0.1,0-0.2h0.4c1.5,0.2,1.5,0.2,2.2-0.3c1.7-1.6,1.7-1.6,1.8-1.6c-0.1,0.1-0.2,0.2-0.2,0.3
			c0.1,0,2.2-1.5,2.2-2.2c0-0.4,0-0.8,1.8-1.8l0.6,0c0.2-0.1,0.5-0.3,0.7-0.4c0.5,0,1-0.1,1.4-0.2c0-0.1,0.1-0.2,0.2-0.3
			c0.2-0.1,0.2-0.1,1.7-1.8c0.1,0,0.1,0,0.7-1.1c0-0.1,0.1-0.2,0.1-0.2c0.2-0.2,0.4-0.5,0.5-0.8c0-0.1,0.1-0.2,0.1-0.3
			c0-0.1,0-0.1,0-0.2c0-0.1,0.1-0.3,0.1-0.4c0.1-0.3,0.2-0.6,0.4-0.8c0,0,1.3-1.1,1.6-1.4l1.2-1.3
			C112.9,246.8,113.1,246.5,113.1,246.3 M93.5,228.9L93.5,228.9c0-0.1-0.2,0-0.3-0.2c-0.1-0.1,0-0.3,0-0.4c-0.3,0.1-0.6,0.1-0.9,0.2
			H92c-0.2,0-0.3-0.1-0.5-0.2h-0.1c-0.1,0-0.2,0.2-0.3,0.2c0,0-0.5,0-0.5,0c-0.2,0-0.3-0.2-0.5-0.3s-0.4-0.3-0.7-0.3l-1.1,0
			c-0.2,0-0.4,0-0.6,0.1c0,0.3,0,0.6,0,0.9c0.2,0.2,0.4,0.4,0.6,0.6h0.3c0.4,0,0.6-0.4,1-0.4c0.2,0,0.3,0.1,0.5,0.1s0.3-0.1,0.5-0.1
			c0.4,0,0.8,0,1.2-0.1c0.1-0.1,0.2-0.1,0.3,0c0.3,0.1,0.5,0.1,0.8,0.1h0.3C93.4,229.1,93.4,229,93.5,228.9 M85.2,229.3L85.2,229.3
			c0-0.1,0.1-0.3,0-0.4c-0.1-0.1-0.2,0-0.3-0.1c-0.1,0-0.2-0.1-0.3-0.2h-0.1h-0.9c0.1,0.1,0.1,0.2,0.2,0.3l0.1,0.1
			c0.1,0,0.1,0,0.2,0c0.2,0,0.4,0.2,0.4,0.2s0.1,0.1,0.1,0.2c0,0,0,0.1,0,0.1c0.1,0,0.2,0,0.3,0C85,229.5,85,229.6,85.2,229.3
			 M84.2,227.5h2.4c-0.3-0.4-0.7-0.8-1.2-1H85c-0.3,0.1-0.7,0.1-1,0c-0.2-0.1-0.3-0.3-0.5-0.4c-0.3-0.2-0.6-0.3-0.9-0.5
			c-0.4-0.2-0.4-0.2-0.4-0.3c-0.1-0.1-0.1-0.2-0.3-0.2h-0.7c0,0,0,0-0.3,0.1c-0.1,0.1-0.3,0-0.4-0.1h-0.7c-0.6,0-0.6,0-0.7,0
			c-0.7,0.5,0.4,1.4,1.2,1c0.2-0.1,0.3-0.3,0.5-0.3c0.2,0,0.4,0,0.6,0c0,0,0.6,0.2,0.7,0.5c0,0.1,0,0.1,0.1,0.2
			c0.2,0.1,0.5,0.2,0.8,0.2c0.2,0,0.3,0,0.4,0.2C83.6,227.3,83.9,227.4,84.2,227.5 M111,191.6c-0.1-0.1-0.3-0.2-0.4-0.4
			c-0.1-0.1-0.2-0.1-0.2-0.2c-0.2-0.1-0.2-0.1-0.3-0.1h0c-0.1-0.1-0.2-0.2-0.3-0.4c-0.1-0.1-0.2-0.1-0.3-0.2l-0.3,0
			c-0.1,0-0.1,0.1,0,0.1c0,0,0.1,0.2,0,0.2l0,0.1c-0.1,0-0.3-0.1-0.4-0.1s-0.2,0.1-0.2,0.2c0,0.1,0,0.1-0.1,0.1h-0.2l-0.2-0.2
			l-0.2-0.2c-0.1-0.1-0.2-0.1-0.3-0.2l-0.1,0.1c0.1,0.1,0.1,0.1,0.2,0.2c-0.3-0.1-0.3-0.1-0.3-0.1c0,0-0.3,0-0.3,0.1
			c0,0.2,0.3,0.5,0.5,0.4v-0.1c0.3-0.1,0.6,0.2,0.8,0.4c-0.2-0.1-0.4,0-0.7,0l0.3,0.3l0.1-0.1h0.3l0.1,0l0.3,0.4l0.2,0.2h0.1
			c0.1-0.1,0.2-0.1,0.3-0.1h0.1c0.2-0.1,0.3,0.1,0.5,0.2c0.2,0.1,0.3,0.1,0.5,0l0-0.2c-0.1-0.2-0.1-0.2-0.1-0.2c0-0.1,0-0.1,0-0.1
			h0.1c0-0.1-0.1-0.2,0-0.3C110.6,191.7,110.6,191.7,111,191.6 M100.1,205.1L100.1,205.1c0-0.1-0.1-0.2-0.1-0.3
			c-0.3,0-0.3,0-0.4-0.1c-0.2-0.1-0.4-0.2-0.6-0.3c0-0.1-0.1-0.1-0.2-0.1c-0.2-0.1-0.4,0-0.5-0.1c-0.1,0-0.2-0.1-0.3-0.1
			c0.1-0.4,0.1-0.4,0.1-0.5c0-0.1,0.1,0,0.2-0.1c0.1-0.1,0.1-0.3,0-0.4c0,0-0.1-0.1-0.1-0.1c-0.1,0-0.1,0-0.2,0
			c-0.1,0-0.2,0.1-0.3,0.1c0,0.1,0,0.1,0,0.2c0,0.1,0,0.2,0,0.3c0,0,0,0.1,0,0.1c-0.2,0.4-0.5,0.7-0.8,1.1c-0.1,0.1-0.2,0.2-0.3,0.4
			c0,0.1-0.1,0.2,0,0.4c0,0.1,0.1,0.2,0.1,0.3l1.9,0c0.2,0,0.2,0,0.5,0.2c0.2,0.2,0.5,0.4,0.8,0.5c0,0,0-0.1,0.1-0.1s0.2-0.1,0-0.7
			C100,205.6,100,205.3,100.1,205.1 M94.7,204.5L94.7,204.5c-0.1,0-0.2-0.1-0.2-0.1c0,0-0.1,0-0.1,0c-0.1,0-0.2,0-0.2,0
			c-0.1,0-0.3-0.1-0.4-0.2c-0.1-0.1-0.1-0.1-0.2-0.1c-0.1,0-0.1,0-0.2,0l-0.3,0.1c0.1,0,0.2,0.1,0.3,0.1c0.1,0.1,0.1,0.2,0.2,0.2
			l0.1,0c0.1,0.1,0.2,0.1,0.2,0.2s0.1,0.1,0.2,0.2c0.1,0,0.1,0.1,0.2,0.1C94.3,204.9,94.4,205,94.7,204.5 M93.1,181.9
			c-0.2,0-0.3,0-0.5-0.1h-0.1c0.2,0,0.3,0.1,0.5,0.2c-0.1,0-0.2,0-0.3,0c0.1,0,0.2,0.1,0.3,0.1l0,0h0c0.2,0.1,0.4,0.1,0.5,0.2
			c-0.3-0.1-0.5-0.2-0.8-0.3l-0.3-0.1c-0.2-0.1-0.4-0.1-0.6-0.2h0h-0.1c0.2,0,0.4,0.1,0.6,0.1h-0.1l0.1,0c-0.1,0-0.2-0.1-0.3-0.1v0
			c-0.1,0-0.2,0-0.2,0c-0.1,0-0.1,0-0.2,0l0.1,0l0,0l0,0l0,0v0c-0.2,0-0.3-0.1-0.4-0.2c0.1,0,0.1,0,0.2,0l-0.1,0c0.1,0,0.1,0,0.2,0
			l-0.2,0l0,0l-0.3,0l0,0l-0.5-0.1c0,0,0,0,0.1,0h-0.1h-0.2h-0.1l0,0h0.1h-0.1H90h0l-0.2,0h0.2l-0.4-0.1h0h-0.2h-0.2l0.1,0h0l0,0
			c0.1,0,0.2,0.1,0.4,0.1h-0.1h-0.1c-0.1,0-0.2,0-0.3,0l0.1,0h-0.1l0,0l0.1,0l0,0l0,0h0.1h0h0l0.2,0.1h0h0h0h0h0l0,0h0h-0.1l0,0h0
			l0.1,0h0l0.1,0h0.1h0l0.1,0l0.1,0h0h0h0l0.1,0h-0.1h0l0,0l-0.1,0h0h-0.1l-0.2,0l0,0h0l0,0h0h0l-0.1,0h-0.1c-0.1,0-0.1,0-0.2,0
			l0.2,0.1h0l0.1,0h0h0l0.1,0h0l0.1,0h0H90h0h0h0l0,0h0h0l-0.1,0l0,0h0l-0.1,0l0,0h0h0h0h0h0h-0.1l0.1,0.1l0.2,0.1l0,0l0,0l0,0
			l0.1,0.1l0,0l-0.1,0l-0.1,0l0-0.1l0,0l0,0h0h0l0,0h0l0,0l-0.1,0h0h0h0h-0.1l0,0v0l0,0l0,0l0,0l0,0l0,0h-0.1l0,0h-0.2l0,0l0,0l0,0
			H89l0,0h0l0,0l0,0h0h0.1h0l0.1,0l0,0l0.1,0l0,0h-0.1h-0.1h0h0l0,0H89l0,0l-0.1,0l-0.1,0l0,0h0l0,0l0,0h0l0,0l0,0l0,0l0,0v0l0,0
			l0,0.1h0l0,0l0,0l0.1,0.1c0,0-0.1,0-0.1,0l0,0l0,0h-0.2v0l-0.1,0.1v0.1l0,0h-0.1l0,0l0,0l0,0l0,0v0l0,0h0v0.2h0.1l0,0l0,0h0h0.1
			h0.1l0,0.1l0,0l0,0v0l0,0.1v0.1l0,0h-0.1l0,0l-0.1,0h0h-0.1h-0.1c0,0-0.1,0-0.1,0v0c0,0,0,0,0,0.1l0,0c0,0-0.1,0-0.1,0
			c-0.1,0-0.2,0-0.3,0l0,0l0,0l0,0v0.1v0l0,0h-0.1c-0.1,0.1-0.1,0.1,0.1,0.3c0.1,0,0.1,0,0.2,0.1h0.2l0.1,0h0c0,0,0.1,0.1,0.2,0.1
			h0.1l0.1,0h0h0.1H89h0.1c0,0.1,0,0.1,0,0.2l0,0l-0.2,0.3h0h0h0h0h-0.1h0l-0.1,0h0l-0.2,0h0v0.1h-0.1l0,0.1l0.1,0.1h0
			c0.1,0,0.3,0.1,0.4,0.1h0l0,0v0l0,0l0.1,0l0,0v0l0,0l0,0h0h0l0.1,0h0l0,0H89h0l0,0v0c0,0,0-0.1-0.1-0.1h0.1c0.1,0,0.1,0,0.2,0h0h0
			h0l0,0v-0.1h0.1h0c0.1,0,0.1,0,0.2,0v0l0,0l0,0h0l0,0v0c0.1,0,0.1,0,0.2,0h0H90h0.1l0,0l0.1,0.1l0,0h0h0.2h0c0,0,0.1,0,0.1,0.1
			l0.1,0h0.1l0.1,0.1l0.1,0h0.1l0.1,0.1l0.1,0.2l0.1,0.1l0,0l0,0h0.1h0h0h0l0.1,0.1v0c0,0,0.1,0.1,0.1,0.1l0.1,0l0,0l0,0
			c0,0,0,0,0.2,0.2c0,0,0.1,0.1,0.1,0.1h0l0.1,0.1c0,0,0,0.1,0,0.1c0,0.1,0,0.1,0.2,0.2c0,0.1,0.1,0.1,0.1,0.2c0,0.1,0,0.1,0,0.2
			h0.2c0,0.1,0.1,0.1,0,0.1l-0.1,0c0,0.1,0.1,0.2,0.1,0.3H93c0,0,0,0.1,0.1,0.2c0.1,0.1,0.2,0.1,0.2,0.1c0.1,0,0.1,0,0.2,0h0.1
			c0.1,0,0.2,0,0.3,0l0-0.1c0.4-0.2,0.5,0.3,0.8,0.3h0c0.2,0.1,0.3,0.2,0.5,0.3v0.1h-0.2H95h-0.2c-0.3,0-0.6-0.3-1-0.1
			c0.1,0.1,0.2,0.2,0.4,0.3l0,0.1h-0.1c0,0-0.2,0.1,0,0.3s0.5,0.1,0.7,0.3l0.1,0c0-0.1,0-0.1,0.1-0.2c0.1,0,0.2,0,0.3,0
			c0-0.1-0.1-0.2-0.2-0.3c-0.1,0-0.2,0-0.3,0l-0.1-0.1h-0.2v-0.1h0.2c0.1,0.1,0.3,0.1,0.4,0.1h0.2c0.1,0,0.2,0.1,0.2,0.1l0,0l0,0.1
			l0,0.1l0,0.1c0,0,0,0,0,0.1c0.1,0.1,0.2,0.1,0.3,0.2l0.1,0.2h-0.2h-0.1c0,0,0,0.1-0.1,0.2h-0.2l-0.1,0l-0.1,0
			c0.1,0.1,0.1,0.3,0.1,0.4l-0.2,0c0,0.1,0,0.1-0.2,0.2l0,0.1l0,0.1c0,0,0,0.1,0,0.1c0.2,0.2,0.6,0.2,0.7,0.5
			c-0.1,0-0.1,0.1-0.2,0.1c0,0,0.3,0.7,0.8,0.6l0-0.1h0.1c0,0,0.1,0,0.1,0c0.1,0.1,0.1,0.1,0.1,0.2c0,0-0.1,0-0.1,0l-0.1,0
			c0.4,0.7,0.4,0.7,0.5,0.7c0.1-0.1,0.1-0.2,0.1-0.3h0.2c0.2,0.2,0.3,0.5,0.4,0.8c0,0.1-0.1,0.1-0.2,0.2c-0.3,0.4,2.5,2.5,2.9,2.5
			c0.1,0,0.1,0,0.2,0c0.1,0,0.1,0,0.2-0.1h0c0.6,0.1,1.6,1.2,1.8,0.4l0-0.1l-0.1-0.2c-0.1-0.3,0.1-0.6-0.1-0.9
			c-0.2-0.3-0.4-0.4-0.6-0.7l0-0.1c0.1,0,0.1-0.1,0.2-0.1c0.1,0,0.1,0,0.1,0c0.1,0,0.1,0,0.2-0.1c-0.2-0.3-0.2-0.3-0.1-0.4h0.1
			l0-0.1c-0.1-0.2-0.2-0.3-0.3-0.5c0.1-0.3-0.4-0.4-0.5-0.6c0.2,0,0.2,0,0.3-0.1c0-0.1-0.1-0.2-0.2-0.3l0.5,0
			c-0.1-0.1-0.2-0.2-0.2-0.3h0.3c0.1,0.1,0.2,0.3,0.3,0.4c0.1,0,0.2,0,0.3,0c0.1-0.1,0-0.3,0.1-0.4h0.1c0.1,0,0.2,0,0.2-0.1
			l-0.1-0.1c0-0.1,0-0.2,0-0.3c0-0.1,0-0.1-0.1-0.2l0.1,0l-0.1-0.2l0.1-0.1l-0.1-0.1v-0.1l0.1-0.1c-0.1-0.1-0.2-0.2-0.3-0.3l0,0h0.1
			h0h0l0,0l0.1,0h0l0.1,0c0.6,0.2,0.6,0.2,0.8,0.1c0.1-0.1,0-0.3,0-0.4c0.1,0,0.1,0,0.2,0c0,0,0.1-0.1,0.1-0.1l0-0.1l0.1,0
			c0-0.2-0.2-0.3-0.2-0.5c0.1,0,0.2,0,0.3-0.1c0-0.1-0.1-0.2-0.2-0.3h-0.1l0,0.1v0.1h-0.1c-0.2,0-0.3-0.2-0.5-0.2h-0.1
			c-0.3,0-0.5-0.1-0.7-0.2c-0.1,0-0.1-0.1-0.1-0.2l0,0c0.1,0,0.2,0,0.2-0.1c0-0.1,0-0.1-0.1-0.2c0.3,0.1,0.5,0.4,0.8,0.5l0.1-0.1
			l-0.1-0.1c0.1,0,0.2,0,0.2-0.1c-0.6-0.4-1.3-0.7-1.9-1v-0.1c0.3,0.1,0.3,0.1,0.4,0.2c0,0,0.1,0,0.1,0l-0.4-0.3l-0.1-0.1
			c-0.3-0.2-0.4-0.3-0.6-0.2l0,0.1c-0.1,0-0.1,0-0.2,0c0,0-0.1-0.1-0.1-0.2c-0.1-0.1-0.2-0.1-0.3-0.1l0,0c0.1,0,0.1,0,0.2,0l0.3,0.2
			c0.1,0,0.1,0,0.2,0V186c0,0,0.1,0,0.1,0c0.1,0,0.1,0,0.2,0c-0.2-0.2-0.4-0.3-0.7-0.4l0,0.1c-0.2-0.1-0.3-0.1-0.3-0.2
			c0.1,0,0.2,0,0.3,0l-0.1-0.1h0.1c0,0,0,0,0.1-0.1c-0.4-0.2-0.8-0.3-1.2-0.5v0h0.1l-0.4-0.2c-0.4-0.2-0.9-0.2-1.3-0.4l-0.1-0.1
			l-0.1,0l0.1,0h0.1l0.3,0.1h0.1c0.2,0.1,0.5,0.2,0.7,0.3v0l-1-0.5c-0.1,0-0.1-0.1-0.2-0.1l-0.1,0l-0.3-0.1l-0.1,0h-0.1
			c-0.1,0-0.2-0.1-0.3-0.2h0.1l0,0c0,0-0.4-0.2-0.6-0.1c0.1,0,0.1,0.1,0.2,0.1c-0.2-0.1-0.3-0.1-0.5-0.2c0,0,0,0-0.7-0.3h0.1
			c-0.1,0-0.2-0.1-0.3-0.2v0c-0.4-0.2-0.8-0.4-1.3-0.5l-0.1,0h-0.2c-0.1,0-0.2-0.1-0.3-0.1l0.2,0l0,0l-0.4-0.1v0
			C93.4,182,93.3,181.9,93.1,181.9 M88.6,181.9l-0.1-0.1l0,0h-0.1l-0.1-0.1l-0.1-0.1h0h-0.1l-0.1,0l0,0h-0.1c0,0,0,0-0.1,0l-0.1,0
			c0,0,0,0.1,0,0.1l0,0l-0.1-0.1h0c0,0.1,0,0.1,0,0.1s-0.1-0.1-0.1-0.1h-0.1c0,0,0,0-0.1,0.1h0l-0.1-0.1h-0.1l0,0h-0.1l-0.2,0
			l-0.1,0.1h0.1c0,0,0,0,0.1,0.1l0,0.1c0,0-0.1,0-0.1,0l0-0.1h-0.1l0,0c0,0,0-0.1,0-0.1h-0.1v-0.1h0h-0.1c-0.1,0.1-0.1,0.1-0.2,0.1
			h-0.1l0,0h0l-0.2,0.1H86l-0.1,0.1h-0.1l-0.1,0.1h0l0,0l-0.1,0.1l0.1,0c-0.1,0.1-0.1,0.1,0,0.1c0.1,0,0.1,0.1,0.2,0.1l0.2-0.1
			l0.1-0.1h0.1l-0.1,0.1l-0.1,0.1l-0.1,0.1c0.3,0,0.3,0,0.5-0.1h0.1h0.2l0.1-0.1l0.1-0.1l0.1-0.1c0.1,0,0.1,0,0.2-0.1h0.1h-0.1
			l-0.3,0.2H87h0.1h0.1l-0.1,0.1c0,0-0.1,0-0.1,0h-0.1l-0.1,0c-0.1,0-0.2,0-0.3,0.1h0h-0.1l-0.1,0.1h0.1l0,0.1v0.1l0.2,0h-0.1h-0.1
			c-0.1-0.3-0.1-0.3-0.3-0.3l-0.2,0l-0.1,0.1v0.1v0.1l0.1,0.2l0.1,0.1l0.2,0c-0.1,0.1-0.2,0-0.2,0.1l-0.1,0.1l-0.1-0.2l-0.1,0
			l-0.2,0l-0.2,0l-0.2,0.1l-0.1,0.1l-0.1,0.1l0.1,0h0.2h0.2l-0.2,0.1l0,0.1c0.2,0,0.2,0,0.6-0.2l-0.1,0.2l-0.2,0.1h-0.2
			c-0.1,0-0.2-0.1-0.2-0.1c0,0-0.1-0.1-0.1-0.1c-0.1,0-0.2,0-0.3,0c-0.1,0.3-0.1,0.3-0.4,0.4l-0.2,0.1v0.2l0.1,0.1
			c0.1,0,0.2-0.1,0.3-0.1c0.1,0,0.2,0.1,0.4,0.1c0.1,0,0.1-0.1,0.2-0.1c0,0.1,0,0.1,0.4,0h0.2c0,0,0,0-0.1,0.1v0c0.1,0,0.2,0,0.3,0
			H86c0.4-0.2,0.4-0.2,0.5-0.3v-0.1l-0.2,0.1v-0.1l0.2,0l0.1-0.2v-0.2h0.1c0.3,0,0.3,0,0.3,0c0.1-0.1,0-0.2,0-0.3h0.2c0,0,0,0,0.1,0
			c0,0,0-0.1-0.1-0.2c-0.1,0-0.2-0.1-0.3-0.1l-0.1,0.1l-0.1,0.1v-0.1l0.2-0.1c0,0,0,0,0.1-0.1h0.1l0,0.1c0.2,0,0.2,0,0.4-0.1
			l-0.1-0.1h0.2l0.1,0.1h0.1l0.1-0.1l-0.1-0.1l-0.1,0H88l0-0.1l0.1,0c0.1-0.1,0.2-0.1,0.3-0.3h0.1v0l-0.1-0.1c0,0-0.1,0.1-0.1,0.1
			c-0.1,0-0.1,0-0.2,0v-0.1l0.1,0h0.2c0,0,0.1,0,0.1-0.1h0.1C88.6,181.9,88.6,181.9,88.6,181.9 M85.5,183.2c0-0.1,0.1-0.1,0.1-0.2
			c-0.2-0.1-0.2-0.1-0.2-0.1l0-0.1l0.1-0.1v-0.1c-0.1,0.1-0.1,0.1-0.1,0.1c0,0,0.1-0.1,0.1-0.1c0-0.1-0.1,0-0.1-0.1c0-0.1,0,0,0-0.1
			c0-0.1,0.1-0.1,0.1-0.2v0h0c-0.1,0-0.2,0-0.2,0.1h0.1l0,0c-0.1,0.1-0.2,0.1-0.2,0.1h-0.1c-0.1,0-0.1,0-0.1,0.1c0,0.1,0,0-0.1,0.1
			h-0.1h-0.1l-0.2,0.1l-0.1,0l-0.2,0.1h0.1l-0.2,0.1v0.1h0.1l0.2,0h0.2l0,0.1c-0.1,0-0.1,0-0.2,0.1h-0.1l-0.2,0.1l0,0.1l-0.1,0.2
			l0.2,0.1l0.2,0l0.1,0.1l0.1-0.1h0.1c0,0,0,0,0.1-0.1l0.1-0.1l0.1,0.1c0,0,0.1-0.1,0.1-0.1c0,0,0,0,0.1,0S85.4,183.3,85.5,183.2
			C85.5,183.2,85.5,183.2,85.5,183.2 M83.9,184.2c0.1,0,0.2-0.1,0.2-0.1c0-0.1,0-0.1,0-0.2l-0.3,0l-0.2,0.2L83.9,184.2 M85.9,185.4
			L85.9,185.4l0-0.2l-0.3-0.1l-0.3-0.1l-0.3,0.1l-0.4,0.1l-0.3,0l-0.3-0.1h-0.3l-0.1-0.2l0.1-0.2l0.1-0.2h-0.3l-0.2,0
			c-0.1,0.2-0.2,0.4-0.2,0.6l-0.3,0.2v0.2l0.1,0.2l0.4,0l0.3-0.1c0.2,0.3,0.2,0.3,0.5,0.2h0.5l0.2-0.1l0.1-0.1l0.1,0.1
			c0.7,0,0.7,0,0.7-0.2C85.7,185.5,85.7,185.4,85.9,185.4 M80.9,185.7h0.2l0-0.1L80.9,185.7 M82.2,185.6l0.2-0.2l-0.1-0.1l0-0.2
			l-0.2,0l-0.4,0.1l-0.2,0.2v0.2h0.2l0.1,0.1L82.2,185.6 M82.8,184.7l0.3-0.2l0.1-0.1v-0.2h-0.2l-0.1-0.1l-0.2,0l-0.2,0.2l0.1,0.1
			l0.1,0.1L82.8,184.7 M83.5,183.9l0.1-0.1h-0.4l-0.2,0.1l-0.1,0.1h0.3l0.2,0L83.5,183.9 M83.5,183.7l0.1-0.1v-0.1l-0.2,0v-0.1
			l-0.2,0.1l-0.1,0.1l-0.2,0.2l0.1,0h0.2L83.5,183.7z M83.7,182.9l0.2,0l0.2-0.1v0H84l-0.2,0.1h0.1L83.7,182.9 M82.5,183.8l0.2-0.1
			l0.2-0.1v-0.1l0.1-0.1l0-0.1v-0.1h-0.1l0.1-0.1V183h-0.1l-0.3,0.1l-0.1,0.1h0.1v0.1l-0.2,0.1h-0.1l-0.1,0.1h0.1l-0.1,0.1l0.2-0.1
			h0.1l0.2,0l-0.1,0.2L82.5,183.8 M81.9,183.9l0.2,0v-0.1h-0.2l-0.2,0.1L81.9,183.9L81.9,183.9z M81.9,184.7c0,0,0.1-0.1,0.1-0.1
			c0,0,0-0.1-0.1-0.1c-0.1,0-0.2,0-0.2,0.1v-0.2h-0.2c0,0.1-0.1,0.6-0.3,0.4l0.1-0.3h-0.2l-0.2,0.2l-0.2,0.2v-0.2l0.2-0.3l-0.1-0.1
			l-0.3,0.2c0,0-0.1,0.1-0.1,0.2c0,0.1,0,0.2,0,0.3l0.1,0.1l0.2-0.1l0.1,0l0,0.1l-0.2,0.3l0.2-0.1h0.2l0.2,0l0.2-0.2l0.2-0.2
			C81.8,184.8,81.9,184.8,81.9,184.7 M80,185.2c0.1-0.1,0-0.1,0-0.1L80,185.2c-0.1-0.1-0.2,0-0.2,0l-0.1,0.2c0.1,0,0.1,0,0.2,0
			C79.9,185.3,80,185.3,80,185.2 M81,184.2l0.2-0.1l0.2-0.2l0-0.1C81.2,183.8,81.1,184,81,184.2 M86.6,190.6l0.2-0.3l-0.2-0.3
			c-0.2,0-0.4,0-0.6,0c-0.1,0.1-0.2,0.2-0.3,0.4l0.2,0.3l0.4,0L86.6,190.6 M82.3,186.4c0.1-0.1,0.2-0.2,0.3-0.2
			c-0.1-0.1-0.1-0.1-0.2-0.1h-0.2l-0.2-0.1c-0.4,0-0.4,0-0.4,0.1c-0.1,0.2-0.2,0.2-0.4,0.3l-0.3,0.4c-0.1,0.2-0.1,0.3-0.2,0.5
			l0.3-0.1l0.3-0.2l0.2-0.3l0.3,0.1l0.3-0.2L82.3,186.4 M79.9,187.5l0.3-0.3l0-0.2l0-0.2l-0.1-0.1c0.5-0.2,0.5-0.2,0.4-0.5v-0.1
			h-0.2l-0.2,0.2h-0.1L80,186l-0.3,0.1l-0.1,0.2v0.2c-0.5,0.4-0.5,0.4-0.5,0.1h-0.2l-0.2,0.2l0.1,0.2l0.1,0.1l0.2,0.1
			c0,0.1,0,0.2-0.1,0.3v0.1c0,0.1,0.2,0.2,0.2,0.2c0.1-0.1,0.3-0.1,0.4-0.2L79.9,187.5 M78.4,186.5l0.3-0.3v-0.1l-0.3-0.1l-0.3,0.1
			c0,0.1,0,0.2,0,0.2s0,0,0,0.3L78.4,186.5 M77.9,186.2l0.2-0.2H78l-0.2,0.1L77.9,186.2L77.9,186.2z M81.2,183.4
			c0.2-0.1,0.2-0.1,0.2-0.1c0,0,0-0.1,0-0.1h-0.2l-0.2,0l-0.4,0.1h0.1H81L81.2,183.4 M80.7,183.7l0.2-0.1h-0.1h-0.2l-0.2,0l-0.3,0.1
			l-0.3,0.2l0,0l0.2,0h0.2l0.2-0.1l0.1-0.1L80.7,183.7 M79.9,183.7H80l0.3-0.2v-0.1h-0.1l-0.2,0.1L79.9,183.7L79.9,183.7z
			 M79.5,185.2l0.4-0.3l0-0.1h-0.1l-0.2,0.1l-0.1-0.1l0.1-0.2l0.2-0.1l0.2-0.2h-0.1l-0.2,0.1l-0.2,0l-0.1,0.1c0,0.1,0,0.1-0.4,0.3
			l0.1,0c-0.1,0.1-0.2,0.1-0.3,0.1h-0.2l0-0.1l0.2-0.2l0-0.1h-0.1v-0.1l0,0l-0.3,0.1l-0.4,0.2l-0.3,0.1l-0.4,0.2l-0.3,0.2h0.2
			l0.1,0.1l0.2,0l0.3,0l0.2,0.1h0.2c-0.1,0.1-0.2,0.1-0.3,0.1h-0.2l-0.3,0.1l-0.2,0.1l0,0.1h0.3l0.5-0.1l0.4-0.2l0.2,0h0.3h0.3
			L79.5,185.2 M79,184.2l0.2,0l0.2-0.1h-0.2v0L79,184.2 M77.1,184.9l0.6-0.3l-0.3,0.1l-0.4,0.2C77,184.9,77.1,184.9,77.1,184.9z
			 M79.1,184l0.4-0.2l-0.1-0.1l-0.3,0.1h-0.2h-0.1c-0.4,0.1-0.8,0.3-1.1,0.5h-0.2l-0.3,0.1l-0.2,0.2v0.1l0.3-0.1l-0.1,0.1l0.2-0.1
			l0.2-0.1h0.1l0.3-0.2l0.3-0.1l-0.2,0.2l0.2,0l0.3-0.1L79.1,184 M77.6,188.8l0.2-0.2l-0.1-0.2l-0.4-0.3v-0.3l0.3-0.3l0-0.2l0.3-0.4
			l0.1-0.3l-0.1-0.2h-0.3l-0.3,0.3l-0.2,0.2l-0.2,0.3l-0.2,0.1h-0.1v-0.1l0.2-0.2l0.1-0.2l0.1-0.3l-0.2,0l-0.2,0.2l-0.1,0.2h-0.2
			l-0.2,0.1l-0.2,0l0.2-0.2l0.3-0.2h-0.1l-0.1-0.1H76l-0.3,0.2l-0.1-0.1l0.2-0.1l0.3-0.2l0-0.1h-0.2l-0.4,0.2l-0.3,0.1l-0.3,0.1
			l-0.4,0.1l-0.3,0.3l-0.4,0.2l-0.2,0.1h0.2l-0.1,0.2l0.3-0.1h0.3l0,0.2l-0.4,0.1l-0.3,0.1l-0.3,0.1l0.1,0.2h0.3h0.4
			c0.1,0,0.2,0,0.3,0c0.1,0,0.1,0.1,0.1,0.2c-0.1,0.1-0.1,0.1-0.2,0.2l-0.5,0h-0.5l-0.5,0.2l-0.2,0.4l0.4,0h0.3l-0.2,0.4l0.1,0.2
			h0.4h0.4l0.4-0.2l0.4-0.1l0.5-0.2l0.3-0.1v0.1l0.3,0l0.3,0.3l0.3,0l0.3,0l0.3-0.3l-0.1-0.2h0.2L77.6,188.8 M75.4,189.6l0.2-0.3
			l-0.6,0.1l-0.7,0.3l0.3,0.1l0.4-0.2C75.1,189.7,75.4,189.6,75.4,189.6z M75.6,186.3l0.4-0.1l0.3-0.2l0-0.3l-0.1,0l-0.4,0.1
			l-0.1-0.1l0-0.1l-0.2,0h-0.4l-0.2,0.2l-0.4,0.3l-0.7,0.4l-1.2,0.6l0.2,0.2l-0.4,0.5l0.5-0.3h0.3l0.4-0.2c0.5-0.3,1-0.6,1.5-0.8
			L75.6,186.3 M97.8,202.3l0.2-0.3l-0.3-0.2l0.1-0.3l-0.1-0.5L97,201l-0.2-0.3h-0.7l-0.5,0.3l-0.3,0.2l-0.3-0.1l0.1-0.4l0.6-0.2
			l0.7-0.2l0.3-0.3h-0.5l-0.5-0.2l-0.7-0.2l-0.4-0.3l-0.5-0.3l-0.2-0.3l0.3-0.1l0.1-0.2l-0.5-0.5l-0.6-0.6l-0.8-1l-0.3-0.5l-0.4,0.6
			c0,0.2,0,0.3,0.1,0.5l-0.5,0.2l-0.3,0.4h-0.5l-0.1-0.3l-0.4-0.2l-0.5,0.1l0.1-0.6l0-0.8l0-0.4l-0.6,0l-0.5-0.3l-0.4-0.4l-0.7-0.4
			l-0.3,0.2l-0.6,0l-0.2-0.2h-0.7l-0.3,0.3l0.2,0.4l-0.1,0.6l0,0.4l0.2,0.5H85v0.5l-0.3,0.3l0.3,0.2l0.5,0.4l0.1,0.7
			c0,0.2,0,0.5,0,0.8l-0.4,0.5l-0.6,0.4l-0.7,0.1l0.4,0.7c0,0.3,0,0.6-0.1,0.8l0.2,0.5l-0.1,0.4l-0.4,0.5l-0.8,0.1l-0.4-0.7
			l-0.5-0.6c0-0.2,0-0.3,0.1-0.5l-0.1-0.7l0.2-0.6l-0.9-0.1l-0.7,0l-0.3-0.2l-0.8-0.2l-0.2-0.4l-0.6-0.4l-0.6-0.4l-1,0.2l-0.1-0.4
			l-0.1-0.8l-0.4-0.2l-0.2-0.3l0.4-1l0.7-0.7l0.6-0.6l0.6-0.2l0.5-0.3l-0.1-0.4l-0.6-0.2l-0.6-0.3l0.8,0.1l0.6,0.2l0.3-0.1l0.2-0.4
			l0.5,0.2l0.3-0.1l0.1-0.3l0.2-0.1l0.2-0.4l-0.4,0l-0.5-0.1l-0.1-0.2l-0.5-0.2l0.4,0l0.5,0.2l0.3,0.1l0.4-0.1l0.4-0.3l-0.2-0.3h0.4
			l0.2,0.3l-0.3,0.3l-0.3,0.5c-0.1,0.2-0.1,0.4-0.2,0.7l-0.5,0.1l0,0.3l0.4,0c0,0.1,0,0.2,0,0.3c0.2,0,0.4,0,0.6-0.1l0.2-0.3l0.6,0
			l0.3,0.1l0.3,0.1h0.5l0.1-0.4l-0.4-0.1l-0.1-0.5l-0.5-0.1l-0.3-0.4l-0.4-0.1c0-0.1,0-0.2,0.1-0.3l0.3,0.1l0.2-0.2v-0.2h0.4
			l0.2-0.3l0.4-0.3l0.2-0.3l-0.2-0.3l-0.1-0.4l0.4-0.1l0.2-0.3l-0.2-0.3l-0.3-0.2l-0.4-0.2h0.5l0.1-0.2l0.3,0l0.2,0.2h0.4l0.4-0.1
			l-0.3-0.3l0.2-0.1l0.3,0.3l0.4,0l0.1,0.3l0.3,0.1l0.1,0.2l0.3,0.1l0.2,0.3l0.3,0.1l0.3,0.3l0.1,0.4l-0.4,0.4l-0.4,0.4l0.2,0.4
			l-0.7,0.1l-0.4-0.1c-0.1,0-0.3,0-0.4,0l-0.5,0.4c0,0.1,0,0.3,0,0.4l0.6,0.1l0.5,0l0-0.2l0.2-0.1l0.3,0.1l0.6,0.2l0.6,0.5l0.1,0.3
			l0.4,0.4H89l0.6,0.5h0.8l0.5,0.2v-0.3l-0.9-0.6l-0.4-0.3l-0.2-0.3l0.6,0.3l1,0.5l0.5,0.3c0-0.2,0-0.3-0.1-0.5l0.2-0.4l-0.5-0.2
			l-0.2-0.6l-0.6-0.2l-0.8-0.8l0.2-0.2l0.2-0.2l1,0.7l0.4,0.4l0.4,0.1v-0.5l0.4-0.2v-0.2h0.3l0.1-0.2l-0.1-0.3h-0.6
			c0-0.1,0-0.1,0-0.2l-0.4-0.3l-0.3,0l-0.4-0.2h-0.3l-0.1-0.2l-0.1-0.2h-0.5h-0.2l0-0.4h0.3l0.2-0.2l-0.5-0.1l0-0.1l0.2,0l-0.3-0.2
			l-0.4-0.1l0.1-0.2l-0.3-0.1h-0.4l-0.1-0.2h-0.3l-0.1,0l0.2-0.2l-0.4-0.1l-0.4,0.1l-0.3-0.3v-0.2H87v-0.2l-0.4-0.1h-0.5l-0.1,0.2
			l-0.3,0l-0.2-0.1l-0.1,0.2h-0.3l0-0.3l0.2-0.2l-0.2-0.3l0-0.3h-0.4l-0.3,0.2h-0.3l-0.3,0.1l-0.2,0.3l0.1,0.3l-0.2,0.2l0.1,0.4
			l-0.2,0l-0.2-0.3l0.1-0.4l0.1-0.3l0.3-0.3l0.3-0.2h-0.4l-0.4,0l-0.5,0.3l-0.5,0.5l-0.3,0.6l0.3,0.1l0.3,0v0.3l-0.3-0.1l-0.4,0.1
			l0.1,0.3h0.4l0.2-0.1l0.2,0.2l0.5,0.2l-0.3,0.1l-0.1,0.3l0.2,0.2l-0.5,0.6l-0.3,0.4l-0.4,0.3l-0.2-0.1l0-0.5l0.3-0.3l-0.3-0.5
			l-0.5,0.4l-0.2-0.7l-0.1-0.1l0.2-0.3l0.1-0.4l-0.2,0l0.1-0.3l-0.2-0.3l-0.4,0l-0.2,0.2H80l-0.4,0.3l-0.1,0.3l-0.2,0.2l0.1,0.4
			l0.2,0.2l-0.3,0.3l-0.3-0.1l-0.1,0.4h0.3l0.5-0.2c-0.1,0.1-0.1,0.3-0.2,0.4l-0.9,0.4l-0.2,0.6l-0.3-0.3l0.3-0.4h-0.3l0.2-0.4h0.2
			l0.2-0.5l-0.4-0.3l-0.3,0.4l-0.4,0.2l0.3,0.4l-0.4,0.2l-0.3,0.3h-1l-0.3-0.3l-0.3-0.1l-0.2-0.3l-0.5,0.2l-0.7,0.2l-0.2,0.4
			l-0.5,0.6l0.2-0.7l-0.3-0.3l-0.6,0.1l-1-0.2l0.2-0.2l0.5-0.1l-0.2-0.4h-0.3l-0.5-0.4l0.1-0.3l-0.3-0.1h-0.2l-0.4,0.2l-0.3,0
			l0.4-0.5l-0.6,0.4l-0.2-0.1l0.5-0.6l-0.1-0.1l-0.6,0.4l-0.5,0.2l-0.3,0l-0.5,0.1l-0.7,0.2l0.8-0.4l0.4-0.1l0.3-0.1l0.3-0.2l-0.1,0
			l-0.5,0.1l-0.7,0.2h-0.2h-0.2l-0.9,0.3l-0.3-0.1l0.3-0.4l-0.4-0.1l0.1-0.2l-0.1-0.1l-0.4,0.1l0.1-0.2l-0.2,0v-0.2l-0.2,0h-0.1
			c-3.1,1.8-6,4-8.6,6.5l0.4-0.1l-0.1,0.2l-0.6,0.2l-0.4,0.3l-0.2,0.2l-0.3,0.3l0.9-0.4l0.4-0.1c0.2-0.2,0.4-0.5,0.6-0.6l0.2,0.1
			l-0.1,0.4v0.4l0.1,0.2l0.4-0.1l0.1,0.2l0.2,0l-0.1,0.4l0.1,0.4c0,0.2,0,0.4,0,0.6c0.1,0,0.2-0.1,0.3-0.1l0,0.3l-0.1,0.4l0.3,0.2
			l-0.3,0.4l0.2,0.3l-0.3,0.3l0.1,0.2l0.2,0.1l-0.3,0.4l-0.1,0.5l-0.3,0.5l-0.2,0.5l0.3,0.1l-0.2,0.6l0.1,0.6l-0.1,0.4l0.2,0.3
			l0.3,0.2l0.3,0.2l-0.1,0.3l0.3,0.4l0.2,0.4l-0.1,0.8l-0.3,0.6l-0.1-0.4l-0.1-0.5l0.1-0.3l-0.2-0.3l-0.2-0.1l0.2-0.5h-0.3l-0.1-0.3
			l-0.1-0.1l-0.2-0.1l-0.3,0v0.4l0.1,0.3l0.1,0.4l0.3,0.6l-0.1,0.6l-0.1,0.8l-0.3,0.6l-0.4,0.8c-0.1,0.3-0.2,0.6-0.4,1l-0.3,0.2
			l-0.2,0.6l0,0.7l-0.3,0.6l-0.1,0.5l0.1,0.5l-0.2,0.7l0.1,0.6l0.3,0.5v1l0.2,0.4l0,0.5l0.2,0.6l0.5,0l0.3,0.4l0.5,0.4l0.3,0.5v0.6
			l0.1,0.6l0.1,1.1l0.3,0.5l0.4,0.5l0.1,0.4l-0.4,0.3l0.2,0.4l0.4,0.4l0.5,0.5l0.3,0.5l-0.1,0.4l0.1,0.3l0.5,0.2l0.4,0.5l0.3,0.4
			v0.5l0.3-0.1l0.1-0.5l-0.2-0.6l-0.4-0.2l0-0.5l-0.4-0.4l-0.1-0.7l-0.1-0.6l-0.4-0.5l-0.1-0.6l-0.4-0.2l-0.1-0.8l-0.4-0.6l0.1-0.8
			h0.4l0.5,0.3l0.2,0.5l-0.1,0.7l0.4,1l0.5,0.8l0.5,0.6l0.3,0.5l0,0.6l0.6,0.4l0.4,0.6l0.3,0.6l0.7,0.9l0.2,0.7l0.4,0.4l-0.4,0.3
			l-0.1,0.5l0.8,0.7l0.6,0.6l0.8,0.3l0.8,0.6l1,0.5l1.1,0.6l0.9,0.3l0.6,0l0.2-0.3l0.6-0.1l0.7,0.4l0.8,0.7l0.4,0.5h0.7H75l0.4,0.2
			l0.4,0.6l0.8,0.3v-0.4l0.5,0.2c1.4,1.8,1.4,1.8,1.3,2.2l0.3,0.3l0.3-0.1l0.5,0.2c0.9,0.8,0.9,0.8,1.3,0.8l1.1,0.6l0.6,0.3l0-0.6
			l0.3-0.4l1.1,0.1l0.1,0.4l0.3,0l0.2-0.5l-0.4-0.5h-1.1l-0.7,0l-1.1-0.1l-0.5-0.3l-0.7-0.7l0-0.6V233l0.2-1c0-0.2,0-0.4,0-0.7
			l-0.3-0.5l-0.7-0.4l-1,0.1l-0.8-0.2l-0.8,0.3l-0.5-0.4l0.5-0.4v-0.7l0.2-0.4l0.3-0.7c0-0.3,0-0.5,0-0.8l0.4-0.3l0.1-0.6l-0.3-0.2
			l-1.1,0.1l-0.7,0.1l-0.3,0.5l-0.3,0.8l-0.3,0.7l-0.6,0.1l-0.8,0.2l-0.9,0.1l-0.4-0.6l-0.7-0.4l-0.2-0.6l-0.5-0.8l-0.2-1.4l-0.1-1
			l0.4-0.8l0.2-0.9l-0.3-0.9l0.7-0.8h0.5l0.6-0.4l0.6-0.5l0.7,0.1l0.5,0.2l0.4-0.2l0.3,0.5h0.6l0.5,0l-0.1-0.4l0.2-0.6h0.8l0.6-0.1
			l1,0.1l0.4,0.5H79l0.2-0.3l0.3-0.1l0.5,0.5l0.4,0.6v0.6l0.2,0.4l0.1,0.4l0.3,0.3l0.2,0.5l0.4,0.2l0,0.5l0.4,0.1l0.2-0.3l0.2-0.5
			l-0.2-0.6l-0.2-1l-0.5-0.9c0-0.4,0-0.7,0.1-1.3c0.1-0.2,0.2-0.4,0.2-0.6l0.5-0.8l0.6-0.2l0.8-0.6l0.7-0.5l0.7-0.3l0.1-0.5l0.5-0.3
			l-0.4-0.8l-0.3-0.4l0.2-0.4l-0.3-0.4l0.5-0.2l0.4,0.6l0.3-0.6l0.3-0.5l0.3-0.3l0.3-1h1l0.6-0.3l0.7-0.1l-0.2-0.4l0-0.9l0.5-0.6
			h0.6l0.2-0.4H91l0.6-0.4l0.4-0.5c1.1,0,1.1,0,1.7,0.1l-0.2,0.2c-0.3,0-0.6,0-0.9,0l-0.5,0.4c0,0.2,0,0.4,0.1,0.5l0.4,0.2l0.4-0.3
			l0.3-0.2l0.6-0.2l0.6-0.3l0.6-0.1l0.4-0.6l0.4-0.4v-0.5l-0.6,0.2l-0.4,0.7l-0.8,0l-0.6-0.3l-0.7-0.5l-0.4-0.8l0.5-0.4l-0.1-0.6
			l-0.8-0.1l-0.9,0.3l-1,0.6l-0.9,0.9l-0.8,0.5l0.3-0.5l0.5-0.5l0.3-0.3l-0.8-0.2h1l0.2-0.5l0.5-0.4l0.6,0l0.2-0.5l0.5-0.2h0.8
			l1.5-0.1l0.8,0.1l0.6,0l0.5-0.4l0.4-0.6l0.9-0.1L97.8,202.3"/>
	</g>
</g>
<path class="st5" d="M110.2,218.4c-7.2,8-14.9,15.5-23.1,22.5c-4.1,3.5-8.3,6.8-12.6,10.1s-8.7,6.3-13.3,9.2c-2.3,1.4-4.6,2.8-7,4.1
	c-2.4,1.3-4.8,2.5-7.3,3.6c-2.6,1.1-5.2,2-8,2.5c-1.5,0.3-3,0.3-4.5,0c-0.8-0.2-1.6-0.6-2.2-1.2c-0.6-0.6-1.1-1.4-1.3-2.3
	c-0.3-1.5-0.2-3,0.3-4.5c0.4-1.3,0.9-2.7,1.5-3.9c1.2-2.4,2.6-4.8,4.2-7c3.1-4.4,6.6-8.6,10.3-12.5c-3.2,4.3-6.4,8.6-9.2,13.2
	c-1.4,2.2-2.6,4.6-3.7,7c-0.5,1.2-0.9,2.4-1.2,3.6c-0.3,1.1-0.4,2.3-0.1,3.5c0.1,0.4,0.4,0.9,0.7,1.2c0.4,0.3,0.8,0.5,1.3,0.6
	c1.2,0.2,2.4,0.2,3.5-0.1c2.5-0.6,5-1.4,7.3-2.5c4.8-2.2,9.5-4.7,13.9-7.6c4.5-2.8,8.9-5.8,13.2-9c4.3-3.1,8.6-6.4,12.8-9.7
	C94.1,232.6,102.2,225.6,110.2,218.4z"/>
<path class="st6" d="M126.2,213.8c-1.7,1.5-5.7-0.3-8.9-4c-3.2-3.7-4.4-7.9-2.7-9.4l19.2-16.7l11.6,13.4L126.2,213.8z"/>
<path class="st6" d="M145.4,197c-1.7,1.5-5-0.9-8.2-4.6c-3.2-3.7-5.1-7.3-3.4-8.8c3.8-3.3,15.2-1.5,15.2-1.5S149.2,193.7,145.4,197z
	"/>
<path class="st6" d="M134,218.1c2.6-2.2,3.5-14.1,3.5-14.1L123.6,216l5.5,6.3L134,218.1z"/>
<rect x="125.7" y="213.3" transform="matrix(0.7547 -0.6561 0.6561 0.7547 -111.2423 137.5096)" class="st7" width="5.2" height="8.4"/>
<path class="st6" d="M111.4,192c2.6-2.2,14.5-1.4,14.5-1.4l-13.9,12.1l-5.5-6.3L111.4,192z"/>
<rect x="108.5" y="193.6" transform="matrix(0.7547 -0.6561 0.6561 0.7547 -102.5128 121.4325)" class="st7" width="5.2" height="8.4"/>
<path class="st7" d="M126.3,213.1c-0.3,0-0.7,0-1,0c-0.2,0-0.4-0.1-0.5-0.1c-0.4-0.1-0.8-0.2-1.2-0.4c-1.9-1-3.6-2.3-5-3.9
	c-1.4-1.6-2.5-3.5-3.2-5.5c-0.1-0.4-0.2-0.8-0.3-1.2c0-0.2,0-0.4,0-0.6c0-0.3,0-0.7,0.1-1c0-0.1,0.1-0.3,0.2-0.4
	c0.1-0.3,0.3-0.5,0.5-0.7l-3.6,3.2c-1.7,1.5-0.5,5.7,2.7,9.4c3.2,3.7,7.2,5.5,8.9,4l3.6-3.2c-0.2,0.2-0.4,0.3-0.7,0.4
	C126.6,213.1,126.5,213.1,126.3,213.1z"/>
<path class="st7" d="M133,207.3c-0.3,0-0.7,0-1,0c-0.2,0-0.4-0.1-0.5-0.1c-0.4-0.1-0.8-0.2-1.2-0.4c-1.9-1-3.6-2.3-5-4
	c-1.4-1.6-2.5-3.5-3.2-5.5c-0.1-0.4-0.2-0.8-0.3-1.2c0-0.2,0-0.4,0-0.6c0-0.3,0-0.7,0.1-1c0-0.1,0.1-0.3,0.2-0.4
	c0.1-0.3,0.3-0.5,0.5-0.7l-3.6,3.2c-1.7,1.5-0.5,5.7,2.7,9.4s7.2,5.5,8.9,4l3.6-3.2c-0.2,0.2-0.5,0.3-0.7,0.4
	C133.3,207.3,133.1,207.3,133,207.3z"/>
<path class="st7" d="M139.7,201.5c-0.3,0-0.7,0-1,0c-0.2,0-0.4-0.1-0.5-0.1c-0.4-0.1-0.8-0.2-1.2-0.4c-1.9-0.9-3.6-2.3-5-3.9
	c-1.4-1.6-2.5-3.5-3.2-5.5c-0.1-0.4-0.2-0.8-0.3-1.2c0-0.2,0-0.4,0-0.6c0-0.3,0-0.7,0.1-1c0-0.1,0.1-0.3,0.1-0.4
	c0.1-0.3,0.3-0.5,0.5-0.7l-3.6,3.2c-1.7,1.5-0.5,5.7,2.7,9.4c3.2,3.7,7.2,5.5,8.9,4l3.6-3.2c-0.2,0.2-0.5,0.3-0.7,0.4
	C140,201.5,139.8,201.5,139.7,201.5z"/>
</svg>
