<?xml version="1.0" encoding="UTF-8" standalone="no"?>
<!DOCTYPE svg PUBLIC "-//W3C//DTD SVG 20010904//EN" "http://www.w3.org/TR/2001/REC-SVG-20010904/DTD/svg10.dtd">
<svg version="1.0" xmlns="http://www.w3.org/2000/svg" width="121.000000pt" height="121.000000pt" viewBox="0 0 121.000000 121.000000" preserveAspectRatio="xMidYMid meet">

<g transform="translate(0.000000,121.000000) scale(0.100000,-0.100000)" fill="#000000" stroke="none">
<path d="M262 1103 l3 -47 288 -72 c159 -40 291 -75 293 -77 3 -3 -33 -25 -79 -49 l-84 -45 -209 53 c-114 30 -210 54 -211 54 -2 0 -3 -22 -3 -48 l0 -49 138 -34 c75 -18 140 -36 144 -39 4 -3 -58 -39 -137 -80 l-145 -75 0 -52 c0 -29 2 -53 4 -53 2 0 87 43 188 96 100 53 261 137 356 186 l172 90 0 56 0 57 -353 88 c-193 48 -356 87 -360 87 -4 0 -7 -21 -5 -47z"/>
<path d="M805 634 c-88 -47 -247 -130 -352 -185 l-193 -101 0 -57 0 -56 360 -91 361 -91 -3 50 -3 49 -288 73 c-158 40 -290 75 -293 78 -4 3 32 25 79 48 l85 43 189 -47 c103 -26 198 -50 211 -53 21 -6 22 -3 22 43 l0 49 -129 32 c-70 18 -136 32 -145 32 -9 0 -16 3 -16 8 0 7 252 144 278 150 13 4 18 113 5 111 -5 0 -80 -39 -168 -85z"/>
</g>
</svg>