<?xml version="1.0" standalone="no"?>
<!DOCTYPE svg PUBLIC "-//W3C//DTD SVG 20010904//EN"
 "http://www.w3.org/TR/2001/REC-SVG-20010904/DTD/svg10.dtd">
<svg version="1.0" xmlns="http://www.w3.org/2000/svg"
 width="250" height="250" viewBox="0 0 192.000000 192.000000"
 preserveAspectRatio="xMidYMid meet">

<g transform="translate(0.000000,192.000000) scale(0.100000,-0.100000)"
fill="#000000" stroke="none">
<path d="M0 960 l0 -960 958 2 957 3 3 958 2 957 -960 0 -960 0 0 -960z m918
603 c19 -17 292 -583 292 -606 0 -16 -252 -547 -271 -571 -16 -20 -27 -21
-203 -24 -114 -2 -186 0 -186 6 0 13 26 72 154 344 58 125 106 235 106 245 0
9 -61 148 -136 307 -75 160 -138 296 -141 303 -4 10 32 13 180 13 162 0 187
-2 205 -17z m564 -325 c9 -7 51 -73 93 -147 l78 -134 -24 -44 c-13 -24 -49
-86 -79 -136 l-55 -92 -112 -3 c-62 -1 -113 -1 -113 2 0 2 34 63 75 135 41 71
75 133 75 136 0 4 -36 68 -80 144 -44 76 -80 141 -80 145 0 12 206 6 222 -6z
m-944 -139 c34 -72 62 -136 62 -143 0 -23 -119 -266 -133 -272 -23 -8 -141 39
-145 58 -2 10 17 62 43 115 l46 97 -48 104 c-54 119 -53 126 23 153 88 31 84
34 152 -112z"/>
</g>
</svg>
