<?xml version="1.0" encoding="UTF-8"?>
<svg version="1.1" xmlns="http://www.w3.org/2000/svg" width="400" height="277">
<path d="M0 0 C132 0 264 0 400 0 C400 91.41 400 182.82 400 277 C268 277 136 277 0 277 C0 185.59 0 94.18 0 0 Z " fill="#2E313A" transform="translate(0,0)"/>
<path d="M0 0 C4.95 0 9.9 0 15 0 C16.87634761 3.67764132 18.72605214 7.364999 20.5625 11.0625 C21.36204102 12.62000977 21.36204102 12.62000977 22.17773438 14.20898438 C26.99543385 23.99979299 26.99543385 23.99979299 25 30 C23.63513625 33.36475585 22.10757158 36.62004083 20.5 39.875 C20.08363281 40.74125 19.66726562 41.6075 19.23828125 42.5 C16.17484328 48.82515672 16.17484328 48.82515672 15 50 C12.46950598 50.07313567 9.96695163 50.09247527 7.4375 50.0625 C6.37112305 50.05573242 6.37112305 50.05573242 5.28320312 50.04882812 C3.52209987 50.03700864 1.76103964 50.01907263 0 50 C1.78113369 44.0534637 4.51623619 38.69236404 7.34179688 33.18945312 C7.69693359 32.46564453 8.05207031 31.74183594 8.41796875 30.99609375 C8.74563232 30.34825928 9.0732959 29.7004248 9.41088867 29.03295898 C10.62734781 24.83509108 8.79019985 21.20955194 6.93359375 17.4609375 C6.53076172 16.63335937 6.12792969 15.80578125 5.71289062 14.953125 C4.85875724 13.22654603 4.00459028 11.49998368 3.15039062 9.7734375 C2.74884766 8.9484375 2.34730469 8.1234375 1.93359375 7.2734375 C1.56290771 6.52497559 1.19222168 5.77651367 0.81030273 5.00537109 C0 3 0 3 0 0 Z " fill="#F6F6F7" transform="translate(45,114)"/>
<path d="M0 0 C0.33 6.6 0.66 13.2 1 20 C1.86625 18.35 2.7325 16.7 3.625 15 C5.265625 12.2265625 5.265625 12.2265625 7 10 C10.375 9.375 10.375 9.375 13 10 C11.89972055 12.28519577 10.78722971 14.29945448 9.3125 16.375 C7.59077466 19.81845068 7.88118705 21.34521102 9 25 C10.28796166 27.02951535 11.61558 29.03501678 13 31 C13 31.66 13 32.32 13 33 C10.375 33.625 10.375 33.625 7 33 C4.57495765 29.88676995 2.77168347 26.51823667 1 23 C0.67 26.3 0.34 29.6 0 33 C-3.55673617 33.08083491 -6.56815235 32.88973828 -10 32 C-10.495 32.495 -10.495 32.495 -11 33 C-13.36328125 33.23828125 -13.36328125 33.23828125 -16.3125 33.3125 C-17.76076172 33.36857422 -17.76076172 33.36857422 -19.23828125 33.42578125 C-22 33 -22 33 -24.32421875 31.44921875 C-26.64766378 28.05341448 -26.53215279 25.58340399 -26.5 21.5 C-26.51546875 19.53546875 -26.51546875 19.53546875 -26.53125 17.53125 C-26 14 -26 14 -24.30859375 11.55859375 C-21.50194048 9.66374662 -19.92686083 9.49250636 -16.5625 9.5625 C-15.63566406 9.56378906 -14.70882813 9.56507813 -13.75390625 9.56640625 C-11 10 -11 10 -6 13 C-6 9.04 -6 5.08 -6 1 C-4 0 -4 0 0 0 Z " fill="#35373E" transform="translate(349,119)"/>
<path d="M0 0 C0 1.98 0 3.96 0 6 C1.65 6 3.3 6 5 6 C5 6.99 5 7.98 5 9 C5.66 9 6.32 9 7 9 C7.66 9.66 8.32 10.32 9 11 C9.12375 10.360625 9.2475 9.72125 9.375 9.0625 C9.58125 8.381875 9.7875 7.70125 10 7 C12.43954658 5.78022671 14.15305849 5.79846187 16.875 5.75 C17.73867188 5.72421875 18.60234375 5.6984375 19.4921875 5.671875 C22.74148821 6.09701715 23.90992041 6.4235194 26 9 C26.49552365 12.2408027 26.37433117 15.41902486 26.25 18.6875 C26.23195313 19.58017578 26.21390625 20.47285156 26.1953125 21.39257812 C26.14817759 23.59613504 26.08240657 25.79752601 26 28 C-0.43758213 30.28120894 -0.43758213 30.28120894 -5 28 C-6.18681726 24.43954823 -6.09689832 21.56191663 -6.0625 17.8125 C-6.05347656 16.54019531 -6.04445313 15.26789063 -6.03515625 13.95703125 C-6.02355469 12.98121094 -6.01195312 12.00539062 -6 11 C-6.99 11 -7.98 11 -9 11 C-9 9.35 -9 7.7 -9 6 C-8.01 6 -7.02 6 -6 6 C-6 4.35 -6 2.7 -6 1 C-4 0 -4 0 0 0 Z " fill="#34363E" transform="translate(291,123)"/>
<path d="M0 0 C1.98 0 3.96 0 6 0 C6 1.98 6 3.96 6 6 C4.02 6 2.04 6 0 6 C0.33 6.66 0.66 7.32 1 8 C3.475 8.495 3.475 8.495 6 9 C6 16.59 6 24.18 6 32 C4.02 32 2.04 32 0 32 C-0.33 24.74 -0.66 17.48 -1 10 C-3.87838997 12.87838997 -4.49903423 13.78569113 -5.60546875 17.44921875 C-5.86650391 18.29677734 -6.12753906 19.14433594 -6.39648438 20.01757812 C-6.65751953 20.89865234 -6.91855469 21.77972656 -7.1875 22.6875 C-7.46013672 23.58017578 -7.73277344 24.47285156 -8.01367188 25.39257812 C-8.68427653 27.592632 -9.34600892 29.79496166 -10 32 C-12.64 32 -15.28 32 -18 32 C-19.17152378 28.54329268 -20.33639077 25.08437878 -21.5 21.625 C-21.83386719 20.64015625 -22.16773437 19.6553125 -22.51171875 18.640625 C-22.82753906 17.69960937 -23.14335938 16.75859375 -23.46875 15.7890625 C-23.76201172 14.91975098 -24.05527344 14.05043945 -24.35742188 13.15478516 C-25 11 -25 11 -25 9 C-23.02 9 -21.04 9 -19 9 C-18.3299166 11.12392506 -17.66403203 13.24917524 -17 15.375 C-16.62875 16.55835938 -16.2575 17.74171875 -15.875 18.9609375 C-15 22 -15 22 -15 24 C-14.34 24 -13.68 24 -13 24 C-12.87882813 23.41992188 -12.75765625 22.83984375 -12.6328125 22.2421875 C-11.66264526 17.71971558 -10.56602217 13.36249034 -9 9 C-5.535 8.505 -5.535 8.505 -2 8 C-1.34 5.36 -0.68 2.72 0 0 Z " fill="#EDEEEE" transform="translate(150,120)"/>
<path d="M0 0 C3.76744186 1.53488372 3.76744186 1.53488372 5 4 C5.15029677 6.49434832 5.23122109 8.94225298 5.25 11.4375 C5.270625 12.11876953 5.29125 12.80003906 5.3125 13.50195312 C5.35179344 18.51677812 5.35179344 18.51677812 3.609375 20.91015625 C-0.11666967 23.43337582 -3.62462583 23.33857062 -8 23 C-10.64830442 22.16369334 -11.6033712 21.63027922 -13.07421875 19.29296875 C-14.92074815 14.71949721 -14.6189723 9.826667 -14 5 C-10.62528021 -0.66082029 -6.10274587 -1.03713928 0 0 Z " fill="#F0F0F1" transform="translate(227,129)"/>
<path d="M0 0 C0.33 6.6 0.66 13.2 1 20 C1.86625 18.35 2.7325 16.7 3.625 15 C5.265625 12.2265625 5.265625 12.2265625 7 10 C10.375 9.375 10.375 9.375 13 10 C11.89972055 12.28519577 10.78722971 14.29945448 9.3125 16.375 C7.59077466 19.81845068 7.88118705 21.34521102 9 25 C10.28796166 27.02951535 11.61558 29.03501678 13 31 C13 31.66 13 32.32 13 33 C10.375 33.625 10.375 33.625 7 33 C4.57495765 29.88676995 2.77168347 26.51823667 1 23 C0.67 26.3 0.34 29.6 0 33 C-1.98 33 -3.96 33 -6 33 C-6 22.44 -6 11.88 -6 1 C-4 0 -4 0 0 0 Z " fill="#D3D4D5" transform="translate(349,119)"/>
<path d="M0 0 C1.29550781 -0.02126953 1.29550781 -0.02126953 2.6171875 -0.04296875 C5.28575509 0.20227344 6.87704639 0.7510274 9.125 2.1875 C10.29926264 4.53602528 10.24008173 5.92524065 10.22265625 8.5390625 C10.21943359 9.38984375 10.21621094 10.240625 10.21289062 11.1171875 C10.20451172 12.00664062 10.19613281 12.89609375 10.1875 13.8125 C10.18298828 14.7096875 10.17847656 15.606875 10.17382812 16.53125 C10.16202591 18.75006648 10.14556155 20.96875018 10.125 23.1875 C7.66637599 23.24133848 5.2089245 23.28109038 2.75 23.3125 C1.70199219 23.33763672 1.70199219 23.33763672 0.6328125 23.36328125 C-1.20397486 23.38094267 -3.04101963 23.29053261 -4.875 23.1875 C-7.30022207 20.76227793 -7.17129254 20.0154321 -7.1875 16.6875 C-7.20425781 15.8934375 -7.22101563 15.099375 -7.23828125 14.28125 C-7.11839844 13.5903125 -6.99851562 12.899375 -6.875 12.1875 C-3.78611478 10.12824319 -3.16564073 9.9484626 0.3125 10.0625 C2.1996875 10.124375 2.1996875 10.124375 4.125 10.1875 C3.795 8.5375 3.465 6.8875 3.125 5.1875 C0.155 5.1875 -2.815 5.1875 -5.875 5.1875 C-6.205 3.8675 -6.535 2.5475 -6.875 1.1875 C-4.42528376 -0.03735812 -2.73265539 0.02027192 0 0 Z " fill="#EFEFF0" transform="translate(111.875,128.8125)"/>
<path d="M0 0 C1.29550781 -0.03867188 1.29550781 -0.03867188 2.6171875 -0.078125 C5.68690711 0.32352056 6.88991104 1.1303176 9.125 3.25 C9.57910156 5.42651367 9.57910156 5.42651367 9.515625 7.91796875 C9.49628906 9.25698242 9.49628906 9.25698242 9.4765625 10.62304688 C9.44304687 11.55181641 9.40953125 12.48058594 9.375 13.4375 C9.35695312 14.37787109 9.33890625 15.31824219 9.3203125 16.28710938 C9.2731655 18.60909889 9.20738231 20.9290369 9.125 23.25 C6.85475032 23.33097324 4.58367925 23.38917704 2.3125 23.4375 C0.41564453 23.48970703 0.41564453 23.48970703 -1.51953125 23.54296875 C-4.875 23.25 -4.875 23.25 -6.80078125 21.95703125 C-8.61609309 19.07233571 -8.22819931 16.54652689 -7.875 13.25 C-6.64453125 11.54296875 -6.64453125 11.54296875 -4.875 10.25 C-2.61328125 9.95703125 -2.61328125 9.95703125 -0.1875 10.0625 C1.02486328 10.10310547 1.02486328 10.10310547 2.26171875 10.14453125 C2.87660156 10.17933594 3.49148437 10.21414062 4.125 10.25 C4.125 8.6 4.125 6.95 4.125 5.25 C0.495 5.25 -3.135 5.25 -6.875 5.25 C-6.875 3.93 -6.875 2.61 -6.875 1.25 C-4.43545342 0.03022671 -2.72194151 0.04846187 0 0 Z " fill="#F2F3F3" transform="translate(169.875,128.75)"/>
<path d="M0 0 C1.29550781 -0.03867188 1.29550781 -0.03867188 2.6171875 -0.078125 C5.86648821 0.34701715 7.03492041 0.6735194 9.125 3.25 C9.62052365 6.4908027 9.49933117 9.66902486 9.375 12.9375 C9.35695313 13.83017578 9.33890625 14.72285156 9.3203125 15.64257812 C9.27317759 17.84613504 9.20740657 20.04752601 9.125 22.25 C6.8339095 22.44441368 4.54209663 22.63033135 2.25 22.8125 C0.97382813 22.91691406 -0.30234375 23.02132812 -1.6171875 23.12890625 C-4.875 23.25 -4.875 23.25 -6.875 22.25 C-7.71874014 19.26720033 -7.99208065 16.34427443 -7.875 13.25 C-6.4375 11.1875 -6.4375 11.1875 -3.875 10.25 C-1.15438659 10.03235093 1.38484221 10.11299211 4.125 10.25 C4.125 8.6 4.125 6.95 4.125 5.25 C0.495 5.25 -3.135 5.25 -6.875 5.25 C-6.875 3.93 -6.875 2.61 -6.875 1.25 C-4.43545342 0.03022671 -2.72194151 0.04846187 0 0 Z " fill="#F5F5F5" transform="translate(307.875,128.75)"/>
<path d="M0 0 C1.65 0 3.3 0 5 0 C5 0.66 5 1.32 5 2 C6.0209375 1.505 6.0209375 1.505 7.0625 1 C10.55825899 -0.19004561 13.32937859 -0.27702803 17 0 C19 2 19 2 19.22705078 4.15478516 C19.21657715 5.02409668 19.20610352 5.8934082 19.1953125 6.7890625 C19.18886719 7.73007813 19.18242187 8.67109375 19.17578125 9.640625 C19.15902344 10.62546875 19.14226562 11.6103125 19.125 12.625 C19.11597656 13.61757812 19.10695313 14.61015625 19.09765625 15.6328125 C19.07404116 18.08878134 19.04110799 20.54427168 19 23 C17.35 23 15.7 23 14 23 C13.67 17.39 13.34 11.78 13 6 C11.02 6.33 9.04 6.66 7 7 C6.67 12.28 6.34 17.56 6 23 C4.02 23 2.04 23 0 23 C0 15.41 0 7.82 0 0 Z " fill="#EDEEEE" transform="translate(238,129)"/>
<path d="M0 0 C0 1.98 0 3.96 0 6 C1.65 6 3.3 6 5 6 C5 7.32 5 8.64 5 10 C3.35 10 1.7 10 0 10 C0 14.95 0 19.9 0 25 C1.65 25 3.3 25 5 25 C4.67 26.32 4.34 27.64 4 29 C-2.75 29.125 -2.75 29.125 -5 28 C-6.18681726 24.43954823 -6.09689832 21.56191663 -6.0625 17.8125 C-6.05347656 16.54019531 -6.04445313 15.26789063 -6.03515625 13.95703125 C-6.02355469 12.98121094 -6.01195312 12.00539062 -6 11 C-6.99 11 -7.98 11 -9 11 C-9 9.35 -9 7.7 -9 6 C-8.01 6 -7.02 6 -6 6 C-6 4.35 -6 2.7 -6 1 C-4 0 -4 0 0 0 Z " fill="#E8E9EA" transform="translate(291,123)"/>
<path d="M0 0 C0.98484375 0.02707031 1.9696875 0.05414063 2.984375 0.08203125 C3.73203125 0.11683594 4.4796875 0.15164062 5.25 0.1875 C5.25 1.5075 5.25 2.8275 5.25 4.1875 C0.795 4.6825 0.795 4.6825 -3.75 5.1875 C-3.75 6.1775 -3.75 7.1675 -3.75 8.1875 C-3.18410156 8.39246094 -2.61820312 8.59742188 -2.03515625 8.80859375 C-1.30167969 9.07800781 -0.56820313 9.34742188 0.1875 9.625 C0.91839844 9.89183594 1.64929688 10.15867188 2.40234375 10.43359375 C4.25 11.1875 4.25 11.1875 5.25 12.1875 C5.453125 14.18359375 5.453125 14.18359375 5.5 16.625 C5.53867187 17.82962891 5.53867187 17.82962891 5.578125 19.05859375 C5.46984375 19.76113281 5.3615625 20.46367187 5.25 21.1875 C2.10388747 23.28490836 1.33811922 23.44078219 -2.25 23.375 C-3.0234375 23.36855469 -3.796875 23.36210937 -4.59375 23.35546875 C-6.75 23.1875 -6.75 23.1875 -9.75 22.1875 C-9.75 20.8675 -9.75 19.5475 -9.75 18.1875 C-6.78 18.1875 -3.81 18.1875 -0.75 18.1875 C-0.42 16.8675 -0.09 15.5475 0.25 14.1875 C-0.6575 14.105 -1.565 14.0225 -2.5 13.9375 C-6.24841035 13.07248223 -7.54943285 12.31907632 -9.75 9.1875 C-10.25 6.125 -10.25 6.125 -9.75 3.1875 C-6.63883958 0.07633958 -4.30090722 -0.15360383 0 0 Z " fill="#F1F3F3" transform="translate(272.75,128.8125)"/>
<path d="M0 0 C1.2065625 0.0309375 1.2065625 0.0309375 2.4375 0.0625 C2.4375 2.0425 2.4375 4.0225 2.4375 6.0625 C4.0875 6.0625 5.7375 6.0625 7.4375 6.0625 C7.4375 7.7125 7.4375 9.3625 7.4375 11.0625 C5.7875 11.0625 4.1375 11.0625 2.4375 11.0625 C2.7675 15.3525 3.0975 19.6425 3.4375 24.0625 C4.7575 24.3925 6.0775 24.7225 7.4375 25.0625 C7.1075 26.3825 6.7775 27.7025 6.4375 29.0625 C3.0625 29.1875 3.0625 29.1875 -0.5625 29.0625 C-2.5625 27.0625 -2.5625 27.0625 -2.7578125 23.1484375 C-2.74450376 21.57800649 -2.72063602 20.00763779 -2.6875 18.4375 C-2.67847656 17.63570312 -2.66945312 16.83390625 -2.66015625 16.0078125 C-2.63656223 14.02591477 -2.60069065 12.04417019 -2.5625 10.0625 C-3.8825 10.0625 -5.2025 10.0625 -6.5625 10.0625 C-6.5625 8.7425 -6.5625 7.4225 -6.5625 6.0625 C-5.5725 6.0625 -4.5825 6.0625 -3.5625 6.0625 C-3.583125 5.258125 -3.60375 4.45375 -3.625 3.625 C-3.54067676 0.16774696 -3.45725304 0.08432324 0 0 Z " fill="#EBEBEC" transform="translate(189.5625,122.9375)"/>
<path d="M0 0 C5.01844581 -0.77872435 5.01844581 -0.77872435 8 0 C11.89087902 3.59526808 13.9142898 7.34293617 14.1875 12.625 C12.76126962 16.67849687 11.39658006 20.22997354 8 23 C5.09477943 23.60256427 3.00042223 23.3559823 0 23 C1.02973156 20.2276458 2.01618966 17.97745012 3.75 15.5625 C5.32083496 13.00616614 5.32083496 13.00616614 4.375 10 C3.08708711 7.19000824 1.60962556 4.63393273 0 2 C0 1.34 0 0.68 0 0 Z " fill="#F2F3F3" transform="translate(75,128)"/>
<path d="M0 0 C0.79921875 0.03609375 1.5984375 0.0721875 2.421875 0.109375 C3.02515625 0.15578125 3.6284375 0.2021875 4.25 0.25 C4.58 1.9 4.91 3.55 5.25 5.25 C4.115625 5.229375 2.98125 5.20875 1.8125 5.1875 C-1.56575674 4.83422523 -1.56575674 4.83422523 -2.75 6.25 C-2.82226502 8.10287502 -2.8338122 9.95833878 -2.8125 11.8125 C-2.80347656 12.82441406 -2.79445313 13.83632812 -2.78515625 14.87890625 C-2.77355469 15.66136719 -2.76195312 16.44382813 -2.75 17.25 C-0.11 17.58 2.53 17.91 5.25 18.25 C4.92 19.9 4.59 21.55 4.25 23.25 C2.83506449 23.35884119 1.41767057 23.43597617 0 23.5 C-0.78890625 23.54640625 -1.5778125 23.5928125 -2.390625 23.640625 C-4.75 23.25 -4.75 23.25 -7.015625 21.703125 C-9.41517884 18.30916146 -9.28246185 15.87265474 -9.25 11.75 C-9.26546875 9.78546875 -9.26546875 9.78546875 -9.28125 7.78125 C-8.75 4.25 -8.75 4.25 -7.015625 1.796875 C-4.39107764 0.00494267 -3.13562143 -0.18444832 0 0 Z " fill="#F3F4F4" transform="translate(331.75,128.75)"/>
<path d="M0 0 C0.33 0 0.66 0 1 0 C1 1.65 1 3.3 1 5 C1.99 5 2.98 5 4 5 C4 8.96 4 12.92 4 17 C3.34 17 2.68 17 2 17 C1.67 17.66 1.34 18.32 1 19 C0.67 19.33 0.34 19.66 0 20 C-0.33 20.66 -0.66 21.32 -1 22 C-1.99 21.67 -2.98 21.34 -4 21 C-4 18.03 -4 15.06 -4 12 C-8.455 10.02 -8.455 10.02 -13 8 C-12.67 6.68 -12.34 5.36 -12 4 C-8.7 4 -5.4 4 -2 4 C-2 3.34 -2 2.68 -2 2 C-1.34 2 -0.68 2 0 2 C0 1.34 0 0.68 0 0 Z " fill="#35363F" transform="translate(281,129)"/>
<path d="M0 0 C1.65 0 3.3 0 5 0 C5 10.23 5 20.46 5 31 C3.35 31 1.7 31 0 31 C0 20.77 0 10.54 0 0 Z " fill="#FAFBFB" transform="translate(343,120)"/>
<path d="M0 0 C2.40434984 3.97285274 4.01899163 6.89848562 3.9375 11.625 C2.9886496 15.04086145 1.73188841 17.91272066 0 21 C-1.98 20.67 -3.96 20.34 -6 20 C-5.855625 19.29875 -5.71125 18.5975 -5.5625 17.875 C-5.376875 16.92625 -5.19125 15.9775 -5 15 C-4.773125 14.01 -4.54625 13.02 -4.3125 12 C-3.96148143 8.63022169 -4.6074675 7.03080603 -6 4 C-6 3.01 -6 2.02 -6 1 C-4 0 -4 0 0 0 Z " fill="#F3F3F4" transform="translate(42,129)"/>
<path d="M0 0 C1.98 0 3.96 0 6 0 C11.19203837 7.99713293 11.19203837 7.99713293 10.4375 11.9375 C9 14 9 14 7 16 C6.34 15.34 5.68 14.68 5 14 C4.21625 14.66 3.4325 15.32 2.625 16 C0 18 0 18 -2 18 C-1.649375 17.154375 -1.29875 16.30875 -0.9375 15.4375 C0.39400405 10.55531848 -0.4211829 6.73645131 -2 2 C-1.34 2 -0.68 2 0 2 C0 1.34 0 0.68 0 0 Z " fill="#36383F" transform="translate(70,130)"/>
<path d="M0 0 C0.99 0.33 1.98 0.66 3 1 C4.3515625 3.73046875 4.3515625 3.73046875 5.625 7.1875 C6.05039063 8.31542969 6.47578125 9.44335938 6.9140625 10.60546875 C7.92017154 13.75046427 8.55393784 16.73383372 9 20 C5.04 20.495 5.04 20.495 1 21 C0.63685675 18.25091555 0.28419159 15.50116549 -0.0625 12.75 C-0.16626953 11.97269531 -0.27003906 11.19539062 -0.37695312 10.39453125 C-0.47041016 9.64042969 -0.56386719 8.88632813 -0.66015625 8.109375 C-0.74918213 7.41811523 -0.83820801 6.72685547 -0.92993164 6.01464844 C-1.00606235 3.82569152 -0.6249336 2.08994187 0 0 Z " fill="#363741" transform="translate(122,128)"/>
<path d="M0 0 C0.66 0.66 1.32 1.32 2 2 C1.69797757 6.98337011 -0.91271038 11.54387938 -3 16 C-4.32 15.34 -5.64 14.68 -7 14 C-7.33 14.66 -7.66 15.32 -8 16 C-9.32 15.34 -10.64 14.68 -12 14 C-10.7874262 10.27566618 -9.49140021 6.62197194 -8 3 C-7.67 3.99 -7.34 4.98 -7 6 C-5.35 5.34 -3.7 4.68 -2 4 C-2 3.34 -2 2.68 -2 2 C-1.34 2 -0.68 2 0 2 C0 1.34 0 0.68 0 0 Z " fill="#383A42" transform="translate(54,136)"/>
<path d="M0 0 C1.65 0 3.3 0 5 0 C5 6.93 5 13.86 5 21 C3.35 21 1.7 21 0 21 C0 14.07 0 7.14 0 0 Z " fill="#FCFEFD" transform="translate(202,130)"/>
<path d="M0 0 C1.65 0 3.3 0 5 0 C5 6.93 5 13.86 5 21 C3.35 21 1.7 21 0 21 C0 14.07 0 7.14 0 0 Z " fill="#FDFDFE" transform="translate(151,130)"/>
<path d="M0 0 C3 0.125 3 0.125 4 1.125 C4.09851171 2.95615883 4.12972629 4.79119933 4.125 6.625 C4.12757813 7.6253125 4.13015625 8.625625 4.1328125 9.65625 C4 12.125 4 12.125 3 13.125 C0 13.25 0 13.25 -3 13.125 C-4 12.125 -4 12.125 -4.1328125 9.65625 C-4.13023437 8.6559375 -4.12765625 7.655625 -4.125 6.625 C-4.12757813 5.6246875 -4.13015625 4.624375 -4.1328125 3.59375 C-3.93755824 -0.03568207 -3.6938095 0.15390873 0 0 Z " fill="#0A0A0A" transform="translate(223,133.875)"/>
<path d="M0 0 C1.98 0 3.96 0 6 0 C6.33 1.98 6.66 3.96 7 6 C8.32 6.33 9.64 6.66 11 7 C11.33 10.96 11.66 14.92 12 19 C10.35 19.33 8.7 19.66 7 20 C6.67 20.99 6.34 21.98 6 23 C4.02 23 2.04 23 0 23 C0 22.67 0 22.34 0 22 C1.65 22 3.3 22 5 22 C5 15.07 5 8.14 5 1 C3.35 1 1.7 1 0 1 C0 0.67 0 0.34 0 0 Z " fill="#4C4E55" transform="translate(202,129)"/>
<path d="M0 0 C0.33 0 0.66 0 1 0 C1 5.61 1 11.22 1 17 C-0.65 17.33 -2.3 17.66 -4 18 C-4.33 17.34 -4.66 16.68 -5 16 C-5.99 16.66 -6.98 17.32 -8 18 C-7.54705135 16.24859857 -7.08741252 14.49892656 -6.625 12.75 C-6.36976563 11.77546875 -6.11453125 10.8009375 -5.8515625 9.796875 C-5.10401491 7.34162697 -4.22876183 5.24382595 -3 3 C-2.34 3 -1.68 3 -1 3 C-0.67 2.01 -0.34 1.02 0 0 Z " fill="#35373F" transform="translate(149,129)"/>
<path d="M0 0 C1.98 0 3.96 0 6 0 C6 1.98 6 3.96 6 6 C4.02 6 2.04 6 0 6 C0.33 6.66 0.66 7.32 1 8 C3.52733235 8.65555119 3.52733235 8.65555119 6 9 C6 9.33 6 9.66 6 10 C4.35 10 2.7 10 1 10 C1 16.93 1 23.86 1 31 C2.65 31 4.3 31 6 31 C6 31.33 6 31.66 6 32 C4.02 32 2.04 32 0 32 C-0.33 24.74 -0.66 17.48 -1 10 C-1.33 10.66 -1.66 11.32 -2 12 C-2.66 12 -3.32 12 -4 12 C-4 11.34 -4 10.68 -4 10 C-5.65 10 -7.3 10 -9 10 C-9 9.67 -9 9.34 -9 9 C-5.535 8.505 -5.535 8.505 -2 8 C-1.34 5.36 -0.68 2.72 0 0 Z " fill="#76777C" transform="translate(150,120)"/>
<path d="M0 0 C0 4.62 0 9.24 0 14 C-1.65 14 -3.3 14 -5 14 C-5 15.65 -5 17.3 -5 19 C-6.65 19 -8.3 19 -10 19 C-8.68 18.67 -7.36 18.34 -6 18 C-6 12.72 -6 7.44 -6 2 C-1 0 -1 0 0 0 Z " fill="#474A51" transform="translate(323,133)"/>
<path d="M0 0 C3.3125 0.5625 3.3125 0.5625 5.3125 1.5625 C5.3125 3.2125 5.3125 4.8625 5.3125 6.5625 C1.6825 6.8925 -1.9475 7.2225 -5.6875 7.5625 C-5.6875 8.2225 -5.6875 8.8825 -5.6875 9.5625 C-6.6775 9.2325 -7.6675 8.9025 -8.6875 8.5625 C-4.9022555 0.74780169 -4.9022555 0.74780169 0 0 Z " fill="#383A41" transform="translate(168.6875,132.4375)"/>
<path d="M0 0 C1.875 0.25 1.875 0.25 4 1 C5.25 3.0625 5.25 3.0625 6 5 C7.32 5 8.64 5 10 5 C10 10.28 10 15.56 10 21 C9.67 21 9.34 21 9 21 C9 16.05 9 11.1 9 6 C7.35 5.67 5.7 5.34 4 5 C3.67 10.94 3.34 16.88 3 23 C2.67 23 2.34 23 2 23 C1.97494385 22.44538086 1.9498877 21.89076172 1.92407227 21.31933594 C1.80772073 18.79601157 1.68517246 16.27302464 1.5625 13.75 C1.52318359 12.87730469 1.48386719 12.00460938 1.44335938 11.10546875 C1.40146484 10.26113281 1.35957031 9.41679687 1.31640625 8.546875 C1.27974854 7.77182617 1.24309082 6.99677734 1.20532227 6.19824219 C1.00396985 4.0425024 0.58270703 2.08198525 0 0 Z " fill="#5B5C63" transform="translate(177,128)"/>
<path d="M0 0 C0.91007812 0.00902344 1.82015625 0.01804688 2.7578125 0.02734375 C3.45648438 0.03894531 4.15515625 0.05054688 4.875 0.0625 C4.545 1.7125 4.215 3.3625 3.875 5.0625 C0.245 5.0625 -3.385 5.0625 -7.125 5.0625 C-7.125 3.7425 -7.125 2.4225 -7.125 1.0625 C-4.60024538 -0.19987731 -2.81299534 -0.03606404 0 0 Z " fill="#F0F1F2" transform="translate(308.125,128.9375)"/>
<path d="M0 0 C0.91007813 0.00902344 1.82015625 0.01804688 2.7578125 0.02734375 C3.45648438 0.03894531 4.15515625 0.05054688 4.875 0.0625 C4.545 1.7125 4.215 3.3625 3.875 5.0625 C0.245 5.0625 -3.385 5.0625 -7.125 5.0625 C-7.125 3.7425 -7.125 2.4225 -7.125 1.0625 C-4.60024538 -0.19987731 -2.81299534 -0.03606404 0 0 Z " fill="#F5F6F6" transform="translate(170.125,128.9375)"/>
<path d="M0 0 C2.97 0 5.94 0 9 0 C7.02 2.97 7.02 2.97 5 6 C3.02 5.34 1.04 4.68 -1 4 C-0.67 2.68 -0.34 1.36 0 0 Z " fill="#55565D" transform="translate(269,133)"/>
<path d="M0 0 C3.33557632 2.9905167 5.15083921 5.93184627 7 10 C4.66666667 10 2.33333333 10 0 10 C0 6.7 0 3.4 0 0 Z " fill="#393A41" transform="translate(349,141)"/>
<path d="M0 0 C6.15234375 -0.09765625 6.15234375 -0.09765625 8 0 C9 1 9 1 9.0625 3.5625 C9.041875 4.366875 9.02125 5.17125 9 6 C6.69 5.67 4.38 5.34 2 5 C1.34 3.35 0.68 1.7 0 0 Z " fill="#404048" transform="translate(107,133)"/>
<path d="M0 0 C1.4540625 0.0309375 1.4540625 0.0309375 2.9375 0.0625 C2.9375 1.3825 2.9375 2.7025 2.9375 4.0625 C0.9575 4.3925 -1.0225 4.7225 -3.0625 5.0625 C-3.625 3.125 -3.625 3.125 -4.0625 1.0625 C-3.0625 0.0625 -3.0625 0.0625 0 0 Z " fill="#3C3C3C" transform="translate(309.0625,142.9375)"/>
<path d="M0 0 C1.4540625 0.0309375 1.4540625 0.0309375 2.9375 0.0625 C2.9375 1.3825 2.9375 2.7025 2.9375 4.0625 C0.9575 4.3925 -1.0225 4.7225 -3.0625 5.0625 C-3.625 3.125 -3.625 3.125 -4.0625 1.0625 C-3.0625 0.0625 -3.0625 0.0625 0 0 Z " fill="#3B3B3B" transform="translate(171.0625,142.9375)"/>
<path d="M0 0 C1.65 0 3.3 0 5 0 C5 1.98 5 3.96 5 6 C3.35 6 1.7 6 0 6 C0 4.02 0 2.04 0 0 Z " fill="#F1F2F3" transform="translate(202,120)"/>
<path d="M0 0 C1.65 0 3.3 0 5 0 C5 1.98 5 3.96 5 6 C3.35 6 1.7 6 0 6 C0 4.02 0 2.04 0 0 Z " fill="#F1F2F3" transform="translate(151,120)"/>
<path d="M0 0 C1.2065625 0.0309375 1.2065625 0.0309375 2.4375 0.0625 C2.4375 1.3825 2.4375 2.7025 2.4375 4.0625 C0.7875 4.3925 -0.8625 4.7225 -2.5625 5.0625 C-3.125 3.125 -3.125 3.125 -3.5625 1.0625 C-2.5625 0.0625 -2.5625 0.0625 0 0 Z " fill="#262725" transform="translate(113.5625,142.9375)"/>
<path d="M0 0 C0.33 0 0.66 0 1 0 C1 1.98 1 3.96 1 6 C-0.65 6 -2.3 6 -4 6 C-4 5.01 -4 4.02 -4 3 C-5.32 2.67 -6.64 2.34 -8 2 C-5.36 2 -2.72 2 0 2 C0 1.34 0 0.68 0 0 Z " fill="#414148" transform="translate(201,145)"/>
<path d="M0 0 C1.32 0.33 2.64 0.66 4 1 C3.6875 2.875 3.6875 2.875 3 5 C2.01 5.66 1.02 6.32 0 7 C0 4.69 0 2.38 0 0 Z " fill="#2F2F38" transform="translate(122,133)"/>
<path d="M0 0 C5.75 -0.125 5.75 -0.125 8 1 C7.34 2.32 6.68 3.64 6 5 C5.01 4.67 4.02 4.34 3 4 C3 3.34 3 2.68 3 2 C2.01 1.34 1.02 0.68 0 0 Z " fill="#45464D" transform="translate(304,133)"/>
<path d="M0 0 C1.65 0 3.3 0 5 0 C4.67 1.32 4.34 2.64 4 4 C2.35 4 0.7 4 -1 4 C-0.67 2.68 -0.34 1.36 0 0 Z " fill="#3C3E46" transform="translate(296,148)"/>
<path d="M0 0 C1.98 0 3.96 0 6 0 C6 0.99 6 1.98 6 3 C4.02 3 2.04 3 0 3 C0 2.01 0 1.02 0 0 Z " fill="#3F3F48" transform="translate(268,134)"/>
</svg>
